<?xml version="1.0" encoding="utf-8"?>
<!-- Generator: Adobe Illustrator 24.1.1, SVG Export Plug-In . SVG Version: 6.00 Build 0)  -->
<svg version="1.1" id="Layer_1" xmlns="http://www.w3.org/2000/svg" xmlns:xlink="http://www.w3.org/1999/xlink" x="0px" y="0px"
	 viewBox="0 0 3425.69 3563.69" style="enable-background:new 0 0 3425.69 3563.69;" xml:space="preserve">
<style type="text/css">
	.st0{fill:#1A1A1A;}
</style>
<g>
	<path d="M497.49,3375.21c3.88,11.35,6.95,20.71,10.26,29.99c6.14,17.17,12.34,34.32,18.69,51.42c1.37,3.68,1.49,7.11-0.14,10.6
		c-1.83,3.93-4.85,4.92-8.93,3.03c-5.24-2.42-9.36-6.36-13.03-10.6c-11.1-12.81-20.49-26.91-29.8-41.04
		c-13.17-20-24.62-40.98-34.51-62.78c-6.85-15.1-14.73-29.74-20.45-45.36c-7.52-20.52-15.53-40.87-21.57-61.91
		c-0.15-0.52-0.76-0.91-1.59-1.86c-0.66,8.12-1.15,15.68-1.94,23.22c-0.68,6.58-1.71,13.12-2.57,19.68
		c-0.4,3.03-1.53,5.85-3.19,8.32c-4.33,6.47-11.15,6.79-15.55,0.42c-2.62-3.78-4.74-8.1-6.18-12.47
		c-5.08-15.45-10.07-30.95-14.55-46.58c-7.14-24.87-13.52-49.97-20.82-74.79c-9.83-33.42-20.42-66.61-30.32-100.01
		c-8.38-28.29-17.88-56.22-27.42-84.12c-5.71-16.68-13.94-32.37-22.02-48.02c-14.94-28.93-30.79-57.37-47.73-85.19
		c-16.75-27.5-34.22-54.54-52.61-80.98c-11.37-16.35-22.26-33.03-33.51-49.47c-9.76-14.26-19.81-28.32-29.55-42.59
		c-8.05-11.8-15.9-23.75-23.69-35.73c-1.02-1.57-2.52-3.19-2.21-5.37c0.53-1.11,1.51-0.94,3.04-1.01
		c-7.91-18.34-14.21-37.07-19.88-55.98c-4.66-15.55-8.62-31.3-12.31-47.14c-4.75-20.38-9.25-40.83-12.37-61.47
		c-3.22-21.29-6.93-42.55-8.67-64.07c-1.5-18.52-3.72-36.98-5.53-55.47c-0.36-3.63-0.27-7.31-0.43-10.96
		c-1.13-26.22-2.27-52.44-3.41-78.65c2.73-11.82,0.04-23.76,0.47-35.66c0.36-10.16-0.83-20.57-1.61-30.85
		c-2.44-32.15-1.77-64.36-1.84-96.56c-0.07-29.57,2.37-59.04,4.29-88.5c1.47-22.5,4.51-44.91,7.24-67.31
		c2.36-19.41,4.92-38.82,7.99-58.13c3.65-22.91,8.26-45.66,12.87-68.41c3.5-17.28,7.99-34.3,12.48-51.28
		c3.72-14.07,9.43-27.65,14.74-41.26c14.13-36.18,28.15-72.4,44.14-107.81c6.29-13.93,13.95-27.15,20.77-40.79
		c9.69-19.37,21.07-37.68,32.76-55.8c11.7-18.14,24.09-35.85,36.74-53.35c5.82-8.05,12.84-15.28,19.6-22.62
		c7.63-8.29,15.67-16.2,23.35-24.45c11.78-12.65,24.15-24.64,36.9-36.33c11.04-10.12,22.16-20.02,34.56-28.44
		c2.61-1.77,2.48-1.97,4.86-8.89c1.62,11.63,3.47,21.75,6.24,31.72c5.6,20.18,12.08,40.04,19.74,59.51
		c8.26,20.99,16.02,42.21,25.32,62.73c11.21,24.74,21.91,49.75,34.9,73.66c6.16,11.34,11.49,23.14,17.68,34.46
		c10.68,19.53,21.93,38.74,32.57,58.29c8.72,16.03,18.51,31.41,28.12,46.88c11.91,19.16,24.82,37.67,37.81,56.13
		c13.21,18.79,27.2,36.93,42.11,54.36c7.08,8.27,15.28,15.58,22.36,23.85c6.51,7.61,14.37,13.57,21.86,20.02
		c14.93,12.85,32.77,19.97,51.16,25.85c17.75,5.68,36,8.66,54.55,10.84c20.74,2.45,41.09,0.38,61.5-2.09
		c6.55-0.79,12.91-3.1,19.36-4.7c21.16-5.26,40.62-14.22,58.61-26.55c8.9-6.1,15.53-14.47,23.07-21.93c1.33-1.32,1.99-3.44,2.63-5.3
		c7.18-20.7,13.97-41.53,21.51-62.09c9.26-25.26,17.29-50.91,25.53-76.49c11.09-34.45,21.33-69.18,31.98-103.78
		c6.13-19.93,12.46-39.8,18.49-59.77c5.37-17.77,11.41-35.31,17.39-52.88c5.34-15.69,10.58-31.4,16.95-46.7
		c1.72-4.15,1.7-8.43,1.72-12.77c0.13-23.53,1-47.09,0.18-70.6c-0.65-18.57,0.17-37.2-2.06-55.73c-0.75-6.25-0.36-12.63-0.66-18.95
		c-1.21-25.51-2.2-51.02-3.8-76.51c-1.64-26.11-3.83-52.18-5.89-78.26c-2.11-26.8-4.15-53.6-6.59-80.37
		c-3.1-34.01-6.51-68-9.92-101.98c-2.39-23.78-5.47-47.49-7.39-71.3c-1.71-21.19-4.65-42.27-6.06-63.45
		c-2.05-30.73-1.96-61.43,3.46-92.04c2.88-16.3,4.19-32.92,8.62-48.91c6.2-22.4,13.73-44.35,23.17-65.68
		c11.15-25.21,24.09-49.39,37.84-73.27c12.27-21.32,25.37-42.02,39.12-62.39c12.66-18.74,25.52-37.32,38.79-55.62
		c12.3-16.97,25.35-33.37,38.98-49.31c12.73-14.9,26.08-29.22,39.62-43.37c18.87-19.69,39.17-37.84,60.02-55.37
		c15.78-13.27,32.05-25.98,49.29-37.31c12.21-8.02,24.32-16.23,37.66-22.48c8.41-3.94,15.56-9.46,20.92-17.73
		c12.12-18.69,26.21-35.97,41.39-52.27c19.23-20.66,40.2-39.33,62.85-56.31c25.96-19.47,53.73-35.55,83.39-48.39
		c13.7-5.93,27.8-11.01,42.55-13.92c1.3-0.26,2.74-0.35,3.85-0.98c11-6.27,23.35-6.97,35.44-8.86c17.11-2.68,34.28-3.93,51.6-3.7
		c21.67,0.29,43.03,2.64,64.08,8.02c24.14,6.18,48.23,12.45,70.81,23.24c10.47,5,20.84,10.22,31.02,15.78
		c7.98,4.36,15.18,9.75,17.09,19.24c-0.42,2.88-2.21,4.48-3.95,5.98c-17,14.63-30.54,32.13-43.1,50.58
		c-8.04,11.82-16.24,23.51-23.21,36c-5.17,9.25-10.93,18.17-15.44,27.81c-6.48,13.83-13.35,27.48-19.89,41.29
		c-2.96,6.25-5.51,12.69-8.6,19.84c23.65,15.86,45.35,33.65,65.96,53.09c23.59-23.55,51.47-39.32,80.07-54.25
		c14.42-7.52,28.79-15.23,43.71-21.53c20.77-8.77,41.74-17.17,63.44-23.59c11.03-3.26,22.23-5.7,33.35-8.47
		c9.94-2.48,20.24-3.51,30.31-5.54c27.67-5.58,55.64-9.11,83.74-11.04c18.89-1.3,37.9-0.89,56.86-0.99
		c11.64-0.06,23.31-0.03,34.93,0.67c15.23,0.92,30.44,2.37,45.25,6.46c2.21,0.61,4.45,1.14,6.51,1.66
		c10.67-9.04,20.92-17.96,31.44-26.57c17.51-14.33,36.02-27.24,55.32-39.08c22.77-13.98,46.9-25.15,71.92-34.15
		c20.22-7.27,40.88-13.23,62.05-17.66c15.94-3.33,31.88-6.5,47.99-8.41c17.45-2.06,35.04-3.12,52.67-2.99
		c28.31,0.21,56.4,2.9,84.17,8.34c42.99,8.42,84.02,22.64,122.87,42.93c22.15,11.57,43.41,24.74,62.81,40.43
		c20.41,16.51,39.73,34.44,54.79,56.21c7.5,10.85,14.3,22.17,17.33,35.48c1.82,7.99-0.11,15.2-2.1,22.44
		c-1.31,4.79-5.76,6.94-10.63,7.9c-13.73,2.69-27.07,6.69-40.32,11.21c-19.53,6.66-38.52,14.57-57.06,23.58
		c-13.14,6.38-26.43,12.57-39.01,19.94c-17.44,10.22-34.93,20.38-51.71,31.75c-22.03,14.92-43.07,31.1-63.55,48.03
		c-8.41,6.95-16.39,14.43-24.47,21.78c-1.16,1.06-1.78,2.72-3.07,4.76c22.63,32.07,39.52,67.05,49.42,104.97
		c3.59,0.05,5.99-1.17,8.32-2.35c15.38-7.79,32.13-10.54,48.9-12.86c20.46-2.83,41.08-3.42,61.67-1.89
		c18.54,1.38,36.79,4.33,54.43,10.76c10.01,3.65,20.01,7.27,29.3,12.45c8.99,5.01,17.63,10.64,26.91,16.3
		c9.43-4.61,18.97-9.91,29-14.04c19.01-7.82,37.7-16.56,58.11-20.56c20.67-4.05,41.44-5.59,62.47-4.68
		c20.27,0.88,40.28,3.7,60.16,7.46c10.76,2.04,21.43,4.67,31.98,7.61c16.28,4.54,32.31,9.86,48.15,15.84
		c20.6,7.77,40.39,17.13,59.6,27.83c22.71,12.65,44.28,27.02,63.9,44.07c22.15,19.25,42.6,40.15,56.23,66.6
		c4.37,8.48,8.27,17.33,9.9,26.75c-2.65,2.51-5.57,3.12-8.6,2.86c-22.68-1.95-43.17,5.87-63.72,13.82
		c-22.32,8.63-44.23,18.2-65.59,28.94c-9.17,4.61-17.91,10.11-26.72,15.4c-18.85,11.31-36.1,24.75-52.31,39.58
		c-2,1.83-3.87,3.59-5,6.41c7.49,25.26,11.53,51.46,15.45,77.65c1.72,11.48,1.73,23.2,3.02,34.76c2.14,19.23,1.84,38.54,1.33,57.77
		c-0.6,22.54-1.97,45.05-4.98,67.52c-4.63,34.6-11.56,68.73-18.77,102.83c-3.23,15.26-8.21,30.06-13.18,44.85
		c-4.98,14.79-9.58,29.69-15.91,44c-2.03,4.59-4.45,8.9-6.92,13.21c-9.88,17.3-18.51,35.29-28.99,52.26
		c-8.21,13.29-16.65,26.41-25.65,39.18c-15.1,21.44-31.54,41.8-49.06,61.28c-18.46,20.52-38.22,39.73-59.4,57.46
		c-9.42,7.89-18.7,15.97-28.46,23.4c-11.09,8.44-22.54,16.42-34.05,24.28c-16.73,11.43-34.16,21.78-51.82,31.68
		c-17.97,10.07-36.14,19.71-55.2,27.7c-21.18,8.87-42.92,16.03-64.8,22.76c-9.49,2.92-19.15,5.46-28.77,8
		c-10.9,2.87-21.79,5.69-32.78,8.18c-1.59,0.36-3.2,1.06-4.57,1.97c-14.91,9.89-30.88,17.93-44.81,29.61
		c-28.52,23.93-56.18,48.79-84.06,73.43c-14.78,13.06-27.72,27.65-39.06,43.76c-9.73,13.83-19.91,27.34-29.55,41.24
		c-5.47,7.89-10.19,16.29-15.38,24.38c-2.08,3.25-2.36,6.46-1.93,10.31c1.33,11.87,2.99,23.85,1.96,35.75
		c-0.77,8.98-1.07,17.93-1.24,26.9c-0.59,31.69-5.96,62.62-13.2,93.43c-6.19,26.31-15.26,51.45-26.02,76.13
		c-4.15,9.53-9.73,18.24-15.6,26.6c-6.48,9.22-12.78,18.59-19.44,27.69c-3.53,4.83-6.62,9.97-10.16,14.8
		c-10.82,14.77-23.33,27.99-36.6,40.6c-16.65,15.81-33.88,30.91-52.45,44.41c-8.58,6.24-17.27,12.45-26.44,17.75
		c-16.82,9.72-31.57,22.01-46.04,34.78c-23.42,20.67-45.83,42.4-67.61,64.75c-24.09,24.71-47.97,49.66-71.08,75.28
		c-25.13,27.85-49.5,56.41-72.83,85.81c-15.04,18.95-30.69,37.43-45.51,56.55c-15.88,20.49-31.23,41.39-46.6,62.27
		c-19.31,26.21-38.67,52.39-57.54,78.93c-18.67,26.25-36.44,53.15-55.2,79.34c-12.37,17.28-23.83,35.18-36.3,52.4
		c-9.53,13.15-18.37,26.88-27.68,40.23c-19.37,27.75-38.57,55.63-58.58,82.92c-7.84,10.69-15.68,21.45-24.1,31.77
		c-6.22,7.62-10.6,16.76-15.7,25.28c-14.66,24.48-29.12,49.09-43.95,73.47c-17.76,29.2-35.4,58.48-53.84,87.24
		c-18.1,28.22-35.75,56.73-54.6,84.49c-14.73,21.7-30.53,42.61-45.53,64.09c-15.95,22.85-32.49,45.25-50.98,66.11
		c-20.53,23.17-42.81,44.47-67.35,63.5c-15.02,11.65-30.73,22.11-47.13,31.57c-12.37,7.14-25.41,13.03-38.94,17.67
		c-8.15,2.79-16.51,4.94-24.69,7.66c-9.42,3.14-18.85,6.3-28.04,10.04c-5.27,2.15-10.7,3.65-16.11,5.16
		c-17.9,5-35.72,10.55-53.91,14.19c-26.34,5.28-52.81,10.1-79.56,12.99c-20.17,2.18-40.37,3.77-60.65,4.61
		c-39.87,1.66-79.75,2.3-119.62,0.79c-35.18-1.33-70.25-4.65-104.69-12.17c-17.13-3.74-34.06-8.53-50.65-14.65
		c-17.15-6.32-34.17-12.8-50.65-20.73c-27.92-13.44-54.49-29.11-79.11-47.96c-33.86-25.93-65.17-54.45-90.28-89.24
		C500.84,3377.56,500.17,3377.26,497.49,3375.21z"/>
</g>
<g>
	<path class="st0" d="M1328.5,406.56c7.52,2.11,13.16,6.66,20.08,8.05c0.22,0.04,0.53-0.37,0.79-0.57c0-0.57,0.2-1.52-0.03-1.65
		c-12.04-6.54-20.5-16.83-27.69-27.96c-4.43-6.85-7.05-14.67-7.53-23.33c-1.3-23.46,0.85-46.58,6.77-69.16
		c3.35-12.77,8.69-25.08,13.86-37.29c10.12-23.9,22.85-46.49,37.88-67.58c18.14-25.45,38.36-49.22,61.38-70.53
		c17.35-16.06,35.88-30.61,55.26-44.06c15.02-10.42,31.02-19.34,47.53-27.15c17.72-8.37,35.73-16.06,54.91-20.75
		c18.11-4.43,36.4-7.4,54.96-9.13c16.29-1.52,32.59-0.99,48.69,0.79c25.64,2.83,51.18,6.26,76.12,13.83
		c23.12,7.02,44.52,17.13,64.73,30.07c3.8,2.43,7.62,5.13,10.54,9.4c-2.9,3.45-5.4,6.93-8.39,9.92
		c-20.58,20.57-36.1,44.77-50.92,69.59c-12.79,21.42-23.58,43.82-34.19,66.33c-3.11,6.6-5.72,13.44-8.43,20.22
		c-3.7,9.25-7.13,18.6-10.95,27.8c-5.61,13.51-9.43,27.63-14.38,41.36c-0.34,0.94-1.03,1.85-1.04,2.78
		c-0.15,9.69-6.73,13.64-14.48,16.92c-12.81,5.42-26.01,9.72-40.41,14.06c2.95,1.96,5.11,1.06,7.09,0.9
		c9.94-0.83,19.71-2.52,29.32-5.34c10.19-3,19-7.81,24.81-16.81c19.13,2.09,36.76,7.97,53.99,14.91
		c23.14,9.32,44.61,21.99,66.16,34.44c7.17,4.15,13.87,9.12,21.02,13.3c5.63,3.29,10.03,7.76,13.42,13.07
		c15.59,24.36,31.02,48.83,43.56,74.97c0.82,1.7,2.11,3.27,1.8,5.37c-2.34,0.6-3.6-1.09-5.03-2.34
		c-25.47-22.12-53.88-39.76-83.9-54.91c-23.77-11.99-48.56-21.41-74.15-28.76c-21.1-6.06-42.62-10.01-64.33-12.94
		c-7.56-1.02-15.34-0.36-22.9-1.35c-12.93-1.69-25.78-0.48-38.61,0.43c-14.88,1.06-29.73,2.51-44.45,5.24
		c-27.85,5.17-54.81,13.15-81.04,23.9c-13.25,5.43-25.94,11.91-38.62,18.48c-19.51,10.12-37.82,22.19-55.51,35.15
		c-17.68,12.95-34.24,27.26-49.92,42.62c-16.89,16.54-32.82,33.89-46.93,52.86c-17.89,24.05-33.51,49.44-45.22,77.15
		c-6.59,15.6-13.69,31.01-18.38,47.31c-7.16,24.88-14.53,49.72-20.71,74.85c-4.52,18.35-7.52,37.09-10.73,55.74
		c-2.98,17.33-5.62,34.74-7.86,52.18c-1.94,15.09-3.49,30.26-4.56,45.43c-1.58,22.47-3.04,44.97-3.7,67.48
		c-0.58,19.92-0.31,39.88,1.14,59.8c1.01,13.92,1.81,27.85,3.22,41.75c4.55,45,13.65,89.06,27.11,132.17
		c5.63,18.04,12.53,35.7,19.19,53.4c2.32,6.16,5.62,11.95,8.57,17.86c4.3,8.61,11.16,14.33,19.78,18.56
		c15.35,7.52,31.41,12.6,48.23,15.31c13.1,2.11,26.22,4.15,39.53,4.59c17.52,0.59,35.03,1.68,52.55,1.9
		c15.87,0.2,31.77,0.43,47.61-1.46c4.92-0.58,9.97,0.06,14.92-0.33c22.82-1.78,45.67-3.01,68.48-4.95
		c19.19-1.64,38.19-5.05,57.53-5.44c14.9-0.3,29.88-1.37,44.64-3.41c18.04-2.5,36.24-3.69,54.14-7.66
		c10.31-2.29,20.73-4.14,31.05-6.59c23.02-5.47,43.62-15.36,61.11-31.46c0.71-0.65,1.76-0.85,3.2,0.6c0.1,2.3-1.85,4.22-3.13,6.36
		c-7.84,13.11-15.39,26.38-21.02,40.62c-4.05,10.25-7.25,20.75-6.15,31.97c0.72,7.31,2.31,14.39,9.71,20.41
		c-2.32-10.82-2.29-20.39-0.73-30.43c15.26-9.45,32.88-13.55,49.09-21.04c-15.49,1.15-30.62,3.72-44.64,10.77
		c-1.91-1.94-0.62-3.69-0.02-5.51c5.52-16.66,15.64-30.76,25.51-44.91c16.88-24.22,33.85-48.37,49.66-73.33
		c4.58-7.24,8.47-15,14.54-21.38c3.08,5.15,2.42,11.27,5.29,16.63c7.95,14.87,20.01,25.59,33.68,34.48
		c22.35,14.54,46.84,24.84,71.5,34.8c16.95,6.84,34.19,12.73,51.57,18.25c19.21,6.1,38.76,11.01,58.36,15.75
		c12.58,3.04,25.07,6.44,37.8,8.8c16.29,3.02,32.82,3.68,49.32,4.44c5.6,0.26,11.02-2.63,17.49-0.92c-5.89,5.03-12.92,6.78-19.13,10
		c-6.48,3.36-13.14,6.38-19.81,9.35c-6.63,2.96-13.37,5.69-20.23,8.6c2.04,2.5,3.76,0.97,5.46,0.45c22.59-6.9,44.35-16,66.25-24.74
		c2.4-0.96,4.62-2.33,6.9-3.49c1.82,2.51-0.39,3.29-1.49,4.1c-12.56,9.39-23.65,20.33-33.96,32.08
		c-11.68,13.32-21.21,27.98-26.7,44.97c-2.66,8.24-1.78,15.2,3.09,23.88c0.9-4.61,1.25-8.37,2.4-11.86
		c2.27-6.94,4.91-13.76,7.55-20.57c1.6-4.14,4.57-5.99,9.26-5.98c4.37,0.01,8.55,0.56,12.81,1.36c10.1,1.88,20.09,4.06,29.91,8.84
		c-6.9-9.01-15.75-15.48-42.38-18.95c2.94-6.56,7.45-11.78,11.85-16.92c19.14-22.39,41.96-40.22,66.98-55.77
		c15.79-9.82,32.42-18.07,48.22-27.82c5.03-3.1,11.03-4.59,16.4-7.21c22.12-10.78,43.23-23.32,63.42-37.38
		c11.71-8.15,23.15-16.68,34.76-25.07c2.49,2.33,0,3.7-0.8,5.01c-10.47,16.95-20.29,34.24-28.84,52.27
		c-10.28,21.68-17.48,44.35-23.41,67.56c-3.8,14.87-5.01,30-5.89,45.14c-0.4,6.8,1.28,13.87,2.87,20.61
		c2.05,8.72,4.51,17.35,6.68,26.06c2.75,11.07,8.99,20.67,16.23,29.42c11.24,13.59,24,25.63,38.04,36.33
		c11.9,9.06,24.06,17.78,36.99,25.26c23.57,13.64,47.48,26.7,71.17,40.13c15.38,8.72,31.73,15.21,48.28,21.18
		c14.36,5.17,29.23,8.74,44.13,12.08c4.2,0.94,8.54,1.25,12.76,2.12c13.28,2.74,26.65,4.86,40.18,5.77
		c2.64,0.18,5.32-0.08,7.97-0.27c11.23-0.81,22.51-0.89,33.7-2.56c8.85-1.32,17.86-0.58,26.76-2.29
		c33.95-6.5,67.79-13.31,99.71-27.22c6.4-2.79,12.9-5.35,19.31-8.12c13.73-5.93,26.49-13.74,39.84-20.41
		c1.89-0.94,3.67-3.13,6.76-1.5c-6.55,6-14.23,9.79-21.57,14.13c-17.72,10.48-35.61,20.6-54.23,29.4
		c-22.74,10.75-45.75,20.76-69.42,29.4c-20.66,7.54-41.73,13.42-62.93,19.02c-2.24,0.59-4.6,0.73-6.89,1.14
		c-20.55,3.67-41.06,7.67-61.68,10.91c-10.8,1.7-21.8,2.63-32.73,2.89c-13.45,0.32-26.91,2.58-40.39,0.4
		c-11.28,2.64-22.43-0.45-33.65-0.62c-7.69-0.12-14.83-3.15-22.5-3.42c1.07,2.66,3.51,3,5.76,3.6c13.48,3.59,27.1,6.14,40.95,8.13
		c16.6,2.39,33.2,2.35,49.69,1.56c17.83-0.86,35.78-2.1,53.4-5.7c1.25-0.26,2.6-0.03,3.88-0.03c1.12,2.47-1.02,3.04-2.12,3.68
		c-27.98,16.39-52.65,37.19-77.41,57.86c-12.2,10.18-23.14,21.7-34.52,32.77c-22,21.41-40.87,45.41-58.56,70.35
		c-5.33,7.51-10.46,15.31-13.93,23.56c-1.75,0.3-2.6-0.25-2.63-1.31c-0.37-15.16-5.92-29.17-9.52-43.62
		c-5.3-21.29-12.46-41.94-21.07-62.12c-5.33-12.49-11.41-24.59-18.13-36.39c-14.51-25.47-31.11-49.43-51.11-70.93
		c-13.14-14.12-27.47-26.96-42.51-39.05c-8.29-6.66-16.07-13.95-25.32-19.36c-7.41-4.33-14.55-9.22-22.25-12.96
		c-6.38-3.09-10.5-7.91-14.09-13.6c-6.56-10.39-13.87-20.18-22.25-29.22c-14.08-15.2-29.72-28.18-48.29-37.73
		c-10.61-5.45-20.08-12.96-30.73-18.49c-27.83-14.46-57-25.08-87.65-31.77c-31.74-6.92-63.82-9.55-96.18-7.42
		c-17.54,1.15-34.83,4.37-51.9,8.94c-11.53,3.09-23.36,5.09-34.88,8.37c-9.25,2.64-18.64,4.8-27.88,7.48
		c-16.87,4.9-33.72,10-49.84,17c-17.66,7.67-35.5,14.96-52.64,23.79c-6.5,3.35-11.92,8.48-19.43,11.37
		c-9.25-5.64-19.68-9.73-30.15-13.76c-20.91-8.05-42.46-12.66-64.94-13.1c-25.36-0.5-50.31,2.28-75.26,6.84
		c-24.84,4.54-49.16,10.75-73.17,18.36c-32.66,10.35-64.14,23.37-94.47,39.46c-22.07,11.71-43.17,24.87-63.39,39.37
		c-25.2,18.07-48.16,38.77-67.86,62.85c-4.43,5.42-9.56,10.18-14.35,15.17c-15.13,15.79-26.45,34.08-37.2,52.82
		c-10.41,18.16-20.12,36.73-28.17,56.05c-9.32,22.35-18.05,44.95-25.33,68.08c-4.78,15.21-8.85,30.6-12.68,46.06
		c-4.15,16.76-7,33.78-9.84,50.8c-2.89,17.35-4.25,34.8-4.7,52.4c-0.18,7.23-0.61,14.53-0.99,21.8
		c-0.63,12.19,2.83,23.71,5.56,35.33c4.37,18.53,10.78,36.27,21.47,52.22c8.94,13.33,19.69,25.12,31.9,35.44
		c22.91,19.35,49.22,32.17,78.33,39.21c7.43,1.8,14.97,2.86,22.66,3.32c9.27,0.55,18.52,1.68,27.73,2.92
		c12.51,1.68,25.01,3.18,37.66,3.5c16.59,0.41,33.18,1.25,49.77,1.73c20.27,0.59,40.48-1.07,60.7-2.12
		c18.84-0.98,37.54-3.43,56.28-5.69c17.48-2.11,34.81-4.99,52.12-8.01c16.99-2.96,33.9-6.42,50.72-10.38
		c8.67-2.04,17.74-2.32,26.6-3.59c17.41-2.49,34.96-3.9,52.42-5.87c23.08-2.6,46.42-2.87,69.67-2.01
		c13.54,0.5,25.73,5.55,37.16,12.77c17.01,10.74,31.17,24.81,45.75,38.41c11.95,11.15,21.88,24.1,32.39,36.53
		c3.63,4.29,7.42,8.48,11.09,12.69c15.21,17.39,26.21,37.59,39.15,56.49c5.61,8.2,10.79,16.7,16.4,24.9
		c8.29,12.11,19.65,19.19,34.25,21.99c19.25,3.7,38.57,4.77,58.12,5.02c23.06,0.29,45.64-3.1,68.05-7.42
		c17.85-3.44,35.4-8.47,52.53-14.85c10.87-4.05,21.91-7.63,32.49-12.45c1.53-0.7,3.13-1.06,5.62-0.35
		c-5.49,5.34-10.4,10.76-15.96,15.39c-10.47,8.7-19.7,18.67-29.67,27.86c-11.46,10.57-22.84,21.22-33.61,32.45
		c-24.35,25.39-48.71,50.75-71.91,77.23c-21.02,23.99-41.72,48.24-62.05,72.79c-16.26,19.63-31.88,39.79-47.54,59.91
		c-13.47,17.3-26.67,34.81-39.82,52.36c-10.55,14.07-21.21,28.05-31.12,42.61c-6.34,9.32-13.75,17.92-20.21,27.23
		c-13.43,19.34-27.31,38.37-40.86,57.63c-10.7,15.2-21.24,30.53-31.79,45.84c-12.99,18.85-26.05,37.67-38.85,56.65
		c-13.94,20.66-27.7,41.45-41.4,62.27c-11.84,18-24.11,35.68-36.9,53.03c-13.79,18.7-26.61,38.05-39.06,57.68
		c-14.43,22.74-29.29,45.21-43.28,68.23c-9.31,15.32-18.63,30.63-28.1,45.85c-9.31,14.97-18.74,29.86-28.24,44.7
		c-15.22,23.77-30.63,47.41-45.8,71.21c-9.82,15.41-19.24,31.07-29.03,46.5c-11.19,17.64-23.44,34.54-36.46,50.87
		c-14.91,18.71-30.48,36.84-46.98,54.19c-10.55,11.09-21.98,21.17-33.58,31.07c-8.32,7.1-17.17,13.58-25.82,20.29
		c-14.52,11.26-30.81,19.54-47.25,27.46c-13.75,6.62-27.61,13.07-41.74,18.83c-11.96,4.88-24.29,8.92-36.6,12.88
		c-25.31,8.13-51.06,14.61-77.2,19.46c-5.19,0.96-10.33,2.38-15.74,1.43c-1.57-0.28-3.35,0.02-4.91,0.47
		c-20.53,5.89-41.78,7.69-62.79,10.68c-10.81,1.54-21.87,1.76-32.8,2.3c-26.21,1.3-52.42,3.51-78.69,2.54
		c-6.76-0.25-13.47-0.84-20.23,0.07c-7.21,0.98-14.45,0.27-21.67,0.04c-6.99-0.23-13.97-0.4-20.96-0.7
		c-2.64-0.11-5.27-0.65-7.91-0.77c-6.25-0.3-12.35-1.06-18.78,0.1c-4.47,0.81-9.56,0.43-14.56-0.8c-10.89-2.7-22.15-3.91-33.2-6.02
		c-21.21-4.05-41.93-10.01-62.59-16.26c-16.85-5.1-32.83-12.34-49.03-19.01c-11.3-4.65-22.12-10.54-32.89-16.36
		c-9.04-4.88-17.53-10.77-26.56-15.67c-11.89-6.45-19.92-16.32-26.44-27.77c-8.74-15.34-15.4-31.48-20.24-48.49
		c-4.56-15.98-9.04-32-9.8-48.61c-1.05-22.94-0.79-45.92,0.57-68.87c0.55-9.29,1.24-18.57,1.57-27.87
		c0.81-22.92,3.05-45.72,5.66-68.49c0.6-5.27,1.4-10.58,2.78-15.69c6.43-23.78,9-48.27,13.64-72.38
		c5.77-29.98,11.34-59.99,18.9-89.6c4.09-16.01,7.25-32.26,11.15-48.32c3.13-12.9,6.7-25.7,10.16-38.53
		c5.44-20.18,10.7-40.42,16.51-60.5c8.12-28.05,16.35-56.08,25.16-83.92c6.43-20.34,10.51-41.21,15.66-61.84
		c4.98-19.95,10.29-39.82,15.73-59.66c4.74-17.26,9.69-34.47,14.88-51.6c4.33-14.29,9.15-28.42,13.76-42.62
		c3.98-12.27,7.78-24.59,11.99-36.78c12.13-35.11,23.78-70.41,36.86-105.16c11.1-29.51,21.9-59.14,33.92-88.33
		c7.82-18.99,14.78-38.36,22.69-57.33c9.57-22.96,18.5-46.17,28.62-68.91c5.79-13,10.26-26.59,15.4-39.88
		c6-15.49,12.94-30.53,20.84-45.18c14.83-27.49,27.86-55.71,35.75-86.18c4.41-17.03,10.75-33.54,15.61-50.46
		c5.96-20.76,13.68-40.91,20.7-61.29c6.57-19.08,13.41-38.11,21.3-56.74c6.47-15.3,11.86-31.06,18.31-46.37
		c13-30.85,26.2-61.62,39.72-92.25c9.36-21.21,19.65-42.01,29.05-63.2c8.91-20.07,14.94-41.13,20.62-62.32
		c5.78-21.54,8.93-43.5,12.29-65.48c3.26-21.31,5.16-42.82,9.56-63.99c2.43-11.66,3.09-23.69,4.83-35.5
		c2.76-18.72,5.87-37.38,8.63-56.1c1.64-11.16,3.03-22.35,4.29-33.56c1.89-16.75,3.64-33.53,5.32-50.3
		c2.08-20.79,4.19-41.57,5.57-62.44c0.87-13.22,0.83-26.57,3.27-39.71c0.84-4.53,0.26-9.31,0.55-13.96
		c2.38-38.85,2.77-77.74,2.27-116.64c-0.18-14.27-2.57-28.43-3.68-42.65c-1.57-20.22-2.01-40.53-2.88-60.8
		c-0.38-8.87-0.73-17.75-0.93-26.63c-0.19-8.55-0.39-17.11-0.17-25.65c0.36-13.5,0.91-27.01,1.67-40.5
		c0.92-16.21,1.29-32.45,3.14-48.62c1.47-12.87,1.64-25.88,3.05-38.75c1.59-14.5,3.81-28.93,5.97-43.35
		c1.57-10.46,3.12-20.95,5.31-31.28c3.86-18.13,7.62-36.27,12.35-54.23c4.15-15.76,8.73-31.37,14.44-46.54
		c6.19-16.43,11.95-33.06,20.04-48.81c7.9-15.38,15.49-30.9,25.05-45.33c14.31-21.59,27.03-44.27,43.91-64.11
		C1301.74,431.83,1316.14,419.96,1328.5,406.56z M1640,111.66c2.55,0.17,4.33-1.42,6.24-2.72c20.89-14.29,42.7-26.72,67.18-33.91
		c1.66-0.49,3.83-0.66,4.97-2.52c-0.65-0.21-1.26-0.57-1.86-0.56c-0.99,0.01-2.01,0.14-2.95,0.43
		c-25.59,7.91-48.87,20.46-70.88,35.53c-1.33,0.91-2.66,2.02-2.53,3.96c-2.2-0.71-3.85,0.46-5.46,1.64
		c-14.16,10.4-28.05,21.15-40.94,33.12c-0.8,0.75-2.2,1.73-0.46,2.98c1.82-0.22,2.8-1.66,4.08-2.68
		c8.54-6.83,16.7-14.11,25.33-20.85C1628.62,121.5,1635.72,118.21,1640,111.66z M1467.86,306.56c7.65-14.33,16.95-27.6,26.01-41.01
		c9.1-13.49,18.63-26.64,28.83-39.35c10.2-12.72,20.44-25.39,31.67-37.19c10.99-11.55,22.32-22.79,33.49-34.17
		C1553.64,177.24,1480.08,267.14,1467.86,306.56z"/>
	<path class="st0" d="M2536.52,451.7c3.39,3.38,5.16,5.35,7.88,6.06c18.63,4.83,36.42,12.42,55.32,16.52
		c10.55,2.29,20.32,2.78,29.14-3.88c5.05,1.32,8.05,5.15,11.77,7.88c13.41,9.86,25.68,21.07,37.03,33.18
		c9.28,9.91,17.4,20.82,24.86,32.23c6.37,9.75,8.72,20.86,10.85,31.84c3.85,19.85,7.19,39.88,8.41,60.06
		c1.65,27.14,3.22,54.32,1.13,81.58c-0.5,6.55-1.24,13.16-1.37,19.77c-0.03,1.72-0.43,3.29-2.88,4.43
		c-0.87-4.45-1.83-8.74-2.54-13.07c-5.77-35.24-19.31-67.5-38.04-97.64c-13.55-21.8-29.93-41.24-48.38-59.26
		c-24.53-23.96-52.65-42.3-83.26-56.97c-20.09-9.63-41.53-15.53-63.43-19.97c-10.45-2.11-21.01-3.48-31.48-4.05
		c-11.5-0.63-23.14-0.54-34.78,0.19c-15.41,0.96-30.04,5.43-45.1,7.79c-23,3.61-45.4,9.82-67.17,17.89
		c-28.65,10.62-56.31,23.36-82.17,39.99c-14.52,9.34-29.37,18.16-43.47,28.18c-13.81,9.82-26.69,20.78-39.87,31.38
		c-15.09,12.13-29.05,25.41-42.7,39.05c-21.93,21.91-41.4,45.95-59.44,71.07c-9.09,12.67-15.64,26.96-21.11,41.64
		c-0.78,2.11-1.56,4.22-2.69,7.29c-3.48-10.48-2.78-20.18-3.48-29.63c-1.17-15.84-3.18-31.56-5.19-47.29
		c-4.07-31.96-10.18-63.58-16.55-95.14c-4.34-21.51-10.59-42.5-19.42-62.66c-2.12-4.85-3.43-10.06-5.55-14.92
		c-1.59-3.64-0.66-6.13,1.76-8.99c8.61-10.16,18.15-19.38,27.91-28.4c14.65-13.53,29.76-26.57,45.61-38.62
		c19.79-15.06,40.53-28.82,61.94-41.54c24.29-14.43,49.68-26.63,75.68-37.55c9.16-3.85,18.72-6.74,28.12-9.97
		c1.86-0.64,3.84-1.19,5.93-0.56c2.44,1.06,2.89,3.64,3.53,5.69c1.82,5.84,5.71,9.47,10.88,12.36c9.74,5.45,20.22,8.26,31.17,9.8
		c5.27,0.74,10.49,1.84,15.72,2.82c1.95,0.37,4.01,1.55,5.77,1.18c4.86-1.02,9.77,1.48,15.8-0.77c-17.01-3.3-32.28-8.51-47.74-13.02
		c-5.7-1.67-11.35-3.91-16.58-6.73c-6.89-3.71-10.46-9.55-10.3-17.92c0.18-9.71,1.45-19.14,3.54-28.6
		c3.15-14.26,7.53-28.1,12.72-41.7c1.29-3.38,2.79-6.68,4.78-9.8c6.42-10.09,12.19-20.6,18.91-30.48
		c6.33-9.3,12.53-19.07,20.63-26.68c8.67-8.15,15.76-17.59,24.25-25.85c17.96-17.48,37.94-32.29,58.66-46.09
		c24.61-16.39,50.46-30.6,77.88-41.9c22.17-9.14,44.79-16.96,68.04-22.63c16.73-4.09,33.65-7.53,50.84-9.59
		c23.14-2.78,46.32-4.33,69.6-3.53c12.26,0.42,24.53,0.99,36.7,3.02c10.44,1.74,21.11,2.26,31.48,4.33
		c19.19,3.82,38.2,8.39,56.67,15.11c7.45,2.71,15.11,4.89,22.57,7.68c23.4,8.73,45.42,20.18,66.9,32.8
		c17.78,10.45,34.34,22.54,49.98,35.96c14.9,12.78,28.88,26.51,40.81,42.1c7.65,10.01,14.45,20.7,18.27,32.93
		c1.5,4.8,2.43,9.69,1.56,14.67c-0.59,3.36-2.17,6.58-6.02,7.07c-13.59,1.75-26.21,7.15-39.43,10.22
		c-13.25,3.08-26.21,7.07-38.97,11.84c-18.99,7.11-37.22,15.86-55.03,25.42c-22.86,12.26-44.74,26.17-66.1,40.88
		c-23.55,16.22-45.95,33.91-66.76,53.56c-14.71,13.89-29.21,27.97-42.01,43.7c-3.17,3.9-5.94,8-8.59,12.23
		c-5.09,8.12-10.97,11.05-20.13,9.02c-13.6-3.01-27.07-6.57-40.63-9.75C2558.93,456.56,2548.62,454.38,2536.52,451.7z
		 M2411.88,305.62c2.28,0.56,3.69-1.04,5.32-2.12c10.25-6.78,20.57-13.45,30.75-20.33c15.17-10.26,31.3-18.91,47.59-27.04
		c28.16-14.07,57.24-26.18,87.45-35.3c19.05-5.75,38.22-11.01,57.58-15.7c19.08-4.63,38.35-8.02,57.7-10.6
		c24.65-3.29,49.53-4.81,74.31-7.13c1.41-0.13,3.37,0.72,3.91-1.99c-17.92-0.45-35.63,1.51-53.38,2.59
		c-18.91,1.15-37.71,3.46-56.29,7.05c-21.13,4.07-42.13,8.69-62.91,14.46c-51.47,14.28-100.31,34.57-146.25,61.86
		c-12.6,7.49-24.16,16.48-36.11,24.88c-3.53,2.48-8.34,4.43-9.5,9.57c-3.94-0.58-4.88,2.9-6.73,5.12
		C2407.85,309.61,2411.36,309.52,2411.88,305.62z"/>
	<path class="st0" d="M3082.98,822.49c11.43,6.48,22.66,12.77,33.81,19.2c7.46,4.31,14.79,8.85,22.2,13.23
		c2.28,1.35,4.71,2.46,7.01,3.78c5.71,3.28,11.27,3.49,16.89-0.31c1.61-1.09,3.62-1.59,5.85-2.53c5.65,3.08,11.43,6.13,16.6,10.34
		c3.59,2.92,7.57,5.38,11.48,7.89c4.46,2.86,6.84,6.43,7.53,12.06c3.2,26.08,5.27,52.19,6.02,78.47
		c0.38,13.57-0.74,27.08-0.22,40.63c0.09,2.29-0.29,4.61-1.51,7.25c-1.44-3.72-3.07-7.38-4.29-11.18
		c-3.6-11.17-8.95-21.55-15.51-31.13c-6.95-10.13-14.91-19.66-23.85-28.11c-16.44-15.54-34.27-29.45-53.99-40.6
		c-32.24-18.23-66.24-32.04-102.51-40.25c-26.66-6.04-53.54-9.67-80.85-9.8c-16.94-0.08-33.77,1.18-50.61,3.5
		c-13.46,1.85-26.99,2.88-40.32,5.87c-21.14,4.75-41.43,11.94-61.09,20.84c-15.7,7.11-31.47,14.27-46.37,22.87
		c-12.86,7.42-26.26,14.18-37.79,23.8c-1.72,1.44-3.93,2.29-7.38,4.24c2.34-4.98,4.15-8.59,5.76-12.29
		c9.86-22.58,16.97-46.03,22.3-70.07c4.23-19.08,8.93-38.07,13.5-57.07c1.3-5.42,0.3-11.34,3.51-16.29
		c41.14-17.38,84.8-24.14,117.96-20.65c1.8,3.61,4.06,7.32,5.56,11.31c3.51,9.35,10.41,15.52,19.12,19.2
		c17.08,7.22,35.13,9.68,53.61,8.27c3.5-0.27,7-0.96,10.72-1.12c-2.9-3.28-6.88-3.08-10.43-3.89c-15.21-3.49-30.75-5.36-45.79-9.77
		c-10.07-2.96-16.19-8.69-19.56-19c-5.68-17.4-7.65-35.06-5.76-53.01c1.78-16.9,6.76-33.12,13.39-48.8
		c6.1-14.44,14.19-27.71,22.94-40.68c2.58-3.82,6.67-5.25,9.61-8.45c17.64-19.22,38.19-34.95,60.26-48.67
		c6.17-3.83,13.08-6.51,19.77-9.44c21.64-9.5,43.58-18.26,67.24-21.17c17.41-2.14,34.81-3.74,52.52-1.99
		c14.79,1.46,29.61,2.43,44.25,5.07c7.14,1.29,14.3,2.65,21.3,4.52c12.79,3.43,25.67,6.43,38.38,10.29
		c15.31,4.65,30.09,10.45,44.81,16.46c9.82,4.01,19.39,8.67,28.87,13.43c21.09,10.57,41.13,22.87,60.17,36.82
		c30.08,22.04,55.48,48.32,73.7,81.12c1.45,2.6,2.65,5.35,3.87,8.07c0.53,1.18,0.79,2.48,1.07,3.37c-0.79,1.95-2.19,2.04-3.45,2
		c-18.52-0.65-36.11,4.28-53.76,8.84c-29.52,7.61-56.9,20.41-83.26,35.34c-26.03,14.74-50.77,31.39-72.74,51.95
		c-13.13,12.29-26.06,24.66-36.35,39.54c-2.08,3.02-5.23,4.8-8.76,6.24c-3.12,1.27-5.59,1.34-8.43-0.37
		c-7.1-4.28-14.2-8.59-21.48-12.54c-13.75-7.46-28.47-12.55-43.33-17.24C3084.69,821.7,3083.97,822.19,3082.98,822.49z
		 M3057.37,657.2c1.85,1.71,3.79,0.44,5.65,0.12c13.07-2.3,26.09-4.94,39.21-6.92c24.22-3.64,48.53-5.94,73.11-5.42
		c25.28,0.53,50.46,1.43,75.38,6.17c2.29,0.44,4.81,0.77,7.67-0.49c-12.8-6.86-68.42-12.46-106.98-11.06
		C3117.87,640.81,3068.94,649.77,3057.37,657.2z"/>
</g>
</svg>
