<?xml version="1.0" encoding="utf-8"?>
<!-- Generator: Adobe Illustrator 24.0.2, SVG Export Plug-In . SVG Version: 6.00 Build 0)  -->
<svg version="1.1" id="Layer_1" xmlns="http://www.w3.org/2000/svg" xmlns:xlink="http://www.w3.org/1999/xlink" x="0px" y="0px"
	 viewBox="0 0 147.53 314.47" style="enable-background:new 0 0 147.53 314.47;" xml:space="preserve">
<style type="text/css">
	.st0{fill:#1A1A1A;}
</style>
<g>
	<path d="M93.72,228.62c-2.52-0.24-5.06-0.45-7.59-0.75c-1.53-0.18-2.65-1.08-3.31-2.46c-2.75-5.71-5.33-11.47-6.3-17.83
		c-0.43-2.78-0.42-5.56-0.44-8.52c-1.1,0.98-2.06,1.99-3.31,2.46c-1.43,0.55-1.98,1.57-2.41,2.94c-1.23,3.94-3.03,7.63-5.24,11.11
		c-0.99,1.56-2.14,3-3.74,4c-0.55,0.35-0.71,0.78-0.67,1.4c0.04,0.67-0.01,1.34-0.16,2.02c-0.62,2.79-2.49,4.35-5.37,4.39
		c-0.16,0-0.32,0.02-0.48,0c-0.81-0.14-1.32,0.14-1.67,0.94c-0.35,0.8-0.81,1.58-1.35,2.25c-0.93,1.16-1.3,2.51-1.26,3.9
		c0.15,5.49-1.9,10.28-4.55,14.89c-0.26,0.45-0.47,0.94-0.78,1.35c-1.1,1.47-1.14,3.11-0.82,4.8c0.2,1.07,0.1,2.04-0.53,2.97
		c-0.55,0.8-0.74,1.71-0.8,2.7c-0.24,3.87-0.54,7.73-0.87,11.59c-0.4,4.53-0.84,9.07-1.3,13.59c-0.23,2.27-0.36,4.54-0.51,6.81
		c-0.03,0.41,0.03,0.8,0.1,1.18c0.27,1.33,0.25,2.64-0.27,3.89c-0.67,1.57-0.52,3.21-0.5,4.83c0.02,1.6-0.07,3.18-0.4,4.76
		c-0.31,1.45-1.14,2.42-2.39,3.11c-1.46,0.81-3.07,1.08-4.68,1.39c-1.83,0.35-3.66,0.1-5.49-0.01c-0.12-0.01-0.27,0.01-0.35-0.06
		c-1.1-0.85-2.19-0.14-3.31-0.07c-2.5,0.17-5.01,0.62-7.52,0.15c-0.71-0.13-1.39-0.35-2.05-0.64c-0.67-0.29-1.33-0.35-2.06-0.14
		c-1.98,0.55-4.02,0.61-6.06,0.51c-1.24-0.06-2.3-0.61-3.32-1.25c-0.49-0.31-0.62-0.83-0.81-1.29c-1.08-2.64-1.54-5.37-0.72-8.16
		c0.67-2.27,1.99-3.95,4.34-4.87c1.73-0.68,3.18-1.85,3.89-3.78c1.61-4.39,3.86-8.49,5.88-12.69c3.44-7.16,6.23-14.56,8.55-22.16
		c0.6-1.97,1.01-3.95,1.05-5.96c0.03-1.49-0.38-3-0.66-4.49c-0.81-4.47-1.82-8.89-2.58-13.37c-0.13-0.78-0.59-1.47-0.74-2.26
		c-0.43-2.25-0.15-4.46,0.27-6.66c0.56-2.99,0.87-5.99,0.92-9.08c-0.46-0.46-1.09-0.71-1.67-1.04c-1.53-0.87-2.71-2.06-3.63-3.56
		c-0.72-1.17-0.81-2.4-0.57-3.69c0.09-0.47,0.19-0.96,0.4-1.37c0.84-1.6,1.01-3.37,1.13-5.11c0.3-4.43,1.03-8.79,1.93-13.22
		c-1.29-0.02-2.52-0.03-3.74-0.5c-3.19-1.25-5.27-4.32-5.17-7.73c0.05-1.61,0.3-3.17,0.94-4.66c0.66-1.54,0.5-3.21,0.81-4.81
		c0.06-0.34-0.04-0.62-0.28-0.88c-0.19-0.2-0.35-0.44-0.52-0.66c-0.86-1.09-1.17-2.26-0.88-3.67c0.52-2.5,1.09-4.97,1.82-7.41
		c0.2-0.69,0.53-1.22,1.15-1.59c0.82-0.49,1.52-1.18,2.45-1.49c0.36-0.12,0.48-0.38,0.58-0.69c0.39-1.25,0.63-2.56,1.37-3.68
		c0.11-0.17,0.15-0.41,0.01-0.57c-0.77-0.83-0.32-1.83-0.38-2.75c-0.04-0.6,0.39-1.07,0.88-1.34c0.94-0.5,1.42-1.36,1.91-2.23
		c1.13-2.01,2.39-3.96,3.24-6.13c0.18-0.46,0.27-0.87,0.22-1.38c-0.17-1.53,0.53-2.83,2.01-3.26c1.28-0.37,1.87-1.22,2.54-2.25
		c1.83-2.85,2.43-6.04,2.79-9.29c0.46-4.13,1.26-8.19,2.1-12.25c0.6-2.89,1.3-5.75,2.17-8.56c0.11-0.35,0.27-0.78-0.14-0.96
		c-0.99-0.45-1.13-1.46-1.68-2.2c0.1-0.15,0.14-0.28,0.23-0.34c2.05-1.33,2.72-3.4,3.17-5.66c0.71-3.59,2.11-6.92,4.15-9.98
		c1.08-1.62,2.42-2.97,4.05-4.03c0.44-0.28,0.76-0.6,0.96-1.15c0.4-1.12,0.98-1.42,2.12-1.11c0.57,0.15,0.84-0.12,1.12-0.44
		c0.55-0.64,1.16-0.88,2.01-0.67c1.15,0.29,2.2-0.27,3.24-0.59c1.9-0.58,3.76-1.29,5.64-1.95c0.71-0.25,1.08-1.11,1.97-1.14
		c-3.74-2.09-7.75-3.03-12.08-2.97c1.73-2.26,4-3.74,6.32-5.33c-1.17-0.77-1.75-1.9-2.18-3.1c-0.51-1.42-0.28-2.84,0.11-4.24
		c0.4-1.43,0.99-2.78,1.9-3.97c0.28-0.37,0.45-0.7,0.19-1.19c-1.04-2.01-0.5-3.88,0.62-5.65c0.9-1.42,0.94-1.41-0.09-2.85
		c-1.01-1.41-1.4-2.85-0.34-4.37c-2.25-5.92-4.17-11.9-5.01-18.16c-0.42-3.17-0.47-6.37-0.14-9.57c0.16-1.54,0.02-3.11,0.54-4.62
		c0.11-0.33,0.2-0.69,0.33-1.02c0.7-1.76,1.29-1.9,2.8-0.68c0.81,0.66,1.46,1.48,2.17,2.23c2.55,2.71,5.12,5.39,7.66,8.1
		c0.49,0.52,1,0.68,1.7,0.56c2.63-0.48,5.17-0.16,7.77,1.27c-0.83-3.1-2.19-5.5-5.13-6.72c0.01-0.36,0.29-0.32,0.51-0.32
		c1.16,0.02,2.3,0.09,3.42,0.5c1.08,0.4,2.19,0.7,3.3,1.02c1.95,0.56,3.6,1.59,4.88,3.26c0.92,1.19,1.89,2.3,2.11,3.86
		c0.42-0.08,0.47-0.44,0.63-0.7c3.3-5.39,7.4-10.12,11.96-14.47c0.2-0.19,0.41-0.38,0.63-0.55c0.82-0.61,1.25-0.54,1.94,0.24
		c0.63,0.72,0.88,1.58,1.07,2.49c0.94,4.51,1.43,9.07,1.17,13.67c-0.31,5.36-1.15,10.62-3.88,15.38c-0.36,0.62-0.19,1.07,0.21,1.51
		c0.51,0.55,1.15,0.73,1.84,0.39c0.31-0.15,0.57-0.41,1.06-0.76c0.16,1.58-0.99,2.29-1.66,3.34c0.63,0.31,1.72-0.12,1.82,1.04
		c-0.36,0.45-1.07,0.4-1.31,0.96c2.01,1.04,2.88,3.28,2.04,5.33c-0.64,0.13-0.94-0.7-1.61-0.59c0.08,0.99,0.93,1.97,0.12,2.97
		c-0.6,0.14-0.72-0.5-1.18-0.59c-0.07,0.48,0.19,0.84,0.4,1.2c0.72,1.25,0.7,1.33-0.71,1.73c0.22,0.66,0.69,1.16,1.04,1.72
		c0.57,0.91,1.14,1.82,1.59,2.81c1.45,3.2,0.69,5.96-1.64,8.52c3.04,2.16,6.35,4.08,8.57,7.37c-5.09-1.9-9.88-0.55-14.74,1.16
		c0.95,0.77,2.09,0.95,3.14,1.28c1.29,0.4,2.61,0.68,3.92,1.01c0.59,0.15,1.19,0,1.79-0.01c0.65-0.01,1.22,0.14,1.6,0.64
		c0.59,0.77,1.39,0.91,2.23,0.81c1.49-0.18,2.48,0.43,3.02,1.77c0.31,0.78,0.88,1.23,1.61,1.5c1.2,0.44,2.09,1.12,2.33,2.47
		c0.04,0.25,0.24,0.51,0.43,0.71c2.79,2.97,3.76,6.64,4.35,10.54c0.3,1.98,0.96,3.92,2.1,5.65c0.59,0.89,0.85,1.98,1.71,2.76
		c-0.5,0.82-1.31,1.16-2.09,1.71c0.71,2.23,1.4,4.55,1.97,6.89c1.24,5.18,2.55,10.35,3.53,15.59c0.23,1.23,0.77,2.35,1.32,3.45
		c0.46,0.93,0.95,1.84,1.27,2.82c0.13,0.4,0.42,0.56,0.72,0.75c0.77,0.47,1.27,1.13,1.25,2.05c-0.03,1.28,0.44,2.42,0.94,3.54
		c1.04,2.33,1.91,4.72,2.77,7.12c0.13,0.37,0.24,0.84,0.52,1.05c1.03,0.77,0.83,1.82,0.73,2.84c-0.03,0.31-0.13,0.58,0.03,0.89
		c2.63,5.16,4.26,10.71,6.5,16.03c0.94,2.23,1.86,4.49,3.33,6.46c0.29,0.38,0.54,0.79,0.88,1.13c1.78,1.76,2.64,3.93,2.99,6.38
		c0.21,1.52,0.26,3.02-0.2,4.5c-0.27,0.87-0.64,1.57-1.65,1.87c-0.67,0.2-1.26,0.66-1.92,0.96c-0.87,0.4-1.8,0.59-2.68,0.37
		c-0.81-0.2-1.32,0.11-1.96,0.45c-1.68,0.91-3.51,1.24-5.55,1.3c1.11,1.38,2.17,2.66,3.18,3.98c3.3,4.32,5.99,8.95,7.25,14.3
		c1.18,5.01,1.36,10.04,0.03,15.05c-0.52,1.96-1.79,3.46-3.44,4.59c-3.88,2.64-9.68,2.46-12.76-0.31c-0.02-0.02-0.07,0-0.19,0.01
		c-0.09,1.44,0.05,2.92-0.28,4.35c-0.45,1.96,0.18,3.87,0.29,5.79c0.27,4.65-0.5,9.14-1.59,13.61c-0.99,4.07-1.06,8.16-0.5,12.33
		c1.22,8.96,3.61,17.63,5.99,26.31c0.31,1.13,0.81,2.16,1.43,3.14c1.1,1.76,2.25,3.48,3.23,5.31c0.31,0.58,0.88,0.77,1.39,1.07
		c1.77,1.05,3.41,2.29,5.04,3.54c0.62,0.47,0.72,1.22,0.96,1.88c0.71,1.94,1.07,3.92,0.78,5.98c-0.22,1.55-0.97,2.86-2.02,3.99
		c-0.45,0.48-1.06,0.69-1.71,0.79c-2.99,0.48-5.98,0.21-8.96-0.11c-0.43-0.05-0.79-0.04-1.14,0.14c-2.65,1.42-5.46,1.28-8.27,0.8
		c-1.17-0.2-2.31-0.55-3.45-0.91c-0.69-0.22-1.3-0.14-1.98,0.01c-2.77,0.63-5.56,1.13-8.41,0.55c-0.78-0.16-1.53-0.43-2.32-0.57
		c-0.62-0.11-1.15-0.52-1.52-1.08c-0.73-1.12-1.23-2.32-1.32-3.67c-0.14-2.05,0.08-4.07,0.59-6.06c0.3-1.14,0.93-2.13,1.81-2.91
		c0.38-0.34,0.59-0.67,0.58-1.21c-0.03-5.64-0.03-11.27-0.4-16.9c-0.23-3.62-0.62-7.23-0.85-10.86c-0.12-1.83-0.27-3.69-0.77-5.44
		c-0.32-1.12-0.33-2.45-1.3-3.36c-0.3-0.28-0.31-0.71-0.33-1.12c-0.04-1.13,0.03-2.28,0.37-3.32c0.66-2.02,0.19-3.89-0.6-5.68
		c-1.5-3.37-2.7-6.81-3.34-10.44c-0.47-2.68-1.34-5.22-2.69-7.61C95.3,231.96,94.55,230.29,93.72,228.62z M116.6,160.97
		c0.02-0.35,0.06-0.51,0.04-0.65c-0.28-2.17-0.6-4.34-0.82-6.52c-0.12-1.11-0.33-2.07-1.4-2.7c-0.55-0.32-0.49-0.94-0.31-1.52
		c0.13-0.4,0.3-0.77,0.22-1.25c-0.5-3.07-1-6.13-1.36-9.22c-0.07-0.63-0.06-1.33-0.57-1.91c-0.73-0.82-0.71-1.83-0.07-2.77
		c0.14-0.21,0.24-0.37,0.18-0.64c-0.29-1.24-0.45-2.5-0.91-3.7c-0.99-2.53-2.27-4.91-3.6-7.27c-2.61-4.66-5.09-9.38-6.69-14.72
		c-0.48,1.8-0.59,3.5-0.85,5.18c-0.26,1.66-0.36,3.32-0.22,5.01c0.15,1.71,0.58,3.38,0.76,5.08c0.18,1.7,1.57,2.98,1.7,5.07
		c-1.88-1.29-3.57-2.66-5.33-0.35c-0.48-0.75-0.33-1.59-0.58-2.41c-1.34,0.45-1.45-0.82-2.05-1.57c-0.4,0.78-0.31,1.78-1.39,1.84
		c0.14,0.45,0.43,0.73,0.69,1.03c1.4,1.64,2.83,3.26,4.2,4.93c3.34,4.05,6.12,8.46,8.04,13.37c0.31,0.8,0.41,1.71,1.37,2.09
		c0.21,0.08,0.29,0.36,0.35,0.6c0.76,2.69,2.76,4.64,4.25,6.89c0.43,0.65,1.21,1.04,0.95,2c-0.06,0.22,0.11,0.37,0.25,0.51
		C114.58,158.42,115.57,159.6,116.6,160.97z M50.79,113.12c-0.12,0.17-0.24,0.29-0.3,0.43c-1.6,4.02-3.93,7.65-6.21,11.3
		c-0.41,0.65-0.66,1.35-0.96,2.05c-1.23,2.81-1.33,5.89-2.24,8.77c-0.08,0.26-0.06,0.53,0.11,0.8c0.61,0.95,0.46,1.89-0.14,2.78
		c-0.25,0.37-0.42,0.71-0.52,1.17c-0.72,3.35-1.1,6.76-2.01,10.07c-0.21,0.77-0.19,1.58,0,2.4c1.32-1.38,2.28-2.89,2.95-4.57
		c0.29-0.74,0.55-1.52,1.51-1.69c0.34-0.06,0.33-0.43,0.4-0.68c1.19-4.51,3.25-8.63,5.61-12.62c1.47-2.5,2.97-4.99,4.22-7.52
		c-1.55-0.72-2.9-0.09-4.23,0.56c-0.57,0.28-1.09,0.66-1.62,1.01c-0.24,0.16-0.46,0.34-0.73,0.04c0.46-2.22,1.16-4.35,2.29-6.34
		C50.27,118.66,50.66,115.98,50.79,113.12z M128.86,216.56c0.65,1.35,1.76,1.92,3.05,2.16c1.39,0.26,2.69-0.86,2.74-2.3
		c0.04-1.04,0.04-2.08-0.25-3.08c-0.18-0.61-0.23-1.31-0.88-1.76C132.04,213.3,130.5,214.91,128.86,216.56z"/>
</g>
<g>
	<path class="st0" d="M91.99,70.76c1.44,0.47,2.79,1.06,4.24,1.36c1.01,0.21,2.01,0.42,3.04,0.55c0.8,0.1,1.59,0.09,2.38,0.17
		c0.63,0.07,1.05,0.52,1.45,0.96c0.15,0.16,0.15,0.54,0.46,0.44c0.8-0.26,1.5,0.29,2.25,0.24c0.89-0.06,1.41,0.33,1.76,1.1
		c0.49,1.08,1.34,1.8,2.4,2.29c0.83,0.38,1.44,0.93,1.65,1.87c0.23,1.02,1.19,1.54,1.74,2.36c1.64,2.48,2.49,5.19,2.83,8.12
		c0.18,1.56,0.81,3.01,1.34,4.48c0.6,1.71,1.62,3.2,2.52,4.9c-1.23,0.74-2.47,1.45-3.89,1.77c-0.27,0.06-0.53,0.08-0.8,0.17
		c-0.73,0.22-1.64-0.19-2.05-0.84c-0.43-0.68-1-0.89-1.69-0.63c-0.94,0.36-1.38,0.87-1.13,1.63c0.27,0.82-0.13,1.15-0.73,1.45
		c-0.6,0.3-1.04,0.22-1.32-0.47c-0.2-0.5-0.27-1.07-0.7-1.47c-0.32-0.31-0.61-0.68-1.12-0.52c-0.5,0.16-0.79,0.51-0.75,1.07
		c0.01,0.15-0.02,0.31-0.04,0.5c-0.44,0.1-0.75,0.26-1.01,0.69c-0.44,0.76-1.27,1.16-2.01,1.6c-0.85,0.51-1.68-0.07-2.49-0.23
		c-0.7-0.15-1.38-0.5-2.13-0.63c0.3-0.99,0.44-1.87-0.12-2.83c-0.44-0.76-0.63-1.68-0.83-2.55c-0.1-0.45-0.22-0.71-0.72-0.77
		c-0.89-0.09-1.31-0.79-1.42-1.53c-0.16-1.07-0.38-2.12-0.7-3.15c-0.29-0.95,0.25-1.8,0.52-2.62c1.17-3.53,1.98-7.14,2.93-10.73
		c0.11-0.41,0.1-0.72-0.17-1.1c-1.11-1.58-2.31-3.08-3.59-4.52C93.23,72.96,92.47,71.98,91.99,70.76z M97.57,86.66
		c1.03-2.09,2.46-3.94,3.89-5.79C99.65,82.45,98.4,84.4,97.57,86.66z M100.61,87.79c1.47-1.18,2.72-2.6,4.17-3.83
		C103.05,84.88,101.85,86.35,100.61,87.79z"/>
	<path class="st0" d="M128.2,217.03c1.01,0.85,1.73,1.87,3.01,2.22c1.94,0.54,4.05-0.79,4.15-2.8c0.08-1.67-0.18-3.29-0.92-4.81
		c-0.17-0.35-0.39-0.72-0.24-1.13c0.52-1.42,0.04-2.7-0.57-3.94c-0.34-0.7-0.27-1.47-0.36-2.18c-0.2-1.52-0.37-3.05-0.58-4.57
		c-0.38-2.79-0.79-5.57-1.55-8.3c-0.39-1.4-0.92-2.74-1.44-4.11c0.3-0.52,0.7-0.8,1.33-0.36c0.3,0.21,0.64,0.3,1.01,0.25
		c0.32-0.04,0.53,0.16,0.7,0.38c1.73,2.19,3.49,4.34,5.05,6.65c2.46,3.63,4.33,7.53,5.4,11.79c0.34,1.36,0.48,2.78,0.62,4.19
		c0.22,2.15,0.24,4.29,0.17,6.43c-0.06,1.64-0.33,3.27-1,4.8c-1.12,2.56-3.25,3.94-5.79,4.59c-2.44,0.62-4.94,0.63-7.34-0.41
		c-0.87-0.38-1.71-0.81-2.18-1.64c-0.39-0.68-0.35-1.51-0.45-2.28c-0.11-0.9,0.1-1.82-0.23-2.71c-0.14-0.37-0.02-0.77,0.32-1.08
		C127.63,217.73,127.9,217.37,128.2,217.03z"/>
	<path class="st0" d="M76.26,10c-0.03-0.15-0.05-0.3-0.08-0.45c1.84,0.24,3.15,1.38,4.24,2.74c1.11,1.4,1.06,3.21,1.32,4.89
		c0.18-1.26,0.13-2.5-0.41-3.78c0.64,0.56,0.67,0.65,0.92,1.41c0.18,0.55-0.16,1.23,0.43,1.69c0.22-0.27,0.17-0.61,0.07-0.86
		c-0.12-0.3-0.26-0.57-0.11-0.95c0.57,0.92,0.66,1.84,0.14,2.77c-0.98,1.75-1.6,3.64-2.3,5.51c-0.12,0.31-0.13,0.64-0.05,0.94
		c0.51,2.11-0.46,3.71-1.77,5.19c-0.32,0.36-0.65,0.41-1.02,0.05c-0.78-0.75-1.58-0.44-2.38-0.03c-1.42,0.73-2.33,1.9-3.03,3.31
		c-0.58,1.17-0.68,2.46-1.09,3.69c-0.09-1.44-0.23-2.87,0.16-4.28c-1.45,2.64-0.56,5.09,0.68,7.64c-1.18-0.14-2.08-0.73-2.75-1.51
		c-1.1-1.25-1.87-2.69-1.79-4.46c0.06-1.6-0.18-3.23,0.88-4.81c-1.07,0.4-1.09,0.76-1.65,3.2c-0.3,1.29,0.2,2.38,0.29,3.84
		c-0.74-0.94-1.05-1.79-1.3-2.7c-0.65-2.35-0.44-4.63,0.72-6.73c1.09-1.98,2.67-3.38,5.19-3.17c0.77,0.06,1.54,0.01,2.3-0.09
		c-2.77-0.88-5.39-0.67-7.78,1.26c-0.14-0.56,0.67-0.72,0.35-1.23c-0.76,0.47-2.01,2.31-2.56,3.58c-0.62,1.44-0.48,2.95-0.51,4.46
		c-2.62-1.43-2.54-6.95,0.26-10.71c-1.57,0.8-1.8,2.3-2.54,3.44c-0.74,1.14-1.3,2.36-1.64,3.68c-0.94-5.26,2.61-12.22,9.91-12.86
		c-0.99-0.8-2.35-0.03-3.36-0.76c3.76-0.27,5.79-0.53,8.72,1.56c-0.17-3.05-1.7-5.33-4.07-7.46c2.22,0.3,3.97,1.02,5.65,1.95
		c0.98,1.06,2.02,2.09,2.41,3.55c0.24,0.88,0.26,1.8,0.3,2.78c0.54-0.63,0.23-1.22,0.23-1.82c-0.03-1.58-0.74-2.77-1.83-3.79
		C77.08,10.38,76.88,9.83,76.26,10z"/>
	<path class="st0" d="M58.86,72.79c-1.05,0.33-1.71,1.22-2.58,1.81c-1.77,1.19-3.69,2.2-5.1,3.85c0.33,3.11,2.01,5.82,2.52,8.94
		c-1.84,1.56-3.14,3.65-4.53,5.68c-1.77,2.59-2.44,5.43-2.11,8.5c0.08,0.79,0.43,1.54,0.69,2.47c-0.94-0.65-1.59-0.61-2.03,0.41
		c-0.17,0.38-0.55,0.38-0.91,0.11c-0.43-0.33-0.89-0.62-1.41-0.98c0.47-0.85,0.21-1.73,0.04-2.61c-0.14-0.78-0.75-1.72-1.24-1.73
		c-0.79-0.01-1.16,0.54-1.41,1.21c-0.07,0.18-0.2,0.33-0.37,0.61c-0.19-0.59-0.02-1.31-0.9-1.39c-0.61-0.05-1.16-0.32-1.81,0
		c-1.22,0.6-1.25,0.54-2.23-0.38c-0.68-0.64-1.48-1.16-1.81-2.21c0.99-0.72,1.87-1.56,2.4-2.85c0.7-1.68,0.97-3.44,1.49-5.15
		c0.89-2.91,2.16-5.61,3.86-8.11c0.94-1.39,2.13-2.56,3.52-3.49c0.58-0.39,1.08-0.74,1.24-1.48c0.17-0.81,0.83-0.97,1.48-0.77
		c0.83,0.27,1.36-0.04,1.77-0.68c0.33-0.52,0.84-0.68,1.32-0.52c1.39,0.46,2.6-0.17,3.88-0.47c1.64-0.38,3.13-1.17,4.82-1.75
		c-0.07,0.49-0.55,0.61-0.61,0.98L58.86,72.79z M49,80.66c1.5,1.47,1.69,3.68,2.99,5.24C51.28,83.99,50.62,82.04,49,80.66z"/>
	<path class="st0" d="M94.22,90.91c-0.28-0.27-0.41-0.57-0.37-0.96c0.12-1.27-0.21-1.22-0.78-2.62c-0.49-1.18-1.44-2.31-1.22-3.76
		c0.05-0.33-0.28-0.58-0.41-0.88c-1.3-2.88-2.12-5.92-3.11-8.9c-0.31-0.92-0.5-1.88-0.88-2.79c-0.17-0.4-0.42-0.6-0.71-0.84
		c0.63-0.54,0.2-1.4,0.74-1.83c-0.3-0.7-0.41,0.67-0.68-0.06c-0.02-0.07-0.07-0.18-0.04-0.2c0.35-0.36,0.62-0.76,1.25-0.79
		c2.23-0.1,4.15-2,4.43-4.27c0.01-0.07,0.07-0.13,0.11-0.2c3.26,0.42,3.26,0.42,5.62-0.79c2.64,1.97,5.58,3.59,8.05,6.28
		c-5.25-1.34-9.9,0.03-14.6,1.85c-0.64-0.85-1.79-0.67-2.9-1.27c0.5,0.71,1.08,0.97,1.55,1c0.72,0.05,0.95,0.46,1.18,0.97
		c0.67,1.45,1.65,2.69,2.74,3.81c1.05,1.09,1.8,2.41,2.89,3.46c0.38,0.36,0.4,0.9,0.25,1.53C96.4,83.44,95.24,87.16,94.22,90.91z"/>
	<path class="st0" d="M134.68,163.99c-0.69,0.42-1.08,1.11-1.79,1.43c-1.13,0.5-1.96,0.38-2.93-0.42c-2.78-2.31-3.36-5.29-2.79-8.68
		c0.14-0.81,0.12-1.62,0.47-2.41c0.22-0.5,0.45-0.64,0.94-0.68c3.03-0.27,5.03,1.86,5.81,4.5c0.73,2.45,0.9,4.99,0.71,7.51
		c-0.22,3.02-2.01,3.75-4.68,3.26c-1.87-0.34-3.07-1.72-3.84-3.35c-0.95-2.01-1.49-4.14-1.3-6.4c0.13-1.56,0.53-3.04,1.39-4.38
		c-0.23,1.67-0.28,3.33-0.18,4.99c0.17,2.65,1.15,4.93,3.38,6.51c1.35,0.96,4.32,0.16,4.98-1.33
		C134.92,164.39,134.89,164.21,134.68,163.99z"/>
	<path class="st0" d="M95.56,97.71c0.94-0.08,1.32,0.39,1.51,1.22c0.19,0.79,0.51,1.56,0.81,2.32c0.26,0.66,0.02,1.31,0.03,1.96
		c0.01,0.65,0.1,1.12,0.9,1.06c0.65-0.05,1.12,0.55,1.8,0.53c0.33-0.01,0.4,0.4,0.44,0.74c0.11,0.97-0.14,1.9-0.3,2.82
		c-0.53,3.2-1.09,6.38-0.91,9.64c0.16,2.99,0.58,5.93,1.93,8.65c0.08,0.16,0.31,0.29,0.11,0.58c-1.36-1.08-2.79-1.42-4.42,0.02
		c0.02-1.62-0.33-2.98-0.47-4.34c-0.37-3.59-0.64-7.2-0.49-10.81c0.1-2.41-0.1-4.81-0.05-7.21c0.04-2.17-0.46-4.29-0.86-6.41
		C95.55,98.2,95.55,97.95,95.56,97.71z"/>
	<path class="st0" d="M58.82,72.82c0.73-0.05,1.02-0.71,1.46-1.13c0.62-0.6,1.21-1.05,2.16-1.06c0.81,0,1.52-0.52,2.27-0.85
		c-0.81,3.25-8.73,15.85-10.6,16.74c-0.46-2.15-1.46-4.08-2.18-6.12c-0.47-1.33,0.12-2.58,1.54-3.49c1.48-0.95,2.94-1.94,4.33-3.01
		c0.4-0.31,0.8-0.66,1.05-1.13L58.82,72.82z"/>
	<path class="st0" d="M53.4,125.21c-2.32-0.68-4.18,0.38-6.09,1.62c0.17-1.63,0.65-3.08,1.39-4.37c1.57-2.76,2.43-5.67,2.44-8.84
		c0-1.57,0.41-3.13,0.16-4.91c0.83,0.51,1.45,0.88,2.05,1.29c0.22,0.15,0.38,0.36,0.42,0.68c0.22,1.87,1.08,3.55,2.07,5.06
		c1.15,1.76,0.89,3.41,0.29,5.16c-0.1,0.29-0.28,0.56-0.44,0.83c-0.25,0.4-0.21,0.94-1.06,0.87
		C53.91,122.54,53.27,124.07,53.4,125.21z"/>
	<path class="st0" d="M95.98,105.51c0.36,0.34,0.26,0.74,0.26,1.11c0.01,2.79,0.02,5.59,0,8.38c-0.02,3.05,0.12,6.08,0.71,9.08
		c0.07,0.38,0.01,0.79,0.01,1.2c-0.76,0.2-1.17-0.03-1.31-0.81c-0.08-0.42-0.32-0.81-0.9-0.76c-0.61,0.05-0.66,0.45-0.66,0.92
		c0,0.4-0.1,0.82-0.51,0.97c-0.49,0.18-0.88-0.13-1.08-0.53c-0.54-1.08-1.49-1.9-1.82-3.13c-0.19-0.72-0.24-1.38-0.06-2.08
		c0.04-0.15,0.12-0.31,0.1-0.46c-0.24-1.56,0.48-2.8,1.28-4.04c1.52-2.35,2.44-4.97,3.3-7.61
		C95.53,107.02,95.79,106.29,95.98,105.51z"/>
	<path class="st0" d="M75.96,82.71c0.76,0.48,0.94,1.2,0.82,1.93c-0.45,2.79-2.07,4.08-4.92,4.27c-0.51,0.03-0.94-0.13-1.34-0.4
		c-0.57-0.39-1.03-0.85-1.89-0.77c-0.61,0.06-0.98-0.8-1.11-1.36c-0.31-1.41-0.44-2.79,0.57-4.12c0.88-1.15,1.94-1.65,3.28-1.75
		c0.52-0.04,1.04-0.01,1.56-0.01c1.58,0.01,2.31,0.65,2.4,2.22c0.06,1.05,0.33,2.17-0.92,2.87c-0.27,0.15-0.74,0.5-0.7,1.18
		c0.96-0.22,1.48-0.95,2.04-1.56C76.45,84.47,75.84,83.57,75.96,82.71z"/>
	<path class="st0" d="M61.86,62.89c-0.72,2.89,0.1,4.61,3.19,6.5c-0.86,0.1-1.56,0.38-2.24,0.7c-3.71-2.44-7.82-3.47-12.22-3.25
		c-0.08-0.12-0.14-0.18-0.15-0.25c-0.02-0.16-0.01-0.32-0.01-0.51c0.87,0.08,1.33-0.61,1.89-1.06c1.16-0.94,2.41-1.74,3.63-2.6
		c0.4-0.28,0.94-0.47,1.52-0.13c1.19,0.69,2.47,0.98,3.83,0.49c0.1-0.04,0.24-0.01,0.36,0.01C61.73,62.79,61.79,62.85,61.86,62.89z"
		/>
	<path class="st0" d="M12.16,169.41c-1.51-1.37-1.86-2.83-1.41-4.66c0.46-1.89,0.78-3.82,1.27-5.71c0.3-1.14,0.73-2.2,1.97-2.73
		c0.52-0.22,0.92-0.71,1.69-1.03C14.36,160.05,12.95,164.6,12.16,169.41z"/>
	<path class="st0" d="M94.46,38.56c0.42-0.09,0.59,0.34,0.9,0.48c0.34,0.15,0.69,0.16,1.03,0.24c-0.27,0.76-1.03,0.77-1.59,1.08
		c0.65,0.84,1.99,1.22,1.62,2.63c-0.62,0.1-1.06-0.53-1.69-0.29c-0.26,0.1-0.39-0.19-0.4-0.44c-0.01-0.36-0.09-0.74,0.01-1.07
		c0.22-0.74,0.27-1.45-0.01-2.18C94.28,38.86,94.33,38.69,94.46,38.56z"/>
</g>
</svg>
