<?xml version="1.0" encoding="utf-8"?>
<!-- Generator: Adobe Illustrator 24.0.2, SVG Export Plug-In . SVG Version: 6.00 Build 0)  -->
<svg version="1.1" id="Layer_1" xmlns="http://www.w3.org/2000/svg" xmlns:xlink="http://www.w3.org/1999/xlink" x="0px" y="0px"
	 viewBox="0 0 716.48 1103.97" style="enable-background:new 0 0 716.48 1103.97;" xml:space="preserve">
<g>
	<path d="M355.39,721.18c-4.81-0.33-7.46,1.81-9.41,6.29c-1.61,3.72-3.73,7.15-5.76,10.57c-3.93,6.6-7.05,13.7-10.54,20.5
		c-4.23,8.23-8.49,16.45-11.88,25.01c-3.23,8.16-9.07,13.92-13.01,21.12c-4.16,7.58-7.99,15.63-8.74,24.87
		c-0.64,7.92-1.88,15.7-3.29,23.39c-0.19,1.06-0.19,2.18-0.18,3.27c0.03,5.9-0.04,11.78,0.18,17.62c0.4,10.35-0.77,20.5-1.26,30.62
		c-0.1,2.08-0.86,3.93-2.33,5.46c-4.09,4.27-6.55,9.6-8.42,15.32c-1.32,4.04-2.92,7.98-4.69,11.78c-2.77,5.97-4.64,12.27-5.68,18.7
		c-1.39,8.61-3.97,16.92-4.17,25.63c-0.04,1.69,0.12,3.34,0.64,5.07c1.41,4.65,1.48,9.44,0.33,14.07c-1.1,4.44-0.59,8.95-0.15,13.31
		c0.3,2.97,0.57,5.93,0.67,8.88c0.16,4.3,0.16,8.58,0.3,12.85c0.05,1.61-0.29,3.02-1.35,4.16c-2.58,2.77-4.49,5.97-5.9,9.48
		c-0.53,1.32-1.26,2.39-2.63,2.79c-1.68,0.5-3.02,1.67-4.05,2.88c-4.21,4.95-10.74,6.75-14.9,11.63c-0.46,0.54-1.04,0.73-1.73,0.87
		c-5.26,1.04-9.63,4.11-14.46,6.09c-2.42,0.99-4.75,2.01-7.5,2.24c-3.37,0.29-6.41,2.01-9.72,2.77c-2.34,0.54-4.53,0.76-6.86,0.02
		c-0.32-0.1-0.68-0.21-0.99-0.16c-6.45,1.1-11.83-2.46-16.94-5.64c-4.04-2.52-7.23-6.44-9.28-11.24c-1.79-4.19-3.71-8.38-6.38-12.29
		c-3.46-5.08-8.39-6.97-13.61-8.3c-3.98-1.02-7.88-2.42-11.87-3.39c-6.16-1.5-9.36-6.14-10.97-11.85
		c-1.16-4.11-2.34-8.27-3.42-12.43c-0.93-3.56-3.76-6.63-7.26-8.18c-4.22-1.86-8.5-3.51-12.51-5.98c-1.68-1.03-3.09-2.32-4.12-4.14
		c-2.99-5.3-5.37-10.89-6.88-16.73c-1.02-3.92,0.26-7.74,1.54-11.26c1.73-4.76,1.54-4.84-2.26-9.08c-1.83-2.04-4.35-4.4-4.09-7.8
		c3.48-1.94,7.07-1.53,10.82-0.35c3.91,1.23,6.85,3.62,8.49,7.54c1.43-0.2,1.96-0.98,1.7-2.1c-0.56-2.46,0.59-4.66,0.18-7.09
		c-0.08-0.46-0.02-1.11,0.24-1.42c3.05-3.66,1.16-7.86-0.17-11.78c-0.58-1.7-1.47-3.51-2.55-5.18c-2.1-3.23-0.99-5.36,2.42-5.54
		c5.71-0.29,11.01,1.19,16.19,4.5c1.96,1.25,1.97,3.65,3.73,4.62c5.8-0.89,10.93,0.85,15.56,5.48c4.26-6.07,1.49-12.35-0.66-18.61
		c-0.25-0.73-0.75-1.37-1.1-2.07c-2.09-4.18-0.96-6.22,3.38-6.49c3.11-0.2,5.83,0.63,8.56,2.6c3.15,2.27,6.69,3.81,9.55,6.65
		c0.99,0.99,2.5,0.83,3.75,1.24c3.93,1.31,7.52,3.49,10.99,5.76c3.25-3.02,3.51-8,6.26-11.4c0.96-1.18,1.89-2.54,2.83-3.8
		c4.91-6.63,6.18-14.92,7.46-23.14c2.24-14.39,3.25-29.21,6.02-43.88c1.79-9.44,2.27-19.36,4.18-28.99
		c0.96-4.82,2.64-9.52,2.68-14.56c0.04-5.45,2.43-9.79,3.74-14.67c1.81-6.77,3.91-13.55,3.94-21.12c0.02-5.86,1.55-11.65,2.27-17.54
		c1.37-11.14,3.29-22.25,4.35-33.67c1.2-13,3.67-25.83,6.04-38.81c4.02-22.05,8.86-44.22,13.41-66.88c0.6-2.99-0.08-5.94,0.48-8.79
		c3.69-1.37,4.07-2.51,3.49-10.12c-3.78,0.21-9.4-6.55-8.99-11.25c0.48-5.53,0.92-11.08,5.29-14.71c2.54-2.11,2.16-3.24-1.01-5.27
		c3.58-1.16,3.39-4.46,3.13-7.82c-0.08-1.04-0.32-2.23-0.02-3.1c3.3-9.84-2.31-15.04-7.07-21.1c-5.74-7.31-13.41-9.78-20.28-14.35
		c-8.83-5.88-17.9-11.27-26.26-18.52c-3.17-8.28-10.14-12.34-13.97-20.3c-2.84-5.92-6.03-11.73-9.06-17.65
		c-1.12-2.19-2.23-3.99-1.3-7.02c0.87-2.81-1.42-7.4-3.71-8.85c0.27-0.98,0.35-2.23,0.86-2.94c4.04-5.67,5.66-12.98,7.65-20.19
		c2.08-7.54,4.35-15.02,6.4-22.67c1.47-5.46,1.6-11.02,2.17-16.6c0.58-5.66,0.53-11.54,1.39-17.14c0.65-4.27,2.42-8.67,4.23-11.7
		c2.65-4.46,3.74-9.77,5.92-14.4c2.99-6.35,5.43-13.21,8.82-19.32c2.99-5.41,3.58-11.92,3.41-18.76c-0.05-2.09-1.42-5.9,2.45-4.81
		c1.18,0.33,1.48-2.25,1.68-3.67c1.09-7.51,3.66-14.44,4.08-22.36c0.14-2.67,1.41-5.29,2.69-7.62c1.49-2.72,3.77-4.95,2.28-9.64
		c-0.74-2.31,2.02-4.51,1.32-7.59c-1.62-0.35-1.75,2.66-3.8,2.39c1.93-7.62,6.74-10.89,10.56-14.81c0.98-2.73-1.33-2.21-1.42-4.35
		c2.34-4.27,6.32-2.98,9.72-3.7c0.42-2.72-1.59-4.28-1.52-7.16c2.51-0.42,4.93-0.59,7.58,0.37c5.5,1.99,11.11,3.26,16.6,5.19
		c1.1,0.39,1.71-0.47,2.51-0.42c2.99,0.19,6.38-2.5,8.74,2.72c0.64,1.41,1.83,0.62,2.94,0.22c7.04-2.5,13.55-7.25,20.7-9.42
		c2.03-0.62,4.1-0.27,5.87-2.94c2.01-3.03,2.75-5.51,0.91-9c-0.73-1.39-1.12-3.05-2.02-4.37c-1.33-1.97,0.4-2.32,1.06-3.18
		c-8.92-12.84-13.12-27.33-7.97-46.2c-1.73-4.18-5.84-6.48-8.09-11.56c-3.79-8.55-9.13-16.19-10.01-26.77
		c-0.71-8.52-2.2-16.78-3.48-25.17c-1.19-7.83-2.5-15.65-2.22-23.76c0.26-7.62-2.88-14.03-3.67-21.38
		c-0.68-6.34-1.15-12.84-2.81-19.02c-0.59-2.19,0.11-4.42,1.93-5.06c1.88-0.67,3.72-2.46,5.7-1.49c6.09,2.98,12.41,0.4,18.59,2.64
		c3.5,1.27,6.77,3.15,10.15,4.72c6.21,2.88,12.6,6.73,18.55-1.22c1.49-1.99,3.18-3.5,5.3-3.23c4.03,0.51,7.84-0.24,11.32-3.68
		c0.51-0.5,1.56-0.99,1.82-0.62c3.67,5.15,8.65,0.96,12.59,4.2c-0.05-3.38-2.07-2.48-3.12-3.37c0.47-1.8,1.25-2.65,2.57-2.81
		c-1.87-2.07-3.36-3.72-4.88-5.4c2.36-3.34,7.6-4.62,10.48-1.82c3.17,3.1,7.06,3.17,10.2,6.17c1.19,1.13,3.59-3.97,4.34,1.63
		c0.43,3.21,3.31,2.76,4.14,5.33c3.45-2.06-0.65-6,1.73-8.67c2.78,6.86,10.21,6.83,10.73,17.78c1.23-0.9,2.34-1.29,3.06-2.31
		c5.14-7.36,12.38-9.7,17.67-16.87c1.6-2.17,3.71-3.05,6-3.04c3.23,0.02,4.85,1.35,5.64,6.73c1.67,11.43,4.04,22.64,4.39,34.2
		c0.39,13.32,2.32,26.08,3.04,39.06c0.32,5.73,1.07,11.36,1.71,16.98c0.66,5.76,0.82,11.37-1.29,16.87
		c-1.71,4.44-2.65,8.95-0.37,13.42c0.3,0.59,0.1,1.72,0.12,2.52c-1.2,1.49-2.17,0.98-3.16,0.08c-1.93,2.79-2.38,6.96-5.17,10.34
		c2.76-0.98,4.5,3.73,7.02-0.77c-3.23,8.09-5.66,16.07-7.85,24.12c-1.81,6.62-1.37,13.63-2.04,20.4c-0.06,0.64-0.07,1.54,0.19,1.92
		c4.19,6.13,3.65,14.72,5.24,22.13c0.62,2.89,0.88,6.32-1.14,9.51c3.11,0.5,5.91,2.39,9.11,1.75c1.39-0.28,2.21,0.9,3.22,1.88
		c5.02,4.92,10.46,9.25,16.7,9.76c4.91,0.4,10.06,1.55,15.1-2.23c2.67-2,5.38-4.18,8.7-4.42c4.29-0.31,4.63-0.21,3.1,5.85
		c-0.1,0.4-0.13,0.82-0.24,1.47c5,2.35,9.95,4.9,14.36,9.54c-2.02,3.87-0.31,6.21,1.43,8.84c4.95,7.46,9.74,14.99,14.05,23.16
		c3.68,6.97,9.61,11.05,15.53,14.72c2.71,1.69,6.2,3.85,6.66,8.94c0.19,2.06,0.87,3.28,1.73,4.55c4.08,5.99,7.35,12.77,10.35,19.74
		c3.99,9.27,8.84,17.72,11.66,27.86c0.99,3.56,1.99,7.15,2.13,10.88c0.18,4.81,1.77,8.36,3.87,11.46c2.77,4.07,5.78,7.84,8.82,11.54
		c5.64,6.86,6.54,16.67,4.23,27.26c-1.22,5.59-3.7,10.52-5.4,15.8c-3.07,9.5-6.91,18.67-7.73,28.81c-0.26,3.18-2.95,5.81-2.3,9.12
		c-1.35,0.68-2.13,0.5-2.99-0.14c-1.38,1.96-1.22,5.68-4.48,6.07c-1.09,0.13-2.13,2.9-1.35,5.45c2.21,7.22,3.08,15,4.11,22.64
		c0.27,2-0.71,4.3,0.2,6.13c1.56,0.89,2.2-2.36,3.31-1.35c0.73-0.02,1.06,0.29,1.18,0.79c0.96,3.96,0.73,8.23,0.66,12.35
		c-0.14,7.94-1.74,15.87-1.22,23.79c0.42,6.47-2.43,12.8-3.47,19.51c2.84,1.74,1.67,4.89,0.55,7.99c3.49,1.99,3.92,3.04,1.69,7.07
		c-3.25,5.9-6.19,12.27-8.17,18.42c-2.31,7.16-7.26,10.43-10.75,15.55c-2.43,3.56-6.65,5.39-10.09,7.91
		c-1.16,0.84-2.54,0.96-2.04,3.5c0.38,1.94-1.52,2.79-2.79,3.61c-2.65,1.7-5.7,2.47-7.75,5.42c1.15,1.78,4.49,0.98,3.92,4.12
		c-0.55,3.01-3.44,2.38-5.24,3.02c-1.88,0.67-3.86,1.57-5.92,1.32c-3.33-0.4-6.41,0.25-9.62,2.58c-3.82,2.77-6.38,1.98-9.21-1.62
		c-1.25-1.59-2.54-2.16-4.02-2.85c-0.96,1.42-0.61,2.92-0.77,4.31c-0.51,4.65-0.27,9.22-1.46,13.95
		c-1.26,5.04-0.32,10.47-0.04,15.55c0.27,4.8-0.24,9.62,0.27,14.41c0.76,7.21,1,14.61,0.86,21.84c-0.1,5.27,1.44,10.57-0.55,15.95
		c-0.41,1.11-0.9,2.95,0.74,3.94c0.82,0.5,0.34,1.95,0.29,2.98c-0.29,6.61-1.19,13.09-2.54,19.58c-0.77,3.71-1.37,7.58-1.77,11.41
		c-1.18,11.37-2.95,22.62-3.91,33.79c-0.32,3.75-0.48,7.67-0.22,11.4c0.34,4.87,0.02,9.69-0.33,14.53
		c-0.43,5.89,1.09,11.4,1.59,17.08c0.35,3.92,0.07,8.01,0.88,11.72c1.43,6.51,2.12,12.99,2.19,19.74
		c0.11,10.47,0.45,20.85-0.78,31.14c-0.74,6.18-1.73,12.34-1.71,18.42c0.03,9.19-1.06,18.54,1.14,27.23
		c1.37,5.41,0.87,10.8,1.1,16.22c0.34,8.18,1.96,16.06,6.13,22.84c1.38,2.24,1.83,4.88,1.48,7.53c-0.81,6.21,0.35,11.65,3.8,16.37
		c0.54,0.74,0.96,1.71,1.69,2.11c3.37,1.84,4.73,5.01,5.56,8.69c0.75,3.35,2.02,6.51,3.1,9.7c0.92,2.71,3.03,4.82,5.14,6.73
		c1.62,1.47,3.25,2.95,4.37,4.84c2.26,3.78,5.63,5.92,9.73,7.11c0.32,0.09,0.78,0.05,0.94,0.26c2.9,3.85,7,6.57,9.52,10.72
		c1.13,1.86,0.49,4.24,0.53,6.27c0.16,7.48-0.19,14.98-4.55,21.9c-1.72,2.73-2.61,5.76-3.03,8.88c-1.69-0.09-1.31-1.67-1.35-2.27
		c-0.12-1.86-1.18-2.32-2.65-2.67c-2.95-0.69-7.49,1.83-8.55,4.81c-0.48,1.36-1.58,2.45-1.88,4.13c-0.87-1.87-2.58-2.79-3.21-4.6
		c-0.19-0.54-0.98-1.29-1.38-1.19c-2.82,0.67-5.82-0.2-8.44,1.24c-1.83,1-3.52,1.4-5.44,1.35c-1.53-0.05-3.02,0.01-4.6,0.54
		c-1.77,0.59-2.8,1.39-2.89,3.26c-0.07,1.56-0.92,2.66-2,3.57c-1.12-0.38-0.83-1.14-0.78-1.73c0.16-2.02-1.06-3.19-2.68-3.54
		c-2.73-0.59-5.45-1.55-8.3-1.38c-3.89,0.23-7.01-1.33-9.99-3.24c-1.31-0.83-2.49-1.66-4.15-1.54c-0.44,0.03-1.06,0.1-1.29-0.14
		c-1.82-1.92-3.46-0.97-5.16,0.47c-1.91,1.62-1.91,3.44-1.11,5.43c0.11,0.28,0.02,0.65,0.03,1.16c-1.14,0.7-2.1,1.02-2.8-0.55
		c-0.39-0.87-0.91-1.72-1.53-2.44c-1.52-1.73-2.99-2.77-5.9-2.19c-3.8,0.76-7.83,0.49-11.7,0.17c-1.73-0.14-2.8-2.02-3.63-3.59
		c-0.96-1.81-1.59-3.8-2.7-5.56c-2.12-3.37-5.38-5.25-8.82-6.91c-0.65-0.31-1.4-0.17-1.74-1.18c-0.6-1.79-1.79-3.26-2.82-4.83
		c-1.44-2.19-2.32-4.6-2.02-7.56c0.51-4.89-1.43-9.26-3.22-13.64c-0.8-1.96-1.39-4.19-2.34-5.92c-2.93-5.34-2.8-11.2-3.27-17.06
		c-0.14-1.71-1.8-2.68-2.15-4.51c-0.69-3.54-1.29-7.13-1.54-10.73c-0.21-3.04-1.31-5.81-2.19-8.45c-1.56-4.68-0.25-9.03,0.9-13.13
		c4.31-15.36,5.29-31.14,5.42-47.27c0.01-1.06-0.34-1.94-0.58-2.91c-3.4-13.61-4.65-27.95-8.3-41.83c-0.52-1.97-1.22-3.91-2.04-5.76
		c-2.19-4.96-0.93-10.66-2.47-15.82c-1.08-3.6-0.58-7.45-0.5-11.22c0.12-5.03,0-10.05-0.31-15.11c-0.28-4.63,0.69-9.26,1.85-13.77
		c0.5-1.95,1.15-3.52-0.29-5.34c-0.67-0.85-1.01-2.38-0.43-3.78c1.94-4.74,0.61-9.23-0.63-13.71c-1.22-4.42-1.37-9.02-1.74-13.65
		c-0.42-5.28-1.59-10.51-2.6-15.74c-2.72-14.15-4.8-28.67-9.09-42.68c-1.77-5.79-3.4-11.67-5.3-17.46
		C355.75,723.96,355.66,722.48,355.39,721.18z M232.99,427.54c4.13,3.35,7.58,7.5,10.83,12.05c4.85,6.77,8.94,14.04,12.54,21.86
		c5.18,11.26,11.03,21.76,19.48,29.28c0.38,0.34,0.77,0.4,1.15,0.01c0.11-1.1-1.21-1.44-0.84-2.84c2.32-0.4,3.89,2.54,6.1,2.58
		c0.82-6.73,1.22-13.59,3.9-20.06c1.34,1.79,2.44,3.28,3.63,4.86c0.44-1.52,0.42-2.81,0.61-4.02c0.49-3.15,2.18-6.76,1.02-9.47
		c-1.63-3.81-2.59-7.97-4.16-11.66c-5.79-13.61-8.99-28.76-14.5-42.82c-4-10.22-4.6-22.29-9.86-32.01
		c-1.75,2.85-1.15,7.13-2.67,9.93c-2.69,4.95-4.44,10.54-6.8,15.64c-3.84,8.28-7.63,16.53-14.23,21.49
		C237.16,423.88,235.07,425.29,232.99,427.54z M439.07,390.59c7.39-2.36,13.99-1.68,20.57,1.2c2.83,1.24,6.03,3.14,9.08,2.4
		c5.28-1.28,8.54,1.99,11.92,5.83c1.7,1.93,1.98,5.28,3.86,6.59c1.95-1.85,4.59-2.57,5.11-6.49c-1.57-1.1-3.04-2.71-4.75-3.2
		c-2.66-0.76-4.5-2.97-6.39-5.02c-7.12-7.73-13.44-16.66-19.85-25.58c-4.05-5.64-7.95-4.95-10.74,2.34
		C445.14,375.83,442.22,382.84,439.07,390.59z"/>
</g>
</svg>
