<?xml version="1.0" encoding="utf-8"?>
<!-- Generator: Adobe Illustrator 24.0.2, SVG Export Plug-In . SVG Version: 6.00 Build 0)  -->
<svg version="1.1" id="Layer_1" xmlns="http://www.w3.org/2000/svg" xmlns:xlink="http://www.w3.org/1999/xlink" x="0px" y="0px"
	 viewBox="0 0 1044.73 1498.07" style="enable-background:new 0 0 1044.73 1498.07;" xml:space="preserve">
<style type="text/css">
	.st0{fill:#1A1A1A;}
</style>
<g>
	<path d="M390.88,789.04c-3.44,4.6-6.25,9.22-10.15,13c-1.16,1.13-2.08,2.7-1.83,4.42c0.77,5.37-1.97,9.75-4.67,13.68
		c-3.13,4.54-1.46,8.49-0.26,12.74c2.04,7.26,7.13,13.64,6,21.85c-0.28,2.04-0.59,3.83-2.14,5.3c1.46,3.5,4.1,6.63,2.76,10.73
		c-1.8,1.66-2.97-0.87-5.26-1.21c2.29,3.57,6.32,4.38,7.68,8.6c-6.98,2.23-12.08-2.1-18.44-5.29c1.93,4.09,5.88,5.14,7.27,8.7
		c-2.17,2.79-5.16,1.99-7.91,1.25c-6.75-1.82-12.06-6.23-17.68-10.36c-0.66,1.94,1.29,3.02,1.18,4.63
		c-4.59,2.27-7.58,1.55-12.87-3.64c-4.34-4.26-7.71-9.33-11.35-14.19c-4.13-5.51-8.68-10.69-12.97-16.08
		c-4.29-5.39-4.98-11.93-4.12-18.23c0.66-4.82,0.65-9.56,0.7-14.33c0.06-5.46,0.68-10.79,1.86-16.12c0.53-2.39,0.82-5.21,0.05-7.43
		c-2.17-6.17,0.01-11.2,3-16.29c4.63-7.89,7.62-16.53,11.16-24.92c4.64-10.99,9.25-22.01,17.73-30.83
		c4.24-4.41,5.62-10.31,7.1-15.91c3.79-14.29,5.77-28.81,6.43-43.67c0.45-9.95,1.02-19.92,0.5-29.8
		c-0.44-8.44-1.16-16.89-0.68-25.31c0.8-14.04,1.91-28.1,6.9-41.47c2.85-7.62,5.71-15.24,8.7-22.8c1.99-5.03,2.85-10.34,4.23-15.52
		c0.93-3.47-0.41-6.95-1.09-10.25c-2.03-9.83-2.03-19.88-3.81-29.72c-0.2-1.13-0.04-2.33-0.04-3.49c0-12.66-0.18-25.33,0.04-37.99
		c0.31-17.44,2.75-34.63,8.3-51.17c2.84-8.47,5.81-16.93,9.05-25.27c0.58-1.5,0.87-3,0.52-4.35c-1.81-7.06-1.38-14.3-0.71-21.29
		c0.94-9.82,1.51-19.96,6.85-28.81c1.68-2.8,3.61-5.44,5.48-8.23c-0.3-1.19-1.87-0.06-2.29-1.11c2.32-6.62,8.09-12.57,16.3-16.77
		c1.07-1.04-0.5-1.7-0.42-2.95c4.08-2.73,7.71-6.72,13.02-7.62c2.45-0.41,1.56-3.38,3.9-3.76c3.03-0.49,5.94-1.97,8.97-2.25
		c3.92-0.36,7.78-0.18,11.55-1.99c2.92-1.41,6.29-1.94,9.1-0.14c1.86-0.46,0.83-2.35,2.79-3.14c3.36,2.61,7.85,2.1,12.27,2.18
		c2.49,0.05,4.45-0.86,6.23-2.47c1.45-1.31,2.58-2.91,4.52-3.79c2.45-1.11,3.14-3.57,2.34-5.94c-1.56-4.61-2.06-9.3-1.83-14.09
		c0.14-2.84-1.19-3.96-3.91-3.74c-0.66,0.05-1.35-0.1-2,0.02c-6.69,1.24-12.5-1.62-18.31-4.11c-7.4-3.17-12.46-8.81-15.42-16.23
		c-0.75-1.89-1.97-3.19-3.12-4.75c-5.87-7.92-14.41-14.03-16.53-24.55c-1.44-7.11-3.26-14.13,0.59-21.02c0.86-1.54,0.6-2.54-0.36-4
		c-3.8-5.76-6.1-11.79-5.89-19.1c0.25-8.74,4.21-15.13,10.05-20.76c2.47-2.38,2.94-4.16,1.58-7.6c-1.65-4.18-4.53-7.84-4.84-12.74
		c-0.37-5.89,2.05-10.58,4.86-15.18c1.32-2.15,1.56-3.54,0.17-5.76c-1.95-3.13-0.26-7.14-1.85-10.51c-0.26-0.56,0.1-1.44-0.2-1.95
		c-1.89-3.21-0.76-5.53,2.13-7.24c-0.46-1.62-1.26-2.94-0.96-4.47c1.21-6.26-1.92-10.7-6.15-14.69c-0.6-0.57-1.14-1.21-1.62-1.88
		c-0.15-0.2-0.02-0.61-0.02-1.1c3.1-0.48,5,2.99,8.35,2.48c1.44-4.83,2.48-9.89,5.26-14.42c4.18-6.82,10.79-9.57,16.94-5.97
		c2.22,1.3,4.67,2.57,6.45,4.41c2.72,2.81,5.91,3.65,9.47,3.09c4.87-0.78,9.68-1.76,14.74-0.04c-3.5-5.45-10.03-6.88-14.72-11.98
		c5.12,1.47,9,4.14,13.87,4.84c-4.3-4.74-8.74-9.34-7.27-16.56c0.55,0.07,1.28-0.04,1.43,0.21c2.89,4.67,7.71,6.18,12.52,6.4
		c9.55,0.44,18.86,1.99,28.12,4.14c0.29,0.07,0.63-0.13,1.36-0.3C517.62,7.7,517.42,4.2,518.32,0c5.2,6.36,11.59,9.53,18.77,11.5
		c12.09,3.32,22.53,9.48,31.08,18.79c3.88-2.75,7.52-5.47,11.31-7.99c6.96-4.63,14.36-5.84,21.63-1.08
		c9.23,6.05,14.98,14.37,15.8,25.83c0.53,7.46,0.05,15.12,3.31,22.21c1.52,3.31,0.03,6.93,0.84,10.36c1.97,0.9,1.31-2.6,3.24-1.95
		c0.98,1.09,0.76,2.58,0.47,3.7c-1.19,4.57-0.25,9.07,0.06,13.6c0.39,5.75-0.25,11.41-2.01,17.15c3.39-1.22,3.42-4.42,4.93-7.04
		c3.14,3.33,2.34,7.13,1.84,10.49c-0.5,3.34-1.73,6.58-1.81,9.86c1.05,0.87,2.05-0.58,3.08,0.9c-0.13,13.92-6.42,24.97-18.27,33.4
		c2.69,1.26,3.48-2.67,6.02-0.71c0.81,2.14-0.86,3.85-2.41,5.46c-3.1,3.21-6.1,6.57-10.04,8.81c-1.33,0.76-3.01,1.11-1.8,3.16
		c0.38,0.65-0.09,1.08-0.37,1.2c-3.76,1.5-4.92,6.71-9.66,6.75c-1.15,0.01-2.04,0.66-2.33,1.59c-1.45,4.63-4.29,8.76-4.21,13.96
		c0.19,12.5,0.3,25-0.06,37.49c-0.15,5.13,1.89,8.83,5.03,12.34c2.31,2.57,4.99,4.76,6.89,7.77c1.98,3.14,5.45,1.88,8.26,1.65
		c2.13-0.18,4.27-2.39,5.26,1.61c0.27,1.11,2.43,0.6,3.72,0.56c4.16-0.13,8.47,0.11,11.97,2.11c6.86,3.92,14.82,5.34,21.37,9.73
		c6.86,4.61,13.03,10.11,18.2,16.56c1.1,1.37,2.34,2.74,3.49,4.51c-1.61,1.92-1.39,3.69,0.65,5.42c2.49,2.13,2.35,5.67,4.05,8.31
		c1.13,1.76-1.22,2.81-1.77,4.43c4.19,6.25,6.52,13.33,7.87,20.67c0.67,3.64,1.99,6.73,3.86,9.89c2.99,5.05,5.42,10.42,8.21,15.61
		c7.13,13.24,14.76,26.23,21.05,39.9c7.72,16.78,13.38,34.21,17.1,52.33c1.4,6.82,2.07,13.88,5.21,20.29
		c3.36,6.85,8.19,12.66,13.26,18.2c6.57,7.17,12.93,14.47,18.24,22.61c6.28,9.62,10.19,20.24,13.24,31.31
		c4.93,17.87,9.69,35.81,17.18,52.88c2.63,6,5.68,11.78,8.49,17.67c1,2.1,1.97,3.15,4.53,1.93c2.11-1.01,4.68-0.7,6.9-0.3
		c8.07,1.46,16,1.58,23.91-0.96c1.51-0.48,3.48-0.52,4.94,0.03c4.7,1.79,8.96,0.28,13.44-0.88c5.34-1.38,10.56-4.36,16.23-3.17
		c5.96,1.25,11.9,0.44,17.82,0.93c6.94,0.58,13.18-2.1,19.68-3.64c5.48-1.3,18.07,2.94,19.69,11.28c-3.64-0.11-4.39,1.76-5.27,5.27
		c-1.25,4.99-6.05,7.89-10.78,9.95c-2.07,0.9-4.36,1.29-6.59,2.5c2.01,2.74,5.02,4.74,6.02,8.19c0.15,0.52,0.93,1.18,1.46,1.23
		c6.29,0.52,9.48,5.19,12.18,9.8c2.61,4.45,7.41,5.78,10.75,9.15c5.8,5.86,10.97,11.98,13.18,20.07c0.48,1.78,0.73,4.03-1.79,5.19
		c-2.52-1.15-2.68-4.63-5.67-5.47c-1.36,3.63,1.03,8.08-1.58,11.34c-3.09-0.26-3.15-3.34-5.33-3.9c-2.25-0.58-4.11,0.96-6.28,1.03
		c-8.4,0.29-14.9-3.34-20.1-9.56c-1.51-1.8-2.96-3.04-5.38-3.67c-6.29-1.65-11.33-5.12-13.64-11.58c-0.37-1.02-0.91-1.72-2.06-2.22
		c-4.31,2.78-8.67,5.84-14.35,5.01c-0.9-0.13-1.5,0.45-2.17,0.98c-8.72,6.92-18.51,10.66-29.76,11.14
		c-4.75,0.2-9.67,1.26-12.85,5.92c-1.19,1.74-3.19,3.19-5.7,3.11c-0.06,1.04-0.34,1.81-0.09,2.32c2.5,5.1,3.13,10.85,5.7,15.95
		c5.72,11.38,3.92,20.38-5.55,28.86c-0.48,0.43-0.82,0.99-1.14,1.38c0.32,2.12,2.37,3.47,1.75,5.7c-1.06,0.97-2.02,0.55-3.11-0.09
		c-4.87-2.91-9.3-6.26-13.42-10.26c-5.19-5.05-5.41-11.71-7.03-17.86c-0.81-3.07-2.25-5.4-4.21-7.53c-1.49-1.63-2.9-3.37-3.27-5.41
		c-1.43-7.81-6.83-12.89-12.1-17.99c-5.99-5.79-10.03-12.67-13.89-20.03c-5.27-10.05-10.94-19.9-16.15-30
		c-7.14-13.85-15.69-26.75-25.63-38.77c-8.14-9.85-16.57-19.47-24.03-29.88c-1.23-1.71-1.53-3.83-2.8-5.59
		c-2.23,1.2-0.23,3.65-2.12,5.09c-3.91-3.96-7.57-8.11-9.34-13.76c-0.94,1.05-1.27,2.3-2.93,2.71c-4.02-4.06-6.59-9.03-7.12-15.8
		c-2.13,2.15-1.71,4.57-3.81,5.89c-2.82-5.56-4-11.16-1.69-17.28c-1.96-0.74-3.02,1.27-4.58,0.99c-1.11-1.13,0.07-1.69,0.56-2.46
		c3.95-6.17,5.03-13.04,4.88-20.21c-0.02-1.05-0.26-1.91-1.04-2.66c-2.98-2.86-5.43-6.25-8.32-9.13c-7.05-7.01-13.01-14.83-18.56-23
		c-9.96-14.64-18.04-30.22-23.14-47.25c-0.27-0.9-0.89-1.7-1.53-2.87c-0.35,2.17-1.55,3.6-1.44,5.53c0.47,8.3-1.56,16.34-3.17,24.34
		c-2.21,10.99-5.03,21.88-8.82,32.48c-2.63,7.35-5.32,14.63-7.2,22.27c-2.02,8.21-2.36,16.32-0.64,24.39
		c1.34,6.31,1.03,12.59,0.71,18.81c-0.39,7.54,2.03,13.64,6.22,19.67c7.44,10.72,14.85,21.51,20.46,33.36
		c6.34,13.42,12.15,27.04,14.58,41.85c0.58,3.51,2.69,6.27,5.89,8.06c13.94,7.79,24.48,19.2,34.28,31.53
		c8.86,11.15,16.49,23.27,25.9,33.93c7.83,8.87,15.22,18.35,25.5,24.76c0.38,0.24,0.58,0.77,1.22,1.65
		c-5.59-0.7-10.61-1.69-15.7-3.57c9.24,13.58,15.19,28.85,24.81,42.17c-3.35,1.41-4.11-2.59-7.28-1.49
		c7.8,9.59,10.75,21.02,10.72,33.89c0,0.01-0.65,0.05-1.32,0.1c-0.64,0.05-1.28,0.2-2.04,0.33c0.14,0.62,0.18,1.09,0.34,1.52
		c4.49,11.67,7.63,24,5.17,36.14c-2.26,11.16-0.78,22.09-1.6,33.09c-2.28,30.57-0.71,61.19-0.86,91.79
		c-0.06,11.97,1.43,23.96,2.71,35.91c1.27,11.9,3.14,23.65,6.18,35.19c4.53,17.19,11.66,33.22,22.8,47.22
		c2.76,3.47,6.77,5.62,10.58,7.88c1.92,1.14,3.95,2.16,5.72,4.01c-1.31,1.49-3.2,0.43-4.73,1.31c8.22,5.23,17.37,7.55,26.44,10.41
		c-2.36,5.01-7.55,1.75-10.89,4.52c6.42,2.13,11.91,5.36,18.67,6.58c-2.85,4.99-6.95,1.97-9.91,3.43
		c17.14,8.53,34.54,11.09,53.07,3.27c-1.51,1.53-3.15,2.97-4.5,4.63c-1.37,1.69-3.95,1.89-4.83,4.1
		c13.38-1.37,22.55-5.25,30.84-13.04c1.41,0.16,1.49,1.54,2.17,2.4c5.57-4.76,10.85-10.1,18.98-9.72c0.94,2.01-0.77,2.49-1.45,3.46
		c-0.64,0.92-1.93,1.39-1.88,3.32c5.36-1.02,9.51-4.61,14.48-6.18c5.1-1.62,10.01-3.8,14.1-7.67c3.88-3.68,6.57-8.37,10.69-11.89
		c-0.17,4.14-1.91,7.71-3.85,12.3c3.61-2.41,4.73-5.31,6.26-7.85c3.45-5.72,6.87-11.48,10.12-17.31c1.98-3.55,5.06-6.08,8.67-6.8
		c4.13-0.82,6.17-3.51,8.36-6.32c4.31-5.52,9.2-10.33,16.03-12.47c2.92-0.91,6.13-1.65,8.92,0.77c1.02,0.89,2.01,0.65,3.18,0.07
		c11.57-5.75,22.41-2.73,32.83,3.16c2.6,1.47,3.08,4.61,3.02,7.42c-0.11,5.27,0.08,10.5-0.73,15.82c-0.9,5.92-0.29,12.09-0.19,18.14
		c0.08,4.68-1.06,9.2-2.91,13.3c-2.72,6.03-3.34,12.99-8.88,18.19c3.91,0.75,6.48-2.68,9.97-0.76
		c-5.59,7.24-10.45,14.86-18.82,19.76c1.04,0.82,2.68,0.42,3.25,2c-6.41,8.74-15.78,12.91-26.07,15.88
		c2.55,0.93,5.37,0.11,7.42,2.54c-1.83,2.7-5.13,2.11-7.69,3.08c-6.74,2.56-13.85,5.24-18.66,10.32
		c-8.33,8.82-16.04,9.65-25.93,10.9c-0.68,1.96,2.5,1.4,2.14,3.32c-8.33,1.73-16.51,4.01-25.15,3.58c-2.39-0.12-5.04,0.29-7.19,1.28
		c-3.96,1.83-8.03,1.67-12.14,1.62c-6.94-0.08-13.78,1.55-20.59,1.65c-5.67,0.08-11.65,0.21-17.23-0.9
		c-4.1-0.81-7.85-0.58-11.62,0.33c-18.48,4.45-35.24,0.52-50.77-9.93c-0.09-0.06-0.3,0.05-0.76,0.15c1.36,2.78,4.41,4.17,5.75,6.97
		c-7.38,1.02-21.46-7.67-28.48-15.29c-1.31,2.38,1.69,2.87,1.85,4.81c-4.26,1.05-7.56-1.47-10.53-3.54
		c-3.94-2.77-8.44-5.1-10.92-9.64c-0.74-1.35-2.24-1.7-3.99-2.45c0.81,4.08,4.26,6.5,4.81,10.26c-1.31,1.07-2.63,0.78-3.36-0.52
		c-5.33-9.53-14.11-16.39-19.82-25.63c-0.57-0.93-0.51-2.41-2.2-2.69c-1.73,2.31,2.31,3.91,0.95,6.5
		c-7.18-6.75-13.16-14.2-17.83-22.81c-0.51,4.98,1.02,9.49,1.69,14.07c1.49,10.15,3.58,20.22,5.76,30.25
		c2.21,10.17,4.97,20.19,8.08,30.15c2.79,8.94,6.3,17.59,7.22,27.27c0.93,9.77,3.25,19.55,5.58,29.22
		c2.94,12.18,5.64,24.41,8.91,36.52c3.18,11.79,6.69,23.47,10.24,35.14c5.45,17.89,10.33,35.96,16.57,53.62
		c1.37,3.88,3.51,6.88,6.54,8.98c8.76,6.07,13.19,14.76,15.67,24.63c1.22,4.87-1.16,9.23-4.31,12.57c-2.62,2.78-4.04,5.44-3.58,9.18
		c0.19,1.5,0.14,3.04-1.53,3.96c-3.43,0.29-1.54-4.18-4.15-4.69c-5.96,3.35-5.96,3.35-11.05,1.99c-2.24,5-5.75,8.87-10.91,11.21
		c-1.72,0.78-2.58,2.44-2.36,4.55c0.23,2.15,0.05,4.27-1.63,5.94c-3.63-2.32-3.75-2.5-4.68-7.41c-1.43-0.77-2.7-0.2-4.17,0.27
		c-2.39,0.76-4.82,2.19-7.54,0.45c-0.8-0.51-2.7-0.45-3.34,0.15c-3.53,3.31-8.35,2.49-12.54,4.3c0.08,2.37,1.91,5.02-0.79,7.26
		c-0.28-0.07-0.97-0.04-1.15-0.33c-3.17-5.19-7.66-7.99-13.76-8.96c-3.17-0.5-5.77-3.01-8.13-5.8c-4.93,3.47-10.06,1.97-15.13,0.76
		c-1.46-0.35-3.19-1.23-3.92,0.36c-1.72,3.71-2.38,2.78-3.45-0.31c-0.68-1.96-1.8-3.72-4.03-4.72c-2.19-0.98-3.69-3.17-3.58-5.54
		c0.11-2.58-0.69-4.93-1.25-7.26c-1.95-8.18-0.42-15.88,4.38-22.28c4.42-5.88,4.41-12.2,3.44-18.39c-0.77-4.88-0.76-9.82-1.39-14.68
		c-0.65-5.05-2.45-9.92-2.7-14.82c-0.54-10.7-5.54-20.54-4.92-31.54c0.29-5.12-1.43-10.6-2.25-15.91c-0.42-2.69,0.5-4.79,0.62-7.15
		c0.4-8.15-1.24-16.06-2.46-24.01c-1.09-7.1-2.27-14.18-3.64-21.23c-1.46-7.5-3.12-14.97-7.08-21.68c-1.17-1.99-1.61-4.17-1.97-6.46
		c-0.47-2.99-0.23-6.24-2.33-8.82c-0.83-1.02-0.86-2.33-0.43-3.33c1.77-4.2,1.35-8.71,0.67-12.77c-2.55-15.25-5.12-30.53-9.78-45.34
		c-1.85-5.89-3.1-11.99-5.18-17.8c-3.96-11.07-8.62-21.62-16.2-31.08c-8.98-11.2-15.6-24.08-19.61-38.07
		c-0.72-2.53-1.69-4.9-3.17-7.06c-5.89-8.62-8.79-18.16-8.89-28.58c-0.01-1.31,0.37-2.74-0.43-3.9c-3.35-4.86-3.54-10.21-2.56-15.76
		c0.58-3.28-0.95-6.09-1.99-9.01c-2.01-5.7-0.69-11.58,0.31-17.03c1.34-7.34-0.03-13.9-2.01-20.72c-2.3-7.93-5.97-15.12-10.14-22.19
		c-5.12-8.69-9.87-17.6-14.68-26.47c-5.6-10.34-12.48-19.93-17.45-30.64c-7.34-15.82-14.21-31.81-19-48.62
		c-0.23-0.81-0.22-1.66-1.67-2.09c-0.67,1.37-0.31,2.94-0.35,4.41c-0.28,9.53-1.97,18.88-3.6,28.25
		c-1.67,9.64-3.41,19.27-5.38,28.86c-2.1,10.22-4.1,20.46-5.92,30.73c-1.96,11.1-2.66,22.32-2.08,33.57
		c0.34,6.57,2.57,12.25,7.64,16.95c6.03,5.58,12.11,11.61,14.55,19.59c2.77,9.08,10.5,14.82,13.95,23.36
		c2.21,5.48,4.96,10.61,4.93,16.77c-0.01,2.17,0.92,4.51,1.95,6.5c4.17,8.14,3.72,17.2,1.44,24.97c-2.7,9.22-2.82,18.28-3.69,27.52
		c-0.85,9.05-3.16,17.95-5.19,26.86c-2.17,9.55-3.92,19.17-4.85,29c-0.78,8.3-1.1,16.59-0.64,24.81
		c0.65,11.43,0.72,23.06,3.95,34.14c2.82,9.67,6.18,19.23,10.59,28.32c3.61,7.44,3.99,14.66,1.58,22.76
		c-2.94,9.88-7.28,18.9-13.4,26.96c-4.15,5.47-8.5,10.81-12.71,16.26c-1.11,1.44-2.21,2.86-3.07,4.44
		c-1.54,2.83-2.31,6.04-5.61,7.79c-1.2,0.63-1.91,2.68-2.3,4.22c-0.79,3.1-2.59,5.28-4.71,7.64c-2.65,2.96-3.51,7.25-5.88,10.59
		c-0.93,1.31-1.29,3.08-3.19,3.61c-1.02-1.58,0.19-3.52-1.01-5.35c-2.85,4.4-4.35,9.21-5.26,14.06c-1.42,7.53-2.92,15.06-5.24,22.33
		c-4.15,13-11.57,23.93-22.93,31.66c-2.77,1.88-6.82,1.85-10.28,2.74c-4.7,1.22-9.5,1.07-14.29,1.04c-0.5,0-1.13,0.19-1.48-0.04
		c-4.59-3.03-8.05-0.19-11.84,1.96c-5.06,2.87-10.79,3.42-16.48,4.14c-5.06,0.64-10.06,1.03-15.1-0.03
		c-1.26-0.26-2.63,0.27-3.78-0.8c-2-1.87-4.03-1.2-6.39-0.37c-8.94,3.17-17.93,3.41-26.98-0.44c-1.25,0.41-1.78,2.2-3.75,2.58
		c-1.75-2.71-4.18-4.27-7.89-4.14c-2.91,0.11-5.53-1.65-7.41-3.9c-2.39,0.84-3.21,3.25-5.62,4.12c-2.21-6.03,0.46-10.86,3.38-15.99
		c-4.18-3.55-1.57-7.18,0.74-10.21c6.85-8.98,15.26-16.13,25.57-21.07c3.37-1.62,6.87-2.55,10.31-2.63
		c4.81-0.11,9.53-0.82,14.28-1.24c3.59-0.32,6.44-2.59,8.63-5.21c5.34-6.4,9.53-13.65,14.35-20.44
		c7.49-10.54,13.03-22.22,19.57-33.32c6.31-10.71,11.98-21.76,17.48-32.91c5.7-11.54,9.27-23.6,10.17-36.54
		c0.27-3.92,0.84-7.85,0.82-11.81c-0.04-12.2-2.05-24.2-4.29-36.12c-1.93-10.25-3.7-20.54-5.82-30.75
		c-2.31-11.15-4.5-22.33-7.62-33.31c-4.28-15.02-8.24-30.13-12.23-45.23c-2.91-11.01-5.84-22.02-8.39-33.11
		c-2.26-9.85-4.17-19.78-5.71-29.78c-1.3-8.41-3.08-16.84-3.21-25.3c-0.17-10.67-6.06-19.17-9.15-28.69
		c-2.92-9-4.73-18.02-4.58-27.48c0.11-7-0.1-14,0.05-21c0.31-15.06-2.22-29.78-5.33-44.4c-3.66-17.19-8.15-34.22-11.41-51.48
		c-1.3-6.85-1.72-14.03-2.55-21.02c-1.13-9.55-0.21-19.12-1.48-28.66c-0.69-5.22,1.1-10.79,0.74-16.27
		C391.76,792.07,392.28,790.7,390.88,789.04z M676.1,797.11c3.79,19.77,7.33,39.6,11.44,59.31
		C686.89,836.04,682.62,816.36,676.1,797.11z"/>
	<path class="st0" d="M1036.55,1149.84c-3.88,5.36-7.46,10.69-13.07,14.14c-3.42,2.11-3.33,2.24-0.99,6.06
		c-4.87,5.04-10.65,8.55-17.51,10.26c-1.26,0.31-2.51,0.71-3.72,1.19c-4.24,1.66-4.47,3.29-0.84,6.56c-2.32,0.03-4.22,0.9-6.09,1.99
		c-3.67,2.13-7.38,4.22-11.18,6.1c-2.65,1.31-4.44,3.51-6.23,5.6c-3.34,3.9-8,5.17-12.49,6.26c-2.59,0.63-5.39,1.52-8.24,1.27
		c-1.91-0.17-3.23,0.51-3.44,2.66c-0.13,1.31-0.93,2.1-2.24,2.27c-4.86,0.64-9.59,2.32-14.57,2.03c-4.84-0.28-9.5,0.69-14.03,2.14
		c-1.95,0.62-3.82,0.93-5.8,0.87c-7.94-0.24-15.78,1.06-23.65,1.42c-5.3,0.24-10.99,0.59-16.16-0.67c-5.12-1.25-9.99-0.76-14.59,0.5
		c-8.05,2.21-15.7,1.52-23.74,0.03c-8.07-1.5-15.33-4.38-22.06-8.82c-1.83-1.21-3.39-2.29-5.28-0.68c-2.11,1.79,0.01,3.34,1.63,5.73
		c-8.19-3.6-14.85-7.08-19.8-13.2c-2.16-2.68-4.54-1.74-6.22,2.39c-5.44-2.72-10.46-5.92-14.2-10.87c-0.87-1.15-1.9-2.23-3.36-2.88
		c-2.37-1.07-2.32-1.19-5.36,0.85c-6-4.93-10.08-11.47-14.49-17.74c-2.56-3.63-2.89-3.75-6.68-1.17c-3.48-4.27-7.27-8.34-9.36-13.6
		c-0.12-0.3-0.09-0.77-0.3-0.92c-4.91-3.52-3.41-9.17-4.72-13.9c-1.81-6.52-2.1-13.28-2.71-19.91c-0.62-6.71-1.93-13.32-2.5-20.04
		c-0.71-8.55-2.15-17.17-4.86-25.42c-1.02-3.1-1.37-6.11-0.32-9.17c0.92-2.67-0.11-5.57,1.3-8.23c0.62-1.16-0.71-2.48-1.36-3.56
		c-2.8-4.59-5.24-9.29-6.71-14.51c-0.84-3-1.95-5.91-1.8-9.08c0.06-1.2-0.32-2.21-0.92-3.26c-4.97-8.66-7.77-18.21-11.18-27.52
		c-0.89-2.42-1.62-5.04-4.48-5.68c-0.69-1.87-0.33-3.55-0.42-5.2c-0.03-0.5-0.01-1,0-1.5c0.72-40.27-1.61-80.51-0.99-120.78
		c0.03-2.12,0.2-4.2,0.69-6.35c0.58-2.54,1.34-5.62-1-8.03c-0.79-0.81-0.7-1.83-0.7-2.81c0.02-11.23-2.59-22.05-4.64-33
		c-1.45-7.72-3.04-15.48-5.82-22.65c-2.76-7.11-3.31-14.52-5.38-21.66c-0.98-3.37,0.62-6.82,1.44-10.13
		c1.65-6.66,1.75-13.21,0.65-20.02c-0.59-3.67-1.27-7.43-1.38-11.26c-0.1-3.71-0.73-7.45-1.6-11.13c-0.75-3.18-1.77-6.37-1.27-9.73
		c0.28-1.89-0.18-3.68-1.2-5.19c-1.71-2.54-2.3-5.51-2.65-8.33c-0.34-2.77-1.33-5.16-2.79-7.23c-3.11-4.42-5.48-9.28-8.57-13.69
		c-0.9-1.29-1.16-2.45-0.02-3.54c1.48-1.42,0.97-2.66,0.49-4.43c-1.51-5.48-3.36-10.8-6.19-16.27c2.23,0.19,3.46,1.41,4.95,2.32
		c10.12,6.23,18.07,14.74,25.69,23.7c8.81,10.36,16.37,21.64,24.55,32.47c2.08,2.75,4.41,5.33,6.73,7.89
		c5.78,6.39,11.4,12.93,18.1,19.01c-1.98,0.71-2.95-0.64-4.13-1.06c-1.49-0.52-2.99-0.88-4.16,0.38c-1.28,1.39-1.1,2.93,0,4.51
		c2.24,3.21,4.52,6.34,6.34,9.87c3.72,7.25,7.98,14.23,12.01,21.32c0.49,0.85,0.9,1.75,1.51,2.94c-0.89,0.79-2.45,1.16-2.66,2.76
		c-0.26,1.99,0.67,3.58,1.76,4.98c3.17,4.06,5.34,8.57,6.57,13.55c0.9,3.66,1.94,7.3,1.67,11.14c-0.1,1.45,0.14,2.77-1.77,3.62
		c-1.8,0.8-1.43,2.73-0.82,4.39c3.83,10.39,6.24,21.04,5.58,32.21c-0.05,0.83,0.26,1.81-0.09,2.48c-3.41,6.6-1.47,13.68-1.87,20.54
		c-0.24,3.99,0.19,8.01-0.08,11.99c-2.16,31.25-0.49,62.53-0.88,93.79c-0.1,7.87,0.71,15.76,1.8,23.6c0.61,4.38,0.32,8.84,0.97,13.3
		c1.16,7.92,2.38,15.81,3.81,23.69c1.6,8.88,4.31,17.39,7.36,25.8c3.81,10.48,8.99,20.26,15.87,29.11c1.91,2.46,3.64,4.9,6.36,6.72
		c2.56,1.71,5.02,3.63,7.55,5.42c-1.14,4.19-1.16,4.24,2.42,6.05c6.41,3.23,13,6.01,20.08,7.73c-1.17,1.25-2.65,0.34-3.91,0.65
		c-1.78,0.43-3.06,1.48-3.3,3.25c-0.25,1.86,1.13,2.29,2.72,2.83c3.65,1.24,7.16,2.87,11.61,4.7c-1.95,0.11-2.93,0.16-3.91,0.21
		c-1.33,0.07-2.23,0.75-2.44,2.05c-0.25,1.56,0.58,2.41,2.05,2.91c3.69,1.27,7.44,2.44,11,4.02c7.83,3.49,16.08,3.12,24.31,2.98
		c2.61-0.04,5.05-1.76,7.85-0.76c0.51,0.39,0.06,0.81-0.2,1.09c-0.98,1.06-1.55,2.16-0.64,3.54c0.9,1.36,2.32,1.36,3.59,1.03
		c5.2-1.32,10.41-2.65,15.55-4.2c4.92-1.48,9.31-3.99,13.17-7.87c2.3,1.94,4.07,1.16,5.88-0.91c2.83-3.25,6.59-5.21,10.43-6.85
		c0.9,0.78,0,1.25-0.03,1.82c-0.19,3.65,1.72,5.37,4.78,3.61c7.27-4.17,15.42-6.29,22.74-10.33c3.16-1.74,4.85-4.97,7.86-6.75
		c1.88,4.52,3.77,4.91,6.62,0.9c2.73-3.84,4.89-8.08,7.32-12.14c2.18-3.64,4.58-7.17,6.5-10.94c1.66-3.26,4.55-5.24,7.59-5.79
		c4.71-0.86,6.99-4.19,9.44-7.36c4.01-5.19,8.69-9.34,14.95-11.48c2.37-0.81,4.71-1.31,6.98,0.65c1.49,1.28,3.56,1.26,5.11,0.18
		c4-2.78,8.38-2.56,12.94-2.52c5.43,0.04,10.18,1.74,15.03,3.96c3.56,1.62,4.88,4.11,5.03,7.57c0.27,6.28,0.1,12.55-1.56,18.66
		c-0.22,0.83-0.41,1.56-0.23,2.38c2.1,9.65,0.8,18.9-3.24,27.83c-2.13,4.7-3.01,9.91-6.51,14.1c-1.78,2.13-0.02,4.48,2.93,4.57
		C1034.9,1150.26,1035.67,1150.15,1036.55,1149.84z"/>
	<path class="st0" d="M496.38,29.25c-2.89-5.17-8.7-5.12-11.67-9.18c4.8-0.01,8.9,2.64,14.41,2.25
		c-7.67-4.71-16.06-7.27-20.32-16.08c2.86,0.74,4.37,2.59,6.54,3.24c4.14,1.26,8.42,1.17,12.6,1.8c6.46,0.97,12.92,1.69,19.18,3.75
		c7.21,2.38,13.21,6.2,17.01,13c0.48,0.85,1.21,1.59,2.51,2.08c-0.1-3.24-0.89-6.15-3.04-8.34c-2.29-2.34-4.42-4.84-7.28-6.7
		c-2.79-1.82-5.37-4.29-5.52-8.8c7.25,5.78,15.34,8.32,23.31,11.12c3.06,1.07,6.14,2.12,8.82,4.03c4.65,3.31,7.19,7.8,7.91,12.78
		c-4.18,4.86-9.26,4.46-14.17,4.16c-6.71-0.41-13.02,1.35-19.33,3.1c-7.68,2.13-15.35,4.34-22.85,7.02
		c-6.15,2.2-12.27,4.31-18.7,5.52c-0.98,0.18-2.04,0.66-2.9,0.35c-4.07-1.48-8.08,0.33-12.08,0c-2.89-0.24-5.42,1.64-8.3,1.05
		c-5.58-1.14-11.23-1.72-16.76-3.4c-6.44-1.96-10.35-6.58-14.88-11.19c4.04-1.09,7.71,0.29,11.29-1.03
		c4.01-1.48,7.77-3.34,11.41-5.56c6.95-4.23,14.2-7.33,22.66-6.88C482.73,27.69,489.3,26.84,496.38,29.25z"/>
</g>
</svg>
