<?xml version="1.0" encoding="utf-8"?>
<!-- Generator: Adobe Illustrator 24.1.1, SVG Export Plug-In . SVG Version: 6.00 Build 0)  -->
<svg version="1.1" id="Layer_1" xmlns="http://www.w3.org/2000/svg" xmlns:xlink="http://www.w3.org/1999/xlink" x="0px" y="0px"
	 viewBox="0 0 1084.71 1822.91" style="enable-background:new 0 0 1084.71 1822.91;" xml:space="preserve">
<style type="text/css">
	.st0{fill:#1A1A1A;}
</style>
<g>
	<path d="M974.39,1696.73c3.2-1.8,5.65-3.69,8.43-4.62c6.41-2.15,12.93-2.8,19.5-0.09c26.78,11.06,28.13,10.8,40.42,34.06
		c2.95,5.59,5.96,11.17,8.59,16.91c2.02,4.41,4.78,8.01,9.02,10.33c10.14,5.54,16.39,14.33,20.9,24.64c1.06,2.42,2.21,4.79,3.46,7.5
		c-2.05,3.47-6.35,5.9-5.3,10.42c-5.12,3.47-10.34,4.01-15.67,4.56c-12.86,1.31-25.74,2.74-37.38,9.04
		c-6.18,3.35-12.64,3.49-19.41,2.57c-10.55-1.43-21.15-2.51-31.74-3.67c-1.97-0.22-4.21-0.7-5.94-0.05
		c-11.37,4.27-23.68,3.23-35.21,6.49c-2.84,0.8-5.93,0.81-8.91,1.05c-20.91,1.67-41.81,3.45-62.74,4.91
		c-23.72,1.65-47.27,1.08-70.36-5.67c-6.37-1.86-13.12-2.4-19.51-4.2c-22.02-6.2-36.15-21.59-46.63-40.99
		c-1.42-2.63-2.27-5.53-2.33-8.61c-0.2-11-0.48-21.95,3.09-32.64c2-5.99,3.1-12.27,4.88-18.34c4.71-15.98,3.83-32.34,3.37-48.64
		c-0.1-3.57-1.49-7.15-2.59-10.63c-9.91-31.48-21.56-62.29-35.65-92.17c-8.95-18.97-17.74-38.02-26.39-57.14
		c-3.29-7.27-5.9-14.85-8.94-22.24c-1.26-3.07-2.39-6.33-4.34-8.94c-12.91-17.29-12.1-35.18-2.88-53.6
		c2.83-5.66,5.68-11.31,8.4-17.02c2.66-5.58,2.37-7.1-2.42-11.17c-6.37-5.41-13.3-10.08-20.85-13.67
		c-10.38-4.93-17.3-12.84-22.84-22.84c-13.9-25.08-25.15-51.45-38.32-76.88c-7.96-15.37-15.63-30.89-23.48-46.32
		c-5.75-11.3-14.12-20.64-22.77-30.48c-5.63,9.3-9.07,18.97-12.07,28.82c-5.42,17.84-8.33,36.35-14.27,54.06
		c-0.32,0.94-0.54,1.94-0.63,2.93c-1.74,17.46-8.9,33.36-14.27,49.78c-1.66,5.09-3.95,9.91-7.03,14.31
		c-11.89,16.95-21.51,35.24-31.55,53.28c-10.86,19.52-22.71,38.41-35.86,56.49c-6.1,8.38-13.91,14.41-23.46,17.93
		c-7.42,2.73-12.3,7.76-15.59,14.55c-8.15,16.86-13.65,34.66-17.9,52.82c-1.44,6.14-1.66,12.55-1.13,18.9
		c0.17,1.99,0.96,4.16,0.43,5.94c-2.39,8.06,2.08,13.43,6.91,18.63c6.83,7.34,14.18,14.05,23.19,18.78
		c3.76,1.97,7.87,3.57,11.22,7.17c-3.63,14.13-15.11,19.07-27.05,23.19c-0.02,11.66,17.94,63.17,27.02,77.77
		c0.6,0,1.36,0.24,1.8-0.04c7.66-4.84,14.85-5.35,21.61,1.75c2.71,2.85,6.35,3.33,10.2,2.83c3.3-0.43,6.63-0.63,9.96-0.89
		c9.44-0.75,17.07,2.49,22.23,10.56c6.63,10.37,13.78,20.45,17.66,32.35c2.81,8.63,7.72,16.21,12.54,23.82
		c3.72,5.87,7.19,11.86,9.57,17.96c-1.08,3.03-3.28,2.91-5.19,2.94c-6.66,0.09-13.33,0.04-19.99-0.03
		c-4.01-0.04-8.04-0.44-10.94,3.32c-1.56,2.03-3.93,2.42-6.33,2.24c-5.07-0.36-9.78,0.77-14.48,2.67c-4.89,1.98-9.93,3.11-15.4,3.24
		c-4.46,0.1-8.93,2.09-13.27,3.59c-2.25,0.77-4.44,1.43-6.79,1.37c-17.33-0.47-34.63,0.44-51.93,1.22
		c-12.6,0.57-24.33-3.2-35.92-7.54c-3.15-1.18-6.21-2.62-8.34-5.31c-3.9-4.92-9.07-7.67-14.91-9.53c-2.21-0.7-4.25-1.93-6.43-2.73
		c-5.79-2.11-9.31-6.29-11.02-12.05c-1.71-5.74-3.52-11.47-4.83-17.3c-1.55-6.93-4.4-13.1-8.19-19.13
		c-14.33-22.81-32.51-42.06-52.81-59.59c-22.11-19.1-30.44-43.81-27.79-72.55c0.43-4.7,1.75-9.1,4.23-13.2
		c4.14-6.83,8.28-13.67,12.06-20.7c2.54-4.71,6.24-8.56,9.74-13.66c-18.66-21.95-33.77-46.08-45.16-72.54
		c-11.43-26.56-16.78-54.56-19.73-82.77c-3.04-0.59-3.74,0.94-4.61,2.32c-10.41,16.52-16.79,34.62-21.11,53.55
		c-0.66,2.9-1.56,5.8-2.81,8.49c-1.19,2.56-5.03,2.81-6.66,0.44c-1.29-1.87-2.26-4.09-2.87-6.29c-3.45-12.55-6.24-25.24-6.46-38.32
		c-0.23-13.99-0.51-27.99-0.38-41.99c0.18-18.47,4.33-36.33,9.23-54.02c3.65-13.18,8.74-25.87,13.81-38.54
		c2.37-5.93,3.95-11.97,5.06-18.23c3.26-18.39,7.36-36.56,14.97-53.76c3.65-8.25,7.67-16.26,12.92-23.63
		c14.88-20.85,24.96-43.85,31.09-68.7c3.67-14.88,7.58-29.69,8.79-45.04c0.27-3.44,1.25-6.51,5.52-7.87
		c4.8,8.47,7.94,18.11,15.38,24.29c2.88-0.79,3.36-2.38,3.58-4.06c0.61-4.62,1.09-9.26,1.7-13.87c1.65-12.47-3.77-22.71-10.3-32.56
		c-2.05-3.1-5-5.32-8.21-7.18c-1.82-1.05-3.38-2.45-2.64-4.77c0.73-2.28,2.95-2.37,4.92-2.55c4.65-0.42,9.32-0.56,13.94-1.21
		c10.29-1.43,20.23-3.92,29.12-9.74c3.38-2.21,5.16-4.66,5.01-8.92c-0.27-7.66-1-15.19-2.24-22.79
		c-3.69-22.73-11.41-44.46-15.97-66.97c-3.65-18.02-6.01-36.19-6.54-54.49c-0.39-13.3,0.49-26.81,5.46-39.37
		c7.41-18.71,10.47-38.53,15.72-57.79c2.28-8.35,4.36-16.76,6.33-25.18c3.42-14.59,10.46-27.92,14.66-42.26
		c1.06-3.62,4.51-6.52,5.36-11.4c-9.38-1.11-18.71-2.52-26.93-6.89c-1.08-2.26,0.21-3.53,1.39-4.57
		c10.91-9.54,18.73-21.55,27.2-33.12c7.53-10.28,14.57-20.68,19.06-32.65c0.92-2.46,1.79-4.93,2.52-6.98c-1.61-3.05-3.77-2-5.58-1.7
		c-6.35,1.04-12.6,0.75-18.84-0.76c-2.66-0.64-5.06-1.55-6.65-4.62c3.29-6.4,11.88-5.22,16.05-10.63c-2.72-1.86-5.68-2.3-8.51-2.48
		c-10.44-0.68-18.8-6.33-27.59-11.03c-3.92-2.1-4.91-5.91-6.37-9.1c1.64-2.99,3.71-2.39,5.53-1.71c3.71,1.38,7.09,0.82,10.61-0.77
		c25.44-11.55,44.69-29.79,58.58-53.87c0.49-0.85,0.75-1.83,1.42-3.5c-7.06-7.32-14.82-13.79-25.29-16.23
		c-6.16-1.44-12.33-2.87-18.54-4.1c-3.3-0.66-6.57-1.13-8.74-4.22c-0.86-5.26,1.39-8.82,5.95-11.39c3.79-2.14,7.59-4.01,11.83-5.19
		c4.74-1.32,9.73-2.26,14.58-6.05c-12.67-11.71-26.61-21.95-32.66-39.01c-5.75-16.22-9.82-32.42-7.12-49.5
		c3.43-2.23,5.3-0.24,7.05,1.86c4.76,5.72,10.46,10.33,17.09,13.61c13.02,6.43,25.8,4.95,38.19-1.95c1.39-0.77,2.75-2.06,3.48-3.45
		c3.24-6.17,6.44-12.4,5.98-20.4c-4.51-2.5-9.18-4.95-13.72-7.61c-9.66-5.64-17.51-9.84-22.95-23.92c3.23-5.16,8.46-1.61,13.58-2.89
		c-4.3-9.75-10.57-18.4-13.01-28.68c-2.56-10.74-4.25-21.57-4.14-32.63c0.1-10.29-1.66-20.83,2.7-32.23
		c6.81,5.78,8.76,12.81,13.55,17.7c4.65,4.75,8.45,10.34,13.14,15.03c4.82,4.83,8.79,10.75,16.05,14.63
		c-2.63-21.73-3.74-42.3-2.99-62.91c0.68-19.01,5.7-36.77,17.18-52.31c0.79-1.07,1.76-2,3.9-1.97c3.49,2.85,2.79,7.43,3.28,11.49
		c0.75,6.28,1.1,12.6,1.8,18.88c0.28,2.5,0.33,5.22,2.59,7c1.6-0.54,2.06-1.87,2.45-3.1c6.92-21.71,21.16-38.29,37.47-53.36
		c5.86-5.41,12.21-10.31,18.41-15.36c1.57-1.28,3.43-2.13,5.51-0.89c2.3,1.37,3.11,3.38,2.46,5.94c-0.97,3.83-1.99,7.65-3.29,12.6
		c8.2-1.42,14.47-3.57,17.83-11.11c7.04-15.82,14.39-31.5,21.43-47.32c9.88-22.2,19.08-44.7,32.58-65.14
		c4.56-6.91,8.26-14.42,13.56-20.87c7.24-8.81,16.25-13.3,27.97-12.26c4.93,0.44,8.15,2.39,10.11,6.73c1.1,2.43,2.09,4.91,2.12,7.65
		c0.01,1.33,0.1,2.67,0.02,4c-1.73,28.88,2.61,57.15,8.81,85.21c0.9,4.07,1.42,8.47,4.77,11.13c2.66-0.12,3.4-1.68,4.11-3.16
		c8.82-18.37,22.68-31.74,40.39-41.55c10.18-5.64,19.77-12.4,31.01-15.98c1.9-0.61,3.78-1.29,5.65-2
		c13.12-4.98,21.64,3.05,24.33,14.59c1.44,6.15,1.52,12.44,0.05,18.82c-2.25,9.73-3.92,19.59-5.68,29.43
		c-0.58,3.26-0.56,6.63-1.06,9.92c-0.69,4.56,0.39,8.39,4.08,10.77c-0.26,1.3-0.16,2.17-0.55,2.56c-4.58,4.62-5.55,10.2-5.22,16.48
		c0.6,11.61,0.75,23.24,1.1,35.37c9.35,5,19.58,7.67,30.02,9.52c10.19,1.8,20.68,0.88,30.84,2.35c10.77,1.56,20.89-2.21,31.69-2.63
		c1.19,5.56-2.06,8.53-4.9,11.64c-9.99,10.96-21.96,19.35-34.8,26.57c-2.27,1.28-5.09,1.83-6.35,5c2.28,4.09,6.8,5,10.76,6.01
		c6.39,1.63,12.92,2.92,19.64,2.68c5.26-0.19,10.52,0.08,16.17,1.78c-2.01,4.74-5.76,6.97-9.11,9.41
		c-12.18,8.88-25.46,15.84-39.36,21.54c-9.53,3.91-18.82,8.44-28.87,11.12c-5.43,1.45-6.07,2.8-5.69,8.84
		c0.56,8.71,2.1,17.19,6.97,24.71c1.07,1.65,2.36,3.25,2.27,5.8c-3.77,5.95-8.88,2.54-13.29,0.98c-1.75,2.39-0.97,4.3-0.59,6.26
		c1.81,9.48,3.65,18.95,5.28,28.46c0.56,3.26,0.62,6.61,0.76,9.92c0.25,6.09-2.01,11.15-6.94,14.73c-4.02,2.92-7.07,7.1-11.87,9.03
		c-0.73,0.29-1.07,1.54-2.03,3.02c6.15,2.65,9.58,7.47,11.37,13.87c-1.04,3.25-2.14,6.73-3.26,10.19c-1.77,5.49-0.99,10.62,2.72,15
		c7.33,8.65,15.12,16.91,24.15,23.82c2.85,2.18,6.42,3.47,9.76,4.93c7.18,3.13,10.58,8.79,11.27,16.33c0.18,1.99,0.17,4,0.16,5.99
		c-0.01,11.06-4.61,16.26-15.81,17.83c-3.28,0.46-6.86,0.13-9.83,1.34c-7.95,3.25-15.58,7.27-20.74,14.53
		c-1.53,2.15-3.36,3.07-5.85,3.09c-1.95,0.02-3.96-0.9-6.36,0.62c-2.4,3.32-0.14,8.18-2.45,11.95c-1.88,2.74-5.19,0.13-7.83,2.22
		c-1.95,7.71,0.14,15.41,2.24,23.02c0.71,2.56,1.87,4.97,1.81,7.7c-0.04,2.04,0.55,3.87,1.51,5.7
		c13.25,25.18,29.8,48.09,47.75,70.07c2.78,3.4,6.25,5.98,9.73,8.56c12.92,9.56,24.54,20.4,34.54,33.09
		c9.89,12.56,20.31,24.7,30.59,36.95c1.83,2.18,3.08,5.14,6.94,6.1c3.17-7.95,6.8-15.69,10.75-23.27
		c9.89-18.96,21.51-36.75,34.53-53.7c7.54-9.82,13.42-20.67,18.04-32.13c4.61-11.4,4.65-23.46,3.83-35.48
		c-0.7-10.3-1.84-20.56-2.84-30.84c-0.33-3.34-1.28-6.49-2.81-9.52c-4.75-9.42-6.66-19.5-6.35-29.99c0.26-8.61-0.52-17.2,1.79-25.82
		c1.85-6.91,3.88-13.37,8.77-18.71c0.86-0.93,1.31-2.23,1.77-3.04c-0.3-3.53-2.43-5.2-4.75-6.5c-12.08-6.78-14.56-17.45-11.99-29.95
		c1.41-6.84,3.12-13.66,5.3-20.29c2.63-7.99,7.25-14.34,16.54-15.33c3.22-0.34,5.33-2.18,7.54-4.38c2.81-2.81,6.07-5.19,9.27-7.57
		c4.85-3.61,10.02-5.05,15.87-2.13c2.02,1.01,4.18,2.12,7.13,1.4c1.39-3.66-0.16-6.87-2.16-9.89c-0.91-1.37-2.25-2.44-3.41-3.64
		c-11.78-12.24-12.91-22.89-4.01-37.51c0.85-1.39,1.53-2.89,2.52-4.77c5.22,1.02,10.21-0.52,15.61,1.2
		c10.82,3.44,16.02,11.98,19.79,21.1c3.81,9.22,7.54,18.52,11.86,27.49c3.41,7.09,4.15,13.73,1.84,21.17
		c-3.16,10.2-4.57,20.81-6.37,31.31c-0.22,1.26-0.03,2.58-0.03,3.69c2.54,1.48,4.03-0.04,5.59-1.14
		c6.05-4.23,11.01-9.66,16.24-14.79c3.85-3.77,8.08-6.95,13.22-8.76c5.24-1.84,9.85-1.1,13.5,3.35c1.68,2.06,3.25,4.21,4.86,6.33
		c4.32,5.68,8.51,11.58,16.72,8.35c2.77,3.47,0.8,7.37,3.33,10.12c1.09,1.18,0.04,3.18-0.78,4.66c-0.98,1.74-2.35,3.35-2.92,5.2
		c-1.97,6.44-5.26,8.01-11.28,6.69c-5.8-1.27-10.37,1.33-14.53,4.91c-18.36,15.81-30.23,36.04-39.45,58.08
		c-1.74,4.16-1.65,8.53-1.29,12.81c1.05,12.5-1.09,24.31-4.91,36.29c-3.41,10.7-4.7,22.11-6.53,33.28
		c-3.77,23-8.81,45.78-11.43,68.97c-1.83,16.21-3.83,32.39-5.71,48.6c-3.35,28.92-10.98,56.85-19.81,84.48
		c-2.53,7.92-5.89,15.59-8.24,23.56c-2.38,8.06-7.43,14.07-13.63,19.14c-4.17,3.41-7.94,7.07-11.21,11.3
		c-4.06,5.25-8.53,10.12-14.39,14c2.49,4.23,6.46,6.24,9.62,9.07c2.22,1.99,4.78,3.66,6.3,6.34c1.51,2.68,0.42,5.57-2.63,6.19
		c-2.58,0.53-5.28,0.56-7.93,0.62c-12.24,0.3-23.91-1.56-34.08-9.1c-1.02-0.76-2.31-1.18-3.51-1.68c-0.26-0.11-0.64,0.1-1.13,0.2
		c-1.25,3.81-0.64,7.83-0.7,11.76c-0.05,3.58-1.23,6.48-3.8,8.88c-2.32,2.17-4.95,1.91-6.67-0.9c-1.21-1.98-2-4.2-3.06-6.28
		c-3.01-5.94-5.93-11.93-9.15-17.76c-2.27-4.12-5.47-7.06-9.99-9.26c-6.21-3.03-12.15-6.89-16.89-12.21
		c-1.31-1.47-3.01-2.63-4.63-3.8c-20.67-14.85-38.91-32.36-56.05-51.09c-1.8-1.96-3.67-3.86-5.62-5.66
		c-0.69-0.63-1.75-0.87-2.54-1.24c-2.39,0.93-2.68,3.01-2.94,4.91c-1.54,11.02-5.04,21.5-10.24,31.19
		c-8.04,14.95-8.23,30.52-5.79,46.66c2.9,19.2,3.03,38.49,0.51,57.74c-2.54,19.42-0.41,37.83,9.97,54.87
		c20.43,33.57,39.92,67.71,61.7,100.45c6.09,9.15,11.52,18.67,16.52,28.49c5.58,10.96,12.49,21.24,18.51,31.99
		c21.07,37.61,38.53,76.76,49.96,118.45c2.99,10.91,5.97,21.83,9.02,32.73c1.27,4.54,1.76,9.17,1.83,13.84
		c0.32,19.68-0.79,39.09-5.5,58.46c-4.56,18.72-6.88,37.97-6.74,57.41c0.13,18.33-0.27,36.66,1.9,54.91
		c2.84,24.01,11.15,45.8,26.41,64.77c7.94,9.86,15.75,19.83,23.65,29.72c1.03,1.29,2.12,2.63,3.44,3.58
		c9.94,7.18,16.97,16.89,23.29,27.13c8.77,14.22,19.03,27.33,29.46,40.31c5.42,6.75,11.17,13.25,15.87,20.55
		c1.46,2.26,3.01,4.53,5.48,5.7C958.87,1689.71,966.73,1693.23,974.39,1696.73z M364.06,824.34c-5.94,5.68-10.57,10.99-16.07,15.15
		c-8,6.05-10.75,13.99-10.59,23.44c0.07,4.05-0.88,8.32,2.18,13.39c10.1-13.08,24.65-17.87,37.94-25.66
		C372.96,841.75,368.64,833.29,364.06,824.34z M355.28,980.42c3.12-3.3,3.63-6.89,3.72-10.59c0.09-3.65,0.05-7.31,0.09-10.97
		c0.12-10.9-4.86-19.8-11.16-28.14c-1.23-1.63-2.88-2.84-5.99-0.93c-0.82,15.71,2.57,31.56,3.53,46.91
		C348.93,979.07,351.72,979.95,355.28,980.42z M386.89,918.82c-9.03-12.66-35.8-29.9-47.59-30.74c0.28,4.65,0.36,9.27,0.89,13.83
		c0.5,4.4,2.8,6.88,7.66,7.56c8.19,1.15,16.31,2.88,24.37,4.74C376.95,915.29,381.53,917.1,386.89,918.82z"/>
	<path class="st0" d="M217.2,1335.21c-3.34,1.69-3.5,6.39-7.64,7.91c-5.16-2.66-10.04-6.12-13.87-10.73
		c-5.71-6.89-11.62-13.6-16.31-21.33c-4.78-7.89-7.19-16.27-8.33-25.32c-1.29-10.27-1.23-20.55-1.3-30.85
		c-0.02-3.21,0.88-6.82-3.21-9.37c-9.61,7.11-13.54,19.1-22.58,28.36c0.83-11.01,2.82-20.73,6.21-29.83
		c4.61-12.4,9.15-24.96,17.12-35.89c4.89-6.71,9-13.98,13.44-21.01c11.76-18.59,18.38-38.92,21.22-60.69
		c1.2-9.19,3.68-18.21,5.6-27.3c0.56-2.66,3.28-3.02,5.33-4.89c5.75,7.35,10.67,15.05,14.26,24.04c3.5-0.05,5.69-2.4,5.67-5.35
		c-0.04-8.4,2.41-16.43,3.05-24.73c0.96-12.29-3.46-22.81-9.37-33.03c-1.29-2.24-3.82-3.85-3.59-7.28
		c4.67-0.95,9.41-2.05,14.19-2.85c10.1-1.69,18.66-6.83,27.15-12.05c5.87-3.61,8.78-8.88,7.4-15.99c-1.08-5.54-2.1-11.1-3.23-16.64
		c-1.05-5.15-0.68-10.24-0.34-17.01c6.13,7.41,10.35,14.07,15.13,20.25c4.56,5.9,10.23,7.63,16.45,8.67c2.62-2.31,2.04-4.6,1.14-6.8
		c-7.68-18.67-5.47-37.8-2.67-56.95c0.12-0.79,1.15-1.44,1.94-2.36c13.96,20.72,32.68,34.68,56.25,42.3
		c3.2-2.23,3.77-6.31,7.63-7.84c2.67-1.05,2.69-4.96,3.18-7.91c2.86-17.34-1.94-32.92-10.86-47.56c-1.18-1.94-2.72-3.67-4.8-6.45
		c9.44-0.08,17.67,1.13,25.7,3.97c8.06,2.85,16.15,5.61,23.84,8.28c2.58-1.64,3.33-3.96,1.9-5.43
		c-7.47-7.64-10.29-18.61-18.78-25.54c-7.21-5.89-13.96-12.25-23.11-15.29c-4.36-1.45-8.4-3.85-12.34-8.07
		c11.1-8.98,23.33-15.02,36.04-21.14c1.55-4.68,1.42-9.14-1.51-13.88c-8.24-13.28-14.12-27.76-20.13-42.12
		c-7.97-19.02-14.19-38.68-20.67-58.24c-4.21-12.7-5.48-25.97-7.27-39.12c-2.16-15.77-3.92-31.58-4.14-47.54
		c-0.04-3.27-1.1-6.52-1.68-9.78c0.3-0.05,0.64-0.04,0.88-0.18c0.13-0.08,0.14-0.63,0.11-0.64c-0.64-0.18-0.91,0.18-0.77,1.04
		c-2.44,0.83-2.36,2.95-2.39,4.9c-0.08,5.98-0.19,11.96-0.01,17.94c0.1,3.66-1.15,6.29-4.08,8.5c-3.19,2.4-6.19,5.09-10.02,6.37
		c-10.38,3.47-20.78,7.02-31.97,6.45c-4.59-0.23-9.11,0.52-14.27,1.28c1.08-4.62,3.98-7.36,6.84-8.86c5.9-3.09,9.63-8.1,13.34-13.08
		c12.41-16.66,19.81-35.91,27.72-54.88c0.52-1.25,0.28-2.59-0.78-3.69c-2.9-1.07-2.66,2.25-4.2,3.1l0.26,0.28
		c-0.96-2.84-2.71-4.64-5.93-3.95c-3.23,0.69-6.4,1.91-9.83,0.51c-1.32-2.9,1.07-4.23,2.78-5.38c3.91-2.63,7.31-5.75,10.44-9.22
		c1.17-1.29,1.99-2.7,0.39-4.66c-0.62-0.1-1.55-0.38-2.49-0.37c-6.67,0.05-13.2,3.68-20.04-0.11c-5.77-3.2-13.12-1.95-19.68-6.39
		c31.92-14.64,55.09-37.17,68.22-69.44c-12.79-10.77-25.7-19.82-41.16-28.17c11.67-3.95,21.73-7.36,32.39-10.97
		c-2.79-4.25-5.97-6.88-9.89-8.64c-12.51-5.61-21.49-15.39-30.23-25.48c-2.23-2.57-3.9-5.58-4.5-8.81
		c-1.95-10.38-4.89-20.7-2.86-31.45l-0.23,0.23c3.66-1.31,6.27,1.65,9.25,2.64c7.67,2.55,15.34,4.04,23.41,3.59
		c2.31-0.13,4.76-0.49,6.94,0.06c8.55,2.17,14.6-1.99,20.04-7.59c5.5-5.66,8.73-12.39,8.78-20.47c0.04-6.23-0.44-12.48,0.79-18.92
		c-5.56-0.07-6.39-9.65-13.74-6.43c0.15,1.09,0.28,2.03,0.42,2.98l0.26-0.27c-2.56,1.02-4.47-0.58-6.47-1.67
		c-4.84-2.65-9.58-5.46-14.46-9.71c7.53-3.14,11.08,2.29,16.61,5.51c-1.33-5.11-2.53-8.9-5.39-12.25
		c-14.23-16.65-20.22-36.31-20.65-57.9c-0.12-6.3-0.02-12.61-0.02-21.1c5.13,7.77,9.35,13.68,14.02,19.25
		c9.6,11.46,21.75,19.41,34.78,26.22c2.41,1.26,5.04,2.38,6.28-1.53c-0.12-0.36-0.13-0.86-0.34-0.96
		c-7.92-3.99-9.44-11.5-10.04-19.15c-1.53-19.54-2.96-39.13-1.83-58.72c0.3-5.25,0.12-11.44,5.27-15.34
		c1.24-0.94,0.32-1.32-0.17-2.12c-2.97-4.88,0.71-8.24,2.5-13.23c9.16,30.62,11.23,34.86,19.55,39.17
		c0.12-20.58,6.99-38.47,19.79-53.99c8.62-10.45,17.81-20.33,29.74-27.53c2.8,6.22-1.65,12.44,1.88,18.34
		c6.5-0.16,9.16-7.5,16.02-8.46c0.73,3.4,0.7,6.62-0.66,10.04c-5.16,13.01-8.57,26.56-11.12,40.28
		c-1.92,10.35-4.31,20.68-1.99,31.51c1.15,5.4,0.2,11.24,0.2,16.74c-4.28,2.15-6.8-2.49-11.01-2.16
		c-1.55,5.06-1.37,10.29-0.14,15.37c2.12,8.69,3.51,17.59,7.11,25.89c0.49,1.13,0.25,2.58,0.35,3.88l0.17-0.18
		c-2.86,0.93-4.66-2.58-7.72-1.7c-1.23,0.42-1.98,1.66-1.82,2.98c3,24.7,10.52,47.86,23.85,68.97c1.76,2.79,4.02,5.29,6.23,7.78
		c6.88,7.75,10.39,17.6,16.37,25.94c5.83,8.13,11.51,16.24,19.13,22.92c4.73,4.15,8.71,9.14,13.04,13.75
		c8.91,9.49,18.96,17.69,29.29,25.57c1.3,0.99,2.87,1.71,3.48,3.52c0.17,2.25-1.63,3.42-3,4.8c-1.15,1.17-2.43,2.23-3.51,3.2
		c-5.27,0-10.26,0.02-15.25-0.01c-3.03-0.02-5.92,0.24-8.67,1.8c-2.25,1.27-6.24,1.41-6.36,4.05c-0.2,4.43-3.66,7.77-2.03,13.07
		c3.78,12.28,9.57,23.24,17.88,32.79c10.15,11.67,19.29,24.48,34.45,31.94c-9.3,4.28-17.83,5.62-26.93,2.93
		c-5.01-1.49-10.02-3.88-15.39-1.85c-2.35,1.94-3.14,4.56-3.21,7.2c-0.21,7.99-0.17,15.99-0.18,23.98c0,1.68,0.39,3.24,1.44,4.67
		c0.74,1.02,1.87,2.58,1.55,3.41c-1.77,4.62,0.22,8.59,1.01,12.98c0.89,4.97,2.68,9.48,4.24,14.11c1.46,4.35,3.28,8.61,5.23,12.78
		c6.07,12.98,13.93,24.92,21.73,36.89c0.89,1.36,1.58,2.86,2.22,4.05c-1.59,3.98-4.36,4.49-7.47,3.25
		c-10.43-4.17-20.98-8.17-30.18-14.8c-6.46-4.65-12.89-9.33-17.91-15.72c-2.61-3.31-6.04-5.98-9.12-8.95
		c-2.63,2.15-2.1,5.73-5.79,6.76c-2.26,0.63,2.87,5.84-2.2,6.99c1,6.46-5.73,10.47-5.5,16.34c0.22,5.8-5,10.8-1.99,16.78
		c-2.33,5.3-0.61,11.92-5.4,16.45c-0.62,0.59-1.26,1.7-1.14,2.46c1.38,9.25-3.32,18-2.07,27.26c1.23,9.13-1.34,18.64,2.74,27.49
		c0.78,1.69,0.24,3.13-0.49,4.71c-1.18,2.55-1.73,5.09,1.99,6.24c0.46,0.14,1.02,1.11,0.95,1.61c-0.53,3.6,0.4,6.53,1.82,10.01
		c1.34,3.29,4.06,7.7,3.25,10.48c-1.26,4.35,4.9,6.03,2.17,9.87c2.28,2.65,3.89,5.57,3.8,9.19c5.27-0.24,0.19,6.49,4.6,6.83
		c7.29,21.17,21.08,39.39,36.9,55.05c4.01,3.97,8.17,7.79,12.23,11.71c0.15,0.14-0.05,0.64-0.16,1.56
		c-19.75,1.77-36.65-6.26-52.79-16.25c-2.97,5.18-0.52,9.06,1.21,12.88c1.24,2.74,2.42,5.07,1.73,8.43
		c-0.64,3.12,0.23,6.53,0.82,9.84c3.57,20.29,7.25,40.64,4.12,61.33c-0.55,3.61,3.07,5.08,2.34,8.17l0.32-0.35
		c-5.04,3.61-9.45,7.24-8.93,14.68c0.15,2.17-2.04,6.44-3.79,7.7c-7.42,5.35-10.33,13.76-15.24,20.7
		c-7.16,10.1-14.75,19.72-24.32,27.54c-9.26,7.56-17.95,15.88-28.16,22.24c-3.94,2.45-8.07,4.58-12.07,6.94
		c-4.08,2.41-7.28,6.03-11.89,7.81c-4.31,1.66-8.35,4.08-12.38,6.4c-5.47,3.14-10.83,6.47-16.2,9.77
		c-11.04,6.78-22.12,13.51-33.08,20.42c-8.72,5.5-17.07,11.49-24.37,18.91c-3.48,3.54-7.54,6.53-11.51,9.54
		c-17.14,13.04-31.48,28.49-41.9,47.49c-3.51,6.4-7.75,12.4-11.47,18.7c-1.84,3.12-3.43,6.45-5.17,9.58
		c-10.96,19.74-13.32,40.83-11.14,62.82c0.33,3.3,0.08,6.66,0.09,9.99c0.03,11.47,3.36,21.59,11.57,29.54
		c3.41-0.22,3.84-4.07,6.74-4.35c0.87-0.07,1.34,0.32,1.29,1.19c-0.14,2.31-0.31,4.61-0.47,6.92L217.2,1335.21z M503.43,475.38
		c-0.21-0.57-0.32-1.55-0.66-1.64c-1.06-0.28-1.75,0.52-1.94,1.47c-0.08,0.42,0.31,1.24,0.69,1.39
		C502.55,477.02,503.2,476.44,503.43,475.38z M312.99,604.12c-0.2-0.23-0.4-0.45-0.6-0.68c-0.21,0.22-0.59,0.42-0.61,0.66
		c-0.08,0.87,0.3,1.21,0.87,0.86C312.86,604.83,312.88,604.41,312.99,604.12z"/>
	<path class="st0" d="M469,981.36c1.27-0.93,2.53-1.85,4.06-2.97c6.96,17.83,9.72,36.05,8.5,54.89c-0.62,9.6-2.17,19.13-1.99,28.81
		c0.1,4.93-0.69,9.88-2.63,14.56c-3.34,8.05-2.86,16.99-5.82,25.15c-6.88,18.98-16.31,36.22-31.76,49.86
		c-10.74,9.48-20.18,20.22-28.44,32.03c-15.48,22.13-29.68,45.12-41.13,69.48c-17.26,36.73-31.59,74.7-40.64,114.44
		c-1.99,8.74-4.05,17.48-5.57,26.31c-0.83,4.83-3.23,7.65-7.82,9.25c-14.41-15.9-15.9-37.27-22.34-55.78
		c-3.89-0.31-5.26,1.17-5.75,3.22c-3.3,13.84-10.4,26.7-10.03,41.07c-3.62,1.7-4.9-0.86-6.17-2.44c-5.8-7.28-11.5-14.64-17.02-22.14
		c-5.42-7.36-8.38-15.99-10.4-24.68c-3.16-13.58-5.96-27.32-4.99-41.45c0.11-1.65,0.09-3.35-0.13-4.99
		c-0.74-5.48-3.62-6.5-8.05-3.25c-7.13,5.22-11.86,12.51-17.11,19.36c-1.8,2.35-3.35,4.88-5.21,7.6c-1.06-0.93-2.2-1.44-2.33-2.13
		c-1.97-11.09-4.49-22.01-4.67-33.46c-0.4-25.21,6.59-47.84,21.14-68.25c4.06-5.7,7.7-11.64,11.11-17.75
		c8.06-14.43,18.69-26.41,32.45-35.94c12-8.3,22.97-18.09,34.58-26.98c16.11-12.34,33.2-23.27,50.42-33.96
		c9.04-5.61,18.39-10.7,27.64-15.97c18.29-10.43,34.79-23.27,50.02-37.71c6.75-6.41,11.96-14.22,16.99-22.08
		c4.83-7.56,10.15-14.82,14.67-22.56c3.97-6.79,8.03-13.69,8.7-21.86L469,981.36z"/>
	<path class="st0" d="M216.9,1335.55c0.69-0.68,1.78-1.26,2-2.07c2.13-7.74,5.9-14.67,10.02-21.43c2.51-0.17,2.63,1.69,2.71,3.24
		c0.53,11.06,3.49,21.65,6.54,32.17c3.27,11.25,8.43,21.55,15.87,30.82c7.09,8.83,13.76,17.96,22.06,25.74
		c1.7,1.59,3.26,3.46,6.62,2.42c4.3-11.85,2.06-25.4,7.92-37.5c2,0.91,2.41,3.1,3.03,5.17c4.55,15.24,12.19,28.73,22.95,40.44
		c1.64,1.78,2.83,3.69,2.59,6.23c-0.69,7.27,0.11,14.55-0.95,21.9c-1.08,7.5-0.86,15.34-0.04,22.91c0.54,4.98,0.86,9.92,0.84,14.89
		c-0.06,17.72,2.75,34.93,7.17,52.13c3.52,13.72,8.21,26.64,15.91,38.48c11.41,17.54,24.74,33.02,44.51,41.62
		c1.18,0.51,2.22,1.35,3.12,1.91c0.56,2.76-1.29,4.25-2.66,5.12c-8.15,5.16-16.87,10.08-26.47,10.58
		c-12.55,0.65-25.23,0.78-37.75-2.12c-17.99-4.17-34.81-10.99-50.51-20.65c-10.75-6.61-22.06-12.46-31.51-20.91
		c-13.19-11.78-24.3-25.52-34.64-39.77c-21.8-30.02-36.76-63.18-43.74-99.72c-2.12-11.08-3.59-22.29-5.07-33.48
		c-0.61-4.63-1.49-9.12-3.27-13.93c-4.59,0.82-6.44,4.5-8.52,7.69c-11.47,17.67-21.26,36.09-24.72,57.24
		c-0.14,0.86-0.95,1.62-2.23,3.7c-1.06-4.3-2.26-7.49-2.56-10.75c-0.84-9.25-2.34-18.43-2.38-27.79
		c-0.09-19.64,0.07-39.19,3.82-58.62c5.24-27.15,11.11-54.07,23.96-78.86c5.36-10.34,12.06-19.87,18.76-29.38
		c0.25-0.35,1.2-0.21,2.41-0.38c0.33,5.88,0.53,11.73,1.01,17.56c1.28,15.6,6.25,29.86,15.89,42.34
		c6.7,8.67,12.57,18.05,21.68,24.62c5.03,3.63,5.67,4.05,13.09,5.25c1.19-5.66,3.72-11.06,2.84-17.15
		C217.2,1335.21,216.9,1335.55,216.9,1335.55z"/>
	<path class="st0" d="M704.66,242.03c7.38,1.82,11.19,7.1,16.98,8.94c2.94,0.94,5.8,4.01,8.8,0.04c0.74-0.99,1.87-0.45,2.78-0.15
		c5.21,1.74,10.56,0.79,14.82,1.09c-2.71,0.54-6.7-0.73-11.69,1.32c7.12,3.55,13.69,3.43,20.42,3.29c-0.53,1.22-0.74,2.24-1.03,2.27
		c-8.6,0.83-14.94,6.63-22.07,10.43c-14.73,7.85-30.01,14.21-45.73,19.65c-4.05,1.41-8.1,2.83-12.1,4.39
		c-6.32,2.48-13.08,1.56-19.59,2.42c-0.65,3.49,1.63,4.52,3.96,4.65c4.91,0.28,9.85,0.08,15.26,0.08c1.32,5.24,4.29,10.47,2.23,16.7
		c-0.71,2.14,0.38,4.54,1.4,6.71c0.95,2.03,2.49,3.96,2.3,5.9c-1.35,2.24-2.61,2.52-4.45,1.71c-14.89-6.58-29.3-13.87-40.11-26.58
		c-9.8-11.52-17.35-24.26-21.17-39.04c-0.89-3.46-2.19-6.82-3.7-11.47c-3.11,3.53-2.19,6.27-1.59,8.92
		c1.97,8.71-0.98,16.83-2.21,25.2c-3.88-0.27-3.99-2.9-4.7-4.96c-6.09-17.59-7.3-35.76-6.26-54.16c0.24-4.32,1.24-8.6-2.18-12.28
		c-1.25-1.34-0.75-3.04-0.3-4.71c0.6-2.22,1.26-4.5,0.61-7.07c-2.81-0.47-5.35-1.47-6.52-4.5c-2.14-5.53-4.98-10.68-6.35-16.65
		c-2.75-12-4.9-24.07-6.64-36.23c-0.46-3.19-1.57-6.53,0.07-9.83c2.87,0,5.69,0,8.34,0c1.15,2.77-2.33,3.52-0.52,8.07
		c4.59,6.55,13.79,9.19,23.42,10.33c13.97,1.66,27.89,1.43,41.35-3.66c1.68-0.63,3.46-2.34,5.91-0.66
		c-9.48,9.43-20.28,16.38-34.69,18.58c5.73,6.3,10.57,2.6,15.5,1.98c31.29,29.7,70.06,35.21,111.32,33.7
		c2.13-2.02,4.41-4.19,6.8-6.45c2.17,5.53-0.54,9.18-4,12.34c-7.63,6.97-15.9,13.12-24.85,18.31
		C718.47,234.17,712.41,237.6,704.66,242.03z"/>
	<path class="st0" d="M678.87,336.49c0.55-0.68,0.76-1.11,0.91-1.09c1.12,0.15,2.23,0.38,3.35,0.59
		C681.87,335.95,681.04,337.66,678.87,336.49z"/>
	<path class="st0" d="M333.25,356.93c0.55,0.37,1.11,0.74,1.66,1.11c-0.24,0.03-0.64,0.15-0.7,0.06c-0.28-0.45-0.48-0.96-0.7-1.44
		L333.25,356.93z"/>
	<path class="st0" d="M423.32,303.03c0.88,0.59,1.75,1.17,2.63,1.76c0,0-0.25-0.24-0.25-0.24c-1.26,0.13-2.12-0.29-2.2-1.69
		C423.49,302.86,423.32,303.03,423.32,303.03z"/>
	<path class="st0" d="M425.94,304.79c-1.05,0.83-1.04-0.83-0.36,0.3c0.24,0.39,0.65-0.02,0.11-0.54L425.94,304.79z"/>
	<polygon class="st0" points="277.59,400.84 277.17,400.67 277.36,401.07 	"/>
	<path class="st0" d="M309.71,613.09c-0.22,0.2-0.42,0.45-0.68,0.59c-0.11,0.06-0.34-0.12-0.52-0.19c0.48-0.04,0.97-0.08,1.45-0.12
		L309.71,613.09z"/>
</g>
</svg>
