<?xml version="1.0" encoding="utf-8"?>
<!-- Generator: Adobe Illustrator 24.1.2, SVG Export Plug-In . SVG Version: 6.00 Build 0)  -->
<svg version="1.1" id="Layer_1" xmlns="http://www.w3.org/2000/svg" xmlns:xlink="http://www.w3.org/1999/xlink" x="0px" y="0px"
	 viewBox="0 0 218.33 281.88" enable-background="new 0 0 218.33 281.88" xml:space="preserve">
<g>
	<path d="M19.75,137.05c1.33-1.04,2.89-0.31,4.29-0.57c1.57-0.29,3.16-0.49,4.72-0.81c1.48-0.3,2.94-0.72,4.41-1.06
		c1.55-0.36,3.1-0.77,4.64-1.15c1.44-0.35,2.86-0.96,4.05-1.77c0.2-0.7-0.07-1.22-0.21-1.74c-0.91-3.4-1.31-6.85-1.55-10.36
		c-0.28-4.2-0.37-8.44-1.29-12.59c-0.37-1.66,0.19-3.16,1.02-4.57c0.37-0.62,0.82-1.18,1.19-1.8c0.5-0.85,0.69-1.73,0.43-2.75
		c-1.52-6.08-0.24-11.86,2.04-17.51c0.09-0.22,0.18-0.45,0.31-0.65c0.56-0.87-0.01-2.1,0.93-2.87c0.8-0.65,1.54-1.38,2.43-2.19
		c-1.01-1.53-1.86-2.94-2.83-4.28c-2.21-3.04-4.32-6.14-5.95-9.55c-0.24-0.51-0.41-1.14-0.92-1.37c-2.28-1.02-3.38-3.13-4.6-5.05
		c-1.71-2.69-3.54-5.31-4.94-8.2c-1.25-2.59-2.19-5.31-3.31-7.95c-0.83-1.97-0.16-3.32,1.78-4.6c10.17-6.75,21.27-11.63,32.54-16.17
		c3.03-1.22,6.04-2.49,9.09-3.67c1.93-0.75,3.94-1.31,5.87-2.08c1.81-0.72,3.27-0.29,4.56,1.03c0.89,0.92,1.73,1.88,2.59,2.82
		c0.25,0.27,0.49,0.56,0.76,0.86c0.75-0.74,0.93-1.63,1.29-2.41c1.57-3.46,4.38-5.63,7.56-7.42c1.59-0.9,3.38-1.46,4.72-2.79
		c0.2-0.2,0.58-0.3,0.88-0.32c1.14-0.08,2.13-0.52,3.14-1.03c0.95-0.49,2.02-0.43,3.06-0.3c0.71,0.09,1.41,0.25,2.19,0.38
		c1.22-1.31,2.67-1.96,4.5-1.45c0.4,0.11,0.77-0.11,1.13-0.31c2.23-1.23,4.5-0.88,6.72-0.04c2.46,0.93,4.9,1.95,7.3,3.02
		c2.53,1.13,4.22,3.09,5.2,5.67c0.11,0.29,0.26,0.57,0.4,0.84c0.03,0.06,0.13,0.08,0.34,0.21c1.44-0.58,3.02-1.11,4.51-1.83
		c4.69-2.25,9.71-3.26,14.81-3.53c2.86-0.15,5.65,1.05,7.77,3.22c0.98,1.01,1.39,2.3,1.4,3.71c0.02,2.4-0.4,4.75-0.75,7.11
		c-0.04,0.3-0.07,0.61-0.1,0.97c2.07,0.92,4.46,0.91,6,2.85c1.43,1.81,1.97,3.78,1.7,6.1c1.08,0.5,2.17,0.67,3.25,0.86
		c5.42,0.93,10.85,1.83,16.28,2.78c5.34,0.93,10.67,1.89,15.95,3.16c4.73,1.14,9.49,2.13,14.24,3.17c0.62,0.14,1.26,0.22,1.92,0.67
		c0.8,3.16,0.75,6.49,1.12,9.62c-0.58,0.64-1.06,0.33-1.51,0.27c-1.74-0.22-3.47-0.46-5.21-0.7c-0.63-0.09-1.27-0.16-1.88-0.34
		c-1-0.28-2.07-0.48-2.93-1c-1.08-0.66-1.97,0.25-2.98,0.04c-2.19-0.44-4.4-0.76-6.61-1.1c-8.2-1.27-16.25-3.22-24.37-4.9
		c-2.57-0.53-5.15-1.05-7.73-1.56c-0.31-0.06-0.64-0.08-0.95-0.04c-0.23,0.03-0.46,0.21-0.43,0.48c0.02,0.21,0.09,0.47,0.23,0.61
		c0.16,0.15,0.42,0.22,0.65,0.28c3.58,0.82,7.16,1.62,10.74,2.46c5.36,1.25,10.7,2.53,16.06,3.77c3.81,0.88,7.63,1.67,11.43,2.55
		c4.74,1.1,9.47,2.25,14.2,3.39c0.21,0.05,0.38,0.27,0.52,0.37c0.36,0.67-0.49,0.75-0.49,1.22c0.18,0.12,0.37,0.24,0.56,0.37
		c-0.03,0.13-0.03,0.3-0.11,0.4c-1.52,1.95-3.02,3.91-4.59,5.82c-0.84,1.02-1.88,1.71-3.33,1.34c-0.46-0.11-0.96-0.04-1.42-0.15
		c-2.65-0.63-5.35-1.02-8.04-1.17c-3.71-0.2-7.2-1.28-10.73-2.21c-8.64-2.29-17.27-4.62-25.9-6.92c-0.3-0.08-0.63-0.08-1.04-0.14
		c-0.48,0.74-0.55,1.62-0.76,2.43c-0.71,2.64-2.33,3.64-4.98,3.12c-2.1-0.41-4.21-0.82-6.51-0.89c-0.42,1.5-1.35,2.64-2.42,3.5
		c0,0.68,0.34,0.85,0.73,0.99c1.6,0.57,2.97,1.56,4.37,2.47c1.37,0.88,2.19,2.33,2.84,3.77c1.02,2.25,1.82,4.58,2.23,7.05
		c0.35,2.11,1.17,4.12,1.53,6.25c0.2,1.19,0.95,2.15,1.92,2.95c1.29,1.06,2.52,2.21,3.76,3.33c0.29,0.27,0.59,0.56,0.78,0.91
		c1.76,3.27,3.88,6.36,4.56,10.16c0.49,2.75,0,5.4-0.39,8.07c-0.17,1.18-0.5,2.34-0.7,3.52c-0.27,1.55-0.09,2.96,1,4.26
		c1.76,2.1,3.02,4.56,3.72,7.18c1.21,4.56,0.6,9-1.49,13.24c-1.41,2.86-2.75,5.76-3.9,8.74c-0.68,1.75-0.94,3.49-0.49,5.38
		c0.37,1.54,0.6,3.12,1.22,4.59c0.22,0.54,0.31,1.07,0.35,1.63c0.23,3.1,1.06,6.12,1.2,9.24c0.06,1.44-0.07,2.86-0.27,4.24
		c-0.27,1.87-1.76,3.03-3.31,3.81c-1.5,0.75-2.98,1.41-4.09,2.74c-0.93,1.11-2.3,1.39-3.64,1.64c-0.7,0.13-1.43,0.1-2.14,0.23
		c-1.32,0.24-2.41,1.4-2.6,2.73c-0.3,2.21-0.61,4.42-0.84,6.64c-0.08,0.78-0.03,1.6,0.12,2.38c0.33,1.72,0.67,3.45,1.17,5.13
		c0.97,3.22,0.2,6.01-1.46,8.86c-3.21,5.55-7.1,10.61-10.74,15.85c-2.28,3.28-4.47,6.61-6.45,10.09c-0.71,1.25-0.68,2.24,0.13,3.3
		c2.08,2.73,4.17,5.45,6.29,8.16c0.64,0.82,1.42,1.52,2.04,2.35c1.53,2.05,3.76,3.18,5.84,4.5c0.64,0.41,1.37,0.36,2.09,0.38
		c1.51,0.06,3.03,0.08,4.54,0.16c2.84,0.15,4.93,1.59,6.45,3.65c1.37,1.87,3.11,2.92,5.14,3.65c2.31,0.83,4.1,2.36,5.97,3.88
		c2.89,2.35,4.31,5.45,5.22,8.9c0.12,0.46,0.28,0.92,0.31,1.39c0.07,1.13-0.37,1.77-1.46,1.74c-0.96-0.03-1.65,0.24-2.37,0.81
		c-0.87,0.68-1.93,0.7-2.98,0.45c-3.98-0.95-8.03-1.21-12.09-1.45c-0.24-0.01-0.5-0.12-0.7-0.05c-3.87,1.23-7.73,0.3-11.59-0.01
		c-0.92-0.07-1.73-0.28-2.38-0.94c-0.86-0.87-1.93-0.94-2.87-0.41c-3.75,2.08-7.26,0.72-10.77-0.63c-0.81-0.31-1.53-0.88-2.33-1.23
		c-1.54-0.69-2.58-1.9-3.35-3.31c-0.95-1.75-1.75-3.59-2.61-5.39c-0.07-0.14-0.06-0.32-0.14-0.46c-1.74-3.13-3.65-6.19-6.05-8.84
		c-2.13-2.35-4.5-4.5-7.47-5.88c-2.46-1.14-3.41-3.49-4.14-5.88c-0.38-1.25-0.04-2.54,0.45-3.74c0.55-1.33,1.25-2.59,2.04-3.79
		c2.58-3.94,2.37-8.16,1.13-12.42c-0.6-2.06-1.6-4.01-1.96-6.14c-0.49-2.9-1.08-5.81-0.26-8.76c1.07-3.82,2.94-7.05,6.41-9.18
		c0.4-0.25,0.88-0.41,1.12-1.08c-6.42-3.37-10-9.16-12.71-15.84c-1.68,1.31-2.38,3.05-3.44,4.48c-1.15,1.53-2.13,3.19-3.26,4.73
		c-1.08,1.48-2.25,2.88-3.4,4.34c0.7,2.89,1.43,5.74,2.06,8.61c0.31,1.39,0.67,2.84,0.58,4.24c-0.14,2.16-0.94,4.2-2.19,5.99
		c-2.34,3.36-5.06,6.42-8.26,8.96c-1.79,1.42-2.36,2.9-1.58,4.98c0.36,0.97,0.66,1.96,1.03,2.93c0.8,2.07,0.84,4.08-0.59,5.88
		c-1.2,1.51-1.68,3.24-1.69,5.1c0,2.05-0.72,4.09-0.1,6.15c0.5,1.67,0.95,3.36,2.03,4.85c0.36,0,0.67,0,0.98,0
		c3.4-0.05,5.65,1.65,6.68,4.77c0.57,1.72,1.45,3.11,2.57,4.49c1.8,2.2,2.71,4.85,2.75,7.71c0.04,2.79-0.04,5.59-0.16,8.39
		c-0.06,1.51-0.31,3.01-0.51,4.51c-0.05,0.38-0.22,0.77-0.43,1.11c-0.27,0.44-0.74,0.67-1.23,0.42c-0.63-0.33-1.32-0.66-1.79-1.17
		c-2.01-2.18-4.69-3.61-6.42-6.06c-1.23-0.15-2.44-0.03-3.5-0.62c-1.9,1.19-3.23,2.59-3.87,4.75c-0.56,1.89-1.35,3.78-3,5.09
		c-0.31,0.24-0.64,0.45-0.99,0.68c-1.69-1-2.68-2.57-3.81-4c-0.45-0.56-0.9-1.14-1.22-1.78c-0.84-1.73-2.43-2.43-4.08-3.05
		c-1.23-0.47-3.71,0.21-4.49,1.32c-1.18,1.66-2.9,2.7-4.43,3.95c-1.11,0.91-1.99,0.66-2.85-0.5c-1.28-1.72-1.78-3.72-1.99-5.81
		c-0.28-2.79-1.49-3.47-3.94-2.01c-1.57,0.94-3,2.11-4.48,3.19c-0.26,0.19-0.46,0.45-0.72,0.63c-1.83,1.25-2.74,0.92-3.6-0.85
		c-1.02-2.07-1.38-4.15-1.16-6.46c0.4-4.34,2.08-7.99,5.31-10.91c1.23-1.11,1.94-2.5,2.52-4.01c0.54-1.42,1.19-2.78,2.1-4.02
		c0.99-1.36,2.18-2.07,3.89-1.73c0.3,0.06,0.63,0.04,0.98,0.06c0.25-0.34,0.54-0.63,0.71-0.98c2.65-5.28,5.35-10.56,5.91-16.57
		c0.27-2.91,0.86-5.83,0.28-8.78c-0.37-1.84-1.06-3.53-2.46-4.82c-0.75-0.69-1.09-1.78-2.3-2.2c-0.18,1.36-0.3,2.68-0.54,3.97
		c-0.86,4.63-2.51,8.89-5.77,12.41c-1.96,2.11-4.07,4.06-6.35,5.8c-6.03,4.58-12.94,7.15-20.27,8.75c-2.2,0.48-4.39,0.74-6.65,0.38
		c-0.99-0.16-2.02-0.03-3.1-0.03c0.63-2.73,1.24-5.4,1.88-8.17c-1.43,0.13-1.48,1.64-2.35,2.03c-0.43-0.09-0.46-0.35-0.49-0.57
		c-0.33-3.25-0.5-6.52-1.02-9.74c-0.91-5.66-1.83-11.32-4.47-16.56c-1.62-3.23-2.49-6.73-2.39-10.4c0.01-0.45,0.14-0.96-0.48-1.49
		c-0.62,1.75-0.43,3.5-0.46,5.21c-0.83-0.08-0.77-0.68-0.95-1.08c-1.62-3.44-2.41-7.01-2.48-10.86c-0.08-4.8,0.79-9.37,2.24-13.87
		c1.24-3.88,3.57-7.14,6.44-9.97c1.13-1.12,1.61-2.26,1.49-3.8c-0.09-1.18-0.02-2.38-0.02-3.55c-1.79-1.15-3.99-1.06-5.47-2.46
		c0.35-0.74,1.12-0.22,1.5-0.74c-0.16-0.13-0.31-0.32-0.5-0.39c-1.28-0.44-2.54-0.95-3.73-1.62c-0.77-0.43-1.5-0.91-2.2-1.66
		c0.58-0.58,1.3-0.56,1.96-0.56c1.96-0.01,3.76-0.6,5.57-1.26c3.46-1.26,6.66-3.09,9.97-4.66c2.62-1.24,5.29-2.24,8.18-2.59
		c0.3-0.04,0.64-0.08,0.88-0.67c-0.7-0.7-1.48-1.46-2.24-2.25c-0.61-0.63-1.24-1.25-1.77-1.95c-0.43-0.57-0.73-1.24-1.08-1.86
		C21.11,137.73,20.07,137.99,19.75,137.05z M86.48,112.39c-1.88-2.37-3.55-4.47-5.48-6.91c-1.22,2.85-3.52,4.55-5.05,6.79
		c0.45,2.2,0.89,4.29,1.35,6.5C80.11,116.3,83.08,114.2,86.48,112.39z M141.22,135.97c-0.36-1.99-1.22-3.52-1.84-5.11
		c-1.08-2.73-1.35-5.51-0.95-8.41c0.27-1.98-0.12-3.94-0.69-5.84c-0.26-0.88-0.93-1.19-1.92-1.1c-0.32,2.32-0.51,4.64-1.38,6.76
		c-0.54,1.33-0.33,2.49,0.13,3.66C136.04,129.64,138.07,133,141.22,135.97z"/>
	<path fill="#1A1A1A" d="M134.84,230.58c0.35,0.47,0.65,0.75,0.82,1.1c1.6,3.27,3.99,5.95,6.37,8.64c0.32,0.36,0.74,0.64,1,1.03
		c1.36,2.11,2.97,3.95,5.17,5.23c0.19,0.11,0.35,0.33,0.44,0.54c0.62,1.47,1.85,1.84,3.26,1.72c2-0.17,3.98-0.1,5.98,0.01
		c1.18,0.06,2.17,0.42,3.1,1.08c0.39,0.28,0.74,0.63,1.16,0.85c2.26,1.19,2.84,3.08,2.29,5.61c-0.9,0.13-1.61-0.12-2.08-1
		c-0.3-0.56-0.61-1.12-0.92-1.68c-1.22-2.22-3.23-3.32-5.61-3.64c-2.52-0.34-5.07-0.57-7.6,0.16c-0.99,0.29-2.05,0.32-3.07,0.52
		c-0.59,0.12-1.28,0.09-1.62,0.81c1.54,0,3.05,0.13,4.52-0.04c1.19-0.14,2.4-0.1,3.57-0.32c2.32-0.43,4.42,0.41,6.56,1.01
		c0.35,0.1,0.72,0.38,0.94,0.68c2.02,2.79,3.32,5.79,2.69,9.36c-0.27,1.49-0.5,2.99-0.7,4.49c-0.09,0.65-0.31,1.23-0.58,1.81
		c-0.42,0.87-1.05,1.39-2.06,1.35c-0.8-0.03-1.6-0.05-2.39-0.09c-0.8-0.04-1.6-0.21-2.39-0.14c-3.46,0.3-6.24-0.96-8.5-3.51
		c-0.51-0.57-1.01-0.75-1.59-0.11c-0.21,0.73,0.84,0.96,0.61,1.75c-1.52,0.88-3.17,1.13-4.98,0.9c-2.72-0.34-5.33-0.83-7.69-2.39
		c-0.91-0.6-1.65-1.24-2.14-2.17c-1.16-2.18-2.23-4.41-3.47-6.55c-1.44-2.48-2.98-4.91-4.55-7.32c-1.05-1.62-2.49-2.91-3.96-4.15
		c-1.59-1.34-3.26-2.57-5.05-3.63c-1.06-0.62-1.86-1.48-2.6-2.44c-1.56-2.05-1.81-4.22-0.66-6.51c0.53-1.07,1.18-2.08,1.77-3.11
		c0.33,0.14,0.58,0.25,0.83,0.36c0.13-0.16,0.29-0.27,0.31-0.41c0.3-1.89,0.66-3.77,0.84-5.66c0.27-2.83-0.26-5.57-1.22-8.23
		c-1.08-3.01-1.98-6.05-2.23-9.28c-0.43-5.69,3.16-10.91,7.41-13.32c1.21-0.68,2.39-0.34,3.49-0.16c2.27,0.36,4.59,0.44,6.79,1.22
		c0.97,0.34,2.01,0.47,2.86,1.13c0.59,0.46,1.33,0.53,2.03,0.65c0.55,0.09,1.11-0.03,1.39-0.64c-0.09-0.63-0.6-0.71-1.05-0.81
		c-2.42-0.52-4.83-1.13-7.27-1.51c-3.94-0.62-7.53-2.11-10.84-4.24c-1.82-1.17-3.26-2.86-4.48-4.63c-1.86-2.69-3.55-5.49-4.76-8.56
		c-0.39-0.99-0.31-1.77,0.2-2.7c2.08-3.78,3.95-7.66,5.7-11.61c1.66-3.74,2.96-7.57,3.38-11.55c0.44-0.64,1.02-0.6,1.57-0.7
		c1.74-0.32,3.4-0.86,4.87-1.88c0.98-0.68,1.76-1.41,2.28-2.62c0.71-1.67,1.85-3.17,3.11-4.52c1.36-1.46,2.75-2.9,4.11-4.36
		c0.98-1.05,1.84-2.2,2.6-3.43c0.58-0.94,1.18-1.88,1.96-3.13c0.62,1.45,1.13,2.63,1.65,3.83c0.3-0.18,0.55-0.33,0.8-0.49
		c4.88,5.16,8.53,11.14,11.37,17.6c1.61,3.66,2.52,7.57,3.31,11.48c0.71,3.52,1.4,7.04,1.97,10.58c0.66,4.13,0.34,8.24-0.72,12.28
		c-0.28,1.09-0.31,2.07,0.03,3.21c0.7,2.36,1.12,4.81,1.63,7.22c0.39,1.88,0.05,3.66-0.89,5.31c-0.63,1.11-1.37,2.16-2.04,3.25
		c-4.05,6.6-8.76,12.75-13.05,19.19C137.29,225.61,136.09,228.03,134.84,230.58z M134.6,202.9c-1.16-0.49-0.32-1.94-1.59-2.59
		c-0.15,1.2-0.18,2.37-0.62,3.47c-1.69,4.3-3.41,8.59-5.58,12.69c-1.41,2.66-2.6,5.41-3.16,8.42
		C127.26,217.65,130.86,210.41,134.6,202.9z M120.94,239.21c-0.38-0.53-0.72-1.12-1.17-1.62c-1.01-1.14-1.77-2.43-2.38-3.82
		c-0.62-1.41-0.98-2.85-0.39-4.38c0.13-0.35,0.21-0.76-0.23-1.02c-1.33,1.26-1.63,2.86-0.94,4.67c0.92,2.43,2.6,4.32,4.33,6.18
		C120.31,239.36,120.55,239.48,120.94,239.21z"/>
	<path fill="#1A1A1A" d="M53.62,263.41c0.85-2.81,1.7-5.63,2.55-8.44c0.44-1.45,0.86-2.91,1.31-4.35c0.14-0.45,0.3-0.92,0.54-1.32
		c0.87-1.42,1.57-1.72,3.22-1.36c1.17,0.26,2.32,0.58,3.49,0.83c0.52,0.11,1.08,0.27,1.56-0.15c-0.01-0.09,0-0.22-0.04-0.24
		c-2-1.26-4.27-1.62-6.54-1.98c-0.77-0.12-1.33,0.41-1.87,0.77c-0.7-0.41-1.31-0.76-1.95-1.13c0.05-0.26,0.02-0.59,0.16-0.69
		c1.13-0.83,1.3-2.13,1.75-3.33c0.93-2.46,2.06-4.85,2.99-7.3c0.71-1.87,1.1-3.83,1.05-5.85c-0.01-0.56-0.1-1.18,0.1-1.66
		c0.75-1.85,0.48-3.78,0.5-5.66c0.53-0.54,0.78,0.39,1.28,0.17c0-0.2,0.08-0.47-0.01-0.66c-1.21-2.43-2.33-4.89-4.06-7.04
		c-2.46-3.04-5.08-5.96-7.22-9.26c-0.3-0.47-0.62-0.93-0.9-1.42c-1.15-2.03-1.57-4.12-0.72-6.41c0.64-1.72,1.07-3.53,1.95-5.14
		c0.99-1.79,1.1-3.77,1.56-5.66c-0.92-0.35-0.72,0.84-1.53,0.67c-0.6-1.63-0.92-3.52-1.82-5.2c-1.1-2.04-1.9-4.22-2.69-6.4
		c-0.54-1.5-1.05-3.02-1.54-4.54c-0.94-2.88-1.02-5.78-0.31-8.73c0.54-2.24,0.92-4.53,2.16-6.77c2.15,3.92,3.55,7.93,4.08,12.2
		c0.37,3.04,1.16,5.95,2.17,8.81c0.46,1.29,1.07,2.48,2.07,3.47c1.07,1.07,1.69,2.47,2.77,3.57c1.8,1.84,3.94,2.59,6.3,1.93
		c1.3-0.36,2.29,0.66,3.48,0.2c1.02-0.39,1.99-0.99,3.21-0.55c0.61,0.21,1.23-0.12,1.69-0.66c1.09-1.3,2.3-2.32,4.1-2.66
		c1.45-0.27,3.55-3.43,3.41-4.89c-0.11-1.23-0.81-2.35-1.88-2.93c-1.13-0.61-1.52-1.52-1.84-2.61c-0.36-1.22-0.84-2.41-1.23-3.62
		c-0.18-0.57-0.35-1.18,0.04-1.76c0.74,0.29,0.64,0.92,0.74,1.44c0.41,2.19,1.24,4.14,3.23,5.37c0.47,0.29,0.63,0.65,0.67,1.17
		c0.05,0.61,0.38,1.05,1,1.21c0.79,0.21,1.19-0.37,1.55-0.88c0.61-0.87,0.84-1.9,0.86-2.95c0.05-1.92-0.03-3.82-0.48-5.71
		c-0.39-1.62-0.94-3.22-1.01-4.91c-0.02-0.54-0.28-0.91-0.65-1.23c-0.91-0.78-1.76-1.66-2.78-2.26c-3.1-1.84-5.75-4.31-8.79-6.21
		c-2.8-1.75-3.59-4.79-2.53-7.93c0.92-2.75,2.21-5.26,4-7.58c2.58-3.36,3.95-7.27,4.41-11.48c0.1-0.87,0.08-1.76,0.19-2.63
		c0.15-1.2,0.79-2.01,1.97-2.44c3.56-1.3,6.87-0.83,10.06,1.17c3.18,1.99,6.36,3.95,9.4,6.16c4.08,2.96,7.34,6.52,9.89,10.88
		c1.76,3.02,3.17,6.12,3.62,9.55c0.48,3.7,0.7,7.4-0.8,11.03c-1.59,3.84-3.03,7.79-5.19,11.32c-3.91,6.39-7.42,13.03-12.16,18.9
		c-1.68,2.08-3.72,3.72-5.7,5.45c-0.47,0.41-1.11,0.65-1.32,1.33c1.36-0.08,2.58-0.68,5.78-2.85c0.13,0.39,0.33,0.76,0.37,1.15
		c0.19,2.24,0.87,4.37,1.33,6.56c0.83,3.96,0.23,7.54-2.52,10.73c-2.52,2.92-5.21,5.61-8.22,8.01c-1.43,1.14-2.77,2.38-4.23,3.65
		c1.1,0.18,1.1,0.18,2.73-0.9c0.38,2.08,1.24,3.92,1.99,5.81c0.57,1.43,0.34,2.66-0.36,4.09c-2.49,5.08-3.6,10.38-1.48,15.92
		c0.22,0.59,0.65,1.12,0.35,1.9c-0.76,0.85-2.13,0.36-3,1.23c-2.89-2.46-6.19-1.76-9.42-1.29c-1.17,0.17-1.73,1.26-2.16,2.23
		c-0.88-0.18-0.28-1.15-0.97-1.31c-0.13,0.06-0.38,0.13-0.38,0.19c0.15,5.29-0.12,10.6,0.58,15.91c0.23-2.44,0.47-4.88,0.7-7.33
		c0.17-1.82,0.24-3.66,0.55-5.46c0.42-2.47,1.41-3.23,3.91-3.29c1.36-0.03,2.7-0.04,4.05,0.28c0.96,0.23,1.57,0.71,1.86,1.64
		c0.82,2.59,1.75,5.14,2.28,7.81c0.49,2.5,0.92,5.02,1.29,7.54c0.17,1.18,0.19,2.38,0.22,3.57c0.01,0.39-0.14,0.79-0.72,0.91
		c-0.16-1.56-0.37-3.11-0.48-4.67c-0.21-3.05-1.54-5.69-3-8.26c-1.2-2.11-4.3-2.35-5.99-0.56c-1.05,1.12-1.8,2.44-2.25,3.91
		c-0.28,0.92-0.53,1.84-0.86,2.74c-0.56,1.53-0.76,3.09-0.64,4.71c0.08,1.03,0.11,2.06,0.17,3.05c-0.54,0.36-0.83,0.11-0.94-0.31
		c-0.23-0.84-0.4-1.69-0.6-2.56c-1.41,0.31-0.28,2.78-2.26,2.49c-0.02-0.15-0.11-0.33-0.05-0.42c1.59-2.7,1.64-5.6,1.14-8.58
		c-0.3-1.8-0.31-3.65-1.01-5.39c-0.48-1.18-1.12-2.09-2.46-2.37c-0.91-0.19-1.67-0.07-2.49,0.45c-2.13,1.35-3.45,3.3-4.4,5.54
		c-1,2.35-1.89,4.75-2.44,7.32c-0.75,0.02-0.97-0.29-0.9-1c0.31-3.35,0.24-6.71,0.1-10.06c-0.02-0.55-0.03-1.13-0.17-1.66
		c-0.48-1.8-1.25-3.32-3.51-3.23c-0.13,0.01-0.27-0.15-0.49-0.29c0.6-1.46,1.46-2.77,2.37-4.07c0.58-0.82,1.38-1.14,2.3-0.94
		c1.38,0.29,2.84,0.4,4.08,1.26c0.03,1.02-0.37,1.89-0.73,2.76c-0.52,1.25-0.95,2.55-1.55,3.76
		C53.22,257.51,53.31,260.42,53.62,263.41z"/>
	<path fill="#1A1A1A" d="M15.83,242.41c1.3-3.01,4.05-4.68,6.38-7.17c-2.59,0.2-3.86,2.13-5.71,3.06c0.01-1.83,0.98-4.73,1.8-6.12
		c2.36-4,4.36-8.16,5.53-12.68c0.1-0.38,0.13-0.79,0.14-1.18c0.01-0.14-0.11-0.29-0.18-0.47c-0.83,0.52-0.96,1.44-1.26,2.22
		c-1.54,3.96-3.39,7.75-5.9,11.19c-0.59,0.81-1.1,1.73-2.14,2.39c-0.27-2.36,0.65-4.53,0.15-6.8c-1.26,0.41-0.54,1.88-1.42,2.61
		c-0.38-1.13-0.23-2.22-0.42-3.25c-0.56-2.97-1.38-5.88-1.81-8.88c-0.21-1.47-0.98-2.86-1.53-4.27c-1.04-2.67-2.41-5.21-2.97-8.06
		c-0.78-3.95-0.74-7.9-0.48-11.9c0.21-3.3,1.29-6.32,2.34-9.63c-2.24,2.43-4.62,9.36-5.73,16.43c-0.79-1.4-0.97-2.76-1.13-4.12
		c-0.82-6.76,0.37-13.21,3.07-19.4c0.87-2,2.24-3.68,3.64-5.32c2.7-3.17,5.66-6.08,9.06-8.51c0.26-0.19,0.54-0.35,0.63-0.95
		c-1.17-1.02-2.83-0.87-4.29-1.26c-1.53-0.41-3.12-0.63-4.71-1.46c0.99-0.48,2.13-0.27,2.81-1.05c-0.13-0.91-0.81-0.72-1.3-0.69
		c-2.23,0.12-4.23-0.71-6.24-1.48c-0.22-0.08-0.4-0.23-0.87-0.51c1.78-0.57,3.19-0.98,4.57-1.48c2.87-1.02,5.56-2.43,8.22-3.89
		c4.27-2.34,8.8-3.71,13.64-4.14c0.94-0.08,1.86-0.36,2.8-0.69c-1.86-0.52-3.93-0.51-5.45-1.69c-1.53-1.19-3.09-2.48-3.99-4.37
		c1.67-0.38,3.18,0.67,4.81,0.16c-0.82-0.97-0.82-0.97-2.61-1.57c2.98-0.92,5.78-1.3,8.55-1.8c2.85-0.52,5.46-1.66,8.13-2.96
		c1.67,6.33,3.87,12.34,4.84,18.67c0.22,1.43,0.2,2.84-0.19,4.27c-0.64,2.39-1.02,4.84-1.7,7.22c-0.8,2.82-0.38,5.53,0.31,8.26
		c0.58,2.33,1.51,4.54,2.42,6.76c1.21,2.95,2.56,5.85,3.31,8.97c0.5,2.06,0.5,4.07-0.21,6.11c-0.66,1.88-1.15,3.82-1.7,5.73
		c-0.63,2.19,0.14,4.09,1.34,5.85c1.26,1.84,2.61,3.62,3.95,5.42c0.45,0.61,0.65,1.25,0.65,2.01c-0.02,4.81-1.12,9.3-3.87,13.34
		c-3.54,5.2-8.16,9.06-13.76,11.95c-4.38,2.25-8.98,3.72-13.69,4.95c-2.35,0.61-4.74,0.64-7.14,0.5
		C16.32,242.7,16.13,242.54,15.83,242.41z"/>
	<path fill="#1A1A1A" d="M75.27,110.67c-1.76-2.37-3.09-4.68-5.09-6.44c-0.78-0.68-1.61-1.3-2.42-1.95
		c-0.18-0.15-0.36-0.3-0.72-0.05c0.31,0.72,0.96,1.18,1.5,1.71c4.23,4.09,6.84,9,7.45,14.87c0.36,3.46,0.01,6.87-1.63,10.01
		c-1.85,3.54-3.79,7.03-5.62,10.57c-1.58,3.07-1.73,6.4-1.73,9.76c1.81,0.71,3.03,1.98,4.44,2.97c0.98,0.69,1.94,1.41,2.91,2.11
		c0.38,0.28,0.9,0.47,0.9,1.03c0,0.78,0.37,0.52,0.87,0.5c0.4-0.01,0.82,0.43,1.21,0.7c0.52,0.37,0.98,0.84,1.53,1.15
		c2.35,1.36,3.76,3.28,4.17,6.03c0.21,1.4,0.8,2.73,0.99,4.17c0.23,1.8-0.04,3.44-0.82,5.37c-0.77-1.17-1.9-1.6-2.65-2.51
		c-0.99-1.21-1.58-2.58-1.77-4.12c-0.07-0.55,0.06-1.19-0.45-1.56c-1.66-1.18-2.63-2.98-4-4.42c-0.21-0.22-0.52-0.34-0.77-0.5
		c-0.68,0.42-0.22,0.9-0.09,1.27c0.57,1.74,1.15,3.48,1.83,5.19c0.71,1.78,0.67,3.41-0.55,4.95c-0.4,0.5-0.69,1.07-1.1,1.56
		c-1.04,1.25-2.26,2.1-3.94,2.47c-2.5,0.55-5.04,0.81-7.56,1.2c-0.95,0.15-1.88,0.31-2.82,0.5c-1.9,0.37-2.35,0.11-3.15-1.66
		c-1.46-3.23-2.24-6.63-2.43-10.17c-0.03-0.47-0.14-0.95-0.31-1.39c-1.13-2.9-2.01-5.88-3.21-8.76c-1.67-3.98-2.64-8.19-3.72-12.36
		c-0.74-2.86-1.43-5.74-2.47-8.51c-1.62-4.3-2.1-8.83-2.71-13.33c-0.45-3.31-0.69-6.64-1.08-10.5c1.52,2.08,2.02,4.22,3.64,5.73
		c0.29-0.97-0.18-1.66-0.5-2.37c-0.94-2.03-1.85-4.08-2.92-6.04c-1.01-1.85-0.86-3.42,0.41-5.1c1.27-1.67,2.52-3.29,4.47-4.23
		c0.41-0.2,0.89-0.38,1.11-1.05c-0.76-0.34-1.28,0.25-1.86,0.46c-0.66,0.24-1.2,0.8-2.1,0.69c-0.61-1.1-0.81-2.36-0.81-3.6
		c0.01-4.66,0.75-9.21,2.41-13.59c0.17-0.45,0.4-0.87,0.61-1.3c0.44-0.9,1.19-1.27,2.15-1.19c4.39,0.38,8.67,1.3,12.74,3.04
		c0.73,0.31,1.4,0.77,2.1,1.15c1.34,0.72,2.26,1.63,2.15,3.36c-0.06,0.82,0.33,1.67,0.56,2.74c0.62-1.64,0.61-3.21,1.44-4.61
		c0.89-0.08,1.72,0.04,2.56,0.32c4.16,1.4,8.33,2.78,12.49,4.19c0.45,0.15,0.85,0.45,1.29,0.63c1.65,0.69,2.37,2.02,2.03,3.66
		c-1.04,5-2.21,9.98-5.95,13.83C77.28,108.33,76.37,109.43,75.27,110.67z"/>
	<path fill="#1A1A1A" d="M138.82,116c2.3-0.11,4.11-0.7,6.17-1.51c-0.45,0.94-0.78,1.68-1.16,2.39c-0.52,0.95-0.62,1.9-0.02,3.07
		c1.28-2.02,2.53-3.91,2.75-6.3c2.4-1.51,4.62-3.17,6.33-5.44c2.22-2.95,3.48-6.28,3.87-9.9c0.11-1.06-0.31-2.19-0.54-3.28
		c-0.11-0.54-0.38-1.06-0.17-1.92c2.74-1.69,5.85-2.61,9.34-2.59c2.34,3.2,4.02,6.51,4.02,10.56c0.01,3.46-0.6,6.81-1.35,10.27
		c-1.33,0.55-2.69-0.59-4.04-0.19c-0.01,0.45,0.3,0.42,0.5,0.52c4.85,2.46,7.51,6.38,8.26,11.78c0.42,2.99,0.18,5.86-0.52,8.75
		c-0.29,1.17-0.7,2.27-1.25,3.35c-1.04,2.06-1.95,4.18-3.05,6.57c-1.01-1.81-0.92-3.84-2.22-5.56c0.08,4.34,1.3,8.26,1.38,12.41
		c-1.48,0.23-2.34-1.68-3.94-1.22c0.82,1.03,1.91,1.55,2.99,2.05c0.78,0.37,1.3,0.86,1.48,1.72c0.65,3.04,1.32,6.08,1.95,9.12
		c0.15,0.7,0.17,1.43-0.07,2.07c-1.73,1.53-3.79,1.19-5.75,1.05c-1.12-0.08-2.21-0.19-3.33,0.02c-0.54,0.1-1.13,0.08-1.67-0.02
		c-1.08-0.19-1.92-0.67-2.15-1.91c-0.16-0.86-0.49-1.68-0.78-2.51c-0.12-0.35-0.15-0.34-1.22-0.33c0.17,1.94,1.36,3.53,1.68,5.51
		c1.27-0.11,2.45-0.49,3.72,0.17c-0.34,1.95-0.36,3.99-0.48,6.03c-0.15,2.68-1.47,4.65-4.31,5.6c-0.33-1.68-0.35-3.34-0.54-4.95
		c-0.78-6.61-2.62-12.98-4.61-19.28c-0.87-2.76-1.97-5.52-3.61-8.04c-1.52-2.33-2.52-4.98-3.54-7.58c-0.79-2-1.6-4-2.33-6.03
		c-0.65-1.81-0.99-3.7-1.04-5.62C139.53,121.94,139.76,119.06,138.82,116z M156.18,143.7c0.12-0.2,0.26-0.38,0.34-0.58
		c0.09-0.26,0.43-0.49,0.15-0.82c-1.6-0.7-2.16-0.74-3.06-0.12c-0.64,0.43-1.24,0.92-0.89,1.9
		C154.68,142.31,154.68,142.31,156.18,143.7z M153.18,110.71c-0.05,0.06-0.12,0.11-0.14,0.18c-0.13,0.44-0.28,0.89,0.25,1.17
		c0.09,0.05,0.34-0.03,0.41-0.12c0.33-0.49,0.02-0.84-0.31-1.16C153.35,110.73,153.25,110.74,153.18,110.71z"/>
	<path fill="#1A1A1A" d="M194.76,35.29c0.12,3.43-0.04,6.65-0.57,10.08c-17.25-3.59-34.32-7.14-51.27-10.67
		c-0.59-0.65-0.51-1.33-0.44-1.94c0.27-2.1,0.27-4.3,1.75-6.29c8.46,1.23,16.86,2.94,25.31,4.36
		C177.92,32.23,186.31,33.59,194.76,35.29z M181.08,37.48c-0.37-0.34,0.01-0.96-0.57-1.22c-0.74,0.94-0.58,1.95-0.54,2.94
		c1.07,0.82,2.29,0.94,3.41,1.28c0.63,0.19,1.12-0.21,1.23-0.82c0.14-0.78,0.14-1.58,0.17-2.37c0-0.1-0.16-0.21-0.24-0.32
		c-0.56,0.07-0.41,0.85-1.12,0.94C182.73,37.78,181.88,37.63,181.08,37.48z M162.35,31.86c-0.76,1.12-1.24,2.22-1.17,3.56
		c1.58,0.26,3.1,0.51,4.6,0.76c0.71-1.56,0.71-1.56,0.61-2.95c-0.64-0.12-0.41,0.85-1.02,0.79
		C163.25,33.52,163.25,33.52,162.35,31.86z M149.7,30.25c-1.54,0.22-2.87-0.15-4.22-0.71c-0.26,0.84-0.52,1.57-0.4,2.44
		c1.33,0.55,2.61,1.18,4.13,0.73C149.74,32.04,149.77,31.27,149.7,30.25z"/>
	<path fill="#1A1A1A" d="M114.59,24.09c-1.16-4.49-3.69-7.81-4.42-11.87c-0.81,1.24-0.15,2.46-0.34,4.13
		c-1.42-3.88-2.22-7.51-4.04-11.21c-0.34,1.3-0.15,2.15-0.02,3.06c0.58,4.15,0.49,8.27-1.11,12.23c-0.08,0.19-0.28,0.33-0.6,0.69
		c-0.77-3.01-0.83-6.01-1.8-8.78c-0.17,0.03-0.34,0.06-0.51,0.09c0.2,2.17,0.39,4.33,0.6,6.58c-0.85-0.2-1.11-0.96-1.62-1.41
		c-0.53-0.47-1-1.03-1.43-1.61c-0.53-0.71-0.87-1.52-0.83-2.45c0.03-0.74-0.06-1.45-0.95-1.97c-0.3,1.23-0.84,2.34-0.42,3.62
		c0.1,0.3,0.13,0.63,0.12,0.94c-0.05,4.55,0.46,9.11-0.02,13.65c-0.52,4.99-1.34,9.95-2.57,14.82c-0.25,0.99-0.55,1.99-1.4,2.87
		c-0.79-2.57-1.08-5.09-1.56-7.58c-0.59-3.09-0.45-6.21-0.38-9.31c0.03-1.56,0.71-3.1,0.26-4.7c-0.04-0.14-0.15-0.25-0.22-0.38
		c-0.6,0.66-0.48,1.61-1.02,2.5c-0.27-0.91-0.27-1.7-0.09-2.43c0.57-2.3,0.46-4.79,1.95-6.83c0.13-0.18,0.29-0.5,0.22-0.66
		c-0.76-1.61-0.01-3.18,0.23-4.7c0.4-2.58,0.64-5.25,2.24-7.49c0.46-0.65,0.82-1.39,1.87-1.31c0.27,1.89-1.02,3.9,0.3,5.79
		c0.62-0.49,0.45-1.07,0.46-1.59c0.01-0.88,0.09-1.74,0.29-2.61c0.48-2.04,1.22-2.72,3.23-2.77c0.72-0.02,1.44-0.04,2.16,0.04
		c0.63,0.07,1.24,0.27,1.85,0.42c0.24-0.14,0.5-0.22,0.63-0.39c0.54-0.69,1-1.46,2.03-1.48c1.13-0.02,2.24,0.01,3.2,0.72
		c1.1,0.81,2.07,1.72,2.74,2.96c1.07,1.99,1.82,4.09,2.15,6.31c0.4,2.67,1.07,5.33,0.35,8.06c-0.14,0.54-0.13,1.12-0.32,1.64
		C115.55,22.35,115.17,22.95,114.59,24.09z"/>
	<path fill="#1A1A1A" d="M87.71,36.74c0.13,2.38-0.5,7.94-1.16,10.38c-1,0.82-2.36,0.31-3.26,0.95c-0.44,0-0.52-0.23-0.66-0.42
		c-1.43-2.14-2.27-2.5-4.58-1.61c-6.18,2.37-12.4,4.65-18.07,8.15c-0.61,0.38-1.19,0.8-1.8,1.2c-1.06,0.7-1.82,1.54-1.58,2.96
		c0.1,0.57-0.2,1.07-0.51,1.55c-0.26,0.39-0.5,0.82-0.29,1.34c0.4,0.97-0.05,1.66-0.75,2.31c-1.43,1.33-2.58,2.82-2.63,4.91
		c-0.01,0.54-0.29,1.08-0.42,1.62c-0.52,2.05-1.68,3.4-4.15,3.59c-3.44-4.41-6.52-9.18-9.03-14.19c0.51-0.91,1.24-1.06,1.88-1.36
		c1.73-0.8,3.59-1.33,5.08-2.6c0.24-0.2,0.55-0.33,0.85-0.44c4.65-1.71,9-4.1,13.53-6.08c7.52-3.3,15.06-6.57,22.58-9.88
		C84.42,38.38,86.04,37.55,87.71,36.74z"/>
	<path fill="#1A1A1A" d="M139.87,35.1c2.03,0.03,3.82,0.73,5.59,1.07c0.46,0.49,0.1,0.82-0.02,1.17c-0.13,0.37-0.27,0.74-0.44,1.21
		c-1.92,0.36-3.93-0.39-5.9,0.24c-0.95,1.66-0.46,3.42-0.48,5.15c-0.01,1.4,0.71,2.24,1.71,2.95c0.31,0.22,0.74,0.43,1.09,0.41
		c1.65-0.13,3.15,0.49,4.68,0.87c3.55,0.9,7.07,1.92,10.6,2.9c2.46,0.69,2.51,0.83,1.39,3.25c-0.28,0.22-0.6,0.17-0.91,0.11
		c-6.22-1.13-12.55-1.03-18.8-1.75c-1.43-0.16-2.87-0.25-4.24-0.71c-1.87-0.62-2.23-1.26-1.93-3.22c0.05-0.31,0.17-0.62,0.17-0.94
		c-0.06-5.62,1.17-11.08,2.07-16.59c0.38-2.3,1.14-4.49,1.88-6.68c0.33-0.97,0.83-1.89,1.44-2.75c1.8-2.5,4.37-2.9,7.06-2.26
		c4.96,1.18,9.92,2.41,14.64,4.4c2.5,1.06,2.87,1.73,2.45,4.47c-2.22,0.23-4.3-0.73-6.47-0.95c-2.3-0.23-4.56-0.74-6.84-1.15
		c-2.19-0.39-4.38-0.81-6.57-1.22C139.91,27.18,138.95,31.41,139.87,35.1z"/>
	<path fill="#1A1A1A" d="M192.68,59.33c-2.13-0.16-3.94-0.81-5.77-1.28c-7.25-1.85-14.49-3.75-21.73-5.66
		c-5.55-1.47-11.08-2.98-16.63-4.47c-1.54-0.41-3.08-0.82-4.62-1.23c-0.72-0.19-1.37-0.5-1.63-1.26c-0.59-1.74-1.13-3.48-0.6-5.33
		c0.22-0.05,0.38-0.15,0.51-0.12c1.01,0.22,2.01,0.47,2.96,0.7c1.23,3.14,2.75,4.05,6.48,3.95c0.75-0.46,0.4-1.34,0.84-2.09
		c1.21-0.24,2.41,0.3,3.62,0.52c1.24,0.23,2.45,0.63,3.78,0.99c0.08,0.24,0.18,0.53,0.26,0.83c0.46,1.81,1.61,2.88,3.45,3.21
		c0.47,0.08,0.94,0.17,1.41,0.28c0.78,0.18,1.21-0.18,1.4-0.9c0.14-0.52-0.1-1.13,0.34-1.58c1.82-0.04,8.2,1.33,11.38,2.46
		c0.09,0.19,0.23,0.4,0.27,0.62c0.44,2.52,1.97,3.67,4.48,3.39c0.6-0.07,1.08-0.31,1.32-0.88c0.21-0.51,0.39-1.03,0.57-1.53
		c2.45,0.15,6.53,1.11,7.94,1.9C191.9,54.21,192.97,56.63,192.68,59.33z"/>
	<path fill="#1A1A1A" d="M25.05,36.98c-0.16-1.11,0.47-1.67,1.22-2.22c3.22-2.37,6.61-4.47,10.15-6.34
		c3.46-1.82,6.97-3.55,10.58-5.07c1.54-0.65,3.03-1.43,4.55-2.11c7.06-3.18,14.34-5.79,21.56-8.55c2.73-1.04,3.82-0.78,5.65,1.46
		c1.97,2.42,3.72,5.01,5.14,7.78c1.49,2.92,3,5.83,4.85,8.53c1.33,1.95,0.77,3.44-0.98,5c-0.41,0.36-0.95,0.59-1.45,0.83
		c-5.19,2.47-10.42,4.84-15.78,6.92c-2.38,0.92-4.66,2.08-6.98,3.15c-5.8,2.67-11.59,5.34-17.38,8.04c-1.95,0.91-3.87,1.9-5.81,2.84
		c-0.43,0.21-0.85,0.44-1.3,0.62c-1.52,0.64-2.27,0.46-3.34-0.83c-2.41-2.9-4.35-6.11-6.14-9.41c-1.6-2.95-2.89-6.05-4.21-9.13
		C25.16,37.99,24.92,37.49,25.05,36.98z M76.13,14.2c-2.35,0.32-4.45,1.08-6.51,1.92c-5.03,2.04-10.01,4.19-15.03,6.24
		c-3.41,1.39-6.78,2.83-9.97,4.67c-1.52,0.87-3.11,1.64-4.72,2.34c-4.02,1.77-7.84,3.93-11.75,5.89c-1.77,0.89-2.06,2.32-1.1,4.16
		c0.22,0.42,0.4,0.87,0.58,1.31c1.72,4.23,3.94,8.21,6.44,12.02c0.74,1.13,1.59,2.2,2.45,3.25c0.81,0.98,1.32,1.07,2.52,0.59
		c0.3-0.12,0.59-0.26,0.86-0.41c4.39-2.47,8.93-4.61,13.61-6.48c4-1.6,7.72-3.81,11.74-5.39c3.27-1.28,6.45-2.76,9.55-4.43
		c1.12-0.6,2.28-1.17,3.49-1.56c2.52-0.81,4.84-2.07,7.27-3.07c1.13-0.46,2.04-1.2,2.72-2.54C84.4,26.58,80.78,20.19,76.13,14.2z"/>
	<path fill="#1A1A1A" d="M101.29,71.64c-0.23-0.5-0.39-0.84-0.55-1.19c0.16-0.05,0.32-0.18,0.44-0.14c1.38,0.4,2.73,0.9,4.12,1.23
		c1.2,0.28,1.97,0.95,2.41,2.06c-0.1,0.56-0.53,0.74-0.98,0.94c-2.76,1.24-5.52,2.49-8.28,3.74c-0.79,0.36-1.62,0.67-2.38,1.35
		c1.26,2.8,2.31,5.7,3.3,8.63c1.31,3.89,1.91,7.9,2.13,11.96c0.2,3.61-0.37,7.16-1.9,10.49c-0.27,0.58-0.55,1.16-0.88,1.7
		c-1.22,2.04-1.53,2.09-3.79,0.56c0.25-1.75,0.5-3.56,0.78-5.35c0.26-1.65,0.54-3.3,0.83-4.95c0.75-4.34,0.28-8.59-1.07-12.74
		c-0.74-2.28-1.56-4.53-2.43-6.76c-0.55-1.4-0.98-2.87-2.14-3.95c0.71-1.53,2.16-2.01,3.26-2.86c1.07-0.83,2.21-1.58,3.34-2.32
		C98.7,73.25,99.92,72.5,101.29,71.64z"/>
	<path fill="#1A1A1A" d="M143.6,16.41c-2.3,0.19-4.28-0.94-6.45-0.98c-2.06-0.04-4.11-0.35-6.18-0.54
		c-0.55-1.08-0.51-2.18-0.54-3.24c3.9-2.58,11.79-4.98,18.37-5.6c0.54,0.41-0.28,0.85,0,1.23c0.11,0.23,0.24,0.25,0.41,0.11
		c0.3-0.26,0.61-0.51,0.9-0.78c0.58-0.52,1.21-0.72,1.98-0.44c0.82,0.3,1.73,0.44,2.47,0.88c1.99,1.18,3.52,2.64,3.35,5.31
		c-0.13,2.07-0.56,4.1-0.72,6.16c-0.03,0.38-0.23,0.74-0.41,1.29c-1.94-0.81-3.95-0.93-5.9-1.55c-1.92-0.61-4-0.86-5.99-1.58
		c0.3-2.56,2.48-4.4,2.8-7.37C145.83,11.59,145,14.05,143.6,16.41z M154.96,10.68c-0.59,0.13-0.91-0.67-1.52-0.45
		c-1.25,0.69-1.78,1.83-1.7,3.14c0.06,0.91,0.41,1.88,1.59,2.06c0.53-0.11,0.77-0.54,1.03-0.93c0.81-1.22,0.55-2.58,0.52-3.91
		c0.86,0.55,0.58,1.43,0.57,2.18c-0.04,3.01-1.12,3.81-3.96,3.03c1.75,1.47,3.57,1.31,4.2-0.54c0.62-1.84,0.61-3.79-0.29-5.59
		c-0.59-1.18-2.06-1.44-3.05-0.58c-0.51,0.44-0.95,1.01-1,1.92c0.55-0.48,0.96-0.83,1.38-1.19c0.38-0.33,0.84-0.54,1.32-0.37
		C154.59,9.63,155,10.01,154.96,10.68z"/>
	<path fill="#1A1A1A" d="M124.36,10.34c-0.41,1.44-0.19,2.56-0.26,3.66c-0.23,3.73-1.57,8.08-6.23,10.93
		c-0.46-0.08-0.38-0.51-0.33-0.74c0.63-2.68,0.39-5.35,0.17-8.06c-0.24-2.96-1.03-5.78-1.78-8.61c-0.65-2.44-1.87-4.56-4.24-5.69
		c0.05-0.65,0.5-0.66,0.87-0.72c1.12-0.18,2.23-0.04,3.3,0.33c3.25,1.12,6.05,2.84,7.88,5.86c0.16,0.27,0.28,0.58,0.69,0.66
		c0.79-0.77-0.43-1.56,0.03-2.5c1.91,0.81,3.32,2.1,4.06,4c1.68,4.3,0.86,8.26-1.87,11.89c-0.51,0.68-1.02,1.37-1.78,2.37
		c-0.1-1.25,0-2.13,0.13-3.02c0.24-1.57,0.47-3.15,0.64-4.73C125.85,13.98,125.58,12.83,124.36,10.34z"/>
	<path fill="#1A1A1A" d="M141.98,114.11c0.2-0.59,0.22-0.84,0.35-1.02c4.24-6.34,4.42-13.06,2.22-20.17
		c-1.34-4.33-3.87-7.82-6.65-11.24c-1.42-1.74-3.2-3.11-4.74-4.72c-0.81-0.85-1.88-1.18-2.98-1.41c-2.11-0.44-4.22-0.85-6.33-1.3
		c-0.37-0.08-0.79-0.09-1.2-0.63c1.54-0.22,2.95-0.21,4.33-0.08c2.3,0.21,4.58,0.62,6.87,0.9c0.75,0.09,1.37,0.34,1.88,0.91
		c1.24,1.35,2.71,2.49,3.76,4.01c2.17,3.16,4.98,5.8,7.13,8.99c1.22,1.82,2.14,3.7,2.57,5.86c0.49,2.5,1.07,4.96,1.04,7.56
		c-0.03,3.21-0.85,6.15-2.36,8.92C146.65,112.92,144.49,113.56,141.98,114.11z"/>
	<path fill="#1A1A1A" d="M86.06,72.66c-2.32-5.5-5.55-9.9-10.55-12.65c-4.84-2.67-10.05-3.82-15.68-2.76
		c0.11-0.23,0.13-0.34,0.19-0.37c2.54-1.48,5.06-3.04,8.01-3.56c6.44-1.14,11.77,0.72,15.85,5.94c1.6,2.05,2.69,4.27,3.12,6.87
		C87.34,68.32,86.86,70.3,86.06,72.66z"/>
	<path fill="#1A1A1A" d="M126.68,27.51c2.65-3.32,3.42-7.29,3.88-11.41c2.14-0.2,4.08,0.15,6.22,0.51
		c-1.75,2.43-3.44,4.73-4.11,7.57c-0.57,2.4-1.23,4.78-1.81,7.18c-0.09,0.37-0.01,0.78,0.03,1.17c0.02,0.21,0,0.48,0.31,0.58
		c1.09-3.35,1.65-6.86,2.82-10.2c0.51-1.44,1.14-2.81,2-4.06c0.92-1.34,2.18-2.08,3.85-1.97c0.79,0.05,1.6,0.08,2.37,0.26
		c5.65,1.38,11.3,2.79,16.94,4.19c1.91,0.47,3.58,1.26,4.68,3.04c0.77,1.25,0.85,2.55,0.63,3.91c-0.09,0.58-0.5,0.75-1.03,0.59
		c-0.52-0.48-0.21-1.08-0.31-1.61c-0.33-1.84-1.1-3.19-3.04-3.89c-5.48-1.97-11.04-3.63-16.75-4.81c-1.71-0.35-3.13,0.23-4.63,0.7
		c-0.57,0.18-0.88,0.66-1.2,1.13c-0.72,1.06-1.34,2.17-1.8,3.37c-1.42,3.73-2.54,7.54-2.86,11.55c-0.02,0.3-0.15,0.6-0.27,1.1
		c-1.12-0.58-1.39-2.17-2.87-1.89c-0.35-1.35-0.25-2.67-0.96-3.79C128.15,29.73,127.15,28.97,126.68,27.51z"/>
	<path fill="#1A1A1A" d="M197.73,43.7c-0.09-2.54-0.1-4.99,0-7.65c5.65,1.09,11.01,2.31,16.36,3.6c0.53,1.24,0.65,2.52,0.71,3.77
		c0.06,1.17,0.85,2.28,0.36,3.48c-0.61,0.44-1.09,0.05-1.54-0.14c-0.43-0.28-0.35-0.71-0.47-1.08c-0.68-2.09-2.92-3.52-5.26-3.26
		c-1.6,0.18-3.15,0.57-4.26,1.91c-0.25,0.3-0.58,0.53-0.87,0.79c-0.9-0.21-1.73-0.42-2.57-0.6
		C199.41,44.35,198.61,44.26,197.73,43.7z"/>
	<path fill="#1A1A1A" d="M92.83,51.9c1.19-0.88,0.93-2.05,1.87-3.01c0.19,2.92-0.61,5.27-1.67,7.52c-0.56,1.18-1.12,2.5-2.58,2.83
		c-0.41-0.1-0.67-0.26-0.82-0.57c-1.45-2.98-2.38-6.1-2.16-9.43c0.14-2.04,0.61-4.05,0.92-6.08c0.38-2.48,0.76-4.96,1.32-7.45
		C90.93,41,91.14,46.48,92.83,51.9z"/>
	<path fill="#1A1A1A" d="M91.25,253.7c-0.37,0.38-0.63,0.08-0.92,0.03c-1.97-0.31-3.19,0.32-4.15,2c-0.82,1.43-1,3.03-1.23,4.6
		c-0.36,2.46-0.2,4.94-0.04,7.41c0.06,0.91,0.68,1.59,0.87,2.44c-1.73,0.25-2.25,0.01-2.16-1.42c0.17-2.77-0.54-5.37-1.17-8.01
		c-0.61-2.55-0.86-5.18-1.77-7.67c-0.13-0.36-0.11-0.79-0.12-1.18c-0.02-0.8,0.27-1.36,1.14-1.56c0.85-0.2,1.68-0.49,2.5-0.8
		c1.17-0.44,2.35-0.38,3.54-0.14c1.08,0.21,1.92,0.76,2.4,1.77C90.55,252,91.16,252.77,91.25,253.7z"/>
	<path fill="#1A1A1A" d="M195.87,54.05c2-0.36,3.51,0.21,4.97,0.51c0.68,0.66,0.82,1.48,1.15,2.2c0.74,1.64,2.08,2.35,3.78,2.52
		c0.4,0.04,0.8,0.01,1.2,0.01c3.73-0.03,2.68,0.09,4.83-2.6c0.79-0.98,0.67-1.19-0.68-2.2c0.66-0.74,1.48-0.32,2.23-0.43
		c-0.05,0.13-0.06,0.22-0.11,0.26c-0.17,0.14-0.53,0.29-0.52,0.37c0.19,0.83,0.94,0.67,1.52,0.81c0.08,0.02,0.14,0.07,0.41,0.21
		c-1.8,2.13-3.57,4.22-5.36,6.33c-4.09-0.98-8.19-0.8-12.02-1.53c-0.6-0.41-0.75-0.9-0.81-1.35
		C196.24,57.5,196.08,55.86,195.87,54.05z"/>
	<path fill="#1A1A1A" d="M85.59,22.65c-1.45-1.16-1.45-2.51-1.12-3.84c0.91-3.68,2.18-7.16,5.37-9.58c0.81-0.62,1.41-1.51,2.59-2.01
		c0.05,1.03,0.03,1.91-0.16,2.81c-0.57,2.64-1.17,5.27-1.19,7.99c-0.01,1.17-0.86,1.67-1.72,2.06
		C87.96,20.7,86.68,21.48,85.59,22.65z"/>
	<path fill="#1A1A1A" d="M119.26,53.74c2.16-1.15,4.01-0.25,5.86,0.74c1.4,0.75,2.83,1.46,4.22,2.23c2.1,1.16,4.37,1.84,6.86,2.38
		c-0.02,3.02,0.64,5.96-1.1,8.6c-0.64,0.25-0.95-0.1-1.25-0.49c-0.44-0.57-0.8-1.18-1-1.89c-1.08-3.82-3.91-6.06-7.16-7.89
		c-1.66-0.94-3.39-1.75-5.08-2.64C120.14,54.53,119.55,54.4,119.26,53.74z"/>
	<path fill="#1A1A1A" d="M161.03,164.49c2.82-0.47,5.76,0.51,8.44-0.93c0.68,2.73,0.44,4.43-0.76,5.76
		c-0.6-0.54-0.09-1.35-0.49-1.95c-0.17,0.16-0.39,0.28-0.49,0.47c-0.33,0.63-0.62,1.29-0.93,1.94c-0.34,0.71-0.61,1.48-1.46,1.94
		c-0.57-0.52-0.08-1.36-0.58-1.91c-1.83,0.86-1.5,2.85-2.3,4.36c-0.63,0.48-1.41,0.8-2.53,0.7
		C160.84,171.53,159.94,168.07,161.03,164.49z"/>
	<path fill="#1A1A1A" d="M99.05,49.12c-0.13,1.32,1.29,1.69,1.04,2.87c-1.34,0.26-2.62,0.06-3.93-0.56
		c-0.58-1.91,0.05-3.92-0.47-5.76c0.54-0.54,0.97-0.27,1.41-0.11c2.34,0.82,4.38,2.27,6.7,3.17c2.74,1.06,5.38,2.38,7.91,3.51
		c0.49,0.88,0.01,1.41-0.18,2.02c-1.08,0.68-2.19,0.22-3.24-0.03c-1.78-0.42-3.52-1.03-5.29-1.51c-0.75-0.2-1.22-0.68-1.68-1.26
		C100.68,50.69,100.27,49.69,99.05,49.12z"/>
	<path fill="#1A1A1A" d="M131.6,51.4c0.86,0.95,1.95,1.37,3.15,1.62c2.9,0.59,5.86,0.64,8.78,0.94c4.35,0.45,8.72,0.68,13.04,1.41
		c0.62,0.1,1.26,0.1,1.91,0.14c0.97-1.01,1.01-2.35,1.46-3.46c0.41-0.08,0.71-0.04,1.04,0.38c-0.16,0.8-0.29,1.74-0.54,2.63
		c-0.51,1.77-1.34,2.3-3.17,2.05c-1.74-0.24-3.46-0.58-5.2-0.8c-4.5-0.58-9.01-1.11-13.51-1.7c-2.29-0.3-4.57-0.68-6.85-1.07
		c-1.3-0.22-1.78-0.75-2-2.01c-0.05-0.31-0.05-0.64-0.03-0.96c0.14-2.38,0.26-4.77,0.45-7.14c0.1-1.21,0.34-1.57,1.39-2.91
		c0.48,1.27,0.46,1.26,0.14,3.52c-0.17,1.18-0.28,2.37-0.33,3.56C131.26,48.89,131.28,50.17,131.6,51.4z"/>
	<path fill="#1A1A1A" d="M123.19,57.81c0.53,0.06,0.81,0.01,0.99,0.12c1.11,0.63,2.28,1.15,3.33,2.13c0.44,4.17-0.36,8.27-1.58,12.4
		c-1.08,0.26-2.09,0.18-3.26,0.08c0.35-2.53,0.75-4.93,1-7.36C123.94,62.75,123.72,60.31,123.19,57.81z"/>
	<path fill="#1A1A1A" d="M85.62,54.5c-0.3,0.22-0.42,0.33-0.56,0.41c-2.56,1.44-2.57,1.45-4.73-0.5c-0.55-0.5-1.17-0.8-1.85-1.05
		c-0.94-0.33-1.87-0.72-3.16-1.23c3.76-1.35,7.28-2.24,10.88-3.33C86.43,50.87,85.74,52.62,85.62,54.5z"/>
	<path fill="#1A1A1A" d="M103.82,70.26c-1.81-0.5-3.67-0.89-5.42-1.55c-0.92-0.35-1.72-1.11-2.48-1.79c-2-1.77-4.12-3.43-5.84-5.66
		c0.9-0.55,1.7-1.03,2.68-1.62C96.43,63.13,100.13,66.62,103.82,70.26z"/>
	<path fill="#1A1A1A" d="M72.88,175.73c0.97-1.4,1.83-2.63,2.7-3.9c0.44-0.03,0.91-0.06,1.33-0.09c1,2.02,1.64,4.05,1.99,6.18
		c0.2,1.22-0.2,1.98-1.32,2.5c-1.02,0.48-1.96,0.23-2.67-0.83C74.14,178.4,73.34,177.21,72.88,175.73z"/>
	<path fill="#1A1A1A" d="M195.24,53.81c-0.24,2.15,0.78,4.16,0.23,6.27c-0.92-0.02-1.38-0.36-1.5-1.09
		c-0.38-2.35-0.6-4.71-0.51-7.22c1.63-0.28,3.04,0.4,4.5,0.54c1.5,0.14,3.04,0.02,4.59,0.76c0.54,1.66,1.14,3.45,3.03,4.21
		c1.8,0.72,3.38,0.14,4.95-1.27c-0.21,1.28-0.76,1.9-1.7,2.31c-2.5,1.09-5.56-0.01-6.24-2.58c-0.48-1.85-1.55-2.42-3.2-2.55
		C198,53.08,196.55,52.52,195.24,53.81z"/>
	<path fill="#1A1A1A" d="M195.1,45.48c0.29-3.05,0.35-5.82,0.3-8.6c-0.01-0.67,0.12-1.31,1.17-1.06c0.34,1.95,0.14,3.94,0.13,5.91
		c0,0.32-0.09,0.63-0.1,0.95c-0.05,1.65,0.11,1.83,1.71,2.27c1,0.28,1.98,0.59,2.97,0.92c1.24,0.41,2.33,0.34,3.23-0.77
		c0.5-0.62,1.15-1.06,1.94-1.34c2.49-0.87,4.6-0.1,5.83,2.22c0.36,0.68,0.66,1.4,1.02,2.16c-0.82,0.26-1.39,0.16-1.57-0.82
		c-0.18-0.94-0.45-1.81-1.36-2.4c-2.17-1.4-4.36-0.36-5.57,0.91c-0.27,0.28-0.5,0.61-0.88,1.07
		C201.06,46.55,198.18,46.14,195.1,45.48z"/>
	<path fill="#1A1A1A" d="M67.41,177.1c1.55-0.45,2.85-0.83,4.26-1.24c1.32,1.78,1.92,3.95,3.15,5.81c-0.26,0.29-0.43,0.57-0.67,0.76
		c-1.91,1.52-3.05,1.33-4.13-0.84C69.27,180.09,68.35,178.69,67.41,177.1z"/>
	<path fill="#1A1A1A" d="M66.63,177.32c1.12,2.09,2.16,4.06,3.23,6.05c-0.72,0.91-1.58,0.74-2.41,0.44
		c-0.93-0.34-1.58-1.03-2.16-1.83c-0.98-1.34-1.96-2.69-3.32-4.02C63.53,177.42,64.97,177.29,66.63,177.32z"/>
	<path fill="#1A1A1A" d="M70.87,64.61c-2.45,2.52-6.68,5.05-9.49,5.56c1.61-2.76,3.54-4.94,6.08-6.56c0.35-0.22,0.73-0.26,1.14-0.16
		C69.45,63.66,70.28,63.89,70.87,64.61z"/>
	<path fill="#1A1A1A" d="M98.35,123.77c-0.76-0.05-1.13-0.36-1.56-0.56c-1.38-0.66-1.92-1.74-1.87-3.25
		c0.06-1.57,0.13-3.14-0.29-4.67c1.23-0.3,1.23-0.3,2.46,0.37C97.51,118.28,97.91,120.92,98.35,123.77z"/>
	<path fill="#1A1A1A" d="M204.04,52.53c2.21-0.09,4,0.94,5.9,1.13c0.43,0.92-0.1,1.41-0.57,1.97c-0.72,0.87-1.75,0.73-2.65,0.8
		C204.99,56.56,204.19,55.39,204.04,52.53z"/>
	<path fill="#1A1A1A" d="M64.85,184.01c-4.11-0.06-5.08-3.06-6.82-5.47c1.09-0.24,1.92-0.42,2.86-0.62
		C61.95,179.96,63.31,181.8,64.85,184.01z"/>
	<path fill="#1A1A1A" d="M215.68,40.14c0.48-0.13,0.8,0.08,0.93,0.49c0.35,1.12,0.73,6.85,0.57,8.29c-0.58,0.16-1.19,0.08-1.15-0.62
		c0.14-2.24-0.43-4.4-0.57-6.6C215.44,41.17,215.25,40.6,215.68,40.14z"/>
	<path fill="#1A1A1A" d="M128.87,47.36c0,1.65,0,3.22,0,4.92c-1.36-0.03-2.26-0.79-3.22-1.31C125.6,48.64,127.57,48.33,128.87,47.36
		z"/>
	<path fill="#1A1A1A" d="M133.78,117.02c0.14,3.75-1.13,7.06-2.81,10.27c-0.24-1.9,0.65-3.57,1.09-5.32
		C132.48,120.29,132.55,118.45,133.78,117.02z"/>
	<path fill="#1A1A1A" d="M116.74,55.27c-1.49,0.5-2.7,0.14-3.88-0.55c0.53-2.21,1.09-2.85,2.33-2.6c0.44,0.09,0.86,0.36,1.26,0.6
		c0.19,0.11,0.39,0.31,0.45,0.51C117.07,53.85,116.9,54.46,116.74,55.27z"/>
	<path fill="#1A1A1A" d="M89.63,21.43c-0.19,2.06-0.98,3.81-0.97,5.93c-1.38-0.8-1.78-1.97-2.4-3.06
		C87.14,23.08,88.12,22.12,89.63,21.43z"/>
	<path fill="#1A1A1A" d="M154.55,39.86c-0.42-0.59-0.46-1.03-0.24-1.48c0.14-0.09,0.28-0.27,0.38-0.25
		c1.89,0.34,3.78,0.71,5.63,1.07c0,0.95-0.61,1.27-1.08,1.13C157.71,39.86,156.12,40.21,154.55,39.86z"/>
	<path fill="#1A1A1A" d="M143.42,60.24c1.01,0.06,1.94-0.19,2.98,0.34c-0.49,1.59-1.43,2.78-2.73,4.06
		c-0.35-0.82-0.21-1.51-0.24-2.17C143.4,61.77,143.42,61.07,143.42,60.24z"/>
	<path fill="#1A1A1A" d="M140.95,45.91c-1.56-1.11-1.2-2.54-1.57-3.69c-0.24-0.75-0.23-1.57,0.06-2.34
		c0.11-0.28,0.24-0.63,0.64-0.52c0.21,0.06,0.55,0.29,0.53,0.39C140.29,41.73,141.07,43.66,140.95,45.91z"/>
	<path fill="#1A1A1A" d="M146.66,41.44c1.54-0.12,2.97-0.01,4.25,0.57c0.31,0.68,0.28,1.18-0.32,1.69
		C149.03,43.53,147.5,43.21,146.66,41.44z"/>
	<path fill="#1A1A1A" d="M161.4,44.4c0.88,0.16,1.65,0.34,2.43,0.43c1.26,0.14,1.47,0.98,1.57,2.12c-1.35,0.34-2.41-0.04-3.43-0.71
		C161.37,45.85,161.04,45.39,161.4,44.4z"/>
	<path fill="#1A1A1A" d="M141.09,34.03c-0.64-1.84-0.28-3.6,0.21-5.36c0.33-1.21,0.34-1.21,1.51-2.69
		C142.26,28.89,141.44,31.41,141.09,34.03z"/>
	<path fill="#1A1A1A" d="M179.54,48.77c1.42-0.18,2.49,0.32,3.58,0.52c0.25,0.94,0.34,1.73-0.77,1.9
		C180.68,51.43,179.89,50.76,179.54,48.77z"/>
	<path fill="#1A1A1A" d="M132.63,126.87c0.7,0.63,1.08,1.31,1.5,2.07c-0.44,0.72-0.67,1.57-1.44,2.08
		c-0.72-0.45-1.03-1.17-1.46-1.81C131.46,128.31,131.82,127.56,132.63,126.87z"/>
	<path fill="#1A1A1A" d="M206.15,46.47c0.71-1.14,1.64-1.26,2.56-1.04c0.95,0.23,1.66,0.85,1.8,2.07
		C208.83,47.99,207.67,46.76,206.15,46.47z"/>
	<path fill="#1A1A1A" d="M126.28,25.72c-0.51-1.94,1.21-2.78,1.92-4.36C128.13,23.36,127.83,24.03,126.28,25.72z"/>
	<path fill="#1A1A1A" d="M54.44,68.36c-0.69-1.94,0.79-2.83,2.02-3.86c-0.35,0.65-0.7,1.3-1.04,1.96
		C55.09,67.09,54.77,67.73,54.44,68.36z"/>
	<path fill="#1A1A1A" d="M87.82,58.61c-1.15-0.66-1.7-1.31-2.21-1.99c-0.01-0.65,0.54-0.7,0.96-1.03
		C87.24,56.38,87.3,57.33,87.82,58.61z"/>
	<path fill="#1A1A1A" d="M83.02,18.58c-0.16-1.83,0.5-2.89,1.05-4.13C84.16,15.84,84.1,16.11,83.02,18.58z"/>
	<path fill="#1A1A1A" d="M79.89,177.33c-0.2-0.79-0.39-1.58-0.62-2.5C80.65,175.6,80.65,175.6,79.89,177.33z"/>
	<path fill="#1A1A1A" d="M161.2,39.88c0.52-0.62,1.01-0.43,1.55-0.12c-0.06,0.29-0.13,0.59-0.2,0.9
		C161.79,40.84,161.35,40.6,161.2,39.88z"/>
	<path fill="#1A1A1A" d="M147.05,37.12c0.24,0.6,0.07,1-0.4,1.33C146.77,38.05,146.89,37.64,147.05,37.12z"/>
	<path fill="#1A1A1A" d="M216.72,54.67c-0.04,0.41-0.28,0.71-0.55,0.98c-0.42-0.26-0.88-0.77-0.71-1.04
		C215.65,54.31,216.3,54.4,216.72,54.67z"/>
	<path fill="#1A1A1A" d="M37.52,55.85c-0.9-0.76-1.35-1.8-1.95-2.72c-1.86-2.88-4.03-5.57-5.44-8.73c-0.84-1.9-1.74-3.77-2.58-5.67
		c-0.44-1-0.24-1.65,0.61-2.3c0.19-0.14,0.41-0.25,0.62-0.36c4.73-2.49,9.3-5.27,14.22-7.4c2.41-1.05,4.73-2.28,7.06-3.5
		c2.47-1.3,5.16-2.07,7.68-3.26c3.89-1.83,7.94-3.33,11.91-4.99c1.92-0.8,3.92-1.29,5.87-1.7c2.27,2.22,10.11,14.33,11.37,17.54
		c-0.23,0.92-1,1.3-1.82,1.66c-9.33,4.13-18.71,8.18-27.97,12.46c-5.58,2.58-11.27,4.9-16.69,7.81
		C39.52,55.19,38.61,55.72,37.52,55.85z M63.47,22.84c-1.89,0-3.16,1.24-3.17,3.11c-0.01,2.08,1.37,3.44,3.43,3.39
		c1.73-0.05,3.29-1.66,3.31-3.42C67.05,24.22,65.45,22.84,63.47,22.84z M80.53,31.3c-0.06-1.79-1.57-3.08-3.58-3.07
		c-1.96,0.02-3.3,1.41-3.22,3.36c0.07,1.81,1.69,3.26,3.51,3.14C79.1,34.6,80.59,33.04,80.53,31.3z M55.74,38.98
		c-0.01,1.81,1.45,3.28,3.3,3.3c1.78,0.02,3.33-1.49,3.4-3.32c0.07-1.91-1.49-3.32-3.63-3.28C57.09,35.72,55.75,37.15,55.74,38.98z
		 M54.38,27.27c-1.98-0.07-3.37,1.06-3.48,2.82c-0.12,2.03,1.28,3.54,3.34,3.56c1.81,0.02,3.32-1.46,3.38-3.33
		C57.67,28.52,56.43,27.34,54.38,27.27z M40.67,43.83c-1.78,0.03-3.25,1.48-3.2,3.17c0.05,1.82,1.63,3.46,3.31,3.43
		c1.92-0.03,3.49-1.66,3.42-3.55C44.15,44.99,42.76,43.8,40.67,43.83z M65.16,34.45c-0.04,2,1.44,3.57,3.34,3.51
		c1.93-0.06,3.2-1.52,3.36-3.38c0.14-1.64-1.55-3.12-3.47-3.21C66.6,31.29,65.19,32.64,65.16,34.45z M45.35,37.68
		c1.8,0.31,3.37-1.66,3.46-3.23c0.11-1.76-1.46-3.09-3.49-3.1c-1.92,0-3.22,1.23-3.22,3.03C42.1,36.42,43.32,37.66,45.35,37.68z
		 M53.65,42.86c-0.13-1.86-1.3-2.96-3.56-3.04c-1.65-0.05-3.28,1.28-3.12,3.41c0.14,1.88,1.49,3.14,3.47,3.08
		C52.16,46.26,53.69,44.61,53.65,42.86z M68.91,22.49c-0.26,1.92,1.46,3.32,3.23,3.24c1.88-0.09,3.19-1.24,3.27-3.06
		c0.08-1.98-1.17-3.28-3.2-3.33C70.08,19.3,68.93,20.39,68.91,22.49z M36.18,35.67c-2.06-0.03-3.21,1-3.27,2.91
		c-0.07,2.08,1.1,3.37,3.08,3.42c2.04,0.04,3.35-1.15,3.42-3.12C39.49,36.82,38.37,35.7,36.18,35.67z M62.69,32.09
		c-0.17-0.7-0.65-0.87-1.1-0.86c-0.36,0.01-0.75,0.22-1.06,0.44c-0.33,0.23-0.47,0.62-0.32,1.04c0.19,0.53,0.6,0.68,1.11,0.63
		C62.15,33.24,62.48,32.67,62.69,32.09z M53.17,36.22c-0.07-0.5-0.59-0.81-1.26-0.77c-0.53,0.04-0.91,0.3-0.96,0.83
		c-0.05,0.53,0.72,1.14,1.28,1.09C52.74,37.32,53.24,36.71,53.17,36.22z M71.35,28.4c0-0.59-0.59-1.02-1.35-0.99
		c-0.61,0.03-1.06,0.47-1.02,1.04c0.04,0.66,0.46,0.97,1.08,1.01C70.75,29.51,71.35,29,71.35,28.4z M43.99,40.6
		c0.07-0.47-0.48-1.02-1.05-1.06c-0.55-0.04-0.92,0.26-1.11,0.71c-0.17,0.42,0.44,1,1.06,1.03C43.41,41.32,43.81,41.13,43.99,40.6z"
		/>
	<path fill="#1A1A1A" d="M61.56,26.46c-0.33-1.18,0.36-1.83,1.11-2.37c0.81-0.58,1.6-0.37,2.42,0.37c-0.99,0.65-1.9,1.26-2.82,1.83
		C62.1,26.4,61.86,26.39,61.56,26.46z"/>
	<path fill="#1A1A1A" d="M62.16,27.62c1.34-0.93,2.37-1.7,3.7-2.33c0.31,1.39-0.43,2.01-1.16,2.59
		C64.2,28.29,64.01,28.23,62.16,27.62z"/>
	<path fill="#1A1A1A" d="M79.16,30.43c0.25,1.78-0.03,2.46-1.06,2.87c-1.05,0.41-1.8,0.12-2.74-1.11
		C76.49,31.3,77.84,30.96,79.16,30.43z"/>
	<path fill="#1A1A1A" d="M75.19,30.87c0.71-1.45,1.45-1.82,2.69-1.34C77.26,30.39,76.44,30.55,75.19,30.87z"/>
	<path fill="#1A1A1A" d="M57.47,40.13c1.03-1.2,2.4-1.37,3.54-2.04c0.36,1.48,0.22,2.07-0.69,2.65
		C59.29,41.39,58.39,41.16,57.47,40.13z"/>
	<path fill="#1A1A1A" d="M57.13,38.93c0.75-2.18,1.06-2.35,2.97-1.86C59.24,38.02,59.24,38.02,57.13,38.93z"/>
	<path fill="#1A1A1A" d="M56.47,29.93c-0.5,2.65-1.79,3.18-3.7,1.68C53.71,30.55,54.93,30.17,56.47,29.93z"/>
	<path fill="#1A1A1A" d="M55.93,28.86c-1.2,0.53-2.28,1-3.46,1.52c-0.46-0.98,0.16-1.49,0.79-1.93
		C54.18,27.83,55.02,28.03,55.93,28.86z"/>
	<path fill="#1A1A1A" d="M39.43,48.35c1.11-0.81,2.21-1.53,3.46-2.05c0.55,1.18,0.07,1.97-0.83,2.49
		C41.18,49.29,40.26,49.33,39.43,48.35z"/>
	<path fill="#1A1A1A" d="M42.14,45.35c-0.77,1.09-2.07,1.36-3.04,2.19C38.9,45.26,39.95,44.53,42.14,45.35z"/>
	<path fill="#1A1A1A" d="M67.2,35.81c1.01-0.62,2.06-1.27,3.12-1.92c0.54,1.27,0.45,1.61-0.48,2.37c-0.38,0.31-0.79,0.54-1.28,0.52
		C68.01,36.75,67.48,36.61,67.2,35.81z"/>
	<path fill="#1A1A1A" d="M69.94,33.01c-1.03,0.8-2.06,1.45-3.34,1.87c-0.53-1.01,0.1-1.55,0.68-2.01
		C68.11,32.21,69,32.16,69.94,33.01z"/>
	<path fill="#1A1A1A" d="M47.58,33.6c0.37,1.69-0.37,2.4-1.3,2.84c-0.8,0.38-1.65,0.31-2.28-0.68
		C44.92,34.66,46.24,34.41,47.58,33.6z"/>
	<path fill="#1A1A1A" d="M43.48,34.39c0.76-2.23,0.88-2.3,3.34-1.8C45.99,33.83,44.61,33.87,43.48,34.39z"/>
	<path fill="#1A1A1A" d="M52.43,42.42c0.29,1.51-0.41,2.19-1.41,2.64c-1.1,0.5-1.8-0.11-2.42-1.01
		C49.74,43.34,50.83,42.55,52.43,42.42z"/>
	<path fill="#1A1A1A" d="M51.56,41.35c-1.02,0.69-1.97,1.44-3.29,1.61C49.01,40.78,49.13,40.71,51.56,41.35z"/>
	<path fill="#1A1A1A" d="M70.56,23.74c1.14-0.77,2.23-1.47,3.51-1.99c0.62,1.2,0.05,1.93-0.7,2.55
		C72.67,24.88,71.88,24.71,70.56,23.74z"/>
	<path fill="#1A1A1A" d="M70.17,22.58c0.39-2.12,0.99-2.48,3.28-1.88C72.51,21.72,71.36,22.07,70.17,22.58z"/>
	<path fill="#1A1A1A" d="M34.81,40.1c0.96-1,2.15-1.54,3.36-2.1c0.43,1.25,0.19,1.96-0.8,2.64C36.64,41.15,36.12,41.05,34.81,40.1z"
		/>
	<path fill="#1A1A1A" d="M33.98,38.89c1.1-2.45,1.32-2.56,3.46-1.79C36.41,37.98,35.37,38.52,33.98,38.89z"/>
</g>
</svg>
