<?xml version="1.0" encoding="utf-8"?>
<!-- Generator: Adobe Illustrator 24.1.3, SVG Export Plug-In . SVG Version: 6.00 Build 0)  -->
<svg version="1.1" id="Layer_1" xmlns="http://www.w3.org/2000/svg" xmlns:xlink="http://www.w3.org/1999/xlink" x="0px" y="0px"
	 viewBox="0 0 23.98 363.25" enable-background="new 0 0 23.98 363.25" xml:space="preserve">
<rect x="0.38" y="0.38" fill="#191919" stroke="#000000" stroke-width="0.7619" stroke-linejoin="round" stroke-miterlimit="10" width="23.6" height="362.86"/>
<rect x="3.84" y="0.38" fill="#191919" fill-opacity="0.125" stroke="#000000" stroke-width="0.7619" stroke-linejoin="round" stroke-miterlimit="10" width="16.3" height="362.48"/>
<rect x="0.38" y="0.38" fill="#191919" fill-opacity="0.125" stroke="#000000" stroke-width="0.7619" stroke-linejoin="round" stroke-miterlimit="10" width="23.22" height="293.91"/>
<path id="tenpin_arrow" fill="#191919" fill-opacity="0.125" stroke="#000000" stroke-width="0.7619" stroke-linejoin="round" stroke-miterlimit="10" d="
	M5.9,225.72l0.76,0.76L5.9,224.2l-0.76,2.29L5.9,225.72z"/>
<path id="tenpin_arrow_1_" fill="#191919" fill-opacity="0.125" stroke="#000000" stroke-width="0.7619" stroke-linejoin="round" stroke-miterlimit="10" d="
	M8.94,222.67l0.76,0.76l-0.76-2.29l-0.76,2.29L8.94,222.67z"/>
<path id="tenpin_arrow_2_" fill="#191919" fill-opacity="0.125" stroke="#000000" stroke-width="0.7619" stroke-linejoin="round" stroke-miterlimit="10" d="
	M11.99,219.63l0.76,0.76l-0.76-2.29l-0.76,2.29L11.99,219.63z"/>
<path id="tenpin_arrow_3_" fill="#191919" fill-opacity="0.125" stroke="#000000" stroke-width="0.7619" stroke-linejoin="round" stroke-miterlimit="10" d="
	M15.04,222.67l0.76,0.76l-0.76-2.29l-0.76,2.29L15.04,222.67z"/>
<path id="tenpin_arrow_4_" fill="#191919" fill-opacity="0.125" stroke="#000000" stroke-width="0.7619" stroke-linejoin="round" stroke-miterlimit="10" d="
	M18.09,225.72l0.76,0.76l-0.76-2.29l-0.76,2.29L18.09,225.72z"/>
<circle id="tenpin_pin" fill="#191919" fill-opacity="0.125" stroke="#000000" stroke-width="0.7619" stroke-linejoin="round" stroke-miterlimit="10" cx="11.99" cy="15.62" r="0.87"/>
<circle id="tenpin_pin_1_" fill="#191919" fill-opacity="0.125" stroke="#000000" stroke-width="0.7619" stroke-linejoin="round" stroke-miterlimit="10" cx="9.68" cy="11.6" r="0.87"/>
<circle id="tenpin_pin_2_" fill="#191919" fill-opacity="0.125" stroke="#000000" stroke-width="0.7619" stroke-linejoin="round" stroke-miterlimit="10" cx="14.31" cy="11.6" r="0.87"/>
<circle id="tenpin_pin_3_" fill="#191919" fill-opacity="0.125" stroke="#000000" stroke-width="0.7619" stroke-linejoin="round" stroke-miterlimit="10" cx="7.34" cy="7.57" r="0.87"/>
<circle id="tenpin_pin_4_" fill="#191919" fill-opacity="0.125" stroke="#000000" stroke-width="0.7619" stroke-linejoin="round" stroke-miterlimit="10" cx="11.99" cy="7.57" r="0.87"/>
<circle id="tenpin_pin_5_" fill="#191919" fill-opacity="0.125" stroke="#000000" stroke-width="0.7619" stroke-linejoin="round" stroke-miterlimit="10" cx="16.64" cy="7.57" r="0.87"/>
<circle id="tenpin_pin_6_" fill="#191919" fill-opacity="0.125" stroke="#000000" stroke-width="0.7619" stroke-linejoin="round" stroke-miterlimit="10" cx="5.03" cy="3.55" r="0.87"/>
<circle id="tenpin_pin_7_" fill="#191919" fill-opacity="0.125" stroke="#000000" stroke-width="0.7619" stroke-linejoin="round" stroke-miterlimit="10" cx="9.68" cy="3.55" r="0.87"/>
<circle id="tenpin_pin_8_" fill="#191919" fill-opacity="0.125" stroke="#000000" stroke-width="0.7619" stroke-linejoin="round" stroke-miterlimit="10" cx="14.31" cy="3.55" r="0.87"/>
<circle id="tenpin_pin_9_" fill="#191919" fill-opacity="0.125" stroke="#000000" stroke-width="0.7619" stroke-linejoin="round" stroke-miterlimit="10" cx="18.96" cy="3.55" r="0.87"/>
</svg>
