<?xml version="1.0" encoding="utf-8"?>
<!-- Generator: Adobe Illustrator 23.1.0, SVG Export Plug-In . SVG Version: 6.00 Build 0)  -->
<svg version="1.1" id="Layer_1" xmlns="http://www.w3.org/2000/svg" xmlns:xlink="http://www.w3.org/1999/xlink" x="0px" y="0px"
	 viewBox="0 0 179.85 208.12" style="enable-background:new 0 0 179.85 208.12;" xml:space="preserve">
<style type="text/css">
	.st0{stroke:#A9A9A9;stroke-width:2;}
</style>
<path id="CA" d="M158.61,204.26l-19.71,2.64l-10.04,1.22l-0.96-1.6l-2.5-9.06l-1.14-3l-3.62-3.36l-1.38-2l-4.88-3.01l-4.05-3.76
	l-2.66,0.53l-3.3,0.08l-0.56-0.88l1.29-0.98l-1.43-2.92l-2-1.62l-4.84,0.51l-4.32-0.99l-1.67-1.92l-3.78-3.93l-3.62-2.22l-2.8,0.77
	l-4.32-0.99l-4.82-0.54l-4.18,0.64l-3.03-1.96l-0.02-1.96l-0.16-7.32l0.27-2.04l-0.64-2.31l-1.81-0.54l-1.25-2.66l-2.14-2.11
	l-4.82-4.69l-2.08-2.64l-2.7-4.13l-2.95-4.68l-4.26-3.39l-1.25-2.66l-0.27-3.97l1.06-0.29l1.6-2.1l0.1-3.76l-1.68-2.34l-2.74,0.24
	l-2.52-2l-3.01-3.01l-2.38-7.85l0.07-1.99l-0.03-2.38l-0.16-2.45l-7.17-4.56l-0.56-2.02l0.16-0.56l-0.56-3.16l-2.32-3.51l-3.49-4.01
	l-3.8-3.62L10,68.11l-0.02-3.83l-0.97-5.75l0.91-3.47l-1.44-6.35l-2.02-3.18L3.8,41.91l-3.72-3.33L0,35.29l0.33-4.45l1.52-1.25
	l0-1.14l2.3-3.33l1.87-12.76L4.24,5.17L4.56,0L45,1.07l26.43-0.45l0.62,32.3l0.46,34.21l17.29,15.14l57.22,48.83l23.43,20.61
	l0.44,3.09l4.08,4.27l2.5,4.91l1.36,1.18l0.83,0.39l0.18,1.4l-1.08,1.34l-2.85,2.45l-1.27,2.53l-0.6,4.21l0.77,4.66l-1.84,3.1
	l-1.92,1.67l1.55,6l-0.07,1.99l1.42,1.37l2.97-0.51l0.04,1.65l-0.82,2.3l-3.6,1.62L158.61,204.26z M74.36,176.8l1.65,1.1l0.15,1.31
	l-3.11,0.76l-0.9-1l-0.98-1.29L74.36,176.8z M76.19,176.29l1-0.9l4.03,1.07l3.31,0.33l-0.71,0.82l-4.39,1.01l-1.97-1.12
	L76.19,176.29z M101.41,189.87l2.35,1.74l1.04,0.75l1.61,0.18l0.18-1.61l-1.44-1.47l-3.14-1.21l-1.01,0.49l0.32,1.16L101.41,189.87z
	 M102.38,198.63l2.59,2.61l1.66,1.51l-1.39,0.59l-1.57-0.81c0,0-1.07-1.26-1.18-1.65l-0.59-2.12L102.38,198.63z">
<title>California</title>
</path>
<path id="frames" class="st0" d="M409.36,52.82 M158.36-115.18"/>
</svg>
