<?xml version="1.0" encoding="utf-8"?>
<!-- Generator: Adobe Illustrator 23.1.0, SVG Export Plug-In . SVG Version: 6.00 Build 0)  -->
<svg version="1.1" id="Layer_1" xmlns="http://www.w3.org/2000/svg" xmlns:xlink="http://www.w3.org/1999/xlink" x="0px" y="0px"
	 viewBox="0 0 63.07 95.02" style="enable-background:new 0 0 63.07 95.02;" xml:space="preserve">
<style type="text/css">
	.st0{stroke:#A9A9A9;stroke-width:2;}
</style>
<path id="ME" d="M1.59,46.74l1.32,0.82l0.76-2.49l2.37-5.03l3.86-3.73l2.6-3.39l-1.11-2.85l1.76-5.74l1.06-0.72l1.55-2.35l0.25-1.49
	l1.21-4.65l3.13-4.06l5.38-7.66L28.96,0l1.24,0.38l1.18,0.57L31.07,2l0.57,2.58l2.41,1.36l1-0.53l0.29-0.96l4.67-1.6l2.25-1.19
	l1.38,0.63l5.04,4.05l1.52,1.51l-0.04,31.25l5.74,1.76l0.21,2.05l-1.21,4.65l2.1,3.05l0.76,0.23l0.34-0.42l-0.16-1.2l2.82,0.34
	l1.2,2.56l1.12,4.21l-0.56,1.82l-3.38,3.88l-1.99,0.02l-4.16,1.97l-6.2,3.86l-1.24-0.38c-0.57-0.18-0.34-2.3-0.34-2.3l-1.78-0.34
	l-1.4,1.14l-2.73,0.73l-1.4,1.14l1.09,1.9l-0.65,0.43l-1.27,2.44l-1.76-0.75l0.47-1.53l0.09-1.33l-1.52-0.15l-0.79-3.59l-2.39,0.63
	l0.8,1.81l-0.03,1.14l-1.15,1.01l-0.62,3.05l-0.28,1.59l-2.29,2.02l-2.92-0.37l-1.14,2.69l-5.97,1.41l-1.39,0.1l-1.09-1.9
	l-4.02,2.54l0.02,3.35l-1.81,0.8l-1.48,4.15l-2.89,5.7l-1.84-1.5l0.43-3.11L0,88.19l0.54-2.45L0.3,46.52L1.59,46.74z M31.93,72.33
	l1.87-1l1.02,1.46l-0.13,2.47l-1.89,0.36L31.93,72.33z M40.07,68.65l1.17,2.34c0,0,1.21,0.48,1.3,0.19
	c0.09-0.29,0.78-1.85,0.78-1.85l1.09-0.5l-0.24-1.96l-2.12,0.08L40.07,68.65z">
<title>Maine</title>
</path>
</svg>
