<?xml version="1.0" encoding="utf-8"?>
<!-- Generator: Adobe Illustrator 24.0.2, SVG Export Plug-In . SVG Version: 6.00 Build 0)  -->
<svg version="1.1" id="Layer_1" xmlns="http://www.w3.org/2000/svg" xmlns:xlink="http://www.w3.org/1999/xlink" x="0px" y="0px"
	 viewBox="0 0 1821.86 3387.48" style="enable-background:new 0 0 1821.86 3387.48;" xml:space="preserve">
<path d="M268.05,2663.69c-14.86-5.78-15.63-6.57-19.8-18.63c-6.07-17.54-5.7-35.35-2.16-53.26c0.77-3.9,1.96-7.72,3.18-12.47
	c-2.13-2.11-4.4-4.34-6.67-6.59c-2.35-2.33-4.98-4.45-6.97-7.05c-5.32-6.94-2.99-16.33,5.01-20.22c3.58-1.74,7.49-2.8,11.16-4.36
	c4.89-2.08,9.82-4.12,14.53-6.58c12.99-6.8,21.8-17.15,26.37-31.21c8.88-27.29,16.29-54.87,19.93-83.44
	c5.55-43.63,12.69-87,21.84-130.04c11.96-56.24,30.28-110.4,52.19-163.47c44.04-106.68,103.23-204.41,173.95-295.35
	c5.32-6.84,10.8-13.55,16.2-20.32c6.35-7.96,10.5-16.9,12.48-26.92c4.75-24.01,14.92-45.3,31.47-63.56
	c13.47-14.86,25.24-31.08,34.97-48.6c13.26-23.87,25.87-48.11,38.9-72.11c3.61-6.66,5.09-13.25,4.07-21.02
	c-2.63-19.86-3.03-39.89-1.72-59.87c0.55-8.39-1.27-15.72-5.62-22.78c-3.49-5.66-6.45-11.66-9.67-17.49
	c-11.96-21.64-21.6-44.28-29.22-67.8c-1.61-4.98-3.45-9.88-5.36-15.34c-2.37,1.58-4.43,2.31-5.5,3.77
	c-24.01,32.79-48.72,65.15-67.13,101.63c-6.9,13.67-13.59,27.46-20.03,41.36c-8.45,18.23-14.04,37.34-17.66,57.13
	c-2.03,11.11-5,22.07-7.88,33c-2.75,10.43-7.97,19.76-14.18,28.49c-6.35,8.93-11.72,9.79-22.05,4.06c-1.1-0.61-2.3-1.05-3.45-1.56
	c-4.76,0.41-6.25,4.67-8.66,7.64c-14.64,18.1-33.49,30.17-54.68,39.14c-8.54,3.61-16.4,4.75-24.48-1.12
	c-2.58-1.88-6.26-2.19-9.3-3.53c-5.99-2.64-8.73-8.06-7.46-14.67c0.5-2.6,1.6-5.07,2.21-7.65c0.91-3.87,1.95-7.75,2.34-11.69
	c0.6-6.12-0.06-11.66-6.02-15.76c-4.83-3.32-5.77-8.89-4.13-14.39c2.54-8.49,2.75-17,1.75-25.72c-0.97-8.42-4.31-14.96-11.49-20
	c-29.45-20.67-58.78-41.5-89.57-60.21c-29.6-17.98-58.91-36.45-88.24-54.9c-18.67-11.74-36.5-24.58-50.96-41.52
	c-0.86-1.01-1.71-2.36-2.85-2.76c-13.25-4.58-23.28-15.39-36.52-19.57c-51.85-16.36-78.57-64.72-77.59-111.58
	c0.06-2.66,0.17-5.34,0.53-7.98c0.92-6.83-0.58-13.03-3.47-19.31c-8.4-18.25-13.71-37.46-17.3-57.23
	c-6.21-34.18-3.75-67.72,7.19-100.57c2.5-7.5,6.48-14.57,10.29-21.55c1.54-2.81,4.24-5.14,6.78-7.23c6.36-5.23,16.26-5.03,21.9,0.79
	c4.14,4.28,7.58,9.25,11.21,14.01c11.33,14.82,22.54,29.73,33.94,44.5c1.95,2.52,4.57,4.52,6.92,6.8c2.79-3.15,1.38-5.66,0.73-8.11
	c-5.08-19.32-10.28-38.62-15.24-57.97c-2.15-8.38-4.28-16.82-5.58-25.36c-1.1-7.2-1.62-14.61-1.26-21.87
	c0.54-10.64,8.47-16.6,19.22-15.23c3.28,0.42,6.5,1.38,9.69,2.27c13.62,3.77,26.02,10.16,37.73,17.96
	c15.59,10.38,30.06,22.16,42.9,35.8c16,16.99,31.45,34.48,44.45,53.95c2.97,4.45,6.19,8.5,10.71,11.67
	c6.76,4.75,10.35,11.76,13.23,19.49c3.71,9.95,8.14,19.68,12.94,29.17c3.71,7.34,14.62,9.12,20.66,3.82
	c12.2-10.74,21.44-23.69,27.8-38.63c3.13-7.35,5.59-14.99,8.73-22.33c1.81-4.23,3.95-8.46,6.7-12.13
	c4.02-5.37,12.59-6.99,18.05-3.11c4.81,3.41,9.31,7.57,13.05,12.12c7.3,8.88,11.19,19.57,14.59,30.44
	c8.06,25.82,10.01,52.25,8.23,79.08c-0.31,4.65-1.08,9.28-1.23,13.94c-0.12,3.94-0.4,8.13,0.72,11.81
	c3.48,11.46,2.46,22.41-2.43,33.1c-2.67,5.84-2.57,11.44-0.13,17.34c5.87,14.17,12.29,27.93,21.15,40.65
	c11.8,16.94,22.52,34.62,33.78,51.94c3.21,4.94,6.69,9.72,10.02,14.54c10.81-6.96,16.21-14.03,18.34-25.26
	c2.74-14.39,4.67-28.94,7.38-43.34c4.3-22.91,8.79-45.79,16.07-68.02c7.92-24.18,18.25-47.28,32.08-68.62
	c6.49-10.02,9.4-20.38,8.56-32.07c-0.53-7.31-0.55-14.68-1.48-21.94c-2.5-19.35-1.44-38.57,1.19-57.78c0.53-3.9,1.04-7.8,1.51-11.35
	c-14.31-13.96-14.98-16.97-8.02-35.24c1.42-3.73,3.23-7.33,4.5-11.11c2.2-6.52,3.19-12.54-3.13-18.14
	c-5.1-4.52-4.21-11.05-1.43-16.72c3.85-7.85,9.31-14.63,15.9-20.38c18.41-16.05,39.64-24.54,64.26-21.9
	c12.77,1.37,25.11,0.35,37.74-1.46c21.78-3.12,43.54-5.91,64.56-12.81c3.09-1.01,6.58-1.16,9.87-1.1c7.23,0.11,12.83-3.2,17.73-7.93
	c11.48-11.08,22.84-22.29,34.57-33.76c-2.41-22.57-4.8-44.98-7.25-67.89c-3.49-2.09-6.78-4.25-10.24-6.1
	c-11.28-6.04-20.81-14.35-30.11-22.97c-3.42-3.17-6.77-6.42-10.07-9.72c-4.41-4.42-9.28-7.39-15.92-6.76
	c-7.61,0.72-12.47-3-15.58-9.89c-5.52-12.21-11.43-24.26-5.42-37.58c-5.26-4.5-9.3-7.91-13.28-11.38
	c-10.63-9.28-19.74-19.89-26.72-32.14c-3.28-5.75-6.07-11.88-8.28-18.12c-5.59-15.72-5-20.21,3.37-36.1
	c-0.91-2.89-1.78-6.09-2.91-9.18c-3.04-8.3-5.08-16.43-0.51-25.06c1.63-3.07-0.15-6.52-3.03-8.74c-2.11-1.62-4.32-3.13-6.61-4.48
	c-18.64-10.95-33.9-25.74-47.84-42.03c-19.63-22.93-35.91-48-48.15-75.62c-8.7-19.65-14.8-39.98-14.97-61.71
	c-0.09-11.36,0.49-22.6,4.24-33.52c9.43-27.49,28.78-35.55,54.88-22.26c14.41,7.33,26.52,17.81,37.39,29.68
	c3.59,3.92,6.66,8.32,10.05,12.43c19.93,24.13,20.68,22.44,45.42,21.3c18.66-0.86,37.3-1.09,55.73,2.92
	c1.14,0.25,2.51-0.59,4.1-1.01c-0.54-1.81-0.73-3.82-1.67-5.38c-6.1-10.16-8.71-20.76-5.25-32.49c1.62-5.5-0.34-10.48-3.3-15.14
	c-5.03-7.88-10.54-15.26-17.66-21.54c-21.36-18.84-45.71-32.05-73.02-39.94c-24.35-7.03-49.23-11.6-74.15-15.98
	c-30.82-5.41-61.67-10.6-91.79-19.41c-20.59-6.02-40.09-14.47-58.62-25.11c-29.62-17-52.05-41.26-69.61-70.26
	c-4.14-6.84-7.95-13.87-11.9-20.83c-18.32-32.24-25.32-67.1-23.5-103.84c0.8-16.1,4.44-31.74,11.72-46.19
	c3.56-7.07,8.02-13.87,13.11-19.92c3.28-3.91,8.09-7.01,12.82-9.15c9.74-4.41,19.52,2.54,18.95,13.14
	c-0.21,3.95-1.07,7.92-2.06,11.77c-5.32,20.5-4.65,40.89,0.91,61.2c9.93,36.27,28.17,67.43,56.92,92.1
	c8.13,6.98,16.85,13.07,26.48,17.77c2.27,1.11,4.83,1.6,8.13,2.66c0.58-3.41,1.33-5.87,1.37-8.35c0.14-10,0.04-20,0.06-30
	c0.02-14.19,3.23-27.78,8.36-40.88c1.92-4.9,4.76-9.56,7.86-13.85c1.86-2.58,4.74-4.79,7.64-6.19c8.12-3.9,17.13-0.57,19.33,7.81
	c1.69,6.44,2.92,12.99,4.32,19.5c4.65,21.61,11.51,42.42,22.48,61.71c2.96,5.21,6.32,10.19,9.55,15.24
	c3.78,5.93,8.56,9.93,16.24,9.75c5.3-0.12,10.62,0.8,15.94,1.17c7.31,0.51,14.65,0.78,21.94,1.46c6.56,0.61,13.08,1.63,18.76,2.36
	c5.33-3.59,5.63-8.43,6.67-12.84c3.25-13.79,8.88-26.48,17.13-38.01c3.92-5.48,8.34-10.49,14.45-13.53c2.91-1.45,6.16-2.56,9.37-3
	c6.94-0.97,13.86,3.43,15.2,10.07c1.18,5.82,1.41,11.86,1.79,17.82c0.82,12.63,1.37,25.27,2.25,37.89
	c0.47,6.69,2.08,13.13,6.09,18.94c13.09,6.2,26.58,11.92,39.41,18.87c12.22,6.62,23.74,14.53,36.29,22.32
	c2.24-2.67,4.68-4.9,6.3-7.61c9.74-16.33,15.23-34.05,15.83-53.05c0.34-10.64-0.4-21.31-0.5-31.97c-0.05-4.63-0.18-9.34,0.54-13.89
	c1.15-7.17,10.18-12.13,16.97-9.84c5.83,1.96,10.61,5.5,14.87,9.83c10.42,10.6,18.53,22.86,23.69,36.71
	c14.24,38.23,12.13,75.7-6.53,112.11c-0.3,0.59-0.63,1.17-0.95,1.76c-6.13,11.4-5.48,13.59,6.98,18.97
	c6.31,2.72,11.5,6.57,15.76,11.87c5.83,7.26,11.74,14.45,17.75,21.83c2.74,0.37,5.33,0.99,7.93,1.04c14.1,0.3,27.87,2.54,41.21,7.05
	c7.23,2.45,14.05,2.26,21.44-0.01c21.22-6.49,30.16-7.55,53.77-8.17c3.75-4.74,7.9-9.89,11.96-15.13
	c7.02-9.05,14.43-17.33,26.35-20.25c4.75-1.16,6.78-7.21,4.92-11.46c-0.8-1.82-1.77-3.58-2.74-5.31
	c-17.43-31.16-20.88-64.19-12.82-98.62c3.85-16.45,11.37-31.29,21.82-44.53c5.37-6.8,11.33-13.1,19.5-16.81
	c8.58-3.89,18.49,0.72,19.92,10.08c0.79,5.15,0.36,10.58-0.18,15.82c-1.7,16.72-1.12,33.28,2.62,49.69
	c2.84,12.45,7.43,24.19,14.71,34.76c1.06,1.54,2.78,2.63,4.89,4.56c4.48-2.77,8.99-5.39,13.31-8.28
	c16.68-11.14,34.1-21.03,52.99-27.74c8.9-3.16,12.54-8.91,14.1-17.41c2.17-11.84,3.47-23.71,3.35-35.76
	c-0.07-7.32-0.13-14.69,0.54-21.97c1.03-11.32,11.08-17.24,21.79-13.29c7.14,2.63,12.46,7.6,17,13.47
	c7.83,10.15,13.11,21.62,16.95,33.77c1.8,5.7,3.25,11.52,4.79,17.03c1.51,0.77,2.72,1.94,3.84,1.86c17.92-1.4,35.82-2.96,53.73-4.49
	c1.99-0.17,3.98-0.43,5.97-0.59c4.27-0.33,7.48-2.45,10.04-5.77c7.36-9.54,13.51-19.82,18.45-30.8
	c7.14-15.83,12.86-32.13,16.03-49.27c1.21-6.55,2.52-13.1,4.32-19.5c2.86-10.2,13.37-11.97,20.96-7.69
	c5.43,3.06,8.73,8.12,11.45,13.53c6.68,13.29,10.31,27.41,10.7,42.27c0.26,9.99,0.02,20,0.12,30c0.04,3.91,0.41,7.81,0.61,11.39
	c5.04,2.17,8.49-0.55,11.82-2.42c20.04-11.3,36.63-26.56,50.31-44.97c15.31-20.6,25.87-43.53,31.71-68.47
	c4.3-18.38,4.7-36.97-0.09-55.45c-1-3.86-2.13-7.75-2.49-11.69c-1.03-11.38,9.54-18.76,20.03-13.91c3.56,1.65,6.85,4.11,9.86,6.68
	c6.19,5.27,10.38,12.14,13.99,19.31c6.65,13.23,10.89,27.25,12.13,42c3.33,39.49-3,77.08-23.21,111.69
	c-7.05,12.07-13.99,24.26-21.92,35.75c-19.37,28.04-45.09,48.64-75.73,63.48c-28.45,13.78-58.62,21.72-89.43,27.63
	c-29.42,5.64-58.95,10.67-88.33,16.51c-17.62,3.5-34.98,8.09-51.67,15.07c-19.92,8.32-37.74,19.81-53.56,34.35
	c-4.85,4.45-8.71,10.03-12.75,15.3c-5.46,7.13-8.98,14.65-5.19,24.05c2.35,5.83,0.96,11.86-1.5,17.5
	c-2.12,4.86-4.43,9.64-6.99,15.17c1.96,0.55,3.69,1.64,5.11,1.33c17.11-3.69,34.42-3.55,51.76-2.9c2,0.08,4,0.12,5.99,0.22
	c22,1.12,23.52,2.2,40.66-18.76c11.48-14.04,23.36-27.33,38.19-37.81c7.67-5.42,15.8-9.88,25.1-11.91
	c16.51-3.61,28.93,1.77,36.83,16.56c8.09,15.15,10.21,31.57,8.98,48.47c-1.27,17.41-5.42,34.18-12.1,50.31
	c-15.49,37.43-37.8,70.34-66.16,99.15c-8.9,9.04-18.69,17.07-29.61,23.66c-3.97,2.4-7.83,5.06-11.36,8.06
	c-1.31,1.11-2.63,4.16-2.03,5.26c6.7,12.17,1.18,23.3-2.41,34.63c-0.19,0.61-0.08,1.31-0.15,2.67c8.76,11.45,7.22,24.1,2.34,37.22
	c-6.67,17.95-17.87,32.63-31.63,45.55c-4.35,4.08-9.09,7.75-13.03,11.08c-3.16,4.52-0.93,8.48-0.64,12.32
	c0.96,12.78-5.13,23.18-11.36,33.36c-1.43,2.34-5.75,4.49-8.45,4.18c-9.89-1.13-16.41,3.82-22.7,10.22
	c-13.6,13.87-28.56,26.01-46.4,34.91c-4.44,10.79-2.08,22.37-3.75,33.42c-1.69,11.17-2.92,22.41-4.4,34.06
	c2.82,3.15,5.29,6.2,8.06,8.95c8.52,8.45,17.14,16.79,25.74,25.15c5.41,5.26,11.42,8.7,19.41,8.88c5.19,0.12,10.42,1.75,15.5,3.18
	c23.83,6.73,48.37,9.38,72.79,12.5c8.45,1.08,17.25-0.58,25.89-0.85c29.4-0.94,53.03,10.6,71.4,33.3c2.08,2.58,4.08,5.37,5.41,8.38
	c3.15,7.15,3.87,14.12-2.87,20.04c-1.42,1.25-2.24,3.16-3.19,4.55c0.05,7.25,2.84,13.34,5.2,19.54c1.42,3.73,3.04,7.4,4.27,11.2
	c2.7,8.31,1.79,15.78-5.54,21.58c-1.54,1.22-2.9,2.65-5.06,4.65c0.52,5.43,0.71,11.38,1.71,17.2c3.08,17.91,2.69,35.81,0.73,53.79
	c-0.93,8.6-1.47,17.25-1.89,25.89c-0.4,8.22,1.85,15.71,6.39,22.69c4.36,6.69,8.33,13.66,12.16,20.67
	c16.08,29.5,26.67,61,33.16,93.85c4.39,22.21,8.25,44.54,11.92,66.88c1.95,11.87,8.19,20.66,17.43,28.94c2.31-2.42,4.36-4,5.7-6.06
	c15.68-23.98,31.27-48.02,46.82-72.09c2.16-3.35,4.3-6.78,5.87-10.43c3.93-9.16,7.53-18.46,11.19-27.5
	c-1.01-3.05-1.63-5.65-2.7-8.04c-5.11-11.4-6.56-23.09-2.37-35.01c1.66-4.72,0.88-9.1,0.2-13.72c-4.54-30.85-1.67-61.2,7.25-90.92
	c2.47-8.22,6.35-16.09,10.24-23.8c3.31-6.58,8.21-12.1,14.22-16.54c8.49-6.28,18.55-4.39,23.82,4.95c2.6,4.61,4.37,9.69,6.4,14.61
	c2.79,6.77,5.24,13.69,8.23,20.37c5.81,12.96,14.41,23.95,24.76,33.57c6.77,6.29,18.01,4.84,22.11-3.33
	c4.77-9.5,9.06-19.3,12.75-29.26c2.87-7.75,6.64-14.63,13.49-19.28c4.59-3.12,7.6-7.4,10.57-11.8
	c13.09-19.42,28.5-36.91,44.56-53.86c12.89-13.6,27.32-25.41,42.96-35.73c11.74-7.74,24.16-14.12,37.83-17.73
	c3.84-1.01,7.76-2,11.7-2.3c7.95-0.6,14.07,4.24,16.18,11.96c1.44,5.27,1.57,10.51,0.45,15.82c-3.71,17.59-7.17,35.23-11.21,52.73
	c-2.39,10.37-5.79,20.51-8.54,30.8c-1.35,5.02-3.26,10-2.6,16.25c1.95-0.83,4.05-1.05,4.95-2.21c11.1-14.15,22.04-28.43,32.98-42.71
	c4.46-5.82,8.49-11.98,13.26-17.52c7.15-8.31,18.61-8.32,26.43-0.42c5.74,5.8,9.38,12.88,12.21,20.43
	c5.89,15.66,9.82,31.78,11.42,48.47c3.76,39.33-2.52,77.08-18.29,113.2c-3.57,8.16-4.97,15.94-4.15,25.01
	c4.53,49.77-26.24,97.85-73,114.58c-6.96,2.49-13.73,4.59-19.33,9.79c-2.85,2.64-6.58,4.84-10.29,5.94
	c-7.37,2.18-12.82,6.47-17.81,12.12c-10.2,11.56-22.25,21.05-35.08,29.54c-7.22,4.78-14.42,9.61-21.77,14.19
	c-26,16.21-51.93,32.54-78.13,48.42c-31.38,19.02-61.25,40.25-91.19,61.38c-5.26,3.71-8.32,8.52-9.65,14.56
	c-2.03,9.21-2.87,18.44,0.43,27.59c2.84,7.87,1.23,14.35-5.88,19.21c-3,2.05-4.33,5.15-4,8.62c0.5,5.25,1.33,10.48,2.24,15.68
	c0.68,3.91,2.25,7.74,2.46,11.65c0.26,4.88-1.63,9.15-6.48,11.41c-1.21,0.56-2.47,1-3.7,1.52c-20.58,8.75-20.65,8.72-41.02-1.11
	c-17.03-8.22-32.1-18.93-44.01-33.81c-2.47-3.08-5.16-5.98-8.11-9.39c-2.67,1.76-4.69,3.48-7.01,4.55
	c-7.24,3.32-13.42,2.12-17.89-3.66c-7.4-9.57-13.08-20.17-16.35-31.81c-3.06-10.89-5.95-21.89-7.83-33.03
	c-3.02-17.87-8.22-34.98-15.35-51.58c-15.56-36.23-34-70.87-56.84-103.08c-9.64-13.59-19.38-27.11-29.19-40.57
	c-1.87-2.56-3.37-5.87-8.15-5.89c-0.76,1.14-2.19,2.5-2.68,4.14c-9.75,32.75-23.89,63.58-40.99,93.07
	c-5.18,8.94-7.24,17.88-6.87,28.4c0.65,18.61-0.32,37.3-1.24,55.92c-0.37,7.54,0.48,14.28,3.87,21.18
	c13.53,27.53,28.34,54.35,44.03,80.68c8.56,14.36,18.48,27.82,29.96,39.91c16.18,17.03,24.48,37.97,30.33,59.9
	c3.52,13.18,8.84,24.75,17.41,35.4c65.43,81.35,121.35,168.74,165.41,263.48c25.59,55.03,47.65,111.47,63.18,170.27
	c11.75,44.5,19.95,89.72,26.67,135.21c2.82,19.11,5.43,38.26,8.44,57.34c3.43,21.8,10.48,42.68,17.28,63.57
	c4.08,12.51,12.36,22.04,24.1,28.19c5.88,3.08,12.05,5.6,18.14,8.26c3.05,1.33,6.32,2.18,9.29,3.65c7.47,3.68,9.91,13.91,4.45,20.54
	c-3.72,4.52-8.49,8.17-13.09,12.5c1.53,7.69,3.26,15.42,4.57,23.21c2.49,14.75,1.03,29.23-3.85,43.34
	c-4.26,12.34-4.74,12.74-18.84,18.2c-4.66,7.21-9.2,14.54-14.06,21.64c-3.08,4.51-7.26,7.58-12.87,8.76
	c-3.87,0.81-7.68,2.23-11.28,3.89c-5.12,2.37-10.11,3.14-15.38,0.69c-2.52-1.18-5.02-1.13-7.68-0.1c-2.45,0.95-5.24,2.28-7.62,1.88
	c-9.98-1.68-16.55,3.76-22.58,10.19c-4.09,4.36-7.72,9.18-11.31,13.97c-4.79,6.4-9.37,12.96-14,19.48
	c-10.89,15.3-23.66,28.83-38.24,40.65c-10.87,8.81-21.22,18.39-32.74,26.26c-13.48,9.21-17.28,22.33-15.13,36.62
	c4.26,28.39,11.37,56.18,25.88,81.44c3.98,6.93,7.97,13.89,12.42,20.52c20.82,30.97,40.86,62.5,64.84,91.2
	c10.19,12.2,16.8,25.53,15.83,41.87c-0.12,1.96,0.5,3.96,0.68,5.95c0.67,7.19,4.14,12.53,10.52,15.93c2.35,1.25,4.68,2.64,7.18,3.48
	c9.77,3.27,17.49,9.32,24.44,16.76c3.1,3.32,6.95,6.2,10.93,8.42c46.67,26.02,85.43,61.18,118.92,102.47
	c25.4,31.32,45.41,65.74,59.32,103.62c3.21,8.74,6.1,17.65,8.44,26.65c2.73,10.47-2.63,18.37-13.46,20.39
	c-4.56,0.85-9.26,1.21-13.91,1.23c-17.32,0.07-34.63-0.09-51.95-0.17c-19.99-0.09-39.97-0.26-59.96-0.27
	c-41.32-0.02-82.64,0.03-123.96,0.07c-16,0.01-31.99,0.16-47.99,0.04c-6.65-0.05-13.31-0.46-19.94-1.02
	c-5.34-0.45-10.7-1.41-14.89-5.1c-5.45-4.8-11.98-5.11-18.73-5.46c-15.97-0.82-31.94-1.85-47.88-3.09
	c-5.26-0.41-10.65-1.13-15.62-2.78c-6.07-2.02-10.52-6.52-9.94-13.41c0.88-10.55-3.07-19.51-7.58-28.53
	c-12.03-24.06-28.17-45.18-46.05-65.08c-1.78-1.98-3.66-3.92-5.78-5.5c-3.28-2.44-7.03-4.05-11.22-2.9
	c-18.18,5.02-35.49,11.62-48.3,26.5c-2.6,3.02-5.36,5.96-8.4,8.52c-8.35,7.03-20.41,4.74-25.48-4.91
	c-1.83-3.49-3.07-7.36-4.11-11.19c-4.26-15.68-4.67-31.53-1.93-47.55c6.95-40.72,22.22-78,45.75-111.93
	c9.69-13.97,9.75-14.02,7.33-29.43c-3.41-21.76-8.53-43.15-15.37-64.06c-2.88-8.82-6.9-17.32-11.04-25.65
	c-3.55-7.14-7.46-14.23-12.16-20.65c-20.28-27.68-28.33-59.93-35.4-92.6c-0.7-3.25-0.84-6.61-1.35-9.9
	c-2.14-13.61,1.68-25.19,12.3-34.03c18.18-15.13,24.72-35.71,27.89-57.99c0.19-1.32,0.27-2.65,0.37-3.98
	c1.27-17.28,2.75-34.54,3.75-51.84c1.08-18.69,3.66-37.14,8.41-55.23c1.86-7.06,4.32-14.01,7.11-20.77
	c5.72-13.83,14.55-25.37,26.75-34.2c3.21-2.32,6.47-4.56,9.25-6.51c0.9-5.44-2.6-8.06-4.93-11.14
	c-16.44-21.82-33.41-43.26-49.37-65.43c-36.69-50.95-68.43-104.88-95.37-161.61c-5.72-12.04-11.59-23.99-17.55-35.91
	c-22.3-44.61-55.15-79.67-96.92-106.59c-1.67-1.07-3.5-1.93-5.33-2.7c-1.21-0.51-2.56-0.68-3.9-1.01
	c-37.76,18.46-68.92,45.16-95.39,77.51c-4.15,5.07-7.34,11.07-10.27,16.99c-13.04,26.25-25.51,52.79-38.76,78.93
	c-33.27,65.62-73.76,126.61-119.1,184.46c-6.11,7.8-12.97,15.08-17.47,22.76c0.01,4.54,2.69,5.62,4.84,6.97
	c17.77,11.14,28.81,27.25,35.23,46.94c5.81,17.83,9.49,36.05,10.84,54.74c1.34,18.61,2.69,37.23,3.9,55.85
	c0.83,12.71,3.1,25.09,7.17,37.17c3.68,10.93,9.2,20.65,17.82,28.48c2.96,2.69,5.83,5.49,8.49,8.46c6.56,7.34,9.88,16.15,8.4,25.8
	c-5.51,35.71-12.92,70.96-34.25,101.26c-22.02,31.28-32.59,66.79-39.42,103.75c-1.69,9.14-2.69,18.4-4,27.61
	c3.25,4.75,6.2,9.14,9.24,13.48c22.46,32.16,37.3,67.56,44.73,106.02c3.57,18.51,3.96,37.11-1.5,55.42
	c-1.13,3.79-2.56,7.61-4.6,10.97c-4.58,7.52-15.75,9.68-22.87,4.46c-3.19-2.34-6.1-5.22-8.61-8.28
	c-12.94-15.78-30.76-22.82-49.61-28.05c-4.2-1.17-7.92,0.32-11.16,2.89c-2.08,1.65-4,3.54-5.78,5.5
	c-17.99,19.81-34.06,41-46.09,65.04c-4.49,8.97-8.74,17.9-7.89,28.46c0.56,6.93-3.81,11.4-9.87,13.45
	c-4.96,1.68-10.34,2.48-15.59,2.88c-15.95,1.21-31.92,2.09-47.89,3.01c-6.69,0.38-13.02,0.97-18.83,5.36
	c-3.52,2.65-8.39,4.08-12.86,4.77c-7.21,1.1-14.58,1.49-21.88,1.57c-30.66,0.32-61.31,0.63-91.97,0.55
	c-34.66-0.09-69.31-0.68-103.97-0.88c-12.65-0.07-25.31,0.46-37.96,0.52c-17.98,0.09-35.97,0.14-53.95-0.12
	c-4.6-0.07-9.3-0.92-13.73-2.2c-7.09-2.06-11.87-10.26-9.93-17.4c2.62-9.63,5.62-19.18,9.03-28.56
	c13.57-37.28,33.33-71.05,58.01-102.09c25.06-31.52,53.88-59.06,86.42-82.68c9.14-6.64,18.87-12.52,28.62-18.27
	c6.9-4.07,13.76-7.8,19.04-14.21c5.59-6.78,13.13-11.24,21.55-13.97c13.33-4.33,19.23-14.16,18.63-27.43
	c-0.72-15.85,5.97-28.27,15.58-39.87c24.72-29.83,45.3-62.59,67.01-94.56c20.32-29.92,30.74-63.5,36.21-98.63
	c1.94-12.42-0.55-25.17-12.23-33.94c-11.18-8.41-21.87-17.47-32.79-26.22c-17.29-13.85-32.26-29.84-44.83-48.09
	c-4.92-7.14-9.85-14.31-15.35-21c-4.19-5.09-9.05-9.73-14.09-14c-2.4-2.03-5.87-3.73-8.93-3.84c-5.36-0.2-10.53-0.12-15.57-2.53
	c-1.45-0.69-3.96,0.16-5.72,0.92c-5.33,2.33-10.35,1.75-15.37-0.83c-1.77-0.92-3.6-2.19-5.49-2.35c-13-1.12-19.63-10.14-25.53-20.14
	C272.3,2671.67,270.47,2668.11,268.05,2663.69z"/>
</svg>
