<?xml version="1.0" encoding="utf-8"?>
<!-- Generator: Adobe Illustrator 24.0.2, SVG Export Plug-In . SVG Version: 6.00 Build 0)  -->
<svg version="1.1" id="Layer_1" xmlns="http://www.w3.org/2000/svg" xmlns:xlink="http://www.w3.org/1999/xlink" x="0px" y="0px"
	 width="2289.98" height="2762.54" viewBox="0 0 2289.98 2762.54" style="enable-background:new 0 0 2289.98 2762.54;" xml:space="preserve">
<g>
	<path d="M984.92,1952.21c-3.54-3.73-6.63-4.37-9.91-0.94c-0.92,0.96-1.7,2.36-2.82,2.73c-1.82,0.6-3.87,0.5-7.38,0.86
		c-3.12,2.53-7.53,6.08-11.9,9.67c-4.37,3.59-8.8,6.91-9.88,13.24c-0.54,3.2-3.36,5.58-6.6,6.78c-3.68-1.28-5.31-4.04-6-7.49
		c-0.91-4.57-2.43-9.13-2.51-13.72c-0.28-15.3-3.54-30.24-4.94-45.4c-0.55-5.93-1.1-11.85-3.11-18.06c-0.42,1.24-1.26,2.5-1.18,3.71
		c0.58,8.63,0.48,17.23-0.69,25.82c-2.05,15.04-8.9,22.03-24.07,25.09c-7.78,1.57-15.52,3.44-23.14,5.65
		c-2.98,0.86-5.58,3.04-8.62,4.77c-3.4-3.96-7.8-1.76-12.15-0.83c-4.21,0.9-8.45,1.62-14.54,2.76c6.27-6.58,11.57-11.63,16.24-17.21
		c4.69-5.6,9.17-11.48,12.99-17.71c3.99-6.5,7.44-13.4,10.44-20.41c2.79-6.51,7.21-12.58,7.32-21.9c-6.8,6.68-9.47,14.28-14.19,20.4
		c-4.88,6.34-9.36,12.94-15.75,17.93c-6.29,4.91-12.33,10.15-18.83,14.75c-6.23,4.4-12.68,8.6-19.46,12.06
		c-7.08,3.62-14.56,6.53-22.05,9.23c-7.41,2.67-15.06,4.68-23.19,5.72c10.72-7.72,21.91-14.87,32.02-23.32
		c10.35-8.65,20.72-17.56,28.54-28.85c-3.09-2.56-4.78-0.69-6.52,0.85c-10.2,9.07-20.4,18.13-30.58,27.22
		c-12.82,11.43-27.76,19.39-43.38,26.13c-6.3,2.72-12.83,1.22-20.4-0.38c7.05-5.06,14.63-7.9,20.09-13.96
		c-3.34-2.01-5.46-0.58-7.82,0.8c-6.3,3.68-12.68,7.21-19.13,10.62c-2.01,1.06-4.27,1.95-6.51,2.24
		c-16.03,2.06-32.06,4.18-48.15,5.72c-4.21,0.4-8.46-0.34-12.3,2.1c-0.5,0.32-1.38,0.41-1.95,0.22c-8.01-2.69-13.98,1.32-19.83,5.87
		c-0.76,0.59-1.77,0.87-2.69,1.23c-0.27,0.11-0.64-0.03-1.86-0.13c0.38-2.05,0.5-4.14,1.17-6.04c3.23-9.22,9.84-16.25,15.58-23.86
		c3.72-4.94,7.11-10.13,9.98-15.85c-2.83,0.9-4.74,2.79-6.6,4.75c-10.72,11.27-21.19,22.81-32.26,33.73
		c-8.33,8.2-18.52,13.97-28.98,19.13c-3.13,1.55-6.31,3-11.52,5.48c4.79-6.12,8.12-10.37,12.65-16.15
		c-3.48,0.23-5.74-0.31-6.59,0.55c-5.4,5.39-10.66,10.96-15.63,16.76c-2.66,3.1-5.65,5.36-9.2,7.36
		c-11.23,6.32-23.11,11.61-33.97,19.66c0.57-1.55,0.68-3.61,1.77-4.57c14.12-12.48,23.16-28.99,34.88-43.35
		c7.33-8.98,15.68-17.19,24.14-25.15c15.03-14.13,32.07-25.81,48.24-38.56c28.27-22.3,51.52-49.03,67.31-81.75
		c11.09-22.97,26.28-43,43.12-62.07c17.67-20.02,36.61-38.61,57.75-54.82c16.63-12.75,33.61-25.13,51.09-36.66
		c28.87-19.05,58.4-37.09,87.41-55.95c12.23-7.95,24.2-16.4,35.55-25.55c7.93-6.4,14.4-14.58,21.89-21.57
		c6.54-6.09,8.69-14.87,14.17-21.56c2.3-2.81,3.98-6.12,6.18-9.03c7.32-9.69,12.14-20.58,15.65-32.12c0.96-3.14,1.99-6.31-0.64-9.86
		c-1.3,2.31-2.1,4.76-3.73,6.37c-1.59,1.56-4.01,2.3-6.09,3.34c-13.95,6.98-27.64,14.56-41.93,20.77
		c-19.52,8.5-39.87,14.57-60.79,18.96c-16.79,3.52-33.67,4.16-50.59,3.56c-9.87-0.35-19.82-2.13-29.46-4.44
		c-16.17-3.88-32.2-8.54-47.38-15.49c-9.03-4.13-18.17-8.24-26.54-13.51c-9.54-6.01-18.69-12.81-27.27-20.12
		c-22.11-18.83-47-31.97-75.5-38.92c1.22-0.67,2.26-1.24,3.54-1.94c-0.84-3.16-3.72-3.42-6.09-3.9c-5.54-1.13-10.17-3.78-15.04-6.64
		c-14.91-8.73-30.48-16.33-45.52-24.85c-7.08-4.01-15-6.9-21.64-14.06c2.45-0.37,4.01-1.07,5.3-0.73c6.07,1.58,12.07,3.44,19.12,5.5
		c-0.41-2.97-0.74-5.27-1.11-7.96c4.35,0.27,7.37,5.34,12.8,3.81c-0.87-1.38-1.2-2.37-1.88-2.88c-1.86-1.39-3.77-2.76-5.83-3.82
		c-16.31-8.39-23.77-21.78-24.95-40.02c-1-15.47,3.6-28.01,14.59-38.54c0.71-0.68,1.57-1.24,2.42-1.76
		c0.53-0.33,1.18-0.49,2.52-1.02c-3.59,7.08-7.52,13.41-10.06,20.26c-2.54,6.84-2.85,14.13,1.96,21.94c0.83-1.99,1.8-3.14,1.61-4.05
		c-2.65-12.96,2.7-23.57,10.25-33.18c5.74-7.29,12.43-13.82,18.68-20.71c1.33-1.47,2.57-3.02,4.41-5.21
		c-6.24-10.96-12.55-22.03-19.42-34.09c8.85-0.05,13.16,5.2,17.75,10.27c4.81,5.31,4.15,12.18,6.14,19.16
		c1.31-1.08,2.9-1.74,3.35-2.85c4.49-11.1,9.44-21.89,16.2-31.89c6.17-9.12,13.92-16.83,20.86-25.26c0.93-1.13,2.41-1.8,4.9-3.6
		c-5.61,19.25-9.07,37.15-3.61,55.53c2.48-7.11,1.09-14.57,1.87-21.83c0.86-7.95,2.51-15.69,5.6-23.1
		c2.94-7.03,5.84-14.07,9.02-21.75c3.27,0.29,6.07,0.54,8.8,0.78c6.19,15.33,6.27,30.48,3.98,45.73c-0.8,5.29-0.99,10.27,1.09,17.67
		c6.9-13.94,6.48-29.28,19.05-38.06c3.12,2.13,2.47,4.53,1.47,7.09c-3.65,9.28-7.16,18.62-10.9,27.86
		c-3.79,9.38-4.83,19.25-5.48,29.2c-0.03,0.45,0.73,0.95,1.62,2.03c1.55-1.66,3.21-3.11,4.49-4.85
		c16.69-22.74,34.34-44.7,54.16-64.78c7.69-7.79,16.17-14.87,24.75-21.69c16.44-13.07,31.96-27.17,46.3-42.44
		c11.42-12.15,20.14-26.42,28.27-40.96c15.86-28.39,26.55-58.66,33.24-90.45c2.08-9.88-2.03-17.31-8.19-25.27
		c-5.03,0.39-10.26,0.8-15.48,1.21c-7.26,0.57-14.55,1.41-21.77-2.65c1.61-3.47,5.86-0.64,7.68-3.88c-0.98-0.94-1.98-2.18-3.24-3.05
		c-1.63-1.12-4.14-1.51-5.09-2.98c-4.03-6.19-9.92-7.2-16.72-7.43c2.22-0.42,4.44-0.83,8.05-1.51
		c-5.72-6.37-10.72-11.95-15.18-16.91c-5.96-0.19-10.19,7.26-14.94,1.62c1.86-7.88,3.73-15.13,5.26-22.46
		c3.76-17.95,13.17-32.55,26.69-44.55c4.45-3.94,9.75-6.89,15.95-7.63c2.27-0.27,4.5-0.95,7.15-1.53
		c-4.71-6.03-9.69-11.23-13.23-17.27c-3.49-5.95-5.53-12.75-8.31-19.42c1.09-1.35,2.31-2.84,3.23-3.99
		c1.04-5.96-6.26-10.22-2.25-16.45c6.37,0.58,10.22,7.49,18.16,7.09c-3.07-4.69-5.65-8.64-8.87-13.56
		c11.52-1.24,21.41-4.72,30.34-9.9c1.68-6.01-4.55-9.14-3.94-14.82c0.54-4.99-1.09-10.21-1.76-15.32c-4.51-2.64-7.15,2.56-10.9,2.76
		c-5.85-13.73-1.96-22.72,16.2-36.72c-7.27-1.68-14.18-2.59-20.57-4.93c-6.83-2.49-13.22-6.23-19.71-9.6
		c-6.15-3.19-12.79-5.82-16.23-12.6c0.52-1.64,1.08-3.43,1.74-5.53c1.79,0,3.75-0.13,5.69,0.02c11.06,0.87,21.92-0.12,32.54-3.43
		c5.57-1.74,6.51-2.89,6.26-8.47c-0.1-2.3-0.72-4.59-1.12-6.87c-1.63-9.13-3.26-18.25-4.91-27.37c-0.24-1.3-0.31-2.76-0.97-3.83
		c-4.06-6.45-1.41-11.32,3.44-15.77c1.69-1.55,3.36-3.14,5.5-5.13c-0.66-1.41-1.34-2.84-2.29-4.87c-13.67,0-27.47,0-42.61,0
		c1.6-1.89,2.3-3.45,3.46-3.96c10.02-4.44,20.23-8.35,31.15-10.06c3.21-0.5,6.35-1.51,9.75-2.34c-3.36-5.17-10.85-3.03-13.37-9.37
		c8.56-1.75,16.52,0.61,24.5,2.12c7.57,1.43,14.19,6.38,23.71,7.01c-3.22-7.24-6.07-13.11-8.45-19.16
		c-2.53-6.45-4.78-13.03-6.85-19.65c-2.25-7.21-1.79-14.61,0.48-21.65c2.8-8.71,4.1-18.17,11.01-25.13c0.45-0.46,0.6-1.2,1.01-1.72
		c4.61-5.91,6.12-13.55,11.43-19.2c5.18-5.51,9.45-11.89,14.11-17.89c0.2-0.26,0.41-0.54,0.55-0.83
		c3.39-7.15,8.35-12.95,14.09-18.44c5.49-5.25,9.82-11.71,14.56-17.72c4.99-6.33,10.27-12.5,12.21-21.39c2.26,1.17,4,1.87,5.52,2.89
		c5.53,3.7,10.84,7.74,16.51,11.2c5.73,3.5,12.1,5.07,19.94,4.7c-7.47-9.38-14.39-18.07-21.41-26.88c1.77-4.74,2.96-9.39,1.14-14.53
		c-0.79-2.24,0.01-5.04,0.09-7.57c5.66-1.03,9.16,1.95,12.65,4.22c7.23,4.71,14.02,10.1,21.29,14.75c6.24,4,12.87,7.38,21.05,2.91
		c1.4-3.92,2.53-8.44,4.57-12.5c3.42-6.8,7.16-13.47,11.3-19.86c1.71-2.64,4.7-4.49,7.25-6.52c11.59-9.25,25.16-13.62,39.64-14.7
		c7.95-0.59,15.96,1.09,22.99,5.34c3.87,2.34,6.84,1.75,9.87-1.91c-3.64-10.73-6.09-21.85-1.51-34.06c1.75,0.81,3.71,1.17,4.85,2.34
		c3.46,3.57,6.6,7.46,9.88,11.21c2.64,3.02,5.3,6.02,10.01,5.65c1.86-17.77,3.46-35.45,5.68-53.05c0.74-5.85,2.57-11.68,4.74-17.19
		c4.38-11.1,9.23-22.02,14.1-32.92c1.34-3.01,3.21-5.85,5.19-8.5c5.77-7.7,11.74-15.24,17.58-22.88c0.99-1.3,1.73-2.79,3.07-4.99
		c-4.99-6.86-9.58-14.2-15.18-20.67c-15.25-17.61-31.16-34.52-49.8-48.81c-11.13-8.54-23.38-15.27-34.67-23.41
		c-14.1-10.18-30.1-16.94-44.62-26.23c-14.84-9.48-29.56-19.6-39.44-34.72c-7.61-11.65-14.12-23.76-17.79-37.56
		c-3.82-14.35-5.5-28.64-5.36-43.38c0.09-9.1,3.46-16.86,7.94-24.34c0.72-1.21,2.52-1.77,4.61-3.15c1.21,3.4,2.5,6.03,3.07,8.81
		c3.84,18.66,11.05,36.25,17.1,54.19c3.58,10.61,11.01,18.94,18.2,27.22c9.68,11.14,20.93,20.53,33.72,27.94
		c4.86,2.82,10.04,5.09,15.53,7.83c3.01-3.74,3.16-8.18,3.77-12.2c1.04-6.86,3.99-12.9,8.14-18c9.34-11.48,20.16-21.27,34.79-25.84
		c5.2-1.62,6.94-1.93,16.42-0.67c-0.73,2.18-0.96,4.53-2.16,6.2c-6.95,9.7-10.25,20.82-12.81,32.2c-1.53,6.8-2.36,13.75-3.79,20.58
		c-1.15,5.52,0.45,10.61,2.1,15.64c0.54,1.65,2.31,3.22,3.91,4.14c2.87,1.65,6.08,2.7,9.08,4.14c9.87,4.73,19.72,9.51,29.57,14.31
		c4.2,2.05,6.01,1.78,8.46-1.83c1.3-1.91,2.36-4.02,3.28-6.15c7.93-18.39,23.19-29.67,39.27-39.95c5.65-3.61,12.32-4.91,19.03-3.97
		c2.86,1.77,3.47,4.23,2.53,7.01c-3.09,9.12-5.67,18.49-9.61,27.24c-5.83,12.97-8.28,26.6-10.02,40.49
		c-0.84,6.75,1.18,11.98,6.94,16.42c13.02,10.03,24.1,22.06,32.54,36.23c4.93,8.27,9.13,16.96,13.65,25.47
		c0.74,1.4,1.43,2.83,2.29,4.54c5.84-2.79,9.09-7.3,11.68-12.4c4.07-8,7.9-16.14,12.21-24.02c2.54-4.65,5.56-9.08,8.78-13.28
		c3.15-4.12,6.79-3.93,9.67,0.32c2.64,3.9,4.08,8.24,4.34,13.08c1.92,35.49-6.48,67.96-27.7,96.83c-8.87,12.07-8.96,13-7.17,30.16
		c1.85-5.23,5.58-7.85,9.9-9.47c4.96-1.86,10.05-3.53,15.21-4.69c7.07-1.59,14.26-2.62,21.58-3.92c1.36,4.69-5.58,7.05-2.22,12.62
		c2.99-4.05,5.58-7.75,8.39-11.27c0.97-1.22,2.34-2.33,3.77-2.91c1.08-0.44,2.54,0.06,4.75,0.2c-5.73,6.35-11.65,11.7-13.74,21.87
		c2.84-2.34,4.32-3.27,5.44-4.53c4.4-4.94,8.42-10.26,13.11-14.89c3.31-3.27,7.73-4.73,12.94-3.82c-0.39,1.36-0.36,2.67-0.96,3.11
		c-7.37,5.41-11.89,13.31-17.47,20.24c-5.68,7.06-8.58,15.67-11.12,24.26c-0.72,2.46-0.47,5.3-0.21,7.92
		c0.24,2.43,1.56,4.83,4.34,4.56c7.35-0.71,9.79,4.27,11.99,9.69c0.86,2.13,1.62,4.3,2.59,6.89c7.06-0.12,12.2-7.99,20.5-5.66
		c-3.57,8.39-13,11.3-17.2,19.57c9.66,1.08,19.59-0.15,25.21,8.76c5.22,0.51,6.56-3.35,8.63-6.18c5.68-7.79,10.76-16.1,17.09-23.31
		c7.93-9.04,15.78-17.81,17.13-30.42c9.56-22.56,21.85-43.31,40.15-60c7.4-6.75,15.5-12.58,24.57-16.92
		c5.68-2.72,8.1-2.89,14.27-1.34c1.78,3.97,0.78,7.66-0.87,11.48c-4.46,10.33-8.74,20.75-13.06,31.15c-0.47,1.12-0.7,2.34-1.34,4.52
		c2.4-0.43,4.12-0.33,5.42-1.02c12.14-6.5,25.6-7.72,38.77-8.02c10.65-0.24,16.08-6.34,21.83-13.19c5.06-6.03,6.82-13.62,9.54-20.74
		c2.84-7.45,5.41-15.01,8.2-22.48c0.43-1.16,1.4-2.12,2.46-3.66c8.69,7.24,10.11,17.25,12.03,26.74c1.99,9.83-0.49,19.67-2.94,30.41
		c3.76-0.4,6.46-0.15,8.73-1.03c11.47-4.41,22.78-9.24,34.25-13.64c3.39-1.3,5.45-3.67,7.33-6.42c5.56-8.16,7.9-17.43,9.3-27.04
		c0.85-5.8,1.95-11.55,3.06-18.08c14.63,5.48,15.79,18.26,18.86,30.37c12.23-6.84,22.02-15.66,30.93-25.57
		c8.12-9.05,14.28-19.03,16.82-31.25c1.2-5.75,4.2-11.19,6.77-16.58c1.7-3.56,5.89-3.67,7.94-0.2c1.29,2.19,2.17,4.89,2.36,7.43
		c0.77,10.4,0.1,20.71-4.7,30.2c-5.38,10.65-10.91,21.23-16.79,31.61c-5.82,10.28-14.57,18.21-23.37,25.76
		c-21.3,18.3-44.61,33.55-70.84,43.99c-11.09,4.41-22.05,9.18-33.29,13.16c-8.42,2.98-17.22,4.86-25.79,7.44
		c-4.92,1.48-9.72,3.38-14.66,5.12c3.22,12.79,1.87,25.97-1.33,38.87c-4.8,19.35-11.19,38.19-19.09,56.58
		c-6.46,15.04-14.13,29.36-22.42,43.37c-9.75,16.47-22.18,30.75-37.03,42.88c-1.93,1.58-3.73,4.06-6.88,2.12
		c12.86-12.35,15.62-17.72,12.94-27.25c-0.87,2.53-1.53,3.94-1.84,5.43c-2.28,11.07-9.96,16.81-19.88,20.44
		c-3.66,1.33-7.25,2.84-11.52,4.52c6.38,2.53,6.57,2.92,8.46,1.92c5.93-3.14,11.47-1.48,17.45,1.02c-0.53,8.2,8.2,11.33,10.02,18.15
		c3.56,1.25,6.67,2.34,10.08,3.54c-1.76,3.25-3.4,6.29-5.37,9.93c-3.88-1.53-7.38-2.92-11-4.35c-2.6,5.22,2.93,5.14,4.32,7.76
		c-2.69,2.95-5.36,6.01-8.22,8.89c-0.51,0.51-1.76,0.22-2.65,0.43c-7.29,1.68-14.97,2.2-20.68,8.18c-1.48,1.55-4.05,2.37-6.27,2.87
		c-5.83,1.3-11.7,2.68-17.62,3.18c-5.69,0.48-11.18-0.98-15.93-6.37c-1.49,3.53-2.76,6.09-3.66,8.79c-0.73,2.19-1.12,4.52-1.5,6.81
		c-2.32,14-9.94,24.34-21.61,32.12c-5.71,3.81-11.03,8.19-17.31,12.9c9.44,2.18,14.92-4.9,23.15-7.85c0.49,0.91,1.26,2.32,1.9,3.51
		c11.88-2.11,13.71-14.77,23.2-21.43c-0.48,3.8-0.42,6.1-1.1,8.16c-1.99,5.99-3.74,12.16-6.59,17.73
		c-2.62,5.12-2.97,10.11-1.98,15.43c1.54,8.29,1.39,16.44-0.27,24.77c-1.87,9.42-6.27,16.12-15.1,20.65
		c-17.32,8.89-35.45,14.89-54.66,17.78c-0.91,0.14-1.79,0.65-2.63,1.09c-0.18,0.09-0.13,0.62-0.3,1.67
		c4.11,0.38,8.19,0.75,13.19,1.21c-0.54,2.1-0.42,4.45-1.48,5.26c-5.13,3.93-11.17,5.53-17.57,6.43c-8.2,1.16-16.32,2.91-24.44,4.58
		c-1.55,0.32-3.2,1.21-4.35,2.32c-10.49,10.1-21.9,19.33-27.97,33.28c-2.61,6-6.92,11.23-9.83,17.12c-2.32,4.71-3.67,9.89-5.32,14.5
		c5.69,8.09,11.19,15.47,16.2,23.18c4.28,6.6,4.84,13.73,1,20.86c-3.13,5.82-6.36,11.59-10.04,18.29
		c2.87,3.31,6.23,7.18,10.19,11.73c2.04-7.32,3.79-13.58,5.53-19.83c-0.61,12.8,1.18,25.3,3.57,37.61
		c1.7,8.76,3.59,17.45,4.07,26.37c0.19,3.52,0.03,7.07,0.03,11.58c10.83-4.41,19.13-13.01,31.09-14.52
		c-3.81,5.04-7.62,10.08-11.43,15.12c0.31,0.42,0.62,0.84,0.93,1.26c1.35-0.54,2.84-0.87,4.04-1.65c8.35-5.35,16.28-11.5,25.06-16
		c9.68-4.96,18.19-12.51,29.54-14.1c4.22-0.59,6.63-3.2,8.58-7.28c4-8.36,8.63-16.47,13.61-24.29
		c13.39-21.02,32.5-34.71,56.11-42.15c8.85-2.79,17.82-5.35,26.87-7.38c10.18-2.29,20.5-1.21,30.73,0.22c1.21,0.17,2.33,0.99,4.58,2
		c-6.12,2.99-11.53,5.17-16.45,8.15c-4.86,2.94-10.66,5.03-14.12,11.1c1.97,0.36,2.87,0.68,3.76,0.65
		c14.29-0.34,28.61-1.54,42.84-0.89c14.99,0.69,29.43,4.52,42.48,13.89c-2.02,4-5.64,4.88-8.81,6.32
		c-10.28,4.68-20.91,8.69-30.11,15.48c-0.98,0.72-1.9,1.52-3.97,3.19c5.68,1.03,10.11,1.62,14.45,2.65
		c20.46,4.87,37.03,14.96,48.42,33.47c7.43,12.07,11.85,25.16,16.42,38.3c0.74,2.12,0.66,4.52,1.11,7.96
		c-17.69-10.98-36.1-11.4-54.5-7.81c-14.4,2.81-27.49,9.34-38.54,19.74c1.31,2.2,2.37,3.84,3.3,5.55c2.7,4.93,2.08,9.64-1.25,14
		c-2.41,3.15-4.85,6.3-7.56,9.17c-4.19,4.44-5.77,9.78-5.36,15.59c0.79,11.25,1.14,22.62,3.17,33.66
		c4.44,24.26-5.1,42.3-24.03,55.98c-13.95,10.08-30.34,14.68-47.62,18.07c2.67,4,8.91,4.65,10,10.91c-1.36,0.25-2.96,1.09-4.07,0.66
		c-4.62-1.78-9.11-3.84-15.29-3.39c2.35,2.75,4.25,4.98,6.74,7.89c-3.38,0-6.04,0.77-7.85-0.14c-5.87-2.97-11.97-2.58-17.46-0.45
		c-7.45,2.88-14.21,7.45-18.87,14.24c-3.37,4.91-6.12,10.25-9.3,15.3c-2.12,3.37-4.44,6.62-6.83,9.81
		c-1.99,2.66-4.33,5.07-6.31,7.74c-8.49,11.45-8.29,11.41-3.12,24.85c5.88,15.29,13.5,29.6,22.21,43.46
		c4.94,7.86,9.01,16.29,13.15,24.62c8.45,16.97,16.88,33.95,24.95,51.1c5.09,10.83,9.67,21.91,14.19,33
		c2.37,5.8,4.67,11.74,2.97,19.07c5.4,1.88,10.6,3.81,15.87,5.51c20.84,6.71,41.8,13.1,62.54,20.1
		c15.09,5.09,29.97,10.85,44.86,16.52c9,3.42,17.91,7.09,26.75,10.92c10.98,4.75,21.82,9.81,32.75,14.69
		c20.65,9.22,40.07,20.7,59.56,32.1c18.69,10.93,36.84,22.68,53.82,36c26.52,20.8,50.34,44.26,68.41,73.19
		c15.81,25.32,20.47,52.61,14.99,81.4c-2.66,13.97-7.67,27.58-12.43,41.06c-5.99,16.96-14.5,32.71-23.92,48.1
		c-7.26,11.86-13.75,24.18-21.83,35.56c-12.11,17.06-24.51,33.84-38.39,49.57c-14.48,16.41-28.24,33.48-41.97,50.53
		c-3.89,4.84-6.6,10.63-10.18,16.52c0.45,1.98,1.02,4.52,1.57,6.96c1.11,0.68,1.87,1.39,2.76,1.67c14,4.35,28.13,7.41,42.96,7.94
		c24.26,0.86,48.45-0.21,72.64-1.15c31.82-1.24,63.64-2.29,95.45-1.23c20.45,0.68,40.95,1.96,61.14,6.01
		c20.2,4.05,40.42,8.07,59.97,14.68c7.23,2.45,14.04,6.08,21.13,8.95c2.71,1.1,5.69,2.32,8.5,2.21c17.3-0.66,33.7,4.07,49.85,8.99
		c23.87,7.27,46.94,16.81,69.6,27.39c15.3,7.15,28.74,16.88,41.21,27.86c20.08,17.68,36.86,38.31,51.09,61
		c7.49,11.94,12.14,25.15,16.84,38.26c1.85,5.15,2.92,11.63,1.45,16.66c-2.06,7.06-5.32,14.89-13.14,17.8
		c-23.96,8.92-47.74,18.18-73.62,20.86c-18.04,1.87-35.77-0.42-53.63-0.84c-19.78-5.91-40.8-6.1-60.33-13.2
		c-2.47-0.9-5.2-1.48-7.82-1.48c-19.91-0.03-38.71-5.27-57.27-11.8c-4.3-1.51-8.5-3.64-14.02-3.07c1.58,6.67,8.73,9.39,9.86,15.88
		c-4.77,4.08-10.51,2.56-15.3,1.86c-9.46-1.38-19.04-2.33-28.2-5.84c-9.81-3.76-18.55-9-26.32-15.85
		c-5.21-4.59-9.91-9.75-14.83-14.66c-7.63-7.61-17.38-12.13-26.24-17.95c-10.29-6.75-20.66-13.39-30.93-20.17
		c-21.61-14.26-42.95-28.98-64.88-42.73c-11.49-7.2-24.63-11.04-37.74-14.65c-6.31-1.74-12.31-4.67-18.41-7.14
		c-1.53-0.62-2.87-1.79-4.43-2.28c-13.58-4.3-27.2-8.48-40.79-12.73c-27.74-8.68-56.39-12.45-85.07-16.28
		c-23.71-3.17-47.25-7.39-70.16-14.61c-10.25-3.23-19.63-8.08-28.6-13.83c-1.38-0.89-2.7-1.98-3.79-3.21
		c-3.02-3.4-3.18-6.42,0.07-9.65c4.47-4.43,9.17-8.67,14.08-12.61c2.4-1.93,3.25-3.93,2.61-7.21c5.38,0.07,9.52-2.32,12.98-6.21
		c1.43-1.6-1.9-4.46,1.76-5.39c1.89-0.48,3.72-1.5,5.37-2.58c7.81-5.14,15.19-10.65,19.66-19.32c3.79-7.35,5-15.1,4.58-23.14
		c-1.77-33.89-27.39-56.26-58.15-63.3c-2.39-0.55-5.02-0.07-8.03-0.07c1.74,2.3,3.06,4.06,5.19,6.87
		c-10.76-1.07-20.45-1.66-30.01-3.09c-10.1-1.51-19.87,0.92-29.7,1.91c-9.54,0.97-18.93,3.52-28.34,5.58
		c-9.45,2.07-18.87,4.27-27.45,9.7c3.36-0.39,6.73-0.78,10.09-1.18c-6.43,6.23-15.25,4.88-22.54,8.45
		c-7.1,8.48-14.61,16.89-21.49,25.79c-12.8,16.57-25.07,33.55-37.86,50.13c-10.55,13.68-21.67,26.91-32.25,40.55
		c-9.62,12.4-21.08,22.95-32.24,33.87c-8.9,8.7-19.07,15.61-29.51,22.09c-15,9.3-30.83,17.05-47.45,23.16
		c-21.97,8.07-44.75,12.53-67.79,16c-15.77,2.37-31.47,5.18-47.23,7.61c-19.75,3.06-38.99,8.22-58.14,13.79
		c-4.09,1.19-8,2.98-11.98,4.5c-0.73,5.09,1.29,8.97,2.7,12.99c6.81,19.52,16.42,37.7,26.31,55.79
		c9.13,16.71,20.46,31.84,31.95,46.9c15.55,20.37,33.24,38.83,50.63,57.6c17.4,18.76,34.46,37.87,50.94,57.44
		c15.23,18.08,28.44,37.78,39.5,58.63c6.62,12.48,12.73,25.55,14.49,40.09c1.29,10.68,7.13,18.31,19.22,19.31
		c3.61,0.3,7.9,0.92,11.22,4.72c-2.45,1.59-4.56,2.97-6.33,4.12c-0.51,5.62-1.16,10.86-1.39,16.12c-0.1,2.23,0.33,4.64,1.15,6.72
		c3.78,9.55,8.28,18.84,11.6,28.53c6.03,17.6,10.29,35.55,11.37,54.34c0.8,13.97,1.63,27.87,0.7,41.83
		c-1.45,21.95-7.46,42.5-19.36,61.09c-7.54,11.77-16.14,22.72-25.78,32.93c-5.42,5.74-9.79,12.46-14.67,18.79
		c-6.33-3.46-12.25-7.08-18.49-9.98c-5.38-2.5-11.01-4.71-16.76-6.14c-9.97-2.49-20.15-4.16-30.19-6.4
		c-12.39-2.76-24.24-6.81-35.22-13.5c-12.48-7.61-25.7-14.04-37.99-21.93c-19.37-12.43-35.29-28.13-43.33-50.47
		c-3.87-10.76-5.32-21.95-6.34-33.21c-1.05-11.58-2.12-23.17-2.53-34.79c-0.2-5.72-2.39-9.77-7.16-12.14
		c-3.6-1.79-5.48-4.37-6.69-7.99c-2.66-7.93-6.81-14.58-12.9-20.81c-12.3-12.59-16.44-28.52-13.73-46
		c2.41-15.52,6.92-30.39,13.6-44.64c1.37-2.91,2.36-6.4,2.2-9.56c-0.77-14.46,3.23-27.83,10.25-39.97
		c4.76-8.25,4.67-16.22,3.57-24.92c-1.51-11.96-4.82-23.48-8.84-34.73c-7.49-20.95-15.21-41.8-25.86-61.47
		c-9.56-17.66-20.81-33.99-34.75-48.47c-12.2-12.67-24.14-25.58-36.42-38.18c-11.35-11.65-23.36-22.67-34.4-34.58
		c-17.82-19.23-35.51-38.65-50.54-60.22c-5.14-7.37-9.32-15.48-7.48-25.64c6.7-5.79,15.06-8.94,23.55-11.7
		c12.1-3.93,24.65-5.36,37.29-5.94c19.41-0.88,37.41-6.49,53.24-17.51c8.89-6.19,16.85-13.93,24.4-21.76
		c6.89-7.14,13.03-15.08,18.84-23.15c6.87-9.56,11.14-20.29,11.9-32.26C983.59,1960.22,984.41,1956,984.92,1952.21z M973.43,1272.42
		c-1.61,2.11-2.87,3.56-3.89,5.16c-4.81,7.51-9.33,15.21-14.38,22.55c-8.25,12-16.9,23.72-25.19,35.68
		c-1.83,2.65-3.62,5.64-2.48,9.2c4.64,4.46,10.35,4.35,15.93,3.5c8.52-1.31,17.05-2.75,25.39-4.88c8-2.04,15.86-4.08,23.57-1.72
		c3.36-10.73,6.47-20.67,9.62-30.74c-3.67-5.59-7.51-11.36-11.28-17.17c-3.82-5.91-5.18-13.23-10.23-18.95
		c-0.88,1.76-1.45,2.89-1.96,3.91C976.99,1276.99,975.43,1274.99,973.43,1272.42z M1333.87,1042.61c2.44-0.59,3.73-0.72,4.86-1.2
		c11.31-4.79,22.62-9.59,33.88-14.5c1.79-0.78,3.87-1.68,4.94-3.16c5.68-7.81,7.19-16.39,4.51-26.27
		c-11.87,9-22.95,17.41-32.83,24.9C1348.4,1032.86,1339.05,1035.05,1333.87,1042.61z"/>
</g>
</svg>
