<?xml version="1.0" encoding="utf-8"?>
<!-- Generator: Adobe Illustrator 24.1.3, SVG Export Plug-In . SVG Version: 6.00 Build 0)  -->
<svg version="1.1" id="Layer_1" xmlns="http://www.w3.org/2000/svg" xmlns:xlink="http://www.w3.org/1999/xlink" x="0px" y="0px"
	 viewBox="0 0 593.53 925.79" enable-background="new 0 0 593.53 925.79" xml:space="preserve">
<g>
	<g>
		<path d="M85.47,906.93c1.26-1.48,3.28,1.26,3.96-1.59c-2.43-0.41-2.64-1.89-2.18-4.28c1.43-7.53,2.39-15.15,3.76-22.7
			c0.76-4.15,2-8.22,2.99-12.33c1.31-5.41,1.02-6.16-3.53-9.27c-0.45-1.36,1.41-1.64,1.38-2.89c-1.56-1.98-4.03-3.91-0.86-6.62
			c0.31-0.26,0.55-0.93,0.44-1.29c-2.3-7.28,2.34-13,4.67-19.04c4.97-12.89,11.13-25.25,18.72-36.87c1.37-2.09,2.08-4.71,2.18-7.43
			c0.21-6.06,1.59-11.98,2.54-17.96c0.94-5.95,1.65-11.94,2.55-18.59c-2.33,2.76-2.24,6.34-5.59,8.03
			c-0.72-2.21-0.46-3.84,0.24-5.83c2.94-8.41,5.56-16.93,7.95-25.61c-2.16,2.86-3.53,6.26-6.46,8.57c-0.37-1.6-0.28-3.03,0.32-4.65
			c0.53-1.42,1.6-2.98-0.04-4.89c-1.12-1.3,0.33-3.39,1.08-4.89c2.47-4.97,4.93-9.98,7.86-14.68c1.71-2.74,2.16-6.03,4.37-8.63
			c-5.98,2.92-12.36,3.86-18.59,5.25c-4.41,0.98-8.84-0.35-13.11-1.06c-7.33-1.22-14.81-2.15-21.62-5.7
			c-3.75-1.96-7.32-3.96-10.75-6.52c-9.25-6.92-18.52-13.81-26.14-22.53c-4.04-4.62-7.75-9.76-12.67-13.23
			c-6.15-4.34-9.72-10.68-14.44-16.07c-4.89-5.58-6.19-13.2-8.16-20.19c-1.72-6.09-3.74-12.13-4.51-18.51
			c-1.4-11.5-2.77-22.9-0.97-34.54c2.03-13.16,7.13-25.05,14.19-36.07c3.28-5.12,8.34-8.69,15.11-8.4c2.12,0.09,4.18-0.41,6.27-0.69
			c11.64-1.55,19.99,3.87,26.65,12.92c2.01,2.74,3.48,6.56,7.97,6.26c0.53-0.04,1.04-0.42,1.82-0.75
			c-0.11,5.83,1.29,11.41,1.19,17.21c-0.23,13.86-2.63,27.38-5.49,40.86c-1.81,8.49-0.26,16.16,4.91,23.28
			c6.74,9.28,15.31,16.71,25.59,21.06c9.89,4.19,20.76,5.26,30.61-1.5c4.98-3.42,10.13-6.7,14.64-10.68
			c6.19-5.45,10.96-12.27,14.66-19.57c1.85-3.64,2.49-8.11,2.79-12.27c0.51-6.93,2.75-13.42,4.29-20.09
			c1.8-7.81,3.25-15.62,4.11-23.63c0.68-6.38,0.07-12.82,1.53-19.21c0.74-3.25-0.27-7.22-0.91-10.7c-1.34-7.29-0.5-14.56-0.83-21.83
			c-0.04-0.98-0.01-1.97-0.01-2.89c-4.65-1.33-7.68-5.98-7.33-10.93c0.08-1.15,0.37-2.3,0.31-3.44
			c-0.71-13.23,2.19-26.01,4.92-39.29c-9.01,2.14-17.92,1.65-26.79,2.12c-4.83,0.26-9.99-2.34-14.86,1.66
			c-0.2,1.62-0.33,4.45-1.9,5.7c-2.17,1.72-5.18,2.48-7.93,3.34c-2.41,0.76-3.99-0.9-5.51-2.52c-5.34-5.7-8.16-12.76-10.89-19.88
			c-0.57-1.49-0.4-3.04-3.19-2.9c-1.77,0.08-3.75-2.23-3.86-5.02c-0.17-4.33,0.43-8.75,1.4-12.73c1.9-7.8,0.21-15.17-0.85-22.64
			c-0.26-1.82-0.21-3.44-0.01-5.03c-0.47-1.1-1.33-0.76-2.09-0.77c0.31-4.13-3.52-4.46-5.51-6.55c-2.25-2.37-3.71-6.69-2.6-10.05
			c2-6.06,1.96-12.42,3.69-18.47c2.42-8.49,3.21-17.3,4.75-25.95c0.54-3.04-0.93-6.41,0.4-9.48c0.67-1.56,2.23-2.84,0.34-4.67
			c-1.33-0.64-2.52,1.7-4.16,0.26c-0.48-0.75-0.38-1.5,0.36-2.43c3.49-4.39,8.06-7.52,12.59-10.64c1.86-1.28,2.82-2.66,2.72-4.78
			c-0.66-14.82,3.97-28.77,7.2-42.93c1.04-4.58,2.19-9.25,1.64-13.75c-0.83-6.69,3.28-10.12,7.46-13.5
			c2.38-1.93,5.08-3.54,7.56-5.42c9.14-6.93,20.02-8.96,30.91-11.1c7.98-1.57,16.05-2.77,23.76-5.24
			c1.47-6.85,2.88-13.61,4.41-20.35c0.51-2.26-0.79-3.72-2.04-5.18c1.52-3.22,6.03-3.97,5.77-8.26c-0.06-1.09,0.5-2.2-0.43-3.15
			c-2.18-2.23-2.33-5.32-3.69-8.46c-1.56,1.14-3.31,2.59-5.35,1.24c-1.93-1.28-1.2-3.34-1.14-5.06c0.24-7.54-0.98-15.16,1.83-22.57
			c1.59-4.19,4.07-7.79,6.31-11.55c0.44-0.74,0.87-1.38,0.65-2.72c-2.5-0.47-4.35-2.01-4.24-5.57c2.17-3.18,6.12-4.97,9.91-6.84
			c8.54-4.21,15.99-9.74,21.36-17.66c3.72-5.49,2.64-9.14-2.79-13.04c-7.83-5.62-12.22-12.53-11.74-23.06
			c0.26-5.7,0.26-11.72-0.13-17.62c-0.6-8.88,1.7-17.25,8.91-23.49c1.07-0.93,1.84-2.2,2.73-3.28c2.24-0.13,4.04,1.1,5.48,2.17
			c7.06,5.24,15.25,8.12,23.17,11.52c11.24,4.82,22.85,8.8,33.53,14.84c2.28,1.29,4.32,1.52,6.13-0.33
			c2.78-2.85,6.24-4.86,8.97-7.79c4.13-4.42,5.38-4.11,8.38,1.28c8.03-5.7,15.72-5.69,18.29,0.33c10.85-0.87,21.42,1.14,31.68,4.94
			c3.95,1.46,7.59,3.45,10.71,6.39c2.37,2.23,5.02,3.51,8.4,1.63c2.12-1.18,4.6-1.69,6.75-2.82c2.69-1.42,5.17-1.4,7.99-0.29
			c3.04,1.2,4.9,2.49,5.94,6.21c3.36,11.97,1.78,23.34-2.32,34.67c-0.16,0.45-0.3,1.01-0.64,1.3c-6.43,5.53-4.43,12.91-4.39,19.86
			c0.01,1.65,0.21,3.27-0.31,4.93c-1.53,4.83-3.76,5.55-7.84,2.38c-0.38-0.3-0.8-0.55-1.58-1.08c0.01,2.51-0.68,4.6-1.21,6.73
			c-1,4.07-3.79,5.26-7.34,3.16c-0.14-0.08-0.24-0.23-0.38-0.32c-5.56-3.5-5.56-3.5-9.12,2.43c1.33,0.23,3.66,0.17,4.89-0.13
			c3.81,2.88,1.11,6.5,0.51,9.42c-0.92,4.42-2.07,8.12,1.19,12.36c2.57,3.34,1.73,4.73-2.03,8.27c-1.04,0.98-0.65,2.13-0.69,3.21
			c-0.13,3.61,0.22,7.22-1.05,10.77c-1.63,4.55-3.6,8.78-7.48,11.92c-4.54,3.68-6.75,9.51-11.78,12.8
			c-2.32,1.52-4.31,3.55-6.62,5.09c-2.83,1.89-5.18,4.02-5.72,8.11c4.74,2.39,9.64,5.25,14.66,7.8c6.48,3.29,12.57,7.03,17.56,12.3
			c4.47,4.72,4.43,11.01,3.71,16.72c-0.47,3.71,0.9,5.65,3.31,6.83c6.72,3.29,13.09,7.18,19.18,11.4
			c4.74,3.28,8.94,7.24,12.37,12.33c4.44,6.6,8.53,13.62,14.22,19.32c2.59,2.59,4.48,5.7,7.02,8.32c1.64,1.69,2.86,4.19-0.8,6.17
			c3.58,2.75,7.09,1.81,10.54,1.17c3.44-0.64,6.83-0.88,10.83,0.84c-3.47,1.29-0.39,4.63-2.7,5.95
			c10.42,7.25,20.89,14.46,30.9,22.36c5.96,4.7,11.65,9.58,16.46,15.5c3.32,4.09,6.13,8.44,8.47,13.15
			c1.49,2.99,2.96,5.89,5.67,8.32c3.93,3.52,3.05,8.97,1.66,13.09c-2.04,6.04-0.31,11.63,0.17,17.34
			c0.65,7.64,1.19,15.08-3.75,21.64c-0.7-0.13-0.77-0.57-0.86-1.04c-0.06-0.31-0.21-0.59-0.51-1.37c-1.92,4.18-3.6,8.06-6.46,11.35
			c-5.28,6.06-12.23,9.26-19.41,12.12c-14.24,5.68-29.04,6.36-43.43,1.93c-7.88-2.42-16.19-5.69-21.76-12.75
			c-3.77-4.78-10.04-5.16-14.66-8.47c-1.48-1.06-2.83,0.55-3.87,1.34c-2.41,1.83-4.76,3.47-8.59,2.34
			c1.44,6.3,2.93,11.87,3.96,17.53c2.3,12.66,6.2,24.97,8.01,37.77c0.42,2.96,0.04,6.18,1.52,9.14c1.06,2.12-0.87,4.3-2.02,5.8
			c-1.6,2.09-1.74,4.13-1.78,6.46c-0.06,4.22,0.32,8.49-0.2,12.41c-3.03,0.78-2.23-1.91-3.69-2.46
			c-0.16,10.35,0.94,20.49,1.51,30.65c0.79,14.08,5.94,26.87,8.87,40.28c1.23,5.63,1.74,11.33,2.4,16.98
			c1.44,12.24,2.26,24.57,3.35,36.84c1.31,14.8,0.16,29.56,0.84,44.31c0.09,1.91-1.22,3.42-0.98,5.16c0.76,1.69,2.57,0.43,3.55,1.48
			c0.64,0.85,0.59,2.01,0.3,2.83c-3.57,10.14-4.75,20.87-8.36,31.08c-3.66,10.36-6.38,21.12-9.52,31.7
			c-4.07,13.71-8.46,27.32-11.76,41.25c-0.43,1.83-0.26,3.58-0.09,5.39c0.72,0.07,1.29,0.32,1.66,0.15
			c5.45-2.61,5.43-2.61,8.16,3.17c4.47,9.43,8.44,19.03,11.14,29.16c2.16,8.11,2.59,16.16,0.96,24.35c-0.3,1.53,0.18,2.76,1.54,3.3
			c4.89,1.92,8.37,5.7,12,9.1c6.89-3.15,14.02-3.3,21.19-3.76c5.12-0.33,9.93,0.19,14.76,1.76c2.8,0.91,4.82,2.6,6.33,4.74
			c-0.35,1.8-1.81,0.93-2.51,1.6c0.09,0.27,0.1,0.68,0.3,0.81c4.46,3.02,5.14,8.25,7.1,12.63c3.12,6.97,6.29,14,6.21,21.96
			c-0.03,3.01-1.52,5.06-2.84,7.4c-1.59-0.95-1.14-2.05-1.19-2.96c-0.06-1.03-0.08-2-1.41-2.78c-6.58,5.76-15.05,5.88-23.22,6.5
			c-7.12,0.54-14.35-0.28-21.48,0.23c-6.62,0.47-13.22,0.92-19.86,0.87c-1.64-0.01-3.28-0.07-4.93-0.25
			c-2.84-0.3-6.67-1.69-6.45,3.78c0.04,0.96-1.37,1.79-2.41,2.39c-2.93-0.3-1.82-3.03-2.82-4.88c-5.53,0-11.18-0.06-16.82,0.01
			c-8.7,0.12-17.4,0.68-26.06-0.94c-3.87-0.72-7.87-0.46-11.81-0.8c-8.57-0.73-16.94-2.73-25.51-3.35
			c-3.73-0.27-7.32-1.55-11.06-2.08c-3.13-0.44-5.24-4.47-3.57-6.77c1.9-2.61,1.84-5.6,2.24-8.37c0.57-3.88,1.13-7.74,2.04-11.56
			c0.86-3.59-3.69-10.45-7.21-11.13c-1.8-0.35-2.58,0.63-3.33,2.1c-1.73,3.4-4.28,6.02-8.76,7.9c3.27-5.72,6.41-10.67,7.98-16.23
			c3.25-11.53,5.92-23.24,5.33-35.31c-0.33-6.67-1.98-13.27-2.55-19.95c-0.48-5.74-1.63-11.35-2.38-17.03
			c-1.02-7.78-2.09-15.56-3.43-23.29c-0.65-3.72-0.87-7.48-1.42-11.2c-1.12-7.49-0.17-15.09,0.17-22.6
			c0.16-3.64,2.94-7.16,4.44-10.76c3.52-8.42,6.98-16.86,10.47-25.29c0.25-0.6,0.74-1.19,0.73-1.78c-0.14-9.42,0.89-18.9-1.21-28.23
			c-0.09-0.39-0.69-0.67-1.44-1.35c-1.86,4.31-5.8,6.81-8.24,10.63c-1.27,1.99-4.52,2.19-4.72,5.44c-0.09,1.46-0.74,3.18-0.2,4.38
			c1.82,4.09-0.15,7.62-0.98,11.4c-1.26,5.72-2.3,11.51-3.03,17.31c-0.23,1.82-0.89,3.48-1.19,5.26
			c-1.89,11.23-4.3,22.35-7.96,33.15c-0.62,1.84-1.43,3.67-2.45,5.32c-1.25,2.01-2.29,0.77-3.45-1.01
			c-5.39,11.74-15.29,20.23-20.39,31.87c-1.24,2.83-2.47,5.68-3.63,8.55c-2.41,5.99-0.39,11.55,1.79,17.06
			c0.84,2.13,1.94,4.16,3.11,6.63c0.28,1.18-2.08,1.67-1.78,2.9c1.56,6.45-3.53,9.51-6.9,13.15c-5.17,5.57-9.04,12.23-15.12,17.18
			c0.97,1.87,1.87,3.57,2.72,5.28c1.32,2.64,3.01,4.27,6.34,4.63c3.84,0.42,7.63,1.89,10.94,3.96c2.31,1.44,4.08,3.37,5.15,6.31
			c2.34,6.42,4.97,12.65,6.25,19.47c1.16,6.19-0.44,11.98-2.09,17.52c-0.81,2.72-4.18,5.21-8.47,5.31
			c-5.74,0.13-11.3,2.16-17.05,2.92c-11.09,1.47-22.21,1.19-33.34,1.25c-11.55,0.06-22.9-2.7-34.49-2.02
			c-3.5,0.2-6.11,0.45-6.83,4.42c-0.11,0.58-0.35,1.29-1.37,1.64c-1.87-1.49-0.09-4.07-1.21-5.54c-11.95,2.9-23.44,2.9-34.3-3.52
			c-0.42-0.25-0.79-0.66-1.24-0.78c-1.4-0.39-3.8,0.58-4.13-0.85C90.13,911.58,85.35,911,85.47,906.93z"/>
	</g>
	<g>
		<path fill="#1A1A1A" d="M292.05,679.34c0.21-7.66-1.47-15.12-3.54-22.13c-1.7-5.73-1.39-10.45,0.43-15.62
			c1.23-3.51,2.38-7.04,3.99-10.65c2.68,10.84,6.03,21.41,10.02,31.88c1.24-1.98,1.06-3.89,0.52-5.97
			c-2.84-10.85-6.3-21.61-8.09-32.64c-1.29-7.95-0.7-16.3-0.21-24.42c0.35-5.82,1.94-11.56,3.02-17.57
			c3.8-1.26,7.14-4.66,12.75-2.97c4.25-7.06,13.24-7.21,20.72-10.31c2.41-1,4.79-1.95,6.97-3.49c-1.43-3.21-5.85-2.23-7.49-5.37
			c-0.4-0.76-2.09,0.16-2.95,1.07c-2.63,2.79-6.42,3.89-9.34,6.28c-0.82,0.67-1.83,0.72-2.7-0.1c4.78-13.07,8.23-31.95,6.44-35.07
			c-2.03,0.41-1.65,2.33-2.05,3.6c-3.04,9.62-5.74,19.33-7.64,29.26c-0.36,1.9-0.84,3.92-2.97,4.78c-3.88,1.57-7.77,3.1-11.98,4.78
			c0.06-6.05,1.29-11.66,2.29-17.27c1.47-8.31,3.24-16.55,3.94-24.99c0.14-1.65,0.24-2.95-1.48-3.4c-1.89-0.5-2.22,1.46-2.45,2.46
			c-0.94,3.96-1.76,7.97-2.24,12.02c-1.45,12.34-4.34,24.43-6.23,36.7c-0.53,3.45,0.09,6.84-0.59,10.41
			c-1.83,9.61-3.47,19.27-5.58,28.82c-2.74,12.38-6.14,24.61-10.56,36.54c-1.55,4.17-3.65,8.04-5.73,11.91
			c-0.83,1.56-1.81,3.38-4.26,3.55c-1.8,0.12-3.05,1.97-2.94,3.46c0.43,5.85-3.61,9.61-6.26,14.26c1.58,0.72,2.02-1.53,3.38-1.06
			c-0.08,3.4-1.71,6.41-2.69,9.57c-4.78,15.4-9.16,30.88-11.79,46.84c-0.45,2.74-0.42,5.55-1.17,8.26
			c-1.13,4.07-4.16,6.97-6.45,10.26c-5.64,8.13-11.53,16.11-17.78,23.77c-3.42,4.19-7.26,8.06-10.36,12.54
			c-1.28,1.86-2.36,3.79-3.39,7.05c2.84-2.58,4.83-4.39,7.1-6.46c0.8,6.17-4.41,10.28-4.44,16.23c3.04-1.76,3.31-5.32,6.12-6.82
			c5.09,15.41-0.63,27.57-11.5,38.42c-2.7-1.01-5.22-2.51-7.22-5.45c-3.73-5.47-10.18-5.77-15.89-6.26
			c-11.11-0.95-22.28-1.37-33.47-1.23c-3.42,0.04-6.23,1.79-9.46,2.4c-6.17,1.16-12.57,1.78-18.3,4.91
			c-0.95-2.4-0.66-4.19,0.34-6.08c5.47-10.32,8.08-21.61,11.05-32.79c1.29-4.87,2.59-9.74,4.56-14.39c0.43-1.01,0.62-1.85-0.54-3.32
			c-4.85,9.26-8.41,18.64-10.59,28.54c-2.17,9.84-8.07,18.58-8.72,29.3c-4.55,3-10.36,4.18-15.26,7.24
			c-2.47-5.36-2.2-6.59,2.32-10.1c0.87-0.67,1.06-1.51,1.28-2.54c2.01-9.44,6.36-17.95,10.67-27.6c0.22,2.38,0.35,3.68,0.49,5.2
			c2.44-0.96,2.13-3.55,3.43-5.03c0.99,1.48-0.55,3.8,2,5.03c2.69-1.96,2-5.6,2-7.81c0.01-11.36,2.41-22.5,2.47-33.84
			c0.02-4.65,1.39-9.26,2.16-13.87c0.93-5.62,1.57-11.3,2.61-16.92c1.49-8.02,3.5-15.9,5.37-23.82c0.57-2.41,2.31-4.66,0.87-7.38
			c-0.63-1.19,0.41-2.3,0.98-3.18c6.59-10.13,11.42-21.29,18.42-31.19c0.99,0.51,0.08,1.76,0.81,2.42c0.45,0.23,0.68,0.09,0.61-0.39
			c-0.68-4.78,1.18-8.96,3.19-13.07c1.1-2.24,1.94-4.31,0.34-6.73c-1.28-1.92-0.03-4.05,1.37-4.64c3.15-1.34,3.07-3.95,3.1-6.34
			c0.14-10.19,0.59-20.37,2.19-30.42c0.97-6.11,1.76-12.34,2.39-18.38c1.03-9.92,3.32-19.44,5.52-29.04
			c0.91-3.96,2.09-7.86,3.29-11.75c0.63-2.06,1.73-3.74,5.45-1.83c-2.25-3.63-2.18-5.94,0.09-8.1c1.14-1.09,0.85-2.92-0.11-3.94
			c-3.63-3.87-3.14-8.83-3.69-13.44c-0.96-8,1.13-15.64,3.55-23.18c0.8-2.49,1.53-4.98,1.62-7.76c3.36,0.67,5.74,2.7,8.56,4.44
			c-3.17,13.05-4.75,26.24,0.57,39.55c-4.26,1.97-5.17,6.03-6.13,9.65c-3.62,13.68-7.08,27.42-10.06,41.25
			c-1.62,7.49-2.17,15.21-3.17,22.83c-1.39,10.59-1.67,21.32-3.32,31.84c-0.49,3.14-1.65,6.33-1.69,9.67
			c-0.02,1.66-0.09,3.31,0.95,4.71c-7.12,6.07-12.64,12.77-15.21,22.21c-5.31,19.47-9.56,39.12-12.74,59.03
			c-1.05,6.6-2.25,13.19-1.89,20.92c2.56-5.36,2.98-10.29,3.77-15c2.24-13.36,5.5-26.48,8.39-39.69c2.4-10.96,5.23-21.8,9.68-32.18
			c2.07-4.82,5.53-8.49,9.05-12c1.07-1.07,2.07-1.6,2-3.17c-0.38-8.62,1.77-16.94,2.9-25.39c0.61-4.58,0.43-9.28,1.18-13.83
			c0.9-5.46,1.54-10.99,2.38-16.44c1.66-10.84,4.28-21.43,6.59-32.09c1.83-8.43,4.05-16.77,6.34-25.08
			c0.25-0.91,0.46-4.27,3.24-1.89c0.49-0.97,1.36-1.76,1.35-2.98c-0.03-2.43,0.21-4.87-0.58-7.69c3.55-1.09,7.4-0.93,10.75-2.66
			c9.8-5.09,20.12-9.39,27.69-17.87c0.8-0.9,1.48-1.35,2.39-1.13c6.22,1.55,12.74,0.89,18.93,2.55c5.6,1.5,5.59,1.5,5.83,7.16
			c0.02,0.48,0.17,0.96,0.29,1.62c1.71-2.27,0.19-6.74,4.97-6.7c0.51,0,1.34-2.15,1.52-3.37c0.92-6.49,2.33-12.97,2.13-19.55
			c-0.1-3.53,0.85-6.85,1.12-10.28c0.17-2.22,1.84-2.91,3.56-2.39c7.73,2.33,15.67,1.89,23.71,1.93c1.32,7.16,0.39,14.24,0.68,21.04
			c-0.98,1.44-2.37,0.56-3.66,1.45c5.55,2.15,2.32,7.51,5.25,11.54c-7.63-1.16-14.07-3.47-21.7-4.2
			c10.74,5.97,50.8,11.94,58.6,11.69c-5.3-1.91-10.78-1.96-16.05-3.97c1.04-1.88,0.23-4.02,0.87-6.25
			c6.87,0.53,13.11,4.67,20.25,4.15c-0.07-2.21-1.93-0.78-2.09-2.39c5.37-3.59,12.27-4.9,17.47-9.17c3.42,2.53,6.4,5.11,9.41,7.66
			c2.19,1.85,3.13,4.06,3.61,6.55c2.07,10.73,2.87,21.68,5.77,32.26c0.57,2.06,0.29,4.19,0.66,6.3c0.36,2.02-0.36,3.89,2.36,5.1
			c1.45,0.64,1.16,3.19,1.29,5.03c0.57,8.16,1.1,16.35,1.43,24.5c0.13,3.15,0.72,6.34,0.5,9.51c-0.56,8.21,0.52,16.38,1.18,24.5
			c1.44,17.51,0.81,35.01,0.73,52.5c-0.06,12.49-3.34,24.41-7.27,36.3c-3.91,11.85-7.31,23.9-9.87,36.2
			c-1.46,6.99-3.15,13.98-4.35,21.02c-0.72,4.19-1.38,8.36-2.36,12.5c-1.24,5.26,2.52,9.28,3.48,14.23
			c2.58-1.39,2.26-3.73,2.77-5.77c2.03-0.62,4.05-1.24,6.37-1.95c1.1,7.34,2.49,14.6,4.44,21.73c1.92,7.03,4.12,13.99,6.24,21.12
			c-2.4,1.22-4.41,2.24-6.42,3.27c-1.38,0.3-2.14-0.95-2.78-1.58c-6.28-6.13-13.53-5.56-21.12-3.49c-4.67,1.27-9.39,2.34-14.86,3.69
			c3.89-3.87,8.84-3.36,12.56-5.59c-0.73-1.48-1.88-1.81-3.34-1.35c-14.89,4.66-30.03,8.63-44.06,15.7
			c-1.81,0.91-3.65,1.48-5.63,0.86c-1.9-3.92-3.81-7.79-5.64-11.7c-0.53-1.14-1.42-2.19-0.83-3.69c2.72-6.87,1.39-14.64,4.67-21.42
			c0.37-0.77,0.39-1.96-0.9-3.16c-3.26,3.22-4.79,7.15-4.94,11.59c-0.16,4.48-0.53,8.81-3.41,12.53c-1.34,1.73-0.47,3.41,0.37,5.07
			c2.12,4.22,4.19,8.47,6.23,12.6c-5.63,5.07-6.04,3.1-10.66,0.33c-2.52-1.51-3.69-3.59-0.76-6.37c2.95-2.81,2.19-7.33,1.79-10.4
			c-0.77-5.99-0.75-11.92-0.47-17.8c0.71-14.39-3.53-27.86-6.74-41.55c-1.61-6.85-2.34-13.84-3.45-20.77
			c-0.93-5.81-0.92-11.61-1.02-17.46c-0.11-7.11,3.01-13.3,4.67-19.92c1.25-4.99,5.44-7.52,7.8-11.5c0.25-0.42,0.8-0.67,1-1.1
			c1.3-2.71,1.14-5.77,1.86-8.53c0.66-2.51,4.39-3.89,4.45-7.02c0.09-4.28,2.43-7.33,4.75-10.5c1.71-2.34,2.15-4.71-0.12-6.85
			C295.21,675.38,294.69,678.9,292.05,679.34z M190.75,706.13c0.8-2.72,0.15-5.49-1.1-7.65c-4.75-8.22-8.68-16.85-13.03-25.27
			c-0.44-0.86-1.24-1.7-3.01-2.04c3.35,10.73,8.2,20.11,13.5,29.24c1.11,1.9,1.44,4.47,3.78,5.57c0.21,0.24,0.37,0.58,0.63,0.71
			c12.2,5.77,25.08,7.03,38.36,5.83c2.22-0.2,3.87-0.98,5.46-2.48c4.45-4.22,6.95-9.93,11.15-14.34c1.04-1.1,0.55-2.5-0.89-3.46
			c-0.64,0.24-1.65,0.29-2.05,0.81c-3.27,4.27-6.87,8.38-9.48,13.04c-2,3.58-4.67,4.89-8.25,4.74c-7.76-0.32-15.46-1.17-23.15-2.47
			C198.68,707.68,194.93,705.7,190.75,706.13z M154.41,800.59c-4.58-1.84-6.28-6.5-9.69-9.44c-3.27-2.82-4.61-7.36-8.39-9.73
			c2.78,8.52,8.29,15.24,14.27,21.44c7.31,7.57,16.3,13.03,25.23,18.56c6.02,3.73,12.46,5.79,19.28,7.15
			c1.57,0.31,2.1-0.21,2.54-1.8c-3.07-0.97-6.13-1.91-9.18-2.91c-2.73-0.9-4.59-2.12-7.77-5.07c2.87,0.44,5.6,2.32,8.51-0.18
			c-11.8-2.58-26.82-12.59-32.96-22.08c14.5,11.5,29.48,20.57,47.83,22.19c-27.47-6.31-47.87-23.89-67.59-42.58
			C141.31,785.23,148.1,792.72,154.41,800.59z M359.49,794.91c-7.57,4.85-14.52,9.56-22.4,12.33c-7.78,2.73-15.43,5.93-23.76,7.27
			c4.14-3.82,8.15-7.58,12-11.52c3.78-3.87,8.97-6.42,11.05-11.91c-12.25,8.45-23.51,17.98-33.89,28.77c1.7,1.3,2.88,1.16,3.95,0.81
			c3.55-1.16,7.26-1.89,10.86-2.6c14.26-2.82,27.15-8.66,39.21-16.51C358.16,800.47,360.33,799.22,359.49,794.91z M293.69,793.88
			c-0.8-25.57-0.92-51.17-0.73-76.64c-1.65-0.32-2.63,0.34-2.65,0.96C289.5,743.49,289.05,768.77,293.69,793.88z M290.54,575.43
			c-13.35-13.55-28.12-25.36-44.96-34.44C247.37,543.83,285.22,572.89,290.54,575.43z M334.44,701.23c4.9-0.89,9.8-1.78,15.74-2.86
			c-4.92-1.16-8.59,0.27-12.11,1.11c-4.51,1.08-8.2,0.04-11.39-2.73c-4.06-3.53-7.6-7.67-11.67-11.19
			c-3.38-2.91-6.76-5.88-10.38-8.55c5.72,9.31,14.34,15.9,21.69,23.61c1.49,1.57,4.89,3.86,8.1,3.07
			C335.21,702.64,334.34,701.94,334.44,701.23z M303.69,686.65c-7.5,5.85-14.16,22.02-11.3,27.06c1.95-4.53,3.95-8.91,5.72-13.38
			C299.85,695.92,304.38,692.57,303.69,686.65z M367.6,706.08c-12.1,2.71-23.03,2.21-33.95-0.05
			C341.97,711.19,361.97,711.54,367.6,706.08z M381.91,688.9c-3.73,6-8.5,11.03-14.01,16.74
			C375.35,704.19,382.76,694.96,381.91,688.9z"/>
		<path fill="#1A1A1A" d="M188.9,293.84c-1.06-0.15-2.29-1.98-3.09,0.41c-0.3,0.92-0.84,1.71-0.88,2.76
			c-0.38,10.93-1.49,21.83-0.99,32.79c0.12,2.63,1.04,5.2,0.58,8.12c-9.17,0-18.33-0.15-27.48,0.04
			c-8.83,0.19-17.66-0.59-27.56-0.79c3.84,2.93,7.31,3.84,13.57,3.72c4.35-0.09,8.66,0.53,13.05,0.13c4.6-0.43,9.27-0.1,13.94,0.24
			c-10.81,1.54-21.44,3.95-32.17,5.75c-5.28,0.89-10.36,3.18-15.65,3.7c-3.85,0.38-6.81,2.19-10.04,3.64
			c-1.16,0.52-2.84,1.8-0.52,3.44c-6.8,4.9-13.81,9.22-21.5,13.64c1.33-10.94,2.62-21.11,3.76-31.3c0.2-1.81,0.49-3.95,1.21-5.18
			c3.91-6.68,0.34-14.46,3.6-21.25c1-2.08,0.62-5.13-0.64-7.7c-1.03-2.08-0.44-3.65,1.82-5.14c9.09-5.99,19.34-9.2,29.4-12.9
			c3.45-1.27,6.9-2.55,10.17-4.38c-9.38,0.36-18.06,3.49-27.44,6.7c0.11-7.82-1.4-15.26,2.35-22.13c3.14-5.75,3.31-12.12,4.65-18.28
			c1.6-7.36,4.89-14.18,8.46-20.75c1.45-2.66,5.23-3.47,7.31-5.41c6.07-5.65,11.13-2.89,16.67,0.36c1.98,1.16,3.62,3.09,7.12,3.5
			c-4.24-3.95-7.92-6.77-12.56-8.78c-4.84-2.1-8.68-0.46-12.62,1.45c-2.51,1.22-5.12,1.87-8.41,3.39c0.89-2.57,2.11-3.67,3.39-4.41
			c6.7-3.87,13.05-7.91,21.06-9.64c9.88-2.13,19.96-3.12,29.75-5.59c0.3-0.08,0.66,0.06,1.15,0.12c2.2,3.81-1.83,7.64,0.02,11.61
			c1.7-0.5,2.84-0.26,3.91,1.86c5.18,10.34,12.29,19.3,20.27,27.66c2.95,3.09,5.6,6.49,8.67,9.49c5.04,4.92,8.96,6.39,14.87,6.1
			c9.44-12.62,14.1-27.46,24.53-38.78c4.98,1.73,7.13,5.09,7.27,11.99c0.13,6.49-0.48,13.04,0.17,19.48
			c0.7,6.92-0.66,13.58-1.12,20.36c-0.13,1.92-1.24,3.36-1.97,4.98c-4.64,10.37-9.24,20.62-17.32,29.11
			c-5.93,6.23-11.52,12.96-15.94,20.49c-2.04,3.48-6.1,3.7-9.29,5.13c-4.75,2.14-9.73,3.79-14.29,6.34
			c-3.49,1.95-7.05,2.54-11.39,1.57c4.96-5.54,2.86-11.73,2.3-17.87c-0.38-4.22-0.79-8.46-0.96-12.67
			c-0.24-5.79-1.62-11.46-1.36-17.27c2.1,0.83,2.27,2.56,2.24,4.5c-0.02,0.98-0.57,2.48,1.39,2.59c3.45-13.64,3.28-27.05-1.38-40.48
			c-4.69-13.5-16.95-31.28-23.75-32.58c2.42,3.67,4.61,6.84,6.65,10.11c2.07,3.31,4.42,6.54,5.87,10.12
			c1.36,3.36,3.95,6.37,3.96,10.6c-3.87-3.95-5.67-8.84-8.87-12.72c-3.13-3.79-6.22-7.73-10.42-10.67
			c-0.52,1.13-0.16,1.47,0.12,1.87c6.8,9.76,14.15,19.22,18.97,30.18C187.24,275.62,191.42,284.1,188.9,293.84z"/>
		<path fill="#1A1A1A" d="M229.03,68.06c-12.5-0.94-20.02-9.34-22.26-22.33c-2.36-13.72,1.82-25.79,6.89-37.91
			c0.11-0.27,0.49-0.44,0.97-0.84c10.86,6.66,23.13,10.48,34.84,15.5c11.55,4.95,22.36,11.9,34.84,15.14
			c0.42-2.71-1.8-2.23-2.4-3.72c2.01-2.95,5.94-3.91,7.99-7.27c0.99,2.25-1.17,3.89,0.08,6.23c4.78-4.17,10.88-5.69,15.66-9.38
			c2.13-1.65,3.39-1.22,5.26,0.16c-0.77,2.78-4.09,4.53-3.9,8.53c20.94-9.05,38.09-3.78,52.51,12.55c-9.72-3.16-19.68-1.21-30-1.89
			c1.95,2.86,4.84,3.34,7.2,3.87c4.76,1.07,9.6,1.88,14.51,2.39c5.92,0.61,10.1,4.92,13.34,9.33c8.01,10.87,11.78,23.16,10.12,36.94
			c-4.81-1.74-6-7.14-10.13-9.67c-3.94-2.41-6.37-6.97-11.71-9c1.21,4.58,3.86,7.48,6.55,10.08c5.1,4.93,8.01,10.4,6.03,18.29
			c-6.47-2.15-9.1-9.09-14.83-12.21c-1.55,2.57,0.81,4.06,1.26,5.99c-2.36,3.82-3.34,8.42-6.77,12.07c-3.11-0.8-6.53-1.39-8.99-4.13
			c2.47-0.9,4.11,1.91,6.87,0.78c-1.86-5.18-7.12-6.08-10.83-8.25c-4.07-2.38-7.71-5.35-11.98-7.47c-0.06-3.04,2.64-5.49,1.44-8.71
			c-4.64,0.44-3.39,5.9-6.5,7.51c1.01,4.54,5.44,5.69,9.01,8.68c-3.05,0.98-2.25,4.85-5.04,5.41c-2.39,0.48-4.95,0.1-7.73,0.1
			c-0.66,3.6-2.45,6.54-3.36,9.8c-0.59,2.12-2.16,2.84-3.75,2.18c-3.72-1.53-7.56-0.43-11.7-1.07c0.29-2.49,1.2-4.79,2.14-7.08
			c1.76-4.28,0.83-6.54-3.43-8.05c-2.33-0.82-4.92-1.26-4.45-4.81c0.1-0.73-0.96-1.61-1.49-2.44c10.04-3.28,12.46-6.31,9.05-11.3
			c-0.96-0.13-1.84,0.42-2.05,1.12c-2.42,8.14-8.47,4.77-13.45,4.15c-7.62-0.94-15.18-2.38-22.8-3.3c-2.03-0.25-4.77-1.16-6.21,2.28
			c3.34,2.92,8.28,1.3,11.76,4.13c-1.99,2.45-3.71,5.4-8.77,2.72c2.24,4.77,0.63,8.04-1.02,11.42c-1.66,3.4-2.13,7.14-1.89,10.75
			c-1.92,1.05-3.65,0.26-5.88,1.01c3.37,2.64,6.76,4.48,10.96,6.55c-4.74-0.04-8.2-1.86-11.73-3.31c-1.2-0.49-1.28-1.76-1.33-2.99
			c-0.28-6.48,0.39-12.81,3.08-18.77c0.81-1.81,1.7-3.55-0.59-4.62c-1.93-0.9-2.63,0.71-3.72,2.15c-3.23,4.27-3.31,9.46-4.64,14.26
			c-0.4,1.43-1,2.66-1.48,4.01c-7.37-3.68-13.49-10.52-23.52-8c1.43-1.43,1.58-3.32,3.63-4.06c1.7-0.61,3.26-1.6,4.16-3.34
			c0.16-1.35-1.38-1.79-1.6-2.96c3.19-5.15,3.09-11.23,4.59-16.87c1.31-4.91,2.41-6.24,7.5-6.47c1.13-0.05,2.3,0.18,3.32-0.39
			c0.56-3.22-3.08-1.87-3.78-3.66c4.02-0.09,6.46-2.59,8.77-5.49c-1.54-1.01-3.47,0.26-4.82-1.45c3.4-4.82,8.19-6.48,14.34-6.02
			c-2.85-3.3-6.65-3.1-9.41-5.85c4.51-0.14,7.6,2.9,11.61,3c3.79,0.1,7.55,1.48,12.37,0.17c-3.29-1.96-6.05-2.57-8.76-3.34
			c-3.11-0.88-6.31-1.58-9.26-2.83c-6.86-2.9-10.69-9-14.63-14.81c-3.19-4.71-5.87-9.77-8.85-14.63c-2.07-3.38-4.18-3.45-6.97-0.59
			c-0.97,1-1.67,2.17-2.01,3.34c-1.56,5.36-3.18,10.8-2.25,16.45c0.68,4.12,2.35,7.98,4.28,11.67c-2.07-10.59-0.9-22.25,3.24-28.38
			c5.66,9.44,10.82,19.11,18.46,27.18c-1.49,0.81-2.75,1.23-3.02,2.82c-0.41,2.38,2.43,2.35,3.19,4.53c-1.98,1.84-4.13,3.69-6.1,5.7
			c-1.61,1.65-3.24,2.11-5.3,0.93c-1.55-0.89-3.18-1.61-4.7-2.61c-1.74-1.13-3.5-2.82-6.7-2.26c3.22,3.88,6.77,6.56,10.99,7.29
			C226.87,63.36,227.4,66.04,229.03,68.06z M298.83,76.48c0.42,6.14-2.3,10.82-3.06,16.29C302.52,87.96,303.9,82.04,298.83,76.48z"
			/>
		<path fill="#1A1A1A" d="M173.02,429.97c-0.72-2.67-2.69-1.26-3.99-0.99c-8.43,1.75-16.79,3.84-25.25,5.46
			c-4.85,0.93-9.38,2.69-13.85,4.57c-3.02,1.27-4.67,1.18-5.17-2.45c-0.12-0.89-0.94-1.69-1.52-2.67c-3.15,1.77-1.91,4.94-2.57,7.92
			c-4.93-2.65-1.87-9.63-6.81-11.95c-0.37,3.41-1.62,6.57-0.32,10.22c-5.99-5.37-12.02-17.42-8.59-25.25
			c1.55-3.54,1.23-3.68,0.49-9.02c-1.55,1.37-3.34,1.84-5.43,2.77c0.95-4.85,2.03-9.53,0.9-14.2c-1.34-5.57-0.69-11.04-0.03-16.59
			c0.34-2.84,1.26-5.18,3.61-6.67c9.33-5.91,18.29-12.5,28.29-17.22c3.43-1.62,7.46-2.79,11.75-2.72
			c-5.91,4.33-11.02,9.16-13.78,17.07c4.05-3.34,7.34-6.19,10.82-8.79c9.05-6.75,19.58-8.52,30.14-10.5
			c3.84-0.72,7.72-1.19,11.58-1.79c0.16-0.02,0.39-0.18,0.45-0.13c3.26,3.18,6.45-0.7,9.66-0.1c3.67,0.69,7.09-1.42,11.11-0.87
			c-1.04,2.42-3.59,3.93-3.49,7.13c4.67,4.25,9.7-1.33,14.32-0.06c-0.06,3.92-5.87,7.25-2.4,10.69c2.29,2.27,4.65,6.75,9.62,5.09
			c1.13,6.71-0.64,14.07,5.75,19.17c-0.19,1.99-1.72,4.84,1.29,6.59c2.5,1.45,5.01-1.43,7.99-0.47c-2.18,3.9-6.2,5.77-9.21,8.55
			c-7.33,6.75-15.45,12.57-23.79,18.06c-7.13,4.7-14.72,8.36-22.92,10.75c-1.96,0.57-3.92,0.84-5.51-0.92
			c-0.91-1.01-2.17-0.62-3.28-0.82L173.02,429.97z"/>
		<path fill="#1A1A1A" d="M177.88,438.47c2.34-0.81,4.05-3.35,6.64-0.83c0.91,0.89,2.14-0.08,3.16-0.67
			c8.47-4.9,16.83-9.99,25.45-14.6c11.1-5.94,20.54-13.83,28.95-23.08c3.97-4.38,8.79-7.94,12.34-13.44
			c1.57,10.13,2.57,19.64,3.78,29.12c1.58,12.32,2.27,24.75,4.44,37.03c1.19,6.77,1.97,13.76,2.53,20.72
			c0.37,4.66,0.17,9.48,1.62,14.12c0.95,3.05-0.46,6.3-1.14,9.2c-1.35,5.74-1.56,11.64-3.09,17.46c-1.19,0.64-2.35,0.24-3.67-0.08
			c-8.71-2.08-17.51-3.8-26.21-5.8c-5.97-1.37-12.15-2.05-17.99-4.24c-2.98-1.12-6.35-1.69-9.48-2.16
			c-7.69-1.16-14.21-4.7-20.61-8.55c-2.81-1.69-5.71-3.19-8.59-4.73c-2.32-1.25-3.75-2.95-2.83-5.56c1.56-4.43,0.68-9.08,1.62-13.63
			c1.55-7.51,1.48-15.29,3.01-22.86C178.28,443.5,177.88,440.93,177.88,438.47z M248.19,479.53c-6.72-3.84-13.94-6.41-20.84-9.68
			c-10.74-5.08-21.84-9.45-31.28-17.06c-2.97-2.39-5.37-5.53-8.97-7.62c-0.32,2.56,0.82,4.13,2.18,5.59
			c3.27,3.5,6.83,6.66,10.91,9.22c9.01,5.64,18.61,10.07,28.48,13.96C235,476.42,241.46,478.46,248.19,479.53z M234.48,465.64
			c-2.42-2.95-5.98-4.26-8.95-6.41c-3.15-2.28-6.77-3.92-9.9-6.23c-3.03-2.23-6.39-3.88-9.44-6.1c-2.82-2.05-5.69-4.72-9.7-4.43
			C208.41,451.51,220.64,459.9,234.48,465.64z"/>
		<path fill="#1A1A1A" d="M238.13,140.08c-5.16-7.25-12.25-9.33-19.97-10.12c-0.33-0.03-0.67,0.02-1-0.02
			c-6.27-0.75-6.3-0.79-11.39,3.74c-1.04,0.93-2.18,1.44-4.19,2.01c1.65-4.12,0.96-8.2,2.26-12.11c0.66-1.98,1.65-2.57,3.54-2.65
			c5.14-0.2,10.15,0.57,15.23,1.23c5.86,0.76,11.63,2.4,17,4.21c6.7,2.26,13.61,3.06,20.31,4.94c7.17,2.01,14.71,2.02,22.14,1.54
			c3.03-0.2,4.82-2.69,5.79-5.38c0.51-1.43,1.06-2.5,2.6-2.47c4.33,0.09,8.69-1.01,12.98,0.85c1.31,0.57,2.59,1.22,3.09,2.28
			c2.51,5.39,7.82,7.14,12.51,9.17c5.31,2.31,10.89,4.47,16.88,4.63c1.5,0.04,2.42,0.62,3.05,2.02c1.22,2.68,2.85,5.2,3.86,7.95
			c1.84,5.04,1.26,9.48-2.2,14.17c-4.3,5.82-8.36,11.68-14.72,15.36c-7.35,4.26-13.11,10.73-20.66,14.67
			c-5.19,2.71-10.42,5.03-16.58,3.2c-1.68-0.5-3.76,0.27-5.5,0.1c-9.8-0.97-18.74-4.61-27.46-9.12
			c-14.79-7.64-25.57-19.9-37.15-31.27c-1.5-1.48-2.34-10.16-1.23-11.84c0.59-0.89,1.51-1.07,2.55-1.27
			c4.63-0.9,9.19-2.17,13.84-2.87C235.85,142.73,236.8,141.51,238.13,140.08z M318.27,181.08c-4.3-4.62-9.3-8.04-15.5-7.97
			c-6.52,0.07-12.79-1.05-18.99-2.45c-2.07-0.47-4.54,0.07-6.46-1.82c-6.28-6.17-11.82-13.02-18.27-19.06
			c-5.39-5.05-10.82-6.43-16.98-2.36c-1.67,1.1-2.72,2.45-1.41,5c2.22,4.31,5.66,7.09,9.7,9.25c5.05,2.69,10.66,4.51,15.27,7.77
			c6.82,4.83,14.64,5.08,22.26,6.47c8.92,1.63,18.25,1.25,26.67,5.33C315.67,181.79,316.63,182.25,318.27,181.08z M305.71,170.04
			c4.14-0.84,6.04-3.36,8.12-5.68c2.05-2.29,4.25-4.74,7.3-5.26c4.24-0.72,7.56-2.64,10.69-5.44c3.81-3.4,4.18-4.77,1.83-9.1
			c-12.49,0.52-23.11-4.74-33.85-9.5c-3.27,5.36-2.76,7.45,1.45,12.84c3.34,4.27,7.4,7.88,10.79,11.92
			C309.99,163.25,306.65,165.45,305.71,170.04z M290.46,180.34c3.43,4.14,6.3,4.68,15.2,3.05
			C303.49,179.91,296.37,178.43,290.46,180.34z"/>
		<path fill="#1A1A1A" d="M287.97,355.07c1.33,1.74,2.65-0.13,4.12,0.81c-5.3,5.11-11.05,8.96-18.73,9.74
			c-1.25-2.84,1.15-5.16,2.1-7.4c2.01-4.71,2.83-9.66,4.16-14.5c0.2-0.72,0.1-1.23-0.21-1.84c-2.27-4.33-4.72-8.52-8.26-12.25
			c-3.58,2.56-1.84,5.88-1.98,8.77c-0.01,0.26,0.34,0.54,0.51,0.82c5.98,9.64,1.19,17.29-5.01,24.22c-2.39,2.67-4.69,6.64-9.52,5.85
			c-0.24-0.04-0.61,0.28-0.82,0.52c-4.04,4.56-9.49,4.07-14.78,4.12c-0.66,0.01-1.32,0.08-2.16,0.5c4.86,1.35,6.63,8.2,13.71,6.37
			c-4.86,6.53-11.14,8.01-17.85,9.21c0.08-4.63,2.66-8.6,0.36-12.75c-1.39,0.58-2.71,1.13-4.6,1.92c-0.99-4.22-3.18-7.96-1-12.04
			c-1.78-2.7-4.52-2.05-7.09-2.37c0.54-2.55,3.75-2.58,3.88-5.32c-2.07-1.31-4.18-0.19-7.18,0.75c1.75-6,5.63-9.66,9.44-14.21
			c-6.2-0.15-11.24,2.49-17.24,2.88c1.77-1.68,2.21-4.32,5.16-3.06c0.2,0.09,0.68-0.14,0.85-0.36c3.02-3.83,7.99-5.38,11.01-9.06
			c3.56-4.33,8.42-6.23,13.16-8.61c3.16-1.59,7.13-2.68,8.11-6.89c-3.44-2.81-5.85,1.2-9.33,1.04c3.85-4.42,6.94-8.63,9.87-12.97
			c0.82-1.22,2.1-5,4.98-1.52c2.8-5.21,4.39-10.92,8.19-15.62c1.55-1.92,2.86-3.65,5.04-5c2.4-1.48,4.19-3.77,6.66-5.46
			c5.31-3.64,10.99-3.37,16.74-3.67c1.65-0.09,3.33,0.36,4.96,0.19c3.82-0.38,6.59,1.2,9.15,3.9c5,5.26,11.74,8.41,16.79,13.68
			c1.01,1.06,3.04,1.08,4.48,1.81c3.17,1.6,4.99,3.87,4.37,7.82c-0.71,4.46-1,8.97-3.99,13.1c-7.48-10.46-16.93-18.35-26.87-25.82
			c-2.92-2.2-4.89-5.68-7.2-8.66c-0.82-1.06-1.59-2.09-3.16-2.89c-1.19,1.69-1.94,2.66-0.46,5.26c4.11,7.21,10.14,12.84,14.84,19.52
			c2.91,4.14,5.96,8.18,8.76,12.39c1.23,1.85,2.95,3.05,4.31,4.74c1.67-1.98-0.1-3.55-0.09-5.26c4.04,1.88,4.97,5.11,2.89,8.86
			c-2.43,4.38-5.23,8.33-10.27,10.48c-0.85-0.03-1.5-0.93-2.02-1.69c-5.53-8.06-12.03-15.29-19.12-21.96
			c-3.67-3.46-6.55-7.35-8.6-11.92c-0.73-1.64-1.35-3.37-2.33-4.85c-0.98-1.47-2.22-3.39-4.38-2.09c-1.8,1.08-2.47,2.91-1.28,4.98
			c0.32,0.55,0.64,1.1,0.87,1.5c-0.41,1.75-2.31,0.57-2.93,2.25c12.44,9.66,20.92,22.94,29.79,35.63c1.76-0.46,0.74-2.01,1.77-2.43
			c3.34,2.03,1.75,5.37,1.91,8.35c-1.04,0.48-2.92,0.29-3.38,2.02c-1.17,4.33-4.43,5.7-8.36,6.49
			C289.79,353.29,288.42,353.65,287.97,355.07z"/>
		<path fill="#1A1A1A" d="M53.25,612.41c6.23,6.25,10.31,7.24,15.18,3.7c0.95,0.68,1.94,1.36,2.4,2.46
			c4.43,10.54,14.24,15.37,22.75,21.62c1.76,1.29,2.39-2.46,4.44-0.43c1.35,1.33,3.83,1.63,5.87,2.14c2.53,0.64,4.19,2.73,7.06,3.16
			c6.6,0.99,11.93-1.94,17.48-4.38c6.84-3.01,12.4-7.93,17.91-12.8c4.09-3.63,7.73-7.77,11.66-11.77c2.01,2.49,0.08,4.48-0.03,6.55
			c-0.53,10.17-2.82,20.03-4.96,29.94c-1,4.61-3.02,8.62-5.7,12.32c-2.98,4.11-5.99,8.2-8.26,12.72c-1.78,3.55-5.47,3.91-8.25,4.48
			c-3.65,0.75-7.07,2.12-10.49,3.24c-10,3.29-20.05,5.59-30.61,4.47c-5.97-0.63-11.15-3.56-16.01-6.81
			c-16-10.69-28.93-24.45-39.37-40.54c-1.06-1.64-2.65-3.41-2.11-6.44c1.48,2.4,2.59,4.4,3.89,6.27c3.38,4.87,7.98,4.71,11.29-0.24
			c3.3-4.95,3.58-10.73,4.51-16.3C52.64,621.38,52.82,616.9,53.25,612.41z"/>
		<path fill="#1A1A1A" d="M49.26,604.75c0.65,1.75,0.46,2.81-0.18,3.99c-2.4,4.42-2.36,9.29-2.09,14.13
			c0.38,6.74-1.22,12.97-4.81,19.39c-6.91-5.99-10.83-14.42-17.72-20.22c-1.02,1.63,1.49,2.83-0.03,4.52
			c-2.11-1.73-3.15-4.35-4.31-6.58c-4.36-8.38-9.33-16.44-12.9-25.26c-1.73-4.28-1.65-8.58-0.96-12.65
			c0.59-3.49,0.64-6.89,0.68-10.33c0.16-13.44,3.09-26.22,9.17-38.19c2.29-4.5,5.81-8.17,9.42-11.69c1.2-1.16,2.49-1.84,4.36-1.1
			c1.86,0.73,3.97,0.07,5.73-0.41c7.03-1.94,12.46,0.89,17.5,5.21c1.26,1.08,2.38,2.33,3.54,3.52c2.83,2.91,2.83,2.91,0.51,6.22
			c1.23,1.16,2.91,0.13,4.12,0.8c3.08,5.88,5.77,11.94,4.56,18.59c-1.09,5.96-1.43,12.03-3.12,17.91
			c-1.34,4.67-1.98,9.56-2.68,14.39c-0.18,1.25-0.8,2.89,0.97,3.99c1.28,0.79-0.5,1.57-0.37,2.45c-1.05,0.17-1.38-1.36-2.74-0.93
			c1.49,7.04,5.36,13.47,6.13,21.39C57.33,613.49,54.51,607.87,49.26,604.75z"/>
		<path fill="#1A1A1A" d="M286.97,880.89c2.31,0.38,3.96,1.79,5.72,0.46c1.49-3.77-4.36-3.11-3.85-6.62
			c0.38-2.57,0.15-5.23,1.13-7.73c1.24-3.16,4.65-2.58,6.62-4.72c1.72,1.8,1.43,3.91,2.82,5.14c2.3-0.49,2.39-3.63,2.21-4.18
			c-1.76-5.21,2.8-5.3,5.24-6.29c10.89-4.43,22.46-6.52,33.88-9.07c7.62-1.7,15.28-3.19,22.71-5.71c4.05-1.38,6.25,0.5,5.82,4.81
			c-0.14,1.38,0.22,1.61,1.18,2.12c0.9,0.48,0.08,1.98,1.03,2.5c2.45,0.72,5-0.32,7.66,0.91c-1.56,2.22-4.13,2.32-5.82,3.89
			c0.83,1.57,1.94,1.6,3.56,1.06c4.94-1.64,9.68-1.59,14.34,1.38c3.41,2.18,7.23,3.73,10.84,5.55c-3.02,1.89-5.95,1.77-9.28-0.01
			c-2.49-1.34-5.7-0.96-8.34-0.35c-4.57,1.05-9.51,0.76-13.68,3.43c-0.93,0.6-1.84,0.4-2.81-0.06c-7.35-3.53-15.24-3.67-23.14-3.48
			c-4.26,0.1-7.87,1.93-10.71,5.25c-1.56,1.82-1.71,3.45-0.04,5.3c9.1-9.7,19.23-5.82,28.4-2.7c8.3,10.78,7.49,22.75,7.93,34.98
			c-5.29,0.23-10.06,0.13-14.83-0.58c-0.98-0.15-1.97-0.27-2.95-0.29c-7.62-0.1-15.34-0.88-22.83-0.37c-8.55,0.57-16.7-1.03-25-1.74
			c-6.55-0.55-13.03-2.04-19.63-3.12C284.22,893.81,287.47,887.77,286.97,880.89z"/>
		<path fill="#1A1A1A" d="M384.43,396.38c1.02-2.68,4.42-3.22,5.57-6.5c3.11,3.36,5.71,1.78,8.66-0.06c3.8-2.38,8.37-4.29,8.33-9.42
			c-0.05-5.64,2.53-11.58-1.91-16.97c-2.82-3.43-2.69-3.85-6.63-4.52c-2.24-0.38-4.48-0.89-6.64-1.57
			c-3.92-1.23-7.58-1.61-10.23,2.41c3.3,1.22,6.66,2.72,10.46,3.27c7.5,1.07,13.21,6.94,8.05,16.86c-2.11,4.05-4.56,5.15-8.88,5.21
			c-6.52,0.09-12.58-1.75-18.84-2.84c-6.86-1.2-8.27-6.05-9.38-11.35c-1.41-6.69-2.37-13.48-3.74-20.18
			c-0.69-3.38,0.34-6.9-1.2-10.23c-0.74-1.59,4.53-2.31,0.66-4.53c5.3-4.01,11.46-4.88,16.99-7.24c1.64-0.7,3.48,0.12,5.08,0.68
			c6.48,2.29,13.49,2.49,19.86,4.76c4.99,1.79,10.25,2.26,15.12,4.17c4.43,1.74,6.51,6.03,9.02,9.52c6.2,8.6,6.54,18.16,3.29,28.09
			c-0.75,2.3-1.79,4.15-3.43,5.83c-3.57,3.67-7.49,7.07-11.84,9.59c-6.79,3.93-14.21,6.17-22.33,4.8
			C388.6,395.83,386.76,397.72,384.43,396.38z"/>
		<path fill="#1A1A1A" d="M387.65,303.23c4.08,1.8,7.5-1.06,11.34,0.13c-2.9,2.4-6.34,2.25-9.26,3.44
			c-3.17,1.29-6.33,2.52-9.45,3.97c-3.41,1.59-5.34,3.71-4.89,7.87c9.9-4.33,20.7-5.41,30.66-9.33c1.18-0.46,2.47-0.86,3.41-2.33
			c-6.94-0.1-12.96,3.56-20.29,4.07c10-5.31,26.64-8.46,35.76-7.02c2.63,0.42,4.2,2.54,6.09,4c6.32,4.89,13.53,8.4,19.85,13.3
			c6.38,4.94,12.22,10.32,16.48,17.08c-4.68,0.44-9.36-1.56-14.25-1.47c-2.19,0.04-3.34-1.29-4.15-2.97
			c-4.55-9.47-15.29-14.11-25.7-11.24c-2.98,0.82-6.39-0.31-9.18-1.12c-3.71-1.08-6.52,0.03-9.32,1.44
			c-6.84,3.45-13.84,4.08-21.18,2.21c-2.37-0.61-4.85-0.81-7.24-1.15c-3.42-0.48-3.65-2.35-3.35-4.85
			c1.3-10.7,2.04-21.45,3.06-32.17c0.74-7.74,0.88-15.44,0.47-23.25c-2.62,4.23-2.29,9.21-2.9,13.91c-0.66-0.11-1.21-0.1-1.24-0.23
			c-2.18-7.7-8.86-7.91-14.88-8.49c-10.34-0.99-18.8-6.73-28.18-9.77c3.48-9.14,5.39-18.22,8.44-28.01c2.5,4.91,3.91,8.93,5.1,12.98
			c1.2,4.07,2.13,8.24,2.07,12.54c-0.03,2.16,1.21,3.62,3.03,3.99c1.6,0.33,2.54,1.42,3.9,2.28c5.29-5.27,5.04-12.57,7.49-18.76
			c5.53,1.58,10.15,5.02,15.24,7.49c2.53,1.23,2.84,3.3,3.36,5.54c0.81,3.43,1.78,6.83,2.66,10.12c2.15,0.13,2.49-2.01,4.48-2.2
			c1.66,4.23,5.5,6.63,9,9.44c2.14,1.72,3.81,3.9,2.87,7.08c-0.44,1.49,0.62,2.52,1.67,3.36c3.08,2.46,4.47,6.43,8.06,8.59
			c1.18,0.71,2.73,2.69,2.72,5.16C401.81,297.71,394.99,300.25,387.65,303.23z"/>
		<path fill="#1A1A1A" d="M480.47,418.6c6.01-15.21,8.34-31.29,5.06-37.32c-2.33,7.45-2.6,15.17-4.54,22.57
			c-4.27,16.26-11.37,25.21-27.36,29.03c-13.41,3.21-25.95,0-37.96-6.04c-0.72-0.36-1.33-1-1.89-1.59c-0.66-0.7-1.62-1.22-1.77-2.68
			c2.47-1.64,5.09-2.78,8.4-2.72c5.18,0.09,9.08-3.21,12.98-6.03c2.53-1.83,4.53-4.4,6.77-6.63c1.45-1.44,3.26-2.13,5.66-2.57
			c-0.93-2.04,0.09-3.43,1.61-4.73c4.96-4.24,8.45-9.53,11.33-15.37c2.47-5,2.82-10.29,1.97-15.43c-1.11-6.7-1.83-13.58-5.03-19.63
			c4.68-3.96,12.52-3.6,17.04,0.85c3.44,3.39,7.09,6.82,9.15,11.22c3.34,7.15,7.64,13.96,8.88,21.98c0.18,1.15,0.35,2.29-0.31,3.37
			c-0.85,1.38-1.03,3.24-0.28,4.3c3.31,4.7,1.34,9.2-0.34,13.57C487.78,410.05,484.49,414.62,480.47,418.6z"/>
		<path fill="#1A1A1A" d="M257.5,217.68c-0.86,1.06-1.27,0.77-1.73,0.72c-6.61-0.66-11.27,2.29-13.8,8.57
			c-1.58,3.93-3.83,7.51-6.06,11.08c-3.55,5.68-6.4,11.74-9.55,18.03c-7.74-5.24-14.89-10.77-20.52-18.25
			c-3.64-4.83-8-9.13-11.53-14.08c-2.08-2.91-4.03-5.92-5.94-8.95c-2.87-4.56-2.81-9.17-0.01-13.76c0.34-0.56,1.12-1.11,1.07-1.6
			c-1.07-10.16,3.5-19.36,4.7-29.15c1.97,0.57,3.21,1.06,4.36,3.18c1.65,3.02,4.86,5.23,7.65,7.59c9.65,8.16,21.37,13.29,31,21.22
			c4.84,3.99,10.3,6.31,15.41,9.49C255.02,213.33,256.94,214.96,257.5,217.68z"/>
		<path fill="#1A1A1A" d="M172.91,916.85c2.98-1.57,5.92-2.49,9.13-2.33c-4.36-2.73-8.99-1.61-14.01-0.95
			c1.95-15.36-0.16-30.05-6.89-44.37c9.64-2.2,19.42-1.26,28.99-1.15c0.61,2.46-2.23,1.54-1.49,3.36c2.29,0.88,3.6,2.83,4.35,5.35
			c1.58,5.33,2.52,10.72,3.09,16.29c0.69,6.75,0.24,13.53,1.09,20.31c5.53-6.18,5.03-22.71-1.18-39.75c1.45-0.44,2.02-3.27,3.5-2.4
			c3.33,1.94,8.21-1.7,10.55,3.19c0.48,1,1.58,1.57,2.02,2.77c0.49,1.35,1.75,2.12,3.22,1.5c1.54-0.65,2.23-1.83,0.81-3.49
			c5.68,0.05,7.32,2.46,8.49,7.48c1.84,7.92,3.66,15.98,3.37,24.26c-0.15,4.13-1.63,6.17-5.47,6.88c-10.29,1.9-20.66,3.1-31.14,3.05
			C185.2,916.83,179.06,916.85,172.91,916.85z"/>
		<path fill="#1A1A1A" d="M353.19,469.38c7.71-4.8,12.63-12.1,18.2-19.47c2.15,4.19,2.01,8.45,2.44,12.47
			c0.75,7.02,0.85,14.09,2.03,21.08c1.01,5.96-1.7,9.73-7.35,13.68c-7.97,5.58-16.58,9.57-26.41,12.69
			c0.43-4.69,0.7-9.28,1.31-13.82c1.06-7.95,1.18-16.05,0.09-23.83c-0.59-4.24-2.97-8.49-3.69-13.11
			c-1.24-7.89-1.96-15.88-3.9-23.66c-0.68-2.74-2.01-5.38-1.58-8.89c3.02,2.44,6.5,2.77,9.41,4.61c2.31,1.46,4.94,0.86,7.59,0.09
			c5.48-1.59,10.72-3.74,16.33-6.64c0.09,7.03,1.38,13.34,2.94,19.62c0.47,1.92-1.02,3.25-2.11,4.69
			C363.34,455.69,358.28,462.55,353.19,469.38z"/>
		<path fill="#1A1A1A" d="M199.6,862.22c-7.14,2.56-13.98,0.36-20.57,0.97c-7.16,0.66-14.56-0.54-21.51,1.95
			c-1.86,0.67-3.33,0.3-5.16,0.03c-6.96-1.02-13.95-0.84-20.46,2.3c-1.89,0.91-3.48,0.7-5.45,0.55c-8.56-0.65-17,0.22-26.16,3.85
			c2.99-5.64,3.05-11.32,4.38-16.24c14.93-4.73,29.96-6.07,44.51-9.62c0.79-0.19,0.13-1.18,0.22-1.41
			c9.57-4.03,18.37,0.67,27.46,1.66c4.1,0.44,7.77,2.35,11.86,2.73c1.56,0.14,2.8,1.13,3.71,2.75
			C194.48,855.41,196.68,859.02,199.6,862.22z"/>
		<path fill="#1A1A1A" d="M129.22,872.37c2.52,0.04,4.53,2.08,7.11,1.31c0.32-1.58-1.66-1.86-1.78-3.17
			c-0.08-0.44,0.11-0.6,0.57-0.58c3.96,0.14,7.71-1.44,11.74-1.18c2.26,0.15,3.38,0.73,3.45,2.96c6.02-1.65,9.88,0.63,11.54,7.12
			c1.78,6.95,3.43,13.92,3.21,21.25c-0.13,4.36,1.69,8.71,0.55,13.13c-8.88,3.02-17.86,1.04-26.8,0.64c-2.12-0.1-3.03-1.3-2.82-3.24
			c0.61-5.81-0.71-11.51-1.17-17.24c-0.34-4.25-0.82-8.49-0.94-12.77c-0.06-2.42-1.47-4.43-3.58-5.58
			C129.2,874.42,128.82,873.88,129.22,872.37z"/>
		<path fill="#1A1A1A" d="M330.41,286.14c-0.9,3.89-3.29,3.14-5.61,2.17c-5.78-2.4-11.13-5.62-15.69-9.84
			c-3.59-3.32-7.63-6.08-11.47-9.85c7.52-2.7,14.95-4.82,20.95-7.78c17.48,5.69,30.72,18.2,47.3,24.99
			c-1.79,2.58-2.82,5.58-5.19,8.03c-4.63,4.81-7.16,5.47-13.18,2.27C341.71,293.03,335.56,290.56,330.41,286.14z"/>
		<path fill="#1A1A1A" d="M422.11,399.07c3.65-2.47,7.05-5.26,9.34-9.16c2.62-4.46,5.12-9.03,6.43-14.01
			c1.47-5.58,0.17-11.13-1.85-16.37c-3.26-8.46-7.94-16.08-14.48-22.47c-0.24-0.23-0.48-0.47-0.69-0.72
			c-4.99-6.16-4.99-6.16-13.58-6.6c2.33-3.83,5.82-3.49,8.98-2.58c5.32,1.54,10.52,3.47,16.13,3.81c1.86,0.11,3.63,1.67,3.25,3.01
			c-0.55,2,0.47,2.74,1.47,3.62c9.31,8.27,11.05,20.14,14.71,31.06c0.65,1.93,1.21,4.01,1.19,6.24c-0.04,3.68-0.45,6.98-2.61,10.21
			c-3.36,5-6.37,10.25-10.2,14.92c-1.66,2.02-3.57,3.31-6.84,2.27C429.77,401.16,425.47,402.54,422.11,399.07z"/>
		<path fill="#1A1A1A" d="M101.3,875.13c4.22-1.64,8.32-3.65,13.08-3.28c1.48,0.11,2.85-0.37,4.3-0.79c4.1-1.18,6.63,0.59,8.34,4.69
			c4.77,11.46,4.06,23.44,3.8,36.02c-9.48,0.13-18.31-2.86-27.25-3.78C100.34,897.11,103.15,886.24,101.3,875.13z"/>
		<path fill="#1A1A1A" d="M380.25,390.88c-4.41,3.03-9.35,1.31-13.52,3.02c-2.28-2.81-4.53-0.4-6.88-0.11
			c-4.43,0.55-8.85,0.12-13.09-1.5c-1.62-0.62-2.51-1.55-2.99-3.47c-2.16-8.7-4.65-17.23-5.09-26.36
			c-0.24-4.93,0.32-9.71,0.33-15.26c4.81-0.73,8.2-4.91,13.49-6.29c0.79,5.9,2.1,11.53,2.51,17.39c0.63,9.03,3.17,17.55,8.14,25.28
			c3.43,5.33,9.01,5.34,14.25,6.35c0.64,0.12,1.29,0.19,1.93,0.31C379.48,390.25,379.6,390.4,380.25,390.88z"/>
		<path fill="#1A1A1A" d="M302.21,487.87c5.27,0.4,10.26-0.29,15.68-1.07c-0.01,9.52-0.09,18.52,2.18,27.83
			c3.65-9.66,0.62-18.92,0.87-28.45c5.41-0.18,10.02-3.02,15.28-3.35c2.36,11.8-0.85,23.18-1.56,34.89
			c5.09,0.07,8.34-4.16,13.23-3.6c-2.75,3.12-6.5,4.21-9.45,6.45c-1.09,0.82-2.83,0.4-4.32-0.03c-3.43-0.98-7.05-1.44-10.36-2.72
			c-5.33-2.07-11.02-2.7-16.41-4.57c-2.87-1-3.46-2.3-3.46-4.92C303.88,501.6,304.63,494.81,302.21,487.87z"/>
		<path fill="#1A1A1A" d="M375.18,874.63c3.33-3.4,7.77-3.97,12.02-4.63c3.99-0.62,12.17,5.59,13.78,9.67
			c2.46,6.23,2.98,12.94,4.8,19.33c0.46,1.6,1.51,3.34,0.89,5.61c-9.29,0.82-18.7,1.65-27.77,2.45c-3.37-3.96-1.33-8.42-2.78-12.32
			c-1.21-3.25-0.95-7.05-2.01-10.5c-0.28-0.92-0.59-2.31,0.21-2.82C377.48,879.38,375.32,876.84,375.18,874.63z"/>
		<path fill="#1A1A1A" d="M333.83,349.13c-0.03,2.64,0.1,4.8-0.47,7.15c-1.54,6.44,0.66,12.61,2.14,18.8
			c1.31,5.45,4.08,10.29,6.66,15.15c0.91,1.71,1.26,3.34,1.49,5.04c-3.87-0.45-7.78-1.4-11.64-1.23c-4.85,0.21-7.66-2.33-8.93-6.17
			c-3.16-9.58-4.54-19.41-2.18-29.48C322.71,350.68,325.07,348.87,333.83,349.13z"/>
		<path fill="#1A1A1A" d="M433.26,902.18c-6.79,2.56-13.2,3.12-19.9,2.48c-3.77-11.21-2.3-23.78-10.38-34.4
			c8.04-0.94,14.25-0.01,19.42,5.51C429.4,883.26,432.23,892.23,433.26,902.18z"/>
		<path fill="#1A1A1A" d="M371.28,412.06c0.54,3.66-1.26,6.91-4.87,7.56c-7.42,1.32-14.85,2.81-22.48,2.32
			c-2.68-0.17-3.86-3.06-6.48-3.07c-0.19-1.18,0.62-1.92,1.13-1.98c7.3-0.89,9.7-8.21,15.2-11.54c3.17-1.92,6.21-4.69,9.5-5.84
			c4-1.4,8.68-1.12,13.1,0.2c3.6,1.08,3.19,4.53,3.13,6.44c-0.07,2.47-2.09,5.16-5.28,5.74
			C373.27,412.06,372.27,412.01,371.28,412.06z"/>
		<path fill="#1A1A1A" d="M351.36,401.2c-5.53,3.5-9.99,7.63-15.02,10.16c-3.93,1.98-9.57,1.35-14.19,0.04
			c-3.73-1.06-5.95-4.38-7.44-8.08c-2.86-7.1-5.51-14.25-6.83-21.83c-0.25-1.41-1.01-2.72-1.54-4.11c1.19-3.73,3.87-6.54,6.91-10.11
			c0.98,5.4,1.57,10.17,2.78,14.77c1.01,3.86,0.69,8.18,3.76,11.44c1.99,2.11,3.15,5.35,5,6.96c2.25,1.95,6.23,2.48,9.73,2.49
			C339.92,402.96,345.18,401.71,351.36,401.2z"/>
		<path fill="#1A1A1A" d="M322.87,339.39c3.96-7.56,8.94-14.31,11.41-22.3c0.67-2.18,2.91-1.81,4.04-3.02
			c2.78-2.97,5.86-3.25,9.1-1.07c2.78,1.87,6.13,3.29,6.57,7.38c0.19,1.76,3.19,2.73,1.06,5.35c-1.88,2.32-3.23,2.76-5.29-0.16
			c-2.82,6.06-7.82,8.5-13.72,9.87c-3.13,0.73-6.22,1.83-9.09,3.45C325.88,339.49,324.73,340.43,322.87,339.39z"/>
		<path fill="#1A1A1A" d="M324.83,199.94c6.79,4.02,13.54,8.14,20.41,12.02c3.02,1.71,4.86,4.59,7.45,6.72
			c1.19,0.98,1.21,2.88,1.3,4.59c0.37,7.21-1.04,14.18-2.5,21.67c-2.49-3.04-2.77-6.58-4.24-9.57c-1.53-3.12-2.74-6.16-6.07-7.84
			c-0.97-0.49-2.09-1.37-2.15-2.59c-0.4-8.42-5.95-13.87-11.16-19.49C326.42,203.89,325.58,202.01,324.83,199.94z"/>
		<path fill="#1A1A1A" d="M195.87,506.34c10.11,4.87,19.72,7.66,30.26,9.97c-9.66,6.84-19.96,11.03-30.56,15.2
			C193.61,522.8,196.58,515.07,195.87,506.34z"/>
		<path fill="#1A1A1A" d="M186.56,141.23c-0.28-12.43,3.68-23.16,12.27-32.4c-0.68,3.24,1.37,5.02,3.14,6.82
			c-3.28,5.44-4.48,11.28-5.02,17.31c-0.15,1.64,0.09,3.26-0.37,4.93c-0.69,2.51,0.27,4.72,2.99,4.95c3.06,0.25,3.52,1.88,3.38,4.32
			c-0.07,1.18,0.42,2.22,0.72,3.33c0.55,2.02,2.44,4.57,1.04,6.05c-1.58,1.67-2.63,4.06-5.27,5.1c-2.16-3.89-4.31-7.84-6.53-11.75
			c-1.41-2.49-1.74-5.43-0.52-7.63c2.78-5,3.31-10.42,4.35-16.31c-4.22,1.02-3.4,5.31-5.45,7.49
			C189.26,135.61,188.1,138.6,186.56,141.23z"/>
		<path fill="#1A1A1A" d="M436.53,904.93c0.95-8.42,0.48-16.15-2.77-23.52c-0.89-2.02-2.16-3.91-0.11-6.11
			c1.07-1.14-0.55-2.42-0.6-3.68c5.47-1.39,6.86-0.55,9,4.56c3.49,8.33,5.77,16.88,5.92,26.23
			C444.14,903.25,440.55,904.04,436.53,904.93z"/>
		<path fill="#1A1A1A" d="M267.78,123.61c-3.34-1.18-6.18-2.93-8.88-4.51c-4.21-2.46-3.41-7.34-2.75-11.32
			c1.36-8.16,1.61-8.18,9.82-6.8c3.69,0.62,7.29,1.67,11.04,2.1c2.28,0.26,2.74,1.49,2.44,4.62
			C272.17,105.92,268.27,111.05,267.78,123.61z"/>
		<path fill="#1A1A1A" d="M348.86,127.14c-0.65,0.94-1.29,1.88-1.94,2.81c-3.24,4.66-6.94,8.53-13.29,5.94
			c-3.02-1.23-6.56-0.1-9.69-2.66c8.09-4.13,10.48-11.69,12.21-19.85c2.43,1.06,5.27-0.13,7.27,2.06c-0.41,3.33-2.22,6.48-1.26,9.98
			C344.47,125.31,347.23,122.74,348.86,127.14z"/>
		<path fill="#1A1A1A" d="M372.26,282.79c-0.99,11.98-0.82,24.16-6.12,35.34c-2.39-6.11-9.04-8.29-14.56-13.08
			c5.31,0.33,8.7-2.38,12.4-4.2c2.03-1,3.52-2.58,4.14-5.18C369.15,291.29,370.84,287.07,372.26,282.79z"/>
		<path fill="#1A1A1A" d="M383.56,40.86c-2.81-0.5-4.24,1.19-5.58,3.44c-1.66,2.77-3.91,5.19-5.64,7.92
			c-1.01,1.58-1.76,3.66-3.94,2.39c-1.9-1.1-4.28-2.73-3.33-5.43c0.86-2.43,0.75-4.82,0.92-7.23c3.42-2.43,7.27-3.98,11.08-5.55
			C381.4,34.62,383.65,36.15,383.56,40.86z"/>
		<path fill="#1A1A1A" d="M371.78,59.21c4.97-3.37,7.13-8.02,9.64-13.06c1.02,2.67,0.41,5.51,2.95,7.02
			c0.89,0.53,0.68,1.87,0.51,2.81c-1.1,6.24-2.36,12.44-5.39,18.7C377.22,69.22,375.46,63.96,371.78,59.21z"/>
		<path fill="#1A1A1A" d="M304.1,523.56c2.38-2.77-1.08-5.38,0.18-8.25c4.36-0.08,8.16,2.61,12.54,2.75c1.64,0.05,3,1.53,3.05,3.41
			c0.04,1.6,0.32,3.13,1.04,4.67C315,526.21,309.7,524.66,304.1,523.56z"/>
		<path fill="#1A1A1A" d="M319.8,129.95c3.95-3.05,5.57-9.32,3.25-13.21c-0.84-1.41-1.13-2.66-1.1-4.16
			c0.02-0.89,0.28-1.86,1.09-2.06c2.24-0.56,4.45,0.37,6.53,0.89c1.28,0.32,2,2.02,1.65,4c-1.04,6-4.18,10.85-7.78,15.5
			C322.02,132.74,320.94,131.67,319.8,129.95z"/>
		<path fill="#1A1A1A" d="M207.1,118.15c3.8-7.37,10.24-9.73,18.26-4.98c2.71,1.61,5.1,3.76,7.51,6.08
			C224.27,119.27,216.02,114.97,207.1,118.15z"/>
		<path fill="#1A1A1A" d="M233.38,139.45c-8.13,0.48-16.27,0.24-24.05,2.89c-0.37,0.12-0.43,1.15-0.63,1.76
			c-1.94-2.61-2.22-2.86-1.42-3.73c1.63-1.76,1.98-4.98,4.77-5.3C219.57,134.21,226.75,135.44,233.38,139.45z"/>
		<path fill="#1A1A1A" d="M100.16,906.06c-1.87,1.12-3.19,0.7-5.07,0.63c-0.54-7.98,0.59-15.69,3.41-23.23
			C99.68,891.09,99.15,898.76,100.16,906.06z"/>
		<path fill="#1A1A1A" d="M284.58,122.72c-1.55,0.38-2.97-0.02-4.63,1.37c0.96-6.95,3.51-12.85,5.26-18.96
			c1.63-0.05,2.61,0.79,3.65,1.5C288.66,112.27,286.08,117.2,284.58,122.72z"/>
		<path fill="#1A1A1A" d="M431.16,406.2c-7.4,6.15-14.44,3.15-21.82,1.47C416.35,403.45,423.32,404.38,431.16,406.2z"/>
		<path fill="#1A1A1A" d="M334.12,218.95c-1.56,1.77-2.67,3.56-3.57,5.77c-3.03-4.38-3.94-9.51-6.94-13.55
			c-1.1-1.49-0.69-3.11-0.37-5.18C326.9,210.34,330.34,214.45,334.12,218.95z"/>
		<path fill="#1A1A1A" d="M276.77,111.38c-0.06,1.96,1.13,3.81-2.12,4.97c-2.54,0.91-2.36,5.9-0.08,7.81
			c0.92,0.77,1.17,1.95,2.08,2.64c2.85-0.86,2.85-0.86,6.09-0.28c-2.08,3.14-5.41,3.38-12.94,0.75c2.9-2.1,2.29-5.06,2.09-7.79
			C271.6,115.59,272.82,112.83,276.77,111.38z"/>
		<path fill="#1A1A1A" d="M411.02,414.74c-6.49-1.41-13.27-0.38-20.19-2.9C398.66,408.22,404.94,411.05,411.02,414.74z"/>
		<path fill="#1A1A1A" d="M278.87,274.35c2.97-6.53,3.53-6.68,8.73-3.26c1.21,0.79,2.49,1.47,4.25,2.51
			C287.47,275.03,283.54,275.32,278.87,274.35z"/>
		<path fill="#1A1A1A" d="M196.38,103.34c5.58-3.45,11.15-6.9,16.91-10.47C210.54,101.21,203.1,101.71,196.38,103.34z"/>
		<path fill="#1A1A1A" d="M345.44,145.25c2.27,1.13,4.54,2.26,7.06,3.51c-0.6,3.34-0.98,6.62-3.31,10
			C348.94,153.71,346.92,149.78,345.44,145.25z"/>
		<path fill="#1A1A1A" d="M280.85,97.89c-5.73-0.73-11.14-2.3-16.79-2.82c4.53-1.5,9.18-1.13,13.75-0.96
			C279.36,94.16,280.66,95.54,280.85,97.89z"/>
		<path fill="#1A1A1A" d="M172.88,429.83c0,1.15,0,2.29,0,3.6c-5.58,1.98-11.2,2.72-17.04,2.11c6.07-0.84,11.24-4.4,17.18-5.57
			L172.88,429.83z"/>
		<path fill="#1A1A1A" d="M211.22,155.58c-0.25-3.42-3.35-5.6-3.17-9.43c2.08-0.08,3.62,1.61,5.69,0.6
			C212.69,150.04,213.05,152.93,211.22,155.58z"/>
		<path fill="#1A1A1A" d="M336.33,303.54c-1.16-3,3.36-3.8,1.09-6.74c2.22,1.83,5.09,2.2,6.19,4.81
			C341.54,304.16,338.57,302.05,336.33,303.54z"/>
		<path fill="#1A1A1A" d="M264.69,163.3c-6-1.04-10.82-4.11-15.27-7.85C255.64,155.92,260.4,159.25,264.69,163.3z"/>
		<path fill="#1A1A1A" d="M329.69,149.66c-4.51,2.76-7.78,4.73-11.9,5.58c-2.82,0.59-4.55-0.22-5.87-1.93
			c-2.67-3.44-5.06-7.11-7.95-10.62C311.98,146,320.07,148.6,329.69,149.66z"/>
	</g>
</g>
</svg>
