<?xml version="1.0" encoding="utf-8"?>
<!-- Generator: Adobe Illustrator 24.1.3, SVG Export Plug-In . SVG Version: 6.00 Build 0)  -->
<svg version="1.1" id="Layer_1" xmlns="http://www.w3.org/2000/svg" xmlns:xlink="http://www.w3.org/1999/xlink" x="0px" y="0px"
	 width="600.4" height="1191.15" viewBox="0 0 600.4 1191.15" enable-background="new 0 0 600.4 1191.15" xml:space="preserve">
<g>
	<path d="M183.07,822.75c-2.74,3.07-5.8,5.65-9.21,7.72c-8.43,5.11-16.61,10.76-26.32,13.37c-5.51,1.48-11,2.96-16.76,3.21
		c-2.04,0.09-4.09,0.47-6.17,0.5c-10.58,0.16-20.82-1.55-30.76-5.18c-8.31-3.03-16.24-6.81-23.94-11.16
		c-3.96-2.23-8.21-3.91-12.09-6.33c-6.81-4.24-13.57-8.52-19.75-13.7c-6.96-5.82-12.9-12.49-17.78-20.09
		c-1.55-2.41-3.27-4.68-5.05-6.89c-3.6-4.47-5.43-9.67-7.07-15.04c-2.57-8.43-4.41-16.99-6.11-25.64c-2.1-10.73-2.26-21.5-1.94-32.3
		c0.14-4.68,1.21-9.37,2.14-13.99c1.09-5.39,2.33-10.74,4.21-15.95c3.25-9,9.03-15.17,18.21-18.21c2.76-0.91,5.68-1.43,8.26-2.96
		c0.99-0.59,2.4-0.44,3.48-0.14c9.85,2.74,17.18,8.37,19.54,18.74c1.32,5.8,1.07,11.78,0.35,17.75c-0.39,3.2-1.34,6.46-1.08,9.57
		c0.61,7.16-0.12,14.33,0.54,21.43c0.4,4.35,0.12,8.67,0.43,12.99c0.78,10.91,2.75,21.55,7.53,31.5c3.3,6.86,8.42,12.17,14.23,16.98
		c4.36,3.61,8.95,6.79,14.1,9.15c7.22,3.33,14.71,5.68,22.58,7.01c2.48,0.42,4.99,0.53,7.45,0.8c2.83,0.31,5.81-0.63,8.7-1.17
		c0.61-0.12,1.37-0.51,1.81-0.21c1.45,1.01,2.69,0.09,3.78-0.42c9.42-4.48,18.77-9.12,27.41-15.01c5.76-3.93,10.48-9.01,15.11-14.22
		c3.1-3.5,6.16-7,8.97-10.73c2.26-3,4.07-6.27,5.84-9.57c1.07-1.99,0.71-4.27,0.85-6.32c0.44-6,1.4-11.89,2.22-17.83
		c0.39-2.81,0.45-5.74,0.71-8.6c0.5-5.6,1.33-11.15,2.42-16.68c1.83-9.33,4.48-18.45,7.23-27.54c0.15-0.51,0.11-1.07,0.14-1.62
		c0.21-4.78-0.43-9.58,0.51-14.35c0.33-1.67-0.14-3.38-0.46-5.07c-0.65-3.54,0.64-6.71,2.39-9.71c0.73-1.25,0.79-2.29,0.2-3.73
		c-1.27-3.13-2.12-6.36-2.17-9.85c-0.08-5.62,0.97-11.18,0.62-16.8c-0.01-0.18-0.02-0.37,0.02-0.54c1.41-6.04,0.45-5.47-4.19-8.37
		c-4.12-2.58-5.28-5.45-3.84-9.72c1.9-5.63,3.86-11.26,5.46-16.98c1.6-5.72,2.88-11.54,4.12-17.36c0.52-2.43-0.72-4.74-1.27-7.07
		c-1.12-4.69-1.82-9.43-2.56-14.18c-0.43-2.79-1.07-5.62,0.3-8.15c1.52-2.8,2.79-5.81,5.24-8.19c-0.71-1.03-0.57-2.21-0.57-3.36
		c-0.01-5.09,0.11-10.19-0.04-15.27c-0.11-3.52,0.1-6.75,3.52-8.54c-0.13-2.38-0.5-4.48,0.19-6.61c0.38-1.19,0.3-2.52,0-3.76
		c-1.02-4.17-1.33-8.45-1.99-12.67c-0.73-4.75-1.36-9.52-2.42-14.22c-1.3-5.73-2.35-11.51-3.12-17.34
		c-0.49-3.74-1.16-7.44-1.28-11.28c-1.17,2.64-1.89,5.39-2.53,8.2c-0.65,2.81,0.03,5.41,0.51,8.12c0.77,4.39,1.48,8.8,1.8,13.28
		c0.37,5.02,1.14,10.02,0.97,15.06c-0.21,6.09-0.86,12.13-2.34,18.05c-0.6,2.41-1.3,4.79-1.94,7.18c-0.85,3.19-3.3,5.28-4.89,7.95
		c-3.65,6.14-7.76,11.95-12.07,17.63c-2.22,2.92-4.57,5.74-6.96,8.53c-3.72,4.34-8.13,8.1-10.81,13.33
		c-0.79,1.54-0.81,3.11-1.1,4.65c-1.25,6.5-1.93,13.09-2.42,19.69c-0.16,2.18,0.22,4.27,0.82,6.37c0.39,1.36,0.8,2.72,0.86,4.18
		c0.07,1.62,0.68,2.89,2.27,3.91c3.36,2.14,6.49,4.64,10.18,6.25c2.75,1.2,3.67,3.72,4.41,6.33c1.77,6.27,2.35,12.67,2.2,19.17
		c-0.03,1.15,0.08,2.16,0.78,3.29c3.81,6.23,7.5,12.52,10.73,19.09c1.16,2.36,1.2,4.45,0.33,6.92c-1,2.85-1.69,5.81-3.2,8.45
		c-2.09,3.65-4.97,5.75-9.51,5.9c-4.87,0.16-9.14-1.1-13.27-3.38c-1.2-0.66-2.03-1.69-2.82-2.82c-3.69-5.27-5.76-11.19-7.02-17.42
		c-0.44-2.19-1.31-4-3.03-5.46c-0.89-0.75-1.54-1.77-2.62-3.05c-0.53,2.19-1.33,3.6-1.53,5.26c-0.11,0.94-0.44,2.02-1.05,2.69
		c-2.1,2.29-1.41,4.59-0.84,7.26c0.75,3.54,1.56,7.19,0.39,10.91c-1.31,4.17,0.85,7.52,2.97,10.82c0.1,0.15,0.27,0.25,0.37,0.4
		c2.1,3.11,2.11,3.13,5.64,2.18c3.84-1.04,7.41-0.23,10.2,2.37c2.05,1.91,3.41,4.59,4.18,7.37c0.71,2.55,1.91,4.2,4.58,5.3
		c5.19,2.14,6.8,6.54,5.97,12.26c-0.39,2.69-1.23,5.21-1.94,7.75c-0.89,3.19-3.41,5.68-6.1,7.37c-4,2.5-8.43,4.31-13.37,4.1
		c-1-0.04-1.92-0.23-2.89-0.51c-4-1.17-8.16-1.88-12.01-3.39c-6.97-2.74-13.44-6.46-19.22-11.34c-1.94-1.63-3.77-3.35-5.59-5.1
		c-4.55-4.38-8.35-9.39-12.07-14.44c-1.95-2.65-4.59-4.62-6.7-7.09c-2.94-3.46-5.96-6.89-6.75-11.61c-0.39-2.34-0.46-4.69,0-7.01
		c0.74-3.74,1.91-7.42,2.38-11.19c0.43-3.46,1-6.87,1.67-10.29c1.04-5.23,2.42-10.38,3.57-15.58c1.41-6.42,3.38-12.77,3.92-19.3
		c0.2-2.38,0.23-4.92,0.24-7.39c0.01-5.57,0.93-11.07,1.56-16.59c0.27-2.32,0.3-4.67,0.47-6.99c0.36-4.85,1.15-9.73,0.64-14.61
		c-0.45-4.35-0.98-8.71-1.84-12.99c-0.43-2.13-0.49-4.29-0.71-6.38c-0.56-5.26-0.94-10.57-1.38-15.85
		c-0.44-5.35-0.39-10.67-0.35-15.99c0.05-6.91,0.44-13.83,1.57-20.67c0.78-4.74,0.91-9.58,2.19-14.25c0.66-2.4,2.17-4.46,2.65-6.97
		c-0.57-0.94-1.76-1.14-2.48-1.99c-1.77-2.09-1.73-4.32,0.59-5.72c1.25-0.76,1.89-2.23,3.61-2.24c-2.49-3.8-2.58-5.73,0.75-8.82
		c3.58-3.32,6.37-7.31,9.34-11.13c1.28-1.65,1.32-3.99,1.32-6.09c-4.64-1.6-7.04-5.35-7.25-9.79c-0.36-7.52,2.25-14.44,3.76-21.59
		c1.11-5.3,2.37-10.56,3.95-15.75c0.41-1.33,0.09-2.89,0.13-4.34c0.03-0.9-0.3-1.92,0.2-2.68c1.52-2.33,0.54-4.73,0.13-7
		c-0.78-4.29-0.37-7.92,2.75-11.45c2.53-2.85,5.47-5.11,7.94-7.48c0.01-4.82-0.35-9.43,0.33-14.11c0.99-6.9,2.75-13.6,5.04-20.13
		c3.86-11,9.45-21.11,16.82-30.2c0.56-0.69,1.3-1.38,1.51-2.19c0.75-2.81,2.96-3.94,5.21-5.29c5.07-3.05,10.42-5.4,16.05-7.15
		c4.94-1.54,10.03-2.37,15.13-3.14c3.36-0.51,6.75-0.85,10.13-1.18c2.1-0.2,3.69-2.01,5.52-3.06c5.5-3.16,11.36-5.51,17.15-8.06
		c0.01-1.33,0.58-2.55,1.32-3.79c2.27-3.83,4.82-7.49,6.72-11.53c1.97-4.19,3.98-8.36,5.84-12.61c0.39-0.9,1.04-1.36,1.73-1.5
		c3.57-0.75,6.95-2.26,10.68-2.6c-0.98-2.12-1.8-4.21-3.72-5.76c-1.7-1.38-1.57-6.48,1.18-7.79c2.16-1.02,4.12-2.45,6.17-3.72
		c0.14-0.09,0.2-0.29,0.39-0.58c-0.64-0.86-1.7-1.18-2.61-1.59c-4.65-2.13-8.86-4.94-12.83-8.13c-0.49-0.39-1.09-0.83-1.29-1.38
		c-0.89-2.35-2.62-2.68-4.88-2.6c-4.38,0.16-6.25-2.87-4.42-6.89c0.14-0.31,0.46-0.57,0.19-0.96c-3.6,0.51-4.92-0.93-5.29-5.51
		c-0.5-6.16,1.17-11.86,3.43-17.47c0.22-0.55,0.52-1.07,0.82-1.68c-0.35-0.06-0.64-0.2-0.86-0.13c-1.43,0.46-2.85,0.17-3.45-1.07
		c-0.64-1.33-1.29-2.75-0.51-4.51c2.08-4.67,5.47-8.31,9.29-11.42c2-1.63,3.1-2.94,2.2-5.43c-0.09-0.25-0.09-0.53-0.12-0.76
		c-1.69,0.83-3.36,1.67-5.04,2.48c-3.05,1.47-5.88,1.63-7.95-1.48c-1.86,0.36-3.49,1.56-5.23,0.2c-2.13-1.66-3.73-3.79-3.93-6.44
		c-0.29-3.85-1.17-7.64-1.16-11.5c0.01-6.89,1.1-13.59,4.23-20.06c-1.46,0.15-2.43,1.01-3.7,1.15c-2.2,0.24-3.46-0.34-3.79-2.44
		c-0.26-1.63-0.03-3.27,0.78-4.7c2.45-4.36,5.22-8.51,8.46-12.32c0.18-0.21,0.37-0.4,0.57-0.58c2.31-2.15,2.49-2.26,0.91-4.86
		c-1.52-2.51-1.52-5.3-1.97-7.98c-0.93-5.55-0.89-11.21-0.52-16.78c0.33-4.95,1.55-9.79,3.53-14.44c2.15-5.03,4.9-9.67,8.16-14.02
		c1.34-1.79,3.33-2.92,4.79-4.63c0.76-0.89,2.05-1.03,3.45-0.35c2.37,1.15,4.33,2.86,6.32,4.45c6.66,5.29,12.29,11.58,17,18.65
		c0.95,1.42,1.64,1.78,3.23,1.22c1.15-0.4,2.5-0.23,4.06-0.34c-1.7-1.52-3.48-2.58-5.11-3.84c-2.53-1.95-5.43-3.5-7.11-6.42
		c-1.19-2.07-0.98-2.88,1.26-3.96c3.36-1.62,6.97-1.16,10.39-0.81c8.71,0.91,16.66,4.26,24.32,8.41c0.72,0.39,1.22,1.37,2.39,1.15
		c-0.64-2.96-1.26-5.88-1.89-8.79c-0.25-1.17-0.35-2.36,0.02-3.49c0.92-2.75,4.32-3.33,6.26-1.04c4.43,5.25,9.04,10.34,14.03,15.05
		c3.68,3.47,7.68,6.58,12.12,9.35c1.33-2.76,2.73-5.24,3.76-7.88c2.99-7.65,7.59-14.29,12.62-20.68c3.07-3.9,6.43-7.53,9.92-11.06
		c1.22-1.23,2.65-2.16,3.97-3.23c0.8-0.65,1.72-1.14,3.25-0.22c7.41,4.46,12.03,11.4,16.75,18.23c5.01,7.27,9.24,14.97,11.67,23.55
		c1.17,4.14,2.03,8.34,1.99,12.65c-0.02,2.09,0.26,4.12,0.55,6.17c0.46,3.26-0.26,6.5-0.62,9.7c-0.54,4.84-1.36,9.68-3.14,14.28
		c-1.97,5.06-3.86,10.14-7.08,14.61c-0.7,0.97-1.54,1.77-2.36,2.59c-0.78,0.77-1.23,1.53-0.91,2.34c5.04,2.95,10.6,4.43,14.73,8.51
		c1.39,1.37,2.44,2.71,1.62,4.88c-0.81,2.13-2.61,2.16-4.34,2.45c-0.27,0.05-0.54,0.06-0.8,0.08c-0.12,0.43,0.11,0.71,0.39,0.91
		c6.04,4.28,8.72,10.62,10.72,17.4c0.51,1.72,0.52,3.51,1,5.24c0.64,2.29-0.42,4.41-1.4,6.41c-0.54,1.09-1.78,1.46-2.95,1.2
		c-0.95-0.2-2.02,0.12-2.92-0.78c0.44,2.64,0.84,5.25-0.92,7.25c-2.03,2.32-4.46,0.14-6.82,0.05c-2.7,3.46-5.2,7.15-7.9,10.68
		c-2.6,3.42-5.68,6.38-8.87,9.14c-1.98,1.71-3.06,3.52-3.67,5.91c-1.1,4.3-2.82,8.41-3.97,12.7c-0.51,1.89-0.16,2.84,1.48,3.96
		c4.2,2.86,8.6,5.39,12.86,8.15c1.95,1.26,3.44,2.94,5,4.57c1.3,1.35,1.68,3.15,1.6,4.95c-0.09,2.05-0.09,4.21-0.76,6.1
		c-0.63,1.78,0.16,2.43,1.3,3.2c4.59,3.08,9.28,6.03,14.34,8.26c3.26,1.43,5.09,3.73,5.29,7.19c0.17,2.97,1.4,4.71,4.12,6.21
		c5.38,2.96,10.56,6.36,15.02,10.65c2.83,2.72,6.44,3.99,9.74,5.81c4.65,2.56,8.96,5.66,13.58,8.27c3.56,2.01,7.26,3.8,10.53,6.31
		c3.67,2.83,7.83,5.21,9.75,9.75c2.08,4.9,4.27,9.77,5.8,14.88c1.73,5.79,3.06,11.7,3.98,17.67c0.93,6.05,1.65,12.18,1.09,18.31
		c-0.33,3.59,0.78,6.1,3.86,7.78c2.22,1.21,4.02,2.97,5.97,4.5c1.71,1.34,2.52,3.36,1.94,5.72c-0.56,2.26-1.23,4.41-2.53,6.4
		c-0.74,1.13,0.04,2.56,0.35,3.77c2.51,9.89,5.15,19.75,7.67,29.64c0.61,2.41,1.01,4.89,1.31,7.35c0.18,1.48,0.86,2.77,1.46,3.99
		c2.12,4.31,3.96,8.78,6.98,12.62c1.33,1.7,1.88,3.68,0.96,6.03c-1.32,3.36-2.96,6.25-7,7.32c1.62,1.69,3.3,2.49,4.8,3.54
		c2.12,1.49,4.34,2.87,6.12,4.8c2.3,2.5,2.08,5.72-0.55,7.92c2.12,1.46,3.71,3.28,4.19,5.91c0.55,3.02-0.98,4.52-3.88,4.94
		c0.91,2.08,0.89,4.1,1.05,6c0.43,5.18,2.16,10.12,2.59,15.27c0.33,4.03,0.76,8.06,0.84,12.13c0.17,8.24-1.04,16.39-1.26,24.6
		c-0.17,6.41-1.25,12.82-2.17,19.19c-0.22,1.52-0.41,3.01-0.4,4.46c0.28,0.88,1.11,0.48,1.62,0.85c1.45,1.06,2.63,1.9,2.88,4.14
		c0.52,4.52,1.09,9.04,1.53,13.58c0.37,3.79,0.4,7.56,0.49,11.35c0.13,5.87-0.97,11.61-1.67,17.39c-0.24,1.99-2.48,2.2-3.21,3.99
		c-0.97-1.24-1.99-1.26-3.29-0.87c0.86,6.47,1.15,12.91,1.08,19.38c-0.06,6.49-0.43,12.95-0.99,19.41
		c-0.06,0.67,0.25,1.39,0.47,2.06c0.7,2.11,1.23,4.3,2.19,6.29c2.06,4.27,1.26,8.18-0.86,12.12c-1.52,2.83-3.25,5.52-4.99,8.21
		c-2.26,3.48-3.65,7.34-4.68,11.27c-0.97,3.71-2.32,7.26-3.72,10.8c-2.85,7.2-5.61,14.45-10.31,20.73
		c-2.8,3.74-5.73,7.39-9.68,10.02c-3.55,2.37-7.05,4.84-10.77,6.92c-2.93,1.64-6.06,3.08-9.59,2.94c-1.21-0.05-2.24,0.52-3.35,0.86
		c-4.05,1.23-7.07-0.12-9.09-3.78c-2.62-4.73-2.85-9.69-1.82-14.84c0.12-0.61,0.21-1.28-0.18-1.85c-1.51-2.21-1.42-4.92-2.32-7.33
		c-0.26-0.7-0.41-1.6-0.03-2.11c2.12-2.9,0.53-5.77,0.11-8.65c-0.31-2.12-0.56-4.26-0.77-6.39c-0.14-1.46,0.24-2.64,1.24-3.92
		c3.13-4.03,6.2-8.11,9.75-11.79c1.42-1.47,1.67-3.49,2.46-5.26c1.66-3.74,3.09-7.57,4.87-11.25c0.87-1.81,0.92-3.39-0.04-5.2
		c-1.19,0.43-2.45,0.99-3.77,1.3c-0.8,0.19-1.48,0.62-1.69,1.22c-1.42,3.96-5.13,4.01-8.28,4.75c-2.26,0.54-4.61-0.19-6.87-0.83
		c-2.71-0.77-4.2-3-5.97-4.87c-1.05-1.11-1.71-2.52-2.9-3.53c-2.28-1.94-2.92-4.61-2.37-7.35c1.14-5.69,3.17-11.04,6.13-16.11
		c2.47-4.22,4.69-8.6,7.35-12.72c1.52-2.36,1.08-5.02,1.64-7.52c0.63-2.84,0.18-5.75-0.37-8.65c-0.64-3.38-0.14-6.63,2.71-9.04
		c1.13-0.95,1.73-2.27,2.6-3.35c-0.21-1.16-1.06-1.9-1.57-2.82c-1.5-2.67-1.45-5.64-1.01-8.43c0.83-5.26,1.81-10.51,3.15-15.68
		c0.56-2.18,1.47-2.99,3.65-3.22c0.25-0.03,0.5-0.17,0.74-0.26c0.84-0.3,1.68-0.6,2.66-0.94c0.38-4.17-0.79-8.17-1.81-12.1
		c-0.49-1.87-2.67-3.06-3.98-4.67c-3.06-3.75-6.35-7.32-9.33-11.13c-4.72-6.04-9.5-12.06-12.91-18.97
		c-2.14-4.34-3.03-9.04-3.61-13.86c-0.64-5.25-0.58-10.54-1.37-15.8c-0.59-3.93-0.43-8.07,0.2-12.16c0.53-3.47,0.13-7.07,0.16-10.62
		c0.01-0.62-0.39-0.98-0.72-1.4c-0.94-1.18-1.63-2.48-1.59-4.22c-1.77,3.11-0.62,6.38-1.42,9.46c-1.59,6.1-2.67,12.33-4.09,18.47
		c-0.38,1.63-0.39,3.14-0.03,4.76c0.49,2.18,0.37,4.45,0.69,6.68c0.53,3.71,0.93,7.43,1.65,11.11c0.32,1.66,0.4,3.43,0.45,5.07
		c0.12,3.96,1.76,7.15,4.39,9.7c3.74,3.64,3.06,7.43,1.21,11.47c-0.78,1.7-1.63,3.37-2.71,4.91c-0.99,1.41-1.68,2.77-1.8,4.69
		c-0.13,1.92-1.33,3.86-3.17,5.42c2.04,1.56,3.86,3.34,6.01,4.49c2.74,1.47,3.48,3.85,3.26,6.43c-0.45,5.14-1.09,10.35-2.92,15.16
		c-1,2.63,0.04,4.74,0.44,6.89c1.07,5.77,1.91,11.59,3.12,17.33c1.16,5.5,1.77,11.09,2.62,16.63c0.37,2.4,0.39,4.95-0.01,7.34
		c-0.65,3.86-4.76,7.39-9.34,7.2c-1.78-0.07-3.28,0.08-3.56,2.34c1.82,2.99,4.19,5.72,6.6,8.31c2.99,3.21,2.99,6.92,2.45,10.61
		c-0.52,3.56-1.38,7.15-2.92,10.48c-0.28,0.61-0.27,1.22-0.08,1.85c2.42,7.91,4.05,16.01,5.7,24.09c1.03,5.05,1.72,10.2,2.45,15.32
		c0.86,6.03,1.39,12.09,1.95,18.13c0.35,3.74,0.56,7.55,0.78,11.33c0.32,5.42,0.4,10.84,0.46,16.26c0.02,1.79,0.86,3.42,1.16,5.19
		c2.23,12.84,1.57,25.78,1.46,38.68c-0.06,6.62-0.86,13.26-1.62,19.85c-0.5,4.38-1.31,8.76-0.96,13.15
		c0.6,7.69,0.45,15.38,0.49,23.08c0.01,1.95,1.2,3.51,1.78,5.27c0.36,1.09,0.95,2.12,1.48,3.14c1.77,3.36,0.62,6.78,0.31,10.21
		c-0.4,4.44-2.63,8.21-4,12.3c-0.42,1.26-0.72,2.54-0.7,3.93c0.07,6.91,0.14,13.82,0,20.73c-0.16,8.07-1.36,16.02-2.47,24.02
		c-0.9,6.54-2.67,12.94-3.02,19.58c-0.15,2.83-1.65,5.41-2.35,8.17c-2,7.95-4.7,15.65-8.47,22.96c-1.38,2.66-1.39,5.67-2.13,8.5
		c-2.53,9.73-4.09,19.67-5.98,29.53c-1.05,5.51-2.19,10.98-3.55,16.41c-0.34,1.34-1.03,2.42,1.18,2.81c0.56,0.1,0.81,1.8,1.65,2.59
		c1.65,1.53,3.14,3.21,4.57,4.96c1.71,2.08,1.74,4.12,1.05,6.51c-1.56,5.37-4.42,10.14-7.03,14.99c-2.18,4.06-4.99,7.79-7.56,11.73
		c0.45,0.46,1.23,0.3,1.75,0.85c1.58,1.68,3.43,2.83,5.78,3.4c1.35,0.33,2.04,1.7,2.1,3.41c0.21,5.71-0.8,11.22-2.29,16.75
		c1.9,0.96,2.92,2.63,3.89,4.34c2.49,4.34,4.18,9.05,6.24,13.59c0.66,1.46,0.47,3.11-0.18,4.72c-0.82,2.02-2.23,3.65-3.37,5.45
		c-0.69,1.11-2.04,1.21-3.29,1.22c-2.05,0.02-4.1,0-6.67,0c2.14,2.27,4.41,3.55,6.34,5.22c2.3,1.99,4.77,3.8,6.92,5.97
		c2.1,2.11,4.36,3.99,7.34,4.74c0.09,0.02,0.18,0.07,0.24,0.13c3.67,4.46,9.4,2.74,13.96,4.59c2.03,0.82,4.29,1.17,6.24,2.27
		c3.19,1.8,6.87,1.69,10.27,2.67c6.08,1.74,11.55,4.44,16.52,8.41c2.72,2.18,4.77,4.8,6.81,7.51c0.21,0.28,0.28,0.73,0.54,0.9
		c4.16,2.73,4.33,7.19,5.24,11.45c0.84,3.93,0.04,7.63-0.61,11.4c-0.39,2.24-1.38,4.18-2.65,6.06c-0.68,1-1.2,1.59-2.32,0.9
		c-0.64-0.39-0.99,0.12-1.46,0.29c-2.78,1.03-5.67,1.6-8.62,1.64c-4.95,0.06-9.89,0.25-14.8-0.96c-1.65-0.41-3.58-0.43-5.36,0.27
		c-0.64,0.25-1.43,0.16-2.15,0.16c-3.82,0.01-7.64,0.01-11.45,0.01c-2.86,0-5.7,0-8.31-1.5c-0.49-0.28-1.27-0.24-1.87-0.1
		c-6.15,1.35-12.39,0.83-18.6,1.1c-15.87,0.7-31.76,0-47.62,0.62c-17.97,0.71-35.93,0.07-53.9,0.44c-3.58,0.07-6.04-2.11-8.4-4.17
		c-3.4-2.97-4-7.1-4-11.45c0-4.96,0-9.92-0.36-14.9c-0.47-6.43,0.75-12.86,1.81-19.23c0.67-4.03,1.4-8.05,2.38-12.03
		c0.15-0.6,0.14-1.31-0.48-1.73c-1.65-1.11-2.52-3.05-4.21-4.05c-1.42-0.84-2.76-1.72-3.13-3.37c-0.29-1.31-1.3-0.3-2.07-1.03
		c2.33-3.82-0.71-7.2-1.26-10.92c-0.51-3.45-1.31-6.84-1.38-10.35c-0.06-2.97,1.18-5.11,3.59-6.71c0.75-0.5,1.44-1.13,1.86-1.95
		c0.73-1.4,1.93-2.31,3.32-3.24c-0.76-3.05-1.56-6.15-1.86-9.32c-0.33-3.53-1.56-6.99-0.41-10.64c0.57-1.82-0.3-3.76-0.59-5.58
		c-0.66-4.11-0.94-8.2-1.03-12.34c-0.04-1.96,0.53-3.55,2.12-4.33c4.87-2.4,4.24-6.58,3.67-10.72c-0.11-0.8-0.28-1.59-0.27-2.39
		c0.1-4.96-0.52-9.91-1.28-14.76c-0.42-2.69-1.13-5.11,0.05-7.71c1.73-3.83,3.56-7.64,6.16-10.92c2.47-3.12,2.84-6.83,3.77-10.4
		c0.27-1.03-0.47-1.87-0.57-2.88c-0.58-5.71-1.14-11.41-1.65-17.12c-0.59-6.56-1.46-13.14-0.92-19.69c0.52-6.44,0.6-12.9,1.36-19.34
		c0.58-4.91,1.23-9.72,2.88-14.36c3.8-10.67,8.33-21.02,14.11-30.79c2.26-3.82,3.49-7.57,2.42-12.19c-0.67-2.91-1.15-6.57,0.2-9.12
		c1.93-3.66,0.17-6.23-0.95-9.16c-0.48-1.24-1.17-2.41-1.81-3.59c-0.47-0.87-0.61-1.92-0.11-2.6c2.45-3.31,2.36-7.4,3.55-11.09
		c0.21-0.66,0.36-1.44,0.65-2.02c2.15-4.43,0.4-8.86-0.19-13.17c-0.73-5.35-1.64-10.72-3.13-15.95c-1.19-4.18-2.66-8.31-3.5-12.56
		c-1.24-6.28-3.47-12.33-4.28-18.96c-1.58,2.46-2.08,5.12-3.03,7.56c-1.45,3.77-3.25,7.3-5.48,10.64c-1.75,2.61-2.56,5.63-3.7,8.52
		c-1.47,3.72-2.98,7.42-4.58,11.08c-1.89,4.33-2.4,9.11-4.34,13.41c-0.92,2.04-0.83,3.87-0.14,6.06c1.01,3.2,1.77,6.5,2.78,9.72
		c1.2,3.85,1.08,7.88-0.09,11.69c-1.91,6.22-4.49,12.2-8.02,17.7c-0.92,1.43-1.36,2.72-1.19,4.58c0.42,4.76,0.67,9.54,0.73,14.34
		c0.08,5.87,0.83,11.75,0.41,17.62c-0.43,5.9-0.68,11.8-1.47,17.69c-1.03,7.7-2.56,15.26-4.46,22.77c-0.28,1.12-0.65,2.21-1.1,3.27
		c-0.49,1.16-0.59,2.17-0.31,3.59c0.4,2.02-0.41,4.35-0.94,6.48c-3.32,13.47-8.02,26.51-13.18,39.36
		c-1.96,4.87-4.68,9.43-7.12,14.26c0.16,0.22,0.55,0.6,0.78,1.07c2.18,4.49,4.21,9.09,6.96,13.26c2.58,3.92,1.92,7.63-0.08,11.33
		c-1.69,3.13-3.65,6.18-6.08,8.76c-1.9,2.02-3.42,4.06-3.91,6.8c-0.12,0.69-0.4,1.35-0.67,2.27c2.97,2.46,4.83,6.07,7.73,8.77
		c1.66,1.54,1.16,3.37,0.75,5.04c-1.7,6.89-3.44,13.78-5.43,20.59c-0.59,2.03,0.22,3.73,0.51,5.49c0.48,2.95,1.18,5.88,2.25,8.74
		c0.77,2.07,0.34,4.45-0.85,6.49c-1.61,2.77-3.19,5.57-5.34,8.11c3.21,7.16,6.44,14.37,9.67,21.57c0.11,0.24,0.33,0.46,0.37,0.71
		c0.56,4.05,3.56,6.24,6.49,8.47c3.85,2.93,7,6.23,8.34,11.15c0.9,3.31,1.97,6.62,3.08,9.89c0.58,1.69,0.82,3.65,0.84,5.55
		c0.01,2.15-0.22,4.29,0.43,6.45c0.43,1.46-0.27,2.98-1.3,4.19c-2.04,2.4-3.93,4.52-7.74,4.4c-9.72-0.31-19.46-0.39-29.18-0.04
		c-21.24,0.77-42.49-0.06-63.71,0.63c-14.16,0.46-28.3,0.09-42.44,0.4c-0.98,0.02-1.99-0.11-2.87,0.55
		c-2.88-1.86-3.32-5.02-4.23-7.85c-0.29-0.9-0.4-2.02-0.83-2.79c-1.11-1.96-1.35-3.86-0.92-6.06c1.03-5.33,1.62-10.74,3.02-15.99
		c0.96-3.6,2.51-7.13,2.88-10.78c0.48-4.77,1.76-9.27,3.15-13.76c2.12-6.85,4.93-13.45,7.8-20.17c-3.2-1.31-5.77-3.29-7.42-6.31
		c-0.66-1.22-0.81-2.39-0.29-3.84c1.01-2.84,1.6-5.82,2.49-8.7c0.58-1.87-0.69-3.19-1.28-4.64c-2.7-6.57-5.62-13.05-7.7-19.87
		c-0.58-1.92-0.29-3.75-0.38-5.62c-0.04-0.91,0.81-1.47,1.44-1.86c5.22-3.21,9.08-8.23,14.91-10.78c-0.78-2.09-0.59-4.06-0.57-6.01
		c0.04-3.34-0.52-6.59-1.01-9.88c-0.54-3.6,0.1-7.18,1.64-10.48c0.98-2.1,1.95-4.18,2.63-6.4c2.04-6.57,6.04-12.05,9.78-17.68
		c0.54-0.81,1.09-1.62,1.73-2.38c1.89-2.22,2.8-4.71,2.77-7.81c-0.05-4.98-0.89-9.79-1.6-14.67c-0.53-3.69-0.94-7.43-1.32-11.16
		c-0.45-4.44-0.6-8.92-1.46-13.33c-0.39-2.01-0.4-4.13-0.51-6.16c-0.33-6.04-1.25-12.11-0.59-18.15c0.58-5.25,0.62-10.54,1.44-15.79
		c0.63-4.04,0.72-8.17,1.7-12.18c0.06-0.26,0.12-0.61-0.01-0.8c-1.77-2.58-0.39-5.21,0.21-7.6c1.55-6.21,4.14-12.07,6.64-17.97
		c4.28-10.11,9.63-19.7,14.06-29.73c0.71-1.62,1.2-3.32,2.37-4.77c0.67-0.82,0.36-2.14,0.21-3.19
		C183.71,831.63,183.22,827.27,183.07,822.75z"/>
	<path d="M176.22,152.99c0.9-3.39,3.65-4.29,6.19-5.23c6.92-2.56,14.18-3.36,21.44-2.67c7.54,0.71,14.77,3,21.72,6.03
		c1,0.44,2.23,0.83,2.38,2.34c-2.04,0.72-3.93,0.02-5.78-0.5c-7.98-2.26-16.08-3.72-24.39-3.01c-4.87,0.42-9.72,1.15-14.47,2.38
		C181.07,152.91,178.8,153.55,176.22,152.99z"/>
	<path d="M183.77,173.72c1.41-3.82,4.57-5.36,7.57-6.79c6.76-3.23,14.08-4.9,21.34-6.5c3.8-0.84,7.75-1.57,11.74-1.26
		c0.96,0.07,2.03-0.19,2.56,1.24c-3.04,1.41-6.28,1.79-9.41,2.61c-9.27,2.43-18.54,4.86-27.19,9.2
		C188.46,173.18,186.4,174.29,183.77,173.72z"/>
</g>
<g>
	<path fill="#1A1A1A" d="M359.67,1012.44c0.59,1.45,2.06,2.07,3.16,2.76c8.06,5.06,16.11,10.15,24.43,14.79
		c1.74,0.97,3.28,1.08,5.18,0.33c3.39-1.34,6.27-3.38,8.96-5.74c1.22-1.07,1.88-1.2,2.93,0.37c1.09,1.62,2.24,3.22,3.4,4.81
		c0.95,1.29,1.03,2.66,0.35,4.29c-1.62,3.88-3.69,7.53-5.46,11.33c-2.47,5.32-4.85,10.69-7.06,16.13c-0.44,1.09-1.09,1.38-2,1.72
		c2.74,2.16,5.39,4.27,8.07,6.34c1.2,0.93,1.45,2.26,1.44,3.57c-0.03,4.51,0.47,8.96,1.09,13.42c0.46,3.32,2.28,6.14,3.15,9.3
		c0.85,3.09,1.52,6.18,1.81,9.27c-0.7,0.61-1.89,0.26-1.94,1.1c-0.15,2.21-2.03,2.35-3.29,2.37c-2.19,0.03-4.44,2.01-6.5-0.15
		c-0.5,0.66-0.04,1.42-0.67,1.98c-1.54-0.36-2.63-1.65-4.06-2.7c2.27,0,4.54,0,6.81,0c1.36,0,2.77,0.21,4.07-0.08
		c0.88-0.19,1.57-1.19,2.79-0.74c-1.04-1.05-2.29-1.21-3.5-1.34c-3.02-0.32-6.04-0.61-9.05-1.07c-4.95-0.75-9.93-1.3-14.92-1.8
		c-4.17-0.42-8.31-0.51-12.45-0.36c-6.7,0.25-13.38,0.76-20.03,1.96c-5.34,0.97-10.7,1.84-15.94,3.24
		c-4.71,1.25-9.51,1.99-14.6,2.96c1.2-4.61,0.28-8.86-0.84-13.07c-0.29-1.09-0.33-2,0.18-3.09c2.91-6.19,2.71-12.69,1.78-19.26
		c-0.72-5.12,0.6-9.75,3.68-13.9c0.85-1.14,1.6-2.36,2.43-3.52c0.71-0.98,0.36-1.66-0.53-2.23c-10.4,7.47-12.13,17.16-6.48,31.57
		c-3.22,3.7-6.33,7.13-4.66,12.63c1.07,3.54,1.2,7.37,3.3,10.73c-1.59,1.03-3.38,0.76-4.98,1.15c-3.97,0.96-8.07,1.31-12.07,2.15
		c-1.16,0.24-2.23,1.28-3.81,0.24c-0.97-0.64-2.06,1.39-3.48,1.68c-0.32-0.85-0.23-1.75-0.15-2.6c0.52-5.29-1.09-10.32-1.93-15.43
		c-0.25-1.5-0.04-2.34,0.93-3.3c2.39-2.36,3.9-5.28,5.1-8.38c0.13-0.33,0.24-0.71,0.19-1.04c-0.94-5.89-0.83-11.93-2.57-17.7
		c-0.33-1.08,0.35-1.91,0.52-2.85c0.67-3.69,1.24-7.38,1.63-11.11c0.21-2.06,0.51-4.1,0.47-6.17c-0.01-0.63,0.4-0.98,0.73-1.39
		c2.64-3.24,3.47-7.34,5.22-11c0.1-0.2-0.04-0.52-0.07-0.79c-0.81,0.01-1.05,0.94-2.1,1.17c0.42-3.37-0.54-6.5-0.51-9.71
		c0.04-5.13-0.45-10.23-0.94-15.33c-0.12-1.25,0.69-2.2,1.28-3.14c3.16-5.05,6.36-10.08,9.66-15.04c0.66-0.99,0.91-1.63,0.5-2.88
		c-0.43-1.3-0.28-3.09-0.83-4.13c-1.48-2.86-0.15-5.6-0.33-8.37c-0.37-5.73-0.99-11.43-1.65-17.13c-0.3-2.59-0.27-5.2-0.51-7.81
		c-0.86-9.48-0.62-19.01-0.69-28.52c-0.01-1.26,0.65-2.01,1.17-2.9c2.61-4.38,4.19-9.2,5.97-13.93c2.57-6.82,5.43-13.52,8.34-20.19
		c1.21-2.77,2.3-5.62,4.13-8.06c1.2-1.6,0.87-3.55,1.05-5.27c0.38-3.57,1.04-7.16,0.66-10.79c-0.13-1.24,0.23-2.19,1.13-3.15
		c1.82-1.94,2.17-4.15,0.88-6.64c-1.03-1.97-1.85-4.03-3.46-5.64c-1.09-1.09-1.25-2.22-0.82-3.85c1.37-5.16,2.98-10.37,2.73-15.74
		c-0.27-5.96-0.88-11.94-2.29-17.79c-1.86-7.68-3.67-15.37-5.43-23.07c-1.03-4.48-2.63-8.91-3.15-13.46
		c-0.62-5.35-1.83-10.69-0.26-16.25c0.78-2.75,0.75-5.84,1.35-8.77c1.48-7.22,2.97-14.43,4.68-21.6c1.67-7,3.6-13.96,4.15-21.2
		c0.17-2.2,0.86-4.36,1.16-6.58c0.27-2.04,2.41-2.59,4.21-4.2c-0.18,6.73,0.84,12.8,1.93,18.84c1.07,5.94,2.17,11.92,4.7,18.07
		c0.72-1.63,0.59-2.82,0.46-3.9c-0.6-4.73-0.73-9.5-1.15-14.23c-0.41-4.71-0.39-9.49-1.47-14.15c-0.28-1.21-0.04-2.54-0.07-3.81
		c-0.03-1.33,0.27-2.69-0.6-3.85c4.3-4.4,8.57-8.42,14.09-10.97c2.8-1.29,5.31-3.22,7.34-5.68c-0.64-0.81-1.14-0.55-1.77-0.33
		c-7.62,2.66-15.25,5.33-22.91,7.86c-1.78,0.59-3.63,1.25-5.66,1.13c0.15-2.15,1.45-3.88,1.41-5.97c-0.02-1.09,1.28-1.53,1.98-1.55
		c3.98-0.1,6.38-3.15,9.46-4.87c2.79-1.56,4.64-4.27,7-6.36c1.47-1.3,1.46-3.2,2.16-4.79c2.52-5.77,4.79-11.66,6-17.89
		c0.59-3.05-0.47-5.91-1.65-8.58c-2.42-5.45-3.56-11.37-6.57-16.72c7.01-3.09,13.99-6,20.4-10.04c0.31-0.19,0.45-0.55,0.15-1.31
		c-6.7,2.46-13.07,5.68-20.01,9.1c0.8-10.51,2.91-20.46,3.21-30.83c3.03,0.37,6.23,0.73,9.45,0.54c2.27-0.13,4.47,0.14,6.62,0.87
		c2.11,0.72,2.36,1.2,1.94,3.29c-0.53,2.62-1.14,5.25-0.89,8.12c4.07,1.61,8.24,2.63,12.69,2.47c4.24-0.14,8.44,0.78,12.71,0.58
		c1.87-0.09,3.55,1.05,5.2,1.93c5.1,2.73,9.87,6.01,14.82,9c1.33,0.81,2,1.83,1.54,3.67c-0.5,2.01,0.03,4.01,1.4,5.8
		c1.46,1.9,2.58,4.05,3.98,6c2.25,3.14,2.71,6.56,1.79,10.22c-0.25,0.99-0.23,1.94-0.03,2.93c0.48,2.37,1.01,4.74-0.53,6.99
		c-0.41,0.61-0.25,1.43-0.09,2.13c1.96,8.5,3.43,17.09,4.86,25.69c1.06,6.43,1.96,12.87,2.78,19.34c0.56,4.41,1.39,8.81,1.95,13.21
		c0.58,4.61,1.22,9.22,1.86,13.82c0.47,3.34,0.59,6.76,1.49,10.04c0.14,0.51,0.19,1.13,0.03,1.62c-0.73,2.31-0.27,4.55-0.04,6.88
		c0.9,9.3,0.85,18.65,0.52,27.97c-0.21,5.83-0.51,11.69-1.05,17.51c-0.53,5.8-1.04,11.61-1.64,17.4c-0.44,4.24-1.03,8.47-1.32,12.86
		c-1.38-4.3-5.45-6.61-7.3-10.81c-0.94,1.27-0.11,2.15,0.19,2.86c2.96,7.07,5.08,14.44,6.65,21.89c1.16,5.47,2.68,10.88,3.43,16.44
		c0.38,2.81-0.11,5.61-0.64,8.32c-0.61,3.11-0.26,6.26-0.9,9.36c-0.31,1.48-0.13,3.08-0.04,4.62c0.38,6.62-0.34,13.21-0.69,19.79
		c-0.35,6.59-1.04,13.19-1.91,19.77c-0.68,5.13-1.3,10.3-1.84,15.46c-0.74,7.11-2.29,14.08-4.22,20.99
		c-1.95,6.97-5.23,13.4-7.63,20.17c-1.95,5.5-3.7,11.1-5,16.82c-2.08,9.18-4.4,18.3-6.32,27.51c-0.76,3.64-2.26,7.2-1.85,11.06
		c0.16,1.54-1.17,2.22-2.09,2.97c-2.71,2.2-5.72,3.92-8.89,5.4c-1.06,0.5-1.88,0.48-2.73-0.1c-5.65-3.82-11.96-6.37-17.96-9.54
		c-2.6-1.37-5.07-2.99-7.79-4.14C360.88,1012.47,360.38,1012.07,359.67,1012.44z M350.18,881.28c-0.7,0.36-0.95,0.91-1.1,1.7
		c-0.57,2.96-1.23,5.9-1.94,8.83c-1.5,6.21-2.95,12.43-4.6,18.6c-2.4,9-3.95,18.21-6.49,27.18c-1.77,6.26-2.62,12.63-2.23,19.15
		c0.12,1.99-0.07,4,0.04,5.99c0.14,2.6,0.4,5.19,0.66,7.77c0.4,3.82,1.89,7.37,2.82,11.06c2.16,8.6,4.66,17.11,7.98,25.36
		c1.29,3.21,2.8,4.9,5.31,5.59c0.28-1.36-2-1.27-1.53-2.75c0.35-1.11-0.28-2.15-0.63-3.12c-2.77-7.77-5.51-15.56-8.81-23.13
		c-1.75-3.99-3.29-8.04-2.49-12.43c0.77-4.24,0.34-8.48,0.47-12.71c0.08-2.63,0.02-5.27,0.01-7.9c-0.01-2.25,0.45-4.44,0.96-6.61
		c1.44-6.13,3.1-12.21,4.46-18.36c1.68-7.63,3.21-15.3,4.69-22.97c1.32-6.83,2.87-13.63,3.04-20.63c1.83-3.5,1.57-7.41,2.09-11.15
		c0.31-2.21,0.52-4.42,1.01-6.6c0.58-2.6,1.58-5.19,1.66-7.81c0.17-5.92,0.57-11.87-1.28-17.7c-0.8-2.52-1.89-5.23-1.26-7.86
		c1.36-5.71,2.47-11.47,3.47-17.24c0.42-2.43,1.51-4.95,0.51-7.41c-0.62-1.51-0.99-3.04-1.34-4.58c-1.76-7.88-3.87-15.68-6.08-23.45
		c-1.16-4.09-2.57-8.12-3.73-12.21c-2.8-9.82-4.95-19.8-7.1-29.77c-0.19-0.89-0.48-1.6-1.31-2.09c-0.15,0.31-0.31,0.49-0.29,0.63
		c0.53,3.26,0.79,6.55,1.07,9.84c0.27,3.2,0.63,6.41,1.28,9.55c1.52,7.39,3.27,14.72,5.19,22.02c2.19,8.32,4.05,16.73,6,25.11
		c0.98,4.21,1.79,8.35,0.72,12.79c-0.66,2.73-0.94,5.63-1.21,8.47c-0.29,3.11-0.71,6.2-1.41,9.24c-0.33,1.44-0.34,2.85-0.02,4.28
		c0.95,4.25,2.41,8.34,3.97,12.4c0.58,1.51,1.79,3.09,1.11,4.85c-1.53,3.98-2.54,8.14-4.29,12.03c-1.04,2.31-1.54,4.87-1.4,7.26
		C348.35,875.48,348.88,878.51,350.18,881.28z M338.38,988.99c-0.84,0.55-1.09,0.62-1.1,0.73c-0.56,3.62-1.44,7.21-1.25,10.92
		c0.04,0.82-0.01,1.56-0.67,2.24c-3.84,3.91-6.87,8.46-9.76,13.06c-2.13,3.39-4.31,6.98-4.66,10.98
		c-0.45,5.13-0.23,10.35,0.03,15.51c0.06,1.28,0.29,2.55,0.26,4.32c-4.04-3.91-7.2-8-10.62-12.04c-0.17,0.55-0.05,0.75,0.07,1.01
		c2.08,4.62,5.43,8.36,8.47,12.31c1.16,1.5,2.85,2.71,3.55,4.35c0.76,1.79,1.12,3.34,3.42,3.76c1.23,0.22,2.29,1.3,3.45,1.94
		c8.92,4.94,18.52,8.22,28.15,11.34c4.48,1.45,8.84,3.25,13.37,4.54c3.21,0.91,3.6,0.83,5.62-1.7c0.73-0.92,1.65-1.69,2.48-2.53
		c1.08-1.09,1.76-2.38,2.05-3.74c-13.12-6.4-24.78-14.91-37.34-21.91c3.13,2.59,6.36,5.02,9.71,7.27
		c8.17,5.49,16.12,11.37,25.34,15.14c-2.59,3.02-4.02,3.55-7.44,2.21c-6.87-2.69-13.93-4.81-21.06-6.66
		c-6.46-1.67-12.78-3.74-19.12-5.76c-2.2-0.7-3.64-2.41-5.14-4.01c-1.06-1.13-0.48-2.61-0.49-3.91c-0.06-7,0.01-14-0.06-21
		c-0.01-1.3,0.13-2.57,0.65-3.67c1.52-3.23,3.09-6.45,4.88-9.52c2.37-4.07,5.02-7.99,7.45-12.03c0.46-0.76,1.51-1.86-0.16-2.65
		c-0.28-0.13-0.17-0.47-0.07-0.73C339.58,995.59,337.52,992.59,338.38,988.99z M382.87,880.72c0.14-2.04-1.3-3.17-1.62-4.75
		c-0.46-2.27-1.49-4.31-2.99-6.14c-5.07-6.19-8.27-13.15-9.05-21.23c-0.25-2.55-0.72-5.2-1.98-7.65c-1.53,1.55-1.74,3.29-1.82,5.26
		c-0.15,3.64,0.59,7.16,1.27,10.65c0.77,3.95,1.42,7.91,4.26,11.28C374.63,872.51,377.8,877.32,382.87,880.72z M396.71,656.23
		c-2.5-0.34-33.52,16.9-38.28,21.17C371.43,671.01,384.03,663.91,396.71,656.23z M382.67,652.46c-2.61,1.07-4.46,3.12-6.61,4.78
		c-3.45,2.67-6.93,5.33-10.22,8.19c-2.43,2.12-5.05,4.01-7.43,6.18c-0.67,0.62-1.69,1.23-0.63,2.54
		C366.9,667.83,374.87,660.25,382.67,652.46z"/>
	<path fill="#1A1A1A" d="M291.32,596.76c2.41-4.32,1.98-9.27,2.92-13.99c1.35-0.9,2.94-0.9,4.56-0.88
		c3.73,0.03,7.47-0.19,11.18,0.07c2.92,0.21,5.89,0.23,8.77,1c2.45,0.66,3.71,2.32,4.25,4.77c0.72,3.24,0.28,6.48,0.5,9.71
		c0.62,9.1,0.95,18.21,1.19,27.33c0.08,3.12,1.36,6.23,2.25,9.29c0.65,2.25,0.53,4.54,0.21,6.72c-0.21,1.43-0.41,2.85-0.38,4.27
		c0.13,5.43-0.49,10.83-0.69,16.25c-0.26,7.12-0.9,14.28-2.86,21.2c-2.58-0.91-4.18-3.25-6.22-4.94
		c-6.13-5.09-12.57-9.7-19.42-13.73c-3.99-2.35-8.01-4.63-12.11-6.77c-4.81-2.52-9.92-4.33-15.16-5.77c-0.7-0.19-1.41-0.2-2.34,0.11
		c3.22,1.44,6.38,2.63,9.33,4.22c9.09,4.91,17.76,10.53,26.32,16.31c5.73,3.87,11.34,7.85,16.15,12.86
		c1.25,1.31,2.19,2.83,3.46,4.13c1.76,1.8,0.53,4.03,0.14,5.91c-3.65,17.65-8.37,35.05-12.81,52.51
		c-1.73,6.79-3.16,13.68-5.19,20.38c-1.39,4.57-2.83,9.17-4.89,13.51c-6.28,13.21-12.31,26.53-18.97,39.55
		c-1.32,2.58-0.99,5.58-1.6,8.35c-0.27,1.26-1.07,2.54-0.32,4.23c1.46-2.34,2.84-4.54,4.21-6.74c0,3.15,1.12,6.09,0.92,9.11
		c-0.08,1.15,0.3,2.17,0.63,3.14c1.42,4.24-0.31,8.16-1.27,12.06c-1.45,5.86-2.66,11.79-4.37,17.56c-1.32,4.42-1.46,8.77-1.49,13.23
		c-0.02,3.91-0.09,7.82,0.02,11.72c0.15,5.34-0.57,10.64-0.69,15.98c-0.11,5.1-0.64,10.22-1.05,15.33c-0.48,6.08-1,12.15-1.57,18.22
		c-0.72,7.6-3.25,14.72-5.98,21.77c-4.36,11.26-8.7,22.52-13.13,33.75c-1.9,4.8-3.35,9.74-5.05,14.6c-0.32,0.92-0.36,1.74-0.28,2.64
		c0.89,0.12,1.07-0.92,1.93-1.07c1.12,3.29,2.01,6.71,3.44,9.89c1.72,3.83,1.47,7.15-0.79,10.71c-2.04,3.22-3.4,6.84-4.68,10.45
		c-0.75,2.11-2.62,3.39-4.32,4.68c-1.72,1.3-3.09,2.87-4.36,4.61c2.33-0.06,3.82-1.7,5.67-2.68c0.82,3.4,3.14,6.04,4.56,9.14
		c0.48,1.04,1.15,2.01,1.83,2.94c0.42,0.58,0.46,1.05,0.28,1.73c-1.51,5.84-2.92,11.71-4.5,17.54c-0.28,1.05,0.13,2.16-0.61,3.04
		c2.92,2.1,3.1,5.33,3.58,8.3c0.41,2.55-0.18,5.2,0.57,7.79c0.38,1.3-0.58,2.37-1.45,3.72c0.06-1.84-0.84-2.94-2.08-3.61
		c-2.48-1.34-4.89-2.56-6.99-4.68c-1.7-1.71-4.54-2.33-6.9-3.36c-5.21-2.28-10.44-4.52-15.66-6.79c-1.75-0.76-3.52-1.19-5.45-1.14
		c-2.95,0.07-5.91-0.26-8.74-1.06c-1.29-0.36-1.08,1.09-1.93,1.1c-2.43,0-4.84,0.2-7.26,0.46c-6.13,0.65-12.14,1.88-18.18,3.03
		c-8.78,1.67-17.06,4.87-25.36,7.99c-2.61,0.98-5.2,2.04-7.21,4.28c-1.29,1.44-1.47,2.52-0.39,3.96c0.25,0.33,0.17,0.68,0.15,1.04
		c-3.43-0.65-4.87-3.74-3.66-7.85c0.57-0.36,0.81,0.68,1.45,0.3c0.47-3.95-0.76-7.75-1.31-11.62c-0.94-6.57-3.67-12.6-5.75-18.82
		c-0.55-1.65-0.28-2.64,0.75-4.09c1.91-2.69,4.8-3.93,7.22-5.84c2.35-1.84,5.12-3.08,7.08-5.48c1-1.22,2.76-1.57,4.2-2.29
		c1.22-0.61,2.28-1.29,2.89-2.65c1.18-2.65,3.55-4.46,5.16-6.82c0.46-0.68,0.8-1.37,1.06-2.07c-1.61-1.72-3.04-1.87-4.72-0.01
		c-0.47,0.52-1.21,1.31-2.25,1.5c-0.05-4.16-0.93-8.07-1.65-12.01c-0.37-2.04,0.1-4.11,0.46-6.16c0.68-3.95,1-7.98,1.87-11.89
		c0.96-4.32,3.78-7.73,6.41-11.16c5.09-6.64,8.7-13.89,8.59-22.44c-0.05-4-1.32-7.89-2.18-11.8c-2.06-9.36-4.21-18.71-6.53-28.01
		c-1.16-4.66-1.77-9.42-1.47-14.11c0.4-6.25,0.09-12.49,0.49-18.71c0.29-4.58,0.93-9.15,1.22-13.74c0.03-0.42,0.29-0.85,0.53-1.23
		c3.82-5.86,5.75-12.64,9.12-18.72c2.98-5.37,6.18-10.61,9.14-15.99c2.05-3.73,4.89-7.06,6.22-11.12c1.55-4.75,2.14-9.71,2.67-14.69
		c0.39-3.65,0.27-7.37,1.1-10.95c0.57-2.43,2.19-4.47,3.48-6.6c3.37-5.56,6.48-11.27,9.5-17.02c0.77-1.47,2.25-2.62,2.22-4.5
		c-0.02-1.95,0.25-3.94-0.1-5.83c-1.22-6.63-1.17-13.17,0.38-19.76c0.71-3.03,0.92-6.17,1.35-9.27c0.6-4.42,1.07-8.87,1.82-13.27
		c0.92-5.43,2.04-10.83,3.1-16.24c0.99-5.06,2.07-10.1,3.02-15.16c0.87-4.64,1.61-9.3,2.43-13.94c0.92-5.26,1.57-10.56,2.6-15.81
		c0.72-3.66,1.7-7.48,1.5-11.08c-0.21-3.83,0.42-7.76-0.66-11.52c-0.28-0.96,0.12-1.59,0.44-2.26c2.1-4.43,4.26-8.84,6.4-13.25
		c0.56-1.15,0.76-2.24,0.37-3.6c-1.52-5.25-1.87-10.7-2.55-16.1c-0.53-4.25-0.7-8.55-1.5-12.77c-0.77-4.04,0.4-5.69,5.01-6.43
		c5.91-0.95,11.52-2.91,17.21-4.64c5.09-1.54,10.15-3.24,15.3-4.55c1.96-0.49,4.18-0.29,6.23,0c2.17,0.3,4.35,0.3,6.47,0.53
		C282.14,596.69,286.55,596.41,291.32,596.76z M235.99,1055.88c-1.94-1.07-3.35-0.1-4.81-0.03c-2.09,0.1-4.2-0.15-6.27,0.09
		c-5.16,0.61-10.13,1.28-15.01-1.85c-2.08-1.33-4.32-2.56-6.06-4.24c-6.06-5.85-11.96-11.87-18.2-17.55
		c-1.13-1.03-2.17-2.11-3.45-3.01c-1.75-1.23-3.59-2.75-4.64-4.42c-1.32-2.11-2.88-2.73-4.96-2.81c-3.87-0.14-3.87-0.1-5.69,1.53
		c2.22,0.21,4.39,0.82,6.58,1.04c1.75,0.17,2.79,0.97,3.87,2.09c5.78,5.97,11.02,12.45,17.08,18.17c1.96,1.85,4,3.62,6.01,5.43
		c-0.21,0.27-0.42,0.54-0.63,0.82c-10.86-4.2-21.44-9.06-32.15-13.67c0.42,0.67,0.84,1.28,1.42,1.69c4.34,3.1,8.76,6.1,13.46,8.65
		c8.79,4.77,17.89,8.79,27.5,11.6c2.48,0.73,4.94,0.95,7.64,0.45c3.15-0.58,6.27-1.34,9.42-1.9
		C229.94,1057.47,232.93,1057.4,235.99,1055.88z M243.1,1016.33c-3.7,1.05-6.87,3.31-10.48,4.56c-1.36,0.47-2.55,0.5-3.89-0.5
		c-3.35-2.5-6.87-4.76-10.32-7.12c-7.18-4.92-14.33-9.9-21.83-14.36c-2.64-1.57-5.41-3.03-7.33-4.58c-0.21-7.34-3.25-13.14-6.13-19
		c-0.26,0.33-0.39,0.61-0.33,0.85c1.08,4.2,1.93,8.48,3.35,12.57c0.96,2.76,1.14,5.94,3.74,8.03c3.76,3.04,7.34,6.31,11.12,9.32
		c4.39,3.5,8.9,6.84,13.38,10.22c4.26,3.21,8.53,6.4,13.18,9.08c2.01,1.16,3.63,1.05,5.75,0.08c3.34-1.53,5.88-4.02,8.68-6.2
		C242.92,1018.54,243.78,1017.66,243.1,1016.33z M272.49,837.73c-1.15,0.25-0.8,1.09-1.06,1.6c-4.27,8.6-8.45,17.25-12.76,25.84
		c-1.58,3.16-2.97,6.39-5.64,8.97c-5.99,5.78-11.98,11.58-17.42,17.89c-1.15,1.33-2.2,2.75-3.38,4.23c1.54,0.11,2.13,0.01,2.9-0.51
		c5.18-3.48,10.22-7.12,15.03-11.11c5.68-4.71,10.76-9.73,12.39-17.29c0.04-0.16,0.22-0.29,0.29-0.46
		c3.15-8.09,6.53-16.11,9.11-24.41C272.41,841.03,273.23,839.48,272.49,837.73z M164.38,1038.8c0.57,0.48,0.94,1.36,1.9,1.6
		c0.97-2,0.93-2.94-0.18-4.38C165.52,1036.9,164.68,1037.6,164.38,1038.8z"/>
	<path fill="#1A1A1A" d="M274.04,591.46c-3.31-1.16-6.61-0.46-9.77-1.24c-0.69-0.17-1.44-0.11-2.16-0.15
		c-3.6-0.18-7.19-0.03-10.81-0.42c-4.99-0.54-10.03,0.42-15.05,0.84c-2.41,0.2-4.95,0.9-7.37-0.25c-0.38-0.18-0.95-0.26-1.32-0.11
		c-5.34,2.25-11.11,3.4-16.19,6.35c-1.82,1.06-3.93,1.46-6.5,1.79c3.21-4.84,4.29-10.07,5.54-15.16c1.29-5.25,2.25-10.6,3.45-15.88
		c0.4-1.77,1.12-3.43-0.34-5.12c-0.58-0.67-0.24-1.77-0.21-2.66c0.23-5.51-0.74-10.89-1.53-16.31c-0.61-4.17-1.75-8.52,0.74-12.61
		c1.76-2.89,3.3-5.91,5.08-8.77c0.48-0.77,0.8-1.52,0.55-2.26c-0.96-2.93-0.43-5.93-0.45-8.89c-0.02-1.92-0.63-3.71-0.25-5.8
		c0.5-2.78,1.84-4.84,3.58-6.66c4.79-5,8.87-10.56,13.22-15.91c2.72-3.34,5.25-6.87,8.52-9.75c0.62-0.55,1.45-1.03,1.62-2.29
		c-2.47,0.98-4.33,2.5-6.01,4.08c-2.29,2.15-4.54,4.36-6.54,6.85c-1.94,2.43-4.6,4.24-7.28,5.86c-1.31,0.79-2.41,1.81-3.92,3.23
		c-0.54-6.43-3.3-11.78-3.66-17.82c-0.31-5.21-1.61-10.37-2.67-15.51c-1.38-6.71-3.03-13.36-3.78-20.19c-0.25-2.27-1.14-4.47-1-6.85
		c1.17-0.21,2.14,0.35,3.24-0.05c1.13-0.42,2.48,0.15,3.7-0.52c0.49-0.27,1.36-0.26,1.86,0c2.37,1.22,4.62,0.07,6.84-0.35
		c2.14-0.41,2.64-2.14,2.46-4.45c-0.16-2.03-0.09-4.21,0.49-6.14c1.68-5.66,2.17-11.42,2.09-17.27c-0.02-1.82-0.02-3.64,0-5.45
		c0.09-6.58-0.79-13.08-1.61-19.58c-0.08-0.63-0.03-1.27-0.03-1.91c0-5.18,0.02-10.36-0.01-15.54c-0.01-2.53-0.56-3.8-1.97-4.88
		c0.09-0.71,1.27-0.99,0.58-2.09c-0.89-1.43-1.37-3.19-3.26-3.69c-5.47-1.45-10.98-2.38-16.62-0.84c3.09,0.42,6.19,0.72,9.25,1.36
		c2.99,0.63,6.27,0.39,8.77,2.77c-6.07,1.01-11.78,2.8-17.45,4.8c-5.58,1.97-10.8,4.57-15.8,7.73c10.55-3.29,21.14-6.22,32.06-8.93
		c0.01,2.01,0.44,3.64-0.26,5.19c-0.68,1.5,0.53,2.74,0.38,4.21c-0.49,4.88,0.15,9.78,0.63,14.6c0.94,9.48,1.18,18.95,0.86,28.43
		c-0.15,4.38-0.27,8.93-2.23,13c-4.28,0.98-8.04-0.83-11.91-1.75c-6.24-1.48-12.51-2.73-18.88-3.52c-6.1-0.76-12.21-1.46-18.28-2.55
		c-3.84-0.69-7.82-0.95-11.74-1.34c-7.74-0.78-15.48-1.1-23.25-0.96c-2.31,0.04-4.64,0.27-6.77,1.31c-0.62,0.3-1.22,0.26-1.84,0.31
		c-1.95,0.17-3.11,1.67-2.45,3.51c0.46,1.27,0.49,2.85,2.03,3.62c0.95,0.48,0.56,1.33,0.24,2.08c-3.17-0.82-5.43-4.5-4.37-7.49
		c2.2-6.21,3.89-12.56,5.06-19.02c0.95-5.25,1.98-10.49,2.86-15.76c0.09-0.54,0.33-1.06,0.37-1.55c0.15-1.93,1.08-3.69-0.16-5.88
		c-0.92-1.63-0.69-4.01-0.31-6.24c0.8-4.7,2.42-9.12,6.19-11.76c4.87-3.41,5.44-8.43,6.4-13.31c1.75-8.89,2.87-17.92,5.56-26.6
		c3.28-10.58,7.65-20.69,14.12-29.78c0.48-0.68,0.93-1.29,1.69-1.66c8.31-4.02,16.34-8.69,25.38-11.04
		c4.9-1.28,9.78-2.54,14.83-3.24c2.83-0.39,5.72-0.66,8.44-2.3c5.01-3.03,10.37-5.5,15.6-8.15c0.76-0.39,1.46-1.14,2.48-0.79
		c3.16,17.8,6.96,25.91,21.45,46.3c0.9-0.59,1.58-1.07,1.93-2.37c0.44-1.67,1.73-3.09,2.54-4.68c2.75-5.4,4.66-11.15,7.12-16.67
		c1.41-3.17,2.7-6.4,4.31-9.48c0.44-0.84,0.88-1.33,1.94-1.14c2.59,4.61,4.41,9.67,6.97,14.35c0.63,1.16-0.11,1.89-0.19,2.79
		c-0.58,6.96-0.66,13.93-0.43,20.89c0.23,7.24,1.6,14.32,3.43,21.34c2.11,8.07,4.59,16.04,6.53,24.16c0.36,1.51-0.33,2.57-0.25,3.89
		c0.45,6.97-0.48,13.92-0.65,20.88c-0.1,4.22,0.04,8.51-0.47,12.7c-0.92,7.61-0.18,15.21-0.48,22.81c-0.08,2.15-0.21,4.3-0.42,6.45
		c-0.53,5.57,0.19,11.16,0.77,16.72c0.36,3.45,0.87,6.9,0.14,10.36c-0.9,4.3-1.22,8.67-1.58,13.03c-0.54,6.37-0.98,12.74-1.23,19.14
		c-0.09,2.4-0.48,4.85-0.36,7.26c0.24,4.91-0.86,9.6-1.9,14.33c-1.84,8.42-4.08,16.71-6.61,24.95c-1.46,4.76-1.05,9.92-0.42,15
		c0.44,3.54,0.86,7.11,1.17,10.67c0.45,5.24,0.03,10.49-0.32,15.75c-0.27,4.04-0.89,8.03-1.32,12.03
		C276.01,582.26,275.37,586.67,274.04,591.46z M222.26,290.11c-0.75,0.16-0.87,0.62-0.74,0.87c1,1.91,0.64,4.06,0.92,6.06
		c0.84,6.12,1.43,12.32,1.64,18.48c0.23,6.78,1.01,13.54,0.69,20.34c-0.13,2.72,0,5.45-0.03,8.18c-0.01,1.47,0.38,2.64,2.24,3.22
		c2.41-9.15,1.43-18.48,1.55-27.72c0.12-9.25,0.29-18.51-0.28-27.77c0.17,7.11-1.2,14.15-0.91,21.27
		C225.89,305.32,224.98,297.51,222.26,290.11z M215.68,280.17c1.05-2.53-1.89-7.07-5.25-7.87
		C213.3,274.34,213.71,277.73,215.68,280.17z M220.69,284.76c-1.58,0.91-1.91,3.21-0.96,6.59
		C221.04,288.77,221.16,287.97,220.69,284.76z"/>
	<path fill="#1A1A1A" d="M499.77,433.08c-1.03-0.59-1.61-1.27-2.15-2c3.36-2.32,3.54-4.82,0.54-7.49c-0.2-0.18-0.42-0.36-0.58-0.58
		c-2.51-3.43-6-4.97-10.12-5.27c-5.65-0.41-11.27-1.75-16.95-1.06c-4.44,0.54-8.89,0.85-13.33,1.43c-4.96,0.65-9.87,1.55-14.8,2.3
		c-5.28,0.81-10.44,2.15-15.59,3.5c-0.72,0.19-1.34,0.36-2.29,0.24c3.62-19.17,3.08-38.26,0.47-57.67
		c4.36,2.51,8.38,5.11,12.46,8.19c-0.73-3.81-3.89-5.39-6.05-8.29c4.5,1.38,8.3,3.58,12.58,4.5c-5.07-4.02-10.84-6.86-16.48-9.72
		c-0.43-2.91,1.1-4.98,2.29-7.28c3.61-6.97,5.98-14.42,7.72-22.07c1.13-4.95,1.73-9.99,2.62-14.99c0.32-1.82,0.46-3.8-0.86-5.7
		c1.21-0.45,1.48-1.37,1.53-2.61c0.35-9.32-1.11-18.4-3.45-27.36c-0.45-1.73-1.12-3.48-2.71-5.33c0.73,3.08,1.62,5.57,2.01,8.18
		c0.55,3.62,1.33,7.22,1.35,10.89c0.01,2.27,0.53,4.46,0.68,6.7c0.26,3.86-0.86,7.46-1.38,11.16c-0.7,5.02-1.52,10.04-2.59,14.99
		c-1.25,5.81-2.57,11.61-4.78,17.16c-0.49,1.22-0.94,2.46-1.6,3.65c1.79-11.35,4.29-22.59,5.25-34.21c-1.69,1.35-1.14,3.3-1.41,4.82
		c-1.68,9.55-3.88,18.98-5.94,28.44c-1.05,4.8-2.46,9.59-2.37,14.58c0.02,1.17-1.24,0.93-1.45,1.74c0.37,2.44,0.75,4.9-0.12,7.37
		c-0.2,0.57-0.14,1.27-0.06,1.9c0.73,5.93-0.4,11.85-0.02,17.78c0.43,6.62-0.44,13.2-0.68,19.79c-0.14,3.96-1.05,7.99-1.3,11.96
		c-0.24,3.78-1.41,7.44-1,11.38c0.28,2.64-1.13,5.51-1.98,8.21c-2.33,7.38-3.85,14.95-5.45,22.51c-0.5,2.37-0.09,4.83-1.01,7.13
		c-0.47,1.17,1.28,1.34,1.16,2.73c-0.3,3.52-0.1,7.08-0.1,10.73c-0.9-0.21-0.94-0.95-1.22-1.51c-3.6-7.19-7.19-14.38-10.81-21.55
		c-0.47-0.93-0.78-2.03-2.22-2.55c1.26,3.39,2.39,6.62,3.67,9.79c3.75,9.32,7.72,18.54,11.79,27.73c1.96,4.42,4.96,8.21,6.78,12.66
		c0.36,0.9,0.56,1.63,0.3,2.71c-0.89,3.63-1.38,7.35-1.73,11.08c-0.04,0.44,0.12,1.02-0.29,1.26c-2.54,1.46-1.94,4.17-2.65,6.43
		c-0.43,0.53-1.22-0.01-1.79,0.53c-0.36,0.84-0.24,1.64,0.52,2.34c1.59,1.47,2.61,3.44,4.29,4.85c2.14,1.81,2.48,4.27,2.02,6.87
		c-0.72,4.12-0.77,8.22,0.02,12.34c0.15,0.78,0.23,1.72-0.07,2.42c-0.78,1.87-0.6,3.83-0.34,5.64c0.89,6.27,1.58,12.57,2.52,18.83
		c0.54,3.61,1.06,7.26,1.27,10.94c0.1,1.78,0.76,3.51,0.38,5.54c-0.8-0.27-1.42-0.74-2.06-1.27c-2.1-1.75-4.44-2.76-7.16-3.5
		c-4.77-1.29-9.65-1.6-14.45-2.47c-2.11-0.38-4.35-0.08-6.53-0.08c-1.25,0-2.5,0-3.94,0c-0.26-3.43-0.14-6.65-0.56-9.87
		c-0.62-4.78-0.79-9.62-1.64-14.38c-0.12-0.69,0.2-1.19,0.38-1.79c0.94-3.09,1.23-6.23-0.56-9.09c-1.39-2.21-1.02-4.71-1.4-7.03
		c-0.77-4.68-2.16-9.16-3.45-13.68c-0.31-1.1-0.4-1.99,0.23-2.97c1.22-1.9,1.81-4.05,2.32-6.22c0.46-1.97-0.12-3.99-0.51-5.8
		c-0.57-2.67-0.37-5.36-0.76-8.02c-0.57-3.88-0.61-7.86-1.24-11.76c-0.25-1.56,0.7-2.94,0.58-4.53c-0.34-4.57-0.4-9.15-1.09-13.69
		c-0.32-2.14-0.24-4.34-0.27-6.47c-0.06-4.49-1.65-8.9-0.41-13.47c0.55-2.04,0.42-4.3,0.5-6.42c0.14-3.43,0.54-6.83,0.75-10.25
		c0.67-11.14,0.52-22.29,0.44-33.44c-0.02-3.04,0.13-6.33-0.73-9.1c-0.88-2.82-1.03-5.52-0.76-8.18c0.98-9.69,0.34-19.39,0.38-29.08
		c0.02-4.35-0.31-8.71-1.35-13.05c-0.69-2.89-0.87-6-1.25-9.01c-0.58-4.61-1.56-9.13-2.38-13.69c-1.71-9.44-3.94-18.77-6.38-28.05
		c-0.61-2.32-1.12-4.66-1.66-6.99c-0.16-0.69-0.49-1.14-1.43-1.18c-0.1,2.41,0.53,4.72,0.99,6.99c1.85,9.14,3.91,18.24,5.91,27.34
		c1.6,7.29,3.35,14.54,4.81,21.86c0.47,2.35,0.71,4.78,0.68,7.24c-0.1,10.54,0.03,21.09-0.07,31.63
		c-0.05,5.89,0.78,11.72,0.62,17.62c-0.2,7.65,0.38,15.33-0.15,22.95c-0.82,11.7-0.2,23.39-0.38,35.08
		c-0.04,2.28-0.8,4.44-0.61,6.71c0.5,6.14,0.19,12.32,0.68,18.42c0.53,6.53,0.18,13.03,0.39,19.54c0.03,0.97,0.26,1.99-0.35,2.92
		c-0.17,0.26-0.21,0.94-0.08,1c0.96,0.52,1.02,1.33,1.01,2.28c-0.06,3.78,0.24,7.57-0.83,11.28c-0.95,3.32-1.39,6.74-1.95,10.06
		c1.01,0.46,1.31-0.41,1.91-0.55c0.1,0.13,0.24,0.23,0.27,0.35c0.81,4.1,1.62,8.2,2.41,12.3c0.72,3.73,2.04,7.35,0.99,11.32
		c-0.77,2.9,0.52,5.9,0.47,8.87c-0.13,7.22,0.51,14.4,1.02,21.78c-4.77,0-9.53,0-14.5,0c-0.13-2.37-0.47-4.75,0.22-7.15
		c0.19-0.68,0.16-1.43,0.17-2.15c0.01-3.64,0-7.27,0.01-10.91c0.01-2.24,0.23-4.36,0.95-6.59c1-3.06,1.88-6.33,0.76-9.72
		c-0.35-1.07-0.09-2.35-0.08-3.53c0.03-4.41-0.68-8.73-1.51-13.05c-0.92-4.79-0.61-9.57,0.64-14.32c1.3-4.94,2.13-9.97,1.98-15.12
		c-0.09-3.27-0.16-6.55,0.02-9.81c0.3-5.44-0.36-10.85-0.69-16.25c-0.38-6.26-0.98-12.52-1.51-18.77c-0.08-0.91-0.39-1.78-0.64-2.59
		c-0.9-2.93,0.3-5.66,0.78-8.36c0.62-3.52,1.19-7.1,1.33-10.6c0.2-4.87,0.54-9.75,0.79-14.61c0.53-10.24,0.2-20.48,0.52-30.71
		c0.12-3.94-1.31-7.56-1.43-11.44c-0.08-2.44-0.36-4.97-0.75-7.45c-0.93-5.9-1.43-11.85-2.66-17.72c-1.13-5.4-1.9-10.87-2.88-16.3
		c-2.14-11.89-3.6-23.92-7.01-35.57c-0.2-0.68-0.12-1.43-0.17-2.19c-0.8-0.13-1.62,0.47-2.2-0.8c-0.55-1.22-0.38-2.15,0.29-2.96
		c2.21-2.71,4.01-5.67,5.8-8.65c0.32-0.53,0.69-1.05,0.97-1.6c1.22-2.42,1.05-2.91-1.42-4.03c-0.28-3.05-0.25-6.18,0.97-8.97
		c1.16-2.68,2.71-5.21,4.02-7.85c1.99-3.98,4.31-7.75,6.81-11.43c0.73-1.08,1.13-2.41,1.58-3.66c1.31-3.63,3.96-6.68,4.36-10.74
		c0.17-1.76,0.39-3.57,0.6-5.31c0.53-4.43,2.87-8.17,3.75-12.75c4.27,3.17,8.23,6.11,12.19,9.04c0.07,0.05,0.12,0.15,0.2,0.19
		c4.03,1.86,4,5.67,4.83,9.29c1.06,4.57-0.06,8.99-0.24,13.43c-0.36,8.56-3.01,16.59-7.83,23.8c-2.32,3.47-4.29,7.17-6.96,10.4
		c-1-0.99-0.97-2.29-0.87-3.55c0.55-6.89-1.3-13.62-1.27-20.51c0.01-2.66-0.06-5.54-0.9-8.23c-0.44-1.41-0.79-2.83-2.42-3.22
		c-1.92-0.46-2.75,0.86-3.45,2.32c-2.96,6.17-5.92,12.35-8.93,18.51c-0.38,0.78-0.64,1.47-0.35,2.3c2.01-0.63,3.14-2.23,4.16-3.89
		c2.05-3.34,4.29-6.54,6.92-9.75c1.47,2.13,0.1,4.65,1.19,6.9c1.16,2.39,0.7,5.3,0.68,8.01c-0.02,2.64,0,5.27,0,7.91
		c0,2.73-0.03,5.45,0.01,8.18c0.04,2.58-0.01,5.14-0.44,7.76c3.6-2.86,6.27-6.45,8.82-10.09c5.44-7.76,9.47-16.31,13.47-24.86
		c1.14-2.44,1.15-5.19,1.56-7.81c0.68-4.23,1.15-8.49,1.75-12.74c0.06-0.42,0.39-0.79,0.53-1.06c6.67,2.44,12.03,7.07,17.9,10.84
		c5.32,3.42,10.23,7.45,15.11,11.53c3.04,2.54,6.69,4.37,10.13,6.41c3.62,2.15,6.79,4.9,10.13,7.42c5.11,3.86,6.66,9.75,8.76,15.25
		c2.89,7.56,4.3,15.58,5.91,23.47c0.94,4.6,1.81,9.3,2.01,14.04c0.03,0.67-0.18,1.35-0.2,2.03c-0.08,2.83,1.03,4.93,3.38,6.67
		c2.61,1.93,4.52,4.64,6.65,7.1c0.41,0.48,0.31,1.01,0.33,1.54c0.02,0.91,0.06,1.82,0,2.73c-0.41,6.61,0.79,13.05,2.21,19.44
		c1.75,7.89,3.56,15.76,5.45,23.62c0.99,4.14,2.11,8.26,3.37,12.32c0.45,1.44,1,2.8,2.36,4.01c2.54,2.25,2.5,5.92,0.33,8.5
		C501.09,430.81,500.55,431.91,499.77,433.08z"/>
	<path fill="#1A1A1A" d="M309.77,101.63c-2.99,1.27-6.1,1.2-8.97,2.26c-1.54,0.57-1.9,1.24-1.89,2.69
		c0.03,4.74-0.16,9.48,1.35,14.54c-2.73-0.82-5.04-0.63-7.34-0.67c-2.29-0.05-4.4,0.54-6.62,1.66c-1.49-1.84-1.45-4.25-2-6.39
		c-0.3-1.16-0.83-2.37-0.68-3.68c0.08-0.74-0.35-1.64-0.83-1.9c-2.94-1.58-2.66-4.68-3.4-7.19c-1.4-4.75-4.83-7.83-9.71-8.13
		c-3.59-0.22-7.06-0.16-9.59,3.06c-0.62,0.79-1.18,1.57-1.51,2.5c-1.2,3.41-1.92,6.89-1.66,10.53c0.1,1.43-0.12,2.58-1.97,2.47
		c-0.65-0.04-1.15,0.43-1.78,0.56c-4.23,0.9-6.16,4.03-5.13,8.31c0.34,1.42-0.2,2.9,0.5,4.52c-3.81,1.74-7.92,2.69-12.49,4.38
		c3.89-5.82,8.06-10.73,9.8-17.13c-5.95,3.65-10.93,8.61-17.45,11.86c-0.52-2.64-0.98-5.05-1.48-7.46c-0.98-4.75-0.5-9.56-0.5-14.34
		c-0.01-3.72,1.51-7.14,3.13-10.38c0.85-1.7,3.12-2.3,4.65-3.54c1.05-0.85,2.02-1.74,2.96-2.64c-0.38-0.97-0.95-0.56-1.54-0.35
		c-3,1.09-6,2.17-9.02,3.19c-0.48,0.16-1.07,0.02-1.66,0.02c1.52-3.07,3.19-6,5.43-8.35c5.03-5.29,9.76-11.02,16.76-13.99
		c1.16-0.49,2.42-0.54,3.56-1.06c0.93-0.43,2.1-0.52,2.47-2.01c-2.55-0.12-4.86-0.65-6.95-2.12c5.96-4.71,13.92-4.55,20.41-8.2
		c-2.69-1.22-5.48-0.59-8.18-0.76c-2.75-0.17-5.44-0.99-8.51-0.41c0.79-1.87,2.27-2.46,3.37-3.16c6.79-4.33,13.87-8.05,22.18-8.45
		c0.18-0.01,0.38,0.03,0.54-0.04c2.47-1.02,4.83-1.1,7.06,0.86c-2.22-5.72-6.45-9.81-10.95-14.26c7.47-0.84,14,1.39,20.51,3.62
		c6.63,2.27,12.6,5.63,17.43,10.93c-1.28-6.11-3.39-11.79-4.77-18.15c8.19,8.52,15.72,17.01,26.36,21.66
		c-1.78,4.1-1.6,5.58,0.86,7.84c1.33-0.08,1.89-1.02,2.42-2.09c3.01-6.07,5.46-12.4,8.68-18.36c3.93-7.3,8.5-14.2,13.38-20.89
		c1.73-2.38,3.59-4.66,5.39-6.99c1.23-1.59,2.31-1.71,3.79-0.22c5.44,5.49,9.84,11.78,14.07,18.22c5.93,9.03,9.67,19,13,29.17
		c1.14,3.49,0.64,6.98-0.05,10.38c-1.12,5.56-2.18,11.15-4.22,16.5c-1.62,4.24-3.4,8.39-5.2,12.55c-1.59,3.67-3.1,7.4-3.05,11.54
		c0.03,1.96,0.71,3.27,2.43,4.42c3.6,2.43,7.28,4.73,11.24,7.12c-2.49,0.69-4.78,1.39-6.97,0.82c-2.22-0.57-4.41-0.16-6.68-0.69
		c0.56,1.95,2.64,1.92,3.72,3.27c-9.78,1.47-19.18,3.28-25.18,12.28c1.36,1.22,2.48,2.08,4.22,1.24c0.61-0.29,1.42-0.19,2.14-0.19
		c4-0.01,8-0.1,12,0.02c4.96,0.15,9.91,0.59,14.89,0.63c1.72,0.02,3.54,0.41,5.28,0.48c2.76,7.34,2.77,7.38,2.38,11.07
		c-4.66-0.49-9.07-2.17-13.8-3.04c0.39,2,1.69,2.98,3.01,3.89c3.01,2.08,4.58,5.05,5.72,8.69c-2.56-0.05-4.75,0.29-7.03-0.26
		c-0.92-0.22-2.58-1.37-3.25,0.7c-0.04,0.12-0.56,0.23-0.76,0.13c-1.81-0.91-3.76-0.22-5.6-0.53c-4.81-0.82-9.64-1.16-14.51-1.08
		c-1.89,0.03-3.63,0.53-5.45,1.08c3.81,8.4,12,9.87,19.65,13.05c-2.89,2.76-5.87,5.31-8.48,8.18c-5.27,5.8-11.74,10.08-17.85,14.84
		c-3.74,2.91-7.9,5.18-11.66,8.02c-2.88,2.18-5.29,4.97-8.44,6.84c-0.31,0.19-0.56,0.48-1.05,0.08c1.07-1.15,2.14-2.3,3.27-3.52
		c-0.76-0.77-1.31-0.51-1.99-0.15c-3.14,1.69-6.34,3.27-9.5,4.93c-4.79,2.51-9.79,4.66-15.04,6.1c-2.31,0.64-4.65,1.19-6.9,1.98
		c-2.94,1.03-5.7,0.52-8.61-0.24c-9.03-2.35-16.42-7.34-22.82-13.89c-2.79-2.85-6.27-4.35-9.72-6.04c-1.01-0.49-1.93-1.22-3.24-1.82
		c1.95-1.56,4.16-2.4,5.66-4.18c0.87-1.02,1.93-1.86,1.01-3.41c-1.55-2.65-2.52-3.27-4.56-2.79c-3.54,0.83-7.07,1.71-10.53,2.83
		c-2.32,0.75-4-0.8-5.94-1.32c0.53-4.63,2.07-8.72,4.18-13.18c-3.04,0.62-4.82,2.5-7.57,2.86c0-3.27-0.08-6.41,0.04-9.54
		c0.05-1.27,1.14-1.99,2.2-2.51c2.24-1.09,4.44-2.35,6.79-3.12c3.2-1.04,5.86-2.98,8.67-4.65c2.98-1.78,2.14-4.06-0.46-5.14
		c-2.38-0.99-4.75-1.49-7.51-0.87c-3.03,0.69-6.31,0.22-9.23,1.72c-0.08,0.04-0.28-0.17-0.72-0.45c3.15-3,4.71-7.3,8.43-9.65
		c0.82-2.72,0.3-5.45-0.32-8.08c0.79-0.79,1.55-1.54,2.35-2.33c1.21,1.68,1.5,3.76,2.14,5.65c0.74,2.19,1.74,4.28,2.36,6.51
		c0.57,2.06,2.41,2.17,4.08,2.39c2.27,0.3,4.47-0.29,6.65-0.76c0.52-0.11,1.08-0.47,1.56-0.29c3.55,1.39,6.66-0.96,10.02-1.15
		c3.58-0.21,6.84-1.8,10.26-2.73c1.16-0.31,1.86-1.09,1.76-2.38c-0.03-0.45-0.22-0.9-0.17-1.33c0.18-1.66-0.14-3.42,1.95-4.44
		c0.95-0.47,1.97-1.2,2.8-2.06c1.24-1.28,2.86-1.57,4.48-1c0.81,0.28,1.6,0.44,2.38,0.32c2.02-0.33,3.14,0.63,3.89,2.36
		c0.46,1.06,1.23,2.02,1.56,3.11c0.99,3.27,4.86,4.05,7.72,3.58c6.41-1.05,12.75-2.49,19.13-3.67c6.63-1.22,13.31-2.29,19.79-4.25
		c1.91-0.58,2.5-2.23,2.83-3.62c0.78-3.34,2.02-6.67,0.85-10.28c-0.48-1.48,0.05-3.26-0.13-4.88c-0.37-3.43-0.5-6.91-2.1-10.13
		c-0.97-1.95-2.61-3.19-3.95-4.75c-0.56-0.66-1.08-0.26-1.67-0.2c-1.59,0.17-2.66-0.24-3.83-1.71c-4.51-5.67-10.19-9.93-17.45-11.23
		c-4.37-0.78-8.79-0.08-12.61,2.57c-0.67,0.47-1.44,0.72-2.1,1.17c-1.34,0.9-2.43,1.96-1.3,3.71c0.33,0.51,0.39,1.04,0.3,1.55
		C309.19,94.39,310.09,97.95,309.77,101.63z M385.92,70.76c-2.43,0.15-2.59,1.82-2.94,3.01c-1.73,5.82-5.3,10.81-7.18,16.84
		c-1.19-2.69-2.16-5.05-3.27-7.33c-0.52-1.07-0.54-1.9-0.03-3.02c2.86-6.19,4.08-12.72,3.89-19.53c-0.03-0.96,0.13-1.98-0.98-2.61
		c-0.61,6.78-2.78,13.08-5.48,19.69c-1.64-2.17-2.98-3.95-4.43-5.87c2.57-1.16,5.02-2.45,4.23-5.57c-0.84-3.31-3.75-3.37-6.84-3.17
		c2.29-1.91,3.96-4.16,2.92-6.67c-1.06-2.56-3.81-2.33-6.53-1.56c5.8-11.56,5.73-23.54,4.5-36.21
		c11.67,11.21,17.82,24.95,23.41,39.19c1.09-1.1,0.11-1.77,0.06-2.5c-0.39-6.39-2.41-12.41-5.03-18.13
		c-3.63-7.93-8.66-14.98-14.88-21.18c-1.34-1.34-2.74-1.86-4.34-1.41c-1.61,0.45-1.51,2.27-1.82,3.55
		c-1.21,5.03-0.26,10.22-1.08,15.32c-0.64,3.95-1.07,7.92-2.07,11.82c-1.29,4.97-4.13,9.25-5.94,13.98
		c-0.53,1.38-1.37,2.66-1.15,4.54c1.25-0.9,2.75-1.43,3.3-2.47c1.51-2.82,3.85-2.81,6.47-2.55c-1.68,2.15-4.09,3.35-6.13,5.22
		c3.43,1.81,7.22,1.73,10.62,2.96c-1.7,2.07-4.29,1.85-6.21,3.05c0.24,1.7,2.02,1.35,2.89,2.5c5.44,7.13,9.7,14.93,13.81,22.84
		c0.55,1.06,0.45,2.5,1.71,3.34c0.39-2.28-0.7-4.15-0.96-6.04C383.07,86.93,384.37,79,385.92,70.76z M264.98,150.69
		c-1.43,0.3-2.57,0.8-3.68,1.38c-0.61,0.32-1.13,0.68-1.06,1.39c0.23,2.56-0.53,4.95-1.04,7.4c-0.26,1.27-0.71,2.68-0.52,3.94
		c0.86,5.6,1.69,11.16,5.82,15.68c2.71,2.97,5.57,5.86,9.3,6.93c6.82,1.96,13.07,0.34,18-5.06c1.28-1.4,2.63-1.52,4.36-1.15
		c2.09,0.45,4.23,0.7,6.36,0.86c7.3,0.57,14.08-1.59,20.81-4.14c0.9,0.68,1.08,1.81,1.62,2.72c1.02,1.71,2.41,1.99,3.91,0.7
		c1.4-1.2,2.07-2.84,2.85-4.47c1.37-2.86,1.82-6.19,4.17-8.55c1.92-1.92,3.28-4.2,4.55-6.58c2.8-5.26,4.06-10.96,4.85-16.8
		c0.28-2.05-0.28-2.78-2.29-3.23c-1.01-0.23-1.93-0.8-3.11-0.75c-0.18,2.52,0.33,5.04,0.72,7.46c0.5,3.07,0.33,5.81-1.02,8.57
		c-4.33,8.87-11.22,14.98-20.36,18.43c-3.63,1.37-7.41,2.74-11.34,2.77c-5.23,0.04-10.38,0.97-15.59,1.15
		c-0.86,0.03-1.49,0.55-2.19,0.94c-6.31,3.49-12.69,5.21-19.44,1.06c-1.58-0.97-2.84-2.12-3.73-3.75
		c-1.92-3.55-3.23-7.35-3.88-11.29c-0.47-2.86-1.1-5.74-0.22-8.77C263.49,155.29,264.71,153.2,264.98,150.69z M301,145.85
		c-0.32-0.91-1.32-0.65-1.39-1.2c-0.33-2.38-2.37-3.03-4.06-3.38c-6.35-1.29-12.62-1.04-18.59,1.91c-5.47,2.7-6.43,6.45-3.29,11.75
		c2.43,4.1,6.53,5.95,10.46,8.02c3.03,1.6,4.61,1.28,7.09-1.26C295.65,157.15,298.16,151.41,301,145.85z M297.79,75.11
		c-1.46,2.56-1.27,5.05,0.48,7.3c1.49,1.93,3.55,2.8,5.86,2.42c5.87-0.98,11.48-3.05,17.24-4.47c5.1-1.26,10.26-2.37,15.57-2.48
		c2.06-0.04,3.91,1.02,5.98,1.06c-0.24-2.92-1.75-4.22-4.79-4.88c-4.86-1.06-9.71-0.52-14.49,0.13c-6.07,0.82-12,2.44-17.77,4.58
		c-1.78,0.66-3.62,1.43-5.71,1.24C299.87,78.12,299.76,76.27,297.79,75.11z M250.41,97.08c0.69-0.67,1.12-1.3,1.73-1.82
		c2.16-1.82,4.69-1.87,7.26-2.31c2.82-0.48,5.77-0.79,8.34-0.12c3.62,0.94,6.71-0.61,10.04-0.86c0.69-0.05,1.14-0.82,1.5-1.47
		c1.32-2.35,0.48-6.31-1.77-8.19c-1.25,0.61-1.07,1.98-1.43,3c-0.37,1.05,0.19,2.32-0.38,3.43c-1.33,0.03-2.54-0.08-3.8-0.25
		c-3.02-0.4-6.09-0.6-9.13-0.65c-2.25-0.03-4.56,0.69-6.85,1.05c-2.26,0.36-4.15,1.69-5.53,3.51
		C249.37,93.78,248.71,95.36,250.41,97.08z M293.9,72.81c-1.8,0.44-2.11,1.52-2.05,2.7c0.23,4.49,1.4,8.6,5.15,11.56
		C295.87,82.44,294.14,77.98,293.9,72.81z M372.56,57.01c2.58-0.3,3.34-1.5,2.8-4.29C373.87,53.76,372.69,54.87,372.56,57.01z"/>
	<path fill="#1A1A1A" d="M159.83,590.02c0.53,1.12,1.12,1.84,2.07,2.52c4.2,3.01,8.65,5.64,13.02,8.39
		c2.08,1.31,2.31,3.29,2.86,5.13c3.07,10.2,5.63,20.53,10.71,30.06c2.33,4.36,3.49,9.33,3.53,14.41c0.03,3.59-1.31,5.76-4.68,7.63
		c-2.13-3.19-5.14-5.1-8.65-6.74c-2.83-1.32-5.16-3.77-7.91-5.43c-2.7-1.63-4.35-4.54-7.31-5.89c-0.65-0.3-1-1.45-1.29-2.28
		c-1.83-5.25-5.74-8.66-9.99-11.87c-0.81,0.88-0.38,1.39,0,2.05c0.56,0.97,0.59,1.92-0.11,3.06c-1.21,1.96-1.63,4.28-2.02,6.54
		c-0.33,1.91-0.35,3.86-1.47,5.59c-0.5,0.76-0.29,1.8-0.16,2.68c0.63,4.27,1.42,8.59,0.97,12.86c-0.57,5.42,1.63,9.87,4.22,14.15
		c2.86,4.73,6.32,9.07,9.87,13.33c1.53,1.83,2.52,4.11,4.06,5.93c2.94,3.46,5.71,7.15,9.95,9.23c2.22,1.09,2.21,1.1,4.55,0.2
		c0.5,2.49-0.15,4.17-2.26,5.9c-3.55,2.91-7.62,3.67-11.88,4.21c-5.79,0.74-11.18-0.91-16.51-2.85c-0.48-0.18-1.03-0.45-1.31-0.84
		c-1.9-2.7-4.68-4.38-7.16-6.42c-2.39-1.96-4.14-4.53-6.19-6.8c-2.7-2.98-5.07-6.27-7.75-9.26c-2.1-2.34-3.74-5.1-6.76-7.18
		c4.99,11.51,12.9,20.44,21.11,29.39c-1.33-0.01-2.42-0.62-3.22-1.38c-4.49-4.3-9.55-7.92-14.04-12.22
		c-2.07-1.99-4.18-3.99-6.36-5.87c-3.61-3.11-5.71-7.32-8.47-11.04c-2.19-2.95-4.3-5.92-5.75-9.3c-0.28-0.65-0.77-1.21-0.74-2
		c0.15-4.87-0.58-9.81,0.62-14.6c1.22-4.86,1.78-9.81,2.6-14.72c0.93-5.62,1.82-11.22,3.26-16.75c1.28-4.92,1.72-10.02,2.71-15.02
		c1.2-6.04,1.86-12.18,2.38-18.34c0.24-2.8,0.18-5.64,0.25-8.39c0.22-9.23,1.27-18.46,0.67-27.7c-0.26-3.99-0.49-8.03-1.45-11.96
		c-0.23-0.94-0.39-2.14-0.02-2.95c1.59-3.42,1.92-7.21,3.31-10.67c0.16-0.4,0.44-0.75,0.71-1.2c1.65,1.76,1.96,4.14,2.91,6.37
		c3.9-6.06,7.47-12.05,12.6-16.93c0.77,4.39,1.21,8.59,1.19,13.35c2.99-2.82,5-5.6,7.28-8.29c2.6,3.71,1.85,7.79,1.6,11.98
		c6.25-8.27,13.02-15.67,22.72-19.7c0.13,3.38-0.6,6.69,0.43,9.95c0.19,0.6-0.09,1.19-0.39,1.79c-0.39,0.76-1.01,1.56-0.38,2.85
		c3.36-2.6,5.62-6.08,8.28-9.86c0.36,5.58,0.8,10.63,0.91,15.68c0.02,1.03-0.99,2.67-1.92,3.03c-2.07,0.8-2.79,2.67-3.5,4.17
		c-1.2,2.54-2.93,4.64-4.4,6.96c-1.08,1.71-2.34,3.34-2.96,5.32c-0.1,0.32-0.36,0.66-0.63,0.85c-2.91,2.08-3.12,4.99-2.62,8.16
		c0.1,0.62,0,1.27,0.03,1.91c0.32,6.54-0.06,13.05-0.5,19.57c-0.16,2.31-0.15,4.75,0.75,6.92
		C161.86,589.37,160.38,589.22,159.83,590.02z M120.11,677.39c-1.19-3.66-1.99-7.16-3.36-10.49c-0.71-1.72-1.61-3.43-1.6-5.32
		c0.03-4.03,0.36-8.05,0.99-12.04c0.19-1.21,0.26-2.5-0.13-3.74c-2.56,0.54-3.96,4.15-5.24,13.34
		C110.02,664.54,115.18,674.9,120.11,677.39z"/>
	<path fill="#1A1A1A" d="M419.78,1135.04c-1.17,0.62-2.04,0.69-2.6,0.42c-3.58-1.72-7.55-1.04-11.29-1.92
		c-2.79-0.66-5.87-0.74-8.93,0.03c-3.33,0.84-6.84,1.29-10.24,1.66c-2.05,0.23-4.44-0.11-6.67-0.25c-0.61-0.04-1.23,0.06-2.08,0.11
		c0.81,1.95,2.52,3.15,3.09,5.06c0.1,0.34,1.46,0.87,2.61,0.49c7.97-2.61,16.23-1.87,24.41-1.78c3.18,0.03,6.26,1.19,9.3,2.19
		c0.55,0.18,1,0.75,1.45,1.19c4.06,4.01,6.55,8.92,7.63,14.44c1.1,5.62,1.87,11.33,1.74,17.1c-0.01,0.45-0.06,0.9-0.12,1.74
		c-4.16-3.14-8.17-1.23-12.28-0.26c-4.22,1-7.81,3.43-11.82,4.87c-5.38,1.93-10.72,3.81-16.64,3.47c-5.62-0.32-11.27-0.23-16.9-0.01
		c-3.71,0.14-7.02-0.78-10.37-2.19c-5.86-2.45-11.82-4.67-17.9-6.7c4.04,3.79,9.18,5.87,13.78,8.86c-0.41,0.86-1.12,0.5-1.65,0.5
		c-16.08,0.02-32.17,0-48.25,0.05c-1.39,0-2.27-0.58-3.34-1.35c-4.18-3.01-4.47-7.64-5.44-12.06c-0.5-2.28-0.43-4.6-0.95-6.89
		c-0.63-2.75,0.13-5.56,0.57-8.3c0.39-2.47,0.69-4.95,0.97-7.43c0.32-2.84,0.68-5.67,1.09-8.5c0.45-3.08,1-6.15,1.49-9.23
		c0.65-4.14,1.28-8.28,1.95-12.63c3.67-1.71,7.72-2.61,11.79-3.46c7.22-1.51,14.44-3,21.65-4.54c6.34-1.36,12.64-2.87,19-4.13
		c3.04-0.6,6.14,0.27,9.13,0.69c2.75,0.38,5.53,0.1,8.28,0.8c2.73,0.68,5.64,0.62,8.47,0.91c0.35,0.03,0.74,0.34,1.01,0.24
		c3.59-1.22,6.08,1.22,8.72,2.77c7.75,4.57,14.96,9.96,22.17,15.32C415.57,1128.52,417.74,1131.67,419.78,1135.04z"/>
	<path fill="#1A1A1A" d="M293.21,304.01c7.43,9.86,15.57,18.95,24.65,27.24c-0.52-1.62-1.88-2.75-2.87-4.02
		c-3.56-4.58-7.09-9.18-10.66-13.76c-3.24-4.16-6.32-8.46-9.92-12.34c-1.05-1.13-1.54-2.34-1.5-3.88c0.07-2.91-0.07-5.82,0.04-8.73
		c0.13-3.35-0.79-6.62-0.65-9.99c0.04-1.09-0.19-2.5-1.53-3.21c-0.88-0.47-0.83-1.52-1.07-2.31c-0.99-3.33-2.42-6.49-3.61-9.74
		c-0.87-2.38-2.75-4.01-4.31-5.77c-4.12-4.63-7.95-9.42-11.21-14.7c-2.47-4-5.57-7.6-7.49-11.94c0.37-0.72,0.74-1.44,1.15-2.25
		c1.66,0.89,2.65,2.36,3.69,3.85c3.4,4.86,6.92,9.63,10.57,14.34c-0.13-1.67-1.12-2.91-1.94-4.23c-2.07-3.34-3.76-6.89-5.47-10.42
		c-2.12-4.41-5.02-8.39-6.85-12.98c-0.89-2.23-1.49-4.55-2.3-6.79c-0.35-0.96,0.26-1.5,0.85-2.1c1.53-1.55,3.04-3.13,4.64-4.77
		c1.54,1.24,2.85,2.49,4.48,3.43c2.17,1.25,3.59,3.39,3.34,6.4c-2.13-0.86-3.73-2.65-6.07-3.3c2.38,3.63,10.43,10.88,13.98,12.9
		c9.5,5.42,19.82,8.71,30.22,11.74c6.55,1.91,13.14,1.85,19.91,0.63c5.87-1.06,11.75-1.98,17.54-3.44
		c5.74-1.45,11.07-3.81,15.82-7.42c3.14-2.39,5.05-9.4,0.53-12.41c-0.42-0.28-0.79-0.38-1.35-0.24c-0.45,0.24-0.08,0.99-0.05,1.04
		c2.12,4.15-1.28,5.85-3.61,8.06c0.97-6.43,0.86-12.98,2.48-19.4c2.32,0.28,3.2,2.07,4.54,3.13c3.79,3,7.82,5.69,11.25,9.15
		c1.04,1.05,1.5,2.1,1.43,3.57c-0.32,7-2.42,13.46-5.85,19.52c-1.27,2.25-2.76,4.39-3.84,6.73c-1.31,2.82-3.36,5.03-5.29,7.38
		c-2.54,3.09-5.31,5.93-8.2,8.66c-5.8,5.48-11.78,10.74-18.42,15.23c-4.72,3.19-9.32,6.55-14.04,9.74c-1.88,1.27-3.41,1.64-5.57,0.8
		c-4.12-1.61-8.53-2.43-12.11-5.35c-4.09-3.33-7.73-7.1-11.19-11.03c-3.58-4.06-6.5-8.61-9.15-13.35c0.46,3.54,2.34,6.49,3.99,9.47
		c3.33,6.04,7.89,11.13,12.97,15.75c3.31,3.01,7.35,4.68,11.7,5.47c0.97,0.18,1.97,0.36,2.85,0.67c3.63,1.3,6.96,0.4,10.21-1.14
		c8.37-3.96,16.07-8.86,22.86-15.26c2.96-2.79,6.02-5.49,8.8-8.44c4.9-5.21,9.54-10.65,13.36-16.76c0.8,3.96,0.49,5.52-1.25,8.81
		c-3.74,7.08-7.8,14-10.79,21.46c-1.59,3.98-4.53,7.04-7.13,10.31c-3.38,4.26-7.31,8.04-11.24,11.78
		c-4.47,4.25-8.71,8.81-14.35,11.95c2.87,0.58,4.88-1.11,6.79-2.32c7.34-4.63,13.67-10.51,19.67-16.76
		c0.63-0.66,0.84-1.57,1.56-2.18c0.68-0.57,1.18-1.34,1.94-2.24c0.69,3.68-0.24,6.65-2.03,8.99c-1.77,2.32-3.86,4.3-5.89,6.34
		c-1.27,1.27-1.77,2.61-0.92,4.3c0.48,0.95,0.82,1.98,1.37,2.9c2.6,4.39,4.26,9.16,5.9,13.95c0.35,1.02,0.23,1.56-0.36,2.4
		c-2.4,3.42-5.61,6.08-8.33,9.2c-3.48,4-7.29,7.73-10.68,11.84c-2.7,3.28-6.24,5.68-9.66,8.48c-4.4-1.96-8.54-4.29-12.34-7.52
		c-5.88-5-10.02-11.52-15.58-16.76c-1.8-1.69-2.91-3.43-3.44-5.94c-0.78-3.72-2.75-7.12-3.64-10.84c-0.46-1.92-2.89-3-2.17-5.37
		C292.99,308.24,292.96,306.16,293.21,304.01z M306.87,300.54c5.33,6.36,18.72,13.07,23.75,12.14
		C322.3,309.46,314.02,306.17,306.87,300.54z"/>
	<path fill="#1A1A1A" d="M39.46,735.35c0.38,1.13,0.94,2.16,1.52,3.15c1.63,2.79,4.75,2.77,6.68,0.19c1.12-1.49,1.58-3.35,3.1-5.08
		c0,2.45,0,4.5,0,6.55c0.02,8.19,1.45,16.15,3.58,24.05c1.76,6.53,4.58,12.5,8.31,18.11c2.82,4.24,6.54,7.56,10.49,10.71
		c3.43,2.74,7.04,5.21,10.9,7.22c4.01,2.08,8.3,3.54,12.66,4.83c7.32,2.15,14.79,3.81,22.37,3.6c9.36-0.26,18.57-1.65,27.25-5.81
		c6.36-3.05,12.72-6.06,18.56-9.98c7.81-5.24,14.63-11.72,20.97-18.64c2.75-3,5.31-6.21,7.55-9.75c0.07,5.32,0.98,10.52,0.88,15.8
		c-0.06,3.29,0.44,6.59,0.91,9.88c0.26,1.85,0.23,3.62-1.08,5.58c-3.07,4.59-6.5,8.93-9.41,13.62c-0.68,1.1-1.64,2.26-1.37,3.7
		c0.39,2.1-0.87,3.26-2.09,4.66c-7.52,8.58-17.22,13.95-27.39,18.53c-5.18,2.33-10.76,3.6-16.35,4.7
		c-4.66,0.92-9.41,1.49-14.12,1.56c-10.8,0.15-21.31-1.87-31.49-5.51c-6.61-2.37-13.18-4.89-19.45-8.01
		c-4.1-2.05-7.79-4.97-11.55-7.66c-5.38-3.85-10.52-8-15.6-12.25c-4.97-4.16-10.02-8.26-14.47-12.96
		c-5.47-5.78-10.42-11.97-14.04-19.18c-1.39-2.76-2.72-5.62-4.56-8.17c-0.44-0.61-0.66-1.41-0.78-2.25
		c-1.02-7.05-1.55-14.18-3.2-21.13c-0.12-0.51-0.02-1.08-0.02-1.86c1.3,0.51,2.3,1.29,3.62,1.52c3.17,0.54,4.15,0.12,5.06-2.91
		c0.11-0.38,0.11-0.79,0.21-1.69c1.71,3.73,3.58,6.75,6.33,9.17c0.82,0.72,1.65,1.38,2.62,1.85c2.7,1.3,4.24,0.78,5.72-1.95
		C34.34,744.86,37.36,740.43,39.46,735.35z"/>
	<path fill="#1A1A1A" d="M508.29,638.8c0.08,0.57,1.06,0.2,1.23,1.27c0.35,2.27,1.13,4.47,1.51,6.74c0.29,1.73-0.7,3.3-1.3,4.85
		c-1.35,3.48-2.11,7.21-3.65,10.55c-2.19,4.77-3.4,9.86-5.54,14.64c-4.2,9.41-8.6,18.74-12.35,28.34c-0.37,0.95-1.17,1.17-1.89,1.68
		c-3.7,2.63-7.43,5.19-11.34,7.51c-5.31,3.13-10.68,6.01-16.74,7.44c-2.85,0.67-4.14,0.13-5.47-2.38c-1.3-2.45-2.21-5.03-2.75-7.94
		c1.48-0.69,3.14-0.35,4.66-0.76c2.34-0.63,4.37-1.46,5.95-3.32c2.83-3.33,6.05-6.38,7.76-10.54c1.02-2.48,2.05-4.93,1.86-7.73
		c-0.15-2.14-0.04-2.14-1.52-3.85c1.77-3.66,3.62-7.29,5.06-11.13c1.03-2.76,1.65-5.61,2.39-8.43c0.37-1.41-0.4-2.56-1.29-3.66
		c-2.96-3.68-6.27-7.14-8.21-11.51c-1.62-3.66-1.9-7.58-2.16-11.58c-0.39-5.92,2.97-10.53,4.39-15.85c-0.21,2.07,1.1,3.47,1.85,5.12
		c1.86,4.12,3.66,8.28,4.97,12.63c0.11,0.36,0.34,0.63,1.06,0.84c-0.92-7.4-2.98-14.34-5.42-21.12c2.25-2.01,4.63-3.79,5.96-6.47
		c-0.82-1.8-2.07-1.12-2.92-0.46c-1.41,1.1-2.89,2.12-4.19,3.38c-4.25,4.13-6.95,9.22-9.23,14.58c-1.08,2.53-2.06,5.1-3.11,7.64
		c-1.03,2.49-3.61,3.42-5.37,5.19c-0.46,0.46-1.08,0.96-1.7,1.26c-1.21,0.59-1.97,2.3-3.3,2.08c-1.89-0.31-4.1-0.47-5.5-1.79
		c-3.03-2.85-6.54-5.41-7.47-9.94c-0.25-1.21-0.22-2.17,0.18-3.34c2.95-8.64,7.47-16.55,11.25-24.8c1.85-4.05,3.82-8.27,3.51-12.94
		c-0.43-6.54,1.51-12.22,5.22-17.6c1.62-2.34,3.13-3.24,5.98-3.2c6.41,0.07,12.63,1.27,18.92,2.14c6.21,0.86,11.86,3.01,17.43,5.61
		c4.46,2.08,6.87,6.06,9.19,10.08c2.56,4.44,2.96,9.27,2.78,14.3c-0.23,6.51,0.73,12.99,0.56,19.52
		C509.41,630.19,507.47,634.33,508.29,638.8z"/>
	<path fill="#1A1A1A" d="M137.83,1185.13c-1.57-2.71-2.88-5.35-4.53-7.79c-1.21-1.79-1.06-3.96-0.61-5.79
		c1.31-5.4,1.89-10.88,2.6-16.36c0.24-1.81,1.06-3.41,1.74-5.02c2.5-5.9,4.27-12.05,6.44-18.06c3.35-9.29,7.02-18.44,11.44-27.28
		c0.93-1.85,2.72-2.18,4.16-3.1c1.6-1.02,3.05-2.42,5.28-2.29c1.17,0.07,1.56-1.61,2.99-1.82c2.8-0.42,5.53-1.28,8.29-1.92
		c6.32-1.45,12.62-3,18.97-4.25c4.2-0.82,8.48-1.3,12.74-1.72c4.13-0.41,7.9,1.05,11.66,2.57c4.36,1.76,8.75,3.45,13.19,5.01
		c2.04,0.71,3.49,2.29,5.33,3.16c4.42,2.1,6.13,5.73,7.64,10.17c3.91,11.48,8.24,22.83,13.31,34.21c-9.66-3.47-19.4-4.55-29.64-3.58
		c-5.19-3.93-11.19-6.31-18.12-6.96c-7.72-0.71-14.78,1.19-21.89,3.59c-2.38,0.8-4.58,1.89-6.75,3.11
		c-0.83,0.47-1.93,0.71-1.56,2.07c-2,0.15-3.31-0.86-4.61-1.71c-5.31-3.45-10.99-4.68-17.31-3.78c-3.02,0.43-5.97,0.68-8.69,2.23
		c-0.53,0.3-1.12,0.5-1.56,0.95c-2.06,2.05-4.12,4.11-6.17,6.17c-0.77,0.77-1.34,1.65-1.4,2.89c3.46-2.76,6.59-5.68,9.54-8.99
		c3.21-0.06,6.56,0.61,9.96,0.77c5.67,0.27,11.31,0.81,16.31,4.22c2.15,1.46,2.62,3.57,3.34,5.54c1.27,3.49,2.05,7.16,3.04,10.75
		c0.07,0.26,0.32,0.51,0.3,0.74c-0.48,5.36,1.73,10.74-0.27,16.42c-7.29-4.37-15.24-4.77-23.3-3.33
		C151.75,1177.35,144.18,1179.86,137.83,1185.13z"/>
	<path fill="#1A1A1A" d="M289.84,592.78c-3.63,0-7.3-0.52-10.95-1.23c-0.25-1.7-0.14-3.12,0.54-4.6c1.05-2.28,1.26-4.76,1.58-7.27
		c0.91-7.15,0.62-14.32,0.35-21.44c-0.33-8.88-0.31-17.75-0.49-26.62c-0.06-3.12,0.55-6.06,1.34-8.99
		c1.62-6.02,2.9-12.09,3.69-18.29c0.43-3.38,0.86-6.74,1.13-10.14c0.21-2.7,1.32-5.32,1.7-8.07c0.33-2.39,0.81-4.74,0.95-7.16
		c0.32-5.51,0.32-11.03,0.62-16.52c0.31-5.56,0.97-11.13,0.92-16.7c-0.05-5.29,0.24-10.57,0.06-15.86
		c-0.14-4.21-0.58-8.39-1.53-12.5c-0.51-2.18,0.25-4.34,0.6-6.39c0.43-2.48,0.55-5.02,0.75-7.46c0.3-3.57,0.68-7.17,0.79-10.78
		c0.3-10.6,0.56-21.19,0.5-31.8c-0.04-6.58-1.14-13.02-2.42-19.41c-1.86-9.31-4.4-18.46-7.4-27.48c-0.73-2.19,0.38-4.17,0.71-6.21
		c0.39-2.48,0.7-4.98,0.82-7.44c0.28-5.44,0.1-10.9,0.07-16.36c-0.01-0.82,0.37-1.77-0.75-2.37c-0.61-0.32-0.49-1.29-0.26-1.76
		c0.94-1.81-0.02-3.31-0.7-4.78c-1.27-2.76-2.93-5.35-4.03-8.17c-0.81-2.06-2.24-3.28-4.1-3.82c-1.08-0.32-2.35-0.05-3.31,1.34
		c-3.23,4.66-5.45,9.85-7.87,14.9c-1.61,3.35-3.19,6.74-4.46,10.26c-0.84,2.33-1.57,4.66-1.97,7.53
		c-3.21-6.35-7.94-11.35-10.86-17.45c-2.83-5.93-4.99-12.15-5.88-18.74c-0.27-2.02-0.87-3.99-1.17-6.03
		c-0.38-2.59-0.46-4.95,1.22-7.28c4.13-5.7,7.67-11.78,11.26-17.82c0.32-0.54,0.52-1.13,1.14-1.43c3.09-1.49,6.21-2.92,9.46-5.06
		c-0.76,2.61-2.62,3.83-3.86,5.41c0.48,1.89,1.76,3.18,2.73,4.66c5.08,7.75,10.41,15.34,16.09,22.64
		c4.95,6.36,8.07,13.64,11.81,20.62c0.48,0.89,0.46,1.74,0.41,2.61c-0.35,5.71,0.33,11.39,0.67,17.07c0.36,5.89,0.9,11.8,1.58,17.67
		c0.5,4.32,1.75,8.52,3.02,12.68c0.54,1.78,0.99,3.6,1.6,5.35c0.47,1.36-0.37,2.61,0.06,4.11c0.5,1.72,0.69,3.73,0.64,5.57
		c-0.08,3.45,0.42,6.86,0.75,10.24c0.43,4.34,0.91,8.72,1.36,13.06c0.48,4.63,1.75,9.28,1.16,13.94
		c-0.91,7.24-0.56,14.49-0.36,21.71c0.16,5.78,0.13,11.58,0.5,17.34c0.38,6.02,0.86,12.03,1.04,18.06c0.11,3.81-0.98,7.46-1.34,11.2
		c-0.21,2.18-0.59,4.46-0.75,6.63c-0.48,6.44-1.42,12.84-1.86,19.29c-0.42,6.17-0.86,12.36-1.64,18.48
		c-0.91,7.2-1.03,14.39-0.97,21.61c0.03,3.83-1.03,7.3-2.46,10.85c-2.52,6.26-5.19,12.52-4.71,19.6c0.31,4.59-0.59,9.39,0.76,13.75
		c1.6,5.17,0.25,10.31,0.99,15.37c0.76,5.15,0.37,10.3,0.46,15.44C289.65,589.8,290.81,591.1,289.84,592.78z"/>
	<path fill="#1A1A1A" d="M44.77,736.7c-1.85-2.36-3.35-4.38-5.64-6.13c-2.89,6.04-6.61,11.39-10.63,16.54
		c-3.12-1.01-6.02-4.85-13.09-17.05c-0.54,3.54-0.34,7.26-2.17,10.49c-4.18-1.03-6.36-3.78-6.65-8.43
		C6.21,726.25,5.94,720.39,6,714.5c0.06-5.59,1-11.07,1.79-16.56c0.62-4.29,1.2-8.65,2.64-12.77c1.19-3.42,2.21-6.88,4.02-10.11
		c2.22-3.97,5.54-6.54,9.39-8.53c2.44-1.27,4.89-2.55,7.53-3.46c1.57-0.54,2.79-0.67,4.24,0.4c3.81,2.8,7.87,5.21,11.31,8.57
		c3.08,3.01,4.43,6.57,4.94,10.66c1.15,9.22,0.17,18.47,0.57,27.7c0.21,4.84-0.18,9.62-1.19,14.3
		C50.28,729.08,47.77,732.79,44.77,736.7z"/>
	<path fill="#1A1A1A" d="M194.94,803.64c0.43,0.15,0.32,0.55,0.45,0.95c1.25-0.51,1-1.85,1.46-2.74c2.19-4.2,3.02-8.63,2.91-13.45
		c-0.12-5.34-0.42-10.67-0.78-15.97c-0.82-11.97-0.28-23.93-0.35-35.89c-0.04-7.7,1.89-15.15,3.93-22.57
		c2.87-10.44,5.11-21.05,7.55-31.6c0.82-3.54,1.56-7.11,2.47-10.63c0.33-1.26,0.37-2.59,0.12-3.78c-1.02-4.77-0.35-9.57-0.42-14.35
		c-0.03-2.02,0.73-4.11,1.97-5.72c1.58-2.06,1.76-4.36,0.96-6.39c-2.59-6.55-2.75-13.33-2.39-20.16c0.17-3.18,1.18-6.27,2.04-9.36
		c0.93-3.33,1.59-6.74,2.25-10.14c0.47-2.39,1.68-3.94,4.18-4.06c1.11-0.06,2.14-1.21,3.32-0.29c-0.57,4.85,0.47,9.53,1.4,14.21
		c0.26,1.32,0.83,2.45,0.01,3.93c-0.54,0.98-0.32,2.51-0.12,3.75c1.11,6.77,0.34,13.57,0.38,20.35c0.01,2.14-1.63,4.09-2.43,6.15
		c-1.64,4.23-3.63,8.44-3.4,13.08c0.21,4.2,1.65,8.16,3.51,12.04c-2.01,1.61-1.94,4.16-2.38,6.36c-1.7,8.45-3.56,16.87-5.13,25.36
		c-1.37,7.42-3.07,14.79-4.54,22.19c-0.92,4.62-1.82,9.25-2.52,13.92c-0.95,6.26-1.78,12.55-2.54,18.83
		c-0.81,6.73-0.82,13.54-0.65,20.33c0.11,4.5,0.75,9.08-1.36,13.33c-1.35,2.71-2.91,5.31-4.28,8.01
		c-2.54,5.01-4.68,10.18-6.57,15.46c-0.46,1.3-1.14,1.83-2.4,1.76c-1.04,5.99-2.15,11.79-2.28,17.7c-0.02,0.94-0.48,1.71-0.61,2.61
		c-0.47,3.07,1.28,6.39-0.98,9.25c-1.93,2.44-3.37,5.21-5.42,7.66c0.61-1.73,1.12-3.5,1.85-5.18c2.39-5.45,3.25-11.24,4.08-17.06
		c0.75-5.27,1.23-10.55,1.07-15.87c-0.04-1.29,0.44-2.5,1.1-3.52C192.17,809.43,193.33,806.41,194.94,803.64z"/>
	<path fill="#1A1A1A" d="M479.09,524.56c-1.13-4.07,0.71-7.32,2.53-10.46c1.46-2.53,3.4-4.79,4.96-7.27
		c1.08-1.71,2.57-2.97,3.97-4.46c1.53,1.86,0.71,3.9,0.91,5.78c0.21,1.92-0.38,3.93,0.53,6.23c2.52-3.76,1.92-8.41,5.21-11.88
		c3.84,7.18,7.14,14.33,7.62,22.72c1.79-1.23,1.81-3.17,1.83-4.73c0.03-2.3,1.33-3.83,2.42-5.5c0.76-1.16,2.04-1.93,2.88-3.2
		c-0.55,10.78-0.91,21.5-2.04,32.44c-3.36-0.12-6.95-0.3-7.09,4.72c-3.78-1.04-7.38-2.44-11.16-3.26
		c-6.82-1.49-13.62-1.82-20.58-1.01c-3.61,0.42-7.29,1.31-11.1,0.42c-0.29-2.26-0.77-4.52-1.11-6.78c-0.62-4.17-3.1-7.42-4.88-11
		c-1.78-3.57-4.15-6.84-6.1-10.34c-0.66-1.19-0.84-2.65-1.25-4.02c2.18-0.12,7.45,2.37,13.43,6.27c1.1-5.23,4.03-9.83,4.49-15.35
		C470.22,510.23,474.25,517.65,479.09,524.56z"/>
	<path fill="#1A1A1A" d="M180.82,1144.55c1.84-2.47,4.49-2.63,6.88-2.94c4.43-0.56,8.82-1.4,13.13-2.4
		c6.13-1.42,12.08-0.93,18.1,0.2c2.91,0.54,2.73,0.77,5.2,2.76c6.64,5.35,9.26,12.83,10.85,20.68c0.97,4.8,1.32,9.82-0.17,14.82
		c-3.41-2.81-7.76-2.84-12.01-3.51c-6.84-1.07-13.01,1.13-19.19,3.35c-4.76,1.71-9.44,3.62-14.33,5.52
		c-1.12-1.41-1.31-2.95-1.21-4.77c0.16-2.95,0.23-5.89-0.22-8.89c-0.51-3.35-1.07-6.69-1.57-10.04c-0.51-3.49-1.75-6.65-3.29-9.76
		C182.15,1147.92,181.5,1146.17,180.82,1144.55z"/>
	<path fill="#1A1A1A" d="M343.28,616.83c1.39,1.62,1.13,3.58,1.35,5.26c0.4,3.03,0.86,6.11,1.91,8.85
		c1.99,5.16,1.49,10.17,0.33,15.26c-0.75,3.31-1.01,6.69-1.53,10.03c-0.14,0.93-0.39,1.77-0.85,2.51
		c-4.03,6.34-9.72,10.58-16.83,13.19c-1.18-2.52,0.38-4.65,0.89-6.75c1.16-4.78,1.59-9.66,2.63-14.43c0.86-3.96,0.83-7.99,1.5-11.96
		c0.42-2.48-0.11-4.97-1.68-7.13c-1.31-1.81-2.31-3.8-3.27-5.82c-0.4-0.84-0.55-2-1.78-2.05c0.55-4.08,1.18-7.94,1.44-11.87
		c0.42-6.2,0.93-12.4,0.93-18.61c0-3.01-0.7-6.02-1.03-9.04c-0.08-0.7-0.75-1-0.94-1.94c6.65-0.3,13.21,0.15,20.02,0.77
		c-0.29,5.31-0.82,10.48-1.17,15.64c-0.35,5.15-0.4,10.29-0.47,15.48c-5.13,2.12-9.73,5.42-15.85,5.66
		C331.87,621.25,335.13,620.49,343.28,616.83z"/>
	<path fill="#1A1A1A" d="M452.01,572.63c-0.37-7.36,0.6-14.42,0.85-21.66c16.84-2.09,33.5-3.19,49.61,3.38
		c-0.23,8.11,0.12,16.07-0.39,23.92C485.34,567.91,462.1,567.81,452.01,572.63z"/>
	<path fill="#1A1A1A" d="M233.68,1145.66c4.31,0.89,8.52,0.75,12.71,1.19c4.65,0.49,9.09,1.6,13.52,2.93
		c6.26,1.89,9.77,6.54,12.29,12.18c1.93,4.31,2.98,8.9,4.15,13.45c0.27,1.06,0.58,2.11-0.54,3.05c-2.01-1.91-3.97-3.72-6.97-4.33
		c-4.37-0.9-8.25,0.34-12.2,1.68c-4.12,1.4-8.1,3.14-12.1,4.86c-1.28,0.55-2.7,1.01-4.47,0.39c0.12-2.37-0.58-4.84-0.53-7.3
		c0.21-9.27-1.9-18.03-5.43-26.51C233.95,1146.87,233.88,1146.43,233.68,1145.66z"/>
	<path fill="#1A1A1A" d="M431.03,1182.05c1.89-15.78,2.17-30.72-10.22-42.96c1.72-0.48,3.15-0.39,4.51-0.25
		c8.68,0.88,16.55,4.51,24.68,7.28c1.71,0.58,2.18,2.14,2.65,3.48c1.73,4.98,2.89,10.08,2.87,15.43c-0.01,2.41,0.72,4.8,0.5,7.24
		c-0.06,0.62,0.14,1.27-0.33,1.9c-1.34-0.43-2.66-0.56-4.14-0.21c-6.35,1.51-12.28,4.06-18.12,6.88
		C432.71,1181.19,432.01,1181.55,431.03,1182.05z"/>
	<path fill="#1A1A1A" d="M302.54,107.52c1.84-1.04,3.92-1.2,5.86-1.71c1.79-0.48,1.95,0.91,2.01,2.34
		c0.25,6.17,1.63,12.16,3.31,18.07c0.51,1.79,1.08,3.79,3.18,4.58c1.94-0.75,1.99-2.39,1.59-3.86c-1.3-4.8-2.37-9.65-3.38-14.51
		c-0.43-2.08-0.77-4.19-1.28-6.25c-0.21-0.86,0.25-1.45,0.78-1.4c1.47,0.15,2.72-1.05,4.19-0.56c-2.32,3.6-1.5,7.3-0.32,10.96
		c0.38,1.17,0.99,2.31,1.72,3.3c0.86,1.17,2.03,2.2,3.63,1.93c1.66-0.27,2.42-1.55,2.95-3.07c0.89-2.56,0.62-5.15,0.27-7.73
		c-0.16-1.21-0.64-2.38-1.03-3.75c-1.01,1-1.93,2-3.11,2.63c-2.33-2.79-2.13-3.91,0.72-4.66c-0.28-0.61-1.11,0.05-1.42-0.67
		c6.23-1.31,12.44-2.63,18.65-3.93c1.42-0.3,2.29,0.13,2.81,1.66c1.77,5.28,1.09,10.35-0.94,15.37c-0.37,0.9-0.88,1.79-1.05,2.73
		c-0.57,3.12-2.23,5.26-5.1,6.67c-4.71,2.32-9.3,4.75-14.72,5.25c-3.56,0.32-7.07,1.12-10.68,1.02c-3.35-0.09-3.35-0.02-5.03-3.6
		c0.84,0.21,1.62,0.41,2.42,0.6c0.36-1.13-0.77-0.78-1.12-1.19c-0.37-0.44-1.09-0.58-1.77-0.9
		C304.55,120.55,303.19,114.21,302.54,107.52z"/>
	<path fill="#1A1A1A" d="M238.07,51.51c1.56-5.52,3.06-11.07,4.73-16.58c0.96-3.19,1.32-3.35,4.05-3.29
		c2.1,4.14,4.45,8.21,7.45,11.97c-1.39,1.59-3.47,1.93-4.97,3.17c-1.44,1.18-3.12,2.07-4.55,3.26c-0.99,0.83-1.95,1.64-2.11,3.27
		c-0.34,3.44-0.19,3.98,3.05,5.21c-4.75,2.91-5.31,4.29-3.1,7.67c-2.84,1.65-6.08,2.64-8.3,5.13c-0.88-0.06-1.14-0.55-1.38-1.19
		c-1.49-3.98-1.93-8.16-2.12-12.33c-0.22-4.77-0.17-9.57,0.48-14.34c1.27-9.34,4.42-17.93,10.08-25.52
		c0.16-0.21,0.41-0.35,0.76-0.64c8.26,7.01,17.03,13.46,24.22,22.08c-2.94,0.99-5.74,1.94-8.69,2.93c-2.03-1.95-3.32-4.55-4.98-6.84
		c-1.74-2.4-3.82-4.48-5.58-6.85c-1.6-2.16-5.15-1.58-6.34,0.89c-1.55,3.22-2.52,6.57-3.04,10.16c-0.45,3.17-0.29,6.3-0.41,9.45
		C237.28,49.98,236.98,51,238.07,51.51z M236.14,57.33c2.97-1.42,3.48-2.32,2.85-4.54C236.55,53.23,236.59,55.16,236.14,57.33z"/>
	<path fill="#1A1A1A" d="M479.34,1177.39c-3.46-2.97-6.91-0.86-10.24-0.08c-3.51,0.82-6.93,2.1-10.23,3.94
		c1.83-12.3,1.35-24.15-4.35-35.54c0.66-0.14,1.36,0.14,1.99,0.43c5.4,2.45,10.46,5.43,14.65,9.71c1.51,1.55,3.28,2.79,4.89,4.24
		c3.5,3.17,4.27,7.23,3.84,11.51C479.71,1173.44,479.66,1175.33,479.34,1177.39z"/>
	<path fill="#1A1A1A" d="M261.97,116.25c5.27-1.39,10.55-2.77,15.93-4.19c1.57,6.68,2.82,13.12,4.98,19.31
		c0.28,0.8,0.26,1.37-0.34,1.93c-0.96,0.91-0.44,1.65,0.71,2.52c-4.9,1.07-9.45,2.06-14.21,3.1
		C265.51,131.82,263.04,124.34,261.97,116.25z M275.37,115.75c-2.74-0.22-4.02,0.7-4.24,3c-0.41,4.3,1.13,8.06,3.56,11.47
		c0.95,1.34,3.25,1.63,3.73,0.55c0.64-1.43,1.62-2.99,1.34-4.53c-0.49-2.67-0.94-5.41-2.36-7.82c-0.94,0.63-1.85,1.78-2.98,0.41
		C273.4,117.57,273.73,116.5,275.37,115.75z"/>
	<path fill="#1A1A1A" d="M340.82,95.74c-4.84,0.45-9.35,1.42-13.87,2.34c-4.49,0.92-8.99,1.85-13.52,2.78
		c-1.29-2.86-0.69-5.82-1.39-8.57c-0.23-0.92,0.33-1.63,1.04-2.04c3.76-2.18,7.36-4.78,12.13-4.22c1.36,0.16,2.62,0.44,3.84,0.97
		C333.53,88.96,337.53,91.59,340.82,95.74z"/>
	<path fill="#1A1A1A" d="M189.04,1184.55c2.54-0.89,5.08-1.73,7.73-2.35c4.4-1.03,8.65-2.62,13.02-3.8c5.56-1.5,11-1.71,16.65-0.49
		c2.64,0.57,5.19,1,7.42,2.59c0.03,0.18,0.13,0.37,0.08,0.51c-1.35,4.13-1.35,4.13-5.92,4.13c-11.99,0-23.97,0-35.96,0
		c-0.99,0-1.99,0-2.98,0C189.07,1184.95,189.05,1184.75,189.04,1184.55z"/>
	<path fill="#1A1A1A" d="M507.54,548.76c1.01,0.45,1.81,1.07,3.02,1.05c0,6.26-0.16,12.43,0.05,18.58c0.16,4.65,0.79,9.28,1.2,13.92
		c0.15,1.67-0.39,3.37,0.84,4.98c0.71,0.92,1.74,1.59,2.21,2.69c-3.02,2.42-5.97,1.64-7.2-1.93c-1.24-3.6-3.15-7.03-2.57-11.07
		c1.14-7.92,0.32-15.9,0.56-23.84C505.7,551.47,505.96,549.92,507.54,548.76z"/>
	<path fill="#1A1A1A" d="M141.3,1185.74c11.29-6.44,26.56-9.55,40.78-4.7c0,0.18,0.04,0.37-0.01,0.53c-1.14,3.52-3.82,3.75-7,3.64
		c-4.33-0.14-8.68-0.31-13.01,0.14C155.32,1186.05,148.55,1185.52,141.3,1185.74z"/>
	<path fill="#1A1A1A" d="M240.18,1184.6c-0.13-0.85-0.27-1.38,0.13-2.05c6.98-0.68,13.73-2.8,20.54-4.73
		c2.55-0.73,5.27-1.3,8.16-0.44c2.47,0.73,4.36,1.89,6.02,3.92c-1.41,1.97-3.48,3.17-5.61,3.22
		C259.74,1184.71,250.05,1184.6,240.18,1184.6z"/>
	<path fill="#1A1A1A" d="M257.27,117.33c1.21,7.95,4.13,15.35,8.08,22.5c-0.51,0.59-1.4,0.37-2.06,0.57c-3.36,1-7.39-0.53-8.71-4.86
		c-1.33-4.35-2.24-8.75-3.03-13.2c-0.15-0.83,1.92-4.51,2.77-4.53C255.33,117.79,256.14,116.92,257.27,117.33z"/>
	<path fill="#1A1A1A" d="M468.69,659.69c0.98,1.18,2.04,2.31,2.93,3.55c1.41,1.97,1.08,4.13,0.11,6.09
		c-1.93,3.91-3.74,7.95-4.66,12.14c-0.72,3.29-2.43,5.24-4.97,6.9c-0.14,0.09-0.33,0.1-0.48,0.15c-0.56-1.24,0.23-2.3,0.57-3.34
		c0.59-1.8,0.38-3.56,0.23-5.34c-0.16-1.82-1.73-2.47-3.19-3.12c1.24-2.83,3.15-4.96,4.52-7.4c1.63-2.93,4.34-5.39,3.84-9.33
		C467.96,659.89,468.32,659.79,468.69,659.69z"/>
	<path fill="#1A1A1A" d="M275.42,100.04c-0.02,3.03,1.19,5.66,1.72,8.53c-2.01,1.54-4.53,1.37-6.79,1.97c-1.95,0.52-4,0.72-6,1.12
		c-2.65,0.54-3.55-0.49-2.78-3.13c0.24-0.81,0.29-1.59,0.26-2.39c-0.1-3.04,1.28-5.35,3.67-7.01c1.66-1.15,3.69-0.54,5.51-0.43
		C272.44,98.8,273.99,99.07,275.42,100.04z"/>
	<path fill="#1A1A1A" d="M449.39,707.33c4.38-7.55,11.73-12.6,17.08-19.75c1.03,2.4,0.3,4.32-0.15,6.13
		c-1.16,4.68-2.64,9.27-6.36,12.7c-2.54,2.33-6.9,3.27-9.43,2.03C450.1,708.23,449.79,707.94,449.39,707.33z"/>
	<path fill="#1A1A1A" d="M367.05,129.05c5.69-4.13,12.18-5.91,18.74-7.47c1.13-0.27,2.31,0.03,3.04,0.77
		c2.58,2.63,5.6,4.86,7.73,8.57C386.52,129.77,376.82,128.7,367.05,129.05z"/>
	<path fill="#1A1A1A" d="M150.03,1049.14c0-7.73-0.21-14.89,0.1-22.03c0.13-2.91,0.9-5.94,3.26-8.22c0.98-0.95,1.55-2.32,2.53-3.85
		c0.28,3.12-0.32,5.82-0.69,8.45c-0.6,4.18-1.2,8.25-0.4,12.51c0.39,2.08,0.43,4.23,1.14,6.28c0.19,0.56,0.18,1.24-0.38,1.76
		C153.89,1045.6,152.46,1047.47,150.03,1049.14z"/>
	<path fill="#1A1A1A" d="M449.33,700.92c-1.2-2.17-0.83-4.23-1.45-6.1c-0.3-0.91-0.12-1.99,0.52-2.83c2.87-3.74,4.7-8.2,8.03-11.63
		c0.98-1.02,2.46-1.26,3.1-0.19c0.78,1.3,1.63,2.5,0.94,4.41c-1.66,4.62-4.29,8.47-7.73,11.92
		C451.53,697.72,450.18,698.91,449.33,700.92z"/>
	<path fill="#1A1A1A" d="M427.99,1179.88c-3.44,2.85-7.3,3.93-11.75,3.69c-5.3-0.28-10.62-0.07-15.96-0.24
		c3.46-1.44,6.73-3.2,10.09-4.77c2.37-1.11,5.04-0.95,7.54-1.56c1.45-0.35,2.94-0.63,4.5-0.66
		C425.21,1176.31,426.97,1177.5,427.99,1179.88z"/>
	<path fill="#1A1A1A" d="M514.45,587.14c-1.15-1.78-1.71-3.29-1.71-5.03c0.01-9.79,0-19.58,0.02-29.37c0-0.77-0.32-1.68,0.8-2.28
		c1.2,1.02,1.71,2.64,1.81,4.03c0.21,2.86,0.54,5.72,0.76,8.58c0.31,4.04-0.1,8.03-0.22,12.01c-0.1,3.22-0.47,6.45-0.45,9.69
		C515.47,585.55,514.92,586.07,514.45,587.14z"/>
	<path fill="#1A1A1A" d="M165.48,644.23c4.14,4.41,9.49,6.89,14.63,9.69c1.28,0.7,2.09,1.98,3.17,2.95
		c0.54,0.48,0.73,1.06,0.42,1.69c-0.31,0.63-0.91,0.8-1.6,0.78c-2.56-0.05-4.78-1.27-7.14-2.03c-0.5-0.16-0.97-0.63-1.46-0.64
		c-3.25-0.09-4.45-2.39-5.47-4.93C167.06,649.31,166.02,646.9,165.48,644.23z"/>
	<path fill="#1A1A1A" d="M339.64,127c0.69-0.96,1.61-1.48,2.5-2.05c2.84-1.82,3.49-4.93,4.13-7.83c0.76-3.38,1.47-6.81,1.25-10.36
		c-0.13-2.06-0.22-4.1-0.95-6.04c-0.24-0.63-0.2-1.21-0.02-1.9c1.37,0.74,2.08,1.89,2.57,3.3c1.17,3.38,1.09,6.86,1.09,10.36
		c0,3.77,0.04,7.49-1.51,11.08c-0.51,1.18-0.91,1.6-2.14,1.88C344.25,125.97,341.89,126.21,339.64,127z"/>
	<path fill="#1A1A1A" d="M431.36,1183.34c4.63-1.98,9.51-3.18,14.27-4.72c1.68-0.55,3.4-0.98,5.1-1.47c1.07-0.31,2.18-0.3,3.22-0.07
		c1.66,0.36,2.29,1.48,2.08,3.19c-0.2,1.65-1.01,2.04-2.63,2.23c-4.68,0.55-9.38,0.17-14.03,0.58
		C436.69,1183.31,434.05,1183.49,431.36,1183.34z"/>
	<path fill="#1A1A1A" d="M386.4,157.49c-1.92,2.17-3.61,3.54-4.77,5.4c-0.61,0.98-1.58,1.57-2.78,1.07c-4.72-2-9.45-3.97-13.6-7.29
		C372.11,157.2,378.95,157.83,386.4,157.49z"/>
	<path fill="#1A1A1A" d="M228.19,602.97c-0.33-2.37,0.64-4.05,0.48-5.86c-0.07-0.77,0.85-1.05,1.65-1.03
		c1.27,0.02,2.55,0.05,3.82-0.01c3.06-0.13,6.11,0.24,9.17-0.47c2.19-0.51,4.45,0.11,6.86,0.73c-3.72,1.35-7.42,2.09-11.02,3.18
		C235.59,600.59,231.86,601.03,228.19,602.97z"/>
	<path fill="#1A1A1A" d="M458.2,670.35c-0.6-1.35-0.53-2.84-2.27-3.13c2.66-4.34,4.62-8.79,6.66-13.34c2.35,1.9,2.1,3.99,1.72,6.51
		C463.66,664.72,460.39,667.08,458.2,670.35z"/>
	<path fill="#1A1A1A" d="M163.47,682.22c-1.37-2.3-2.68-4.49-4.02-6.75c6.96-0.79,9.64,0.53,13.2,7.13
		C169.48,683.4,166.48,681.92,163.47,682.22z"/>
	<path fill="#1A1A1A" d="M167.8,687.83c4.83,1.61,9.19,3.85,13.34,6.48c-0.26,1.13-0.68,1.85-1.25,2.57
		c-1.11,1.4-2.45,1.62-3.75,0.59C172.77,694.8,170.05,691.51,167.8,687.83z"/>
	<path fill="#1A1A1A" d="M459.18,1183.52c6.3-1.57,12.23-5.1,19.05-3.97c0.03,2.33-1.34,3.07-2.86,3.25
		c-4.57,0.55-9.09,2.09-13.78,0.75C460.85,1183.34,459.99,1183.52,459.18,1183.52z"/>
	<path fill="#1A1A1A" d="M447.51,686.25c-0.43-2.09,0.08-3.65-0.69-5.11c-0.36-0.69,0.29-1.42,0.67-1.96
		c2.05-2.91,4.2-5.76,6.32-8.61c0.51-0.69,1.23-1.02,2.06-1.08c0.71,3.12-0.39,5.51-2.62,7.71
		C450.82,679.57,449.11,682.51,447.51,686.25z"/>
	<path fill="#1A1A1A" d="M252.66,151.02c-4.66,3.35-9.34,6.1-13.5,9.67C240.86,151.1,244.47,149.4,252.66,151.02z"/>
	<path fill="#1A1A1A" d="M167.04,966.37c3.02,14.39,3.4,16.92,0.81,23.9C166.43,982.02,167.1,974.18,167.04,966.37z"/>
	<path fill="#1A1A1A" d="M259.16,185.98c-1.7,1.44-3.39,2.88-5.41,4.6c-1.39-0.55-3.02-1.98-5.24-3.43
		c3.85-0.33,6.97-1.98,10.41-1.74C259,185.6,259.08,185.79,259.16,185.98z"/>
	<path fill="#1A1A1A" d="M403.8,600.94c2.3,0.2,4.47,0.53,6.61,1.03c1.46,0.34,2.09,0.79,1.98,2.25c-0.05,0.69-0.1,1.4,0.05,2.21
		C409.56,604.61,406.68,602.77,403.8,600.94z"/>
	<path fill="#1A1A1A" d="M301.04,126.01c-3.44-0.91-6.82-1.14-9.78,1.11c-0.47-0.69,0.01-0.85,0.19-1.02
		c0.25-0.23,0.63-0.32,0.95-0.48c2.3-1.15,4.84-1,7.28-1.32C300.49,124.2,301.01,124.71,301.04,126.01z"/>
	<path fill="#1A1A1A" d="M286.8,160.16c-4.36-2.09-7.85-5.26-10.34-10.07c6.62-4.49,13.68-6.88,22.11-4.9
		C294.9,150.54,290.78,155.16,286.8,160.16z"/>
</g>
</svg>
