<?xml version="1.0" encoding="utf-8"?>
<!-- Generator: Adobe Illustrator 24.1.2, SVG Export Plug-In . SVG Version: 6.00 Build 0)  -->
<svg version="1.1" id="Layer_1" xmlns="http://www.w3.org/2000/svg" xmlns:xlink="http://www.w3.org/1999/xlink" x="0px" y="0px"
	 width="448.14" height="870.91" viewBox="0 0 448.14 870.91" style="enable-background:new 0 0 448.14 870.91;" xml:space="preserve">
<style type="text/css">
	.st0{fill:#1A1A1A;}
</style>
<g>
	<g>
		<path d="M225.91,590.96c-6.74,14.15-12.4,28.54-17.09,43.31c-3.68,11.57-6.66,23.33-8.92,35.26c-0.84,4.46-1.53,8.96-2.28,13.44
			c-0.07,0.39-0.07,0.8-0.13,1.19c-0.15,1.01,0.1,1.79,0.83,2.6c1.7,1.9,3.29,3.9,4.71,6.04c3.65,5.49,6.45,11.4,8.72,17.56
			c3.32,9.02,5.47,18.35,6.75,27.86c0.65,4.81,0.96,9.67,1.07,14.54c0.09,4-0.09,7.99-0.09,11.98c0,2.62-0.24,5.26-0.52,7.87
			c-0.51,4.67-1.12,9.33-1.71,13.99c-0.24,1.91-0.16,3.84-0.13,5.75c0.2,10.87,1.35,21.63,3.64,32.27
			c1.18,5.46,2.1,10.97,3.27,16.43c0.55,2.57,1.43,5.07,2.15,7.6c0.24,0.84,0.41,1.71,0.7,2.54c1.13,3.28,0.18,6.11-1.8,8.75
			c-2.12,2.84-4.99,4.68-8.18,6.06c-3.47,1.5-7.15,2.21-10.85,2.85c-5.38,0.92-10.81,1.21-16.23,0.89
			c-4.84-0.29-9.67-0.96-14.49-1.56c-2.61-0.32-5.25-0.63-7.77-1.34c-2.86-0.81-5.75-1.07-8.66-1.32
			c-5.17-0.44-10.36-0.58-15.55-0.52c-2.8,0.03-5.61-0.09-8.39,0.2c-4.55,0.47-9.1,0.26-13.65,0.24c-3.43-0.01-6.83-0.47-10.1-1.67
			c-3.63-1.33-6.95-3.22-9.98-5.61c-0.68-0.54-1.43-1.11-1.76-1.94c-0.5-1.23-1.51-1.47-2.63-1.78c-1.56-0.42-3.18-0.17-4.66-0.48
			c-0.84-0.96-0.8-2.02-0.6-3.03c0.55-2.79,1.91-5.12,4.5-6.44c1.26-0.64,1.88-1.52,2.32-2.81c1.27-3.68,3.79-6.46,6.91-8.67
			c0.99-0.7,1.52-1.48,1.81-2.62c0.88-3.42,3.14-5.71,6.32-7.03c1.17-0.49,2.02-1.16,2.79-2.11c3.15-3.89,6.79-7.17,11.36-9.39
			c5.94-2.88,11.7-2.66,17.36,0.7c0.55,0.33,1.11,0.62,1.65,0.92c6.05-1.14,12.08-1.14,18.12-0.21c3.97,0.61,7.48,2.26,10.54,4.82
			c0.8,0.67,1.51,0.95,2.57,0.86c2.93-0.23,5.71,0.37,8.24,2.3c0.43-0.71,0.27-1.35,0.3-1.94c0.03-0.56,0.08-1.13-0.01-1.68
			c-0.44-2.6-0.38-5.24-0.72-7.85c-0.75-5.83-2.4-11.39-4.37-16.88c-3.52-9.86-7.78-19.42-11.82-29.06
			c-3.98-9.5-7.63-19.13-11.05-28.85c-2.94-8.36-5.6-16.81-8.28-25.26c0.09-2.1-1.29-3.49-2.43-4.99c-3.89-5.14-6.11-11-7.3-17.28
			c-1.18-6.27-2.19-12.58-2.44-18.96c-0.16-3.98-0.65-7.97-0.37-11.96c0.5-7.07,0.77-14.15,1.69-21.2
			c1.2-9.19,2.91-18.27,5.08-27.27c2.36-9.78,4.98-19.48,7.8-29.14c2.15-7.35,4.22-14.73,6.19-22.13
			c1.66-6.24,3.79-12.36,5.72-18.53c1.07-3.43,2.13-6.86,3.21-10.29c1.48-4.73,3.4-9.3,5.34-13.85c2.98-6.99,5.54-14.13,7.36-21.5
			c1.38-5.62,1.61-11.32,0.9-17.11c-1.11-9.13-3.2-18.06-5.17-27.01c-1.63-7.4-3.34-14.79-5.08-22.16
			c-0.56-2.38-1.34-4.71-2.33-7.02c0,0.9,0,1.8,0,2.7c0,5.44,0.05,10.88-0.02,16.32c-0.04,3.83-0.35,7.64-0.85,11.44
			c-0.2,1.5-0.25,3.03-0.24,4.54c0.02,1.85-0.28,3.66-0.56,5.47c-0.24,1.57-0.72,3.13-1.66,4.45c-0.7,0.97-0.61,1.82-0.11,2.88
			c1.5,3.12,3.11,6.13,5.91,8.31c0.47,0.36,0.81,0.8,0.61,1.43c-0.23,0.73-0.81,0.92-1.51,0.91c-2.07-0.02-4.16,0.16-6.19-0.46
			c-0.51-0.16-1.05-0.2-1.82-0.33c0.92,3.89,0.75,7.5-0.61,10.99c-0.14,0.36-0.58,0.51-1.13,0.45c-1.19-1.51-0.94-3.6-1.84-5.3
			c-0.96-0.69-2.05-1.16-3.28-1.51c-1.01,1.03-1.6,2.35-2.24,3.62c-6.23,12.27-13.13,24.14-21.05,35.41
			c-1.15,1.63-2.25,3.31-3.26,5.03c-2.16,3.68-3.71,7.59-4.29,12.03c1.61,2.13,2.49,4.81,3.78,7.27c1.18,2.23,1.39,4.73,1.82,7.16
			c0.33,1.88,0.54,3.79,0.43,5.72c-0.06,0.97,0.1,1.89,0.54,2.79c0.31,0.64,0.52,1.34,0.69,2.03c0.38,1.56,1.01,3.02,1.73,4.46
			c1.39,2.79,2.72,5.6,3.91,8.48c1.85,4.48,1.85,9.02,0.7,13.62c-0.35,1.39-0.8,2.76-1.28,4.11c-0.59,1.64-0.51,3.03,0.82,4.38
			c1.29,1.3,0.8,3.1-0.86,3.9c-1,0.47-1.99,0.37-3.03,0.12c-1.56-0.38-2.87-1.27-4.53-2.37c0.37,1.05,0.55,1.72,0.82,2.35
			c2.99,6.99,2.71,14.02,0.06,21c-1.31,3.43-2.6,6.87-3.67,10.38c-0.72,2.35-1.81,2.84-4.15,2c-0.3-0.11-0.58-0.24-0.79-0.34
			c-0.66,0.16-0.84,0.57-0.86,1.08c-0.04,0.8,0,1.61-0.13,2.39c-0.33,1.89-1.49,2.61-3.28,1.99c-2.08-0.71-3.99-1.68-4.83-3.94
			c-0.38-1.03-1.35-1.26-2.25-1.67c-0.56,0.37-1.09,0.72-1.63,1.06c-0.5,0.32-0.8,0.74-0.86,1.36c-0.05,0.47-0.18,0.94-0.33,1.39
			c-0.76,2.28-2.49,2.58-4.37,1.53c-1.21-0.67-2.35-1.63-2.89-2.8c-0.81-1.74-2.14-2.98-3.34-4.32c-4.17-4.66-7.84-9.68-11.17-14.96
			c-0.84-1.34-1.12-2.81-1.4-4.29c-0.91-4.87-2.16-9.65-3.35-14.45c-0.41-1.64-0.59-3.28-0.68-4.97c-0.28-5.24,0.5-10.35,1.63-15.43
			c0.78-3.5,1.35-7.04,2.13-10.55c0.87-3.91,2.1-7.7,3.36-11.47c2.92-8.7,6.2-17.27,9.7-25.76c1.92-4.65,3.37-9.49,5.43-14.08
			c3.7-8.24,5.38-17.03,7.52-25.7c2.86-11.54,5.47-23.15,9.22-34.45c1.28-3.86,2.76-7.65,3.58-11.66c0.88-4.3,1.65-8.61,2.06-12.98
			c0.18-1.91,0.18-3.83,0.18-5.75c0.02-5.04,0.07-10.08-0.02-15.12c-0.05-2.71-0.38-5.41-0.55-8.11c-0.2-3.18-0.32-6.37-0.56-9.55
			c-0.28-3.73-0.54-7.48-1.03-11.19c-0.25-1.88-0.95-3.7-1.51-5.53c-1.27-4.14-1.87-8.4-2.52-12.66c-0.37-2.4,0.15-4.8,0.54-7.14
			c1.47-8.92,5.36-16.67,11.75-23.11c1.46-1.47,3.1-2.75,4.7-4.08c1.87-1.55,4.24-1.83,6.49-2.26c2.9-0.56,5.84-0.8,8.82-0.72
			c2.01,0.05,3.98,0.11,5.91,0.74c1.63,0.53,3.34,0.24,5,0.34c3.74,0.22,7.5-0.06,11.24,0.37c1.84,0.21,3.65-0.19,5.54-0.43
			c1.03-1.22,1.36-2.84,2.22-4.18c0.86-1.34,1.77-2.65,2.81-3.77c-0.22-0.81-0.8-0.56-1.21-0.56c-1.3,0.01-2.55-0.16-3.76-0.64
			c-0.44-0.18-0.88-0.39-1.23-0.7c-0.72-0.62-0.57-1.55,0.31-1.89c0.82-0.31,1.67-0.53,2.52-0.75c2.01-0.52,4.02-1.04,5.9-1.95
			c2.4-1.16,4.46-2.72,5.75-5.08c-0.41-0.78-1.05-0.54-1.55-0.51c-4.34,0.24-8.59-0.5-12.84-1.18c-0.89-0.14-1.87-0.29-2.53-1.02
			c0.16-0.52,0.54-0.67,0.9-0.84c4.46-2.13,8.07-5.43,11.8-8.55c1.53-1.28,2.2-3.15,2.63-5.01c0.48-2.09,0.71-4.24,1.03-6.36
			c0.11-0.68-0.19-1.21-0.59-1.76c-0.81-1.12-1.93-1.9-2.96-2.77c-3.05-2.58-6.14-5.1-9.25-7.61c-3.01-2.43-5.6-5.22-7.63-8.52
			c-1.88-3.06-3.94-6-5.21-9.41c-1.38-3.71-2.23-7.5-2-11.47c0.09-1.57,0.46-3.13,0.74-4.97c-1.12,1.16-1.82,2.36-2.53,3.53
			c-2.41,3.96-4.66,8-6.21,12.39c-0.03,0.08-0.06,0.15-0.09,0.22c-0.27,0.76-0.56,1.63-1.53,1.59c-0.88-0.04-1.36-0.78-1.66-1.55
			c-0.32-0.81-0.67-1.63-0.87-2.47c-0.81-3.44-0.92-6.93-0.48-10.43c0.84-6.59,2.72-12.8,6.67-18.25c0.89-1.23,1.86-2.39,2.81-3.6
			c-0.48-0.58-0.87-0.01-1.19,0.15c-2.78,1.4-5.54,2.85-8.3,4.29c-0.5,0.26-0.99,0.58-1.53,0.1c-0.58-0.51-0.51-1.18-0.25-1.76
			c0.78-1.69,2.01-3.06,3.25-4.42c0.75-0.82,1.56-1.59,2.43-2.47c-2.53-3.28-5.19-6.34-7.25-9.99c-1.8,0.89-3.6,1.2-5.41,0.59
			c-1.23-0.41-2.25-1.19-2.98-2.3c-1.53-2.34-1.01-5.31,1.5-8.34c-1.86-3.03-3.79-6.06-5.61-9.15
			c-8.13-13.72-14.82-28.1-19.64-43.33c-3.14-9.91-5.43-20.01-6.78-30.32c-0.82-6.25-1.4-12.51-1.5-18.83
			c-0.03-2.14-0.34-4.29-0.26-6.45c0.34-9.56,0.76-19.1,2.18-28.59c1.29-8.62,3.01-17.13,5.43-25.49c1.85-6.37,4.02-12.63,6.94-18.6
			c2.34-4.77,5.22-9.16,9.14-12.81c0.41-0.38,0.88-0.7,1.27-1.1c0.78-0.81,1.72-1.08,2.82-1c0.86,0.06,1.73,0.01,2.68,0.01
			c0.46,2.06,0.27,3.95-0.05,5.82c-1.08,6.4-1.58,12.83-1.29,19.32c0.26,5.73,0.73,11.45,1.37,17.15
			c0.71,6.27,1.69,12.49,3.03,18.64c2.57,11.82,6.45,23.22,11.46,34.23c6.4,14.05,14.71,26.89,24.48,38.81
			c3.91,4.77,8.32,9.05,12.89,13.17c0.23,0.21,0.54,0.34,0.8,0.5c1.15-1.59,2.48-5.21,2.59-7.06c0.38-6.24,1.3-12.37,3.38-18.29
			c0.69-1.96,1.55-3.83,2.92-5.5c-0.71,2.23-1.4,4.47-2.12,6.69c-0.76,2.36-1.32,4.77-1.71,7.21c-0.38,2.35-0.93,4.68-0.89,7.65
			c0.93-1.77,1.62-3.08,2.32-4.38c3.22-5.98,6.49-11.93,10.3-17.57c0.4-0.59,0.82-1.18,1.28-1.73c0.42-0.51,0.95-0.91,1.67-0.66
			c0.67,0.23,0.98,0.8,1.08,1.46c0.1,0.63,0.13,1.27,0.23,1.9c0.7,4.01,1.05,8.05,1.42,12.1c0.28,3.1,0.46,6.2,0.45,9.32
			c0,0.71,0,1.42,0.67,2.03c1.46-2.31,2.91-4.58,4.53-6.76c4.26-5.74,10.19-8.8,16.82-10.82c0.23-0.07,0.46-0.15,0.69-0.15
			c0.43-0.01,0.75,0.23,0.96,0.6c0.22,0.39,0.17,0.79-0.11,1.11c-0.62,0.72-1.3,1.4-1.92,2.12c-4.32,5.07-7.84,10.67-10.92,16.57
			c-0.25,0.48-0.6,0.94-0.59,1.85c2.08-2.19,3.97-4.23,5.92-6.21c1.92-1.96,4.02-3.71,6.13-5.48c-4.54,5.46-9.87,10.24-13.37,16.63
			c0.58-0.45,1.19-0.87,1.74-1.36c3.2-2.9,6.9-4.87,11.08-5.93c1.14-0.29,1.98-0.81,2.67-1.8c3.83-5.52,8.31-10.5,12.84-15.46
			c5.18-5.67,10.56-11.14,16.05-16.5c7.2-7.03,14.55-13.89,22.22-20.43c7.23-6.17,14.67-12.08,22.17-17.91
			c6.49-5.04,13.22-9.76,20.09-14.27c3.4-2.23,6.69-4.62,10.09-6.86c6.46-4.26,13.03-8.36,19.73-12.23
			c8.03-4.62,16.08-9.2,24.43-13.23c7.99-3.86,16.14-7.34,24.53-10.22c7.71-2.65,15.57-4.78,23.62-6.09
			c3.85-0.63,7.76-1.04,11.66-0.27c0.7,0.14,1.42,0.29,2.07,0.56c1.55,0.64,1.78,1.56,0.82,3.01c-0.54,0.8-1.23,1.45-1.99,2.06
			c-3.6,2.91-7.22,5.8-10.75,8.79c-2.92,2.47-5.81,5.01-8.59,7.63c-4.77,4.5-9.51,9.03-14.14,13.66c-4.4,4.41-8.58,9.03-12.78,13.63
			c-6.32,6.9-12.16,14.18-17.93,21.53c-7.5,9.55-14.66,19.36-21.46,29.42c-4.92,7.28-9.92,14.51-14.79,21.83
			c-6.24,9.38-12.33,18.86-18.59,28.23c-3.64,5.45-7.41,10.81-11.22,16.14c-4.09,5.72-8.48,11.21-13.22,16.4
			c-0.15,0.17-0.23,0.4-0.41,0.71c0.6,0.61,1.36,0.37,1.99,0.33c3.27-0.19,6.49-0.75,9.71-1.29c8.04-1.35,15.89-3.5,23.69-5.83
			c0.8-0.24,1.73-0.78,2.36,0.23c0.57,0.91-0.1,1.69-0.57,2.41c-1.13,1.73-2.85,2.81-4.54,3.84c-5.06,3.11-10.52,5.33-16.26,6.87
			c-0.77,0.21-1.53,0.42-2.3,0.63c0.06,0.87,0.79,0.68,1.25,0.85c7.13,2.54,12.96,6.8,17.24,13.1c0.82,1.2,1.34,2.54,1.79,3.9
			c0.33,1.01,0.37,2.06,0.14,3.08c-0.31,1.38-1.56,1.9-2.77,1.16c-0.61-0.37-1.15-0.86-1.69-1.33c-4.25-3.64-9.25-5.91-14.41-7.89
			c-0.06-0.02-0.14,0.04-0.36,0.12c3.9,2.68,7.94,5.04,11.12,8.54c-2.64-1.65-5.05-3.69-8.44-5.19c1.23,1.68,2.13,2.86,2.97,4.08
			c3.89,5.62,7.07,11.59,8.55,18.34c0.43,1.95,0.76,3.92,0.65,5.93c-0.02,0.48,0,0.98-0.13,1.42c-0.2,0.69-0.47,1.43-1.32,1.54
			c-0.9,0.11-1.23-0.58-1.53-1.25c-0.89-1.97-1.91-3.87-3.34-5.51c-0.4-0.47-0.72-1.05-1.44-1.21c-0.05,0.84,0.34,1.53,0.58,2.27
			c1.09,3.35,1.7,6.79,2.09,10.3c0.23,2.07,0.32,4.13,0.29,6.21c-0.1,6.38-1.25,12.53-4.13,18.28c-0.57,1.14-1.25,2.23-1.9,3.33
			c-0.24,0.41-0.54,0.81-1.11,0.84c-0.66-0.14-0.83-0.64-0.84-1.24c-0.01-1.28-0.03-2.56-0.01-3.84c0.07-3.34-0.74-6.5-2.01-9.54
			c-1.38-3.32-2.98-6.54-4.82-9.64c-0.08-0.13-0.23-0.21-0.38-0.33c-0.75,0.04-0.7,0.78-0.89,1.2c-2.02,4.53-5.42,7.82-9.33,10.71
			c-2.19,1.62-4.57,2.9-6.85,4.2c-0.19,0.82,0.37,1.12,0.74,1.49c4.05,4.16,8.79,7.4,13.79,10.28c0.48,0.28,1,0.52,1.46,0.83
			c2.88,1.98,3.33,5.15,1.13,7.87c-0.71,0.88-1.6,1.56-2.51,2.22c-0.71,0.52-1.42,1.05-2.19,1.46c-6.94,3.63-13.87,7.27-21.76,8.49
			c-1.48,0.23-2.92,0.76-4.44,0.87c-0.7,0.05-1.18,0.35-1.59,0.91c-0.57,0.77-1.21,1.48-1.87,2.28c0.19,0.36,0.41,0.76,0.66,1.23
			c-0.32,0.43-0.66,0.86-0.98,1.31c-0.76,1.07-1.81,1.45-3.1,1.51c-3.07,0.15-6.04-0.3-8.96-1.26c-5.55-1.82-11.01-3.83-16.08-6.78
			c-0.12-0.07-0.3-0.05-0.52-0.08c-0.22,1.25,0.33,2.35,0.71,3.45c1.11,3.21,2.89,6.04,5,8.67c2.82,3.52,5.95,6.66,9.94,8.87
			c1.08,0.6,2.07,0.84,3.38,0.61c5.66-0.98,11.32-1.9,16.95-3.04c0.62-0.13,1.27-0.23,1.84-0.49c4.01-1.83,8.28-2.28,12.6-2.44
			c2.31-0.08,4.64-0.12,6.95,0.14c1.44,0.16,2.8,0.51,4.11,1.16c8.56,4.22,15.36,10.32,19.86,18.78c2.68,5.05,4.5,10.37,4.35,16.23
			c-0.1,3.91-0.25,7.82-0.95,11.67c-0.47,2.59-0.07,5.06,0.26,7.58c0.93,7.12,2.86,14.07,3.8,21.19c0.32,2.45,0.59,4.9,0.86,7.36
			c0.56,5.01,0.28,10.06,0.56,15.07c0.22,3.91,0.03,7.83,0.42,11.72c0.57,5.67,1.7,11.2,4.46,16.28c0.58,1.06,1.22,2.07,1.94,3.02
			c4,5.21,7.59,10.69,10.49,16.58c2.19,4.44,4.03,9.04,5.69,13.71c3.17,8.88,6.13,17.82,8.65,26.9c1.24,4.46,2.42,8.93,3.25,13.49
			c0.9,4.91,2.77,9.5,5.06,13.91c2.66,5.1,5.49,10.11,8.2,15.18c1.36,2.54,2.61,5.13,3.93,7.68c1.54,2.98,3.17,5.92,4.66,8.92
			c1.64,3.3,2.98,6.72,3.81,10.31c0.49,2.13,0.23,4.27-0.49,6.36c-1.8,5.18-5.02,9.28-9.63,12.16c-2.31,1.44-4.58,2.93-6.65,4.66
			c-2.32,1.94-4.94,2.56-7.82,2.27c-1.21-0.12-2.12,0.04-2.99,0.99c-1.51,1.65-3.5,2.46-5.71,2.74c-1.99,0.25-4,0.32-5.97-0.07
			c-0.83-0.16-1.54-0.11-2.32,0.12c-1.76,0.53-3.43,0.29-5.03-0.63c-1.6-0.91-3.18-1.82-4.66-2.92c-1.8-1.34-2.99-3.07-3.8-5.11
			c-0.65-1.63-1.48-3.23-1.83-4.93c-0.53-2.57-1.13-5.09-2.1-7.53c-0.14-0.36-0.19-0.78-0.18-1.17c0.06-3.03-1.11-5.63-2.92-7.94
			c-3.62-4.6-4.02-9.95-3.73-15.46c0.06-1.17,0.53-2.33,1.07-3.41c1-2,2.05-3.97,3.22-5.88c2.8-4.56,5.2-9.35,7.48-14.2
			c1.05-2.23,0.72-4.54,0.34-6.82c-0.54-3.2-2-6.04-3.77-8.73c-3.91-5.95-8.31-11.53-12.76-17.08c-5.2-6.48-10.49-12.88-15.31-19.65
			c-0.23-0.32-0.5-0.6-0.78-0.94c-2.42,0.81-4.56,2.07-6.88,3.06c-0.38,0.86-0.16,1.83-0.2,2.78c-0.03,0.67-0.14,1.34-0.77,1.65
			c-0.7,0.34-1.42,0.1-2-0.4c-1.24-1.07-2.11-2.43-2.68-3.93c-0.97-2.54-1.51-5.17-1.82-7.9c-0.26-2.3,0.12-4.55,0.18-7.11
			c-1.31,0.88-2.35,1.6-3.4,2.3c-0.49,0.32-1,0.49-1.53,0.03c-0.51-0.44-0.51-1-0.31-1.53c0.32-0.9,0.68-1.8,1.11-2.65
			c1.02-1.99,2.05-3.97,3.18-5.91c0.43-0.75,0.64-1.39,0.35-2.24c-0.23-0.67-0.41-1.41-0.37-2.11c0.23-3.82-1.1-7.4-1.61-11.1
			c-0.51-3.71-1.16-7.4-1.68-11.11c-0.85-6-1.64-12-2.46-18c-0.03-0.22-0.15-0.43-0.27-0.72c-0.76,1.55-0.66,3.18-0.93,4.73
			c-1.34,7.62-2.77,15.22-3.95,22.86c-0.76,4.96-1.32,9.95-1.74,14.96c-0.63,7.49-0.8,14.98-0.75,22.49
			c0.02,3.27-0.15,6.54-0.04,9.82c0.16,4.87,0.52,9.71,0.97,14.55c0.13,1.46,0.62,2.8,1.07,4.16c2.72,8.18,5.34,16.4,7.66,24.7
			c2.39,8.54,4.18,17.19,5.26,26c0.89,7.27,1.58,14.58,2.8,21.81c1.04,6.13,2.07,12.26,3.05,18.4c0.94,5.9,1.83,11.81,2.72,17.73
			c1.07,7.17,2.13,14.35,3.16,21.52c1.05,7.34,2.07,14.68,3.09,22.02c0.57,4.1,1.09,8.21,1.33,12.35c0.23,3.98,0.16,7.97,0.11,11.96
			c-0.02,1.61,0.15,3.18,0.57,4.73c1.95,7.17,3.16,14.49,4.25,21.83c0.89,5.99,1.84,11.97,2.65,17.97c0.61,4.5,1.09,9.02,1.54,13.54
			c0.52,5.15,1,10.31,1.42,15.47c0.45,5.48,0.85,10.97,1.15,16.46c0.35,6.37,0.65,12.74,0.97,19.11c0.29,5.99,0.28,11.97,0.48,17.96
			c0.1,2.95,0.23,5.9,0.27,8.85c0.01,0.9,0.02,1.83,1.15,2.1c1.2,0.29,2.48,0.99,3.49-0.42c0.74-1.04,1.49-2.07,2.2-3.13
			c1.29-1.93,2.45-3.93,3.86-5.78c1.25-1.65,2.85-2.8,4.72-3.57c2.75-1.12,5.58-1.92,8.59-1.88c0.64,0.01,1.26-0.06,1.88-0.29
			c6.7-2.47,13.46-2.2,20.26-0.47c3.11,0.79,6.15,1.79,8.8,3.66c0.75,0.53,1.46,0.59,2.25,0.35c1.46-0.46,2.96-0.68,4.46-0.82
			c2.93-0.26,5.74,0.35,8.38,1.59c4.81,2.26,9.17,5.2,12.88,9.03c1.83,1.89,3.5,3.95,5.02,6.09c0.75,1.06,1.65,1.91,2.65,2.74
			c2.46,2.04,4.89,4.14,5.99,7.31c0.05,0.15,0.11,0.3,0.16,0.45c0.94,2.85,0.5,4.17-2,5.93c-0.32,1.05,0.26,1.99,0.46,3.11
			c0.83,0.49,1.71,1.01,2.6,1.53c2.75,1.59,4.15,4.11,4.87,7.09c0.09,0.38,0.09,0.79,0.09,1.19c-0.01,2.66-0.9,3.95-4.03,3.59
			c-1.51-0.18-2.82,0.16-4.21,0.43c-0.73,0.14-1.33,0.48-1.77,1.11c-1.32,1.89-3.29,2.74-5.42,3.26c-1.78,0.43-3.6,0.78-5.44,0.73
			c-7.11-0.21-14.21,0.42-21.33,0.37c-3.9-0.03-7.81,0.29-11.72,0.46c-4.78,0.2-9.57,0.39-14.34,0.69
			c-8.47,0.53-16.93,0.44-25.4,0.38c-7.58-0.05-15.17-0.25-22.74-0.66c-4.51-0.24-8.85-1.39-12.31-4.61
			c-3.87-3.59-5.95-8.01-6.2-13.3c-0.16-3.41,0.43-6.73,1.7-9.85c1.02-2.51,0.95-4.99,0.59-7.52c-0.57-4.04-1.7-7.95-3.03-11.81
			c-2.8-8.17-6.43-16-10.06-23.82c-6.14-13.19-11.59-26.65-16.57-40.31c-1.01-2.78-1.95-5.58-3.06-8.32
			c-1.12-2.77-1.57-5.68-2.03-8.59c-1.25-7.96-2.68-15.88-4.29-23.78c-0.4-1.95-0.68-3.93-0.53-5.95c0.14-2.02-0.29-3.89-1.08-5.79
			c-2.89-6.93-5.3-14.03-7.59-21.18c-3.12-9.74-5.66-19.64-8.04-29.57c-3.01-12.57-5.81-25.19-8.75-37.78
			c-1.63-6.99-3.19-14.01-5.28-20.89c-0.44-1.45-0.96-2.87-1.46-4.3C227.06,592.1,226.76,591.37,225.91,590.96z"/>
	</g>
	<g>
		<path class="st0" d="M438.67,11.48c-0.77,1.96-2.21,3.25-3.57,4.55c-1.62,1.54-3.43,2.86-5.25,4.16
			c-1.56,1.11-2.99,2.39-4.41,3.68c-5.5,4.99-10.96,10.02-16.45,15.01c-2.48,2.26-5,4.46-7.47,6.73c-2.84,2.6-5.11,5.71-7.56,8.65
			c-2.51,3.01-5.22,5.83-7.87,8.71c-2.21,2.41-4.3,4.93-6.46,7.39c-4.46,5.11-8.93,10.21-13.4,15.31
			c-4.05,4.62-8.21,9.15-12.13,13.88c-3.31,4-6.34,8.22-9.47,12.36c-6.42,8.48-12.19,17.41-17.78,26.45
			c-3.45,5.58-7.32,10.86-11.25,16.1c-0.18,0.25-0.45,0.43-0.81,0.75c-0.24-1.2,0.75-2.05,0.56-3.01c-0.41-0.57-0.82-0.49-1.28-0.19
			c-0.89,0.58-1.54,1.4-2.14,2.24c-1.11,1.56-2.16,3.17-3.24,4.76c-0.3,0.44-0.48,1-1.11,1.27c0.08-2.04,1.52-3.75,1.2-5.8
			c-0.03-0.21-0.22-0.39-0.37-0.64c-1.07-0.01-1.56,0.71-1.96,1.5c-0.72,1.43-1.32,2.91-2.09,4.31c-0.87,1.57-1.26,3.39-2.98,4.51
			c-0.83,0.54-1.19,1.84-1.72,2.83c-3.64,6.89-8.05,13.24-13.47,18.84c-2.61,2.69-5.52,5.06-8.4,7.34
			c-0.81-0.02-0.95-0.66-1.29-1.06c-3.09-3.67-8.5-4.52-12.57-1.98c-3.32,2.08-3.58,6.47-0.51,8.91c0.72,0.58,1.53,1.04,2.43,1.65
			c-1.13,0.85-2.3,1.35-3.45,1.84c-3.6,1.55-7.3,2.78-11.1,3.75c-1.17,0.29-2,0.1-2.87-0.56c-2.35-1.8-4.8-3.47-7.02-5.41
			c-3.9-3.42-7.56-7.11-10.76-11.22c-2.37-3.04-4.4-6.28-6-9.78c-0.39-0.86-0.58-1.69-0.46-2.74c1.23-10.68,5.59-20.07,11.59-28.81
			c2.9-4.22,6.05-8.24,9.46-12.05c2.56-2.86,5.19-5.65,7.84-8.41c3.6-3.74,7.24-7.46,10.91-11.13c3.16-3.17,6.35-6.31,9.61-9.38
			c10.88-10.23,22.2-19.95,33.95-29.18c12.02-9.43,24.49-18.2,37.25-26.57c9.02-5.92,18.28-11.44,27.67-16.73
			c7.38-4.16,14.8-8.22,22.7-11.32c5.06-1.98,10.21-3.69,15.44-5.16c3.31-0.93,6.56-2.02,9.78-3.2c4.73-1.74,9.56-3.08,14.56-3.78
			C436.19,10.67,437.38,10.58,438.67,11.48z"/>
		<path class="st0" d="M258.77,292.22c-5.12-5.46-11.12-9.87-16.56-15.25c0.06,1.24,0.79,1.94,1.39,2.56
			c2.4,2.45,4.83,4.89,7.33,7.25c2.81,2.66,4.92,5.85,6.01,9.63c0.09,0.31,0.14,0.63,0.17,0.94c0.03,0.22,0.01,0.45,0.01,0.67
			c-0.56,0.34-1.13,0-1.67,0.09c-2.25,0.36-3.9-0.22-4.44-2.7c-0.1-0.45-0.4-0.88-0.7-1.24c-3.17-3.79-6.17-7.75-10.02-10.93
			c-0.23-0.19-0.43-0.5-0.97-0.17c1.9,2.2,4.1,4.12,5.66,6.63c-1.58-0.66-2.96-1.68-4.46-2.46c-1.53-0.79-2.63-2.23-4.67-3.08
			c0.61,1.14,1.37,1.64,1.67,2.44c0.31,0.82,0.7,1.61,1.08,2.4c1.52,3.14,3.59,5.84,6.35,7.99c0.66,0.52,1.44,0.94,1.88,1.76
			c-4.24,1.25-13.26-0.96-17.32-4.24c0.57-0.83,1.12-1.69,1.72-2.52c2.46-3.42,4.1-7.21,5.02-11.31c0.74-3.3,0.71-4.24-0.07-7.02
			c-0.55-0.04-0.6,0.33-0.66,0.74c-0.24,1.58-0.4,3.17-0.75,4.73c-1.29,5.74-4.08,10.67-7.94,15.09c-4.25,4.87-9.66,7.74-15.71,9.62
			c-0.15,0.05-0.31,0.04-0.47,0.03c-0.07,0-0.14-0.08-0.3-0.18c4.69-2.73,9.58-5.14,12.65-9.74c-0.28-0.59-0.48-0.34-0.6-0.2
			c-3.33,3.83-7.58,6.34-12.18,8.29c-4.95,2.1-10.11,3.45-15.5,3.79c-1.56,0.1-3.13,0.66-4.9-0.21c2.87-2.38,5.52-4.87,7.47-8.01
			c1.95-3.14,3.55-6.43,4.57-9.99c1.01-3.52,1.95-7.05,2-11.18c-0.82,0.98-0.86,1.77-0.97,2.51c-0.82,5.44-2.68,10.54-5.42,15.26
			c-2.09,3.59-4.64,6.88-8,9.46c-2.27,1.75-4.69,2.67-7.57,1.9c-1.04-0.28-2.19,0.04-3.19-0.49c0-0.59,0.48-0.59,0.81-0.76
			c3.34-1.77,6.38-3.92,9.06-6.62c1.64-1.65,2.76-3.59,3.15-5.8c0.5-2.81,1.1-5.65,0.92-8.54c-0.28-4.78-0.6-9.55-2.12-14.14
			c-0.24-0.73-0.32-1.53-1.07-2.18c0.22,4.71,1.8,9.19,1.36,13.82c-0.68,0.27-0.9-0.28-1.22-0.57c-2.48-2.25-5.06-4.41-7.4-6.81
			c-3.9-3.99-7.87-7.92-10.92-12.68c-1.33-2.07-2.83-4.01-3.73-6.34c-1.31-3.38-2.22-6.86-2.05-10.5c0.15-3.27,0.78-6.5,1.75-9.62
			c0.8-2.57,2.7-4.49,4.47-6.45c0.73-0.81,1.53-1.56,2.17-2.49c-1.78,0.73-2.82,2.34-4.2,3.55c-1.45,1.28-2.56,2.85-3.74,4.36
			c-1.23,1.57-2.39,3.2-3.54,4.84c-1.1,1.57-2.19,3.16-3.18,4.8c-0.99,1.64-1.9,3.33-2.76,5.04c-0.86,1.7-1.61,3.46-2.5,5.38
			c-0.86-1.28-0.99-2.61-1.11-3.91c-0.63-6.97,0.47-13.66,3.43-20.01c2.53-5.43,6.35-9.74,11.59-12.73
			c1.61-0.92,3.37-1.44,5.13-1.98c1.68-0.51,3.37-0.97,5.06-1.45c0.46-0.13,0.93-0.24,1.08-1.02c-4.59,0.94-9.12,1.68-13.52,3.13
			c-4.31,1.42-8.35,3.47-12.52,5.32c0.96-1.38,2.08-2.55,3.34-3.6c4.45-3.72,9.59-6.03,15.2-7.27c3.65-0.8,7.18-1.98,10.76-3.11
			c-1.56-0.11-3.09-0.29-4.64-0.01c-1,0.18-1.01,0.14-1.69-1.09c0.34-0.52,0.69,0.31,0.8,0.18c0.68-0.48,0.47-0.87,0.31-1.2
			c-2.61-5.48-3.87-11.33-4.46-17.3c-0.54-5.49,0.24-10.85,2.79-15.83c0.79-1.54,1.4-3.18,2.77-4.87
			c0.68,8.75,3.42,16.37,8.31,23.17c0.51,0.71,0.9,1.64,2.31,2.05c-5.36-7.45-8.45-15.31-8.56-24.22c2.27,4.65,4.64,9.21,7.94,13.21
			c3.3,3.99,6.73,7.86,11.46,10.27c0.46-0.7-0.05-0.85-0.32-1.05c-3.96-2.95-7.01-6.75-9.79-10.76c-1.31-1.88-1.64-4.13-1.78-6.38
			c-0.5-7.98,1.27-15.55,4.09-22.93c0.11-0.28,0.3-0.52,0.6-1.04c0.88,11.19,3.04,21.72,8.25,31.49c0.68-0.43,0.26-0.76,0.14-1.04
			c-3.45-7.38-5.29-15.19-6.39-23.22c-0.33-2.38-0.47-4.76-0.45-7.16c0-0.24,0.05-0.49-0.01-0.72c-0.8-2.96,0.59-5.43,1.79-7.94
			c2.51-5.27,5.41-10.33,8.36-15.36c0.97-1.65,1.96-3.3,2.96-4.93c0.4-0.66,0.72-1.4,1.49-1.94c0.61,1.08,0.55,2.23,0.66,3.26
			c0.49,4.35,0.9,8.72,1.28,13.09c0.33,3.81,0.36,7.64,0.65,11.45c0.25,3.32,0.25,6.69-0.13,10.05c-0.28,2.45-0.22,4.94-0.58,7.39
			c-0.14,0.95-0.3,1.89-0.41,2.84c-0.09,0.77-0.33,1.55,0.18,2.4c0.22-0.79,0.48-1.57,0.64-2.36c1.02-5.09,1.78-10.2,2.03-15.4
			c0.08-1.75,0.32-3.49,0.31-5.25c0-0.39,0.07-0.82,0.25-1.16c2.73-5.19,5.77-10.15,10.43-13.88c2.51-2,5.34-3.44,8.34-4.44
			c0.29,0.26,0.27,0.49,0.1,0.69c-5.44,6.6-9.42,14.05-12.63,21.92c-1.45,3.55-3.29,6.91-4.79,10.44c-1.09,2.58-1.97,5.23-2.41,8
			c-0.1,0.61-0.29,1.22,0.19,1.76c0.58-0.06,0.53-0.53,0.65-0.88c0.54-1.67,1.1-3.33,1.7-4.98c1.72-4.72,4.87-8.36,8.3-11.87
			c3.03-3.1,6.69-5.03,10.88-6.57c-0.18,1.06-0.73,1.7-1.17,2.4c-4.13,6.62-7.33,13.64-9.01,21.29c-0.36,1.63-0.61,3.29-0.98,5.26
			c-1.15-2.26-0.2-4.54-0.77-6.63c-0.6,0.32-0.71,0.82-0.73,1.26c-0.24,5.33,0.12,10.54,2.94,15.28c2.25,3.79,4.84,7.3,7.81,10.58
			c5.53,6.1,11.95,11.04,19.04,15.16c2.75,1.6,5.65,2.94,8.58,4.21c-0.26,0.43-0.6,0.63-0.98,0.76c-5.22,1.76-9.7,4.83-14.13,8
			c-0.72,0.51-1.41,1.05-2.13,1.56c-0.61,0.43-0.76,0.98-0.47,1.86c4.83,0.59,9.59,0.08,14.27-1.39c0.16,0.77-0.35,0.99-0.64,1.29
			c-2.84,2.94-4.77,6.39-5.8,10.33c-0.22,0.85-0.82,1.83,0.38,2.73c1.97-1.35,2.67-3.91,4.65-5.17c5.83,1.13,13.17,7.65,13.17,12.73
			c-2.2-1.02-4.22-2.24-6.47-2.92c-2.22-0.67-4.44-1.32-6.8-1.25c-2.35,0.07-4.75-0.24-7.51,0.94c2.02,0.2,3.51,0.43,5.01,0.48
			c1.93,0.06,3.79,0.48,5.66,0.92c0.84,0.2,1.46,0.6,1.89,1.33c0.16,0.28,0.37,0.53,0.52,0.81c2.69,5.15,4.5,10.54,4.68,16.43
			c0.17,5.26-0.42,10.37-2.48,15.24c-0.65,1.54-1.42,3.04-2.18,4.53c-0.16,0.33-0.36,0.72-0.82,0.74c-0.48-0.39-0.31-0.9-0.29-1.33
			c0.31-5.78-1.06-11.25-2.91-16.65c-1.45-4.24-3.1-8.39-5.38-12.26c-0.12-0.21-0.19-0.45-0.71-0.44c2.32,5.08,4.45,10.2,5.67,15.61
			c1.22,5.42,2.45,10.86,1.57,16.28c-0.46,0.42-0.69,0.29-0.85,0.13c-2.16-2.15-4.57-3.99-6.95-5.88
			c-4.87-3.86-8.95-8.41-12.21-13.69c-1.68-2.72-3.36-5.43-4.84-8.27c-0.83-1.6-1.05-3.15-0.75-4.85c0.6-3.41,0.65-6.84,0.31-10.27
			c-0.46-4.68-1.42-9.29-2.44-13.88c-0.02-0.08-0.23-0.13-0.58-0.3c0.15,1.05,0.27,1.96,0.41,2.88c0.91,5.84,1.76,11.69,1.18,17.62
			c-0.37,3.82-1.09,7.57-1.95,11.31c-0.12,0.53-0.39,1.02-0.75,1.92c-0.04-3.71-0.13-7-0.47-10.29c-0.52-5.07-1-8.15-1.79-9.49
			c-0.44,0.4-0.2,0.9-0.13,1.31c0.59,3.47,0.72,6.97,0.98,10.46c0.22,3.04-0.09,6.03-0.21,9.04c-0.04,0.87-0.24,1.73-0.32,2.61
			c-0.08,0.94-0.39,1.89-0.03,2.83c0.66,0.21,0.84-0.31,1.11-0.68c1.6-2.26,2.36-4.87,3.11-7.48c0.26-0.91,0.48-1.84,0.71-2.75
			c0.68,0.1,0.7,0.63,0.89,1.06c3.07,6.84,7.01,13.1,12.42,18.35c2.58,2.5,5.46,4.67,8.28,6.89c0.81,0.64,1.66,1.26,2.42,1.96
			C257.41,287.01,258.57,289.39,258.77,292.22z M223.25,280.22c-0.89-0.31-1.8-0.58-2.68-0.93c-4.86-1.92-9.26-4.65-13.41-7.8
			c-5.13-3.9-9.48-8.55-13-13.95c-3.72-5.72-5.55-12.15-6.73-18.8c-0.19-1.08-0.38-2.16-0.59-3.37c-0.44,0.55-0.42,1.01-0.44,1.46
			c-0.17,4.02,0.32,7.95,1.5,11.81c2.38,7.77,6.93,14.17,12.65,19.76c4.47,4.37,9.55,7.96,15.28,10.59
			c4.17,1.91,8.54,3.05,13.07,3.67c0.59,0.08,0.86-0.31,0.71-1.02c-0.27-0.17-0.59-0.41-0.94-0.57c-4.76-2.24-8.75-5.55-12.46-9.2
			c-3.82-3.76-7.21-7.89-9.89-12.57c-0.12-0.21-0.24-0.43-0.41-0.58c-0.17-0.15-0.25-0.65-0.79-0.14
			C209.68,267,215.62,274.25,223.25,280.22z"/>
		<path class="st0" d="M283.33,786.15c2.06,0.73,3.63,1.14,5.31,1.19c2.76,0.08,5.37-0.4,7.93-1.44c0.85-0.35,1.37-1.05,2.13-1.5
			c2.48-1.45,5.08-2.66,7.48-4.26c6.33-4.22,11.13-9.77,14.61-16.5c0.65-1.26,1.27-2.53,1.88-3.74c0.69,0.1,0.52,0.51,0.54,0.77
			c0.31,5.73,0.87,11.44,1.19,17.18c0.32,5.73,0.58,11.46,0.97,17.19c0.3,4.29,0.1,8.61,0.69,12.89c0.24,1.73,0.13,3.51,0.2,5.26
			c0.1,2.47,0.09,4.95,0.38,7.4c0.28,2.37,0.88,4.7,1.34,7.05c0.77,3.99,1.73,7.95,2.05,12.02c0.07,0.87,0.1,1.76,0.06,2.63
			c-0.14,3.11-1.14,5.78-3.89,7.55c-0.2,0.13-0.36,0.31-0.54,0.47c-0.04,0.04-0.05,0.12-0.09,0.25c0.84,0.22,1.34-0.39,1.92-0.74
			c2.75-1.67,4.05-4.07,4.11-7.35c0.06-3.71-0.52-7.31-1.27-10.91c-0.16-0.77-0.39-1.51-0.28-2.41c5.59,0.41,10.98,1.3,16.39,2.18
			c5.4,0.88,10.84,1.52,16.54,2.95c-0.72-0.98-1.45-1.15-2.16-1.37c-3.59-1.09-7.23-2.02-10.9-2.77c-3.59-0.74-7.21-1.33-10.81-1.99
			c-0.21-0.04-0.4-0.16-0.81-0.32c1.03-0.92,2-1.72,2.89-2.59c2.28-2.24,4.55-4.5,6.79-6.78c3.5-3.56,7.81-5.47,12.66-6.24
			c5.97-0.95,11.75,0.05,17.44,1.81c1.36,0.42,2.77,0.74,4.18,1.67c-0.41,0.47-0.92,0.63-1.36,0.85c-3.94,1.95-7.85,3.95-11.58,6.28
			c-1.55,0.98-3.03,2.07-4.53,3.13c-0.32,0.22-0.65,0.49-0.55,1.06c0.82,0.37,1.59,0.23,2.42-0.21c1.62-0.87,3.32-1.6,4.91-2.51
			c1.06-0.61,2.12-0.74,3.22-0.39c3.14,1.02,6.03,2.45,8.3,5c1.48,1.66,2.51,3.48,2.91,5.64c-0.1,0.83-1.17,1.1-1.15,2
			c0.45,0.35,0.75-0.03,1.07-0.2c4.45-2.32,9.25-3.47,14.15-4.27c1.84-0.3,3.67,0.09,5.42,0.68c8.28,2.81,13.36,8.55,15.03,17.08
			c0.66,3.35,0.56,6.83-0.18,10.24c-0.59,2.75-2.26,4.32-4.92,4.92c-1.71,0.39-3.45,0.63-5.22,0.62c-1.2,0-2.4,0.02-3.6,0
			c-7.59-0.17-15.16,0.4-22.75,0.53c-4.93,0.08-9.86,0.57-14.8,0.82c-4.62,0.23-9.24,0.43-13.86,0.63
			c-5.82,0.25-11.66,0.16-17.47,0.51c-3.1,0.19-6.15,0.11-9.23-0.06c-0.71-0.04-1.45,0-2.14,0.15c-0.72,0.15-1.44,0.23-2.14,0.13
			c-3.32-0.47-6.69-0.24-9.99-0.9c-2.98-0.6-5.97-1.18-8.42-3.17c-3.8-3.09-5.9-7.03-6.09-11.96c-0.12-2.98,0.2-5.91,0.98-8.77
			c0.72-2.65,0.9-5.3,0.48-8.02c-0.28-1.81-0.47-3.63-0.68-5.45c-0.57-5.06-2.46-9.74-4.25-14.42c-2.88-7.53-6.32-14.83-9.63-22.18
			C285.56,791.19,284.57,788.92,283.33,786.15z"/>
		<path class="st0" d="M132.61,3.14c0.56,3.38-0.11,6.36-0.57,9.34c-0.46,3-0.77,5.97-0.73,9.03c0.06,5.27,0.37,10.53,0.58,15.79
			c0.17,4.37,0.77,8.72,1.14,13.08c0.26,3.02,0.63,6.02,1,9.03c0.42,3.4,0.95,6.79,1.47,10.17c0.08,0.53,0.3,1.1-0.05,1.76
			c-1.14-0.94-1.2-2.59-2.24-3.47c-0.58,0.13-0.7,0.47-0.68,0.91c0.08,1.88,0.85,3.56,1.48,5.28c0.3,0.81,0.8,1.58-0.07,2.39
			c-0.3,0.28-0.17,0.76,0.05,1.12c2.71,4.37,3.97,9.38,6.08,14.02c3.39,7.43,7.38,14.51,11.62,21.48
			c6.07,9.97,12.93,19.41,19.64,28.95c2.89,4.12,5.7,8.3,8.12,12.72c2.43,4.43,4.07,9.19,5.56,14c0.42,1.37,0.77,2.74,0.9,4.18
			c-0.6,0.05-0.7-0.34-0.89-0.66c-1.38-2.35-2.42-4.85-3.28-7.43c-0.3-0.91-0.5-1.85-1.26-2.73c-1.15,0.61-2.3,1.26-3.1,2.36
			c-3.4,4.64-5.8,9.63-6.39,15.5c-0.69,6.93,0.52,13.48,2.85,19.93c0.23,0.65,0.74,1.25,0.56,2.04c-1.32-1.29-2.14-3.27-3.43-8.05
			c-0.82-3.02-1.12-6.11-1.3-9.21c-0.18-3.04,0.1-6.06,0.47-9.07c0.37-2.97,1.27-5.82,2.07-8.7c-2.19,2.96-3.8,10.12-3.9,16.01
			c-0.09,5.55,0.76,10.92,2.64,16.16c-0.99-0.87-1.48-2.04-2.07-3.11c-3.26-5.9-5.85-12.06-7.14-18.72
			c-0.23-1.17-0.41-2.36-0.58-3.54c-0.08-0.57-0.12-1.18-0.83-1.27c-0.67-0.09-0.98,0.4-1.21,0.95c-0.97,2.29-1.72,4.64-1.97,7.13
			c-0.74,7.25,0.8,14.06,3.77,20.67c1.28,2.85,2.62,5.61,4.92,7.99c-1.06,0.52-1.84,0.17-2.61-0.19c-2.11-0.97-4.16-2.07-6.01-3.46
			c-5.05-3.78-10.03-7.65-14.48-12.16c-2.32-2.35-4.24-4.98-5.81-7.88c-0.34-0.62-0.68-1.18-1.29-1.66
			c-0.65-0.51-1.02-1.39-1.45-2.15c-2.91-5.24-5.42-10.68-7.94-16.12c-3.13-6.74-5.79-13.67-8.11-20.73
			c-3.19-9.73-5.55-19.65-7.06-29.77c-0.69-4.65-1.15-9.32-1.51-14.02c-0.54-7.03-0.45-14.04-0.29-21.07
			c0.1-4.39,0.45-8.76,0.94-13.11c1.28-11.51,3.33-22.88,6.68-33.99c1.97-6.51,4.27-12.88,7.43-18.93c1.94-3.71,4.3-7.1,7.35-9.99
			C131.88,3.72,132.13,3.54,132.61,3.14z"/>
		<path class="st0" d="M346.35,559.34c0.92,1.71,2.39,2.98,3.63,4.43c1.09,1.27,2.32,2.42,3.4,3.7c2.21,2.61,3.84,5.52,3.94,9.04
			c0.1,3.76-1.53,8.7-6.44,11.23c-0.52-0.64-0.56-1.42-0.67-2.2c-0.13-0.94-0.38-1.87-0.56-2.81c-0.39-1.99-1.8-3.15-3.43-4.07
			c-1.29-0.73-2.59-0.83-3.67,0.45c-0.21,0.25-0.41,0.49-0.77,0.54c-0.78-1.91-1.7-3.75-2.79-5.52c-2.64-4.31-3.4-9.07-3.08-14.03
			c0.05-0.85,0.41-1.72,0.8-2.49c1.05-2.12,2.01-4.28,3.29-6.29c2.96-4.67,5.23-9.69,7.16-14.87c0.85-2.27,0.86-4.55,0.47-6.84
			c-0.52-3.01-1.61-5.83-3.24-8.44c-2.88-4.62-6.15-8.96-9.51-13.23c-5.09-6.46-10.26-12.85-15.35-19.31
			c-1.67-2.12-3.19-4.36-4.76-6.52c2.44-2.52,2.44-2.52,2.79-4.4c-1.72,1.56-3.45,2.7-5.39,3.51c-1.96,0.82-3.78,1.99-5.86,2.78
			c-0.57-2.29,0.22-4.31,0.15-6.37c-0.07-1.97,0.32-3.94-0.25-5.95c-0.35,1.75-0.71,3.5-1.04,5.26c-0.33,1.8-0.73,3.6-0.91,5.42
			c-0.18,1.78-0.11,3.59-0.16,5.52c-0.85-0.41-1.1-0.99-1.39-1.54c-0.9-1.71-1.48-3.55-1.79-5.44c-0.46-2.91-0.9-5.83-0.23-8.79
			c0.5-2.21,1.41-4.23,2.5-6.19c0.9-1.61,0.9-1.61,0.8-3.71c-1.86,2.99-4.22,5.15-6.74,7.23c0.12-1.29,0.82-2.32,1.39-3.4
			c1.76-3.32,3.48-6.66,4.99-10.1c0.22-0.5,0.6-0.97,0.25-1.69c-1.48,1.66-2,3.95-3.9,5.56c-0.46-1.37-0.13-2.56-0.3-3.7
			c-0.41-2.83,1.11-4.68,3.07-6.33c2.46-2.08,5.42-3.06,8.49-3.65c4.48-0.87,9.02-1.17,13.58-0.96c1.58,0.07,3.15,0.42,4.72,0.66
			c0.39,0.06,0.79,0.21,1.1-0.15c0.88-0.99,1.84-0.57,2.82-0.21c2.19,0.8,4.17,2,6.17,3.18c1.44,0.85,2.85,1.77,4.25,2.7
			c0.46,0.3,0.97,0.65,1.23,1.11c1.98,3.57,4.59,6.73,6.63,10.26c3.33,5.77,5.79,11.92,8.02,18.17c3.51,9.85,6.51,19.87,9.71,29.83
			c1.42,4.42,2.22,8.98,3.52,13.42c1.96,6.69,4.72,13.06,8.04,19.17c2.9,5.34,5.72,10.71,8.38,16.17c1.29,2.66,2.73,5.24,4.08,7.87
			c1.5,2.93,2.5,6.04,3.33,9.21c0.4,1.52,0.29,3.05-0.2,4.46c-1.57,4.53-3.87,8.6-8.05,11.29c-1.27,0.82-2.59,1.58-3.85,2.42
			c-1.26,0.84-2.48,1.75-3.72,2.63c-4.13,2.93-8.64,2.27-11.76-1.39c-3.75-4.41-6.56-9.43-9.51-14.37
			c-0.25-0.43-0.38-0.88-0.25-1.37c0.86-3.32,0.43-6.49-1.22-9.52c0.58-1.35,1.74-2.09,2.82-2.88c0.72-0.52,1.49-0.52,2.23-0.02
			c0.53,0.36,1.12,0.65,1.57,1.09c1.7,1.69,3.34,3.44,5.02,5.15c2.13,2.17,4.25,4.34,6.44,6.45c0.68,0.66,1.55,1.13,2.35,1.65
			c0.41,0.27,0.88,0.4,1.38,0.03c0.02-1.05-1.08-1.49-1.39-2.56c1.5-0.31,2.85,0.8,4.3,0.45c0.17-0.57-0.35-0.59-0.64-0.79
			c-0.25-0.17-0.51-0.34-0.8-0.53c0.44-0.46,0.89-0.82,1.19-1.28c0.71-1.09,1.1-2.23,0.78-3.61c-0.29-1.25-0.55-2.5-1.12-3.65
			c-1.23-2.49-1.55-5.18-1.86-7.87c-0.23-1.98-0.33-3.97-0.51-5.95c-0.49-5.42-3.69-9.3-10.15-9.84c-2.35-0.2-4.75,0.56-6.71,2.12
			c-0.37,0.29-0.71,0.62-1.23,1.08c-0.48-0.97,0.21-2-0.47-2.86c-1.13,0.98-0.52,2.52-1.57,3.69c-2.55-0.19-5.24,0.35-7.4,2.4
			c-2.12,2.01-3.28,4.48-3.23,7.41c-1.21,0.04-1.7-1.54-2.94-0.95c-0.55-0.9-1.39-1.39-2.33-1.84c-0.24,0.72,0.09,1.04,0.57,1.21
			C345.13,559,345.75,559.16,346.35,559.34z"/>
		<path class="st0" d="M181.3,784.44c1.86,1.36,3.68,2.78,5.59,4.07c2.79,1.89,5.69,3.69,9.05,4.25c6.5,1.08,12.6,0.33,17.5-4.71
			c0.55-0.56,1.01-1.2,1.53-1.82c0.3,1.06,0.34,1.82,0.2,2.89c-0.73,5.53-1.47,11.05-2.19,16.58c-0.18,1.41-0.31,2.83-0.04,4.24
			c0.95-0.06,0.89-0.7,0.97-1.23c0.32-2.19,0.64-4.38,0.96-6.63c0.51,0.26,0.48,0.59,0.48,0.87c-0.05,8.44,1.73,16.64,3.42,24.84
			c1.14,5.55,2.42,11.06,3.7,16.58c0.52,2.25,1.13,4.49,1.88,6.68c0.72,2.1,0.14,3.92-0.85,5.69c-0.83,1.49-2.06,2.63-3.4,3.67
			c-3.3,2.55-7.12,3.87-11.16,4.66c-5.34,1.04-10.71,1.66-16.17,1.54c-4.64-0.11-9.28,0.05-13.91-0.22
			c-4.13-0.25-8.25-0.73-12.33-1.45c-5.65-1-11.3-1.95-17.04-2.41c-4.08-0.32-8.16-0.38-12.21-0.18
			c-5.75,0.28-11.48,0.48-17.23,0.24c-6.25-0.27-11.93-2.34-16.81-6.18c-2.15-1.69-3.2-4.34-3.25-7.21
			c-0.09-5.6,2.16-10.02,6.6-13.4c5.15-3.91,10.8-4.85,16.98-3.08c4.35,1.25,8.32,3.24,12.02,5.81c0.75,0.52,1.41,1.26,2.48,1.31
			c0.49-0.84-0.74-1.46-0.11-2.28c0.47-0.62,0.68-1.43,1.01-2.16c2.18-4.82,5.5-8.77,9.42-12.24c1.01-0.89,2.07-1.76,3.5-2.16
			c1.71,0.85,2.91,2.4,4.41,3.56c1.46,1.12,2.41,2.89,4.79,3.74c-1.03-2.12-2.48-3.22-3.62-4.54c-1.15-1.33-2.37-2.6-3.59-3.85
			c-1.28-1.31-2.6-2.57-3.88-3.82c0.36-0.7,0.89-0.49,1.31-0.49c2.8-0.02,5.6-0.07,8.4,0c5.07,0.13,9.78,1.42,13.8,4.68
			c0.99,0.8,1.93,1.69,2.78,2.63c2.34,2.59,4.61,5.23,7.08,8.04c-1.5,0.22-2.74,0.03-3.96-0.12c-4.96-0.6-9.88-0.52-14.72,0.75
			c-1.91,0.5-3.81,1.13-4.94,2.99c0.52,0.39,0.79-0.05,1.09-0.24c2.19-1.37,4.7-1.5,7.14-1.75c3.42-0.35,6.87-0.14,10.3-0.01
			c2.06,0.08,4.11,0.38,6.17,0.58c0.19,2.34-0.53,5.04-2.62,9.73c0.64,0.3,0.91-0.6,1.53-0.42c0.14,0.56,0.24,1.17,0.43,1.75
			c0.46,1.34,1.31,2.36,2.57,3.03c2.52,1.32,6.92,1.51,9.74,0.39c-0.48-0.56-1.09-0.13-1.63-0.19c-0.55-0.07-1.12-0.01-1.68-0.01
			c-1.96,0-3.77-0.52-5.51-1.41c-1.33-0.68-2.07-1.75-2.24-3.19c-0.19-1.68-0.13-3.33,0.48-4.96c1.65-4.43,2.6-9,3.01-13.74
			c0.94-10.79-0.88-21.13-4.51-31.24c-0.99-2.76-2.03-5.49-3.05-8.24C181.09,784.56,181.19,784.5,181.3,784.44z"/>
		<path class="st0" d="M125.84,569.6c-0.89-0.49-0.67-1.03-0.74-1.47c-0.34-2.38-0.94-4.68-1.86-6.91c-0.49-1.2-1.18-2.27-2.04-3.22
			c-2.15-2.38-4.04-2.59-6.75-0.72c-0.54-0.44-0.44-1.11-0.51-1.68c-0.53-4.31-2.53-7.84-5.65-10.79c-1.7-1.61-3.82-2.26-6.04-2.67
			c-0.99-0.18-1.91,0.15-2.75,0.63c-0.96,0.55-1.74,1.29-2.27,2.21c0.33,0.48,0.52,0.18,0.64,0.05c1.25-1.32,2.81-1.36,4.44-1.09
			c3.62,0.6,6.05,2.66,7.42,6.04c0.93,2.31,1.55,4.68,1.5,7.14c-0.34,0.34-0.63,0.19-0.89,0.02c-3.14-2.13-6.22-1.45-9.24,0.26
			c-2.12,1.2-3.79,2.93-5.33,4.77c-4.44,5.33-6.76,11.48-7.14,18.41c-0.18,3.29-0.03,6.53,0.88,9.72c0.51,1.78,1.23,3.47,2.18,5.04
			c2.4,3.92,5.95,6.09,10.48,6.78c2.52,0.39,4.9-0.01,7.21-0.97c1.76-0.73,3.65-1.18,5.42-2.5c0.66,2.83,1.27,5.43,1.94,8.27
			c-2.7-0.74-5.21-0.81-7.32,1.26c-1.98,1.94-2.84,4.32-2.68,7.58c-2.54-3.01-2.87-6.74-5.65-8.88c-0.02-0.02-0.13,0.07-0.37,0.22
			c0.3,1.83,1.66,3.32,2.06,5.17c-0.42,0.56-0.83,0-1.25-0.04c-1.85-0.17-3.48,0.27-4.78,1.67c-1.59,1.71-2.51,3.67-2.48,6.05
			c0.03,2.03,0.5,3.95,1.32,5.79c0.35,0.78,0.92,1.48,1.02,2.44c-0.99,0.12-1.35-0.73-1.84-1.22c-2.84-2.82-5.36-5.88-7.2-9.5
			c-1.15-2.25-1.69-4.64-2.19-7.06c-0.64-3.04-1.22-6.1-1.96-9.12c-0.58-2.37-0.9-4.79-0.78-7.29c0.04-0.93-0.31-1.99-0.39-3.02
			c-0.3-4.2,0.61-8.27,1.26-12.36c1.2-7.58,3.24-14.96,5.49-22.28c0.84-2.75,1.73-5.48,2.59-8.22c1.58-5.04,4.04-9.71,6.09-14.56
			c3.33-7.86,6.9-15.63,9.48-23.79c1.59-5.03,2.69-10.19,3.96-15.29c2.23-8.9,4.15-17.88,6.65-26.71c1.39-4.91,2.77-9.83,4.46-14.65
			c0.5-1.43,0.93-2.89,1.23-4.37c0.32-1.62,1.31-2.46,2.8-2.96c0.14,0.42,0.25,0.77,0.42,1.3c0.95-0.48,1.87-0.91,2.76-1.39
			c1.77-0.94,3.65-1.64,5.59-2.09c1.91-0.44,3.86-1.13,5.56,0.71c0.32,0.34,1.22,0.21,1.85,0.19c2.82-0.09,5.56,0.32,8.29,0.99
			c1.97,0.49,3.76,1.32,5.51,2.28c1.5,0.82,2.69,1.95,3.72,3.32c1.05,1.4,1.67,2.74,1.03,4.57c-0.82,2.35-0.31,4.77,0.28,7.08
			c1.07,4.21,2.78,8.16,5.45,11.63c0.24,0.31,0.55,0.59,0.42,1.25c-5.5-0.38-9.97-2.71-13.42-6.97c-0.72,0.47-0.35,0.94-0.18,1.32
			c0.96,2.08,2.39,3.78,4.28,5.06c0.99,0.67,2.06,1.22,2.41,2.52c0.46,1.69,1.1,3.35,0.42,5.13c-0.08,0.22-0.13,0.45-0.27,0.92
			c-1.23-3.05-2.37-5.92-4.96-8.5c0.35,2.14,1.51,3.52,1.76,5.37c-2.18-0.38-3.87-1.61-5.72-2.39c-1.81-0.77-3.43-1.95-5.07-3.07
			c1.23,3.05,4.16,4.27,6.48,5.9c0.14,0.53-0.07,0.79-0.22,1.07c-4.56,8.06-8.86,16.27-13.69,24.18c-3,4.91-5.95,9.84-9.24,14.57
			c-3.11,4.47-5.65,9.27-7.41,14.45c-0.48,1.42-0.43,2.72,0.21,4.12c2.48,5.41,4.02,11.05,4.59,17.01
			C127.54,560.82,126.9,565.15,125.84,569.6z"/>
		<path class="st0" d="M234.59,563.12c2.18-2.98,4.59-5.73,6.77-8.68c2.23-3.03,4.18-6.23,5.65-9.71c1.04-2.46,1.76-5.03,1.74-7.65
			c-0.04-4.18-1.73-7.73-5.07-10.4c-3-2.39-6.45-3.79-10.1-4.78c-0.76-0.21-1.52-0.41-2.46-0.66c1.17-1.82,2.26-3.54,3.36-5.25
			c-0.11-0.08-0.23-0.17-0.34-0.25c-0.95,1.18-1.9,2.37-3.01,3.76c-0.29-0.66-0.1-1.2-0.04-1.66c0.59-5.06,1.27-10.12,1.82-15.18
			c0.33-3.01,0.46-6.04,0.71-9.06c0.65-7.73,0.58-15.49,0.45-23.23c-0.15-8.64-1.18-17.17-3.98-25.42
			c-1.2-3.55-2.27-7.15-3.32-10.75c-2.41-8.28-4.27-16.69-5.59-25.21c-0.83-5.35-1.39-10.74-1.71-16.16
			c-0.23-3.92-0.26-7.82-0.22-11.73c0.06-6.55,0.74-13.05,2.07-19.46c0.39-1.87,0.81-3.74,1.26-5.6c0.66-2.67,1.97-5.05,3.3-7.42
			c0.11-0.2,0.25-0.39,0.71-0.43c-0.15,0.87-0.26,1.75-0.46,2.61c-1.26,5.45-1.76,11-2.31,16.56c-0.58,5.86,0.38,11.59,0.91,17.37
			c0.45,4.92,1.24,9.8,2.03,14.68c1.85,11.51,4.29,22.89,7.36,34.14c1.33,4.85,2.88,9.63,4.63,14.35c2,5.41,3.12,11.05,3.85,16.76
			c0.61,4.83,0.9,9.67,1.16,14.53c0.5,9.19,0.09,18.38,0.27,27.56c0.03,1.6,0.11,3.19,0.16,4.79c0.06,1.88,0.74,3.3,2.49,4.3
			c2.29,1.31,4.26,3.09,6.1,4.99c2.14,2.22,3.8,4.76,4.69,7.71c1.33,4.41,0.69,8.69-1.22,12.82c-2.28,4.95-5.74,9.03-9.67,12.69
			c-3.33,3.1-6.91,5.92-10.77,8.37C235.4,562.65,235,562.88,234.59,563.12z"/>
		<path class="st0" d="M211.47,520.42c-0.04,0.31-0.07,0.63-0.13,1.09c-1.37,0.44-2.81,0.86-4.21,1.35
			c-2.89,1.02-5.56,2.42-7.81,4.54c-3.62,3.41-4.82,7.59-3.99,12.42c0.55,3.19,1.79,6.13,3.38,8.91c2.21,3.9,4.91,7.47,7.87,10.83
			c0.95,1.08,1.9,2.15,2.86,3.24c-0.18,0.07-0.37,0.21-0.44,0.16c-6.74-4.23-12.87-9.17-17.72-15.54c-1.89-2.48-3.47-5.15-4.52-8.13
			c-2.47-6.99-0.79-13.01,4.12-18.31c1.91-2.06,4.02-3.91,6.46-5.31c1.57-0.91,2.09-2.19,2.25-3.92c0.35-3.75,0.28-7.49,0.29-11.24
			c0.01-4.56,0.03-9.12,0-13.67c-0.03-4.87,0.18-9.73,0.53-14.59c0.07-0.95,0.11-1.91,0.11-2.87c0.01-9.84,0.13-19.67-0.03-29.51
			c-0.16-9.75,0.1-19.51-0.18-29.26c-0.2-6.68-0.59-13.36-1.31-20.03c-1.3-12.16-3.35-24.16-7.3-35.78c-0.28-0.83-0.6-1.65-0.9-2.48
			c-0.29-0.81-0.59-1.61-0.99-2.71c0.87,0.45,1.1,1.03,1.39,1.51c3.15,5.3,5.64,10.91,7.72,16.71c2.56,7.16,4.42,14.5,5.67,21.99
			c0.94,5.66,1.41,11.37,1.76,17.11c0.37,6.15,0.03,12.3,0.28,18.44c0.16,3.98,0.57,7.94,0.86,11.91c0.2,2.7,0.42,5.4,0.54,8.11
			c0.32,7.03-0.1,14.08,0.24,21.1c0.31,6.39,0.08,12.78,0.28,19.16c0.08,2.46,0.33,4.94,0.7,7.38c0.35,2.29,0.47,4.59,0.69,6.89
			c0.3,3.1,0.56,6.2,1.51,9.18c0.52,1.62,0.52,3.3,0.8,4.95c0.4,2.34,0.62,4.7,0.91,6.99c-0.97,0.54-1.03-0.74-1.72-0.61
			c-0.07-0.9-0.5-1.59-1.24-2.08C210.5,519.13,210.6,520.02,211.47,520.42z"/>
		<path class="st0" d="M107.13,590.03c1.47-1.14,2.46-2.61,3.27-4.23c1.94-3.9,2.98-8.06,3.53-12.36c0.51-3.96,0.87-7.93,0.52-11.92
			c-0.12-1.42,0.75-2.2,1.56-3.05c0.37-0.38,0.88-0.31,1.34-0.1c0.99,0.45,1.67,1.22,2.2,2.14c1,1.74,1.65,3.61,2.17,5.55
			c1.5,5.66,0.92,11.24-0.73,16.74c-1.1,3.67-2.57,7.2-4.43,10.58c-1.09,1.98-2.68,3.34-4.63,4.33c-1.06,0.54-2.18,1-3.32,1.36
			c-7.06,2.28-14.4-1.67-16.54-9.02c-1.03-3.53-1.34-7.16-0.82-10.88c0.25-1.81,0.37-3.65,0.87-5.42c1.56-5.55,4.8-10.04,9.02-13.86
			c1-0.91,2.17-1.61,3.48-2.05c1.39-0.47,2.67-0.32,3.84,0.56c1.02,0.76,2.02,1.56,3.01,2.37c0.82,0.66,0.95,1.62,1,2.59
			c0.16,3.52-0.16,7.01-0.64,10.48c-0.7,5.1-2.36,9.91-4.51,14.57C107.12,588.84,106.58,589.29,107.13,590.03z"/>
		<path class="st0" d="M265.14,251.23c0.14,0.05,0.35,0.06,0.4,0.15c2.81,5.7,6.87,10.34,12.03,14.19
			c-0.32,0.97-0.64,1.93-0.95,2.89c-0.51,1.57-0.51,3.14,0.15,4.67c0.99,2.31,3.29,3.36,5.71,2.58c3.26-1.05,6.59-1.92,9.71-3.38
			c0.28-0.13,0.61-0.18,1.02-0.29c1.65,2.11,3.55,4.02,5.77,5.91c-1.67,1.82-2.87,3.88-3.82,6.06c-0.57,1.31-1.14,2.66-1.45,4.05
			c-0.42,1.88-0.52,3.81,0.39,5.63c0.21,0.43,0.43,0.86,0.21,1.36c-0.66,1.54-0.45,3.1,0.02,4.67c-2.52,1.24-5.15,1.89-7.76,2.58
			c-0.88,0.23-1.55-0.17-2.25-0.55c-3.39-1.83-6.44-4.13-9.35-6.65c-2-1.73-3.81-3.62-5.5-5.66c-2.34-2.83-3.47-6.07-3.68-9.66
			c-0.08-1.31-0.65-2.68,0.23-4.07c3.09-0.28,6.07,0.59,9.42,1.1c-1.3-1.49-2.89-1.67-4.34-2.03c-1.53-0.38-3.12-0.51-4.7-0.75
			c0.2-1.95,0.6-3.82,0.86-5.7c0.69-5.02-0.11-9.84-1.49-14.63c-0.24-0.83-0.74-1.61-0.59-2.54L265.14,251.23z M283.47,291.98
			c-0.57,0.05-0.83,0.54-0.97,1.08c-0.11,0.43,0.56,1.04,1.09,1c0.53-0.04,0.83-0.36,0.86-0.91
			C284.48,292.49,284.09,291.98,283.47,291.98z M286.4,295.97c0.06,1.32,0.23,1.76,0.65,1.75c0.45-0.01,1.15-0.71,1.03-1.14
			C287.82,295.64,287.14,295.69,286.4,295.97z M287.38,291.34c0.66,0.17,1.18,0.3,1.69-0.3c-0.09-0.7-0.44-1.18-1.21-1.28
			C287.28,290.16,287.09,290.61,287.38,291.34z"/>
		<path class="st0" d="M336.41,186.68c-1.89,2.31-4.26,3.76-6.73,5.04c-6.14,3.18-12.71,5.11-19.42,6.62
			c-3.65,0.82-7.36,1.34-11.07,1.85c-0.31,0.04-0.64,0.02-0.83,0.48c2,0.4,3.98,0.06,5.94-0.09c1.74-0.13,3.47-0.46,5.2-0.72
			c1.04-0.15,2.01,0.05,3.05,0.24c5.25,0.99,9.78,3.39,13.86,6.72c2.48,2.02,4.8,4.24,6.43,7.03c0.83,1.42,1.75,2.86,1.49,4.66
			c-0.88,0.1-1.16-0.61-1.62-0.98c-4.23-3.38-9.02-5.72-14.06-7.59c-3.59-1.33-7.3-2.28-11.04-3.1c-1.86-0.41-3.66-1.12-5.51-1.59
			c-3.17-0.8-6.41-1.22-9.66-1.55c-0.85-0.09-1.7-0.16-2.46-0.24c-0.19-0.54,0.05-0.79,0.29-0.98c2.95-2.46,5.66-5.17,8.34-7.91
			c0.71-0.72,1.43-1.12,2.49-1.13c5.59-0.09,11.09-0.99,16.57-2.05c5.72-1.11,11.32-2.7,16.93-4.26
			C335.19,186.95,335.8,186.82,336.41,186.68z"/>
		<path class="st0" d="M293.14,234.78c4.5,2.08,14.74,12.37,17.61,18.32c-1.39,3.53-3.52,6.63-6.39,9.26
			c-3.27,3-7.01,5.27-10.95,7.25c-2.5,1.25-5.03,2.44-7.55,3.65c-0.42,0.2-0.82,0.52-1.56,0.27c1.2-1.21,2.62-2,3.8-3.07
			c1.25-1.13,2.4-2.33,3.49-3.6c1.09-1.27,2.18-2.55,3.17-3.9c0.95-1.29,1.83-2.63,2.63-4.01c0.84-1.45,1.67-2.93,2.25-4.49
			c0.56-1.5,1.31-3.03,0.92-5.14c-1.47,5.87-4.74,10.28-8.33,14.49c-1.61,1.88-3.31,3.68-5,5.49c-0.29,0.31-0.54,0.78-1.27,0.68
			c0.76-1.78,1.5-3.52,2.23-5.26c1.43-3.41,2.02-7.05,2.98-10.59c0.56-2.08,1.01-4.19,1.41-6.31c0.74-3.93,0.89-7.89,0.49-11.87
			C293.02,235.55,292.93,235.16,293.14,234.78z"/>
		<path class="st0" d="M379.58,577.88c-0.1-0.01-0.18-0.02-0.26-0.03c-3.35-0.53-5.31-3.05-7.36-5.34
			c-1.55-1.73-3.21-3.33-4.81-4.99c-0.78-0.81-1.66-1.5-2.69-1.96c-1.04-0.46-1.52-1.28-1.9-2.31c-0.89-2.37-0.75-4.86-0.94-7.31
			c-0.06-0.79,0.07-1.6-0.03-2.39c-0.15-1.25,0.41-2.17,1.25-2.93c3.08-2.81,9.15-3.75,13.1,0.03c1.06,1.02,1.79,2.2,2.16,3.65
			c0.62,2.49,0.76,5.03,0.91,7.57c0.19,3.13,0.67,6.15,2.05,9.01c0.55,1.14,0.89,2.36,0.89,3.68
			C381.96,576.31,381.35,577.48,379.58,577.88z"/>
		<path class="st0" d="M224.22,590c-9.34,18.31-16.26,37.54-21.59,57.55c-0.26-0.39-0.47-0.58-0.5-0.79
			c-0.33-2.67-0.92-5.34-0.54-8.06c1.16-8.21,3.06-16.27,5.3-24.24c1.85-6.59,3.62-13.21,5.86-19.69c0.5-1.45,1.27-2.26,2.72-2.64
			c2.48-0.64,4.79-1.75,7.15-2.71C223.2,589.19,223.7,589.05,224.22,590z"/>
		<path class="st0" d="M145.92,816.68c-3.78,1.75-6.66,4.2-9.14,7.18c-2.45,2.94-3.63,6.47-4.8,10.26
			c-5.43-3.41-10.89-6.03-17.75-5.16c1.29-1.75,2.3-3.17,3.35-4.55c2.65-3.44,5.72-6.42,9.44-8.72
			C133.13,811.93,140.15,812.29,145.92,816.68z"/>
		<path class="st0" d="M229.33,593.15c1.42,0.57,2.86,1.18,4.32,1.72c1.42,0.53,2.85,1.03,4.29,1.5c1.1,0.37,1.58,1.06,1.78,2.25
			c1.33,7.93,2.67,15.85,3.57,23.84c0.54,4.82,1.13,9.64,1.72,14.46c0.43,3.55-0.32,6.97-1.04,10.4c-0.03,0.12-0.21,0.21-0.35,0.34
			c-0.55-0.05-0.45-0.55-0.52-0.87c-1.6-6.75-3.15-13.5-4.79-20.24c-2.09-8.6-4.03-17.23-6.57-25.71c-0.68-2.28-1.12-4.65-2.46-6.69
			C229.13,593.92,229.05,593.56,229.33,593.15z"/>
		<path class="st0" d="M264.54,220.55c-1.19-0.44-2.07,0.03-2.94,0.33c-3.39,1.19-6.86,2.08-10.41,2.64
			c-2.27,0.36-4.55,0.79-6.91,0.62c1.33-1.77,8.47-5.71,14.25-7.89c4.46-1.69,12.13-3.11,15.86-2.94c0.39,0.28,0.37,0.7,0.32,1.08
			c-0.77,5.97-2.18,11.75-5.13,17.06c-1.13,2.04-2.4,3.95-4.55,5.05c-0.86-0.67-1.68-1.3-2.69-2.07c0.54-4.83,1.9-9.48,4.81-13.77
			c-0.74-0.07-0.88,0.44-1.13,0.74c-0.31,0.36-0.62,0.74-0.83,1.17c-0.88,1.77-2.35,2.96-3.88,4.13c-1.77,1.35-3.71,2.48-5.37,4.01
			c-0.94,0.87-1.91,1.68-2.68,2.71c-0.28,0.37-0.58,0.78-1.3,0.94c0.8-2.36,1.95-4.4,3.39-6.27c1.37-1.78,2.99-3.31,4.56-4.9
			c0.64-0.65,1.43-1,2.21-1.4C262.88,221.41,263.63,221.02,264.54,220.55z"/>
		<path class="st0" d="M248.45,302c-0.09-0.67-0.14-1.07-0.2-1.51c0.16-0.68,1.11-0.55,1.33-1.21c-0.12-0.94-0.95-1.18-1.6-1.61
			c-3.77-2.52-6.8-5.73-9.16-9.59c0.63-0.56,0.95,0.04,1.28,0.23c1.79,1.06,3.52,2.21,5.3,3.26c2.12,1.25,3.75,2.96,4.98,5.07
			c0.28,0.48,0.64,0.93,0.86,1.44c0.52,1.21,1.4,1.61,2.68,1.5c1.19-0.1,2.38,0.03,3.57,0.29c1.02,0.22,1.53-0.3,1.37-1.31
			c-0.21-1.32-0.82-2.57-0.86-4.07c1,0.19,1.18,1.13,1.81,1.52c0.28,0.18,0.54,0.36,0.87,0.19c0.4-0.2,0.54-0.52,0.44-0.98
			c-0.57-2.48-0.95-5.02-2.04-7.4c0.23-0.72,0.85-1.04,1.59-1.39c2.21,9.72,8.4,16.63,15.91,22.57c-0.68,1.15-1.64,1.22-2.6,1.29
			c-2.75,0.19-5.43-0.29-8.01-1.16c-4.16-1.39-8.31-2.82-12.41-4.4C251.78,304.02,250.17,302.93,248.45,302z"/>
		<path class="st0" d="M416.89,835.32c-8.15-6.26-12.72-8.46-25.47-4.15c-0.1-0.11-0.29-0.22-0.29-0.34
			c-0.05-2.82-1.5-4.98-3.31-6.97c-1.62-1.78-3.57-3.17-5.55-4.51c0.2-0.7,0.8-0.79,1.27-0.99c3.18-1.4,6.49-2.15,10-1.84
			c1.78,0.16,3.42,0.76,5.01,1.52c7.46,3.59,13.24,9.08,17.86,15.87c0.13,0.2,0.26,0.4,0.36,0.62
			C416.82,834.66,416.82,834.83,416.89,835.32z"/>
		<path class="st0" d="M112.13,630.19c0.22-3.25-1.15-6.06-2.7-8.75c-0.98-1.7-1.31-3.35-0.92-5.24c0.18-0.85,0.11-1.75,0.22-2.61
			c0.21-1.73,0.9-3.24,2.31-4.3c2.02-1.51,4.55-1.2,6.21,0.73c0.31,0.36,0.63,0.75,0.79,1.19c1.56,4.17,3.3,8.31,3.68,12.82
			c0.15,1.82,0.08,3.64-0.39,5.46c-0.47,1.83-1.98,3.24-4.75,2.92C114.84,632.18,113.38,631.46,112.13,630.19z"/>
		<path class="st0" d="M295.87,299.15c-0.74-1.26-1.14-2.27-0.24-3.5c1.97,0.55,3.6-0.35,5.08-1.66c1.85-1.63,3.7-3.26,5.26-5.21
			c-0.62-0.55-0.95,0.02-1.26,0.24c-1.76,1.24-3.51,2.51-5.22,3.81c-0.91,0.69-1.82,1.44-3.03,0.96c-1.27-0.5-1.2-1.83-1.35-2.87
			c-0.21-1.52,0.31-3,0.78-4.44c0.91-2.74,2.36-5.21,3.98-7.78c2.31,1.61,4.57,3.18,6.97,4.86c-2.13,0.86-4.4,1.1-6.04,2.73
			c0.48,0.68,0.88,0.14,1.24,0.01c2.05-0.71,4.15-1.17,6.32-1.16c2.1,0.01,2.64,1.12,2.93,2.53c0.17,0.85-0.24,1.56-0.73,2.21
			c-1.02,1.35-2.17,2.57-3.56,3.53C303.58,295.79,299.83,297.53,295.87,299.15z"/>
		<path class="st0" d="M135.71,587.17c0.04,2.3-1.15,4.85-3.26,6.96c-1.16,1.16-2.52,1.98-4.31,1.25c-0.63-0.26-1.07-0.55-1.29-1.25
			c-0.94-2.96-2.01-5.89-2.67-8.94c-0.34-1.55-0.17-3.01,0.78-4.34c0.55-0.78,1.02-1.62,1.57-2.41c0.51-0.74,1.2-1.28,2.03-1.62
			c1.47-0.6,2.83-0.36,3.91,0.83C134.71,580.13,135.72,583.09,135.71,587.17z"/>
		<path class="st0" d="M370.37,600.81c-2.04,1.76-4.42,2.21-6.92,2.19c-3.78-0.04-4.09-0.2-6.3-3.32c-1.98-2.8-3.69-5.76-5.25-8.9
			c1.2-1.03,2.39-2.05,3.59-3.06c1.15-0.97,1.67-2.48,2.91-3.66C361.74,590.23,365.03,596.23,370.37,600.81z"/>
		<path class="st0" d="M159.92,177.39c2.24,11.33,8.39,20.3,14.56,29.46c-2.22,0.91-4.37,1.36-6.43,1.95
			C160.02,199.77,156.79,184.58,159.92,177.39z"/>
		<path class="st0" d="M108.79,628.44c0.25,1.19-0.33,2.01-1.39,2.68c-2.59,1.63-4.44,1.37-6.65-0.83
			c-2.9-2.88-4.65-6.43-4.58-10.69c0.02-1.24,0.36-2.35,1-3.39c1.12-1.81,2.8-2.58,4.88-2.18c1.07,0.2,1.9,0.68,2.36,1.77
			c1.48,3.44,2.9,6.9,4.13,10.44C108.77,626.92,108.84,627.62,108.79,628.44z"/>
		<path class="st0" d="M115.87,597.49c2.38-2.55,3.94-5.47,4.89-8.74c0.21-0.72,0.35-1.59,1.33-2.06c2.04,6.28,3.73,12.63,6.1,19.1
			c-3.15-0.63-6.02-1.07-8.18,2C118.27,604.36,117.18,600.92,115.87,597.49z"/>
		<path class="st0" d="M359.9,551.71c-0.2,4.52-0.78,8.91,1.1,13.19c-1.43,1.16-2.98,2.15-3.89,3.93c-2.26-1.87-4.06-3.89-5.66-6.06
			c-1.23-1.68-1.14-3.62-0.52-5.5C352.09,553.71,355.84,551.36,359.9,551.71z"/>
		<path class="st0" d="M290.46,249.85c-0.75-0.06-0.88-0.6-1.11-0.98c-2.17-3.64-4.03-7.42-5.61-11.36
			c-0.86-2.15-1.84-4.24-2.79-6.35c-0.54-1.19-1.38-2.15-2.39-2.96c-1.37-1.1-2.79-0.95-4.05,0.32c-1.23,1.23-1.64,2.88-2.28,4.42
			c-0.59-0.28-1-0.71-0.66-1.31c1.37-2.43,2.2-5.1,3.29-7.54c0.79-0.42,1.37-0.11,1.94,0.16c2.87,1.38,4.81,3.66,6.05,6.52
			c1.2,2.78,2.26,5.62,2.9,8.6c0.08,0.38,0.06,0.8,0.64,1.17c0.42-1.51,0.76-2.99,1.25-4.43c0.48-1.42,0.97-2.85,1.87-4.08
			c1.02,0.24,1.5,0.83,1.7,1.81c0.37,1.89,0.49,3.79,0.47,5.71C291.66,243.04,291.18,246.46,290.46,249.85z"/>
		<path class="st0" d="M125.17,626.45c-0.27-1.85-0.5-3.7-0.83-5.53c-0.58-3.22-1.75-6.27-2.89-9.33c-0.42-1.13-0.45-2.16,0.28-3.16
			c0.55-0.74,1.22-1.26,2.2-1.2c0.24,0.01,0.48,0.02,0.72-0.01c3.18-0.38,4.41,1.54,4.46,4.27c0.08,5.22-1.08,10.25-3.64,14.87
			C125.44,626.41,125.32,626.41,125.17,626.45z"/>
		<path class="st0" d="M279.98,301.74c-1.99,1.21-4.17,1.3-6.28,1.62c-0.88,0.13-0.94,0.03-2.1-1.01c0.07-0.88,0.41-1.77,0.81-2.62
			c0.56-1.2,0.63-2.29-0.56-3.24c-0.85-0.32-1.78-0.07-2.62,0.02c-0.41-0.76-0.12-1.39-0.14-2.02c-0.05-1.68-0.44-2.05-2.32-2.25
			c-0.15-0.02-0.3-0.08-0.67-0.18c-1.14-2.96-1.49-6.35-3.27-9.17c0.92-0.76,1.23-0.78,1.49-0.15c0.15,0.37,0.27,0.75,0.34,1.14
			c0.4,2.44,1.61,4.47,3.08,6.39c2.98,3.9,6.66,7.06,10.59,9.95c0.51,0.38,1.02,0.76,1.52,1.15
			C279.89,301.4,279.89,301.5,279.98,301.74z"/>
		<path class="st0" d="M280.77,241.68c-1.6-0.98-3.09-1.73-4.64-2.37c-0.72-0.29-1.19-0.71-1.52-1.4c-0.45-0.93-0.95-1.85-1.49-2.73
			c-0.64-1.03-0.49-1.96,0.21-2.86c0.29-0.37,0.62-0.73,0.98-1.03c1.45-1.2,2.2-1.09,3.31,0.48c1.7,2.42,2.3,5.23,2.88,8.05
			C280.62,240.43,280.68,241.06,280.77,241.68z"/>
		<path class="st0" d="M345.34,593.45c2.84,1.03,2.84,1.03,5.02-0.29c1.01,1.76,1.98,3.55,3.04,5.29c1.06,1.74,2.2,3.44,3.37,5.25
			C351.61,603.35,346.73,598.98,345.34,593.45z"/>
		<path class="st0" d="M276.91,247.78c-1.11-0.86-2.23-1.71-3.34-2.57c-0.38-0.29-0.73-0.62-1.12-0.89
			c-0.98-0.68-2.28-1.12-2.9-2.03c-1.02-1.48-1.93-3.06-3.1-4.58c1.29-1.06,2.49-1.94,3.39-3.27c1.27,1.12,1.59,2.54,2.26,3.65
			c-0.32,0.85-1.07,0.34-1.51,0.76c0.26,0.37,0.66,0.2,0.97,0.19c0.81-0.02,1.37,0.32,1.75,1.02c1.31,2.45,2.61,4.9,3.92,7.35
			C277.11,247.54,277.01,247.66,276.91,247.78z"/>
		<path class="st0" d="M226.65,550.94c-0.77-0.8-1.55-1.59-2.3-2.41c-0.74-0.82-1.45-1.68-2.26-2.62c1.48-1.98,3.35-3.54,5.05-5.27
			C230.02,543.73,229.74,548.35,226.65,550.94z"/>
		<path class="st0" d="M129.77,564.82c0.93,3.84,2.67,7.15,4.3,10.87c-1.17-0.53-1.93-1.3-2.96-1.4c-1.04-0.1-2.07-0.06-3.05,0.37
			c-0.92,0.41-1.74,0.98-2.5,1.8c-0.38-1.94-0.03-3.46,1-4.94c0.96-1.37,1.61-2.92,2.12-4.53
			C128.91,566.33,128.96,565.58,129.77,564.82z"/>
		<path class="st0" d="M240.4,300.37c2.22,0.09,3.99,0.16,5.97,0.24c-0.21,6.1,2.46,11.03,6.11,16.17
			c-1.05-0.48-1.53-0.83-1.94-1.26c-0.44-0.46-0.82-0.98-1.26-1.44c-0.82-0.88-1.7-1.79-2.07-2.91c-0.44-1.33-1.98-1.41-2.49-2.64
			c-0.45-1.08-1.24-2.01-1.87-3c0.55-0.4,1.16,0.23,1.7-0.37c0.32-1.18-0.69-1.76-1.4-2.45
			C242.43,301.98,241.35,301.68,240.4,300.37z"/>
		<path class="st0" d="M220.37,545.62c-0.18,0.35-0.22,0.52-0.33,0.62c-1.53,1.38-3.08,2.75-4.64,4.14
			c-2.65-2.25-2.75-6.67,0.15-10.01C217.35,541.91,218.74,543.83,220.37,545.62z"/>
		<path class="st0" d="M226.27,539.7c-1.71,1.8-3.3,3.47-4.94,5.2c-1.9-1.6-3.19-3.63-4.91-5.25
			C219.12,536.87,223.6,536.94,226.27,539.7z"/>
		<path class="st0" d="M335.34,825.79c1.56-2.3,3.12-4.51,4.59-6.78c1.59-2.46,3.77-4.08,6.57-4.9c0.99-0.29,1.97-0.58,2.95-0.88
			c0.32,0.5-0.1,0.65-0.26,0.77c-3.2,2.55-6.01,5.49-8.72,8.53c-1.23,1.37-2.53,2.68-4.3,3.37
			C335.94,826,335.73,826.11,335.34,825.79z"/>
		<path class="st0" d="M216.57,551.74c1.26-2.06,2.92-3.48,4.6-5.08c1.8,1.66,3.29,3.35,4.66,5.16
			C222.7,554.01,219.96,553.99,216.57,551.74z"/>
		<path class="st0" d="M185.4,829.17c-0.17-0.04-0.38-0.02-0.46-0.11c-2.09-2.6-4.16-5.21-6.22-7.83c-0.13-0.17-0.15-0.43-0.26-0.75
			c2.45-0.14,4.6,0.43,6.55,1.81c0.8,0.57,1.16,1.24,1.05,2.22C185.89,826.06,185.82,827.64,185.4,829.17z"/>
		<path class="st0" d="M283.74,268.99c0.24,0.45,0.26,0.92,0.09,1.38c-0.57,1.48-1.15,2.94-1.76,4.49
			c-1.43,0.54-2.56-0.15-3.65-0.89c-0.22-2.41,0.29-4.65,1.5-6.66c1.42,0.28,2.36,1.64,3.87,1.74L283.74,268.99z"/>
		<path class="st0" d="M276.57,240.6c1.74,0.79,3.15,2.01,4.39,3.45c0.43,0.5,0.54,1.12,0.68,1.76c0.38,1.79,0.78,3.58,1.32,5.33
			c0.66,2.14,1.51,4.21,3.24,5.77c0.76,0.68,0.91,1.43,0.06,2.44c-3.38-6.19-6.72-12.29-10.05-18.39
			C276.33,240.84,276.45,240.72,276.57,240.6z"/>
		<path class="st0" d="M278.49,264.22c-1.49-0.85-2.35-2.23-3.84-3.34c2.96-0.54,4.89-2.05,6.12-4.45c1.8,1.74,1.8,1.74,1.68,4.11
			C281.17,261.72,279.85,262.96,278.49,264.22z"/>
		<path class="st0" d="M282.16,267.59c-0.57-0.46-1.05-0.86-1.49-1.21c-0.09-1.08,1.84-2.92,3.91-3.81
			C285.27,264.78,284.7,266.03,282.16,267.59z"/>
		<path class="st0" d="M163.48,462.44c-0.98-2.13-1.34-4.08-1.28-6.87C163.72,457.71,164.87,459.68,163.48,462.44z"/>
		<path class="st0" d="M271.27,297.79c0.51,1.39-0.36,2.26-0.94,3.35c-1.04-0.95-1.78-1.93-2.46-3.24
			C269.11,297.79,270.15,297.54,271.27,297.79z"/>
		<path class="st0" d="M265.05,195.62c-0.72,0.01-1.27-0.43-1.31-1.08c-0.06-0.95,0.75-1.81,1.76-1.85c0.72-0.03,1.46,0.58,1.5,1.24
			C267.06,194.72,266.04,195.6,265.05,195.62z"/>
		<path class="st0" d="M278.15,305.08c-0.42,0.63-0.86,1.27-1.55,1.74c-1.08-0.38-1.85-1.09-2.61-2.09c1.03-0.27,1.84-0.5,2.66-0.7
			C277.5,303.82,278.02,304.15,278.15,305.08z"/>
		<path class="st0" d="M265.3,293.48c0.14-0.05,0.28-0.15,0.41-0.13c0.62,0.07,1.23,0.17,1.78,0.24c1.01,1.15-0.02,2.15,0.07,3.27
			C266.24,295.89,266.03,295.57,265.3,293.48z"/>
		<path class="st0" d="M262.29,284.48c1.15,1.28,1.33,1.88,2.11,6.97C263.12,289.78,262.33,287.16,262.29,284.48z"/>
		<path class="st0" d="M265.19,251.18c-1.08-1.54-1.47-3.38-2.4-5c0.78-0.46,1.23-0.04,1.33,0.5c0.28,1.53,1.01,2.96,1.02,4.55
			L265.19,251.18z"/>
		<path class="st0" d="M283.74,268.99l0.05,0.06c-0.24-0.34-0.34-0.7-0.05-1.06c0.39-0.48,0.8-0.96,1.35-1.31
			C284.94,267.64,285.24,268.85,283.74,268.99z"/>
		<path class="st0" d="M279.99,303.28c0.58-0.75,1.22-1.06,2.14-0.59C281.54,303.51,280.8,303.43,279.99,303.28z"/>
		<path class="st0" d="M140.65,199.83c1.04,1.01,0.2,1.44,0.15,2.16c-0.47-0.41-0.48-0.73-0.45-1.02
			C140.39,200.67,140.5,200.38,140.65,199.83z"/>
	</g>
</g>
</svg>
