<?xml version="1.0" encoding="utf-8"?>
<!-- Generator: Adobe Illustrator 24.0.2, SVG Export Plug-In . SVG Version: 6.00 Build 0)  -->
<svg version="1.1" id="Layer_1" xmlns="http://www.w3.org/2000/svg" xmlns:xlink="http://www.w3.org/1999/xlink" x="0px" y="0px"
	 width="344.94" height="739.81" viewBox="0 0 344.94 739.81" style="enable-background:new 0 0 344.94 739.81;" xml:space="preserve">
<style type="text/css">
	.st0{fill:#1A1A1A;}
</style>
<g>
	<path d="M27.46,273.95c-0.5,0.05-0.73,0.08-0.95,0.1c-0.38-0.53-0.04-0.91,0.22-1.29c1.37-2.06,2.74-4.12,4.11-6.18
		c1.6-2.41,2.92-4.95,3.74-7.73c0.32-1.07,0.67-2.14,1.06-3.18c0.45-1.2,0.63-2.37,0.51-3.7c-0.24-2.54-0.15-5.11-0.23-7.67
		c-0.03-1.02,0.21-2.05-0.24-3.08c-0.16-0.37,0.06-0.93,0.13-1.4c0.1-0.62,0.41-1.23,0.07-1.86c-0.23-0.07-0.46-0.14-0.69-0.22
		c-0.05-0.15-0.17-0.3-0.15-0.44c0.13-0.95,0.39-1.88,0.43-2.83c0.22-5.85,2.29-11.35,3.17-17.07c0.1-0.63,0.33-1.21-0.06-1.84
		c-0.32-0.51-0.16-1.11,0.01-1.63c1.04-3.34,0.91-6.77,0.85-10.19c-0.03-1.59,0.58-3.14,0.27-4.92c-0.68,0.69-0.37,1.9-1.37,2.22
		c-1.35-3.48-1.4-7.69-0.19-15.69c-0.46-0.06-0.59,0.45-0.96,0.59c-0.92-1.13-0.82-2.27-0.3-3.54c1.51-3.69,2.83-7.44,3.93-11.28
		c0.49-1.69,1.39-3.22,2.24-4.76c0.21-0.38,0.68-0.73,0.41-1.29c-0.94,0.07-1.01,1.38-2.04,1.42c-0.38-0.96,0.21-1.56,0.76-2.11
		c0.88-0.88,2.08-1.49,2.06-3.02c0-0.28,0.5-0.57,0.79-0.84c2.25-2.16,4.93-3.72,7.85-5.35c-1.48-0.25-2.68-0.22-4.09,0.84
		c0.74-1.65,0.77-1.58,3.2-2.6c1.2-0.5,2.44-0.65,4.04-0.75c-1.71-1.25-3.45-1.21-5.05-1.52c-0.01-0.66,0.4-0.79,0.78-0.75
		c2.47,0.25,4.72-0.68,7.02-1.27c5.17-1.34,10.41-2.34,15.68-3.17c4.35-0.69,8.54-2.02,12.5-3.91c2.73-1.3,5.03-3.31,6.86-5.77
		c-0.35-0.55-0.76,0.18-1.14-0.2c-0.04-1.13,0.98-1.72,1.5-2.57c0.5-0.81,1.1-1.56,1.68-2.38c0.13-0.55-0.61-0.36-0.73-0.93
		c0.32-1.43,2.07-1.65,2.92-2.73c-0.83-0.82-1.75,0.96-2.52-0.14c0.06-0.19,0.08-0.43,0.17-0.46c2.11-0.83,3.18-2.58,3.99-4.54
		c0.98-2.35,2.28-4.55,2.67-7.15c0.21-1.4,0.13-2.67-0.33-4.08c-1.12-0.94-2.52-0.69-3.82-0.45c-1.08,0.2-2.03,0.16-3.03-0.26
		c-0.51-0.22-1.07-0.42-1.61-0.44c-1.81-0.06-3.21-0.97-4.4-2.17c-1.71-1.72-3.59-3.11-5.86-4.04c-1.62-0.67-3.05-1.7-3.78-3.47
		c-0.27-0.65-0.77-1.19-1.38-1.62c-2.21-1.57-3.28-3.88-3.95-6.39c-0.33-1.24-0.01-2.48,0.83-3.56c1.56-2.02,3.1-4.06,4.58-6.14
		c1.06-1.49,1.91-3.14,3.17-4.5c0.49-0.53,0.96-1.07,1.43-1.61c0.52-0.6,1.56-1.07,1.43-1.82c-0.21-1.23,0.57-2.47-0.22-3.68
		c-0.43-0.65-0.56-1.49-0.87-2.23c-0.98-2.32-0.82-4.64-0.24-7.03c0.26-1.09,0.93-1.82,1.48-2.49c0.27-0.72-0.33-0.97-0.45-1.41
		c-0.09-0.56,0.38-0.84,0.62-1.24c0.74-1.26,1.3-2.56,1.29-4.05c-0.01-1.25,0.5-2.34,1.09-3.38c1.11-1.94,2.3-3.83,3.41-5.77
		c0.97-1.69,1.4-3.5,1.32-5.47c-0.04-0.92-0.55-1.72-0.36-2.73c0.08-0.43,0.04-1.47-0.86-1.78c-0.19-0.07-0.46-0.4-0.43-0.53
		c0.55-1.88-1.34-3.34-0.85-5.27c0.17-0.68-0.29-1.54-0.5-2.3c-0.22-0.78-0.45-1.55,0-2.32c0.26-0.46,0.2-0.96,0.04-1.4
		c-0.39-1.01-0.3-2.06-0.35-3.08c-0.18-3.91-0.2-7.82,0.06-11.73c0.1-1.43,0.37-2.84,0.33-4.29c-0.01-0.46,0.1-0.96,0.27-1.39
		c0.52-1.28,1.47-1.43,2.38-0.42C92.9,0.72,92.96,0.78,93,0.84c1.95,3.25,4.57,5.94,7.18,8.64c2.22,2.3,4.48,4.52,7.17,6.29
		c1.6,1.05,3.16,2.16,4.68,3.32c1.29,0.99,2.57,1.61,4.29,1.8c2.75,0.31,5.46,1.12,8.16,1.8c2.15,0.54,4.24,1.48,6.53,0.54
		c0.31-0.13,0.77,0.11,1.16,0.17c2.26,0.38,4.44-0.25,6.65-0.5c0.15-0.02,0.32-0.1,0.42-0.21c1.03-1.16,2.37-1.05,3.69-0.89
		c1.41,0.17,2.84-0.5,4.24,0.1c0.33,0.14,0.6-0.13,0.86-0.31c1.27-0.88,2.28-1.98,3.03-3.34c1.08-1.95,2.14-3.93,3.49-5.72
		c1.34-1.78,3.29-2.79,5.2-3.7c1.21-0.57,2.73-0.26,3.91,0.5c2.59,1.67,4.76,3.74,5.83,6.76c1.13,3.17,2.13,6.35,2,9.79
		c-0.04,1.09,0.34,2.2,0.52,3.3c0.46,2.79,0.47,5.54-0.51,8.26c-0.33,0.91-0.7,1.78-1.21,2.6c-0.42,0.68-0.84,1.36-1.19,2.08
		c-0.81,1.61-1.08,3.28-0.32,5c0.42,0.95,0.88,1.88,1.24,2.85c0.4,1.08,1.27,2.09,0.6,3.37c-0.19,0.37,0.08,0.59,0.26,0.83
		c0.39,0.5,0.77,1,0.86,1.72c-1.19,0.56-2-0.41-2.95-0.59c-0.54,0.53,0.05,0.87,0.22,1.24c0.76,1.68,1.42,3.39,1.6,5.24
		c0.19,2.02,0.91,3.87,1.75,5.69c0.19,0.42,0.56,0.8,0.23,1.49c-2.13,0.36-2.06-2.13-3.47-2.9c-0.01,1.58,1.49,2.58,1.29,4.11
		c-0.88,0.02-0.93-1.12-1.71-1.07c0.11,1.58,0.23,3.17,0.33,4.75c0.03,0.4,0.13,0.87-0.03,1.19c-1.09,2.2-0.24,4.39,0.07,6.55
		c0.39,2.76,1.03,5.48,1.52,8.23c0.5,2.81,1.85,5.27,3.32,7.64c0.59,0.96,0.7,1.83,0.59,2.73c-0.67,0.48-0.92-0.46-1.51-0.1
		c0.25,0.55,0.5,1.1,0.75,1.66c-0.17,0.06-0.33,0.18-0.41,0.14c-0.8-0.35-1.29-1.19-2.38-1.48c0.42,1.79,1.25,3.35,1.48,5.06
		c0.06,0.47,0.28,0.94,0.26,1.4c-0.15,2.66,0.9,5,1.93,7.34c0.45,1.02,0.96,2,1.2,3.27c-1.71-0.03-2.15-1.69-3.48-2.55
		c0.55,2.18,1.74,3.66,2.82,5.2c0.49,0.7,1.09,1.27,1.31,2.2c0.17,0.7,0.86,1.33,1.45,1.85c1.19,1.05,2.51,1.94,3.57,3.16
		c0.55,0.63,1.48,0.92,2.23,1.37c0.53,0.32,1.23,0.4,1.51,1.06c-0.09,0.58-0.74,0.59-1.02,1.05c2.01,1.89,4.69,2.91,6.57,4.98
		c2.68-0.12,5.31-0.3,7.93-0.34c2.58-0.04,5.17-0.46,7.96-0.36c-0.45,1.09-1.3,0.61-1.74,1.14c1.57,0.87,3.38,0.79,5,1.38
		c0.45,0.45-0.18,0.66-0.23,1.1c2.59,1.01,4.83,2.69,7.34,4c-0.35,0.26-0.59,0.43-0.85,0.62c0.57,0.93,1.55,1.33,2.37,1.93
		c0.63,0.46,1.06,0.92,1.39,1.76c0.49,1.3,1.51,2.43,2.43,3.52c1.92,2.26,3.55,4.71,5.29,7.1c1.64,2.26,3.45,4.39,4.92,6.75
		c-0.56,0.68-0.98-0.29-1.7,0c0.94,1.37,1.86,2.69,2.83,4.1c-1.52,0.47-1.94-1.04-2.91-1.33c-0.09,0.1-0.19,0.18-0.18,0.21
		c2.15,4.28,2.54,9.04,3.64,13.6c0.6,2.49,0.95,5.01,0.83,7.58c-0.09,1.88,0.58,3.61,1.06,5.38c0.15,0.54,0.5,1.07,0.46,1.59
		c-0.22,3.27,1.38,6.03,2.56,8.86c1.17,2.79,2.46,5.55,3.65,8.34c0.6,1.39,1.14,2.8,0.99,4.39c-0.09,1,0.52,1.82,0.99,2.65
		c0.41,0.74,1.03,1.42,0.79,2.53c-0.41-0.28-0.74-0.49-1.12-0.75c-0.02,0.24-0.1,0.48-0.03,0.66c0.71,1.95,1.44,3.89,1.39,6.02
		c-0.01,0.46,0.19,0.93,0.31,1.39c1.33,5.26,2.13,10.62,2.96,15.98c0.64,4.09,1.95,8.05,3.66,11.86c1.11,2.47,2.68,4.68,4,7.02
		c1.03,1.82,2,3.63,2.59,5.63c0.44,1.5,1.18,2.78,2.35,3.82c0.16,0.14,0.23,0.4,0.31,0.54c-0.1,0.49-0.34,0.48-0.71,0.43
		c-0.79-0.09-1.16,0.19-0.99,0.75c0.18,0.61,0.45,1.19,0.7,1.78c0.87,2.08,1.39,4.21,1.15,6.5c-0.18,1.73,0.01,3.48-0.08,5.23
		c-0.06,1.13,0.52,2.32,0.91,3.44c0.88,2.49,1.58,5.01,2.11,7.59c0.08,0.38,0.4,0.84,0.13,1.14c-0.86,0.93-0.66,2.15-0.83,3.29
		c-0.82-0.34-0.66-1.17-1.15-1.58c-0.08,0.1-0.21,0.18-0.24,0.29c-0.64,2.16-0.49,4.42-0.85,6.62c-1.05,6.53-1.26,13.16-2.31,19.7
		c-0.51,3.22-0.64,6.51-0.7,9.78c-0.12,6.55-0.55,13.09-0.39,19.65c0.05,2.07-0.13,4.15-0.21,6.34c-0.99,0.31-1.32,1-1.42,2.09
		c-0.3,3.49-0.71,6.97-1.27,10.43c-0.33,2.04-0.56,4.12-0.57,6.18c-0.01,3.27-0.73,6.5-0.4,9.78c0.1,0.96-0.23,1.92-0.62,2.79
		c-1.19,2.61-2.3,5.27-3.74,7.74c-0.9,1.54-1.91,3.11-3.38,4.27c-0.62,0.49-1.1,1.15-1.64,1.73c0.16,1.31,1.1,2.16,1.57,3.23
		c1.82,4.09,4.31,7.82,6.45,11.74c2.91,5.32,6.05,10.52,8.55,16.06c2.67,5.89,5.48,11.71,8.09,17.62c1.45,3.28,2.54,6.72,3.94,10.02
		c1.3,3.07,2.81,6.06,4.19,9.1c0.24,0.52,0.38,1.05,1.06,1.15c0.48,0.07,0.59,0.55,0.72,0.87c1.36,3.35,3.5,6.27,5.25,9.39
		c0.67,1.19,0.58,2.58,1.45,3.71c1.12,1.44,1.96,3.1,2.92,4.67c0.84,1.36,1.55,2.77,2.04,4.31c0.26,0.82,0.68,1.62,1.13,2.36
		c2.31,3.83,4.57,7.69,7.02,11.43c1.57,2.4,3.27,4.77,5.26,6.82c1.79,1.84,3.27,3.87,4.74,5.94c4.15,5.86,8.33,11.71,13.07,17.13
		c0.31,0.36,0.58,0.8,0.97,1.05c3,1.95,5.26,4.62,7.5,7.34c1.77,2.16,3.62,4.25,5.41,6.4c3.01,3.63,5.36,7.73,8.06,11.35
		c-0.07,1.14-0.54,1.89-0.92,2.68c-0.59,1.2-1.49,1.79-2.88,1.7c-0.87-0.05-1.75,0.1-2.63,0.17c-1.68,0.12-1.81-0.06-3.42-1.51
		c-1.05-0.95-2.33-1.7-3.72-2.07c-0.81-0.21-1.56-0.5-2.1-1.05c-1.97-1.97-4.44-3.42-6.09-5.75c-0.27-0.39-0.62-0.81-1.03-0.99
		c-2.4-1.06-3.55-3.3-5.06-5.22c-1.28-1.63-2.59-3.23-3.95-4.79c-0.74-0.85-1.13-1.91-1.93-2.73c-1.16-1.2-2.18-2.52-3.96-2.85
		c-0.58-0.11-0.94-0.56-1.31-1c-0.92-1.1-1.94-2.13-2.8-3.28c-2.29-3.07-4.61-6.13-6.75-9.31c-1.84-2.73-3.74-5.39-6.19-7.6
		c-2.36-2.12-4.03-4.73-5.63-7.41c-1.11-1.85-2.17-3.73-3.36-5.52c-0.56-0.85-0.8-2.05-2.28-2.13c-0.45-0.03-0.91-1.04-1.26-1.66
		c-0.94-1.67-1.82-3.37-2.71-5.02c-0.44-0.09-0.46,0.38-0.75,0.47c-0.13-0.04-0.35-0.03-0.4-0.11c-1.02-1.7-1.75-3.57-3.42-4.84
		c-0.53-0.41-0.8-1.18-1.15-1.81c-2.16-3.92-4.35-7.82-6.13-11.93c-0.8-1.83-1.79-3.57-2.86-5.26c-3.61-5.75-6.42-11.96-10.23-17.6
		c-1.7-2.51-3.4-5.03-4.77-7.75c-0.43-0.86-0.9-1.7-1.26-2.58c-2.5-6.17-5.61-11.99-9.6-17.34c-1.33-1.79-2.51-3.68-4.1-5.27
		c-0.45-0.44-0.39-1.23-1.21-1.66c-0.06,0.61-0.11,1.16-0.18,1.97c-1.3-0.73-1.91-1.8-2.22-2.99c-0.42-1.59-1.49-2.56-2.89-3.57
		c-2.88,2.38-6.33,3.63-9.8,4.81c-0.37,0.13-0.78,0.18-1.17,0.19c-0.47,0.01-0.94-0.07-1.44-0.11c-0.14-0.43-0.27-0.79-0.42-1.25
		c-0.72-0.22-1.53,0.32-2.27-0.09c-0.79-1.46-0.79-1.46,0.02-3.22c-0.02-0.55-0.52-0.77-0.85-1.08c-0.68-0.66-0.98-1.43-0.91-2.37
		c0.09-1.19-0.17-2.39,0.22-3.57c0.25-0.76,0.02-1.68-0.57-1.94c-1.45-0.63-1.52-1.93-1.9-3.12c-0.07-0.22-0.23-0.4-0.54-0.93
		c-0.32,1.68,0.41,2.97,0.26,4.31c-0.15,1.33,0.13,2.69-0.12,4.04c-0.36,0.15-0.31-0.24-0.63-0.43c-1.18,1.75-1.26,3.75-0.99,5.68
		c0.37,2.55,0.51,5.09,0.39,7.64c-0.12,2.42,0.4,4.74,0.67,7.11c0.09,0.8,0.26,1.61,0.13,2.38c-0.53,3.18-0.25,6.38-0.28,9.57
		c-0.03,3.91-0.7,7.79-0.51,11.72c0.1,2.07,0.29,4.15,0.32,6.21c0.03,2.43-0.14,4.96-1.22,7.22c-0.29,0.61-0.44,1.06-0.37,1.73
		c0.18,1.73,0.25,3.48,0.39,5.68c-1.55-2.17-0.73-4.56-2.11-6.56c-0.53,1.12-0.38,2.06-0.27,2.95c0.51,4.08,0.38,8.12-0.7,12.1
		c-0.27,0.99-0.74,1.94-1.2,2.87c-0.54,1.09-0.96,2.22-1.03,3.42c-0.07,1.14-0.32,2.24-0.69,3.27c-0.76,2.11-1.1,4.32-1.64,6.53
		c1.9,4.01,4.09,7.9,6.94,11.37c2.22,2.71,4.56,5.33,6.81,8.02c0.72,0.86,1.92,1.48,1.55,2.96c-0.05,0.2,0.32,0.52,0.53,0.76
		c1.37,1.55,2.78,3.08,4.13,4.66c0.48,0.56,1.18,1.09,0.95,2.02c-0.83,0.12-1.1-0.76-1.77-0.75c-0.22,0.21-0.13,0.45,0.01,0.63
		c1.38,1.77,2.37,3.75,3.21,5.69c-0.2,0.65-0.72,0.44-1.04,0.63c-0.04,0.14-0.14,0.31-0.1,0.43c0.72,1.91,0.66,3.89,0.63,5.9
		c-0.05,3.43-0.03,6.86-0.79,10.24c-0.1,0.46-0.15,0.98-0.03,1.43c0.64,2.52-0.21,4.9-0.7,7.29c-0.98,4.84-2.08,9.66-3.18,14.49
		c-0.3,1.32-0.65,2.64-1.13,3.91c-1.21,3.21-1.61,6.48-0.94,9.86c0.23,1.17,0.29,2.37,0.44,3.55c0.41,3.3,2.04,6.01,3.77,8.7
		c1.34,2.08,2.97,3.96,4.2,6.13c1.14,2.03,2.09,4.13,2.98,6.27c0.43,1.03,0.63,2.13,0.82,3.24c0.37,2.12,0.35,4.28,0.71,6.41
		c0.35,2.05-0.13,4.14-0.46,6.18c-0.68,4.25-1.57,8.46-2.11,12.73c-0.24,1.86,0.13,3.8,0.27,5.7c0.34,4.53,0.52,9.08,1.13,13.58
		c0.68,4.97,0.63,10.02,1.68,14.96c0.71,3.36,1.72,6.63,2.62,9.94c0.1,0.38,0.31,0.76,0.33,1.14c0.22,3.96,1.94,7.36,4.02,10.61
		c1.76,2.76,3.3,5.66,5.24,8.31c0.41,0.56,0.74,1.29,0.81,1.97c0.2,1.96,1.03,3.68,1.9,5.38c0.48,0.95,0.97,2.02,0.5,2.98
		c-0.45,0.94,0.16,1.51,0.27,2.25c-0.43,0.81-1.16,1.25-1.9,1.74c-1.41,0.92-2.94,1.6-4.4,2.43c-1.3,0.74-2.65,1.06-4.12,1.04
		c-0.71-0.01-1.43-0.1-2.1,0.31c-3.35,2.08-7.2,2.39-10.96,3.04c-3.73,0.65-7.47,0.49-11.23,0.35c-2-0.08-4-0.04-6-0.02
		c-3.01,0.03-5.84-0.55-8.52-2c-1.11-0.6-2.37-0.96-3.59-1.3c-1.31-0.36-2.68-0.51-3.63-1.64c-0.24-0.29-0.56-0.29-0.87-0.16
		c-0.59,0.25-1.12,0-1.6-0.24c-3.15-1.54-6.28-3.11-9.2-5.07c-0.43-0.29-0.7-0.69-0.74-1.17c-0.07-0.71-0.33-1.39-0.18-2.13
		c0.09-0.47,0.23-0.99,0.1-1.43c-0.83-2.92,0.5-5.06,2.17-7.31c1.75-2.36,3.8-4.5,5.2-7.15c0.82-1.54,2.11-2.8,3.65-3.72
		c0.87-0.52,1.43-1.26,1.82-2.16c0.85-1.98,1.6-4.01,2.56-5.93c1.39-2.79,1.63-5.8,1.92-8.81c0.31-3.17,0.7-6.34,0.8-9.52
		c0.14-4.38,0.72-8.77-0.18-13.14c-0.19-0.93-0.1-1.91-0.21-2.86c-0.47-3.79-0.97-7.58-1.47-11.37c-0.04-0.31-0.12-0.65-0.29-0.9
		c-1.04-1.54-1.16-3.27-1.12-5.06c0.02-0.85,0.22-1.8-0.86-2.25c-0.06-0.03-0.14-0.12-0.14-0.18c-0.01-2.19-1.46-4.22-0.82-6.44
		c0.82-2.86,0.96-5.82,1.46-8.72c0.37-2.12,0.53-4.26,0.53-6.42c0-1.29,0.01-2.55-1.03-3.56c-0.32-0.31-0.45-0.84-0.61-1.29
		c-0.67-1.88-1.47-3.73-1.96-5.66c-1.2-4.69-3.24-8.98-5.81-13.06c-1.27-2.02-2.51-4.08-3.56-6.22c-1.64-3.32-3.87-6.22-6.04-9.18
		c-0.99-1.34-2-2.7-2.34-4.4c-0.09-0.46-0.37-0.88-0.58-1.31c-1.26-2.49-2.54-4.99-3.8-7.48c-0.34-0.66-0.37-1.57-1.58-1.35
		c-0.42,0.08-0.66-0.63-0.82-1.08c-0.84-2.29-1.71-4.56-2.46-6.88c-0.39-1.2-0.64-2.46-0.64-3.76c0-0.93-0.12-1.89-1.16-2.44
		c-0.8-0.43-0.76-1.34-0.87-2.12c-0.48-3.58-0.2-7.12,0.32-10.7c0.48-3.31,1.01-6.61,1.56-9.92c0.13-0.79,0.54-1.5,0.53-2.45
		c-1.16-1.05-1.62-2.56-2-4.09c-2.38-1-2.53-1.24-3.33-5.34c-0.78,0.26-0.16,1.48-1.12,1.55c-1.14-1.92,0.2-4.13-0.55-6.2
		c-0.86,0.21-1,0.83-1.13,1.44c-0.12,0.59-0.01,1.29-0.83,1.73c-0.33-1.34-0.16-2.6-0.22-3.84c-0.08-1.58-0.06-3.16-0.19-4.74
		c-0.27-3.3-1.69-6.29-2.68-9.4c-1.05-3.28-2.74-6.28-4.1-9.42c-1.36-3.16-2.42-6.42-3.41-9.71c-0.23-0.76-0.48-1.51-0.76-2.4
		c-0.76,1.27,0,2.53-0.38,3.9c-1.69-2.02-1.21-4.39-1.55-6.76c-1.15,1-0.27,2.33-1.1,3.43c-0.23-1.45-0.55-2.69-0.61-3.93
		c-0.2-3.98-0.62-7.95-0.48-11.94c0.13-3.46-0.51-6.84-1.09-10.2c-0.32-1.89-1.49-3.64-2.28-5.44c-0.01-0.03-0.15-0.01-0.41-0.03
		c0.13,2.17-0.37,4.36,1.12,6.71c-1.39-0.75-1.39-0.75-2.83-3.65c-0.87,0.58-1.06,1.45-1.23,2.35c-0.28,1.49-0.63,2.96-0.91,4.45
		c-0.18,0.96-0.58,1.82-1.21,2.65c-0.38-0.51,0.03-1.23-0.51-1.73c-1.46,1.78-1.53,4.32-3.28,5.97c0.63-3.64,0.94-7.27,0.77-10.94
		c-0.39,2.74-0.77,5.48-1.18,8.21c-0.18,1.19-0.5,2.34-1.02,3.43c-0.17,0.35-0.34,0.74-1.06,0.71c-0.68-1.9-0.17-3.96-0.36-6.12
		c-0.47,0.52-0.62,0.98-0.75,1.49c-0.74,2.93-1.45,5.83-3.01,8.51c-0.85,1.46-1.04,3.32-1.45,5.02c-0.22,0.93-0.34,1.89-0.91,2.69
		c-0.44,0.61-0.5,1.34-0.7,2.02c-1.23,4.28-2.15,8.63-2.72,13.19c-1.15-0.56-0.72-1.88-1.67-2.44c-0.29,1.75,0.13,3.56-0.27,5.3
		c-0.69,0.09-0.87-0.39-0.9-0.83c-0.07-1.27-0.55-2.47-0.31-4.18c-0.83,0.94-0.91,1.64-1.08,2.3c-0.79,3.11-1.9,6.11-3.4,8.93
		c-0.82,1.54-1.75,3.01-2.25,4.7c-0.57,1.9-1.14,3.8-1.75,5.82c1.36,1.1,2.62,2.19,3.96,3.19c1.09,0.81,2.21,1.59,3.1,2.63
		c2.45,2.89,5.66,4.91,8.46,7.4c2.98,2.65,6.26,4.97,8.78,8.12c0.5,0.62,1.08,1.17,1.08,2.03c-0.33,0.39-0.68,0.4-1.05,0.11
		c-0.43-0.34-0.85-0.69-1.46-1.2c0.05,1.22,0.56,2.01,1.09,2.78c0.96,1.39,1.87,2.79,1.65,4.62c-0.05,0.37,0.1,0.8,0.26,1.16
		c1.26,2.85,1.57,5.95,2.45,8.91c0.26,0.89,0.56,1.63,0.02,2.67c-0.35,0.67,0.23,1.82,0.38,2.76c0.13,0.87,0.28,1.73,0.33,2.61
		c0.06,0.95,0.01,1.9,0.01,2.83c-0.79,0.18-0.53-0.5-0.91-0.68c-0.21,1.44-0.53,2.91-0.61,4.38c-0.12,2.09-0.5,4.09-1.6,5.9
		c-0.12,0.2-0.22,0.43-0.25,0.66c-0.54,3.3-1.36,6.56-0.76,9.96c0.24,1.33,0.11,2.71,0.22,4.06c0.25,3.02,0.43,6.04,0.42,9.08
		c-0.01,2.89,0.59,5.7,1.52,8.44c0.94,2.8,1.92,5.58,2.75,8.42c0.8,2.73,2.17,5.15,3.7,7.49c1.17,1.79,2.06,3.8,3.79,5.21
		c0.49,0.4,0.61,1.11,0.71,1.75c0.13,0.79,0.24,1.61,0.7,2.27c0.59,0.84-0.45,1.28-0.39,1.91c0.06,0.69,0.92,1.4,0.54,2.01
		c-1.12,1.77-0.78,3.64-0.74,5.52c0.01,0.41-0.2,0.74-0.42,1.09c-3.01,4.8-6.08,9.56-8.97,14.44c-1.75,2.95-3.59,5.87-5.15,8.92
		c-1.66,3.26-2.9,6.74-4.27,10.14c-1.25,3.11-2.58,6.17-4.13,9.15c-2.84,5.46-4.91,11.26-7.14,16.98c-0.2,0.51-0.19,1.1-0.29,1.64
		c-0.09,0.47-0.06,1.05-0.34,1.37c-1.27,1.45-1.46,3.31-2.11,5.17c-0.95-0.28-1.55-0.89-2.1-1.81c-0.11,0.46-0.23,0.81-0.26,1.17
		c-0.17,2.02-1.42,3.49-2.49,5.06c-0.38,0.57-0.96,0.79-1.57,1.02c-1.87,0.7-3.73,1.41-5.58,2.18c-0.98,0.4-2,0.67-3.02,0.6
		c-1.62-0.12-3.14,0.26-4.71,0.47c-2.04,0.27-4.12,0.26-6.16,0.58c-0.96,0.15-1.92-0.05-2.8-0.48c-0.95-0.46-1.79-0.38-2.72,0.16
		c-1.71,1-3.69,0.88-5.57,1.21c-0.46,0.08-0.93,0.03-1.39,0.26c-1.3,0.68-2.64,0.51-3.92-0.06c-0.89-0.39-1.78-0.7-2.76-0.67
		c-1.72,0.05-3.34-0.42-4.85-1.16c-1.2-0.59-2.39-0.81-3.7-0.77c-2.21,0.08-4.25-0.57-6.19-1.6c-1.68-0.89-2.93-2.19-3.79-3.88
		c-0.18-0.35-0.21-0.9-0.49-1.06c-1.42-0.82-1.1-1.99-0.7-3.15c0.49-1.43,0.94-2.87,1.82-4.15c2.57-3.75,5.12-7.52,8.15-10.92
		c1.7-1.91,3.65-3.58,6.21-4.32c0.15-0.04,0.35-0.03,0.46-0.12c2.87-2.51,6.6-2.95,10.02-4.14c1.65-0.57,3.35-1.04,5.04-1.47
		c1.21-0.31,2.01-0.9,2.6-1.89c1.69-2.8,3.52-5.52,5-8.43c1.74-3.41,3.59-6.76,5.47-10.09c1.72-3.06,3.24-6.23,4.86-9.35
		c0.44-0.85,0.84-1.73,1.36-2.53c2.37-3.63,3.44-7.7,4.11-11.9c0.1-0.63,0.09-1.27,0.09-1.91c0.01-2.88-0.02-5.76,0.01-8.64
		c0.03-2.58-0.37-5.09-1.08-7.56c-1.62-5.67-3.45-11.28-5.2-16.92c-3.02-9.68-6.51-19.2-10.46-28.52
		c-3.18-7.49-6.54-14.92-9.93-22.32c-1.26-2.76-2.53-5.52-3.42-8.43c-1.51-5-3.72-9.68-6.36-14.16c-0.49-0.82-0.91-1.68-1.34-2.54
		c-0.78-1.55-1.43-3.14-2.78-4.38c-1.04-0.96-1.68-2.32-2.18-3.68c-0.36-0.96-0.72-1.91-1.11-2.96c-0.7,1.32,0.13,2.61-0.33,4.01
		c-1.19-1.21-1.21-2.77-1.71-4.1c-0.5-1.32-0.78-2.73-0.73-4.04c-0.85-0.34-0.67,0.43-1.03,0.5c-0.1-0.11-0.28-0.22-0.28-0.34
		c-0.02-0.8,0.01-1.59,0.01-2.39c0-0.56,0.15-1.18-0.04-1.66c-0.66-1.57-0.39-3.12-0.12-4.7c0.38-2.2,0.71-4.4,1.01-6.61
		c0.07-0.53,0.37-1.13-0.06-1.61c-0.51-0.55-0.29-1.19-0.37-1.8c-0.31-2.43,0.11-4.9-0.31-7.33c-0.11-0.62-0.13-1.3-0.01-1.91
		c0.72-3.65,0.39-7.34,0.45-11.01c0.06-3.43,0.3-6.84,0.75-10.25c0.23-1.73,0.2-3.51,0.2-5.27c0.01-4.07-0.06-8.15,0.35-12.2
		c0.32-3.17,0.7-6.34,1.16-9.49c0.12-0.81,0.23-1.61-0.05-2.34c-0.64-1.67-0.2-3.27,0.02-4.93c0.56-4.13,1.93-8.06,2.88-12.09
		c1.7-7.22,3.93-14.31,5.86-21.47c1.5-5.55,3.22-11.02,4.97-16.49c1.29-4.02,2.65-8.03,3.88-12.07c0.67-2.21,1.47-4.45,1.62-6.72
		c0.19-2.75,1.14-5.25,1.74-7.86c0.68-2.96,0.84-5.95,0.58-8.98c-0.21-2.46-0.35-4.93-0.84-7.36c-0.16-0.77-0.05-1.59-0.08-2.39
		c-0.02-0.64-0.04-1.28-0.07-1.92c-0.05-0.97-0.99-1.66-0.82-2.7c0.58-3.45,0.13-6.99,1.17-10.41c1.38-4.51,1.97-9.2,2.87-13.81
		c0.56-2.85,0.62-5.84-0.39-8.71c-0.58-1.64-0.8-3.41-1.55-4.96c-0.81-0.23-1.12,0.14-1.21,0.78c-0.16,1.14-0.16,2.25-1.24,3.16
		c-0.55,0.47-0.55,1.62-0.75,2.47c-0.2,0.85-0.32,1.72-0.5,2.58c-0.07,0.3-0.18,0.77-0.36,0.82c-1.55,0.45-1.4,1.99-1.98,3.04
		c-0.64,1.14-0.73,2.65-2.33,3.08c-0.22,0.06-0.33,0.51-0.52,0.76c-1.67,2.31-3.04,4.82-5.11,6.88c-1.53,1.53-3.06,3.23-3.52,5.56
		c-0.13,0.65-0.66,1.28-1.14,1.8c-2.04,2.26-3.92,4.64-5.5,7.23c-0.95,1.56-1.93,3.19-2.41,4.92c-0.55,1.98-0.29,4.12,0.14,6.15
		c0.26,1.24,0.79,2.39,1.32,3.56c1.86,4.06,4.25,7.83,6.51,11.64c-0.3,0.35-0.5,0.58-0.7,0.81c0.02,0.15,0,0.31,0.05,0.44
		c0.38,0.97,0.49,1.89,0.39,2.99c-0.22,2.21-0.27,4.46,0.08,6.69c0.3,1.91,0.08,3.83,0.13,5.75c0.01,0.51-0.16,0.94-0.55,1.28
		c-0.98,0.87-1.21,2.02-1.21,3.26c0,1.68-0.12,3.37,0.04,5.04c0.34,3.47-0.8,6.57-2.21,9.62c-0.37,0.8-1.01,1.44-1.7,2
		c-0.41,0.33-0.87,0.3-1.36,0.16c-0.68-1.51,0.92-2.97-0.02-4.53c-0.88,0.09-1.79,0.43-2.74,0.36c-0.94-0.07-1.7-0.36-2.18-1.22
		c-0.77-1.4-1.56-2.79-2.34-4.18c-0.41-0.72-0.67-1.55-0.43-2.31c0.66-2.02-0.15-3.95-0.28-5.91c-0.11-1.69-0.21-3.31,0.11-4.98
		c0.35-1.8-0.16-2.56-2.07-3.41c-3.19,2.78-4.08,5.74-4.63,8.92c-0.23,1.34-0.49,2.66-0.99,3.93c-0.09,0.22-0.31,0.48-0.26,0.66
		c0.49,1.67-0.44,2.84-1.21,4.17c-0.81,1.4-2.03,2.21-3.34,2.99c-0.27,0.16-0.52,0.35-0.76,0.52c0,1.01,0,1.95,0,2.86
		c0.13,0.08,0.19,0.15,0.26,0.16c2.71,0.51,4.87,1.94,6.57,4.06c0.93,1.16,2.2,1.52,3.56,1.72c0.71,0.1,1.46,0.03,1.87,0.91
		c-0.7,1.33-1.89,2.25-3.27,3.18c0.72,1.23,1.77,2.24,1.9,3.62c1.35,0.08,1.81-1.35,2.97-1.21c0.56,0.34,0.7,0.88,0.49,1.44
		c-0.58,1.58-1.3,3.1-2.66,4.18c-0.71,0.56-1.53,0.84-2.44,0.85c-0.63,0.01-1.29-0.07-1.83,0.38c0.09,3.18-0.54,4.34-1.87,6.16
		c1.02,0.47,2.06,0.75,3.13,0.78c0.99,0.03,1.66,0.43,2.05,1.32c-0.9,1.55-1.73,2.06-3.2,1.75c-2.25-0.48-4.63-0.44-6.68-1.69
		c-0.07-0.04-0.15-0.05-0.23-0.08c-0.8-0.36-1.75,0.3-2.51-0.42c-0.57-0.55-1.15-1.11-2.01-1.43c-1.06,0.32-2.09,0.94-3.38,1.03
		c-0.38,2.07,0.9,3.68,1.44,5.46c-2.02,0.43-3.82-0.25-4.73-1.91c-0.6-1.11-1.23-2.33-1.38-3.55c-0.27-2.28-1.31-4.38-1.36-6.73
		c-0.03-1.42-0.71-2.79-1.51-3.99c-0.86-1.31-1.19-2.89-2.44-4.03c-0.53-0.49-0.46-1.63-0.69-2.46c-1.15-4.05-0.74-8.23-0.88-12.35
		c-0.07-1.96,0.44-3.95,0.75-5.92c0.14-0.87,0.37-1.72,0.17-2.61c-0.69-3.04,0.1-5.85,1.66-8.38c1.53-2.48,2.59-5.13,3.46-7.86
		c1.55-4.86,3-9.76,4.43-14.66c0.22-0.74,0.88-1.73,0.39-2.27c-1.22-1.34-0.27-2.34,0.23-3.41c0.45-0.97,0.51-2.02,0.61-3.02
		c0.04-0.44-0.77-0.92-0.51-1.65c0.24-0.67,0.36-1.4,0.67-2.04c2.1-4.44,3.21-9.18,4.36-13.91c1.32-5.43,2.63-10.85,4.33-16.18
		c1.16-3.66,1.75-7.45,2.39-11.22c0.67-3.94,1.51-7.83,2.42-11.71c0.29-1.24,0.82-2.48,0.61-3.76c-0.15-0.94,1.14-1.34,0.62-2.39
		C26.16,275.76,26.99,275.01,27.46,273.95z M202.89,237.32c0.34-0.83,0.26-1.68,0.12-2.53c-0.05-0.31-0.17-0.63-0.74-0.33
		c0.32,0.89,0.13,1.92,0.67,2.81c-0.41,0.41-0.68,0.18-0.93-0.2c-0.58-0.84-0.75-1.94-1.73-2.74c0.04,2.83,1.09,5.41,1.06,8.42
		c-1.5-1.8-1.8-3.81-2.9-5.98c-0.1,2.09-0.02,3.68-0.3,5.2c-0.27,1.5-0.06,3.24-1.41,4.37c-0.65-0.01-0.29-0.73-0.78-0.87
		c-1.32,2.87-1.01,6.46-3.75,8.91c-0.34-0.7-0.62-1.27-0.97-1.98c-0.51,1.42-0.87,2.65-1.39,3.81c-0.46,1.02-0.72,2.32-2.25,2.41
		c-0.16,0.01-0.34,0.27-0.46,0.45c-2.71,4.04-5.26,8.16-6.41,12.99c-0.08,0.32,0.01,0.94-0.59,1.05c-0.51-0.96,0.24-2.19-0.83-2.97
		c-0.19,1.24-0.34,2.42-0.55,3.59c-0.55,3.08,0.05,6.22-0.51,9.3c0.75,3.17,0.94,6.49,2.68,9.38c0.45,0.75,0.79,1.57,1.17,2.36
		c0.21,0.43,0.43,0.87,0.14,1.39c-0.22-0.02-0.46-0.02-0.68-0.08c-0.28-0.08-0.54-0.31-0.8,0.02c0.32,0.73,0.13,0.73,0.1,2.12
		c-0.03,1.57-0.1,3.19,0.63,4.69c0.84,1.72,1.66,3.45,2.47,5.19c1.64,3.55,3.79,6.84,5.17,10.52c0.19,0.51,0.59,0.94,0.89,1.4
		c0.2,0.3,0.66,0.52,0.3,1.03c-1.01-0.44-1.47-1.56-2.79-2.23c0.67,1.6,1.34,2.84,2.11,4.01c0.8,1.22,1.25,2.58,1.79,3.91
		c0.32,0.8-0.65,0.75-0.78,1.37c0.75,1.32,1.32,2.89,1.32,4.44c0,2.02,0.47,3.95,0.7,5.92c0.15,1.27,0.36,2.53,0.37,3.8
		c0.01,2.32,0.39,4.6,0.71,6.88c0.24,1.69,0.88,3.07,1.93,4.49c4.38,5.91,9.28,11.37,13.9,17.07c0.39,0.49,0.78,1.01,1.52,1.23
		c0.81-0.96,1.7-1.86,1.09-3.34c-0.24-0.58,0.03-1.07,0.48-1.49c0.39-0.36,1.03-0.48,1.13-1.13c-0.13-0.29-0.26-0.56-0.38-0.84
		c1.09-0.35,0.71-1.66,1.48-2.24c0.77-0.59,1.65-0.97,2.52-1.36c1.52-0.68,2.92-1.67,4.69-1.69c0.36,0,0.74-0.28,1.08-0.49
		c1.16-0.7,2.26-1.53,3.47-2.11c2.2-1.05,2.99-2.77,2.7-5.08c-0.24-1.9-0.31-3.81-0.34-5.72c-0.02-1.19-0.1-2.39-0.24-3.58
		c-0.37-3.24-0.81-6.46-1.19-9.7c-0.33-2.87-0.89-5.65-2.17-8.29c-0.73-1.5-1.22-3.12-1.71-4.72c-1.17-3.81-2.27-7.65-3.4-11.47
		c-0.14-0.46-0.18-1.01-0.47-1.34c-1.35-1.51-1.22-3.36-1.35-5.16c-0.04-0.55,0.08-1.21-0.18-1.64c-0.54-0.9-0.44-1.84-0.46-2.78
		c-0.02-1.19,0.15-2.39-0.62-3.47c-0.33-0.46-0.13-1.06-0.02-1.62c0.95-4.68,1.84-9.38,2.79-14.06c0.16-0.79,0.4-1.55,0.12-2.34
		c-0.5-1.44-0.56-2.95-0.67-4.45c-0.13-1.85-0.63-3.57-1.38-5.28c-0.88-2-2.4-3.57-3.36-5.5c-0.61-1.22-1.35-2.33-2.23-3.39
		c-0.85-1.02-1.84-2.03-1.79-3.55c0.02-0.49-0.31-0.88-0.65-1.24c-1.84-1.93-3.03-4.28-4.13-6.65c-1.14-2.47-1.93-5.06-2.4-7.75
		C203.44,238.03,203.5,237.49,202.89,237.32z"/>
	<path class="st0" d="M273.74,505.75c-1.03-1.82-2.32-3.4-3.57-5.02c-1.45-1.87-2.44-4.11-3.54-6.24c-1.07-2.05-1.99-4.18-3.04-6.25
		c-0.98-1.92-1.98-3.84-3.09-5.68c-2.31-3.83-4.42-7.77-6.58-11.69c-1.35-2.45-2.85-4.82-4.46-7.1c-2.51-3.55-4.45-7.37-6.12-11.35
		c-2.08-4.96-4.77-9.57-7.86-13.96c-1.83-2.59-3.75-5.12-5.64-7.68c-0.19-0.26-0.41-0.48-0.71-0.49c-0.7,0-0.59,0.72-1.01,0.99
		c-0.17-0.15-0.44-0.27-0.5-0.46c-0.42-1.47-1.15-2.82-2.1-3.95c-1.07-1.28-1.73-2.84-2.76-4.04c-0.98-1.14-2.44-1.96-3.67-3.04
		c-0.45,0.97-0.22,2.02-0.86,2.79c-0.91-0.53-1.18-1.65-1.98-2.4c-0.68,1.24,0.33,2.28,0.06,3.35c-0.69-0.11-0.85-0.7-1.11-1.17
		c-2.04-3.74-4.91-6.87-7.46-10.23c-0.43-0.57-0.88-1.13-1.32-1.7c-0.63-0.82-1.23-1.63-2.44-1.72c-0.71-0.06-1.31-0.57-1.87-1.03
		c-3.37-2.81-6.8-5.56-10.06-8.49c-1.71-1.54-3.14-3.39-4.67-5.12c-0.85-0.96-1.64-1.96-2.46-2.94c-0.36-0.44-0.8-0.77-1.5-1.03
		c0.63,3.62,2.22,6.86,3.19,10.36c-1.08-0.79-1.14-0.77-1.35-1.36c-0.34-0.92-0.86-1.76-1.53-2.41c-3.24-3.17-5.35-7.14-7.81-10.85
		c-0.26-0.39-0.52-0.77-0.95-1.09c0.21,3.76,0.61,7.45,1.71,11.36c-1.26-0.79-1.32-1.91-1.72-2.83c-0.44-1.03-0.86-2.07-1.29-3.1
		c-0.4-0.96-0.78-1.92-1.22-2.87c-0.46-0.99-0.47-2.17-1.31-3.06c-0.91,4.17,0.26,8.05,1.42,11.94c-0.8,0.29-0.93-0.41-1.07-0.68
		c-1.41-2.77-2.77-5.56-3.44-8.64c-0.32-1.48-0.72-2.94-1.08-4.42c-0.71,0.05-0.7,0.56-0.8,0.98c-0.43,1.78-0.81,3.58-1.31,5.34
		c-0.2,0.72-0.26,1.56-1.1,2.24c-0.39-3.03,0.13-5.93-0.29-9.26c-0.98,1.8-1.43,3.31-1.73,4.84c-0.32,1.67-1.19,3.03-2.22,4.7
		c-0.34-1.18-0.24-2.03-0.17-2.87c0.15-1.92,0.14-3.83,0.01-5.75c-0.04-0.56-0.13-1.13-0.06-1.67c0.4-3.13-0.15-6.21-0.42-9.3
		c-0.1-1.16-0.65-2.12-1.08-3.14c-0.85-1.99-2.31-3.62-3.3-5.54c-0.13-0.26-0.48-0.48-0.14-0.89c2.15,1.13,3.38,3.27,5.13,4.84
		c0.55-0.52,0.02-0.9-0.14-1.25c-0.99-2.26-2.03-4.51-3.05-6.76c-0.1-0.22-0.15-0.47-0.3-0.64c-2.5-2.93-3.87-6.6-6.38-9.53
		c-0.72-0.84-1.23-1.87-1.7-2.88c-0.51-1.08-1.24-1.82-2.34-2.27c-0.72-0.3-1.53-0.53-1.89-1.56c1.12-5.28,4.05-9.52,8.5-12.69
		c2.87-2.04,5.69-4.12,8.26-6.53c1.2-1.13,2.08-1.06,3.51,0.09c0.19,0.15,0.36,0.35,0.58,0.43c2.17,0.79,3.48,2.69,5.21,4.06
		c1.06,0.84,1.99,1.84,2.53,3.14c0.8,1.92,2.07,3.33,4.08,4.13c1.56,0.63,2.84,1.77,3.98,3.03c3.79,4.21,7.75,8.27,11.43,12.59
		c0.7,0.82,1.4,1.7,2.57,2.05c0.66,0.2,1.1,0.89,1.53,1.48c3.73,5.09,7.78,9.92,11.91,14.69c1.2,1.39,2.44,2.76,3.12,4.51
		c0.39,0.99,1.08,1.77,1.78,2.52c1.8,1.93,3.59,3.86,5.48,5.7c2.29,2.24,4.24,4.77,6.38,7.13c2.04,2.25,4.07,4.51,6.2,6.66
		c3.09,3.13,5.76,6.63,8.66,9.92c1.53,1.74,2.84,3.69,4.51,5.27c1.59,1.51,2.58,3.31,3.45,5.22c1.32,2.91,3.07,5.59,4.66,8.35
		c5.27,9.14,10.28,18.4,14.3,28.16c0.06,0.15,0.12,0.3,0.19,0.44c2.95,5.51,4.72,11.51,7.29,17.18c1.38,3.04,2.52,6.2,4.17,9.12
		c0.2,0.35,0.31,0.85,0.61,1.01c1.34,0.7,1.72,2.05,2.27,3.26c0.84,1.83,2.1,3.39,3.06,5.14c0.58,1.04,1.11,2.06,1.41,3.25
		c0.37,1.47,1.34,2.71,2.13,4c1.12,1.84,2.46,3.56,3.25,5.58c2.28,5.85,5.84,10.98,9.32,16.11c1.76,2.59,3.57,5.26,6.02,7.39
		c1.11,0.97,1.84,2.39,2.72,3.62c3.76,5.26,7.34,10.65,11.64,15.51c0.58,0.66,1.09,1.37,1.62,2.07c0.78,1.02,1.71,1.84,2.77,2.6
		c2.63,1.87,4.6,4.42,6.66,6.85c1.34,1.58,2.67,3.18,4,4.77c1.69,2.02,3.33,4.07,4.71,6.33c1.08,1.77,2.41,3.38,3.54,5.12
		c1.16,1.78-0.16,4.44-2.28,4.65c-0.95,0.09-1.91,0.14-2.87,0.16c-1.11,0.03-1.94-0.2-2.85-1.18c-1.13-1.22-2.79-2.1-4.51-2.55
		c-0.65-0.17-1.27-0.4-1.68-0.83c-1.88-1.95-4.32-3.31-5.92-5.58c-0.49-0.69-1.13-1.29-2.02-1.62c-0.91-0.33-1.47-1.19-2.06-1.94
		c-3-3.83-6.01-7.65-9.03-11.46c-0.6-0.76-1.28-1.39-2.33-1.52c-0.92-0.11-1.49-0.74-2.09-1.44c-3.72-4.39-7.12-9.01-10.3-13.81
		c-1.41-2.13-3.03-4.12-4.96-5.83c-2.43-2.15-4.17-4.82-5.8-7.58c-1.33-2.27-2.73-4.51-4.12-6.75c-0.41-0.66-0.77-1.34-1.74-1.46
		c-0.66-0.08-0.91-0.84-1.21-1.39c-0.8-1.47-1.61-2.94-2.35-4.45C275.21,505.89,274.68,505.5,273.74,505.75z"/>
</g>
</svg>
