<?xml version="1.0" encoding="utf-8"?>
<!-- Generator: Adobe Illustrator 24.0.2, SVG Export Plug-In . SVG Version: 6.00 Build 0)  -->
<svg version="1.1" id="Layer_1" xmlns="http://www.w3.org/2000/svg" xmlns:xlink="http://www.w3.org/1999/xlink" x="0px" y="0px"
	 viewBox="0 0 344.57 745.93" style="enable-background:new 0 0 344.57 745.93;" xml:space="preserve">
<style type="text/css">
	.st0{fill:#1A1A1A;}
</style>
<g>
	<path d="M165.34,734.43c-0.55,1.44-1.34,2.53-2.39,3.41c-2.15,1.79-4.31,3.56-6.48,5.31c-0.55,0.44-1.12,0.9-1.86,1.04
		c-3.17,0.61-6.32,0.78-9.56-0.48c-0.91,0.29-1.82,0.94-2.75,1.56c-0.62,0.41-1.27,0.68-2.01,0.66c-2.85-0.11-5.71-0.05-8.52-0.72
		c-1.24-0.3-2.5-0.52-3.73-0.85c-1.47-0.39-2.89-0.95-4.12-1.88c-0.98-0.74-1.89-1.52-1.64-2.89c-0.87-0.5-1.61-0.24-2.36,0.07
		c-3.53,1.43-6.37,0.26-8.82-2.35c-0.49-0.52-1.01-1.03-1.49-1.56c-0.63-0.71-1.3-1.35-2.32-1.52c0.19-0.41,0.31-0.69,0.44-0.97
		c-0.2-0.43-0.73-0.15-1.07-0.53c-0.13-0.65-0.18-1.44-0.63-2.1c0.67-1.05-0.14-2.1,0-3.13c0.15-1.11,0.76-2.09,1.22-3.11
		c0.56-1.23,1.1-2.48,1.26-3.86c0.12-1.05,0.49-2.03,1.19-2.83c0.9-1.04,1.59-2.22,2.19-3.42c1.4-2.78,3.39-5.21,4.65-8.07
		c0.99-2.27,2.07-4.46,2.12-7.04c0.02-1.16,0.52-2.33,0.89-3.46c1.21-3.73,1.93-7.56,2.64-11.4c0.09-0.47,0.11-0.95,0.11-1.43
		c0.04-4.32,0.83-8.57,1.21-12.85c0.08-0.87,0.2-1.74,0.19-2.61c-0.05-3.52,0.62-6.99,0.8-10.5c0.05-1.03,0.19-2.06,0.03-3.07
		c-0.68-4.25-1.48-8.48-2.07-12.74c-0.45-3.25-0.29-6.53,0.15-9.79c0.07-0.55,0.3-1.12,0.24-1.65c-0.31-2.79,1.05-5.1,2.08-7.5
		c1.43-3.33,3.66-6.17,5.75-9.1c2.41-3.38,3.91-7.1,4.17-11.29c0.05-0.79,0.18-1.58,0.29-2.37c0.33-2.42,0.06-4.85-0.7-7.09
		c-1.74-5.08-2.82-10.3-3.85-15.54c-0.54-2.74-1.12-5.47-1.68-8.21c-0.08-0.39-0.3-0.82-0.2-1.16c0.74-2.74-0.23-5.37-0.46-8.04
		c-0.14-1.67-0.04-3.36-0.06-5.04c-0.03-2.23-0.38-4.48,0.47-6.28c-0.11-0.93-0.84-0.86-1.02-1.48c0.89-2.01,1.93-4.05,3.34-6.04
		c-0.84-0.27-1.13,0.66-1.83,0.53c-0.37-0.93,0.42-1.45,0.88-2c1.16-1.42,2.4-2.78,3.62-4.15c0.53-0.59,1.19-1.1,0.92-2.06
		c-0.1-0.37,0.25-0.56,0.46-0.78c2.64-2.77,4.78-5.96,7.44-8.73c2.37-2.48,4.07-5.52,5.72-8.54c0.61-1.12,1.17-2.26,1.82-3.53
		c-0.56-1.85-0.96-3.88-1.41-5.89c-0.87-3.9-2.16-7.65-3.36-11.43c-1.14-3.6-0.83-7.25-0.5-10.91c0.08-0.92,0.01-1.85,0.01-3.16
		c-1.44,2.12-0.99,4.48-2.06,6.5c-0.54-1.37-0.06-2.55-0.08-3.72c-0.01-0.63,0.25-1.25,0.26-1.88c0.01-0.51,0.36-1.33-0.21-1.5
		c-0.99-0.3-0.46-1.01-0.61-1.5c-0.76-2.36-0.96-4.84-1.3-7.28c-0.15-1.09-0.09-2.25,0.07-3.34c0.5-3.42,0.34-6.85,0.24-10.28
		c-0.02-0.72-0.09-1.44-0.06-2.16c0.18-4.24-0.29-8.46-0.32-12.69c-0.01-0.95-0.12-1.92,0.55-2.75c0.37-0.46,0.24-1.08,0.24-1.63
		c-0.02-3.83-0.02-7.66,0.47-11.48c0.17-1.29-0.12-2.53-0.63-3.67c-0.39-0.27-0.63-0.01-0.9,0.13c-0.56-0.42-0.55-2.33,0.02-8.47
		c-0.55,0.29-0.63,0.82-0.77,1.33c-0.26,0.91-0.44,1.83-1.57,2.22c-0.6,0.21-0.86,0.9-0.82,1.58c0.05,0.79,0.07,1.6,0.23,2.38
		c0.4,1.95,0.2,3.68-1.54,4.79c-0.22,0.75,0.34,1.13,0.51,1.64c0.36,1.09-0.11,2-1.19,2.09c-0.87,0.07-1.54,0.06-2.18,0.98
		c-0.51,0.74-1.75,0.4-2.69,0.08c-3.33-1.14-6.63-2.34-9.42-4.59c-0.18-0.15-0.41-0.24-0.73-0.43c-1.19,0.96-1.95,2.2-2.33,3.68
		c-0.37,1.43-1.09,2.61-2.36,3.45c-0.83-0.72,0.34-1.5-0.19-2.32c-3.98,5.18-7.89,10.32-10.96,16.07c-1.47,2.76-2.61,5.63-3.81,8.49
		c-1.05,2.5-2.35,4.92-3.92,7.13c-3.38,4.77-6.15,9.89-8.98,14.98c-1.82,3.28-3.68,6.54-5.54,9.8c-0.87,1.53-1.5,3.17-2.25,4.76
		c-1.55,3.26-3.49,6.28-5.18,9.45c-0.45,0.85-1,1.63-1.73,2.28c-0.41,0.37-0.87,0.76-1.1,1.24c-0.64,1.32-1.63,2.27-2.81,3.08
		c-1.05,0.72-1.34,1.95-1.99,2.94c-0.67,1-0.82,2.49-2.55,2.46c-0.23,0-0.51,0.56-0.71,0.89c-1.17,2-2.25,4.05-3.51,6
		c-1.9,2.94-3.67,5.93-6.43,8.27c-2.68,2.28-4.42,5.42-6.44,8.3c-1.96,2.81-4.04,5.54-6.08,8.29c-0.19,0.26-0.39,0.56-0.66,0.69
		c-2.74,1.3-3.63,4.11-5.19,6.37c-1.13,1.64-2.19,3.31-3.56,4.78c-0.64-0.57-0.05-0.92,0.16-1.23c0.73-1.11,1.32-2.28,2.15-3.66
		c-0.92,0.24-1.11,0.68-1.38,1.03c-1.63,2.17-3.33,4.28-5.18,6.28c-0.81,0.87-1.38,1.95-2.08,2.93c-0.74,1.03-1.38,2.16-2.8,2.43
		c-0.6,0.12-0.85,0.71-1.18,1.14c-1.12,1.48-2.46,2.72-3.96,3.8c-0.39,0.28-0.82,0.54-1.11,0.91c-1.61,2.01-3.97,2.51-6.25,3.18
		c-0.38,0.11-0.84,0.1-1.15,0.31c-1.51,1-3.28,1.19-4.95,1.68c-2.2,0.65-2.74,0.42-3.82-1.61c-0.15-0.28-0.27-0.58-0.41-0.87
		c0.46-2.14,1.33-4.05,2.69-5.78c1.62-2.07,2.69-4.54,4.52-6.47c0.49-0.52,0.9-1.2,1.5-1.53c2-1.11,3.47-2.75,4.93-4.45
		c4.67-5.46,9.36-10.91,13.74-16.61c2.48-3.23,4.82-6.55,7.09-9.94c1.3-1.95,2.6-3.99,4.62-5.36c0.13-0.09,0.22-0.23,0.31-0.36
		c3.24-4.45,6.72-8.74,9.35-13.61c0.46-0.84,0.96-1.64,1.48-2.44c1.19-1.87,2.39-3.71,3.02-5.91c0.36-1.27,1.24-2.4,1.94-3.56
		c1.23-2.03,2.82-3.89,3.04-6.41c0.03-0.36,0.38-0.69,0.58-1.04c1.87-3.25,4.09-6.31,5.56-9.79c0.12-0.29,0.26-0.69,0.49-0.8
		c1.46-0.68,1.96-2.11,2.41-3.38c1.15-3.24,3.01-6.16,4.13-9.41c0.57-1.66,1.32-3.26,1.89-4.92c0.83-2.43,1.94-4.72,3.03-7.04
		c1.63-3.46,3.14-6.99,4.76-10.46c2.26-4.85,4.62-9.65,7.33-14.27c1.74-2.96,3.4-5.96,5.03-8.98c1.14-2.11,2.63-4,3.6-6.21
		c0.61-1.39,1.35-2.72,1.98-3.98c0.02-0.66-0.33-1.03-0.71-1.29c-1.61-1.13-2.47-2.9-3.76-4.3c-0.27-0.29-0.47-0.65-0.64-1
		c-1.21-2.51-2.44-5.01-3.59-7.55c-0.49-1.09-0.83-2.28-0.65-3.5c0.16-1.13,0.08-2.24-0.05-3.34c-0.43-3.64-0.26-7.33-0.78-10.97
		c-0.56-3.94-0.99-7.9-1.48-11.85c-0.05-0.4-0.11-0.92-0.47-1.05c-1.04-0.36-0.93-1.17-0.94-1.96c-0.06-4.32-0.07-8.63-0.17-12.95
		c-0.12-5.26-0.16-10.54-0.52-15.79c-0.31-4.52-1.01-9.02-1.53-13.53c-0.22-1.9-0.55-3.8-0.62-5.7c-0.14-3.83-1.15-7.57-1.19-11.42
		c-0.01-0.54-0.26-1.07-0.42-1.7c-0.8,0.38-0.31,1.57-1.23,1.75c-0.07-0.04-0.2-0.07-0.2-0.11c-0.18-1.37-0.4-2.73-0.5-4.11
		c-0.1-1.38,0.41-2.67,0.78-3.96c0.44-1.53,0.85-3.09,1.46-4.55c0.96-2.31,0.74-4.72,0.55-7.04c-0.22-2.81,0.45-5.35,1.37-7.9
		c0.26-0.71,0.87-1.39,0.41-2.2c-0.54-0.45-0.92,0.2-1.43,0.09c-0.05-0.19-0.13-0.41-0.17-0.63c-0.01-0.07,0.02-0.18,0.07-0.22
		c1.9-1.66,2.37-4.05,3.29-6.24c0.98-2.34,2.28-4.59,3.77-6.65c1.24-1.72,2.01-3.61,2.84-5.48c1.39-3.15,2.32-6.48,2.93-9.84
		c0.5-2.73,0.91-5.5,1.29-8.26c0.39-2.78,1.18-5.46,1.74-8.19c0.1-0.47,0.27-0.93,0.28-1.4c0.04-2.11,0.6-4.08,1.41-6.01
		c0.05-0.12-0.04-0.3-0.07-0.47c-0.33,0.19-0.65,0.38-0.98,0.57c-0.48-0.46-0.18-0.92,0.05-1.26c1-1.49,1.58-3.08,1.6-4.92
		c0.01-0.92,0.41-1.87,0.78-2.75c1.22-2.86,2.55-5.68,3.75-8.55c0.93-2.21,1.73-4.46,2.59-6.7c0.03-0.07,0.07-0.16,0.05-0.23
		c-0.62-2.33,0.89-4.28,1.22-6.44c0.12-0.79,0.37-1.56,0.32-2.36c-0.18-3.31,0.44-6.51,1.23-9.7c0.54-2.17,0.89-4.38,1.36-6.56
		c0.29-1.33,0.72-2.61,1.29-3.85c0.22-0.48,0.61-0.94,0.29-1.53c-1.01,0.13-1.24,1.92-2.9,1.22c1.38-1.77,2.63-3.38,4.01-5.15
		c-1.27-0.17-1.51,1.27-2.47,1.28c-0.43-0.24-0.19-0.51-0.02-0.75c2.72-3.74,5.42-7.5,8.17-11.22c1.04-1.41,2.22-2.72,3.27-4.12
		c0.49-0.66,1.35-1.15,1.15-2.23c-0.09-0.46,0.48-0.57,0.74-0.84c0.94-0.99,2.3-1.39,3.25-2.18c0.21-0.66-0.58-0.57-0.52-1.04
		c2.02-1.24,4.06-2.48,6.14-3.46c0.22-0.49-0.48-0.76-0.01-1.23c1.64-0.49,3.49-0.57,5.24-1.3c-0.69-0.65-1.53-0.12-2.12-0.65
		c0.51-0.94,1.43-0.7,2.12-0.58c2.06,0.34,4.14,0.24,6.2,0.37c2.62,0.17,5.25,0.25,7.86,0.36c1.97-1.99,4.45-3.18,6.66-4.85
		c-0.11-0.59-1-0.45-1.06-1.06c0.01-0.37,0.24-0.58,0.55-0.69c2.82-0.98,4.56-3.42,6.86-5.11c0.57-0.42,1.19-1.01,1.17-1.97
		c-0.01-0.76,0.7-1.24,1.16-1.77c1.27-1.47,2.13-3.17,3.01-4.91c-0.69-0.29-0.88,0.29-1.12,0.61c-0.53,0.72-1.09,1.34-2.19,1.51
		c0.05-0.98,0.38-1.81,0.8-2.53c0.89-1.54,1.32-3.24,1.91-4.89c0.19-0.52,0.36-1.09,0.34-1.62c-0.11-2.47,0.62-4.72,1.56-6.94
		c0.12-0.28,0.36-0.54,0.15-1c-1.04,0.05-1.5,1.24-2.48,1.43c-0.69-0.68,0.57-1.28,0.07-1.98c-0.38,0.24-0.75,0.48-1.11,0.71
		c-0.16-0.19-0.35-0.31-0.34-0.42c0.12-1.1,0.32-2.15,1.02-3.1c2.78-3.8,3.59-8.29,4.33-12.79c0.27-1.65,0.52-3.31,0.79-4.96
		c0.2-1.24,0.67-2.49-0.45-3.59c-0.18-0.17-0.2-0.64-0.12-0.92c0.51-1.86,0.31-3.79,0.62-5.67c-0.9-0.11-0.75,1.2-1.63,1.13
		c-0.55-1.36,0.99-2.28,0.83-3.63c-1.19,0.65-1.4,2.4-2.92,2.42c-0.47-0.38-0.42-0.77-0.23-1.14c1.24-2.36,1.91-4.89,2.25-7.52
		c0.15-1.19,0.63-2.3,1.15-3.39c0.26-0.54,0.68-1.04,0.66-1.79c-1.08-0.04-1.87,1.05-2.88,0.65c-0.35-0.33-0.25-0.66-0.06-0.9
		c0.67-0.84,0.88-1.71,0.64-2.8c-0.15-0.69,0.15-1.41,0.57-2.03c0.73-1.07,1.09-2.3,1.58-3.47c0.71-1.68,0.36-3.2-0.38-4.76
		c-0.72-1.51-1.79-2.81-2.35-4.44c-1.12-3.22-0.93-6.43-0.34-9.68c0.1-0.55,0.37-1.1,0.34-1.63c-0.19-2.6,0.46-5.06,0.98-7.57
		c0.87-4.19,3.37-7.21,6.87-9.37c1.67-1.03,3.47-0.89,5.4,0.2c3.45,1.93,5.18,5.12,6.96,8.32c0.8,1.43,1.75,2.67,3.08,3.61
		c0.38,0.27,0.7,0.56,1.28,0.4c1.93-0.54,3.93,0.29,5.88-0.19c0.19-0.05,0.5,0.04,0.65,0.18c1.75,1.6,3.98,1.37,6.09,1.62
		c0.08,0.01,0.16-0.01,0.24,0c4.47,0.73,8.7-0.46,12.94-1.59c2-0.53,3.99-1.11,6.09-1.1c0.77,0,1.34-0.45,1.91-0.9
		c2.25-1.79,4.65-3.37,7.03-4.98c1.92-1.3,3.55-2.98,5.15-4.63c1.33-1.37,2.62-2.8,3.97-4.16c1.42-1.43,2.41-3.18,3.59-4.78
		c0.46-0.63,0.81-1.45,1.81-1.33c0.66,0.08,1.24,0.93,1.33,2.07c0.46,5.97,0.75,11.94,0.33,17.93c-0.09,1.25-0.51,2.47-0.02,3.74
		c0.13,0.32-0.04,0.79-0.14,1.17c-0.34,1.31-0.81,2.58-0.69,3.98c0.04,0.44-0.2,0.94-0.44,1.34c-0.48,0.8-0.49,1.57-0.31,2.48
		c0.15,0.78-1.06,0.84-1.24,1.83c-0.58,3.35-0.68,6.5,1.33,9.51c1.33,1.98,2.36,4.16,3.52,6.26c0.43,0.79,0.78,1.65,0.46,2.53
		c-0.43,1.19-0.07,2.17,0.55,3.13c0.17,0.27,0.3,0.57,0.5,0.82c2.27,2.9,2.42,6.32,2.41,9.78c0,0.68-0.37,1.21-0.56,1.81
		c-0.55,1.66-1.34,3.25-1.52,5.03c-0.08,0.78,0.06,1.41,0.66,1.94c2.35,2.1,4.05,4.7,5.78,7.3c1.63,2.46,3.49,4.76,5.31,7.09
		c0.57,0.73,0.61,1.4,0.33,2.21c-1.35,3.84-3.54,7.1-6.56,9.83c-1.02,0.92-2.09,1.75-3.37,2.24c-1.75,0.66-3.26,1.68-4.55,3.01
		c-1.53,1.58-3.2,2.89-5.55,2.97c-0.46,0.02-0.94,0.22-1.37,0.41c-0.91,0.41-1.81,0.43-2.8,0.24c-1.32-0.26-2.69-0.44-3.93,0.38
		c-0.89,2.16-0.48,4.26,0.21,6.31c0.8,2.35,1.91,4.56,3.04,6.77c0.49,0.96,1.22,1.66,2.14,2.21c0.39,0.23,0.92,0.29,1.13,0.77
		c-0.07,0.57-0.39,0.7-0.83,0.5c-0.52-0.24-1.03-0.43-1.61-0.19c0.25,0.56,0.76,0.81,1.24,1.08c0.73,0.42,1.09,1.14,1.58,1.76
		c-0.76,2.26,1.42,3.27,2.09,4.93c0.12,0.29,0.4,0.52,0.26,0.88c-0.68,0.36-0.8-0.87-1.58-0.51c2.16,2.13,3.86,4.68,6.65,6.06
		c0.5,0.25,0.97,0.54,1.48,0.76c3.6,1.53,7.3,2.78,11.15,3.47c1.88,0.34,3.78,0.57,5.65,0.97c4.83,1.03,9.72,1.76,14.42,3.35
		c0.79,0.27,1.58,0.16,2.38,0.18c0.57,0.02,1.07,0.12,1.46,0.84c-1.6,0.1-3.07,0.35-4.43,1.24c3.9,0.86,4.79,1.22,6.58,2.67
		c-0.62,0.53-1.21-0.13-1.77,0c-0.54,0.13-1.1-0.23-1.64,0.08c0.12,0.57,0.65,0.65,1.05,0.87c1.75,0.97,3.48,1.98,5.01,3.27
		c0.95,0.8,2.08,1.49,2.23,2.97c0.08,0.77,0.89,1.07,1.41,1.55c0.74,0.68,1.57,1.35,1.42,2.68c-1.18-0.1-1.28-1.47-2.24-1.61
		c-0.02,0.14-0.12,0.33-0.06,0.43c2.68,4.33,3.83,9.26,5.43,14.01c0.31,0.91,0.67,1.79,1.12,2.64c0.67,1.27,0.77,2.57-0.03,3.86
		c-0.56-0.02-0.63-0.66-1.07-0.86c-0.05,0.11-0.17,0.24-0.15,0.34c0.13,0.7,0.31,1.4,0.44,2.1c0.68,3.55,0.5,7.14,0.37,10.72
		c-0.04,1.03-0.42,1.94-0.73,3.09c-0.92-0.76-0.85-1.72-1.29-2.46c-0.63,0.26-0.26,0.78-0.23,1.13c0.31,3.17,0.29,6.35,0.33,9.53
		c0.01,0.63,0.11,1.27,0.24,1.9c0.3,1.54,0.87,3.05,0.33,4.66c-0.09,0.27,0.03,0.63,0.1,0.94c0.82,3.33,1.29,6.73,2.18,10.05
		c0.49,1.81,0.93,3.64,0.83,5.61c-0.08,1.63,0.71,3.24,0.69,4.82c-0.18,0.48-0.59,0.36-0.83,0.57c-0.03,0.06-0.1,0.14-0.09,0.2
		c0.5,2.44-0.02,4.88,0.02,7.32c0.04,2.47-0.13,4.95-0.32,7.41c-0.06,0.7,0.2,1.24,0.35,1.84c1.51,5.98,4.46,11.25,7.99,16.24
		c0.55,0.77,1.03,1.6,1.51,2.42c0.06,0.11-0.02,0.31-0.04,0.46c-0.42,0.29-0.67-0.35-1.06-0.21c-0.14,0.1-0.16,0.25-0.03,0.4
		c0.83,0.96,1.18,2.04,0.83,3.3c1.24,1.53,0.78,3.49,1.27,5.22c1.35,4.84,2.21,9.8,3.02,14.76c0.77,4.66,2.23,9.14,3.47,13.68
		c1.47,5.39,2.75,10.83,4.13,16.24c0.71,2.79,1.57,5.52,2.79,8.14c0.49,1.05,0.95,2.15,0.86,3.44c-0.44-0.2-0.76-0.35-1.27-0.58
		c0.52,1.26,1.03,2.33,1.4,3.46c0.45,1.36,1.59,2.7,0.2,4.19c-0.29,0.31,0.05,0.76,0.16,1.13c0.84,3.08,1.57,6.19,2.55,9.22
		c1.28,3.94,2.29,7.99,4.1,11.75c0.38,0.8,0.77,1.58,1.26,2.3c1.18,1.75,1.79,3.72,2.13,5.76c0.13,0.76-0.06,1.58-0.19,2.36
		c-0.19,1.12-0.09,2.2,0.09,3.32c0.43,2.59,0.89,5.16,0.7,7.84c-0.2,2.85,0.17,5.74-0.57,8.55c-0.12,0.47-0.19,0.92-0.03,1.4
		c0.19,0.59-0.12,1.02-0.44,1.52c-1.65,2.55-2.98,5.27-4.13,8.07c-0.32,0.78-0.33,1.72-0.5,2.57c-0.54,2.79-0.99,5.62-2.12,8.25
		c-0.94,2.19-2.53,3.05-5.08,2.81c0.32-1.83,1.73-3.4,1.4-5.41c-0.75-0.26-1.54-0.41-2.19-0.79c-1.03-0.61-1.98-0.44-2.96,0.01
		c-0.43,0.2-0.85,0.44-1.26,0.7c-2.71,1.72-5.81,2.16-8.88,2.6c-1.13,0.16-2.15-0.47-2.78-1.6c0.22-0.97,0.83-1.46,1.83-1.54
		c1.11-0.1,2.21-0.29,3.4-0.79c-1.52-1.8-2.06-3.88-1.86-6.23c-1.59-0.58-3.54-0.09-4.83-1.65c-0.88-1.06-1.56-2.22-2.05-3.48
		c-0.2-0.51-0.17-1.11,0.25-1.6c1.22-0.34,1.7,1.07,2.87,1.19c0.65-1.17,1.33-2.38,2.05-3.67c-1.14-0.89-2.24-1.81-3.08-3
		c0-0.72,0.51-0.99,1.09-1c2.26-0.04,3.91-1.15,5.29-2.82c1.16-1.4,2.62-2.31,4.44-2.64c0.46-0.08,0.89-0.31,1.38-0.48
		c0-0.98,0-1.92,0-2.95c-0.37-0.24-0.73-0.57-1.16-0.75c-2.06-0.9-3.03-2.76-4.04-4.58c-0.11-0.21-0.26-0.47-0.23-0.67
		c0.42-2.31-1.09-4.25-1.18-6.47c-0.09-2.2-1.16-4.15-2.09-6.06c-0.51-1.04-1.63-1.79-2.46-2.66c-1.75,0.71-2.48,1.63-2.13,3.17
		c0.67,2.89,0.2,5.69-0.35,8.51c-0.06,0.31-0.15,0.68-0.04,0.94c0.61,1.51-0.07,2.82-0.63,4.13c-0.6,1.39-1.27,2.75-1.94,4.11
		c-0.39,0.78-1.07,1.12-1.95,1.16c-0.97,0.04-1.9-0.15-2.89-0.38c-1.03,1.54,0.67,3.08-0.02,4.58c-0.84,0.37-1.36-0.12-1.88-0.63
		c-1.49-1.46-2.11-3.36-2.71-5.27c-0.19-0.61-0.27-1.25-0.43-1.86c-0.34-1.31-0.45-2.6-0.31-3.99c0.19-1.82,0.1-3.67,0.05-5.51
		c-0.03-1.03-0.19-2.09-1.11-2.79c-0.59-0.45-0.66-1.06-0.63-1.72c0.09-1.99-0.09-3.97,0.23-5.98c0.26-1.64,0.2-3.36,0.04-5.03
		c-0.16-1.71-0.04-3.3,0.84-4.83c-0.36-0.17-0.64-0.3-1.08-0.51c0.71-1.22,1.36-2.47,2.14-3.64c1.86-2.8,3.23-5.86,4.76-8.83
		c1.22-2.37,1.48-5.06,1.26-7.7c-0.18-2.1-1.41-3.9-2.42-5.69c-0.77-1.36-1.79-2.61-2.83-3.83c-1.23-1.44-2.27-3.06-3.52-4.51
		c-0.2-0.24-0.45-0.55-0.45-0.83c0.01-1.78-1.2-2.87-2.23-4.04c-1.94-2.2-3.83-4.44-5.46-6.9c-0.75-1.13-1.16-2.58-2.72-3.12
		c-0.43-0.15-0.62-1.06-0.85-1.66c-0.48-1.26-0.9-2.53-1.31-3.68c-0.45-0.2-0.79,0.09-1.16-0.36c0.02,0.04-0.09-0.08-0.12-0.22
		c-0.3-1.32-0.61-2.64-0.88-3.97c-0.18-0.86-0.27-1.69-1.16-2.24c-0.77-0.47-0.05-1.57-0.76-2.22c-0.33-0.11-0.86-0.06-0.97,0.29
		c-0.6,1.79-1.76,3.33-2.05,5.28c-0.38,2.48-0.26,4.94,0.11,7.35c0.61,3.94,1.3,7.89,2.41,11.71c1.16,3.97,1.18,8.02,1.68,12.04
		c0.05,0.4,0.08,0.87-0.26,1.12c-0.87,0.65-0.67,1.56-0.67,2.41c-0.01,2.31-0.35,4.59-0.62,6.88c-0.4,3.37-0.64,6.8,0,10.26
		c0.51,2.75,1.05,5.48,1.88,8.14c0.09,0.3,0.2,0.64,0.14,0.93c-0.47,2.3,0.39,4.42,1.04,6.51c2.2,7.08,4.56,14.12,6.82,21.18
		c0.68,2.13,1.24,4.29,1.84,6.44c1.08,3.84,2.19,7.67,3.23,11.52c1.37,5.08,2.61,10.2,4.02,15.27c1,3.61,1.77,7.27,2.59,10.92
		c0.28,1.25,0.35,2.53-0.27,3.74c-0.38,0.74-0.36,1.48-0.19,2.32c0.72,3.6,0.93,7.27,1.29,10.91c0.43,4.39,0.12,8.78,0.31,13.17
		c0.13,3.02,0.45,6.04,0.78,9.05c0.1,0.88,0.12,1.75,0.15,2.62c0.12,4.15-0.31,8.31,0.45,12.45c0.15,0.84,0.14,1.76-0.14,2.62
		c-0.21,0.62-0.24,1.29-0.07,1.89c0.25,0.88,0.2,1.7-0.01,2.58c-0.27,1.09-0.17,2.21,0.17,3.08c-0.11,0.69-0.75,0.54-0.88,0.96
		c0.41,2.76,0.81,5.51,1.25,8.26c0.24,1.5,0.49,2.97-0.15,4.46c-0.2,0.47-0.1,1.1-0.05,1.65c0.08,0.88,0.15,1.75-0.02,2.61
		c-0.72,0.32-0.35-0.81-1.12-0.61c-0.34,2.8-1.11,5.59-2.42,8.61c-0.5-0.95-0.2-1.63-0.22-2.26c-0.02-0.62-0.05-1.23-0.11-2.37
		c-0.56,1.43-0.92,2.38-1.3,3.33c-0.69,1.72-1.52,3.37-2.98,4.57c-0.94,0.77-1.16,1.91-1.64,2.88c-0.75,1.5-1.49,3.01-2.34,4.45
		c-2.25,3.8-4.04,7.79-5.36,11.99c-1.71,5.42-4.3,10.48-6.56,15.68c-2.32,5.35-4.94,10.57-7.14,15.96
		c-2.54,6.2-4.78,12.52-7.14,18.8c-0.82,2.17-1.7,4.31-2.38,6.52c-2.12,6.85-4.2,13.72-6.23,20.6c-0.68,2.3-0.98,4.68-0.96,7.09
		c0.02,2.72-0.04,5.44,0.02,8.16c0.09,4.63,1.23,8.98,3.48,13.04c1.31,2.38,2.48,4.83,3.77,7.22c2.16,4.01,4.37,7.99,6.55,11.98
		c0.46,0.84,0.93,1.68,1.33,2.54c1.14,2.47,2.54,4.79,4,7.09c1.2,1.88,2.34,3.8,3.78,5.51c0.47,0.55,0.91,1.1,1.52,1.51
		c1.81,1.2,3.79,2.09,5.83,2.74c1.74,0.55,3.59,0.84,5.39,0.04c0.92-0.41,1.89-0.27,2.84-0.33c1.86-0.13,3.63,0.5,5.46,0.64
		c0.6,0.04,1.38,0.3,1.73,0.73c0.95,1.2,2.32,1.44,3.58,1.99c1.78,0.78,3.2,2.12,4.47,3.54c2.12,2.38,4.07,4.91,5.83,7.58
		c0.53,0.8,1.11,1.56,1.68,2.32c1.25,1.69,2.1,3.56,2.67,5.58c0.3,1.04,0.54,2.03-0.67,2.72c-0.23,0.13-0.32,0.53-0.44,0.81
		c-1.74,3.89-5.06,5.44-9,5.73c-1.94,0.14-3.77,0.31-5.54,1.18c-1.14,0.56-2.43,0.69-3.71,0.84c-2.3,0.27-4.59,0.52-6.91,0.45
		c-1.59-0.05-3.19,0.01-4.7-0.54c-2.29,2.18-4.97,3.39-8.02,3.36c-3.82-0.04-7.64-0.24-11.37-1.27c-1.56-0.43-3.01-1.04-4.39-1.84
		c-1.72-0.99-3.41-2.05-5.19-2.92c-0.91-0.45-1.97-0.63-2.98-0.8c-3.56-0.59-5.68-3.01-7.48-5.83c-0.33-0.51-0.37-1.21-0.58-1.96
		c-0.75-0.34-1.6-0.64-2.02-1.68c-0.22-0.55-1.52-0.38-1.48-1.48c0.03-0.91-0.79-1.34-1.19-2c-0.15-0.26-0.24-0.62-0.21-0.91
		c0.15-1.43-0.49-2.65-0.99-3.9c-1.87-4.67-3.63-9.38-5.83-13.9c-1.22-2.51-2.51-4.99-3.61-7.55c-1.77-4.1-3.38-8.28-5.12-12.39
		c-0.49-1.17-1.2-2.24-1.85-3.34c-2.19-3.71-4.4-7.42-6.61-11.12c-1.92-3.22-3.85-6.43-5.82-9.62c-0.27-0.44-0.54-0.86-0.38-1.31
		c0.31-0.89-0.09-1.73-0.06-2.6c0.04-1.04,0.14-2.12-0.88-2.64c0.17-1.19,1.25-2.07,0.22-3.11c-0.11-0.11-0.05-0.48,0.05-0.66
		c0.43-0.8,0.41-1.7,0.65-2.54c0.15-0.53,0.31-1.13,0.66-1.52c2.33-2.56,3.99-5.56,5.71-8.52c0.81-1.4,1.37-2.88,1.84-4.4
		c1.28-4.19,2.96-8.26,3.79-12.59c0.24-1.26,0.47-2.53,0.43-3.79c-0.11-3.76,0.53-7.48,0.53-11.24c0-0.79,0.25-1.57,0.29-2.37
		c0.12-2.48-0.02-4.95-0.75-7.35c-1.32-4.28-2.05-8.68-2.53-13.12c-0.61,0-0.32,0.66-0.72,0.83c-0.52-0.16-0.56-0.61-0.62-1.07
		c-0.21-1.47,0.31-2.84,0.51-4.26c0.13-0.87,0.34-1.72,0.57-2.57c0.13-0.48,0.3-0.9-0.25-1.25c-0.3-0.19-0.27-0.51-0.17-0.85
		c0.32-1.15,0.6-2.31,0.9-3.46c0.34-1.31,0.86-2.56,0.93-3.95c0.03-0.6,0.45-1.18,0.65-1.78c0.38-1.19,1.01-2.28,0.79-3.66
		c-0.15-0.95,0.46-1.84,1.05-2.6c0.59-0.77,1.09-1.56,1.36-2.62c-0.9-0.43-1.22,1.07-2.09,0.62c-0.64-0.64-0.05-1.19,0.3-1.63
		c1.18-1.51,2.45-2.96,3.93-4.19c3.44-2.85,6.68-5.95,10.34-8.53c0.13-0.09,0.25-0.2,0.36-0.32c2.75-3.02,5.93-5.56,9.12-8.09
		c0.82-0.65,1.06-1.31,0.74-2.28c-0.45-1.36-0.85-2.74-1.29-4.11c-0.54-1.66-1.35-3.18-2.21-4.72c-1.64-2.93-2.77-6.1-3.55-9.38
		c-0.15-0.62-0.25-1.24-0.67-1.79c-1.21,1.32-0.16,3.29-1.45,4.81c-0.46-0.94-0.3-1.79-0.32-2.6c-0.03-0.84-0.01-1.68-0.01-2.58
		c-1.01,0.31-0.7,1.41-1.69,1.74c-0.18-0.88-0.43-1.74-0.54-2.62c-0.45-3.58-1.23-7.1-2.45-10.46c-0.73-2.01-1.28-4.08-2.06-6.06
		c-1.52-3.87-2.64-7.86-3.92-11.81c-0.07-0.2-0.27-0.37-0.54-0.72c-0.44,1.85,0.23,3.71-0.64,5.42c-1.6-1.57-1.97-3.19-2.65-11.06
		c-0.79,0.33-0.76,0.96-0.62,1.59c0.57,2.49,0.19,5.08,1.06,7.84c-1.25-0.5-1.22-1.48-1.6-2.14c-0.47-0.83-0.81-1.73-1.25-2.58
		c-0.39-0.77-0.45-1.7-1.06-2.38c-0.57,0.54,0.13,1.27-0.32,1.82c-0.1,0.12-0.22,0.09-0.33-0.1c-0.64-1.13-0.82-2.4-1.08-3.64
		c-0.35-1.68-0.68-3.36-1.05-5.22c-1.19,1.36-1.32,3.24-3,4.37c0.25-1.65,0.58-3.03,0.63-4.42c0.05-1.34,0.88-2.57,0.45-4.39
		c-0.27,0.48-0.42,0.67-0.49,0.89c-1.1,3.37-2.79,6.51-3.19,10.17c-0.46,4.14-0.29,8.28-0.6,12.41c-0.25,3.4-0.05,6.86-1.08,10.42
		c-0.42-1.19-0.36-2.32-1.02-3.5c-0.22,2.32,0.04,4.57-1.43,6.51c-0.49-1.65,0.64-3.1,0.08-4.6c-0.63,0.26-0.61,0.87-0.77,1.39
		c-1.45,4.9-2.94,9.8-5.28,14.36c-2.13,4.15-3.4,8.61-4.95,12.96c-0.49,1.38-0.61,2.94-0.58,4.46c0.03,1.74-0.07,3.48-0.12,5.23
		c-0.02,0.55,0.03,1.12-0.41,1.57c-0.71-0.1-0.52-0.67-0.54-1.09c-0.03-0.83-0.14-1.58-1.29-1.86c-0.4,2.14,0.05,4.29-0.28,6.43
		c-1.27-0.16-0.53-1.38-1.13-1.91c-0.68,0.42-0.65,1.11-0.68,1.78c-0.05,1.06-0.35,2.03-1.05,2.87c-0.46,0.55-1,0.75-1.75,0.6
		c-0.52,1.57-0.84,3.24-2.1,4.35c1.17,4.63,1.8,9.21,2.34,13.8c0.16,1.34,0.45,2.69,0.45,4.03c0,1.99-0.21,3.98-0.34,5.96
		c-0.03,0.49-0.18,1.01-0.63,1.23c-1.03,0.51-1.2,1.41-1.27,2.39c-0.16,2.33-1.28,4.45-1.45,6.77c-1.33,1.1-1.14,2.81-1.7,4.22
		c-0.15,0.37-0.38,0.71-0.78,0.87c-0.42,0.03-0.38-0.42-0.68-0.64c-0.06,0.09-0.15,0.19-0.2,0.3c-1.49,3.18-3.07,6.32-4.69,9.44
		c-0.77,1.47-1.11,3.15-2.12,4.52c-0.95,1.28-1.78,2.66-2.8,3.88c-2.18,2.59-3.56,5.66-5.24,8.55c-1.01,1.72-1.95,3.48-2.99,5.19
		c-1.96,3.22-3.6,6.55-4.55,10.23c-0.59,2.31-1.16,4.64-2.2,6.82c-0.35,0.73-0.44,1.53-0.47,2.34c-0.03,0.98-0.15,1.89-1.05,2.52
		c-0.54,0.38-0.38,1-0.37,1.54c0.03,1.59,0.19,3.17,0.44,4.75c0.5,3.15,0.67,6.34,1.57,9.43c0.27,0.92,0.46,1.87-0.24,2.72
		c-0.27,0.33-0.29,0.72-0.38,1.11c-0.26,1.13-0.16,2.36-1.05,3.34c-0.3,0.33-0.23,1.07-0.2,1.62c0.1,1.48-0.19,2.86-0.89,4.16
		c-0.38,0.72-0.46,1.5-0.61,2.29c-0.93,4.94-1.1,9.97-1.85,14.94c-0.14,0.94-0.17,1.91-0.18,2.87c-0.02,5.19,0.25,10.36,0.91,15.52
		c0.23,1.81,0.22,3.65,0.41,5.48c0.32,3.17,1.49,6.01,2.76,8.86c0.33,0.73,0.68,1.44,0.97,2.19c0.59,1.51,1.32,2.74,2.83,3.68
		c1.44,0.89,2.61,2.33,3.48,3.89c0.93,1.68,2.08,3.2,3.38,4.63c1.01,1.12,1.99,2.32,2.68,3.65c0.98,1.88,1.99,3.85,1.03,6.12
		c-0.14,0.34-0.1,0.79-0.05,1.17c0.34,2.68-1.01,4.6-2.8,6.31c-1.38,1.32-2.99,2.11-4.97,1.94
		C166.48,734.33,166,734.4,165.34,734.43z M141.18,237.58c-0.47,3.91-1.8,7.32-3.45,10.61c-0.64,1.28-1.13,2.78-2.12,3.71
		c-1.44,1.33-2,3.01-2.76,4.65c-0.23,0.5-0.44,1.09-0.83,1.44c-1.06,0.94-1.56,2.19-2.18,3.4c-0.25,0.49-0.53,0.99-0.89,1.41
		c-2.33,2.77-3.8,5.88-3.83,9.57c0,0.39-0.07,0.8-0.16,1.18c-0.26,1.08-0.32,2.19-0.53,3.28c-0.21,1.1,0.27,2.34,0.51,3.51
		c0.83,4.14,1.69,8.27,2.52,12.41c0.12,0.62,0.39,1.42-0.07,1.85c-0.92,0.87-0.65,1.9-0.64,2.89c0.03,2.39-0.9,4.67-0.78,7.08
		c0.02,0.37-0.12,0.85-0.37,1.12c-0.84,0.94-1.03,2.14-1.37,3.27c-0.86,2.82-1.61,5.68-2.48,8.5c-0.8,2.59-1.47,5.24-2.69,7.68
		c-0.98,1.96-1.48,4.05-1.85,6.17c-0.21,1.17-0.03,2.42-0.3,3.57c-0.85,3.67-0.96,7.42-1.28,11.15c-0.2,2.3-0.29,4.61-0.41,6.92
		c-0.1,1.75,0.54,3.08,2.13,3.96c1.39,0.77,2.72,1.67,4.09,2.49c0.48,0.28,0.98,0.49,1.56,0.58c2.74,0.41,4.92,2.05,7.27,3.16
		c-0.07,0.62-0.69,1.05,0.06,1.41c0.26,0.13,0.68,0.31,0.6,0.67c-0.21,0.99,0.49,1.41,1.05,1.97c0.44,0.44,0.96,0.93,0.6,1.65
		c-0.81,1.64,0.31,2.4,1.43,3.47c1.58-2.69,3.61-4.72,5.46-6.92c3.33-3.98,6.56-8.04,9.75-12.13c0.72-0.92,1.26-1.82,1.43-2.94
		c0.43-2.75,0.9-5.5,0.9-8.31c0-1.03,0.14-2.07,0.28-3.1c0.2-1.42,0.65-2.83,0.64-4.24c-0.01-2.43,0.35-4.74,1.46-6.91
		c-0.7-0.25-1.12-0.56-0.88-1.24c0.62-1.73,1.42-3.38,2.45-4.91c0.52-0.78,1.07-1.55,1.32-2.75c-0.95,0.83-1.72,1.5-2.49,2.17
		c1.14-1.79,1.51-3.86,2.48-5.63c2.13-3.84,3.98-7.81,5.93-11.73c0.47-0.94,0.74-1.93,0.85-2.97c0.1-0.86,0.05-1.74,0.41-2.51
		c-0.94-0.61-0.94-0.61-0.24-2.21c-0.51-0.3-0.98,0.68-1.52,0.05c-0.17-0.5,0.07-0.92,0.28-1.34c0.49-1,0.98-2.01,1.48-3
		c1.41-2.76,2.01-5.78,2.14-8.78c0.1-2.36,0.08-4.78-0.13-7.17c-0.17-1.89-0.47-3.77-0.73-5.86c-1.07,1.13-0.3,2.48-1.07,3.8
		c-1.19-6.11-4.34-10.96-7.59-15.82c-0.29,0.5-0.68,0.56-0.98,0.18c-0.75-0.95-1.22-2.06-1.57-3.21c-0.2-0.68-0.29-1.39-0.82-2.04
		c-0.46,0.4-0.37,1.24-1.1,1.45c-2.4-2.35-2.29-5.72-3.54-8.65c-0.32,0.26-0.43,0.78-1.16,0.48c-1.33-2.6-1.16-5.67-1.31-9.09
		c-1.35,2.09-1.45,4.27-3.03,6.08c-0.07-3.23,1.06-5.94,1.18-8.85C142.98,235.12,143.38,237.47,141.18,237.58z M251.97,511.53
		c2.01-1.31,2.08-2.29,0.5-6.13C252.14,507.47,252.59,509.48,251.97,511.53z M123.93,383.83c0.84-0.94,1.39-1.65,1.63-2.59
		c-0.3-0.19-0.47-0.35-0.68-0.42c-0.31-0.09-0.62-0.05-0.9,0.29C123.67,381.87,123.56,382.7,123.93,383.83z M142.83,231.55
		c-0.64,1.47-1.6,2.87-1.1,5.09C142.35,234.69,143.06,233.23,142.83,231.55z M190.3,527.41c0.18-1.02,0.42-2.06-0.62-3.03
		C189.39,525.62,190.04,526.48,190.3,527.41z"/>
	<path class="st0" d="M99.01,410.95c1.72,0.63,2.48,2.22,3.8,3.04c1.35,0.83,2.82,1.49,3.95,2.64c0.27,0.28,0.52,0.63,0.66,0.99
		c0.59,1.61,1.8,2.79,2.76,4.32c3.96-0.72,6.92,0.89,9.24,4.23c-1.62,1.47-1.91,3.61-2.89,5.69c-0.55-0.52-0.16-1.44-0.9-1.57
		c-0.36-0.06-0.65,0.11-0.83,0.36c-4.57,6.24-9.23,12.43-12.6,19.44c-0.52,1.07-0.87,2.22-1.3,3.33c-1.48,3.82-3.48,7.35-5.82,10.69
		c-2.98,4.26-5.39,8.85-7.87,13.4c-1.79,3.3-3.94,6.39-5.54,9.8c-0.71,1.51-1.5,3-2.17,4.53c-1.22,2.79-2.87,5.34-4.32,8.01
		c-0.84,1.54-1.79,2.97-3.02,4.27c-1.24,1.31-2.29,2.76-3.7,3.96c-0.98,0.83-1.46,2.25-2.13,3.43c-0.28,0.5-0.5,0.89-1.23,0.89
		c-0.95,0.01-1.17,0.97-1.57,1.62c-1.91,3.14-3.76,6.31-5.69,9.43c-1.09,1.77-2.41,3.34-4.01,4.71c-2.07,1.77-3.72,3.96-5.16,6.25
		c-2.3,3.65-5.11,6.93-7.54,10.48c-0.31,0.45-0.7,0.96-1.18,1.16c-1.43,0.62-2.25,1.71-2.89,3.05c-0.27,0.56-0.73,1.03-1.1,1.54
		c-0.43-0.14-0.78-0.26-1.17-0.39c-0.89,0.71-1.47,1.68-2.12,2.57c-1.67,2.25-3.41,4.42-5.3,6.49c-0.8,0.88-1.39,1.95-2.09,2.91
		c-0.7,0.95-1.27,2.06-2.63,2.26c-0.5,0.08-0.78,0.53-1.05,0.93c-1.71,2.58-4.36,4.18-6.6,6.2c-1.22,1.1-2.96,1.46-4.57,1.91
		c-0.54,0.15-1.15,0.15-1.6,0.43c-1.6,0.99-3.45,1.18-5.2,1.7c-1.6,0.48-3.24-1-2.9-2.64c0.21-1,0.46-2.11,1.05-2.91
		c2.05-2.76,3.59-5.85,5.84-8.47c0.63-0.74,1.29-1.38,2.12-1.9c1.42-0.89,2.66-1.97,3.65-3.38c1.42-2.02,3.04-3.89,4.77-5.68
		c1.66-1.72,3.16-3.59,4.69-5.42c3.58-4.29,6.96-8.73,10.16-13.31c1.32-1.9,2.52-3.89,4.02-5.66c0.72-0.85,1.28-1.84,2.32-2.37
		c0.2-0.1,0.36-0.31,0.5-0.51c3.28-4.71,7.02-9.1,9.67-14.24c0.69-1.34,1.6-2.57,2.4-3.86c0.79-1.29,1.46-2.6,1.91-4.08
		c0.4-1.34,1.3-2.55,2.06-3.77c1.26-2.02,2.46-4,3.14-6.37c0.51-1.78,1.86-3.33,2.82-4.98c0.68-1.17,1.35-2.35,2.04-3.52
		c0.59-1.01,1.04-2.03,1.99-2.89c0.95-0.85,1.55-2.24,1.98-3.51c1.17-3.4,3.14-6.45,4.28-9.86c0.38-1.13,0.88-2.22,1.29-3.35
		c0.95-2.63,2.04-5.19,3.25-7.72c1.73-3.59,3.24-7.29,4.95-10.89c2.26-4.76,4.57-9.5,7.23-14.05c2.26-3.86,4.35-7.81,6.66-11.64
		c0.95-1.58,1.73-3.23,2.67-4.81C98.68,413.05,98.76,412.01,99.01,410.95z"/>
	<path class="st0" d="M136.95,417.22c-0.54-1.96-1.86-3.26-3.07-4.63c-0.84-0.95-1.8-1.75-2.21-3.06c-0.29-0.93-1.3-1.41-2.17-1.79
		c-1.21-0.54-1.84-1.24-1.25-2.6c0.09-0.2,0.15-0.53,0.05-0.67c-0.98-1.42-0.37-3-0.21-4.41c0.35-2.99-0.67-5.48-2.07-7.93
		c-1.04-1.82-1.78-3.74-1.93-5.85c-0.01-0.16-0.14-0.31-0.12-0.46c0.1-0.64,0.27-1.28,1-1.49c0.49-0.14,1.07,0.47,1.1,1.29
		c0.13,3.72,2.07,6.54,4.33,9.31c1.37,1.68,3,2.78,4.95,3.54c1.09,0.43,2.13,0.69,3.04-0.42c0.31-0.38,0.79-0.54,1.28-0.18
		c0.45,0.33,0.54,0.8,0.42,1.28c-0.27,1.08-0.57,2.15-0.88,3.22c-0.91,3.18-0.41,6.35,0.17,9.48c0.28,1.52-0.06,2.84-0.48,4.21
		C138.67,416.77,138.6,416.77,136.95,417.22z"/>
	<path class="st0" d="M149.91,353.48c-2.76,11.85-7.36,23.17-8.87,35.28c-0.93-0.16-0.95-0.75-0.83-1.15c0.41-1.28,0.1-2.51,0-3.77
		c-0.07-0.85-0.35-1.74,0.12-2.58c0.6-1.08,0.18-2.03-0.5-2.86c-0.5-0.61-1.1-1.14-1.68-1.68c-0.58-0.54-1.25-1-1.77-1.59
		c-0.68-0.77-1.25-1.62-1.85-2.43c0.51-1.31,1.3-2.34,2.13-3.27C141.23,364.26,145.5,358.83,149.91,353.48z"/>
</g>
</svg>
