<?xml version="1.0" encoding="utf-8"?>
<!-- Generator: Adobe Illustrator 24.1.2, SVG Export Plug-In . SVG Version: 6.00 Build 0)  -->
<svg version="1.1" id="Layer_1" xmlns="http://www.w3.org/2000/svg" xmlns:xlink="http://www.w3.org/1999/xlink" x="0px" y="0px"
	 viewBox="0 0 1348.8 1477.04" enable-background="new 0 0 1348.8 1477.04" xml:space="preserve">
<g>
	<path d="M518.13,1003.81c0.09-1.65,0.23-3.38,0.25-5.12c0.04-3-0.54-6.13,0.12-8.97c1.79-7.66-0.49-14.82-2.26-21.97
		c-4.9-19.86-9.21-39.84-12.49-60.01c-2.68-16.46-4.45-33.05-5.58-49.73c-0.54-7.96-0.15-15.96-1.23-23.88
		c-0.16-1.18,0.15-2.48-1.12-3.8c-3.04,0.33-6.15,1.51-8.52,3.59c-9.92,8.72-21.36,12.56-34.47,11.66
		c-0.74-0.05-1.48-0.01-2.25-0.01c-10.73-10.95-16.24-24.2-18.23-39.24c-1.04-7.88-1.35-15.9-3.67-23.59
		c-0.76-2.53,0.07-4.93,0.87-7.31c2.46-7.33,5.05-14.62,7.33-22c3.39-10.96,5.76-22.04,6.8-33.61c1.39-15.49,1.23-30.91,0.58-46.35
		c-0.25-5.96-0.63-11.93-0.94-17.89c-1.21-23.07,3.06-45.12,11.49-66.51c3.32-8.43,7.99-16.09,12.86-23.63
		c1.85-2.86,2.57-5.7,2.79-9.06c2.88-44.38,8.49-88.29,23.42-130.52c0.5-1.41,0.98-2.83,1.51-4.22c3.34-8.67,5.43-17.42,5.17-26.94
		c-0.34-12.41,2.18-24.36,10.78-34.14c8.03-9.12,17.43-16.43,28.63-21.28c5.49-2.38,10.96-4.85,16.59-6.86
		c4.79-1.71,9.09-3.78,11.51-8.82c-0.39-2.94-3.42,0.03-4.99-1.98c6.75-5.39,13.25-10.91,21.73-14.39
		c-2.94-3.67-7.37-5.95-7.72-10.82c0.77-2.32,3.23-2.3,4.66-3.69c-0.83-3.01-4.38-4.75-4.14-8.85c5.2-0.25,8.62,3.63,13.68,5.57
		c-0.19-6.45-0.91-12.19-0.1-17.99c0.83-5.95,1.79-11.75,3.79-17.53c1.21,0.33,2.14,0.58,3.65,1c1.67-8.01,4.82-15.5,8.68-22.69
		c2.06-3.84,1.2-7.82,0.29-11.69c-0.51-2.16-1.42-4.28-2.5-6.23c-1.73-3.12-1.37-5.63,0.11-9.03c3.15-7.23,5.12-15.01,4.32-23.03
		c-0.29-2.84-1.93-5.58-3.12-8.29c-2.21-5.02-4.65-9.93-4.19-15.69c0.21-2.6-1.47-4.75-2.42-7.01
		c-4.69-11.08-8.32-22.45-10.33-34.32c-1.59-9.35-2.38-18.8-2.46-28.26c-0.05-5.23-1.75-10.33-0.94-16.15
		c5.39,1.15,9.08,4.96,13.36,7.52c4.27,2.55,8.09,5.87,12.28,8.56c4.29,2.76,7.59,6.79,12.14,9.43c-0.08-3.05-1.31-5.37-2.95-7.5
		c-1.67-2.17-3.3-4.4-5.17-6.4c-9.06-9.71-12.65-21.32-11.79-34.35c0.6-9.2,1.84-18.32,4.75-27.16c2.36-7.18,7.41-12.3,12.81-17.17
		c1.07-0.97,2.47-1.72,4.25-1.53c2.38,1.4,2.1,3.52,1.32,5.8c-1.88,5.42-3.68,10.85-4.78,16.51c-2.38,12.26-0.04,23.23,8.19,32.89
		c2.48,2.91,5.32,5.42,8.49,7.24c13.18,7.54,19.06,19.88,23.13,33.6c1.47,4.97,3.16,9.86,4.84,15.06
		c8.76-0.87,17.13-2.75,25.34-0.46c3.42-1.66,3.85-4.65,4.06-7.66c0.74-10.72,4.76-20.34,9.94-29.54
		c4.29-7.62,8.97-15.04,14.41-21.87c6.79-8.51,9.88-18,10.95-28.84c0.88-8.84,0.25-17.29-1.84-26.66c1.88,1.27,3.36,1.97,4.46,3.05
		c8.05,7.95,13.34,17.45,14.98,28.69c2.32,15.88-1.08,30.66-9.35,44.36c-1.03,1.71-1.9,3.54-3.09,5.13
		c-6.69,8.9-5.75,19.13-5.78,29.48c1.28-0.15,2.12-0.02,2.7-0.34C744.87,104.18,756,98,764.18,87.78c1.67-2.09,3.79-3.94,6.57-4.37
		c1.78,1.22,2.1,2.93,2.08,4.7c-0.14,12.73,1.15,25.48-0.04,38.18c-1.6,17.09-5.86,33.38-15.77,47.77c-0.56,0.82-1.02,1.72-1.5,2.53
		c0.04,0.28,0,0.57,0.12,0.69c0.7,0.64,1.44,1.24,2.52,2.14c-2.5,3.89-6.44,6.01-10,8.39c-0.25,2.51,3.62,2.43,2.85,4.81
		c-0.73,2.25,0.64,3.33,2.01,4.32c2.82,2.03,5.05,4.73,8.35,6.21c-1.09,6.31-6.74,8.9-9.45,13.31c2.18,3.06,5.07-1.2,7.26,1.74
		c-3.47,9.83-7.89,19.46-14.49,27.95c0.07,0.28,0.05,0.63,0.2,0.75c1.55,1.22,3.12,2.41,4.85,3.73c1.59-1.28,3.12-2.5,4.54-3.65
		c1.13,0.2,1.24,0.94,1.21,1.68c-0.31,7.69-1.02,15.37-0.4,24.57c2.32-3.95,3.99-6.81,5.71-9.73c6.89,7.37,7.82,17.23,4.04,41.32
		c4.85,2.14,10.67-3.97,15.17,1.41c-0.16,3.08-2.36,4.53-4.05,6.31c-1.46,1.54-3.75,2.35-4.75,5.32c5.91-0.16,11.43-1.24,16.04,2.01
		c6.15-2.15,11.93-4.21,18.37-4.41c9.86-0.3,18.73,2.41,27.09,7.24c6.05,3.49,12.07,7.05,17.95,10.83c2.65,1.7,5.59,2.21,8.47,2.75
		c26.83,5.03,52.67,13.41,78.22,22.76c19.21,7.03,38.36,14.22,57.03,22.63c2.07,0.93,4.06,1.47,6.47,1.16
		c8.14-1.06,16.36-1.52,24.48-2.74c22.89-3.46,43.94,2.89,64.65,11.49c9.68,4.02,18.66,9.55,28.56,13.14
		c9.22,3.34,18.62,5.48,28.48,5.36c10.98-0.13,21.92,0.77,32.85,1.66c6.52,0.54,12.89,0.01,19.35-0.96c3.42-0.52,5.36-2.11,7.2-4.58
		c3.18-4.27,5.18-9.16,6.97-14.05c2.63-7.2,7.33-12.35,13.76-16.19c5.15-3.07,10.37-6.01,15.38-9.28
		c5.45-3.56,10.56-7.55,14.22-13.1c1.7-2.58,3.74-4.88,7.27-3.78c2.99,0.93,4.21,3.4,3.71,8.04c-0.79,7.4-3.81,13.89-8.95,19.3
		c-3.27,3.44-6.72,6.71-10.04,10.1c-1.22,1.24-2.46,2.51-3.43,3.94c-2.67,3.95-1.45,8.55,2.79,10.69c1.09,0.55,2.34,0.89,3.55,1.08
		c7.39,1.13,14.68,2.76,22.02,4.07c8.12,1.45,16.41,0.52,24.62-0.41c12.98-1.48,25.29,1.15,37.02,6.59c3.43,1.59,6.24,4.09,7.3,7.63
		c-0.38,1.79-1.29,2.65-2.56,2.92c-5.62,1.21-11.28,2.1-17.06,1.77c-12.47-0.71-24.93-1.17-37.33,1.05
		c-2.2,0.39-4.46,0.48-6.92,0.72c1.1,2.06,2.93,2.13,4.8,2.28c7.95,0.64,15.86,1.61,23.68,3.21c10.83,2.21,21.08,6.02,30.97,10.9
		c3.92,1.94,6.96,4.8,9.29,8.47c1.13,1.78,1.57,3.69,1.12,5.72c-0.48,2.18-1.87,3.78-4.17,3.45c-3.2-0.46-6.24-1.22-9.18,0.99
		c-0.63,0.47-1.98,0.22-2.92,0c-13.68-3.18-27.61-3.73-41.56-4.25c-4.68-0.17-9.34-0.85-14.05-1.3c-0.51,2.85,1.42,3.87,3,4.82
		c4.28,2.57,8.75,4.82,13,7.42c3.19,1.95,6.25,4.13,9.18,6.45c2.01,1.59,3.12,3.73,2.55,6.56c-0.83,4.17-2.87,5.82-6.85,4.46
		c-3.76-1.28-7.52-2.85-10.88-4.93c-7.89-4.89-16.45-8.38-24.67-12.59c-2.05-1.05-4.21-1.63-6.46-1.75
		c-14.67-0.74-29.23-2.8-43.98-2.84c-8.17-0.02-16.36-1.37-24.59-1.58c-14.98-0.38-29.92-0.22-44.85,1.14
		c-3.97,0.36-7.99,0.17-11.98,0.4c-16.44,0.98-32.92,1.96-49.37,1.09c-16.9-0.89-33.73-3-50.37-6.24
		c-9.29-1.81-18.82-3.18-27.63-6.42c-11.37-4.18-23.19-5.46-34.86-7.69c-10.76-2.06-21.61-3.67-32.43-5.47
		c-15.03-2.51-29.6-6.96-44.38-10.52c-15.69-3.78-31.46-7.28-47.2-10.9c-0.55,2.45,1.32,2.74,2.37,3.52
		c11.23,8.37,22.05,17.18,31.05,28.03c5.95,7.17,10.86,14.99,14.08,23.72c10,27.07-2.04,52.85-25.4,65.66
		c-13.85,7.6-28.61,9.82-44.57,6.61c-3.61,7.62-7.33,15.07-7.66,23.7c-0.14,3.51,1.45,6.68,1.63,10.24
		c0.85,16.15,1.78,32.33,5.39,48.19c0.95,4.17,2.21,8.17,4.16,11.98c16.9,33.04,28.92,67.87,38.22,103.72
		c5.45,21.02,9.83,42.23,12.85,63.72c1.14,8.13,1.18,16.41,2.3,24.55c1.61,11.69,0.84,23.42,1.22,35.13
		c0.49,14.97,0.38,30-0.51,44.95c-0.72,12.15-2.94,24.21-4.55,36.3c-1.25,9.38-2.55,18.75-3.92,28.11
		c-0.48,3.28-0.16,6.43,0.64,9.63c0.96,3.86,2.03,7.78,2.27,11.72c0.26,4.21,1.83,7.62,4.03,11.05c5.54,8.63,10.67,17.5,13.5,27.45
		c2.4,8.42,2.88,17,2.55,25.77c-0.96,25.72-8.77,50.03-15.14,74.6c-4.38,16.89-5.61,34.02-4.45,51.21c0.9,13.39,3.91,26.6,7.49,39.6
		c0.93,3.37,1.71,6.78,2.8,10.09c2.11,6.39,1.8,12.81,0.41,19.22c-0.53,2.46-0.96,4.89-0.92,7.41c0.25,17.49-0.82,35.01,0.57,52.46
		c1.86,23.32,3.63,46.66,8.11,69.69c2.66,13.7,5.13,27.43,7.42,41.19c0.69,4.14,1.2,8.38,0.6,12.66c-0.63,4.53-0.2,8.83,2.52,12.85
		c2.11,3.13,2.75,6.94,3.48,10.61c0.54,2.72,0.53,5.44-1.07,8.5c-5.5,0.46-11.14,1.19-16.79,1.36c-10.98,0.35-21.98,0.29-32.96,0.6
		c-3.97,0.11-7.92,0.82-11.88,1.19c-1.74,0.16-3.49,0.29-5.23,0.21c-3.9-0.18-4.96-1.09-5.18-4.87c-0.28-4.99-0.36-9.99,2.01-14.65
		c1.38-2.71,1.71-5.64,2.03-8.66c1.87-17.36,3.7-34.75,2.78-52.22c-0.86-16.45-0.73-32.93-1.55-49.35
		c-0.87-17.41-2.01-34.81-3.03-52.22c-0.38-6.47-0.6-12.93-0.89-19.4c-0.2-4.5-0.85-8.89-3.44-12.82
		c-2.11-3.19-2.86-6.71-2.58-10.66c0.43-5.95-0.01-11.92,0.97-17.9c1.06-6.45-0.69-12.91-1.06-19.37
		c-1.79-31.07-9.04-61.1-18.5-90.6c-3.36-10.46-9.14-19.91-14.43-29.51c-4.96-9-9.31-18.18-11.14-28.41
		c-1.95-10.93-1.62-21.86-0.31-32.8c0.27-2.22,0.8-4.42,1.22-6.62c0.98-5.12,3.55-10.12,3.01-15.27c-0.54-5.12-3.1-10-4.07-15.11
		c-1.78-9.37-6.42-17.07-12.18-24.47c-15.52-19.95-29.34-41.02-40.27-63.87c-10.69-22.35-19.59-45.34-24.06-69.83
		c-1.07-5.88-1.94-11.79-2.99-18.24c-10.44-7.48-20.1-16.41-27.36-27.33c-2.72,0-4.93,0-7.08,0c-1.52,2.06-1.89,4.32-2.03,6.46
		c-1.22,18.26-5.6,35.94-10.01,53.59c-9.75,39.06-23.22,76.87-38.86,113.92c-6.98,16.55-14.25,32.97-21.35,49.47
		c-2.98,6.94-5.03,14.3-5.2,21.73c-0.36,15.31-4.45,29.52-10.77,43.22c-8.68,18.81-17.3,37.64-24.63,57.02
		c-7.23,19.14-14.12,38.39-17.64,58.67c-1.45,8.38-1.84,16.82-2.72,25.23c-1,9.66-0.73,19.41-2.38,29.01
		c-0.3,1.75-0.42,3.57-1.61,4.89c-3.25,3.58-3.77,8.14-4.31,12.53c-2.33,18.78-5.1,37.5-6.74,56.37
		c-1.21,13.9-2.03,27.82-3.08,41.71c-1.26,16.74-0.92,33.46-0.56,50.15c0.22,9.95,0.77,19.92,0.74,29.88
		c-0.02,4.33,1.51,8.35,2.36,12.48c1.02,4.96,1.31,9.85,1.02,15.1c-5.36,3.11-11.44,3.17-17.26,3.7
		c-11.45,1.05-22.95,0.84-34.43,0.1c-1.24-0.08-2.5-0.13-3.72-0.32c-8.98-1.43-8.98-1.44-9.76-11.38c-3.21-0.99-5.18-3.47-6.09-7.03
		c-1.22-4.72-1.67-9.52,0.15-13.99c8.66-21.27,10.56-43.99,14.11-66.3c3.55-22.36,6.04-44.9,8.5-67.41
		c1.16-10.63,1.27-21.39,1.64-32.1c0.33-9.48,0.42-18.98,0.51-28.47c0.03-2.85,0.6-5.6,2.11-7.85
		c7.41-11.11,10.17-23.74,12.27-36.59c1.88-11.56,3.54-23.11,3.78-34.9c0.33-16.22-2.91-31.69-7.66-47.03
		c-4.27-13.81-8.18-27.73-10.04-42.14c-1.79-13.84-0.85-27.38,4.28-40.46c5.12-13.05,14.06-22.8,26.08-29.85
		C510.84,1008.47,514.81,1006.85,518.13,1003.81z M571.47,434.72c-5.16,19.99-11.19,39.49-17.12,59.02
		c-7.75,25.51-14.84,51.24-25.49,75.78c-1.15,2.64-1.18,5.07-0.6,7.91c2.99,14.72,1.89,29.18-3.07,43.41
		c-6.57,18.85-13.58,37.49-22.72,55.29c-5.81,11.31-11.07,22.9-14.05,35.35c-2.73,11.39-4.79,22.94-5.8,34.57
		c-0.64,7.29-1.29,14.88,1.54,22.29c3.73,0.21,7.24,1.37,10.8,0.75c0.16-0.95,0.39-1.46,0.31-1.92
		c-4.75-29.43,2.81-55.81,19.91-79.76c8.63-12.08,19.12-22.35,31.17-31c11.55-8.29,23.23-16.34,36.33-22.17
		c10.77-4.79,21.88-8.36,33.41-10.58c3.35-0.65,6.25-1.83,8.34-4.49c3.69-4.71,7.25-9.52,10.86-14.29
		c2.47-3.27,3.62-6.99,4.25-11.02c2.12-13.63,2.43-27.22,0.53-40.92c-0.47-3.41-1.46-5.92-3.73-8.5
		c-9.4-10.67-18.67-21.47-24.45-34.72c-0.68-1.57-1.74-3.02-2.83-4.36c-13.04-16.19-22.41-34.14-25.92-54.78
		c-0.64-3.79-2.05-7.13-3.46-10.58C578.33,436.73,576.12,434.69,571.47,434.72z"/>
	<path fill="#1A1A1A" d="M506.2,1463.16c-5.31,2.25-10.62,2.09-15.94,0.02c-1.62-0.63-3.24-1.35-4.92-1.75
		c-3.8-0.91-6.93-2.58-8.07-6.75c-2.73,1.91,0.29,3.77-0.8,6c-5.43,0.42-10.98,4.22-17.56,0.53c3.95-5.54,9.65-9.91,8.52-17.17
		c-0.95-6.07-1.19-12.57-6.88-16.46c2.54-13.59,5.12-26.79,7.46-40.03c1.91-10.78,3.07-21.64,3.79-32.6
		c0.63-9.66,2.43-19.25,3.74-28.87c1.28-9.38,1.79-18.82,2.72-28.23c1.6-16.18,0.3-32.39,1.2-48.58c0.25-4.54,1.67-8.31,4.17-11.7
		c1.83-2.48,2.98-5.09,3.84-7.97c1.35-4.54,3.22-8.85,5.5-13.04c1.88-3.47,3.1-7.3,4.61-10.97c1.29-0.93,1.79-2.37,2.27-3.76
		c0.55-1.6,0.18-2.91-1.86-3.26c-1.31,1.88-2.18,3.85-1.47,6.22c-2.27,1.72-2.63,4.76-5.17,7.28c0.9-4.42,1.67-8.18,2.42-11.94
		c2.99-14.98,4.69-30.06,3.32-45.34c-0.33-3.72-0.86-7.44-1.64-11.09c-1.1-5.21-0.9-10.35-0.25-15.59
		c0.86-6.91,0.88-13.89,1.87-20.83c4.4-30.81,16.63-57.82,38.2-80.43c5.17-5.42,10.25-10.92,15.53-16.23
		c2.25-2.26,3.51-4.64,3.48-7.9c-0.05-5.74,0.36-11.48,0.28-17.22c-0.45-34.59-6.6-68.36-14.36-101.96
		c-4.1-17.75-8.6-35.37-13.25-52.97c-7.33-27.7-10.51-55.88-8.23-84.5c1.36-17.05,5.39-33.44,14.44-48.3
		c10.46-17.15,25.35-28.79,44.25-35.04c22.74-7.52,45.95-8.99,69.34-3.17c12.55,3.12,23.64,9.09,33.02,18.45
		c-3.04,6.76-6.83,12.91-9.61,19.58c-5.54,13.27-8.53,27.12-9.43,41.36c-0.66,10.55,1.48,20.84,4.79,30.86
		c0.62,1.87,1.33,3.71,2.07,5.76c-9.65,11.35-21.45,20.14-32.63,29.49c1.28,2,2.37,1.03,3.34,0.45
		c10.47-6.17,18.79-14.78,26.82-23.73c0.99-1.11,1.75-2.45,3.71-3.02c1.63,2.26,3.44,4.53,4.27,7.47c-0.6,2.16-2.93,1.51-4.56,2.88
		c-2.04,10.87-3.91,22.16-6.48,33.31c-7.12,30.91-16.29,61.2-26.74,91.13c-10.21,29.23-22.19,57.76-33.95,86.37
		c-3.33,8.09-6.24,16.24-8.93,24.54c-1.25,3.85-2.13,7.82-2.16,11.71c-0.1,14.06-4.12,27.05-9.81,39.66
		c-8.52,18.88-17.14,37.71-24.46,57.1c-7.14,18.92-13.6,38.07-17.71,57.91c-2.33,11.24-3.56,22.65-3.61,34.13
		c-0.03,7.28-1.45,14.38-2.01,21.58c-0.06,0.74-0.17,1.51-0.44,2.19c-6.45,16.91-8.37,34.81-11.09,52.49
		c-2.8,18.21-4.05,36.62-5.19,55.03c-0.72,11.71-1.2,23.4-1.31,35.12c-0.13,12.98,0.88,25.91,1.79,38.84
		c0.62,8.81,0.07,17.42-3.6,25.86c-3.88,0.86-8.25,1.52-6.95,7.34L506.2,1463.16z M504.07,1441.03c-0.44-4.3-0.43-9.3-4.13-13.27
		c-3.63-3.89-8.12-3.26-9.82,1.75c-1.6,4.68-2.8,9.57-2.37,14.6c0.5,5.81,2.56,11.14,6.2,15.68c2.47,3.07,5.29,2.89,7.27-0.34
		c2.35-3.85,4.13-8,3.06-12.68C503.87,1445.04,503.5,1443.4,504.07,1441.03z"/>
	<path fill="#1A1A1A" d="M895.73,1454.19c-1.56-1.77-0.5-3.71-0.34-5.56c0.74-8.53-2.73-15.52-8.1-21.72
		c-1.78-2.05-4.09-1.88-5.75,0.31c-4.17,5.48-6.01,11.48-2.98,18.11c1.53,3.35,3.47,6.52,5.21,9.74c-1.53,2.19-3.39,2.23-5.4,1.38
		c-2.48-1.05-4.92-1.01-7.18,0.39c-3.7,2.3-7.57,1.91-11.62,1.04c-1.31-1.55-0.5-3.26-0.09-4.85c1.09-4.2,0.65-8.46,0.5-12.68
		c-0.1-2.72-0.9-5.42-2.44-7.77c-3.41-5.17-8.91-5.12-11.92,0.33c-3.73,6.75-2.84,14.01-1.6,21.2c0.29,1.66,1.03,3.25,1.68,5.22
		c-5.57-2.59-6.84-4.34-6.36-9.45c0.55-5.95,1.31-11.89,2.17-17.8c0.69-4.7,1.04-9.41,1.12-14.16c0.06-3.73-0.12-7.45,0.74-11.18
		c0.55-2.38,0.61-5.06,0.12-7.45c-1.27-6.2-0.92-12.44-0.81-18.66c0.14-7.77-1.75-15.36-1.75-23.11c0-2.24-0.24-4.48-0.3-6.73
		c-0.53-19.43-1.08-38.86-2.73-58.24c-0.64-7.44-1.15-14.9-1.77-22.35c-0.37-4.42-0.61-8.69-4.04-12.39
		c-2.68-2.89-1.65-7.2-1.28-10.87c1.31-13.19,0.76-26.33,0.07-39.55c-1.35-25.66-8.46-50.04-14.8-74.68
		c-2.41-9.38-6.32-17.73-11.11-25.93c-6.06-10.36-11.06-21.26-15.21-32.5c-4.58-12.42-5.43-25.38-3.79-38.36
		c0.99-7.84,1.49-15.91,5.03-23.25c0.72-1.5,0.16-2.92-0.34-4.33c-3.24-9.18-5.88-18.55-8.16-28.01c-0.72-3-2.3-5.47-4.07-7.92
		c-7.46-10.32-15.11-20.51-22.19-31.08c-20.46-30.53-35.28-63.67-44.86-99.14c-1.62-6.01-2.74-12.16-4.01-18.25
		c-0.14-0.66,0.23-1.42,0.43-2.46c9.55,4.29,18.59,9.66,30.34,10.39c-2.55-2.23-4.65-2.72-6.69-3.42
		c-26.35-8.97-45.56-26.31-58.54-50.65c-4.24-7.95-6.63-16.61-7.78-25.63c-2.58-20.22,2.1-39.12,10.2-57.37
		c5.09-11.47,11.62-22.09,20.03-31.47c13.33-14.87,29.99-22.69,49.96-23.59c10.66-0.48,20.81,1.1,30.59,5.6
		c16.81,7.75,27.75,20.73,34.67,37.54c4.98,12.11,7.34,24.84,9.01,37.73c1.15,8.91,1,17.93,1.77,26.84c1,11.49,1.11,22.97,0.65,34.4
		c-0.95,23.21-1.22,46.43-0.69,69.62c0.29,12.67,0.58,25.39,2.14,38.03c0.89,7.16,1.07,14.41,1.72,21.6
		c1.95,21.6,5.07,43.05,8.31,64.48c1.56,10.34,3.37,20.65,5.2,30.94c0.36,2.05-0.29,3.84-1.32,6.35c3.46-1.64,4.8-0.03,5.87,2.02
		c4.19,8.02,6.86,16.6,8.94,25.35c3.63,15.3,5.57,30.89,7.47,46.47c2.68,22,5.06,44.04,7.76,66.04c0.63,5.18,1.9,10.29,3.07,15.39
		c0.61,2.68,1.35,5.31,1.17,8.1c-1.14,17.46,2.62,34.23,7.16,50.89c1.24,4.57,2.36,9.19,3.83,13.69c1.36,4.18,1.68,8.55,0.7,12.57
		c-1.92,7.85-2.17,15.74-2.21,23.71c-0.05,8.99-0.4,17.97-0.45,26.96c-0.06,11.24,0.79,22.41,2.61,33.51
		c0.92,5.66,1.07,11.4,1.65,17.09c2.01,19.89,6.13,39.39,10.01,58.94c1.45,7.32,2.99,14.7,3.47,22.12
		c0.38,5.87-0.8,11.85-1.36,17.77C896.98,1453.76,896.23,1453.94,895.73,1454.19z M843.97,1228.91c1.21-0.77,2.38-1.59,3.62-2.31
		c4.76-2.75,9.51-2.3,14.18,0.21c2.66,1.43,4.75,3.55,6.87,5.67c0.86,0.87,1.39,2.47,3.53,2.2c-1.09-4.01-4.46-6.22-5.2-9.3
		c-5.5-1.77-10.49-3.04-15.76-2.68c0.63-4.32,0.63-4.32-1.32-6.98C848.93,1220.54,846.27,1224.4,843.97,1228.91z M809.29,1001.84
		c3.32,5.64,3.32,5.64,7.25,6.54C814.37,1005.59,812.21,1003.36,809.29,1001.84z M862.24,1219.4c0.75-5.17,0.75-5.17-2.36-8.93
		C860.74,1213.72,861.39,1216.18,862.24,1219.4z"/>
	<path fill="#1A1A1A" d="M643.18,241.11c-2.87,5.36-2.19,11.36-5.85,15.76c-2.19,0.79-3.91,0.06-4.98-1.94
		c-3.62-6.77-9.83-11.97-11.96-19.66c-0.35-1.27-1.49-1.87-2.53-2.6c-2.46-1.72-3.7-4.91-2.93-7.1c1.49-4.21-0.38-7.28-1.99-10.47
		c-1.26-2.5-1.61-4.76-1.31-7.57c0.39-3.57,0.3-7.23-0.03-10.91c-0.76-8.66-1.1-17.28,2.23-25.83c2.14-5.49,2.3-11.77,5.65-16.91
		c4.19-6.44,7.6-13.51,14.14-18.13c0.6-0.43,1.14-0.98,1.61-1.56c6.26-7.78,14.78-11.45,24.19-13.86
		c11.17-2.88,22.31-5.31,33.94-3.33c6.14,1.05,12.28,2.08,17.95,6.01c0.02,6.41,0.54,13.06,2.94,19.39
		c1.06,2.79,1.98,5.65,3.26,8.35c2.55,5.41,5.27,10.74,7.98,16.06c2.75,5.4,6.46,10.1,11.3,13.73c4.07,3.05,5.53,6.47,4.03,11.62
		c-1.79,6.17-3.05,12.51-3.79,18.94c-0.28,2.42-1.4,4.77-2.32,7.08c-1.94,4.86-4.23,9.6-5.95,14.53c-1.3,3.73-3.64,6.58-6.51,8.97
		c-7.32,6.08-15.17,11.73-24.4,14.07c-10.05,2.56-19.86,6.57-30.6,6.16c-5.29-0.2-9.66-1.77-13.5-5.38
		C649.24,252.28,645.38,247.62,643.18,241.11z"/>
	<path fill="#1A1A1A" d="M560.31,439.16c3.69,2.76,3.79,6.89,3.35,10.72c-0.48,4.17-1.76,8.28-3.03,12.31
		c-9.25,29.26-18.51,58.52-27.94,87.73c-1.75,5.43-3.33,10.97-6.27,15.98c-1.64,2.79-0.62,5.76-0.23,8.69
		c1.85,13.75,1.63,27.43-2.57,40.77c-6.23,19.78-13.64,39.12-22.98,57.67c-4.6,9.15-9.58,18.19-12.31,28.08
		c-5.06,18.31-9,36.84-8.17,56.04c0.2,4.48,0.31,9,2.78,13.24c2.54,0.58,5.22,1.1,7.84,1.82c4.8,1.32,5.75,2.4,5.82,7.27
		c0.11,8.74,0.03,17.48,0.03,26.57c-4.8,4.19-9.65,8.41-14.64,12.76c-3.27-1.93-4.09-4.15-3.1-7.57c1.3-4.52,3.71-8.16,7.27-11.08
		c1.72-1.41,3.66-2.56,5.47-3.81c0.53-2.24-0.71-4.33,0.51-6.56c-1.37-0.18-2.14-0.5-2.77-0.32c-3.79,1.09-6.53,3.51-8.07,6.86
		c-3.53,1.07-5.77,0.44-7.82-2.64c-5.14-7.75-12.85-9.16-21.87-8c2.81,2.47,5.84,2.33,8.74,2.82c5.77,0.97,8.19,3.01,11.09,9.05
		c-2.54,2.17-5.15,4.4-8.04,6.88c-4.01-0.36-8.13,0.09-11.92,2.46c-2.3,1.44-3.95,3.4-3.96,5.99c-0.04,6.29,1.29,12.26,5.11,17.28
		c2.96-0.21,3.86-1.83,4.35-3.65c-0.04-2.69-3.56-1.53-3.83-4.04c-0.3-2.7-1.38-5.32-1.67-8.02c-0.39-3.54,5.57-7.56,8.68-5.44
		c2.33,1.59,4.41,3.26,5.4,5.97c1.54,4.21,3.06,8.43,4.59,12.63c-1.85,3.99-5.28,6.8-6.65,10.78c1.53,1.36,2.61,0.34,3.32-0.53
		c2.19-2.68,4.75-5.13,5.14-8.93c0.5-4.88-0.32-9.46-2.57-13.78c-1.15-2.2-2.43-4.32-3.77-6.71c3.22-4.11,6.27-8.12,12.25-7.83
		c0.49,2.96-1.09,4.47-1.75,6.29c-0.59,1.63-1.24,3.27-1.54,4.97c-0.72,4.14,1.15,7.26,4.28,9.76c3.08,2.45,5.61,0.28,8.24-1.04
		c3.25,4.93,3.26,5.65-0.18,9.43c-9.62,10.58-21.87,14.18-35.67,13.7c-7.89-9.69-13.44-20.17-15.63-32.24
		c-1.56-8.58-2.93-17.19-4.33-25.8c-0.65-4-0.13-7.81,1.23-11.73c3.67-10.61,7.51-21.22,10.17-32.1
		c2.17-8.87,5.96-16.78,10.17-24.73c22.43-42.33,39.09-86.88,50.38-133.43c5.18-21.33,9.88-42.78,15.18-64.08
		c4.94-19.88,10.78-39.48,20.53-57.68c2.96-5.52,6.02-10.94,10.35-15.53c3.12-3.31,6.55-6.13,11.21-6.97L560.31,439.16z"/>
	<path fill="#1A1A1A" d="M1339.42,420.89c-3.1,1.42-6.33,1.43-9.51,1.4c-5.99-0.06-11.98-0.21-17.96-0.48
		c-10.04-0.47-19.92,0.78-29.79,2.38c-1.47,0.24-3.2,1.02-4.37,0.52c-5.14-2.19-9,0.61-13.36,2.69c2.5,2.57,4.73-0.51,6.99,0.16
		c1.48,0.89,1.91,2.55,4.47,2.95c21.66,3.44,43.27,7.2,63.13,17.42c3.45,1.78,5.49,4.11,6.73,7.48c0.44,1.19,0.29,2.45-0.55,3.51
		c-2.47,1.45-4.4-0.39-6.31-1.16c-13.7-5.51-27.72-9.89-42.29-12.36c-7.12-1.2-14.26-2.88-21.41-3c-4.31-0.07-8.7,0.58-13.79-0.71
		c0.84,2.29,2.04,2.79,3.38,3.02c1.47,0.25,2.97,0.38,4.46,0.53c20.12,1.98,39.93,5.51,59.17,11.85c1.64,0.54,3.24,1.19,4.75,2.49
		c-3.69-0.66-7.43-1.13-11.06-2.02c-7.09-1.74-14.36-1.6-21.53-2.1c-9.15-0.64-18.38,0.12-28.11-1.76
		c1.37,5.49,4.42,8.78,8.43,11.34c4.84,3.09,9.72,6.11,14.53,9.25c1.87,1.23,3.68,2.6,5.32,4.11c1.55,1.43,2.33,3.23,1.2,5.32
		c-1.36,1.35-2.77,0.74-4.2,0.25c-4.3-1.46-8.13-3.83-11.89-6.28c-7.38-4.81-15.58-7.87-23.58-11.35c-2.25-0.98-4.79-1.7-7.23-1.8
		c-10.46-0.41-20.79-2.39-31.31-2.36c-8.36,0.02-16.73-0.63-25.06-1.98c-5.87-0.95-11.94-0.86-17.93-0.85
		c-12.99,0.02-25.97,0.39-38.95,0.37c-2.67,0-5.28,1.6-8.55,0.18c4.83-8.34,9.27-16.82,6.83-26.73c-2.39-9.67-9.42-16.1-17.08-22.39
		c3.84-1.14,6.82,0.56,9.82,1.25c7.91,1.83,15.92,1.17,23.87,1.42c9.96,0.31,19.87,1.7,29.87,1.39c7.18-0.23,14.45,0.41,21.1-3.35
		c1.23-0.76-0.69-1.98,0.3-3.08c4.46-4.93,6.61-11.13,9.07-17.1c2-4.84,5.09-8.56,9.41-11.3c5.06-3.2,10.21-6.25,15.33-9.35
		c6.68-4.04,12.8-8.73,17.31-15.22c1.23-1.77,2.65-2.86,4.84-2.66c1.94,7.41,0.32,14.35-4.98,20.07c-3.04,3.29-6.44,6.25-9.75,9.29
		c-2.21,2.03-4.44,4.01-6.11,6.55c-3.99,6.07-2.01,13.94,4.9,15.75c10.56,2.78,21.07,6.09,32.19,6.4
		c9.49,0.26,18.98-1.19,28.43-0.03c7.4,0.91,14.94,0.91,22.09,3.5C1336.09,416.3,1336.36,416.44,1339.42,420.89z"/>
	<path fill="#1A1A1A" d="M816.23,422.93c-0.32-1.19-0.64-2.38-1.05-3.89c2.64-1.85,5.23-3.66,7.56-5.29
		c7.6,0.73,13.51,4.25,19.21,8.43c12.52,9.18,24.26,19.19,34.2,31.17c4.49,5.42,8.1,11.41,10.85,17.85
		c7.51,17.6,6.92,34.62-4.98,50.2c-6.93,9.07-16.08,15.36-26.68,19.91c-9.08,3.9-18.26,4.6-27.81,3.6
		c-1.22-0.13-2.43-0.46-3.61-0.81c-0.43-0.13-0.77-0.59-1.67-1.32c0.92-7.24,1.98-14.84,2.82-22.46
		c1.45-13.15,1.89-26.29-2.06-39.32c-0.24,2.77-0.49,5.54-0.78,8.84c-2.9-1.76-3.81-4.16-4.06-6.85c-0.32-3.44,0.18-6.89-1.58-10.23
		c-0.9-1.71,0.46-3.81,0.98-5.73c2.03-7.44,3.19-15.01,3.51-24.46c-3.79,8.66-3.04,16.75-6.5,23.67c1.14-7.32,2.48-14.59,2.04-22.04
		c-0.13-2.22,0.39-4.35,0.98-6.55c0.99-3.71,1.67-7.74-1.1-11.24C816.42,425.25,816.33,424.09,816.23,422.93z"/>
	<path fill="#1A1A1A" d="M778.95,404.48c2.17,0.48,4.34,0.98,6.51,1.45c11.21,2.41,19.12,8.9,23.93,19.27
		c4.67,10.06,5.11,20.62,3.29,31.3c-1.25,7.31-3.13,14.51-4.73,21.76c-1.4,1.27-2.81,2.54-4.21,3.82c-2.44-0.31-4.19,1.4-6.28,2.12
		c-13.79,4.76-26.68,3.84-37.45-6.89c-6.7-6.68-10.23-15.25-12.23-24.43c-2.05-9.41-0.15-18.21,4-26.71
		c0.85-1.73,2.47-3.25,1.97-5.49l-0.23,0.24c4.04-1.39,5.45-5.71,8.77-7.94c0.4-0.27,0.27-1.32,0.39-2.01
		c2.45-0.93,4.9-1.87,7.35-2.8c3.08-1.32,6.74-1.28,9.25-3.94L778.95,404.48z M764.2,449.12c-1.21,0.65-1.48,1.79-1.52,3.01
		c-0.11,3.67,0.72,7.07,2.97,10.05c0.96,0.43,1.91,0.86,2.87,1.3c0.2,1.88,1.5,2.57,3.05,2.17c3.9-1,7.1-2.9,7.63-7.44l-0.16,0.23
		c4.24-3.11,3.24-7.16,1.89-11.17c-1.37-4.04-3.29-7.71-7.87-9.01c-3.59-1.02-7.38,0.99-8.81,4.68c-0.84,2.17-0.44,4.36-0.22,6.55
		L764.2,449.12z M782.54,412.7c-2.4-1.8-4.46-1.3-6.28-0.7c-4.98,1.63-9.82,3.64-13.95,6.98c-5.02,4.05-8.51,9-9.19,15.66
		c-0.2,1.96-0.74,3.92-1.42,5.77c-1.35,3.64-1.23,7.26-0.56,11.01c1.16,6.51,3.73,12.47,7.44,17.79
		c6.66,9.54,15.56,15.38,27.73,14.52c3.33-0.24,6.9-0.49,9.1-3.9c-2.2-1.37-4.05-0.24-5.96,0.08c-8.58,1.42-16.22-0.4-22.9-6.27
		c-6.25-5.48-9.53-12.58-12.18-20.18c-2.46-7.06-0.18-13.67,1.59-20.33c1.82-6.89,6.18-11.8,12.45-15.09
		C772.76,415.75,777.22,413.68,782.54,412.7z M803.47,425.89c2.26,7.05,4.2,13.83,4.26,21.18c0.06,7.46-2.64,14.5-3.13,22.66
		C812.6,458.56,812.19,433.77,803.47,425.89z"/>
	<path fill="#1A1A1A" d="M584.24,437.21c-0.63,0.35-1.25,0.7-2.43,1.37c-1.2-2.03-2.5-4.23-4.07-6.88c-2.75-0.03-5.94,0.93-8.23-1
		c-2.72,1.37-1.35,4.65-4.16,5.43c-1.82,0.51-3.36,1.99-5.03,3.03l0.21,0.25c-0.4-2.95-3.39-3.41-5.04-5.16
		c-1.66-1.76-4.32-2.64-4.71-5.95c3.02-2.91,6.28-5.89,9.36-9.04c4.88-4.99,4.98-5.42,4.92-12.72c0.7,0.21,1.38,0.33,1.99,0.61
		c4.65,2.18,9.04,2.23,13.19-1.26c1.82-1.53,4-1.95,6.71-1.1c1.33,3.14,2.99,6.44,4.13,9.91c0.82,2.51,2.5,3.94,4.73,4.23
		c6.5,0.83,12.88-0.19,19.02-2.4c1.08-0.39,1.87-1.58,3.16-2.74c2.48,6.24,3.57,12.52,4.51,18.77c0.6,3.99,1.25,7.34,5.87,8.35
		c2.95,0.64,2.26,5.18,4.22,5.32c3.13,0.47,4.26-0.67,5.25-1.72c3.94-4.16,7.77-8.44,11.66-12.66c1.41-1.53,2.06-3.37,2.41-5.38
		c0.55-3.17,1.16-6.33,1.9-10.3c1.66,5.16,3.18,9.58,4.49,14.07c0.73,2.49-0.87,4.31-2.5,5.88c-2.33,2.25-4.74,4.43-7.23,6.5
		c-4.73,3.94-7.62,8.59-6,14.89c-2,2.37-5.24,2.37-6.82,4.85c-1.67,2.61-4.06,3.41-7.14,2.38c-1.89-0.63-3.92-0.8-6.15,0.73
		c-1.31,4.31-0.68,8.85-0.03,13.57c0.94,6.84,2.29,13.25,8.11,17.17c0.4,3.8-2.84,4.93-4.25,7.57c0.18,2.9,1.93,5.62,1.78,9.05
		c-0.17,4.11,2.05,8.11,5.3,11.2c2.55,2.41,4.56,5.09,5.14,8.84c0.63,4.11,4.33,5.82,7.79,7.77c0.24,4.02,0.72,7.93,4.67,10.34
		c0.87,0.53,1.71,2.34,1.46,3.26c-1.42,5.26,0.21,11.8-5.98,15.15c-1.07,0.58-0.32,2.44-2.31,2.62c1.18-8-2.95-15.72-0.43-24.19
		c-9.23-10.77-15.93-23.67-24.5-36.07c1.36-2.02,3.25-4.17,2.69-7.06l-0.29,0.26c2.52-1.61,1.54-3.92,1-5.95
		c-1.02-3.82-2.49-7.51-3.42-11.35c-3.12-12.86-8.35-24.88-14.58-36.47c-1.32-2.45-2.26-5.57-5.54-6.49l0.18,0.2
		c-2.11-5.18-3.95-7.03-9.16-9.19l0.19,0.17c-0.74-2.14-2.32-3.22-4.45-2.67c-2.15,0.55-1.8,2.57-1.79,4.26
		C584.03,437.47,584.24,437.21,584.24,437.21z M601.4,424.91c-3.9,6.63-3.48,13.63,0.72,18.28c1.93,2.15,4.25,3.22,7.2,3.12
		c4.31-0.14,6.26-2.17,4.83-6.07C611.83,433.9,608.32,428.33,601.4,424.91z"/>
	<path fill="#1A1A1A" d="M803.73,482.07c1.4-1.27,2.81-2.54,4.21-3.82c1.53-1.56,3.05-3.12,4.67-4.77
		c5.15,2.55,1.07,7.81,4.34,11.36c-3.6,1.03-8.05-1.49-9.05,3.44c-0.82,0.98-1.63,1.96-2.45,2.94c-4.05,0.6-4.56,4.23-5.7,7.06
		c-5.46,13.44-6.41,27.56-5.44,41.82c0.39,5.68,1.77,11.31,4.04,16.61c1.07,2.49,2.02,5.24,5.54,5.16c1.13,1.7,2.55,2.78,4.73,2.28
		c1.42-0.15,2.74-1.24,4.36-0.44c0.66,4.31,0.28,8.13-3.35,11.4c-1.94,1.74-2,5.1-4.56,6.8c-2.43-1.54-2.22-4.38-3-6.58
		c-1.45-4.1-3.37-7.75-6.63-10.68c-2.26-2.03-4.4-4.17-3.88-7.64c0.04-0.24,0.07-0.56-0.05-0.74c-4.16-6.16-2.39-12.88-1.77-19.45
		c0.38-3.95-0.53-7.02-3.31-10.17c-4.72-5.33-4.84-10.51-1.62-17.11c-2.32-6.51-2.32-6.51-10.67-8.19
		c-1.03-1.05-0.66-2.31-0.62-3.54c0.1-3.32-1.24-5.73-4.36-7.16c-1.81-0.83-3.4-2.33-5.27-2.8c-6.32-1.56-10.17-6.83-15.48-9.85
		c-1.38-0.79-2.15-2.06-2.21-3.69c-0.05-1.25-0.28-2.53-0.07-3.74c1.55-9.22-4.42-13.05-12.2-15c-4.75-1.19-9.32-3.45-14.38-3.48
		c-1.52-0.01-3.11-0.59-3.88-1.96c-3.15-5.56-8.38-9.13-12.94-13.47c1.17-2.65,2.26-5.12,3.39-7.68c3.51,2.38,3.66,6.53,5.88,9.78
		c3.61,1.93,7.87,2.24,12,3c4.52,0.83,7.57-1.74,10.38-4.76c3.6,1.44,6.01,4.69,10.14,5.01c-0.38,8.1,1.15,15.59,4.31,22.77
		c4.25,9.67,10.26,17.67,20.29,21.98c10.81,4.65,21.38,3.68,31.73-1.46C802.24,484.65,803.35,483.67,803.73,482.07z"/>
	<path fill="#1A1A1A" d="M805.46,491.23c0.82-0.98,1.63-1.96,2.45-2.94c4.18-1.01,5.21-0.63,7.17,2.61c2.52,4.15,3.45,8.8,3.95,13.5
		c0.69,6.42,0.48,12.91,1.52,19.32c0.6,3.72-0.42,7.41-0.97,11.1c-0.37,2.44-3.64,2.65-3.78,5.52c-0.1,2.14-1.28,4.26-2.15,6.32
		c-0.96,2.29-1.91,4.63-3.26,6.69c-0.91,1.39-2.5,2.35-3.79,3.49c-1.68-2.83-3.36-5.67-5.03-8.5c0.63-2.46,0.58-4.94,0.27-7.43
		c-0.22-1.76-0.14-3.41,0.88-5.02c3.47-5.49,2.75-11.48,1.66-17.39c-0.32-1.74-0.61-3.3-0.22-5.09c1.34-6.11,3.43-11.97,5.58-17.82
		c0.53-1.44,1.43-2.65,3.31-2.34c0.21,2.25,0.8,4.32,3.15,5.92c0.8-2.95-0.47-4.91-2.16-6.76c-0.55-1.19-1.37-2.05-2.85-2.22
		c-2.96,1.2-4.45,3.72-5.48,6.61c-3.09,8.71-5.14,17.6-6.3,26.83c-0.86,6.82,0.11,13.36,0.47,20.01c0.09,1.63-0.09,3.59,1.78,4.64
		c-0.52,1.93-0.33,3.89,0.24,5.72c0.58,1.84,1.46,3.66,3.88,3.69c2,1.93,3.58,0.67,5.08-0.73c2.96-2.74,4.19-6.63,7.3-11.31
		c-1.54,6.57-3.16,11.22-6.99,14.91c-1.03,0.99-1.68,2.38-2.51,3.58c-2.19,0.5-3.61-0.58-4.73-2.28
		c-8.24-15.53-7.78-32.02-5.69-48.79C799.19,505.25,802.6,498.36,805.46,491.23z"/>
	<path fill="#1A1A1A" d="M637.51,70.07c7.13,3.66,12.45,8.65,15.64,15.79c1.32,2.96,2.88,5.82,4.11,8.81
		c2.72,6.62,1.38,10.28-5.29,15.04c-5.11,3.65-11.29,3.44-15.75-0.53c-6.41-5.7-6.41-5.7-8.17-12.84c2.02-1.63,4.59-1.67,6.95-2.36
		c3.9-1.14,7.41-3,9.9-6.36c0.92-1.24,1.41-2.58,0.04-4.27c-5.2,5.37-10.95,9.51-19.15,8.72c-1.84-2.57-3.7-5.17-5.84-8.16
		c3.3-2.53,7.48-2.76,10.59-5.21C633.54,76.34,635.25,73.05,637.51,70.07z"/>
	<path fill="#1A1A1A" d="M614.2,504.68c-3.37-2.27-5.43-5.7-7.61-8.94c-6.52-9.69-12.24-19.83-16.55-30.74
		c-2.57-6.52-4.34-13.16-4.26-20.22l-0.23,0.07c1.58,1.58,0.96,3.77,1.57,5.61c0.6,1.82,1.4,3.56,2.61,6.6
		c1.26-5.65-2.06-9.56-0.21-14.38c5.7,5.73,9.8,11.67,11.09,19.26c1.14,6.72,3.41,12.99,7.83,18.24c2.17,2.58,3.14,5.55,4.17,8.62
		c0.83,2.46,0.69,5.4,3.13,7.18l-0.17-0.37c-0.31,3.13,0.11,6.38-1.54,9.29L614.2,504.68z"/>
	<path fill="#1A1A1A" d="M770.02,408.17c-2.45,0.93-4.9,1.87-7.35,2.8c-4.12,2.33-7.98,4.91-9.16,9.95l0.23-0.24
		c-1.74,0.23-2.36,1.68-3.09,2.93c-1.25,2.13-2.39,4.33-4.19,7.63c0.13-2.39-0.25-3.89,0.34-4.62c3.12-3.93,2.43-8.41,2.31-12.85
		c-0.03-1.25-0.06-2.5,0.02-3.74c0.32-4.68,1.1-5.42,5.94-5.7c1.49-0.08,3.01,0.06,4.48-0.13c2.03-0.27,3.79-1.09,4.8-3.09
		c2.1-4.19,5.37-7.79,6.19-12.9c3.83,2.89,7.07,5.98,10.87,8.02c3.97,2.13,7.84,4.11,11.48,8.97c-2.99-0.96-4.73-1.84-6.54-2.02
		c-2.52-0.25-5.38-1.55-7.42,1.3l0.33-0.25C775.56,404.06,771.98,404.22,770.02,408.17z"/>
	<path fill="#1A1A1A" d="M617.19,80.73c-3.68-4.18-7.73-7.66-7.3-14.03c5.46-1.98,10.47-4.89,14.45-9.65
		c4.85,2.6,5.47,8.62,10.55,10.74C631.4,75.67,625.69,79.56,617.19,80.73z"/>
	<path fill="#1A1A1A" d="M729.25,50.76c3.82,4.85,9.13,4.79,14.81,4.57c0.6,5-2.42,8.77-2.75,12.88
		c-10.03,6.72-17.4,6.65-21.53-3.48c0.72-1.34,1.36-2.98,2.38-4.33C724.38,57.44,725.64,53.79,729.25,50.76z"/>
	<path fill="#1A1A1A" d="M701.48,102.44c0.61-4.81,2.02-9.44,4.48-13.79c9.45,5.31,10.96,4.76,21.47,3.07
		c1.24,3.35,0.57,6.76,0.48,9.98C718.49,108.05,710.08,108.28,701.48,102.44z"/>
	<path fill="#1A1A1A" d="M903.72,1468.18c-10.34,4.41-20.19-0.61-29.84,1.11c-1.69-3.19-2.1-5.99-1.19-9.7
		c9.65,0.61,19.23-0.51,28.91-2.18C903.94,1460.57,902.96,1464.34,903.72,1468.18z"/>
	<path fill="#1A1A1A" d="M717.16,68.55c7.4,7.72,7.4,7.72,16.77,7.93c-3.83,13.04-16.21,17.12-26.48,8.39
		C710.35,79.32,713.03,73.56,717.16,68.55z"/>
	<path fill="#1A1A1A" d="M505.92,1463.43c3.04-3.39,7.2-4.78,11.59-6.44c3.47,3.9,1.15,9,3.09,13.16
		c-4.07,3.31-8.63,1.12-12.37,2.88c-1.1-1.47-1.95-2.61-2.89-3.87c-0.54,1.28-1.01,2.38-1.53,3.62c-6.36,1.41-12.76,0.86-19.43,0.74
		c-1.13-2.95-0.61-5.59-0.61-8.13c2.38-1.55,4.06,0.03,5.74,0.73c3.8,1.6,7.76,1.78,11.74,1.45c2.61-0.22,4.91-1.15,4.94-4.42
		L505.92,1463.43z"/>
	<path fill="#1A1A1A" d="M836.47,1471.69c-0.47-4.84-0.96-9.21,1.2-13.32c2.19-0.36,2.54,1.49,3.47,2.43
		c1.66,1.68,3.41,2.92,5.89,2.68c1.5-0.14,2.99-0.31,4.35,0.59c1.94,1.29,3.75,0.86,5.56-0.34c3.38-2.24,6.96-2.19,10.26-1.14
		c1.62,1.55,1.42,3.09,1.29,4.56c-0.15,1.69-1.15,2.95-2.83,2.89C856.17,1469.74,846.92,1473.05,836.47,1471.69z"/>
	<path fill="#1A1A1A" d="M608.78,43.41c3.92-0.77,7.3-0.92,10.57,0.37c2.13,2.71,2.41,5.99,3.85,9.13
		c-4.06,4.43-7.37,9.52-14.71,9.22C605.95,55.94,607.07,49.99,608.78,43.41z"/>
	<path fill="#1A1A1A" d="M727.14,108.1c1.4,3.36-0.39,6.19-2.57,7.66c-3.04,2.05-5.73,4.91-10.2,5.79
		c-4.28-2.33-9.08-4.89-14.04-6.69c-0.98-2.8-0.02-5.06,0.34-7.45C719.57,112.11,719.88,110.95,727.14,108.1z"/>
	<path fill="#1A1A1A" d="M852.19,1432.11c7.88,9.32,4.84,18.45,2.63,28.1c-5.77-1.39-7.2-5.63-7.42-9.66
		C847.07,1444.44,845.17,1437.61,852.19,1432.11z"/>
	<path fill="#1A1A1A" d="M745.77,34.85c3.25,5.4-0.76,10.34,0.36,15.43c-5.71,2.1-10.53,2.76-15.11-1.81
		c1.92-4.2,3.49-8.29,4.24-12.73C738.96,35.43,742.35,35.14,745.77,34.85z"/>
	<path fill="#1A1A1A" d="M621.88,504.7c-2.32-0.07-1.41,2.98-4.25,3.54c-1.41-0.08-3.21-0.78-3.43-3.56l-0.17,0.22
		c0.92-0.04,1.84-0.08,3.27-0.15c-0.54-3.31,0.94-6.51-1.73-9.14l0.17,0.37c0.43-2.51-0.17-4.87-0.8-7.29
		c-3.89-14.91-9.56-29.06-17.81-42.13c-1.17-1.85-2.09-3.85-3.13-5.78c1.23,2.04,2.55,3.95,5.24,4.12l-0.18-0.2
		c-0.63,2.26,0.99,3.77,1.94,5.42c7.13,12.33,12.53,25.36,16.17,39.13c1.39,5.26,2.95,10.48,4.43,15.71L621.88,504.7z"/>
	<path fill="#1A1A1A" d="M609.83,39.42c-0.3-13.62,1.81-17.4,10.35-18.24c0.98,3.17-0.7,6.23-0.61,9.35
		c0.08,2.89,0.78,5.97-1.08,8.88C615.79,39.42,613.09,39.42,609.83,39.42z"/>
	<path fill="#1A1A1A" d="M889.65,1455.3c-2.73-3.1-4.89-6.35-6.65-9.8c-2.55-5.01-2.75-9.95,1.32-14.44
		C891.95,1436.65,893.76,1444.56,889.65,1455.3z"/>
	<path fill="#1A1A1A" d="M479.6,1465.05c0.76,2.9,0.64,5.12,0.18,7.32c-4.88,1.62-10.51,1.8-18.19,0.59
		c-1.63-1.6-1.62-3.51-1.09-5.51c0.38-0.35,0.67-0.82,1.08-0.98c4.6-1.81,9.74-0.6,14.36-2.6
		C476.78,1463.52,478.22,1464.57,479.6,1465.05z"/>
	<path fill="#1A1A1A" d="M455.77,1457.27c-1.04-0.46-1.49-1.39-1.47-2.39c0.1-4.45,3.72-16.68,5.95-20.39
		C466.71,1441.87,465.1,1450.07,455.77,1457.27z"/>
	<path fill="#1A1A1A" d="M740.43,15.47c3.11,4.04,4.16,8.96,5.3,13.69c-2.82,2.72-5.67,2.97-8.99,2.89
		c-2.21-4.84-0.44-9.68-0.15-14.41C736.69,16.1,738.46,15.54,740.43,15.47z"/>
	<path fill="#1A1A1A" d="M648.57,120.77c-2.77-1.42-3.89-3.33-5.59-5.55c7.39-0.33,12.27-4.51,17.07-9.05
		c2.33,2.88,1.74,5.99,2.43,8.97C658.22,118.18,653,118.27,648.57,120.77z"/>
	<path fill="#1A1A1A" d="M816.23,422.93c0.09,1.16,0.19,2.32,0.28,3.48c-0.19,1.22-0.39,2.44-0.68,4.25
		c-3-3.22-3.46-7.36-5.76-10.44c-2.37-3.18-4.86-6.22-8.01-8.97c1.17-0.95,2.1-1.7,3.31-2.68c2.44,3.39,5.05,6.55,6.82,10.34
		C813.03,420.69,813.91,422.57,816.23,422.93z"/>
	<path fill="#1A1A1A" d="M496.31,813.27c0.06,4.67,1.56,8.76-1.57,13.04c-2.85-2.66-3.39-5.73-3.41-8.86
		C491.32,815.09,493.34,814.34,496.31,813.27z"/>
	<path fill="#1A1A1A" d="M624.42,7.39c-0.8,3.86-1.43,6.89-2.04,9.86c-2.05,1.55-4.07,1.68-6.58,0.62
		C617.35,13.57,620,10.37,624.42,7.39z"/>
	<path fill="#1A1A1A" d="M585.77,444.78c-1.91-2.24-0.93-5.07-1.54-7.58l-0.21,0.26c1.66-2.15,4.07-1.4,6.23-1.59l-0.19-0.17
		c-0.75,1.23-0.12,1.81,1.02,2.14c-3.43,1.08-6.22,2.67-5.55,7L585.77,444.78z"/>
	<path fill="#1A1A1A" d="M734.85,8.56c2.11,0.05,2.74,1.47,3.06,3.21C735.07,12.64,735.07,12.64,734.85,8.56z"/>
	<path fill="#1A1A1A" d="M768.52,463.48c-0.96-0.43-1.91-0.86-2.87-1.3c0.98-4.52-1.72-8.62-1.45-13.06l-0.17,0.37
		c0.47-0.54,1.18-1,1.36-1.62c0.93-3.2,2.09-6.69,5.91-6.63c3.98,0.06,5.48,3.83,6.94,6.96c0.6,1.3,0.71,2.88,0.8,4.34
		c0.12,1.96,0.02,3.93,0.01,5.89l0.16-0.23c-1.53-0.18-2.03,1.11-2.84,1.97C774.23,462.42,771.8,463.95,768.52,463.48z"/>
	<path fill="#1A1A1A" d="M495.27,1429.51c7.56,7.69,8.28,18.41,2.21,27.04C490.15,1448.71,490.57,1438.61,495.27,1429.51z"/>
	<path fill="#1A1A1A" d="M604.79,441.73c-2.47-1.28-2.7-3.85-3.7-5.75c0.95-1.89,1.78-3.34,3.61-4.12c2.93,2.91,5.7,5.9,6.49,10.5
		C608.61,441.07,607.25,440.97,604.79,441.73z"/>
</g>
</svg>
