<?xml version="1.0" encoding="utf-8"?>
<!-- Generator: Adobe Illustrator 24.1.2, SVG Export Plug-In . SVG Version: 6.00 Build 0)  -->
<svg version="1.1" id="Layer_1" xmlns="http://www.w3.org/2000/svg" xmlns:xlink="http://www.w3.org/1999/xlink" x="0px" y="0px"
	 width="1498.31" height="1477.56" viewBox="0 0 1498.31 1477.56" enable-background="new 0 0 1498.31 1477.56" xml:space="preserve">
<g>
	<path d="M654.09,289.04c-1.93-0.96-2.46,1.09-3.65,1.7c-1.11,0.56-2.23,1.09-3.25,1.6c-8.5-3.2-10.87-6.38-11-14.65
		c1.98-0.22,1.92,1.74,2.86,2.61c0.88,0.82,1.95,1.45,2.75,2.03c3.72-0.54,4.83-3.21,5.26-5.85c0.53-3.23-0.13-6.89-2.44-9.04
		c-3.71-3.46-7.49-7.41-13.8-7.4c-1.37,3.47-1.78,7.49-4.98,10.25c-2.87,2.48-5.89,4.36-9.41,5.49c-1.62-1.96,0.26-2.18,1.04-2.82
		c3.86-3.16,5.18-7.01,3.75-11.92c-0.98-3.37-1.95-6.6-4.46-9.27c-7.76-8.22-10.7-18.27-10.76-29.34c-0.02-3.21,0-6.42,0-10.08
		c-7.36,4.16-6.38,12.16-8.75,19.12c-4.73-3.33-5.51-7.6-4.75-12.01c1.21-7.01,6.16-10.3,12.81-11.07c0.39-1.99-0.8-3.12-1.55-4.34
		c-8.05-12.96-6.01-25.67,1.37-37.93c2.3-3.83,4.57-7.59,6.43-11.67c6.26-13.7,15.97-23.91,30.61-28.71
		c6.56-2.15,13.19-2.25,19.7,0.38c0.9,0.37,1.77,0.87,3.42,0.13c-1.85-9.7-1.14-19.84-2.88-30.21c-5.29-4.52-11.83-7.57-18.06-11.14
		c-6.26-3.58-12.62-7.02-18.62-10.99c-12.44-8.22-20.59-19.9-26.31-33.52c-5.07-12.06-7.25-24.7-8.33-37.61
		c-0.08-0.91-0.24-1.93,0.78-2.79c2.31,0.96,2.52,3.45,3.55,5.29c5.22,9.32,9.8,19.01,16.7,27.31
		c13.05,15.71,29.56,24.76,50.08,26.14c0.7,0.05,1.41-0.08,2.34-0.14c1.69-3.54-0.29-8.07,3.06-11.46
		c4.93,5.11,9.02,10.82,14.71,14.91c1.61,1.16,3.05,2.64,4.81,3.46c16.74,7.78,32.47,17.31,47.96,27.28
		c0.81,0.52,1.75,0.84,2.77,1.31c1.05-1.28,1.97-2.44,2.93-3.56c3.96-4.68,4.82-4.9,10.95-2.8c4,1.37,7.98,2.8,11.99,4.1
		c2.06,0.67,4.19,1.14,6.39,1.73c2.38-3.98,1.88-8.13,2.53-11.9c0.69-3.98,2.65-5.55,6.2-6.18c5.97-1.07,11.89-0.61,17.75,0.64
		c19.11,4.06,35.36,13.04,47.69,28.42c2.77,3.45,4.88,7.43,7.54,11.54c7.32-3.71,15.44-5.19,21.79-11.01
		c5.04-4.62,11.99-2.18,14.12,4.68c1.3,4.17,2.61,8.54,1.11,13.14c-1.19,3.65-0.46,7.15,0.94,10.82c2.03,5.29,3.7,10.83,2,16.68
		c-0.5,1.71-0.29,3.42,0.44,5.1c0.69,1.59,1.27,3.24,1.81,4.89c3.21,9.79,0.3,19.56-7.87,25.92c-2.94,2.29-6.12,4.27-9.2,6.36
		c-1.86,1.26-3.75,2.48-4.65,4.68c-1.5,3.68-3.02,7.36-4.47,11.06c-0.52,1.33-0.87,2.73-1.67,5.28c6.14-2.98,10.7-6.8,16.22-8.39
		c1.88,1.5,0.54,2.78-0.14,3.97c-4.93,8.63-9,17.62-12.18,28.68c2.37-1.93,3.69-3.06,5.06-4.11c1.97-1.51,3.84-3.22,5.99-4.39
		c3.23-1.76,5.86,0.14,5.85,3.9c-0.01,2.06-0.7,3.89-1.56,5.7c-2.47,5.19-5.21,10.19-9.45,14.2c-0.7,0.66-1.22,1.51-2.25,2.81
		c3.6,1.08,6.48,2.73,8.79,5.25c1.3,1.42,2,3.03,0.9,4.71c-0.94,1.43-2.55,1.2-4.06,0.75c-2.78-0.82-5.3-2.71-8.86-2.23
		c-1.03,5.54-6.38,10.58-0.9,16.51c2.96-0.73,5.44-2.69,8.47-2.73c1.8,1.08,1.42,2.52,0.64,3.88c-1.6,2.81-3.14,5.67-5.02,8.29
		c-2.56,3.58-2.26,7.51-1.95,11.48c0.1,1.28,0.62,2.66,1.77,3.14c5.34,2.23,9.1,6.77,14.22,9.38c6.05,3.08,12.42,5.03,18.88,6.85
		c3.14,0.88,6.18,1.85,8.64,4.15c2.06,1.93,4.83,2.5,7.37,3.46c12.15,4.58,24.85,6.9,37.57,8.76c5.38,6.65,5.38,6.65,5.04,18.13
		c1.24,1.65,3.08,1.52,4.77,1.41c4.45-0.28,8.93-0.49,13.34-1.17c10.64-1.65,19.7,1.57,27.35,8.78c8.14,7.66,12.86,17.4,13.16,28.4
		c0.62,23.01,5.51,45.27,10.27,67.61c4.13,19.42,9.17,38.65,11.75,58.38c2.75,21,4,42.02,0.58,63.07
		c-1.16,7.12-3.09,14.08-6.07,20.68c-3.56,7.87-9.12,14.16-16.15,19.89c-3.01-1.63-6.07-0.99-9.48,0.07
		c-10.65,3.31-21.12,1.75-31.32-2.35c-2.59-1.04-4.83-3.49-8.1-0.83c-1.45,1.18-3.28-0.6-4.31-2.02c-2.77-3.82-5.36-7.79-8.15-11.59
		c-5.15-7.02-10.37-13.98-15.62-20.93c-0.67-0.89-1.17-2.23-3.04-1.89c-0.19,2.27,0.98,4.16,1.9,6.11
		c8.88,18.89,17.57,37.87,25.19,57.31c1.2,3.06,2.55,5.87,5.51,7.72c2.38,1.48,3.88,3.96,5.05,6.37c2.54,5.23,6.36,9.47,10.11,13.76
		c8.73,9.99,15.94,21.01,21.73,32.9c14.92,30.64,31.26,60.51,47.74,90.33c8.3,15.02,16.27,30.23,26.43,44.11
		c4.2,5.74,7.52,12.3,14.01,16.17c1.37,0.82,2.11,2.7,3.1,4.12c2.95,4.27,5.26,8.94,9.23,12.56c1.93,1.76,2.9,4.58,4.26,6.94
		c2.47,4.28,3.73,9.2,7.17,13c0.92,1.01,1.32,2.7,1.5,4.14c0.98,7.6,2.69,15.28,0.26,22.85c-3.04,9.45-0.93,18.61,0.64,27.92
		c0.98,5.78,4.09,10.57,6.22,15.81c1.22,2.98,2.81,5.82,4.19,8.74c0.95,2.02,1.86,4.06,2.74,6.11c1.12,2.6,1.9,5.48-0.33,7.65
		c-2.27,2.21-4.84,0.34-6.83-0.9c-7.96-4.99-16.15-9.63-21.5-17.94c-3.21-4.99-7.23-9.48-11.08-14.03
		c-6.3-7.43-11.54-15.56-16.43-23.94c-2.13-3.64-4.33-7.27-6.87-10.64c-2.04-2.71-2.83-6.13-5.46-9.77
		c-1.24,3.81-0.73,6.69-0.81,9.48c-0.18,6.05-1.21,11.84-4.57,17.04c-2.53,3.9-6.07,5.5-10.42,5.13c-1.96-2.2-1.45-4.48-1.23-6.67
		c0.76-7.75,0.42-15.42-1.85-22.9c-2.25-7.4-1.59-15.29-3.91-22.68c-0.48-1.52,0.52-2.87,1.12-4.23c1.82-4.13,4.73-7.56,7.47-11.33
		c-4.98-4.37-8.89-9.38-11.31-15.56c-0.88-2.25-2.63-4.21-4.17-6.16c-11.23-14.31-23.77-27.36-37.49-39.31
		c-16.52-14.39-31.61-30.18-45.88-46.8c-14.28-16.62-23.21-35.72-27.71-57.04c-0.82-3.88-1.68-7.76-2.49-11.51
		c-1.34-1.03-2.58-1.82-4.19-1.5c-0.25,0.4-0.68,0.77-0.69,1.15c-0.34,12.68-0.56,25.36-0.99,38.03c-0.09,2.68,1.02,4.82,2.13,7
		c10.3,20.23,18.29,41.34,24.26,63.22c4.71,17.28,7.9,34.85,10.15,52.59c1.59,12.55,2.51,25.15,3.31,37.79
		c1.17,18.63,1.98,37.23,0.75,55.85c-0.76,11.55,5.05,20.4,10.49,29.56c9.99,9.15,15.84,20.88,20.76,33.2
		c5.22,13.08,7.48,26.74,7.66,40.75c0.17,12.94,0.34,25.9-0.06,38.83c-0.34,11.05,1.14,21.8,3.85,32.41
		c3.92,15.35,7.34,30.85,13.71,45.48c1.2,2.75,2.39,5.39,4.21,7.81c5.08,6.75,10.01,13.62,15.06,20.39
		c4.34,5.82,5.88,13.02,6.54,20.21c3,32.65,8.67,64.89,14.75,97.07c5.07,26.82,9.97,53.68,14.92,80.52
		c0.45,2.43,0.75,4.77-0.27,7.28c-0.71,1.76-0.46,3.9-0.67,6.19c7.84,5.45,8.03,13.6,6.77,21.87c-1.48,9.73-5.73,18.49-11.2,26.59
		c-4.92,7.29-15.55,8.05-22.01,1.98c-4.6-4.32-8.29-9.25-11.02-14.91c-2.9-5.99-6.8-11.58-7.25-18.55c-0.06-0.92-0.58-1.96-1.2-2.68
		c-5.83-6.74-7.04-15.31-8.77-23.47c-2.2-10.41-3.62-21.02-4.82-31.61c-3.42-30.3-6.04-60.71-11-90.82
		c-2.42-14.7-5.47-29.29-9.16-43.72c-0.72-2.83-1.27-5.81-4.27-7.55c-1.79-1.04-2.21-3.15-2.72-5.12
		c-1.24-4.81-2.67-9.57-3.99-14.35c-4.08-14.74-10.91-28.21-18.76-41.26c-8.46-14.08-17.75-27.61-26.75-41.34
		c-12.27-18.71-25.77-36.58-37.45-55.7c-9.93-16.26-17.89-33.38-21.83-51.99c-3.48-16.46-10.86-30.72-20.41-44.31
		c-16.45-23.39-33.04-46.7-47.71-71.29c-1.77-2.97-3.56-5.93-5.58-9.29c-22.95,0.17-45.8-0.52-68.22,0.69
		c-1.6,0.97-1.97,2.18-2.06,3.42c-2.94,41.12-13.1,80.75-24.64,120.11c-7.84,26.72-17.56,52.79-26.44,79.15
		c-12.32,36.58-29.05,71.18-45.07,106.14c-1.15,2.52-2.02,4.97-2.25,7.78c-0.48,5.98-0.55,11.92,0.11,17.87
		c0.92,8.37,1.24,16.79,2.25,25.17c2.08,17.27,5.76,34.25,8.61,51.39c3.92,23.63,11.6,46.2,19.38,68.75
		c5.67,16.44,11.14,32.96,16.89,49.38c1.67,4.77,1.05,10.14,2.93,14.46c1.86,4.29,7.04,6.73,9.77,10.98
		c4.49,6.98,7.34,14.57,9.22,22.57c-3.94,2.32-10.68,3.18-23.03,3.75c-8.18,0.38-16.32,1.5-24.53,1.43
		c-7.95-0.07-15.95,0.49-23.66-2.23c-1.81-5.82-1.82-7.05-0.09-13.58c-0.18-0.46-0.24-1.05-0.56-1.35
		c-5.74-5.32-6.49-12.05-6.79-19.51c-0.55-13.64-3.17-27.08-6.13-40.41c-5.7-25.69-11.59-51.34-15.5-77.37
		c-2.97-19.76-8.38-38.79-15.12-57.52c-0.4-1.1-0.34-2.54-1.98-2.97c-1.96,1.2-2.63,3.43-3.78,5.23
		c-4.54,7.1-9.06,14.13-14.44,20.73c-5.12,6.27-8.68,13.89-12.49,21.14c-6.25,11.89-11.56,24.2-15.97,36.92
		c-1.72,4.95-2.69,9.97-2.89,15c-2.18,0.96-3.18-0.34-3.95-1.57c-2.9-4.65-5.35-9.53-7.23-14.69c-0.67-1.85-1.16-3.75-3.16-6.23
		c1.15,10.72,0.92,20.64,7.43,28.45c-1.16,2.43-2.83,1.84-4.18,1.88c-6.72,0.16-13.45-0.01-20.15,0.35
		c-16.67,0.9-32.93,4.56-49.23,7.89c-14.36,2.93-28.72,5.73-43.31,7.28c-6.17,0.66-12.19,2.17-18.22,3.71
		c-29.36,7.5-58.36,16.43-88.21,21.96c-18.8,3.49-37.62,6.67-56.65,8.69c-11.85,1.26-23.71,2.16-35.59,3.08
		c-18.64,1.44-37.27,1.67-55.89,0.74c-23.59-1.18-46.91-4.31-69.71-10.99c-15.87-4.65-29.77-12.53-41.79-23.69
		c-11.34-10.52-21.94-21.78-28.67-35.93c-6.31-13.26-11.13-27.12-14.51-41.43c-4.07-17.21-6.06-34.61-6.38-52.36
		c-0.78-42.29,9.03-82.21,25.3-120.87c13.7-32.57,32.01-62.27,55.02-89.1c18.24-21.26,39.03-39.65,62.07-55.54
		c12.5-8.63,25.38-16.65,38.78-23.8c7.47-3.99,15.22-7.81,23.47-9.41c14.84-2.88,29.51-6.67,44.52-8.73
		c21.02-2.88,42.15-2.61,63.27-2.51c1.24,0.01,2.58-0.1,3.69,0.33c2.08,0.8,4.53,0.23,6.62,1.95c0.16,4.05-3.74,6.35-5.73,10.62
		c3.71-1.91,4.97-5.46,8.26-5.75c0.99,1.04,0.88,2,0.61,2.97c-5.89,20.88-8.22,42.33-10.37,63.82c-1.53,15.31-3.56,30.55-7.49,45.48
		c-1.78,6.74-4.24,13.2-7.13,19.58c-9.66,21.3-17.88,43.15-23.23,65.96c-1.93,8.21-2.92,16.64-2.5,25.14
		c0.37,7.56,1.95,14.79,6.27,21.16c2.84,4.2,4.05,4.53,8.65,2.33c17.4-8.32,33.15-18.99,47.25-32.24
		c20.17-18.94,33.98-42.08,45.28-66.92c12.82-28.19,20.91-57.88,27.48-88.04c4.75-21.84,9.25-43.74,15.24-65.28
		c2.86-10.28,5.71-20.59,9.66-30.54c0.82-2.06,1.31-4.24,1.93-6.28c-1.33-1.27-3.91-1.18-2.82-4.14c3.02-8.15,5.68-16.43,8.63-24.61
		c5.81-16.13,11.55-32.28,17.63-48.31c8.39-22.13,22.85-39.99,40.12-55.8c1.46-1.34,2.92-2.67,4.31-4.08
		c0.28-0.29,0.22-0.91,0.35-1.58c-5.44-0.25-10.54,2.71-15.99,1.75c-0.06-2.22,1.7-2.47,2.95-3.06
		c14.84-6.99,27.52-16.84,38.76-28.7c1.62-1.71,2.67-3.41,3.21-5.68c5.44-23,14.81-44.23,28.7-63.43c3.03-4.19,4.61-9.22,7.95-12.98
		c-1.44-1.69-2.15-1.04-2.71-0.12c-2.54,4.08-7.35,4.58-11.01,6.88c-0.9,0.56-2.37,0.47-3.2,1.49c-3.28,4.01-8.02,5.86-12.44,7.97
		c-15.51,7.39-31.53,13.26-48.65,15.92c-16.19,2.52-32.36,5.24-48.74,5.88c-12.68,0.49-25.4,0.45-38.09,0.13
		c-13.66-0.35-27.29-1.94-40.97-1.22c-6.91,0.37-13.81,1.31-20.67,2.3c-6.13,0.89-12.16,2.78-18.31,3.19
		c-9.25,0.61-18.33-0.77-26.47-5.73c-3.79-2.31-5.92-5.99-7.32-10.06c-1.45-4.23-2.91-8.47-3.96-12.81c-0.9-3.72-2.99-5.1-6.68-5.78
		c-4.36-0.8-8.61-2.4-12.76-4.04c-5.02-1.98-8.9-5.41-10.96-10.55c-0.65-1.62-1.16-3.33,0.61-5.42c9.48,0.72,18.43,5.65,28.25,6.38
		c1.33-1.94-0.19-3.43-0.7-4.87c-2.91-8.25-5.11-16.79-5.48-25.4c-0.42-9.83,0.16-19.85,5.19-28.88c0.48-0.86,1.01-1.71,1.64-2.47
		c0.28-0.34,0.85-0.45,1.32-0.68c2.21,0.22,2.68,1.97,2.99,3.67c1.1,6.1,2.08,12.22,3.14,18.33c0.47,2.69,1.03,5.36,1.57,8.03
		c0.22,1.1,1.06,1.6,2.55,2.09c-1.28-9.22-2.2-18.28-0.28-27.29c0.41-1.92,1.11-3.81,1.87-5.63c0.35-0.85,1.17-1.5,1.82-2.31
		c3.5,0.57,5.29,2.1,5.91,5.69c1.9,11.01,4.2,21.94,6.33,32.91c0.76,3.93,1.9,7.57,4.97,10.54c2.49,2.4,4.58,5.28,4.04,9.2
		c-0.29,2.09,0.76,3.87,1.63,5.65c2.7,5.52,5.44,11.01,8.15,16.5c2,0.88,4.02,0.36,5.88-0.15c7.43-2.07,15.01-3.38,22.57-4.86
		c17.34-3.38,34.03-9.27,51.2-13.32c11.14-2.63,22.06-6.01,32.65-10.38c16.37-6.75,31.87-15.22,46.74-24.75
		c8.01-5.13,16.04-7.63,25.36-5.01c0.65,0.18,1.44-0.15,2.17-0.24c0.54-2.73-1.59-4.14-2.82-5.83
		c-12.75-17.5-24.84-35.42-35.51-54.29c-11.44-20.22-20.4-41.44-26.85-63.74c-1.44-4.98-2.87-9.96-4.44-15.4
		c8.67-7.33,18.3-13.03,27.26-19.63c8.79-6.48,17.72-12.78,26.46-19.06c-2.1-8.61-3.47-16.94-7.01-24.67
		c-0.61-1.32-1.29-3.12-0.86-4.32c1.38-3.87-0.64-6.8-2.4-9.62c-7.92-12.68-15.42-25.53-19.97-39.9c-0.58-1.83-1.97-3.44-3.13-5.04
		c-1.5-2.07-2.49-4.28-2.6-6.86c-0.2-4.94,2.07-7.97,6.93-9.03c1.19-0.26,2.44-0.23,3.64-0.34c1.02-1.43,0.59-3.02,0.16-4.31
		c-1.91-5.77-0.85-10.7,3.81-14.66c-5.92-12.42-12.82-23.84-21.32-34.28c-2.82-3.46-5.27-7.23-7.86-10.88
		c-1.5-2.12-2.31-4.4-1.31-7.35c1.74-1.52,3.82-2.19,6.54-1.74c3.57,0.59,6.66,1.8,9.26,4.35c7.47,7.31,14.76,14.78,21.16,23.08
		c5.64,7.31,10.56,15.06,14.77,23.27c0.44,0.86,0.7,1.86,2.07,1.72c1.45-0.99,0.91-2.59,0.95-3.96c0.41-14.94-0.62-29.75-3.62-44.44
		c-1.19-5.83-1.64-11.79,0.06-17.47c3.23-2.21,5.63-0.56,7.53,1.38c3.66,3.73,6.62,7.95,8.68,12.87
		c5.28,12.61,6.91,25.83,7.28,39.31c0.11,3.96,0.02,7.93,0.02,11.26c1.41,2.14,3.14,1.51,4.45,2.05c2.84,1.17,4.98,2.8,5.61,6.2
		c0.59,3.19,2.41,6,4.32,8.61c3.27,4.48,5.17,9.7,7.13,14.71c1.89,4.84,1.37,10.28-0.95,15.22c-1.48,3.15-3,6.29-4.61,9.37
		c-0.95,1.82-1.87,3.65-0.96,5.66c3.85,8.5,4.19,17.64,4.53,26.57c1.93,0.51,2.88-0.33,3.87-1.06c9.42-6.92,18.81-13.9,27.21-22.06
		c9.46-9.19,19.56-17.65,29.58-26.19c5.19-4.43,9.57-9.36,13.12-15.13c1.3-2.11,2.65-4.21,4.22-6.11c2.09-2.5,4.62-4.02,8.1-4.64
		c10.99-1.96,21.87-5.17,33.03-5.33c8.92-0.13,15.59-2.87,21.26-9.74c3.62-4.39,8.99-7.02,13.93-9.91c3.63-2.12,5.19-4.93,4.43-9.22
		c-0.77-4.38-1.47-8.86-1.82-13.23c-0.5-6.24-4.78-9.29-8.46-14.17c-1.69,5.73-2.43,11.08-7.62,13.46c-1.57-0.84-1.76-1.97-1.8-3.29
		c-0.07-1.98-0.1-4.03-0.62-5.91c-1.13-4.05-4.71-5.95-8.66-4.81c-1.19,0.34-2.34,0.84-3.46,1.37c-1.28,0.61-2.87,0.69-3.98,2.35
		c4.26,2.96,6.93,6.95,6.9,13.08c-3.74,3.85-7.86,8.08-11.81,12.14c0.63,4.42,4.53,5.76,6.28,8.7c-9.97,2.5-16.89-3.44-16.03-13.57
		c1.51-2.67,3.95-4.22,6.57-5.67c4.22-2.34,4.74-4.3,2.12-8.08c-1.76-2.54-3.73-5.02-7.75-5.29
		C655.98,276.52,654.8,282.76,654.09,289.04z M955.84,417.3c-1.88,7.83-2.69,15.2-3.95,22.48c-1.01,5.82,0.43,9.54,4.67,12.87
		c0.58,0.46,1.09,1.02,1.59,1.57c8.77,9.61,14.47,20.56,15.58,33.78c0.81,9.64,1.96,19.22,1,28.92c-0.24,2.41-0.38,5.08,2.52,6.58
		c0.28-0.67,0.7-1.29,0.8-1.96c2.38-15.16,4.83-30.31,7.03-45.49c1.74-12,3.74-24,3.54-36.2c-0.09-5.67-0.51-11.28-2.15-17.01
		C976.02,422.31,966.05,420.67,955.84,417.3z M675.33,559.69c-13.44,13.74-27.53,26.69-41.32,39.93
		c-7.54,7.23-14.74,14.82-22.07,22.26c-0.13,0.13-0.08,0.5-0.01,0.72c0.06,0.21,0.27,0.37,0.41,0.56c0.44-0.02,0.99,0.12,1.32-0.08
		c19.89-12.38,40.73-22.85,62.8-30.78c2.5-0.9,4.32-2.26,5.66-4.48c3.45-5.75,6.97-11.46,10.39-17.23c0.71-1.2,1.89-2.39,1.02-4.01
		c-4.7-3.19-10.15-1.58-15.17-2.28C677.3,562.7,676.36,561.27,675.33,559.69z M571.34,480.52c4.42,12.17,12.88,20.96,19.74,32.02
		c2.41-5.81,5.47-9.95,8.49-14.08c8.62-11.82,17.49-23.44,26.8-34.73c2.92-3.54,6.19-6.9,7.76-11.66c-0.98-0.19-1.81-0.64-2.32-0.4
		C611.68,461.15,591.49,470.52,571.34,480.52z M825.74,126.08c-6.78-4.59-13.38-6.39-20.98-6.73
		C810.35,127.95,816.61,130.03,825.74,126.08z"/>
	<path fill="#1A1A1A" d="M536.06,1351.73c-4.81-5.92-5.02-13.54-8.51-20.36c-4.8,5.15-4.55,10.9-4.12,16.47
		c0.42,5.39,1.58,10.73,2.48,16.55c-5.6,0.54-10.96,1.36-16.34,1.52c-14.26,0.41-28.15,3.16-42.06,5.93
		c-15.85,3.15-31.73,6.2-47.63,9.12c-8.33,1.53-16.55,3.44-24.63,6.01c-1.9,0.6-3.79,1.36-5.75,1.61c-17.11,2.2-33.32,8.12-50.03,12
		c-24.97,5.8-50.12,10.49-75.54,13.96c-32.13,4.39-64.35,6.48-96.74,5.71c-26.95-0.64-53.58-3.7-79.4-12.05
		c-12.46-4.03-23.93-9.65-33.71-18.57c-9.21-8.4-18.01-17.09-25.15-27.43c-9.06-13.13-14.23-27.86-18.4-43
		c-7.34-26.63-9.88-53.78-7.69-81.3c2.69-33.77,11.33-66.07,24.51-97.22c7.77-18.37,17.23-35.82,27.79-52.75
		c27.29-43.76,64.16-77.57,107.83-104.35c8.9-5.46,18.18-10.29,27.22-15.54c10.12-5.88,21.5-7.61,32.66-9.99
		c21.48-4.58,43.19-6.97,65.2-6.29c7.22,0.22,14.45,0.04,21.67,0.04c2.95,0,5.9,0.02,8.95,1.48c-3.62,8.49-11.52,14.04-14.27,23.89
		c7.42-3.2,9.9-10.93,17.15-14.4c-0.98,4.53-1.73,8.12-2.54,11.69c-3.17,14.09-4.99,28.38-6.56,42.72
		c-1.95,17.8-4.03,35.58-8.75,52.93c-3.6,13.24-8.61,25.95-13.94,38.55c-6.21,14.68-12.14,29.43-15.21,45.15
		c-1.28,6.58-2.38,13.13-2.49,19.91c-0.17,11.33,1.98,21.75,10.03,30.99c-10.11,5.41-20.67,8.03-31.28,10.15
		c-10.4,2.08-20.99,2.89-31.67,3.3c0.63,0.27,1.25,0.73,1.89,0.78c24.42,1.79,47.53-3.32,69.55-13.6
		c20.46-9.55,39.01-21.96,54.89-38.14c13-13.25,23.3-28.42,32.06-44.73c17.34-32.3,27.8-66.95,35.73-102.51
		c6.01-26.92,11.34-54.01,19.04-80.54c5.35-18.41,11.67-36.47,19.04-54.16c1.31-3.13,3.02-6.17,3.18-10.89
		c-5,5.44-6.24,11.96-10.93,16.57c0.56-1.72,1.01-3.48,1.7-5.14c5.56-13.32,9.83-27.11,14.45-40.76c6.49-19.17,16.86-35.95,30-51.15
		c1.06-1.23,2.05-2.93,4.32-1.84c0.97,0.47,1.83-0.42,2.53-1.17c5.62-6,10.68-12.44,15.23-19.28c0.2-0.3-0.08-0.9-0.15-1.56
		c-3.31-0.96-5.99,1.78-9.16,1.75c0.65-0.8-0.42,0.51-0.4-0.48c0-0.22,0.18-0.51,0.36-0.63c9.48-5.98,17.75-13.54,26.59-20.35
		c0.15-0.11,0.48,0.01,1.3,0.05c-0.57,4.6-1.2,9.16-1.7,13.74c-0.54,4.94-1.16,9.88-1.41,14.84c-1.91,37.69,3.81,74.36,14.62,110.38
		c6.59,21.96,15.52,43.03,24.04,64.26c1.11,2.77,2.16,5.56,3.23,8.35c1.09,2.85,1.5,5.77,0.9,8.79c-0.78,3.95-0.87,8.01-0.29,11.9
		c1.15,7.76-0.87,14.74-3.91,21.67c-4.99,11.4-9.35,23.02-12.72,35.02c-5.7,20.33-4.28,40.33,2.03,60.25
		c3.92,12.38,9.55,24.02,15.04,35.71c9.63,20.52,14.22,42.32,17.33,64.59c1.06,7.61,0.7,14.91-1.97,22
		c-3.41,9.04-3.3,18.26-0.44,27.11c2.27,7.02,0.67,12.46-3.13,18.14c-5.95,8.89-12.07,17.66-17.72,26.76
		c-10.68,17.21-19.11,35.43-25.92,54.45C537.98,1349.47,537.92,1350.8,536.06,1351.73z"/>
	<path fill="#1A1A1A" d="M835.05,854.09c9.77,2.31,16.14-0.09,21.05-8.02c1.84-2.97,3.22-6.16,4.06-9.58
		c0.66-2.65,1.47-5.26,2.36-7.84c0.66-1.91,1.81-3.44,3.69-3.85c1.34,0.82,1.59,1.79,1.58,2.77c-0.17,17.65,1.32,35.29,0.56,52.67
		c-1.46,1.33-2.91,1.92-4.4,1.62c-7.15-1.45-14.4-0.66-21.59-1.02c-16.64-0.83-33.3-1.26-49.96-1.73
		c-28.85-0.81-57.71-1.8-86.58-1.58c-5.92,0.05-11.84-0.55-17.76-0.92c-4.51-0.28-8.92,0.71-13.38,0.89
		c-6.47,0.26-12.95,0.05-19.43,0.11c-15.19,0.15-30.38,0.01-45.56,0.58c-21.11,0.8-42.2,2.16-63.3,3.26
		c-0.48,0.02-0.97-0.17-1.49-0.28c-2.13-1.4-2.1-3.89-2.63-5.95c-7.73-30.02-12.32-60.47-10.95-91.53
		c1.62-36.64,10.43-71.27,30.84-102.29c3.51-5.34,6.7-11.01,11.29-15.47c2.03,0.77,1.91,2.44,2.37,3.81
		c1.28,3.83,3.17,7.27,6.32,9.94c1.32,1.12,2.72,2.29,3.66,3.72c5.66,8.61,13.98,14.16,22.62,19.08
		c8.18,4.66,14.67,10.93,20.7,17.96c4.24,4.95,9.15,9.2,15.63,11.05c2.55,0.73,5.51,2.42,7.64-0.16c1.95-2.35,0.47-5.31-0.46-7.76
		c-1.52-3.96-3.98-7.43-6.63-10.76c-4.13-5.21-8.17-10.48-12.49-16.03c3.7-0.94,6.05,0.57,8.28,2.08c8.03,5.45,16.8,9.72,24.5,15.69
		c3.54,2.74,7.5,4.87,11.91,6.04c5.57,1.48,6.3,1.12,8.77-4.58c0.19-0.43,0.59-0.76,1.17-1.48c0.91-0.1,2.18-0.08,3.34-0.41
		c4.25-1.19,5.7-5.15,2.98-8.62c-2.45-3.12-5.28-5.95-7.94-8.91c-0.81-0.9-1.58-1.83-3.49-4.04c4.8,1.71,8.06,2.96,11.37,4.04
		c2.58,0.84,5.41,2.08,7.38-1c1.88-2.94,0.98-5.86-1.02-8.29c-4.3-5.21-9.3-9.64-15.25-12.98c-7.13-4-14.41-7.71-22.13-11.02
		c1.37-2.9,4.31-3.66,5.85-5.85c2.52-3.56,1.61-6.64-2.61-8.06c-1.18-0.4-2.41-0.91-3.61-0.89c-5.95,0.11-10.49-3.04-14.61-6.61
		c-6.11-5.29-13.17-6.63-20.87-6.23c-3.71,0.19-7.42,0.4-10.9,0.59c-2.57-1.99-3.79-4.35-4.57-6.85c0.36-2.24,2.16-2.74,3.64-3.6
		c16.76-9.84,33.99-18.76,52.19-25.62c5.6-2.11,10.46-5.54,15.67-8.21c2.75,1.59,3.84,4.22,5.56,6.3
		c13.93,16.87,30.49,29.97,51.89,36.04c13.54,3.84,27.47,4.61,41.43,4.21c21.42-0.61,42.65-3.12,63.58-7.81
		c4.07-0.91,8.13-1.92,12.48-2.95c0.77,3.18,0.2,5.87-0.28,8.51c-2.18,12.05-2.97,24.21-2.38,36.41c0.5,10.42,2.05,20.76,3.54,31.09
		c1.42,9.84,2.81,19.69,3.8,29.58c0.95,9.41,0.09,18.84-0.71,28.24c-0.23,2.66-1.17,5.11,0.49,7.77c0.65,1.04,0,2.89-0.08,4.37
		c-0.09,1.8,0.33,3.24,1.65,4.69c3,3.3,3.01,4.35,1.09,7.67c-1.14,1.96-2.61,3.65-4.41,5.02c-5.41,4.12-9.53,9.42-13.65,14.74
		c-3.37,4.35-4.94,9.16-4.1,14.65c0.76,5.02,0.04,9.89-1.08,14.78c-0.92,4.02-3.15,7.27-5.32,10.6
		C834.72,848.44,833.31,851.02,835.05,854.09z M759.99,718.66c0.28-3.02-1.54-5.1-2.88-7.34c-13.88-23.24-27.83-46.45-41.66-69.72
		c-2.41-4.05-4.46-8.32-6.5-12.57c-2.07-4.31-7.29-5.7-8.89-10.37c0.86,5.01,30.41,64.73,41.2,83.96c0.69,1.22,1.07,2.78,3.56,2.92
		c-0.72-4.91-3.68-8.67-5.51-12.85c-1.81-4.14-4.32-7.99-5.33-12.51C743.15,692.71,750.26,706.55,759.99,718.66z"/>
	<path fill="#1A1A1A" d="M684.1,1435.87c-0.76,0.25-1.02,0.43-1.21,0.38c-17.28-4.49-29.73,3.85-40.94,15.42
		c-1.88,1.94-3.57,4.07-5.45,6.23c-3.8-2.87-6.03-6.15-5.97-10.82c0.31-21.57-4.34-42.46-8.83-63.37
		c-2.14-9.97-4.53-19.89-6.38-29.91c-1.8-9.77-2.58-19.71-4.62-29.46c-4.17-19.96-8.89-39.76-15.82-58.99
		c-2.86-7.93-5.59-15.9-7.15-24.29c-1.13-6.12-0.89-12.03,0.98-17.66c3.25-9.77,3.05-19.46,1.59-29.45
		c-0.97-6.64-1.63-13.32-3.13-19.87c-0.58-2.5-0.29-4.86,0.32-7.34c6.56-26.6,10.62-53.61,13.08-80.87
		c1.97-21.8,2.54-43.65,3.2-65.52c0.66-22.14,0.22-44.27,0.79-66.39c0.55-21.11,1.72-42.21,4.48-63.18
		c0.16-1.23,0.36-2.46,0.58-3.68c0.35-1.92,1.53-3.11,3.4-3.52c1.21-0.27,2.46-0.45,3.69-0.46c23.88-0.19,47.75-1.7,71.64-1.03
		c1.71,0.05,3.52-0.2,5.05,1.22c1,2.74-0.47,5.22-1.25,7.77c-11.74,38.25-23.51,76.49-35.24,114.75c-0.95,3.08-1.66,6.24-2.5,9.35
		c-0.41,1.52-0.6,2.73,1.33,3.55c1.33,0.57,0.79,2.15,0.69,3.36c-0.22,2.73-0.29,5.47-0.68,8.18c-0.77,5.43-0.31,10.73,0.1,16.21
		c1.01,13.56,2.02,27.13-0.22,40.87c-4.48,27.5-10.75,54.61-16.48,81.84c-3.7,17.56-5.69,35.36-5.21,53.31
		c0.37,13.67,2.35,27.21,4.45,40.72c4.84,31.22,10.86,62.18,18.85,92.77c3.66,14,9.2,27.3,13.97,40.89
		c3.78,10.79,7.82,21.49,11.61,32.27C683.56,1431.2,684.85,1433.22,684.1,1435.87z M636.98,1041.29
		c9.58-9.31,16.51-34.91,12.08-44.39c-2.14,7.82-2.01,15.54-4.15,22.87C642.75,1027.13,638.92,1033.78,636.98,1041.29z"/>
	<path fill="#1A1A1A" d="M631.06,335.96c-0.19,3.62,2.4,5.9,4.25,8.44c6.01,8.25,11.93,16.54,16,25.99
		c7.05,16.38,10.68,33.58,12.47,51.24c0.9,8.92,1.15,17.87,0.86,26.82c-0.18,5.46-0.7,10.91-1.24,16.34
		c-0.31,3.16-0.47,3.15-3.21,7.26c-4.1-4.24-4.75-5.32-6.52-10.89c1.55-1.26,3.33,0.78,4.89-0.33c0.04-0.44,0.28-1.11,0.08-1.29
		c-2.99-2.75-6.82-3.99-10.4-5.68c-2.66-1.25-5.68-1.85-8.02-4.36c1.98-3.29,6.74-2.97,8.71-6.3c-1.42-1.97-3.17-1.23-4.7-0.8
		c-6.24,1.79-12.22,4.27-18.04,7.09c-14.77,7.15-29.47,14.47-44.19,21.72c-2.9,1.43-5.74,3.01-8.71,4.28
		c-5.49,2.36-10.89,4.82-14.83,10c-7.58-5.27-12-14.13-21.59-17.23c0.45,3.13,2.57,4.24,4.01,5.77c6.48,6.89,12.9,13.81,18.39,21.54
		c3.62,5.1,6.65,10.5,8.58,16.48c1.06,3.31,2.37,6.48,4.01,9.59c2.83,5.37,2.84,11.54,3.65,17.43c1.28,9.35,2.1,18.77,4.12,28.02
		c1.61,7.36,4.33,14.28,7.99,20.81c4.26,7.59,8.69,15.09,13.75,22.19c1.11,1.56,2.77,2.95,2.41,6.05
		c-8.18,4.61-16.72,9.67-23.21,17.36c-6.22,7.38-11.37,15.47-15.05,24.81c-2.6-2.89-2.6-2.89-3.33-9.02
		c-1.72-0.95-2.33,1.71-4.49,1.03c-2.86-2.02-4.86-5.54-7.38-8.56c-16.39-19.69-32.45-39.62-46.71-60.97
		c-18.48-27.68-33.56-56.96-44.09-88.54c-1.88-5.64-4.66-11.01-5.21-18.36c0.15-0.08,1.09-0.47,1.96-0.98
		c26.59-15.79,51.12-34.53,75.83-53.01c16.54-12.36,32.86-25.02,48.46-38.57c6.01-5.21,11.65-10.85,17.51-16.23
		c2.38-2.18,4.79-4.37,7.39-6.28c7.76-5.7,13.93-12.73,18.34-21.28c0.68-1.33,1.31-2.69,2.81-3.39c1.91-0.28,2.85,1.84,4.62,1.98
		L631.06,335.96z"/>
	<path fill="#1A1A1A" d="M806.26,885.16c11.47,0,22.95-0.88,34.22,0.28c9.07,0.93,18.42-1.09,27.49,2.1
		c0.69,3.09,1.15,6.04,2.01,8.86c1.61,5.26,3.25,10.56,9.35,12.56c1.84,0.6,2.51,2.32,3,4.03c6.1,21.32,18.6,39.52,28.87,58.78
		c12.05,22.61,25.22,44.6,39.62,65.83c13.28,19.58,27.54,38.41,43.75,55.68c3.72,3.97,5.9,8.41,6.62,13.77
		c3.05,22.78,9.71,44.66,17.07,66.34c1.67,4.93,3.95,9.65,6.11,14.4c0.9,1.99,2.59,3.37,4.19,4.93
		c6.12,6.01,13.02,11.87,11.92,21.92c-0.08,0.73-0.15,1.59,0.14,2.22c4.26,9.25,3.9,19.36,5.04,29.11
		c1.45,12.36,3.59,24.59,5.58,36.84c4.43,27.24,8.81,54.49,14.54,81.5c2.06,9.73,4.28,19.43,6.82,29.04
		c1.4,5.31,0.63,10.2-0.69,15.67c-5.55-1.6-10.5-3.06-15.47-4.45c-4.99-1.39-9.85-0.81-14.6,1.16c-5.1,2.11-8.76,5.56-10.5,10.91
		c-0.45,1.4-1.08,2.75-1.84,4.69c-3.75-7.24-4.89-14.6-6.22-21.84c-3.13-17.13-4.5-34.5-6.19-51.81
		c-3.78-38.87-8.34-77.61-18.99-115.34c-0.97-3.42,0-8.28-5.78-8.92c-0.73-0.08-1.4-2.5-1.74-3.92c-2.26-9.21-6.05-17.88-9.23-26.77
		c-6.01-16.81-15.47-31.72-25.24-46.42c-14.6-21.96-29.68-43.6-44.5-65.42c-3.49-5.14-6.84-10.39-10.08-15.7
		c-9.5-15.62-16.38-32.34-20.44-50.17c-2.5-10.97-6.25-21.45-11.46-31.42c-1.03-1.97-1.58-4.18-4.17-4.86
		c-1.55-0.41-2.16-1.94-2.98-3.18c-18.06-27.42-37.09-54.23-53.16-82.92C808.02,890.38,805.75,888.38,806.26,885.16z M886.35,985.31
		c-1.32,6.44,1.13,11.6,5.16,16.18c2.82,3.19,6.32,5.56,9.83,7.88c5.68,3.76,10.37,8.36,13.43,14.54c1.01,2.04,2.19,4.11,4.59,5.07
		c-1.44-3.69-3.62-6.96-5.09-10.51c-1.49-3.6-3.79-6.31-6.81-8.57c-1.98-1.48-3.91-3.05-5.98-4.39c-6.88-4.45-12.27-9.99-14.13-18.3
		C887.19,986.53,886.69,985.94,886.35,985.31z"/>
	<path fill="#1A1A1A" d="M861.03,377.88c-2.22,8.53-1.02,11.17,7.76,16.42c-1.12,4.53,1.59,7.13,5.35,9.21
		c3.53,1.95,7.62,2.4,11.15,4.06c3.63,1.71,4.31,6.73,7.69,8.9c4.28,2.74,7.54,6.38,10.67,9.63c0.06,1.68-0.73,2.34-1.3,3.13
		c-3.17,4.36-2.44,7.76,2.17,10.21c2.74,1.45,5.79,2.05,8.7,1.4c4.97-1.1,8.27,1.21,10.72,4.83c1.97,2.89,4.41,5.27,6.64,7.88
		c9.21,10.78,15.51,23.07,18.57,36.96c1.19,5.39,1.34,10.9,0.88,16.35c-1.19,14.11-1.82,28.27-3.65,42.33
		c-0.46,3.54-1.76,6.07-4.42,8.18c-3.91,3.11-8.14,5.73-12.61,7.96c-10.06,5.02-20.57,8.65-31.58,11.03
		c-8.01,1.74-15.75,4.51-22.85,8.78c-4.13,2.49-8.86,3.24-13.4,4.31c-10.65,2.51-21.45,4.3-32.32,5.62
		c-0.44,0.05-0.93-0.27-1.72-0.51c-0.33-2.28,1.69-3.26,2.9-4.54c9.94-10.46,16.99-22.63,21.56-36.26
		c1.19-3.54,1.93-7.15,1.18-11.27c6.52-6.18,12.77-12.88,18.39-20.19c6.42-8.34,11.62-17.34,16.19-26.77
		c1.29-2.65,2.21-5.44,4.41-7.69c1.28-1.31,2.19-3.54,2.26-5.4c0.26-6.86,3.55-12.89,4.45-19.03c2.33-2.53,5.36,0.02,7.63-2.36
		c-1.11-3.45-4.7-2.58-7.06-3.75c-1.74-1.28-1.78-3.49-2.79-5.18c-0.9-1.51-1.76-2.98-3.26-4c-13.6-9.21-27.5-17.91-41.86-25.92
		c-9.12-5.09-18.95-8.68-27.89-14.15c-3.04-1.86-7.06-2.13-11.28-3.31c2.57-5.64,1.9-11.07-0.75-16.31
		c-0.6-1.18-0.83-2.38-0.37-3.58c2.11-5.54,3-11.52,6-17.4c8.01,8.98,12.65,20.68,23.82,25.76c7.13-5.38,13.63-10.3,20.14-15.21
		C861.17,378.02,861.03,377.88,861.03,377.88z M883.99,512.17c-0.54-0.13-1.13,0.43-1.36,1.05c-0.6,1.58,0.81,4.22,2.41,4.61
		c0.38,0.09,0.97-0.11,1.27-0.38c1.01-0.91,1-2.1,0.62-3.28C886.52,512.93,885.68,512.18,883.99,512.17z M871.07,428.72
		c0.8-0.08,2.55-0.32,2.64-2.51c0.04-1.08-0.96-1.65-1.95-1.7c-1.84-0.08-3.47,1.57-3.08,3.06
		C868.86,428.24,869.29,428.86,871.07,428.72z"/>
	<path fill="#1A1A1A" d="M631.22,336.14c-0.2-1.46-0.4-2.93-0.67-4.95c14.75-3.69,29.63-5.6,45.02-7.48
		c0.4,4.08,0.86,7.7,1.09,11.33c0.72,11.09,3.1,21.68,9.54,30.96c2.04,2.94,1.35,5.52,0.07,8.38c-4.79,10.73-7.91,21.95-9.84,33.55
		c-0.57,3.4-0.33,6.25,1.25,9.28c4.61,8.86,9.91,17.23,16.39,24.86c3.05,3.6,5.74,7.51,8.71,11.19c1.52,1.88,2.85,4.2,5.77,4.03
		c2.1-0.91,1.99-2.77,2.01-4.47c0.06-6.72-0.02-13.44,0.06-20.16c0.25-21.21,2.88-42.14,7.49-62.83
		c5.49-11.52,5.47-24.7,10.97-36.46c2.52-1.22,5.01-1.24,7.2,0.32c1.04,2.21,0.04,3.8-0.53,5.38c-6.5,18.05-11.56,36.47-14.59,55.44
		c-1.85,11.55-2.53,23.22-3.5,34.85c-0.65,7.8,2.31,13.97,9.09,18.36c4.42,2.86,9.2,4.87,14.2,7.06c0.71,13.68-0.9,27.27-0.96,40.88
		c-0.06,13.43-0.14,26.87-0.64,40.29c-0.51,13.56-0.8,27.15-1.88,40.54c-3.83,0.4-6.3-1.03-8.76-2.07
		c-9.6-4.07-19.58-7.13-29.07-11.57c-4.55-2.13-10.15-2.04-15.29-2.88c-1.44-0.24-2.92-0.24-4.51-0.36c-1.97-3.03-1.85-6.36-2-9.49
		c-0.77-15.96-3.4-31.6-7.43-47.05c-2.2-8.43-5.49-16.48-8.39-24.91c5.1-4.86,5.96-11.47,6.54-17.77
		c2.4-26.18,1.42-52.16-7.16-77.34c-6.19-18.18-16.11-34.03-30.34-47.08L631.22,336.14z"/>
	<path fill="#1A1A1A" d="M740.03,580.61c1.65-1.51,1.84-3.47,1.98-5.47c0.66-9.16,1.48-18.32,2.01-27.49
		c1.28-22.34,0.95-44.71,0.97-67.08c0.01-8.19,0-16.37,0-23.88c2.23-2.94,5.07-2.35,7.32-3.25c5.51-2.2,8.31-5.78,8.23-11.87
		c-0.09-6.72-0.37-13.4-1.13-20.08c-0.69-6.11-1.3-12.23-2.05-19.36c4.18,1.13,7.38,2.12,10.64,2.86c3.39,0.76,6.82,1.42,10.26,1.87
		c3.39,0.45,6.7,2.13,10.69,0.7c3.03-8.55,5.48-17.64,10.39-26.31c3.86,2.37,6.45,5.31,8.02,9.23c-7.45,4.72-7.68,5.31-4.28,14.01
		c-4.57,5.23-8.6,11.15-13.89,16.04c-8.12,7.51-14.48,16.37-19.15,26.36c-4.27,9.13-5.18,13.23,3.96,23.39
		c5.5,6.12,11.82,11.36,18.43,16.26c13,9.65,25.2,20.22,36.41,31.91c6.19,6.46,12.06,13.22,17.13,20.62
		c1.55,2.26,3.09,4.51,4.05,7.69c-1.39-0.73-2.44-1.48-3.62-1.87c-3.08-1.03-5.05-0.43-6.52,1.77c-1.49,2.25-1.37,4.62,0,7
		c1.34,2.34,4.12,2.69,5.92,4.67c-0.89,5.47-4.16,9.94-6.82,14.63c-3.69,6.52-8.73,12.08-13.76,17.59
		c-3.29,3.61-7.17,5.32-12.44,5.39c-22.48,0.29-44.7-1.49-66.69-6.2c-2.41-0.52-5.01-0.65-6.88-2.51c-0.84-0.83-1.63-0.55-2.58-0.64
		c-10.51-1.05-19.01-6.35-26.89-13.06C719.81,575.49,729.21,579.85,740.03,580.61z"/>
	<path fill="#1A1A1A" d="M931.85,569.78c2,3.73,2.55,7.58,0.85,11.38c-1.58,3.54-2.13,7.14-1.95,10.9
		c0.84,17.77-2.45,35.16-4.82,52.64c-2.47,18.22-4.71,36.44-5.81,54.83c-1.22,20.4-0.35,40.78-0.77,61.16
		c-0.06,2.7,0.5,5.47-0.95,8.66c-17.5,4.13-34.89,3.94-51.84-3.24c-0.93-4.45-0.15-8.19,0.29-11.81c0.7-5.72,0.67-11.41,0.68-17.12
		c0.01-4.7,0.08-9.28-2.21-13.8c-1.36-2.71-0.99-6.29-1.38-9.48c-2.27-18.51-4.8-37-3.86-55.73c0.48-9.65,1.08-19.2,3.91-28.65
		c2.48-8.28,3.4-17.04,4.97-25.59c0.81-4.39,0.95-9.29,3.45-12.81c2.56-3.6,7.77-4.07,11.73-6.09c4.74-2.41,9.97-3.04,15.02-4.3
		c10.4-2.59,20.61-5.7,30.21-10.58C929.98,569.85,930.77,569.93,931.85,569.78z"/>
	<path fill="#1A1A1A" d="M931.94,701.57c5.33,1.52,8.71,3.7,12.66,4.47c5.93,1.15,11.82,1.64,17.8,0.84
		c12.22-1.65,21.37-10.72,23.17-22.94c0.4-2.7,0.78-5.4,1.2-8.1c0.03-0.21,0.3-0.38,0.48-0.59c1.97-0.84,2.59,0.94,3.44,1.96
		c7.06,8.43,13.03,17.6,17.93,27.43c4.67,9.35,9.09,18.81,13.76,28.16c8.89,17.81,18.53,35.21,28.25,52.58
		c7.77,13.89,14.79,28.2,23.37,41.62c2.79,4.36,5.68,8.67,8.63,13.17c-2.07,1.44-4.05,0.47-5.88,0.56
		c-8.82,0.47-15.02,5.66-16.67,14.31c-0.51,2.67-0.79,5.39-0.39,8.16c0.35,2.39,0.37,4.82,0.55,7.58c-3.12-0.86-4.31-3.08-5.32-5.26
		c-6.23-13.31-16.28-23.75-26.02-34.35c-10.44-11.37-22.37-21.21-33.65-31.73c-15.3-14.27-29.58-29.57-41.89-46.54
		c-6.3-8.69-11.28-18.16-14.38-28.53C936.85,717.26,934.6,710.17,931.94,701.57z"/>
	<path fill="#1A1A1A" d="M670.89,200.89c-0.52-1.47-0.55-2.91,0.47-4.47c-1.94-2.46-4.03-4.9-5.89-7.51
		c-2.57-3.6-2.53-5.96,0.39-9.4c2.05-2.41,4.03-5.05,7.21-6.24c3.28,2.12,2.07,6.76,5.88,9.06c6.22-1.98,12.3-5.27,17.71-9.5
		c13.51-10.55,23.56-24.04,31.65-39.01c4.84-8.96,8.98-18.25,11.63-28.13c0.52-1.93,1.1-3.82,0.66-5.85l-0.14,0.15
		c0.91-0.96,1.14-2.09,1.15-3.4c0.02-5.23,3.09-7.64,7.93-6.09c3.07,0.98,6.01,2.38,9.05,3.48c3.96,1.44,7.95,2.87,12.43,2.53
		c1.97-1.79,1.58-4.49,2.21-6.81c0.59-2.15,0.68-4.43,1.22-6.59c1.02-4.02,1.96-4.75,6.19-5.07c5.26-0.4,10.44,0.37,15.54,1.52
		c20.26,4.58,36.76,14.88,48.26,32.4c7.3,11.12,8.4,27.08,2.85,38.91c-1.6-3.99-2.96-7.61-4.5-11.15
		c-4.29-9.84-11.32-16.81-21.59-20.31c-4.71-1.61-9.5-2.9-14.47-3.51c-6.16-0.76-12.31-1.69-18.47-2.39
		c-4.75-0.54-9.38-1.17-12-6.18c-1.3,2.05-0.09,4.7-3.45,4.69c-2.84-0.01-4.97,2.22-6.72,4.33c-6.98,8.42-9.15,18.39-9.67,29.81
		c2.49-1.12,2.94-2.63,3.38-4.18c1.29-4.53,2.42-9.12,3.95-13.57c1.29-3.77,3.1-7.36,6.02-10.2c3.71-3.6,7.9-3.09,10.43,1.47
		c1.31,2.36,2.15,5.03,2.82,7.66c3.92,15.51,1.26,30.6-3.17,45.55c-0.93,3.14-3.09,3.53-6.14,2.48c-1.82-4.7-0.02-9.64-0.17-14.5
		c-0.14-4.68,1.44-9.49,0.14-14.08c-1.34-4.71,1.72-9.82-1.78-15.28c-2.52,13.14-10.98,21.7-18.48,30.67
		c-11.47,13.73-25.4,24.42-42.17,31.15c-5.57,2.24-11.34,3.65-17.25,4.63c-1.64,0.27-3.54-0.01-4.71,1.75
		c1.91,1.78,4.19,1.19,6.34,0.95c7.47-0.82,14.61-2.9,21.44-6.04c20.97-9.61,37.23-24.51,49.44-43.96c1.18-1.89,2.36-3.78,3.57-5.66
		c0.11-0.17,0.42-0.21,0.67-0.33c0.21,0.35,0.53,0.69,0.61,1.07c0.84,4.06-2.24,7.84-1.36,11.61c0.95,4.1-0.13,7.9-0.1,11.82
		c0.02,3.34-1.95,4.72-4.77,5.8c-4.19,1.6-8.66,1.82-13.23,2.63c2.88,3.42,2.88,3.42,12.97,4.43c-0.22,1.9-3,1.76-2.96,3.54
		c0.46,2.28,3.3,0.66,4.27,2.97c-0.52,2.13-0.5,4.87-2.38,7.07c-0.86,0.25-1.71,0.5-2.57,0.76c-1.63,1.51-3.37,2.92-4.89,4.53
		c-13.16,13.91-29.35,21.45-48.35,23.24c-10.4,0.98-19.69-1.04-26.74-9.42c-2.22-2.65-4.34-5.39-6.43-8.14
		c-1.03-1.36-1.58-3.12-3.4-3.75C671.25,202.21,671.07,201.55,670.89,200.89z M685.12,199.33c-2.34-0.96-4.28-1.41-6.33-0.13
		c0.83,1.35,2.11,1.23,3.25,1.41C682.97,200.76,683.96,200.86,685.12,199.33z"/>
	<path fill="#1A1A1A" d="M696.25,895.67c11.76-0.2,23.28-0.4,34.66,0.14c1.22,4.91,0.25,8.61-0.15,12.21
		c-2.08,18.78-5.28,37.38-9.59,55.79c-9.85,42.13-22.87,83.34-36.64,124.31c-3.49,10.37-6.58,20.91-10.8,30.98
		c-9.97,23.84-20.51,47.44-30.79,71.15c-0.5,1.15-0.93,2.24-2.1,2.69c-1.33-1.2-0.91-2.42-0.76-3.63
		c1.62-13.1,4.63-25.92,7.68-38.74c4.84-20.31,8.64-40.82,12.03-61.42c1.74-10.61,1.68-21.07,0.43-31.8
		c-1.32-11.27-2.13-22.76-0.31-34.17c0.23-1.47,0.53-2.99,0.37-4.45c-1.11-10.5,2.31-20.07,5.82-29.67
		c9.88-27.09,17.97-54.77,26.63-82.26C693.84,903.27,694.97,899.74,696.25,895.67z"/>
	<path fill="#1A1A1A" d="M817.17,179.34c-4.42-0.04-6.86,3.39-11.16,3.12c1.83-4.01,5.18-6.21,7.77-8.97
		c2.72-2.89,5.63-5.61,8.24-8.19c2.93-0.4,4.46,1.6,6.42,2.49c5.5,2.5,10.13,2.23,15.01-2.07c5.55-4.88,8.93-10.89,10.31-17.7
		c1.19-5.86,3.93-9.98,8.57-13.3c1.82-1.3,3.47-2.83,5.21-4.24c1.36-1.1,1.57-2.42,0.52-4.49c-3,1.08-6.1,2.19-10.7,3.84
		c3.87-5.16,8.52-6.89,12.07-9.94c6.63,1.66,10.94,6.31,15.8,10.04c1.05,0.81,1.08,2.17,1.4,3.37c1.77,6.62,1.85,13.28,0.46,19.96
		c-0.63,3.04-1.2,5.88,2.45,7.6c1.18,0.55,1.26,2.04,1.41,3.29c0.74,6.27-0.62,11.91-5.21,16.44c-1.94,1.91-4.01,3.76-6.27,5.27
		c-17.64,11.72-31.7,27.07-44.6,43.62c-0.74,0.95-1.31,2.05-2.54,3.99c3.41-0.59,5.12-2.19,6.62-3.95
		c6.94-8.16,14.3-15.89,22.38-22.93c1.44-1.25,2.52-3.06,5.27-3.12c-0.68,5.89-4.35,10.71-4.72,17.34c5.41-2.4,8.78-7.03,14.68-8.77
		c-1.89,6.77-5.14,12.53-6.94,18.78c-1.82,6.34-3.32,12.78-6.8,18.71c5.73-1.17,6.82-7.49,11.48-9.46c1.61,1.27,0.53,2.43,0.06,3.34
		c-3.09,6.01-7.1,11.39-11.73,16.29c-1.34,1.42-2.93,2.76-4.66,3.66c-12.35,6.5-25.2,11.84-38.54,15.97
		c-0.65,0.2-1.39,0.1-2.49,0.16c1.25-4.89,5.63-7.62,7.28-11.47c-1.08-2.12-2.33-1.6-3.44-1.11c-3.69,1.63-6.67,4.24-9.51,6.83
		c-0.05,1.73,2.84,1.6,1.93,3.68c-0.78,1.79-0.98,3.92-3.27,4.65c-1.19,0.38-2.34,0.87-3.54,1.2c-13.92,3.8-27.86,7.5-41.75,11.42
		c-2.88,0.81-5.32,0.71-7.79-0.92c-3-1.98-3.67-4.64-1.8-7.63c1.38-2.2,3.46-3.56,5.8-4.5c0.9-0.36,1.95-0.35,2.91-0.61
		c6.59-1.75,7.18-2.59,6.57-9.25c-0.09-0.98-0.23-1.96-0.37-3.24c2.37-3.1,5.18-5.66,9.35-6.3c1.38,1.81,2.06,3.64,2.46,5.59
		c0.35,1.7,0.51,3.48,2.05,4.68c1.3,0.51,2.37,0.03,3.37-0.76c0.54-1.62-1.63-1.67-1.5-3.82c4.8-4.18,10.14-8.82,15.21-13.23
		c2.65,0.52,2.77,3.47,5.15,3.59c0.36-0.13,1-0.17,1.22-0.49c3.62-5.42,5.66-11.58,7.8-17.63c1.47-4.15-0.62-8.82,1.58-12.82
		c-2.42-1.92-4.11-0.29-5.84,0.32c-6.34,2.24-12.73,4.11-19.94,3.29c1.11-5.88,6.17-9.13,8.88-14.76
		c-6.58,0.84-11.3,4.97-17.11,5.71c-1.57-1.72,0.31-2.67,1.01-3.68c6.82-9.86,15.27-18.31,23.51-26.94
		C810.57,187.73,814.3,184.44,817.17,179.34z M847.56,235.3c5.09-6.05,5.62-7.32,5.17-11.59
		C849.96,227.27,848.94,231.33,847.56,235.3z M828.5,273.88c2.34-1.08,4.33-2.47,5.45-5.89
		C830.82,269.68,829.12,271.27,828.5,273.88z"/>
	<path fill="#1A1A1A" d="M990.6,423.32c5.6-1.19,10.84-3.48,16.68-5.62c4.11-5.4,6.78-12.54,12.1-17.88
		c2.48,1.21,2.99,2.96,3.08,5.03c0.97,22.95,6.15,45.23,10.85,67.58c3.37,16.04,7.25,31.98,9.21,48.28
		c2.35,19.53,3.69,39.08,0.85,58.68c-1.55,10.66-4.39,20.9-10.31,30.07c-2.15,3.33-4.56,6.42-7.76,8.37c-2.68-1-3.36-2.84-3.62-4.89
		c-1.98-15.77-10.3-28.24-20.59-39.7c-3.48-3.88-6.88-7.84-10.39-11.69c-1.5-1.65-2.93-3.69-4.85-4.58
		c-7.06-3.26-7.71-9.98-8.86-16.18c-0.61-3.29-0.19-7.04,1.2-10.26c3.1-7.16,4.24-14.8,5.51-22.37c2.55-15.18,5.1-30.36,6.88-45.66
		c1.36-11.66,1.67-23.27-0.47-34.87C989.91,426.45,989.54,425.2,990.6,423.32z"/>
	<path fill="#1A1A1A" d="M534.04,679.4c-10.12,3.58-18.72,7.91-28.42,9.51c-20.1,3.32-40.17,6.88-60.53,8.07
		c-15.64,0.91-31.33,0.47-46.99,0.17c-18.88-0.36-37.79-1.41-56.44,2.86c-1.63,0.37-3.38,0.89-5.37-0.11
		c0.35-3.76,1.19-7.62,0.4-11.68c-2.02-1.93-4.76-3.29-6.69-6.29c1.53-4.74,5.02-7.11,10.09-8.09c11.95-2.3,23.9-4.66,35.76-7.37
		c14.05-3.21,28.26-5.63,42.19-9.41c27.39-7.43,52.42-19.89,76.03-35.38c5.44-3.57,10.81-7.05,18.13-6.41
		c-0.2,1.95-1.9,2.68-3.05,3.56c-3.61,2.8-6.29,6.34-8.49,10.25c-6.77,12.06-4.76,26.28,4.57,36.53
		c5.81,6.39,12.82,10.04,21.18,11.47C528.58,677.47,530.9,677.33,534.04,679.4z"/>
	<path fill="#1A1A1A" d="M885.72,855.3c-2.8,6.41-3.51,12.8-3.67,19.23c-0.2,8.2,0,16.42-0.09,24.62c-0.02,2.13,0.72,4.51-1.54,6.65
		c-3-0.13-4.4-2.43-5.43-4.94c-1.79-4.4-2.98-8.96-2.95-13.76c0.04-6.44-0.45-12.85-0.11-19.31c0.73-13.92-0.59-27.81-1.4-41.69
		c-0.06-0.99-0.04-2.01-0.28-2.96c-0.63-2.45-2.73-3.43-5.21-2.65c-2.9,0.91-4.47,3.1-5.43,5.73c-1.62,4.43-2.93,8.98-4.6,13.39
		c-2.42,6.37-6.55,11.09-13.46,12.77c-0.95,0.23-1.97,0.34-2.83-0.42c-1.1-1.26-0.21-2.35,0.44-3.31
		c6.15-9.01,8.81-18.79,6.91-29.68c-0.74-4.23,1.09-7.83,3.48-11.09c3.53-4.81,7.28-9.48,11.77-13.46c4.12-3.65,8.05-7.37,8.8-13.81
		c13.15,0.23,25.87,1.95,38.29,1.5c4.08,7.82,4.99,15.45,6.36,22.95c0.67,3.67,1.08,7.38,1.85,11.02c1.8,8.5,3.92,16.84,7.92,24.74
		c4.69,9.25,7.72,19.22,10.25,29.2c-2.14,1.25-3.17-0.13-3.99-1.21c-5.67-7.56-10.34-15.68-13.28-24.9
		c-2.74-0.74-4.28,0.19-4.45,3.09c-0.16,2.52,0.57,4.9,1.22,7.31c2.9,10.8,5.76,21.61,8.55,32.44c0.81,3.12,1.41,6.3,1.95,9.48
		c0.1,0.58-0.42,1.45-0.91,1.91c-0.79,0.74-1.81,0.59-2.75,0.09c-2.23-1.18-2.7-3.45-3.41-5.55c-4.21-12.48-8.41-24.95-12.61-37.43
		c-0.77-2.29-1.14-4.79-3.29-6.71c-2.14,1.08-1.86,2.79-1.36,4.39c4.07,13.04,6.4,26.59,11.35,39.39c1.52,3.93,2.67,8.01,3.92,12.04
		c0.81,2.6,0.87,5.21,0.03,8.18c-4.32-1.24-5.51-4.61-6.97-7.67c-6.22-13.03-11.28-26.51-15.41-40.34
		c-0.64-2.14-1.34-4.27-2.21-6.32C890.33,856.19,888.72,855.19,885.72,855.3z"/>
	<path fill="#1A1A1A" d="M698.13,569.13c1.52,0.82,2.08,0.95,2.36,1.3c10.31,12.96,24.65,18.93,40.08,22.75
		c12.55,3.11,25.34,5,38.22,6.3c8.92,0.9,17.83,1.54,26.79,1.29c0.25-0.01,0.52,0.07,0.74-0.01c3.59-1.22,6.51,2.86,10.62,0.82
		c3.15-1.57,7.25-1.25,10.93-1.74c3.69-0.49,7.39-0.93,11.08-1.41c7.87-1.03,15.62-2.75,24.07-4.96
		c0.28,10.41-0.65,20.08-3.65,29.49c-4.5,2.33-9.28,2.64-13.86,3.52c-15.63,2.97-31.37,5.4-47.25,6.37
		c-8.42,0.51-16.82,1.76-25.3,1.29c-15.19-0.84-30.29-2.18-44.32-8.74c-14.88-6.97-27.49-16.83-37.39-30.04
		c-0.45-0.6-0.83-1.24-1.29-1.82c-4.19-5.28-4.18-5.27-0.77-10.5C692.15,578.5,695.05,573.93,698.13,569.13z"/>
	<path fill="#1A1A1A" d="M649.8,728.84c-6.09-0.65-9.65-3.12-12.77-6.37c-3.78-3.95-7.49-7.96-11.22-11.96
		c-4.44-4.76-9.6-8.6-15.02-12.17c-7.87-5.19-15.97-10.02-22.57-17.01c-5.4-5.71-8.16-12.3-9.13-19.88c-0.25-1.95-0.65-3.88-1-5.92
		c4.12-7.46,18.19-21.32,27-26.43c4.52,2.71,5.32,8.76,10.12,11.89c5.67-1.68,11.8-1.66,17.97-1.44c3.9,0.14,7.36,1.21,10.31,3.72
		c6.14,5.22,12.72,9.51,20.76,10.19c0.86,1.9,0,2.75-1.14,3.36c-4.81,2.58-9.37,2.69-13.74-1.13c-5.83-5.09-12.28-9.33-19.23-12.73
		c-2.55-1.24-5.16-3.21-8.32-1.64c0.02,2.04,1.39,2.65,2.8,3.21c5.1,2.05,9.81,4.84,14.43,7.78c2.51,1.6,5.42,3.02,7.16,5.29
		c3.71,4.83,8.79,7.12,14.18,8.99c14.16,4.9,25.89,13.58,36.91,23.38c0.47,0.41,0.52,1.29,0.9,2.3c-2.34,1.2-4.42,0.52-6.36-0.43
		c-3.12-1.53-6.18-3.2-9.2-4.92c-11.66-6.64-23.29-13.33-34.94-19.98c-0.62-0.35-1.37-0.47-1.92-0.66c-1.73,0.75-1.66,2.02-0.96,3.1
		c1.22,1.88,2.82,3.48,4.82,4.58c1.09,0.6,2.2,1.17,3.31,1.73c12.35,6.23,23.48,13.94,31.57,25.47c2.08,2.96,5.54,4.85,7.13,8.03
		c-1.07,1.76-2.36,1.66-3.53,1.31c-4.12-1.23-7.78-3.21-10.62-6.56c-9.33-10.99-21.74-18.05-33.47-25.96
		c-1.63-1.1-3.97-3.64-5.8-1.17c-1.86,2.51,1.18,3.77,2.86,4.98c2.21,1.6,4.49,3.15,6.9,4.41c8.9,4.67,16.65,10.81,23.7,17.92
		c2.45,2.47,5,4.84,7.58,7.17c1.51,1.36,2.76,2.78,2.9,5.24c-2.77,1.51-5.36,0.38-7.78-0.48c-2.08-0.74-4.08-1.88-5.9-3.16
		c-8.34-5.85-17.42-10.61-25.24-17.23c-2.9-2.45-6.23-4.36-10.13-4.15c-2.18,0.12-3.5-1.62-6.12-1.73
		c0.68,5.42,2.94,9.86,6.17,13.93c3.55,4.48,7.12,8.94,10.55,13.52C646.07,720.39,648.1,723.76,649.8,728.84z"/>
	<path fill="#1A1A1A" d="M806.98,432.83c0.27-3.3,3.73-5.41,2.98-9.07c-3.51,0.99-3.61,5.32-7.18,6.6
		c-3.76-1.66-7.53-3.87-11.37-6.68c4.31-5.89,9.61-10.37,14.55-15.17c1.15-1.12,2.73-1.12,4.23-0.69c2.62,0.75,5.35,1.28,7.81,2.38
		c23.87,10.72,46.56,23.54,67.86,38.74c9.76,6.97,9.87,7.55,6.55,19.24c-6.67,23.49-17.59,44.76-33.55,63.35
		c-1.28,1.49-2.6,2.96-5.02,5.71c0.34-3.7,0.38-5.79,0.74-7.82c2.75-15.7-0.25-30.65-6.19-45.11c-7.72-18.82-20.07-34.13-36.06-46.6
		C810.39,436.22,808.13,435.05,806.98,432.83z"/>
	<path fill="#1A1A1A" d="M671.93,542.91c1.86,2.05,1.48,4.17,1.92,6.06c0.88,3.74,0.01,6.76-3.01,9.3
		c-2.28,1.91-4.21,4.23-6.37,6.28c-16.23,15.39-32.19,31.05-47.47,47.4c-1.99,2.13-3.78,4.68-7.27,5.52
		c-2.48-1.71-2.71-4.97-4.2-7.4c-4.79-7.83-9.23-15.89-13.77-23.88c-0.86-1.51-1.62-3.07-2.33-4.66
		c-5.66-12.64-4.89-16.15,5.99-24.49c1.67-1.28,2.79-2.48,3.63-4.38c0.88-2,2.33-3.79,3.72-5.52c6.34-7.97,12.86-15.8,19.09-23.86
		c2.49-3.22,5.75-5.35,9.19-8.32c4.66,7.69,9.62,14.71,16.92,19.7C655.34,539.69,664.03,540.92,671.93,542.91z"/>
	<path fill="#1A1A1A" d="M650.63,210.63c-6.49,3.12-12.99,6.22-18.95,11.37c-3.46-4.44-4.03-9.65-5.45-14.45
		c-1.42-4.78-1.9-9.72-1.64-14.74c0.26-5.1,2.77-9.92,2.24-15.17c-2.37-0.01-2.82,1.58-3.22,2.88c-2.87,9.23-3.24,18.49-0.41,27.84
		c0.97,3.22,2.78,6.28,2.6,10.28c-3.93-0.54-6.36-3.22-8.92-5.26c-6.46-5.15-12.19-10.93-14.43-19.34
		c-2.16-8.11-0.56-15.74,2.48-23.24c0.47-1.17,1.3-2.13,2.49-2.65c1.44-0.62,2.38-1.7,3.16-3.02c4.72-7.95,11.99-11.51,20.98-12.07
		c0.74-0.05,1.47-0.24,2.2-0.36c-0.3,4.22-3.51,6.99-5.31,10.45c-1.34,2.58-1.24,4.74,0.52,8.19c2.08-6.84,4.59-12.16,8.63-16.61
		c4.08-4.5,9.71-5.99,16.64-7.55c-5.73-1.55-9.65-0.64-13.44,1.58c-2.11,1.24-3.86,3.18-6.48,3.43c-3.62-2.67-7.49-1.97-11.4-0.86
		c-1.83,0.52-3.33,2.2-5.44,1.66c-1.26-1.35-0.18-2.37,0.41-3.33c6.06-9.78,14.03-17.34,25.08-21.25
		c6.02-2.13,12.11-2.45,18.28-0.69c2.21,0.63,4.52,1.47,5.03,3.93c1.07,5.16,3.43,9.83,5.03,14.79c0.46,1.42,0.84,2.89-0.45,4.65
		c-3.77,0.71-6.18-4.81-10.3-3.31c-0.8,1.98,0.74,2.32,1.62,2.94c1,0.72,2.24,1.11,3.24,1.82c4.42,3.14,7.93,6.82,7.43,12.85
		c-0.1,1.21,0.21,2.45,0.35,3.94c-3.12,3.02-6.37,6.05-9.49,9.21c-3.91,3.95-6.91,8.45-7.83,14.08c-0.76,1.74-1.52,3.49-2.28,5.23
		c-2.32,3.99-2.65,8.45-3.06,12.9L650.63,210.63z"/>
	<path fill="#1A1A1A" d="M769.37,458c4.06-11.37,10.08-21.21,17.77-29.86c2.51-0.33,4.01,1.13,5.65,2.1
		c18.03,10.62,33.43,24.03,44.45,42.04c11.53,18.85,16.7,39.11,13.27,61.21c-0.1,0.67-0.55,1.29-0.8,1.86
		c-1.74,0.32-2.31-0.93-2.98-1.88c-13.86-19.41-31.48-35-50.26-49.42c-3.74-2.87-7.44-5.82-11.35-8.46
		C778.59,471.18,773.83,465.25,769.37,458z"/>
	<path fill="#1A1A1A" d="M939.47,406.74c3.33,2.08,6.49,1.78,9.63,0.73c3.77-1.25,7.58-2.44,11.26-3.92
		c3.2-1.29,3.86-3.56,2.33-6.59c-1.82-3.62-6.08-5.8-10.59-5.39c-1.41,0.13-2.77,1.29-4.61-0.04c0.01-2.66,0.51-4.77,3.87-5.85
		c9.08-2.91,9.9-5.49,4.32-12.97c-0.95-1.27-1.32-2.45-1.59-3.96c-0.93-5.13-1.27-5.4-6.39-8.37c5.62-0.5,11.02-0.86,16.65-0.2
		c7.37,0.87,14.82-0.93,22.21-1.82c2.23-0.27,4.42-0.65,6.66-0.37c3.68,0.46,6.3,2.15,8.18,5.6c7.98,14.69,9.78,30.03,5.67,46.18
		c-0.87,3.44-2.82,5.39-6.06,6.89c-6.09,2.83-12.52,2.48-18.88,2.7c-5.16,0.18-22.27-3.72-27.93-5.99
		c-6.48,3.75-12.23,8.89-18.3,13.57c-7.54,5.82-16.02,8.83-25.53,8.98c-1.76,0.03-3.52-0.07-4.85-2.16
		c2.65-3.94,7.26-5.59,10.94-8.33c3.97-2.96,7.83-6.06,11.98-8.81C932.32,414.07,935.45,410.43,939.47,406.74z M968.12,412.63
		c9.45,4.02,21.06,3.44,29.45,1.24c2.67-0.7,5.59-1.52,8.14-5.93C992.65,414.3,980.13,411.11,968.12,412.63z"/>
	<path fill="#1A1A1A" d="M958.12,893.56c-6.05-1.32-12.08-2.67-18.12-3.94c-2.67-0.56-5.36-1.16-8.08-1.4
		c-3.43-0.3-5.24-1.96-6.35-5.23c-2.8-8.26-4.86-16.69-6.04-25.59c1.44,2.35,2.79,4.77,4.35,7.04c1.82,2.66,3.63,5.38,5.8,7.75
		c1.81,1.97,3.99,3.87,7.12,2.74c2.33-3.06,1.56-6.34,0.6-9.37c-3.18-9.94-6.33-19.93-11.6-29.04c-1.41-2.43-2.2-4.96-2.7-7.68
		c-1.45-7.82-2.97-15.63-4.49-23.44c-1.47-7.57-2.97-15.12-4.55-23.19c4.27-2.97,3.7-9.87,9.59-11.7c-0.1-6.8-0.54-13.23,0.12-19.51
		c2.64-0.6,2.86,1.18,3.41,2.41c10.31,23,18.15,46.8,23.31,71.48c4.23,20.23,6.69,40.7,8.49,61.26
		C959.19,888.55,959.71,891.1,958.12,893.56z"/>
	<path fill="#1A1A1A" d="M747.2,314.17c0.74-0.05,1.47-0.1,2.09-0.14c1.27,0.57,1.16,1.65,1.12,2.57
		c-0.17,4.22,0.03,8.52-0.75,12.63c-1.25,6.56-0.63,12.94,1.11,19.16c1.52,5.43,1.83,10.92,0.91,16.23
		c-2.47,14.22-0.58,28.23,0.99,42.29c0.99,8.88,2.13,17.75,3.01,26.65c0.32,3.2,0.25,6.47,0,9.69c-0.37,4.81-3.03,7.18-7.84,6.98
		c-7.95-0.34-14.97-3.12-20.99-8.4c-3.02-2.65-4.26-5.87-4.32-9.87c-0.15-10.22,0.9-20.37,2.22-30.45
		c3.11-23.73,9.3-46.69,17.73-69.12c1.87-4.97,4.09-10.15,3.87-15.76C746.64,315.81,746.92,314.99,747.2,314.17z"/>
	<path fill="#1A1A1A" d="M653.6,197.87c0.76-1.74,1.52-3.49,2.28-5.23c1.43-1.6,2.86-3.19,4.6-5.13c3.71,4.77,7.06,9.08,10.41,13.38
		c0.18,0.66,0.37,1.32,0.55,1.98c-0.21,1.27,0,2.47,0.64,3.59c2.11,3.67,4.74,6.96,7.23,10.37c5.3,7.29,12.52,10.37,21.12,10.76
		c23.77,1.07,42.94-8.48,58.62-25.8c1.33-1.47,2.36-3.23,2.2-5.39c0.86-0.25,1.71-0.5,2.57-0.76c-2.49,13.24-7.47,25.13-18.55,33.61
		c-12.2,9.35-25.62,15.75-41.15,17.56c-3.62,0.42-7.32,0.98-10.97,1.51c-20.32,2.96-36.79-8.86-40.67-28.99
		c-0.56-2.91-1.23-5.81-1.85-8.71c0,0-0.1,0.14-0.1,0.14C652.89,206.79,653.94,202.5,653.6,197.87z"/>
	<path fill="#1A1A1A" d="M925.93,438.47c2.33-2.48,4.5-3.22,7.29-1.09c9.51,7.24,18.85,14.71,26.34,24.1
		c7.31,9.16,10.68,19.76,12.36,31.43c2.1,14.61-0.8,28.67-2.51,42.87c-1.45,12.06-3.79,24.01-5.79,36.37
		c-4.6,3.61-9.98,5.56-15.96,5.79c-1.42-2.29-0.38-4.19,0.01-6.05c4.43-21.25,6.15-42.68,5.22-64.39
		c-0.29-6.73-1.04-13.38-1.87-20.01c-1.28-10.28-5.61-19.51-11.23-28.14c-2.99-4.58-6.06-9.11-9.8-13.14
		C928.1,444.18,926.7,441.91,925.93,438.47z"/>
	<path fill="#1A1A1A" d="M983.58,677.63c0.26,13.82-8.11,21.82-15.94,24.47c-4.71,1.6-9.55,2.08-14.61,1.45
		c-3.96-0.49-7.8-1.33-11.68-2.13c-6.37-1.32-10.07-5.44-11.16-11.5c-3.17-17.67,4.17-36.66,26.07-40.65
		c6.4-1.17,11.79,0.32,15.87,5.61c0.9,1.17,1.62,2.67,2.81,3.41C982.22,662.86,983.22,670.08,983.58,677.63z"/>
	<path fill="#1A1A1A" d="M705.04,447.21c-8.29-9.05-16.15-17.97-21.55-28.78c-2.23-4.46-2.93-8.67-1.99-13.59
		c3.37-17.52,9.71-33.95,18.34-49.44c6.29-11.29,13.39-22.13,20.14-33.16c0.5-0.82,1.05-1.68,2.37-1.83
		c2.99,4.58,3.3,9.28,1.55,14.63c-6.28,19.15-11.88,38.5-14.76,58.5c-1.34,9.34-2.33,18.74-2.63,28.2
		C706.26,430.18,705.09,438.57,705.04,447.21z"/>
	<path fill="#1A1A1A" d="M844.74,324.93c4.06-4.64,4.32-10.28,8.46-14.74c0.81,3.66,0.37,6.28-0.12,8.87
		c-0.61,3.17-1.69,6.3-1.89,9.48c-0.36,5.62-3.32,9.74-6.86,13.65c-6.14,6.77-13.47,12-22.27,14.36c-6.04,1.62-8.35,5.36-9.65,10.8
		c-1.25,5.22-2.21,10.57-4.85,16.12c-3.46-3.25-6.4-5.7-6.05-10.71c1.25-18.12-3.15-34.96-12.27-50.61
		c-0.73-1.26-1.52-2.48-2.83-4.62c4.41,0.57,7.98,0.86,11.47,1.53c8.95,1.71,17.82,0.96,26.66-0.71c8.11-1.53,9.45-2.42,14.69-9.16
		c1.57,1.45,0.09,2.54-0.33,3.71c-0.49,1.37-1.68,2.52-1.35,4.24c2.12,1.51,3.17-0.35,4.05-1.62c1.82-2.62,3.14-5.61,6.7-7.84
		C847.98,313.65,843.97,318.38,844.74,324.93z"/>
	<path fill="#1A1A1A" d="M865.31,264.1c1.12,3.4-0.5,5.69-2.13,7.78c-2.43,3.12-4.79,6.29-7.94,8.85c-3.46,2.81-6.51,6.12-9.86,9.08
		c-1.55,1.37-2.86,2.64-5.55,2.87c-3.83,0.33-5.34,6.43-9.57,6.21c-4.55-0.24-6.33,3.1-9.96,4.56c3.98,2.93,7.24,2.51,10.15,0.16
		c3.7-2.99,7.95-4.92,12.03-7.23c6.34-3.58,11.52-8.65,16-14.37c1.23-1.57,2.15-3.35,4.44-3.8c2.1,0.88,2.58,2.69,2.59,5.21
		c-4.87,5.19-9.95,10.61-15.01,15.99c-5.12-1.13-5.13-1.14-8.49,2.04c-1.8,1.71-3.89,3.24-5.29,5.24
		c-4.99,7.13-12.61,8.53-20.3,9.11c-10.44,0.8-20.88,0.08-31.16-2.18c-1.45-0.32-2.96-0.33-4.15-1.43
		c-4.53-4.19-9.09-8.34-14.39-13.19c9.06-2.5,17.39-4.79,25.71-7.1c8.38-2.32,16.8-4.52,25.12-7.02c8.35-2.5,16.38-5.85,24.38-9.31
		C849.86,272.15,857.01,267.09,865.31,264.1z"/>
	<path fill="#1A1A1A" d="M723.57,134.85c-4.73,7.99-9.39,15.51-15.5,22.18c-6.94-3.04-11.2-8.16-15.06-13.61
		c-5.24-7.4-8.26-15.88-10.46-24.54c-3.86-15.14-6.77-30.47-7.16-46.17c-0.04-1.49,0.01-2.98,0.15-4.46
		c0.07-0.71,0.46-1.38,0.77-2.23c0.75,0.17,1.63,0.09,2.07,0.5c15.99,14.87,31.94,29.79,47.88,44.7c0.91,0.85,1.79,1.73,2.63,2.63
		c3.32,3.56,3.31,3.57-0.34,9.42c-4.12-7.25-7.82-14.42-13.81-19.98c-5.79-5.37-11.93-10.12-19.26-13.41c-1.07,2.47,0.7,3.58,1.43,5
		c1.35,2.61,3.48,4.89,3.33,8.11c-0.08,1.71,1.17,2.59,2.24,3.62c7.05,6.76,13.09,14.27,16.83,23.38
		C720.14,131.99,722.03,132.77,723.57,134.85z"/>
	<path fill="#1A1A1A" d="M521.34,615.54c3.59,2.64,5.45,5.94,7.86,8.75c8.1,9.41,16.18,18.84,24.26,28.28
		c1.13,1.32,2.27,2.65,3.19,4.12c0.49,0.78,0.93,1.98,0.68,2.76c-1.37,4.27-3.08,8.31-7.03,11.06c-6.33,4.4-13.24,5.34-20.63,3.98
		c-2.2-0.4-4.34-1.12-6.55-1.48c-13.06-2.14-18.39-11.69-21.51-22.93c-3.14-11.3,1.4-20.47,9.37-28.18
		C513.82,619.15,517.09,616.81,521.34,615.54z"/>
	<path fill="#1A1A1A" d="M756.09,305.11c3.29,7.53,6.28,14.59,9.46,21.57c3.81,8.37,7.82,16.64,13.16,24.19
		c3.46,4.9,5.89,7.22,11.94,10.75c-4.43-7.56-9.9-12.84-13.47-19.41c-3.68-6.78-6.99-13.71-10.16-20.73
		c-3.12-6.93-6.27-13.84-9.66-21.29c9.18,3.13,25.06,18.63,30.34,29.33c7.16,14.5,10.9,29.61,8.44,45.57
		c-1.1,0.51-1.56,0.92-1.99,0.89c-10.05-0.74-19.65-2.98-27.84-9.23c-4.43-3.38-7.63-7.81-9.64-13.04
		c-3.51-9.15-5.45-18.52-4.22-28.4c0.68-5.41,1.06-10.87,1.64-16.29C754.22,307.82,754.32,306.53,756.09,305.11z"/>
	<path fill="#1A1A1A" d="M1104.9,923.08c-1.62-4.51-3.99-8.52-7.72-11.64c-1.37-1.15-2.76-2.17-4.69-1.3
		c-2.02,0.91-2.99,2.49-3.11,4.67c-0.1,1.79,0.56,3.37,1.09,5.04c1.27,4.02,1.18,4.05-4.1,5.83c-2.44-3.9-4.94-7.83-7.37-11.81
		c-0.37-0.61-0.73-1.43-0.65-2.09c1.76-13.69-2.15-26.53-5.98-40.08c6.42-5.11,13.54-9.43,21.63-12.05
		c2.61-0.84,4.91,0.34,6.67,2.31c1.15,1.29,2.08,2.78,3.06,4.21c4.61,6.77,9.28,13.51,13.78,20.35c2.14,3.26,4.62,6.59,2.52,10.77
		c-0.47,0.17-0.71,0.35-0.93,0.33c-1.83-0.1-3.48-2.33-5.49-0.34c-2.09,2.07-0.98,4.18-0.08,6.17c1.02,2.24,2.34,4.35,3.03,7.18
		c-1.57-1.16-3.02-2.58-4.75-3.43c-1.79-0.88-3.87-1.13-5.5,0.6c-1.33,1.41-1.53,3.03-0.77,4.82c0.77,1.82,1.47,3.66,2.14,5.31
		c0.01,2.45-2.63,3.16-2.86,5.24L1104.9,923.08z"/>
	<path fill="#1A1A1A" d="M870.38,309.88c5.38,10.58,8.63,20.32,10.64,30.69c-2.36-0.25-0.91-2.93-3.22-3.21
		c-2.08,1.98-2.87,4.65-2.99,7.7c-0.2,5.09-2.04,9.65-4.64,13.98c-7.3,12.12-16.72,22.08-29.31,29.25
		c-9.52-6.35-14.16-16.71-21.66-23.87c-0.17-2.23,1.11-2.59,2.25-2.99c23.12-8.24,37.54-25.11,46.85-47.07
		C868.76,313.26,869.3,312.19,870.38,309.88z"/>
	<path fill="#1A1A1A" d="M536.58,375.54c3.4,1.8,4.22,4.91,3.64,8.59c-0.12,0.74-0.34,1.47-0.37,2.2
		c-0.27,6.51-2.04,12.14-7.98,15.93c-6.92,4.42-14.21,7.4-22.52,5.84c-4.7-0.88-9.16-2.7-10.72-8.45
		c3.64-5.41,10.77-7.8,13.46-14.24c6.1,1.03,10.77-2.05,16.56-5.23c-5.11-1.48-8.39,1.85-12.15,1.74
		c-9.22-6.19-11.31-13.27-6.79-22.91c2.18-4.65,5.7-8.1,9.89-10.93c0.61-0.41,1.33-1,1.98-0.98c5.99,0.23,11.7-2.24,17.7-1.72
		c3.75,0.33,4.87,1.24,5.5,4.8c0.77,4.33-0.24,8.41-2.05,12.32c-1.05,2.26-2.22,4.45-3.26,6.71
		C538.53,371.23,536.86,372.9,536.58,375.54z"/>
	<path fill="#1A1A1A" d="M629.35,511.26c-5.46,4.74-9.98,9.66-14.44,14.66c-4.38,4.91-8.07,10.46-13.63,15.68
		c-1.28-5.78-2.02-10.61-3.47-15.21c-1.41-4.47-3.54-8.7-5.35-13.04c0.97-2.99,2.94-5.26,4.72-7.6
		c10.19-13.43,20.37-26.87,31.32-39.72c1.44-1.68,2.48-3.7,3.75-5.53c1.39-2.02,2.16-4.51,4.5-5.9c2.24,0.18,3.59,1.67,4.17,3.61
		c1.48,5,3.99,9.54,6.6,14.52C634.52,482.23,629.17,495.29,629.35,511.26z"/>
	<path fill="#1A1A1A" d="M648.1,215.55c1.84,2.29,1.9,4.3,2.2,6.25c1.8,11.56,7.68,20.19,18.31,25.39c1.83,0.89,3.57,1.82,3.77,4.17
		c-5.06,7.84-17.53,13.97-26.05,12.85c-2.59-0.34-4.59-1.7-6.46-3.41c-5.33-4.85-8.38-10.96-9.95-17.89
		c-0.27-1.19-0.55-2.38-0.88-3.56c-0.05-0.18-0.36-0.28-0.55-0.42c-1.23,4.76-1.23,4.76,2.64,16.41c-2.3,0.71-4.14-0.16-6.03-1.21
		c-9.19-5.13-13.68-13.49-15.56-23.35c-1.05-5.54-1.72-11.26,0.15-17.65c3.75,2.58,7.34,4.96,10.83,7.49
		c3.24,2.34,7.73,3.35,8.67,8.55C635.1,223.78,640.36,218.09,648.1,215.55z"/>
	<path fill="#1A1A1A" d="M978.54,614.64c-2.8-19.28-4.99-37.66,1.41-56.22c12.69,10.76,24.15,21.96,32.12,36.24
		c4.18,7.49,6.83,15.38,5.86,24.7C1004.16,624.16,991.38,621.09,978.54,614.64z"/>
	<path fill="#1A1A1A" d="M655.03,475.18c10.04,19.24,14.77,40.28,17.73,61.97c-1.36,0.39-2.07,0.81-2.74,0.75
		c-16.4-1.65-28.23-9.95-35.71-24.59c-1.06-2.07-1.56-4.13-1.02-6.44c0.97-4.1,1.78-8.24,2.79-12.32
		c1.89-7.63,7.14-12.92,12.77-17.89C650.42,475.28,652.28,474.77,655.03,475.18z"/>
	<path fill="#1A1A1A" d="M690.16,363.64c-2.39-1.15-3.19-3.62-4.17-5.81c-4.13-9.22-5.55-19.04-6.08-29.02
		c-0.2-3.9,1.34-6.82,4.29-9.73c10.11-9.98,22.17-16.75,34.92-22.51c2.61-1.18,5.31-2.67,8.33-2.25c0.81,1.6-0.24,2.51-0.83,3.53
		c-2.01,3.49-3.51,7.14-3.62,11.24c-0.08,2.83-1.01,5.33-2.72,7.58c-10.69,14.11-19.93,29.12-27.98,44.88
		C691.85,362.45,691.3,363.25,690.16,363.64z"/>
	<path fill="#1A1A1A" d="M940.12,578.4c1.96,10.99,7.37,20.28,11.45,30.04c5.08,12.14,10.45,24.15,15.67,36.23
		c0.18,0.41,0.02,0.96,0.02,1.93c-15.68-2.46-28.41,2.27-37.1,16.32c-1.42-4.22-1.44-4.22-1.04-7.77
		c1.07-9.37,2.29-18.74,3.23-28.12c1.11-11.11,2.32-22.24,2.84-33.39C935.46,588,937.56,583.23,940.12,578.4z"/>
	<path fill="#1A1A1A" d="M1077.34,1420.06c1.55,16.44-4.27,33.64-14,41.23c-2.12-0.66-2.07-2.69-2.23-4.23
		c-1.62-16.01-8.31-30-16.9-43.28c-0.64-0.99-1.54-1.97-1.07-3.78c5.91-3.79,12.08-1.59,18.34-0.23
		C1068.15,1411.22,1072.87,1415.38,1077.34,1420.06z"/>
	<path fill="#1A1A1A" d="M561.25,489.97c1.77-3.09,3.65-5.59,6.23-6.98c2.29,0.54,2.68,2.07,3.24,3.4c1.36,3.23,3.36,6.02,5.37,8.87
		c7.13,10.13,14.58,20.12,18,32.32c0.87,3.1,1.68,6.23,2.16,9.4c1.06,6.87,0.28,13.26-5.09,18.5c-2.27,2.21-4.04,4.92-6.43,7.88
		c-1.6-2.17-1.99-4.24-2.26-6.37c-0.44-3.44-0.87-6.88-1.3-10.32C578.3,523.59,573.51,509.87,561.25,489.97z"/>
	<path fill="#1A1A1A" d="M667.76,1440.36c1.19,9.84,1.19,9.84,13.65,31.32c-7.24,3.6-15.12,1.46-22.48,2.81
		c-7.48,1.37-14.76,0.04-22.27-1.09c-1.67-4.93-0.06-9.23,2.41-12.86c6.46-9.47,15.09-16.41,26.07-20.16
		C665.81,1440.17,666.61,1440.36,667.76,1440.36z"/>
	<path fill="#1A1A1A" d="M786.78,402.53c-5.08,1.43-9.6-0.75-14.2-1.22c-4.15-0.42-8.21-1.89-12.29-2.96
		c-2.41-0.63-3.89-2.22-4.04-4.75c-0.56-9.17-1.86-18.3-1.55-27.51c0.03-0.92,0.48-1.83,0.97-3.59c5.54,5.32,10.49,10.34,17.2,13.22
		c6.64,2.85,14.03,3.03,20.93,6.2C791.39,389.02,789.08,395.77,786.78,402.53z"/>
	<path fill="#1A1A1A" d="M801.53,891.05c-8.71,0-17.35,0-25.99,0c-8.47,0-16.93-0.03-25.4,0.01c-8.67,0.04-17.34-0.52-26.03-0.08
		c-8.4,0.42-16.83,0.2-25.12-1.6c0.7-6.63,1.07-7.3,6.82-7.23c10.94,0.13,21.9-0.91,32.81,0.8c1.71,0.27,3.48,0.1,5.22,0.12
		c14.44,0.17,28.87,0.29,43.31,0.54c2.97,0.05,5.94,0.53,8.88,0.96C800.34,885.2,800.33,885.26,801.53,891.05z"/>
	<path fill="#1A1A1A" d="M930.46,368.75c1.63,5.14,1.63,5.14,5.23,7.81c-2.48,2.3-5.68,2.93-8.65,3.92
		c-11.12,3.7-22.64,5.62-34.15,7.57c-4.16,0.7-8.38,1.18-12.44,2.27c-3.53,0.94-6.94,0.6-10.33,0.01c-5.31-0.93-6.84-3.4-6.46-9.64
		C885.67,376.01,908.4,375.4,930.46,368.75z"/>
	<path fill="#1A1A1A" d="M936.83,380.61c0.76,5.51,0.76,5.51,6.5,6.74c1.14,4.67-2.01,6.73-5.49,8.15
		c-2.96,1.21-6.17,1.88-9.32,2.57c-5.74,1.25-11.63,1.43-17.38,3.08c-5.66,1.62-11.73,2.19-17.66,2.46
		c-6.41,0.28-12.95,0.13-18.77-3.39c-0.63-0.38-1.27-0.79-1.77-1.32c-0.31-0.32-0.37-0.88-0.58-1.4c0.57-1.93,2.23-2.44,3.96-2.7
		c5.64-0.87,11.28-1.78,16.95-2.46C908.14,390.53,922.51,386.86,936.83,380.61z"/>
	<path fill="#1A1A1A" d="M507.83,386.26c-3.86,3.15-7.49,6.1-12.09,8.56c-5.68-9.45-10.52-19.01-15.77-29.51
		c9.96,1.85,13.53-3.68,15.59-11.17c5.76-1.01,10.43-3.51,12.69-9.32c2.85-0.31,5.53-0.59,8.3-0.89c-0.11,2.54-2.21,2.81-3.4,3.89
		c-5.54,5.04-9.29,10.99-9.76,18.65c-0.23,3.78,0.1,7.48,2.24,10.77C507.3,379.82,508.2,382.58,507.83,386.26z"/>
	<path fill="#1A1A1A" d="M954.55,354.94c-2.25-0.26-2.73-1.87-3.71-2.9c-4.47-4.68-8.97-5.82-14.66-2.72
		c-3.31,1.81-6.35,2.11-9.89,1.57c-5.8-0.88-11.65-1.49-17.62-3.18c1.01-6.97,2.94-12.95,6.35-18.93c7.04,2.6,13.54,6.23,20.79,7.76
		c7.22,1.52,14.42,3.12,21.89,4.74C958.46,346.53,957.57,351.03,954.55,354.94z"/>
	<path fill="#1A1A1A" d="M747.2,314.17c-0.28,0.82-0.57,1.64-0.85,2.46c-3.44,3.07-3.92,7.93-6.88,11.56
		c-2.87,0.48-5.78,0.34-8.52-0.14c-6.01-9.3-5.18-23.88,1.52-31.48c1.24-1.41,2.73-2.12,4.44-2.48c3.93-0.81,7.9-0.69,11.85-0.21
		c2.34,0.28,3.43,1.81,3.36,4.12c-0.09,2.98-0.3,5.91-1.67,8.68C749.25,309.11,748.28,311.67,747.2,314.17z"/>
	<path fill="#1A1A1A" d="M941.13,359.9c-2.98,3.42-6,4.25-9.3,4.34c-2.72,0.07-5.47,0.26-8.17-0.02c-8.6-0.88-17.2-1.84-25.78-2.97
		c-6.05-0.8-11.26-3.61-15.94-7.46c-2.16-1.78-3.74-3.82-3.62-6.87c0.94-0.33,1.7-0.89,2.27-0.75c7.43,1.85,15.04,2.81,22.49,4.68
		c6.4,1.6,13.18,1.82,19.82,2.37c3.53,0.29,6.77,0.51,9.26,3.62C934.13,359.27,937.71,358.29,941.13,359.9z"/>
	<path fill="#1A1A1A" d="M321.23,697.35c4.43-2.25,5.45-6.56,8.1-9.18c2.78-0.18,3.94,1.08,4.08,3.47
		c0.41,7.16-3.21,11.27-10.44,11.65c-3.48,0.18-7.05,0.35-9.96-2.14c-1.45-1.23-3.26-1.06-4.89-1.58
		c-5.85-1.86-10.25-5.25-11.09-11.72c-0.57-4.36-2.9-7.93-4.73-11.68c-2.76-5.68-0.43-10.03,2.87-14.33
		c2.78,0.02,2.37-3.56,4.71-4.25c4.25,2.72,6.1,6.42,4.73,11.36c-1.4,5.02-0.06,9.92,0.7,14.77c0.86,5.5,4.29,9.44,9.45,11.63
		C316.78,696.19,318.99,696.66,321.23,697.35z"/>
	<path fill="#1A1A1A" d="M971.87,614.03c-6.08-11.25-15.02-20.03-21.23-31.26c4-1.86,7.54-3.53,11.1-5.14
		c3.45-1.56,5.32-4.2,6.02-7.9c1.48-7.8,3.09-15.57,4.73-23.71c3.21,3.05,3.86,6.18,2.81,10.19c-1.52,5.75-2.69,11.62-3.59,17.5
		c-1.73,11.23,0.31,22.3,1.92,33.36C973.96,609.31,974.72,611.48,971.87,614.03z"/>
	<path fill="#1A1A1A" d="M1038.58,1413.76c1.08,0.23,1.74,1,2.07,1.94c5.39,14.86,10.74,29.74,16.08,44.62
		c0.33,0.93,0.48,1.93-0.34,2.91c-2.8,0.62-4.57-1.32-6.21-3.06c-8.3-8.84-14.11-19.06-16.33-31.08
		C1032.69,1422.83,1034.33,1417.97,1038.58,1413.76z"/>
	<path fill="#1A1A1A" d="M1063.94,869.8c-1.16-4.79-1.13-10.01-0.1-14.97c1.21-5.81,5.38-9.39,11.33-10.44
		c6.33-1.11,12.6,1.5,15.5,6.42c0.83,1.42,2.23,2.76,1.74,4.68c-0.32,0.42-0.53,1.03-0.91,1.16c-9.41,3.3-17.32,9.5-26.33,13.58
		C1065.01,870.31,1064.72,870.09,1063.94,869.8z"/>
	<path fill="#1A1A1A" d="M673.54,1440.51c3.05-1.95,5.57-0.6,7.97,0.49c3.63,1.64,6.78,4.04,9.53,6.94
		c5.1,5.39,9.61,14.56,10.96,22.55c-4.83,0.48-9.5,2.51-14.76,0.85C684.13,1460.5,676.89,1451.39,673.54,1440.51z"/>
	<path fill="#1A1A1A" d="M541.96,397.24c1.66,5.19,0.47,8.01-2.91,10.8c-9.96,8.23-20.42,15.74-30.9,23.21
		c-2.43-2.92-6.02-13.45-7.74-22.65c7.43,3.13,14.77,4.68,22.41,2.33C530.38,408.6,536.8,404.6,541.96,397.24z"/>
	<path fill="#1A1A1A" d="M648.52,61.59c3.27-0.53,6.18,0.14,9.08,0.53c1.92,0.26,3.91,0.5,6.1,2.29c-0.97,7.66,1.45,16.2-4.44,23.99
		c-6.27-3.48-12.25-6.8-18.44-10.24C641.69,71.59,645.75,66.87,648.52,61.59z"/>
	<path fill="#1A1A1A" d="M637.05,76.01c-8.15-4.38-14.96-9.15-20.87-15.39c1.5-4.43,4.73-7.14,7.66-10.65
		c7.04,3.58,13.7,7.72,21.69,9.93C643.32,65.89,640.12,70.49,637.05,76.01z"/>
	<path fill="#1A1A1A" d="M308.27,667.09c12.6,8.99,10.55,6.65,21.87,6.51c1.01,1.17,0.65,2.32-0.14,3.37
		c-1.52,2.01-2.66,4.11-3.04,6.69c-0.21,1.4-1.07,2.76-1.85,4.01c-3.96,6.36-7.23,6.81-12.16,1.38
		C307.42,682.93,305.62,675.87,308.27,667.09z"/>
	<path fill="#1A1A1A" d="M526.63,320.61c0.25,6.12-2.66,10.78-5.21,15.51c-0.43,0.79-1.39,1.51-2.26,1.81
		c-5.23,1.8-10.56,2.57-15.95,0.66c-2.74-0.97-4.17-3.02-3.96-5.57c0.21-2.68,1.91-3.75,4.42-4.1c5.76-0.79,10.79-3.4,15.58-6.55
		C521.3,321.03,523.24,319.32,526.63,320.61z"/>
	<path fill="#1A1A1A" d="M496.36,324.98c-4.39,12.2-1.09,14.46,5.49,19.5c0.29,2.17-1.36,2.97-2.85,3.75c-3,1.58-4.62,1.4-6.37-1.27
		c-2.19-3.33-4.65-6.32-7.5-9.12c-3.39-3.34-3.82-7.95-3.63-12.43c0.13-3.25,2.62-5.17,6.02-5.36
		C491.35,319.82,494.1,321.59,496.36,324.98z"/>
	<path fill="#1A1A1A" d="M304.44,595.37c2.59,15.45,6.93,29.57,8.91,44.13c-2.14,1.71-3.87,1.66-5.37-0.26
		c-0.75-0.97-1.46-2.03-1.92-3.16c-4.68-11.49-6.17-23.38-4.36-35.66C301.91,598.96,302.19,597.47,304.44,595.37z"/>
	<path fill="#1A1A1A" d="M1073.44,908.32c-2.86-5.42-2.95-10.67-6.45-14.42c-3.25-3.47-7.17-5.86-11.58-7.71
		c1.62-7.15,7.88-8.54,12.76-11.55C1073.53,882.84,1076.45,899.6,1073.44,908.32z"/>
	<path fill="#1A1A1A" d="M891.53,407.66c8.86-1.12,15.89-2,22.82-2.87c3.4,10.31,1.88,15.54-5.48,19.17
		c-3.46-1.37-5.53-4.61-8.2-7.1C897.98,414.34,895.47,411.63,891.53,407.66z"/>
	<path fill="#1A1A1A" d="M475.61,338.73c2.17,0.2,4.39,0.98,5.85,2.61c2.95,3.27,5.81,6.69,8.21,10.38c2.1,3.23,1.25,6.03-1.71,8.42
		c-1.54,1.25-3.18,1.39-4.7,0.1c-4.5-3.84-8.5-8.17-11.68-13.16c-1.08-1.7-1.02-3.74-0.17-5.7
		C472.22,339.57,473.63,338.84,475.61,338.73z"/>
	<path fill="#1A1A1A" d="M861.17,378.02c6.02-6.79,11.84-13.73,15.79-21.82c8.68,2.63,8.5,9.05,8.07,16.04
		c-7.67,2.82-16.01,3.53-24.01,5.64L861.17,378.02z"/>
	<path fill="#1A1A1A" d="M600.86,34.19c1.98-2.23,3.47-2.98,5.77-2.82c3.8,5.81,9.46,10.35,14.09,15.82
		c-0.75,4.55-4.19,6.62-7.2,9.69C607.29,50.07,603.85,42.31,600.86,34.19z"/>
	<path fill="#1A1A1A" d="M510.89,296.39c-0.62-6.11-1.24-12.14-1.95-19.07c4.21,1.01,7.7,1.84,11.49,2.75c2,5.86,3,11.76,2.53,18.43
		C518.78,297.76,515.01,297.1,510.89,296.39z"/>
	<path fill="#1A1A1A" d="M1115.53,967.45c0.32-1.03,0.39-1.83,0.77-2.43c3.4-5.3,5.68-5.54,9.62-0.91
		c3.51,4.14,6.91,8.38,10.34,12.59c0.93,1.14,1.82,2.33,1.73,3.94C1129.89,981.62,1122.38,977.27,1115.53,967.45z"/>
	<path fill="#1A1A1A" d="M676.42,252.95c11.44,3.8,16.04,10.61,12.63,18.85c-1.87-2.39-2.71-5.23-5.55-6.79
		c-4.16-2.3-8-3.47-12.68-1.63c-3.16,1.24-6.55,2.15-11.62,2.24C666.27,261.45,672.39,258.37,676.42,252.95z"/>
	<path fill="#1A1A1A" d="M1094.12,926.42c3.59,1.62,5.5,6.64,9.89,3.09c2.62,2.64,3.28,5.87,5.06,8.76c-2.58,3.2-6.55,4.59-8.68,8.5
		c-4.39-4.12-6.78-8.98-9.4-13.6C1089.29,930.16,1091.14,928.09,1094.12,926.42z"/>
	<path fill="#1A1A1A" d="M297.04,632.91c4.67,3.3,5.24,8.58,9.1,11.45c3.51,2.61,6.54,5.87,9.73,8.79c-0.25,0.45-0.3,0.75-0.48,0.84
		c-8.18,4.75-9.84,4.36-15.07-3.07C296.68,645.73,296.09,640.03,297.04,632.91z"/>
	<path fill="#1A1A1A" d="M308.43,659.57c4.15-1.16,7.62-2.44,10.89-4.39c4.94,3.22,7.19,8.13,9.55,13.01
		C320.61,672.93,314.11,670.17,308.43,659.57z"/>
	<path fill="#1A1A1A" d="M508.4,273.07c-1.98-7.79-4.25-14.73-2.73-22.43c1.26,0.23,2.26,0.1,2.58,0.51
		c4.74,6,8.45,12.54,10.36,20.37C515.43,273.29,512.22,272.52,508.4,273.07z"/>
	<path fill="#1A1A1A" d="M499.33,321.07c-3.54-3.58-7.71-5.62-12.32-6.27c-1.91-1.78-2.2-3.99-2.76-6.42
		c2.08-2.66,4.98-4.43,8.15-6.41c4.45,4.31,7.07,9.61,9.81,14.79C503.19,318.62,501.97,320.02,499.33,321.07z"/>
	<path fill="#1A1A1A" d="M1007.84,366.66c8.42,7.18,12.12,16.44,13.16,26.84c-2.76,2.4-5.14,4.47-8.42,7.31
		C1014.11,388.36,1012.35,377.32,1007.84,366.66z"/>
	<path fill="#1A1A1A" d="M522.9,304.6c0.54,1.25,1.02,1.9,1.09,2.59c0.75,7.15-0.86,9-7.98,9.26c-0.99,0.04-1.99,0.01-2.97-0.12
		c-0.7-0.09-1.38-0.41-2.31-0.71c-2-4.05-1.31-8.06,0.22-12.56C515.17,303.02,519.1,304.21,522.9,304.6z"/>
	<path fill="#1A1A1A" d="M262.44,654.14c8.56,4.13,17.33,4.52,25.09,6.84c1.44,2.36,0.73,3.88-0.34,5.32
		c-0.85,1.14-2.17,1.28-3.35,1.01c-6.26-1.42-12.55-2.84-17.84-6.75C264.3,659.31,262.26,658.07,262.44,654.14z"/>
	<path fill="#1A1A1A" d="M291.53,636.39c-6.45-13.19-7.61-24.24-3.71-33.17c1.58,1.1,1.55,2.87,1.91,4.43
		c0.84,3.6,1.19,7.36,2.46,10.79C294.36,624.27,293.97,629.85,291.53,636.39z"/>
	<path fill="#1A1A1A" d="M660.85,298.04c-5.24-5.81-5.14-7.83-0.2-11.21c7.99-5.45,8.17-6.44,2.61-14.48
		c-0.54-0.79-1.11-1.56-1.73-2.43c2.81-1.48,4.99-0.61,7.1,0.88c2.04,1.44,3.91,2.98,4.7,5.53c0.57,1.86,0.22,3.44-1.07,4.79
		c-2.56,2.67-5.18,5.28-7.78,7.9C661.24,292.26,661.23,292.26,660.85,298.04z"/>
	<path fill="#1A1A1A" d="M884.43,125.52c-4.91-5.11-10.73-7.67-12.75-13.36c0.72-2.64,2.42-3.34,3.84-4.26
		c3.55-2.3,5.78-1.77,7.93,1.74C885.45,112.9,885.99,118.61,884.43,125.52z"/>
	<path fill="#1A1A1A" d="M840.16,147.35c2.73,2.66,2.81,5.21,3.2,7.59c1.29,7.97-4.36,12.92-12.05,10.56
		c-1.13-0.35-2.13-1.11-3.88-2.05C833.07,159.08,837.41,154.24,840.16,147.35z"/>
	<path fill="#1A1A1A" d="M936.07,433.13c5.02-3.37,8.32-8.37,14.7-11.16c-1.23,7.13-2.3,13.34-3.49,20.29
		C943.22,439.36,939.27,437.2,936.07,433.13z"/>
	<path fill="#1A1A1A" d="M1059.14,922.41c2.84-1.74,4.98-1.4,7.06-0.38c1.13,0.56,2.09,1.46,2.34,2.72
		c0.67,3.37-0.79,6.34-2.21,9.19c-1.3,2.61-2.86,5.24-6.9,5.31C1058.4,933.58,1058.87,928.03,1059.14,922.41z"/>
	<path fill="#1A1A1A" d="M471.48,289.11c2.41-2.28,4.05-4.4,6.9-5.61c3.29,3.99,7.36,7.19,9.49,12.21
		c-2.69,1.71-5.12,3.27-7.95,5.07C476.49,297.58,474.62,293.28,471.48,289.11z"/>
	<path fill="#1A1A1A" d="M1111.56,962.84c-3.74-3.72-6.1-6.76-7.95-9.99c2.79-4.96,2.79-4.96,8.22-7.16
		c3.59,1.6,4.54,5.33,6.69,8.77C1116.09,956.85,1113.13,958.71,1111.56,962.84z"/>
	<path fill="#1A1A1A" d="M454.08,265.78c6.39-0.62,9.33,1.49,18.71,12.4c-0.9,2.16-2.72,3.65-4.8,5.45
		C462.53,278.24,458.3,272.45,454.08,265.78z"/>
	<path fill="#1A1A1A" d="M936.56,400.26c-3.42,6.51-8.08,10.75-15.98,15c-1.15-2.87-0.74-5.67-0.29-8.48
		c0.35-2.21,1.66-3.52,3.8-3.98C927.89,402,931.7,401.25,936.56,400.26z"/>
	<path fill="#1A1A1A" d="M1069.7,916.6c-4.49-1.35-7.75-2.32-11.3-3.39c-1.72-3.56-3.11-7.33-2.15-12.19
		C1062.97,904.13,1068.3,907.72,1069.7,916.6z"/>
	<path fill="#1A1A1A" d="M895.19,882.55c-3.61,1.34-6.22,1.24-9-0.12c-1.02-3.11-0.11-6.33-0.02-9.49c0.09-3.16,0.75-6.31,1.39-11.2
		C891.8,869.11,892.85,875.78,895.19,882.55z"/>
	<path fill="#1A1A1A" d="M525.13,341.92c0.03-7.17,5.56-9.73,8.4-14.49c3.35,2.61,4.53,6.1,6.8,9.77
		C535.35,338.74,530.82,340.15,525.13,341.92z"/>
	<path fill="#1A1A1A" d="M1104.8,923.19c1.2,0.42,2.33,0.26,3.56-0.09c4.8-1.38,8.26,0.41,9.44,4.91c0.49,1.87,0.62,3.83,0.93,5.81
		c-1.47,1.46-3.19,2.23-5.47,2.65c-3.86-3.68-5.21-9.12-8.37-13.39L1104.8,923.19z"/>
	<path fill="#1A1A1A" d="M643.13,286.44c6.64-6.66,6.86-7.33,5.33-16.45c3.79-0.69,4.33-0.53,4.76,1.89
		c0.91,5.09,0.05,9.87-2.96,14.15c-0.56,0.79-1.29,1.48-2.05,2.09c-0.34,0.27-0.94,0.38-1.4,0.33
		C645.58,288.3,644.37,288.03,643.13,286.44z"/>
	<path fill="#1A1A1A" d="M944.87,404.51c0.71-4.73,3.29-7.12,6.87-8.28c3.05-0.98,5.85-0.32,7.35,3.45
		C954.77,402.27,950.24,403.61,944.87,404.51z"/>
	<path fill="#1A1A1A" d="M740.6,99.84c-1.04,0.1-1.8,0.51-2.24,1.56c-0.73,1.76-0.88,3.87-2.76,4.99c-6.56-4.15-6.62-4.33-2.92-10.8
		c3.32,0.05,5.78,1.77,7.77,4.39L740.6,99.84z"/>
	<path fill="#1A1A1A" d="M714.83,86.79c1.31-0.8,2.59-1.42,4.14-0.46c3.37,2.08,6.78,4.09,9.86,5.93c1.08,2.72-0.21,4.21-2.04,6.16
		c-3.45-4.48-8.87-6.78-11.84-11.75L714.83,86.79z"/>
	<path fill="#1A1A1A" d="M604.12,622.19c-7.57,5.17-13.35,12.34-21.41,18.01C586.93,631.94,596.41,623.87,604.12,622.19z"/>
	<path fill="#1A1A1A" d="M1120.53,939.57c1.9,5.84,3.71,11.41,5.52,16.97c-0.23,0.17-0.45,0.34-0.68,0.5
		c-1.56-2.22-3.2-4.38-4.66-6.67c-1.58-2.48-2.98-5.06-4.29-7.31C1116.61,940.6,1117.68,939.55,1120.53,939.57z"/>
	<path fill="#1A1A1A" d="M1054.91,890.46c6.23,2.06,10.1,5.66,12.3,11.92c-2.98,0.02-3.99-2.41-5.84-3.22
		c-2.02-0.88-4.22-1.55-5.93-2.86C1053.83,895.05,1053.59,892.98,1054.91,890.46z"/>
	<path fill="#1A1A1A" d="M717.98,291.27c-2.81,2.49-5.54,3.33-8.19,3.87c-2.16-1.69-1.74-3.77-2.04-5.31
		c0.55-1.1,1.18-1.45,1.96-1.41C712.47,288.57,715.04,289.35,717.98,291.27z"/>
	<path fill="#1A1A1A" d="M943.56,381.82c1.22-3.15,3.24-4.2,5.08-5.43c1.27-0.85,2.72-1.53,4.12-0.44c1.28,0.98,1.61,2.41,0.93,4.32
		C950.88,382.35,947.54,382.44,943.56,381.82z"/>
	<path fill="#1A1A1A" d="M285.41,634.67c2.51,7.36,5.01,14.73,7.73,22.71C289.37,654.57,286.81,647.37,285.41,634.67z"/>
	<path fill="#1A1A1A" d="M949.21,367.89c-4.2,1.4-7.9,2.58-12.6,2.33c1.44-3.63,3.84-5.38,7.06-5.95
		C945.99,363.87,948.12,364.4,949.21,367.89z"/>
	<path fill="#1A1A1A" d="M766.36,202.71c1.33-5.08,2.35-9.09,3.44-13.08c0.55-2.02,1.59-3.57,4.62-3.37
		C773.03,192.1,770.59,197.2,766.36,202.71z"/>
	<path fill="#1A1A1A" d="M597.51,17.06c2.18,3.41,4.36,6.82,6.29,9.84c-0.57,2.41-1.75,2.99-3.82,2.82
		C597.98,25.96,597.11,21.77,597.51,17.06z"/>
	<path fill="#1A1A1A" d="M891.65,371.24c-1.22-2.33-1.64-4.18-1.32-6.1c0.71-0.21,1.25-0.56,1.6-0.43c1.15,0.43,2.23,1.06,3.35,1.58
		c1.23,0.57,2.06,1.46,1.91,2.87c-0.19,1.82-1.48,2.45-3.14,2.45C893.33,371.6,892.61,371.4,891.65,371.24z"/>
	<path fill="#1A1A1A" d="M627.59,259.01c0.31,3.83-0.6,5.96-3,8.14c-0.72-3.05-1.36-5.71-1.95-8.22
		C624.78,256.9,625.82,259.38,627.59,259.01z"/>
	<path fill="#1A1A1A" d="M1099.5,925.22c-3.15-3.54-5.62-6.09-5.78-10.11C1099.15,916.41,1100.09,917.95,1099.5,925.22z"/>
	<path fill="#1A1A1A" d="M948.45,354.84c-4.04,0.69-7.27,0.78-10.68-0.21C940.53,350.46,940.53,350.46,948.45,354.84z"/>
	<path fill="#1A1A1A" d="M917.98,367.54c-2.83,1.37-5.64,1.37-9.94,0.59C912.22,366.01,915.16,367.19,917.98,367.54z"/>
	<path fill="#1A1A1A" d="M866.54,773.43c4.31-2.19,7.49,1.85,11.45,1.59C873.64,777.5,870.43,773.58,866.54,773.43z"/>
	<path fill="#1A1A1A" d="M910.66,775.86c-3.22,2.13-6.88,1.51-10.46,1.35C903.5,775.55,907.17,776.25,910.66,775.86z"/>
	<path fill="#1A1A1A" d="M645.3,457.84c3.03,3.9,4.44,7.39,7.08,11.73C646.99,466.03,646.73,465.59,645.3,457.84z"/>
	<path fill="#1A1A1A" d="M1109.84,911.46c4.94,2.33,4.94,2.33,4.71,7.96C1112.43,916.85,1109.78,915.24,1109.84,911.46z"/>
	<path fill="#1A1A1A" d="M1122.08,926.65c-2.35-3.48-3.28-7.17-1.89-11.18C1122.98,918.9,1121.5,922.92,1122.08,926.65z"/>
	<path fill="#1A1A1A" d="M596.12,222.88c-1.56-4.1-0.28-7.18,3.54-9.32C598.48,216.67,597.3,219.77,596.12,222.88z"/>
	<path fill="#1A1A1A" d="M959.41,355.85c-0.95-2.98,0.16-4.52,1.28-6.07c0.39,0.25,1.01,0.43,1.07,0.73
		C962.18,352.54,962.72,354.7,959.41,355.85z"/>
	<path fill="#1A1A1A" d="M714.94,86.68c-3.23-0.86-5.29-3.27-7.66-5.59c5.05,0.78,5.05,0.78,7.55,5.7L714.94,86.68z"/>
	<path fill="#1A1A1A" d="M686.87,253.18c1.59-2.23,3.15-1.12,5.54-1.24C690.12,253.41,688.69,254.01,686.87,253.18z"/>
	<path fill="#1A1A1A" d="M706.69,279.4c1.39-0.04,2.31,0.56,2.3,1.96c0,0.78-0.81,1.25-1.5,0.91
		C706.27,281.68,705.97,280.65,706.69,279.4z"/>
	<path fill="#1A1A1A" d="M510.08,320.63c-0.78,2.1-2.06,2.37-4.41,1.98C507.08,321.35,507.36,319.54,510.08,320.63z"/>
	<path fill="#1A1A1A" d="M845.94,550.55c-0.04,0.62-0.12,1.69-1.45,1.57c-0.85-0.07-1.11-0.92-1.07-1.65
		c0.04-0.74,0.4-1.45,1.26-1.57C845.61,548.77,845.89,549.41,845.94,550.55z"/>
	<path fill="#1A1A1A" d="M316.15,646.84c-1.6,0.33-2.88-0.02-2.93-1.88c-0.03-1.1,1.88-0.78,2.69,0.58
		C316.13,645.88,316.08,646.38,316.15,646.84z"/>
	<path fill="#1A1A1A" d="M807.18,397.58c-0.41,0.97-1.18,1.46-2.18,1.23c-0.79-0.18-1-0.91-0.64-1.62c0.51-1.01,1.44-1.14,2.37-0.75
		C806.99,396.55,807.03,397.19,807.18,397.58z"/>
	<path fill="#1A1A1A" d="M942.73,571.7c-1.61-0.73-2.18-1.67-1.98-2.95c0.03-0.17,0.86-0.45,1.17-0.31
		C943.19,569.01,943.41,570.05,942.73,571.7z"/>
	<path fill="#1A1A1A" d="M486.18,301.06c0.44,1.8-1.02,1.91-2.04,2.41C483.51,301.54,484.81,301.3,486.18,301.06z"/>
</g>
</svg>
