<?xml version="1.0" encoding="utf-8"?>
<!-- Generator: Adobe Illustrator 24.0.2, SVG Export Plug-In . SVG Version: 6.00 Build 0)  -->
<svg version="1.1" id="Layer_1" xmlns="http://www.w3.org/2000/svg" xmlns:xlink="http://www.w3.org/1999/xlink" x="0px" y="0px"
	 viewBox="0 0 580.01 1091.83" style="enable-background:new 0 0 580.01 1091.83;" xml:space="preserve">
<style type="text/css">
	.st0{fill:#1A1A1A;}
</style>
<g>
	<path d="M104.47,1073.51c-3.06,9.48-7.22,14.34-16.99,4.22c-1.94-2.01-4.1-2.65-6.78-3.33c-7.75-1.98-15.1-5.3-21.96-9.46
		c-3.33-2.03-6.85-3.74-9.95-6.22c-3.76-3-6.24-6.35-7.07-11.3c-0.85-5.02-2.69-10.03-1.75-15.07c1.66-8.92,1.43-17.99,2.74-26.93
		c0.57-3.88,0.75-7.87,1-11.79c0.39-6.09,1.36-12.1,2.36-18.05c2.81-16.7,7.12-33.08,12.78-49.06c2.17-6.13,4.45-12.21,6.36-18.44
		c0.58-1.91,0.74-3.37-0.27-5.12c-3.29-5.68-2.29-11.73-1.32-18.08c-19.55,0.18-33.29-8.96-41.94-26.02c3-4.28,7.01-2.75,11.02-3.45
		c-3.86-2.2-7.18-4.16-10.56-6.02c-12.23-6.77-19.17-16.94-21.42-30.87c-1.64-10.16-0.17-19.95,1.03-29.9
		c0.28-2.29,2.18-1.51,2.92-2.56c-1.74-3.2-1.32-3.83,1.93-4.41c14.66-2.59,29.02-6.21,41.78-14.27c3.24-2.05,5.93-4.99,8.82-7.58
		c10.77-9.62,22.32-18.14,34.93-25.2c0.98-0.55,1.73-1.52,2.81-2.49c-3.14-5.73-6.32-11.37-9.35-17.09
		c-5.37-10.14-9.26-20.94-11.4-32.12c-1.31-6.86-1.94-13.96-2.47-21.03c-0.86-11.44-0.25-22.91-1.15-34.28
		c-0.4-4.99,0.44-9.75,0.27-14.61c-0.06-1.77,0.48-3.7-1.26-5.09c-1.36-1.08-0.01-2.04,0.18-3.07c1.21-6.69,4.9-12.41,7.39-18.59
		c3.07-7.61,5.57-15.33,6.55-23.43c0.98-8.14,3.02-16.08,5.37-23.81c4.58-15.1,7.87-30.56,12.77-45.56
		c3.03-9.27,5.34-18.79,9.94-27.52c4.21-7.97,9.04-15.51,14.75-22.74c-7.33-2.23-9.79-8.53-10.44-14.84
		c-0.83-7.96-0.81-16.12,1.59-24.08c0.7-2.34,1.39-4.92,2.51-6.81c2.45-4.14,2.03-7.69,0.2-11.73c-2.5-5.53-3.64-11.53-4.41-17.48
		c-0.79-6.13,1.25-11.98,3.49-17.63c2.25-5.67,5.18-11.21,9.56-15.28c6.65-6.19,13.9-11.88,23.13-14.07
		c0.2-6.58-5.16-11.44-6.63-18.69c7.05,1.74,13.4,0.32,20.17-1.41c-3.03-2.42-4.84-5.57-7.16-8.32c-2.23-2.65-2.84-6.11-3.51-9.38
		c3.11-3.45,6.26,0,9.76,0.21c-0.39-2.7-2.13-4.35-3.14-6.22c-5.75-10.63-11.22-21.41-13.49-33.35c-1.23-6.48-0.62-13.21,0.92-19.69
		c0.36-1.5,0.86-2.64,0.02-4.16c-1-1.82-0.24-3.93,0.21-5.69c0.67-2.58,3.01-0.38,4.45-0.9c3.91-1.41,7.95-1.63,12.02-2.1
		c6.22-0.72,9.3-1.12,14.37,0.05c-6.87-11.26-10.57-22.71-6.76-35.62c-9.14-0.74-17.33-3.88-23.09-11.33
		c-5.85-7.57-10.08-16.07-11.36-25.66c-0.34-2.59-1.08-5.11-1.21-7.77c-0.41-8.26,2.31-15.7,4.92-23.34
		c3.41-9.96,9.56-18.17,15.92-26.12c5.91-7.39,14.48-11.72,22.94-15.68c3.11-1.46,6.91-0.38,10.07,1.13c2.08,1,4.28,1.53,6.71,2.68
		c2.5-3.6,3.29-7.71,3.45-11.88c0.15-3.98,1.06-7.74,2.01-11.55c0.36-1.45,0.86-2.55,2.45-2.62c1.58-0.07,2.27,0.91,2.64,2.4
		c0.5,2.04,1.06,4.09,2.49,6.21c4.59-12.04,11.36-22.3,20.92-30.58c4.09-3.54,8.67-6.41,13.4-9.02c2.58-1.42,2.66-1.29,6.08,0.79
		c0.24,3.78-3.89,5.39-4.58,8.88c9.86-2.48,18.5-7.37,27.14-12.08c3.83-2.09,4.85-6.84,7.03-10.45c7.24,2.61,9.58,6.8,10.76,19
		c13.85-8.39,28.14-11.82,44.02-3.06c-7.26,6.25-15.64,11.19-22.91,19.1c14.93-3.18,27.86-1.17,39.8,6.45
		c2.79,1.78,5.62,3.49,5.74,7.33c-0.71,0.92-2.26-0.01-2.7,1.32c-2.22,6.68-6.5,12.33-9.27,18.74c-1.09,2.52-0.04,4.44,2.29,4.76
		c7.59,1.05,12.23,6.08,16.64,11.55c0.31,0.39,0.76,0.72,0.91,1.16c2.74,8.09,10.15,13.17,13.38,21.01
		c2.46,5.96,8.15,8.22,13.72,10.34c8.6,3.27,15.93,8.23,21.31,15.82c0.28,0.4,0.66,0.81,0.74,1.26c1.2,6.42,6.22,11.14,7.68,17.67
		c-2.46,2.09-3.09,4.5-2,8.13c1.01,3.37,0.44,7.27,0.25,10.92c-0.1,1.99-1.13,2.17-3.84,0.98c0.25,6.76-1.91,12.95-4.43,18.98
		c-3.7,8.86-7.33,17.78-13.6,25.29c-3.57,4.27-6.57,9.06-11.62,11.87c-0.42,0.24-1.17,0.31-1.28,0.63
		c-1.92,5.45-6.58,9.58-7.19,15.72c-0.56,5.68-1.89,11.28-2.49,16.96c-1.21,11.42-3.91,23.09,0.69,34.17
		c4.18,10.07,8.45,20.19,14.22,29.54c0.94,1.53,1.88,3.1,2.53,4.77c0.59,1.52,1.54,2.74,2.91,3.21c8.25,2.78,13.52,8.49,17.33,16.17
		c2.15,4.33,5.68,7.97,6.43,13.01c0.46,3.07,1.51,6.18,1.32,9.21c-0.53,8.5,1.02,16.79,2.29,25.06c0.66,4.28,0.9,8.41,0.46,12.4
		c14.64,10.81,24.04,24.7,27.48,42.65c1.09,5.71,4.04,10.95,5.47,16.67c2.88,11.54,5.47,23.12,7.53,34.85
		c1.21,6.9,2.64,13.88,3.38,20.73c1.37,12.81,5.75,24.74,8.49,37.13c0.65,2.94,2.17,5.31,3.94,7.75
		c7.77,10.68,16.93,20.68,21.27,33.34c4.01,11.73,10.46,22.5,13.46,34.53c3.56,14.24,8.69,28.26,7.37,43.36
		c-0.16,1.79,0.17,3.49,0.9,5.27c2.48,6.11,4.04,12.3,2.28,19.1c-0.89,3.42,0.44,7.24,1.05,10.71c1.64,9.34,0.68,18.31-1.83,27.27
		c-2.83,10.1-7.23,19.44-13.44,27.91c-0.58,0.79-1.09,1.77-1.88,2.26c-5.48,3.47-5.25,8.66-3.94,13.88
		c1.68,6.71,2.46,13.47,3.06,20.36c0.61,7.01,0.84,13.97,0.79,20.97c-0.04,5.78-1.19,11.44-2.46,16.99
		c-0.64,2.81-0.08,5.58-0.89,8.33c-2.4,8.06-6.83,15.14-10.58,22.55c-3.92,7.73-9.01,14.76-13.19,22.31
		c-3.22,5.81-4.94,12.42-5.75,19.04c-0.35,2.88-1.47,4.49-3.96,5.77c6.59,6.18,10.2,14.46,15.73,21.37
		c2.86,3.58,5.78,6.24,10.56,7.25c5.24,1.1,10.3,3.49,14.21,7.26c3.95,3.81,8.2,7,12.92,9.77c7.19,4.22,10.49,11.44,13.3,18.81
		c4.34,11.37,3.36,22.69-0.97,33.83c-1.67,4.31-5.84,7.07-9.34,6.53c-7.29,10-11.09,11.16-16.79,5.11
		c-2.41,0.16-3.91,1.17-4.95,3.61c-1.1,2.59-3.6,4.33-5.75,6.13c-1.62,1.36-3.65,1.14-5.51-0.05c-2.06-1.32-4.17-2.57-5.71-3.52
		c-17.35,5.81-34.31,5.91-51.63,0.4c0.07,5-1.94,8.89-6.58,10.59c-4.84,1.77-8.53-0.91-12.05-4.49c-1.28,0.76-2.32,2.42-4.46,1.05
		c-1.99-1.27-4.45-0.76-6.97-0.38c-9.87,1.49-19.74,3.27-29.88,1.33c-4.46-0.85-9.19-0.78-13.78-1.01
		c-9.06-0.46-16.71-3.76-23.54-9.39c-1.53-1.26-3.32-1.99-4.93-3.1c-9.98-6.91-16.2-16.77-22.15-26.97
		c-6.17-10.56-12.78-20.86-19.02-31.38c-3.93-6.62-7.13-13.58-7.88-21.4c-0.17-1.76-0.35-3.25-2.83-3.52
		c-1.26-0.14-1.72-2.06-2.36-3.45c-1.18-2.57-0.05-5.85-3.51-7.95c-1.88-1.14-1.58-5.13-1.25-8.27c-3.44-1-4.18-2.6-3.38-6.68
		c1.69-8.67,5.78-15.51,12.04-21.22c-0.26-0.64-0.43-1.07-0.61-1.5c-4.18-9.86-4.58-6.64,2.71-15.5c1.88-2.28,4.05-4.32,5.7-6.8
		c0.27-0.41,1-0.87,0.92-1.11c-1.58-4.85,2.71-5.91,5.55-8.33c-6.02-4.06-10.19-9.63-14.05-16.11c-3.23,7.81-5.65,15.27-9.29,22.07
		c-6,11.21-11.34,22.94-20.69,32.01c-1.27,1.23-1.71,2.67-2.31,4.21c-4.01,10.35-8.94,20.23-16.5,28.5
		c-1.96,2.14-4.56,3.74-6.74,5.77c-1.87,1.75-2.13,3.72-2.5,6.11c-2.36,15.29,4.42,27.93,11.32,40.57c0.41,0.75,0.53,1.55,0.87,2.25
		c1.7,3.45,2.97,6.97,6.55,9.43c5.04,3.45,7.69,8.96,8.9,14.83c1.21,5.92,3.03,11.86,2.4,17.98c-0.47,4.53-0.65,9.13-1.95,13.56
		c-1.05,3.59-2.46,6.88-5.98,8.86c-1.3,0.73-1.74,2.15-2.18,3.7c-1.12,4.01-3.56,7.3-6.68,10.1c-3.83,3.43-6.92,2.86-9.12-1.79
		c-1.52-3.21-1.65-3.02-4.47-0.77c-6.86,5.47-14.45,9.52-23.42,10.1c-1.85,0.12-2.84,0.73-3.89,2.19c-1.25,1.74-2.9,3.22-4.53,4.64
		c-5.31,4.64-13.01,2.89-14.42-3.89c-0.9-4.32-3.18-4.15-5.94-3.8c-3.79,0.47-7.56,2.08-9.32,5.42c-4.33,8.16-9.48,6.31-14.8,2.07
		c-3.05-2.43-6.47-3.24-9.97-3.48c-12.06-0.8-23.46-3.85-34.31-9.1C107.45,1075,106.14,1074.34,104.47,1073.51z"/>
</g>
<g>
	<path class="st0" d="M216.06,597.98c-7.79-5.22-16.3-9.14-24.99-12.39c-7.88-2.94-16.18-4.87-24.41-6.74
		c-5.91-1.34-11.61-3.13-17.29-5.63c0.22-0.82,0.48-1.83,0.77-2.91c6.46,0.62,12.58,3.02,20.22,3.34
		c-6.96-3.71-13.66-4.44-20.54-6.52c3.54-2.56,7.19-1.06,10.53-1.38c3.61-0.35,7.21,0.01,11.35,1.51c-1.19-4.61,3.33-5.96,3.76-9.51
		c0.2-1.64,0.28-3.28,0.36-4.92c0.09-2.03-0.97-2.73-2.95-3.19c-4.91-1.15-9.86-0.87-14.8-0.93c-1.82-0.02-3.64,0-5.47,0
		c-1.55-2.43-0.16-5.07-1.05-7.37c-4.86-0.72-6.2,0-8.08,4.17c-1.53,3.39-3.65,5.99-7.83,6.24c-9.35,0.54-14.07,6.15-15.83,14.84
		c-0.23,1.12-1.25,2-0.94,3.27c0.11,0.46,0.18,0.93,0.34,1.76c6.04,0.3,11.35-2.82,17.3-3.28c0.74,1.31,0.21,2.95,0.25,4.81
		c-4.77,1.38-9.79,1.81-14.57,3.34c-2.65,0.85-4.79,2.02-6.62,3.99c-4.83,5.21-7.29,11.75-8.53,18.4
		c-1.57,8.41,6.58,16.42,15.26,16.91c11.27,0.63,19.05-4.67,25.23-13.34c1.77-2.48,1.25-5.39,1.37-8.37
		c4.72,1.46,8.51,4.58,13.31,5.46c1.2-1.18,0.2-2.85,1.38-5.03c0.27-0.43,2.07,0.8,3.26-0.81c0-2.92,0-6.21,0-9.91
		c15.01,3.78,29.65,7.28,42.92,14.88c3.32,1.9,6.05,4.02,4.71,8.79c-10.33-5.84-20.32-12.48-32.99-12.74
		c0.76,1.89,2.53,2.19,3.79,2.65c11.81,4.3,22.28,11.03,31.97,18.74c3.76,2.99,6.24,7.98,8.42,12.48
		c6.89,14.18,11.88,29.21,19.42,43.63c-14.09,1.5-25.55,8.69-36.6,15.88c-10.78,7.02-21.21,14.76-31.02,23.26
		c-6.84,5.92-14.06,11.59-20.19,18.09c-6.21,6.59-12.33,13.33-18.59,19.92c-2.32,2.44-4.84,4.38-7.98,4.75
		c-4.5-4.47-9.6-8.09-15.31-10.4c-6.49-2.62-11.18-7.16-14.37-12.86c-6.76-12.08-13.58-24.2-17.38-37.69
		c-2.21-7.86-4.02-15.77-4.89-23.93c-1-9.37-2.53-18.68-3.85-28.19c2.56,0.8,3.37,3.42,5.67,4.3c0.34-1.7-0.87-2.77-1.47-4.03
		c-6-12.67-5.5-26.04-2.98-39.16c1.22-6.38,5.26-12.21,7.31-18.59c2.89-8.99,6.19-17.81,6.58-27.49c0.18-4.45,2.02-8.85,3.26-13.24
		c2.6-9.23,6.18-18.14,8.61-27.44c3.41-13.06,7.37-25.97,11.91-38.7c5.2-14.57,12.38-28.07,22.58-39.72
		c2.24-2.56,6.02-3.79,9.15-5.54c6.87-3.83,14.17-7.24,21.83-8.23c8.59-1.12,17.38-1.12,26.16,0.64c9.13,1.83,16.07,6.86,22.7,12.75
		c0.99,0.88,2.05,1.39,3.33,1.62c0.93-2.1-1.21-3.37-1.2-5.26c2.93-1.07,5.85,0.45,8.53,0.96c10.68,2.02,21.4,1.73,32.13,1.76
		c8.33,0.02,16.72-0.59,24.98,0.16c10.1,0.91,20.23,1.7,30.27,3.42c5.46,0.94,10.99,1.76,16.52,2.37c9.93,1.1,19.7,2.69,28.83,7
		c2.26,1.06,2.29,1,4.99-0.25c-1.57-2.46-3.78-3.69-6.45-4.79c-9.04-3.73-18.58-4.59-28.1-6.1c-8.39-1.33-16.86-2.14-25.25-3.48
		c-4.95-0.79-10.14-1.31-15.26-1.31c-15.16-0.01-30.33-0.25-45.49,0.09c-8.65,0.2-17.17-1.63-25.8-1.07c-2,0.13-3.05-1.07-4.15-2.28
		c-8.56-9.37-19.51-12.74-31.81-12.75c-8.39-0.01-16.73-0.38-24.83,2.92c-11.19,4.56-21.85,9.69-29.06,19.96
		c-0.64,0.91-1.51,1.26-3.08,0.92c-5.44-14.13-3.83-28.65-1.22-43.22c2.06-0.16,1.4,2.53,2.96,2.84c0.47,0.27,0.69,0.15,0.67-0.35
		c-0.17-3.79-1.89-7.19-2.77-10.79c-2.23-9.07-4.65-18.1-4.17-27.6c0.1-2.06,0.43-3.94,1.56-5.6c3.66-5.41,6.95-11.15,11.22-16.03
		c4.27-4.89,9.96-8.35,15.88-12.54c0.43,4.6,1.1,8.47,2.6,12.27c2.77,7.03,7.57,12.55,12.27,18.18c8.28,9.94,19.6,15.22,31.08,20.41
		c8.18,3.69,16.5,7.22,24.9,10.05c9.17,3.09,18.72,5.47,28.21,7.79c15.94,3.9,31.97,7.5,47.72,12.28c7.24,2.2,15.04,2.88,22.52,4.53
		c7.01,1.55,14.13,2.66,21.19,3.69c6.62,0.96,13.37,1.43,20.05,2.3c0.96,0.13,1.95-0.11,2.86,0.55c6.71,4.96,14.29,8.51,21.23,13.11
		c2.76,1.83,4.07,5.1,7.26,6.93c1.07-1.28-0.05-3.14,1.2-4.7c2.1,2.25,4.2,1.91,6.22-0.28c1.91-2.08,4.26-3.85,5.84-6.14
		c6.73-9.79,9.77-20.61,10.49-32.58c0.51-8.44-2.33-15.89-3.59-23.81c-1.79-11.25-8-20.6-12.04-30.87
		c-0.46-1.17-1.37-2.17-1.48-3.84c11.08,6.2,15.25,17.06,19.64,27.62c0.89,2.14,0.29,4.95,0.2,7.44
		c-0.27,7.83,1.28,15.23,4.32,22.47c1.49,3.55,2.26,7.24,0.86,11.41c-2.77,8.27-4.06,17.06-8.95,24.89
		c-1.89-1.12-3.33-2.97-6.03-2.31c-6.46,7.68-2.51,16.37-0.77,24.98c2.1,10.38,4.45,20.72,5.81,31.53
		c-8.03,1.66-15.76,3.27-23.95,4.96c0.01-3.99-2.17-7.47,1.29-10.6c1.17-1.06,0.32-2.69-0.6-3.57c-4.12-3.94-3.71-9.21-3.85-14.07
		c-0.18-6.37-2.17-12.23-4.24-18c-2.09-5.83-3.99-7.74-12.23-6.92c-4.49,4.49-2.79,10.28-2.42,15.44
		c0.46,6.36,1.59,12.71,1.71,19.12c0.03,1.65,0.78,3.11,0.85,4.75c-3.07,0.1-3.35-3.9-6.93-3.73c-4.32,0.2-3.46,3.77-5.42,5.81
		c-1.36-3.36-3.7-4.94-7.4-4.62c-3.7,0.32-3.22,3.62-4.54,5.64c-4.43-0.9-5.25-0.53-6.44,3.39c-0.3,0.98-0.23,2.11-1.59,1.97
		c-2.93-0.29-3.46,1.89-3.9,4.14c-5.76-1.24-11.2-2.25-16.83-2.14c-9.93,0.2-13.95,3.97-12.56,13.67c1.19,8.33,2.63,16.73,6.8,24.34
		c2.37,4.32,5.57,7.7,9.71,10.24c3.76,2.3,4.17,5.82,1.4,9.28c-3.26,4.07-6.64,8.06-9.15,12.71c-3.54,6.55-4.41,12.92-0.06,19.47
		c0.43,0.65,1.42,1.51,0.67,3.21c-2.26-2.21-3-5.29-5.26-7.23c-3.06-2.64-5.57-3.65-7.32-2.01c-2.43,2.29-2.16,4.89-0.38,7.5
		c0.17,0.25,0.21,0.6,0.31,0.9c-5.95,4.71-5.24,10.84,1.69,13.91c0.77,0.34,1.52,0.57,2.09,1.21c2.74,3.07,6.18,3.29,10,2.43
		c2.31,4.78,5.64,8.22,11.5,7.83c1.02-0.07,1.41,0.66,1.93,1.2c2.45,2.56,5.8,1.79,8.7,2.61c2.74,0.77,4.31,4.28,7.58,4.7
		c1.15,0.15,2.33,0.09,3.5,0.05c2.45-0.08,4.22,0.57,6.39,2.29c3.47,2.74,7.91,4.5,12.79,3.76c1.28-0.19,2.14-0.65,2.86-1.65
		c2.67-3.73,5.69-4.64,9.87-3.05c3.19,1.22,8.33-0.63,9.85-3.54c1.16-2.22-0.27-5.43-2.94-5.65c-2.19-0.18-4.12-1.01-6.39-1.46
		c3.26-4.71,6.21-9.32,7.14-15.25c0.89-5.63-0.17-11.24,0.8-16.81c1.35-1.11,3.1-0.97,4.29-0.51c6.09,2.38,11.85,0.02,17.25-1.71
		c6.79-2.18,10.23-8.2,12.16-14.9c0.58-2.03,0.87-4.15,1.38-6.2c0.94-3.75,0.97-3.74-2.16-7.2c-0.76-0.07-1.23,0.43-1.66,0.93
		c-0.41,0.47-0.75,1-0.99,1.31c-3.32-4.74-10.06-0.17-13.43-5.79c-0.99-4.91,0.78-10.39,2.27-15.93c1.16,1.03,1.82,2.68,3.84,3.42
		c2.26-2.91,5.75-3.48,9.35-4.05c0.84,2.99,0.29,5.83,0.43,8.63c0.07,1.33-0.06,2.67,0.03,4c0.26,3.68,2.48,6.14,5.64,6.36
		c2.18,0.15,4.41-2.46,5.36-5.54c1.51-4.91,0.56-9.81-0.2-14.56c-0.59-3.67,0.62-7.05,0.32-10.6c-0.14-1.68,2.11-3.66-0.92-4.83
		c-0.1-0.04-0.12-0.71,0.05-0.91c4.1-5,0.49-9.93-0.32-14.76c-1.64-9.8-4.15-19.45-7.96-28.64c-3.2-7.71-4.92-15.82-7.39-23.73
		c-0.68-2.17-0.67-3.93,0.47-5.57c3.93-5.63,5.73-12.21,8.49-18.36c8.02,8.48,14.03,18.39,19.71,28.47c1.72,3.05,3.07,6.46,3.76,10
		c0.12,0.6,0.67,1.49,0.46,1.72c-3.37,3.64-0.43,6.83,0.82,9.96c2.73,6.86,3.6,14.18,5.61,21.21c0.54,1.88-0.01,3.71,2.61,4.98
		c1.48,0.72,0.75,4.19,1.25,6.42c1.77,7.96,2.78,16.08,4.25,24.1c0.67,3.67,1.75,7.27,2.61,10.9c0.19,0.79,0.49,1.7,0.26,2.4
		c-0.79,2.41-3.89,3.94-2.66,7.13c-4.11,0.74-2.37,4.1-2.04,5.93c0.89,4.94,2.34,9.82,3.99,14.57c1.33,3.84,3.2,7.5,4.99,11.17
		c2.22,4.57,2.56,4.63,7.33,2.62c0.6-0.25,1.23-0.43,2.4-0.84c3.75,7.65,8.74,14.82,13.95,22.52c-1.39,0.1-2.46,0.06-3.46,0.28
		c-0.94,0.2-1.86,0.61-2.72,1.07c-0.64,0.34-0.96,1.23-0.63,1.72c1.99,3.01-3.37,4.21-1.31,8.02c5.1,9.45,7.77,19.95,10.96,30.38
		c1.54,0.73,3.01-0.73,4.83-0.22c0.39-2.51,0.77-5.09,3.85-5.03c1.99-3.29-1.58-6.22,0.28-9.94c5.76,18.61,12.41,36.39,15.5,56.16
		c-6.61-6.75-13.5-11.61-21.25-15.32c-2.86-1.37-4.83-4.08-6.86-6.46c-3.5-4.1-7.68-6.02-13.04-5.47c-1.13,0.12-2.28,0.02-3.7,0.02
		c-1.36-9.44-2.89-18.56-5.23-27.53c-1.47-5.62-4.58-10.45-6.9-15.62c-4.26-9.5-8.62-18.97-14.29-27.83
		c-2.12-3.31-3.07-8.25-2.57-12.19c1.15-9.12,2.09-18.21,2.91-27.37c1.35-15.13,1.08-30.26,0.53-45.31
		c-0.59-15.97-3.26-31.83-8.79-47.03c-2.94-8.09-8.74-14.45-13.09-21.67c-0.91-1.52-1.58-3.32-3.84-4.28
		c1.4,4.95,3.71,9.31,6.27,13.24c4.68,7.18,6.81,15.11,8.64,23.22c0.9,3.97,0.8,8.28,2.26,11.99c1.53,3.89-0.05,6.37-2.21,8.81
		c-2.8,3.16-4.05,7.03-5.64,10.77c-0.48,1.13-0.26,2.29-0.35,3.44c-0.12,1.47,0.29,2.79,1.74,3.23c1.46,0.44,2.91,0.21,4.06-1.12
		c1.54-1.79,2.33-4.17,5.15-6.46c-0.58,11.27,1.77,21.47,0.89,32.22c-2.2-1.05-4.08-0.23-5.77,1.02c-0.89,0.66-1.96,1.38-2.03,2.7
		c-0.29,5.43,4.63,4.52,7.54,6.24c1.35,3.93,1.92,8.05,1.1,12.24c-2.03,0.44-2.52-1.87-4.2-1.7c-1.45,0.14-3.16-0.45-4.04,1.21
		c-0.72,1.37-0.65,2.7,0.36,4.15c1.9,2.72,4.68,4.38,7.1,6.5c-0.02,3.65-3.03,6.78-2.65,10.16c0.44,3.89,2.42,7.61,4.09,12.43
		c-4.23-3.52-7.23-6.67-9.91-10.37c-1.1,2.68,0.12,4.51,1.39,6.21c7.35,9.87,12.9,20.78,18.64,31.61c3.42,6.46,8.2,12.23,9.72,19.63
		c1.24,6.05,3.87,11.82,3.76,18.13c-0.03,1.45,0.72,2.52,1.17,3.73c1.11,3.01,1.18,3.39,0.04,7.5c-3.25-1.79-2.18-5.31-2.94-7.88
		c-2.68-9.04-5.25-18.12-8.7-26.89c-1.68-4.26-4.25-8.05-8.85-9.88c-2.26-0.9-3.92-2.65-5.67-4.2c-4.7,2-8.56,4.99-12.07,8.49
		c-10.85,10.83-22.17,21.13-35.27,29.21c-8.98,5.54-18.23,10.34-29.45,9.32c-4.66-0.42-8.96-1.93-13.26-3.28
		c-10.39-3.26-20.52-7.38-30.91-10.64c-4.3-1.35-8.61-2.8-13.25-3.3c-9.43-1.01-15.69,3.43-20.62,10.67
		c-4.22,6.2-7.74,12.82-10.78,19.67c-1.61,3.63-4.03,6.73-6.15,10c-2.58,3.97-3.63,8.7-6.28,12.53c-4.57-1.64-8.26-4.39-12.86-5.28
		c-3.78-0.73-3.53-5.1-5.55-7.52c-0.97-1.17-1.16-3.12-3.38-2.63c-0.16-5.48-1.86-10.65-3.96-15.57
		c-2.82-6.59-4.67-13.56-8.13-19.91c-4.05-7.43-6.77-15.83-12.44-22.04c-3.12-3.42-4.07-6.41-3.55-10.32c0.31-2.35-2.45-3.18-2-5.35
		c2.95-1.92,3.18-5.22,3.87-8.15c2.46-10.44,4.6-20.95,7.11-31.37c1.49-6.18,3.59-12.33,3.78-18.63c0.29-9.42,3.17-18.37,3.97-27.64
		c0.51-5.82,1.03-11.68,0.05-17.5c-0.47-2.79-1.4-4.16-3.88-6.54c2.11,6.68,1.82,12.98,1.3,19.6c-0.91,11.65-4.41,22.77-5.53,34.34
		c-1.02,10.53-5.23,20.44-7.28,30.81C217.65,581.1,216.25,589.46,216.06,597.98z M160.21,463.74c-2.47,0-4.63-0.02-6.79,0.01
		c-2.04,0.03-3.76,0.52-4.84,2.57c-1.98,3.75-3.56,7.64-4.75,11.5c2.85,3.22,6.81,1.05,9.92,2.43c0.21,2.79-1.82,4.66-2.25,7.09
		c-0.47,2.64-2.35,3.82-5.12,3.4c-3.84-0.58-7.51,0.84-11.26,1.23c-3.98,0.41-8.08,1.97-8.51,7.24c-0.05,0.57-0.65,1.02-1.26,1.09
		c-0.57-0.43-0.32-0.89-0.16-1.36c4.37-12.61,8.26-25.4,14.65-37.21c1.03-1.91,1.58-3.87,0.24-6.14c-2.46,0.72-4.81,1.99-7.12,1.93
		c-3.72-0.09-4.89,1.94-6.44,4.76c-7.27,13.25-11.72,27.57-16.24,41.84c-1.65,5.22-3.42,10.84-0.47,17.28
		c1.57-3.18,5.02-0.25,6.6-2.87c1.98-3.29,5.13-5.8,5.7-10.08c0.25-1.9,0.84-4.27,2.61-6.11c-0.2,9.18,3.46,15.8,11.74,19.52
		c4.36,1.96,6.45,0.83,9.66-2.48c3.44-3.56,4.46-8.28,7.25-12.28c2.45,0.68,5.07,1.05,7.33,2.16c1.57,0.77,2.89,2.29,4.73,2.37
		c2.65,0.12,2.02-2.57,2.98-3.92c0.28-0.39,0.78-0.61,1.14-0.95c4.93-4.77,4.27-9.41-1.53-12.51c-2.22-1.19-4.92-1.37-6.78-3.07
		c1.47-3.6,2.86-7.03,4.31-10.57c2.8,0.24,5.24,1.22,7.77,1.79c2.02,0.45,4.57,1.32,5.97-0.84c1.5-2.32,3.54-4.24,4.63-6.9
		c1.93-4.71,1.11-6.79-3.7-7.92c-3.76-0.88-7.55-1.64-11.11-2.42c-0.53-2.01,0.13-3.74-0.64-5.29
		C163.57,456.92,163.57,456.92,160.21,463.74z M145.82,661.64c2.76,1.52,3.6,4.19,5.55,7.06c-2.52,2.22-5.22,4.04-7.18,6.47
		c-2.01,2.49-2.71,5.84-4.31,8.69c-3.55,6.33-0.53,15.04,6.11,17.85c4.73,2,9.79,1.27,14.63,0.49c1.55-0.25,3.36-0.32,5.01-1.59
		c6.65-5.12,11.95-10.78,11.22-19.97c-0.08-0.95-0.24-2.03,1.03-3c2.23,0.68,4.52-0.68,6.95-0.85c2.69-0.18,6.56-0.27,6.57-2.86
		c0.02-3.8,4.11-1.8,4.33-4.33c-2.33-7.34-5.01-8.92-12.33-7.15c-1.65,0.4-3.43,0.64-4.9,0.04c-3.57-1.44-7.1-0.66-10.64-0.37
		c-3.34-2.73-5.72-6.22-8.26-9.84c2.38-2.03,4.97-3.25,7.51-4.15c3.53-1.24,3.78-5.11,6.43-6.99c0.68-0.48,0.43-1.92,0.07-2.85
		c-1.73-4.49-4.64-5.37-9.46-3.73c-4.5,1.53-8.44,4.09-12.72,6.33c-0.7-1.44-1.21-2.64-1.86-3.76c-0.52-0.89-1.27-1.49-2.44-1.39
		c-2.41,0.22-6.23,4.01-5.92,6.58c0.15,1.27-0.35,1.18-0.96,1.58c-1.04,0.68-1.78,1.74-1.37,2.95c0.96,2.78-0.23,4.1-2.68,5.21
		c-1.59,0.72-2.79,2.21-4.28,3.25c-3.89,2.72-4.6,9.24-1.69,13.24c0.53,0.72,0.4,2.11,2.4,2.1
		C136.75,667.84,141.28,664.74,145.82,661.64z M111.47,648.66c-5.09,1.42-8.53,3.54-9.45,5.68c-2.27,5.25-2.15,10.36-0.46,15.94
		c3.24,10.68,7.51,20.84,13.3,30.32c4.58,7.49,9.36,14.93,18.21,18.08c3.18-2.58,6.38-4.82,8.58-8.21c1.33-2.06,1.98-3.21-0.52-5.19
		c-8.84-6.98-14.32-16.61-19.15-26.5C117.36,669.29,114.15,659.19,111.47,648.66z M100.33,552.8c-4.53,8.65-7.6,17.45-9.7,26.77
		c-2.16,9.54-1.72,19.06-1.68,28.61c0.02,3.71,1.36,7.36,3.04,10.72c0.53,1.07,1.1,2.89,3.21,2.07c2.31-0.9,5.66-0.34,6.37-3.4
		c0.25-1.08,0.13-1.89,1.23-2.29c2.82-1.05,2.56-3.35,1.65-5.26c-3.66-7.7-3.11-15.92-2.37-23.86c0.98-10.36,3.47-20.55,7.25-30.33
		c0.5-1.3,0.74-2.47,0.1-3.79C106.15,550.87,103.34,553.37,100.33,552.8z M270.4,531.73c-2.97-0.02-4.57,1.57-4.56,4.5
		c0,3.1,2.85,5.41,6.77,5.49c3.23,0.07,5.09-1.31,5.21-3.85C277.94,534.86,274.18,531.75,270.4,531.73z M319.81,465.19
		c0.05-3.84-2.47-6.32-6.22-6.46c-2.78-0.1-4.66,1.42-4.76,3.87c-0.12,2.87,4.22,7.42,7.06,6.9
		C318.09,469.11,320.5,468.07,319.81,465.19z M273.07,580.74c-1.02,0.11-2.08,0.71-2.2,2.33c-0.14,1.87,3.06,4.47,5.64,4.64
		c1.67,0.1,2.97-0.37,3.25-2.24C279.94,584.27,275.34,580.85,273.07,580.74z"/>
	<path class="st0" d="M306.72,699.8c-13.44-0.41-25.82-3.39-36.43-12.72c1.19-3.41,3.85-6.79,6.1-10.05
		c4.77-6.89,8.5-14.27,12.17-21.72c2.25-4.57,5.11-8.72,8.04-12.83c3.29-4.6,8.18-5.52,13.24-4.59c4.61,0.84,9.14,2.34,13.58,3.88
		c10.91,3.78,21.84,7.46,32.68,11.46c4.35,1.6,9.03,2.8,13.94,2.57c5.02-0.24,10,1.88,15.09,0.6c0.13-2.16-2.06-1.23-3.03-2.51
		c25.74-8.66,44.56-26.58,61.89-46.16c7.12,2.95,10.87,7.82,13.07,14.96c2.48,8.07,4.42,16.31,7.24,24.3
		c1.54,4.38,1.71,9.24,2.52,14.07c-3.4-1.88-3.33-6.3-7.21-8.39c1.79,4.81,4.03,8.69,6.21,12.63c4.34,7.83,8.21,16.02,9.71,24.78
		c1.22,7.11-0.98,14.16-4.23,20.78c-3.53,7.18-9.35,11.77-15.98,15.73c-1.92,1.15-4.07,1.25-6.05,1.81
		c-2.32,0.66-3.63,1.99-5.12,3.64c3.21,2.11,6.08-0.99,9.26-0.07c-0.9,2.99-3.22,5.22-3.72,8.04c-8.77-1.02-10.22,6.07-13.37,11.5
		c-2.07-0.19-4.27-1.68-6.44-0.29c-1.45,0.93-2.18,2.4-2.36,4.35c-4.03-0.11-7.9,0.81-11.49,2.29c-3.49,1.45-7.14,1.06-10.64,1.58
		c-7.44,1.12-15.12,1.3-22.52,2.51c-11.22,1.84-22.45,1.02-33.59,2.04c-6.01,0.55-12.22-0.28-18.12,1.7
		c-0.75,0.25-1.69-0.03-2.36,0.56c-0.67,0.6-1.91,0.46-1.98,1.89c-0.09,1.86,1.55,1.34,2.53,2.11c-1.66,0.3-2.57,1.37-3.22,3.29
		c-0.64-3.24,0.21-5.9-1.02-8.77c6.14,0.99,10.38-4.15,16.09-4.27c0.39-0.01,0.96-0.5,1.12-0.9c1.89-4.77,6.32-7.23,9.76-10.54
		c2.55-2.46,4.42-5.22,5.51-8.71c-11.02,7.34-20.47,16.99-32.85,22.97c-3.48-6.9-9.37-10.43-15.04-14.24
		c-3.73-2.51-5.67-6.63-8.58-9.86c4.25-2.25,3.79-6.71,4.58-10.27c2.03-9.06,4.13-18.21,4.89-27.43
		c0.83-10.09,0.85-20.37-0.01-30.45c-0.69-8.02-2.17-16.17-5.85-23.58c-0.73-1.48-0.99-3.94-3.43-3.67
		c-2.21,0.24-3.06,1.93-3.63,4.08c-0.56,2.12-1.89,4.04-2.57,6.24c2.73-1.78,3.58-4.93,6.12-8.08
		C307.9,663.92,308.2,681.8,306.72,699.8z"/>
	<path class="st0" d="M333.77,16.41c-14.19,3.54-22.7,13.59-31.87,22.77c-1.25,1.26-1.59,3.65-0.77,3.9
		c2.45,0.75-0.22,2.86,1.5,3.58c2.83-1.59,5.6-3.67,8.72-4.8c10.13-3.69,20.3-4.1,30.42,0.36c4.57,2.01,9.78,2.56,13.92,5.96
		c-2.33,2.5-4.82,4.75-6.79,7.39c-3.6,4.82-6.31,10.24-8.81,15.68c-2.8,6.08-7.56,10.36-12.18,14.8c-1.5,1.45-3.58,2.76-5.37-0.02
		c-1.26,2.55-1.26,2.58-0.1,5.78c-1.98-0.45-3.81-1.09-4.64-2.64c-2.82-5.29-7.93-5.95-12.9-6.29c-7.74-0.54-15.4,0.95-23.1,1.65
		c-10.35,0.94-20.06,4.74-30.18,5.91c-7.32,0.84-14.62,2.29-22.06,2.52c-0.79,0.54,0.87,2.22-1.09,2.16
		c-5.99-10.61-16.11-16.7-26.45-22.48c0.93-6.29,3.97-11.88,3.95-18.35c3.78,5.63,3.33,12.7,7.71,18.57
		c1.13-23.07,12.47-39.55,30.33-53.4c-1.56,6.88-8.89,8.8-10.26,15.76c3.42-2.12,5.76-4.3,8.81-5.62
		c11.02-4.75,22.95-7.45,32.91-14.66c3.29-2.38,5.98-5.05,7.84-8.92c4.08,7.22,4.89,14.26,1.14,21.62
		c-1.74,3.42-3.26,6.96-4.31,11.62c7.62-7.69,12.63-17.11,22.98-20.61C312.92,15.34,322.76,13.73,333.77,16.41z"/>
	<path class="st0" d="M156.33,337.76c2.51,0.53,3.13,2.99,5.77,3.73c-3.32-10.95-4.78-22.05-9.37-32.17c8.61-3.11,17.64-4,27.11-0.9
		c-7.2-7.28-15.64-13-21.7-22.36c6.18,1.42,11.18,3.39,16.44,5.28c-12.93-18.41-21.13-38.27-21.69-60.88
		c2.84,1.5,3.33,4.69,5.61,6.59c2.25,1.87,4.34,3.9,8.03,5.95c-3.5-6.66-8.99-11.03-10.56-18.18c6.19,3.83,12.72,3.79,19.37,3.56
		c-6.32-5-14.28-6.86-21.07-11.09c7.98,0.68,15.83-1.23,23.73-0.49c2.84,0.27,5.02,2.29,7.6,3.32c1.93,0.77,3.59,2.18,6.23,2.63
		c-0.5-4.96-2.61-8.92-5.17-12.64c-6.77-9.88-10.01-20.74-9.84-32.91c3.64-0.56,7.1-0.74,10.33-1.7c3.09-0.92,5.88-2.73,8.24-5.33
		c0.3,3.43,1.06,6.64-0.5,9.92c1.22,0.71,2.45,1.43,3.67,2.15c-1.19,4.96-1.26,9.76,1.25,14.3c0.93,1.67,1.06,3.41,1.04,5.25
		c-0.05,3.33,0.11,6.67-0.03,9.99c-0.52,12.11,2.45,23.79,4.36,35.59c1.69,10.45,3.57,20.89,5.73,31.25
		c1.59,7.59,0.8,15.2,0.81,22.79c0,3.69-0.98,7.45-1.97,11.05c-2.94,10.66-6.07,21.26-9.19,31.87c-0.69,2.34-1.83,4.54-3.32,6.46
		c-4.38,5.62-6.85,11.85-6.39,19.32c-2.6-0.16-4.62-1.08-6.66-2.42c-2.44-1.6-5.21-2.71-7.8-4.1c-3.93-2.11-7.47-4.61-9.84-8.6
		c-2.67-4.51-6.71-8.01-9.54-12.45C155.98,340.95,155.56,339.66,156.33,337.76z"/>
	<path class="st0" d="M66.25,878.69c-16.01,1.44-27.12-6.5-37.84-18.22c7.56,1.2,13.4-0.74,19.34-4.17
		c-4.12-1.83-7.59-4.21-11.47-6.07c-9.28-4.43-18.1-9.75-24.51-18.18c-3.47-4.57-4.53-10.2-5.64-15.48
		c-1.78-8.49-2.66-17.23-2.18-26.43c5.74,2.09,11.53,3.68,17.32,4.29c5.48,0.58,11.65,1.78,17.1-3.21
		c-10.59-3.06-21.17-2.48-30.61-7.27c7.49,0.24,14.74-1.04,21.8-3.28c10.23-3.24,20.18-6.73,28.4-14.37
		c9.47-8.79,19.71-16.76,30.62-24.26c-0.44,3.94-2.87,7.05-4.28,10.43c-3.53,8.45-6.59,17.13-8.06,26.02
		c-1.46,8.84-3.26,17.73-3.46,26.8c-0.09,3.92-1.03,7.8-0.98,11.79c0.13,10.06,1.29,20.05,1.68,30.08
		c0.21,5.58-1.14,11.33-2.76,16.79C69.2,869.03,68.75,874.48,66.25,878.69z"/>
	<path class="st0" d="M244.93,673.43c1.4,2.3,2.64,4.35,3.95,6.51c-3.05,2.23-6.8,2.42-9.91,4.15c-7.88,4.37-15,9.85-22.19,15.21
		c-9.14,6.81-17.07,15.04-25.74,22.36c-7.53,6.36-13.84,13.77-20.31,20.97c-8.46,9.4-17.34,18.73-22.24,31.09
		c-6.17-5.95-12.12-11.53-16.68-18.74c7.19-0.17,11.42-4.89,15.9-8.8c5.01-4.37,9.42-9.42,14.21-14.05
		c14.21-13.7,29.3-26.32,45.65-37.45c9.18-6.25,18.18-12.74,28.27-17.47C238.77,675.84,241.82,674.72,244.93,673.43z"/>
</g>
</svg>
