<?xml version="1.0" encoding="utf-8"?>
<!-- Generator: Adobe Illustrator 24.0.2, SVG Export Plug-In . SVG Version: 6.00 Build 0)  -->
<svg version="1.1" id="Layer_1" xmlns="http://www.w3.org/2000/svg" xmlns:xlink="http://www.w3.org/1999/xlink" x="0px" y="0px"
	 width="775.64" height="905.52" viewBox="0 0 775.64 905.52" style="enable-background:new 0 0 775.64 905.52;" xml:space="preserve">
<style type="text/css">
	.st0{fill:#1A1A1A;}
</style>
<g>
	<path d="M477.2,207.64c1.7,4.22,4.93,7.25,7.96,10.37c-1.29,2.1-2.78,3.32-5.82,1.1c1.85,4.24,4.93,6.56,6.22,10.05
		c0.93,2.51,1.43,4.61-1.4,5.9c-1.41,0.64-0.76,1.62-0.75,2.39c0.11,8.12-1.7,15.49-6.51,22.35c-5.01,7.14-10.51,13.71-16.83,19.68
		c-2.06,1.94-4.2,3.78-6.64,5.06c-5.14,2.7-7.06,7.8-9.7,12.36c-1.08,1.86,0.1,2.89,1.83,3.81c5.96,3.16,9.57,8.8,11.52,14.63
		c2.14,6.41,6.55,7.42,11.8,8.28c8.36,1.37,16.64,2.81,23.96,7.7c4,2.67,8.81,3.94,11.97,8.09c1.64,2.16,2.43,4.65,3.49,6.92
		c3.7,7.92,8.94,15.22,10.16,24.22c0.3,2.2,1.82,4.11,2.82,6.14c6.56,13.31,12.12,27.01,16.1,41.34c1.09,3.92,2.47,7.76,3.92,11.56
		c2.57,6.71,3.19,13.96,5.9,20.62c1.71,4.22,3.17,8.54,4.91,12.75c5,12.11,8.03,24.73,10.26,37.6c1.34,7.71,3.08,15.34,4.44,23.04
		c1.31,7.4,2.25,14.86,3.56,22.26c1.03,5.81,0.95,11.64,0.96,17.48c0,2.6,0.34,5.24-1.05,7.89c12.17-10.95,26.64-17.47,41-23.88
		c12.97-5.8,26.76-8.76,41.18-5.83c0.96,0.2,1.99,0.09,2.99,0.08c4.07-0.04,7.63,1.12,10.51,4.84c-7.8,2.67-15.5,5.31-23.78,8.15
		c1.31,1.21,2.27,1.02,3.1,0.99c25.7-0.76,49.8,5.02,72,18.06c12.63,7.41,22.78,17.67,32.5,28.57c6.54,7.33,11.36,15.68,16.13,23.98
		c6.74,11.73,11.77,24.31,8.92,38.46c-1.94-9.25-10.32-13.41-16.39-20.57c0.23,3.84,2.02,6.33,3.15,8.83
		c4.57,10.12,6.56,20.74,7.82,31.66c0.87,7.53,1.71,15.05,1.84,22.61c0.21,12.38-1.87,24.52-5.47,36.31
		c-2.86,9.34-4.7,18.94-7.56,28.26c-1.77,5.78-4.26,11.38-9.06,15.52c-0.91,0.78-1.69,1.63-3.05,1.16
		c-0.06-2.75-1.31-5.34-0.63-8.52c-2.65,1.89-1.95,4.98-4.21,6.9c-3.7-6.04-9.37-8.49-15.86-10.43
		c-12.55-3.75-25.21-5.23-38.71-4.65c5.75,2.67,11.96,2.83,16.77,6.51c-1.85,1.69-3.68,1.41-5.39,1.31
		c-11.45-0.66-22.92,0.42-34.05,2.35c-12.42,2.16-24.73,5.49-36.51,10.53c-15.04,6.44-29.04,14.74-43.37,22.5
		c-7.23,3.91-14.6,7.79-22.41,10.97c1.24,2.76,4.2,4.04,5.61,6.64c5.01,9.17,8.39,18.75,8,29.39c-0.04,1.18-0.26,2.21-0.88,3.27
		c-1.69,2.9-2.64,6.04-2.13,9.45c0.43,2.84-1.46,4.61-3.44,5.5c-2.08,0.93-4.81,1.31-6.57-1.93c-1.11,2.34-1.93,4.38-3.01,6.28
		c-3.87,6.8-8.64,7.65-14.15,2.61c-8.75,0.73-17.51,2.28-26.23-0.34c-1.95-0.58-2.84,0.45-3.79,2.16c-3.5,6.29-6.66,7.12-13.32,3.78
		c-2.99-1.5-6.01-2.27-9.45-2.21c-13.73,0.24-27.36-1.79-41.08-2.36c-8.81-0.37-17.79-0.75-26.57-1.83
		c-6.03-0.75-12.11-0.17-18.15-1.56c-5.8-1.33-9.83-4.57-12.53-9.27c-1.99-3.47-0.93-7.88-0.51-11.73c0.27-2.47,0.01-4.74-0.22-7.09
		c-0.52-5.33,0.2-10.67,1.29-15.75c0.97-4.56,0.56-9.12,1.54-13.68c1.72-7.98,0.96-16.36,3.13-24.35c0.23-0.86,0.32-1.97-0.39-2.88
		c-6.44-1.57-12.77,0.64-19.17,0.66c-1.88,0.01-2.29,1.48-2.39,3.16c-0.79,13.14-5.06,25.54-8.1,38.21
		c-3.15,13.11-7.52,25.94-8.99,39.46c-0.44,4.02-4.04,6.2-7.33,8.03c-5.21,2.89-11.18,3.27-16.82,4.73
		c-1.89,0.49-3.24-1.31-5.85-0.75c-1.76,2.26-5.31,3.74-8.44,5.82c-3.72,2.47-6.9,1.7-9.56-2.23c-1.7-2.51-5.37-2.85-6.19-6.14
		c-5.33,3.68-10.94,6.08-17.45,6.74c-5.53,0.56-10.94,2.25-16.6,1.88c-0.33-0.02-0.69,0.08-1-0.02c-4.82-1.48-8.29-0.09-12.15,3.48
		c-3.46,3.2-7.68,3.87-11.43-1.06c-4.57-5.99-11.41-5.6-17.53-7.33c-1.31-0.37-1.96,1.02-2.85,1.72
		c-6.27,4.93-10.62,4.25-14.07-2.87c-1.48-3.05-4.32-4.32-6.33-6.58c-3.75-4.2-5.06-8.13-3.71-13.81c1.12-4.7,1.14-9.69,2.37-14.5
		c2.68-10.48,6.77-19.94,14.92-27.59c5.37-5.04,11.77-7.06,18.47-8.21c3.16-0.55,6.43-1.51,9.75-1.21c1.35,0.12,2.21-0.65,2.95-1.54
		c1.51-1.85,3.62-2.77,5.53-3.78c2.24-10.27,4.59-20.4,8.21-30.22c2.65-7.2,3.55-14.86,5.26-22.32c0.8-3.48,1.73-6.97,3.02-10.29
		c2.72-7.01,3.18-14.6,5.77-21.65c0.35-0.96,1.75-2.73,0.2-3.52c-2.93-1.49-0.53-4.6-2.65-6.79c-1.82-1.87,0.25-5.72,1.04-8.43
		c3.51-12.1,5.29-24.58,7.19-36.92c1.41-9.18,5.13-17.5,6.88-26.44c0.74-3.8,1.66-7.57,2.54-11.5c-4.04,2.23-10.47-1.05-9.4-5.11
		c1.64-6.22-2.25-6.86-6.06-8.44c-1.11,12.87-10.81,22.76-28.58,21.1c-0.4,1.44,1.24,0.49,1.54,1.77c-1.53,1.76-4.22,1.82-6.22,1.94
		c-11.97,0.77-23.67-0.05-33.81-7.68c-7.69-5.78-13.78-12.12-15.96-22.37c-1.38-6.51-0.46-13.15-2.53-19.42
		c-2-6.07,0.02-12.52-1.91-18.6c-0.39-1.22-0.39-2.19-1.66-3.17c-2.19-1.68-3.79-3.5-2.67-7.22c1.13-3.8-0.88-8.04-0.83-12.22
		c0.17-14.7,3.01-28.98,6.64-43.1c3-11.68,8.53-22.51,12.28-33.93c4.45-13.55,11.63-25.84,16.72-39.07
		c1.69-4.4,4.07-8.63,7.24-12.15c1.45-1.61,1.08-3.39,1.71-5.03c1.93-5.07,5.68-8.83,9.03-12.77c9.54-11.22,19.55-22.04,29.07-33.28
		c6.31-7.45,12.89-14.61,19.63-21.66c5.32-5.57,9.51-12.12,14.73-17.86c3.86-4.24,8.23-6.83,13.55-8.26
		c11.49-3.09,22.89-6.63,34.93-7.03c3.26-0.11,4.82-3.39,3.88-8.15c-0.86-4.32-0.13-8.51,0.71-12.71c0.32-1.6,1.98-2.19,2.65-3.59
		c-9.73-6.07-21.58-8.44-29.84-17.06c-1.92,1.87-3.89,2.55-5.63,0.09c-5.06-7.17-10.71-14.03-12.87-22.84
		c-0.27-1.1-0.42-2.23-0.48-2.53c-8.63-4.81-8.58-12.6-9-20.41c-1.92,1.01-1.98,3.19-3.2,4.5c-3.17-5.01-2.83-10.6,1.36-19.65
		c-2.63-1.54-5.81-1.7-8.6-3.08c-7.75-3.86-12.54-10.87-18.94-16.05c-4.48-3.63-6.84-9.82-10.3-14.76
		c-5.85-8.35-10.06-17.5-13.24-27.11c-3.48-10.54-5.7-21.34-7.11-32.41c-1.38-10.8-0.95-21.58-0.62-32.31
		c0.25-8.24,1.63-16.53,4.54-24.46c1.78-4.87,2.48-10.07,3.93-15.08c4.09-14.06,11.11-26.39,20.19-37.68
		c3.4-4.22,6.87-8.39,10.47-12.44c2.98-3.35,6.62-5.81,11.54-6.85c25.29,32.67,40.96,70.99,60.05,107.54
		c0.8,0.09,1.39-0.6,1.85-1.24c6.62-9.2,15.58-14.67,26.65-16.85c0.63-0.12,1.25-0.79,1.8-0.71c1.63,0.23,3.53-1.04,4.86,1.14
		c1.3,2.11-0.71,3.18-1.41,4.2c-2.35,3.43-5.23,6.51-7.56,10.21c5.61-3.25,11.7-4.56,17.72-6.07c6.6-1.66,13.2-2.43,19.94-0.61
		c4.64,1.25,4.89,1.32,7.63,7.69c-3.94,1.62-8.27,2.25-11.93,4.92c5.62,0.16,11.06,0.68,16.37,2.35c1.32,0.42,2.37-0.17,3.57-1.64
		c12.2-14.98,23.84-30.41,35.41-45.86c5.67-7.57,12.49-14,18.43-21.26c6.01-7.35,11.9-14.8,17.66-22.34
		c1.39-1.82,3.06-3.38,4.4-5.28c1.84-2.6,5.8-2.08,8.6,1.06c2.6,2.91,4.84,6.18,6.98,9.46c4.04,6.2,6.29,13.11,8.11,20.26
		c2.15,8.45,2.44,17.15,4.03,25.64c1.53,8.12,1.44,16.32,0.65,24.29c-1.3,13.11-3.71,26.16-8.81,38.47
		c-4.97,12.01-8.69,24.54-14.93,36.01c-4.63,8.5-10.36,16.26-16.77,23.51c-1.63,1.84-3.48,3.43-4.79,5.64
		C488.02,203.48,485.69,204.51,477.2,207.64z"/>
	<path d="M508.3,228.28c7.75-2.2,15.62-1.82,23.67-0.81c9.84,1.23,19.09,3.97,27.86,8.39c7.43,3.74,13.75,8.86,17.74,16.4
		c0.22,0.42,0.44,0.85,0.62,1.29c0.05,0.11-0.08,0.3-0.13,0.47c-2.14,0.04-1.7-2.3-2.91-3.21c-1.12-0.85-1.56-2.41-2.59-3.53
		c-5.36-5.78-12.06-9.59-19.17-12.52c-8.59-3.54-17.48-5.72-26.93-6.47C520.36,227.82,514.45,228.1,508.3,228.28z"/>
	<path d="M529.99,273.13c-9.03-13.44-20.64-22.45-37.85-21.92C510.36,248.74,521.62,258.43,529.99,273.13z"/>
	<path d="M514.22,211.33c10.69-3.99,21.19-3.78,31.34,1.92C535.27,209.96,524.87,208.84,514.22,211.33z"/>
	<path class="st0" d="M646.78,546.64c-13.23,3.44-24.13,10.75-35.01,18.35c9.39-0.65,18.5-2.72,27.63-3.4
		c0.88,0.83-0.51,1.61,0.23,2.31c0.28,0.39,0.55,0.39,0.78-0.04c0.94-1.69,2.21-2.26,4.28-2.39c6.01-0.38,11.97,0.35,17.77,1.28
		c10.1,1.63,20.33,3.05,29.96,6.8c14.74,5.74,28.75,12.74,39.8,24.48c2.8,2.97,5.8,5.75,8.74,8.57
		c10.96,10.53,18.23,23.51,25.24,36.69c1.64,3.08,3.81,6.02,3.78,10.47c-5.77-6.25-11.96-11.29-18.67-15.64
		c-4.56-2.95-8.3-6.91-12.8-9.91c-0.97-0.65-1.7-2.56-3.24-1.03c-1.54,1.54,0.08,2.8,0.92,3.67c4.79,5,8.52,10.85,12.75,16.27
		c5.32,6.82,8.41,14.97,10.35,23.45c1.72,7.52,2.62,15.11,3.22,22.84c0.73,9.37,2.1,18.69,1.75,28.11
		c-0.3,8.02-0.89,16.03-2.84,23.88c-0.35,1.4-0.24,2.92-0.61,4.41c-0.47-4.85-2.35-9.23-3.94-13.82
		c0.67,15.97-1.43,31.31-7.97,46.46c-2.62-10.12-3.7-20.16-11.07-27.8c1.79,9.2,2.47,18.42,3.53,28.41
		c-3.4-1.62-4.87-4.22-7.48-5.36c-8.4-3.67-16.9-6.54-26.19-7.31c-6.19-0.51-12.3-2.38-18.59-1.82c-13.83,1.23-27.93,0.8-41.16,6
		c-3.52,1.38-7.7,1.9-9.64,6.09c8.42-2.26,16.76-0.62,25.07-0.85c-16.15,3.49-31.76,8.16-46.68,15.47
		c-13.66,6.7-26.31,14.99-39.39,22.61c-6.04,3.52-11.84,7.47-18,10.72c-2.56-1.87-5.18-3.08-7.9-4.24c-3.38-1.43-6.87-2.51-10.1-4.6
		c-5.39-3.48-11.65-5.03-18.26-4.25c-1.3,0.15-2.64,0.02-4.4,0.02c0.06-2.97-1.43-5.33-2.42-7.84c-0.89-2.27-1.31-4.6-0.79-6.77
		c1.56-6.58,0.58-13.21,0.92-19.81c0.17-3.27-0.22-6.51,0.81-9.83c0.97-3.14-1.31-6.34-0.92-9.76c0.26-2.23,0.47-4.07,2.26-5.71
		c3.57-3.27,5.23-7.9,7.59-11.97c3.82-6.6,6.55-13.78,7.78-21.38c0.99-6.14,2.3-12.24,2.5-18.49c0.19-5.74,2.34-11.2,2.43-17.01
		c0.02-1.52,0.54-3.22,0.54-4.85c0.03-9.16,0.73-18.4-0.24-27.46c-0.63-5.92,1.09-9.38,4.92-13.62
		c7.22-7.97,11.29-17.91,13.19-28.51c0.53-2.93,1.3-4.23,4.26-3.97c2.31,0.21,3.23-0.7,4.02-3.17c2.29-7.08,2.51-14.46,3.82-21.66
		c0.55-3.02,1.7-5,4.71-6.61c9.91-5.33,19.12-11.87,29.39-16.64c9.36-4.35,18.86-8.18,29.05-9.72
		C637.12,546.06,642,546.64,646.78,546.64z"/>
	<path class="st0" d="M329.59,570.71c6.86-2.05,13.67-4.13,20.51-6.11c5.25-1.52,10.75-0.87,16.15-1.75
		c11.32-1.84,22.87-2.42,34.32-3.48c25.53-2.36,51.06-1.53,76.6-1.77c6.52-0.06,13.03-0.94,19.58-0.05
		c11.27,1.54,22.86,1.45,33.45,6.81c-1.49,3.63-0.2,7.29-0.11,10.98c0.15,5.97,1.68,11.8,1.25,17.79
		c-0.78,10.95,0.34,21.94,1.29,32.76c1.34,15.4,1.53,30.76,1.7,46.16c0.1,8.92-2.5,17.56-2.79,26.38
		c-0.24,7.3-2.06,14.24-3.09,21.35c-1.59,10.94-7.82,18.41-16.46,24.5c-10.96,7.72-22.3,14.79-34.41,20.58
		c-12.56,6-25.78,10.04-39.42,12.63c-8.7,1.65-17.47,2.66-26.34,3.33c-7.3,0.56-14.57,0.13-21.81,0.79
		c-7.82,0.72-15.65,1.63-23.36,3.07c-8.03,1.49-16.13,2.5-24.16,3.93c-0.78,0.14-1.51,0.56-2.4,0.9c-1.51-2.5-1.52-5.2-1.83-7.95
		c-1.28-11.11-1.11-22.33-2.8-33.42c-0.67-4.37-0.37-8.84-0.98-13.3c-1.69-12.35-0.87-24.84-1.22-37.27
		c-0.22-7.58-0.33-15.21-0.42-22.75c-0.09-7.92,0.1-15.99,0.55-23.97c0.19-3.38-0.32-6.66-1.35-9.71
		c-2.52-7.45-2.15-14.88-0.82-22.42c0.23-1.3,0.11-2.66,0.11-3.99c0.01-10.16-0.05-20.33,0.03-30.49
		C331.41,579.8,331.35,575.41,329.59,570.71z"/>
	<path class="st0" d="M417.88,320.11c1.94,2.81,2.5,6.16,2.12,8.84c-0.73,5.14-0.35,10.02,0.09,15.12
		c0.5,5.68,0.97,11.52-0.53,17.31c-0.93,3.61-0.66,7.51-1.05,11.27c-1.28,12.45-3,24.9-2.28,37.52c0.26,4.57-0.69,9.2-1.13,13.77
		c-0.4,4.12-3.52,7.66-5.89,10.98c-4.75,6.66-10.82,12.39-15.59,19.04c-7.82,10.92-19.64,16.71-29.93,24.43
		c-8,6-15.9,12.08-23.39,18.71c-0.84,0.75-1.4,1.9-3.14,2.03c1.19-5.16,2.2-10.24,3.53-15.23c3.36-12.55,6.87-25.06,10.31-37.6
		c0.83-3.01-0.35-6.3,1.26-9.21c0.12-0.22,0.03-0.74-0.16-0.95c-5.55-6.26-9.4-14.57-18.65-16.47c-3.4-0.7-3.49-2.4-2.69-4.95
		c2.22-7.07,2.05-14.53,3.53-21.72c0.19-0.93-0.07-1.95-0.12-2.92c-2.05,0.24-1.63,1.88-2.04,3.05c-2.22,6.31-3.98,12.73-4.81,19.38
		c-0.45,3.57-1.94,4.89-5.21,3.93c-7.65-2.25-14.98,0.01-22.3,1.49c-4.28,0.87-5.96,5.07-7.35,8.67
		c-4.54,11.83-8.77,23.78-13.06,35.71c-1.7,4.73-2.43,9.71-4.54,14.38c-7.05,15.59-12.57,31.76-17.59,48.1
		c-1.57,5.11-2.96,10.29-4.51,15.72c-9.88-3.67-19.4-0.41-29.45,1.64c0.81-5.84,1.3-11.68,2.5-17.38
		c1.57-7.47,2.11-15.17,5.04-22.35c0.83-2.03-0.25-2.78-2.52-2.38c-7.92,1.39-15.45,3.86-22.64,7.45c-0.86,0.43-1.78,0.72-3.11,1.25
		c0.8-6,2.98-11.23,4.95-16.39c6.79-17.82,14.43-35.3,22.86-52.39c3.52-7.14,6.94-14.4,11.7-20.93c2.44-3.36,6.09-5.44,8.37-8.85
		c4.9-7.32,10.18-14.36,15.89-21.05c7.3-8.54,14.63-17.06,22.71-24.92c5.35-5.2,11.32-9.71,16.35-15.23
		c0.97-1.07,2.1-1.41,3.53-1.42c2.61-0.01,4.61-1.26,6.09-3.38c-1.18-1.47-2.02,1.07-3.06,0.14c-0.41-0.24-0.28-0.4-0.02-0.78
		c1.51-2.22,3.76-2.77,6.22-3.44c13.29-3.61,26.52-7.45,39.27-11.07c17.68,14.56,37.32,19.35,59.49,14.96
		C420.47,336.25,416.87,328.08,417.88,320.11z"/>
	<path class="st0" d="M493.48,365.95c-0.01,3.33,1.4,6.29,2.77,9.14c4.88,10.15,8.52,20.76,11.58,31.56
		c1.2,4.23,1.95,8.58,2.92,12.87c0.1,0.46,0.55,0.99,0.42,1.34c-3.66,9.72,0.25,19.24,0.63,28.86c0.29,7.45,3.23,14.37,3.52,21.75
		c0.04,0.97,0.17,2-0.68,3.09c-5.88-1.67-12-0.87-18.07-0.93c-10.99-0.11-22,0.26-32.98-0.1c-14.61-0.48-29.06,1.83-43.58,1.98
		c-6.19,0.06-12.14,0.7-18.22,2.08c5.02-6,9.82-11.82,14.7-17.58c6.16-7.27,11.65-14.95,15.89-23.5c1.5-3.01,1.74-6.43,1.8-9.54
		c0.16-8.43,1.36-16.78,2.4-25.06c1.97-15.54,1.55-31.07,1.83-46.61c0.06-3.36-1.56-6.42-1.11-9.8c0.2-1.52,0.17-2.86,1.72-3.8
		c7.16-4.37,14.78-8.14,20.15-15.01c5.83,4.62,13.04,5.33,19.93,6.93c7.4,1.71,14.83,3.33,22.46,5.03
		c-1.95,7.26,3.82,11.03,5.64,16.33c-0.5,1.06-1.89,0.24-2.66,1.51c6.7,5.48,9.18,13.59,12.31,21.26
		c4.25,10.39,9.04,20.55,12.64,31.22c3.43,10.16,8.27,19.97,10.47,30.36c2.85,13.47,9.02,25.77,11.96,39.17
		c2.5,11.42,5.98,22.76,7.88,34.19c1.63,9.77,4.8,19.47,4.47,29.55c-0.06,1.72,1.73,2.97,0.7,4.96c-3.26-1.1-6.23-3.21-9.88-3.61
		c-1.53,2.54-1.87,5.22-1.76,8.04c0.37,9.92-0.25,19.77-2.39,29.48c-5.52-1.06-10.9-2.78-16.15-4.88c-1.1-3.9-2.19-7.79-3.38-11.98
		c5.09-3.82,4.19-8.96,3.19-14.56c-0.68-3.86-2.11-7.81-0.43-12.1c1.25-3.19-0.23-6.83-0.85-10.22
		c-1.95-10.73-3.61-21.54-6.13-32.15c-1.33-5.61-3.13-11.33-7.4-15.8c-1.19-1.24-1.45-3.17-1.5-5.09
		c-0.25-12.06-2.17-23.95-3.72-35.88c-0.52-4.04-1.23-8.12-1.31-12.27c-0.21-11.33-2.37-22.27-5.51-33.24
		c-2.76-9.64-7.56-17.96-12.46-26.41C495.03,366.05,494.77,365.66,493.48,365.95z"/>
	<path class="st0" d="M381.38,93.43c-7.33,6.96-10.18,16.65-16,24.55c7.87-6.08,16.35-10.61,25.79-13.25
		c9.46-2.65,19.01-4.3,28.91-1.66c-6.82,1.81-13.58,3.42-20.11,6.11c-6.77,2.78-11.85,7.55-17.4,11.97
		c9.47-2.93,18.68-6.99,28.75-6.44c9.94,0.54,20.03,1.27,27.21,11.1c-6.52-1.99-11.94-5.97-19.02-3.6c3.09,2.35,6.85,2.73,9.98,4.36
		c7.66,3.99,15.65,7.63,22.2,13.2c8.2,6.96,15.32,15.15,20.05,24.97c1.74,3.61,3.1,7.73,3.28,11.68c0.34,7.26,2.96,14.23,2.29,21.56
		c-0.06,0.61-0.11,1.22-0.42,1.91c-2.05-7.12-5.28-13.64-8.97-19.97c1.47,8.24,5.79,15.69,6.65,24.41c-2.27-0.76-2.97-1.9-3.32-3.75
		c-1.11-5.78-4.15-10.52-8.19-14.79c-5.53-5.84-10.64-12.01-17.47-16.57c-4.98-3.32-7.1-9.39-11.26-13.62
		c-1.28-1.31-0.81-3.37-1.79-6.06c-3.46,9.11-6.63,17.1-14.28,23.34c1.45-5.17,2.92-9.5,3.79-13.95c0.34-1.71,1.95-4.74-2.22-5.36
		c-0.94,4.33-1.96,8.53-3.99,12.39c-1.05-0.61-0.01-1.99-1.41-2.94c-1.26,5.25-2.47,10.34-6.03,14.51
		c-3.26,3.83-4.88,9.06-9.72,11.81c-1.24-5.27,0.65-10.07,0.72-14.91c-1.52-0.1-0.64,1.2-1.61,1.27c-1.32-0.63,0.35-2.58-1.07-3.37
		c-2.48,5.35-1.39,11.53-3.65,17.08c-3.81-1.71-5.28-5.5-8.67-7.43c-9.81-5.58-16.64-14.26-22.65-23.59
		c-1.59-2.46-2.68-5.38-2.55-8.33c0.13-3.05-0.44-5.69-2.58-8.01c-1.89,1.6-1.57,4.25-2.21,6.47c-0.74,2.56-1.79,4.88-3.43,6.95
		c-3.55,4.49-6.62,9.53-10.82,13.31c-5.64,5.07-9.4,11.76-15.61,16.93c0.57-4.91,3.17-8.77,3.8-13.13
		c-5.72,9.71-12.13,18.96-16.14,29.71c-3.31-7.11-5.55-14.36-7.15-21.98c-1.87,5.71-1.87,5.71,3.2,22
		c-1.32,1.27-2.74,2.65-4.54,4.38c-3.02-5.04-5.34-9.96-6.45-15.62c-2.83-14.43,4.54-25.39,11.67-36.57
		c4.33-6.8,10.44-11.62,17.14-15.65c2-1.2,1.42-4.82,5.02-4.18c-4.09-2.98-9.26-2.64-13.83-6.01c5.3,0.29,9.64-0.63,14.05,0.82
		c4.21,1.39,7.95-1.38,11.86-2.35c4.19-1.04,8.73-1.77,11.32-6.47c-0.68-2.33,0.04-5.44-0.96-8.51c-0.63-1.95,1.34-4.02,3.11-5.27
		C364.31,101.48,371.99,96.11,381.38,93.43z"/>
	<path class="st0" d="M214.36,514.24c-2.33,11.5-4.47,21.89-5.2,32.77c-5.38,2.14-10.96,4.26-16.37,7.55
		c0.4-4.13,0.28-8.16,0.73-12.06c0.61-5.32,2.13-10.53,3.25-15.78c0.5-2.37,1.93-3.85,4-5.12
		C204.98,519.02,209.05,516.22,214.36,514.24z"/>
</g>
</svg>
