<?xml version="1.0" encoding="utf-8"?>
<!-- Generator: Adobe Illustrator 24.0.2, SVG Export Plug-In . SVG Version: 6.00 Build 0)  -->
<svg version="1.1" id="Layer_1" xmlns="http://www.w3.org/2000/svg" xmlns:xlink="http://www.w3.org/1999/xlink" x="0px" y="0px"
	 width="821.35" height="934.99" viewBox="0 0 821.35 934.99" style="enable-background:new 0 0 821.35 934.99;" xml:space="preserve">
<style type="text/css">
	.st0{fill:#1A1A1A;}
</style>
<g>
	<path d="M261.39,909.25c-4.23-1.42-7.98,0.18-11.57,0.86c-7.15,1.37-14.24,0.25-21.33,0.72c-4.31-3.47-9.39-0.53-14.09-1.6
		c-3.16-0.72-4.62-1.99-5.67-4.62c-1.51-3.78-3.11-7.52-4.7-11.36c2.61-4.72,4.53-9.91,8.56-14.11c2.19-2.29,2.83-6.11,4.06-9.28
		c3-7.72,6.84-14.74,14.34-19.12c1.68-0.98,3.09-2.55,4.36-4.07c4.95-5.96,11.37-9.44,18.7-11.53c2.91-0.83,5.88,0.14,8.86-0.79
		c5.31-1.66,5.37-1.45,9.36-5.72c-2.16-11.94-4.83-23.89-6.33-35.99c-1.03-8.29-2.53-16.51-3.4-24.83
		c-0.77-7.41-3.4-14.63-4.24-22.05c-0.72-6.35-3.67-11.77-5.38-17.67c-1.9-6.55-2.68-13.4-4.24-20.06
		c-3.26-13.93-5.14-28.12-8.03-42.11c-2.16-10.47-3.1-21.03-4.22-31.64c-1.26-11.89-1.1-23.76-1.88-35.62
		c-0.83-12.53-1.64-25.04-2.06-37.6c-0.21-6.27,0.89-12.29,1.58-18.35c0.39-3.48,0.13-6.86,0.7-10.21
		c-10.57-3.85-20.31-8.72-30.16-13.3c-6.81-3.16-13.87-5.73-20.62-9.06c-4.97-2.45-10.09-5.02-12.79-9.57
		c-4.33-7.3-9.5-14.11-13.3-21.67c-2.77-5.52-6.77-9.99-10.5-14.65c-7.28-9.08-13.18-19.06-19.73-28.61
		c-7.38-10.76-14.52-21.71-22.15-32.29c-4.5-6.24-8.28-12.92-12.73-19.18c-8.03-11.31-15.54-22.96-22.79-34.78
		c-1.23-2-3.32-3.2-4.16-5.21c-0.1-1.64,1.48-0.14,1.92-1.41c1.1-3.2,4.85-5.01,8.01-4.32c1.6,0.35,3.26,0.44,4.83,0.88
		c5.57,1.57,7.82,0.84,11.31-3.96c2.32-3.19,6.09-4.78,8.3-8.27c3.14-4.96,5.4-9.97,5.54-15.93c0.2-8.37,4.12-12.58,12.22-12.35
		c8.39,0.24,16.08,2.79,23.51,6.13c11.9,5.36,23.28,11.7,34.51,18.41c7.72,4.61,15.66,8.9,22.56,14.63
		c6.39,5.32,13.65,9.92,17.78,18.06c6.01-3.93,11.94-7.81,19-9.5c3.52-0.84,6.95-1.9,10.62-1.64c8.45,0.59,16.65-1.67,25.61-2.23
		c-4.6-2.92-9.44-3.9-13.91-5.59c-12.01-4.55-24.09-8.87-36.04-13.61c-12.67-5.04-25.72-9.1-38.48-13.91
		c-4.1-1.54-8.18-3.31-12.12-5.17c-4.61-2.17-9.55-3.28-14.09-5.44c-7.9-3.74-11.56-7.4-12.14-16.05
		c-0.37-5.58-0.54-11.25,1.26-16.71c0.86-2.61-1.18-4.96-0.47-7.04c-4.87-0.72-7.29,3.44-10.94,5.27
		c-3.43,1.73-6.93,3.05-11.04,2.65c-2.9-0.28-4.94,2.57-8.04,3.1c-7.53,1.3-11.52-0.34-14.78-7.62c1.35-1.61,2.67-3.29,4.64-4.12
		c-1.17-2.39-1.16-4.98-2.85-7.32c-1.45,0.52-2.3,1.74-3.26,2.72c-4.61,4.71-10.36,6.64-16.76,7.07c-1.8,0.12-3.53,0.08-5.37,0.66
		c-3.8,1.21-7.52-0.02-10.86-1.87c-4.29-2.38-4.42-4.1-1.07-8.06c-3.28-8.69-3.87-17.47-0.61-26.28
		c3.47-9.38,10.99-14.66,19.62-18.96c-0.76-1.34-0.13-3.46-2.47-4.5c-5.33,3.8-11.48,6.19-18.07,7.58c-2.83,0.6-5.6,0.9-8.14-0.64
		c-1.55-0.94-3.14-0.99-4.78-0.91c-4.15,0.21-7.78-1.47-11.02-3.61c-5.94-3.94-5.33-9.87,1.09-12.99c0.71-0.34,1.49-0.53,1.89-0.67
		c-0.07-10.9,3.4-19.68,12.5-25.99c9.26-6.42,25.2-9.49,33.94-5c4.61-4.04,9.09-8.38,14.35-11.8c2.59-1.69,1.03-3.55-0.55-5.21
		c-3.46-3.64-5.68-7.9-6.27-12.95c-0.76-6.5,5.22-16.5,13.56-19.15c-0.37-1.37-0.74-2.73-1.19-4.38c3.93-5.17,9.81-3.49,14.94-2.93
		c7.59,0.82,12.2,6.03,14.62,12.95c3.31,9.49,8.89,17.13,16.41,23.83c5.33,4.75,11.43,8.23,17.2,12.7c2.54-2.12,4.65-4.87,8.07-6.07
		c4.41-1.55,7.22-1.01,10.26,2.59c5.45,6.47,10.01,13.7,16.13,19.59c4.36,4.19,9.24,7.85,13.47,12.16
		c7.57,7.7,16.16,14.32,23.42,22.32c1.18,1.3,2.3,1.47,4.28,1.09c13.66-2.56,27.39-3.48,41.3-1.66c4.87,0.63,9.72,1.25,14.55,2.09
		c1.37,0.24,2.29,0.88,3.28,1.78c-20.04-4.42-39.98-3.22-60.02,0.18c3.19,2.74,5.66,5.77,8.54,8.39c2.48,2.25,5.94,1.46,8.8,2.65
		c0.86,0.36,1.85,0.32,2.78,0.84c3.62,2.04,7.25,4.22,11.81,3.4c-1.41,1.3-3,0.49-4.79,1.14c1.47,3.35,3.2,6.48,5.61,9.21
		c5.34,6.06,11.11,11.79,15.99,18.2c6.61,8.68,14.36,16.41,20.6,25.39c5.58,8.03,12.83,14.41,20.98,19.68
		c2.93,1.9,5.08,4.59,7.97,6.56c2.43,1.66,4.76,3.39,7.58,4.64c1.13-1.52,2.25-3.02,3.37-4.52c2.33,2.74,2.12,6.65,4.72,9.22
		c2.08-0.88,3.05-3,5.26-4.36c0.3,6.77,6.43,4.58,9.95,6.53c1.15,0.64,2.84,0.61,4.27,0.88c3.32,0.62,6.6,0.97,9-2.8
		c1.62-2.55,4.08-4.7,7.28-6.23c-3.07-1.82-5.84-2.93-9-2.71c-3.67,0.26-6.51-1.34-9.25-4.17c-0.5,1.59,0.84,2.62,0.64,4.57
		c-7.14-5.25-13.76-10.2-15.53-19.35c-0.42-2.19-2.13-4-1.95-6.52c0.15-2.03,0.03-4.48,1.83-5.31c2.8-1.29-1.08-3.42,1.24-5.01
		c1.81-1.24,3.37,0.67,4.91-0.77c3.04-2.84,3.42-4.57,1.55-8.54c-2.24-4.74-5.09-9.12-7.92-13.7c-2.76-0.53-5.85,0.37-8.35-1.29
		c-0.52,0.34-0.91,0.45-1.04,0.7c-3.61,6.92-8.55,6.71-14.11-0.2c-8.36-10.4-13.6-22.25-15.73-35.25
		c-0.94-5.73-1.17-11.84,0.52-17.73c1.16-4.06,3.36-5.78,7.77-6.64c7.54-1.47,15.02-1.87,22.62-1.82c0.59,0,1.38,0.14,1.66-1.2
		c-3.39-1.16-6.72-2.94-9.44-5.16c-10.15-8.28-20.61-16.1-28.69-26.84c-10.12-13.45-18.29-27.91-25.3-43.04
		c-6.21-13.4-11.45-27.3-14.25-41.86c-1.73-8.99-2.97-18.11-3.42-27.34c-0.18-3.67-0.23-6.93,1.21-10.29
		c0.64-1.48,1.59-2.43,3.68-3.58c39.21,23.8,77.89,48.97,113.78,78.94c3.71-1.28,7.89-1.78,12.18-1.61
		c4.24,0.17,8.52-0.35,13.35,1.61c-3.88-4.85-8.91-6.28-13.01-9.09c4.67-6.01,15.69-4.36,31.02,4.81c-2.78-9.46-1.88-18.59-2-27.68
		c-0.08-5.94,1.16-11.73,1.93-17.59c1.48-11.25,5.31-21.82,9.12-32.37c1.93-5.35,4.4-10.54,7-15.6c2.56-4.97,5.12-5.25,9.2-1.26
		c9.91,9.69,18.83,20.19,26.77,31.58c4.57,6.56,9.21,13.1,14.08,19.47c4.34,5.67,7.76,12.06,11.41,18.23
		c5.56,9.41,10,19.41,15.03,29.05c4.09,7.83,6.71,15.96,8.75,24.13c1.99,7.98,2.94,16.59,1.03,25.02c-0.14,0.63-0.35,1.29-0.3,1.92
		c1,13.02-1.03,25.6-5.58,37.79c-1.34,3.59,0.84,6.12,2.65,8.45c3.89,5.01,5.31,10.71,5.91,16.82c0.98,9.85,2.53,19.65,1.99,29.6
		c-0.07,1.33-0.01,2.66-0.01,3.98c-3.97,0.36-3.06-3.43-4.63-5.26c-2.35,9.15-6.07,17.72-12.36,24.6
		c-4.37,4.78-10.07,8.35-15.2,12.42c-1.85,1.46-3.74,1.68-5.3-0.51c-3.78,3.37-6.59,7.51-11.65,8.74c-3.48-1.52-3.42-4.2-2.14-7.67
		c-5.04,2.43-11.01,2.6-14.89,7.7c2.88,3.47,4.56,7.37,5.3,11.82c0.46,2.79,3.62,3.66,5.64,5.1c2.26,1.61,3.6,3.68,5.18,5.77
		c5.83,7.71,5.76,16.6,6.26,25.69c0.48,8.78,0.8,17.53,0.77,26.31c-0.01,3.28,0.32,6.55-0.85,9.83c-0.96,2.71,0.69,5.49,0.84,8.27
		c0.32,5.95-0.48,11.76-1.85,17.59c-1.98,8.4-3.06,17.02-5.25,25.35c-1.94,7.4-4.75,14.6-9.06,21.03c-0.74,1.1-0.79,2.13-0.79,3.26
		c-0.02,2.87-1.04,5.36-2.74,7.68c1.88,3.41,4.05,6.73,5.61,10.31c2.05,4.73,1.32,5.82-2.99,9.16c-6.48,5.01-13.52,9.16-20.25,13.77
		c-4.7,3.22-7.44,7.63-6.71,13.85c1.05,8.94,2.5,17.8,3.9,26.68c0.65,4.11,1.05,8.6-1.75,12.47c-0.84,1.17-0.81,2.38-0.27,4.04
		c1.88,5.81,4.46,11.19,7.77,16.29c2.75,4.24,5.96,8.34,7.8,12.97c2.03,5.14,6.25,6.01,10.4,6.74c13.49,2.39,27.03,2.31,40.13-2.03
		c12.91-4.28,25.02-10.01,35.35-19.42c13.59-12.38,22.62-27,26.94-44.94c2.05-8.52,3.06-17,3.92-25.65
		c1.25-12.49,3.03-25,6.64-37.05c4.15-13.88,9.6-27.3,17.2-39.75c0.95-1.56,2.15-2.69,3.9-3.95c-3.34,12.1-5.03,23.99-5.66,36.14
		c3.26-5.03,6.7-9.92,9.6-15.03c4.65-8.19,11.11-14.61,18.14-20.48c6.9-5.76,14.37-10.8,22.61-14.56
		c10.03-4.58,20.4-7.43,31.51-8.35c7.13-0.59,14.22-0.9,21.31-0.71c11,0.3,21.7,2.57,32.12,6.12c0.76,0.26,1.09,0.99,1.8,3.74
		c-2.18,0-4.29,0-7.54,0c4.63,2.06,8.16,3.79,11.8,5.21c5.97,2.34,11.38,5.53,16.59,9.31c5.37,3.89,11.58,6.34,16.87,10.66
		c5.36,4.38,9.19,9.83,13.38,14.99c7.57,9.33,12.69,20.09,15.85,31.68c0.84,3.06,2.87,6.31,0.64,10.31
		c-2.14-3.02-2.92-6.61-7.21-7.82c6.5,9.55,8.63,19.86,8.25,31.05c-1.14,0.68-2.34,1.39-3.79,2.24c1.97,1.55,4.24,2.69,5.55,4.97
		c-14.08,7.23-26.73,16.42-38.13,27.34c-1.78,1.7-3.12,3.41-3.23,6.13c-0.16,4.05-3.02,7.25-4.87,10.51c-5,8.8-6.64,18.65-10.1,27.9
		c-0.62,1.65-1.26,3.62,1.23,5.66c1.45,1.18,1.47,5.43,1.13,7.95c-2.08,15.36-5.73,30.43-13.02,44.19
		c-3.4,6.42-7.06,12.99-12.57,18.06c-1.69,1.55-2.3,3.66-3.66,5.44c2.59-0.77,4.41-2.8,7.38-3.23c0.9,0.48,1.17,1.17,0.51,2.86
		c-3.24,8.26-7.1,16.19-12.55,23.19c-4.1,5.27-8.59,10.22-13.54,14.81c-9.57,8.87-20.18,16.15-31.59,22.35
		c-10.6,5.76-21.79,10.1-33.56,12.58c-5.56,1.17-11.17,2.54-16.93,2.72c-1.05,0.03-2.31-0.43-3.2,1.14
		c1.36,1.35,3.16,0.43,4.56,0.92c1.76,0.61,4.29,0.78,4.33,3.3c0.05,2.86-2.74,3.55-4.57,3.46c-5.35-0.27-10.5,1.26-15.81,1.19
		c-9.16-0.12-18.35,0.35-27.49-0.15c-8.13-0.44-16.31-0.96-24.75-2.72c0.76,3.35,1.49,6.56,2.22,9.76c0.04,0.16,0.22,0.31,0.21,0.45
		c-0.83,7.85,4.04,13.23,8.39,18.68c4,5.02,7.4,10.47,10.27,16.07c4.32,8.41,9.77,16.26,12.89,25.3c0.83,2.42,2.37,4.61,3.59,6.89
		c3.54,6.64,5.86,13.79,9.13,20.54c2.06,4.24,5.08,7.96,6.37,12.65c0.64,2.33,3.39,3.11,5.22,4.35
		c6.93,4.67,10.49,11.49,12.87,19.06c2.65,8.46,1.31,16.69-1.7,24.9c-1.67,4.54-5.08,6.68-9.1,8.03c-2.23,0.75-3.68,1.98-4.75,3.8
		c-1.28,2.19-3.33,3.61-5.26,4.97c-5.23,3.69-10.52,1.61-12.74-4.74c-0.77-0.81-1.47,0.21-2.23,0.09
		c-5.71-0.89-10.26,0.87-13.8,5.59c-1.75,2.33-4.81,3.05-7.46,3.25c-3.13,0.24-6.07,1.67-9.28,1.2c-1.47-0.22-2.57,0.45-3.07,1.92
		c-0.52,1.5-1.93,2.25-2.86,3.4c-4.89,6.07-12.65,4.57-17.16-2.45c-0.87-1.36-1.53-2.85-2.24-4.18
		c-10.43,0.76-18.72-3.45-25.97-10.26c-1.35-0.16-1.75,1.25-2.84,1.62c-2.47,0.82-5.24,1.2-7.36,2.24
		c-1.73,0.85-2.84,3.82-4.77,5.27c-3.15,2.38-7.51,1.59-10.07-2.61c-1.79-2.93-3.87-3.19-6.55-2.95c-4.5,0.39-8.91-0.75-12.8-2.38
		c-6.15-2.57-8.99-8.35-10.28-14.68c-0.78-3.83-1.49-7.72-1.97-11.58c-0.55-4.41,0.97-8.78,2.88-12.69c1.5-3.07,2.98-6.19,4.69-9.09
		c-4.24-8.55-6.81-17.6-8.67-26.87c-0.21-1.02-0.62-1.88-1.07-2.71c-6.77-12.44-11.06-26.09-18.82-38.1
		c-3.04-4.7-4.51-10.42-6.91-16.18c-12.54,7.6-26.38,11.66-40.85,14.62c2.16,6.41,4.52,12.76,6.42,19.25
		c2.98,10.15,5.72,20.37,7.19,30.88c1.34,9.59,2.44,19.2,3.18,28.87c0.35,4.6,0.57,9.21,0.89,13.81c0.38,5.49-2.22,8.78-6.81,11.19
		c-8.06,4.23-16.85,5.87-25.63,7.68c-8.97,1.85-18,2.12-27.09,1.98c-7.11-0.11-14.15,1.63-21.3,1c-1.86-0.16-3.53,0.79-5.14,1.48
		c-6.88,2.94-14.31,3.86-21.51,4.19c-5.56,0.26-11.45-0.16-17.09-1.47c-3.96-0.92-8-1.53-12.02-2.19c-2.31-0.38-3.99,1.36-5.93,2.14
		c-5.64,2.28-8.02,2.12-11.04-1.19C261.87,914.41,261.87,914.41,261.39,909.25z"/>
	<path d="M277.93,185.34c-7.89-0.51-15.38-3.25-23.23-3.95C262.84,180.47,270.35,183.1,277.93,185.34z"/>
	<path d="M307.92,213.06c-6.84-1-12.21-4.33-18.37-3.45C295.72,208.65,301.78,208.34,307.92,213.06z"/>
	<path class="st0" d="M809.87,460.5c-5.86-4.32-10.56-8.13-16.38-10.64c-5.5-2.36-9.86-7.31-17.32-8.14
		c19.68,16.69,36.15,34.48,43.11,60.18c-13.16-0.73-24.46,2.28-34.68,11.15c10.69-1.13,20.05-5.71,31.15-5.04
		c-4.57,2.9-8.56,5.1-12.42,7.34c-5.33,3.09-9.48,7.54-14.51,10.87c-8.81,5.83-13.39,15.13-18.98,23.51
		c-2.83,4.25-3.46,9.74-6.06,14.29c-0.44,0.77-0.5,2.18,0.21,3.12c0.72,0.26,0.74-1.14,1.75-0.28
		c-5.51,15.26-7.38,31.42-10.29,47.91c4.58-2.37,4.75-6.84,6.83-10.94c0.56,3.53-0.72,5.95-1.39,8.49
		c-3.24,12.23-10.06,22.51-17.19,32.73c-7.97,11.43-16.73,22.14-27.19,31.28c-5.29,4.63-11.48,8.24-16.29,13.49
		c-0.78,0.85-1.83,1.47-2.2,2.84c16.25-3.01,28.4-12.78,39.87-23.82c-0.79,4.33-3.62,7.36-6.16,10.24
		c-6.78,7.65-13.64,15.2-21.44,21.97c-9.01,7.81-19.23,13.58-29.3,19.61c-9.87,5.91-21.02,8.47-32.33,10.19
		c-12.05,1.84-24.1,3.42-36.37,3.12c-6.48-0.16-12.68-1.37-18.91-2.81c-1.9-0.44-3.93-0.75-4.52,1.56c-0.62,2.4,1.32,2.57,3.22,3.26
		c9.29,3.39,19.33,2.9,28.67,5.88c0.47,0.15,0.9,0.22,1.18,0.99c-9.4,0-18.78,0.62-28.02-0.23c-5.8-0.53-11.55-0.57-17.32-0.74
		c-6.25-0.19-7.06-0.78-9.17-6.62c-3.48-9.66-7.67-19.03-11.53-28.53c-3.57-8.8-8.18-17.01-12.24-25.52
		c-5.64-11.83-12.8-22.83-21.72-32.49c-6.73-7.29-10.89-16.18-16.22-24.34c-7.73-11.85-15.41-23.73-23.25-35.81
		c3.14-1.77,5.83,0.16,8.33,0.52c6.28,0.9,12.35,0.68,18.64,0.01c5.58-0.6,10.93-1.47,16.32-3.07c13.31-3.93,25.38-9.89,36.17-18.76
		c10.87-8.93,18.88-19.89,25.19-32.28c3.07-6.04,4.14-12.66,5.55-19.17c2.53-11.65,4-23.5,5.7-35.27c1.2-8.27,2.74-16.47,4.61-24.53
		c1.43-6.18,3.93-12.25,6.31-19.42c1.37,10.76-1.41,20.74,2.82,31.23c16.78-48.17,48.85-74.28,99.89-74.92
		c0.14,1.48,0.25,2.67,0.36,3.85C758.07,398.9,797.82,429.83,809.87,460.5z"/>
	<path class="st0" d="M563.65,740.17c-8.3-3.33-16.17-5.74-24.11-7.96c-11.2-3.13-22.42-2.88-33.77-1.44
		c-13.81,1.75-27.01,5.92-40.2,10.1c-5.94,1.88-11.48,4.83-16.55,8.38c-9.07,6.33-19.27,10.24-29.25,14.69
		c-5.51,2.45-10.94,5.29-16.9,6.21c-9.84,1.52-19.45,5.26-29.48,4.59c-16.49-1.11-32.64-4.4-48.21-10.12
		c-2.14-0.78-3.48-2.41-3.47-4.81c0.07-19.35-6.51-37.19-12.67-55.07c-6.14-17.85-13.34-35.31-20.71-52.69
		c-6.06-14.28-12.6-28.33-19.58-42.19c-1.23-2.45-3.39-4.39-3.94-7.21c1.65-0.42,2.12,1.03,2.9,1.81
		c9.34,9.27,18.51,18.71,27.98,27.85c6.35,6.12,13.02,11.91,19.71,17.66c1.68,1.45,3.95,2.29,6.05,3.16
		c1.8,0.75,2.35-0.52,1.89-1.92c-0.56-1.73-1.8-3.1-3.16-4.35c-7.33-6.72-14.05-14.07-21.4-20.81c-4.81-4.41-9.64-8.72-14.95-12.44
		c-4.8-3.36-8.65-7.58-12.75-11.66c-5.05-5.04-9.13-10.97-14.52-15.66c-1.96-1.7-3.11-3.9-4.3-6.23
		c9.64,4.96,19.43,9.28,30.07,11.48c-11.32-7.31-23.96-12.27-35.19-20.12c1.25-0.84,2.46-0.72,3.39-0.43
		c8.93,2.83,18.28,3.28,27.42,4.91c7.31,1.3,14.8,0.81,22.06,2.1c7.66,1.36,15.3,0.97,22.96,0.87c6.06-0.08,12.09-0.57,17.92-2.56
		c2.78-0.95,5.9-0.07,8.71-1.34c0.69-0.31,1.69-0.1,2.25,0.67c2.82,3.81,7.37,5.49,10.68,8.68c2.28,2.2,4.73,2.1,7.25,0.91
		c5.88-2.78,10.96-6.79,14.82-11.91c4.19-5.57,8.89-7.66,16.13-7.75c10.21-0.13,20.14-3.53,29.83-7.04
		c5.37-1.95,10.65-4.05,15.79-6.53c3.11-1.5,6.07-3.65,10.01-2.3c0.6,5.26,3.39,10.04,5.68,15.02c0.78,1.71,1.8,3.09,1.27,5.47
		c-0.46,2.09,0.64,4.9,2.66,6.44c7.88,6.02,11.28,15.26,16.5,23.12c6.23,9.38,12.37,18.81,19.34,27.64c2.29,2.9,2.99,6.42,5.07,9.42
		c5.51,7.93,12.02,15.07,17.41,23.09c6.03,8.96,11.04,18.49,16.33,27.86c4.08,7.22,8.34,14.38,11.88,21.87
		c3.61,7.63,6.85,15.5,9.01,23.69C562.05,735.34,563.32,737.09,563.65,740.17z"/>
	<path class="st0" d="M271.24,260.32c-0.34-12.26-4.5-23.54-8.48-34.85c1.83-1.03,3.79-0.04,5.48-1.13
		c9.38,13.59,12.25,30.18,21.46,43.84c-2.04-7.52-4.09-15.04-6.13-22.56c0.27-0.16,0.54-0.31,0.82-0.47
		c9.68,12.01,19,24.34,29.16,35.93c10.26,11.71,21.87,22.14,34.96,31.53c-6.53,6.35-12.99,11.5-20.36,14.9
		c-6.9,3.18-14.16,5.83-21.4,8.18c-8.31,2.69-17.01,4.19-25.59,5.99c-1.26,0.26-2.88-0.5-4.17-1.13
		c-8.51-4.15-17.54-6.94-26.37-10.27c-11.11-4.19-22.07-8.77-32.99-13.43c-7.8-3.33-15.88-5.81-23.78-8.85
		c-6.34-2.43-12.74-4.71-19.51-7.2c4.99-8.46,9.86-16.32,13.81-24.71c5.92-12.6,10.07-25.73,12.57-39.4
		c2.16-11.79,3.21-23.69,4.23-35.63c0.72-8.46,0.3-16.88,0.89-25.3c2.16-0.79,1.48,2.14,3.16,2.3c2.42,0.22,1.87,4.65,5.91,3.95
		c1.62-0.28,3.96,3.6,5.97,5.6c2.13,2.11,3.98,4.62,6.42,6.27c4.46,3.03,7,7.82,11.04,11.17c1.04,0.86,0.95,1.63,0.54,2.04
		c8.53,3.86,13.32,11.86,20.57,18.13c-5.95,1.69-11.03,2.1-15.09,5.49c4.96-1.05,9.55-3.74,14.81-3.68
		C263.25,238.23,265.31,249.96,271.24,260.32z"/>
	<path class="st0" d="M413.37,521.82c-0.7-0.86-0.63-1.32-0.31-1.75c5.93-7.91,5.12-16.74,3.61-25.72
		c-2.53-15.06-7.89-29.18-14.22-42.96c-1.42-3.1-3.47-5.89-5.03-8.96c-1.56-3.06-3.06-3.1-5.85-0.91
		c-5.84,4.58-11.53,9.33-16.68,14.69c-2.86,2.97-6.48,4.95-9.61,7.39c-6.54-10.06-11.92-20.99-23.75-26.68
		c2.23-3.12,5.15-4.81,7.61-6.67c3.91-2.94,7.44-6.44,11.67-8.92c8.62-5.05,15.06-12.69,22.81-18.74c4.14-3.23,8.26-6.6,11.32-10.69
		c4.77-6.4,12.17-10.11,16.35-16.98c0.66-1.08,1.88-1.58,3.19-2.12c14.45-5.94,28.72-12.29,42.72-19.22
		c4.34-2.15,8.65-4.56,12.78-7.23c4.82-3.12,10.55-4.27,15.97-5.96c3.4-1.06,6.82-2.03,10.07-3.46c1.37,2.7,1.76,5.36,1.72,8.21
		c-0.11,8.01,0.34,16.05-0.12,24.04c-0.82,14.26-4.57,27.89-9.69,41.22c-3.56,9.27-7.67,18.35-13.07,26.55
		c-8.97,13.63-16.58,28.09-25.99,41.42c-3.39,4.79-6.94,9.46-10.44,14.18c-1.27,1.72-3.76-0.06-5.26,2.19
		c-2.44,3.67-5.61,6.85-8.48,10.23C420.33,510.09,417.32,516.1,413.37,521.82z"/>
	<path class="st0" d="M486.02,222.76c2.12-12.13,6.49-23.65,3.2-36.05c-0.8,11.04-7.13,19.37-13,28.29
		c-9.53-15.56-18.1-31.27-25.42-47.67c-2.26-5.06-3.98-10.28-4.73-15.74c-0.76-5.49-2.92-10.73-2.27-17.44
		c-7.94,7.25-17.12,10.52-24.8,16.41c1.33-3.07,3.12-5.73,3.5-9.41c-2.45,1.27-3.62,3.84-6.06,4.93c-0.52-1.44,0.96-2.69-0.19-3.79
		c-12.65,9.01-26.69,15.39-40.94,21.47c2.73-3.64,5.67-6.77,9.73-9.12c3.74-2.16,7.56-4.37,12.16-7.39
		c-7.05-1.02-12.05,1.9-16.69,4.61c-6.9,4.04-13.05,9.26-19.58,15.03c-0.7-4.57,1.11-8.27,1.58-12.13c0.49-3.99,2.5-7.45,3.1-11.27
		c0.64-4.08,2.78-7.2,5.03-10.42c2.31-3.3,5.39-5.66,8.45-8.18c3.19-2.64,6.68-4.52,10.31-6.4c3.5-1.81,7.47-1.94,10.89-4.01
		c-8.81-1.38-17.35,0.15-25.78,2.14c2.82-4.46,16.66-9.72,26.31-10.77c10.05-1.1,19.65,0.97,29.86,3.07
		c-1.14-3.91-4.39-5.51-6.54-7.94c-2.15-2.42-4.33-4.86-7.26-6.52c7.45-0.17,13.56,3.61,20.17,5.65c0.94,0.29,1.74,1.17,1.58,2.31
		c-0.43,3.26,1.98,5.46,3,9.12c0.04,0.83-2,1.25-2.48,3.38c17.73-1.42,35.21-0.98,52.36,3.74c-4.27,2.93-8.65-0.67-12.94,0.29
		c-4.15,0.93-8.78,0.01-13.08,3.37c6.82,2.15,13.28,3.22,19.07,6.48c3.31,1.86,5.88,4.69,9.36,6.21
		c6.85,2.99,12.28,7.88,17.42,13.13c6.17,6.3,10.65,13.64,12.97,22.17c0.65,2.4,1.36,5.15-1.6,6.87c0.14,5.25-2.75,9.69-3.89,14.57
		c-2.61,11.2-9.01,19.45-18.82,25.02C495.69,219.22,491.39,221.96,486.02,222.76z"/>
	<path class="st0" d="M385.87,538.07c-2.05-21.33-5.51-41.6-14.88-60.88c6.42-7.12,14.78-12.6,21.27-20.74
		c4.82,8.78,8.12,17.42,10.26,26.42c1.81,7.59,2.86,15.36,4.12,23.08c0.52,3.18-0.16,6.2-1.96,8.93
		C399.36,522.96,393.77,530.82,385.87,538.07z"/>
	<path class="st0" d="M385.19,564.03c-1.09-6.9,3.17-10.52,6.41-14.39c4.84-5.78,9.59-11.59,13.77-17.87
		c0.44-0.66,1.17-1.12,2.08-1.45C400.56,541.74,393.67,553.14,385.19,564.03z"/>
</g>
</svg>
