<?xml version="1.0" encoding="utf-8"?>
<!-- Generator: Adobe Illustrator 24.1.1, SVG Export Plug-In . SVG Version: 6.00 Build 0)  -->
<svg version="1.1" id="Layer_1" xmlns="http://www.w3.org/2000/svg" xmlns:xlink="http://www.w3.org/1999/xlink" x="0px" y="0px"
	 width="391.42" height="585.47" viewBox="0 0 391.42 585.47" style="enable-background:new 0 0 391.42 585.47;" xml:space="preserve">
<style type="text/css">
	.st0{fill:#1A1A1A;}
</style>
<g>
	<path d="M149.58,49.33c0.16-1.44,1.21-2.43,2-3.48c3.07-4.1,6.38-8,10.66-10.93c0.79-0.54,1.62-1.01,2.41-1.55
		c0.42-0.29,1.03-0.45,1.09-1.31c-6.21,2.11-12.35,4.24-18.83,4.68c-0.48-1.04-0.08-1.54,0.54-2.04c2.57-2.08,5.41-3.68,8.44-4.98
		c1.83-0.78,3.7-1.49,5.64-1.97c0.47-0.12,0.93-0.23,1.42-0.78c-0.82-1.86-1.72-3.78-2.51-5.75c-0.8-1.98-1.5-4.01-2.16-5.79
		c0.38-0.94,1.02-1.17,1.58-1.45c0.92-0.45,1.37-0.37,2.08,0.46c1.67,1.94,3.66,3.54,5.52,5.29c0.57,0.54,1.18,1.07,2.23,1.21
		c-0.36-1.9-1.56-3.31-2.31-4.91c-0.74-1.58-2.21-2.66-3.69-4.25c1.92,0.26,2.94,1.39,4.2,2.01c1.43,0.71,2.82,1.51,4.24,2.23
		c1.35,0.68,2.72,1.33,4.11,1.92c1.37,0.58,2.79,1.05,4.54,1.7c-1.25-3.38-2.26-6.52-2.89-9.8c0.8,0.11,0.91,0.77,1.19,1.22
		c1.29,2.11,2.54,4.25,3.79,6.39c0.85,1.45,1.89,2.73,2.95,3.88c0.64-0.04,0.89-0.35,0.9-0.78c0.1-3.19,0.7-6.31,1.1-9.46
		c0.25-1.97,0.74-3.92,1.04-5.88c0.28-1.85,0.91-3.54,1.97-5.19c0.91,0,1.85,0,2.83,0c4.11,6.44,7.34,13.4,12.43,19.57
		c0.68-3.79-0.89-6.99-1.15-10.46c1.35,0.22,1.98,1.18,2.68,2c0.41,0.48,0.7,1.07,1.03,1.61c1.13,1.81,2.01,3.72,3.64,5.26
		c1.5,1.42,2.21,3.5,2.56,5.58c0.13,0.79,0.22,1.58,0.66,2.43c1.63-1.13,2.84-2.73,4.53-3.78c1.6-1,2.97-2.35,4.8-3.84
		c-0.57,2.2-1.05,4-1.5,5.8c-0.44,1.76-1.43,3.35-1.68,5.55c3.74-2.63,6.6-5.75,9.48-8.79c0.64,0.5,0.43,1.01,0.42,1.44
		c-0.06,2.96,0.07,5.9,0.78,8.81c0.33,1.35,0.33,2.78,0.49,4.27c1.08-0.55,1.05-1.94,2.31-2.33c2.41,2.94,1.71,6.57,1.92,9.8
		c0.88,0.6,1.41-0.11,2.02-0.07c0.06,0.13,0.22,0.3,0.18,0.37c-0.75,1.35-0.56,2.82-0.45,4.23c0.19,2.41,0.27,4.78-0.84,7
		c1.53,0.66,1.53,0.66,3.89-0.95c0.18,0.68-0.4,1.02-0.54,1.5c-0.12,0.44-0.56,0.78-0.43,1.31c0.58,0.4,0.98-0.54,1.66-0.13
		c0.59,1.37-0.9,2.78-0.14,4.41c0.96-2.41,1.87-4.68,2.83-7.09c0.55,0.45,0.69,0.93,0.71,1.47c0.05,1.12,0.15,2.23,0.16,3.35
		c0.04,2.95,0.11,5.85,0.71,8.8c0.87,4.31-0.02,8.59-1.49,12.7c-0.86,2.4-1.61,4.85-3.19,7.26c1.72-0.14,2.67-1.42,4.01-1.7
		c1.52-0.32,2.77-1.2,4.09-1.93c1.23-0.68,2.15-1.87,3.95-2.46c-1.03,1.56-1.86,2.83-2.75,4.16c1.02,0.45,1.5-0.92,2.57-0.61
		c-0.34,1.43-1.39,2.43-2.18,3.71c2.57,0.31,4.85-0.53,7.43-0.54c-0.88,1.58-1.81,2.83-2.92,3.98c-2.11,2.19-4.03,4.52-5.44,7.24
		c-0.26,0.49-0.63,0.9-0.27,1.53c0.31,0.55-0.08,1.08-0.22,1.61c-1.67,6.15-4.95,11.38-9.08,16.14c-1.61,1.86-3.28,3.65-5.11,5.24
		c0.32,0.67,0.82,0.68,1.28,0.56c1.71-0.42,3.35-1,4.83-2.01c1.3-0.88,2.46-2.02,4.1-2.57c-1.46,4.62-2.95,9.11-7.18,11.98
		c-0.37,0.25-0.86,0.44-0.96,1.11c1.26,0.78,2.72,0.14,4.1,0.42c-1.25,2.19-3.08,3.43-5.8,3.87c2.05,1.56,2.96,3.4,2.75,5.7
		c-0.18,0.55-0.76,0-1.07,0.48c0.07,1.07,0.69,2.16,0.5,3.37c-0.18,1.19-0.45,2.35-0.97,3.4c-0.35,0.29-0.79-0.22-1.22,0.37
		c-0.04,1.96-0.12,4.11-0.13,6.25c0,1.1,0.23,2.18-0.72,3.1c-0.51,0.49-0.2,1.24-0.05,1.83c0.46,1.78,1,3.53,1.5,5.29
		c0.08,0.3,0.1,0.61,0.14,0.89c-0.31,0.21-0.56,0.38-0.87,0.59c0.01,1.35,0.99,2.45,1.2,3.71c-0.71,0.74-1.61,0.28-2.46,0.64
		c-0.48,1.01-0.33,2.23-0.56,3.38c-0.56,2.75-1.25,5.43-2.34,8.03c-2.13,5.08-3.7,10.37-5.49,15.58c-0.49,1.43-1.01,2.86-1.61,4.25
		c-0.79,1.85-1.44,3.73-1.71,5.72c-0.2,1.5-1.11,2.26-2.36,2.91c-1,0.53-1.93,1.17-2.51,2.32c-1.43,2.85-3,5.64-4.55,8.43
		c-1.01,1.83-1.72,3.78-2.45,5.72c-0.92,2.46-1.79,4.95-2.67,7.43c-0.13,0.37-0.33,0.76-0.34,1.14c-0.09,3.95-0.6,7.88,0.25,11.87
		c0.6,2.78,1.14,5.62,1.32,8.5c0.07,1.09,0.35,2.2,1.03,3.18c1.28,0.43,2.7-0.12,3.96,0.48c0.49,0.92-0.32,1.48-0.64,2.29
		c1.59,0.95,3.34,0.69,5.05,0.76c1.8,0.08,3.14-1.6,5.07-1.32c0.94,3.53-1.58,5.64-3.34,8.39c2.09-0.77,3.69-1.97,5.62-2.94
		c1.25,3.04,2.09,6.03,1.61,9.2c0.52,0.64,1.28,0.28,1.7,0.52c0.62,0.5-0.08,1.01,0.25,1.42c0.25,0.31,0.49,0.63,0.8,0.87
		c0.87,0.69,1.74,1.41,2.68,2.01c1.99,1.28,3.56,2.97,4.83,4.92c1.58,2.42,3.5,4.56,5.36,6.74c0.05,0.06,0.12,0.11,0.17,0.17
		c3.98,4.83,7.54,9.9,9.51,15.94c0.74,2.28,1.52,4.55,2.35,6.79c1.78,4.82,3.89,9.47,7.84,13.04c-0.15,0.45-0.28,0.88-0.41,1.28
		c0.47,0.76,1.4,0.38,1.96,0.91c0.4,0.51,0.33,1.1-0.14,1.47c-0.61,0.49-1.34,0.82-2.06,1.24c0.4,0.87,1.9,0.77,1.77,2.04
		c0.78,0.36,1.56,0.72,2.44,1.13c-0.78,1.96-2.42,1.98-4.25,2.13c1.02,1.45,1.9,2.74,2.82,4.01c1.46,2.01,3.05,3.88,5.01,5.45
		c0.84,0.67,1.69,1.2,2.75,1.32c1.23,0.14,2.28,0.65,3.3,1.5c0.63,2.52-1.42,3.73-2.74,5.36c-1.57,1.94-3.67,2.04-5.81,1.9
		c-0.29,0.76,0.28,0.93,0.61,1.22c1.21,1.08,1.97,2.31,2.45,3.96c0.75,2.57,1.84,5.15,4.85,6.27c-0.39,0.73-1.32,0.45-1.52,1.13
		c-0.16,0.53-0.39,1.03-0.58,1.54c0.84,2.19,1.63,4.36,2.52,6.5c1.21,2.88,2.16,5.84,3,8.84c0.87,3.09,2.09,6.03,3.34,8.97
		c0.35,0.82,0.72,1.6,1.49,2.12c0.19,0.13,0.39,0.31,0.51,0.51c1.33,2.23,3.21,3.94,5.41,5.56c-0.5,0.65-1.27,0.27-1.85,0.73
		c1.26,1.69,3.49,1.72,5.16,3.07c-0.77,1.77-2.4,2.82-3.81,4.28c0.45,0.73,1.29,1.07,1.93,1.6c0.6,0.49,1.16,1.03,1.76,1.58
		c0.32,1.9-0.63,3.71-0.64,5.45c0.61,0.75,1.39,0.16,1.91,0.6c-0.01,1.78,1.22,2.82,2.42,3.81c0.67,0.55,1.47,0.99,2.29,1.28
		c2.57,0.9,4.99,2.12,7.4,3.37c2.13,1.11,4.36,1.96,6.69,2.58c2.47,0.66,4.96,1.28,7.28,2.35c2.4,1.1,4.97,1.02,7.49,1.27
		c1,0.1,1.82-0.21,2.64-0.85c1.75-1.39,3.7-2.49,5.67-3.55c3.1-1.66,6.16-3.4,9.15-5.24c3.28-2.02,6.67-3.72,10.42-4.74
		c2.23-0.61,4.36-1.56,6.53-2.35c1.09-0.4,1.09-0.39,2.58-0.28c-0.29,1.96-2.6,2.23-3.21,3.91c4.41-0.79,8.84-1.26,13.31-1.12
		c2.34,0.07,4.6-0.26,6.88-0.78c2.08-0.47,4.21-0.75,6.42-1.14c0.21,1.38,0.36,2.63-0.17,3.91c-0.24,0.57-0.35,1.24-0.38,1.86
		c-0.1,1.85-0.52,3.63-1.1,5.37c-0.12,0.37-0.36,0.72-0.17,1.16c0.59-0.31,0.92-1.08,1.71-0.99c0.13,0.12,0.34,0.23,0.34,0.34
		c0.22,5.25,1.12,10.48,0.62,15.76c-0.11,1.19-0.08,2.4-0.01,3.6c0.16,2.73-0.47,5.4-0.61,8.1c-0.17,3.19-0.88,6.27-1.74,9.56
		c1.58-1.19,2.12-2.88,3.57-4.36c0.56,4.58,0.1,8.69-1.19,12.86c0.76,0.9,1.03,2.01,0.94,3.25c-0.07,0.96,0.01,1.92-0.02,2.88
		c-0.05,1.7-0.36,3.35-1.39,4.75c-0.82,1.12-0.56,2.57-1.26,3.7c0.78,1.36-0.1,2.51-0.65,3.57c-1.04,1.98-2.32,3.83-3.9,5.43
		c-1.46,1.48-2.86,3.04-4.47,4.35c-1.54,1.26-3.3,2.24-4.97,3.35c0.01,0.29,0.44,0.42,0.16,1.18c-0.21,0.35-0.96,0.63-1.65,1.02
		c-6.2,3.57-12.98,5.77-19.65,8.19c-1.91,0.69-3.66,1.55-5.23,2.83c-1.3,1.06-2.63,2.08-4.16,2.81c-3.29,1.58-6.79,2.3-10.39,2.51
		c-2.59,0.15-5.2,0.12-7.82-0.44c0.19,1.47,1.75,1.27,2.26,2.42c-0.38,0.45-1.02,0.56-1.55,0.82c-4.48,2.17-9.14,3.78-14.13,4.24
		c-1.68,0.15-3.32,0.49-4.93,0.97c-4.82,1.44-9.3,0.38-13.66-1.73c-1-0.48-1.97-1.02-3.11-1.62c-0.03,1.49-0.88,1.86-2.02,1.92
		c-1.86,0.09-3.67-0.05-5.33-1.01c-0.52-0.3-1.04-0.67-1.72-0.66c-0.07,0.74,0.92,0.96,0.58,1.9c-0.3,0.47-0.93,0.71-1.7,0.73
		c-2.56,0.05-5.09-0.2-7.6-0.72c-1.26-0.26-2.41-0.79-3.49-1.52c-1.52-1.03-3.11-1.96-4.65-2.96c-1.76-1.14-3.34-2.47-4.38-4.35
		c-0.19-0.34-0.38-0.7-0.84-0.81c-0.52,1.14-0.07,2.48-0.67,3.72c-1.37-0.06-2.2-0.94-2.97-1.82c-1.15-1.32-2.22-2.72-3.33-4.08
		c-0.49-0.59-0.99-1.17-1.51-1.77c-0.53,0.65-0.16,1.08,0.02,1.49c1.22,2.95,2.41,5.91,3.72,8.82c0.85,1.89,1.36,3.92,2.44,5.71
		c0.42,0.69,0.8,1.38,1.39,1.93c1.24,1.14,2.19,2.52,3.21,3.85c2.06,2.66,3.21,5.68,4.13,8.83c1.25,4.29,2.47,8.59,3.69,12.88
		c0.26,0.91,0.39,1.82,0.2,2.81c-0.16,0.84-0.05,1.75,0.04,2.62c0.19,1.8-0.64,3.08-1.98,4.11c-1.28,0.99-2.73,1.64-4.29,2.07
		c-3.15,0.88-6.38,1.41-9.59,1.99c-2.51,0.46-5.02,0.89-7.54,1.3c-0.86,0.14-1.75,0.15-2.62,0.22c-2.86,0.23-5.71,0.03-8.57-0.02
		c-1.69-0.03-3.34,0.23-5,0.39c-0.82,0.08-1.53,0.43-2.18,0.92c-0.84,0.64-1.77,1.05-2.81,1.26c-2.65,0.55-5.32,0.98-8.01,1.34
		c-4.63,0.62-9.25,0.19-13.87,0.28c-1.22,0.02-2.37-0.33-3.55-0.46c-1.03-0.11-2.05-0.31-3.07-0.42c-1.07-0.11-2.12-0.42-2.82-1.18
		c-0.98-1.06-2.12-1.32-3.6-1.25c-0.61,0.8-1.55,1.25-2.64,1.63c-4.89,1.72-9.93,1.35-14.95,1.3c-0.48,0-0.96-0.11-1.43-0.11
		c-2.62,0.01-4.36-1.24-5.36-3.63c-0.53-1.27-1.14-2.51-1.72-3.77c-0.87-0.1-1.66-0.17-2.44-0.3c-1.38-0.22-2.31-0.91-2.59-2.41
		c-0.13-0.71-0.23-1.41-0.21-2.13c0.01-0.79,0.17-1.6-0.34-2.28c-1.09-0.62-2.21,0.58-3.47-0.24c-0.48-1.34,0.25-2.46,1.23-3.42
		c0.97-0.95,2.08-1.74,3.41-2c0.45-0.89,0.84-1.67,1.23-2.46c1.13-2.31,2.94-3.7,5.49-4.17c1.49-0.27,2.95-0.69,4.42-1.06
		c0.45-0.11,0.88-0.31,1.31-0.78c-1.11-0.16-2.21-0.33-3.32-0.49c-0.63-0.09-1.27-0.16-1.89-0.29c-1.55-0.32-2.24-1.41-2.46-2.87
		c-0.29-1.92-0.28-1.92-2.23-2.17c-0.15-0.02-0.28-0.12-0.5-0.23c-0.45-1.09,0.03-2.03,0.82-2.72c2.53-2.21,4.87-4.59,6.98-7.21
		c0.33-0.41,0.86-0.78,1.37-0.93c1.26-0.36,2.33-0.96,3.19-1.96c0.4-0.47,0.98-0.51,1.55-0.49c1.36,0.05,2.76-0.08,4.06,0.23
		c2.04,0.49,3.95-0.15,5.91-0.27c2.92-0.18,4.7-2.2,6.41-4.13c1.47-1.66,2.64-3.6,3.86-5.47c0.62-0.95,0.92-2.01,0.54-3.2
		c-0.22-0.68-0.32-1.4-0.38-2.11c-0.32-3.7-1.76-7.11-2.84-10.61c-1.5-4.87-2.98-9.75-4.78-14.52c-1.35-3.56-2.76-7.13-4.67-10.47
		c-1.23-2.14-2.24-4.41-3.32-6.64c-1.15-2.37-2.29-4.73-3.37-7.13c-0.37-0.82-0.72-1.57-1.48-2.12c-0.77-0.57-0.47-1.67-1.09-2.4
		c-0.54-0.38-0.59,0.79-1.31,0.21c-0.1-0.35-0.44-0.96-0.39-1.55c0.13-1.61-0.64-2.93-1.11-4.36c-0.36-1.11-0.9-2.04-2.14-2.37
		c-0.18-1.07-0.2-2.13-0.77-3.04c-0.25-0.39-0.39-0.88-0.47-1.35c-0.58-3.28-1.8-6.39-2.7-9.58c-0.16-0.58-0.11-1.1-0.05-1.65
		c0.35-2.97-0.7-5.48-2.54-7.72c-0.51-0.62-1.03-1.22-1.5-1.87c-0.42-0.58-0.88-1.17-1.12-1.83c-1.28-3.54-3.1-6.82-5.07-10
		c-0.68-1.1-0.87-2.39-1.67-3.43c-0.34-0.43-0.1-1.27-0.03-1.81c0.42-3.34-0.43-6.47-1.38-9.58c-2.11-6.87-3.69-13.88-5.38-20.86
		c-0.42-1.71-0.98-3.37-1.44-5.06c-1.16-4.31-2.28-8.63-3.41-12.95c-0.14-0.54-0.19-1.11-0.72-1.58c-1.48-0.17-3.08-0.11-4.51-1.04
		c-2.69-1.76-4.74-4.01-5.9-7.03c-0.43-1.11-0.8-2.25-1.19-3.33c-2.69,0.64-5.34,1.41-8.11,1.55c-3.27,0.16-5.87-1.27-8.06-3.55
		c-0.61-0.63-1.16-1.33-1.62-2.07c-1.04-1.7-2-3.44-3.02-5.16c-0.66-1.12-0.43-2.48-1.06-3.63c-0.18-0.33,0.05-0.93,0.18-1.39
		c0.23-0.82,0.81-1.52,0.57-2.5c-0.14-0.56,0.47-0.99,0.81-1.4c1.26-1.51,1.93-3.26,2.38-5.16c0.78-3.28,2.16-6.34,3.8-9.28
		c2.54-4.53,5.02-9.1,8.55-12.97c1.12-1.23,2.13-2.58,3.46-3.62c0.78-0.61,1.31-1.38,1.43-2.41c0.16-1.4,0.91-2.53,1.76-3.63
		c-0.39-0.75-1.21-0.94-1.89-1.36c-0.13-0.41,0.36-0.39,0.45-0.61c0.39-0.74-1.47-0.41-0.59-1.35c-0.5-0.61-0.14-1.08,0.25-1.55
		c0.53-0.64,0.76-1.45,0.81-2.22c0.11-1.66,0.15-3.32,0.42-4.79c-0.34-0.59-0.83-0.39-1.24-0.67c0.86-0.73,1.71-1.46,2.21-2.48
		c-0.17-0.68-0.7,0.08-1.07-0.54c0.42-1.5,0.06-3.35,0.63-5.22c-1.21,0.34-1.29,1.54-2.26,2.14c0.24-2.13,1.28-3.81,2.16-5.36
		c-0.32-0.9-1.12-0.48-1.49-0.92c0.04-0.14,0.03-0.33,0.12-0.4c0.44-0.35,0.93-0.63,1.35-0.99c0.62-0.54,0.85-1.16,0.86-2.07
		c0.06-5.35-0.06-10.69-0.16-16.04c-0.02-1.29-0.49-2.52-0.48-3.79c0.01-2.14-0.93-4.08-1.05-6.22c-0.11-2.05-0.75-4.07-1.15-6.1
		c-0.03-0.16-0.08-0.34-0.04-0.47c0.47-1.35-0.02-2.59-0.53-3.78c-0.35-0.83-0.59-1.54-0.12-2.43c0.41-0.78,0.41-1.68,0.5-2.56
		c0.21-2.06-0.04-4.14,0.41-6.2c0.18-0.82,0.19-1.75-0.15-2.69c-0.85-0.22-1.5,0.36-2.15,0.71c-2.16,1.18-4.37,2.3-6.36,3.77
		c-0.88,0.65-1.79,0.66-2.85,0.75c-2.15,0.17-4.32,0.07-6.44,0.34c-1.43,0.18-2.26-0.35-3.09-1.28c-1.19-1.32-1.9-2.94-2.77-4.46
		c-0.87-1.52-1.39-3.24-2.17-4.79c-1.77-3.54-2.43-7.41-3.63-11.11c-0.86-2.64-0.71-5.21,0.82-7.59c0.51-0.79,0.61-1.57,0.56-2.49
		c-0.1-1.75-0.14-3.5-0.64-5.19c-0.24-0.81-0.11-1.55,0.05-2.35c0.51-2.54,1.83-4.76,2.82-7.1c0.37-0.88,0.75-1.76,1.19-2.61
		c1.38-2.69,3.21-4.92,6.09-6.17c2.75-1.19,4.97-3.06,6.94-5.35c3.35-3.88,7.25-7.2,11.29-10.33c1.56-0.35,2.13-1.74,3.08-2.79
		c1.33-1.48,2.8-2.84,4.28-4.17c2.67-2.39,4.7-5.2,5.95-8.57c0.22-0.6,0.62-1.13,0.83-1.73c0.98-2.9,3.01-4.82,5.58-6.31
		c0.53-0.3,1.17-0.53,1.46-1.32c-1.23-1.38-2.37-2.9-3.27-4.92c1.84,0.35,3.14,1.64,4.87,1.53c1.65-0.1,3.33,0.12,5.28-0.71
		c-2.06-0.41-3.84-0.54-5.61-1.33c2.84-2.4,6.03-1.86,9.37-1.55c-0.9-1.62-2.27-2.7-3.26-4.11c2.07,0.4,3.79,1.4,5.51,3.1
		c0.09-2.72-1.19-4.99-0.76-7.55c1.52,0.5,2.42,1.98,4.01,2.1c0.71-0.58-0.57-1.1-0.01-1.73c0.92,0.21,1.45,1.4,2.77,1.2
		c0.45-1.67,0.83-3.4,0.69-5.37c-0.96-0.07-1.8,0.16-2.54,0.54c-2.04,1.04-4.34,0.92-6.48,1.49c-0.79,0.21-1.56-0.2-2.28-0.57
		c-0.71-0.36-1.39-0.77-2.22-0.24c-0.29,0.19-0.66,0.01-0.88-0.2c-0.75-0.74-1.65-1.23-2.54-1.77c-0.6-0.37-1.1-0.91-1.17-1.72
		c-0.18-2.05-1.63-3.1-3.33-3.63c-3.16-0.98-5.48-3.16-7.92-5.18c-0.18-0.15-0.37-0.33-0.48-0.53c-1.47-2.65-3.31-5.08-4.41-7.95
		c-0.5-1.3-0.33-2.49,0.02-3.71c0.2-0.7,0.6-1.25,1.35-1.57c1.68-0.72,3.31-1.58,4.99-2.31c1.32-0.57,2.52-1.3,3.7-2.13
		c2.67-1.86,5.39-3.67,8.39-4.96c2-0.86,3.84-1.95,5.54-3.28c0.84-0.66,1.48-1.46,1.72-2.51c0.35-1.55,0.85-3.1,0.98-4.67
		c0.13-1.63,0.59-3.25,0.35-5.16c-1.3,0.88-1.68,2.15-2.39,3.16c-0.74,1.04-1.39,2.15-2.1,3.21c-0.7,1.05-1.42,2.08-2.31,3.39
		c-0.42-2.42,0.16-4.43,0.24-6.44c0.14-3.74,0.55-7.47,0.9-11.19c0.39-4.15,1.16-8.21,2.82-12.07c0.13-0.29,0.2-0.61,0.26-0.92
		c0.04-0.22,0.26-0.43,0-0.71c-0.43-0.22-0.62,0.24-0.88,0.46c-2.61,2.35-5.21,4.71-7.82,7.07c-0.3,0.27-0.62,0.51-1.06,0.42
		L149.58,49.33z"/>
	<path d="M149.53,49.28c0.13,0.96-0.71,1.28-1.35,2.17c0.01-1.32,0.49-1.87,1.4-2.13L149.53,49.28z"/>
	<path class="st0" d="M288.88,405.81c-1.3,0.58-1.83-0.29-2.55-0.12c-0.35,0.46,0.04,0.75,0.3,0.99c1.25,1.12,2.58,2.13,4.15,2.8
		c0.73,0.31,1.42,0.68,2.21,1.07c-1.3,2.53-3.46,3.5-6,3.74c-0.09,0.69,0.31,0.75,0.71,0.79c1.38,0.14,2.65,0.54,3.69,1.54
		c-0.14,0.38-0.28,0.73-0.42,1.08c0.54,0.8,1.58,0.1,2.26,0.88c0.25,0.83-0.21,1.73-0.38,2.64c-0.18,0.94-0.45,1.85-0.35,2.74
		c0.29,0.33,0.56,0.49,0.9,0.48c0.4-0.01,0.71-0.02,0.97,0.44c1.34,2.47,3.36,4.15,6.05,5.04c2.89,0.96,5.44,2.6,8.13,3.93
		c-0.41,1.03-1.4,0.16-1.95,0.78c0.17,2.11,1.18,4.04,1.73,6.03c-0.4,0.6-1.09,0.25-1.54,0.57c0.42,1.1,1.82,0.48,2.19,1.14
		c0.42,0.74,0.92,1.12,1.88,1.27c-1.46,1.53-2.98,1.76-4.74,1.08c-0.13,1.09,0.54,1.52,1.04,1.91c1.64,1.3,0.83,3.02,0.89,4.58
		c-0.86,0.62-0.53,1.37-0.28,2.15c0.18,0.57-0.29,0.86-0.61,1.2c0.01,0.76,0.96,0.78,1.13,1.49c-0.23,0.16-0.48,0.32-0.73,0.49
		c0,0.54,0.68,0.62,0.81,1.21c-0.43,0.88-0.54,1.95-0.83,2.92c-0.32,1.07-1.3,1.95-2.02,2.88c-0.67,0.87-1.84,1.27-2.32,2.33
		c0.27,0.83,1.78,0.84,1.23,2.1c-0.64,0.3-1.17-0.33-1.8-0.26c-0.71,0.08-0.98,0.43-0.88,1.23c0.8,0.78,2.21,0.61,2.99,1.56
		c-0.41,0.85-1.73,0.47-2.04,1.46c0.49,0.55,1.31-0.11,1.78,0.58c0.09,0.49-0.26,0.94-0.68,1.06c-1.22,0.36-1.92,1.41-2.93,2.03
		c-0.69,0.42-1.28,0.9-1.07,1.92c0.12,0.56-0.42,1-0.81,1.4c-0.56,0.57-1.13,1.13-1.68,1.71c-0.56,0.59-0.96,1.24-0.86,2.18
		c1.16-0.12,1.2-1.49,2.18-1.7c0.66,1-0.44,1.76-0.31,2.84c0.32,0.39,1.27,0.64,0.65,1.7c-0.98,1.65-1.83,3.37-3.01,4.89
		c-0.73,0.94-1.42,1.9-2.02,2.98c1.57-0.37,2.47-1.89,4.26-2.25c-0.17,0.87-0.72,1.38-1.22,1.91c-0.65,0.69-1.32,1.32-1.63,2.31
		c-0.28,0.92-1.18,1.48-1.9,2.12c-0.95,0.85-1.93,1.67-2.9,2.5c-0.18,0.16-0.38,0.31-0.51,0.51c-1.27,1.89-2.31,3.95-4.24,5.37
		c0.11,0.13,0.22,0.25,0.33,0.38c0.91-0.35,1.81-0.69,2.72-1.04c0.24,0.72-0.07,1.14-0.43,1.39c-1.55,1.04-2.72,2.53-3.72,3.96
		c-1.16,1.67-2.64,2.21-4.37,2.66c-2.9,0.74-5.19,2.43-7.01,4.74c-1.38,1.74-2.74,3.52-3.35,5.58c0.28,0.82,0.94,0.18,1.27,0.56
		c0.73,1.05-0.16,1.75-0.71,2.49c0.98,0.69,1.79-0.38,2.76,0.09c-0.3,1.26-1.63,1.54-2.35,2.23c0.3,1.04,1.39-0.1,1.61,1.1
		c-1.24,1.86-3.11,1.38-4.85,0.94c-0.6,0.13-0.36,0.75-0.85,0.98c-1.7-0.8-3.23-1.89-4.62-3.23c-1.31-1.27-1.92-3.05-3.19-4.64
		c-1.23,1.65-0.17,3.41-0.93,4.75c-0.66,0.34-0.93-0.16-1.25-0.46c-1.89-1.74-3.41-3.81-4.92-5.87c-0.89-1.21-2.18-2.14-2.56-3.71
		c-0.07-0.3-0.43-0.6-0.37-0.84c0.46-1.93-0.91-3.48-1.07-5.3c-0.16-1.81-0.72-3.59-1.15-5.38c-1.38-5.74-2.76-11.48-3.71-17.32
		c-0.55-3.4-0.67-6.82-0.82-10.25c-0.04-0.95,0.07-1.91-0.23-2.86c-0.2-0.64,0.01-1.24,0.22-1.86c0.62-1.81,1.23-3.62,1.76-5.46
		c0.44-1.52,0.74-3.08,0.45-4.69c-0.03-0.15-0.16-0.38-0.1-0.44c1.09-1.19,0.4-2.58,0.36-3.85c-0.05-1.27-0.06-2.54-0.24-3.82
		c-0.34-2.44-0.51-4.92-0.6-7.39c-0.11-3.12-0.64-6.19-1.06-9.26c-0.23-1.67-0.9-3.24-1.61-4.75c-0.47-0.98-0.25-1.66,0.41-2.29
		c-0.24-0.51-0.45-0.94-0.66-1.38c0.27-0.76,0.91-1.31,1.11-2.11c0.28-1.1,0.16-1.4-0.97-1.69c-0.3-0.08-0.62-0.09-0.85-0.12
		c-0.55-0.56,0.3-0.89,0.07-1.37c-0.19-0.4-0.51-0.63-0.86-0.78c-2.16-0.88-3.36-2.72-4.31-4.63c-1.57-3.14-2.87-6.39-3.48-9.91
		c-0.45-2.59-1.21-5.12-1.87-7.67c-0.25-0.94-0.3-1.88-0.34-2.84c-0.04-1.03-0.16-2.06-0.45-3.07c-0.67-2.34-0.71-4.7-0.17-7.1
		c0.19-0.84,0.13-1.75,0.15-2.62c0.03-1.5-0.21-3.02,0.22-4.5c0.14-0.49-0.1-0.93-0.24-1.39c-0.44-1.52-0.59-3.04-0.59-4.66
		c0-2.01,0.11-4.13-0.7-6.08c0.03-0.44,0.32-0.73,0.58-1.03c0.66-0.77,0.67-1.63,0.19-2.45c-1.15-1.99-1.42-4.18-1.44-6.39
		c-0.03-2.66-0.58-5.23-1.09-7.81c-0.69-3.52-1.18-7.08-2.11-10.56c-0.28-1.06-0.24-2.22-0.25-3.34c-0.01-1.28,0.11-2.55,0.14-3.83
		c0.01-0.66,0.09-1.29,0.51-1.81c0.97-1.21,1.35-2.71,2.08-4.04c0.23-0.41,0.47-0.89,0.48-1.34c0.1-3.53,1.69-6.82,1.61-10.37
		c0.97-1.92,0.02-4.1,0.84-6.06c0.3-0.72-0.65-1.24-0.65-2c0.64-0.44,1.43-0.73,1.76-1.63c-0.06-0.94-0.88-1.41-1.5-1.98
		c-1.23-1.14-1.62-2.28-1.1-4.04c0.55-1.85-0.1-3.78-1-5.5c-0.59-1.13-1.36-2.15-2.06-3.23c0.49-1.05,1.71-0.16,2.3-0.89
		c0.05-0.59-0.39-0.82-0.8-1.07c-2.24-1.35-3.5-3.46-4.32-5.83c-0.19-0.55-0.39-0.96-0.76-1.37c-1.4-1.54-3.47-2.22-4.86-3.8
		c-0.3-0.34-1.04-0.32-1.58-0.42c-0.73-0.14-1.15-0.55-1.18-1.29c-0.05-1.2-0.43-2.35-0.36-3.57c0.14-2.49-0.29-4.93-0.84-7.35
		c-0.45-2-0.77-4.03-1.17-6.15c1.12-0.27,2.05-0.23,2.97-0.08c0.28,1.2-1.41,1.03-1.32,2.18c1.85,0.58,3.79,0.89,5.76,1.08
		c2.03,0.2,3.49-1.51,5.41-1.6c0.63,0.84,0.34,1.59,0,2.32c-0.75,1.6-1.68,3.08-2.89,4.39c-0.62,0.67-1.28,1.32-1.79,2.35
		c3.06-0.02,4.85-2.34,7.38-3.17c1.15,2.89,1.91,5.75,0.5,8.72c0.69,0.71,1.6,0.2,2.47,0.66c0.12,0.99,0.62,1.8,1.67,2.46
		c3.13,1.97,5.86,4.39,7.83,7.61c0.74,1.22,1.7,2.33,2.68,3.37c2.81,2.97,5.08,6.37,7.49,9.64c1.52,2.06,2.36,4.53,3.33,6.89
		c0.91,2.21,1.65,4.5,2.4,6.78c1.62,4.98,3.76,9.67,7.17,13.71c0.09,0.1,0.08,0.29,0.12,0.43c-1.26,0.53-2.37-0.73-3.84-0.35
		c1.72,2.04,4.1,2.52,6.44,3.41c-1.23,1.45-2.85,1.24-4.41,1.68c0.89,1,2.21,1.08,2.87,2.17c0.62,1,2.05,1.09,3.04,1.78
		c-1.06,1.58-2.85,0.42-4.01,1.32c0.04,0.28,0,0.57,0.12,0.73c1.62,2.18,3.29,4.32,4.89,6.51c1.05,1.44,2.5,2.46,3.76,3.68
		c0.47,0.45,1.06,0.79,1.7,0.83c1.02,0.07,1.8,0.25,2.16,1.4c0.17,0.53,1.11-0.03,1.53,0.77c0.07,0.8-0.58,1.44-1.13,2.1
		c-0.51,0.61-1.15,1.12-1.67,1.72c-1.02,1.17-2.27,1.68-3.83,1.59c-0.83-0.05-1.81-0.29-2.36,0.72c-0.04,0.86,0.68,1.24,1.2,1.66
		c1.23,0.99,1.91,2.16,2.31,3.74c0.54,2.16,1.77,4.08,3.28,5.81c-0.71,1.2-0.75,2.49-0.19,3.87c0.93,2.3,1.73,4.64,2.68,6.93
		c0.98,2.37,1.75,4.8,2.42,7.27c0.86,3.17,2.18,6.17,3.36,9.23c1.07,2.77,3.09,4.76,5.25,6.66
		C288.03,405.34,288.33,405.47,288.88,405.81z"/>
	<path class="st0" d="M386.94,473.24c1.44-1.19,2.16-2.87,3.6-4.23c0.71,2.06-0.04,3.94-0.18,5.83c-0.15,2.02-0.87,3.88-1.69,5.71
		c-0.8,1.79-2.17,3.23-3.09,4.98c2-0.8,2.78-2.85,4.49-4.27c0.49,1.45,0.32,2.8,0.24,4.08c-0.17,2.82-1.07,5.32-3.69,6.86
		c-0.26,0.15-0.5,0.39-0.69,0.63c-0.56,0.71-1.1,1.45-1.93,2.56c1.87-0.46,2.41-1.93,3.59-2.47c-0.37,1.18-0.61,1.45-2.15,2.69
		c-0.89,0.71-1.97,1.23-2.83,2.59c1.97-0.39,3.08-1.71,4.9-2.15c-1.63,4.27-4.78,7.06-7.77,9.93c-3.02,2.91-6.67,4.85-10.87,6.17
		c0.82,0.83,1.69,0.13,2.53,0.64c-1.63,1.4-3.67,1.82-5.4,2.8c-1.81,1.03-3.83,1.58-5.8,2.24c-1.89,0.63-3.76,1.35-5.63,2.04
		c-1.94,0.71-3.89,1.39-5.82,2.13c-1.88,0.73-4.03,0.66-5.93,1.84c1.45,0.76,2.63-0.45,4.04-0.1c-3.23,3.34-7.42,4.14-11.58,4.73
		c-4.11,0.59-8.24,0.3-12.65-1.38c0.94,1.99,2.47,2.76,3.43,4.03c-0.15,0.65-0.77,0.73-1.25,0.97c-4.35,2.16-9.01,3.16-13.79,3.79
		c-1.58,0.21-3.14,0.57-4.68,0.99c-2.05,0.56-4.12,0.42-6.19,0.39c-0.39-0.01-0.77-0.14-1.02-0.58c0.72-0.8,1.48-1.5,2.46-2.05
		c1.51-0.85,2.66-2.19,3.81-3.47c0.49-0.55,0.29-1.41,1-1.99c0.99-0.81,1.79-1.77,3.2-1.88c0.44-0.03,0.9-0.31,1.19-0.69
		c0.42-0.7-0.3-0.99-0.5-1.53c0.29-0.41,0.61-0.86,0.91-1.29c-0.39-1.42-0.39-1.42,0.28-2.37c-0.26-0.28-0.52-0.56-0.84-0.89
		c1.02-0.74,2.41-0.9,3.08-2.08c-0.38-0.77-1.05,0.15-1.22-0.07c-0.41-0.33-0.41-0.46-0.34-0.62c0.28-0.69,0.92-1.1,1.33-1.68
		c0.5-0.7,0.42-0.95-0.54-1.91c0.06-0.61,0.65-0.88,0.9-1.37c0.83-1.55,2.12-2.23,3.86-2.37c0.79-0.06,1.83,0.04,2.25-1.01
		c-0.5-0.99-1.45-0.83-2.39-0.93c0.97-1.04,2.77-0.69,3.39-1.92c0.04-1.06-1.09-1.13-1.12-1.92c0.25-0.41,0.78,0.12,1.02-0.37
		c-0.35-1.13-1.26-1.73-2.26-2.11c0.03-0.76,0.6-0.82,1-1.02c1.5-0.75,3.01-1.45,4.52-2.18c0.6-0.29,1.09-0.67,1.12-1.41
		c-0.14-0.78-1.05-0.65-1.51-1.36c0.76-2.29,3.04-3.77,3.91-6.3c-0.92-0.16-1.41,0.74-2.24,0.71c0.16-1.6,1.03-2.91,1.74-4.24
		c-0.56-0.4-0.9-0.12-1.23,0.07c-0.49,0.28-0.93,0.63-1.42,0.89c-2.55,1.38-3.92,0.65-4.42-2.37c0.63-0.51,1.43,0.14,2.07-0.31
		c0.48-0.92,0.61-1.04,1.9-1.7c0.34-0.96-0.74-1.33-0.89-2.14c0.42-0.71,1.26-0.84,1.92-1.24c0.69-0.41,1.35-0.82,1.82-1.51
		c0.43-0.64,0.05-1.02-0.32-1.52c0.66-1.22,2.02-2.03,2.33-3.56c-0.04-0.57-0.92-0.36-1.02-1.07c-0.08-0.62,0.39-0.82,0.55-1.23
		c0.69-1.8,1.58-3.47,3.08-4.94c-1.64-0.56-2.65,0.83-4.2,0.81c1.19-1.78,2.61-3.22,3.84-4.8c0.34-0.44,0.66-0.96,1.12-1.23
		c0.74-0.44,0.39-1.1,0.46-1.61c0.53-0.68,1.71-0.21,1.97-1.27c-0.61-1.01-1.59-0.75-2.81-0.63c0.9-1.57,3.07-2.2,2.71-4.24
		c-0.38-0.53-0.95-0.02-1.38-0.33c0.11-0.6,0.19-1.22,0.66-1.8c0.85,0.18,1.14,1.35,2.3,1.27c-0.06-2.32-0.1-4.62-1.7-6.61
		c0.75-0.35,0.94,0.25,1.26,0.49c0.4,0.29,0.76,0.59,1.29,0.47c0.2-1.21,0.2-1.21-1.2-3.3c1.13-0.41,1.38-0.94,0.82-1.76
		c-0.55-0.81-1.42-1.28-2.26-1.97c1.33-1.45,3.77-2.15,3.33-4.8c1.98-1.11,3.9-2.26,5.88-3.29c2.97-1.55,5.71-3.53,8.86-4.75
		c0.37-0.14,0.7-0.39,1.08-0.52c3.45-1.17,6.91-2.33,10.83-3.65c-1.94,2.41-4.26,3.56-6.46,4.81c0.47,0.87,0.92,0.46,1.31,0.33
		c2.03-0.71,4.03-1.49,6.19-1.83c1.12-0.18,2.23-0.15,3.34-0.21c3.18-0.18,6.36-0.62,9.56-0.43c1.71,0.1,3.32-0.43,4.96-0.75
		c0.94-0.18,1.85-0.49,3.03-0.25c-1.35,1.74-3.54,2.04-5.3,3.52c1.67,0.41,2.59-0.64,3.66-1.06c1.18-0.46,2.22-1.25,3.74-1.59
		c-0.32,2.22-0.62,4.29-0.93,6.36c-0.3,2.01-1.69,3.73-1.76,5.93c1.65,0.03,1.86-1.49,2.7-2.12c0.37,0.07,0.48,0.27,0.49,0.52
		c0.22,5.34,0.71,10.68,0.52,16.04c-0.08,2.23,0.04,4.47-0.34,6.69c-0.61,3.53-0.49,7.17-1.59,10.63c-0.29,0.91-0.55,1.83-0.84,2.74
		C386.45,472.05,386.26,472.58,386.94,473.24z"/>
	<path class="st0" d="M157.85,66.27c-0.5,0.03-0.6,0.44-0.75,0.8c-0.43,1.01-0.86,2.01-1.39,3.27c-0.85-1.91,0.2-3.49-0.01-5.13
		c-0.2-1.6,0.43-3.3,0.58-4.96c0.15-1.67,0.17-3.34,0.47-5c0.28-1.57,0.4-3.17,0.69-4.74c0.3-1.64,0.77-3.26,1.05-4.9
		c0.27-1.6,1.29-3.05,1.05-5.07c-2.74,1.62-4.62,3.92-7.43,5.92c1.23-2.28,2.62-3.85,4.04-5.33c1.54-1.61,2.88-3.41,4.67-4.81
		c1.69-1.32,3.6-2.29,5.25-3.47c-0.07-0.68-0.35-0.96-0.81-0.9c-0.55,0.07-1.08,0.24-1.62,0.39c-4.37,1.24-8.74,2.51-13.13,3.69
		c-1.13,0.3-2.33,0.34-3.4,0.49c-0.48-0.55-0.18-0.84,0.1-1.13c1.06-1.12,2.36-1.92,3.71-2.61c6-3.09,12.28-5.4,18.89-6.77
		c2.1-0.44,4.24-0.44,6.25,0.56c0.23-0.72-0.22-0.87-0.53-1.02c-3.28-1.65-4.91-4.68-6.52-7.74c-0.28-0.53,0.34-0.61,0.47-0.93
		c-0.22-0.82-1.34-0.9-1.49-2c2.54,0.7,4.58,2.31,6.95,3.16c2.3,0.82,4.55,1.77,7.13,2.78c-0.81-2.48-2.16-4.4-2.38-7.09
		c2.47,2.98,3.38,6.67,6.79,8.51c-0.09,2.61,0.46,5.17,1.14,7.72c0.44,1.66,1.12,2.43,2.79,2.54c1.2,0.08,2.39,0.12,3.59,0.17
		c1.12,0.06,2.2,0.27,3.24,0.75c0.6,0.27,1.13,0.57,1.52,1.11c2.5,3.43,5.4,6.51,8.15,9.73c3.73,4.36,5.76,9.52,7.3,14.94
		c0.63,2.23,1.35,4.43,1.73,6.72c0.17,1.01,0.47,1.98,0.98,2.93c0.69,1.27,0.71,2.77,0.87,4.2c0.27,2.52,1.1,4.93,1.51,7.48
		c-0.93-0.88-1.29-1.69-1.57-3.4c-0.38-2.34-1.57-4.42-1.87-6.79c-0.18,0.03-0.36,0.06-0.54,0.09c-0.01,1.85-0.01,3.69-0.03,5.54
		c-0.02,2-0.09,4-0.09,6c0,1.88-0.21,3.77,0.29,6.07c0.52-1.49,0.18-2.63,0.45-3.91c1.02-0.29,1.99-0.92,2.87-1.8
		c-0.14,1.47-0.54,2.81-1.25,3.98c-0.97,1.63-1.23,3.25-0.6,5.05c0.69,0.55,1.31,0.16,1.97-0.12c0.57-0.23,1.05-0.77,1.94-0.53
		c-1.04,4.29-4.73,6.37-7.72,9.22c1.65,0.67,2.93-1.18,4.52-0.23c-0.64,1.19-2.29,1.04-2.96,2.11c0.33,0.55,0.67,0.32,1,0.11
		c0.81-0.5,1.62-1.02,2.45-1.48c0.26-0.14,0.6-0.13,1.04-0.21c-0.5,2.04-2.18,3.19-3.07,4.88c0.91,0.73,1.35-0.65,2.09-0.35
		c-0.43,1.98-1.6,3.83-4.77,7.51c-0.05,0.41,0.33,0.48,0.6,0.74c-1.22,1.63-3.06,2.17-4.9,2.76c-0.49,0.6,0.47,1.65-0.58,2.08
		c-0.74,0.31-0.89,1.06-1.41,1.8c-1.01-0.19-2.08-0.41-3.17-0.58c-2.6-0.42-5.2-0.81-7.8-1.21c-1.13-0.18-2.2,0-3.28,0.37
		c-0.96,0.32-1.89,0.83-2.98,0.73c-0.35-0.03-0.78,0.2-1.07,0.44c-3.13,2.57-6.82,4.12-10.47,5.7c-1.4,0.61-2.76,1.2-3.99,2.11
		c-0.56,0.41-1.1,0.97-1.91,0.87c0.07-0.27,0.39-0.47,0.21-0.93c-1.44,0.8-2.99,0.96-4.6,0.87c-2.23-0.12-4.1,1.08-5.31,3.32
		c0.75,0.03,1.06-0.63,1.54-0.99c1.23-0.93,2.49-1.7,4.17-1.36c1.5,0.3,2.81-0.34,4.09-1.01c0.03,0.69-0.35,1.27-0.7,1.75
		c-2.32,3.17-3.85,6.77-5.74,10.18c-1.01,1.82-2.12,3.57-3.33,5.26c-0.98,1.37-2.18,2.51-3.54,3.53c-3.02,2.25-6.21,4.19-9.72,5.57
		c-0.88,0.35-1.86,0.53-2.19,1.64c-0.05,0.18-0.34,0.32-0.55,0.43c-3.97,1.99-6.98,5.25-10.45,7.91c-0.43,0.33-0.78,0.8-1.39,0.8
		c-0.5-0.38,0.29-0.86-0.16-1.28c-0.77,0.93-0.75,2.27-1.63,3.11c-0.46,0.44-0.99,0.79-1.56,1.23c-0.87-0.83-0.76-1.77-0.34-2.62
		c1.8-3.73,2.59-7.85,4.7-11.49c1.14-1.97,2.67-3.55,4.03-5.3c0.88-1.13,1.88-2.19,2.54-3.46c0.42-0.8,0.95-1.18,1.76-1.41
		c0.98-0.28,1.92-0.69,2.97-1.08c-0.89-0.79-1.6,0.38-2.38-0.04c0.34-0.92,1.6-0.86,2.01-1.84c-0.88-0.5-1.41,0.68-2.31,0.38
		c0.97-1.85,2.18-3.42,3.71-4.68c1.6-1.33,3.55-1.85,5.6-1.54c1.37,0.21,2.58-0.14,4.09-0.49c-1.48-0.87-3.01,0.03-4.14-0.93
		c-0.27,0.22-0.06-0.46,0.08-0.17c0,0.01,0.16-0.02,0.21-0.07c0.1-0.1,0.16-0.22,0.27-0.37c-1.94-0.84-4.17-1.16-5.63-3.28
		c1.28-0.44,2.53-0.24,3.73-0.22c1.37,0.02,2.72-0.1,4.03-0.43c1.15-0.28,2.54,0.5,3.64-0.87c-2.39-0.52-4.7-0.72-7.01-1.79
		c1.84-1.13,3.58-0.65,5.29-0.61c1.68,0.04,3.09,1.21,4.74,1.23c0.27-0.47-0.28-0.62-0.2-0.95l-0.04,0.05
		c0.42-0.44,0.54-0.9,0.39-1.53c-0.37-1.55-0.68-3.12-0.99-4.68c-0.12-0.61-0.18-1.24-0.3-2.06c1.38,0.51,2.18,1.65,3.47,1.84
		c1.35,0.2,2.22-1.2,3.38-0.81c0.51-0.65-0.04-1.56,1.03-1.64c0.41-0.03,0.35-0.63,0.41-1.01c0.18-1.1,0.37-2.19,0.6-3.28
		c0.75-3.64,2.84-6.52,5.5-9.53c-0.15,3.46-1.55,6.41-1.38,9.63c0.87-0.67,0.9-1.58,0.97-2.41c0.27-3.14,1.51-5.82,3.56-8.2
		c0.72-0.84,1.27-1.83,1.9-2.75c0.36-0.52,0.37-1.3,1.44-1.17c0.46,0.05,0.75-0.95,0.96-1.54c1.12-3.15,2.68-6.15,3.29-9.48
		c0.04-0.22,0.23-0.4,0.47-0.8c1.3,2.61,1.21,5.27,1.2,7.91c-0.01,2.73-1.07,5.23-2.04,8.09c1.42-0.86,1.66-2.01,1.85-3.02
		c0.74-3.82,3.35-6.45,5.69-9.26c0.2-0.24,0.45-0.46,1.06-0.35c1.55,5.48,3.87,10.77,6.59,15.63c0.79,0.3,1.19,0.03,1.64-0.19
		c0.08-0.69,0.24-1.4-0.4-1.96l0.05,0.07c0-1.15,0-2.31-0.01-3.46l-0.03,0.08c0.68-0.6,0.64-1.41,0.63-2.21
		c-0.03-3.26-0.08-6.52-0.11-9.77c-0.01-0.63-0.12-1.27,0.32-2.09c1.79-0.3,3.34-1.41,4.82-3.13c0.05,0.85,0.08,1.32,0.11,1.79
		c-0.77,0.71-1.01,1.64-1.03,2.65c0.66-0.77,1.24-1.57,0.99-2.69c0.63,0.12,0.32-0.92,1.1-0.75c1.01,1.81,1.83,3.79,2.48,5.84
		c0.63,1.99,0.82,4.14,2.17,6.47c0.15-1.78-0.1-3.06,0.37-4.2c-1.27-0.86-1.28-0.86-1.68-1.97c-1.57-4.37-3.51-8.55-6.05-12.46
		c-0.9-1.39-1.92-2.73-2.54-4.32c-0.4-1.02-1.33-1.56-2.51-1.49c-1.1-0.8-2.2-1.6-3.3-2.41c-0.47-0.78-1.09-1.36-2.03-1.49
		l0.08,0.06c-0.49-1.08-1.33-1.71-2.47-1.98l0.07,0.06c-0.75-1.23-1.63-2.28-3.19-2.45c-0.95-0.95-1.89-1.9-2.84-2.86
		c-0.58-1.22-1.34-2.32-2.22-3.36c-2.26-2.69-4.13-5.65-6.03-8.6c-0.99-1.53-1.75-3.22-3.22-4.41c-0.34-0.27-0.49-0.8-0.67-1.24
		c-0.23-0.54-0.54-0.96-1.26-1.16c-2.23,2.51-3.57,5.72-5.78,8.25c-2.22,2.53-3.36,5.75-5.59,8.22c-2.31,2.56-3.79,5.68-5.79,8.43
		c-0.55-0.11-0.31-0.48-0.33-0.75c0.41-0.82,0.96-1.59,0.84-2.58c0.93-0.75,1.14-1.79,1.26-2.87c-0.69,0.86-1.17,1.8-1.2,2.92
		C158.01,64.41,157.61,65.24,157.85,66.27z M200.76,48.04c0.41-0.84,0.23-1.65-0.2-2.43c-0.04,0.8-0.35,1.63,0.26,2.37
		c-0.01,0.93-0.01,1.86,0.4,2.73C201.36,49.78,201.83,48.79,200.76,48.04z M201.9,51.95c-0.83,0.13-1.27-0.05-1.43-0.74
		c-0.13-0.54-0.32-1.07-0.52-1.59c-0.17-0.43-0.22-0.97-0.8-1.07c2.19,8.14,4.13,16.37,7.3,24.23c-0.77-3.39-2.05-6.67-2.63-10.06
		C203.21,59.19,201.71,55.85,201.9,51.95z M140.23,152.21c-1,1.48-2.68,2.59-2.49,4.67C138.55,155.31,140.45,154.34,140.23,152.21z
		 M198.3,46c-0.92-2.87-1.46-3.83-2.82-5.02C196.79,42.79,197.3,44.55,198.3,46z M158.79,135.98c1.26-0.89,2.73-1.65,2.69-3.7
		C160.09,133.32,159.42,134.64,158.79,135.98z M197.1,35.37c0.41,1.11,0.51,2.37,1.95,3.51C198.47,37.31,198.22,36.13,197.1,35.37z
		 M213.99,87.98c0.79-1.14,0.28-2.26,0-3.37C213.99,85.73,213.99,86.86,213.99,87.98z M146.76,146.05c-0.73,0.15-1.17,0.34-1.2,1.01
		C146.24,147.16,146.53,146.8,146.76,146.05z"/>
	<path class="st0" d="M159.32,281.77c0.61-0.49,1.22-0.99,1.86-1.51c0.7,0.87-0.43,1.57,0.13,2.52c0.52,0.88,1.74,0.37,1.86,1.55
		c-0.15,0.42-0.83,0.46-1.11,0.84c-0.43,1.28,0.43,1.99,1.13,2.85c-0.28,0.96-0.22,2.04-0.92,2.88c-0.51,0.61,0.22,1.22-0.07,1.83
		c-0.26,0.55,0.34,1.17,0.11,1.62c-0.8,1.52-0.4,3.07-0.31,4.63c0.01,0.16,0.04,0.35-0.03,0.47c-1.69,2.97-1.51,6.24-1.39,9.45
		c0.06,1.7-0.73,3.16-0.83,4.8c-0.16,2.55-0.3,5.1-0.25,7.66c0.02,1.07,0.56,1.99,0.87,3.02c-0.38,0.52-0.91,1.02-0.7,1.81
		c0.46,1.66,0.31,3.2-0.38,4.85c-0.84,2.03-0.46,4.21,0.17,6.29c0.28,0.95,1.11,1.86,0.26,2.91c0.26,1.49,0.45,2.99,0.79,4.46
		c0.29,1.26,0.65,2.45,0.08,3.74c-0.3,0.68-0.02,1.42,0.09,2.13c0.26,1.73,0.74,3.45,0.04,5.19c-0.08,0.2-0.04,0.47,0.01,0.7
		c0.39,2.02,0.8,4.03,1.2,6.09c-0.61,0.01-0.66-0.51-0.75-0.86c-0.48-1.93-0.91-3.88-1.38-5.81c-0.88-3.56-1.7-7.12-2.96-10.58
		c-1.01-2.78-1.42-5.73-1.9-8.64c-0.1-0.62-0.16-1.31,0.01-1.91c0.92-3.26,0.78-6.63,1.01-9.95c0.08-1.18,0.64-2.32,0.28-3.54
		c-0.53-0.32-0.64,0.3-0.77,0.32c-0.38,0.19-0.43,0.12-0.43-0.12c-0.04-1.84-0.11-3.67-0.14-5.51c-0.01-0.64,0.07-1.27-0.39-1.82
		c-1.13-1.33-1.81-3.02-3.29-4.04c0.1-0.75,0.95-1.2,0.59-2.21c-0.85-0.95-2.49-0.54-3.53-1.49c-0.44-0.97-0.15-1.79,0.66-2.43
		c-1.26-1.4-1.26-1.4-3.27-1.81c-0.45-0.7-0.17-1.54-0.36-2.3c-0.17-0.7-0.33-1.37-0.86-1.85c-0.75-0.05-0.89,1.17-1.61,0.8
		c-0.64-0.33-1.18-0.16-1.79,0.09c-0.68-1.7-2.41-2.79-1.71-4.87c-1.36,0.22-1.18,1.68-2.29,1.96c-0.42-0.65-0.24-1.38-0.25-2.06
		c-0.06-2.55-0.45-5.06-1.16-7.5c-0.32-1.11-1.05-2.1-0.81-3.35c0.03-0.14-0.02-0.36-0.11-0.45c-1.49-1.42-1.05-3.36-1.48-5.08
		c-0.56-2.23,0.09-4.37,0.08-6.55c-0.01-0.88-0.22-1.87,0.18-2.81c0.14-0.32-0.16-1.19-0.4-1.26c-0.87-0.23-0.9-0.83-0.84-1.46
		c0.22-2.25-0.3-4.45-0.53-6.66c-0.26-2.54-0.14-5.09-0.44-7.62c-0.05-0.39,0.09-0.83-0.05-1.18c-1.06-2.7-0.88-5.63-1.67-8.38
		c-0.28-0.98-0.54-1.99-0.11-3.03c0.18-0.44,0.24-0.98-0.09-1.38c-0.36-0.45-0.35-0.82-0.08-1.29c0.1-0.18,0.14-0.46,0.08-0.65
		c-0.58-1.95-0.61-4.68,0.03-6.75c0.26-0.85,0.42-1.62,0.12-2.54c-0.23-0.73-0.09-1.58-0.08-2.38c0-0.47-0.1-0.96,0.25-1.37
		c0.5-0.24,0.68,0.21,0.97,0.44c0.87,0.69,1.7,1.45,2.65,2.02c2.27,1.37,3.91,3.24,5.04,5.62c0.41,0.86,1.03,1.61,1.54,2.42
		c0.48,0.76,1.13,1.11,2.03,0.83c1.33-0.41,2.49-0.2,3.56,0.75c0.53,0.47,0.61,0.38,2.12,0.2c0.65-2.18-0.16-4.51,0.42-6.93
		c1.84,1.98,2.17,4.76,4.22,6.51c2.53-0.71,4.69-0.14,6.32,2.09c0.13,0.76-1.14,1.13-0.66,2.18c1.16-0.18,1.77-1.59,3.09-1.52
		c0.27,4.08-0.82,7.75-2.83,11.08c0.3,0.73,0.79,0.66,1.25,0.53c0.75-0.21,1.49-0.47,2.4-0.76c0,2.04-1.87,2.99-2.35,4.6
		c0.72,0.72,1.27-0.39,2.1-0.1c-0.52,1.55-1.04,3.05-1.52,4.56c-0.45,1.4-1.82,2.42-1.76,4.09c0.94,0.52,1.96-0.86,2.82,0.41
		c-0.28,0.94-0.99,2.02-0.26,3.24c0.14,0.23-0.59,0.88-0.51,1.25c0.4,1.75-0.85,3.27-0.75,4.8c0.13,1.94-0.64,3.54-1.08,5.28
		c0.39,0.61,1.22-0.15,1.63,0.59c0.35,0.64,0.17,1.2,0.15,1.83c-0.05,1.26-0.59,2.29-1.25,3.29c-0.7,0.72-1.39,1.43-2.17,2.23
		c0.81,1.02,0.56,2.26,1.01,3.32c-0.35,0.08-0.55,0.31-0.56,0.66c-0.11,3.74-0.26,7.49,0.18,11.22c0.18,1.5,0.5,3.14-0.17,4.49
		c-0.71,1.41-0.46,2.69-0.4,4.37c0.99-2.76,1.64-5.29,1.28-7.91c-0.34-2.46-0.3-4.93-0.36-7.4c-0.05-1.83-0.03-3.67-0.04-5.5
		C158.99,285.45,158.97,283.56,159.32,281.77z"/>
	<path class="st0" d="M145.45,329.34c-0.12,0.38,0.13,0.39,0.38,0.35c0.77-0.15,1.05-0.95,1.74-1.35c0.62,0.57,0.62,1.42,0.92,2.12
		c0.45,1.05,1.03,1.96,1.99,2.63c0.57,0.41,1.11,0.52,1.68,0.14c0.44,0.79,0.11,1.53,0.26,2.23c1.14,0.69,1.77,1.65,1.97,3.01
		c0.27,1.73,0.66,3.45,1.11,5.14c0.86,3.31,2.18,6.48,2.89,9.84c0.75,3.51,1.64,6.99,2.5,10.47c0.22,0.9-0.04,1.52-0.75,2.08
		c-1.94,1.51-4.15,2.4-6.54,2.77c-2.28,0.35-4.42-0.48-6.54-1.17c-2.1-0.68-4.27-1.18-6.53-2.63c0.37,0.85,0.52,1.19,0.67,1.53
		c-0.24,0.45-0.66,0.41-1.04,0.37c-2.66-0.29-4.76-1.45-6.43-3.64c-1.33-1.75-2.42-3.52-3.05-5.63c-0.33-1.12-0.48-2.24-0.14-3.3
		c0.45-1.41,0.43-2.82,0.48-4.26c0.07-2.22,0.81-4.21,2.26-5.89c0.27-0.31,0.55-0.56,0.59-0.98c0.21-2.33,1.58-4.1,2.92-5.85
		c0.4-0.52,0.25-1.04,0.47-1.56c0.36-0.03,0.72-0.06,1.15-0.1c-0.2-0.3-0.37-0.55-0.64-0.94c1.12-0.4,2.2-0.78,3.33-1.17
		c0.2,0.33,0.35,0.58,0.55,0.91c0.59-1.14,1.13-2.26,1.73-3.35c0.47-0.85,1-1.66,2.11-1.74L145.45,329.34z"/>
	<path class="st0" d="M234.95,56.22c-0.56,1.21-1.07,2.43-1.68,3.61c-0.56,1.09-1.07,2.26-2.32,3.12c1.85-6,1.86-6.06,1.54-10.81
		c-0.89,0.37-0.69,1.3-1.11,1.88c-0.48-1.86,0.64-3.7,0.08-5.52c-0.59-0.09-0.74,0.25-0.91,0.63c-1.26,2.85-2.71,5.6-4.61,8.09
		c-0.43,0.57-0.9,1.07-1.49,1.56c-0.22-0.91,0.25-1.5,0.55-2.12c1.29-2.6,1.85-5.22,0.58-8.03c-0.28-0.61-0.13-1.41-0.18-2.12
		c-0.03-0.47,0-0.98-0.57-1.21c-0.6-0.04-0.37,0.9-1.14,0.83c0.11-1.6,0.72-3.21,0.21-5.14c-1.46,1.93-2.1,4.25-4.22,5.41
		c-0.97-1.47,0.42-3.05-0.22-4.52c-1.09-0.46-0.88,1.27-1.85,1.05c-0.08-0.91,0.54-1.83,0.09-2.77c-0.84-0.05-0.75,0.72-1.09,1.09
		c-0.18,0.08-0.27,0.01-0.3-0.21c-0.25-2.05-0.92-4.05-0.84-6.14c0.04-1.07-1.02-1.66-1.17-2.75c-0.12-0.87-0.83-1.73-1.45-2.43
		c-2.08-2.34-3.55-5.1-5.33-7.65c-0.47-0.67-0.79-1.36-0.69-2.22c0.33-2.99-0.23-5.87-1.12-8.71c-0.09-0.3-0.19-0.62,0.11-1.07
		c2.63,2.72,3.93,6.12,5.27,9.47c0.34,0.05,0.37-0.18,0.41-0.39c0.04-0.22,0.08-0.45,0.15-0.88c1.71,2,2.55,4.16,2.66,6.58
		c0.06,1.42,0.32,2.78,0.74,4.19c0.04-2.51,1.62-3.87,3.48-5.05c1.59-1.01,2.99-2.3,4.86-3.26c-0.52,3.9-2.26,7.26-3.41,11.18
		c3.74-2.59,6.64-5.51,9.65-8.41c0.49,0.81-0.56,1.3-0.23,2.04c0.75-0.11,0.6-1.2,1.3-1.34c0.47,0.53,0.25,1.11,0.26,1.64
		c0.03,1.44,0.2,2.85,0.53,4.27c0.65,2.83,0.72,5.7,0.05,8.54c-0.29,1.21-0.84,2.36-1.34,3.73c1.28-0.77,1.62-1.93,1.87-2.98
		c0.49-2,1.61-3.61,2.68-5.36c0.82,0.33,0.97,1.04,1.13,1.71c0.52,2.17,0.91,4.38,0.98,6.61c0.03,0.86,0.29,1.51,1,2.04
		c-0.24,0.65-0.45,1.24-0.66,1.8c0.08,0.5,0.53,0.24,0.91,0.56c0.14,2.79,0.33,5.71-1.19,8.53c1.14,0.16,2.07,0.29,2.97,0.42
		c0.23,1.09-1.16,1.03-1.27,1.98c1.26,0.84,2.14-0.57,3.22-0.56c-0.43,3.9-0.64,4.22-3.36,4.8c-0.13-1.22,0.89-2.19,0.85-3.52
		c-1.72,0.12-2.31,1.73-3.63,2.38C235.45,59.24,235.92,57.73,234.95,56.22z"/>
	<path class="st0" d="M167.36,388.72c-0.32,0.6-0.63,1.16-0.91,1.73c-0.83,1.72-2.47,2.25-4.1,2.76c-0.78,0.24-1.44-0.21-2.1-0.56
		c-0.08,0.22-0.16,0.44-0.25,0.7c-0.58,0.02-0.57-0.95-1.26-0.77c-0.44,0.12-0.92-0.19-1.04-0.44c-0.82-1.61-2.53-2.12-3.78-3.2
		c-1.26-1.09-1.97-2.68-3.33-3.67c-0.36-0.26-0.48-0.6-0.58-0.99c-0.24-0.92-0.44-1.88-1.59-2.14c-0.12-0.03-0.22-0.22-0.29-0.36
		c-0.96-1.82-2.15-3.54-2.58-5.6c-0.2,0.06-0.41,0.12-0.61,0.16c-0.03,0.01-0.11-0.12-0.13-0.19c-0.8-2.69-1.97-5.29-2.28-8.28
		c1.91-0.11,3.53,0.7,5.24,0.87c0.39,0.04,0.78,0.17,1.16,0.3c3.96,1.3,7.55,0.39,10.91-1.85c0.46-0.31,0.89-0.68,1.57-0.75
		c0.63,1.8,0.78,3.7,0.93,5.58c0.13,1.67,1.22,5.62,1.77,7.32C165.11,382.44,166.83,385.27,167.36,388.72z"/>
	<path class="st0" d="M199.07,69.49c1.1,0.8,2.2,1.6,3.3,2.41c0.68,0.66,0.78,1.48,0.79,2.39c0.03,7.38,0.1,14.76,0.15,22.14
		c0.01,1.27,0,2.54,0,3.8c0,0,0.03-0.08,0.03-0.08c-0.77,1.16-0.52,2.31,0.01,3.46l-0.05-0.07c-0.08,0.13-0.17,0.26-0.37,0.59
		c-1.01-1.91-0.95-4.01-1.68-5.86c-0.67,0.07-0.18,0.74-0.55,0.94c-2.06-2.8-13.12-32.01-14.02-39.86c0.96,0.2,1.47,0.88,2.02,1.48
		c0.95,0.95,1.89,1.9,2.84,2.86c0.94,0.97,1.74,2.13,3.19,2.45l-0.07-0.06c0.49,1.08,1.34,1.71,2.47,1.98L197.04,68
		C197.47,68.84,198.03,69.5,199.07,69.49z M199.9,93.3c-0.04-1.03,0.33-1.62-0.33-2.03C199.46,91.81,199.42,92.34,199.9,93.3z"/>
	<path class="st0" d="M199.64,583.82c0.38-0.91,1.03-1.07,1.81-1.06c5.34,0.04,10.7-0.26,16.01,0.53c1.97,0.29,3.79-0.03,5.58-0.73
		c1.55-0.6,3.1-1.13,5.05-1.32c-0.93,0.97-1.74,1.54-2.8,1.75c-5.48,1.05-10.99,1.87-16.59,1.82c-2.31-0.02-4.61-0.24-6.91-0.38
		C201.07,584.37,200.36,584.26,199.64,583.82z"/>
	<path class="st0" d="M167.13,581.87c3.1,0.41,5.95,1.17,8.75,1.05c3.09-0.14,6.42,0.3,9.23-1.7c0.19-0.14,0.43-0.21,0.66-0.29
		c1.52-0.53,1.69-0.46,2.86,1.26c-1.88,0.94-3.9,1.35-5.89,1.71c-3.03,0.55-9.89,0.4-13.03-0.07
		C168.69,583.69,168.61,583.64,167.13,581.87z"/>
	<path class="st0" d="M237.2,580.41c1.98-0.19,3.93-0.52,5.91-0.64c2.07-0.13,4.08-1.13,6.24-0.73c1.48-0.72,3.08-0.68,4.68-0.81
		c1.25-0.1,2.47-0.58,3.7-0.91c1.91-0.51,3.98-0.38,5.75-1.49c0.37-0.23,0.9-0.12,1.22,0.33
		C261.21,578.2,243.29,581.04,237.2,580.41z"/>
	<path class="st0" d="M173.81,554.95c-2.37,0.3-4.71,0.29-6.99-0.35c-0.85-0.24-1.61-0.69-1.37-1.82c0.51-0.13,0.75,0.22,1.06,0.45
		c1.17,0.89,2.36,1.42,3.96,1.16C171.53,554.21,172.78,554.27,173.81,554.95z"/>
	<path class="st0" d="M163.03,126.09c-2.01-0.43-3.02-2.04-4.16-3.5c1.76,0.73,3.04,2.02,4.12,3.55L163.03,126.09z"/>
	<path class="st0" d="M145.49,329.36c-0.17-0.27-0.35-0.53-0.52-0.8c-0.04-0.06-0.06-0.14-0.08-0.21c0.17-0.62,0.66-0.82,1.24-0.93
		c0.35,0.85-0.46,1.28-0.68,1.92L145.49,329.36z"/>
	<path class="st0" d="M163.59,576.18c-0.76,0.63-1.29-0.12-1.87,0C162.32,575.94,162.91,575.74,163.59,576.18z"/>
</g>
</svg>
