<?xml version="1.0" encoding="utf-8"?>
<!-- Generator: Adobe Illustrator 24.1.1, SVG Export Plug-In . SVG Version: 6.00 Build 0)  -->
<svg version="1.1" id="Layer_1" xmlns="http://www.w3.org/2000/svg" xmlns:xlink="http://www.w3.org/1999/xlink" x="0px" y="0px"
	 viewBox="0 0 3428.59 1236.57" style="enable-background:new 0 0 3428.59 1236.57;" xml:space="preserve">
<style type="text/css">
	.st0{fill:#1A1A1A;}
</style>
<g>
	<path d="M2954.77,143.03c0.47,1.52,0.42,2.2-0.82,3.16c-7.04,5.44-14.87,9.31-22.93,13c-10.84,4.98-21.8,9.49-33.21,12.95
		c-11.51,3.5-22.79,7.79-34.58,10.33c-5.56,1.2-11.19,2.04-17.24,3.13c1.69,1.99,4.05,2.67,5.92,3.14
		c11.85,3,23.12,7.83,35.01,10.71c11.37,2.76,22.43,6.99,33.9,9.11c9.29,1.72,18.68,3.67,28.3,3.55c5.42-0.07,10.82,1.28,16.3,0.92
		c9.42-0.62,18.92-0.46,28.28-1.23c16.1-1.33,32.08-3.86,47.92-7.4c13.03-2.91,26.14-5.56,38.9-9.46
		c15.4-4.7,31.13-8.21,46.43-13.24c12.51-4.11,25.34-7.33,37.71-11.82c13.33-4.83,26.84-8.96,40.56-12.38
		c19.58-4.89,39.15-9.8,58.83-14.26c5.05-1.14,10.22-2.46,15.54-2.2c0.69,0.03,1.31,0.17,2.05,1.23c-0.94,4.38-4.85,6.88-8.1,9.51
		c-7.49,6.06-15.12,12.01-23.16,17.29c-6.5,4.27-13.37,8.01-19.98,12.16c-13.87,8.7-28.36,16.18-44.02,21.11
		c-14.61,4.59-29.51,8.06-44.6,10.76c-7.84,1.4-15.55,3.55-23.35,5.25c-9.09,1.99-18.31,3.25-27.49,4.75
		c-7.61,1.24-15.43,0.71-22.91,2.83c-0.47,0.13-0.99,0.07-1.49,0.07c-16.27,0.01-32.53,2.03-48.79,0.87
		c-8.33-0.59-16.72-0.09-24.95-1.08c-6.99-0.84-13.88-0.39-20.96-0.87c1.59,3.42,4.93,2.36,7.11,2.78
		c20.96,4.03,41.69,9.18,62.59,13.51c11.71,2.43,23.54,3.85,35.32,5.53c8.9,1.27,18.03,1.69,27.04,2.48
		c15.79,1.38,31.57,0.98,47.31,0.55c11.77-0.32,23.59-0.02,35.29-0.97c9.37-0.77,18.8-0.39,28.12-1.8
		c11.35-1.72,22.9-1.78,34.21-3.92c2.09-0.4,4.37-0.37,6.48-0.02c7.29,1.2,14.15-1.73,21.19-2.51c4.02-0.44,8.19-1.39,12.36-1.51
		c3.36-0.09,5.92-2.84,9.65-2.19c3.08,0.54,6.67,1.08,9.4-1.67c0.1-0.1,0.33-0.14,0.47-0.11c6.11,1.3,11.6-3.09,17.61-1.99
		c2.98,0.55,4.88-1.58,7.38-2.14c12.23-2.75,24.55-5.19,36.72-8.14c16.28-3.95,32.55-8,48.77-12.2c3.27-0.85,6.4-0.42,9.72-0.15
		c-4.47,3.6-8.93,7.1-14.11,9.39c-9.53,4.21-19.15,8.24-28.76,12.27c-14.27,5.99-28.57,11.89-42.83,17.87
		c-5.38,2.26-11.12,3.59-16.19,6.68c-1.71,1.04-4.28,1.51-5.87,1.64c-3.94,0.33-6.92,4.04-11.09,2.75c-0.4-0.12-1.19,0.05-1.38,0.35
		c-2.57,4.17-6.68,3.66-10.65,3.62c-0.69-0.01-1.41,0.12-1.75,0.75c-2.4,4.42-7.2,4.22-11.01,4.92c-3.73,0.69-7.09,1.62-10.62,3.04
		c-6.61,2.66-13.75,3.98-20.49,6.34c-6.67,2.34-13.51,3.91-20.44,4.62c-4.41,0.46-8.8,1.3-13.27,1.3c-19.16-0.02-38.33-0.03-57.49,0
		c-12.05,0.02-23.95-1.65-35.91-2.85c-8.18-0.82-16.36-1.71-24.57-2.31c-9.59-0.71-19.07-2.65-28.45-4.88
		c-15.84-3.77-31.87-6.7-47.59-10.97c-10.22-2.78-20.66-4.61-30.99-6.86c-1.9-0.41-3.97-0.06-6.95-0.06
		c13.8,5.84,27.35,9.45,40.48,14.24c14.53,5.3,28.84,11.33,43.71,15.47c19.73,5.5,39.23,11.96,59.53,15.4
		c7.17,1.22,14.05,4.13,21.29,5.3c9.19,1.49,18.33,3.25,27.54,4.62c11.04,1.65,22.16,2.49,33.23,3.65
		c5.86,0.62,11.78,1.68,17.78,1.27c10.62-0.72,21.24,0.55,31.78,1.27c11.47,0.78,22.9,0.64,34.32,0.51
		c5.21-0.06,10.35-0.51,15.61,0.04c3.58,0.38,7.1,0.74,10.5,1.55c0.41,1.99-0.37,2.81-1.98,3.63c-6.64,3.37-13.59,5.73-20.93,6.91
		c-12.15,1.96-24.23,4.03-36.66,4.28c-10.69,0.21-21.41,1.16-32.09,1.96c-12.33,0.93-24.66,2.5-36.98,1.67
		c-11.47-0.78-23.01-0.92-34.43-2.71c-3.71-0.58-7.56-0.8-11.29-0.97c-11.03-0.5-21.83-2.45-32.66-4.21
		c-15.45-2.51-30.52-6.69-45.53-11.04c-8.98-2.61-17.79-5.79-26.82-8.36c13.29,7,27.24,12.55,41.12,18.18
		c13.87,5.62,27.88,10.92,41.96,15.99c14.12,5.09,29.06,7.85,42.68,14.33c-0.05,0.44-0.09,0.89-0.14,1.33
		c-2.09,0.54-4.19,1.58-6.26,1.52c-6.71-0.21-13.3,2.3-20.15,0.26c-3.06-0.91-6.62-0.18-9.95-0.16c-9.41,0.06-18.53-2.07-27.76-3.49
		c-16.35-2.51-31.77-8.34-47.55-12.9c-1.32-0.38-2.59-0.8-3.85-0.54c-3.2,0.66-5.97-0.25-8.74-1.71c-2.37-1.24-4.74-2.58-8.03-2.95
		c1.54,3.22,5.37,3.54,6.23,6.85c-1.68,3-4.77,1.98-7.02,1.54c-9.1-1.76-17.99-4.37-26.86-7.16c-20.41-6.43-40.12-14.48-59.41-23.69
		c-5.59-2.67-11.17-5.43-16.98-7.52c-4.56-1.64-9.51-2.15-14.21-3.44c-14.62-4.02-29.55-6.63-44.36-9.71
		c-8.6-1.79-17.52-0.49-26.36,0.5c-10.94,1.22-21.51,3.96-32.15,6.35c-10.15,2.27-20.11,5.39-30.15,8.15
		c-3.97,1.09-7.95,1.89-12.12,1.77c-4.28-0.12-8.52,0.31-12.8,0.81c-9.8,1.15-19.44-0.84-28.97-3.07c-3.99-0.93-7.99-2.04-12.1-1.72
		c-2.75,0.21-5.32-0.57-7.73-1.33c-16.15-5.06-32.4-9.87-48.15-16.07c-8.65-3.4-16.85-7.95-25.24-11.98
		c-1.15-0.55-2.28-1.13-4.07-0.99c3.26,3.26,6.26,6.85,9.84,9.72c11.43,9.18,20.74,20.2,28.86,32.29c4.63,6.88,3.3,13.61-1.21,19.93
		c-7.3,10.24-12.94,21.57-20.74,31.45c-5.29,6.7-11.02,13.05-16.26,19.78c-7.97,10.24-17.71,18.81-26.27,28.45
		c-7.74,8.72-16.18,16.69-24.36,24.94c-2.28,2.3-5,4.27-7.39,6.54c-8.13,7.76-14.75,16.76-21.76,25.82c3.4,1.55,3.38,2.86,1.28,5.94
		c-7.17,10.49-16.28,19.13-25.26,27.89c-3.26,3.18-7.09,5.81-10.84,8.44c-1.39,0.98-2.49,2.13-3.94,3.58
		c1.79,1.68,2.38,3.17,0.43,5.63c-5.76,7.29-11.95,14.15-18.72,20.47c-10.59,9.88-21.88,18.89-36.1,22.95
		c-9.88,2.82-19.26,7.04-29.18,9.66c-0.46,0.12-0.87,0.44-1.13,1.24c14.42-0.22,28.39,1.94,43.14,3.71
		c-3.59,5.41-8.44,8.13-13.12,10.97c-13.25,8.04-27.12,14.85-41.56,20.48c-0.41,0.16-0.74,0.54-1.98,1.46
		c15.13-0.79,29.2-2.68,43.24-4.33c13.95-1.64,27.84-3.97,41.78-5.82c13.87-1.85,27.64-4.47,41.62-6.31
		c-3.32,4.69-8.07,6.85-12.51,9.31c-17.34,9.61-36.05,15.87-54.66,22.46c-19.19,6.79-38.51,13.1-58.27,17.95
		c-9.64,2.36-19.5,3.89-29.29,5.62c-12.25,2.16-24.58,3.71-36.93,5.2c-9.55,1.15-19.2,1.97-28.63,4.29
		c-0.32,1.97,1.6,2.08,2.53,2.38c10.32,3.27,19.92,8.11,29.6,12.85c8.93,4.37,18.16,8.04,26.9,12.87
		c10.72,5.93,21.26,12.09,31.59,18.68c12.11,7.73,24.17,15.5,35.93,23.74c8.2,5.74,15.85,12.17,23.44,18.7
		c6.58,5.67,13.63,10.78,20.14,16.53c4.94,4.37,10.02,8.54,15.04,12.8c11.85,10.04,22.9,21.01,34.56,31.24
		c11.19,9.82,22.21,19.76,33.01,30c5.65,5.35,11.07,10.96,16.9,16.12c9.68,8.55,18.98,17.5,28.44,26.27
		c7.79,7.22,16.7,13.28,24.68,20.26c17.95,15.71,38.25,27.97,57.76,41.4c12.37,8.51,25.49,15.8,38.67,23.04
		c22.45,12.32,46.47,20.48,70.69,28.17c11.15,3.54,22.59,6.26,34.12,8.37c11.7,2.15,22.92-0.49,34.27-3.5
		c10.17-2.7,18.89-7.25,26.11-14.69c2.95-3.04,5.48-6.53,7.9-10.03c0.9-1.29,1.52-1.91,3.31-1.32c-0.39,6.18-4.35,10.78-6.66,16.25
		c2.74,0.8,3.99-1.75,5.86-2.67c9.3-4.6,16.86-11.26,23.13-19.56c3.12-4.13,4.6-8.57,4.74-13.6c0.09-3.27-0.4-6.62,1.76-9.84
		c2.06,1.43,1.37,4.7,4.18,5.94c-1.95-7.81-7.11-13.22-12.05-18.77c0.98-1.46,2.18-1.38,3.03-0.56c1.44,1.39,3.36,2.01,4.72,3.55
		c3.84,4.35,8.28,8.08,13.22,11.83c-0.62-4.62-4.4-7.38-5.53-11.71c4.66,0.48,7.27,4.61,11.22,6.3c1.52-3.38,0.11-6.79-0.84-9.54
		c-2.76-7.95-4.34-16.37-8.94-23.68c-3.39-5.39-5.44-6.09-10.98-2.55c-0.68,0.43-1.13,1.25-2.07,1.22c-0.33-0.01-0.65-0.09-1.4-0.2
		c1.15-1.86,2.23-3.61,3.64-5.89c-7.56,3.37-13.77,7.8-20.08,11.94c-7.98,5.24-16.7,8.69-25.38,12.35c-0.71,0.3-0.73,0.26-2.4-1.15
		c5.34-5.34,11.58-9.71,16.65-15.33c1.14-1.26,1.95-2.81,3.35-4.87c-2.9,0.81-4.8,2-6.72,3.12c-12.24,7.17-24.84,13.79-36.34,22.12
		c-13.87,10.06-24.86,22.45-28.44,39.87c-1.3,6.33-1.13,12.86,0.05,19.24c0.37,2.01,0.51,3.99,0.16,5.9
		c-0.2,1.06-0.45,2.72-2.21,2.89c-1.63,0.16-2.81-0.27-3.61-1.91c-3.43-7.03-7.39-13.85-10.35-21.07c-2.79-6.81-6.88-13-9.18-20.02
		c-2.75-8.4-5-16.82-5.6-25.76c-0.54-8.03-1.87-16.02-1.87-24.11c0-4.11,2.03-8.09,0.47-13.14c-3.83,11.05-5.75,21.81-7.79,33.27
		c-2.58-3.77-2.61-7.7-3.61-11.27c-1.44-5.15-0.96-10.5-1.07-15.78c-0.29-14.57,4.49-27.93,9.54-41.27
		c3.75-9.91,11.04-17.69,15.8-26.91c6.01-11.62,16.91-16.83,27.15-23.13c8.29-5.1,17.41-7.96,27.33-10.28
		c-11.85-5.68-24.45-5.01-36.48-6.83c-0.41-1.4-0.41-2.12,1.11-2.79c4.44-1.97,9.26-1.86,13.86-2.89
		c6.36-1.42,12.76-3.38,19.19-3.59c9.17-0.3,18.26-2.86,27.6-0.7c3.34,0.77,7.06,0.91,10.86,0.68
		c-14.56-13.3-30.4-24.57-48.48-32.82c3.83-0.37,7.4-1.02,11.12,0.09c3.78,1.12,7.87,0.67,11.76,0.96c6.09,0.45,11.69,2.3,16.9,4.67
		c8.81,4.01,18.11,6.38,27.14,9.61c10.54,3.77,20.2,9.07,28.95,15.99c4.04,3.2,6.67,7.68,9.53,11.89c0.78,1.14,1.6,1.96,2.91,2.67
		c-1.49-10.13-3.78-19.98-6.29-29.85c-2.49-9.79-7.65-18.48-11.25-28.88c12.55,8.8,22.85,18.2,33.1,27.78
		c10.27,9.61,17.05,20.83,20.92,34.11c1.71,5.85,2.1,11.9,2.69,17.91c0.22,2.24,0.03,4.52,0.03,6.62c1.03,0.33,1.44-0.07,1.65-0.48
		c6.45-12.96,11.95-26.09,11.47-41.12c-0.35-11.05-0.54-22.05-3.04-32.88c-0.29-1.26-0.04-2.65,0.49-4.21
		c16.32,24.07,30.04,49.47,39.53,77.32c2.97-2.88,1.43-7.43,4.89-10.35c0,2.11,0.08,3.84-0.01,5.55
		c-0.68,12.77,1.42,25.4,2.23,38.09c0.58,9.1,1.04,18.05-0.11,27.13c-0.66,5.21-0.56,10.53-0.94,15.8
		c-1.03,14.19-4.67,27.59-10.05,40.67c-3.2,7.8-7.17,15.2-10.68,22.94c3.25-2.04,5.25-5.33,7.3-8.29c4.63-6.7,8.64-13.82,13-20.71
		c6.1-9.63,13.55-18.1,22.83-26.49c-1.59,9.41-1.99,17.89-1.52,26.35c0.51,9.17,1.58,18.3,2.73,27.42c0.59,4.69,0.6,9.53-0.39,14.35
		c-1.37,6.66-3.01,13.18-6.3,19.25c7.51-5.69,11.12-14.64,18.18-20.76c1.57,2.51,0.03,4.4-0.74,5.91
		c-3.76,7.42-5.59,15.62-9.56,22.93c-3.05,5.61-6.51,10.85-10.69,15.77c-9.08,10.68-20.95,17.44-32.79,24.09
		c-5.12,2.88-10.43,5.73-16.08,7.83c10.49-0.15,20.68-1.51,30.69-4.31c10.02-2.8,18.23-9.07,27.5-14.44
		c-3.22,8.59-27.47,27.24-42.06,33.22c-28.8,11.79-25.93,9.35-51.9,12.93c27.66,14.85,54.91,12.78,81.88-2.66
		c-12.95,10.92-27.88,17.33-43.86,22.02c-16.59,4.86-33.49,5.86-50.43,4.64c-16.63-1.2-32.32-6.85-47.63-13.67
		c7.28,7.61,16.22,12.72,25.32,18.17c-5.31,0.55-31.49-6.38-41.29-10.25c-13.04-5.15-26.35-9.64-38.92-16.37
		c1.66,6.13,6.52,9.92,9.76,14.78c-8.72,1.56-20.29-7.68-31.43-25.47c1.75,10.19,4.86,19.23,6.74,28.58
		c-14.71-13.62-22.96-30.64-27.3-50.73c-3.95,11.2-4.79,22.03-4.99,33.05c-4.4-4.41-3.2-10.3-4.05-15.45
		c-0.9-5.43-0.2-11.13-0.2-17.4c-2.86,2.03-4.96,3.52-7.1,5.04c-2.19-0.96-2.29-2.19-1.53-4.36c1.08-3.07,2.24-6.03,1.59-9.74
		c-1.31-7.52-5.87-11.09-12.63-12.89c-19.52-5.22-38.59-11.67-57.34-19.24c-13.34-5.38-26.17-11.72-38.99-18.15
		c-13.15-6.6-25.58-14.45-38.05-22.2c-13.02-8.09-26.13-16.1-38.49-25.2c-7.24-5.33-14.43-10.76-21.34-16.51
		c-8.85-7.35-17.71-14.68-26.44-22.19c-12.52-10.76-25.05-21.43-37.01-32.86c-10.33-9.88-21.37-19.09-32.26-28.4
		c-7.69-6.57-15.94-12.51-24.01-18.64c-10.55-8.03-21.21-15.88-32.06-23.46c-7.88-5.5-16.22-10.33-24.35-15.48
		c-0.58-0.37-1.15-0.84-1.78-0.41c-2.62,1.79-4.44-0.06-6.05-1.55c-1.49-1.37-3.42-2-4.78-3.45c-1.94,2.14-1.35,4.05,0.26,6.05
		c2.84,3.55,5.57,7.19,8,11.26c-11.47-4.36-20.96-12.1-32.26-18.61c2.49,4.29,4.68,7.76,6.47,12.81
		c-12.44-8.19-24.46-14.98-38.26-20.22c4.17,5.85,8.88,9.87,12.67,14.62c3.89,4.86,8.35,9.25,11.85,14.43
		c3.38,5.01,9.61,7.37,13.21,13.7c-10.4-1.59-15.64-9.51-23.16-13.91c2.43,4.92,4.48,9.96,6.85,14.81
		c6.24,12.73,8.77,26.04,7.84,40.11c-0.24,3.73-0.83,4.04-4.68,2.24c-1.43,6.06,1.6,11.53,2.03,17.26c0.5,6.58,4.54,9.6,10.36,11.1
		c12.63,3.25,21.96,11.08,29.89,21.09c7.52,9.49,14.38,19.48,21.95,28.91c6.19,7.7,13.07,14.74,21.18,20.64
		c3.8,2.76,7.24,6.24,10.78,9.47c7.41,6.75,15.56,12.54,24.36,17.25c4.8,2.57,10.1,4.04,15.87,2.83c3.16-0.66,6.57,0.32,9.76-1.02
		c0.8-0.34,1.56,0.35,2.14,1.44c-2.1,3.57-0.73,8.83-5.47,11.92c4.77,1.99,9.71,2.52,14.22,4.48c7.63,3.32,12.93,8.77,16.25,16.28
		c0.61,1.38,0.55,2.89-0.11,4.7c-2.77-0.6-4.77,0.8-6.11,3.17c-1.72-0.76-3.18-1.4-5.4-2.38c2.28,3.75,4.13,6.83,6.02,9.87
		c1.34,2.16,1.99,4.17-0.75,5.78c-1.39,0.82-1.2,2.19-1.32,3.52c-0.57,6.64,0.83,12.67,4.98,18.05
		c5.34,6.92,10.51,13.97,18.95,17.54c2.21,0.94,4.76,1.07,6.75,2.68c-1.68,1.55-2.27,1.87-4.64,2.4c3.1,2.25,5.91,4.46,8.9,6.38
		c1.23,0.79,2.65,1.7,1.92,2.95c-1.58,2.74,0.4,3.86,1.84,5.3c6.16,6.19,12.35,12.35,18.52,18.53c2.1,2.11,4.66,3.58,7.02,5.34
		c1.36,1.02,4.25,1.18,3.59,3.41c-0.67,2.27-1.43,5-4.04,6.16c-3.71,1.64-7.73,2.49-11.3,4.54c-6.53,3.74-10.6,9.1-11.46,16.69
		c-0.6,5.31,0.31,6.37,6.82,7.76c0.06,1.41-1.1,1.71-1.95,2.47c-5.6,5.05-11.36,9.94-14.13,17.39c-0.75,2.01-0.8,3.89-0.7,5.8
		c0.27,5.01-1.37,9.33-4.17,13.33c-4.44,6.35-8.86,12.73-16.24,16.1c-4.04,1.85-8.49,2.25-12.76,3.13c-1.86,0.38-2.8,1.12-3.75,2.47
		c-1.97,2.81-4.03,5.57-6.03,8.36c-1.21,1.69-1.19,1.7-3.84,2c-1.55-8.4,3.3-15.93,2.89-24.21c-6.13-0.92-10.91,2.39-15.51,6.37
		c-5.92,5.13-13.25,5.86-20.41,4.87c-3.73-0.52-7.55,0.08-10.74-1.09c-6.02,3.27-7.92,10.4-14.25,14.08
		c-0.96-9.31,2.67-16.53,5.87-24.63c-10.02,1.31-20.08,3.03-26.43-7.26c-6.02,2.35-8.82,7.16-11.66,11.99
		c-0.74,1.26-0.59,3.61-3.05,3.11c-1.96-0.39-2.39-2.35-2.76-3.78c-0.43-1.67-0.62-3.57,0.42-5.31c0.92-1.54,1.4-3.36,2.43-4.81
		c2.88-4.04,4.62-8.19,5.43-13.35c1.18-7.47,6.37-13.17,12.54-17.62c1.84-1.33,3.81-2.61,5.92-3.41c4.74-1.79,8.1-5.49,12.1-8.28
		c1.14-0.79,2.14-1.55,3.57-1.33c4.18,0.64,8.13-1.1,12.29-1.13c5.06-0.03,7.11-3.15,8.18-8.87c2.5-13.38,2.98-26.84,2.97-40.4
		c-0.01-16.3-3.45-31.8-9.68-46.77c-1.57-3.77-3.34-7.44-5.02-11.16c-4.39-9.71-12.18-15.98-20.67-21.75
		c-11.32-7.69-24.17-11.91-36.64-17.17c-18.84-7.94-38.68-12.55-57.89-19.22c-1.52-0.53-2.89-0.47-4.87-0.37
		c4.24,5.86,8.86,11.58,2.81,18.78c-2.46,0.81-3.05-2.57-5.94-2.91c3.62,8.25-4.36,12.36-6.26,18.78
		c-2.15,7.29-6.15,13.86-7.3,21.68c-1.57,10.69,3.53,24.74,12.73,29.21c1.66,0.81,3.18,1.63,3.58,3.66
		c-5.61,1.12-8.71,0.92-16.65-1.08c3.94,8,7.47,16.03,9.07,24.62c0.79,4.22,2.65,8.21,0.16,13.23c-1.93,3.89-0.55,9.48-0.43,14.3
		c0.06,2.35-0.49,4.14-3.32,5.66c-2.56-11.07-6.34-21.5-11.4-31.49c1.13,8.38,2.11,16.75,4.71,24.79
		c2.65,8.19,8.57,14.51,13.16,21.7c-5.26,1.46-6.31,0.9-18.84-9.86c-0.39,3.56,3.04,6.08,2.21,10.62
		c-4.36-4.19-8.5-7.49-11.48-12.36c1.18,4.22,1.47,8.16-2.01,11.13c0.56,2.87,2.66,5.22,1.62,8.27c-2.02-0.23-3.38-1.32-4.81-2.47
		c-9.22-7.45-17.74-8.95-27.73-2.06c-7.65,5.28-14.84,11.25-23.31,15.31c-2.99,1.43-5.85,1.67-9.05,0.75
		c-11.31-3.23-22.06-2.16-32.19,4.23c-2.43,1.54-5.3,2.57-8.38,2.35c-5.59-0.39-11.17,0.47-16.81-0.83
		c-3.82-0.88-6.93-2.82-10.12-4.65c-3.2-1.83-3.05-5.55-3.48-8.92c-3.98,0.29-7.13,2.25-10.5,4.19c-3.73,2.15-4.21,6.64-7.69,8.88
		c-2.93-1.46-2.92-3.8-2.21-6.57c1.33-5.17,4.58-9.01,8.6-12.5c-3.37-2.99-3.63-7.9-7.43-10.36c-6.33,0.97-11.97,3.11-15.58,8.83
		c-0.96,1.53-2.22,0.87-3.78,0.6c1.87-2.67,1.64-5.94,3.24-8.59c5.8-9.61,14.52-15.08,25.12-18.11c3.2-0.91,6.46-0.79,9.66-1.51
		c4.58-1.03,8.47-3.41,12.34-5.74c3.45-2.08,7.17-2.36,10.52-1.45c6.25,1.69,11.98-0.03,17.9-1.14c1.23-0.23,2.36-0.57,2.95-1.57
		c4.01-6.74,10.92-10.37,16.52-15.37c12.48-11.15,21.4-24.78,29.25-39.35c6.49-12.06,12.31-24.37,16.58-37.41
		c1.73-5.3,2.9-10.74,3.53-16.19c0.62-5.3-3.34-8.84-7.11-11.77c-8.18-6.36-17.62-10.47-27.06-14.62
		c-10.19-4.48-19.58-10.49-28.85-16.59c-13.77-9.06-27.38-18.36-42.08-25.9c-0.58-0.3-1.3-0.44-1.74-0.88
		c-6.57-6.49-12.9-13.21-18.07-20.89c-8.31-12.35-14.74-25.79-21.9-38.8c-6.4-11.62-10.32-24.25-13.96-36.95
		c-1.12-3.91-2.16-7.85-2.99-11.83c-0.35-1.7-0.88-3.05-2.69-2.88c-2.72,0.27-4.82-1.17-6.89-2.35c-6.73-3.84-14.17-4.75-21.61-5.7
		c-4.22-0.54-8.51-1.24-12.51-2.3c-6.67-1.78-12.43,0.34-18.01,2.73c-9.44,4.04-19.17,7.45-28.2,12.45
		c-5.52,3.05-10.92,5.86-14.53,11.59c-2.69,4.29-7.61,6.61-11.96,9.23c-1.37,0.82-3.07,1.1-4.39,2.8c1.82,1.12,4.64-0.6,5.69,2.65
		c-2.66,4.49-7.84,5.97-12.61,7.77c-8.53,3.23-17.39,4.68-26.57,4.11c-2.02-0.12-4.33-0.88-6.51,1.23c2.52,3.7,1.67,7.94,1.71,12.13
		c-2.09,1.02-3.4,0.3-5.02-0.88c-7.26-5.29-15.08-9.03-24.45-8.63c-3.07,0.13-5.61,1.75-8.54,2.09c-5.2,0.61-10.38,1.39-15.58,1.95
		c-1.42,0.15-2.5,0.43-3.29,1.72c-3.52,5.72-9.33,7.22-15.39,8.33c-8.35,1.53-16.1,0.06-23.62-3.83c-1.48-0.77-3.53-2.11-5.6-0.81
		c-0.92,7.71,6.64,10.42,9.74,15.61c-2.18,2.97-4.95,3.31-7.8,2.96c-3.53-0.43-4.75,1.7-5.33,4.48
		c-4.39,21.14-10.85,41.49-20.57,60.92c-7.19,14.38-13.04,29.47-16.76,45.24c-3.89,16.47-8.12,32.88-11.44,49.46
		c-0.99,4.95-2.59,9.38-4.7,13.79c-3.67,7.67-4.92,15.44-1.82,23.72c1.24,3.31,2.03,6.83,2.34,10.49
		c0.61,7.07,6.33,12.89,14.51,13.77c14.33,1.54,21.19,10.88,25.82,23c0.73,1.92,1.11,3.78-0.56,5.82c-3.52-2.61-6.9-5.3-10.47-7.71
		c-3.24-2.19-6.03-3.08-10.62-1.35c-9.26,3.49-19.08,3.97-28.7-0.5c-5.77-2.68-7.29-8.13-9.88-12.9c-0.65-1.19-1.03-2.72-1.6-4.07
		c-1.93-4.55-4.86-5.6-9.06-2.92c-5.68,3.64-10.82,7.86-14.57,13.67c-3.86,5.97-9.41,10.14-16.05,12.56
		c-2.71,0.99-5.75,1.15-8.67,1.51c-8.15,1.01-15.87,3.49-23.4,6.64c-3.04,1.27-5.11,3.78-7,6.19c-5.99,7.66-13.93,10.8-23.36,11.21
		c-7.33,0.32-13.97-0.72-19.5-6.33c-1.85-1.88-4.85-2.68-6.71-4.88c-1.02-1.21-2.46-1.02-3.7-0.61
		c-6.22,2.01-11.27,5.13-11.65,12.62c-0.05,0.91-0.77,1.78-1.18,2.68c-4.73-3.62-5.35-6.63-3.26-11.56
		c4.34-10.22,13.45-13.93,22.67-17.59c-5.8-2.4-10.59-6.39-14.1-11.98c-1.89-3.02-6.01-4.63-5.19-9.03
		c-9.09-0.78-14.19,2.88-16.47,11.49c-0.53,0.06-1.22-0.11-1.16-0.58c1.2-9.93,1.12-13.11,12.42-17.25c2.75-1.01,5.54-1.9,8.28-2.95
		c2.57-0.98,5.03-1.39,7.47,0.74c3.45-6.92,9.85-9.66,16.67-11.14c4.28-0.92,8.69,0.95,12.53,2.78c4.81,2.29,9.26,2.01,13.68-0.19
		c2.7-1.35,5.6-1.86,8.17-1.11c8.44,2.46,16.11-0.71,24.11-2.24c10.7-2.04,17.62-8.04,22.82-17.41c5.45-9.82,12.02-19.02,18.1-28.49
		c4.38-6.82,5.67-14.61,6.42-22.38c1.65-17.05,1.92-34.24,0.85-51.27c-1.12-17.8-0.81-35.56-0.56-53.31
		c0.18-12.73,0.59-25.59,3.88-38.3c-3.57-0.18-6.31,1.71-9.06,2.95c-5.63,2.54-11.58,3.41-17.51,4.28
		c-10.69,1.57-21.45,2.74-32.18,4.03c-1.48,0.18-3,0.13-4.5,0.03c-10.47-0.67-20.92,0.32-31.28,1.21
		c-12.84,1.09-23.89,5.99-32.44,16.77c-5.58,7.03-5.13,13.86-2.52,20.73c2.85,7.5,4.31,14.67,1.37,22.23
		c-1.38,3.56-0.79,6.14,1.87,8.84c0.9,0.92,2.08,2.09,2.59,3.82c1.44-1.32-1.4-4.55,2.17-4.59c3.05-0.03,4.68,1.92,5.28,4.36
		c0.58,2.4,1.26,4.61,2.46,6.78c3.01-2.26,3.01-2.26-3.15-11.29c4.92-1.46,7.97,0.07,11.7,6.61c2.65,4.64,0.52,9.87,1.06,14.8
		c2.45-2.42,2.77-4.89,1.38-10.8c1.99-1.23,3.26,0.21,4.06,1.51c4.79,7.74,5.88,15.49-2,23.83c-5.66,5.99-10.59,6.4-17.77,5.5
		c-6.44-0.81-13.39-2.17-19.73,0.85c-3,1.43-4.81-0.52-6.61-1.65c-5.67-3.55-11.38-7.04-16.7-11.17c-4.49-3.48-9.51-6.3-14.4-9.24
		c-1.03-0.62-2.23-1.24-2.61-2.18c-1.71-4.21-4.63-7.51-7.53-10.87c-3.71-4.31-3.39-9.2-2.42-14.42c1.13-6.11,2.11-12.32,2.3-18.52
		c0.37-12.48,3.86-24.14,8.34-35.58c2.02-5.16,4.55-10.13,7.03-15.1c1.81-3.63,4.63-5.93,8.57-7.58
		c12.79-5.34,25.27-11.29,37.36-18.21c15.59-8.92,30.51-18.92,46.28-27.51c1.84-1,3.57-2.21,5.55-3.45
		c-2.31-2.3-5.07-3.09-7.66-4.36c-0.66,1.62,1.45,2.85,0.1,4.48c-10.55,1.86-16.21-7.21-24.22-11.47c-0.13,3.76,3.51,5.07,4.91,7.98
		c-3.25,1.91-4.91-1.09-6.38-2.25c-12.11-9.54-20.64-21.78-25.69-36.33c-0.79-2.28-2.78-4.11-2.56-6.84
		c-1.09,10.38,2.32,20.55,1.16,31.8c-13.63-15.52-19.16-32.6-16.54-52.53c-3.09,3.19-6.38,5.47-9.14,8.34
		c-2.89,3.02-6.56,4.77-10.35,6.67c-0.97-1.85-0.65-3.1,0.3-4.71c5.86-9.89,8.25-20.36,6.24-31.98c-0.83-4.81-2.07-9.57-2.63-14.49
		c-2.05,6.76-2.84,13.7-2.62,20.57c-1.94,0.72-2.1-0.69-2.35-1.44c-2.97-8.77-8.47-16.16-13.1-24.02
		c-5.87-9.96-10.75-20.22-10.51-32.16c0.04-2.15,0.08-3.89-3.17-3.15c-1.57,0.36-2.08-1.99-2.53-3.25c-2.86-8.11-2.88-16.56-2-24.94
		c1.21-11.51,5.6-22.04,10.92-32.22c0.79-1.52,1.17-3.25,1.9-5.38c-3.17,1.86-4.54,5.2-7.89,5.61c-2.69-2.12-0.81-4.44-0.16-6.38
		c2.97-8.84,4.55-18.38,12.18-24.97c3.35-2.89,7.04-5.31,10.92-8.11c-2.41-2.22-5.67-3.13-7.88-5.42c0.43-1.22,1.04-1.06,2.21-0.9
		c9.19,1.21,17.23-0.87,23.56-8.25c2.24-2.61,3.46-4.9,1.95-8.32c-1.58-3.57-2.78-7.18-5.42-10.32c-3.36-4-5.45-8.96-7.4-13.78
		c-1-2.47-2.5-4.56-3.69-6.84c-1.52-2.92-5.66-3.99-9.22-2.91c-1.7,0.52-3.37,1.21-4.97,1.99c-0.77,0.37-1.76,1.04-2.28,0.56
		c-2.23-2.09-4.34-0.92-6.31,0.13c-1.96-2.3,0.67-4.22,0.07-6.4c-9.12,1.07-17.54,4.41-25.95,7.55c-6.5,2.43-12.74,2.4-18.94,0.45
		c-5.38,4.06-5.51,10.59-7.29,16.72c-2.75-1.49-4.17-3.4-5.32-5.62c-3.49-6.74-4.6-14.16-6.51-21.39
		c-1.98-7.49,1.3-13.86,2.48-20.65c0.63-3.62,1.46-7.3,2.61-10.89c2.7-8.39,7.83-14.61,15.45-18.86
		c8.72-4.86,16.67-10.88,24.78-16.65c2.14-1.52,3.84-3.62,4.86-6.15c1.27-3.15,3.51-5.33,6.32-7.28c4.32-3,5.36-8.11,6.49-12.82
		c0.6-2.48,1.4-4.63,2.96-6.54c-1.29-2.06-4.01-1.4-5.36-2.94c1.11-4.19,5.96-1.14,7.9-4.26c-12.98-0.86-24.21-5.45-33.23-14.61
		c0.27-3.35,2.98-2.26,4.83-3.22c-12.17-9.28-22.97-19.44-27.19-34.63c1.79-1.15,2.87-0.94,3.65,0.11
		c4.91,6.54,11.52,11.05,18.38,15.19c4.5,2.71,9.92,3,14.78,4.83c2.22,0.84,4.42,2.03,7.37,1.94c-2.35-3.28-5.55-5.52-6.78-9.4
		c2.88-1.39,5.56-0.14,7.87,1.08c11.07,5.86,22.81,10.42,33.38,17.25c2.75,1.78,5.69,3.15,9.49,1.14
		c-2.63-4.52-6.33-8.42-6.27-13.98c2.65-2.88,5.39-1,7.89,0.22c4.52,2.21,9.14,3.92,14.05,4.9c0.91-2.51-2.46-3.22-1.03-5.83
		c1.95-0.56,4.54-0.75,6.74-0.04c5.16,1.66,10.22,0.97,15.06-0.51c3.93-1.2,7.87-2.12,11.9-2.68c2.12-0.29,2.83-1.38,2.81-3.33
		c-0.03-2.8-0.01-5.59-0.01-9.08c6.18,2.86,10.71,6.78,15.42,11.1c6.89-2.23,12.76-6.65,18.84-10.57
		c12.78-8.23,25.19-17.07,36.75-26.92c6.13-5.23,12.55-10.16,18.33-15.87c7.56-7.47,16.11-13.94,23.42-21.69
		c6.35-6.74,10.57-14.73,13.31-23.63c2.39-7.75,4.3-15.69,7.91-23.03c0.3-0.62,0.57-1.19,1.83-1.56c-0.9,9.41-1.78,18.63-2.8,29.25
		c8.15-9.77,16.31-17.96,25.48-25.22c1.37,1.94-0.47,3.26-1.14,4.62c-3.66,7.46-7.69,14.74-10.54,22.56
		c-0.82,2.24-3.61,4.62-0.03,7.24c0.89,0.65,0,2.63-1.04,3.97c-2.67,3.42-5.72,6.61-7.4,10.68c2.09,1.68,5.07,1.8,6.59,4.17
		c-0.2,1.43-1.06,2.03-2.29,2.36c-7.59,2.05-12.5,8.17-18.57,12.49c-4.06,2.89-6.22,7.66-8.63,11.85
		c-3.41,5.93-8.28,10.87-10.96,17.3c1.55,0.41,2.6-0.86,3.84-1.46c10.46-5.04,20.96-10,31.32-15.23
		c9.62-4.86,19.21-9.81,28.57-15.14c11.36-6.47,19.24-16.53,26.83-26.89c6.94-9.47,13.31-19.31,19.58-29.29
		c-0.53,7.95-3.11,15.28-6.3,22.68c9.76-5.71,16.55-15.12,25.97-21.51c-0.11,3.57-19.28,35.36-31.93,53.14
		c6.4-0.2,12.75-1.82,18.59,1.6c-0.65,2.65-2.77,3.63-4.69,4.2c-5.06,1.5-9.12,4.38-12.69,8.1c-4.42,4.62-8.86,9.23-15.92,11.1
		c1.97,1.53,4.51,0.17,5,2.65c-1.19,1.8-3.4,1.82-5.17,2.22c-14.52,3.33-25.49,11.62-35.07,22.82c-5.98,7-11.96,14.01-17.83,21.11
		c-1.99,2.4-3.89,4.84-5.62,7.42c-0.81,1.2-2.51,2.09-0.44,3.96c1.38,1.26-0.55,2.68-1.19,3.85c-2.52,4.63-6.46,8.23-9.45,12.53
		c-0.28,0.41-1.03,0.8-0.97,1.08c1.18,5.44-3.53,6.42-7.21,8.76c8.09,3.43,14.97,7.55,19.43,15.92c-7.53-1.76-14.33-3.19-22.05-4.35
		c6.19,10.11,9.89,20.36,6.28,31.97c-4.9-6.3-6.91-14.28-13.04-19.63c1.68,4.9,3.57,9.71,4.25,14.82c0.74,5.54,3.21,11.58,1.1,16.6
		c-3.32,7.86-2.7,16.32-5.47,24.15c-0.94,2.66-1.37,5.62-2.25,9.04c5.22-3.4,6.63-9.48,11.87-12.74c1.08,7.46,0.29,14.38-2.73,21
		c0.92,1.39,3.3,0.15,3.6,3.3c-0.6,1.64-3.28,3.18-4.12,6.37c3.73,0,7.42,0,11.48,0c-1.02,4.19-4.28,6.26-6.11,9.18
		c1.49,1.68,3.46,0.31,5.01,1.51c-1.21,4.08-5.9,4.77-8.36,8.37c7.44,0,14.6,0,21.75,0c0.12,0.34,0.25,0.68,0.37,1.02
		c-6.68,3.82-13.31,7.7-19.44,12.09c3.79,4.63,7.7,3.76,12.11,1.28c3.76-2.11,7.34-4.31,10.29-7.49
		c6.75-7.28,14.6-13.29,22.24-19.58c6.34-5.22,12.39-10.88,18.64-16.25c7.59-6.53,15.36-12.84,23.05-19.25
		c0.76-0.64,1.48-1.34,2.19-2.04c14.26-14.25,28.58-28.45,42.76-42.79c7.99-8.08,16.1-16.08,23.53-24.66
		c9.9-11.43,19.97-22.72,29.73-34.29c9.84-11.67,19.1-23.76,28.47-35.79c4.92-6.32,8.24-13.68,12.73-20.3
		c7.43-10.94,13.7-22.59,20.45-33.94c3.42-5.75,6.37-11.79,9.48-17.73c3.49-6.65,6.62-13.46,10.75-19.82
		c4.54-7,6.31-15.24,8.41-23.33c2.54-9.81-2.21-17.09-7.08-24.44c-9.29-14.01-19.32-27.49-31.84-38.79
		c-12.04-10.86-23.88-21.96-37.52-30.97c-12.96-8.56-26.4-16.21-39.83-23.96c-15.63-9.02-32.06-16.2-48.95-22.24
		c-12.97-4.64-26.03-9.39-40-10.72c-5.36-0.51-10.64-1.86-16.1-1.93c-4.18-0.05-8.1,0.77-12.06,1.99
		c-19.75,6.05-39.63,11.68-59.29,18.01c-24.33,7.83-48.34,16.66-72.8,24.08c-16.49,5-33.33,8.9-49.72,14.17
		c-16.48,5.3-33.26,9.25-50.17,12.55c-9.77,1.91-19.8,2.8-29.82,3.53c-7.27,0.53-14.69,1.11-21.92,2.6
		c-1.44,0.3-2.99,0.11-4.49,0.11c-5.67,0.01-11.34-0.24-16.99,0.06c-10.31,0.55-20.52-1.09-30.8-1.16
		c-4.36-0.03-8.75-1.08-13.06-1.95c-4.33-0.87-5.44-3.46-3.68-7.59c4.41-10.35,11-19.33,18.16-27.83
		c12.16-14.43,25.78-27.47,39.93-39.92c7.11-6.26,15.19-11.31,23.27-16.26c18.28-11.19,37.74-20.14,57.55-28.03
		c20.37-8.12,41.16-15.3,62.3-21.34c10.15-2.9,20.02-6.8,30.09-10c12.86-4.09,25.63-8.68,38.76-11.69
		c15.23-3.49,30.45-7.1,45.75-10.3c11.51-2.41,23.05-4.44,34.69-6.12c11.62-1.67,23.22-3.59,34.79-5.66
		c7.58-1.35,15.42-1.16,23.06-2.26c11.1-1.59,22.23-0.24,33.3-1.01c10.7-0.74,21.42-1.28,32.09-2.15
		c6.29-0.51,12.61-0.04,18.81-0.85c9.6-1.26,19.29-0.02,28.79-1.11c9.15-1.05,18.27,0.03,27.31-0.92c7.12-0.74,14.2-0.77,21.31-0.89
		c11.78-0.2,23.56,0.71,35.28,1.32c9.96,0.52,19.93-0.17,29.8,0.8c10.1,0.99,20.23,1.74,30.27,3.45c5.95,1.01,11.92,2.06,17.99,2.6
		c7.48,0.67,14.97,1.61,22.44,2.55c7.96,1,15.86,2.42,23.84,3.37c8.59,1.02,17.18,2.34,25.65,4.1c12.9,2.68,25.77,5.58,38.52,8.88
		c15.31,3.96,30.96,6.32,46.31,10c9.8,2.35,19.55,5.03,29.15,8.1c17.82,5.7,36.01,10.14,53.84,15.79
		c19.54,6.2,39.17,12.11,58.72,18.3c16.59,5.26,33.05,10.81,49.47,16.55c12.57,4.39,25.66,7.21,38.61,10.42
		c10.57,2.61,21.28,4.83,31.66,8.14c10.72,3.42,21.75,5.56,32.58,8.48c12.1,3.26,24.13,6.75,36.15,10.26
		c16.07,4.68,31.91,10.11,47.84,15.23c9.57,3.08,19.09,6.53,28.53,10.09c4.87,1.84,9.76,1.92,14.62,1.31
		c3.41-0.43,6.79-0.59,10.2-0.77c15.69-0.84,31.35-2.11,47.1-2.27c6.21-0.06,12.53-0.47,18.8-0.7c11.35-0.43,22.62-1.73,33.91-2.91
		c4.75-0.5,9.52-0.36,14.31-0.93c9.27-1.1,18.36-3.07,27.5-4.78c7.21-1.35,14.36-2.98,21.57-4.32
		C2950.86,142.73,2952.89,143.03,2954.77,143.03z M1696.29,1126.97c3.97,1.61,7.64,3.34,11.48,4.55c1.76,0.55,3.36-0.22,3.65-2.72
		c0.37-3.21-1.33-5.54-3.26-7.34c-1.62-1.51-4.04-0.56-6.02,0.48C1700.07,1123.02,1698.08,1124.16,1696.29,1126.97z
		 M1737.22,1147.25c-1.67-1.21-1.77-2.8-3.76-1.96c-7.18,3.05-13.03,8.4-20.3,11.3C1722.34,1157.22,1729.01,1151.79,1737.22,1147.25
		z"/>
</g>
<g>
	<path class="st0" d="M2034.11,658.8c-9.19,0.05-18.44,0.86-27.54-0.02c-14.1-1.37-28.25-2.92-41.82-7.6c-5.8-2-10.88-5.18-16-8.36
		c-1.1-0.68-1.96-1.07-3.57-0.25c5.03,2.95,9.77,5.81,14,9.37c14.08,11.84,30.98,19.36,45.9,29.93
		c7.97,5.65,15.18,12.07,22.41,20.03c-5.13,0-9.64,0.67-13.83-0.19c-4.01-0.82-7.9-0.61-11.84-0.73
		c-10.85-0.34-21.67-1.26-31.86-5.11c-15.21-5.75-29.39-13.45-41.64-24.38c-4.03-3.6-7.68-7.49-10.87-11.84
		c-0.41-0.56-0.85-1.33-2.27-1.18c8.51,13.26,16.96,26.25,26.09,39.08c-8.47-0.27-16.87,0.21-24.53-3.57
		c-4.05-2-6.87-5.59-9.27-9.39c-3.9-6.17-8.29-12.06-11.27-19.26c5.14-1.02,10.55,0.9,15.12-2.84c-4.31-4.4-10.45-5.45-15.8-9.32
		c6.14-0.5,11.68,0.18,17.09-1.15c6.01-1.48,12.17-2.37,17.63-5.53c0.76-0.44,1.93-0.44,2.07-1.82c0.18-1.73-1.3-1.73-2.16-2.28
		c-5.44-3.42-11.85-3.26-18.41-4.87c7.36-2.04,14.31-4.06,19.62-9.15c5.25-5.03,10.75-10,12.36-18.51
		c-7.4,0.89-13.63,2.94-19.97,4.84c3.4-3.06,7.29-5.39,10.24-8.85c1.07-1.25,2.43-2.31,2.88-3.95
		c2.96-10.74,10.21-19.25,15.11-28.98c4.17-8.28,8.9-16.26,14.28-23.85c7.92-11.18,15.13-22.89,23.5-33.71
		c9.51-12.3,18.58-24.94,28.45-36.99c11.69-14.28,22.58-29.21,33.27-44.28c5.09-7.18,11.12-13.76,16.17-21.01
		c14.27-20.51,29.01-40.69,43.82-60.81c9.78-13.28,19.18-26.83,28.84-40.2c4.88-6.75,10.28-13.12,14.68-20.22
		c2.74-4.42,5.97-8.58,6.87-13.91c0.42-2.5,1.91-4.51,3.46-6.35c7.52-8.98,13.02-19.01,17.1-30.01c2.27-6.14,3.55-12.5,5.53-18.68
		c0.47-1.46,0.44-2.56-1.07-3.54c-1.77,0.83-3.65,1.71-5.65,2.65c-2.88-2.11-6.09-3.4-9.7-4.15c-2.39-0.5-5.38-0.38-7.01-3.03
		c-0.49-0.79-1.41-0.82-2.25-0.77c-10.4,0.66-19.03-4.09-27.43-9.24c-8.77-5.37-17.53-10.79-25.94-16.68
		c-8.43-5.9-16.53-12.29-24.59-18.7c-4.5-3.58-10.5-5.33-14.06-9.62c-4.77-5.75-11.16-8.94-16.85-13.24
		c-3.29-2.49-6.96-4.28-10.87-5.53c-4.04-1.29-6.44-4.9-10.21-6.69c-7.05-3.33-13.47-7.84-20.48-11.37
		c-8.89-4.48-17.82-8.81-26.94-12.79c-4.77-2.08-9.74-3.61-14.43-5.96c-4.42-2.22-7.83-5.91-13.19-7.5
		c8.15-3.09,16.01-4.17,23.75-5.61c11.87-2.2,23.77-4.4,35.75-5.91c8.78-1.11,17.6-2.13,26.33-3.4c10.89-1.59,21.85-2.34,32.75-3.47
		c7.96-0.82,16.23-1.42,24.26,0.63c2.24,0.57,4.08-0.99,6.28-0.97c15.27,0.13,30.54-2.07,45.79-0.83c14.78,1.2,29.57,0.14,44.3,1.02
		c15.8,0.94,31.55,2.56,47.4,3.06c9.6,0.3,19.1,2.83,28.71,3.6c5.09,0.4,10.16,1.07,15.28,1.37c9.96,0.57,19.89,1.48,29.77,3.35
		c10.41,1.98,20.94,3.45,31.32,5.58c9.5,1.96,19.15,2.9,28.72,3.6c8.88,0.66,17.57,2.24,26.34,3.43c7.58,1.03,15.08,2.78,22.63,4.11
		c9.46,1.67,18.84,3.81,28.25,5.76c9.73,2.01,19.49,3.89,29.18,6.09c16.98,3.86,33.97,7.71,50.85,11.97
		c15.61,3.93,31.08,8.44,46.63,12.6c14.3,3.83,28.73,7.2,42.92,11.4c20.14,5.95,40.49,11.06,60.88,16.01
		c9.95,2.41,19.67,5.78,29.62,8.19c9.65,2.34,19.44,4.14,29.22,5.92c10.47,1.9,21.01,3.75,31.51,4.52
		c17,1.24,32.74,7.35,49.16,10.73c9.71,2,19.46,3.88,29.07,6.46c12.56,3.37,25.22,6.64,38.03,8.79c11.11,1.87,22.15,4.12,33.37,5.54
		c13.88,1.75,27.68,4.14,41.42,7.24c19.37,4.37,38.75,8.81,58.23,12.76c11.5,2.33,23.01,4.88,34.58,6.47
		c10.21,1.4,20.57,2.43,30.81,3.64c19.4,2.3,38.77,1.69,58.13,1.51c19.7-0.18,39.38-1.66,59.09-2.15
		c10.19-0.26,20.56-1.44,30.73-3.48c4.78-0.96,9.9-1.01,14.77-0.98c7.19,0.04,14.04-1.84,21.05-2.57
		c5.94-0.62,11.97-1.78,17.94-2.45c7.5-0.85,14.9-2.21,22.34-3.3c11.61-1.7,23.05-4.3,34.5-6.88c21.11-4.75,42.06-10.19,63.04-15.5
		c1.66-0.42,3.1-0.37,5.37-0.45c-3.89,4.34-8.69,5.88-13.06,7.75c-13.91,5.97-27.89,11.82-42.09,17.04
		c-10.41,3.83-20.32,8.79-30.76,12.48c-14.1,4.99-28.23,9.9-42.73,13.63c-7.08,1.82-14.32,2.93-21.12,5.88
		c-2.29,0.99-5.02,0.73-5.99,3.84c-0.2,0.62-1.64,1-2.57,1.22c-8.55,2.05-17.02,4.78-25.69,5.8c-6.16,0.73-12.44,1.79-18.77,1.28
		c-9.96-0.81-19.85,1.28-29.8,0.94c-8.1-0.28-16.24-0.58-24.28-1.23c-6.46-0.52-12.88-0.56-19.32-0.69
		c-9.06-0.18-17.93-2.02-26.9-2.85c-9.64-0.89-19.12-2.72-28.63-4.27c-8.84-1.44-17.58-3.47-26.33-5.4
		c-15.11-3.33-30.24-6.53-45.4-9.58c-9.25-1.86-18.31-4.73-27.6-6.27c-8.53-1.41-16.95-3.41-25.51-4.65
		c-12.12-1.75-24.16-3.96-36.17-6.32c-11.19-2.2-22.37-4.45-33.56-6.69c-3.99-0.8-8.06-1.25-11.91-2.62
		c-1.15-0.41-2.16-0.5-3.47,0.09c4.65,3.06,9.98,3.26,14.97,4.47c13.79,3.32,27.82,5.5,41.75,8.16c7.32,1.4,14.51,3.46,21.64,5.8
		c11.58,3.79,23.38,6.93,35.19,9.99c12.8,3.31,25.15,7.96,37.51,12.49c11.93,4.37,24.1,8,36.01,12.41
		c21.1,7.82,43.08,12.54,64.75,18.38c13.7,3.7,27.62,6.27,41.4,9.45c8.39,1.94,17.17,2.5,25.79,3.54c16.52,2,33.08,1.31,49.61,2
		c11.7,0.48,23.43,1.1,35.09,2.07c10.14,0.85,20.22,0.42,30.32,0.72c3.62,0.11,7.19,1.73,10.89,0.12c-1.93,1.94-4.08,2.79-6.63,3.1
		c-2.96,0.37-5.79,1.05-8.65,2.47c-3.23,1.61-7.24,1.7-10.94,2.33c-11.71,1.98-23.47,2.82-35.36,3.29
		c-10.79,0.43-21.64,1.71-32.43,2.43c-11.18,0.75-22.56,1.41-33.78-0.63c-1.13-0.21-2.33-0.1-3.49-0.06
		c-12.42,0.38-24.78-1.07-37.08-2.25c-10.85-1.04-21.7-2.85-32.53-4.49c-10.22-1.55-20.01-4.58-30.08-6.57
		c-15.54-3.07-30.48-8.22-45.29-13.69c-12.82-4.74-25.48-9.92-38.15-15.03c-18.11-7.31-36.3-14.42-54.91-20.37
		c-10.06-3.22-20.37-5.65-30.58-8.39c-1.44-0.39-2.95-0.34-5.68,0.32c14.06,2.86,26.31,7.77,38.95,11.36
		c9.28,2.63,17.9,6.9,27.14,9.59c14.11,4.11,27.07,11.18,40.75,16.42c2.58,0.99,5.13,2.31,7.81,2.76
		c7.19,1.21,12.2,6.07,17.75,10.04c3.09,2.22,6.54,3.74,9.95,5.28c10.99,4.97,21.88,10.23,33.12,14.53
		c14.28,5.47,28.58,10.93,43.19,15.49c9.32,2.91,18.57,6.03,27.89,8.91c1.17,0.36,1.89,1.07,2.88,1.72
		c-10.93-0.27-21.72,0.85-32.63-0.35c-7-0.77-14.05-1.6-21.04-2.45c-10.33-1.26-20.65-3-30.59-6.36
		c-12.02-4.06-23.85-8.92-36.14-11.88c-17.57-4.24-33.23-12.62-48.94-20.81c-14.62-7.62-28.59-16.49-43.47-23.66
		c-14.26-6.87-29.17-12.11-44.21-16.94c-2.08-0.67-3.92-2.42-7.03-2.05c4.25,3.24,8.87,4.18,13.1,5.72
		c11.93,4.37,23.45,9.62,35.04,14.77c19.24,8.55,37.05,19.74,55.56,29.62c4.29,2.29,8.99,3.79,13.42,5.83
		c8.02,3.7,15.52,8.25,22.1,14.21c-4.44,1.01-7.43,0.39-15.45-1.76c-23.04-6.19-44.89-15.53-66.7-24.93
		c-21.99-9.48-43.91-19.08-66.92-25.9c-2.02-0.6-4.05-1.15-6.09-1.64c-0.44-0.11-0.96,0.12-1.91,0.27
		c7.96,3.8,16.19,5.64,24.43,9.37c-1.54,0.12-2.64,0.53-3.49,0.23c-10.05-3.57-20.69-4.55-31.05-6.51
		c-6.5-1.22-13.43-0.51-20.26,0.31c-9.13,1.11-17.98,3.14-26.91,5.14c-9.39,2.1-18.62,4.63-27.79,7.5c-6.4,2-12.96,3-19.64,3.92
		c-6.72,0.93-13.48-0.03-20.17,1.55c-4.97,1.17-10.14-0.63-15.18-1.28c-12.78-1.65-25.1-5.62-37.81-7.75
		c-6.34-1.06-12.53-3.51-18.55-5.94c-15.42-6.21-31.07-11.93-45.75-19.86c-12.18-6.57-24.23-13.37-36.11-20.48
		c-8.26-4.94-16.61-9.71-24.97-14.48c-0.72-0.41-1.51-1.47-2.92-0.44c7.37,4.67,14.55,9.33,21.85,13.81
		c7.14,4.39,13.54,9.72,20.07,14.93c8.48,6.78,16.82,13.74,24.69,21.16c7.52,7.09,15.48,13.86,21.67,22.28
		c1.17,1.59,2.72,2.76,3.8,4.53c4.11,6.73,3.77,13.36,0.63,20.27c-4.47,9.85-9.96,19.08-16.56,27.62
		c-6.23,8.05-12.38,16.15-19.41,23.58c-9.87,10.43-19.25,21.33-29.05,31.83c-3.76,4.04-8.36,7.29-12.13,11.33
		c-12.39,13.27-25.72,25.68-36.6,40.35c-2.92,3.94-7.03,6.88-11.09,9.78c-4.79,3.42-9.19,7.38-13.6,11.42
		c5.55-2.66,11.41-4.29,18.11-6.93c-2.06,3.72-3.82,6.26-6.04,8.52c-10.77,10.97-23.45,19.45-36.21,27.81
		c-7.78,5.1-16.08,9.31-24.67,12.92c-1.07,0.45-2.06,0.92-2.81,2.04c11.48-2.64,22.04-8.74,34.72-9.89
		c-2.18,4.07-4.8,6.46-7.64,9.01c-5.1,4.6-10.3,9.12-15.22,13.93c-8.08,7.89-17.38,13.5-28.07,17.47
		c-14.52,5.4-29.06,10.62-44.21,13.8c-5.35,1.12-10.24,3.31-15.34,4.96c-4.66,1.51-9.43,0.79-14.14,1.65
		c-9.8,1.79-19.8,2.38-29.69,3.89c-4.64,0.71-9.38,1.5-14.14,1.78c5.83,1.01,11.6-0.4,17.31-0.9c4.17-0.36,8.49-1.05,12.65-1.39
		c10.81-0.89,21.58-2.26,32.35-3.42c13.96-1.51,27.83-3.23,41.91-2.83c6.93,0.2,13.65,1.79,20.47,2.27c0.5,1.87-0.84,2.71-1.86,3.32
		c-14.98,9-30.19,17.49-46.7,23.5c-6.54,2.38-13.46,3.57-19.78,6.67c-1.97,0.97-4.5,0.77-6.74,1.1c-7.31,1.07-14.75,1.21-22.06,2.27
		c-7.79,1.13-15.66,1.33-23.43,2.75c-4.35,0.8-8.9,0.71-13.29,0.91c-7.27,0.32-14.47,1.8-21.79,1.3c-4.43-0.3-8.68,1.58-13.16,1.46
		c4.93,0.13,9.85,1.33,14.73-0.26c0.76-0.25,1.64-0.28,2.46-0.23c11.13,0.72,22.19-0.97,33.3-1.18c7.48-0.14,14.92-2.02,22.41-2.65
		c6.72-0.56,13.4-1.37,20.07-2.24c7.63-0.99,15.32-1.43,22.93-2.74c4.85-0.84,9.83-0.21,14.79-1.09c9.82-1.73,19.8-2.41,29.68-3.92
		c9.69-1.48,19.42-2.85,29.13-4.27c10.17-1.48,20.34-3.08,30.51-4.62c5.38-0.81,10.73-2.82,16.82-2.2
		c-6.45,5.74-13.8,9.15-21.32,11.45c-7.08,2.16-13.63,5.35-20.43,8.02c-23.8,9.36-47.89,17.8-72.89,23.39
		c-10.65,2.38-21.23,5.34-32.01,6.74c-11.04,1.44-21.9,4.06-33.13,4.45c-5.79,0.2-11.66,1.33-17.45,2.47
		c-6.42,1.26-13.04,1.42-19.52,2.39c-8.6,1.3-17.38,0.95-25.91,2.86c-0.64,0.14-1.33,0.13-1.99,0.08c-8.31-0.65-16.5,1.22-24.8,1.17
		c-4.05-0.02-8.2,1.39-12.29,0.78c-8.61-1.29-17.33-1.17-25.94-2.69c-4.47-0.79-9.17-0.77-13.77-1.21
		c-17.1-1.66-33.96-4.41-50.26-10.02c-0.43-0.15-0.83-0.37-1.22-0.87c8.05,1.49,16.17,1.19,24.21,0.76
		c18.46-1,37.01-1.89,54.51-8.91c2.42-0.97,4.84-1.99,7.1-3.27c1.39-0.79,2.84-1.91,2.24-4.35c-18.71-5.3-38.05-8.64-57.28-12.59
		c17.68,6.16,36.5,8.15,55.03,14.56c-5.26,3.44-10.51,5.14-15.71,6.52c-12.22,3.24-24.64,5.09-37.39,5.38
		c-6.57,0.15-13.24,1.25-19.79,0.64c-9.78-0.91-19.59-0.17-29.29-1.05c-9.39-0.85-18.66-3.06-27.96-4.82
		c-13.6-2.58-27.08-5.74-40.53-8.97c-2.88-0.69-5.5-2.42-9.73-2.22c5.72,2.63,10.76,3.99,15.85,5.19
		c12.52,2.94,24.96,6.3,37.59,8.61c7.85,1.44,15.78,2.76,23.78,3.59c7.72,0.8,15.42,2.73,22.87,5.01
		c9.33,2.86,18.98,4.67,28.11,8.06c10.1,3.75,20.53,6.24,30.83,9.23c4.65,1.35,9.57,1.75,14.69,3.91c-1.29,0.66-2.13,1.31-3.07,1.51
		c-1.12,0.24-2.4-0.15-3.47,0.17c-6.33,1.91-12.96,1.7-19.41,2.8c-9.83,1.69-19.84,1.27-29.78,1.05c-8.69-0.19-17.25-2.06-25.9-2.76
		c-8.03-0.65-15.83-2.64-23.86-3.29c-4.01-0.33-7.92-1.75-11.86-2.8c-13.25-3.51-25.91-8.62-38.63-13.61
		c-9.55-3.75-18.64-8.58-28.41-11.81c-1.67-0.55-3.14-0.75-5.41-0.28c5.67,2.52,10.76,5.02,16.03,7.06
		c3.76,1.46,6.17,4.39,8.85,7.02c6.51,6.39,13.71,12.04,19.89,18.78c4.35,4.75,9.31,8.85,14.53,12.62c0.49,0.36,1.09,0.79,1.02,1.77
		c-20.45,3.42-39.5-1.24-57.41-10.84c-5.25-2.81-9.63-7.4-14.07-11.53c-6.33-5.9-12.35-12.13-18.82-18.54
		c3.34-1.61,7.13-0.43,9.63-3.01c5.64,1.32,10.63-1.42,15.73-2.85c6.2-1.74,12.06-4.58,18.37-8.74
		c-16.93-7.12-34.13-9.39-50.98-13.01c14.99,5.52,30.99,7.44,46.58,12.91C2054.04,653,2044.06,655.86,2034.11,658.8z
		 M2231.38,622.07c-6.65,2.32-13.57,3.3-20.54,3.85c-7.61,0.6-15.24-0.09-22.74-1.17c-2.8-0.4-5.75-0.65-8.61-1.59
		c-9.99-3.27-19.29-7.91-28.29-13.22c-8.84-5.22-17.85-10.11-26.07-16.38c-3.89-2.97-7.86-6.04-12.55-8.89
		c0.31,1.86,1.31,2.51,2.1,3.13c8.74,6.82,17.5,13.63,27.07,19.28c4.77,2.82,9.69,5.4,14.42,8.28c13.1,7.97,27.19,12.44,42.6,12.62
		c6.78,0.08,13.6,0.25,20.24-1.13c4.27-0.89,9.21-0.68,12.22-4.92c0.77-0.06,1.72,0.24,2.07-1.66
		c-15.75-13.71-33.48-24.9-52.5-34.13c-0.03,0.56,0.08,0.93,0.32,1.07c14.17,8.13,27.77,17.12,40.95,26.75
		C2225.39,616.38,2229.43,618.05,2231.38,622.07z M2401.12,479.63c-3.54,2.88-6.22,5.23-9.07,7.36
		c-8.3,6.21-17.56,10.82-26.99,14.91c-10.14,4.39-20.56,8.07-31.52,10.2c-8.68,1.69-17.33,3.15-26.15,4.1
		c-9.33,1-18.44,1.88-27.94,1.04c-11.79-1.04-23.63-1.46-35.36-3.27c-7.09-1.09-14.18-2.17-21.22-3.64
		c-2.46-0.51-4.95-2.29-8.24-0.76c7.41,1.46,14.1,3.42,20.99,4.73c12.27,2.32,24.66,3.39,37.03,4.57
		c8.33,0.79,16.47,2.65,24.74,3.71c6.46,0.83,12.84,2.32,19.27,3.37c8.7,1.41,17.33,3.25,26.09,4.39c6.6,0.86,13.09,2.6,19.68,3.75
		c4.01,0.7,8.37,0.89,11.85,3.67c-0.7,1.65-1.76,2.53-3.14,3.25c-8.69,4.54-17.55,8.66-26.77,12.03
		c-17.47,6.38-35.71,7.83-54.04,8.94c-5.99,0.36-11.81-1.15-17.8-1.18c-7.2-0.03-14.42-0.8-21.62-1.64c-4.1-0.48-7.99-2-12.05-2.13
		c-9.24-0.29-18.17-2.54-27.06-4.51c-11.56-2.57-22.83-6.47-34.19-9.94c-1.31-0.4-2.42-0.83-4.09-0.09
		c1.35,0.43,2.13,1.17,3.31,1.53c7,2.13,13.91,4.54,20.91,6.69c11.21,3.45,22.35,7.03,34.11,8.44c5.15,0.62,10.49,0.86,15.47,2.41
		c7.27,2.26,14.45,4.89,21.53,7.69c4.5,1.77,9.34,2.9,13.22,6.04c-0.47,0.86-1.04,1.34-1.84,1.69c-12.4,5.47-25.5,8.16-38.9,8.87
		c-14.03,0.74-27.96-1.2-41.9-2.76c-8.49-0.95-16.75-2.62-24.88-5.07c-16.45-4.95-32.18-11.65-47.38-19.63
		c-2.38-1.25-4.84-2.33-7.61-3.65c0.3,1.51,0.96,1.84,1.68,2.21c7.98,4.12,15.98,8.23,23.92,12.43
		c20.84,11.02,43.59,15.67,66.6,18.23c12.21,1.36,24.81,1.03,37.27-0.5c10.46-1.28,20.46-4.04,30.34-7.35
		c2.84-0.95,6.22-1.92,8.06-5.18c-9.13-4.96-19.08-7.15-29.35-11.57c5.49-0.09,9.77,0.69,13.98,0.77
		c16.67,0.32,33.34,0.8,49.89-2.69c15.05-3.18,29.83-6.9,43.23-14.67c4.46-2.58,9.86-4.32,12.46-10.72
		c-27.78-7.15-56.02-10.02-83.58-16.25c5.23-0.84,10.53-1.12,15.65-1.19c9.37-0.13,18.1-2.94,27.05-4.66
		c17.51-3.35,33.15-11.71,48.82-19.78c3.32-1.71,6.52-3.83,9.35-6.26c2.93-2.51,6.3-4.9,7.6-10.16c-4.44,0.23-8.17-2.16-13.21-1.05
		C2393.22,477.89,2396.68,478.61,2401.12,479.63z M2283.72,432.98c2.24,1.94,4.48,2.04,6.8,2.02c7.28-0.07,14.56-0.73,21.79-0.84
		c28.31-0.43,56.63-0.18,84.95-0.17c1.33,0,2.7-0.13,3.99,0.1c9.23,1.67,18.63,1.65,27.89,2.91c2.35,0.32,5.68-1.32,6.77,1.53
		c1,2.6-1.7,4.66-3.34,6.63c-10.94,13.15-26.11,19.86-41.44,25.53c-14.03,5.18-29.19,5.72-44.11,6.24
		c-9.65,0.33-19.32,0.07-28.98,0.06c-1.33,0-2.75,0.22-3.97-0.16c-5.6-1.77-11.21-0.38-16.86-0.41c1.85,0.19,3.26,1.59,5.11,1.58
		c8.75-0.03,17.4,1.18,26.1,1.91c9.92,0.83,19.88-0.16,29.76-1.08c3.6-0.34,7.29-0.29,10.79-0.98c11-2.17,22.11-4.09,32.37-8.93
		c11.29-5.33,22.8-10.49,30.88-20.54c2.7-3.36,7.51-5.99,5.55-12.62c-32.09-5.75-64.96-3.08-97.7-4.19
		c3.57-2.1,7.56-2.78,11.46-3.51c12.22-2.27,24.03-5.71,35.34-10.94c12.94-5.99,23.64-14.88,33-25.39
		c3.82-4.29,7.41-9.03,8.39-15.04c-1.16-0.71-1.97-1.09-3.26-1.04c-14.85,0.63-29.73,0.23-44.54,2.22
		c-5.68,0.76-11.32,1.72-16.97,2.58c-10.17,1.55-20.29,3.41-30.52,4.63c-3.54,0.42-7.07,1.1-10.66,1.41
		c4.15,0.5,8.19-0.01,12.27-0.29c8.87-0.59,17.53-2.48,26.34-3.37c10.46-1.06,20.84-2.62,31.39-3c4.91-0.18,9.99-0.1,14.76-1.08
		c5.35-1.1,10.52-0.3,15.73-0.76c1.04,3.11-0.31,5.11-2.01,6.97c-1.01,1.11-2.4,1.97-3.1,3.23c-5.15,9.29-13.52,15.32-22.17,20.53
		c-10.89,6.55-22.68,11.51-35.22,14.27c-10.99,2.42-22.04,4.45-33.15,6.28c-12.03,1.99-24.02,3.5-36.19,3.72
		C2288.69,433.02,2286.39,432.98,2283.72,432.98z M2047.19,541.08c2.03-1.72,4.46-1.09,6.65-1.81c10.58-3.47,20.34-8.67,30.23-13.64
		c2.46-1.24,4.9-2.45,8.28-2.59c-0.49,4.43-0.91,8.62-1.44,12.8c-0.83,6.55-5.54,10.54-9.8,14.89
		c-8.36,8.52-18.25,13.28-30.26,14.42c-5.84,0.55-11.84,1.41-17.5,3.48c1.19,0.31,2.43,0.59,3.48,0.27
		c5.09-1.55,10.45-0.72,15.58-1.92c5.25-1.22,10.7-1.2,15.96-2.51c13.68-3.41,27.58-5.1,41.76-4.91c-0.06,0.33-0.06,0.82-0.25,1.24
		c-3.2,7.12-9.15,11.98-14.35,17.48c-7.42,7.85-17.06,11.12-27.13,13.73c-5.33,1.38-10.98,0.52-17.07,2.84
		c20.19-0.4,39.49-3.75,58.95-0.52c-0.59,1.99-1.21,3.46-2.45,4.62c-1.34,1.25-2.51,2.72-4,3.74c-1.24,0.84-2.67,1.32-3.09,3.22
		c5.78-2.45,10.1-7.23,12.42-13.63c-10.91-2.79-22.04-0.46-34.31-1.71c12.06-3.52,19.48-11.53,26.71-19.56
		c3.45-3.84,7.23-7.95,7.03-13.83c-13.48-1.33-26.51,1.83-39.83,3.94c0.25-1.53,0.83-1.81,1.42-2.14
		c5.21-2.93,9.56-6.89,13.79-11.09c7.49-7.44,6.36-16.8,6.17-25.95c-0.03-1.7-1.66-2.34-3.4-1.71c-3.38,1.21-6.76,2.5-9.71,4.58
		c-4.97,3.51-10.79,4.82-16.46,6.77c3-2.64,5.46-5.68,8.13-8.52c5.31-5.67,9.49-12.13,11.29-19.72c0.63-2.65,1.78-6.19-1.67-8.43
		c-4.62,3.25-9.06,6.37-13.49,9.48c4.77-1.23,8.95-3.49,12.84-6.69c0.3,0.86,0.65,1.33,0.58,1.72c-1.77,9.94-6.49,18.37-13.45,25.55
		C2062.46,531.48,2054.1,535.22,2047.19,541.08z M2552.35,228.12c0.23-0.23,0.47-0.45,0.7-0.68c-0.8-0.84-1.52-1.78-2.41-2.51
		c-9.4-7.65-18.88-15.22-28.24-22.92c-8.59-7.06-18.1-12.81-27.3-18.98c-11.23-7.53-22.78-14.6-34.57-21.23
		c-9.8-5.51-18.93-12.15-29.04-17.16c-14.03-6.96-28.36-13.29-42.56-19.87c-14.22-6.59-28.66-12.48-43.59-17.12
		c-4.65-1.45-9.27-3.51-14.94-3.54c1.06,0.81,1.52,1.37,2.1,1.56c11.6,3.79,22.97,8.19,34.44,12.33
		c18.43,6.64,36.1,15.01,53.33,24.18c11.93,6.35,23.75,12.95,35.42,19.83c13.34,7.86,26.61,15.83,39.77,24
		c14.89,9.24,29.06,19.42,42.31,30.9C2542.38,220.93,2547.47,224.4,2552.35,228.12z M2259.5,375.57
		c11.69,1.48,22.53,0.08,33.35,0.45c5.65,0.19,11.25-0.67,16.77-1.27c11.19-1.23,22.48-2.06,33.47-4.76
		c14.75-3.63,28.85-8.48,39.72-19.95c3.28-3.46,6.55-6.95,10.49-9.83c2.32-1.7,4.34-4.33,5.17-7.93
		c-11.34-1.88-22.36-3.2-33.48-1.23c9.05,5.24,19.07,3.43,29.44,4.23c-7.35,7.59-15.47,12.88-23.14,18.68
		c-13.85,10.48-30.38,13.95-46.91,16.88c-9.99,1.78-20.22,2.69-30.37,2.99c-9.44,0.28-18.81,1.85-28.29,1.21
		C2263.95,374.91,2262.1,374.68,2259.5,375.57z M2358.75,281.13c-5.88,5.29-10.17,11.01-16.07,15.11
		c-11.51,7.98-24.37,13.05-37.4,17.87c-9.5,3.52-19.79,3.7-29.67,7.61c1.85,0.21,3.14,0.23,4.64-0.13
		c4.44-1.05,8.93-1.87,13.44-2.57c7.73-1.19,15.29-2.85,22.71-5.47c5.63-1.99,10.5-5.26,15.65-8.02
		c10.89-5.85,20.72-13.17,28.33-23.13c0.8-1.04,1.14-1.93,0.23-3.54c-5.1,0.86-10.61-1.03-15.8,1.3
		C2349.21,280.08,2353.62,279.22,2358.75,281.13z M2091.53,611.93c-2.29,1.43-4.53,2.95-6.88,4.26
		c-15.48,8.63-32.23,12.37-49.81,12.75c-9.42,0.2-18.75-1.13-28.07-2.12c-4.7-0.5-9.48-0.5-14.13-1.79
		c-3.71-1.03-7.61-1.41-11.42-2.08c0.91,1.12,1.67,1.91,2.95,2.05c6.33,0.72,12.49,2.35,18.55,4.21c1.83,0.56,3.55,0.85,5.32,0.66
		c4.87-0.53,9.79-0.26,14.53,0.36c10.76,1.41,21.37,0.83,31.98-0.92c7.27-1.2,14.22-3.66,20.91-6.55
		C2081.39,620.19,2087.65,617.79,2091.53,611.93z M2030.86,483.94c9.87-7.1,19.75-14.2,29.82-21.44c0.94,2.69,0.89,4.75,0.49,6.64
		c-2.07,9.62-5.91,18.64-11.03,26.94c-2.98,4.83-6.23,9.82-10.87,13.31c-3.78,2.85-6.9,6.5-11.21,8.73
		c-1.76,0.91-3.02,2.81-5.18,4.92c3.26-0.37,4.23-2.19,5.58-3.22c6.18-4.75,12.64-9.04,17.92-15.1c8.25-9.46,12.56-20.56,15.56-32.3
		c0.91-3.57,2.61-7.94-1.61-11.77C2049.78,467.37,2039.73,474.83,2030.86,483.94z M2037.74,520.31c-7.45,2.3-14.04,6.21-19.98,11.28
		C2024.3,527.63,2031.31,524.56,2037.74,520.31z"/>
	<path class="st0" d="M2759.27,160.31c-10.25-0.4-20.71-0.49-30.84-3.62c-8.84-2.74-17.81-5.07-26.74-7.53
		c-0.87-0.24-1.91-0.46-2.87,0.45c9.35,3.49,18.81,6.31,28.38,9.1c-3.75,0.03-7.44,0.71-11.24-0.26c-4.31-1.09-8.82-0.8-13.23-1.26
		c-14.82-1.56-29.44-4.09-43.96-7.36c-11.44-2.58-22.87-5.15-34.29-7.82c-6.98-1.63-13.62-4.39-20.41-6.65
		c-0.66-0.22-1.23-0.34-1.9-0.16c8.93,5.56,69.97,25.71,81.26,23.17c-3.91-0.3-7.45-2.06-11.55-2.56c2.28-1.92,4.07-0.05,5.94,0.21
		c11.66,1.62,23.27,3.72,34.98,4.79c5.39,0.49,10.88,0.87,16.26,1.39c12.95,1.24,25.9,1.13,38.8,0.64
		c10.47-0.39,21.02-0.93,31.41-2.74c0.49-0.08,1-0.09,1.5-0.07c11.12,0.5,22.18-1.05,33.29-1.22c9.25-0.14,18.55-0.36,27.79-0.92
		c10.37-0.63,20.74-1.28,31.1-2.03c11.36-0.83,22.85-1.31,33.72-5.73c5.43-2.21,11.29-3.4,17.29-3.09c1.65,0.09,3.18-0.35,4.8-0.72
		c-4.74,3.77-9.98,6.63-15.57,8.62c-10.9,3.89-21.37,8.8-32.07,13.17c-12.86,5.25-26.18,8.95-39.72,11.79
		c-7.67,1.61-15.51,2.43-23.34,3.17c-5.35,0.51-10.65,1.63-15.97,2.49c-0.65,0.1-1.28,0.4-1.92,0.41
		c-11.1,0.19-22.23,2.17-33.28,0.87c-9.13-1.08-18.31-1.28-27.45-2.55c-11.83-1.64-23.54-3.61-35.18-6.25
		c-4.36-0.99-8.01-3.58-12.54-4.39c-12.01-2.16-23.92-4.88-35.79-7.73c-6.79-1.63-13.45-3.83-20.12-5.93
		c-12.41-3.91-24.76-7.97-37.56-10.48c-19.99-3.93-38.9-11.83-58.85-15.95c-12.43-2.57-24.8-5.55-37.04-8.82
		c-13.54-3.62-27.34-5.96-40.92-9.36c-14.35-3.59-28.85-6.91-43.48-9.19c-15.49-2.41-30.81-5.82-46.31-7.95
		c-12-1.65-24.02-3.39-36.13-4.44c-10.19-0.88-20.23-3.51-30.35-5.32c-8.51-1.52-17-3.21-25.56-4.42
		c-11.03-1.56-22.09-3.04-33.19-3.9c-5.58-0.43-11.13-1.2-16.78-1.29c-12.33-0.2-24.62-1.58-36.9-2.81c-0.99-0.1-2-0.1-3-0.04
		c-10.63,0.69-21.26-0.29-31.78-1.23c-14.63-1.3-29.25-1.03-43.8-0.49c-8.92,0.33-18.09-0.17-26.94,2.5
		c-2.9,0.88-6.38,0.64-9.44,0.07c-6.76-1.26-13.37-1.07-20.14-0.01c-4.85,0.76-9.87,0.65-14.79,0.93
		c-11.19,0.64-22.26,2.2-33.35,3.48c-5.18,0.6-10.16-0.71-15.45,0.46c-8.57,1.89-17.38,2.89-25.94,4.92
		c-20.9,4.94-41.65,10.53-62.61,15.12c-14.7,3.22-28.78,8.11-42.96,12.97c-14.91,5.11-30.23,9.03-45.27,13.81
		c-20.32,6.45-40.55,13.19-60.8,19.85c-14.68,4.83-29.48,9.29-44.23,13.87c-12.11,3.76-24.31,7.24-36.45,10.88
		c-21.04,6.3-42.12,12.48-63.9,15.92c-7.77,1.23-15.48,2.47-23.36,3.16c-8.87,0.77-17.77,1.11-26.59,2.01
		c-10.81,1.1-21.57,0.82-32.32,0.6c-9.98-0.21-20.08-0.36-29.9-2.82c-4.41-1.1-5.15-2.51-3.23-6.5
		c4.95-10.28,11.85-19.16,19.35-27.69c3.35-3.81,7.03-7.36,9.9-11.62c2.67-3.97,6.93-6.45,10.3-9.79c7.2-7.13,14.93-13.8,23.1-19.95
		c13.5-10.17,27.73-19.1,42.96-26.31c9.55-4.52,19.52-8.18,29.35-12.09c9.52-3.79,19.04-7.61,28.69-11.04
		c13.18-4.68,26.96-7.48,40.15-12.09c11.07-3.86,22.04-7.91,33.58-10.23c4.52-0.91,8.07-4.13,12.37-5.66
		c7.86-2.8,16.18-3.64,24.18-5.91c7.46-2.11,15.06-3.78,22.63-5.47c14.61-3.27,29.15-7.08,43.91-9.42
		c11.62-1.84,23.29-3.82,35.14-4.37c6.49-0.3,12.87-2.19,19.34-3.17c4.71-0.71,9.45-0.7,14.15-1.55c10.32-1.86,20.9-0.35,31.25-1.33
		c12.7-1.2,25.43-1.16,38.1-2.04c14.71-1.02,29.4-1.37,44.11-1.91c17.82-0.66,35.65-2.39,53.47-1.68
		c10.44,0.42,20.93,0.07,31.28,1.05c7.31,0.69,14.61-0.01,21.81,0.87c11.22,1.36,22.56,1.38,33.74,3.65
		c6.69,1.36,13.58,2.22,20.54,2.41c6.66,0.18,13.27,1.8,19.93,2.61c7.14,0.87,14.26,1.81,21.36,3.08
		c6.74,1.21,13.44,2.56,20.12,4.04c8.43,1.87,17.02,2.92,25.42,5c9.63,2.39,19.38,4.34,29.1,6.35c12.27,2.54,24.39,5.79,36.77,7.89
		c8.15,1.38,16.13,3.9,24.13,6.1c23.05,6.34,45.95,13.24,68.67,20.7c14.52,4.77,29.1,9.35,43.77,13.69
		c8.38,2.48,16.44,6.13,24.83,8.72c13.68,4.22,27.31,8.57,41.05,12.58c10.14,2.97,20.25,6.06,30.6,8.34
		c10.16,2.23,20.2,5.02,30.26,7.72c15.86,4.25,31.77,8.38,47.53,13.02c28.72,8.45,57.42,16.95,85.67,26.9
		C2752.5,158.13,2755.9,159.19,2759.27,160.31z"/>
	<path class="st0" d="M2885.82,879.91c21.06-6.34,37.83,4.13,54.57,13.93c5.99,3.51,11.08,8.56,14.19,16.36
		c-9.74-7.79-19.26-13.49-30.92-15.4c-11.78-1.93-22.66,0.77-33.5,4.76c6.67-0.86,12.98-3.48,19.83-3.84
		c7.08-0.38,13.97-0.05,20.59,2.28c6.61,2.33,13.06,5.17,17.98,10.61c-10.99,5.65-20.59,14.2-32.84,18.15
		c4.21-6.92,9.73-12.62,15.84-18.78c-10.73,2.73-19.41,7.89-28.07,12.96c-10.69,6.26-21.35,12.59-31.17,20.26
		c-8.3,6.48-15.18,14.05-20.02,23.41c-0.3,0.59-0.46,1.23-1.04,1.62c-0.13,0.09-0.31,0.1-0.98,0.31c0.77-8.28,3.53-15.66,6.6-23.09
		c3.04-7.37,7.17-14.08,11.23-20.86c-5.35,4.66-10.12,8.94-19.25,37.38c-4.37,13.62-3.36,28.09-3.69,42.8
		c-2.92-2.44-3.89-5.53-5.05-8.4c-2.58-6.38-5.73-12.49-8.98-18.52c-5.24-9.73-8.7-20.08-10.63-30.83
		c-0.71-3.95-1.29-8.11-1.33-12.26c-0.13-15.04-0.36-30.09,3.12-44.85c0.74-3.13,2.21-6.11,3.52-9.08c1.37-3.09,2.96-6.08,4.71-9.64
		c-4.26,2.97-10.86,14.6-15.15,27.66c-3.26,9.94-5.45,20.21-7.37,30.59c-0.63-4.05-1.32-7.97-1.75-11.91
		c-1.75-16.02,3.1-30.86,8.45-45.58c3.55-9.77,9.01-18.45,15.46-26.55c1.11-1.39,1.87-3.06,2.71-4.64
		c3.72-6.93,9.96-10.97,16.44-14.91c10.42-6.33,21.68-10.46,33.35-13.64c3.83-1.04,7.45,0.46,11.02,1.57
		c10.66,3.3,21.61,5.66,32.01,9.85c-19.25-13.24-41.15-19.36-63.78-23.92c1.62-2.99,4.8-2.03,6.94-2.4
		c13.15-2.27,26.41-4.53,39.81-3.29c12.27,1.13,23.55,5.17,32.84,13.71c0.47,0.43,1.04,0.74,1.59,1.07c0.1,0.06,0.3-0.06,0.95-0.22
		c-9.02-9.53-19.87-16.5-29.68-24.64c-9.74-8.08-19.77-16.03-31.47-21.65c4.48,0.66,8.92,0.53,13.32,1.12
		c17.2,2.32,30.54,12.6,44.47,21.58c8.93,5.76,17.41,12.18,25.29,19.35c-9.13-11.62-21.87-19.03-33.42-28.49
		c29.03,7.44,46.93,25.37,53.99,54.23c0.89-0.2,0.58-0.92,0.61-1.41c0.03-0.48-0.13-0.96-0.22-1.45
		c-1.58-8.48-3.14-16.97-4.74-25.45c-1.79-9.43-2.37-19.15-6.02-28.15c-2.56-6.31-4.62-12.83-7.49-19.34
		c4.42,3.3,9.01,6.39,13.21,9.95c4.41,3.73,8.81,7.49,12.85,11.67c9.74,10.06,17.65,21.29,19.97,35.29
		c2.62,15.85,2.88,31.72-3.52,47.07c-3.63,8.69-6.64,17.65-9.89,26.5c-0.15,0.41,0.07,0.95,0.22,2.63
		c2.52-6.19,4.56-11.37,6.73-16.5c5.39-12.75,9.49-26.05,16.04-38.3c2.45-4.58,5.6-8.8,7.42-13.71c1.73-4.65,2.27-9.57,2.41-14.46
		c0.23-8.33,0.13-16.66,0.04-24.99c-0.06-4.87-1.86-9.67-0.66-14.71c5.02,4.75,7.42,11.07,10.82,16.74
		c6.99,11.65,12.63,23.97,17.88,36.48c3.85,9.17,5.6,18.71,6.02,28.61c0.5,11.79-0.98,23.33-4.13,34.61
		c-2.05,7.35-4.84,14.49-7.4,21.68c-0.29,0.82-0.6,1.49-0.25,2.32c6.44-8.62,13.27-33.84,15.06-55.91
		c2.26,4.59,2.45,9.17,2.57,13.53c0.33,11.99,0.5,24.01,0.03,35.99c-0.75,19.11-4.97,37.51-13.24,54.85
		c-5,10.49-11.45,20.12-17.56,29.98c-6.17,9.95-15.61,14.78-25.56,18.89c-8.02,3.31-16.4,5.95-25.25,6.73
		c8.04-3.78,16.89-5.65,25.37-9.71c-4.09-4.34-8.16-1.52-11.61-1.24c-3.08,0.24-6.21,0.46-9.32,0.62c-3.23,0.17-4.06-1.93-4.13-4.64
		c-1.71-0.82-3.32-0.3-4.64,0.7c-8.01,6.03-16.67,10.81-26.17,14.05c-0.57,0.19-1,0.79-1.38,1.59c15.03-4.47,29.98-9.16,45.82-9.45
		c-19.37,7.96-39.39,13.86-59.63,19.15c4.07,0.87,7.79-0.84,11.47-1.65c11.95-2.63,24.05-4.4,36.03-6.8
		c12.49-2.5,24.86-5.42,35.65-12.81c1.92-1.31,4.12-2.54,6.74-3.04c-1.07,3.53-4.34,4.76-6.6,6.77
		c-11.81,10.55-22.85,22.19-37.82,28.56c-11.25,4.79-22.51,9.35-34.9,10.72c-14.89,1.65-29.52,1.51-43.9-3.15
		c-0.87-0.28-1.5-0.62-1.97-1.93c3.91,0.51,7.64,0.81,11.37,1.6c-3.09-2.44-6.18-4.75-10.5-6.2c2.69-0.44,3.92-2.31,5.92-3.06
		c-0.47-0.76-0.53-1.15-1.23-0.77c-9.1,5.01-18.77,3.63-28.45,2.58c-7.68-0.83-15.3-2.22-23.06-2.23c-2.88,0-5.41,0.92-7.72,2.4
		c15.47-0.86,30.7,0.37,44.88,6.94c14.2,6.57,25.74,16.67,34.92,29.64c-23.39-13.33-48.45-22.5-74.61-30.83
		c2.3,2.25,4.55,3.23,6.98,3.89c6.07,1.64,11.56,4.38,16.27,8.58c9.1,8.13,18.69,15.71,27.33,24.35
		c4.97,4.97,9.46,10.42,14.48,15.34c6.35,6.21,13.01,12.1,19.59,18.18c-0.71,0.91-1.83,0.66-2.57,0.4
		c-14.25-5.08-28.83-9.26-42.49-15.99c-9-4.43-15.72-11.09-21.49-19.04c-2.64-3.64-5.6-7.04-8.75-10.38
		c3.76,6.04,4.89,13.17,8.66,19.25c3.76,6.06,8.41,11.5,11.92,17.79c-9.3-3.61-15.14-10.87-20.51-18.79
		c-5.46-8.05-8.03-16.86-7.53-26.66c-2.77,4.25-0.29,25.7,4.09,40.05c-3.58-0.86-5.01-1.98-7.82-7.3
		c-4.34-8.2-8.76-16.56-9.74-25.84c-0.77-7.31-1.04-14.83,0.82-23.09c-3.22,4.4-4.57,8.67-6.05,12.85
		c-1.51,4.27-2.88,8.59-4.53,13.56c-3.15-4.8-0.58-9.17,0.15-13.01c0.82-4.27,1.19-8.6,2.09-12.93
		c-3.71,5.63-4.25,13.05-10.64,17.66c0.24-4.32,2.35-7.77,2.03-11.74c-0.23-2.92-0.52-5.22-3.65-6.13
		c-1.87-0.55-3.03-1.65-2.21-3.63c0.78-1.88,2.22-0.81,3.68-0.72c4.09,0.24,8.33,1.05,12.31-0.51c2.2-0.86,3.81,0.61,5.71,0.81
		c1.3,0.14,2.53,1.91,4.2-0.36c-5.08-1.23-9.43-3.68-15.01-1.88c-5.65,1.82-11.51-0.19-17.17-1.42c-1.17-0.25-2.22-0.39-3.42-0.2
		c1.21,1.68,3.32,1.96,5.39,3.62c-3.98-0.29-7.01-1.59-10.1-2.45c-17.4-4.88-34.69-10.3-51.13-17.71
		c-16.36-7.37-32.78-14.66-48.53-23.45c-19.55-10.91-38.27-23.08-57-35.24c-10.98-7.12-21.49-14.91-31.39-23.54
		c-6.77-5.9-14.17-11.07-21.26-16.6c-1.04-0.81-1.99-1.77-2.91-2.73c-11.42-11.97-24.22-22.38-36.85-33.02
		c-7.54-6.36-15.26-12.52-22.59-19.18c-11.29-10.26-22.67-20.42-35-29.54c-10.25-7.58-19.93-15.98-30.52-23.1
		c-8.11-5.45-16.69-10.19-25-15.34c-3.77-2.34-7.24-5.11-10.43-8.21c-1.63-1.59-3.11-3.38-5.65-3.47c-1.41,1.16,0.88,2-0.05,3.51
		c-4.7-2.65-5.93-8.24-10.08-11.4c1.5,3.62,2.99,7.23,4.9,11.85c-5.01-2.74-8.05-6.37-11.18-9.78
		c-8.47-9.23-16.36-18.95-26.06-27.08c-5.32-4.47-10.41-9.31-15.67-14.03c7.05,1.35,12.24,6.61,19.74,8.82
		c-3.69-9.53-10.79-15.43-17.89-21.23c-7.05-5.76-14.74-10.65-22.85-15.34c2.25-1.15,4.52,0.22,6.75-1.31
		c-2.72-3.41-6.78-4.35-10.27-6.13c-5.15-2.63-10.95-2.96-16.47-4.27c-3.44-0.82-5.11-3.22-6.37-6.07c-1.49-3.38-2.1-7.18-5.18-9.85
		c4.83,0.3,8.86,2.32,12.91,4.14c8.05,3.62,15.88,7.73,23.96,11.25c10.2,4.44,19.98,9.72,29.74,14.99
		c13.5,7.29,26.38,15.64,38.85,24.6c9.68,6.96,19.5,13.74,28.99,20.95c7.82,5.94,15.73,11.74,23.26,18.09
		c7.78,6.56,15.21,13.52,23.33,19.7c4.05,3.08,7.48,6.97,11.36,10.34c9.48,8.25,18.53,17.01,27.85,25.43
		c8.93,8.06,17.9,16.09,26.92,24.06c5.79,5.11,11.25,10.52,16.76,15.9c10.65,10.43,22.09,20.01,32.76,30.44
		c8.41,8.22,18.37,14.84,27.22,22.65c11.33,10,23.27,19.16,35.77,27.58c6.76,4.55,14.1,8.27,20.61,13.12
		c12.37,9.22,25.72,16.79,39.67,23.08c20.76,9.37,41.42,19.16,63.44,25.43c8.6,2.45,17.17,5.18,25.94,6.8
		c6.24,1.16,12.55,2.31,18.98,2.63c8.87,0.45,17.66,2.7,26.6,1.85c15.1-1.43,30.48-0.56,44.99-6.76
		c10.46-4.47,19.98-10.28,29.27-16.7c4.18-2.89,6.47-7.41,10.32-10.5c0.72-0.58,0.64-1.46,0.28-2.29c-3.28,2.48-5.43,6.15-9.36,8.31
		c3.65-11.72,3.21-23.11-1.54-34.6c6.25,3.97,10.42,9.19,15.58,19.29c3.49-1.98,4.78-5.76,7.01-8.72
		c6.68-8.87,13.36-17.79,16.78-28.58c2.33-7.36,3.84-14.88,3.8-22.65c-0.03-5.82,1.41-11.51,1.44-17.38
		c-8.65,21.52-17.33,42.99-24.6,65.06c-3.18-7.36-3.88-15.11-5.8-22.55c-3.78-14.68-9.39-28.51-18.5-40.7
		c-4.2-5.62-10.28-9.2-16.34-12.45c-9.78-5.24-19.97-9.69-31.01-11.54C2897.28,875.09,2891.35,876.37,2885.82,879.91z
		 M2976.42,941.8c0.75-1.74,1.55-2.83,1.68-3.99c1.46-13.28,5.94-26.28,3.17-39.96c-1.42-7.03-2.56-14.12-5.48-20.7
		c-4.19-9.43-10.65-17.58-15.47-26.65c-4.47-8.42-12.34-12.85-19.81-17.84c-0.65-0.44-1.26-1.07-2.09,0.01
		c3.96,2.88,8.35,5.22,11.75,8.78c9.28,9.73,13.85,22,17.96,34.41c3.79,11.43,7.09,23.03,8.51,35.04
		c0.61,5.12,0.78,10.27,0.75,15.46C2977.37,931.32,2975.62,936.13,2976.42,941.8z M2965.94,991.34
		c-4.66,5.68-9.88,10.57-15.73,15.29C2958.35,1006.73,2964.84,1000.3,2965.94,991.34z M2401.93,748.83
		c7.93,4.17,16.4,5.07,23.79,8.98C2420.7,752.84,2406.81,747.56,2401.93,748.83z"/>
	<path class="st0" d="M1931.84,849.92c0.79-7.09,4.95-9.68,11.11-7.01c1.94,0.84,3.57,0.5,5.57,0.27c3.71-0.43,6.42-3.2,10.08-3.48
		c0.98-0.08,1.51-1.85,1.32-2.31c-1.65-3.85,1.52-4.96,3.69-6.02c4.79-2.34,9.91-3.43,15.34-3.74c3.99-0.23,6.08,0.38,6.69,4.67
		c0.25,1.74,2.23,2.38,4.25,2.76c4.46,0.84,5.46,2.88,3.9,6.56c13.69-3.42,30.42-16.42,32.37-25.18c-2.78-1.82-5.35,1.94-8.19-0.04
		c0.13-2.15,2.45-2.39,3.95-3.33c4.62-2.89,9.54-5.59,10.53-11.6c1.35-8.25,6.33-13.6,13.2-17.63c0.7-0.41,1.4-0.98,1.86-1.64
		c2.32-3.35,5.51-3.89,9.4-2.94c1.36,4.21-0.42,8.24-1.07,12.45c5.66,1.04,11.16-0.8,16.73-1.09c4.58-0.24,8.34-5.3,8.68-10.28
		c0.1-1.42,0.43-2.85,1.24-3.65c3.77-3.75,6.45-8.22,9.33-12.62c1.64-2.52,4.68-3.4,7.65-4.25c1.1,1.74,2.13,2.97,1.34,5.39
		c-1.41,4.25,0.54,6.5,4.98,6.75c1.28,0.07,2.76-0.49,3.74,0.77c3.08,3.98,6.69,3.73,10.4,1.17c4.78-3.29,9.26-7.21,12.49-11.87
		c2.27-3.28,4.31-6.77,6.8-9.97c0.91-1.17,2.09-1.36,3.3-2.22c1.66,1.86,3.83,2.63,6.23,2.97c5.95,0.86,11.96,5.62,12.35,11.21
		c0.6,8.72,3.94,16.46,7.01,24.34c3.21,8.23,7.18,16.01,12.25,23.36c4.7,6.81,9.82,13.43,13.98,21.43
		c-4.69-0.8-8.83-1.51-12.98-2.21c-4.06-0.68-7.68-3.02-12.85-3.42c3.22,2.3,5.68,4.04,8.13,5.79c-5.41-0.41-10.66-1.49-15.06-4.72
		c-3.16-2.32-6.33-3.66-10.37-3.76c-7.53-0.18-14.98-1.71-22.31-3.25c-8.23-1.73-15.91-2.13-23.96,1.21
		c-11.74,4.86-23.76,8.99-35.1,14.85c-5.71,2.95-10.44,7.27-16.03,10.32c-3.12,1.71-6.23,3.44-9.22,5.45
		c4.01-0.33,7.57-2.13,12.21-3.8c-4.52,5.74-10.48,7.17-15.61,9.8c-5.07,2.6-11.02,2.89-16.56,4.3c0.08,0.41,0.17,0.83,0.25,1.24
		c6.52,0,13.04,0,19.56,0c-14.32,9.28-29.55,11.34-46.58,6.83c4.73-3.48,9.58-5.43,13.04-10.62c-10.29-0.17-19.4,2.64-29.36,4.28
		c8.27,1.74,15.54-1.31,23.03-1.2c-13.99,8.41-30.05,6.6-45.25,9.25c10.31-0.27,20.5,3.26,30.93-0.33
		c6.29-2.16,10.53,1.14,12.07,7.93c0.42,1.85,1.48,3.53,1.32,5.94c-4.18-2.69-7.77-5.87-12.54-7.28
		c-7.31-2.16-14.34-2.94-21.81-0.41c-5.88,1.99-12.29,1.76-18.45,2.62c-9.87,1.37-18.93-2.19-28.21-4.42
		c-0.77-0.19-1.5-0.64-2.35-0.6c-0.66,0.03-1.31,0.06-2.59,0.12c9.1,4.64,18.85,5.56,28.23,9.42c-3.99,4.4-8.97,5.1-13.62,5.31
		c-13.63,0.63-25.5-4.77-36.59-12.09c-2.42-1.6-4.85-3.3-6.7-5.55c-2.39,1.27-0.72,2.1,0.07,2.99c7.59,8.56,13.45,18.47,22.25,27.56
		c-10.89,0.78-20.52-0.41-29.3-4.17c-8.6-3.68-16.78-8.8-19.64-19.78c8.77,3.7,17.35,6.73,26.17,0.7c-1.63-3.63-4.6-4.08-7.71-4.48
		c-0.08,1.84,2.27,2.15,1.89,4.45c-8.68,1.93-16.26-1.9-24.14-5.15c2.82,7.56,4.86,14.94,1.13,22.98
		c-5.78-3.86-7.32-9.99-10.39-15.22c3.82-6.33,9.75-10.51,15.25-15.1c2.95-2.46,5.1-5.61,7.51-8.47
		c5.48-6.48,11.42-12.64,15.56-20.09c2.05,0.54,3.83,1.19,5.61,1.95c3.92,1.68,5.45,0.7,6.37-3.88c4.25,2.32,8.73,3.02,13.55,2.2
		c0.33-5.5-4.57-6.66-7.87-9.76c4.58-1.95,8.36,1.83,12.46,1.08c3.92-0.71,7.81-1.54,11.9-2.31c-3,2.95-2.44,8.04-7.06,9.92
		c-1.65,0.67-1.25,3.07-0.17,4.76C1924.55,847.62,1927.93,848.79,1931.84,849.92z M1985.88,853.12c3.86,2.07,5.58-1.31,7.93-2.22
		c4.03-1.56,7.29-4.37,9.15-8.56C1998.61,847.75,1990.95,848.05,1985.88,853.12z"/>
	<path class="st0" d="M2887.08,1045.5c21.21,6.83,39.26,18.39,59.45,26.87c-8.61-13.34-20.36-22.99-33.25-32.32
		c5.14-0.17,9.45,1.44,13.85,2.08c8.32,1.23,16.42,2.14,24.94,0.98c9.28-1.26,18.26-3.05,27.13-6.09
		c14.56-4.98,27.38-12.63,39.11-22.56c8.1-6.86,16.05-13.83,23.27-21.56c8.5-9.11,16.01-18.92,22.2-29.88
		c7.62-13.49,15.53-26.91,26.18-38.38c1.47-1.59,1.76-4.45,5.17-4.63c-1.32,4.79-1.02,9.52-0.94,14.22
		c0.19,10.7,1.48,21.29,2.72,31.92c1.36,11.7-0.44,23.05-6.88,33.6c-7.06,11.56-16.19,21.19-25.8,30.46
		c-3.55,3.43-7.82,6.11-11.37,9.57c20.07-12.79,36.56-29.53,51.99-47.56c-1.93,6.73-5.17,12.85-8.47,18.96
		c-3.28,6.07-7.39,11.6-11.91,16.74c-3.78,4.3-8.57,7.74-13.56,10.49c-8.69,4.81-17.11,10.12-26.4,13.88
		c-8.84,3.58-18.08,5.2-27.98,7.13c21.96,2.75,42.69-0.26,63.47-6.84c-1.21,3.35-4.01,4.21-5.95,5.71
		c-4.63,3.58-9.58,6.86-15.02,9.12c-3.34,1.39-7.1,0.54-10.72,1.29c-9.04,1.88-18.26,2.63-27.55,2.21
		c-13.62-0.62-27.11-1.9-40.37-5.34c-8.04-2.08-16.35-3.42-23.52-7.84c-8.4-5.17-17.41-8.89-26.58-12.33
		c-1.17-0.44-2.16-0.65-3.68-0.11c9.1,4.04,18.08,7.59,26.5,12.46c11.58,6.71,23.17,13.3,33.99,21.27
		c5.07,3.73,11.23,6.02,16.99,8.75c4.12,1.95,8.51,3.32,12.59,5.33c5.11,2.52,10.43,3.75,16.07,3.76c4.52,0,9.02,0.76,13.57,0.06
		c1.76-0.27,3.72-0.42,5.12,1.55c-9.46,4.12-19.54,5.98-29.78,7.54c-5.97,0.91-11.89,0.44-17.81,0.9
		c-13.41,1.06-25.99-2.38-38.56-6.4c-12.39-3.97-22.75-11.24-32.92-18.96c-9.63-7.32-19.49-14.37-28.79-22.09
		C2898.31,1055.1,2892.66,1051.1,2887.08,1045.5z"/>
	<path class="st0" d="M1674.35,712.78c4.73,4.19,5.37,10.31,1.91,15.79c-6.32,9.99-7.8,20.91-4.71,32.12
		c1.53,5.53,0.5,10.33-2.4,14.42c-4.2,5.92-8.73,11.81-16.29,15.98c3.69-6.27,5.48-12.15,6.79-18.36
		c1.22-5.76,0.79-11.24-0.79-16.51c-2.49-8.29-3.41-16.66-3.55-25.22c-0.03-1.87,0.87-4.04-1.26-5.71
		c-3.01,1.28-3.25,4.22-3.62,6.82c-0.36,2.51-0.46,5.06-0.16,7.67c0.64,5.56-1.7,10.95-1.23,16.64c-2.31-2.11-2.64-5.15-4.22-7.51
		c-5.54-8.26-10.83-16.64-14.11-26.14c-2.25-6.52-3.22-12.98-2.53-20.01c1.01-10.31,3-20.31,6.14-30.14
		c0.93-2.91,2.74-5.52,2.71-8.77c-6.92,10.3-9.69,22.48-15.45,33.46c-2.6-13.22-1.76-26.24,2.83-38.91
		c4.5-12.42,10.1-24.28,19.89-33.76c-7.38,3.66-13.34,8.97-19.3,14.39c0.43-6.29,4.38-10.37,7.58-15.01
		c3.3-4.78,8.3-7.76,12.69-12.78c-5.15,0.11-6.87,4.72-11.43,5.36c2.89-4.32,7.05-6.11,10.17-9.03c3.43-3.21,8.08-1.79,12.93-3.88
		c-3.28-1.26-6.26,0.1-8.01-2.31c5.3-1.7,9.83-4.94,14.4-8.03c4.01-2.71,5.77-9.02,3.88-13.53c-1.32-3.16-2.77-6.37-4.77-9.11
		c-4.22-5.75-6.59-12.37-9.54-18.71c-2.18-4.71-8.3-8.52-14.28-6.37c-2.5,0.9-5.58,3.11-8.74,1.06c3.72-6.25,5.55-7.25,12.58-7.77
		c2.74-0.2,5.45-0.95,8.14-1.6c11.22-2.72,22.37-5.79,33.68-8.05c2.72-0.55,5.83-2.13,9.59-0.56c-2.57,1.81-4.58,3.45-6.09,5.5
		c-0.53,0.72-1.65,1.65-0.72,2.98c0.92,1.31,1.98,0.21,3.13,0.32c-0.12,2.33-2.44,3.99-1.83,6.47c0.37,1.53,1.84,1.76,2.75,2.6
		c-1.38,4.6,0.51,8.79,0.82,12.92c3.76,0.9,4.21-2.62,7.07-3.95c-1.12,3.22,0.04,5.08,1.44,7.38c2.93,4.83,3.11,10.59,2.77,16.2
		c-0.32,5.34-3.43,9.51-5.76,14.11c-4.44,8.79-11.26,15.36-17.99,22.16c-1.94,1.95-3.47,4.31-5.09,6.36c0.41,2,1.96,2.24,3.73,2.49
		c-6.39,3.22-12.74,3.55-19.49,2.59c-1.24,8.01,5.03,10.2,9.36,13.7c-0.57,2.14-3.63,0.65-4.36,3.31c4.64,3.15,9.78-2.07,15.1,1.18
		c-4.75,4.8-9.92,9.42-12.42,15.95c-2.41,6.29-4.46,12.62-3.83,19.96c4.45-1.96,8.26-4.45,12.36-6.9
		c-5.92,10.98-8.61,22.25-5.65,34.84c3.64-2.07,3.08-6.9,6.8-8.58C1677.15,704.88,1675.25,708.8,1674.35,712.78z"/>
	<path class="st0" d="M2797.09,189.25c9.71-0.41,19.62,0.08,29.19-1.47c11.65-1.88,21.9,1.69,32.45,5.19
		c8.64,2.87,17.41,5.34,26.09,8.09c1.75,0.55,3.91,0.87,4.37,3.52c-1.99,0.72-4.1-1.84-6.13,0.4c3.54,2.52,7.57,3.43,11.41,3.85
		c8.96,0.99,17.85,2.53,26.83,3.43c9.13,0.92,18.32,1.95,27.43,2.46c10.87,0.6,21.9,1.44,32.78-0.64c0.97-0.18,1.99-0.05,2.99-0.07
		c12.33-0.32,24.49-2.08,36.7-3.79c13.61-1.9,26.88-5.16,40.24-8.13c21.14-4.7,42.08-10.06,62.61-17.06
		c16.32-5.57,32.83-10.56,49.19-15.99c21.5-7.13,43.49-12.3,65.58-17.18c9.67-2.13,19.2-5,28.87-7.25c3.39-0.79,6.9,0.53,10.68-2.17
		c-1.35,4.97-5.24,6.12-7.77,8.25c-11.75,9.89-24.81,18.02-37.83,26.08c-19.32,11.96-39.63,21.71-61.88,27.42
		c-18.46,4.74-37.22,8.04-55.71,12.59c-9.32,2.29-19.04,3-28.59,4.38c-30.72,4.42-61.59,2.81-92.39,2.61
		c-11.99-0.08-24.12-0.35-36.09-1.82c-9.29-1.14-18.65-1.64-27.88-3.02c-12.57-1.88-25.06-4.34-37.55-6.73
		c-15.21-2.91-30.18-6.74-45.23-10.26c-16.47-3.85-33.1-7.06-49.33-11.91C2797.65,189.87,2797.18,189.83,2797.09,189.25z"/>
	<path class="st0" d="M1682.64,823.11c-4.08-3.28-6.71-7.47-8.05-12.02c-2.07-7.05-3.38-14.39-3.17-21.8
		c0.18-6.56,1-13.2,2.37-19.51c1.2-5.52,4.92-10.49,7.62-15.88c2.91,1.83,1.83,5.72,4.88,7.01c3.44-1.16,3.43-5.23,6.32-8.11
		c-1.88,7.28-0.29,13.19,2.67,18.93c2.6-0.95,3.5-3.19,4.98-4.86c2.94,2.22,2.19,5.58,2.88,8.24c1.41,5.44,3.44,10.5,6.09,15.42
		c1.57,2.91,3.77,5.27,6.76,6.14c3.05,0.88,4.49,3.11,6.36,5.14c4.91,5.32,8.73,11.54,13.95,16.6c1.85,1.79,3.53,2.75,4.85-0.97
		c2.54,3.55,4.74,6.63,7.15,10.01c2.65-4.08-1.02-7.53,0.4-11.12c7.38,5.15,12.69,12.96,21.98,15.68c-2.06,4.32-5.72,5.95-8.88,8.08
		c-2.71,1.82-5.53,3.47-8.31,5.19c-2.83,1.75-5.15,2.01-8.55,0.11c-9.37-5.24-15.95-13.16-22.51-21.21
		c-3.2-3.93-6.21-8.01-9.35-11.99c-0.47-0.59-0.99-1.39-2.34-0.94c8.02,11.44,17.12,22.11,22.46,35.19
		c-16.27-6.64-25.69-19.82-33.8-34.41c0.08,4.85,2.71,8.69,4.98,12.53c2.4,4.07,3.6,8.6,6.77,13.48c-6.24-2.89-9.38-7.31-11.9-11.8
		c-6.23-11.1-11.83-22.53-14.38-35.19c-0.65-3.21-0.39-6.53-1.49-9.67c-0.29-0.83-0.5-1.54-1.71-2.11
		c1.04,5.74,0.89,11.33,0.63,16.89c-0.34,7.32,0.9,14.53,1.04,21.8C1683.36,819.54,1683.76,821.22,1682.64,823.11z"/>
	<path class="st0" d="M1628.91,439.11c2.77-4.74,8.68-3.25,11.98-6.33c-4.13-2.55-8.59-1.76-12.47-0.52
		c-3.74,1.2-6.96,0.41-9.97-0.86c-4.94-2.08-9.81-4.45-14.33-7.43c-1.73-1.14-2.87-2.61-3.31-4.42c1.51-2.17,4.57-0.67,6.05-2.68
		c-14.12-7.52-23.73-19.03-30.17-33.59c13.14,13.91,30.89,18.96,47.73,25.37c-0.64-2.96-1.46-4.08-4.94-6.63
		c-2.4-1.76-2.4-1.76-2.82-5.88c4.44-0.18,7.6,2.66,10.9,4.72c3.34,2.08,6.79,3.69,10.38,5.26c9.42,4.12,18.17,9.53,26.9,14.95
		c0.91,0.57,1.82,1.4,2.15,2.77c-2.55,0.29-4.62-1.24-7.22-1.85c0.45,1.85,0.72,3.14,2.71,3.02c1.83-0.11,3.68,0.13,5.49-0.08
		c3.27-0.39,6.48-2.05,9.6,0.9c0.82,0.77,2.87,0.25,4.7,0.33c-0.93,3.99-4.26,5.49-6.94,7.24c-6,3.92-12.12,8.42-19.75,7.45
		c-5.45-0.69-10.72,0.26-16.08,0.2C1636.03,441,1632.71,440.64,1628.91,439.11z"/>
	<path class="st0" d="M1941.38,295.75c-4.69,7.92-9.63,15.71-14,23.81c-3.95,7.31-8.55,13.96-14.64,19.66
		c-2.18,2.04-4.94,3.13-6.97,5.48c4.36-0.75,8.27-3.23,12.63-3.57c4.4-0.34,8.84-0.07,13.3-0.07c-0.12,2.17-1.87,2.22-2.89,2.65
		c-10.46,4.36-20.51,9.24-29.02,17.06c-2.84,2.61-6.71,5.7-11.17,1.55c-0.78-0.72-2.53-0.39-3.76-0.54
		c-1.02-1.26-0.31-2.48,0.33-3.72c-2.03-0.79-3.01-2.15-5.57-1.35c-4.17,1.3-6.73-0.98-7.62-5.27c-0.07-0.34-0.73-0.56-1.45-1.07
		c10.55-6.69,21.81-12.25,29.88-22.01c7.8-9.43,15.17-19.2,22.53-29.03c-3.04,6.79-6.06,13.55-11.86,19.65
		c4.17-0.54,6-3.28,8.1-5.44c2.2-2.26,4.81-4.07,7.27-5.91c2.69-2.01,4.65-4.76,7.39-6.55
		C1936.43,299.41,1938.45,297.13,1941.38,295.75z"/>
	<path class="st0" d="M1838.93,313.74c8.39-11.02,17.78-21.1,28.22-30.36c-2.36,5.46-4.38,11.04-6.83,16.42
		c-3.39,7.42-6.92,14.82-12.35,21.05c-2.03,2.34-0.94,5.13-1.48,7.98c3.16-0.43,6.35-2,9.85,0.51
		c-13.92,4.71-22.36,15.29-30.5,26.45c0.64-4.35-2.92-7.1-2.78-10.67c-1.9-1.23-3.57-0.35-4.84-0.34
		c-6.11-7.21-1.59-12.1,3.56-16.67c8.82-7.83,15.46-17.16,19.5-28.22c1.27-3.46,3.13-6.82,3.11-10.7c0-0.96,0.67-1.46,1.52-1.72
		C1845.88,292.59,1845.69,302.01,1838.93,313.74z"/>
	<path class="st0" d="M1659.98,399.04c7.55,2.97,14.68,6.84,22.48,8.93c-1.84-2.08-0.51-5.16-3.47-7.01
		c8.25-2.83,14.26,2.76,21.09,3.08c7.24,0.34,13.06,4.71,19.43,7.33c-3.15,2.13-5.96,4.94-9.6,6.59c-4.01,1.82-8.06,3.08-12.57,2.59
		c-2.68-0.29-5,1.43-7.65,1.89c-9.01,1.58-19.58-1-24.2-8.99c-1.54-2.66-4.53-4.09-5.89-6.89
		C1658.38,404.01,1657.13,401.43,1659.98,399.04z"/>
	<path class="st0" d="M2929.47,1001.39c5.26-4.52,10-9.46,14.18-15.06c4.24-5.69,5.82-12.18,7.67-18.9
		c4.49,9.04,2.9,17.37-1.1,25.75c-2.4,5.03-6.89,7.32-11.29,9.74c-7.56,4.15-15.22,8.21-23.9,9.57c-4.02,0.63-8.11,0.71-12.1,1.76
		c-0.12-0.33-0.25-0.66-0.37-0.99c11.46-7.57,22.93-15.14,34.81-22.99C2935.26,994.64,2931.63,997.46,2929.47,1001.39z"/>
	<path class="st0" d="M2973.46,1066.51c26.41,6.59,52.91,8.89,80.46,2.94c-2.95,2.56-13.84,7.36-18.33,8.45
		c-10.97,2.66-22.11,3.32-33.35,3.04c-2.35-0.06-4.73-0.59-6.66-1.45C2987.76,1075.98,2980.77,1070.95,2973.46,1066.51z"/>
	<path class="st0" d="M1705.66,444.19c4.78-8.35,7.94-16.11,10.21-24.23c0.53-1.91,1.99-2.9,3.7-3.61
		c3.68-1.54,7.14-3.38,10.12-6.13c2.26-2.09,4.99-3.54,8.43-4.12c0.9,4.46-2.45,7.41-4.24,10.5
		C1727.32,427.94,1720.65,439.46,1705.66,444.19z"/>
	<path class="st0" d="M1673.5,446.22c-0.48-1.04-1.39-2.12,0.29-3.2c4.38-2.8,7.29-7.4,12.3-9.58c2-0.87,4.14-2.26,5.45-4.71
		c2.35-4.38,6.88-5.38,11.48-5.73c1.91-0.14,3.88,0.31,6.15-1.66c-1,3.63-1.61,6.23-2.43,8.77c-3.06,9.5-11.57,11.84-19.59,14.83
		C1682.73,446.6,1678.05,445.59,1673.5,446.22z"/>
	<path class="st0" d="M2498.17,1233.84c-0.7-13.86,10.74-32.15,23.65-38.63c1.31,2.49,0.77,5.02,0.02,7.48
		c-0.67,2.18-1.36,4.34-1.83,6.59c-0.58,2.76-2.01,4.92-4.87,6.29c-5.71,2.75-8.75,8.39-12.66,13
		C2501.06,1230.24,2499.26,1231.7,2498.17,1233.84z"/>
	<path class="st0" d="M1737.7,1144.57c4.16-6.06,5.66-13.69-3.24-20.66c5.22-5.1,12.46-6.44,15.66-2.35
		c2.76,3.54,5.13,7.58,5.23,12.4c0.02,1,0,1.99,0,3.84C1748.54,1137.47,1744.35,1144,1737.7,1144.57z"/>
	<path class="st0" d="M2201.83,1179.63c-1.69-7.13,1.58-11.71,4.97-15.32c5.13-5.47,11-10.39,18.62-12.55
		c2.14-0.61,3.99-1.72,5.66,0.65c1.53,2.17,1.83,7.19,0.27,8.82c-1.68,1.75-3.59,3.47-6.15,3.63
		C2215.22,1165.5,2206.69,1168.54,2201.83,1179.63z"/>
	<path class="st0" d="M1886.96,1155.53c-3.7-2.49-7.37-4.93-11.01-7.4c-3.14-2.13-6.75-3.09-10.29-4.27
		c-5.65-1.9-8.41-5.77-8.16-11.25C1873.66,1128.28,1885.25,1142.34,1886.96,1155.53z"/>
	<path class="st0" d="M2460.83,1217.98c-1.88-4.98,0.49-8.78,2.57-12.4c6.96-12.11,8.08-12.57,20.84-17.77
		c2.83,3.12,2.75,6.76,1.22,10.29c-1.48,3.41-3.71,6.23-8.18,5.81c-7.13-0.67-9.52,5.33-13.2,9.53
		C2462.94,1214.75,2462.97,1216.85,2460.83,1217.98z"/>
	<path class="st0" d="M2573.04,1196.92c3.58,8.1,1.89,15.12-3.48,20.91c-4.27,4.6-7.98,9.51-11.47,14.66
		c-0.25,0.37-0.75,0.57-1.16,0.87C2553.86,1224.28,2564.42,1205.17,2573.04,1196.92z"/>
	<path class="st0" d="M1734.05,403.97c-3.59,2.2-7.33,4.49-11.14,6.82c-0.58-1.47-0.73-3.21-1.68-4.04
		c-5.52-4.86-4.6-11.95-6.6-18.02c-0.32-0.99,0.06-1.59,0.7-2.15c0.84-0.74,2.01-0.93,2.73-0.2c2.38,2.4,6.08,3.03,7.83,6.43
		c0.91,1.76,2.68,3.26,4.69,4.28C1733.19,398.4,1734.37,400.7,1734.05,403.97z"/>
	<path class="st0" d="M1708.24,1159.8c0.32,4.29,0.52,8.54-2.74,11.98c-1.12,0.25-1.87-0.25-2.7-0.92
		c-6.45-5.18-13.68-3.81-18.55,3.15c-1.38,1.98-1.82,4.44-3.57,6.49C1679.41,1166.14,1694.88,1154.74,1708.24,1159.8z"/>
	<path class="st0" d="M2185.44,1156.24c4.84-13.73,16.03-18.77,29.31-21.17c0.09,1.1-1.1,1.47-1.08,2.04
		c0.17,5.89-4.48,8.15-8.22,11.04c-1.13,0.87-2.4,1.83-3.97,1.72C2195.07,1149.42,2190.3,1152.79,2185.44,1156.24z"/>
	<path class="st0" d="M2978.28,962.27c4.94-16.18,9.94-32.34,17.54-48.32C2998.22,929.7,2988.89,948.54,2978.28,962.27z"/>
	<path class="st0" d="M1689.21,1140.88c-3.04-1.7-5.73-2.95-5.93-6.59c-0.12-2.1-1.56-2.53-3.57-2.18
		c-4.92,0.85-9.76,1.75-12.87,7.45c0.56-4.69,2.47-7.31,6.21-8.48c2.81-0.88,5.61-1.73,8.2-3.13c6.02-3.26,11.49-0.99,17.33,1.55
		C1695.99,1133.85,1691.33,1136.1,1689.21,1140.88z"/>
	<path class="st0" d="M2469.71,1192.01c0.1-7.69,8.81-16.94,15.94-17.04c1.44,2.3,1.07,4.61,0.04,7.09c-1,2.39-2.33,4.3-5.01,4.64
		c-2.04,0.26-3.67,1.37-5.42,2.21C2473.51,1189.76,2471.86,1190.8,2469.71,1192.01z"/>
	<path class="st0" d="M1842.14,889.61c1,7.09-1,13.55-3.95,20.36c-2.26-1.99-3.38-4.29-3.79-6.71c-0.43-2.6-4.27-4.21-2.61-6.89
		c1.17-1.9,3.91-2.78,5.81-4.29C1839,890.97,1840.08,889.44,1842.14,889.61z"/>
	<path class="st0" d="M2881.62,1015.15c11.81-3.52,22.24-9.2,30.97-18.04c-0.39,3.81-6.21,10.8-12.15,14.76
		C2896.22,1014.67,2888.89,1016.17,2881.62,1015.15z"/>
	<path class="st0" d="M1718.93,1015.58c-1.75-1.68-1.28-4.2-3.03-5.75c-0.95-0.84-0.81-2.21,0.19-3.1c2.75-2.45,3.2-5.78,3.45-9.45
		C1725.21,1005.48,1724.09,1010.56,1718.93,1015.58z"/>
	<path class="st0" d="M1698.74,1121.51c5.7-3.92,11.33-7.56,18.49-3.95c0.74,3.58-3.98,4.03-4.17,8.35
		C1709.51,1117.5,1704.19,1119.45,1698.74,1121.51z"/>
	<path class="st0" d="M1707.76,985.25c7.61,4.11,5.13,11.07,5.55,17.71c-5.3-2.93-5.22-2.91-4.12-7.65
		C1709.99,991.86,1709.92,988.45,1707.76,985.25z"/>
	<path class="st0" d="M2878.14,1071.61c4.73,3.06,8.25,8.69,7.87,12.49C2883.18,1079.6,2880.66,1075.61,2878.14,1071.61z"/>
</g>
</svg>
