<?xml version="1.0" encoding="utf-8"?>
<!-- Generator: Adobe Illustrator 24.0.2, SVG Export Plug-In . SVG Version: 6.00 Build 0)  -->
<svg version="1.1" id="Layer_1" xmlns="http://www.w3.org/2000/svg" xmlns:xlink="http://www.w3.org/1999/xlink" x="0px" y="0px"
	 viewBox="0 0 1423.91 1183.6" style="enable-background:new 0 0 1423.91 1183.6;" xml:space="preserve">
<g>
	<path d="M703.87,959.55c0.36-2.2-1.45-3.14-2.65-4.41c-10.62-11.23-21.96-21.76-33.85-31.55c-10.31-8.5-20.82-16.94-32.41-23.76
		c-5.87-3.45-8.14-8.85-9.17-15.2c-1.18-7.25-2.37-14.53-4.02-21.68c-1.6-6.92-2.22-13.97-2.82-20.96
		c-1.6-18.82-3.22-37.72-1.98-56.61c0.69-10.5,1.25-21.03,2.43-31.54c1.28-11.44,3.61-22.72,4.56-34.21
		c0.64-7.77,2.45-15.49,4.25-23.11c2.51-10.65,5.59-21.16,8.23-31.77c0.79-3.16,1.38-6.5,1.28-9.73c-0.58-18.91,1.56-37.5,6-55.86
		c1.23-5.06-0.71-9.88-1.6-14.71c-2.52-13.73-6.25-27.26-7.06-41.25c-0.62-10.63-1-21.29,0.27-31.93
		c0.69-5.81-0.19-11.72,0.63-17.45c0.41-2.88-0.22-4.86-1.65-7.23c-2.73,2.12-5.51,4.02-7.96,6.13c-5.94,5.13-12.44,5.44-19.53,3.73
		c-1.27-0.31-2.66-0.1-3.98-0.21c-11.03-0.91-14.06-6.69-12.93-16.08c1.29-10.72,3.22-21.33,6.9-31.53
		c1.76-4.88,3.52-9.78,5.63-14.51c4.33-9.68,8.7-19.36,13.42-28.86c4.5-9.06,7.36-18.84,12.05-27.72
		c4.61-8.73,10.49-16.79,19.24-22.14c5.04-3.09,10.23-4.75,16.41-4.55c4.73,0.15,9.62-1.54,13.63-4.73
		c1.18-0.94,1.51-2.01,1.53-3.43c0.09-5.99-0.8-11.98-1.87-17.75c-1.18-6.37-4.6-12.19-9.65-17.19c-5.37,4.21-9.23,9.63-13.08,14.94
		c-4.71,6.51-14.79,9.75-20.23,0.8c-0.53-0.87-1.03-1.6-1.85-2.2c-7.69-5.58-10.8-13.44-11.25-22.64
		c-0.38-7.63,0.33-15.13,2.48-22.48c0.58-1.98,0.97-3.92-0.67-5.56c-4.88-4.86-4.7-10.06-0.87-15.3c0.76-1.04,0.52-1.75,0.44-2.65
		c-0.83-8.62-1.42-17.15,1.2-25.72c0.9-2.94-0.23-6.52-0.47-9.8c-0.39-5.47,1.71-10.42,3.25-15.49c0.19-0.63,0.81-1.02,2.03-0.87
		c0.88,2.16,0.31,4.68,0.63,7.06c0.56,4.23,1.56,5.37,5.37,5.92c3.63,0.53,6.65-1.14,7.86-4.57c1.16-3.29,1.67-6.77,2.61-10.13
		c3.83-13.7,8.22-27.22,16.62-38.82c8.83-12.19,18.89-23.25,33.61-28.72c1.23-0.46,2.35-1.2,3.91-1.58
		c-13.44,14.83-21.71,32.47-29.05,52.05c3.9-2.86,7.67-4.47,9.57-7.32c2.31-3.45,5.56-1.74,8.15-3.33
		c-3.29,7.79-8.91,14.19-10.42,22.63c1.79,0.37,2.81-1.02,4.25-1.31c1.08,0.74,0.1,2.15,0.84,3.08c0.24-0.05,0.54-0.04,0.76-0.17
		c0.28-0.16,0.52-0.41,0.75-0.65c2.56-2.56,2.45-6.76,5.41-9.02c3-2.29,5.5-5.14,7-8.43c2.87-6.3,9.34-8.35,13.88-12.63
		c1.91-1.8,4.35-3.27,6.4-4.94c6.42-5.21,13.94-8.18,21.29-11.54c5.46-2.49,11.33-3.7,17.15-5c2-0.45,3.96-0.08,5.84,1.51
		c-2.66,2.04-5.62,3.83-7.98,6.22c-2.92,2.96-6.73,4.93-9.25,8.21c-3.4,4.44-8.33,7.04-12.37,10.7c-1.62,1.47-2.73,3.21-4.03,4.76
		c-6.41,7.64-13.15,15.06-18.11,24.75c8.5-4.91,17.3-4.2,26.01-4.29c2.31-0.02,4.09,0.87,5.89,2.38c-2.83,3.67-7.1,4.17-10.81,5.65
		c-4.01,1.6-5.79,4-5.88,8.44c0.85,1.05,2.26,0.15,3.36,1c-1.14,2.12-1.17,4.85-3.56,6.46c1.08,1.79,2.16,3.59,3.27,5.43
		c7.51-2.51,15.05-1.45,22.59,0.1c5.42,1.11,10.35,3.58,15.5,5.46c1.86,0.68,2.36,2.15,2.3,3.26c-0.07,1.45-0.92,2.76-3.15,2.95
		c-5.5,0.47-10.95,1.54-16.28,2.99c-2.12,0.58-3.69,2.62-6.49,1.94c4.26,7.05,4.26,7.05-1.56,10.8c8.73,0.03,16.55,1.84,24.27,4.16
		c4.19,1.26,7.91,3.68,12.45,4.24c2.58,0.32,4.28,3.37,6.53,5.02c1.64,1.2,0.05,3.49-2.63,3.72c-4.09,0.35-8.15-0.16-12.31,0.83
		c-3.61,0.86-5.95,3.58-9.31,4.72c-2.36,0.8-0.88,3.06-0.29,4.65c-0.84,1.26-3.92,0.44-2.52,3.68c15.42,0.67,30.27,4.12,42.37,15.11
		c1.23,1.12,1.32,1.14,2.75,5.01c-2.69,1.89-5.96,1.5-8.57,0.78c-5.68-1.57-11.47-0.16-17.18-1.58c-4.3-1.07-7.31,2.88-10.98,5.27
		c1.6,2.49,2.27,5.28,5.82,5.93c2.77,0.51,2.64,2.84,2.06,5.05c-0.94,1.19-2.71-0.08-3.55,1.26c-0.15,0.76,0.25,1.5,0.8,1.67
		c2.16,0.67,4.33,1.85,6.59,1.58c7.46-0.88,13.21,3.41,19.5,6.09c1.59,0.68,2.6,1.98,3.36,3.74c3.28-2.14,5.1-5.56,7.36-8.42
		c9.01-11.37,14.73-24.48,19.15-38.21c0.89-2.78,1.21-5.81,3.41-8.03c0.82-0.82,0.64-1.85,0.64-2.82
		c0.02-10.83,0.66-21.71-0.15-32.48c-1.11-14.81-3.15-29.55-7.29-43.93c-0.97-3.36-2.86-6.63-2.46-10.16
		c0.92-1.13,1.89-0.11,2.75-0.1c-0.07-0.7,0.01-1.13-0.16-1.28c-4.18-3.59-8.58-6.95-12.54-10.76c-9.42-9.08-19.45-17.47-28.9-26.52
		c-6.34-6.07-12.62-12.22-18.97-18.29c-6.21-5.94-11.05-12.99-15.89-20.02c-1.97-2.86-2.15-6.45-3.25-9.67
		c-1.08-3.17-2.31-6.15-4.92-8.34c-2.92-2.46-3.99-6.04-5.09-9.35c-2.53-7.57-5.68-15.02-6.84-22.95
		c-1.1-7.47,1.95-15.28,12.42-15.56c13.83-0.37,26.43,4,39.23,8.07c7.46,2.37,14.5,5.78,21.85,8.44c6.14,2.23,12.45,4.81,18.12,8.24
		c5.22,3.16,10.95,5.08,16.29,7.92c10.34,5.48,21.03,10.32,31.38,15.8c6.8,3.6,13.61,7.16,20.44,10.69
		c11.03,5.69,21.72,11.98,32.59,17.94c12.14,6.65,23.93,13.85,35.66,21.16c13.59,8.47,26.88,17.43,40.29,26.18
		c0.63,0.41,0.37,1.72,1.83,1.49c-0.91-6.41-3.28-12.45-4.91-18.66c-2.47-9.42-5.53-18.7-7.95-28.13c-2.26-8.83-5.08-17.49-8.2-26
		c-2.9-7.89-6.68-15.47-10.4-23.03c-4.3-8.75-8.71-17.46-13.52-25.93c-4.78-8.42-9.05-17.23-16.04-24.21
		c-2.75-2.75-5.67-5.3-8.54-7.92c-5.36-4.9-7.44-9.19-1.81-15.56c3.17-3.58,7.81-2.75,11.89-1.8c6.21,1.44,11.56,4.91,17.16,7.86
		c6.93,3.64,13.68,7.54,20.44,11.46c9.83,5.69,19.78,11.16,29.6,16.86c13.07,7.59,26.07,15.28,39.07,22.98
		c5.75,3.4,11.36,7.04,17.14,10.38c9.21,5.32,18.11,11.15,27.3,16.51c5.73,3.34,11.48,6.89,16.86,10.81
		c5.22,3.8,10.78,7.02,16.07,10.67c7.84,5.4,15.88,10.51,23.76,15.85c18.53,12.55,36.43,25.98,54.46,39.23
		c11.4,8.38,22.68,16.92,33.96,25.44c10.34,7.81,20.76,15.55,30.74,23.87c6.92,5.78,14.46,10.98,21.47,16.71
		c7.89,6.44,15.89,12.75,23.89,19.03c9.17,7.19,17.96,14.84,27.21,21.94c9.8,7.52,19.1,15.84,24.54,27.29
		c3.9,8.23,7.2,16.75,10.58,25.22c3.9,9.79,7.98,19.54,11.25,29.54c2.86,8.72,6.26,17.25,8.89,26.08
		c2.44,8.19,5.07,16.36,7.79,24.47c4.72,14.1,7.44,28.67,10.5,43.11c1.98,9.37,3.27,19.01,4.4,28.6c1.05,8.93,3.17,17.76,3.7,26.7
		c0.46,7.91,1.61,15.72,2.43,23.56c1.1,10.63,0.89,21.37,2.79,31.92c0.06,0.32,0.01,0.67,0.03,1c1.31,23.58,1.54,47.21,0.77,70.78
		c-0.42,12.85-1.22,25.84-4.62,38.49c-3.41,12.69-9.21,24.17-15.87,35.38c-4.02,6.78-8.59,13.09-13.47,19.23
		c-1.18,1.49-2.55,2.58-4.56,3.02c-0.93-3.3,1.92-5.09,3.15-7.42c3.75-7.05,7.87-14.05,10.11-21.64c1.89-6.42,2.77-13.36,1.46-20.24
		c-1.34-7.04-10.91-13.73-17.9-12.19c-11.47,2.54-21.19,8.02-29.14,16.91c-6.79,7.59-12.68,15.8-17.48,24.66
		c-2.11,3.89-3.5,8.38-5.18,12.61c-2.77,6.96-5.53,13.95-8.8,20.68c-5.35,11.01-9.52,22.56-15.17,33.43
		c-0.75,1.43-1.08,3.07-1.78,4.54c-0.53,1.11-0.85,2.81-3.16,1.63c-1.31-3.18,0.71-6.36,1.26-9.6c1.42-8.4,2.3-16.87,3.61-25.26
		c1.21-7.73,0.82-15.49,1.19-23.16c0.3-6.22,0.1-12.96-2.57-19.26c-2.47-5.83-4.55-11.73-8.04-17.14
		c-4.45-6.89-10.2-12.65-15.41-18.86c-4.44-5.29-9.44-10.12-14.35-14.99c-8.23-8.16-16.93-15.79-25.72-23.35
		c-6.31-5.43-13.75-8.61-20.65-13c-1.06,1.91-0.63,3.59-0.64,5.19c-0.05,8.16-0.12,16.33,0,24.5c0.23,16.07-1.46,32.06-2.18,48.09
		c-0.4,8.86-1.41,17.72-1.97,26.6c-0.58,9.2-0.78,18.53-2.17,27.57c-1.42,9.22-2.25,18.54-3.37,27.76
		c-2.04,16.74-5.16,33.23-8.17,49.79c-1.02,5.64-1.84,11.17-4.6,16.27c-1.62-0.87-1.53-2.05-1.57-3.23c-0.18-5.3,1-10.44,1.61-15.66
		c0.42-3.61,1.04-7.29,1.15-10.81c0.2-6.62,1.96-13.16,1.2-19.79c-0.34-2.93,1.27-5.5,1.03-8.3c-0.97-11.01-3.39-21.36-14-28.09
		c-9.2,7.44-17.59,15.72-25.37,24.78c-6.05,7.06-11.58,14.45-16.98,21.99c-7.18,10.03-14.28,20.07-20.68,30.64
		c-6.38,10.53-12,21.45-17.84,32.26c-2.15,3.98-4.88,7.72-6.06,12.17c-0.39,1.45-1.57,2.08-2.31,3.14
		c-0.61,0.88-1.04,2.26-2.41,0.78c-0.39,1.03-0.85,2.04-1.17,3.09c-1.87,6.05-3.33,12.26-5.63,18.15
		c-4.41,11.3-8.19,22.83-13.36,33.85c-2.62,5.6-4.67,11.45-8.84,16.45c-3.15-1.54-2.47-3.83-1.77-6.28
		c3.03-10.62,6.24-21.19,8.89-31.9c2.78-11.23,4.77-22.62,6.75-34.03c1.27-7.35,2.27-14.79,4.27-22.05
		c1.13-4.13,0.81-8.63,1.6-12.88c2.02-10.82,2.94-21.75,3.91-32.68c0.19-2.21,2.07-4.23,0.11-7.46
		c-9.39,26.64-26.06,48.04-44.08,68.53c-0.74,0.84-2.06,1.57-3.91,1.38c1.12-3.27,1.73-6.67,3.35-9.49
		c6.77-11.78,11.84-24.32,16.75-36.92c2.7-6.94,5-14.05,7.2-21.19c1.55-5.04,1.69-9.74,1.57-14.67c-0.18-7.52,0.41-15.02,0.14-22.57
		c-0.42-11.54-2.16-22.92-3.01-34.4c-1.11-14.89-4.09-29.49-7.33-43.96c-3.15-14.09-7.28-28.02-13.61-41.18
		c-3.52-7.32-6.33-14.98-10.13-22.17c-7.26-13.72-14.79-27.32-24.74-39.29c-13.85-16.67-30.53-29.33-51.11-37.17
		c-12.51-4.76-24.77-3.97-37.4-2.8c-13.42,1.25-24.93,6.8-35.91,14.36c-3.98,2.74-7.94,5.35-11.56,8.58
		c-3.85,3.43-6.73,7.38-8.35,12.27c-1.28,3.86-2.97,7.63-3.79,11.58c-0.61,2.91-0.12,6.05-0.12,9.25c16.01,0,32.34-0.13,44.79,13.39
		c-0.18,0.85-1.03,1.77-2.29,1.56c-3.71-0.63-7.28,0.79-11.06,0.42c-3.42-0.33-6.38,2.76-9.84,3.56c-3.18,0.74-4.85,3.11-6.1,6.06
		c0.35,0.24,0.9,0.94,1.41,0.91c3.46-0.21,4.95,0.74,4.22,4.7c-0.62,3.37,2.07,4.94,5.36,3.61c3.68-1.49,7.45-2.32,11.47-2.22
		c6,0.15,12.02-0.31,17.99,0.12c9.09,0.66,18.16,1,26.93,4.63c6.05,2.51,12.49,3.77,16.9,10.11c-5.17-0.01-9.9,0.69-14.68,0.18
		c-6.66-0.71-13.24,0.67-19.77,1.34c-3.18,0.33-7.57,2.32-7.94,7.37c3.3,1.39,6.89,2.47,9.6,5.23c-1.43,1.88-3.44,1.93-5.3,2.32
		c1.27,2.63,3.28,3.37,5.9,2.44c3.24-1.14,6.4-0.77,9.71-0.13c4.02,0.77,8.16,1,12.23,1.29c6.4,0.45,12.62,1.62,18.92,2.57
		c6.44,0.97,12.08,3.56,18.04,5.55c5.59,1.86,10.53,4.79,14.8,8.85c1.63,1.55,7.52,5.91,9.48,7c-3.96,0.75-7.31,3.06-11.74,1.39
		c-3.1-1.16-11.16-3.77-13.14-3.32c-1.4,0.32-2.96-0.13-4.45-0.15c-4.39-0.04-21.79,3.36-27.18,5.94c3.86-0.07,6.1,0.93,7.6,3.15
		c-1.39,3.67-1.39,3.67-4.32,5.13c-0.72,1.17,1.21,1.52,0.46,2.72c2.5-1.9,5.05-0.99,7.14-0.51c4.57,1.05,9.1,2.45,13.62,3.65
		c8.21,2.17,16.18,5.04,23.75,8.61c9.28,4.38,16.97,11.25,23.34,19.42c0.16,0.21,0.02,0.65,0.02,1.42
		c-2.15,1.71-4.39,2.19-7.41,0.96c-6.01-2.46-12.48-3.91-18.21-6.85c-3.68-1.89-7.43-0.77-11.03-2.05c-1.68-0.59-3.5,1.89-5.43,3.19
		c1.56,3.77,7.55,1.7,7.8,7.51c-0.25,1.02-1.95,0.87-3.63,0.95c-1.57,0.08-3.41-0.67-4.74,1.54c2.34,0.01,4.21,2.22,6.63,0.54
		c1.13,2.66,4.05,2.87,5.96,4.41c1.84,1.48,3.96,2.31,5.96,3.41c3.07,1.69,6.51,2.69,8.12,6.4c0.94,2.17,3.97,2.47,5.22,4.41
		c5.66,8.74,11.38,17.41,14.18,27.71c0.8,2.96,0,5.87,1.04,8.77c0.4,1.1-0.91,3.13-2.57,3.67c-1.59,0.52-2.4-0.51-3.45-1.84
		c-3.62-4.6-5.07-10.65-10.05-14.4c-2.06-1.55-3.76-2.82-6.52-2.73c-3.58,0.12-7.26-0.03-10.52-2.55c2.11,5.82,6,10.45,10.53,15.09
		c-2.47,0.68-3.27,4.3-6.68,3.1c-0.32-0.11-1.13,0.73-1.02,1.5c0.24,1.6,2.49,5.74,3.71,7.89c2.15,3.77,3.22,8.14,6.01,11.61
		c2.27,2.83,0.77,6.38,1.96,9.55c1.75,4.65,1.3,9.77,1.21,14.73c-0.01,0.5,0.12,1.05-0.05,1.49c-0.73,1.9-0.73,4.64-3.61,4.55
		c-2.51-0.08-3.11-2.61-3.21-4.35c-0.29-5.15-3.47-7.08-7.9-8.09c-0.26,2.15,0.89,10.47-1.19,12.04c-1.56,1.17-1.8-0.47-2.67-0.89
		c-0.31,0.93-0.61,1.85-1.03,3.14c3.56,2.3,3.84,6,3.74,10.13c-0.19,7.44,0.08,14.9-1.53,22.15c-2.28-0.9-2.55,1.22-2.45,2.62
		c0.24,3.5-1.76,4.16-4.59,4.41c-1.25-3.42,0.65-7.24-2.08-10.03c-2.9,8.49-7.25,16.56-11.64,24.63
		c-5.24,9.62-11.47,18.62-18.31,27.06c-5.97,7.37-12.91,14.06-20.56,19.83c-7.56,5.71-15.5,10.91-23.84,15.36
		c-9.51,5.08-19.77,8.33-30.19,11.06c-9.63,2.53-19.47,4.1-29.24,5.79c-4.78,0.83-9.74,1.72-14.77,1.31
		c-3.79-0.31-7.62-0.06-11.73-0.06c0.16,3.64,1.05,6.8,2.28,9.67c3.92,9.19,6.89,18.7,8.38,28.5c0.99,6.5-2.2,12.45-5.5,17.96
		c-2.6,4.35-5.26,8.71-9.08,12.19c-0.47,0.42-1.09,1.09-1.05,1.59c0.63,6.99-3.13,13-4.31,19.58c-1.63,9.15-4.03,18.19-2.02,27.7
		c1.01,4.8,0.56,9.87,0.88,14.79c0.44,6.74,1.7,13.47,1.33,20.28c-0.14,2.61,0.36,5.21,0.72,7.82c0.95,6.98,0.1,13.96-3.33,20.29
		c-2.83,5.22-7.15,8.15-13.41,7.83c-4.69-0.24-9.36-0.41-13.28-3.4c-2.1-1.6-4-0.92-6.06-0.07c-8.02,3.32-16.41,4.1-24.99,3.57
		c-3.81-0.23-7.42-1.61-11.34-1.55c-1.82,0.03-3.19-0.19-4.81,1.02c-3.17,2.38-7.06,2.91-10.91,2.99c-4.8,0.1-9.58,0.45-14.38-0.88
		c-2.97-0.83-6.26-0.76-9.2,1.01c-2.2,1.33-4.82,1.5-7.24,1.73c-11.98,1.13-23.97,1.74-35.28-3.7c-4.45-2.14-9.42-1.6-13.56-0.55
		c-9.39,2.38-18.42,1.98-27.55-0.49c-4.6-1.24-5.82-2.77-5.54-7.49c0.6-10.31,3.78-19.74,11.78-26.63
		c5.55-4.78,12.84-6.4,19.85-7.72c3.19-0.6,7.03,0.08,9.66,2.96c1.55,1.69,3.44,1.05,5.14,0.64c3.13-0.77,6.19-1.37,8.86,0.37
		c4.55-2.52,6.7-6.42,8.72-10.48c8.57-17.31,16.97-34.71,25.87-51.85c7.43-14.31,15.32-28.37,22.2-42.98
		c2.74-5.82,3.14-11.76,1.46-17.52c-2.98-10.21-6.76-20.18-11.54-30.2c-5.44,0-10.89,0-16.35,0c-11.94,0-23.93-0.53-35.79,1.08
		c-17.13,2.32-34.47,3.8-51.01,9.2c-7.27,2.37-13.8,6.57-19.87,11.33c-1.36,1.07-2.39,2.44-4.45,2.91
		c-1.99,0.45-2.24,2.96-2.44,5.03c-0.73,7.64,0.96,14.89,3.36,22.04c3.36,9.97,2.19,19.71-1.67,29.22
		c-2.58,6.35-2.87,6.45,2.59,10.2c14.22,9.75,29.65,14.07,46.84,9.78c0.48-0.12,0.98-0.33,1.46-0.31
		c9.32,0.34,16.07-5.45,23.52-9.69c5.04-2.87,9.3-6.97,15.16-9.64c-0.32,2.05-1.48,2.94-2.44,3.89
		c-5.79,5.76-11.44,11.67-17.45,17.19c-14.24,13.1-30.86,19.63-50.32,16.4c-9.34-1.55-17.55-6.18-24.58-12.6
		c-5.91-5.4-11.56-11.03-15.29-18.3c-3.6-7.03-6.69-14.14-6.35-22.31c0.14-3.46-0.56-6.96-0.58-10.34
		c-0.06-10.71,1.8-20.88,8.09-30.24c3.88-5.76,7.48-11.6,12.66-16.24c6.93-6.2,14.49-11.45,22.82-15.73c7.42-3.8,15.01-7,23.01-9.23
		c8.63-2.4,17.4-4.21,26.24-5.64c7.9-1.28,15.79-2.57,23.69-3.84c0.49-0.08,0.99-0.17,1.48-0.14
		C691.37,961.58,697.62,960.58,703.87,959.55z M827.42,950.11c2.9,0,4.79,0.32,6.52-0.05c9.36-2.03,18.71-3.99,27.63-7.8
		c11.32-4.84,21.66-11.14,30.81-19.28c6.92-6.15,13.1-13.06,18.6-20.54c2.31-3.14,5.24-6.09,6.61-9.62
		c3.6-9.27,5.18-19.14,7.09-28.86c1.79-9.16,0.71-18.51,1.14-27.76c0.54-11.66-2.12-22.83-4.63-34.01
		c-3.29-14.72-9.68-28.28-16.68-41.52c-11.18-21.14-27.25-37.98-46.62-51.74c-12.57-8.93-27.36-13.79-40.28-21.84
		c-2.42,1.97-2.88,4.26-2.88,6.88c0.02,7.76,1.5,15.41,1.84,23.1c0.52,11.71,1.67,23.38,2.1,35.08c0.4,10.78-0.74,21.58-0.73,32.35
		c0,13.33-3.32,25.88-6.57,38.55c-1.47,5.73-3.42,11.31-5.84,17.14c6.77,2.61,10.38,8.18,14.66,13c6.05,6.79,10.68,14.5,12.48,23.44
		c2.23,11.1,1.72,22.24-1.2,33.23c-1.21,4.56-2.54,9.05-2.92,13.87c-0.22,2.77,0.92,5.61,0.05,8.03
		C826.48,937.75,829.47,943.74,827.42,950.11z"/>
</g>
</svg>
