<?xml version="1.0" encoding="utf-8"?>
<!-- Generator: Adobe Illustrator 24.1.1, SVG Export Plug-In . SVG Version: 6.00 Build 0)  -->
<svg version="1.1" id="Layer_1" xmlns="http://www.w3.org/2000/svg" xmlns:xlink="http://www.w3.org/1999/xlink" x="0px" y="0px"
	 width="987.63" height="1266.28" viewBox="0 0 987.63 1266.28" style="enable-background:new 0 0 987.63 1266.28;" xml:space="preserve">
<style type="text/css">
	.st0{fill:#1A1A1A;}
</style>
<g>
	<path d="M59.83,830.83c-1.08-6.63,0.46-12.11,3.76-17.17c-1.79-1.27-3.49-0.76-5.06-0.75c-12.51,0.11-21.78-5.68-29.17-15.4
		c-4.69-6.16-8.1-13.02-11.86-19.7c-2.9-5.16-6.49-9.5-13.34-10.47c2.46-2.59,5.51-2.21,8.71-2.89C5.43,755.4,0.2,745.8,0,734.04
		c3.96,2.76,7.43,5.95,13.1,8.25c-8.96-14.45-11.77-29.13-8.13-45.27c2.77,2.58,4.62,5.5,7.01,7.94
		c7.08,7.21,16.07,10.74,25.52,12.79c9.9,2.15,20.07,2.91,30.12,4.26c8.46,1.14,16.5,3.92,23.48,9.61c2.16-4.45,4.4-8.87,7.87-12.44
		c0.75,0.4,1.23,0.86,1.06,1.62c-3.52,15.09,2.81,27.26,11.31,38.87c0.92,1.26,1.81,1.19,2.9,1.21c3.33,0.04,6.67,0.03,10,0.02
		c9.41-0.05,18.61,1.7,27.9,2.85c11.73,1.45,23.07,4.23,34.31,7.64c13.18,3.99,25.6,9.7,37.47,16.64c0.98,0.57,2.02,1.05,3.03,1.58
		c1.21-1.28-0.2-2.29-0.62-3.06c-9.48-17.29-15.98-35.7-20.36-54.83c-2.22-9.71-3.77-19.56-4.65-29.55
		c-0.56-6.29-0.68-12.54-0.86-18.81c-0.13-4.35-3.25-7.46-5.27-10.9c-7.59-12.91-17.92-23-31.81-29.13
		c-3.29-1.45-6.62-2.75-10.17-3.36c-1.09-0.19-1.87-0.56-2.71-1.96c5.67-2.13,11.42-3.49,17.56-4.32c-1.12-3.65-4.03-6.2-5.6-9.54
		c-2.81-5.98-4.45-12.05-5.17-18.73c-1.4-12.81,2.61-23.84,9.53-33.95c4.73-6.93,11.11-12.42,17.76-17.71
		c6.1-4.86,12.74-9.23,17.48-15.76c3.38-4.65,5.96-9.36,5.46-15.32c-0.17-1.98-0.03-3.99-0.03-6.5c13.94,5.66,20.98,16.33,24.44,30
		c1.02-0.93,0.24-2.18,0.63-3.17c0.41-1.03,0.99-1.99,1.72-3.44c10.53,12.06,15.08,25.19,10.25,40.96c2.78-0.66,4.79-2.36,7.15-3.14
		c2.27-0.75,4.54-2.14,7.41-1.12c-1.7,4.14-3.5,8.23-4.63,12.59c-1.93,7.44-0.65,14.66,1.1,21.86c1.61,6.64,4.11,13.07,4.13,20.47
		c5.14-2.68,10.21-2.43,15.25-2.11c1.3,2.13-0.26,3.12-1.38,4.27c-5.89,6.04-10.43,12.99-14.13,20.64
		c4.93,5.99,9.82,11.91,14.13,18.28c8.72,12.86,14.02,27.2,17.82,42.1c3.2,12.52,4.99,25.28,6.26,38.19
		c1.58,16.03,2.23,32.06,1.68,48.11c-0.25,7.37-0.84,14.78-0.98,22.59c5.09,4.03,10.59,8.39,16.01,12.68
		c3.58-1.43,2.39-4.88,2.81-7.03c1.5-7.63,4.49-14.63,7.62-21.61c1.1-2.45,1.35-4.52,1.03-7.36c-0.6-5.37-1.2-10.84-1.28-16.27
		c-0.19-13.83-0.6-27.69,0.11-41.48c0.54-10.47,1.26-20.97,2.58-31.43c1.87-14.78,4.46-29.38,8.32-43.73
		c2.88-10.68,6.43-21.18,10.96-31.32c8.5-19.06,20.34-36.07,32.68-52.72c3.88-5.24,7.53-10.77,12.18-15.44
		c1.94-1.95,1.65-4.78,1.86-6.94c1.04-10.76,5.3-20.12,10.95-29.05c1.05-1.67,1.42-3.22,0.43-5.45
		c-6.79-15.35-12.22-31.24-16.62-47.41c-2.6-9.56-4.18-19.43-5.66-29.3c-2.08-13.85-2.03-27.73-1.76-41.61
		c0.14-7.04,1.01-14.11,2.21-21.05c0.39-2.25,0.4-4.05-0.27-6.1c-1.32-4.02-2.71-8.03-3.29-12.37c-2.88-0.4-4.39,1.99-6.42,3.07
		c-9.96,5.33-20.47,9.34-30.84,13.72c-7.37,3.12-14.46,6.9-21.58,10.57c-8.67,4.48-16.83,9.91-26.71,11.84
		c-8.12,1.59-18.45-1.78-22.85-8.72c-11.1-17.49-22.4-34.89-28.43-55.02c-2.98-9.93-5.03-19.99-4.91-30.42
		c0.08-6.83,0.05-13.66,0.01-20.5c-0.06-9.74,1.74-19.28,2.83-28.91c1.97-17.4,5.53-34.53,9.54-51.48
		c2.36-9.99,1.16-19.33-0.65-28.69c-3.27-16.86-1.18-32.74,5.15-48.54c8.05-20.08,16.01-40.22,21.28-61.3
		c0.92-3.66,2.05-7.73,6.56-8.96c3.71,2.01,0.88,6.9,4.69,9.17c1.02-6.03,3.07-11.55,5.9-16.78c0.7-1.29,1.19-2.77,2.52-3.61
		c1.68-1.06,3.45-2.31,5.49-1.56c2.23,0.82,1.82,3.01,1.65,4.76c-0.3,2.97,0.44,5.51,2.58,7.72c4.15-2.44,5.44-8.72,11.95-9.13
		c1.22,4.48-0.67,9.99,3.65,13.76c4.42-0.41,4.62-0.38,4.81,3.89c0.15,3.27,2.43,5.7,2.98,8.76c1.26,7.01,1.42,13.94,0.28,21.09
		c-1.32,8.27-3.25,16.31-6.36,24.02c-1.71,4.24-3.82,8.27-4.32,12.9c-0.12,1.14,0.61,1.78,0.87,2.85c3.23-2.39,5.62-5.57,8.94-7.79
		c4.37-2.92,9.26-3.94,14.18-4.92c2.42-0.48,4.38,1.13,5.96,2.91c2.41,2.73,5.17,4.63,9.45,3.92c-0.85,4.57-3.48,7.16-7.28,7.96
		c-7.39,1.54-11.19,6.94-14.82,12.67c-3.67,5.78-6.72,11.9-9.82,18c-2.04,4.01-5.6,6.83-9.21,9.49c-3.83,2.83-7.96,5.1-12.26,7.15
		c-5.41,2.57-8.53,8.42-7.47,14.23c2.41,13.14,5.12,26.24,9.19,38.96c3.62,11.31,7.3,22.62,10.32,34.08
		c1.94,7.36,3.91,14.85,4.39,22.55c0.1,1.64,1.18,2.58,1.56,3.89c5.74-1.31,10.25-4.86,15.72-6.15c1.99-0.47,3.13-2.7,4.23-4.62
		c3.16-5.53,6.14-11.22,11.89-15.83c-4.38-0.35-7.89-0.96-10.7-3.24c-2.69-2.17-4.64-4.93-5.91-8.11c2.07-1.72,4.19-0.92,6.06-1.23
		c8.66-1.45,13.37-8.22,18.58-13.97c2.52-2.77,5.4-5.33,7.79-8.85c-5.6-6.68-5.5-13.72-0.43-20.84c9.73,4.37,19.66,4,29.66,1.73
		c5.9-1.34,11.73-3.06,18.1-2.86c5.85-12.02,15.01-21.45,24.72-30.6c-3.14-2.95-6.7-5.13-7.43-9.62c-0.31-1.93-3.16-1.75-4.01-3.44
		c-3.07-6.04-8.57-9.96-12.91-14.89c-6.98-7.93-5.38-18.9,1.14-25.66c3.13-3.25,3.75-5.92,1.95-9.77
		c-2.54-5.42-2.67-11.03-1.14-16.81c0.43-1.64,0.66-3.58-0.5-5.28c-6.92-10.14-8.84-20.86-3.05-32.91c-2.67,0.7-4.63,1.25-6.61,1.74
		c-3.45,0.85-4.8,0.01-4.61-3.55c0.49-9.29,4.12-17.21,11.59-22.91c2.38-1.82,4.47-4.53,8.87-4.3c-6.77-4.51-11.05-9.71-11.51-17.86
		c3.24,0.5,6.1,0.88,8.97,1.03c8.6,0.45,15.8-3.59,23.32-6.71c1.55-0.64,1.54-1.84,2.01-3.01c1.73-4.39,2.7-9.07,5.09-13.21
		c1.15-1.99,1.97-4.46,4.93-4.08c2.8,0.35,3.27,2.42,3.9,4.9c0.54,2.11,0.58,4.21,0.94,6.66c7.1-2.49,13.78-5.72,20.95-7.6
		c16.44-4.3,32.78-5.24,48.6,2.1c6.94,3.22,13.18,7.73,18.49,14.12c1.67-4.18,3.22-8.33,7.55-11.1c4.1,7.41,10.31,13.21,15.77,19.61
		c3.46,4.05,6.35,8.22,8.12,13.48c7.35-2.37,14.14-5.53,21.12-8.16c8.68-3.27,17.44-6.33,26.12-9.58c1.16-0.44,2.27-0.56,3.4-0.44
		c2.57,0.27,3.46,2.07,1.96,4.12c-4.76,6.5-9.97,12.66-15.51,18.49c-7.35,7.73-15.05,15.11-22.56,22.69
		c-1.14,1.15-2.66,2.03-3.2,4.02c2.06,1.93,4.01,2.95,7.3,2.1c9.08-2.34,17.89-5.86,27.65-6.87c-0.41,4.01-3.83,5.63-6.1,7.91
		c-2.36,2.36-3.96,5.29-6.38,7.55c-2.56,2.38-5.09,4.78-7.75,7.28c3.25,6.14,5.67,12.23,6.66,18.62c1.18,7.58,2.24,15.1,0.97,23.02
		c-1.14,7.12-2.31,14.16-4.25,21.09c-0.31,1.12,0.19,2.2,0.59,3.33c3.3,9.54,6.36,19.18,8.01,29.15c0.8,4.84,2.14,9.7,1.13,14.56
		c5.85,4.5,12.18,2.56,18.72,2.59c1.31,7.66,0.39,14.82-4.66,21.43c2.93,2.36,6.62,2.67,9.81,4.08c8.95,3.95,16.3,10.27,24,16.04
		c7.15,5.37,14.79,8.95,23.91,8.76c1.26-0.03,2.71-0.51,4,1.29c-2.67,7.04-7.6,12.34-14.89,15.95
		c11.26,7.41,14.53,18.52,16.32,30.43c1.55,10.31,4.87,19.69,11.88,27.87c10.64,12.42,20,25.95,27.33,40.54
		c4.13,8.23,10.03,15.18,14.18,23.36c4.01,7.92,3.31,15.54,0.18,22.74c-2.19,5.05-3.44,10.18-4.45,15.35
		c-3.3,16.91-10.21,32.25-19.07,46.84c-6.57,10.83-14.7,20.44-22.85,30.1c-5.55,6.58-12.31,12-17.35,19.02
		c-1.27,1.76-3.19,3.05-5.37,5.08c6.83,0.53,12.69,2.03,18.5,4.18c5.98,2.21,11.24,5.48,15.78,9.63
		c7.92,7.23,15.16,15.1,21.44,23.92c8.17,11.48,18.33,20.54,32.88,23.29c2.79,0.53,5.62-0.07,8.43,0.56
		c1.45,3.39-0.9,6.05-1.42,9.19c6.15,2.33,12.45,4.41,18.03,8.19c10.27,6.95,18.18,15.96,24.92,26.3
		c7.63,11.72,12.34,24.86,18.91,37.08c4.94,9.2,11.53,16.92,20.79,21.79c4.85,2.55,10.23,4.29,15.95,4.24
		c1.97-0.02,3.99-0.36,6.15,0.42c-0.25,4.68-1.79,8.78-6.28,12.46c11.77-0.16,20.96,2.87,26.42,13.57
		c-5.78,1.46-11.9-0.8-17.42,2.17c2.6,4.19,7.03,7.22,10.21,11.43c8.9,11.8,14.98,24.75,18.23,39.12
		c1.82,8.03,2.37,16.18,3.25,24.34c0.79,7.34-0.04,14.5-0.55,21.6c-0.78,11.01-3.41,21.87-7.51,32.25
		c-0.66,1.66-1.05,3.51-2.05,4.95c-5.24,7.58-5.46,16.03-5.29,24.83c0.23,11.85-1.21,23.63-2.79,35.4
		c-2.87,21.51-8.63,42.08-18.11,61.64c-7.02,14.47-15.63,27.86-25.91,40.22c-15.98,19.2-35.28,34.23-57.15,46.18
		c-10.62,5.81-21.63,10.6-33.07,14.46c-0.91,0.31-1.72,0.91-2.7,1.43c1.53,4.84,2.66,9.71,2.85,14.76
		c0.37,9.62-3.51,18.24-6.75,26.9c-3.25,8.68-6.56,17.24-5.2,26.7c1.14,7.95,1.58,15.97,2.68,23.93c0.97,6.97,1.67,14.03,2.33,21.06
		c0.58,6.1,1.07,12.17,1,18.31c-0.03,2.2,1.63,3.89,2.48,5.82c3.03,6.88,3.3,13.92,1.53,21.16c-0.58,2.37-1.85,4.14-3.52,5.8
		c-3.08,3.05-6.84,5.53-8.47,11.48c-1.33-4.94-4.22-4.44-7.01-4.5c-2.11-0.05-4.19,0.22-6.37-0.56c-5.69-2.04-5.75-1.88-9.6,2.71
		c-1.28-1.84-3.08-2.25-5.28-2.17c-5.41,0.19-10.92,0.64-15.87-2.43c-0.38-0.24-1.11-0.51-1.33-0.33
		c-4.67,3.68-12.6,2.19-15.01,9.44c-0.04,0.12-0.26,0.19-0.35,0.25c-1.89,0.53-2.75-0.88-3.78-1.92c-3.97-4-8.35-5.95-14.15-4.03
		c-4.99,1.65-10.19,2.6-15.54,2.09c-3.69-0.35-7.28-0.32-9.15,4.44c-1.95-3.97-4.8-5.61-8.39-6.94
		c-9.43-3.49-15.06-11.21-14.07-19.86c0.93-8.04,2.63-16.06,6.21-23.48c3.21-6.68,6.84-12.97,13.19-17.34
		c3.74-2.57,4.41-7.22,5.98-11.08c6.62-16.28,12.58-32.82,17.85-49.6c3.32-10.56,5.93-21.31,8.47-32.08
		c0.26-1.09,0.03-2.29,0.03-4.04c-5.77,0-11.38-0.05-17,0.01c-13.54,0.15-26.86-1.64-40.2-3.84c-11.27-1.86-22.56-3.62-33.69-6.19
		c-21.46-4.95-42.26-12.02-62.65-20.27c-15.89-6.43-31.56-13.4-46.71-21.46c-15.41-8.2-30.6-16.79-45.29-26.27
		c-8.91-5.76-17.78-11.56-26.54-17.55c-0.92-0.63-2.04-0.96-2.99-1.39c-2.62,1.45-2.47,4.27-3.59,6.38
		c-4.64,8.81-9.17,17.68-14.33,26.21c-3.71,6.14-7.31,12.35-10.91,18.56c-0.44,0.77-1.36,1.49-0.61,2.66
		c3.8,5.91,0.77,11.43-2.14,16.04c-3.01,4.76-3.3,8.91-2.5,14.28c1.71,11.38-1.57,21.69-9.02,30.66
		c-5.1,6.14-10.6,11.89-16.45,17.27c-4.3,3.95-6.67,8.7-8.41,14.13c-3.48,10.86-5.52,22.09-8.83,32.98
		c-2.67,8.78-5.93,17.28-12.08,24.32c-0.74,0.85-0.88,1.7-0.95,2.71c-1.02,15.94-13.16,23.74-27.35,24.75
		c-0.66,0.05-1.34,0.07-2-0.01c-3.11-0.38-5.85-0.03-7.42,3.23c-0.34,0.7-1.17,1.15-1.77,1.71c-3.08-0.44-4.23-2.88-5.44-5.1
		c-1.04-1.9-2.17-3.66-3.79-5.13c-2.73-2.48-5.27-4.25-9.39-2.25c-2.84,1.38-6.26,1.98-9.63,1.56c-3.14-0.4-5.89,0.3-7.96,3.3
		c-3.5-2.64-5.3-6.52-8.47-9.12c-1.72-1.41-2.84-2.29-5.53-1.49c-6.34,1.88-12.99,2.12-19.5,0.52c-1.74-0.43-2.86,0.47-4.18,0.96
		c-3.5,1.31-5.52,1.04-6.33-2.12c-0.77-3-2.43-3.17-4.7-3.04c-4.35,0.25-8.54-0.44-12.38-2.48c-2.31-1.23-3.78,0.33-5.42,1.19
		c-5.58,2.93-6.91,0.56-6.86-4.29c0.08-7.55,1.35-14.46,5.24-21.11c3.11-5.31,5-11.32,8.87-16.27c6.32-8.06,13.71-14.17,24.66-14.04
		c0.83,0.01,1.86-0.24,2.46,0.15c5.17,3.41,8.01,0.01,11.61-3.18c9.21-8.17,17.87-16.88,26.43-25.69
		c12.17-12.52,22.73-26.28,30.22-42.16c4.1-8.71,6.67-18.03,9.46-27.2c4.77-15.72,8.93-31.63,12.52-47.67
		c2.53-11.29,4.74-22.65,6.76-34.05c1.66-9.32,3.16-18.68,4.57-28.02c1.04-6.94,2.24-13.95,2.38-21.05
		c0.05-2.52-0.63-4.35-2.47-6.12c-5.41-5.19-10.9-10.33-15.9-15.91c-8.24-9.18-16.6-18.24-24.26-27.95
		c-4.77-6.05-9.99-11.7-13.56-18.61c-0.94-1.82-2.79-1.76-4.4-1.48c-6.74,1.18-13.54,1.21-20.3,0.9
		c-12.79-0.58-25.53-1.5-38.21-3.73c-12.4-2.18-24.51-5.23-36.47-9.04c-17.9-5.69-34.28-14.37-49.24-25.64
		c-3.93-2.96-7.96-5.99-11.05-9.92c-2.26-2.87-4.52-2.92-7.76-1.47C76.49,818.24,67.73,823.45,59.83,830.83z M530.01,745.1
		c-8.76,7.47-18.88,8.08-29.53,5.88c-2.24-0.46-4.44,0.04-6.01,1.55c-1.84,1.77-3.96,2.95-6.2,3.94c-1.64,0.72-2.47,1.87-3.33,3.37
		c-4.75,8.19-9.83,16.18-15.59,23.71c-1.35,1.77-1.94,3.68-1.92,5.95c0.03,4.94-0.05,9.84-0.82,14.8
		c-1.42,9.09-10.17,18.89-21.42,18.57c-2.77-0.08-4.47,0.82-5.9,3.38c-3.98,7.12-8.66,13.86-12.46,21.07
		c-4.3,8.17-7.18,16.38-3.74,26.23c4.35,12.45,8.39,25.23,7.37,38.81c-0.12,1.55,0.69,2.15,1.86,3.02c3.15,2.36,6.4,3.67,10.45,3.57
		c8.49-0.2,17.06-0.7,25.47,0.17c9.36,0.96,18.4,3.82,26.59,8.77c1.24-1.82,0.12-3.78,0.94-5.43c0.79-0.1,1.23,0.45,1.67,0.92
		c5.3,5.61,12.22,8.06,19.48,9.44c9.25,1.75,18.64,2.22,28.07,2.08c11.15-0.17,21.13,3.43,30.48,9.37
		c5.06,3.21,9.21,7.38,13.48,11.57c2.42-2.48,2.74-6.35,6.81-7.75c0.94,5.5,4.18,9.64,8.32,13.88c0.77-3.26,0.46-6.61,4.22-8.32
		c-0.69,8.19,5.06,10.39,10.81,12.14c5.27,1.61,10.75,1.59,16.31,1.21c7.23-0.49,14.51-0.12,21.73-0.12c0-0.9,0.09-1.25-0.01-1.53
		c-7.25-20.56-14.36-41.18-21.89-61.63c-1.65-4.47-2.72-9.63-7.22-12.59c-7.32-4.82-11.44-12.02-14.55-19.87
		c-2.16-5.47-2.81-11.37-3.93-17.1c-1.15-5.84-3.44-10.6-7.92-14.74c-7.83-7.23-15.11-15.05-22.72-22.52
		c-9.78-9.6-17.91-20.49-25.81-31.64C544.19,772.65,537.04,759.09,530.01,745.1z M617.85,507.64c2.04,0.84,3.17-0.55,4.13-1.89
		c2.98-4.13,4.9-8.8,6.44-13.62c4.79-15.01,8.37-30.38,15.07-44.81c5.82-12.55,14.32-22.43,25.67-29.83
		c0.43-3.67-1.63-5.99-3.96-8.35c-9.15-9.3-19.89-16.59-30.47-24.04c-3.83-2.7-6.97-6.43-11.98-8.38
		c-3.14,9.71-10.41,16.12-17.37,22.79c-2.62,2.51-5.88,4.26-8.19,7.14c-3.57,4.47-5.59,8.78-1.83,15.29
		c0.74,1.27,2.34,1.93,2.47,3.63c-2.32,1.01-4.94-0.41-7.2,0.92c-0.06,0.53-0.25,1.04-0.15,1.49c1.82,8.53,1.03,16.94-0.73,25.41
		c-1.8,8.65-3.9,17.26-3.38,26.28c0.52,9.09,9.61,17.68,18.01,17.4c3.84-0.13,6.21-2,8.53-4.38
		C616.36,496.46,616.36,496.46,617.85,507.64z M758.1,932.79c4.38-6.54,7.99-12.81,10.44-19.81c3.4-9.72,4.98-19.57,4.99-29.88
		c0.01-11.93-1.76-23.42-4.86-34.94c-3.94-14.65-10.1-28.26-17.8-41.15c-9.51-15.93-21.64-29.83-35.27-42.39
		c-2.68-2.47-5.68-4.59-9.2-7.41c0.05,23.99,0.24,46.92-0.98,69.82c-0.15,2.82,1.32,5.12,2.92,7.12c2.07,2.58,4.43,5.04,7.03,7.08
		c11.83,9.28,21.01,20.63,28.15,33.85c8.85,16.38,12.89,33.82,12.86,52.31C756.39,929.27,756.71,930.92,758.1,932.79z"/>
	<path class="st0" d="M762.23,1084.79c-2.47-2-2.39-3.83-1.21-5.93c2.29-4.06,2.2-8.15-0.09-12.21c-1.61-2.86-2.56-6.08-4.68-8.64
		c-1-1.2-0.7-2.52-0.71-3.79c-0.03-21.15-0.64-42.34,0.23-63.45c0.47-11.28-0.01-22.58,0.92-33.79c0.48-5.78,0.81-11.54,0.81-17.32
		c0-2.12,0.93-3.74,2.12-5.38c7.22-9.93,12.34-20.92,14.55-32.94c2.1-11.4,1.95-22.98,0.48-34.55c-2.32-18.27-8.4-35.25-16.96-51.42
		c-5.61-10.59-12.3-20.44-19.78-29.84c-4.13-5.18-8.66-10.07-13.3-14.59c-4.66-4.54-8.87-9.81-15.03-13.1
		c37.17-41.25,49.22-89.55,42.05-143.73c3.43,0.74,5.43,3.27,7.86,4.99c9.61,6.86,19.31,13.57,28.13,21.52
		c7.86,7.08,16.07,13.8,23.32,21.52c15.99,17.05,30.51,35.22,42.32,55.49c13.07,22.44,23.67,45.94,31.18,70.79
		c4.63,15.32,8.53,30.82,10.93,46.69c2.01,13.35,3.79,26.66,4.18,40.22c0.18,6.24,1.22,12.62,0.57,18.8
		c-0.98,9.31-1.28,18.66-2.58,27.97c-2.05,14.66-5.45,28.87-10.19,42.84c-6.59,19.41-16.59,36.93-28.87,53.27
		c-6.51,8.65-13.91,16.48-21.9,23.65c-11.36,10.19-23.85,18.88-37.16,26.47C787.56,1075.1,774.94,1079.9,762.23,1084.79z"/>
	<path class="st0" d="M430.9,917.74c2.37-0.28,3.82,1.7,5.43,2.85c18.46,13.18,37.95,24.61,58.52,34.13
		c19.45,9.01,39.53,16.31,60.43,21.28c11.13,2.65,22.38,4.66,33.59,6.84c3.19,0.62,6.57,0.77,9.8,0.95
		c13.24,0.7,26.55,2.28,39.75,0.92c5.53-0.57,11.23,0.26,16.67-1.63c1.49-0.52,3.3-0.05,4.97-0.11c1.99-0.07,2.72,0.89,3.38,2.79
		c5.94,17.13,10.66,34.62,15.72,52.01c0.84,2.88,0.12,5.93-1.17,8.69c-3.47,7.46-3.31,14.45,2.11,21.07
		c1.92,2.35,1.76,5.55,1.01,8.14c-1.6,5.5-0.05,11.18-1.65,16.69c-0.65,2.26-0.51,4.81-1.92,7.44c-8.7-0.63-17.6,0.78-26.54-0.89
		c-4.82-0.9-9.86-0.55-14.8-0.93c-7.9-0.62-15.6-2.26-23.36-3.44c-10.95-1.66-21.84-3.88-32.6-6.7
		c-17.24-4.51-34.15-9.99-50.7-16.58c-16.12-6.42-32.03-13.35-47.45-21.32c-17.89-9.25-35.34-19.27-52.25-30.23
		c-7.97-5.16-15.83-10.48-23.81-15.61c-2.42-1.55-2.64-2.6-1.55-5.08c7.07-16.16,13.9-32.42,19.22-49.27
		C427.01,939.27,429.08,928.55,430.9,917.74z"/>
	<path class="st0" d="M454.42,267.98c-1.13-4.68-4.44-8.97-2.35-14.35c10.12,4.79,19.1,1.39,27.9-4.27
		c5.49-3.54,10.74-7.46,16.64-10.4c7.1-3.54,14.44-5.26,22.34-4.92c3.5,0.15,6.71,1.43,10,2.35c1.11,0.31,2.05,1.02,3.5-0.11
		c-4.95-3.51-10.51-4.31-16.44-4.6c2.1-6.09,6.57-10.34,10.42-15.65c-5.85-0.07-11.25-0.24-16.1-4.22
		c8.86-3.83,13.65-11.41,18.89-18.75c3.64-5.1,8.83-8.85,14.33-12.02c1.55-0.89,2.81-0.82,4.6-0.24c2.61,0.84,5.22,1.79,7.97,2.36
		c9.95,2.05,18.64-1.01,27.44-6.17c-0.67,6.69-3.91,12-7.09,17.1c-4.96,7.96-11.26,14.94-17.6,21.88
		c-8.74,9.57-17.67,19.06-23.16,31.1c-4.99,10.94-8.67,22.13-9.55,34.3c-0.41,5.64-1.26,11.18-4.5,16.69
		c-6.35,10.8,0.03,28.71,16.15,29.91c6.34,0.47,12.67-1.94,15.12-7.47c2.86-6.44,7.94-9.26,13.23-12.25
		c3.72-2.1,7.1-4.69,10.91-6.82c4.73,10.27,3.31,20.25-1.05,30.23c-3.98,9.12-8.74,17.95-10.91,27.78c-1,4.56-2.65,9.08-0.66,13.93
		c-7.25-1.58-8.85-3.45-8.9-10.06c-0.04-5.73-2.03-10.71-5.51-15.4c-1.2,1.82,0.26,2.76,0.7,3.87c4.73,11.84,3.4,22.72-4.56,32.85
		c-2.98,3.8-6.34,7.19-9.7,10.62c-3,3.06-6.3,5.84-8.55,9.55c-7.25-4.73-8.5-8.99-5.47-16.62c3.06-7.71,2.81-15.6,0.95-23.45
		c-0.36-0.01-0.71-0.02-1.07-0.03c0,2.89-0.16,5.8,0.03,8.68c0.74,11.34-3.94,20.73-10.48,29.44c-6.64,8.86-15.9,14.5-25.08,20.21
		c-5.15,3.19-10.44,6.16-15.5,9.48c-5.1,3.35-9.7,7.37-13.88,11.74c-26.86-6.88-43.68-26.61-39.2-53.88
		c-2.51,3.48-2.5,6.68-2.85,9.71c-0.54,4.67,0.08,9.37,2.09,13.51c3.13,6.46,1.3,10.99-4.54,14.75c-5.99-16.6-18.32-29.4-26.8-44.54
		c-2.64-4.7-4.08-9.98-4.56-15.42c-1.09-12.37,2.8-23.34,9.62-33.42c0.93-1.37,1.87-2.64,2.21-4.3c-9.48,0.76-16.8-2.83-19.19-9.7
		c11.11,1.6,16.38-5.72,21.31-13.67c3.28-5.3,6.4-10.74,11.15-14.97c1.49-1.33,2.89-2.68,5.16-3.15c1.89,3.49,3.18,7.34,5.38,10.8
		c3.57,5.61,10.25,6.88,15.37,1.68c6.08-6.17,8.56-13.6,8.84-21.77c0.24-7.08,0.29-14.18-0.68-21.33c-1.02-7.52,1.3-14.98,3.2-22.29
		c1.39-5.34,2.78-10.72,5.32-15.64c9.19,2.45,18.75,15.57,19.92,31.38c-7.87,2.78-7.87,2.78-19.13-1.55
		c-1.92,8.2-0.48,13.85,4.46,17.43c-0.84,1.62,1.15,2.4,1.41,3.62c-8.24,4.47-12.37,10.54-9.92,17.45
		c4.64-0.21,8.74-3.58,13.92-2.65c-7.04,10.52-11.56,21.36-7,33.95c-2.6-13.64,2.03-25.2,10.85-35.93
		c-5.91-1.58-10.77,1.36-15.97,2.27c-1.6-9.37,6.34-11.25,11.83-15.02C457.86,269.79,456.1,268.93,454.42,267.98z"/>
	<path class="st0" d="M450.54,819.82c-8.4,3.38-19.68-1.44-24.48-8.17c-4.49-6.29-9.82-11.93-14.22-18.22
		c-6.65-9.52-10.05-20.72-4.17-31.8c2.36-4.45,6.63-6.83,10.98-8.49c12.29-4.67,23.16-1.81,32.6,7.15c1.03,0.98,1.72,2.51,3.48,2.57
		c-1.96-6.68-13.51-13.24-21.15-13.98c-11.78-1.14-21.64,2.71-28.61,12.79c-4.1-11.57-4.08-23.63-3.21-35.51
		c1.1-14.94,5.98-29.12,12.12-42.7c4.72-10.45,10.01-20.67,16.59-30.14c4.79-6.9,10.49-13.04,15.67-19.6
		c4.1-5.19,8.69-10.01,13.31-14.58c2.95-2.92,6.01-6.69,10.4-8.08c4.66-1.48,9.15-3.55,14.32-3.12c5.77,0.48,7.41,1.44,9.24,7.01
		c2.28,6.94,4.51,13.8,4.06,21.38c-0.57,9.64-2.56,18.87-6.68,27.5c-6.31,13.22-10.82,26.99-13.3,41.39
		c-1.11,6.46-1.51,13.05-2.11,19.6c-1.53,16.65-4.71,32.9-11,48.88c-2.62-3.04-0.84-6.36-1.61-9.33c-0.97-3.73-3.19-6.36-5.36-9.2
		c-1.05-1.38-2.46-0.76-4.26-0.78c2.71,4.41,7.35,7.33,8.36,13.37c-1.84-1.51-3.14-2.57-4.43-3.63c-0.72,0.49-0.8,1.05-0.28,1.62
		c5.93,6.57,7.74,14.76,8.45,23.12c0.61,7.2,0.43,14.45-2.81,21.32c-2.49,5.29-6.21,8.66-11.98,9.71
		c-7.89-2.85-11.97-9.09-14.53-16.76c0.22,5.03,2.12,9.21,5.1,12.91C443.45,819.09,446.53,820.68,450.54,819.82z M450.53,640.98
		c-1.9,0.47-0.94,1.9-1.01,2.99c-1.88,0.49-0.95,1.91-1,3c-2.14,0.89-0.87,2.62-1,4.01c-0.51,0.08-0.92,0.29-1.05,0.84
		c-2.58,10.56-3.03,21.39-4.07,32.15c-0.16,1.63-0.42,3.43,0.87,5.01c-0.22-4.34,1.01-8.49,1.21-12.71
		c0.27-5.6,1.08-11.09,1.91-16.61c0.43-2.88,1.92-5.71,1.03-8.76c2.05-0.91,0.87-2.62,1-4.01c1.8-0.51,0.95-1.91,1-3
		c1.81-0.5,0.95-1.9,1.01-2.99c1.62-0.54,1.3-1.48,0.56-2.57C450.04,639.12,450.44,640.07,450.53,640.98z M441.53,698.98
		c-2.32,2.19-0.88,4.7-0.63,7.1c0.97-2.34,0.62-4.77,0.53-7.19c2.26-2.24,0.75-4.67,0.1-7.06
		C441.53,694.22,441.53,696.6,441.53,698.98z M450.39,694.82c0.46-0.15,1.01-0.25,1.02-0.86c0.01-6.4,0.01-12.8,0.01-19.21
		c-0.31,0-0.62,0-0.93,0c0,6.72,0,13.43,0,20.15c-2.01,1.92-1.17,4.01-0.1,6.1C450.39,698.94,450.39,696.88,450.39,694.82z
		 M452.17,672.02c0-3.03,0-6.05,0-9.08C451.57,666,450.92,669.04,452.17,672.02z M458.18,624.38c-2.01,0.85-2.42,2.43-2.69,4.51
		C457.81,627.83,457.87,626.04,458.18,624.38z M453.21,636.47c0.15-2.35,2.35-3.27,0.73-5.21
		C453.22,632.52,451.85,633.48,453.21,636.47z M453.08,660.59c0.56-1.72,0.85-2.92-0.38-4.37
		C452.42,657.77,451.97,658.97,453.08,660.59z M453.83,649.74c-0.5,2.06-0.64,3.24,0.09,5.1
		C454.71,652.95,454.71,651.86,453.83,649.74z M439.94,711.44c0.89-1.04,0.83-2.05,0.05-3.12
		C439.1,709.37,439.17,710.38,439.94,711.44z M459.88,621.81c0.82-0.74,2.05-0.96,1.16-2.81
		C460.22,619.74,458.99,619.97,459.88,621.81z M454.97,645.23c-0.76,1.31-0.86,2.24,0.09,3.2
		C455.74,647.41,455.7,646.52,454.97,645.23z M448.97,704.22c-0.76,1.31-0.86,2.24,0.09,3.2
		C449.74,706.4,449.7,705.51,448.97,704.22z M448.23,711.78c0.04-0.98,0.86-1.74-0.68-2.64
		C447.47,710.14,447.19,710.87,448.23,711.78z M455.95,643.61c0.8-0.95,0.7-1.65,0.04-2.33
		C455.24,641.9,455.21,642.57,455.95,643.61z"/>
	<path class="st0" d="M422.45,105.96c-4.59-2.08-5.43-6.75-6.73-10.7c-2.92-8.86-1.02-17.19,4.86-25.16
		c-5.01,0.05-9.07,2.33-13.45,2.67c-1.63-11.39,6.54-23.71,22.04-29.24c-3.44-1.43-6.79-2.89-8.98-5.66
		c-2.1-2.64-3.95-5.61-4.41-9.25c2.13-1.45,3.99,0.6,6.07,0.6c7.79,0.03,14.88-2.34,21.68-5.68c12.35-6.07,24.59-12.32,37.76-16.54
		c10.69-3.43,21.66-5.02,32.67-3.75c16,1.85,29.25,9.07,38.44,22.85c2.7,4.05,5.29,8.13,7.35,12.59c1.2-4.08-1.48-7.01-3.12-9.98
		c-4.72-8.55-4.92-8.44,0.84-17c6.79,11.17,18.32,18.46,23.15,31.34c-8.98,4.04-17.72,7.97-26.46,11.92
		c-2.14,0.97-3.83,1.9-3.92,4.95c-0.32,11.03-6.23,19.33-14.56,25.7c-6.06,4.63-13.16,7.37-20.61,9.83
		c-9.54,3.16-19.73,5.12-28.31,11.17c-4.92,3.47-9.24,7.29-12.41,12.38c-0.9,1.45-2.09,2.55-3.42,3.54
		c-7.03-10.75-8.94-27.08,5.26-38.26c-4.97-1.47-9.62,0.32-14.14,0.96c-6.42,0.9-12.91,2.41-18.93,4.79
		c-7.79,3.07-15.12,7.31-20.4,14.2c-0.36,0.47-0.31,1.26-0.46,1.9C422.27,106.14,422.45,105.96,422.45,105.96z"/>
	<path class="st0" d="M901.78,870.02c-1.36-22.73-4.85-44.54-10.42-65.95c-4.61-17.7-10.48-35.04-18-51.77
		c-8.14-18.12-17.32-35.66-28.68-52c-6.37-9.16-13.13-17.99-20.47-26.44c-8.84-10.2-18.51-19.55-28.23-28.82
		c-9.26-8.82-19.51-16.59-29.95-24.01c-12.8-9.11-25.91-17.8-39.57-25.53c-13.24-7.5-26.52-14.96-40.53-21.1
		c-8.65-3.79-17.35-7.53-26.42-11.5c3.62-5.51,5.55-11.53,9.13-16.48c2.94-4.07,7-7.41,10.88-10.7c1.98-1.68,4.91-0.95,7.24-0.56
		c12.4,2.07,23.3,7.02,32.47,16.04c8.4,8.26,15.16,17.79,22.7,26.72c9.01,10.68,20.1,17.91,34.71,18.16
		c0.48,0.01,0.95,0.22,1.42,0.34c-0.89,6.4-0.89,6.4-6.51,5.48c-1.26-0.21-2.01,0.02-6.12,1.97c9.87-0.03,18.31,2.84,26.21,7.26
		c9.12,5.1,16.81,11.65,23.02,20.33c10.23,14.28,16.42,30.62,24.78,45.83c8.65,15.75,21.32,25.63,40.13,25.77
		c0.32,0,0.65,0.13,0.97,0.21c-0.92,5.46-3.09,8.21-10.18,13.19c10.95-1.39,21.28-0.86,29.82,9.17c-6.81,0.35-12.69-0.18-17.8,2.58
		c0.2,1.96,1.27,2.61,2.09,3.37c13,11.89,21.04,26.7,25.93,43.44c1.93,6.62,3.07,13.33,4.06,20.16c1.11,7.63,0.85,15.22,0.78,22.82
		c-0.14,14.74-3.35,28.91-8.88,42.55C905.13,863.54,904.37,866.77,901.78,870.02z"/>
	<path class="st0" d="M211.61,640.98c-0.07-1.91-0.96-3.4-2.51-4.99c-6.06,12.69-6.94,26.29-8.95,40.42
		c-10.2-18.6-23.84-32.13-44.06-38.22c4.61-3.12,10.01-1.81,15.3-2.33c-0.22-3.08-2.7-4.58-4.05-6.63
		c-4.43-6.72-6.62-14.01-7.89-21.93c-1.3-8.13,0.31-15.51,3.01-22.98c3.77-10.42,10.67-18.42,19.08-25.26
		c7.56-6.15,15.34-12.07,21.79-19.42c4.84-5.52,7.3-12.06,6.09-20.18c11.87,5.89,17.51,15.48,19.97,27.35
		c2.44,11.75,1.09,23.01-5.16,33.99c2.92-0.95,3.37-3.14,4.4-4.89c2.48-4.19,3.57-8.88,3.84-13.56c0.36-6.25-0.03-12.54,2.92-18.89
		c5.47,7.66,8.95,15.89,9.02,25.5c0.07,9.5-4.31,17.39-9.21,25.25c5.37-6.9,10.25-13.87,20.59-15.39
		c-3.74,7.3-4.74,14.28-4.47,21.58c0.19,5.18,2.12,9.9,3.15,14.85c1.26,6.08,3.34,12,2.89,19.13c4.97-1.64,9.16-4.33,14.57-3.03
		c-7.68,8.6-13.43,18.12-16.75,29.52c-4.86-6.56-10.09-12.13-16.05-16.99c-1.14-0.93-1.95-2.35-3.74-2.09l0.2,0.19
		c-1.61-2.28-3.01-4.79-6.2-5.16l0.21,0.15c-0.61-1.28-1.29-2.48-3.14-2.58c-0.29,7.41,0.57,14.65-1.53,21.71
		c-2.56-0.33-3.79-2.31-5.3-4.04c-3.07-3.52-4.54-8.19-8.21-11.26L211.61,640.98z"/>
	<path class="st0" d="M694.46,256.62c-3.26,5.1-6.68,9.58-12.05,12.24c-1.54,0.77-2.8,1.07-4.6,0.26c-3-1.35-6.29-1.78-10.8-0.69
		c7.24,1.26,12.99,3.11,17.75,7.43c6.15,5.58,9.02,12.67,10.6,20.57c1.59,7.97,1.99,16.26,5.96,23.65c1.56,2.9,3.35,5.63,5.6,8.26
		c-7.12,4.57-15.42,2.87-23.31,4.02c0.65,2.85,1.1,5.06,0.24,7.6c-6.87-3.73-14.13-4.44-21.63-4.15
		c-10.93,0.43-21.6-1.11-32.48-5.46c0.68,2.99,0.67,5.35,0.46,8.25c-9.38-6.59-20.14-8.17-30.57-10.69
		c-3.73-0.9-7.19-2.35-10.41-4.24c-4.83-2.83-7.43-7.31-7.63-12.96c-0.13-3.65-1.47-6.95-2.56-10.46c2.43-3.09,5.75-5.3,8.63-7.99
		c4.81-4.5,8.89-9.74,12.79-15.03c9.63-13.05,16.18-27.56,19.72-43.41c0.07-0.32,0.24-0.62,0.3-0.94c0.36-1.73-0.74-3.97,1.05-5.15
		c2.2-1.44,4.89-0.78,7.31-0.56c13.46,1.2,24.35,7.83,34.5,16.25c6.53,5.42,13.29,10.58,22.04,12.28
		C688.28,256.25,691.27,255.4,694.46,256.62z"/>
	<path class="st0" d="M235.39,641.79c0.19,1.28,1.26,1.92,2.07,2.71c6.29,6.2,12.89,12.11,18.37,19.79
		c1.15-3.08,2.03-5.45,2.98-7.98c28.92,31.63,35.12,70.66,37.96,111.97c-13.57-4.96-26.35-9.08-39.87-10.58
		c-13.57-1.5-27.05-1.17-40.85,0.33c-3.37-7.87-5.36-16.27-7.32-24.62c-2.62-11.16-4.33-22.47-5.34-33.95
		c-0.62-6.97-1.01-13.91-0.67-20.81c0.58-11.94,2.16-23.79,5.9-35.24c0.47-1.44,0.65-3.3,3-2.43l-0.2-0.18
		c2.49,8.12,7.73,14.08,14.59,18.89c1.45-2.73,1.7-5.42,1.62-8.22c-0.11-3.97,0-7.95-0.03-11.92c-0.01-1.43,0.07-2.7,2-2.56
		l-0.21-0.15c1.61,2.28,3.01,4.79,6.2,5.16L235.39,641.79z"/>
	<path class="st0" d="M309.8,926.47c-20.96-20.41-40.63-41.26-57.3-65.53c-5.91-0.69-12.47,0.07-18.83,1.11
		c-11.26-23.63-13.38-48.49-14.08-74.41c4.46,2.67,8.38,5.03,12.3,7.38c-0.83-4.42-3.84-7.61-4.68-12.1c9.89,0.44,19.48,1.6,29,3.45
		c12.6,2.45,24.4,7.26,36.18,12.11c4.88,2.01,4.66,2.03,4.08,7.95c-0.39,3.96,0.45,8.09-0.25,11.96c-0.77,4.3,0.39,6.72,4.02,9.09
		c4.65,3.05,8.61,7.12,13.15,10.37c1.67,1.2,1.94,2.38,1.99,4.08c0.36,11.63-1.01,23.19-1.26,34.8c-0.21,9.52-0.8,19.13-1.91,28.61
		C311.41,912.21,312.01,919.19,309.8,926.47z M252.64,810.32c2.89,3.5,6.07,6.56,9.67,9.74c2.35-3.41-0.64-5.4-1.95-5.55
		c-2.54-0.31-3.36-2.22-4.96-3.36C254.66,810.63,254.22,809.37,252.64,810.32z"/>
	<path class="st0" d="M82.62,774.99c-0.21-2.02,1.19-1.76,2.53-2.04c6.56-1.37,13.19-0.95,19.8-0.94c5.4,0.01,10.83-0.5,16.86,1.12
		c-1.67-4.12-4.73-6.44-6.82-10.07c26.87-0.86,52.23,4.12,77.25,12.25c-3,29.25,2.27,57.02,12.82,84.57
		c-24.79-2.82-48.46-8.51-70.82-18.9c-22.6-10.5-41.26-26.09-57.83-46.37c6.79,1.74,12.59,1.35,18.86,1.37
		c-2.2-4.99-5.81-8.17-9.74-11.09c-0.34-0.34-0.68-0.68-1.02-1.03c0.59-2.22-1.92-2.79-2.38-4.5c1.43-0.51,2.96,1.81,4.49-0.35
		c-0.85-1.85-2.25-3.29-4.19-4.23L82.62,774.99z"/>
	<path class="st0" d="M84.5,783.87c0.34,0.34,0.68,0.68,1.02,1.03c0.36,3.94,4.54,5.01,6.25,8.45c-6.57,1.39-12.85-0.23-19.4-0.93
		c5.21,6.03,9.85,12.38,15.94,17.83c-9.15,4.96-18.82,8.43-26.06,16.11c-0.55-4.7,0.43-7.4,5.25-14.72c-1.3-1.5-3.08-0.89-4.58-0.82
		c-17.06,0.75-28.68-7.54-36.74-21.88c-2.16-3.85-4.57-7.56-6.6-11.48c-2.12-4.1-5.95-6.61-8.98-10.26
		c2.02-0.37,4.26,0.04,5.67-2.08c-7.19-7.01-11.77-15.46-13.47-25.6c5.73,4.23,12.87,5.87,17.83,11.11
		c3.08,3.25,6.9,5.28,11.58,5.88c-9.72-5.22-16.13-13.37-21.2-22.81c-5.28-9.83-6-20.39-5.11-32.46c1.61,1.9,2.68,3.27,3.87,4.54
		c8.74,9.32,20.07,13.04,32.24,15.3c10.63,1.98,21.49,2.19,32.02,4.85c6.61,1.67,12.85,3.78,17.59,9.81
		c1.47-3.38,2.26-6.2,4.66-9.14c0.94,18.02,10.36,31.26,21.48,44.08c-12.59-2.24-24.74-0.32-36.94,1.47
		c-0.62,1.72,0.5,2.34,1.8,2.84l-0.19-0.21c0.12,0.9,0.24,1.81,0.35,2.65c-1.32,1.54-2.97-1.97-4.46,0.62
		C80.68,779.67,81.59,782.75,84.5,783.87z"/>
	<path class="st0" d="M527.65,291.44c-0.43-17.01,3.79-31.48,13.31-44.32c6.25-8.43,14.43-14.85,22.37-21.58
		c10.55-8.95,21.05-18.02,26.69-31.32c2.98-7.04,5.4-14.04,4.35-22.62c3.1,3.02,3.66,6.41,4.78,9.32
		c5.55,14.44,8.48,29.45,7.09,44.94c-1.11,12.4-4.26,24.42-8.43,36.2c-4.53,12.81-11.41,24.25-19.33,35.14
		c-1.88,2.58-4.93,3.77-7.49,5.55c-7.57,5.25-15.49,9.67-24.63,11.75c-3.65,0.83-6.91-0.05-10.17-0.94
		c-2.57-0.69-2.39-5.24,0.38-7.41c1.66-1.3,3.14-2.83,5.14-3.81c4.18-2.05,5.77-5.73,4.48-9.23c-1.36-3.69-6.03-6.2-10.12-5
		C533.45,288.86,530.65,289.19,527.65,291.44z"/>
	<path class="st0" d="M442.29,921.27c7.41,2,14.7-0.95,22.09-0.35c14.12,1.14,26.72,5.89,38,14.47c6.76,5.14,12.6,11.19,18.39,17.43
		c-0.32-3-2.11-5.18-3.99-7.24c-5.03-5.51-10.64-10.4-16.82-14.57c-1.5-1.01-2.9-1.59-1.88-4.09c3.49,2.53,7.03,4.66,10.98,6.13
		c7.82,2.91,16.01,3.4,24.18,3.87c8.22,0.47,16.46-0.46,24.62,1.94c8.32,2.45,15.69,6.42,22.55,11.59
		c5.04,3.81,8.99,8.56,12.67,13.63c1.67,2.3,2.76,4.82,3.67,7.47c1.02-0.33,1.84-0.65,1.08-2.04c-1.41-2.59-2.21-5.68-4.12-7.79
		c-3.56-3.95-3.34-4.67,0.38-9.58c3.19,4.89,5.95,10.16,11.54,12.82c1.69-1.43,0.4-3.33,1.15-4.72c3.4,5.06,8.64,7.47,14.25,8.61
		c10.46,2.13,20.95,0.38,31.38-0.83c4.19-0.49,5.98,0.26,6.82,4.35c0.27,1.31,0.94,2.49,1.02,3.77c0.09,1.35,1.44,2.33,0.77,4.2
		c-3.33,1.07-7.23,0.94-10.77,1.17c-11.07,0.69-22.17,2.07-33.29,1.22c-16.84-1.28-33.64-2.61-50.18-6.67
		c-12.85-3.15-25.79-5.88-38.3-10.25c-11.12-3.89-21.95-8.48-32.7-13.28C476.9,944.07,459.27,933.53,442.29,921.27z"/>
	<path class="st0" d="M338.73,302.68c7.51-7.81,9.91-19.18,19.6-25.37c-7.78,0.13-14.44-1.34-18.82-8.66
		c2.38-1.17,5.04,0.11,7.17-0.79c3.46-1.45,6.79-3.11,9.58-5.91c5.67-5.69,9.9-12.68,16.65-17.58c-1.6-2.54-3.44-4.41-4.55-6.83
		c-1.62-3.56-0.6-6.78,0.53-10.02c0.5-1.45,1.83-1.72,3.31-1.1c3.98,1.64,8.28,1.96,12.45,2.53c5.45,0.74,10.68-1.39,15.96-2.48
		c4.77-0.98,9.52-1.99,15.16-2.62c-8.71,20.7-10.32,41.15-4.72,62.55c-7.27,3.55-11.46,10.5-15.77,17.24
		c-1.37,2.15-3,3.34-5.25,3.89c-7.99,1.98-15.97,4.1-24.33,3.31C356.21,309.93,347,307.98,338.73,302.68z"/>
	<path class="st0" d="M613.13,496.35c2.92,3.12,2.16,6.47,2.09,9.87c-3.09,1.56-5.9-0.07-8.53-0.89c-8.57-2.68-17.33-4.67-25.94-7.2
		c-3.59-1.06-5.79-3.47-8.67-5.2c-7.15-4.28-8.95-11.33-10.74-18.85c-2.52-10.57-5.07-21.01-4.87-32.02
		c0.18-10.29,4.65-18.51,10.74-26.32c6.95-8.91,16.16-15.72,22.87-24.82c4.47-6.06,8.94-12.13,12.44-18.83
		c1.89-3.6,4.36-6.91,5.44-11.71c4.32,5.42,8.98,9.54,13.26,14.04c-3.36,10.47-10.75,17.71-18.8,24.33c-3.1,2.55-6.16,5.19-8.53,8.3
		c-3.54,4.66-3.64,9.99-0.44,15.3c-4.54,1.44-7.04-2.81-10.72-3c-0.78,1.56,0.57,2.32,1.37,2.77c4.37,2.43,4.93,6.55,5.25,10.9
		c0.65,9-0.87,17.76-3.12,26.38c-1.41,5.42-1.97,10.96-2.76,16.44c-1.46,10.06,7.76,21.61,17.84,23.2
		C606.59,499.87,608.3,499.48,613.13,496.35z"/>
	<path class="st0" d="M480.66,735.41c1.8,7.65,8.11,10.73,14.7,14.16c-6.98,5.24-14.47,7.75-23.34,7.1
		c1.8-9.58,3.63-18.95,5.28-28.36c0.4-2.27,0.08-4.65,0.27-6.96c1.21-14.07,3.54-27.92,8.37-41.26c1.06-2.93,3.61-4.74,5.63-6.84
		c3.93-4.07,7.79-8.36,13.47-10.85c4.02,25.13,11.71,48.96,20.71,72.4c0.35,0.91,0.95,1.73,1.38,2.61c3.02,6.08,3.14,6.32-3.26,9.44
		c-9.6,4.68-19.35,4.07-29.07,0.03C488.95,744.43,484,740.94,480.66,735.41z"/>
	<path class="st0" d="M606.98,94.2c9.5,18.55,8.64,37.62,2.91,57.76c-4.67-8.14-8.22-16.36-14.39-23.11
		c-2.13,1.29-1.16,3.64-1.67,5.32c-4.27,14.26-13.48,22.82-28.11,25.76c-11.25,2.27-21.29,0.1-29.51-8.02
		c-3.27-3.23-5.02-7.58-4.38-13.11c9.41,3.6,18.43,5.25,27.36-0.6c8.61-5.64,11.53-14.32,13.57-24.12
		c5.25,0.62,10.35-0.24,14.48-3.46c5.32-4.15,10.84-8.11,15.43-13.15C603.83,96.2,604.78,94.43,606.98,94.2z"/>
	<path class="st0" d="M650.79,502.26c12.56,7.81,22.7,16.89,30.79,27.66c-4.24,4.78-7.95,8.97-12.14,13.71
		c-13.2-16.03-27.01-29.71-46.35-36.6c3.45-5.79,6.24-10.91,7.79-16.62c0.51-1.87,1.49-3.64,4.15-3.4
		c8.96,0.81,17.83-1.35,26.78-0.97c16.91,0.72,33.59,3.14,50.02,7.2c0.75,0.18,1.39,0.78,2.38,1.37c-3.52,4.59-6.95,9.18-11.3,13.11
		c-11.74-3.21-23.67-4.72-36.09-5.26c7.73,6.53,15.69,12.86,21.38,21.55c-0.33,1.24-1.44,1.96-2.61,2.78
		c-0.4-0.2-0.89-0.34-1.23-0.65c-4-3.73-7.01-8.34-11.04-12.07c-4.85-4.5-10.5-7.84-15.84-11.62
		C655.8,501.25,653.78,501.77,650.79,502.26z"/>
	<path class="st0" d="M700.53,665.9c1.06-1.75,2.41-3.42,1.21-5.69c-0.04-0.08,2.01,1.04,1.81-1.01c-0.1-1.04-1.34-2.54-0.92-2.59
		c2.75-0.3,1.42-2.46,2.04-3.69c0.88-1.74,0.52-3.58,0.93-5.3c2.06-8.61,1.9-17.35,1.95-26.11c0.06-10.73-0.03-21.43-2.94-31.89
		c-0.3-1.07-0.21-2.29,0.52-3.86c5.18,2.97,10.19,6.01,15.35,8.76c3.22,1.72,2.37,5.06,2.6,7.34c1.15,11.15,2.74,22.33,2.2,33.58
		c-1.04,21.59-4.85,42.55-13.86,62.42c-2.51,5.53-5.42,10.77-8.98,17.21c-3.38-20.75-7.93-40.06-14.67-58.83
		c2.46,3.16,2.99,7.11,4.41,10.67c1.45,3.62,2.39,7.44,3.7,11.65c0.9-2.24,1.87-4.14,2.4-6.15c0.4-1.48,3.28-1.26,2.23-3.52
		l-0.17,0.11c1.82-1.07,1.82-2.15,0-3.22L700.53,665.9z"/>
	<path class="st0" d="M380.72,1038.64c-2.69,6.72-6.76,11.29-9.29,17.08c-1.74-2.15-2.48-4.23-3.47-6.59
		c-1.2,2.41-0.52,4.33,0.56,6.08c1.11,1.79,2.72,3.31,2.81,6.23c-28.16,10.16-56.12,9.88-84.29-1.25c1.55-8.38,4.51-16.05,6.4-24.51
		C322.28,1045.76,350.94,1046.8,380.72,1038.64z"/>
	<path class="st0" d="M633.19,484.49c0.5-3.82,4.15-3.17,6.09-3.24c10.09-0.37,20.25-2.53,30.25-0.99
		c7.05,1.08,14.2-0.57,21.21,1.58c-6.43-2.79-10.86-9.72-19.23-8.13c-3.7,0.7-7.64,0.15-11.47,0.11c-7.94-0.09-15.88-0.11-24.1,1.64
		c0.51-3.85,1.93-6.9,2.53-10.09c0.77-4.08,3.2-5.87,6.89-6.16c2.96-0.23,5.88-0.96,8.8-1.06c8.1-0.3,16.15-1.78,24.29-1.12
		c0.63,0.05,1.29-0.1,1.96-0.6c-4.2,0.44-7.89-2.58-12.4-1.03c-4.25,1.46-8.89,0.01-13.35,0.74c-4.24,0.7-8.45,2.21-13.15,1.47
		c1.24-4.05,4.86-2.89,6.85-3.2c8.11-1.27,16.29-2.38,24.56-2.37c2.99,0,5.75,1.23,8.81,1.12c3.53-0.13,6.78-0.81,10.02-2.13
		c7.14-2.91,14.46-4.26,22.05-1.76c0.43,0.14,0.77,0.58,1.46,1.12c-2.82,8.34-9.7,12.52-17.36,16.34c3.43,3.48,7.33,5.7,9.61,9.66
		c2.82,4.88,2.31,6.11-3.44,6.45c-0.97,0.06-2.01-0.26-3.11,0.71c6.15,1.34,12.12,2.64,18.3,3.99c-0.84,2.76-2.26,3.04-5.09,2.45
		c-11.37-2.39-22.78-4.34-34.42-5.4c-12.47-1.13-24.88-0.22-37.3-0.74C639.34,483.7,636.39,485.77,633.19,484.49z"/>
	<path class="st0" d="M757.2,1063.98c-8.15,4.09-16.28,7.31-24.91,8.16c-6.93,0.68-13.77,2-21.04,0.99
		c-8.12-1.13-16.21-2.11-24.08-4.4c-6.29-1.83-10.11-8.61-8.66-15.02c0.78-3.46,1.78-6.87,2.79-10.75
		c24.11,5.7,47.86,4.43,71.77-1.45C753.9,1049.81,751.47,1057.8,757.2,1063.98z"/>
	<path class="st0" d="M555.02,456.26c0.84,6.42,2.93,12.11,4.11,18.29c-10.97,1.36-20.72-2.03-29.85-7.52
		c-11.48-6.89-20.56-16.45-28.13-27.33c-2.52-3.62-5.14-7.68-4.63-12.72c0.39-3.84,2.64-5.31,5.95-3.22
		c1.49,0.94,3.06,1.83,4.39,3.15c5.17,5.12,10.2,10.36,15.83,15.05C532.09,449.78,542.13,455.77,555.02,456.26z"/>
	<path class="st0" d="M300.94,235.9c1.78,6.31,3.37,11.93,4.99,17.67c-6.98,2.48-14.24,1.62-21.21,1.07
		c-9.45-0.74-18.55-3.7-27.18-7.81c-1.32-0.63-2.66-1.23-3.83-2.22c-2.27-1.93-6.68-2.16-6.82-5.48c-0.11-2.68,0.35-5.79,1.43-8.6
		c0.62-1.61,0.29-3.58,1.62-4.89C265.46,235.75,282.42,239.06,300.94,235.9z"/>
	<path class="st0" d="M530.77,136.35c-0.87,5.51-0.87,5.68-6.4,5.47c-12.4-0.46-23.77-4.11-33.84-11.49
		c-0.66-0.49-1.22-1.13-1.78-1.75c-0.43-0.47-0.77-1.01-1.41-1.86c1.82-0.97,3.13-0.35,4.72,0.13c8.66,2.6,17.46,4.57,26.6,4.23
		c11.55-0.44,21.99-4.15,30.28-12.19c4.77-4.63,8.49-10.41,10.08-18.56c1.98,6.57,5.88,10.33,10.56,13.72
		c-6.11,11.48-14.37,20.38-26.81,24.66C538.47,140.18,534.55,138.27,530.77,136.35z"/>
	<path class="st0" d="M657.73,564.49c3.24,0.5,5.86,2.28,8.81,3.16c1.7,0.51,2.48,1.61,2.97,3.49c1.67,6.32,2.59,12.78,3.99,19.13
		c1.37,6.21,0.19,12.47,1.65,18.67c1.27,5.4-1.82,10.89-1.4,16.6c-3.74-6.27-7.47-12.55-11.24-18.81
		c-2.79-4.62-5.42-9.35-8.54-13.74c-1.74-2.45-2.41-4.85-2.5-7.77c-0.13-4.42,0.85-8.91-0.78-13.28c-0.64-1.73,0.85-2.94,2.12-3.53
		C654.71,567.54,655.83,565.86,657.73,564.49z"/>
	<path class="st0" d="M510.28,407.87c3.72-3.29,5.67-7.56,8.83-11.25c1.95,4.8,5.21,8.4,9.06,11.37c1.77-0.34,1.42-2.41,2.37-2.62
		c9.74,5.88,19.19,11.6,28.77,17.39c-2.34,4.95-4.81,9.94-5.23,15.83C537.02,432.03,522.74,421.79,510.28,407.87z"/>
	<path class="st0" d="M534.95,164.07c3.53,0,6.65,0.02,9.77-0.01c1.97-0.02,3.96,0.22,5.78-0.92c2.15-1.35,4.39-0.06,6.58-0.08
		c9.45-0.11,18.11-2.55,25.55-8.63c0.61-0.5,1.06-1.32,2.69-0.93c0,5.74,0.04,11.64-0.02,17.55c-0.03,2.53-2.03,3.72-3.87,4.76
		c-10.3,5.78-21.16,7.06-32.24,2.82C542.59,176.09,537.63,171.44,534.95,164.07z"/>
	<path class="st0" d="M296.26,214.99c-14.16,10.02-31.7,10.5-45.49,2.49c1.29-4.39,1.32-9.14,3.27-14.02
		c13.94,4.38,27.55,2.74,41.15-3.04C293.16,205.7,295.72,210.25,296.26,214.99z"/>
	<path class="st0" d="M166.9,1216.27c-3.02-4.65-0.64-9.58,0.72-14.27c2.68-9.25,8.23-16.32,17.36-20.18
		c4.32-1.83,7.76-0.27,8.25,4.34c0.33,3.03,0.65,6.18-0.61,9.3c-0.64,1.57-1.31,3.3-1.3,5.22c0.04,6.38-4.87,9.29-9.66,10.62
		c-4.31,1.2-8.37,2.48-12.11,4.85C168.98,1216.51,168.41,1216.84,166.9,1216.27z"/>
	<path class="st0" d="M554.31,314.63c-4.05,10.46-14.11,12.9-21.47,10.25c-5.75-2.07-10.63-8.76-11.19-15.58
		c-0.28-3.39-0.27-6.76,1.18-10.2c3.29-7.82,11.49-9.74,17.97-9.04c1.72,0.19,2.95,1.24,3.28,2.63c0.48,2.02,0.85,4.2-0.99,6.05
		c-1.66,1.67-3.69,2.77-5.61,4c-1.3,0.83-2.39,1.81-3.32,2.93c-3.93,4.8-0.65,9.28,3.83,10.43
		C543.5,317.52,548.58,315.93,554.31,314.63z"/>
	<path class="st0" d="M647.8,1262.64c-7.24-8.32-11.03-17.33-8.38-28.53c0.94-3.97,3.48-6.36,6.19-8.64
		c3.42-2.87,6.64-1.92,8.63,2.1c2.41,4.85,5.24,9.57,3.99,15.43C656.63,1250.48,654.07,1257.4,647.8,1262.64z"/>
	<path class="st0" d="M274.17,1239.25c-8.26-7.05-9.74-22.14-4.74-30.08c1.95-3.1,4.73-4.97,7.55-6.87
		c1.43-0.97,3.22-0.57,4.29,1.17c2.31,3.76,4.39,7.63,6.11,11.71c1.12,2.66,0.59,4.97-1.07,7.19c-2.08,2.77-4.12,5.59-6.82,7.78
		C276.7,1232.4,275.52,1235.62,274.17,1239.25z"/>
	<path class="st0" d="M238.09,1230.48c-10.42-9.28-10.37-27.25,1.71-34.34c3.24-1.9,4.24-1.71,6.04,1.72
		c0.91,1.74,1.73,3.52,2.6,5.28c4.47,9.02,2.57,16.79-5.7,22.44c-0.95,0.65-1.86,1.3-2.69,2.08
		C239.2,1228.44,238.35,1229.22,238.09,1230.48z"/>
	<path class="st0" d="M294.58,1030.42c0.85-2.41,1.2-3.91,4.46-2.77c18.24,6.4,37.17,8.39,56.37,7.22
		c9.47-0.58,18.65-3.17,27.62-6.22c1.26-0.43,2.49-0.62,3.75-0.89c-1.74,5.49-2.49,6.44-7.6,7.92c-7.07,2.05-14.27,3.31-21.6,4.28
		c-6.14,0.81-12.26,1.09-18.3,0.66C323.93,1039.53,308.84,1036.88,294.58,1030.42z"/>
	<path class="st0" d="M422.27,106.14c4.79-3.66,8.91-8.22,14.83-10.68c0.44,3.21-1.77,5.77-1.86,8.86
		c-0.13,5.06,0.71,9.74,2.94,14.26c1.52,3.08,2.51,6.34,2.29,10.04c-2.33,1.9-5.55,1.11-8.23,2.21c-0.28,0.12-0.66,0.06-0.99,0.02
		c-2.54-0.3-5.58,2.74-7.38,0.23c-2.02-2.81-2.98-6.48-3.32-10.12c-0.48-5.15,0.74-10.07,1.89-15.01L422.27,106.14z"/>
	<path class="st0" d="M215.22,1207.24c1.86,6.28-3.17,8.75-7.36,11.08c-2.49,1.38-5.27,2.59-8.02,3.65c-2.81,1.08-4.9,0.03-5.2-2.94
		c-1.17-11.36,3.07-20.75,12.63-26.95c3.82-2.48,7.14-0.83,7.02,3.62C214.2,1199.54,216.19,1203.13,215.22,1207.24z"/>
	<path class="st0" d="M689.81,1263.58c-6.24-6.27-10.66-13.18-10.33-22.5c0.22-6.11,3.85-10.02,8.05-13.52
		c1.67-1.4,3.41-0.81,4.87,1.38C700.32,1240.81,697.94,1252.29,689.81,1263.58z"/>
	<path class="st0" d="M680.87,1033.4c24.08,4.86,48.12,5.78,71.77-2.34c1.25,5.77,0.97,6.34-4.36,7.61
		c-13.35,3.17-26.89,4.97-40.61,3.99c-7.49-0.54-14.94-1.83-22.36-3.1C682.59,1039.09,679.9,1037.81,680.87,1033.4z"/>
	<path class="st0" d="M469,238.85c-4-9.05-10.24-16.04-18.43-20.76c0.76-3.09,2.17-5.97,3.53-9.06c5.64,3.43,11.3,6.31,17.97,6.04
		c2.71-0.11,3.79,1.45,3.16,3.78C473.41,225.56,471.82,232.34,469,238.85z"/>
	<path class="st0" d="M728.14,598.93c7.35,45.42,4.02,88.88-24.35,128.41c-0.81-4.58,1.68-7.5,3.43-10.43
		c9.89-16.64,16.63-34.48,20.2-53.43c2.68-14.21,2.71-28.7,1.92-43.08c-0.33-6.11-0.63-12.44-2.66-18.42
		c-0.35-1.02-0.05-2.26-0.05-3.4C727.13,598.7,727.63,598.82,728.14,598.93z"/>
	<path class="st0" d="M386.82,461.28c-1.7-3.4-1.45-6.91-2.2-10.2c-0.36-1.57,0.05-3.21-0.83-4.81c-0.59-1.08-0.74-2.93,0.09-3.84
		c4.61-5.06,8.1-11.3,14.65-14.4c1.53-0.72,2.86-1.57,4.44,0.03c1.38,1.4,1.34,2.54,0.7,4.38c-0.88,2.5-1.91,4.88-3.27,7.1
		C395.99,446.74,391.46,453.88,386.82,461.28z"/>
	<path class="st0" d="M681.39,637.82c-3.68-1.83-3.47-5.18-2.78-8.28c1.53-6.91,0.72-13.86,0.91-20.8
		c0.31-11.09-1.62-21.92-4.41-32.58c-0.43-1.64-0.32-3.21-0.79-4.85c3.21,0.45,4.31,2.58,5.01,5.27
		c4.14,15.73,5.64,31.75,4.94,47.96c-0.15,3.6-1.26,7.14-1,10.81c0.09,1.32-0.7,2.13-2.05,2.31L681.39,637.82z"/>
	<path class="st0" d="M751.66,1257.97c-4.07-2.92-6.17-6.87-8.87-10.33c-1.2-1.53-0.03-2.83-0.23-4.24
		c-0.41-2.92,0.37-5.86-0.62-8.83c-0.97-2.94,2.55-6.23,5.57-5.55c3.15,0.71,7.55,5.55,7.76,8.85
		C755.71,1244.67,755.16,1251.33,751.66,1257.97z"/>
	<path class="st0" d="M728.6,1257.52c-12.07-11.56-12.86-22.93-4.53-29.41C732.78,1231.07,735.65,1243.31,728.6,1257.52z"/>
	<path class="st0" d="M621.38,226.12c0.61-7.45,1.6-14.09,1.18-20.8c5.27,0.42,9.88,3.43,15.07,0.31
		c2.07,7.68-0.87,13.51-4.68,19.12c-0.61,0.9-1.73,1.48-2.6,0.96C627.62,224.05,624.98,225.2,621.38,226.12z"/>
	<path class="st0" d="M196.89,777.28c3.19,2.07,2.85,5.16,2.27,7.89c-1.12,5.27-1.16,10.4,0.07,15.63c0.37,1.58,0.11,3.31,0.16,4.97
		c0.43,14.86,3.75,29.11,8.93,42.98c1.43,3.83,3.21,7.49,4.99,11.14c-1.06,1.48-2.46,0.67-3.81,0.83
		C199.21,833.79,193.48,806.22,196.89,777.28z"/>
	<path class="st0" d="M392.13,397.12c2.39,3.78,5.42,6.8,7.27,11.03c-4.72,5.91-12.21,9.15-15.72,16.39c-0.36-0.2-0.72-0.4-1.08-0.6
		c0-5.73-0.3-11.48,0.11-17.18c0.25-3.55,3.92-5.08,6.2-7.35C389.71,398.61,391.02,398.08,392.13,397.12z"/>
	<path class="st0" d="M439.36,240.45c-0.55-14.47-2.28-29,3.8-43.08c2.2,2.67,4.13,5.3,6.52,7.54c1.22,1.14,0.38,2.33-0.12,3.6
		c-2.48,6.37-5.31,12.62-7.1,19.23C441.33,231.95,440.39,236.21,439.36,240.45z"/>
	<path class="st0" d="M306.97,255.77c0.63,2.89-0.34,3.63-2.33,4.12c-15.23,3.66-29.92,2.44-44.04-4.51
		c-4.86-2.39-9.65-4.83-13.84-8.39c-1.42-1.2-1.07-2.12-0.8-3.94C264.31,257.38,284.79,261.35,306.97,255.77z"/>
	<path class="st0" d="M535.01,400.27c0.86-1.19,1.75-2.16,3.05-2.93c8.54,6.56,18.13,11.33,28.45,15.13c-1.77,3.47-3.82,3.97-7,2.41
		C550.99,410.7,542.4,406.7,535.01,400.27z"/>
	<path class="st0" d="M296.94,217.91c0.51,2.04,0.83,3.24-1.08,4.2c-8.71,4.38-17.39,7.74-27.64,5.99
		c-6.04-1.04-11.88-2.01-17.21-5.13c-0.54-0.32-1.32-0.34-1.12-2.04C265.87,226.57,281.66,227.95,296.94,217.91z"/>
	<path class="st0" d="M455.39,174.3c-1.85,0.62-2.77,2.05-4.41,3.24c-1.16-0.56-2.32-2.43-4.03-1.44c-1.43,0.83-2.45,2.03-2.76,3.9
		c-0.2,1.24-1.04,2.41-0.84,3.78c0.2,1.44-0.72,2.42-1.29,3.42c-7.22-2.84-4.22-8.09-3.04-12.86
		C444.33,174.36,449.6,172.94,455.39,174.3z"/>
	<path class="st0" d="M542.11,565.89c-3.57-5.92-2.75-11.43,2.25-16.69C548.91,558.12,548.56,561.07,542.11,565.89z"/>
	<path class="st0" d="M564.35,563.13c4.26,6.14,4.12,10.1-0.5,14.32C558.84,570.71,559.02,565.46,564.35,563.13z"/>
	<path class="st0" d="M530.11,536.24c4.55,7.47,4.37,9.74-0.81,13.42C525.18,545.07,525.28,543.11,530.11,536.24z"/>
	<path class="st0" d="M523.42,498.92c5.72-4.72,7.96-5.37,14.68-4.47C536.27,500.29,532.54,501.05,523.42,498.92z"/>
	<path class="st0" d="M467.06,169.37c-2.44,2.32-1,6.47-4.75,6.34c-3.36-0.12-4.55-3.18-5.84-6.34
		C459.89,169.37,462.93,169.37,467.06,169.37z"/>
	<path class="st0" d="M471.65,191.42c-0.01-4.01-0.43-6.94,0.42-10.12c3.48,1.2,4.18,4.21,6.02,6.17
		C476.58,189.45,474.14,189.61,471.65,191.42z"/>
	<path class="st0" d="M434.54,178.74c-3.39-1.9-4.85-4.7-6.59-7.28c1.89-1.09,3.91-2.54,5.76-0.43
		C435.52,173.09,436,175.62,434.54,178.74z"/>
	<path class="st0" d="M458.44,192.11c2.23-0.37,1.81-3.5,4.12-3.92c1.44,0.72,0.28,2.46,1.24,3.38c2.56-0.16,1.05-3.23,3.27-4.13
		c1.04,0.77,2.33,1.53,2.22,3.91c-3.52,0.44-6.84,3.06-10.66,0.57L458.44,192.11z"/>
	<path class="st0" d="M451.41,183.88c-1.12,1.78-1.49,3.61-2.89,4.83c-2.55-2.69-2.73-5.63-0.48-9.66
		C450.02,180,450.08,182.25,451.41,183.88z"/>
	<path class="st0" d="M458.62,191.93c-2.55-0.22-5.32,0.44-7.54-2.25c0.29-1.38,0.48-3.05,2.62-3.5c1.27,1.26,0.17,2.94,1.03,4.29
		c2.29,0.15,1.32-2.54,2.96-3.43c1.12,1.62,0.43,3.45,0.76,5.06L458.62,191.93z"/>
	<path class="st0" d="M471.28,169.26c1.93,0,3.83,0,5.79,0c0.58,2.34-0.75,3.75-1.9,5.34C473.21,173.25,471.39,171.94,471.28,169.26
		z"/>
	<path class="st0" d="M481.82,186.37c-0.33-3.5,1.13-5.6,2.04-7.96c1.5,1.01,2.76,1.98,3.54,3.92
		C485.35,182.92,484.27,184.84,481.82,186.37z"/>
	<path class="st0" d="M386.42,389.18c1.2,0.48,1.24,1.76,1.93,2.81c-1.04,1.84-2.8,3.07-4.27,4.67
		C383.47,392.28,383.47,392.28,386.42,389.18z"/>
	<path class="st0" d="M586.43,80.29c1.94-2.92,3.76-4.36,5.43-5.95c1.13,0.76,2.11,1.63,3.02,3.16
		C592.32,78.34,589.87,79.15,586.43,80.29z"/>
	<path class="st0" d="M681.22,637.67c2.81,2.98,1.6,7.34,3.84,10.53c-2.66-2.76-3.39-6.39-4.79-9.71c-0.02-0.06,0.73-0.44,1.12-0.66
		C681.39,637.82,681.22,637.67,681.22,637.67z"/>
	<path class="st0" d="M295.06,55.98c1.97-0.98,3.02-2.2,4.71-1.73c0.99,1.11,0.54,2.43,0.46,4.01
		C298.66,57.57,297.2,56.92,295.06,55.98z"/>
	<path class="st0" d="M283.27,70.45c-1.64,0.56-2.77,0.47-4.11,0.22c0.25-1.84,1.09-3.19,2.73-4.09
		C282.89,67.71,281.84,69.27,283.27,70.45z"/>
	<path class="st0" d="M311.58,60.35c0.67-2.12,2.12-2.35,3.52-2.7C314.98,60.69,314.98,60.69,311.58,60.35z"/>
	<path class="st0" d="M352.74,141.55c-1.8-2.37-1.75-3.72,1.93-3.38C354.6,139.65,354.37,140.91,352.74,141.55z"/>
	<path class="st0" d="M454.16,169.34c-1.62,1.92-2.78,1.92-4.03,0.44C451.29,168.47,452.61,169.22,454.16,169.34z"/>
	<path class="st0" d="M485.99,170.83c-1.7-0.35-2.08-1.17-2.52-2.27C485.9,167.75,486.65,168.36,485.99,170.83z"/>
	<path class="st0" d="M439.96,169.36c1.36-0.41,2.3-0.29,3.28,0.03C441.99,171.35,441.99,171.35,439.96,169.36z"/>
	<path class="st0" d="M434.96,169.38c1.2-0.56,2.23-0.37,2.88,0.81c0.12,0.21-0.3,1.04-0.56,1.09
		C435.86,171.53,435.53,170.29,434.96,169.38z"/>
	<path class="st0" d="M492.8,176.44c-0.16-1.32-0.68-2.41,0.49-3.21c1.19,0.14,1.03,1.02,0.97,1.76
		C494.21,175.67,493.7,176.07,492.8,176.44z"/>
	<path class="st0" d="M323.06,73.48c-0.75-0.39-1.54-0.74-1.31-1.72c0.12-0.49,0.73-0.75,1.1-0.46
		C323.6,71.89,323.35,72.7,323.06,73.48z"/>
	<path class="st0" d="M685.82,650.43c0.45,1.19,1.62,1.67,1.29,2.89C685.53,652.88,685.41,651.97,685.82,650.43z"/>
	<path class="st0" d="M446.62,169.18c0.53,0.15,0.71,0.51,0.57,1.02c-0.12,0.42-0.36,0.43-0.66,0.07c-0.2-0.24-0.4-0.49-0.59-0.73
		C446.16,169.42,446.39,169.3,446.62,169.18z"/>
	<path class="st0" d="M700.53,668.9c-1.38-1-1.37-2,0-3c0,0-0.17-0.11-0.17-0.11c0,1.07,0,2.15,0,3.22L700.53,668.9z"/>
</g>
</svg>
