<?xml version="1.0" encoding="utf-8"?>
<!-- Generator: Adobe Illustrator 24.1.1, SVG Export Plug-In . SVG Version: 6.00 Build 0)  -->
<svg version="1.1" id="Layer_1" xmlns="http://www.w3.org/2000/svg" xmlns:xlink="http://www.w3.org/1999/xlink" x="0px" y="0px"
	 viewBox="0 0 546.14 907.18" style="enable-background:new 0 0 546.14 907.18;" xml:space="preserve">
<style type="text/css">
	.st0{fill:#1A1A1A;}
</style>
<g>
	<g>
		<path d="M306.14,644.77c-2.19,1.77-1.69,4.04-2.47,5.83c-0.99,2.28-1.38,4.88-4.45,5.44c-1.48,0.27-1.49,1.62-1.78,2.71
			c-0.81,3.08-2.03,5.98-3.87,8.59c-0.76,1.08-1.45,2.59-2.87,2.58c-3.6-0.05-4.22,2.37-3.92,4.93c0.28,2.42-1.45,3.51-2.52,5.18
			c2.31,5.08,3.84,10.33,4.74,15.76c0.22,1.31,0.92,3,0.02,3.88c-4.84,4.69-3.2,10.99-3.3,16.28c-0.28,14.66-1.06,29.26-2.43,43.84
			c-1.37,14.56-3.28,29.06-5.33,43.54c-0.93,6.58-1.53,13.22-2.3,19.91c5.04,1.53,1.88,4.97,1.77,7.38
			c4.41,4.8,6.82,10.59,8.59,16.17c1.6,5.06-0.7,10.47-4.51,14.69c-3.3,3.65-7.47,6.07-11.69,8.44c-4.35,2.44-8.76,4.81-13.04,7.37
			c-3,1.79-5.68,3.96-7.92,6.76c-6.22,7.8-23.99,14.15-33.9,12.33c-1.63-0.3-3.32-0.48-4.74-1.44c-1.52-1.02-2.88-0.91-4.65-0.25
			c-8.34,3.11-16.66,2.34-24.76-0.92c-2.68-1.08-5.5-1.09-8.21-1.83c-6.09-1.65-7.72-4.24-7.04-10.57
			c1.21-11.18,5.45-21.16,11.33-30.61c1.79-2.87,3.86-4.21,7.31-4.04c3.36,0.17,6.69,0.48,9.82,1.56
			c11.56,3.98,21.59-0.38,30.46-6.72c5.86-4.19,8.97-10.93,7.56-18.93c-4.01-22.76-7.82-45.55-11.78-68.31
			c-0.53-3.06-0.76-6.22-2-9.22c-0.69,0.1-1.28,0.01-1.59,0.26c-11.17,9.22-22.58,18.21-31.82,29.51
			c-6.6,8.07-11.87,16.85-14.47,27.09c-2.26,8.91-0.79,17.48,1.94,26c1.11,3.45,2.04,6.95,5.42,9.06c0.72,0.45,0.64,1.47,0.28,2.51
			c-3.57,1.6-7.07-0.45-10.56-0.84c-2.59-0.29-4.56-0.64-5.44,2.22c-20.6-4.41-34.99-16.06-43.72-34.84
			c-5.61-12.05-8.63-24.6-9.37-37.96c-2.25-40.72,7.84-78.04,29.68-112.33c0.98-1.54,1.98-3.08,2.99-4.61
			c0.58-0.87,1.12-1.93,0.44-2.77c-3.73-4.68,0.21-7.33,2.82-10.03c1.68-1.73,4.11-2.75,6.2-4.09c-2.27-4.66-2.13-6.03,2.72-6.73
			c7.66-1.11,12.78-5.59,17.88-10.71c4.46-4.48,9.21-8.7,14.09-12.72c2.26-1.86,2.9-3.86,2.45-6.51
			c-2.11-12.47-3.32-25.04-4.24-37.64c-1.07-14.6-2.68-29.17-2.88-43.83c-0.04-3.19-0.03-6.22-2.35-9.23
			c-2.06-2.67-0.04-6.4,0.49-9.01c-0.03-2.48-2.56-1.29-2.81-3.16c0.24-2.51,2.27-4.15,4.01-5.85c2-1.96,2.97-4.14,3.38-6.94
			c2.11-14.31,5.51-28.37,9.79-42.15c3.12-10.05,4.48-20.14,3.46-30.5c-0.88-8.97-0.76-17.96-1.24-26.94
			c-0.11-1.98-0.34-3.96-0.6-6.84c-8.34,5.95-11.95,14.44-17.05,22c-5.49,8.13-5.2,17.73-9.15,26.39c-2.79-0.38-4.55,0.9-5.65,3.51
			c-0.7,1.66-1.89,3.13-3.02,4.57c-3.25,4.16-4.91,4.5-9.78,2.09c-1.71,1.42-3.42,3.01-5.31,4.34c-1.16,0.82-3.1,2.29-3.99,1.1
			c-3.11-4.17-8.01-2.69-11.91-4.27c-12.05-4.91-22.65-11.44-28.18-23.75c-7.99-17.77-17.92-34.6-25.23-52.68
			c-1.18-2.93-2.18-5.94-3.3-8.89c-0.41-1.08-0.81-2.92-1.46-3.03c-4.12-0.72-3.54-3.54-2.93-6.35c-3.06-1.04-6.03-1.67-7.3-4.95
			c-0.43-1.1-1.85-1.25-2.99-1.57c-6.99-1.99-11.71-6.76-15.35-12.77c-1.9-3.13-3.7-6.32-5.5-9.51c-4.74-8.37-12.01-13.61-21-16.38
			c-2.97-0.92-6.13-1.43-9.17-2.26c-5.78-1.57-7.31-3.51-6.87-8.6c0.49-5.7,3.26-9.09,8.42-9.47c10.14-0.74,20.34-1.32,29.31,5.58
			c-2.86-2.74-5.06-5.84-7.5-8.75c-2.88-3.43-7.03-3.24-10.93-3.99c-5.45-1.04-9.19-4.98-9.21-9.08c-0.02-5.44,3.38-9.26,9.44-10.47
			c4.93-0.99,9.91-0.89,14.83-0.29c1.12-1.5,2-2.89,3.09-4.11c2.46-2.75,5.2-4.31,9.24-3.28c2.54,0.65,5.2,1.07,7.81,1.54
			c5.72,1.03,10.01,4.15,13.41,8.79c3.25,4.42,6.96,8.49,10.32,12.84c2.14,2.77,5.71,4.45,8.69,6.53c3.41,2.38,6.86,4.71,10.35,6.99
			c3.15,2.06,4.49,4.95,5.14,8.65c0.82,4.64,1.25,9.31,0.76,13.89c-1.01,9.46,2.49,17.29,8.12,24.34
			c6.64,8.31,13.63,16.36,20.73,24.85c3.37-4.57,6.78-8.84,8.98-13.89c3.87-8.87,8.37-17.38,13.34-25.68
			c5.06-8.46,8.56-17.64,11.56-27c1.78-5.56,3.75-11.02,6.52-16.18c0.7-1.31,1.64-2.78,1.59-4.15c-0.18-5.61,2.95-8.53,7.73-10.27
			c0.89-1.85-1.27-4.05,1.04-5.82c0.93-0.52,2.05,0,2.98,0.65c3.46,2.44,6.94,2.17,10.83,0.9c8.6-2.8,17.5-3.9,26.56-3.72
			c6.2,0.12,7.56-0.44,10.9-3.72c-4.82-3.17-7.47-7.86-9.24-13.16c-0.37-1.12-1.06-2.37-0.07-3.28c2.5-2.31,1.02-4.41,0.1-6.77
			c-3.75-9.62-8.93-18.4-14.96-26.75c-2.22-3.08-4.6-6.2-4.81-10.76c-4.33,1.15-5.37-1.34-6.28-4.78
			c-1.19-4.51,0.12-8.54,1.34-12.99c-1.66-1-4.2-1.19-4.69-3.67c-0.49-2.48,0.77-4.52,1.87-6.56c0.96-1.77,2.26-3.31,3.89-4.51
			c1.46-1.08,2.98-2.08,4.45-3.09c-1.07-4.37-3.84-8.92,1.89-12.19c0.38-0.22,0.45-1.19,0.46-1.81c0.04-3.16,0.02-6.31,0.02-9.4
			c-1.27-1.33-3.09-1.37-4.48-2.29c-1.98-1.3-4.21-2.34-2.67-5.42c0.87-1.76-1-2.63-1.64-3.87c-2.25-4.3-2.12-6.34,0.71-8.92
			c-2.89-14.79-4.57-29.51-3.17-44.62c0.86-9.27,1.55-18.52,3.48-27.64c1.14-5.39,2.76-10.63,5.89-15.24
			c2.8-4.13,5.99-4.28,9.31-0.5c1.65,1.88,2.99,4,3.96,6.33c3.07,7.33,8.15,13.28,13.08,19.37c4.32,5.33,10.51,8.06,15.95,12.33
			c7.89-4.46,15.88-3.52,23.99,0.18c0.04-6.12-1.53-11.95,1.61-17.26c2.4,0.58,2.77,2.37,3.54,3.76c1.37,2.48,2.54,5.06,3.97,7.5
			c3.17,5.43,6.01,11.04,13.61,11.68c3.76,0.32,6.86,3.18,10.64,5.27c0.5-2.14,0.9-4.01,1.38-5.86c3.95-15.32,8.23-30.5,17.12-43.89
			c2.4-3.61,4.91-7.14,8.4-9.84c2.89-2.23,4.6-2.1,6.54,0.95c1.7,2.67,2.6,5.68,3.18,8.84c2.08,11.44,2.9,23.06,5.36,34.45
			c3.21,14.85,8.65,28.97,13.33,43.35c2.36,7.27,3.51,14.61-0.17,21.85c-1.26,2.47,0,5.2-1.15,7.79c-1.46,3.29-4.02,5.93-4.22,10.09
			c-0.14,2.85-3.7,4.44-7.65,4.68c3.62,4.15,1.74,7.59-0.7,11.07c5.97,2.72,8.74,7.39,9.42,13.4c0.44,3.89-0.22,4.63-4.68,5.6
			c1.25,6.95-1.36,12.89-5.4,18.38c-1.65,2.24-3.52,3.67-6.25,0.93c-1.84,2.4-3.52,4.69-6.17,5.91c-0.75,0.34-1.48,0.88-1.62,1.78
			c-0.8,5.26-3.92,9.47-6.33,14c-0.47,0.89-1.37,2.09-0.71,2.75c4.1,4.08,0.84,8.1,0.03,12.08c-0.83,4.09-3.44,7.45-5.39,11.33
			c3.26,1.83,6.23,3.64,7.39,7.26c0.58,1.81,2.37,1.64,3.79,1.8c12.16,1.37,23.79,4.74,34.98,9.57c3.19,1.38,6.24,1.83,9.64,1.58
			c5.56-0.41,6.06,0.37,4.67,6.08c2.03,1.23,4.48,2.11,5.74,4.42c1.14,2.09,2.29,4.2-0.41,6.09c-2.42,1.7-0.61,3.68-0.03,5.32
			c2.39,6.74,4.96,13.41,6.92,20.3c1.36,4.8,2.84,9.56,3.74,14.47c1.46,7.91,4.63,15.22,7.56,22.66
			c6.27,15.94,12.73,31.83,15.9,48.79c0.21,1.13,0.3,2.34,1.5,3.46c2.07,0.01,4.61-1.43,6.78,0.59c2.78,2.58-1.66,3.94-0.97,6.15
			c0.49,1.57,2.08,2.04,3.16,3.03c2.78,2.58,4.63,5.6,5.23,9.41c0.72,4.66,0.25,5.56-4.42,7.34c0.03,4.42,1.09,8.93-0.07,13.36
			c-0.54,2.06-0.35,4.64-3.79,4.91c-1.67,0.13-1.79,2.4-2.23,4c-3.69,13.45-6.21,27.24-10.98,40.36c-1.85,5.08-2.25,9.54-0.71,14.77
			c2.03,6.86,2.45,13.99,1.11,21.23c-0.75,4.05-0.51,8.29-1.54,12.34c-0.35,1.38,0.04,2.61,0.73,3.81c1.51,2.59,2.83,5.29,4.48,7.78
			c2.96,4.47,4.44,8.98,3.19,14.55c-1.6,7.12-3.54,9.04-10.78,8.5c-1.17,1.1-1.09,2.7-1.58,4.08c-2.47,7.04-8.98,11.57-16.99,7.75
			c-2.5-1.19-4.68-2.36-7.05,0.43c-1.25,1.48-3.35,1.29-5.19,0.76c-1.74-0.5-3.45-1.11-6.05-1.95c3.64,23.98,4.04,47.69,5.61,71.67
			c2.77-0.24,4.08-1.73,5.75-2.23c1.77-0.52,3.66-1,5.16,0.52c1.56,1.58,0.93,3.39,0.09,5.09c-0.73,1.48-1.52,2.93-2.17,4.15
			c0.25,2,1.85,2.13,2.92,2.77c3.34,2.01,6.23,4.46,8.34,7.76c2.86,4.47,2.54,7.21-1.24,10.94c1.29,3.51,2.7,7.05,3.19,10.89
			c0.41,3.17,1.21,6.24-1.52,8.86c-1.03,0.99-0.27,2.15,0,3.27c0.67,2.74,1.39,5.46,1.34,8.35c-0.25,13.68,1.76,27.23,2.6,40.84
			c1.42,22.92,4.43,45.72,5.65,68.67c0.25,4.77-0.79,9.96,2.39,14.41c0.91,1.28-0.62,2.84-0.56,4.63c1.16,1.67,4.25,2.51,3.2,5.83
			c-0.34,1.08,1.38,1.69,2.19,2.48c7.93,7.71,7.94,20.59-0.22,27.95c-3.45,3.11-7.15,6.04-11.09,8.5
			c-8.23,5.14-12.84,13.31-18.23,20.85c-0.29,0.4-0.51,0.86-0.71,1.32c-2.8,6.42-6.94,11.2-14.29,12.58
			c-6.42,1.2-12.78,2.64-18.91-0.87c-1.53-0.88-2.89-0.39-4.32-0.09c-5.93,1.25-11.86,1.46-17.83,0.19
			c-1.65-0.35-3.56-0.52-4.66-1.6c-4.64-4.58-10.92-6.82-15.55-11.41c-3.96-3.92-5.2-8.32-3.7-13.6c2.78-9.79,8.07-18.22,14.3-26.1
			c2.09-2.64,4.6-3.79,8.31-2.91c4.82,1.15,9.83,1.72,14.79,2.06c4.08,0.28,7.95-0.72,10.66-4.28c2.52-3.31,5.17-6.53,7.62-9.89
			c1.72-2.36,2.3-4.89,1.66-7.99c-3.56-17.14-9.26-33.63-14.9-50.13c-9.79-28.63-20.66-56.9-28.94-86.03
			c-3.36-11.8-6.32-23.72-9.56-35.55C310.05,653.22,308.56,648.88,306.14,644.77z M366.42,480.71c0.35-1.48,0.7-2.41,0.77-3.35
			c0.7-8.95,1.51-17.9,2-26.87c0.81-14.63-0.63-29.28,0.11-43.91c0.24-4.73-0.75-8.96-3.28-12.77c-4.64-7-7.73-14.65-10.38-22.54
			c-0.94-2.78-1.91-5.6-3.81-7.93c-1.19,0.68-1.3,1.72-1.46,2.68c-1.45,8.36-3.42,16.61-5.45,24.84c-0.48,1.97-0.74,3.92-0.49,5.93
			c1.37,10.92,1.71,21.89,1.63,32.87c-0.02,2.56,0.63,4.79,1.82,7.1c6.47,12.59,11.81,25.64,15.32,39.39
			C363.63,477.85,364.44,479.18,366.42,480.71z"/>
	</g>
</g>
<g>
	<path class="st0" d="M331.08,282.49c-1.39-0.08-1.69-1.53-2.84-1.38c-0.47,0.31-0.47,0.55-0.24,1.12
		c2.24,5.39,4.52,10.72,5.88,16.5c0.99,4.19-1.36,7.64-0.56,11.93c-1.42-1.32-1.03-3.23-2.88-3.86c-0.59,8.9,1.07,17.99-2.63,26.66
		c-0.34-0.63-0.62-1.14-1.04-1.93c-1.52,8.75-3,17.27-4.51,25.96c1.07-0.15,1.81-0.25,3.3-0.46c-1.54,5.1-3.18,10.16,2.31,13.88
		c-1.79,1.01-2.17-0.57-3.13-0.4c-0.76,0.57-0.66,1.71-0.36,2.13c2.72,3.68,1.41,7.89,1.94,11.86c0.44,3.25,0.38,5.94-2.07,8.19
		c1.8,4.43,4.59,8.17,5.59,12.82c-0.91,0.95-1.96,0.33-3.39-0.36c1.29,5.07,2.48,9.92,1.65,14.99c-1.71-0.46-1.44-2.26-2.63-3.3
		c1.57,6.24,1.83,12.6,2.73,18.96c-2.78,0.08-1.25-2.23-2.94-3.18c0.19,9.75-0.56,19.17,1.27,28.38c-1.87,0.89-2.04-0.85-3.21-2
		c0.4,7.89-2.92,14.04-5.29,20.39c-0.98,2.62-0.84,3.63,1.85,3.85c-0.55,3.19-3.33,4.57-5.3,7.15c0.92,1.48,2.67,3.16,1.27,5.37
		c-0.76,0.22-1.47-0.06-2.44-0.43c3.12,5.21-1.51,9.13-1.69,13.7c-0.42,10.64-2.86,21.22-0.02,31.92
		c1.36,5.12,1.72,10.49,2.57,15.96c-3.02-0.27-1.2-3.61-3.69-3.88c-1.42,5.86,1.81,12.75-3.03,18.65c-0.17-1.53-0.3-2.64-0.42-3.76
		c-0.2-0.02-0.4-0.05-0.61-0.07c-0.74,4.63-1.24,9.31-2.29,13.86c-1.13,4.93-1.64,9.96-2.68,14.9c-1.02,4.82-3.2,8.96-5.15,13.36
		c-4.68-11-7.62-22.29-11.02-33.43c-2.66-8.7-5.38-17.43-7.27-26.32c-1.97-9.32-1.82-18.54,4.21-26.9
		c3.58-4.97,7.02-9.91,12.31-13.25c0.59-0.37,0.97-1.06,1.92-2.15c-19.86,9.09-23.67,27.28-22.36,42.81
		c-6.47,0.83-11.7-1.87-16.3-5.79c-5.06-4.31-7.66-10.56-11.45-15.88c-4.26-5.99-8.11-12.19-14.61-16.11
		c-0.71-0.43-1.25-1.11-2.18-0.93c-0.32,0.06-0.63,0.19-0.94,0.28c0.93,2.56,3.43,3.4,5.33,4.87c4.61,3.55,6.71,8.84,9.6,13.58
		c3.58,5.87,7.74,11.32,11.85,16.8c2.81,3.75,7.54,4.31,11.91,6.04c-1.94,3.96-3.86,7.9-5.8,11.86c1.91,1.46,2.89-0.47,4.18-1.22
		c0.79,0.82,0.26,1.51-0.26,2.15c-2.46,2.95-4.49,5.95-1,9.88c-1.42-0.29-1.54-1.79-3.3-1.7c2.71,13.28,2.05,26.67,1.44,40.32
		c-11.09-11.06-16.07-25.99-24.67-38.6c-1.49,1.06-0.12,2.24-0.24,3.33c-4.47-2.27-6.82-10.71-7.73-20.89
		c-1.49,0.8-0.03,2.61-1.28,3.54c-0.51-1.68-1.7-3.12-1.44-5.02c1.27-9.32-2.77-17.63-4.83-26.35c-1.91-8.12-5.38-15.68-7.79-23.73
		c-0.47-0.16-1.09,0.03-1.67,0.4c-2.88-3.35-0.65-6.76,0.16-10.05c-1.71-0.97-2.91,1.4-4.36,0.14c-0.37-3.63-0.37-3.63,3.19-6.09
		c-1.43-2.58-4.66-3.82-5.2-7.12c0.82-1.09,2.59,0.21,3.37-1.17c-1.36-4.65-2.1-9.78-4.24-13.87c-1.89-3.63-1.22-8-3-10.4
		c-3.01-4.08,0.48-7.61-1.04-11.44c-1.43-3.62-1.75-7.94-1.65-12.13c0.21-8.99,0.3-18,0.01-26.99c-0.38-11.54-1.79-23.02-2.17-34.59
		c-0.22-6.56-2.31-13.15-4.2-19.54c-2.32-7.86-1.86-15.54-0.08-23.34c0.93-4.09,1.68-8.22,2.22-12.46
		c-3.08,3.21-3.25,8.26-7.02,11.1c-1.08-5.34,1.22-9.46,8.48-19.07c-3.39,0.34-5.59,2.79-8.47,3.33c0.19-4.83,3.72-7.81,12.08-9.51
		c-4.65-3.32-8.39-6.79-6.48-12.67c2.48-0.13,2.19,2.84,4.36,4.01c0.45-2.51,0.54-4.66-0.29-7.01c-0.8-2.27-2.03-4.57-1.14-7.14
		c2.34-0.08,3.49,2.17,5.55,3.17c0.42-5.67,0.66-11.04,3.76-15.56c2.2-0.09,0.69,2.62,2.94,2.67c1-2.57,0.12-5.86,1.88-8.21
		c2.22-0.35,2.15,4.61,5.2,1.97c-0.47-2.15-2.96-2.24-4.51-4.48c3.77,0,7.04,0,10.53,0c-0.65-2.53-2.94-2.16-3.87-3.7
		c3.22-1.6,6.23,1.43,9.59,0.29c-0.69-1.04-3.09-0.76-2.26-2.84c0.68-1.7,1.88-0.85,3.05-1.04c3.65-0.58,7.33-1.39,10.75-3.27
		c-0.12-2.35-2.09-3.94-2.39-6.15c1.4-1.18,2.24,1.84,3.83-0.08c0.83-4.83-5.9-7.45-5.18-13.08c1.96,0.86,3.68,1.61,5.85,2.56
		c-0.99-4.52-4.61-6.87-6.85-10.08c-1.34-1.91-1.53-3.18,0.64-4.76c2.23,1.34,4.5,2.87,6.92,4.13c1.77,0.92,3.53,2.42,5.79,1.12
		c0.27-0.15,0.75-0.3,0.94-0.17c4.83,3.36,7.67-0.76,10.95-2.95c6.9-4.61,14.92-6.38,22.59-9.04c9.32-3.23,19.28-4.12,28.88-8.35
		c-2.04,5.97-6.23,9.83-8.64,14.94c2.81,0.6,5.2-3.6,8.45-0.42c-1.65,5.12-6.63,7.46-10.53,11.26c3.08,1.08,5.93-0.04,8.54,0.83
		c-0.42,4.01-1.7,5.24-7.45,7.11c3.47,3.87,9.35,4.88,11.95,10.03c-2.11,0.91-3.91-1.58-5.72-0.04c2.9,4.67,9.77,3.64,12.41,8.2
		c0.07,1.65-2.06,1.05-1.42,3.06c1.53,0.97,4.36-0.55,6.04,2.04c0.04,1.32-2.44,1.66-2.34,3.74c1.91,0.74,4.41,1.09,4.74,3.91
		c-1.29,1.23-2.97,0.14-4.49,1.03C326.27,273.59,332.25,276,331.08,282.49z M253.77,476.57c-0.98-5.23,3.88-8.97,3.02-14.59
		c-0.73-4.79,0.95-9.98,0.3-15.33c-1.04,0.96-0.51,1.9-0.8,2.62c-1.59,4.04,0.15,8.86-3.24,12.55c-2.63,2.86-2.44,3.04,1.12,4.96
		c-1.1,3.88-2.67,7.63-2.89,11.75c-0.13,2.36,1.11,2.48,2.77,2c0.65,2.31-0.22,4.53,0.91,7.33c0.91-5.84,1.71-10.98,2.56-16.38
		C254.73,472.52,256.2,475.86,253.77,476.57z M264.81,272.78c0.03-1.72-1.55-1.54-2.42-2.22c-0.89-0.7-2.27-0.7-2.74-1.97
		c2.31-2.68,1.78-3.35-5.12-6.24c-1.08,4.76,3.57,6.25,5.38,9.27c-2.4,1.53-5.34,2-5.7,5.66c-0.26,2.63,1.76,2.63,3.23,3.48
		c-1.13,2.14-2.15,4.14,0.87,6.29c-1.12-4.8,3.38-8.18,2.02-13.09C261.26,272.96,263.16,273.02,264.81,272.78z M291.61,260.27
		c-6.05,0.13-11.82,1.87-17.7,2.94c-2.87,0.53-4.52,2.49-5.35,5.27C274.99,262.1,284.44,264.46,291.61,260.27z M234.8,259.57
		c5.19,3.14,11.67,3.45,16.27,7.71C247.32,261.31,241.05,260.39,234.8,259.57z"/>
	<path class="st0" d="M189.09,606.14c1.44,6.69,2.99,13.11,4.18,19.6c2.21,12,5.66,23.68,8.77,35.45
		c1.88,7.12,2.84,14.37,4.28,21.55c1.31,6.54,2.87,13.04,4.14,19.59c1.71,8.84,3.28,17.71,4.84,26.58c0.51,2.89,0.95,5.77,1.82,8.58
		c0.44,1.42,0.54,3.02-0.99,4.05c-5.32,3.57-9.78,8.19-14.85,12.1c-9.71,7.47-17.92,16.45-24.81,26.62
		c-4.62,6.81-8.52,14.04-9.75,22.17c-0.98,6.46-1.03,13.13,0.51,19.89c-2.71-1.76-1.58-5.73-4.8-7.14c0.41,6.65,2.9,12.41,5.92,17.8
		c-1.36,2.6-3.71,2.48-5.33,1.68c-3.49-1.72-7.36-2.84-10.24-5.72c-1.88-1.88-1.96-1.8-4.66-1.57c2.38,2.66,4.9,5.48,7.41,8.3
		c-0.95,0.77-1.79-0.13-2.79-0.58c-7.83-3.53-15.48-7.27-21.02-14.23c-5.83-7.33-10.17-15.36-13.54-24.14
		c-3.09-8.04-4.43-16.36-5.6-24.69c-0.87-6.21-0.26-12.63-0.23-18.96c0.06-12.35,2.01-24.43,4.61-36.5
		c3.78-17.54,10.37-33.96,18.95-49.6c5.34-9.75,11.64-18.92,19-27.44c-0.63-1.23-2.17,0.01-2.94-0.99c3.08-2.94,7.7-3.05,11.41-6.06
		c-2.41-0.71-4.23-1.68-6.42-2.01c6.46-1.44,10.65-5.98,15.47-9.84C178.08,616.09,182.39,610.02,189.09,606.14z"/>
	<path class="st0" d="M297.72,631.41c-3.22,10.34-0.37,21.74-6.27,31.64c0-5.75,0-11.5,0-17.26c-2.92,7.89-3.18,16.32-6.88,24.19
		c-3.6-2.49-7.1-5.64-12.15-5.2c0.13-2.6,1.89-4.34,2.07-6.73c0.17-2.23,0.36-4.29-1.45-5.65c-1.83-1.38-3.31,0.56-4.89,1.22
		c-0.43,0.18-0.8,0.5-1.85,1.17c0-1.84,0.01-3.23,0-4.62c-0.04-5.61-0.64-11.22-0.82-16.79c-0.51-16.16-0.19-32.35-0.17-48.52
		c0-1.74-0.38-3.44,1.92-4.54c1.67-0.8,1.35-2.8,0.53-4.43c-0.73-1.45-1.43-2.92-2.21-4.52c1.92-1.94,3.45-4.16,4.12-7.02
		c0.32-1.34,0.91-2.44-0.05-3.66c-1.65-2.12-0.69-4.22,0.03-6.35c1.24-0.65,2.6-0.28,3.91-0.38c2.39-0.17,3.2,0.86,3.87,3.31
		c5.2,19.13,10.05,38.37,16.89,57.02c1.74,4.73,3.54,9.47,5.77,13.98c3.66,7.38,2.22,14.53-0.38,21.77
		C299.74,643.78,297.8,637.75,297.72,631.41z"/>
	<path class="st0" d="M330.98,14.56c1.24,3.52-0.43,6.51-0.82,9.55c-1.53,11.87-3.73,23.66-4.09,35.65
		c-0.22,7.17,1.14,14.15,3.39,21.16c-6.48,4.23-1.7,9.02-0.59,14.1c-2.6-0.61-3.72-3.41-6.28-3.57c-0.43-0.03-1.28-1.53-1.09-2.04
		c1.93-5.08-2.8-8.61-2.98-13.23c0.19,3.9-0.52,7.68-0.46,12.2c-2.93-2.32-3.73-5.12-3.67-7.8c0.27-11.65,0.33-23.38,4.02-34.6
		c2.89-8.78,4.87-17.88,8.96-26.25C328.29,17.86,329.41,16.12,330.98,14.56z"/>
	<path class="st0" d="M216.56,82.76c-4.72-2.19-5.45-7.21-8.2-10.94c2.45,5.39,0.22,12.25,5.84,16.65
		c-1.66,0.85-3.52,1.69-2.72,3.67c1.15,2.86,4.24,2.62,6.8,3.31c-0.75,3.2-2.75,5.61-4.39,8.2c-12.52-13.63-12.2-64.2-4.09-81.95
		c1.98,4.37,1.57,8.89,1.52,13.34c-0.13,10.38-0.51,20.78,4.19,30.49c0.07,0.15,0.25,0.36,0.2,0.44c-3.24,5.8,2.88,11.2,0.71,16.94
		L216.56,82.76z"/>
	<path class="st0" d="M216.41,82.9c2.34,2.22,5.01,3.59,8.63,3.57c-3.47,1.5-3.89,6.78-8.74,6.61c-0.12-1.68,1.6-0.62,1.82-1.81
		c-1.43-2.72-4.4-4.57-5.47-7.77c1.73-1.13,2.06,1.28,3.38,1.1c0.17-0.6,0.35-1.22,0.53-1.84L216.41,82.9z"/>
</g>
</svg>
