<?xml version="1.0" encoding="utf-8"?>
<!-- Generator: Adobe Illustrator 24.0.2, SVG Export Plug-In . SVG Version: 6.00 Build 0)  -->
<svg version="1.1" id="Layer_1" xmlns="http://www.w3.org/2000/svg" xmlns:xlink="http://www.w3.org/1999/xlink" x="0px" y="0px"
	 width="408.66" height="826.31" viewBox="0 0 408.66 826.31" style="enable-background:new 0 0 408.66 826.31;" xml:space="preserve">
<style type="text/css">
	.st0{fill:#1A1A1A;}
</style>
<g>
	<path d="M395.67,20.5c0.89-2.65,1.39-5.35,5.15-5.48c0.51,1.44,1.19,2.63,0.92,4.4c-0.7,4.55,2.09,8.07,4.42,11.43
		c1.38,1.98,2.82,3.22,1.54,5.86c-0.59,1.22-0.43,2.99-0.16,4.42c1.85,9.57,1.53,19.06-1.9,28.15c-2.31,6.13-1.39,12.06-0.54,18.1
		c0.95,6.7,0.26,13.35-3.07,19.07c-2.9,4.98-8.4,7.03-14.39,7.87c-1.01,4.15,1.94,7.24,3.32,10.44c3.64,8.43,5.79,17.27,8.22,26.03
		c0.56,2.02,0.38,4.32,0.19,6.46c-0.62,7.03-1.07,14.11-2.2,21.06c-1.21,7.42-4.98,12.94-12.58,15.79
		c-10.65,4-20.89,9.01-32.25,11.1c-7.48,1.38-14.72,2.17-22.42,1.07c-8.09-1.16-16.18-1.85-24.15-3.99
		c-9.23-2.48-17.95-5.88-25.94-11.13c-0.77-0.5-1.74-0.7-2.43-0.97c-0.72,9.2,1.37,18.08,2.22,27.05
		c1.81,19.2,1.78,38.39,1.79,57.61c0,4.61-0.98,9.11-1.7,13.64c-0.16,0.97-0.36,1.99-0.25,2.95c0.79,6.85,0.44,13.81,1.87,20.61
		c0.24,1.12,0.19,2.33,0.09,3.49c-0.58,6.49,1.7,12.82,1.01,19.3c-0.19,1.78,1.14,2.59,2.04,3.76c3.59,4.65,5.3,9.71,3.07,15.56
		c0.38,1.14,1.42,1.77,2.17,2.64c3.22,3.73,4.82,7.85,2.02,12.43c-2.47,4.02-1.99,7.7-0.43,11.97c6.29,17.15,9.65,35.13,14.01,52.81
		c1.82,7.39,5.57,14.64,4.05,22.54c-2.39,12.41,2.45,23.86,4.18,35.72c0.87,5.97,2.09,11.89,2.82,17.88
		c0.44,3.61,1.13,7.03,2.83,10.29c2.83,5.45,4.11,11.28,4.3,17.45c0.15,5.12-1.23,9.8-3.62,14.09
		c-6.36,11.42-8.63,24.16-12.27,36.47c-0.45,1.51,0.4,2.41,1.22,3.52c4.84,6.55,7.78,14.27,9.13,21.92
		c1.29,7.33,3.15,14.86,2.48,22.51c-0.13,1.5,0.64,3.3-1.99,3.78c-1.72,0.32-1.01,2.27-0.95,3.44c0.32,6.7-2.26,12.77-3.57,19.12
		c-2.23,10.8-7.47,21.07-6.5,32.51c0.18,2.09-0.29,4.24,1.05,6.04c-1.96,1.34-2.39-0.9-3.86-0.94c0.52,3.44,3.45,6.29,2.57,10.55
		c-5-8.22-12.75-9.74-21.04-9.91c-6.72-0.14-13.5,0.51-19.78-1.96c-2.07,1.39-1.18,4.33-3.61,5.37
		c6.16,12.77,12.66,25.34,19.67,37.66c8.23,14.47,16.61,28.83,25.74,42.77c2.81,4.29,6.5,5.51,10.38,7.01
		c7.44,2.87,12.48,8.44,16.91,14.58c2.73,3.79,2.6,6.35,1.22,11.83c-1.69,0.6-2.93-0.73-4.53-1.56c-3.37,4.66-8.21,5.22-13.31,5.08
		c-8.19-0.23-16.53,1.71-24.49-1.77c-0.59-0.26-1.43-0.19-1.84-0.59c-5.21-5.08-12.37-4.5-18.66-6.37
		c-2.86-0.85-5.72-1.34-7.63-3.79c-1,0.34-1.04,2.62-2.57,1.26c-4.28-3.8-9.5-6.77-11.3-12.81c-0.36-1.21-1.13-2.42-2.03-3.32
		c-5.48-5.5-6.92-11.94-4.97-19.35c0.33-1.24-0.05-2.59-0.21-3.91c-1.45-11.39-8.14-20.46-13.26-30.21
		c-3.03-5.78-6.25-11.46-9.45-17.15c-3.19-5.7-6.3-11.45-9.75-16.99c-1.97-3.15-3.33-6.35-3.24-10.06
		c-9.23,1.51-17.61,0.32-25.18-7.26c1.71,6.23,4.12,10.98,6.72,16.99c-7.09-2.61-13.38-4.56-18.92-8.16
		c-1.28,1.36,1.22,2.16-0.37,3.7c-6.5-4.3-10.45-10.66-13.5-17.73c-0.55,0.35-1.02,0.5-1.03,0.68c-0.3,5.53-3.19,10.58-2.72,16.3
		c1.2,14.6-2.05,29-2.22,43.58c-0.1,8.55,0.6,16.94,1.11,25.4c0.4,6.58,1.24,13.07,2.1,19.58c0.18,1.39,0.59,2.72,1.34,3.63
		c3.39,4.12,4.27,8.92,3.65,13.92c-0.86,7-4.22,12.86-9.59,17.42c-1.49,1.26-3.57,1.68-5.77,0.89c0.4-1.58-0.1-4-1.86-2.35
		c-4.89,4.6-10.12,2.97-15.15,1.54c-5.32-1.52-10.56-1.32-15.92-1.19c-2.01,0.05-4.04-0.65-5.72-2.2c-3.3-3.05-6.05-6.43-7.41-11.18
		c-1.35,3.55,0.47,5.86,2.33,8.38c-4.86-1.97-6.92-5.38-7.94-9.64c-2.49-10.4,1.5-20.09,2.67-30.07c0.9-7.62,2.28-15.19,3.43-22.78
		c0.96-6.3,2.36-12.57,2.74-18.91c0.48-7.89,2.99-15.64,2.15-23.56c-0.67-6.35-1.4-12.74-2.36-19.01c-0.85-5.57,0.7-9.94,2.87-14.48
		c0.83-1.74,2.23-3.21,3.32-4.73c-0.77-1.56-1.59-2.99-2.2-4.5c-0.75-1.89-1.05-3.75,0.5-5.55c2.32-2.69,2.56-6.31,3.81-9.48
		c0.54-1.38,0.74-3.43-1.01-4.54c-7.77-4.92-10.82-12.75-13.16-21.17c-2.31,0.55-3.66-0.22-4.8-2.5
		c-3.24-6.43-3.96-13.38-4.85-20.32c-0.25-1.93,0.5-4.06-1.45-5.62c-1.43,1.52-1.01,4.09-2.61,5.67c-3.17-3.01-1.61-6.98-2.31-10.43
		c-1.06-5.27-2.73-10.37-3.85-15.64c-1.6-7.51-0.66-14.76,0.59-22.04c0.65-3.82,0.93-7.75,2.48-11.42c0.33-0.79,0.99-2.58-1.52-2.4
		c-1.16,0.08-0.77-1.33-0.48-2.34c0.83-2.8,1.11-5.82,2.29-8.45c2.41-5.41,3.94-11.02,4.81-16.83c0.4-2.64,2.31-4.62,3.04-7.19
		c-3.58,0.09-3.34,4.52-6.5,5.34c-1.19-3.24,0.44-5.82,1.33-8.47c1.46-4.31,4.43-7.93,4.94-12.77c0.44-4.09,4.52-6.3,7.15-9.42
		c-2.6-0.81-4.13,2.61-6.52,1.26c0.48-7.1,4.02-12.16,10.04-15.7c1.7-1,3.13-2.44,4.46-4.15c-2.3-0.85-4.37-1.03-6.18-2.78
		c4.87-4.34,9.94-8.07,15.52-11.03c2.77-1.47,3.83-3.7,5.31-6.37c2.04-3.66,3.58-7.67,5.84-11.07c5.58-8.39,7.39-18.04,10.59-27.23
		c8.31-23.82,14.27-48.34,21.59-72.46c1.36-4.47,0.33-8.5-3.02-11.74c-6.06-5.87-6.48-15-2.18-21.88c1.96-3.14,2.24-6.31,1.91-10.05
		c-0.38-4.26-1.31-8.45-1.39-12.76c-0.11-5.93-1.02-11.82-1.07-17.8c-0.04-4.33-3.11-7.92-5.38-11.35
		c-5.49-8.28-11.37-16.31-16.52-25.06c-3.44,1.43-6.65,2.85-10.01,3.94c-11.1,3.61-21.79,2.9-31.7-3.19
		c-8.22-5.05-14.6-12.07-19.5-20.52c-6.74-11.62-9.8-24.01-9.85-37.44c-0.04-10.46,0.44-20.67,5.45-30.69
		c-8.63,0.33-14.19-4.44-19.31-9.84c-3.04-3.2-4.86-7.3-6.93-11.13c-1.73-3.2-3.51-6.24-6.09-8.83c-6.4-6.43-13.18-12.5-17.67-20.6
		C7.33,78.87,2.98,70.79,3.55,61.2c0.12-2.04-1.69-3.66-0.68-6.03c4.88-0.29,4.97,5.94,9.23,6.71c0.4-2.49-1.31-4.22-2.4-6
		c-2.21-3.61-4.93-6.91-6.73-10.78c-2.42-5.2-3.41-6.26,0.46-11.99c-0.48-2.03-3.35-2.76-3.12-5.33c0.06-0.67-0.78-1.34,0.07-2.12
		c1.04-0.96,1.89-0.41,2.59,0.27c1.73,1.68,3.77,3.24,4.92,5.28c0.98,1.73,2.24,2.77,3.82,3.58c4.81,2.49,6.45,7.66,9.8,11.37
		c1.9,2.11,2.87,5.04,6.39,7.14c-3.38-7.13-5.54-13.69-9.12-19.72C15,27.2,14.87,19.54,12.62,12.59c-0.67-2.07,0.47-4.65,2.16-6.23
		c1.97-1.83,2.07-3.59,0.52-5.65c5.81-1.14,5.5-0.94,8.5,3.89c5.43,8.74,9.46,18.13,13.72,27.44c1.82,3.98,4.34,7.59,7.57,10.7
		c-0.89-4.47-3.99-8.09-4.69-12.6c-0.1-0.62-0.82-1.24-0.73-1.78c0.79-4.71-1.94-8.46-3.29-12.58c-1.58-4.84-0.27-9.17,3.71-12.35
		c-0.49-1.01-1.05-2-0.94-3.37c1.52,0,3.02,0.09,4.51-0.02c2.13-0.17,3.66,0.6,4.06,2.71c1.15,6.07,5.54,10.61,7.38,16.4
		c5.27,16.5,14.76,30.77,24.31,45c1.97,2.93,5.28,3.78,7.64,6.01c0.6,0.57,1.22,1.13,1.87,1.73c5.08-4.4,9.47-9.49,14.73-13.66
		c2.03-1.61,4.41-2.63,6.63-2.9c3.31-0.39,6.43-0.71,9.18-2.78c1.04-0.78,2.17-0.72,3.16,0.22c1,0.95,1.2,2.21,0.36,3.14
		c-2.92,3.25-3.11,7.44-4.15,11.32c-1.14,4.27-3.59,7.69-6.75,10.63c-3.22,2.98-5.43,6.2-5.87,10.9c-0.31,3.32-1.63,6.55-1.94,10.05
		c-0.31,3.54,0.83,5.73,3.27,7.95c1.72,1.56,3.7,2.64,5.44,3.98c1.38-0.73,3.01-1.12,3.69-2.52c1.61-3.31,4.6-4.5,7.82-5.12
		c1.73-0.33,2.42-1.17,3.19-2.6c5.61-10.45,13.74-17.3,26.92-17.65c-4.13-3.12-7.68-6.04-7.3-11.2c-1.44-0.39-1.73,1.68-3.73,0.81
		c0.12-5.43-0.9-11.2,0.8-17.02c0.47-1.6,2.83-3.16,0.33-5.38c-0.59-0.53,1.31-3.01,2.55-4.39c4.44-4.96,10.01-8.51,15.11-12.66
		c2.32-1.89,5.86-3,5.26-7.22c-0.13-0.88,1.25-1.29,2.05-1.86c2.22-1.59,5.01-2.58,7.3-2.47c5.52,0.28,9.79-2.65,14.36-4.6
		c4.69-2,9.61-3.07,14.37-4.71c3.88-1.34,7.55-3.06,11.22-4.81c1.66,1.79-0.81,2.85-0.87,4.65c4.35,0,8.62,0,12.64,0
		c0.94,1.07,0.45,1.77,0.09,2.55c4.48,1.61,8.93,3.52,12.7,6.26c3.77,2.74,6.82,6.54,9.85,10.16c1.17,1.4,2.13,3.27,3.71,3.85
		c4.5,1.63,6.67,5.14,8.36,9.15c1.5,3.57,3.75,6.5,6.55,9.15c3.74,3.55,4.51,8.2,2.46,13.02c-0.45,1.06-0.87,2.06-1.02,3.26
		c-0.78,6.06-6.42,9.5-8.38,15.04c-0.32,0.92-3.57,0.8-5.72,1.2c1.71,3.5,5.58,5.06,6.8,8.57c1.52,4.35,4.98,6.62,8.71,8.71
		c3.52,1.98,6.27,4.91,8.79,7.95c1.39,1.67,3.02,2.83,4.61,4.09c4.62-1.19,8.93-4.5,13.57-3.71c6.21,1.07,10.45-0.58,14.47-5.25
		c2.32-2.69,6.48-2.8,9.85-3.95c6.79-2.31,13.46-4.79,19.4-8.98c2.76-1.95,4.54-3.64,3.08-7.59c-1.96-5.29-2.84-10.9-5.82-15.93
		c-3.54-5.97-3.81-13.04-5.28-19.69c-0.33-1.52-0.02-3.12,1.73-3.69c1.49-0.48,2.62,0.31,3.17,1.7c0.46,1.19,1.15,2.21,2.43,2.09
		c7.1-0.67,9.53,4.69,12.38,9.49c0.71,1.2,0.89,2.76,2.52,3.63c1.65-3.85,2.91-7.55,2.78-11.76c-0.21-6.83,0.17-13.67-0.12-20.49
		c-0.35-8.15,1.67-16.04,2.07-24.09c0.07-1.32,0.67-2.51,1.9-2.55c2.01-0.06,4.18-0.98,6.05,0.77c4.73,4.44,7.7,9.56,7.06,16.33
		c-0.55,5.83,2.54,11.21,2.32,17.09c2.02-3.11,2.82-6.65,2.57-10.15c-0.51-7.35,1.27-14.4,2.1-21.58c0.21-1.84,1.21-2.59,2.98-2.62
		c1.72-0.03,3.77-0.08,3.88,2.1C391.55,11.33,395.83,15.16,395.67,20.5z M227.77,555.52c5.92,0.88,5.91,0.87,8.84-3.97
		c0.67-1.11,1.43-2.23,2.21-3.21c3.42-4.32,7.8-8.08,6.78-14.5c-0.11-0.67,0.54-1.52,0.98-2.2c0.68-1.05,0.4-1.93,0.22-3.12
		c-0.97-6.33-5.82-10.19-8.98-15.22c1.77,10.92-3.41,20.25-6.16,30.52c-1.61-1.65-0.99-4.23-3.24-5.35
		c0.1,5.77,3.66,10.69,3.61,17.11c-2.35-2.28-2.15-4.88-3.15-7.16C227.89,550.91,229.14,553.41,227.77,555.52z"/>
	<path class="st0" d="M223.37,659.29c-0.61-2.85,2.59-4.97,1.2-8.12c1.36,0.4,1.64,1.43,2.94,2.72c-0.84-3.28,1.51-5.5,0.73-8.22
		c-1.19,0-0.35,1.77-1.57,1.5c-1.06-3.93,0.3-7.07,3.58-9.6c2.37,0.54,0.28,3.45,1.85,4.68c0.68-4.89,2.37-9.69,0.34-14.58
		c2.43-7.46-1.75-13.95-3.23-20.81c-0.37-1.7-0.49-3.49-0.99-5.16c-1.25-0.1-0.35,1.67-2.06,1.55c1.5-3.79,2.08-7.9,1.07-11.53
		c-1.56-5.63,0.08-10.67,1.17-15.9c0.65-3.09,0.98-6.35,2.26-9.17c1.33-2.94,0.88-4.64-2.04-5.67c1.21-2.11,2.44,1.02,3.71-0.8
		c-0.64-1.85-2.81-1.89-4.75-2.81c2.36-0.58,4.16-0.37,6.28-0.27c0.08,1.16-0.98,2.44,0.05,3.57c0.37-0.27,0.96-0.47,1.09-0.84
		c2.2-6.25,4.77-12.27,10.98-15.61c2.37-1.28,1.57-3.16,1.16-4.69c-0.68-2.56-1.57-4.76,0.86-7.07c1.39-1.33-0.13-3.32-0.68-5.3
		c1.2,0.65,1.98,1.06,2.75,1.48c-4.79-5.89-8.22-12.6-12.88-18.32c-0.98,0.27-0.61,1.73-2.34,1.33c-3.77-8.89-5.79-18.92-11.2-27.71
		c-1.83,5.49-3.49,11.28-5.73,16.84c-1.06,2.63-0.87,6.13-4.14,7.62c2.17,2.97-4.21,4.11-1.55,7.32c0.54,0.66-0.43,0.64-1.07,0.79
		c-1.17,0.28-1.86,1.79-1.55,2.56c1.99,4.97-1.99,8.24-3.35,12.21c-0.5,1.46-2.04,2.46-1.94,4.38c0.08,1.55-1.49,1.74-2.58,2.47
		c-2.36,1.58-4.49,3.68-3.35,7.08c1.97,5.87-0.47,11.65-0.49,17.49c0,1.28,0.05,3.15-0.85,4.57c0.34,0.5-1.01,0.19-0.53-0.24
		c0.14-0.12-0.25-0.82-0.38-1.18c-0.54-0.21-0.67-0.05-0.68,0.44c-0.1,4.84-2.33,9.68-0.06,14.53c-2.02,1.41-0.75,4.19-2.63,5.96
		c-0.92,0.86-1.13,4.23-0.69,4.98c1.53,2.57-2.24,1.18-1.57,2.62c0.41,0.87,2.27,2.03-0.72,2.1c-0.97,0.02,0.57,1.54,0.55,2.48
		c-0.02,1.42-2.11-0.44-1.81,1.13c0.51,2.74-1.24,4.52-2.29,6.71c-0.92,1.93-1.37,4.19-2.01,6.29c-2.26,7.46-5.03,14.73-7.94,21.93
		c-3.42,8.45-6.46,17-9.38,25.63c-1.49,4.39-3.23,8.88-5.88,12.84c-1.83-0.83-2.66,0.01-2.04,2.46c0.21,0.82,0.46,1.54,0.25,2.36
		c-0.85,0.35-0.77-0.85-1.5-0.82c-0.32,4.59-2.66,8.82-2.47,13.55c0.04,0.99-1.07,2.1-1.99,1.73c-5.36-2.13-10.86-0.2-16.26-0.79
		c-4.96-0.55-9.62-2.05-13.72-4.77c-5.7-3.79-10.67-8.54-15.27-13.58c-1.08-1.18-1.18-3.23-0.62-5.65c0.89-3.9,4.02-7.12,3.42-11.38
		c-0.05-0.36,0.31-0.91,0.64-1.16c2.5-1.87,2.18-4.04,1.09-6.59c-0.48-1.13-0.08-2.63-0.08-3.28c-6.11-2.28-5.31-8.27-8.9-12.49
		c3.27,0.73,2.72,3.39,4.79,4.18c-0.66-4.74,2.51-9.21,0.16-13.98c-0.43-0.88-0.86-2.84,1.6-2.93c0.65-0.02-0.37-1.19-1.38-4.34
		c-1.02-3.16-2.73-6.55-2.16-9.93c1.25-7.4,1.36-14.71-0.13-22.06c-0.09-0.43,0.11-0.91,0.18-1.35c1.22-0.13,0.32,1.7,1.45,1.54
		c1.5-11.34,5.92-21.61,11.2-31.57c2.49-4.7,4.71-9.43,6.36-14.56c2.58-8.01,5.86-15.86,10.93-22.75c1.45-1.96,2.33-4.11,1.79-6.45
		c-1.07-4.71-2.08-9.39-0.89-14.4c0.31-0.16-1.19-0.32-0.83,0.23c0.07,0.1-0.49,0.72-1.28,0.56c2.75-7.16-1.29-14.19,0.17-21.38
		c-0.35,0-0.7-0.01-1.05-0.01c0,3.05,0,6.09,0,9.14c-0.26,0-0.52,0-0.78,0c0-6.36,0-12.73,0-19.28c2.3-0.12,3.59,1.34,4.72,3.21
		c5.51,9.13,12.65,17.05,19.02,25.55c2.87,3.84,6.3,7.16,9.62,10.59c1.55,1.6,2.29,3.61,4.93,4.04c2.21,0.36-0.18,2.62,1.25,3.96
		c3.46-5.5,6.81-10.86,10.2-16.2c6.99-11.02,13.54-22.3,21.25-32.88c4.24-5.82,6.32-12.85,7.67-19.95c0.46-2.4-0.11-4.84-0.22-7.41
		c2.09,5.28,4.12,10.58,6.28,15.83c5.29,12.84,10.98,25.52,17.71,37.67c3.21,5.79,5.92,11.76,8.81,17.68
		c2.09,4.28,4.13,8.62,6.38,12.83c1.35,2.53,4.33,2.95,6.12,5.08c0.96,1.13,3.6,0.3,5.21-1.45c12.29-13.36,24.68-26.58,35.07-41.6
		c3.32-4.8,6.63-9.48,9.3-15.3c3.88,18.81,7.69,37.17,9.76,55.78c0.73-0.46,1.38-1.16,2.54,0.27c1.26,1.54-1.31,4.03,1.53,4.84
		c0.88,6.69,1.7,13.54-0.73,19.92c-2.02,5.31-4.29,10.55-6.36,15.87c-1.26,3.23-1.66,6.68-2.7,9.82c-1.34,4.06-3.31,8.02-4.19,12.22
		c-3.2,15.31-10.17,29.12-16.06,43.44c-7.07,17.19-17.07,33.12-21.81,51.27c-1.28,4.9-3.04,9.73-2.68,14.97
		c0.09,1.31,0.78,2.97-1.19,4.32c-0.27-1.9,0.8-3.61-0.45-5.99c0.06,3.26-2.41,5.31-0.78,8.2c0.25,0.45-0.28,1.73-2.26,1.93
		c-15.25,1.54-27.48-5.33-39.41-13.31c-0.93-0.62-1.06-1.61-1.57-2.41c-2.38-3.73-4.3-3.64-6.7,0.28c-0.43,0.71-0.35,2.06-1.71,2.06
		c-1.04-3.02,4.42-5.34,0.87-8.62c-2.11,0.7-1.94,3.16-3.22,4.39c-0.39-0.24-0.64-0.4-0.64-0.41c2.02-3.3-0.29-6.81,0.38-9.91
		c0.56-2.55,1.22-5.98,3.65-7.49c2.42-1.5,3.67-3.65,5.03-5.8C219.62,659.04,220.87,657.99,223.37,659.29z"/>
	<path class="st0" d="M257.53,352.93c-6.87,0.61-13.75,1.38-20.6,1.84c-8.33,0.56-16.74-0.61-25.02-2.05
		c-4.65-0.81-9.24-1.94-14.11-2.99c-0.71-5.74-2.65-11.32-2.42-17.34c0.41-10.37,0.71-20.75,3.15-30.89
		c0.6-2.51,0.58-5.94,4.95-5.75c-1.59-5.43-3.89-10.21-5.97-14.9c0.6-1.24,1.98-0.48,2.54-1.33c-0.5-1.6-2.08-1.64-3.15-2.31
		c-3.22-2.04-3.5-2.75-1.81-6.55c0.61-1.38-1.93-2.16-0.65-3.64c-5.68-1.91-6.32-6.94-7.34-11.77c-0.12-0.59-0.79-1.06-0.11-2.13
		c1.92,0.99,4.07,1.62,6.71,0.97c-4.61-6.05-13.05-10.16-10.66-19.57c2.24-0.87,3.4,1.35,5.45-0.27c-6.3-3.92-10.79-8.97-9.6-17.28
		c2.16,0.8,4.45,3.43,6.5-0.11c-1.43-3.58-7.13-1.79-7.99-6.35c-0.63-3.32-1.7-6.55-1.9-9.95c1.81-0.22,2.95,1.62,4.97,1.19
		c-0.64-3.44-5.45-3.34-5.17-7.36c0.21-2.96-1.49-5.99-0.44-9.36c2.62,0.47,4.14,3.66,7.32,2.7c-2.11-4.07-8.46-5.2-7.53-11.64
		c8.82,9.97,17.8,19.2,28.76,26.19c-0.03,2.28-3.99,4.19-0.85,6.13c3.16,1.96,5.94-0.23,8.34-2.07c4.16,1.69,7.94,3.66,12.75,1.86
		c3.21-1.2,6.79,3.65,5.59,7.84c-0.71,2.49-0.88,4.89-0.71,7.31c0.13,1.89-1.22,4.12,1.63,5.76c0.95,0.54,1.01,4.15-0.45,5.98
		c-0.88,1.11-0.51,1.92-0.36,3.01c0.21,1.5,0.08,2.91,2.07,3.38c1.15,0.27,2.22-0.34,2.52-0.82c0.82-1.29,1.92-2.54,1.18-4.5
		c-2.89-7.61-4.01-16.77-3.47-26.76c3.69-0.59,7.62-4.21,11.16-1.02c3.21,2.9,10.05,3.03,8.64,9.86c1.46,1.19,2.94,0.71,4.57,0.56
		c0.67-1.41,1.36-2.87,2.22-4.68c-7.38,0.98-9.56-5.45-14.75-9.3c4.66-1.51,7.2-4.52,9.89-7.32c1.43-1.49,3.37-1.98,5.04-3
		c2.49-1.52,3.45,0.86,5,1.9c1.51,1.02,3.31,1.1,4.44-0.48c1.05-1.45,0.76-3-0.47-4.52c-1.25-1.56-2.96-1.25-4.91-1.74
		c2.96-2.57,5.01-5.55,7.96-7.96c2.38-1.95,3.79-5.48,5.73-8.25c4.4-6.27,8.68-12.67,11.09-20.04c0.81-2.49,3.24-4.78,1.44-7.78
		c4.05-5.47,4.48-12.57,8.03-18.16c1.46-2.3,2.72-4.15,2.83-7.01c0.12-3.2,3.47-5.07,4.12-8.57c3.65,1.42,5.88,0.06,8.26-2.62
		c3.55-3.98,9.04-4.9,13.76-7.01c5.17,3.6,7.47-3.75,11.87-2.5c0.03,3.44-4.36,3.94-5.97,6.93c2.97,0.47,4.25-2.08,6.46-3.45
		c0.84,3.7-3.41,5.11-2.73,8.96c0.24,0.3,1.6-0.54,2.55,0.07c0.47,1.16-2.09,1.75-0.74,2.84c3.83,3.07,1.69,5.68-0.45,8.33
		c3.7,3.46,4.24,9.1,1.3,12.53c-0.81,0.94-2.78,1.65-0.35,3.34c1.29,0.9-2.02,1.57-0.68,3.47c2.02,0.47,2.94-2.64,5.24-2.23
		c1.75,3.17,1.74,3.68-0.27,9.32c0.84,1.58,2.04-0.18,3.2,0.46c1.45,4.18,4.52,7.97,4.77,12.78c0.06,1.19,0.8,0.63,1.19,0.92
		c3.18,2.41,3.09,4.85-0.27,7.54c2.84,2.17,2.84,2.17,6.35,0.64c1.9,3.34,4.3,6.34,7.01,9.1c3.53,3.59,3.55,5.14,0.34,9.08
		c-0.5,0.61-1.32,1.08-0.66,2.52c2.29-0.15,3.13-2.44,4.71-3.56c1.37-0.97,2.37-3.98,4.58-0.89c-0.85,1.89-3.61,1.71-4.23,3.99
		c2.71,1.9,4.55-1.4,7.04-1.27c1.36,3.26-0.84,4.65-3.17,5.82c-6.53,3.28-13.57,5.24-20.5,7.35c-6.53,1.99-13.76,1.61-20.17,0.83
		c-8.62-1.05-17.49-1.63-25.93-4c-5.61-1.57-10.89-4.31-16.48-6.03c-4.56-1.4-8.17-4.64-12.6-6.12c-1.12,1.37-0.75,2.76-0.68,4
		c0.56,10.79,1.16,21.55,2.64,32.3c0.69,4.97,1.06,10.22,0.64,15.56c-0.96,12.25-0.31,24.63-0.31,36.96c0,0.17,0.03,0.33,0.01,0.5
		c-0.1,1.36,0.91,2.37,1.06,3.74c0.27,2.41-2.52-0.29-2.01,1.29c1.44,4.42-2.19,8.71,0.52,13.54c1.85,3.29,0.76,8.05,1.16,12.15
		c0.51,5.22,0.75,10.52,1.26,15.77c0.57,5.83-0.92,11.39-1.97,17.01c-0.74,1.36-1.79,2.41-3.16,3.15c-0.64,0.03-1.29-0.12-1.82,0.44
		c-3.16,3.25-7.23,4.5-11.48,5.65c-1.88,0.51-4.22,0.07-5.68,1.93L257.53,352.93z M278.9,309.08c-0.37,8.61-0.33,17.25-1.24,25.86
		C280.19,326.4,279.29,317.74,278.9,309.08z"/>
	<path class="st0" d="M141.12,197.65c-0.54-0.84-1.07-1.66-1.7-2.63c1.4-2.61,4.21-4.07,5.78-6.55c-1.09-1.67-2.99-2.65-3.81-4.59
		c1.96-2.03,5.25,0.57,6.77-2.44c-1.72-1.96-4.89-2.69-5.64-5.68c1.39-1.47,3.37-0.08,4.72-1.26c0.03-3.35-3.2-1.93-4.78-3
		c0.51-1.53,0.98-2.91,1.47-4.38c0.72,0.13,1.45,0.26,2.61,0.46c-1.74-5.49-1.79-11.2-5.09-16.08c3.34,1.48,4.06,5.09,7.08,7.13
		c-0.32-4.88-3.02-8.43-5.18-12.21c-6.23-10.92-15.15-19.87-22.27-30.14c-0.83-1.2-1.5-2.53-2.5-3.63
		c-1.19-1.31-2.83-2.88-0.72-4.45c1.85-1.38,4.49-1.49,6.18,0.02c6.48,5.83,12.85,11.79,18.96,18c2.3,2.34,3.69,5.61,5.17,8.53
		c1.53,3.02,5.37,4.45,5.37,8.4c0,0.81,0.72,1.79,2.07,1.34c1.04-0.35,1.8,0.78,1.65,1.28c-1.53,4.97,2.85,7.47,4.53,11.06
		c0.54,1.15,1.28,2.24,2.13,3.29c5.51,6.78,5.56,14.51,3.73,22.55c-0.29,1.27-0.31,2.66-0.19,3.96c0.97,10.13,1.38,20.29,2.85,30.4
		c1.49,10.3,3.79,20.36,6.22,30.26c0.98,0.29,0.9-1.07,1.68-0.62c1.08,1.75-1.71,2.96-0.43,4.75c0.69,0.26,0.62-0.91,1.65-0.92
		c-1.13,2.21,0.97,4.21,0.11,6.43c3.33,0.55-0.68,4.83,3,5.66c1.77,0.4-0.29,4.28,2.64,4.92c1.56,7,5.75,12.74,8.78,19.04
		c0.87,1.82,4.19,2.61,2.83,5.06c-1.05,1.88-1.61,3.91-2.22,5.84c-1.07,3.39-4.23,5.4-4.7,9.36c-1.09,9.34-2.3,18.56-0.61,27.99
		c0.92,5.15,0.49,10.51,1.86,15.67c0.27,1.03-1.66,1.33-2.37,2.19c1.79,1.88,2.83,4.09,2.82,7.54c0.76-1.48,1.03-2.01,1.35-2.64
		c0.21,0.33,0.5,0.57,0.47,0.75c-1.26,6.92,0.9,13.49,2.3,20.07c2.73,12.89,6.44,25.53,10.47,38.08c1.7,5.3-0.12,10.63-0.92,15.87
		c-1.04,6.76-3.73,13.13-5.49,19.67c-3.13,11.65-10.91,20.41-16.41,30.56c-1.59,2.94-3.08,5.92-5.77,8.23
		c-2.61,2.24-2.43,6.29-4.7,8.99c-5.11-4.26-7.79-10.21-11.53-15.33c-7.31-10.02-14.29-20.29-21.57-30.31
		c-4.4-6.06-10.23-11.21-17.28-15.33c1.64-2.35,2.18-5.05,4.82-6.69c1.64-1.02,1.16-3.44,1.52-5.13c1.6-7.64,4.14-15.14,7.08-22.14
		c6.67-15.9,10.75-32.47,14.94-49.01c2.06-8.12,4.72-16.1,6.37-24.35c0.31-1.54,0.07-1.92-0.58-2.8c-2.95-3.99-6.24-7.56-7.86-12.62
		c-2.12-6.62,1.17-11.45,3.97-16.38c1.12-1.99,2.93-2.82,0.34-4.91c-2.08-1.67,0.52-3.67-0.01-5.94c-2.08-8.79-2.88-17.82-2.57-27
		c3.68,2.25,5.04,6.48,8.67,8.69c-6.04-9.96-15.04-18.16-17.89-30.44c-0.66,0.91-1.01,1.41-1.66,2.3c-2.44-3.6-5.74-6.26-5.93-10.71
		c-0.1-2.47-1.66-4.05-3.41-5.18c-2.9-1.86-2.3-3.19,0.25-4.48c3.23-1.63,4.78-5.11,8.06-6.94c-1.75-0.1-3.1-1.81-5.09,0.12
		c0.52-5.93,8.08-5.51,8.42-11.09c-2.45,0.11-2.97,3.08-5.11,3.38C136.52,200.92,137.32,199.06,141.12,197.65z M172.13,342.53
		c-1.32,2.71-2.87,5.36-3.04,9.51c-1.1-3.09-0.12-5.26-1.28-7.3c-0.27,4.95-5.82,8.33-3.88,13.91c1.85-2.59,2.98-3.77,4.15-4.32
		c0.94,1.35-0.32,3.3,1.25,4.74c0.06-3.23,4.86-4.22,3.36-8.12c1.11,0.93,2.21,1.87,3.34,2.82c1.14-2.17-0.43-2.64-1.71-3.4
		c-3.34-1.98-3.55-2.96-1.53-6.13c0.68-1.06,2.11-1.57,2.28-3.1c-2.64-2.47-4.41-0.05-6.44,1.01
		C169.79,342.69,171.03,341.3,172.13,342.53z"/>
	<path class="st0" d="M285.48,356.89c6.2,2.25,8.13,7.17,4.64,12.62c-1.14,1.77-1.98,3.8-3.65,5.05c1.51,5.79,4.95,10.5,6.77,15.91
		c2.28,6.79,4.44,13.64,5.13,20.8c0.36,3.74,2.02,7.05,2.78,10.65c0.87,4.1,0.9,8.32,2.23,12.36c1.01,3.07,1.57,6.3,2.03,9.51
		c0.19,1.3,2.85,0.07,1.72,1.79c-1.75,2.66,0.88,5.83-0.73,7.93c-2.38,3.11-3.71,6.73-5.89,9.89c-3.85,5.6-8.28,10.8-12.14,16.36
		c-5.49,7.91-11.58,15.37-17.01,23.32c-2.76,4.04-6.01,7.77-9.27,11.45c-2.04,2.3-4.47,1.88-5.75-1.02
		c-7.03-15.88-16.58-30.54-22.96-46.69c-1.94-4.92-3.7-10.05-5.74-14.92c-3.21-7.67-6.96-15.14-9.74-23.01
		c-2.08-5.9-4.49-11.74-5.87-17.81c-3.02-13.23-8.23-25.81-11.06-39.07c-0.88-4.1-1.66-8.23-2.55-12.64
		c3.65,0.97,6.31,3.09,9.26,4.63c12.46,6.51,25.73,10.91,39.12,15.1c9.67,3.03,19.48,3,29.35,2.82c3.77-0.07,7.48-1.01,10.54-4.88
		c-3.45,0.98-5.94,2.63-8.8,3.29c-1.28,0.3-2.53,0.73-3.83,0.64c-19.69-1.39-38.59-6.12-56.62-14.08
		c-4.89-2.16-9.25-5.48-14.08-7.86c2.07,0.33,4.15,0.67,6.23,1c11.02,4.85,22.72,6.86,34.59,7.88c5.74,0.49,11.56,0.13,17.34,0.15
		l-0.09-0.15c-0.18,0.45-0.34,0.98-0.95,0.96c-9.74-0.29-19.49,0.99-29.24-0.68c-2.25-0.39-4.56-2.08-7.51-0.62
		c5.7,1.68,11.07,3.02,16.57,3.36c7.14,0.44,14.24-0.93,21.38-1.22c5.83-0.24,11.97-1.26,17.31-4.54c1.01-0.62,1.59-0.97,1.37-2.13
		C282.81,361.64,284.35,359.44,285.48,356.89z"/>
	<path class="st0" d="M135.38,174.44c0-5.03,0-10.13,0-15.24c0.35-0.01,0.7-0.01,1.05-0.02c0,6.39,0.59,12.84-0.14,19.14
		c-0.99,8.54-2.58,17.05-5.8,25.15c-2.84,7.14-6.22,13.95-11,20.02c-5.15,6.55-12.14,7.04-19.63,6.25
		c-6.84-0.72-12.02-4.72-17.56-8.21c-2.52-1.59-5.71-2.68-6.93-5.31c-2.1-4.52-6.29-7.43-8.14-12.22c-1.17-3.04-3.68-5.56-4.98-8.9
		c-2.52-6.46-2.81-13.34-4.66-19.91c-2.27-8.06-0.76-16.23,0.85-24.31c0.88-4.4,3.96-7.7,5.24-11.99c2.61,0.71,4.15,2.47,5.17,4.16
		c6.88,11.38,17.48,17.23,29.83,20.56c3.51,0.94,6.67,2.13,9.89,4.14c4.29,2.68,9.62,3.85,14.64,5.17
		C126.93,173.92,130.55,176.14,135.38,174.44z"/>
	<path class="st0" d="M156.87,101.76c1.71,0.67,3.23,0.06,4.83-0.7c0.81,3.45,1.54,6.82,2.4,10.16c0.87,3.37,4.4,5.81,3.44,9.83
		c3.86,3.01,4.16,8.19,7.2,11.76c3.18,3.73,5.66,7.99,8.72,11.84c4.96,6.23,10.78,11.39,17,16.35c2.52,2.01,4.89,5.13,6.47,8.7
		c2.2,4.96,6.98,8.29,10.84,12.14c1.98,1.98,3.93,3.95,5.34,7.22c-7.79-0.72-15.64,2.11-22.33-3.49c0.54-1.29,1.09-2.59,1.64-3.9
		c-3.02,2.05-5.73,4.27-9.18,5.25c-0.83-0.29-1.68-0.89-1.67-1.66c0.01-2.34-0.62-3.47-3.24-4.17c-1.76-0.47-3.34-2.3-2.36-5.53
		c1.55-5.08,3.3-10.07,5.94-15.9c-5.01,3.25-4.66,9.46-9.69,11.33c-0.67-1.13,1-2.42-0.31-3.52c-0.66,1.1-1.32,2.18-1.99,3.28
		c-1.81-1.06-1.87-3.39-3.97-4.65c2.97-1.67,0.9-4.5,2.76-6.42c-2.73-0.1-2.77,2.21-4.14,3.34c-3.95-2.68-2.88-6.09-0.75-9.71
		c-2.14,0.36-2.62,1.88-3.84,2.38c-4-3.73-4-3.73-0.79-10.07c-1.1-0.6-1.36,1.31-2.48,0.78c-1.14-3.16,1.11-5.81,1.65-9.4
		c-3.87,2.55-3.65,6.21-4.12,9.53c-3.73-0.64-0.76-5.98-4.87-6.17c1.46-2.58,2.82-4.93,4.99-6.84c-1.36-0.63-2.19-0.53-3.12,0.16
		c-4.22,3.12-4.7,2.99-7.19-1.5c-0.23-0.42-0.41-0.86-0.64-1.34c1.34-2.04,3.79-3.36,3.81-6.38c-2.48,0.4-3.03,4.04-6.12,3.43
		c-0.82-1.15-1.75-2.45-2.62-3.67c0.57-2.4,3.51-3.07,3.89-5.56c-2.96-0.46-4.46,5.42-7.96,1.73c0.63-2.61,3.67-3.23,3.95-6.26
		c-2.83,0.13-3.65,2.8-5.68,3.8c-1.46,0.06-2.02-1.32-3.13-2.39c1.79-1.7,3.71-3.46,1.91-6.41c-2.05,0.2-2.59,2.96-5.17,3.64
		c1.18-3.54,4.66-4.88,6.44-8.18c-4.53,0.11-6.73,6.7-11.67,3.66c0.97-3,0.44-3.85-3.49-5.45c3.95-8.38,10.09-14.3,18.25-17.93
		c3.97,1.99,3.48,8.32,9.11,8.12c-0.13-1.59-1.21-3.03,0.59-4.45c1.01-0.39,2.04,0.72,3.25,0.75c-0.19,1.19-1.45,0.38-2.02,1.36
		c1.09,1.84,3.42,1.83,5.03,2.93c-0.91,0.86-2.35-0.02-3.22,0.98c-0.31,1.41,1.12,1.89,1.55,2.91
		C159.42,99.17,157.36,99.86,156.87,101.76z"/>
	<path class="st0" d="M350.42,139.26c8.18-4.43,15.19-10.05,22.29-15.47c3.02-2.3,5.6-5.27,8.82-7.46c1.37-0.93,2.62-1.89,4.57-2.24
		c0.09,4.11,2.58,7.3,3.92,10.93c4.22,11.41,6.9,23.15,7.28,35.27c0.19,5.98-0.63,12.03-1.39,17.99c-0.27,2.1-1.47,4.21-2.68,6.04
		c-1.46,2.21-5.53,2.59-8.81,1.21c-9.12-3.85-15.45-10.8-21.09-18.66C357.39,158.59,353.35,149.47,350.42,139.26z"/>
	<path class="st0" d="M283.25,128.62c2.28,0.58,5.28,0.02,3.86,3.96c-1.27,1.02-3.83-0.12-4.95,2.01c0.99,0.98,2.48,0.01,3.61,0.7
		c1.21,1.25-1.62,3.47-4.79,3.77c-0.33,0.03-0.65,0.12-0.98,0.19c-0.07,2.26,2.2,1.35,3.07,2.23c-1.19,3.32-3.5-0.47-5.15,0.95
		c-0.06,0.84,0.6,1.22,1.3,1.48c0.72,0.27,1.7-0.06,2.19,1.15c0.25,1.87-3.25,3.17-0.82,5.54c-5.73,0.67-5.73,0.67-8.79-0.94
		c-0.22,2.32,0.02,4.43,1.6,6.39c1.58,1.95,1.17,4.35,0.79,6.65c-2.2,0.7-2.58-1.88-4.35-2.19c-0.57,1.17-0.45,2.27,0.06,3.52
		c1.73,4.22,1.69,4.23-2.02,7.69c-1.44-2.29-2.35-4.87-3.57-8.4c-1.37,3.26-0.65,5.08,0.16,7c0.74,1.74,2.9,3.27,1.08,6.06
		c-1.58-1.66-1.24-4.53-4.17-4.96c0.41,4.03,4.73,8.95-2.26,11.56c-0.78-1.29-1.59-2.62-2.43-4c-4.23,2.62,3.67,6.61-1.05,8.99
		c-2.21-0.6-1.29-5.09-5.12-3.44c0.25,2.09,3.21,3.62,1.43,6.18c-1.54,0.56-3.17,0.32-4.9,0.14c-1.05-1.06-0.31-3.49-2.75-3.67
		c-1.49,0.63-0.39,2.34-1.28,3.47c-1.63,0.62-3.25,0.4-5.07-0.31c-1.47-0.57-3.24-0.35-6.15-0.58c6.76-4.15,9.67-11.45,17.52-12.89
		c3.23-0.59,2.09-3.46,1.73-6.28c-4.25,1.66-5.69,6.05-9.36,7.84c-3.62,1.76-6.85,4.33-10.75,6.88c-0.34-4.01-1.79-7.49-1.44-11.21
		c0.21-2.21-0.11-5.09,3.89-4.28c0.85,0.17,2.36-0.98,3.21-1.65c6.21-4.9,13.23-8.87,16.11-17.23c1.49-4.33,5.44-7.72,7.34-12.09
		c3.2-7.38,6.25-14.83,9.08-22.38c-3.18,2.99-4.05,7.2-6.09,11.27c-2.2-3.92-4.27-7.59-6.39-11.37c4.67-4.19,9.03-8.48,7.91-15.56
		c4.23-1.78,6.36,1.83,8.8,3.8c3.81,3.08,6.8,7.12,10.92,9.89c-2.53,3.37-4.95,0.09-7.52,0.5c0.46-0.96,0.8-1.67,1.15-2.4
		c-2.83-2.04-5.85,1.51-8.83-0.78c-0.01,1.57,0.12,2.97,1.3,3.04c3.49,0.19,6.65,1.92,10.04,2.07c3.35,0.15,6.96,1.19,9.92-2.08
		c1.07-1.18,3.31-1.99,5.42-1.71c-1.18,3.55-1.18,3.55-5.99,5.6c0.93,0.13,1.56,0.19,2.18,0.33c0.46,0.1,0.9,0.29,1.35,0.45
		c-2.63,7-2.63,7-7.74,5.55C284.89,126.06,284.23,127.08,283.25,128.62z"/>
	<path class="st0" d="M209.56,360.04c-2.07-0.33-4.15-0.67-6.23-1c-1.49-0.18-3.5,0.48-3.43-2.24c0-0.19-1.35-0.41-2.26-0.67
		c-0.38-1.34-0.28-2.94,0.12-5.03c6.05,1.93,12.3,3.08,18.42,3.49c8.8,0.59,17.59,2.81,26.61,0.63c3.88-0.94,8.18-0.4,12.24-1.21
		c0.93-0.19,2.05,0.18,2.5-1.08l-0.19,0.13c0.85,0.12,1.83-0.47,2.5,0.34c0.04,0.68-1.31,0.6-0.33,1.82
		c6.03-2.56,12.85-3.88,16.8-10.18c1.37-0.73,2.42-1.79,3.16-3.15c2.03-0.24,1.64-2.7,3.13-3.42c5.32,3.19,6.05,10.89,2.87,18.42
		c-1.13,2.54-2.67,4.74-5.16,6.15c-6.04,2.68-12.09,5.31-18.94,4.88l0.09,0.15c0.35-1.39,1.52-0.91,2.42-1.08
		c4.52-0.86,9.03-1.73,13.01-4.54c-0.84-0.56-1.52-0.5-2.12-0.22c-8.54,3.88-17.64,4.49-26.82,4.79c-2.03,0.07-3.7-1.17-5.8-1.09
		c-6.27,0.25-12.26-1.6-18.37-2.66C218.98,362.43,214.56,359.93,209.56,360.04z"/>
	<path class="st0" d="M207.43,165.82c1.87-1.84,3.21-0.06,4.56,0.46c4.07,1.58,7.48,4.79,12.2,4.82c1.32,0.01,2.22,0.98,2.18,2.28
		c-0.14,4.38,0.45,8.7,0.85,13.19C220,180.05,212.98,173.64,207.43,165.82z"/>
	<path class="st0" d="M206.14,189.98c2.77,0.88,5.64,1.28,8.96,1.04c-1.34,3.32-1.75,6.74-5.03,8.6
		C205.22,198.37,204.56,195.32,206.14,189.98z"/>
	<path class="st0" d="M243.2,193.11c0.6,3.87-2.1,4.56-4.39,5.58c-2.13-1.3-1.07-3.27-1.35-5
		C239.39,192.45,241.3,193.27,243.2,193.11z"/>
</g>
</svg>
