<?xml version="1.0" encoding="utf-8"?>
<!-- Generator: Adobe Illustrator 24.0.2, SVG Export Plug-In . SVG Version: 6.00 Build 0)  -->
<svg version="1.1" id="Layer_1" xmlns="http://www.w3.org/2000/svg" xmlns:xlink="http://www.w3.org/1999/xlink" x="0px" y="0px"
	 viewBox="0 0 415.76 828.19" style="enable-background:new 0 0 415.76 828.19;" xml:space="preserve">
<style type="text/css">
	.st0{fill:#1A1A1A;}
</style>
<g>
	<path d="M265.96,808.32c-0.19,1.2-0.35,2.16-0.56,3.44c-4.73-2.93-11.08-2.51-13.91-8.24c-4.27,0.85-4.06-2.75-5.09-5.12
		c-2.23,2.28-3.63-0.59-3.76-1.36c-0.82-4.81-3.49-9.39-2.29-14.73c-1.03-0.59-2.34-1.29-3.28-2.85c4-4.8,6.13-10.52,5.56-16.87
		c-0.3-3.35-1.69-6.6-2.5-9.91c-1.67-6.84-2.81-13.79-3.35-20.78c-1.03-13.31-5.24-25.42-12.19-36.8
		c-3.98-6.52-7.83-13.19-10.52-20.41c-0.72-1.93-0.05-3.98-0.5-5.99c-1.44-0.88-1.89,1.95-3.61,0.62c0.09-4.84-1.87-9.35-4.87-13.56
		c-0.29,4.99-0.79,9.94,0.25,14.98c-6.51-6.46-9.98-14.65-13.61-22.88c-2.27,8.21-4.72,16.12-4.72,25.61
		c-2.9-3.85-2.93-7.72-4.83-10.83c-1.4,2.9,0.42,5.43,0.69,8.12c-5.57-4.79-1.83-11.38-3.58-17.36c-3.57,6.52-4.63,13.9-8.53,20.11
		c-5.46-9.59-5.46-9.59-6.43-18.98c-0.98,1.81-0.5,3.39-0.57,4.88c-0.08,1.65-0.02,3.31-0.02,5.26c-3.57-1.81-1.03-5.04-2.47-7.42
		c-3.16,3.04-4.54,7.44-8.33,10.85c-0.13-2.62-0.22-4.52-0.31-6.42c-6.24,1.8-8.67,5.44-8.87,13.53
		c-0.23,9.42,0.75,18.75,1.78,28.11c0.79,7.17,1.41,14.4,2.33,21.56c0.85,6.64,1.74,13.3,2.58,19.93c0.79,6.17,1.7,12.35,2.37,18.55
		c0.72,6.65,1.94,13.24,3.1,19.84c0.57,3.28,3.75,4.88,5.39,7.56c2.94,4.79,5.06,9.91,6.24,15.27c0.93,4.23-0.5,8.38-3.3,11.94
		c-2.64,3.37-5.85,6.1-9.24,8.88c-2.42-0.94-4.89-1.5-7.51-0.29c-8.14,3.76-15.79,0.36-23.39-2.01c-3.68-1.15-7.03-3.04-10.94-3.99
		c-3.87-0.94-7.7-3.29-11.44-5.25c-1.65-0.87-2.75-2.75-2.83-4.46c-0.18-3.94-2.16-7.4-2.29-11.56c-1.26,1.35-2.24,2.41-4.03,4.33
		c0.93-2.67,0.85-4.78-0.02-5.86c-3.26-4.02-2.73-8.62-2.82-13.2c-0.04-1.93,0.1-3.73-1.25-5.63c-1.67-2.36-0.78-5.48-0.56-8.25
		c0.29-3.78,2.71-7.36,1.01-11.36c-0.38-0.89,0.56-1.44,1.01-2.11c3.17-4.75,4.15-10.1,4.97-15.68c0.75-5.13,1.01-10.21,0.79-15.31
		c-0.42-9.84-1.3-19.64-2.74-29.42c-1.08-7.33-2.37-14.71-2.25-22.21c0.05-3.29,1.96-6.39,0.69-10.02
		c-1.29-0.03-2.85,0.92-4.36-0.12c-1.08-2.28,1.66-3.68,1.52-5.65c-11.09,1.62-21.19,6.12-31.7,11.12
		c0.84-5.11,5.38-7.02,7.47-10.88c-4.32,4.18-9.44,0.54-14.19,3.35c0.15-4.48,2.93-5.68,4.59-8.35
		c-11.78,4.32-23.82,5.41-36.06,9.44c1.95-3.48,4.22-5.21,6.72-6.47c-0.11-1.55-1.39-0.69-2.05-1.7c3.79-0.62,7.12-2.03,10.73-5.17
		c-9.83-0.65-19.35,1.5-27.14-5.02c0.26-2.05,1.55,0.54,2.23-0.6c-0.17-1.94-1.83-1.45-3.15-1.56c-1.38-0.11-2.88,0.31-4.24-0.63
		c0.95-2.34,3.12-0.67,4.27-1.77c-0.59-1.27-2.26,0.05-2.93-1.32c2.03-2.13,5.28-2.46,7.89-5.01c-4.31,0.2-7.24,2.55-10.98,3.9
		c0.48-1.54,0.66-2.6,1.48-3.37c8.63-8.15,13.14-19.09,19.15-28.95c5.68-9.31,11.85-18.09,19.55-25.79
		c0.82-0.82,1.58-1.69,2.18-2.75c-9,3.26-15.52,9.88-22.31,16.9c2.8-7.3,24.29-31.92,47.97-41.63c-4.09-1.92-8.13,0.86-13.29-0.12
		c7.33-5.88,15.37-7.16,22.99-9.48c7.66-2.33,15.6-3.28,23.55-5.1c-1.48-1.96-4.35-1.99-5.15-4.43c0.96-1.94,2.79-1.79,4.2-1.12
		c1.31,0.62,2.54,0.55,3.84,0.7c4.92,0.56,8.96-0.22,11.57-5.29c1.23-2.4,3.54-4.77,5.95-5.92c4.56-2.18,4.5-5.8,3.93-9.58
		c-1-6.68-1.93-13.34-1.89-20.1c0.04-7.33,0.01-14.66,0.01-21.99c-0.01-13.19,1.61-26.19,3.8-39.2c1.6-9.5,3.57-18.92,5.07-28.43
		c0.59-3.74,0.14-7.65,0.12-11.48c-0.06-11.05,0.79-22.01,4.09-32.6c1.6-5.14,3.91-10.05,6.66-14.7c1.31-2.22,1.48-4.28-0.04-6.36
		c-1.68-2.29-1.66-4.88-1.77-7.55c-0.11-2.6,1.15-5.49-1.71-7.74c-0.74-0.58-0.38-2.74,0.36-4.23c1.01-2.04,2.2-3.96,3.34-5.68
		c-0.38-1.79-2.4-0.44-2.74-1.91c-0.17-0.56,0.17-0.93,0.63-1.13c4.86-2.17,7.33-6.18,8.77-11.09c0.54-1.83,0.61-3.62,0.21-5.38
		c-2.11-9.41-4.05-18.87-4.7-28.48c-0.63-9.18-4.43-16.95-9.66-24.05c-8.83-11.99-12.94-25.83-16.34-39.94
		c-1.72-7.13-2.95-14.33-7.69-20.28c-0.82-1.03-0.83-2.24-2.96-2.44c-1.9-0.18-2.67-3.03-2.37-5.32c0.15-1.11,1.33-1.97,0.69-3.5
		c-0.95-1.72-2.15,1.08-3.58-0.14c-0.2-3.43,2.7-5.38,4.68-8.03c-5.34-3.88-12.15-6.37-14.02-14.39c2.36,1.26,3.45,3.41,6.18,3.15
		c-3.95-3.76-6.2-8.99-10.89-12.06c-1.14-0.75-2.13-1.57-3.01-2.52c-7.09-7.66-15.14-14.08-23.72-20.04
		c-5.79-4.02-9.74-10.1-13.68-16.07C41.65,86.6,38.84,72.98,34.72,59.8c-1.48-4.75-2.68-9.45-1.67-14.42
		c1.07-0.67,1.51,0.11,2.09,0.88c1.98-6.18,5.42-11.08,11.1-13.99c1.73,0.82,1.37,2.44,1.89,3.61c2.77-0.64,5.17-1.56,7.88-3.06
		c0.39,3.3,2.83,3.81,5.16,3.03c4.26-1.42,8.55-0.66,12.82-0.87c2.94-0.15,5.94,0.38,9.09-1.41c0.34,3.35,2.59,3.04,4.84,3.59
		c13.76,3.31,27.43,6.98,41.15,10.45c3.92,0.99,7.92,1.69,11.79,2.5c4.91-9.8,9.99-19.07,17.21-26.97c0.56-0.61,1.63-1.64,1.5-1.84
		c-1.71-2.59,0.06-4.08,1.76-5.32c2.75-2,5.54-4.24,9.22-3.98c3.59,0.25,7.28-0.95,10.79,0.79c0.49,0.24,1.49,0.17,1.87-0.18
		c6.8-6.24,16.41-4.52,24.08-8.46c2.06-1.06,4.45-1.91,6.7-2.84c1.64-0.68,3.14-1.99,5.41-0.93c0.91,0.72-0.18,2.42,1.12,3.59
		c2.82-1.17,5.5-0.76,7.6,1.85c2.16,2.69,4.58-0.08,7.01,0.23c-0.41,3.52-4.24,2.35-5.71,4.46c0.97,0.92,2.35,0.29,3.45,0.96
		c4.59,2.77,9.7,3.22,14.86,2.45c4.65-0.7,6.6,3.4,8.42,5.73c3.25,4.14,5.79,9.06,8.03,14c0.82,1.81,2.67,3.31,4.65,4.35
		c3.27,1.7,5.88,4.24,8.34,6.91c4.14,4.49,5.25,12.65,2.42,17.16c-2.99-1.05-2.49,1.96-3.47,3.13c-1.28,1.54-1.26,3.66-1.8,5.53
		c-0.45,1.59-1.44,3.05-2.87,3.92c-3.45,2.1-5.23,5.8-8.23,8.33c-1.44,1.21-2.63,2.51-0.11,4.26c1.33,0.93,1.9,2.46,0.53,4.62
		c-1.18,1.87,0.66,4.52,0.77,6.96c0.15,3.27,0.32,6.6,0.21,9.86c-0.11,3.19-3.45,5.05-4.08,8.33c-0.34,1.76-0.88,3.43-0.71,5.45
		c5.9,3.1,12.08,6.09,18.46,7.33c5.14,1,10.44,1.19,15.49,3.06c5.5,2.04,10.47,4.4,13.07,10.27c1.4,3.16,4.94,4.82,6.88,7.78
		c2.8,4.28,4.32,9.1,5.82,13.88c1.09,3.46,2.45,6.74,4.18,10.24c-4.2,1.1-3.22,4.49-2.9,7.33c0.22,2.01,1.43,3.68-0.82,5.56
		c-0.85,0.71-0.39,3.18-0.26,4.82c0.22,2.7,0.04,5.53-1.37,7.65c-3.07,4.61-1.33,9.19-1.09,13.96c0.52,10.5,2.93,20.96,0.59,31.56
		c-0.84,3.82-0.47,7.85-0.93,11.8c-0.68,5.89-2.16,11.57-3.42,17.29c-0.94,4.31-0.53,8.34-0.1,12.63
		c1.34,13.28,2.54,26.54-0.31,39.91c-1.18,5.53-1.55,11.34-2.33,17.02c-0.64,4.7-2.09,9.27-2.1,14.07
		c-0.01,10.39,2.19,20.51,3.79,30.69c0.84,5.32,0.8,10.76,2.18,16.01c0.28,1.08-0.5,2.04-1.04,2.68c-4.1,4.88-4.86,11.36-8.17,16.59
		c-2.01,3.17,0.15,6.14,0.75,8.99c1.93,9.17,3.31,18.33,3.61,27.74c0.51,16.03,1.23,32.08,2.2,48.08
		c0.63,10.5,1.53,21.16,4.45,31.53c1.31,4.63,0.22,9.8-0.67,14.74c-1.35,7.52-3.66,14.85-8.21,20.75
		c-5.12,6.63-8.73,13.98-12.79,21.14c-7.1,12.52-13.36,25.48-20.18,38.13c-3.4,6.3-4.96,12.76-3.68,19.45
		c0.97,5.05,1.08,10.18,1.47,15.16c0.69,8.95,3.32,17.36,5.62,25.8c3.47,12.69,6.89,25.44,11.63,37.77
		c5.48,14.27,10.53,28.72,16.31,42.86c1.2,2.93,3.3,6.9,8.08,6.23c1.54,3.18,7.8,2.8,6.22,8.58c-0.35,1.26,1.44,3.17,2.39,4.7
		c1.8,2.91,3.9,5.66,5.53,8.66c2.12,3.9,0.85,7.8-0.74,11.55c-0.84,1.99-3.02,0.94-4.38,1.73c-5.61,3.27-11.68,4.2-18.05,3.68
		c-0.66-0.05-1.56-0.26-1.96,0.08c-5.45,4.51-10.86,0.39-15.88-0.67c-5.05-1.07-9.96-4.03-12.48-9.42
		c-0.93-1.99-2.33-3.35-4.96-1.68C268.18,811.17,267.69,808.47,265.96,808.32z M297.53,403.56c2.98-7.69-4.67-10.92-4.92-16.52
		C292.09,392.87,295.47,397.47,297.53,403.56z"/>
	<path class="st0" d="M27.31,658.6c1.83-2.95,4.8-4.33,7.72-5.77c1.03-0.51,2.01-1.12,3.03-1.64c5.05-2.55,5.05-2.54,10.22-9.43
		c-11.36,8.16-23.62,7.54-36.13,4.09c-1.52-0.42-1.48-0.56-3.38-3.62c5.97-0.51,11.71-1.4,17.94-4.32
		c-6.2-2.62-11.29,1.04-16.84-0.43c2.71-2.86,6.66-3.67,8.5-7.21c-4.54-1.43-7.94,2.16-12.2,2.4c9.89-10.36,14.03-24.18,22.44-35.33
		c3.78-5.01,7.81-9.76,12.33-14.12c3.92-3.78,3.9-3.8,5.58-8.97c-4.36-0.68-6.76,3.24-10.59,3.92c4.02-5.6,9.16-10.22,14.71-14.08
		c5.85-4.06,12.13-7.65,18.92-10.11c6.65-2.41,13.77-1.84,20.66-2.93c-8.11-4.24-16.86-0.79-25.21-1.55
		c0.04-0.38,0.07-0.75,0.11-1.13c6.74-1.82,13.48-3.66,20.23-5.46c6.77-1.8,13.68-2.89,21.35-4c-0.39,4.75,0.34,9.34-1.86,13.86
		c-2.64,5.41-5.26,10.91-3.11,17.27c0.73,2.17-1.12,4.14-0.93,6.28c0.43,4.9,0.98,9.79,1.52,14.68c1.09,9.78,4.9,18.87,7.19,28.34
		c1.4,5.77-0.1,9.42-5.3,12.42c0.99-3.7,2.99-7,2.33-11.66c-1.61,4.97-2.97,9.18-4.38,13.53c4.48,1.2,5.59-3.16,8.5-5.04
		c0.11,5.72,0.96,11.27-0.9,16.74c-0.8,2.36-2.26,3.87-4.67,4.59c-1.66,0.49-3.26,1.2-5.26,1.95c4.47,2.95,7.03-1.32,10.59-2.02
		c-1.53,4.36-5.11,4.49-8.42,5c-3.01,0.47-6.12,0.12-7.3,4.31c-0.45,1.59-3.18,2.54-5.47,4.23c0.63-4.76,4.41-7.3,5.18-11.83
		c-9.38,2.45-18.1,6.1-27.6,9.92c1.22-3.47,5.51-4.62,3.38-8.57c-5.11,2.14-10.18,4.57-16.4,6.43c3.74-6.24,9.29-9.72,12.81-15.05
		c-6.38,3.18-11.66,7.93-18.73,9.79C41.1,655.87,34.09,656.38,27.31,658.6z"/>
	<path class="st0" d="M210.23,473.34c2.64,5.13,0.81,10.41,1.76,15.26c2.69,0.42,2.34-2.04,3.75-3.29
		c0.75,18.04,9.92,32.3,18.98,46.81c1.61-1.61,0.57-2.66,0.18-3.88c-0.36-1.13,0.9-1.97,1.44-3.46c3.36,4.76,6.36,9.44,10.09,13.46
		c-1.05,2.95-3.07,5.07-4.78,7.45c-3.82,5.32-6.21,11.37-6.94,17.98c-0.12,1.09-0.13,2.08-0.69,3.23
		c-2.83,5.8-5.13,11.87-3.39,18.44c0.63,2.38-2.32,2.52-1.9,4.58c0.4,1.92,3.08,1.67,3.04,4.09c-0.17,10.16-0.08,20.32-0.08,30.48
		c0,1.15-0.7,1.79-1.73,2.33c-1.41-2.08-3.32-3.62-5.95-5.42c0.24,4.7,3.75,7.72,3.61,12.88c-3.09-4.19-6.12-7.26-9.66-9.91
		c2.15,3.82,4.07,7.63,4.52,12.32c-10.73,1.55-11.77,10.61-13.84,19.19c-4.35-5.83-2.69-13.06-6.59-18.5
		c1.43,9.21,2.37,18.39,1.41,27.65c-10.03-10.05-10.28-23.65-13.39-36.32c0.68,6.14,1.28,12.23-0.36,18.26
		c-1.62,5.96-2.03,12.2-4.5,18.72c-3.29-7.01-1.93-14.32-3.8-20.52c-4.34,7.71-8.17,16.04-9.54,25.39
		c-4.54-3.73-6.97-13.99-5.32-22.48c-4.59,3.13-7.27,7.52-10.79,12.45c0.59-4.59,2.7-7.54,4.25-11.84c-3.53,2.2-4.53,5.47-6.89,7.44
		c-2.39,2-4.34,4.54-6.93,6.52c0.65-5.16,2.75-9.61,5.21-13.89c4.97-8.65,9.26-17.63,13.39-26.71c3.24-7.13,7.11-14.02,9.48-21.46
		c2.92-9.16,6.9-17.9,10.01-26.96c1.78-5.21,3.64-10.52,3.45-16.21c-0.04-1.3,0.02-2.54,0.65-3.85c2.01-4.16,2.57-8.8,3.04-13.27
		c0.82-7.77,4.38-14.64,6.2-22.05c3.5-14.21,8.94-27.9,11.22-42.44C208.98,475.04,209.64,474.38,210.23,473.34z M213.36,622.04
		c-0.1-1.65,1.19-2.63,1.46-4.16c1.51-8.54,4.28-16.51,9.13-23.96c5.04-7.74,6.63-16.71,5.22-26.03
		c-0.26,9.85-1.68,19.34-8.01,27.62c-0.83-1.5,0.15-3.14-1.71-4.78c-1.28,4.97-0.24,10.27-4.07,13.79c-1.03-0.36-0.11-1.92-1.5-1.76
		C213.81,609.2,211.77,615.52,213.36,622.04z M183.35,601.66c-2.1,8.6-1.7,16.44-3.52,24.46c2.64-0.97,3.91-2.48,4.96-4.29
		c-1.34-1.26-1.8,1.33-3.05,0.15C182.37,615.67,184.49,609.33,183.35,601.66z"/>
</g>
</svg>
