<?xml version="1.0" encoding="utf-8"?>
<!-- Generator: Adobe Illustrator 24.0.2, SVG Export Plug-In . SVG Version: 6.00 Build 0)  -->
<svg version="1.1" id="Layer_1" xmlns="http://www.w3.org/2000/svg" xmlns:xlink="http://www.w3.org/1999/xlink" x="0px" y="0px"
	 viewBox="0 0 428.53 725.88" style="enable-background:new 0 0 428.53 725.88;" xml:space="preserve">
<style type="text/css">
	.st0{fill:#1A1A1A;}
</style>
<g>
	<path d="M74.58,114.68c-1.13,0.36-2.06,0.66-3.51,1.12c1.48,11.63,0.68,23.53,1.03,35.86c4.34-2.28,8.46-3.7,12.79-4.49
		c9.57-1.75,18.98-0.99,27.5,3.66c3.37,1.84,6.42,2.66,9.71,1.64c2.52-0.78,5.04-1.85,7.48-2.94c3.78-1.7,7.79-2.1,11.77-2.57
		c1.95-0.23,3.51-0.76,5-2.01c3.11-2.59,6.54-4.72,10.16-6.55c6.42-3.24,12.36-7.45,19.64-9.65c-3.32-1.93-3.21-6.69-7.31-7.74
		c-0.6-0.15-0.82-0.87-0.86-1.55c-0.03-0.48,0.02-1.19-0.27-1.41c-5.42-4.14-6.87-10.87-10.61-16.09c-1.25-1.75-1.37-3.83-1.47-5.61
		c-0.12-2.36,0.84-4.76,3.64-5.8c5.19-1.94,9.57-5.35,14.19-8.29c1.63-1.04,3.34-2.08,2.21-5.07c-1.88-5.01,1.08-9.38,3.35-13.6
		c0.67-1.25,1.3-2.64,2.57-3.51c-0.81-1.18-2-1.3-2.85-1.91c-2.32-1.69-5.35-2.4-6.26-5.92c-0.4-1.57-2.42-2.77-3.82-4.02
		c-2.71-2.41-4.04-5.72-5.93-8.43c5.61-2.65,11.88-1.64,17.77-4.11c-1.88-1.14-3.9-1.14-5.36-2.36c4.43-0.68,8.62-2.79,13.1-1.86
		c2.58-3.61,2.26-7.55,2.18-11.36c-0.1-4.86,0.59-9.6,2.01-14.19c0.58-1.88-0.61-4.05,1.37-5.92c8.99,8.99,19.79,16.29,25.22,28.45
		c2.88-1.72,3.94,1.87,6.14,2.11c1.41-0.83-0.78-1.72,0.05-2.57c0.75-0.2,1.01,1.1,1.85,0.62c0.83-10.79,3.05-19.19,7.94-24.72
		c10.14,5.07,22.75,29.1,15.53,54.66c0.9,0.69,1.29-1.05,2.47-0.25c1.47,3.29-0.81,7.43,1.57,10.8c0.65-0.32,0.88-1.37,1.86-2.4
		c0,2.69,0,4.79,0,6.88c1.6,0.33,1.8-1.8,3.44-1.52c-0.53,1.83-1.05,3.63-1.65,5.7c1.33-0.11,2.56-1.13,3.91-0.37
		c-0.27,0.78-0.54,1.56-0.82,2.37c0.62,0.77,1.65,0.02,2.31,0.63c1.1,1.81-0.5,2.94-1.18,4.21c0.99,2.41,3.88,0.89,5.13,2.85
		c-0.51,4.53-1.61,8.96-4.87,12.37c2.81,3.24,2.26,7.46,3.93,11.05c1.21-0.5,2.42-0.99,3.8-1.56c0.38,2.36,0.12,4.65,1.57,6.78
		c1.83,0,3.8,0,5.95,0c0.16,1.8-0.84,2.89-1.88,4.19c1.08,0.44,2.71,0.45,1.98,2.2c-0.1,0.23-0.3,0.41-0.39,0.64
		c-2.35,5.7-2.39,5.77,2.76,9.1c7.1,4.6,13.59,9.92,19.17,16.26c2.3,2.61,5.21,3.72,8.3,4.32c8.12,1.56,15.22,5.27,21.82,10
		c10.76,7.73,18,18.19,22.26,30.59c1.61,4.69,2.98,9.58,3.45,14.59c0.17,1.86,1.05,3.19,2.26,4.5c5.36,5.78,10.75,11.61,14.64,18.48
		c3.79,6.68,6.79,13.74,7.93,21.5c0.83,5.63,1.41,11.24,1.54,16.95c0.08,3.68,1.69,7.21,3.74,10.23c3.83,5.64,4.97,12.14,6.67,18.49
		c0.96,3.58,0.13,7.02-0.87,10.35c-0.54,1.8-0.41,3.33,0.17,4.93c2.48,6.9,2.27,13.87,1.62,21.11
		c-1.44,15.81-9.07,29.05-16.26,42.55c-0.81,1.51-0.91,2.94-0.78,4.81c0.67,9.94,1.77,20.1-5.56,28.55
		c-1.46,1.68-1.69,3.79-1.56,5.91c0.25,3.99-0.16,7.98-1.24,11.74c-2.11,7.32-7.19,11.85-14.69,13.42
		c-1.95,0.41-3.83,1.12-6.09,0.25c-1.82-0.7-4.13-0.14-6.06-0.14c-0.85-2.02,0.07-3.88-1.04-5.74c-2.04,0.86-3.86-0.19-5.65-0.52
		c-1.66-2.5-0.38-6.1-4.76-7.56c-3.23-1.08-5.62-1.19-8.17,0.49c-4.27-4.14-5.54-8.88-5.72-14.47c-0.18-5.59,3.77-9.65,4.79-15.11
		c-9.45,5.02-12.38,3-17.29-2.3c-0.46,6.78-0.85,13.62-3.34,19.92c-1.6,4.03-1.1,7.71-0.22,11.51c1.9,8.2,4.84,16.14,6.19,24.47
		c0.53,3.28,0.87,6.61,0.99,9.93c0.17,4.62-0.14,9.26,0.08,13.87c0.4,8.49-1.04,16.72-3.52,24.74c-1.57,5.07-0.57,9.39,2.34,13.45
		c3.61,5.03,6.35,10.31,7.27,16.57c0.93,6.32,1.11,12.6-0.26,18.8c-1.18,5.34-0.27,10.66-0.61,15.98c-0.05,0.86,0.63,1.29,1.03,1.9
		c2.34,3.54,2.81,7.73,1.63,11.4c-1.05,3.28-0.81,6.34-0.27,9.29c1.02,5.66,1.86,11.38,2.6,17.06c0.62,4.77,2.14,9.72,0.32,14.69
		c-0.65,1.76,0.48,3.63,0.62,5.45c0.21,2.86,0.23,5.76,0.03,8.62c-0.41,5.88,1.17,11.47,2.03,17.18c1.2,7.91,2.15,15.89-0.92,23.74
		c-1.61,4.13-4.67,6.8-7.8,9.59c-3.98,3.56-8.65,4.15-13.66,3.72c-4.19-0.36-8.45,0.78-12.58-0.67c-0.32-0.11-0.76-0.05-1.09,0.07
		c-7.68,2.74-15.34,1.16-23-0.08c-1.81-0.29-3.73,0.24-5.44-0.8c-1.69-1.03-3.93-1.3-4.37-3.92c-0.21-1.29-1.54-2.58-2.42-3.1
		c-1.41-0.84-1.61-2.27-1.64-3.07c-0.37-8.22-1.37-16.6,3.95-23.91c1.74-2.39,3.29-4.91,6.38-5.84c0.91-0.27,1.26-1.02,1.37-2
		c0.98-9.27,3.21-18.35,4.35-27.57c1.28-10.34,2.66-20.64,5.28-30.73c0.19-0.74-0.08-1.37-0.45-2.08c-2.58-5-5.42-9.79-8.89-14.27
		c-4.04-5.23-7.58-10.83-10.35-16.87c-2.15-4.7-3.68-9.58-4.19-14.74c-0.19-1.96-1.28-3.77-0.62-6.17
		c-7.99,3.39-15.8,2.72-23.45,0.46c-4.68-1.38-9.09-3.67-13.04-6.66c-2.16-1.63-4.67-2.09-7.24-2.26c-2.42-0.16-4.87,0.23-8.03-1
		c1.8,2.51,3.25,4.17,4.29,6.06c5.46,9.92,7.08,20.38,5.6,31.72c-0.72,5.49-1.99,11.17-0.44,16.96c0.81,3.03,0.28,6.47,0.13,9.71
		c-0.16,3.23,0.59,6.03,2.63,8.6c1.28,1.62,2.23,3.52,3.15,5.38c4.29,8.77,3.54,16.88-2.47,24.83c-3.06,4.05-4.49,9.16-6.34,13.94
		c-3.11,8.01-4.21,16.54-6.54,24.76c-2.22,7.85-5.59,15.17-9.47,22.23c-3.17,5.78-6.74,11.35-10.81,16.61
		c-5.28,6.81-12.14,11.02-20.13,13.56c-2.15,0.68-3.92,1.64-5.8,2.85c-4.49,2.89-9.16,5.48-14.86,5.53
		c-8.44,0.08-16.73-0.27-24.71-3.48c-2.87-1.15-6.1-0.41-9.18-0.83c-3.77-0.52-6.41-2.26-8.91-4.65c-0.81-0.77-1.38-1.77-1.84-2.37
		c-3.2,0.64-5.42,1.96-7.68,2.98c-1.65-0.56-1.63-1.9-1.45-3.11c1.19-7.85,2.79-15.35,10.08-20.41c2.46-1.7,3.86-5,5.57-7.68
		c1.98-3.1,4.49-6.38,7.49-7.56c3.45-1.36,5.14-4.18,7.89-5.91c2.47-1.56,5.21-2.73,8.32-2.54c1.98,0.12,3.98,0.02,5.96,0.02
		c6.94-14.12,15.3-27.24,23.04-40.7c1.7-2.95,3.63-5.81,5.44-8.72c1.32-2.12,1.27-4.18,0.6-6.67c-1.79-6.62-3.82-13.13-6.94-19.26
		c-1.71-3.37-3.41-6.79-5.52-9.91c-6.4-9.46-10.19-19.99-13.12-30.9c-0.25-0.94-0.17-2-0.07-2.99c0.15-1.47-0.33-2.78-1.18-3.8
		c-7.17-8.68-9.32-18.86-8.49-29.73c0.34-4.48,1.09-8.98,2.11-13.42c1.04-4.51,2.04-8.96,0.96-13.8c-0.8-3.57,0-7.47-0.19-11.21
		c-0.73-14.09,1.94-27.7,5.56-41.18c1.8-6.71,3.24-13.54,5.75-20.04c1.84-4.76,4.38-9.26,5.68-14.45c-2.48-2.24-5.65-3.59-8.73-5.04
		c-5.63-2.64-11.4-4.97-16.95-7.8c-9.35-4.76-17.62-11.04-25.75-17.59c-4.88-3.93-9.35-8.28-13.44-12.92
		c-11.39-12.93-21.98-26.46-26.5-43.57c-1.5-5.68-2.96-11.43-2.8-17.38c0.07-2.65-0.57-5.11-1.16-7.62c-0.9-3.8-0.63-7.4,2.64-10.11
		c1.5-1.24,2.58-2.81,2.8-4.62c0.34-2.83,1.85-5.06,3.11-7.42c1.67-3.14,5.81-3.79,7.91-1c2.74,3.63,6.06,4.85,10.49,4.47
		c4.58-0.39,8.98,1.15,13.34,2.34c3.43,0.94,6.03,3.5,7.94,6.41c1.05,1.59,2.31,2.53,3.91,3.12c12.05,4.46,23.02,10.8,33.19,18.61
		c5.92,4.55,11.28,9.69,16.49,15.02c1.03,1.05,2.32,1.92,2.09,3.72c-0.11,0.84,0.66,1.31,1.19,1.8c4.25,3.82,6.94,8.97,11.18,12.73
		c1.25-1.76,0.87-3.95,1.12-6.05c0.93-7.69,0.97-15.41,0.61-23.1c-0.3-6.4-0.27-12.84-1.36-19.19c-0.17-1.01-0.27-1.9-1.05-2.66
		c-6.79-6.53-12.3-14.07-16.98-22.21c-5.13-8.95-9.56-18.22-11.21-28.53c-0.38-2.37-1.08-2.5-3.41-2.13
		c-10.05,1.6-20.32,3.02-30.37,1.61c-16.19-2.27-32.35-5.2-47.59-11.62c-1.98-0.83-4.04-1.03-6.16-0.95
		c-6.32,0.25-12.56-0.23-18.62-2.23c-4.45-1.47-8.32-3.8-10.26-8.17c-1.22-2.74-1.72-5.83-2.3-8.8c-1.57-8.04-3.83-15.79-7.07-23.4
		c-2.85-6.7-2.81-14.03-2.11-21.45c1.02-10.78,6.16-19.38,12.27-27.78c5.05-6.93,9.68-14.15,14.85-21.01
		c3.86-5.12,5.32-11.48,7.72-17.34c2.47-6.03,5.09-12,9.55-16.81c2.83-3.05,6.71-4.91,10.39-6.83c6.73-3.5,13.7-6.37,21.04-8.46
		c8.13-2.32,14.87-0.25,21.08,4.96c4.84,4.06,8.73,8.96,12.37,14.03c1.51,2.11,1.62,4.76,1.07,7.44c-1.03,5.04-2.86,9.83-4.45,14.68
		c-2.2,6.69-5.92,12.31-12.78,15.29c-2.44,1.06-4.38,3.07-6.95,4.06C81.91,121.86,76.27,119.53,74.58,114.68z M334.78,345.93
		c-3.59-5.67-5.31-11.72-7.99-17.34c-5.52-11.54-7.35-23.72-4.82-36.26c0.57-2.84-0.35-3.66-2.24-4.37
		c-6.17-2.34-11.15-6.24-15.48-11.13c-0.84-0.95-1.53-2.32-3.12-2.38c-4.18,5.5-9.22,9.94-15.02,13.57
		c-1.76,1.1-3.18,2.54-4.45,4.24c-2.08,2.78-2.54,6-3.11,9.23c-1.17,6.58-2.51,13.15,1.52,19.33c0.26,0.39,0.3,0.93,0.45,1.39
		c2.53,7.89,3.88,15.97,3.73,24.28c-0.06,3.57,0.8,6.6,3.6,9.24c3.48,3.29,6.02,7.48,8.03,11.79c3.44,7.41,6.05,15.14,6.53,24.3
		c2.7-4.5,5.8-7.63,6.75-12.34c0.86-4.28,2.7-8.33,5.74-11.75c1.35-1.52,2.53-3.25,3.13-5.33c1.21-4.23,3.58-7.85,7.01-10.53
		C327.88,349.64,330.82,347.38,334.78,345.93z"/>
	<path class="st0" d="M253.74,75.87c1.03-0.63-0.05-1.96,0.99-2.6c0.83,2.56-0.46,5.34,0.98,8.28c1.2-1.43,2.61-2.11,4.14-2.61
		c1.08,0.79-0.87,1.44-0.05,2.27c0.5,0.3,1.01-0.61,1.64-0.1c0.42,0.9,0.54,1.9-0.11,2.75c-1.41,1.86-2.52,3.89-3.71,5.89
		c-1.36,2.31-2.81,4.47-1.91,7.24c-3.35,1.23-6.31-0.54-9.38-0.4c-1.21,0.06-1.33-1.09-1.57-1.77c-0.33-0.89-0.36-1.97-0.25-2.94
		c1.01-8.95-3.04-16.53-7.01-23.9c-1.84-3.43-4.76-6.48-8.13-8.98c-2.52-1.87-4.52-4.53-6.38-7.11c-0.56-0.78-0.83-2.19-0.54-3.72
		c0.82-4.38,0.39-8.85-0.96-13.15c-0.2-0.63-0.3-1.17,0.1-2.07c2.58,1.58,6.01,0.93,7.96,3.84c0.73-0.9-0.42-1.33,0.09-1.87
		c0.2-0.36,0.4-0.38,0.58-0.07c1.62,2.8,3.86,5.46,6.26,7.13c3.3,2.29,4.1,5.87,6.43,8.54c1.2,1.38,1.72,3.19,2.44,4.88
		c0.73,1.72,0.39,4.26,3.21,4.85c0.56,0.12,0.99,1.9,1.09,2.95c0.13,1.36,0.69,2.48,1.45,4.1c0.09-1.55,0.15-2.63,0.23-4.05
		C253.52,67.46,251.86,71.98,253.74,75.87z"/>
	<path class="st0" d="M257.31,107.87c-1.31,0.63-0.47,1.76-1.1,2.48c-0.77-0.35-0.93-1.58-2.29-1.65c-1.21,1.72-2.82,3.32-4.88,4.36
		c-2.09-0.38-1.27-2.39-1.72-3.45c-1.43-0.46-1.18,1.31-2.22,1.18c-0.86-0.32-0.64-1.62-1.79-1.86c-5.42,2.26-10.96,4.57-16.58,6.92
		c-0.22-1.91,1.41-2.83,2.3-5.05c-3.12,0.93-5.95,0.57-8.55,1.04c-2.78,0.5-5.5,1.96-7.31,4.35c-1.49-0.65-0.56-1.95-1.22-2.75
		c-2.6,1.41-3.79,4.06-5.51,6.49c-1.77-0.75-2.9-2.58-4.85-3.09c-0.78-0.2-1.38-1.05-2.29-0.13c-0.9,0.91-0.14,1.52,0.12,2.3
		c0.26,0.79,1.1,1.43,0.59,2.77c-2.4,1.15-5.42,0.82-8.35,1.82c0.05-1.56,0.78-2.81,1.62-3.79c7.35-8.63,15.84-15.7,27-18.87
		c7.75-2.21,15.7-3.49,23.73-2.68c5.44,0.55,10.94,1,16.25,2.75c2.25,0.74,3.3,2.05,3.58,3.95c0.23,1.56,0.6,3.09,1.03,4.65
		c-1.22,0.09-0.95-1.19-2.2-1.37c-0.83,0.57-1.89,1.58-3.31,1.84C258.19,109.84,258.12,108.37,257.31,107.87z"/>
	<path class="st0" d="M168.1,39.18c6.26,0.58,11.63-1.82,17.4-3.79c-1.64-1.93-4.27,0.25-5.15-2.23c0.26-0.08,0.48-0.22,0.69-0.22
		c10.21,0.17,9.02-1.58,11.65,8.03c0.85,3.1,3.19,5.46,3.93,8.69c-4.89,3.02-11.84,2.22-14.43,9.28
		c-6.68-5.69-13.34-10.35-17.95-17.51c3.22-0.23,5.5,2.68,9.03,2.08C172,41.17,169.25,41.38,168.1,39.18z"/>
</g>
</svg>
