<?xml version="1.0" encoding="utf-8"?>
<!-- Generator: Adobe Illustrator 24.1.2, SVG Export Plug-In . SVG Version: 6.00 Build 0)  -->
<svg version="1.1" id="Layer_1" xmlns="http://www.w3.org/2000/svg" xmlns:xlink="http://www.w3.org/1999/xlink" x="0px" y="0px"
	 width="51.04" height="83" viewBox="0 0 51.04 83" style="enable-background:new 0 0 51.04 83;" xml:space="preserve">
<style type="text/css">
	.st0{fill:#1A1A1A;}
</style>
<g>
	<path d="M45.66,40.63c0.96,1.13,1.41,2.24,1.65,3.55c0.42,2.28,1.23,4.46,2.46,6.46c0.33,0.54,0.64,1.11,0.87,1.7
		c0.46,1.23,0.76,2.46-0.39,3.53c-0.11,0.1-0.21,0.28-0.21,0.42c0,1.03-0.19,2.12,0.07,3.09c0.7,2.57,0.9,5.16,0.78,7.8
		c-0.03,0.72,0.01,1.44,0.02,2.16c0.05,3.88-1.08,7.41-3.41,10.5c-1.88,2.5-4.4,3.62-7.56,2.99c-1.1-0.22-2.19-0.45-3.28-0.7
		c-2.05-0.48-4.13-0.41-6.2-0.33c-0.7,0.03-1.42,0.24-2.09,0.48c-1.7,0.63-3.46,0.54-5.21,0.48c-1.81-0.07-3.21-0.93-4.25-2.35
		c-1.28-1.76-2.21-3.7-2.45-5.91c-0.06-0.56-0.06-1.12-0.18-1.67c-0.81-3.77,0.02-7.3,1.57-10.7c1.1-2.41,2.05-4.85,2.6-7.44
		c0.16-0.78,0.44-1.53,0.68-2.29c0.41-1.29,0.33-2.54-0.34-3.71c-1.83-3.18-3.59-6.41-5.99-9.22c-2.54-2.99-4.8-6.18-6.77-9.57
		c-0.8-1.37-1.36-2.89-2.02-4.34c-0.9-1.96-1.79-3.92-2.69-5.88c-0.18-0.38-0.46-0.62-0.89-0.71c-1.12-0.24-1.55-1.11-1.68-2.09
		c-0.3-2.13-0.59-4.28-0.7-6.43c-0.1-1.99-0.03-4,0.12-5.98c0.19-2.51,1.6-3.88,4.05-4.3c1.95-0.33,3.83-0.14,5.63,0.62
		c2.22,0.94,4.3,2.12,6.13,3.7c0.24,0.21,0.52,0.42,0.64,0.7c0.44,1.07,1.26,1.83,2,2.66c0.26,0.3,0.53,0.61,0.72,0.95
		c1.7,3.07,3.52,6.08,4.66,9.43c0.54,1.59,1.15,3.15,1.79,4.7c0.85,2.08,2.01,3.98,3.5,5.68c0.89,1.02,1.69,2.12,2.53,3.19
		c1.62,2.08,3.17,4.21,4.88,6.22c2.91,3.43,3.04,3.19,7.71,2.9C44.78,40.9,45.16,40.75,45.66,40.63z"/>
	<path class="st0" d="M46.95,57.08c2.5,3.64,2.9,4.94,2.89,9.37c0,2,0.02,4-0.38,5.97c-0.48,2.38-1.28,4.62-2.85,6.52
		c-0.55,0.67-1.22,1.26-1.89,1.82c-0.69,0.57-1.53,0.86-2.44,0.87c-1.12,0.02-2.23,0.03-3.32-0.3c-2.32-0.7-4.72-0.76-7.12-0.83
		c-1.29-0.04-2.54,0.15-3.78,0.55c-1.3,0.43-2.64,0.57-4.02,0.53c-1.99-0.06-3.51-0.84-4.58-2.57c-1.04-1.66-1.71-3.42-1.89-5.37
		c-0.06-0.64-0.03-1.29-0.17-1.91c-0.62-2.79,0.2-5.38,1.05-7.96c0.07-0.23,0.17-0.45,0.28-0.66c1.59-3.08,2.46-6.4,3.35-9.72
		c0.54-2,0.51-3.94-0.61-5.78c-1.94-3.21-3.78-6.47-6.24-9.35c-2.34-2.73-4.37-5.71-6.21-8.8c-0.37-0.62-0.63-1.29-0.94-1.94
		c-1-2.09-2.01-4.17-3.01-6.26c-0.28-0.58-0.57-1.14-0.81-1.74c-0.11-0.29-0.18-0.64-0.12-0.93c0.22-1.17,0.49-2.34,0.76-3.5
		c0.07-0.31,0.48-0.53,0.74-0.43c0.22,0.09,0.46,0.16,0.65,0.29c1.31,0.83,2.75,0.79,4.18,0.57c1.44-0.23,2.75-0.83,3.86-1.81
		c0.67-0.6,1.11-1.35,1.37-2.21c0.33-1.07,0.68-2.13,1.03-3.19c0.1-0.3,0.6-0.4,0.79-0.15c0.39,0.5,0.81,1,1.11,1.55
		c1.13,2.11,2.22,4.25,3.3,6.39c0.25,0.5,0.42,1.03,0.62,1.56c0.65,1.72,1.3,3.44,1.94,5.16c0.96,2.57,2.39,4.86,4.2,6.92
		c0.84,0.96,1.57,2.01,2.36,3.02c1.62,2.08,3.19,4.21,4.87,6.23c2.84,3.4,3.75,3.38,7.69,3.24c0.24-0.01,0.48-0.06,0.71-0.08
		c1.41-0.14,1.51-0.07,1.88,1.18c0.11,0.38,0.22,0.77,0.31,1.16c0.56,2.34,1.41,4.57,2.6,6.67c0.43,0.76,0.77,1.57,1.1,2.38
		c0.19,0.48,0.07,0.93-0.34,1.29c-0.47,0.43-0.97,0.84-1.37,1.33C48.11,56.7,47.27,56.42,46.95,57.08z M18.84,23.72
		c-0.03-0.39-0.14-0.75-0.47-1.01c-0.14-0.6-0.41-1.11-0.97-1.43c-0.04-0.49-0.32-0.85-0.64-1.19c-0.05-0.05-0.14-0.09-0.2-0.09
		c-0.19,0.03-0.23,0.15-0.11,0.33c0.26,0.38,0.52,0.76,0.99,0.91c0.13,0.61,0.41,1.11,0.97,1.43c0.03,0.39,0.17,0.74,0.46,1.01
		c0.14,0.59,0.4,1.1,0.98,1.39c0.03,0.39,0.17,0.74,0.45,1.02c0.37,0.85,0.53,1.84,1.47,2.33c0,0.6,0.03,1.2,0.73,1.74
		c-0.12-0.76-0.33-1.28-0.77-1.71c-0.2-0.96-0.65-1.76-1.47-2.33c-0.01-0.4-0.13-0.76-0.45-1.02
		C19.69,24.51,19.44,23.99,18.84,23.72z M28.79,61.53c-0.4,0.2-0.6,0.23-0.66,0.34c-0.14,0.27-0.3,0.58-0.3,0.88
		c0.02,2.45,0.07,4.89,0.13,7.34c0,0.15,0.09,0.3,0.17,0.44c0.03,0.05,0.14,0.08,0.21,0.07c0.07-0.01,0.17-0.06,0.18-0.11
		c0.32-1.16,0.16-2.34,0.12-3.51C28.6,65.25,28.55,63.52,28.79,61.53z M31.17,78.31c0.02-0.07,0.07-0.16,0.04-0.21
		c-0.5-0.98-0.99-1.95-1.52-2.91c-0.06-0.1-0.29-0.19-0.41-0.15c-0.1,0.03-0.24,0.25-0.22,0.36c0.24,1.18,0.74,2.23,1.69,3.02
		c0.05,0.04,0.16,0.06,0.23,0.04C31.05,78.44,31.11,78.36,31.17,78.31z"/>
</g>
</svg>
