<?xml version="1.0" encoding="utf-8"?>
<!-- Generator: Adobe Illustrator 24.1.2, SVG Export Plug-In . SVG Version: 6.00 Build 0)  -->
<svg version="1.1" id="Layer_1" xmlns="http://www.w3.org/2000/svg" xmlns:xlink="http://www.w3.org/1999/xlink" x="0px" y="0px"
	 width="286.1" height="452.26" viewBox="0 0 286.1 452.26" style="enable-background:new 0 0 286.1 452.26;" xml:space="preserve">
<style type="text/css">
	.st0{fill:#1A1A1A;}
</style>
<g>
	<path d="M76.7,89.28c-0.27-0.83-0.87-1.26-1.42-1.72c-1.61-1.34-3.01-2.85-4.25-4.53c-0.85-1.15-1.92-2.14-2.88-3.2
		c-0.54-0.59-1.1-1.16-1.58-1.8c-0.61-0.8-0.8-1.72-0.65-2.72c0.13-0.91,0.64-1.49,1.52-1.6c1.39-0.19,2.68-0.02,3.89,0.8
		c2.05,1.39,4.14,2.72,6.22,4.06c0.64,0.42,1.23,0.94,2,1.18c0.06-0.24,0.16-0.43,0.11-0.53c-1.61-3.15-2.48-6.57-3.76-9.84
		c-0.12-0.3-0.19-0.61-0.25-0.92c-0.16-0.87,0.29-1.64,1.14-1.83c1.18-0.27,2.37-0.31,3.52,0.21c1.03,0.47,1.98,1.04,2.75,1.89
		c1.03,1.12,1.95,2.3,2.59,3.71c1.33,2.9,2.79,5.75,3.87,8.82c0.79,0.52,1.83,0.59,2.49,1.36c1.25,1.45,2.53,2.88,3.32,4.66
		c1.34,3,2.49,6.06,3.02,9.32c0.27,1.66,0.48,3.32,0.62,4.99c0.11,1.36-0.14,2.71-0.55,4c-0.73,2.28-1.49,4.53-2.57,6.7
		c-1.57,3.14-2.86,6.41-3.66,9.86c-0.46,2.02-1.15,3.99-1.72,5.98c-0.04,0.14,0.02,0.31,0.03,0.46c0.27,0.18,0.41-0.06,0.52-0.2
		c1.04-1.32,2.12-2.61,3.08-3.98c1.69-2.44,3.47-4.79,5.59-6.87c0.4-0.39,0.8-0.76,0.8-1.41c0-0.43,0.35-0.71,0.64-0.98
		c0.87-0.82,1.75-1.64,2.65-2.42c0.84-0.73,1.75-1.4,2.43-2.27c-0.02-0.18,0-0.37-0.08-0.49c-0.26-0.4-0.24-0.77,0.12-1.04
		c0.58-0.43,1.19-0.8,1.8-1.18c0.34-0.21,0.7-0.38,0.9-0.49c0.4-0.45,0.07-0.94,0.64-1.35c0.72-0.11,1.66-0.26,2.61-0.4
		c0.24-0.03,0.52,0.05,0.71-0.05c1.83-0.9,3.76-0.37,5.64-0.43c0.56-0.02,1.13,0.05,1.67-0.05c1.83-0.33,3.28-1.25,4.11-2.97
		c0.25-0.51,0.54-0.96,0.89-1.4c1.16-1.49,1.37-3.23,1.03-5.01c-0.29-1.52-1.32-2.53-2.75-3.08c-0.29-0.11-0.63-0.13-0.94-0.12
		c-0.64,0.02-1.29,0.01-1.91,0.16c-2.27,0.53-4.44-0.03-6.62-0.5c-2.55-0.55-4.28-2.04-5.02-4.59c-0.04-0.15-0.13-0.29-0.19-0.43
		c-1.95-1.33-2.02-1.52-1.42-3.71c0.15-0.54,0.33-1.07,0.49-1.59c-0.3-0.47-0.83-0.48-1.27-0.62c-0.9-0.28-1.52-0.88-1.92-1.7
		c-0.28-0.57-0.53-1.17-0.71-1.78c-0.79-2.66-0.86-5.35-0.29-8.06c0.33-1.56,1.31-2.56,2.8-2.98c1.07-0.3,2.15-0.57,3.29-0.64
		c2.15-0.12,4.3-0.33,6.45-0.51c0.4-0.03,0.79-0.13,1.29-0.21c1.35-2.94,2.39-6.01,3.01-9.22c-0.61-0.84-1.41-1.35-2.17-1.92
		c-0.36,0.02-0.69,0-0.99,0.07c-1.95,0.47-3.8,0.01-5.65-0.54c-0.45-0.13-0.87-0.38-1.29-0.61c-0.42-0.23-0.62-0.7-0.48-0.98
		c0.17-0.34,0.48-0.37,0.8-0.38c1.21-0.02,2.39-0.19,3.55-0.52c0.45-0.13,0.87-0.36,1.22-0.5c0.22-0.46,0.02-0.72-0.13-0.99
		c-0.37-0.62-0.76-1.22-1.13-1.84c-0.58-0.95-1.01-2.06-1.78-2.82c-0.7-0.7-1.78-1.02-2.67-1.54c-0.54-0.32-1.11-0.63-1.49-1.18
		c-0.17-0.25-0.04-0.68,0.29-0.74c0.38-0.07,0.77-0.1,1.07-0.13c0.36-0.31,0.37-0.64,0.29-0.95c-0.47-1.99-0.28-3.95,0.04-5.94
		c0.42-2.61,0.96-5.18,1.67-7.73c0.26-0.93,0.58-1.83,1.18-2.6c0.19-0.24,0.45-0.43,0.64-0.61c0.88,0.14,1.26,0.79,1.73,1.32
		c1.31,1.5,2.63,3,3.95,4.51c0.58,0.67,1.28,1.19,2.02,1.76c0.45-0.61,0.87-1.15,1.6-1.36c-0.33-0.48-0.65-0.93-0.96-1.39
		c-0.85-1.27-1.42-2.66-1.91-4.11c-1.45-4.29-1.03-8.5,0.27-12.72c0.58-1.89,1.65-3.46,3.25-4.63c1.1-0.8,2.21-1.58,3.37-2.29
		c2.19-1.33,4.55-2.33,6.89-3.35c1.85-0.81,3.84-1.08,5.82-1.29c0.51-0.05,0.88,0.28,1.16,0.76c-0.13,0.22-0.21,0.46-0.37,0.59
		c-1.69,1.38-3.13,2.96-4.19,4.88c-0.46,0.83-1.01,1.62-1.51,2.44c-0.17,0.28,0.06,0.67,0.41,0.68c1.28,0.02,2.56,0.03,3.84,0.05
		c0.4,0.01,0.79,0.03,1.19,0.06c0.25,0.02,0.63,0.47,0.55,0.68c-0.08,0.2-0.25,0.46-0.43,0.51c-0.76,0.24-1.55,0.39-2.32,0.61
		c-1.15,0.34-2.31,0.65-3.43,1.08c-2.86,1.11-4.97,3.14-6.72,5.6c-0.52,0.73-0.76,1.58-0.87,2.46c-0.08,0.66,0.02,1.27,0.43,1.82
		c0.38,0.51,0.73,1.05,1.14,1.54c0.9,1.06,2.73,1.52,4.03,0.18c0.88-0.91,1.7-1.89,2.61-2.9c0.7,0.13,1.09,0.6,1.26,1.23
		c0.24,0.93,0.51,1.86,0.59,2.81c0.14,1.76,1.11,2.88,2.48,3.86c2.5,1.81,5.23,3.07,8.23,3.77c1.48,0.35,2.97,0.61,4.46,0.9
		c0.13,0.02,0.27-0.07,0.41-0.11c0.02-0.36-0.23-0.58-0.44-0.81c-1.13-1.25-2.45-2.29-3.77-3.34c-0.49-0.39-0.68-0.88-0.26-1.45
		c0.16,0.02,0.34,0,0.47,0.06c3.12,1.72,6.62,2.33,9.99,3.31c3.72,1.08,6.69-0.51,9.25-3.11c0.52-0.53,0.74-1.18,0.91-1.91
		c0.55-2.4,0.11-4.77-0.09-7.15c-0.04-0.46-0.26-0.93-0.5-1.33c-1.03-1.8-2.06-3.61-3.17-5.36c-0.81-1.29-1.52-2.63-2.08-4.04
		c-0.09-0.21-0.09-0.46-0.11-0.7c0-0.06,0.06-0.16,0.12-0.19c0.13-0.06,0.31-0.16,0.42-0.12c0.22,0.08,0.44,0.2,0.6,0.37
		c0.66,0.69,1.35,1.37,1.94,2.12c0.95,1.2,2.02,2.26,3.17,3.26c1.2,1.05,2.38,2.13,3.58,3.2c0.36,0.32,0.7,0.65,1.08,0.95
		c0.92,0.7,2.05,0.51,2.7-0.48c0.86-1.32,1.19-2.79,0.93-4.35c-0.13-0.79-0.37-1.56-0.59-2.32c-0.71-2.46-1.56-4.87-2.89-7.08
		c-0.11-0.19-0.13-0.44-0.18-0.63c0.36-0.4,0.76-0.37,1.1-0.12c1.16,0.85,2.3,1.72,3.43,2.61c1.61,1.26,2.75,2.9,3.49,4.79
		c0.72,1.86,1.55,3.68,2.04,5.63c0.32,1.25,0.52,2.49,0.38,3.79c-0.14,1.27-0.2,2.55-0.31,3.82c-0.18,2.26-0.97,4.36-1.83,6.43
		c-0.18,0.44-0.42,0.86-0.59,1.31c-0.07,0.2-0.12,0.47-0.05,0.65c0.11,0.26,0.42,0.2,0.64,0.13c0.76-0.25,1.51-0.51,2.26-0.79
		c2.1-0.79,4.24-1.42,6.44-1.85c1.56-0.31,3.11-0.73,4.66-1.11c1.39-0.34,2.14,0.19,2.25,1.63c0.08,1.04-0.04,2.08-0.25,3.1
		c-0.1,0.47-0.23,0.93-0.34,1.39c-0.73,3.27-1.47,6.54-2.19,9.82c-0.24,1.1-0.59,2.15-1.11,3.15c-0.18,0.34-0.42,0.86-0.28,1.12
		c0.5,0.92-0.1,1.5-0.49,2.17c-0.38,0.67-1,1.25-0.73,2.18c0.11,0.39-0.25,0.73-0.6,0.96c-1.06,0.72-2.11,1.44-3.17,2.15
		c-0.46,0.31-0.96,0.58-1.42,0.89c-0.19,0.13-0.46,0.3-0.5,0.5c-0.36,1.67-1.9,2.04-3.05,2.81c-0.72,0.48-1.59,0.69-2.06,1.54
		c-0.24,0.43-0.79,0.53-1.27,0.57c-1.43,0.11-2.87,0.23-4.3,0.29c-1.03,0.04-2.06,0.02-3.15,0.34c0.38,1.19,0.73,2.33,1.13,3.45
		c0.23,0.64,0.01,1.07-0.57,1.5c0.65,2.74,1.3,5.52,1.95,8.25c-0.96,1.41-0.97,1.41-1.17,2.87c-0.07,0.47-0.11,0.95-0.18,1.43
		c-0.08,0.51-0.35,0.66-1.08,0.54c-0.15-0.02-0.3-0.04-0.52-0.07c-0.95,0.97-1.09,2.43-1.95,3.51c-0.37,0.07-0.76,0.14-1.26,0.23
		c-0.8,1.2-1.64,2.46-2.48,3.72c-0.27,0.4-0.52,0.8-0.8,1.2c-0.35,0.5-0.79,0.52-1.16,0.05c-0.14-0.18-0.17-0.47-0.34-0.62
		c-0.15-0.14-0.45-0.25-0.62-0.19c-0.91,0.32-1.77,0.8-2.39,1.54c-0.59,0.71-1.25,0.47-1.92,0.34c-0.85,0.53-1.02,1.67-1.94,1.96
		c-0.62,2.24-0.47,4.38-0.2,6.53c0.16,1.28,0.59,2.47,1.3,3.57c0.64,1,1.33,1.82,2.68,1.52c3.59,0.92,7.3,0.78,10.95,1.22
		c0.48,0.06,0.96,0.07,1.43,0.17c0.39,0.08,0.76,0.23,1.13,0.38c0.53,0.23,0.57,0.66,0.13,1.11c-0.16,0.17-0.34,0.32-0.59,0.55
		c0.65,0.65,1.49,0.9,2.22,1.34c0.69,0.41,1.39,0.79,2.06,1.23c0.73,0.48,1.49,0.93,1.94,1.45c0.34,0.64-0.16,0.9-0.21,1.4
		c1.33,2.06,2.72,4.2,4.11,6.34c0.17,0.27,0.4,0.51,0.52,0.8c0.67,1.57,1.7,2.88,2.78,4.17c0.15,0.18,0.25,0.41,0.03,0.62
		c-0.19,0.18-0.43,0.18-0.66,0.06c-0.14-0.07-0.28-0.15-0.42-0.22c-0.07-0.03-0.18-0.09-0.22-0.06c-0.11,0.07-0.3,0.23-0.28,0.27
		c0.26,0.58,0.55,1.15,0.82,1.73c1,2.18,2.02,4.35,2.27,6.79c0.06,0.45-0.35,0.64-0.67,1.06c0.1,0.91,0.24,1.93,0.31,2.96
		c0.07,1.04,0.09,2.08,0.11,3.12c0.01,0.72-0.01,1.43-0.05,2.15c-0.07,1.2-0.07,2.4,0.1,3.59c0.2,1.34,0.36,2.69,0.58,4.03
		c0.36,2.23,0.27,4.46,0.06,6.7c-0.11,1.11-0.28,2.2,0.01,3.33c0.13,0.52,0.04,1.12-0.04,1.66c-0.24,1.53,0.05,3.03,0.25,4.53
		c0.04,0.3,0.18,0.63,0.37,0.86c0.5,0.6,0.64,1.28,0.52,2.02c-0.23,1.42,0.2,2.87-0.22,4.29c-0.08,0.27,0.1,0.62,0.18,0.93
		c0.56,2.02,0.77,4.07,0.57,6.17c-0.14,1.43-0.21,2.87-0.27,4.3c-0.02,0.55,0.09,1.11,0.08,1.67c-0.01,0.3-0.04,0.69-0.23,0.89
		c-0.45,0.48-0.46,1.01-0.33,1.56c0.73,3.22,0.75,6.5,0.92,9.77c0.15,2.95,0.31,5.9,0.53,8.85c0.19,2.63,0.28,5.26,0.18,7.9
		c-0.12,3.44,0.17,6.87,0.68,10.27c0.19,1.28,0.75,2.4,1.64,3.4c1.45,1.63,3.11,2.99,4.93,4.16c1.21,0.78,2.43,1.54,3.64,2.31
		c0.54,0.35,1.09,0.67,1.77,0.61c0.75-0.07,1.41,0.27,2.07,0.53c1.04,0.4,2.09,0.82,3.08,1.33c2.92,1.5,5.96,2.71,9.01,3.91
		c1.04,0.41,2.07,0.84,2.96,1.55c0.63,0.51,1.19,1.07,1.52,1.82c0.48,1.1,0.98,2.19,1.42,3.3c0.2,0.51,0.36,1.07,0.41,1.62
		c0.09,1.12,0.27,2.31-0.95,2.77c0,0.87,0.02,1.51-0.01,2.14c-0.03,0.7-0.41,1.21-1.05,1.47c-1.76,0.71-3.45,0.65-4.95-0.63
		c-0.6-0.52-1.17-1.09-1.66-1.71c-1.13-1.45-2.21-2.94-3.31-4.41c-0.81-1.07-1.92-1.59-3.48-1.64c0.26,0.54,0.83,0.68,1.27,0.99
		c0.6,0.41,1.1,0.92,1.48,1.55c0.6,1.01,0.14,2.38-0.97,2.78c-0.44,0.16-0.93,0.23-1.4,0.28c-1.95,0.2-3.82-0.2-5.66-0.79
		c-1.68-0.54-3.3-1.2-4.87-2.01c-1.7-0.88-3.43-1.74-5.28-2.26c-0.93-0.26-1.63-1.01-2.62-1.14c-0.87-0.11-1.73-0.31-2.59-0.46
		c-1.81-0.32-3.59-0.8-5.31-1.45c-0.24,0.07-0.48,0.12-0.69,0.21c-0.56,0.24-1.1,0.2-1.58-0.17c-0.38-0.29-0.79-0.57-1.1-0.92
		c-1.63-1.82-2.84-3.87-3.21-6.32c-0.19-1.26-0.28-2.54-0.39-3.81c-0.04-0.47-0.06-1,0.32-1.36c0.46-0.43,0.51-0.96,0.54-1.53
		c0.18-2.87,0.29-5.75,0.05-8.63c-0.06-0.71-0.14-1.43-0.29-2.13c-0.49-2.35-1.18-4.64-2.03-6.89c-0.09-0.22-0.17-0.45-0.26-0.67
		c-0.09-0.22-0.48-0.44-0.57-0.33c-0.09,0.11-0.22,0.23-0.23,0.36c-0.11,2.18-0.54,4.28-1.41,6.28c-0.12,0.27-0.21,0.66-0.12,0.91
		c0.32,0.85-0.04,1.56-0.34,2.3c-0.53,1.33-1.23,2.59-1.99,3.81c0.15,0.26,0.25,0.47,0.39,0.65c0.21,0.28,0.29,0.6,0.09,0.88
		c-1.74,2.39-3.48,4.78-5.27,7.14c-0.52,0.69-1.2,1.26-1.78,1.86c-0.01,0.12-0.04,0.21-0.03,0.28c0.19,0.82,0.16,0.99-0.25,1.19
		c-1.73,0.85-3.51,1.55-5.38,2.01c-2.92,0.72-5.84,0.83-8.78,0.12c-0.45-0.11-0.95-0.1-1.42-0.07c-0.19,0.01-0.45,0.22-0.52,0.4
		c-0.11,0.29-0.11,0.63-0.1,0.95c0.05,2.97-0.55,5.88-0.82,8.82c-0.01,0.08-0.03,0.16-0.05,0.24c-0.07,0.34-0.44,0.52-0.72,0.31
		c-0.32-0.23-0.61-0.49-0.91-0.73c-0.43,0.08-0.41,0.45-0.5,0.71c-0.31,0.91-0.57,1.83-0.87,2.74c-0.67,2.07-1.63,3.99-2.98,5.71
		c-0.59,0.76-1.2,1.5-1.7,2.32c-0.43,0.7-1.05,0.87-1.84,0.95c-1.86,3.31-4.37,6.24-6.03,9.63c-0.32-0.03-0.49-0.02-0.64-0.06
		c-0.84-0.21-0.87-0.21-1.2,0.31c-1.43,2.22-2.83,4.46-3.33,7.12c-0.11,0.57-0.44,0.83-1.03,0.61c-0.26-0.1-0.49,0.03-0.61,0.23
		c-0.31,0.47-0.56,0.96-0.85,1.44c-0.36,0.6-0.54,1.37-1.47,1.4c-0.16,0.01-0.31,0.32-0.46,0.49c-0.25,0.3-0.43,0.76-0.75,0.9
		c-0.98,0.43-1.38,1.28-1.85,2.12c-0.74,1.32-1.51,2.64-2.25,3.96c-1.73,3.08-3.77,5.93-6.06,8.62c-1.4,1.64-2.75,3.32-4.09,5.02
		c-1.69,2.13-3.34,4.29-4.99,6.41c-0.08,13.17-0.62,11.85-2.29,19.51c0.14,0.13,0.3,0.3,0.48,0.44c0.79,0.66,0.83,0.7,0.49,1.59
		c-0.28,0.75-0.58,1.49-0.94,2.2c-1.1,2.13-2.24,4.24-3.37,6.36c-1.32,2.47-2.56,4.98-3.55,7.6c-0.59,1.57-1.38,3.05-2.14,4.55
		c-1.45,2.84-2.96,5.67-4.22,8.6c-1.96,4.58-4.61,8.76-7.23,12.97c-0.33,0.54-0.8,0.99-1.17,1.51c-1.02,1.43-2.03,2.87-3.05,4.3
		c-0.24,0.34-0.35,0.7-0.37,1.12c-0.02,0.5,0,0.95,0.49,1.25c0.69,0.43,0.64,1.04,0.34,1.68c-0.45,0.94-0.94,1.85-1.38,2.79
		c-0.27,0.58-0.49,1.18-0.75,1.82c0.48,0.29,0.93,0.57,1.3,0.8c0.28,0.72-0.05,1.2-0.28,1.7c-0.95,2.03-1.91,4.05-2.86,6.07
		c-0.16,0.35-0.28,0.71-0.44,1.11c0.3,0.14,0.52,0.23,0.72,0.34c0.85,0.48,0.96,0.83,0.41,1.46c-2.9,3.42-5.95,6.69-9.54,9.41
		c-1.72,1.3-3.45,2.6-5.12,3.97c-1.29,1.06-2.57,2.16-3.7,3.4c-1.56,1.71-3.08,3.45-4.45,5.33c-2.03,2.79-3.51,5.87-5.07,8.91
		c-0.22,0.42-0.51,0.85-0.57,1.31c-0.16,1.28-1.28,2-1.7,3.13c-0.07,0.18-0.34,0.33-0.55,0.4c-1.21,0.42-2.02,1.61-3.38,1.72
		c-0.47,0.04-0.97,0.1-1.42,0.01c-0.37-0.07-0.69-0.36-1.1-0.59c-0.91,0.62-1.53,1.61-2.54,2.13c-0.24,0.12-0.38,0.5-0.5,0.79
		c-0.87,1.95-2.27,3.46-3.98,4.7c-3.28,2.38-7.01,3.78-10.8,5.07c-2.84,0.96-5.77,1.22-8.71,1.43c-0.16,0.01-0.32,0.01-0.48,0.01
		c-1.58,0-2.33-1.02-1.8-2.55c0.23-0.67,0.6-1.3,0.94-1.93c1.28-2.39,2.58-4.78,3.85-7.12c-0.27-0.31-0.49-0.27-0.71-0.14
		c-2.58,1.51-5.44,2.29-8.3,3.05c-0.3,0.08-0.63,0.12-0.94,0.11c-0.34-0.01-0.58-0.25-0.74-0.53c-0.08-0.13-0.1-0.3-0.12-0.46
		c-0.27-2-0.25-3.99,0.19-5.96c0.22-1.01,0.47-2.02,0.73-3.03c0.33-1.32,0.78-2.6,1.53-3.76c0.39-0.6,0.75-1.24,1.02-1.9
		c0.58-1.44,1.54-2.61,2.6-3.7c1.83-1.9,3.74-3.72,5.95-5.2c0.99-0.66,0.97-0.7,1.31-2.13c-0.35-0.14-0.72-0.25-1.06-0.42
		c-0.3-0.15-0.38-0.56-0.22-0.83c0.47-0.77,1.11-1.37,1.84-1.87c1.18-0.82,2.35-1.67,3.61-2.37c2.17-1.21,4.17-2.69,6.14-4.18
		c3.25-2.46,6.36-5.11,9.22-8.03c1.51-1.54,2.95-3.15,4.38-4.76c0.47-0.53,0.83-1.17,1.2-1.79c1.38-2.34,2.74-4.69,4.12-7.03
		c0.52-0.89,1.06-1.78,1.61-2.66c1.72-2.73,2.73-5.77,3.77-8.79c0.96-2.79,1.83-5.62,2.58-8.48c0.55-2.08,0.88-4.22,1.23-6.35
		c0.5-3.01,1.54-5.87,2.34-8.79c0.13-0.46,0.47-0.62,0.92-0.53c0.5,0.09,0.76-0.19,0.9-0.59c1.6-4.53,3.67-8.85,5.94-12.88
		c0.03-1.02-1.12-0.8-1.14-1.75c-0.01,0.05-0.02-0.12,0.06-0.24c1.92-2.69,3.07-5.78,4.46-8.74c0.75-1.59,1.29-3.27,2.02-4.87
		c0.6-1.3,1.3-2.57,2.03-3.81c0.89-1.52,1.92-2.95,2.35-4.7c0.05-0.22,0.18-0.46,0.35-0.62c0.5-0.5,0.57-1.12,0.6-1.76
		c0.01-0.16,0.02-0.32,0.01-0.48c-0.13-2.73,0.34-5.42,0.58-8.12c0.26-3.03,0.74-6.03,1.04-9.05c0.66-6.69,2.14-13.24,3.33-19.84
		c0.21-1.18,0.46-2.35,0.67-3.53c0.36-2.06,0.98-4.03,1.75-5.97c0.12-0.3,0.23-0.6,0.38-0.88c0.49-0.88,1.39-1.49,1.45-2.68
		c0.05-1.02,0.83-1.9,0.86-2.97c1.01-2.61,2.01-5.21,3.03-7.82c0.26-0.67,0.55-1.32,0.81-1.99c0.11-0.29-0.14-0.69-0.44-0.71
		c-0.48-0.02-0.96-0.05-1.44-0.04c-4.4,0.08-8.79-0.26-13.17-0.63c-2.46-0.21-4.92-0.63-7.35-1.11c-2.67-0.53-5.38-0.8-8.07-1.13
		c-1.27-0.16-2.54-0.25-3.8-0.51c-0.52-0.11-1.08-0.31-1.61,0.06c0.06,0.71,0.63,1.09,1.05,1.53c1.55,1.62,3.03,3.29,4.35,5.11
		c0.46,0.64,0.99,1.21,0.84,2.15c-0.06,0.4,0.35,0.87,0.53,1.3c1.14,2.64,2.27,5.28,3.4,7.93c0.13,0.3,0.16,0.62-0.03,0.92
		c-0.17,0.28-0.29,0.57-0.16,0.9c1.32,3.21,1.67,6.65,2.29,10.03c0.07,0.41,0.19,0.77,0.65,0.99c0.64-0.39,1.32-0.79,1.9-1.14
		c1.07,0.09,1.1,0.95,1.51,1.61c0.26-0.15,0.52-0.31,0.78-0.45c0.86-0.45,1.59-0.11,1.75,0.84c0.05,0.31,0.1,0.64,0.1,0.95
		c-0.01,0.69,0.21,1.24,0.77,1.67c0.41,0.31,0.51,0.79,0.57,1.28c0.01,0.08,0.02,0.16,0.02,0.24c0.01,4.32,0.62,8.61,0.55,12.93
		c-0.01,0.66-0.14,1.26-0.38,1.86c-0.59,1.48-1.16,2.97-1.62,4.5c-0.36,1.21-1.01,2.34-1.54,3.51c-0.43,0.94-0.91,1.87-1.3,2.83
		c-0.87,2.15-1.86,4.24-3.13,6.2c-0.43,0.67-0.78,1.4-1.19,2.08c-0.2,0.33-0.42,0.75-0.74,0.91c-0.98,0.49-1.25,1.4-1.56,2.31
		c-0.39,1.15-0.54,2.34-0.56,3.54c-0.02,1.29-0.18,2.55-0.47,3.8c-0.32,1.35-0.89,2.57-2.04,3.43c-0.39,0.3-0.79,0.51-1.32,0.31
		c-0.36-0.14-0.65,0.12-0.71,0.44c-0.27,1.32-0.79,2.6-0.45,4c0.09,0.38,0.08,0.8,0.05,1.19c-0.23,2.95-0.29,5.92-0.87,8.82
		c-0.61,3.05-2.03,5.72-4.34,7.84c-1.65,1.52-3.56,2.71-5.49,3.85c-1.33,0.79-2.83,1.07-4.33,1.33c-0.41,0.07-0.81-0.17-1.01-0.52
		c-0.28-0.47-0.46-1-0.69-1.51c-0.61-0.32-1,0.35-1.56,0.33c-0.56-0.02-1.12,0.04-1.68,0.03c-1.28-0.02-1.61-0.28-2.08-1.55
		c-0.17-0.45-0.32-0.91-0.44-1.37c-0.62-2.23-1.23-4.46-2.13-6.61c-0.64-1.5-0.61-3.12-0.53-4.73c0.04-0.79,0.23-1.57-0.21-2.34
		c-0.14-0.24-0.06-0.63-0.01-0.94c0.18-1.1,0.38-2.2,0.61-3.3c0.22-1.08,0.81-2.09,0.51-3.27c-0.07-0.27,0.1-0.62,0.21-0.92
		c0.97-2.45,1.67-5,2.88-7.36c0.04-0.07,0.1-0.14,0.11-0.21c0.06-1.24,0.7-2.24,1.29-3.28c0.6-1.04,1.15-2.1,1.69-3.17
		c0.84-1.64,1.71-3.26,2.46-4.93c1.02-2.25,1.94-4.55,2.83-6.64c0.06-0.67-0.36-0.9-0.49-1.26c-0.15-0.4-0.02-0.79,0.12-1.16
		c0.8-2.11,1.95-4.03,3.25-5.85c0.88-1.23,1.89-2.37,2.84-3.56c0.45-0.56,0.91-1.11,1.32-1.7c0.31-0.45,0.25-0.93-0.14-1.3
		c-0.87-0.83-1.72-1.67-2.63-2.45c-1.22-1.05-2.31-2.2-3.39-3.38c-2.7-2.95-5.32-5.96-7.84-9.08c-1.05-1.3-2.19-2.54-3.55-3.56
		c-0.96-0.73-1.77-1.6-2.46-2.6c-0.77-1.11-1.85-1.99-2.45-3.24c-0.16-0.34-0.53-0.59-0.84-0.84c-1.09-0.85-1.89-1.93-2.65-3.07
		c-1.16-1.72-2.23-3.51-3.59-5.09c-0.51-0.6-0.84-1.35-1.23-2.05c-0.98-1.74-1.9-3.52-2.92-5.24c-0.9-1.51-1.83-3.01-2.88-4.42
		c-2.16-2.9-3.94-6.02-5.42-9.3c-0.56-1.24-1.13-2.46-1.82-3.64c-0.89-1.53-1.32-3.26-1.6-5c-0.19-1.19-0.06-2.39,0.42-3.53
		c0.16-0.37,0.42-0.73,0.44-1.11c0.08-1.3,0.92-1.96,1.9-2.57c0.68-0.42,1.34-0.88,1.99-1.33c0.26-0.18,0.62-0.36,0.7-0.62
		c0.43-1.31,1.61-1.71,2.65-2.25c3.84-1.98,7.86-3.56,11.91-5.06c0.89-0.33,1.81-0.61,2.79-0.66c0.55-0.03,1.09-0.21,1.63-0.35
		c2.87-0.73,5.74-1.43,8.59-2.21c1.1-0.3,2.19-0.48,3.31-0.33c0.97,0.13,1.92,0.05,2.85-0.18c2.42-0.57,4.87-0.78,7.36-0.88
		c3.59-0.15,7.19-0.33,10.73-1.03c0.78-0.15,1.57-0.23,2.32-0.34c0.17-0.51,0.28-0.96,0.93-0.92c4.07,0.25,8.12,0.63,12.09,1.68
		c0.39,0.1,0.78,0.19,1.17,0.25c0.42,0.06,0.79-0.07,1.06-0.41c0.55-0.69,1.11-1.36,1.62-2.08c2.91-4.11,5.75-8.26,8.4-12.55
		c1.56-2.52,3.52-4.76,5.71-6.76c0.85-0.77,1.44-1.66,1.99-2.65c2.19-4,3.15-8.35,3.79-12.8c0.39-2.69,0.65-5.39,1.09-8.07
		c0.28-1.73,0.77-3.43,1.16-5.14c0.18-0.78,0.34-1.56,0.5-2.34c0.01-0.06-0.05-0.17-0.11-0.2c-0.13-0.07-0.27-0.12-0.41-0.15
		c-0.07-0.01-0.15,0.05-0.22,0.09c-2.29,1.47-4.5,3.07-6.44,4.98c-1.42,1.4-2.73,2.92-4.02,4.44c-2.71,3.19-5.76,5.99-9.27,8.27
		c-0.4,0.26-0.81,0.51-1.23,0.74c-2.38,1.31-4.78,2.58-7.15,3.92c-2.26,1.28-4.68,1.54-7.19,1.3c-0.84-0.08-1.12-0.78-1.3-1.51
		c-0.96-0.4-1.92-0.79-2.86-1.21c-0.37-0.16-0.77-0.42-0.82-0.82c-0.12-1-0.8-1.73-1.15-2.61c-0.09-0.22-0.13-0.45-0.19-0.66
		c0.29-0.4,0.75-0.25,1.19-0.45c0.63-2.11,0.9-4.35,0.65-6.56c-0.22-1.94-0.12-3.83,0.15-5.72c0.15-1.06-0.25-2.04-0.11-3.09
		c0.12-0.93,0.15-1.92-0.39-2.6c0.08-0.28,0.08-0.37,0.12-0.43c1.81-2.55,3.28-5.29,4.65-8.09c0.7-1.44,1.42-2.87,2.05-4.33
		c1.18-2.72,2.54-5.34,4.14-7.83c1.04-1.62,1.9-3.29,2.56-5.12c0.78-2.17,1.81-4.26,3.1-6.2c1.06-1.59,2.02-3.26,3.1-4.85
		c0.98-1.45,1.05-2.96,0.6-4.57c-0.43-1.54-0.92-3.06-1.62-4.51c-0.56-1.16-1.21-2.23-2.28-3.03c-0.82-0.62-1.53-1.4-2.26-2.13
		c-1.5-1.48-1.81-3.35-0.88-5.27c0.24-0.5,0.52-0.99,0.83-1.46C76.14,89.95,76.45,89.6,76.7,89.28z M165.87,150.53
		c-0.63,0.02-0.89,0.13-0.95,0.41c-0.07,0.31-0.12,0.62-0.16,0.94c-0.35,2.62-0.88,5.2-2.02,7.61c-0.24,0.5-0.41,1.01-1.05,1.2
		c-0.4,0.12-0.55,0.57-0.66,0.95c-0.41,1.31-0.99,2.54-1.7,3.7c-1.9,3.14-3.57,6.43-5.89,9.31c-0.57,0.71-0.9,1.44-0.73,2.42
		c0.14,0.87-0.25,1.73-0.52,2.56c-0.91,2.82-1.44,5.72-1.87,8.65c-0.43,2.92-0.97,5.83-1.53,8.73c-0.14,0.75-0.24,1.58-1.04,2.07
		c-0.23,0.14-0.35,0.52-0.44,0.82c-0.38,1.3-0.79,2.6-1.09,3.92c-0.34,1.51-0.28,2.72,0.04,4.32c0.9,0.32,1.84,0.13,2.79,0.06
		c0.83-0.06,1.57-0.29,2.22-0.79c3.32-2.52,6.49-5.23,8.82-8.74c2.16-3.26,4.32-6.54,5.84-10.17c0.3-0.72,0.77-1.17,1.49-1.52
		c-0.17-0.86-0.26-1.74-0.51-2.57c-0.38-1.24-0.5-2.5-0.57-3.78c-0.07-1.2-0.14-2.39-0.19-3.59c-0.02-0.49-0.1-0.96-0.48-1.31
		c-0.57-0.51-0.49-1.13-0.31-1.77c0.33-1.15,0.69-2.29,0.99-3.46c0.16-0.61,0.26-1.25,0.28-1.88c0.03-1.44,0.04-2.88,0.31-4.3
		c0.06-0.31,0.08-0.64,0.05-0.95c-0.16-1.67-0.32-3.34-0.54-5c-0.25-1.91-0.4-3.81-0.4-5.74
		C166.03,151.95,166.16,151.22,165.87,150.53z"/>
	<path class="st0" d="M106.51,128.15c0.6-1.58,1.52-2.8,2.33-4.07c0.51-0.81,1.04-1.61,1.52-2.44c0.32-0.56-0.07-1.03-0.81-0.99
		c-0.16,0.01-0.31,0.08-0.47,0.1c-0.07,0.01-0.15-0.02-0.22-0.03c-0.19-0.25-0.03-0.44,0.12-0.61c2.08-2.43,4.21-4.82,6.77-6.77
		c1.14-0.87,2.24-1.78,3.18-2.9c0.55-0.67,1.3-1.18,2-1.71c1.04-0.77,1.89-1.71,2.63-2.76c1.11-1.56,2.27-3.09,3.43-4.62
		c0.08-0.1,0.28-0.12,0.43-0.18c0.58,0.4,0.39,1.19,0.83,1.66c0.05,0.05,0.16,0.1,0.2,0.08c0.12-0.07,0.28-0.16,0.31-0.27
		c0.12-0.56-0.02-1.11-0.19-1.65c-0.43-1.38-0.68-2.79-0.57-4.25c0.08-1.14-0.13-2.22-0.63-3.26c-0.17-0.35-0.42-0.69-0.29-1.19
		c0.17-0.08,0.37-0.24,0.58-0.25c2-0.08,4-0.13,5.99,0.18c2.14,0.33,4.28,0.54,6.44,0.59c0.48,0.01,0.96,0.06,1.43,0.12
		c0.36,0.04,0.75,0.45,0.77,0.81c0.03,0.39,0.05,0.8,0,1.19c-0.27,2.21,0.34,4.28,1.06,6.33c0.27,0.76,0.7,1.44,1.24,2.03
		c0.27,0.3,0.55,0.58,0.81,0.89c1.96,2.36,3.56,4.87,4.3,7.93c0.59,2.41,1.05,4.84,1.48,7.28c0.49,2.77,0.67,5.55,0.47,8.35
		c-0.07,0.96-0.08,1.92-0.09,2.88c-0.01,1.21-0.21,2.39-0.5,3.55c-0.13,0.54-0.28,1.08-0.36,1.63c-0.15,1.12-0.49,2.18-0.99,3.19
		c-0.5,1.01-0.79,2.07-1.02,3.18c-0.49,2.35-1.4,4.58-2.23,6.83c-0.14,0.37-0.4,0.72-0.46,1.1c-0.39,2.34-1.69,4.3-2.55,6.45
		c-0.15,0.37-0.35,0.73-0.59,1.04c-1.2,1.49-2.43,2.97-3.65,4.44c-0.36,0.43-0.72,0.85-1.09,1.28c-1.08,1.26-1.61,2.71-1.7,4.38
		c-0.1,1.99-0.25,3.99-0.48,5.97c-0.31,2.62-0.72,5.22-1.11,7.83c-0.06,0.39-0.19,0.78-0.33,1.14c-0.83,2.09-1.78,4.11-3.07,5.95
		c-1.1,1.57-2.12,3.2-3.02,4.9c-0.41,0.77-0.93,1.49-1.41,2.23c-0.48,0.74-1.05,1.43-1.44,2.21c-1.02,2.05-2.5,3.67-4.21,5.16
		c-1.39,1.2-2.68,2.51-4.02,3.77c-0.35,0.33-0.66,0.76-1.07,0.94c-1.29,0.57-2.17,1.62-3.18,2.51c-0.9,0.79-1.79,1.6-2.65,2.43
		c-1.45,1.4-3.06,2.55-4.87,3.45c-2.55,1.28-4.51,3.28-6.25,5.5c-0.39,0.49-0.68,1.09-0.88,1.69c-0.39,1.13-0.68,2.29-1,3.44
		c-0.2,0.69-0.31,1.42-0.59,2.07c-0.72,1.69-1.41,3.38-2.01,5.12c-0.54,1.58-1.57,2.96-2.68,4.23c-0.47,0.54-1.08,0.68-1.74,0.43
		c-0.82-0.31-1.63-0.64-2.44-1c-0.76-0.34-1.31-0.91-1.7-1.63c-0.42-0.77-0.84-1.55-1.18-2.36c-0.46-1.06-0.43-2.18-0.24-3.3
		c0.12-0.71,0.29-1.41,0.47-2.11c0.45-1.79,0.41-1.85,1.89-3.21c1.17-1.08,1.67-2.45,1.55-3.87c-0.29-3.25,0.35-6.37,0.97-9.49
		c0.59-2.98,1.01-5.98,1.33-9c0.15-1.43,0.35-2.86,0.6-4.27c0.37-2.12,0.8-4.24,1.21-6.36c0.32-1.65,0.68-3.28,1.31-4.85
		c0.45-1.11,0.76-2.27,1.06-3.43c0.35-1.33,0.85-2.57,1.68-3.68c0.24-0.32,0.55-0.66,0.59-1.02c0.15-1.31,0.83-2.41,1.29-3.6
		c1.07-2.78,1.66-5.67,2.17-8.58c0.3-1.73,0.52-3.48,0.78-5.22c0.06-0.4,0.17-0.79,0.18-1.18c0.06-2.58,0.68-5.06,1.34-7.54
		c0.45-1.71,0.75-3.44,0.91-5.19c0.07-0.79,0.15-1.63-0.03-2.38c-0.24-0.99-0.06-1.88,0.14-2.83c0.43-1.95,0.69-3.94,1.39-5.82
		c0.1-0.28,0.17-0.73,0.02-0.92c-0.68-0.83-0.18-1.49,0.18-2.2c0.54-1.07,1.12-2.12,1.55-3.24
		C107.8,129.35,107.94,129.09,106.51,128.15z M127.28,113.51c0.06-0.03,0.13-0.04,0.18-0.08c0.03-0.03,0.03-0.1,0.04-0.14
		c-0.06,0.09-0.12,0.17-0.18,0.26c-0.06,0.04-0.13,0.06-0.18,0.11c-0.03,0.03-0.02,0.1-0.03,0.16
		C127.17,113.71,127.22,113.61,127.28,113.51z M128.57,161.24c0.57,0.53,1.13,1.06,1.71,1.58c0.11,0.09,0.28,0.13,0.43,0.16
		c0.06,0.01,0.14-0.04,0.19-0.1c0.04-0.05,0.08-0.15,0.06-0.19c-0.46-0.85-1.24-1.35-2.04-1.83c-1.48-1.44-3.04-2.78-4.85-3.79
		c-0.11-0.08-0.21-0.21-0.33-0.23c-0.11-0.02-0.24,0.08-0.35,0.14c-0.01,0.01,0.02,0.14,0.06,0.18c0.1,0.09,0.22,0.16,0.33,0.24
		C125.38,158.69,126.97,159.96,128.57,161.24z M118.61,135.19c0,0.27,0.05,0.59-0.01,0.9c-0.12,0.7-0.3,1.39-0.45,2.09
		c-0.28,1.32-0.56,2.63-0.82,3.95c-0.02,0.1,0.13,0.33,0.24,0.35c0.12,0.02,0.27-0.11,0.4-0.19c0.06-0.04,0.12-0.12,0.14-0.19
		c0.74-3.01,1.51-6,2.17-9.02c0.17-0.77,0.27-1.55,0.59-2.29c0.16-0.36,0.34-0.74,0.36-1.12c0.04-0.75,0.35-1.37,0.69-2.01
		c0.17-0.33,0.44-0.66,0.23-1.09c-0.11-0.23-0.59,0.13-0.98,0.79c-0.29,0.48-0.7,0.95-0.78,1.46c-0.24,1.6-1.03,2.99-1.61,4.46
		C118.54,133.9,118.38,134.5,118.61,135.19z M135.61,146.45c0.05-0.01,0.36-0.05,0.67-0.11c0.64-0.13,1.02-0.75,0.9-1.43
		c-0.12-0.67-0.48-1.15-1.12-1.4c-0.76-0.3-1.53-0.3-2.3-0.02c-0.34,0.12-0.61,0.52-0.62,0.91c-0.02,1.32,0.51,1.94,1.74,2.04
		C135.03,146.46,135.19,146.45,135.61,146.45z M108.77,143.88c0.56,0,1.11-0.03,1.63-0.31c0.72-0.39,0.85-1.61,0.15-2.02
		c-0.82-0.5-1.72-0.85-2.72-0.72c-0.33,0.04-0.61,0.24-0.71,0.56C106.72,142.58,107.26,143.93,108.77,143.88z M139.45,97.12
		c-0.1-0.1-0.16-0.21-0.2-0.2c-0.15,0.02-0.35,0.04-0.42,0.14c-1.62,2.28-2.97,4.72-3.98,7.33c-0.05,0.14-0.02,0.32,0,0.47
		c0.01,0.07,0.08,0.17,0.14,0.19c0.13,0.04,0.3,0.08,0.41,0.03c0.13-0.06,0.26-0.19,0.33-0.33c1.22-2.33,2.43-4.67,3.62-7.01
		C139.46,97.56,139.43,97.3,139.45,97.12z M143.9,107.82c-0.04-0.27-0.22-0.41-0.47-0.45c-1.93-0.25-3.82-0.02-5.67,0.52
		c-0.1,0.03-0.22,0.26-0.19,0.37c0.02,0.1,0.23,0.22,0.35,0.22c1.91-0.1,3.82-0.21,5.73-0.33
		C143.74,108.14,143.82,107.93,143.9,107.82z M111.61,155.55c-0.69-0.45-1.07-0.31-1.43-0.18c-1.12,0.41-2.23,0.85-3.33,1.29
		c-0.44,0.18-0.88,0.36-1.3,0.59c-0.28,0.15-0.51,0.37-0.76,0.57c-0.05,0.04-0.09,0.17-0.06,0.21c0.08,0.1,0.24,0.28,0.3,0.25
		C107.14,157.41,109.25,156.53,111.61,155.55z M109.98,185.56c-0.06-0.06-0.11-0.16-0.17-0.16c-0.14-0.02-0.35-0.05-0.43,0.02
		c-0.57,0.59-0.85,1.33-1.04,2.1c-0.03,0.11,0.09,0.32,0.19,0.38c0.11,0.06,0.34,0.04,0.43-0.05c0.54-0.5,0.88-1.13,1.06-1.83
		C110.05,185.88,109.99,185.71,109.98,185.56z M123.76,108.69c0.69-0.13,1.33-0.39,1.88-0.87c0.05-0.05,0.12-0.18,0.1-0.2
		c-0.09-0.1-0.24-0.27-0.32-0.25c-0.68,0.17-1.39,0.32-1.83,0.95c-0.03,0.05-0.04,0.15-0.01,0.2
		C123.6,108.58,123.68,108.62,123.76,108.69z"/>
	<path class="st0" d="M14.21,422.2c-0.14-0.07-0.27-0.16-0.42-0.21c-0.82-0.31-0.93-0.48-0.61-1.15c0.56-1.15,1.18-2.27,1.51-3.51
		c0.18-0.69,0.42-1.38,0.5-2.08c0.08-0.72,0.44-1.17,1-1.53c0.54-0.35,1.07-0.71,1.62-1.03c5.62-3.29,10.55-7.48,15.24-11.94
		c1.9-1.81,3.58-3.87,5.33-5.84c0.42-0.47,0.72-1.05,1.04-1.61c0.91-1.6,1.77-3.22,2.69-4.81c0.96-1.66,1.85-3.34,3.03-4.87
		c0.87-1.13,1.51-2.44,2.22-3.69c0.19-0.34,0.33-0.73,0.42-1.11c0.48-1.93,1.38-3.55,3.17-4.58c0.5-0.28,0.8-0.76,1.1-1.24
		c0.25-0.39,0.38-0.89,0.91-1.02c0.28,0.1,0.25,0.36,0.34,0.57c0.26,0.65,0.49,0.87,1.01,0.74c1.37-0.36,2.88-0.2,4.08-1.16
		c0.17-0.14,0.48-0.27,0.65-0.21c0.98,0.33,1.68-0.25,2.43-0.68c0.34-0.2,0.67-0.43,1.02-0.65c0.81,0.08,1.49,0.57,2.23,0.74
		c0.8,0.17,1.47,0.25,1.92,1.07c0.31,0.57,1.03,0.24,1.58,0.37c0.61,0.45,0.44,1.29,0.87,1.89c0.4,0.55,0.47,1.33,0.73,2.15
		c0.37,0.24,0.83,0.54,1.3,0.84c0.49,0.31,0.79,0.78,1.06,1.27c0.33,0.61,0.37,1.25,0.07,1.84c-0.36,0.71-0.77,1.41-1.27,2.03
		c-1.39,1.75-2.83,3.46-4.24,5.19c-0.25,0.31-0.48,0.62-0.71,0.95c-0.11,0.17-0.05,0.32,0.13,0.4c0.07,0.03,0.15,0.09,0.21,0.06
		c0.29-0.12,0.6-0.22,0.85-0.4c1.11-0.8,2.01-1.82,2.88-2.87c0.41-0.49,0.8-1,1.21-1.49c0.29-0.35,0.65-0.47,0.81-0.26
		c0.18,0.24,0.39,0.54,0.4,0.82c0.01,0.38-0.13,0.78-0.28,1.14c-0.51,1.26-1.05,2.5-1.56,3.76c-0.18,0.44-0.33,0.9-0.47,1.36
		c-0.24,0.8,0.06,1.39,0.75,1.78c0.14,0.45-0.04,0.8-0.21,1.16c-0.75,1.59-1.5,3.18-2.22,4.78c-0.56,1.22-0.54,1.23-0.09,2.8
		c-0.25,0.33-0.51,0.73-0.82,1.08c-1.7,1.92-3.56,3.67-5.55,5.28c-1.55,1.26-3.09,2.53-4.7,3.71c-2.79,2.04-5.24,4.42-7.47,7.05
		c-0.36,0.43-0.68,0.92-1.12,1.24c-1.55,1.14-2.37,2.76-3.12,4.44c-0.26,0.59-0.57,1.13-1.06,1.59c-0.25-0.16-0.43-0.31-0.64-0.42
		c-0.43-0.22-0.84-0.19-1.08,0.11c-0.45,0.56-0.89,1.13-1.29,1.73c-0.96,1.47-1.89,2.96-2.83,4.45c-0.51,0.81-1.01,1.6-2.04,1.91
		c-0.42,0.13-0.76,0.57-1.1,0.9c-0.91,0.89-1.8,1.81-2.71,2.71c-0.28,0.28-0.59,0.53-0.91,0.77c-0.39,0.29-0.79,0.2-0.99-0.22
		c-0.07-0.14-0.08-0.31-0.12-0.46c-0.09-0.32-0.26-0.65-0.59-0.68c-0.94-0.1-1.08-0.76-1.23-1.5c-0.11-0.58-0.48-0.76-1.06-0.66
		c-0.16,0.03-0.32,0.06-0.47,0.1c-0.45,0.14-0.94,0.45-1.36,0.12c-0.29-0.22-0.39-0.67-0.64-0.97c-0.19-0.24-0.44-0.54-0.71-0.6
		c-0.68-0.13-1.17-0.47-1.53-1.04c-0.23-0.36-0.6-0.62-0.99-0.58c-1.05,0.12-1.82-0.44-2.63-0.94c-0.2-0.12-0.41-0.24-0.69-0.39
		c-0.13-1.01-0.71-1.88-1.13-2.82c-0.1-0.22-0.18-0.51-0.36-0.61c-0.95-0.55-1.52-1.33-1.61-2.44c-0.01-0.13-0.17-0.32-0.29-0.35
		c-1.11-0.27-1.07-1.24-1.28-2.06C14.31,422.32,14.25,422.26,14.21,422.2z"/>
	<path class="st0" d="M48.69,332.36c-0.39-0.04-0.57-0.01-0.69-0.08c-0.58-0.31-1.09-0.18-1.55,0.21c-1.08,0.95-2.08,1.98-2.92,3.16
		c-0.46,0.65-0.98,1.26-1.49,1.87c-0.32,0.39-0.73,0.6-1.27,0.49c-0.63-0.12-1.08,0.2-1.45,0.65c-0.6,0.73-1.18,1.49-1.72,2.17
		c-0.38,0.11-0.55-0.06-0.66-0.27c-0.29-0.57-0.52-1.17-0.83-1.72c-0.34-0.61-0.87-0.76-1.64-0.54c-0.23,0.06-0.45,0.16-0.67,0.22
		c-0.06,0.02-0.15-0.03-0.34-0.08c-0.1-0.31-0.23-0.68-0.34-1.06c-0.21-0.76-0.35-1.5-0.97-2.13c-0.48-0.48-0.66-1.25-0.98-1.88
		c-0.19-0.38-0.21-0.77-0.12-1.16c0.15-0.62,0.36-1.23,0.53-1.84c0.13-0.46,0.33-0.92,0.34-1.39c0.04-2.55,1.27-4.75,2.04-7.09
		c0.1-0.29,0.29-0.61,0.54-0.77c1.06-0.68,1.4-1.73,1.47-2.87c0.06-0.92,0.37-1.72,0.85-2.46c1.75-2.7,2.97-5.65,4.25-8.58
		c0.13-0.29,0.26-0.59,0.37-0.88c0.92-2.39,2-4.7,3.61-6.72c0.25-0.31,0.46-0.66,0.62-1.02c0.08-0.19,0.08-0.49-0.02-0.68
		c-0.17-0.33-0.52-0.34-0.84-0.24c-0.22,0.07-0.42,0.23-0.64,0.31c-0.12,0.04-0.27-0.02-0.51-0.05c1.57-3.39,4.09-6.07,6.1-9.06
		c0.4-0.09,0.64,0.1,0.89,0.31c0.98,0.82,1.96,1.65,2.96,2.44c0.24,0.19,0.56,0.29,0.86,0.38c0.11,0.03,0.3-0.08,0.41-0.18
		c0.19-0.17,0.28-0.41,0.14-0.64c-0.16-0.26-0.36-0.53-0.59-0.73c-1.63-1.41-3.34-2.72-4.74-4.38c-0.4-0.48-1-0.78-1.48-1.21
		c-0.65-0.59-1.24-1.24-1.28-2.3c0.85-0.01,1.42-0.5,1.88-1.19c1.06-1.6,1.92-3.29,2.52-5.22c0.38-0.23,0.87-0.49,1.31-0.82
		c0.51-0.37,0.35-1.03,0.65-1.71c0.81-0.6,1.9-1.15,2.54-2.19c0.04-0.06,0.12-0.12,0.19-0.14c1.23-0.3,1.32-1.2,1.2-2.24
		c-0.11-0.89,0.09-1.73,0.48-2.5c0.45-0.21,0.62,0.11,0.77,0.36c0.24,0.39,0.54,0.54,0.99,0.47c0.57-0.08,0.92,0.23,1.03,0.76
		c0.32,1.56,0.62,3.13,0.93,4.7c0.09,0.47,0.18,0.94,0.31,1.4c0.24,0.8,0.66,1.02,1.43,0.77c0.3-0.1,0.61-0.19,0.91-0.3
		c0.29-0.12,0.57-0.27,0.81-0.38c0.82,0.32,0.54,1.38,1.35,1.68c0.64,0.14,1.02-0.71,1.7-0.58c0.34,0.3,0.3,0.72,0.4,1.09
		c0.08,0.31,0.11,0.71,0.31,0.89c0.99,0.84,0.9,1.97,0.94,3.08c0.11,3.03,0.23,6.06,0.39,9.09c0.09,1.72-0.25,3.33-0.97,4.88
		c-0.44,0.94-0.77,1.9-0.99,2.93c-0.21,1-0.74,1.93-1.17,2.87c-0.66,1.45-1.34,2.9-2.06,4.32c-0.68,1.36-1.4,2.69-2.13,4.02
		c-0.58,1.06-1.25,2.01-2.43,2.54c-0.48,0.22-0.9,0.68-1.24,1.1c-1.67,2.04-3.23,4.16-4.6,6.42c-0.34,0.57-0.57,1.16,0,1.74
		c0.31,0.32,0.31,0.72,0.22,1.12c-0.43,1.78-0.9,3.56-1.31,5.35c-0.13,0.56-0.34,1.05-0.74,1.47
		C51.28,329.67,50.01,330.99,48.69,332.36z"/>
	<path class="st0" d="M179.43,204.84c0.73,0.37,1.46,0.83,2.26,1.15c1.04,0.42,2.03,0.07,3.03,0.19c1.01-0.74,1.77-0.23,2.46,0.51
		c0.22,0.24,0.42,0.53,0.75,0.54c0.73,0.02,1.12,0.47,1.57,0.95c0.47,0.51,0.67,1.07,0.67,1.73c0.01,2,0,3.99,0.03,5.99
		c0.04,3.04,0.31,6.05,0.73,9.06c0.26,1.89,1.03,3.47,2.32,4.88c1.53,1.67,3.29,3.01,5.18,4.22c3.37,2.15,6.97,3.89,10.49,5.76
		c0.77,0.41,1.61,0.69,2.43,1.01c0.82,0.32,1.65,0.61,2.46,0.94c0.36,0.15,0.72,0.36,1.03,0.59c0.7,0.52,0.95,1.85,0.12,2.52
		c-0.8,0.66-1.58,1.33-2.39,2c-0.48,0.16-0.92-0.07-1.38-0.2c-0.61-0.18-1.22-0.38-1.83-0.55c-1.76-0.5-3.53-1.01-5.3-1.49
		c-0.53-0.14-1.09-0.24-1.64-0.27c-0.3-0.02-0.68,0.11-0.74,0.47c-0.05,0.29-0.03,0.63,0.07,0.92c0.17,0.48,0.65,0.67,1.04,0.94
		c0.33,0.24,0.34,0.76,0.08,1.07c-0.52,0.62-1.15,1.11-1.93,1.37c-0.55,0.18-1.1,0.22-1.64-0.02c-1.68-0.74-3.39-1.42-5.03-2.24
		c-0.95-0.48-1.93-0.77-2.96-0.88c-2.07-0.22-4.09-0.72-6.11-1.18c-0.93-0.21-1.84-0.53-2.82-0.44c-0.42,0.04-0.8-0.14-1.07-0.45
		c-1.78-2.03-3.06-4.28-3.09-7.08c0-0.24-0.04-0.5,0.05-0.71c0.74-1.74,0.58-3.62,0.76-5.43c0.31-3.18,0.37-6.39-0.27-9.55
		c-0.5-2.5-1.14-4.98-1.75-7.45c-0.11-0.46-0.3-0.92-0.56-1.31c-0.66-1.02-0.61-2.13-0.51-3.25c0.02-0.22,0.11-0.53,0.27-0.64
		c0.62-0.42,1.03-0.98,1.28-1.68c0.05-0.13,0.22-0.32,0.33-0.32c0.87-0.01,0.95-0.7,1.17-1.28
		C179.08,205.1,179.24,205.02,179.43,204.84z"/>
	<path class="st0" d="M87.45,244.83c-1.92,0-3.68,0.04-5.43-0.01c-1.67-0.05-3.35-0.24-5.02-0.3c-1.37-0.05-2.72-0.08-3.7-1.25
		c-1.56-0.81-3.13-1.6-4.67-2.44c-2.24-1.22-4.48-2.46-6.7-3.73c-3.53-2.03-7.04-4.1-10.55-6.17c-0.39-0.23-0.91-0.36-1.06-0.9
		c0.13-0.36,0.48-0.36,0.76-0.46c2.09-0.78,4.21-1.51,6.28-2.34c1.72-0.69,3.21-1.79,4.69-2.87c0.72-0.52,1.44-0.96,2.26-1.31
		c1.84-0.77,3.66-1.6,5.48-2.41c0.22-0.1,0.47-0.2,0.6-0.38c0.71-0.98,1.77-1.28,2.85-1.61c2.38-0.72,4.54-1.97,6.76-3.06
		c1.14-0.56,2.03-1.53,2.94-2.44c0.9-0.9,1.83-1.78,2.75-2.67c0.11-0.11,0.25-0.22,0.39-0.27c0.14-0.05,0.32-0.09,0.45-0.04
		c0.12,0.05,0.25,0.23,0.25,0.35c-0.01,0.64-0.04,1.27-0.09,1.91c-0.21,2.79-0.43,5.57-0.66,8.36c-0.05,0.56-0.02,1.11,0.17,1.65
		c0.27,0.76,0.02,1.41-0.47,1.99c-0.3,0.37-0.61,0.74-0.9,1.12c-0.74,0.96-1.3,1.96-1.21,3.28c0.05,0.68-0.3,1.39-0.48,2.08
		c-0.18,0.69-0.41,1.37-0.56,2.07c-0.08,0.39,0.05,0.75,0.31,1.1c0.98,1.33,2.19,2.5,2.72,4.13c0.18,0.54,0.59,0.92,1.18,1.11
		c0.73,0.24,1.28,0.84,2.19,0.81c0.83-0.02,1.12,0.85,0.63,1.6C88.97,242.75,88.25,243.71,87.45,244.83z"/>
	<path class="st0" d="M114.12,42.81c0.23-0.38,0.64-0.43,1.02-0.52c2.58-0.61,5-1.66,7.41-2.7c0.36-0.15,0.66-0.43,0.98-0.67
		c0.22-0.17,0.27-0.65,0.08-0.87c-0.31-0.36-0.65-0.7-0.94-1.08c-0.18-0.24-0.45-0.47-0.33-0.87c0.36-0.39,0.86-0.21,1.31-0.25
		c1.59-0.16,3.18-0.29,4.77-0.46c0.3-0.03,0.6-0.19,0.89-0.32c0.36-0.16,0.46-0.8,0.16-1.01c-0.33-0.22-0.67-0.42-1.01-0.63
		c-0.4-0.25-0.85-0.46-1.19-0.77c-0.39-0.36-1-0.52-1.13-1.14c0.12-0.1,0.23-0.27,0.35-0.28c0.64-0.03,1.28-0.08,1.91-0.01
		c1.2,0.13,2.39,0.07,3.59,0.01c1.19-0.06,2.39,0.05,3.59,0.11c0.64,0.03,1.27,0.14,1.91,0.17c0.87,0.04,0.99-0.08,1.36-1.24
		c0.36-0.12,0.6,0.14,0.85,0.31c2.76,1.89,5.85,2.9,9.11,3.45c1.18,0.2,2.38,0.31,3.57,0.41c0.77,0.06,1.34,0.4,1.85,0.96
		c1.1,1.21,1.52,2.6,1.22,4.2c-0.36,1.91-0.92,3.73-2.62,5.07c-1.91,0.14-3.78,0.87-5.72,1.32c-0.78,0.18-1.55,0.38-2.33,0.54
		c-0.8,0.17-1.6,0.29-2.21-0.46c-1.77-0.43-3.5-1.12-5.38-0.75c-1.96,0.39-3.91,0.79-5.87,1.18c-1.67,0.33-3.18,1.05-4.6,1.96
		c-1.84,1.17-3.83,1.97-5.98,2.36c-0.55,0.1-1.11,0.16-1.66,0.2c-0.22,0.02-0.45-0.07-0.67-0.11c0.04-0.19,0.03-0.4,0.12-0.48
		c0.62-0.5,1.28-0.96,1.89-1.47c0.42-0.36,0.83-0.76,1.18-1.18c0.68-0.83,0.57-1.42-0.33-1.94c-0.9-0.52-1.83-0.93-2.86-1.18
		c-1.31-0.32-2.57-0.87-3.84-1.33C114.32,43.25,114.16,43.08,114.12,42.81z"/>
	<path class="st0" d="M73.7,128.67c0.47-0.91,0.87-1.6,1.21-2.32c0.44-0.93,0.91-1.87,1.26-2.84c1.22-3.44,3.64-7.87,6.27-11.22
		c0.16,0,0.31-0.01,0.47,0c0.9,0.07,1.19-0.19,1.09-1.02c-0.04-0.32-0.12-0.63-0.15-0.95c-0.32-2.88-1-5.65-2.26-8.27
		c-0.14-0.28-0.22-0.59-0.29-0.81c0.16-0.38,0.38-0.37,0.62-0.3c1,0.29,2,0.56,2.99,0.87c0.85,0.27,1.72,0.34,2.6,0.3
		c1.49-0.08,2.23-0.76,2.58-2.3c0.05-0.23,0.11-0.46,0.18-0.73c0.33-0.18,0.69-0.34,1.02-0.56c0.99-0.66,1.28-1.66,0.74-2.7
		c-0.33-0.62-0.78-1.18-1.12-1.69c-0.03-0.5,0.28-0.65,0.53-0.84c1.07-0.81,1.61-1.95,1.98-3.19c0.36-1.21,0.4-2.33-0.55-3.35
		c-0.31-0.33-0.57-0.78-0.48-1.3c0.11-0.14,0.24-0.14,0.39,0.01c0.52,0.52,0.83,1.16,1.12,1.82c1.61,3.67,2.85,7.45,3.18,11.47
		c0.71,2.83,0.17,5.51-0.83,8.19c-0.79,2.1-1.5,4.21-3.1,5.87c-0.14,0.15-0.26,0.46-0.21,0.65c0.19,0.68-0.14,1.24-0.34,1.84
		c-0.61,1.81-1.24,3.62-1.8,5.45c-0.54,1.75-0.91,3.56-1.51,5.29c-0.76,2.18-1.45,4.39-2.83,6.31c-0.41,0.57-0.65,1.28-0.98,1.91
		c-0.31,0.59-0.89,0.58-1.3-0.02c-0.04-0.07-0.08-0.14-0.11-0.21c-0.26-0.79-0.86-1.19-1.62-1.19c-0.62,0-1.08-0.14-1.46-0.62
		c-0.27-0.34-0.65-0.42-1.06-0.45c-0.47-0.04-0.99,0.05-1.35-0.34c-0.33-0.35-0.7-0.38-1.08-0.18c-0.63,0.34-1.03-0.24-1.54-0.36
		c-0.29-0.06-0.31-0.33-0.39-0.55C75.24,129.55,74.63,129.07,73.7,128.67z"/>
	<path class="st0" d="M110.37,86.97c0.85-0.31,1.79-0.76,2.78-1.02c2.45-0.64,4.59-1.82,6.51-3.44c0.18-0.15,0.39-0.27,0.56-0.39
		c0.11-0.02,0.19-0.06,0.26-0.05c2.37,0.2,4.38-0.65,6.18-2.12c0.49-0.4,1.03-0.76,1.53-1.16c1.04-0.82,1.67-1.91,2.1-3.14
		c0.05-0.14,0.05-0.32,0.04-0.47c-0.02-0.25-0.12-0.47-0.4-0.51c-0.15-0.02-0.34-0.03-0.45,0.05c-0.19,0.14-0.38,0.32-0.46,0.53
		c-0.96,2.29-2.96,3.5-4.9,4.76c-0.96,0.62-2.04,0.93-3.2,0.71c-2.27-0.44-4.53-0.9-6.75-1.35c-0.37-0.36-0.26-0.76-0.19-1.15
		c0.19-1.12,0.17-2.21-0.38-3.27c-0.25-0.49,0-0.94,0.56-1.11c1.29-0.41,2.59-0.79,3.7-1.62c0.23-0.17,0.61-0.21,0.92-0.21
		c0.88,0,1.76,0.02,2.63,0.08c1.19,0.08,2.39,0.16,3.58,0.31c3.24,0.39,6.22,1.46,8.75,3.56c1.43,1.19,2.5,2.68,3.05,4.5
		c0.81,2.69,2.04,5.19,3.45,7.62c0.44,0.76,0.83,1.54,1.22,2.33c0.16,0.33-0.16,0.87-0.53,0.92c-1.76,0.25-3.51,0.12-5.25-0.15
		c-4.53-0.69-9.07-0.67-13.62-0.24c-0.32,0.03-0.64,0.07-0.95,0.14c-2.4,0.52-4.77,0.24-7.13-0.26c-1.65-0.35-2.96-1.16-3.68-2.76
		C110.15,87.75,110.15,87.43,110.37,86.97z"/>
	<path class="st0" d="M172.61,205.88c0.83,2.13,1.27,4.21,1.51,6.4c-0.41,0.21-0.82,0.43-1.27,0.66c-0.1,0.54-0.24,1.08-0.3,1.63
		c-0.25,2.26-1.04,4.34-2.09,6.33c-0.38,0.72-0.78,1.39-0.29,2.24c0.12,0.21-0.01,0.64-0.15,0.89c-0.34,0.63-0.74,1.23-1.16,1.81
		c-0.28,0.39-0.63,0.72-0.94,1.08c-0.96,1.1-0.96,1.1-0.17,2.44c-1.49,2.97-3.6,5.52-6.04,7.28c-0.58,0.42-1.22,0.78-1.53,1.47
		c-0.18,0.4-0.54,0.57-0.93,0.7c-3.23,1.11-6.5,1.64-9.89,0.81c-0.31-0.08-0.62-0.15-0.92-0.25c-0.99-0.34-1.25-0.67-1.28-1.75
		c-0.04-1.44-0.18-2.86-0.39-4.29c-0.26-1.76-0.09-3.51,0.37-5.22c0.09-0.33,0.35-0.53,0.69-0.58c0.8-0.13,1.59-0.1,2.38,0.09
		c0.88,0.22,1.75,0.17,2.61-0.06c1.31-0.34,2.62-0.71,3.92-1.08c0.46-0.13,0.89-0.38,1.35-0.47c2.89-0.58,5.08-2.28,6.95-4.41
		c1.16-1.32,2.17-2.77,3.2-4.18c0.85-1.17,1.5-2.46,1.91-3.85c0.66-2.22,1.27-4.45,1.89-6.68
		C172.1,206.58,172.08,206.24,172.61,205.88z"/>
	<path class="st0" d="M166.29,55.82c0.15-0.43,0.31-0.87,0.5-1.4c-0.12-0.24-0.3-0.5-0.4-0.79c-0.23-0.63-0.6-1.11-1.28-1.31
		c-0.21-0.06-0.21-0.52-0.03-0.62c0.91-0.48,1.83-0.96,2.75-1.44c2.34-1.22,4.69-2.41,7.02-3.65c1.2-0.64,1.18-0.68,1.52-2.36
		c1.26-0.91,2.62-1.88,3.97-2.86c0.9-0.65,1.9-1.2,2.32-2.34c0.07-0.2,0.29-0.39,0.48-0.51c2.5-1.57,4.98-3.18,7.65-4.47
		c0.13-0.06,0.31-0.01,0.46-0.01c0.4,0.42,0.25,0.92,0.16,1.37c-0.32,1.64-0.65,3.29-1.05,4.92c-0.32,1.32-0.73,2.61-1.11,3.92
		c-0.18,0.61-0.39,1.22-0.59,1.82c-0.63,1.88-1.72,3.37-3.43,4.46c-1.61,1.03-3.11,2.25-4.7,3.31c-1.6,1.07-3.34,1.87-5.26,2.23
		c-0.88,0.17-1.73,0.23-2.61,0.04c-2.05-0.44-4.11-0.6-6.18-0.11C166.44,56.02,166.37,55.9,166.29,55.82z"/>
	<path class="st0" d="M112.42,266.37c0,1.27-0.21,2.27-0.62,3.23c-0.54,1.25-1.19,2.44-2.1,3.45c-1.35,1.5-2.99,2.28-5.07,2.17
		c-2.38-0.12-4.59-2.25-3.95-5.14c0.56-2.5,1.66-4.81,3.27-6.83c0.76-0.96,1.77-1.6,3.01-1.78c2.7-0.39,5.1,1.46,5.4,4.16
		C112.41,265.95,112.42,266.27,112.42,266.37z"/>
	<path class="st0" d="M131.53,255.48c-0.04,0.23-0.11,0.87-0.27,1.48c-0.46,1.71-1.26,3.28-2.23,4.75
		c-1.21,1.84-2.95,2.49-5.22,1.95c-1.87-0.45-3.42-2.33-3.59-4.34c-0.08-0.96-0.01-1.9,0.37-2.82c0.58-1.41,1.28-2.76,2.13-4.01
		c0.74-1.09,1.77-1.75,3.03-2.2c2.27-0.81,5.87,0.92,5.78,4.31C131.53,254.76,131.53,254.92,131.53,255.48z"/>
	<path class="st0" d="M114.73,245.63c-0.01,1.56-0.48,2.81-1.33,3.91c-1.23,1.58-3.67,2.01-5.39,0.99
		c-1.05-0.62-1.69-1.98-1.46-3.28c0.31-1.76,1.13-3.31,2.35-4.6c1.15-1.22,3.74-1.4,5,0.47
		C114.45,243.92,114.76,244.8,114.73,245.63z"/>
	<path class="st0" d="M135.84,232.67c-0.11,1.49-0.56,3-1.64,4.25c-0.9,1.04-2.08,1.43-3.44,1.07c-2.7-0.71-3.87-3.73-2.32-6.05
		c0.44-0.65,0.99-1.25,1.54-1.81c1.02-1.03,2.66-1.31,3.96-0.67C135.2,230.08,135.79,231.15,135.84,232.67z"/>
	<path class="st0" d="M180.96,140.37c0.04,0.88-0.17,1.72-0.7,2.45c-0.51,0.71-1.53,1.02-2.34,0.69c-2.47-1-3.44-3.94-2.6-5.91
		c0.55-1.3,1.61-1.91,2.86-2.28c0.47-0.14,0.97,0.04,1.31,0.4c0.32,0.33,0.68,0.72,0.81,1.14
		C180.64,138,181.03,139.14,180.96,140.37z"/>
	<path class="st0" d="M87.4,81.51c-1.14,2.21-1.4,4.39-1.33,6.65c0.07,2.29-0.11,2.42-2.17,1.48c-1.68-0.77-3.47-1.13-5.28-1.38
		c-0.21-0.03-0.36-0.44-0.23-0.59c0.15-0.18,0.29-0.37,0.47-0.52c0.48-0.41,0.97-0.83,1.48-1.21c0.9-0.67,1.47-1.73,2.35-2.34
		c0.88-0.61,2.06-0.79,3.08-1.21C86.34,82.16,86.86,81.81,87.4,81.51z"/>
	<path class="st0" d="M178.46,123.82c-0.06,0.28-0.11,0.6-0.19,0.9c-0.46,1.71-1.99,2.32-3.53,1.4c-2.01-1.2-2.26-4.23-0.48-5.76
		c0.6-0.52,1.49-0.59,2.23-0.18C177.91,120.96,178.33,122.29,178.46,123.82z"/>
	<path class="st0" d="M154.02,74.31c0.05,0,0.29,0.01,0.52,0.03c0.79,0.08,1.27,0.49,1.51,1.27c0.44,1.42-0.2,2.54-1.61,2.87
		c-0.71,0.17-1.41,0.11-2.1-0.09c-0.81-0.23-1.31-0.88-1.34-1.74c-0.05-1.29,0.85-2.27,2.13-2.34
		C153.36,74.3,153.6,74.31,154.02,74.31z"/>
	<path class="st0" d="M167.68,134.02c-0.02-0.65,0.12-1.26,0.47-1.82c0.46-0.73,1.23-1.04,2.06-0.78c0.72,0.23,1.21,1.12,0.98,1.93
		c-0.15,0.53-0.34,1.06-0.61,1.54c-0.42,0.75-1.62,0.92-2.32,0.38C167.85,134.95,167.7,134.52,167.68,134.02z"/>
	<path class="st0" d="M146.93,78.88c-0.01,0.95-0.49,1.41-1.21,1.4c-0.86-0.02-1.59-0.54-1.8-1.3c-0.04-0.15-0.06-0.31-0.08-0.47
		c-0.14-0.98,0.16-1.58,0.84-1.71c0.97-0.19,1.85,0.27,2.09,1.14C146.87,78.31,146.9,78.71,146.93,78.88z"/>
	<path class="st0" d="M159.81,70.43c0.18,0.07,0.5,0.13,0.75,0.29c0.43,0.28,0.64,1.05,0.46,1.48c-0.16,0.38-0.63,0.62-1.2,0.59
		c-0.49-0.03-0.95-0.15-1.21-0.6c-0.26-0.44-0.25-0.9,0.02-1.35C158.87,70.43,159.29,70.48,159.81,70.43z"/>
</g>
</svg>
