<?xml version="1.0" encoding="utf-8"?>
<!-- Generator: Adobe Illustrator 24.1.2, SVG Export Plug-In . SVG Version: 6.00 Build 0)  -->
<svg version="1.1" id="Layer_1" xmlns="http://www.w3.org/2000/svg" xmlns:xlink="http://www.w3.org/1999/xlink" x="0px" y="0px"
	 width="286.1" height="452.26" viewBox="0 0 286.1 452.26" style="enable-background:new 0 0 286.1 452.26;" xml:space="preserve">
<style type="text/css">
	.st0{fill:#1A1A1A;}
</style>
<g>
	<path d="M41.49,436.87c-1.01,0.1-1.63,0.76-2.36,1.24c-0.62,0.4-1.27,0.57-2,0.69c-0.82,0.14-1.37-0.28-2.06-0.59
		c-0.63,0.16-0.89,0.82-1.38,1.19c-0.45,0.34-0.92,0.64-1.34,0.99c-0.17,0.14-0.28,0.39-0.36,0.6c-0.76,2.03-2.26,3.46-3.92,4.73
		c-1.53,1.17-3.22,2.07-4.97,2.88c-2.91,1.36-5.99,2.22-9.05,3.14c-0.3,0.09-0.63,0.13-0.94,0.15c-1.67,0.13-3.35,0.25-5.02,0.36
		c-0.31,0.02-0.64-0.02-0.94-0.09c-0.67-0.15-1.07-0.72-1.08-1.4c-0.02-0.84,0.31-1.56,0.69-2.27c0.72-1.34,1.46-2.66,2.2-3.99
		c0.54-0.98,1.09-1.96,1.6-2.95c0.17-0.32,0.44-0.65,0.32-1.07c-0.46-0.21-0.76,0.14-1.08,0.32c-2.62,1.44-5.49,2.16-8.36,2.88
		c-0.59,0.15-1.11-0.24-1.2-0.87c-0.29-1.91-0.3-3.83,0.1-5.73c0.23-1.09,0.51-2.18,0.76-3.27c0.33-1.41,0.83-2.75,1.61-3.98
		c0.34-0.54,0.66-1.1,0.91-1.69c0.69-1.66,1.83-2.99,3.07-4.24c1.69-1.71,3.42-3.36,5.44-4.69c0.46-0.31,0.96-0.59,1.17-1.16
		c0.11-0.3,0.28-0.61,0.25-0.9c-0.04-0.38-0.46-0.32-0.75-0.41c-0.15-0.05-0.3-0.12-0.41-0.23c-0.16-0.17-0.3-0.38-0.17-0.64
		c0.36-0.74,0.95-1.29,1.6-1.75c1.31-0.92,2.62-1.84,3.99-2.65c2.9-1.71,5.62-3.68,8.19-5.83c2.08-1.74,4.16-3.51,6.11-5.39
		c1.84-1.77,3.53-3.7,5.24-5.6c0.53-0.59,0.93-1.3,1.34-1.98c1.39-2.34,2.74-4.69,4.12-7.04c0.52-0.89,1.06-1.78,1.59-2.67
		c2.15-3.6,3.37-7.58,4.67-11.52c1.23-3.72,2.21-7.51,2.77-11.39c0.31-2.14,0.85-4.23,1.53-6.28c0.38-1.13,0.66-2.3,0.94-3.26
		c0.5-0.63,1.04-0.13,1.48-0.38c0.98-2.36,1.9-4.75,2.96-7.07c1.03-2.24,2.2-4.42,3.28-6.56c-0.01-0.89-1.22-0.6-1.14-1.68
		c-0.02,0.04,0.04-0.2,0.18-0.38c1.17-1.54,1.97-3.29,2.75-5.04c1.28-2.84,2.65-5.64,3.72-8.57c0.49-1.34,1.33-2.55,2.05-3.79
		c0.81-1.38,1.73-2.7,2.13-4.28c0.02-0.08,0.03-0.17,0.08-0.22c1.13-1.17,1-2.65,0.94-4.08c-0.09-2.18,0.36-4.3,0.53-6.45
		c0.25-3.19,0.79-6.35,1.09-9.52c0.55-5.83,1.88-11.51,2.84-17.26c0.18-1.1,0.46-2.19,0.63-3.29c0.59-3.81,1.63-7.49,3.15-11.03
		c0.05-0.12,0.03-0.28,0.04-0.44c-0.57-0.11-0.81,0.39-1.13,0.66c-1.35,1.18-4.71,0.9-6.1-0.26c-0.59-0.49-0.95-1.12-0.98-1.86
		c-0.04-0.95-0.06-1.93,0.1-2.86c0.18-1.1,0.03-2.11-0.67-2.94c-0.53-0.63-0.61-1.3-0.52-2.01c0.14-1.11,0.37-2.21,0.57-3.3
		c0.13-0.7,0.27-1.39,0.43-2.17c-7.24-1.3-14.42-2.31-21.63-3.14c-0.11-0.01-0.25,0.14-0.37,0.21c-0.02,0.56,0.43,0.82,0.75,1.15
		c1.72,1.79,3.37,3.63,4.83,5.64c0.37,0.52,0.75,1.01,0.71,1.73c-0.02,0.37,0.18,0.76,0.34,1.13c1.15,2.72,2.3,5.44,3.48,8.15
		c0.21,0.48,0.25,0.89-0.01,1.36c-0.1,0.18-0.12,0.49-0.04,0.68c1.33,3.21,1.63,6.66,2.3,10.03c0.06,0.29,0.24,0.57,0.38,0.84
		c0.03,0.06,0.13,0.08,0.26,0.15c0.51-0.33,1.03-0.68,1.58-1.01c0.42-0.26,0.92-0.12,1.25,0.34c0.13,0.19,0.19,0.43,0.3,0.65
		c0.07,0.14,0.16,0.27,0.28,0.48c0.26-0.15,0.51-0.3,0.78-0.44c0.88-0.46,1.56-0.14,1.73,0.83c0.07,0.39,0.1,0.79,0.13,1.19
		c0.04,0.5,0.15,0.94,0.58,1.26c0.56,0.42,0.72,1.03,0.76,1.69c0.17,3.35,0.34,6.7,0.51,10.05c0.01,0.16-0.01,0.32,0,0.48
		c0.26,2.29-0.18,4.44-1.25,6.48c-0.11,0.21-0.22,0.44-0.26,0.67c-0.42,2.15-1.47,4.04-2.44,5.97c-0.29,0.57-0.56,1.15-0.79,1.75
		c-0.86,2.25-1.93,4.39-3.2,6.43c-0.42,0.68-0.78,1.39-1.21,2.07c-0.21,0.33-0.43,0.73-0.76,0.9c-0.87,0.46-1.19,1.26-1.47,2.1
		c-0.39,1.14-0.54,2.33-0.62,3.53c-0.08,1.27-0.19,2.55-0.42,3.81c-0.25,1.35-0.8,2.59-1.91,3.51c-0.46,0.38-0.92,0.58-1.53,0.4
		c-0.36-0.11-0.63,0.17-0.7,0.49c-0.28,1.32-0.63,2.63-0.57,4.01c0.16,3.29-0.1,6.56-0.66,9.79c-0.48,2.73-1.68,5.15-3.57,7.2
		c-1.86,2.03-4.19,3.45-6.53,4.82c-1.19,0.7-2.56,0.88-3.88,1.19c-0.51,0.12-1.1-0.21-1.37-0.74c-0.11-0.21-0.17-0.45-0.26-0.67
		c-0.09-0.21-0.18-0.42-0.28-0.65c-0.7-0.2-1.17,0.48-1.82,0.42c-0.63-0.06-1.28,0-1.92-0.03c-0.61-0.03-1.07-0.36-1.32-0.89
		c-0.24-0.5-0.42-1.04-0.57-1.58c-0.68-2.38-1.32-4.77-2.27-7.07c-0.56-1.35-0.64-2.8-0.56-4.25c0.05-0.94,0.34-1.89-0.17-2.81
		c-0.13-0.24-0.02-0.62,0-0.94c0.09-1.36,0.43-2.68,0.81-3.99c0.22-0.77,0.48-1.5,0.31-2.34c-0.07-0.36,0.08-0.79,0.22-1.15
		c0.91-2.39,1.62-4.85,2.76-7.15c0.17-0.35,0.34-0.74,0.35-1.12c0.02-0.51,0.21-0.91,0.44-1.34c1.15-2.1,2.28-4.22,3.42-6.32
		c1.72-3.17,2.93-6.56,4.38-9.88c-0.21-0.37-0.43-0.69-0.59-1.04c-0.18-0.4-0.01-0.78,0.13-1.15c0.8-2.11,1.96-4.03,3.26-5.85
		c0.88-1.23,1.89-2.37,2.84-3.55c0.45-0.56,0.9-1.12,1.31-1.71c0.31-0.44,0.23-0.9-0.18-1.29c-0.93-0.88-1.84-1.78-2.81-2.61
		c-1.1-0.94-2.08-1.98-3.05-3.05c-2.75-3.01-5.44-6.08-8-9.25c-1.05-1.31-2.2-2.53-3.55-3.56c-0.96-0.73-1.78-1.59-2.46-2.6
		c-0.76-1.12-1.83-2-2.45-3.24c-0.2-0.4-0.65-0.7-1.02-0.99c-0.89-0.71-1.57-1.58-2.2-2.52c-1.26-1.85-2.42-3.76-3.85-5.5
		c-0.7-0.85-1.19-1.9-1.7-2.89c-1.85-3.55-3.91-6.97-6.3-10.19c-1.39-1.87-2.51-3.9-3.53-5.98C6.9,232.9,6.09,230.9,5,229.03
		c-0.8-1.38-1.17-2.97-1.45-4.55c-0.22-1.27-0.09-2.55,0.41-3.77c0.15-0.37,0.43-0.73,0.45-1.1c0.05-1.2,0.78-1.86,1.7-2.43
		c0.75-0.46,1.47-0.96,2.19-1.47c0.26-0.18,0.6-0.39,0.68-0.65c0.3-1.07,1.2-1.46,2.03-1.89c1.41-0.74,2.85-1.45,4.31-2.09
		c2.2-0.95,4.42-1.85,6.65-2.73c1.48-0.59,2.99-1.07,4.61-1.25c1.34-0.15,2.64-0.62,3.95-0.96c2.01-0.52,4.03-1.01,6.03-1.57
		c1.17-0.33,2.34-0.53,3.55-0.32c0.81,0.14,1.6,0.04,2.38-0.15c2.5-0.62,5.03-0.78,7.59-0.92c3.66-0.19,7.35-0.29,10.96-1.11
		c0.39-0.09,0.8-0.14,1.19-0.11c0.73,0.06,0.88-0.52,1.23-1.04c2.42-0.05,4.89,0.24,7.33,0.55c2.36,0.3,4.68,0.94,6.95,1.41
		c0.88-0.55,1.35-1.31,1.85-2.02c2.98-4.16,5.93-8.34,8.55-12.74c0.91-1.52,2.06-2.85,3.18-4.2c0.97-1.16,1.97-2.31,3.16-3.27
		c0.57-0.46,0.93-1.05,1.29-1.69c2.3-4.12,3.44-8.58,4.07-13.21c0.37-2.69,0.65-5.39,1.08-8.07c0.28-1.73,0.75-3.43,1.13-5.15
		c0.19-0.85,0.37-1.71,0.54-2.57c0.01-0.06-0.06-0.18-0.11-0.2c-0.13-0.05-0.31-0.13-0.42-0.09c-0.29,0.12-0.57,0.29-0.83,0.47
		c-3.4,2.29-6.51,4.91-9.08,8.12c-1.85,2.32-3.88,4.46-6.18,6.35c-1.85,1.53-3.81,2.9-5.95,4.01c-1.91,1-3.84,1.98-5.67,3.12
		c-2.2,1.38-4.57,1.82-7.1,1.72c-0.49-0.02-0.93-0.11-1.37-0.37c-0.49-0.29-0.36-0.86-0.7-1.29c-0.9-0.37-1.86-0.75-2.8-1.17
		c-0.37-0.16-0.74-0.43-0.8-0.84c-0.12-0.91-0.7-1.6-1.06-2.4c-0.13-0.28-0.21-0.58-0.33-0.93c0.44-0.14,0.8-0.25,1.28-0.39
		c0.51-2.45,0.88-4.93,0.5-7.52c-0.2-1.39,0.02-2.87,0.18-4.29c0.19-1.67-0.1-3.33-0.05-4.99c0.01-0.37-0.23-0.75-0.38-1.21
		c0.11-0.22,0.21-0.52,0.38-0.78c2.6-3.76,4.62-7.85,6.45-12.02c1.26-2.86,2.72-5.61,4.41-8.23c0.91-1.41,1.61-2.91,2.2-4.5
		c0.72-1.94,1.72-3.78,2.72-5.59c0.77-1.4,1.73-2.68,2.6-4.03c0.35-0.54,0.67-1.09,0.98-1.65c1.05-1.95,1.12-2.21,0.64-4.33
		c-0.44-1.96-1.16-3.82-2.09-5.6c-0.34-0.64-0.77-1.21-1.32-1.7c-0.89-0.8-1.74-1.65-2.64-2.43c-1.89-1.62-1.83-4.14-0.89-5.66
		c0.46-0.74,0.75-1.6,1.47-2.03c0.02-0.68-0.35-1-0.68-1.34c-0.17-0.17-0.35-0.33-0.53-0.48c-1.81-1.47-3.33-3.2-4.73-5.07
		c-0.86-1.14-1.94-2.12-2.92-3.18c-0.43-0.47-0.88-0.93-1.25-1.45c-0.59-0.81-0.77-1.74-0.62-2.73c0.14-0.91,0.65-1.46,1.53-1.58
		c1.48-0.19,2.82,0.06,4.09,0.94c2.17,1.5,4.4,2.91,6.61,4.34c0.4,0.26,0.82,0.49,1.21,0.71c0.32-0.11,0.38-0.34,0.27-0.54
		c-0.91-1.7-1.53-3.51-2.14-5.33c-0.4-1.21-0.9-2.39-1.32-3.6c-0.21-0.6-0.4-1.22-0.54-1.84c-0.18-0.81,0.36-1.63,1.2-1.79
		c1.44-0.29,2.85-0.26,4.18,0.53c1.85,1.09,3.25,2.61,4.2,4.49c1.41,2.78,2.82,5.56,3.87,8.5c0.13,0.37,0.31,0.73,0.47,1.12
		c0.63,0.48,1.48,0.5,2.11,1.05c0.67,0.59,1.17,1.31,1.74,1.97c1.16,1.36,1.9,2.93,2.61,4.55c1.68,3.86,2.44,7.92,2.91,12.06
		c0.19,1.7-0.14,3.35-0.6,4.95c-0.64,2.22-1.44,4.38-2.49,6.47c-1.54,3.06-2.79,6.27-3.59,9.63c-0.48,2.02-1.14,3.99-1.71,5.99
		c-0.06,0.23-0.17,0.46,0.05,0.69c0.31-0.02,0.49-0.27,0.67-0.5c1.06-1.4,2.15-2.78,3.17-4.22c1.53-2.15,3.13-4.25,5.02-6.11
		c0.51-0.5,1.04-0.96,1.1-1.78c0.02-0.27,0.29-0.56,0.51-0.78c0.86-0.83,1.74-1.65,2.63-2.45c0.83-0.75,1.68-1.47,2.31-2.01
		c0.38-0.68-0.02-0.99-0.05-1.46c0.78-1.1,2.1-1.55,3.19-2.17c0.06-0.43,0.11-0.74,0.17-1.16c0.75-0.15,1.52-0.31,2.29-0.44
		c0.85-0.15,1.75-0.01,2.55-0.54c0.29-0.19,0.77-0.11,1.17-0.1c1.28,0.03,2.56,0.12,3.83,0.13c2.27,0.02,4.01-0.99,5.15-2.93
		c0.32-0.55,0.63-1.08,1.01-1.6c1.1-1.51,1.33-3.25,0.94-5.03c-0.31-1.4-1.26-2.39-2.6-2.93c-0.29-0.12-0.62-0.17-0.93-0.16
		c-0.64,0.01-1.29,0-1.91,0.14c-2.35,0.52-4.6,0-6.86-0.5c-2.36-0.52-4.06-1.9-4.8-4.22c-0.23-0.71-0.6-1.07-1.18-1.37
		c-0.75-0.38-0.93-1-0.84-1.81c0.11-1.04,0.54-1.98,0.81-2.92c-0.37-0.49-0.9-0.48-1.34-0.62c-0.9-0.29-1.52-0.87-1.9-1.71
		c-0.26-0.58-0.53-1.17-0.71-1.78c-0.77-2.66-0.83-5.35-0.28-8.07c0.3-1.48,1.27-2.39,2.6-2.89c0.81-0.31,1.7-0.5,2.56-0.6
		c2.06-0.23,4.14-0.38,6.2-0.57c0.79-0.07,1.59-0.14,2.46-0.22c1.31-2.94,2.37-5.93,2.98-9.21c-0.45-0.88-1.37-1.38-2.17-1.99
		c-0.38,0.03-0.7,0.02-1.01,0.09c-1.95,0.4-3.82,0-5.66-0.56c-0.52-0.16-1-0.49-1.48-0.77c-0.26-0.15-0.44-0.71-0.28-0.83
		c0.17-0.14,0.39-0.3,0.59-0.31c1.28-0.08,2.55-0.2,3.79-0.56c0.45-0.13,0.87-0.36,1.22-0.51c0.19-0.45,0-0.72-0.15-0.98
		c-0.85-1.45-1.69-2.9-2.58-4.32c-0.2-0.32-0.54-0.59-0.86-0.79c-0.47-0.29-1.02-0.47-1.5-0.75c-0.69-0.41-1.35-0.85-1.99-1.32
		c-0.15-0.11-0.18-0.42-0.18-0.64c0-0.1,0.2-0.21,0.33-0.29c0.06-0.04,0.15-0.04,0.23-0.05c0.38-0.04,0.86,0.1,1.06-0.33
		c0.12-0.26,0.13-0.63,0.06-0.92c-0.39-1.75-0.27-3.46,0-5.23c0.41-2.69,0.95-5.35,1.65-7.97c0.27-1,0.57-2.01,1.25-2.83
		c0.2-0.24,0.44-0.44,0.64-0.62c0.87,0.16,1.25,0.81,1.71,1.34c1.27,1.44,2.53,2.88,3.78,4.34c0.63,0.73,1.38,1.33,2.26,1.93
		c0.4-0.55,0.74-1.17,1.45-1.34c-0.06-0.14-0.08-0.31-0.17-0.41c-1.92-2.28-2.7-5.06-3.31-7.88c-0.46-2.13-0.22-4.31,0.11-6.44
		c0.18-1.18,0.54-2.34,0.87-3.49c0.55-1.9,1.66-3.42,3.22-4.65c2.14-1.71,4.53-2.99,6.98-4.18c0.79-0.39,1.62-0.68,2.41-1.07
		c2.11-1.05,4.39-1.42,6.7-1.71c0.35-0.04,0.48,0.04,1.17,0.78c-0.18,0.74-0.93,1.01-1.39,1.52c-0.48,0.53-1.05,0.99-1.51,1.54
		c-0.41,0.49-0.72,1.05-1.07,1.59c-0.4,0.6-0.8,1.19-1.19,1.8c-0.37,0.59-0.97,1.07-0.93,1.72c0.15,0.43,0.42,0.46,0.63,0.46
		c1.36,0,2.72-0.02,4.08-0.03c0.4,0,0.78,0.06,1.11,0.35c0.22,0.19,0.25,0.7,0.01,0.8c-0.29,0.13-0.58,0.26-0.88,0.34
		c-1.38,0.39-2.78,0.73-4.15,1.16c-3.27,1.02-5.68,3.18-7.64,5.9c-0.43,0.6-0.69,1.27-0.82,1.98c-0.18,0.98-0.11,1.91,0.59,2.71
		c0.31,0.36,0.57,0.78,0.89,1.13c1.18,1.29,2.77,1.42,4.02,0.23c0.86-0.82,1.58-1.8,2.36-2.7c0.22-0.25,0.6-0.25,0.85,0
		c0.17,0.17,0.38,0.33,0.47,0.53c0.16,0.36,0.28,0.74,0.36,1.13c0.25,1.09,0.48,2.19,0.69,3.28c0.16,0.82,0.61,1.44,1.25,1.96
		c2.45,1.99,5.17,3.49,8.23,4.29c1.7,0.44,3.4,0.93,5.17,1.02c0.12,0.01,0.31-0.11,0.35-0.22c0.05-0.12,0.01-0.33-0.07-0.43
		c-0.9-1.14-2.02-2.04-3.15-2.93c-0.37-0.29-0.75-0.6-1.03-0.98c-0.24-0.32-0.25-0.74,0.24-1.11c0.38,0.18,0.8,0.39,1.23,0.59
		c1.6,0.74,3.22,1.4,4.97,1.72c0.78,0.14,1.53,0.45,2.3,0.68c0.69,0.2,1.38,0.41,2.08,0.59c2.3,0.58,4.43,0.14,6.42-1.1
		c1.02-0.63,2.04-1.27,2.76-2.26c0.23-0.32,0.52-0.66,0.59-1.03c0.25-1.33,0.59-2.66,0.45-4.04c-0.05-0.48-0.18-0.96-0.15-1.43
		c0.11-2.18-0.7-4.06-1.85-5.84c-0.82-1.28-1.61-2.57-2.42-3.86c-0.77-1.22-1.39-2.52-1.84-3.89c-0.04-0.12,0.07-0.29,0.14-0.43
		c0.08-0.18,0.47-0.22,0.63-0.06c0.73,0.73,1.51,1.43,2.17,2.22c1.17,1.43,2.46,2.73,3.87,3.92c1.1,0.93,2.14,1.92,3.21,2.88
		c0.3,0.27,0.59,0.54,0.91,0.78c1.01,0.76,2.19,0.5,2.85-0.63c0.84-1.44,1.15-3,0.72-4.62c-0.8-3.01-1.62-6.03-3.29-8.72
		c-0.12-0.2-0.25-0.42-0.3-0.65c-0.03-0.12,0.05-0.32,0.15-0.41c0.1-0.1,0.31-0.2,0.42-0.17c0.3,0.09,0.61,0.22,0.85,0.41
		c1.43,1.15,2.85,2.32,4.26,3.49c0.63,0.52,1.03,1.22,1.42,1.92c1.19,2.18,2.04,4.51,2.81,6.86c0.79,2.42,0.57,4.9,0.35,7.37
		c-0.26,2.82-1.1,5.47-2.29,8.02c-0.17,0.36-0.31,0.73-0.45,1.06c0.22,0.24,0.42,0.37,0.67,0.29c0.83-0.28,1.67-0.54,2.49-0.86
		c2.09-0.82,4.26-1.36,6.44-1.85c1.56-0.35,3.11-0.73,4.66-1.1c1.25-0.3,1.99,0.22,2.12,1.53c0.11,1.04,0.04,2.08-0.22,3.09
		c-0.75,2.94-1.35,5.91-1.94,8.89c-0.39,1.95-0.79,3.92-1.75,5.71c-0.22,0.41-0.43,0.86-0.14,1.35c0.17,0.29,0.14,0.61-0.04,0.9
		c-0.25,0.41-0.45,0.86-0.76,1.22c-0.55,0.66-0.66,1.41-0.5,2.26c-1.07,1-2.28,1.76-3.5,2.53c-0.54,0.34-1.1,0.66-1.62,1.02
		c-0.25,0.18-0.6,0.43-0.63,0.67c-0.11,1.06-0.96,1.42-1.67,1.9c-0.73,0.49-1.52,0.88-2.28,1.32c-0.27,0.16-0.66,0.29-0.76,0.53
		c-0.39,0.89-1.16,1.04-1.97,1.1c-1.43,0.12-2.87,0.2-4.3,0.27c-0.87,0.04-1.75-0.06-2.47,0.1c-0.43,0.4-0.24,0.69-0.15,0.97
		c0.31,0.91,0.61,1.82,0.95,2.72c0.25,0.65-0.07,1.05-0.59,1.48c0.65,2.75,1.3,5.53,1.94,8.28c-0.45,0.64-1,1.13-1.05,1.9
		c-0.04,0.56-0.12,1.11-0.19,1.67c-0.17,1.33-0.21,1.35-1.75,1.15c-0.83,0.95-1.04,2.28-1.75,3.33c-0.33,0.46-0.96,0.1-1.3,0.43
		c-0.34,0.33-0.62,0.73-0.88,1.12c-0.8,1.2-1.56,2.42-2.36,3.61c-0.54,0.81-0.94,0.74-1.56-0.2c-0.08-0.13-0.19-0.24-0.31-0.4
		c-1.42,0.16-2.35,1.19-3.35,2.08c-0.28-0.03-0.5-0.07-0.73-0.09c-0.23-0.02-0.46-0.04-0.67-0.06c-0.81,0.61-1.01,1.7-1.89,1.93
		c-0.58,2.42-0.47,4.64-0.14,6.86c0.23,1.54,0.87,2.9,1.86,4.09c0.37,0.44,0.8,0.78,1.44,0.69c0.24-0.03,0.49-0.07,0.71-0.02
		c3.68,0.9,7.46,0.82,11.19,1.25c0.71,0.08,1.43,0.1,2.1,0.43c0.58,0.29,0.63,0.69,0.12,1.27c-0.15,0.17-0.26,0.36-0.41,0.57
		c2.17,1.41,4.66,2.25,6.35,4.22c-0.17,0.37-0.29,0.66-0.46,1.02c1.28,1.98,2.57,3.98,3.87,5.99c0.13,0.2,0.28,0.39,0.4,0.59
		c1,1.73,1.92,3.5,3.3,4.98c0.07,0.07,0.03,0.32-0.05,0.41c-0.08,0.1-0.29,0.2-0.41,0.17c-0.36-0.09-0.7-0.24-1.08-0.38
		c-0.33,0.71,0.29,1.06,0.46,1.54c0.16,0.45,0.4,0.87,0.6,1.31c0.22,0.51,0.43,1.03,0.65,1.55c0.18,0.44,0.39,0.88,0.54,1.33
		c0.17,0.53,0.28,1.08,0.42,1.63c0.12,0.47,0.23,0.93,0.34,1.42c0.04,0.54-0.67,0.68-0.7,1.17c-0.02,0.39,0.09,0.79,0.13,1.18
		c0.2,2.38,0.38,4.76,0.22,7.17c-0.09,1.26,0.05,2.55,0.18,3.82c0.16,1.59,0.47,3.16,0.64,4.75c0.19,1.75,0.13,3.51-0.06,5.27
		c-0.13,1.19-0.34,2.37,0.01,3.57c0.1,0.36-0.05,0.79-0.08,1.18c-0.09,1.6-0.09,3.2,0.2,4.78c0.06,0.31,0.06,0.71,0.25,0.91
		c0.87,0.94,0.78,2.06,0.65,3.17c-0.14,1.1,0.25,2.22-0.17,3.32c-0.09,0.25,0.08,0.62,0.17,0.92c0.62,2.18,0.76,4.38,0.59,6.65
		c-0.14,1.91-0.45,3.81-0.23,5.74c0.02,0.15,0.01,0.37-0.08,0.46c-0.83,0.84-0.4,1.76-0.26,2.7c0.25,1.66,0.49,3.33,0.55,5
		c0.17,4.71,0.5,9.41,0.84,14.12c0.12,1.75,0.08,3.51,0.05,5.27c-0.06,3.76,0.1,7.51,0.65,11.24c0.21,1.46,0.8,2.72,1.8,3.84
		c1.4,1.56,3.03,2.83,4.78,3.97c1.2,0.79,2.42,1.55,3.64,2.32c0.54,0.35,1.1,0.69,1.77,0.64c0.76-0.06,1.41,0.25,2.07,0.5
		c0.9,0.34,1.78,0.72,2.64,1.14c3.16,1.55,6.4,2.91,9.68,4.19c0.97,0.38,1.92,0.79,2.75,1.45c0.7,0.56,1.29,1.18,1.65,2.02
		c0.4,0.96,0.88,1.89,1.23,2.86c0.5,1.37,0.75,1.86,0.45,3.8c-0.29,0.31-0.61,0.66-0.99,1.07c0.03,0.35,0.03,0.74,0.1,1.13
		c0.23,1.39-0.46,2.15-1.66,2.47c-1.68,0.45-3.17,0.17-4.48-0.96c-0.48-0.41-0.94-0.87-1.33-1.37c-1.13-1.45-2.3-2.87-3.3-4.41
		c-0.89-1.36-2.2-1.67-3.68-2.12c0.15,0.75,0.65,0.85,1,1.08c0.67,0.45,1.27,0.97,1.7,1.67c0.69,1.11,0.18,2.59-1.09,2.88
		c-0.84,0.2-1.74,0.25-2.61,0.24c-1.53-0.02-3-0.41-4.45-0.89c-1.82-0.61-3.58-1.35-5.3-2.23c-1.21-0.61-2.46-1.15-3.71-1.67
		c-0.88-0.37-1.84-0.54-2.63-1.14c-0.18-0.14-0.43-0.22-0.66-0.25c-2.69-0.41-5.35-0.92-7.91-1.88c-0.31-0.12-0.63-0.11-0.92,0.07
		c-0.66,0.4-1.24,0.17-1.77-0.23c-0.44-0.34-0.91-0.68-1.26-1.1c-1.53-1.89-2.73-3.95-3-6.42c-0.11-0.95-0.24-1.9-0.3-2.86
		c-0.05-0.79-0.09-1.57,0.56-2.24c0.24-0.24,0.24-0.75,0.27-1.14c0.23-2.95,0.27-5.91,0.04-8.86c-0.07-0.87-0.24-1.74-0.42-2.6
		c-0.47-2.27-1.24-4.46-2.04-6.64c-0.11-0.31-0.3-0.56-0.76-0.55c-0.15,0.91-0.31,1.83-0.44,2.75c-0.15,1.12-0.41,2.2-0.88,3.23
		c-0.3,0.67-0.5,1.32-0.24,2.07c0.17,0.47-0.09,0.93-0.27,1.38c-0.59,1.4-1.24,2.77-2.11,4.09c0.18,0.43,0.35,0.86,0.56,1.37
		c-1.81,2.49-3.63,5.01-5.49,7.5c-0.47,0.63-1.09,1.16-1.73,1.84c0.05,0.18,0.21,0.47,0.21,0.77c0,0.19-0.19,0.48-0.37,0.56
		c-3.19,1.54-6.49,2.7-10.11,2.64c-1.44-0.02-2.87-0.04-4.27-0.5c-0.36-0.12-0.78-0.09-1.18-0.09c-0.35,0-0.59,0.22-0.66,0.56
		c-0.05,0.23-0.06,0.48-0.06,0.71c0.03,3.05-0.57,6.04-0.89,9.05c-0.02,0.15-0.11,0.3-0.16,0.45c-0.8,0.26-1-0.7-1.7-0.82
		c-0.34,1.05-0.71,2.1-1.03,3.17c-0.69,2.33-1.75,4.45-3.28,6.35c-0.75,0.93-1.45,1.9-2.16,2.84c-0.37,0-0.68,0-1.1,0
		c-1.81,3.35-4.37,6.26-5.99,9.56c-0.62,0.44-1.04-0.17-1.61,0.05c-1.72,2.42-3.26,5.02-3.74,7.92c-0.47,0.51-0.88,0.17-1.24,0.23
		c-0.13,0.09-0.31,0.14-0.38,0.27c-0.37,0.62-0.72,1.25-1.05,1.88c-0.23,0.44-0.48,0.82-1.04,0.89c-0.14,0.02-0.35,0.11-0.39,0.22
		c-0.44,1.3-2.02,1.51-2.55,2.77c-0.5,1.17-1.25,2.23-1.86,3.35c-2.15,3.95-4.74,7.59-7.73,10.95c-1.22,1.37-2.31,2.86-3.46,4.3
		c-1.39,1.75-2.77,3.52-4.16,5.27c-0.37,0.46-0.56,0.94-0.55,1.53c0.02,1.44-0.01,2.88,0.01,4.31c0.06,4.03-0.61,7.96-1.63,11.84
		c-0.2,0.77-0.42,1.54-0.62,2.24c0.03,0.42,0.26,0.61,0.54,0.79c0.2,0.12,0.35,0.32,0.46,0.42c0.26,0.48,0.05,0.85-0.07,1.22
		c-0.46,1.46-1.19,2.79-1.9,4.13c-1.01,1.9-2.03,3.81-3.06,5.7c-1.08,1.97-1.98,4.01-2.79,6.1c-0.61,1.56-1.35,3.07-2.13,4.56
		c-1.51,2.9-3.05,5.81-4.32,8.81c-1.92,4.52-4.58,8.6-7.12,12.75c-0.37,0.61-0.89,1.13-1.31,1.71c-0.98,1.36-1.96,2.72-2.91,4.11
		c-0.22,0.32-0.35,0.71-0.43,1.09c-0.1,0.47-0.08,0.98,0.39,1.29c0.77,0.51,0.71,1.18,0.36,1.89c-0.24,0.5-0.51,1-0.78,1.49
		c-0.53,0.98-0.97,2-1.27,3.1c0.31,0.15,0.61,0.26,0.87,0.43c0.49,0.31,0.64,0.73,0.42,1.22c-0.86,1.89-1.74,3.77-2.61,5.66
		c-0.33,0.72-0.66,1.44-0.99,2.16c2.03,1.25,1.72,1.19,0.41,2.77c-3.74,4.54-8.22,8.26-12.92,11.74c-3.3,2.45-5.98,5.51-8.59,8.64
		c-0.66,1.36-1.88,2.34-2.47,3.78c-0.54,1.32-1.42,2.5-2.06,3.78c-0.68,1.35-1.48,2.65-1.88,4.14
		C42.68,435.14,41.67,435.76,41.49,436.87z M165.9,150.6c-0.48-0.26-0.78-0.03-0.95,0.36c-0.12,0.28-0.14,0.62-0.18,0.93
		c-0.34,2.63-0.89,5.2-2.02,7.61c-0.23,0.5-0.39,1.02-1.04,1.21c-0.4,0.11-0.55,0.56-0.68,0.94c-0.5,1.53-1.22,2.95-2.05,4.32
		c-1.82,3.01-3.45,6.13-5.67,8.89c-0.15,0.19-0.3,0.38-0.39,0.6c-0.12,0.29-0.31,0.62-0.26,0.9c0.24,1.33-0.24,2.52-0.62,3.74
		c-0.77,2.45-1.23,4.96-1.64,7.48c-0.47,2.84-0.92,5.68-1.43,8.51c-0.21,1.16-0.26,2.41-1.38,3.19c-0.11,0.08-0.15,0.27-0.21,0.42
		c-0.92,2.49-1.54,5.04-1.39,7.73c0.04,0.69,0.33,0.94,1.1,0.89c0.56-0.03,1.12-0.13,1.67-0.1c1.02,0.05,1.87-0.31,2.66-0.91
		c3.85-2.92,7.33-6.18,9.82-10.39c0.69-1.17,1.45-2.3,2.11-3.48c0.82-1.46,1.59-2.95,2.37-4.44c0.22-0.42,0.39-0.87,0.62-1.3
		c0.22-0.42,0.81-0.54,0.92-1.26c-0.1-0.53-0.16-1.26-0.38-1.94c-0.4-1.23-0.52-2.49-0.57-3.77c-0.05-1.2-0.13-2.39-0.19-3.59
		c-0.02-0.49-0.11-0.97-0.48-1.32c-0.55-0.52-0.52-1.13-0.33-1.77c0.23-0.77,0.48-1.52,0.71-2.29c0.39-1.31,0.64-2.62,0.61-4.01
		c-0.02-1.03,0.13-2.07,0.2-3.11c0.03-0.4,0.11-0.8,0.08-1.19c-0.15-1.67-0.3-3.34-0.51-5.01c-0.23-1.83-0.38-3.65-0.38-5.5
		C166.04,152.18,166.17,151.37,165.9,150.6z"/>
	<path class="st0" d="M106.59,128.08c0.3-1.04,0.97-1.94,1.57-2.88c0.6-0.94,1.24-1.86,1.85-2.8c0.17-0.27,0.3-0.56,0.43-0.85
		c0.18-0.39-0.1-0.79-0.53-0.87c-0.38-0.08-0.75,0.33-1.15-0.04c0.11-0.2,0.19-0.43,0.34-0.6c2.09-2.42,4.22-4.81,6.79-6.75
		c1.08-0.82,2.12-1.67,3-2.74c0.55-0.67,1.29-1.19,1.99-1.72c1.04-0.77,1.91-1.69,2.66-2.74c1.11-1.56,2.27-3.09,3.42-4.63
		c0.09-0.11,0.25-0.17,0.39-0.25c0.5,0.1,0.45,0.58,0.59,0.92c0.28,0.7,0.52,1.01,0.68,0.83c0.29-0.34,0.22-0.75,0.17-1.14
		c-0.03-0.24-0.09-0.47-0.16-0.7c-0.49-1.46-0.69-2.95-0.6-4.48c0.06-1.05-0.11-2.07-0.59-3.02c-0.18-0.35-0.25-0.74-0.36-1.12
		c-0.02-0.06,0.05-0.14,0.08-0.22c0.34-0.27,0.75-0.23,1.15-0.24c2.16-0.01,4.31,0.02,6.45,0.38c1.65,0.27,3.34,0.29,5.01,0.41
		c0.48,0.04,0.96,0.02,1.44,0.07c0.75,0.07,1.17,0.51,1.18,1.24c0,0.24-0.01,0.48-0.04,0.72c-0.26,1.71,0.14,3.33,0.55,4.97
		c0.38,1.5,1.08,2.79,2.13,3.96c1.06,1.18,1.96,2.52,2.91,3.81c0.67,0.92,1,2,1.34,3.06c0.88,2.75,1.42,5.56,1.91,8.4
		c0.53,3.09,0.57,6.18,0.52,9.31c-0.05,2.9-0.56,5.71-1.18,8.52c-0.15,0.69-0.48,1.35-0.73,2.02c-0.31,0.82-0.75,1.62-0.9,2.47
		c-0.48,2.78-1.57,5.36-2.55,7.97c-0.08,0.22-0.25,0.43-0.28,0.66c-0.35,2.26-1.57,4.17-2.43,6.23c-0.31,0.75-0.77,1.37-1.3,1.98
		c-1.46,1.69-2.83,3.46-4.25,5.19c-1,1.21-1.54,2.58-1.62,4.16c-0.09,1.76-0.19,3.51-0.4,5.26c-0.34,2.85-0.77,5.7-1.19,8.54
		c-0.07,0.47-0.21,0.93-0.39,1.38c-0.83,2.08-1.79,4.1-3.08,5.94c-1.06,1.5-2.03,3.06-2.89,4.69c-0.45,0.84-1.02,1.62-1.54,2.43
		c-0.73,1.15-1.5,2.27-2.16,3.46c-0.56,0.99-1.26,1.83-2.1,2.59c-1.83,1.67-3.62,3.38-5.42,5.08c-0.46,0.44-0.93,0.85-1.5,1.18
		c-0.61,0.35-1.17,0.83-1.7,1.31c-1.43,1.28-2.85,2.57-4.24,3.89c-1.11,1.06-2.34,1.95-3.71,2.61c-2.58,1.24-4.6,3.14-6.43,5.29
		c-0.58,0.68-1.05,1.41-1.3,2.27c-0.34,1.15-0.69,2.29-0.96,3.45c-0.22,0.94-0.5,1.85-0.92,2.71c-1.61,3.31-3.43,6.48-5.68,9.43
		c-2.13,2.78-4.21,5.64-5.54,8.94c-0.09,0.22-0.21,0.43-0.33,0.64c-0.12,0.23-0.26,0.27-1.05,0.37c-0.06,0.13-0.21,0.29-0.18,0.39
		c0.4,1.04,0.22,2.03-0.23,3.01c-0.23,0.5-0.42,1.02-0.59,1.43c-0.4,0.22-0.58,0.06-0.71-0.14c-0.35-0.53-0.67-1.09-1.04-1.61
		c-1.07-1.46-2.47-2.18-4.34-1.99c-1.29,0.13-2.46,0.62-3.64,0.96c-0.29-0.15-0.35-0.39-0.31-0.62c0.12-0.71,0.23-1.42,0.41-2.11
		c0.31-1.21,0.95-1.79,2.18-1.87c1.91-0.12,3.84-0.25,5.64,0.66c0.05,0.03,0.23-0.14,0.32-0.24c0.03-0.04,0.01-0.16-0.03-0.22
		c-0.54-0.8-1.36-1.09-2.26-1.17c-0.71-0.06-1.44-0.03-2.16-0.05c-0.48-0.01-0.96-0.02-1.44-0.06c-0.5-0.04-0.81-0.52-0.7-1.04
		c0.24-1.1,0.68-2.13,1.22-3.11c1.82-3.28,3.72-6.52,5.94-9.56c0.38-0.52,0.74-1.05,1.05-1.6c0.7-1.27,1.55-2.46,2.67-3.37
		c1.99-1.6,2.52-3.8,2.82-6.13c0.13-1.03,0.2-2.07,0.27-3.1c0.2-2.8,0.96-5.5,1.39-8.26c0.33-2.13,0.55-4.27,0.85-6.41
		c0.3-2.13,0.62-4.27,0.98-6.39c0.26-1.57,0.57-3.14,0.9-4.71c0.31-1.48,0.65-2.95,1.22-4.38c0.47-1.18,0.79-2.43,1.13-3.66
		c0.34-1.25,0.81-2.43,1.61-3.45c0.4-0.52,0.67-1.05,0.77-1.71c0.09-0.54,0.33-1.06,0.56-1.57c1.45-3.16,2.14-6.52,2.74-9.9
		c0.33-1.89,0.59-3.79,0.85-5.69c0.18-1.34,0.25-2.71,0.48-4.04c0.24-1.41,0.59-2.81,0.95-4.21c0.44-1.71,0.73-3.44,0.92-5.19
		c0.1-0.88,0.18-1.77-0.04-2.62c-0.22-0.81-0.1-1.56,0.08-2.35c0.49-2.1,0.76-4.25,1.5-6.29c0.1-0.26,0.06-0.68-0.09-0.91
		c-0.38-0.55-0.3-1.03-0.01-1.56c0.43-0.77,0.85-1.54,1.24-2.33c0.25-0.5,0.43-1.03,0.65-1.54c0.39-0.9,0.12-1.54-0.76-1.95
		C106.67,128.32,106.66,128.22,106.59,128.08z M127.29,113.55c0.06-0.03,0.13-0.04,0.18-0.08c0.03-0.03,0.03-0.1,0.04-0.14
		c-0.06,0.09-0.12,0.17-0.18,0.26c-0.06,0.04-0.13,0.06-0.18,0.11c-0.03,0.03-0.02,0.1-0.03,0.16
		C127.18,113.75,127.23,113.65,127.29,113.55z M124.07,157.11c-0.11-0.08-0.21-0.21-0.33-0.23c-0.11-0.02-0.24,0.08-0.35,0.14
		c-0.01,0.01,0.02,0.14,0.06,0.18c0.1,0.09,0.22,0.16,0.33,0.24c1.6,1.28,3.2,2.56,4.79,3.83c0.57,0.53,1.13,1.06,1.71,1.58
		c0.11,0.09,0.28,0.13,0.43,0.16c0.06,0.01,0.14-0.04,0.19-0.1c0.04-0.05,0.08-0.15,0.06-0.19c-0.46-0.85-1.24-1.35-2.04-1.83
		C127.45,159.46,125.89,158.12,124.07,157.11z M118.69,135.46c-0.09,0.56-0.17,1.27-0.33,1.96c-0.31,1.39-0.66,2.78-0.98,4.17
		c-0.05,0.23-0.04,0.47-0.03,0.7c0,0.06,0.09,0.17,0.15,0.17c0.13,0.01,0.3,0.01,0.4-0.07c0.12-0.09,0.23-0.24,0.26-0.38
		c0.78-3.16,1.73-6.27,2.2-9.5c0.05-0.31,0.09-0.64,0.22-0.92c0.72-1.5,0.77-3.23,1.64-4.69c0.04-0.07-0.09-0.26-0.17-0.37
		c-0.02-0.03-0.18-0.01-0.22,0.04c-0.69,0.68-1.32,1.5-1.47,2.41c-0.25,1.45-0.92,2.69-1.44,4.02
		C118.62,133.76,118.31,134.49,118.69,135.46z M135.22,146.54c0.32-0.04,0.64-0.08,0.95-0.13c0.78-0.13,1.18-0.78,1-1.57
		c-0.15-0.68-0.56-1.14-1.21-1.32c-0.44-0.13-0.93-0.17-1.39-0.15c-1.19,0.03-1.65,0.71-1.35,1.9c0.15,0.57,0.47,0.99,1.08,1.11
		C134.61,146.44,134.92,146.48,135.22,146.54z M109.27,143.9c0.16-0.04,0.63-0.11,1.07-0.28c0.38-0.15,0.63-0.49,0.67-0.92
		c0.05-0.52-0.16-0.97-0.6-1.21c-0.77-0.42-1.6-0.7-2.51-0.64c-0.36,0.03-0.79,0.38-0.83,0.74c-0.04,0.31-0.07,0.64-0.02,0.95
		c0.13,0.82,0.66,1.3,1.43,1.36C108.63,143.91,108.79,143.9,109.27,143.9z M135.29,105.21c0.38-0.19,0.56-0.54,0.74-0.89
		c1.02-1.99,2.04-3.97,3.06-5.96c0.11-0.21,0.23-0.42,0.31-0.64c0.06-0.15,0.07-0.31,0.08-0.47c0-0.06-0.06-0.17-0.11-0.19
		c-0.13-0.04-0.35-0.11-0.41-0.05c-0.94,1-1.53,2.23-2.18,3.41c-0.64,1.19-1.24,2.41-1.82,3.64c-0.12,0.26-0.08,0.61-0.04,0.91
		C134.93,105.06,135.16,105.13,135.29,105.21z M140.76,108.32c0-0.04,0-0.08,0-0.12c0.95,0,1.91,0.01,2.86-0.01
		c0.1,0,0.26-0.2,0.26-0.31c0.01-0.12-0.11-0.29-0.22-0.37c-0.12-0.09-0.29-0.12-0.45-0.13c-1.85-0.18-3.66,0.04-5.44,0.53
		c-0.07,0.02-0.14,0.09-0.18,0.15c-0.04,0.06-0.05,0.16-0.04,0.23c0.01,0.07,0.08,0.18,0.12,0.18
		C138.71,108.42,139.74,108.37,140.76,108.32z M111.36,155.5c-0.2-0.38-0.56-0.27-0.82-0.18c-1.63,0.61-3.26,1.25-4.88,1.91
		c-0.29,0.12-0.54,0.33-0.78,0.53c-0.1,0.08-0.18,0.31-0.13,0.4c0.05,0.1,0.29,0.2,0.39,0.16c2.05-0.86,4.09-1.74,6.13-2.62
		C111.31,155.68,111.33,155.57,111.36,155.5z M110.08,185.87c-0.13-0.21-0.19-0.4-0.3-0.46c-0.11-0.05-0.35-0.02-0.42,0.07
		c-0.53,0.61-0.86,1.33-1.01,2.12c-0.02,0.11,0.12,0.26,0.22,0.37c0.04,0.04,0.18,0.05,0.23,0.01
		C109.57,187.46,109.86,186.66,110.08,185.87z M125.71,107.55c-0.05-0.04-0.11-0.14-0.17-0.13c-0.73,0.06-1.36,0.33-1.9,0.84
		c-0.05,0.05-0.11,0.18-0.09,0.21c0.09,0.1,0.23,0.27,0.31,0.25c0.67-0.19,1.37-0.36,1.84-0.95
		C125.74,107.71,125.71,107.62,125.71,107.55z"/>
	<path class="st0" d="M14.18,422.19c-0.19-0.07-0.41-0.17-0.64-0.22c-0.38-0.07-0.58-0.3-0.49-0.66c0.1-0.38,0.29-0.74,0.46-1.1
		c0.8-1.66,1.58-3.32,1.73-5.19c0.04-0.52,0.37-0.88,0.78-1.15c0.87-0.57,1.74-1.14,2.63-1.67c2.55-1.52,4.93-3.26,7.22-5.13
		c1.8-1.46,3.53-3,5.29-4.51c2.63-2.24,4.79-4.92,7.08-7.48c0.47-0.53,0.83-1.17,1.19-1.79c0.87-1.52,1.71-3.07,2.58-4.6
		c0.98-1.73,1.92-3.48,3.14-5.08c0.87-1.13,1.52-2.43,2.21-3.69c0.26-0.48,0.32-1.06,0.51-1.58c0.6-1.59,1.32-3.09,2.89-3.97
		c0.58-0.32,0.96-0.83,1.3-1.38c0.24-0.39,0.37-0.9,0.93-1.01c0.35,0.17,0.26,0.55,0.37,0.82c0.14,0.33,0.4,0.55,0.73,0.48
		c1.38-0.32,2.88-0.14,4.11-1.04c0.19-0.14,0.46-0.36,0.63-0.31c1.55,0.41,2.46-0.93,3.74-1.28c1.02-0.29,1.93,0.96,3.11,0.79
		c0.16-0.02,0.39,0.23,0.54,0.39c0.76,0.84,0.75,0.84,2.04,0.94c0.29,0.61,0.62,1.23,0.87,1.88c0.26,0.66,0.44,1.35,0.71,2.17
		c0.3,0.19,0.69,0.46,1.1,0.7c0.58,0.34,0.95,0.83,1.25,1.41c0.33,0.61,0.35,1.25,0.05,1.84c-0.36,0.71-0.78,1.4-1.27,2.03
		c-1.39,1.75-2.83,3.46-4.25,5.19c-0.25,0.3-0.48,0.63-0.69,0.96c-0.11,0.16-0.04,0.31,0.15,0.39c0.07,0.03,0.16,0.07,0.21,0.05
		c0.29-0.12,0.59-0.23,0.84-0.41c1.05-0.75,1.9-1.71,2.72-2.69c0.46-0.55,0.9-1.12,1.36-1.67c0.29-0.34,0.66-0.46,0.81-0.24
		c0.17,0.25,0.38,0.55,0.38,0.83c0,0.38-0.14,0.78-0.29,1.14c-0.48,1.18-0.99,2.35-1.48,3.54c-0.18,0.44-0.37,0.89-0.48,1.35
		c-0.09,0.38-0.17,0.82-0.05,1.16c0.11,0.34,0.48,0.59,0.77,0.93c0.12,0.37-0.08,0.72-0.25,1.08c-0.75,1.59-1.5,3.18-2.22,4.78
		c-0.54,1.2-0.53,1.21-0.09,2.79c-0.2,0.28-0.41,0.61-0.67,0.91c-1.74,1.99-3.65,3.8-5.71,5.46c-1.93,1.55-3.86,3.1-5.85,4.58
		c-1.87,1.39-3.45,3.08-5.06,4.73c-1.17,1.2-2.07,2.65-3.47,3.62c-0.54,0.88-1.11,1.75-1.63,2.64c-0.32,0.55-0.56,1.15-0.85,1.71
		c-0.15,0.28-0.31,0.56-0.66,0.66c-0.13-0.06-0.27-0.13-0.41-0.2c-0.61-0.34-0.98-0.36-1.26-0.01c-0.45,0.56-0.89,1.13-1.28,1.73
		c-0.92,1.4-1.8,2.83-2.71,4.24c-0.56,0.87-1.04,1.78-2.17,2.11c-0.42,0.12-0.75,0.57-1.09,0.91c-0.97,0.95-1.91,1.93-2.88,2.88
		c-0.28,0.27-0.63,0.48-0.96,0.69c-0.23,0.13-0.49,0.07-0.63-0.15c-0.12-0.19-0.17-0.43-0.24-0.66c-0.1-0.32-0.28-0.63-0.61-0.67
		c-0.95-0.1-1.07-0.78-1.22-1.52c-0.12-0.57-0.49-0.74-1.07-0.64c-0.08,0.01-0.16,0.01-0.23,0.05c-1.01,0.46-1.84,0.51-2.24-0.81
		c-0.07-0.25-0.43-0.53-0.7-0.58c-0.69-0.13-1.16-0.48-1.52-1.05c-0.23-0.36-0.6-0.61-1-0.57c-1.06,0.13-1.82-0.47-2.63-0.95
		c-0.2-0.12-0.41-0.24-0.68-0.4c-0.1-1.02-0.72-1.88-1.13-2.82c-0.09-0.22-0.18-0.51-0.36-0.61c-0.98-0.54-1.49-1.35-1.61-2.45
		c-0.01-0.13-0.17-0.31-0.3-0.34c-0.96-0.27-1.1-1.03-1.18-1.85C14.4,422.5,14.28,422.36,14.18,422.19z"/>
	<path class="st0" d="M48.69,332.41c-0.39-0.04-0.57-0.01-0.69-0.08c-0.58-0.31-1.09-0.18-1.55,0.21c-1.08,0.95-2.08,1.98-2.92,3.16
		c-0.46,0.65-0.98,1.26-1.49,1.87c-0.32,0.39-0.73,0.6-1.27,0.49c-0.63-0.12-1.08,0.2-1.45,0.65c-0.6,0.73-1.18,1.49-1.72,2.17
		c-0.38,0.11-0.55-0.06-0.66-0.27c-0.29-0.57-0.52-1.17-0.83-1.72c-0.34-0.61-0.87-0.76-1.64-0.54c-0.23,0.06-0.45,0.16-0.67,0.22
		c-0.06,0.02-0.15-0.03-0.34-0.08c-0.1-0.31-0.23-0.68-0.34-1.06c-0.21-0.76-0.35-1.5-0.97-2.13c-0.48-0.48-0.66-1.25-0.98-1.88
		c-0.19-0.38-0.21-0.77-0.12-1.16c0.15-0.62,0.36-1.23,0.53-1.84c0.13-0.46,0.33-0.92,0.34-1.39c0.04-2.55,1.27-4.75,2.04-7.09
		c0.1-0.29,0.29-0.61,0.54-0.77c1.06-0.68,1.4-1.73,1.47-2.87c0.06-0.92,0.37-1.72,0.85-2.46c1.75-2.7,2.97-5.65,4.25-8.58
		c0.13-0.29,0.26-0.59,0.37-0.88c0.92-2.39,2-4.7,3.61-6.72c0.25-0.31,0.46-0.66,0.62-1.02c0.08-0.19,0.08-0.49-0.02-0.68
		c-0.17-0.33-0.51-0.29-0.84-0.25c-0.36,0.05-0.59,0.56-1.13,0.24c1.55-3.36,4.08-6.04,6.09-9.03c0.4-0.09,0.64,0.1,0.89,0.31
		c0.98,0.82,1.96,1.65,2.96,2.44c0.24,0.19,0.56,0.29,0.86,0.38c0.11,0.03,0.3-0.08,0.41-0.18c0.19-0.17,0.28-0.41,0.14-0.64
		c-0.16-0.26-0.36-0.53-0.59-0.73c-1.63-1.41-3.34-2.72-4.74-4.38c-0.4-0.48-1-0.78-1.48-1.21c-0.65-0.59-1.24-1.24-1.28-2.3
		c0.85-0.01,1.42-0.5,1.88-1.19c1.06-1.6,1.92-3.29,2.52-5.22c0.38-0.23,0.87-0.49,1.31-0.82c0.51-0.37,0.35-1.03,0.65-1.71
		c0.81-0.6,1.9-1.15,2.54-2.19c0.04-0.06,0.12-0.12,0.19-0.14c1.23-0.3,1.34-1.2,1.2-2.24c-0.12-0.9,0.15-1.72,0.42-2.47
		c0.51-0.24,0.68,0.08,0.83,0.33c0.24,0.39,0.54,0.54,0.99,0.47c0.57-0.08,0.92,0.23,1.03,0.76c0.32,1.56,0.62,3.13,0.93,4.7
		c0.09,0.47,0.18,0.94,0.31,1.4c0.24,0.8,0.66,1.02,1.43,0.77c0.3-0.1,0.61-0.19,0.91-0.3c0.29-0.12,0.57-0.27,0.81-0.38
		c0.82,0.32,0.54,1.38,1.36,1.68c0.64,0.14,1.01-0.71,1.7-0.58c0.34,0.3,0.3,0.72,0.4,1.09c0.08,0.31,0.11,0.71,0.31,0.89
		c0.99,0.84,0.9,1.97,0.94,3.08c0.11,3.03,0.23,6.06,0.39,9.09c0.09,1.72-0.25,3.33-0.97,4.88c-0.44,0.94-0.77,1.9-0.99,2.93
		c-0.21,1-0.74,1.93-1.17,2.87c-0.66,1.45-1.34,2.9-2.06,4.32c-0.68,1.36-1.4,2.69-2.13,4.02c-0.58,1.06-1.25,2.01-2.43,2.54
		c-0.48,0.22-0.9,0.68-1.24,1.1c-1.67,2.04-3.23,4.16-4.6,6.42c-0.34,0.57-0.57,1.16,0,1.74c0.31,0.32,0.31,0.72,0.22,1.12
		c-0.43,1.78-0.9,3.56-1.31,5.35c-0.13,0.56-0.34,1.05-0.74,1.47C51.29,329.71,50.02,331.03,48.69,332.41z"/>
	<path class="st0" d="M176.05,208.79c0.43-0.61,1.27-0.95,1.42-1.82c0.02-0.13,0.18-0.26,0.3-0.35c0.3-0.22,0.81-0.07,0.98-0.56
		c0.13-0.37,0.28-0.73,0.4-1.05c0.76-0.18,1.04,0.47,1.54,0.66c0.45,0.17,0.92,0.27,1.36,0.45c1.01,0.4,2.02,0.14,2.99-0.09
		c0.4-0.1,0.7-0.28,1.08-0.01c0.32,0.22,0.74,0.35,0.98,0.63c0.33,0.4,0.7,0.56,1.18,0.7c0.96,0.28,1.79,1.33,1.86,2.25
		c0.06,0.8,0.06,1.6,0.05,2.39c-0.01,3.27-0.04,6.55,0.34,9.81c0.16,1.35,0.31,2.7,0.54,4.03c0.22,1.28,0.78,2.41,1.63,3.42
		c1.61,1.92,3.51,3.47,5.62,4.8c3.45,2.18,7.1,3.99,10.71,5.87c1.13,0.59,2.37,0.94,3.55,1.42c0.66,0.27,1.33,0.55,1.97,0.87
		c0.45,0.22,0.74,0.61,0.86,1.1c0.14,0.57,0.12,1.13-0.36,1.54c-0.84,0.73-1.69,1.44-2.61,2.21c-2.59-0.72-5.2-1.43-7.8-2.18
		c-0.69-0.2-1.35-0.5-2.09-0.48c-0.33,0.01-0.63,0.08-0.83,0.38c-0.18,0.27-0.17,0.89,0.07,1.13c0.33,0.33,0.72,0.61,1.08,0.92
		c0.23,0.2,0.25,0.62,0.06,0.88c-0.54,0.73-1.23,1.24-2.1,1.5c-0.55,0.17-1.09,0.15-1.63-0.1c-1.6-0.72-3.24-1.36-4.81-2.14
		c-1.02-0.52-2.07-0.83-3.19-0.95c-2.15-0.23-4.24-0.76-6.34-1.25c-0.7-0.16-1.38-0.43-2.11-0.35c-0.82,0.09-1.39-0.28-1.85-0.88
		c-1.41-1.87-2.59-3.85-2.65-6.29c-0.01-0.4-0.06-0.83,0.06-1.19c0.74-2.07,0.61-4.26,0.81-6.39c0.17-1.82,0.08-3.67,0.02-5.51
		c-0.03-0.95-0.14-1.92-0.35-2.85c-0.57-2.57-1.21-5.12-1.83-7.68c-0.07-0.31-0.16-0.64-0.33-0.89
		C175.83,211.54,175.81,210.21,176.05,208.79z"/>
	<path class="st0" d="M49.95,230.08c2.24-0.87,4.06-1.7,5.96-2.29c2.35-0.72,4.3-2.09,6.25-3.48c0.59-0.42,1.17-0.82,1.83-1.1
		c1.9-0.83,3.81-1.65,5.71-2.49c0.29-0.13,0.63-0.26,0.8-0.5c0.6-0.87,1.5-1.16,2.43-1.42c2.48-0.7,4.71-1.98,6.99-3.12
		c1.04-0.52,1.9-1.45,2.78-2.25c0.89-0.8,1.7-1.69,2.57-2.52c0.28-0.27,0.63-0.48,0.96-0.7c0.18-0.13,0.56,0.06,0.55,0.27
		c-0.01,0.64-0.02,1.28-0.07,1.91c-0.1,1.35-0.22,2.71-0.33,4.06c-0.19,2.39-0.37,4.78-0.55,7.17c-0.06,0.84-0.38,1.52-1,2.1
		c-1.24,1.15-2.24,2.48-3.11,3.94c-0.61,1.03-1.33,1.99-2.03,2.97c-1.49,2.08-2.84,4.25-4.02,6.52c-0.48,0.92-1.01,1.81-1.5,2.72
		c-0.53,0.99-0.83,1.15-1.92,0.65c-2.1-0.98-4.22-1.94-6.23-3.07c-4.18-2.35-8.29-4.81-12.44-7.23
		C52.49,231.58,51.4,230.93,49.95,230.08z"/>
	<path class="st0" d="M118.17,50.98c0.62-0.89,1.37-1.22,1.95-1.72c0.67-0.57,1.35-1.12,1.78-1.92c0.23-0.44,0.12-1.03-0.3-1.26
		c-0.98-0.53-1.91-1.12-3.05-1.34c-1.09-0.21-2.14-0.63-3.18-1.02c-0.43-0.16-0.93-0.26-1.2-0.71c-0.05-0.46,0.32-0.51,0.6-0.57
		c2.35-0.51,4.55-1.48,6.77-2.35c0.52-0.2,1.02-0.46,1.5-0.73c0.85-0.46,0.89-0.89,0.24-1.69c-0.35-0.43-0.66-0.89-0.97-1.34
		c-0.03-0.04,0.03-0.15,0.05-0.23c0.42-0.3,0.91-0.17,1.38-0.21c1.59-0.15,3.18-0.3,4.76-0.46c0.4-0.04,0.77-0.19,1.05-0.51
		c0.19-0.22,0.16-0.46,0.04-0.65c-0.12-0.19-0.32-0.37-0.52-0.46c-1.1-0.49-2.06-1.18-2.89-2.06c-0.04-0.3,0.15-0.46,0.39-0.45
		c2.63,0.1,5.26-0.01,7.89-0.01c0.95,0,1.9,0.22,2.86,0.29c1.04,0.08,1.16-0.04,1.61-1.31c0.21,0.09,0.45,0.15,0.63,0.28
		c3.45,2.37,7.36,3.39,11.45,3.87c0.24,0.03,0.48,0.04,0.72,0.05c0.89,0.03,1.75,0.09,2.39,0.85c0.85,1,1.54,2.03,1.43,3.43
		c-0.16,1.94-0.68,3.76-1.77,5.39c-0.23,0.34-0.51,0.65-0.95,0.66c-2.03,0.05-3.88,0.88-5.82,1.3c-0.93,0.2-1.87,0.41-2.81,0.59
		c-0.39,0.08-0.83,0.11-1.14-0.18c-1.01-0.97-2.41-0.71-3.59-1.12c-0.97-0.33-2.05-0.06-3.08,0.15c-1.56,0.33-3.13,0.62-4.69,0.93
		c-1.82,0.36-3.49,1.11-5.05,2.11c-1.77,1.14-3.69,1.87-5.75,2.28C120.1,51.01,119.32,51.14,118.17,50.98z"/>
	<path class="st0" d="M92.5,85.35c0.65,0.4,0.96,1.04,1.26,1.69c1.68,3.73,2.82,7.59,3.33,11.68c0.57,4.48,0.27,4.71-0.94,8.42
		c-0.67,2.06-1.44,4.06-2.99,5.66c-0.15,0.16-0.3,0.46-0.25,0.64c0.25,0.87-0.24,1.54-0.5,2.28c-0.51,1.51-1.03,3.02-1.49,4.55
		c-0.55,1.83-0.98,3.7-1.57,5.52c-0.73,2.28-1.5,4.54-2.88,6.55c-0.45,0.65-0.73,1.42-1.1,2.12c-0.17,0.33-0.81,0.36-1.04,0.07
		c-0.1-0.12-0.2-0.26-0.25-0.4c-0.29-0.88-0.96-1.25-1.83-1.27c-0.42-0.01-0.79-0.04-1.07-0.38c-0.37-0.47-0.85-0.67-1.45-0.69
		c-0.38-0.01-0.87-0.05-1.12-0.29c-0.45-0.43-0.86-0.31-1.31-0.16c-0.73,0.24-1.13-0.37-1.66-0.65c-0.25-0.99-1.05-1.5-1.81-1.98
		c0.03-0.16,0.02-0.25,0.06-0.32c1.5-2.56,2.42-5.38,3.62-8.07c1.28-2.86,3.08-5.39,4.81-8.04c0.36,0.06,0.66,0.15,0.96,0.16
		c0.36,0,0.57-0.25,0.68-0.57c0.05-0.15,0.04-0.32,0.02-0.47c-0.41-3.17-0.94-6.32-2.38-9.23c-0.17-0.35-0.41-0.69-0.15-1.21
		c0.92,0.05,1.77,0.48,2.67,0.72c1.08,0.29,2.15,0.59,3.3,0.5c0.48-0.04,0.94-0.11,1.37-0.35c0.65-0.38,1.15-0.85,1.24-1.65
		c0.03-0.31,0.1-0.62,0.16-1.01c0.33-0.18,0.69-0.34,1.01-0.55c1.09-0.73,1.37-1.75,0.73-2.89c-0.31-0.55-0.72-1.04-1.05-1.49
		c-0.04-0.46,0.22-0.64,0.47-0.84c1.43-1.1,2.02-2.63,2.25-4.34c0.09-0.64-0.02-1.25-0.44-1.81c-0.33-0.44-0.56-0.95-0.8-1.45
		C92.34,85.68,92.45,85.51,92.5,85.35z"/>
	<path class="st0" d="M120.36,82.07c2.52,0.37,4.62-0.68,6.55-2.23c0.5-0.4,1.03-0.75,1.52-1.17c0.99-0.86,1.63-1.96,1.92-3.24
		c0.04-0.19-0.1-0.45-0.22-0.64c-0.13-0.2-0.69-0.08-0.86,0.15c-0.05,0.06-0.09,0.13-0.14,0.19c-0.04,0.07-0.1,0.13-0.13,0.2
		c-0.95,2.29-2.97,3.49-4.91,4.74c-1.11,0.71-2.35,0.93-3.68,0.59c-1.94-0.49-3.89-0.86-5.88-1.11c-0.15-0.02-0.29-0.13-0.43-0.2
		c-0.23-0.27-0.22-0.58-0.16-0.9c0.22-1.2,0.24-2.37-0.36-3.5c-0.24-0.46,0.05-0.9,0.61-1.09c0.45-0.16,0.92-0.27,1.37-0.44
		c0.45-0.17,0.95-0.29,1.3-0.58c0.94-0.77,2.01-0.91,3.15-0.82c1.91,0.14,3.84,0.17,5.72,0.49c2.61,0.43,5.1,1.32,7.28,2.91
		c1.86,1.36,3.16,3.11,3.85,5.34c0.79,2.53,1.94,4.89,3.27,7.18c0.44,0.76,0.86,1.53,1.25,2.32c0.29,0.58-0.06,1.11-0.74,1.17
		c-1.6,0.14-3.2,0.07-4.78-0.17c-5.17-0.78-10.34-0.82-15.51-0.01c-2.35,0.36-4.62,0.01-6.88-0.52c-1.48-0.35-2.57-1.24-3.2-2.66
		c-0.21-0.47-0.04-1.01,0.44-1.18c1.13-0.41,2.25-0.83,3.39-1.18c1.7-0.52,3.25-1.31,4.64-2.43
		C119.25,82.86,119.78,82.5,120.36,82.07z"/>
	<path class="st0" d="M172.78,213.22c-0.04,0.25-0.12,0.64-0.16,1.03c-0.27,2.5-1.11,4.82-2.32,7c-0.33,0.59-0.55,1.16-0.17,1.8
		c0.19,0.32,0.11,0.63-0.05,0.91c-0.35,0.62-0.71,1.25-1.13,1.82c-0.38,0.51-0.84,0.96-1.26,1.44c-0.71,0.83-0.7,0.92,0.03,2.06
		c0.08,0.44-0.18,0.76-0.4,1.08c-0.54,0.79-1.13,1.55-1.66,2.35c-1.08,1.61-2.38,2.99-4.03,4.05c-0.46,0.3-0.98,0.64-1.23,1.1
		c-0.39,0.72-1,1.01-1.69,1.21c-3.02,0.9-6.07,1.42-9.21,0.63c-0.46-0.12-0.92-0.25-1.37-0.41c-0.57-0.21-0.94-0.6-0.95-1.24
		c-0.03-1.68-0.23-3.34-0.44-5.01c-0.22-1.75-0.03-3.5,0.48-5.12c0.61-0.54,1.32-0.53,1.89-0.38c2.46,0.63,4.74-0.14,7.05-0.79
		c1-0.28,1.99-0.58,2.96-0.93c2.31-0.83,4.26-2.22,5.83-4.08c1.23-1.46,2.35-3.03,3.48-4.58c0.95-1.31,1.53-2.81,1.99-4.34
		c0.62-2.06,1.31-4.11,1.68-6.24c0.04-0.23,0.12-0.47,0.44-0.51c0.52,0.31,0.42,0.94,0.62,1.43c0.21,0.51,0.35,1.06,0.48,1.6
		c0.11,0.46,0.13,0.95,0.21,1.42c0.1,0.54,0.23,1.08,0.33,1.56C173.95,212.8,173.11,212.53,172.78,213.22z"/>
	<path class="st0" d="M166.69,54.18c-0.74-1.34-0.74-1.34-1.71-2.03c-0.05-0.28,0.1-0.45,0.33-0.57c1.92-0.97,3.86-1.93,5.77-2.91
		c1.28-0.66,2.55-1.34,3.8-2.04c1.16-0.65,1.15-0.67,1.52-2.36c1.26-0.91,2.62-1.89,3.98-2.86c0.9-0.65,1.89-1.21,2.31-2.35
		c0.07-0.2,0.29-0.39,0.49-0.51c2.51-1.56,4.98-3.19,7.65-4.46c0.12-0.06,0.31,0.01,0.46,0.02c0.36,0.43,0.22,0.92,0.13,1.37
		c-0.27,1.41-0.49,2.84-0.9,4.22c-0.68,2.3-1.15,4.65-2.03,6.89c-0.64,1.62-1.63,2.9-3.08,3.86c-1.59,1.06-3.11,2.25-4.7,3.31
		c-1.53,1.03-3.17,1.84-5,2.25c-1.12,0.25-2.19,0.32-3.31,0.1c-1.96-0.38-3.95-0.65-5.88,0.02
		C166.03,55.44,166.85,55.07,166.69,54.18z"/>
	<path class="st0" d="M112.44,266.67c-0.05,0.93-0.16,1.71-0.44,2.47c-0.53,1.43-1.25,2.76-2.25,3.91
		c-1.26,1.43-2.82,2.24-4.81,2.23c-2.96,0-5-2.71-4.16-5.56c0.52-1.76,1.23-3.45,2.21-5.01c0.38-0.6,0.78-1.21,1.27-1.72
		c0.91-0.95,2.02-1.47,3.38-1.54c2.39-0.12,4.62,2.06,4.74,4.16C112.4,266.01,112.42,266.41,112.44,266.67z"/>
	<path class="st0" d="M131.54,255.36c-0.04,0.25-0.1,0.97-0.28,1.65c-0.45,1.72-1.26,3.28-2.23,4.75c-1.21,1.84-2.95,2.49-5.22,1.94
		c-1.87-0.45-3.42-2.34-3.58-4.35c-0.08-0.96-0.01-1.9,0.37-2.82c0.58-1.41,1.28-2.76,2.13-4.01c0.74-1.09,1.74-1.83,3.05-2.18
		c3-0.79,5.68,1.19,5.77,4.3C131.54,254.73,131.54,254.81,131.54,255.36z"/>
	<path class="st0" d="M114.74,245.72c-0.03,1.51-0.47,2.69-1.24,3.74c-1.18,1.62-3.58,2.13-5.35,1.19
		c-1.16-0.62-1.84-2.04-1.57-3.45c0.32-1.67,1.11-3.14,2.22-4.41c1.15-1.32,3.86-1.57,5.16,0.44
		C114.49,244.04,114.78,244.94,114.74,245.72z"/>
	<path class="st0" d="M135.85,232.68c-0.11,1.51-0.55,3.03-1.63,4.27c-0.97,1.11-2.22,1.48-3.66,1.02
		c-2.56-0.82-3.62-3.73-2.12-5.97c0.48-0.72,1.09-1.37,1.71-1.97c1.11-1.07,2.47-1.07,3.78-0.51
		C135.21,230.06,135.8,231.18,135.85,232.68z"/>
	<path class="st0" d="M180.97,140.32c0.04,0.96-0.16,1.79-0.68,2.53c-0.5,0.72-1.53,1.03-2.34,0.71c-2.5-0.99-3.35-3.9-2.71-5.68
		c0.51-1.44,1.61-2.1,2.93-2.52c0.47-0.15,0.97,0.03,1.32,0.38c0.32,0.33,0.69,0.71,0.82,1.14
		C180.64,138.02,181.05,139.16,180.97,140.32z"/>
	<path class="st0" d="M87.48,81.64c-1.25,2.17-1.52,4.5-1.38,6.92c0.01,0.24,0.04,0.48,0.03,0.71c-0.01,0.8-0.55,1.2-1.25,0.86
		c-1.3-0.62-2.62-1.15-4.04-1.43c-0.7-0.14-1.41-0.21-2.12-0.34c-0.13-0.02-0.28-0.17-0.33-0.3c-0.05-0.12-0.04-0.35,0.05-0.43
		c0.4-0.39,0.82-0.75,1.24-1.1c0.92-0.76,1.89-1.47,2.56-2.49c0.28-0.43,0.69-0.67,1.16-0.76C84.84,82.99,86.11,82.34,87.48,81.64z"
		/>
	<path class="st0" d="M173.07,123.27c0.02-0.92,0.25-1.6,0.63-2.22c0.69-1.15,1.98-1.42,3.08-0.66c1.65,1.15,2.16,3.61,1.09,5.33
		c-0.37,0.59-0.95,0.84-1.62,0.85c-1.44,0.01-2.7-1.03-3.07-2.54C173.1,123.72,173.09,123.4,173.07,123.27z"/>
	<path class="st0" d="M153.66,78.67c-0.42-0.07-0.82-0.11-1.2-0.21c-0.76-0.18-1.27-0.66-1.41-1.44c-0.15-0.84,0.04-1.59,0.79-2.1
		c1-0.68,2.1-0.67,3.22-0.42c0.22,0.05,0.43,0.22,0.59,0.39c1.07,1.17,0.64,3.01-0.83,3.53C154.44,78.55,154.03,78.59,153.66,78.67z
		"/>
	<path class="st0" d="M167.68,133.82c0-0.61,0.21-1.27,0.68-1.86c0.44-0.54,1.26-0.74,1.95-0.46c0.62,0.25,1.06,1.08,0.9,1.77
		c-0.11,0.46-0.25,0.92-0.43,1.36c-0.33,0.76-1.15,1.14-1.98,0.94C168.11,135.4,167.66,134.76,167.68,133.82z"/>
	<path class="st0" d="M146.93,78.94c0,1.01-0.6,1.5-1.44,1.38c-0.78-0.11-1.33-0.54-1.56-1.29c-0.11-0.37-0.11-0.79-0.11-1.18
		c-0.01-0.5,0.36-0.91,0.85-1c1.06-0.21,1.95,0.34,2.17,1.35C146.91,78.5,146.92,78.82,146.93,78.94z"/>
	<path class="st0" d="M161.11,72c-0.08,0.14-0.14,0.39-0.3,0.52c-0.52,0.43-1.47,0.42-1.97-0.04c-0.37-0.34-0.5-0.81-0.32-1.3
		c0.07-0.21,0.22-0.47,0.39-0.54C159.88,70.25,161.01,70.53,161.11,72z"/>
</g>
</svg>
