<?xml version="1.0" encoding="utf-8"?>
<!-- Generator: Adobe Illustrator 24.1.2, SVG Export Plug-In . SVG Version: 6.00 Build 0)  -->
<svg version="1.1" id="Layer_1" xmlns="http://www.w3.org/2000/svg" xmlns:xlink="http://www.w3.org/1999/xlink" x="0px" y="0px"
	 viewBox="0 0 717.67 875.1" style="enable-background:new 0 0 717.67 875.1;" xml:space="preserve">
<style type="text/css">
	.st0{fill:#1A1A1A;}
</style>
<g>
	<path d="M147.27,451.48c-14.17-4.55-27.4-8.78-40.61-13.11c-0.28-0.09-0.23-1.18-0.43-2.34c2.63-2.79,5.87-1.67,8.96-0.72
		c9.48,2.9,18.97,2.61,30.02,0.44c-5.63-3.25-10.19-5.73-14.59-8.48c-4.87-3.04-8.75-7.2-12.11-11.79
		c-3.15-4.32-5.82-8.96-7.73-13.95c-2.03-5.29-3.95-10.63-4.71-16.29c-0.69-5.16-1.28-10.34-1.88-15.18
		c2.41-1.06,3.23-0.42,3.96,0.94c2.86,5.29,7.81,8.45,13.06,10.34c11.9,4.29,24.14,6.86,36.7,2.27c3.44-1.26,6.89-2.49,10.34-3.74
		c1.25-0.46,2.79-1.68,3.67-1.31c6.91,2.89,11.2-2.18,15.91-5.24c11.75-7.63,22.74-16.31,33.57-25.19
		c6.23-5.11,11.38-11.23,15.84-17.91c4.99-7.48,9.63-15.21,14.87-22.51c2.74-3.82,3.51-7.66,3.24-12.16
		c-1.35-22.62-2.55-45.25-3.84-67.87c-1.85-32.62-2.48-65.27-3.14-97.92c-0.38-18.67-1.23-37.3-2.47-55.93
		c-0.43-6.47-0.51-6.46-4.93-11.39c2.64-15.75,0.1-31.45-2.98-46.67c3.2-2.02,5.26-0.7,7.31,0.29c4.25,2.05,7.91,4.97,11.23,8.26
		c22.06,21.87,42.62,45.01,59.26,71.37c3.55,5.62,6.98,11.41,9.63,17.49c3.64,8.32,8.4,15.85,13.55,23.26
		c8.94,12.86,17.36,26.06,24.92,39.8c1.75,3.19,2.36,7.5,7.66,7.87c1.34,0.09,2.59,3.58,3.62,5.64c2.36,4.72,4.01,9.82,7.71,14.73
		c11.5-8.35,22.38-17.03,34.25-24.3c11.64-7.12,24.03-12.76,35.37-18.11c1.77-2.95,1.4-4.96,1.14-6.93
		c-3.12-23.45-6.22-46.9-9.42-70.33c-0.86-6.25-2.27-12.36-4.11-18.46c-1.91-6.32-2.73-13.04-3.39-19.66
		c-1.3-12.99-4.14-25.63-7.7-38.15c-0.7-2.47-2.1-4.99-0.55-7.62c2.48-1.88,4.45-0.4,6.35,0.87c5.3,3.56,9.7,8.15,13.86,12.92
		c17.5,20.11,34.89,40.31,51.21,61.41c2.64,3.41,5.36,6.84,8.47,9.8c15.07,14.31,28.8,29.63,37.47,48.3
		c2.73,1.07,3.37-2.48,6.4-1.22c1.2,5.08,6.78,9.59,3.48,16.42c1.94,3.34,5.72,3.06,8.69,4.26c29.13,11.73,44.51,33.73,48.25,64.41
		c0.73,6,0.46,12.1-1.48,17.81c-1.62,4.77-1.22,9.05,0.51,13.58c1.41,3.69,2.39,7.55,3.42,10.87c2.32,1.44,4.31-1.49,6.35,1.19
		c1.19,2.65-0.56,5.97-0.08,9.25c1.26,2.34,4.79,0.03,5.89,3.03c-1.62,4.53-4.71,9.25-4.55,13.86c0.16,4.35,0.73,8.98,0.86,13.4
		c3.82,1.55,7.04,0.03,10.27-0.09c13.9-0.48,27.08,1.25,38.99,9.56c4.83,3.37,9.69,6.58,14.41,10.18
		c13.49,10.27,20.76,24.04,24.89,39.88c1.93,7.41,3.42,14.93,4.91,22.44c0.51,2.58,0.74,5.31,0.55,7.93
		c-0.77,10.65-2.26,21.21-5.58,31.41c-2.09,6.42-5.05,12.31-11.01,16.18c-5.43,3.53-8.37,9.32-11.67,13.74
		c-3.38,1.81-4.98-3.61-8.4,0.09c-0.35,7.38-1.93,15.44-4.35,23.14c2.52,2.19,4.04,0.3,5.51-0.73c6.03-4.26,11.66-8.92,14.6-16.02
		c0.64-1.54,1.41-3.03,3.48-3.14c1.93,0.51,2.3,2.14,2.35,3.83c0.42,12.34-0.01,24.66-1.63,36.91c-1.43,10.79-5.22,20.6-13.88,29.43
		c9.17,0.53,14.71-4.96,20.9-7.24c2.7,1.17,3.37,3.03,2.78,5.12c-2.81,9.92-4.9,20.07-9.89,29.27c-3.9,7.2-9.31,12.96-16.1,17.45
		c-2.2,1.45-4.48,2.78-7.5,4.64c3.76,3.73,8.42,4.16,12.52,5.68c2.78,1.03,5.6,1.98,8.34,3.1c0.52,0.21,0.79,1.03,1.19,1.61
		c0.04,3.63-2.63,5.28-5.35,6.45c-3.34,1.44-6.86,2.6-10.42,3.37c-10.19,2.21-19.45,6.86-29.08,10.56c-2.61,1-4.49,2.85-6.23,4.87
		c-3.66,4.25-8.5,7.46-11.42,12.5c3.08,1.72,5.18-1.05,7.8-1.07c4.92-0.04,7.51,2.21,7.28,7.22c-0.09,1.97-0.64,3.93-1.14,5.85
		c-1.86,7.11-4.32,13.99-8.09,20.31c0.51,3.95,2.65,7.07,5.55,9.26c7.36,5.55,10.63,13.46,13.44,21.72
		c0.43,1.26,0.79,2.54,1.31,4.18c8.33,3.11,12.47,10.04,15.13,18.23c3.85,11.84,5.95,24.04,5.2,36.42
		c-1.41,23.29-4.63,46.41-8.12,69.46c-2.05,13.5-6.6,26.48-11.26,39.34c-2.04,5.63-3.82,11.36-5.65,17.07
		c-0.52,1.61-0.92,3.22-2.76,3.9c-3.06-0.07-3.49-2.7-4.25-4.75c-4.72-12.65-13.55-21.86-24.11-29.78c-2.39,2.45-0.01,3.81,0.7,5.32
		c3.01,6.31,6.2,12.53,9.26,18.83c1.05,2.17,1.76,4.42-1.27,6.2c-0.72-0.15-1.9-0.05-2.54-0.59c-7.72-6.49-16.98-8.79-26.64-10.34
		c-12.54-2.01-25.17-2.84-37.81-3.44c-16.45-0.77-32.26-3.88-47.43-10.44c-6.04-2.61-12.23-4.86-17.69-8.03
		c-3.89,1.94-0.76,4.13-0.84,6.09c-0.41,0.48-0.72,1.2-1.23,1.4c-4.4,1.69-8.65,2.51-13.45,0.52c-3.93-1.63-8.46-1.75-12.63-2.9
		c-12.07-3.3-22.77-9.32-32.57-17.01c-16.01-12.57-30.64-26.68-45.43-40.62c-1.68-1.58-2.97-3.62-6.01-4.61
		c-0.32,3.82,2.47,5.94,3.87,8.58c1.41,2.64,2.94,5.22,4,7.09c1.42,3.55-3.59,4.39-1.66,7.75c1.03,1.79,2.38,4.09,1.27,6.59
		c-2.03,1.62-2.9-0.38-3.97-1.36c-0.72-0.66-1.29-1.55-1.72-2.44c-9.21-18.65-24.24-32.45-38.89-46.54c-3.08-2.96-6-6.15-10.39-7.56
		c-3.32-1.06-5.19-4.13-6.87-7c-2.35-4.02-4.18-8.36-6.67-12.28c-2.04-3.22,0.63-6.64-1.02-9.71c-2.03-1.02-3.03,0.48-4.07,1.68
		c-5.89,6.78-13.5,10.67-21.9,13.36c-6.98,2.23-13.92,4.59-20.87,6.88c-1.9,0.63-3.82,1.22-5.09,3.24
		c-1.63,4.56,1.63,9.66-1.1,14.98c-6.09-2.35-6.08-10.57-12.26-11.87c0.2-3.56,0.35-6.49-0.69-9.41
		c-4.14-11.66-6.48-23.74-7.78-35.88c-2.49-0.84-3.17,0.79-3.94,2.19c-6.91,12.53-17.48,20.48-30.59,25.94
		c-15.61,6.51-31.43,10.84-48.52,9.47c-15.08-1.2-28.36-7.08-40.62-15.47c-9.07-6.2-17.95-12.71-26.7-19.36
		c-3.38-2.57-6.73-3.9-10.99-3.63c-20.88,1.32-38.24-6.09-53.36-20.44c-6.96-6.61-15.93-10.75-25.3-13.43
		c-8.54-2.44-9.5-2.95-15.72-10.09c6.64,1.72,12.54-1.36,18.22,2.63c3.73,2.61,8.41,1.35,12.67,0.65
		c11.38-1.87,21.6-6.67,31.19-12.88c22.48-14.55,40.33-33.67,54.59-56.2c4.77-7.54,9.18-15.31,13.76-22.97
		c-3.51-2.71-7-2.17-10.18-2.62c-30.86-4.28-56.3-17.7-74.42-43.65c-4.39-6.28-8.86-12.51-13.24-18.8
		c-3.64-5.23-4.38-11.59-6.55-17.39c-0.47-1.26,0.26-2.74,1.75-3.09c0.85-0.2,2.21-0.04,2.75,0.52c1.81,1.92,3.41,4.05,5.01,6.16
		c8.2,10.9,18.86,14.57,32.45,13.01c18.75-2.15,34.16-10.5,47.98-22.64c2.25-1.98,4.49-3.99,6.52-6.2
		C130.57,470,138.56,461.1,147.27,451.48z"/>
	<path class="st0" d="M443.91,434.89c0.15-3,0.6-5.91,1.31-8.85c0.82-3.41,2.15-6.08,5.15-8.11c3.86-2.6,7.52-5.49,11.14-8.42
		c4.3-3.49,8.94-5.58,14.66-4.95c2.26,0.25,4.6,0.22,6.76-1.13c3.07-1.91,6.24-0.87,10.12-0.09c-2.05,4.54-7.73,5.85-8.34,11.24
		c5.06,0.41,7.46-5.73,10.79-4.38c3.53,1.11,1.75,3.66,3.91,4.63c3.85-4.04,6.53-9.9,13.87-11.07c-0.14,5.74,2.57,10.57,4.73,16.89
		c4.51-6.78,2.72-13.74,4.9-19.91c0.98,1.39,1.69,2.46,2.48,3.47c0.17,0.22,0.6,0.23,0.98,0.35c2.2-0.78,1.3-2.7,1.34-4.17
		c0.13-4.59-0.37-9.05,3.05-13.15c2.07-2.48,1.31-6.4,1.17-9.69c-0.57-13.17,6.56-25.6,18.15-31.5
		c11.23-5.72,22.44-11.49,33.49-17.15c2.4,0.37,3.67,2.03,5.03,3.43c2.47,2.54,5.45,4.14,8.9,3.77c5.01-0.54,9.1,1.48,13.15,3.79
		c10.05,5.75,20.91,10.41,27.7,20.56c4.19,0.97,5.59,5.3,9.36,7.08c-2.61,11.38-10.38,18.25-19.55,22.85
		c-12.11,6.08-24.94,10.73-37.52,15.84c-1.57,0.64-2.98,1.33-4.32,2.32c-12.84,9.51-25.36,19.39-36.69,30.7
		c-15.31,15.29-30.79,30.41-45.81,45.98c-6.53,6.77-14.86,9.82-22.98,13.54c-2,0.92-3.78,0.64-5.72-0.19
		c-2.44-1.05-4.98-1.9-7.51-2.72c-6.42-2.1-13.11,1.66-14.48,8.1c-0.61,2.87,0.56,5.26,2.51,7.1c1.41,1.33,3.22,2.43,5.04,3.11
		c5.23,1.96,9.07,5.57,12.1,10.03c2.27,3.35,4.66,6.64,7.84,9c10.7,7.94,14.96,19.81,19.63,31.41c0.88,2.18,1.62,4.37,3.11,6.15
		c7.36,8.81,12.23,19.02,16.27,29.61c3.57,9.38,7.67,18.34,14.16,26.15c4.54,5.47,7,12.36,8.37,19.02
		c1.69,8.24,5.56,14.82,10.64,21.02c3.79,4.62,7.75,9.12,11.77,13.54c2.23,2.45,5.35,3.57,8.83,4.16
		c1.02,12.79-1.27,25.35,4.02,37.2c-2.99,1.72-5.09,1.03-6.77-1.53c-10.12-15.45-24.49-27.12-36.47-40.93
		c-3.06-3.53-6.04-7.04-8.74-10.86c-13.93-19.67-30.01-37.3-49.52-51.64c-12.2-8.97-25.57-15.43-40.22-19.29
		c-1.67-0.44-3.21-0.77-4.84,0.78c0.67,2.97,3.44,3.48,5.74,4.49c14.69,6.48,28.64,14.32,40.82,24.77
		c12.87,11.03,25.58,22.35,35.02,36.72c5.5,8.37,12.72,15.35,18.97,23.12c7.06,8.77,14.64,17.07,23.31,25.29
		c-6.86,6.72-11.63,14.13-15.17,22.39c-2.24,5.22-4.38,10.44-5.28,16.05c-0.9,5.53-1.08,11.26-6.67,15.28
		c3.68,2.1,6.21,3.55,8.58,4.91c2.59,0.06,4.15-2.54,7.13-1.85c-0.82,5.14-1.25,10.37-4,14.61c-0.53,3.02,2.05,4.52,2.25,6.83
		c0.27,3.02,2.05,4.51,4.65,5.86c4.62,2.39,7.34,6.14,8.05,11.64c0.59,4.56,1.92,9.1,4.1,13.29c1.73,3.31,3.67,6.35,7.95,7.51
		c2.17-1.74-2.12-7.03,4.01-6.66c-2.47-6.57-4.75-12.71-8.16-18.41c-1.65-2.75-2.43-5.62,2.13-7.18c4.21,7.06,8.55,14,14.46,19.93
		c6.74,6.77,14.37,12.34,23.3,14.95c8.71,2.55,13.58,7.49,15.66,15.88c0.32,1.29,0.65,2.57,1.09,4.32
		c-7.23,0.82-13.93-1.61-20.74-2.29c-5.94-0.59-11.89-1.46-17.84-1.47c-13.66-0.01-27.08-2.33-40.6-3.69
		c-2.24-0.23-4.38-1.47-6.55-2.3c-4.65-1.78-9.16-4.33-13.97-5.2c-4.91-0.88-8.4-3.45-11.98-6.3c-1.5-6.37-1.64-12.67,0.84-18.69
		c2.53-6.15,2.27-12.4,1.17-18.62c-0.83-4.66-1.25-9.35-0.33-13.87c1.34-6.65,1.3-13.16-0.5-20.08c7.29-5.16,5.89-12.88,5.19-19.99
		c-0.94-9.56-2.97-19.01-4.39-28.53c-3.9-26.29-16.96-47.98-33.83-67.78c-1.73-2.03-3.45-4.06-5.16-6.09
		c-3.07-3.63-3.51-4.5-4.81-9.66c-6.49-1.15-11.76-5.14-17.08-9.16c-6.59-4.99-13.56-9.35-19.67-15.11
		c-7.07-6.66-16.2-10.26-25.4-13.39c-2.96-1.01-5.83-1.14-8.81-0.44c-1.94,0.46-3.87,1.26-5.81,1.28c-2.94,0.03-5.88-0.49-9.49-0.85
		c2.47-6.53,10.58-7.38,12.75-13.92c-6.01-3.6-10.96,3.12-16.92,1.39c-5.62-1.63-11.77-1.45-17.64-5.77
		c5.54-1.17,10.48-1.35,15.59-5.25c-10.02-3.38-20.05-2.74-28.46-6.51c-8.6-3.85-18.41-4.45-27.49-9.76c5.31-2,9.33-3.54,13.36-5.02
		c7.54-2.76,15.15-4.75,23.36-4.17c6.04,0.42,6.07,0.03,11.01-2.6c-4.86-3.28-4.86-3.28-6.91-8.25c-2.03-1.55-4.69-1.61-6.65-0.85
		c-6.86,2.65-13.06,0.88-19.21-1.99c-6.86-3.21-12.02-8.33-15.62-14.92c-2.55-4.67-5.13-9.38-7.04-14.33
		c-3.11-8.01-5.69-16.23-8.49-24.37c2.48-1.5,2.93,0.59,3.92,1.71c8.59,9.78,17.51,19.2,29.58,24.8c2.29,1.06,4.46,2.96,8.27,1.89
		c-14.73-16.16-31.57-29.79-43.09-48.14c2.48-1.74,4.48,0.29,6.39,1.02c10.71,4.08,21.82,5.95,33.17,6.03
		c7.23,0.05,14.42,2.04,21.7,0.18c3.02-0.77,5.8,1.18,8.71,1.76c5.4,1.08,10.89,2.94,16.21-0.95c-10.15-6.6-21.95-9.66-32.82-18.55
		c10.25,1,18.64,3.11,26.71,2.25c8.18-0.87,16.51-0.94,24.65-2.88c8.37-1.99,15.24-7.44,24.18-10.53
		c0.56,8.73-3.82,15.06-4.98,22.08c-1.11,6.75-3.24,13.33-5.47,22.18c5.41-5.86,6.56-11.09,8.04-16.1
		c2.15-7.33,4.1-14.72,5.94-22.14c0.92-3.72,2.9-5.88,7.81-6.02c-2.25,14.32-7.32,27.9-9.8,43.18c4.79-3.32,4.53-7.9,5.99-11.49
		c1.73-4.24,1.86-9.12,5.03-12.82c-0.2,8.51-2.71,16.85-1.42,25.57c4.37-8.24,5.27-17.41,6.82-26.35
		c1.53-8.83,4.83-17.37,5.14-27.31C446.28,425.96,447.44,431.8,443.91,434.89z M475.99,434.25c0.34-2.86,0.69-5.72,1.09-9.03
		c-4.87,5.77-10.05,21.37-9.2,27.69c4.16-5.98,3.83-13.58,8.36-18.98c-0.27,2.39-0.89,4.82,0.46,8.29c1.76-3.1,2.91-5.14,4.1-7.22
		c3.48,2.58,3.52,2.64,4.19,2.14c5.47-4.13,8.38-9.51,8.67-18.1C487.56,425.49,479.37,426.87,475.99,434.25z M461.53,423.07
		c-5.09,6.24-14.6,41.81-14.28,52.95C454.66,459.12,458.79,441.3,461.53,423.07z M468.3,422.69c-3.1,0.42-3.12,3.3-3.58,5.2
		c-2.46,10.12-6.28,20-6.87,31.66C463.66,452.11,468.85,432.91,468.3,422.69z M407.41,457.15c-5.48,5.35-11.12,10.73-11.18,19.4
		C404.67,472.53,406,464.85,407.41,457.15z M416.05,451.91c-6.94,7.43-10.15,18.5-7.17,24.59
		C412.34,468.6,414.27,460.85,416.05,451.91z M363.69,560.39c3.62,2.32,5.35,0.3,7.78-1.42C368.25,557.62,366,557.63,363.69,560.39z
		"/>
	<path class="st0" d="M228,662.55c4.71-6.18,10.98-11.04,17.93-13.43c13.14-4.53,23.17-12.85,32.33-22.61
		c6.14-6.54,11.46-13.74,16.27-21.4c6.26-9.99,8.1-20.9,8.54-32.29c0.04-0.91-0.59-1.91-1.82-2.01
		c-9.16,25.8-30.49,56.21-47.23,65.64c-1.99-1.52-0.17-2.92,0.32-4.15c4.29-10.82,8.32-21.7,11.31-32.98
		c1.68-6.32,4.1-12.45,5.72-18.99c-5.97,6.94-12.27,13.37-19.58,18.73c-1.1-3.6,3.54-6.43,1.48-10.23
		c-2.35,0.78-4.54,1.57-5.35,4.12c-1.24,1.09-2.49,2.18-3.73,3.27c-1.51,2.53-3.21,4.97-4.48,7.61
		c-3.39,7.07-9.01,11.25-16.35,13.58c-14.81,4.7-29.9,5.64-45.24,3.72c-3.61-0.45-7.22-0.84-12.06-1.4
		c4.3-2.21,7.84-2.68,11.41-3.34c12.62-2.35,24.06-7.25,33.97-15.67c3.1-2.64,5.48-5.61,8.45-10.11c-4.9,1.34-8.11,3.47-11.26,5.51
		c-12.75,8.23-26.48,13.67-41.62,15.44c-2.44,0.28-4.68,0.65-5.77-2.28c0.76-3.23,3.96-3.28,6.18-4.39
		c21.54-10.85,37.4-27.32,48.41-48.6c4.01-7.75,5.92-16.05,6.72-24.81c1.48-16.14,1.2-32.52,5.79-48.3c1.02-3.5,1.9-7.05,2.79-10.59
		c2.73-10.78,7.83-20.03,16.81-26.95c1.41-1.09,3.02-2.64,2.09-5.62c-6.32-0.03-11.08,3.08-14.92,7.82
		c-5.55,6.85-8.39,15.07-11.09,23.27c-4.06,12.32-7.36,24.88-8.08,37.87c-0.34,6.14-3.8,11.35-4.07,17.38l0.35-0.32
		c-2.72,2.96-4.26,6.39-4.27,10.45l0.28-0.45c-3.24,4.66-6.53,9.29-6.2,15.39c-1.72,3.11-3.48,6.2-5.17,9.33
		c-2.6,4.83-4.49,10.07-8.24,14.24c-0.9,0.97-2.12,1.8-2.64,2.94c-4.09,9.09-11.83,14.17-20.25,18.34
		c-7.73,3.83-15.62,7.35-23.56,10.7c-4.88,2.06-9.96,3.96-15.46,2.5c-2.65-0.71-4.88,1.54-8.38,1.33
		c7.17-12.08,13.95-23.38,20.58-34.76c1.5-2.58,3.63-3.57,6.38-4.12c6.3-1.27,12-3.48,15.72-9.39c1.12-1.78,3.71-2.63,5.64-3.9
		c6.15-4.03,11.89-8.5,16.12-14.66c1.9-2.76,3.79-5.48,3.88-9c0.46-1.19,0.92-2.38,1.38-3.57c2.94-4.68,3.45-10.03,4.16-15.32
		l-0.22,0.32c2.88-2.33,5.59-4.79,7.01-8.34c0.8-1.83,1.24-3.94,2.44-5.45c10.36-13.1,14.22-29.2,20.6-44.13
		c1.98-3.13,3.96-6.26,6.82-10.79c-5.13,1.42-6.83,4.12-8.74,6.56c-3.72,4.21-9.26,5.24-13.84,7.95c-2.48,0.08-4.97,0.13-7.45,0.24
		c-2.01,0.09-3.68-0.43-4.64-2.36l-0.31,0.4c2.46-0.2,2.98-2.39,3.92-4.01c1.4-2.4,3.46-3.83,5.76-5.24
		c6.4-3.93,12.68-8.06,18.92-12.24c1.03-0.69,1.61-2.04,2.39-3.08c6.18-6.01,9.15-14.01,13.18-21.35c3.63-2.88,7.26-5.76,11.1-8.8
		c0.18-2.21,0.39-4.69,0.59-7.16c-3.81-1.32-7.38,0.26-11.14,0.05c1.49,1.82,5.19,1.47,4.48,5.03
		c-24.88,9.82-82.32,8.89-104.22-9.89c13.19,4.41,24.2,1.2,34.88-3.64c6.25-2.83,12.97-2.47,19.47-3.39
		c6.57-0.93,13.09-1.78,19.54-3.44c3.49-0.9,7.2-1,10.81-1.4c1.63-0.18,3.35-0.07,4.08-2.02c2.58,0.24,5.18,0.32,7.72,0.74
		c3.24,0.54,4.47-1.22,5.93-5.44c-4.86,3.27-9.67,2.17-13.41,4.96c-9.5-0.51-19.11,0.37-28.44-2.39c0.03-2.46,2.18-3.11,3.68-4.3
		c7.3-5.78,14.61-11.54,21.91-17.31c11.98-9.47,20.23-21.9,27.92-35.41c2.77,2.32,4,4.58,0.84,7.11c-2.73,2.19-2.2,4.66-1.05,7.12
		c1.96,4.2,4.18,8.14,3.86,13.16c-0.13,1.99,1.71,4.27,3.04,6.15c15.68,22.28,29.61,45.82,47.78,66.32
		c7.73,8.72,16.83,16.11,23.91,25.43c0.77,1.01,2.1,1.72,1.75,4.12c-11.04,0.76-21.15-3.02-31-7.33
		c-9.66-4.23-16.45-12.94-27.35-18.78c2.21,6.92,4.23,12,7.2,16.74c3.37,5.39,5.75,11.17,7.39,17.35
		c2.81,10.59,6.07,21.07,8.95,31.64c2.19,8.05,5.18,15.82,8.7,23.32c4.3,9.19,11.2,16.35,19.57,21.68
		c-0.47,3.13-2.73,3.07-4.55,3.53c-3.86,0.96-7.83,1.57-11.62,2.76c-5.68,1.79-11.05,1.52-16.41-1.11
		c-3.56-1.75-7.26-3.24-11.16-1.29c-0.52,2.3,0.72,3.33,2.25,4.16c15.77,8.54,31.03,18.14,48.29,23.62c3.3,1.05,6.02,2.76,7.82,6.65
		c-4.11,8.56-7.01,18.04-10.32,27.37c-0.78,2.19-1.78,4.32-2.34,6.56c-0.69,2.77-2.8,5.98-0.02,8.38c3.21,2.77,5.28-0.88,7.71-2.25
		c0.55-0.31,1.25-0.34,1.91-0.5c2.64,1,1.62,3.34,1.59,5.06c-0.19,10.35,0.27,20.61,3.31,30.59c1.1,3.6,1.28,7.38,0.55,10.88
		c-2.84,13.5-0.97,27.21-2.21,40.77c-0.11,1.25,0.27,2.61,0.68,3.84c5.45,16.39,11.16,32.68,20.35,47.47
		c0.67,1.08,1.14,2.3,1.81,3.69c-2.78,1.46-3.53-1.09-4.82-2c-6.85-4.84-12.24-11.25-18.04-17.19c-2.77-2.83-4.53-6.45-5.95-10.28
		c-1.79-4.84-2.5-9.35-0.62-14.42c2.9-7.82,2.26-15.67-1.23-23.28c-0.59-1.28-1.38-2.22-3.05-2.72c-1.45,7.47-2.23,15.09-4.93,22.25
		c-3.54,9.36-8.67,17.27-18.77,20.64c-0.53,0.18-1.23-0.12-1.9-0.2c-1.34-1.53-0.56-3.01,0.16-4.49c1.27-8.11,1.3-16.21,0.17-24.31
		c-0.16,8.16-2.03,16.34-0.05,24.49c-0.83,0.41-2.38,0.79-2.39,1.22c-0.14,5.85-4.07,7.75-8.83,9.23
		c-5.33,1.65-10.52,3.72-15.92,5.66c-3.69-6.3,0.55-12.08-0.22-17.82c-0.74-5.54,1.93-11.18-0.32-16.8
		c-5.66,5.59-5.66,5.59-8.36,35.95c-3.69-5.62-4.48-11.57-5.6-17.32c-1.62-8.32-5.38-16.51-2.08-25.25
		c-2.42-5.72-0.14-11.81-1.39-17.61c-0.28-1.32-0.89-2.51-2.51-3.04c-3.21,0.64-3.62,3.27-3.7,5.95c-0.47,16.12-8.84,27.17-22,35.57
		c-12.79,8.16-26.54,13.7-41.42,16.28c-3.03,0.53-7.03,2.74-9.53-1.6c4.38-4.18,8.76-8.37,13.15-12.55
		c2.93-3.63,7.11-6.35,8.25-11.29l-0.34,0.4c3.95-1.84,6.19-4.83,6.26-9.28c1.28-1.26,2.56-2.51,3.84-3.77
		c5.53-7.97,10.66-16.14,12.18-26C225.95,668.66,227.52,665.84,228,662.55z M262.53,482.82c-3.22,3.83-3.8,8.4-3.85,13.13
		c3.04-3.97,3.58-8.6,3.61-13.37c2.34-3.76,1.93-7.67,0.24-11.64C262.53,474.9,262.53,478.86,262.53,482.82z M235.85,535.9
		c0.3-0.15,0.77-0.22,0.87-0.45c6.96-16.58,11.14-33.9,12.92-51.75c0.65-6.47,0.6-13.12-3.65-20.64c0.26,5.09-0.05,8.66,1.35,12.13
		c0.91,2.24,0.93,4.61,0.54,6.89c-2.54,14.99-4.68,30.08-10.05,44.43c-1.17,3.13-2.34,6.22-1.72,9.64
		c-2.17,1.96-3.67,4.34-4.79,7.06c-1.49,3.64-0.09,5.39,3.64,6.3c1.41-2.88,3.95-5.22,1.49-8.88
		C235.67,539.45,236.03,537.5,235.85,535.9z M272.54,564.35c-0.07-0.96-0.43-2.03-0.18-2.92c1.86-6.54,1.92-12.92-0.18-19.52
		c-0.86-2.7-0.36-5.95,0.03-8.89c0.61-4.58,1.62-9.11,2.52-13.65c2.48-12.51,2.22-24.88-1.6-37.4c-1.27,1.86-1,3.63-0.59,5.14
		c2.87,10.84,2.21,21.59,0.01,32.46c-1.96,9.71-4.11,19.47-0.68,29.43c0.82,2.39,0.19,5.2-0.67,7.82
		c-1.71,5.25-3.09,10.61-4.92,17.03c2.87-2.33,4.82-3.92,6.62-5.38c2.06,0.47,0.5,3.09,2.46,3.44c0.75-2.25,1.48-4.41,0.91-6.89
		C275.07,564.81,273.85,564.59,272.54,564.35z M294.29,705.65c3.6-2.45,5.75-6.08,4.47-7.23c-4.11-3.7-1.82-7.99-2.28-11.93
		c-0.68-5.85-0.83-11.76-1.2-17.65C294.35,680.76,293,692.59,294.29,705.65z M307.47,672.72c-4.57,8.63-4.55,9.48,0.52,14.41
		C306.03,682.52,309.63,677.8,307.47,672.72z M269.95,680.31c-3.69,4.88-3.69,4.88,0,14.25
		C269.95,689.95,269.95,686.07,269.95,680.31z M265.09,456.05c-0.89,2.78-1.67,5.51-0.01,8.37
		C268.76,461.56,268.17,458.78,265.09,456.05z"/>
	<path class="st0" d="M419.82,276.73c-4.48,3.55-4.07,7.54-7.14,10.48c-0.6-3.29-2.55-5.77-1.68-9.09
		c2.07-7.85-0.24-15.22-3.1-22.32c-3.47-8.62-7.43-17.06-11.36-25.49c-3.07-6.57-6.42-13.01-9.37-18.96
		c0.86-4.43,4.01-6.07,6.64-7.96c29.27-20.92,60.96-36.65,96.42-43.93c21.7-4.45,43.35-5.25,65.19,0.33
		c36.97,9.46,52.77,48.35,47.54,76.28c-2.98,15.91-11.25,28.23-20.69,40.24c-6.79,8.63-15.18,15.78-23.63,22.79
		c-2.07,1.72-4.2,3.28-7.15,2.46c-1.97-1.94-0.21-3.75,0.26-5.51c2.48-9.3,5.82-18.34,7.01-28.01c1.39-11.32,2.05-22.43-2.35-33.32
		c-1.24-3.06-1.7-6.42-2.71-9.59c-0.95-3.01-1.61-6.29-5.61-8.46c7.24,28.63,2.78,55.96-3.68,83.19c-0.63,2.66-1.43,5.14-4.58,6.44
		c-4.09,0.4-6.84-5.03-11.66-3.33c-4.02,1.41-7.96,3.36-12.95,3.2c-1.89-8.91,0.02-17.94-2.16-26.64
		c-2.26-9.02-3.56-18.3-7.16-26.94c-3.42-8.19-5.87-16.95-12.67-23.32c-1.11,0.93-1.13,1.9-0.64,2.81
		c9.14,16.97,12.61,35.6,15.76,54.3c0.99,5.9,1.88,11.82,1.3,17.84c-0.34,3.5-2.54,4.26-6.5,3.73
		c-1.18-20.15-8.54-38.06-22.25-53.27c7.02,17.22,14.74,34.2,15.95,53.77c-2-0.5-3.38-0.44-3.7-1c-0.81-1.4-1.21-3.07-1.67-4.66
		c-5.14-17.63-16.75-29.96-32.23-39.01c-4.1-2.4-8.35-5.08-14.98-3.26c5.54,4.45,12.07,4.76,16.31,8.87
		c4.05,3.93,8.27,7.75,11.89,12.06c3.73,4.44,7.47,9.06,9.43,14.78c-2.84,1.17-3.69-0.59-4.83-1.54
		c-11.69-9.69-25.6-13.82-40.27-15.85c-2.51-0.35-5.2,0.79-7.83,1.04C425.44,280.26,421.57,281.92,419.82,276.73z"/>
	<path class="st0" d="M588.02,530.43c0.21,4.78-0.8,9.16-3.73,13.12c-1.75,2.37-3.02,5.1-4.41,7.49c-4.76,2.66-9.25-1.4-13.99-0.1
		c1.35,1.46,2.65,2.78,3.86,4.18c3.4,3.95,5.3,4.46,8.94,1.7c3.45-2.62,6.5-5.67,8.73-9.5c1.15-1.98,2.52-3.99,4.24-5.46
		c6.22-5.32,11.01-4.99,16.33,1.18c13.75,15.92,17.78,33.77,10.31,53.78c-0.47,1.25-1.09,2.44-1.5,3.7
		c-3.94,12.08-2.87,15.24,7.47,22.46c1.08,0.75,2.12,1.56,3.5,2.57c-0.08,8.88,2.86,17.25,6.06,25.73c-1.7,0.69-3.09,1.25-4.79,1.95
		c4.82,5.32,9.39,10.58,14.19,15.61c10.76,11.28,14.7,24.96,14.48,40.16c-0.09,6.3,0.39,12.6-1.3,18.84
		c-1.44,5.33-3.23,9.92-8.9,12.3c-3.3,1.38-5.84,4.26-8.94,6.24c-10.97,7.03-20.91,3.61-30.79-2.24c-0.57-0.34-1.09-0.78-1.56-1.24
		c-14.67-14.55-24.71-31.25-24.49-52.73c0.07-6.97,0.35-13.95-2.02-20.71c-1.11-3.18-1.45-6.55,0.73-9.47
		c4.9-6.56,5.65-14.54,7.78-22.05c1.37-4.83,2.14-9.73,2.25-14.75c0.03-1.39-0.2-2.62-1.17-3.66c-1.26-0.66-2.56-0.75-3.74,0.08
		c-1.89,1.34-3.89,2.6-5.53,4.21c-6.04,5.96-12.29,11.54-21.43,13.54c-2.46-6.89,5.51-12.03,3.13-19.13
		c-9.95-0.12-6.23-9.38-8.87-14.24c-3.57-2.82-7.85-2.61-11.76-4.37c-2.34-7.41,2.62-17.15-6.4-22.06
		c1.28-10.54,1.3-10.02-7.95-12.68c-0.94-2.35-2.02-5.08-3.12-7.84c-1.54-1.73-3.82-0.51-6.24-1.65c-0.69-5.03-6-8.95-4.9-15.15
		c0.49-2.74,1.68-5.06,4.25-6.4c8.08-4.2,16.64-6.79,25.8-6.12c8.2,0.6,12.13,4.56,13.94,12.93c1.24,5.72,2.76,11.36-0.49,17.05
		c-0.67,1.17-0.18,3.7,1.6,4.24c2.25,0.69,3.01,3.62,6.14,3.35c-1.74-5.14-2.48-10.29-1.32-15.65c0.4-1.84-0.01-4.04-0.62-5.88
		c-1.59-4.8-1.6-9.8-2.28-14.92c-6.52-4.69-15.16-3.52-21.93-7.61c-2,0.19-3.01,2.76-5.27,2.24c-1.9-1.11,0.28-3.16-1.26-4.55
		c-5.11,2.18-8.2,7.59-13.72,9.2c-0.89,0.26-1.93,0.04-3.52,0.04c-3.39-7.04,0.24-14.16,0.63-21.08c0.38-6.81,1.2-13.89,4.19-20.77
		c5.26-1.1,9.61-3.69,11.42-9.38c0.62-1.95,2.04-3.88,4.11-3.97c5.68-0.25,7.88-4.23,10.11-8.44c0.43-0.81,1.28-1.4,1.78-1.94
		c2.77-0.19,3.08,2.61,5.09,3.38c7.41-0.22,7.49-8.25,11.99-11.71c4.14,5.19,2.64,12.9,8.07,18.42c9.58-9.81,12.34-22.04,15.5-34.57
		c3.23,2.85,4.51,8.69,10.32,5.89c5.13-6.73,6.73-14.95,9.23-23.06c3.04,2.21,4.38,5.57,8.25,6.93c6.49-1.38,12.57-4.29,16.02-11.71
		c5.98,11.48,6.27,11.55,19.68,4.93c1.8,6.23,4.41,11.99,12.09,11.23c0.44,3.23,0.79,5.8,1.19,8.74c-5.65,3.14-7.86,8.51-7.12,14.71
		c0.49,4.17-1.53,6.91-3.67,10.4c-4.9-2.15-8.72-1.74-12.56,3.41c-2.95,3.95-8.26,6.39-12.91,8.73c-2.69,1.35-5.43,2.56-7.59,4.59
		c-1.84,1.73-3.39,2.65-6.01,1.56c-2.08-0.87-3.96,0.59-5.22,2.12c-5.89,7.14-11.72,13.95-13.25,23.99
		c-1.04,6.82-2.73,14.19-7.36,20.08c0-6.17,0-12.34,0-18.52C587.12,518.23,584.37,524.5,588.02,530.43z M600.83,551.87
		c-4.57,3.11-4.98,3.23-4.35,5.5c1.27,4.53-0.39,10.94,7.27,11.58c-0.78,4.01-1.48,7.6-2.27,11.67c-3.49-3.38-5.7-6.77-9.58-8.35
		c-2.49,1.49-5.84,0.91-7.63,3.34c-0.32,10.43,9.45,9.61,13.67,13.8c3.81-0.06,3.32-3.72,5.53-4.45c2.75,0.56,5.09,1.41,5.78,4.58
		c0.29,1.31,1.56,2.19,3,2.1c1.86-0.11,3.09-1.32,3.34-3.08c0.79-5.54,1.46-11.1,2.09-16.66c0.28-2.44-0.54-4.78-2.18-6.41
		C610.76,560.78,607.5,554.45,600.83,551.87z M601.72,653.43c0.99-5.9-0.76-10.27-4.59-14.21c-3.64,2.39-7.89,4.15-6.47,9
		C592.03,652.93,596.14,654.05,601.72,653.43z M599.18,681.35c-1.19,4.83-0.72,6.97,1.98,7.77c0.66,0.2,2.1-0.4,2.38-1
		c1.6-3.53-0.94-5.18-3.42-6.75C599.89,681.22,599.49,681.35,599.18,681.35z M581.2,524.4c1.89-3.87-0.36-7.23-0.16-10.21
		C581.21,517.17,579.49,520.61,581.2,524.4z M556.97,577.32c0.08,0.49,0.07,0.41,0.06,0.34c0,3.03,0,6.05,0,9.08
		c-0.02,0-0.04,0-0.06,0C556.97,583.79,556.97,580.83,556.97,577.32z M593.15,669.29c-0.09,2.05-0.17,3.72-0.24,5.39
		c0.08,0,0.16,0,0.24,0.01C593.15,673.05,593.15,671.41,593.15,669.29z"/>
	<path class="st0" d="M400.97,657.6c3.29-0.18,3.09-3.91,6.07-4.24c17.48,3.66,31.78-4.5,39.3-22.98c3.49,0.36,5.88,2.68,8.23,4.95
		c15.7,15.18,28.7,32.32,37.87,52.24c1.62,3.52,3,6.63,1.07,10.92c-1.15,2.56,0.42,6.35,0.7,8.93c-2.44,3.77-6.25-4.5-7.89,2.48
		c-5.16-2.26-7.53-8.68-13.42-9.28c-1.21,1.78-0.97,3.41-0.55,5.04c0.49,1.93,1.14,3.83,1.47,5.79c2.3,13.64-1.98,18.43-15.43,16.1
		c-7.89-1.37-16.38-0.28-23.6-5.01c-2.02-1.32-3.84-0.06-5.54,0.94c-7.36,4.32-13.24,10.12-16.76,17.97
		c-3.68,8.19-6.86,16.58-9.2,25.29c-0.82,3.06-0.53,6.81-3.86,9.04c-3.35-0.97-5.1-3.98-7.43-6.22c-4.81-4.61-9.45-9.4-14.17-14.11
		c-15.41-15.4-23.46-34.42-27.16-55.52c-0.5-2.86-0.07-5.89-0.07-9.04c4.38,1.64,2.43,7.04,6.9,9.34c0.33-4.4,0.76-8.41-0.44-12.4
		c-1.6-5.31,0.09-9.56,3.2-13.9c8.37-11.68,18.01-22.11,29.12-31.97C394.38,646.91,395.09,654.55,400.97,657.6z"/>
	<path class="st0" d="M206.27,462.22c4.58-2.71,10.12-3.74,13.84-7.95c1.7,0.93,2.15,2.42,1.92,4.23
		c-6.38,14.93-10.24,31.04-20.6,44.13c-1.2,1.51-1.64,3.62-2.44,5.45c-3.48,1.82-6.11,4.36-7.01,8.34l0.22-0.32
		c-3.21,4.61-4.23,9.82-4.16,15.32c-0.46,1.19-0.92,2.38-1.38,3.57c-4,4.41-7.89,8.93-12.03,13.21c-4.43,4.57-9.59,8.15-15.45,10.76
		c-2.2,0.98-4.3,2.04-6.61,0.75c-3.86-2.15-7.32-0.4-10.32,1.48c-3.94,2.47-8.02,3.07-12.4,2.7c-19.14-1.64-37.23-6.79-53.83-16.58
		c-6.91-4.07-13.01-9.29-18.45-15.15c-5.34-5.76-10.32-11.85-16.07-18.5c5.45-0.65,7.52,2.89,10.05,4.94
		c11.89,9.6,25.28,16,40.19,18.94c10.3,2.03,20.76,3.41,33.15-1.22c-11.9-3.47-22.44-3.34-32.41-5.94
		c-10.27-2.68-20.29-5.94-29.78-13.4c4.09-0.91,7.1-1.91,10.18-2.21c19.16-1.88,34.47-11.48,48.18-24.09
		c9.06-8.34,17.49-17.32,24.99-27.14c2.82-3.69,5.73-7.3,10.37-9.49c2.86,1.61,3.44,5.46,7.02,6.5c3.72,1.07,7.11,0.44,10.72,0.14
		c6.38-0.53,12.18-3.14,18.05-4.5c2.49,0.91,1.34,2.85,1.66,4.3l0.31-0.4c-3.06,0.65-4.05,2.9-4.45,5.66
		C197.39,466.04,198.31,465.84,206.27,462.22z"/>
	<path class="st0" d="M173.36,631.7c3.86-2.16,7.96-2.48,12.38-2.79c8.61-0.61,17.13,0.88,26.07-0.94c0,2.42,0,3.69,0,4.96
		c-0.18,0.4-0.4,0.78-0.67,1.13c-0.59,0.77-1.43,1.45-1.75,2.32c-4.51,12.22-14.5,19.37-24.37,26.71
		c-22.17,16.49-46.6,28.15-73.59,34.15c-13.02,2.89-26.22,4.27-39.47,1.21c-9.47-2.18-16.61-5.92-22.64-11.88
		c32.08-1.3,59.62-14.21,85.71-31.07c-10.02,0.98-18.99,5.18-28.19,8.65c-13.04,4.93-25.83,10.55-39.62,13.25
		c-9.66,1.89-19.16,1.6-28.56-1.43c-1.33-0.43-2.39-1.09-3.09-2.89c17.45-4.21,32.28-13.35,45.96-24.59
		c2.56-2.11,5.29-4.13,7.4-6.64c5.35-6.41,12.19-10,20.13-12.06c8.01-2.07,15.87-4.78,23.93-6.68c6.81-1.6,13.74-2.23,20.58,0.56
		c2.46,1,2.47,2.74,2.47,4.74c-1.42,2.45-3.35,4.37-5.8,5.78c-1.43,1.39-3.99,2.02-3.3,5.38c2.55-1.23,5.64-0.55,7.35-3.37
		C160.75,635.15,166.74,632.08,173.36,631.7z M198.89,636.95c0.16-2.78,4.54-2.97,3.78-7.2c-5.73,0-11.56-0.03-17.39,0.04
		c-0.57,0.01-1.13,0.6-1.99,1.09c3.37,2.37,7.06,1.31,10.47,1.35c3.49,0.04,4.45,2.23,5.3,4.84c-4.03-1.48-5.51,0.93-7.98,5.34
		C194.73,639.87,196.81,638.41,198.89,636.95z M172.97,651.26c-5.71,8.59-13.49,14.44-19.75,21.75
		c10.64-2.42,16.2-10.84,22.82-17.98C174.93,653.67,174.31,652.91,172.97,651.26z"/>
	<path class="st0" d="M629.8,618.5c-1.53-0.96-2.68-1.57-3.71-2.34c-4.82-3.61-5.4-4.61-3.22-9.93c3.06-7.45,4.62-15.2,6.11-23.04
		c0.64-3.35,0.9-6.5-0.05-9.81c-2.13-7.41-2.48-14.93-1.06-22.52c2.08-11.08,2.9-22.44,6.8-33.13c3-8.2,6.75-16.01,14.24-21.18
		c4.67-3.23,5.29-9.12,8.85-13.05c2.57-0.72,2.24,1.8,3.15,2.8c4.36,4.81,5.15,4.85,10.89,1.82c7.81-4.13,16.08-7.44,23.3-15.1
		c-0.84,10.56-0.7,19.16-2.84,27.57c-3.65,14.32-11.09,25.38-25.63,30.53c-1.32,0.47-2.19,1.41-1.96,3.77
		c11.55,3.46,22.36-1.2,33.33-4.15c0.78,7.4-3.32,17.6-10.46,26.72c-6,7.65-12.91,13.98-24.06,16.04c5.6,6.42,13.7,6.93,18.87,13.21
		C661.67,591.81,645.03,603.13,629.8,618.5z"/>
	<path class="st0" d="M242.49,20.62c6.96,2.89,11.06,8.76,15.88,13.63c5.14,5.18,9.43,11.21,14.66,16.28
		c4.34,4.22,5.84,9.25,7.31,16.29c-7.64-4.77-10.69-12.37-17.18-16.18c-2.23,1.42-2.75,3.33-2.11,5.9
		c4.66,18.72,5.86,38.01,9.08,56.97c2.17,12.77,3.88,25.6,8.18,37.9c1.21,3.47,1.86,7.05,2.1,10.73
		c1.45,21.89,2.35,43.79,2.12,65.75c-0.11,10.97,2.02,21.78,4.7,32.42c1.37,5.45,2.32,10.77-5.16,12.56c-1.71,0.41-1.32,2-1.97,2.99
		c-3.99,6.09-8.98,11.26-15.28,16.74c-1.6-4.41-0.73-8-1.08-11.43c-0.36-3.62-1.23-7.23-1.24-10.84
		c-0.03-24.6-2.29-49.11-3.02-73.68c-0.63-21.25-0.85-42.53-1.91-63.74c-1.44-28.78-1.68-57.77-9.25-85.92
		c-1.38-5.13-2.91-10.23-4.54-15.28C242.64,28.21,241.48,24.8,242.49,20.62z"/>
	<path class="st0" d="M692.24,432.29c1.56-9.08-2.75-15.59-7.75-22.06c-9.09-11.77-20.95-20.2-33.21-28.57
		c-0.65-6.35,2.92-12.02,2.78-17.83c9.22-7.92,17.93-15.51,24.93-25.05c8.49,4.39,14.4,10.45,17.93,19.3
		c4.73,11.84,7.87,24.05,8.13,36.66c0.26,12.65-2.08,25.05-9.23,36C695.25,431.62,694.56,432.21,692.24,432.29z"/>
	<path class="st0" d="M539.39,760.56c1.09-17.02,8.8-30.5,18.19-43.61c4.76,1.41,6.37,5.3,8.55,8.34c4.67,6.54,10.53,8.74,18.4,6.04
		c9.6,8.28,16.83,19.47,28.28,25.25c1.96,2.37-1.21,3.89-0.29,5.86c0.42,0.9,0.72,1.85,1.29,3.33c-4.75,2.81-9.46,5.87-14.41,8.46
		c-9.57,5-11.27,3.96-20.4-3.02c-2.28-1.74-3.68-4.61-7.19-4c-2.57,3.09,3.06,4.37,1.51,6.88c-1.46,2.36-1.56,4.97-1.86,7.57
		c-7.9-1.9-9.08-10.18-14.55-13.52c-1.35-5.81,1.16-11.99-4.04-16.81C548.38,753.54,546.77,760.6,539.39,760.56z"/>
	<path class="st0" d="M212.02,697.4c-1.28,1.26-2.56,2.51-3.84,3.77c-2.22,3-5.75,5.12-6.26,9.28l0.34-0.4
		c-3.49,3.22-8.35,5.45-8.25,11.29c-4.38,4.18-8.76,8.37-13.15,12.55c-4.9,3.33-10.19,3.62-15.8,2.25c-6.97-1.7-14-3.2-20.01-7.96
		c2.45-4.38,8.15-5.18,9.25-10.1l-0.39,0.33c0.94-0.2,2.18-0.07,2.78-0.63c5.53-5.12,11.76-9.5,16.45-15.51
		c1.61-1.66,3.23-3.31,4.84-4.97c6.64-3.95,11.15-10.26,16.94-15.16c1.46-2.23,3.54-3.7,5.7-5.22c9.34-6.54,18.51-13.31,25.38-22.63
		c2.81,2.24,2.25,5.29,1.98,8.27c-0.47,3.29-2.04,6.11-3.79,8.85c-1.74,3.22-3.69,6.34-5.16,9.67
		C216.64,686.49,212.6,691.2,212.02,697.4z"/>
	<path class="st0" d="M483.87,151.67c-8.34,2.36-16.21,4.59-24.93,7.06c-0.91-9.38-1.73-17.87-2.55-26.36
		c-1.8-18.81-2.81-37.85-8.24-56c-5.07-16.96-6.4-34.49-9.9-51.67c-1.04-5.08-3.19-9.95-3.22-15.88c5.99,4.23,9.74,9.72,13.93,14.81
		c1.12,1.36,1.64,2.89,1.45,4.61c-1.09,9.89,2.33,19.07,5.02,28.21c5.53,18.79,11.9,37.33,17.79,56.01
		c1.06,3.36,3.17,6.58,2.34,11.5c-9.41-15.64-13.52-32.63-22.86-49.11c-0.82,6.9,1.69,11.44,3.15,16.08
		c1.7,5.37,3.82,10.62,5.91,15.86c1.97,4.93,3.96,9.86,6.25,14.64c2.44,5.09,5.3,9.97,7.85,15
		C478.26,141.14,481.91,145.18,483.87,151.67z"/>
	<path class="st0" d="M226.02,654.28c-6.87,9.32-16.04,16.09-25.38,22.63c-2.17,1.52-4.24,2.99-5.7,5.22
		c-6.13,2.29-13.9,9.24-16.94,15.16c-1.61,1.66-3.23,3.31-4.84,4.97c-0.32-2.36-0.64-4.73-0.97-7.09c3.1-4.85,6.19-9.69,9.29-14.54
		c8.84-9.21,17.74-18.39,25.48-28.56c4.89-6.43,5.2-9.2,4.2-18.01c0.27-0.35,0.49-0.73,0.67-1.13c1.81-2.37,3.55-4.57,6.92-5.11
		c7.8-1.26,14.22-6.81,22.32-7.36c1.82-0.12,2.48-1.96,3.59-3.14c2.64-2.82,5.47-5.46,8.8-7.74c-2.56,13.19-7.66,25.09-14.84,35.55
		c-0.84,0.47-1.22,0.84-1.4,0.76c-1.16-0.51-2.27-1.11-3.86-1.92C230.88,647.43,228.45,650.85,226.02,654.28z"/>
	<path class="st0" d="M214.51,416.61c-6.5,4.27-11.76,5.37-16.8,6.86c-9.85,2.92-19.86,5.33-29.77,8.06
		c-4.66,1.29-9.12,1.33-13.6-0.74c-2.4-1.11-4.97-1.84-7.47-2.74c-14.96-5.4-25.08-15.79-30.97-30.38
		c-1.56-3.85-3.75-7.62-4.27-13.39c8,4.37,15.6,6.34,20.85,12.79c4.08,5.01,10.02,7.79,15.74,10.27c12.86,5.57,26.3,9.19,40.48,9.26
		C196.67,416.64,204.64,416.61,214.51,416.61z"/>
	<path class="st0" d="M181.47,680.63c-3.1,4.85-6.19,9.69-9.29,14.54c-6.09,7.75-12.18,15.49-18.26,23.24c0,0,0.39-0.33,0.39-0.33
		c-1.81-0.21-3.08,0.78-4.41,1.83c-2.84,2.24-5.43,4.9-9.76,5.98c-9.94-5.61-19.65-12.27-30.47-20.39
		c13.75-3.36,25.97-6.69,37.67-11.58c11.63-4.86,22.61-10.91,32.8-17.72C182.91,677.48,181.57,679.17,181.47,680.63z"/>
	<path class="st0" d="M238.04,414.58c-4.03,7.34-6.99,15.34-13.18,21.35c-8.31,4.66-17.96,6.56-25.68,12.48
		c-1.25,0.96-2.97,1.42-4.55,1.8c-7.74,1.87-15.49,3.71-23.28,5.38c-2.46,0.53-5.21,1.06-7.27-2.23c5.8-2.89,12.65-1.59,18.94-6.53
		c-13.51-2.19-26.53,2.47-39.22-3.73c6.14-1.07,11.34-2.18,16.59-2.83c4.95-0.61,9.46,3.29,14.54,1.85
		c1.51-1.89-1.33-2.87-0.41-5.12c4.74-1.47,10.03-3.16,15.36-4.74c14.68-4.34,29.03-9.48,42.5-16.87
		C234.2,414.41,235.98,413.67,238.04,414.58z"/>
	<path class="st0" d="M371.22,210.62c-2.78,3.19-5.83,4.3-9.1,4.86c-3.17-0.69-3.94-3.45-5.06-5.77
		c-8.81-18.23-17.53-36.5-26.32-54.74c-5.18-10.76-10.49-21.46-15.61-32.24c-1.08-2.26-3.19-4.29-2.42-7.3
		C326.29,128.34,365.2,191.56,371.22,210.62z"/>
	<path class="st0" d="M510.1,555.77c-7.7-9.68-12.6-19.53-18.6-28.68c-1.83-2.79-3.34-5.75-3.67-9.18c-0.37-3.93,0.6-7.74,4.02-9.55
		c7.63-4.04,11.85-11.14,17.06-17.39c1.03-1.23,1.64-2.97,4.56-2.57c0.78,7.47-3.62,14.26-3.59,21.61
		c0.03,7.32-1.6,14.49-1.65,21.85C508.18,539.56,509.87,547.04,510.1,555.77z"/>
	<path class="st0" d="M607.72,511.65c10.14,0.82,13.57-7.13,19.25-11.89c2.15,1.11,3.23,4,6.43,4.02
		c-5.83,13.18-11.25,26.24-15.18,40.71c-6.77-4.6-10.69-9.57-10.52-17.16C607.81,522.38,607.72,517.43,607.72,511.65z"/>
	<path class="st0" d="M547.69,322.98c2.41,2.9,4.72,5.95,3.61,10.26c-1.8,1.57-3.87,1.62-5.78,1.15
		c-6.39-1.55-10.15,2.04-13.01,6.79c-2.2,3.66-4.07,7.52-5.25,11.75c-0.95,3.41-1.64,7.08-3.85,9.96c-2.99-0.02-3.31-2.03-3.54-3.95
		C517.72,340.48,528.51,326.32,547.69,322.98z"/>
	<path class="st0" d="M473.44,300.34c-7.87,0.27-13.5-1.45-19.07-3.66c-5.53-2.2-11.11-4.28-16.77-6.46
		c-3.52,3.81,0.49,8.6-2.05,12.18c-3.16-0.45-3.22-4.31-6.23-4.96c-0.76,0.7-1.63,1.49-3.06,2.79c2.11-6.07-7.57-8.04-3.66-14.33
		C435.36,282.97,457.56,288.9,473.44,300.34z"/>
	<path class="st0" d="M545.39,147.01c-7.91,0.62-7.91,0.62-9.48-3.72c-0.22-0.62-0.43-1.26-0.55-1.91
		c-1.73-8.91-6.67-15.63-13.14-21.94c-4.61-4.49-7.56-10.74-9.39-17.17c-0.12-0.41,0.61-1.06,1.41-2.32
		c7.67,6.42,13.44,14.27,18.88,22.31C538.23,129.84,542.1,138.09,545.39,147.01z"/>
	<path class="st0" d="M188.62,574.99c3.75-4.17,5.63-9.41,8.24-14.24c1.69-3.13,3.44-6.22,5.17-9.33c2.64-4.9,5.96-9.52,6.2-15.39
		l-0.28,0.45c2.78-2.93,4.5-6.29,4.27-10.45l-0.35,0.32c0.91-0.28,1.81-0.56,3.1-0.95c-0.14-0.03,0.45,0.03,0.45,0.11
		c0.46,21.95-10.85,38.16-24.97,52.97C188.12,577.51,188.42,576.24,188.62,574.99z"/>
	<path class="st0" d="M591.37,292.55c-0.09,8.04-5.22,11.91-10.2,16.35c-6.4,5.7-12.4,0.45-19.08,1.02c2.88-3.75,6.03-6.51,9.68-7.7
		C578.76,299.92,585.13,296.66,591.37,292.55z"/>
	<path class="st0" d="M601.01,533.51c-2.39-0.66-4.57-1.26-7.04-1.94c0.67-6.07,3.53-10.91,6.31-15.72
		c0.95-1.65,2.78-2.67,4.92-2.44c2.74,4.35-2.96,6.61-2.54,9.7c0.44,3.22,2.36,6.16-0.26,9.22
		C602.2,532.58,601.91,532.76,601.01,533.51z"/>
	<path class="st0" d="M113.41,616.48c6.28,3.42,12.43,1.32,18.63,2.55c-3.17,4.84-8.6,2.93-12.54,4.82
		c-4.03,1.93-8.65,2.64-13.72,4.09C107,622.81,111.04,620.68,113.41,616.48z"/>
	<path class="st0" d="M150.23,634.2c2.45-1.41,4.39-3.33,5.8-5.78c6.84-2.57,12.94-1.42,17.33,3.28
		c-6.63,0.38-12.62,3.46-19.08,4.51C152.93,635.53,151.58,634.87,150.23,634.2z"/>
	<path class="st0" d="M639.18,759.35c-3.8,4.46-3.8,4.46-10.22,6.8c-1.63-2.29-3.29-4.61-4.97-6.97
		C630.58,755.61,632.22,755.65,639.18,759.35z"/>
	<path class="st0" d="M664.62,730.32c5.14,10.87,5.06,11.16-4.25,16.07C659.96,740.39,664.3,735.97,664.62,730.32z"/>
	<path class="st0" d="M244.18,596.21c1.24-1.09,2.49-2.18,3.73-3.27c4.17,0.72,1.68,4.19,2.59,6.26c-2.24-0.17-1.98,2.18-3.13,3.11
		c-1.24,0.99-2.49,1.96-4.84,3.8C243.21,602.03,243.7,599.12,244.18,596.21z"/>
	<path class="st0" d="M555.33,321.46c-5.72-4.16-5.7-4.18-3.56-8.39c2.06,0.35,2.13,1.93,2.34,3.56
		C554.31,318.09,554.83,319.51,555.33,321.46z"/>
	<path class="st0" d="M556.6,333.66c-1.17-2.75,0.98-4.23,2-6.11c2.02-0.11,2.59,1.27,3.01,2.96
		C560.79,332.81,558.95,333.54,556.6,333.66z"/>
	<path class="st0" d="M669.79,716.34c-1.68-4.46-2.51-6.67-3.53-9.38c2.29,0.55,2.87,1.93,3.2,3.26
		C669.75,711.41,669.62,712.7,669.79,716.34z"/>
	<path class="st0" d="M636.32,500.82c0.82-4.42,2.04-6.51,4.78-8.01C643.09,496.83,639.44,497.72,636.32,500.82z"/>
</g>
</svg>
