<?xml version="1.0" encoding="utf-8"?>
<!-- Generator: Adobe Illustrator 24.1.3, SVG Export Plug-In . SVG Version: 6.00 Build 0)  -->
<svg version="1.1" id="Layer_1" xmlns="http://www.w3.org/2000/svg" xmlns:xlink="http://www.w3.org/1999/xlink" x="0px" y="0px"
	 viewBox="0 0 557.66 465.9" enable-background="new 0 0 557.66 465.9" xml:space="preserve">
<g>
	<path d="M557.66,140.32c-3.47,3.95-5.35,7.79-7.56,11.4c-3.8,6.22-8.42,11.79-13.53,16.85c-6.07,6.02-9.51,13.68-14.15,20.59
		c-1.17,1.75-1.21,4.4-1.36,6.67c-0.85,12.96-4.45,25.37-7.55,37.86c-3.99,16.1-7.78,32.3-12.73,48.11
		c-4.45,14.2-11.25,27.33-21,38.98c-7.19,8.59-15.79,15.31-24.42,22.13c-2.32,1.84-5.09,2.95-7.63,4.39
		c-13.48,7.63-26.15,16.66-40.07,23.52c-8.48,4.18-17.07,8.31-26.24,10.56c-6.34,1.56-13.05,1.89-19.81,1.33
		c-3.75,11.04-8.57,21.28-15.36,30.59c-6.99,9.59-15.29,17.59-26.22,22.36c-5.66,2.47-11.84,3.67-18.04,4.05
		c-4.65,0.28-9.34-0.15-13.99,0.1c-10.48,0.54-20.52-1.47-30.41-4.64c-7.99,8.06-14.16,17.77-22.74,25.32
		c-3.51,3.1-7.05,5.47-12.2,5.42c-5.53-0.05-8.06-3.7-8.48-8.31c-0.65-7.07,0.02-14.13,2.43-20.92c1.84-5.19,1.93-10.97,5.64-15.84
		c-2.7-2.55-3.78-6.26-6.99-8.51c-1.78-1.25-2.31-3.48-2.22-5.77c0.11-2.66,0.02-5.32,0.02-8.53c-8.14,4.84-15.7,9.82-23.67,14.12
		c-8,4.32-16.54,5.35-25.25,4.43c-6.12-0.64-12.2-2.16-18.12-3.9c-5.93-1.74-12.01-3.59-16.18-8.69c-1.62-1.98-1.87-5.01-4.8-6.17
		c-6.66,2.83-12.23,7.67-18.6,11.2c-5.08,2.81-10.47,5.12-16.03,5.54c-9.53,0.73-12.36-3.91-10.82-13.66
		c1.16-7.33,4.59-13.82,9.34-19.67c-2.86-2.83-5.41-5.8-7.3-9.33c-3.94-7.38-2.76-14.85-0.9-22.48c0.75-3.08,3.11-5.88,2.01-9.53
		c-12.84,2.26-23.46-1.7-32.17-11.12c-8.63-9.33-10.42-20.52-8.16-32.48c-3.4-1.17-5.49,0.89-7.5,1.76
		c-5.11,2.22-10.52,3.5-15.66,5.59c-2.07,0.84-4.4,1.03-6.72,1.24c-10.24,0.95-14.33-8.93-11.78-16.47
		c2.13-6.31,6.34-10.7,11.27-14.56c6.96-5.46,14.87-9.26,23.03-12.61c2.22-0.91,4.83-1.66,5.86-3.12c0.16-1.74-0.23-2.04-0.7-2.23
		c-4.31-1.79-5.11-4.35-2.02-7.61c2.94-3.1,6.91-4.91,10.41-7.3c1.32-0.9,3.07-1.13,4.41-2.83c-8.92-6.84-8.51-15.39-3.26-25.59
		c-5.11,1.35-9.41,1.17-13.7,1.26c-4.68,0.1-9.16-0.26-13.31-2.74c-3.46-2.07-4.68-5.86-2.28-9c5.33-7.01,12.29-11.72,20.56-14.91
		c7.13-2.75,14.42-4.52,21.89-5.83c3.01-0.53,5.98-0.86,9.05-0.67c4.17,0.26,8.33-2.06,12.52-0.09c5.18-4.14,11.93-4.83,17.59-8.12
		c7.38-4.29,15.46-5.46,24.3-4.99c11.83,0.63,22.43,5.56,33.76,7.8c9.47,1.87,16.71-0.09,23.61-5.7
		c8.92-7.26,18.36-13.73,28.82-18.47c6.97-3.15,14.07-6.03,21.08-9.13c6.7-2.96,11.76-7.86,15.58-13.83
		c6.94-10.86,12.59-22.49,19.8-33.21c7.01-10.42,13.6-21.19,21.6-30.84c5.97-7.21,12.22-14.24,18.06-21.56
		c7.3-9.14,15.89-16.62,25.82-22.63c5.72-3.46,11.64-6.61,17.35-10.08c4.32-2.63,8.07-6.08,12.35-8.81c1.96-1.25,3.32-1.31,5.4-0.34
		c20.52,9.51,40.03,20.64,58.21,34.21c9.54,7.13,19.24,14.09,28.74,21.27c10.45,7.9,20.8,15.96,30.83,24.42
		c12.15,10.24,24.27,20.5,36.13,31.08c9.99,8.92,20.47,17.28,30.74,25.88C555.26,138.39,556.31,139.22,557.66,140.32z"/>
	<path fill="#1A1A1A" d="M519.13,110.58c11.78,10.1,23.25,19.94,35.06,30.07c-4.4,7.11-8.2,14.68-14.74,21.29
		c-0.29-1.52-0.47-2.5-0.66-3.48c-4.96,1.14-5.06,1.29-7.01,5.87c-0.7,1.65-1.68,3.18-2.56,4.75c-0.32,0.57-1.19,1.31-1.05,1.57
		c1.3,2.39,0.83,4.33-0.83,6.4c-1.62,2.03-2.88,4.35-4.27,6.56c-0.51,0.81-0.93,1.67-1.5,2.71c-1.51-2.16,0.32-3.78,0.51-5.52
		c0.73-7.02,1.37-14.05,2.1-21.07c0.77-7.36,0.93-14.76,1.78-22.11c0.32-2.75,3.27-4.2,3-7.08c-3.77-0.51-5.73,0.49-6.64,3.71
		c-0.62,2.19-1.19,4.48-1.23,6.73c-0.14,8.25-1.16,16.42-2.15,24.58c-0.83,6.79-1.82,13.58-3.38,20.27
		c-0.78,3.33-1.26,6.77-1.49,10.19c-0.88,12.87-2.26,25.61-5.63,38.15c-2.74,10.2-5.03,20.52-8.34,30.58
		c-2.89,8.81-5.67,17.69-9.7,26.02c-4.1,8.48-9.07,16.51-14.82,24.06c-8.84,11.61-20.31,20.27-32.71,27.21
		c-12.37,6.92-23.71,15.6-36.8,21.23c-2.99,1.28-5.85,2.81-8.72,4.35c-2.36,1.26-4.86,3.75-7.91,0.47
		c-1.18-1.27-2.86,0.29-3.68,1.53c-2.99,4.52-9.14,4.06-12.45,8.03c-3.19-0.93-6.75-0.25-9.73-2.14
		c2.76-10.57,9.96-17.73,19.54-23.98c-4.14-1.09-6.63,0.39-8.83,1.7c-7.42,4.4-12.05,11.1-15.32,19.01
		c-3.6,8.72-5.49,18.05-9.79,26.54c-2.37,4.68-4.88,9.27-8.27,13.15c-6.12,7.01-12.08,14.33-20.86,18.34
		c-5.69,2.6-11.8,4.2-17.93,4.36c-9.87,0.25-19.82,1.02-29.64-0.86c-3.78-0.72-7.59-1.41-11.2-2.98c2.89-5.03,7.16-8.68,9.81-13.52
		c1.17-2.14,2.16-4.35,3.16-6.57c1.28-2.83,0.51-4.27-1.72-5.6c-3.69,1.97-3.27,6.27-5.39,9.17c-7.19,9.88-15.01,19.24-23.01,28.44
		c-4.54,5.22-9.6,9.99-14.46,14.93c-0.9,0.92-1.77,1.75-3.17,2.22c-6.11,2.08-7.09,1.25-7.52-5c-0.95-13.66,5.61-24.45,12.64-35.19
		c2.97-4.55,6.46-8.69,10.16-12.56c1.62-1.69,0.87-2.72,1.12-4.64c-8.91,4.07-12.82,12.1-18.34,18.76c-0.16-0.21-0.29-0.42-0.46-0.6
		c-5.76-6.1-4.66-14.14-5.94-21.48c-0.42-2.4-1.03-5.35,2.4-6.81c0.68-0.29,0.75-1.99,1.2-3.31c-3.86,0.16-2.71-1.72-1.16-3.97
		c1.63,1.46,3.52,2.8,5.49,0.3c0.32-0.41,1.25-0.63,1.82-0.52c4.81,0.89,9.16-1.15,13.69-2.01c6.51-1.23,12.95-1.09,19.59-0.21
		c11.42,1.51,21.69,5.6,31.52,11.3c6.05,3.51,12.14,6.86,18.82,9.23c5.34,1.89,9.85,0.93,14.25-1.75
		c11.5-7.01,19.89-16.54,24.79-29.35c1.99-5.21,5.31-10.03,8.06-14.98c3.42-6.16,7.07-12.08,11.51-17.45
		c4.76-5.75,10.09-11.02,15.86-15.79c3.03-2.5,7.22-4.05,9.64-6.58c7.72-8.1,18.04-12.4,26.27-19.66
		c6.09-5.37,12.08-10.74,17.02-17.2c8.23-10.76,16.63-21.42,23.04-33.42c5.07-9.49,9.02-19.51,13.7-29.16
		c4.56-9.39,8.62-18.94,11.74-28.87c2.48-7.91,3.84-16.13,6.59-23.98c3.7-10.58,6.28-21.54,11.18-31.73
		c2.97-6.18,5.71-12.43,9.68-18.09C516.04,113.43,517.28,112.04,519.13,110.58z"/>
	<path fill="#1A1A1A" d="M85.7,409.48c-1.24-1.21-1.66-2.85-1.65-4.76c0.04-6.61,2.01-12.76,6.3-17.57
		c9.39-10.53,19.58-20.27,31.62-27.87c3.99-2.52,8.01-5.04,11.74-7.92c1.66-1.28,3.37-2.53,4.77-4.53c1.88-2.69,6.33-3.36,9.78-2.81
		c4.14,0.66,8.13,2.29,11.21,5.58c2.1,2.25,3.95,4.43,3.6,7.75c-0.22,2.12,0.37,3.49,2.5,4.76c3.93,2.35,5.37,7.21,9.19,9.98
		c4.21,3.05,8.02,6.55,13.48,7.36c2.17,0.32,4.4,0.64,6.42,0.18c7.08-1.61,14.02-1.15,20.99,0.37c-0.57,8.74-5.69,14.19-12.68,18.29
		c-4.5,2.64-9.19,4.97-13.56,7.78c-6.73,4.33-13.75,4.19-21.32,2.93c-5.15-0.86-10.32-1.24-15.36-2.87
		c-9.13-2.96-17.63-6.73-23.44-14.86c9.21-8.56,19.08-16.42,27.73-25.66c-5.4,1.02-9.98,3.73-14.08,6.95
		c-5.95,4.67-11.22,10.19-17.16,14.87c-7.93,6.25-15.22,13.44-24.57,17.75C96.3,407.44,91.16,408.78,85.7,409.48z"/>
	<path fill="#1A1A1A" d="M84.84,269.59c2.74,0.82,4.76-0.47,6.58-2.59c2.62,9.47,4.67,18.73,6.29,28.08
		c1.18,6.84,0.96,13.87,3.06,20.63c0.47,1.52-1.01,3.89-2.52,5.6c-4.06,4.61-7.19,10.45-13.45,12.33c-9.7,2.9-18.65,0.99-26.76-5.32
		c-8.15-6.34-9.95-15.2-10.22-24.61c-0.07-2.62-1.06-5.02-0.86-7.7c0.18-2.42,0.98-3.93,2.95-5.26c3.42-2.29,7.16-3.95,10.78-5.83
		c1.69-0.88,3.14-1.82,2-3.67c-1-1.62-2.74-0.91-4.3-0.24c-12.99,5.65-25.2,13.1-38.95,17.01c-2.5,0.71-4.92,1.65-7.59,1.77
		c-2.56,0.12-4.56-0.46-5.75-2.91c-1.2-2.47-1.6-4.85-0.19-7.47c4.29-8,10.92-13.65,18.83-17.47c15.96-7.72,32.44-14.29,49.35-19.66
		c3.7-1.18,7.61-1.73,11.44-2.48c2.66-0.52,3.99,1.63,5.15,3.27c1.55,2.2,0.08,7.34-2.31,8.97c-2.76,1.89-3.77,4.45-3.38,7.68
		c-2.32,0.57-5.42-1.29-6.81,1.73c0.92,3.9,4.16,3.35,6.5,3.77c1.38,0.25,3.26-1.09,1.97-3.32
		C86.17,271.08,85.46,270.37,84.84,269.59z"/>
	<path fill="#1A1A1A" d="M69.9,209.1c0.43-1.16-1.53-1.88-0.18-3.03c-7.58-1.32-14.48,0.45-21.53,1.45
		c-6.45,0.91-13.14,0.27-19.72,0.2c-1.28-0.01-2.39-0.85-3.66-2.07c2.33-4.52,6.15-7.5,10.46-9.86c8.66-4.74,17.93-7.52,27.7-9.15
		c5.49-0.91,10.87-0.57,16.8-0.88c-1.39,3.08-4.35,4.42-5.87,7.31c1.85,1.15,3.38,0.82,4.97-0.22c1.5-0.99,3.02-1.95,4.61-2.79
		c1.57-0.84,3.22-1.53,4.88-2.31c4.6,4.25,2.35,8.74,0.78,13.24c2.85,3.59,4.37,7.66,3.91,12.3c-0.4,4.04-1.54,7.71-6.02,9.05
		c-8.5,2.54-15.99,7.27-23.91,11.04c-2.66,1.26-4.82,1.68-7.18-0.23c-2.6-2.11-4.18-4.9-3.71-8.15c0.53-3.69,1.92-7.28,3.97-10.42
		c1.75-2.69,4.66-3.7,7.81-3.75C66.15,210.78,68.28,210.88,69.9,209.1z"/>
	<path fill="#1A1A1A" d="M183.94,213.69c3.91-3.23,8.59-4.83,13-6.63c3.75-1.53,7.3,0.8,10.25,3.36
		c10.9,9.47,17.76,21.59,22.87,34.86c0.93,2.43,1.84,4.88,2.96,7.22c2.67,5.59,0.37,9.38-5.08,12.21
		c-5.56,2.88-11.41,2.36-17.21,0.86c-1.61-0.42-2.44-1.43-2.8-3.43c-1.6-8.83-4.36-17.36-8.89-25.14
		c-3.68-6.32-6.57-13.22-12.37-18.13C185.12,217.56,184.3,215.79,183.94,213.69z"/>
	<path fill="#1A1A1A" d="M133.97,346.58c2,1.73,0.59,3.35-0.59,2.93c-5.79-2.09-8.79,2.68-12.33,5.07
		c-8.58,5.79-16.62,12.38-24.88,18.64c-1.2,0.91-1.96,2.18-3.08,4.11c-3.04-4.12-6-7.89-8.65-11.87c-0.91-1.35-1.02-3.88-0.13-4.78
		c3.99-4.04,3.76-9.23,4.31-14.14c0.36-3.23,1.78-5.81,3.38-8.46c2.72-4.5,5.69-8.84,9.67-12.3c1.91-1.66,4.32-2.91,6.58-0.29
		c5.69,6.6,13.69,9.18,21.37,12.22c3.46,1.37,6.92,2.67,10.37,4.66C138.02,343.74,136.17,345.03,133.97,346.58z"/>
	<path fill="#1A1A1A" d="M46.82,256.93c-0.97-1.44-0.88-2.38-0.15-3.2c7.4-8.32,15.86-15.14,26.65-18.58
		c4.06-1.29,5.61-0.33,5.67,3.87c0.04,3.03,2.04,4.2,4.85,5.91C70.9,248.59,58.41,251.12,46.82,256.93z"/>
</g>
</svg>
