<?xml version="1.0" encoding="utf-8"?>
<!-- Generator: Adobe Illustrator 24.0.2, SVG Export Plug-In . SVG Version: 6.00 Build 0)  -->
<svg version="1.1" id="Layer_1" xmlns="http://www.w3.org/2000/svg" xmlns:xlink="http://www.w3.org/1999/xlink" x="0px" y="0px"
	 viewBox="0 0 2122.33 2252.64" style="enable-background:new 0 0 2122.33 2252.64;" xml:space="preserve">
<g>
	<path d="M1083.67,1664.44c2.69,9.22,5.46,17.64,7.02,26.49c2.33,13.21,2.36,26.51,1.75,39.8c-1.16,25.58-5.37,50.81-9.35,76.07
		c-1.76,11.14-3.13,22.36-4.24,33.58c-0.59,5.99,1.24,11.86,2.62,17.66c2,8.45,5.14,16.5,9.07,24.24
		c7.52,14.84,14.98,29.73,20.68,45.39c2.38,6.54,4.45,13.25,5.99,20.03c2.32,10.19,1.9,20.36-0.62,30.62
		c-5.27,21.43-14.06,41.56-22.02,62c-8.93,22.96-17.49,46.05-21.5,70.47c-2.96,18.04-6.11,36.02-9.79,53.93
		c-1.38,6.73-0.62,13.93-0.58,20.92c0.05,7.17-1.7,13.84-4.88,20.18c-1.95,3.9-4.21,7.88-7.9,10.15
		c-4.82,2.96-7.61,7.19-10.18,11.93c-9.07,16.73-24.81,21.41-40.45,18.21c-0.63-0.13-1.31-0.02-2.24-0.02
		c-3.27,0.66-3.6,5.53-7.67,5.78c-0.81-1.03-1.77-2.26-2.97-3.78c-3.45,0.83-6.98,1.94-10.65,1.49c-3.28-0.41-6.54-0.94-10.3-1.48
		c-3.7,0.86-2.82,7.43-7.82,7.53c-0.39-0.55-0.9-1.01-1.08-1.57c-3.6-10.84-3.59-10.84-11.66-3.59c-0.19,0.17-0.63,0.05-0.99,0.06
		c-2.12-1.15-1.69-3.3-1.89-5.16c-0.29-2.69-0.68-5.44-2.78-7.26c-4.56-3.97-4.9-9.3-4.41-14.52c0.8-8.57,2.11-17.12,3.54-25.61
		c1.5-8.93,5.6-16.2,14-20.65c4.7-2.49,9.11-5.51,13.63-8.33c6.47-4.04,10.97-9.43,12.6-17.16c1.79-8.45,3.54-16.85,4.22-25.53
		c0.93-11.9,2.73-23.74,4.25-35.59c2.33-18.11,4.31-36.25,5.62-54.46c1.02-14.23,2.89-28.44,3.09-42.67
		c0.26-17.96,1.32-35.91,0.64-53.92c-0.44-11.61-1.71-23.16-2.09-34.78c-0.43-13.26-4.03-26.24-7.04-39.19
		c-10.41-44.78-25.41-88.17-39.87-131.72c-6.5-19.57-12.53-39.28-17.34-59.35c-2.58-10.74-7.04-20.78-12.12-30.53
		c-7.29-13.99-12.38-28.63-14.7-44.29c-0.79-5.33-0.4-10.63-0.69-15.93c-1.64-30.02-7.85-59.24-15.3-88.23
		c-7.12-27.69-14.7-55.27-21.54-83.03c-8.35-33.9-14.31-68.22-17.88-103c-2.34-22.85-3.65-45.74-3.63-68.64
		c0.02-34.23,2.31-68.35,7.57-102.26c2.91-18.74,6.25-37.35,10.71-55.77c2.82-11.66,6.41-23.08,10.69-34.24
		c3.4-8.87,4.86-17.86,4.89-27.28c0.06-15.65,0.05-31.32,0.72-46.95c0.76-17.59,6.4-33.85,15.11-49.09
		c0.16-0.29,0.36-0.56,0.57-0.82c14.09-17.65,12-37.21,6.23-56.92c-3.09-10.55-7.79-20.64-13.77-29.84
		c-11.32-17.42-18.77-35.91-18.61-56.75c-1.67-1.26-2.63-0.25-3.53,0.62c-16.64,16.02-35.46,29.12-55.2,40.96
		c-6.87,4.12-13.96,7.96-19.13,14.23c-5.28,6.4-22.8,8.18-31.02,4.08c-1.45-0.72-3.01-1.71-3.9-3
		c-12.83-18.55-27.35-36.1-33.34-58.62c-4.82-18.08-7.61-36.42-8.11-55.09c-0.65-24,2.14-47.74,5.25-71.5
		c2.54-19.4,6.8-38.62,6.72-58.33c-0.01-3.67-0.11-7.26-1.49-10.79c-5.88-15.07-4.54-30.8-3.36-46.33
		c0.54-7.2,1.15-14.52,3.11-21.66c2.77-10.09,7.81-18.35,16.91-23.66c3.3-1.92,5.65-3.99,7.27-7.66
		c3.56-8.07,9.97-13.28,18.75-14.92c2.74-0.51,4.98-1.33,7.12-3.11c2.03-1.69,4.4-2.98,6.68-4.36c6.06-3.66,12.15-4.82,18.16,0.5
		c1.93-5.46,3.58-10.45,5.45-15.36c3.5-9.2,10.87-13.39,20.45-11.47c5.22,1.05,8.88,4.28,10.73,9.31c3.58,9.73,3.95,20.04,3.3,30.05
		c-0.36,5.54-3.47,11.36-7.41,15.56c-3.07,1.36-3.82-3.06-6.7-1.76c-0.98,5.55-3.32,11.05-2.79,17.04c3.53,0.09,4.13-2.62,5.36-4.4
		c4.88-7.08,10.96-11.73,20.09-10.15c4.23,0.73,7.75-1.36,12.42-2.59c2.08,10.92-1.62,20.23-8.32,27.54
		c-10.02,10.93-18.13,22.65-24.45,36.13c-5.92,12.63-16.32,21.68-29.12,27.65c-1.81,0.84-3.61,1.7-5.39,2.6
		c-2.89,1.47-4.65,3.71-4.73,7.07c-0.25,10.23-2.74,20.37-0.29,30.74c1.05,4.42,0.1,9.29,0.25,13.95c0.41,12.27,1.22,24.5,4.6,37.31
		c19.21-36.64,46.59-61.38,87.49-66.45c3.13-2.27,3.78-4.81,4.48-7.41c2.4-8.99,4.86-17.97,7.37-26.93
		c2.26-8.06,5.97-15.51,9.94-22.83c8.81-16.25,23.79-22.43,40.99-24.7c3.62-0.48,7.3-0.35,10.62-2.36c1.16-2.38-1.06-3.49-2.05-5
		c-10.17-15.4-16.96-32.39-23.3-49.57c-8.55-23.18-12.62-47.51-17.62-71.57c-3.72-17.91-6.16-36.09-5.77-54.39
		c0.67-31.22,5.94-61.53,21.22-89.32c1.92-3.5,2.04-6.93,1.98-10.56c-0.24-16.33,1.17-32.49,3.84-48.63
		c2.2-13.31,7.51-25.47,12.15-37.9c9.21-24.69,21.52-47.98,33.71-71.26c13.57-25.93,28.61-51.1,40-78.15
		c0.25-0.59,0.74-1.08,1.12-1.62c7.13,10.88,16.06,38.35,27.31,85.33c6.96,29.08,11.98,58.47,12.18,89.08
		c15.32,0.99,30.07,2.45,44.64,6.6c6.44-6.15,12.4-12.43,18.97-17.99c11.16-9.44,22.84-18.27,34.06-27.65
		c21-17.56,39.13-37.92,56.52-58.96c12.71-15.38,25.32-30.85,38-46.26c1.89-2.3,3.96-4.46,5.88-6.61c2.54,0.43,2.17,2.32,2.23,3.87
		c0.9,24.61,2.28,49.23,1.27,73.84c-1.45,35.28-0.79,70.56-1.36,105.84c-0.32,19.58-1.99,39.13-6.05,58.39
		c-4.03,19.1-10.83,37.09-22.36,52.91c-3.99,5.48-5.6,10.31-4.36,17.31c3.87,21.72,3.88,43.74,2.09,65.67
		c-1.06,12.89-3.24,25.7-7.32,38.09c-1.35,4.11-2.74,8.19-5.44,12.15c-0.72-5.85,2.29-11.21,0.58-17.79
		c-2.37,6.44-4.31,12.12-6.54,17.67c-4.07,10.13-7.65,20.42-15.14,28.91c-3.43,3.89-5.18,9.26-7.78,13.9
		c-4.89,8.72-10.32,17.04-17.2,24.41c-2.15,2.31-4.96,4.43-5.81,7.71c1.25,2.36,3.52,1.85,5.32,2.19
		c16.7,3.17,27.81,13.65,35.9,27.77c8.02,14,12.36,29.37,15.58,45.07c0.73,3.58,1.9,7.22,1.78,10.79
		c-0.32,9.08,3.13,16.99,7.18,24.59c7.57,14.2,11.96,29.59,17.06,44.67c4.89,14.47,8.84,29.28,12.92,44.01
		c2.57,9.28,4.66,18.69,6.9,28.05c1.24,5.2,3.04,10.17,5.25,15.04c2.69,5.94,6.86,10.42,12,14.37c6.33,4.87,13.8,8.08,19.53,13.82
		c1.02,1.02,3,1.2,4.58,1.54c5.46,1.18,10.94,2.26,17.01,3.5c-0.97,4.84-4.61,7.73-7.45,10.39c-6.03,5.65-9.5,12.45-12.61,19.88
		c-3.99,9.5-8.77,18.67-13.39,27.9c-5.25,10.5-7.2,22.1-11.28,33c-10.16,27.21-23.43,52.92-36.75,78.64
		c-3.03,5.85-5.97,11.73-8.82,17.34c2.81,3.83,6.5,4.97,9.61,6.64c32.06,17.22,61.61,38.25,91.07,59.44
		c22.69,16.32,44.96,33.27,69.19,47.36c31.12,18.11,64.23,30.15,100.17,34.53c24.33,2.97,48.35,1.55,72.5-1.61
		c32.7-4.28,61.75-17.73,89.72-34.17c21.52-12.65,43.22-25.03,65.56-36.12c54.72-27.17,111.41-49.04,171.8-60.01
		c33.14-6.02,66.57-8.23,100.29-6.44c36.76,1.96,72.5,8.66,107.2,20.96c3.75,1.33,7.58,2.43,11.31,3.62
		c0.26,2.32-1.4,2.69-2.86,3.48c-8.57,4.62-14,12.14-18.34,20.52c-8.15,15.72-13.78,32.45-18.92,49.32
		c-10.96,35.94-20.14,72.41-32.19,108.01c-10.25,30.28-21.79,60.05-38.4,87.58c-15.84,26.26-35.47,48.97-61.15,66.1
		c-1.08,0.72-2.01,1.66-4.51,3.75c22.96-4.72,43.96-10.45,65.62-9.78c0.83,1.48,0.32,2.12-0.64,2.54
		c-11.18,4.93-20.01,13.12-28.7,21.31c-14.06,13.25-27.65,26.98-41.52,40.43c-32.07,31.11-65.98,60.01-103.67,84.16
		c-27.92,17.89-57.73,31.65-90.32,38.73c-9.73,2.11-19.59,3.66-29.38,5.47c-2.18,0.4-4.4,0.69-6.39,2.99
		c18.24,9.28,36.23,18.58,53.56,31.82c-3.33,0-5.49,0.48-7.31-0.1c-3.3-1.06-6.6-0.74-9.9-0.77c-23.98-0.26-47.98-0.01-71.94-0.86
		c-13.9-0.49-27.73-2.72-41.6-4.19c-10.23-1.08-20.37-2.78-30.62-3.85c-10.2-1.06-20.18-3.97-30.34-5.56
		c-20.68-3.25-41.34-6.61-61.67-11.67c-34.29-8.53-67.71-19.58-99.65-34.84c-30.74-14.69-59.77-32.09-86.34-53.56
		c-34.72-28.06-61.9-62-81.75-102c-10.01-20.18-19.28-40.62-25.98-62.32c-3.72,1.83-3.5,5.32-4.29,7.96
		c-8.8,29.41-20.88,57.49-33.85,85.24c-15.37,32.89-33.44,64.36-50.08,96.58c-5.15,9.97-10.09,20.15-12.08,31.24
		c4.22,3.51,8.94,3.08,13.58,3.17c24.07,0.5,46.6,6.87,67.71,18.29c22.49,12.17,37.79,31.12,49.39,53.38
		c8.63,16.56,15.14,34.01,21.34,51.6c4.76,13.48,9.17,27.12,15.85,39.83c2.32,4.41,5.01,8.63,7.7,12.82
		c5.03,7.83,12.16,13.05,20.73,16.54c12.05,4.91,24.67,7.98,37.06,11.77c14.63,4.47,26.35,12.41,33.14,26.69
		c2.19,4.6,3.4,9.45,4.13,14.32c1.77,11.83,3.02,23.74,2.9,35.74c-0.23,21.98,0.07,43.99-0.9,65.94
		c-0.47,10.62-1.59,21.26-0.96,31.85c0.75,12.57,0.8,25.21,3.03,37.68c0.71,3.98,1.92,7.71,3.16,11.5c2.69,8.21,5.42,16.41,7.9,24.7
		c2.17,7.27,5.9,14.08,9.02,21.06c3.03,6.78,4.99,13.78,4.09,21.27c-0.43,3.52,0.64,6.4,2.42,9.39c3.06,5.16,5.38,10.62,6.28,16.7
		c1.55,10.49,0.24,20.57-4.67,29.84c-2.46,4.63-4.43,8.82-1.98,13.65c-4.02,3.75-7.1-1.43-10.79-0.21
		c-3.68,6.22-7.24,12.58-2.74,19.64c-1.61,2.78-3.61,2.4-5.56,1.91c-2.83-0.72-5.54-2.13-8.36-1.79c-2.33,3.3,1.63,5.78,0.32,9.24
		c-4.77,0.01-9.01-1.92-12.62-4.55c-4.11-3-8.48-5.01-13.26-6.58c-9.69-3.18-17.03-9.02-19.94-19.26c-0.66-2.32-1.58-4.36-3.42-5.94
		c-4.86-4.18-6.48-9.88-7.6-15.87c-2.2-11.74-2.93-23.67-5.23-35.44c-7.13-36.54-14.78-72.96-23.5-109.15
		c-7.72-32.05-17.6-63.4-28.42-94.53c-5.52-15.88-14.68-28.87-26.06-40.78c-27.51-28.81-58.71-53.13-91.7-75.19
		c-23.52-15.73-47.45-30.84-71.21-46.22C1086.55,1666.05,1085.09,1665.27,1083.67,1664.44z M1175.1,962.13
		c5.99-28.98,10.21-56.85,14.97-84.61c3.59-20.92,6.95-41.88,13.31-62.25c2.81-9,2.4-18.35-3.16-26.83
		c-6.57-10.01-13.11-20.04-19.29-30.29c-13.26-21.99-23.83-45.24-31.87-69.64c-0.77-2.35-0.54-5.46-3.87-6.35
		c-3.83,2.63-7.66,5.26-11.8,8.11c-10.97,28.68-24.91,56.2-43.1,81.41c-11.08,15.36-21.24,31.4-33.44,45.94
		c-5.58,6.65-8.31,14.2-8.17,22.85c0.08,4.66-0.02,9.32,0.02,13.97c0.08,10.44,2.53,20.4,6.51,29.97
		c2.78,6.69,7.32,11.88,14.38,14.35c16.89,5.93,31.48,15.63,44.88,27.29c5.01,4.36,9.51,9.65,15.19,12.81
		C1144.12,946.94,1159.13,954.05,1175.1,962.13z M1167.27,490.77c-4.06,5.93-8.26,11.76-12.15,17.8c-3.84,5.97-9.47,10.76-12.56,18
		c3.79,0.96,6.48,3.26,11.16,1.91C1160.01,517.16,1164.94,504.54,1167.27,490.77z M1015.05,511.6c8.92-2.69,6.9-9.62,8.65-14.41
		c0.9-2.45,0.87-5.63-2.95-7.31C1018.9,496.93,1017.18,503.49,1015.05,511.6z"/>
</g>
</svg>
