<?xml version="1.0" encoding="utf-8"?>
<!-- Generator: Adobe Illustrator 24.0.2, SVG Export Plug-In . SVG Version: 6.00 Build 0)  -->
<svg version="1.1" id="Layer_1" xmlns="http://www.w3.org/2000/svg" xmlns:xlink="http://www.w3.org/1999/xlink" x="0px" y="0px"
	 viewBox="0 0 1719.91 2278.87" style="enable-background:new 0 0 1719.91 2278.87;" xml:space="preserve">
<path d="M583.36,2261.12c-5.58-2.98-5.94-7.31-5.31-11.1c2.01-12.08,1.51-24.46,5.5-36.34c3.99-11.87,10.53-21.4,20.99-28.21
	c1.97-1.28,4.08-2.34,4.9-4.72c2.07-6.02,5.63-11.3,8.36-16.98c1.42-2.94,2.57-6.07,2.76-9.52c0.54-9.94,1.16-19.87,2-29.79
	c1.75-20.6,1.27-41.23,1.3-61.86c0.01-5.97,0.5-11.97-1.13-17.88c-0.51-1.87-0.36-4-0.15-5.97c1.34-12.54,1.15-25.17,2.88-37.7
	c1.45-10.51,2.53-21.12,2.92-31.71c0.36-9.63,1.29-19.22,1.75-28.84c0.69-14.41-1.98-28.47-2.6-42.72
	c-0.34-7.92-2.19-15.75-2.92-23.67c-2.21-23.78-4.3-47.57-6.25-71.37c-1.38-16.89-1.67-33.86-2.79-50.74
	c-1.34-20.32-1.29-40.6-0.77-60.85c0.41-15.88,0.3-31.89,2.85-47.68c1.09-6.74-1.06-13.24-2.17-19.71
	c-1.32-7.68-1.33-15.32-0.66-22.86c0.97-10.93,2.3-21.61-0.01-32.65c-1.89-9.04-2.04-18.46-2.84-27.72
	c-3.01-34.82-4.48-69.72-3.2-104.63c0.6-16.21,1.26-32.46,2.77-48.68c1.19-12.87,1.94-25.83,3.04-38.73
	c1.27-14.88,2.72-29.75,4.51-44.58c2.74-22.72,5.99-45.38,8.74-68.1c2.19-18.11,3.96-36.28,5.89-54.42
	c0.36-3.38-0.29-6.02-2.99-8.87c-5.26-5.53-8.9-12.39-12.8-18.99c-1.42-2.4-2.05-4.92-2.01-7.61c0.07-3.99-0.27-8.11,0.59-11.94
	c2.76-12.36,3.7-24.94,5.11-37.45c0.63-5.6,0.01-11.33,0.3-16.98c0.68-13.61,1.26-27.23,2.51-40.79c0.55-6.01-1.47-10.03-5.69-13.92
	c-19.81-18.26-39.35-36.83-59.2-55.04c-14.45-13.26-29.41-25.98-43.85-39.25c-11.28-10.36-22.15-21.16-33.13-31.84
	c-6.2-6.03-12.31-12.1-19.58-16.94c-4.45-2.97-7.45-7.56-10.99-11.54c-6.64-7.45-13.33-14.86-20.15-22.15
	c-5.22-5.59-7.41-12.61-9.11-19.66c-1.55-6.42,0.71-12.46,4.24-17.97c3.96-6.16,7.81-12.38,11.8-18.51
	c3.3-5.06,4.52-11.03,7.51-16.29c9.61-16.89,22.11-31.59,34.31-46.51c10.53-12.88,22.06-24.86,33.56-36.89
	c18.17-19.01,37.86-36.43,56.39-55.06c8.24-8.28,15.7-17.21,23.52-25.84c5.43-6,8.67-13.31,11.87-20.63
	c6.42-14.68,14.01-28.67,24.06-41.27c9.74-12.21,21.63-21.46,35.97-27.7c3.21-1.4,7.2-2.11,8.48-6.59
	c7.55,0.79,15.02,0.44,22.97-1.48c-4.71-4.55-10.81-4.05-16.88-6.59c11.05-5.07,21.7-8.07,34.24-9.21
	c-10.9-9.96-22.37-17.16-33.2-25.17c-10.69-7.91-21.61-15.52-32.47-23.29c0.55-2.16,2.12-2.03,3.83-1.61
	c10.53,2.57,21.18,2.1,31.71,0.5c10.88-1.66,21.77-2.45,32.48-1.76c1.8-2.7-0.23-4.1-1.19-5.61c-10.62-16.61-23.06-31.7-37.41-45.26
	c-3.76-3.55-8.58-5.71-11.91-8.79c-0.05-1.73,0.37-2.13,1.22-2.16c3.32-0.11,6.65-0.46,9.96-0.31c4.07,0.19,4.4-4.39,7.9-5.47
	c7.17-2.21,13.97-5.62,21.38-8.72c-8.76-8.72-16.92-17.39-25.69-25.39c-8.69-7.92-17.24-16.15-28.18-21.59
	c12.53,0.71,24.61,0.31,36.37,1.29c1.04-3.54-0.28-5.53-1.2-7.67c-9.89-23.05-16.41-46.9-18.78-72c-1.07-11.37-1.32-22.5,0.48-33.72
	c0.37-2.29,0.91-4.57,1.55-6.8c2.51-8.73,6.71-16.02,16.93-18.46c-3.2-8.1-11-12.45-15.14-20.91c7.72,0.96,12.9,5.15,18.64,7.76
	c5.63,2.56,11,5.72,16.93,8.85c-1.53-6.88-24.54-52.13-32.33-64.04c1.13-1.14,2.57-1.11,3.57-0.19c8.63,7.94,19.61,9.37,30.46,11.03
	c6.89,1.06,13.88,1.47,20.78,2.5c7.83,1.17,15.71,2.24,23.23,5.76c8.18-11.66,16.29-22.59,23.71-33.96
	c9.39-14.39,14.94-30.35,17.56-47.33c0.19-1.25,0.63-2.46,1.22-4.7c5.25,7.39,4.23,15.22,5.12,22.52c0.92,7.54,1.2,15.16,1.86,23.94
	c12.73-11.89,27.12-19.59,40.36-28.93c20.13-14.2,30.91-34.23,35.34-58.06c0.39-2.09-0.11-4.46,2-6.63
	c4.18,5.41,1.99,11.76,3.23,17.37c1.2,5.46,1.2,11.22,1.34,16.86c0.15,5.98,2.15,11.73,2.66,18.27c6.3-8.98,12.67-17.92,18.89-26.96
	c6.3-9.16,12.44-18.43,16.86-29.06c1.39,31.85,6.31,62.74,18.27,92.15c3.45,8.49,7.06,17.02,12.96,25.86
	c6.32-13.16,12.45-25.21,19.91-36.51c7.23-10.97,13.94-22.28,21.58-32.94c0.72,0.36,1.43,0.72,2.15,1.09
	c-1.04,4.05-1.91,8.14-3.14,12.13c-3.65,11.82-5.53,24.09-5.73,36.26c-0.17,10.82,1.32,21.84,4.59,32.42
	c3.04,9.84,5.88,19.74,8.81,29.61c4.75,16.01,7.57,32.31,7.61,49.05c0,1.19-0.38,2.61,1.8,3.7c8.39-17.15,15.27-35.04,25.88-51.76
	c0.08,2.02,0.54,4.1,0.19,6.04c-2.56,14.08-2.8,28.37-4,42.57c-1.06,12.61-4.07,24.86-8.54,36.72c-0.92,2.44-1.82,4.88-3.48,9.33
	c16.33-12.16,27.72-26.77,41.46-38.79c2.7,1.85,0.84,3.69,0.11,5.19c-3.61,7.5-7.37,14.92-11.14,22.34
	c-6.38,12.59-9.92,26.02-11.86,39.93c-1.23,8.87-2.42,17.75-3.85,26.6c-3.72,23.12-8.81,33.3-24.6,49.69
	c19.42,0.99,35.29,0.48,53.03-11.88c0.79,0.34,1.15,0.95,0.71,1.5c-10.55,13.26-20.8,26.75-32.88,38.75
	c-8.61,8.57-18.24,15.37-31.55,20.52c21.46,4.72,40.08,12.56,60.37,13.64c2.66,0.14,5.19-1.52,8.48,0.05
	c-0.88,3.16-3.85,3.88-6.18,5.05c-15.34,7.68-28.8,17.91-40.68,30.21c-3.88,4.01-7.36,8.42-11.56,13.27
	c6.73,3.17,13.15,1.16,19.13,2.44c5.79,1.24,11.8,1.42,17.54,2.05c0.9,2.6-0.82,3.19-2.21,3.96c-13.76,7.56-26.13,17.15-38.76,26.38
	c-1.58,1.15-3.11,2.36-6.33,4.8c8.43,0.24,14.56-0.16,20.49,0.73c6.09,0.91,11.78-1.61,18.54-1.33c-2.98,5.46-8.99,6.35-12.05,10.49
	c0.24,3.68,3.62,4.75,5.75,6.44c21.92,17.34,32.71,40.57,36.42,67.63c2.13,15.52,3.17,31.09,1.81,46.76
	c-0.23,2.62-0.02,5.35,0.41,7.96c3.77,23.27,7.53,46.55,11.52,69.78c3.54,20.63,7.42,41.19,11.04,61.8
	c4.64,26.48,10.24,52.9,11.01,79.82c0.55,19.27,5.34,37.44,10.65,55.57c10.66,36.38,18.78,73.35,26.82,110.35
	c1.33,6.13,1.92,12.46,2.35,18.74c1.28,18.62,5.26,36.77,9,54.97c1.47,7.16,3.76,14.2,4.55,21.42c0.68,6.2,2.85,11.72,5.7,16.88
	c8.22,14.91,14.4,30.73,21.05,46.31c4.57,10.71,10.51,20.68,15.41,31.2c6.32,13.56,12.72,27.04,17.18,41.39
	c1.85,5.94,2.17,11.8,1.04,17.71c-3.34,17.47-1.62,34.95-0.9,52.49c0.49,11.82-1.27,23.48-6.87,33.8c-4.74,0.16-3.35-4.43-6.23-5.48
	c-0.6-0.19-0.98,0.12-1.03,1.03c-0.26,4.98-0.53,9.96-0.85,14.94c-0.44,6.78-2.1,10.89-6.8,16.57c-3.7-3.28-6.11-8.6-12.24-8.75
	c-2.9,0.95-1.95,4.48-3.62,6.46c-1.94,2.3-4.97,3.02-6.98,0.85c-6.21-6.69-15.49-10.71-18.09-20.59c-0.23-0.86-0.95-1.75-1.68-2.29
	c-13.65-10.16-20.03-23.77-20.68-40.62c-0.44-11.26-0.43-22.45,0.86-33.62c0.86-7.48-1.42-14.51-2.39-21.72
	c-0.36-2.64-1.81-4.98-5.28-6.55c-9.19,7.22-11.94,18.33-16.22,28.36c8.41,22.01,16.93,43.67,24.97,65.5
	c10.86,29.5,25.66,56.99,41.7,83.88c16.79,28.16,38.03,52.81,60.35,76.64c20.53,21.92,42.92,41.71,67.34,59.13
	c23.4,16.69,48.05,31.15,75.81,39.51c51.59,15.54,97.37,5.9,136.19-32.23c35.42-34.79,55.52-77.48,63.42-126.13
	c4.69-28.85,2.38-56.98-9.98-83.9c-4.46-9.72-10.36-18.56-15.9-27.65c-7.36-12.07-18.57-16.61-31.8-17.28
	c-8.62-0.43-17.33-0.62-25.77,1.93c-1.27,0.38-2.57,0.71-4.43-0.51c4.32-9.21,13.69-12.85,21.03-18.26
	c-0.77-3.11-2.89-3.08-4.8-3.19c-21.28-1.2-42.57-1.6-63.86-0.16c-1.95,0.13-3.94-0.19-5.96-0.31c2.17-8.1,15.55-18.67,33.7-26.64
	c-14.48-5.76-27.42-13.57-40.34-21.41c-12.67-7.68-25.24-15.52-38.58-22.29c23.42,0.5,46.48,1.36,70.35,9.2
	c-3.83-6.26-6.96-11.04-9.75-16.01c-11.33-20.16-18.69-41.86-23.93-64.26c-8.6-36.79-11.7-74.14-10.53-111.87
	c0.02-0.64,0.29-1.28,0.47-2c3.3-0.41,2.17,2.71,2.79,4c3.11,6.47,7.37,11.65,13.39,15.73c8.62,5.84,17.75,10.42,27.59,13.75
	c10.4,3.51,21.04,5.98,32.81,8.54c-3.8-10.98-14.05-17.67-15.01-30.62c13.04,14.15,27.65,23.76,42.96,32.29
	c12.78,7.12,25.92,13.61,38.79,20.56c15.29,8.27,28.93,18.68,41.73,30.54c24.12,22.34,41.17,49.64,56.61,78.08
	c14.61,26.9,27.48,54.63,36.76,83.93c8.66,27.33,15.25,54.95,17.87,83.63c3.99,43.75-1.33,86.27-15.01,127.76
	c-16.87,51.18-43.5,96.83-79.2,137.27c-27.63,31.29-59.63,56.91-96.71,76.07c-29.89,15.45-61.58,25.53-95.19,27.85
	c-35.94,2.48-71.05-2.7-104.9-15.39c-45.13-16.93-84.95-42.43-120.73-74.55c-41.97-37.68-76.15-81.62-105.26-129.74
	c-15.35-25.37-29.16-51.55-42.43-78.03c-3.13-6.25-6.01-12.62-9.02-18.93c-0.56-1.18-1.08-2.45-3.67-2.54
	c0,3.12,0.04,6.28-0.01,9.44c-0.23,13.99,0.09,28.01-0.87,41.95c-1.32,19.18-3.66,38.3-5.49,57.45
	c-1.38,14.53-2.73,29.07-3.91,43.62c-0.35,4.29-0.05,8.62-0.05,13.6c7.93,6.4,15.81,13.46,22.41,21.85
	c17.63,22.43,30.54,47.48,41.44,73.7c7.17,17.26,11.35,35.41,16.18,53.35c7.35,27.29,14.71,54.56,23.52,81.43
	c3.45,10.53,8.88,18.99,18.28,25.24c11.08,7.36,21.55,15.56,30.76,25.32c12.75,13.52,20.3,29.48,23.18,47.67
	c2.45,15.49,2.46,31.01,0.76,46.66c-1.66,15.33,1.06,30.51,4.3,45.47c2.39,11.03,5.33,21.96,8.28,32.86
	c3.31,12.21,6.32,24.47,8.67,36.89c1.55,8.17,4.16,16,6.75,23.91c2.25,6.88,5.26,13.53,7.03,20.54c1.31,5.19,1.52,10.67-0.4,15.78
	c-1.31,3.48-1.1,6.07,1.13,9.19c11.85,16.54,9.07,33.08-0.58,49.44c-2.5,4.24-6.08,7.68-7.61,12.69c-1.34,4.39-3.27,4.53-11.34,3.11
	c-3.09,4.94-7.52,8.9-12.5,12.18c-2.28,1.5-4.05,3.21-5.65,5.43c-2.97,4.12-5.72,5.01-10.27,2.62c-6.99-3.66-15.32-4.94-20.7-12.13
	c-5.17,6.21-10.96,10.11-18.7,10.86c-2.87,0.28-5.6,1.92-8.66,3.04c-9.58-5.07-20.23-8.24-29-14.93c-6.98,3.83-7.06,3.92-12.07-0.68
	c-2.46-2.26-4.91-4.46-7.82-6.14c-12.39-7.17-18.68-18.47-21.56-32.05c-3.65-17.17-0.42-33.73,4.9-49.98
	c1.87-5.72,3.28-10.95,2.02-17.27c-1.27-6.38-1.1-13.21,0.77-19.79c1.92-6.75,2.05-13.72,2.22-20.74
	c0.47-19.65-0.79-39.26-2.38-58.77c-2.22-27.12-6.82-54-12.17-80.7c-2.09-10.41-4.6-20.75-6.57-31.18
	c-0.79-4.17-2.59-7.56-5.59-10.28c-23.74-21.52-44.41-45.83-64.05-71.03c-30.08-38.59-59.3-77.81-86.49-118.52
	c-3.12-4.67-6.85-8.95-10.49-13.24c-13.1-15.4-20.37-33.38-23.63-53.11c-4.81-29.17-11.35-57.98-17.2-86.94
	c-4.02-19.88-5.89-40.03-7.62-60.24c-3.1-36.25-1.71-72.53-1.63-108.79c0.03-12.89-0.8-25.94,1.66-38.79
	c0.36-1.89-0.17-3.96-0.36-7.05c-5.61,19.98-8.48,39.47-13.06,58.56c-12.65,52.73-26.34,105.14-47.7,155.19
	c-3.52,8.26-7.1,16.5-10.87,24.65c-7.71,16.68-13.89,33.93-14.87,52.33c-0.58,10.85,1.09,21.84,2.05,32.74
	c0.99,11.23,2.51,22.41,3.52,33.64c0.81,8.93,1.24,17.89,1.77,26.84c0.7,11.65-0.16,23.22-1.26,34.83
	c-1,10.58-1.96,21.15-3.75,31.61c-3.33,19.44-10.18,37.87-16.65,56.39c-6.02,17.24-13.31,34.07-17.11,52.04
	c-0.76,3.58-1.55,7.14-2.24,10.73c-1.42,7.35-1.05,14.54,2.19,21.43c4.67,9.93,9.36,19.85,13.98,29.81
	c5.49,11.82,9.3,24.2,12.17,36.88c1.93,8.56-0.44,17.24,0.48,25.82c1.32,12.34-3.37,23.6-6.24,35.12
	c-4.82,19.37-8.16,38.87-10.31,58.75c-1.57,14.44,0.24,28.52,0.67,42.73c0.56,18.33,0.19,36.65,0.34,54.97
	c0.1,13.24-7.09,23.15-15.45,32.39c-1.52,1.68-3.57,3.47-5.67,3.96c-11.2,2.64-21.69,8.81-33.78,7.1c-2.73-0.39-5.12,0.02-7.67,1.23
	c-10.26,4.85-20.64,4.12-30.84-0.2c-5.3-2.24-10.42-2.75-16.33-2.42c-15.11,0.84-29.93-1.14-42.29-11.38
	C592.21,2258.01,587.8,2256.18,583.36,2261.12z M537.31,820.62c3.61,3.35,5.9,5.77,8.47,7.83c17.04,13.6,31.19,29.89,43.67,47.61
	c12.82,18.2,25.03,36.84,37.74,55.12c9.89,14.22,20.83,27.59,33.34,39.64c5.97,5.75,12.48,9.98,21.09,9.48
	c4.37-0.25,8.06,1.95,12.21,3.41c5.08-15.71,9.98-30.83,14.84-45.97c0.5-1.57,1.02-3.19,1.14-4.81c1.18-16.94,1.45-33.88-0.99-50.73
	c-1.95-13.53-6.96-26.27-10.81-39.3c-1-3.39-1.43-7.22-3.2-8.95c-44.55-12.54-67.32-41.62-72.12-86.8
	C594.91,772.9,567.77,797.73,537.31,820.62z M1089.11,1229c1.98-3.28,1.38-5.97,1.32-8.52c-0.14-6.08,0.57-12.06,2.98-17.58
	c5.48-12.51,4.79-25.42,1.96-38.1c-4.19-18.8-9.03-37.48-16.67-55.29c-11.92-27.8-23.81-55.62-35.7-83.44
	c-9.4-22-18.72-44.03-25.35-67.09c-5.25-18.26-8.17-36.95-11.25-55.63c-0.75-4.56-2.21-9.06-2.47-13.64
	c-0.41-7.02-1.73-13.8-3.47-20.58c-2.4-9.32-4.39-18.74-6.67-28.09c-2.59-10.6-4.21-21.47-8.38-31.8c-1.93,1.62-2.26,3.71-2.65,5.55
	c-3.9,18.55-9.53,36.65-14.18,54.99c-3.08,12.14-5.78,24.31-5,37.21c0.93,15.34,4.31,29.59,13,42.3
	c12.95,18.94,26.06,37.77,39.16,56.61c12.38,17.81,22.94,36.63,31.47,56.57c10.77,25.18,18.15,51.42,22.3,78.43
	c1.9,12.35,4.17,24.96,1.11,37.6c-0.65,2.66,0.34,5.18,1.37,7.71c3.9,9.54,7.61,19.15,11.42,28.73
	C1085.22,1219.46,1087.06,1223.94,1089.11,1229z"/>
</svg>
