<?xml version="1.0" encoding="utf-8"?>
<!-- Generator: Adobe Illustrator 24.0.2, SVG Export Plug-In . SVG Version: 6.00 Build 0)  -->
<svg version="1.1" id="Layer_1" xmlns="http://www.w3.org/2000/svg" xmlns:xlink="http://www.w3.org/1999/xlink" x="0px" y="0px"
	 width="1661.84" height="2276.56" viewBox="0 0 1661.84 2276.56" style="enable-background:new 0 0 1661.84 2276.56;" xml:space="preserve">
<path d="M1219.06,723.18c-0.64-11.48-1.26-22.74,1.16-33.89c0.98-4.53,0.93-8.98,0.62-13.67c-0.68-10.29-0.56-20.67-0.08-30.97
	c0.28-5.93,2.14-11.7,4.81-17.15c3.26-6.67,4.04-13.13-1.18-19.53c-2.26-2.78-3.45-6.43-5.09-9.71c-3.27-6.54-6.6-12.87-11.84-18.31
	c-8.96-9.29-11.33-20.87-8.7-33.37c0.78-3.69,0.52-6.99-0.18-10.68c-0.98-5.16-0.53-10.6-0.65-15.92c-0.11-4.91,1.48-9.91-1.1-14.7
	c-0.6-1.12-0.14-2.66,0.88-3.67c1.38-1.36,3.15-1.26,4.61-0.44c3.45,1.92,6.75,4.09,9.89,6.01c5.46-2.64,2.95-7.82,4.29-11.78
	c4.56-2.12,7.9-0.14,10.58,3c3.45,4.03,7.06,8.04,8.67,13.3c1.75,5.71,5.46,9.6,10.58,12.63c8.3,4.92,16.38,10.24,25.18,14.22
	c7.74,3.5,12.48,8.89,15.29,17.18c2.84,8.4,6.11,16.92,11.68,24.13c6.3,8.14,7.64,18.23,10.96,27.54
	c-2.23,12.05,0.64,24.53-3.85,36.51c-5.13,13.71-9.4,27.75-13.65,41.77c-2.31,7.61-3.76,15.48-5.68,23.21
	c-2.5,10.08-6.42,19.47-12.59,27.98c-17.18,23.69-32.69,48.57-51.23,71.31c-24.16,29.62-47.71,59.75-72.05,89.23
	c-12.9,15.63-26.11,31.1-41.72,44.24c-6.47,5.45-13.75,9.33-22.13,10.91c-13.03,2.45-22.93-2.89-28.1-15.12
	c-0.52-1.23-1.09-2.48-1.3-3.78c-2.27-13.84-8.72-26.51-11.21-40.29c-0.31-1.7-1.11-3.04-2.94-4.25c-1.5,12.06-3.06,23.77-4.38,35.5
	c-1,8.91-1.67,17.85-2.53,26.77c-0.59,6.08-0.04,12,2.6,17.57c7.63,16.03,9.41,33.15,9.16,50.55c-0.18,12.29,0.85,24.57-0.86,36.89
	c-0.7,5.03,1.43,10.45,2.26,15.7c1.92,12.14,4.31,24.19,4.93,36.53c0.2,4.02,0.26,7.99-0.29,11.92
	c-1.71,12.25-1.64,24.41-0.21,36.73c1.11,9.55,0.89,19.28,0.86,28.92c-0.08,22.99,0.39,46.01-0.86,68.94
	c-1.13,20.85-2.63,41.71-4.87,62.52c-3.73,34.71-9.29,69.07-16.91,103.1c-10.31,46.06-22.45,91.64-37.48,136.41
	c-4.66,13.87-10.15,27.41-15.9,40.89c-4.4,10.32-6.77,21.5-10.13,32.28c-3.97,12.73-8.61,25.21-15.41,36.75
	c-8.17,13.87-19.06,24.65-34.68,29.94c-0.9,0.31-1.71,0.89-2.92,1.54c0.92,14.84,1.91,29.68,2.73,44.53
	c0.96,17.25,1.63,34.54,2.78,51.75c1.17,17.56,0.88,35.18,2.79,52.73c1.76,16.16,1.98,32.48,2.82,48.74
	c0.43,8.35,2.1,16.36,4.9,24.28c13.41,37.99,23.55,76.86,30.35,116.56c3.08,17.99,4.99,36.19,8.31,54.14
	c2.9,15.67,7.03,31.12,10.59,46.67c0.77,3.37,2.79,5.86,4.95,8.49c8.66,10.51,18,20.54,24.47,32.66
	c11.01,20.65,11.71,41.97,3.23,63.55c-3.88,9.87-10.08,17.45-21.88,16.48c-11.73,16.49-28,23.98-50.06,10.38
	c-13.93,8.57-27.8,4.43-41.44-1.82c-3.63-1.67-6.79-3.67-11.23-3.05c-2.76,0.39-5.86-0.93-8.68-1.86
	c-8.3-2.71-15.87-6.97-22.75-12.25c-7.56-5.81-12.9-13.22-15.11-22.81c-2.01-8.71-3.68-17.5-7.07-25.91
	c-2.08-5.16-2.38-10.9-2.61-16.63c-0.54-13.68,1.1-27.24,1.65-40.84c0.88-21.66,0.15-43.19-1.61-64.77
	c-1.69-20.68-6.59-40.66-12.28-60.46c-5.93-20.66-5.85-41.24-1.08-62.07c1.79-7.83,3.71-15.53,7.89-22.42
	c2.43-4.01,1.17-7.7-0.11-11.48c-2.78-8.23-6.86-15.89-10.9-23.53c-14.61-27.67-28.79-55.53-39.84-84.87
	c-0.46-1.23-0.83-2.57-3.15-3.37c-6.02,5.95-12.34,12.18-18.65,18.44c-1.2,1.18-2.05,2.52-2.36,4.27
	c-3.21,18.38-9.53,35.93-14.52,53.83c-6.8,24.35-12.5,48.9-16.37,73.86c-0.86,5.53-0.94,11.36-0.31,16.92
	c2.27,19.91,2.41,39.84,1.05,59.77c-0.85,12.43-5.07,23.91-10.79,35c-4.49,8.68-12.42,12.84-20.4,16.77
	c-3.4,1.67-6.44,3.26-8.57,6.31c-2.95,4.24-7.24,6.92-11.5,9.4c-11.42,6.67-22.65,7.69-32.66-2.73c-2.3,0.57-4.21,1.02-6.11,1.52
	c-13.87,3.63-18.95-0.69-26.38-10.42c-1-1.32-1.9-2.77-2.55-4.28c-1.82-4.19-4.41-7.01-9.32-7.86c-3.17-0.55-5.64-2.84-7.94-5.51
	c-16.25-18.82-22.02-40.56-18.77-64.93c0.18-1.33,0.29-2.48,0.04-3.8c-2.24-11.44,1.29-21.61,6.86-31.41
	c10.18-17.94,19.88-36.16,30.36-53.92c9.6-16.26,15.11-33.98,20.62-51.81c5.41-17.53,7.76-35.67,11.21-53.59
	c1.51-7.85,3.58-15.52,6.36-23.01c6.22-16.82,17.73-28.83,33.98-35.94c5.45-2.39,8.57-5.58,10.23-11.06
	c1.83-6.04,4.41-11.86,6.27-17.9c7.93-25.79,18.38-50.6,28.99-75.35c9.38-21.88,21.59-41.98,37.9-59.46
	c0.43-0.46,0.57-1.18,0.96-2.05c-0.11-0.73-0.05-1.8-0.45-2.64c-20.25-42.29-38.18-85.59-56.77-128.61c-0.22-0.51-1-0.77-2.34-1.75
	c-3.03,7.03-5.92,13.91-8.94,20.73c-24.66,55.72-50.88,110.66-83.72,162.15c-25.33,39.73-54.56,76.39-89.09,108.53
	c-36.88,34.31-78.18,61.97-125.58,79.77c-28.58,10.73-58.1,16.38-88.82,16.49c-42.34,0.16-81.29-11.4-118.33-31.14
	c-48.31-25.75-86.75-62.34-118.2-106.64c-31.22-43.97-52.83-92.27-63.43-145.24c-3.19-15.96-5.35-32.13-4.96-48.52
	c0.28-11.65-0.11-23.33,0.54-34.96c1.3-23.33,6.21-46.08,12.5-68.52c8.38-29.88,19.97-58.57,34.02-86.19
	c12.23-24.02,25.33-47.66,42.21-68.82c17.56-22.02,37.81-41.18,62.93-54.58c9.69-5.17,19.5-10.09,29.17-15.3
	c19.3-10.41,38.35-21.21,54.56-38.93c-1.67,12.86-10.69,19.87-15.07,29.32c1.57,2.27,3.53,0.92,5.19,0.55
	c9.75-2.11,19.43-4.54,28.86-7.84c8.83-3.09,17.08-7.26,24.9-12.47c7.18-4.78,12.82-10.53,15.01-19.11c0.29-1.13,0.93-1.64,2.13-1.7
	c1.84,1.44,0.94,3.53,0.99,5.31c0.78,32.01-1.9,63.78-7.95,95.18c-5.24,27.2-13.23,53.59-26.91,77.93
	c-2.76,4.91-5.83,9.65-9.42,15.56c12.19-3.12,23.35-6.04,34.88-6.94c11.55-0.9,23.09-2.06,34.65-3.11c0,0.8,0.05,1.09-0.01,1.36
	c-0.07,0.31-0.15,0.77-0.37,0.88c-23.32,11.4-44.37,26.81-67.71,38.16c-3.17,1.54-6.38,3-9.73,4.58
	c17.63,8.58,28.68,17.12,33.82,26.63c-24.78-0.09-49.11-1.61-75.29,1.17c9.9,7.16,19.94,10.67,27.92,17.72
	c-1.87,3.31-4.7,2.68-7.12,2.65c-12.34-0.13-24.6,0.39-36.77,2.67c-4.27,0.8-8.42,1.84-12.44,3.48c-5.39,2.2-9.52,5.67-12.87,10.55
	c-11.57,16.92-20.79,34.91-24.75,55.13c-2.87,14.66-3.83,29.42-2.35,44.51c1.48,15.01,4.17,29.66,8.76,43.89
	c12.35,38.35,31.67,72.56,62.11,99.59c19.31,17.16,41.65,28.8,67.54,32.09c19.95,2.53,39.73,1.17,59.24-4.61
	c31.77-9.42,59.56-26.16,86.02-45.46c18.59-13.56,35.86-28.77,52-45.08c20.82-21.03,40.33-43.36,57.29-67.66
	c12-17.19,21.94-35.69,31.9-54.16c13.8-25.59,23.21-52.98,33.66-79.94c16.1-41.54,31.82-83.22,48.23-124.63
	c3.04-7.67,3.33-14.83,0.96-22.12c-6.93-21.29-7.61-43.26-6.39-65.16c1.86-33.23,7.34-65.98,17.38-97.83
	c7.85-24.9,17.98-48.76,34.2-69.49c8.59-10.97,17.97-21.32,26.99-31.95c9.25-10.9,18.37-21.91,27.81-32.64
	c2.39-2.72,3.37-5.39,3.43-8.92c0.13-7.89-1.77-15.13-5.96-21.79c-1.22-1.94-2.48-3.86-3.63-5.67c1.39-3.1,4.48-0.86,6.65-2.91
	c-5.6-11.57-16.7-16.69-28.28-22.65c8.91-5.01,17.12-8.86,26.69-10.97c-6.66-14.65-17.69-25.97-26.71-41.04
	c11.77,3.66,20.98,8.26,29.71,13.63c1.5-1.94,1.07-3.56,0.48-5.12c-9.18-24.15-18.38-48.29-28.22-74.13
	c-2.24,12.53-3.86,23.42-6.57,34.1c-2.38,9.36-5.1,18.6-8.04,27.79c-5.89,18.37-11.66,36.78-17.35,55.21
	c-1.87,6.04-3,12.23-2.86,18.64c0.19,8.71-1.34,17.26-3.71,25.59c-4.45,15.65-9.33,31.19-13.92,46.81
	c-7.51,25.58-21.14,47.75-36.49,69.34c-26.22,36.86-51.84,74.19-72.49,114.61c-6.21,12.15-10.43,25.2-17.11,37.15
	c-6.51,11.65-13.16,23.19-22.96,32.48c-10.61,10.06-22.84,12.8-36.67,7.72c-3.12-1.15-6.16-2.56-9.33-3.54
	c-4.16-1.28-8.37-1.8-12.8-0.87c-7.44,1.58-14.96,2.8-22.61,4.19c-0.09,3.15-0.99,5.45-4.43,6.62c-3.81,1.29-7.64,3.03-11.59,2.41
	c-11.91-1.89-23.85-0.77-35.77-0.99c-8.45-0.16-16.45-2.27-23.96-6.13c-2.99-1.54-5.73-3.39-6.76-6.94
	c-3.26-11.23-9.48-31.83-6.61-47.42c4.9-3.49,10.59-5.81,16.77-7.42c9.97-2.6,19.68-5.95,29.05-10.39
	c8.61-4.08,18.2-4.22,27.38-3.41c10.08,0.89,19.92-0.22,29.78-1.29c9.88-1.07,19.79-2.34,29.32-5.51c2.61-0.87,4.81-1.89,6.18-4.55
	c12.22-23.63,24.95-47.06,33.18-72.48c5.42-16.75,10-33.79,14.7-50.77c11.08-40.07,23.02-79.86,37.6-118.82
	c3.61-9.64,6.21-19.66,9.46-29.44c0.75-2.26,1.14-4.46,1.2-6.81c0.37-13.68,3.19-27.01,5.91-40.35
	c7.71-37.82,18.22-74.96,27.21-112.48c5.5-22.94,9.76-46.19,16.78-68.77c0.86-2.78,0.74-5.93,0.71-8.91
	c-0.11-14,1.02-27.9,3.68-41.61c3.73-19.19,10.6-37,23.89-51.89c6.95-7.78,15.31-13.77,23.65-19.82c1.31-0.95,3.12-1.33,3.63-3.3
	c-1.35-0.69-2.72-1.4-4.35-2.24c3.77-6.66,10.97-9.36,16.58-14.63c-22.34-5.4-43.63-11.42-64.19-25.29c21.8,0,41.3,0,61.96,0
	c-14.21-11.14-23.74-25.55-35.29-38.16c-11.77-12.85-25.46-23.38-41.04-31.39c-2.48-1.27-5.8-1.72-7.31-5.92
	c23.39,0.96,44.15-8.16,65.87-13c-0.21-0.92-0.2-1.43-0.37-1.5c-21.13-8.74-35.09-25.77-49.13-42.65
	c-4.57-5.49-8.83-11.24-13.27-16.92c2.53-1.65,3.83-0.08,4.82,0.94c4.13,4.25,9.35,6.32,14.86,7.76c11.24,2.94,22.67,3.97,34.22,3.4
	c0.44-2.52-1.2-3.46-2.36-4.46c-9.93-8.67-15.19-19.93-18.66-32.36c-2.51-9.01-4.19-18.2-4.99-27.41
	c-1.99-22.89-8.1-44.37-19.43-64.38c-2.13-3.76-3.88-7.74-5.78-11.63c-0.73-1.49-1.35-3-0.22-4.87
	c13.8,12.05,25.28,26.5,40.96,38.73c-2.09-11.27-6.89-20.38-8.39-30.36c-1.59-10.52-3.38-20.99-3.34-31.67
	c0.04-10.28-3.13-20.34-2.37-32.26c6.7,8.95,9.62,18.26,13.88,26.82c4.23,8.5,7.86,17.3,11.79,26.06c2.86-1.33,2.01-3.23,1.97-4.61
	c-0.5-18.53,3.33-36.35,8.81-53.88c3.47-11.1,7.14-22.14,9.43-33.57c4.01-19.97,2.5-39.61-3.26-59.09
	c-1.15-3.9-3.42-7.89-1.74-13.47c7.07,6.86,10.61,15.2,15.63,22.41c4.94,7.09,9.3,14.59,13.8,21.98c4.67,7.67,8.7,15.68,12.16,24.52
	c2.53-1.34,3.1-3.53,4.11-5.42c14.72-27.36,22.73-56.71,25.44-87.5c0.77-8.79,1.22-17.59,2.62-28.49
	c3.73,14.95,11.55,25.29,18.93,35.89c5.48,7.88,10.83,15.84,17.26,25.28c2.13-18.76,2.11-36.18,5.54-53.46
	c2.68,2.16,2.89,4.75,3.38,7.38c4.48,24.3,16.06,44.1,36.84,58.13c12.66,8.54,26.13,15.96,38.15,27.57
	c2.48-15.69,0.98-30.91,7.21-45.21c1.93,7.59,3.71,15.22,5.82,22.75c2.26,8.04,5.6,15.71,9.87,22.87
	c4.09,6.85,8.62,13.44,13.18,19.99c4.54,6.53,9.36,12.87,14.3,19.62c10.71-11.34,24.92-16.81,37.22-24.97
	c2.1,1.63,1.75,3.12,0.45,4.42c-5.86,5.87-9.26,13.41-15.9,20.53c28.83-1.29,56.02-0.07,80.44-15.1
	c-11.19,19.31-26.49,34.72-45.01,48.85c18.6,1.41,35.66,3.37,52.76-1.15c-11.09,10.35-21.98,20.58-38.76,23.83
	c18.68,14.89,33.36,31.99,52.13,47.46c-9.74,0.47-17.31-1.59-24.89-2.9c-7.5-1.3-14.88-3.28-23.09-5.13
	c0.1,7.74,4.15,14.09,5.15,21.09c0.98,6.91,1.84,13.84,2.95,20.73c1.15,7.13,2.54,14.23,4.27,23.78
	c-9.6-10.01-17.75-17.95-27.45-25.13c-0.67,7.35,3.61,13,2.09,20.01c-4.87-3.18-7.36-8.34-12.5-10.55
	c1.04,17.38,7.4,23.91,23.54,24.57c1.88,0.08,3.75,0.25,7.16,0.49c-6.22,5.34-13.09,3.81-18.99,6.55
	c6.98,10.93,10.73,23.5,18.33,34.05c-1.77,1.76-3.03,0.61-4.39-0.38c-2.32-1.69-4.35-4.02-8.19-3.76
	c2.64,12.55-0.39,25.28,3.17,38.94c-6.07-3.45-7.34-10.1-12.61-12.71c-6.83,11.3-14.84,21.43-24.58,30.13
	c-0.99,0.88-2.25,1.53-2.47,2.95c-0.94,6.1-4,11.83-3.78,18.87c11.84-5.96,23.04-11.6,35.74-17.99
	c-4.76,12.36-11.66,21.87-17.43,31.99c-5.9,10.34-11.54,20.82-17.72,32c8.63-0.93,16.17-4.11,25.8-3.54
	c-7.21,8.03-15.92,12.91-20.1,21.87c0.25,2.45,2.59,2.61,4.3,3.4c5.44,2.51,10.93,4.9,16.4,7.35c3.35,1.5,6.72,2.67,10.49,2.95
	c14.96,1.11,28.52,6.44,40.78,14.84c12.83,8.78,21.4,20.73,24.63,36.17c2.31,11.05,4.87,22.02,5.42,33.41
	c0.32,6.62,2.59,12.79,7.52,17.91c9.67,10.06,19.07,20.38,27.92,31.22c5.03,6.16,11.39,10.8,19.05,14.01
	c7.15,3,11.85,9.25,10.52,17.52c-1.94,12.09-2.63,24.4-6.63,36.16c-5.66,16.65-10.18,25.42-23.93,44.25
	c4.14,17.52,7.37,35.78,16.54,52.91c8.7-3.75,16.13-8.68,23.49-13.68c20.69-14.07,38.95-31.1,57.7-47.54
	C1204.16,735.15,1211.07,728.41,1219.06,723.18z"/>
</svg>
