<?xml version="1.0" encoding="utf-8"?>
<!-- Generator: Adobe Illustrator 24.1.1, SVG Export Plug-In . SVG Version: 6.00 Build 0)  -->
<svg version="1.1" id="Layer_1" xmlns="http://www.w3.org/2000/svg" xmlns:xlink="http://www.w3.org/1999/xlink" x="0px" y="0px"
	 width="135.07" height="111.43" viewBox="0 0 135.07 111.43" style="enable-background:new 0 0 135.07 111.43;" xml:space="preserve">
<style type="text/css">
	.st0{fill:#1A1A1A;}
</style>
<g>
	<path d="M118.15,59.42c-1.13,0.24-1.51-0.59-2.37-0.83c0.49,1.45,1.66,2.13,2.28,3.21c0.55,0.96,1.45,1.71,2.03,2.66
		c1.1,1.83,2.56,3.25,4.42,4.27c0.21,0.11,0.41,0.24,0.88,0.51c-0.44,0.01-3.39,0.08-3.61,0.09c3.48,2.13,7.01,3.87,10.2,6.41
		c-1.25,1.08-2.47,0.37-3.65,0.89c1.54,1.2,3,2.34,4.65,3.64c-1.37,0.53-2.31-0.29-3.32-0.45c-1.03-0.16-1.93-0.7-3.03-1.08
		c-0.02,0.73,0.51,0.84,0.79,1.12c1.41,1.41,2.87,2.78,3.85,4.56c0.43,0.78,1.09,1.36,1.79,1.91c0.69,0.53,1.33,1.13,2.02,1.73
		c-0.95,1.21-1.97-0.02-3.08,0.24c-0.65,1.1-1.76,1.77-3.16,1.96c-2.58,1.98-5.78,2.67-8.62,4.12c-0.99,0.51-2.04,0.9-3.04,1.34
		c-0.05,0.5,0.48,0.64,0.61,1.19c-0.2,0.85-1.08,1.16-1.78,1.61c-0.72,0.46-1.45,0.75-1.7,1.81c-0.21,0.88-1.13,1.53-2.1,1.79
		c-3.3,0.9-6.62,1.75-9.99,2.34c-0.3,0.05-0.62,0.01-0.85,0.01c-0.33-0.45-0.04-0.67,0.11-0.93c-0.11-0.09-0.23-0.27-0.32-0.26
		c-0.63,0.07-1.26,0.16-1.88,0.29c-5.46,1.16-10.9,2.4-16.33,3.64c-3.58,0.81-7.18,1.32-10.8,1.76c-0.47,0.06-0.92,0.26-1.38,0.38
		c-0.81,0.22-1.55,0.1-2.36-0.52c1.53-1.63,3.82-1.61,5.44-2.82c-0.37-0.64-0.94-0.4-1.25-0.25c-1.24,0.62-2.58,0.81-3.91,1.07
		c-0.69,0.14-1.41,0.47-2.08-0.02c-0.33-0.24-0.6-0.05-0.88,0.03c-2.07,0.59-4.18,1.05-6.25,1.63c-2.83,0.8-5.73,1.32-8.61,1.94
		c-1.01,0.22-2.05,0.33-3.05,0.56c-1.11,0.25-2.21,0.38-3.3-0.05c-1.04-0.41-2.08-0.07-3.07,0.12c-1.03,0.2-2.04,0.36-3.08,0.35
		c-2.66-0.02-2.1,0.19-4.32-1.24c1.16-0.77,2.28-1.51,3.37-2.23c0.09-0.62-0.74-0.67-0.63-1.38c0.92-1.25,2.24-2.28,3.46-3.41
		c2.07-1.92,3.36-4.22,3.64-7.06c0.08-0.78,0.27-1.58-0.47-2.13c-1.19,0.28-0.68,1.85-1.94,2.17c-1.22-2.52,0.72-5.04,0.13-7.78
		c-0.85,0.63-1.41,1.23-1.89,1.94c-0.53,0.79-1.14,1.53-1.76,2.26c-0.34,0.4-0.38,0.36-1.49-0.14c0.29-2.09,0.88-4.1,2.22-6.07
		c-1.17,0.11-1.55,0.91-2.19,1.32c-4.1,2.64-7.9,5.69-11.8,8.59c-4.01,2.98-8.51,5.07-13.56,5.61c-1.65,0.18-3.02,0.78-4.34,1.93
		c-2.57-1.74-4.42-4.08-5.44-7.01c-1.08-3.1-1.66-6.24-1.16-9.62c0.36-2.43,0.53-4.9,0.95-7.34c0.55-3.22,2.22-5.99,3.7-8.79
		c2.49-4.73,5.22-9.34,7.84-14c0.18-0.32,0.31-0.67,0.58-1.24c-1.75,0.41-2.84,1.82-4.89,1.97c0.98-0.94,1.7-1.6,2.38-2.3
		c2.51-2.55,4.44-5.44,4.87-9.08c0.15-1.25,1.03-2.38,0.54-3.71c1.61-2.62,1.49-5.95,3.64-8.39c1.73-1.97,2.71-4.51,4.48-6.5
		c1.86-2.09,3.7-4.17,5.98-5.84c2.33-1.71,4.14-3.97,6.05-6.12c3.23-3.63,6.3-7.42,9.9-10.72c1.96-1.79,4.13-3.26,6.47-4.5
		c1.42-0.75,2.9-0.67,4.1-0.48c2.81,2.62,2.87,6.09,3.77,9.38c3.63-1.03,7.12-2.75,11.04-2.58c0.16,1.05-1.02,0.9-1.28,1.54
		c0.12,0.05,0.24,0.17,0.34,0.15c1.34-0.27,2.54-0.74,3.7-1.55c1.95-1.37,4.05-2.54,6.14-3.72c1.1-0.62,2.26-1.2,3.61-1.09
		c0.71,0.06,1.46-0.07,1.85,0.76c0.29,0.61,0.89-0.17,1.33,0.36c-0.01,1.65,0.24,3.34,1.29,4.87c0.37,0.54,0.53,1.31,0.53,2.06
		c-0.02,4.05,0.07,8.11-1,12.17c1.39,1,3.14,0.52,4.53,1.18c0.04,0.7-0.67,0.77-1.2,1.17c2.59,0.34,4.85-0.6,7.15-0.15
		c0.12,0.02,0.21,0.22,0.45,0.47c-1.4,1.4-3.45,1.62-5.05,2.65c0.16,0.66,0.7,0.55,1.14,0.59c2.18,0.19,4.21,0.88,6.09,1.97
		c0.18,0.1,0.32,0.33,0.41,0.53c0.06,0.12-0.01,0.31-0.02,0.5c-1.29,1-3.08,0.49-4.56,1.42c1.71,0.78,3.32,1.53,4.83,2.51
		c-0.72,0.71-1.73,0.38-2.65,0.9c0.87,0.59,1.56,1.11,2.3,1.56c1.31,0.8,2.42,1.82,3.5,2.89c0.17,0.17,0.43,0.34,0.47,0.53
		c0.35,2.23,2.26,3.34,3.56,4.85c1.99,2.3,3.82,4.69,5.37,7.31C115.58,55.33,116.82,57.26,118.15,59.42z"/>
	<path class="st0" d="M6.54,102.26c-1.98-3.23-3.98-6.28-4.44-10.2c-0.5-4.28,0.13-8.42,0.66-12.59c0.28-2.22,1.42-4.24,2.38-6.24
		c1.85-3.87,3.91-7.65,6.42-11.17c0.83,0.76,0.32,1.42-0.2,2.32c2.34-0.9,3.74-2.72,5.56-4c-0.91,2.1-2.61,3.71-3.69,6.18
		c3.11-1.53,4.75-4.1,6.94-6.14c-1.08,3.73-1.46,7.48-0.99,11.71c1.85-2.25,2.88-4.66,4.75-6.64c0.57,1.01,1.39,1.01,2.24,0.55
		c0.99-0.52,1.96-1.08,2.91-1.66c0.42-0.25,0.73-0.56,1.22-0.05c0.32,0.33,0.76,0.01,1.1-0.17c0.99-0.51,1.97-1.04,3.26-1.73
		c-0.2,0.89-0.73,1.22-1.11,1.63c-0.5,0.52-1.03,1-1.52,1.53c-0.42,0.46-1.15,0.6-1.39,1.47c1.69,0.15,3.01-0.71,4.36-1.36
		c1.34-0.64,2.57-1.49,3.82-2.64c0.12,1.89,0.09,3.44-0.86,4.74c0.64,0.77,1.06-0.13,1.54-0.03c0.47,0.3-0.12,0.76,0.24,1.1
		c1.4-1.01,0.52,1.85,1.97,0.81c-0.62,1.32-1.75,1.52-2.55,2.12c-2.11,1.57-4.3,3.04-6.5,4.47c-1.33,0.87-2.76,1.6-4.15,2.38
		c-0.98,0.55-1.85,1.25-2.64,2.04c-0.5,0.5-0.96,1.04-1.77,1.09c-0.6,0.04-0.93,0.59-1.31,0.98c-1.16,1.21-2.39,2.37-3.42,3.69
		c-1.78,2.26-3.78,4.31-5.73,6.42c-0.65,0.7-1.24,1.46-1.81,2.23c-0.55,0.75-0.8,1.74-2.02,1.82c-0.32,0.02-0.66,0.64-0.89,1.04
		C8.14,99.36,7.26,100.68,6.54,102.26z"/>
	<path class="st0" d="M78.18,26.9c-0.52,1.33-1.66,2.12-2.65,3.04c-0.57,0.53-1.31,0.91-1.65,1.85c1.7,0.06,2.46-1.76,3.99-1.88
		c-0.48,1.38-0.48,1.38-2.28,3.22c-3.11-0.86-5.87-2.55-8.91-4.13c0.77-0.99,2.09-0.37,2.54-1.34c-0.2-0.64-0.77-0.73-1.53-0.72
		c0.89-0.86,2-1.01,2.54-1.9c-0.23-0.27-0.46-0.09-0.64,0.01c-1.02,0.62-2.27,0.79-3.19,1.61c0.42,0.6,1.37,0.34,1.82,1.02
		c-1.82,0.7-3.09,0.17-4.27-1.16c-1.06-1.2-2.16-2.34-3.12-3.63c-0.74-0.99-1.18-2.05-1.32-3.22c0.54-0.83,1.29-1.33,2.06-1.72
		c1.43-0.73,2.71-1.84,4.18-2.29c2.17-0.67,3.51-2.3,5.12-3.59c2.67-2.14,5.32-4.32,8.08-6.34c1.74-1.28,3.67-2.23,5.89-2.74
		c0.57,0.71,1.01,1.57,1.99,1.84c-0.08,0.59-0.36,1.21-0.18,1.64c1.04,2.58,0.31,5.39,1.09,8c0.13,0.43,0,0.95-0.06,1.42
		c-0.04,0.31-0.29,0.66-0.21,0.92c0.47,1.62-0.35,3.05-0.52,4.57c-0.17,1.56-0.97,2.83-1.42,4.2c0.2,0.31,0.62,0.36,0.56,0.97
		c-0.54,1.25-1.99,2.25-2.19,3.92c-1,0.79-1.84,1.7-2.51,2.81c-0.33,0.55-1.15,0.39-1.96,0.69c0.13-1.58,0.05-2.93,1.07-4.14
		c0.42-0.5,0.47-1.34,0.58-2.05c0.16-1.03,0.38-2.02,0.81-2.98c-0.76-0.82-1.24,0.45-1.91,0.26c0.19-1.04,0.62-1.96,1.36-2.71
		c0.99-1,1.17-2.35,2.05-4c-1.43,1.15-2.38,1.92-3.33,2.68c1.07-1.83,2.42-3.43,2.81-5.53c-0.56-0.24-0.87,0.64-1.35,0.02
		c0.63-1.58,1.25-3.16,1.91-4.82c-0.86,0-0.91,0.71-1.32,1.02c-0.35,0.27-0.69,0.36-1.09,0.24c0-0.15,0-0.3,0-0.45
		c0.16-0.33,0.32-0.66,0.47-0.99c0.89-0.27,1.14-0.89,1.05-1.87c-0.81,0.24-1.25,0.55-1.08,1.35c-0.16,0-0.37-0.08-0.46,0
		c-1.57,1.25-2.84,2.73-3.58,4.63c0.33-0.09,0.51-0.34,0.75-0.48c0.26-0.16,0.57-0.22,0.86-0.33c-1.09,1.76-2.2,3.5-3.26,5.28
		c-0.45,0.76-0.92,1.54-0.85,2.66c1.1-1.19,1.7-2.58,3.46-3.39c-0.76,1.17-1.33,2.01-1.86,2.87c-0.2,0.32-0.46,0.99-0.39,1.03
		c1,0.63,0.12,1.12-0.15,1.53c-0.51,0.77-1.24,1.38-1.77,2.73c1.13-0.77,1.84-1.32,2.62-1.77c0.85-0.5,1.41-1.48,2.81-1.63
		c-0.95,1.74-2.48,2.82-3.19,4.49C77.31,27.87,77.59,27.06,78.18,26.9z M76.05,13.49c-3.04,2.79-5.97,6.69-6.45,8.71
		c2.41-2.1,3.9-4.73,5.81-7C75.77,14.77,76.17,14.23,76.05,13.49z M83.19,24.26c-1.43,1.7-1.45,1.77-0.97,3.67
		C82.86,26.9,83.02,25.78,83.19,24.26z M76,12.05c0.27-0.41,1.07-0.42,0.9-1.28C76.43,11.13,76.01,11.41,76,12.05z M84.12,23.99
		c0.76-0.43,0.78-0.93,0.55-1.54C84.26,22.82,83.89,23.18,84.12,23.99z"/>
	<path class="st0" d="M9.44,101.05c0.56-1.29,1.25-2.42,2.1-3.41c2.8-3.26,5.6-6.53,8.51-9.69c2.2-2.4,4.55-4.67,7.04-6.78
		c0.82-0.69,1.84-0.91,2.7-1.46c2.21-1.41,4.4-2.88,6.58-4.34c0.6-0.4,1.16-0.84,1.73-1.28c1.18-0.92,2.33-1.82,4.02-1.55
		c1.03,0.16,2-0.44,3.22-0.81c-0.39,1.88,0.48,3.85-1.32,5.22c0.58,0.73,1.07,0.01,1.63,0.05c0.09,0.66-0.81,0.62-0.84,1.17
		c0.4,0.63,1.03-0.19,1.46,0.22c0.22,0.25,0.04,0.48-0.12,0.61c-1.58,1.2-3.13,2.46-4.79,3.53c-4.29,2.78-8.36,5.86-12.41,8.96
		c-3.49,2.67-7.21,4.99-11.02,7.14C15.77,99.88,12.71,100.69,9.44,101.05z"/>
	<path class="st0" d="M56.96,1.58c0.41,0.79,0.95,1.36,1.91,1.59c0,1.1-0.03,2.2,0.01,3.3c0.03,1.03,0.28,2.07-0.36,3.1
		c-2.88,0.04-5.6,0.93-8.21,2.14c-0.82,0.38-1.73,0.53-2.51,0.6c-2.09,0.2-3.72,1.31-5.46,2.22c-0.61,0.32-1.15,0.78-2.16,0.81
		c3.2-2.89,5.57-6.19,8.51-8.96c1.56-1.47,3.15-2.92,4.68-4.43c0.45-0.45,0.99-0.52,1.53-0.55C55.52,1.38,56.15,1.51,56.96,1.58z"/>
	<path class="st0" d="M78.38,33.77c-0.73,0.08-1.16-0.03-1.58-0.52c0.63-0.83,1.26-1.66,2.02-2.66
		C79.24,31.91,78.74,32.79,78.38,33.77z"/>
	<path class="st0" d="M79.05,13.72c0.12-1.19,0.62-2.05,1.92-2.21c0,0.15,0,0.3,0,0.45C80.19,12.39,79.54,12.97,79.05,13.72z"/>
</g>
</svg>
