<?xml version="1.0" encoding="utf-8"?>
<!-- Generator: Adobe Illustrator 24.0.2, SVG Export Plug-In . SVG Version: 6.00 Build 0)  -->
<svg version="1.1" id="Layer_1" xmlns="http://www.w3.org/2000/svg" xmlns:xlink="http://www.w3.org/1999/xlink" x="0px" y="0px"
	 viewBox="0 0 648.09 577.26" style="enable-background:new 0 0 648.09 577.26;" xml:space="preserve">
<style type="text/css">
	.st0{fill:#333333;}
</style>
<path d="M327.91,427.35c0.13,0.04,0.27,0.08,0.4,0.13c-0.09-0.08-0.19-0.16-0.28-0.25C328.03,427.23,327.91,427.35,327.91,427.35z"
	/>
<g>
	<path d="M220.02,575.72c-0.54,0-0.93,0.13-1.27-0.02c-3.76-1.62-7.09-4.21-9.28-9.01c-0.78-1.71-1.99-1.68-3.07-2.24
		c-0.23-0.12-0.62,0.14-0.88,0.36c-0.88,0.73-1.73,1.51-2.75,2.41c0.96,3.54,3.04,6.12,4.5,9.64c-0.56,0.18-0.93,0.47-1.25,0.39
		c-2.25-0.62-4.5-1.31-6.74-2c-2.97-0.91-5.29-3.52-7.65-6.02c-0.37-0.4-0.72-0.9-1.15-1.14c-2.5-1.41-4.45-3.9-6.49-6.55
		c-0.67,0.26-1.42,0.55-2.23,0.87c0.39,3.13,2.01,5.12,3.25,7.83c-0.57-0.18-1.02-0.18-1.36-0.45c-0.97-0.76-1.97-1.53-2.84-2.48
		c-2.52-2.74-5.16-5.31-7.21-8.81c-0.95-1.63-1.7-3.51-2.46-5.34c-0.38-0.92-0.87-2.02-0.81-2.97c0.11-1.65,0.51-3.3,0.96-4.86
		c0.82-2.88,2.28-5.16,3.8-7.32c0.35-0.49,0.98-0.62,1.5-0.84c1.27-0.52,2.27-1.33,2.8-3.27c1.26-4.56,3.74-7.83,6.23-11.01
		c1.72-2.2,3.65-4.05,5.91-5c1.68-0.7,3.37-1.4,5.08-1.8c4.86-1.12,8.78-4.44,12.09-9.56c2.15-3.34,4.5-6.42,6.8-9.57
		c4.41-6.06,7.5-13.15,8.67-21.79c0.45-3.33,1.19-6.62,1.33-9.97c0.34-7.65,0.61-15.3-0.38-22.95c-1.13-8.74-3.91-16.46-6.85-24.11
		c-4.37-11.37-9.7-21.81-15.46-31.84c-2.87-5-5.7-10.05-8.61-15.01c-0.88-1.5-1.4-3.61-3-4.11c-0.09-0.03-0.22-0.36-0.2-0.53
		c0.17-1.6-0.77-2.39-1.3-3.43c-2.52-4.96-5.16-9.79-7.63-14.79c-3.57-7.22-6.62-14.88-9.3-22.82c-0.74-2.21-1.08-4.69-1.75-7.72
		c-0.72-0.57-1.88-1.53-3.06-2.41c-6.61-4.89-12.79-10.68-18.4-17.64c-3.98-4.92-7.58-10.37-10.61-16.53
		c-0.5-1.02-1.03-2.01-1.55-3.02c-5.31-0.97-10.29-3.28-14.95-6.9c-4.6-3.57-8.3-8.69-11.93-14.5c-3.46,11.1-1.64,20.99,2.26,30.82
		c-9.77-9.84-18.14-26.34-17.61-49.88c-2.84,0.18-5.66,0.49-8.48,0.51c-2.87,0.01-5.73-0.36-8.6-0.39
		c-2.89-0.04-5.71-0.61-8.53-1.38c-2.79-0.76-5.59-1.49-8.92-2.37c0.88-0.43,1.22-0.69,1.58-0.76c1.81-0.35,3.62-0.9,5.42-0.9
		c3.06,0.01,6.05-0.48,9.01-1.44c2.72-0.88,5.44-1.73,8.13-2.73c1.07-0.4,2.09-1.12,3.11-1.75c0.34-0.21,0.63-0.58,1.27-1.19
		c-1.64-0.43-2.95-0.64-4.2-1.12c-4.47-1.71-8.86-3.71-12.95-6.9c-2.31-1.81-4.55-3.72-6.64-6.03c-3.6-3.97-6.29-8.95-8.48-14.53
		c-0.22-0.57-0.44-1.15-0.69-1.83c-1.97,2.16-2.66,5.37-3.85,8.23c-1.6-3.88-0.49-13.55,3.31-29.78
		c-3.41-4.77-7.53-8.82-10.05-15.61c0.8,0,1.26-0.11,1.67,0.02c1.09,0.36,2.2,0.67,3.22,1.28c2.04,1.21,4.22,1.12,6.33,1.63
		c0.73,0.17,1.53-0.26,2.62-0.48c-0.99-1.97-1.8-3.6-2.54-5.08c-5.96-1.4-11.47-3.95-16.4-8.58c-1.98-1.86-3.73-4.24-5.56-6.42
		c-0.5-0.6-0.97-1.05-1.69-1.04c-4.87,0.07-9.71-0.35-14.57-0.86c-5.98-0.63-11.78-2.29-17.55-4.43c-0.42-0.16-0.82-0.42-1.15-1.2
		c0.42,0,0.85-0.1,1.25,0.02c1.71,0.5,3.4,1.17,5.13,1.57c1.17,0.27,2.38,0.25,3.58,0.25c4.79,0.03,9.58,0.03,14.38,0
		c1.52-0.01,3.04-0.1,4.55-0.25c0.45-0.04,0.89-0.4,1.46-0.67c-1.19-2.28-2.95-3.84-3.08-6.85c-0.06-1.5,0.03-2.92,0.67-4.41
		c1-0.22,2.08-0.67,3.17-0.68c6.65-0.03,13.15-1.7,19.66-3.39c4.95-1.28,9.85-2.73,14.65-4.84c3.19-1.4,6.31-3.13,9.49-4.61
		c1.97-0.92,3.94-2.01,6.07-1.7c2.32,0.34,4.38-0.53,6.39-2.09c6.95-5.39,14.31-9.47,21.72-13.33c5.9-3.08,11.86-5.97,17.85-8.66
		c3.48-1.56,7.06-2.73,10.64-3.79c4.12-1.22,8.28-2.23,12.44-3.14c1.65-0.36,3.35-0.26,5.02-0.28c4.24-0.03,8.48,0,12.71-0.01
		c1.94,0,3.8,0.7,5.59,1.62c2.8,1.45,5.64,1.12,8.71,0.94c0.32-1.51,0.79-2.97,0.91-4.48c0.4-5.16,0.68-10.34,1.01-15.51
		c0.15-2.36,0.3-4.72,0.49-7.07c0.14-1.69,0.63-2.43,1.79-2.66c1.12-0.23,2.24-0.11,3.26,0.68c0.77,0.59,1.57,1.14,2.26,1.89
		c4.92,5.31,9.38,11.26,12.79,18.66c1,2.17,1.85,4.48,2.78,6.73c0.16,0.38,0.34,0.73,0.53,1.15c2.02,0.01,4,0.35,5.99-0.34
		c0.84-0.29,1.75-0.26,2.62-0.25c4.01,0.03,7.89-1.06,11.82-2.16c3.91-1.11,7.74-2.6,11.61-3.92c0.13-0.05,0.3,0.08,0.61,0.18
		c-0.25,1.86-1.37,2.89-2.09,4.52c0.6,0.31,1.15,0.76,1.73,0.88c3.36,0.69,6.48,2.43,9.52,4.41c6.24,4.06,12.28,8.67,18.05,13.94
		c4.71,4.3,9.03,9.29,12.76,15.31c2,3.22,4.24,6.13,6.4,9.15c2.04,2.85,3.96,5.85,6.27,8.34c4.09,4.42,8.67,7.16,13.64,8.66
		c3.2,0.97,6.45,1.5,9.74,1.13c0.39-0.04,0.79,0.05,1.18,0.13c0.14,0.03,0.27,0.22,0.57,0.48c-0.56,0.91-1.1,1.79-1.77,2.88
		c0.47,0.25,0.86,0.62,1.26,0.64c4.94,0.31,9.82,1.38,14.73,2.14c5.47,0.85,10.94,0.98,16.47,0.37c4.19-0.47,8.09-2.42,12.16-3.35
		c0.54-0.12,1.09-0.23,2.21-0.47c-3.14,3.23-6.4,4.35-9.38,6.55c1.96,0.7,3.72,1.43,5.51,1.95c2.03,0.59,4.09,0.93,6.12,1.49
		c2.66,0.73,5.31,1.52,7.95,2.38c2.66,0.87,5.34,1.24,8.06,1.22c6-0.04,12,0,17.99-0.02c3.12-0.01,6.2,0.48,9.28,1.16
		c2.99,0.66,6.01,1.01,9.01,1.56c2.76,0.51,5.54,0.99,8.28,1.71c5.81,1.51,11.62,2.89,17.56,2.61c3.03-0.14,6.08-0.02,9.11-0.25
		c4.37-0.34,8.75-0.78,13.11-1.37c4.27-0.57,8.56-1.02,12.77-2.38c2.95-0.95,5.93-1.7,8.88-2.68c5.31-1.77,10.3-4.78,15.21-8.08
		c1.01-0.68,2.01-1.4,3-2.13c6.85-5.08,10.94-13.08,12.83-23.67c0.85-4.78-0.09-8.63-1.85-12.45c-1.46-3.19-3.46-5.6-5.53-7.93
		c-5.63-6.34-11.93-10.88-18.76-13.99c-3.19-1.46-6.35-3.07-9.59-4.21c-4.01-1.41-8.07-2.55-12.14-3.5
		c-2.66-0.62-5.38-0.83-8.08-0.99c-2.71-0.16-5.42-0.03-8.14-0.04c-5.78-0.02-11.36,1.83-16.97,3.49
		c-5.37,1.59-10.72,3.23-16.2,4.04c-7.96,1.17-15.93,1.51-23.91,1.26c-5.48-0.17-11-0.65-16.29-2.97c-3.76-1.65-7.29-4.08-9.93-8.45
		c-0.59-0.98-1.23-1.65-2.1-2.07c-6.84-3.3-13.13-8.2-19.25-13.57c-4.64-4.07-8.8-8.99-12.85-14.13c-0.36-0.45-0.71-0.93-1.01-1.46
		c-3.8-6.71-8.53-11.86-13.64-16.37c-2.16-1.91-4.37-3.72-6.58-5.51c-0.72-0.58-1.53-0.96-2.28-1.88c0.49-0.05,0.99-0.22,1.47-0.13
		c4.19,0.78,8.28,2.23,12.37,3.77c7.39,2.78,14.75,5.76,22.22,7.99c5.13,1.54,10.44,2.13,15.72,1.53
		c6.19-0.71,12.35-1.61,18.44-3.58c3.95-1.28,7.99-2.05,12.05-2.55c5.83-0.71,11.66-0.35,17.48-0.35c5.18,0,10.37,0.4,15.55,0.65
		c0.7,0.04,1.4,0.29,2.52,0.53c-0.58-0.77-0.84-1.23-1.17-1.54c-3.82-3.56-7.33-7.63-10.29-12.58c-2.24-3.76-3.61-8.22-4.97-12.68
		c-0.04-0.13,0.11-0.39,0.27-0.87c1.06,0.57,2.16,1.08,3.22,1.75c10.44,6.66,21.31,11.43,32.4,15.35
		c6.19,2.19,12.43,4.01,18.76,5.06c6.25,1.04,12.52,2.06,18.84,1.35c3.89-0.44,7.79-0.74,11.67-1.27c1.97-0.27,3.92-0.91,5.88-1.38
		c5.05-1.22,10.12-1.7,15.23-0.82c1.18,0.21,2.4,0,3.59,0.18c5.3,0.8,10.55,1.94,15.74,3.81c4.73,1.7,9.37,3.67,13.83,6.47
		c3,1.88,5.85,4.1,8.54,6.81c3.53,3.55,6.79,7.51,9.8,11.91c0.86,1.25,1.75,2.45,2.89,4.05c-1.3-6.86-2.32-13.23-4.28-19.19
		c-1.43-4.35-3.18-8.39-5.87-11.4c-1.11-1.25-2.4-2.2-3.63-3.21c-0.65-0.54-1.36-0.92-2-1.66c1.43-0.52,2.83-0.5,4.23-0.31
		c5.65,0.77,10.82,3.7,15.84,7.22c9.43,6.6,17.51,15.66,24.48,26.81c3.04,4.86,5.68,10.08,7.89,15.73c2.65,6.79,4.4,14.04,5,21.77
		c0.14,1.76,0.02,3.56,0.02,6.18c0.65-1.16,0.97-1.61,1.19-2.15c2.32-5.69,4.39-11.55,5.42-18.03c0.87-5.51,0.87-10.99-0.34-16.38
		c-0.37-1.67-1.04-3.22-1.62-4.94c0.92-0.34,1.57,0.44,2.18,1.06c3.77,3.84,7.3,8.07,10.08,13.4c3.61,6.93,5.94,14.71,7.1,23.15
		c0.46,3.32,0.95,6.72,0.88,10.06c-0.09,4.25-0.23,8.54-0.96,12.76c-1.21,7.02-3.29,13.39-6.88,19.62
		c5.25-2.71,9.07-7.37,13.42-10.9c0.56,0.95,0.38,1.75,0.11,2.56c-1.8,5.3-3.58,10.64-5.98,15.47c-2.07,4.16-4.23,8.23-6.49,12.18
		c-3.4,5.93-7.57,10.67-12.03,14.92c-6.85,6.52-14.43,10.56-22.42,13.11c-2.48,0.79-5.03,1.13-7.55,1.68
		c-0.38,0.08-0.75,0.19-1.49,0.37c0.55,0.69,0.82,1.19,1.19,1.47c4.7,3.67,9.18,7.84,13.13,13c3.11,4.06,6.02,8.43,8.96,12.75
		c1.55,2.28,2.99,4.71,4.42,7.13c0.56,0.94,0.97,2.04,1.5,3.16c-0.93,0.67-1.42-0.28-1.96-0.77c-2.4-2.22-4.74-4.6-7.19-6.71
		c-4.72-4.07-9.77-7.18-14.95-9.81c-7.98-4.05-16.23-6.58-24.59-8.44c-3.77-0.84-7.53-1.83-11.31-2.57
		c-3.39-0.66-6.8-1.05-10.21-1.57c-1.35-0.21-2.69-0.48-4.03-0.66c-4.52-0.61-9.06-0.95-13.58-1.5c-8.05-0.97-16.1-1.06-24.16-0.98
		c-1.91,0.02-3.82,0.36-5.71,0.68c-3.55,0.61-7.09,1.23-10.61,2.3c-4.16,1.27-8.14,3.2-12.1,5.3c-1.03,0.54-2.04,1.16-3.18,1.81
		c0.35,1.02,0.58,1.84,0.89,2.59c3.92,9.22,4.63,19.16,3.09,29.47c-0.94,6.29-0.91,12.53-0.54,18.86
		c0.51,8.55,1.66,17.04,1.22,25.68c-0.09,1.71-0.22,3.33-0.71,4.94c-1.04,3.42-1.89,6.97-2.99,10.36c-1.03,3.18-2.28,6.21-3.43,9.3
		c-0.18,0.49-0.37,0.96-0.67,1.73c0.82,0.17,1.49,0.28,2.15,0.47c0.62,0.18,1.23,0.53,1.85,0.66c3.43,0.72,6.65,2.27,9.65,4.75
		c0.69,0.57,1.39,1.13,2.1,1.63c5.29,3.73,8.31,10.09,9.85,17.87c0.55,2.75,0.44,5.8,0.47,8.72c0.05,5.44-0.13,10.88-0.02,16.31
		c0.07,3.62,0.88,7.09,1.62,10.56c1.34,6.29,3,12.38,4.97,18.34c1.05,3.17,1.36,6.68,0.1,10.14c-0.77,2.13-1.95,3.54-3.32,4.75
		c-0.6,0.54-1.26,0.96-1.83,1.38c-0.96,3.25,0.39,6.29,0.21,9.9c-2.26-2.43-3.97-5-5.34-8.38c-1.28,0.43-2.57,0.86-4.06,1.36
		c0.29,1.6,0.56,3.09,0.83,4.57c0.26,1.39,0.52,2.78,0.85,4.54c-3.66-0.87-5.15-4.61-6.68-8.33c-0.7,0-1.4,0-2.13,0
		c-0.09,0.4-0.25,0.75-0.2,1c0.27,1.29,0.6,2.56,0.9,3.84c0.37,1.58,0.72,3.17,1.21,5.29c-2.36-1.75-3.6-4.2-4.82-6.65
		c-0.6-1.2-1.08-2.52-1.71-3.68c-0.22-0.41-0.71-0.52-1.24-0.87c-0.36,3.69,1.57,6.44,1.35,9.9c-1.23-0.24-1.79-1.44-2.34-2.45
		c-2.12-3.85-4-7.87-5.09-12.59c-0.51-2.19-0.76-4.37-0.83-6.63c-0.09-2.92-0.24-5.83-0.29-8.75c-0.03-1.57,0.1-3.15,0.16-4.73
		c0.04-1.13,0.12-2.25,0.14-3.38c0.07-5.32,0.07-10.65,0.18-15.97c0.08-3.95,0.31-7.89,0.46-11.84c0.02-0.45-0.02-0.91,0.01-1.36
		c0.18-2.95-0.69-4.92-2.62-6.13c-1.75-1.09-3.45-2.36-5.11-3.69c-1.36-1.08-2.72-1.09-4.17-0.59c-3.03,1.04-6.11,1.49-9.23,1.63
		c-3.11,0.13-5.97-1-8.76-2.89c-7.12-4.84-12.37-12.51-16.86-21.54c-4.18-8.41-6.41-17.87-8.13-27.67c-0.4-2.29-0.58-4.66-0.83-7.01
		c-0.44-4.12-0.85-8.24-1.29-12.54c-1.46,0.31-2.72,1.2-4.14,2.13c0.23,0.68,0.34,1.34,0.62,1.79c2.35,3.71,3.95,7.97,4.56,12.86
		c0.61,4.9,1.21,9.91,0.68,14.84c-0.57,5.28-1.98,10.17-4.62,14.27c-3.33,5.18-7.53,8.26-11.99,10.87c-2.74,1.6-5.58,2.63-8.47,3.51
		c-2.72,0.83-5.4,1.94-8.12,2.78c-1.78,0.55-3.6,0.84-5.49,1.27c-0.76,1.54-0.66,3.37-0.67,5.15c-0.02,4.51,0.94,8.66,2.29,12.69
		c0.92,2.76,1.74,5.59,2.47,8.46c0.71,2.77,1.16,5.68,1.05,8.64c-0.07,1.83,0.45,2.92,1.4,3.98c2.83,3.19,5.37,6.78,7.15,11.3
		c0.35,0.89,0.8,1.77,0.93,2.73c0.29,2.19,1.08,4,1.94,5.77c1.21,2.48,1.63,5.29,1.98,8.47c-2.6-1.66-4.65-4.63-7.55-4.53
		c-0.09,0.68-0.19,0.95-0.14,1.09c2.34,5.83,3.3,12.12,3.13,18.8c-0.03,1.23,0.14,2.47,0.14,3.71c-0.01,3.58-1.47,6.34-3.9,7.65
		c-2.11,1.14-4.23,2-6.52,1.8c-0.38-0.03-0.77,0.1-1.26,0.18c-0.28,3.2-0.22,6.3,0.11,9.35c-0.9,0.61-1.55,0.14-2.18-0.29
		c-3.1-2.15-6.08-4.51-8.23-8.54c-0.4-0.75-1.1-1.26-1.72-1.69c-0.71-0.49-1.49-0.77-2.24-1.14c-0.13,0.15-0.31,0.26-0.35,0.43
		c-0.87,3.85-2.92,6.03-5.3,7.86c-2.92,2.24-6,3.61-9.3,4.1c-0.62,0.09-1.24,0.24-1.92,0.38c-0.42,2.09-0.57,4.04,0.04,6.03
		c0.35,1.14,0.64,2.32,0.9,3.51c0.13,0.6,0.13,1.26,0.21,2.22c-5.97-1.77-10.43-6.03-13.48-12.98c-1.1-0.43-2.09-0.82-3.13-1.22
		c-1.38,1.1-2.81,2.25-4.39,3.52c1.47,4.12,3.7,7.65,5.73,11.45c-0.74,1.2-1.56,0.89-2.3,0.73c-1.81-0.4-3.62-0.81-5.4-1.38
		c-3.05-0.97-5.98-2.39-8.49-5.17c-1.12-1.24-2.23-2.53-3.35-3.77c-0.24-0.27-0.52-0.52-0.82-0.65c-3-1.32-5.2-4.31-7.5-7.11
		c-0.24-0.29-0.48-0.59-0.79-0.99c-0.88,0.28-1.79,0.56-2.86,0.9c0.75,4,2.55,6.94,4.71,10.18c-0.67-0.18-0.99-0.25-1.31-0.36
		c-0.15-0.06-0.28-0.22-0.42-0.31c-3.82-2.36-11.87-11.56-14.22-16.33c-2.89-5.85-3.3-10.74-0.2-17.59c1.62-3.58,3.75-6.46,6.12-9
		c3.31-3.55,6.69-6.94,10.03-10.44c2.15-2.25,3.99-4.93,5.14-8.37c1.27-3.77,2.52-7.57,3.58-11.47c1.25-4.64,2.29-9.39,3.39-14.11
		c0.17-0.72,0.14-1.53,0.23-2.52c-1.94,0-3.76,0.04-5.58-0.01c-6.75-0.18-12.88-2.86-18.05-9.22c-1.01-1.25-1.92-2.7-2.76-4.19
		c-2.8-4.99-4.88-10.61-6.96-16.22c-0.8-2.17-1.11-4.7-1.65-7.07c-0.22-0.96-0.43-1.92-0.67-2.95c-6.26-1.57-12.49-3.13-18.72-4.69
		c2.49,2.39,5.19,3.98,8.02,4.97c2.74,0.96,5.55,1.52,8.6,2.33c-0.44,0.66-0.68,1.37-1.03,1.48c-1.23,0.41-2.49,0.75-3.75,0.85
		c-1.66,0.14-3.33,0.03-5.33,0.03c0.37,0.76,0.52,1.27,0.78,1.58c2.3,2.69,4.17,5.92,5.88,9.35c1.67,3.36,2.82,7.08,3.47,11.1
		c0.05,0.33,0.21,0.67,0.17,0.98c-0.53,4.76,1.09,9.23,0.87,14.24c-2.97-6.02-6.18-11.44-10.05-16.02
		c-0.22-0.26-0.56-0.32-1.06-0.58c-0.04,3.71-0.34,7.15-1.52,10.26c-1.11,2.93-2.34,5.77-3.76,9.23c-0.23-4.17,0.9-7.77-0.36-11.28
		c-0.22,0.34-0.46,0.54-0.51,0.82c-0.79,4.35-1.88,8.59-1.84,13.21c0.04,4.6-0.1,9.22-0.31,13.81c-0.23,5.19-0.86,10.32-1.81,15.35
		c-0.99,5.23-2.04,10.45-3.21,15.61c-0.58,2.57-1.43,5.04-2.28,7.46c-0.43,1.24-0.49,2.3-0.12,3.53c0.73,2.39,1.36,4.84,2.12,7.2
		c1.8,5.55,3.61,11.09,5.52,16.57c0.7,2.01,1.69,3.83,2.51,5.75c1.16,2.69,1.37,5.75,1.58,8.78c0.07,0.98,0,2.11-0.28,3
		c-1.33,4.26-0.81,8.62-0.55,13.01c0.32,5.26,2.05,9.96,2.74,15.06c0.6,4.43,1.18,8.88,0.9,13.44c-0.16,2.57-0.28,5.13-0.44,8.12
		c-0.66-0.49-1.11-0.65-1.39-1.06c-1.15-1.72-2.25-3.51-3.37-5.27c-0.2-0.31-0.45-0.56-0.77-0.95c-1.97,8.97-4.82,17.16-7.91,25.19
		c-1.07,2.78-1.99,5.67-2.94,8.54c-0.19,0.59-0.36,1.3-0.31,1.92c0.39,4.92-0.51,9.34-2.38,13.45c-0.19,0.42-0.24,1.02-0.25,1.54
		c-0.02,1.91,0.03,3.83,0.01,5.74c-0.04,2.88-1.02,4.97-2.89,6.03c-1.54,0.88-3.16,1.51-4.86,1.5c-0.54,0-1.08,0.11-1.74,0.18
		c0,2.63,0,5.08,0,7.8c-0.49,0-0.91,0.18-1.2-0.03c-2.91-2.1-5.87-4.12-7.63-8.27c-0.87-0.38-1.7-0.75-2.52-1.11
		c-0.14,0.1-0.36,0.15-0.4,0.3c-1.42,4.54-4.32,6.43-7.31,8.09c-1.25,0.69-2.53,1.34-3.94,1.25c-0.69-0.05-1.4,0.37-2.1,0.58
		C217.84,569.72,219.21,572.52,220.02,575.72z M61.82,185.8c3.09,0.1,6.11,1.2,9.14-0.51c-2.06-1.24-3.93-2.37-5.91-3.57
		C64.02,183.02,62.92,184.41,61.82,185.8z"/>
</g>
</svg>
