<?xml version="1.0" encoding="utf-8"?>
<!-- Generator: Adobe Illustrator 24.1.1, SVG Export Plug-In . SVG Version: 6.00 Build 0)  -->
<svg version="1.1" id="Layer_1" xmlns="http://www.w3.org/2000/svg" xmlns:xlink="http://www.w3.org/1999/xlink" x="0px" y="0px"
	 width="106.48" height="182.66" viewBox="0 0 106.48 182.66" style="enable-background:new 0 0 106.48 182.66;" xml:space="preserve">
<style type="text/css">
	.st0{fill:#1A1A1A;}
</style>
<g>
	<path d="M44.95,84.72c0.94-1.76,1.39-3.43,0.88-5.13c-1.02-3.37-0.61-6.92-1.42-10.34c-0.31-1.34-0.14-2.83,0.49-4.34
		c1.89-4.52,2.92-9.4,2.31-14.23c-0.71-5.64,0.96-10.85,1.72-16.24c0.17-1.21,0.72-2.28,0.01-3.58c-0.36-0.66-0.37-2.09,0.08-2.51
		c3.14-2.92,1.73-6.98,2.79-10.4c2.24-7.19,5.28-13.74,12.5-17.32c1.72-0.85,3.28-1.08,4.82,0.71c-1.57,3.34-3.84,6.39-4.72,10.18
		c-0.84,3.64-1.31,7.11,1.25,10.1c2.5,2.92,1.64,6.57,2.53,9.82c0.53,1.94,0.51,4.13,0.8,6.2c0.39,2.83,0.38,5.75-2.2,7.86
		c-0.77,0.63-0.92,1.54-0.42,2.36c0.78,1.3,0.67,2.77,0.39,4.01c-1.21,5.28,0.29,10.83-1.88,16.07c-0.79,1.9,0.94,4.24,0.32,6.95
		c2.89-2.77,3.93-5.73,3.88-9.16c-0.01-0.87,0.09-1.76-0.02-2.62c-0.51-4.24,0.72-7.54,3.97-10.6c2.53-2.39,4.01-5.52,3.83-9.66
		c-0.13-2.82,2.11-5.85,3.62-8.6c2.73-4.98,7.78-7.32,12.41-10.02c1.63-0.95,3.02,0.38,3.87,1.93c-2.34,2.5-5.29,4.39-6.97,7.49
		c-1.08,2-0.83,3.03,1.19,3.96c2.24,1.04,4.03,3.91,3.55,6.25c-0.91,4.44-2.55,8.66-4.58,12.71c-0.66,1.31-1.89,2.24-2.97,2.92
		c0.28,5.2-0.67,10.06-2.67,14.69c-0.23,0.54-0.4,0.84-0.33,1.44c0.51,4.51-0.96,8.72-2.09,13.17c3.47,1.84,4.81,4.8,4.51,8.8
		c-0.16,2.16-0.51,4.42,0.56,6.59c0.59,1.2-0.07,2.42-1.3,3.45c3.82,1.6,5.63,4.75,7.61,8.1c2.61,4.42,4.51,9.24,7.93,13.25
		c2.05,2.4,3.02,5.64,2.28,9.32c1.52-1.04,0.29-2.49,1.24-3.45c1.43,4.83,2.79,9.56,0.7,14.49c1.45,3.21-1.3,4.94-2.64,7.07
		c-2.3,3.64-3.18,7.75-3.46,11.8c-0.33,4.76-3.42,6.72-6.92,8.02c-6.51,2.41-13.33,3.86-20.06,5.6c-4.86,1.25-9.15,1.07-13.62-0.34
		c-3.9-1.23-9.55-7.14-9.02-12.02c1.05-9.72-4.36-15.33-11.53-20.23c-4.59-3.14-9.25-6.09-14.82-6.97
		c-3.13-0.49-3.32-3.81-5.69-4.76c2.43-5.59,0.26-10.03-2.79-14.27c-0.36-0.5-0.84-0.93-1.32-1.33c-4.51-3.69-6.67-8.51-6.66-14.27
		c0-1.66-0.69-2.71-1.67-3.92c-1.38-1.7-2.75-3.22-2.43-6.05c0.26-2.27-1.59-4.71-2.17-7.24c-1.75-7.61,0.44-14.05,5.16-19.89
		c0.76-0.94,1.65-2.1,3.12-1.18c1.41,0.88,0.7,1.97,0.36,3.24c-1.17,4.42,0.11,8.54,1.92,12.8c2.48-1.19,4.02,0.04,5.64,1.47
		c5.14,4.52,6.57,10.46,6.58,17.28c2.32-0.27,3.13,2,5.19,3.04c0.05-6.46-1.73-12.12-3.99-17.66c-0.56-1.36-1.33-2.63-1.99-3.95
		c-2.58-5.16-2.64-5.18-1.42-10.64c1.22-5.45,1-10.68-1.25-15.89c-0.57-1.32-1.18-2.61-0.02-4.83c2.5-4.77,3.98-10.11,5.11-15.57
		c1.48-7.18,2.75-14.6,7.34-20.79c2.49-3.36,5.55-5.1,8.95-4.59c-0.12,3.06-2.4,5.28-3.18,8.13c-0.82,3.01-0.2,5.9-0.56,9.1
		c4.02,1.06,4.8,3.97,4.57,7.67c-0.21,3.49-0.19,7,0.01,10.49c0.12,2.14-0.35,4.38-1.7,5.48c-3.02,2.46-2.58,5.71-1.94,8.39
		c1.38,5.7,1.04,11.69,3.4,17.26C42.68,81.66,43.76,83.08,44.95,84.72z"/>
	<path class="st0" d="M81.03,87.75c2.78,3.31,4.48,6.94,3.83,11.43c-0.17,1.18-0.34,2.5,0.35,3.66c1.15,1.91-0.44,3.18-1.17,4.48
		c0.41,0.75,0.78,1.3,1.42,1.44c5.11,1.12,5.77,5.9,7.84,9.51c2.13,3.69,4.24,7.36,6.82,10.81c1.88,2.52,3.96,5.47,3.36,9.08
		c-0.55,0.95-0.74-1.44-1.43-0.07c-0.99,1.96-1.93,4-3.27,5.72c-2.71,3.5-5.37,4.76-8.34-0.49c-1.18-2.1-2.13-4.31-3.43-6.37
		c-0.51-0.81-0.65-2.84-0.7-4.35c-0.02-0.65-0.14-1.24-1.08-1.73c-0.89,0.07,0.1,2.09-1.36,1.77c-0.11-0.1-0.39-0.22-0.44-0.4
		c-0.42-1.52,0.51-3.04-0.01-4.63c-0.2-0.6,1.7,0.8,1.4-0.87c-0.16-0.93,0.2-1.95-0.6-3.17c-1,1.26-1.87,2.35-3,3.76
		c0.13-2.23-1.71-3.54-1.37-5.74c0.2-1.27-1.84-2.49-2.46-2.08c-1.55,1.01-1.61-1.34-2.66-0.79c-0.54,0.38-0.38,0.84-0.13,1.3
		c0.44,0.82-0.27,0.74-0.65,0.74c-0.31,0-0.9-0.36-0.89-0.37c1.34-3.42-2.53-4.25-3.47-6.59c-0.36-0.91-0.5-2.59-1.75-3.21
		c-1.04,0.41-0.9,1.44-1.31,2.16c-1.58-1.55,0.99-3.56-0.35-5.1c-1.25-0.01-0.61,1-1.24,1.38c-1-0.4,0.34-2.29-1.33-2.33
		c-2.53,3.34,1.98,5.48,1.63,8.91c-2.68-2.65-6.08-3.88-7.57-7.52c-1.01,1.19-0.29,2.39-0.89,3.38c-2.43-0.63-4.14-2.83-7.17-3.36
		c0.53,0.77,0.89,1.29,1.24,1.8c-1.88,1.03-3.53-0.46-5.02-0.95c-2.15-0.7-4.21-0.86-6.35-0.9c-1.02-0.02-1.53-0.74-2.14-1.33
		c-3.3-3.27-4.22-8.1-2.35-12.27c0.69-1.53,0.69-1.53,0.06-4.06c-1.33,0.17-1.59,1.63-2.93,2.42c1.31-3.44,1.11-6.37-1.76-8.55
		c-1.95-1.48,0.16-3.48-0.79-5.05c2.68-1.5,0.33-3.44,0.42-5.16c0.05-1.03-1.97-2.02-0.05-3.12c-2.8-2.03,0.95-6.67-3.29-8.21
		c-0.69-0.25-0.36-1.93-0.28-1.93c1.61-0.08,1.28-1.62,1.88-2.41c0.66-0.86,1.14-1.86,1.7-2.79c-1.74-1.5-0.89-3.54-1.2-5.34
		c-0.3-1.73,0.85-3.01,1.26-4.52c0.32-1.17-0.19-1.89-1.55-2.08c1.21-1.74,2.16-3.55,3.83-5.04c-0.67-0.7-1.18-1.24-1.87-1.97
		c-1.05,1.96-2.33,3.18-4.42,3.03c-0.19-2.51,2.07-5.39,5.24-5.62c1.49-0.11,2.34-0.46,3.33-1.37c2-1.82,5.41-0.74,5.9,1.91
		c0.92,5,1.72,10.02,1.45,15.14c-0.99,0.16-0.34-1.04-1.25-1.17c-0.27,1.4-0.24,2.73,0.64,4.2c-2.43-0.15-2.98,2.51-5.24,3.13
		c2.8,1.98,2.25,4.76,2.15,7.48c-0.08,2.18,0.39,4.33,1.18,6.35c0.7,1.8,0.57,3.11-1.13,3.94c2.16,4.39,3.78,8.96,5.36,13.62
		c1.15,0.7,3.21,0.16,4.22,2.21c2.33-1.62,5.11-1.93,6.71-4.23c-0.42-0.61-1.38-0.55-1.73-1.59c2.37-1.89-0.05-3.96-0.55-5.6
		c-1.71-5.58-0.59-10.21,2.97-14.52c-3.78-3.03-4.5-7.57-1.89-12.05c1.68-2.89,1.68-2.89,0.72-5.83c0.79-0.84,2.09-1.19,2.74-2.55
		c-1.9-1.64,0.36-2.94,0.62-4.49c-1.25-1.04-1.55,1.67-2.76,0.64c1.19-3.69-0.47-7.07-0.85-10.47c-2.65-0.91-1.77,4.49-4.97,2.3
		c0.41-2.34,1.96-3.78,4.42-4.84c-2.03-1.37-1.43-3.48-2.27-4.86c0.41-1.67,1.4,0.95,1.39-0.38c-0.02-1.8,1.73-3.36,0.47-5.32
		c-0.68-1.06,0.72-2.16,1.12-2.68c2.89-3.76,5.34-7.87,8.87-11.17c2.19-2.04,3.67-2.4,6.35-0.2c-1.85,0.63-1.69,3.19-2.54,3.56
		c-3.33,1.46-2.51,4.69-3.7,7.01c-0.44,0.86-0.81,1.31,0.32,2.36c1.45,1.36,0.46,4.33-1.23,5.3c0.71,1.43,2.52,0.83,3.44,1.78
		c0.19,2.21-0.04,4.45,1.51,6.27c0.21,0.25,0.48,0.73,0.38,0.94c-1.84,3.81,0.68,7.5,0.26,11.33c-0.25,2.28-0.6,4.11-2.95,5.51
		c-1.21-0.63-2.84-0.59-4.44-1.07c0,0.46-0.05,0.87,0.01,0.89c5.01,1.26,4.8,1.27,5.08,6.32c0.23,4.2-0.45,8.45,0.62,12.73
		c-0.31,1.39-1.3-1.39-1.31,0c-0.01,3.08-1.54,3.05-3.77,2.27c-0.54-0.19-1.24-0.15-2.1,0.48c2.09,0.15,3.68,0.98,5.33,1.99
		c-0.1,0.57-0.1,1.26-0.35,1.86c-0.68,1.61,2.13,0.34,1.55,2c-0.4,1.12-0.95,2.21-0.81,3.55c0.2,1.91,0.92,0.04,1.57,0.41
		c-1.54,3.13-0.13,5.99,1.27,9.02c-1.58,0.11-3.02,0.21-4.46,0.3c4.59-0.36,6.27,3,8.16,6.6c0.53-2.54-1.15-3.75-2.07-5.12
		c0.91-1.31,2.03-1.91,3.43-2.3c-0.67-2.99-0.88-5.48,2.86-7.02c1.23-0.51,1.85-3.71,1.88-5.69c0.07-4.85-0.12-9.66,2.89-13.87
		c0.2-0.27,0.32-0.76,0.22-1.06c-1.64-4.82,2.19-7.3,4.58-10.23c1.65-2.02,1.84-4.45,3.31-6.48c-2.84-1.53-4.93-4.01-8.56-1.92
		c2.89-7.6,7.79-12.04,15.25-13.66c-3.48,3.19-6.77,6.45-7.84,11.26c0.88,0.68,1.85,0.67,2.65,0.97c3,1.14,3.75,3.71,3.01,7.21
		c-1.12,5.31-3.31,10.11-6.38,14.53c-0.28,0.4-0.89,0.83-0.6,1.25c3.13,4.58-2.19,7.71-2.03,11.79c0.03,0.74-1.27,1.09-3.12,1.25
		c2.28,0.68,1.41,3.45,3.27,4.55c0.34,0.2-2.01,0.83-1.06,2.32c0.51,0.8,1.45,1.95-0.67,2.07c-0.12,0.01-0.46,1.33-0.21,1.68
		c1.06,1.47-0.58,2.17-0.75,3.25c-1.82,0-3.64-0.25-5.85,0.24c1.64,0.68,3.09,0.55,4.39,1.11C80.73,89.66,81.16,88.79,81.03,87.75z
		 M57.37,22.79c0.6-1.36,2.06-1.92,3.2-3.18C58.22,19.63,57.29,20.71,57.37,22.79z M78.19,117.77c-0.85-0.8-1.56-1.51-2.84-0.65
		c0.18,0.97,1.18,0.67,1.56,1.24C77.08,118.6,77.56,118.58,78.19,117.77z M57.54,16.08c-0.23-0.24-0.46-0.48-0.69-0.71
		c-0.94,0.25-1.51,0.8-1.1,2.28C56.39,17.09,56.96,16.58,57.54,16.08z"/>
	<path class="st0" d="M62.49,144.2c-1.83-0.84-1.55,1.65-2.95,1.77c-0.58-1.77,1.31-3.42,0.28-5.25c-1.74,0.24-1.03,1.83-1.43,2.96
		c-1.19-1.2-1.94-2.47-1.73-4.07c-1.52,0.05-0.71,1.42-1.51,1.67c-0.81-2.98-2.14-3.84-4.4-2.84c-1.42-2.81-3.63-4.08-6.64-5.41
		c-5.17-2.29-10.18-5.69-11.81-11.93c-0.09-0.34-0.25-0.65-0.45-1.16c-1.77,0.91-3.45,1.77-5.23,2.69
		c-2.45-0.99-3.45-3.95-5.98-5.09c-0.36-0.16-0.33-0.63-0.15-0.99c1.43-2.77-0.53-5.03-1.2-7.46c-0.18-0.65-0.33-1.77-1.57-1.79
		c-1.41-0.03-1,1.13-1.32,1.82c-0.15,0.32-0.46,0.56-0.84,0.99c-2.68-3.8-3.56-8.28-5.83-12.01c1.39-1.08,1.43,0.36,2.05,0.48
		c1.52-2.08-2.69-3.17-0.7-5.24c-0.93-0.35-1.46-0.41-2.04,0.43c-2.3,3.36-3.78,6.71-1.74,10.84c0.64,1.29,1.9,3.12-0.46,4.52
		c0.25-2.41-0.72-4.12-2.09-6.06c-1.41-1.99-1.38-4.89,0.65-6.91c-0.79-1.04-1.28,0.21-1.99-0.4c-0.81-0.9-0.34-3.08-2.4-3.92
		c0.84-1.94,0.65-4.67,0.52-7.36c-0.2-4.12,0.99-7.68,3.34-11.05c0.6-0.86,1.84-1.6,1.56-3.08c-0.17-0.91,0.62-1.21,1.4-1.29
		c1.03-0.1,1.68,0.48,1.91,1.39c0.2,0.77-0.52,0.86-0.96,1.28c-2.11,1.99-0.99,4.7-1.16,7.23c1.24-0.29,0.19-1.55,1.44-1.94
		c-0.05,2.94-1.59,6.3,2.48,7.73c-1.49,1.57-2.07,3.12-4.63,2.6c1.99,1.76,2.86,0.9,3.71-0.02c1.29-1.41,2.92-1.48,4.39-0.64
		c2.09,1.19,2.7,3.99,4.69,5.14c1.7,0.99,0.54,3.57,2.74,3.9c-0.85,1.87-0.45,3.87-0.66,5.8c-0.19,1.69,0.57,2.74,1.76,3.67
		c-1.11-0.16-2.34-0.65-2.89,1.23c1.2-0.09,2.02-0.64,2.79-1.33c1.79,0.66,2.84,2.09,4.13,3.39c1.17,1.19,2.53,2.27,3.74,3.51
		c-1.61,1.24-2.02,3.01-2.56,4.77c1.65-2.08,3.08-4.41,6.14-4c1.39,0.19,1.16,1.52,0.78,2.82c4.56-1.31,9.05-0.66,13.51-0.76
		c2.34-0.06,4.12,1.57,5.51,3.25c3.78,4.59,8.5,7.99,13.4,11.2c0.82,0.54,1.54,1.28,2.15,2.06c2.45,3.13,3.9,7.13-0.23,10.6
		c-0.94,0.79-1.59,1.8-2.17,2.71c-0.81,0.12-0.96-0.4-1.42-1.23c-0.23,1.32-1.49,1.16-1.97,2.24c-0.35,0.78-1.4,1.2-2.81,1.21
		c0.72-0.96,0.68-1.9,0.72-2.82c2.9-0.83,0.85-2.69,1.04-4.08C62.51,141.29,61.73,142.61,62.49,144.2z M5.67,76.6
		c-0.48,2.13-0.43,3.67,0.06,5.19C6.09,80.24,6.26,78.7,5.67,76.6z M26.63,118.79c-0.36,0.66-0.51,1.35,0.17,1.88
		c0.15,0.11,0.83-0.11,0.88-0.29C27.92,119.51,27.3,119.12,26.63,118.79z"/>
	<path class="st0" d="M31.06,31.08c-1.72,0.51-0.65,4.09-3.81,3.19c0.11-1.67,0.79-3.31,0.37-5.2c-0.21-0.94,2.38-2.29,1.03-4.23
		c2.17-1.03,2.41-3.29,3.41-5.11c1.14-2.09,3.25-3.47,4.62-5.5c0.82-1.21,2.58-1.86,4.56-1.09c-0.1,1.29,0.32,2.71-1.79,2.97
		c-0.78,0.1-1.01,0.92-1.26,1.64c-1.46,4.12-3.61,8.19-0.46,12.56c-1.49,0.77-3.06,0.51-4.23,1.69c-0.59,0.59-2.4,1.13-2.54-1.01
		c0.26-1.87,2.39-3.47,0.93-5.77C30.44,27.15,30.71,29.11,31.06,31.08z"/>
	<path class="st0" d="M78.39,45.59c-0.7-0.52-1.39-1.05-1.75-1.88c3.38-3.69,3.38-3.69,6.47-3.71
		C81.88,42.23,79.48,43.38,78.39,45.59z"/>
</g>
</svg>
