<?xml version="1.0" encoding="utf-8"?>
<!-- Generator: Adobe Illustrator 24.1.1, SVG Export Plug-In . SVG Version: 6.00 Build 0)  -->
<svg version="1.1" id="Layer_1" xmlns="http://www.w3.org/2000/svg" xmlns:xlink="http://www.w3.org/1999/xlink" x="0px" y="0px"
	 width="72.27" height="113.26" viewBox="0 0 72.27 113.26" style="enable-background:new 0 0 72.27 113.26;" xml:space="preserve">
<g>
	<g>
		<path d="M53.23,113.19c-2.95-0.25-5.86-0.96-8.37-2.65c-6.11-4.11-12.32-4.12-18.77-0.9c-1.48,0.74-3.07,1.26-4.65,1.77
			c-3.64,1.18-6.74,0.71-10.29-1.37c-7.19-4.23-9.28-10.8-10.1-18.23C0.3,85.12,0.45,78.51,2.6,71.97c1.58-4.81-0.71-9.51-1.89-14
			c-1.85-7.03-0.04-12.57,4.7-17.56c3.45-3.63,6.15-7.52,7.2-12.65c0.79-3.84-0.62-7.15-1.16-10.65c-0.73-4.7-1.31-9.2,2.34-13.05
			c2.18-2.3,4.58-3.6,7.95-2.68c3.49,0.95,6.96,1.86,10.41,3.01c3.58,1.2,7.67,1.77,11.33-1.15c3.66-2.92,8.39-3.1,12.79-3.23
			c4.55-0.14,8.86,7.33,7.48,12.62c-0.84,3.2-1.07,6.55-1.98,9.62c-2.19,7.42,0.55,13.65,4.58,19.01
			c5.47,7.27,7.12,14.76,4.39,23.22c-1.94,6.03-2.51,11.78,0.46,17.72c1.95,3.89,0.84,8.09-0.25,12.08
			c-1.78,6.49-4.45,12.48-10.26,16.49C58.45,112.31,56.13,113.57,53.23,113.19z"/>
	</g>
</g>
</svg>
