<?xml version="1.0" encoding="utf-8"?>
<!-- Generator: Adobe Illustrator 24.1.1, SVG Export Plug-In . SVG Version: 6.00 Build 0)  -->
<svg version="1.1" id="Layer_1" xmlns="http://www.w3.org/2000/svg" xmlns:xlink="http://www.w3.org/1999/xlink" x="0px" y="0px"
	 width="1058.09" height="1719.44" viewBox="0 0 1058.09 1719.44" style="enable-background:new 0 0 1058.09 1719.44;" xml:space="preserve">
<style type="text/css">
	.st0{fill:#1A1A1A;}
</style>
<g>
	<path d="M370.57,1526.79c-1.87-0.91-3.92-1.91-5.96-2.9c-1.63,2.27-1.88,5.24-4.42,6.7c-3.01,0.85-2.82-3.67-6.63-2.94
		c-30.6,32.88-53.52,72.35-77.74,110.32c0.26,3.17,2.81,4.29,3.77,6.68c-0.28,0.72-0.4,2.17-1.01,2.41
		c-4.87,1.98,1.75,9.52-3.87,9.58c-6.15,0.07-4.44,5.9-7.57,7.67c-2.81,0.45-3.47-2.95-5.87-3.13c-0.56,0.24-1.37,0.33-1.65,0.76
		c-4.53,7.05-10.21,13.08-15.94,19.15c-7.66,8.11-16.89,12.91-27.77,14.4c-5.34,0.73-10.33,2.05-15.17,4.47
		c-7.59,3.79-16,4.11-24.23,5.06c-1.95,0.23-3.95,0.03-4.91,0.03c-4.03,2.41-2.91,6.05-4.26,8.31c-1.02,1.07-1.98,0.71-2.91,0.51
		c-3.24-0.7-5.36-2.98-6.47-5.75c-1.81-4.52-5.41-6.41-9.5-8.12c-3.35-1.4-6.52-3.26-10.43-5.25c-11.66,8.4-25.63,6.66-39.26,7.13
		c-1.5,3.22-2.87,6.15-4.3,9.21c-7.05-1.45-7.98-7.89-11.73-12.84c-12.18-1.68-25.38,1.56-37.1-3.82c-3.29,3.34-1.34,7.25-3.1,9.96
		c-2.4,1.62-4.05,0.26-5.35-1.21c-3.68-4.14-5.37-9.2-5.66-14.63c-0.34-6.3-0.61-12.57-1.29-18.86
		c-1.66-15.49,7.23-25.69,18.87-33.93c6.6-4.67,14.18-7.17,22.25-8.12c5.6-0.66,11.17-1.61,16.78-2.21
		c6.46-0.69,12.45-2.99,17.47-6.75c12.02-9,23.05-19.15,31.82-31.48c3.64-5.12,7.26-10.31,8.03-16.89
		c-3.85-2.31-7.99-1.03-11.86-1.66c-24.17-3.98-45.54-14.18-65.32-28.3c-27.6-19.7-44.76-46.88-56.41-78.05
		c-8.97-23.98-12.9-48.9-11.66-74.38c1.26-25.94,5.36-51.4,14.28-76.1c8.06-22.3,17.29-43.91,29.28-64.37
		c14.52-24.77,31.46-47.81,50.15-69.54c10.41-12.1,21.46-23.64,32.24-35.41c1.12-1.23,2.17-2.68,3.56-3.49
		c7.02-4.07,8.55-10.29,7.71-17.81c-0.62-5.55-0.64-11.16-1.07-16.73c-0.9-11.65,0.87-23.22,1.43-34.8
		c1.43-29.38,8.9-57.7,16.58-85.95c7.9-29.03,19.72-56.47,32.73-83.48c17.53-36.41,38.26-70.86,62.67-103.08
		c0.6-0.79,1.1-1.65,2.2-3.31c-5.91-8.66-6.01-20.38-13.62-28.85c-0.77-0.86-0.81-2.48-0.95-3.77c-0.15-1.33-0.29-2.5-1.29-3.58
		c-5.44-5.85-5.65-7.04-1.89-12.68c1.84-2.76,4.02-5.3,6.17-8.1c-0.93-3.26-4.79-5.52-3.75-9.57c1.59-2.08,3.84,0.64,6.24-1.35
		c0.47-7.54,1.73-15.63,4.05-23.56c9.17-31.36,23.57-60.18,43.57-85.88c34.28-44.04,75.36-80.54,123.96-108.33
		c0.87-0.5,1.66-1.2,2.59-1.5c9.76-3.17,15.9-10.44,21.38-18.55c2.62-3.88,4.75-7.83,6.16-12.4c3.16-10.22,4.58-20.76,6.6-31.19
		c0.37-1.91,0.05-3.95,0.05-5.54c-2.38-2.43-7.02-1.82-6.85-5.68c0.25-5.7-4.71-12.58,3.37-16.26c0.19-4.58-5.22-6.95-3.8-10.25
		c1.42-3.61,4.15-1.91,6.1-3.62c-0.99-11.63-4.2-22.59-10.9-32.42c-1.9-2.78-4.71-4.57-7.74-6.14c-8.27-4.29-16.45-8.74-24.59-13.28
		c-3.24-1.8-6.59-3.05-10.17-3.99c-11.93-3.14-23.43-7.37-34.37-13.22c-6.83-3.65-12.9-8.26-18.61-13.34
		c-5.09-4.54-8.05-10.57-9.71-17.14c-1-3.98-0.7-7.77,1.81-11.44c1.53-2.24,3.39-1.42,5.18-1.69c2.52-4.91,3.23-10.89,8.62-14.44
		c6.07,2.87,3.35,8.84,5.25,14.1c9.42-7.96,18.11-16.37,28.4-22.74c10.2-6.31,21.41-10.48,32.63-15.61
		c-0.72-5.62-3.94-8.97-8.76-9.7c-13.42-2.03-26.93-3.65-40.09-2.68c-2.28,2.5-1.48,4.92-1.72,7.14c-0.3,2.75-0.89,5.5-3.92,6.28
		c-3.24,0.83-5.94-0.69-7.7-3.37c-1.81-2.77-3.25-5.78-4.94-8.84c-7.26-2.14-13.59,1.66-20.14,2.8c-1.89,3.93,0.93,8.29-1.94,11.76
		c-4.12,0.94-6.65-1.92-8.08-4.62c-2.96-5.61-7.32-6.88-13.16-6.8c-13.59,0.19-23.25-6.67-30.27-17.89c-3.75-6-4.61-12.32-3-19.16
		c1.77-7.49,4.7-14.57,7.84-21.53c1.84-4.09,2.84-8.06,2.06-12.47c-0.06-0.32-0.01-0.67-0.02-1c-0.35-14.96,0.03-15.51,14.23-20.81
		c1.87-0.7,3.66-1.63,5.57-2.21c3.52-1.07,5.74-3.08,6.23-6.92c0.66-5.17,3.8-8.73,8.68-9.82c5.61-1.25,9.45-4.95,13.27-8.48
		c7.13-6.58,14.94-12.26,22.85-17.75c8.73-6.07,17.15-12.4,25.16-19.44c23.34-20.51,49.21-37.47,76.11-52.94
		c18.19-10.46,36.8-20.04,56.08-28.39c5.92-2.56,12.14-3.27,18.21-4.89c1.61-0.43,3.34,0.07,4.61,2.95
		c-0.56,4.17-3.4,8.22-6.47,12.05c-8.15,10.17-14.62,21.44-21.55,32.41c-0.88,1.39-1.87,2.77-1.28,5.28
		c7.32,0.35,14.82,0.72,22.32,1.07c1.33,0.06,2.76-0.25,3.98,0.12c13.25,3.99,25.38,0.05,37.73-4.43
		c30.08-10.92,61.28-17.7,92.58-24.06c31.26-6.35,62.73-11.42,94.37-15.36c12.18-1.52,24.5-1.95,36.76-2.82
		c1.64-0.12,3.35-0.08,4.91,1.34c2.38,4.84,0.02,8.98-3.15,12.41c-4.05,4.39-8.53,8.42-13.12,12.26c-19.16,16-39,31.14-59.01,46.06
		c-10.96,8.17-21.27,17.08-30.74,26.95c-1.59,1.66-3.59,3.04-4.2,5.67c-0.3,3.55,2.14,6.11,4.18,8.6
		c9.97,12.19,17.71,25.8,25.19,39.52c12.27,22.5,23.84,45.36,32.97,69.38c4.26,11.21,8.45,22.42,11.51,34.01
		c4.76,18.01,10.43,35.7,17.09,53.13c10.82,28.3,19.05,57.43,26.77,86.71c2.7,10.26,5.5,20.48,8.22,30.6
		c4.37,0.21,6.04-4.83,10.83-3.98c3.07,6.78-0.95,13.05-2.54,19.29c1.8,1.68,3.48,0.43,5.03,0.64c4.95,0.67,6.81,4.13,4.22,8.41
		c-1.35,2.23-3.27,4.13-5.12,6.41c2.42,0.98,4.61,1.68,6.63,2.72c5.38,2.76,5.88,5.24,2.47,11.06c-0.33,0.56-0.63,1.15-1.02,1.86
		c4.39,4.04,8.96,8.11,6.76,14.6c-2.63,3.17-6.19,1.46-9.32,3.35c1.71,7.73,2.87,15.83,5.32,23.51
		c11.81,37.09,22.42,74.48,30.83,112.52c5.67,25.62,13.05,50.86,18.48,76.53c7.01,33.15,12.97,66.53,19.12,99.85
		c3.26,17.63,6.48,35.27,8.55,53.12c1.45,12.54,3.22,25.07,3.39,37.66c0.16,11.65,1.58,23.19,1.71,34.85
		c0.21,18.34-1.14,36.58-2.43,54.8c-1.64,23.16-3.5,46.36-8.26,69.17c-0.53,2.53-0.26,4.47,0.96,6.58
		c9.11,15.77,13.6,33.14,17.3,50.75c1.38,6.56,0.97,13.28,0.87,19.94c-0.05,3.21,0.68,5.91,3.3,7.9
		c10.97,8.34,19.29,19.25,28.3,29.46c9.25,10.47,18,21.34,25.02,33.49c0.32,0.56,1.24,0.92,1.32,1.45
		c1.33,9.44,9.14,11.93,16.14,15.62c12.89,6.79,22.64,17.24,31.95,28.22c12.8,15.12,20.32,32.41,24.21,51.81
		c2.13,10.63,2.32,21.21,1.48,31.67c-0.79,9.82-3.45,19.64-7.68,28.7c-2.22,4.74-2.98,9.42-2.56,14.49
		c2.62,31.74-1.92,62.37-14.34,91.75c-8.1,19.16-18.88,36.66-32.9,52.08c-2.22,2.45-4.88,4.52-7.45,6.63
		c-12.81,10.54-24.15,22.96-39.21,30.65c-1.99,1.02-3.49,3-4.96,4.32c-1.42,5.55-0.05,10.14,2.41,14.72
		c5.55,10.32,12.72,19.49,19.97,28.61c2.48,3.12,5.43,5.9,7.73,9.14c2.64,3.71,5.99,5.9,10.25,7.44
		c8.51,3.08,16.08,7.73,22.74,14.08c10.78,10.29,15.69,22.77,15.67,37.47c0,2.99,0.34,5.97,0.52,8.96
		c0.35,5.73-0.61,11.27-2.51,16.67c-1.26,3.57-3.27,6.39-7.06,7.8c-4.29-3.53-2.45-9.91-6.7-13.21c-2.59-1.19-5.19,0.12-7.81,0.14
		c-5.99,0.05-11.96,0.24-17.91-0.99c-7.53-1.56-10.18,0.1-12.81,7.02c-1.18,3.1-2.47,6.19-4,9.13c-1.27,2.44-3.25,4.35-6.32,4.1
		c-3.16-0.26-4.42-2.5-5.1-5.31c-0.78-3.21-1.36-6.53-4.08-9.28c-12.26,0.69-24.2-0.96-34.58-8.63c-0.99,0.61-1.85,1.08-2.66,1.64
		c-6.61,4.54-12.35,9.77-14.44,17.97c-0.24,0.93-0.86,1.82-1.49,2.58c-1.48,1.78-2.94,3.94-5.63,3.5c-2.91-0.47-3.03-3.02-3.45-5.36
		c-0.46-2.59-1.22-5.14-1.95-8.14c-9.22-2.3-18.69-3.83-27.95-6.27c-10.67-2.81-19.5-8.22-27.5-15.46
		c-8.69-7.87-15.61-17.29-22.59-26.58c-15.81-21.02-33.59-40.4-50.12-60.82c-4.77-5.9-11.61-9.87-17.07-15.28
		c-12.77-12.63-26.22-24.58-38.95-37.25c-18.21-18.11-37.92-34.42-58.22-50.07c-8.69-6.7-16.93-14.03-26.85-18.98
		c-5.05-2.52-10.04-5.26-15.3-7.26c-3.6-1.37-7.37-1.85-11.6-1.13c-24.09,4.11-48.44,3.22-72.72,2.73
		c-13.94-0.28-27.96-0.81-41.74-2.71c-8.14-1.12-14.82,0.71-21.9,3.82c-23.17,10.17-45.91,21.24-68.44,32.74
		c-1.45,0.74-2.82,1.65-4.06,2.38c-0.61,10.27-0.61,10.27-7.95,10.51C374.49,1519.58,376.06,1525.09,370.57,1526.79z"/>
	<path class="st0" d="M808.89,1062.29c2.07-3.33-0.78-4.97-2.59-6.59c-6.43-5.77-13.06-11.32-19.61-16.96
		c-1.46-1.26-3.25-2.26-3.6-5.17c10.65,3.1,21.03,6.12,31.6,9.2c-1.17-7.46-6.17-15.13-18.05-28.92
		c-7.59-8.8-14.88-17.86-22.31-26.82c1.96-2.72,3.65-0.51,5.04,0.22c9.72,5.1,19.38,10.32,29,15.61c3.19,1.75,6.4,3.32,11.05,4.18
		c-2.03-8.3-7.3-14.34-10.53-21.28c-3.5-7.53-7.92-14.63-11.79-21.99c-3.72-7.07-7.18-14.28-10.89-21.35
		c-3.69-7.01-8.59-13.43-10.43-21.19c2.08-2.51,3.89-0.9,5.44,0.04c6.27,3.78,12.53,7.59,18.64,11.61
		c7.75,5.11,16.04,9.03,26.4,13.01c-2.04-4.21-3.22-7.1-4.79-9.78c-9.9-16.95-19.88-33.85-29.84-50.77
		c-2.64-4.49-5.42-8.94-5.53-14.47c4.26-1.34,6.28,1.14,8.57,2.82c9.65,7.1,19.27,14.24,28.91,21.34c0.99,0.73,2.04,1.38,4.43,2.99
		c-3.8-12.48-8.29-23.08-12.82-33.63c-4.5-10.49-9.77-20.66-13.66-31.54c7.02,2.6,11.94,7.7,18.19,10.19
		c2.87-1.73,2.2-4.25,2.19-6.41c-0.2-32.98,0.88-65.98-0.76-98.94c-0.46-9.24-2.18-18.45-3.81-27.59
		c-1.24-6.93-1.66-13.67-0.44-20.69c0.85-4.86,0.26-9.97,0.39-14.96c0.58-21.64-0.35-43.26-2.1-64.8
		c-2.21-27.27-7.4-53.91-19.12-79.01c-5.78-12.36-11.6-24.66-17.92-36.77c-9.54-18.29-18.91-36.73-27.05-55.67
		c-4.95-11.52-7.83-23.99-10.95-36.21c-4.2-16.45-5.94-33.29-6.96-50.25c-1.8-29.83-3.74-59.74-11.4-88.77
		c-7.64-28.97-16.87-57.43-31.13-84.04c-6.6-12.32-16.23-21.76-26.3-31c-10.7-9.82-23.19-16.48-36.67-21.72
		c-16.49-6.4-33.09-12.05-50.93-13.03c-0.66-0.04-1.37-0.01-1.97-0.23c-12.86-4.67-26.26-3.52-39.55-3.79
		c-7.77-0.16-15.43,0.69-22.6,3.35c-15.63,5.81-32.03,8.78-47.86,13.78c-18.08,5.71-36.2,11.27-54.26,19.26
		c-23.91-12.38-49.78-18.37-77.89-16.12c0.93-4.32,3.53-6,5.74-7.74c23.4-18.43,48.7-33.58,76.27-45.04
		c24.14-10.03,49.06-16.53,75.07-19.07c7.6-0.74,15.22-0.42,22.86-1.41c6.1-0.79,12.53,0.73,18.79,1.42
		c10.53,1.17,21.05,2.51,32.61,3.91c-1.74-2.44-4.79-1.95-5.41-5.17c2-0.84,4.21-1.93,6.51-2.72c30.6-10.4,62.04-17.5,93.65-24
		c25.07-5.16,50.3-9.33,75.57-13.29c12.12-1.9,24.38-2.97,36.57-4.46c4.28-0.52,8.53-1.3,12.82-1.7c3.2-0.29,6.61-1.22,9.87,1.69
		c-0.34,4.9-3.52,8.12-7.11,11.01C775.85,31.48,765.2,40,754.51,48.47c-17.73,14.05-35.98,27.45-52.96,42.43
		c-6.72,5.93-12.97,12.38-19.27,18.44c-0.02,5.18,1.89,9.25,4.55,12.47c11.56,13.96,20.02,29.84,28.41,45.7
		c15.27,28.84,29.29,58.3,38.98,89.58c3.44,11.11,6.25,22.42,9.8,33.5c3.03,9.47,6.62,18.76,10.11,28.07
		c12.86,34.31,22.36,69.63,31.65,105.03c1.33,5.06,1.99,10.4,5.01,14.67c4.14,0.5,5.7-3.65,9.74-4.26
		c1.38,8.31-4.32,13.98-7.61,20.65c5.12,2.92,9.56-4.23,14.52-0.2c-0.31,6.17-7.46,7.75-9.8,13.29c4.53,3.38,11.83-1.38,15.17,5.38
		c-1.91,5.6-9.1,2.63-12.76,7.45c8.4,0.42,14.25,3.6,17.13,11.29c-4.26,3.57-8.67,0.94-13.13,1.49
		c9.95,39.33,22.92,77.63,32.29,116.9c7.86,32.98,15.37,66.04,23.2,99.03c4.15,17.47,7.3,35.13,10.64,52.76
		c4.14,21.87,8.41,43.7,12.04,65.66c3.36,20.31,6.24,40.64,8,61.2c2.64,30.95,2.4,61.89,0.83,92.77
		c-1.44,28.14-3.84,56.28-8.89,83.09c12.24,21.29,18.45,43.4,19.77,66.97c0.27,4.92-0.67,9.96,2.45,14.51
		c0.69,1.01-0.08,3.23-2.11,4.76c-2.73-0.93-6.1-1.54-8.45-3.89c-2.82-2.83-7.33,0.16-9.82-3.45c-1.89-2.72-3.96-5.4-6.37-7.66
		c-5.16-4.85-11.4-8.15-17.95-10.63c-10.57-4.01-21.25-7.72-32.8-7.93c-4.33-0.08-8.37-1.36-12.37-3.35
		c-12.51-6.21-24.4-13.61-37.4-18.66c0.5-3.6,3.1-2.3,4.66-2.32c9.22-0.16,18.45-0.08,27.55-0.08c0.51-3.36-1.75-4.09-3.2-5.21
		c-8.18-6.29-16.45-12.45-24.67-18.68c-3.14-2.38-6.05-4.99-8.35-8.88c6.3-2.81,10.86,2.04,15.99,1.75
		c0.18-0.12,0.36-0.23,0.54-0.35c-0.1,0-0.24-0.03-0.29,0.02C809.17,1061.94,809.04,1062.12,808.89,1062.29z M896,1074.07
		c-0.48,0.08-0.95,0.16-1.43,0.25c0.39-0.17,0.78-0.35,1.18-0.52c0.17-0.22,0.37-0.42,0.51-0.67c0.06-0.1-0.03-0.28-0.05-0.43
		C896.14,1073.16,896.07,1073.62,896,1074.07z"/>
	<path class="st0" d="M439.85,757.3c-11.01,3.88-20.95,9.83-30.82,15.9c-1.81,1.11-2.59,2.89-3.46,4.72
		c-2.29,4.84-6.02,6.88-12.33,5.14c1.37-10.2,3.28-20.58,1.49-31.08c-1.78-10.45-2.82-21.04-4.87-31.42
		c-2.06-10.41-5.41-20.43-9.71-30.25c-4.31-9.83-11.4-17.84-16.15-27.21c2.88-3.5,6.65-3.9,10.15-3c9.22,2.36,18.54,1.22,27.72,0.77
		c6.25-0.3,12.53-1.02,18.83-1c5.66,0.02,11.12-0.33,16.62-2.37c7.49-2.78,14.59-0.25,19.12,6.27
		c11.14,16.04,18.99,33.45,21.52,53.02c0.72,5.58,1.78,11.13,1.51,16.81l0.38-0.31c-2.29,0.7-2.26,2.6-2.31,4.45l0.31-0.42
		c-2.97,1.27-5.08,3.38-6.35,6.35l0.43-0.31c-5.13,0.39-10.44,0.19-14.48,4.27l0.39-0.27c-5.21,2.03-10.8,3.42-14.37,8.3l0.43-0.3
		c-1.85,0.05-3.74,0.01-4.43,2.3L439.85,757.3z M459.1,700.41c0-0.79,0-1.58,0-1.06c-0.1-0.6,0.02,0.1,0.13,0.8
		c0.49,0.97,0.98,1.94,1.47,2.92C461.56,701.3,460.3,700.88,459.1,700.41z M401.06,708.46c0-1.12,0-2.23,0-3.52
		c-1.44,1.35,0.43,2.18,0.13,3.26c0.47,1.63,0.94,3.26,1.53,5.32C403.54,710.98,403.52,709.23,401.06,708.46z M408.89,757.84
		c0-2.91,0-5.83,0-8.74C408.89,752.02,408.89,754.93,408.89,757.84z"/>
	<path class="st0" d="M393.98,297.05c-3.88-6.63-0.15-15.45-7.49-20.65c-7.28,4.63-8.03,12.33-9.08,20.31
		c-6.48-0.65-12.52-1.26-19.84-2c3.38-5.92,7.73-9.41,11.83-13c14.27-12.49,31.29-19.86,48.98-25.88c24.37-8.3,24.4-8.32,49.36-2.11
		c10.31,2.56,20.67,4.77,31.14,6.6c6.93,1.21,13.76,1.95,20.78,1.13c3.17-0.37,6.42-0.06,10.68-0.06
		C499.11,283.61,440.76,302.99,393.98,297.05z"/>
	<path class="st0" d="M392.73,152.81c-10.76,4.87-21.25,9.83-31.91,14.36c-7.68,3.26-15.09,7.01-22.23,11.25
		c-10.34,6.14-21.37,10.71-32.42,15.33c-4.5,1.88-8.97,2.09-13.64,2.18c-4.96,0.1-8.28-1.95-10.11-7.24
		c6.61-16.16,17.64-29.69,29.95-42.38c3.06-3.15,6.96-4,10.85-4.23c22.09-1.35,43.8,0.83,64.92,7.78c0.94,0.31,1.84,0.78,2.69,1.28
		C391.38,151.48,391.82,152.01,392.73,152.81z"/>
	<path class="st0" d="M382.36,87.74c-0.73-2.64,1.56-3.33,3-4.46c25.45-19.93,52.53-37.38,80.95-52.76
		c15.5-8.39,31.1-16.58,47.49-23.13c4.8-1.92,9.5-4.77,15.89-3.52c-4.32,9.21-11.07,16.12-16.48,23.81
		c-5.58,7.94-9.28,16.85-14.85,25.23c-5.67,0.77-11.54,1.6-17.42,2.36c-29.6,3.8-57.69,12.51-84.43,25.69
		c-4.77,2.35-9.59,4.59-14.39,6.87L382.36,87.74z"/>
	<path class="st0" d="M1046.21,1362.79c-8.06-49.6-27.06-92.98-54.36-135.05C1038.04,1246.81,1067.77,1307.13,1046.21,1362.79z"/>
	<path class="st0" d="M479.45,733.6c1.62,0,3.24,0,6.03,0c-4.47,8.88-9.19,17-10.92,26.37c-1.77,9.6-0.98,19.22-1.1,28.78
		c-4.11,3.99-8.54,1.54-10.54-1.25c-6.99-9.77-18.06-14.46-26.3-22.55c-0.46-0.45-0.73-1.1-1.08-1.65c-0.32-3.27,4.11-3.12,4.31-6
		c0,0-0.39,0.36-0.39,0.36c1.85-0.05,3.74-0.01,4.43-2.3l-0.43,0.3c5.48-1.57,10.72-3.56,14.37-8.3l-0.39,0.27
		c4.77-1.61,10.29-0.69,14.48-4.27l-0.43,0.31c3.82-0.41,5.94-2.53,6.35-6.35c0,0-0.31,0.42-0.31,0.41c2.29-0.7,2.26-2.6,2.31-4.45
		L479.45,733.6z M460.54,758.32c0,0.56,0,1.14,0,1.71c0.15-0.24,0.38-0.47,0.43-0.73c0.06-0.29-0.03-0.61-0.1-0.9
		C460.86,758.35,460.62,758.34,460.54,758.32z M458.9,768.54c-0.27,0.48-0.78,0.98-0.74,1.43c0.04,0.4-0.39,2.35,1.12,0.94
		C459.86,770.36,459.67,769.24,458.9,768.54z"/>
	<path class="st0" d="M381.94,297.07c-1.36-5.71,0.97-10.07,2.41-14.49c2.75-0.34,2.75,1.5,3.06,2.98
		c0.72,3.49,1.37,6.99,2.07,10.54C387.4,298.55,384.98,297.97,381.94,297.07z"/>
	<path class="st0" d="M348.96,279.9c3.56,5.43,1.64,9.37,2.69,12.98c-3.15,0.78-5.27,0.59-7.35-2.19
		C344.32,287.11,346.84,284.2,348.96,279.9z"/>
	<path class="st0" d="M361.81,240.45c0,3.13,0.94,6.09-1.36,8.97c-4.93-0.73-6.33-4.82-9.18-8.87
		C355.44,238.91,358.59,238.75,361.81,240.45z"/>
	<path class="st0" d="M317.93,245.15c6.52-0.96,6.52-0.96,6.96,5.87C320.88,250.83,319.82,247.85,317.93,245.15z"/>
	<polygon class="st0" points="382.12,87.85 381.62,87.94 382.36,87.74 	"/>
</g>
</svg>
