<?xml version="1.0" encoding="utf-8"?>
<!-- Generator: Adobe Illustrator 23.1.0, SVG Export Plug-In . SVG Version: 6.00 Build 0)  -->
<svg version="1.1" id="Layer_1" xmlns="http://www.w3.org/2000/svg" xmlns:xlink="http://www.w3.org/1999/xlink" x="0px" y="0px"
	 viewBox="0 0 3168 3181" style="enable-background:new 0 0 3168 3181;" xml:space="preserve">
<g>
	<path d="M3168,2947.06c-2.91,1.53-5.72,1.45-8.11-0.92c-2.12-2.1-4.15-4.32-6.03-6.65c-14.03-17.36-27.94-34.83-42.04-52.14
		c-15.6-19.17-32.73-36.91-51.46-53.04c-7.05-6.07-14.67-11.53-22.28-16.91c-41.36-29.25-83.68-57.07-126.29-84.47
		c-31.67-20.36-62.75-41.63-94.37-62.08c-46.24-29.91-94.82-55.55-145.07-78.06c-3.57-1.6-7.59-2.52-10.82-6.14
		c0.82-2.23,1.69-4.58,2.53-6.86c9.66-2.07,18.66-2.96,28.11-1.4c9.29,1.53,16.3-2.4,17.29-13.15c1.14-12.41-0.26-24.59-3.35-36.64
		c-1-3.91-3.3-6.26-6.85-7.96c-17.41-8.36-34.51-17.42-52.17-25.21c-52.78-23.3-107.33-41.8-162.6-58.22
		c-8.3-2.46-16.66-4.72-24.95-7.21c-15.45-4.64-31.35-5.84-47.36-6.58c-74.96-3.47-149.97-1.45-224.96-2.02
		c-21.33-0.16-42.67-0.02-63.99-0.61c-28.65-0.8-57.17-3.39-85.63-6.92c-30.43-3.77-60.65-8.75-90.76-14.44
		c-37.34-7.05-74.36-15.58-110.15-28.38c-24.1-8.62-47.55-19.07-71.19-28.95c-20.89-8.73-41.67-17.7-62.41-26.79
		c-8.22-3.6-16.49-7.3-24.19-11.86c-16.34-9.67-32.53-19.62-48.41-30.03c-54.36-35.66-106.98-73.83-158.78-113.05
		c-46.76-35.4-92.6-72.06-135.15-112.56c-12.79-12.18-25.2-24.75-37.81-37.13c-2.33-2.28-4.74-4.48-7.69-7.27
		c-1.11,2.63-1.94,4.34-2.58,6.13c-13.22,37-26.76,73.89-39.52,111.05c-9,26.22-21.2,51.04-31.68,76.61
		c-1.64,4.01-3.59,7.9-5.04,11.97c-1.95,5.47-2.87,10.93,1.15,16.13c2.43,3.14,2.28,6.95,1.29,10.56
		c-2.36,8.65-3.91,17.73-7.65,25.76c-7.88,16.94-11.34,34.76-13.09,53.06c-1.43,14.92-2.27,29.9-3.71,44.82
		c-0.44,4.57-1.57,9.19-3.16,13.51c-1.21,3.28-1.83,6.34-1.01,9.69c4.55,18.52,5.76,37.52,7.83,56.37
		c3.98,36.19,10.07,71.91,21.81,106.47c3.74,11.02,8.18,21.81,12.51,32.62c3.96,9.89,8.39,19.6,12.27,29.52
		c2.87,7.33,7.11,14,13.13,18.53c6.99,5.26,9.02,11.05,6.81,19.03c-0.25,0.92-0.03,1.97-0.03,3.26c3.34,4.86,7.69,8.91,13.56,10.87
		c5.26,1.76,8.57,5.16,9.74,10.42c3.87,17.33,16.79,28.37,28.14,40.46c1.42,1.52,4.06,2.01,6.22,2.68c1.23,0.38,2.65,0.13,3.98,0.22
		c1.32,0.09,2.63,0.27,4.38,0.46c0.84,1.19,1.69,2.58,2.72,3.82c6.2,7.46,4.18,14.74-0.33,22.05c-5.24,8.51-10.4,17.06-15.58,25.61
		c-1.2,1.97-2.34,3.97-3.41,5.79c4.48,7.35,10.28,12.71,27.6,25.65c3.66,9.46,7.42,18.7,10.79,28.09c1.33,3.7,2.48,7.71,2.51,11.59
		c0.08,10.32-1.1,20.52-3.09,30.74c-7.73,39.71-24.37,76.02-42.33,111.75c-13.01,25.88-26.7,51.47-42.74,75.67
		c-5.63,8.49-8.05,18.21-11.72,27.46c-1.21,3.04-2.96,5.86-4.37,8.82c-3.44,7.2-7.21,14.27-10.09,21.69
		c-1.87,4.82-4.6,8.04-9.53,9.22c-5.17,1.24-10.35,2.58-15.6,3.31c-23.41,3.26-46.83,6.51-70.29,9.4
		c-21.81,2.69-43.56,6.25-65.63,6.04c-6.65-0.06-13.31-0.7-19.95-1.25c-1.91-0.16-3.76-0.95-5.87-1.52
		c-0.31-2.18-0.58-4.07-0.84-5.95c-0.6-0.25-1.3-0.85-1.79-0.71c-8.6,2.49-17.18,5.05-25.76,7.63c-3.7,1.12-6.37,3.46-8.13,6.92
		c-0.9,1.78-2.01,3.45-3.05,5.16c-6.28,10.35-14.85,17.86-26.54,21.56c-2.22,0.7-4.38,1.6-6.56,2.42
		c-23.25,8.67-45.75,6.73-67.48-4.97c-14.71-7.92-30.12-14.07-45.99-19.29c-12.93-4.26-25.66-9.18-38.24-14.4
		c-7.66-3.18-14.84-7.51-22.28-11.26c-12.06-6.07-21.06-15.16-26.52-27.48c-1.99-4.48-4.97-7.71-8.77-10.57
		c-3.17-2.38-6.12-5.11-8.99-7.86c-9.6-9.2-20.55-15.66-33.85-18.05c-14.11-2.53-26.35-9.08-37.13-18.46
		c-4-3.48-7.83-7.18-13.19-8.77c-2.16-0.64-3.98-2.38-6.01-3.53c-6.17-3.48-8.82-8.69-8.32-15.76c0.9-12.63,1.81-25.25,5.45-37.91
		c-4.31-6.32-10.55-10.73-17.43-14.12c-15.7-7.73-32.18-12.7-49.89-12.78c-2.61-0.01-5.21-0.34-7.57-0.5
		c-2.2-4.04-0.3-6.89,1.6-9.59c6.71-9.51,15.17-16.78,26.55-20.15c19.51-5.78,38.77-5.55,57.65,2.6c3.05,1.32,6.01,2.84,9.46,4.48
		c1.86-0.98,3.86-2.07,5.89-3.1c3.26-1.65,6.44-3.54,9.85-4.8c6.86-2.55,13.14-1.73,17.98,4.36c1.01,1.27,1.78,2.73,2.89,4.47
		c2.7-2.65,4.47-4.14,5.94-5.89c3.2-3.8,6.25-7.72,9.19-11.38c-11.03-26.19-23.9-40.6-56.32-47.39c-2.6-2.95-1.55-6.17-0.34-9.29
		c4.2-10.89,11.54-18.77,22.95-21.94c15.48-4.3,30.96-3.79,46.22,1.41c19.59,6.66,36.16,18.3,51.83,31.42
		c1.53,1.28,2.82,2.88,4.44,4.02c3.06,2.17,6.13,3.04,10.24,2.07c5.72-1.36,11.77-1.38,18.32-2.03c0.47-2.17,0.97-4.37,1.41-6.57
		c3.29-16.29,10.89-30.62,19.83-44.41c3.61-5.57,6.96-11.35,9.89-17.31c6.16-12.55,11.95-25.29,17.93-37.93
		c3.52-7.43,4.81-15.22,3.7-23.33c-0.56-4.11,0.21-7.8,1.61-11.67c4.55-12.51,8.65-25.19,13.12-37.73c2.5-7.01,2.6-14.35-1.08-20.31
		c-5.59-9.03-4.91-18.65-4.27-28.04c2.13-31.54,7.31-62.81,8.97-94.42c1.19-22.62,3.08-45.2,4.64-67.8
		c0.32-4.65,0.61-9.31,0.77-13.97c1.44-41.28,2.74-82.57,4.34-123.85c0.48-12.31,1.93-24.57,2.64-36.88
		c1.06-18.29,2.16-36.58,2.63-54.89c0.27-10.37-1.48-20.57-7.36-29.58c-1.97-3.02-2.26-6.18-0.74-9.49c0.83-1.81,1.6-3.64,2.42-5.5
		c-2.19-7.89-6.09-14.64-10.55-21.4c-5.65-8.57-10.65-17.75-14.6-27.23c-8.1-19.44-17.72-38.03-28.69-55.96
		c-5.8-9.48-9.68-19.78-12.45-30.41c-3.21-12.32-8.46-23.82-14.08-35.02c-10.24-20.39-17.58-41.79-23.2-63.71
		c-7.53-29.34-13.9-58.98-20.8-88.48c-8.18-35.02-16.5-70.01-24.55-105.06c-4.69-20.46-8.84-41.03-9.75-62.1
		c-0.06-1.31-0.39-2.61-0.71-4.66c-20.4-14.31-41.14-28.78-65.35-37.15c-9.53-3.29-19.29-4.97-29.45-2.59
		c-8.25,1.93-14.64,6.31-19.13,13.37c-6.18,9.72-9.66,20.26-10.4,31.91c-1.61,25.29,2.13,49.87,9.06,74.03
		c7.91,27.55,14.31,55.45,20.21,83.48c1.3,6.16,1.85,12.48,2.89,19.72c4,2.49,8.39,5.42,12.99,8c1.98,1.11,4.34,1.77,6.6,2.13
		c5.4,0.86,8.46-0.73,9.99-5.9c1.31-4.43,2.15-9.1,2.4-13.71c0.46-8.65,0.28-17.32,0.49-25.98c0.06-2.56,0.52-5.1,0.93-8.87
		c2.15,1.52,3.51,2.2,4.51,3.24c11.86,12.35,17.88,27.23,17.97,44.22c0.05,9.28-0.75,18.63-1.98,27.85
		c-1.43,10.68-6.86,19.29-15.61,25.8c-5.61,4.17-11.71,4.87-17.96,2.48c-3.99-1.52-7.77-3.8-11.3-6.24
		c-3.54-2.45-6.85-5.34-9.93-8.36c-29.77-29.2-62.09-55.54-93.69-82.65c-16.68-14.3-34.24-27.59-51.68-40.97
		c-5.78-4.43-12.24-8.07-18.69-11.5c-7.52-3.99-15.65-5.21-24.22-4.04c-6.25,0.85-11.6,3.28-15.72,7.89
		c-3.76,4.21-7.51,8.56-10.4,13.37c-14.55,24.14-22.57,50.02-22.85,78.6c-0.33,33.85,6.76,66.1,17.35,97.88
		c4.96,14.89,11.7,28.98,18.13,43.26c4.08,9.07,9.58,15.34,18.35,19.67c9.25,4.56,18,10.13,27.14,14.94
		c7.36,3.87,14.87,7.5,22.5,10.81c10.04,4.36,20.75,5.19,31.4,3.67c5.11-0.73,9.93-3.55,14.84-5.54c3.38-1.37,6.54-3.43,10.02-4.33
		c5.66-1.46,8.83,1.8,8.3,7.75c-0.29,3.23-1.78,5.7-4.34,7.52c-9.07,6.44-19.11,10.5-29.9,13.3c-11.41,2.96-21.61-1.35-32.05-4.04
		c-14.49-3.74-28.84-8.08-43.19-12.35c-12.44-3.7-24.89-7.39-37.17-11.59c-18.38-6.28-34.09-16.9-46.37-31.9
		c-22.04-26.93-47.54-50.39-72.82-74.1c-4.61-4.32-8.74-9.14-13.13-13.7c-10.39-10.81-20.71-21.69-31.22-32.37
		c-32.49-33.02-65.1-65.92-97.58-98.96c-7.24-7.36-14.16-15.05-21.15-22.65c-11.51-12.51-22.89-25.13-34.45-37.58
		c-6.97-7.51-11.72-15.87-13.11-26.28c-3.62-27.07-8.29-54.01-11.38-81.13c-5.24-46-9.32-92.13-14.42-138.14
		c-3.93-35.42-8.7-70.74-13.04-106.12c-0.85-6.94-1.68-13.9-2.07-20.88c-2-35.3-6.56-70.27-12.66-105.08
		c-5.46-31.16-10.34-62.43-15.95-93.56c-6.02-33.42-10.91-67.06-19.44-100.01c-3.6-13.92-7.9-27.68-14.51-40.35
		c-6.71-12.87-6.32-25.37-2.11-38.48c3.47-10.81,7.53-21.31,13.49-31.07c2.93-4.8,5.37-9.98,7.45-15.22
		c8.1-20.42,15.95-40.94,23.93-61.41c10.03-25.76,19.99-51.54,27.89-78.05c3.13-10.52,5.17-21.38,8.63-31.79
		c5.77-17.37,11.83-34.67,18.56-51.69c15.54-39.34,31.11-78.67,47.49-117.66c17.41-41.45,35.67-82.54,53.74-123.71
		c17.8-40.57,35.22-81.27,50.26-122.97c10.2-28.27,18.16-57.11,24.06-86.54c1.37-6.84,1.92-13.85,2.85-20.78
		c0.57-4.29,1.13-8.59,1.71-12.88c0.75-5.48,3.12-10.17,7.12-13.97c10.86-10.34,21.6-20.81,32.7-30.88
		c5.41-4.91,11.47-9.11,17.35-13.49c8.55-6.36,17.49-12.24,25.73-18.98c6.93-5.67,13.07-12.3,19.6-18.46
		c2.62-2.47,3.42-5.47,3.4-8.99c-0.05-9-0.26-18.02,0.3-26.99c1.58-25.44,5.95-50.27,17.68-73.28
		c11.32-22.21,28.23-39.4,48.46-53.53c2.42-1.69,5.21-3.06,8.04-3.89c5.09-1.49,8.57,0.66,9.49,5.92
		c1.27,7.29,0.78,14.59-0.74,21.84c-2.6,12.38-5.47,24.71-7.51,37.18c-1.39,8.52-1.99,17.23-2.2,25.87
		c-0.53,22.31-0.67,44.64-0.9,66.96c-0.02,2.32,0.37,4.64,0.65,7.93c8.95,7.05,17.9,15.13,27.87,21.65
		c11.67,7.64,19.42,17.89,25.14,30.25c12.03,26,24.83,51.62,38.51,76.81c11.64,21.43,24.75,41.84,39.68,61.12
		c21.02,27.14,41.85,54.41,62.8,81.6c2.18,2.83,4.16,5.89,7.95,8.71c1.38-3.89,0.71-7.13,0.86-10.24c0.17-3.33,0.09-6.67,0.38-9.99
		c0.26-2.98,0.81-5.94,1.36-8.89c0.6-3.27,1.27-6.54,2.03-9.77c0.76-3.24,1.59-6.47,2.53-9.66c0.94-3.19,2.04-6.34,3.12-9.49
		c0.97-2.83,1.93-5.68,3.05-8.46c1.25-3.09,2.55-6.16,4.06-9.13c1.5-2.97,3.16-5.87,4.97-8.66c1.81-2.79,3.82-5.46,5.85-8.1
		c1.82-2.38,3.64-4.79,5.72-6.94c2.27-2.35,4.84-4.42,6.76-6.15c4.12,0.02,6.22,1.76,6.54,4.64c0.54,4.92,0.92,9.92,0.62,14.84
		c-0.99,16.32-1.93,32.65,1.19,48.82c1.64,8.48,4.05,16.81,6.26,25.17c0.49,1.85,1.64,3.52,2.22,4.72
		c9.28,3.27,16.98-0.08,24.57-3.43c1.99-0.88,3.97-2.62,5.1-4.48c4.11-6.82,8.14-13.72,11.66-20.86c3.7-7.51,1.74-15.62,2.12-24.48
		c-4.83,0.7-8.94,1.69-13.07,1.76c-3.86,0.07-7.74-0.85-13.31-1.54c5.24-4.01,9.05-6.93,14.36-11c-7.91-1.19-13.74-2.31-19.56,1.25
		c-2.7,1.65-5.68,3.09-10.5,2.4c2.39-2.51,3.82-4.23,5.46-5.71c6.01-5.41,9.37-11.9,9.14-20.2c-0.19-6.66-0.06-13.33,0.21-19.99
		c0.21-5.25,0.86-10.49,1.38-16.48c-3.6,0.42-6.69,0.78-10.31,1.21c0.46-6.37,6.19-7.34,9.83-10.68
		c-4.44-3.76-10.75-4.85-14.23-9.46c8.72,0.3,17.33,0.59,25.93,0.88c4.88,0.17,9.1-1.45,12.95-4.42
		c5.51-4.26,11.15-8.35,17.03-12.74c-2.79-2.57-5.37-4.94-8.57-7.89c6.43-2.11,11.91,2.81,17.25-0.19c0.32-0.57,0.94-1.16,0.9-1.71
		c-0.83-11.9,2.38-23.18,5.97-34.22c4.53-13.92,9.65-27.67,15.25-41.19c5.26-12.68,12.38-24.34,22.81-33.66
		c1.97-1.76,3.61-3.93,5.2-6.06c14.03-18.94,31.32-34.44,50.25-48.32c22.13-16.22,46.2-29.12,70.49-41.63
		c7.69-3.96,15.5-7.73,23.4-11.28c6.42-2.88,13.28-4.11,21.35-4.29c-1.2,2.22-1.94,3.83-2.88,5.3c-4.86,7.56-9.84,15.05-14.66,22.65
		c-5.89,9.28-11.82,18.55-17.43,27.99c-5.78,9.73-11.33,19.6-16.74,29.54c-6.17,11.34-8.34,23.81-9.7,36.46
		c-0.24,2.22-0.03,4.49-0.03,7.56c4.08-0.67,7.29-1.06,10.43-1.75c14.34-3.14,28.4-7.09,41.59-13.77
		c9.27-4.69,16.43-11.53,20.79-20.84c3.52-7.5,6.08-15.45,9.06-23.2c0.67-1.74,1.33-3.48,2.36-6.17c3.21,4.88,3.15,9.01,2.42,13.28
		c-2,11.64-6.28,22.41-12.42,32.46c-1.01,1.65-2.1,3.25-3.82,5.88c10.23,0.31,19.41,0.08,28.46,1.01c8.87,0.91,17.63,3,28.34,4.92
		c0.51-0.25,2.95-1.26,5.22-2.56c24.93-14.24,51.05-25.94,77.64-36.67c13.07-5.27,26.75-8.17,40.57-10.32
		c35.22-5.48,70.49-10.62,106.05-13.34c15.62-1.2,31.34-1.56,46.86,1.25c5.17,0.94,10.37,2.57,15.09,4.85
		c5.07,2.45,4.75,7.34-0.53,9.61c-12.23,5.24-24.42,10.69-36.99,14.97c-13.66,4.65-26.56,10.5-38.79,18.13
		c-31.41,19.59-61.84,40.6-91.36,62.91c-9.28,7.01-18.15,14.54-26.18,22.44c0.4,3.38,2.91,3.03,4.55,3.72
		c11.9,5.06,21.44,13.29,30.5,22.24c4.47,4.42,9.26,8.52,14.11,12.96c3.6-1.25,6.7-2.26,9.76-3.4
		c19.04-7.14,38.19-14.02,58.31-17.33c10.15-1.67,20.52-2.03,30.81-2.73c3.61-0.25,7.37-0.24,10.99,2.64
		c-1.09,1.51-2,3.18-3.29,4.48c-1.87,1.89-4.06,3.45-6.03,5.25c-10.08,9.22-17.34,20.27-20.6,33.59c-5.21,21.29-6.45,42.8-1.9,64.38
		c3.71,17.61,12.08,32.32,27.52,42.44c4.73,3.1,9,6.96,13.85,9.84c5.69,3.37,11.73,6.16,17.71,9.02c4.19,2.01,8.57,3.64,12.77,5.62
		c1.03,0.48,1.72,1.68,3.3,3.31c-2.12,0.57-3.26,1.15-4.38,1.14c-14.35-0.08-27.44,4.71-40.05,10.77
		c-10.57,5.07-18.57,13.28-22.61,24.34c-4.11,11.22-7.25,22.81-10.65,34.28c-3.16,10.68-0.71,20.4,5.63,29.31
		c1.33,1.88,2.64,3.78,4.58,6.58c-2.55-0.16-4.37,0.08-5.94-0.44c-16.1-5.38-32.16-10.88-48.23-16.37
		c-8.18-2.8-16.33-5.64-25.1-8.68c-0.57,2.26-1.17,4.06-1.45,5.91c-1.33,8.56-2.73,17.11-3.78,25.71
		c-0.68,5.61-0.71,11.29-1.19,16.92c-0.49,5.82,1.74,10.47,6.01,14.14c5.8,4.99,11.58,10.03,17.71,14.6
		c5.99,4.46,12.92,6.74,20.48,7.1c4.25,0.2,8.48,0.81,13.75,1.34c-4.75,5.61-10.16,7.04-15.65,8.19c-2.6,0.54-5.28,0.75-7.93,1
		c-4.36,0.41-8.26,1.64-12.11,4.02c-7.66,4.72-16.33,5.33-25.13,4.37c-2.19-0.24-4.38-0.51-8.32-0.97
		c11.11,11.33,22.16,19.52,35.88,23.55c7.66,2.25,15.49,3.92,23.19,6.04c2.04,0.56,3.89,1.82,6.74,3.21
		c-9.9,7.75-20.6,4.13-32.14,5.74c3.06,1.56,4.63,2.56,6.34,3.19c34.11,12.47,68.52,24.04,103.86,32.48
		c10.63,2.54,21.52,4.13,32.02,7.31c3.77,1.14,7.41,2.73,11.16,3.95c2.52,0.82,5.1,1.75,7.71,1.95c5.51,0.43,9.29,3.26,12.22,7.64
		c0.74,1.11,1.67,2.13,2.21,3.32c3.78,8.4,10.89,13.06,18.61,17.29c24.02,13.17,49.26,23.57,74.9,33.02
		c32.83,12.11,66.19,22.49,100.49,29.69c24.82,5.21,49.78,9.16,75.15,10.28c0.98,0.04,1.97-0.14,3.73-0.28
		c2.42-5.77,7.82-9.17,12.95-12.81c7.43-5.27,13.97-11.44,18.87-19.08c13.84-21.59,27.98-43.01,41.05-65.07
		c21.8-36.8,38.66-75.9,52.55-116.36c3.37-9.81,6-19.64,8.17-29.75c2.79-13.01,6.87-25.73,10.07-38.66
		c7.61-30.77,12.85-61.94,15.65-93.52c0.85-9.62,1.9-19.23,2.65-28.86c0.93-11.95,1.63-23.88,0.25-35.89
		c-1.78-15.55-3.11-31.14-4.53-46.73c-0.44-4.86-1.71-9.11-6.08-11.95c-3.37-2.2-4.37-5.61-4.69-9.46
		c-0.68-8.1,0.26-15.92,3.05-23.58c5.44-14.9,14.02-27.99,23.57-40.43c6.47-8.43,13.72-16.25,21.08-24.88
		c-2.21-9.81-6.37-19.63-11.05-29.12c-10.01-20.33-21.17-39.94-34.77-58.24c-14.19-19.09-32.33-33.45-51.57-46.67
		c-9.31-6.4-19.41-11.66-29.15-17.43c-2.58-1.53-5.27-2.89-7.73-4.59c-2.24-1.55-3.98-3.59-3.29-7.16c3.68-3.5,8.77-3.61,13.65-4.02
		c14.11-1.19,27.88,0.51,41.44,4.67c32.34,9.92,60.97,26.58,87.05,47.79c16.29,13.25,32.15,27.01,48.42,40.28
		c9.69,7.9,17.87,16.92,23.72,28.01c1.55,2.93,3.38,5.71,5.48,9.23c4.2,0.63,8.74,1.31,13.66,2.05c6.83,7.9,12.25,17.08,17.32,26.41
		c3.72,6.86,8.63,12.07,14.84,16.97c38.55,30.41,80.03,56.43,121.53,82.46c10.15,6.36,19.99,13.27,29.55,20.48
		c9.9,7.47,20.45,13.72,31.57,19.11c6.89,3.34,13.77,6.72,20.66,10.08c16.97,8.25,30.07,20.66,39.85,36.74
		c8.35,13.72,14.85,28.35,20.67,43.23c23.82,60.89,51.96,119.75,82.55,177.47c10.92,20.6,21.98,41.13,33.01,61.67
		c18.15,33.77,37.41,66.91,59.14,98.49c13.4,19.47,27.98,38.12,41.93,57.21c2.52,3.45,4.55,7.26,6.8,10.9
		c1.58,2.54,3.04,5.17,4.76,7.61c39.01,55.26,77.72,110.74,117.19,165.66c24.71,34.38,51.7,67,80.41,98.17
		c10.42,11.32,19.14,23.9,26.32,37.48c6.23,11.77,12.39,23.6,18.02,35.67c12.5,26.78,20.19,54.89,22.99,84.4
		c2.76,29.18,5.84,58.33,9.18,87.45c3.57,31.12,9.64,61.85,15.36,92.63c9.12,49.18,22.9,97.22,35.5,145.54
		c1.26,4.83,2.95,9.54,4.53,14.28c3.39,10.13,5.71,20.47,7.28,31.07c2.24,15.14,4.69,30.3,8.08,45.21
		c14.68,64.61,17.74,94.01,24.88,143.5c4.89,33.95,8.71,68.07,12.25,102.19c3.46,33.47,5.96,67.03,6.95,100.69
		c1.19,40.63,2.49,81.26,3.55,121.89c0.12,4.58-0.51,9.31-1.59,13.77c-2.21,9.13-9.9,14.64-19.11,13.68
		c-3.54-0.37-7.47-1.31-10.32-3.29c-15.45-10.76-29.33-23.12-37.43-40.68c-0.89-1.94-1.25-4.13-2.39-7.99
		c3.47,2.16,5.34,3.24,7.13,4.45c7.22,4.89,14.81,9.03,23.33,11.12c2.54,0.62,5.28,1.04,7.86,0.83c5.14-0.43,7.88-2.84,8.64-8.08
		c1.96-13.53,3.12-27.11,0.49-40.73c-4.86-25.18-9.14-50.48-14.57-75.53c-6.56-30.31-14.7-60.22-29.49-87.8
		c-4.08-7.61-8.54-15.09-13.55-22.12c-3.44-4.82-7.85-9.05-12.29-13.04c-11.65-10.47-34.12-13.67-49.61,0.13
		c-7.19,6.4-13.86,13.48-20.17,20.76c-51.36,59.24-91.04,125.5-119.01,198.77c-6.41,16.8-13.03,33.54-16.66,51.21
		c-3.35,16.31-6.74,32.58-11.75,48.5c-2.08,6.63-3,13.65-4.22,20.53c-4.71,26.55-9.33,53.13-13.98,79.69
		c-0.17,0.98-0.54,1.97-0.52,2.95c0.31,12.73-5.74,23.02-12.55,33.05c-3.53,5.2-6.88,10.52-10.75,16.46
		c2.54,1.35,4.39,2.59,6.42,3.36c41.35,15.79,79.14,38.28,115.86,62.52c18.32,12.09,35.7,25.7,52.9,39.39
		c11.33,9.02,23.54,16.32,36.45,22.52c8.69,4.17,17.71,7.71,26.76,11.06c9.49,3.51,19.39,4.59,29.51,3.5
		c8.14-0.87,14.39-4.74,19.2-11.26c4.03-5.47,6.28-11.72,8.18-18.12c0.36-1.23,0.45-2.65,0.23-3.92
		c-2.73-16.32,0.32-32.56,0.68-48.84c0.11-5.07,3.01-7.07,8.06-6.11c2.57,0.49,5.19,1.41,7.45,2.71c3.74,2.15,7.47,4.45,10.76,7.22
		c33.4,28.13,66.45,56.63,96.41,88.53c25.17,26.8,47.27,56.01,68.47,85.93c23.4,33.02,42.25,68.59,58.75,105.47
		c18.11,40.44,34.59,81.54,50.58,122.86c7.5,19.37,12.86,39.17,15.68,59.7c0.73,5.27,1.5,10.54,2.42,15.78
		c0.21,1.18,1.13,2.24,1.72,3.36C3168,2927.07,3168,2937.07,3168,2947.06z M2256.22,1990.29c-3.29-8.79-7.19-16.92-14.15-23.71
		c-6.88-6.71-13.35-14.08-18.8-21.98c-15.5-22.48-30.14-45.56-45.62-68.06c-9.99-14.53-20.45-28.79-31.45-42.57
		c-11.09-13.88-24.79-25.09-39.59-34.91c-8.86-5.88-18.5-9.23-29.19-8.51c-9.29,0.62-18.66,1.09-27.78,2.76
		c-32.27,5.9-63.67,14.39-91.08,33.58c-1.9,1.33-4.08,2.27-6.03,3.53c-14.87,9.57-29.68,19.21-40.51,33.65
		c-4.78,6.37-9.61,12.71-14.39,19.09c-5.12,6.83-8.64,7.98-16.17,4.34c-9.29-4.49-18.67-8.9-27.5-14.19
		c-13.99-8.39-27.63-17.36-41.25-26.34c-5.08-3.35-9.06-7.95-10.41-14.14c-0.38-1.72,0.25-3.67,0.48-6.27
		c2.53,0.89,4.5,1.22,6.07,2.19c3.39,2.1,6.59,4.53,9.86,6.82c9.94,6.97,20.69,12.2,32.76,14.01c8.16,1.22,15.83,0.63,20.99-7.58
		c2-3.18,1.86-6.26,1.9-9.52c0.35-28.69-2.96-57.12-5.97-85.57c-3.9-36.81-11.2-72.98-20.38-108.79
		c-8.15-31.81-22.51-60.47-44.94-84.74c-35-37.88-77.02-62.23-129.46-65.4c-14.24-0.86-28.72-0.94-42.88,0.59
		c-27.83,2.99-52.43,16.3-78.23,26.06c-0.33,4.21-0.62,7.84-0.91,11.47c-0.82,10.62-1.35,21.27-2.52,31.85
		c-2.86,25.82-5.71,51.62-4.8,77.66c0.14,3.97,0.23,8.08,1.26,11.87c3.4,12.49,6.06,25.36,11.1,37.19
		c10.72,25.15,19.6,50.94,28.87,76.61c3.51,9.72,3.56,19.57,1.63,29.54c-0.7,3.59-1.78,7.11-2.38,10.72
		c-1.63,9.85-3.06,19.61-1.64,29.76c1.56,11.18,1.94,22.53,2.78,33.81c0.42,5.63-1.5,10.44-5.34,14.56
		c-4.99,5.37-9.92,10.8-14.86,16.21c-5.8,6.34-11.48,12.77-16.24,20.33c4.3,5.1,8.18,10.1,12.47,14.72
		c32.23,34.69,65.88,67.91,101.78,98.84c23.24,20.03,47.08,39.29,72.12,56.97c31.86,22.48,65.55,42.18,99.76,60.77
		c30.69,16.68,62.19,31.94,93.86,46.71c49.83,23.25,101.46,41.98,153.9,58.47c29.84,9.38,59.56,19.13,89.41,28.5
		c14.6,4.58,29.23,9.16,44.06,12.91c37.79,9.56,75.99,16.92,114.77,21.44c24.46,2.85,48.89,6.28,73.14,10.53
		c30.53,5.35,60.31,13.86,89.59,24.03c10.02,3.48,19.99,7.1,29.85,10.61c9.95-12.14,12.51-18.21,13.42-31.71
		c1.46-21.57,2.83-43.15,4.36-64.71c1.82-25.55,4.29-51.07,5.53-76.65c1.37-28.27,2.2-56.59,2.32-84.89
		c0.21-50.64,0.65-101.29-1.29-151.92c-1.18-30.95-1.66-61.92-2.95-92.87c-0.71-16.94-2.19-33.87-3.82-50.75
		c-1.05-10.88-2.99-21.68-4.42-31.7c-7.54-7.32-15.71-6.86-24.13-5.35c-25.11,4.52-47.46,15.09-67.58,30.61
		c-30.38,23.45-55.52,51.73-76.49,83.74c-6.75,10.3-13.01,20.94-19.14,31.62c-15.9,27.73-31.34,55.74-47.5,83.32
		c-8.74,14.92-17.66,29.79-29.21,42.87c-5.34,6.05-11.33,11.13-18.11,15.54c-7.71,5.01-15.11,4.71-22.41-0.04
		c-15.7-10.23-28.27-23.21-34.83-41.22c-5.16-14.15-8.14-28.76-9.4-43.74c-0.03-0.4,0.72-0.86,1.58-1.83
		c1.26,1.47,2.51,2.88,3.71,4.33c6.58,7.95,12.89,16.16,19.81,23.8c6.98,7.71,16.26,9.52,25.65,6.05
		C2246.4,2002.61,2252.65,1997.87,2256.22,1990.29z M1164.61,2888.72c-2.39-1.18-4.72-1.88-6.43-3.3c-1.39-1.15-3.11-3.38-2.85-4.79
		c1.45-7.99-3.16-13.37-7.63-18.67c-7.3-8.65-14.93-17.02-22.51-25.44c-1.23-1.37-2.91-2.33-5.25-4.16
		c-2.19,6.11-4.31,11.31-5.91,16.66c-5.8,19.44-11.01,39.07-17.22,58.39c-10.39,32.34-24.03,63.45-37.14,94.75
		c-1.36,3.26-3.52,6.26-3.75,10.65c2.39-0.24,4.39-0.15,6.21-0.68c6.74-1.94,11.61,0.61,15.68,5.84c3.48,4.47,7.11,8.82,10.82,13.09
		c1.92,2.21,3.74,4.79,7.12,4.92c5.77-3.2,6.07-3.28,9.44-8.4c5.67-8.62,11.07-17.42,16.74-26.05c19.08-29,31.67-60.67,39.16-94.45
		C1162.39,2901.29,1163.34,2895.42,1164.61,2888.72z M1420.94,1721.01c4.45-8.67,5.57-14.42,4.56-24.24
		c-1.89-18.49-3.74-36.98-5.84-55.45c-1.2-10.56-2.23-21.2-4.42-31.57c-3.98-18.84-8.75-37.52-13.23-56.26
		c-0.44-1.82-1.19-3.56-1.93-5.75c-5.63,1.83-10.43,3.59-13.84,7.6c1.26,4.02,2.34,7.45,3.48,11.1c-2.71,3.99-5.38,7.79-7.91,11.68
		c-1.42,2.18-3.03,4.39-3.81,6.82c-3.76,11.85-5.8,23.68-0.77,35.88c6.33,15.37,11.98,31.01,18.29,46.39
		c5.93,14.45,12.2,28.77,18.59,43.03C1415.83,1714.04,1417.07,1718.38,1420.94,1721.01z M794.23,600.98
		c13.63,15.19,27.04,29.47,42.67,41.51c0.45,0.34,1.26,0.22,1.91,0.31c0.63-2.18,1.25-4.35,1.86-6.46c2.35-1.06,4.38-1.98,6.64-3
		c-2.18-16.37-4.85-32.28-12.63-47.14c-9.37,0.85-16.97-3.56-25.03-6.7C804.51,586.67,799.67,593.41,794.23,600.98z"/>
</g>
</svg>
