<?xml version="1.0" encoding="utf-8"?>
<!-- Generator: Adobe Illustrator 24.0.2, SVG Export Plug-In . SVG Version: 6.00 Build 0)  -->
<svg version="1.1" id="Layer_1" xmlns="http://www.w3.org/2000/svg" xmlns:xlink="http://www.w3.org/1999/xlink" x="0px" y="0px"
	 viewBox="0 0 1425.03 2404.18" style="enable-background:new 0 0 1425.03 2404.18;" xml:space="preserve">
<style type="text/css">
	.st0{fill:#1A1A1A;}
</style>
<g>
	<path d="M558.94,501.01c-8.27-6.71-14.65-13.94-16.12-26.99c7.47,8.8,15.19,11.03,24.86,8.63c-6.33-8.47-13.25-16.66-12.68-29.29
		c8,6.2,16.25,2.89,25.89,5.16c-7.88-11.26-13.32-21.84-23.83-28.25c-10.04-6.12-20.06-12.44-34.25-11.46
		c-10.38-10.25-21.18-21.86-20.1-40.1c-8.85,2.64-15.76,9.16-24.82,10.35c-0.47,0.06-1.04-0.66-2.14-1.41
		c10.22-9.7,11.11-22.86,12.55-35.56c1.15-10.13,2.96-19.67,10.82-27.1c-8.44-4.11-17.57-1.23-25.15-5.31
		c0.32-0.99,0.32-1.48,0.53-1.6c12.33-6.81,18.65-18.54,24.8-30.37c3.25-6.24,6.79-12.22,12.55-17.06
		c-3.34-4.61-9.22-6.73-11.43-12.09c0.71-2.68,2.86-2.33,4.82-2.47c9.91-0.7,17.69-5.18,23.49-13.13
		c-16.4-24.76-19.49-51.86-16.19-80.46c1.72-14.93,4.93-29.46,8.72-43.95c6.13-23.45,11.43-47.09,15.66-70.97
		c1.7-9.6,5.3-18.5,11.24-26.41c9.96-13.26,22.62-14.74,35.03-3.71c12.17,10.81,20.56,24.34,27.3,38.99c1.37,2.98,2.66,6,4.01,9.03
		c11.43-6.75,27.81-32.26,33.69-52.13c6.96,6.93,10.54,19.31,13.96,48.35c3.13,0.17,3.6-2.76,4.68-4.49
		c9.25-14.77,22.59-22.88,39.64-25.81c16.37-2.81,32.66-6.11,48.92-9.47c10.1-2.09,20.04-4.81,29.26-9.7
		c5.03-2.67,9.83-5.57,14-9.48c1.39-1.3,2.55-3.22,4.98-2.65c2.25,9.79-2.3,30.86-12.29,56.16c10.75-1.81,21.22-3.33,30.46,3.55
		c5.09-4.46,9.76-8.68,14.57-12.75c4.34-3.68,9.17-6.72,14.43-8.85c12.03-4.86,24.18-1.33,31.85,9.21
		c5.74,7.89,9.36,16.81,12.24,26.08c5.66,18.17,8.65,36.78,10.68,55.69c1.5,13.99,1.51,27.96,0.87,41.86
		c-0.81,17.6-3.91,35-9.92,51.7c-1.14,3.18-2.19,6.2-1.95,9.66c0.75,10.7-1.42,21.15-2.98,31.96c6.19,5.01,13.9,2.06,21.13,3.33
		c-0.56,6.36-6.13,9.68-8.04,15.1c3.52,4.26,8.66,5.86,13.55,7.86c15.94,6.53,17.11,8.51,17.18,26.04
		c0.02,4.97-1.52,9.91-0.09,15.52c3.34,2.38,7.05,5.02,11.15,7.93c-4.41,3.93-9.69,2.73-14.4,3.93
		c-5.32,13.93-11.27,27.37-20.09,39.08c-4.59,6.09-6.72,12.62-8.24,19.75c-1.41,6.6-1.44,13.09,0.7,19.53
		c-6.9,1.13-7.45,0.94-24.38-8.21c-1.52,3.06-0.19,6.22,0,9.31c-4.58,3.19-9.8,2.61-14.49,3.75c-10.33,2.5-20.75,4.67-31.2,6.62
		c-5.92,1.11-9.23,4.28-11.06,9.94c-2.05,6.31-5.19,12.24-6.68,18.77c-0.29,1.29-0.88,2.52-1.16,3.81
		c-4.35,20.07,8.74,25.41,23.74,24.67c2.62-0.13,5.22-0.88,7.83-1.29c0.27-0.04,0.6,0.26,1.5,0.7c-0.52,6.8-8,8.92-10.49,14.9
		c7.3,2.52,13.32,7.3,19.96,11.06c6.44,3.65,13.61,4.86,20.33,6.26c0.93,1.92,0.66,3.56-0.49,4.07
		c-7.79,3.43-11.76,10.06-15.31,17.93c19.34-2.65,37.03,1.35,53.28,11.56c11.07,6.96,20.67,15.62,29.32,25.41
		c5.51,6.23,11.16,12.33,16.83,18.41c7.12,7.65,15.12,13.98,25.56,15.99c1.24,8.39-3.3,14.41-7.3,20.16
		c-2.57,3.7-3.29,7.05-2.68,11.07c3.71,24.34,1.12,48.36-3.65,72.26c-2.08,10.45-4.9,20.72-8.65,30.69
		c-3.07,8.16-4.8,16.61-5.73,25.18c-2.14,19.87-6.31,39.37-10.63,58.82c-5.99,26.95-12.99,53.65-21.88,79.81
		c-1.69,4.99-3.55,9.92-5.39,15.03c3.81,3.59,7.48,6.94,11.04,10.39c17.47,16.93,27.83,37.92,34.61,60.92
		c5.94,20.12,9.16,40.85,13.49,61.33c4.47,21.18,10.1,42.02,18.09,62.18c2.96,7.47,6.47,14.64,11.26,21.08
		c7.39,9.94,12.56,21.07,18.05,32.08c9.69,19.42,8.99,39.15,3.07,59.23c-4.06,13.76-10.22,26.7-15.7,39.9
		c-8.16,19.66-16.02,39.45-24.03,59.18c-4.57,11.26-10.97,21.19-20.6,28.9c-4.47,3.58-9.62,5.82-14.39,8.1
		c-1.53,2.5-1.32,4.9-1.02,7.16c2.11,15.48,2.55,31.1,4.09,46.6c1.51,15.22,0.7,30.54,2.95,45.71c0.87,5.89,0.45,11.96,0.72,17.94
		c0.67,14.94,1.22,29.88,2.16,44.8c0.79,12.58,2.1,25.12,3.09,37.68c0.39,4.97,0.53,9.97,0.78,14.95c0.9,17.59,2.42,35.15,2.2,52.81
		c-0.14,11.06,4.06,21.48,6.59,32.12c3.99,16.81,7.93,33.6,8.93,50.96c0.37,6.4,0.35,12.76-1.37,18.79
		c-3.52,12.32-5.66,24.97-10.65,36.95c-7.06,16.94-10.59,34.97-13.92,52.97c-5.73,31.03-10.24,62.25-14.34,93.54
		c-3.93,29.95-7.32,59.96-10.19,90.04c-2.72,28.41-5.69,56.8-8.08,85.25c-1,11.95-1.17,23.89-1.91,35.82
		c-0.83,13.29-0.93,26.57-1.32,39.86c-0.2,6.74,2.04,11.06,7.5,15.01c23.04,16.67,42.44,37.28,61.82,57.93
		c10.93,11.64,21.36,23.8,33.78,33.96c5.95,4.87,12.36,8.98,19.3,12.35c3.83,1.86,7.49,2.39,11.53,1.01
		c19.74-6.74,37.33-0.84,53.95,9.63c12.9,8.13,22.92,19.12,30.27,32.51c1.42,2.58,2.54,4.98,6.21,5.72
		c5.05,1.03,7.87,5.37,8.52,10.12c2.35,17.13,1.05,33.78-8.36,48.96c-0.13,0.21-0.59,0.23-1.62,0.6c-2.58-2.48-0.95-6-1.55-8.93
		c-0.6-2.91-1.19-5.83-1.8-8.85c-1.94-2.06-4.4-0.78-6.5-0.45c-16.72,2.7-33.03,2.26-48.8-4.91c-9.68-4.4-20.05-4.97-30.37-3.17
		c-14.89,2.6-29.86,2.02-44.81,1.76c-8.02-0.14-15.77-2.41-23.23-5.34c-15.01-5.9-30.31-5.91-46.04-3.53
		c-10.48,1.58-21.02,3.31-31.73,3.14c-3.94-0.06-7.91,1.25-11.85,1.17c-16.61-0.33-33.27-0.86-49.32-5.79
		c-17.56-5.4-32.89-14.29-44.01-29.46c-7.92-10.81-11.61-23.03-12.72-36.21c-1.78-21.16,2.17-41.76,6.67-62.2
		c4.07-18.5,7.7-37.06,10.27-55.81c0.94-6.87,1.02-14.06,0.18-20.94c-1.29-10.6-0.94-21.25-1.88-31.82
		c-1.15-12.91-3.84-25.59-6.7-38.24c-7.29-32.24-18.65-63.11-30.9-93.7c-9.53-23.79-18.73-47.7-22.35-73.29
		c-3.67-25.95-2.95-51.67,3.57-77.19c5.63-22.03,13.91-43.02,23.87-63.38c8.19-16.74,16.62-33.36,25.09-50.31
		c-11.5-23.32-23.04-46.54-34.42-69.84c-11.54-23.63-21.81-47.83-31.25-72.36c-9.27-24.09-16.92-48.76-25-73.36
		c-7.24,26.27-13.89,52.3-21.46,78.08c-13.59,46.28-27.95,92.3-44.96,137.45c-3.51,9.32-7.81,18.36-12.18,27.32
		c-1.66,3.42-2.68,6.67-2.56,10.44c0.69,21.39-2.01,42.42-6.28,63.36c-2.01,9.85-5.23,19.27-8.53,28.64
		c-18.58,52.73-35.18,106.07-48.65,160.32c-9.46,38.07-17.02,76.56-24.63,115.04c-3.09,15.65-6.09,31.31-8.89,47.01
		c-1.2,6.74-0.12,12.41,2.68,18.22c2.61,5.42,5.77,10.51,9.4,15.29c11.49,15.09,22.8,30.34,36.52,43.54
		c4.54,4.37,9.51,8.3,14.36,12.34c3.22,2.67,6.83,3.9,11.12,2.85c11.33-2.78,22.38-0.71,33.47,1.86
		c9.96,2.32,17.56,7.67,22.86,16.34c2.04,3.34,3.49,7.05,8.57,7.11c2.27,0.03,3.94,2.49,5.1,4.48c9.42,16.12,12.18,32.87,4.39,50.49
		c-0.67,1.51-1.61,2.92-2.62,4.23c-0.58,0.75-1.55,1.19-2.3,1.74c-4.06-0.89-3.95-5.14-6.64-7.93c-9.36,9.03-20.45,6.94-31.67,4.58
		c-3.25,0.85-4.06,5.36-7.22,5.38c-3.5,0.55-3.94-3.13-6.96-3.11c-6.77,4.49-14.75,5.59-23.32,5.71
		c-19.97,0.28-39.57,2.89-58.85,8.89c-32.67,10.16-65.67,10.05-98.03-1.34c-30.28-10.65-49.7-31.8-55.3-63.81
		c-2.7-15.41-2.02-31.21,0.24-46.77c3.76-26.01,10.68-51.4,15.74-77.16c2.63-13.38,4.74-26.77,5.68-40.42
		c1.12-16.2,3.33-32.33,4.97-48.5c0.47-4.63,0.56-9.3,0.84-13.95c1.35-22.54,2.49-45.1,4.11-67.62c1.57-21.84,3.66-43.65,5.45-65.47
		c0.51-6.24,2.62-12.32,2.12-19.26c-4.89,0.54-7.92,3.78-11.29,6.06c-22.71,15.31-46.61,28.4-72.12,38.41
		c-25.81,10.13-52.34,16.86-80.19,19.15c-22.05,1.81-43.76,0.39-65.55-2.06c-20.45-2.3-40.95-4.3-61.35-7.02
		c-17.25-2.3-34.52-2.34-51.8-1.47c-21.33,1.08-42.1,5.66-62.68,11.17c-3.82,1.02-7.65,2-11.68,3.05
		c-4.32-5.34-5.21-11.72-6.98-17.65c-4.51-15.1-5.59-30.89-5.46-46.34c0.17-20.17,2.68-40.32,8.08-60.04
		c9.31-34.02,24.22-65.42,42.49-95.39c15.99-26.24,34.92-50.22,55.32-73.14c15.51-17.42,31.63-34.28,48.58-50.26
		c14.55-13.73,28.76-27.78,42.67-42.11c21.35-21.99,41.15-45.26,57.15-71.63c17.31-28.52,28.51-59.24,34.79-91.87
		c1.95-10.11,2.67-20.52,4.97-30.45c2.46-10.65,4.93-21.35,7.75-31.94c9.29-34.76,20.46-68.89,36.14-101.34
		c17.33-35.86,39.27-68.63,66.41-97.97c22.1-23.89,46.51-44.72,74.93-60.65c7.8-4.37,15.87-8.24,24.73-12.82
		c-19.66-3.33-33.95-12.72-43.93-30.06c9.65-5.22,19.36-7.5,28.86-10.13c9.18-2.54,18.57-4.33,28.52-6.59
		c-4-5.92-7.52-11.12-11.05-16.33c-2.41,1.22-1,4.75-4.78,5.7c-9.46-3.89-10.54-14.33-14.56-22.83c-4.47,2.23-4.84,7.68-9.88,9.7
		c-1.21-4-0.91-7.92,0.26-11.4c2.62-7.82,1.87-15.78,1.89-23.73c0.01-3.75-1.35-7.16-3.3-10.34c-1.74-2.84-3.35-5.76-5.17-8.55
		c-9.56-14.66-12.76-31.04-14.24-48.21c-2.04-23.62-0.79-47.24-1.15-70.86c-0.39-25.98-0.06-51.98-0.84-77.94
		c-0.67-22.23-2.27-44.44-3.87-66.63c-0.81-11.23-2.47-22.33-6.63-33.03c-5.21-13.4-7.6-27.61-8.51-41.86
		c-1.07-16.83,2.82-33.02,9.32-48.52c10.77-25.69,27.85-46.72,48.39-65.18c11.72-10.53,24.86-18.9,38.62-26.46
		C540.96,512.06,549.65,506.55,558.94,501.01z"/>
</g>
<path class="st0" d="M18.98,1999.24c-3.37-1.78-0.38-5.06-2.93-6.37c-1.89,0.18-1.46,3.08-3.91,2.76c-0.14-0.09-0.91-0.29-1.08-0.73
	c-2.89-7.48-4.45-15.35-5.57-23.21c-4.69-33.05-2.1-65.6,7.29-97.64c10.39-35.44,26.84-67.95,47.01-98.74
	c17.01-25.96,36.37-49.99,57.62-72.6c20.3-21.59,41.8-41.96,62.64-63c23.16-23.37,46.55-46.59,65.33-73.88
	c20.6-29.93,36.02-62.14,43.13-97.93c6.41-32.26,13.09-64.45,22.37-96.04c13.67-46.54,32.22-90.89,59.69-131.13
	c10.5-15.38,22.28-29.67,34.76-43.59c22.43-25.02,47.45-46.49,76.61-63.12c13.02-7.42,26.38-14.13,40.78-18.58
	c3.87-1.19,7.72-1.76,11.74-1.95c31.25-1.54,60.67,6.07,89.3,17.66c16.13,6.53,31.22,14.97,44.76,25.93
	c16.16,13.08,25.71,29.54,28.34,50.74c3.05,24.53,0.68,48.29-4.74,72.11c-5.4,23.72-13.62,46.57-21.12,69.63
	c-7.61,23.42-14.02,47.15-20.28,70.95c-1.15,4.38-0.04,10.32-6.5,12.17c-0.61,0.18-1.17,2.51-0.88,3.61
	c2.61,9.94,0.13,19.81-0.09,29.71c-0.34,15.31-0.09,30.62-0.57,45.94c-0.87,27.92-3.4,55.63-7.33,83.27
	c-4.13,29.05-10.92,57.43-20.24,85.21c-9.88,29.44-23.4,57.22-38.85,84.11c-7.13,12.4-14.43,24.68-22.27,36.64
	c-1.09,1.66-2.34,3.22-3.43,4.72c-1.47,0.17-1.8-0.8-2.5-2.32c-3.24,3.71-4.77,8.09-6.05,12.21c-1.33,4.28-3.4,7.9-5.99,11.35
	c-34.46,45.99-75.46,85.01-124.04,115.88c-9.26,5.89-18.53,11.86-28.28,16.86c-15.57,8-31.23,15.87-47.77,21.85
	c-16.63,6.02-33.61,10.68-51.03,13.35c-18.42,2.83-37,3.67-55.69,2.61c-22.9-1.3-45.55-4.45-68.27-7.37
	c-23.4-3.01-46.93-5.48-70.58-4.14c-18.27,1.03-36.26,4.23-54.01,8.65C30.58,1996.24,24.8,1997.75,18.98,1999.24z M556.76,1779.34
	c5.75-12.19,8.73-26.05,7.49-36.29C562.36,1756.11,558.34,1766.47,556.76,1779.34z"/>
</svg>
