<?xml version="1.0" encoding="utf-8"?>
<!-- Generator: Adobe Illustrator 24.0.2, SVG Export Plug-In . SVG Version: 6.00 Build 0)  -->
<svg version="1.1" id="Layer_1" xmlns="http://www.w3.org/2000/svg" xmlns:xlink="http://www.w3.org/1999/xlink" x="0px" y="0px"
	 width="610.97" height="588.47" viewBox="0 0 610.97 588.47" style="enable-background:new 0 0 610.97 588.47;" xml:space="preserve">
<g>
	<path d="M386.96,398.89c7.71,2.1,9.84,8.32,11.47,14.6c3.92,15.09,3.74,30.27,0.45,45.48c-1.16,5.35-1.88,10.8-2.7,16.22
		c-0.14,0.94-0.08,2.1,0.36,2.9c2.7,4.87,1.15,9.14-1.25,13.63c-4.88,9.16-9.42,18.5-14.07,27.77c-0.36,0.73-0.57,1.53-1.04,2.81
		c1.26-0.11,2.13-0.18,2.99-0.25c2.6-0.23,4.01,1.24,3.55,3.55c-0.64,3.21-1.66,6.41-2.98,9.41c-3.87,8.84-10.93,14.95-18.42,20.57
		c-3.98,2.99-8.36,5.07-13.21,6.7c-5.89,1.97-11.49,5.21-16.69,8.69c-3.63,2.43-7.75,2.16-11.39,3.69
		c-16.75,7.07-34.44,10.06-52.3,11.93c-12.97,1.36-26.15,3.92-38.99-1.13c-1.69-0.66-3.4-1.31-4.99-2.18
		c-6.78-3.7-13.39-7.74-20.3-11.18c-9.18-4.56-16.21-11.59-22.74-19.15c-1.71-1.98-2.09-5.15-2.95-7.82
		c-1.71-5.33-3.26-10.72-5.01-16.04c-1.09-3.31-2.67-6.46-0.62-10.01c1-1.73,0.14-3.07-1.49-4.17c-1.78-1.2-3.31-2.76-5.05-4.04
		c-9.41-6.96-10.9-16.52-8.88-27.16c2.94-15.52,11.54-27.31,24.53-35.93c2.77-1.84,6.22-2.65,9.35-3.94
		c0.37,0.33,0.74,0.66,1.11,0.99c-0.31,1.63-0.36,3.37-0.98,4.87c-1.72,4.13-3.54,8.23-5.58,12.21c-3.41,6.64-3.9,13.6-2.39,20.71
		c0.48,2.23,1.98,4.25,3.41,7.18c3.59-3.09,6.54-5.39,9.2-7.99c5.15-5.01,11.44-7.97,18.07-10.24c5.22-1.78,9.76,0.46,14.03,3.25
		c1.77,1.16,3.39,2.55,5.2,3.93c1.67-5.06,3.17-9.77,4.8-14.42c0.55-1.55,1.32-3.07,2.24-4.43c2.52-3.7,4.73-3.78,8.14-0.99
		c1.98,1.62,4.4,2.7,7.19,4.36c0.67-5.37-1.73-9.07-3.3-12.86c-4.58-11.11-3.69-22.12,0.42-33.01c0.67-1.77,2.94-2.94,4.47-4.39
		c0.31,0.22,0.62,0.43,0.93,0.65c0-1.13,0.25-2.33-0.04-3.38c-2.82-10.42-1.42-20.87,0.1-31.2c1.03-6.98,4.21-13.31,9.52-18.19
		c1.79-1.64,4.21-2.6,7.16-4.36c0.1-0.6,0.54-2.36,0.63-4.15c0.39-7.47,3.94-13.11,9.41-18.01c3.38-3.02,6.15-6.72,9.19-10.12
		c-6.12-5.09-12.23-4.15-18.77-1.48c-3.91,1.59-8.25,2.14-12.42,3.07c-1.45,0.32-2.98,0.27-4.43,0.59
		c-14.89,3.26-29.13,1.41-42.73-5.39c-5.15-2.58-10.22-5.3-16.15-8.38c0.86,2.47,1.27,4.68,2.35,6.5c1.74,2.96,1.65,5.41-0.53,8.09
		c-1.91,2.36-3.47,5.01-5.57,8.09c3.25,1.23,5.67,2.14,8.91,3.37c-4.64,1.99-8.66,1.55-12.38,0.12c-3.85-1.49-6.64-0.32-10.26,2.5
		c4.08,2.17,7.61,4.06,11.76,6.27c-5.15,2.15-9.14,0.25-13.18-1.36c-1.52-0.61-3.04-1.38-4.63-1.59c-0.95-0.12-2.46,0.46-2.9,1.21
		c-0.36,0.61,0.23,2.18,0.88,2.88c1.54,1.69,3.36,3.12,5.28,4.84c-2.83,2.01-5.39,0.71-7.84-0.49c-5.69-2.79-5.95-3.08-10.14,1.86
		c-5.79,6.82-11.16,14.01-16.6,21.12c-2.24,2.93-2.92,6.3-1.75,10.26c6.92,0,13.95,0,20.98,0c0.17,0.33,0.34,0.66,0.51,0.99
		c-1.53,1.32-2.85,3.06-4.61,3.88c-5.57,2.58-11.28,4.85-16.97,7.16c-0.72,0.29-1.74,0.33-2.45,0.06
		c-8.49-3.27-16.52-1.94-23.82,2.3c-4.89-4.26-9.36-8.51-14.2-12.26c-5.79-4.48-11.75-8.78-17.93-12.7
		c-5.16-3.27-10.64-6.08-16.18-8.66c-2.15-1-4.84-0.97-7.31-1.17c-2.35-0.19-4.15-0.84-4.99-3.28c-0.37-1.08-1.27-2-1.59-3.09
		c-3.02-10.28-10.09-18.26-15.37-27.25c-0.34-0.58-0.64-1.19-0.81-1.5c-2.41,0.6-4.09,1.01-5.78,1.43
		c-0.23-0.25-0.46-0.51-0.68-0.76c1.12-1.6,2.25-3.2,3.53-5.03c-6.05-5.29-12.59-3.01-19.76-1.66c5.44-5.97,11.71-8.13,18.7-8.21
		c1.44-0.02,3.17,1.44,4.29,2.65c1.67,1.81,3.25,2.74,5.91,2.85c3.93,0.16,7.84,1.19,11.71,2.08c1.88,0.43,3.03,1.61,2.97,3.96
		c-0.18,6.65,2.45,12.66,4.87,18.67c0.48,1.19,1.39,2.29,2.33,3.19c10.35,9.97,21.49,19.16,33.87,26.25
		c6.1,3.49,14.23,6.88,21.59,2.14c4.52-2.91,9.17-6.68,11.86-11.19c6.62-11.09,12.47-22.69,17.97-34.39
		c3.44-7.32,5.68-15.2,8.45-22.83c0.34-0.93,0.86-1.87,0.91-2.83c0.3-5.73,0.2-11.49,0.77-17.19c1.33-13.31,3.98-20.33,16.64-25.13
		c2.89-1.09,5.59-2.67,8.45-3.84c2.13-0.87,4.34-1.79,6.6-2.09c11.02-1.44,22.08-2.64,33.12-3.99c8.61-1.05,16.79,1.49,25.11,2.85
		c3.09,0.5,6.04,1.35,9.14-0.32c1.32-0.71,3.16-0.47,5.47-0.75c-0.94,2.13-1.58,3.58-2.41,5.46c1.27,0.78,2.6,1.61,4.07,2.52
		c1.76-1.14,3.38-2.19,5.31-3.44c-2.23-6.54,1.01-11.53,4.84-16.82c0.62,1.32,1.11,2.36,1.74,3.68c2.72-1.59,4.53-2.9,3.58-6.39
		c-0.52-1.93,0.51-4.24,0.4-6.35c-0.06-1.26-0.66-3.12-1.57-3.54c-1.21-0.57-3.12-0.4-4.43,0.16c-1.95,0.83-3.48,2.72-5.45,3.38
		c-4.68,1.56-9.57,4.27-14.08-1.04c-2.09,3.15-3.92,5.9-5.75,8.65c-1.14,2.68-4.98-2.91-6.11,2.43c-2.55-1.46-5.03-2.89-7.91-4.53
		c-0.59,1.65-0.95,2.63-1.37,3.82c-2.21-1.17-4.39-2.32-7.01-3.71c-0.29,1.93-0.45,2.99-0.68,4.49c-0.74-0.81-1.44-1.31-1.79-1.99
		c-1.4-2.71-3.75-3.54-6.57-3.64c-1.16-0.04-2.33-0.15-3.48-0.31c-4.21-0.58-8.3-1.1-12.66-0.12c-6.63,1.49-12.9-0.41-18.34-4.38
		c-3.89-2.84-7.55-2.4-11.97-1.25c-3.62,0.95-7.62,1.57-11.55-1.34c-8.38-6.22-17.26-11.77-25.96-17.55
		c-0.81-0.54-1.75-1.01-2.69-1.2c-2.81-0.55-5.76-0.81-5.65-4.77c-4.97-3.43-7.28-10.59-14.94-10.36c-1.63,0.05-4.19-0.87-4.78-2.08
		c-1.42-2.94-3.57-2.95-6.13-2.97c-1.47-0.01-2.96-0.4-4.4-0.79c-4.24-1.14-13.64-8.85-15.65-13.17c4.59-4.39,9.35-8.94,14.43-13.79
		c-0.73-0.78-1.39-1.64-2.21-2.33c-0.75-0.63-1.84-0.92-2.47-1.62c-5.99-6.66-6.05-9.11-0.19-14.6c2.75-2.57,6.12-4.59,9.47-6.36
		c2.25-1.19,2.67-2.42,2.2-4.75c-0.48-2.37-0.48-4.85-0.54-7.28c-0.1-3.65-1.7-6.02-5.02-7.79c-5.25-2.8-10.42-5.85-15.24-9.32
		c-1.83-1.31-3.14-3.93-3.77-6.2c-2.32-8.33-4.85-16.54-9.56-23.9c-0.18-0.28-0.35-0.59-0.4-0.91c-1.5-8.81-3.66-17.57,0.46-26.37
		c1.41-3.02,1.88-6.48,2.74-9.61c-8.67-3.55-13.77-9.34-16.77-17.04c-1.78-4.56-0.42-6.75,4.5-6.66c6.97,0.13,13.96,0.57,20.91,1.22
		c11.43,1.08,22.86,2.25,34.24,3.73c9.71,1.27,19.38,2.92,29.04,4.61c16.7,2.91,33.12,7.02,49.01,12.97
		c10.41,3.9,20.84,7.8,30.93,12.42c10.4,4.77,20.46,10.24,29.52,17.44c5.68,4.52,11.82,8.46,18.55,13.23
		c0.24-2.29,0.55-4.1,0.59-5.91c0.04-1.82-0.48-3.7-0.17-5.45c0.21-1.14,1.46-2.1,2.25-3.14c0.66,0.97,1.58,1.85,1.92,2.91
		c0.88,2.8,1.51,5.67,2.24,8.52c3.95-1.25,5.93-4.83,4.47-8.57s-1.15-7.1,0.48-10.91c0.86,0.77,1.62,1.45,2.36,2.12
		c4.52-3.9,4.71-7.64,2.14-13.13c-2.4-5.13-3.88-10.69-5.75-16.07c-0.11-0.31-0.05-0.68-0.18-0.98c-1.96-4.86-3.46-9.69-1.25-14.96
		c3-7.15,6.24-14.07,14.26-17.93c-2.57,3.82-4.71,7.48-3.34,11.22c2.08,1.9,4.34,3.16,5.25,5.07c0.68,1.43,0.07,3.92-0.76,5.52
		c-1.35,2.61-1.46,5.11-0.5,7.67c1.17,3.11,2.64,5.96,0.72,9.48c-0.72,1.33,0.17,3.53,0.37,5.8c5.69-2.03,7.32,7.08,12.88,4.03
		c0.46-4.76,1.19-9.88,1.32-15.03c0.06-2.19-1.29-4.38-1.75-6.62c-0.38-1.87-1.14-4.14-0.46-5.67c4.19-9.45,9.04-18.94,20.45-24.54
		c-2.55,3.92-1.38,7.21,0.32,10.36c3.05,5.67,0.7,11.67,1.24,17.49c0.67,7.2-2.45,13.18-6.02,19.03c-0.43,0.71-1.26,1.55-1.12,2.17
		c1.16,5.38-3.4,7.81-5.65,11.43c-0.31,0.49-0.27,1.2-0.66,3.08c2.77-1.73,4.69-2.92,7.02-4.37c1.66,3.58-1.86,8.6,3.72,10.82
		c1.76-1.13,3.81-2.45,6.73-4.33c-0.29,2.72-0.23,4.8-0.79,6.69c-0.72,2.49-0.5,4.54,1.31,6.44c2.29,2.39,2.78,5.36,3.48,8.53
		c0.69,3.13,3.24,5.86,5.23,9.18c3.11-3.59,6.38-5.15,10.5-4.82c0.86,0.07,1.94-0.51,2.66-1.1c14.16-11.65,29.49-21.61,45.04-31.26
		c1.98-1.23,3.98-2.49,6.11-3.36c18.71-7.68,37.24-15.64,57.14-20.29c25.5-5.96,51.27-9.89,77.25-12.56
		c12.02-1.24,24.11-3.03,36.87-0.52c-0.37,11.18-7.58,17.05-17.1,21.28c1.35,5.12,2.29,10.01,3.97,14.64
		c1.49,4.13,1.56,8.13,0.56,12.22c-3.49,14.24-8.46,27.96-14.93,41.12c-2.16,4.39-7.31,4.76-10.87,7.31
		c-0.64,0.46-1.59,0.46-2.36,0.76c-6.69,2.57-6.62,2.84-6.88,10.02c-0.14,3.91-0.57,8.06-2.03,11.63c-2.7,6.62-8.31,9.59-15.71,9.67
		c-0.17,1.86-0.24,3.64-0.52,5.39c-0.54,3.43-1.75,6.22-5.47,7.64c-5.33,2.03-7.18,5.82-6.73,11.54c0.09,1.19-0.66,3.06-1.61,3.61
		c-3.28,1.9-6.68,4.13-10.3,4.79c-5.62,1.03-9.39,4.36-12.41,8.47c-4.45,6.06-10.08,9.49-17.48,10.23
		c-3.86,0.39-7.46,1.37-10.54,3.97c-1.2,1.01-2.81,1.53-4.67,2.49c-0.31-1.95-0.52-3.32-0.88-5.57c-1.69,1.41-3.16,2.34-4.23,3.6
		c-4.53,5.35-10.03,9.28-16.82,11c-2.96,0.75-6.2,0.74-9.28,0.54c-3.07-0.19-5.85-1.32-5.58-4.95c-10.05,1.7-19.81,3.34-29.64,5
		c0.58,3.81,1.03,7.64,1.83,11.4c0.17,0.78,1.52,1.62,2.47,1.86c3.86,0.99,7.76,1.87,11.69,2.54c1.55,0.26,3.29,0.17,4.8-0.26
		c3.63-1.05,7.3-0.97,9.86,1.69c3.67,3.81,7.35,2.71,11.17,1.05c6.55-2.84,10.48-1.29,13.76,6.12c-2.74-1.01-5.11-2.54-7.51-2.59
		c-2.31-0.05-4.65,1.44-7.43,2.4c-0.25,0.89-0.52,2.36-1.07,3.72c-1.08,2.65-0.53,4.16,2.54,4.41c0.72,0.06,1.65,0.39,2.07,0.93
		c3.44,4.3,4.16,4.43,8.82,1.26c0.38-0.26,0.84-0.41,1.5-0.72c0.08,0.81,0.36,1.51,0.17,2.06c-1.83,5.27-11.66,8.09-14.92,3.69
		c-5.61-7.56-11.72-6.56-19.31-2.25c0.95-3,0.31-4.87-2.46-4.65c-1.95,0.16-3.86,0.89-6.38,1.51c0.32-1.02,0.55-1.65,0.7-2.29
		c0.15-0.6,0.22-1.22,0.42-2.44c-3.25,0.49-6.1,0.92-9.19,1.38c0.87-1.88,1.57-3.38,2.6-5.58c-2.93,0.33-4.99,0.57-7.97,0.9
		c1.1-1.33,1.7-2.07,2.29-2.79c-0.74-1.46-1.44-2.9-2.18-4.31c-1.58-2.98-2.84-5.93-6.59-7.38c-2.06-0.8-3.26-3.79-5.09-6.08
		c-2.94,2.55-7.38,4.83-6.48,9.04c1.36,6.35,1.22,14.08,9.68,17.39c1.02-1.41,2.07-2.89,3.22-4.48c4.03,3.82,3.85,8.11,3.64,12.48
		c-0.2,4.18-0.62,8.2-5.55,10.36c0.36,0.41,0.71,0.82,1.07,1.22c3.13-0.24,6.26-0.49,9.99-0.78c-1.06-1.95-1.76-3.22-2.59-4.75
		c4.4-0.79,6.56,3.32,10.11,4.54c1.01-1.37,1.96-2.66,2.84-3.84c0.55-0.04,0.96-0.21,1.18-0.07c9.34,5.9,20.55,4.74,30.56,8.14
		c10.05,3.41,20.18,6.56,30.24,9.94c1.86,0.62,3.68,1.58,5.27,2.72c4.03,2.87,7.88,5.99,11.88,8.91
		c7.73,5.64,10.88,13.07,9.35,22.58c-1.21,7.51-2.3,15.05-3.13,22.61c-0.34,3.11-0.32,6.39,0.28,9.45
		c3.4,17.45,7.46,34.72,14.46,51.17c2.71,6.38,8.43,9.77,14.16,11.38c3.87,1.09,9.5-0.72,13.2-3.04c9.7-6.08,19-12.88,28.06-19.91
		c12.68-9.85,13.51-11.55,15.8-28.34c0.42-3.08,1.69-4.75,4.26-5.2c4.32-0.76,8.74-1,13.38-0.56c0.82-1.03,1.95-1.93,2.41-3.1
		c1.69-4.28,5.04-4.54,8.57-3.4c5.4,1.76,11.24,2.82,15.99,8.21c-4.03-0.41-7.16-1.05-10.27-0.97c-3.11,0.07-6.2,0.86-9.86,1.42
		c1.24,2.42,2.23,4.35,3.22,6.27c-0.18,0.3-0.36,0.61-0.54,0.91c-1.56-0.52-3.12-1.04-5.16-1.72c-5.15,7.19-10.85,14.3-14.2,22.92
		c-0.48,1.23-1.1,2.42-1.54,3.66c-1.8,5.17-4.75,8.41-10.9,8.01c-2.1-0.14-4.46,1.25-6.47,2.36c-9.87,5.47-20.03,10.53-29.34,16.84
		c-5.62,3.81-10.08,9.47-14.64,14.67c-1.91,2.19-3.43,2.41-5.45,0.98c-6.21-4.37-12.83-4.77-19.85-2.39
		c-0.91,0.31-2.02,0.43-2.95,0.22c-7.87-1.79-15.29-4.58-21.26-10.3c-0.19-0.18-0.15-0.61-0.3-1.36c7.3-2.05,14.8,0.59,22.84-0.9
		c-0.95-3.95-1.21-8.05-2.91-11.44c-3.93-7.86-8.54-15.38-12.88-23.04c-1.3-2.29-3.14-2.95-5.79-2.53
		c-3.46,0.55-6.99,0.62-10.49,0.89c-0.09-0.47-0.19-0.94-0.28-1.41c2.19-0.96,4.5-1.72,6.53-2.95c0.95-0.57,1.37-2.02,2.02-3.08
		c-1.23-0.52-2.59-1.67-3.67-1.45c-5.62,1.16-11.11,1.09-17.47-0.74c4.58-1.56,8.37-2.85,12.94-4.4c-3.38-3.38-6.64-3.95-10.06-4.28
		c-3.39-0.33-6.77-0.82-10.15-1.24c-0.02-0.5-0.03-1-0.05-1.51c2.57-0.43,5.15-0.87,8.32-1.4c-0.5-1.4-0.71-2.88-1.48-3.97
		c-3.77-5.34-4.87-10.49,0.35-15.62c0.65-0.64,0.92-1.66,1.16-3c-11.87,4.51-24.01,7.58-36.61,6.69
		c-12.46-0.89-24.44-4.47-36.35-9.28c-2.13,6.14,0.6,11.24,1,17.14c2.95-2.43,4.57-0.93,6.54,0.9c7.86,7.31,12,16.16,11.99,26.92
		C386.96,385.58,386.96,392.07,386.96,398.89z M213.55,214.91c0.49-0.09,0.98-0.19,1.47-0.27c6.12-0.93,8.26,0.27,11.44,5.52
		c0.93,1.54,2.73,3.14,4.4,3.53c9.63,2.2,19.34,4.03,27.84,5.75c4.84-3.29,8.86-6.02,13.44-9.13c-1.32-0.37-1.89-0.62-2.48-0.69
		c-8.07-0.93-16.18-1.6-24.21-2.8c-9.17-1.38-18.26-3.21-27.38-4.88c-2.34-0.43-4.37-0.44-4.99,2.49c-4.36,1.91-5.21,4.34-1.93,7.12
		c2.81,2.37,6.26,4.01,9.49,5.85c1.93,1.1,3.49,0.19,4.7-1.4c0.25-0.34,0.24-0.88,0.41-1.6c-1.46-0.42-2.8-0.8-4.22-1.21
		c0.28-3.96-2.26-5.31-5.2-6.42C215.32,216.38,214.48,215.54,213.55,214.91z M105.98,184.92c1.9-3.97,3.42-6.79,4.57-9.75
		c0.44-1.15,0.03-2.63,0.01-3.97c-1.34,0.14-3.01-0.17-3.95,0.52c-1.7,1.24-3.2,2.91-4.34,4.69c-0.97,1.52-2.29,3.86-1.75,5.1
		C101.54,183.88,103.81,185.64,105.98,184.92z M119.26,155.55c-4.28-7.11-7.69-7.23-12.02-0.69
		C111.8,161.09,113.83,161.25,119.26,155.55z"/>
</g>
</svg>
