<?xml version="1.0" encoding="utf-8"?>
<!-- Generator: Adobe Illustrator 23.1.0, SVG Export Plug-In . SVG Version: 6.00 Build 0)  -->
<svg version="1.1" id="Layer_1" xmlns="http://www.w3.org/2000/svg" xmlns:xlink="http://www.w3.org/1999/xlink" x="0px" y="0px"
	 viewBox="0 0 384 681" style="enable-background:new 0 0 384 681;" xml:space="preserve">
<g>
	<path d="M384,437c0,9.67,0,19.33,0,29c-0.63,1.85-1.42,3.65-1.85,5.54c-2.89,12.51-10.25,21.99-20.69,28.87
		c-4.14,2.73-9.36,4.51-14.3,5.19c-6.88,0.94-13.97,0.79-20.94,0.45c-10.8-0.53-19.82-5.2-27.03-13.25
		c-0.73-0.82-1.03-2.03-1.89-3.83c6.72,1.36,10.46-1.5,13.48-5.87c4.78-6.91,2.6-19.49-4.42-25.39c-5.33-4.48-11.53-7.04-18.22-8.82
		c-7.84-2.08-15.96-3.67-21.98-9.89c-0.73-0.76-1.64-1.35-2.69-2.2c-0.52,4.44-0.79,8.39-1.54,12.26c-0.3,1.56-1.31,3.5-2.59,4.25
		c-2.13,1.24-2.31,2.47-1.5,4.46c2.34,5.68,4.12,11.65,7.07,16.98c2.11,3.82,2.66,7.37,1.94,11.41c-0.38,2.13-0.45,4.36-1.17,6.36
		c-1.33,3.67,0.01,6.46,2.28,9.11c4.21,4.9,7.15,10.5,8.2,16.84c1.24,7.52,2.08,15.12,2.89,22.7c0.86,8.05,0.1,16.34,3.68,23.97
		c0.89,1.9,2.31,3.65,0.42,5.92c-0.44,0.52,0.04,2.67,0.73,3.14c3.34,2.24,4,5.96,5.51,9.18c8.04,17.15,16.32,34.2,23.81,51.59
		c2.29,5.32,5.27,7.25,10.31,5.94c9.94-2.57,15.02,2.55,19.57,10.46c3.7,6.44,6.6,12.56,4.34,20.35c-0.42,0-1.04-0.01-1.67,0
		c-6.02,0.08-12.1-0.34-18.05,0.38c-5.22,0.63-10.31,0.51-15.5,0.2c-5-0.3-10.04-0.54-15.03-0.21c-6.14,0.41-12.12,0.11-17.71-1.45
		c-1.11-4.04-2.32-7.67-3.06-11.39c-1.03-5.19-0.02-10.74-4.49-15.2c-1.45-1.45-2.46-3.57-4.32-4.99
		c-4.75-3.61-9.81-6.98-13.88-11.27c-6.51-6.86-11.11-14.89-11.24-24.85c-0.04-3.07,0.33-5.65,4.24-6.68
		c-1.25-3.27-2.46-6.15-3.46-9.1c-1.38-4.07-0.87-4.88,3.22-5.9c1.21-0.3,2.38-0.76,3.82-1.23c-1.62-4.9-5.66-2.06-8.24-3.41
		c-2.49-4.75-5.04-9.62-7.95-15.16c-4.31,6.91-8.26,12.56-15.21,15.54c-0.38-0.95-0.62-1.54-0.84-2.14
		c-3.49-9.26-7.98-17.74-15.52-24.59c-10.1-9.17-19.75-18.84-29.49-28.4c-8.62-8.47-15.78-18.08-20.63-29.16
		c-2.51-5.74-5.52-11.82-5.78-17.86c-0.52-12.07,0.59-24.22,1.24-36.33c0.28-5.08,1.12-10.13,1.7-15.2
		c-0.3-0.06-0.61-0.11-0.91-0.17c-8.15,16.44-16.3,32.88-24.53,49.47c14.23,17.65,26.34,36.67,29.47,60.24
		c1.23,9.27-0.12,17.95-3.2,27.29c-11.47-9.96-24.82-14.48-38.39-19.35c-3.27,5.28-6.52,10.46-9.72,15.68
		c-3.99,6.51-8.52,12.88-5.89,20.82c-2.09,0.82-3.61,1.41-5.13,2.01c0.07,0.4,0.15,0.81,0.22,1.21c2.03,0.26,4.06,0.51,6.94,0.88
		c0,5.52-0.03,10.95,0.02,16.38c0.01,1.41-0.24,3.34,0.54,4.15c5.09,5.24,4.17,11.14,1.56,16.72c-5.44,11.64-11.71,22.75-25.23,26.8
		c0,1.64,0.18,3.27-0.04,4.84c-0.38,2.7-1.23,5.35-1.49,8.06c-0.41,4.29-0.57,8.61-0.68,12.92c-0.07,2.77-0.75,4.74-3.95,5.14
		c-2.45,0.31-4.84,1.15-7.29,1.46c-3.7,0.47-7.45,0.51-11.14,1.04c-3.28,0.47-6.5,1.37-9.75,2.09c-6,0-12,0-18,0
		c-1.71-0.56-3.4-1.31-5.16-1.62c-1.07-0.19-2.28,0.55-3.39,0.43C9.63,679.3,4.82,678.62,0,678c0-3,0-6,0-9
		c0.41-0.64,0.87-1.26,1.24-1.93c2.84-5.23,5.57-10.52,8.51-15.69c1.86-3.26,4.58-5.02,8.64-4.54c2.79,0.33,5.67,0.21,8.49,0.02
		c4.36-0.29,7.96-1.7,9.76-6.33c2.77-7.12,6.42-13.93,8.71-21.18c3.5-11.08,6.16-22.42,9.2-33.64c0.33-1.24,0.51-2.74,1.31-3.59
		c3.24-3.43,4.06-6.87,2.45-10.85c-0.65-1.62-1.21-3.43-1.22-5.15c-0.09-17.8-0.05-35.61-0.05-53.79
		c-14.98-6.83-21.94-19.85-23.69-35.41c-2.32-20.54,0.65-40.44,11.15-58.77c10.45-18.25,22.97-35,36.3-51.23
		c7.02-8.55,15.22-16.36,18.71-27.38c-3.95-4.31-2.72-9.58,3.61-14.68c1.1,0.91,2.22,1.85,3.51,2.92
		c2.54-5.19,5.01-10.22,7.51-15.33c-2.14-0.24-3.97-0.45-5.44-0.62c3.53-17.23,7-33.8,10.29-50.41c1.37-6.93,1.2-6.97-2.95-12.73
		c-3.2,7.69-5.88,15.56-11.07,22.1c-1.39-0.75-2.39-1.29-3.49-1.89c-2.62,2.97-5.12,5.82-7.63,8.66c0.75,1.61,1.2,3.43,0.49,4.4
		c-1.5,2.04-3.32,4.35-5.53,5.25c-3.64,1.47-7.68,2.03-11.6,2.72c-2.8,0.49-5.17-0.17-6.56-3.18c-0.53-1.14-2.08-1.81-3.04-2.59
		c-1.81,1.17-3.18,2.04-4.69,3.02c-7.69-6.79-12.41-15.43-16.94-24.1c-1.8-3.44-3.04-7.44-3.43-11.29
		c-0.88-8.92-0.92-17.92-1.61-26.86c-0.79-10.26-1.71-20.53-6.81-29.98c0.79-0.63,1.51-1.2,2.29-1.83
		c-2.52-4.41-6.03-8.51-3.7-14.03c-4.74-2.25-7.47-10.35-5.07-15.16c-3.76-1.37-4.84-4.62-5.24-8.16c-0.23-1.99,0.75-4.7-0.24-5.92
		c-4.16-5.14-1.72-10.42-0.98-15.64c0.2-1.41,1.31-2.69,1.75-3.54c-1.05-2.37-2.42-4.55-3-6.92c-1.88-7.76-3.49-15.58-5.17-23.38
		c-1.56-7.23-3.07-14.48-4.63-21.8c2.23-0.46,3.95-0.81,6.02-1.24c-1.27-3.6,0.7-8.2-4.69-9.5c-0.45-0.11-0.7-1.41-0.89-2.19
		c-1.6-6.61-3.17-13.23-4.77-19.97c3.94-3.73,8.36-3.48,13.11-2.61c1.3,5.6,2.76,10.89,3.7,16.28c0.94,5.35,1.35,10.8,1.97,16.05
		c3.56-0.21,6.13-0.36,8.74-0.52c0.33,1.11,0.53,1.73,0.69,2.36c5.24,20.71,10.51,41.41,13.9,62.53c0.23,1.44,0.56,3.6,1.5,4.05
		c4.17,1.99,4.92,8.63,11.03,7.97c0.68-0.07,1.69,1.42,2.29,2.35c3.55,5.52,3.9,12.13,5.73,18.21c0.97,3.23-0.51,7.16-0.75,10.78
		c-0.11,1.58-0.03,3.2,0.21,4.77c0.31,2.07,1.25,4.11,1.21,6.16c-0.14,6.61,3.18,11.61,7.04,17.23c2.39-5.39,4.5-10.15,6.71-15.14
		c-0.95-0.54-1.9-1.08-3.05-1.73c0.59-1.41,1.1-2.79,1.74-4.12c5.07-10.67,10.19-21.31,15.2-32.01c0.66-1.41,1.45-3.37,0.96-4.58
		c-1.28-3.13,0-5.57,1.39-7.94c4.98-8.44,11.8-14.71,21.28-17.92c1.75-0.59,3.62-1.89,4.63-3.4c3.14-4.67,7.22-6.65,12.75-5.68
		c0.43,0.08,0.9-0.09,1.48-0.15c-0.81-1.76-1.57-3.38-2.33-5.01c5.51,3.29,7.29,3.25,10.63-0.66c-1.14-0.7-2.3-1.32-3.35-2.08
		c-7.02-5.06-10.5-11.98-10.02-20.58c0.27-4.74,2.01-8.56,7.99-7.8c1.92,0.24,3.89,0.04,6.98,0.04c-2.02-3.77-3.25-6.83-5.13-9.4
		c-6.39-8.75-5.76-18.22-3.91-28.11c1.15,0.09,1.84,0.04,2.46,0.22c5.48,1.55,5.48,1.56,8.81-2.56c3.93-4.86,5.65-5.28,12.3-2.72
		c1.42-1.57,3.23-3.09,4.42-4.99c2.1-3.37,4.67-5.98,8.46-7.35c7.02-2.54,12.39-6.91,15.47-13.92c2.81-6.41,8.28-9.74,14.58-12.01
		c1.17-0.42,2.26-1.09,3.38-1.65c3.33,0,6.67,0,10,0c-1.43,1.7-2.64,3.68-4.35,5.01c-1.94,1.51-4.37,2.38-6.51,3.66
		c-6.36,3.8-12.63,13.74-12.57,19.73c2.4-2.64,4.63-5.56,7.36-7.9c1.51-1.3,3.86-2.21,5.81-2.18c1.13,0.02,2.23,2.26,3.49,3.66
		c5.35-5.16,8.83-12.46,16.97-14.63c7.46-1.99,14.96-3.32,23.4-4.43c-0.85,1.78-1.11,2.75-1.69,3.45c-2.48,3-5.47,5.18-9.27,6.45
		c-3.74,1.25-7.6,2.52-9.6,6.56c-3.17,6.41-6.59,12.69-9.71,19.13c-0.66,1.36-1.1,3.39-0.57,4.65c1.27,3.01,3.15,5.77,4.86,8.58
		c4.92,8.09,9.99,16.05,9.51,26.16c-0.34,7.13-2.84,13.49-7.32,18.7c-4.74,5.51-3.82,11.2-0.42,16.95c0.77,1.31,1.62,2.57,3.07,4.86
		c-2.56-0.54-3.83-0.74-5.06-1.08c-1.17-0.32-2.3-0.79-3.56-1.24c-0.5,7.54,1.62,10.46,8.12,11.64c2.78,0.5,5.56,0.99,8.35,1.4
		c4.34,0.64,7.54,2.59,8.39,7.22c0.82,4.44,3.94,6.93,7.36,9.38c4.16,2.98,8.44,5.95,11.98,9.6c5.02,5.18,9.21,10.99,8.01,19.04
		c-0.25,1.67,0.54,3.59,1.19,5.27c3.89,10.07,7.89,20.1,11.81,30.16c0.47,1.21,1.37,2.78,0.97,3.71c-1.35,3.15,0.38,5.75,0.87,8.58
		c2.31,13.39,4.61,26.78,6.7,40.21c0.2,1.3-1.18,2.81-1.67,4.27c-0.44,1.32-0.68,2.7-1.23,5.01c1.88-0.89,2.7-1.11,3.31-1.59
		c3.01-2.4,5.17-1.04,7.14,1.48c8.55,10.98,14.28,23.17,15.84,37.13c1.64,14.73,4.03,29.28,9.26,43.24
		c0.37,0.97,0.59,2.94,0.27,3.08c-2.28,1.04-0.97,2.25-0.57,3.64c1.62,5.53,3.93,10.36,10.43,11.39c0.15,0.02,0.29,0.16,0.43,0.24
		c21.42,12.42,35.07,30.55,40.34,54.86C382,429.07,383.04,433.03,384,437z M235.25,234.02c-3.51,3.02-6.93,5.9-10.25,8.89
		c-0.53,0.47-0.94,1.49-0.84,2.18c1.18,8.02,1.77,16.22,6.67,23.19c1.09,1.55,2.01,3.22,3,4.83c-0.24,0.31-0.48,0.62-0.72,0.93
		c-2.25-1.09-4.49-2.17-6.89-3.33c0.24,3.69,0.93,7.32,0.62,10.87c-0.5,5.74,0.45,11.16,1.98,16.62c1.51,5.36,2.69,10.82,4.01,16.23
		c-1.38,0.35-2.37,0.6-3.59,0.91c1.2,2.69,2.2,4.94,3.27,7.32c1.35-0.49,2.53-0.91,4.01-1.45c2.02,5.84,6.58,11.02,1.81,17.31
		c1.53,2.76,3.43,5.39,4.52,8.31c1.84,4.9,5.32,8.21,9.84,10c5.82,2.31,11.89,4.14,18,5.49c8.43,1.86,17.04,2.23,26.05,1.51
		c0.33-1.92,0.62-3.6,0.9-5.27c-5.62-1.17-5.1-1.33-6.71-6.66c-1.65-5.49-3.56-11.32-6.96-15.77c-5.73-7.48-12.59-14.12-19.28-20.8
		c-1.85-1.85-2.83-3.49-2.69-5.99c0.47-8.45,0.83-16.91,1.38-25.36c0.23-3.45-3.08-9.72-5.86-9.58c-3.43,0.16-4.85-1.87-6.06-4.22
		c-3.55-6.95-7.09-13.92-10.31-21.02C238.85,244.06,237.06,238.72,235.25,234.02z"/>
</g>
</svg>
