<?xml version="1.0" encoding="utf-8"?>
<!-- Generator: Adobe Illustrator 24.0.2, SVG Export Plug-In . SVG Version: 6.00 Build 0)  -->
<svg version="1.1" id="Layer_1" xmlns="http://www.w3.org/2000/svg" xmlns:xlink="http://www.w3.org/1999/xlink" x="0px" y="0px"
	 viewBox="0 0 228.14 417.82" style="enable-background:new 0 0 228.14 417.82;" xml:space="preserve">
<g>
	<path d="M94.7,341.87c-1.49,1.43-3.06,2.67-4.76,3.76c-0.1,0.06-0.17,0.18-0.28,0.22c-0.57,0.19-1.12,0.86-1.74,0.4
		c-0.68-0.5-0.72-1.39-0.47-2.08c0.5-1.41,0.71-2.88,1.04-4.33c0.18-0.8,0.3-1.63,0.32-2.45c0.03-0.91,0.26-1.83,0.22-2.71
		c-0.13-3.1-0.44-6.17-1.61-9.11c-1.12-2.82-2.67-5.33-4.75-7.51c-0.44-0.46-0.31-1.06-0.75-1.56c-3.81-4.25-7.01-8.95-9.86-13.9
		c-0.6-1.04-1.01-2.21-1.94-3.24c0.27,1.7,0.71,3.21,0.99,4.77c0.38,2.13,0.72,4.25,0.96,6.4c0.32,2.89,0.53,5.77,0.44,8.67
		c-0.08,2.4-0.34,4.79-0.67,7.18c-0.38,2.68-0.97,5.31-1.73,7.9c-0.88,3.01-2.03,5.93-3.48,8.7c-1.82,3.47-3.87,6.81-6.4,9.84
		c-1.83,2.19-3.66,4.37-5.7,6.37c-0.76,0.75-1.65,1.36-2.38,2.15c-0.18,0.19-0.44,0.28-0.71,0.3c-0.68-0.62,0.2-1.15,0.01-1.88
		c-4.89,4.55-10.61,7.61-16.72,10.06c-0.32-0.2-0.64-0.42-0.6-0.89c0.08-1-0.16-1.97-0.23-2.95c-0.28-4.24-1-8.41-2.17-12.49
		c-0.63-2.18-1.26-4.37-2.41-6.34c-1.62-2.77-3.27-5.53-5.03-8.21c-2.26-3.44-4.4-6.95-6.75-10.32c-1.87-2.68-3.49-5.49-4.9-8.43
		c-1.6-3.33-2.69-6.85-3.43-10.44c-0.52-2.53-0.82-5.12-1.05-7.71c-0.3-3.23-0.05-6.45-0.18-9.68c-0.01-0.2,0-0.41,0.07-0.59
		c0.34-0.84,0.13-1.55-0.3-2.33c-1.48-2.68-2.62-5.51-3.75-8.35c-1.32-3.32-2.19-6.77-2.89-10.25c-0.45-2.22-0.85-4.5-0.79-6.8
		c0.02-0.76-0.27-1.46-0.27-2.23c-0.01-3.57,0.24-7.11,0.7-10.66c0.57-4.33,1.64-8.53,3-12.65c1.48-4.47,3.56-8.69,5.68-12.89
		c1.79-3.55,4.12-6.73,6.47-9.92c2.43-3.3,5.21-6.29,8.18-9.1c3.04-2.87,6.38-5.36,9.95-7.53c4.23-2.58,8.77-4.45,13.57-5.9
		c-0.2-1.18-0.39-2.32-0.58-3.45c-0.36-2.08-0.74-4.16-1.1-6.25c-0.31-1.74-0.7-3.46-0.88-5.21c-0.14-1.41-0.52-2.78-0.58-4.21
		c-0.03-0.82-0.2-1.64-0.26-2.47c-0.07-0.98-0.93-1.49-1.67-2.05c0.23-1.13,1.31-1.13,2.03-1.61c-0.65-0.46-1.34-0.95-2-1.41
		c0.05-0.16,0.05-0.27,0.09-0.3c1.64-0.8,2.44-2.14,2.8-3.91c0.42-2.09,1.4-3.99,2.44-5.83c0.57-1.01,0.77-1.99,0.39-3
		c-0.34-0.89,0-1.61,0.27-2.36c0.45-1.25,0.98-2.47,1.43-3.72c0.22-0.61,0.32-1.22,0.29-1.91c-0.09-2.58,0.2-5.14,0.41-7.71
		c0.12-1.5,0.32-2.98,0.49-4.46c0.35-2.97,1.12-5.83,2.06-8.66c0.73-2.2,1.66-4.31,2.89-6.28c0.43-0.69,0.13-1.44-0.03-2.14
		c-0.11-0.52-0.37-1.01-0.57-1.54c1.21-1.01,2.58-1.83,3.45-3.2c0.19-0.3,0.34-0.6,0.46-0.93c1.12-3.15,2.59-6.13,4.55-8.84
		c0.48-0.67,1.01-1.37,1.63-1.87c1.2-0.96,1.05-2.17,0.88-3.36c-0.2-1.43-0.25-2.82,0.03-4.24c0.18-0.92,0.11-1.88,0.23-2.83
		c0.27-2.07,0.78-4.08,1.17-6.11c0.07-0.36,0.07-0.71,0.07-1.07c0-0.35,0.09-0.62,0.44-0.79c0.59,0.17,0.8,0.85,1.47,1.1
		c-0.01-1.75,0.13-3.43-0.28-5.01c0.71-0.38,1.2-0.03,1.62,0.16c0.73,0.32,1.53,0.31,2.27,0.6c0.29,0.11,0.65,0.09,0.86-0.24
		c1.15-1.83,2.96-2.77,4.87-3.66c0.24-2.39-0.53-4.57-1.57-6.65c-0.99-2-2.1-3.92-2.57-6.14c-0.58-2.74-0.41-5.36,0.8-7.91
		c1.61-3.4,3.34-6.73,5.49-9.83c0.94-1.35,1.93-2.77,3.28-3.54c1.19-0.68,0.96-1.48,1.1-2.4c0.24-1.58,0.37-3.2,1.31-4.66
		c0.84-0.08,1.61,0.29,2.43,0.59c0.48-1.56,0.64-3.2,1.25-4.74c0.6-1.53,1.27-3.02,2.08-4.44c-2.02-0.68-4.12-0.96-6.21-1.28
		c-0.69-0.1-1.7-0.8-1.83-1.44c-0.81-4.12-3.54-6.6-7.08-8.45c-2.06-1.07-4.2-1.9-6.47-2.41C71,11,70.77,10.92,70.56,10.83
		c-0.83-0.34-0.88-1.01-0.22-1.65c0.76-0.74,1.73-1.08,2.68-1.41c2.69-0.92,5.48-1.2,8.3-0.97c2.67,0.22,5.07,1.3,7.28,2.78
		c1.25,0.83,2.41,1.8,3.42,2.93c0.34,0.38,0.73,0.53,1.25,0.53c1.91-0.02,3.82-0.11,5.71,0.24c0.96,0.17,1.94,0.26,2.84,0.7
		c0.35-0.21,0.63-0.47,0.85-0.88c-1.78-0.5-3.49-1.11-5.21-1.72c-0.44-0.16-0.61-0.32-0.75-0.76c-0.96-3.16-2.95-5.6-5.52-7.6
		c-0.43-0.34-0.85-0.72-1.05-1.27c-0.28-0.74,0.11-1.3,0.88-1.19c3.33,0.47,6.68,0.88,9.69,2.59c1.37,0.78,2.7,1.59,3.61,2.93
		c0.21,0.3,0.49,0.46,0.9,0.49c0.62,0.05,1.26,0.15,1.83,0.37c0.5,0.19,0.81,0,1.01-0.34c0.82-1.37,1.68-2.68,2.16-4.26
		c0.63-2.1,1.95-2.84,3.59-1.97c0.81,0.43,1.42,1.22,1.97,2.03c1.56,2.32,2.68,4.85,3.55,7.48c4.41,0.12,8.44,1.32,12.25,3.31
		c2.86,1.49,5.03,3.61,6.04,6.76c0.05,0.15,0.15,0.27,0.26,0.47c1.43-0.86,2.69-1.86,3.44-3.41c0.36-0.74,0.62-1.62,1.69-1.57
		c1.03,0.05,1.3,0.96,1.6,1.7c0.62,1.53,0.85,3.16,1.11,4.79c0.28,1.71,0.15,3.41,0.21,5.12c0.04,0.96-0.16,1.88-0.48,2.77
		c-0.2,0.58-0.27,1.13,0.01,1.69c0.9,1.85,1.11,3.89,1.12,5.85c0,2.45-0.43,4.9-1.32,7.25c-0.94,2.47-2.1,4.8-3.6,6.98
		c-0.06,0.08-0.03,0.23-0.04,0.41c0.8,0.55,1.78,0.72,2.67,1.09c1.44,0.59,2.92,1.15,4.43,1.5c1.31,0.31,1.42,1.3,1.49,2.22
		c0.39,4.74-0.71,9.03-4.23,12.42c-1.57,1.52-3.5,2.48-5.67,2.91c-0.36,0.07-0.49-0.13-0.77-0.21c-0.13,0.76-0.68,1.17-1.32,1.49
		c-2.04,1-4.05,2.06-6.19,2.86c-0.58,0.22-1.13,0.52-1.66,0.89c-1.04,0.73-1.32,0.59-1.62-0.69c-0.48-0.18-0.92-0.06-1.35,0.18
		c-0.58,0.32-1.12,0.46-1.44-0.35c-0.18-0.46-0.76-0.37-1.04-0.75c-0.1,1.66-0.36,3.27,0.54,4.85c1.32,0.64,2.9,0.29,4.42,0.51
		c4.05,0.6,7.7,1.88,10.43,5.11c0.51,0.61,0.82,1.33,1.06,2.08c0.32,0.98,0.72,1.89,1.7,2.41c-0.11,0.74-0.82,1.13-0.83,1.96
		c0.29,0.31,0.68,0.74,1.02,1.1c0.01,0.38-0.31,0.3-0.38,0.55c0.92,0.58,1.92,1.01,2.91,1.48c2.16,1.02,4.53,1.21,6.82,1.62
		c2.31,0.41,4.23,1.54,6.2,2.67c2.53,1.44,4.76,3.23,6.73,5.36c2.25,2.44,3.93,5.16,4.42,8.53c0.15,1.01,0.4,2.01,0.43,3.02
		c0.1,3.04-0.62,5.92-1.88,8.67c-1.41,3.06-3.17,5.87-5.6,8.26c-1.87,1.83-4.07,3.05-6.41,4.09c-1.94,0.86-4.03,1.31-6.09,1.64
		c-1.82,0.29-3.71,0.13-5.53-0.69c-0.28,0.82-0.4,1.6-0.4,2.43c0.02,2.15,0.12,4.3-0.23,6.43c-0.36,2.22-1.26,4.2-2.81,5.83
		c-0.43,0.46-0.56,0.9-0.55,1.48c0.01,2.22,0.11,4.43-0.45,6.62c-0.53,2.06-1.02,4.14-2.36,5.82c-0.87,1.09-1.17,2.32-1.22,3.59
		c-0.1,2.42-0.75,4.72-1.3,7.05c-0.41,1.75-1.04,3.44-1.69,5.12c-0.04,0.11-0.15,0.21-0.15,0.32c0.05,2.03-0.29,4.08,0.23,6.1
		c0.23,0.92,1.15,1.17,1.76,1.68c2.26,1.88,4.33,3.92,6.11,6.25c1.5,1.97,2.86,4.07,3.43,6.5c0.38,1.64,1.34,2.74,2.44,3.9
		c2.46,2.61,4.82,5.32,7.04,8.15c2.11,2.7,4.05,5.49,5.59,8.56c0.26,0.52,0.63,0.87,1.15,1.14c0.96,0.5,0.99,0.65,0.56,1.67
		c-0.08,0.18-0.16,0.36-0.22,0.54c-0.02,0.07,0.02,0.15,0.04,0.23c0.06,0.04,0.14,0.12,0.19,0.11c1.43-0.25,1.63-0.07,1.25,1.33
		c-0.37,1.36-0.11,2.49,0.69,3.71c3.65,5.55,6.68,11.41,8.87,17.7c1.16,3.33,2.11,6.71,2.79,10.15c0.39,1.99,0.63,4.04,0.83,6.08
		c0.34,3.35,0.12,6.69,0.17,10.04c0.03,1.83,0.43,3.59,0.68,5.38c0.2,1.44,0.36,2.89,0.54,4.33c0.02,0.16-0.05,0.34,0.01,0.48
		c0.74,1.68-0.2,2.93-1.09,4.18c-1.2,1.69-2.38,3.41-3.63,5.07c-0.8,1.05-0.89,2.33-1.22,3.51c-0.8,2.86-2.09,5.48-3.58,8.01
		c-1.55,2.65-3.41,5.08-5.34,7.45c-0.72,0.88-1.44,1.79-2.28,2.59c-0.86,0.82-1.57,1.83-2.45,2.59c-1.95,1.7-3.66,3.64-5.64,5.3
		c-1.36,1.14-2.67,2.35-4.04,3.49c-0.81,0.68-1.69,1.29-2.47,2.01c-1.4,1.29-2.55,2.81-3.75,4.29c-1.53,1.89-2.97,3.85-4.43,5.8
		c-1.67,2.23-3.12,4.6-4.51,7.01c-1.27,2.21-2.35,4.51-3.19,6.92c-0.46,1.32-0.85,2.64-0.94,4.1c-0.18,2.85-0.26,5.71-0.49,8.54
		c-0.29,3.63-0.2,7.26-0.12,10.88c0.04,1.78-0.01,3.58,0.21,5.35c0.31,2.55,0.29,5.12,0.63,7.67c0.16,1.2,0.3,2.43,0.34,3.77
		c1.16,0.42,2.38,0.83,3.57,1.29c1.61,0.61,3.17,1.33,4.67,2.17c1.12,0.63,1.39,1.77,1.74,2.79c0.97,2.88,2,5.76,2.68,8.73
		c0.11,0.5,0.43,0.75,0.74,1.03c0.7,0.62,1.17,1.38,1.51,2.24c0.24,0.61,0.36,1.21-0.24,1.75c-0.36-0.17-0.71-0.34-1.06-0.5
		c-0.51-0.22-1-0.55-1.57-0.05c-0.17,0.14-0.54,0.07-0.82,0.05c-1.5-0.09-3.02,0.2-4.52-0.21c-0.44-0.12-0.95-0.09-1.45,0.08
		c0.32,0.82,0.31,1.62,0.06,2.4c-0.2,0.13-0.3,0-0.39-0.04c-2-1.09-4.24-0.68-6.35-1.02c-2.17-0.35-4.34-0.67-6.5-1.07
		c-2.82-0.52-5.6-1.16-8.53-1.12c-7.92,0.1-15.84,0.03-23.76,0.05c-0.69,0-1.15-0.24-1.68-0.67c-1.45-1.17-2.08-2.83-2.91-4.39
		c-0.11-0.2-0.02-0.34,0.03-0.54c0.66-2.42,1.12-4.89,1.46-7.36c0.23-1.67,0.41-3.37,0.58-5.05c0.26-2.51,0.24-5.05,0.67-7.54
		c0.01-0.08,0.02-0.16,0.01-0.24c-0.17-2.19,0.29-4.36,0.24-6.55c-0.09-4.23,0.39-8.44,0.25-12.67c-0.08-2.62-0.41-5.24-0.26-7.87
		c0.04-0.73-0.22-1.07-1.02-0.74c-0.63,0.26-0.85-0.08-0.9-0.69c-0.12-1.31,0.23-2.5,0.93-3.69c-0.56-0.02-1.07,0.38-1.68-0.04
		c0.57-1.78,1.18-3.6,2.9-4.69c1.07-0.68,1.78-1.56,2.39-2.63c1.29-2.28,2.76-4.46,3.93-6.81C94.72,342.23,94.87,342.12,94.7,341.87
		z M81.43,154.45c-1.96,2.83-4.13,5.21-6.2,7.72c0.58,1.87,0.81,3.81,1.18,5.8c0.67-0.76,1.03-1.59,1.52-2.34
		c1.27-1.95,2.56-3.89,4.5-5.25c0.46-0.32,0.51-0.77,0.36-1.15C82.24,157.73,82.06,156.13,81.43,154.45z"/>
</g>
</svg>
