<?xml version="1.0" encoding="utf-8"?>
<!-- Generator: Adobe Illustrator 24.0.2, SVG Export Plug-In . SVG Version: 6.00 Build 0)  -->
<svg version="1.1" id="Layer_1" xmlns="http://www.w3.org/2000/svg" xmlns:xlink="http://www.w3.org/1999/xlink" x="0px" y="0px"
	 width="858.76" height="277.76" viewBox="0 0 858.76 277.76" style="enable-background:new 0 0 858.76 277.76;" xml:space="preserve">
<g>
	<g id="POLYLINE_1424_">
		<path d="M672.97,217.8c0.05-6.17,0.95-12.28,2.82-18.16c1.84-5.79,4.57-11.3,8.06-16.28c3.56-5.07,7.9-9.58,12.84-13.32
			c4.86-3.69,10.29-6.63,16.04-8.68s11.8-3.23,17.9-3.46c6.19-0.24,12.41,0.49,18.38,2.15c5.86,1.63,11.46,4.15,16.56,7.46
			c5.16,3.35,9.8,7.49,13.71,12.25c3.91,4.76,7.07,10.11,9.35,15.83c2.25,5.65,3.64,11.63,4.1,17.69
			c0.47,6.17-0.03,12.42-1.47,18.45c-1.42,5.94-3.75,11.65-6.88,16.89c-3.14,5.24-7.07,9.99-11.64,14.04
			c-4.63,4.11-9.9,7.5-15.57,10c-5.56,2.46-11.49,4.06-17.53,4.74c-6.11,0.69-12.33,0.43-18.37-0.77s-11.88-3.33-17.27-6.3
			c-5.33-2.93-10.2-6.68-14.4-11.07c-4.28-4.47-7.86-9.62-10.57-15.18c-2.67-5.49-4.5-11.38-5.4-17.42
			C673.19,223.71,672.97,220.76,672.97,217.8z"/>
	</g>
	<g id="POLYLINE_1423_">
		<path d="M691.32,217.8c0.04-4.29,0.66-8.55,1.97-12.65c1.28-4.01,3.17-7.81,5.59-11.26c2.46-3.51,5.47-6.63,8.89-9.23
			c3.38-2.57,7.15-4.61,11.15-6.04c3.99-1.43,8.19-2.24,12.42-2.4c4.29-0.16,8.61,0.34,12.75,1.49c4.06,1.13,7.93,2.88,11.46,5.16
			c3.6,2.32,6.83,5.21,9.55,8.52c2.7,3.29,4.89,6.99,6.47,10.94c1.57,3.94,2.54,8.1,2.86,12.33c0.33,4.27-0.02,8.6-1.01,12.77
			c-0.98,4.13-2.6,8.1-4.78,11.74c-2.17,3.63-4.91,6.93-8.07,9.74c-3.21,2.85-6.87,5.2-10.8,6.94c-3.85,1.7-7.95,2.81-12.13,3.29
			c-4.25,0.49-8.59,0.3-12.79-0.53c-4.17-0.83-8.22-2.3-11.94-4.35c-3.71-2.05-7.1-4.65-10.04-7.71c-2.97-3.1-5.44-6.66-7.32-10.51
			c-1.86-3.81-3.13-7.91-3.76-12.11C691.47,221.9,691.33,219.86,691.32,217.8z"/>
	</g>
	<g id="POLYLINE_1422_">
		<path d="M696.8,217.8c0.07-7.46,2.31-14.75,6.63-20.85c4.28-6.06,10.42-10.71,17.41-13.19c6.98-2.48,14.67-2.74,21.8-0.75
			c7.1,1.99,13.52,6.17,18.2,11.87c4.68,5.7,7.53,12.81,8.1,20.16c0.57,7.42-1.21,14.94-5.03,21.32c-3.82,6.38-9.61,11.5-16.42,14.5
			c-6.75,2.98-14.36,3.81-21.6,2.38s-13.95-5.12-19.05-10.44c-5.13-5.35-8.52-12.25-9.63-19.57
			C696.94,221.43,696.8,219.61,696.8,217.8z"/>
	</g>
	<g id="POLYLINE_1421_">
		<path d="M714.84,217.8c0.01-3.71,1.16-7.38,3.3-10.42c2.13-3.03,5.2-5.36,8.69-6.61c3.49-1.25,7.34-1.39,10.91-0.4
			c3.58,0.99,6.81,3.09,9.16,5.95c2.35,2.86,3.78,6.42,4.06,10.1c0.28,3.71-0.61,7.47-2.52,10.67c-1.9,3.18-4.79,5.74-8.18,7.24
			c-3.38,1.5-7.19,1.93-10.82,1.22c-3.64-0.71-7.02-2.56-9.59-5.24c-2.56-2.67-4.25-6.11-4.81-9.77
			C714.91,219.63,714.84,218.72,714.84,217.8z"/>
	</g>
	<g id="POLYLINE_1420_">
		<path d="M722.46,217.8c0.01-4.38,2.82-8.38,6.94-9.86c4.12-1.47,8.85-0.17,11.62,3.21c2.78,3.38,3.14,8.27,0.89,12.02
			c-2.25,3.75-6.73,5.74-11.02,4.89c-4.28-0.85-7.65-4.38-8.31-8.68C722.5,218.86,722.46,218.33,722.46,217.8z"/>
	</g>
	<g id="POLYLINE_1419_">
		<path d="M723.85,252.76c-0.74-1.75-0.95-3.52-0.23-5.32c0.67-1.65,2.04-2.77,3.69-3.38c1.54-0.57,3.22-0.66,4.84-0.68
			c1.84-0.03,3.77-0.05,5.57,0.42c1.74,0.46,3.38,1.44,4.24,3.07c0.87,1.65,0.91,3.45,0.31,5.19c-0.08,0.24-0.17,0.47-0.27,0.7"/>
	</g>
	<g id="POLYLINE_1418_">
		<path d="M701.79,236.11c0.71-1.76,1.82-3.16,3.6-3.92c1.64-0.7,3.4-0.51,5,0.22c1.49,0.68,2.74,1.81,3.91,2.94
			c1.33,1.28,2.7,2.64,3.64,4.24c0.91,1.55,1.37,3.41,0.83,5.17c-0.55,1.78-1.8,3.09-3.45,3.89c-0.22,0.11-0.46,0.21-0.69,0.3"/>
	</g>
	<g id="POLYLINE_1417_">
		<path d="M697.96,208.72c1.75-0.74,3.52-0.95,5.32-0.23c1.66,0.67,2.77,2.04,3.38,3.69c0.57,1.54,0.66,3.22,0.68,4.85
			c0.03,1.84,0.05,3.77-0.42,5.57c-0.46,1.74-1.44,3.38-3.07,4.24c-1.65,0.87-3.45,0.91-5.19,0.31c-0.24-0.08-0.47-0.17-0.7-0.27"/>
	</g>
	<g id="POLYLINE_1416_">
		<path d="M714.62,186.66c1.76,0.71,3.16,1.82,3.92,3.6c0.7,1.64,0.51,3.4-0.22,5c-0.68,1.49-1.81,2.74-2.94,3.91
			c-1.28,1.32-2.64,2.7-4.24,3.64c-1.55,0.91-3.41,1.37-5.17,0.83c-1.78-0.55-3.09-1.8-3.89-3.45c-0.11-0.23-0.21-0.46-0.3-0.69"/>
	</g>
	<g id="POLYLINE_1415_">
		<path d="M742,182.84c0.74,1.75,0.95,3.52,0.23,5.32c-0.67,1.65-2.04,2.77-3.69,3.38c-1.54,0.57-3.22,0.66-4.84,0.68
			c-1.84,0.03-3.77,0.05-5.57-0.43c-1.74-0.46-3.38-1.44-4.24-3.07c-0.87-1.65-0.91-3.45-0.31-5.19c0.08-0.24,0.17-0.47,0.27-0.7"/>
	</g>
	<g id="POLYLINE_1414_">
		<path d="M751.23,186.66c-1.76,0.71-3.16,1.82-3.92,3.6c-0.7,1.64-0.51,3.4,0.22,5c0.68,1.49,1.81,2.74,2.94,3.91
			c1.28,1.32,2.64,2.7,4.24,3.64c1.55,0.91,3.41,1.37,5.17,0.83c1.78-0.55,3.09-1.8,3.89-3.45c0.11-0.23,0.21-0.46,0.3-0.69"/>
	</g>
	<g id="POLYLINE_1413_">
		<path d="M767.89,208.72c-1.75-0.74-3.52-0.95-5.32-0.23c-1.66,0.67-2.77,2.04-3.38,3.69c-0.57,1.54-0.66,3.22-0.68,4.85
			c-0.03,1.84-0.05,3.77,0.42,5.57c0.46,1.74,1.44,3.38,3.07,4.24c1.65,0.87,3.45,0.91,5.19,0.31c0.24-0.08,0.47-0.17,0.7-0.27"/>
	</g>
	<g id="POLYLINE_1412_">
		<path d="M764.07,236.11c-0.71-1.76-1.82-3.16-3.6-3.92c-1.64-0.7-3.4-0.51-5,0.22c-1.49,0.68-2.74,1.81-3.91,2.94
			c-1.33,1.28-2.7,2.64-3.64,4.24c-0.91,1.55-1.37,3.41-0.83,5.17c0.55,1.78,1.8,3.09,3.45,3.89c0.22,0.11,0.46,0.21,0.69,0.3"/>
	</g>
	<g id="POLYLINE_1411_">
		<path d="M216.15,236.11c-0.71-1.76-1.82-3.16-3.6-3.92c-1.64-0.7-3.4-0.51-5,0.22c-1.49,0.68-2.74,1.81-3.91,2.94
			c-1.33,1.28-2.7,2.64-3.64,4.24c-0.91,1.55-1.37,3.41-0.83,5.17c0.55,1.78,1.8,3.09,3.45,3.89c0.23,0.11,0.45,0.21,0.69,0.3"/>
	</g>
	<g id="POLYLINE_1410_">
		<path d="M219.97,208.72c-1.75-0.74-3.52-0.95-5.32-0.23c-1.65,0.67-2.77,2.04-3.38,3.69c-0.57,1.54-0.66,3.22-0.68,4.85
			c-0.03,1.84-0.05,3.77,0.42,5.57c0.46,1.74,1.44,3.38,3.07,4.24c1.65,0.87,3.45,0.91,5.19,0.31c0.24-0.08,0.47-0.17,0.7-0.27"/>
	</g>
	<g id="POLYLINE_1409_">
		<path d="M203.31,186.66c-1.76,0.71-3.16,1.82-3.92,3.6c-0.7,1.64-0.51,3.4,0.22,5c0.68,1.49,1.81,2.74,2.94,3.91
			c1.28,1.32,2.64,2.7,4.24,3.64c1.55,0.91,3.41,1.37,5.17,0.83c1.78-0.55,3.09-1.8,3.89-3.45c0.11-0.23,0.21-0.46,0.3-0.69"/>
	</g>
	<g id="POLYLINE_1408_">
		<path d="M194.08,182.84c0.74,1.75,0.95,3.52,0.23,5.32c-0.67,1.65-2.04,2.77-3.69,3.38c-1.54,0.57-3.22,0.66-4.85,0.68
			c-1.84,0.03-3.77,0.05-5.57-0.43c-1.74-0.46-3.38-1.44-4.24-3.07c-0.87-1.65-0.91-3.45-0.31-5.19c0.08-0.24,0.17-0.47,0.27-0.7"/>
	</g>
	<g id="POLYLINE_1407_">
		<path d="M166.7,186.66c1.76,0.71,3.16,1.82,3.92,3.6c0.7,1.64,0.51,3.4-0.22,5c-0.68,1.49-1.81,2.74-2.94,3.91
			c-1.28,1.32-2.64,2.7-4.24,3.64c-1.55,0.91-3.41,1.37-5.17,0.83c-1.78-0.55-3.09-1.8-3.89-3.45c-0.11-0.23-0.21-0.46-0.3-0.69"/>
	</g>
	<g id="POLYLINE_1406_">
		<path d="M150.04,208.72c1.75-0.74,3.52-0.95,5.32-0.23c1.65,0.67,2.77,2.04,3.38,3.69c0.57,1.54,0.66,3.22,0.68,4.85
			c0.03,1.84,0.05,3.77-0.43,5.57c-0.46,1.74-1.44,3.38-3.07,4.24c-1.65,0.87-3.45,0.91-5.19,0.31c-0.24-0.08-0.47-0.17-0.7-0.27"/>
	</g>
	<g id="POLYLINE_1405_">
		<path d="M153.86,236.11c0.71-1.76,1.82-3.16,3.6-3.92c1.64-0.7,3.4-0.51,5,0.22c1.49,0.68,2.74,1.81,3.91,2.94
			c1.33,1.28,2.7,2.64,3.64,4.24c0.91,1.55,1.37,3.41,0.83,5.17c-0.55,1.78-1.8,3.09-3.45,3.89c-0.23,0.11-0.45,0.21-0.69,0.3"/>
	</g>
	<g id="POLYLINE_1404_">
		<path d="M175.93,252.76c-0.74-1.75-0.95-3.52-0.23-5.32c0.67-1.65,2.04-2.77,3.69-3.38c1.54-0.57,3.22-0.66,4.85-0.68
			c1.84-0.03,3.77-0.05,5.57,0.42c1.74,0.46,3.38,1.44,4.24,3.07c0.87,1.65,0.91,3.45,0.31,5.19c-0.08,0.24-0.17,0.47-0.27,0.7"/>
	</g>
	<g id="POLYLINE_1403_">
		<path d="M174.54,217.8c0.01-4.38,2.82-8.38,6.94-9.86c4.12-1.47,8.85-0.17,11.62,3.21c2.77,3.38,3.14,8.27,0.89,12.02
			c-2.25,3.75-6.73,5.74-11.02,4.89c-4.27-0.85-7.65-4.38-8.31-8.68C174.64,219.25,174.49,217.8,174.54,217.8z"/>
	</g>
	<g id="POLYLINE_1402_">
		<path d="M166.92,217.8c0.01-3.71,1.16-7.38,3.3-10.42c2.13-3.03,5.2-5.36,8.69-6.61c3.49-1.25,7.34-1.39,10.91-0.4
			c3.58,0.99,6.81,3.09,9.16,5.95c2.35,2.86,3.77,6.42,4.06,10.1c0.28,3.71-0.61,7.47-2.52,10.67c-1.9,3.18-4.79,5.74-8.18,7.24
			c-3.38,1.5-7.19,1.93-10.82,1.22c-3.64-0.71-7.02-2.56-9.59-5.24c-2.56-2.67-4.25-6.11-4.81-9.77
			C166.99,219.63,166.92,218.72,166.92,217.8z"/>
	</g>
	<g id="POLYLINE_1401_">
		<path d="M148.88,217.8c0.07-7.46,2.31-14.75,6.63-20.85c4.28-6.06,10.42-10.71,17.41-13.19c6.98-2.48,14.67-2.74,21.8-0.75
			c7.1,1.99,13.52,6.17,18.2,11.87s7.54,12.81,8.1,20.16c0.57,7.42-1.2,14.94-5.03,21.32c-3.82,6.38-9.61,11.5-16.42,14.5
			c-6.75,2.98-14.36,3.81-21.6,2.38s-13.95-5.12-19.05-10.44c-5.13-5.35-8.52-12.25-9.63-19.57
			C149.02,221.43,148.88,219.61,148.88,217.8z"/>
	</g>
	<g id="POLYLINE_1238_">
		<path d="M143.4,217.8c0.04-4.29,0.66-8.55,1.97-12.65c1.28-4.01,3.17-7.81,5.59-11.26c2.46-3.51,5.47-6.63,8.89-9.23
			c3.38-2.57,7.15-4.61,11.15-6.04c3.99-1.43,8.19-2.24,12.42-2.4c4.29-0.16,8.61,0.34,12.75,1.49c4.06,1.13,7.93,2.88,11.46,5.16
			c3.6,2.32,6.83,5.21,9.55,8.52c2.7,3.29,4.89,6.99,6.47,10.94c1.57,3.94,2.54,8.1,2.86,12.33c0.33,4.27-0.02,8.6-1.01,12.77
			c-0.98,4.13-2.6,8.1-4.78,11.74c-2.17,3.63-4.91,6.93-8.07,9.74c-3.21,2.85-6.87,5.2-10.8,6.94c-3.85,1.7-7.95,2.81-12.13,3.29
			c-4.25,0.49-8.59,0.3-12.79-0.53c-4.17-0.83-8.22-2.3-11.94-4.35c-3.71-2.05-7.1-4.65-10.04-7.71c-2.96-3.1-5.44-6.66-7.32-10.51
			c-1.86-3.81-3.13-7.91-3.76-12.11C143.55,221.9,143.41,219.86,143.4,217.8z"/>
	</g>
	<g id="POLYLINE_1237_">
		<path d="M125.04,217.8c0.05-6.17,0.95-12.28,2.82-18.16c1.84-5.79,4.57-11.3,8.06-16.28c3.56-5.07,7.9-9.58,12.84-13.32
			c4.86-3.69,10.29-6.63,16.04-8.68s11.8-3.23,17.9-3.46c6.19-0.24,12.41,0.49,18.38,2.15c5.86,1.63,11.46,4.15,16.56,7.46
			c5.16,3.35,9.8,7.49,13.71,12.25c3.9,4.76,7.07,10.11,9.35,15.83c2.25,5.65,3.64,11.63,4.1,17.69c0.47,6.17-0.03,12.42-1.46,18.45
			c-1.42,5.94-3.75,11.65-6.88,16.89c-3.14,5.24-7.07,9.99-11.64,14.04c-4.63,4.11-9.9,7.5-15.57,10
			c-5.56,2.46-11.49,4.06-17.54,4.74c-6.11,0.69-12.33,0.43-18.37-0.77s-11.88-3.33-17.27-6.3c-5.33-2.93-10.19-6.68-14.4-11.07
			c-4.28-4.47-7.87-9.62-10.57-15.18c-2.67-5.49-4.5-11.38-5.4-17.42C125.27,223.71,125.04,220.76,125.04,217.8z"/>
	</g>
	<g id="POLYLINE_1236_">
		<path d="M837.77,210.85c1.03,1.49,3.18,1.04,4.7,1.04c1.54,0,3.9,0.51,5.02-0.94c0.96-1.24,0.5-3.52,0.5-4.93
			c0-4.57,0-9.14,0-13.71c0-1.28,0.27-2.83-0.78-3.79c-0.39-0.36-0.89-0.57-1.42-0.62c-1.38-0.15-2.84-0.01-4.23-0.01
			c-2.02,0-4.04-0.05-6.05,0c-0.52,0.01-1,0.09-1.45,0.38c-1.17,0.75-1.11,1.98-1.11,3.21c0,3.85-0.21,7.76,0,11.6
			c0.03,0.52,0.16,0.94,0.44,1.39c1.02,1.65,2.21,3.22,3.31,4.82C837.05,209.8,837.41,210.33,837.77,210.85z"/>
	</g>
	<g id="POLYLINE_1215_">
		<path d="M349.62,222.01c1.03,0,2.06,0,3.08,0c2.9,0,5.8,0,8.71,0c4.53,0,9.05,0,13.58,0c5.92,0,11.85,0,17.77,0c7,0,14,0,21,0
			c7.93,0,15.86,0,23.79,0c8.53,0,17.05,0,25.58,0c8.9,0,17.8,0,26.7,0c9.06,0,18.11,0,27.17,0c8.9,0,17.79,0,26.69,0
			c8.52,0,17.04,0,25.55,0c7.92,0,15.84,0,23.76,0c7.01,0,14.02,0,21.03,0c5.88,0,11.77,0,17.65,0c4.5,0,9.01,0,13.51,0
			c2.88,0,5.75,0,8.63,0c1,0,2.09,0.13,3.09,0c0.54-0.07,1.01-0.38,1.19-0.92c0.11-0.32,0.07-0.66,0.07-0.99c0-1.03,0-2.07,0-3.1
			c0-2.6,0-5.19,0.2-7.78c0.39-5.28,1.34-10.52,2.85-15.6c1.52-5.11,3.59-10.05,6.16-14.72c2.6-4.71,5.72-9.13,9.27-13.16
			c3.94-4.47,8.42-8.45,13.31-11.84c4.95-3.43,10.3-6.25,15.93-8.38c5.51-2.09,11.27-3.51,17.11-4.23
			c5.89-0.73,11.88-0.75,17.78-0.04c5.92,0.71,11.75,2.12,17.33,4.22c5.59,2.1,10.93,4.9,15.85,8.28
			c4.87,3.34,9.33,7.28,13.26,11.68c3.94,4.42,7.35,9.31,10.13,14.54c2.84,5.33,5.01,11.01,6.46,16.88
			c1.39,5.63,1.93,11.31,2.24,17.09c0.1,1.86,0.16,3.71,0.3,5.57c0.04,0.49,0.11,0.92,0.44,1.31c0.33,0.39,0.79,0.6,1.3,0.64
			c1.42,0.13,2.92-0.02,4.34-0.03c5.9-0.05,11.8-0.16,17.7-0.44c5.92-0.28,11.84-0.69,17.71-1.49c2.75-0.38,5.64-0.6,6.64-3.57
			c0.69-2.07,0.73-4.37,0.81-6.53c0.09-2.54,0.1-5.08,0.12-7.61c0.03-3.71,0.07-7.41,0.08-11.12c0.01-2.03,0.07-4.14-0.38-6.14
			c-0.71-3.15-3.21-4.56-6.2-5.19c-4.08-0.86-8.34-0.62-12.48-0.62c-8.35,0-16.69,0-25.04,0c-4.91,0-9.82,0-14.73,0"/>
	</g>
	<g id="POLYLINE_1214_">
		<path d="M855.34,208.52c1.08,0,2.05-0.15,2.75-1.06c0.68-0.88,0.57-1.93,0.57-2.98c0-3.45,0-6.9,0-10.36
			c0-1.17,0.26-2.68-0.34-3.76c-0.59-1.06-1.65-1.4-2.8-1.4"/>
	</g>
	<g id="POLYLINE_1213_">
		<path d="M847.16,219.57c-1.89,2.35-4.03,4.5-6.64,6.04c-2.68,1.59-5.7,2.4-8.76,2.91c-1.71,0.28-3.43,0.46-5.14,0.68
			c-0.89,0.12-1.84,0.22-2.68,0.56c-1.88,0.77-1.56,3.37-1.59,5.04c-0.05,3.29,0.26,6.72-0.24,9.98c-0.23,1.51-0.93,2.18-2.45,2.33
			c-1.5,0.14-3.03,0.05-4.53,0.06c-1.74,0-3.5,0.07-5.24-0.01c-1.53-0.08-2.06-0.8-2.27-2.28c-0.4-2.79-0.3-5.67-0.31-8.49
			c-0.02-4.71-0.03-9.42-0.05-14.13c0-0.36,0-0.72,0-1.08"/>
	</g>
	<g id="POLYLINE_1211_">
		<path d="M497.52,127.06c1.78,0,2.94-1.46,2.97-3.14c0.06-2.59,0-5.18,0-7.77c0-1.13,0.22-2.53-0.23-3.62
			c-0.72-1.73-2.36-1.82-3.98-1.82c-5.25,0-10.5,0-15.76,0c-4.52,0-9.05-0.05-13.57,0c-1.6,0.02-3.01,0.98-3.2,2.67
			c-0.22,1.96-0.02,4.04-0.02,6c0,1.69-0.27,3.6,0.05,5.27c0.32,1.67,1.77,2.41,3.34,2.41c9.82,0.02,19.64,0,29.46,0
			C496.9,127.06,497.21,127.06,497.52,127.06z"/>
	</g>
	<g id="POLYLINE_1210_">
		<path d="M496.34,122.09c2.19-0.02,1.61-3.08,1.61-4.41c0-1.27-0.63-1.99-1.91-2.01c-6.88-0.08-13.77,0-20.66,0
			c-2.45,0-4.93-0.12-7.38,0c-1.75,0.08-1.72,1.53-1.72,2.92c0,1.43-0.29,3.37,1.64,3.5c2.34,0.16,4.76,0,7.1,0
			c6.96,0,13.91,0,20.87,0C496.04,122.09,496.19,122.09,496.34,122.09z"/>
	</g>
	<g id="POLYLINE_818_">
		<path d="M12.39,161.39c5.07,0,10.13,0,15.2,0c2.97,0,5.95,0,8.92,0c1.03,0,2.21,0.15,3.19-0.25c2.68-1.07,2.17-4.15,2.17-6.46
			c0-6.01,0-12.01,0-18.02c0-0.99,0.13-1.91,0.78-2.7c1.28-1.56,3.15-2.81,4.66-4.13c1.91-1.67,3.9-3.29,5.76-5.03
			c0.79-0.75,1.16-1.65,1.18-2.74c0.05-2.88,0-5.76,0-8.64c0-1.08-0.17-2.07-0.95-2.89c-1.62-1.7-4.83-1.07-6.89-1.07
			c-6.54,0-13.08,0-19.62,0c-5.33,0-10.66,0-16,0c-0.29,0-0.57,0-0.86,0"/>
	</g>
	<g id="POLYLINE_817_">
		<path d="M11.92,154.51c4,0,8,0,12,0c1.37,0,2.75,0.07,4.12,0c0.58-0.03,1.11-0.19,1.56-0.56c1.24-1.03,0.89-2.87,0.89-4.29
			c0-4.54,0-9.08,0-13.62c0-0.6-0.04-1.19,0.21-1.75c0.41-0.92,1.19-1.75,1.77-2.56c1.46-2.04,2.92-4.08,4.37-6.11
			c0.71-0.99,1.57-1.97,2.16-3.04c0.45-0.82,0.32-1.77,0.32-2.67c0-0.82,0.08-1.63-0.36-2.35c-0.66-1.08-1.75-1.16-2.89-1.16
			c-8.44,0-16.89,0-25.33,0c-0.25,0-0.49,0-0.74,0"/>
	</g>
	<g id="POLYLINE_816_">
		<path d="M244.81,222.15c3.73,0.9,7.47,1.8,11.2,2.69c1.98,0.48,4.09,1.25,6.12,1.45c1.43,0.14,2.94,0.01,4.37,0.01
			c3.46,0.01,6.93,0.02,10.39,0.03c5.22,0.01,10.44,0.03,15.66,0.04c6.73,0.02,13.46,0.04,20.19,0.05
			c7.99,0.02,15.98,0.04,23.97,0.06c8.97,0.02,17.95,0.05,26.92,0.07c9.76,0.03,19.53,0.05,29.29,0.08
			c10.25,0.03,20.49,0.05,30.74,0.08c10.55,0.03,21.09,0.05,31.64,0.08c10.57,0.03,21.13,0.05,31.7,0.08
			c10.34,0.03,20.67,0.05,31.01,0.08c9.86,0.03,19.72,0.05,29.58,0.08c9.13,0.02,18.27,0.05,27.4,0.07
			c8.16,0.02,16.32,0.04,24.48,0.06c6.94,0.02,13.87,0.04,20.81,0.05c5.45,0.01,10.9,0.03,16.35,0.04c3.75,0.01,7.5,0.02,11.25,0.03
			c1.78,0.01,3.56,0.01,5.34,0.01c3.95,0.01,7.82-0.8,11.52-2.17c2.89-1.07,5.64-2.45,8.3-3.99"/>
	</g>
	<g id="POLYLINE_815_">
		<path d="M126.12,229.09c-6.13,0-12.25,0-18.38,0c-11.82,0-23.64,0-35.46,0c-7.66,0-15.33,0-22.99,0c-4.35,0-9.62,0-12.46-3.91
			c-0.33-0.45-0.61-0.94-0.85-1.45c-0.23-0.49-0.32-1.35-0.63-1.76c-0.3-0.39-1.91-0.17-2.5-0.19c-0.53-0.02-1.07-0.04-1.6-0.13
			c-1.98-0.36-2.12-2.06-2.21-3.77c-0.05-0.93-0.05-1.87-0.06-2.8"/>
	</g>
	<g id="POLYLINE_786_">
		<line x1="20.68" y1="181.19" x2="19.9" y2="177.74"/>
	</g>
	<g id="POLYLINE_784_">
		<path d="M0.11,205.17c0,2.33,0,4.66,0,6.99c0,1.65-0.29,3.58,0.06,5.21c0.55,2.51,3.3,2.12,5.23,2.12c1.37,0,2.74,0.02,4.1,0
			c0.44-0.01,0.86-0.03,1.28-0.21c1.04-0.43,1.38-1.26,1.68-2.26c0.62-2.04,2.54-1.96,4.29-1.96c5.43,0,10.87,0,16.3,0
			c0.14,0,0.28,0,0.42,0"/>
	</g>
	<g id="POLYLINE_783_">
		<path d="M0.11,210.18c0-4.52,0-9.03,0-13.55c0-2.77,0-5.55,0-8.33c0-0.99-0.1-2.03,0.06-3.01c0.32-2.02,1.93-3.66,3.94-4.03
			c0.94-0.17,1.96-0.08,2.9-0.08c2.61,0,5.22,0,7.83,0c5.2,0,10.4,0,15.59,0"/>
	</g>
	<g id="POLYLINE_782_">
		<path d="M628.94,172.64c0-0.83,0-1.67,0-2.5c0-0.34,0.22-1.87-0.01-2.11c-0.1-0.1-0.82,0-0.95,0c-0.73,0-1.47,0-2.21,0
			c-4.49,0-8.98,0-13.47,0c-0.79,0-1.58,0-2.38,0c-0.21,0-1.03-0.13-1.2,0c-0.21,0.16-0.05,1.33-0.05,1.62c0,0.55,0,1.1,0,1.64
			c0,0.23-0.13,1.06,0,1.25c0.23,0.33,2.07,0.1,2.52,0.1c2.14,0,4.28,0,6.41,0C621.39,172.64,625.17,172.64,628.94,172.64z"/>
	</g>
	<g id="POLYLINE_781_">
		<path d="M95.25,170.96c2.99-6.67,6.6-13.01,10.95-18.9c4.41-5.97,9.51-11.43,15.15-16.25c5.74-4.9,12.04-9.14,18.75-12.6
			c6.65-3.43,13.7-6.09,20.96-7.92c7.11-1.79,14.39-2.75,21.71-2.94c7.19-0.18,14.41,0.46,21.46,1.89
			c7.16,1.45,14.14,3.73,20.78,6.78c6.71,3.09,13.05,6.99,18.84,11.58c5.74,4.55,10.93,9.79,15.42,15.57
			c4.37,5.62,8.08,11.74,11.05,18.2c0.69,1.51,1.34,3.04,1.96,4.58"/>
	</g>
	<g id="POLYLINE_780_">
		<path d="M641.27,170.96c2.51-6.02,5.6-11.77,9.31-17.13c3.86-5.58,8.35-10.73,13.35-15.32c5.11-4.7,10.74-8.82,16.76-12.28
			c6.08-3.5,12.54-6.34,19.23-8.46c6.52-2.07,13.25-3.48,20.06-4.19c6.83-0.71,13.79-0.82,20.64-0.31
			c6.81,0.52,13.56,1.74,20.12,3.66c6.39,1.87,12.59,4.42,18.45,7.58c5.88,3.18,11.43,6.98,16.5,11.33
			c5.04,4.32,9.62,9.17,13.62,14.46c1.04,1.38,2.04,2.78,3.02,4.2"/>
	</g>
	<g id="POLYLINE_779_">
		<path d="M844.03,172.08c1.63-0.62,4.22-0.96,4.3-3.12c0.09-2.3,0-4.63,0-6.93c0-0.62,0.03-1.2-0.31-1.73
			c-0.26-0.41-0.63-0.62-1.04-0.84c-1.09-0.57-2.2-1.12-3.3-1.67"/>
	</g>
	<g id="POLYLINE_778_">
		<path d="M843.31,147.48c1.65-0.63,3.32-0.94,3.34-2.95c0.02-2.22,0-4.44,0-6.67c0-0.59,0.04-1.17-0.26-1.71
			c-0.66-1.16-2.55-1.66-3.65-2.22"/>
	</g>
	<g id="POLYLINE_777_">
		<path d="M842.33,124.8c1.32-0.72,2.85-1.24,2.73-2.96c-0.14-1.92-0.51-3.86-0.77-5.77c-0.1-0.77-0.08-1.73-0.43-2.45
			c-0.44-0.89-1.36-1.08-2.23-1.38"/>
	</g>
	<g id="POLYLINE_776_">
		<path d="M844,170.65c-1.03-3.01-2.9-5.68-6.02-6.71c-2.14-0.71-4.45-0.65-6.67-0.68c-3.42-0.04-6.84-0.05-10.25-0.07
			c-2.64-0.01-5.64,0-7.27-2.42c-0.74-1.1-1.07-2.43-1.26-3.74c-0.43-3.08-0.24-6.25-0.28-9.35c-0.02-1.88,0.08-3.92-0.55-5.72
			c-0.48-1.39-1.43-2.53-2.45-3.57c-1.89-1.92-4.02-3.61-6.08-5.33c-3.1-2.59-6.19-5.18-9.29-7.77c-1.1-0.92-2.3-1.85-3.03-3.1
			c-0.91-1.55-0.85-3.44-0.87-5.18c-0.01-1.25-0.48-4.06,0.73-5.03c0.53-0.42,1.34-0.42,1.98-0.45c1.24-0.05,2.49-0.02,3.74-0.01
			c6,0.06,12,0.14,18,0.24c8.5,0.14,17,0.29,25.5,0.43c0.57,0.01,1.13,0.02,1.7,0.03"/>
	</g>
	<g id="POLYLINE_775_">
		<path d="M842.84,136.04c-3.87,0-7.77-0.14-11.65,0c-1.1,0.04-2.08,0.58-2.52,1.64c-0.26,0.63-0.2,1.29-0.2,1.96
			c0,0.97-0.18,2.11,0.12,3.07c0.34,1.09,1.32,1.78,2.43,1.85c1.92,0.13,3.9,0,5.83,0c2.11,0,4.22,0,6.33,0"/>
	</g>
	<g id="POLYLINE_772_">
		<path d="M831.98,159.03c-4.16-0.05-8.33-0.02-12.49-0.1c-0.84-0.01-2.48,0.2-3.06-0.59c-0.61-0.83-0.61-2.33-0.67-3.3
			c-0.4-5.96,1.15-12.57-2.45-17.79c-2-2.9-4.78-5.19-7.45-7.45c-1.79-1.51-3.59-3.02-5.35-4.56c-1.11-0.97-2.34-1.95-3.27-3.1
			c-1.52-1.89-0.99-5.02-1.02-7.23c-0.01-0.75,0.07-1.39,0.95-1.5c0.98-0.12,2.09,0.03,3.08,0.05c10.33,0.16,20.65,0.32,30.98,0.49
			c0.25,0,0.51,0.01,0.76,0.01"/>
	</g>
	<g id="POLYLINE_771_">
		<path d="M634.3,222.01c0.24-4.31,0.48-8.61,0.73-12.92c0.44-7.83,0.88-15.66,1.32-23.48c0.21-3.8,0.46-7.59,0.64-11.39
			c0.29-6.07,0.53-12.14,0.79-18.21c0.21-4.79,0.47-9.59,0.61-14.39c0.18-6.05,0.34-12.09,0.46-18.14c0.09-4.86,0.1-9.73,0.09-14.6
			c-0.01-5.61,0.06-11.24-0.23-16.85c-0.24-4.7-0.76-9.66-3.49-13.65c-2.63-3.84-6.72-6.62-10.42-9.33
			c-4.23-3.08-8.43-6.2-12.7-9.22c-4.66-3.29-9.3-6.63-14-9.86c-4.94-3.4-9.9-6.76-14.88-10.11c-4.32-2.91-8.71-5.74-13.11-8.51
			c-4.45-2.8-8.95-5.55-13.56-8.08c-4.34-2.38-8.82-4.53-13.49-6.19c-4.55-1.61-9.25-2.67-14.04-3.28c-5.36-0.68-10.77-0.85-16.17-1
			c-3.27-0.09-6.55-0.13-9.82-0.19c-7.41-0.14-14.83-0.27-22.24-0.41c-7.47-0.14-14.93-0.28-22.4-0.42
			c-3.25-0.06-6.49-0.14-9.74-0.18c-4.02-0.04-8.04-0.03-12.06-0.05c-7.82-0.03-15.64-0.07-23.45-0.1
			c-6.27-0.03-12.54-0.06-18.8-0.08c-4.19-0.02-8.38,0.01-12.57,0.02c-4.73,0.01-9.54,0.17-14.19,1.12
			c-3.24,0.66-6.65,1.78-8.82,4.42c-2.46,3-3.11,7.09-3.5,10.84c-0.59,5.73-0.59,11.53-0.79,17.28c-0.11,3.04-0.21,6.07-0.3,9.11
			c-0.22,6.89-0.43,13.77-0.65,20.65c-0.24,7.75-0.49,15.51-0.73,23.26c-0.13,4.09-0.28,8.18-0.39,12.26
			c-0.13,5.06-0.17,10.13-0.21,15.2c-0.04,4.9-0.06,9.79,0.01,14.69c0.08,5.7,0.17,11.39,0.31,17.08c0.14,5.65,0.32,11.3,0.51,16.95
			c0.14,3.96,0.28,7.93,0.46,11.89c0.33,7.5,0.67,15,1,22.5c0.2,4.46,0.4,8.92,0.6,13.39"/>
	</g>
	<g id="POLYLINE_770_">
		<path d="M817.59,103.21c-5.33-0.78-10.66-1.62-16-2.32c-6.45-0.85-12.9-1.69-19.37-2.45c-5.33-0.62-10.68-1.16-16.03-1.62
			c-5.78-0.49-11.56-0.98-17.35-1.35c-6.32-0.4-12.65-0.75-18.98-1.07c-5.65-0.29-11.3-0.53-16.95-0.74
			c-5.77-0.22-11.53-0.4-17.29-0.55c-6.21-0.16-12.42-0.28-18.64-0.38c-5.16-0.08-10.32-0.13-15.48-0.1
			c-6.41,0.03-12.82,0.08-19.22,0.17c-1.17,0.02-2.35,0.03-3.52,0.05"/>
	</g>
	<g id="POLYLINE_769_">
		<path d="M841.74,178.69c2.56,0.01,2.39-2.85,2.35-4.7c-0.14-5.83-0.3-11.65-0.45-17.48c-0.13-4.8-0.36-9.6-0.55-14.39
			c-0.17-4.37-0.37-8.74-0.57-13.11c-0.24-5.17-0.44-10.34-0.78-15.5c-0.2-3.05-0.29-6.54-1.95-9.23c-1.93-3.12-5.42-5.31-8.54-7.08
			c-3.92-2.23-8.11-3.88-12.45-5.09c-4.7-1.3-9.51-2.16-14.32-2.95c-4.76-0.78-9.56-1.4-14.35-1.99c-5.26-0.64-10.53-1.17-15.8-1.73
			c-3.79-0.4-7.59-0.73-11.38-1.08c-6.77-0.62-13.54-1.23-20.31-1.85c-3.02-0.27-6.05-0.52-9.07-0.76
			c-6.78-0.54-13.56-1.08-20.34-1.62c-4.28-0.34-8.57-0.62-12.86-0.9c-4.41-0.29-8.89-0.59-13.31-0.4
			c-4.29,0.19-8.52,0.87-12.84,0.91c-4.81,0.05-9.63,0.02-14.44,0.03c-6.7,0.01-13.4,0.03-20.1,0.04c-1.18,0-2.36,0.01-3.55,0.01"/>
	</g>
	<g id="POLYLINE_768_">
		<path d="M454.11,222.01c0.09-5.98,0.18-11.97,0.27-17.96c0.14-9.4,0.28-18.8,0.42-28.2c0.08-5.11,0.11-10.22,0.12-15.34
			c0.03-7.22,0.01-14.44-0.03-21.66c-0.03-6.05-0.08-12.1-0.25-18.14c-0.2-7.09-0.48-14.17-0.72-21.26
			c-0.28-8.13-0.55-16.25-0.83-24.38c-0.21-6.26-0.29-12.52-0.43-18.78c-0.15-6.83-0.11-13.67-0.16-20.5
			c-0.05-7.15,0.09-14.3,0.14-21.44c0.01-0.9,0.01-1.81,0.02-2.71"/>
	</g>
	<g id="POLYLINE_767_">
		<path d="M349.62,222.01c-2.86-0.02-6-0.31-8.41-2.03c-1.57-1.12-2.55-2.79-3.09-4.62c-1.08-3.64-1.12-7.69-1.42-11.45
			c-0.35-4.29-0.59-8.58-0.79-12.87c-0.23-5.04-0.4-10.07-0.57-15.11c-0.15-4.59-0.19-9.19-0.27-13.79
			c-0.04-2.34-0.08-4.68-0.09-7.02c-0.02-4.49-0.04-8.98-0.06-13.46c-0.03-6.49-0.06-12.99-0.09-19.48
			c-0.03-6.4-0.06-12.79-0.09-19.18c-0.02-4.1-0.04-8.19-0.05-12.29c0-0.51,0.14-1.27-0.1-1.7c-0.25-0.46-0.86-0.89-1.22-1.26
			c-0.55-0.57-1.11-1.14-1.66-1.72c-0.3-0.31-0.74-1-1.14-1.16c-0.51-0.2-1.51,0-2.05,0c-1.74,0-3.48,0-5.21,0c-2.7,0-5.39,0-8.08,0
			c-3.57,0-7.14,0-10.71,0c-4.31,0-8.62,0-12.93,0c-4.97,0-9.93,0-14.9,0c-5.55,0-11.1,0-16.65,0c-5.98,0-11.96,0-17.93,0
			c-6.36,0-12.73,0-19.09,0c-6.59,0-13.17,0-19.76,0c-6.74,0-13.48,0-20.22,0c-6.83,0-13.65,0-20.48,0c-6.75,0-13.49,0-20.24,0
			c-6.6,0-13.2,0-19.8,0c-6.38,0-12.76,0-19.14,0c-6,0-12,0-18,0c-5.55,0-11.1,0-16.65,0c-5.02,0-10.05,0-15.07,0
			c-4.35,0-8.7,0-13.05,0c-3.6,0-7.2,0-10.79,0c-2.76,0-5.52,0-8.28,0c-1.79,0-3.58,0-5.38,0c-0.74,0-1.48-0.02-2.23,0
			c-1.16,0.04-2.21,0.57-2.81,1.59c-0.51,0.86-0.48,1.87-0.55,2.84c-0.17,2.26-0.28,4.52-0.38,6.79c-0.19,4.39-0.25,8.78-0.25,13.17
			c0.01,4.46,0.08,8.93,0.24,13.39c0.16,4.46,0.39,8.92,0.64,13.38c0.23,4.09,0.47,8.18,0.73,12.27c0.32,4.95,0.61,9.9,0.97,14.85
			c0.17,2.26,0.36,4.52,0.62,6.77c0.19,1.65,0.38,3.37,0.94,4.95c0.74,2.05,2.5,2.54,4.51,2.78c2.03,0.24,4.09,0.23,6.13,0.24
			c1.24,0.01,3-0.26,4.15,0.4c0.7,0.4,1.06,1.16,1.3,1.9c0.5,1.56,0.64,3.26,0.79,4.88c0.38,4.13,0.55,8.29,0.76,12.43
			c0.25,4.81,0.4,9.63,0.78,14.44c0.08,1.04,0.14,2.26,0.89,3.07c0.6,0.65,1.48,0.86,2.31,1.03c2.89,0.59,5.88,0.76,8.82,0.98
			c4.08,0.31,8.17,0.62,12.25,0.93c6.43,0.49,12.87,0.98,19.31,1.47c6.34,0.48,12.68,0.96,19.01,1.44c3.89,0.3,7.78,0.59,11.68,0.89
			c1.32,0.1,2.69,0.17,3.35-1.3c0.41-0.92,0.16-2.06,0.14-3.02c-0.04-2.23,0.02-4.46,0.19-6.68c0.32-4.4,1.04-8.78,2.14-13.05
			c1.14-4.42,2.69-8.73,4.62-12.86c1.86-3.98,4.08-7.8,6.62-11.39c2.54-3.6,5.41-6.97,8.56-10.06c2.88-2.83,5.99-5.42,9.3-7.74
			c3.32-2.33,6.83-4.39,10.48-6.14c3.71-1.78,7.57-3.25,11.52-4.39c3.94-1.14,7.98-1.95,12.05-2.41c4.16-0.48,8.35-0.6,12.53-0.37
			c4.02,0.22,8.03,0.78,11.96,1.65c4.03,0.9,7.98,2.13,11.8,3.68c3.83,1.56,7.53,3.44,11.04,5.61c3.45,2.13,6.72,4.55,9.77,7.22
			c3.16,2.77,6.08,5.8,8.73,9.06c2.81,3.46,5.3,7.18,7.44,11.09c2.17,3.96,3.97,8.12,5.38,12.4c1.39,4.23,2.4,8.58,3,12.99
			c0.61,4.45,0.71,8.87,0.62,13.35c-0.03,1.45,0.89,2.56,2.39,2.62c2.51,0.1,5.04,0,7.55,0c5.51,0,11.02,0,16.53,0
			c6.69,0,13.37,0,20.06,0c6.13,0,12.25,0,18.38,0c3.82,0,7.64,0,11.46,0c1.3,0,2.69,0.16,3.46-1.17c0.29-0.5,0.33-1.01,0.29-1.58
			c-0.15-2.24-0.38-4.47-0.58-6.7"/>
	</g>
	<g id="POLYLINE_766_">
		<path d="M681.85,79.36c-6.26-4.29-12.52-8.59-18.82-12.82c-6.91-4.64-13.84-9.24-20.79-13.81c-6.18-4.06-12.42-8.02-18.68-11.96
			c-6.41-4.04-12.82-8.06-19.3-11.96c-7.3-4.39-14.63-8.71-21.99-12.99c-0.47-0.27-0.93-0.54-1.4-0.81"/>
	</g>
	<g id="POLYLINE_765_">
		<path d="M692.59,93.02c-6.18-2.55-12.19-5.62-17.49-9.74c-1.39-1.08-2.71-2.24-3.98-3.46"/>
	</g>
	<g id="POLYLINE_764_">
		<path d="M650.28,79.86c-3.78-2.65-7.56-5.31-11.35-7.96c-6.4-4.49-12.8-8.99-19.21-13.48c-2.65-1.86-5.29-3.73-7.96-5.56
			c-6.03-4.14-12.06-8.28-18.09-12.41c-4.08-2.8-8.19-5.56-12.31-8.31c-4.36-2.91-8.78-5.76-13.23-8.54
			c-4.44-2.78-8.92-5.51-13.52-8.03c-4.41-2.42-8.96-4.56-13.89-5.71c-5.15-1.21-10.48-1.49-15.75-1.71
			c-3.88-0.17-7.77-0.27-11.66-0.33c-6.52-0.1-13.03-0.21-19.55-0.31c-7.77-0.12-15.54-0.25-23.3-0.37
			c-3.12-0.05-6.25-0.12-9.37-0.15c-4.81-0.04-9.63-0.07-14.44-0.1c-8.03-0.06-16.06-0.11-24.09-0.17
			c-5.72-0.04-11.45-0.08-17.17-0.12c-4.23-0.03-8.45-0.01-12.68,0c-5.66,0-11.31,0.01-16.97,0.09c-5.23,0.08-10.46,0.19-15.67,0.56
			c-5.23,0.38-10.49,1.08-15.37,3.11c-2.11,0.88-4.1,1.99-5.98,3.28"/>
	</g>
	<g id="POLYLINE_763_">
		<path d="M511.12,91.86c4.49,0.1,9.07,0.68,13.14,2.68c5.76,2.83,11.49,5.72,17.24,8.58c1.63,0.81,3.19,1.62,4.95,2.13
			c2.27,0.65,4.64,0.98,6.99,1.14c3.23,0.23,6.5,0.14,9.74,0.14c6.7,0,13.39,0,20.09,0c8.15,0,16.29,0,24.43,0
			c5.88,0,11.75,0,17.62,0c1.74,0,4.01,0.33,5.54-0.69c2.05-1.36,1.64-4.47,1.38-6.52c-0.61-4.98-1.3-10.21-2.99-14.95
			c-1.49-4.16-4.41-7.24-7.72-10.07c-3.94-3.37-8.15-6.46-12.34-9.5c-4.64-3.37-9.31-6.7-14.04-9.96
			c-4.42-3.05-8.88-6.05-13.38-8.99c-4.76-3.11-9.53-6.2-14.36-9.19c-4.72-2.92-9.49-5.75-14.36-8.42c-4.6-2.52-9.34-4.79-14.2-6.78
			c-4.76-1.95-9.68-3.2-14.78-3.83c-5.4-0.67-10.84-0.8-16.27-0.84c-2.03-0.01-4.07,0-6.1,0c-5.24,0-10.48,0-15.72,0
			c-7.36,0-14.73,0-22.09,0c-8.25,0-16.49,0-24.74,0c-7.89,0-15.78,0-23.67,0c-6.29,0-12.58,0-18.88,0c-3.45,0-6.91,0-10.36,0
			c-3.03,0-6.13,0.13-8.98,1.25c-2.46,0.97-4.4,2.73-5.42,5.19c-1.48,3.58-1.65,7.54-1.65,11.36c0,6.57,0,13.15,0,19.72
			c0,6.1-0.01,12.2,0,18.31c0,2.8-0.19,5.91,1.42,8.35c2.09,3.16,6.04,4.98,9.37,6.48c4.66,2.1,9.64,3.33,14.71,3.93
			c3.44,0.41,6.89,0.5,10.35,0.5c4.03,0,8.05,0,12.08,0c6.93,0,13.86,0,20.79,0c8.2,0,16.4,0,24.6,0c7.86,0,15.72,0,23.58,0
			c5.82,0,11.64,0,17.46,0C506.76,91.86,508.94,91.86,511.12,91.86z"/>
	</g>
	<g id="POLYLINE_762_">
		<path d="M472.2,88.03c-0.34-8.57-0.71-17.14-0.97-25.71c-0.28-8.97-0.54-17.95-0.66-26.92c-0.07-4.93-0.07-9.86-0.11-14.8"/>
	</g>
	<g id="POLYLINE_761_">
		<path d="M435.89,88.03c-0.22-8.57-0.46-17.14-0.6-25.72c-0.15-8.97-0.28-17.95-0.27-26.92c0.01-4.93,0.07-9.86,0.11-14.79"/>
	</g>
	<g id="POLYLINE_760_">
		<path d="M616.2,93.07c-0.01-3.61-0.01-7.21-0.04-10.82c-0.02-2.43,0.05-5.03-0.58-7.4c-0.97-3.63-4.45-6.19-7.75-7.61
			c-2.36-1.01-4.88-1.04-7.4-1.04c-2.22,0-4.44,0-6.66-0.01c-0.99,0-2-0.04-2.98,0.11c-3.46,0.51-3.78,4.33-4.02,7.2
			c-0.29,3.41-0.26,6.85-0.26,10.28c-0.01,2.87-0.11,5.86,0.48,8.69c0.72,3.45,3.26,5.95,6.2,7.74c4.63,2.81,9.98,2.45,15.2,2.34
			c3.97-0.09,8.43-0.01,11.55-2.85c3.08-2.81,4.49-7.53,3.84-11.6c-0.41-2.57-1.96-4.35-4.45-5.09c-1.02-0.3-2.09-0.45-3.15-0.54"/>
	</g>
	<g id="POLYLINE_759_">
		<path d="M598.54,66.19c0-1.26,0-2.52,0-3.78c0-0.42,0.03-0.44-0.19-0.7c-0.33-0.4-1.01-0.7-1.43-1c-1.9-1.32-3.8-2.65-5.71-3.95
			c-3.53-2.41-7.07-4.8-10.65-7.13c-4.18-2.72-8.35-5.45-12.56-8.11c-3.71-2.34-7.47-4.62-11.26-6.83
			c-3.66-2.13-7.38-4.17-11.19-6.03c-3.78-1.85-7.64-3.63-11.63-4.98c-3.85-1.3-7.85-2.02-11.89-2.44
			c-4.33-0.45-8.7-0.61-13.05-0.63c-1.67-0.01-3.34-0.01-5.01-0.01c-3.53,0-7.06,0-10.6,0c-5.28,0-10.57,0-15.85,0
			c-6.36,0-12.72,0-19.08,0c-6.76,0-13.53,0-20.29,0c-6.49,0-12.98,0-19.48,0c-5.55,0-11.09,0-16.64,0c-3.93,0-7.86,0-11.79,0
			c-1.64,0-3.27,0-4.91,0c-2.45,0.01-5.13,0.15-7.36,1.29c-1.97,1-2.71,2.72-3.21,4.78c-0.77,3.15-0.75,6.32-0.75,9.55
			c0,5.42,0,10.83,0,16.25c0,5.64,0,11.28,0,16.92c0,1.27,0,2.54,0.01,3.82c0.01,1.47-0.08,3.02,0.27,4.46
			c0.57,2.33,3.3,3.74,5.21,4.78c3.56,1.93,7.36,3.36,11.31,4.23c3.99,0.88,8.07,1.27,12.15,1.35c1.75,0.04,3.51,0.02,5.26,0.02
			c3.84,0,7.68,0,11.52,0c5.68,0,11.35,0,17.03,0c6.62,0,13.24,0,19.86,0c6.68,0,13.35,0,20.03,0c5.85,0,11.69,0,17.54,0
			c4.13,0,8.25,0,12.37,0c1.57,0,3.14-0.02,4.71,0c4.09,0.06,8.25,0.58,12.11,1.98c3.88,1.41,7.56,3.59,11.25,5.42
			c2.78,1.39,5.57,2.77,8.35,4.16c1.14,0.57,2.27,1.24,3.49,1.63c3.54,1.13,7.52,0.95,11.18,0.96c3.62,0.01,7.25,0,10.87,0
			c6.53,0,13.06,0,19.59,0c3.33,0,6.66,0,9.99,0"/>
	</g>
	<g id="POLYLINE_758_">
		<path d="M24.52,215.07c0,4.09,0.11,8.19,0,12.27c-0.03,1.18-0.73,2.16-1.97,2.29c-1.33,0.13-2.73,0.01-4.06,0.01
			c-2.8,0-5.6,0-8.4,0c-1.33,0-2.73,0.13-4.06-0.01c-0.62-0.06-1.18-0.35-1.56-0.85c-0.46-0.63-0.42-1.33-0.42-2.07
			c0-2.4,0-4.8,0-7.2"/>
	</g>
	<g id="POLYLINE_626_">
		<path d="M330.59,84.87c0.61-6.74,1.21-13.49,1.82-20.23c0.49-5.44,1.05-10.86,1.61-16.29c0.61-5.81,1.22-11.62,1.99-17.41
			c0.77-5.85,1.52-11.74,2.78-17.51c0.71-3.22,1.68-6.66,4.46-8.71c3.67-2.71,8.92-3.3,13.32-3.8c5.37-0.62,10.8-0.83,16.21-0.85
			c5.3-0.02,10.6-0.07,15.9-0.06c6,0.01,12.01,0.02,18.01,0.03c8.83,0.01,17.66,0.03,26.48,0.04c5.34,0.01,10.69,0.01,16.03,0.02
			c4.67,0.01,9.33,0.1,14,0.16c7.7,0.09,15.41,0.18,23.11,0.27c5.58,0.06,11.16,0.27,16.73,0.41c5.57,0.15,11.13,0.38,16.69,0.66
			c5.79,0.29,11.57,0.67,17.34,1.23c5.92,0.57,11.84,1.26,17.71,2.3c5.8,1.03,11.58,2.33,17.14,4.33c2.47,0.89,4.91,1.91,7.21,3.2
			c0.35,0.2,3.69,1.9,2.08,2.3c-0.97,0.25-2.16,0.1-3.14,0.1c-1.42,0-2.84,0.01-4.27,0.04c-2.88,0.06-5.77,0.21-8.63,0.5
			c-2.77,0.28-5.52,0.7-8.25,1.26"/>
	</g>
	<g id="POLYLINE_601_">
		<path d="M511.12,91.86c-2.34,0-4.67,0-7.01,0c-5.92,0-11.84,0-17.76,0c-7.9,0-15.81,0-23.71,0c-8.18,0-16.36,0-24.55,0
			c-6.85,0-13.71,0-20.56,0c-3.89,0-7.78,0-11.67,0c-3.61,0-7.21-0.12-10.79-0.58c-5.02-0.65-9.94-1.94-14.54-4.07
			c-3.24-1.5-7.08-3.32-9.03-6.49c-1.51-2.46-1.27-5.58-1.27-8.35c0-6.32,0-12.65,0-18.97c0-6.37,0-12.74,0-19.11
			c0-3.77,0.19-7.77,1.74-11.28c1.09-2.48,3.14-4.19,5.67-5.11c2.83-1.03,5.84-1.12,8.82-1.12c3.58,0,7.15,0,10.73,0
			c6.37,0,12.74,0,19.11,0c7.92,0,15.85,0,23.77,0c8.27,0,16.54,0,24.8,0c7.3,0,14.6,0,21.91,0c5.13,0,10.26,0,15.39,0
			c2.17,0,4.34-0.01,6.51,0.01c5.38,0.04,10.78,0.21,16.12,0.93c5.12,0.69,10.01,2.05,14.78,4.03c4.82,2,9.51,4.29,14.08,6.81
			c4.92,2.71,9.74,5.6,14.51,8.55c4.83,2.99,9.58,6.09,14.33,9.2c4.51,2.95,8.97,5.98,13.41,9.04c4.64,3.2,9.21,6.47,13.76,9.79
			c4.15,3.02,8.33,6.09,12.21,9.45c3.32,2.87,6.13,6.02,7.54,10.25c1.62,4.83,2.38,10.13,2.92,15.18c0.21,1.98,0.39,4.76-1.63,5.94
			c-1.62,0.94-4.02,0.59-5.8,0.59c-6.01,0-12.02,0-18.02,0c-8.16,0-16.32,0-24.47,0c-6.58,0-13.15,0-19.73,0
			c-3.26,0-6.54,0.09-9.79-0.19c-2.38-0.2-4.77-0.56-7.04-1.29c-1.73-0.55-3.31-1.43-4.93-2.23c-5.57-2.77-11.13-5.59-16.72-8.32
			C520.14,92.52,515.58,91.96,511.12,91.86z"/>
	</g>
	<g id="POLYLINE_592_">
		<path d="M580.87,15c2.18-0.19-0.98-1.91-1.52-2.21c-2.41-1.37-4.99-2.45-7.6-3.39c-5.75-2.05-11.75-3.41-17.77-4.41
			c-6.22-1.04-12.49-1.79-18.77-2.33c-6.6-0.57-13.22-0.94-19.84-1.28c-6.15-0.31-12.3-0.44-18.45-0.6
			c-5.21-0.14-10.42-0.25-15.63-0.31c-8.79-0.1-17.58-0.2-26.36-0.31c-3.3-0.04-6.6-0.06-9.9-0.07c-8.08-0.01-16.16-0.03-24.24-0.04
			c-8.63-0.01-17.25-0.03-25.88-0.04C390.77,0,386.63,0,382.49,0.02c-6.75,0.03-13.49-0.02-20.23,0.4
			c-5.52,0.34-11.53,0.73-16.66,2.97c-3.28,1.43-5.06,3.84-6.1,7.23c-0.88,2.88-1.34,5.89-1.83,8.85c-0.48,2.93-0.93,5.88-1.33,8.83
			c-0.82,6.22-1.54,12.44-2.19,18.67c-0.62,5.91-1.23,11.82-1.76,17.74c-0.41,4.59-0.82,9.18-1.24,13.78
			c-0.15,1.66-0.3,3.33-0.45,4.99c-0.02,0.22,0.03,1.23-0.14,1.38c-0.14,0.12-0.9,0-1.07,0c-0.9,0-1.79,0-2.69,0
			c-3.28,0-6.56,0-9.84,0c-5.04,0-10.09,0-15.13,0c-6.52,0-13.03,0-19.55,0c-7.67,0-15.35,0-23.03,0c-8.57,0-17.14,0-25.72,0
			c-9.22,0-18.44,0-27.66,0c-9.55,0-19.11,0-28.66,0c-9.57,0-19.14,0-28.71,0c-9.37,0-18.74,0-28.11,0c-8.85,0-17.7,0-26.55,0
			c-8.02,0-16.04,0-24.06,0c-6.94,0-13.88,0-20.81,0c-5.59,0-11.18,0-16.77,0c-3.93,0-7.87,0-11.8,0c-1.99,0-3.98,0-5.96,0
			c-1.34,0-2.58,0.32-3.33,1.55c-0.23,0.38-0.37,0.8-0.43,1.24c-0.2,1.32-0.22,2.71-0.3,4.04c-0.19,3.13-0.3,6.27-0.37,9.41
			c-0.14,6.32-0.1,12.64,0.09,18.96c0.17,5.86,0.47,11.7,0.82,17.55c0.4,6.83,0.78,13.66,1.25,20.48c0.23,3.27,0.44,6.54,0.75,9.79
			c0.23,2.34,0.36,4.9,1.22,7.11c0.45,1.16,1.21,1.85,2.4,2.21c0.84,0.26,1.72,0.37,2.58,0.45c0.17,0.01,0.65-0.03,0.77,0.07
			c0.13,0.1,0.17,0.74,0.2,0.89c0.19,0.85,0.39,1.7,0.58,2.55c-4.15,0-8.29,0-12.44,0c-1.98,0-4.22-0.34-5.96,0.83
			c-1.5,1.01-2.16,2.63-2.16,4.39c-0.01,3.47,0,6.93,0,10.4c0,4.35,0,8.69,0,13.04c0,1.54,0,3.08,0,4.61c0,0.96-0.16,2.05,0.08,2.99
			c0.28,1.08,1.21,1.88,2.31,2.02c0.38,0.05,1.36-0.18,1.55,0.02c0.24,0.26,0,1.86,0,2.19c0,1.95-0.17,3.97,0,5.91
			c0.17,1.93,1.86,2.02,3.39,2.02c4.67,0,9.33,0,14,0c1.51,0,2.97-0.32,3.07-2.14c0.1-1.79,0-3.62,0-5.41c0-1.34,0-2.68,0-4.02
			c0-0.82-0.18-1.87,0-2.67c0.02-0.08-0.04-0.27,0.01-0.32c0.12-0.12,1.11,0,1.26,0c0.64,0,1.27,0,1.91,0c0.19,0,1.09-0.14,1.25,0
			c0.24,0.2,0.05,1.98,0.07,2.41c0.03,0.63,0.06,1.27,0.15,1.89c0.23,1.42,0.95,2.14,2.39,2.32c0.66,0.08,1.33,0.09,2,0.1
			c0.42,0.01,0.86-0.02,1.28,0.01c0.54,0.04,0.46,0.08,0.62,0.58c0.31,1.01,0.76,1.98,1.38,2.83c1.08,1.48,2.64,2.48,4.36,3.05
			c4.06,1.36,8.88,0.83,13.13,0.83c9.16,0,18.33,0,27.49,0c10.39,0,20.78,0,31.17,0c3.37,0,6.74,0,10.11,0c0.84,0,1.69,0,2.53,0
			c0.08,0,0.39-0.05,0.46,0c0.24,0.18,0.32,1.43,0.39,1.76c1.56,6.97,4.36,13.66,8.26,19.65c3.38,5.19,7.57,9.85,12.37,13.77
			c5.3,4.32,11.34,7.73,17.78,10.02c6.42,2.29,13.23,3.47,20.05,3.47c6.69,0,13.37-1.11,19.69-3.3c6.34-2.2,12.3-5.46,17.56-9.62
			c5.3-4.19,9.88-9.27,13.49-14.98c3.51-5.54,6.08-11.65,7.62-18.02c0.77-3.18,1.25-6.42,1.51-9.68c3.73,0.9,7.47,1.8,11.2,2.69
			c1.98,0.48,4.09,1.25,6.12,1.45c1.43,0.14,2.94,0.01,4.37,0.01c3.46,0.01,6.93,0.02,10.39,0.03c5.22,0.01,10.44,0.03,15.66,0.04
			c6.73,0.02,13.46,0.04,20.19,0.05c7.99,0.02,15.98,0.04,23.97,0.06c8.97,0.02,17.95,0.05,26.92,0.07
			c9.76,0.03,19.53,0.05,29.29,0.08c10.25,0.03,20.49,0.05,30.74,0.08c10.55,0.03,21.09,0.05,31.64,0.08
			c10.57,0.03,21.13,0.05,31.7,0.08c10.34,0.03,20.67,0.05,31.01,0.08c9.86,0.03,19.72,0.05,29.58,0.08
			c9.13,0.02,18.27,0.05,27.4,0.07c8.16,0.02,16.32,0.04,24.48,0.06c6.94,0.02,13.87,0.04,20.81,0.05
			c5.45,0.01,10.9,0.03,16.35,0.04c3.75,0.01,7.5,0.02,11.25,0.03c1.78,0.01,3.56,0.01,5.34,0.01c3.95,0.01,7.82-0.8,11.52-2.17
			c2.89-1.07,5.64-2.45,8.3-3.99c0.36,5.88,1.52,11.68,3.54,17.21c2.06,5.63,4.96,10.95,8.59,15.73c3.69,4.85,8.12,9.14,13.1,12.66
			c4.91,3.47,10.34,6.2,16.05,8.06c5.59,1.82,11.45,2.82,17.33,2.94c5.81,0.12,11.63-0.61,17.23-2.16
			c5.96-1.64,11.66-4.22,16.83-7.6c5.36-3.51,10.16-7.88,14.14-12.9c3.89-4.9,7-10.4,9.2-16.26c2.05-5.47,3.29-11.23,3.68-17.06
			c0.09-1.38,0.13-2.76,0.13-4.14c4.26,0,8.52,0,12.78,0c0.08,0,0.53-0.06,0.59,0c0.14,0.12,0.07,1.05,0.08,1.23
			c0.03,0.54-0.01,1.12,0.26,1.61c0.16,0.3,0.55,0.51,0.66,0.77c0.18,0.44,0.01,1.34,0.01,1.81c0.02,4.96,0.03,9.91,0.05,14.87
			c0.01,1.36,0.03,2.71,0.09,4.07c0.05,1.25,0.04,2.6,0.4,3.81c0.59,1.95,3.38,1.35,4.91,1.35c2,0,4.01,0.04,6.01-0.01
			c0.76-0.02,1.68-0.01,2.37-0.4c0.62-0.36,0.84-1.01,0.97-1.68c0.26-1.33,0.24-2.74,0.25-4.09c0.02-2.08,0-4.17,0.04-6.25
			c0.02-1.18-0.06-2.57,0.33-3.71c0.61-1.79,3.38-1.76,4.88-1.95c3.62-0.45,7.29-0.89,10.68-2.33c2.97-1.26,5.51-3.28,7.65-5.68
			c0.5-0.56,0.95-1.38,1.65-1.56c0.81-0.21,1.7-0.23,2.52-0.39c0.85-0.16,1.74-0.34,2.52-0.74c1.29-0.67,1.85-2.03,2.16-3.38
			c0.36-1.58,0.46-3.23,0.53-4.85c0.02-0.35-0.09-1.15,0.05-1.43c0.15-0.3-0.05-0.14,0.39-0.22c0.1-0.02,0.22,0.01,0.33,0
			c0.23-0.02,0.47-0.05,0.69-0.12c1.13-0.35,1.84-1.38,1.91-2.54c0.24-4.21,0-8.51,0-12.73c0-1.41,0.12-2.81-1.2-3.7
			c-0.41-0.28-0.88-0.42-1.37-0.46c-0.28-0.02-0.45,0.05-0.58-0.14c-0.16-0.26-0.03-1.1-0.04-1.43c-0.03-0.75-0.09-1.51-0.21-2.25
			c-0.26-1.6-0.87-3.1-2.17-4.12c-1.73-1.37-4.1-1.79-6.23-2.05c-1.7-0.21-3.41-0.29-5.12-0.29c1.47,0.01,2.14-0.98,2.3-2.34
			c0.06-0.51,0.07-1.02,0.06-1.53c0-0.32-0.01-0.63-0.02-0.95c-0.01-0.38-0.22-1.36-0.05-1.7c0.24-0.46,1.77-0.77,2.29-0.97
			c0.37-0.14,0.78-0.26,1.12-0.48c0.43-0.28,0.73-0.73,0.84-1.23c0.28-1.24,0.05-2.72,0.05-3.98c0-1.43,0.19-3-0.02-4.41
			c-0.08-0.55-0.37-1.03-0.82-1.35c-0.53-0.38-1.19-0.63-1.77-0.92c-0.45-0.23-1.82-0.65-2.05-1.08c-0.23-0.44-0.06-1.55-0.07-2.04
			c-0.04-1.22-0.09-2.45-0.13-3.67c-0.04-1.1-0.08-2.21-0.12-3.31c-0.02-0.47-0.17-1.04,0.12-1.32c0.47-0.44,1.47-0.49,2.06-0.79
			c0.23-0.12,0.45-0.27,0.62-0.48c0.33-0.38,0.46-0.82,0.49-1.31c0.12-1.96,0-3.97,0-5.93c0-1.88,0.15-2.91-1.67-3.83
			c-0.5-0.25-1.97-0.7-2.24-1.17c-0.26-0.45-0.08-1.65-0.1-2.16c-0.05-1.22-0.11-2.43-0.17-3.65c-0.04-0.94-0.24-2.01-0.13-2.95
			c0.01-0.11-0.05-0.27,0.01-0.35c0.2-0.31,1.06-0.57,1.39-0.76c0.3-0.16,0.58-0.31,0.81-0.56c0.34-0.37,0.52-0.85,0.53-1.36
			c0.02-1.52-0.4-3.15-0.6-4.66c-0.15-1.16-0.13-2.54-0.53-3.65c-0.19-0.51-0.57-0.9-1.05-1.13c-0.19-0.1-0.41-0.15-0.61-0.22
			c-0.73-0.26-0.64-0.24-0.71-1.02c-0.07-0.74-0.14-1.47-0.25-2.2c-0.26-1.87-0.7-3.73-1.78-5.3c-1.35-1.97-3.33-3.5-5.28-4.83
			c-5.17-3.53-11.05-5.86-17.09-7.39c-6.39-1.62-12.95-2.63-19.48-3.52c-6.99-0.96-14-1.72-21.01-2.46
			c-6.51-0.68-13.02-1.26-19.54-1.85c-6.32-0.57-12.63-1.21-18.95-1.71c-8.57-0.68-17.14-1.36-25.7-2.04
			c-5.76-0.46-11.54-0.88-17.31-1.12c-3.27-0.14-6.56-0.28-9.83-0.01c-0.83,0.07-1.66,0.17-2.49,0.27c-0.6,0.07-0.83,0.16-1.3-0.09
			c-1.58-0.84-3.06-2.09-4.53-3.11c-6.19-4.24-12.39-8.44-18.62-12.63c-5.44-3.66-10.92-7.28-16.41-10.86
			C636.52,49,631.03,45.47,625.52,42c-6.49-4.09-13-8.12-19.53-12.14c-5.11-3.14-10.27-6.23-15.46-9.25
			C587.31,18.75,584.09,16.87,580.87,15z"/>
	</g>
	<g id="POLYLINE_17_">
		<path d="M125.04,217.8c0.05-6.17,0.95-12.28,2.82-18.16c1.84-5.79,4.57-11.3,8.06-16.28c3.56-5.07,7.9-9.58,12.84-13.32
			c4.86-3.69,10.29-6.63,16.04-8.68s11.8-3.23,17.9-3.46c6.19-0.24,12.41,0.49,18.38,2.15c5.86,1.63,11.46,4.15,16.56,7.46
			c5.16,3.35,9.8,7.49,13.71,12.25c3.9,4.76,7.07,10.11,9.35,15.83c2.25,5.65,3.64,11.63,4.1,17.69c0.47,6.17-0.03,12.42-1.46,18.45
			c-1.42,5.94-3.75,11.65-6.88,16.89c-3.14,5.24-7.07,9.99-11.64,14.04c-4.63,4.11-9.9,7.5-15.57,10
			c-5.56,2.46-11.49,4.06-17.54,4.74c-6.11,0.69-12.33,0.43-18.37-0.77s-11.88-3.33-17.27-6.3c-5.33-2.93-10.19-6.68-14.4-11.07
			c-4.28-4.47-7.87-9.62-10.57-15.18c-2.67-5.49-4.5-11.38-5.4-17.42C125.27,223.71,125.04,220.76,125.04,217.8z"/>
	</g>
	<g id="POLYLINE_16_">
		<path d="M672.97,217.8c0.05-6.17,0.95-12.28,2.82-18.16c1.84-5.79,4.57-11.3,8.06-16.28c3.56-5.07,7.9-9.58,12.84-13.32
			c4.86-3.69,10.29-6.63,16.04-8.68s11.8-3.23,17.9-3.46c6.19-0.24,12.41,0.49,18.38,2.15c5.86,1.63,11.46,4.15,16.56,7.46
			c5.16,3.35,9.8,7.49,13.71,12.25c3.91,4.76,7.07,10.11,9.35,15.83c2.25,5.65,3.64,11.63,4.1,17.69
			c0.47,6.17-0.03,12.42-1.47,18.45c-1.42,5.94-3.75,11.65-6.88,16.89c-3.14,5.24-7.07,9.99-11.64,14.04
			c-4.63,4.11-9.9,7.5-15.57,10c-5.56,2.46-11.49,4.06-17.53,4.74c-6.11,0.69-12.33,0.43-18.37-0.77s-11.88-3.33-17.27-6.3
			c-5.33-2.93-10.2-6.68-14.4-11.07c-4.28-4.47-7.86-9.62-10.57-15.18c-2.67-5.49-4.5-11.38-5.4-17.42
			C673.19,223.71,672.97,220.76,672.97,217.8z"/>
	</g>
</g>
</svg>
