<?xml version="1.0" encoding="utf-8"?>
<!-- Generator: Adobe Illustrator 24.0.2, SVG Export Plug-In . SVG Version: 6.00 Build 0)  -->
<svg version="1.1" id="Layer_1" xmlns="http://www.w3.org/2000/svg" xmlns:xlink="http://www.w3.org/1999/xlink" x="0px" y="0px"
	 width="350.73" height="856.79" viewBox="0 0 350.73 856.79" style="enable-background:new 0 0 350.73 856.79;" xml:space="preserve">
<g>
	<g id="POLYLINE_670_">
		<path d="M269.71,31.49c5.31,2.91,10.24,6.63,15.22,10.05c4.59,3.16,9.21,6.33,13.51,9.88c4.19,3.47,7.91,7.43,10.58,12.2
			c2.55,4.56,4.29,9.66,4.79,14.88c0.23,2.4,0.26,4.89-0.11,7.29c-0.12,0.75-0.52,2.97-1.41,1.45c-1.18-2.01-1.61-4.69-2.25-6.9
			c-0.76-2.61-1.55-5.22-2.54-7.75c-2.03-5.22-4.95-9.88-8.88-13.88c-4.27-4.36-9.29-7.91-14.13-11.59
			c-4.5-3.42-8.96-6.9-13.24-10.6c-1.45-1.25-3.39-2.62-4.26-4.39c-0.45-0.91-0.42-1.84,0.81-1.49
			C268.47,30.82,269.11,31.17,269.71,31.49z"/>
	</g>
	<g id="POLYLINE_669_">
		<path d="M290.97,638.12c-0.02-5.57-1.09-11.26-3.96-16.1c-1.56-2.65-3.97-6.33-7.5-5.15c-3.7,1.24-7.44,3.56-9.07,7.24
			c-0.96,2.18-1.22,4.58-1.32,6.93c-0.13,2.91-0.12,5.84-0.13,8.76c-0.02,5.1,0,10.21,0,15.31c0,9.71,0,19.43,0,29.14
			c0,7.71,0,15.43,0,23.14c0,4.75-0.04,9.51,0.06,14.26c0.1,4.52,0.04,9.52,2.84,13.32c3.43,4.66,9.17,6.66,14.73,7.25
			c1.45,0.15,2.9,0.21,4.35,0.22"/>
	</g>
	<g id="POLYLINE_668_">
		<path d="M200.91,520.26c0,1.45,0,2.89,0,4.34c0,0.49,0.03,0.99-0.08,1.48c-0.2,0.86-0.81,1.45-1.65,1.7
			c-0.45,0.14-0.94,0.18-1.41,0.17"/>
	</g>
	<g id="POLYLINE_667_">
		<path d="M320.03,231.16c-2.7,0.02-5.41,0-8.09,0.27c-1.48,0.15-3.11,0.37-4.38,1.22c-0.93,0.63-1.52,1.55-1.95,2.57
			c-0.84,1.99-1.3,4.17-1.85,6.25c-1.46,5.57-2.92,11.14-4.31,16.72c-1.26,5.04-2.42,10.11-3.58,15.17
			c-1.19,5.22-2.42,10.43-3.56,15.67c-1.37,6.32-2.77,12.64-4.11,18.97c-1.1,5.21-2.16,10.43-3.12,15.66
			c-0.99,5.41-1.83,10.87-2.19,16.37c-0.32,4.88-0.28,9.78-0.3,14.67c-0.01,2.41,0,4.82,0,7.23c0,5.49,0,10.98,0.01,16.47
			c0,7.47,0,14.93,0.01,22.4c0,8.34,0.01,16.67,0.01,25.01c0,8.11,0.01,16.21,0.01,24.32c0,6.77,0,13.54,0.01,20.32
			c0,4.33,0,8.67,0,13c0,2.57-0.01,5.14,0.15,7.71c0.19,3.19,0.88,6.08,3.4,8.22c3.26,2.76,7.81,3.98,11.85,5.06
			c5.11,1.36,10.29,2.35,15.56,2.75c2.61,0.2,5.22,0.27,7.84,0.29"/>
	</g>
	<g id="POLYLINE_666_">
		<path d="M322.44,370.11c1.55,1.38,3.49,2.95,4.24,4.96c0.61,1.66,0.36,3.67,0.36,5.41c0.01,4.53,0.02,9.05,0.02,13.58
			c0,1.66,0.44,4.13-0.63,5.56c-0.88,1.18-2.63,1.38-3.99,1.38"/>
	</g>
	<g id="POLYLINE_665_">
		<path d="M315.99,263.22c1.3,0.65,2.62,1.22,3.95,1.79c0.6,0.26,1.38,0.54,1.79,1.08c0.61,0.8-0.32,2.11-0.48,2.98
			c-0.17,0.9-0.39,2.07,0.15,2.88c0.94,1.39,3.09,2.19,4.5,2.91c5.89,3,11.83,5.9,17.75,8.83c1.7,0.84,5.37,2.94,6.54,0.21
			c0.7-1.63,0.58-3.75,0.36-5.46c-0.21-1.69-0.7-3.33-1.55-4.81c-2.5-4.35-7.12-7.46-11.04-10.42c-4.82-3.64-9.66-7.39-14.77-10.62
			c-2.64-1.67-6.38-4.23-9.53-2.34c-2.15,1.29-3.26,3.85-3.16,6.29c0.08,2.02,1.01,3.69,2.59,4.92
			C313.43,261.73,315.99,263.06,315.99,263.22z"/>
	</g>
	<g id="POLYLINE_664_">
		<path d="M315.28,262.85c-3.01,3.45-7.79,5.23-12.28,5.43c-1.22,0.05-2.46-0.01-3.66-0.29"/>
	</g>
	<g id="POLYLINE_663_">
		<path d="M316.2,263.32c-0.01,2.88-0.02,5.76-0.03,8.64c-0.02,6.28-0.04,12.55-0.06,18.82c-0.02,6.22-0.04,12.45-0.06,18.67
			c-0.01,2.76,0.01,5.53-0.03,8.29c-0.06,4.41-0.13,8.85-0.7,13.23c-0.25,1.91-0.62,3.81-1.21,5.65c-0.6,1.85-1.28,3.64-1.6,5.57
			c-0.7,4.19-0.7,8.5-0.78,12.73c-0.04,2.11-0.06,4.21-0.07,6.31c-0.01,3.81-0.01,7.63-0.02,11.44c-0.01,5.77-0.02,11.53-0.03,17.3
			c-0.01,6.68-0.02,13.36-0.03,20.04c-0.01,6.67-0.02,13.35-0.03,20.02c-0.01,5.62-0.02,11.24-0.03,16.86
			c-0.01,3.63-0.01,7.27-0.02,10.9c0,2.35-0.05,4.7-0.09,7.05c-0.08,4.31-0.21,8.63-0.54,12.93c-0.17,2.24-0.38,4.48-0.72,6.71
			c-0.22,1.47-0.44,3.02-1.04,4.4c-0.98,2.29-3.12,2.01-5.26,1.85c-4.06-0.3-8.28-0.66-12.16-1.96c-2.02-0.68-4.04-1.74-5.17-3.62
			c-1.5-2.5-1.47-5.8-1.57-8.61c-0.15-3.93-0.14-7.86-0.15-11.79c-0.01-5.63-0.01-11.26-0.02-16.88c0-2.58,0-5.15,0-7.73
			c0-6.27,0-12.53,0-18.8c0-6,0-12.01,0-18.01c0-2.02,0-4.04,0-6.06c0-4.43,0.01-8.87,0.01-13.3c0.01-6.65,0.01-13.29,0.01-19.94
			c0-4.62,0.01-9.24,0.01-13.86c0-3.34,0.06-6.68,0.27-10.02c0.27-4.26,0.85-8.49,1.56-12.69c0.66-3.9,1.39-7.8,2.2-11.67
			c1.13-5.39,2.25-10.79,3.39-16.18c0.78-3.67,1.64-7.32,2.45-10.98c1.25-5.58,2.5-11.16,3.75-16.73c0.9-4.04,1.91-8.05,2.87-12.08
			c1.08-4.5,2.28-8.98,3.43-13.46c0.41-1.59,0.79-3.21,1.38-4.75c0.33-0.84,0.73-1.66,1.57-2.1c0.97-0.51,2.19-0.61,3.25-0.71
			c1.04-0.1,2.09-0.15,3.14-0.18c0.56-0.02,1.16-0.13,1.63,0.25c0.85,0.68,0.48,2.39,0.48,3.28c0,2.47,0,4.95,0,7.42"/>
	</g>
	<g id="POLYLINE_662_">
		<path d="M284.78,396.34c6.3-0.5,12.59-0.98,18.89-1.54c1.86-0.16,3.72-0.33,5.57-0.5c0,4.13,0,8.25,0,12.38
			c0,6.59,0,13.18,0,19.76c0,1.53,0,3.06,0,4.59c-6.29-0.1-12.58-0.16-18.86-0.37c-1.86-0.06-3.73-0.14-5.59-0.21"/>
	</g>
	<g id="POLYLINE_661_">
		<line x1="307.96" y1="267.4" x2="306.93" y2="394.52"/>
	</g>
	<g id="POLYLINE_660_">
		<path d="M307.13,431.01c0.03,6.11,0.07,12.23,0.1,18.34c0.03,5.55,0.09,11.1,0.03,16.65c-0.05,5.42-0.18,10.86-0.78,16.25
			c-0.17,1.48-0.18,3.68-1.22,4.9c-0.87,1.02-2.56,0.76-3.74,0.67c-4.84-0.35-9.9-1.42-14.17-3.79c-0.58-0.32-1.14-0.66-1.69-1.03"
			/>
	</g>
	<g id="POLYLINE_659_">
		<path d="M284.78,414.32c5.01-0.17,10.01-0.37,15.01-0.64c4.86-0.27,9.72-0.62,14.56-1.13c2.68-0.28,5.35-0.63,8.02-1.04"/>
	</g>
	<g id="POLYLINE_658_">
		<path d="M320.49,598.08c2.35,3.85,3.35,8.04,3.62,12.51c0.21,3.5,0.17,7.02,0.15,10.53c-0.02,4.07-0.03,8.14-0.05,12.21
			c-0.03,6.95-0.06,13.91-0.08,20.86c-0.03,8.15-0.07,16.3-0.1,24.46c-0.03,7.66-0.06,15.32-0.09,22.99
			c-0.02,5.48-0.04,10.97-0.07,16.46c-0.01,2.57-0.01,5.14-0.06,7.7c-0.1,5.25-0.39,10.5-1.19,15.69
			c-0.8,5.26-2.12,10.41-3.76,15.46c-0.39,1.19-0.8,2.36-1.21,3.54"/>
	</g>
	<g id="POLYLINE_657_">
		<path d="M30.27,598.08c-2.35,3.85-3.35,8.04-3.62,12.51c-0.21,3.5-0.17,7.02-0.15,10.53c0.02,4.07,0.03,8.14,0.05,12.21
			c0.03,6.95,0.06,13.91,0.08,20.86c0.03,8.15,0.07,16.3,0.1,24.46c0.03,7.66,0.06,15.32,0.09,22.99
			c0.02,5.48,0.04,10.97,0.07,16.46c0.01,2.57,0.01,5.14,0.06,7.7c0.1,5.25,0.39,10.5,1.19,15.69c0.8,5.26,2.12,10.41,3.76,15.46
			c0.39,1.19,0.8,2.36,1.21,3.54"/>
	</g>
	<g id="POLYLINE_656_">
		<path d="M65.98,414.32c-5.01-0.17-10.01-0.37-15.01-0.64c-4.86-0.27-9.72-0.62-14.56-1.13c-2.68-0.28-5.36-0.63-8.02-1.04"/>
	</g>
	<g id="POLYLINE_655_">
		<path d="M43.63,431.01c-0.03,6.11-0.07,12.23-0.1,18.34c-0.03,5.55-0.08,11.1-0.03,16.65c0.05,5.42,0.18,10.86,0.78,16.25
			c0.17,1.48,0.18,3.68,1.23,4.9c0.87,1.02,2.56,0.76,3.74,0.67c4.84-0.35,9.9-1.42,14.17-3.79c0.58-0.32,1.14-0.66,1.69-1.03"/>
	</g>
	<g id="POLYLINE_654_">
		<line x1="42.8" y1="267.4" x2="43.83" y2="394.52"/>
	</g>
	<g id="POLYLINE_653_">
		<path d="M65.98,396.34c-6.3-0.5-12.6-0.98-18.89-1.54c-1.86-0.16-3.71-0.33-5.57-0.5c0,4.13,0,8.25,0,12.38
			c0,6.59,0,13.18,0,19.76c0,1.53,0,3.06,0,4.59c6.29-0.1,12.58-0.16,18.86-0.37c1.86-0.06,3.73-0.14,5.59-0.21"/>
	</g>
	<g id="POLYLINE_652_">
		<path d="M33.92,71.78c-1.69,5.48-2.91,11.07-3.69,16.75C29.46,94.2,29,99.9,28.66,105.61c-0.38,6.31-0.63,12.62-0.87,18.93
			c-0.24,6.12-0.32,12.24-0.47,18.36c-0.13,5.15-0.22,10.3-0.25,15.45c-0.03,6.16-0.02,12.32,0.09,18.48
			c0.11,5.74,0.35,11.48,0.75,17.21c0.43,6.11,1.08,12.18,1.78,18.27c0.65,5.65,0.94,11.26,1.02,16.95c0.09,6.22,0,12.44-0.04,18.66
			c-0.01,0.97-0.01,1.94-0.02,2.91"/>
	</g>
	<g id="POLYLINE_651_">
		<path d="M34.56,263.32c0.01,2.88,0.02,5.76,0.03,8.64c0.02,6.28,0.04,12.55,0.06,18.82c0.02,6.22,0.04,12.45,0.06,18.67
			c0.01,2.76-0.01,5.53,0.03,8.29c0.06,4.41,0.13,8.85,0.7,13.23c0.25,1.91,0.62,3.81,1.21,5.65c0.6,1.85,1.27,3.64,1.6,5.57
			c0.7,4.19,0.7,8.5,0.77,12.73c0.04,2.11,0.06,4.21,0.07,6.31c0.01,3.81,0.01,7.63,0.02,11.44c0.01,5.77,0.02,11.53,0.03,17.3
			c0.01,6.68,0.02,13.36,0.04,20.04c0.01,6.67,0.02,13.35,0.04,20.02c0.01,5.62,0.02,11.24,0.03,16.86
			c0.01,3.63,0.01,7.27,0.02,10.9c0,2.35,0.05,4.7,0.09,7.05c0.08,4.31,0.21,8.63,0.54,12.93c0.17,2.24,0.38,4.48,0.72,6.71
			c0.22,1.47,0.44,3.02,1.04,4.4c0.98,2.29,3.12,2.01,5.26,1.85c4.06-0.3,8.28-0.66,12.16-1.96c2.02-0.68,4.04-1.74,5.17-3.62
			c1.5-2.5,1.46-5.8,1.57-8.61c0.15-3.93,0.14-7.86,0.15-11.79c0.01-5.63,0.01-11.26,0.02-16.88c0-2.58,0-5.15,0-7.73
			c0-6.27,0-12.53,0-18.8c0-6,0-12.01,0-18.01c0-2.02,0-4.04,0-6.06c0-4.43-0.01-8.87-0.01-13.3c-0.01-6.65-0.01-13.29-0.01-19.94
			c0-4.62-0.01-9.24-0.01-13.86c0-3.34-0.06-6.68-0.27-10.02c-0.27-4.26-0.85-8.49-1.56-12.69c-0.66-3.9-1.39-7.8-2.2-11.67
			c-1.13-5.39-2.25-10.79-3.39-16.18c-0.78-3.67-1.64-7.32-2.45-10.98c-1.25-5.58-2.5-11.16-3.75-16.73
			c-0.9-4.04-1.91-8.05-2.87-12.08c-1.08-4.5-2.28-8.98-3.43-13.46c-0.41-1.59-0.79-3.21-1.38-4.75c-0.33-0.84-0.73-1.66-1.57-2.1
			c-0.97-0.51-2.19-0.61-3.25-0.71c-1.05-0.1-2.09-0.15-3.14-0.18c-0.56-0.02-1.15-0.13-1.63,0.25c-0.85,0.68-0.48,2.39-0.48,3.28
			c0,2.47,0,4.95,0,7.42"/>
	</g>
	<g id="POLYLINE_650_">
		<path d="M35.48,262.85c3.01,3.45,7.79,5.23,12.28,5.43c1.22,0.05,2.46-0.01,3.66-0.29"/>
	</g>
	<g id="POLYLINE_649_">
		<path d="M34.77,263.22c-1.3,0.65-2.62,1.22-3.95,1.79c-0.6,0.26-1.38,0.54-1.79,1.08c-0.61,0.8,0.32,2.11,0.48,2.98
			c0.17,0.9,0.39,2.07-0.15,2.88c-0.94,1.39-3.09,2.19-4.5,2.91c-5.89,3-11.83,5.9-17.75,8.83c-1.7,0.84-5.37,2.94-6.55,0.21
			c-0.7-1.63-0.58-3.75-0.36-5.46c0.21-1.69,0.7-3.33,1.55-4.81c2.5-4.35,7.12-7.46,11.04-10.42c4.82-3.64,9.66-7.39,14.77-10.62
			c2.64-1.67,6.38-4.23,9.53-2.34c2.14,1.29,3.26,3.85,3.16,6.29c-0.08,2.02-1.01,3.69-2.59,4.92
			C37.33,261.73,34.77,263.06,34.77,263.22z"/>
	</g>
	<g id="POLYLINE_648_">
		<path d="M28.32,370.11c-1.55,1.38-3.49,2.95-4.24,4.96c-0.61,1.66-0.36,3.67-0.36,5.41c-0.01,4.53-0.02,9.05-0.02,13.58
			c0,1.66-0.44,4.13,0.63,5.56c0.88,1.18,2.63,1.38,3.99,1.38"/>
	</g>
	<g id="POLYLINE_647_">
		<path d="M30.73,231.16c2.7,0.02,5.41,0,8.09,0.27c1.48,0.15,3.11,0.37,4.38,1.22c0.93,0.63,1.52,1.55,1.95,2.57
			c0.85,1.99,1.3,4.17,1.85,6.25c1.46,5.57,2.92,11.14,4.31,16.72c1.26,5.04,2.42,10.11,3.58,15.17c1.19,5.22,2.42,10.43,3.56,15.67
			c1.37,6.32,2.77,12.64,4.11,18.97c1.1,5.21,2.16,10.43,3.12,15.66c0.99,5.41,1.83,10.87,2.19,16.37c0.32,4.88,0.28,9.78,0.3,14.67
			c0.01,2.41,0,4.82,0,7.23c0,5.49,0,10.98-0.01,16.47c0,7.47,0,14.93-0.01,22.4c0,8.34-0.01,16.67-0.01,25.01
			c0,8.11-0.01,16.21-0.01,24.32c0,6.77,0,13.54-0.01,20.32c0,4.33,0,8.67,0,13c0,2.57,0.01,5.14-0.15,7.71
			c-0.19,3.19-0.88,6.08-3.4,8.22c-3.26,2.76-7.81,3.98-11.85,5.06c-5.11,1.36-10.29,2.35-15.56,2.75c-2.61,0.2-5.22,0.27-7.83,0.29
			"/>
	</g>
	<g id="POLYLINE_646_">
		<path d="M149.85,520.26c0,1.45,0,2.89,0,4.34c0,0.49-0.03,0.99,0.08,1.48c0.2,0.86,0.81,1.45,1.65,1.7
			c0.45,0.14,0.94,0.18,1.41,0.17"/>
	</g>
	<g id="POLYLINE_645_">
		<path d="M59.79,638.12c0.02-5.57,1.09-11.26,3.96-16.1c1.56-2.65,3.97-6.33,7.5-5.15c3.7,1.24,7.44,3.56,9.07,7.24
			c0.96,2.18,1.21,4.58,1.32,6.93c0.13,2.91,0.12,5.84,0.13,8.76c0.02,5.1,0,10.21,0,15.31c0,9.71,0,19.43,0,29.14
			c0,7.71,0,15.43,0,23.14c0,4.75,0.04,9.51-0.06,14.26c-0.1,4.52-0.05,9.52-2.84,13.32c-3.43,4.66-9.17,6.66-14.73,7.25
			c-1.45,0.15-2.9,0.21-4.36,0.22"/>
	</g>
	<g id="POLYLINE_644_">
		<path d="M81.05,31.49c-5.31,2.91-10.24,6.63-15.22,10.05c-4.59,3.16-9.21,6.33-13.51,9.88c-4.19,3.47-7.9,7.43-10.58,12.2
			c-2.55,4.56-4.3,9.66-4.79,14.88c-0.23,2.4-0.26,4.89,0.11,7.29c0.12,0.75,0.52,2.97,1.41,1.45c1.18-2.01,1.61-4.69,2.25-6.9
			c0.76-2.61,1.55-5.22,2.54-7.75c2.04-5.22,4.95-9.88,8.88-13.88c4.27-4.36,9.29-7.91,14.13-11.59c4.5-3.42,8.96-6.9,13.24-10.6
			c1.45-1.25,3.39-2.62,4.26-4.39c0.45-0.91,0.42-1.84-0.81-1.49C82.29,30.82,81.65,31.17,81.05,31.49z"/>
	</g>
	<g id="POLYLINE_643_">
		<path d="M277.98,313.28c-6.74-2.76-13.46-5.55-20.32-8.03c-7.16-2.58-14.35-4.66-21.76-6.36c-2.44-0.56-5.02-1.06-7.19-2.37
			c-1.24-0.75-2.37-1.66-3.64-2.37c-1.42-0.79-2.93-1.42-4.46-1.96c-6.52-2.3-13.49-3.31-20.35-3.94
			c-7.32-0.67-14.68-0.95-22.03-0.99c-7.5-0.04-15.01,0.07-22.49,0.56c-6.98,0.46-14.02,1.2-20.81,2.93
			c-3.22,0.82-6.48,1.83-9.38,3.47c-2.18,1.24-3.95,2.77-6.38,3.54c-3.36,1.07-6.87,1.66-10.29,2.51c-3.63,0.9-7.2,2.02-10.75,3.2
			c-6.78,2.27-13.43,4.91-20.05,7.62c-1.77,0.73-3.54,1.45-5.31,2.18"/>
	</g>
	<g id="POLYLINE_642_">
		<path d="M244.44,180.13c0.14-6.46-0.46-12.95-1.13-19.37c-0.76-7.31-1.69-14.59-2.63-21.88c-0.84-6.52-1.81-13.02-2.74-19.53
			c-0.82-5.75-1.6-11.51-2.49-17.26c-1.3-8.34-2.6-16.68-3.9-25.02c-0.95-6.12-2.03-12.22-3.19-18.3c-1.23-6.46-2.52-13-4.51-19.28
			c-1.32-4.16-3.22-8.65-7.13-10.98c-1.88-1.12-4.05-1.59-6.19-1.89c-3.23-0.45-6.52-0.56-9.78-0.64
			c-7.38-0.19-14.77-0.13-22.16-0.15c-6.84-0.02-13.68,0.02-20.52,0.03c-6.01,0.02-12.18-0.09-18.13,0.79
			c-4.04,0.6-7.42,2.14-9.77,5.57c-3.42,4.99-4.55,11.51-5.88,17.3c-1.44,6.26-2.57,12.59-3.64,18.92
			c-1.16,6.85-2.24,13.71-3.31,20.58c-0.94,6.02-1.92,12.03-2.78,18.06c-1.24,8.7-2.48,17.41-3.71,26.11
			c-0.8,5.65-1.53,11.31-2.21,16.98c-0.82,6.76-1.59,13.55-2.03,20.35c-0.2,3.2-0.35,6.4-0.28,9.6"/>
	</g>
	<g id="POLYLINE_641_">
		<path d="M263.11,23.41c-5.29,0.64-10.39,0.61-15.65-0.28c-5.74-0.98-11.41-2.32-17.18-3.13c-5.67-0.79-11.38-1.3-17.09-1.66
			c-5.88-0.37-11.77-0.63-17.66-0.78c-6.27-0.16-12.54-0.22-18.81-0.25c-5.71-0.03-11.43,0.03-17.14,0.14c-6,0.12-12,0.34-18,0.64
			c-5.71,0.28-11.42,0.74-17.1,1.4c-5.95,0.69-11.79,1.8-17.66,2.98c-4.99,1.01-10,1.7-15.11,1.35c-1.36-0.09-2.71-0.25-4.06-0.41"
			/>
	</g>
	<g id="POLYLINE_640_">
		<path d="M307.63,232.36c-0.44-2.22-0.88-4.44-1.31-6.66c-1.09-5.52-2.17-11.05-3.26-16.57c-1.42-7.21-2.84-14.42-4.26-21.63
			c-1.41-7.18-2.83-14.36-4.24-21.54c-1.09-5.55-2.19-11.1-3.28-16.66c-0.44-2.22-0.86-4.45-1.31-6.66
			c-1.13-5.5-2.34-10.98-3.51-16.47c-1.01-4.75-2.12-9.48-3.19-14.22c-1.05-4.66-2.23-9.28-3.43-13.9c-1.17-4.5-2.46-8.96-3.8-13.41
			c-1.54-5.12-3.07-10.23-4.74-15.3c-1.56-4.74-3.21-9.45-5.03-14.1c-1.79-4.58-3.78-9.09-6.01-13.47
			c-2.13-4.19-4.49-8.29-7.23-12.1c-2.55-3.55-5.5-6.8-8.94-9.52c-3.7-2.92-7.8-5.42-12.23-7.07c-4.28-1.59-8.82-2.3-13.35-2.64
			c-5.09-0.39-10.2-0.33-15.3-0.36c-1.6-0.01-3.25-0.02-4.81-0.45c-1.61-0.44-3.02-1.39-4.56-1.99c-3.2-1.24-6.93-0.87-10.29-0.88
			c-5.66-0.02-11.31-0.01-16.97,0c-3.3,0.01-6.88-0.28-9.99,1.02c-1.47,0.62-2.83,1.5-4.39,1.89c-1.68,0.43-3.47,0.4-5.19,0.4
			c-5.05,0.01-10.1-0.01-15.14,0.39c-4.61,0.37-9.22,1.15-13.55,2.84c-4.33,1.69-8.35,4.19-11.97,7.1
			c-3.42,2.76-6.34,6.05-8.88,9.63c-2.73,3.85-5.09,7.98-7.21,12.2c-2.23,4.46-4.22,9.02-6.03,13.67c-1.83,4.7-3.47,9.48-5.05,14.27
			c-1.65,5.02-3.15,10.08-4.66,15.14c-1.33,4.45-2.61,8.92-3.77,13.42c-1.18,4.54-2.32,9.09-3.35,13.66
			c-1.07,4.75-2.18,9.5-3.2,14.26c-1.14,5.34-2.32,10.67-3.41,16.02c-0.48,2.36-0.93,4.73-1.4,7.1c-1.11,5.64-2.22,11.28-3.33,16.91
			c-1.42,7.21-2.84,14.42-4.26,21.63c-1.41,7.18-2.83,14.36-4.24,21.54c-1.07,5.45-2.15,10.91-3.22,16.36
			c-0.41,2.06-0.81,4.12-1.22,6.18"/>
	</g>
	<g id="POLYLINE_639_">
		<path d="M109.85,17.8c-2.64-0.33-5.28-0.47-7.92-0.09c-2.77,0.4-5.44,1.33-8,2.45c-6.09,2.66-11.46,6.57-16.88,10.37
			c-5.52,3.87-11.2,7.49-16.81,11.24c-5.31,3.55-10.56,7.35-14.96,12.01c-4.38,4.64-7.85,10.11-10.46,15.91
			c-0.31,0.7-0.61,1.4-0.9,2.1c-0.1-5.58-0.09-11.53,1.99-16.8c2.12-5.36,6.45-9.25,10.98-12.59c4.88-3.6,10.02-6.91,15.15-10.14
			c5.78-3.64,11.59-7.23,17.45-10.75c5.3-3.19,10.68-6.29,16.19-9.11C101.26,9.52,107,7.01,112.95,5
			c5.76-1.95,11.71-3.51,17.73-4.37c1.47-0.21,2.95-0.37,4.44-0.46c1.06-0.07,2.2-0.22,3.26-0.1c1.52,0.18,0.89,1.99,1.11,3.1
			c0.25,1.31,1.54,1.55,2.7,1.66c2.27,0.21,4.58,0.15,6.86,0.15c8.08,0.01,16.17,0.02,24.25,0.03c5.74,0.01,11.47-0.01,17.21-0.02
			c3.81-0.01,7.62-0.01,11.43-0.02c2.26,0,4.56,0.07,6.81-0.16c1.21-0.13,2.34-0.44,2.55-1.78c0.18-1.17-0.4-2.83,1.18-2.96
			c2.56-0.22,5.35,0.23,7.88,0.61c2.98,0.44,5.93,1.07,8.85,1.8c5.98,1.51,11.84,3.5,17.5,5.94c5.82,2.51,11.42,5.49,16.93,8.62
			c5.69,3.24,11.28,6.64,16.85,10.07c5.35,3.3,10.68,6.64,15.91,10.13c4.97,3.31,10.28,6.62,14.27,11.13
			c3.75,4.23,5.42,9.28,5.93,14.84c0.26,2.85,0.28,5.72,0.22,8.58"/>
	</g>
	<g id="POLYLINE_638_">
		<path d="M211.39,1.06c-4.07,0-8.14,0-12.22,0c-6.45,0-12.9,0-19.34,0c-2.42,0-4.84,0-7.26,0c-6.15,0-12.3,0-18.46,0
			c-4.83,0-9.66,0-14.49,0c-0.08,0-0.16,0-0.24,0"/>
	</g>
	<g id="POLYLINE_637_">
		<path d="M240.91,17.8c3.67-0.45,7.28-0.45,10.87,0.54c3.9,1.07,7.59,2.88,11.07,4.92c4.11,2.42,7.97,5.25,11.88,7.98
			c3.82,2.67,7.71,5.22,11.61,7.77c3.55,2.32,7.1,4.65,10.5,7.21c3.51,2.64,6.87,5.5,9.78,8.8c2.86,3.25,5.31,6.86,7.36,10.68
			c1.03,1.92,2.03,3.91,2.81,5.96c0.78,2.06,1.28,4.29,1.79,6.43c1.08,4.52,1.82,9.1,2.37,13.71c0.54,4.55,0.87,9.13,1.15,13.7
			c0.26,4.28,0.47,8.55,0.64,12.84c0.17,4.34,0.33,8.67,0.43,13c0.13,5.49,0.29,10.99,0.4,16.48c0.08,4.15,0.12,8.3,0.13,12.45
			c0.01,5.22-0.02,10.43-0.08,15.65c-0.05,4.39-0.22,8.77-0.45,13.15c-0.24,4.51-0.58,9.01-1.01,13.51
			c-0.45,4.71-1.11,9.39-1.57,14.1c-0.42,4.31-0.5,8.67-0.54,13c-0.05,4.97-0.01,9.94,0.02,14.91c0.01,2.08,0.03,4.16,0.04,6.24"/>
	</g>
	<g id="POLYLINE_636_">
		<path d="M43.31,527.24c0.05,8.04,0.11,16.07,0.16,24.11c0.02,3.21,0.1,6.42,0.17,9.64c0.18,8.23,0.36,16.47,0.54,24.7
			c0.23,10.54,0.46,21.07,0.69,31.61c0.2,9.06,0.4,18.11,0.6,27.17c0.08,3.6,0.14,7.21,0.24,10.81c0.07,2.86,0.17,5.73,0.25,8.59
			c0.2,6.99,0.41,13.99,0.61,20.98c0.28,9.65,0.56,19.3,0.84,28.95c0.31,10.64,0.62,21.28,0.93,31.92c0.3,10.2,0.59,20.4,0.89,30.6
			c0.23,8.09,0.47,16.18,0.7,24.27c0.13,4.52,0.26,9.03,0.39,13.55c0.13,4.48,0.21,9.06,0.92,13.49c0.25,1.55,0.58,3.05,1.9,4.03
			c2.17,1.62,5.03,2.42,7.57,3.24c6.64,2.16,13.37,4.21,20.14,5.93c6.65,1.69,13.39,3.01,20.19,3.88c7.02,0.9,14.07,1.35,21.15,1.48
			c6.05,0.11,12.12,0.03,18.17,0.03c9.81,0,19.62,0,29.44,0c3.99,0,7.98,0,11.97,0c9.91,0,19.82,0,29.73,0
			c6.06,0,12.12,0.06,18.18-0.04c6.83-0.12,13.67-0.62,20.44-1.51c6.99-0.92,13.91-2.3,20.74-4.07c6.73-1.74,13.43-3.75,20.02-5.96
			c2.34-0.79,5.13-1.55,7.04-3.2c1.26-1.08,1.48-2.91,1.7-4.45c0.59-4.33,0.71-8.75,0.84-13.11c0.14-4.67,0.27-9.34,0.41-14.01
			c0.24-8.22,0.48-16.44,0.72-24.66c0.3-10.22,0.59-20.44,0.89-30.66c0.31-10.66,0.62-21.32,0.93-31.98
			c0.28-9.55,0.55-19.1,0.83-28.65c0.2-6.88,0.4-13.77,0.6-20.65c0.08-2.66,0.16-5.33,0.23-7.99c0.1-3.88,0.17-7.76,0.26-11.65
			c0.2-9.16,0.4-18.32,0.6-27.49c0.23-10.55,0.46-21.1,0.69-31.65c0.18-8.04,0.35-16.08,0.53-24.12c0.07-3.3,0.14-6.59,0.16-9.89
			c0.05-7.74,0.1-15.48,0.16-23.23"/>
	</g>
	<g id="POLYLINE_635_">
		<path d="M175.38,536.87c-4.83,0-9.66,0-14.49,0c-11.15,0-22.29,0-33.44,0c-12.38,0-24.77,0-37.15,0c-8.75,0-17.49,0-26.24,0
			c-1.02,0-2.04,0-3.06,0c-0.18,0-1.05-0.13-1.19,0c-0.16,0.15-0.01,1.29-0.01,1.5c0,3.95,0,7.91,0,11.86c0,7.29,0,14.58,0,21.87
			c0,9.78,0,19.55,0,29.32c0,11.58,0,23.16,0,34.74c0,12.55,0,25.1,0,37.65c0,12.67,0,25.34,0,38.02c0,12.14,0,24.29,0,36.43
			c0,10.76,0,21.52,0,32.28c0,8.55,0,17.11,0,25.66c0,5.66,0,11.31,0,16.97c0,1.48,0,2.95,0,4.43c0,0.23-0.13,1.2,0.03,1.35
			c0.17,0.15,1.14,0,1.35,0c1.07,0,2.14,0,3.21,0c3.67,0,7.35,0,11.02,0c11.3,0,22.6,0,33.9,0c12.33,0,24.66,0,36.99,0
			c8.48,0,16.97,0,25.45,0c2.63,0,5.26,0,7.89,0c8.69,0,17.38,0,26.07,0c12.44,0,24.88,0,37.33,0c11.12,0,22.25,0,33.37,0
			c3.52,0,7.03,0,10.55,0c0.98,0,1.97,0,2.95,0c0.14,0,0.96,0.11,1.07,0c0.17-0.17,0-1.37,0-1.6c0-1.56,0-3.11,0-4.67
			c0-5.76,0-11.51,0-17.27c0-8.7,0-17.4,0-26.1c0-10.83,0-21.67,0-32.5c0-12.12,0-24.23,0-36.35c0-12.74,0-25.49,0-38.24
			c0-12.53,0-25.05,0-37.58c0-11.46,0-22.93,0-34.39c0-9.74,0-19.48,0-29.22c0-7.14,0-14.28,0-21.41c0-3.83,0-7.65,0-11.48
			c0-0.27,0.12-1.11-0.07-1.26c-0.22-0.17-1.26,0-1.52,0c-1.12,0-2.23,0-3.35,0c-8.94,0-17.88,0-26.83,0c-12.49,0-24.98,0-37.47,0
			c-10.98,0-21.97,0-32.95,0C184.32,536.87,179.85,536.87,175.38,536.87z"/>
	</g>
	<g id="POLYLINE_634_">
		<path d="M197.55,515.45c2.78,0.02,5.97,0.46,8.14,2.37c0.54,0.47,1.47,1.42,0.64,2.04c-0.66,0.49-1.78,0.4-2.55,0.4
			c-6.19,0.01-12.38,0-18.57,0c-3.91,0-7.82,0-11.73,0c-6.93,0-13.86,0-20.79,0c-1.98,0-3.97,0.02-5.95,0
			c-0.67-0.01-2.1,0.07-2.54-0.61c-0.48-0.75,0.64-1.66,1.17-2.07c0.94-0.74,2.06-1.22,3.2-1.54c1.56-0.44,3.18-0.58,4.79-0.59
			c2.6-0.01,5.19,0,7.79,0c5.02,0,10.04,0,15.07,0c6.52,0,13.04,0,19.56,0C196.37,515.45,196.96,515.45,197.55,515.45z"/>
	</g>
	<g id="POLYLINE_633_">
		<path d="M271.72,518.4c1.03-1.55,1.42-3.27,1.68-5.11c0.47-3.4,0.58-6.85,0.69-10.28c0.15-4.73,0.28-9.46,0.3-14.19
			c0.02-6.03,0.04-12.06,0.06-18.1c0.03-9.76,0.06-19.53,0.1-29.29c0.04-10.95,0.07-21.9,0.11-32.85
			c0.03-9.59,0.06-19.19,0.09-28.78c0.02-5.7,0.04-11.39,0.06-17.09c0.02-4.8,0.06-9.61,0.19-14.41c0.19-7.42,0.55-14.83,1.3-22.22
			c0.68-6.76,1.72-13.46,3.07-20.12c1.09-5.41,2.19-10.82,3.36-16.22c2.01-9.33,4.03-18.67,6.04-28c2.02-9.36,4.04-18.72,6.06-28.08
			c0.96-4.44,2.4-9.18,2.31-13.74c-0.03-1.67-0.39-3.31-1.4-4.67c-1.56-2.11-4.01-3.55-6.22-4.86c-6.28-3.74-13.01-6.67-19.79-9.36
			c-6.58-2.61-13.31-4.9-20.08-6.96c-6.9-2.1-13.86-3.95-20.91-5.46c-7.03-1.5-14.13-2.67-21.27-3.52
			c-7.28-0.87-14.59-1.41-21.91-1.69c-7.1-0.27-14.22-0.24-21.33,0.04c-7.32,0.29-14.63,0.87-21.9,1.77
			c-6.99,0.86-13.96,2.03-20.84,3.53c-7.17,1.57-14.25,3.47-21.27,5.62c-6.82,2.09-13.57,4.47-20.2,7.1
			c-6.62,2.63-13.21,5.57-19.3,9.28c-2.07,1.27-4.38,2.67-5.78,4.71c-0.99,1.44-1.28,3.19-1.26,4.91c0.04,4.67,1.48,9.49,2.47,14.03
			c2.05,9.51,4.1,19.02,6.15,28.53c1.98,9.17,3.96,18.34,5.93,27.51c1.18,5.48,2.29,10.97,3.4,16.47c1.34,6.61,2.32,13.3,2.96,20.02
			c0.71,7.41,1.06,14.83,1.24,22.27c0.11,4.62,0.15,9.24,0.17,13.85c0.02,5.88,0.04,11.76,0.06,17.64
			c0.03,9.69,0.06,19.38,0.1,29.06c0.04,10.95,0.07,21.9,0.11,32.86c0.03,9.67,0.06,19.34,0.1,29.02c0.02,5.85,0.04,11.7,0.06,17.55
			c0.02,4.93,0.17,9.87,0.33,14.8c0.1,3.2,0.23,6.45,0.7,9.62c0.26,1.74,0.66,3.34,1.64,4.81"/>
	</g>
	<g id="POLYLINE_632_">
		<path d="M30.42,265.18c-0.07,3.79-0.14,7.58-0.21,11.36c-0.16,8.72-0.33,17.45-0.49,26.18c-0.18,9.67-0.36,19.34-0.54,29.02
			c-0.13,6.73-0.25,13.47-0.38,20.21c-0.03,1.71-0.06,3.41-0.06,5.11c-0.02,4.87-0.03,9.75-0.04,14.62
			c-0.02,8.15-0.05,16.29-0.07,24.44c-0.03,9.72-0.06,19.43-0.09,29.15c-0.03,9.65-0.06,19.31-0.09,28.96
			c-0.02,7.96-0.05,15.92-0.07,23.89c-0.01,4.57-0.03,9.13-0.04,13.7c-0.01,4.11,0.08,8.22,0.53,12.31
			c0.62,5.61,1.78,11.58,5.01,16.32c3.18,4.66,8.35,6.74,13.62,8.16c5.98,1.6,12.34,1.61,18.49,1.74c4.64,0.1,9.29,0.16,13.93,0.17
			c5.82,0.01,11.65,0.02,17.47,0.02c9.36,0.01,18.71,0.02,28.07,0.04c9.47,0.01,18.95,0.02,28.42,0.04
			c6.29,0.01,12.58,0.02,18.86,0.02c1.92,0,3.83,0,5.75,0c6.45-0.01,12.91-0.02,19.36-0.02c9.53-0.01,19.05-0.02,28.58-0.04
			c9.29-0.01,18.57-0.02,27.86-0.03c5.64-0.01,11.28-0.01,16.92-0.02c4.65-0.01,9.31-0.06,13.96-0.18
			c6.23-0.16,12.64-0.17,18.68-1.88c5.36-1.52,10.37-3.7,13.45-8.59c3.05-4.84,4.13-10.78,4.7-16.39c0.4-3.97,0.47-7.96,0.46-11.94
			c-0.01-4.73-0.03-9.47-0.04-14.2c-0.02-8.03-0.05-16.07-0.07-24.1c-0.03-9.69-0.06-19.37-0.09-29.06
			c-0.03-9.72-0.06-19.43-0.09-29.15c-0.02-8.05-0.05-16.09-0.07-24.14c-0.01-4.7-0.03-9.4-0.04-14.1
			c-0.01-1.76-0.04-3.52-0.07-5.27c-0.13-6.91-0.26-13.83-0.39-20.74c-0.18-9.74-0.36-19.48-0.55-29.22
			c-0.16-8.6-0.32-17.21-0.48-25.81c-0.07-3.52-0.13-7.03-0.2-10.55"/>
	</g>
	<g id="POLYLINE_631_">
		<path d="M59.79,828.94c-0.5,0-2.61-0.27-2.85,0.05c-0.13,0.17,0,0.91,0,1.12c0,0.69,0,1.38,0,2.07c0,1.51,0,3.01,0,4.52
			c0,1.03-0.03,0.89,0.98,1.21c4.22,1.34,8.45,2.66,12.7,3.88c8.21,2.35,16.45,4.69,24.73,6.77c8.31,2.09,16.67,3.12,25.21,3.53
			c7.42,0.36,14.86,0.37,22.29,0.39c10.59,0.02,21.19,0.03,31.78,0.05c8.64,0.01,17.27-0.02,25.91-0.03
			c7.95-0.01,15.91-0.01,23.86-0.2c8.34-0.2,16.7-0.67,24.89-2.33c9.05-1.82,17.92-4.61,26.81-7.06c3.4-0.93,6.79-1.91,10.16-2.94
			c2.29-0.71,4.58-1.43,6.86-2.16c0.91-0.29,0.69-0.42,0.69-1.39c0-1.54,0-3.09,0-4.63c0-0.61,0-1.22,0-1.83
			c0-0.16,0.11-0.89,0-1.01c-0.13-0.14-1.02-0.02-1.23-0.02c-0.54,0-1.08,0-1.62,0"/>
	</g>
	<g id="POLYLINE_630_">
		<path d="M35.32,522.29c-1.73,0-3.46,0-5.19,0c0.01,2.07,0.02,4.14,0.03,6.21c0.03,5.45,0.05,10.9,0.08,16.35
			c0.04,7.66,0.07,15.32,0.11,22.98c0.04,8.79,0.08,17.58,0.12,26.38c0.04,8.76,0.08,17.52,0.12,26.27
			c0.04,7.56,0.07,15.12,0.11,22.68c0.02,5.28,0.05,10.56,0.07,15.85c0.01,1.86,0,3.72,0.03,5.57c0.06,4.28,0.18,8.57,0.27,12.85
			c0.18,8.47,0.35,16.94,0.53,25.41c0.16,7.63,0.32,15.26,0.48,22.89c0.06,2.67,0.1,5.33,0.19,8c0.24,7.26,0.49,14.52,0.73,21.77
			c0.22,6.59,0.44,13.17,0.67,19.76c0.19,5.56,0.52,11.13,0.78,16.69c0.26,5.52,0.64,11.04,1.12,16.55
			c0.49,5.64,1.09,11.31,2.26,16.85c0.95,4.47,2.27,9.54,5.46,12.98c2.97,3.21,7.54,4.22,11.7,4.76c5.83,0.75,11.76,0.63,17.62,0.95
			c2.75,0.15,5.49,0.36,8.23,0.56"/>
	</g>
	<g id="POLYLINE_629_">
		<path d="M39.75,832.18c0.01,2.65,0.03,5.29,0.19,7.93c0.13,2.13,0.28,4.35,0.95,6.39c0.68,2.08,2.2,3.51,4.04,4.66
			c3.74,2.33,8.22,3.01,12.54,3.32c5.4,0.39,10.84,0.43,16.25,0.59c4.3,0.13,8.6,0.26,12.9,0.38c7.84,0.23,15.67,0.46,23.51,0.7
			c3.45,0.1,6.91,0.26,10.37,0.3c4.77,0.06,9.53,0.06,14.3,0.09c7.91,0.05,15.83,0.1,23.74,0.15c5.35,0.03,10.7,0.07,16.04,0.1
			c2.63,0.02,5.27-0.02,7.9-0.04c7.36-0.05,14.72-0.09,22.08-0.14c7.03-0.04,14.06-0.09,21.09-0.13c2.37-0.02,4.74-0.03,7.1-0.1
			c6.61-0.2,13.23-0.39,19.84-0.59c7.01-0.21,14.01-0.42,21.02-0.62c4.32-0.13,8.63-0.27,12.95-0.4c4.66-0.15,9.46-0.16,13.99-1.39
			c2.97-0.8,6.35-2.24,8.27-4.78c1.82-2.42,1.87-5.99,2.02-8.87c0.14-2.51,0.15-5.03,0.17-7.54"/>
	</g>
	<g id="POLYLINE_628_">
		<path d="M315.45,522.29c1.73,0,3.46,0,5.19,0c-0.01,2.07-0.02,4.14-0.03,6.21c-0.03,5.45-0.05,10.9-0.08,16.35
			c-0.04,7.66-0.07,15.32-0.11,22.98c-0.04,8.79-0.08,17.58-0.12,26.38c-0.04,8.76-0.08,17.52-0.12,26.27
			c-0.04,7.56-0.07,15.12-0.11,22.68c-0.03,5.28-0.05,10.56-0.07,15.85c-0.01,1.86,0,3.72-0.03,5.57
			c-0.06,4.28-0.18,8.57-0.27,12.85c-0.18,8.47-0.35,16.94-0.53,25.41c-0.16,7.63-0.32,15.26-0.48,22.89c-0.06,2.67-0.1,5.33-0.19,8
			c-0.24,7.26-0.49,14.52-0.73,21.77c-0.22,6.59-0.44,13.17-0.67,19.76c-0.19,5.56-0.52,11.13-0.78,16.69
			c-0.26,5.52-0.64,11.04-1.12,16.55c-0.49,5.64-1.09,11.31-2.26,16.85c-0.95,4.47-2.27,9.54-5.46,12.98
			c-2.97,3.21-7.54,4.22-11.7,4.76c-5.83,0.75-11.76,0.63-17.62,0.95c-2.75,0.15-5.49,0.36-8.23,0.56"/>
	</g>
	<g id="POLYLINE_627_">
		<path d="M206.02,518.13c3.97,0.01,7.94,0.01,11.91,0.02c8.24,0.01,16.47,0.03,24.71,0.04c7.12,0.01,14.23,0.02,21.35,0.04
			c3.4,0.01,6.8-0.09,10.16,0.49c4.94,0.86,9.29,3.15,13.25,6.16c0.58,0.44,1.14,0.88,1.71,1.33c0,0.08-19.62,0.48-20.89,0.51
			c-9.13,0.22-18.26,0.45-27.38,0.67c-5.88,0.14-11.76,0.27-17.64,0.34c-7.46,0.08-14.93,0.07-22.39,0.1
			c-8.33,0.04-16.66,0.08-25,0.11c-5.97,0.02-11.95-0.05-17.93-0.08c-9.4-0.04-18.8-0.08-28.2-0.13c-4.1-0.02-8.21-0.15-12.31-0.24
			c-10.43-0.24-20.87-0.47-31.3-0.71c-7.29-0.17-14.57-0.33-21.86-0.5c-0.86-0.02-1.71-0.05-2.57-0.08c0-0.21,1.52-1.19,1.73-1.34
			c0.49-0.37,0.98-0.74,1.48-1.09c0.95-0.67,1.94-1.29,2.96-1.87c2.21-1.26,4.56-2.23,7.04-2.82c3.41-0.81,6.86-0.84,10.34-0.85
			c6.6-0.01,13.2-0.02,19.8-0.03c8.39-0.01,16.77-0.03,25.16-0.04c4.79-0.01,9.58-0.02,14.37-0.02c0.07,0,0.14,0,0.21,0"/>
	</g>
	<g id="POLYLINE_625_">
		<line x1="283.78" y1="536.87" x2="283.78" y2="617.86"/>
	</g>
	<g id="POLYLINE_624_">
		<line x1="66.99" y1="536.87" x2="66.99" y2="617.86"/>
	</g>
	<g id="POLYLINE_623_">
		<path d="M277.98,313.28c-6.74-2.76-13.46-5.55-20.32-8.03c-7.16-2.58-14.35-4.66-21.76-6.36c-2.44-0.56-5.02-1.06-7.19-2.37
			c-1.24-0.75-2.37-1.66-3.64-2.37c-1.42-0.79-2.93-1.42-4.46-1.96c-6.52-2.3-13.49-3.31-20.35-3.94
			c-7.32-0.67-14.68-0.95-22.03-0.99c-7.5-0.04-15.01,0.07-22.49,0.56c-6.98,0.46-14.02,1.2-20.81,2.93
			c-3.22,0.82-6.48,1.83-9.38,3.47c-2.18,1.24-3.95,2.77-6.38,3.54c-3.36,1.07-6.87,1.66-10.29,2.51c-3.63,0.9-7.2,2.02-10.75,3.2
			c-6.78,2.27-13.43,4.91-20.05,7.62c-1.77,0.73-3.54,1.45-5.31,2.18c0-0.89-0.32-1.89-0.48-2.78c-0.18-0.98-0.36-1.95-0.55-2.93
			c-0.33-1.69-0.67-3.37-1.01-5.05c-0.54-2.66-1.07-5.32-1.64-7.98c-1.73-8.03-3.46-16.06-5.2-24.1
			c-2.31-10.71-4.62-21.43-6.93-32.14c-1.15-5.33-2.68-10.78-3.21-16.23c-0.19-1.97-0.2-4.12,0.74-5.92
			c1.12-2.15,3.36-3.61,5.34-4.87c6.41-4.09,13.49-7.17,20.53-9.97c7.24-2.88,14.62-5.36,22.06-7.63c7.21-2.2,14.54-4.05,21.93-5.54
			c7.52-1.52,15.1-2.64,22.73-3.47c7.47-0.81,14.99-1.25,22.5-1.38c7.76-0.13,15.51-0.01,23.25,0.48
			c7.72,0.48,15.41,1.32,23.06,2.49c7.41,1.14,14.77,2.65,22.02,4.52c7.58,1.95,15.05,4.27,22.45,6.82
			c7.22,2.48,14.34,5.3,21.22,8.6c3.27,1.57,6.52,3.27,9.57,5.24c1.97,1.27,4.2,2.76,5.24,4.96c0.89,1.89,0.81,4.12,0.58,6.14
			c-0.25,2.23-0.71,4.42-1.18,6.61c-1.79,8.29-3.58,16.59-5.37,24.88c-2.3,10.65-4.59,21.29-6.89,31.94
			c-1.23,5.73-2.45,11.46-3.63,17.2c-0.32,1.57-0.64,3.14-0.94,4.72c-0.17,0.88-0.34,1.76-0.5,2.64
			C278.31,311.39,277.98,312.39,277.98,313.28z"/>
	</g>
	<g id="POLYLINE_622_">
		<path d="M283.78,617.86c4.99,4.59,6.9,12.11,7.16,18.64c0.13,3.24,0.03,6.5,0.03,9.74c0,7.79,0,15.58,0,23.37
			c0,11.14,0,22.29,0,33.43c0,12.63,0,25.26,0,37.89c0,12.21,0,24.43,0,36.64c0,10.1,0,20.19,0,30.29c0,6.07,0,12.14,0,18.21
			c0,0.67,0,1.35,0,2.02c0,0.12,0.09,0.74,0,0.83c-0.08,0.09-0.55,0.02-0.68,0.02c-0.86,0-1.72,0-2.58,0c-8.32,0-16.63,0-24.95,0
			c-12.36,0-24.71,0-37.07,0c-11.33,0-22.66,0-33.98,0c-5.42,0-10.84,0-16.25,0c-4.27,0-8.55,0-12.82,0c-10.81,0-21.63,0-32.44,0
			c-12.52,0-25.04,0-37.55,0c-9.16,0-18.31,0-27.47,0c-1.16,0-2.31,0-3.47,0c-0.38,0-1.41,0.19-1.76,0
			c-0.28-0.15-0.15-0.69-0.15-1.08c0-3.71,0-7.42,0-11.13c0-7.07,0-14.13,0-21.2c0-9.65,0-19.3,0-28.95c0-11.48,0-22.97,0-34.45
			c0-12.44,0-24.89,0-37.33c0-12.75,0-25.5,0-38.25c0-12.21,0-24.42,0-36.62c0-10.83,0-21.65,0-32.48c0-8.78,0-17.55,0-26.33
			c0-5.88,0-11.76,0-17.64c0-1.61,0-3.22,0-4.82c0-0.25-0.19-1.57,0-1.77c0.09-0.09,0.7-0.01,0.83-0.01c0.91,0,1.82,0,2.73,0
			c3.42,0,6.84,0,10.26,0c11.05,0,22.09,0,33.14,0c12.41,0,24.82,0,37.24,0c8.91,0,17.82,0,26.72,0c2.71,0,5.42,0,8.13,0
			c8.63,0,17.26,0,25.9,0c12.48,0,24.96,0,37.44,0c10.59,0,21.18,0,31.77,0c2.79,0,5.57,0,8.36,0c0.22,0,1.26-0.16,1.44,0
			c0.13,0.11,0.03,0.81,0.03,1.01c0,8.46,0,16.91,0,25.37c0,12.25,0,24.51,0,36.76C283.78,605.96,283.78,611.91,283.78,617.86z"/>
	</g>
	<g id="POLYLINE_595_">
		<path d="M30.65,250.82c-3.21,1.64-6.17,3.79-9.07,5.92c-3.51,2.58-7.05,5.12-10.5,7.78c-4.69,3.63-10.06,7.58-10.87,13.87
			c-0.22,1.69-0.6,5.14,0.99,6.41c1.24,0.98,3.12,0.2,4.35-0.36c4.02-1.82,7.92-3.91,11.87-5.88c3.35-1.66,6.82-3.21,10.04-5.13
			c0.74-0.44,1.73-0.98,2.08-1.82c0.24-0.57,0.15-1.25,0.08-1.84c-0.1-0.86-0.32-1.67-0.64-2.47c-0.27-0.67-0.2-1.1,0.41-1.56
			c0.31-0.24,0.67-0.41,1.03-0.57c-0.05,3.99-0.11,7.98-0.17,11.97c-0.14,9.79-0.27,19.59-0.41,29.38
			c-0.17,12.47-0.35,24.93-0.52,37.4c-0.17,12.01-0.33,24.02-0.5,36.03c-0.12,8.42-0.23,16.85-0.35,25.28
			c-0.04,2.71-0.09,5.41-0.09,8.12c-0.01,9.07-0.01,18.14-0.02,27.21c-0.01,12.2-0.02,24.4-0.03,36.6
			c-0.01,6.08-0.1,12.17,0.01,18.25c0.13,7.68,0.69,16.1,4.34,23.02c0.73,1.38,1.6,2.68,2.64,3.84c-1.73,0-3.46,0-5.19,0
			c0.01,5.93,0.02,11.86,0.03,17.78c0.02,11.43,0.04,22.86,0.07,34.29c0.02,7.65,0.03,15.3,0.04,22.95c0,0.83-0.19,1.07-0.62,1.85
			c-0.72,1.3-1.32,2.67-1.77,4.09c-0.99,3.1-1.23,6.39-1.32,9.63c-0.13,4.77-0.05,9.54-0.03,14.31c0.04,9.32,0.08,18.64,0.11,27.96
			c0.05,11.64,0.09,23.29,0.14,34.94c0.04,8.98,0.07,17.96,0.11,26.95c0.02,4.83,0.01,9.66,0.26,14.48c0.39,7.5,1.6,14.89,3.71,22.1
			c0.53,1.8,1.1,3.58,1.71,5.35c0.45,1.31,0.56,2.13,0.62,3.51c0.21,5.26,0.42,10.52,0.64,15.78c0.3,7.45,0.65,14.89,1.14,22.33
			c0.48,7.48,1.09,15.01,2.4,22.4c0.31,1.77,0.69,3.54,1.15,5.28c0.23,0.85,0.48,1.71,0.76,2.54c0.13,0.38,0.31,0.77,0.41,1.16
			c0.13,0.52,0.08,1.05,0.09,1.59c0.02,3.56,0.02,7.2,0.61,10.72c0.26,1.58,0.67,3.21,1.7,4.48c1.3,1.62,3.25,2.77,5.13,3.58
			c3.2,1.38,6.68,1.87,10.13,2.13c4.11,0.3,8.25,0.35,12.37,0.48c7.02,0.22,14.04,0.42,21.05,0.63c9.54,0.28,19.08,0.57,28.63,0.85
			c5.77,0.17,11.55,0.09,17.33,0.13c10.84,0.07,21.69,0.14,32.53,0.2c4.42,0.03,8.83,0.02,13.25-0.01
			c10.95-0.07,21.91-0.14,32.86-0.21c5.5-0.03,11.01,0.03,16.51-0.13c9.84-0.29,19.67-0.58,29.51-0.88
			c7.02-0.21,14.04-0.41,21.06-0.63c3.98-0.13,7.98-0.17,11.95-0.51c3.33-0.29,6.69-0.86,9.74-2.29c1.75-0.82,3.57-1.96,4.74-3.53
			c1.06-1.42,1.41-3.26,1.66-4.97c0.24-1.7,0.34-3.43,0.41-5.15c0.04-1.02,0.06-2.03,0.08-3.05c0.02-0.99-0.1-2.06,0.03-3.04
			c0.11-0.81,0.54-1.65,0.78-2.45c0.25-0.8,0.47-1.62,0.67-2.44c0.43-1.74,0.78-3.49,1.08-5.26c1.28-7.57,1.86-15.26,2.35-22.92
			c0.48-7.45,0.8-14.91,1.1-22.37c0.2-5.06,0.41-10.11,0.61-15.17c0.05-1.3,0.42-2.29,0.84-3.54c0.6-1.77,1.16-3.55,1.67-5.35
			c2.05-7.2,3.19-14.58,3.53-22.05c0.28-6.27,0.21-12.57,0.24-18.85c0.07-11.26,0.14-22.52,0.21-33.79
			c0.03-5.09,0.08-10.18,0.09-15.27c0.01-9.73,0.03-19.46,0.04-29.19c0.01-7.2,0.22-14.43-0.05-21.62
			c-0.12-3.21-0.44-6.44-1.51-9.48c-0.52-1.46-1.23-2.8-1.97-4.16c-0.28-0.51-0.22-0.89-0.22-1.49c0.02-7.97,0.03-15.95,0.05-23.92
			c0.02-11.39,0.04-22.78,0.07-34.17c0.01-5.53,0.02-11.06,0.03-16.59c-1.73,0-3.46,0-5.19,0c5-5.56,6.19-13.86,6.72-21.03
			c0.42-5.73,0.27-11.51,0.27-17.25c-0.01-11.46-0.02-22.92-0.03-34.39c-0.01-10.73-0.02-21.46-0.03-32.2c0-2.92,0-5.84-0.04-8.76
			c-0.1-7.1-0.2-14.2-0.3-21.3c-0.16-11.44-0.32-22.87-0.48-34.31c-0.17-12.64-0.35-25.29-0.53-37.93
			c-0.15-10.72-0.3-21.44-0.45-32.16c-0.08-5.67-0.16-11.33-0.24-17c0-0.26-0.01-0.52-0.01-0.78c0.52,0.23,1.24,0.54,1.52,1.09
			c0.28,0.55-0.09,1.01-0.28,1.53c-0.37,1.03-0.75,2.54-0.43,3.63c0.49,1.69,3.33,2.72,4.69,3.41c3.37,1.72,6.79,3.38,10.18,5.07
			c2.98,1.49,5.95,3.04,8.97,4.45c1.18,0.55,2.7,1.24,4.01,0.76c1.36-0.5,1.55-2.21,1.64-3.46c0.17-2.3-0.12-4.72-1.05-6.84
			c-0.88-2.02-2.34-3.72-3.91-5.24c-2.39-2.32-5.07-4.34-7.72-6.34c-2.98-2.25-6-4.45-9.02-6.66c-2.5-1.83-5.05-3.65-7.76-5.17
			c-0.46-0.26-0.94-0.36-1.08-0.83c-0.21-0.71-0.02-1.8-0.02-2.54c-0.02-2.38-0.04-4.76-0.06-7.13c-0.03-3.24-0.02-6.47,0.01-9.71
			c0.05-6.75,0.41-13.4,1.18-20.1c0.82-7.13,1.49-14.26,1.91-21.43c0.43-7.13,0.5-14.27,0.58-21.41c0.08-6.77-0.01-13.56-0.14-20.33
			c-0.13-7.19-0.3-14.38-0.52-21.56c-0.22-6.92-0.53-13.84-0.94-20.74c-0.41-6.79-0.95-13.59-2.07-20.3
			c-0.56-3.38-1.28-6.73-2.17-10.03c-0.22-0.83-0.46-1.65-0.71-2.47c-0.26-0.85-0.3-1.48-0.29-2.37c0.02-1.67-0.01-3.34-0.09-5
			c-0.31-6.1-1.65-11.81-5.66-16.58c-4.21-5.01-10.12-8.61-15.53-12.17c-6.07-3.99-12.23-7.82-18.42-11.63
			c-5.84-3.6-11.76-7.08-17.78-10.39c-5.92-3.25-12.02-6.18-18.35-8.53c-6.28-2.32-12.78-4.16-19.39-5.27
			c-2.92-0.49-6.05-0.97-9.02-0.82c-0.63,0.03-0.9,0.13-1.2,0.66c-0.23,0.41-0.03,0.34-0.64,0.34c-6.48,0-12.96,0-19.45,0
			c-10.28,0-20.55,0-30.83,0c-6.76,0-13.52,0-20.27,0c-0.42,0-0.69,0.08-0.88-0.16c-0.14-0.18-0.07-0.44-0.29-0.62
			c-0.18-0.15-0.43-0.17-0.66-0.2c-1.17-0.15-2.43,0.04-3.6,0.12c-1.67,0.11-3.34,0.31-4.99,0.57c-6.58,1.03-13.06,2.83-19.32,5.1
			c-6.36,2.3-12.49,5.2-18.43,8.43c-6.06,3.29-11.99,6.8-17.87,10.4c-6.32,3.87-12.6,7.81-18.8,11.86
			c-5.31,3.47-11.03,7-15.28,11.77c-4.12,4.62-5.69,10.2-6.09,16.27c-0.11,1.67-0.15,3.34-0.15,5.01c0,0.76,0.12,1.62-0.02,2.36
			c-0.17,0.9-0.55,1.8-0.79,2.68c-0.91,3.24-1.64,6.54-2.21,9.85c-1.2,6.91-1.76,13.91-2.2,20.91c-0.43,6.96-0.73,13.93-0.96,20.9
			c-0.23,7.17-0.38,14.35-0.52,21.53c-0.13,6.68-0.18,13.37-0.14,20.05c0.04,7.08,0.17,14.16,0.55,21.22
			c0.37,6.96,1.01,13.89,1.81,20.82c0.81,7.02,1.25,13.97,1.32,21.04C30.79,237.57,30.71,244.2,30.65,250.82z"/>
	</g>
</g>
</svg>
