<?xml version="1.0" encoding="utf-8"?>
<!-- Generator: Adobe Illustrator 24.1.1, SVG Export Plug-In . SVG Version: 6.00 Build 0)  -->
<svg version="1.1" id="Layer_1" xmlns="http://www.w3.org/2000/svg" xmlns:xlink="http://www.w3.org/1999/xlink" x="0px" y="0px"
	 width="620.7" height="879.61" viewBox="0 0 620.7 879.61" style="enable-background:new 0 0 620.7 879.61;" xml:space="preserve">
<style type="text/css">
	.st0{fill:#1A1A1A;}
</style>
<g>
	<path d="M0,625.2c1.09-1.94,3.13-2.26,5.03-2.9c-0.01-0.91-1.24-0.39-1.34-1.35c0.99-0.58,2.17-0.07,3.23-0.33
		c1.12-0.28,2.23-0.64,3.36-0.85c1.16-0.21,2.2-0.67,3.27-1.13c1.04-0.45,2.12-0.83,3.36-1.3c-1.9-1.77-4.34-2.44-6.38-3.99
		c1.56-0.91,3.16-0.84,4.68-1.09c1.63-0.26,3.28-0.35,4.92-0.52c0.41-0.04,0.86-0.02,1.22-0.18c2.44-1.1,5.04-0.98,7.57-0.76
		c2.81,0.25,4.89-1.21,7.14-2.38c0.21-0.11,0.44-0.29,0.55-0.49c1.68-3.35,4.79-5.43,7.19-8.13c0.32-0.36,0.83-0.59,0.81-1.19
		c-0.28-0.06-0.55-0.13-0.81-0.19c-0.05-0.45,0.27-0.6,0.53-0.78c5.48-3.75,9.51-8.86,13.43-14.11c3.25-4.34,4.69-9.41,6.28-14.43
		c4.98-15.74,8.79-31.81,13.51-47.63c4.55-15.27,9.22-30.51,15.4-45.23c4.13-9.83,8.71-19.44,13.74-28.85
		c5.26-9.85,10.99-19.41,17.5-28.49c4.48-6.25,9.36-12.17,14.66-17.76c2.56-2.7,5.19-5.33,7.8-7.98c6.39-6.51,13.61-12.02,21-17.31
		c4.99-3.57,10.36-6.48,15.8-9.27c1.19-0.61,1.97-1.85,3.48-2c1.32-0.13,2.47-0.95,3.61-1.59c4.04-2.26,8.43-3.74,12.56-5.77
		c5.23-2.58,9.85-6.04,14.29-9.76c1.09-0.91,1.82-2.07,2.26-3.48c2.65-8.47,7.57-15.53,13.66-21.87c3.85-4.01,8.1-7.54,12.68-10.68
		c1.51-1.03,3.1-1.92,4.78-2.61c3.29-1.35,5.89-3.6,8.36-6.06c0.82-0.82,1.6-1.65,2.17-2.69c0.53-0.97,0.58-1.82,0.02-2.79
		c-1.49-2.56-2.98-5.01-5.31-7.02c-4.52-3.9-8.5-8.33-11.28-13.71c-0.26-0.51-0.62-0.96-1-1.55c-1.02,0.63-1.45,1.63-2.03,2.47
		c-2.88,4.13-5.69,8.32-8.61,12.43c-2.58,3.63-5.04,7.36-7.89,10.79c-0.97,1.17-1.59,2.49-2.1,3.9c-0.82,2.25-1.68,4.48-2.55,6.71
		c-0.3,0.77-0.64,1.52-1.01,2.26c-1.38,2.76-4.97,5.21-9.2,4.17c-5.14-1.27-10.12-3.01-14.92-5.26
		c-9.78-4.57-18.86-10.27-27.21-17.11c-3.76-3.09-7.25-6.5-10.56-10.09c-5-5.43-9.32-11.36-13.43-17.47
		c-4.07-6.03-8.28-11.96-11.93-18.26c-2.66-4.58-5.02-9.31-7.12-14.17c-1.45-3.35-3.28-6.51-5.29-9.52
		c-1.57-2.34-1.75-4.33-0.37-6.78c1.5-2.65,2.87-5.41,3.99-8.25c2.95-7.44,5.84-14.91,8-22.63c0.56-1.99,1-4,1.21-6.05
		c0.1-0.97,0.38-1.74,1.21-2.3c0.72-0.49,1.01-1.24,1.23-2.07c0.83-3.2,1.64-6.41,1.54-9.74c-0.05-1.53,0.54-2.4,1.84-3.16
		c2.36-1.39,4.71-2.72,7.48-3.11c0.67-0.09,1.29-0.41,1.65-1c0.52-0.84,1.28-1.18,2.2-1.44c8.65-2.5,17.42-4.52,26.24-6.3
		c1.29-0.26,2.63-0.19,3.95,0.07c2.13,0.43,4.28,0.45,6.41,0.03c2.83-0.57,5.59,0.01,8.36,0.43c0.4,0.06,0.8,0.26,1.13,0.48
		c0.79,0.52,0.79,1.5,0.03,2.07c-0.33,0.24-0.71,0.43-1.09,0.59c-0.38,0.16-0.79,0.23-1.18,0.37c-4.28,1.61-5.24,2.52-7.43,7.05
		c2.32,0.09,4.62-0.1,6.89,0.24c1.22,0.18,2.46,0.33,3.59,0.87c1.24,0.59,1.36,1.52,0.22,2.21c-1.12,0.68-2.32,1.33-3.56,1.69
		c-2.28,0.66-3.91,1.95-5.12,3.99c-2.32,3.91-6.03,6.28-9.9,8.4c-3.76,2.07-7.54,4.12-11.75,5.2c-0.39,0.1-0.76,0.32-1.11,0.54
		c-0.19,0.11-0.31,0.33-0.65,0.71c2.2,0.44,4.52-0.79,6.52,0.99c-1.2,1.45-2.29,2.77-3.39,4.08c-0.21,0.25-0.47,0.46-0.69,0.71
		c-2.51,2.8-2.84,3.35-2.41,7.12c0.27,2.37-0.53,4-2.35,5.32c-1.96,1.42-3.51,3.26-5.04,5.1c-0.57,0.68-1.09,1.52-1.3,2.37
		c-0.57,2.23-1.4,4.43-1.3,6.78c0.06,1.28-0.48,2.16-1.45,2.96c-1.79,1.48-1.9,2.06-1.04,4.26c0.57,1.48,1.39,2.82,2.38,4.04
		c3,3.7,6.52,6.73,10.79,8.95c6.27,3.27,12.83,5.69,19.69,7.35c0.72,0.17,1.45,0.41,2.18,0.44c2.43,0.12,4.43,1.13,6.24,2.69
		c0.4,0.34,0.74,0.9,1.38,0.89c0.62-0.36,0.55-1,0.67-1.55c1.76-7.47,3.53-14.93,5.91-22.23c1.33-4.08,2.6-8.2,4.59-12.02
		c1.37-2.63,1.31-5.4,1.36-8.2c0.07-4.13-0.63-8.22-0.65-12.36c-0.01-1.96-0.36-3.95-0.23-5.92c0.21-3.12,0.23-6.26,0.89-9.34
		c0.33-1.55,1.07-2.68,2.43-3.55c2.74-1.74,5.72-2.93,8.72-4.1c3.78-1.48,7.69-2.47,11.63-3.41c4.66-1.11,9.4-1.78,14.12-2.56
		c2.43-0.4,4.79-1.22,7.19-1.81c0.72-0.18,1.16-0.6,1.41-1.25c0.68-1.78,1.36-3.55,2-5.34c0.32-0.89,0.06-1.79-0.04-2.74
		c-1.33-0.42-2.19,1.05-3.66,0.86c0.17-1.64,0.34-3.24,0.5-4.8c-0.38-0.56-0.9-0.32-1.37-0.28c-1.49,0.12-2.98-0.01-4.45-0.23
		c-0.62-0.09-1.31-0.18-1.62-0.97c0.25-0.17,0.5-0.33,0.9-0.6c-5.03-1.37-10.25-2.04-14.25-5.8c0.43-0.69,1.05-0.49,1.58-0.52
		c1.23-0.07,2.47,0.03,3.71-0.18c1.15-0.2,1.96-0.84,2.71-1.61c1.01-1.02,1.22-1.55,1.46-3.25c-1.2,0.18-1.25,1.78-2.54,1.93
		c-0.28-1.05,0.62-1.97,0.35-3.04c-0.34-1.35-0.47-2.76-0.77-4.12c-0.36-1.61-0.98-3.15-1.59-4.68c-1.02-2.52-1.96-5.06-2.97-7.69
		c-1.05,0.51-0.06,1.79-1.07,2.38c-1.76-2.18-2.4-4.74-2.56-7.79c-3.25,2.66-6.43,5.05-10.23,6.34c-0.46-0.39-0.13-0.68,0.07-0.87
		c2.03-1.95,3.04-4.5,4.18-6.97c0.95-2.06,0.56-4.27,0.39-6.37c-0.15-1.9-0.22-3.79-0.24-5.68c-0.02-1.74-0.02-3.48,0-5.21
		c0.06-6.6,1.33-12.96,4.03-18.98c1.49-3.33,3.53-6.33,6.1-8.96c-0.07-0.63-0.14-1.27-0.21-1.98c-1.92-0.56-3.98,0.71-6.21-0.18
		c1.79-2.26,4.33-2.44,6.52-3.65c0.28-3.31,0.98-6.69,1.5-10.1c0.25-1.68-0.2-3.27-0.93-4.8c-1.93-4.04-3.28-8.28-4.22-12.66
		c-0.57-2.67-1.02-5.38-1.07-8.08c-0.11-6.31,1.27-12.3,4.75-17.67c1.99-3.07,4.89-5.16,8.05-6.82c2.95-1.55,6.18-2.41,9.51-2.55
		c3.26-0.14,6.38,0.78,9.36,2.03c6.14,2.57,11.15,6.65,15.61,11.53c2.86,3.12,5.46,6.41,7.59,10.06c0.83,1.42,1.55,2.91,2.4,4.5
		c1.4,0.11,2.86,0.47,4.44-0.22c0.92-0.4,2.12-0.16,3.19-0.26c5.77-0.53,11.52-0.45,17.29,0.26c7.15,0.88,14.19,2.14,21.08,4.23
		c0.65,0.2,1.29,0.24,1.94-0.02c2.24-0.93,4.56-1.46,6.99-1.37c0.86,0.03,1.31-0.48,1.82-1.07c2.42-2.82,5.08-5.4,8.02-7.7
		c2.11-1.64,4.38-2.99,6.82-3.99c3.94-1.61,8.03-1.9,12.15-0.82c4.16,1.09,7.05,3.89,9.18,7.47c1.57,2.65,2.48,5.55,2.7,8.67
		c0.5,7.34-1.11,14.22-4.2,20.83c-0.21,0.45-0.41,0.9-0.6,1.33c0.25,0.91,0.96,1.4,1.57,1.92c2.6,2.21,4.67,4.89,6.74,7.56
		c3.97,5.11,8.35,9.8,13.6,13.63c0.18,0.13,0.24,0.41,0.54,0.93c-2.47-0.65-4.66-1.26-6.88-1.78c-2.32-0.55-4.68-0.96-6.96-1.71
		c-2.18-0.72-4.37-1.42-6.5-2.11c-0.63,0.58-0.13,0.97,0.04,1.38c2.38,5.64,4.31,11.42,5.4,17.44c0.64,3.5,0.62,7.03,0.22,10.59
		c-0.62,5.4-0.98,10.84-1.59,16.24c-0.35,3.1-1.18,6.15-1.12,9.31c0.01,0.38-0.28,0.76-0.54,1.38c-1.69-3-1.81-6.52-4.34-9.07
		c-0.88,0.69-2.01,0.97-2.79,1.95c0.43,4.16,0.87,8.31,2.19,12.34c0.78,2.39,1.82,4.6,3.25,6.64c1.23,1.76,2.72,3.1,5.01,3.21
		c0.15,0.01,0.29,0.12,0.43,0.21c0.06,0.04,0.09,0.14,0.14,0.21c0.03,0.74-0.53,0.75-1.01,0.71c-1.3-0.11-2.6-0.29-4.27-0.49
		c1.31,1.48,2.4,2.68,3.46,3.91c2.81,3.27,5.42,6.64,6.95,10.76c1.22,3.28,1.56,6.56,0.58,9.95c-0.12,0.41-0.26,0.78-0.8,1.03
		c-0.48-0.83-0.3-1.84-0.72-2.72c-0.92-1.94-2.38-3.4-3.94-4.73c-2.08-1.77-4.5-3.07-6.94-4.3c-0.19-0.1-0.45-0.04-0.78-0.07
		c1.89,6.8,2.32,13.27-3.61,18.69c1.9,4.7,4.28,9.22,6.3,13.89c2,4.62,3.95,9.25,5.71,14.02c2.15,0.71,4.26,1.42,6.38,2.11
		c8.68,2.85,16.85,6.76,24.41,11.91c3.02,2.05,5.81,4.36,8.41,6.91c0.67,0.66,1.33,1.07,2.35,1.11c3.88,0.15,7.17,1.69,9.94,4.44
		c1.6,1.58,3.02,3.25,4.02,5.3c2.37,4.85,1.33,10.34-2.27,13.63c-0.37,0.33-0.81,0.68-0.75,1.22c0.16,1.52-0.46,2.92-0.59,4.4
		c-0.32,3.66-1.46,7.09-2.98,10.42c-2.02,4.4-4.62,8.4-8.15,11.74c-2.95,2.79-6.06,5.38-9.81,7.07c-1.82,0.82-3.12,2.4-4.76,3.25
		c-0.25,0.65-0.1,1.14,0.01,1.61c0.6,2.49,1.29,4.95,1.8,7.46c0.26,1.3,0.84,2.3,1.81,3.14c0.75,0.64,1.44,1.39,2.27,1.91
		c2.34,1.47,3.79,3.67,5.03,6.02c2.78,5.26,5.49,10.56,7.67,16.09c1.7,4.3,3.06,8.73,4.65,13.07c3.05,8.37,5.96,16.8,9.43,25.02
		c0.71,1.68,1.65,3.23,2.54,4.82c0.6,1.07,1.18,2.18,2.53,2.57c0.36,0.1,0.63,0.52,0.92,0.81c3.2,3.08,7.04,4.08,11.39,3.64
		c2.02-0.2,3.83-0.99,5.67-1.7c0.88-0.34,1.69-0.49,2.63-0.32c2.37,0.42,4.72,0.49,7.11-0.1c1.58-0.39,3.27-0.41,4.91-0.51
		c2.26-0.13,4.45-0.6,6.46-1.55c1.88-0.89,3.78-1.1,5.77-0.95c4.37,0.34,8.7,0.99,12.85,2.47c0.61,0.22,1.2,0.53,1.78,0.83
		c0.12,0.06,0.16,0.28,0.27,0.49c-0.9,0.73-2.02,0.59-3.04,0.64c-1.42,0.08-2.8,0.33-4.14,0.7c-1.47,0.4-1.73,0.86-1.44,2.34
		c0.1,0.51,0.23,0.89-0.16,1.32c-0.21,0.23-0.36,0.58-0.38,0.89c-0.35,3.98-3.14,5.73-6.48,6.53c-2.53,0.61-5.11,1.38-7.8,1.17
		c-1.23-0.09-2.4,0.64-3.67,0.38c-0.26-0.05-0.65,0.16-0.89,0.36c-1.39,1.19-2.64,2.52-3.39,4.21c-0.44,0.98-0.23,1.9,0.79,2.3
		c3.06,1.21,5.59,3.54,8.96,4.1c1.47,0.24,2.83,0.89,4.2,1.48c1.51,0.65,3,1.38,4.6,1.8c1.79,0.47,3.35,1.36,4.74,2.57
		c0.62,0.54,1.33,0.97,2.03,1.4c4.12,2.6,8.25,5.19,12.38,7.78c0.42,0.26,0.81,0.59,1.26,0.8c4.93,2.27,8.51,6.2,12.17,10.01
		c1.03,1.07,1.84,2.35,2.2,3.84c0.27,1.09-0.35,1.72-1.48,1.66c-0.7-0.04-1.25-0.4-1.82-0.72c-3.11-1.77-6.42-3.02-9.96-3.59
		c-1.54-0.25-3.11-0.4-4.68-0.22c-4.01,0.45-7.69-0.54-11.18-2.45c-1.96-1.07-4-1.98-5.88-3.19c-1.26-0.81-2.51-1.65-3.52-2.73
		c-2.07-2.21-4.47-3.89-7.19-5.19c-2.45-1.18-4.71-2.75-7.35-3.53c-0.54-0.16-1.06-0.49-1.78-0.17c-0.28,0.68,0.3,1.18,0.62,1.66
		c3.02,4.54,6.17,8.98,9.79,13.07c2.53,2.86,5.23,5.5,8.42,7.62c0.72,0.48,1.17,1.13,1.38,1.98c0.26,1.04,0.63,2.05,0.88,3.09
		c0.76,3.24,2.34,6.15,3.78,9.11c1.27,2.61,2.57,5.18,2.82,8.13c0.05,0.57,0.08,1.16,0.02,1.73c-0.07,0.74-0.76,1.08-1.46,0.83
		c-0.58-0.21-0.91-0.69-1.3-1.11c-1.86-1.99-3.59-4.11-5.77-5.78c-0.39-0.3-0.74-0.71-1.18-0.88c-2.69-1.06-5.08-2.65-7.8-4.37
		c1.72,3.59,3.08,6.96,3.87,10.52c0.31,1.39,0.86,2.86,0.08,4.29c-1.05,0.59-1.76,0.07-2.42-0.62c-1.54-1.62-3.21-3.13-4.56-4.89
		c-1.48-1.91-3.4-3.13-5.47-4.16c-3.4-1.69-6.51-3.9-10.01-5.42c-1.42-0.62-2.4-1.85-3.21-3.31c-1.77-3.18-3.38-6.42-4.79-9.77
		c-0.19-0.45-0.44-0.9-0.75-1.28c-2.13-2.51-4.55-4.74-6.83-6.96c-0.65,0.23-0.86,0.62-0.97,0.98c-0.69,2.3-0.81,4.64-0.81,7.04
		c-0.01,4.21,1.24,8.35,0.65,12.59c-0.24,1.71-0.31,3.45-0.55,5.16c-0.25,1.83-1.08,3.47-2.08,5c-0.71,1.07-1.71,1.17-2.76,0.32
		c-1.24-1-2.15-2.3-2.86-3.7c-1.04-2.06-2.01-4.16-2.96-6.27c-0.52-1.15-1.37-2.04-2.19-2.96c-1.44-1.62-2.29-3.49-2.93-5.61
		c-1.37-4.56-0.69-8.98,0.2-13.44c0.14-0.73,0.22-1.49,0.5-2.17c0.73-1.78,0.68-3.45-0.22-5.17c-0.39-0.74-0.76-1.44-1.42-1.98
		c-1.42-1.14-2.85-2.27-4.2-3.47c-3.49-3.1-5.81-6.93-6.95-11.45c-0.39-1.53-0.53-3.12-0.3-4.68c0.29-1.91-0.11-3.43-1.4-4.98
		c-2.64-3.18-5.43-6.21-8.09-9.37c-0.2-0.24-0.39-0.55-0.91-0.44c0.04,1.86,0.24,3.72,0.98,5.47c1.74,4.1,3.41,8.23,4.85,12.45
		c0.11,0.31,0.18,0.63,0.25,0.95c1.65,7.72,4.22,15.23,4.97,23.17c0.71,7.58,1.27,15.15,0.73,22.74c-0.59,8.41-1.92,16.7-4.57,24.73
		c-0.48,1.47-0.63,2.73,0.81,3.76c-0.54,1.21-0.59,2.57-1.72,3.44c-0.77-1.19,0.52-1.79,0.68-2.62c-0.24-0.26-0.37-0.5-0.76-0.37
		c-0.43,0.3-0.52,0.88-0.68,1.42c-1.96,6.4-4.25,12.68-6.89,18.84c-2.67,6.23-5.68,12.3-9.02,18.2c-0.16,0.29-0.25,0.69-0.5,0.84
		c-2.17,1.31-3.02,3.65-4.27,5.63c-3.41,5.39-7.28,10.43-11.28,15.37c-1.09,1.35-2.26,2.63-3.38,3.95c-0.81,0.95-1.35,2-1.71,3.24
		c-1.79,6.26-3.69,12.5-5.58,18.74c-0.41,1.34-0.95,2.65-1.37,3.99c-0.66,2.11-1.71,4.08-1.9,6.37c-0.12,1.48-0.95,2.83-1.76,4.06
		c-1.09,1.65-2.14,3.44-3.61,4.7c-3.49,3-4.56,6.88-4.99,11.19c-0.55,5.51-1.63,10.93-3.44,16.17c-1.59,4.6-2.89,9.29-5.26,13.61
		c-2.5,4.56-4.88,9.2-7.08,13.91c-2.69,5.76-5.19,11.61-7.67,17.47c-6.17,14.6-11.58,29.5-16.42,44.59
		c-2.4,7.46-4.71,14.97-6.01,22.72c-0.66,3.9-0.9,7.88-1.72,11.74c-0.66,3.09-0.3,6.08,0.01,9.09c0.49,4.75,1.21,9.48,1.78,14.23
		c0.62,5.17,1.81,10.23,2.78,15.33c0.98,5.18,1.89,10.39,3.38,15.46c1.88,6.43,3.9,12.8,6.84,18.85c1.3,2.68,2.97,5.15,4.56,7.66
		c0.26,0.41,0.6,0.79,0.94,1.15c1.86,1.99,3.73,3.97,5.66,6.02c0.77,0.28,1.53-0.13,2.31-0.36c1.79-0.52,3.61-0.54,5.4-0.12
		c7.01,1.64,13.1,4.97,18.15,10.12c0.69,0.71,1.38,1.44,1.94,2.25c1.05,1.5,2.34,2.78,3.64,4.06c1.31,1.28,2.27,2.82,3.27,4.34
		c2.66,4.05,1.13,10.48-2.36,13.1c0.85,2.41-0.31,4.25-2,5.85c-1.57,1.48-3.31,2.69-5.34,3.52c-2.62,1.08-5.36,1.68-8.12,2.17
		c-1.22,0.22-2.37,0.58-3.52,1.1c-2.63,1.2-5.29,2.33-7.98,3.38c-2.54,0.99-5.18,1.65-7.94,1.73c-1.23,0.03-2.38,0.57-3.66,0.52
		c-1.75-0.07-3.47-0.13-5.05-0.93c-0.24,0.2-0.59,0.34-0.6,0.51c-0.13,1.82-1.38,2.7-2.8,3.48c-2.82,1.56-5.63,3.12-8.76,4.02
		c-0.81,0.23-1.62,0.32-2.43,0.43c-1.7,0.22-3.4,0.24-4.68,1.78c-0.61,0.73-1.76,0.86-2.72,1.11c-5.11,1.33-10.24,1.68-15.44,0.56
		c-2.66-0.57-5.4-0.75-7.98-1.71c-0.63-0.24-1.25-0.24-1.93-0.14c-4.95,0.74-9.68-0.27-14.35-1.86c-2.1-0.71-4.14-1.56-6.36-2
		c-2.58-0.51-5.01-1.65-7.22-3.16c-1.12-0.77-1.73-1.73-1.62-3.12c0.04-0.58-0.06-1.18,0.06-1.73c0.2-0.9-0.09-1.59-0.62-2.29
		c-0.6-0.79-1.19-1.59-1.65-2.47c-0.89-1.71-1.18-3.46-0.92-5.47c0.65-5.01,2.13-9.83,2.88-14.81c0.67-4.4,1.45-8.8,1.2-13.28
		c-0.12-2.27,0.63-4.4,0.8-6.63c0.1-1.3,0.28-2.63,0.33-3.93c0.18-4.53,0.47-9.06,0.63-13.6c0.14-3.98-0.59-7.85-0.87-11.76
		c-0.26-3.61-0.79-7.2-1.23-10.8c-0.58-4.67-1.2-9.33-2.34-13.9c-2.31-9.2-4.69-18.39-7.08-27.57c-0.33-1.27-0.88-2.49-1.38-3.71
		c-0.66-1.6-1.36-3.19-2.05-4.78c-0.49-1.13-0.9-2.27-1.71-3.27c-0.86-1.06-0.97-2.43-0.92-3.77c0.05-1.28,0.81-2.15,1.78-2.83
		c0.88-0.62,1.8-1.18,2.75-1.67c2.09-1.07,3.88-2.5,5.5-4.18c1.09-1.13,2.3-2.14,3.43-3.22c0.55-0.53,0.83-1.07,0.67-1.96
		c-0.25-1.37-0.19-2.8-0.26-4.2c-0.1-1.94,0.94-3.47,1.9-5c0.88-1.41,2.12-2.53,3.48-3.49c1.87-1.32,2.54-3.23,3.3-5.32
		c1.84-5.05,0.5-9.76-0.92-14.49c-1.69-5.63-4.15-10.96-6.73-16.23c-3.21-6.53-6.53-13-9.63-19.57
		c-5.31-11.22-9.79-22.74-12.33-34.95c-0.86-4.13-1.53-8.27-1.43-12.51c0.03-1.07-0.19-2.14-0.23-3.19
		c-0.09-1.96,0.17-3.94,0.32-5.91c0.39-5.4,1.84-10.56,3.73-15.6c1.16-3.09,2.33-6.17,3.97-9.06c1.06-1.86,2.04-3.78,2.74-5.83
		c0.16-0.46,0.42-0.9,0.69-1.31c2.6-4.01,4.82-8.26,7.68-12.1c1.3-1.74,1.3-2.22-0.15-3.89c-1.57-1.81-3.22-3.55-4.91-5.25
		c-6.29-6.35-12.08-13.12-17.26-20.41c-0.19-0.26-0.44-0.49-0.79-0.87c-0.79,1.35-1.52,2.62-2.28,3.87
		c-3.66,6.02-8.06,11.48-12.73,16.74c-4.22,4.75-8.63,9.34-12.59,14.31c-2.01,2.53-4,5.13-5.29,8.05c-1.33,2.99-3.27,5.67-4.08,8.93
		c-0.79,3.2-1.74,6.37-2.28,9.62c-0.43,2.61-0.35,5.2,0.06,7.83c0.5,3.17,0.74,6.38,0.92,9.59c0.23,4.13,0.26,8.26,0.26,12.38
		c0,4.96-0.73,9.86-1.44,14.76c-0.88,5.98-2.28,11.84-4.42,17.49c-2.44,6.42-5.26,12.66-8.78,18.57c-2.62,4.42-5.74,8.48-9.11,12.35
		c-1.22,1.4-2.36,2.77-1.88,4.83c-2.19,1.87-4.35,3.65-6.11,5.87c-0.4,0.51-0.96,0.91-1.52,1.26c-7.46,4.77-15.13,9.15-23.67,11.73
		c-5.22,1.58-10.54,2.74-15.91,3.7c-3.17,0.56-6.32,1.23-9.56,1.25c-0.24,0-0.5,0.16-0.73,0.11c-3.57-0.77-7.05,0.26-10.57,0.53
		c-0.16,0.01-0.33,0.04-0.5,0.03c-5.35-0.39-10.69,0.26-16.06-0.2c-7.41-0.63-14.49-2.33-21.32-5.2c-0.99-0.41-1.96-0.89-2.89-1.43
		c-0.63-0.37-1.21-0.87-1.16-1.89c1.92-0.27,3.93,0.13,5.89-0.69c-0.37-0.8-1.22-0.95-1.89-1.23c-3.98-1.66-7.69-3.82-11.28-6.17
		c-5.58-3.65-10.33-8.23-14.59-13.32c-4.36-5.21-7.97-10.94-11.39-16.79c-2.16-3.71-4.34-7.41-6.84-10.91
		c-2.63-3.68-5.81-6.75-9.52-9.3C1.28,626.35,0.55,625.95,0,625.2z"/>
</g>
<g>
	<path class="st0" d="M276.66,177c1.47,0.52,2.86,0.98,4.23,1.51c6,2.33,12.05,4.54,17.92,7.19c0.83,0.38,1.67,0.76,2.58,0.2
		c0.2-0.78-0.36-1.04-0.9-1.25c-3.47-1.34-6.91-2.74-10.41-3.99c-3.89-1.39-7.83-2.63-11.75-3.95c-0.62-0.21-1.23-0.45-1.93-0.72
		c-0.1-1.09-0.57-2.05-0.97-3.04c-2.68-6.51-4.65-13.21-5.25-20.28c-0.2-2.29-0.77-4.55-1.16-6.82c-1.13-6.6-1.77-13.23-1.09-20.08
		c2.17,0.27,4.27,0.55,6.38,0.77c0.62,0.06,1.08,0.3,1.53,0.7c3.1,2.72,6.47,5.19,9.28,8.18c3.48,3.73,7.12,7.36,9.89,11.72
		c1.06,1.66,2.27,3.25,3.62,4.69c2.74,2.93,6.19,3.57,10,2.63c0.24-0.06,0.46-0.18,0.7-0.26c0.14-0.04,0.29-0.04,0.43-0.06
		c0.05,0.16,0.17,0.33,0.14,0.47c-0.58,3.13,0.14,6.25,0.06,9.38c-0.08,2.97,0.91,5.66,3.04,7.87c1.93,2.01,4.14,2.54,6.75,1.59
		c1.71-0.62,3.33-1.42,4.79-2.49c0.49,0.5,0.28,1.02,0.16,1.43c-0.36,1.12-0.5,2.27-0.42,3.42c0.08,1.15-0.42,1.84-1.37,2.4
		c-0.74,0.44-1.71,0.69-1.99,1.7c0.2,0.53,0.6,0.56,1,0.37c0.66-0.31,1.29-0.68,2.12-1.12c0.4,1.76,0.36,3.49,0.97,5.09
		c0.14,0.37-0.07,0.99-0.31,1.38c-0.66,1.09-0.85,2.3-1.11,3.51c-0.56,2.6,0.34,4.77,2.12,6.53c2.01,1.98,4.59,2.87,7.37,3.15
		c0.34,0.03,0.65-0.08,0.87-0.44c-0.08-0.6-0.68-0.54-1.07-0.72c-0.9-0.42-1.8-0.81-2.54-1.52c-2.12-2.03-2.4-3.97-0.86-7.02
		c1.43,0.94,2.54,2.28,4.06,3.06c0.12,0.06,0.19,0.26,0.26,0.41c1.59,3.55,2.52,7.19,1.34,11.05c-0.44,1.43-1.39,2.64-2.47,3.67
		c-0.72,0.69-1.61,1.21-2.66,1.16c-1.17-0.05-2.31,0.53-3.53-0.38c-1.37-1.02-3.04-1.65-4.7-2.18c-0.37-0.12-0.68-0.52-1.26-0.17
		c3.05,2.43,6.21,4.62,9.48,6.65c4.04,2.51,7.46,5.71,10.64,9.2c0.17,0.18,0.35,0.37,0.45,0.59c1.22,2.57,3.03,4.64,5.1,6.61
		c1.32,1.26,2.1,3.15,2.97,4.83c2.58,4.92,4.78,10,5.74,15.5c1.14,6.56,1.28,13.15-0.44,19.65c-1.14,4.32-3.5,7.99-6.54,11.22
		c-2.38,2.53-5.04,4.76-7.71,6.98c-0.63,0.52-1.39,0.92-1.79,1.69c0.49,0.5,0.89,0.04,1.28-0.17c3.62-2.04,6.8-4.64,9.8-7.52
		c2.01-1.92,3.66-4.02,4.78-6.54c0.5-1.13,0.95-2.28,1.52-3.66c1.56,1.96,3.54,3.27,4.94,5.18c3.1,4.23,7.21,7.23,11.83,9.57
		c2.58,1.31,5.2,2.53,7.8,3.79c0.29,0.14,0.57,0.3,0.84,0.44c-0.2,5.52-1.79,10.61-3.81,15.59c-0.96,2.37-1.95,4.7-1.94,7.35
		c0,1.41-0.59,2.76-1.27,3.98c-0.64,1.14-0.79,2.33-0.77,3.58c0.03,1.9,0.26,3.78,0.64,5.64c0.4,1.95,0.55,3.92,0.52,5.91
		c-0.02,1.65,0,3.3,0.34,4.92c0.78,3.66,0.4,7.4,0.74,11.09c0.59,0.05,0.67-0.33,0.72-0.75c0.08-0.65,0.16-1.3,0.25-1.97
		c0.89,0.16,0.98,0.92,1.18,1.49c0.91,2.57,1.79,5.18,2.01,7.9c0.29,3.6,1,7.2,0.25,10.84c-0.19,0.95-0.04,1.98-0.04,2.97
		c0.01,1.98-0.12,3.95-0.49,5.91c-0.42,2.18-0.79,4.37-1.19,6.55c-0.08,0.42-0.29,0.77-0.65,1.03c-0.64,0.21-1.09-0.26-1.57-0.53
		c-3.4-1.89-7.11-2.63-10.92-2.93c-1.05-0.08-2.13,0.19-3.2,0.3c-3.84,0.39-5.68-0.75-7.12-4.48c-0.17-0.43-0.39-0.69-0.8-0.83
		c-0.33-0.12-0.58-0.3-0.69-0.87c0.75-0.07,1.51-0.14,2.2-0.21c0.34-0.77-0.19-1.01-0.58-1.25c-1.65-0.99-2.46-1.15-4.18-0.88
		c-0.13,0.9,0.86,0.87,1.17,1.39c-0.24,0.15-0.48,0.31-0.89,0.57c2.36,2.27,3.46,5.34,5.45,8.08c-2.95,1.42-4.9,4.12-7.71,5.76
		c0.03,0.53,0.72,0.25,0.96,0.86c0.49-0.48,0.94-0.89,1.36-1.34c5.54-5.84,12.35-7.28,19.77-4.96c9.14,2.85,14.53,9.39,16.46,18.73
		c0.71,3.42,0.53,6.9,0.16,10.36c-0.03,0.25-0.09,0.49-0.08,0.74c0.13,5.27-2.77,8.97-6.32,12.37c-2.97,2.84-6.49,4.82-10.24,6.4
		c-0.95,0.4-1.43,0.98-1.77,1.89c-0.96,2.58-1.14,5.32-1.72,7.98c-0.21,0.97-0.51,1.92-0.19,2.97c0.17-0.2,0.43-0.36,0.47-0.56
		c0.55-2.43,1.74-4.59,2.69-6.86c1.2-2.86,3.12-4.76,5.82-6.03c1.28,0.69,2.03,1.81,2.76,2.88c4.53,6.65,8.48,13.61,10.86,21.35
		c1.96,6.36,2.97,12.87,2.4,19.53c-0.42,4.94-1.16,9.83-3.23,14.42c-1.59,3.51-3.63,6.69-6.79,9c-2.93,2.15-6.25,3.31-9.88,3.57
		c-1.47,0.1-3.46-0.44-5.43-1.38c1.16-2.04,1.82-2.77,3.83-4.23c-0.65-0.26-1.24-0.28-1.84,0.19c-1.23,0.97-2.52,1.87-3.77,2.82
		c-2.11,1.6-4.09,3.38-6.32,4.77c-4.82,3.01-10.07,4.02-15.68,2.77c-4.22-0.94-7.81-2.99-10.93-5.99
		c-6.09-5.85-9.32-13.14-10.87-21.26c-0.8-4.21-1.21-8.49-1.07-12.8c0.04-1.32,0.04-2.65,0-3.97c-0.25-8.47,1.63-16.53,4.61-24.41
		c1.39-3.67,2.6-7.41,4.07-11.63c-1.84,1.77-2.22,3.81-3.36,5.33c-0.68-0.22-0.63-0.76-0.71-1.23c-0.48-3.18-0.98-6.35-1.41-9.54
		c-0.12-0.89-0.18-1.84-0.02-2.72c0.54-3.12,0.2-6.26,0.43-9.39c0.28-3.78,0.79-7.53,1.25-11.29c0.11-0.87,0.26-1.74,0.03-3.06
		c-1.47,4.39-1.93,8.54-2.61,12.58c-0.71,0.13-0.86-0.32-1.06-0.64c-5.44-8.79-11.35-17.25-17.81-25.32
		c-0.93-1.17-1.72-2.41-2.44-3.72c-1.32-2.38-2.75-4.71-4.12-7.06c-0.29-0.5-0.74-0.98-0.82-1.52c-0.5-3.27-2.45-5.93-3.68-8.89
		c-1.99-4.79-3.12-9.72-3.15-14.92c-0.03-5.04,0.37-10.05,0.97-15.05c0.12-0.98,0.1-1.98,0.16-2.97c0.12-2.22,0.43-4.45,0.34-6.66
		c-0.18-4.4-1.04-8.68-3.18-12.61c-1.26-2.31-2.56-4.61-3.94-7.09c1.9,0.07,3.3,1.25,4.98,1.51c1.71,0.26,3.4,0.66,5.21,0.38
		c-0.33-0.76-1.02-0.83-1.62-1.01c-4.94-1.49-9.52-3.73-13.88-6.49c-4-2.53-7.61-5.52-10.79-9.02c-1.06-1.16-2.16-2.28-3.18-3.47
		c-6.75-7.87-10.7-17.04-12-27.26c-0.77-6.09-0.18-12.19,1.5-18.15c1.06-3.74,2.1-7.47,3.65-11.04c0.53-1.21,0.94-2.47,1.88-3.46
		c0.73-0.76,0.68-1.84,1.11-2.73c1.41-3,3.07-5.84,5.03-8.52c1.07-1.47,2.01-3.03,3.09-4.5c2.34-3.19,3.46-6.92,4.74-10.58
		c1.73-4.94,2.84-10.01,2.72-15.29C276.23,178.29,276.18,177.78,276.66,177z M348.26,429.45c-0.17,0.15-0.35,0.3-0.52,0.45
		c13.45,11.19,22.86,24.74,24.93,42.52c0.69-0.12,0.65-0.55,0.71-0.95c0.15-0.93-0.28-1.78-0.32-2.68
		c-0.2-4.61-1.64-8.91-3.43-13.08c-3.69-8.62-9.17-16-16.13-22.27C351.89,431.97,350.02,430.77,348.26,429.45z M344.42,311.85
		c-0.3,1.03-0.29,1.98-0.33,2.94c-0.19,4.15-1.39,7.9-4.33,10.97c-1.43,1.5-1.6,3.07-0.3,4.6c2.65,3.12,4.42,6.73,6.05,10.43
		c0.19,0.43,0.18,1.02,0.84,1.08c0.07-0.14,0.21-0.28,0.2-0.4c-0.36-2.61-0.84-5.19-1.82-7.65c-0.58-1.46-1.34-2.83-2.26-4.1
		c-0.82-1.13-0.97-2.16-0.1-3.38c1.02-1.42,1.62-3.05,1.88-4.78c0.24-1.54,0.35-3.1,0.66-4.62
		C345.25,315.21,345.13,313.56,344.42,311.85z M299.71,259.77c-0.22,0.34-0.4,0.53-0.47,0.76c-0.27,0.78-0.47,1.58-0.74,2.35
		c-1.44,4.15-4.88,7.16-9.15,6.98c-3.92-0.17-7.12-1.82-9.48-5.01c-0.69-0.93-1.16-2.02-2.28-3.11c0.05,0.73,0.01,1.07,0.11,1.36
		c0.15,0.46,0.36,0.92,0.61,1.34c1.87,3.21,4.65,5.37,8.15,6.43c6.55,1.99,12.85-2.14,13.91-9.15
		C300.47,261.06,300.36,260.4,299.71,259.77z M322.79,182.35c-2.24-0.9-4.48-0.59-6.67-0.66c-2.15-0.08-3.48,1.63-5.16,2.64
		c-0.99-0.73-1.19-1.88-1.86-2.69c-0.46-0.56-1.04-0.61-1.53-0.23c-1.41,1.09-2.44,2.47-2.57,4.33c-0.04,0.57-0.02,1.18,0.8,1.54
		c0.34-1.76,0.63-3.56,2.26-4.65c1.91,2.06,3.3,5.47,3.2,7.86c1.47-0.6,1.77-1.03,1.38-2.24c-0.3-0.94-0.75-1.83-1.17-2.83
		c1.08-0.59,2.02-1.38,2.96-2.18c1.85-1.59,4.34-1.72,6.64-0.49c0.65,2.48-0.38,4.57-1.96,6.78c1.43-0.35,2.01-1.1,2.47-1.95
		C322.43,186.05,323.02,184.44,322.79,182.35z M278.32,155.52c0.48,1.64,1.36,3.14,1.71,4.8c0.39,1.82,1.48,3.09,2.82,4.23
		c2.21,1.86,4.5,3.63,6.63,5.58c2.61,2.39,5.39,4.63,7.58,7.45c0.56,0.72,1.1,1.45,1.69,2.14c0.25,0.3,0.58,0.63,1.09,0.11
		c-2.01-3.35-4.84-5.99-7.73-8.56c-2.52-2.24-5.17-4.35-7.78-6.5c-1.31-1.08-2.28-2.36-2.76-4.01
		C280.99,158.73,279.7,157.11,278.32,155.52z M323.08,296.72c-0.73-0.38-1.11,0.1-1.52,0.28c-1.81,0.8-3.66,1.45-5.57,1.96
		c-4.97,1.31-10.02,1.87-15.15,1.68c-0.56-0.02-1.11-0.18-1.47,0.49C308.1,302.6,318.59,300.67,323.08,296.72z M345.28,405.81
		c-0.57-2.37-0.79-4.56-0.7-6.79c0.03-0.58,0.01-1.16-0.02-1.73c-0.03-0.45-0.25-0.8-0.85-1.14c0,1.55,0,2.9,0,4.33
		c-1.05-0.5-1.37-1.38-1.71-2.19c-0.92-2.2-1.79-4.42-2.66-6.64c-0.22-0.56-0.4-1.14-1.05-1.55
		C338.5,394.46,342.41,403.3,345.28,405.81z M302.55,173.06c-0.15,1.55,1.34,2.2,1.44,3.67c-1.39,1.53-2.32,3.33-0.8,5.54
		c0.42-0.43,0.35-0.85,0.35-1.26c-0.02-1.76,0.79-2.97,2.37-3.7c1.34-0.61,2.64-1.33,4.11-1.54c0.69,0.02,0.62,0.97,1.38,0.99
		c-0.05-0.42-0.13-0.82-0.15-1.22c-0.02-0.41,0.02-0.82-0.43-1.21c-1.98-0.33-3.58,1.31-5.56,1.42
		C304.23,175.1,304.1,173.56,302.55,173.06z M369.94,392.22c5.03,1.87,9.13,4.57,11.82,9.12c-0.02-1.48-0.75-2.68-1.58-3.75
		c-0.88-1.14-1.97-2.12-3-3.21c1-0.5,1.85-0.95,2.57,0.16c0.16-0.46,0.12-0.84-0.32-1.39c-2.44,0.4-4.89-0.08-7.22-1.31
		C371.62,391.55,370.82,391.28,369.94,392.22z M297.73,314.39c0.21,0.32,0.4,0.65,0.63,0.96c1.25,1.63,2.53,3.23,3.77,4.87
		c1.34,1.79,2.55,3.6,2.49,6.03c-0.02,0.77,0.2,1.61,0.29,2.42c0.07,0.58,0.19,1.14,0.87,1.46c0.17-1.31-0.12-2.65,0.33-3.88
		c0.45-1.23,0.08-2.23-0.62-3.22c-2.14-3.01-4.51-5.84-7.06-8.52C298.29,314.35,298.11,314.16,297.73,314.39z M316.82,190.36
		c2.93,2.13,2.93,2.13,3.39,3.66c-0.76-0.1-1.47-0.27-2.19-0.27c-0.35,0-0.74,0.26-0.87,0.69c0.33,0.56,0.64,1.13,1.3,1.1
		c0.38-0.29-0.18-0.72,0.49-0.87c0.35,0.13,0.8,0.31,1.26,0.46c0.44,0.14,0.83,0.62,1.36,0.22
		C321.79,192.45,319.81,190.24,316.82,190.36z M286.31,264.23c0.89-2.86,1.58-5.3,3.16-7.35c-1.15,0.58-1.98,1.47-2.74,2.21
		c-1.1-0.01-1.89-0.83-2.91-0.52c0.4,1.26,1.63,1.15,2.46,1.74C285.99,261.48,285.84,262.6,286.31,264.23z M348.16,365.77
		c1.47,0.09,2.75,1.06,3.83-0.47c-0.21-0.18-0.36-0.38-0.56-0.46c-0.27-0.11-0.66,0.11-0.84-0.3c-0.13-0.92,0.47-1.9-0.16-2.8
		c-0.17,0.08-0.38,0.12-0.44,0.24C349.42,363.14,348.87,364.31,348.16,365.77z M367.5,430.86c-1.64,0.17-2.89,0.54-4.2,0.23
		c-1.37-0.33-2.26-1.4-3.54-1.87c0.69,1.29,1.4,2.52,2.52,3.44c0.8-0.69,0.81-0.66,2.42-0.69
		C365.56,431.94,366.55,432.28,367.5,430.86z M346.28,296.09c2.17-2.95,2.75-5.43,1.95-7.99
		C348.15,290.91,346.84,293.4,346.28,296.09z M313.87,195.38c0.88-0.74,1.26-1.26,0.73-1.94c-0.6-0.78-1.31-1.47-2.28-1.77
		c-0.28-0.09-0.64-0.13-0.84,0.45C312.52,192.84,313.43,193.79,313.87,195.38z M372.87,483.82c-0.5-0.21-0.93-0.5-1.35-0.04
		c-0.15,0.17-0.16,0.46,0.09,0.61C372.11,484.68,372.51,484.63,372.87,483.82z M382.71,418.05c0.72,0.44,1.14,0.31,1.47-0.37
		C383.64,417.35,383.21,417.36,382.71,418.05z M355.87,403.59c0.22-0.33,0.19-0.65-0.06-0.89c-0.19-0.18-0.12-0.6-0.53-0.58
		C355.13,402.76,355.5,403.17,355.87,403.59z M312.45,178.54c0.51,1.26,0.51,1.26,1.35,1.84
		C313.63,179.62,313.17,179.17,312.45,178.54z"/>
	<path class="st0" d="M109.91,688.01c0.44-1.83,2.57-2.06,3.24-3.76c-1.5-0.15-2.68,0.5-3.86,1.05c-2.02,0.94-4.06,1.85-6.02,2.9
		c-3.66,1.96-7.67,2.56-11.7,2.92c-2.46,0.22-4.93,0.38-7.42,0.37c-2.73-0.01-5.42-0.6-8.22-0.45c8.56-2.08,15.83-6.17,21.65-12.9
		c-0.8-0.48-1.06,0.13-1.4,0.36c-2.52,1.73-4.95,3.6-7.53,5.23c-3.72,2.34-7.66,4.26-12.02,5.14c-3.83,0.78-7.68,1.12-11.55,0.3
		c-0.86-0.18-1.7-0.45-2.5-1.02c1.36-0.15,2.71-0.35,4.08-0.45c2.33-0.17,4.56-0.76,6.76-1.49c0.62-0.2,1.3-0.45,1.75-0.88
		c1.26-1.2,2.86-1.59,4.41-2.13c7.32-2.53,14.01-6.24,20.15-10.95c0.63-0.48,1.28-0.93,1.94-2.15c-3.08,1.84-5.63,3.45-8.27,4.93
		c-6.72,3.76-13.73,6.85-21.21,8.81c-2.88,0.76-5.67,0.73-8.56,0.04c-4.71-1.13-8.99-3.22-13.21-5.5
		c-5.72-3.09-10.78-7.05-15.26-11.74c-1.65-1.73-3.13-3.62-4.69-5.43c-0.42-0.49-0.38-1.06-0.25-1.69c-1.61-0.79-2.65-2.14-3.63-3.6
		c-3.12-4.68-5.94-9.54-8.79-14.38c-0.13-0.21-0.28-0.4-0.11-0.79c0.45,0.11,0.64,0.53,0.89,0.87c2.4,3.32,5.29,6.08,8.9,8.09
		c1.58,0.88,3.05,1.97,4.55,3.01c1.4,0.97,2.96,1.41,4.61,1.69c6.02,1.02,11.86,0.4,17.48-1.96c4.49-1.89,8.92-3.9,12.85-6.85
		c0.41,0.48,0.01,0.74-0.25,1.02c-2.67,2.84-5.61,5.38-8.75,7.67c-2.25,1.64-4.34,3.54-7.15,4.74c2.27,0.45,2.43,0.48,4.36-0.49
		c3.84-1.94,7.47-4.22,10.93-6.8c3.96-2.95,7.87-5.96,11.54-9.29c-0.93,1.92-2.39,3.44-3.66,5.09c-0.5,0.65-1.07,1.25-1.6,1.88
		c-0.21,0.25-0.49,0.55-0.24,0.87c0.55,0.69-0.04,1.02-0.38,1.44c-1.35,1.68-2.86,3.2-4.54,4.56c-0.3,0.24-0.56,0.52-1.05,0.97
		c1.63-0.15,2.79-0.77,3.88-1.49c2.98-1.96,5.69-4.19,8.11-6.85c2.1-2.31,4.57-4.3,6.88-6.42c3.79-3.48,7.3-7.17,9.74-11.77
		c0.07-0.14,0.23-0.22,0.38-0.36c0.41,0.53,0.01,1.01-0.12,1.51c-0.91,3.38-2.42,6.49-4.2,9.48c-1.56,2.62-2.95,5.36-4.76,7.83
		c-0.07,0.1-0.01,0.3-0.01,0.66c1.19-0.3,2.02-1.06,2.81-1.82c2.2-2.12,4.33-4.32,6.1-6.82c1.95-2.76,4.04-5.44,5.58-8.48
		c0.26-0.51,0.63-0.96,1.22-1.84c-0.22,2.19-1.18,3.62-1.78,5.15c-0.59,1.51-1.32,2.97-1.68,4.63c0.68-1.23,1.4-2.43,2.02-3.68
		c2.39-4.91,4.42-9.96,6.12-15.15c1.38-4.24,3.19-8.32,4.44-12.61c1.28-4.36,2.57-8.7,3.36-13.18c0.04-0.23,0.19-0.43,0.42-0.63
		c0.19,9.78-0.92,19.46-2.23,29.17c1.88-2.79,4.17-5.26,5.25-8.56c1.6-4.88,2.92-9.81,4.01-14.82c0.26-1.2,0.53-2.4,0.85-3.6
		c-0.19,5.11-0.82,10.18-1.79,15.56c1.53-1.53,2.18-3.12,2.47-4.84c0.5-3.01,0.92-6.03,1.41-9.04c0.57-3.46,1.17-6.92,1.89-10.36
		c0.11,2.4,0,4.77-0.18,7.15c-0.18,2.37-0.45,4.75-0.7,7.5c1.12-1.25,1.48-2.5,1.91-3.65c5.72-14.97,10.89-30.13,14.97-45.64
		c0.16-0.62,0.56-1.21,0.3-1.93c-2.52-0.42-5.06-0.75-7.55-1.27c-5.64-1.18-10.84-3.43-15.68-6.56
		c-7.13-4.61-13.41-10.18-19.07-16.49c-0.16-0.17-0.39-0.28-0.75-0.53c-7.2,6.93-15.22,12.71-24.51,17.31
		c0.37-2.31,1.06-4.15,1.58-6.03c1.72-6.2,3.36-12.43,5.15-18.6c1.5-5.15,3.08-10.27,4.7-15.38c3.22-10.15,6.8-20.17,10.84-30.02
		c2.88-7.03,6.14-13.89,9.71-20.61c3.57-6.72,7.39-13.28,11.63-19.6c5.07-7.56,10.61-14.75,16.64-21.56
		c0.81-0.92,1.28-2.32,2.8-2.45c1.9-3.7,5.35-6.01,8.11-8.94c2.03-2.16,4.28-4.14,6.54-6.06c4.65-3.95,9.19-8.03,14.17-11.57
		c7.88-5.6,15.79-11.15,24.05-16.2c7.54-4.61,15.21-9,23.03-13.12c0.06-0.03,0.15,0,0.24,0c0.3,0.6-0.24,0.89-0.5,1.24
		c-4.2,5.66-7.88,11.63-10.9,18c-2.69,5.68-4.84,11.56-6.26,17.69c-0.25,1.07-0.69,1.72-1.63,2.28
		c-7.71,4.58-14.65,10.15-20.9,16.58c-7.15,7.36-13.6,15.28-19.31,23.85c2.61,9.74,6.35,18.88,13.5,26.6
		c5.91-13.83,13.31-26.3,24.5-36.12c0.19,0.08,0.37,0.16,0.56,0.24c0.1,1.7,0.22,3.4,0.29,5.1c0.18,4.29,0.89,8.52,1.68,12.73
		c1.32,7.06,3.15,14.01,5.52,20.8c1.96,5.61,4.14,11.15,6.67,16.53c4.33,9.22,9.4,18.02,15.17,26.41c0.19,0.27,0.34,0.56,0.63,1.04
		c-1.15,1.98-2.26,4.09-3.55,6.08c-3.29,5.06-7.02,9.79-11.02,14.3c-3.29,3.7-6.58,7.41-9.89,11.1c-0.27,0.31-0.59,0.58-0.92,0.82
		c-5.19,3.81-10.05,8.03-15.14,12.42c-0.49-2.75-0.06-5.47-0.62-8.05c-0.79,0.05-0.84,0.48-0.93,0.87
		c-0.96,4.3-1.36,8.62-0.71,13.02c0.24,1.62,0.25,3.3,0.19,4.95c-0.13,3.09,0.51,6.08,1.04,9.08c1.06,6.02,1.94,12.05,1.98,18.18
		c0.02,2.3,0.31,4.6,0.33,6.92c0.04,6.96-0.89,13.82-2.12,20.64c-2.17,12.03-6.95,23.06-13.26,33.42
		c-4.06,6.65-9.2,12.46-15.02,17.7c-5.95,5.35-12.58,9.65-19.6,13.36c-4.53,2.39-9.32,4.24-14.34,5.4c-2.18,0.5-4.41,0.65-6.63,0.81
		C112.1,688.78,110.94,688.8,109.91,688.01z M151.05,651.47c1.57-2.04,2.98-4.99,3.12-6.62c-1.04,1.96-2.05,3.84-3.05,5.72
		c-0.16,0.31-0.16,0.63-0.02,0.95c-1.04,0.65-1.31,1.08-1.54,2.44c-0.89,0.06-1.14,0.86-1.52,1.42c-2.67,3.99-5.73,7.63-9.3,10.85
		c-2.7,2.44-5.47,4.76-8.69,6.49c-0.41,0.22-0.8,0.49-1.19,0.73c2.29-0.49,4.26-1.65,6.08-3.03c4.3-3.24,8.12-6.99,11.32-11.32
		c1.21-1.63,2.61-3.18,3.25-5.19C150.4,653.34,150.83,652.47,151.05,651.47z M144.39,452.58c-0.22,0.29-0.4,0.47-0.51,0.68
		c-2.67,5.23-5.39,10.43-7.95,15.7c-1.12,2.31-2.35,4.54-3.71,6.71c-1.63,2.59-3.18,5.23-4.43,8.03c-2.2,4.9-4.58,9.72-7.02,14.5
		c-3.09,6.04-6.5,11.89-10.46,17.4c-0.75,1.04-1.56,2.04-2.44,3.19c2.69,2.43,5.19,4.84,7.84,7.06c2.21,1.85,4.55,3.55,6.94,5.19
		c4.25,2.91,8.66,5.45,13.66,6.86c3.34,0.94,6.71,1.64,10.16,1.22c0.17-0.34,0.33-0.55,0.39-0.78c1.3-4.61,2.29-9.28,3.12-14
		c1.04-5.93,2.05-11.86,3.28-17.76c1.96-9.38,4.62-18.57,7.85-27.6c0.45-1.26,0.4-2.11-0.61-3.06c-1.56-1.47-3-3.07-4.44-4.66
		c-3.4-3.75-6.3-7.86-8.58-12.39C146.42,456.81,145.43,454.72,144.39,452.58z M188.97,544.23c1.43-0.76,2.38-1.92,3.45-2.93
		c1.02-0.96,2.11-1.85,3.07-2.86c0.95-1,2.33-1.62,2.85-3.02c-3.32,2.18-6.19,4.87-9.06,7.56
		C189.02,543.22,188.67,543.53,188.97,544.23z M117.03,680.74c0.98,1.22,2.15,0.57,3.19,0.45c0.73-0.08,1.52-0.38,1.82-1.67
		c-1.69,0.54-3.2,0.66-4.69,0.88C117.29,680.4,117.24,680.5,117.03,680.74z M126.32,676.51c-1.14-0.16-2.25-0.06-3.59,0.49
		C124.3,678.04,125.33,677.48,126.32,676.51z M152.21,410.93c0,1.71,0,3.42,0,5.14C152.21,414.36,152.21,412.65,152.21,410.93z
		 M157.88,635.79c-0.36,0.6-1.12,1.19-0.69,2.16c0.21-0.45,0.41-0.84,0.55-1.25C157.83,636.41,157.83,636.09,157.88,635.79z"/>
	<path class="st0" d="M263.25,308.49c-1.08,2.32-2.34,4.45-3.35,6.71c-2.18,4.89-3.18,10.04-3.68,15.32
		c-0.14,1.47-0.33,2.95-0.32,4.43c0.01,5.8,0.84,11.51,2.16,17.14c2.37,10.17,5.91,19.94,10.24,29.44
		c3.54,7.74,7.35,15.35,11.12,22.98c4.75,9.63,9.35,19.33,13.31,29.32c3.72,9.38,7.03,18.88,9.36,28.71
		c0.93,3.94,1.53,7.93,1.99,11.95c0.61,5.28,0.66,10.56,0.28,15.83c-0.43,5.86-1.55,11.59-3.9,17.04
		c-3.17,7.33-8.3,12.85-15.18,16.77c-4.69,2.67-9.71,4.57-14.89,6.05c-7.04,2.01-13.87,1.17-20.65-1.32
		c-4.09-1.5-7.38-3.9-10.14-7.23c-1.79-2.16-3.95-3.98-5.78-6.13c-2.84-3.34-5.45-6.86-7.94-10.46c-4.96-7.13-9.53-14.51-13.4-22.29
		c-3.98-7.99-7.3-16.26-10.04-24.78c-2.61-8.13-4.27-16.44-5.53-24.84c-0.38-2.52-0.51-5.09-0.57-7.64
		c-0.09-3.88-0.23-7.78,0.03-11.64c0.27-4.02,0.28-8.08,1.27-12.03c0.06-0.24,0.14-0.47,0.25-0.79c1.6-0.61,3.33-0.8,5.02-0.98
		c6.56-0.69,12.8,0.55,18.75,3.36c5.51,2.6,10.39,6.11,14.82,10.25c7.34,6.84,13.18,14.78,17.07,24.06
		c2.37,5.66,3.93,11.55,4.29,17.71c0.25,4.26-0.24,8.43-2.22,12.29c-3.2,6.24-10.06,11.16-19.01,9.35
		c-7.59-1.53-14.81-4.07-20.9-9.15c-1.54-1.29-2.82-2.77-4.02-4.36c-0.24-0.32-0.37-0.74-0.96-0.95c0.12,1.96,0.67,3.69,1.72,5.27
		c1.37,2.06,2.73,4.13,4.13,6.17c3.28,4.76,7.3,8.88,12.22,11.8c6.92,4.11,14.42,5.75,22.33,2.87c6.95-2.53,11.92-7.29,15.05-13.93
		c2.06-4.36,3.13-9.01,3.67-13.81c1.04-9.24-0.65-18.09-3.71-26.72c-3.3-9.28-8.34-17.58-14.78-25.03
		c-5.57-6.44-12.06-11.77-19.66-15.63c-7.59-3.86-15.68-6.07-24.22-6.53c-2.05-0.11-4.09-0.28-6.3-0.43
		c3.8-12.09,10.2-22.55,18.04-32.3c0.41,0.47,0.67,0.77,0.87,1c0.29,0.11,0.4,0.04,0.47-0.17c0.62-1.82,0.79-3.73,0.88-5.6
		c0.18-3.63,1.29-6.94,2.83-10.18c2.23-4.67,5.24-8.81,8.7-12.59c4.02-4.39,8.35-8.48,13.39-11.73c3.2-2.07,6.56-3.82,10.22-4.97
		c1.65-0.52,3.23-1.27,4.94-1.61C261.98,308.39,262.45,308.24,263.25,308.49z M245.93,452.99c-0.45-6.49-2.53-12.14-5.83-17.41
		c-2.04-3.26-4.65-6.01-7.47-8.56c-3.54-3.2-7.97-4.31-12.55-4.63c-4.11-0.29-7.21,2.95-7.5,6.17c-0.28,3.01-0.45,6.07,0.08,9.09
		c1.42,8.05,4.6,15.32,9.86,21.59c2.19,2.61,4.82,4.76,8.02,6.1c6.21,2.61,11.79,0.2,14.1-5.11
		C245.66,457.85,245.93,455.3,245.93,452.99z"/>
	<path class="st0" d="M273.73,844.27c-2.21-0.4-4.15,0.5-6.02,1.85c-2.98,2.16-5.31,4.95-7.77,7.63c-1.23,1.33-2.32,2.79-3.48,4.19
		c-0.26,0.32-0.51,0.65-0.82,0.92c-1.13,1.01-1.14,1-1.58,2.45c-1.05-0.77-1.3-1.82-1.34-2.98c-0.11-2.91,0.12-5.77,0.87-8.6
		c1.43-5.43,2.42-10.94,3.01-16.52c0.03-0.25,0.12-0.51,0.07-0.74c-0.79-3.64,0.29-7.2,0.48-10.8c0.12-2.31,0.07-4.63,0.64-6.89
		c0.16-0.64,0.33-1.28,0.47-1.92c0.12-0.58,0.17-1.08-0.59-1.38c-0.57-0.22-0.29-0.87-0.3-1.33c-0.08-3.72-0.1-7.44-0.12-11.16
		c-0.02-5.46-0.45-10.87-0.92-16.3c-0.67-7.66-2.05-15.19-4.04-22.61c-0.64-2.39-1.13-4.81-1.55-7.25c-0.27-1.54-0.7-3.05-1.16-4.55
		c-1.12-3.63-2.27-7.24-3.44-10.85c-0.79-2.45-1.95-4.73-3.32-6.9c-0.62-0.97-1.15-2-1.79-2.96c-0.53-0.79-0.65-1.64-0.74-2.57
		c-0.18-1.89,0.55-3.07,2.24-3.95c4.56-2.38,8.53-5.59,12.46-9.09c1.55,1.92,2.03,4.65,4.32,6.03c0.55-0.66,0.02-1.05-0.15-1.43
		c-0.65-1.42-1.34-2.83-1.9-4.3c-1.54-4.03,0.02-12.21,4.71-15.13c2.01-1.25,3.37-3.14,4.29-5.33c0.48-1.15,1.24-2.13,1.98-3.12
		c0.64-0.86,1.25-1.74,1.84-2.64c0.24-0.37,0.21-0.78-0.1-1.13c-1.64,0.3-2.39,0.81-5.48,3.74c-0.5-0.23-0.33-0.7-0.33-1.06
		c0.02-1.82-0.17-3.55-0.92-5.29c-0.67-1.57-0.77-3.37-1.26-5.03c-1.78-5.95-4.32-11.59-7.05-17.15
		c-2.91-5.92-5.89-11.81-8.76-17.75c-4.68-9.67-8.77-19.59-11.57-29.98c-1.48-5.48-2.77-11.05-2.74-16.8
		c0.01-1.15-0.33-2.27-0.34-3.44c-0.1-8.36,1.42-16.41,4.44-24.2c1.8-4.63,4.24-8.94,6.64-13.27c0.7-1.26,1.64-2.25,3.1-3.01
		c0.25,1.1,0.58,2.02,0.38,3.24c-0.32,2.02-0.32,4.12-0.3,6.18c0.14,15.61,2.92,30.69,9.32,44.99c2.71,6.05,5.89,11.84,10.15,16.98
		c3.94,4.76,8.44,8.82,14.1,11.47c5.28,2.47,10.57,2.66,16.09,0.58c4.84-1.82,8.58-4.84,11.55-8.96c0.28-0.39,0.4-0.93,0.95-1.12
		c0.44,0.21,0.14,0.53,0.07,0.77c-3.45,11.21-6.05,22.64-8.49,34.1c-2.49,11.69-4.57,23.47-6.36,35.28
		c-0.74,4.89-1.16,9.82-1.72,14.74c-0.44,3.84-0.87,7.69-1.27,11.53c-0.1,0.98-0.01,1.99-0.1,2.97c-0.27,2.79,0.05,5.61-0.4,8.41
		c-0.2,1.27-0.09,2.6,0.2,3.93c0.28,1.26,0.19,2.63,0.14,3.94c-0.11,3.47-0.04,6.93,0.38,10.39c0.16,1.31,0.15,2.64,0.21,3.96
		c0.3,6.51,0.94,12.99,1.52,19.48c0.41,4.51,0.86,9.02,1.37,13.52c0.31,2.7,0.61,5.42,1.19,8.07c0.92,4.19,1.64,8.42,2.19,12.67
		c0.94,7.27,3.05,14.18,6.12,20.81c1.01,2.17,2.02,4.34,3.06,6.5c0.26,0.54,0.41,1.07,0.36,1.67c-0.39,0.73-1.23-0.39-1.68,0.42
		c-0.28,0.51-0.94,0.63-1.74,0.7c-1.62-1.45-3.81-2.31-5.66-3.68c-1.37-1.01-2.86-1.33-4.43-1.18c-4.24,0.4-8.26,1.55-12,3.66
		c-2.51,1.42-4.34,3.54-6.18,5.67C274.47,843.66,274.31,844.06,273.73,844.27z M283.92,832.19c1.73-0.23,2.86,0.16,3.75,1.2
		c0.34,0.39,0.99,0.05,1.18-0.45c0.24-0.67,0.33-1.4,0.48-2.11c-0.69-0.78-1.1-1.68-1.39-2.62c-0.49-1.56-0.95-3.13-1.4-4.71
		c-0.13-0.46-0.18-0.93-0.87-1.06c-0.07,2.87,1.12,5.42,1.9,8.15C286.44,830.91,285.11,830.35,283.92,832.19z M282.59,744.57
		c-2.55-0.61-3.13-3.15-5.54-4.18c1.27,2.08,2.22,3.8,4.02,4.8c1.13,0.63,2.42,0.45,3.06-0.6c1.54-2.53,2.54-5.28,2.79-8.27
		C285.17,738.91,285.15,742.43,282.59,744.57z"/>
	<path class="st0" d="M181.81,161.55c-0.65,1.67-1.28,3.43-2.03,5.13c-0.38,0.86-1.24,1.32-2.06,1.71
		c-4.44,2.12-9.02,3.69-14.06,3.19c-0.57-0.06-1.16-0.01-1.73,0.05c-0.79,0.08-1.37,0.42-1.67,1.24c-1.25,3.43-2.91,6.66-5.13,9.57
		c-0.18,0.23-0.21,0.58-0.31,0.87c0.7,0.34,0.95-0.21,1.29-0.5c2.23-1.95,3.71-4.46,4.91-7.08c0.85-1.85,1.96-2.61,4-2.51
		c3.62,0.18,7-1.02,10.33-2.27c1.15-0.43,2.27-0.95,3.38-1.42c1.02,1.37,1.02,1.37,3.47,2.12c-0.48,1.92-1.37,3.53-2.68,5.09
		c-2.15,2.55-4.58,4.46-7.86,5.2c-0.56,0.13-1.08,0.46-1.64,0.54c-3.66,0.53-6.25,2.76-8.64,5.33c-0.39,0.42-0.76,0.91-1.24,1.21
		c-2.72,1.69-3.88,4.4-4.87,7.25c-1.12,3.21-1.64,6.56-2.18,9.9c-1.26,7.84-4.71,14.55-10.26,20.2c-0.12,0.12-0.23,0.23-0.35,0.35
		c-1.36,1.43-1.35,1.54,0.39,3.12c2.27-0.42,3.84-2.44,6.06-2.94c0.73,0.27,0.7,0.95,0.96,1.44c2.54,4.94,5.92,9.13,10.71,12.07
		c7.25,4.45,15.1,7.41,23.31,9.47c0.48,0.12,0.97,0.28,1.46,0.29c3.54,0.13,6.15,2.03,8.66,4.29c3.46,3.12,6.45,6.6,8.99,10.49
		c0.09,0.13,0.24,0.21,0.48,0.42c0.39-0.94-0.23-1.57-0.6-2.16c-1.85-2.93-3.43-6.05-5.85-8.67c2.03-2.74,1.84-6.11,2.93-9.17
		c1.02,0.17,0.87,1.17,1.06,1.73c1.01,3.01,2.47,5.78,4.38,8.29c4.4,5.79,10.4,9.04,17.38,10.63c4.3,0.98,8.65,1.17,13.04,0.58
		c2.07-0.28,3.99-1.01,6.07-2.01c-0.15,1.49-0.78,2.63-1.17,3.82c-0.51,1.54-1.6,2.89-1.36,4.69c0.07,0.49-0.39,1.06-0.65,1.58
		c-2.1,4.23-4.82,8.08-7.47,11.97c-1.96,2.87-4,5.67-5.97,8.53c-0.89,1.29-1.68,2.66-3.03,3.56c-0.53,0.35-0.69,0.91-0.88,1.45
		c-0.81,2.25-1.64,4.49-2.42,6.75c-0.65,1.88-1.49,3.68-2.42,5.43c-1.63,3.07-4.37,4.17-7.71,3.01c-4.05-1.41-8.04-3-11.93-4.81
		c-11.01-5.13-21.04-11.77-30.08-19.84c-5.3-4.72-10.1-9.96-14.84-15.26c-3.73-4.18-6.43-8.97-9.34-13.67
		c-3.6-5.83-7.36-11.57-10.45-17.71c-0.18-0.37-0.46-0.7-0.58-1.09c-1.06-3.5-3.05-6.58-4.51-9.91c-0.5-1.13-0.94-2.29-1.45-3.42
		c-0.84-1.86-1.16-3.93-2.68-5.52c-0.63-0.65-0.74-1.8-1.15-2.89c1.16-2.75,2.4-5.62,3.6-8.51c1.23-2.97,2.46-5.94,3.62-8.94
		c2.45-6.3,5.05-12.55,6.99-19.03c0.57-1.89,1.22-3.69,2.16-5.46c1.3-2.47,1.87-5.27,2.36-8.03c0.29-1.62,0.53-3.25,0.83-5.11
		c2.19-0.9,4.53-1.85,6.81-2.78c0.54,0.07,0.39,0.81,0.93,0.78c0.08-0.02,0.18-0.01,0.22-0.06c1.67-2,4-2.79,6.38-3.54
		c5.45-1.7,11-2.97,16.64-3.79c2.81-0.4,3-0.33,5.13,1c0.02,0.67-0.6,0.71-0.98,0.88c-6.51,2.86-13.13,5.41-20.18,6.61
		c-1.82,0.31-2.89,1.45-3.64,3.02c-0.15,0.31-0.18,0.64,0.1,0.91c0.27,0.25,0.59,0.26,0.91,0.1c0.15-0.07,0.36-0.11,0.43-0.23
		c0.99-1.83,2.88-1.98,4.59-2.54c6.43-2.1,12.85-4.25,18.93-7.11c0.72,0.33-0.03,1.21,0.66,1.45c0.54,0.18,1.1,0.31,1.66,0.43
		C180.52,161.44,181.11,160.99,181.81,161.55z M147.88,164.96c-0.54-0.02-0.7,0.38-0.88,0.74c-0.63,1.25-1.3,2.49-1.87,3.77
		c-1.67,3.75-3.01,7.68-6.36,10.44c-0.79,0.65-1.33,1.64-0.84,2.89c0.38,0.96-0.08,1.97-0.36,2.9c-0.5,1.65-1.18,3.25-1.72,4.89
		c-0.18,0.54-0.69,1.03-0.4,1.9c1.26-2.01,1.94-4.04,2.65-6.05c0.94-2.67,2.07-5.21,4.34-7.06c0.58-0.47,0.96-1.11,1.35-1.75
		c2.09-3.34,3.03-7.12,4.15-10.83C148.1,166.23,148.41,165.55,147.88,164.96z M141.95,190.83c0.56-0.3,0.75-0.34,0.85-0.45
		c4.27-4.94,7.29-10.56,9.07-16.84c0.08-0.3-0.01-0.66-0.57-0.68C148.26,178.69,145.21,184.56,141.95,190.83z"/>
	<path class="st0" d="M421.28,229.15c1.34,1.19,2.82,1.01,4.17,1.18c0.98,0.13,1.99-0.03,2.97,0.04c4.37,0.33,7.95,2.02,10.13,6.04
		c1.11,2.04,1.91,4.16,2.21,6.51c0.3,2.39-0.6,4.33-1.66,6.31c-0.92,1.72-2.52,2.27-4.2,2.77c-0.46,0.14-0.94,0.23-1.53,0.37
		c0.93,1.07,2.1,0.32,3.12,0.59c0.42,4.5-0.19,8.74-2.39,12.7c-1.32,2.38-2.43,4.89-4.08,7.08c-4.35,5.75-9.47,10.64-16.27,13.35
		c-5.31,2.11-10.78,3.51-16.6,3.41c-4.15-0.07-8.23-0.27-12.27-1.3c-5.59-1.43-10.69-3.91-15.54-6.96
		c-1.47-0.92-2.92-1.88-4.34-2.89c-2.37-1.7-4.39-3.76-5.86-6.3c-0.56-0.97-1.4-1.59-2.12-2.07c-0.17-4.92-0.17-9.62-0.56-14.28
		c-0.21-2.56,0.02-5.14-0.43-7.65c-0.67-3.73-1.56-7.43-3.14-10.91c-0.82-1.8-1.56-3.65-2.64-5.33c-0.25-0.39-0.57-0.82-0.35-1.46
		c3.68,0.19,7.11-0.74,9.5-3.69c0.91-1.12,2.73-2,2.36-3.96c-0.77-0.26-1.02,0.28-1.31,0.62c-1.91,2.26-5.55,2.55-8.51,1.37
		c-0.68-0.27-0.99-0.83-1.26-1.45c-0.97-2.24-0.74-4.55-0.25-6.81c0.75-3.43,2.28-6.54,4.27-9.42c0.84-1.21,2.3-1.83,3.12-3.1
		c0.23-0.35,0.74-0.42,1.14-0.27c1.49,0.55,3.13,0.24,4.62,0.84c0.53,0.21,1.13,0.32,1.7,0.34c6.17,0.15,12.08,1.75,17.99,3.29
		c5.27,1.37,10.5,2.93,15.51,5.14c5,2.19,9.88,4.6,14.58,7.36c2.07,1.21,4.14,2.41,6.16,3.69c1.04,0.66,1.97,1.49,3.12,2.38
		C421.89,227.38,422.59,228.63,421.28,229.15z M436.07,236.12c-0.1,2.61-1.49,4.38-2.47,6.28c0.58,0.34,0.89,0.08,1.05-0.13
		c0.62-0.87,1.53-1.17,2.48-1.44c0.21-0.06,0.24-0.22,0.14-0.34c-0.29-0.13-0.58-0.26-0.9-0.4
		C436.43,238.86,437.66,237.65,436.07,236.12z"/>
	<path class="st0" d="M344.27,824.24c-1.34,1.03-2.36,1.82-3.32,2.56c-2.45-0.82-4.68-1.8-7.02-3.34c1.25,2.78,2.52,3.76,5.52,4.48
		c-2,2.62-3.98,5.2-6.08,7.93c-1.25-0.2-2.51-0.84-3.75-1.4c-1.79-0.81-3.5-0.72-5.26-0.02c-2.42,0.97-4.52,2.38-6.08,4.52
		c-0.43,0.6-0.88,1.18-1.24,1.67c-0.7,0.3-1.09-0.09-1.49-0.34c-1.26-0.82-2.62-1.42-4.08-1.71c-0.98-0.2-1.58-0.67-2.04-1.58
		c-3.14-6.19-5.99-12.51-8.08-19.14c-0.89-2.83-1.58-5.73-2.27-8.61c-0.24-1-0.68-2.02-0.15-3.14c0.17-0.35-0.14-0.94-0.26-1.41
		c-2.05-8.09-3.58-16.26-4.25-24.59c-0.43-5.33-0.92-10.66-1.41-15.99c-0.52-5.6-0.56-11.23-0.33-16.83
		c0.14-3.3-0.19-6.57-0.18-9.85c0.01-6.78-0.15-13.57,0.06-20.34c0.09-3.1,0.91-6.18,1.37-9.28c0.71-4.73,1.38-9.46,2.09-14.18
		c1.83-12.23,4.15-24.36,6.73-36.45c2.26-10.58,4.99-21.03,7.83-31.45c0.87-3.18,1.95-6.3,3.01-9.66c1.04,1.52,1.73,3.07,2.08,4.64
		c1.09,4.89,4.3,8.08,8.22,10.73c4.05,2.74,8.68,3.5,13.45,3.62c1.64,0.04,3.28,0.1,5.3-0.5c-5.28,11.48-9.63,22.83-14.01,34.24
		c-0.68-0.59-0.09-1.3-0.57-1.78c-0.77,0.45-0.97,1.26-1.26,2.01c-2.84,7.4-5.42,14.88-7.54,22.52c-2.65,9.54-4.76,19.2-6.4,28.97
		c-0.71,4.22-1.74,8.39-2.49,12.61c-0.69,3.89-1.42,7.78-1.56,11.75c-0.01,0.35-0.15,0.63-0.62,0.87c-1.86-1.23-2.39-3.57-3.85-5.19
		c-0.57,0.29-0.36,0.73-0.24,1.03c0.6,1.45,1.17,2.92,2.18,4.15c0.31,0.38,0.61,0.8,1.01,1.07c0.85,0.58,1.75,0.23,2.13-0.78
		c0.56-1.48,0.63-3.06,0.93-4.6c0.42-2.1,0.79-4.22,1.21-6.32c0.04-0.21,0.28-0.39,0.54-0.74c0.41,2.67,0.8,5.19,1.18,7.71
		c1.37,8.96,2.95,17.88,4.86,26.74c0.75,3.46,1.46,6.94,2.16,10.41c0.88,4.37,2.11,8.65,3.47,12.89c0.45,1.41,0.9,2.82,0.96,4.33
		c0.03,0.75,0.29,1.44,0.61,2.12c3.49,7.36,8,14.06,13.22,20.29C340.16,820.75,341.98,822.46,344.27,824.24z M314.57,804.92
		c0.56,5.55,3.56,17.98,7.04,24.12c0.01,0.51-0.75,0.71-0.48,1.45c0.62,0.67,0.87,1.78,1.76,2.46c0.69-0.47,1.37-0.79,1.54-1.72
		c-1.89-2.06-3.07-4.59-4.11-7.21c-1.73-4.39-2.95-8.93-4-13.51C315.87,808.59,315.47,806.66,314.57,804.92z"/>
	<path class="st0" d="M467.95,404.98c-0.05,0.78,0.51,1.04,1.07,1.13c1.8,0.28,3.06,1.58,4.6,2.33c0.42,0.2,0.49,0.63,0.74,0.93
		c3.2,3.9,5.78,8.25,9.01,12.12c3.13,3.75,6.55,7.22,10.22,10.43c1.09,0.95,1.87,1.97,2.16,3.46c0.44,2.26,1.01,4.53,2.2,6.54
		c0.66,1.11,0.57,2-0.13,2.95c-0.69,0.93-1.57,1.44-2.78,1.12c-0.31-0.08-0.62-0.17-0.89-0.24c-0.42-0.74,0.34-0.87,0.55-1.25
		c0.5-0.87,0.72-1.69-0.07-2.48c-0.32-0.32-0.43-0.68-0.45-1.1c-0.04-0.68,0.88-1.59-0.6-1.96c-0.36-0.09-0.04-1.37-1.09-1.37
		c-0.34,0-0.61-0.35-0.65-0.66c-0.16-1.19-1.09-1.77-1.82-2.55c-1.14-1.23-2.16-2.56-3.2-3.87c-0.78-0.97-1.64-1.86-2.61-2.63
		c-0.78-0.61-1.59-1.33-2.59-0.31c-0.05,0.06-0.16,0.12-0.22,0.1c-1.59-0.59-2.19,0.62-2.86,1.59c-0.46-0.01-0.62-0.27-0.69-0.6
		c-0.77-3.64-3.17-6.07-6.03-8.17c-1.65-1.22-3.55-2.09-4.93-3.7c-0.39-0.45-1.16-0.6-1.78-0.8c-0.48-0.15-0.99-0.12-1.38,0.36
		c-0.11,0.93,0.64,1.25,1.26,1.6c0.5,0.28,1.1,0.37,1.61,0.64c0.67,0.34,1.28,0.8,1.45,1.59c0.55,2.51,2.09,4.48,3.64,6.4
		c1.44,1.79,2.85,3.63,4.7,5.07c1.89,1.47,2.86,3.64,3.85,5.7c1.09,2.25,2.29,4.38,3.89,6.3c0.73,0.87,1.57,1.77,0.91,3.09
		c-0.72,1.44-1.9,1.99-3.45,1.91c-0.42-0.02-0.82-0.07-1.27-0.49c0.33-0.65,1.16-1.02,1.4-1.96c-0.33-0.94-0.7-2.01-1.08-3.08
		c-0.11-0.31-0.4-0.64-0.35-0.91c0.37-1.97-1.02-3.05-2.11-4.24c-1.84-2-3.3-4.36-5.61-5.92c-0.44-1.25-1.34-1.82-2.65-1.73
		c-0.32,0.02-0.87,0.12-0.9,0.28c-0.29,1.32-1.6,1.2-2.4,1.79c-0.12-0.1-0.33-0.19-0.36-0.31c-0.7-3.37-3.33-5-6.02-6.48
		c-1.04-0.57-1.88-1.22-2.7-2.07c-1.25-1.3-2.55-2.61-4.22-3.42c-0.44-0.21-0.93-0.46-1.39-0.46c-0.65-0.01-1.34,0.16-1.16,1.1
		c0.07,0.36-0.04,0.63-0.21,0.92c-1.42,2.37-1.51,4.9-1.28,7.61c0.23,2.63,0.43,5.26,0.7,7.89c0.16,1.56,0.19,3.14-0.59,4.6
		c-0.16,0.29-0.3,0.59-0.79,0.65c-0.51-0.76-0.13-1.71-0.4-2.55c-0.85-2.59-1.59-5.18-3.73-7.12c-0.76-0.69-1.13-1.74-2.06-2.4
		c-2-1.42-1.95-1.49-4.35-0.92c0.57-1.16,0.38-2.32,0.44-3.46c0.09-1.85,0.58-3.56,1.41-5.2c0.34-0.66,0.64-1.35,0.86-2.05
		c0.39-1.21,0.14-2.34-0.88-3.12c-0.88-0.67-1.45-1.55-2.09-2.41c-1.6-2.15-3.76-3.7-5.88-5.25c-3.54-2.61-5.82-6.02-6.98-10.24
		c-0.52-1.89-0.54-3.13-0.01-5.09c0.44-0.54,1.34-0.16,1.82-1.08c-0.08-0.83,0.11-1.86,0.51-2.95c-1.27-0.78-1.86-2.06-2.68-3.18
		c-2.77-3.8-5.41-7.7-8.45-11.3c-1.38-1.64-2.68-3.35-4.04-5.01c-0.28-0.34-0.49-0.66-0.32-1.11c0.05-0.14,0.2-0.34,0.15-0.42
		c-2.07-3.08-2.45-6.77-3.6-10.17c-1.63-4.81-3.81-9.35-6.21-13.76c-1.73-3.17-4.12-5.98-6.23-8.94c-3.16-4.45-6.55-8.71-10.17-12.8
		c-1.09-1.24-2.29-2.39-3.5-3.52c-1.7-1.6-2.21-3.83-3.1-5.84c-0.37-0.83-0.18-1.93,0.15-2.91c0.77-2.35,1.44-4.74,2.18-7.1
		c1.15-3.7,2.11-7.44,2.52-11.36c1.15-0.32,2.15,0.08,2.95,0.47c2.28,1.1,4.68,0.84,7.04,0.89c2.31,0.05,4.56-0.47,6.81-1.05
		c2.3-0.59,4.71-0.74,7.04-1.08c0.64,0.34,0.72,0.94,0.82,1.5c0.32,1.64,0.26,3.3,0.12,4.95c-0.15,1.67-1.44,2.43-3.02,1.81
		c-0.91-0.36-1.78-0.87-2.6-1.42c-0.74-0.51-1.47-0.98-2.59-1.28c0.27,1.05,1.03,1.25,1.6,1.57c4.11,2.3,8.12,4.77,12.01,7.43
		c2.8,1.91,5.49,3.95,7.97,6.28c0.82,0.77,1.41,1.59,1.84,2.58c3.86,8.86,7.44,17.83,10.58,26.97c2.12,6.17,4.12,12.39,6.54,18.45
		c1.07,2.68,2.35,5.28,3.46,7.95c1.6,3.84,4.29,6.75,7.33,9.43c0.04,0.04,0.03,0.15,0.05,0.26c-0.48,0.58-1.03,0.14-1.55,0.07
		c-0.49-0.07-0.97-0.15-1.46-0.22c-0.29,0.68-0.54,1.3-0.82,1.95c1.75,0.52,3.44,0.81,5.19,0.7c2.3-0.14,4.6,0.41,6.9-0.02
		c1.14-0.21,2.28-0.41,3.4-0.66c1.12-0.25,2.14-0.57,2.92-1.63c0.84-1.13,2.19-1.39,3.59-1.11c0.4,0.08,0.81,0.19,1.2,0.33
		c3.1,1.09,6.28,1.24,9.52,0.93c0.48-0.05,0.99-0.13,1.42,0.23c0.11,0.66-0.47,0.78-0.82,1.09c-0.95,0.82-1.72,1.78-2.28,2.91
		c-0.9,1.84-0.6,3.43,0.89,4.91c0.28,0.27,0.57,0.53,0.95,0.88c-1.82,1.42-3.4,2.97-4.43,4.99c-0.23,0.44-0.59,0.84-0.7,1.31
		c-0.48,2.04-1.93,2.93-3.8,3.44c-1.34,0.36-2.64,0.86-3.9,1.27c-0.64-0.59-0.12-0.98-0.01-1.4c1-3.66,0.1-6.81-2.53-9.52
		c-3.13-3.23-7.09-4.47-11.41-4.6c-2.79-0.09-5.6,0.16-8.39,0.39c-1.89,0.15-3.75,0.6-5.46,1.5c-0.68,0.35-1.39,0.62-1.99-0.16
		c-0.58-0.98,1.21-1.87,0.04-3.05c-1.23,1.29-2.64,2.21-4.45,2.66c1.02,1.16,2.88-0.09,3.53,1.56c-0.32,0.69-1.01,1-1.61,1.42
		c-2.25,1.56-4.21,3.41-5.73,5.73c-1.29,1.97-1.77,4.11-1.52,6.37c0.19,1.77,1.28,3.22,2.26,4.63c2.84,4.05,6.49,7.22,10.83,9.6
		c0.97,0.53,1.93,0.8,3.05,0.81c2.96,0.03,5.72-0.8,8.44-1.81c2.62-0.97,5.16-2.11,7.55-3.62c2.94-1.85,4.99-4.26,5.82-7.67
		c0.97-0.58,2.05-0.66,3.09-0.89c1.45-0.32,2.91-0.64,4.35-0.98c1.65-0.39,3.18-0.98,3.95-2.78c2.86,1.99,5.7,3.81,8.86,5.06
		c2.54,1,5.08,1.98,7.73,2.62c1.79,0.43,3.35,1.19,4.87,2.25c5.29,3.68,10.62,7.3,16.63,9.77c1.7,0.7,3.02,2.02,4.47,3.1
		c1.02,0.76,1.15,2.02,1.26,3.13c0.07,0.73-0.12,1.68-1.1,2.02c-0.34-0.09-0.64-0.28-0.71-0.62c-0.42-2.22-1.91-3.67-3.66-4.79
		c-2.92-1.87-5.98-3.46-9.36-4.44c-2.12-0.62-4.26-0.68-6.38-0.52c-1.74,0.13-3.36,0.89-4.32,2.53c-0.17,0.29-0.29,0.59-0.66,0.68
		c-2.21-1.64-2.43-2.6-1.07-4.82c-0.76-0.38-1.11,0.19-1.29,0.69c-0.19,0.52-0.15,1.12-0.24,1.9c-2.01-1.25-3.94-2.34-5.75-3.59
		c-1.71-1.18-3.48-2.21-5.41-2.99c-3.89-1.56-7.76-3.24-12.01-3.62C469.16,404.69,468.51,404.43,467.95,404.98z M420.84,368.15
		c-0.16,0.62,0.39,0.85,0.7,1.15c3.99,3.94,8,7.86,12.01,11.78c0.42,0.41,0.83,0.81,1.43,0.93c0.62,0.13,1.15,0.07,1.44-0.63
		c-0.08-0.72-0.67-1.1-1.13-1.53C433.03,377.73,421.88,368.72,420.84,368.15z M398.48,312.59c0.03,0.58,0.48,0.83,0.88,1.09
		c3.09,1.99,5.63,4.55,7.78,7.5c1.71,2.34,3.94,4.21,5.76,6.44c0.17,0.21,0.45,0.48,0.84,0.31c0.17-0.36-0.09-0.62-0.27-0.84
		c-1.35-1.66-2.79-3.25-4.08-4.95c-1.7-2.22-4.12-3.81-5.46-6.34c-0.22-0.41-0.66-0.74-1.06-1.01c-1.08-0.75-2.19-1.46-3.29-2.18
		C399.22,312.36,398.85,312.23,398.48,312.59z M428.48,379.37c0.65,1.52,1.12,2.7,1.1,4.05c-0.01,0.73,0.93,1.29,1.6,1.18
		c0.61-0.09,1-0.71,0.95-1.5C432.03,381.55,430.56,379.92,428.48,379.37z"/>
	<path class="st0" d="M359.1,139.42c-1.03,0.69-1.21,1.9-1.78,2.88c-0.87,1.49-1.68,3.01-3.2,3.94c-0.63-0.38-0.42-0.92-0.42-1.36
		c-0.02-2.64,0-5.28-0.02-7.92c-0.03-3.25-1.91-8.56-3.95-11.22c-0.62,0.21-0.32,0.65-0.21,0.99c0.58,1.89,1.16,3.79,1.77,5.67
		c1.17,3.57,1.17,7.12,0.02,10.69c-1.22,3.79-3.93,6.2-7.32,7.98c-1.02,0.54-2.1,0.96-3.18,1.39c-0.82,0.33-1.7,0.53-2.39,1.71
		c0.44-2.68,0.9-3.92,1.94-5.4c3.81-5.42,6.22-11.43,7.52-17.91c0.34-1.7,0.54-3.41,0.17-5.17c-0.73,0.3-0.72,0.92-0.82,1.47
		c-0.25,1.3-0.42,2.61-0.76,3.88c-0.22,0.85-0.29,1.77-1.06,2.45c-0.55,0.49-0.53,1.35-0.76,2.05c-0.7,2.06-1.7,3.91-3.79,5.29
		c-0.28-4.86,0.19-9.63-1.22-14.16c-0.53-0.08-0.49,0.24-0.49,0.43c-0.13,4.54-0.24,9.08-0.36,13.62c-0.12,4.4-0.74,8.71-2.35,12.84
		c-0.4,1.02-0.92,1.93-1.59,2.78c-1.89,2.4-3.71,4.87-5.98,6.93c-0.87,0.79-1.47,1.74-2.07,2.75c-1.74,2.92-4.26,5.01-7.4,6.31
		c-1.7,0.7-3.1,0.28-4.52-0.96c-1.93-1.67-2.54-3.89-2.82-6.15c-0.32-2.61-0.4-5.27-0.15-8.06c1.17,0.27,1.65,1.37,2.61,1.67
		c-0.35,2.83,1.02,4.9,2.57,6.86c0.92,1.16,2.08,1.19,3.21,0.18c6.1-5.41,9.93-12.04,11.09-20.18c0.21-1.48,0.31-2.95,0.29-4.44
		c0-0.39,0.09-0.82-0.31-1.13c-0.59-0.05-0.59,0.42-0.68,0.79c-0.73,3.05-1.54,6.08-2.16,9.15c-0.39,1.93-1.45,2.92-3.25,3.6
		c-3.05,1.14-5.95,1.15-8.83-0.39c-0.42-0.23-0.88-0.48-0.93-1.12c0.37-0.58,0.97-0.45,1.5-0.35c1.69,0.34,3.31-0.05,4.89-0.5
		c2.33-0.65,4.09-2.12,5.23-4.27c0.78-1.47,1.44-3.02,1.51-4.68c0.04-1.17,0.59-1.79,1.41-2.43c0.77-0.61,1.43-1.36,2.16-2.02
		c1.58-1.43,1.8-3.26,1.58-5.23c-0.02-0.16-0.01-0.34-0.07-0.49c-1.23-2.91-0.41-5.57,0.89-8.24c0.83-1.7,1.43-3.51,2.14-5.26
		c0.06-0.14,0.21-0.24,0.46-0.53c4.13,0.57,7.46-1.52,11.01-4.45c-0.73,2.54-2.49,3.58-3.81,4.88c-1.4,1.38-3.12,2.4-5.1,3.3
		c1.34,1.03,2.66,0.15,4.1,0.37c-1.3,0.94-2.63,1.2-3.81,1.76c-1.16,0.55-2.57,0.44-3.88,1.4c1.27,0.29,2.32,0.28,3.31,0.04
		c2.74-0.64,5.53-0.86,8.33-1.08c1.9-0.15,3.75-0.56,5.52-1.31c3.52-1.49,5.95-4.15,7.75-7.38c1.28-2.3,2.37-4.72,2.87-7.35
		c0.07-0.39,0.3-0.78-0.08-1.43c-1.01,1.94-1.98,3.74-2.89,5.57c-1.19,2.41-2.87,4.44-4.87,6.18c-3.02,2.64-6.66,3.86-10.93,4.43
		c1.51-1.42,3.25-2.09,4.57-3.78c-1.9,0.09-3.22,1.25-4.81,1.08c0.03-0.67,0.63-0.85,1.03-1.18c2.99-2.49,4.94-5.73,6.58-9.19
		c1.28-2.69,2.27-5.48,2.95-8.38c0.38-1.62,0.52-3.26,0.6-4.9c0.27-6.14-0.32-12.2-1.77-18.17c-0.12-0.48-0.3-0.94-0.07-1.61
		c1.39-0.81,3.2-0.73,4.76-1.34c-0.14-0.83-0.73-0.66-1.17-0.65c-1.58,0.03-3.13-0.14-4.68-0.72c-0.99-2.8-1.87-5.64-3.47-8.18
		c-2.21-3.52-4.64-6.81-8.28-9.04c-1.3-0.8-2.61-1.65-3.84-3.09c1.83-0.14,2.92,0.88,4.15,1.49c1.25,0.63,2.51,1.26,3.74,1.93
		c1.3,0.71,2.57,1.5,3.87,2.22c1.18,0.65,2.22,1.56,3.98,2.27c-0.71-1.24-1.4-1.69-2.05-2.12c-2.62-1.74-5.21-3.52-7.9-5.14
		c-3.92-2.36-8.17-3.92-12.59-5.08c-2.1-0.55-4.26-0.46-6.38-0.82c-0.5-0.08-0.97,0.13-1.31,0.53c2.11,2.73,4.88,4.3,8.28,4.8
		c0.19-0.39-0.16-0.56-0.32-0.81l-0.07,0.06c0.79-0.43,1.29,0.19,1.69,0.62c1.03,1.14,2.32,1.82,3.68,2.45
		c2.18,1,4.19,2.32,6.12,3.73c1.42,1.04,2.48,2.4,3.49,3.82c2.06,2.89,3.69,6.01,5.03,9.26c-0.73,0.52-1.25,0.14-1.76-0.07
		c-3.83-1.59-7.47-3.56-10.79-6.03c-5.11-3.79-10.11-7.71-15.16-11.58c-0.46-0.35-0.99-0.65-1.34-1.1
		c-0.73-0.94-1.62-1.57-3.01-1.84c1.66-1.15,3.23,0.47,4.78-0.5c-0.3-0.65-0.87-0.88-1.5-0.9c-3.28-0.09-5.94-1.85-8.77-3.17
		c-0.9-0.42-1.61-1.15-2.18-1.98c-0.77-1.13-0.73-2.11,0.15-3.14c1.17-1.37,2.8-2.03,4.42-2.64c3.2-1.21,6.56-1.58,9.96-1.73
		c5.85-0.25,11.5,0.9,17.12,2.27c6.1,1.49,12.04,3.46,17.72,6.19c5.6,2.69,10.91,5.79,15.47,10.1c2.65,2.5,5.22,5.07,7.81,7.61
		c0.18,0.17,0.37,0.34,0.51,0.54c2.87,4.06,6.36,7.56,10.11,11.09c-0.63,0.24-1.14,0.01-1.62-0.09c-4.87-1-9.6-2.37-13.87-5.04
		c-2.96-1.85-5.65-3.94-7.88-6.7c-1.76-2.18-3.79-4.15-6-5.91c-0.81-0.64-1.63-1.3-2.8-1.47c0.17,0.82,0.74,1.06,1.17,1.4
		c5.22,4.2,9.27,9.36,12.48,15.22c0.43,0.79,1.08,1.46,1.56,2.23c1.51,2.39,2.52,5.01,3.25,7.73c1.15,4.3,2,8.67,2.85,13.04
		c0.41,2.13,0.17,4.27,0.03,6.46c-1.28-2.41-1.98-5.05-3.11-7.49c-1.14-2.45-2.33-4.88-3.56-7.42c-0.54,0.66-0.13,1.09,0.01,1.46
		c1.66,4.23,3.27,8.47,4.69,12.78c1.01,3.1,1.51,6.27,0.98,9.51c-0.56,3.41-0.92,6.85-1.33,10.28c-0.02,0.15-0.12,0.3-0.18,0.44
		c-0.28-0.04-0.38-0.26-0.49-0.49c-1.28-2.6-2.71-5.09-4.72-7.24c-1.48-1.58-2.29-3.61-3.33-5.48c-1.52-2.75-2.79-5.61-3.91-8.55
		c-1.47-3.87-2.3-7.9-2.84-12c-0.5-3.76-1.14-7.49-2.21-11.13c-0.24-0.81-0.29-1.8-1.14-2.33c-0.77,0.38-0.25,0.91-0.18,1.3
		c0.88,4.95,1.78,9.89,2.21,14.91c0.25,2.94,0.87,5.86,2,8.65c0.68,1.68,1.16,3.44,1.73,5.16c0.58,1.72,1.28,3.38,2.17,4.98
		c1.42,2.56,2,5.41,2.4,8.27c0.38,2.77,0.64,5.56,0.89,8.35c0.32,3.64,1.03,7.18,2.38,10.58c0.05,0.12-0.04,0.3-0.11,0.7
		c-2.5-2.68-4.7-5.38-6.61-8.37c-1.91-2.99-3.05-6.28-4.22-9.62c-0.3,0.18-0.56,0.28-0.55,0.34c0.09,0.85,0.55,1.69-0.43,2.43
		c-0.44,0.34-0.17,1.07-0.08,1.65c0.47,2.99,1.78,5.65,3.32,8.2c2.14,3.56,4.92,6.63,7.8,9.58c3,3.07,6.06,6.1,8.82,9.39
		c2.95,3.51,5.42,7.29,6.35,11.9c0.16,0.81,0.37,1.6,0.26,2.43c-0.7,0.12-0.8-0.48-1.09-0.81c-1.59-1.84-3.53-3.25-5.59-4.46
		c-3.05-1.79-6.18-3.45-9.37-4.99c-5.61-2.71-9.46-7.06-11.75-12.85c-1.29-3.25-1.91-6.66-2.46-10.08
		c-0.26-1.62-0.57-3.25-0.61-4.91c-0.02-0.78-0.32-1.55-0.51-2.4c-0.77,0.65-0.76,1.38-0.78,2.14c-0.07,2.57,0.27,5.1,0.67,7.63
		c0.2,1.28,0.74,2.56,0.19,3.88L359.1,139.42z"/>
	<path class="st0" d="M378.73,537.5c-2.37-1.69-4.02-3.79-5.45-6.15c-3.54-5.85-6.22-12.01-7.46-18.76
		c-0.72-3.92-0.78-7.87-0.68-11.84c0.01-0.23,0.1-0.48,0.2-0.69c0.07-0.14,0.23-0.23,0.4-0.39c1.94,0.84,3.94,1.63,6.13,1.62
		c6.36-0.02,11.48-2.62,15.53-7.45c3.67-4.38,5.36-9.62,6.45-15.09c0.84-4.22,1.22-8.5,0.87-12.79c-0.48-5.86-1.61-11.59-4.04-17.01
		c-1.49-3.31-2.92-6.65-4.64-9.87c1.77-4.56,3.54-9.1,5.06-13.74c3.06-9.36,5.36-18.89,6.6-28.66c0.54-4.26,0.85-8.55,0.7-12.86
		c-0.1-3.06,0.07-6.12-0.13-9.18c-0.46-7.11-1.73-14.07-3.59-20.93c-2.58-9.51-6.17-18.64-10.21-27.61
		c-0.27-0.59-0.52-1.19-0.94-2.18c1.27,0.8,2.02,1.62,2.72,2.44c6.87,8.15,12.35,17.14,16.37,27.02c1.87,4.59,3.73,9.17,4.81,14.04
		c0.84,3.79,1.53,7.6,1.88,11.46c0.19,2.08,0.69,4.03,1.64,5.91c1.96,3.91,3.47,8.02,4.95,12.17c-0.21,0.32-0.33,0.64-0.56,0.85
		c-3.48,3.11-5.63,7.09-7.41,11.31c-4.12,9.78-6.96,19.92-8.6,30.41c-1.11,7.12-1.72,14.27-1.39,21.46
		c0.32,6.95,1.48,13.77,3.94,20.33c1.51,4.02,2.95,8.06,5.13,11.79c0.49,0.84,0.25,1.59-0.09,2.36c-1.11,2.49-2.26,4.96-3.34,7.46
		c-3.59,8.39-9.17,15.45-14.78,22.51c-1.95,2.46-3.83,4.97-5.72,7.48c-0.5,0.66-1.04,1.33-1.32,2.09
		C381.23,536.39,380.23,537.1,378.73,537.5z"/>
	<path class="st0" d="M272.7,48.63c-1.13,0.97-1.7,2.33-2.58,3.49c0.69,0.55,1.01-0.07,1.3-0.3c2.58-2.14,4.14-4.89,4.78-8.18
		c0.08-0.4,0.02-0.83,0.38-1.13c0.06-0.05,0.15-0.06,0.35-0.14c1.53,3.23,1.86,6.58,1.02,10.02c-0.42,1.72-1.47,3.11-2.92,4.18
		c-0.7,0.52-1.57,0.85-2.04,1.81c2.44-0.06,4.85-0.33,7.01,1.55c-1.39,0.82-2.66-0.06-3.89,0.08c-1.28,0.14-2.61-0.1-3.91,0.35
		c0.03,1.07,0.87,1,1.41,1.06c1.89,0.19,3.78,0.28,5.68,0.39c2.12,0.12,4.25,0.22,6.35,0.32c0.19,0.9-0.46,1.29-0.87,1.76
		c-2.34,2.69-5.18,4.62-8.75,5.22c-1.37,0.23-2.8,0.09-4.21,0.15c-0.78,0.03-1.6-0.15-2.42,0.25c1.44,1.1,1.44,1.1,3.9,1.6
		c-0.19,0.58-0.69,0.57-1.11,0.59c-0.91,0.04-1.83,0.08-2.73,0c-2.2-0.18-2.8-0.69-3.74-2.99c0.54-0.86,1.8-0.16,2.39-1.13
		c0.17-0.6-0.38-0.87-0.84-1.21c-0.87-0.63-1.75-1.25-2.58-1.92c-0.63-0.51-1.2-1.1-1.87-1.72c2.32-1.54,3.46-3.43,2.63-6.05
		c-0.75-0.33-1.05,0.06-1.34,0.48c-0.6,0.84-1.02,1.86-2.17,2.35c0.82-4.86-0.4-8.78-3.51-11.32c-1.07,1.4-0.34,3.03-0.62,4.51
		c-0.28,1.52-0.48,3.06-1.29,4.71c-0.7-1.66-1.27-3.11-2.14-4.42c-1.4-2.1-3.17-3.78-5.3-5.12c-0.85-0.53-1.18-0.03-1.5,0.78
		c-1.55-1.3-2.74-2.86-4-4.33c-2.49-2.91-4.55-6.1-5.75-9.76c-2.44-7.48-1.7-14.69,2.26-21.47c2.03-3.48,5.33-5.03,9.31-5.2
		c8.48-0.36,15.7,2.78,21.96,8.2c7.81,6.75,12.29,15.39,13.8,25.59c0.85,5.79,0.21,11.51-0.64,17.22c-0.07,0.5-0.18,0.98-0.5,1.38
		c-0.49,0.62-1.43,0.73-1.92,0.09c-1.38-1.79-3.28-2.7-5.62-3.27c0.68-0.99,1.32-1.8,1.83-2.69c0.53-0.93,0.73-2,1-3.04
		c0.28-1.08,0.25-2.14,0.2-3.2c-0.05-1.06-0.23-2.14-0.48-3.17c-0.25-1.04-0.57-2.09-1.03-3.05c-0.43-0.91-0.64-2.11-1.95-2.32
		c-0.91,0.68-0.75,1.62-0.83,2.5c-0.23,2.41-0.83,4.7-2.59,6.51c0-0.73,0.12-1.43,0.29-2.16c0.99-4.46-1.46-9.32-5.64-11.38
		c-1.76-1.37-2.27-1.6-3.67-1.61c1.17,0.7,2.31,1.32,3.55,1.74c0.32,0.35,0.61,0.75,0.98,1.06c1.29,1.06,2.2,2.4,2.92,3.88
		c0.95,1.95,1.22,4.03,1.22,6.18C272.29,47.13,271.79,48.03,272.7,48.63z M270.03,25.92c-0.03-1.37-0.03-1.37-1.16-2.33
		c0.18,0.9,0.65,1.61,1.22,2.27c0.79,1.99,1.57,3.97,2.37,6c0.08-0.21,0.2-0.37,0.17-0.5c-0.36-1.96-1.12-3.76-2.18-5.44
		C270.42,25.86,270.18,25.92,270.03,25.92z M263.34,16.55c0.31,0.81,0.88,1.37,2.11,2.09C264.68,17.47,264.1,16.92,263.34,16.55z
		 M273.9,41.06c0.04-0.59,0.11-1.34,0.14-2.1c0.01-0.25-0.14-0.29-0.34,0.03C273.77,39.64,273.84,40.43,273.9,41.06z M273.29,34.4
		c-0.1,1.17-0.22,1.87,0.27,2.63C273.7,36.17,273.75,35.46,273.29,34.4z"/>
	<path class="st0" d="M251.59,170.48c-0.83-1.03-2.2-0.66-3.28-1.5c2.39-1.56,5.26-1.72,7.78-3.1c0.21-1.73,0.4-3.51,0.64-5.29
		c0.1-0.73,0.26-1.46,0.5-2.16c1.74-5.21,2.49-10.6,2.75-16.04c0.07-1.47,0.22-3.13-0.83-4.52c-0.43-0.57-0.56-1.33-0.3-2.03
		c0.53-0.17,0.35,0.59,0.85,0.38c0.45-1.29-0.25-2.52-0.55-3.76c-0.28-1.18-0.91-2.28-0.88-3.57c0.83-0.06,0.95,0.63,1.29,1.02
		c2.45,2.79,3.42,6.11,3.61,9.76c0.24,4.71,0.21,9.41-0.49,14.08c-0.72,4.79-2.05,9.35-5.08,13.26c-1.37,1.77-2.93,3.35-4.56,4.85
		c-3.59,3.3-7.27,6.48-10.82,9.82c-6.22,5.85-11.14,12.63-14.28,20.61c-2.68,6.79-4.24,13.85-5.03,21.11
		c-0.46,4.2-0.62,8.4-0.25,12.6c0.18,1.97,0.22,3.95,0.38,5.92c0.2,2.48,0.07,4.96-0.54,7.38c-0.39,1.55-1.08,2.97-2.38,3.96
		c-1.78,1.38-3.78,1.56-5.88,0.84c-1.34-0.46-2.54-1.2-3.62-2.12c-4.07-3.47-6.65-7.95-8.65-12.82c-0.26-0.64-0.22-1.25-0.02-1.92
		c1.77-5.93,3.48-11.87,5.25-17.79c0.71-2.37,1.76-4.61,2.56-6.96c0.94-2.76,0.95-5.56,0.68-8.33c-0.51-5.18-0.9-10.36-0.73-15.56
		c0.07-2.22,0.29-4.44,0.51-6.66c0.18-1.83,1.02-3.19,2.73-4.11c5.33-2.89,10.88-5.19,16.8-6.54c4.11-0.94,8.21-1.86,12.48-1.71
		c2.57,0.09,5.07,0.66,7.62,0.9C250.4,170.5,250.94,170.66,251.59,170.48z"/>
	<path class="st0" d="M298.26,114.87c1.03-2.57,2.24-4.53,3.61-6.36c2.99-4,4.07-8.61,4.46-13.43c0.23-2.79,0.23-5.6-0.28-8.39
		c-0.12-0.65-0.2-1.32-0.16-1.97c0.23-3.19-0.42-6.23-1.43-9.21c-2.03-5.97-4.65-11.65-8.28-16.83c-2.15-3.07-4.79-5.7-8-8.13
		c-0.35-1.37,0.29-2.72,0.32-4.1c0.02-1.4,0.16-2.8,0.24-4.25c1.5-1.56,3.37-2.64,5.37-3.4c5.28-2.02,10.73-3.26,16.43-3.29
		c1.4-0.01,2.8-0.29,4.19-0.25c6.52,0.17,12.99,0.79,19.44,1.82c6.48,1.04,12.73,2.81,18.9,4.92c2.81,0.96,5.51,2.15,7.98,3.89
		c-0.49,0.41-0.85,0.16-1.21-0.02c-9.44-4.63-19.46-7.21-29.84-8.54c-2.96-0.38-5.94-0.11-8.88,0.34c-2.61,0.4-5.18,0.99-7.61,2.08
		c-1.38,0.61-2.64,1.37-3.64,2.51c-1.26,1.44-1.37,2.69-0.24,4.26c0.57,0.79,1.31,1.47,2.14,2.4c-2.66,0.13-5.03-0.62-7.46-0.51
		c-2.47,0.12-4.95,0.03-7.47,0.03c0.14,0.96,1.01,1.26,1.74,1.71c1.76,1.08,3.49,2.19,5.12,3.48c3.3,2.61,5.68,5.96,7.83,9.51
		c0.47,0.77,0.95,1.53,1.43,2.3c0.6-0.36,0.34-0.74,0.19-1.07c-0.46-0.97-0.97-1.9-1.1-3.01c-0.09-0.75-0.65-1.32-1.07-1.94
		c-2.29-3.37-5.02-6.33-8.25-8.92c6.02-0.69,10.18,1.17,15.86,4.56c2.92,1.75,5.48,3.96,8.05,6.17c3.57,3.08,7.41,5.8,11.37,8.35
		c0.32,0.21,0.62,0.45,0.84,0.82c-1.91-0.31-3.58-1.14-5.2-2.09c-3.14-1.85-5.86-4.28-8.79-6.44c-0.39-0.29-0.72-0.67-1.28-0.7
		c-0.42,0.62,0.2,0.87,0.49,1.14c1.38,1.34,2.54,2.82,3.38,4.55c0.33,0.7,1.07,1.32,0.48,2.25c-0.21,0.32,0.09,0.63,0.32,0.85
		c1.73,1.65,2.01,3.92,2.51,6.05c1.01,4.29,1.01,8.68,0.87,13.06c-0.05,1.4-0.4,2.78-0.94,4.08c-1.09,2.68-2.42,5.24-3.88,7.74
		c-1.14,1.95-2.74,3.54-4.46,4.96c-3.97,3.29-8.4,5.86-13.02,8.1c-0.7,0.34-1.43,0.83-2.61,0.64c4.52-5.22,8.15-10.73,10-17.25
		c0.89-3.11,1.34-6.29,1.48-9.5c0.15-3.61,0.2-7.25-0.6-11.06c-0.4,0.79-0.37,1.42-0.35,2.02c0.2,4.64-0.38,9.23-0.95,13.81
		c-0.52,4.21-2.03,8.15-4,11.89c-0.53,1-1.34,1.89-2.16,2.7c-3.08,3.05-6.6,5.48-10.57,7.25
		C299.33,114.56,299.02,114.63,298.26,114.87z"/>
	<path class="st0" d="M359.02,139.49c1.43,1.31,1.66,3.15,1.98,4.87c0.27,1.44,0.07,2.96,0.14,4.45c0.12,2.4-0.57,4.56-1.81,6.58
		c-0.41,0.67-1.02,1.27-0.91,2.38c1.34-0.91,2.35-1.89,2.94-3.29c0.74-1.74,1.49-3.48,2.29-5.37c1.56,1.64,3.05,3.14,4.46,4.71
		c0.37,0.41,0.65,0.99,0.75,1.53c0.97,5.24,1.37,10.49-0.37,15.66c-0.8,2.37-2.04,4.5-4.21,6.03c0.38-0.71,0.81-1.4,1.13-2.14
		c0.86-1.98,1.28-4.1,1.49-6.23c0.34-3.46,0.26-6.93,0.03-10.41c-0.05-0.67-0.21-1.28-0.51-1.9c-0.91,0.53-0.46,1.33-0.46,1.94
		c0,1.28-0.3,2.42-0.82,3.57c-1.57,3.47-3.73,6.41-7,8.47c-0.91,0.57-1.72,1.28-2.59,1.92c-2.42,1.79-4.18,3.99-4.46,7.38
		c-1.27-1-1.95-2.14-2.4-3.42c-0.99-2.85-0.9-5.66,0.33-8.45c1.01-2.3,2.56-4.24,3.95-6.28c0.21-0.31,0.68-0.5,0.39-1.19
		c-3.91,2.77-6.49,6.42-7.04,11.07c-0.46,3.96,1.17,7.43,4.27,10.06c0.63,0.53,1.29,1.06,2.02,1.43c3.76,1.86,5.49,5.39,7.11,8.89
		c0.83,1.79,0.67,3.9-0.21,5.79c-1.01,2.18-2.28,4.18-4.02,5.89c-3.61,3.57-5.91,7.92-7.1,12.84c-0.51,2.11-0.58,4.27,0.02,6.38
		c0.75,2.62,1.99,4.06,5.05,6.02c-2.81,0.71-5.02,0.15-6.84-2.04c-2.62-3.15-3.5-6.64-2.43-10.63c0.52-1.92,1.07-3.82,2.15-5.51
		c0.14-0.21,0.28-0.42-0.07-0.79c-2.43,3.34-3.91,6.93-3.46,11.49c-1.42-1.15-1.63-2.38-1.71-3.67c-0.17-2.83,0.29-5.6,0.79-8.36
		c0.6-3.26,0.94-6.53,0.86-9.84c-0.04-1.66-0.12-3.31-0.87-4.97c1.56-0.43,2.78,0.25,3.89,1.05c2.08,1.5,3.01,3.71,3.23,6.17
		c0.17,1.88,0.03,3.79,0.03,5.69c0,0.63-0.43,1.05-0.7,1.56c-0.37,0.69-1.1,1.21-1.02,2.1c0.3,0.19,0.56,0.08,0.7-0.08
		c2.33-2.81,4.52-5.77,5.63-9.26c0.82-2.57,1.19-5.35,0.76-8.06c-0.37-2.31-1.64-4.22-4-4.94c-3.62-1.1-6.45-3.27-8.9-6.09
		c-0.43,0.68,0.02,1.14,0.29,1.59c1.39,2.26,3.26,3.92,5.89,4.61c0.64,0.17,1.26,0.38,1.88,0.61c2.91,1.07,4.18,2.9,4.1,6.04
		c-0.05,1.98-0.24,3.95-0.84,5.86c-0.48,0.6-1.21,0.34-1.77,0.65c-0.21-0.31-0.45-0.5-0.47-0.7c-0.09-1.27-0.6-2.39-1.08-3.54
		c-1.26-3.01-3.59-4.37-6.77-4.47c-3.01-0.1-5.85-1-8.63-2.02c-1.85-0.68-2.9-2.38-4.17-3.89c-0.02-1.5,1.28-2.77,1.04-4.39
		c-0.91-0.02-1.15,0.63-1.47,1.19c-0.89,1.52-1.14,3.26-1.63,4.91c-0.69,2.31-1.22,4.6,0.38,7.01c-1.63-0.25-2.12-1.35-2.67-2.29
		c-0.68-1.16-0.9-2.49-0.63-3.83c0.16-0.8,0.36-1.63,0.72-2.35c1.43-2.86,2.37-6,4.67-8.37c0.16-0.17,0.31-0.37,0.13-0.74
		c-1.07-0.03-1.27,1.08-1.93,1.56c-0.72,0.52-0.89,1.56-1.99,2.04c-0.5-2.83-0.53-5.52-0.09-8.19c1.09-6.68,4.64-11.9,9.71-16.23
		c3.62-3.09,7.83-5.21,12.04-7.32c0.51-0.25,1.09-0.4,1.65-0.5c4.05-0.68,6.56-3.25,8.25-6.78c0.53-1.11,1.12-2.23,0.97-3.54
		L359.02,139.49z M340.45,178.89c0.86-4.14,4.11-7.03,5.4-10.91c-1.85,2.45-3.56,4.98-5.24,7.53c-0.46,0.7-0.74,1.48-0.8,2.32
		C339.78,178.24,339.8,178.68,340.45,178.89z"/>
	<path class="st0" d="M17.53,614.22c1.91,0,3.36,0.02,4.82,0c3.22-0.05,6.44-0.03,9.6-0.85c0.7-0.18,1.48-0.11,2.22-0.13
		c3.22-0.08,6.44-0.15,9.67-0.22c0.41-0.01,0.83-0.01,1.16-0.32c0.21-0.45-0.56-0.62-0.29-1.13c0.39-0.46,1.03-0.32,1.55-0.49
		c0.55-0.18,1.12-0.31,1.67-0.45c0.35-0.09-0.14-0.79,0.59-0.71c0.53,0.06,1.1-0.26,1.67-0.37c0.57-0.12,1.14-0.18,1.71-0.28
		c1.06-0.19,2.12-0.37,3.16-0.61c0.3-0.07,0.64-0.21,0.63-0.83c-2.24-0.48-4.47,0.12-6.7,0.26c-2.27,0.14-4.53,0.26-7.01,0.09
		c0.79-1.21,1.82-1.78,2.67-2.49c3.52-2.93,6.43-6.41,9.19-10.02c1.21-1.58,2.07-3.38,2.98-5.14c0.8-1.54,1.67-3.04,2.63-4.49
		c3.35-5.07,5.62-10.65,7.72-16.31c1.15-3.08,2.18-6.21,3.31-9.46c1.43,0.18,2.44,0.8,3.26,1.94c1.9,2.68,2.99,5.7,3.71,8.85
		c1.85,8.06,1.22,15.92-2.32,23.43c-3.68,7.82-8.72,14.6-15.99,19.49c-4.43,2.98-9.28,5.02-14.55,6.02
		c-1.36,0.26-2.66,0.36-4.09-0.16c-1.43-0.53-3.08-0.46-4.64-0.62c-5.35-0.55-10.64-1.36-15.65-3.45
		C19.41,615.39,18.59,615.07,17.53,614.22z M56.61,603.58c-0.87-0.07-7.49,1.36-8.94,1.94c0.04,0.97,0.64,1.34,1.49,1.16
		c2.34-0.5,4.64-1.11,6.81-2.17C56.35,604.32,56.67,604.08,56.61,603.58z"/>
	<path class="st0" d="M307.02,138.79c-1.08,0.96-0.7,2.25-0.72,3.42c-0.02,0.81,0.11,1.62,0.18,2.55c-2.12,0.36-4.02,0.05-5.77-0.98
		c-1.28-0.75-2.35-1.75-3.36-2.88c-3.9-4.35-6.13-9.54-7.8-15.03c-0.67-2.21-1.46-4.38-2.14-6.58c-0.56-1.8-0.52-2.11,0.09-3.91
		c-0.91-0.8-2.11-1.16-3.18-1.72c-1.08-0.57-2.16-1.13-3.51-1.2c0.68,0.63,1.34,1.26,2.03,1.88c1.69,1.54,2.91,3.36,3.51,5.59
		c0.32,1.19,0.72,2.37,1.02,3.57c1.15,4.69,3.13,9.04,5.32,13.3c1.34,2.6,3.32,4.72,5.52,6.61c1.41,1.21,3.15,1.77,4.93,2.19
		c2.6,0.6,4.96,1.65,6.96,3.49c0.66,0.61,1.49,1.02,2.25,1.52c-3.37,3.74-8.66,3.73-12.13,0.05c-2.77-2.94-5.38-6-7.76-9.28
		c-3.71-5.11-8.37-9.3-13.5-12.98c-0.4-0.29-0.78-0.59-1.37-1.03c2.73-0.47,5.29-0.11,7.75-0.28c0.1-0.64-0.16-0.83-0.47-0.94
		c-3.79-1.36-6.51-4.14-9.15-7c-0.67-0.73-1.21-1.57-1.88-2.3c-1.07-1.18-1.29-2.42-0.42-3.8c1.56,0,2.64,1.71,4.68,1.21
		c-1.42-1.18-2.64-2.2-3.83-3.19c0.01-0.82,0.44-1.28,1.04-1.8c1.62,0.6,3.28,1.21,4.95,1.83c-1.02-1.38-2.79-1.81-3.7-3.41
		c0.31-0.88,1.06-1.38,1.63-1.9c1.12-0.16,1.79,0.7,2.72,0.75c0.44-0.16-0.07-0.61,0.23-0.83l-0.04,0.05
		c0.31-0.01,0.63-0.03,0.91-0.04c0.39-0.83-0.43-1.22-0.53-1.91c0.13-0.14,0.25-0.36,0.44-0.48c1.13-0.73,2.21-0.83,3.43-0.03
		c2.75,1.82,5.98,2.29,9.13,2.91c2.02,0.4,3.69,1.31,5.17,3.05c-2,3.95-5.07,6.95-8.59,9.63c1.6,0.1,2.83-0.92,4.27-1.21
		c1.43-0.29,2.64-1.25,4.27-1.41c-0.8,1.49-2.22,2.55-2.15,4.39c0.85,0.21,1.29-0.4,1.85-0.64c2.26-0.97,3.94-0.67,5.65,1.01
		c0.42,0.42,0.77,0.86,0.88,1.45c0.32,1.61,0.63,3.22,0.95,4.83c0.09,0.44-0.13,0.79-0.28,1.18c-0.3,0.76-0.63,1.52-0.86,2.3
		c-0.57,2-0.42,3.78,1.67,4.88c0.59,0.31,0.87,0.73,0.57,1.4C307.59,137.63,307.31,138.21,307.02,138.79z M304.02,147.82
		c0-0.94-0.59-1.53-1.51-1.5c-0.68,0.02-1.29,0.56-1.34,1.19c-0.06,0.83,0.82,1.83,1.6,1.83
		C303.46,149.34,304.02,148.65,304.02,147.82z"/>
	<path class="st0" d="M374.35,52.99c-0.82-0.15-1.33-0.61-1.77-1.07c-2.6-2.64-5.66-4.74-8.63-6.87c-3.68-2.62-7.77-4.63-12.19-5.84
		c-1.27-0.35-2.52-0.77-3.74-1.28c-0.9-0.38-1.84-0.75-2.66-1.5c2-1.74,3.45-3.96,5.18-5.92c2.53-2.87,5.36-5.37,8.69-7.28
		c4.68-2.67,9.42-2.54,13.24,0.44c2.6,2.03,4.49,4.6,5.53,7.75c1.2,3.61,1.35,7.29,0.69,11.01c-0.43,2.44-1.16,4.8-2.13,7.1
		C376,50.83,375.17,51.93,374.35,52.99z M375.14,33.72c-0.03,0.41-0.12,0.83-0.08,1.23c0.38,3.61-0.75,6.83-2.44,9.92
		c-0.24,0.43-0.49,0.87-0.63,1.34c-0.12,0.38-0.73,0.73-0.09,1.28C375.81,43.53,375.76,38.64,375.14,33.72z M364.5,44.11
		c2.05-0.63,2.66-2.02,3.18-3.35c0.48-1.22,1.07-2.52,0.58-3.88c-0.7-0.06-1.13,0.34-0.99,0.67c0.5,1.18-0.18,2.07-0.58,3.03
		C366.21,41.74,365.58,42.84,364.5,44.11z M366.34,30.07c-1.54,2.59-1.56,5.52-2.07,8.34C365.89,35.87,365.79,32.88,366.34,30.07z"
		/>
	<path class="st0" d="M252.37,127.18c-0.18,1.21-0.44,2.41-0.54,3.62c-0.21,2.61-1.39,4.73-3.26,6.47
		c-2.01,1.87-4.36,3.25-6.83,4.42c-0.22,0.1-0.46,0.22-0.75-0.07c0.39-0.57,0.79-1.17,1.2-1.75c1.31-1.83,1.9-3.88,1.51-6.09
		c-0.17-0.97,0.03-1.78,0.31-2.64c0.72-2.14,1.08-4.32,0.76-6.58c-0.09-0.63-0.31-1.25-0.61-1.86c-0.53,2.2-0.47,4.47-1.18,6.61
		c-0.7,2.1-1.56,4.12-3,6.55c-0.44-5.42-2.87-9.6-4.36-14.09c-1.03-3.08-1.68-6.19-1.7-9.45c-0.01-1.41,0.16-2.75,0.95-4.18
		c2.08,2.1,4.29,3.74,7.22,4.07c2.31,4.56,4.63,9.01,5.96,13.9c0.08,0.31,0.29,0.6,0.49,0.85c0.14,0.18,0.38,0.28,0.61,0.45
		c1.03-1.71,0.81-3.56,0.73-5.34c-0.08-1.78,0-3.58-0.55-5.37c0.63,0.04,0.84,0.3,1.02,0.58c2.72,4.17,5.05,8.51,5.86,13.52
		c0.42,2.6,0.91,5.18,1.35,7.78c0.43,2.54-1.28,5.79-3.62,6.94c-4.67,2.29-9.52,2.39-14.47,1.19c-0.88-0.21-1.75-0.49-2.6-0.82
		c-0.74-0.29-1.58-0.46-2.11-1.35c3.67-0.22,7.02-1.42,10.41-2.41c4.26-1.24,6.9-3.95,7.32-8.63
		C252.67,131.39,253.05,129.29,252.37,127.18z"/>
	<path class="st0" d="M413.01,479.59c-0.87-1.3-0.97-2.57-1.23-3.76c-1.93-8.76-2.45-17.63-2.01-26.57
		c0.36-7.44,1.53-14.75,3.43-21.94c0.36-1.36,0.72-2.71,1.16-4.05c1.46-4.46,3.31-8.79,4.4-13.37c0.59,0.13,0.69,0.55,0.76,0.91
		c0.75,4.38,1.32,8.79,1.79,13.21c0.26,2.46-0.21,4.44-1.5,6.47c-1.49,2.33-2.07,5.05-2.45,7.74c-0.54,3.91-1.11,7.83-1.11,11.8
		c0,3.91,0.55,7.73,1.6,11.48c0.23,0.82,0.41,1.59,0.17,2.41C416.53,469.09,414.93,474.21,413.01,479.59z"/>
	<path class="st0" d="M249.97,109.95c5.87-4.95,9.05-9.19,11.11-20.02c0.9,0.87,0.98,1.92,1.07,2.94c0.23,2.64,0.8,5.21,1.52,7.75
		c1.76,6.2,4.79,11.74,8.62,16.86c1.98,2.64,4.1,5.18,6.84,7.11c0.25,0.17,0.57,0.33,0.57,0.83c-1.03,0.45-2.07-0.02-3.08-0.07
		c-2.88-0.15-5.76-0.37-8.58-1.08c-4.39-1.11-8.28-3.12-11.65-6.2c-2.15-1.96-4.07-4.07-5.69-6.47
		C250.38,111.11,250.13,110.62,249.97,109.95z"/>
	<path class="st0" d="M356.79,179.93c0.58,0.08,0.82,0.08,1.03,0.15c3.14,1.01,5.61-0.24,7.89-2.26c1.36-1.21,2.35-2.73,3.56-4.14
		c0.88,0.69,1.04,1.73,1.64,2.45c-0.47,1.53-1.94,1.49-2.93,2.12c1.03,1.29,1.06,1.3,4.41,1.23c0.96,1.19,1.27,2.75,1.9,4.15
		c1.45,3.23,2.64,6.62,4.44,9.65c2.17,3.65,3.46,7.62,5.05,11.49c0.06,0.14,0.01,0.32,0.01,0.52c-0.36,0.45-0.88,0.22-1.33,0.17
		c-2.13-0.25-4.24-0.56-6.37-0.8c-1.11-0.13-1.82-0.61-2.05-1.76c-1.35-6.74-5.64-11.57-10.46-16.07c-2.04-1.9-4.48-3.39-6.1-5.75
		C357.3,180.83,357.15,180.54,356.79,179.93z"/>
	<path class="st0" d="M255.41,88.35c-0.11,6.54-2.71,11.96-7.54,16.3c-1.6,1.44-3.42,2.55-5.73,2.59c-1.5,0.03-2.74-0.45-3.85-1.39
		c-1.34-1.14-2.35-2.53-3.01-4.18c-3-7.49-2.19-14.51,2.62-21.02c1.5-2.02,3.34-3.64,5.63-4.72c0.6-0.29,1.2-0.57,1.89-0.49
		c3.43,0.39,6.38,1.56,8.18,4.78C255,82.76,255.49,85.48,255.41,88.35z M242.36,101.09c3.55-0.15,5.68-1.24,7.16-3.43
		c0.69-1.02,1.3-2.11,1.85-3.22c1.79-3.64,1.4-9.2-0.59-12.79c-1.2-2.16-3.07-2.71-5.18-2.56c-2.02,0.15-3.97,1.08-5.13,2.71
		c-2.98,4.18-4.75,8.74-3.27,14.03C238.1,99.05,240.65,101.26,242.36,101.09z"/>
	<path class="st0" d="M327.76,128.1c-0.66-0.06-0.91-0.42-1.17-0.72c-1.4-1.64-3.3-2.2-5.32-2.24c-2.31-0.04-4.62-0.22-6.93,0.2
		c-1.64,0.29-3.27-0.49-5.09-0.11c-0.81-2.97-1.58-5.87-1.69-9.04c5.3-1.99,10.13-4.64,14.52-8.42
		C324.66,114.41,326.9,120.96,327.76,128.1z"/>
	<path class="st0" d="M351.18,94.81c-0.27-1.14,0.47-2.06,0.69-3.09c0.28-1.28,0.44-2.51,0.08-4.15c-0.75,2.89-1.54,5.38-2.8,7.69
		c-0.95,1.74-2.08,3.36-3.72,4.57c-0.64,0.47-1.24,0.74-2.02,0.74c-1.73,0-3.43-0.11-5.03-0.78c0.52-2.18,2.41-6.33,3.65-8.05
		c0.21,1.8-1.32,3.15-1.31,5.27c1.82-1.67,2.64-3.48,2.99-5.49c0.21-1.22,0.14-2.49-0.22-3.69c-1.37-4.6-3.5-8.72-7.55-11.59
		c-0.2-0.14-0.34-0.35-0.8-0.82c2.04,0.58,3.72,1.05,5.39,1.55c1.69,0.51,3.43,0.47,5.16,0.46c1.81-0.01,3.63,0,5.6,0
		c0.1,0.14,0.37,0.36,0.47,0.65c1.83,5.32,2.1,10.64-0.08,15.94c-0.13,0.3-0.2,0.63-0.57,0.74L351.18,94.81z"/>
	<path class="st0" d="M288.73,39.64c-0.2-3-0.65-5.67-1.28-8.39c2.51-1.24,4.88-2.32,7.63-2.21c2.06,0.08,4.13-0.19,6.18-0.22
		c2.8-0.04,5.61,0.22,8.4,0.5c7.08,0.69,14.04,2,20.89,3.91c3.32,0.92,6.68,1.72,10.27,3.32c-2.02,0.15-3.47-0.46-4.96-0.7
		c-5.13-0.84-10.27-1.55-15.47-1.89c-5.39-0.35-10.71-0.27-16.05,0.52c-5.1,0.76-10.02,2.01-14.48,4.72
		C289.6,39.36,289.27,39.43,288.73,39.64z"/>
	<path class="st0" d="M233.73,71.2c0.64,1.92,1.18,3.55,1.73,5.23c-1.89,3.13-3.34,6.42-4.19,9.98c-0.36,1.52-0.63,3.05-0.77,4.62
		c-0.15,1.64-0.21,3.28-0.38,4.92c-0.32,2.94,0.5,5.71,2.05,8.24c0.47,0.77,1.02,1.5,1.6,2.34c-1.41,4.42-4.79,7.24-8.35,10.37
		c0-1.31,0-2.24,0-3.18c0-4.29-0.03-8.58,0.01-12.86c0.05-5.27,0.28-10.54,1.51-15.7c0.9-3.78,2.15-7.43,4.25-10.75
		C231.85,73.35,232.67,72.46,233.73,71.2z"/>
	<path class="st0" d="M281.15,105.69c-1.78-0.61-3.15-1.84-4.22-3.26c-1.88-2.49-3.87-4.91-5.27-7.75
		c-0.84-1.71-1.56-3.46-2.37-5.18c-0.86-1.83-0.43-3.75-0.06-5.59c0.91-4.59,3.26-8.37,7.29-10.76c4.09-2.42,7.31-5.6,9.95-9.48
		c0.61-0.89,0.62-0.89,0.5-2.54c-0.43-0.49-1.12,0.14-1.6-0.36c-0.1-0.58,0.18-1.05,0.56-1.5c0.77,0.07,1.4,0.43,1.97,0.98
		c0.63,2.03-0.07,3.89-0.92,5.7c-1.45,3.08-3.34,5.89-5.3,8.66c-2.01,2.84-3.85,5.76-5.46,8.85c-2.94,5.65-2.58,11.09,0.79,16.41
		c0.97,1.53,1.96,3.06,3.16,4.44c0.37,0.43,0.82,0.82,0.94,1.42L281.15,105.69z"/>
	<path class="st0" d="M322.54,435.76c-2.19-8.52-4.34-16.86-6.9-25.08c-2.55-8.17-5.53-16.18-8.83-24.15
		c0.89-0.26,1.02,0.33,1.26,0.65c4.79,6.52,9.27,13.24,13.42,20.19c0.7,1.16,0.96,2.33,0.71,3.54c-0.35,1.73-0.24,3.45-0.27,5.17
		c-0.03,1.82,0.03,3.64-0.01,5.45c-0.1,3.97,0.48,7.88,1.13,11.78C323.18,434.15,323.38,434.89,322.54,435.76z"/>
	<path class="st0" d="M274.88,102.37c-2.92-1.51-5.02-3.85-7.02-6.25c-1.73-2.08-3.47-4.16-4.92-6.48
		c-1.86-2.97-1.66-7.06,1.69-9.36c1.69-1.16,3.3-2.46,5.08-3.5c0.41-0.24,0.79-0.52,1.31-0.43c0.13,0.58-0.34,0.91-0.58,1.29
		c-1.46,2.26-2.24,4.76-2.64,7.39c-0.07,0.48-0.06,1-0.24,1.45c-0.43,1.07-0.22,2.07,0.05,3.14c1.09,4.17,3.45,7.64,5.94,11.05
		C273.98,101.24,274.44,101.8,274.88,102.37z"/>
	<path class="st0" d="M339.35,116.97c1-1.5,2.39-2.31,3.39-3.53c2.59-3.18,4.7-6.58,5.85-10.54c0.18-0.64,0.29-1.29,0.77-1.8
		c2.18-2.33,3.57-5.14,4.77-8.1c0.63,0.21,0.34,0.68,0.39,1c0.06,0.41,0.03,0.83,0.01,1.24c-0.21,4.31-0.78,8.59-3,12.36
		c-2.47,4.22-5.85,7.56-10.57,9.31c-0.3,0.11-0.63,0.16-0.96,0.2C339.85,117.13,339.68,117.05,339.35,116.97z"/>
	<path class="st0" d="M297.63,874.66c-1.31-1.75-1.7-3.46-1.99-5.11c-0.95-5.57-1.85-11.15-1.02-16.91c1.06,0.1,1.86,0.46,2.37,1.28
		c1.78,2.82,3.05,5.77,2.94,9.25c-0.09,2.8-0.13,5.58-0.87,8.31C298.79,872.5,298.45,873.48,297.63,874.66z"/>
	<path class="st0" d="M307.02,138.79c0.28-0.58,0.57-1.16,0.85-1.74c0.58-0.72,1.28-1.3,2.15-1.61c0.59-0.21,1.15-0.11,1.57,0.4
		c0.38,0.46,0.21,0.93-0.08,1.37c-0.18,0.28-0.37,0.55-0.6,0.79c-1.61,1.69-1.44,3.57-0.61,5.53c0.57,1.34,1.56,2.34,2.76,3.11
		c3.24,2.09,7.15,2.59,10.48,0.28c2.35-1.63,3.09-3.51,2.45-6.47c0.21-0.18,0.45-0.4,0.71-0.59c0.19-0.14,0.41-0.25,0.53-0.32
		c0.32-0.04,0.41,0.05,0.43,0.26c0.24,2.03-0.16,3.96-0.97,5.8c-1.17,2.68-3.17,4.39-6.1,4.9c-4.18,0.73-7.85-0.26-10.91-3.26
		c-1.73-1.7-2.6-3.79-2.66-6.21C307.01,140.27,307.02,139.53,307.02,138.79z"/>
	<path class="st0" d="M334.87,112.51c0.44,0.24,0.56,0.63,0.71,1c-0.37,1.39-1.88,2.03-2.25,3.45c0.73,0.24,0.99-0.57,1.61-0.58
		c0.46,0.38,0.2,0.84,0.05,1.25c-0.44,1.24-0.82,2.52-1.38,3.7c-0.58,1.21-1.4,2.27-2.98,2.17c-2.52-3.4-3.36-7.47-4.79-11.46
		c1.96-1.02,3.92-2.01,5.81-3.45c0.73,0.87,1.41,1.69,2.16,2.59c-0.99,1.54-2.35,2.94-4.22,4.41c1.4-0.15,2.19-0.73,2.96-1.29
		C333.36,113.74,334.11,113.11,334.87,112.51z"/>
	<path class="st0" d="M371.09,156.04c1.67,0.49,2.86,1.38,4.11,2.15c0.32,0.19,0.54,0.62,0.69,0.99c1.83,4.6,2.43,9.26,0.48,13.98
		c-0.79,1.92-1.89,3.66-3.93,4.57c-0.44-0.55,0.11-0.72,0.3-0.98c1.27-1.72,1.79-3.64,1.85-5.78c0.11-3.92-0.59-7.56-3.05-10.72
		c-0.27-0.34-0.44-0.69-0.44-1.12C371.09,158.16,371.09,157.19,371.09,156.04z"/>
	<path class="st0" d="M330.27,68.11c5.37,3.5,11.2,4.47,16.76,6.18c2.01,0.62,4.14,0.9,6.44,1.89c-3.45,0.02-6.53,0.59-9.66,0.27
		c-3.58-0.36-6.91-1.44-9.99-3.28C331.41,71.72,331.36,71.61,330.27,68.11z"/>
	<path class="st0" d="M363.22,167.87c0.81,0.24,1.41,0.47,1.98,1.01c-0.08,2.16-0.49,4.32-1.41,6.35c-1.05,2.34-3.82,3.54-6.2,2.61
		c-1.87-0.73-2.43-2.42-1.12-4.41c0.17-0.26,0.48-0.45,0.74-0.64C359.36,171.27,361.57,169.84,363.22,167.87z"/>
	<path class="st0" d="M364.41,849.91c-0.76-0.36-1.11-0.43-1.32-0.64c-3.16-3.22-6.52-6.24-9.9-9.23c-0.09-0.08-0.03-0.31-0.05-0.52
		c0.39-0.56,1.03-0.42,1.53-0.32c2.26,0.43,4.49,0.97,6.48,2.21c0.41,0.26,0.75,0.54,1.06,0.96
		C363.78,844.52,364.24,846.95,364.41,849.91z"/>
	<path class="st0" d="M315.26,856.62c0.29-0.19,0.63-0.3,0.92-0.08c2.01,1.49,3.83,3.08,3.71,5.93c-0.07,1.72,0.01,3.44-0.02,5.16
		c-0.01,0.74-0.17,1.46-0.77,1.96c-0.63,0.04-0.97-0.29-1.2-0.76c-1.78-3.72-3.1-7.56-2.87-11.78
		C315.04,856.9,315.18,856.77,315.26,856.62z"/>
	<path class="st0" d="M339.32,217.33c-1.81-0.31-2.66-1.61-3.57-2.7c-0.96-1.15-2.41-1.72-3.4-3.09c4.23-1.03,6.07-4.48,8.07-7.86
		C340.29,208.25,338.97,212.66,339.32,217.33z"/>
	<path class="st0" d="M346.76,103.61c-1.53,4.89-5.73,10.48-8.48,11.5c-0.41-1.25,0.58-2.39,0.28-3.62
		c-0.27-1.11-0.52-2.23-0.82-3.52C340.96,107.15,343.85,105.83,346.76,103.61z"/>
	<path class="st0" d="M263.91,133.88c-1.56-4.17-4.74-6.59-7.01-9.71c-1.13-1.55-1.92-3.27-2.79-4.95
		c-0.14-0.28-0.38-0.56-0.11-0.91c0.15,0.02,0.35-0.02,0.42,0.06c1.84,1.92,4.33,3.05,6.11,5.04c1.05,1.17,1.92,2.47,2.35,4.03
		c0.35,1.27,0.8,2.52,1.16,3.79C264.23,131.92,264.49,132.65,263.91,133.88z"/>
	<path class="st0" d="M239.23,54.71c0.65,0.74,1.31,1.47,1.93,2.23c0.25,0.31,0.5,0.69,0.58,1.07c0.81,3.97,0.68,7.88-1.18,11.56
		c-0.93,1.85-2.35,3.16-4.51,3.2c-0.9-0.51-0.58-1.42-0.91-2.01c0.12-0.13,0.21-0.33,0.34-0.36c2.63-0.56,3.8-2.44,4.36-4.85
		c0.7-3.03,0.77-6.03-0.38-8.99c-0.2-0.53-0.33-1.08-0.48-1.63C239.06,54.86,239.15,54.79,239.23,54.71z"/>
	<path class="st0" d="M271.44,868.52c-0.45-0.34-0.64-0.76-0.67-1.29c-0.18-3.99-0.88-7.97-0.27-11.91
		c0.98-0.48,1.79-0.14,2.06,0.52c0.56,1.37,1.54,2.7,0.72,4.39c-0.42,0.86-0.59,1.87-0.53,2.88c0.11,1.68-0.53,3.24-0.86,4.84
		C271.85,868.16,271.6,868.33,271.44,868.52z"/>
	<path class="st0" d="M314.17,152.94c3.35,3.2,7.39,2.66,11.43,2.1c-0.04,0.13-0.03,0.22-0.07,0.25c-3.18,1.77-6.44,3.19-10.21,2.31
		c-0.78-0.18-1.28-0.65-1.49-1.46C313.56,155.13,313.58,154.55,314.17,152.94z"/>
	<path class="st0" d="M183.13,556.16c-0.4-1.23-0.27-1.98,0.55-2.7c3.16-2.76,6.27-5.58,9.41-8.36c0.41-0.36,0.89-0.63,1.47-1.03
		c-0.52,1.64-1.48,3.34-2.5,4.25C189.18,550.89,186.26,553.42,183.13,556.16z"/>
	<path class="st0" d="M318.07,146.89c-0.92-0.96-2.03-1.41-2.65-2.3c0.02-0.51,0.29-0.7,0.62-0.75c3.11-0.43,6.09-1.31,8.9-2.81
		c0.71,0.81,0.46,1.39-0.24,1.85c-1.5,1.01-3,2.01-4.53,2.96C319.55,146.25,318.86,146.51,318.07,146.89z"/>
	<path class="st0" d="M328.59,139.52c-0.43-0.51-0.43-1.01-0.12-1.44c1.93-2.64,1.92-5.67,1.8-8.73c-0.02-0.57-0.17-1.14,0.19-1.92
		c1.32,2.76,1.82,5.5,1.68,8.37c-0.02,0.38-0.18,0.83-0.42,1.12C330.85,137.99,329.98,139.1,328.59,139.52z"/>
	<path class="st0" d="M336.23,849.27c3,2.77,5.1,6.02,5.84,10.22c-1.07,0.06-1.46-0.65-1.87-1.17
		C338.12,855.68,336.39,851.9,336.23,849.27z"/>
	<path class="st0" d="M295.83,61.44c-2.77-2.11-5.32-4.43-8.6-5.64c-0.16-1.24,0.03-2.2,1.01-3.15
		C291.5,55.02,293.83,58.08,295.83,61.44z"/>
	<path class="st0" d="M379.07,143.66c-6.01-3.65-12.94-12.65-13.84-17.87c1.03,1.8,1.88,3.46,2.9,5.02
		c2.49,3.79,5.19,7.41,8.92,10.11C378.01,141.61,378.4,142.74,379.07,143.66z"/>
	<path class="st0" d="M337.36,202.19c-0.54-1.57,0-3.12-0.44-4.6c-0.45-1.49-1.1-2.88-1.72-4.51c1.43-0.15,2.6,0.19,3.69,0.74
		C339.36,196.57,338.8,199.67,337.36,202.19z"/>
	<path class="st0" d="M335.98,504.08c0.73,0.36,1.45,0.72,2.14,1.07c-0.26,1.91-2.02,5.31-4.09,7.99
		C333.76,511.77,334.68,507.44,335.98,504.08z"/>
	<path class="st0" d="M236,56.72c0.33,0.07,0.45,0.06,0.49,0.1c1.35,1.88,1.44,6.12,0.15,7.9c-0.19,0.26-0.45,0.49-0.72,0.65
		c-0.19,0.11-0.46,0.09-0.84,0.14C234.8,62.52,235.51,59.69,236,56.72z"/>
	<path class="st0" d="M330.64,53.2c-1.07-0.84-1.97-1.93-3.35-2.46c-0.14,0.83,0.64,1.01,0.79,1.71c-1.41-0.25-2.03-1.47-3.08-2.15
		c2.98-0.53,5.53,0.94,8.27,1.39c0.43,0.72,0.65,1.52,1.42,1.97c0.7,0.42,1.3,1,2.29,1.77c-1.56-0.11-2.45-0.73-3.28-1.42
		c-0.86-0.71-1.47-1.77-2.71-1.99c-0.16,0.47-0.29,0.84-0.42,1.21C330.57,53.26,330.64,53.2,330.64,53.2z"/>
	<path class="st0" d="M371.84,837.86c-2.31-1.68-4.01-3.39-5.93-5.42c1.94-0.12,3.31,0.6,4.41,1.49
		C371.33,834.74,372.31,835.88,371.84,837.86z"/>
	<path class="st0" d="M338.22,204.15c-1.39,2.94-2.72,5.22-5.55,6.16c-0.76,0.25-1.44,0.25-2.14-0.61
		C333.93,209.19,335.36,206.14,338.22,204.15z"/>
	<path class="st0" d="M315.94,160.73c1.81,0.91,3.18,1.59,4.65,2.33c-0.3,1.16-1.03,1.7-1.96,2.02
		C316.93,163.86,316.93,163.86,315.94,160.73z"/>
	<path class="st0" d="M331.9,501.54c1.28,0.27,1.55,0.97,1.35,1.87c-0.5,2.31-1.05,4.61-1.78,6.88
		C330.96,507.34,331.94,504.53,331.9,501.54z"/>
	<path class="st0" d="M257.58,144.45c0.46,1.19,0.16,2.07,0.01,2.92c-0.1,0.62-0.65,0.89-1.24,1.07c-1.41,0.42-2.81,0.9-4.79,1.54
		C253.97,148.09,256.01,146.68,257.58,144.45z"/>
	<path class="st0" d="M300.58,94.06c-0.01-1.07,0.28-1.56,0.99-1.69c0.79-0.15,1.46,0.34,1.77,1.3c0.05,0.15,0.09,0.31,0.11,0.47
		c0.13,0.99-0.45,2-1.21,2.11c-0.81,0.12-1.54-0.62-1.66-1.71C300.56,94.39,300.58,94.22,300.58,94.06z"/>
	<path class="st0" d="M329.14,851.39c2.62,1.59,3.68,3.66,4.44,5.97c-0.87,0.61-1.47,0.08-1.8-0.4
		C330.7,855.37,329.95,853.62,329.14,851.39z"/>
	<path class="st0" d="M247.71,120.2c-1.31-2.38-1.48-4.84-2.18-7.13c-0.13-0.41-0.33-0.95,0.22-1.31c0.56-0.05,0.63,0.43,0.76,0.77
		C247.22,114.46,247.84,118.28,247.71,120.2z"/>
	<path class="st0" d="M253.57,154.16c0.57-2.09,1.55-3.61,3.23-4.89C257.06,152.39,256.89,153.66,253.57,154.16z"/>
	<path class="st0" d="M324.8,157.91c-0.57,1.44-1.45,2.27-2.18,3.15c-1.43-0.36-1.43-0.36-2.8-1.44c0.88-0.37,1.79-0.31,2.47-0.85
		C322.93,158.26,323.75,158.16,324.8,157.91z"/>
	<path class="st0" d="M311.12,140.36c0.95,1.07,1.89,1.81,2.3,2.98c-1.27,0.89-1.5,0.88-2.01-0.13
		C311.01,142.42,310.62,141.6,311.12,140.36z"/>
	<path class="st0" d="M340.19,145.61c0.48-1.66-0.01-3.42,2.1-3.87C341.86,143.72,341.65,144.14,340.19,145.61z"/>
	<path class="st0" d="M353.04,226.43c1.53,0.29,2.79,0.29,4.23,0.15c-0.79,0.94-1.57,1.45-2.56,1.61
		C353.98,227.89,353.5,227.39,353.04,226.43z"/>
	<path class="st0" d="M319.58,147.39c1.42-0.81,2.84-1.61,4.26-2.42C322.91,146.63,321.55,147.54,319.58,147.39z"/>
	<path class="st0" d="M341.77,103.79c-1.1,1.17-2.28,2.13-3.78,2.38c-0.34-0.4-0.32-0.71-0.22-1.2
		C339.05,104.59,340.41,104.19,341.77,103.79z"/>
	<path class="st0" d="M230.99,65.35c0.88-1.09,1.82-0.84,2.34-1.32c0.63,0.33,0.49,0.71,0.34,1.1
		C232.9,65.44,232.1,65.22,230.99,65.35z"/>
	<path class="st0" d="M350.86,204.86c-0.26-1.97-0.26-1.97,0.99-2.18C351.93,203.59,351.47,204.16,350.86,204.86z"/>
	<path class="st0" d="M231.73,112.63c0.54,1.7-0.05,2.77-0.53,4.06C230.82,115.28,231.38,114.19,231.73,112.63z"/>
	<path class="st0" d="M338.97,34.41c0.81-1.29,1.31-2.13,2.65-2.69C341.25,33.19,340.57,33.86,338.97,34.41z"/>
	<path class="st0" d="M350.61,147.66c0.49-0.8,0.98-1.59,1.54-2.51C352.29,147.01,352.29,147.01,350.61,147.66z"/>
	<path class="st0" d="M184.66,560.55c-0.13,0.88-0.31,1.47-0.96,1.83c-0.1-0.11-0.26-0.2-0.27-0.32
		C183.32,561.3,183.62,560.79,184.66,560.55z"/>
	<path class="st0" d="M248.09,139.35c0.54-0.68,1.08-1.36,1.89-2.39C249.81,138.54,248.7,138.72,248.09,139.35z"/>
	<path class="st0" d="M351.12,94.76c0.07,1.12-0.57,1.95-1.23,2.77c0.09-1.06,0.48-1.99,1.29-2.72L351.12,94.76z"/>
	<path class="st0" d="M371.27,165.31c0.44,0.71,0.05,0.92,0,1.21C371.27,166.21,371.27,165.9,371.27,165.31z"/>
	<path class="st0" d="M454.1,403.64c-0.25,0.95-0.45,1.48-1.27,1.83C452.94,404.71,453.45,404.35,454.1,403.64z"/>
	<path class="st0" d="M339.71,102.06c0.77-0.3,1.58-0.72,2.65-0.22C341.42,102.58,340.56,102.08,339.71,102.06z"/>
	<path class="st0" d="M447.28,405.89c0.05,0.13,0.15,0.26,0.15,0.39c-0.01,0.39-0.01,0.83-0.56,0.86c-0.12,0.01-0.34-0.12-0.35-0.21
		c-0.06-0.44,0.22-0.74,0.54-0.99C447.11,405.9,447.21,405.9,447.28,405.89z"/>
</g>
</svg>
