<?xml version="1.0" encoding="utf-8"?>
<!-- Generator: Adobe Illustrator 24.0.2, SVG Export Plug-In . SVG Version: 6.00 Build 0)  -->
<svg version="1.1" id="Layer_1" xmlns="http://www.w3.org/2000/svg" xmlns:xlink="http://www.w3.org/1999/xlink" x="0px" y="0px"
	 width="2243.32" height="2460.37" viewBox="0 0 2243.32 2460.37" style="enable-background:new 0 0 2243.32 2460.37;" xml:space="preserve">
<style type="text/css">
	.st0{fill:#1A1A1A;}
</style>
<g>
	<g>
		<path d="M1571.39,2417.13c-2.97,7.18-5.55,13.26-8.01,19.4c-2.4,5.99-8.91,7.04-13.29,1.93c-1.27-1.48-2.26-3.34-2.92-5.19
			c-3.12-8.73-7.24-17.19-7.31-26.76c-0.02-2.35-0.37-3.96-3.82-4.05c-2.07-0.06-2.63-3.8-1.99-6.05c1.45-5.08-0.19-9.76-1.2-14.55
			c-1.25-5.88-1.65-11.79-1.21-17.81c0.56-7.64,1.13-15.4-0.27-22.92c-1.14-6.13,1.43-10.42,5.19-14.16
			c2.52-2.5,5.91-4.38,9.23-5.78c4.06-1.72,7.44-4.23,10.95-6.77c6.85-4.95,10.91-11.19,12.18-19.64
			c0.99-6.59,3.62-12.79,6.82-18.67c1.66-3.03,2.25-5.76,0.95-9.4c-2.46-6.9,0.01-14.07,1.71-20.58
			c5.48-20.91,8.71-42.33,14.76-63.11c3.06-10.52,4.16-21.45,4.2-32.52c0.06-16.65-0.97-33.32,0.68-49.94
			c0.4-4.01-1.4-7.18-3.95-9.85c-4.42-4.63-6.74-10.61-10.47-15.7c-1.88-2.56-2.44-6.1-3.72-9.55c-6.96-2.98-12.75-7.91-17.92-13.64
			c-2.52-2.8-5.77-4.3-9.23-5.7c-18.52-7.53-37.98-12.28-56.68-19.24c-22.44-8.35-45.45-15.04-67.66-24.07
			c-22.17-9.01-41.76-21.93-59.75-37.5c-1.26-1.09-2.48-2.24-3.56-3.5c-25.49-29.72-47.37-61.69-61.78-98.39
			c-4.5-11.45-9.28-22.8-14.04-34.14c-1.66-3.97-3.66-7.79-4.97-10.56c-2.02-1.91-2.79-0.93-3.49-0.41
			c-23.29,17.31-49.52,28.34-77.13,36.59c-28.43,8.49-57.68,12.93-86.79,18.1c-17.98,3.19-35.97,6.35-53.95,9.53
			c-1.24,0.22-2.61,0.14-3.41,1.83c13.34,4.71,28.06-0.48,41.06,6.1c2.74-1.58,5.27-3.04,8.02-4.63
			c-0.77,19.87-5.54,38.5-10.83,56.98c-2.21,7.7-5.95,14.9-11.49,20.78c-6.14,6.52-12.02,13.44-20.28,17.13
			c-1.11,2.82,2.84,3.92,1.68,6.38c-0.84,1.78-1.7,3.65-2.98,5.1c-4.94,5.58-11.13,9.47-17.93,12.35
			c-9.19,3.89-18.45,7.63-27.71,11.34c-2.78,1.11-5.2,2.54-7.66,4.35c-11.01,8.11-23.48,13.83-35.25,20.71
			c-21.26,12.43-42.64,24.69-62.74,38.98c-18.83,13.39-35.15,29.58-50.16,47.01c-26.51,30.78-48.92,64.64-72.2,97.82
			c-9.78,13.94-16.27,29.75-23.93,44.94c-2.24,1.18-4.75,2.14-6.83,3.66c-8.96,6.56-19.25,9-30.01,9.09
			c-13.95,0.12-27.94,0.94-41.85-1.18c-3.65-0.55-7.79-0.56-10.5-2.73c-5.05-4.04-10.64-3.86-16.12-3.16
			c-13.49,1.7-26.92,3.94-40.34,6.16c-3.24,0.54-6.45,1.63-9.5,2.89c-13.61,5.64-27.77,9-42.31,11.16
			c-3.64,0.54-7.23,0.95-10.88,0.95c-11,0.01-22-0.15-32.99,0.05c-11.02,0.19-21.84-1.51-32.74-2.67
			c-8.25-0.87-16.6-0.76-24.88-1.43c-5.87-0.47-11.69-1.5-17.94-2.34c1.22-4.55,5.81-2.36,7.14-5.1c0.67-2.7-1.28-4.22-2.27-6.04
			c-10.8-1.55-20.26,0.46-28.12,7.74c-2.57,2.38-5.16,2.78-8.2,1.59c-3.02-1.18-3.38-3.76-3.37-6.57
			c0.03-8.67,0.04-17.33-0.01-25.99c-0.02-3.13,0.46-6.1,3.11-8.05c4.05-2.96,4.91-7.69,7.4-11.39c-0.95-0.78-1.38-1.44-1.91-1.53
			c-8.37-1.46-8.29-1.45-8.63-8.95c-0.25-5.43,1.25-10.26,3.08-15.39c5.2-14.59,15.6-24.44,27.58-33.18
			c8.6-6.28,16.72-13.22,26.04-18.49c2.6-1.47,5.01-3.37,7.74-4.52c2.72-1.15,5.73-1.6,9.42-2.58c3.31-7.31,7.75-14.85,10.19-22.98
			c4.12-13.74,13.69-21.5,26.02-26.79c3.95-1.69,8.17-2.9,12.37-3.82c7.23-1.59,12.75-5.67,16.85-11.49
			c4.91-6.98,11.4-12.01,18.34-16.68c8.14-5.48,16.59-6.3,25.52-2.28c7.88,3.55,16.02,6.43,24.07,9.55
			c6.87,2.66,14.32,2.61,21.08,5.48c2.06,0.87,3.8-0.56,5.62-1.34c15.35-6.51,29.88-14.6,44.24-23.03
			c19.22-11.29,38.37-22.71,58.29-32.79c10.72-5.42,21.72-10.14,32.97-14.25c9.81-3.58,18.83-8.45,27.13-14.63
			c18.97-14.12,37.13-29.16,52.15-47.61c1.68-2.06,3.26-4.21,4.79-6.39c0.32-0.46,0.18-1.26,0.36-2.85
			c-3.74-0.39-7.53-0.82-11.33-1.19c-16.63-1.64-33.34-3.72-47.46-13.39c-11.34-7.77-23.84-13.14-35.81-19.59
			c-1.46-0.79-3.02-1.38-5.08-2.32c-8.64,3.39-17.22,7.71-25.49,12.6c-25.19,14.89-47.2,33.47-64.7,57.06
			c-6.53,8.8-12.87,17.85-13.73,28.63c0.84,4.1,4.88,3.92,6.25,6.5c-1.93,2.01-4.76,0.04-6.53,1.95c-3.72-2.55-7.22-4.97-10.74-7.36
			c-5.8-3.94-9.03-9.39-10.68-16.23c-3.22-13.36-2.14-26.4,1.89-39.33c7.86-25.25,21.52-47.07,39.47-66.32
			c3.57-3.83,7.09-7.71,11.1-12.08c-7.51-4.5-14.23-9.48-21.71-12.68c-5.32-2.28-11.66-2.24-17.55-3.13
			c-13.87-2.07-27.34-5.43-40.15-11.38c-12.47-5.79-24.28-12.44-33.82-22.58c-2.26-2.4-4.4-5.06-7.82-4.96
			c-3.33-8.12-4.03-16.11-5.84-23.83c-4.18-17.83-8.96-35.46-15.96-52.43c-1.91-4.63-4.23-8.96-7.12-13.1
			c-9.3-13.34-17.27-27.49-24.06-42.27c-3.61-7.85-6.69-15.95-10.15-23.86c-6.49-14.82-8.87-30.59-10.75-46.46
			c-1.09-9.22-1.77-18.44,0.25-27.68c1.1-5.02-0.19-9.84-1.85-14.66c-7.86-22.75-12.64-46.26-13.87-70.2
			c-1.19-23.22-2.14-46.58,1.39-69.77c3.78-24.83,11.46-48.53,21.56-71.42c7.11-16.13,14.66-32.1,23.64-47.31
			c10.02-16.99,21.78-32.66,36.03-46.39c7.47-7.2,13.69-15.4,19.36-24.06c1.52-2.32,2.27-4.55,2.19-7.4
			c-0.23-8.66-0.06-17.33-0.15-25.99c-0.02-2.32-0.04-4.73-0.63-6.94c-4.16-15.55-2.07-30.33,5.16-44.54c0.44-0.86,0.62-1.85,1-3
			c-2.81-1.19-5.07,0.56-7.48,0.99c-5.39,0.96-10.65,4.08-16.28,0.88c-1.74-0.99-3.43,0.08-4.57,1.02
			c-6.94,5.73-16.64,6.19-23.35,12.33c-0.43,0.39-1.26,0.46-1.91,0.49c-15.59,0.74-30.83,5.38-46.58,4.26
			c-12.2-0.87-24.61-0.25-36.14-5.71c-2.64-1.25-5.67-1.75-8.76-1.63c-13.94,0.54-27.9-0.75-41.87,1.2
			c-7.97,1.11-15.58,3.18-23.64,5.26c-0.96,3.47-3.47,6.4-2.71,10.34c1.38,2.31,2.97-0.38,5.09,0.53c2.01,2.99,4.57,6.3,8.47,8.52
			c2.51,1.43,4.34,4.07,6.49,6.14c2.93,2.82,3.53,6.37,2.92,10.13c-0.58,3.59-1.06,7.29-2.34,10.65c-2.48,6.53-1.1,13.19-1.44,19.79
			c-0.14,2.64,1.65,4.29,3.21,5.96c3.85,4.13,7.57,8.43,11.84,12.08c2.96,2.53,3.67,5.34,3.32,8.79
			c-0.87,8.51-4.86,15.79-9.12,22.96c-1.69,2.85-3.94,5.3-5.13,8.52c-5.31,14.43-5.27,16.72,1.47,31.2
			c-1.84,3.48-3.96-1.49-5.89,0.21c-0.34,0.45-0.86,0.89-1.06,1.44c-1.39,3.74-2.59,7.55-4.11,11.23
			c-1.93,4.71-5.01,8.51-9.38,11.32c-5.39,3.47-11.81,4.16-17.52,6.79c-2.67,1.23-4.32,0.04-8.52-3.72
			c2.44-9.36,7.21-18.34,6.78-28.28c-9.92-7.9-20.76-9.52-32.8-6.84c1.28,4.02,5.91,5.51,6.75,9.31c-0.43,0.87-0.56,1.78-1,1.97
			c-13.55,5.87-30.35,1.43-38.3-10.04c-0.38-0.55-1.08-1.02-1.17-1.6c-1.26-7.76-7.17-11.5-13.02-15.35
			c-1.38-0.91-2.49-2.28-3.92-3.07c-7.74-4.26-8.96-11.17-7.41-18.88c0.95-4.74,0.6-9.66,3.56-14.97
			c-7.82,1.74-8.91,8.31-12.73,12.09c-4,3.96-7.58,8.35-11.6,12.83c4.37,9.32,3.93,19.28,3.61,29.18
			c-0.14,4.47-1.97,8.38-5.54,11.31c-1.54,1.26-3.07,2.54-4.54,3.89c-5.52,5.06-6.72,11.19-3.98,18c1.78,4.43,2.41,8.96,2.24,13.66
			c-0.07,1.86-1.22,3-3.06,4.19c-9.33-5.26-17.41-11.52-18.94-23.51c-0.85-6.63-4.32-12.42-7.17-18.37
			c2.42-6.58-0.93-12.31-2.76-18.24c-0.98-3.17-1.82-6.43-4.29-8.9c-3.94-3.93-4.01-8.89-3.85-13.97c0.11-3.64,1.52-5.97,4.86-7.92
			c8.75-5.11,11.43-14.26,13.59-23.27c1.07-4.45-3.29-7.24-7.73-5.53c-1.54,0.59-2.9,1.87-4.47,2.17
			c-7.07,1.36-10.38,5.51-12.17,12.55c-2.25,8.82-8.06,16.14-14.33,22.54c-4.71,4.81-11.77,5.93-18.3,6.89
			c-4.44,0.66-8.41-1.47-11.78-4.49c-0.96-0.87-2.11-1.53-3.06-2.21c-8.87,4.48-11.08,8-21.21,33.59
			c-4.56-0.96-7.06-6.34-12.67-4.84c-1.1-10.27-1.41-19.54,0-28.71c0.59-3.82,2.17-8.02,4.62-10.92
			c6.43-7.62,10.54-16.71,16.53-24.53c4.16-5.43,6.91-11.01,6.93-18.1c0.01-5.88,2.49-11.73-0.03-17.07
			c1.53-3.09,3.64-4.69,5.62-6.48c2.03-1.82-0.89-5.41,3.64-7.75c4.94-1.37,11.7,0.47,18.2-1.47c6.02-1.8,12.31-2.72,18.73-2.22
			c12.22,0.96,19.98-5.64,25.68-15.54c0.66-1.15,1.18-2.39,1.83-3.55c3.36-5.98,5.65-12.53,15.2-11.33
			c3.94,0.5,8.27-3.86,12.68-4.93c11.39-2.75,17.34-10.12,19.72-21.09c0.49-2.26,1.1-4.53,1.94-6.68
			c5.47-13.93,10.99-27.84,16.59-41.72c0.99-2.45,2.33-4.78,3.66-7.08c1.43-2.46,3.73-4.36,6.49-3.77c3.4,0.72,5.51-0.99,8.2-2.31
			c9.85-4.82,19.77-9.54,29.92-13.66c5.53-2.25,9.7-5.78,13.23-10.24c11.62-14.66,20.91-30.82,29.8-47.21
			c1.41-2.6,2.36-5.51,3.17-8.38c1.64-5.78,3.63-11.37,6.37-16.75c1.49-2.94,2.47-6.17,3.41-9.35c3-10.03,7.96-18.83,15.46-26.21
			c23.63-23.25,49.67-43.21,79.03-58.76c8.97-4.75,18.21-8.1,28.55-7.49c0.93,0.06,1.89-0.42,2.65-0.6c1.7-1.72,1.67-3.8,1.91-5.73
			c1.85-14.81,3.8-29.62,5.37-44.46c0.47-4.38,1.26-8.67,3.03-12.55c7.6-16.7,16.13-32.78,29.64-45.77
			c9.36-8.99,18.06-18.66,27.15-27.93c7.69-7.84,15.6-15.43,25.63-20.73c-0.48-3.51-1.15-6.72-1.31-9.96
			c-0.23-4.65-0.11-9.14,2.92-13.34c1.86-2.57,2.66-6.06,3.4-9.26c4.32-18.58,11.45-36.15,19.58-53.29
			c11.13-23.46,23.14-46.47,36.23-68.92c7.33-12.57,17.38-22.69,27.76-32.56c3.66-3.48,8.01-6.06,13.48-5.37
			c2.51,0.32,4.51-0.7,6.4-2.18c13.04-10.21,28.31-15.9,43.56-21.77c20.03-7.72,40.95-11.13,62.04-14.2
			c16.25-2.36,32.51-1.72,49.46-1.75c2.18-7.72,0.57-15.62,1.16-23.61c-6.61-4.03-13.69-7.28-18.55-13.41
			c-3.13-3.94-6.04-8.03-13.85-7.15c6.27-3.95,8.82-4.93,13.18-5.12c4.33-0.19,8.66-0.19,12.99-0.17
			c6.47,0.02,12.48-1.74,18.26-4.49c3.96-1.89,6.36-4.78,5.88-9.43c-0.34-3.28,0.91-6.63-0.55-10.29
			c-5.79-1.89-11.18-5.03-15.43-9.62c-2.46,1.26-2.71,4.24-5.91,5.05c-3.04-5.67,1.28-11.26,0.63-16.85
			c-0.7-6.05,0.59-11.9,3.07-17.78c-0.99-1.26-1.76-3.29-3.05-3.7c-7.25-2.29-13.55-6.29-20.31-11.3c-1.81-6.33-4.07-13.61-5.91-21
			c-0.86-3.45-1.94-6.16-5.64-7.47c-4.03-1.43-6.4-4.56-7.46-8.74c-0.65-2.58-1.69-4.97-3.63-6.99c-1.11-1.16-2.21-2.77-2.42-4.3
			c-1.48-10.75-9.24-17.26-16.28-24.37c-0.73-6.69-1.12-13.22,2.45-19.43c1.3-2.26,1.93-4.96,2.57-7.54
			c0.73-2.93,0.74-5.76-0.71-8.71c-2.48-5.05-4.49-10.32-6.55-15.15c3.18-13.28,12.87-20.22,23.37-26.32
			c4.02-2.34,8.29-4.26,12.5-6.27c14.53-6.92,29.62-9.33,45.5-5.71c1.92,0.44,4.04,0.65,5.95,0.31c5.47-0.97,10.62,0.31,15.69,1.89
			c3.31,1.03,6.18,0.69,9.56-0.09c17.96-4.16,34.55-12.05,51.22-19.4c9.62-4.24,18.59-4.05,27.98-1.85
			c4.21,0.98,7.36,0.69,11.2-1.51c5.7-3.27,12.05-5.42,18.95-8.4c-11.68-17.78-27.58-29.72-46.16-39.16
			c4.33-0.47,7.7-0.82,10.94-3.47c2.37-1.93,6.22-1.78,9.6-1.95c10.77-0.56,21.23,0.8,30.96,4.36c3.23-1.61,3.75-4.31,4.64-6.78
			c9.09-25.12,21.72-48.59,33.66-72.38c1.93-3.84,4.31-7.57,7.11-10.82c3.78-4.39,7.18-9.95,14.48-8.66
			c16.89-7.04,34.1-3.83,51-0.71c27.84,5.13,55.74,8.97,84.09,9.09c35.89,0.16,70.76-5.81,104.84-16.96
			c12.4-4.05,24.09-9.54,35.8-15.17c3.59-1.73,5.26-5.71,9.76-6.39c3.58-0.55,6.87-3.03,11.32-5.15c-2.67,5-7.72,6.2-9.52,9.96
			c-1.84,3.86-2.91,8.1-5.33,11.75c-1.63,2.46-3.09,5.03-4.88,7.96c2.21,1.89,4.6,1.52,6.65,1.25c14.16-1.89,28.39-2.77,42.64-3.58
			c21.61-1.23,42.88-4.8,63.95-9.71c14.89-3.47,29.84-6.69,44.72-10.16c9.43-2.2,10.87-3.11,16.99-9.28
			c4.24,3.43,5.06,8.49,5.89,13.27c4.08,23.34,6.16,46.84,3.93,70.51c-2.58,27.44-4.98,54.91-12.54,81.61
			c-6.66,23.55-16.29,45.72-29.53,66.31c-0.7,1.09-1.36,2.22-2.05,3.37c2.5,2.2,3.72-0.25,5.18-1.04
			c12.95-7.05,24.47-16.13,35.05-26.27c11.65-11.15,19.98-24.84,27.67-38.91c2.38-4.36,4.76-8.72,7.04-12.88
			c5.51,0.34,8.14,3.22,9.02,7.96c0.55,2.93,1.34,5.86,1.5,8.82c0.6,11.84,2.5,23.66,1.06,35.22c-1.57,1.18-3.73-0.68-4.23,1.85
			c-0.19,0.95-0.93,1.8-1.13,2.75c-4.1,19.56-13.73,36.63-23.92,53.47c-8.72,14.41-18.97,27.35-33.58,36.29
			c-0.82,0.5-1.45,1.31-2.12,1.93c0.79,2.45,2.94,2.55,4.79,3.22c11.26,4.06,22.52,8.13,33.74,12.3
			c9.63,3.58,18.12,9.64,27.83,11.79c1.29,4.28-2.05,7.18,0.21,10.25c-1.33,0.28-2.25,0.72-2.46,0.49
			c-4.11-4.51-9.08-5.88-15.19-5.68c-9.98,0.32-19.89,0.45-29.78,2.42c-20.69,4.12-37.51,14.44-51.74,29.82
			c-8.52,9.21-14.6,19.66-19.69,30.99c-5.32,11.86-2.53,34.37,11.71,45.18c2.95,2.24,6.76,1.84,9.85,3.63
			c1.26,0.73,2.88,0.85,6.37,1.81c-6.44,1.89-9.58,4.95-12.51,8.6c-2.79,3.48-7.59,3.76-12.25,5.21
			c3.61,6.93,7.14,13.62,10.59,20.35c4.57,8.91,8.09,18.1,9.92,28.08c2.29,12.44-0.32,23.91-6.13,34.53
			c-3.05,5.56-2.97,9.87,0.39,14.69c4.65,6.65,10.12,12.12,17.89,15.38c7.11,2.98,12.89,2.17,18.06-3.46
			c0.86-0.94,1.75-1.85,2.84-3.01c3.58,2.22-0.03,5.04,1.08,7.13c2.34,2.45,4.93-1.25,7.31,0.25c-0.3,3.97-17.5,9.43-34.9,11.12
			c-1.51,1.65-0.1,2.96,0.59,4.32c6.84,13.41,16.49,24.99,24.53,37.62c1.74,2.73,4.28,4.08,7.55,4.06c2.33-0.02,4.67,0.15,7,0.02
			c9.03-0.52,17.98,0.52,26.79,2.05c25.25,4.4,50.22,10.13,74.07,19.77c13.88,5.61,27.43,12,39.83,20.57
			c5.77,3.99,12.01,7.11,18.65,9.44c2.19,0.77,4.38,1.67,6.37,2.85c8.13,4.85,16.3,4.89,24.62,0.6c0.58-0.3,1.18-0.59,1.8-0.8
			c0.3-0.1,0.66-0.02,1.24-0.02c0.45,14.93-0.57,29.72-4.73,44.03c-1.88,6.45-0.96,11.68,2.65,16.92
			c9.36,13.57,14.89,28.81,19.98,44.35c2.82,8.61,2.72,17,1.29,25.58c-2.09,12.48-5.29,24.73-9.6,36.6
			c-1.94,5.33-1.19,9.58,1.36,14.18c6.15,11.1,13.5,21.39,20.82,31.71c7.7,10.86,15.63,21.56,23.39,32.38
			c1.94,2.71,3.79,5.07,7.09,6.62c5.17,2.42,8.89,6.83,11.94,11.72c5.51,8.83,9.27,18.41,12.14,28.35
			c4.81,16.64,7.75,33.65,9.77,50.84c0.89,7.58,2.13,15.12,3.21,22.67c1.42,9.95,1.21,19.95,0.25,29.88
			c-1.21,12.55-2.77,25.07-4.57,37.54c-1.44,9.96-5.78,19.04-9.98,28.52c4.7,2.77,9.86,4.5,14.81,4.35
			c11.53-0.33,12.45-0.78,18.44,2.36c4.12,2.15,8.06,4.62,12.6,7.25c0.71-6.41-4.21-10.89-5.46-17.44
			c14.26,2.18,19.69,13.45,27.51,22.06c1.09-3.45-1.64-6.29,0.03-9.45c5.75-3.72,10.65-1.56,14.5,3.24
			c3.74,4.66,7.65,9.46,10.05,14.85c4.57,10.26,9.03,20.5,11.38,31.79c2.35,11.27,2.62,22.38,2.77,33.66
			c0.16,12.32,0.67,24.64,0.59,36.95c-0.09,15.65-2.75,31.08-4.92,46.54c-0.5,3.58-1.89,7.07-3.12,10.5
			c-4.21,11.73-3.64,23.42,0.05,35.12c0.09,0.29,0.41,0.52,0.93,1.15c8.33-3.58,17.68-4.66,25.81-9.43
			c3.85-2.26,8.37-2.45,12.66-1.85c6.7,0.93,11.48-1.97,15.88-6.47c6.99-7.15,14.21-14.07,21.15-21.26c3.1-3.21,6.74-5.37,10.74-7.1
			c4.8-2.07,9.84-3.24,14.43-6.32c3.67-2.47,9.01-1.15,13.63-0.28c17.05,3.19,34.02,6.61,48.24,16.96c2.49-0.61,4.38-1.18,6.32-1.54
			c8.52-1.57,16.37-0.82,23.47,5.11c9.49,7.93,21.03,12.74,31.21,19.7c6.69,4.57,15.07,4.77,22.52,7.54
			c4.61,1.72,9.69,2.23,14.59,3.13c12.85,2.38,24.87,7.23,36.83,12.24c10.6,4.44,19.19,20.22,13.03,33.68
			c-2.55,1.28-2.02-3.76-5.46-1.49c-3.62,10.61-8.08,21.98-8.68,34.43c-0.19,3.96-0.76,7.93-1.5,11.84
			c-2.95,15.7-1.66,31.85-5.01,47.49c-0.64,2.99,1.03,5.06,1.92,7.5c2.47,6.82,7.07,12.91,7.26,20.41
			c-6.29,8.85-13.51,16.53-22.6,22.3c-2.72,1.73-4.17,3.99-3.83,7.48c0.93,9.56-3.93,16.85-10.77,22.38
			c-4.61,3.73-7.66,8.17-10.47,13.05c-0.83,1.44-1.45,3.01-2.35,4.4c-5.86,9.07-9.42,10.25-20.04,7.1
			c-6.22-1.85-12.45-1.61-18.59,0.59c-9.08,3.26-18.13,6.58-27.26,9.68c-5.65,1.92-11.42,3.47-17.55,5.32
			c-1.87,10.93-10.35,14.86-19.63,17.22c-11.61,2.95-23.55,4.48-35.53,3.98c-6.87-0.28-11.97,1.52-16.62,6.75
			c-9.21,10.34-22.02,15.21-34.73,18.64c-9.08,2.45-19.19,1.51-28.77-0.03c-2.99-0.48-5.93-1.34-8.82-0.21
			c-5.46,2.12-10.58,0.6-15.47-1.52c-4.25-1.84-8.31-4.22-12.22-6.72c-8.97-5.74-17.63-11.98-27.38-16.42
			c-1.2-0.55-2.54-1.13-3.4-2.07c-9.41-10.32-22.23-15.41-33.9-22.24c-14.35-8.4-28.73-16.78-43.15-25.06
			c-6.34-3.64-12.82-7.04-19.26-10.56c0.36-4.44-1.94-7.45-4.66-10.32c-4.08-4.3-8.83-8.11-9.7-14.62c-0.29-2.15-2.49-3.08-4.1-4.14
			c-10-6.56-20.21-12.11-32.05-15.55c-32.22-9.35-64.74-17.92-95.78-31.04c-5.4-2.28-10.18-6.26-17.25-7c0,4.4,0.04,8.33-0.01,12.25
			c-0.14,11.99-0.41,23.97-0.46,35.96c-0.05,11.46-3.04,22.39-6.04,33.26c-7.27,26.38-16.45,51.96-31.61,75.1
			c-7.97,12.17-18.17,22.01-29.24,31.14c-0.94,0.78-2.41,0.92-3.82,1.43c-2.22-4.98-1.08-9.01,1.68-13.1
			c10.75-15.92,17-33.8,22.26-52.08c0.36-1.24,0.42-2.57,0.56-3.87c0.03-0.26-0.24-0.55-0.42-0.93c-3.82,2.36-5.99,6.2-8.48,9.64
			c-9.2,12.76-20.22,23.79-31.88,34.24c-1.49,1.33-2.93,3.18-4.7,3.65c-13.05,3.47-18.13,17.07-30.08,22.1
			c2.92,3.4,6.27,3.98,9.24,5.13c16.13,6.24,32.32,12.32,48.46,18.55c25.29,9.76,49.19,21.91,69.84,39.9
			c8.84,7.7,16.88,16.05,23.68,25.56c1.56,2.18,2.61,4.47,5.61,5.19c4.06,0.97,5.74,4.27,6.59,8.01
			c2.37,10.36,4.42,20.65,4.29,31.49c-0.42,33.99-0.18,67.99-0.14,101.98c0.02,16.63,1.93,33.13,3.64,49.65
			c1.03,9.89,0.49,19.93,3.15,30.04c1.06,0.83,2.25,2.07,3.68,2.82c10.35,5.41,16.72,15.08,24.58,23.1
			c5.07,5.16,5.65,12.64,7.49,19.27c2.39,8.61,4.65,17.3,4.22,26.49c-0.3,6.48,2.39,11.74,6.96,16.81
			c18.73,20.79,37.9,41.14,58.02,60.57c14.84,14.33,30.09,28.22,45.13,42.34c7.64,7.17,12.71,16.19,17.77,25.19
			c3.26,5.8,6.51,11.62,9.36,17.63c6.8,14.32,18.43,24.15,30.48,33.7c2.75,2.18,5.35,2.24,8.33,0.92c4.62-2.04,9.4-3.21,14.54-2.95
			c9.48,0.48,17.84,8.82,17.07,18.3c-0.43,5.3,0.95,9.61,2.96,14.27c2.77,6.39,5.06,13.04,6.93,19.76
			c2.47,8.89,6.9,16.71,13.01,23.3c6.01,6.48,7.16,13.98,7.24,22.09c0.03,3.1-0.78,5.93-3.21,8.09c-2.49,2.22-4.96,4.45-7.4,6.63
			c0,9.88,0,19.19,0,28.51c0,2.33,0.18,4.7-0.12,6.99c-0.85,6.5-6.08,8.72-11.68,5.06c-3.17-2.07-4.85-5.4-6.97-8.36
			c-4.22-5.88-8.59-11.66-13.18-17.87c-14.36,13.1-29.26,18.22-46.2,5.13c-4.56,5.27-7.38,11.73-13.8,14.44
			c-6.12,2.58-12.33,5-19.12,4.51c-3.5,3.53-6.02,7.23-7.04,12.04c-0.75,3.55-2.1,7-3.39,10.41c-1.21,3.19-4.61,4.03-7.31,1.97
			c-2.52-1.93-3.79-4.66-4.35-7.64c-1.29-6.84-3.62-13.54-2.87-20.68c0.13-1.28-0.28-2.61-0.46-4.11
			c-7.16-1.98-13.67-5.18-19.78-9.86c-0.93,2.11-1.17,4.12-2.29,4.97c-5.96,4.5-5.53,10.78-5.46,17.13
			c0.06,5.32,0.02,10.67-0.51,15.95c-0.22,2.16-0.45,4.68-2.58,6.86c-2.75,0.57-5.91,1.22-9.54,1.97
			c-4.42-6.76-10.03-12.38-15.84-17.79c-5.89-5.49-10.34-12.09-14.65-19.17c-5.92,0.65-11.52,0.9-16.98,1.93
			c-24.13,4.56-47.54,1.86-70.37-6.72c-2.97-1.12-5.61-2.09-8.34,0.27c-1.61,1.39-3.64,1.4-5.63,1.65
			c-7.23,0.93-14.5,1.74-21.65,3.11c-2.76,0.53-5.22,0.66-7.75-0.33c-7.03-2.76-14.4-2.2-21.69-2.12
			C1586.32,2421.29,1579.09,2420.88,1571.39,2417.13z M1106.07,1102.27c2.07,0.86,3.82,1.74,5.67,2.33
			c19.34,6.15,38.33,13.26,57.15,20.85c12.64,5.1,25.51,9.62,38.6,13.48c21.09,6.21,42.56,10.26,64.41,12.84
			c19.67,2.32,39.15,2.41,58.52-1.62c11.12-2.31,21.92-5.69,30.09-14.43c1.04-1.12,2.79-1.57,5.02-2.77
			c-2.58,7.64-0.35,15.28-4.34,21.9c-3.93,6.51-9.67,11.54-15.58,17.79c28.22,5.32,53.91,14.34,79.12,24.77
			c25.58,10.58,49.96,23.37,72.1,40.84c1-2.65,0.6-4.62-0.14-6.44c-2.24-5.51-5.28-10.79-7.41-16.15c-2.12-5.36-5.33-7.67-9.72-9.94
			c-15.36-7.96-30.64-16.07-45.34-25.2c-2.24-1.39-4.76-2.83-6.2-4.91c-7.46-10.71-17.31-19.13-26.57-28.08
			c-14.46-13.97-26.57-29.7-36.36-47.21c-9.15-16.37-15.32-33.9-19.75-52.09c-0.45-1.84-0.57-3.94-3.32-4.73
			c-7.75,9.47-16.99,17.47-27.94,23.38c-3.81,2.05-7.67,4-11.48,6.06c-23.24,12.53-47.36,22.94-73.54,27.26
			c-17.94,2.96-35.98,6.7-54.39,3.22c-2.93-0.55-6.07-1.22-8.92-0.71c-6.76,1.22-13.25,0.05-19.69-1.45
			c-11.51-2.68-23.17-1.69-34.79-1.85C1109.59,1099.35,1107.94,1099.49,1106.07,1102.27z M837.39,1634.98
			c13.16,0.06,24.98,1.75,36.69,4.03c19.2,3.75,36.82,11.35,52.33,23.37c2.58,2,5.1,2.48,8.11,3c10.95,1.88,21.83,0.99,32.7-0.34
			c5.67-0.69,11.5-1,18.26-4.01c-39.74-26.55-75.57-55.52-106.05-89.79c-8.92,0.89-14.1,5.71-18.08,12.19
			c-5.05,8.22-9.29,16.92-15.18,24.63c-0.94,1.23-2.32,2.84-1.43,4.48c1.63,2.96-0.34,5.13-1.25,7.49
			C841.73,1624.65,839.77,1629.19,837.39,1634.98z M345.42,1304.75c0-1.96-0.01-3.6,0-5.25c0.07-7.29-0.8-14.73,3.37-21.38
			c0.64-11.64,4.34-23.95-7.05-33.01c-0.45-0.36-1.08-0.5-2.07-0.94c-2.75,3.53-5.42,7.29-8.45,10.74
			c-2.93,3.32-6.24,6.31-9.85,9.91c6.26,2.87,10.74,6.85,15.61,10.28c2.74,1.93,4.02,4.71,5.29,7.99c2.6,6.71,0.64,12.29-2.79,18.35
			C341.7,1302.26,341.37,1305.27,345.42,1304.75z M957,1698.17c-3.87-2.9-7.82-3.63-12.55-4.4c0.07,2.97,0.26,5.04,2.18,6.96
			C950.12,1701.18,953.26,1699.57,957,1698.17z"/>
	</g>
	<g>
		<path class="st0" d="M613.5,1082.75c0.09-8.13,6.01-13.42,11.56-20.88c-10.34,2.61-13.06,10-17.59,17.23
			c-2.94-8.05-3.75-15.44-4.04-22.89c-0.81-20.52,2.57-40.21,9.99-59.51c10.07-26.19,24.75-49.22,43.76-69.68
			c3.83-4.12,7.49-8.39,11.05-12.39c-0.63-2.57-3.19-0.91-4.09-2.68c-1.15-3.7,3.67-3.12,3.99-4.45c1.43-4.23-1.65-6.66-0.5-8.96
			c-1.21-1.68-2.31-1.66-3.18-1.28c-1.18,0.51-2.74,1.12-3.22,2.13c-4.06,8.48-11.94,13.21-18.52,19.2
			c-3.38,3.08-6.12,6.92-10.41,9.42c0.36-9.03,3.87-17.93,9.47-23.26c1.32-1.26,2.27-2.4,2.21-4.11c-0.14-3.88,1.64-7.08,3.4-10.29
			c12.89-23.55,28.55-44.87,49.45-62.08c3.1-2.55,7.49-4.86,5.3-10.89c-7.46-3.1-16.14-4.27-23.79-8.32
			c-7.35-3.89-15.08-7.23-19.55-14.87c-0.3-0.52-0.29-1.23-0.43-1.93c1.43-2.09,3.5-0.97,5.28-0.87c9.89,0.52,19.19-1.69,27.98-6.08
			c7.44-3.71,15.21-6.86,21.83-12.03c2.8-2.19,2.73-2.27,0.55-7.8c-6.54,1.89-13.11,4.59-20.2,2.82c-0.46-2.83,1.99-3.35,3.5-4.32
			c13.06-8.4,23.33-19.55,32.65-31.84c10.66-14.05,21.96-27.62,34.95-39.64c3.5-3.24,6.4-7.57,12.11-6.76
			c-0.81-4.85-4.91-3.78-7.18-5.6c2.44-1.55,6.13-0.58,7.44-3.97c-4.26-5.67-4.26-5.67-27.87-1.87c5.48-8.07,15.74-5.05,23.41-9.76
			c-10.52-6.18-19.06-1.38-27.99,3.12c0.18-8.5,5.37-13.7,10.17-18.92c3.82-4.14,8.28-7.68,12.41-11.55
			c11.88-11.13,26.76-15.83,42.08-19.41c5.27-1.23,10.6-0.81,15.13,3.92c-1.11-22.82-1.03-44.52,13.65-63.56
			c1.44,2.4,2.52,4.98,4.29,6.93c2.22,2.44,5,4.44,8.2,5.54c2.85,0.98,5.75,1.31,8.33-0.29c1.02-3.94-4.02-3.46-4.05-6.42
			c0.49-0.35,0.94-0.93,1.43-0.96c20.42-1.14,32.05-10.45,36.96-30.03c2.18-8.69,3.96-17.47,5.75-26.25
			c0.39-1.89,0.06-3.92,0.06-5.64c-3.09-1.89-5.71,2.88-8.52-0.45c-1.67-1.98-5.13-1.56-7.2-4.93c-0.4-8.95,0.5-18.91-1.8-29.24
			c-5.07-4.05-12.27-6.35-17.94-12.64c4.19-1.5,7.77-1.09,11.15-0.88c3.71,0.23,6.98-2.36,11.11-1.19c0.49,2.96-1.42,5.5-1.81,8.53
			c0.59,0.53,1.19,1.38,2,1.75c3.1,1.41,6.5,1.11,10.63,1.47c-0.56,13.36,4.98,23.91,15.47,31.53c3.47-0.62,0.94-5.89,5.09-5.04
			c0.93,0.19,1.75,0.94,1.75,0.94c0.58,3.64-1.46,4.65-2.78,6.01c-5.91,6.07-10,13.22-13.03,21.06c-2.66,6.89-2.49,13.38,0.84,20.21
			c2.06,4.22,5.03,6.45,9.65,8.78c-0.23-4.43-3.54-7.27-2.76-11.32c2.87-4.59,8.88-6.53,11.9-11.97c-5.5-1.6-7.91,4.28-12.37,4.83
			c-2.07-2.07-0.71-4.28-0.09-6.35c2.67-8.85,8-16.29,14.46-22.46c10.34-9.86,21.34-19.12,34.55-25.16
			c3.26-1.49,6.68-2.65,11.05-4.37c-0.12,9.48,4.11,15.89,10.13,21.36c5.92,5.39,5.9,5.41,13.28,7.02
			c-1.67-4.21-5.11-7.16-4.74-11.81c0.44-5.55,2-10.54,5.23-14.85c8.01-10.69,16.67-20.77,28.72-27.28
			c2.18-1.18,5.06-1.82,5.67-4.96c-20.28,0.94-38.88,17.71-48.74,44.13c-3.34-3.59-2.24-7.69-1.56-11.42
			c1.39-7.59,4.49-14.66,8.5-21.21c5.6-9.13,12.34-17.31,21.52-23.19c22.87-14.64,47.09-26.07,73.94-31.33
			c13.87-2.72,27.82-1.88,41.78-1.35c7.29,0.28,14.38,1.14,21.01,4.45c-2.11,5.16-7.26,8.14-8.43,15.02
			c9.62-4.95,17.11-11.17,25.95-16.89c1.49,12.13-1.89,24.22,6.59,34.03c-1.33-13,0.75-25.68,2.87-38.28
			c2.11-12.55,7.67-23.97,13-35.48c5.49-11.86,15.52-20.45,22.72-32.29c-5.95-0.1-7.91,4.7-12.33,6.5c0.32-3.89,2.68-6.38,4.65-8.77
			c8.03-9.76,17.23-18.29,26.55-26.88c17.64-16.27,39.38-20.66,61.42-24.88c5.77-1.1,11.92-0.87,17.88,0.33
			c3.88,0.78,7.84,1.17,11.38,1.67c2.21-1.21,0.36-2.53,1.04-4.45c4.66-2.67,10.88-2.64,16.21-5.11c5.43-2.52,10.87-5.01,16.44-7.57
			c0.61-1.72-1.29-4.08,1.21-5.76c3.59-2.41,7.01-5.07,10.48-7.66c3.28-2.44,3.55-5.39,1.03-9.02c9.5-8.67,19.48-16.86,26.64-27.5
			c3.62,1.56,4.56,4.25,5.68,6.48c2.69,5.33,7.11,6.29,12.46,6.34c5.93,0.05,11.28-0.99,15.3-5.68c0.82-0.96,1.42-2.35,1.55-3.6
			c0.73-7.26,2.44-14.46,1.65-21.81c-0.54-4.96-1.6-9.79-4.69-13.98c-2.75-3.75-5.25-7.68-8.31-12.19
			c3.11-8.93,5.44-18.59,5.5-28.59c0.05-8.64-0.13-17.28-0.5-25.91c-0.32-7.5-4.29-9.84-11.44-6.86
			c-19.57,8.17-39.14,16.37-58.65,24.68c-13.01,5.54-26.74,7.71-40.63,9.37c-8.56,1.02-17,2.49-25.73,2.54
			c-6.17,0.03-12.44,2.08-18.45,3.92c-8.52,2.6-17.58,3.48-25.35,8.66c-4.76,3.18-10.59,1.37-15.61,0.23
			c-13.8-3.15-27.49-3.52-41.5-1.66c-13.23,1.76-26.62,0.72-39.94,0.81c-11.64,0.08-23.27,0.23-34.81-1.92
			c-8.83-1.64-17.62-3.42-25.71-7.42c-4.53-2.24-9.21-3.89-14.16-4.52c-8.69-1.11-14.09,2.92-15.55,11.61
			c-0.55,3.25-0.29,6.64-0.36,9.97c-0.1,4.6,0.51,9.2-2.74,13.34c-1.99,2.54-1.04,5.72,0.32,8.55c1.58,3.28,3.13,6.57,4.64,9.75
			c-1.45,3-3.98,3.65-7.27,4.53c-3.83-11.11-7.27-22.48-15.98-31.22c-8.13-8.14-15.86-16.66-27.96-22.71
			c11.7-1.17,21.03,0.69,30.59,2.75c1.85,4.44-2.2,11.62,5.94,12.95c6.28-19.3,13.95-37.79,22.61-55.86
			c7.48-15.6,15.93-30.74,23.07-46.48c5.39-11.9,14.53-14.33,26.06-13.28c18.21,1.67,36.21,4.57,54.13,8.17
			c17.28,3.47,34.85,5.08,52.43,5.67c12.29,0.41,24.63,0.38,36.96-0.41c25.69-1.65,50.69-6.57,75.15-14.45
			c11.43-3.68,22.66-7.78,32.85-14.3c1.1-0.7,2.44-1.05,3.69-1.48c0.2-0.07,0.54,0.29,1.27,0.7c-4.09,6.03-8.31,11.6-15.39,14.57
			c-3.99,1.68-7.08,4.65-7.67,9.7c5.23,0.45,9.36-1.5,13.4-3.71c3.9-2.13,8.07-2.9,12.45-3.16c19.88-1.19,39.77-2.4,59.64-3.73
			c22.28-1.49,44.07-6.02,65.77-11c14.25-3.27,28.69-5.92,41.89-12.66c0.47-0.24,1.24,0.11,1.88,0.19
			c1.12,13.96-7.73,39.72-20.98,61.12c10.8-4.18,17.92-16.98,28.01-50.4c3.67,17.42,4.54,42.78,2.33,58.21
			c-1.22,8.53-1.74,17.17-2.46,25.77c-2.54,30.38-9.49,59.72-21.24,87.85c-5.51,13.19-11.53,26.18-17.45,39.2
			c-3.2,7.02-7.33,13.42-13.46,18.32c-1.35,1.08-2.35,2.35-1.81,4.33c3.83,1.94,7.2,0.52,9.95-2.05
			c7.14-6.66,15.63-11.26,23.88-16.27c10.55-6.4,20.52-13.65,29.64-21.96c12.98-11.82,23.02-25.77,29.71-42.07
			c0.87-2.11,1.08-4.54,3.03-6.29c2.75,0.77,1.6,3.13,1.69,4.77c1.54,27.55-6.79,52.51-20.23,76.07
			c-3.46,6.07-7.22,11.96-10.86,17.92c-7.8,12.78-18.95,22.16-30.93,30.78c-3.98,2.86-8.06,4.28-12.99,3.94
			c-3.63-0.25-7.35-0.06-10.95,0.44c-2.63,0.37-4.98,1.64-6.04,4.56c-1.39,3.86,0.43,7.05,4.47,6.76c3.95-0.28,7.99-0.82,11.75-2.01
			c4.06-1.28,7.72-0.85,11.7,0.17c13.57,3.48,26.45,8.89,39.57,13.63c0.52,0.19,0.83,0.93,1.54,1.76
			c-12.19,1.8-24.15,3.5-35.32,8.64c-28.38,13.05-48.8,33.95-58.05,63.68c-5.02,16.12-4.33,33.14,10.65,45.71
			c2.48,2.08,4.78,4.39,7.95,7.32c-8.17,3.08-14.67,2.37-20.87-1.56c-4.47-2.84-8.59-6.13-13.88-7.71
			c-2.32-0.69-4.03-3.32-6.09-4.98c-1.75-1.41-2.13-4.32-5.32-4.55c-0.71,9.08,4.47,14.89,11.01,19.7
			c3.18,2.34,6.83,4.23,10.53,5.64c3.95,1.51,6.77,3.98,9.2,7.3c9.34,12.78,15.73,26.97,20.15,42.07c1.8,6.15,1.13,12.58,0.98,18.9
			c-0.03,1.26-0.34,2.96-1.19,3.67c-10.19,8.61-8.03,19.45-5.75,30.36c0.13,0.6-0.05,1.27-0.1,2.11c-3.88-1.7-6.46-4.88-8.94-7.87
			c-16.37-19.69-36.85-34.53-57.49-49.19c-8.52-6.05-18.18-9.27-28.72-10.74c-1.17-8.93,2.2-17.66-1.07-26.23
			c-3.64,0.42-2.71,3.46-2.91,5.32c-2.48,22.93-10.32,43.99-22.42,63.44c-9.75,15.69-21.78,29.47-37.67,39.28
			c-10.62,6.55-22.27,9.73-36.93,8.52c8.79-7.13,15.78-13.52,20.93-21.6c5.23-8.21,8.2-17.19,10.86-27.71
			c-5.29,2.41-4.01,7.93-8.19,9.84c-5.68-4.84,4.4-7.16,0.96-12.22c-0.86-0.59-1.7,1.51-2.75,2.45
			c-13.89,12.47-28.27,24.25-44.69,33.36c-15.35,8.51-31.85,13.29-49.14,15.49c-3.6,0.46-7.38,0.38-10.96-0.19
			c-20.76-3.32-40.97-8.59-60.23-17.23c-10.01-4.49-20.14-8.73-30.17-13.18c-11.96-5.31-24.61-8.27-37.39-10.37
			c-12.23-2.01-24.47-0.87-36.66,2.85c2.91-6.01,3-5.83,7.76-7.71c4.52-1.78,9.53-2.81,12.68-6.47c-0.39-3.71-2.56-1.59-4.07-2.34
			c-1.85-2.27,2.65-3.47,1.51-5.82c-0.59-0.19-1.26-0.65-1.79-0.53c-3.93,0.94-7.72,2.58-10.69,5.15c-6,5.17-13.29,7.4-20.43,10.02
			c-12.49,4.58-25.08,8.87-37.49,13.66c-16.24,6.27-31.43,14.41-44.39,26.31c-6.14,5.64-11.15,12.18-15.5,19.11
			c-2.35-0.74-2.45-2.08-2.27-3.97c0.97-10.47,2.93-20.8,4.39-31.21c-7.06,14.11-10.15,28.92-7.38,45.36
			c-9.55-4.54-13.24-11.7-13.49-21.08c-0.31-11.68-0.08-23.27,3.79-34.52c0.6-1.74,1.81-3.65,0.75-5.7
			c-0.14-0.28-0.42-0.5-0.63-0.74c-0.32-0.08-0.82-0.34-0.95-0.22c-9.11,8.7-21.17,13.27-30.36,21.98
			c-14.48,13.74-29.51,26.8-40.8,43.63c-15.6,23.25-23.48,48.87-26.59,76.43c-2.33,20.68-1.29,41.14,2.21,61.5
			c3.2,18.59,9.92,35.82,21.59,50.89c0.32,0.41,0.14,1.2,0.23,2.36c-8.26-2.53-15.59,0.04-22.7,3.82
			c-34.84,18.48-60.61,45.06-74.1,82.68c-0.54,1.51-0.67,3.31-2.26,4.3c-3.21-5.84-3.12-18.98,0.25-33.42
			c-2.08-1.86-3.6-0.56-5,0.96c-15.09,16.37-25.12,34.93-26.3,57.76c-0.28,5.52-1.16,11.12-1.23,16.71
			c-4.73-0.23-2.97-6.07-6.82-6.57c-3.02,13.18,2.76,26.25,18.06,38.42c-8.32-2.31-14.27-4.46-18.32-10.29
			c-4.54-6.53-9.19-12.98-13.92-19.63c-1.8,2.84-0.38,5.16,0.32,7.57c0.83,2.84,1.87,5.59,2.5,8.55c1.76,8.37,1.13,16.37-1.39,24.48
			c-1.38,4.42-1.96,9.09-2.8,13.67c-0.47,2.57-0.83,5.12-2.83,7.19c-2.5-3.41-4.59-6.99-6.12-10.97c-3.5,2.22-2.75,5.26-2.96,7.71
			c-1.6,18.87-7.37,36.13-16.91,52.64c-8.82,15.27-14.02,32.24-18.81,49.28c-5.21,18.55-0.23,35.51,7.03,52.16
			c4.66,10.7,8.77,21.57,12.05,32.73c2.53,8.59,4.55,17.33,4.32,27.76c-3.37-5.11-4.62-10.19-8.11-14.16
			c-0.79,1.17-1.45,1.72-1.36,2.09c3.11,12.94,4.09,26.22,6.33,39.3c1.87,10.89,5.92,21.11,10.54,31.07
			c3.21,6.93,6.06,14.01,10.62,20.31c5.69,7.85,12.23,14.05,22.53,14.96c-3.11,5.26-9.08,1.14-13,4.83
			c15.42,6.48,27.45,18.15,43.86,24.75c-9.28,3.96-17.46-0.06-26.54,0.47c3.46,3.66,7.43,3.65,10.51,5.36
			c3.11,1.73,4.61,4.26,3.05,7.23c-2.73,5.18-5.26,10.68-11.38,14.21c-0.05-4.63,2.95-9.2-1.94-12.67c-1.15,3.38-2.3,6.91-3.57,10.4
			c-2.29,6.28-4.97,12.28-10.45,16.65c-1.97,1.57-4.29,3.26-3.81,6.55c0.11,0.75-0.76,1.7-1.28,2.49
			c-8.45,12.96-23.43,20.7-40.47,20.54c4.45-7.33,7.47-14.94,9.76-22.84c3.43-11.86,6.51-23.73,3.47-36.24
			c-0.54-2.23-1.11-4.89-0.39-6.9c3.45-9.61-0.28-19.13,0.11-28.67c0.03-0.81-0.74-1.65-1.43-3.08c-5.64,3.4-0.43,10.88-6.29,14.17
			c-1.38-8.56-0.35-17.07-2.02-25.34c-1.78-8.82-3.51-17.63-6.86-26c-3.18-7.95-6.7-15.78-10.11-23.75
			c-2.37,1.61-0.46,4.26-2.22,5.8c-8.8-19.17-4.83-29.9,2.12-43.77c-2.83-0.67-4.3,0.98-5.83,2.69c-8.85,9.97-8.91,21.74-7.07,33.93
			c0.34,2.24,2.04,4.3,0.8,6.97c-5.17-2.29-7.71-7-10.57-11.35c-3.11-4.73-7.57-9.66-7.2-15.07c0.4-5.78-4.51-9.24-3.86-14.75
			c0.66-5.57,0.28-11.15,1.62-16.8c1.13-4.77,5.65-8.45,4.9-14.78c-6.23,4.51-9.18,10.66-14.72,15.9
			c-4.13-14.35,0.67-26.44,4.82-38.95c4.52-13.62,16.47-19.99,28.27-29.66c-4.28,0.36-5.8,0.49-8.16,0.69
			c1.8-4.74,6.45-7.66,7.73-14.49c-6.49,5.43-11.51,9.53-16.43,13.76c-4.63,3.99-7.21,10.23-15.31,13.62
			c2.97-4.92,5.06-8.09,6.86-11.42c1.9-3.52,3.77-7.01,6.31-10.15c3.66-4.53,8.05-8.7,5.11-15.73c-0.86-2.05,0.83-5.12,1.17-7.74
			c0.63-4.89,1.25-9.81-0.21-14.67c-1.57,0.26-2.77,0.46-3.97,0.65L613.5,1082.75z M1320.93,407.09
			c12.49-13.35,21.86-28.08,29.3-44.01c2.3-4.91,4.47-10.17,2.43-18.41c-4.52,18.21-14.04,31.3-23.08,44.67
			c-0.55,0.82-1.51,1.63-1.55,2.49c-0.23,4.76-3.54,7.59-6.33,10.79C1320.92,403.53,1319.69,404.38,1320.93,407.09z M1178.06,420.17
			c-4.33,9.15-3.06,17.8-2.18,26.07c0.52,4.93,2.8,10.06,9.06,13.11c-0.54-7.11-3.23-12.86-3.13-19.16
			C1181.9,433.89,1182.87,427.12,1178.06,420.17z M1036.5,442.21c-7.06,4.53-11.56,10.84-12.44,19.29
			c-0.68,6.53,0.73,10.51,4.93,15.45C1027.16,462.16,1028.59,457.88,1036.5,442.21z M1234.84,489.84
			c-5.82-10.35-9.22-21.38-12.67-32.41C1222.17,469.94,1226.19,480.92,1234.84,489.84z M1316.54,409.4
			c-5.03,5.29-10.07,10.58-15.1,15.87C1307.83,421.31,1313.29,416.51,1316.54,409.4z M1056.71,448.52
			c2.73-3.08,5.99-5.99,6.12-11.38C1058.41,440.38,1057.33,444.32,1056.71,448.52z M1209.29,453.86c-0.2-3.94-1.18-5.89-3.1-7.98
			C1205.44,449.14,1206.93,451.15,1209.29,453.86z"/>
		<path class="st0" d="M1101.1,1153.75c-5.27-2.92-9.6-6.83-12.38-12.35c-4.69-9.29-12-15.82-21.61-19.82
			c-0.91-0.38-1.76-0.89-2.6-1.41c-0.22-0.13-0.28-0.52-0.52-1c2.29-4.83,6.72-6.96,11.57-8.37c6.38-1.86,12.81-3.59,19.25-5.21
			c4.35-1.09,8.28-0.01,12.45,1.82c29.53,12.97,58.82,26.55,89.45,36.8c26.9,8.99,54.53,14.78,82.83,16.74
			c16.95,1.18,33.87,0.91,50.54-3.62c8.68-2.36,16.67-5.98,24.78-11.28c-3.83,11.79-13.59,24.07-21.78,27.88
			c3.29,3.17,7.59,4,11.6,5.12c32.08,8.96,63.54,19.68,93.7,33.84c21.42,10.06,42.15,21.36,59.14,38.41
			c3.96,3.97,6.29,8.17,7.06,13.75c1,7.22,1.8,14.02-0.25,21.46c-3.06,11.11-0.42,22.49,1.89,33.56c1.76,8.48,4.33,16.75,9.04,24.18
			c2.57,4.06,2.97,8.81,4.05,13.29c2.67,11.06,6.16,21.77,11.73,31.72c7,12.52,10.75,26.51,17.95,38.94
			c4.83,8.35,9.21,16.97,14.22,25.2c7.4,12.16,18.12,21.21,29.36,29.58c6.67,4.96,13.76,9.36,21.34,12.9
			c2.41,1.12,4.69,2.51,7.01,3.82c3.48,1.95,5.13,4.72,5.06,8.93c-0.21,12.33,0.26,24.67-0.15,36.98
			c-1.27,38.74-13.92,74.2-31.88,108.04c-1.56,2.93-3.47,5.68-5.25,8.49c-0.53,0.84-1.17,1.61-2.87,1.82
			c2.25-7.16,4.48-14.33,6.76-21.48c3.44-10.77,7.01-21.53,7.31-32.98c0.09-3.52,1.78-6.37,3.33-9.29
			c3.31-6.21,5.65-12.77,7.28-19.59c1.25-5.23,1.47-10.37-1.61-15.18c-1.65,0.79-2.69,1.64-2.88,3.08
			c-2.68,20.23-14.06,36.5-24.95,52.71c-20.75,30.86-48.2,54.84-80.27,74.71c-11.68-2.61-23.72-8.14-36.49-2.24
			c-8.45-4.54-15.25-10.82-20.87-18.3c-8.63-11.5-15.83-23.77-20.15-37.66c-2.07-6.65-5.1-12.99-7.69-19.48
			c-0.37-0.92-0.46-2.28-1.13-2.71c-6.61-4.2-5.03-10.83-5.21-16.94c-0.88-29.91-2.32-59.88-9.94-88.9
			c-3.52-13.42-5.27-27.41-11.12-40.22c-2.02-4.41-2.98-9.7-9.66-9.51c-0.83,0.02-1.94-1.65-2.54-2.75
			c-12.82-23.14-29.54-43.35-46.71-63.31c-13.5-15.7-27.93-30.32-44.25-43.06c-14.2-11.09-29.6-20.36-44.89-29.8
			c-2.52-1.56-5.41-2.59-8.23-3.56c-8.15-2.8-14.59-7.5-18.14-15.61c-0.13-0.31-0.21-0.66-0.42-0.9
			c-12.64-14.76-17.5-33.44-25.53-50.53c-3.11-6.61-6.5-13.12-10.24-19.39c-2.39-4.01-6.06-6.94-10.37-9.09
			c-8.09-4.02-16.55-6.92-25.25-9.21c-8.36-2.2-16.68-4.57-25.11-6.45c-8.94-2-11.01-9.8-14.49-16.4c-0.46-0.88,0.2-2.6,0.75-3.74
			c3.33-6.94,2.2-13.51-1.15-20.08c-1.2-2.35-2.24-4.91-2.66-7.48C1099.12,1157.24,1100.38,1155.61,1101.1,1153.75z"/>
		<path class="st0" d="M948.02,1709.95c6.14-2.6,11.97-3.81,17.86-4.84c2.61-0.46,5.34-0.8,7.71-1.88c4.14-1.89,8.09-2.4,12.54-1.1
			c2.72,0.8,5.93,1.45,8.41-2.3c-8.99-3.79-17.99-6.73-27.27-8.92c-5.49-1.29-10.88-3-16.37-4.3c-6.76-1.6-11.01-5.5-12.37-12.41
			c0.75-0.29,1.39-0.79,1.96-0.72c17.39,2.24,34.35-0.16,51.04-4.96c2.42-0.7,4.48-0.82,6.62,0.42c3.74,2.17,7.64,4.11,11.18,6.57
			c10.13,7.05,20.69,13.31,32.12,17.99c11.48,4.7,21.66,11.59,32.09,18.12c9.33,5.84,19.15,10.22,30.35,11.68
			c6.5,0.85,12.78,3.55,19.12,5.56c20.02,6.35,40.81,9.25,61.24,13.77c6.16,1.36,12.29,2.98,18.51,3.95
			c4.05,0.63,6.61,2.63,8.6,5.96c3.26,5.47,7.06,10.61,12.14,14.46c4.47,3.39,9.34,6.3,14.24,9.07
			c10.42,5.89,20.06,13.08,30.91,18.29c5.79,2.78,5.75,3.4,9.99,13.22c-1.9,4.1-5.94,6.03-9.43,8.4
			c-20.85,14.14-43.86,23.62-67.9,30.7c-21.07,6.2-42.61,10.25-64.23,14c-32.07,5.56-64.11,11.25-96.13,17.1
			c-3.76,0.69-7.11,0.71-10.7-0.54c-7.23-2.51-14.41-5.1-21.25-8.59c-2.65-1.35-5.37-2.81-8.23-3.47
			c-7.28-1.68-12.12-6.41-16.76-11.82c-7.05-8.22-10.98-18.12-15-27.84c-8.56-20.69-13.88-42.24-15.26-64.69
			c-0.77-12.61-2.92-25.05-5.03-37.49C947.96,1719.13,946.89,1714.9,948.02,1709.95z"/>
		<path class="st0" d="M658.34,1996.81c-4.03-1.92-4.88-5.7-5.76-9.07c-3.15-12.12-2.99-24.08,0.72-36.29
			c7.31-24.02,19.84-44.92,36.18-63.69c4.54-5.22,8.51-11.08,15.26-15.29c17.83,7.8,36.1,15.4,54.99,24.85
			c-12.47,6.96-23.82,12.98-34.39,20.29c-21.25,14.7-39.98,31.93-54.79,53.23c-4.97,7.15-9.22,14.62-10.76,23.36
			C659.65,1995.04,658.94,1995.78,658.34,1996.81z"/>
		<path class="st0" d="M613.27,1082.54c1,3.29,0.36,6.39-1.2,9.37c-0.57-3.2-1.03-6.39,1.44-9.16L613.27,1082.54z"/>
	</g>
</g>
</svg>
