<?xml version="1.0" encoding="utf-8"?>
<!-- Generator: Adobe Illustrator 24.1.1, SVG Export Plug-In . SVG Version: 6.00 Build 0)  -->
<svg version="1.1" xmlns="http://www.w3.org/2000/svg" xmlns:xlink="http://www.w3.org/1999/xlink" x="0px" y="0px"
	 viewBox="0 0 2216.77 3735" style="enable-background:new 0 0 2216.77 3735;" xml:space="preserve">
<style type="text/css">
	.st0{fill:#191919;}
</style>
<g id="Layer_1_xA0_Image_1_">
	<g>
		<path d="M1094,3734c-1.5-1.69-3.61-1.54-5.55-1.71c-9.75-0.85-16.65-6.08-21.97-13.94c-4.34-6.41-6.72-13.69-9.48-21.47
			c-6.27,5.23-7.53,13.61-13.46,18.78c-2.73-1.52-2.65-4.02-2.68-6.11c-0.5-33.3,2.38-65.84,19.1-95.84
			c5.33-9.57,9.75-19.6,15.91-28.78c12.78-19.06,31.07-27.49,53.25-28.78c9.32-0.54,18.69-0.62,27.92,1.1
			c5.23,0.97,9.75,0.33,13.99-3.12c2.02-1.65,4.56-3.11,7.08-3.6c7.82-1.54,12.76-6.89,17.58-12.45
			c13.74-15.86,28.08-31.25,38.83-49.46c1.69-2.86,3.66-5.59,5.78-8.15c17.47-21.14,31.31-44.75,46.03-67.76
			c8.67-13.54,15.12-28.04,20.11-43.37c8.91-27.34,14-55.51,19.43-83.63c2.71-14.06,5.9-28.03,8.54-42.1
			c5.82-31.12,5.26-62.33,0.56-93.52c-8.09-53.74-19.99-106.68-33.65-159.26c-4.51-17.39-8.04-35.07-11.19-52.76
			c-4.79-26.98-11.93-53.25-21.02-79.07c-12.17-34.55-24.36-69.1-33.63-104.59c-6.58-25.21-10.74-50.84-13.28-76.72
			c-3.55-36.15-7.9-72.19-13.29-108.1c-2.62-17.49-3.91-35.11-4.58-52.76c-0.47-12.4-2.39-24.49-5.77-36.42
			c-6.09-21.48-12.59-42.77-21.49-63.32c-8.56-19.78-12.9-40.78-12.74-62.27c0.19-24.77-2.56-49.2-5.76-73.66
			c-3.59-27.46-5.13-55.09-5.79-82.74c-1.11-46.31-1.96-92.63-2.55-138.95c-0.37-29.02,1.68-57.95,5.14-86.77
			c2.5-20.87,3.13-41.86,3.84-62.84c0.03-0.95-0.34-1.91-0.48-2.63c-1.69-1.68-3.28-0.88-4.8-0.35c-14.79,5.11-29.42,5.3-43.73-1.59
			c-3.24-1.56-6.47-1.37-9.77-1c-47.41,5.29-95.03,6.79-142.67,8.32c-19.65,0.63-39.29,1.35-58.96,1.65
			c-12.98,0.2-25.94,1.48-38.91,2.29c-44.18,2.75-87.88-0.76-131.16-9.94c-1.9-0.4-3.86-1.16-5.87-0.17
			c-1.59,1.96-0.17,3.65,0.55,5.36c12.37,29.54,18.73,60.41,19.55,92.35c0.64,25.16-3.41,49.77-10.02,74.02
			c-7.62,27.95-14.78,56.03-22.63,83.92c-6.53,23.22-9.47,46.98-12.02,70.83c-1.17,10.95-3.2,21.74-5.32,32.53
			c-0.7,3.57-1.16,7.19-1.68,10.48c3.51,5.32,10.93,4.92,13.26,10.81c-0.96,2.76-3.78,2.15-5.71,3.15
			c-3.65,1.89-4.99,4.22-4.12,8.07c0.58,2.57,1.65,5.06,2.67,7.51c11.03,26.44,26.95,49.74,45.97,70.98
			c3.71,4.15,8.11,7.68,12.72,11.98c-2.97,2.66-7.3,0.16-9.19,3.43c-1.67,2.88-3.54,5.65-5.05,8.6c-9.39,18.31-12.25,37.91-11,58.21
			c1.09,17.76,5.72,34.79,11.43,51.55c1.41,4.15,3.65,7.82,6,11.47c1.22,1.89,2.81,3.87,1.18,6.34c-0.63,0.21-1.43,0.75-1.78,0.54
			c-6.36-3.79-11.94-1.75-17.59,1.87c-11.29,7.24-19.14,17.44-25.39,29.02c-10.65,19.75-17.84,40.87-24.31,62.25
			c-3.76,12.43-7.38,24.9-7.93,38.04c-0.22,5.28-1.23,10.47-5.24,14.18c-2.8-0.26-3.82-2.09-4.98-3.68
			c-10.47-14.36-25.4-21.31-42.29-23.59c-14.87-2.01-30.56,9.97-35.56,25.4c-1.03,3.17-1.69,6.46-2.92,9.54
			c-1.22,3.04-2.52,6.27-6.63,7.03c-3.99-2.68-2.9-6.97-3.16-10.78c-0.74-11.07-5.42-20.4-12.44-28.72
			c-0.36-0.43-1.19-0.48-1.88-0.73c-3.38,1.83-4.85,5.34-6.87,8.31c-10.91,16.03-22.69,31.28-37.29,44.21
			c-2.72,2.41-4.89,5.44-7.23,8.26c-15.68,18.84-35.54,25.95-58.92,18.47c-10.39-3.33-19.47-2.11-29.04,0.97
			c-24.11,7.75-48.39,14.82-73.17,20.13c-7.25,1.55-14.49,2.2-21.84,1.57c-17.76-1.52-34.56-5.82-50.51-14.35
			c-36.59-19.56-63.43-48.06-81.38-85.26c-3.79-7.85-6.49-16.08-8.61-24.46c-2.26-8.93-6.83-15.74-15.1-20.05
			c-3.24-1.69-6.33-3.73-9.27-5.9c-10.55-7.77-21.89-13.54-34.69-17.09c-14.97-4.15-27.59-13.11-39.36-23.11
			c-14.09-11.97-26.07-25.72-34.94-42.04c-3.2-5.89-5.58-12.13-6.86-18.7c-2.93-14.98,0.66-28.64,10-40.39
			c3.42-4.3,4.07-7.81,2.58-12.66c-1.87-6.07-4.16-11.93-6.79-17.7c-6.82-14.97-18.26-24.26-34.08-28.38
			c-3.45-0.9-7.14-1.25-9.79-3.31c-0.74-3.46,1.41-4.86,3.14-6.26c9.06-7.38,18.47-14.26,28.9-19.62
			c7.15-3.67,14.67-6.26,22.72-7.25c14.97-1.86,28.43,1.72,40.42,10.82c5.58,4.24,10.92,8.74,15.8,13.8
			c3.93,4.08,7.92,8.11,12,12.04c2.62,2.53,5.34,5.02,9.12,5.14c2.69-2.1,1.47-4.47,1.01-6.59c-2.76-12.76-4.09-25.66-4.06-38.69
			c0.05-21.7,10-35.55,30.62-42.96c1.82-0.66,4.02-0.63,5.77-3.19c-3.51-25.39-22.78-39.45-41.18-53.15
			c0.23-3.49,2.22-4.26,3.86-5.3c15.24-9.74,31.8-15.29,50-14.94c14.81,0.28,28.31,4.49,38.91,15.41c4.4,4.53,8.24,9.59,12.32,14.43
			c5.15,6.11,10.33,12.2,15.42,18.37c5.19,6.3,11.12,11.09,19.41,13.2c7.8,1.98,14.17,7.24,20.45,11.72c2.74,0.04,3.6-1.98,4.9-3.43
			c10.92-12.2,23.81-21.31,40.04-24.88c4.32-0.95,7.02-3.11,8.68-7.19c3.14-7.7,6.68-15.25,8.78-23.05
			c-0.19-3.96-3.88-5.59-4.97-8.72c4.22-7.51,14.09-15.24,21.37-16.4c7.77-1.24,14.46,1.43,20.29,6.42
			c5.16,4.4,8.73,10.02,11.76,16.01c4.86,9.58,7.77,19.83,10.17,30.23c0.79,3.41,1.98,5.88,5.28,7.83
			c17.69,10.47,26.13,26.98,28.96,46.67c3.4,23.69,1.03,47.2-3.03,70.61c-0.67,3.87-1.36,7.74-1.47,11.86
			c7.25-10.32,12.34-21.96,22.22-30.27c10.11-8.5,22.07-11.91,33.87-13.31c3.71-4.31,2.81-8.42,2.71-12.36
			c-0.61-24.03-3.38-47.86-7.19-71.56c-6.19-38.47-12.62-76.91-19.05-115.34c-6.56-39.16-15.87-77.62-29.46-115.01
			c-11.28-31.01-21.18-62.44-27.44-94.92c-4.74-24.59-6.98-49.47-8.91-74.38c-1.13-14.61-1.83-29.27-2.59-43.91
			c-1.49-28.71-0.46-57.32,4.74-85.65c3.07-16.68,2.17-33.13-1.34-49.61c-4.04-18.98-5.85-38.19-4.87-57.61
			c0.62-12.38,2.66-24.44,7.16-36.1c13.2-34.18,37.68-55.78,72.73-65.69c3.85-1.09,7.73-1.99,11.29-3.91
			c22.3-12.02,46.47-18.04,71.25-22.01c23.35-3.74,46.69-7.5,70.34-9.11c13.34-0.91,26.67-1.27,39.96-0.31
			c29.9,2.16,59.79,4.63,89.65,7.34c13.93,1.26,27.72,3.87,41.35,7.03c16.77,3.88,32.02,11.23,45.77,21.58
			c19.17,14.42,38.77,28.29,57.02,43.91c1.21,1.04,2.57,1.92,3.75,2.8c2.66-1.49,1.77-3.62,1.76-5.42
			c-0.09-10.66-0.56-21.33-0.32-31.98c0.19-8.41-0.86-16.66-2.42-24.82c-5.75-30.04-4.15-59.68,4.1-89.04
			c0.81-2.89,1.36-5.85,2.26-8.7c1.44-4.58,1.69-9.01-0.16-13.61c-2.2-5.47-1.83-11.08-0.11-16.66c2.44-7.96,4.39-16.09,7.27-23.88
			c2.94-7.94,4.41-16.04,4.71-24.4c1.03-28.44,5.58-56.32,13.23-83.71c0.63-2.24,1.25-4.52,1.5-6.82
			c0.82-7.58-0.76-13.89-6.69-19.77c-40.01-39.7-77.6-81.64-113.44-125.14c-49.7-60.33-94.49-124.01-131.1-193.24
			c-34.45-65.14-60-133.6-76.96-205.28c-16.02-67.72-25.36-136.3-23.36-205.99c0.76-26.42,0.37-52.47-4.59-78.5
			c-2.42-12.72-3.05-25.79-4.42-38.71c-1.03-9.67-3.36-18.98-7.01-28.01c-6.24-15.45-12.3-30.96-15.58-47.39
			c-1.5-7.52-3.2-15.02-3.25-22.72c-0.03-4.78-1.32-9.13-3.05-13.52c-4.03-10.22-7.83-20.54-11.69-30.83
			c-0.69-1.83-1.71-3.65-0.84-5.84c2.21-0.13,4.42,1.22,6.26-2.08c3.71-6.67,8.2-12.94,12.64-19.18
			c7.93-11.14,16.4-21.88,25.63-31.96c16.82-18.37,29.47-39.46,40.59-61.55c1.93-3.84,3.15-8.05,4.5-12.15
			c2.16-6.59,4.15-13.23,6.78-21.64c2.61,7.79-1.04,13.86,0.42,19.18c1.43,2.51,3.47,3.01,5.38,3.34c31.62,5.3,61.11,0.2,87.4-18.85
			c11.34-8.22,21.97-17.25,29.18-29.74c2.95-5.11,7.06-9.56,12.44-14c0.57,5.56-2.28,9.12-3.96,12.85
			c-2.08,4.62-1.34,8.05,1.96,11.75c15.6,17.51,34.72,27.68,58.38,28.8c10.71,0.51,21.26-0.46,31.82-2.32
			c10.04-1.77,18.34-7.31,27.57-10.95c-4.91-8.42-4.91-8.42-4.15-20.04c-2.81-2.32-6.05-4.63-8.85-7.39
			c-5.29-5.22-5.77-8.42-2.73-15.24c3.01-6.74,7.02-12.88,11.86-18.43c5.25-6.03,10.58-12,16.08-17.8
			C916.27,14.5,934.25,5.1,955.34,1.58c1.6-0.27,3.11-1.04,4.66-1.58c3.33,0,6.67,0,10,0c1.57,0.49,3.12,1.28,4.72,1.42
			c23.17,2.03,45.02,8.79,66.22,18.06c10.98,4.8,22.16,9.16,33.19,13.86c3.95,1.68,7.65,1.77,11.49-0.21
			c3.84-1.99,7.8-3.76,11.65-5.74c10.38-5.34,20.94-10.3,31.98-14.09c25.15-8.63,50.61-11.05,76.6-3.63
			c14.1,4.03,28.05,8.48,41.83,13.48c3.76,1.36,7.4,2.62,11.63,1.79c17.79-3.5,34.92-1.06,52.1,4.62
			c17.35,5.74,35.47,8.58,53.62,10.93c6.03,0.78,11.63,3.02,16.26,7.09c1.66,1.46,3.51,3.18,2.25,5.65
			c-1.53,1.97-5.29-0.77-5.54,4.42c8.53,1.01,16.03,6.38,25.22,6.43c7.62,0.04,14.23,3.1,20.44,7.21c2.87,1.9,5.13,4.25,5.19,7.95
			c-2.07,2.53-5.3-0.46-7.41,1.67c-3.02,9.71-3.52,10.17-13.05,12.76c-1.25,0.34-2.97-0.15-3.73,1.66
			c7.98,1.88,15.22,5.35,23.18,6.53c4.31,0.64,8.05,3.13,11.4,5.96c1.53,1.29,2.88,2.82,2.5,5.12c-0.51,0.38-0.98,1.02-1.52,1.08
			c-1.9,0.2-4.16-0.44-4.67,2.39c-0.43,2.41,1.17,3.67,2.89,4.75c3.66,2.31,7.37,4.55,11.07,6.8
			c26.78,16.27,53.43,32.72,78.24,51.94c17.46,13.53,33.85,28.24,46.29,46.64c8.78,12.98,17.94,25.63,27.72,37.86
			c3.54,4.42,6.78,9.08,9.99,13.75c14.83,21.58,24.9,45.53,34.45,69.72c2.69,6.8,3.87,14.76,8.22,20.2
			c4.64,5.8,13.41,6.82,20.15,10.39c4.71,2.49,9.43,4.97,13.94,7.79c2.73,1.7,5.42,3.81,5.16,8.6c-14.75,0.65-28.97,3.23-43.13,5.88
			c-0.38,4,1.72,6.79,2.95,9.82c4.5,11.11,9.18,22.15,13.6,33.29c1.59,4,3.1,8.1,3.12,12.54c0.02,6.33-3.13,8.44-9.04,6
			c-5.04-2.09-8.94-5.78-12.76-9.49c-11-10.67-21.84-21.52-32.86-32.18c-5.01-4.84-9.75-10.01-15.79-14.12
			c-4.08,0.96-8.39,0.91-12.16,2.66c-0.48,3.28,1.85,4.54,3.27,6.23c5.56,6.65,11.35,13.1,16.81,19.82c2.5,3.08,4.78,6.44,6.56,9.98
			c2.4,4.77-0.01,7.71-5.42,7.01c-4.04-0.53-7.61-2.4-11.14-4.26c-11.22-5.91-21.8-12.87-32.54-19.56
			c-4.76-2.97-8.92-8.07-14.55-8.23c-5.9-0.17-11.21,3.82-16.74,6.08c-0.58,0.24-1.03,0.81-1.75,1.4c-0.34,1.05-0.89,2.28-1.15,3.56
			c-7.7,39.33-20.08,77.33-32.83,115.22c-1.48,4.4-3.36,8.69-5.34,12.9c-1.13,2.41-2.81,4.6-6.32,4.17
			c-3.66-2.6-3.54-6.84-3.69-10.7c-0.22-5.65,0.03-11.33,0.29-16.98c1.02-22.99,1.54-45.97-1.12-68.9
			c-0.24-2.08,0.73-4.82-2.26-5.94c-11.21,7.07-16.2,16.87-14.67,30.3c1.35,11.91,1.86,23.92,2.53,35.89
			c0.43,7.65,0.63,15.32,0.66,22.98c0.01,3.62-0.12,7.51-4.58,8.85c-3.05-0.7-4.55-2.89-5.66-5.37c-1.63-3.64-3.27-7.3-4.63-11.05
			c-6.25-17.22-12.34-34.49-18.64-51.69c-2.39-6.54-3.27-14.24-8.13-19.11c-4.84-4.85-12.36-6.25-18.82-8.88
			c-6.06-2.47-11.97-5.51-18.83-6.67c-0.98,1.8-1.83,3.21-2.53,4.68c-9.88,20.75-19.79,41.49-29.59,62.28
			c-3.83,8.14-7.24,16.47-9.74,25.13c-1.76,6.1-3.18,12.24-2.89,18.67c0.35,7.75,3.05,14.12,9.61,18.8
			c7.33,5.23,14.6,10.53,22.4,15.02c13.78,7.94,28.55,12.59,44.49,13.65c19.03,1.26,37.98-0.43,56.91-1.68
			c49.46-3.25,97.14,4.7,142.75,23.46c43.23,17.78,75.5,48.06,96.05,90.38c6.87,14.14,11.69,29.02,15.73,44.17
			c7.15,26.78,12.9,53.74,12.49,81.72c-0.15,10.69,2.21,21.17,4.72,31.55c5.49,22.68,12.56,44.9,19.89,67.03
			c9.62,29.02,14.93,58.77,14.77,89.33c-0.23,43.06,4.24,85.85,6.83,128.74c2.01,33.26,4.08,66.53,3.81,99.88
			c-0.04,4.9,1.38,10.02,0.34,14.63c-1.1,4.88-1.95,9.78-2.48,14.69c-1.68,15.56-3.09,31.15-4.37,46.75
			c-1.76,21.31-2.49,42.57,4.07,63.36c0.7,2.21,1.11,4.55,1.34,6.86c0.17,1.67,1.25,3.77-0.96,5.01c-3.78-1.76-3.48-6.74-7.23-8.14
			c-0.63,0.3-1.36,0.44-1.77,0.88c-20.84,22.84-35.97,48.67-41.52,79.5c-1.6,8.88-2.64,17.65-0.64,26.75
			c1.12,5.09,0.36,10.61,0.33,15.94c-0.01,1.6-0.07,3.38-2.44,4.06c-3.63-3.48-2.81-9.47-6.6-12.93
			c-10.33,2.78-18.76,7.17-26.42,15.3c-18.89,20.05-30.5,43.4-30.9,71.51c-0.1,6.8-1.1,11.16-3.63,15.72
			c-3.04-3.69-1.06-9.53-5.6-12.58c-11.38,1.41-21.84,5.39-31.18,12.21c-10.83,7.91-20.31,17.23-28.67,27.71
			c-5.81,7.28-9.56,15.19-8.36,24.85c0.24,1.96-0.01,3.99-0.14,5.99c-0.03,0.49-0.47,0.96-0.75,1.48c-1.84-1-1.1-3.98-3.6-4.41
			c-0.55,0.11-1.29,0.06-1.76,0.4c-12.2,8.78-23.82,18.2-33.58,29.76c-9.03,10.7-18.55,20.91-28.65,30.66
			c-9.57,9.24-18.61,19.26-24.46,31.39c-3.47,7.2-6.35,14.61-12.05,20.64c3.4,5.86,8.35,9.85,13,14.08
			c6.66,6.06,13.36,12.07,19.12,19.02c2.02,2.44,4.54,4.8,3.79,9.14c-6.63,0.5-11.22-6.07-17.23-5.07
			c-1.39,1.68-1.11,3.03-0.91,4.32c4.81,30,11.91,59.43,22.33,87.99c22.65,62.08,53.88,119.54,93,172.78
			c10.5,14.28,21.17,28.29,36.34,38.07c1.39,0.9,2.62,2.06,3.86,3.17c6.24,5.54,12.3,11.26,17.34,17.94c1.04,1.38,2.9,3.1,0.3,5.35
			c-7.03-1.43-12.55-8.4-20.71-7.23c-0.41,1.34-0.89,2.28-0.94,3.23c-0.14,2.66-0.17,5.33-0.12,7.99
			c0.62,29.75,7.88,57.93,19.9,85.03c20.49,46.19,50.51,85.2,88.6,118.19c5.33,4.61,10.95,8.55,17.37,11.58
			c11.16,5.26,22,11.16,31.53,19.14c2.47,2.07,5.61,3.65,6.27,7.45c-2.11,1.3-3.83,0.05-5.6-0.71c-4.29-1.83-8.58-3.77-13.31-4.1
			c-4.64-0.32-6.91,1.5-7.14,6.17c-0.4,7.99-0.1,15.96,1.5,23.87c4.45,22,16.37,39.85,31.01,56.17c18.06,20.13,40,34.97,64.02,47.11
			c13.55,6.84,27.43,11.68,42.73,12.57c8.62,0.5,17.17,2.32,25.29,5.56c2.94,1.18,6.25,1.92,8.21,4.86
			c-2.36,2.49-4.74,1.16-6.9,1.26c-3.32,0.15-6.7-0.19-9.97,0.26c-7.46,1.04-9.76,3.83-9.43,11.35
			c0.53,12.41,4.83,23.39,13.05,32.75c5.98,6.82,13.01,12.4,20.72,17.14c19.79,12.19,41.61,17.38,64.55,18.82
			c5.38,0.34,10.57-0.05,15.8-1.52c8.01-2.24,16.14-4.09,24.26-5.92c6.88-1.55,13.87-1.82,20.87-0.82c1.45,0.21,3.48,0.06,3.25,2.67
			c-1.97,1.91-4.79,2.02-7.16,3.13c-5.12,2.4-10.27,4.74-15.37,7.19c-2.5,1.2-4.2,2.98-4.86,5.91
			c-2.75,12.32,3.63,26.59,15.24,31.82c17.92,8.07,35.15,5.27,51.18-5.25c6.66-4.37,12.57-9.87,18.91-14.75
			c4.24-3.26,8.81-5.99,14.03-7.47c2.04-0.58,3.93-0.81,5.25,1.99c-4.76,5.66-9.67,11.47-14.53,17.31c-1.48,1.78-3.54,3.37-3.71,5.8
			c-0.54,7.69-0.11,15.19,5.62,21.5c9.32-4.04,15.18-9.91,14.49-20.55c-0.17-2.63,0.31-5.32,0.57-7.97
			c0.16-1.63,0.21-3.37,2.64-4.15c4.21,6.78,3.61,14.98,5.92,23.27c6.78-8.2,9.28-18.43,17.42-24.52c1.35,1.66,1.07,2.89,0.69,4.21
			c-3.54,12.15-6.94,24.36-11.7,36.1c-3.4,8.37-5.54,17.07-7.85,25.77c-1.74,6.53-0.84,11.08,4.31,15.9
			c7.89,7.39,13.75,16.71,15.59,27.42c3.94,22.84-0.16,43.71-17.23,60.88c-12.81,12.88-28.14,21.14-45.48,25.87
			c-24.31,6.63-49.21,8.25-74.27,8.42c-44.09,0.3-86.8-8.33-128.77-20.79c-76.08-22.6-145.82-58.31-210.61-103.83
			c-71.36-50.13-133.67-109.97-189.56-176.77c-46.77-55.9-87.39-115.97-123.73-179.04c-1.44-2.5-2.28-5.5-5.58-7.47
			c-6.56,11.89-10.91,24.21-10.71,37.89c0.4,26.64,5.48,52.26,16.5,76.62c14.56,32.16,29.09,64.34,43.49,96.58
			c5.43,12.16,10.66,24.42,15.63,36.78c25.84,64.24,36.18,130.63,28.41,199.73c-6.48,57.69-8.88,115.61-7.82,173.66
			c0.34,18.32,0.35,36.66,1.97,54.94c1.53,17.26,2.94,34.53,4.14,51.81c1.76,25.27,5.16,50.31,11.63,74.81
			c11.34,42.9,14.71,86.65,13.91,130.77c-0.52,28.66-3.57,57.2-6.09,85.74c-2.07,23.38-1.26,46.58,1.89,69.78
			c4.21,31.02,9.58,61.85,11.79,93.16c2.19,31.04,2.29,61.92-1.68,92.77c-0.98,7.59-2.33,15.15-3.92,22.63
			c-2.02,9.53-7.72,16.36-17.06,19.23c-8.75,2.68-15.88,7-22.61,13.5c-8.83,8.52-20.83,11.45-32.94,12.98
			c-15.32,1.93-30.65,1.11-45.89-0.56c-10.24-1.12-20.51-2.84-29.47-8.65c-2.35-1.53-5.03-1.53-7.71-1.64
			c-10.01-0.39-19.8,0.54-29.75,2.35c-23.75,4.34-47.81,3.32-71.77,1.75c-7.27-0.48-14.4-2.25-21.41-4.69
			c-6.92-2.41-14.33-3.41-21.68-2.1c-14.49,2.58-29.07,3.64-43.76,3.64c-2.98,0-5.98-0.25-8.89,0.85
			c-19.9,7.46-40.85,9.14-61.73,11.27c-2.93,0.3-6.06-0.32-8.64,1.73C1108.67,3734,1101.33,3734,1094,3734z M1457.41,1627.9
			c3.36-3.57,4.79-8.45,6.72-12.97c12.7-29.69,25.27-59.44,37.89-89.17c11.45-26.99,22.48-54.11,29.52-82.68
			c1.43-5.79,3.62-11.42,5.81-16.99c6.35-16.13,13.61-31.87,21.92-47.06c15-27.44,33.9-51.83,58.42-71.51
			c8.31-6.67,17.01-12.85,25.44-19.38c13.32-10.31,14.03-14.28,6.52-29.57c-14.81-30.18-31.42-59.49-44.18-90.67
			c-1.01-2.48-2.35-4.72-4.39-6.58c-16.11-14.6-29.43-31.72-43.39-48.27c-7.73-9.17-15.53-18.28-23.52-27.22
			c-3.09-3.46-6.52-6.72-10.23-9.49c-6.29-4.69-11.2-4.04-16.81,1.61c-3.56,3.58-6.31,7.78-8.63,12.2
			c-6.19,11.79-12.4,23.58-18.21,35.56c-14.02,28.89-30.59,56.17-51.34,80.74c-14.18,16.8-28.88,33.16-43.24,49.81
			c-4.56,5.29-9,10.71-13.13,16.35c-4.64,6.34-6.89,13.49-6.66,21.52c0.33,11.32-0.01,22.66,0.27,33.98
			c0.75,30.37,3.92,60.49,10.79,90.11c5.82,25.08,10.12,50.28,9.04,76.14c-0.49,11.78,2.55,22.49,9.73,31.81
			c11.41,14.82,18,31.7,22.54,49.65c2.85,11.29,6.52,22.37,9.7,33.58c0.89,3.12,2.27,5.49,5.67,6.22c6.05,1.3,10.91,4.76,15.63,8.53
			C1451.54,1625.95,1453.65,1628.3,1457.41,1627.9z M720.18,360.35c5.79,9.07,10.84,16.08,14.95,23.6
			c7.03,12.85,13.59,25.95,20.13,39.05c21.11,42.31,41.24,85.07,57.36,129.6c4.9,13.53,8.47,27.33,9.81,41.68
			c1.18,12.59,2.34,25.19,3.5,37.78c0.37,3.96,0.63,7.95,3.22,11.83c12.59-6.24,25.49-11.57,39.12-14.86
			c33.39-8.07,67.16-13.81,101.53-15.38c16.3-0.74,32.62-0.92,48.93-1.4c13.25-0.39,25.63-4.01,37.11-10.52
			c10.74-6.08,20.71-13.31,30.38-20.98c3.89-3.09,5.86-6.53,6.3-11.69c1.98-23.23,5.22-46.32,9.86-69.17
			c1.62-7.97,1.91-15.85,1.05-23.82c-1.04-9.6-2.07-19.21-3.6-28.73c-2.38-14.8-5.8-29.35-11.36-43.37
			c-5.71-14.4-15.11-24.82-29.91-30.2c-8.77-3.19-17.18-7.24-25.21-12.03c-3.8-2.27-7.82-3.36-12.2-3.97
			c-15.24-2.11-30.57-2.51-45.87-1.86c-22.07,0.93-43.87-0.95-65.67-4.18c-17.19-2.55-33.02-7.74-45.93-19.93
			c-0.43-0.4-1.23-0.4-2.27-0.71c-2.54,0.66-5.46,1.33-8.31,2.19c-17.52,5.28-35.13,10.31-52.53,15.98
			c-22.37,7.29-45.2,11.15-68.71,11.11C728.59,360.35,725.3,360.35,720.18,360.35z M897.99,106.27c-3.43,6.22-8.82,8.21-11.15,13.1
			c3.45,5.57,7.94,9.58,12.44,13.49c4.63,4.02,9.12,8.44,16.5,9.96c-0.69-7.33,2.19-13.53,2.36-20.05
			c-5.41-1.76-9.76,2.19-14.66,0.37C900.42,118.95,900.97,113.24,897.99,106.27z M944.85,155.35c-0.47-4.06-0.74-7.27-3.53-9.72
			c-2.5,1.8-4.45,3.78-4.76,6.93C938.75,154.37,941.23,154.96,944.85,155.35z"/>
	</g>
</g>
<g id="Layer_2_xA0_Image_1_">
	<g>
		<path class="st0" d="M0,2395c10.21-8.44,20.56-16.7,32.09-23.31c16.26-9.33,33.36-12.51,51.66-7.02
			c6.49,1.94,12.02,5.61,17.25,9.65c6.01,4.65,12.03,9.35,16.91,15.31c3.75,4.59,7.77,8.95,11.37,13.08c-5.84,1-12.2,3.7-18.31,7.1
			c-2.57,1.43-4.96,3.38-8.19,3.33c-2.68-0.04-4.01,1.94-5.49,3.79c-1.65,2.07-3.2,4.4-5.3,5.9c-11.86,8.44-23.87,16.65-35.18,24.5
			c-3.63-0.67-3.71-2.98-4.19-4.72c-1.95-7.1-5.46-13.41-8.86-19.89c-5.49-10.47-14.24-16.42-24.82-20.18
			c-6.19-2.2-12.62-3.71-18.95-5.53C0,2396.33,0,2395.67,0,2395z"/>
		<path class="st0" d="M1092,3735c-3.69-1.32-7.34-2.73-11.06-3.94c-5.17-1.68-9.36-4.51-12.28-9.19
			c23.76,2.08,46.62-0.05,68.44-9.44c1.79-0.77,3.1-0.39,4.68-0.18c2.63,0.34,5.28,0.54,7.92,0.81c26.45,2.75,52.35-2.54,78.4-5.5
			c6.27-0.71,12.51-1.64,18.88-3.92c1.97,5.19,5.52,9.11,9.53,13.65c27.06,1.32,54.37,0.03,81.41-6.42
			c14.2-3.38,28.78-4.81,43.91-6.31c0.89,5.29,2.06,10.44,6.38,13.91c-1.59,2.72-3.8,1.76-5.43,1.48
			c-7.68-1.29-15.17-0.95-22.7,1.13c-9.69,2.68-19.71,3.09-29.67,3.53c-19.3,0.85-38.62,1.19-57.79-1.95
			c-2.94-0.48-5.83-1.43-8.65-2.41c-9.59-3.31-19.14-4.2-29.34-2.39c-13.07,2.32-26.41,2.93-39.72,3.2
			c-2.65,0.05-5.54-0.35-7.92,0.53c-17.98,6.64-36.92,8.02-55.61,10.9c-4.43,0.68-9.34-0.45-13.38,2.51
			C1109.33,3735,1100.67,3735,1092,3735z"/>
		<path class="st0" d="M1286,33c1.27,2.82,5.39,2.2,6.67,5.93c-5.58-0.96-9.93-3.96-14.67-5.93C1280.67,33,1283.33,33,1286,33z"/>
		<path class="st0" d="M44.53,2509.66c0.7-9.7,5.03-16.5,11.81-21.82c5.25-4.12,11.12-7.13,17.51-9c7.33-2.14,14.64-4.17,22.48-3.74
			c19.35,1.06,36.44-5.85,53.04-15.83c4.74,4.84,11.11,7.34,17.43,9.66c7.43,2.74,14.78,5.77,22.12,8.67
			c5.86,2.32,11.36,6.93,15.48,11.83c3.69,4.38,9.4,7.13,10.91,13.68c0.87,3.77,4.86,3.44,9.17,2.25
			c-6.71-10.31-13.02-19.97-19.3-29.65c-1.2-1.84-2.97-2.43-4.98-2.91c-20.34-4.83-33.93-18.93-46.57-34.22
			c-2.09-2.53-3.84-5.5-5.1-8.54c-4.04-9.78-8.24-19.54-11.51-29.58c-4.09-12.56-3.59-25.45-1.12-38.38
			c1.17-6.13,4.86-9.75,10.29-10.8c10.42-2,21.04-4.07,31.67-2.39c14.06,2.21,26.95,7.51,37.06,17.91
			c7.16,7.38,14.76,14.34,21.04,22.61c3.09,4.06,6.47,8.48,11.89,9.96c2.32,0.63,2.93,2.53,3.89,4.19c2.68,4.6,5.27,9.24,7.91,13.87
			c3.28,5.74,6.18,11.66,10.21,17.01c2.75,3.65,4.99,7.75,6.93,12.05c5.3,11.74,11.12,23.24,15.82,35.25
			c0.6,1.54,1.15,3.22,2.18,4.46c3.73,4.48,4.1,9.6,3.18,15.28c1.96,1.58,3.92,3.16,5.85,4.72c1.23-0.6,2.4-0.8,2.95-1.49
			c5.94-7.48,8.55-15.64,4.76-25c-3.84-9.51-7.36-18.98-13.82-27.41c-5.57-7.28-8.73-16.37-13.3-24.47
			c-6.49-11.49-9.34-24.15-11.81-36.84c-1.18-6.05-1.32-12.34,0.96-18.69c2.56-7.13,2.97-14.92,5.62-22.16
			c1.25-3.43,2.44-6.81,4.11-10.1c6.7-13.22,15.23-18.07,29.13-14.04c20.41,5.92,40.67,12.52,59.62,22.44
			c14.62,7.66,23.82,19.39,28.64,35.29c3.14,10.36,5.59,21.03,10.46,30.86c0.83,1.68,0.97,3.96,0.74,5.88
			c-0.85,6.92,1.38,13.95-0.87,20.81c-0.29,0.88-0.2,1.97,0,2.89c3.05,13.88-2.57,26.83-4.35,40.17c-1.27,9.51-3.47,18.9-1.28,28.53
			c0.44,1.93,0.98,3.85,1.68,5.69c3.28,8.65,6.77,9.5,15.24,3.21c-4.47-21.4-3.97-42.87,4.47-64.49c5.36,5.66,11.84,7.33,18.29,8.73
			c16.52,3.59,33.23,6.39,49.62,10.5c10.55,2.64,20.74,6.84,30.95,10.71c7.75,2.95,15.45,6.15,22.86,9.86
			c7.01,3.5,13.76,8.35,12.85,17.24c-1.24,12.2-3.46,24.34-10.53,34.94c-4.11,6.15-9.01,11.29-15.2,15.52
			c-3.01,2.06-7.61,2.94-8.57,7.63c-0.06,0.29-2.15-1.73-3.53,0.04c-0.76,2.56,0.47,4.98,1.28,7.47c2.45,7.57,4.62,15.25,7.36,22.71
			c4.37,11.87,12.75,19.89,23.4,24.07c10.82-1.3,16.4-9.12,23.68-14.13c5.98-4.12,10.99-9.62,16.6-14.31
			c9.08-7.6,15.77-17.15,21.73-27.13c7.33-12.27,18.74-20.55,28.26-30.68c1.29-1.38,2.99-1.65,4.55-0.85
			c1.73,0.88,1.62,2.61,1.36,4.34c-0.61,4.13-2.95,7.4-5.33,10.57c-5.99,7.98-12.21,15.79-18.2,23.76
			c-5.07,6.75-11.34,12.08-18.47,16.52c-5.41,3.37-5.38,3.42-9.55,9.48c1.71,1.5,2.97,0.12,4.38-0.62
			c13.21-6.92,23.86-16.79,33.03-28.4c2.87-3.63,5.14-7.79,9.11-10.48c8.37,12.22,17.93,69.07,14.29,86.24
			c-9.9-7.51-21.01-10.74-33.1-12.15c-13.68-1.59-24.8,2.28-34.2,11.99c-0.46,0.47-0.98,0.9-1.52,1.28c-0.25,0.18-0.62,0.2-1.63,0.5
			c1.03-13.82,4.43-27.27,3.35-41.7c-6.73,2.58-9.7,6.64-10.36,13.44c-1.1,11.28-1.2,22.58-1.72,33.87
			c-0.15,3.27,0.09,6.58-2.85,9.19c-3.55-9.61-5.35-20.25-15.51-25.75c-1.37-0.74-2.52-0.27-3.53,1.65
			c2.79,4.4,8.49,6.53,10.56,12.19c2.17,5.94,4.15,11.77,4.62,18.37c-5.11-1.88-5.91-6.76-7.95-10.6
			c-2.62-4.94-4.18-10.56-9.59-13.93c-3.21,2.56-5.29,5.83-7.5,9.04c-10.55,15.38-21.94,30.02-35.87,42.59
			c-4.91,4.43-8.82,9.96-13.59,14.57c-13.65,13.17-29.75,18.35-48.53,14.06c-1.62-0.37-3.42-0.37-4.85-1.11
			c-10.5-5.43-20.69-2.4-30.83,1c-20.51,6.88-41.44,12.22-62.34,17.75c-16.51,4.36-32.66,4.21-49.34,1.21
			c-16.5-2.97-30.71-10.66-44.61-19.11c-31-18.83-53.63-45.29-69.43-77.78c-3.93-8.09-6.86-16.55-9.09-25.23
			c-2.16-8.41-5.88-15.25-14.2-19.36c-5.61-2.77-10.61-6.81-15.76-10.46c-7.11-5.04-14.69-9.13-23.15-11.29
			c-21.35-5.45-38.62-17.77-53.92-32.84C61.81,2539.85,50.16,2526.13,44.53,2509.66z"/>
		<path class="st0" d="M946.52,1616.03c2.35,0.5,3.19,1.94,4.05,3.38c6.64,11.11,13.43,22.12,18.21,34.23
			c3.46,8.78,9.44,16.01,15.06,23.43c1.17,1.54,2.89,2.79,4.59,3.77c3.89,2.24,7.15,1.63,9.3-2.31c2.36-4.35,4.33-8.98,5.86-13.69
			c1.74-5.36,2.98-10.91,4.12-16.44c2.11-10.21,6.04-19.69,11.05-28.75c4.09-7.4,8.19-9.15,16.42-7.47
			c15.67,3.2,30.52,9.26,45.96,13.28c3.83,1,6.45,3.37,6.86,7.61c0.75,7.82,5.72,12.27,12.13,15.92
			c6.63,3.78,12.98,8.05,19.39,12.19c3.94,2.54,7.57,5.67,9.99,9.59c7.64,12.37,18.96,21.31,28.84,31.57
			c4.18,4.34,7.89,8.95,11.36,13.86c12.42,17.53,12.48,36.07,4.06,54.89c-5.61,12.55-13.51,23.65-24.82,31.99
			c-5.14,3.79-10.35,7.4-16.84,8.21c-5.7,0.72-8.47,4.13-10.67,9.13c-3.76,8.56-6.39,17.48-9.43,26.27
			c-1.43,4.14-3.26,7.95-5.69,11.58c-8.99,13.43-21.12,14.38-35.08,8.9c-4.4-1.73-8.27-4.45-11.63-7.64
			c-8.21-7.79-16.32-15.7-22.54-25.29c-0.9-1.39-1.97-2.67-2.9-4.03c-7.52-10.96-17.12-15.95-31.18-15.52
			c-23.72,0.72-43.81-9.2-60.5-26.08c-10.75-10.88-13.27-24.33-11.62-38.66c1.85-16.06,6.94-31.02,17.76-43.63
			c4.19-4.88,5.24-11.4,7.42-17.28c1.41-3.79-0.65-7.35-2.24-10.46c-2.68-5.26-3.59-10.15-2.46-16.2c1.34-7.12,0.69-14.6,1.02-21.92
			c0.27-6.06,0.2-11.86-4.69-16.57C945.74,1622.06,945.05,1619.28,946.52,1616.03z"/>
		<path class="st0" d="M1658.46,388.75c-3.76,0.58-7.25,1.04-10.7,1.66c-19.62,3.49-39.64,4.51-59.04,9.27
			c-15.75,3.87-31.52,7.72-47.09,12.24c-20.66,5.99-38.93,16.55-55.33,30.49c-6.81,5.79-14.14,10.97-21.09,16.32
			c-3.65-0.97-4.65-4.06-6.01-6.6c-15.04-28.14-31.91-55.21-49.2-81.99c-6.26-9.7-13.97-18.54-21.56-27.31
			c-8.27-9.55-15.25-20.03-22.94-29.99c-0.99-1.28-1.43-2.97-2.3-4.85c7.56-5.41,15.07-10.7,22.49-16.1
			c5.94-4.32,11.29-9.27,15.19-15.59c1.22-1.98,2.42-3.9,4.28-5.44c4.84-4.04,9.87-5.25,15.5-1.72
			c14.08,8.84,29.53,15.17,43.7,23.92c7.56,4.66,16.07,7.8,23.75,12.45c5.1,3.08,9.96,6.76,15.23,9.29
			c16.73,8.04,32.4,18.07,49.41,25.59c10.57,4.68,20.88,9.97,31,15.68c14.44,8.14,30.47,12.81,45.78,19.04
			c9.17,3.73,18.29,7.61,27.4,11.48C1657.42,386.81,1657.67,387.61,1658.46,388.75z"/>
		<path class="st0" d="M1554.18,2101.11c4.55,0.89,8.56,1.28,12.28,2.51c4.98,1.64,10.04,2.92,14.47,6.34
			c3.87,2.99,8.64,5.13,13.33,6.66c6.33,2.07,12.24,4.74,17.92,8.21c8.71,5.32,17.48,10.58,26.49,15.36
			c5.71,3.03,10.26,7.23,15.07,11.93c0,10.35-0.48,20.94,0.09,31.48c1.44,26.59,9.66,51.41,20.82,75.35
			c7.03,15.07,14.94,29.78,24.34,43.41c13.55,19.64,27.19,39.4,45.39,55.31c0.48,0.42,0.74,1.09,1.11,1.64
			c-0.33,1.35-1.41,1.04-2.15,0.75c-19.13-7.63-38.88-13.09-59.02-17.32c-6.8-1.43-13.4-3.84-20.06-5.89
			c-8.68-2.68-14.77-7.96-18.69-16.46c-7.8-16.91-16.58-33.37-24.41-50.27c-17.59-37.99-33.73-76.6-48.71-115.7
			c-5.71-14.91-11.25-29.88-16.86-44.82C1554.69,2107.15,1553.58,2104.74,1554.18,2101.11z"/>
		<path class="st0" d="M1885.57,2543.05c-4.96,0-9.93,0.11-14.89-0.02c-13-0.34-25.92,0.53-38.84,1.88
			c-8.58,0.9-17.2,0.61-25.83,0.45c-6.54-0.12-11.42-2.77-15.45-7.68c-7.81-9.5-15.7-18.92-23.59-28.36
			c-14.72-17.61-27.98-36.35-40.92-55.25c-13.31-19.44-26.41-39.06-38.13-59.54c-4.45-7.78-9.45-15.25-14.11-22.91
			c-0.83-1.36-2.06-2.69-1.5-4.59c1.4-1.33,3.08-0.86,4.62-0.38c12.49,3.85,25.41,4.81,38.34,5.52c7.38,0.41,14.31,2.18,21.26,4.77
			c14,5.2,27.2,12.18,41.01,17.73c4.03,1.62,6.84,5.21,10.73,5.2c1.8,2.64,0.64,4.46,0.37,6.39c-1.59,11.28-1.71,22.55,1.43,33.61
			c1.9,6.7,3.86,13.41,6.37,19.89c2.15,5.54,5.15,10.67,8.61,15.66c12.3,17.73,28.13,31.67,45.33,44.36
			C1861.58,2528.03,1873.08,2535.71,1885.57,2543.05z"/>
		<path class="st0" d="M1442.64,467.39c-6.36-3.31-12.65-6.74-19.08-9.9c-22.91-11.24-46.12-21.82-71.04-27.78
			c-14.85-3.56-29.92-6.27-45.36-5.57c-9.05,0.41-17.73,2.23-25.99,6c-1.15,0.52-2.49,0.62-3.46,0.85
			c-2.44-1.76-1.43-3.81-1.44-5.68c-0.08-12.94,0.71-25.88-3.1-38.61c-1.47-4.92-1.26-10.42-1.37-15.67
			c-0.13-6.43,2.03-11.12,8.92-13.69c18.1-6.75,34.8-16.42,51.22-26.49c5.86-3.59,11.39-7.72,17.63-11.99
			c1.9,5.04,4.95,8.26,8.97,10.87c2.09,1.35,3.54,3.94,4.85,6.21c7.16,12.39,15.03,24.19,24.15,35.31
			c7.52,9.18,14.29,19.06,18.89,30.28c3.67,8.95,9.88,16.49,15.39,24.38c1.51,2.17,3.22,4.32,4.18,6.74
			c4.68,11.76,10.23,23.04,17.95,33.17C1443.51,466.34,1443.07,466.86,1442.64,467.39z"/>
		<path class="st0" d="M626.52,246.86c16.4-5,33-7.47,49.97-7.92c23.25-0.62,46.5-0.54,69.75-0.8c16.63-0.19,33.1-2.6,49.61-4.39
			c24.05-2.61,48.02-5.81,72.35-4.86c12.91,0.5,25.74-1.35,38.58-3.42c17.11-2.77,33.66-7.78,50.61-11.12
			c10.78-2.12,21.63-3.43,32.54-3.52c7.66-0.06,15.17-0.72,22.75-1.62c5.55-0.66,11.23-0.13,16.88-0.13
			c-0.18,2.02-1.42,3.17-2.52,3.12c-9.72-0.51-18.85,3.46-28.57,3.45c-5.88,0-11.79-0.32-17.76,0.08
			c-16.4,1.1-32.21,4.61-47.96,8.81c-3.47,0.93-7.33,0.67-10.67,3.62c2.08,8.41,4.2,17,6.46,26.18c4.71-1.03,6.61-6.2,11.32-7.72
			c1.48,0.58,3.28,1.29,5.12,2.02c4.81-2.34,4.39-8.93,8.9-11.27c2.72,0,2.4,3.33,4.68,3.55c3.15,0.2,3.39-3.79,6.56-4.48
			c4.2,3.97,6.62,9.42,9.39,14.8c5.3-1.22,5.8-7.47,10.4-8.92c3.62,1.17,5.31,4.9,8.3,6.53c0.92,0,1.74,0.26,2.2-0.04
			c8.26-5.21,8.25-5.22,13.79,2.33c0.77,1.05,1.61,2.06,2.42,3.08c2.57-0.86,4.93-2.16,7.67-0.57c0.19-1.01,0.41-1.92,0.51-2.83
			c0.53-4.61,0.35-9.31,2.24-13.72c1.74-4.07,4.61-6.57,9.06-6.69c3.64-0.1,7.33,0,10.94,0.46c15.85,2.02,30.01,8.12,42.43,18.18
			c1.8,1.46,3.6,3.01,5.04,4.81c5.84,7.33,5.61,15.52-0.47,22.54c-1.64,1.89-3.81,2.61-6.24,2.62c-3.98,0.02-7.96,0.01-12.14,0.01
			c-7.19,8.22-14.03,16.34-21.2,24.17c-10.6,11.59-21.89,22.41-36.43,29.06c-3.28,1.5-6.59,2.95-10.46,2.88
			c-9.68-0.18-14.86-6.38-12.44-15.74c0.81-3.16,2.39-6.17,3.94-9.07c4.08-7.64,9.25-14.59,14.27-21.62
			c1.52-2.13,3.63-3.93,4.21-6.66c-4.09-2.66-4.09-2.66-11.63-3.69c-1.35-1.37,2.06-4.1-1.42-4.87c-2.26,0.43-0.74,2.96-2.41,4.1
			c-0.61,0.14-1.58,0.61-2.5,0.52c-17.83-1.65-35.69-3.06-53.45-5.28c-4.59-0.57-9.01-0.82-13.58-0.67
			c-9.97,0.34-19.84-1.3-29.82-1.54c-12.33-0.3-24.57-0.72-36.8,1.1c-0.94,0.14-1.94-0.07-3.56-0.15
			c-0.29-6.73,3.31-11.75,5.91-16.45c2.62-1.95,4.2,0.99,6.13,0.06c1.16-0.56,2.32-1.11,3.39-1.63c2.51,2.03,4.78,3.88,6.85,5.56
			c5.11-1.91,6.57-7.26,11.03-9.18c4.8,1.96,6.78,7.05,11.35,10.68c4.67-10.32,6.55-21.24,13.99-29.67
			c-3.23-2.42-5.95-2.15-8.34-1.62c-16.71,3.75-33.68,3.84-50.66,3.74c-15.97-0.09-31.73,2.06-47.58,3.61
			c-17.11,1.67-34.11,4.19-51.28,5.54c-21.96,1.72-43.75-0.55-65.62-0.37c-13.56,0.11-27.1,0.12-40.58,1.79
			C643.48,244.66,635,245.77,626.52,246.86z"/>
		<path class="st0" d="M1819.77,2566.48c3.53-2.44,7.06-3.3,10.65-3.19c29.23,0.91,58.32-3.39,87.55-2.24
			c5.87,0.23,11.74,0.4,17.71,0.61c-4.16,19.13,2.36,34.57,14.28,47.95c18.51,20.75,42.44,31.41,69.55,35.6
			c2.3,0.36,4.6,0.74,6.88,1.23c0.59,0.12,1.09,0.66,1.88,1.17c-1.79,2.15-4.4,2.53-6.74,3.29c-15.84,5.15-31.06,11.77-45.98,19.14
			c-3.28,1.62-6.52,3.34-9.88,4.78c-8.01,3.43-15.02,1.27-20.1-6.53c-1.66-2.55-3.61-3.95-6.4-3.93c-3.58,0.03-6.16-1.73-8.99-3.61
			c-15.8-10.49-30.59-22.27-45.31-34.18c-19.9-16.1-38.39-33.75-57.2-51.06C1824.82,2572.87,1821.61,2570.5,1819.77,2566.48z"/>
		<path class="st0" d="M1616.44,2097.35c-7.6-3.8-15.3-7.4-22.75-11.47c-4.99-2.72-9.94-5.22-15.52-6.56
			c-4.83-1.16-9.29-3.12-13.55-6.02c-3.72-2.53-8.58-3.37-12.88-5.08c-2.47-0.98-4.83-2.2-7.26-3.28c-4.16-1.84-6.72-4.82-8.24-9.24
			c-8-23.2-16.25-46.31-24.4-69.46c-3.3-9.39-6.33-18.88-9.9-28.16c-3.89-10.11-4.51-20.78-5.42-31.28
			c-1.69-19.6-5.27-38.79-10.33-57.72c-4.83-18.04-6.7-36.45-8.44-56.3c10.09,5.17,18.07,11.14,24.86,18.75
			c1.13,1.27,1.49,2.87,1.72,4.58c2.05,15.82,6.5,31.07,10.49,46.48c6.6,25.47,15.78,49.94,25.95,74.11
			c5.14,12.23,10.29,24.45,15.35,36.71c6.24,15.11,14.98,28.89,22.62,43.26c8.59,16.14,18.72,31.33,28.87,46.49
			c2.94,4.4,6.31,8.52,9.48,12.76C1616.87,2096.4,1616.66,2096.88,1616.44,2097.35z"/>
		<path class="st0" d="M1050.56,181.24c-7.68,7.47-10.36,8.83-25.47,13.47c-2.91-2.19,0.2-6.87-4.15-8.94
			c-4.86,7.04-11.12,12.5-19.9,13.52c-3.94-2.34-3.74-6.68-6.08-9.42c-3.52-2.31-7.14,0.44-11.4-0.35
			c-0.81-5.58-5.07-8.34-10.65-10.34c-2.36,1.09-5.03,2.33-7.97,3.7c-1.16-3.3-2.23-6.32-3.52-10c-8.46,4.82-16.82,4.07-25.46,2.76
			c-4.83-0.73-9.93,0.66-14.89,0.49c-10.92-0.37-21.84-1.07-32.75-1.78c-1.97-0.13-3.8-0.52-5.86-0.02
			c-5.99,1.48-10.95-1.74-15.99-4.15c-2.35-1.13-2.99-3.51-2.61-5.99c0.2-1.29,0.66-2.59,1.23-3.78
			c3.59-7.47,7.23-14.92,10.88-22.36c1.63-3.32,3.71-6.29,6.84-8.55c10.7,6.47,19.68,15.66,31.7,20.48
			c2.35-2.48,1.66-3.97-0.98-5.31c-8.64-4.39-16.15-10.45-23.79-16.3c-1.94-1.48-4.42-3.47-1.3-7.26c2.6,2.41,5.14,4.79,7.71,7.14
			c2.46,2.24,4.82,4.61,7.45,6.62c2.88,2.19,6.02,4.04,9.55,6.37c2.35-5.7,2.87-11.18,3.32-16.78c-4.33-4.01-8.81,1.53-13.2-0.23
			c-3.24-2.89-3.2-7.02-3.97-10.9c-0.69-3.48-2.28-6.65-6.54-6c-3.48,0.53-5.39-2.05-8.41-3.13c-0.88-4.79-1.34-9.62,0.67-14.64
			c14.68-1.73,28.46-0.48,42,5.56c17.39,7.75,33.7,17.18,49.29,28.04c13.38,9.32,26.67,18.75,39.29,29.08
			c2.81,2.3,5.98,4.24,7.88,7.48c-0.77,5.42-7.07,4.31-9.55,8.28c1.71,3.18,4.03,5.69,7.85,7.24c3.58-3.16,0.5-8.83,4.95-11.84
			c4.45,2.04,6.8,6.68,10.37,9.92C1040.79,176.66,1045.15,178.85,1050.56,181.24z M930.08,157.45c6.86,4.42,14.48,5.22,21.69,6.98
			c5.19,1.27,5.82,0.28,5.48-7.02c-3.07,1.89-6.19,1.67-9.35,0.74c-4.41-1.3-8.85-2.5-13.26-3.81
			C932.73,153.77,931.52,154.41,930.08,157.45z M996.52,160.79c-0.44-5.02-0.86-9.92-1.35-15.58c-3.86,1.67-5.78,4.07-7.18,7.13
			c2.4,2.36,0.89,5.88,2.94,8.44C992.5,160.79,994.1,160.79,996.52,160.79z M941.62,106.78c-3.97,2.67-7.29,4.9-10.71,7.2
			c3.25,3.87,7.23,3.01,11.29,4.59C941.98,114.12,941.82,110.9,941.62,106.78z M965.44,132.68c0.53-2.51,3.11-4.16,1.32-6.67
			c-3.54,1.32-7.04,2.62-11.01,4.1C958.8,132.58,961.63,132.89,965.44,132.68z M937.98,151.85c2.04,1.19,3.65,2.42,5.32,0.24
			c-0.27-1.9-0.44-3.84-2.53-4.77C939.41,148.32,938.22,149.39,937.98,151.85z"/>
		<path class="st0" d="M2142.1,2788.55c1.45,5.46-2.11,7.88-4.56,10.79c-2.49,2.96-5.72,4.55-9.56,4.77
			c-2.99,0.17-5.93-0.15-8.92-0.67c-13.45-2.34-26.66-5.46-39.46-10.31c-3.7-1.4-7.76-1.82-11.61-2.86
			c-14.73-3.99-28.98-9.01-42.87-15.61c-15.56-7.4-31.32-14.44-46.82-22.03c-10.44-5.11-20.16-11.53-30.28-17.18
			c-14.23-7.95-27.82-16.77-41.03-26.21c-19.76-14.12-38.44-29.5-56.09-46.31c-29.15-27.77-55.97-57.66-82.58-87.76
			c-13.35-15.1-25.95-30.88-38.52-46.67c-12.17-15.28-23.75-31-35.66-46.47c-13.96-18.13-26.47-37.36-39.89-55.91
			c-9.75-13.49-18.56-27.6-26.95-41.92c-9.38-16.01-18.67-32.1-26.91-48.79c-8.97-18.16-17.83-36.35-25.92-54.91
			c-6.36-14.57-12.52-29.24-18.59-43.93c-6.32-15.31-12.72-30.59-18.52-46.1c-6.15-16.45-11.58-33.17-17.42-49.74
			c-2.85-8.11-5.83-16.17-8.87-24.21c-3.17-8.37-5.54-17-8.55-25.43c-2.32-6.5-1.17-13.81-0.24-20.76c2.96-0.2,3.15,1.84,3.66,3.71
			c2.26,8.31,4.35,16.67,6.94,24.88c4.09,12.96,8.27,25.9,12.86,38.69c8.42,23.42,16.83,46.84,25.87,70.02
			c7.71,19.78,16.47,39.16,24.44,58.84c8.11,20.04,17.45,39.52,27.21,58.75c7.8,15.37,16.12,30.49,24.67,45.5
			c13.17,23.11,27.8,45.23,42.95,67.01c13.06,18.77,26.43,37.35,40.25,55.57c12.82,16.91,26.21,33.41,39.72,49.78
			c23.89,28.93,49.23,56.56,75.41,83.42c24.19,24.81,49.31,48.62,77.44,68.98c20.97,15.17,42.59,29.32,65.52,41.51
			c24.66,13.1,50.2,24.24,75.64,35.6c6.02,2.69,12.48,4.72,18.95,6.04c11.76,2.4,22.94,6.7,34.51,9.7
			c8.36,2.17,16.8,3.89,25.22,5.67C2130.42,2795.42,2136.41,2792.65,2142.1,2788.55z"/>
		<path class="st0" d="M1043.36,1481.19c-21.05-11.07-40.82-22.07-64.66-21.59c-7,6.34-10.23,15.13-14.08,23.55
			c-1.51,3.32-3.14,6.61-4.31,10.04c-1.22,3.59-3.47,5.55-7.19,5.75c-3.59,0.2-5.36-2.26-6.72-5.04
			c-4.22-8.63-8.95-17.03-12.16-26.13c-0.77-2.17-1.28-4.48-3.37-6.27c-1.72,0.57-3.58,1.18-5.44,1.8
			c-0.18-0.61-0.58-1.21-0.49-1.73c0.65-3.58,1.19-7.2,2.18-10.69c0.89-3.16,0.33-5.83-1.32-8.53c-5.86-9.61-4.76-18.96,1.12-28.13
			c1.25-1.96,2.06-4.27,3.58-5.97c9.38-10.47,12.47-23.17,13.38-36.7c0.4-6.01,2-11.78,4.08-17.38c0.85-2.29,1.73-5.15,5.02-5.26
			c2.34,1.08,1.31,2.82,0.96,4.28c-2.73,11.46-2.19,23.11-2.32,34.74c-0.06,5.89,2.48,10.31,7.1,13.53
			c17.16,11.97,34.71,23.31,53.56,32.5c6.89,3.36,13.56,7.08,19.76,11.58c4.6,3.34,8.01,7.95,5.83,13.64
			c-2.54,6.62,0.28,11.56,3.13,16.78C1041.75,1477.29,1043.26,1478.21,1043.36,1481.19z"/>
		<path class="st0" d="M1165.38,2096.29c2.65-18.39,8.21-36.1,12.55-54.1c5.9-24.49,10.88-49.14,13.91-74.24
			c2.39-19.73,3.87-39.61,7.81-59.15c1.63-8.12,2.55-16.37,4.09-24.51c3.08-16.29,7.3-32.24,13.31-47.75
			c2.51-6.47,4.02-13.33,5.82-20.06c4.6-17.29,10.75-34.18,13.99-51.83c2.09-11.38,3.59-22.87,5.29-34.32
			c1.96-13.16,1.34-26.49,2.43-39.67c1.56-18.88,0.96-37.84,3.08-56.71c2.03-18.08,2.82-36.26,5.5-54.34
			c1.47-9.94,1.32-20.39,1.71-30.59c0.66-17.3-0.35-34.48-1.45-51.63c-0.92-14.3-1.47-28.59-0.88-42.84
			c0.58-13.89,0.81-27.84,2.93-41.67c0.95-6.21,0.72-12.6,1.29-18.88c2.14-23.95,9.31-46.81,15.35-69.9
			c3.87-14.82,6.36-29.84,7.89-45.04c1.36-13.54,2.37-27.12,3.73-40.66c0.53-5.28,1.32-10.56,2.44-15.74
			c3.76-17.48,7.66-34.92,11.64-52.35c1.26-5.5,3.15-10.86,4.39-16.36c3.58-15.87,4.26-32.13,6.31-48.21
			c1.42-11.13,4.17-22.09,6.33-33.13c0.89-4.55,2.78-9.18,2.41-13.62c-0.44-5.35,1.75-9.01,4.92-12.33
			c7.55-7.91,15.37-15.56,23.13-23.27c0.32-0.32,1.16-0.13,1.85-0.18c1.45,1.95-0.41,2.94-1.36,4c-5.09,5.7-10.28,11.32-15.43,16.97
			c-3.42,3.76-5.58,8.14-6.72,13.11c-1.63,7.12-3.44,14.14-4.23,21.48c-0.77,7.2-3.21,14.2-4.33,21.38
			c-1.44,9.17-2.03,18.46-3.47,27.63c-2.57,16.32-4.18,32.88-10.21,48.45c-1.74,4.49-1.04,9.19-2.29,13.7
			c-4.53,16.32-7.59,32.96-9.89,49.72c-1.44,10.49-2.64,21.04-3.32,31.61c-1.37,21.3-5.27,42.13-10.43,62.78
			c-3.21,12.88-6.82,25.68-9.38,38.69c-1.97,10.06-2.81,20.38-3.74,30.62c-1.29,14.22-2.17,28.48-2.94,42.74
			c-0.48,8.95-1.27,17.9-1,26.86c0.42,14.26,1.86,28.47,2.8,42.69c1.05,15.88,0.93,31.83-0.84,47.77
			c-1.68,15.06-3.62,30.09-4.89,45.22c-1,11.95-1.41,23.81-1.13,35.75c3.52,1.12,5.95-1.13,8.51-2.3c3.95-1.8,7.83-1.63,11.64-0.33
			c4.58,1.55,5.44,5.84,2.33,9.45c-2.62,3.05-5.85,4.23-9.77,3.8c-4.59-0.51-9.18-1-14.21-1.54c-0.38,6.67-1.29,12.98-0.98,19.22
			c0.76,15.32-0.69,30.52-1.49,45.76c-0.24,4.63-1.02,9.16-2.13,13.73c-2.73,11.18-4.82,22.5-6.66,33.89
			c-1.58,9.8-3.92,19.54-6.8,29.03c-2.71,8.92-5.32,17.83-6.82,27.03c-1.36,8.34-5.39,15.7-8.56,23.31
			c-6.58,15.77-9.41,32.44-12.99,48.94c-1.83,8.41-3.33,16.9-4.6,25.4c-2.01,13.47-3.73,26.98-5.53,40.48
			c-2.9,21.71-6.04,43.39-10.79,64.78c-2.15,9.7-5.6,19.1-8.1,28.73c-2.15,8.29-3.85,16.7-5.64,25.09
			c-1.3,6.09-1.69,12.49-6.55,17.2L1165.38,2096.29z"/>
		<path class="st0" d="M1277.59,3712.19c2.2,2.9,5.44,1.07,8.2,1.57c0.01,0-0.02,0.28-0.04,0.58c-6.93,0-13.87,0-22.91,0
			c4.56-0.38,7.02-0.58,9.53-0.79c0.46-1.13,1.2-2.05,1.11-2.88c-1.8-17.53-1.72-35.08-1.21-52.66c0.22-7.62-0.17-15.27-0.48-22.9
			c-0.42-10.09,1.18-19.81,4.46-29.33c2.16-6.25,3.88-12.66,6.16-18.87c4.7-12.76,15.21-15.77,27.2-15.04
			c1.31,0.08,2.6,0.55,3.91,0.78c12.39,2.23,16.87,6.25,18.09,18.59c1.53,15.55,1.83,31.16-2.85,46.4c-0.19,0.63-0.56,1.26-0.57,1.9
			c-0.14,10.53-4.95,17.24-15.15,20.81c-4.96,1.74-8.47,6.41-11.33,10.92c-8.16,12.87-16.1,25.88-24.08,38.87
			C1277.34,3710.63,1277.59,3711.43,1277.59,3712.19z"/>
		<path class="st0" d="M2069.63,2650.32c-0.55,7.71-0.97,14.51,0.34,21.4c1.93,10.1,7.38,16.46,16.7,20.59
			c11.1,4.92,22.3,6.06,34.03,3.47c1.25-0.28,2.58-0.24,3.87-0.27c0.29-0.01,0.58,0.3,0.95,0.51c-0.97,3.84-3.66,5.2-7.33,4.98
			c-2.65-0.15-5.28-0.63-7.93-0.75c-4.41-0.2-8.73,0.05-12.19,4.63c3.69,6.5-2.49,13.5,0.67,20.32c-2.64,3.21-4.86,6.11-7.28,8.83
			c-3.77,4.22-6.69,5.47-11.41,2.51c-8.98-5.62-19.36-6.66-28.88-10.32c-5.83-2.24-11.31-5.38-16.99-8.05
			c-8.98-4.22-17.58-9.26-27.04-12.49c-2.15-0.73-3.97-2.38-5.98-3.55c-5.74-3.32-9.77-9.57-17.53-9.57c-1.92,0-4.19-1.97-4.98-4.53
			c1.18-5.39,5.97-6.92,10.14-8.59c8.31-3.32,16.88-5.97,25.28-9.09c17.12-6.37,34.19-12.89,51.3-19.3
			C2066.27,2650.68,2067.31,2650.69,2069.63,2650.32z"/>
		<path class="st0" d="M169.86,2311.8c-1.07-1.76-2.02-2.79-2.36-3.99c-4.97-17.59-17.17-29.46-31.21-39.97
			c-3.36-2.52-7.56-4.35-9.04-8.59c0.22-2.64,2.05-3.47,3.81-4.48c8.66-4.96,17.45-9.56,27.11-12.33c15.42-4.42,30.7-4.33,45.9,0.99
			c8.74,3.06,15.75,8.53,21.56,15.58c6.14,7.43,12.15,14.97,18.11,22.54c3.42,4.34,8.32,7.46,11.25,13.34
			c-9.92-0.44-18.93,1.45-27.99,3.08c-2.7,0.49-5.06,1-7.07,3.07c-2.37,2.43-5.41,3.7-8.82,4.27
			C197.39,2307.62,183.47,2308.6,169.86,2311.8z"/>
		<path class="st0" d="M1410.11,3716.17c-0.7-0.9-1.4-1.38-1.43-1.9c-0.82-14.26-1.78-28.52-2.23-42.79
			c-0.16-4.91,0.59-9.94,1.56-14.79c3.19-15.92,6.56-31.81,10.1-47.66c1.3-5.84,3.62-11.35,6.75-16.54
			c8.76-14.53,26.72-11.75,34.98-5.63c3.07,2.27,4.62,5.77,5.53,9.15c1.36,5.08,2.59,10.27,2.74,15.64
			c0.37,12.98,0.34,25.94-2.74,38.64c-0.96,3.96-0.74,7.92-1.26,11.86c-1.17,8.9-4.02,11.53-12.79,12.02
			c-0.66,0.04-1.36,0.14-1.99,0c-9.62-2.21-14.95,3.61-19.32,10.65c-5.42,8.74-10.49,17.7-15.68,26.58
			C1413.34,3713.1,1412.78,3715.11,1410.11,3716.17z"/>
		<path class="st0" d="M675.7,2623.85c-1.1-14.13-3.79-27.53-6.35-40.86c-1.74-9.05-5.07-17.84-8.08-26.6
			c-2.88-8.37-3.51-16.66-2.04-25.45c3.39-20.31,7.02-40.55,12.71-60.37c0.37-1.29,0.67-2.57,2.09-3.52c2.61-1,4.91,0.24,7.08,1.88
			c15.85,12,31.92,23.71,44.87,39.09c2.73,3.24,6.51,5.6,8.28,9.97c-0.95,0.81-1.82,1.91-2.95,2.44
			c-15.53,7.34-25.04,20.42-33.06,34.81c-6.66,11.96-10.33,25.08-13.98,38.18C681.44,2603.57,678.56,2613.7,675.7,2623.85z"/>
		<path class="st0" d="M1042.81,3717.18c-3.62-3.55-3-7.76-3.04-11.51c-0.08-8.64-0.08-17.32,0.68-25.91
			c1.09-12.19,2.68-24.34,6.04-36.2c2.18-7.69,5.31-15.01,8.18-22.43c3.1-8.02,10.23-12.79,15.54-18.99
			c4.49-5.25,9.81-9.89,15.2-14.26c10.8-8.75,22.3-3.86,24.82,7.32c0.81,3.58,1.31,7.12,1.48,10.81c0.65,14.67-0.9,29.22-2.18,43.77
			c-1.18,13.46-5.87,17.83-19.53,19.11c-3.63,0.34-7.32,0.24-10.97,0.14c-3.19-0.08-6.01,0.69-7.95,3.28
			c-5.9,7.87-12.46,15-15.55,25.05C1053.36,3704.46,1049.45,3711.87,1042.81,3717.18z"/>
		<path class="st0" d="M927.6,1499.62c0.12-5.9,1.76-11.74-0.81-17.68c-1.25-2.89,0.73-5.71,3.3-7.74c2.61,0.24,2.75,2.6,3.3,4.19
			c3.3,9.59,9.35,17.53,15.11,25.64c1.34,1.88,3.13,3.41,5.25,4.01c4.87-0.65,6.95-4.19,8.91-7.64
			c5.42-9.53,10.69-19.16,16.17-29.03c2.08-1.54,4.76-1.24,7.4-0.91c21.69,2.74,40.71,11.72,57.78,25.07
			c4.86,3.8,8.39,8.23,6.05,15.34c-1.27,3.84,0.04,7.85,2.45,11.35c2.05,2.97,3.82,6.13,5.72,9.21c-2.93,2.48-4.61-0.24-6.28-1.17
			c-12.81-7.1-26.1-13.01-40.23-16.94c-3.2-0.89-6.45-1.73-9.73-2.2c-8.72-1.26-13.95,1.46-17.69,9.44
			c-2.39,5.11-4.19,10.49-6.46,15.66c-2.01,4.56-4.36,8.96-6.45,13.48c-1.86,4.02-5.49,5.71-9.28,6.94
			c-6.06,1.97-10.29-0.17-12.37-6.47c-2.29-6.93-3.86-14.11-6.19-21.03c-1.97-5.85-3.16-12.33-9.24-16.09
			c-5.7,1.05-8.39,4.39-9.44,9.96c-1.24,6.61-1.12,13.25-1.38,19.88c-0.17,4.3-0.03,8.62-0.62,12.94
			c-0.21-3.65-0.27-7.32-0.66-10.95c-1.59-14.74,1.98-29.02,3.86-43.44c0.1-0.79,1.18-1.46,1.81-2.18
			c1.28,3.15-1.02,6.73,1.14,11.02c1.96-5.96,3.69-10.71,2.68-16.18C928.77,1495.22,930.24,1498.84,927.6,1499.62z"/>
		<path class="st0" d="M743.2,117.61c-1.13,10.62-3.07,19.31-3.8,28.24c-0.79,9.54-3.84,18.76-8.59,27.31
			c-2.78,4.99-7.16,6.71-12.38,6.97c-8.34,0.43-16.43,2.33-24.62,3.75c-13.94,2.43-26.52,8.72-39.53,13.66
			c-9.33,3.54-14.12,3.85-14.3-8.85c-0.04-2.94-0.72-6.04-1.83-8.76c-3.14-7.66-3.3-15.42-2.04-23.45
			c0.97-6.12,3.88-11.81,2.38-19.15c19.16,3.42,36.74,5.26,54.7,1.82C711.17,135.71,726.58,126.88,743.2,117.61z"/>
		<path class="st0" d="M1118.71,3701.03c-2.12-6.1-0.79-11.38-0.29-16.55c2-20.77,3.95-41.52,11.25-61.4
			c6.49-17.67,16.53-32.38,32.09-43.15c5.68-3.93,11.77-5.97,18.77-4.94c7.29,1.08,11.74,5.14,11.67,12.38
			c-0.17,18.89,0.62,37.86-3.37,56.54c-1.46,6.84-4.13,9.77-11.17,10.63c-4.27,0.52-8.66,0.74-12.94,0.41
			c-5.44-0.42-9.68,1.57-13.57,4.99c-5.76,5.06-11.14,10.47-15.4,16.88c-3.49,5.25-6.69,10.69-10.12,15.99
			C1123.86,3695.53,1122.5,3698.61,1118.71,3701.03z"/>
		<path class="st0" d="M1068.49,1576.38c-11.3-5.86-22.2-10.61-33.79-13.62c-20.12-5.24-33.19,1.73-42.38,15.53
			c-2.45,3.69-3,8.04-4.07,12.2c-2.15,8.39-4.78,16.57-10.37,23.41c-1.23,1.5-2.85,2.68-4.53,4.24
			c-9.38-5.88-14.58-14.49-18.36-24.19c-1.81-4.63-3.09-9.45-5.78-13.76c-3.7-5.95-7.55-11.72-13.4-16.2c0-3.3-0.24-6.64,0.05-9.92
			c0.71-8.01,1.23-15.89-2.87-23.34c-1.38-2.51-0.99-5.18,2.09-7.19c3.68,4.82,4.74,10.74,6.72,16.2
			c1.81,4.99,3.48,10.01,5.93,14.75c1.69,3.28,3.63,6.36,6.47,8.78c4.2,3.58,7.1,3.78,11.66,0.52c6.93-4.97,11.32-12.16,15.77-19.15
			c4.81-7.55,8.96-15.52,13.27-23.09c2.68-1.81,5.42-1.61,7.96-0.92c17.46,4.73,33.89,11.75,48.58,22.49
			c2.16,1.58,4.23,3.16,4.85,6.04c1.44,6.63,5.29,12.14,8.65,17.85C1066.47,1569.57,1068.41,1571.93,1068.49,1576.38z"/>
		<path class="st0" d="M990.55,1674.93c-6.67-1.47-10.81-6-13.56-11.91c-3.79-8.11-7.66-16.22-10.85-24.58
			c-3.34-8.77-8.23-16.63-12.88-24.66c-2-3.46-4.16-6.82-8.83-7.44c0.37-8.69,2.96-16.78-0.15-24.95c5.5,4.93,7.2,11.48,9.76,17.48
			c3.44,8.04,8.41,15.09,13.75,21.8c6.18,7.75,10.31,7.2,14.6-1.6c3.64-7.45,6.64-15.21,9.87-22.86c1.94-4.59,3.61-9.29,5.67-13.83
			c3.44-7.58,8.95-11.89,17.78-12.04c7.42-0.12,14.6,0.45,21.49,3.17c7.11,2.8,14.19,5.69,21.15,8.84
			c6.2,2.8,11.36,6.69,13.26,13.84c1.03,3.89,3.8,6.93,6.11,10.18c2.08,2.93,4.96,5.47,5.46,9.81c-5.1,0.4-9.7-1.47-14.41-2.61
			c-12.57-3.05-24.73-7.65-37.57-9.7c-10.45-1.67-16.46,1.05-21.04,10.46c-2.75,5.66-4.77,11.61-5.81,17.88
			c-1.57,9.49-3.31,18.96-4.94,28.44C998.39,1666.51,995.22,1671,990.55,1674.93z"/>
		<path class="st0" d="M684.69,2368.01c18.95,6.22,37.05,12.15,56.16,18.42c-8.5,16.51-14.04,33.34-16.14,51.3
			c-2.09,17.91,3.6,34.73,6.76,53.52c-4.26-3.89-7.69-6.71-10.77-9.88c-10.92-11.24-22.53-21.63-36.31-29.26
			c-6.44-3.57-8.1-8.52-7.26-15.68c1.54-13.18,1.99-26.48,3.28-39.69C681.3,2387.59,680.87,2378.2,684.69,2368.01z"/>
		<path class="st0" d="M766.34,100.23c26.25,21.86,54.28,37.14,91.61,28.37c-10.63,11.69-15.09,24.58-20.08,37.23
			c-11.82,1.16-23.13,4.22-34.87,3.28c-1.62-0.13-3.36,0.11-4.92,0.59c-10.32,3.19-20.98,3.2-31.6,3.38
			c-8.03,0.13-12.67-3.99-12.64-11.99c0.03-7.56,0.49-15.24,1.92-22.64c2.33-12.01,5.59-23.83,8.51-35.72
			C764.42,102.18,765.05,101.76,766.34,100.23z"/>
		<path class="st0" d="M411.69,2287.45c-2.02,3.06-4.73,3.32-7.3,3.91c-1.93,0.44-4.35,0.43-5.66,1.61
			c-6.62,5.98-14.36,4.78-21.76,3.24c-10.37-2.16-20.54-5.3-30.79-8.05c-0.95-0.26-1.87-0.7-2.75-1.16
			c-3.49-1.8-4.17-3.52-2.72-7.26c2.5-6.48,4.87-13.02,7.69-19.36c2.15-4.85,2.11-8.87-2.3-12.36c-0.69-0.55-0.96-1.62-1.64-2.82
			c5.2-6.58,11.27-12.03,19.09-15.25c9.05-3.71,16.96-0.52,24.06,4.96c3.91,3.02,7.38,6.72,9.87,11.11
			C404.87,2259.1,409.21,2273.19,411.69,2287.45z"/>
		<path class="st0" d="M824.25,1552.33c-7.29-0.98-14.36-0.64-21.61,0.48c-9.73,1.5-18.61,4.81-26.8,9.93
			c-8.4,5.24-12.53,13.56-14.13,23.04c-0.93,5.52-1.24,11.18-1.41,16.79c-0.26,8.63-0.75,17.18-1.76,25.79
			c-1,8.51-0.57,17.25-1.63,25.83c-1.36,11.04-0.43,22.07,2.07,32.68c1.67,7.07,3.41,14.19,5.17,21.27
			c4.17,16.73,6.85,33.84,12.53,50.2c1.2,3.45,2.23,6.98,4.45,9.96c7.15,9.57,14.26,19.17,21.54,28.63
			c3.84,4.98,7.4,10.13,11.72,14.8c11.62,12.6,25.42,22.33,39.51,31.77c12.67,8.49,25.97,16.13,37.96,25.49
			c10.35,8.08,21.45,15.57,29.59,26.3c2.39,3.16,5.3,5.9,8.93,7.86c2.27,1.22,4.79,2.42,6.37,5.73c-4.18,2.39-8.23,1.83-11.63-0.91
			c-5.9-4.75-12.02-9.08-17.16-15c-6.42-7.39-14.27-13.74-22.25-19.51c-12.35-8.93-25.36-16.94-38.02-25.44
			c-14.92-10.02-29.09-21.02-42.03-33.51c-4.77-4.61-8.79-9.93-12.52-15.44c-7.28-10.76-13.24-22.14-17.37-34.52
			c-4.72-14.16-10.7-27.88-14.75-42.27c-7.52-26.72-12.2-53.61-5.78-81.36c1.04-4.48,0.8-9.26,1.06-13.91
			c0.66-11.59,1.44-23.18,1.84-34.78c0.24-7.03,1.72-13.79,2.91-20.66c1.8-10.37,9.47-15.83,17.65-18.52
			c9.2-3.02,18.83-6.32,29.2-5.04C813.59,1548.7,819.09,1549.32,824.25,1552.33z"/>
		<path class="st0" d="M479.72,2413.51c0.33-4.66,1.04-9.28,3.36-13.39c2.45-4.33,4.93-8.68,7.92-12.63
			c2.03-2.68,4.77-5.49,4.88-8.47c0.24-6.62,5.04-9.78,8.9-13.4c7.11-6.67,16.1-4.32,19.97,4.77c1.16,2.72,2.37,5.58,2.67,8.47
			c0.56,5.4,1.77,10.31,5.16,14.76c2.58,3.39,2.9,7.6,0.88,11.35c-3.56,6.6-4.49,13.81-5.72,20.99c-0.17,0.98-0.17,2.01-0.44,2.95
			c-1.37,4.73-4.2,6.82-8.91,5.65c-10.95-2.73-21.8-5.89-31.98-10.88C481.52,2421.29,479.77,2418.18,479.72,2413.51z"/>
		<path class="st0" d="M1731,1519.27c-28.67,15.23-47.63,37.1-55.65,69.33c-5.23-11.35-8.45-21.93-10.91-32.74
			c-1.07-4.72,0.34-8.99,3.2-13.09c10.27-14.69,20.25-29.58,30.34-44.4c2.99-4.39,5.94-8.81,8.96-13.18
			c1.47-2.13,2.41-4.83,5.89-5.57C1721.35,1491.4,1727.51,1504.3,1731,1519.27z"/>
		<path class="st0" d="M804.06,768.94c-7.01-4.54-12.61-10.37-17.29-17.35c-7.22-10.76-14.11-21.55-18.76-33.82
			c-3.93-10.37-6.37-21.09-7.36-31.85c-1.5-16.48-6.42-31.89-11.48-47.38c-5.58-17.08-14.44-32.43-23.37-47.96
			c-14.06-24.45-25.93-50.04-32.16-77.95c-4.91-21.98-10.3-43.86-16.51-65.54c-3.36-11.74-5.15-23.9-8.76-35.63
			c-4.71-15.31-11.42-29.67-19.87-43.22c-6.86-11-14.01-21.82-21.13-32.65c-0.97-1.48-1.59-2.86-1.34-4.6l-0.21,0.17
			c1.61-0.24,2.53,0.95,3.11,1.99c6.97,12.47,16.47,23.17,24.32,35.03c8.89,13.43,15.04,28.05,19.41,43.34
			c8.37,29.28,16.19,58.72,23.02,88.42c6.27,27.28,16.49,53.07,29.7,77.7c4.97,9.27,10.68,18.18,15.17,27.67
			c12.4,26.2,21.44,53.49,25.44,82.36c2.82,20.37,10.48,39.04,22,56.01c4.63,6.83,8.55,14.23,14.62,20.06
			c1.48,1.42,2.31,3.27,1.27,5.42L804.06,768.94z"/>
		<path class="st0" d="M1036.28,1434.98c-22.86-11.41-44.88-24.36-66.34-38.28c-0.28-0.18-0.55-0.42-0.86-0.5
			c-12.11-3.23-14.55-11.73-12.81-22.84c0.87-5.55,0.97-11.23,1.47-16.84c0.27-3.02,1.47-5.63,3.78-8.38
			c6.72,3.17,11.74,7.88,16.3,13.12c9.38,10.77,18.92,21.4,27.37,32.95c10,13.68,21.26,26.34,31.99,39.42
			c0.16,0.19,0.18,0.68,0.04,0.87C1037.05,1434.73,1036.65,1434.81,1036.28,1434.98z"/>
		<path class="st0" d="M1736.91,1493.4c-3.96-10.68-9.11-20.57-15.58-30.37c16.73-25.33,33.22-50.58,46.23-79.22
			c7.37,7.7,13.91,14.31,15.31,24.75C1760.41,1432.53,1743.37,1459.8,1736.91,1493.4z"/>
		<path class="st0" d="M1401.51,3725.68c3.53-1.53,6.32-0.12,9.11,0.17c20.59,2.19,41.04,2.07,61.32-2.82
			c4.53-1.09,9.03-1.45,9.83-7.49c0.15-1.12,2.37-2.19,4.12-2.13c1.82,0.38,0.29,2.47,1.63,3c0.67,0,1.51,0.27,1.93-0.04
			c18.13-13.01,27.68-30.68,28.91-52.96c0.41-7.5,1.23-14.98,2-24.13c4.53,5.22,9.76,7.6,12.54,12.6c2.4,4.32,5.56,7.29,11.32,6.7
			c-0.55,10.61-2.18,20.3-5.39,29.75c-2.15,6.32-6.04,10.96-12.17,13.69c-2.12,0.94-4.12,2.32-6.33,2.87
			c-7.3,1.8-13.11,5.34-18.18,11.18c-4.78,5.51-11.73,8.64-18.79,10.75c-14.42,4.29-29.12,5.45-44.19,4.6
			c-11.64-0.66-23.17-1.44-34.46-4.44C1403.81,3726.76,1402.98,3726.29,1401.51,3725.68z"/>
		<path class="st0" d="M1651.53,1568.62c5.25,4.87,5.53,12.28,8.54,18.36c2.97,6,4.71,12.26,5.29,19.84
			c-25.44,11.03-49.54,24.65-65.27,49.5c-5.32-9.53-5.38-9.89-1.02-16.08c15.31-21.75,30.61-43.5,46.03-65.17
			C1646.77,1572.73,1647.65,1569.47,1651.53,1568.62z"/>
		<path class="st0" d="M1179.81,739.2c17.99-28.51,27.93-57.93,27.74-90.31c-0.04-7.24,0.89-14.6,0.1-21.64
			c-1.14-10.2-1.28-20.48-2.7-30.59c-0.84-5.98,0.2-11.69,0.39-17.47c0.55-16.53,1.87-33.03,2.95-49.54
			c1.39-21.18,5.15-42.03,10.56-62.47c4.91-18.54,10.85-36.87,21.49-53.18c0.53-0.81,1.3-1.45,1.88-2.09
			c2.15-0.11,2.83,1.45,4.22,3.38c-9.6,9.8-12.83,23.23-17.1,35.71c-3.92,11.48-7.82,23.2-10.6,35.04
			c-2.48,10.56-2.24,21.71-3.24,32.59c-1.42,15.56-0.38,31.16-1.83,46.69c-1.29,13.85-2.8,27.69-3.58,41.58
			c-0.76,13.58-0.51,27.14,0.91,40.75c0.85,8.13-0.37,16.58-1.41,24.79c-2.68,21.03-10.73,40.21-21.03,58.56
			C1186.79,734.19,1184.91,737.18,1179.81,739.2z"/>
		<path class="st0" d="M556.48,277.9c-1.96-3.18-3.63-5.62-5.02-8.2c-1.69-3.13-1.63-6.39,0.15-9.5
			c6.1-10.67,13.48-20.42,20.9-30.19c10.06-13.23,22.01-24.76,32.47-37.59c3.32-4.08,5.83-8.82,8.76-13.22
			c0.85-1.27,1.17-3.21,3.35-3.08c1.7,1.15,1.18,2.93,1.2,4.44c0.07,8.31-0.17,16.63,0.11,24.93c0.18,5.31-1.82,8.78-6.54,11.15
			c-7.42,3.72-14.68,7.72-21.49,12.53c-11.06,7.82-20.03,17.42-25.74,29.78c-1.93,4.19-3.35,8.64-4.74,13.05
			C559.28,273.94,558.88,275.85,556.48,277.9z"/>
		<path class="st0" d="M1662.52,2157.81c0.44,4.99,1.07,8.89,1.09,12.8c0.17,23.2,5.37,45.31,13.5,66.93
			c12.29,32.65,29.66,62.31,51.71,89.23c11.37,13.88,24.14,26.52,37.01,39.04c-1.85,1.74-2.8-0.12-4-0.97
			c-19.46-13.82-34.77-31.63-48.71-50.74c-5.27-7.22-10.74-14.35-15.33-21.99c-5.97-9.93-11.42-20.21-16.63-30.56
			c-9.59-19.04-16.33-39.11-19.96-60.11c-1.92-11.1-3.3-22.35-2.77-33.68C1658.59,2164.64,1657.66,2161.01,1662.52,2157.81z"/>
		<path class="st0" d="M1913.11,2544.02c-10.9-0.61-21.22-4.24-30.64-9.49c-24.5-13.66-46.85-30.26-64.94-51.99
			c-14.24-17.1-22.19-36.86-23.7-59.07c-0.29-4.27,0.3-8.63,0.73-12.92c0.2-2.04,1.14-3.85,3.79-3.58c2.4,1.04,1.97,3.25,1.93,5.1
			c-0.77,31.25,13.16,56.02,33.51,78.38c21.01,23.08,46.84,38.82,74.87,51.54C1910.14,2542.67,1911.62,2543.35,1913.11,2544.02z"/>
		<path class="st0" d="M1221.15,373.47c11.17-4.25,21.78-6.19,32.94-6.5c3.49,6.38,2.63,13.2,3.53,19.56
			c0.88,6.21,1.34,12.41,2.74,18.6c1.44,6.37,1.44,13.06,2.06,19.56c-0.98,0.33-1.89,0.8-1.99,0.65
			C1247.44,408.29,1234.53,391.18,1221.15,373.47z"/>
		<path class="st0" d="M1529.42,811.86c-1.82,1.3-2.91,0.15-3.99-0.42c-12.58-6.55-25-13.05-34.88-23.89
			c-12.82-14.06-28.64-24.49-45.3-33.64c-11.25-6.18-23.63-8.48-35.97-10.81c-12.04-2.28-24.17-4.23-36.33-5.77
			c-11.15-1.42-22.38-2.12-33.58-3.09c-15.26-1.32-30.55-1.57-45.85-1.13c-6.96,0.2-13.9,1-20.85,1.52
			c-2.62,0.2-5.25,0.86-8.01-0.17c1.04-2.39,3.16-1.39,4.61-1.31c5.36,0.31,10.38-1.75,15.59-2c13.22-0.64,26.41-2.85,39.71-1.05
			c2.26,0.3,4.63-0.17,6.94-0.36c1.65-0.14,3.51-1.01,4.9-0.51c7.07,2.54,14.47,1.51,21.67,2.4c16.75,2.07,33.48,4.16,50.11,7.16
			c20.1,3.62,39.39,9,56.02,21.66c10.54,8.03,21.47,15.41,31.03,24.83c8.2,8.08,18.25,14.28,27.46,21.32
			C1524.92,808.28,1527.11,810.05,1529.42,811.86z"/>
		<path class="st0" d="M1444.06,476.69c-17.21-6.02-33.52-10.71-48.57-18.39c-7.66-3.91-15.42-7.26-23.55-9.98
			c-22.19-7.42-44.66-12.95-68.33-12.19c-7.97,0.26-15.81,1.5-23.78,2.22c6.01-4.15,12.72-6.23,19.75-7.68
			c12.64-2.59,25.09-0.73,37.51,1.38c20.71,3.52,40.32,10.31,59.59,18.76c14.01,6.15,27.8,12.55,41.17,19.94
			C1440.27,472.09,1442.26,473.54,1444.06,476.69z"/>
		<path class="st0" d="M689.55,2297.33c2.74,8.2,6.14,15.73,9.07,23.44c2.98,7.87,8.32,14.31,12.83,21.26
			c4.44,6.85,10.67,12.5,14.15,20.27c-4.48,2-7.48-1.18-10.78-2.12c-5.37-1.53-10.28-4.47-15.92-5.47c-2.2-0.39-4.28-1.8-6.25-3.01
			c-2.89-1.78-4.5-4.08-5.16-7.86C684.76,2328.18,686.07,2312.74,689.55,2297.33z"/>
		<path class="st0" d="M1456.33,242.24c3.88-0.51,7.19-3.87,11.87-3.23c10.61,1.45,21.32-0.02,32.02,3.34
			c15.64,4.9,28.81,12.9,40.43,24.26c14.2,13.88,27.61,28.49,41.21,42.95c7.48,7.96,15.32,15.59,22.46,23.88
			c3.81,4.43,7.42,8.99,9.85,14.58c-2.7,0.04-4.43-1.25-5.8-3.19c-11.93-16.84-27.07-30.79-41.5-45.31
			c-9.79-9.86-19.21-20.1-29.67-29.34c-12.68-11.21-26.67-19.62-43.38-22.59C1481.3,245.36,1468.8,242.76,1456.33,242.24z"/>
		<path class="st0" d="M1104.63,206.03c-5.57,6.58-13.77,7.36-21.35,10.04c-3.59-3.35-5.15-7.8-7.47-11.73
			c-1.97-3.33-4.51-4.4-8.35-3.38c-3.78,1.01-7.39,3.08-12.11,2.39c-2.32-7.06-4.23-14.19-0.58-21.61
			C1066.33,183.88,1097.34,198.98,1104.63,206.03z"/>
		<path class="st0" d="M2213.38,2788.71c-9.79-16.16-24.86-23.55-39.07-31.57c-18.72-10.57-36.73-22.08-53.79-35.12
			c-4.22-3.23-8.45-6.42-13.59-8.1c-2.77-0.91-4.61-2.5-4.18-5.72c1.81-1.88,3.74-1.21,5.47-0.18c5.13,3.04,10.52,5.79,15.21,9.43
			c15.23,11.81,31.85,21.51,47.94,32.01c6.59,4.3,13.56,8.04,20.4,11.95c7.33,4.19,13.12,10.03,18.19,16.68
			C2211.94,2780.67,2213.97,2783.28,2213.38,2788.71z"/>
		<path class="st0" d="M1030.73,740.22c-7.53-4.02-16.05-3.77-24.1-4.88c-18.4-2.53-36.92-3.13-55.57-1.44
			c-12.53,1.14-25.02,2.14-37.3,4.91c-21.81,4.9-42.73,11.95-61.03,25.32c-0.45,0.33-1.15,0.31-2.02,0.53
			c-0.44-2.05,1.45-2.56,2.35-3.5c1.13-1.18,2.52-2.14,3.89-3.05c11.93-7.97,24.72-14.16,38.42-18.42
			c15.25-4.73,30.87-7.25,46.78-8.8c26.89-2.61,55.14-0.36,78.67,4.46c3.46,0.71,8.24-0.05,9.84,4.88L1030.73,740.22z"/>
		<path class="st0" d="M2189.46,2738.96c-12-11.45-25.32-18.17-37.48-27.21c14.82,4.16,27.34-0.08,39.29-10.52
			C2193.74,2713.92,2191.37,2725.34,2189.46,2738.96z"/>
		<path class="st0" d="M2031.49,2641.52c-23.76-1.43-45.44-9.22-64.49-23.16c-10.66-7.81-19.87-17.57-23.82-30.99
			c-2.02-6.84-2.1-12.95,0.19-20.18c3.19-0.7,4.12,1.13,4.23,3.83c0.21,4.95,0.18,9.81,1.61,14.74
			c4.66,16.03,15.86,26.51,29.18,35.08c15.52,9.98,32.47,16.34,50.92,18.38c1.46,0.16,2.43,0.79,1.97,2.5L2031.49,2641.52z"/>
		<path class="st0" d="M2134,2685.06c-16.2,9.09-32.47,9.78-48.63,0.35c-1.42-0.83-2.87-1.79-3.9-3.03
			c-6.38-7.65-7.72-16.77-6.65-26.22c0.33-2.89,1.29-6.99,6.24-5.79c2.48,2.99,0.75,6.47,1.01,9.67
			c1.11,13.41,6.39,20.67,18.92,25.21c9.05,3.27,18.22,3.02,27.46,1.22C2130.33,2686.1,2132.16,2685.53,2134,2685.06z"/>
		<path class="st0" d="M1030.67,740.25c1.57-0.48,3.29-1.64,4.68-1.32c9.64,2.17,18.33,5.98,23.47,15.2
			c2.22,3.98,4.51,7.92,6.47,11.35c3.42,0.78,4.6-0.89,5.28-2.82c0.77-2.17,1.47-4.45,1.66-6.73c0.44-5.36,3.62-8.34,8.2-10.3
			c2.74-1.17,5.46-2.38,8.22-3.5c7.21-2.92,10.9-8.38,11.48-16c0.58-7.62,0.52-15.22-1.26-22.74c-0.37-1.57-0.23-3.27-0.34-5.36
			c3.74,6.59,3.36,13.68,4.88,20.32c1.37,5.98-0.9,11.84-2.2,17.62c-0.57,2.53-2.77,4.42-5.3,5.66c-3.56,1.76-6.89,4.07-10.57,5.47
			c-5.94,2.26-8.9,6.49-10.11,12.47c-0.85,4.21-1.98,8.36-3.07,12.52c-0.57,2.17-2.08,3.26-4.7,3.39c-2.68-2.29-4.36-5.36-5.99-8.65
			c-2.05-4.14-4.73-7.97-7.12-11.94c-5.38-8.91-13.71-13.06-23.62-14.69L1030.67,740.25z"/>
		<path class="st0" d="M647.37,131.28c19.2,1.56,38.11,0.83,56.53-5.52c18.3-6.3,33.14-17.71,47.49-31.64
			C743.93,118.89,686.5,146.95,647.37,131.28z"/>
		<path class="st0" d="M1259.22,1736.58c1.76-4.94,4.95-6.71,8.18-8.4c2.63-1.38,5.31-2.66,7.95-4.01c0.59-0.3,1.11-0.75,1.73-0.97
			c5.89-2.14,11.08-0.51,15.79,3.14c1.45,1.12,1.77,2.97,0.97,4.52c-2.53,4.9-6.22,9.41-11.84,9.55
			C1274.53,1740.59,1266.81,1740.34,1259.22,1736.58z"/>
		<path class="st0" d="M1585.97,1661.44c1.86,5.73,5.07,10.45,3.78,16.17c-5.5,4.48-10.99,9.14-16.69,13.53
			c-5.34,4.11-8.83,10.11-14.54,13.94C1565.38,1689.04,1575.54,1675.25,1585.97,1661.44z"/>
		<path class="st0" d="M244.93,2390.7c-2.61-2.55-5.12-4.93-7.54-7.41c-5.79-5.92-11.79-11.66-17.25-17.87
			c-8.42-9.59-19.28-15.62-31.08-18.76c-13.96-3.71-28.52-6.81-42.78-0.08c-1.22,0.58-2.51,0.49-3.92-0.59
			c6.16-5.42,13.6-6.95,21.26-6.86c17.32,0.2,33.42,5.28,47.57,15.09c7.83,5.43,14.47,12.61,21.48,19.18
			c3.86,3.62,7.38,7.61,11.02,11.47C245.02,2386.29,246.58,2387.72,244.93,2390.7z"/>
		<path class="st0" d="M918.72,1406.08c2.5-10.71,4.32-21.63,10.92-31.17c3.6-5.21,5.52-11.58,8.19-17.42
			c2.88,1.18,2.19,2.94,1.95,4.4c-1.03,6.16-2.58,12.27-3.14,18.47c-0.48,5.39-2.82,9.51-6.6,12.88
			C925.79,1397.02,922.38,1401.41,918.72,1406.08z"/>
		<path class="st0" d="M737.28,2522.9c0.04,3.98-1.61,5.04-3.38,6.01c-14.65,8-23.82,20.85-30.87,35.43
			c-4.17,8.63-7.93,17.46-11.99,26.46c-2.71-3.49,0.42-5.84,1-8.46c2.52-11.46,7.6-21.95,13.53-31.92
			C712.84,2538.2,723.21,2529.23,737.28,2522.9z"/>
		<path class="st0" d="M1324.27,1802.84c-2.88,6.36-7.25,9.71-13.81,10.22c-2.3,0.18-4.59,0.63-6.89,0.89
			c-3.96,0.44-3.96,0.41-10.72-2.65c4.6-6.16,11.19-9.39,17.73-11.85C1314.64,1797.91,1319.87,1798.22,1324.27,1802.84z"/>
		<path class="st0" d="M731.74,313.49c3.85-2.15,7.88-0.93,11.72-0.28c25.89,4.36,52.06,4.94,78.2,5.77
			c4.92,0.16,9.83-0.04,14.79-1.27c4.57-1.14,9.52-0.74,14.33-0.41c-6.3,4.06-13.47,3.32-20.16,3.47
			c-32.18,0.7-64.29-0.49-96.1-6.05c-0.9-0.16-1.67-1.03-2.5-1.57L731.74,313.49z"/>
		<path class="st0" d="M604.22,2649.64c6.4-6.41,12.69-5.76,18.18-5.63c8.89,0.2,17.86,1.49,26.09,5.29
			c6.42,2.96,11.95,7.01,13.56,14.44c-1.74,1.75-3.3,1.21-4.74,0.31c-3.94-2.47-7.76-5.11-11.73-7.53
			C633.42,2649.13,620.81,2643.84,604.22,2649.64z"/>
		<path class="st0" d="M2164.85,2677.76c5.56,8.41,1.82,17.84,8.49,24.06c6.35,0.27,8.71-8.92,16.85-7.73
			c-5.26,9.97-14.15,11.81-23.08,13.94C2162.21,2698.79,2157.38,2689.85,2164.85,2677.76z"/>
		<path class="st0" d="M534.61,2594.75c4.42,6.48,9.59,12.04,16.27,16.4c6.87,4.49,12.93,3.96,19.19-0.76
			c6.06-4.57,12.21-9.01,18.15-13.39c1.45,0.93,1.63,1.95,0.84,2.66c-9.33,8.39-19.42,15.7-30.72,21.66
			C545.82,2616.3,537.33,2608.14,534.61,2594.75z"/>
		<path class="st0" d="M866.74,117.84c-10.35,11.19-45.68,11.18-65.31-2.21c10.72,2.14,21.3,5,32.32,5.5
			C844.69,121.62,855.3,119.15,866.74,117.84z"/>
		<path class="st0" d="M2158.77,2706.29c-6.45,0.38-13.18-1.2-21.82-5.2c4.96-6.66,11.28-11.57,18.66-17.52
			c0.27,5,0.22,8.77,0.74,12.46C2156.84,2699.48,2157.94,2702.85,2158.77,2706.29z"/>
		<path class="st0" d="M142.96,2454c-1.93,5.38-5.45,5.94-8.37,6.99c-11.5,4.15-22.85,8.14-35.51,8.53
			c-12.73,0.39-25.52,2.61-37.54,7.7c4.23-4.31,10.83-7.43,17.44-8c7.26-0.62,14.37-2.27,21.73-2.27c9.82,0,18.38-5.11,27.6-7.6
			C132.73,2458.16,136.96,2456.22,142.96,2454z"/>
		<path class="st0" d="M1440.41,907.5c-6.79,10.09-13.13,20.52-20.48,30.19c-8.35,10.99-15.43,22.94-24.9,33.07
			c-0.87,0.94-1.6,2.12-3.1,2.17l0.2,0.2c0.11-0.95-0.12-2.15,0.37-2.81c6.91-9.23,13.82-18.38,19.72-28.4
			c5.32-9.04,12.37-17.11,19.05-25.28c1.91-2.33,3-5.14,5.11-7.25c1.17-1.16,2.36-2.37,4.27-1.63L1440.41,907.5z"/>
		<path class="st0" d="M731.67,2464.46c-6.13-23.61,0.19-56.08,13.93-71.91c-4.36,11.61-9.89,22.77-12.06,35.17
			C731.4,2439.88,731.49,2452.05,731.67,2464.46z"/>
		<path class="st0" d="M1554.95,414.85c-5.88,7.25-13.47,9.46-20.59,11.33c-8.37,2.2-15.79,6-23.3,9.86
			c-4.04,2.08-7.9,4.52-13.06,7.5C1507.32,432.02,1525.32,423.06,1554.95,414.85z"/>
		<path class="st0" d="M1400.93,63.37c15.56-0.5,26.63,5.93,28.9,16.65c-2.56,1.7-5.57,1.53-7.22-0.56
			c-4.72-6.03-11.66-8.41-17.9-12C1403.33,66.66,1401.75,65.97,1400.93,63.37z"/>
		<path class="st0" d="M1774.37,1367.68c3.41-7.02,4.29-14.65,8.4-21.32c2.21,2.23,1.62,4.29,1.51,6.1
			c-0.54,8.76-0.53,17.54-1.71,26.82C1780,1375.67,1777.45,1372.05,1774.37,1367.68z"/>
		<path class="st0" d="M1524.09,1897.11c-6.75-19.38-13.66-38.69-14.23-59.45c4.68,9.4,4.85,19.93,7.48,29.85
			C1519.93,1877.29,1521.87,1887.24,1524.09,1897.11z"/>
		<path class="st0" d="M1385.35,53.7c-1.96,1.57-4.07,1.76-5.05,0.61c-4.3-5.05-10.47-6.68-15.99-9.55
			c-1.94-1.01-3.51-2.74-5.82-4.6c8.29-2.92,14.18,1.15,20.28,3.9C1382.65,45.8,1385.01,48.86,1385.35,53.7z"/>
		<path class="st0" d="M530.16,2482.93c2.37-0.36,4.56,0.25,6.75,1.12c4.94,1.96,9.79,2.81,15.36,1.94c8.81-1.37,11,1.4,10.97,12.22
			c-5.77-4.51-12.39-5.9-18.77-7.98c-5.13-1.67-10.35-3.24-14.13-7.49L530.16,2482.93z"/>
		<path class="st0" d="M1622.97,401.79c0.35-1.35,0.99-2.41,2.55-2.6c14.44-1.72,28.83-3.97,43.41-4.13c2.3-0.03,4.59,0,6.92,0.47
			c-7.58,3.66-15.75,4.28-23.82,4.51c-9.78,0.28-19.57,0.08-29.28,1.62L1622.97,401.79z"/>
		<path class="st0" d="M1598.07,2058.93c-1.9-0.18-2.83-1.64-3.67-3.01c-8.72-14.1-17-28.45-24.4-43.29
			c-0.65-1.3-1.93-2.8-0.94-4.62c2.1,0.69,2.56,2.63,3.48,4.24c7.59,13.23,15.27,26.41,22.75,39.7c1.22,2.17,3.75,4.06,2.61,7.16
			L1598.07,2058.93z"/>
		<path class="st0" d="M1545.53,3641.33c0.8,5.8-3.13,7.03-4.27,10.08c-10.57-8.13-17.08-15.43-20.97-23.98
			c3.87,1.68,5.67,4.21,7.99,6.1c2.54,2.06,5.69,3.37,7.68,6.13C1538.34,3642.97,1541.21,3644.49,1545.53,3641.33z"/>
		<path class="st0" d="M678.11,302.94c6.75-1.97,12.94,1.54,19.44,2.08c9.13,0.76,17.89,3.95,27.09,4.71
			c2.47,0.2,6.23-0.25,7.09,3.76l0.28-0.34c-17.68-1.72-35.06-5.27-52.39-9.05c-0.52-0.11-0.88-0.91-1.32-1.39L678.11,302.94z"/>
		<path class="st0" d="M1440.65,907.77c-1.15-2.5,0.11-4.5,1.47-6.37c8.65-11.97,18.52-22.63,32.96-30.33
			c-5.48,7.94-13.51,11.19-18.66,17.54c-5.2,6.41-10.67,12.6-16.01,18.89C1440.41,907.5,1440.65,907.77,1440.65,907.77z"/>
		<path class="st0" d="M1443.42,113.73c-2.14,1.51-4.57,1.83-5.2,0.71c-3.72-6.56-11.11-7.98-16.37-12.29
			c-0.46-0.38-0.66-1.1-1.4-2.4c6.04-0.93,11,1.58,15.52,4.02C1439.5,105.68,1443.54,108.22,1443.42,113.73z"/>
		<path class="st0" d="M678.31,302.71c-6.47,1.43-12.4-1.17-18.47-2.54c-9.99-2.24-19.93-4.73-29.89-7.11
			c-0.84-0.2-1.77-0.29-2.07-1.91c5.07-0.41,9.94,1.39,14.47,2.44c10.91,2.53,21.89,4.68,32.84,6.97c1.35,0.28,2.41,1.02,2.91,2.38
			L678.31,302.71z"/>
		<path class="st0" d="M1237.96,167.57c8.64,3.49,16.75,1.03,24.49-1.29c4.64-1.39,8.18-1.28,12.05,1.38
			C1254.85,173.04,1246,173.13,1237.96,167.57z"/>
		<path class="st0" d="M1366.22,1864.63c5.2-10.62,6.43-11.2,17.14-8.72C1380.82,1863.6,1376.31,1866.02,1366.22,1864.63z"/>
		<path class="st0" d="M1196.38,375.85c2.77-2.9,5.43-5.95,9.47-4.23c4.54,1.93,10.73,1.76,12.36,8.81
			C1210.01,382.92,1203.95,375.51,1196.38,375.85z"/>
		<path class="st0" d="M620.08,320.93c-5.81-3.73-7.3-10.73-11.74-15.5c-2.78-2.98-3.95-6.88-5.57-10.5
			c-0.72-1.59-0.42-3.26,2.19-4.49c0.48,2.38,0.5,4.89,1.53,6.89c1.34,2.62,3.55,4.77,5.24,7.23c1.5,2.19,2.96,4.43,4.15,6.79
			c1.59,3.14,5.03,5.55,4.02,9.76L620.08,320.93z"/>
		<path class="st0" d="M459.75,2465.02c-7.2-1.99-14.46-3.79-21.58-6.03c-4.24-1.34-4.14-1.65-8.02-9.08
			c4.25,1.34,5.54,5.3,8.63,6.61c3.6,1.53,7.14,3.48,10.91,4.26C453.23,2461.5,456.69,2462.24,459.75,2465.02z"/>
		<path class="st0" d="M1605.84,2071.13c1.06-0.29,1.92,0.1,2.51,0.94c5.09,7.22,10.16,14.45,15.17,21.72
			c0.26,0.37-0.11,1.18-0.29,2.59c-7.42-7.77-13.97-15.42-17.18-25.42L1605.84,2071.13z"/>
		<path class="st0" d="M326.64,2322.37c2.59,0.41,5.51,0.2,7.72,1.34c5.84,3.03,12.79,3.32,17.86,8.34
			c-7.9-2.5-15.81-4.95-23.66-7.57c-0.74-0.25-1.15-1.51-1.71-2.29C326.85,2322.2,326.64,2322.37,326.64,2322.37z"/>
		<path class="st0" d="M1165.11,766.04c-4.14,3.2-7.12,7.44-12.12,8.93c0.37-4.83,0.37-4.83,3.66-10.67
			C1159.32,765.02,1161.71,767.27,1165.11,766.04z"/>
		<path class="st0" d="M1376.12,993.1c-0.04-0.62-0.37-1.44-0.09-1.82c3.98-5.44,7.99-10.85,12.1-16.18
			c0.94-1.22,2.07-2.54,3.99-1.96l-0.2-0.2c-4.18,7.58-8.19,15.31-16,19.99L1376.12,993.1z"/>
		<path class="st0" d="M820.65,854.38c-5.33-3.62-11.96-5.11-17.94-11.56C811.65,844.64,816.81,848.52,820.65,854.38z"/>
		<path class="st0" d="M1381.01,3698.76c-6.58,3.36-13.58,3.54-20.61,3.47C1367.06,3699.85,1373.91,3698.4,1381.01,3698.76z"/>
		<path class="st0" d="M785.78,107.24c-10.76-7.06-13.51-9.68-16.06-16.37c6.67,5.54,12.2,10.02,16.58,15.79L785.78,107.24z"/>
		<path class="st0" d="M1469.8,468.78c-0.08-7.17,4.68-9.39,9.06-11.92c1.69,1.56,1.59,3.15,0.07,4.31
			C1476.1,463.33,1475.1,467.46,1469.8,468.78z"/>
		<path class="st0" d="M1492.1,3707.52c2.97-6.21,7.89-10.93,13.07-16.93c0.07,4.61-2.51,6.55-3.98,8.9
			c-2.07,3.31-4.79,6.21-7.24,9.28C1493.34,3708.35,1492.72,3707.94,1492.1,3707.52z"/>
		<path class="st0" d="M1165.19,2096.05c2.28,8.13-1.9,14.96-5.31,21.93c1.83-7.23,3.67-14.46,5.5-21.69L1165.19,2096.05z"/>
		<path class="st0" d="M1665.85,1616.39c-5.29,1.41-10.59,2.82-17.32,4.62c5.93-4.84,10.98-7.36,16.82-7.26
			C1665.52,1614.62,1665.68,1615.51,1665.85,1616.39z"/>
		<path class="st0" d="M702.99,2317.11c3.33,5.4,7.23,10.58,8.48,17C706.82,2329.35,704.18,2323.61,702.99,2317.11z"/>
		<path class="st0" d="M924.61,1617.95c-3.94-1.23-7.86-2.41-11.13-5.45C918.95,1611.22,918.95,1611.22,924.61,1617.95z"/>
		<path class="st0" d="M1559.47,1989.74c-3.22-4.4-5.89-9.05-6.59-14.58C1556.15,1979.54,1559.4,1983.92,1559.47,1989.74z"/>
		<path class="st0" d="M1193.98,747.48c-3.62,3.92-8.53,5.18-13.17,6.99C1184.24,750.16,1188.91,748.41,1193.98,747.48z"/>
		<path class="st0" d="M1587.16,408.15c3.14-3.04,6.95-3.02,12.28-3.33C1595.1,408.98,1591.08,408.46,1587.16,408.15z"/>
		<path class="st0" d="M2199.79,2710.47c-0.43-6.64,0.63-10.87,4.69-14.09C2204,2700.76,2203.65,2705.15,2199.79,2710.47z"/>
		<path class="st0" d="M836.06,775.72c2.54-4,6.53-6.22,11.36-7.49c-3.28,2.99-6.56,5.98-9.84,8.98
			C837.07,776.71,836.56,776.22,836.06,775.72z"/>
		<path class="st0" d="M511.97,2476.05c-4.77-0.16-8.88-1.96-13.55-4.47C504.45,2469.94,508.08,2473.6,511.97,2476.05z"/>
		<path class="st0" d="M2031.28,2641.71c5.82-2.64,11.57,0.34,17.36,0.08c-5.75,1.36-11.48,1.87-17.15-0.27L2031.28,2641.71z"/>
		<path class="st0" d="M600.04,186.45c2.01-2.82,4.2-5.91,7.26-10.2c0.24,6.09-3.12,8.54-5.8,11.34
			C601.03,188.07,600.59,187.84,600.04,186.45z"/>
		<path class="st0" d="M816.72,788.7c1.53-0.23,2.98-0.39,4.41-0.69c1.18-0.25,2.34-0.66,3.33-0.95c0.49,0.53,0.92,0.94,0.9,0.97
			c-1.45,1.65-2.93,3.28-4.16,4.63C818.19,792.62,817.53,790.79,816.72,788.7z"/>
		<path class="st0" d="M2101.35,2740.26c1.02-2.47,1.02-2.47,3.16-4.31c2.11,1.22,2.97,3.23,3.55,5.93
			C2105.33,2743.41,2103.33,2741.88,2101.35,2740.26z"/>
		<path class="st0" d="M1597.88,2059.12c5.18,4.01,6.64,6.22,7.96,12.02l0.21-0.18c-4.44-2.83-7.29-6.71-7.98-12.02L1597.88,2059.12
			z"/>
		<path class="st0" d="M1309.23,3711.44c-4.86,2.01-8.88,1.7-12.95,0.67C1300.23,3711,1304.18,3710.05,1309.23,3711.44z"/>
		<path class="st0" d="M803.88,769.14c5.58,0.06,5.6,5.07,6.99,9.05c-1.35-1.45-2.74-2.88-4.06-4.36c-1.26-1.42-3.1-2.55-2.75-4.89
			L803.88,769.14z"/>
		<path class="st0" d="M594.83,194.45c-0.55,3.84-3.02,5.95-6.31,8.58C588.57,197.98,592.74,196.82,594.83,194.45z"/>
		<path class="st0" d="M1118.84,80.55c-5.16-0.55-7.89-2.58-10.49-4.97C1111.49,76.68,1115.09,76.56,1118.84,80.55z"/>
		<path class="st0" d="M1375.93,992.91c-0.2,4.78-4.83,5.95-7.21,8.95c1.45-3.78,3.05-7.44,7.4-8.76L1375.93,992.91z"/>
		<path class="st0" d="M577.56,214.71c1.85-4.86,4.71-6.87,7.67-8.78C584.07,209.38,582.45,212.44,577.56,214.71z"/>
		<path class="st0" d="M786.3,106.66c3.62,0.67,6.25,3.11,9.45,5.09c-4.93-0.01-4.92-0.03-9.97-4.5L786.3,106.66z"/>
		<path class="st0" d="M326.85,2322.2c-3.81,1.54-7.63,0.82-11.45-0.2c3.76-1.73,7.5-0.92,11.24,0.38L326.85,2322.2z"/>
		<path class="st0" d="M626.04,330.99c-3.25-2.6-6.05-5.47-5.96-10.06l-0.19,0.18c3.87,2.63,5.11,4.73,5.94,10.05L626.04,330.99z"/>
		<path class="st0" d="M487.42,2470.3c2.07-1.76,4.19-1.07,6.64-1.03C491.87,2472.51,489.53,2470.13,487.42,2470.3z"/>
		<path class="st0" d="M2196.34,2724.39c2.54,2.6,0.96,4.51,1.3,6.75C2195.65,2728.95,2196.73,2727.06,2196.34,2724.39z"/>
		<path class="st0" d="M530.33,2482.74c-3.51,0.63-6.24-1.42-9.43-2.7c4.29-2.3,6.82,0.14,9.25,2.89L530.33,2482.74z"/>
		<path class="st0" d="M1622.75,401.67c-3.39,0.39-6.77,0.79-10.16,1.18c3.41-1.43,6.87-2.02,10.38-1.06L1622.75,401.67z"/>
		<path class="st0" d="M629.18,2551.12c0.97-4,2.61-5.62,6.14-6.63C634.94,2548.27,632.61,2549.38,629.18,2551.12z"/>
		<path class="st0" d="M1231.12,397.18c-1.81-2.32-3.15-4.04-4.61-5.91c2.21-1.33,2.86,0.39,3.63,1.38
			C1230.86,393.56,1231.93,394.43,1231.12,397.18z"/>
		<path class="st0" d="M575.86,218.17c-1.09,2.4-2.51,4.57-4.67,6.17c-0.96-0.66-1.07-1.61-0.48-2.4c1.17-1.57,2.5-3.03,3.8-4.5
			c0.12-0.13,0.54-0.17,0.7-0.06C575.47,217.54,575.63,217.87,575.86,218.17z"/>
	</g>
</g>
</svg>
