<?xml version="1.0" encoding="utf-8"?>
<!-- Generator: Adobe Illustrator 24.1.1, SVG Export Plug-In . SVG Version: 6.00 Build 0)  -->
<svg version="1.1" xmlns="http://www.w3.org/2000/svg" xmlns:xlink="http://www.w3.org/1999/xlink" x="0px" y="0px"
	 width="3267.09" height="1605.44" viewBox="0 0 3267.09 1605.44" style="enable-background:new 0 0 3267.09 1605.44;" xml:space="preserve">
<style type="text/css">
	.st0{fill:#191919;}
</style>
<g id="Layer_3_xA0_Image_1_">
</g>
<g id="Layer_1_xA0_Image_1_">
	<g>
		<path class="st0" d="M93,0c3.39,1.93,7.15,1.41,10.76,1.48c37.05,0.81,73.74,5.5,110.47,9.84c31.1,3.67,62.19,7.39,93.31,10.85
			c28.81,3.21,57.63,6.35,86.48,9.09c26.87,2.56,53.78,4.67,80.69,6.76c32.23,2.5,64.47,4.76,96.71,7.14
			c21.93,1.62,43.88,3.09,65.8,4.91c80.46,6.68,160.24,17.5,238.09,39.83c16.01,4.59,31.82,9.81,47.23,16.14
			c3.08,1.26,6.09,2.7,9.15,4.01c13.76,5.9,23.8,15.41,29.96,29.27c4.74,10.64,10.53,20.81,15.47,31.37
			c5.77,12.34,15.33,19.62,28.19,23.51c11.86,3.58,24.01,5.58,36.16,7.49c21.55,3.39,40.93,11.7,58.15,24.92
			c8.98,6.9,17.58,14.29,26.18,21.67c10.99,9.43,23.17,16.78,36.66,22c6.83,2.65,13.62,5.4,20.49,7.93
			c16.23,5.97,30.3,15.29,42.51,27.41c5.91,5.87,11.65,11.92,17.12,18.2c9.54,10.96,20.85,19.53,33.54,26.5
			c13.78,7.56,28.29,13.4,43.01,18.72c28.03,10.14,52.83,25.47,73.67,46.73c30.71,31.33,68.47,49.03,110.67,58.22
			c27.66,6.03,55.31,11.9,82.02,21.6c19.76,7.17,38.87,15.78,57.74,24.96c17.37,8.45,34.8,16.73,52.8,23.81
			c22.86,8.99,46.43,14.64,71.01,14.87c47.22,0.45,93.61,7.38,139.58,17.41c22.2,4.84,44.24,5.07,66.46,0.87
			c29.16-5.51,58.31-4.48,87.55-0.36c19.17,2.7,38.05,6.8,56.74,11.6c20.74,5.32,41.36,5.54,62.41,2.57
			c49.22-6.95,97.68-3.96,145.02,12.25c23.69,8.11,48.19,13.18,72.69,17.94c50.44,9.8,96.51,29.72,139.45,57.63
			c28.24,18.35,55.54,38.02,83.01,57.47c19.05,13.49,38.4,26.48,58.98,37.55c32.51,17.48,67.07,29.44,102.98,37.36
			c40.32,8.9,80.86,16.78,121.66,23.24c26.76,4.24,53.79,4.28,80.79,4.01c21.67-0.21,43.32-1.19,64.9-3.1
			c23.23-2.05,46.37-4.88,69.4-8.61c41.78-6.78,82.97-16.36,124.15-25.97c2.91-0.68,5.84-1.25,8.39-1.8c2.56,1.28,2.82,3.39,3,5.32
			c1.89,19.94,6.98,39.35,9.65,59.16c1.55,11.56,3.29,23.08,3.23,34.79c-0.12,21.33,0.34,42.68-0.38,63.99
			c-0.94,27.99-4.47,55.78-8.58,83.48c-10.66,71.85-31.66,140.92-55.98,209.11c-8.28,23.21-16.48,46.44-23.93,69.95
			c-10.69,33.74-9.89,67.62-2.68,101.72c1.58,7.48,4.39,14.62,7.66,21.12c-1.83,3.09-4.55,3.75-6.88,4.92
			c-46.69,23.54-93.54,46.8-141.91,66.73c-66.61,27.45-134.78,50.18-205.25,65.53c-32.65,7.12-65.89,9.71-99.24,10.71
			c-40.98,1.23-81.91,3.49-122.86,5.44c-66.59,3.18-133.21,6.01-199.89,2.6c-40.68-2.08-80.85-8.05-120.63-16.73
			c-32.57-7.1-64.59-16.15-95.9-27.63c-41.53-15.22-80.23-35.84-116.31-61.41c-9.79-6.94-19.76-13.62-29.37-20.8
			c-35.95-26.87-75.7-45.66-118.99-57.34c-17.35-4.68-34.46-10.24-51.63-15.58c-25.21-7.84-49.25-18.46-72.36-31.18
			c-13.13-7.23-26.29-14.42-39.29-21.88c-31.3-17.95-64.07-32.65-98.2-44.32c-23.62-8.08-47.02-16.83-71.08-23.61
			c-4.48-1.26-9.05-2.24-13.54-3.46c-15.62-4.25-30.27-1.65-44.46,5.72c-10.07,5.23-19.75,11.08-29.38,17.04
			c-5.66,3.5-11.39,6.92-17.25,10.08c-9.1,4.89-18.53,4.82-28,1.09c-5.91-2.33-11.47-5.41-16.64-9.07
			c-11.7-8.27-23.37-16.58-34.87-25.13c-42.24-31.44-84.26-63.17-128.9-91.22c-13.54-8.51-27.23-16.72-41.98-23.08
			c-16.33-7.04-32.75-8.37-49.6-2.25c-4.07,1.48-8.22,2.73-12.28,4.23c-6.56,2.41-13.07,4.97-19.63,7.4
			c-4.37,1.62-8.75,3.24-13.19,4.65c-9.96,3.16-19.13,1.63-27.16-5.21c-6.09-5.18-12.21-10.35-17.99-15.86
			c-22.77-21.7-47.47-40.85-74.41-57.09c-11.7-7.05-23.25-14.34-34.96-21.39c-24.58-14.81-48.11-31.11-70.71-48.8
			c-8.13-6.36-16.8-12.01-25.11-18.13c-9.56-7.03-20.18-9.93-31.97-9.02c-13.95,1.07-27.91,2.06-41.87,3
			c-5.65,0.38-11.31,0.7-16.97,0.81c-9.98,0.19-18.22-3.65-24.34-11.54c-3.87-4.99-7.83-10.01-10.99-15.46
			c-33.07-56.92-75.96-106.1-120.78-153.76c-6.38-6.79-13.24-13.15-20.13-19.44c-7.5-6.85-16.25-11.51-26.22-13.87
			c-13.61-3.22-27.14-6.76-40.77-9.88c-13.59-3.11-24.62-9.95-32.6-21.43c-22.28-32.07-48.9-60.75-72.22-91.98
			c-16.29-21.8-35.05-41.01-55.36-58.85c-32.8-28.82-65.81-57.4-98.58-86.26c-17.76-15.64-35.2-31.64-52.77-47.5
			c-26.33-23.76-49.78-50.12-70.63-78.78c-12.16-16.7-24.24-33.46-36.06-50.41c-2.62-3.76-5.63-6.31-9.78-8
			c-11.78-4.79-22.81-10.97-33.02-18.56c-11.5-8.55-20.83-18.94-24.94-32.9c-11.32-38.48-28.08-74.8-43.68-111.59
			c-8.72-20.56-15.95-41.64-21.25-63.41C0.06,79.85,5.49,48.3,24.53,18.5C31.63,7.38,40.74,2.4,53.26,1.99
			c4.33-0.14,8.66-0.39,12.99-0.61C68.57,1.27,70.94,1.37,73,0C79.67,0,86.33,0,93,0z"/>
	</g>
</g>
<g id="Layer_2_xA0_Image_1_">
	<g>
		<path d="M1970,577c-9.62,11.5-14.37,25.36-18.98,39.29c-4.41,13.34-9.6,26.32-16.86,38.44c-1.75,2.92-4.36,4.52-6.8,6.25
			c-24.49,17.37-51.08,31.09-78.15,43.82c-20.78,9.77-42.12,18.37-63.12,27.67c-17.75,7.86-35.47,15.79-53.03,24.05
			c-20.13,9.47-40.19,19.13-59.88,29.49c-13.87,7.3-27.63,14.83-41.24,22.6c-12.6,7.2-24.98,14.79-37.37,22.35
			c-16.85,10.27-33.64,20.64-50.43,31.01c-15.13,9.35-30.49,18.32-46.05,26.91c-10.44,5.77-21.1,11.17-31.79,16.49
			c-14.03,6.99-27.99,14.13-42.28,20.57c-20.66,9.31-41.31,18.63-62.08,27.7c-18.82,8.22-37.61,16.51-56.53,24.48
			c-13.79,5.81-27.8,11.17-41.53,17.1c-15.24,6.58-31.06,12.18-44.84,21.8c-5.24,3.66-10.19,8.01-11.66,14.49
			c-1.4,6.17-1.11,12.55,1.25,18.63c6.21,15.99,15.75,30.01,25.77,43.76c13.93,19.11,31.25,35.08,47.8,51.76
			c9.68,9.76,19.04,19.89,29.27,29.04c10.06,8.99,18.97,19.1,28.95,28.12c15.11,13.66,30.09,27.45,46.77,39.29
			c14.11,10.01,28.67,19.34,43.02,28.98c19.36,13.01,38.46,26.4,57.97,39.82c-2.91,3.2-6.66,4.37-10.66,5.09
			c-1.2,0.22-2.72-0.69-3.51,0.99c-0.67,0-1.33,0-2,0c-0.33-1.03-1.2-0.99-2.02-0.99c-12.6,0.02-22.28-6.53-31.5-14.06
			c-6.36-5.19-12.6-10.54-18.95-15.75c-4.55-3.73-9.52-7.02-13.74-11.09c-5.38-5.19-11.95-8.59-17.82-13.04
			c-8.34-6.33-16.68-12.67-24.76-19.34c-10.83-8.94-21.01-18.59-31.32-28.12c-8.25-7.63-16.1-15.72-24.74-22.91
			c-10.97-9.12-21.73-18.48-32.98-27.29c-13.02-10.19-26.6-19.65-39.24-30.27c-7.45-6.27-14.73-12.88-21.41-20.06
			c-6.01-6.46-12.64-12.31-18.75-18.69c-11.51-12.02-22.12-24.72-30.7-38.98c-4.09-6.79-7.45-14.09-8.07-22.23
			c-0.72-9.56,3.38-17.02,10.28-23.25c10.77-9.71,23.98-15.08,36.87-21.08c8.43-3.92,16.99-7.53,25.54-11.16
			c10.79-4.58,21.6-9.13,32.41-13.65c7.51-3.14,15.1-6.08,22.54-9.38c17-7.53,33.97-15.12,50.86-22.88
			c15.58-7.15,31.14-14.36,46.51-21.93c7.59-3.74,15.47-6.94,22.61-11.65c3.09-2.03,6.65-3.37,10-5.03
			c19.46-9.68,38.37-20.36,57.23-31.13c23.79-13.59,47.15-27.93,70.78-41.78c18.71-10.97,37.38-22,56.16-32.85
			c21.2-12.24,42.36-24.54,63.83-36.29c18.31-10.02,36.7-19.92,55.3-29.41c13.73-7.01,27.57-13.85,41.71-20.06
			c6.12-2.69,11.99-5.94,18.12-8.67c13.59-6.05,27.03-12.48,40.15-19.49c20.43-10.92,40.09-23.01,57.6-38.39
			c7.2-6.32,14.62-12.49,21.1-19.48c9.71-10.47,19.72-20.75,27.89-32.57c1.36-1.97,4.06-2.98,3.58-6.5
			c6.31,2.09,12.06,1.45,17.8,0.91c6.39-0.6,12.85-0.6,19.13-2.32c1.86-0.51,3.98-0.12,5.97-0.14C1970,576.33,1970,576.67,1970,577z
			"/>
		<path d="M0,79c2.13-3.49,1.28-7.56,1.79-11.29C3.55,55.09,7.05,43.2,12.95,31.89c4.48-8.59,9.1-17.05,15.34-24.51
			c1.44-1.72,2.72-3.93,5.6-3.34c0.41,1.39-0.61,2.08-1.37,2.95c-7.24,8.25-13.37,17.32-18.42,27C8.82,44.12,5.29,54.91,3.94,66.37
			c-1.54,13-1.54,25.88,0.88,38.8c0.49,2.59,1.17,5.34,0.89,8.1c-2.44-5.09-2.41-10.7-3.73-16.01c-1.26-5.04-0.89-10.16-0.99-15.26
			C0.97,81.2,1.02,80.33,0,80C0,79.67,0,79.33,0,79z"/>
		<path d="M1139.84,1179.38c-9.7,3.98-18.69,0.98-26-4.79c-5.63-4.45-11.69-8.84-16.27-14.57c-7.27-9.11-16.08-16.67-24.66-24.38
			c-8.92-8.01-16.74-17.13-25.85-24.84c-7.99-6.76-15.37-14.15-22.72-21.46c-7.78-7.73-15.47-15.73-22.22-24.54
			c-4.9-6.4-10.83-12-15.96-18.23c-6.79-8.24-14.04-16.08-20.69-24.45c-3.69-4.65-8.41-8.4-12.15-13.1
			c-1.97-2.47-3.83-5.1-5.11-7.77c-7.21-14.98-15.92-29.28-20.4-45.54c-2.51-9.11-4.5-18.25-3.7-27.65
			c0.8-9.46,3.63-18.38,8.09-26.93c7.21-13.82,17.43-25.14,28.76-35.42c12.98-11.77,27.39-21.71,42.51-30.63
			c9.45-5.57,19.18-10.56,29.07-15.26c11.48-5.46,23.21-10.32,35.08-14.88c13.52-5.2,26.93-10.69,40.43-15.95
			c16.37-6.38,32.82-12.57,49.18-19.01c10.6-4.17,21.16-8.49,31.62-13c14.37-6.21,28.7-12.51,42.91-19.07
			c13.33-6.15,26.5-12.66,39.72-19.07c21.14-10.25,42.2-20.65,63.39-30.79c15.76-7.54,31.58-14.96,47.53-22.09
			c16.36-7.31,32.79-14.45,49.29-21.45c26.72-11.34,54.03-20.95,81.69-29.63c19.24-6.04,38.67-11.54,57.72-18.14
			c11.66-4.04,23.26-8.4,34.57-13.53c13.59-6.17,26.53-13.31,38.68-21.94c9.56-6.79,18.57-14.22,26.58-22.79
			c2.6-2.78,4.53-3.79,8.77-1.89c10.78,4.85,22.06,8.59,33.07,12.75c0.24,0.81-0.04,1.35-0.52,1.87
			c-13.26,14.36-27.87,27.15-44.55,37.4c-15.33,9.43-31.53,17.27-47.59,25.36c-24.93,12.57-50.59,23.42-76.7,33.28
			c-22.83,8.63-45.59,17.47-68.38,26.2c-19.91,7.62-39.78,15.35-59.76,22.78c-15.87,5.91-31.4,12.64-47.16,18.83
			c-8.19,3.21-16.21,6.87-24.22,10.51c-19.62,8.89-39.26,17.73-58.75,26.89c-9.31,4.38-18.62,8.72-28,12.95
			c-18.27,8.24-36.72,16.05-55.33,23.51c-18.43,7.39-36.92,14.62-55.37,21.94c-13.62,5.4-27.27,10.72-40.81,16.3
			c-7.39,3.04-14.62,6.48-21.86,9.87c-24.28,11.34-47.54,24.48-69.48,39.89c-11.79,8.28-23.25,16.98-34.23,26.34
			c-4.68,3.99-8.98,8.33-13.4,12.57c-6.79,6.52-11.4,14.35-13.31,23.55c-1.4,6.78,0.25,13.38,2.31,19.85
			c3.31,10.35,8.67,19.71,14.14,28.99c8.8,14.94,19.14,28.85,29.73,42.52c6.42,8.3,13.11,16.42,20,24.37
			c7.3,8.42,13.85,17.48,21.17,25.88c5.31,6.09,10.48,12.3,15.93,18.28c5.25,5.77,10.36,11.69,16.17,16.85
			c8.39,7.43,16.53,15.12,25.03,22.44c14.58,12.54,28.74,25.58,41.83,39.72C1139.83,1178.51,1139.77,1178.93,1139.84,1179.38z"/>
		<path d="M1408.9,430.86c13.88,9.91,28.28,18.8,44.25,25.52c-1.38,3.23-3.92,5.22-6.24,7.1c-10.56,8.51-21.25,16.87-33.58,22.8
			c-10.63,5.11-21.85,8.34-33.36,10.77c-11.68,2.46-23.5,4.08-35.28,5.74c-20.42,2.87-40.41,7.41-60.02,13.53
			c-10.53,3.29-20.95,7.18-31.02,11.8c-18,8.27-35.7,17.15-53.27,26.27c-16.26,8.43-32.49,16.94-48.71,25.43
			c-19.8,10.37-40.13,19.55-60.52,28.67c-18.89,8.45-38.11,16.11-57.23,23.98c-17,7-34.36,13.12-51.48,19.83
			c-18.64,7.3-37.38,14.33-56.23,21.06c-31.42,11.23-63.18,21.49-94.86,31.95c-27.97,9.23-55.99,18.32-83.88,27.79
			c-12.01,4.08-23.98,8.35-35.59,13.52c-5.09,2.27-9.79,5.18-14.21,9.15c2.66,4.52,5.44,8.75,7.71,13.23
			c3.39,6.7,6.53,13.52,9.58,20.38c7.94,17.86,14.11,36.42,21.39,54.54c5.21,12.98,9.79,26.22,14.62,39.35
			c8.14,22.15,15.78,44.48,23.21,66.88c4.15,12.51,9.34,24.71,15.29,36.48c2.62,5.18,5.37,10.39,8.45,15.37
			c0.97,1.57,2.47,3.18,1.84,5.63c-7.1-0.69-14.25-1.31-19.71-6.65c-6.54-6.39-13.18-12.86-15.03-22.36
			c-3.33-17.03-10-32.95-16.16-49.03c-5.13-13.37-10.16-26.81-16.08-39.83c-6.61-14.58-13.3-29.16-21.39-43.03
			c-4.36-7.47-8.17-15.26-12.43-22.79c-5.62-9.94-11.63-19.67-17.12-29.68c-8.4-15.33-16.27-31.01-19.56-48.33
			c-1.12-5.9-1.56-12.48,2.69-18.08c2.39-3.16,5.52-5.18,8.91-6.77c12.12-5.67,24.95-9.47,37.56-13.81
			c22.77-7.84,45.6-15.5,68.37-23.31c14.32-4.91,28.64-9.8,42.85-15.01c24.3-8.9,48.72-17.44,72.92-26.6
			c24.66-9.33,49.18-18.99,73.75-28.55c15.93-6.2,31.55-13.2,47.36-19.71c18.22-7.5,36.54-14.72,54.72-22.31
			c11.13-4.64,22.05-9.81,33.12-14.61c21.57-9.35,42.79-19.44,64.08-29.39c13.29-6.21,26.53-12.49,39.88-18.57
			c18.09-8.24,36.46-15.86,55.49-21.61c21.66-6.54,43.64-11.87,65.74-16.77c15.1-3.35,30.05-7.7,43.74-15.12
			c10.19-5.52,20.07-11.64,28.85-19.37C1404.39,434.52,1406.55,432.71,1408.9,430.86z"/>
		<path d="M435.21,599.98c5.03,12.66,11.4,23.84,18.76,34.47c1.35,1.95,1.69,4.21,2.38,6.35c5.4,16.98,14.16,32.17,24.49,46.55
			c7.35,10.24,15.18,20.1,22.96,30.02c11.61,14.8,23.25,29.57,34.27,44.82c3.54,4.9,7.68,9.37,10.01,15.08
			c0.43,1.05,1.32,1.94,0.43,3.59c-6.43-1.36-11.84-4.9-16.44-9.41c-7.46-7.32-13.63-15.69-19.19-24.58
			c-5.79-9.26-13.46-17.15-20.21-25.71c-6.91-8.77-13.94-17.52-21.3-25.86c-8.07-9.14-14.76-19.3-22.82-28.42
			c-4.95-5.61-8.45-12.38-12.54-18.67c-13.57-20.92-22.49-43.6-27.22-68.11c-1.89-9.78-3.31-19.42-2.55-30
			c4.36,0.15,8.7-0.78,13.08,0.6c2.04,0.65,3.54,0.38,4.83-1.93c4.36-7.79,11.29-12.99,18.9-17.27
			c12.59-7.09,26.28-11.47,40.09-15.37c13.46-3.8,27.08-7.07,40.64-10.49c16.88-4.26,33.82-8.26,50.65-12.7
			c13.68-3.61,27.17-7.93,40.85-11.53c21.88-5.76,43.45-12.63,64.9-19.71c24.24-8,48.45-16.2,72.31-25.36
			c17.92-6.88,36.24-12.69,54.22-19.41c24.26-9.07,48.89-17.01,73.52-24.97c19.65-6.35,39.24-12.93,59.11-18.51
			c28.19-7.91,56.19-16.47,84.59-23.67c10.38-2.63,20.67-5.87,31.05-8.52c15.13-3.86,30.21-7.89,45.21-12.24
			c16.14-4.68,31.95-10.24,46.92-18.02c8.32-4.32,15.79-9.88,23.03-15.73c6-4.85,12.52-8.89,18.84-13.25c1.66-1.14,3.16-0.98,5-0.07
			c9.26,4.55,17.32,10.77,24.99,17.54c2.39,2.11,4.7,4.3,7.07,6.46c-1.81,3.6-5.59,4.12-8.44,5.87
			c-12.93,7.98-25.86,15.99-39.77,22.17c-18.17,8.08-36.95,14.43-55.97,20.27c-10.86,3.33-21.65,7.12-32.53,10.4
			c-22.14,6.68-44.06,13.98-65.93,21.43c-27.57,9.38-55.04,19.1-82.41,29.05c-15.76,5.73-31.55,11.33-47.38,16.85
			c-21.2,7.4-42.38,14.87-63.62,22.17c-21.69,7.46-43.22,15.43-64.87,23.02c-18.28,6.41-36.65,12.49-55.13,18.25
			c-24.69,7.69-49.49,15.03-74.34,22.21c-26.09,7.54-52.22,14.97-78.18,22.98c-18.51,5.71-37.02,11.5-54.91,18.8
			c-18.29,7.46-35.87,16.53-51.61,28.87C445.84,592.3,440.8,596.47,435.21,599.98z"/>
		<path d="M965.89,149.73c-10.41,4.38-20.84,7.51-31.4,10.26c-17.34,4.52-34.31,10.14-50.97,16.78
			c-22.23,8.85-44.44,17.74-66.72,26.47c-23.64,9.27-47.44,18.13-71.1,27.35c-13.64,5.31-27.58,9.85-41.39,14.73
			c-27.16,9.59-54.46,18.82-81.45,28.86c-26.84,9.99-53.8,19.69-80.34,30.5c-13.25,5.39-26.8,10.1-40.36,14.68
			c-32.38,10.93-65.22,20.37-98.48,28.2c-16.64,3.91-33.32,7.72-50.2,10.68c-11.25,1.97-22.52,3.97-33.81,5.53
			c-8.44,1.16-17.05,1.62-25.55,2.44c-15.63,1.5-31.23,0.7-46.82,0.65c-9.48-0.03-18.95-1.54-28.42-2.64
			c-11.88-1.39-23.61-3.53-35.17-6.34c-13.11-3.19-26.16-6.74-38.85-11.45c-9.31-3.46-18.66-6.72-27.62-11.15
			c-7.05-3.48-13.29-8.02-19.8-12.24c-7.8-5.05-14.26-11.41-19.69-18.87c-0.77-1.05-1.97-2.2-1.29-4.24
			c9.68,9.93,22.47,12.42,34.75,16.26c13.37,4.18,26.81,8.04,40.47,11.13c8.59,1.94,17.29,3.34,25.97,4.83
			c17.73,3.03,35.56,3.16,53.42,2.81c11.18-0.22,22.29-1.63,33.43-2.7c9-0.86,17.9-2.3,26.85-3.4c11.32-1.39,22.55-3.68,33.74-5.96
			c13.56-2.75,27.06-5.83,40.56-8.88c24.61-5.56,49.02-11.91,73.38-18.48c24.53-6.61,48.74-14.24,72.7-22.64
			c18.89-6.62,37.53-13.92,56.2-21.17c15.17-5.89,30.24-12.04,45.36-18.05c18.15-7.22,36.25-14.61,54.39-21.88
			c16.92-6.78,33.97-13.23,50.97-19.8c21.1-8.16,42.19-16.35,63.31-24.43c15.5-5.93,31.06-11.73,46.6-17.56
			c11.12-4.17,22.17-8.57,33.42-12.38c10.94-3.71,22.08-6.73,33.53-8.69c13.96-2.4,28.29-2.91,41.79-7.85
			c2.79-1.02,5.26-2.61,8.43-3.78C955.41,125.88,959.82,138.07,965.89,149.73z"/>
	</g>
</g>
</svg>
