<?xml version="1.0" encoding="utf-8"?>
<!-- Generator: Adobe Illustrator 24.1.1, SVG Export Plug-In . SVG Version: 6.00 Build 0)  -->
<svg version="1.1" id="Layer_1" xmlns="http://www.w3.org/2000/svg" xmlns:xlink="http://www.w3.org/1999/xlink" x="0px" y="0px"
	 width="353.01" height="738.15" viewBox="0 0 353.01 738.15" style="enable-background:new 0 0 353.01 738.15;" xml:space="preserve">
<style type="text/css">
	.st0{fill:#1A1A1A;}
</style>
<g>
	<path d="M47.42,704.55c-0.22-1.04-0.44-2.03-0.67-3.1c0.83-1.92,2.38-3.25,4.18-4.29c1-0.58,2.09-1.01,3.15-1.49
		c1.89-0.86,3.85-0.83,5.81-0.3c0.89,0.24,1.67,0.12,2.57-0.07c3.49-0.76,6.77-2.17,10.2-3.07c2.18-0.57,4.39-1.03,6.55-1.66
		c3.62-1.04,7.09-2.49,10.57-3.93c0.38-0.16,0.74-0.36,1.09-0.57c4.68-2.97,9.4-5.88,14.02-8.94c3.83-2.53,7.41-5.4,10.82-8.48
		c1.17-1.05,2.38-2.05,3.68-3.16c0.26-0.6,0.16-1.36,0.14-2.1c-0.05-1.75,0.32-3.39,1.01-4.98c0.35-0.81,0.54-1.56,0.33-2.53
		c-0.26-1.18-0.23-2.48-0.03-3.68c0.61-3.6,0.67-7.21,0.63-10.84c-0.01-1.23-0.09-2.47,0.33-3.67c0.11-0.31,0.09-0.68,0.07-1.02
		c-0.16-2.58,0.06-5.16,0-7.73c-0.04-1.47-0.2-2.95-0.22-4.42c-0.01-0.88,0.17-1.76,0.23-2.64c0.17-2.54-0.07-5.07-0.48-7.56
		c-0.19-1.16-0.11-2.3-0.13-3.42c-0.05-3.01-0.57-5.98-0.5-8.99c0.03-1.29-0.15-2.59-0.1-3.89c0.11-3.02-0.26-6.02-0.48-9.01
		c-0.23-3.14-0.34-6.28-0.36-9.43c-0.01-1.24,0.09-2.46,0.5-3.64c0.27-0.78,0.27-1.61,0.35-2.42c0.22-2.38,0.36-4.76,0.85-7.11
		c0.53-2.54,0.96-5.09,1.48-7.63c0.12-0.6,0.01-1.07-0.34-1.53c-3.1-4.12-5.31-8.78-8.02-13.13c-1.7-2.73-2.96-5.71-4.33-8.61
		c-2.07-4.39-3.95-8.85-5.34-13.51c-1.25-4.2-2.18-8.47-2.72-12.82c-0.21-1.69-0.58-3.37-0.96-5.03c-0.8-3.47-1.13-7.01-1.57-10.53
		c-0.1-0.81-0.26-1.62-0.31-2.43c-0.14-2.27,0.01-4.56,0.61-6.71c0.59-2.12,0.87-4.27,1.27-6.42c0.25-1.34,0.48-2.68,0.48-4.06
		c0-1.86,0.72-3.61,1.19-5.39c1.08-4.09,2.11-8.22,3.5-12.21c0.94-2.7,1.97-5.39,3.08-8.04c1.88-4.47,3.85-8.9,5.44-13.49
		c1.14-3.28,2.48-6.5,3.97-9.66c1.34-2.85,2.98-5.56,4.14-8.47c0.81-2.03,1.09-4.27,0.78-6.45c-0.26-1.82-0.74-3.61-0.81-5.47
		c-0.01-0.17-0.21-0.34-0.39-0.62c-1.57,1.38-2.72,3.04-3.93,4.65c-1.19,1.59-1.71,3.54-2.83,5.15c-1.17-0.26-1.44-1.15-1.66-1.99
		c-0.59-2.24-1.19-4.5-1.63-6.77c-0.47-2.4-0.77-4.84-0.84-7.29c-0.03-1.09-0.14-2.18,0.19-3.26c0.11-0.37,0.02-0.8,0.02-1.33
		c-1.28,0.29-2.27,0.88-3.19,1.54c-1.61,1.15-3.2,2.35-4.71,3.64c-5.42,4.64-10.43,9.67-14.49,15.58c-0.5,0.73-1.07,1.42-1.62,2.12
		c-0.12,0.14-0.34,0.2-0.46,0.27c-0.39-0.01-0.61-0.26-0.67-0.49c-0.4-1.59-0.52-3.23-0.53-4.86c-0.01-1.34,0.32-2.71,0.15-4.02
		c-0.23-1.7-0.14-3.41-0.26-5.09c-0.7-0.24-0.68,0.35-0.86,0.64c-3.29,5.47-4.86,11.57-6.47,17.65c-0.32,1.19-0.64,2.37-1.1,3.51
		c-0.88,2.17-1.27,4.46-1.55,6.78c-0.36,3.05-0.33,6.12-0.48,9.14c-0.57,0.34-0.82-0.07-1.12-0.33c-0.2-0.18-0.4-0.38-0.56-0.6
		c-3.4-4.62-7.28-8.88-10.13-13.91c-2.3-4.06-4.34-8.22-5.61-12.74c-0.96-3.42-2.08-6.8-3.01-10.22c-0.66-2.44-1.22-4.91-1.68-7.39
		c-0.74-4.04-1.8-7.99-2.82-11.96c-0.68-2.65-1.26-5.32-1.74-8.01c-0.5-2.75-0.79-5.57-1.59-8.24c-1.26-4.21-1.77-8.55-2.78-12.79
		c-0.46-1.93-0.89-3.85-1.09-5.82c-0.42-4-1.25-7.95-1.48-11.98c-0.03-0.61-0.17-1.22-0.35-1.8c-0.79-2.56-1.21-5.17-1.4-7.85
		c-0.14-1.89-0.65-3.75-0.88-5.66c-0.56-4.61-1.27-9.2-1.84-13.81c-0.34-2.78-0.48-5.58-0.8-8.36c-0.31-2.71-0.79-5.4-1.11-8.12
		c-0.25-2.1-0.64-4.24-0.47-6.32c0.45-5.6-0.07-11.22,0.38-16.81c0.29-3.55,0.15-7.12,0.45-10.65c0.28-3.26,0.35-6.53,0.9-9.79
		c0.4-2.4,0.43-4.9,0.68-7.34c0.3-2.92,0.7-5.82,1.11-8.72c0.41-2.9,0.93-5.79,1-8.75c0.11-4.78,0.48-9.58,1.69-14.21
		c0.65-2.49,0.63-5,1.02-7.48c0.44-2.83,0.91-5.66,1.45-8.47c0.33-1.69,0.11-3.4,0.52-5.09c0.51-2.12,0.92-4.28,1.14-6.45
		c0.39-3.82,1.31-7.54,1.97-11.3c0.35-2.02,0.79-4.02,0.85-6.08c0.02-0.67,0.25-1.34,0.45-1.99c0.37-1.18,0.53-2.39,0.64-3.62
		c0.43-4.42,0.99-8.83,1.85-13.18c0.7-3.54,1.49-7.08,2.4-10.58c0.65-2.5,0.79-5.12,1.47-7.63c0.84-3.1,1.6-6.23,2.54-9.3
		c0.76-2.5,0.88-5.11,1.59-7.61c0.26-0.92,0.3-1.91,0.63-2.8c1.42-3.8,2.04-7.79,2.96-11.71c0.73-3.12,1.55-6.23,2.45-9.31
		c0.8-2.75,1.32-5.59,2.22-8.32c0.84-2.53,1.62-5.08,2.17-7.69c0.1-0.47,0.21-0.95,0.43-1.37c1.35-2.51,1.77-5.3,2.53-7.99
		c0.95-3.35,1.83-6.73,2.99-10.02c0.59-1.67,1.01-3.41,1.44-5.13c0.9-3.6,2.38-6.98,3.73-10.42c1.94-4.97,4.28-9.78,6.01-14.83
		c0.62-1.81,1.48-3.52,2.15-5.31c0.69-1.85,2.35-2.81,4.15-3.41c0.79-0.26,1.57-0.02,2.29,0.56c2.32,1.9,3.74,4.41,4.47,7.22
		c0.78,2.97,1.77,5.89,2.38,8.92c0.29,1.47,0.82,2.9,1.37,4.3c1.34,3.45,2.26,7.02,3.29,10.56c0.95,3.28,1.93,6.56,2.77,9.87
		c1.09,4.32,2.85,8.41,4.22,12.64c0.95,2.93,1.86,5.86,2.62,8.84c0.32,1.26,0.78,2.48,1.18,3.72c1,3.05,2.04,6.09,2.99,9.16
		c0.37,1.2,1.08,2.13,1.85,3.15c0.19-0.27,0.38-0.42,0.41-0.6c0.49-2.82,0.91-5.64,1.07-8.52c0.2-3.54,0.64-7.07,1.24-10.57
		c0.68-3.98,1.16-7.98,1.15-12.01c0-3.63,0.34-7.23,0.82-10.82c0.11-0.8-0.17-1.64,0.19-2.38c0.96-0.48,0.81,0.7,1.38,0.85
		c0.27-1.76-0.24-3.75,1.46-5.05c0.7,0.21,0.88,0.67,1,1.25c0.89,4.42,2.9,8.36,5.14,12.22c1.86,3.21,4.25,6.04,6.4,9.04
		c3.71,5.2,6.84,10.73,9.24,16.65c0.38,0.94,0.59,1.94,0.93,3.05c0.79-0.38,1.23-0.9,1.29-1.7c0.04-0.48,0.03-0.96,0.01-1.44
		c-0.23-5.93,1.6-11.32,4.36-16.44c0.75-1.38,1.63-2.7,2.48-4.02c0.43-0.67,0.9-1.35,1.89-1.62c0.46,1.98-0.59,3.77-0.42,5.79
		c1.67-1.42,3.37-2.53,4.79-4.01c1.9-1.97,4.05-3.68,6.41-5.1c0.12-0.07,0.23-0.15,0.34-0.23c4.06-3.12,8.62-5.24,13.44-6.85
		c2.46-0.83,4.84-1.86,7.34-2.6c2.84-0.85,5.77-1.07,8.65-1.65c0.26-0.05,0.53-0.08,0.92-0.14c0.69-2.7,1.39-5.39,2.05-8.1
		c0.11-0.44,0.24-0.8,0.71-0.88c0.56-0.09,0.9,0.21,1.06,0.74c0.44,1.45,0.62,2.93,0.7,4.44c0.04,0.8-0.06,1.65,0.72,2.37
		c0.44-1.13,0.85-2.19,1.36-3.49c0.84,1.28,1.06,2.55,1.17,3.77c0.3,3.27,1.04,6.47,1.41,9.73c0.1,0.87,0.46,1.71,0.73,2.56
		c0.8,2.54,1.44,5.12,1.68,7.88c2.01,0.74,4.08,1.21,5.85,2.5c0.73-1.42,0.97-2.78,1.14-4.11c0.45-3.46,1.23-6.84,2.04-10.22
		c0.64-2.65,1.04-5.36,1.54-8.04c0.45-2.41,0.97-4.82,1.3-7.24c0.23-1.69,0.49-3.37,0.72-5.06c0.2-1.44,0.65-2.79,1.01-4.16
		c0.48-1.85,0.97-3.69,1.3-5.58c0.51-2.97,1.65-5.76,2.74-8.58c0.74-1.92,1.73-3.7,2.57-5.57c0.77-1.74,2.01-3.06,3.49-4.23
		c1.47-1.16,3.09-1.3,4.83-1.09c0.72,0.09,1.31,0.49,1.77,0.97c1.56,1.63,3.46,2.87,5.05,4.49c4.18,4.25,8.19,8.64,11.71,13.47
		c2.66,3.64,5.48,7.17,8.54,10.5c0.6,0.65,1.19,1.33,1.69,2.06c1.84,2.75,4.2,5.05,6.41,7.47c1.2,1.32,2.32,2.69,3.28,4.2
		c0.26,0.4,0.53,0.8,0.85,1.16c2.72,3.03,4.84,6.45,6.5,10.15c0.26,0.57,0.63,1.05,1.03,1.52c1.25,1.45,2.33,3.02,3.34,4.66
		c2.88,4.67,5.36,9.55,8.14,14.27c1.42,2.41,2.63,4.95,3.97,7.41c1.72,3.18,3.51,6.33,5.21,9.53c1.86,3.5,3.7,7.03,5.46,10.58
		c1.01,2.03,2.27,3.9,3.34,5.89c0.32,0.6,0.79,0.92,1.39,1.13c1.18,0.41,2.23,1.04,3.26,1.72c0.81,0.52,1.66,0.9,2.6,1.16
		c1.88,0.51,3.47,1.56,4.82,2.98c1.36,1.44,2.65,2.95,3.92,4.47c0.78,0.93,1.77,1.69,2.79,2.65c0.14-1.15-0.42-2.27,0.08-3.33
		c0.69-0.23,0.97,0.37,1.28,0.75c1.13,1.37,2.02,2.93,3.36,4.14c0.51,0.46,0.95,0.99,1.39,1.51c0.8,0.93,1.59,1.88,2.45,2.89
		c0.32,0.02,0.72,0.06,1.13,0.08c1.25,0.07,1.62,0.38,1.67,1.54c0.03,0.61-0.02,1.24-0.11,1.84c-0.22,1.41-0.42,2.83-0.73,4.22
		c-0.41,1.83-1.23,3.47-2.66,4.78c0.82,0.89,1.98,0.43,2.9,0.9c0.56,1.36-0.23,2.24-1.12,2.99c-1.95,1.66-4.04,3.05-6.74,3.16
		c-1.7,4.07-4.39,7.43-7.07,10.8c0.65,3.54,1.67,7,2.6,10.49c0.81,3.05,1.33,6.14,1.84,9.25c0.42,2.56,0.89,5.11,1.31,7.67
		c0.19,1.14,0.38,2.29,0.46,3.45c0.2,2.61,1.02,5.09,1.58,7.62c0.65,2.94,1.12,5.91,1.75,8.84c0.97,4.56,1.4,9.19,2.06,13.78
		c0.46,3.16,0.81,6.37,1.09,9.57c0.29,3.26,0.73,6.51,1.03,9.77c0.3,3.26,0.5,6.54,0.79,9.8c0.21,2.38,0.46,4.76,0.91,7.11
		c0.27,1.41,0.35,2.88,0.35,4.28c0,3.43,0.54,6.82,0.66,10.23c0.07,1.9,0.11,3.83,0.49,5.72c0.14,0.66,0.16,1.36,0.14,2.04
		c-0.14,4.98,0.18,9.95,0.01,14.93c-0.08,2.39,0.08,4.78-0.25,7.17c-0.33,2.39,0.2,4.78,0.44,7.15c0.25,2.59,0.09,5.15,0,7.74
		c-0.1,2.94-0.58,5.85-0.53,8.8c0.07,4.71-0.57,9.37-1.39,14c-0.05,0.27-0.18,0.54-0.17,0.8c0.16,2.49-0.46,4.88-0.85,7.3
		c-0.54,3.3-1.14,6.59-2.02,9.82c-0.53,1.97-0.88,3.99-1.38,5.98c-1.37,5.44-2.91,10.83-5.05,16.02c-0.34,0.83-0.26,1.62-0.14,2.42
		c0.55,3.92,0.1,7.75-0.86,11.56c-1,3.98-2.74,7.6-5.13,10.89c-1.56,2.16-3.34,4.15-5.5,5.78c-1.31,0.99-2.62,1.95-4.02,2.83
		c-3.61,2.28-7.6,3.48-11.77,3.93c-5.61,0.6-11.02-0.29-16.17-2.74c-4.4-2.09-8.23-4.89-11.5-8.48c-2.61-2.86-4.63-6.1-5.91-9.77
		c-0.56-1.6-1.16-3.19-1.47-5.1c-6,2.4-12.07,3.52-18.21,3.58c-0.36,0.54-0.2,0.95-0.12,1.33c0.67,3.01,0.98,6.06,1.26,9.12
		c0.2,2.12,0.14,4.24,0.24,6.35c0.06,1.18-0.24,2.31-0.29,3.47c-0.13,2.58-0.35,5.15-0.2,7.76c0.14,2.37-0.21,4.77-0.4,7.16
		c-0.23,2.93-0.42,5.87-0.8,8.78c-0.4,3-0.09,6.01-0.41,8.99c-0.42,3.89-0.34,7.79-0.41,11.69c-0.03,1.7-0.16,3.42-0.42,5.1
		c-0.31,2.04-0.24,4.08-0.23,6.12c0.02,4.73-0.57,9.41-0.9,14.12c-0.02,0.27-0.08,0.55-0.07,0.82c0.17,4.25-0.45,8.46-0.75,12.68
		c-0.07,1.03-0.08,2.05-0.01,3.08c0.07,0.89,0.15,1.79,0.04,2.67c-0.28,2.18,0.22,4.22,0.96,6.22c1.13,3.02,1.99,6.08,2.33,9.32
		c0.24,2.31,0.76,4.57,0.74,6.92c-0.01,1.31-0.15,2.61-0.45,3.86c-0.49,2.01-0.27,4.08-0.68,6.09c-0.47,2.29-1.11,4.51-2.06,6.64
		c-0.48,1.08-0.57,2.09-0.08,3.15c1.04,2.23,1.03,4.65,1.31,7.01c0.1,0.81,0.08,1.63,0.27,2.44c0.64,2.82,0.57,5.69,0.61,8.56
		c0.05,4.55-0.04,9.1-0.14,13.65c-0.06,2.81-0.51,5.58-1.02,8.33c-0.37,2.01-0.61,4.04-0.89,6.07c-0.58,4.19-0.55,8.43-1.01,12.63
		c-0.32,2.85-0.72,5.69-1.01,8.54c-0.26,2.45-0.4,4.9-0.63,7.35c-0.2,2.24-0.43,4.48-0.67,6.72c-0.15,1.4-0.22,2.79-0.04,4.63
		c1.82-2.93,3.39-5.48,4.97-8.01c0.33-0.52,0.67-1.03,1.04-1.53c0.28-0.38,0.71-0.42,1.11-0.27c0.43,0.17,0.61,0.56,0.56,1
		c-0.04,0.4-0.19,0.79-0.27,1.19c-0.08,0.44-0.29,0.91,0.27,1.46c1.09-1.12,2.25-2.18,3.25-3.36c2.37-2.8,5.16-5.08,8.23-7.04
		c3.23-2.07,6.59-3.87,10.1-5.45c3.87-1.74,7.43-4.08,10.99-6.38c0.85-0.55,1.39-1.49,2.31-1.85c0.73,0.4,0.64,1.03,0.48,1.51
		c-0.57,1.77-0.74,3.6-0.94,5.43c-0.28,2.47-1.23,4.75-2.24,7c-0.17,0.37-0.33,0.74-0.63,1.42c1.8-0.68,3.27-1.39,4.71-2.19
		c0.6-0.33,1.16-0.73,1.76-1.06c2.56-1.4,4.75-3.34,6.55-5.54c1.79-2.19,3.56-4.55,3.91-7.56c0.02-0.13,0.07-0.27,0.09-0.4
		c0.07-0.54,0.06-1.14,0.79-1.25c0.9-0.14,0.82,0.71,1.14,1.18c0.05-0.15,0.12-0.27,0.13-0.4c0.04-0.48-0.01-1.03,0.62-1.14
		c0.49-0.08,0.67,0.37,0.9,0.7c0.92,1.32,1.28,2.87,1.7,4.38c0.47,1.71,0.85,3.44,1.34,5.15c0.45,1.56,0.68,3.22,0.76,4.85
		c0.23,4.52,0.06,9.04-1.22,13.42c-0.55,1.9-1.39,3.71-2.1,5.56c-0.19,0.49-0.38,0.98-0.55,1.44c0.47,0.37,0.74,0.06,1.01-0.09
		c0.95-0.55,1.86-1.15,2.82-1.68c1.07-0.58,1.63-1.64,2.47-2.43c0.77-0.73,1.6-0.48,1.81,0.56c0.86,4.35,1.47,8.73,1.57,13.18
		c0.06,2.82-0.15,5.61-0.46,8.39c-0.28,2.49-1.25,4.73-2.94,6.64c-1.64,1.86-3.47,3.49-5.53,4.86c-0.51,0.34-1.01,0.71-1.48,1.11
		c-2.59,2.23-5.76,3.1-9.01,3.63c-1.81,0.3-3.63,0.54-5.45,0.86c-2.88,0.52-5.8,0.68-8.68-0.17c-1.04-0.31-2.08-0.54-3.21-0.16
		c-0.99,0.33-2.01-0.21-3.02-0.34c-1.63-0.2-3.28-0.25-4.89-0.52c-2.87-0.49-5.48-1.71-7.98-3.15c-1.72-0.99-3.39-2.06-5.09-3.1
		c-0.12,0.28-0.24,0.57-0.38,0.9c-1.4-0.48-2.61-1.2-3.71-2.13c-1.59-1.35-2.49-3.05-2.79-5.09c-0.08-0.54-0.06-1.09-0.31-1.6
		c-0.25-0.52-0.58-0.94-1.16-1.07c-0.92-0.21-1.84-0.39-2.66-0.56c-0.49,0.54-0.16,0.88,0,1.23c0.96,2.14,2.34,4.02,3.83,5.81
		c0.53,0.63,1.15,1.18,1.63,1.85c2.22,3.14,5.08,5.72,7.53,8.67c1,1.2,2.21,2.25,3.41,3.26c1.48,1.23,2.76,2.66,4.16,3.97
		c4.61,4.32,9.52,8.25,15.11,11.25c1.5,0.81,3.09,1.48,4.67,2.12c3.69,1.5,7.15,3.45,10.71,5.21c1.77,0.88,3.74,1.34,5.4,2.46
		c0.37,0.25,0.8,0.12,1.2,0.1c2.06-0.08,3.9,0.52,5.58,1.71c1.12,0.79,2.27,1.53,3.27,2.48c0.82,0.78,1.41,1.68,1.69,2.76
		c0.29,1.13,0.74,2.2,1.23,3.25c0.74,1.58,1.09,3.23,1.01,4.98c-0.06,1.26-0.04,1.26-1.54,1.83c-0.31,1.4-0.64,2.86-0.96,4.31
		c-0.22,1.01-0.94,1.61-1.88,1.6c-1.46-0.02-2.56,0.7-3.76,1.42c-0.11,1.05-0.29,2.13-0.64,3.17c-0.25,0.73-0.62,1.38-1.28,1.81
		c-0.57,0.37-1.15,0.68-1.52,1.32c-0.28,0.47-0.89,0.58-1.42,0.76c-2.85,0.95-5.07,1.08-8.08,0.41c-0.69,0.13-0.91,1.1-1.77,0.83
		c-0.23,0.71-0.39,1.3-0.62,1.86c-0.37,0.89-0.83,1.78-1.64,2.32c-1.92,1.28-3.85,2.61-6.25,2.78c-0.83,0.06-1.62,0.22-2.41,0.46
		c-2.59,0.81-5.09,0.69-7.53-0.57c-0.91-0.47-1.89-0.78-2.83-1.18c-2.6-1.08-4.37-2.99-5.47-5.55c-0.19-0.44-0.38-0.88-0.55-1.28
		c-0.97-0.43-1.76,0.35-2.64,0.28c-0.89-0.06-1.79,0.01-2.67-0.09c-3.85-0.43-7.79-0.41-11.42-2.1c-2.73-1.27-5.43-2.62-7.81-4.49
		c-1.6-1.25-2.69-2.91-3.45-4.77c-0.34-0.83-0.78-1.55-1.36-2.25c-1.85-2.2-3.63-4.45-5.14-6.92c-0.53-0.88-1.1-1.73-1.28-2.66
		c-1.18-0.9-2.49-1.01-3.74-1.31c-0.6-0.14-1.27-0.12-1.79-0.39c-3.78-1.91-7.89-3.08-11.58-5.23c-4.71-2.73-7.76-6.83-10.04-11.62
		c-0.26-0.55-0.47-1.19-0.45-1.78c0.1-2.6-0.57-5.16-0.37-7.78c0.08-1.1,0.33-2.16,0.5-3.24c0.33-2.02,0.77-4.03,1.19-6.03
		c0.15-0.74,0.25-1.51,0.57-2.18c0.7-1.46,0.84-3.04,0.97-4.59c0.26-3.2,0.22-6.42,0.53-9.61c0.35-3.67,0.04-7.36,0.53-11.15
		c-5.58-2.42-11.19-4.77-16.55-7.69c-5.42-2.95-10.59-6.29-15.72-9.71c-5.05-3.36-9.86-7.04-14.86-10.7
		c-0.58,1.89-1.13,3.56-1.61,5.25c-0.86,3.03-1.61,6.09-2.55,9.09c-0.82,2.61-1.57,5.24-2.15,7.91c-0.6,2.74-1.23,5.46-1.82,8.2
		c-0.33,1.54-0.22,3.13-0.35,4.7c-0.34,4.02-1.23,7.96-1.66,11.96c-0.05,0.48-0.15,0.95-0.17,1.43c-0.19,5.6-0.37,11.21-0.55,16.81
		c-0.01,0.27,0.06,0.54,0.13,0.8c0.65,2.53,0.83,5.14,0.9,7.72c0.09,3.48,0.41,6.95,0.35,10.44c-0.03,1.65-0.25,3.27-0.37,4.9
		c-0.1,1.4-0.88,2.61-1.63,3.73c-1.85,2.77-4.32,4.91-7.26,6.52c-5.24,2.86-10.89,4.34-16.75,5.17c-0.34,0.05-0.7,0.09-1.02,0.02
		c-1.26-0.27-2.19,0.24-3.15,1.02c-3.33,2.74-6.65,5.49-9.66,8.59c-2.88,2.97-6.29,5.25-9.92,7.21c-3.1,1.67-6.45,2.1-9.89,2.06
		c-1.62-0.02-3.24-0.13-4.86-0.22c-1.59-0.09-3.05-0.67-4.51-1.12c-0.16,0.09-0.32,0.13-0.39,0.23c-1.82,2.62-4.56,3.4-7.5,3.59
		c-4.94,0.33-9.65-0.62-14.15-2.69c-1.55-0.72-2.58-1.74-2.8-3.49c-0.05-0.39-0.26-0.77-0.38-1.11c-0.26-0.11-0.45-0.25-0.64-0.25
		c-1.89,0-3.61-0.69-5.39-1.19c-1.72-0.48-3.33-1.22-4.92-2.04c-1.79-0.93-3.15-2.27-3.69-4.2c-0.34-1.21-1.01-1.85-2.12-2.23
		c-0.64-0.22-1.18-0.67-1.86-0.85c-0.75-0.21-1.34-0.75-1.63-1.48c-0.58-1.45-1.16-2.91-0.78-4.54c0.11-0.46,0.14-0.95,0.16-1.43
		c0.02-0.41,0.01-0.83-0.4-1.09c-1.12-0.71-0.9-1.71-0.61-2.74c0.33-1.17,1.08-2.04,1.98-2.8
		C46.19,705.49,46.79,705.04,47.42,704.55z M208.48,597.49c0.42-0.76,0.36-1.38,0.32-1.99c-0.16-2.59-0.35-5.18-0.52-7.76
		c-0.24-3.6,0.41-7.23-0.27-10.82c-0.03-0.13-0.01-0.27,0-0.41c0.15-2.04,0.23-4.09,0.47-6.13c0.29-2.44,0.67-4.87,1.1-7.28
		c0.47-2.62,1-5.22,1.59-7.82c0.72-3.19,1.53-6.36,1.76-9.64c0.14-1.96,0.18-3.93,0.23-5.89c0.11-4.91,0.77-9.78,0.72-14.69
		c-0.01-0.86-0.19-1.72-0.06-2.62c0.39-2.71,0.35-5.45,0.31-8.18c-0.04-2.67-0.59-5.29-0.96-7.93c-0.33-2.36-0.85-4.69-1.55-6.99
		c-0.54-1.76-1.28-3.44-1.75-5.24c-1.34-5.08-2.48-10.23-4.25-15.2c-0.48-1.34-0.77-2.76-1.09-4.16c-0.47-2.07-0.71-4.2-1.33-6.2
		c-1.34-4.32-1.76-8.83-3.08-13.15c-0.67-2.2-0.96-4.53-1.23-6.85c-0.2-1.76-0.69-3.5-0.72-5.27c-0.11-5.06-0.58-10.1-1.03-15.13
		c-0.16-1.77-0.15-3.55-0.39-5.31c-0.41-2.91-0.73-5.82-0.8-8.76c-0.01-0.32,0.1-0.67-0.22-0.96c-0.89,0.17-0.92,0.92-0.94,1.57
		c-0.07,1.64-0.11,3.29-0.06,4.93c0.1,3.84-0.14,7.66-0.38,11.48c-0.06,0.95-0.09,1.96-0.43,2.82c-0.77,1.9-0.67,3.89-0.82,5.85
		c-0.06,0.75-0.16,1.5-0.19,2.24c-0.07,1.71-0.51,3.37-0.55,5.09c-0.06,2.59-0.31,5.18-0.77,7.74c-0.49,2.75-0.91,5.52-1.35,8.29
		c-0.35,2.16-0.62,4.32-1.04,6.47c-0.84,4.36-2.24,8.58-3.38,12.87c-1.01,3.83-2.2,7.62-3.25,11.44c-0.67,2.44-1.34,4.87-2.23,7.24
		c-0.75,1.98-1.33,4.02-1.52,6.15c-0.07,0.75-0.3,1.47-0.44,2.2c-0.53,2.62-1.77,5.02-2.21,7.67c-0.48,2.96-1.24,5.87-1.8,8.81
		c-0.24,1.27-0.5,2.59-0.37,3.85c0.19,1.87-0.25,3.66-0.39,5.47c-0.17,2.23-0.69,4.44-0.68,6.7c0,0.68,0.07,1.39-0.07,2.05
		c-0.29,1.35-0.05,2.69-0.01,4.01c0.06,1.98,0.35,3.93-0.12,5.91c-0.2,0.85-0.06,1.76,0.04,2.65c0.39,3.53,0.79,7.05,1.05,10.59
		c0.11,1.5,0.39,2.98,0.48,4.49c0.03,0.52,0.24,0.9,0.61,1.24c2.19,2.03,3.71,4.53,4.92,7.23c0.18,0.4,0.24,0.95,0.84,1.05
		c0.92-0.77,1.28-1.93,1.97-2.85c0.69-0.93,0.98-2.27,2.48-2.62c0.61,1.53,0.13,2.92-0.02,4.48c1.7-1.26,2.72-3.06,4.49-3.91
		c0.59,0.13,0.96,0.43,1,0.97c0.05,0.61,0.15,1.26,0.01,1.84c-0.59,2.5-0.27,5.03-0.45,7.62c0.76-0.09,1.31-0.5,1.91-0.81
		c0.54-0.28,1.07-0.63,1.65-0.8c1.58-0.47,3.05-1.19,4.52-1.92c0.95-0.48,1.89-1.04,3.02-1.26c0.78,2.61-1.15,4.3-1.95,6.43
		c1.61,0.33,2.59-1.04,3.85-1.36c0.31,0.51,0.27,0.92,0.16,1.32c-0.32,1.19-0.67,2.36-0.98,3.55c-0.11,0.42-0.48,0.86-0.06,1.29
		c1.83-0.27,3.54-0.83,5.27-1.74c-0.15,2.19-1.12,4.09-0.76,6.21C207.37,597.59,207.9,597.54,208.48,597.49z"/>
</g>
<g>
	<path class="st0" d="M181.83,360.67c3.48,1.09,6.78,1.8,10.27,1.24c-1.4-0.32-2.8-0.62-4.19-0.96c-1.26-0.31-2.53-0.61-3.77-0.98
		c-1.37-0.4-2.72-0.89-3.74-1.8c-0.64,0.12-0.8,0.48-0.78,0.92c0.04,1.33,0.36,2.57,1.16,3.65c0.48,0.66,0.97,1.32,1.45,1.97
		c-0.42,0.47-0.75,0.04-1.09-0.05c-1.59-0.4-3.17-0.84-4.76-1.24c-0.53-0.13-1.08-0.27-1.64,0.28c0.12,1.55,0.94,2.85,1.84,4.14
		c0.87,1.25,2.25,1.95,3.31,3.12c-3.22,1.27-5.58,3.59-8.25,5.53c-2.03-1.76-2.83-4.17-3.47-6.58c-0.84-3.17-1.47-6.39-1.84-9.65
		c-0.23-2-1.07-3.81-1.69-5.69c-2.26-6.86-5.56-13.24-9.3-19.39c-2.43-4-4.23-8.26-5.61-12.71c-0.48-1.55-0.83-3.16-0.67-4.85
		c0.09-0.92-0.23-1.89-0.39-2.83c-1.07-6.12-2.32-12.22-2.93-18.42c-0.33-3.4-0.79-6.78-1.17-10.17c-0.23-2.13-1.04-4.11-1.68-6.12
		c-1.45-4.56-2.99-9.09-4.44-13.65c-0.52-1.64-1.17-3.2-2.1-4.66c-0.36-0.57-0.68-1.17-1.11-1.93c1.43-0.19,2.66,0.46,3.92,0.15
		c-1.26-0.68-2.63-1.03-3.98-1.36c-0.93-0.22-1.65-0.7-2.27-1.31c-2.82-2.79-5.4-5.8-7.71-9.04c-0.73-1.03-0.83-2.33-0.99-3.5
		c-0.45-3.44-0.66-6.92-0.49-10.38c0.24-5.07,1.83-9.74,4.4-14.15c2.63-4.5,5.58-8.77,8.74-12.9c0.84-1.1,1.95-1.91,3.01-2.77
		c2.99-2.44,6.52-3.59,10.13-4.71c2.73-0.85,5.45-1.25,8.28-1.13c0.76,0.03,1.47,0.15,2.19,0.44c3.37,1.34,6.78,2.58,10.26,3.61
		c0.26,0.08,0.59,0.08,0.77,0.25c1.87,1.75,4.48,2.37,6.28,4.19c0.42,0.43,0.9,0.57,1.47,0.6c0.33,0.01,0.42,0.27,0.28,0.68
		c-2.74-0.45-5.28-1.62-8.12-2.35c-0.58,4.23-0.29,8.09,3.03,11.27c-1.84,2.82-2.91,5.96-3.33,9.31c-0.44,3.53,0.05,6.95,1.35,10.26
		c0.25,0.64,0.56,1.26,1.08,1.73c0.37,0.34,0.81,0.52,1.32,0.29c0.41-0.19,0.65-0.57,0.62-0.99c-0.1-1.32,0.42-2.4,1.19-3.41
		c0.13-0.16,0.27-0.3,0.55-0.26c1.59,6.63,5.38,11.45,11.6,14.17c0.87-0.38,1.32-0.82,1.35-1.61c0.18-4.31,0.23-8.63,0.05-12.94
		c0-0.06-0.06-0.11-0.23-0.42c-0.99,4.04-1.17,7.98-1.87,11.83c-0.92,0.12-1.49-0.44-2.07-0.88c-4.12-3.1-6.71-7.14-7.38-12.31
		c-0.06-0.49-0.06-0.96-0.71-1.34c-1.82,0.83-2.69,2.65-3.78,4.29c-2.11-3.87-2.53-10.1,1.62-18.27c-1.37-1.91-2.53-4-3.12-6.35
		c-0.16-0.64-0.36-1.33-0.04-2.1c1.9,0.97,3.91,1.68,5.96,2.14c2.06,0.46,3.69,1.75,5.45,2.5c0.67-0.09,0.68-0.56,0.87-0.9
		c0.16-0.28,0.68-0.1,0.85-0.72c-1.02-3.02-2.84-5.85-4.4-8.8c-0.16-0.31-0.41-0.55-0.94-0.53c-0.97,1.02-0.68,2.47-0.94,3.85
		c-2.4-1.36-4.93-2.17-7.35-3.24c-2.37-1.05-4.85-1.84-7.45-2.82c-2.16-9.29-3.73-18.76-4.49-28.44c1.1,0.18,1.87,0.75,2.59,1.35
		c2.15,1.76,4.73,2.46,7.38,2.84c1.97,0.28,3.95-0.25,5.91-0.5c5.69-0.72,11-2.71,16.22-5c0.95-0.42,1.82-0.95,2.52-1.74
		c0.4-0.46,0.76-0.95,1.42-1.78c0.42,2.94,0.65,5.27,0.05,7.7c-1.16,4.64-1.84,9.38-2.66,14.09c-0.05,0.26-0.01,0.54-0.01,1.2
		c1.38-4.21,1.92-8.2,2.91-12.14c0.8,0.94,0.42,2.01,0.48,2.98c0.1,1.68,0.26,3.37-0.02,5.05c-0.1,0.6-0.09,1.23-0.1,1.84
		c-0.05,2.87-0.09,5.74-0.14,8.61c-0.03,1.7-0.74,2.93-2.35,3.73c-2.63,1.31-5.28,2.58-7.74,4.23c-1.41,0.95-2.06,2.11-1.71,3.77
		c0.54,0.26,0.81-0.05,1.09-0.36c2.47-2.84,5.5-4.91,8.85-6.56c1.41-0.7,2.76-1.52,4.17-2.22c1.25-0.62,2.18-1.64,3.28-2.45
		c3.61-2.64,7.69-4.13,12.05-4.89c2.96-0.52,5.94-0.92,8.95-1.04c4.78-0.19,9.23,0.85,13.32,3.33c1.08,0.66,1.85,1.67,1.76,3.04
		c-0.21,3.06-0.47,6.13-0.73,9.19c-0.15,1.77-0.31,3.54-0.43,5.31c-0.26,3.91-1.04,7.69-2.02,11.48c-0.79,3.04-2.2,5.67-4.3,7.81
		c-2.87,2.93-6.1,5.5-9.84,7.32c-1.04,0.5-2.08,1.01-3.16,1.54c1.27,0.53,1.55,0.6,2.62,0.17c2.74-1.11,5.56-2.3,7.62-4.38
		c2.61-2.64,5.51-5.12,6.98-8.75c0.78-1.92,1.24-3.9,1.73-5.89c1.1-4.45,1.78-8.99,2.19-13.54c0.25-2.71,0.36-5.45,0.23-8.21
		c0.62,1.46,0.86,3.01,1.05,4.56c0.4,3.32,0.66,6.66,0.42,10.01c-0.14,1.97-0.32,3.95-0.54,5.91c-0.29,2.64-0.61,5.29-0.98,7.92
		c-0.42,3.04-1.02,6.05-1.75,9.04c-1.14,4.72-2.51,9.37-4.08,13.96c-0.82,2.39-1.5,4.84-2.5,7.16c-1.09,2.52-1.23,5.16-1.53,7.79
		c-0.23,1.97-0.33,3.95-0.62,5.91c-0.64,4.18-1.34,8.36-1.47,12.6c-0.11,3.42-0.69,6.79-0.84,10.2c-0.04,0.82-0.1,1.64-0.08,2.46
		c0.07,4.11-0.27,8.19-0.66,12.28c-0.16,1.7-0.18,3.41-0.14,5.12c0.07,2.81-0.26,5.61-0.49,8.39c-0.22,2.57-0.86,5.1-1.63,7.58
		c-1.26,4.06-2.85,7.98-4.81,11.75c-1.83,3.53-2.88,7.39-4.47,11.01c-1.34,3.04-1.83,6.28-2.48,9.49
		c-0.83,4.08-1.06,8.25-1.75,12.34c-0.43,2.57-0.03,5.03,0.03,7.54c0.02,0.75,0,1.5,0,2.36c-2.26,1.61-2.98,4.31-4.28,7.24
		c0.17,1.8,0.42,4.23,0.61,6.67c0.16,1.98-0.02,3.93-0.26,5.91c-0.32,2.69-0.9,5.39-0.25,8.15c0.21,0.91,0.71,1.76,0.77,2.92
		c-1.88-1.49-2.97-3.39-4.26-5.12c-1.26-1.69-2.28-3.51-2.75-6.06c-3.23,5.95-6.34,11.4-10.86,16.2c-3.1-6.91-4.92-13.86-4.04-21.6
		c-3.37,2-6.59,3.48-9.63,5.73c-0.61-2.65-0.39-5.13-0.19-7.64c0.19-2.48,0.74-4.85,1.51-7.2c0.79-2.41,2.02-4.6,3.58-6.88
		c-3.48-0.32-6.54-1.54-9.7-2.25c-0.06-0.69,0.47-0.7,0.77-0.92c1.48-1.11,2.99-2.17,4.46-3.3c2.24-1.72,4.48-3.43,7.51-3.39
		c0.17,0,0.35-0.18,0.51-0.29c0.05-0.03,0.06-0.12,0.13-0.27c-0.42-1.07-1.76-1.09-2.44-1.95c-0.67-0.85-1.6-1.48-2.39-2.24
		c-0.77-0.74-1.56-1.46-2.05-2.7c2.7,0.62,5.22,1.15,7.98,1.16c-0.3-1.04-1.08-1.74-1.55-2.6
		C182.72,362.7,182.1,361.95,181.83,360.67z M189.76,330.26c0.81,0.51,1.38,0.12,1.91,0.34c1.68,0.7,3.37,0.37,5.01-0.13
		c0.95-0.29,1.85-0.44,2.8-0.14c0.26,0.08,0.54,0.12,0.92-0.17c-2.1-1.07-4.29-1.25-6.49-1.38
		C192.39,328.7,191.22,329.51,189.76,330.26z M186,225.46c0.07-1.96,0.42-3.45,0.77-5.09c-1.11,0.12-1.56,0.78-1.78,1.54
		C184.67,223.05,184.83,224.15,186,225.46z M161.14,176.1c0.81,3.03,1.64,5.97,3.07,8.7C163.47,181.78,162.59,178.8,161.14,176.1z
		 M186.61,218.38c-1.18-0.55-1.63,0.2-2.1,0.72c-0.87,0.96-1.22,2.14-1.02,3.27C184.61,221.12,185.68,219.9,186.61,218.38z
		 M193.53,347.83c-1.45-0.89-3.05-1.32-4.7-1.59c-0.33-0.05-0.64,0.15-0.61,0.74C189.91,347.57,191.72,347.68,193.53,347.83z
		 M194.75,349.09c-1.62,0.15-2.89,0.16-3.98,0.95C192.03,350,193.3,350.01,194.75,349.09z"/>
	<path class="st0" d="M324.8,168.76c0.76,1.36,0.89,2.88,1.22,4.31c1.32,5.72,2.57,11.46,3.81,17.2c1.06,4.94,2.05,9.9,3.12,14.84
		c1.1,5.07,1.97,10.19,2.77,15.32c0.52,3.3,0.79,6.65,1.14,9.97c0.53,4.97,1.68,9.83,2.51,14.74c1.06,6.26,2.09,12.52,2.8,18.84
		c0.34,3.05,0.63,6.1,0.84,9.16c0.27,3.95,0.22,7.91,0.46,11.86c0.17,2.93,0.15,5.87,0.32,8.8c0.42,7.23,0.37,14.48,0.43,21.71
		c0.03,3.61,0.25,7.24-0.4,10.84c-0.17,0.93-0.02,1.91-0.07,2.87c-0.22,3.82-0.36,7.64-0.72,11.45c-0.29,3.13-0.32,6.28-0.64,9.41
		c-0.34,3.32-0.87,6.63-1.38,9.93c-0.24,1.55-0.69,3.06-0.96,4.6c-0.56,3.2-1.8,6.16-3.19,9.06c-3.27,6.78-6.69,13.48-10.7,19.87
		c-0.93,1.48-2.14,2.66-3.28,3.91c-1.05,1.14-1.94,2.44-3.2,3.41c-0.37-0.57-0.12-1,0-1.45c1.06-3.91,1.49-7.91,1.89-11.93
		c0.48-4.91,0.39-9.84,0.23-14.76c-0.14-4.43-0.74-8.82-2.76-13.03c-1.59,1.1-2.44,2.79-3.74,4.03c-1.39,1.32-2.76,2.66-4.17,3.96
		c-1.35,1.26-2.75,2.47-4.11,3.71c-1.34,1.23-2.69,2.46-4.24,3.44c-0.34-0.53,0.04-0.85,0.19-1.2c1.57-3.73,2.78-7.56,3.49-11.54
		c0.18-1,0.21-2.04,0.25-3.06c0.15-3.98-0.01-7.94-1.01-11.81c-0.3-1.18-0.62-2.39-1.66-3.45c-0.3,0.43-0.63,0.81-0.86,1.24
		c-2.42,4.47-5.45,8.54-8.3,12.73c-0.75,1.11-1.66,2.12-2.97,3.05c-0.44-7.42-1.94-14.25-6.15-20.36c-0.87,0.63-1.01,1.45-1.25,2.2
		c-0.71,2.22-1.52,4.39-2.51,6.51c-0.53,1.12-1.12,2.18-1.89,3.16c-1.32,1.66-2.55,3.39-3.93,5c-0.89,1.03-1.94,1.92-2.97,2.83
		c-2.15,1.9-4.32,3.76-6.77,5.89c0.87-5.75,1.7-11.15,1.32-16.65c-0.8,0.06-0.82,0.53-0.97,0.88c-1.75,4.24-3.35,8.53-4.9,12.85
		c-1.04,2.91-2.47,5.63-4.02,8.3c-0.2,0.35-0.38,0.73-0.8,0.9c-0.39-0.44-0.47-0.98-0.61-1.51c-1.58-5.66-3.17-11.32-4.78-16.98
		c-0.34-1.2-0.51-2.39-0.48-3.64c0.04-1.83,0.29-3.67,0.19-5.48c-0.21-3.81-0.3-7.65-1.19-11.39c-0.65-2.73-1.43-5.42-2.41-8.05
		c-0.1-0.26-0.2-0.51-0.32-0.75c-1.65-3.23-3.22-6.5-5-9.66c-0.95-1.69-1.61-3.45-2.26-5.25c-0.8-2.2-0.83-4.29-0.32-6.58
		c1.1-4.93,1.98-9.91,2.83-14.9c0.58-3.43,0.98-6.89,1.39-10.35c0.59-5.02,1.11-10.04,1.68-15.06c0.05-0.4,0.19-0.8,0.32-1.18
		c1.76-5.11,3.23-10.3,4.38-15.59c0.8-3.67,2.03-7.24,2.94-10.89c0.94-3.78,1.83-7.58,2.28-11.45c0.09-0.76,0.27-1.48,0.69-2.12
		c1.57-2.41,3.14-4.81,4.72-7.21c0.62-0.93,1.45-1.56,2.47-2.07c7.52-3.83,14.7-8.2,21.42-13.32c1.9-1.45,3.95-2.72,5.9-4.1
		c6.76-4.8,13.27-9.91,19.77-15.04c4.51-3.56,8.99-7.17,13.49-10.74C324.29,168.85,324.51,168.85,324.8,168.76z"/>
	<path class="st0" d="M115.44,412.97c-1.58-6.74-2.9-13.53-2.94-20.45c-0.84-0.26-1.34,0.15-1.86,0.47
		c-4.42,2.67-8.42,5.86-12.06,9.52c-1.84,1.85-3.79,3.6-5.49,5.56c-1.94,2.24-3.99,4.42-5.41,7.51c-0.7-3.07-0.99-5.78-0.78-8.55
		c0.21-2.71,0.1-5.45,0.55-8.09c-0.61-0.22-0.78,0.05-0.98,0.35c-0.72,1.08-1.51,2.12-2.21,3.21c-1.37,2.14-2.57,4.35-3.04,6.91
		c-0.13,0.73-0.49,1.42-0.75,2.13c-2.38,6.44-4.08,13.05-4.93,19.87c-0.3,2.42-0.8,4.86-0.06,7.31c-0.73,0.06-0.77-0.43-0.96-0.75
		c-1.99-3.37-3.48-6.98-5.22-10.47c-2.53-5.1-4.02-10.61-6.16-15.87c-1.48-3.62-2.43-7.39-3.44-11.16
		c-1.19-4.42-1.93-8.95-3.12-13.36c-0.54-1.98-1.11-3.95-1.62-5.94c-1.17-4.57-2.17-9.17-2.93-13.83
		c-0.74-4.52-1.38-9.05-2.17-13.56c-0.47-2.69-1.09-5.36-1.74-8.01c-0.78-3.2-1.08-6.46-1.54-9.7c-0.76-5.27-1.03-10.59-1.81-15.87
		c-0.51-3.43-0.94-6.9-1.1-10.39c-0.14-3.13-0.47-6.26-0.76-9.39c-0.1-1.09-0.36-2.16-0.44-3.24c-0.38-5.25-0.43-10.49-0.04-15.74
		c0.24-3.2,0.43-6.41,0.66-9.61c0.2-2.77,0.29-5.58,0.92-8.32c0.27-1.19,0.21-2.44,0.44-3.66c0.19-1.01,0.34-2.02,0.65-3
		c0.1-0.32,0.23-0.67,0.22-0.99c-0.11-3.44,0.56-6.81,0.91-10.2c0.38-3.65,0.78-7.32,1.84-10.89c0.71-2.41,0.99-4.95,1.35-7.45
		c0.7-4.88,1.75-9.68,2.76-14.5c0.7-3.34,1.51-6.66,2.13-10.02c0.54-2.95,0.9-5.94,1.31-8.92c0.5-3.65,0.97-7.31,1.47-10.97
		c0.39-2.84,0.68-5.7,1.23-8.51c1.19-6.03,2.12-12.11,3.07-18.18c0.25-1.62,0.54-3.23,0.57-4.88c0.02-1.18,0.68-2.2,0.84-3.37
		c0.47-3.45,1.02-6.89,1.64-10.31c0.62-3.42,1.41-6.82,2.04-10.24c0.81-4.36,1.78-8.69,2.41-13.09c0.27-1.89,0.81-3.74,1.34-5.58
		c1.16-4,2.28-8.03,3.63-11.97c2.39-6.93,3.9-14.1,6.12-21.07c1.16-3.64,2.11-7.38,3.5-10.92c1.41-3.56,2.41-7.21,3.47-10.85
		c1.06-3.61,1.94-7.27,2.94-10.89c0.82-2.97,1.67-5.92,2.56-8.87c0.23-0.76,0.45-1.58,1.3-2.28c0.25,0.94,0.46,1.75,0.7,2.55
		c1.32,4.39,2.67,8.77,3.96,13.17c1.94,6.63,3.67,13.33,5.81,19.89c2.14,6.53,3.25,13.28,4.89,19.91
		c1.64,6.64,3.23,13.29,4.68,19.97c0.57,2.59,0.92,5.24,1.45,7.85c1.54,7.5,3.35,14.94,5.14,22.39c1.01,4.19,1.78,8.43,2.8,12.61
		c1.23,5.05,2.14,10.17,3.33,15.23c0.72,3.06,1.61,6.08,2.61,9.06c0.41,1.24,0.78,2.72,2.49,3.07c0.41,0.09,0.74,0.58,1.11,0.89
		c1.56,1.35,3.25,2.5,5.09,3.45c0.61,0.31,1.24,0.59,1.63,1.18c0.01,0.46-0.23,0.78-0.54,1.15c-3.44,0.5-6.59-0.59-9.67-1.98
		c-2.82-1.28-5.39-2.98-7.92-4.75c-0.49-0.35-0.91-0.83-1.65-0.93c-1.15,1.91-0.3,3.78,0.26,5.78c-5.18,0.21-10.07-0.46-14.83-2.01
		c-0.7,1.2-0.19,2.05,0.3,2.85c0.69,1.14,1.74,1.91,2.88,2.56c0.64,0.36,1.41,0.53,2.01,1.25c-1.94,1.06-3.78,2.16-5.43,3.57
		c-1.15,0.98-2.24,2.02-3.14,3.24c-0.32,0.44-0.63,0.9-0.86,1.39c-0.59,1.27-0.23,1.75,1.17,2.11c0.53,0.14,1.07-0.28,1.59,0.19
		c-0.62,0.74-1.24,1.46-1.84,2.2c-0.6,0.75-1.26,1.46-1.75,2.28c-2.51,4.24-5.19,8.38-7.43,12.78c-0.47,0.91-0.9,1.85-1.29,2.79
		c-1.15,2.74-3.12,4.98-4.64,7.5c-2.43,4.05-4.83,8.12-7.12,12.25c-0.56,1.02-1.17,2.02-1.85,2.95c-3.03,4.15-5.71,8.54-8.43,12.89
		c-3.3,5.28-6.36,10.71-9.36,16.17c-1.69,3.07-3.89,5.79-6.29,8.34c-0.66,0.7-1.36,1.36-1.99,2.08c-1.03,1.2-2.33,1.83-3.87,2.1
		c-0.66,0.12-1.38-0.06-2.1,0.41c-0.19,1.3,1.18,1.67,1.68,2.67c-1.24,2.15-3.18,4.15-2.68,6.84c0.96,0.72,1.58-0.1,2.3,0.15
		c0.31,1.19-0.17,2.43,0.13,3.64c0.15,0.59,0.16,1.22,0.3,1.81c0.3,1.21,0.37,1.24,1.96,1.15c0.3,2.21,0.58,4.43,0.92,6.64
		c0.47,3.04,1.11,6.05,1.94,9.02c0.89,3.19,2.35,6.13,3.91,9.02c1.43,2.65,2.99,5.23,4.57,7.79c2.17,3.5,4.8,6.66,7.48,9.77
		c1.34,1.55,2.7,3.09,4.07,4.62c4.12,4.58,8.14,9.25,12.62,13.49c1.73,1.64,3.23,3.53,4.84,5.3c1.33,1.47,2.58,3.03,4.02,4.39
		c2.27,2.13,4.12,4.61,5.86,7.13c1.82,2.63,3.63,5.31,4.92,8.28c0.73,1.68,1.81,3.02,3.57,3.77c1.67,0.71,2.94,1.93,4.1,3.32
		c1.23,1.47,2.58,2.84,4.14,3.98c1.99,1.46,4.13,2.43,6.68,2.04c0.12-0.02,0.25,0.06,0.51,0.14c0.22,1.43,0.17,2.92,0.03,4.4
		c-0.03,0.35-0.23,0.61-0.48,0.87c-1.91,2.06-3.3,4.52-5.15,6.64c-0.75,0.86-1.16,2.01-1.71,3.03
		C116.06,412.51,116.02,412.88,115.44,412.97z"/>
	<path class="st0" d="M285.39,666.35c-3.77-0.06-7.31-0.94-10.71-2.34c-3.42-1.41-6.57-3.28-9.17-5.87
		c-0.77,0.49-0.09,0.97-0.34,1.48c-2.73-1.85-4.5-4.25-5.01-7.55c0.72-0.43,1.3-0.53,1.76,0.07c0.73,0.95,1.77,1.27,2.85,1.48
		c1.26,0.24,2.51,0.71,3.86,0.53c0.06-0.58-0.42-0.59-0.74-0.73c-0.94-0.42-1.88-0.83-2.81-1.25c-0.42-0.19-0.95-0.26-1.06-0.98
		c1.15-0.44,2.23,0.25,3.33,0.24c1.1-0.01,2.19,0.08,3.36-0.19c-0.77-0.49-1.57-0.58-2.39-0.63c-1.91-0.1-3.8-0.41-5.67-0.86
		c-0.65-0.16-1.3-0.34-1.97-0.85c1.62-1.86,4.16-2.17,5.81-3.93c-2.23-1.18-4.37-2.23-6.43-3.62c0.9-2.04,3.13-2.49,4.35-4.04
		c-1.59,0.05-3.18,0.8-5.39,2.55c-1.38-0.43-2.75-0.99-4.08-1.72c-0.81-3.03-0.19-5.84,1.07-8.57c1.18-2.55,2.96-4.69,4.71-7.07
		c0.71,1.4-0.16,2.65,0.37,3.82c0.94-0.1,1.57-0.61,2.19-1.32c2.7-3.05,5.92-5.43,9.64-7.47c0.24,1.51-0.73,2.6-0.75,4.2
		c1.59-1.53,2.64-3.04,3.08-4.92c0.18-0.75-0.38-1.31-1.21-1.26c-0.58,0.03-1.16,0.19-2.02,0.33c2.14-1.62,4.32-2.62,6.44-3.71
		c4.5-2.33,9.03-4.6,13.37-7.21c1.53-0.92,2.96-1.97,4.36-3.07c0.26-0.21,0.5-0.46,0.95-0.33c0.23,1.03-0.2,2.01-0.42,2.98
		c-0.74,3.28-1.97,6.4-3.25,9.5c-0.32,0.79-0.85,1.41-1.54,1.88c-0.65,0.44-1.03,1.09-1.44,1.72c-0.23,0.35-0.33,0.75,0.03,1.2
		c0.74,0.02,1.17-0.61,1.63-1.03c1.41-1.25,3.02-2.13,4.71-2.89c2.19-0.99,4.3-2.12,6.25-3.53c3.93-2.84,6.81-6.5,8.48-11.08
		c0.07-0.18,0.17-0.36,0.29-0.61c0.8,0.32,0.47,1.47,1.32,1.7c0.84-0.33,0.62-1.27,1.06-1.94c0.82,0.81,1.24,1.79,1.62,2.81
		c1.8,4.75,2.39,9.66,2.22,14.71c-0.15,4.52-1.35,8.75-3.36,12.78c-0.64,1.29-1.26,2.58-1.88,3.88c-0.09,0.2-0.09,0.39,0.13,0.7
		c1.82,0.08,3.17-1.14,4.64-2.04c1.45-0.9,2.63-2.16,4.06-3.32c0.79,1.75,0.99,3.51,1.33,5.22c0.59,3.02,1.01,6.08,0.84,9.17
		c-0.22,4.07-1.07,8.01-2.95,11.65c-2.42,4.69-6.42,7.58-11.25,9.4c-5.14,1.94-10.49,2.64-15.94,2.22
		c-4.28-0.33-8.33-1.55-11.95-3.97c-0.45-0.3-0.92-0.6-1.41-0.84c-0.24-0.11-0.54-0.07-0.74,0.19c-0.18,0.24-0.17,0.5-0.1,0.78
		c0.12,0.44,0.52,0.62,0.83,0.88c1.18,0.97,2.59,1.53,3.95,2.17C284.68,666.01,285.03,666.18,285.39,666.35z"/>
	<path class="st0" d="M307.73,104.64c-1.11,0.19-1.93-0.25-2.79-0.4c-4.26-0.71-8.38-1.97-12.44-3.41
		c-0.77-0.27-1.52-0.62-2.25-0.98c-4.16-2.08-8.31-4.2-12.61-5.98c-1.64-0.68-3.33-1.25-4.94-1.99c-2.73-1.26-5.39-2.67-8.13-3.92
		c-1.67-0.76-3.43-1.35-5.15-1.99c-0.72-0.27-1.4-0.56-1.89-1.18c-2.31-2.91-5.57-3.52-8.99-3.67c-2.05-0.09-4.11-0.04-6.17-0.01
		c-1.84,0.02-3.65-0.23-5.5-0.52c-0.25-1.75,0.25-3.35,0.48-4.94c0.55-3.99,1.23-7.96,1.53-11.98c0.21-2.86,0.46-5.71,0.77-8.56
		c0.26-2.37,0.59-4.74,0.95-7.1c0.29-1.89,0.49-3.79,0.66-5.69c0.36-4.08,0.87-8.14,1.15-12.23c0.29-4.43,0.99-8.81,1.38-13.23
		c0-0.05,0.07-0.1,0.09-0.14c0.14,0,0.32-0.06,0.4,0.01c3.31,2.54,6.52,5.16,9.34,8.29c1.96,2.18,3.83,4.48,6.16,6.3
		c0.32,0.25,0.59,0.58,0.81,0.92c1.15,1.81,2.63,3.33,4.15,4.81c0.84,0.82,1.61,1.69,1.97,2.83c0.31,0.98,1.12,1.54,1.86,2.11
		c0.72,0.55,1.31,1.18,1.81,1.93c1.92,2.84,4.09,5.48,6.23,8.15c2.48,3.1,4.76,6.36,6.97,9.64c3.02,4.48,5.95,9.03,8.9,13.56
		c0.71,1.09,1.3,2.25,2,3.35c0.38,0.6,0.59,1.38,1.6,1.37c0.49,0,0.64,0.66,0.88,1.06c1.7,2.81,3.22,5.73,4.59,8.72
		c2.14,4.66,4.27,9.33,5.98,14.17C307.58,104.12,307.63,104.32,307.73,104.64z"/>
	<path class="st0" d="M165.02,87.47c-2.28,0.34-4.22-0.67-6.34-1.24c-0.23-2.76,0.88-5.1,2.18-7.78c-1.05,0.53-1.27,1.18-1.58,1.78
		c-0.3,0.59-0.6,1.17-1.06,2.05c-0.37-2.81-0.1-5.22,0.42-7.62c0.85-3.88,2.67-7.26,4.98-10.47c5-6.96,11.84-11.49,19.43-15.04
		c4.84-2.27,9.89-3.99,15.13-5.12c2.67-0.57,5.37-0.97,8.06-1.44c0.24-0.04,0.54-0.07,0.79,0.34c-3.44,3.82-6.76,7.79-8.75,12.67
		c-4.26,0.09-8.4,0.73-12.57,1.71c0.36,0.69,0.82,0.77,1.32,0.68c4.13-0.76,8.31-0.64,12.48-0.59c1.29,0.01,2.62,0.1,3.86,0.43
		c4.35,1.17,8.75,2.1,12.87,4.12c3.37,1.66,6.78,3.25,10.2,4.84c0.61,0.29,1.25,0.52,1.76,1.31c-0.82,0.21-1.5,0.39-2.19,0.56
		c-3.79,0.96-7.42,2.42-10.99,3.99c-3.51,1.54-7.03,3.05-10.36,4.97c-0.46,0.27-0.88,0.25-1.37,0.16c-1.12-0.21-2.17-0.79-3.36-0.7
		c-0.03,0.6,0.42,0.72,0.74,0.91c0.94,0.56,1.88,1.12,2.85,1.63c5.89,3.12,10,7.95,13.17,13.68c0.26,0.48,0.51,0.98,0.65,1.5
		c0.23,0.84,0.77,1.6,0.78,2.47c-0.45,0.47-0.82,0.07-1.16-0.03c-4.55-1.37-9.2-2.04-13.94-2.12c-1.44-0.02-2.86-0.29-4.29-0.27
		c-4.58,0.06-9.15,0.35-13.66,1.22c-0.4,0.08-0.79,0.22-1.18,0.35c-1.74,0.55-1.73,0.55-1.58,2.33c0.12,1.38-0.01,2.74-0.32,4.08
		c-1.03,4.4-3.53,7.89-6.92,11.28c0-1.07-0.01-1.8,0-2.52c0.07-3.98-1.24-7.51-3.5-10.74c-2.19-3.11-5.06-5.57-7.69-8.26
		c-1.05-1.08-1.13-1.3-0.38-2.62C163.98,89.13,164.5,88.33,165.02,87.47z"/>
	<path class="st0" d="M122.56,555.33c-1.6-2.4-3.58-4.45-4.87-7.07c-1.93-3.93-4.15-7.71-6.24-11.56
		c-3.82-7.05-6.15-14.59-7.58-22.45c-0.89-4.91-1.9-9.79-2.72-14.71c-0.49-2.96-0.75-5.96-1.03-8.95c-0.15-1.57,0.22-3.13,0.41-4.69
		c0.46-3.66,0.89-7.32,1.61-10.94c1.13-5.63,2.15-11.29,4.14-16.7c1.08-2.95,2.22-5.89,3.26-8.86c0.55-1.57,1.58-2.86,2.24-4.37
		c3.53-8.01,7.04-16.03,10.09-24.24c0.18-0.49,0.4-0.97,0.83-1.39c0,0.91,0,1.82,0,2.74c0,7.81,0.11,15.63-0.05,23.44
		c-0.08,3.83-0.33,7.66-0.19,11.48c0.11,3.13,0.25,6.27,0.6,9.4c0.3,2.65,0.41,5.31,0.6,7.97c0.29,4.15,0.47,8.31,1.06,12.44
		c0.74,5.22,1.08,10.47,1,15.74c-0.02,1.44-0.05,2.88,0.01,4.32c0.13,3.16-0.51,6.26-0.75,9.39c-0.07,0.89-0.18,1.77-0.21,2.66
		c-0.15,3.48-0.27,6.97-0.43,10.45c-0.03,0.75-0.19,1.49-0.26,2.23c-0.16,1.73,0.25,3.4,0.49,5.09c0.16,1.15,0.38,2.29,0.61,3.43
		c0.33,1.61-0.17,3.15-0.48,4.66c-0.61,2.95-0.98,5.93-1.53,8.88C123.06,554.25,122.99,554.79,122.56,555.33z"/>
	<path class="st0" d="M283.1,141.09c-1.5,0.77-2.95,1.5-4.4,2.25c-4.55,2.37-9.26,4.42-13.78,6.88c-5.24,2.84-10.3,5.97-15.38,9.08
		c-0.35,0.21-0.7,0.45-0.99,0.72c-0.91,0.85-1.8,1.25-3.12,0.69c-0.83-0.35-1.87-0.22-2.93-0.32c0.29-1.47,1.55-2.44,1.79-3.86
		c-0.36-0.84-1.1-0.91-1.88-0.95c-2.11-0.12-4.04,0.6-5.97,1.3c-0.64,0.23-1.26,0.53-1.88,0.8c-0.5-0.43-0.05-0.77,0.11-1.08
		c0.45-0.84,0.96-1.66,1.46-2.47c0.14-0.23,0.35-0.43,0.47-0.67c0.19-0.38,0.29-0.79-0.06-1.14c-0.26-0.26-0.58-0.27-0.95-0.18
		c-2.43,0.58-4.62,1.67-6.63,3.14c-1.21,0.88-2.16,2.03-3.22,3.13c-0.66-0.57-0.47-1.36-0.81-1.88c2.38-3.78,3.96-7.83,5.12-12.06
		c1.3-4.77,2.1-9.6,2.23-14.55c0.04-1.43,0.19-2.87,0.42-4.28c0.3-1.83,0.37-3.67,0.42-5.64c1.68-1.29,3.38-2.65,5.26-3.67
		c6.22,2.52,12.34,5.06,18.51,7.47c3.03,1.18,5.87,2.67,8.45,4.59c5.1,3.81,10.39,7.36,15.62,10.97
		C281.69,139.86,282.46,140.32,283.1,141.09z"/>
	<path class="st0" d="M212.74,619.09c1.02,6.65,2.06,13.38,3.13,20.33c-1.96-0.89-3.68-1.66-5.4-2.43c-1-0.44-2-0.9-3.02-1.29
		c-3.27-1.26-6.25-3.07-9.26-4.83c-4.31-2.52-8.72-4.86-12.78-7.79c-4.83-3.48-9.54-7.12-14.26-10.73c-0.82-0.63-1.04-1.2-0.76-2.26
		c1.94-7.27,2.86-14.73,4.1-22.14c0.13-0.8,0.14-1.63,0.2-2.42c0.63-0.21,0.78,0.27,0.98,0.58c1.54,2.36,3.43,4.43,5.38,6.44
		c4.34,4.47,8.96,8.65,13.43,12.99c1.57,1.52,3.27,2.9,4.94,4.31c0.43,0.36,0.82,0.87,1.6,0.63c0.56-0.17,0.95,0.45,1.36,0.76
		c2.17,1.65,4.3,3.36,6.46,5.02C210.1,617.21,211.39,618.11,212.74,619.09z"/>
	<path class="st0" d="M130.22,49.4c0.69,2.31,1.25,4.43,1.96,6.48c1.49,4.3,2.05,8.77,2.6,13.24c0.5,4,1.04,7.99,1.55,11.98
		c0.07,0.54,0.08,1.09,0.07,1.64c-0.04,3.7,0.19,7.37,0.64,11.04c0.23,1.89,0.11,3.83,0.17,5.75c0.03,0.88,0.14,1.76,0.22,2.76
		c-1.28,0.28-1.67,1.32-1.87,2.51c-0.15,0.95-0.14,1.91-0.07,2.87c0.05,0.68,0.08,1.36,0.12,2.05c-0.96,0.06-1.3-1.06-2.2-0.97
		c-0.81,0.22-0.58,1.18-1.18,1.68c-1.18-0.46-2.05-1.3-2.64-2.39c-1.6-2.97-2.73-6.07-2.81-9.52c-0.11-4.71,0.21-9.39,0.79-14.06
		c0.07-0.61,0.05-1.23,0.06-1.85c0.01-0.89-0.05-1.78,0.27-2.64c0.11-0.31,0.16-0.68,0.13-1.01c-0.31-3.68,0.11-7.35,0.25-11.01
		c0.1-2.64,0.06-5.33,0.55-7.96c0.1-0.53,0.03-1.09,0.04-1.64c0.05-2.33,0.14-4.66,0.12-6.98C128.97,50.5,129.38,50,130.22,49.4z"/>
	<path class="st0" d="M199.19,407.1c1.51,3.7,3.58,6.69,6.81,8.75c0.41,0.26,0.87,0.39,1.35,0.1c0.34-0.46,0.1-0.92-0.02-1.37
		c-0.67-2.55-0.71-5.09-0.36-7.71c0.37-2.77,0.86-5.53,0.89-8.34c0.01-0.75-0.03-1.49-0.22-2.23c-0.31-1.25-0.29-2.53-0.26-3.83
		c0.05-2.63,1.18-4.7,2.72-6.82c0.46,0.35,0.49,0.89,0.52,1.26c0.36,5.11,1.63,10.11,1.88,15.23c0.29,6.15-0.65,12.11-2.89,17.86
		c-1.65,4.22-3.59,8.28-6.18,12.01c-0.58,0.84-1.18,1.69-1.89,2.42c-0.86,0.89-1.85,1.66-3.28,1.18c-0.37-0.41-0.47-0.97-0.52-1.49
		c-0.18-1.9-0.36-3.81-0.43-5.72c-0.1-3.01-0.08-6.02-0.16-9.03c-0.05-2.17-0.17-4.34-0.28-6.5c-0.03-0.63,0.02-1.19,0.34-1.77
		C197.87,409.9,198.43,408.65,199.19,407.1z"/>
	<path class="st0" d="M182.64,400.58c0.38,0.37,0.27,0.8,0.24,1.17c-0.44,4.81,0.64,9.38,2.09,13.9c0.55,1.7,1.2,3.35,2.16,4.87
		c0.18,0.29,0.33,0.61,0.55,0.86c0.53,0.61,1.23,0.67,1.77,0.05c0.9-1.03,2.03-1.83,2.82-2.97c0.34-0.5,0.77-0.93,1.33-1.31
		c-0.13,5.81-0.07,11.56-0.65,17.24c-0.85,0.43-1.54,0.21-2.21-0.2c-5.42-3.31-9.3-7.79-10.73-14.13c-0.16-0.73-0.32-1.48-0.35-2.22
		c-0.17-3.59-0.78-7.16-0.22-10.77c0.13-0.87,0.06-1.78,0.02-2.67c-0.04-1.06,0.34-1.85,1.22-2.44
		C181.35,401.52,181.87,400.86,182.64,400.58z"/>
	<path class="st0" d="M216.02,88.66c-1.18-1.46-2.06-2.63-3.02-3.73c-0.99-1.13-2.06-2.19-3.33-3.52c0-1.2,0-2.75,0-4.45
		c1.85-0.9,3.72-1.98,5.98-2.73C216.31,78.97,216.21,83.6,216.02,88.66z"/>
	<path class="st0" d="M213.02,58.94c-1.93-0.62-3.81-1.22-5.85-1.88c-0.05-1.1-0.09-2.24-0.14-3.38c-0.1-2.32,0.24-4.65-0.25-6.95
		c-0.1-0.47-0.02-0.96,0.42-1.35c0.42,0.08,0.86,0.16,1.37,0.25c2.46,3.34,3.05,7.45,4.26,11.32c0.16,0.52,0.24,1.06,0.34,1.6
		C213.2,58.58,213.14,58.65,213.02,58.94z"/>
	<path class="st0" d="M255.53,640.07c0.81-0.03,1.43,0.49,2.15,0.65c0.35,0.08,0.64,0.29,0.74,0.64c0.43,1.49,1.63,2.11,2.91,2.64
		c1.13,0.46,2.27,0.87,3.58,1.37c-1.97,1.17-4.16,1.69-5.56,3.07c-0.21,1.01,0.87,0.86,0.82,1.56c-1.21,0.21-2.38,0.14-3.62-0.45
		C256.79,646.34,255.45,643.3,255.53,640.07z"/>
	<path class="st0" d="M209.18,97.22c1.33,0.07,2.53-0.11,3.65,0.63c-0.41,1.37-1.47,2.4-2.05,3.69c-0.28,0.62-0.92,0.96-1.82,1.08
		C209.19,100.84,209.25,99.09,209.18,97.22z"/>
	<path class="st0" d="M183.85,210.62c-1-0.55-1.92-1.09-2.96-1.57c0.12-1.02,0.23-2.01,0.36-3.23
		C182.64,207.28,183.11,209.01,183.85,210.62z"/>
</g>
</svg>
