<?xml version="1.0" encoding="utf-8"?>
<!-- Generator: Adobe Illustrator 24.1.1, SVG Export Plug-In . SVG Version: 6.00 Build 0)  -->
<svg version="1.1" id="Layer_1" xmlns="http://www.w3.org/2000/svg" xmlns:xlink="http://www.w3.org/1999/xlink" x="0px" y="0px"
	 width="472.53" height="2703.06" viewBox="0 0 472.53 2703.06" style="enable-background:new 0 0 472.53 2703.06;" xml:space="preserve">
<style type="text/css">
	.st0{fill:#1A1A1A;}
</style>
<g>
	<path d="M52.4,1467.89c2.84-8.39,1.69-17.07,1.7-25.63c0.09-50.99,0.04-101.98,0.06-152.97c0-3.16-1.05-6.88,3.79-7.92
		c1.25-0.27,1.26-1.92,1.14-3.05c-0.38-3.38,1.14-6.93-1.18-10.15c-1.08-1.49,1.29-2.26,1.26-3.89c-0.16-9.33-0.07-18.66-0.08-27.99
		c0-1.44-0.46-2.69-2.08-2.98c-2.64-0.46-2.86-2.37-2.86-4.5c0.01-20.5,0.01-40.99,0-61.49c0-2.13,0.24-4.01,2.87-4.49
		c1.91-0.35,2.12-1.92,2.08-3.48c-0.4-15.3,0.78-30.62-0.64-45.93c-0.77-8.29,2.07-15.88,7.39-22.16c2.51-2.96,3.48-5.81,3.31-9.47
		c-1.36-29.62-0.97-59.26-1.02-88.89c-0.02-12,0-23.99,0-35.99c0-5.95,0-5.95,5.39-7.99c-4.71-1.53-8.32-3.78-9.42-8.79
		c-1.26-5.77,1.65-11.22,7.23-12.98c2.35-0.74,5.42-0.34,6.96-2.22c1.84-2.25,0.71-5.46,0.8-8.24c0.13-4-0.12-8,0.07-11.99
		c0.16-3.37-1.04-4.96-4.46-5.93c-9.89-2.8-17.57-8.53-21.86-18.21c-6.35-14.31-0.66-32.24,13.21-38.99c3.12-1.52,6.07-3.45,9.7-3.8
		c2.34-0.23,3.36-1.82,3.37-4.18c0-3.01,0.01-5.93-1.52-8.73c-3.47-6.37-2.99-12.7,0.26-19.12c3.35-6.6,3.43-13.26-0.09-20.03
		c-3.57-6.86-3.37-13.58,1.13-20.29c3.72-5.53,3.46-11.7,0.13-17.4c-2.02-3.46-3.07-6.95-2.9-10.9c0.1-2.44,0.06-4.78-3.34-4.96
		c-1.82-0.1-2.54-1.38-2.6-3.08c-0.04-1-0.06-2-0.06-3c0-27.33,0.01-54.66-0.01-81.98c0-3.09-0.29-6.14,4.19-6.4
		c1.62-0.09,1.8-1.77,1.8-3.14c0-9,1.24-18.23-0.4-26.92c-1.43-7.54-2.36-14.24,0.15-21.75c2.02-6.06-0.7-12.45-1.86-18.63
		c-0.03-0.16-0.05-0.39-0.16-0.46c-6.14-3.94-2.93-10.13-3.67-15.36c-0.23-1.63-0.01-3.33-0.04-4.99c-0.06-2.8-0.04-5.3,3.85-5.66
		c2.63-0.24,2.27-2.45,1.62-4.27c-0.67-1.88-1.66-3.64-2.28-5.53c-2.84-8.64-0.17-16.79,7.44-21.82c2.91-1.92,4.53-4.01,4.42-7.67
		c-0.78-27.14,1.57-54.25,0.98-81.39c-0.19-8.66-0.05-17.33-0.01-25.99c0.01-1.82,0.07-3.67,0.38-5.47c0.63-3.61,1.85-7.2-2.76-9.39
		c-0.9-0.43-1.15-2.3-1.63-3.54c-0.54-1.43-1.04-3.01-2.76-3.24c-3.28-0.45-3.28-2.75-3.22-5.18c0.04-1.5,0.03-3,0.02-4.5
		c-0.02-1.37-0.14-2.87-1.69-3.28c-3.51-0.94-3.46-3.65-3.33-6.36c0.2-4.25-0.93-7.72-3.32-11.53c-5.55-8.84-6.46-22.95,5.48-31.69
		c2.91-2.13,4.05-4.46,4-7.94c-0.14-10-0.05-19.99-0.05-29.99c0-2.51-1.45-4.36-2.39-6.48c-2.14-4.84-6.52-7.77-8.67-12.37
		c-4.6-9.8-2.43-20.64,6.01-27.41c3.75-3.01,5.65-6.37,5.03-11.15c-0.13-0.98-0.02-2-0.02-3c0.01-6.88,2.45-9.38,9.39-9.53
		c1.33-0.03,2.67,0.04,3.99,0.19c1.55,0.18,3.03-0.35,3.07-1.81c0.16-5.31,3.32-10.11,2.45-15.57c-0.21-1.32-0.07-2.98-1.67-3.27
		c-3.5-0.63-3.34-3.14-3.33-5.69c0.02-4.83,0.02-9.66,0.01-14.5c-0.01-2.13,0.25-3.99,2.89-4.47c1.91-0.35,2.15-1.84,1.93-3.47
		c-0.23-1.71-1.51-2.01-2.92-2.09c-0.67-0.03-1.35-0.15-2-0.03c-6.65,1.25-10.9-1.79-14.43-7.21c-4.62-7.1-9.84-13.82-14.71-20.77
		c-1.45-2.07-3.06-3.83-5.11-5.37c-12.88-9.66-11.27-29.21,2.92-36.71c5.42-2.87,11.19-4.18,17.28-4.24
		c4.83-0.05,9.67,0.05,14.5-0.03c4.25-0.07,4.6-0.38,4.63-4.58c0.08-9,0.11-18,0.01-26.99c-0.04-3.3,0.76-6.14,2.7-8.86
		c4.44-6.24,8.37-12.82,12.95-18.97c2.15-2.88,4.28-5.76,4.63-9.75c0.31-3.62,6.2-7.44,11.25-7.7c5.83-0.3,11.21,1.09,15.61,5.3
		c4.63,4.43,4.76,4.49,8.91,0.1c7.69-8.11,19.8-6.29,25.63-0.37c2.99,3.04,6.2,3.62,10.2,3.98c17.8,1.58,35.61,0.57,53.41,0.85
		c3.52,0.06,7.57,1.22,9.18-5.34c1.93,5.73,5.3,5.4,8.64,5.39c12.33-0.05,24.66-0.16,36.99,0.05c5.2,0.09,10.26-0.87,15.41-1.11
		c1.64-0.08,2.64-0.98,3.7-2.16c6.21-6.91,14.89-8.62,23.1-4.71c1.98,0.94,3.64,2.17,5,3.98c2.88,3.82,5.01,3.88,8.61,0.57
		c1.47-1.35,2.79-2.83,4.58-3.83c6.39-3.55,14.07-4.55,22.17,2.21c9,7.51,15.97,16.76,23.15,25.87c1.55,1.97,1.64,3.52,0.84,5.85
		c-1.35,3.89-4.19,7.22-4.54,11.89c8.22,1.04,16.06,2.61,15.51,13.21c1.4,1.52,2.98,1.14,4.43,1.15c5,0.05,10-0.01,15,0.03
		c5.66,0.05,6.17,0.57,6.2,6.41c0.04,7.17,0.01,14.33,0.01,21.5c0,16-0.03,31.99,0.02,47.99c0.01,3.14-0.15,5.92-4.69,5.58
		c4.56,2.49,8.89,4.7,12.34,8.48c7.51,8.24,8,20.8-0.69,29.72c-5.11,5.24-10.23,10.49-15.55,15.51c-3.08,2.91-4.6,7.54-9.38,8.61
		c-0.26,0.06-0.49,0.44-0.66,0.71c-1.39,2.22-0.17,11.65,1.98,14.31c6.98-3.91,11.74-11.05,19.58-13.94
		c-3.65,6.79-10.23,10.98-14.47,16.84c0.04,1.81,1.23,2.64,2.01,3.67c5.73,7.56,5.53,15.75,2.63,24.22
		c-0.88,2.58-2.71,4.52-4.65,6.41c-4.4,4.28-5.74,9.78-5.73,15.68c0.01,7,0.15,13.99,0.23,20.99c0.02,2.16-0.06,4.25,1.8,5.97
		c2.22,2.05,0.54,4.29-0.22,6.19c0.58,1.64,1.89,2.16,2.94,2.92c11.12,8.04,13.6,20.29,5.92,31.49c-2.42,3.53-2.41,7.12-2.38,10.93
		c0.02,2.75,0.01,5.28-3.42,6.34c-2.24,0.69-1.62,3.02-1.67,4.78c-0.06,2.23-0.03,4.28-2.78,5.18c-2.45,0.8-2.49,3.35-3.05,5.38
		c-0.63,2.26-1.02,4.49-3.58,5.61c-1.89,0.83-1.47,2.82-1.48,4.43c-0.1,14.97,0.76,29.9,1.84,44.82c0.04,0.5,0.18,1.03,0.06,1.49
		c-1.45,5.29,0.03,10.57-0.06,15.82c-0.31,17.66,1.03,35.27,1.39,52.9c0.24,11.63,0.34,23.28,0.88,34.9
		c0.36,7.78,1.47,15.48,5.8,22.42c4.56,7.31,4.07,14.62-1.66,21.24c-2.68,3.1-3.61,6.55-3.32,10.58c0.19,2.61,0.44,5.33-1.29,7.72
		c-0.44,0.6-0.65,1.66-0.46,2.37c1.34,5.06,0.5,10.27,0.94,15.3c2.07,1.22,4.03,0.75,5.99,0.58c9.94-0.82,19.09,0.87,27.28,7.2
		c15.67,12.11,15.51,35.09-0.74,46.62c-2.83,2.01-3.75,4.2-3.72,7.48c0.12,13.16,0.13,26.33,0,39.49c-0.03,3.47,1.03,5.76,3.96,7.91
		c17.87,13.13,16.08,39.44-5.53,50.41c-5.64,2.86-11.83,3.01-18.12,3.95c-0.77,6.39,1.26,12.42,0.96,18.54
		c-0.1,1.95,1.73,2.24,3.29,2.2c2.53-0.06,4.98,0.33,7.38,1.06c3.83,1.17,7.09,4.98,6.87,8.87c-0.32,5.4-1.58,8.34-6.6,10.04
		c-2.62,0.89-5.4,1.28-8.5,1.98c2.5,5.36,4.62,10.57,4.53,16.37c-0.03,1.76,1.55,2.29,2.94,2.98c5.5,2.74,9.07,6.77,10.12,13.23
		c0.85,5.2-0.95,9.16-3.95,12.82c-4.46,5.44-4.56,5.35,0.77,9.49c8.72,6.76,8.45,20.42-0.91,26.48c-3.44,2.22-5.13,4.85-5.91,8.62
		c-1.04,5.04-2.76,9.97-2.25,15.24c0.06,0.66-0.21,1.47,0.08,1.98c2.9,5.04,1.23,10.34,0.87,15.53c-0.45,6.53,1.42,12.9,1.1,19.41
		c-0.06,1.22,0.35,2.43,1.67,2.77c3.21,0.84,3.22,3.31,3.3,5.9c0.16,5.14-0.44,10.3,0.64,15.44c0.76,3.63-2.88,2.72-5.73,3.97
		c3.57,0.9,5.76,2.12,5.97,5.2c0.15,2.13,1.79,2.46,3.5,2.86c3.1,0.72,5.99,1.83,8.39,4.14c7.47,7.18,7.09,18.4-0.96,24.94
		c-3.93,3.2-3.79,4.53,0.79,7.11c11.12,6.26,12.06,19.89,1.92,27.71c-1.14,0.88-2.77,1.31-3.15,3.83c5.96,3.28,11,7.67,11.93,15.47
		c0.95,7.99-3.83,12.58-9.82,17.2c6.74,4.69,12.97,9.35,12.32,17.97c-0.61,8.15-5.62,13.26-12.77,15.9
		c-1.01,1.85-0.04,3.31-0.16,4.78c-0.12,1.48-0.59,2.69-2.21,2.85c-4.75,0.47-3.8,3.51-3.22,6.47c5.3,1.08,4.9,1.13,5.63,6.69
		c1.62,12.29,0.55,24.61,0.9,36.91c0.07,2.41,0.04,4.69-3.16,5.3c-1.89,0.36-1.91,2.18-1.8,3.66c0.44,5.89-1.32,11.93,1.64,17.67
		c0.87,1.69,0.39,3.87-0.32,5.84c-2.59,7.11-2.15,13.92,3.9,19.02c7.56,6.37,10.59,15.23,13.87,23.86c2.75,7.23-0.36,13.31-6,18.16
		c-3.98,3.43-4.01,3.74-0.12,7.03c9.43,7.96,9.4,18.94-0.08,26.85c-0.99,0.83-2.42,1.25-2.61,2.99c0.57,1.97,2.54,2.87,3.93,4.18
		c8.66,8.16,6.27,17.94-0.82,24.38c-4,3.63-4.06,3.55,0.01,7.23c8.8,7.95,8.45,18.36-0.89,26.12c-3.18,2.64-3.3,4.06,0.04,6.58
		c8.82,6.67,10.52,18.31-0.15,26.51c-2.93,2.26-3.06,3.71-0.2,5.9c7.9,6.04,7.94,14.83,5.09,21.97c-2.29,5.74-4.98,11.28-7.9,16.7
		c-2.53,4.69-7.21,7.79-9.96,12.91c4.28,0.91,4.66,3.93,4.6,7.69c-0.21,11.66-0.08,23.33-0.08,34.99c0,2.51,0.29,5.13-3.25,5.73
		c-1.35,0.23-1.65,1.51-1.69,2.74c-0.04,1-0.05,2-0.05,3c0,20.33,0,40.66,0,60.99c0,2.64-0.46,5.44,3.36,6.14
		c1.55,0.29,1.59,1.99,1.59,3.33c0.02,13.33-0.04,26.66,0.05,39.99c0.02,2.83-1.87,3.49-4.94,4.2c5.21,3.75,7.89,8.77,12.92,11.59
		c8.76,4.91,12.33,18.98,0.42,27.47c-7.48,5.33-7.34,5.59,0.01,11.1c11.43,8.55,8.49,21.79-1.46,27.66
		c-1.28,0.75-2.61,1.42-4.64,2.51c7.09,3.99,12.92,8.52,12.66,17.17c-0.27,8.74-5.81,13.33-13.87,16.58
		c6.96,4.12,12.32,8.99,11.8,17.29c-0.52,8.27-5.94,12.94-13.84,16.17c7.1,4.17,11.63,9.44,10.81,17.47
		c-0.79,7.73-5.95,12.26-12.5,15.05c0.26,2.2,1.76,2.45,2.8,3.19c10.55,7.44,10.46,20.74-0.41,27.73c-3.23,2.08-5.33,4.14-4.85,8.28
		c0.33,2.84-1.32,5.1-3.37,6.95c-2.05,1.84-2.89,3.83-1.93,6.65c1.01,2.95-0.7,5.86-0.68,8.88c0.09,14.83-0.34,29.67,0.16,44.48
		c0.18,5.51,1.34,10.95,6.38,15.32c8.63,7.51,6.95,19.59-2.77,25.86c-4.85,3.13-5.52,9.76-0.91,13.13
		c9.56,6.98,7.47,22.18-1.63,27.11c-5.78,3.12-5.84,8.62-0.88,12.65c8.76,7.12,9.11,19.11-0.96,26.24
		c-3.32,2.35-4.73,4.79-4.32,8.66c0.19,1.8,0.72,3.16,2.38,4.06c6.01,3.28,7.34,8.74,6.48,14.92c-0.82,5.9-4.15,10.02-9.76,12.23
		c-1.49,0.59-3.3,0.71-4.11,2.24c-0.09,1.54,0.98,1.79,1.85,2.22c4.86,2.39,7.4,5.82,6.91,9.34c-0.63,4.57-4.84,8.41-10.06,9.01
		c-1.98,0.22-4,0.18-5.99,0.11c-2.42-0.09-3.9,0.98-4.1,3.36c-0.64,7.45-1.63,14.88-1.63,22.37c0,1.22,0.61,2.08,1.47,3
		c5.54,5.93,8.01,13.64,12.57,20.59c-3.7,1.67-4.14,4.1-3.15,7.14c0.35,1.06,0.12,2.32,0.11,3.48c-0.01,5.39,1.01,9.92,5.39,14.09
		c8.54,8.15,7.75,25.55-1.34,34c-3.4,3.16-4.01,6.53-4.05,10.56c-0.02,2.23,0.4,3.98,3.12,4.14c2.43,0.15,2.89,1.87,2.89,3.87
		c0,5.33-0.18,10.67,0.05,15.99c0.17,4.07-3.15,4.06-6.14,5.42c1.98,3.67,2.74,7.32,0.51,11.19c-0.76,1.33,1,2.7,2.2,3.57
		c11.9,8.68,10.46,28.48-0.35,35.53c-1.74,1.14-1.93,2.74-2,4.73c-0.35,9.87-0.44,9.84-9.66,12.8c-5.55,1.78-11.08,3.63-16.61,5.5
		c-1.69,0.57-3.61,0.92-4.41,3.2c1.26,1.83,4.91,0.68,5.17,3.72c0.19,2.15,0.24,4.32,0.25,6.48c0.02,18.33,0.01,36.66,0.01,54.99
		c0,3.01,0.44,6.05-4.09,6.5c-2.45,0.24-1.84,2.77-1.84,4.53c0,2.15,1.35,2.87,3.28,2.85c4.17-0.04,8.28,0.32,12.41,0.97
		c9.9,1.54,17.47,6.29,21.95,15.35c4.62,9.34,2.05,23.41-6.58,29.89c-8.36,6.27-17.4,8.77-27.62,5.43c-0.64-0.21-1.26-0.4-2.02-0.06
		c-2.22,8.22,1.4,15.57,3.75,23.1c0.49,1.58,2.24,2.02,3.53,2.6c5.83,2.64,6.62,12.23,0.1,16.08c-2.58,1.52-4.22,3-4.01,6.12
		c0.05,0.77-0.2,2.04-0.71,2.29c-6.18,3.11-4.08,9.23-5.02,14.09c-1.03,5.35-0.9,10.92-1.72,16.32c-0.48,3.15,0.73,4.4,3.49,4.74
		c11.92,1.48,19.95,8.33,25.61,18.47c0.48,0.87,1.18,1.81,1.18,2.72c0.02,3.89,2.2,5.28,6.22,5.08c-1.85,4.58,0.05,9.18-1.79,13.71
		c-3.47-0.49-5.21,1.39-6.83,4.25c-7.48,13.23-19.85,17.18-34.06,17.37c-1,0.01-1.99-0.17-2.99-0.2c-6.69-0.19-7.02,0.09-8.35,6.97
		c0.9,1.89,3.16,1.61,4.54,2.81c3.76,3.31,6.98,7.05,6.15,12.38c-0.93,5.97-4.87,9.74-10.58,11.48c-2.37,0.72-4.9,1.26-7.35,1.22
		c-3.43-0.05-5.22,1.29-6.05,4.57c-0.73,2.9-1.77,5.73-2.83,8.53c-1.73,4.58-3.73,5.97-8.62,5.99c-13.33,0.04-26.66,0.1-39.99-0.03
		c-3.67-0.04-6.58,0.81-8.31,4.22c-1.35,2.65-4.39,2.85-6.4,4.56c-6.74,5.73-14.11,10.55-21.72,15.06
		c-5.28,3.13-10.82,6.05-16.33,8.38c-6.02,2.55-13.07,3.94-19.95,1.77c-1.28-0.41-2.55-0.69-3.92-0.46
		c-2.26,0.39-4.6-0.16-6.17-1.51c-6.8-5.85-15.53-8.29-22.81-13.26c-4.4-3.01-8.84-5.94-12.88-9.44c-3.09-2.68-7.12-4.13-9.37-7.95
		c-1.11-1.87-3.63-1.3-5.6-1.3c-12.83-0.02-25.66-0.01-38.49-0.02c-6.8-0.01-8.71-1.28-11.12-7.65c-0.76-2.02-1.31-4.13-1.78-6.24
		c-0.79-3.57-2.54-5.44-6.56-5.2c-3.68,0.22-7.25-0.91-10.5-2.75c-9.57-5.41-9.88-16.74-0.62-22.64c1.25-0.8,2.6-1.46,3.9-2.17
		c-0.33-6.14-1.42-7.24-7.33-7.33c-4.99-0.07-9.95,0.04-14.92-0.9c-10.05-1.91-17.96-6.74-22.83-15.9
		c-1.46-2.75-2.59-5.55-6.55-4.44c-2.75-4.33,0.68-9.59-3.28-14.03c5.25,0.88,6.08-2.17,7.49-5.74
		c4.49-11.33,12.94-18.27,25.13-20.32c0.98-0.16,1.96-0.38,2.91-0.65c0.8-0.23,1.58-0.54,2.14-1.52c-0.85-9.06-0.85-18.5-2.95-27.45
		c-1.06-4.56-3.47-10.09-7.51-13.1c-7.74-5.77-7.83-13.11,0.64-18.08c0.71-0.42,1.74-0.6,1.91-1.46c1.5-7.66,6.45-14.76,3.74-23.37
		c-5.59,0.89-11.11,2.5-17.02,1.07c-9.82-2.38-17.09-7.58-20.09-17.37c-3.09-10.11-1.65-19.68,6.49-27.06
		c6.29-5.69,14.33-7.48,22.63-7.95c1.99-0.11,4-0.01,6-0.05c1.54-0.03,3.15-0.12,3.41-2.12c0.23-1.82,0.56-3.9-1.93-4.45
		c-3.62-0.8-2.85-3.63-2.86-5.99c-0.05-20.66-0.03-41.33-0.03-61.99c0-1.33-0.1-2.68,0.01-4c0.25-2.83-1.14-4.24-3.74-5.02
		c-6.06-1.82-12.05-3.88-18.12-5.65c-3.06-0.89-4.43-2.66-4.16-5.81c0.08-0.99-0.13-2-0.06-2.99c0.27-3.73-1.19-6.24-4.14-8.82
		c-9.72-8.51-9.19-25.09,0.66-33.72c3.74-3.28,3.99-4.51,1.48-9.04c-0.96-1.72-0.68-2.84,0.58-4.41c2.85-3.53,2.08-6.22-2.06-7.71
		c-1.76-0.63-2.37-1.69-2.38-3.31c-0.03-5.83,0.06-11.66-0.04-17.49c-0.07-3.82,3.28-3.02,5.4-4.13c0.92-3.2-0.1-5.68-2.57-7.87
		c-9.5-8.41-9.08-18.99-6.19-29.92c0.81-3.06,3.04-5.73,5.48-7.6c2.7-2.07,3.57-4.41,3.62-7.54c0.05-3.49,0.34-6.98,0.53-10.47
		c0.05-0.87-0.02-1.76-0.81-2.22c-3.23-1.9-1.78-4.15-0.53-6.37c2.54-4.49,5.15-8.94,7.68-13.43c0.88-1.55,1.8-2.86,3.89-2.21
		c2.42,0.75,3.77-0.64,4.87-2.46c1.38-2.28,2.89-4.55,3.37-7.2c0.57-3.2,0.58-5.91-3.32-7.75c-5.19-2.44-6.63-9.11-2.89-13.57
		c2.49-2.97,2.57-5.93,2.37-9.25c-0.16-2.62-1.6-4.14-4.12-5.01c-12.33-4.25-16.72-18.56-8.86-28.63c3.4-4.36,3.4-4.36-0.48-8.67
		c-7.06-7.84-7.33-19.05-0.49-27.41c1.74-2.13,2.43-3.46-0.17-5.69c-7.6-6.51-9-18.41-3.5-26.8c1.17-1.79,2.39-3.54,3.76-5.56
		c-3.79-2.56-6.95-5.32-8.59-9.55c-3.07-7.93-1.26-15.19,5.42-20.53c4.22-3.37,4.22-3.37,2.11-8.34c0.21-1.8,2.35-1.71,3.13-3.24
		c0.02-0.29,0.19-0.83,0.05-1.25c-1.13-3.38-0.93-6.84-1.03-10.35c-0.15-5.69-2.91-10.86-4.37-16.31
		c-1.81-6.75-4.16-13.35-6.18-20.04c-0.65-2.16-1.48-4.35-0.8-6.85c4.1,3.14,2.5,9.5,6.69,12.48c1.7-0.75,1.45-1.99,1.33-3.12
		c-0.87-8.41,3.42-13.64,11.86-14.45c7.32-0.7,7.32-0.7,7.32-7.98c0-1.17-0.12-2.35,0.02-3.5c0.46-3.57-1.1-5.32-4.51-6.51
		c-10.14-3.54-17.37-10.4-21.18-20.5c-1.7-4.51-2.83-9.26-1.76-14.16c0.68-3.15,0.38-6.31,0.41-9.46c0.01-1.33,0.04-2.94-1.52-3.38
		c-3.11-0.88-3.44-3.11-3.48-5.81c-0.03-2.63,0.61-4.26,3.47-5.14c2.1-0.65,2.03-3.4-0.15-3.98c-3.41-0.92-3.23-3.21-3.31-5.75
		c-0.26-7.47,0.11-14.93-0.56-22.44c-0.43-4.8,0.95-9.97,3.68-14.31c1.51-2.4,1.93-4.84,1.92-7.57c-0.06-14.5-0.02-28.99-0.03-43.49
		c0-2.64,0.44-5.29-3.34-6.19c-2.21-0.53-1.62-3.03-1.63-4.78c-0.05-10.66-0.01-21.33-0.04-31.99c-0.01-2.92,0.46-5.72-2.83-7.87
		c-2.46-1.61-2.13-6.51,0.32-7.8c2.55-1.34,2.51-3.21,2.51-5.38c0-9.5-0.01-19,0.01-28.49c0.01-2.93-0.69-6.26,3.67-6.97
		c0.37-0.06,0.74-0.63,0.96-1.05c1.28-2.41,0.06-12.82-1.92-15.44c3.46-2.67,2.2-6.55,2.22-10.06c0.02-3.24,1.35-7.15-3.76-8.42
		c-1.53-0.38-1.15-2.59-1.16-4.05c-0.03-7.5,0-15-0.03-22.5c-0.02-5.58-0.14-5.81-5.5-5.71c-12.32,0.22-24.63-0.38-36.96,0.31
		c-3.48,0.19-7.57,0.67-11.67-1.83c3.28-1.81,4.81-4.71,7.39-6.58c0.12,1.49-1.37,2.68-0.67,4.58c4.25-0.27,8.71,1.03,12.78-1.6
		c0.89,2.37,2.98,1.75,4.7,1.77c8.16,0.06,16.32,0.06,24.48,0.02c5.33-0.03,5.45-0.16,5.46-5.76c0.02-15.65,0.02-31.31,0-46.96
		c0-1.64,0.3-3.36-0.82-4.82c0.32-2.14,1.93-4.41-0.6-6.27c2.35-5.02,1.22-10.36,1.37-15.58
		C54.13,1466.95,53.07,1467.78,52.4,1467.89z M71.57,1931.88c0.48-0.85,0.85-1.23,0.91-1.65c0.46-3.45,1.78-5.94,5.85-5.67
		c0.46,0.03,0.93-0.31,1.41-0.45c1.91-0.55,2.52-1.9,2.49-3.76c-0.03-1.99-0.95-2.98-2.93-3.27c-3.67-0.53-6.99-1.74-9.52-4.71
		c-1-1.17-2.49-1.66-4.1,0.02C67.01,1918.83,69.18,1925.16,71.57,1931.88z M441.84,1885.07c-0.15,0.01-0.31,0.01-0.46,0.02
		c0,3.8-0.16,7.62,0.05,11.41c0.21,3.73-2.32,7.48,0.41,11.19C441.84,1900.15,441.84,1892.61,441.84,1885.07z"/>
</g>
<g>
	<path class="st0" d="M116.28,2536.91c0-2,0-4,0-6c0-2.17,0.01-4.33,0-6.5c-0.02-1.82-0.63-3.81-0.38-5.38
		c0.34-2.13,0.22-4.2,0.35-6.29c0.13-1.99,0.03-4,0.03-6c0-2.17,0-4.33,0-6.5c0-2,0-4,0-6c0-2.17,0-4.33,0-6.5
		c0-2,0.55-4.22-0.14-5.94c-0.85-2.12,0.62-3.78,0.22-5.74c-0.39-1.92-0.08-3.98-0.08-5.98c0-2.17,0-4.33,0-6.5
		c0-2,0.45-4.14-0.12-5.96c-0.65-2.05,0.42-3.83,0.11-5.71c-0.31-1.87,0.89-4-1.01-5.61c1.67-2.86,0.78-6.02,1.05-9.06
		c0.11-1.17-1.01-2.54-0.72-2.92c0.71-0.93,0.81-1.82,0.66-2.75c-0.47-3.02,1.18-6.26-0.93-9.11c2.15-2.83,0.27-6.08,1.04-8.92
		c-0.68-0.99-2.11-0.39-2.49-1.48c-1.81,0-3.6,0-5.49,0c0,14.59,0,29.04,0,43.46c0.74,0.97,1.99-0.11,2.8,0.67
		c-3.53,2.92-8.31,3.2-11.83,6.05c-0.3,6.22,0.22,12.45-0.99,18.64c0-4.91,0-9.83,0-14.97c-1.43,0.73-2.66,0.92-3.64,2.08
		c-2.83-0.96-5.47,0.85-8.37,0.96c-2.94,0.11-5.54-2.26-8.36-0.78c-1.2-1.4-2.65-1.66-3.91-2.24c-6.19-2.86-10.46-7.37-13.2-13.68
		c-0.7-1.62,0.45-3.79-1.61-4.84c-1.84-8.24,1.82-19.72,8.93-24.69c4.5-3.14,9.59-5.47,15.53-6.02c5.04-0.47,10.05-0.67,15.31-0.81
		c0-2.26,0-4.49,0-6.91c-1.48,0-2.93,0-4.77,0c0-1.61,0-3.06,0-4.51c0-21,0.07-41.99-0.04-62.99c-0.03-6.23,1.72-12.32,1.09-18.59
		c-0.22-2.23-0.24-4.41-0.97-6.6c-0.64-1.92,0.43-4.1-0.97-6.13c-0.61-0.89-0.1-2.56-0.1-4.05c-4.25,0-8.37,0-12.22,0
		c-1.31-0.87-0.38-2.08-1.08-3.01c-0.34-0.07-0.79-0.16-1.3-0.27c-0.71-0.8-0.46-1.73-0.14-2.66c0.45-0.11,0.9-0.23,1.54-0.39
		c0-6.06,0-12.17,0-18.12c3.39-2.96,3.87-8.17,9.79-9.68c4.81,0.35,10.89-0.79,16.68,0.67c1.69,2.82,3.38,5.26,4.65,7.9
		c0.65,1.35,1.29,2.84,1.12,4.56c-0.21,2.15,0.04,4.33-0.08,6.49c-0.1,1.88,0.91,3.12,2.11,4.53c0.66-1.96,1.93-3.5,1.93-5.58
		c-0.02-26.33-0.01-52.66-0.03-78.98c0-0.13-0.18-0.25-0.35-0.49c-1.04,0-2.15,0-3.25,0c-0.74,0.72-0.21,1.6-0.4,2.44
		c-0.08,0.07-0.2,0.28-0.33,0.28c-4.45,0.02-8.9,0.01-13.73,0.01c0.79,7.56-1.59,14.59-0.94,21.81c0.12,1.31,0.02,2.63,0.02,3.98
		c1.57,0.94,3.35-0.21,4.91,0.74c0,1.4,0,2.85,0,4.47c-1.52,0-2.97,0-4.4,0c-0.75,1.37-0.55,2.62-0.31,4.06c1.48,0,2.93,0,4.59,0
		c0,1.74,0,3.31,0,4.99c-10.2,0-20.31,0-30.61,0c0-1.47,0-2.93,0-4.74c7.71-0.37,15.62-0.02,23.45-0.19c0.64-1.25,0.3-2.4,0.31-3.87
		c-7.9,0-15.81,0-23.83,0c0-1.8,0-3.25,0-4.9c7.77,0,15.55,0,23.62,0c1.07-8.92-0.85-17.43-2.03-26.19c-1.47,0-3.09,0.38-4.38-0.1
		c-1.43-0.53-2.22,1.5-3.84,0.31c-0.94-0.7-2.82-0.13-4.29-0.13c-0.13-1.13-0.23-1.92-0.32-2.68c-0.35-0.88-1.85,0.2-1.9-1.17
		c-0.03-1.39,1.35-1.75,2.01-2.8c0-4.37,0.12-8.87-0.05-13.36c-0.09-2.53,0.72-4.56,1.99-6.7c2.94-4.98,2.82-5.06,6.7-7.41
		c5.73,0.46,11.82-0.92,18.02,1.31c0.45,2.35,2.49,4.19,3.75,6.5c1.05,1.91,1.69,3.7,1.61,5.86c-0.1,2.65-0.02,5.31-0.02,7.94
		c1.37,0.32,0.47,2.34,1.77,2.53c0.52-0.22,0.99-0.27,1.06-0.47c1.18-3.41,1.89-7.07,1.05-10.49c-1.32-5.38-0.03-10.86-1.04-16.08
		c-1.05-5.41-0.6-10.75-0.82-16.11c-0.09-2.24-2.26-4.11-0.31-6.9c-5.37,0-9.95,0-14.69,0c0-4.13,0-7.92,0-11.5
		c-0.84-1.05-1.54,1.52-2.41-0.28c-0.21-0.44-1.82-0.23-2.79-0.27c-0.83-0.04-1.67-0.01-2.5-0.01c-0.98,0-1.96,0-3.36,0
		c0.82-5.67-1.57-10.98-0.88-16.72c-2.42-0.42-4.59-1.14-6.33-2.97c-1.61-1.7-1.23-4.21-2.94-6.11c1.95-2.33,0.9-6.65,5.31-7.65
		c0-1.11,0-2.23,0-3.52c2.29,0,4.41,0,6.35,0c0.53-0.53,0.88-0.88,1.38-1.38c0-1.96,0-4.08,0-6.43c-2.48,0-5.05,0-7.6,0
		c-0.22,0.63-0.42,1.21-0.68,1.97c-0.43-2.22-2.32-2.97-3.71-3.07c-4.41-0.32-7.21-2.92-9.32-6.21c-2.1-3.28-3.72-6.87-3.56-11.02
		c0.19-4.99,1.71-9.32,5.41-12.77c0.49-0.45,0.94-0.94,1.52-1.51c0-1.02,0-2.13,0-3.16c-5.76-2.66-7.66-8.18-8.69-13.37
		c-1.41-7.13,0.95-13.68,6.78-18.5c0.07-1.22,0.28-2.59-1.06-3.09c-4.46-1.67-5.46-5.99-6.81-9.61c-2.9-7.84-0.99-14.99,4.66-21.14
		c0.23-0.24,0.49-0.46,0.7-0.71c0.2-0.24,0.35-0.52,0.52-0.78c0-0.5,0.01-1-0.01-1.5c-0.01-0.14-0.12-0.28-0.2-0.45
		c-0.68-0.64-1.58-0.04-2.04-0.22c-6.58-5.12-8.33-11.87-7.75-19.52c3.04-5.28,6.03-10.61,12.56-11.81
		c-0.9-0.87-1.92-1.86-2.56-2.48c0-1.74,0-2.74,0-3.84c1.22-0.55,2.48-1.13,3.96-1.8c-3.48-3.57-3.04-7.99-2.62-12.44
		c1.68,3.21,2.5,6.72,3.79,10.04c1.28,3.28,1.71,7,4.03,10.3c0.96-3.42-0.08-7.72-3.13-13.97c0.31-0.35,0.63-0.71,0.87-0.98
		c-2.09-3.02-2.79-6.59-3.82-9.95c-1.07-3.5,1.51-6.85,0.87-10.35c2.5-0.68,4.87,0.42,6.92-1.2c0.93-0.74,2.14,1.09,2.87,0.57
		c1.42-1.01,2.08,0.85,3.38,0.47c1.38-0.4,2.97-0.09,4.47-0.09c1.33,0,2.67,0,4,0c1.32,0,2.65,0,3.86,0
		c0.62-0.39,0.55-0.9,0.54-1.38c-0.28-1.04-1.59-0.24-1.97-1.08c0.34-0.74,1.15-0.37,1.84-0.84c0-15,0-30.11,0-45.05
		c0.65-0.65,1.12-1.12,1.67-1.67c6.35,0.79,11.71-2.4,16.45-5.74c6.04-4.27,10.71-10.19,12.96-17.5c0.87-2.84,1.84-5.97,1.45-8.79
		c-0.37-2.64-0.46-5.4-1.14-8.1c-0.75-2.97-2.14-5.54-3.4-8.12c-1.23-2.52-3.3-4.72-5.35-6.83c-2.18-2.24-4.59-4.21-7.17-5.77
		c-2.32-1.4-5.29-1.62-7.41-3.37c-1.29,1.1-1.32,1.53-0.02,2.34c1.39,0.86,2.94,0.88,4.37,1.58c8.4,4.08,14.14,10.27,16.84,19.34
		c0.46,1.56,1.2,3.08,0.82,4.6c-0.42,1.7,1.54,2.69,1.03,4.09c-1.53,4.22,0.03,9.4-3.96,12.86c-0.89,4.39-4.07,7.2-7.11,10.04
		c-3.59,3.35-8.35,4.82-12.41,7.43c-2.31-0.44-4.39,0.65-6.59,0.96c-1.46,0.21-3.38-0.48-4.37,0.24c-1.61,1.16-2.47-0.48-3.81-0.33
		c-4.52,0.5-8.62-1.24-12.59-3.25c-1.51-0.77-2.9-1.93-4.75-1.76c-1.78-1.78-3.42-3.7-5.34-5.28c-4.11-3.39-6.45-7.98-7.57-12.85
		c-0.92-3.98-3.12-8.27-0.45-12.51c-0.12-8.14,4.73-13.66,10.14-18.76c2.03-1.91,4.58-3.27,6.96-4.93
		c-2.05-1.46-3.82-0.04-4.84,0.89c-4.88,4.46-9.65,9.04-12.59,15.21c-0.52,1.08-0.09,2.52-1.47,3.62c0-2.78,0-5.23,0-7.62
		c-1.5-1.38-3.98,0.41-5.06-2.32c0-2.31,0-5.1,0-8.24c1.5,0,3.09,0,4.75,0c0-1.8,0-3.25,0-4.89c-1.46,0-2.92,0-4.1,0
		c-0.74-0.49-0.8-0.95-0.8-1.46c0.01-6.33,0.06-12.66-0.02-19c-0.03-2.22,0.6-4.54-0.93-6.62c-0.32-0.43-0.32-1.51,0-1.93
		c1.68-2.16,0.88-4.86,1.79-7.27c1.45-3.82,1.78-5.66,4.03-8.26c0-18.17,0-36.28,0-54.57c-1.58,0-3.03,0-4.68,0
		c0-14.62,0-29.06,0-43.37c-1.19-1.26-3.32,0-3.86-1.83c-0.92-1.32,0.49-3.14-1.13-4.16c1.08-0.92,0.62-2.29,1.07-3.59
		c1.06,0,2.18,0,3.65,0c0-13.41,0-26.64,0-40.05c1.8,0,3.25,0,4.89,0c0-5.28,0-10.4,0-15.82c-0.48-0.77-1.68,0.14-1.85,0.03
		c-1.15-0.81-0.91-1.33-0.92-1.8c0.71-0.99,1.92-0.05,2.84-0.74c0-5.41,0-10.87,0-16.67c-1.53,0-3.12,0-4.85,0
		c0-11.14,0-21.92,0-33.05c-3.79,0-7.41,0-11.03,0c-3.5,0-7,0-10.5,0c-3.67,0-7.34-0.11-11,0.03c-3.37,0.13-6.86-0.69-10.62,0.77
		c-2.98-1.8-6.85-0.3-10.49-0.93c-0.12-0.12-0.34-0.24-0.34-0.36c-0.03-0.66-0.02-1.33-0.02-2.05c1.03-1.11,2.52,0,3.67-0.66
		c0.97-1.69,1.02-4.03,3.31-4.81c0.27,1.9-1.52,3.13-1.74,5.12c2.03-0.48,3.86,0.06,5.85-0.52c1.66-0.49,3.71,0.93,5.62,0.09
		c0.92-0.36,1.09-1.68,2.27-1.69c0.13,0.61-0.31,1.33,0.24,1.77c11.64,0,23.18,0,34.75,0c0-8.19,0-16.15,0-24.11
		c0-10.46,0.02-20.91-0.03-31.37c0-0.8,0.7-2.11-0.97-2.28c1.41-1.91,1.14-3.94,0.74-6c-0.78,0-1.26,0-1.74,0
		c0.17-1.26,1.55-1.62,1.78-2.15c0-5.61,0-10.71,0-15.8c-1.28,0.22-0.22,2.14-1.78,1.95c0-0.83,0-1.67,0-2.5
		c0.59-0.59,1.18-1.18,1.94-1.94c0-60.27,0-120.71,0-181.5c1.73,0,3.3,0,4.97,0c0-4.8,0-9.25,0-13.63
		c-0.81-0.92-2.03,0.06-2.84-0.68c0.56-1.44,1.77-0.33,2.72-0.95c0-11.09,0-22.33,0-33.74c-1.52,0-2.97,0-4.61,0
		c0-23.29,0-46.4,0-69.73c1.26-0.79,2.98,0,4.86-0.49c0-14.24,0-28.47,0-42.71c1.13,3.89,3.79,6.78,5.64,10.1
		c1.93,3.48,5.39,5.44,8.22,7.91c2.81,2.46,6.71,3.67,10.09,5.42c0.07,0.53-0.16,1.09,0.72,1.46c0-1.9,0-3.75,0-5.74
		c-2.09-0.46-3.82-2.16-6.29-2.48c-1.6-0.21-2.95-1.75-4.24-3.01c-1.48-1.45-2.49-3.55-4.85-3.93c-1.16-3.45-3.84-6.02-5.29-9.82
		c0.86-2.64-0.92-5.49-1.14-8.54c-0.23-3.18,1.88-5.91,1.06-8.83c8.7-14.06,9.49-13.53,22.89-19.9c0-1.37,0-2.83,0-4.38
		c-0.87-0.82-0.99,1.11-1.81,0.66c-1.22,0.01-1.34-1.41-2.77-1.63c-1,0.29-2.39,0.86-3.25,2.19c-0.21,0.92,0.35,1.47,1.14,1.95
		c-3.84,1.61-7.27,3.28-9.62,6.59c-0.99-1.26-0.5-2.63-0.51-3.89c-0.06-6.16,0.23-12.34-0.11-18.49
		c-0.29-5.36-1.15-10.68-0.96-16.09c0.19-5.49-0.01-11,0.08-16.49c0.02-1.55-0.68-3.31,0.9-4.64c0.25-0.21-0.02-0.97,0.08-1.44
		c0.48-2.17-1.37-3.9-1.06-6.09c0.29-2.04,1.74-3.88,1.05-6.08c-1.93-6.11-0.76-12.39-0.96-18.58c-0.19-6.16-0.02-12.33-0.06-18.49
		c-0.02-2.6,1.32-4.79,2.01-7.15c-0.29-0.79-1.02-0.62-1.8-0.75c0-2.24,0-4.48,0-6.65c1.42-0.78,2.42,0.23,3.52,0.53
		c0.44-0.42,0.34-1.29,0.19-1.31c-2.28-0.34-2.8-2.35-3.77-4.1c0-2.57,0-5.36,0-8.31c1.92,0,3.7,0,5.16,0
		c0.89-0.5,0.64-1.06,0.79-1.89c-3.22,0.09-5.75-1.18-8.01-3.48c-2.21-2.24-1.61-5.36-3.08-7.75c3.61-10.43,6.95-9.7,15.91-11.27
		c0-8.43,0-16.88,0-25.8c-5.91-1.63-11.93-3.37-16.83-7.34c-4.92-4-8.6-9.01-10.95-15.72c0.76-2.51-1.15-5.49-1.22-8.74
		c-0.07-3.29,2.02-6.25,1.04-9.34c2.05-2.69,2.93-5.74,4.92-8.27c3.49-4.42,4.92-6.13,9.48-8.46c1.8-0.91,3.43-2.19,5.29-2.92
		c1.27-0.5,2.47-1.61,4.06-1.07c1.61,0.55,2.58-1.1,4.35-1.22c0-2.87,0-5.79,0-9.19c2.04,1.94,3.42,3.76,5.47,4.29
		c1,1.66,0.05,3.2,0.87,5.18c-0.07-0.1,0.4-0.05,0.91-0.05c1.67-0.01,3.33-0.02,5,0c1.91,0.02,3.94-0.43,5.59,2.44
		c0,18.94,0,39.05,0,59.16c-3.72,1.14-7.51,1.77-11.65,1.26c0,19.05,0,37.95,0,56.98c5.78,0,11.56,0,17.7,0c0-2.84,0-5.76,0-8.87
		c2.82,0,5.29,0,7.76,0c0.68,0,1.37-0.01,1.3-1c1.67-0.18,0.96-1.49,0.97-2.29c0.05-12,0.03-24,0.03-35.99c0-6.47,0-12.94,0-19.59
		c-1.32,0-2.44,0-3.78,0c0-3.74,0-7.31,0-11.01c1.16-0.06,2.28-0.12,3.75-0.2c0-6.92,0-13.83,0-21.07c2.03,1.68,3.92,1.12,5.61,1.08
		c0.51-0.51,0.86-0.86,1.31-1.31c0-1.35,0-2.8,0-4.2c-0.76-0.76-1.47-1.47-2.22-2.22c-1.33,0.99-2.82,1.05-4.68,0.55
		c0-1.53,0-3.16,0-4.79c0-17.33,0.02-34.66-0.04-51.99c-0.01-1.53,0.94-3.4-1.21-4.51c0.81-1.55,1.34-2.97,1.3-4.66
		c-0.13-6.47-0.05-12.95-0.05-19.57c1.43,0.65,2.68,1.25,4.97,0.28c0.16-0.27,0.84-1.41,1.51-2.55c0.17,0.17,0.34,0.34,0.52,0.51
		c0-0.83,0-1.67,0-2.96c-0.79-0.56-1.86-1.32-3.38-2.41c-0.56,0.04-2.09-0.47-3.42,1.11c0-29.82,0-59.39,0-88.93
		c1.67-1.01,2.48,1.89,4.85,0.18c0.12-0.15,0.83-1.05,1.85-2.34c0-0.85,0-2.3,0-3.66c-0.45-0.45-0.8-0.8-1.32-1.32
		c-1.69-0.06-3.57-0.59-5.6,1.08c0-5.9,0-11.47,0-17.07c-1.55,0.13-0.47,1.57-1.48,1.81c-1.82,0.32-2.2-1.61-3.55-2.37
		c1.14-0.58,2.19-1.11,3.18-1.62c0.57,0.36,1.04,0.66,1.72,1.1c0-11.38,0-22.49,0-33.96c-1.51,0-3.1,0-4.76,0c0-3.8,0-7.25,0-10.88
		c1.47,0,2.93,0,4.24,0c0.28-0.29,0.5-0.41,0.5-0.53c0.02-9.12,0.01-18.23,0.01-27.55c2.07,1.18,3.93,0.93,5.75,0.8
		c0.37-0.37,0.72-0.72,1.24-1.24c0-1.28,0-2.73,0-4.32c-0.22-0.22-0.58-0.58-1.27-1.27c-1.49,0.29-3.45-0.97-5.08,0.94
		c-0.97-0.99-0.45-2.21-0.46-3.31c-0.04-15.16,0-30.33-0.06-45.49c-0.01-1.55,0.66-3.27-0.84-4.67c-0.34-0.32-0.39-1.5-0.08-1.88
		c1.72-2.07,0.62-4.31,1.02-6.56c-1.19,0-1.97,0-2.72,0c-0.24,0.67-0.45,1.25-0.67,1.85c-2.72,0-5.37,0-8.15,0
		c-0.69-0.22-0.46-0.98-0.62-1.55c-1.1-0.98-2.6,0.15-3.94-0.89c0.47-7.96-0.91-16.13,1.02-24.1c-0.95-0.65-1.77-0.35-2.98-0.33
		c0,4.1,0.11,8.21-0.03,12.32c-0.14,4.08,2.03,7.95,0.69,12.45c-3.52,0.58-7.62-0.66-11.37,1.29c1.03-1.75,0.71-3.35,0.71-4.88
		c0.01-10.67,0.1-21.33-0.02-32c-0.1-9.03,1.96-17.94,0.88-26.74c1.13-0.74,1.94-0.46,2.69-0.43c0.85,0.32,0,1.64,1.07,1.81
		c0.74-0.74,0.21-1.62,0.4-2.43c0.93-0.98,1.1,0.74,1.87,0.56c0.6-0.14,1.25-0.03,2.06-0.03c0,5.05,0,9.84,0,14.39
		c0.68,0.9,1.4,0.53,2.02,0.6c0.49,0.05,1,0.01,1.5,0.01c0.18-0.25,0.51-0.5,0.51-0.76c0.04-3.17,0.68-6.51-0.11-9.46
		c-1.72-6.38-0.15-12.78-1.12-19.44c-0.46-0.56-1.05-1.34-2.47-1.41c-2.42-0.11-5.52-2.55-7.18-5.52c0,4.52,0,8.44,0,12.35
		c-1.51-1.62-0.99-3.47-1.08-5.21c-0.1-1.99-0.02-4-0.02-6s0-4,0-6c0-2,0-4,0-6c0-2.17,0-4.33,0-6.5c0-2,0-4,0-6c0-2,0.04-4-0.01-6
		c-0.05-1.94,0.42-3.74,0.9-5.61c0.49-1.87,0.11-3.97,0.11-5.98c-1.09-1.09-2.58,0.02-3.56-0.58c-0.89-2.64-1.74-5.12-2.63-7.76
		c-1.45,0-2.91,0-4.21,0c-0.92-1.03-0.67-1.95-0.28-3.06c7.05,0,14.17,0,21.26,0c1-1.64-0.17-3.42,0.79-4.97c2.4,0,4.85,0,7.23,0
		c0.7,0.8,0.26,1.66,0.42,2.79c-2.27,0-4.52,0-7.78,0c2.99,1.96,5.5,0.37,7.55,1.42c2.13,1.09,4.6,0.72,6.99,2.45
		c0-16.71,0-32.62,0-48.67c-0.27,0.78,0.18-0.27-0.4,0.05c-0.14,0.08-0.34,0.23-0.34,0.35c-0.02,5.66-0.01,11.33-0.01,16.96
		c-2.78,3.3-3.8,7.8-7.68,10.56c-4.73,0-9.71,0-14.7,0c-2.75,0-4.8-0.83-5.94-3.7c-0.91-2.28-2.97-4.19-3.56-6.5
		c-0.63-2.51-0.25-5.3-0.11-7.96c0.11-2.16-0.37-4.07-1.57-5.83c-0.48-0.05-1.03,0.16-1.46-0.59c0-1.61-0.01-3.43,0.01-5.25
		c0-0.3,0.15-0.6,0.26-1.03c0.74-0.07,1.53-0.15,2.34-0.23c0.91-0.72-0.04-1.93,0.7-2.88c4.43,0,8.89,0,13.68,0
		c0-1.78,0.07-3.41-0.01-5.03c-0.48-10.22,2-20.32,0.87-30.2c0.53-0.86,1.05-0.78,1.53-0.78c0.2,0.23,0.58,0.45,0.58,0.68
		c0.03,9.83,0.03,19.66,0.03,29.91c0.66,0.28,1.62,0.69,1.86,0.8c0.12,2.12,0.18,3.24,0.25,4.48c2.25,0,4.37,0,6.51,0
		c0.95-1.07-0.18-2.57,0.88-3.94c0.83,1.2,0.32,2.47,0.51,3.62c1.06,1.06,2.56-0.05,3.99,0.84c0.78,0.45,0.76,1.76,1.97,3.18
		c0.03-7.47,0.01-14.38,0.02-21.88c1.37,1.64,2.8,1.26,4.54,1.32c0.66-0.79,1.48-1.79,2.46-2.96c0-0.51,0-1.34,0-2.6
		c-0.78-0.61-1.81-1.41-3.13-2.43c-0.86,0.03-2.35-0.34-3.49,0.87c-0.94-1.12,0.16-2.61-0.8-3.83c-0.33,0.27-0.67,0.53-1.12,0.9
		c-1.53,0.44-2.05-1.63-3.43-1.22c-0.15-1.69,0.92-2.07,1.54-2.74c1.17-0.16,2.18,0.11,3.24,1.07c0-16.77,0-33.34,0-49.91
		c-1.17,2.74-0.72,5.6-0.8,8.41c-0.08,2.99-0.02,5.99-0.02,8.18c-1.24,3.74-3.84,5.74-5.1,8.71c-0.86,2.03-3.53,2.22-5.37,2.42
		c-3.95,0.42-7.99,0.06-11.98,0.16c-1.7,0.04-2.57-2.17-4.17-1.06c-2.41-2.7-2.62-6.24-5.37-8.44c0-3.34-0.03-6.82,0.01-10.3
		c0.03-2.24-0.88-3.82-2.86-4.64c0-2.5,0-4.96,0-7.4c0.95-0.03,1.22,1.21,2.17,0.81c1.3-0.55,0.35-1.76,0.95-2.93
		c4.36,0,8.94,0,13.72,0c0-3.32-0.12-6.3,0.03-9.26c0.18-3.7-0.57-7.42,0.84-11.13c0.61-1.6,0.67-3.89-0.87-5.53
		c-0.17-0.83,0.6-1.09,1-1.74c-1.7-2.75-0.77-5.9-1.05-9.02c0.62-0.21,1.2-0.42,1.91-0.66c0-3.73,0-7.52,0-11.66
		c-1.52,0-3.11,0-4.76,0c0-8.14,0-15.92,0-23.88c1.48,0,2.94,0,4.41,0c1.05-2.03,0.08-3.99,0.7-6.06c-4.86,0-9.32,0-13.51,0
		c-3.99-3.36-6.23-7.75-9.36-11.44c-3.45-4.07-6.23-8.71-9.27-13.12c-1.07-1.55-2.05-3.14-3.06-4.73c-0.97-1.54-2.24-2.84-3.75-3.8
		c-6.14-3.91-8.89-9.64-9.27-16.73c-0.19-3.57,0.49-6.88,1.93-10.21c1.64-3.79,4.43-6.7,7.54-8.74c3.39-2.21,7.34-3.71,11.63-4.5
		c8.39-1.55,16.76-0.33,25.11-0.83c0.63-0.04,1.32-0.16,1.8,0.48c0.2,0.26,0.46,0.48,1.12,1.13c-0.98,0.21-1.97,0.43-2.03,0.44
		c0,4.38,0,7.5,0,10.79c2.2,0,4.32,0,6.8,0c0,9.41,0,18.65,0,28.01c3.8,0,7.25,0,10.91,0c0-27.4,0-54.84,0-82.09
		c1.22-1.44,2.71-0.32,4.2-1.12c0-4.58-0.33-9.4,0.09-14.15c0.43-4.8-1.48-9.33-1.06-14.05c3.55-3.68,7.42-6.74,12.86-6.43
		c6.31,0.36,10.89,1.24,17.57,8.97c0.43,0,1.07,0.01,1.7,0c0.48-0.01,0.97-0.04,1.43-0.07c0.92-2.65,3.17-4.12,5.02-5.91
		c0.82-0.79,6.12-2.79,7.23-3.03c3.31-0.71,6.49,0.46,9.55,1.16c4.19,0.96,6.92,4.55,10.04,7.84c1.41,0,3.05,0.07,4.68-0.01
		c6.4-0.31,12.65,1.49,19.09,1.1c6.31-0.38,12.66-0.08,18.99-0.08c6.5,0,13,0,19.5,0c1.65,0,3.29,0,4.87,0
		c0.74-1.21,0.27-2.39,0.42-3.5c0.82-0.88,1.77-0.49,2.88-0.24c0,1.08,0,2.2,0,3.02c0.5,0.81,1.01,0.73,1.5,0.73
		c16.33,0,32.66-0.02,48.99,0.01c3.73,0.01,7.26-2.11,10.96-0.66c1.78-2.43,3.1-4.63,5.67-6.03c3.67-2,7.06-3.27,11.64-3.35
		c3.8-0.06,6.88,1.89,10.1,3.39c0.93,0.43,1.84,1.55,2.16,2.55c0.46,1.42,1.78,1.9,2.49,3.04c1.29,0,2.61,0,4.14,0
		c3.07-2.99,5.97-6.46,10.46-7.99c4.46-1.52,8.79-1.03,13.84,0.54c1.61,2.6,6.33,3.15,7.46,7.38c0.83,0.1,1.62,0.19,2.58,0.3
		c0,8.48,0,16.94,0,25.1c0.5,0.8,1.01,0.73,1.46,0.72c0.82,0.35,0.65,1.05,0.65,1.68c0,6.5,0.16,13-0.08,19.49
		c-0.1,2.67,0.37,5.24,1.42,7.44c0.81,1.69,1.11,3.63,0.5,4.64c-1.17,1.94-0.8,3.81-0.81,5.68c-0.06,20.5-0.04,40.99-0.04,61.89
		c2.7-0.37,5,1.67,7.81,1.16c2.17,2.17,5.51-0.17,7.94,2.14c0.48-2.36,0.18-4.66,0.24-6.92c0.06-2.31,0.01-4.62,0.01-7.09
		c6.98,0,13.76,0,20.77,0c0-8.74,0-17.31,0-26.06c-6.48,0-12.93,0-19.2,0c-0.53-0.53-0.88-0.88-1.4-1.4c0-9.28,0-18.73,0-28.52
		c1.78-0.26,4,0.05,5.61-1.45c1.58-1.48,3.08-3.05,4.72-4.7c7.37,0,14.85,0.04,22.34-0.03c1.29-0.01,2.22,0.34,3.06,1.49
		c0,26.29,0,52.74,0,79.53c-1.99,0-3.94,0-6-0.06c-1.99-1.22-1.99-1.22-4.94-0.06c1.88,0,3.46,0,4.94,0.06
		c2.28,2.01,5.21,2.51,7.69,3.94c4.62,2.65,9.14,8.3,11.12,13.29c0.52,1.32,0.22,2.59,0.24,3.87c0.01,1.08,0.34,1.86,1.18,2.7
		c-1.12,1.77-1.54,3.77-1.16,5.1c-2.37,5.87-5.93,9.95-9.97,13.67c-1.47,1.35-2.91,2.74-4.22,4.24c-1.36,1.56-3.53,2.5-3.9,4.86
		c-2.02,0.52-3.08,2.27-4.53,3.51c-2.25,1.91-3.08,5.01-6.19,6.87c-8.55,0-17.67,0.07-26.79-0.03c-4.56-0.05-9.08,0.09-14.18,1.48
		c-0.65,0.7-2.52,1.44-2.1,4.26c0.72,0.44,1.84,1.13,2.96,1.82c-0.15,0.17-0.3,0.33-0.46,0.5c1.32,0,2.64,0,4.3,0
		c0,7.58,0,15.14,0,22.75c2.29-0.37,3.51-1.77,4.89-3.01c1.35-1.21,1.41-3.32,3.26-4.16c-0.72-0.77-1.37-1.46-2.02-2.16
		c2.02-0.79,3.7-1.89,4.24-4.38c1.2,0.65,2.36,1.27,3.61,1.94c1.07,0.13,1.66-1.56,2.95-1.02c1.55-0.09,1.72,1.97,3.18,2
		c1.35,2.52,3.83,3.97,5.72,6.33c3.66-2.43,5.82-6.39,9.69-8.24c1.87-3.97,5.78-5.91,8.68-8.84c3-3.03,6.92-4.91,9.23-8.17
		c1.41-0.29,1.76,0.64,2.37,1.12c0.36,0.24,0.24,0.39-0.1,0.72c-2.49,2.45-4.99,4.89-7.42,7.41c-5.21,5.4-10.75,10.41-16.82,14.83
		c-0.21,0.15-0.25,0.55-0.36,0.84c-0.69-0.03-1.03,0.31-1,1c-0.28,0.11-0.76,0.17-0.79,0.34c-0.14,0.6,0.31,0.7,0.79,0.66
		c0.13,0.61-0.31,1.32,0.33,1.83c1.63,1.3,2.64,3.31,4.67,4.17c0.42,1.55,1.96,2.15,2.85,3.4c-0.1,0.68-1.13,1.02-0.86,1.94
		c0.35,1.21-0.52,2.16-1.31,2.39c-4.39,1.27-7.02,4.89-10.4,7.49c-0.13,0.1-0.24,0.23-0.36,0.35c-5.18,5.18-5.17,5.25-12.34,6.4
		c-5.86,0.93-7.63,0.07-9.98-2.86c-0.62-0.77-1.39-1.42-2.44-2.47c-0.27,10.64-0.58,20.91,1.19,31.3c1.16-0.61,0.53-1.67,0.63-2.44
		c0.13-0.98,0.03-2,0.03-3.29c2.04-0.46,4.17-0.17,6.27-0.22c2.14-0.05,4.28-0.01,6.57-0.01c0,1.96,0,3.75,0,5.77
		c-2.64,0-5.42,0-8.1,0c-0.79,1.25-1.08,2.56-2.29,3.23c-1.16,0.14-2.28,0.08-3.27-1.29c-1.46,1.77-3.48,1.21-5.62,1.32
		c-1.05,1.13-2.91,1.89-2.6,3.95c1.29,1.22,2.48,2.34,4.23,3.99c0.21,0,1.32,0,2.62,0c0,5.96,0,11.74,0,17.31
		c0.51,0.56,0.82,0.9,1.12,1.23c-0.31,0.37-0.6,0.71-0.86,1.03c0.37,0.64,0.91,0.41,1.38,0.46c1.08-0.67,0.15-1.88,0.84-2.86
		c4.32,0,8.78,0,13.16,0c0.96-1.35,0.42-2.71,0.51-3.98c0.25-3.54-0.51-7.13,0.94-10.61c0.38-0.91,0.37-2.26-0.24-3.4
		c-0.77-0.09-1.56-0.17-2.52-0.28c0-2.12,0-4.24,0-6.61c0.53-0.78,1.74,0.17,2.72-0.59c0-3.31,0-6.77,0-9.93
		c0.5-0.8,1.01-0.73,1.5-0.72c0.2,0.22,0.58,0.45,0.58,0.67c0.04,3.32,0.03,6.63,0.03,10.13c2.56,0,5.02,0,7.72,0
		c0.55,2.38,0.13,4.64,0.34,7.05c-2.69,0-5.14,0-7.67,0c-1.65,6.2,1.75,11.77,1.66,18c4.18,0,8.43,0,12.37,0
		c1.03,1.24-0.03,2.71,1.33,3.46c0.26,0.14,0.35,0.95,0.22,1.35c-2.07,6.45-0.46,13.07-0.98,19.69c-2.73,2.82-3.94,6.91-7.53,9.51
		c-5.35,0-10.99,0-16.94,0c-4.62-1.11-4.17-6.79-7.39-9.28c-0.72-4.87,1.11-9.9-1.5-14.54c-0.97,4.03-0.89,5.91,0.37,8.66
		c0.36,1.13-1.2,1.42-1.03,2.59c0.61,4.17-0.83,8.41,0.9,12.63c0.76,1.85,0.13,4.28,0.13,6.45c0,1.8,0,3.6,0,5.31
		c0.73,0.19,1.18,0.31,1.81,0.48c0,1.72,0,3.51,0,5.64c-0.18,0.36-0.98,0.04-1.66,0.43c0,2.38,0,4.84,0,7.4
		c1.19,0.83,2.31,0.59,3.3-0.6c0.64,0.41,1.05,1.34,2.41,0.8c0-3.08,0-6.33,0-9.7c2.8,0,5.25,0,7.92,0c0,2.5,0,5.07,0,7.82
		c-2.18,0-4.31,0-6.1,0c-0.88,0.51-0.62,1.06-0.73,1.84c2.55,0.27,5.05,0.77,7.18-0.95c1.42,0.8,0.83,1.92,0.84,2.8
		c0.07,4.16,0.12,8.33-0.01,12.5c-0.06,1.99,0.37,3.77,1.28,5.58c1.49,0.47,3.02,0.65,4.51-0.83c0.97,7.61-0.95,15.23,1.39,22.56
		c-1.58,1.11-3.34,0.11-4.88,0.76c-0.42,0.45-0.87,0.93-1.25,1.33c-0.2,1.36,0.91,2.32,1.53,2.34c1.65,0.06,3.15,0.29,4.59,1.11
		c1.16,0.66,2.36,1.25,3.93,2.07c0-7.17,0-14.08,0-21.18c1.55,0.84,0.88,1.95,0.9,2.8c0.08,5.33-0.03,10.66,0.07,16
		c0.04,2.05-0.47,4.1,0.85,6.16c0.68,1.06,0.54,3.08,0.04,4.39c-1.4,3.64-1.48,7.14,0.06,10.71c0.18,0.42,0.02,0.99,0.02,1.49
		c0,5.17-0.21,10.34,0.06,15.49c0.27,5.03-0.42,10,0.71,15.14c1.08,4.93,0.07,10.29,0.28,15.44c0.2,4.9-0.55,9.79,0.57,14.72
		c1.07,4.68,0.28,9.56,0.36,14.36c0.08,5,0.15,10-0.06,14.99c-0.06,1.47,1.09,2.4,1.02,3.58c-0.16,2.54,0.97,5.27-0.94,7.59
		c1.54,2.78-1.51,6.04,0.94,8.81c0.41,0.47,0.06,1.61,0.06,2.45c0,3.16,0,6.33,0,9.48c1.31,1.31,2.6,2.6,3.9,3.9
		c0.66,3.95-1.4,6.28-5.03,7.85c0.74,5.5,1.7,10.95,0.91,16.57c-0.42,0.09-0.87,0.18-1.48,0.31c-1.37,3.32,1.27,6.42,0.79,9.84
		c-0.45,3.23-0.1,6.57-0.1,9.86c1.1-0.01,1.39-1.23,2.41-0.8c0.76,0.22,0.54,0.97,0.67,1.54c0.13,0.13,0.24,0.24,0.36,0.36
		c1.6-1.78,3.7-0.67,5.56-0.91c0.98-0.13,1.44-1.08,2.57-1.15c1-0.06,1.44,1.56,2.38,0.62c1.02-1.02,1.14,0.64,1.89,0.52
		c0.81-0.13,1.67,0.04,2.49-0.05c0.93-0.1,1.58,0.26,2.11,1c0.37-0.33,0.72-0.65,1.07-0.97c0.58,0.58,1.17,1.17,1.95,1.95
		c1.49,0.16,3.02,0.35,4.68,1.42c3.43,2.21,6.43,4.77,9.35,7.55c2.26,2.16,4.02,4.72,4.32,7.67c0.15,1.53,3.36,1.8,1.29,3.78
		c1.46,0.99,0.28,3.19,1.86,4.11c-0.31,0.34-0.62,0.69-0.91,1.01c0.35,0.4,0.66,0.77,1.12,1.3c-2.47,2.76-0.24,6.48-2.1,9.59
		c-1.66,2.77-2.55,5.98-4.7,8.59c-0.38,0-0.88,0-1.38,0c-0.18-1.07,0.25-1.82,1.03-2.59c1.39-1.36,2.42-2.96,1.76-5.22
		c-4.2,0-8.44,0-12.62,0c-0.17,0.64-0.28,1.09-0.45,1.74c-1.11,0.43-2.56-0.49-3.65,0.51c-0.02,0.32-0.05,0.65-0.1,1.36
		c-1.61-0.18-3,0.86-4.41,1.27c-0.84-0.84-1.43-1.43-2.02-2.02c-1.13,0.83-1.84,2.28-3.4,2.39c0,0.8,0,1.58,0,2.37
		c1.44-0.14,1.7-2.05,3.22-1.8c1.17,0.16,0.02,2.15,1.58,2c0.86,0.47,1-1.31,2.01-0.59c-0.02,0.42-0.05,0.87-0.07,1.22
		c-0.87,0.87-2.11-0.19-2.86,0.87c0.07,0.81-0.02,1.59-1.21,1.5c-1.14-0.17-1.3-1.77-2.56-1.75c-0.2,0.58-0.41,1.16-0.63,1.8
		c-4.14-1.38-8.19-2.73-12.87-4.3c0.71,2.12,0.14,3.68,0.8,5.56c0.67,1.92,2.4,4.22,1.2,6.28c-1.24,2.12-1.16,4.44-0.56,6.14
		c0.85,2.37,0.51,4.74,0.99,7.26c0.73,0,1.36-0.01,2,0c3.39,0.05,6.73-0.04,10.1,0.92c3.68,1.05,6.19,3.21,6.7,6.96
		c0.13,0.98-0.01,1.98,1.01,2.59c-1.55,1.06-0.81,2.67-0.97,3.8c-4.32,6.14-10.83,5.74-16.69,5.88c-1.25,7.61,0.67,14.64,0.88,21.4
		c1.65,1.43,1.9-1.25,3.29-0.57c1.11,0.55,1.63-0.79,2.55-1.05c1.21-0.34,1.88,1.32,2.9,0.59c1.09-0.78,2.04-0.8,3.08-0.05
		c-0.15,1.15,0.34,2.33-0.33,3.37c-1.3,0.55-2.36-0.12-3.57-0.79c0,1,0,1.79,0,2.99c1.68-0.62,2.82,2.06,4.35,0.84
		c1.73-1.37,3.42-0.6,5.17-0.91c0.24,0.67,0.45,1.24,0.73,2c1.71-0.27,3.08,0.45,4,2.03c1.54,0,3.06-0.2,4.5,0.06
		c1.39,0.24,2.69,0.95,4.04,1.46c-1.51,0.49-2.98,0.41-4.43,0.51c-1.43,0.09-2.99-0.48-5.07,1.06c5.39,0,9.97,0,14.48,0
		c0.1,0.82,0.28,1.31-0.13,1.66c-4.11-1.48-8.3-0.37-12.22-0.78c-0.58,0.58-0.93,0.93-1.32,1.32c0,3.87,0,7.77,0,11.64
		c4.69,0.31,9.21-0.27,13.66,1.07c-4.58,0-9.15,0-13.56,0c0.5,0.72,0.93,1.35,1.46,2.11c4.31-0.67,9.02,1.14,12.91-1.34
		c0.97-5.77,2.59-11.31-0.2-16.73c-0.72-0.21-1.61,0.32-2.66-0.66c0.84-0.49,1.65-0.96,2.35-1.37c-4.54-8.09-9.91-12.88-14.13-14.43
		c0.2-0.24,0.57-0.46,0.58-0.71c0.85-17.09,0.06-34.2,0.45-51.42c0.96-0.96,2.04-1.98,3.06-3.08c0.57-0.62,1.25-0.21,1.86-0.34
		c0,0.5,0,1,0,1.49c-1.68,0.39-2.66,1.71-3.9,2.91c0,16.65,0,33.39,0,50.2c1.33,1.51,3.23,2.57,4.91,3.64
		c1.84,1.18,2.43,3.16,4.05,4.34c2.14,1.56,3.08,4.09,3.77,6.37c0.46,1.52,1.29,2.47,2.14,3.54c-0.45,1.05,0.18,5.41,1.18,7.61
		c-1.5,1.16-1.29,3.01-1.1,4.73c0.19,1.71-0.42,3.25-1.14,4.52c-1.01,1.78-1.21,4.05-2.43,5.43c-1.92,2.19-3.19,4.88-5.49,6.77
		c-1.51,1.23-2.97,2.34-5.86,2.43c5.69-3.03,8.3-7.77,11.18-12.8c-4.73,0-8.97,0-13.15,0c-0.15,0.65-0.26,1.1-0.36,1.52
		c-1.17,0.82-2.67-0.35-3.68,0.65c-0.11,0.54-0.21,1-0.28,1.33c-0.94,0.69-2.15-0.24-2.79,0.75c-0.13,0.52,0.18,1.09-0.7,1.57
		c-0.33-1.34-0.81-2.65-2.32-3.02c-1.6-0.35-2.56,1.08-3.93,1.37c-0.02,1.22-0.41,2.47,0.33,3.62c1.11-0.69,1.47-2.11,2.95-2
		c0.52,1.15,1.24,2.16,2.83,2.53c-0.9,0.36-1.6,0.45-2,0.85c-0.47,0.47,0.05,1.74-1.6,1.59c-0.58-0.52-1.37-1.22-2.16-1.94
		c-0.53,0.65-0.99,1.06-1.75,0.98c-0.66-0.07-1.33-0.01-2-0.01c-0.6,0-0.65-1.15-1.43-0.76c0,2.63,0,5.2,0,7.49
		c1.67,0.73,3.26-0.35,4.59,0.64c1.28,0.95,2.07-0.74,3.34-0.44c1.4,0.33,2.95,0.08,4.43,0.08c3.23-0.8,5.48-3.73,8.51-4
		c0.91,1.01-0.01,1.71-0.56,1.84c-3.64,0.83-6.73,3.04-10.68,3.39c-2.8,0.25-5.69,0.64-8.79,0.82c-0.71,7.28,1.98,14.33,0.7,21.41
		c1.44,0.97,2.85,0.67,4.05,0.48c3.01-0.47,5.68,1.17,8.77,1.2c1.23,1.27,2.62,2.7,4.24,4.36c-0.4,1.54,1.27,2.81,1.19,4.68
		c-0.07,1.79-2.18,3.1-0.73,5.04c-2.31,2.09-3.97,4.37-7.2,4.87c-2.65,0.41-5.23,1.25-8.37,0.74c3.76,6.14,5.91,12.1,5.2,18.58
		c1.79,2.39,4.95,1.65,6.72,3.72c1.62,1.89,3.5,3.56,5.31,5.37c-0.75,1.58,1.09,2.52,1.03,4.02c-0.05,1.41-0.36,2.89,0.9,4.15
		c0.32,0.32-0.03,1.46-0.29,2.28c-1.43,4.54-3.7,8.45-7.54,11.28c0,1.57,0,3.02,0,4.5c5.08,1.51,7.73,5.37,10.04,10.56
		c0.35,1.17-1.14,3.49,0.39,4.85c-0.28,4.64-2.38,8.26-4.86,11.68c-2.34,0.51-3.65,3.03-6.45,3.26c-2.2,7.6-5.01,15.21-4.16,23.3
		c-0.71,0.94-0.88,0.1-1.63-0.19c-0.53-0.07-0.77,0.86-1.54,1.34c1.95,5.49,0.29,11.34,1.26,16.91c1.03,5.9-0.01,11.85,1.03,17.57
		c1.07,5.92,0.63,11.75,0.72,17.61c0.03,1.72,1.38,2.86,1.15,4.59c-0.2,1.45,0.03,2.95,0.13,4.43c0.01,0.14,0.53,0.24,0.82,0.36
		c0,0.5,0,1,0,1.59c1.36,1.12,3.81-0.61,4.94,2.38c0,1.08,0,2.87,0,4.62c1.33,0.25,2.26,2.02,3.65,0.51
		c1.02,1.63,2.93,0.29,4.01,1.12c1.14,0.87,2.25,1.72,3.5,2.44c1.22,0.71,1.73,2.46,3.69,2.44c0.24,1.51,0.23,3.25,1.91,4.01
		c0.94,12.24,0.72,12.96-6.08,19.76c-0.72,0.08-1.51,0.16-2.46,0.27c0,1.79,0,3.58,0,5.35c2.1-0.4,3.42,1.2,5.16,2.13
		c2.13,1.13,3.37,3.02,5.17,4.3c0.87,1.88,0.83,4.09,2.5,5.58c0,1.47-0.25,3.02,0.07,4.44c0.3,1.31-1.76,2.4-0.4,3.46
		c-2.14,4.32-5.16,7.81-9.57,10.08c0,1,0,2.12,0,3.61c4.82,1.43,8.02,4.99,10.51,9.14c1.14,1.9,1.11,4.35,1.34,6.58
		c0.12,1.22,0.56,2.7-0.92,3.63c0.32,0.35,0.63,0.7,0.84,0.94c-2.06,4.43-5.4,7.6-9.52,9.64c-0.56,0.99-0.34,1.79-0.24,2.68
		c4.2,1.04,6.76,4.37,9.34,7.4c2.44,2.87,2.43,6.92,3.11,10.78c-1.68,1.38-1.72,4.16-2.92,6.34c-1.28,2.32-3.41,3.46-4.95,5.24
		c-1.43,1.65-4.39,1.99-6.68,2.9c1.89,2.23,0.56,4.8,1.07,7.08c-1.54,1.08-3.27,0.2-5.14,0.77c0.52,2.48-0.96,5.15,1.3,7.62
		c1.3-0.98,2.8-0.93,4.38-0.8c0.83,1.18,0.46,2.57,0.35,3.8c-0.41,4.44,1.5,8.62,1.13,13.09c-0.37,4.47-0.08,8.99-0.08,13.48
		c0,4.5,0,8.99,0,13.49c0,1.29,0,2.59,0,3.98c-2.07,0-3.85,0-5.99,0c0-10.26,0-20.5,0-30.73c-0.21-0.09-0.42-0.19-0.64-0.28
		c-0.26,0.58-0.51,1.15-0.77,1.73c-0.17-0.12-0.35-0.24-0.52-0.35c0,18.11,0,36.22,0,54.19c-1.26,1.14-2.75,0.02-3.98,0.92
		c0,3.71,0,7.49,0,11.12c1.08,2.01,2.83,1.48,4.79,1.46c0-2.22,0-4.46,0-6.77c0.8-0.07,1.25-0.1,2.16-0.18
		c-0.84,4.02,1.22,7.63,0.93,11.51c2.84,2.84,5.6,5.74,8.52,8.47c2.28,2.13,3.44,4.81,4.53,7.64c0.99,2.58,2.38,5.01,3.57,7.51
		c2.15,4.53,3.37,9.01,1.47,14.12c-1.73,4.66-4.8,7.78-8.98,10.3c0,0.93,0,2.05,0,3.33c2.35,0.92,3.92,2.78,5.72,4.41
		c5.67,5.15,5.58,16.58-0.11,21.49c-1.45,1.25-2.52,2.91-4.51,3.59c-1.19,0.4-1.39,1.72-1.14,3.25c1.72,0.24,2.75,1.72,3.99,2.93
		c1.31,1.28,2.59,2.59,3.89,3.88c0.23,0.9,0.06,1.78,0.63,2.75c1.58,2.66,1.72,5.28,0.61,8.54c-1.56,4.61-3.65,8.31-8,10.63
		c-0.86,0.46-1.49,1.32-1.21,2.37c0.07,1.48,1.2,2.2,2.07,2.72c4.15,2.51,6.17,6.47,7.63,10.78c0.62,1.82,0.64,3.8-0.11,5.69
		c-1.66,4.22-3.05,8.62-7.7,10.75c-0.71,0.32-1.19,1.14-1.83,1.78c0,0.94,0,1.93,0,3c0.19,0.4,0.73,0.36,1.09,0.59
		c4.24,2.63,7.05,6.37,8.56,11.13c0.52,1.63,0.73,3.48,0.19,4.83c-1.64,4.11-2.41,8.86-7.2,11.07c-1.34,0.62-2.85,1.73-2.64,4.43
		c0.11,0.78,1.37,1.98,2.31,2.2c3.2,0.78,3.14,4.35,5.49,5.83c0.59,0.37,0.38,1.95,1,3.02c0.91,1.57-0.04,10.12-0.93,11.97
		c-2.93,6.12-6.04,12.15-8.86,18.32c-0.53,1.15-1.28,1.92-2.1,2.6c-3.28,2.74-4.85,6.86-8.62,9.45c1.96,1.88,4,0.44,5.56,1.47
		c0,15.39,0,30.83,0,46.45c-1.51,0-2.97,0-4.67,0c0,24.4,0,48.62,0,73.02c1.39,0,2.84,0,4.53,0c0,15.74,0,31.3,0,47.21
		c-1.58,0-3.16,0-4.8,0c0.27,0.95,1.19,1.11,1.02,1.92c-1.03,0.15-1.88-0.13-2.06-0.37c-1.53,1.5-3.13,3.07-4.41,4.33
		c1.42,1.45,3.07,3.14,4.95,5.06c1.25-1.25,2.71-2.74,4.2-4.19c0.58-0.56,0.19-1.23,0.32-1.83c1.76,1.11,4.54,1.24,4.07,4.47
		c-0.06,0.4,0.79,1.25,1.33,1.37c5.91,1.33,8.86,5.54,10.78,10.82c0.1,0.28,0.45,0.48,0.69,0.71c1.81,11.62-6.45,18.03-12.76,19.93
		c0,1.75,0,3.53,0,5.39c2.44,2.04,5.63,2.96,7.94,5.36c2.39,2.47,3.03,5.82,4.95,8.63c0.37,10.03-5.21,16.03-14.58,19.58
		c8.77,3.6,14.48,8.95,13.49,18.55c-0.85,8.23-6.54,12.47-14.35,14.85c2.22,2.68,6.05,2.51,7.78,5.21c1.6,2.49,3.07,5.06,4.6,7.61
		c0.25,4.67,0.01,9.16-3.05,13.2c-2.84,3.75-6.68,5.82-11.11,7.42c1.85,2.61,4.98,2.61,6.73,4.8c1.61,2.02,2.24,4.47,3.56,6.53
		c1.73,2.7,1.37,5.69,0.7,8.07c-1.96,6.88-5.97,11.1-12.72,12.9c0,0.64,0,1.29,0,2.25c3.87,0.88,6.1,4.2,8.48,6.39
		c1.3,4.19,3.61,7.67,2.1,11.92c-0.95,2.67-1.6,5.4-3.61,7.5c-2.44,2.55-5.38,4.36-8.84,5.8c0,2.63,0,5.41,0,7.13
		c-1.3,3.71-3.57,5.39-5.47,7.39c-1.11-0.33-2.11-1.34-3.53-0.53c-0.7,1.65,0.34,3.67-1.05,5.49c-0.63,0.83-0.62,2.9,0.36,4.18
		c0.46,0.6,0.69,1.22,0.48,1.79c-1.98,5.44-0.37,11.09-1.03,16.59c-0.36,3.03-1.29,5.99-0.94,9.09c0.05,0.47-0.23,1.01,0.4,1.41
		c0.34,0.09,0.79,0.21,1.24,0.32c0.12,0.12,0.34,0.24,0.34,0.35c0.02,7.66,0.01,15.33,0.01,22.99c-0.67,1.19-2.29-0.2-2.95,1.06
		c0.71,1.01,1.94-0.03,2.89,0.87c0,1.62,0,3.41,0,5.01c0.85,0.97,1.75,0.38,2.71,0.63c0.83-1.85-0.02-3.88,0.55-5.83
		c1.06-0.32,0.96,1.14,1.77,1.03c0,1.83,0,3.49,0,5.49c3.88,2.09,6.65,5.45,8.77,9.45c2.42,4.57,1.13,8.9-0.66,13.18
		c-1.84,4.43-5.86,6.57-9.92,8.71c0,3.19,0,6.31,0,9.64c3.33,2.12,6.52,4.57,8.01,8.83c1.3,3.71,0.74,10.59-1.02,13.89
		c-2.19,4.12-5.99,5.82-9.97,7.96c0,2.49,0,5.28,0,8.21c1.01,0.64,1.95,1.68,3.2,2.49c6.76,4.36,8.04,14.58,3.74,21.47
		c-2.28,3.64-5.82,5.19-8.98,7.65c0,2.76,0,5.55,0,8.66c3.02,1.29,5.77,3.3,7.58,6.34c0.55,0.92,1.16,1.95,1.22,2.97
		c0.17,2.65,0.56,5.46-0.08,7.96c-0.71,2.81-1.93,5.71-4.28,7.68c-2.66,2.23-5.66,3.89-9.2,4.27c-0.41,0.83-0.81,1.65-1.22,2.47
		c1.33,0.52,2.55,1.74,4.29,1.39c5.96,5.85,5.96,5.85,4.55,12.25c-1.76,2.87-4.74,4.14-7.85,5.74c-3.3,0-7.14,0.7-10.58-0.18
		c-4.1-1.04-8.09-0.48-12-0.85c-0.59,0.39-0.6,0.88-0.54,1.59c-1.63,0.89-3.17,0.53-4.8-0.47c-0.86,3.81,0.66,7.83-0.93,11.68
		c0.95,0.57,2.83-0.19,3.52,1.62c-0.57,1.62-1.93,1.81-3.45,1.53c-0.27,0.73-0.48,1.3-0.76,2.06c-4.38,0-8.84,0-13.72,0
		c0.83,4.9-0.93,9.39-1.14,14.11c-0.14,3.31-0.18,6.82-0.91,10.06c-0.73,3.24-0.15,6.58-1.02,9.57c-0.96,3.27,0.13,6.71-1,9.57
		c-1.54,3.89,0.32,8.05-1.73,11.79c-0.49,0.9-0.49,2.57,0.24,3.84c2.15-2.85,3.19-6.61,8.23-7.9c4.83,0.39,10.93-0.99,17.1,1.23
		c0.41,2.39,2.5,4.22,3.77,6.53c1.06,1.92,1.69,3.72,1.57,5.87c-0.08,1.5,0.1,3.01-0.04,4.5c-0.2,2.17,0.46,4.05,1.39,5.81
		c0.62,0.14,1.2-0.22,1.52,0.57c0,1.96,0,4.08,0,6.35c-0.89,0.07-1.67,0.14-2.47,0.2c-0.99,0.7,0.11,1.95-0.87,2.88
		c-1.27,0-2.73,0-4.53,0c0,1.41,0,2.65,0,4.64c-1.44-1.72-0.72-3.05-1.2-4.38c-2.42,0-4.99,0-7.63,0c-0.25,7.7-1.67,15.3-1.22,23.02
		c0.24,4.13,0.04,8.28,0.04,12.15c-0.53,0.8-1.06,0.55-1.52,0.57c-0.16-0.27-0.45-0.54-0.45-0.81c-0.03-2.83-0.21-5.68,0.02-8.49
		c0.55-6.75-0.94-13.38-1.15-20.08c-0.06-1.97-1.37-3.93-0.52-6.49c-2.45-0.04-4.55-0.08-6.66-0.1c-2.14-0.02-4.28,0-6.56,0
		c0,8.32,0,16.43,0,24.69c0.61,0.87,1.84-0.18,2.73,0.67c0,2.01,0,4.13,0,6.26c-0.68,0.73-1.56,0.2-2.42,0.4
		c-0.83,1.12-0.41,2.4-0.33,3.64c0.98,0.75,0.75-1.01,1.29-0.62c1.48-0.29,1.77,0.99,2.98,1.52c-1.47,1.48-1.54,3.22-1.36,4.94
		c-1.02,0.66-2.23,0.79-2.95,1.96c0,7.65,0,15.43,0,24.02c1.82-2.03,2.83-3.85,3.9-5.59c1.65-2.68,3.97-4,7.16-3.91
		c3.33,0.09,6.66,0.02,10,0.02c1.92,0,3.91-0.31,5.41,1.55c1.91,2.7,3.89,5.67,5.44,10.19c0,1.89-0.02,5.05,0.01,8.21
		c0.02,1.97,0.76,3.52,2.86,4.33c0,2.06,0,4.18,0,6.37c-0.61,0.73-1.51,0.16-2.32,0.36c-1.13,0.61-0.13,1.83-0.88,2.8
		c-1.25,0-2.71,0-3.95,0c-1.54,1.23,0.16,3.09-1.28,4.14c-1.06-1.1,0.1-2.6-0.79-3.84c-2.37,0-4.82,0-7.37,0
		c-0.76,9.82-2.21,19.62-0.75,29.83c-0.22,0.21-0.91,0.73-0.27,1.89c1.71,0.74,4.31-0.88,5.6,1.61c0,22.75,0,45.53,0,68.42
		c-1.92,0-3.7,0-5.68,0c0-21.78,0-43.56,0-64.89c-0.54-1.17-1.34-0.84-1.97-1.22c-0.74-1.31,0.58-3.31-0.96-4.18
		c2.07-10.71-0.27-21.01-1.43-31.47c-4.21,0-8.33,0-12.82,0c0,3.95,0,7.9,0,11.85c0,3.83,0,7.66,0,11.5c0,4-0.09,8,0.03,12
		c0.11,3.7-0.53,7.48,0.58,11.43c0.13-0.13-0.31,0.11-0.31,0.34c-0.03,13.11-0.03,26.23-0.03,39.56c0.49,0.6,1.41-0.07,2.69,0.55
		c0.55,0.38-0.05,1.38-0.09,2.32c-1.02,0.42-2.19,0.64-2.86,1.91c0,18.82,0,37.8,0,56.79c0,26.66,0,53.32,0,79.98
		c0,2.08-0.13,4.06-0.91,6.12c-1.32,3.46-2.31,7.09-3.02,10.73c-0.72,3.69-2.31,7.12-2.98,10.76c-0.65,3.56-1.99,6.9-2.75,10.35
		c-1.27,5.8-3.15,11.42-4.5,17.19c-1.2,5.1-2.38,10.27-4.1,15.27c-0.86,2.5-2.01,4.98-1.64,8.16c1.78-0.56,3.03,1.22,5.04,1.03
		c0.89-0.16,1.65-0.9,1.83-1.82c1.42-7.67,4.03-15.03,5.74-22.59c1.62-7.16,3.82-14.15,5.44-21.3c1.08-4.78,1.8-9.79,4.31-14.23
		c3.31,0,6.63,0,9.83,0c0.89-0.34,0.61-1.13,0.92-1.84c2.21-0.95,4.06,1.33,6.38,0.91c1.99-0.36,3.84,1.01,5.75,1.66
		c2.05,0.69,3.66,2.58,6.24,2.22c2.5,2.53,5.03,5.17,7.64,7.74c2.52,2.48,3.27,6.1,5.82,8.78c0,1.34,0,2.79,0,4.06
		c0.53,0.53,0.88,0.88,1.41,1.41c1.61,0,3.39,0,5.16,0c0.43,1.62-1.07,0.65-1.5,1.76c0,3.59,0,7.71,0,11.8
		c-2.8,0.36-2.8,0.36-4.59-0.5c-3.82,3.64-4.03,10.03-9.48,12.42c-3.26,4.79-8.94,5.72-14.27,8.68c-1.07,0.34-3.02-0.73-4.96,0.44
		c-1.89,1.14-4.52-0.39-6.23,0.57c-2.07,1.16-3.4-0.85-5.29-0.27c-1.81,0.56-3.93,0.12-5.78,0.12c-2.49,2.08-1.8,5.35-3.38,7.67
		c2.57,1.14,5.2,1.93,7.36,4.12c2.24,2.27,3.61,4.97,4.34,7.73c0.82,3.11-0.77,6.24-2.72,8.74c-1.65,2.12-3.56,4.2-6.49,4.76
		c-0.42,0.08-0.75,0.6-1.14,0.94c-4.04-0.33-7.87,2.16-11.46,0.86c-1.44,0.53-0.53,1.86-1.63,2.07c-0.98-0.71,0.14-1.96-0.8-2.81
		c-4.35,0-8.8,0-13.37,0c-2.34,6.44-4.12,13.02-5.56,19.8c-12.28,0-24.59,0-36.6,0c-3.36,1.59-3.99,5.36-7,7.26
		c-1.64-0.71-2.52-2.42-4.06-3.56c1.02-1.07,1.99-2.1,3.19-3.37c-4.78,0-9.35,0-14.21,0c0.2,4.63-0.96,8.89-2.7,13.26
		c-1.85,4.63-6.49,6.7-8.59,11.21c-1.75,0.24-3.32,1.6-5.17,2.4c-3.49,1.51-7.1,1.48-10.68,2.11c-3.73,0.65-7.23-0.07-10.68-0.44
		c-3.37-0.36-7.03-1.94-9.69-4.07c-4.24-3.4-8.97-6.62-10.72-12.38c-0.68-2.24-2.17-4.34-1.68-6.76c0.41-1.98-1.78-3.19-1.07-5.13
		c-1.2-0.87-2.56-0.31-3.83-0.41c-1.29-0.1-2.6-0.02-4.16-0.02c0.67,1.94,2.37,2.72,3.17,4.28c0.72,1.39,0.25,3.28,1.79,4.25
		c-1.64,1.02-0.65,2.72-1.07,4.06c-1.41,1.41-2.83,2.83-4.42,4.42c-1.65-0.44-3.21,0.41-4.84,0.99c-1.91,0.69-3.19-1.68-5.09-1
		c-1.47-1.23-2.53-2.99-4.55-3.5c0-0.67,0-1.33,0-2.21c-4.13-0.4-6.81-3.01-9-6.3c1.4,0.5,2.17-1.31,3.97-1.42
		c1.33,1.33,2.66,2.66,4.4,4.4c-1.58-1.77,0.99-1.82,0.63-3.12c0-0.87-1.33-1.07-1.07-1.87c0.24-1.06,1.7-1.5,0.75-2.84
		c-3.42,0-6.96,0-11.03,0c1.35,1.35,2.36,2.36,3.29,3.29c-0.53,0.72-1.12,0.92-0.95,1.55c-1.65-0.45-2.33,0.91-3.3,1.79
		c-2.94-1.32-3.57-4.75-6.3-6.73c-12.11,0-24.56,0-36.83,0c-1.92-6.76-3.79-13.31-5.71-20.06c-4.07,0-8.13-0.5-11.98,0.16
		c-2.89,0.5-5.71,0.78-8.61,0.84c-2.9,0.06-5.52-0.98-8.17-1.99c-3.8-1.44-6.29-4.23-8.04-7.74c-0.28-0.56-0.4-1.18-0.9-1.61
		c-1.3-7.76,3.96-14.16,11.67-16.1c-0.73-2.01-1.87-3.9-1.91-6.15c-0.7-0.65-1.95-0.36-2.41-1.42c-1.33,0-2.66,0-4,0
		c-2.17,0-4.34,0.12-6.49-0.03c-2.07-0.15-4.16,0.53-6.24-0.6c-1.92-1.04-4.21-0.03-6.16-0.47c-4.55-2.63-9.36-4.52-13.35-7.99
		c-4.01-3.49-5.72-8.3-8.29-12.7c-1.54,0.8-3.01,0.98-4.89,0.69c0-4.17,0-8.42,0-12.35c-1.14-0.98-2.36,0.01-3.3-1.35
		c2.44,0,4.67,0,6.76,0c0.82-2.73,1.22-5.25,2.31-7.44c2.29-4.59,4.86-9.14,9.16-12.16c3.28-2.3,6.73-4.4,10.65-5.62
		c3.63-1.12,7.35-1.37,11.06-2.09c0.17,0.81,0.27,1.26,0.41,1.92c3.39,0,6.83,0,10.49,0c5.26,20.1,10.48,40.06,15.7,59.99
		c2.42,1.42,4.13-1.55,6.26-0.75c1.46-2.77-1.19-4.84-0.59-7.26c-2.08-4.22-2.43-8.95-3.83-13.39c-1.39-4.42-2.91-8.95-3.17-13.69
		c-3.57-7.33-3.98-15.57-6.72-23.19c-1.81-5.05-2.35-10.61-4.29-15.72C116.93,2538.78,118.23,2537.26,116.28,2536.91z
		 M459.24,637.18c0.06-1.01-0.61-1.04-1.29-1.03c-4.13,0.06-8.27,0.12-12.4,0.2c-0.09,0-0.18,0.22-0.27,0.34
		c0.47,0.47,0.94,0.94,1.55,1.55c4.04-0.59,8.35,0.89,12.75-1.43c-0.6,0.93,0.04,1.69-0.91,2.35c-2.08,0-4.38-0.05-6.69,0.01
		c-2.25,0.06-4.54-0.27-6.56,0.18c0,4.11,0,7.89,0,11.8c2.48,0,4.78-0.05,7.09,0.01c2.24,0.06,4.52-0.26,6.74,0.61
		c-2.27,0.38-4.54,0.33-6.81,0.39c-2.41,0.06-4.85-0.28-7.23,0.21c0.06,0.82-0.11,1.36,0.43,1.67c4.77,0,9.55,0,14.25,0
		C461.35,648.32,462.25,642.71,459.24,637.18z M97.39,224.97c2.44,0.87,1.56,3.46,2.1,5.03c2.49,0,4.59,0,6.64,0
		c0.46-1.67-0.3-3.32,0.65-5.02c1.07,1.79-0.08,3.57,0.87,5.14c1.46,0.41,3.18-0.43,4.6,0.52c0.19,0.87-0.32,1.86,1.09,3.01
		c0-6.89,0-13.13,0-19.63c1.75,0.34,2.84,1.78,4.37,1.19c0.83-0.83,1.65-1.65,2.41-2.41c0-1.49,0-2.94,0-4.23
		c-0.5-0.5-0.86-0.86-1.26-1.26c-1.79-0.1-3.65-0.39-5.41,0.67c-0.14-1.47-0.23-2.95-1.83-3.78c-2.35,0.2-4.89-0.51-7.29,0.86
		c-0.01-0.75-0.23-1.26,0.71-1.99c2.44,0,5.35,0,8.39,0c-0.63-3.23,0.68-6.25-0.85-9.05c1.22-2.74,0.6-5.63,0.68-8.45
		c0.09-2.99,0.02-5.99,0.02-8.99c0-3.16,0-6.33,0-9.49c0-3,0-5.99,0-8.99c0-2.94,0-5.89,0-8.73c-5.55,0-10.67,0-15.89,0
		C97.39,174.59,97.39,199.69,97.39,224.97z M112.11,2306.1c-4.77,0-9.22,0-13.82,0c0,2.46-0.24,4.8,0.07,7.05
		c0.35,2.53-1.21,4.59-1.12,7.07c0.22,6.02-0.34,12.07,1.08,18.01c0.06,0.24,0.36,0.42,0.62,0.71c0.22-0.63,0.43-1.21,0.79-2.23
		c5.06,1.62,10.31,1.24,15.6,0.39c-2.69-0.12-5.38-0.25-7.85-0.36c0-3.47,0-6.58,0-9.81c2.52,1.86,5.1,0.62,7.31,1.01
		c2.57-4.05,1.27-8.22,1.46-12.21c0.2-4.25,0.05-8.52,0.05-12.78c-1.58,0.06-2.73-0.3-3.86,0.3
		C112.34,2304.02,112.25,2304.81,112.11,2306.1z M415.73,621.16c-1.26,2.75,0.67,4.12,0.52,5.92c-0.67,8.06,1.63,16,1.03,24.06
		c-0.04,0.59-0.58,1.59,0.62,1.86c0.14-0.18,0.33-0.3,0.33-0.42c0.01-7.99,0.01-15.97,0.01-24.35c3.98-1.79,8.53-2.21,12.13-4.06
		c1.43,0.29,0.15,1.88,1.54,1.81c0.22-0.59,0.43-1.16,0.64-1.72c0.86-0.11,1.65-0.32,2.41,0.1c0.21,0.6,0.42,1.18,0.59,1.67
		c0.88,0.35,1.77-0.25,2.46,0.38c0.39,0.68,0.29,1.25-0.27,1.73c-0.36-0.34-0.72-0.67-1.03-0.96c-1.28-0.61-1.59,0.91-2.63,1.07
		c-1.14,0.17-1.78-1.22-2.84-0.65c0,0.75,0,1.41,0,2.54c1.43-0.86,1.8,0.73,2.89,1.04c1.47,0.42,2.24-1.26,3.57-1.03
		c0.37,0.33,0.72,0.65,1.04,0.95c0.37-0.31,0.71-0.6,1.09-0.92c1.47,1.79,3.06,3.29,5.44,3.28c-0.08,0.91,0,1.37,0.22,1.52
		c4.35,0,8.47,0,12.99,0c-1.18-5.38-4.9-8.82-8.66-11.51c-9.89-7.09-20.85-8.48-32.46-3.94
		C416.76,620.13,416.06,620.84,415.73,621.16z M88.44,379.27c-0.7,5.75,0.06,11.06-0.93,16.49c-1.02,5.58-0.23,11.5-0.23,18.19
		c3.08-4.32,7.12-5.11,10.84-6.09c0-2.62,0-5.07,0-7.46c-2-0.66-4.05,0.32-6-0.71c0-6.8,0-13.57,0-20.43
		C90.86,379.27,89.74,379.27,88.44,379.27z M447.24,1487.13c0,19.49,0,38.9-0.01,58.3c0,0.13-0.17,0.26-0.27,0.38
		c-0.11,0.13-0.23,0.24-0.35,0.35c-0.12,0.12-0.24,0.24-0.35,0.35c2.19,1.76,0.1,4.44,1.37,6.48c0.46-0.03,0.91-0.07,1.45-0.11
		c0-21.96,0-43.82,0-65.76C448.46,1487.13,448.01,1487.13,447.24,1487.13z M435.42,1464.15c0,4.85,0,9.31,0,13.69
		c1.66,0.59,3.37-0.33,4.83,0.69c-1.11,1.27-2.92-0.29-3.95,1.1c1.16,0.99,2.65-0.12,3.85,0.82c0,0.72,0,1.5,0,2.24
		c-0.81,0.68-1.69,0.16-2.45,0.38c-0.74,0.22-1.87-0.69-2.3,0.76c1.99,0,3.89,0,5.69,0c0-6.67,0-13.12,0-19.67
		C439.16,1464.15,437.38,1464.15,435.42,1464.15z M407.23,666.42c-1.19-1.66-1.85-2.59-2.28-3.19c-2.11,0-3.74,0-4.87,0
		c-1.19,0.99-2.08,1.72-2.78,2.3c0,1.26,0,2.23,0,2.92c0.93,1.04,1.69,1.9,2.41,2.7c0.93,0,1.79-0.16,2.57,0.04
		c0.86,0.22,0.95-1.46,1.83-0.72c0.44,2.27-0.26,4.56,0.43,6.63c2.28,0.35,1.36-2.09,2.69-2.42
		C407.23,671.71,407.23,668.75,407.23,666.42z M418.2,847.55c-1.27-1.6-1.94-2.44-3-3.76c0,2.77,0,5.01,0,7.25
		c-1.46,0.08-2.57,0.13-3.69,0.19c0.18,0.22,0.36,0.45,0.53,0.67c-1.01,0.59-2.02,1.18-2.7,1.58c0,1.4,0,2.37,0,2.43
		c1.08,1.54,1.75,2.48,2.42,3.43c1.79,1.09,3.3-1.64,4.96-0.39c0.85-0.75,1.79-1.58,2.83-2.5
		C418.65,853.17,417.83,850.04,418.2,847.55z M406.08,758.39c-1.03,0.79-2.05,1.59-2.84,2.19c0,1.25,0,2.08,0,2.68
		c0.95,1.11,1.78,2.1,2.45,2.89c1.72-0.06,3.15,0.32,4.67-1.42c0,2.92,0,5.16,0,7.4c0.68,0,1,0,1.45,0
		c2.4-3.66,1.07-7.76,1.46-11.45c-0.96-0.96-1.66-1.66-2.2-2.2C409.19,759.18,407.55,757.34,406.08,758.39z M395.44,477.86
		c-1.01-1.01-1.83-1.83-2.66-2.66c-0.35,0.32-0.7,0.63-1.05,0.94c-1.06-1.58-2.65-0.83-3.94-0.93c-0.9,0.86-1.74,1.66-2.53,2.41
		c0,1.07,0,2.06,0,3.04c0.83,0.83,1.65,1.65,2.49,2.49c0.81,0,1.68-0.17,2.45,0.04c0.9,0.25,0.99-1.39,1.93-0.72
		c0.13,3.53,0.13,3.53,1.88,6.8C396.41,485.68,394.63,481.77,395.44,477.86z M401.22,570.43c-1.18-1.65-1.85-2.59-2.27-3.19
		c-2.45,0-4.41,0-6.31,0c-1.38,1.97-1.39,1.98-1.37,4.98c0,0.28,0.24,0.55,0.38,0.83c0.65,1.27,2.44,0.84,3.1,2.1
		c0.95-1.22,2.09-1.36,3.38-0.66c0.48,1.89-0.35,3.89,0.42,5.61c1.5,0.26,1.92-0.82,2.68-1.42
		C401.22,575.74,401.22,572.77,401.22,570.43z M408.26,459.02c0-5.25,0-10.47,0-15.76c0.76,0,1.21,0,1.66,0
		c0.98,0.21-0.38,1.86,1.03,1.72c0.81-0.78-0.27-2.01,0.7-2.72c0.79,0.26,1.25,1.81,2.35,0.66c0-1.96,0-3.86,0-6.7
		c-1.46,1.82-2.38,2.97-3.29,4.1c-2.26-0.74-3.78,0.6-5.32,1.31c0,5.5,0,10.92,0,16.22C406.16,458.45,406.5,459.38,408.26,459.02z
		 M113.79,476.16c-0.35-0.32-0.69-0.64-1.04-0.96c-0.49,0.49-0.95,0.95-1.36,1.36c0,3.82,0,7.58,0,11.26
		c0.54,0.5,0.99,0.91,1.84,1.69c0-2.67,0-4.9,0-7.25c3.05,1.17,5.83,0.84,7.04-0.65c0-1.33,0-2.65,0-2.83
		c-1.23-1.72-1.99-2.77-2.61-3.63C116.07,475.25,114.65,474.74,113.79,476.16z M380.33,393.48c-0.52,2.66,1.35,3.48,2.55,4.7
		c1.72-0.15,3.54,0.49,5.39-1.15c0,2.88,0,5.47,0,8.96c3.11-4.84,1.51-9.26,1.96-13c-0.65-0.84-1.05-1.35-1.47-1.9
		c-0.62,0.9-1.08,1.21-1.89,0.32c-0.33-0.35-1.23-0.19-1.87-0.22c-0.81-0.03-1.62-0.01-1.41-0.01
		C381.94,392.34,380.99,393.01,380.33,393.48z M112.34,390.74c-2.02,4.46-0.6,8.87-1.09,12.99c0.77,0.39,0.94,1.47,2.26,1.01
		c0-2.48,0-5.01,0-7.9c1.76,2.11,3.67,1.05,5.27,1.35c0.56-0.56,1.03-1.03,1.35-1.35c0-1.59,0-3.04,0-4.31
		c-0.51-0.51-0.86-0.86-1.27-1.27c-1.77-0.04-3.64-0.47-5.32,0.68C113.3,391.7,113.07,391.46,112.34,390.74z M435.32,1606.07
		c2.56-0.19,4.77,0.51,6.76-0.91c0.49,3.09-0.24,6.03,0.92,8.85c0-4.87,0-9.74,0-14.58c-0.4-0.47-0.83-0.96-1.06-1.23
		c-2.36,0-4.46,0-6.62,0C435.32,1600.81,435.32,1603.25,435.32,1606.07z M439.16,2052.12c-2.86,0-5.29,0-8.12,0
		c1.06,2.43-1.24,4.22-0.65,6.88c2.61-0.52,4.87,2.08,7.67,0.65c0.35-0.35,0.7-0.7,1.1-1.1
		C439.16,2056.5,439.16,2054.41,439.16,2052.12z M443.07,1979.9c0-2.88,0-5.32,0-7.94c-2.73,0.1-5.3-0.13-7.66,0.13
		c0,2.85,0,5.3,0,7.81C438.02,1979.9,440.46,1979.9,443.07,1979.9z M441.08,2019.89c0-2.54,0-4.65,0-6.73
		c-2.62-0.31-4.9-1.99-7.66-0.95c0,2.51,0,5.06,0,7.68C436.03,2019.89,438.47,2019.89,441.08,2019.89z M424.43,994.34
		c1.49,1.92,0.69,4.44,0.79,6.82c0.11,2.48,0.02,4.97,0.02,7.46c0.78,0.54,1.13,1.74,2.75,1.41c0.08-2.34,2.34-4.55,0.3-7.28
		c-0.4-0.53-0.06-1.62-0.06-2.45c0-2.3,0-4.6,0-6.77c-0.84-0.55-1.11-1.56-2.67-1.37C425.39,992.51,425,993.24,424.43,994.34z
		 M110.28,975.32c0.91,1.04,1.76,2,2.01,2.3c2.88,1.2,4.31-0.37,5.99-1.08c-0.6-1.23,1.31-1.46,1.01-2.52
		c-0.51-0.99-1-1.94-1.49-2.89c-1.43-1.49-3.28-0.98-4.45-0.46c-1.14,0.66-2.28,1.33-3.07,1.79
		C110.28,973.83,110.28,974.65,110.28,975.32z M407.43,971.38c-0.47,1.23-0.12,2.82-0.13,3.45c1.12,1.55,1.79,2.49,2.32,3.22
		c1.27,0,2.25,0,3.01,0c0.98-0.91,1.83-1.68,2.6-2.39c0-1.11,0-2.1,0-3.07c-0.83-0.83-1.65-1.65-1.88-1.88
		C410.89,969.39,409.41,970.75,407.43,971.38z M427.18,1410.62c0.37,3.78-0.44,7.68,0.43,11.47c1.71-0.13,2.43-0.88,2.63-2.15
		c0.17-1.08,0.4-2.18,0.6-3.19c0.44-2.3,1.8-4.46,1.39-6.91c-0.05-0.28-0.32-0.52-0.49-0.77c-0.51,0.36-0.76,1.12-1.82,0.95
		c-0.31-0.2-0.8-0.53-1.29-0.85C428.28,1409.52,427.93,1409.87,427.18,1410.62z M427.37,1658.35c2.67-1.69,2.69-1.69,2.87-2.84
		c0.14-0.92,0.35-1.85,0.56-2.73c0.52-2.27,1.67-4.46,1.43-6.88c-0.03-0.28-0.28-0.54-0.43-0.83c-1.03,1.26-2.07,1.3-3.09-0.01
		c-0.48,0.48-0.95,0.95-1.34,1.34C427.37,1650.24,427.37,1654.01,427.37,1658.35z M160.08,1156.36c-1.42-1.02-1.94,1.06-3.15,0.7
		c-0.58,0.05-0.62-1.08-1.73-0.62c1.02,4.26,1.64,8.64,3.46,12.67c0.6-0.07,0.92-0.11,1.42-0.18
		C160.08,1164.74,160.08,1160.51,160.08,1156.36z M427.24,1527.42c0,2.52,0,5.3,0,8.07c0,0.83-0.06,1.66,0.02,2.48
		c0.09,1.01,0.77,1.56,1.54,1.85c2.12-1.61,1.43-4.15,2.04-6.17c0.59-1.97,2.25-4.2,1.04-6.7c-0.53,0.47-0.89,0.79-1.17,1.04
		C429.39,1528.48,428.92,1526.31,427.24,1527.42z M428.87,1298.22c1.72-4.25,2.48-8.6,3.51-13.28c-0.99,0.56-1.49,0.84-1.99,1.12
		c-1.13,0.39-1.58-2.08-3.04-0.6c0,3.67,0,7.43,0,11.15C427.82,1297.12,428.28,1297.6,428.87,1298.22z M428.88,1169.22
		c1.71-4.22,2.46-8.57,3.51-13.29c-1,0.58-1.49,0.86-2.14,1.24c-0.96,0.2-1.46-2.05-2.91-0.7c0,3.67,0,7.44,0,11.22
		C427.8,1168.14,428.27,1168.61,428.88,1169.22z M419.27,1643.64c2.19,1.45,2.19,1.5,5.67,1.18c1.96-2.95,1.92-3.87-0.03-5.6
		c-1.67,0-3.12,0-4.36,0c-0.54,0.54-0.9,0.9-1.28,1.28C419.27,1641.45,419.27,1642.45,419.27,1643.64z M421.55,1162.03
		c2.84,0.36,3.65-1.5,4.87-2.77c-0.62-2.8-1.84-4.4-4.66-4.18c-1.08,1.31-3.1,2.07-2.77,3.36
		C420.26,1160.21,421.01,1161.26,421.55,1162.03z M426.45,1282.33c-0.7-2.68-1.77-4.43-4.59-4.28c-1.17,1.25-3.05,2.05-2.59,4.4
		c0.87,0.96,1.64,2.2,2.98,2.67C424.38,1284.37,424.38,1284.37,426.45,1282.33z M426.2,1407.63c0.35-2.72-1.51-3.54-2.78-4.76
		c-2.8,0.62-4.4,1.84-4.18,4.66c1.31,1.08,2.07,3.1,4.38,2.52C424.53,1409.19,425.46,1408.32,426.2,1407.63z M421.88,1519.94
		c-1.18,1.39-3.17,2.15-2.58,4.65c0.74,0.77,1.63,1.68,2.34,2.41c2.7,0.33,3.61-1.42,4.7-2.79
		C426.03,1521.54,424.74,1520.21,421.88,1519.94z M414.42,596.25c-0.86,7.93,0.68,15.3,1.66,22.72c0-7.54,0-15.08,0-22.72
		C415.5,596.25,415.05,596.25,414.42,596.25z M161.17,1157.62c0.92,3.49,0.92,3.49,5.33,3.3c1.93-0.76,1.92-2.05,1.71-3.41
		c-1.29-1.15-2.21-2.99-3.97-1.95C163.16,1156.29,162.07,1157.02,161.17,1157.62z M162.28,1406.55c-0.13-1.11,0.3-2.27-0.23-3.19
		c-1.45-1.87-3.1-1.41-4.62-1.09c0,2.09,0,3.85,0,5.69c1.26,0,2.36,0,3.44,0C161.25,1407.58,161.59,1407.23,162.28,1406.55z
		 M82.12,900.29c-1.26,8.73-1.06,22.69,0,26.14C82.12,917.38,82.12,908.83,82.12,900.29z M158.52,1526.99
		c1.61,0.14,1.98-0.74,2.54-1.27c0.56-0.53,1.39-0.95,1.34-1.25c-0.23-2.78-1.8-3.58-3.58-5.06c-0.18,1.45-1.59,1.41-1.53,3.01
		C159.12,1523.3,157.8,1525.44,158.52,1526.99z M56.45,1818.09c0,2.18,0,3.96,0,5.71c1.08,0.17,2.04,0.59,2.69-0.12
		c0-1.96,0-3.74,0-5.59C58.2,1818.09,57.42,1818.09,56.45,1818.09z M113.66,2372.2c0.55-1.03,1.88-1.35,1.62-2.79
		c-0.08-0.45,0.21-1-0.65-1.49c-0.9,0.42-2.21-0.59-3.32,0.45C111.05,2369.99,111.43,2371.26,113.66,2372.2z M112.27,2149.82
		c0.06-1.49,0.18-2.58-0.97-3.39c-1.07-0.75-2.01-0.74-3.02-0.01C108.72,2149.61,108.72,2149.61,112.27,2149.82z M113.04,378.51
		c-0.67,1.86-2.4,1.16-2.76,2.41c0.48,2.19,0.48,2.19,2.76,3.36C113.04,382.64,113.04,381.1,113.04,378.51z M84.81,1026.03
		c-2.01,0.25-2.71,1.46-2.51,3.31c0.03,0.27,0.32,0.51,0.49,0.76c0.76-0.17,1.62,0.32,2.37-0.37
		C85.25,1028.54,85.62,1027.28,84.81,1026.03z M102.92,1997.12c0.55-1.5,0.48-2.72,0.04-4.3c-0.87,0.54-1.85-0.35-2.59,0.55
		C99.97,1995.29,100.57,1996.55,102.92,1997.12z M85.04,1014.01c0.4-1.3,0.38-2.52,0.01-3.83c-0.53,0-0.98,0-1.51,0
		c-0.4,1.3-0.38,2.52-0.01,3.83C84.06,1014.01,84.5,1014.01,85.04,1014.01z M110.6,375c2.21,1.01,1.28-1.66,2.35-2.01
		c0.45-0.15,0.42-0.45-0.05-0.69c-0.89-0.04-1.86-0.57-2.62,0.39C110.45,373.46,109.96,374.32,110.6,375z M420.21,574.93
		c0.16-1.59-0.73-2.1-1.56-2.71c-0.68,0.84-1.78,1.26-1.34,2.51C418.1,575.5,419.02,575.14,420.21,574.93z M92.48,449.08
		c-0.51-1.18,0.39-2.28-0.65-2.78c-1.07,0.28,0.12,1.79-1.18,1.69c-0.85-0.26,0.26-1.72-1.51-1.58c0.5,0.88-0.31,1.8,0.54,2.67
		C90.44,449.08,91.21,449.08,92.48,449.08z M435.43,1612.2c1.88,0.63,3.81,1.22,5.65,0C439.2,1612.2,437.31,1612.2,435.43,1612.2z
		 M83.03,969.19c0.59,0.92,1.38,1.14,1.25,1.94c0.44,0.83-1.38,0.91-0.57,1.93c0.4-0.02,0.85-0.05,1.7-0.09
		c-0.46-1.28,0.33-2.49-0.5-3.78C84.51,969.19,84.07,969.19,83.03,969.19z M110.12,2101.93c-1.14,0.69-1.97,1.26-1.43,2.12
		c0.31,0.69,0.62,1.38,0.93,2.07c0.17-0.12,0.33-0.25,0.5-0.37C110.12,2104.55,110.12,2103.35,110.12,2101.93z M424.24,1870.49
		c1.03,0.43,0.75,1.81,1.87,2.59c0.05-1.54,0.5-2.81-0.31-4.15C425.27,1869.47,424.93,1869.81,424.24,1870.49z M436.07,1644.2
		c-0.77,1.24-1.21,2.51,0,4.48C436.07,1646.64,436.07,1645.42,436.07,1644.2z M425.02,1879.55c0.15-1.98,0.61-3.25-0.51-4.39
		C424.52,1876.39,423.82,1877.61,425.02,1879.55z M410.43,449.22c0.76-0.12,1.29,0.15,1.8-0.65c-1.58-0.12-0.44-1.81-1.51-2.39
		C409.85,446.97,410.3,447.92,410.43,449.22z M419.33,1944.97c2.23,0.09,2.25-0.74,1.51-2.01c-0.55,0.08-1.08-0.19-1.51,0.49
		C419.33,1943.75,419.33,1944.2,419.33,1944.97z M406.54,482.37c0.17,0.85-0.87,1.88,0.27,2.8
		C407.44,484.13,407.4,483.25,406.54,482.37z M83.68,968.01c0.27,0.24,0.93,0.33,1.65-0.44c-0.07-0.4-0.15-0.84-0.18-1.03
		C84.7,966.98,84.19,967.49,83.68,968.01z M113.42,387.1c-0.16-0.87-0.24-1.31-0.33-1.78c-0.97,0.28-1.39,0.85-1.96,1.78
		C112.07,387.1,112.51,387.1,113.42,387.1z M85.2,961.35c-0.76,0.41-1.41,0.76-2.12,1.14c0.93,0.78,1.48,0.79,2.12,0.23
		C85.2,962.34,85.2,961.9,85.2,961.35z M109.69,2142.25c-0.32,1.51-0.32,1.51,2.11,1.32
		C110.8,2142.94,110.19,2142.56,109.69,2142.25z M84.79,992.09c-0.73,0.68-0.73,1.34,0,2.02C85.51,993.44,85.51,992.77,84.79,992.09
		z M113.29,448.67c-0.68-0.73-1.34-0.73-2.02,0C111.95,449.4,112.62,449.4,113.29,448.67z M425.77,1866.06
		c0.61-0.92,0.92-1.56-0.18-1.94C425.09,1864.74,425.05,1865.29,425.77,1866.06z M84.79,1015.02c-0.65,0.91-0.94,1.54,0.15,1.96
		C85.47,1016.4,85.44,1015.84,84.79,1015.02z M83.51,964.81c0.48-0.25,1.33,0.99,1.64-0.38C84.54,963.95,83.99,963.92,83.51,964.81z
		 M101.21,1999.48c0.91,0.65,1.54,0.94,1.96-0.15C102.58,1998.79,102.03,1998.82,101.21,1999.48z M85.06,959.4
		c-0.48,0.25-1.33-0.99-1.64,0.38C84.03,960.26,84.58,960.3,85.06,959.4z M426.2,1013.62c0.88,0.62,1.51,0.91,1.97-0.28
		C427.54,1013.07,426.99,1012.86,426.2,1013.62z M112.78,141.2c-0.73,0.68-0.73,1.34,0,2.02
		C113.51,142.54,113.51,141.88,112.78,141.2z M112.27,2374.43c0.68,0.73,1.34,0.73,2.02,0
		C113.62,2373.7,112.95,2373.7,112.27,2374.43z M91.78,445.16c0.47-0.32,0.47-0.66,0-0.98C91.32,444.51,91.32,444.84,91.78,445.16z
		 M73.3,1959.48c0.32,0.47,0.66,0.47,0.98,0C73.95,1959.02,73.62,1959.02,73.3,1959.48z M423.25,142.71c0.32,0.47,0.66,0.47,0.98,0
		C423.91,142.24,423.58,142.24,423.25,142.71z M70.79,2589.9c0.47-0.33,0.47-0.66,0-0.99C70.32,2589.24,70.32,2589.57,70.79,2589.9z
		 M211.26,2668.39c-0.32-0.47-0.66-0.47-0.98,0C210.6,2668.86,210.94,2668.86,211.26,2668.39z"/>
	<path class="st0" d="M402.25,2461.84c-4.38-1.33-8.08-3.59-12.04-5.33c0.73-1.13,1.93-0.2,2.89-0.89c0-12.66,0-25.42,0-38.12
		c1.31-1.02,2.68-0.54,3.94-0.54c4.72,0,9.28-1.42,14.06-1.11c5.41,0.34,10.67,1.6,15.63,3.32c5.15,1.79,9.22,5.75,11.91,10.71
		c0.7,1.29,1.43,2.47,2.48,3.41c0.57,1.68-0.71,3.71,1.08,5.09c0.4,4.27-0.23,13.41-3.8,17.84c-1.76,2.18-2.97,4.67-5.83,6.13
		c-2.31,1.18-3.93,3.73-6.97,3.71c-0.43,1.35-2.45,0.22-2.56,1.75c-17.3,0.84-15.82,0.01-19.76-1.94c0,5.06,0,9.97,0,14.87
		c-1.39-2.89-0.94-5.89-1.02-8.83C402.18,2468.75,402.25,2465.59,402.25,2461.84z"/>
	<path class="st0" d="M70.45,638.24c1.94,0,3.72,0,5.67,0c0,31.17,0,62.26,0,93.62c-1.71,0-3.6,0-5.67,0
		C70.45,700.88,70.45,669.79,70.45,638.24z"/>
	<path class="st0" d="M73.86,1916.06c-1.7-1.7-3.23-3.23-4.76-4.76c-1.47-0.89-3.24,0.26-4.74-0.64c0.56-1.36,1.75-0.29,2.86-0.98
		c-0.26-1.61,0.23-3.22-0.73-5.27c-1.04-2.23,0.9-4.87,2.03-6.93c1.17-2.14,3.28-3.97,6.01-4.49c2.39-0.45,4.48-1.72,7.28-0.27
		c1.78,0.92,4.04,1.34,6.08,2.1c2.53,0.95,3.74,2.96,4.2,4.79c0.59,2.39,2.74,5,0.43,7.72c-0.43,0.51-0.27,1.53-0.37,2.29
		c-1.79,1.79-3.55,3.55-5.35,5.35c-2.56-0.63-4.09,1.99-6.58,2.11C77.87,1917.19,76.05,1915.16,73.86,1916.06z"/>
	<path class="st0" d="M77.37,553c0-4.62,0-9.05,0-13.66c4.17,0,8.27,0,12.65,0c0,1.69,0,3.58,0,5.81c-3.76,0-7.66,0-11.37,0
		c-0.41,0.78-0.46,1.23-0.04,1.85c3.62,0,7.4,0,11.43,0c0,2.04,0,3.93,0,6C86.01,553,81.91,553,77.37,553z"/>
	<path class="st0" d="M70.46,541.25c1.92,0,3.7,0,5.65,0c0,7.95,0,15.83,0,23.81c-1.92,0-3.7,0-5.65,0
		C70.46,557.12,70.46,549.23,70.46,541.25z"/>
	<path class="st0" d="M67.79,2253.95c-1.66,0-3.32,0-5.38,0c-0.28-7.87-0.02-15.76-0.16-23.82c1.94,0,3.73,0,5.55,0
		C68.48,2233.93,68.48,2249.81,67.79,2253.95z"/>
	<path class="st0" d="M433.41,2235.05c1.91,0,3.69,0,5.65,0c0,7.58,0,15.13,0,22.58c-0.45,0.45-0.8,0.8-1.23,1.23
		c-1.36,0-2.81,0-4.42,0C433.41,2250.9,433.41,2243.02,433.41,2235.05z"/>
	<path class="st0" d="M76.64,2140.74c1.68,0.67,2.88,1.5,4.32,1.36c0.6,0.97,0.22,1.97,0.35,3.06c-4.54,5.78-7.37,12.75-11.49,18.94
		c-1.77-0.81-3.54-1.13-4.68-3.05C68.85,2154.5,72.65,2147.78,76.64,2140.74z"/>
	<path class="st0" d="M436.13,2161.39c-0.95,2.33-3.45,0.88-4.68,2.69c-4.09-7.12-8.38-13.9-11.58-21.34
		c1.76-0.72,2.84-2.09,4.86-1.73C428.45,2147.68,432.27,2154.51,436.13,2161.39z"/>
	<path class="st0" d="M438.35,989.93c1.69-2.69,1.42-6.09,0.66-8.82c-0.78-2.79-0.56-5.42-0.74-8.12c-0.14-2.14-0.03-4.3-0.03-6.67
		c1.79-0.3,3.51-0.8,4.9,1.36c0.62,7.16-1.01,14.7,1.55,22.25C442.15,989.93,440.19,989.93,438.35,989.93z"/>
	<path class="st0" d="M94.69,674.24c-1.5,0-2.8,0-4.27,0c0,1.21,0,2.32,0,3.25c-1,1.16-1.98,0.28-3,0.89c0-2.25,0-4.04,0-5.97
		c0.22-0.76,1.67,0.34,1.75-1.26c-1.91,0-3.82,0-6.87,0c2.88-1.71,5.1-0.35,6.9-1.31c-0.19-0.99-0.98-0.58-1.69-0.88
		c0-1.8,0-3.69,0-5.58c0.84-0.43,1.63-0.25,2.43-0.13c0.8,1.05,0.03,2.26,0.63,3.65c1.17,0.7,2.88-0.07,4.21,0.28
		c1.22,0.83,2.49,1.34,3.24,2.28c0.92,1.16,2.26,0.17,3.31,1.19c-1.15,0.89-2.46,0.2-3.69,0.64
		C96.81,672.12,95.87,673.06,94.69,674.24z"/>
	<path class="st0" d="M101.35,776.59c-1.06,1.03-2.28,0.33-3.4,0.55c-0.11,0.06-0.27,0.1-0.38,0.2c-0.94,0.93-1.88,1.87-2.8,2.79
		c-1.36,0-2.69,0-4.02,0c-1.1,1.08-0.01,2.56-0.73,3.85c-0.75,0-1.53,0-2.38,0c-0.05-0.05-0.27-0.17-0.27-0.28
		c-0.02-1.78-0.02-3.57-0.02-5.11c0.64-0.75,1.57-0.11,1.85-1.03c-1.4-1.24-3.46,0.35-4.98-0.97c1.51-1.03,3.26-0.03,4.82-0.7
		c0.17-1.33-1.28-0.34-1.65-1.35c0-1.46,0-3.24,0-5.05c0.66-0.76,1.55-0.17,2.34-0.38c1.19,1.04,0.09,2.52,0.85,3.94
		C94.63,772.44,97.52,775.74,101.35,776.59z"/>
	<path class="st0" d="M90.28,740.14c0,1.44,0,2.55,0,3.51c-0.86,0.89-1.75,0.2-2.75,0.72c0-4.78,0-9.33,0-14.01
		c0.58-0.65,1.49,0.08,2.16-0.3c1.26,1.13,0.17,2.6,0.7,3.69c1.25,1.15,1.76-0.17,2.79-0.84c0.93,1.43,3.33,0.49,4.03,2.21
		c0.81,1.97,3.84-0.02,3.84,2.76c-1.2,0.6-2.69,0.09-4.15,0.28C94.64,740.11,94.64,740.11,90.28,740.14z M88.78,738.13
		c0.47-0.33,0.47-0.66,0-0.99C88.32,737.47,88.32,737.8,88.78,738.13z"/>
	<path class="st0" d="M84.45,524.41c0.7-0.38,1.48-0.03,1.78-0.81c-0.7-0.99-1.92,0.03-2.74-0.72c-0.12-1.33,1.37-0.24,1.6-1.04
		c-1.47-1.99-0.54-4.23-0.83-6.19c0.93-0.85,1.79-0.25,2.5-0.54c1.17,1.15,0.01,2.64,0.87,3.95c1.33,0,2.78,0,3.56,0
		c2.74,1.41,4.9,2.51,7.58,3.89c-1.99,0-3.43,0-5.09,0c-0.93,1.14-1.87,2.28-2.64,3.23c-1.45-0.09-2.68,0.42-3.74-0.93
		c0,1.59,0,3.18,0,4.82c-1.13,0-1.91,0-2.86,0C84.45,528.23,84.45,526.45,84.45,524.41z"/>
	<path class="st0" d="M91.63,819c-1.87,0.1-2.99,0.17-4.23,0.24c-0.07,1.25-0.13,2.37-0.19,3.48c-0.68,0.82-1.59,0.15-2.62,0.65
		c-0.45-2.5-0.68-4.74,0.51-6.94c-0.75-0.84-2,0.28-2.71-0.69c0.52-1.36,1.79-0.02,2.56-1.04c-1.1-1.71-0.54-3.91-0.65-6.05
		c0.8-0.92,1.76-0.48,2.86-0.29c0,1.08,0,2.2,0,3.8c2.47-0.76,4.27,1.13,6.53,0.98c1.01,0.32,0.23,1.6,0.89,1.9
		c1.16,0.38,1.67-0.31,2.2-0.89c0.54,0.35,0.54,0.84,0.5,1.41c-0.8,1.21-2.08,0.32-3.01,0.57C93.22,817.25,92.24,818.33,91.63,819z"
		/>
	<path class="st0" d="M90.3,690.71c0,1.89,0,3,0,4.28c1.6,0,3.06,0,3.85,0c2.23,1.15,3.88,2,6.57,3.38
		c-0.45-0.17-0.42-1.4,0.42-0.94c0.04,0.38,0.08,0.83,0.15,1.5c-1.52,0-2.96,0-4.64,0c-0.92,1.13-1.86,2.27-2.65,3.25
		c-1.33,0-2.31,0-3.25,0c-1.03,0.75,0.04,1.98-0.85,2.85c-0.68,0-1.46,0-2.43,0c0-1.57,0-3.14,0-4.59c0.61-0.52,1.49,0.01,1.75-0.89
		c-0.64-1.09-2.24,0.31-2.93-1.06c0.6-0.21,1.18-0.41,1.75-0.62c-1.28-2.03-0.56-4.24-0.78-6.22
		C88.12,690.72,89.03,691.45,90.3,690.71z"/>
	<path class="st0" d="M90.45,2144.04c2.62,0,5.06,0,7.67,0c0,3.52,0,6.96,0,10.81c-2.37,0.26-4.94,0.03-7.67,0.13
		C90.45,2151.36,90.45,2147.91,90.45,2144.04z"/>
	<path class="st0" d="M89.84,621.13c1.09,1.11-0.57,3.72,2.33,3.88c0.49,0.25,1.03-0.04,1.34-0.69c1.62,0.69,3.21,1.32,4.28,2.96
		c1.08,0,2.2,0,3.39,0c0,0.62,0,1.07,0,1.69c-1.48,0-2.93,0-4.38,0c-0.87,1.66-2.54,2.05-4.01,2.97c-0.66-0.02-1.17-1.38-2.39-0.46
		c0,0.98,0,2.1,0,3.05c-1.01,0.96-1.94,0.66-3,0.34c0-1.4,0-2.85,0-4.42c0.49-0.17,1.07-0.38,1.67-0.59
		c0.13-1.38-1.42-0.18-1.71-1.42c0-2.07,0-4.51,0-6.89C88.13,620.8,89.01,621.33,89.84,621.13z M88.29,626.65
		c0.33,0.47,0.66,0.47,0.99,0C88.95,626.18,88.62,626.18,88.29,626.65z"/>
	<path class="st0" d="M84.29,567.18c1.12,0,1.78,0,2.5,0c1.15,1,0.05,2.48,0.67,3.66c1.35,1.55,1.8-1.04,3.4-0.52
		c1.29,2.74,5.35,1.83,7.65,4.65c-1.79,0-3.24,0-4.53,0c-1.83,2.09-3.85,2.96-6.57,2.5c0,1,0,2.11,0,3.04
		c-1.01,1.15-1.98,0.28-3.12,0.95c0-1.85-0.03-3.15,0.01-4.44c0.03-0.96,2.34-1.85,0.04-2.97c-0.22-0.11,1.01-1.41,0.07-2.65
		C83.77,570.57,84.29,568.87,84.29,567.18z"/>
	<path class="st0" d="M84.29,590.17c1.12,0,1.78,0,2.5,0c1.15,1,0.05,2.48,0.69,3.68c1.06,0.49,2.11,0.67,3.29-0.73
		c1.02,1.03,2.16,1.96,3.51,2.63c1.29,0.65,3.46-0.23,3.92,2.22c-1.47,0-2.91,0-4.21,0c-1.83,2.09-3.85,2.96-6.57,2.5
		c0,1,0,2.11,0,3.04c-1.01,1.15-1.98,0.28-3.12,0.95c0-1.85-0.03-3.15,0.01-4.44c0.03-0.96,2.34-1.85,0.04-2.97
		c-0.22-0.11,1.01-1.41,0.07-2.65C83.77,593.56,84.29,591.86,84.29,590.17z"/>
	<path class="st0" d="M413.4,2230.04c2.31,0,4.42,0,6.68,0c0,3.86,0,7.63,0,11.66c-2.06,0-4.29,0-6.68,0
		C413.4,2238,413.4,2234.22,413.4,2230.04z"/>
	<path class="st0" d="M77.37,652.98c0-1.94,0-3.72,0-5.66c4.17,0,8.28,0,12.65,0c0,1.7,0,3.59,0,5.66
		C86.03,652.98,81.92,652.98,77.37,652.98z"/>
	<path class="st0" d="M77.29,718.04c0-2.06,0-3.72,0-5.67c2.03-0.47,4.15-0.17,6.24-0.22c2.14-0.05,4.27-0.01,6.58-0.01
		c0,1.91,0,3.69,0,5.81c-2.02,0.44-4.31,0.13-6.56,0.17C81.45,718.16,79.36,718.07,77.29,718.04z"/>
	<path class="st0" d="M105.45,553.24c2.27,0,4.38,0,6.66,0c0,3.51,0,6.95,0,10.71c-2.01,0.49-4.27,0-6.66,0.3
		C105.45,560.57,105.45,557.13,105.45,553.24z"/>
	<path class="st0" d="M394.09,2336.85c-2.63,0-5.07,0-7.68,0c0-2.85,0-5.63,0-8.66c2.38,0,4.95,0,7.68,0
		C394.09,2330.88,394.09,2333.66,394.09,2336.85z"/>
	<path class="st0" d="M413.16,2142.13c0,2.94,0,5.71,0,8.66c-2.51,0-4.95,0-7.83,0c-0.2-2.69-0.03-5.59-0.1-8.66
		C407.83,2142.13,410.28,2142.13,413.16,2142.13z"/>
	<path class="st0" d="M112.15,946.96c-2.13,0-4.4,0-6.76,0c0-3.24,0-6.33,0-9.64c2.18,0,4.4,0,6.76,0
		C112.15,940.59,112.15,943.85,112.15,946.96z"/>
	<path class="st0" d="M77.28,350.64c0,2.73,0,5.39,0,8.26c-1.53,0.55-3.12,0.23-5,0.22c-2.18-4.07-0.23-8.43-1.24-12.48
		c1.37-0.58,1.53,0.55,2.08,0.92c0.67,0.45,1.17,1.44,1.84,1.54C75.92,349.24,76.36,349.83,77.28,350.64z"/>
	<path class="st0" d="M424.42,350.51c0.65-0.65,1.47-1.47,2.29-2.28c1.44-0.3,2.61,0.07,3.57,1.6c-0.61,2.87,1.12,6.28-1.15,9.26
		c-1.63,0-3.08,0-4.7,0C424.42,356.26,424.42,353.47,424.42,350.51z"/>
	<path class="st0" d="M80.41,802.14c0-3.93,0-7.85,0-11.78c2.04,0.43,2.04,0.43,4.74,3.13c0,1.62,0,3.39,0,5.35
		C83.51,799.68,82.98,802.46,80.41,802.14z"/>
	<path class="st0" d="M114.12,2486.7c-2.57,0.72-5.24-0.62-7.67,1.15c0-2.33,0-4.55,0-6.88c2.43,1.77,5.1,0.43,7.67,1.15
		C114.12,2483.5,114.12,2484.95,114.12,2486.7z"/>
	<path class="st0" d="M106.45,2511.93c2.43,1.91,5.14,0.41,7.68,1.22c0,1.39,0,2.83,0,4.52c-2.41,0-4.96,0-7.68,0
		C106.45,2515.99,106.45,2514.21,106.45,2511.93z"/>
	<path class="st0" d="M394.91,2513.06c1.16,1.53-0.88,2.93,0.01,4.75c-2.2,0.27-4.72,0.01-7.44,0.13c0-1.62,0-3.17,0-4.88
		C389.87,2513.06,392.3,2513.06,394.91,2513.06z"/>
	<path class="st0" d="M395.5,2482.17c-0.48,0.48-0.72,0.72-1.12,1.12c0.92,0.85,1.04,1.99,0.76,3.41c-2.49,0-5.04,0-7.74,0
		c0-1.42,0-2.86,0-4.54C389.93,2482.17,392.59,2482.17,395.5,2482.17z"/>
	<path class="st0" d="M299.78,2670.6c0.69,1.61,1.11,2.59,1.63,3.8c-2.68,0.67-3.87,3.21-5.86,4.53c-1.32-0.12-1.77-1-2.4-1.94
		C294.36,2673.96,298.13,2673.58,299.78,2670.6z"/>
	<path class="st0" d="M104.37,295.04c0-1.3,0-2.4,0-3.68c2.63,0,5.18,0,8.21,0c-1.69,1.01-1.09,2.42-1.53,3.68
		C109,295.04,106.9,295.04,104.37,295.04z"/>
	<path class="st0" d="M87.34,1875.16c-0.64,5.53,1.92,10.8,0.73,16.64c-0.12,0.18-0.6,0.22-1.1,0.19c-0.23-0.2-0.65-0.4-0.65-0.6
		c-0.04-5.42-0.03-10.83-0.03-16.25C86.64,1875.15,86.99,1875.15,87.34,1875.16z"/>
	<path class="st0" d="M92.47,2500.65c2.62-0.55,2.84-2.56,4.15-3.57c0.93,0.04,1.14,1.75,2.62,0.75c-1.53,1.53-0.34,3.61-1.78,4.73
		c0.41,0.72,1.41-0.08,1.71,0.93c-0.42,0.48-0.92,1.06-1.69,1.93C95.89,2503.9,94.51,2502.6,92.47,2500.65z"/>
	<path class="st0" d="M409.21,2501.73c-3.4-0.07-2.95,2.74-4.82,3.21c-0.9,0.18-1.23-0.75-1.84-1.22c0.63-1.83,1.58-3.66-0.26-5.35
		c0.39-0.39,0.73-0.73,1.24-1.24C406.02,2497.38,406.34,2500.25,409.21,2501.73z"/>
	<path class="st0" d="M402.16,55.76c2.88,1.03,3.63,3.03,5.67,4.21c-1.66,1.53-3.58,1.93-4.73,4.62
		C401.87,61.01,402.42,58.69,402.16,55.76z"/>
	<path class="st0" d="M81.29,751.23c0.8,0,1.25,0,1.85,0c0,3.51,0,6.94,0,10.58c-0.29,0.27-0.78,0.72-1.28,1.18
		c-0.16-0.13-0.54-0.3-0.54-0.47C81.28,758.77,81.29,755.02,81.29,751.23z"/>
	<path class="st0" d="M413.42,403.02c0-7.55,0-15.1,0-23.05C414.46,383.21,414.65,394.16,413.42,403.02z"/>
	<path class="st0" d="M93.28,1876.24c0,1.57,0,2.87,0,4.17c-0.51,1.17-2.32-0.09-2.38,1.7c-0.62-0.62-0.97-0.97-1.47-1.47
		c0-1.72,0-3.59,0-5.95C90.47,1876.34,91.83,1875.83,93.28,1876.24z"/>
	<path class="st0" d="M454.08,1216.13c0,2.66,0,5.2,0,7.66c-1.36,0.82-1.82-0.31-2.68-1.02c0-1.61,0-3.37,0-5.28
		C451.95,1217.05,452.3,1215.94,454.08,1216.13z"/>
	<path class="st0" d="M109.44,845.21c0.6,0,1.05,0,1.94,0c-0.46,3.02,0.61,6.01-1.04,8.92c-0.4,0.71-0.41,2.04,1.08,2.32
		c-0.65,0.75-1.22,0.83-1.99,0.38C109.44,853.04,109.44,849.17,109.44,845.21z"/>
	<path class="st0" d="M106.89,838.03c-0.7,0-1.48,0-2.43,0c0-2.27,0-4.49,0-6.72c2.78-0.04,2.79-0.04,2.82,1.8
		c0.02,1.49,0.01,2.97-0.01,4.46C107.27,837.69,107.07,837.81,106.89,838.03z"/>
	<path class="st0" d="M104.44,794.22c0.97,0,1.75,0,2.69,0c0,2.19,0,4.3,0,6.58c-0.65,0.72-1.6,0.3-2.69,0.11
		C104.44,798.85,104.44,796.74,104.44,794.22z"/>
	<path class="st0" d="M82.29,204.71c0-0.66,0-1.32,0-2.45c2.84-0.12,5.72-0.01,8.49-0.07c0.57,0.57,1.04,1.04,1.75,1.75
		C89.01,204.66,85.54,203.61,82.29,204.71z"/>
	<path class="st0" d="M73.41,264.86c0-1.36,0-2.8,0-4.73c0.92,0.78,1.64,1.89,2.45,1.96c1.47,0.13,1.67,1.31,2.68,1.72
		C76.17,266.67,76.17,266.67,73.41,264.86z"/>
	<path class="st0" d="M105.65,2495.78c-1.19-1.19-2.25-2.25-3.4-3.4c0.86-0.75,1.72-1.5,2.68-2.34c0.92,1.1,1.96,2.35,3.07,3.68
		C107.46,2494.2,106.6,2494.95,105.65,2495.78z"/>
	<path class="st0" d="M104.45,752.22c0.93,0,1.71,0,2.66,0c0,1.95,0,3.84,0,5.82c-0.93,0-1.71,0-2.66,0
		C104.45,756.09,104.45,754.2,104.45,752.22z"/>
	<path class="st0" d="M104.45,712.23c0.95,0,1.73,0,2.66,0c0,1.98,0,3.87,0,5.82c-0.95,0-1.73,0-2.66,0
		C104.45,716.07,104.45,714.18,104.45,712.23z"/>
	<path class="st0" d="M398.5,2493.16c-0.43,0.43-1.49,1.49-2.96,2.96c-0.44-1.06-0.88-2.13-1.18-2.87c0.44-0.44,1.55-1.55,2.8-2.8
		C397.35,2490.82,397.84,2491.83,398.5,2493.16z"/>
	<path class="st0" d="M20.29,1522.04c-0.39-3.46,1.95-5.5,4.02-7.5c-0.14-1.78,0.25-3.04,1.98-3.5c0,0.67,0,1.33,0,2
		c-0.28,0.11-0.76,0.17-0.79,0.34c-0.14,0.6,0.31,0.7,0.79,0.66C24.29,1516.7,22.29,1519.37,20.29,1522.04z"/>
	<path class="st0" d="M436.16,931.2c0.84,0,1.29,0,2.08,0c0,1.82-0.02,3.59,0.01,5.36c0.02,1.61-1.59,2.71-1.31,4.46
		C435.85,937.77,436.46,934.52,436.16,931.2z"/>
	<path class="st0" d="M116.17,2536.86c0.37,1.77-0.67,2.23-1.28,2.94c-1.11,0-2.22,0-3.31,0c-0.38-1.03-0.6-1.95,0.12-2.8
		C112.94,2535.54,113.4,2535.54,116.17,2536.86z"/>
	<path class="st0" d="M95.2,949.11c0,0.77,0,1.22,0,1.72c-1.31,0.61-2.63,0.18-3.91,0.26c-1.27,0.09-2.56,0.02-3.92,0.02
		c0-0.77,0-1.22,0-1.72c1.31-0.61,2.63-0.18,3.91-0.26C92.55,949.04,93.84,949.11,95.2,949.11z"/>
	<path class="st0" d="M113.43,2546.56c-0.56-1.66,0.09-2.82,1.52-3.65c1.24-0.19,1.6,0.96,2.33,1.52c0.39,1.77-0.89,2.97-1.43,4.45
		C115.5,2547.6,114.65,2546.88,113.43,2546.56z"/>
	<path class="st0" d="M423.23,264.77c0,1.65,0,3.3,0,4.94c-0.5,0.6-1.08,0.61-1.64,0.34c-1.36-1.42,0.66-1.91,0.75-3
		c0.12-1.33-1.21-1.9-1.06-3.46c1.24-0.41,2.59-1.09,3.43-2.46C426.3,263.12,423.77,263.28,423.23,264.77z"/>
	<path class="st0" d="M89.11,927.02c-0.95,0-1.73,0-2.66,0c0-1.64,0-3.2,0-4.82c0.95,0,1.73,0,2.66,0
		C89.11,923.84,89.11,925.4,89.11,927.02z"/>
	<path class="st0" d="M417.24,378.23c1.53-2.74,0.86-5.69,1.04-8.58c0.77-0.86,1.73-0.43,2.94-0.23
		C419.11,372.06,420.41,376.05,417.24,378.23z"/>
	<path class="st0" d="M422.61,307.52c0.32-2,0.27-4.24-0.22-5.98c1.47-1.09,1.92,0.49,2.8,1.09c0,0.95,0,1.93,0,2.76
		C424.2,306.21,423.25,306.99,422.61,307.52z"/>
	<path class="st0" d="M65.74,2261.93c0.81,0.17,1.65-0.29,2.39,0.35c-1.12,1.43-1.21,2.89,0.05,4.34c-1.75-0.15-1.75-0.15-2.81-1.08
		C65.37,2264.35,64.91,2263.08,65.74,2261.93z"/>
	<path class="st0" d="M435.28,2268.41c-0.73,0.73-1.07,1.07-1.43,1.43c-0.2-0.16-0.56-0.31-0.58-0.5c-0.06-0.64-0.27-1.61,0.05-1.88
		c1.74-1.43,0.59-2.94,0.19-4.43c0.46-0.04,0.78-0.07,1.38-0.12C435.59,2264.69,435.06,2266.61,435.28,2268.41z"/>
	<path class="st0" d="M395.33,53.32c0-1.21,0-1.99,0-2.69c0.77-0.75,1.64-0.24,2.4-0.41c1.06,0.76,0.13,1.79,0.57,2.46
		C397.39,53.56,396.53,53.05,395.33,53.32z"/>
	<path class="st0" d="M39.29,1490.04c-0.04-2.52,0.49-4.75,3-6C42.18,1486.49,40.84,1488.32,39.29,1490.04z"/>
	<path class="st0" d="M36.29,1495.04c-0.31-1.93,0.66-3.46,1.57-5c0.49,0,0.96,0,1.43,0C38.17,1491.63,38.01,1493.81,36.29,1495.04z
		"/>
	<path class="st0" d="M455.24,663.14c-0.51,2.57-1.43,3.49-4,4C452.19,665.43,453.53,664.1,455.24,663.14z"/>
	<path class="st0" d="M401.42,2528.55c0-2.68,0-4.56,0-7.02c1.15,1.31,0.8,2.41,0.8,3.36
		C402.22,2525.83,402.52,2526.83,401.42,2528.55z"/>
	<path class="st0" d="M100.12,2524.09c0,1.88,0,3.77,0,5.65C98.91,2527.91,99.54,2525.98,100.12,2524.09z"/>
	<path class="st0" d="M400.42,2537.72c0-1.88,0-3.77,0-5.65C401.63,2533.91,401.05,2535.84,400.42,2537.72z"/>
	<path class="st0" d="M399.41,2547.73c0-1.88,0-3.77,0-5.65C400.64,2543.91,400.04,2545.84,399.41,2547.73z"/>
	<path class="st0" d="M27.29,1510.04c-0.08-1.71-0.21-3.44,2-4c0,0.79,0.17,1.61-0.67,2.18c-0.67,0.46-0.21,1.21-0.33,1.81
		C27.96,1510.04,27.63,1510.04,27.29,1510.04z"/>
	<path class="st0" d="M11.29,1537.04c-0.08-1.71-0.21-3.44,2-4C13.37,1534.74,12.6,1536.02,11.29,1537.04z"/>
	<path class="st0" d="M101.11,2534.1c0,1.55,0,3.1,0,5.78C99.83,2537.26,100.59,2535.64,101.11,2534.1z"/>
	<path class="st0" d="M49.29,1473.04c-0.08-1.71-0.21-3.44,2-4C51.37,1470.75,50.6,1472.03,49.29,1473.04z"/>
	<path class="st0" d="M30.29,1505.04c-0.08-1.71-0.21-3.44,2-4C32.37,1502.75,31.6,1504.03,30.29,1505.04z"/>
	<path class="st0" d="M46.29,1478.04c-0.08-1.71-0.21-3.44,2-4C48.37,1475.75,47.6,1477.03,46.29,1478.04z"/>
	<path class="st0" d="M43.29,1483.04c-0.08-1.71-0.21-3.44,2-4C45.37,1480.75,44.6,1482.03,43.29,1483.04z"/>
	<path class="st0" d="M33.29,1500.04c-0.08-1.71-0.21-3.44,2-4C35.37,1497.75,34.6,1499.03,33.29,1500.04z"/>
	<path class="st0" d="M14.29,1532.04c-0.08-1.71-0.21-3.44,2-4C16.37,1529.74,15.6,1531.02,14.29,1532.04z"/>
	<path class="st0" d="M102.11,2544.1c0,1.55,0,3.1,0,5.78C100.83,2547.26,101.59,2545.64,102.11,2544.1z"/>
	<path class="st0" d="M8.29,1542.03c-0.08-1.71-0.21-3.44,2-4C10.37,1539.74,9.6,1541.02,8.29,1542.03z"/>
	<path class="st0" d="M17.29,1527.04c-0.08-1.71-0.21-3.44,2-4C19.37,1524.74,18.6,1526.02,17.29,1527.04z"/>
	<path class="st0" d="M437.6,954.3c0.79,1.21,0.81,2.43,0.25,4.1C436.86,956.8,437.46,955.52,437.6,954.3z"/>
	<path class="st0" d="M139.47,2667.01c1.05,0,2.3,0,3.39,0c0.45,0.35,0.41,0.73-0.01,0.77
		C140.95,2667.96,140.94,2667.93,139.47,2667.01z"/>
	<path class="st0" d="M362.24,2667.09c-1.28,1.21-2.6,0.61-5.03,0.88C359.61,2666.44,360.94,2667.24,362.24,2667.09z"/>
	<path class="st0" d="M67.79,2179.03c-0.65-0.82-0.69-1.37-0.15-1.96C68.72,2177.49,68.43,2178.12,67.79,2179.03z"/>
	<path class="st0" d="M67.99,2270.72c-0.89-0.48-0.86-1.04-0.38-1.64C68.98,2269.39,67.74,2270.24,67.99,2270.72z"/>
	<path class="st0" d="M100.29,2519.41c-0.68,0.73-1.34,0.73-2.02,0C98.95,2518.69,99.62,2518.69,100.29,2519.41z"/>
	<path class="st0" d="M401.75,2520.92c-0.73-0.68-0.73-1.34,0-2.02C402.47,2519.58,402.47,2520.25,401.75,2520.92z"/>
	<path class="st0" d="M368.75,2653.97c-0.65-0.82-0.69-1.37-0.15-1.96C369.69,2652.43,369.4,2653.06,368.75,2653.97z"/>
	<path class="st0" d="M133.78,2657.97c-0.65-0.82-0.69-1.37-0.15-1.96C134.72,2656.43,134.43,2657.06,133.78,2657.97z"/>
	<path class="st0" d="M134.98,2660.67c-0.89-0.48-0.86-1.04-0.38-1.64C135.97,2659.34,134.73,2660.19,134.98,2660.67z"/>
	<path class="st0" d="M150.35,2667.39c-0.82,0.65-1.37,0.69-1.96,0.15C148.81,2666.46,149.45,2666.75,150.35,2667.39z"/>
	<path class="st0" d="M351.18,2667.39c0.82-0.65,1.37-0.69,1.96-0.15C352.72,2668.33,352.08,2668.04,351.18,2667.39z"/>
	<path class="st0" d="M45.29,1479.04c-0.03-0.69,0.31-1.03,1-1C46.32,1478.73,45.98,1479.07,45.29,1479.04z"/>
	<path class="st0" d="M19.29,1523.04c-0.03-0.69,0.31-1.03,1-1C20.32,1522.73,19.99,1523.06,19.29,1523.04z"/>
	<path class="st0" d="M16.29,1528.04c-0.03-0.69,0.31-1.03,1-1C17.32,1527.73,16.99,1528.06,16.29,1528.04z"/>
	<path class="st0" d="M80.28,802.13c0.09,0.48-0.13,0.78-0.59,0.89c-0.08,0.02-0.31-0.22-0.29-0.29
		C79.5,802.27,79.8,802.05,80.28,802.13z"/>
	<path class="st0" d="M13.29,1533.04c-0.03-0.69,0.31-1.03,1-1C14.32,1532.73,13.99,1533.06,13.29,1533.04z"/>
	<path class="st0" d="M107.28,657.65c-0.33,0.47-0.66,0.47-0.99,0C106.62,657.18,106.95,657.18,107.28,657.65z"/>
	<path class="st0" d="M10.29,1538.04c-0.03-0.69,0.31-1.03,1-1C11.32,1537.73,10.99,1538.06,10.29,1538.04z"/>
	<path class="st0" d="M35.29,1496.04c-0.03-0.69,0.31-1.03,1-1C36.32,1495.73,35.98,1496.07,35.29,1496.04z"/>
	<path class="st0" d="M84.28,597.16c0.09,0.48-0.13,0.78-0.59,0.89c-0.08,0.02-0.31-0.22-0.29-0.29
		C83.5,597.29,83.8,597.07,84.28,597.16z"/>
	<path class="st0" d="M84.28,574.16c0.09,0.48-0.13,0.78-0.59,0.89c-0.08,0.02-0.31-0.22-0.29-0.29
		C83.5,574.3,83.8,574.07,84.28,574.16z"/>
	<path class="st0" d="M7.29,1543.03c-0.03-0.69,0.31-1.03,1-1C8.32,1542.73,7.99,1543.06,7.29,1543.03z"/>
	<path class="st0" d="M452.24,1644.02c0.69-0.03,1.03,0.31,1,1C452.55,1645.05,452.21,1644.71,452.24,1644.02z"/>
	<path class="st0" d="M417.24,378.18c0.09,0.48-0.13,0.78-0.59,0.89c-0.08,0.02-0.31-0.22-0.29-0.29
		C416.46,378.32,416.76,378.1,417.24,378.18z"/>
	<path class="st0" d="M453.24,1645.02c0.69-0.03,1.03,0.31,1,1C453.55,1646.05,453.21,1645.71,453.24,1645.02z"/>
	<path class="st0" d="M454.24,1646.02c0.69-0.03,1.03,0.31,1,1C454.55,1647.05,454.21,1646.71,454.24,1646.02z"/>
	<path class="st0" d="M429.74,346.19c0.47,0.32,0.47,0.66,0,0.98C429.28,346.85,429.28,346.52,429.74,346.19z"/>
	<path class="st0" d="M433.74,337.19c0.47,0.32,0.47,0.66,0,0.98C433.28,337.85,433.28,337.52,433.74,337.19z"/>
	<path class="st0" d="M78.28,306.69c-0.33,0.47-0.66,0.47-0.99,0C77.62,306.22,77.95,306.22,78.28,306.69z"/>
	<path class="st0" d="M77.79,287.18c-0.47-0.32-0.47-0.66,0-0.98C78.25,286.53,78.25,286.86,77.79,287.18z"/>
	<path class="st0" d="M431.23,252.7c-0.32,0.47-0.66,0.47-0.98,0C430.58,252.23,430.91,252.23,431.23,252.7z"/>
	<path class="st0" d="M64.79,1919c0.47,0.32,0.47,0.66,0,0.98C64.32,1919.65,64.32,1919.32,64.79,1919z"/>
	<path class="st0" d="M67.79,1929.98c-0.47-0.32-0.47-0.66,0-0.98C68.25,1929.32,68.25,1929.65,67.79,1929.98z"/>
	<path class="st0" d="M68.79,1931.99c0.47,0.32,0.47,0.66,0,0.98C68.32,1932.65,68.32,1932.32,68.79,1931.99z"/>
	<path class="st0" d="M70.28,1935.49c-0.32,0.47-0.66,0.47-0.98,0C69.62,1935.02,69.95,1935.02,70.28,1935.49z"/>
	<path class="st0" d="M70.79,1937.99c0.47,0.32,0.47,0.66,0,0.98C70.32,1938.65,70.32,1938.32,70.79,1937.99z"/>
	<path class="st0" d="M422.24,240.2c-0.03-0.69,0.31-1.03,1-1C423.27,239.89,422.94,240.22,422.24,240.2z"/>
	<path class="st0" d="M423.25,239.19c-0.09-0.48,0.13-0.78,0.59-0.89c0.08-0.02,0.31,0.22,0.29,0.29
		C424.03,239.06,423.73,239.28,423.25,239.19z"/>
	<path class="st0" d="M418.24,232.2c0.49-0.04,0.93,0.06,0.79,0.66c-0.04,0.16-0.52,0.23-0.79,0.34
		C418.24,232.87,418.24,232.53,418.24,232.2z"/>
	<path class="st0" d="M69.28,231.7c-0.32,0.47-0.66,0.47-0.98,0C68.62,231.23,68.95,231.23,69.28,231.7z"/>
	<path class="st0" d="M407.24,226.2c-0.03-0.69,0.31-1.03,1-1C408.27,225.89,407.94,226.22,407.24,226.2z"/>
	<path class="st0" d="M408.24,225.2c-0.03-0.69,0.31-1.03,1-1C409.27,224.89,408.94,225.22,408.24,225.2z"/>
	<path class="st0" d="M48.29,1474.04c-0.03-0.69,0.31-1.03,1-1C49.32,1473.74,48.98,1474.07,48.29,1474.04z"/>
	<path class="st0" d="M409.25,224.2c-0.09-0.48,0.13-0.78,0.59-0.89c0.08-0.02,0.31,0.22,0.29,0.29
		C410.03,224.06,409.73,224.28,409.25,224.2z"/>
	<path class="st0" d="M76.29,221.7c0.32-0.47,0.66-0.47,0.98,0C76.95,222.17,76.62,222.17,76.29,221.7z"/>
	<path class="st0" d="M420.25,220.7c0.32-0.47,0.66-0.47,0.98,0C420.91,221.17,420.58,221.17,420.25,220.7z"/>
	<path class="st0" d="M433.74,2177.95c-0.47-0.33-0.47-0.66,0-0.99C434.21,2177.29,434.21,2177.62,433.74,2177.95z"/>
	<path class="st0" d="M59.3,2192.45c0.32-0.47,0.66-0.47,0.98,0C59.96,2192.92,59.62,2192.92,59.3,2192.45z"/>
	<path class="st0" d="M113.29,2212.45c0.33-0.47,0.66-0.47,0.99,0C113.95,2212.92,113.62,2212.92,113.29,2212.45z"/>
	<path class="st0" d="M67.3,2225.45c0.32-0.47,0.66-0.47,0.98,0C67.95,2225.92,67.62,2225.92,67.3,2225.45z"/>
	<path class="st0" d="M433.74,2224.95c0.47,0.33,0.47,0.66,0,0.99C433.28,2225.62,433.28,2225.28,433.74,2224.95z"/>
	<path class="st0" d="M398.75,63.23c0.47,0.32,0.47,0.66,0,0.98C398.28,63.89,398.28,63.55,398.75,63.23z"/>
	<path class="st0" d="M398.75,56.21c-0.47-0.32-0.47-0.66,0-0.98C399.21,55.55,399.21,55.89,398.75,56.21z"/>
	<path class="st0" d="M58.79,2282.95c0.47,0.33,0.47,0.66,0,0.99C58.32,2283.61,58.32,2283.28,58.79,2282.95z"/>
	<path class="st0" d="M397.75,47.23c0.47,0.32,0.47,0.66,0,0.98C397.28,47.89,397.28,47.55,397.75,47.23z"/>
	<path class="st0" d="M68.28,2315.44c-0.32,0.47-0.66,0.47-0.98,0C67.62,2314.97,67.95,2314.97,68.28,2315.44z"/>
	<path class="st0" d="M433.25,2315.44c0.32-0.47,0.66-0.47,0.98,0C433.91,2315.9,433.58,2315.9,433.25,2315.44z"/>
	<path class="st0" d="M400.75,40.23c0.47,0.32,0.47,0.66,0,0.98C400.28,40.89,400.28,40.56,400.75,40.23z"/>
	<path class="st0" d="M97.78,39.21c-0.47-0.32-0.47-0.66,0-0.98C98.25,38.56,98.25,38.89,97.78,39.21z"/>
	<path class="st0" d="M99.78,35.23c0.47,0.32,0.47,0.66,0,0.98C99.32,35.89,99.32,35.56,99.78,35.23z"/>
	<path class="st0" d="M403.75,34.21c-0.47-0.32-0.47-0.66,0-0.98C404.21,33.56,404.21,33.89,403.75,34.21z"/>
	<path class="st0" d="M101.78,33.21c-0.47-0.32-0.47-0.66,0-0.98C102.25,32.56,102.25,32.89,101.78,33.21z"/>
	<path class="st0" d="M400.25,29.23c0.48-0.09,0.78,0.13,0.89,0.59c0.02,0.08-0.22,0.31-0.29,0.29
		C400.39,30.01,400.16,29.71,400.25,29.23z"/>
	<path class="st0" d="M103.78,29.23c0.47,0.32,0.47,0.66,0,0.98C103.32,29.89,103.32,29.56,103.78,29.23z"/>
	<path class="st0" d="M400.24,29.22c-0.48,0.09-0.78-0.13-0.89-0.59c-0.02-0.08,0.22-0.31,0.29-0.29
		C400.11,28.44,400.33,28.74,400.24,29.22z"/>
	<path class="st0" d="M101.29,2497.42c0.33-0.47,0.66-0.47,0.99,0C101.95,2497.88,101.62,2497.88,101.29,2497.42z"/>
	<path class="st0" d="M399.75,2497.91c-0.47-0.33-0.47-0.66,0-0.99C400.21,2497.25,400.21,2497.58,399.75,2497.91z"/>
	<path class="st0" d="M418.24,233.2c0.03,0.69-0.31,1.03-1,1c0-0.33,0-0.67,0-1C417.58,233.2,417.91,233.2,418.24,233.2z"/>
	<path class="st0" d="M101.29,2504.41c0.33-0.47,0.66-0.47,0.99,0C101.95,2504.88,101.62,2504.88,101.29,2504.41z"/>
	<path class="st0" d="M399.25,2504.41c0.32-0.47,0.66-0.47,0.98,0C399.91,2504.88,399.58,2504.88,399.25,2504.41z"/>
	<path class="st0" d="M105.78,26.23c0.47,0.32,0.47,0.66,0,0.98C105.32,26.89,105.32,26.56,105.78,26.23z"/>
	<path class="st0" d="M396.25,24.23c0.48-0.09,0.78,0.13,0.89,0.59c0.02,0.08-0.22,0.31-0.29,0.29
		C396.39,25.01,396.17,24.71,396.25,24.23z"/>
	<path class="st0" d="M29.29,1506.04c-0.03-0.69,0.31-1.03,1-1C30.32,1505.73,29.98,1506.06,29.29,1506.04z"/>
	<path class="st0" d="M51.29,1469.04c-0.03-0.69,0.31-1.03,1-1C52.31,1468.74,51.98,1469.07,51.29,1469.04z"/>
	<path class="st0" d="M395.25,23.22c0.69-0.03,1.03,0.31,1,1C395.55,24.25,395.22,23.92,395.25,23.22z"/>
	<path class="st0" d="M107.29,23.72c0.33-0.47,0.66-0.47,0.99,0C107.95,24.19,107.62,24.19,107.29,23.72z"/>
	<path class="st0" d="M395.24,23.22c-0.48,0.09-0.78-0.13-0.89-0.59c-0.02-0.08,0.22-0.31,0.29-0.29
		C395.11,22.44,395.33,22.74,395.24,23.22z"/>
	<path class="st0" d="M110.28,20.72c-0.33,0.47-0.66,0.47-0.99,0C109.62,20.26,109.95,20.26,110.28,20.72z"/>
	<path class="st0" d="M392.25,19.23c0.48-0.09,0.78,0.13,0.89,0.59c0.02,0.08-0.22,0.31-0.29,0.29
		C392.39,20.01,392.17,19.71,392.25,19.23z"/>
	<path class="st0" d="M392.24,19.22c-0.48,0.09-0.78-0.13-0.89-0.59c-0.02-0.08,0.22-0.31,0.29-0.29
		C392.11,18.44,392.33,18.74,392.24,19.22z"/>
	<path class="st0" d="M387.25,13.23c0.48-0.09,0.78,0.13,0.89,0.59c0.02,0.08-0.22,0.31-0.29,0.29
		C387.39,14.01,387.17,13.71,387.25,13.23z"/>
	<path class="st0" d="M387.24,13.22c-0.48,0.09-0.78-0.13-0.89-0.59c-0.02-0.08,0.22-0.31,0.29-0.29
		C387.11,12.44,387.33,12.74,387.24,13.22z"/>
	<path class="st0" d="M42.29,1484.04c-0.03-0.69,0.31-1.03,1-1C43.32,1483.73,42.98,1484.07,42.29,1484.04z"/>
	<path class="st0" d="M131.78,2650.89c-0.47-0.33-0.47-0.66,0-0.99C132.25,2650.23,132.25,2650.56,131.78,2650.89z"/>
	<path class="st0" d="M132.78,2653.89c-0.47-0.33-0.47-0.66,0-0.99C133.25,2653.23,133.25,2653.56,132.78,2653.89z"/>
	<path class="st0" d="M367.26,2656.4c0.32-0.47,0.66-0.47,0.98,0C367.92,2656.86,367.58,2656.86,367.26,2656.4z"/>
	<path class="st0" d="M366.26,2659.4c0.32-0.47,0.66-0.47,0.98,0C366.92,2659.86,366.58,2659.86,366.26,2659.4z"/>
	<path class="st0" d="M136.27,2662.39c-0.33,0.47-0.66,0.47-0.99,0C135.61,2661.93,135.95,2661.93,136.27,2662.39z"/>
	<path class="st0" d="M366.24,2662.39c-0.32,0.47-0.66,0.47-0.98,0C365.58,2661.93,365.92,2661.93,366.24,2662.39z"/>
	<path class="st0" d="M137.25,2664.89c-0.46,0.08-0.76-0.14-0.86-0.6c-0.02-0.08,0.22-0.31,0.29-0.29
		C137.12,2664.12,137.4,2664.39,137.25,2664.89z"/>
	<path class="st0" d="M364.25,2664.89c-0.09-0.48,0.13-0.78,0.59-0.89c0.08-0.02,0.31,0.22,0.29,0.29
		C365.04,2664.75,364.73,2664.98,364.25,2664.89z"/>
	<path class="st0" d="M138.28,2665.89c-0.69,0.03-1.03-0.31-1-1C137.97,2664.87,138.3,2665.2,138.28,2665.89z"/>
	<path class="st0" d="M363.25,2665.89c-0.03-0.69,0.31-1.03,1-1C364.28,2665.59,363.94,2665.92,363.25,2665.89z"/>
	<path class="st0" d="M139.28,2666.89c-0.69,0.03-1.03-0.31-1-1C138.97,2665.87,139.3,2666.2,139.28,2666.89z"/>
	<path class="st0" d="M362.25,2666.89c-0.03-0.69,0.31-1.03,1-1C363.28,2666.59,362.94,2666.92,362.25,2666.89z"/>
	<path class="st0" d="M26.29,1511.04c-0.03-0.69,0.31-1.03,1-1c0,0.33,0,0.67,0,1C26.96,1511.04,26.63,1511.04,26.29,1511.04z"/>
	<path class="st0" d="M32.29,1501.04c-0.03-0.69,0.31-1.03,1-1C33.32,1500.73,32.98,1501.07,32.29,1501.04z"/>
	<path class="st0" d="M250.76,2699.88c-0.47-0.33-0.47-0.66,0-0.99C251.23,2699.22,251.23,2699.56,250.76,2699.88z"/>
	<path class="st0" d="M252.76,2699.88c-0.47-0.33-0.47-0.66,0-0.99C253.23,2699.22,253.23,2699.56,252.76,2699.88z"/>
	<path class="st0" d="M442.15,675.31c0,1.6,0,3.04,0,4.66c-2.5,0-4.94,0-7.68,0c-0.54-1.32-0.16-2.92-0.19-4.66
		C436.82,675.31,439.27,675.31,442.15,675.31z"/>
	<path class="st0" d="M434.33,716.97c0-1.62,0-3.07,0-4.67c2.51,0,4.96,0,7.68,0c0.52,1.34,0.17,2.94,0.18,4.67
		C439.64,716.97,437.2,716.97,434.33,716.97z"/>
	<path class="st0" d="M440.64,727.24c1.1,0,2.2,0,3.45,0c0,1.2,0,2.31,0,3.68c-1.39,0.47-2.96,0.17-4.47,0.16
		C438.74,729.38,439.32,728.21,440.64,727.24z"/>
	<path class="st0" d="M440.52,666.18c-0.3-1.09-0.28-1.95-1.12-2.37c0.8-2.29,2.74-1.54,4.35-1.67c1.12,1.16,0.1,2.47,0.57,3.55
		C443.03,666.46,441.88,666.01,440.52,666.18z"/>
	<path class="st0" d="M437.74,729.13c0.73,0.68,0.73,1.34,0,2.02C437.01,730.47,437.01,729.8,437.74,729.13z"/>
	<path class="st0" d="M106.93,193.2c0.48,0.87,0.14,1.65,0.9,1.96c0.58-0.58,1.16-1.16,2.01-2.01c0.42,1.28,1.04,2.36,2.4,2.6
		c-0.72,0.96-1.9,0.09-2.72,0.62c0.35,1.64,1.92,0.22,2.28,0.75c0,1.19,0,2.01,0,2.96c-1.87,0-3.98,0-6.19,0
		c-0.85-0.64,0.06-1.83-0.55-2.63c-0.94-1.39-3.04-1.2-3.77-2.82c-0.06-0.14-0.01-0.33-0.01-0.59c0.21-1.32,2.1-0.54,2.46-1.8
		C104.48,193.42,105.65,193.24,106.93,193.2z"/>
	<path class="st0" d="M105.48,201.37c2.22,0,4.43,0,6.65,0C109.94,202.62,107.68,201.9,105.48,201.37z"/>
	<path class="st0" d="M99.29,204.7c0.33-0.47,0.66-0.47,0.99,0C99.95,205.17,99.62,205.17,99.29,204.7z"/>
	<path class="st0" d="M39.29,1514.04c-0.08-1.71-0.21-3.44,2-4C41.37,1511.74,40.6,1513.03,39.29,1514.04z"/>
	<path class="st0" d="M20.29,1545.03c-0.08-1.71-0.21-3.44,2-4C22.37,1542.74,21.6,1544.02,20.29,1545.03z"/>
	<path class="st0" d="M34.29,1522.04c-0.08-1.71-0.21-3.44,2-4C36.37,1519.74,35.6,1521.02,34.29,1522.04z"/>
	<path class="st0" d="M31.29,1527.04c-0.08-1.71-0.21-3.44,2-4C33.37,1524.74,32.6,1526.02,31.29,1527.04z"/>
	<path class="st0" d="M42.29,1509.04c-0.08-1.71-0.21-3.44,2-4C44.37,1506.75,43.6,1508.03,42.29,1509.04z"/>
	<path class="st0" d="M45.29,1504.04c-0.08-1.71-0.21-3.44,2-4C47.37,1501.75,46.6,1503.03,45.29,1504.04z"/>
	<path class="st0" d="M25.29,1537.04c-0.08-1.71-0.21-3.44,2-4C27.37,1534.74,26.6,1536.02,25.29,1537.04z"/>
	<path class="st0" d="M48.29,1499.04c-0.08-1.71-0.21-3.44,2-4C50.37,1496.75,49.6,1498.03,48.29,1499.04z"/>
	<path class="st0" d="M51.29,1494.04c-0.08-1.71-0.21-3.44,2-4C53.37,1491.75,52.6,1493.03,51.29,1494.04z"/>
	<path class="st0" d="M28.29,1532.04c-0.08-1.71-0.21-3.44,2-4C30.37,1529.74,29.6,1531.02,28.29,1532.04z"/>
	<path class="st0" d="M37.29,1517.04c0-0.91,0-1.82,0-3c0.82,0,1.41,0,2,0C38.26,1514.8,38.99,1516.73,37.29,1517.04z"/>
	<path class="st0" d="M23.29,1540.04c0-0.91,0-1.82,0-3c0.82,0,1.41,0,2,0C24.26,1537.79,24.99,1539.72,23.29,1540.04z"/>
	<path class="st0" d="M36.29,1518.04c-0.03-0.69,0.31-1.03,1-1C37.32,1517.73,36.98,1518.06,36.29,1518.04z"/>
	<path class="st0" d="M50.29,1495.04c-0.03-0.69,0.31-1.03,1-1C51.31,1494.73,50.98,1495.07,50.29,1495.04z"/>
	<path class="st0" d="M33.29,1523.04c-0.03-0.69,0.31-1.03,1-1C34.32,1522.73,33.98,1523.06,33.29,1523.04z"/>
	<path class="st0" d="M30.29,1528.04c-0.03-0.69,0.31-1.03,1-1C31.32,1527.73,30.98,1528.06,30.29,1528.04z"/>
	<path class="st0" d="M27.29,1533.04c-0.03-0.69,0.31-1.03,1-1C28.32,1532.73,27.98,1533.06,27.29,1533.04z"/>
	<path class="st0" d="M22.29,1541.03c-0.03-0.69,0.31-1.03,1-1C23.32,1540.73,22.99,1541.06,22.29,1541.03z"/>
	<path class="st0" d="M19.29,1546.03c-0.03-0.69,0.31-1.03,1-1C20.32,1545.73,19.99,1546.06,19.29,1546.03z"/>
	<path class="st0" d="M44.29,1505.04c-0.03-0.69,0.31-1.03,1-1C45.32,1504.73,44.98,1505.06,44.29,1505.04z"/>
	<path class="st0" d="M41.29,1510.04c-0.03-0.69,0.31-1.03,1-1C42.32,1509.73,41.98,1510.06,41.29,1510.04z"/>
	<path class="st0" d="M47.29,1500.04c-0.03-0.69,0.31-1.03,1-1C48.32,1499.73,47.98,1500.07,47.29,1500.04z"/>
	<path class="st0" d="M37.29,1502.04c-0.16-1.55,0.42-2.61,2-3C39.45,1500.59,38.87,1501.65,37.29,1502.04z"/>
	<path class="st0" d="M32.29,1506.04c0.39-1.58,1.45-2.16,3-2C34.9,1505.62,33.84,1506.2,32.29,1506.04z"/>
	<path class="st0" d="M27.29,1511.04c0.69,0.03,1.03-0.31,1-1c0.33,0,0.67,0,1,0c0.16,1.55-0.42,2.61-2,3
		C27.29,1512.37,27.29,1511.71,27.29,1511.04z"/>
	<path class="st0" d="M47.29,1491.04c-0.16-1.55,0.42-2.61,2-3C49.45,1489.59,48.87,1490.65,47.29,1491.04z"/>
	<path class="st0" d="M42.29,1495.04c0.39-1.58,1.45-2.16,3-2C44.9,1494.62,43.84,1495.2,42.29,1495.04z"/>
	<path class="st0" d="M51.29,1486.04c0.15-0.76-0.5-1.91,1-2C52.14,1484.8,52.79,1485.96,51.29,1486.04z"/>
	<path class="st0" d="M31.29,1508.04c0.15-0.76-0.5-1.91,1-2C32.14,1506.8,32.79,1507.95,31.29,1508.04z"/>
	<path class="st0" d="M41.29,1497.04c0.15-0.76-0.5-1.91,1-2C42.14,1495.8,42.79,1496.96,41.29,1497.04z"/>
	<path class="st0" d="M45.29,1493.04c-0.03-0.69,0.31-1.03,1-1C46.32,1492.73,45.98,1493.07,45.29,1493.04z"/>
	<path class="st0" d="M26.29,1514.04c0-0.33,0-0.67,0-1c0.33,0,0.67,0,1,0C27.32,1513.73,26.98,1514.06,26.29,1514.04z"/>
	<path class="st0" d="M49.29,1488.04c-0.03-0.69,0.31-1.03,1-1C50.32,1487.73,49.98,1488.07,49.29,1488.04z"/>
	<path class="st0" d="M36.29,1503.04c-0.03-0.69,0.31-1.03,1-1C37.32,1502.73,36.98,1503.06,36.29,1503.04z"/>
	<path class="st0" d="M35.29,1504.04c-0.03-0.69,0.31-1.03,1-1C36.32,1503.73,35.98,1504.06,35.29,1504.04z"/>
	<path class="st0" d="M46.29,1492.04c-0.03-0.69,0.31-1.03,1-1C47.32,1491.73,46.98,1492.07,46.29,1492.04z"/>
	<path class="st0" d="M30.29,1509.04c-0.03-0.69,0.31-1.03,1-1C31.32,1508.73,30.98,1509.06,30.29,1509.04z"/>
	<path class="st0" d="M29.29,1510.04c-0.03-0.69,0.31-1.03,1-1C30.32,1509.73,29.98,1510.06,29.29,1510.04z"/>
	<path class="st0" d="M40.29,1498.04c-0.03-0.69,0.31-1.03,1-1C41.32,1497.73,40.98,1498.07,40.29,1498.04z"/>
	<path class="st0" d="M39.29,1499.04c-0.03-0.69,0.31-1.03,1-1C40.32,1498.73,39.98,1499.07,39.29,1499.04z"/>
	<path class="st0" d="M50.29,1487.04c-0.03-0.69,0.31-1.03,1-1C51.31,1486.73,50.98,1487.07,50.29,1487.04z"/>
	<path class="st0" d="M444.27,627.96c-1.89,0.2-3.49,0.66-4.76-1.08c0.32-0.78,0.68-1.67,1.05-2.56c1.09-0.24,2.06-0.4,3.03,0.6
		C444.41,625.78,444.16,626.68,444.27,627.96z"/>
	<path class="st0" d="M441.97,769.54c-0.9-1.2-1.59-2.13-2.37-3.16c0.18-0.39,0.56-1.19,0.95-2.02c1.06-0.37,2.1-0.51,2.99,0.56
		C444.71,766.31,444.52,767.07,441.97,769.54z"/>
</g>
</svg>
