<?xml version="1.0" encoding="utf-8"?>
<!-- Generator: Adobe Illustrator 24.1.2, SVG Export Plug-In . SVG Version: 6.00 Build 0)  -->
<svg version="1.1" id="Layer_1" xmlns="http://www.w3.org/2000/svg" xmlns:xlink="http://www.w3.org/1999/xlink" x="0px" y="0px"
	 width="307.44" height="319.29" viewBox="0 0 307.44 319.29" style="enable-background:new 0 0 307.44 319.29;" xml:space="preserve">
<style type="text/css">
	.st0{fill:#1A1A1A;}
</style>
<g>
	<path d="M127.51,2.09c9.1-1.21,17.2,0.67,25.04,5.74c5.58,3.61,10.78-1.38,15.38-3.84c13.64-7.28,25.86-4.68,34.5,8.44
		c1.63,2.47,4.62,2.38,6.39,4.45c3.34,3.9,8,7.09,10.1,11.53c4.13,8.7,11.7,9.28,19.42,10.66c10.17,1.81,20.65,2.94,30.3,6.33
		c7.76,2.72,14.77,8.24,19.12,15.71c3.47,5.96,6,12.48,8.97,18.73c3.42,7.22-0.99,13.75-1.95,20.54c-1.38,9.73-3.65,19.34-5.4,29.02
		c-0.28,1.54-0.45,3.26,0.75,4.77c5.53,6.9,8.7,15.36,14.77,21.93c3.89,4.21,3.13,15.57-1.2,21.48c-2.9,3.96-6.13,7.69-9.12,11.59
		c-1.6,2.1-2.28,4.09-1.53,7.17c2.17,8.91,3.79,17.98,5.08,27.07c0.85,5.97-3.61,10.41-5.99,15.37
		c-3.37,7.04-7.96,12.46-15.65,16.05c-15.95,7.45-32.21,14.21-48.17,21.63c-7.54,3.51-9.54,11.32-13.92,17.23
		c-4.75,6.41-7.69,14.12-15.96,17.52c-3.52,1.45-3.69,7.13-8.8,7.81c-3.19,0.43-5.9,0.53-8.37-1.5c-1.3-1.07-2.45-2.4-4.31-2.01
		c-10.57,2.2-18.52-4.29-26.94-8.52c-16.88-8.5-32.86-18.56-48.72-28.88c-6.97-4.54-16.13-4.05-24.33-5.44
		c-14.59-2.47-29-5.62-43.21-9.69c-2.7-0.77-5.31-1.71-8.21-1.53c-2.64,0.17-4.37-1.14-6.1-3.34c-6.95-8.84-12.38-18.65-18.44-28.06
		c-2.68-4.16,0.55-8,1.32-11.68c4.05-19.42,8.08-38.89,14.99-57.59c1.41-3.83,0.18-7.6-1.07-11.12
		C9.12,129.48,5.07,108.53,0.93,87.6c-1.06-5.35,2.23-9.08,4.81-13.08c0.58-0.9,2.04-1.31,1.55-2.82c-2.35-7.18,3.55-8.9,7.79-11.66
		c1.35-0.88,3.54-1.12,4.22-2.3c6.94-12.06,19.68-11.92,30.88-14.49c8.77-2.02,17.67-3.88,26.76-4.29c3.67-0.17,5.6-2.71,7.27-5.75
		c6.32-11.52,13.69-21.97,25.46-28.98C115.7,0.64,121.68,3.17,127.51,2.09z"/>
	<path class="st0" d="M200.56,117.76c-0.88-0.07-1.76-0.15-2.64-0.22c2.5-6.56,0.55-13.3,0.33-19.85c-0.64-19.75-2-39.48-3.74-59.16
		c-0.27-3.03,1.18-7.74-3.58-10.29c-0.24,1.53-0.67,2.53-0.49,3.4c2.66,12.65,2.71,25.57,3.69,38.36
		c1.08,14.05,0.84,28.21,1.18,42.32c0.05,2.11-0.5,4.44,1.95,5.74c0.09,0.58,0.19,1.15,0.28,1.73l0.02-0.02
		c-8.13-1.58-15.03-6.17-22.52-9.3c-19.6-8.17-40.08-13.79-60.07-20.82c-2.78-0.98-5.56-1.98-8.45-3.01
		c-2.57,1.86-2.34,4.53-2.1,7.13c0.94,10,1.97,20,2.87,30.01c0.67,7.55,1.16,15.12,1.81,22.67c0.09,1.09-0.07,1.9-0.81,2.7
		c-4.65,4.96-9.27,9.94-13.9,14.92c-0.82,0.88-1.72,1.59-3.03,1.42c-21.33-2.83-43.24-0.15-64.2-6.8c-1.39-0.44-3.68-2.55-5.44,0.7
		c5.46,3.09,11.73,3.69,17.54,5.18c3.43,0.88,4.59,2.61,6.34,4.96c12.53,16.75,25.2,33.39,37.9,50c5,6.54,10.08,13.04,15.34,19.38
		c5.14,6.2,3.4,13.04,2.34,19.87c-0.61,3.89-1.48,7.75-1.78,11.67c-0.19,2.41-1.02,3.47-3.31,2.99
		c-21.03-4.38-42.06-8.8-63.07-13.26c-0.71-0.15-1.31-0.85-2.03-1.34c22.76-4.06,45.79-5.99,67.8-12.83
		c-0.14-0.7-0.28-1.4-0.41-2.11c-10.73,1.93-21.48,3.79-32.19,5.81c-10.95,2.06-21.88,4.22-32.8,6.47c-1.83,0.38-2.61-0.2-3.61-1.6
		c-5.86-8.15-11.77-16.27-17.86-24.26c-1.63-2.14-0.11-3.39,0.7-4.79c9.01-15.71,18.06-31.4,27.18-47.05
		c1.73-2.96,3.43-5.84,3.07-9.65C29.82,187.36,19.48,207.49,8.1,227.3c-3.74-0.7-4.41-2.17-3.57-6.36
		c4.16-20.79,9.6-41.23,15.6-61.53c1.8-6.08-1.56-10.95-3.15-16.07c-5.16-16.64-8.99-33.6-13.03-50.52
		c-1.56-6.55,1.71-9.05,8.41-9.09c5.09,12.51,10.38,25.59,15.72,38.64c5.18,12.65,9.49,25.7,16.58,37.51
		c-0.4-7.61-4.02-14.04-6.73-20.76c-7.27-17.98-14.75-35.87-22.23-53.76c-0.68-1.62-1.41-3.08-0.12-4.61
		c3.93-4.68,7.92-9.31,11.87-13.97c1.35-1.59,2.65-1.64,4.76-1.03C52.85,71.77,73.54,77.6,94.24,83.4c2.57,0.72,5.26,1.03,7.89,1.53
		c0.15-0.57,0.3-1.15,0.45-1.72C78.69,76.15,54.8,69.09,31.04,62.07c0.28-3.33,0.7-6.43,0.76-9.52c0.05-2.45,1.63-2.99,3.44-3.47
		c14.32-3.8,28.97-5.75,43.57-8.07c8.24-1.31,16.43-2.89,25.38-4.48c0.31,14.25-3.15,27.63-0.11,41.3
		c0.58-3.95,1.52-7.89,1.66-11.86c0.33-9.11-0.2-18.24,0.98-27.34c0.29-2.23,0.79-3.6,2.87-4.58c18.3-8.59,36.57-17.26,54.86-25.89
		c0.27-0.13,0.65-0.02,1.43-0.02c-0.85,5.13-0.63,10.24-0.38,15.25c14.34,3.04,28.67,9.11,40.39-5.64
		c18.78,19.05,30.43,42.38,46.58,62.24c0.51-0.35,1.03-0.69,1.54-1.04c-8.42-12.78-16.84-25.56-26.01-39.48
		c20.4,5.16,42.29,1.95,56.19,21.23c-7.73,5.05-15.99,10.48-24.29,15.87c-18.49,12.01-37.01,23.97-55.48,36.01
		c-1.86,1.21-4.17,2.3-3.86,5.22C200.54,117.79,200.56,117.76,200.56,117.76z M48.52,159.34c0.64,0.44,1.29,0.87,1.93,1.31
		c17.99-24.22,35.98-48.43,53.97-72.65c-0.61-0.44-1.22-0.89-1.82-1.33C83.94,110.44,65.54,134.38,48.52,159.34z M102.92,82.78
		c4.78-0.66,61.4-56.89,61.05-60.06C144.31,43.2,121.12,59.72,102.92,82.78z"/>
	<path class="st0" d="M197.55,119.78c9.69,4.1,19.4,8.16,29.07,12.31c16.94,7.26,33.8,14.71,50.84,21.71
		c3.11,1.28,3.84,2.71,3.93,5.73c0.15,5.44-0.99,10.94,0.78,16.32c0.63,1.93-0.87,2.3-2.33,3c-23.75,11.43-48.12,21.36-72.77,30.63
		c-2.16,0.81-4.41,1.38-5.56,5.05c6.31-2.25,11.91-4.34,17.57-6.26c21.37-7.24,41.83-16.7,62.4-25.86c6.06-2.7,6.25,4.04,10.89,4.08
		c-8.23,9.83-15.85,19.04-23.62,28.14c-5.15,6.04-10.53,11.88-15.75,17.86c-1.73,1.99-3.25,2.48-5.97,1.29
		c-14.27-6.22-28.7-12.09-43.03-18.19c-2.39-1.02-4.66-1.38-7.37-0.68c-3.68,28.2-7.41,56.25-6.05,84.71
		c3.33-27.29,4.78-54.77,8.83-82.6c15.96,7.02,31.7,13.95,47.97,21.11c-13.52,21.59-29.21,42.09-41.61,64.78
		c-6.39-1.11-12.8-3.01-19.24-3.13c-7.83-0.14-14.69,3.96-21.13,8.11c-1.53,0.98-2.17,1.82-4.1,0.9
		c-17.82-8.53-34.68-18.73-51.87-28.38c-10.47-5.88-6.42-12.8-5.3-19.68c0.78-4.82-0.61-10,2.54-15.02
		c18.44,21.38,38.61,40.92,59.47,59.81c-18.7-21.41-39.36-41.02-58.38-63.62c28.45-8.55,56.58-15.15,83.19-26.18
		c-0.26-0.84-0.53-1.68-0.79-2.52c-27.57,8.66-55.14,17.32-83.18,26.13c1.45-9.72,2.5-18.97,4.32-28.07
		c1.02-5.07-0.21-10.19,1.35-15.25c0.7-2.27,0.95-3.49,3.53-4.33c5.61-1.83,11.04-4.24,16.4-6.72c2.03-0.94,3.37-0.24,4.97,0.61
		c14.82,7.9,29.61,15.86,44.51,23.61c4.01,2.08,8.37,3.49,12.92,4.5c-3.71-5.05-9.58-6.52-14.7-9.17
		c-14.21-7.34-28.42-14.7-42.62-22.05c-1.6-0.83-1.78-1.9-1.34-3.68c1.62-6.59-0.11-13.15-0.55-19.72c-0.12-1.8-1.61-2.42-2.98-2.99
		c-5.01-2.07-9.94-4.46-15.12-5.99c-4.6-1.36-6.8-3.33-6.89-8.57c-0.26-15.84-1.53-31.63-3.87-47.31c-0.19-1.27,0.1-2.6,0.19-4.38
		c28.87,10.36,58.32,18.06,86.32,32.34c-18.95,10.6-38.01,20.52-54.69,34.17c19.23-10.31,37.33-22.59,57.18-32.65
		c-1.77,29.17-2.7,57.87,0.34,86.51c1.64-2.77,1.9-25.08,1.33-29.24c-1.3-9.4-0.43-18.82-0.27-28.26
		c0.19-10.97,2.82-21.95,0.32-32.94C197.56,119.76,197.55,119.78,197.55,119.78z"/>
	<path class="st0" d="M200.54,117.79c11.95-5.91,22.67-13.81,33.84-21c6.21-4,12.34-8.12,18.81-12.38
		c5.36,6.11,9.39,13.05,13.82,19.69c8.58,12.85,16.96,25.84,25.77,38.53c2.11,3.05,1.03,3.53-1.25,5.53
		c-9.18,8.06-16.61,0.56-24.23-2.51c-22.36-9.02-44.51-18.55-66.74-27.87C200.56,117.76,200.54,117.79,200.54,117.79z"/>
	<path class="st0" d="M102.78,240.74c-19.26-25.04-35.95-50.35-56.56-74.98c13.59,0.65,25.4,1.86,37.17,1.55
		c8.83-0.23,12.55,4.96,16.29,11.22c1.25,2.1,2.99,3.93,4.59,5.81c3.75,4.43,6.27,8.82,5.23,15.33
		C107.4,212.9,106.06,226.25,102.78,240.74z"/>
	<path class="st0" d="M256.09,82.88c9.82-6.64,19.55-13.21,29.37-19.84c4.7,6.74,6.7,14.5,10.49,21.36c0.22,0.4,0.31,1.01,0.18,1.43
		c-4.42,13.87-5.82,28.4-9.19,43.42C276.34,113.44,267.35,97.62,256.09,82.88z"/>
	<path class="st0" d="M283.77,247.6c-10.4-3.32-20.33-6.49-31.14-9.94c13-13.8,25.53-26.99,37.05-42.04
		c2.91,6.15,2.53,12.71,4.69,18.48C299.68,228.3,288.84,236.88,283.77,247.6z"/>
	<path class="st0" d="M112.71,189.45c-5.03-6.18-10.03-12.3-14.98-18.44c-1.39-1.73-2.34-3.31-0.26-5.52
		c3.96-4.2,7.57-8.72,11.37-13.08c1.07-1.23,2.19-1.59,3.93-0.79c2.97,1.37,6.24,2.1,9.22,3.46c3.78,1.74,10.13,1.87,10.81,5.57
		c1.22,6.66,1.91,14-0.67,20.66c-1.55,4-6.64,2.63-9.82,4.59C119.6,187.56,116.24,188.19,112.71,189.45z"/>
	<path class="st0" d="M114.26,4.49c19.3-2.43,27.96-0.95,36.97,6.51c-14.31,6.83-28.39,13.55-43.16,20.6
		C110.18,22.38,112.19,13.56,114.26,4.49z"/>
	<path class="st0" d="M280.3,249.58c-16.71,9.07-33.95,15-51.58,23.85c7.9-11.81,15.03-22.48,22.41-33.51
		C260.31,244.17,270.17,245.97,280.3,249.58z"/>
	<path class="st0" d="M295.08,184.15c-9.29-3.2-10-9.98-10.7-18.39c-0.85-10.17,4.62-13.42,12.95-16.29
		c1.7,5.82,3.43,12.05,5.36,18.21C305.26,175.86,296.81,178.49,295.08,184.15z"/>
	<path class="st0" d="M170.12,8.45c12.47-1.76,23.16,1.69,33,8.3c-10.1,10.72-22.01,7.27-33.86,4.29
		C167.92,16.68,169.59,12.75,170.12,8.45z"/>
	<path class="st0" d="M85.71,37.27c5.49-12.57,12.25-23.5,25.18-30.75c-2.45,9.67-4.7,18.55-6.98,27.55
		C98.03,35.1,92.15,36.14,85.71,37.27z"/>
	<path class="st0" d="M201.56,305.59c-8.91,8.81-20.07,6.89-30.82,6.9c-1.12,0-1.85-0.27-1.92-1.63c-0.08-1.69,1.27-1.46,2.17-2.05
		C180.61,302.54,190.81,302.16,201.56,305.59z"/>
	<path class="st0" d="M4.86,81.21c7.46-10.14,14.65-19.87,23.11-29.49c0.4,5.48,1.29,10.13-3.83,13.93
		c-3.48,2.58-6.21,6.28-8.92,9.75C12.76,78.54,10.28,81.31,4.86,81.21z"/>
	<path class="st0" d="M3.65,230.65c6.72-0.45,8.44,4.84,11.02,8.4c3.57,4.91,6.61,10.19,10.83,14.65c1.1,1.16,2.83,2.96,0.59,4.56
		c-1.91,1.37-3.51-0.01-4.57-1.54C15.59,248.16,9.73,239.54,3.65,230.65z"/>
	<path class="st0" d="M202.11,12.73c-10.53-7.98-21.94-7.26-32.93-8.48C176.16-4.48,198.59,1.29,202.11,12.73z"/>
	<path class="st0" d="M195.12,313.39c-1.62,6.46-9.12,7.77-14.83,2.88C185.57,315.82,190.44,316.5,195.12,313.39z"/>
	<path class="st0" d="M7.6,71.36c-2.29-4.46,3.41-11.18,9.1-10.95C13.72,64,10.82,67.5,7.6,71.36z"/>
	<path class="st0" d="M301.63,153.09c5.7,3.77,6.09,8.91,4.72,14.65C304.82,162.98,303.28,158.22,301.63,153.09z"/>
</g>
</svg>
