<?xml version="1.0" encoding="utf-8"?>
<!-- Generator: Adobe Illustrator 24.0.2, SVG Export Plug-In . SVG Version: 6.00 Build 0)  -->
<svg version="1.1" id="Layer_1" xmlns="http://www.w3.org/2000/svg" xmlns:xlink="http://www.w3.org/1999/xlink" x="0px" y="0px"
	 width="933.03" height="804.1" viewBox="0 0 933.03 804.1" style="enable-background:new 0 0 933.03 804.1;" xml:space="preserve">
<style type="text/css">
	.st0{fill:#1A1A1A;}
</style>
<g>
	<path d="M483.91,568.94c-1.03,0-1.91-0.04-2.78,0.01c-1.11,0.06-1.8-0.44-2.27-1.41c-1-2.09-2.05-4.16-3.03-6.26
		c-2.2-4.72-4.85-9.17-7.87-13.52c-1.35,0.08-2.5-0.34-3.08-1.77c-0.83,0.75-1.07,1.7-1.44,2.56c-4.01,9.33-9.27,17.87-15.87,25.59
		c-1.04,1.22-2.15,2.35-3.35,3.28c-1.33,0.08-2.39-0.75-3.8-0.58c-1.12,1.05-2.33,2.2-3.57,3.33c-0.58,0.52-0.74,1.21-0.94,1.9
		c-0.89,3.14-0.89,6.33-0.44,9.52c0.8,5.7,1.69,11.39,2.48,17.09c0.83,6.04,1.05,12.12,0.64,18.2c-0.39,5.68-1.6,11.23-3.12,16.71
		c-2.56,9.25-4.89,18.55-6.71,27.97c-0.36,1.88-0.65,3.78-1.01,5.67c-0.16,0.83,0.06,1.56,0.32,2.33c0.72,2.12,1.37,4.26,2.07,6.38
		c0.53,1.58,0.57,3.14-0.14,4.67c-0.27,0.59-0.38,1.2-0.41,1.85c-0.15,4.42,0.18,8.79,1.13,13.11c1.26,5.7,2.57,11.38,3.8,17.08
		c1.28,5.89,1.93,11.83,1.28,17.87c-0.28,2.55-0.7,5.06-1.49,7.51c-0.79,2.47-2.3,4.35-4.48,5.73c-2.18,1.38-4.53,2.37-6.94,3.24
		c-3.55,1.28-7.22,2.06-10.92,2.74c-0.71,0.13-1.4,0.23-2.02,0.66c-5.22,3.6-11.17,5.49-17.21,7.08c-3.01,0.79-6.07,1.42-9.12,2.06
		c-1.53,0.32-2.8,0.93-3.97,2.01c-5.22,4.8-11.19,8.24-18.23,9.57c-6.55,1.24-12.9,0.81-18.83-2.56c-0.21-0.12-0.44-0.19-0.69-0.3
		c-5.19,1.88-10.59,2.19-16.06,1.79c-1.85-0.14-3.65-0.49-5.39-1.12c-1.1-0.4-2.14-0.46-3.28-0.28c-4.65,0.72-9.25,0.72-13.68-1.15
		c-0.77-0.33-1.56-0.33-2.35-0.33c-4.11-0.02-7.4-1.71-10.04-4.81c-3.49-4.09-5.39-8.88-6-14.15c-1.01-8.77,1.26-16.83,5.82-24.26
		c2.24-3.64,5.23-6.65,9.01-8.79c0.55-0.31,1.02-0.77,1.51-1.18c3.23-2.71,6.95-4.18,11.14-4.57c1.95-0.18,3.84-0.01,5.67,0.65
		c1.2,0.43,2.28,0.37,3.45-0.23c1.28-0.66,2.53-1.34,3.68-2.23c4.69-3.62,9.22-7.43,13.56-11.45c3.93-3.64,7.92-7.23,12.35-10.27
		c1.24-0.85,2.51-1.67,3.89-2.57c-0.44-1.76-0.82-3.46-1.29-5.14c-2.03-7.33-4.87-14.38-7.58-21.47c-3.6-9.41-6.94-18.91-9.44-28.69
		c-3.51-13.73-4.26-27.61-2.5-41.66c0.92-7.32,2.44-14.5,4.41-21.6c0.94-3.39,1.69-6.83,2.57-10.23c0.31-1.18,0.38-2.37,0.3-3.57
		c-0.5-7.59-0.49-15.19-0.54-22.79c-0.01-1.44-0.13-2.68-1.5-3.52c-0.98-0.6-0.93-1.59-0.78-2.57c0.41-2.77,0.86-5.53,1.22-8.31
		c0.25-1.97,0.74-3.92,0.62-6c-0.31-0.26-0.61-0.5-0.91-0.76c-0.9-0.81-0.99-1.73-0.5-2.81c0.78-1.75,1.47-3.54,2.25-5.29
		c0.37-0.82,0.53-1.66,0.59-2.55c0.93-14.38,2.92-28.63,5.54-42.8c1.2-6.52,2.39-13.06,4.12-19.47c0.33-1.23,0.2-2.31-0.46-3.43
		c-1.09-1.86-2.03-3.81-3.14-5.9c-1.47-0.07-2.22-1.19-2.88-2.53c-1.8-3.68-3.12-7.53-4.12-11.49c-0.25-0.99-0.5-1.97-0.79-3.1
		c-0.96,0.36-1.69,0.62-2.41,0.92c-6,2.5-12.25,3.62-18.74,3.31c-1.92-0.09-3.83-0.05-5.75,0.09c-3.72,0.26-7.34-0.24-10.87-1.44
		c-0.98-0.33-1.95-0.73-2.88-1.19c-2.32-1.12-3.97-2.89-5.02-5.27c-1.5-3.4-2.28-6.99-2.8-10.64c-0.26-1.83-0.64-3.62-1.18-5.37
		c-2.72-8.67-4.13-17.57-4.79-26.61c-0.61-8.39-0.79-16.78-0.41-25.18c0.99-22.02,7.02-42.49,19.03-61.09
		c3.52-5.45,7.24-10.75,11.14-15.92c4.67-6.2,9.34-12.39,14.03-18.57c0.99-1.3,1.61-2.69,2.02-4.28
		c2.13-8.25,6.52-15.06,13.36-20.22c4.57-3.45,9.64-5.99,14.97-8.01c7.75-2.94,15.72-4.91,24.03-5.23
		c3.42-0.13,6.88-0.18,10.13,1.06c0.67-0.05,1.04-0.51,1.46-0.86c3.52-2.9,7.11-5.7,10.9-8.26c0.87-0.59,1.63-1.28,2.28-2.11
		c0.44-0.57,0.93-1.1,1.35-1.68c1.53-2.13,3.52-3.66,5.94-4.68c1.77-0.75,3.48-1.61,5.2-2.45c0.88-0.43,1.77-0.75,2.76-0.53
		c0.75,0.17,1.39-0.01,2.04-0.44c2.36-1.54,4.51-3.3,6.38-5.42c0.58-0.66,0.81-1.28,0.55-2.17c-0.94-3.22-1.79-6.47-2.96-9.62
		c-0.44-1.2-0.99-2.36-1.94-3.09c-0.56-0.3-0.71,0.49-1.37,0.05c-0.56-0.77-1.04-1.85-1.39-3c-0.91-3.01-2.3-5.78-4.09-8.36
		c-1.41-2.04-2.48-4.36-4.01-6.24c-1.54-1.89-1.98-3.88-2.25-6.08c-0.09-0.71-0.16-1.43-0.19-2.15c-0.05-1.52-0.19-3.05-0.05-4.55
		c0.13-1.42-0.49-2.84,0.05-4.25c0.1-0.26-0.05-0.62-0.1-0.93c-0.51-2.98-0.21-5.89,0.78-8.74c0.11-0.3,0.29-0.61,0.3-0.91
		c0.01-2.1,1.16-3.76,2.06-5.54c1.52-3.02,2.82-6.11,2.52-9.62c-0.03-0.39-0.1-0.78-0.14-1.14c-6.34-2.51-11.15-6.94-15.64-11.74
		c-1.96-2.1-3.72-4.38-5.68-6.7c-1.46,0.23-3.08,0.84-4.4-0.56c-1.24-1.31-1.31-2.84-0.74-4.44c-4.69-1.05-5.67-3.32-3.35-7.81
		c-0.41-0.76-0.85-1.6-1.32-2.42c-4.49-7.95-8.46-16.15-11.35-24.83c-0.76-2.27-1.28-4.62-1.89-6.94c-0.12-0.46-0.22-0.95-0.2-1.42
		c0.1-1.71,1.09-2.45,2.74-2.05c0.94,0.23,1.79,0.69,2.61,1.19c1.57,0.97,3,2.13,4.39,3.34c3.26,2.84,6.29,5.92,9.27,9.05
		c2.09,2.2,4.25,4.34,6.38,6.51c2.34,2.39,5.17,4.02,8.28,5.17c3.21,1.19,6.51,2.16,9.65,3.73c-0.28-1.76-0.96-3.01-2.37-4.25
		c-0.6-0.52-1.28-0.96-1.93-1.42c-0.78-0.55-1.6-1.04-2.19-2.03c0.89-0.74,1.94-0.67,2.92-0.72c0.96-0.06,1.92-0.06,2.88-0.03
		c1.01,0.03,2.01,0.12,3.37,0.2c-2.38-3.11-4.84-5.72-6.75-8.76c-1.9-3.03-3.69-6.1-5.34-9.61c1.57,0.01,2.47,0.83,3.48,1.34
		c1.07,0.54,2.1,1.16,3.19,1.67c1.07,0.5,2.1,1.13,3.24,1.18c0.36-0.21,0.34-0.47,0.25-0.67c-1.8-4-1.57-8.12-0.65-12.24
		c0.75-3.37,2.13-6.53,3.66-9.62c0.14-0.29,0.32-0.55,0.7-0.64c0.52,0.51,0.23,1.39,0.99,2.01c0.37-1.28,0.72-2.5,1.05-3.62
		c0.87-0.54,1.16,0.5,1.96,0.47c1.39-6.22,5.89-10.1,10.98-14.23c-0.25,1.87-0.4,3.24-0.61,4.6c-0.83,5.15,0.08,10,2.46,14.82
		c1.06-1.71,1.01-3.89,3.03-5c1.57,2.74,1.52,6.12,3.79,8.74c0.23-1.49-0.3-2.65-0.52-3.84c-0.12-0.63-0.35-1.23-0.51-1.85
		c-0.09-0.34,0.07-0.63,0.34-0.82c0.29-0.2,0.64-0.19,0.9,0.01c1.42,1.05,2.71,2.23,3.82,3.62c1.94,2.44,3.77,4.96,5.3,7.61
		c1.67,0.32,1.67,0.32,4.18,2.54c0.62-0.24,0.58-0.91,0.87-1.36c0.25-0.4,0.4-0.88,1.02-1.2c2.05,2.26,2.33,5.61,4.73,8.13
		c-0.48-2.98-0.92-5.56-1.32-8.15c-1.52-9.91-1.07-19.77,0.82-29.59c0.36-1.88,0.76-3.76,1.16-5.64c0.1-0.47,0.19-0.96,0.42-1.37
		c0.91-1.6,2.25-2.36,3.74-0.52c0.82,1,1.39,2.14,1.93,3.3c2.42,5.14,4.4,10.46,6.48,15.74c1.67,4.24,3.44,8.44,5.58,12.47
		c0.49,0.93,1.08,1.76,1.82,2.51c1.64,1.64,3.24,3.32,4.88,4.96c2.27,2.29,4.08,4.92,5.59,7.76c0.37,0.69,0.57,1.5,1.26,2.04
		c0.84,0.08,1.5-0.43,2.22-0.73c12.45-5.27,25.07-10.09,38-14.03c11.25-3.43,22.64-6.31,34.31-7.95c7.23-1.02,14.49-1.5,21.77-0.92
		c3.06,0.24,6.05-0.07,9.07-0.48c4.04-0.56,8.11-0.87,12.2-0.75c2.33,0.07,4.61,0.42,6.87,0.98c4.95,1.22,8.33,4.22,10.17,8.98
		c0.81,2.1,1.35,4.26,1.75,6.47c0.62,3.47,1,6.97,1.25,10.48c0.22,3.21,0.82,6.34,1.68,9.43c3.32,11.96,5.67,24.13,7.36,36.41
		c1.39,10.08,1.78,20.23,1.41,30.41c-0.38,10.64-1.43,21.22-3.19,31.73c-3.19,19.06-8.72,37.35-18.03,54.38
		c-0.99,1.8-1.51,3.6-1.59,5.66c-0.63,15.87-4.2,31.17-9.26,46.16c-3.1,9.18-7.14,17.97-11.24,26.74
		c-1.66,3.54-3.37,7.07-4.46,10.86c-0.17,0.61-0.51,1.17-0.78,1.79c1.17,1.22,0.73,2.49,0.08,3.73c-0.82,1.56-1.81,3-2.96,4.35
		c-2.59,3.05-4.97,6.27-7.11,9.65c-1.64,2.58-3,5.28-3.63,8.31c-0.16,0.78-0.39,1.58-0.77,2.26c-0.68,1.21-0.67,2.43-0.43,3.72
		c0.1,0.55,0.21,1.1,0.27,1.66c0.22,1.84,0.6,3.62,1.65,5.2c0.57,0.86,0.82,1.76-0.05,2.6c-0.54,0.53-0.41,1.16-0.34,1.8
		c0.74,6.43,1.7,12.83,3.17,19.06c0.39,0.58,0.96,0.7,1.47,0.89c7.62,2.89,14.5,7.08,20.87,12.13c9.32,7.38,17.52,15.91,25.07,25.07
		c10.21,12.4,19.02,25.7,25.75,40.33c4.69,10.19,8.42,20.73,11.72,31.43c4.72,15.3,8.27,30.88,11.54,46.54
		c1.59,7.59,3.11,15.19,4.42,22.84c1.33,7.72,2.39,15.49,3.24,23.28c0.87,7.95,1.79,15.89,2.62,23.84
		c0.74,7.08,1.36,14.17,2.07,21.25c0.93,9.23,1.93,18.45,3.29,27.63c0.98,6.65,2.04,13.27,3.45,19.84
		c2.18,10.18,4.84,20.23,9.16,29.74c10.85,23.9,28.33,41.15,52.37,51.68c7.42,3.25,15.26,5.23,23.16,6.97
		c11.25,2.48,22.6,4.41,33.97,6.21c13.66,2.17,27.33,4.27,41.01,6.34c10.36,1.57,20.72,3.09,31.09,4.55
		c9.97,1.41,19.96,2.73,29.94,4.08c2.3,0.31,4.57,0.74,6.78,1.48c0.36,0.12,0.78,0.18,1.01,0.56c-0.31,0.51-0.83,0.39-1.25,0.43
		c-12.09,1.22-24.14,2.83-36.17,4.57c-10.6,1.53-21.23,2.91-31.82,4.48c-11.55,1.71-23.14,3.16-34.77,4.11
		c-11.48,0.94-22.99,1.59-34.52,1.02c-10.23-0.5-20.38-1.79-30.47-3.63c-16.85-3.08-33.01-8.32-48.52-15.53
		c-13.99-6.51-25.69-16.07-35.84-27.64c-12.39-14.13-20.98-30.3-26.46-48.2c-3.33-10.89-5.68-21.98-7.17-33.25
		c-1.79-13.56-3.25-27.15-4.46-40.78c-0.93-10.51-2.11-21-3.57-31.46c-1.15-8.24-2.33-16.47-4-24.62
		c-2.99-14.61-6.97-28.93-13.6-42.36c-5.95-12.06-12.77-23.63-20.27-34.8c-0.48-0.72-1.03-1.4-1.5-2.05
		c-0.73,0.06-0.61,0.54-0.65,0.89c-0.33,3.26-0.7,6.52-0.57,9.81c0.02,0.55-0.05,1.12-0.19,1.66c-0.3,1.21-0.2,2.42,0.16,3.55
		c0.56,1.77,0.76,3.59,1.05,5.41c0.19,1.24,0.61,2.46-0.3,3.68c-0.31,0.42-0.15,1.24-0.11,1.87c0.28,5.44,0.86,10.84,2.07,16.16
		c0.46,2,0.43,3.82-1.13,5.33c-0.78,0.76-0.81,1.7-0.83,2.66c-0.09,3.92-0.25,7.83-0.62,11.74c-0.04,0.4-0.02,0.8-0.08,1.2
		c-0.99,6.97,0.63,13.51,3.36,19.82c3.81,8.81,7.34,17.73,9.94,26.98c2.62,9.33,4.5,18.8,5.59,28.44c1.11,9.83,1.06,19.63,0,29.45
		c-0.74,6.84-1.44,13.68-2.09,20.52c-0.62,6.47-0.24,12.95,0.11,19.42c0.28,5.19,0.87,10.36,1.66,15.5
		c0.07,0.47,0.19,0.93,0.29,1.43c0.44,0.26,0.84,0.52,1.26,0.73c7.2,3.66,13.48,8.58,19.24,14.18c3.96,3.85,7.93,7.68,12.23,11.16
		c3.24,2.62,6.63,5.02,10.05,7.39c1.39,0.97,2.75,1.37,4.47,1.11c3.99-0.59,7.81,0.18,11.38,2.03c0.99,0.51,2.09,1,2.82,1.79
		c2.58,2.78,6.33,4.1,8.78,6.98c5.89,6.91,9.94,14.68,10.66,23.91c0.27,3.46-0.19,6.86-1.18,10.19c-1.74,5.86-5.51,8.97-12.19,9.24
		c-1.32,0.05-2.49,0.27-3.66,0.84c-3.3,1.58-6.8,2.33-10.45,2.26c-0.87-0.02-1.81-0.02-2.6-0.33c-1.37-0.53-2.61-0.4-3.95,0.03
		c-3.16,1.01-6.43,1.29-9.72,1.17c-5.39-0.19-10.66-1.04-15.67-3.13c-1.26-0.52-2.32-0.54-3.54,0.37c-3.37,2.51-7.33,3.5-11.46,3.81
		c-6,0.46-11.82-0.35-17.35-2.79c-1.86-0.82-3.78-1.22-5.77-1.5c-4.67-0.66-9.33-1.4-13.84-2.88c-2.82-0.92-5.57-2.01-8.01-3.75
		c-0.88-0.63-1.85-0.87-2.9-1.04c-4.27-0.68-8.51-1.45-12.63-2.79c-1.52-0.49-3.02-1.06-4.49-1.67c-6.7-2.75-10.77-7.79-12.67-14.69
		c-1.63-5.91-2.21-11.94-2.07-18.05c0.17-7.13,1.03-14.19,1.92-21.25c0.62-4.84,1.41-9.66,1.25-14.56
		c-0.05-1.46-0.21-2.83-0.85-4.18c-0.9-1.91-1.22-3.97-0.81-6.09c0.36-1.87,0-3.57-0.73-5.34c-2.81-6.86-6.41-13.21-11.01-19.04
		c-3.57-4.52-7.06-9.1-10.14-13.98c-6.22-9.82-10.67-20.39-13.26-31.71c-2.05-8.95-2.54-18.04-1.93-27.19
		c0.2-2.95,0.29-5.91,0.35-8.87c0.09-4.2-1.29-8.01-3.03-11.73c-0.26-0.56-0.72-1.06-1.18-1.5c-6.6-6.42-12.94-13.08-19.11-19.91
		C484.37,569.32,484.17,569.18,483.91,568.94z M545.75,159.65c0.04-0.07,0.11-0.14,0.11-0.21c-0.1-1.91-0.21-3.82-0.31-5.74
		c-0.56-10.3,1.02-20.25,5.06-29.77c2.43-5.71,5.79-10.85,9.6-15.72c0.35-0.45,1-0.81,0.75-1.68c-0.83,0.05-1.62,0.06-2.41,0.15
		c-2.71,0.33-5.43,0.36-8.15,0.33c-5.29-0.05-10.53-0.72-15.79-1.16c-5.98-0.5-11.96-1.05-17.97-0.91
		c-1.26,0.03-2.55-0.05-3.69,0.34c-0.25,0.5-0.11,0.89-0.04,1.27c1.23,6.86,1.72,13.8,2.15,20.75c0.29,4.63,0.82,9.23,1.81,13.78
		c0.42,1.92,1.33,3.31,2.87,4.51c3.82,2.98,7.93,5.37,12.46,7.08c4.43,1.67,8.6,3.86,12.5,6.57
		C545.01,159.46,545.29,159.81,545.75,159.65z"/>
</g>
<g>
	<path class="st0" d="M416.13,64.5c3.65-0.29,6.53,0.42,9.22,2.02c2.28,1.35,4.28,3.07,6.31,4.76c0.98,0.81,1.97,1.59,3.38,1.47
		c-0.1-0.57-0.49-0.88-0.84-1.19c-2.58-2.27-5.13-4.58-8.09-6.36c-0.77-0.46-1.38-1.01-1.93-1.72c-1.27-1.64-2.63-3.21-3.97-4.8
		c-2.42-2.88-4.56-5.96-6.41-9.25c-0.19-0.33-0.47-0.64-0.37-1.09c0.42-0.35,0.76,0.03,1.07,0.19c2.27,1.2,4.66,2.12,7.12,2.83
		c5.72,1.65,10.62,4.72,15.13,8.52c0.21,0.18,0.38,0.49,0.9,0.3c-0.35-1.24-0.89-2.29-1.96-3.1c-3.52-2.67-7.21-5.04-11.44-6.42
		c-1.25-0.41-2-1.12-2.59-2.27c-1.32-2.56-1.85-5.22-1.63-8.1c0.26-3.29,1.15-6.36,2.47-9.48c0.63,0.77,0.65,1.5,0.79,2.2
		c0.64,3.16,1.75,6.14,3.36,8.93c1,1.73,1.95,3.49,2.92,5.23c0.67,1.21,1.3,1.84,3.14,3.05c-1.19-2.93-2.6-5.49-4.13-7.99
		c-1.39-2.27-2.39-4.69-3.23-7.19c-0.39-1.15-0.54-2.25-0.08-3.49c0.5-1.33,0.7-2.77,1.04-4.2c0.73,0.11,0.82,0.7,0.94,1.19
		c0.44,1.86,0.85,3.73,1.27,5.6c0.17,0.76,0.2,1.57,0.93,2.29c0.39-2.04,0.24-3.93-0.15-5.78c-1.16-5.5,0.45-10.09,4.38-13.97
		c0.62-0.62,1.25-1.24,1.89-1.84c0.1-0.1,0.29-0.11,0.43-0.17c0.26,0.12,0.24,0.37,0.21,0.58c-0.83,5.76,0.52,11.12,3.14,16.2
		c1.65,3.19,3.45,6.31,5.27,9.4c2.87,4.87,4.44,10.05,4.22,15.74c-0.01,0.15,0.06,0.31,0.12,0.66c1.03-0.79,1.33-1.85,1.32-2.91
		c-0.01-2.64-0.29-5.25-1.23-7.77c-1.2-3.24-2.9-6.22-4.67-9.17c-0.29-0.48-0.56-0.98-0.89-1.42c-1.77-2.32-1.94-4.81-0.76-7.64
		c2.29,4.81,3.99,9.74,6.61,14.55c0.41-0.79,0.14-1.25,0.01-1.72c-0.15-0.54-0.22-1.1-0.4-1.63c-0.42-1.23-0.58-2.45-0.3-3.76
		c0.35-1.65,0.2-3.32-0.15-4.92c0.59-0.41,0.8,0.02,1.03,0.3c2.63,3.22,5.15,6.53,6.76,10.41c0.46,1.1,0.82,2.25,1.09,3.41
		c0.32,1.35,1.1,2.39,2.08,3.94c0.21-2.89-1.22-5.06-0.9-7.87c2.54,3.34,2.98,7.27,5.5,10.64c-0.29-2.51-0.8-4.5-1.46-6.45
		c-0.35-1.06-0.57-2.1-0.09-3.15c0.69,0.04,0.64,0.55,0.79,0.86c0.98,2.11,2.23,4.06,3.48,6.01c1.47,2.3,2.61,4.74,3.44,7.36
		c1.16,3.65,2.56,7.22,4.23,10.83c-1.26,0.77-2.75,0.39-4.1,0.69c-1.31,0.29-2.65,0.44-3.99,0.66c-0.6-0.81,0.33-1.6-0.12-2.34
		c-1.06,0.37-1.6,1.21-2.1,2.15c-1.32,2.46-2.69,4.9-4.06,7.34c-0.11,0.19-0.34,0.31-0.55,0.51c-1.2-1.91-2.12-4.01-4.43-4.99
		c-0.27,0.7-0.03,1.23,0.36,1.74c0.53,0.7,1.08,1.39,1.56,2.13c1.81,2.75,2.8,5.72,2.36,9.06c-0.25,1.87-0.5,3.74-0.79,5.93
		c-2.05-1.9-2.82-4.15-3.55-6.37c-0.73-2.24-1.28-4.53-2.11-6.77c-0.21,1.96-0.45,3.88,0.12,5.8c0.59,2,1.38,3.91,2.35,5.76
		c0.89,1.69,1.48,3.45,1.37,5.46c-4.88-2.43-7.01-6.9-9.08-11.61c-0.43,1.96-0.16,3.11,1.49,6.95c-2.07,3.65-5.24,5.9-9.41,6.5
		c-1.34,0.19-2.8-0.39-4.15-0.88c-3.62-1.33-6.25-3.8-8.17-7.07c-2.28-3.88-4-8-5.02-12.39c-0.42-1.8-1.07-3.52-1.73-5.23
		c-0.67-1.73-1.74-3.23-3.15-4.47C417.18,65.44,416.84,65.13,416.13,64.5z"/>
</g>
</svg>
