<?xml version="1.0" encoding="utf-8"?>
<!-- Generator: Adobe Illustrator 24.0.2, SVG Export Plug-In . SVG Version: 6.00 Build 0)  -->
<svg version="1.1" id="Layer_1" xmlns="http://www.w3.org/2000/svg" xmlns:xlink="http://www.w3.org/1999/xlink" x="0px" y="0px"
	 viewBox="0 0 2041.58 1942.83" style="enable-background:new 0 0 2041.58 1942.83;" xml:space="preserve">
<style type="text/css">
	.st0{fill:#1A1A1A;}
</style>
<g>
	<path d="M769.99,1661.71c-0.84,6.63-0.08,12.84-3.6,18.77c-13.28,22.42-34.53,26.82-53.28,15.95
		c-21.16-12.26-33.3-37.98-41.19-60.12c-7.32-20.52-11.89-41.91-18.29-62.74c-13.73-44.65-35.89-86.32-62.73-124.42
		c-25.97-36.86-62.15-67.19-79.83-109.09c-5.36-12.71-9.08-26.08-11.29-39.69c-2.22-13.69-1.51-27.03,1.69-40.49
		c3.52-14.82,11.82-26.6,22.09-37.26c2.99-3.1,6.24-6.1,9.84-8.42c8.17-5.27,16.83-8.16,27.01-8.67
		c20.42-1.02,36.06,7.83,51.86,19.22c14.06,10.14,24.29,23.46,35.25,36.2c5.77,6.71,9.64,15.08,14.23,22.78
		c3.89,6.53,8.04,12.96,11.25,19.83c4.72,10.1,9.55,20.18,12.95,30.87c2.39,7.5,5.73,14.66,8.24,22.17
		c3.53,10.53,6.02,21.25,8.65,32.7c8.2-0.54,15.83,3.06,23.74,4.01c2.86-3.82,1.42-6.83,0.11-9.9c-3.94-9.23-6.22-18.91-7.9-28.78
		c-1.4-8.19-0.16-15.97,3.36-23.31c4.06-8.48,11.91-11.54,20.88-8.46c6.32,2.18,12.26,5.31,17.61,9.23
		c11.8,8.65,24.15,16.42,36.8,23.7c4.37,2.51,6.07,8.09,10.76,9.19c3.09-0.01,3.88-1.99,5.08-3.56c4.83-6.33,9.66-12.5,16.24-17.38
		c4.42-3.28,7.29-8.58,11.16-12.69c10.54-11.19,22-21.23,35.82-28.31c1.66-0.85,3.94-1.07,4.75-3.64c-1.11-3.81-4.87-5.11-7.92-6.71
		c-9.62-5.02-17.44-12.18-24.71-20.01c-11.95-12.88-11.05-24.28,2.17-35.95c12.19-10.76,24.05-21.89,36.28-33.07
		c-2.71-8.01-5.9-15.59-5.66-24.19c0.21-7.41,2.3-13.57,6.98-19.2c3.64-4.38,7.56-8.41,11.82-12.16c3.95-3.47,7.97-6.88,10.4-11.72
		c-15.02-10.44-30.71-9.61-48.08-6.32c-24.16,4.58-70.73,5.68-72.12-29.1c-0.25-6.15,2.1-11.79,5.64-16.75
		c4.23-5.92,8.79-11.6,13.19-17.35c-1.37-3.27-4.28-2.9-6.75-3.32c-34.96-5.98-60.98-24.97-79.49-54.76
		c-3.56-5.72-5.45-12.05-5.41-18.95c0.04-7.14,3.26-12.41,9.62-14.94c6.39-2.54,12.84-5.3,20.08-5.11
		c9.7,0.26,18.94-2.56,30.19-4.71c-7.17-3.61-12.72-6.37-18.24-9.19c-15.64-8-25.4-21.37-31.69-37.06
		c-5.71-14.26-0.74-24.54,13.07-30.91c1.51-0.7,3.01-1.44,4.57-2.01c9.93-3.64,10.19-4.08,6.54-13.19
		c-7.85-19.56-11.72-40.16-15.46-60.75c-5.11-28.11-8.61-56.48-10.2-84.99c-1.53-27.39,0.64-54.53,11.1-80.34
		c4.53-11.18,11.46-20.17,23.93-23.58c7.26-1.99,14.81-2.21,21.75-0.65c21.36,4.8,42.72,9.91,62.06,20.92
		c3.13,1.78,6.73,2.74,10.12,4.08c13.01,5.13,24.81,12.7,37.52,18.42c3.85,1.73,5.89,6.54,11.75,6.45
		c-1.1-8.77-1.93-17.29-3.27-25.72c-4.39-27.47-4.31-54.86,0.01-82.35c1.24-7.89,2.6-15.72,4.64-23.42
		c0.93-3.51,2.15-7.01,3.69-10.3c6.21-13.24,20.42-17.52,32.24-8.96c13.15,9.51,26.23,19.12,38.87,29.39
		c10.35,8.41,19.65,17.86,29.56,26.64c7.29,6.46,14.18,13.7,20.41,21.47c4.73,5.9,10.99,10.57,17.05,16.25
		c1.07-1.87,0.21-4.46-0.08-6.73c-2.53-19.8-4.28-39.65-3.8-59.62c0.31-12.75,2.68-25.03,9.43-36.23
		c9.26-15.38,25.32-21.12,42.74-16.65c19.52,5.01,37.37,13.88,55.31,22.4c14.92,7.09,29.38,15.45,43.07,24.7
		c8.19,5.53,16.27,11.5,24.39,17.21c16.3,11.46,30.29,25.76,47.2,36.47c18.06,11.45,29.86,28.55,39.99,47.15
		c12.61,23.13,17.87,46.38,20.64,72.28c0.59,5.49,0.45,25.54,7.22,26.75c3.94,0.7,8.73-4.88,11.78-6.81
		c4.2-2.66,8.65-4.9,12.73-7.75c9.34-6.52,19.8-7.24,30.59-6.53c8.75,0.57,16.56,10.78,16.63,18.55c0.07,7.81,2.14,16.06-3.17,23.24
		c-0.53,0.72-0.6,1.93-0.56,2.9c0.49,12.76-6.03,23.35-9.98,34.85c-4.06,11.82-11.92,20.38-19.92,28.81
		c-5.92,6.24-14.94,8.45-23.06,11.29c-13.69,4.78-27.81,7.79-43.1,8.21c3.78,10.33,8.42,19.63,10.43,29.47
		c2.52,12.29,5.11,24.57,6.86,37c0.87,6.15,1.54,12.34,1.9,18.54c0.35,6.1-0.7,13.08,0.41,18.93c6.13,0.64,12.56,0.09,18.74,0.16
		c2.65,0.03,5.42-0.13,7.93,0.57c10.7,2.95,21.56,3.59,32.62,3.53c8.99-0.04,17.48,3.47,26.02,5.86c4.99,1.39,8.48,1.67,12.66-1.99
		c25.15-22.01,52.17-41.22,83.15-54.35c1.19-0.5,2.2-1.4,3.1-1.99c1.76-4.39-1.07-7.35-2.63-10.48
		c-6.5-13.1-13.99-25.67-20.04-39.03c-16.26-35.9-28.44-73.14-36.31-111.68c-3.45-16.88-5.47-34.09-4.98-51.52
		c0.67-23.64-0.93-47.33,0.83-70.94c1.38-18.53,3.37-37.01,6.19-55.39c6.78-44.22,18.98-86.93,35.66-128.39
		c13.19-32.79,28.33-64.47,49.21-93.29c25.01-34.51,46.7-71.19,68.53-107.75c19.47-32.6,40.54-64.11,63.86-94.11
		c13.9-17.88,29.79-34.02,44.52-51.16c13.03-15.16,27.18-29.26,42.39-42.2c6.74-5.73,13.55-11.69,22.43-14.39
		c2.62-0.79,5.14-1.28,7.81-1.17c8.59,0.35,10.35,2.17,10.59,10.81c0.01,0.33-0.02,0.67,0.01,1c1.05,12.51-1.36,23.71-8.04,34.94
		c-11.02,18.55-20.61,38.16-33.35,55.45c-9.04,12.27-15.18,26.36-25.41,37.77c-1.99,2.22-4.27,5.01-4.5,9.9
		c5.81-5.12,10.94-9.44,15.86-13.99c21.73-20.13,45.01-38.31,68.7-56.08c18.82-14.12,36.91-29.23,56.39-42.47
		c14.24-9.67,28.02-20.03,43.21-28.31c9.92-5.4,19.45-11.55,29.09-17.46c14.52-8.9,29.97-15.85,45.88-21.77
		c7.2-2.68,14.77-3.85,22.49-3.8c6.17,0.04,10.43,2.08,15.13,7.19c9.11,9.88,11.3,21.61,14.95,33.64
		c6.79,22.35,1.8,44.86,3.52,67.21c0.2,2.63,0.42,5.46-1.09,7.81c-2.65,4.14-3.31,8.66-2.84,13.38c0.46,4.65-2.42,8.19-3.6,12.29
		c-5.52,19.23-13.99,37.12-23.38,54.74c-6.59,12.36-14.77,23.62-22.76,34.94c-7.42,10.5-16.84,19.58-25.34,29.32
		c-7.33,8.4-13.81,17.76-22.14,25c-8.28,7.19-15.19,15.77-23.78,22.44c-5.24,4.07-10.08,8.6-14.97,12.94
		c-12.12,10.76-24.85,20.85-36.66,31.89c-8.29,7.75-17.97,13.51-26.34,21.04c-10.52,9.45-22.86,16.69-33.62,25.7
		c-7.08,5.93-15.07,10.57-21.83,16.95c-5.94,5.61-13.72,9.14-20.62,13.63c-11.66,7.58-23.01,15.58-34.43,23.48
		c-5.88,4.07-12.56,6.72-19.02,10.07c1.67,2.24,3.6,1.93,4.86,1.54c9.66-2.99,19.15-0.06,28.58,0.93
		c14.54,1.54,18.72,10.7,13.05,24.12c-3.62,8.58-11.03,14.28-18.3,20.37c-12.74,10.66-28.16,16.25-41.82,25.05
		c-7.74,4.99-16.78,7.95-25.26,11.78c-6.94,3.13-6.96,3.1-12.12,9.69c0.08,0.66-0.06,1.48,0.28,1.95
		c8.9,12.46,12.04,27.88,20.8,40.41c1.32,1.89,2.48,3.88,2.45,6.4c-0.09,7.33,0.13,14.67-0.12,21.99
		c-0.18,5.07-2.52,8.32-7.92,10.03c-10.43,3.3-20.53,3.51-31.38,1.69c-16.52-2.78-32.26-7.65-47.6-14.03
		c-7.66-3.19-15.04-7.05-22.52-10.66c-9.82-4.73-6.83,6.34-6.44,12.74c0.53,8.72,1.18,17.44,1.94,26.15
		c1.53,17.41,3.53,34.79,5.99,52.1c4.92,34.62,11.69,68.97,20.28,102.86c3.49,13.76,7.27,27.45,11.35,41.04
		c2.03,6.77,3.9,13.69,6.34,20.33c0.76,2.05,6.45,15.94,7.95,15.82c20.59-1.21,41.84,2.1,63.03-2.22c7.1-1.45,14.55-1.9,21.8-1.67
		c10.53,0.33,20.51-1.85,30.41-4.78c17.58-5.2,34.31-12.07,49.76-22.33c22.1-14.68,37.71-34.12,47.36-58.7
		c7.41-18.87,8.12-38.14,4.58-57.81c-0.35-1.97-0.7-3.94-0.95-5.92c-0.83-6.56-0.21-7.56,6.64-10.98
		c19.44,8.75,34.48,22.82,48.43,38.64c15.26,17.31,26.73,37,36.47,57.51c4.35,9.17,9.88,18.27,11.19,29.15
		c0.66,5.46,2.65,11.51,5.47,16.69c1.35,2.49,2.19,4.87,1.89,7.55c-1.14,9.97,2.23,18.82,6.69,27.37c1.38,2.65,1.92,5.2-0.06,7.41
		c-3.33,3.71-2.34,8.09-2.62,12.33c-0.5,7.45,2.04,15.41-3.62,22c0.37,10.6-4.73,19.68-8.26,29.16
		c-4.39,11.77-8.52,23.67-15.03,34.54c-2.9,4.84-5.11,10.11-8.23,14.78c-11.25,16.86-24.33,31.95-40.84,44.12
		c-17.28,12.74-35.87,22.64-56.25,29.14c-7.53,2.4-15.6,3.29-22.92,6.16c-8.87,3.47-18.19,2.98-27.16,4.91
		c-11.49,2.48-23.02,3.09-34.7,2.92c-12.93-0.19-25.86-0.04-38.85-0.04c-1.03,6.42,3.23,10.64,5.03,15.33
		c3.4,8.86,7.36,17.83,9.81,26.74c6.8,24.7,16.96,48.4,24.08,73.06c7.17,24.85,12.87,50.12,17.05,75.64
		c11.58,70.59,12.84,139.03-2.75,209.18c-15.31,68.89-43.46,134.97-83,193.45c-73.54,108.77-191.03,196.84-319.08,228.59
		c-7.63,1.89-15.3,3.61-23.01,5.14c-56.41,11.24-114.81,12.99-171.73,4.58c-51.6-7.63-101.76-16.42-144.71-48.71
		c-20.63-15.51-35.74-35.56-46.76-58.75c-10.36-21.79-17.09-44.78-20.09-68.65c-2.64-21.08-4.85-42.29-1.09-63.6
		c0.72-4.08,1.43-8.52,0.18-12.95c-5.58-3.33-12.14-3.42-17.9-5.93c-8.25-3.59-16.59-7.02-23.64-12.76
		c-3.51-2.85-6.7-3.6-10.87-1.23c-8.78,5-18.99,5.89-28.52,7.95c-11.94,2.58-24.77,2.16-36.76-0.3c-10.98-2.26-22.31-3.38-32.91-7.5
		C781.73,1663.12,776.82,1659.81,769.99,1661.71z M1022.77,1682.02c-4.34,12.95,2.88,23.36,4.42,34.53
		c0.87,6.29,4.06,12.32,6.59,18.3c3.33,7.88,5.57,16.12,10.26,23.58c8.31,13.23,17.77,25.53,27.91,37.29
		c8.47,9.82,18.28,18.33,30.02,24.25c10.92,5.51,20.57,13.21,32.22,17.55c18.73,6.98,37.86,11.91,57.79,13.61
		c5.97,0.51,11.64,2.76,17.73,2.67c14.61-0.22,29.3,0.99,43.62-3.27c2.49-0.74,5.25-0.6,7.9-0.77c10.97-0.69,21.8-3.07,32.34-5.51
		c16.75-3.88,33.39-8.55,49.83-13.95c24.09-7.92,47.12-18.15,69.43-29.88c22.37-11.76,43.08-26.18,63.07-41.83
		c20.73-16.24,40.64-33.35,59.08-52.02c30.44-30.81,53.55-66.95,72.71-105.58c13.89-27.99,26.06-56.79,35.45-86.64
		c9.18-29.2,15.95-58.93,18.94-89.49c2.63-26.94,1.5-53.75-1.97-80.5c-2.27-17.46-6.38-34.59-9.77-51.86
		c-7.82-39.78-16.12-79.44-26.48-118.65c-5.69-21.55-12.5-42.74-20.06-63.69c-3.31-9.18-3.49-8.46-13.84-8.62
		c-12.4-0.19-24.51,1.22-36.32,4.53c-11.12,3.12-22.88,4.64-32.9,10.95c-4.82,3.04-9.82,5.65-15.04,7.74
		c-13.95,5.6-26.78,13.42-39.57,21.06c-10.5,6.27-21.03,12.69-31.39,19.23c-9.27,5.85-17.75,12.72-26.98,18.55
		c-9.47,5.99-18.4,12.82-27.69,19.11c-9.04,6.13-17.94,12.56-27.45,17.86c-5.81,3.24-11.46,6.69-17.11,10.16
		c-15.46,9.49-31.28,17.62-50.2,16.44c-5.68-0.35-9.91,1.4-13.6,6.36c-7.09,9.54-14.32,19.23-26.27,23.58
		c-1.74,0.64-3.18,2.41-4.49,3.89c-5.19,5.89-12.11,9.2-18.84,12.8c-1.94,1.04-4.65,0.99-5.6,4.75
		c20.18,21.17,38.26,44.74,56.22,69.02c1.65-1.78,2.65-2.65,3.41-3.7c18.13-25.08,37.28-49.25,59.27-71.17
		c15.83-15.77,31.94-31.08,50.43-43.71c15.43-10.54,32.76-14.6,51.11-13.58c9.9,0.55,19.15,3.4,27.74,9.63
		c8.11,5.88,12.86,13.75,15.95,22.18c2.06,5.61,5.56,11.25,4.95,17.98c-1.89,21.03,3.75,42.53-4,63.2
		c1.24,7.94-2.51,14.91-4.45,22.21c-0.85,3.18-3.04,6.11-3.4,9.3c-1.75,15.49-9.48,28.8-15.4,42.71
		c-40.22,94.47-114.85,157.66-187.31,226.25c-6.2,5.87-12.28,12.14-19.26,16.73c-8.59,5.66-15.95,12.81-24.38,18.66
		c-7.49,5.2-15.14,9.76-23.44,12.55c-13.67,4.58-27.49,5.3-39.26-5.7c-2.31-2.16-4.92-2.74-8.25-2.06
		c-6.16,1.27-12.57,1.44-18.67,2.9c-5.64,1.35-11.36,1.81-16.85,0.97c-17.18-2.61-34.38-5.24-51.62-7.63
		C1053.3,1683.1,1038.59,1682.32,1022.77,1682.02z"/>
</g>
<g>
	<path class="st0" d="M1524.67,900.88c-2.02,0-10.79-19.83-12.12-22.35c-3.72-7.08-7.52-14.06-10.65-21.41
		c-6.24-14.64-11.75-29.59-16.51-44.77c-9.52-30.37-16.05-61.67-19.58-93.3c-7.07-63.26-2.14-127.91,14.95-189.25
		c3.59-12.89,10.1-26.05,12.41-39.14c2.33-13.23,7.29-25.79,12.19-38.39c4.81-12.37,10.33-24.47,16.27-36.4
		c5.17-10.4,9.32-21.31,15.5-31.22c1.41-2.26,2.66-4.61,4.15-6.81c10.05-14.83,19.39-30.22,30.42-44.29
		c13.45-17.16,22.7-36.77,34.53-54.84c2.54-3.89,4.45-8.19,6.9-12.14c13.63-22.06,26.82-44.41,41.23-65.95
		c6.8-10.16,13.31-20.64,21.44-29.97c6.07-6.98,11.32-14.73,16.4-22.49c3.7-5.65,8.63-10.14,13.02-15.1
		c13.44-15.2,27.21-30.09,40.38-45.54c7.8-9.14,18.21-15.48,26.85-23.67c2.5,1.05,3.82,2.66,2.72,5.29
		c-1.53,3.68-3.12,7.35-4.85,10.94c-8.54,17.69-18.7,34.46-28.99,51.16c-14.48,23.51-29.7,46.53-44.98,69.53
		c-3.48,5.24-6.63,10.85-8.98,16.67c-2.73,6.76-7.22,11.82-12.55,16.44c-2.77,2.4-5.53,4.82-8.06,7.46
		c-1.59,1.66-2.94,3.63-4.01,5.66c-0.99,1.88-0.64,3.91,0.9,5.52c1.59,1.66,3.72,1.77,5.53,0.9c2.05-0.99,4.11-2.32,5.61-4.01
		c4.03-4.54,8.45-8.45,13.96-11.12c1.46-0.71,2.73-1.89,3.94-3.01c13.21-12.18,25.83-25.06,39.74-36.38
		c11.57-9.42,22-20.21,34.84-28.2c6.98-4.34,12.72-10.66,19.05-16.06c3.54-3.02,6.97-6.19,10.73-8.91
		c14.53-10.52,29.1-20.99,43.79-31.27c23.13-16.19,46.52-31.98,70.6-46.74c9.34-5.73,18.26-12.16,27.73-17.66
		c17.54-10.18,35.45-19.8,54.98-25.61c13-3.87,16.65,0.54,20.53,9.69c3.78,8.94,5.53,18.44,6.75,28.02
		c4.04,31.73-0.57,62.2-13.55,91.4c-10.04,22.59-22.32,43.85-37.66,63.3c-17.53,22.23-35.69,43.92-56.45,63.23
		c-19.48,18.12-39.19,36.01-59.08,53.68c-25.12,22.31-51.59,43.03-77.93,63.86c-14.61,11.55-30.4,21.59-45.06,33.07
		c-17.1,13.39-35.67,24.36-54.43,35.1c-10.7,6.12-22.19,10.58-33.52,15.35c-3.7,1.56-7.4,3.01-10.6,5.49
		c-3.5,2.71-4.56,6.5-2.67,9.46c1.48,2.31,5.25,2.95,9.04,1.5c0.62-0.24,1.25-0.51,1.78-0.89c5.3-3.83,11.46-5,17.74-6.05
		c10.79-1.79,21.58-3.66,32.3-5.84c12.9-2.62,25.81-1.12,39.44-1.57c-0.71,4.86-3.89,6.86-6.45,9.03
		c-9.98,8.43-21.35,14.74-32.89,20.68c-12.13,6.23-24.51,11.96-36.72,18.03c-4.46,2.22-8.82,4.61-11.89,8.83
		c-5.34,7.33-5.64,15.42-3.74,23.8c1.25,5.52,3.34,10.78,5.93,15.84c4.85,9.48,9.59,19.01,14.28,28.56
		c1.59,3.24,3.61,6.47,2.35,10.38c-1.73,2.58-4.39,2.62-7.09,2.86c-11.83,1.05-23.18-1.69-34.45-4.5
		c-17.43-4.35-34.41-10.15-51.19-16.58c-4.15-1.59-8.42-4.6-13.67-1.74c-2.11,2.72-3.01,6.34-3.34,9.9
		c-1.91,20.2-2.86,40.42-0.63,60.69c0.65,5.94,0.45,11.97,0.85,17.94c2.9,43.61,10.82,86.24,23.85,128.02
		c6.76,21.67,15.51,42.41,25.27,62.81c0.86,1.8,1.7,3.61,2.43,5.46c0.22,0.56,0.03,1.28,0.03,2.53c-3.83,2.45-8.47,3.47-12.94,3.27
		c-13.21-0.58-25.68,3.1-38.31,5.88c-7.45,1.64-15.03,2.82-22.15,5.85C1528.91,901.39,1527.06,900.88,1524.67,900.88z"/>
	<path class="st0" d="M1852.42,750.43c3.71-0.2,4.98,1.76,6.51,3.55c9.3,10.87,17.31,22.69,25.33,34.49
		c10.85,15.95,21.45,32.06,28.76,50.03c3.76,9.24,7.48,18.5,10.83,27.88c4.14,11.59,7.84,23.32,11.8,34.97
		c0.85,2.51,1.68,5.13,3.12,7.3c3.88,5.89,3.6,12.1,1.25,18.14c-6.73,17.33-13.17,34.81-21.69,51.38
		c-4.85,9.43-10.34,18.49-17.4,26.5c-5.7,6.47-10.47,13.65-16.45,19.97c-22.21,23.47-48.48,40.01-79.59,49.11
		c-12.81,3.75-25.97,5.34-38.85,8.24c-17.91,4.02-35.75,2.58-53.63,3.26c-4.41,0.17-8.74-0.49-12.81-1.59
		c-9.15-2.47-18.44-2.4-27.69-2.37c-18.63,0.05-37.13-2.99-55.67-2.75c-11.2,0.14-22.6-0.38-33.77,1.68
		c-1.95,0.36-3.91,0.82-5.89,0.93c-26.28,1.45-50.76,8.98-74.26,20.71c-43.97,21.94-84.21,49.55-123.33,79.04
		c-16.19,12.2-32.69,24.05-49.64,35.16c-9.05,5.93-18.74,11.19-29.34,14.32c-2.99,0.88-5.81,1.06-8.45,0.64
		c-3.17-2.5-2.64-5.3-2.19-8.39c1.37-9.28,2.2-18.76-1.44-27.61c-3.64-8.84-7.17-17.7-12.64-25.85
		c-8.71-12.98-18.64-25.02-27.54-37.83c-3.07-4.42-5.79-9.04-3.02-15.24c7.09,1.87,12.82,6.75,19.84,8.71
		c7.02,1.96,13.97,4.34,20.71,7.13c4.49,1.86,9.09,2.08,13.67,2.27c6.3,0.26,12.65-0.02,18.95-0.41
		c14.46-0.89,22.94-13.43,18.56-27.33c-1.2-3.8-2.62-7.54-4.03-11.27c-0.73-1.94-1.13-3.83-0.2-5.76c0.25-0.26,0.45-0.64,0.72-0.71
		c14.06-3.87,24.34-13.17,33.72-23.66c6.87-7.68,13.61-15.48,20.2-23.4c4.73-5.68,7.75-12.4,10.55-19.17
		c2.7-6.52,6.28-12.34,11.1-17.6c5.38-5.87,10.25-12.22,12.98-19.94c1.69-4.78,4.32-9.06,9.13-11.4
		c11.74-5.71,21.09-14.96,32.3-21.54c10.35-6.07,20.7-11.91,31.9-16.3c12.37-4.84,24.51-10.28,36.9-15.05
		c5.55-2.14,11.41-3.61,17.24-4.82c19.53-4.02,39.3-6.38,59.14-8.23c3.31-0.31,6.65-0.36,9.98-0.37
		c15.33-0.04,30.66,0.06,45.99-0.03c25.99-0.16,51.76-2.28,76.94-9.17c14.17-3.88,27.48-9.8,40.41-16.73
		c17.6-9.43,32.5-22.16,44.64-37.78c10.62-13.66,18.96-28.88,23.97-45.57c1.49-4.95,2.09-10.42,1.03-15.6
		c-1.17-5.67-1.19-11.12,0.06-16.76C1852.24,760.74,1850.75,755.6,1852.42,750.43z M1823.53,1004.1
		c-8.09,1.76-12.32,8.33-18.47,11.99c-2.14,1.27-1.91,4.03,0.05,6.04c1.93,1.96,4.19,3.25,7.03,2.94
		C1822.09,1023.97,1827.23,1015,1823.53,1004.1z M1877.32,860.91c-0.13-2.87-2.16-7.36-3.62-8.84c-2.98-3.03-6.23-2.69-7.76,1.18
		c-1.57,3.95-2.66,8.11-3.8,12.22c-0.58,2.08,0.21,4.11,1.84,5.3c2.3,1.68,5.25,1.75,7.46,0.19
		C1875.09,868.38,1876.45,864.24,1877.32,860.91z M1652.7,982.77c1.94-9.17,0.77-14.16-4.1-18.86c-2.51-2.42-5.17-2.43-7.9-1.03
		C1638.23,976.24,1640.13,979.45,1652.7,982.77z M1503.23,1023.89c-1.13-0.79-2.11-1.98-3.26-2.17c-1.9-0.32-3.93-0.18-5.85,0.14
		c-1.23,0.2-2.5,0.89-3.5,1.67c-2.78,2.19-3.07,5.23-1.17,9.95c1.92,4.76,6.74,5.53,10.03,1.59
		C1502.15,1031.89,1502.39,1027.93,1503.23,1023.89z M1310.9,1202.13c-8.35-1-11.24,0.5-13.47,6.68c-1.13,3.15,0.44,6.13,3.62,6.83
		c4.81,1.06,7.33-0.38,9.24-5.11C1311.31,1208.01,1311.92,1205.49,1310.9,1202.13z M1587.07,974.33c1.14-7.45,0.93-9.2-1.14-10.4
		c-2.64-1.53-8.23-0.58-10.05,1.68c-1.94,2.43-1.76,5-0.1,7.34C1579.12,977.67,1583.18,975.58,1587.07,974.33z M1451.25,1093.2
		c-2.16,0-3.78-0.02-5.4,0.01c-0.98,0.01-1.98-0.01-2.94,0.16c-3.77,0.68-5.49,2.68-5.19,5.92c0.3,3.32,3.33,5.88,6.75,5.74
		C1451.81,1104.73,1453.61,1101.96,1451.25,1093.2z M1715.3,949.41c-2.72,0.71-5.22,1.31-7.68,2.04c-2.63,0.78-3.46,2.83-3.37,5.35
		c0.1,2.54,1.11,4.74,3.88,4.83c2.53,0.08,4.92,2.35,7.9,0.29C1718.77,957.9,1718.59,953.8,1715.3,949.41z M1907.36,940.07
		c-2.76-0.77-5.37-2.2-8.19-1.66c-1.86,1.47-2.86,3.16-2.89,5.22c-0.09,4.69,3.62,8.07,8.29,7.7c3.1-0.25,4.84-3.84,4.01-8.52
		C1908.41,941.89,1907.81,941.04,1907.36,940.07z M1340.04,1156.8c6.14,2.26,9.28,2.14,10.89-0.64c1.54-2.67,1.84-5.62,0.08-8.4
		c-1.41-2.23-5.47-3.39-7.94-2.04C1338.7,1148.09,1339.4,1152.15,1340.04,1156.8z M1446.14,1057.14c-0.4,7.51,0.21,9.01,3.77,9.8
		c3.41,0.76,6.41-0.58,7.3-3.25c1.22-3.65-0.31-8.01-3.37-9.32C1451.43,1054.85,1448.85,1055.14,1446.14,1057.14z M1506.69,1066.65
		c-2.45,0.53-4.81,0.86-6.59,2.45c-2.28,2.03-2.42,4.67-1.22,7.24c1.29,2.74,3.93,3.49,6.68,3.22c2.85-0.28,3.52-2.72,3.84-5.04
		C1509.77,1071.83,1509.48,1069.22,1506.69,1066.65z M1542.47,1035.06c-1.21,1.96-0.96,3.9-0.12,5.78c1.54,3.46,3.83,4.89,6.92,4.43
		c2.68-0.4,4.58-3.19,4.61-6.8c0.02-2.71-1.43-4.43-3.95-4.98C1547.25,1032.91,1544.63,1033.29,1542.47,1035.06z M1703.24,1055.82
		c4.04-0.03,6.15-2.04,6.13-5.87c-0.02-2.97-1.83-4.68-4.99-4.7c-4.97-0.03-8.34,2.73-8,6.55
		C1696.61,1054.31,1699.24,1055.85,1703.24,1055.82z M1286.7,1160.4c1.23-2.91,1.23-5.59-1.01-7.46c-2.2-1.84-4.92-1.35-7.39-0.13
		c-1.99,0.98-2.65,2.76-2.55,4.87c0.11,2.34,1.59,3.52,3.68,3.88C1281.67,1161.95,1283.98,1162.13,1286.7,1160.4z M1452.15,980.2
		c0.18-3.84-1.38-5.92-4.65-6.22c-3.52-0.32-5.64,1.47-5.89,4.96c-0.27,3.7,1.38,5.85,4.7,6.16
		C1449.92,985.43,1451.98,983.7,1452.15,980.2z M1586.1,941.67c6.42,3.28,9.1,3.42,10.67,0.78c1.5-2.54-0.51-7.08-3.59-8.08
		C1590.56,933.5,1588.71,935.3,1586.1,941.67z M1459.93,1023.87c0.35-2.96-1.29-5.49-3.89-5.99c-3.16-0.61-5.85,1.39-6.33,4.68
		c-0.44,3.05,1.17,4.95,4.41,5.2C1457.55,1028.03,1459.6,1026.66,1459.93,1023.87z M1401.06,1068.52c1.84,0.05,4.23-2.52,4.34-4.68
		c0.13-2.59-2.05-5.56-4.26-5.78c-2.52-0.26-4.92,2.22-4.84,5.01C1396.38,1065.65,1398.83,1068.45,1401.06,1068.52z M1779.2,1055.94
		c-2.28-0.19-4.32,1.63-4.58,4.06c-0.23,2.2,1.58,4.83,3.48,5.03c2.65,0.29,5.34-1.92,5.2-4.56
		C1783.17,1057.99,1781.99,1056.16,1779.2,1055.94z M1651.85,934.54c2.73,4.35,4.75,7.94,7.15,11.26c1.43,1.97,3.33,0.89,4.93-2.68
		c-0.77-2.64-3.75-2.2-5.37-3.78C1656.89,937.72,1657.37,933.89,1651.85,934.54z M1532.14,962.93c2.44-0.07,4.7-2.73,4.54-5.36
		c-0.15-2.44-2.16-4.34-4.46-4.21c-2.68,0.14-4.65,2.45-4.54,5.29C1527.77,960.79,1530.05,962.99,1532.14,962.93z M1408.79,1138.23
		c0.04-2.53-2.41-4.8-5.17-4.8c-2.95,0-3.91,2.01-4.23,4.43c-0.34,2.56,2.06,4.82,4.94,4.83
		C1406.38,1142.7,1408.76,1140.33,1408.79,1138.23z M1826.59,943.35c-2.82,0.25-4.7,2.59-4.23,5.42c0.51,3.08,2.9,3.14,5.25,2.98
		c2.81-0.19,4.2-1.95,3.7-4.56C1830.81,944.63,1829.4,943.11,1826.59,943.35z M1870.23,810.83c0.61,0.46,1.29,1.23,2.14,1.59
		c3.2,1.32,4.87-0.31,5.87-3.2c0.58-1.69,0.65-3.36-1.02-4.3c-2.59-1.45-4.29,0.3-5.79,2.13
		C1870.62,808.04,1869.92,809.16,1870.23,810.83z M1889.83,881.79c-2.66,1.2-6.75,0.97-5.78,5.76c0.45,2.21,4.07,2.79,6.62,1.41
		C1892.91,887.74,1892.76,886.15,1889.83,881.79z M1807.04,893.81c-2.63-0.42-3.8,0.81-5.08,1.75c-1.46,1.07-1.94,2.58-1.32,4.25
		c0.49,1.32,1.71,1.82,3.07,1.87c1.76,0.07,3.2-0.59,3.88-2.25C1808.35,897.57,1808.4,895.67,1807.04,893.81z M1872.88,975.68
		c-2.23,0.58-3.31,2.08-3.04,4.32c0.16,1.27,0.7,2.59,2.32,2.73c2.15,0.19,4.03-2.33,3.54-4.74
		C1875.39,976.48,1874.2,975.98,1872.88,975.68z M1746.72,922.56c-2.94,0.84-4.84,2.29-3.04,5.62c1,1.84,3.01,1.91,4.23,0.78
		C1750.58,926.5,1749.37,924.32,1746.72,922.56z M1577.24,1012.48c-2.75-1.61-5.07-1.85-6.46,0.62c-0.89,1.57,0.15,3.55,1.88,3.91
		C1575.52,1017.6,1576.62,1015.51,1577.24,1012.48z M1864.43,1022.51c1.46,0.28,3.15-1,3.44-2.86c0.25-1.6,0.4-3.42-1.79-3.99
		c-1.95-0.52-4.18,1.08-4.21,3.07C1861.85,1020.54,1862.75,1021.85,1864.43,1022.51z M1746.33,992.16c-3.6,1.17-4.14,2.94-2.32,5.42
		c0.61,0.82,1.48,1.3,2.67,0.92C1748.58,996.58,1748.61,994.6,1746.33,992.16z M1627.55,1038.17c-0.15-1.36-1.29-2.17-2.56-1.93
		c-1.53,0.3-2.98,1.22-2.88,3.2c0.08,1.64,1.41,2.22,2.63,2.09C1626.39,1041.34,1627.63,1040.31,1627.55,1038.17z M1652.49,1017.06
		c2.17,0.09,3.04-1.23,3.27-2.85c0.17-1.23-0.19-2.57-1.92-2.56c-1.89,0-2.92,1.34-3.24,2.87
		C1650.34,1015.75,1651.16,1016.89,1652.49,1017.06z M1765.3,1010.19c-1.2,0.15-1.5,1.55-1.54,2.72c-0.07,1.85,0.97,2.9,2.97,2.62
		c1.45-0.2,2.43-1.11,2.15-2.5C1768.56,1011.51,1767.8,1010.01,1765.3,1010.19z M1787.02,962.57c1.79,1.74,3.62,1.87,4.7-0.53
		c0.64-1.41,0.75-3.63-1.24-4.14c-2.83-0.72-2.92,1.81-3.37,3.67C1787.03,961.89,1787.04,962.23,1787.02,962.57z"/>
	<path class="st0" d="M1281.22,1927.32c-35.08,4.01-70.68,3.44-105.63-1.56c-32.63-4.67-65.85-12.29-96.94-24.41
		c-29.73-11.59-63.29-27.09-83.12-52.51c-8.79-11.27-17.98-22.42-23.05-35.99c-7.79-20.83-15.1-41.74-19.28-63.81
		c-2.36-12.47-2.92-24.99-4.33-37.44c-0.91-7.99,1.26-16.32,1.98-23.7c1.96-2.11,3.67-2.06,5.31-2.08
		c15.65-0.19,31.3-0.38,46.95-0.51c4.47-0.04,5.44,0.88,6.52,5.68c2.7,11.99,4.68,24.11,7.92,36c9.25,33.96,27.08,67.79,54.19,90.46
		c28.21,23.6,61.82,40.75,97.54,49.55c64.18,15.81,129.94,0.16,191.26-19.67c18.71-6.05,36.51-14.44,53.97-23.27
		c19.54-9.88,38.55-21,56.28-33.95c23.88-17.44,46.92-36,68.23-56.53c11.71-11.28,22.29-23.67,32.97-35.97
		c17.58-20.23,30.65-43.29,43.81-66.39c12.54-22,23.08-44.96,32.44-68.41c24.95-62.47,37.22-129.01,32.29-196.3
		c-2.76-37.68-12.6-73.55-21.1-110.03c-1.88-8.06-2.59-16.32-5.15-24.29c-5.17-16.09-8.05-32.81-13.84-48.8
		c-5.64-15.59-9.72-31.75-14.7-47.59c-2.29-7.27-4.61-14.51-8.74-21.14c-2.33-3.74-5.29-8.61-2.12-12.96
		c2.61-3.59,7.58-2.17,11.32-1.66c12.25,1.68,24.53,1.63,36.83,1.8c2,0.03,4,0.01,6,0.03c6.35,0.04,10.57,2.87,12.73,9.04
		c5.16,14.74,10.9,29.28,15.73,44.13c20.92,64.26,36.46,130.5,40.54,198.24c1.96,32.61,1.56,65.36-1.25,97.9
		c-1.4,16.29-2.69,33.15-6.1,49.16c-1.27,5.98-4.29,11.61-6.07,17.56c-2.34,7.83-4.8,15.62-7.17,23.43
		c-7.73,25.51-17.5,50.22-29.77,73.88c-12.09,23.32-24.74,46.27-39.35,68.22c-11.66,17.52-24.92,33.67-38.03,49.97
		c-10.63,13.21-22.53,25.34-35.31,36.61c-10.97,9.68-21.34,20.03-32.17,29.88c-69.22,62.96-153.87,111.45-247.18,125.52
		C1290.85,1926.14,1286.04,1926.77,1281.22,1927.32z"/>
	<path class="st0" d="M1002.4,1233.81c-17.52-5.1-35.1-10.06-52.16-16.57c-15.26-5.82-30.16-12.43-41.69-24.62
		c-1.82-1.92-3.54-3.98-5.06-6.14c-2.92-4.14-3.43-8.88-1.07-13.19c3.93-7.16,6.64-15.49,15.49-18.71c1.17-0.42,2.04-1.68,3.03-2.56
		c6.41-5.69,13.44-7.72,22.12-5.56c8.66,2.16,17.65,2.92,26.47,4.55c6.28,1.16,12.76,1.21,19.16,2.5
		c5.73,1.16,12.38-1.35,17.74,0.44c5.14,1.71,10.07,4.78,15.47,6.34c2.54,0.73,5.22,1.54,7.8,1.46c18.98-0.61,37.86,2.22,56.85,1.5
		c10.05-0.38,19.6-3.42,29.43-4.96c13.1-2.05,25.67-6.38,38.47-9.71c15.54-4.04,30.11-9.98,44.43-17.03
		c9.1-4.48,18.7-7.95,27.53-11.65c2.6,1.6,2.1,3.18,1.97,4.86c-0.45,5.78-2.41,11.16-5.21,16.03c-5.79,10.1-12.35,19.68-21.28,27.44
		c-7.54,6.54-13.77,14.48-21.76,20.56c-0.79,0.6-1.37,1.5-2.2,2.03c-18.19,11.56-35.49,24.65-56.06,32.13
		c-5.91,2.15-11.45,5.32-17.13,8.08c-2.17,1.05-3.71,2.7-4.52,5.06c-1.32,3.87,0.24,6.62,4.42,6.98c7.4,0.64,14.58-0.77,21.62-2.9
		c19.17-5.81,37.48-13.28,54.43-24.37c14.54-9.52,28.27-19.71,39.23-33.22c6.92-8.53,13.11-17.61,16.44-28.3
		c0.48-1.55,1.42-2.96,2.45-5.03c4.79,3.92,7.52,9.05,9.36,13.92c4.39,11.6,10.76,22.12,16.4,33.02c5.17,9.98,4.19,19.34-1.33,28.39
		c-7.47,12.25-16.63,23.26-26.23,33.9c-4.86,5.38-12.18,6.67-17.99,10.53c-2.16,1.43-4.91,1.97-7.39,2.91
		c1.19-4.66,3.66-9.35-0.62-14.09c-0.68-0.16-1.6-0.45-2.55-0.6c-1.61-0.26-3.23-0.51-4.86-0.64c-3.92-0.32-6.28,2.01-5.88,5.72
		c0.38,3.5,3.09,6.58,6.61,7.47c2.53,0.64,5.08,1.21,7.62,1.81c-3.88,2.19-5.13,7.98-11.43,7.98c-0.32-6.86-5.38-9.43-10.84-12.21
		c-8.08-4.12-16.59-6.84-25.23-9.21c-16.13-4.42-33.8,5.31-38.93,21.23c-0.1,0.32-0.25,0.63-0.28,0.96
		c-0.93,9.1-5.83,15.11-14.06,18.93c-3.99,1.85-6.73,5.44-8.77,9.31c-2.45,4.66-6.16,6.44-11.32,6.63
		c-13.28,0.49-26.55,1.14-39.8,2.09c-6.28,0.45-12.5,1.69-18.74,2.6c-9.04,1.33-23.83-9.05-24.88-17.94
		c-0.92-7.76-3.57-13.9-11.04-17.56c-3.69-1.81-5.27-5.62-6.61-9.57c-3.24-9.56-7.71-11.72-17.63-13.19
		c-18.22-2.7-33.06,4.94-47.82,13.59c-4.59,2.69-9.04,5.69-13.85,7.9c-6.75,3.1-13.27,3.33-19.35-2.39
		c-6.28-5.92-13.24-11.11-19.65-16.89c-1.87-1.69-2.89-4.31-4.27-6.46c2.5-5.08,4.51-9.45,9.4-12.76
		c4.38-2.97,7.09-8.44,10.47-12.86c11.48-14.98,12.24-14.69,27.43-6.28c14.3,7.91,29.21,14.45,45.41,17.13
		c12.09,2,24.35,3.08,36.54,4.47c3.44,0.39,6.99-0.09,8.83-3.35c2.46-4.36-0.58-7.38-3.43-10.23c1.65,0,3.38,0.32,4.94-0.06
		c3.98-0.96,5.69-3.62,4.99-7.2c-0.57-2.92-3.37-4.71-6.81-4.33c-2.95,0.32-4.66,2.61-4.93,6.43
		C1000.13,1230.55,1001.38,1232.12,1002.4,1233.81z M1124.39,1178.6c-2.74-1.09-5.4-0.94-7.99-0.48c-3.08,0.55-4.26,2.98-4.54,5.78
		c-0.29,2.89-1.21,6.14,1.75,8.24c2.89,2.04,6.18,2.29,9.43,0.8c2.57-1.18,2.5-3.66,2.55-5.98
		C1125.64,1184.36,1126.73,1181.68,1124.39,1178.6z M1069.75,1220.81c4.16-5.91,4.79-9.44,2.39-12.8c-2.29-3.21-5.77-3-9.03-2.64
		c-4.99,0.55-6.91,5.4-3.97,9.66C1061.54,1218.5,1064.94,1220.31,1069.75,1220.81z M1144.88,1191.1c3.71,6.3,9.63,4.2,14.16,6.06
		c3.3-4.18,3.45-7.98,0.97-11.56c-1.87-2.69-8-2.35-12.02,0.21C1146.17,1186.96,1145.49,1188.79,1144.88,1191.1z M1244.41,1213.91
		c-5.6,1.48-9.15,3.51-12.13,6.71c-2.03,2.18-2.53,4.67-1.61,7.27c0.97,2.73,3.28,3.96,6.16,4.08c1.75,0.08,3.84-0.36,4.16-1.93
		C1241.97,1225.07,1244.79,1220.43,1244.41,1213.91z M1068.72,1279.87c-4.22-0.16-7.07,2.01-6.94,5.29
		c0.14,3.46,2.79,6.16,6.36,6.47c4.63,0.4,8.02-1.89,7.97-5.38C1076.04,1282.43,1073.28,1280.05,1068.72,1279.87z M1246.89,1178.48
		c-6.12,2.24-8.75,5.11-8.35,9.05c0.37,3.66,3.37,5.36,10.01,5.48C1249.91,1187.97,1250.83,1183.01,1246.89,1178.48z
		 M1122.74,1274.58c4.16-3.06,3.19-7.2,1.84-11.28c-0.41-1.25-1.76-1.83-3.17-1.95c-3.34-0.29-6.85,1.9-7.56,4.96
		c-0.68,2.92,0.51,5.17,3.16,6.47C1118.72,1273.64,1120.39,1274.83,1122.74,1274.58z M983.36,1192.83c0.53-2.09,1.32-3.94,1.41-5.82
		c0.19-4.05-2.54-5.77-6.44-4.46c-2.64,0.89-4.61,2.39-5.55,5.07c-0.69,1.96-0.71,3.89,0.64,5.55c1.37,1.7,3.09,2.18,5.21,1.24
		C980.1,1193.76,981.67,1193.38,983.36,1192.83z M1039.66,1243.24c-0.31,3.97,1.03,5.98,4.27,6.4c4.11,0.53,7.79-1.79,8.14-5.14
		c0.36-3.46-2.69-6.9-6.4-7.21C1041.99,1236.97,1039.99,1238.96,1039.66,1243.24z M1117.52,1217.97c-0.07-4.39-2-6.66-5.58-6.59
		c-3.96,0.08-5.77,2.13-5.66,6.41c0.1,4.01,1.95,5.77,6.24,5.92C1115.95,1223.84,1117.58,1221.96,1117.52,1217.97z M908.39,1256.08
		c-2.98,0.42-5.06,3.39-4.63,6.58c0.4,2.93,2.6,5.04,5.23,5c2.78-0.04,4.92-3.15,4.49-6.53
		C913.09,1258.13,910.71,1255.76,908.39,1256.08z M1065.12,1251.96c-2.37,0.74-4.03,2.19-4.6,4.62c-0.72,3.05,1.27,6.41,3.95,6.83
		c2.21,0.35,4.67-2,5-4.96C1069.83,1255.12,1068.59,1252.76,1065.12,1251.96z M932.16,1183.29c-0.04-1.4-0.75-3.11-3.24-3.29
		c-3.56-0.26-6.86,2.64-6.41,5.8c0.41,2.89,2.65,3.41,5.13,3.31C930.88,1188.98,932.22,1187.49,932.16,1183.29z M1041.26,1187.3
		c3.83,2.25,6.78,2.65,9.69,1.64c1.63-2.71,1.59-4.79-0.3-6.76C1046.68,1181.45,1043.71,1182.71,1041.26,1187.3z M1084.46,1187.29
		c3.86,0.67,6.32-0.33,7.37-3.77c0.51-1.66,0.37-3.24-1.32-4.31c-1.23-0.78-2.42-0.69-3.71-0.11
		C1083.28,1180.68,1083.24,1183.39,1084.46,1187.29z M950.97,1172.64c-0.96,1.05-1.32,2.26-1.27,3.65c0.06,1.85,0.68,3.24,2.76,3.29
		c1.92,0.04,3.5-2.19,2.94-4.24C954.8,1173.11,953.28,1172.14,950.97,1172.64z M941.69,1247.69c2.14-0.1,3.66-0.8,3.49-2.8
		c-0.16-1.77-1.48-2.88-3.35-2.82c-1.86,0.05-3.15,1.24-3.17,3.01C938.63,1247.06,940.27,1247.61,941.69,1247.69z M1051.93,1301.58
		c0.09-2.12-0.65-3.6-2.45-3.93c-2.29-0.42-3.98,1.09-4.24,3.07c-0.22,1.63,1.27,2.85,3.2,2.91
		C1050.18,1303.69,1051.67,1303.4,1051.93,1301.58z"/>
</g>
</svg>
