<?xml version="1.0" encoding="utf-8"?>
<!-- Generator: Adobe Illustrator 24.0.2, SVG Export Plug-In . SVG Version: 6.00 Build 0)  -->
<svg version="1.1" id="Layer_1" xmlns="http://www.w3.org/2000/svg" xmlns:xlink="http://www.w3.org/1999/xlink" x="0px" y="0px"
	 viewBox="0 0 2173.76 2535.83" style="enable-background:new 0 0 2173.76 2535.83;" xml:space="preserve">
<g>
	<path d="M1901,2441.93c-11.98-7.22-24.61-12.16-37.47-16.55c-0.82-0.28-1.89,0.22-3.84,0.49c11.72,15.58,22.83,30.93,27.01,49.88
		c0.33,1.49,0.04,3.11,0.04,5.11c-1.5-0.37-2.62-0.32-3.23-0.85c-12.83-11.01-28.05-17.8-43.33-24.41
		c-9.13-3.95-18.15-8.43-28.25-9.51c-4.68-0.5-7.79-3.49-10.93-6.48c-5.26-5.01-11.4-8.15-18.76-8.12
		c-6.41,0.03-12.58,1.02-16.97,6.47c13.57,26.6,20.35,54.85,23.42,84.09c0.29,2.78-0.45,5.66-0.75,9.01
		c-5.65-0.7-8.65-4.03-11.7-6.81c-8.85-8.08-17.49-16.4-26.1-24.73c-8.39-8.11-16.69-16.3-27.04-21.99
		c-4.29-2.36-6.73-6.31-9.03-10.41c-4.52-8.04-10.91-13.27-19.67-17.14c-20.77-9.18-39.54-4.71-57.97,5.72
		c-1.81,1.02-3.33,3.11-4.27,5.05c-6.17,12.8-9.14,26.35-8.75,40.59c0.23,8.32,0.59,16.64,0.74,24.96c0.05,2.86-0.36,5.74-0.63,9.52
		c-2.84-0.76-4.97-0.76-6.33-1.79c-5.28-3.99-11.28-7.54-15.25-12.63c-11.24-14.42-21.71-29.44-32.27-44.37
		c-4.91-6.94-7.32-14.81-7.61-23.42c-0.14-4.29-0.88-8.64-1.94-12.81c-1.98-7.76-1.5-15.12,2.05-22.33
		c0.87-1.77,1.34-3.74,2.18-6.15c-7.35-8.99-8.19-20.37-10.15-31.37c-0.93-5.22-1.25-10.59-4.95-14.91
		c-14.45,6.85-28.39,14.88-44.25,18.04c-10.1,2.01-20.28,3.65-30.47,5.15c-22.69,3.35-45.33,7.1-68.42,6.98
		c-18.62-0.09-37.27,1.34-55.88,0.88c-22.31-0.55-44.47-3.05-65.55-11.25c-1.2-0.47-2.33-1.08-3.42-1.59
		c-0.25-3.44,2.08-4,4.25-4.82c10.27-3.87,20.49-7.88,30.8-11.65c21.13-7.73,40.23-18.9,58.08-32.57
		c14.36-11,27.18-23.42,38.78-37.21c8.64-10.27,15.27-21.78,21.37-33.64c5.81-11.29,12.64-21.87,21.1-31.38
		c7.95-8.94,17.67-15.33,29.1-18.54c11.11-3.11,22.49-5.25,34.61-8.01c-5.4-3.77-11.41-5.7-16.91-8.5
		c-13.43-6.85-28.09-10.1-42.47-14.05c-28.38-7.79-53.66-21.41-76.51-39.76c-13.74-11.04-23.54-25.26-32.3-40.29
		c-8.38-14.37-16.61-28.83-24.94-43.23c-11.87-20.5-28.38-37.01-46.47-51.75c-20.64-16.83-42.05-32.86-66.14-44.58
		c-19.73-9.6-39.88-18.33-59.9-27.32c-5.76-2.59-11.73-4.68-17.55-7.14c-1.41-0.6-2.6-1.73-4.38-2.95
		c7.24-4.42,14.61-6.54,22.02-8.07c19.89-4.11,39.95-6.82,60.32-7.37c31.41-0.86,62.43,1.92,93.34,7.61
		c28.19,5.19,55.86,11.95,82.72,22.01c22.32,8.36,42.73,20.06,61.68,34.41c1.58,1.2,3.24,2.3,5.94,4.22
		c-0.49-2.73-0.62-4.44-1.12-6.02c-4.73-15.07-14.55-26.73-25.4-37.7c-14.52-14.68-29.09-29.3-43.46-44.13
		c-3.92-4.05-7.68-8.42-10.62-13.2c-3.32-5.39-8.03-7.48-13.78-8.59c-7.51-1.44-14.97-3.09-22.44-4.72
		c-21.57-4.7-41.68-13.61-62.18-21.45c-25.42-9.72-48.77-23.08-70.1-39.78c-36.43-28.52-67.9-61.51-92.37-101.2
		c-15.86-25.72-28.6-52.58-37.29-81.44c-0.28-0.94-0.82-1.8-1.5-3.25c-8.39,14.15-21.68,22.4-34.59,30.91
		c-11.72,7.72-23.1,15.86-33.22,25.5c-7.68,7.31-14.46,15.57-21.53,23.51c-1.06,1.19-1.51,2.94-2.19,4.46
		c-2.31,5.16-4.45,10.4-6.96,15.46c-1.64,3.3-3.02,6.14-1.87,10.25c0.81,2.89-0.72,6.44-1.27,10.15
		c18.1,4.84,30.36,17.98,42.05,31.43c7.82,9.01,14.51,19.05,21.25,28.93c7.03,10.31,7.84,21.23,3.6,33.25
		c-7.97,22.59-14.97,45.52-22.49,68.27c-2.69,8.14-3.14,16.12-0.78,24.5c2.7,9.6,4.66,19.42,6.83,29.16
		c1.59,7.17,5.13,12.84,11.53,16.74c6.25,3.81,12.21,8.1,18.5,11.84c6.62,3.95,9.15,9.22,6.8,16.73c-0.59,1.88-0.68,3.93-0.94,5.91
		c-1.77,13.71-6.33,26.17-13.73,38.09c-12.46,20.07-23.62,40.93-35.36,61.44c-2.81,4.91-5.81,9.7-8.61,14.62
		c-11.52,20.27-21.15,41.46-30.5,62.42c0.19,1.05,0.09,1.92,0.47,2.3c5.6,5.66,4.85,11.8,1.81,18.38
		c-6.71,14.5-13.09,29.15-19.99,43.55c-1.69,3.54-2.87,6.43-1.07,10.25c2.27,4.8,1.6,9.71-0.42,14.52
		c-4.65,11.04-8.89,22.26-13.96,33.09c-6.33,13.53-16.27,24.26-28.02,33.34c-1.31,1.01-2.75,1.88-4.22,2.65
		c-0.84,0.44-1.86,0.53-2.85,0.79c-2.18-2.86-1.13-5.72-0.54-8.56c2.23-10.74,4.46-21.48,6.64-32.23c0.19-0.93,0.02-1.92,0.02-4.07
		c-1.72,1.39-3.02,2.05-3.75,3.1c-2.45,3.53-6.03,5.18-9.95,6.21c-9.64,2.53-19.3,4.96-28.93,7.43
		c-6.98,11.44-16.13,20.72-26.12,28.97c-6.06,5-13.39,8.45-20.22,12.5c-3.02,1.79-5.74,1.4-7.69-3.04
		c-2.73,6.55-5.14,11.97-7.27,17.49c-2,5.2-5.79,8.03-11.1,8.91c-5.9,0.98-11.82,1.89-17.75,2.57c-3.09,0.36-5.97,0.89-7.93,3.52
		c-5.33,7.15-13.36,9.61-21.28,12.17c-4.75,1.53-9.63,2.64-14.41,4.05c-13.96,4.14-26.08,11.58-37.3,20.69
		c-4.83,3.92-9.72,7.83-14.83,10.94c-3.63-2.42-2.77-5.22-2.44-7.73c1.84-13.66,5.8-26.64,12.57-38.71
		c1.13-2.01,2.03-4.14,3.44-7.05c-2.16-1.91-3.99-4.53-6.48-5.53c-5.8-2.33-11.68-4.31-18.36-3.13c-5.51,0.98-11.26,0.58-16.91,0.79
		c-1,0.04-2.06-0.21-2.98,0.05c-19.86,5.45-40.76,6.18-60.23,13.4c-9.34,3.46-18.74,6.78-28.16,10.05c-2.42,0.84-4.99,1.2-7.87,1.87
		c-2.01-4.92,0.58-8.31,2.68-11.35c4.9-7.12,10.24-13.94,15.49-20.82c1.79-2.35,3.82-4.53,6.81-8.05c-4.98,0.39-8.64,0.8-12.31,0.94
		c-4.33,0.16-8.67-0.06-12.99,0.17c-3.98,0.21-7.95,0.69-11.89,1.26c-4.28,0.61-8.53,1.44-12.78,2.22
		c-3.75,0.69-7.27,3.42-11.81,1.31c4.03-9.9,10.92-17.6,17.9-26.77c-5.22,0.61-9.24,1.08-13.77,1.6c1.86-5.9,6.42-8.32,10.21-11.32
		c5.22-4.12,10.69-7.92,16.07-11.83c6.22-4.53,12.87-8.23,20.18-10.77c18.53-6.41,36.84-13.39,56.49-16.05
		c4.67-0.63,9.17-3.74,13.39-6.31c5.36-3.27,10.19-5.3,16.78-2.47c5.94,2.55,12.22,1.69,17.99-2.41c4.25-3.02,9.24-5.02,14.49-7.79
		c-2.52-1.55-4.44-2.73-6.88-4.23c0.92-1.74,1.53-3.62,2.71-5.03c11.08-13.28,23.2-25.25,37.03-35.95
		c23.35-18.06,47.1-35.95,66.56-58.46c10.65-12.32,20.59-25.3,30.28-38.4c8.31-11.23,15.61-23.2,23.74-34.57
		c4.83-6.75,10.28-13.08,15.68-19.4c1.88-2.2,4.46-3.82,7.33-6.22c2.9,3.73,5.4,6.97,8.26,10.66c10.09-21.94,16.58-44.29,20.47-67.3
		c1.06-6.29-0.76-13.2-1.94-19.7c-2.15-11.78-5.02-23.43-7.18-35.21c-1.71-9.28-6.06-16.8-13.18-22.87
		c-8.61-7.34-17.23-14.67-25.73-22.14c-5.72-5.03-11.23-10.29-17.42-15.99c-4.68,8.09-3.12,17.4-7.49,25.43
		c-1.92-0.31-4.08-0.08-5.52-0.99c-4.2-2.65-8.48-5.37-12.07-8.76c-15.29-14.42-29.37-29.91-41.01-47.53
		c-6.78-10.26-13.8-20.35-20.96-30.35c-1.68-2.34-4.2-4.17-6.58-5.9c-23.65-17.24-42.3-38.42-52.34-66.37
		c-6.37-17.76-8.7-36.13-8.2-54.93c0.18-6.96,0.03-13.93,0.03-21.92c0.14,0.16-0.35-0.8-1.13-1.3c-5.79-3.75-7.55-9.09-8.45-15.87
		c-2.38-17.79-6.31-35.37-8.74-53.16c-1.67-12.16-1.96-24.51-2.66-36.79c-0.16-2.87,0.49-5.78,0.83-9.44
		c4.23,0.54,7.65,0.97,11.51,1.45c-1.14-6.57-2.7-12.62-3.1-18.75c-0.4-6.28,0.48-12.63,0.55-18.95
		c0.14-12.31,0.27-24.63,0.07-36.94c-0.1-6.18,1.26-11.7,4.07-17.22c9.26-18.14,16.65-36.99,20.2-57.17
		c2.43-13.85,3.27-27.8,1.86-41.77c-1.47-14.52-1.15-28.65,6.05-41.1c-1.74-4.92-3.48-8.9-4.53-13.05
		c-1.34-5.27-1.54-10.55,2.39-15.14c2.7-3.15,2.39-5.96,0.31-9.87c-8.32-15.67-18.79-29.74-29.88-43.5
		c-16.5-20.46-33.27-40.76-48.52-62.14c-12.76-17.88-22.09-37.95-30.94-58.08c-13.42-30.52-24.24-61.97-32.27-94.32
		c-7.24-29.13-12.24-58.62-12.04-88.78c0.18-27.89,5.32-54.93,14.7-81.14c1.73-4.83,2.72-10.32,7.34-13.73
		c3.89,1.16,3.94,4.4,4.53,7.23c2.11,10.1,4.15,20.21,6.24,30.32c3.41,16.48,10.43,31.64,18.22,46.32
		c10.61,20,22.32,39.41,36.53,57.13c7.49,9.34,15.67,18.13,23.3,27.37c4.23,5.12,8.24,10.48,11.87,16.04
		c5.44,8.34,7.8,17.53,6.41,27.58c-0.45,3.25-0.34,6.59,0.06,10.07c5.19-8.99,7.33-19.76,15.94-26.83c1.64,1.12,2.9,1.69,3.77,2.61
		c10.23,10.92,20.21,22.1,30.68,32.79c5.21,5.32,9.79,10.75,11.32,20.43c1.61-3.76,2.57-5.6,3.2-7.55
		c3.77-11.72,7.37-23.5,11.26-35.18c1.07-3.22,1.92-6.18,1.27-9.67c-1.88-10.12,2.21-17.87,9.48-24.81
		c20.93-19.99,41.51-40.34,62.32-60.46c8.94-8.65,14.17-19.07,16.42-31.25c3.38-18.29,7.16-36.5,10.59-54.78
		c1.22-6.51,1.99-13.1,2.81-19.68c0.2-1.61-0.03-3.34-0.39-4.95c-2.43-10.65-4.94-21.29-7.55-32.46c-15.2-1.07-30.98,1.5-46.58-4.19
		c1.86-39.84,11.11-77.68,27.02-114.72c-3.95-2.87-7.3-5.47-10.81-7.81c-5.43-3.62-8.5-8.27-7.52-15.07
		c0.24-1.63,0.06-3.33,0.07-4.99c0.05-6.78,1.94-12.49,8.82-15.4c0.87-0.37,1.52-1.26,2.55-2.14c-1.5-11-2.97-22.14-1.48-33.45
		c2.38-18.09,8.52-34.67,17.65-50.5c10.64-18.44,25.38-32.36,43.46-43.02c3.06-1.8,4.89-4,6.36-7.18c3.2-6.88,9-11.39,15.34-15.29
		c3.94-2.43,7.75-2.29,11.06,0.65c4.71,4.19,9.33,8.53,13.5,13.24c4.17,4.71,7.75,9.96,11.38,14.71c10.61-4.56,20.89-9.1,31.28-13.4
		c3.6-1.49,5.98-3.77,7.83-7.19c4.91-9.07,10.14-17.96,15.4-27.19c-0.31-2.49-1.3-5.46-0.85-8.21c0.46-2.83,2.32-5.43,3.58-8.16
		c-2.11-4.17-4.15-8.29-6.26-12.38c-3.43-6.68-10.54-8.35-16.55-3.49c-11.12,9-21.92,18.39-33.04,27.39
		c-11.81,9.55-25.24,11.23-39.51,7c-4.37-1.3-5.73-3.82-4.18-8.61c2.39-7.42,2.56-14.99,3.21-22.61c0.46-5.34-0.56-9.75-3.32-14.16
		c-5.92-9.46-6.18-10.75-6.23-22.51c0.33-0.56,0.56-1.23,1.01-1.67c1.81-1.76,4.79-3.18,5.29-5.22c0.89-3.66-2.32-6.09-5.19-7.72
		c-3.75-2.12-7.79-3.74-11.77-5.42c-11.3-4.79-20.89-11.68-27.53-22.22c-0.66-1.04-1.13-2.2-2.59-5.07
		c7.77,3.26,13.94,5.84,21.92,9.18c-2.04-5.07-5.14-7.04-6.87-9.89c-1.72-2.83-3.32-5.74-5.19-8.99c-2.42-0.21-5.06-0.32-7.65-0.68
		c-4.79-0.67-9.08-2.2-10.95-7.32c-0.23-0.62-0.53-1.23-0.88-1.79c-4.42-7.12-10.26-11.49-19.07-12.51
		c-17.6-2.03-34.46-7.33-51-13.56c-10.39-3.91-20.05-9.04-26.92-18.21c-0.38-0.5-0.52-1.18-1.06-2.48c1.55-1.24,3.13-2.84,5.01-3.93
		c24.73-14.39,49.42-28.86,74.3-43c19.37-11.01,38.99-21.58,58.51-32.34c4.95-2.73,9.81-5.65,14.91-8.06
		c4.62-2.18,7.29-5.57,8.44-10.42c0.46-1.94,1.42-3.77,1.74-5.72c1-6.04,4.69-10.32,9.29-13.74c10.15-7.53,20.49-14.8,30.8-22.11
		c5.42-3.84,12.34-6.53,15.99-11.6c3.41-4.74,3.36-11.95,4.88-18.06c3.68-14.84,6.62-29.9,12.69-44.06
		c9.62-22.42,20.42-44.1,38.2-61.44c3.78-3.68,7.57-7.35,13.97-8.74c-0.19,11.65-0.74,22.73-0.45,33.78
		c0.3,11.29,0.95,22.62,2.31,33.83c1.35,11.17,1.92,22.57,6.55,33.75c7.39,0,14.94,0,23.26,0c3.41-4.37,6.92-9.62,11.17-14.18
		c18.81-20.21,37.85-40.13,58.9-58.16c12.66-10.84,25.58-21.25,38.86-31.29c13.62-10.3,28.07-19.06,44.26-24.69
		c2.38-0.83,4.95-1.1,8.23-1.8c-0.06,4.38-1.77,7.1-3.4,9.86c-18.59,31.53-30.51,65.78-39.85,100.88
		c-3.38,12.71-3.49,26.29-5.14,39.92c3.26,1.37,5.88,2.74,8.65,3.6c13.05,4.07,26.37,7.04,40,8.18c32.9,2.73,65.86,3.22,98.82,1.5
		c14.25-0.74,28.49-2.43,42.62-4.49c31.23-4.57,62.33-10.07,93.58-14.42c29.98-4.17,60.07-7.38,90.34-9.12
		c25.89-1.48,51.71-4.19,77.69-3.96c18.29,0.16,36.64-0.66,54.79,2.45c15.51,2.65,30.39,7.22,43.98,15.4
		c0.84,0.51,1.62,1.17,2.31,1.88c0.44,0.46,0.66,1.13,1.38,2.41c-2.79,1.06-5.43,2.17-8.15,3.09
		c-30.89,10.36-61.82,20.57-92.67,31.06c-24.96,8.48-48.87,19.34-71.62,32.68c-17.5,10.27-34.96,20.6-52.54,30.74
		c-3.31,1.91-5.56,4.13-7.25,7.71c-1.49,3.17-4.49,5.74-7.15,8.21c-1.38,1.28-3.79,2.84-5.23,2.44c-5.94-1.66-9.41,2.24-13.1,5.27
		c-11.56,9.5-22.96,19.19-34.35,28.91c-3.03,2.58-5.32,5.27-5.61,10c-0.35,5.77-7.56,12.09-13.27,11.24
		c-4.41-0.66-6.83,1.04-9.72,3.1c-1.63,1.16-3.19,2.4-4.78,3.62c-2.54,1.95-5.14,2.67-8.35,1.32c-3.67-1.54-7.55-2.55-11.3-3.9
		c-9.45-3.39-19.09-5.55-29.19-6.04c-8.23-0.4-14.96,1.89-20.48,8.03c-4.82,5.35-9.83,10.52-14.79,15.8
		c0.22,0.17,0.75,0.89,1.09,0.81c15.26-3.64,29.66,0.06,43.89,5.09c2.5,0.88,4.77,2.55,7.31,3.14c8.11,1.9,11.48,7.15,11.25,15.12
		c50.48,20.98,90.28,53.32,113.45,104.83c10.85,2.61,17.97,10.71,23.7,20.45c2.36,4.02,4.78,8,7.21,11.97
		c5.36,8.76,5.93,17.5-0.01,26.24c-0.37,0.55-0.81,1.07-1.13,1.65c-0.31,0.57-0.49,1.21-0.94,2.35
		c19.98,20.39,42.12,39.38,55.38,66.02c-1.58,3.34-3.12,6.59-4.38,9.25c9.73,8.66,19.03,17.18,28.64,25.35
		c2.7,2.29,6.09,4.15,9.48,5.18c15.72,4.76,30.02,12.69,44.6,19.93c12.89,6.4,19.37,17.8,21.92,31.63
		c2.23,12.1,4.28,24.23,6.59,36.32c2.11,11.04,0.93,21.93-1.5,32.67c-0.87,3.84-1.37,6.98,1.55,10.24c3.68-1.51,4.55-4.93,6.29-7.59
		c8.9-13.66,17.63-27.44,26.72-40.98c15.34-22.85,36.08-38.83,61.96-48.23c7.76-2.82,15.36-6.07,23.69-9.39
		c0.88,4.57-0.91,7.74-2.19,10.96c-3.55,8.97-7.24,17.9-10.74,26.89c-0.91,2.34-1.33,4.87-2.55,9.47c2.09-2.57,2.89-3.2,3.23-4.03
		c7.91-19.26,22.01-33.95,36.11-48.59c21.51-22.33,45.58-41.82,69.27-61.71c14.26-11.97,28.83-23.59,43.62-34.88
		c13.54-10.33,28.57-18.28,44.05-25.31c12.41-5.63,24.97-10.97,37.44-16.47c2.76-1.22,5.46-2.54,8.85,0.88
		c-1.49,2.62-2.82,5.6-4.71,8.17c-14.27,19.44-24.99,40.83-35.05,62.64c-12.14,26.32-22.66,53.25-32.56,80.48
		c-10.86,29.84-26.26,57.46-43.28,84.19c-17.92,28.14-38.99,53.87-60.6,79.17c-9.5,11.12-19.12,22.21-29.43,32.56
		c-6.99,7.01-14.76,13.57-23.11,18.86c-28.96,18.33-58.81,35.11-89.98,49.48c-29.42,13.56-56.74,30.69-82.89,49.75
		c-0.54,0.39-1.01,0.95-1.61,1.18c-9.54,3.56-13.94,11.63-17.98,20.14c-2.14,4.5-4.58,8.9-7.25,13.11c-2.19,3.45-3.86,6.9-3.9,11.09
		c-0.01,1.62-0.24,3.57-1.15,4.79c-6.54,8.78-12.83,17.81-20.11,25.96c-4.89,5.47-6.29,5.17-15.17,6.24
		c-11.04,22.14-16.14,46.21-22.71,69.83c-2.22,7.97-5.21,15.76-8.42,23.4c-1.96,4.67-3.84,9.2-3.74,14.33
		c0.01,0.67,0.09,1.37-0.08,1.99c-3.3,12.02,1.05,22.88,5.16,33.76c2.71,7.16,5.56,14.27,8.29,21.42c0.83,2.17,1.43,4.43,2.18,6.64
		c2,5.87,1.25,11.06-3.25,15.67c-2.3,2.36-3.87,5.44-6.16,7.82c-4.55,4.71-4.41,10.99-5.83,16.7c-0.4,1.62,0.77,3.84,1.67,5.55
		c2.01,3.82,4.29,7.5,6.49,11.21c18.18,30.61,36.63,61.07,54.47,91.88c10.77,18.59,16.56,39.11,20.58,60.12
		c0.3,1.57-0.07,3.3-0.33,4.92c-0.09,0.53-0.81,0.96-1.94,2.19c-2.6-1.23-5.7-2.29-8.35-4.03c-7.62-4.99-15.96-8.07-24.64-10.63
		c-6.01-1.77-11.74-4.52-17.59-6.85c-2.98-1.19-5.95-2.43-10.27-4.2c0.78,3.77,1.06,6.31,1.85,8.68
		c5.15,15.47,10.52,30.87,15.56,46.37c1.21,3.73,1.93,7.76,2.04,11.67c0.29,10.31-0.01,20.64,0.18,30.95
		c0.16,8.25,0.7,16.48,1.09,25.02c7.56,1.65,13.87-0.87,19.63-3.83c11.52-5.93,22.71-12.51,33.9-19.05
		c15.5-9.07,30.47-19.16,46.42-27.35c21.38-10.97,44.11-18.66,67.87-22.87c18.06-3.2,36.24-5.97,54.58-3.37
		c10.16,1.44,20.13,4.22,30.13,6.63c2.12,0.51,3.99,2,6.87,3.51c-3.77,2.09-6.65,3.63-9.47,5.27
		c-17.03,9.89-33.53,20.53-47.15,34.97c-12.41,13.17-21.28,28.27-22.27,46.78c-0.47,8.93,0.37,17.93,0.73,26.9
		c0.12,2.99,0.53,5.97,0.86,8.94c0.73,6.56-1.61,12.01-6.92,15.62c-5.67,3.86-11.83,6.99-18.91,11.09c2.21,0.09,3.54,0.35,4.82,0.18
		c29.19-3.92,58.4-3.64,87.66-0.94c16.88,1.56,33.83,2.46,50.68,4.24c30.08,3.18,60.23,6.04,89.85,12.56
		c32.04,7.05,60.87,21.29,87.1,40.66c22,16.24,42.3,34.46,60.21,55.26c21.48,24.94,38.76,52.37,50.41,83.24
		c8.84,23.41,15.46,47.42,19.85,72.08c4.24,23.82,4.85,47.46-0.05,71.39c-4.48,21.88-9.45,43.56-16.77,64.66
		c-8.78,25.28-21.46,48.69-34.42,71.98c-8.79,15.81-19.05,30.47-31.85,43.31c-2.33,2.34-4.31,5.04-6.57,7.71
		c0.43,2.58,0.49,5.31,1.36,7.74c4.01,11.18,0.29,21.06-5.43,30.24c-10.23,16.38-21.04,32.34-36.04,44.99
		c-8.74,7.37-18.93,12.29-28.64,18.01c-1.79,1.05-4.47,1.32-6.57,0.97c-9.82-1.67-19.64-3.43-29.36-5.65
		c-7.46-1.7-9.37-1.56-13.45,4.63c-4.57,6.95-8.87,14.09-13.03,21.3c-10.66,18.51-25.04,33.55-42.29,45.95
		c-17.63,12.67-35.87,24.26-56.75,30.94c-4.35,1.39-8.8,2.45-14.14,3.92c1.53,1.8,2.52,3.38,3.89,4.5
		c12.1,9.89,24.29,19.69,36.42,29.55c4.9,3.99,9.85,7.93,14.58,12.11c6.28,5.56,8.93,13.09,10.59,21.02
		C1902,2439.47,1901.41,2440.44,1901,2441.93z M1737.11,2155.39c0-2.1-0.01-3.34,0-4.58c0.11-9.98,0.09-19.97,0.35-29.95
		c0.63-23.66,0.57-47.28-4.64-70.54c-3.07-13.72-7.45-26.99-16.01-38.41c-4.78-6.38-10.04-12.39-14.88-18.71
		c-2.27-2.97-6.47-5.1-5.25-10.27c4.73-2.54,9.76-1.84,14.6-1.31c18.43,2.02,35.51,8,51.77,16.98
		c21.45,11.83,40.83,26.35,57.98,43.71c12.88,13.03,23.94,27.64,34.23,42.85c5.96,8.81,12.23,17.51,19.2,25.53
		c11.71,13.48,24.5,25.64,44.18,25.65c0.97,0,1.94,0.16,2.76,0.23c6.01-3.97,11.92-7.69,17.63-11.69
		c13.61-9.51,28.48-17.26,40.15-29.5c2.91-3.05,6.71-5.88,10.64-7.14c3.43-1.1,7.61,0.15,11.48,0.36
		c7.32-10.63,13.49-41.01,13.56-52.63c0.18-29.21-5.83-56.75-22.57-81.45c-21.81-32.18-50.14-55.27-87.48-67.6
		c-29.21-9.65-59.28-11.4-89.48-12.7c-10.22-0.44-20.54,0.96-30.79,1.78c-19.89,1.6-39.67,3.85-59.34,7.44
		c-21.91,4-44.03,6.93-66.1,10.01c-14.81,2.07-29.59,4.62-44.66,4.07c-1.84-0.07-3.71,0.6-6.1,1.02c0,2.82-0.06,5.11,0.01,7.39
		c0.77,24.32,2.8,48.5,7.27,72.45c1.98,10.58,5.04,20.71,11.12,29.7c2.38,3.51,3.72,6.93,1.99,11.18c-1.35,3.32-0.35,6.26,1.51,9.37
		c2.19,3.65,3.8,7.73,5.13,11.8c5.17,15.82,9.91,31.82,18.21,46.38c5.27,9.25,10.9,18.3,16.65,27.26c2.99,4.66,4.84,9.3,4.17,14.98
		c-0.58,4.9-0.51,9.87-0.72,14.77c2.53,2.16,4.78,4.08,7.06,6.02c1.15-0.63,2.19-0.91,2.79-1.58c3.83-4.24,8.28-4.7,13.61-3.17
		c7.66,2.19,15.51,3.73,23.24,5.68C1725.75,2152.13,1731.07,2153.72,1737.11,2155.39z M806.99,1400.22
		c7.51-7.54,13.83-14.36,20.66-20.64c16.87-15.52,33.92-30.86,51-46.15c20.34-18.21,41.32-35.64,63.44-51.69
		c10.76-7.81,21.25-15.98,28.38-25.45c0-9.11-0.36-16.76,0.07-24.37c1.32-23.25,2.92-46.49,4.49-69.73
		c0.39-5.79,2.18-11.05,6.85-14.18c-1.49-9.27-2.63-17.83-4.32-26.28c-1.11-5.5-2.72-10.94-4.67-16.2
		c-3.81-10.29-8.05-20.41-12.03-30.64c-1.31-3.37-2.39-6.83-3.15-9.03c-8.56-3.95-15.92-7.34-23.69-10.92
		c0.51,11.6,2.37,22.73,5.49,33.55c2.76,9.57,1.9,18.32-3.29,26.76c-2.44,3.97-4.9,7.95-6.94,12.13c-1.71,3.51-3.48,7.22-4.08,11.02
		c-1.32,8.31-6.19,14.68-12.84,18.05c-5.39,2.73-8.97,6.52-12.67,10.62c-8.25,9.14-16.13,18.63-24.6,27.55
		c-23.86,25.12-46.92,50.92-67.57,78.77c-7.64,10.31-16.83,19.94-18.38,34.07c2.86,2.84,3.69,6.37,2.61,10.69
		c-1.93,7.71-2.44,15.76-6.23,23.03c-0.99,1.89-1.12,4.49-0.92,6.69c0.54,5.96,1.37,11.91,2.28,17.83
		c0.62,4.05,2.16,7.92,5.71,10.18c5.7,3.63,8.86,8.66,10.37,15.15C803.61,1393.83,805.27,1396.39,806.99,1400.22z M1372.88,1085.5
		c2.92-1.45,4.6-4.33,6.58-6.81c5.85-7.29,12.87-12,22.58-13.11c8.54-0.98,16.88-3.58,25.36-5.2c4.55-0.87,8.15-2.96,10.54-6.83
		c2.25-3.64,4.71-7.31,6.1-11.3c2.7-7.75,4.72-15.74,7.01-23.59c-7.4-6.04-9.4-13.41-6.14-22.29c5.07-13.8,7.62-28.13,9.59-42.69
		c2.46-18.25,0.68-35.75-6.09-52.86c-3.18-8.03-5.95-16.24-8.67-24.45c-6.28-18.92-13-37.79-15.99-57.56
		c-2.43-16.08-4.61-32.47,5.01-47.48c1.22-1.9,1.83-4.26,2.4-6.49c0.48-1.86,1.01-3.94,0.64-5.74c-1.87-9.11-7.12-15.9-14.85-21.5
		c0,5.07,0.32,9.37-0.05,13.6c-1.95,21.94-6.27,43.44-13.08,64.39c-6.49,19.99-15.19,39.02-25.35,57.4
		c-1.84,3.33-4.57,6.45-4.3,11.17c3.46,0.86,6.58,1.64,9.51,2.37c0.8,7.19,0.76,7.17-0.92,13.05c-9.42,32.93-24.99,62.97-43.1,91.82
		c-1.02,1.63-2.38,3.42-2.46,5.2c-0.61,12.85-2.77,25.89,3.98,38.28c-0.07-0.04,0.21,0.18,0.52,0.26c0.63,0.17,1.29,0.43,1.92,0.37
		c7.93-0.72,11.89,3.47,14.88,10.42c5.27,12.25,10.42,24.45,12.61,37.7C1371.19,1084.16,1371.96,1084.57,1372.88,1085.5z
		 M1843.83,2301c-8.9,0.46-16.45,1.02-24.01,1.18c-7.24,0.15-14.55,0.43-21.72-0.34c-7.42-0.8-14.72-2.79-23.47-4.54
		c1.92,3.22,2.98,5.18,4.21,7.02c5.71,8.57,11.4,17.16,17.25,25.65c3.53,5.12,5.7,10.34,2.03,16.2
		c8.72,7.32,17.44,13.05,29.12,15.28c1.16-3.93,2.58-7.6,3.28-11.4c1.32-7.21,1.54-14.5,0.26-21.79
		c-1.65-9.37,1.67-16.95,8.62-23.16C1840.57,2304.04,1841.74,2302.94,1843.83,2301z M1408.24,275.96
		c0.22-5.56,0.82-11.15,0.49-16.69c-0.14-2.31-1.76-5.03-3.53-6.65c-9.48-8.64-24.24-7.44-32.58,2.97
		c-8.82,11.01-11.75,23.48-7.71,36.93c9.24,4.85,11.13,5.1,22.77,3.34C1391.1,286.21,1398.28,280.88,1408.24,275.96z
		 M1838.68,702.38c-13.81,6.52-21.06,17.78-23.72,31.6c-1.73,8.98,0.93,17.68,8.67,23.69
		C1845.22,751.19,1854.12,719.78,1838.68,702.38z M1734.78,807.13c9.63-7.49,14.01-17.66,15.91-29.05c0.83-4.95,0.21-9.97-2.28-14.5
		c-2.94-5.34-6.72-6.17-11.24-2.09c-11.02,9.95-15.08,22.26-11.75,36.84C1726.46,802.88,1728.86,806.17,1734.78,807.13z
		 M625.66,1076.07c2.39-1.34,5.55-2.02,6.7-3.92c7.57-12.46,9.47-25.66,4.87-39.24c-10.75-2.71-14.48-1.84-17.52,4.99
		C615.12,1048.25,611.69,1065,625.66,1076.07z M1453.36,233.09c7.67,1.81,7.68,1.82,11.96-1.92c4.15-3.61,7.9-8.02,14.64-6.44
		c0.79-2.16,1.81-3.94,2.06-5.82c1.13-8.59-3.31-13.31-12.01-12.74c-6.23,0.41-11.56,3.16-15.6,7.79
		c-3.11,3.58-4.97,7.77-2.72,12.79C1452.61,228.8,1452.87,231.15,1453.36,233.09z M685.65,1125.53c0.67,8.43,0.83,14.79,4.35,20.38
		c3.18,5.05,6.37,5.51,10.35,1.42c6.57-6.75,8.78-22.83,1.31-32.41c-3.55-4.55-9.66-4.46-12.42,0.52
		C687.23,1119.08,686.39,1123.37,685.65,1125.53z M706.45,1575.33c-8.09-10.34-16.93-19.82-21.42-34.55
		c-3.47,12.36-2.56,22.3-0.37,32.43c5.12,2.23,9.94,4.36,14.77,6.42C703.04,1581.17,705.02,1579.45,706.45,1575.33z M899.63,393.05
		c-4.76-10.79-15.81-9.03-25.39-13.68c2.02,4.63,3.33,7.62,4.25,9.73C885.49,394.23,892.65,393.08,899.63,393.05z"/>
</g>
</svg>
