<?xml version="1.0" encoding="utf-8"?>
<!-- Generator: Adobe Illustrator 24.1.1, SVG Export Plug-In . SVG Version: 6.00 Build 0)  -->
<svg version="1.1" id="Layer_1" xmlns="http://www.w3.org/2000/svg" xmlns:xlink="http://www.w3.org/1999/xlink" x="0px" y="0px"
	 viewBox="0 0 171.91 267.32" style="enable-background:new 0 0 171.91 267.32;" xml:space="preserve">
<style type="text/css">
	.st0{fill:#1A1A1A;}
</style>
<g>
	<path d="M69.42,72.14c0.23,0.49-0.03,0.87-0.35,1.06c0.65,1.33-0.48,2.04-0.73,3.07c1.13-0.28,1.66-1.34,2.68-2.01
		c0.02,1.54-0.76,2.58-1.49,3.65c0.49,0.19,1.09-0.28,1.49,0.32c0.17,0.4-0.37,0.55-0.38,0.99c0.64,0.41,1.37,0.64,2.17,0.7
		c0.84,0.06,1.5-0.43,2.23-0.79c0.07,0.77,0.07,0.77-1.37,2.09c1.72,0.48,3.39-0.21,5.06-0.18c-0.01,0.86-0.82,0.89-1.07,1.51
		c1.46,0.05,2.59-0.87,3.91-1.28c-0.08,0.84-0.08,0.84-1.4,2.61c1.37-0.21,2.49-0.91,3.8-1.53c-0.07,1.03-0.78,1.56-0.94,2.32
		c0.42-0.05,0.48-0.62,0.9-0.64c0.43,0.1,0.31,0.52,0.49,0.8c0.48-0.36,0.94-0.74,1.43-1.08c2.89-2.02,6.08-3.31,9.56-3.83
		c7.05-1.04,13.42,0.99,19.42,4.46c4.79,2.77,8.78,6.47,12.31,10.73c3.08,3.72,6.17,7.43,8.95,11.39
		c6.88,9.82,13.03,20.06,18.28,30.84c2.1,4.3,4.76,8.3,7.28,12.37c2.58,4.17,5.23,8.3,7.82,12.47c0.8,1.29,1.47,2.65,2.23,3.96
		c0.26,0.45,0.2,0.92,0.22,1.4c0.04,0.65-0.3,0.95-0.93,0.98c-0.65,0.03-1.25-0.13-1.85-0.39c-1.29-0.56-2.38-1.43-3.45-2.39
		c-0.69,0.9-1.5,0.92-2.48,0.69c-2.16-0.5-4.02-1.5-5.61-3.02c-0.3-0.29-0.59-0.47-1.04-0.48c-3.44-0.04-6.24-1.47-8.45-4.06
		c-0.63-0.74-1.26-1.04-2.25-0.95c-2.83,0.27-5.26-0.61-7.22-2.92c-0.86,5.28-2.78,10.07-4.61,14.88c-0.1,0.26-0.2,0.52-0.3,0.78
		c-0.39,1.1-0.4,1.12,0.65,1.64c4.49,2.24,8.96,4.53,13.61,6.42c1.65,0.67,3.37,1.19,5.07,1.73c0.75,0.24,1.22,0.69,1.55,1.37
		c0.37,0.76,0.58,1.56,0.84,2.36c0.23,0.71-0.12,1.35-0.45,1.93c-0.49,0.87-1.14,1.63-1.99,2.21c-5.36,3.67-10.85,7.14-16.49,10.37
		c-3.32,1.91-6.61,3.87-9.81,5.74c-1,3.36-0.99,6.71-0.9,10.07c0.02,0.78-0.09,1.57-0.51,2.19c-1.03,1.49-1.15,3.21-1.37,4.89
		c-0.31,2.45-0.82,4.87-1.23,7.3c-0.48,2.82-1,5.64-1.46,8.47c-0.58,3.61-1.16,7.23-1.65,10.86c-0.33,2.49-0.46,5.01-0.74,7.5
		c-0.18,1.59,0.9,2.53,1.84,3.42c1.43,1.35,3.21,2.23,5.16,2.6c1.14,0.22,2.31,0.18,3.45,0.01c1.03-0.15,2.05-0.35,3.1-0.16
		c0.12,0.02,0.31-0.04,0.35,0.02c0.59,0.9,1.69,1.09,2.43,1.77c0.85,0.78,0.35,1.79,0.42,2.68c-0.61,0.26-0.84-0.21-1.14-0.5
		c-0.27-0.26-0.53-0.53-0.93-0.28c-0.99,0.62-2.02,0.54-3.16,0.43c-1.78-0.18-3.6-0.07-5.4-0.04c-1.07,0.02-2.12-0.05-3.2,0.18
		c-0.73,0.16-1.55,0.05-2.35-0.12c-2.87-0.61-5.77-0.9-8.68-0.13c-0.34,0.09-0.71,0.05-1.07,0.05c-4.8,0-9.6,0-14.4,0
		c-1.19,0-2.37-0.03-3.56,0.22c-0.85,0.18-1.75-0.24-2.58-0.16c-0.99,0.09-1.94,0.01-2.9-0.04c-0.57-0.03-1.08-0.13-1.56-0.41
		c-0.89,0.45-1.24,1.43-1.95,2.03c-0.96-0.66-0.92-1.59-0.78-2.55c-0.07,0-0.11-0.01-0.15,0c-0.41,0.09-0.37,0.92-0.97,0.64
		c-0.57-0.26-0.34-0.82-0.39-1.28c-0.06-0.54,0.08-1.05,0.47-1.41c1.3-1.22,2.46-2.62,4.24-3.25c1.38-0.49,2.78-0.33,4.14-0.19
		c1.19,0.12,2.38,0.2,3.56,0.15c1.76-0.07,3.49,0.26,5.24,0.26c2.46-0.01,4.89-0.37,7.24-1.06c2.03-0.59,3.56-1.94,4.39-3.91
		c2.45-5.8,4.15-11.85,5.76-17.93c0.98-3.69,1.78-7.43,2.53-11.17c0.29-1.44,0.48-2.91,0.72-4.42c-2.33-0.81-4.63-1.79-7.18-1.72
		c-0.64,4.85-0.55,9.8-0.89,14.73c-0.15,2.2-0.19,4.39-0.25,6.59c-0.05,1.62-0.64,2.96-2.34,3.6c0.1,0.54,0.3,1,0.48,1.47
		c0.24,0.63,0,0.92-0.64,0.82c-1.03-0.15-2.02-1.04-2.24-2.08c-0.1-0.47-0.08-0.98-0.34-1.38c-0.25-0.4-0.45-0.83-0.63-1.3
		c-1.22,0.75-1.68,1.71-1.3,3.04c0.09,0.32,0.05,0.64-0.24,0.87c-0.33,0.27-0.63,0-0.89-0.11c-0.71-0.33-1.04-0.99-1.19-1.7
		c-0.22-1.08-0.44-2.16-0.83-3.2c-0.29-0.79-0.19-1.65-0.06-2.49c0.36-2.36,1.19-4.61,1.67-6.95c0.57-2.74,0.89-5.5,1.12-8.28
		c0.22-2.58,0.34-5.18,0.54-7.76c0.19-2.54,1.62-4.4,3.63-5.89c2.9-2.16,6.19-3.61,9.34-5.34c1.43-0.79,2.89-1.52,4.35-2.26
		c0.4-0.2,0.6-0.45,0.64-0.91c0.22-2.34,0.44-4.68,0.72-7.02c0.39-3.23,0.22-6.46,0.23-9.7c0-0.5,0.09-0.96-0.52-1.31
		c-0.33-0.19-0.37-0.83-0.45-1.3c-0.29-1.89-1.2-3.51-2.24-5.13c-0.22,0.44-0.17,0.92-0.64,1.24c-0.88-0.95-1.81-1.88-3.02-2.44
		c-0.69-0.32-1.41-0.51-2.14-0.69c-6.2-1.56-11.57-4.67-16.38-8.82c-3.49-3.02-6.6-6.37-8.84-10.46c-0.9-1.65-1.65-3.36-2.21-5.15
		c-0.15-0.5-0.39-0.81-0.82-1.09c-3.39-2.18-6.53-4.7-9.61-7.31c-0.48-0.41-1-0.84-1.58-1.07c-5.41-2.12-9.45-5.85-12.59-10.64
		c-0.3-0.46-0.62-0.84-1.23-1.03c-0.67-0.2-0.84-1.02-1.28-1.52c-1.04,0.3-1.04,0.3-1.82-1.17c-0.58,0.36-0.91,0.01-1.18-0.48
		c-0.39-0.71-0.66-1.45-0.65-2.27c0-0.68,0-1.35,0-2.04c-0.45-0.15-0.88,0.43-1.24-0.03c-0.34-0.42-0.24-0.92-0.12-1.38
		c0.17-0.65,0.4-1.3,0.79-1.92c-0.55-0.44-1.32-0.57-1.75-1.19c-0.44-0.62-0.39-0.81,0.42-1.23c-0.91-0.8-2.01-1.44-2.16-2.79
		c0.6-0.41,1.15,0.23,1.69-0.14c-0.26-0.58-0.85-0.82-1.27-1.23c-5.87-5.78-10.85-12.14-13.2-20.22c-1.13-3.9-1.83-7.86-1.59-11.92
		c0.37-6.31,2.1-12.22,5.59-17.56c0.51-0.78,1.11-1.51,1.37-2.47c0.22-0.78,1.16-0.71,1.8-1.03c-0.07-0.81-0.55-1.72,0.57-2.26
		c0.3-0.15,0.09-0.7,0.39-0.95c0.17-0.06,0.33-0.06,0.46,0.04c1.09,0.81,1.08,0.81,2-0.12c2.64-2.68,5.31-5.33,7.57-8.34
		c1.39-1.86,2.64-3.81,3.45-5.99c1.38-3.71,0.08-9.36-3.89-12.16c-1.38-0.97-2.88-1.61-4.49-2.12c-2.79-0.89-5.69-0.98-8.55-1.36
		c-1.07-0.14-2.14-0.19-3.22-0.24c-2.58-0.13-5.07,0.37-7.57,0.85c-4.14,0.79-8.29,1.49-12.42,2.32c-4.48,0.89-8.94,1.87-13.35,3.05
		C4.44,31.72,2.32,32.2,0,32.77c0.64-0.99,1.44-1.5,2.18-2.03c5.57-4.01,11.42-7.59,17.42-10.95c3.13-1.75,6.29-3.45,9.52-5.02
		c0.57-0.28,1.14-0.58,1.65-0.96c0.6-0.44,1.22-0.92,0.92-1.92c0.88-0.02,1.1-0.65,1.25-1.25c0.45-0.29,0.7,0.21,1.09,0.13
		c0.58-0.36,0.87-1,1.28-1.53c3.04-3.96,7-6.53,11.73-8.07c5.49-1.79,10.87-1.38,16.33,0.2c11.11,3.21,20.44,9.37,28.91,17.02
		c2.59,2.34,4.88,4.95,7.22,7.52c0.26,0.28,0.56,0.55,0.55,1.32c-1.19-1.3-2.45-2.16-3.58-3.18c-6.34-5.65-13.12-10.69-20.49-14.93
		c-0.3-0.17-0.58-0.4-0.96-0.42c0.77,1.79,2.42,2.67,3.78,3.83c4.65,3.98,8.61,8.55,11.76,13.81c0.53,0.89,1.13,1.73,1.7,2.59
		c0.39,0.59,0.83,1.16,0.88,1.95c-3.85-4.75-7.81-9.38-12.41-13.69c0.13,0.76,0.47,1.25,0.69,1.77c2.33,5.44,3.53,11.09,3.09,17.01
		c-0.33,4.43-1.6,8.61-4.09,12.35c-0.59,0.89-0.83,1.75-0.53,2.8c0.27,0.96,0.11,1.11-0.87,1.07c-0.06,1.17,0.14,2.4-0.74,3.33
		c-0.48,0.12-0.56-0.32-0.86-0.47c-0.4,0.64-0.39,1.43-0.79,2.07c-0.51,0.82-0.76,0.86-1.59,0.18c-0.6,1.85-1.21,3.67-2.73,5
		c-0.34,0.3-0.27,0.82-0.46,1.21c-0.3,0.61-0.47,1.3-1.04,1.71c-0.38,0.27-0.56,0.55-0.4,0.99c0.19,0.54,0.59,0.41,0.98,0.28
		c0.11-0.03,0.24-0.03,0.4,0.27c-0.36,1.19-1.33,1.92-2.52,2.45c0.67,0.98,1.72,0.81,2.81,0.88C71.35,71.11,70.41,71.6,69.42,72.14z
		 M127.48,198.33c6.15-3.49,11.97-7.04,17.69-10.73c0.93-0.6,1.88-1.22,2.63-2.07c0.85-0.98,0.76-1.35-0.41-1.96
		c-3.07-1.6-6.21-3.06-9.4-4.4c-2.08-0.87-4.15-1.77-6.3-2.48c-0.41,1.83,0.24,3.63,0.09,5.36c-0.75,0.17-0.91-0.52-1.59-0.56
		C129.16,187.02,128.42,192.6,127.48,198.33z M111.2,214.09c2.4,2.05,5.17,2.13,7.91,2.74c0-0.41,0.03-0.57,0-0.72
		c-0.49-2.13-0.04-4.05,1.07-5.92c0.36-0.6,0.76-1.39,0.49-2.37C117.62,210.02,114.08,211.31,111.2,214.09z"/>
</g>
<g>
	<path class="st0" d="M144.67,140.49c2.84,4.83,5.73,9.62,8.34,14.74c-2.91,0.15-5.7,0.44-8.18-1.37c-1.37-1-2.33-2.33-3.2-3.74
		c-1.8-2.91-3.37-5.93-4.88-8.99c-0.12-0.24-0.16-0.55-0.63-0.69c0.83,2.31,1.94,4.39,3.03,6.49c1.1,2.11,2.25,4.17,3.79,6.2
		c-3.5-0.48-6.61-1.46-9.51-3.07c-1.93-1.07-3.11-2.85-4.24-4.64c-1.4-2.23-2.6-4.57-3.72-6.95c-0.56-1.2-0.97-2.47-1.88-3.53
		c0.19,2.43,5.68,12.52,7.87,14.48c-1.91,0.48-3.86,0.43-5.77,0.3c-1.78-0.12-3.38-0.95-4.85-1.96c-2.82-1.94-4.2-4.94-5.55-7.9
		c-0.88-1.92-1.68-3.87-2.29-5.9c-0.09-0.3-0.23-0.65-0.55-0.88c0.03,2.67,3.62,10.45,6.27,13.63c-4.08,0.69-9.43-0.53-12.34-3.49
		c-3.13-3.18-4.9-6.96-5.99-11.16c-0.17-0.67-0.23-1.39-0.88-1.85c0.95,4.89,2.34,9.58,6.22,13.29c-3.13-0.44-5.78-1.58-8.24-3.24
		c-3.58-2.42-6.23-5.56-7.78-9.64c-0.59-1.57-1.24-3.12-1.83-4.69c-0.06-0.16-0.19-0.25-0.5-0.42c1.28,4.49,2.58,8.8,5.92,12.21
		c-0.97-0.49-1.97-0.93-2.91-1.49c-2.5-1.47-5.08-2.83-7.28-4.73c-1.98-1.71-3.89-3.5-5.28-5.76c-1.5-2.44-2.29-5.09-2.67-7.94
		c-0.65-4.91,0.31-9.54,2.04-14.08c0.82-2.16,1.82-4.24,2.8-6.33c0.3-0.65,0.54-1.3,0.47-2.04c-0.16-1.8,0.19-3.56,0.77-5.22
		c0.39-1.12,1.27-2.04,1.98-3.02c2.11-2.89,5.13-4.46,8.36-5.64c1.83-0.67,3.77-1,5.76-1.11c4.94-0.28,9.54,0.87,13.96,2.94
		c3.28,1.54,6.27,3.52,9.05,5.85c1.75,1.46,3.4,3.04,4.87,4.74c1.57,1.81,3.1,3.68,4.67,5.49c3.49,4.02,6.44,8.42,9.37,12.83
		c2.45,3.68,4.75,7.46,6.96,11.3c2.59,4.49,5.04,9.04,7.29,13.71c1.92,3.98,3.67,8.04,5.2,12.19c0.3,0.81,0.63,1.6,0.92,2.41
		c0.78,2.18,0.03,3.01-2.05,3.62c-0.82,0.24-1.74,0.12-2.62,0.01c-1.04-0.14-1.6-0.79-2.04-1.7c-1.5-3.07-3.17-6.04-4.98-8.93
		C146.96,143.3,146,141.76,144.67,140.49z M89.34,99.86c-0.54,1.47,0.42,2.64,0.7,3.98c-3.81-2.02-5.41-5.24-5.46-9.4
		c-0.43,1.5-0.33,2.93,0.17,4.35c0.88,2.5,2.59,4.23,4.96,5.32c0.61,0.28,1.06,0.63,1.37,1.2c0.54,1,1.49,1.64,2.23,2.46
		c0.22,0.24,0.46,0.29,0.84,0.1C91.72,105.7,89.97,103.13,89.34,99.86z M93.83,104.41c0.19,1.78,1.08,3.08,2.45,4.08
		c1.4,1.01,2.99,1.31,4.69,1.22c0.49-0.02,1.04-0.21,1.47,0.24c0.64,0.68,1.56,0.9,2.34,1.33c0.62,0.34,1.87,0.5,2.51,0.42
		c-1.63-0.64-3.21-1.13-4.52-2.15c-1.3-1.01-2.11-2.44-3.05-3.77c-0.02,1.5,1.25,2.36,1.79,3.62
		C97.83,109.41,95.22,107.9,93.83,104.41z M84.67,100.25c-2.4-2.57-3.21-5.58-2.37-9.21C80.56,92.86,81.37,98.45,84.67,100.25z
		 M120.59,114.77c-2.27-0.65-3.3-2.55-4.4-4.37c0.12,1.95,2.46,4.61,4.27,4.78c0.8,0.07,1.42,0.37,2.06,0.75
		c0.06,0.04,0.19-0.04,0.33-0.08c-1.1-0.74-1.75-1.87-2.66-2.77C119.78,113.81,120.81,114.05,120.59,114.77z M110.08,109.1
		c0.2,2.37,4.08,4.66,6.61,3.83C113.78,112.57,111.46,111.61,110.08,109.1z M110.32,112.42c-2.34-0.88-3.91-2.5-4.75-4.84
		C105.36,109.92,107.89,112.46,110.32,112.42z M123.34,114.67c0.37,1.02,0.85,1.6,1.79,2.07
		C124.61,115.87,124.19,115.23,123.34,114.67z"/>
	<path class="st0" d="M112.52,249.88c0.49-0.01,0.8,0.53,1.41,0.4c-0.33-0.44-0.85-0.48-1.23-0.77c-0.25-0.56,0.18-1.02,0.31-1.75
		c1.78,1.28,3.86,1,5.85,1.37c-0.32,2.35-0.49,4.58-0.51,6.83c-0.01,1.14,0.42,2,1.12,2.75c1.42,1.51,3.02,2.73,5.13,3.15
		c0.8,0.16,1.24,0.78,1.53,1.54c0.41-0.37-0.16-0.64-0.01-0.98c0.81-0.33,1.34,0.04,1.73,0.73c0.27-0.26,0-0.53,0.04-0.84
		c1.31,0.17,2.58-0.36,3.9-0.24c0.36,0.03,0.7,0.03,0.97,0.34c0.44,0.52,0.94,0.82,1.69,0.94c0.75,0.12,0.77,0.97,0.7,1.78
		c-0.87-0.48-1.61-0.33-2.54-0.06c-1.29,0.37-2.76,0.28-4.14,0c-1.03-0.21-2.14-0.32-3.07-0.03c-0.96,0.3-1.83-0.24-2.75,0.13
		c-1.76,0.71-3.48-0.04-5.2-0.34c-1.83-0.31-3.66-0.24-5.49-0.02c-1.05,0.12-2.11,0.36-3.16,0.36c-7.36,0.03-14.71,0.02-22.07,0.02
		c-0.36,0-0.81,0.11-1.06-0.07c-1-0.71-1.57-0.09-2.2,0.55c-0.21,0.22-0.37,0.52-0.78,0.59c-0.06-1-0.37-2.15,0.6-2.73
		c0.92-0.55,1.55-1.38,2.39-1.96c0.94-0.65,2.03-0.52,3.09-0.4c0.15,0.02,0.3,0.17,0.44,0.15c1.29-0.16,2.32,0.12,2.61,1.7
		c0.34-0.57,0-0.91-0.04-1.39c1.06,0.07,2.24-0.58,2.91,0.85c0.35-0.3-0.2-0.57,0.11-0.9c2.37,0.05,4.81-0.06,7.27-0.48
		c0.59,0.42,0.67,1.18,1.07,1.8c0.4-0.78-0.36-1.18-0.48-1.81c1.05-0.47,2.26-0.5,3.45-1.14c-1.13-0.17-2.01,0.33-2.92,0.49
		c-1.05,0.18-2.09,0.31-3.14,0.45c-2.22,0.28-4.45,0.19-6.67,0.21c-1.78,0.02-3.54-0.2-5.3-0.46c-1.22-0.18-2.3,0.12-3.27,1.01
		c-1.16,1.08-2.45,2.01-3.73,3.04c-0.38-1.08,0.23-1.77,0.84-2.22c0.98-0.72,1.68-1.79,2.88-2.23c1.15-0.43,2.29-0.87,3.53-0.38
		c0.11,0.04,0.24,0.03,0.35,0.04c3.9,0.21,7.81,0.47,11.7,0.19c2.54-0.18,5.15-0.46,7.37-2.07c1.22-0.89,2.13-1.98,2.69-3.36
		c0.62-1.52,1.2-3.05,1.82-4.57C112.29,250.01,112.43,249.95,112.52,249.88z"/>
	<path class="st0" d="M108.01,246.01c-1.31-0.05-1.56-0.96-1.85-1.81c-0.06-0.18,0.05-0.45-0.04-0.59c-1.3-1.97-0.29-3.94-0.04-5.92
		c0.11-0.82,0.35-1.6,0.37-2.46c0.69,0,1.28,0.42,1.91,0.13c-0.12-0.22-0.34-0.12-0.51-0.17c-1.33-0.39-1.22-0.4-1.07-1.81
		c0.13-1.17,0.33-2.35,0.33-3.54c0-0.83-0.07-1.66,0.21-2.47c0.12-0.35-0.06-0.82,0.52-0.88c-0.25-0.23-0.46-0.39-0.53-0.82
		c-0.18-1.18-0.22-2.36-0.22-3.55c-0.34,0.07-0.47,0.23-0.47,0.51c0.04,3.09-0.73,6.08-1.18,9.11c-0.34,2.31-0.66,4.63-0.51,6.98
		c0.07,1.11-0.29,2.17-1.06,2.91c-0.91,0.86-1.22,1.81-1.09,2.98c0.02,0.16,0,0.32,0,0.49c-0.99-0.49-1.54-1.52-1.32-2.64
		c0.05-0.26,0.1-0.44-0.09-0.62c-0.77-0.74-0.79-1.67-0.71-2.64c0.52-0.05,0.91,0.56,1.54,0.21c-0.85-0.27-1.66-0.55-1.24-1.69
		c0.82,0.25,1.6,0.81,2.56,0.56c-0.18-0.37-0.6-0.27-0.85-0.34c-2.07-0.55-1.65-0.61-1.27-2.25c0.4-1.74,0.9-3.47,1.29-5.27
		c0.77,0.13,1.53,0.41,2.33,0.14c-2.37-0.45-2.32-0.44-1.82-2.92c0.22-1.08,0.26-2.2,0.3-3.3c0.03-0.83,0.11-1.65,0.23-2.47
		c0.11-0.78,0.02-1.59,0.02-2.51c0.85,0.34,1.62,0.26,2.39,0.18c-0.41-0.24-0.86-0.1-1.29-0.16c-0.93-0.14-1.21-0.54-0.96-1.45
		c0.2-0.74,0-1.49,0.14-2.22c0.52-0.08,0.3,0.51,0.66,0.62c-0.02-0.64,0.06-1.23-0.14-1.87c-0.37-1.14,0.46-1.97,1.05-2.74
		c0.59-0.77,1.4-1.41,2.21-1.96c0.33-0.23,0.87-0.33,1.39-0.02c0.27,0.16,0.46,0.58,0.94,0.47c-0.25-0.58-0.7-0.86-1.34-1.01
		c0.84-0.9,2-1.17,2.95-1.77c0.29-0.18,0.79-0.11,1.08,0.27c0.32,0.41,0.76,0.69,1.02,1.16c1,1.78,1.01,1.77-0.66,2.9
		c-0.32,0.22-0.63,0.47-0.98,0.66c-0.82,0.43-1.29,1.11-1.48,2.06c0.67,0.5,1.3,1.09,2.11,1.42c0.7,0.29,1.33,0.67,1.54,1.49
		c0.28-0.27,0.05-0.61,0.36-0.86c0.44,0.29,1.16,0.09,1.32,0.76c1.03-0.72,1.98,0.27,3.02-0.08c0.02,1.22,0.2,2.32-0.4,3.48
		c-2.39-1.38-5.14-1.42-7.77-2.06c0.28,2.65-0.51,5.37-0.53,8.16c-0.01,1.53,0.01,3.1-0.18,4.63c-0.32,2.58-0.03,5.18-0.28,7.75
		c-0.13,1.31,0.18,2.8-0.87,3.95c-0.18,0.2-0.31,0.4-0.57,0.55c-1.05,0.59-1.11,0.82-0.64,1.96
		C107.88,245.7,107.92,245.8,108.01,246.01z M107.16,232.93c0.34,0.52,0.78,0.37,1.21,0.24
		C107.96,233.19,107.71,232.63,107.16,232.93z"/>
	<path class="st0" d="M36.24,21.32c1.63-0.26,3.16-0.89,4.79-1.29c-1.47,1.3-2.99,2.55-3.83,4.33c-8.81,1.7-17.65,3.09-26.38,5.1
		c4.56-1.64,9.22-2.93,13.74-4.68c-3.87,0.9-7.64,2.14-11.42,3.36c-3.82,1.23-7.61,2.54-11.55,3.86c1.46-1.52,9.46-6.67,14.51-9.56
		c5.03-2.88,10.21-5.5,15.29-8.39c0.43,2.3,2.15,3.45,4.08,4.36c1.35,0.64,2.89,0.62,4.33,1.01c0.52,0.14,1.03-0.45,1.63-0.12
		C39.77,20.17,37.92,20.52,36.24,21.32z M35.28,21.75c-0.66-0.32-1.01,0.09-1.51,0.21C34.35,22.28,34.7,21.84,35.28,21.75z"/>
	<path class="st0" d="M171.38,167.93c-1.65,0.36-2.86-0.49-3.88-1.39c-2.65-2.33-4.85-5.08-6.9-7.95c-0.66-0.92-1.5-1.71-2.08-2.68
		c0.12-0.33,0.44-0.34,0.66-0.51c1.34-1.04,1.57-1.76,0.98-3.46c-0.88-2.5-1.7-5.03-2.78-7.46c-0.09-0.2-0.13-0.36-0.01-0.62
		c1.5,2.46,2.98,4.88,4.45,7.3c1.64,2.71,3.28,5.42,5.03,8.06c1.54,2.32,2.92,4.73,4.35,7.11
		C171.48,166.82,171.43,167.32,171.38,167.93z"/>
	<path class="st0" d="M152.06,155.91c0.71-0.45,1.38-0.41,2.08-0.14c0.95,0.37,1.95,0.26,2.94,0.23c0.66-0.02,1.01,0.26,1.43,0.79
		c2.09,2.61,3.98,5.37,6.27,7.81c0.25,0.26,0.57,0.52,0.33,0.91c-0.21,0.34-0.49,0.61-0.96,0.58c-0.95-0.05-1.86-0.33-2.69-0.73
		c-1.97-0.93-3.61-2.28-5.02-3.99c-1.2-1.45-2.46-2.87-3.58-4.39C152.59,156.65,152.34,156.3,152.06,155.91z"/>
	<path class="st0" d="M145.62,155.29c2.01,0.44,3.74,0.87,5.51,0.66c0.37-0.04,0.55,0.06,0.68,0.26c1.31,2.11,3,3.93,4.48,5.91
		c0.06,0.09,0.09,0.2,0.16,0.38C151.43,162.26,148.59,158.89,145.62,155.29z"/>
	<path class="st0" d="M138.78,152.92c1.07-0.06,1.85,0.4,2.7,0.52c0.37,0.05,0.76,0.2,1.15,0.17c0.78-0.06,1.41,0.23,1.87,0.83
		c0.74,0.95,1.43,1.93,2.18,2.95c-2.03,0.23-3.83-0.01-5.54-0.88c-0.99-0.5-1.63-1.37-2.41-2.1
		C138.2,153.89,138.92,153.47,138.78,152.92z"/>
</g>
</svg>
