<?xml version="1.0" encoding="utf-8"?>
<!-- Generator: Adobe Illustrator 24.1.2, SVG Export Plug-In . SVG Version: 6.00 Build 0)  -->
<svg version="1.1" id="Layer_1" xmlns="http://www.w3.org/2000/svg" xmlns:xlink="http://www.w3.org/1999/xlink" x="0px" y="0px"
	 width="415.92" height="280.89" viewBox="0 0 415.92 280.89" style="enable-background:new 0 0 415.92 280.89;" xml:space="preserve">
<style type="text/css">
	.st0{fill:#1A1A1A;}
</style>
<g>
	<path d="M334.5,174.99c1.79-0.97,1.32-3.33,2.63-4.51c0.74,0.1,0.88,0.56,0.94,1.04c0.14,1.29,0.03,2.54-0.59,3.73
		c-1.36,2.62-2.35,5.43-4.29,7.98c3.95,1.76,6.45,5.07,9.44,7.85c0.09-0.2,0.16-0.29,0.15-0.35c-0.93-3.13-1.57-6.34-2.26-9.53
		c-0.31-1.41-0.63-2.81-0.64-4.24c-0.02-2.22-0.22-4.44,0.12-6.66c0.02-0.16,0-0.32,0.04-0.48c0.5-2.06,2.57-2.46,3.9-3.65
		c0.89-0.79,2-0.34,2.94,0.12c1.74,0.86,3.16,2.17,4.49,3.55c1.89,1.96,3.49,4.17,5.13,6.34c0.32,0.43,0.51,1.01,1.15,1.18
		c0.36-0.63,0.02-1.2-0.11-1.79c-0.47-2.1-0.97-4.2-1.16-6.36c-0.08-0.89,0.01-1.74,0.34-2.58c0.24-0.62,0.4-1.24,1.24-1.18
		c0.47,0.03,0.69-0.3,0.93-0.63c0.37-0.49,0.91-0.6,1.49-0.61c0.48-0.01,0.99,0.07,1.43-0.08c1.22-0.41,2.17,0.08,3.11,0.76
		c1.29,0.93,2.44,2.03,3.87,3.46c-0.19-1.4-0.35-2.38-0.43-3.37c-0.07-0.82-0.01-1.61,0.89-2.05c0.2-0.1,0.35-0.32,0.51-0.5
		c2.32-2.54,5.3-2.94,8.12-1c3.85,2.65,7.24,5.81,10.1,9.5c3.82,4.93,6.54,10.43,7.89,16.53c0.59,2.65,0.88,5.36,1.21,8.05
		c0.19,1.54-0.32,3.01-0.83,4.44c-0.42,1.19-1.17,1.63-2.42,1.46c-2.11-0.28-4.04-0.98-5.51-2.61c-0.43-0.47-0.84-0.95-1.36-1.55
		c-0.47,0.79-0.11,1.26,0.03,1.73c0.62,2.07,1.16,4.15,1.53,6.29c0.37,2.2-0.19,4.11-1.65,5.78c-0.43,0.49-0.9,0.91-1.53,1.11
		c-0.73,0.24-1.59,0-2.2,0.72c-0.12,0.14-0.6,0.04-0.9-0.04c-0.76-0.19-1.46-0.49-2.31-0.41c-0.81,0.08-1.43-0.63-2.03-1.14
		c-1.96-1.66-3.65-3.58-5.23-5.6c-0.83-1.07-1.67-2.12-2.72-3.46c-0.04,1.38,0.38,2.33,0.62,3.29c1.02,3.96,1.74,7.97,1.8,12.07
		c0.02,1.73,0.22,3.51-0.79,5.41c-0.15-1.2-0.27-2.12-0.43-3.42c-1.42,6.84-6.73,7.83-11.82,5.61c-1.18,1.45-2.72,2.05-4.62,1.39
		c-0.66-0.23-1.24,0.04-1.83,0.33c-1.36,0.67-2.75,1.3-4.11,1.97c-5,2.47-10.31,3.35-15.84,2.97c-1.69-0.12-3.33,0.02-5,0.33
		c-3.7,0.69-7.44,1.06-11.19,1.24c-1.52,0.07-3.03,0.25-4.54,0.39c-7.27,0.67-14.54,0.72-21.8-0.1c-7.61-0.87-14.91-2.79-21.69-7.02
		c-0.1,1.49,0.34,2.73,0.57,3.99c0.11,0.57,0.28,1.1-0.49,1.52c-1.06-0.39-1.34-1.64-2.2-2.3c-0.81-0.63-1.55-1.35-2.55-2.23
		c-0.09,1.79,0.41,3.18,0.78,4.58c0.27,1,0.64,1.98,0.97,2.96c0.14,0.42,0.06,0.82-0.24,1.11c-0.39,0.39-0.89,0.35-1.33,0.1
		c-0.55-0.31-1.08-0.69-1.59-1.07c-4.14-3.04-7.3-6.92-9.63-11.47c-1.06-2.06-2.06-4.15-3.02-6.26c-0.86-1.88-0.82-1.89-2.9-3.73
		c-0.11,0.21-0.26,0.39-0.3,0.59c-0.69,4.18-1.64,8.31-2.13,12.53c-0.65,5.64-1.48,11.25-2.23,16.88c-0.41,3.09-0.8,6.18-1.22,9.27
		c-0.34,2.54-0.79,5.06-1.82,7.36c0,0.8,1.05,1.1,0.75,1.97c-0.25,0.72-0.72,1.24-1.27,1.7c-1.32,1.12-2.94,1.63-4.57,2.02
		c-2.48,0.6-5.03,0.84-7.5,1.55c-1.07,0.31-2.22,0.25-3.34,0.16c-0.54-0.05-1.1-0.26-1.77,0.18c-0.35,1.58-0.77,3.28-1.08,4.99
		c-0.54,3.06-2.3,4.85-5.38,5.16c-1.42,0.15-2.89,0.19-4.31,0.05c-2.53-0.26-4.9-0.07-7.15,1.26c-1.16,0.68-2.43,1.23-3.84,1.25
		c-1.94,0.03-2.59-0.83-1.88-2.68c0.25-0.67,0.05-1.03-0.38-1.44c-0.77,0-1.28,0.59-1.92,0.88c-0.81,0.36-1.61,0.71-2.51,0.75
		c-1.44,0.07-2.11-0.9-1.44-2.14c0.23-0.42,0.53-0.8,0.86-1.14c0.84-0.86,1.61-1.83,2.59-2.49c1.39-0.95,1.8-2.34,1.62-3.73
		c-0.13-1,0.18-1.69,0.56-2.44c1.82-3.56,3.65-7.11,5.49-10.66c2.76-5.33,5.21-10.79,7.54-16.32c1.68-3.97,3.56-7.86,4.94-11.96
		c0.84-2.51,1.61-5.02,2.09-7.62c0.43-2.34,0.03-4.41-1.74-6.18c-0.96-0.96-1.79-2.05-2.87-2.88c-0.51-0.39-0.87-1.13-1.81-0.64
		c-0.35,0.18-0.81-0.43-1.12-0.78c-3.01-3.42-6.66-6.2-9.57-9.74c-1.95-2.38-3.56-4.83-4.53-7.8c-0.85-2.57-1.88-5.05-2.15-7.77
		c-0.5-5.03-0.61-10.06-0.36-15.1c0.29-6.08,1.09-12.1,2.21-18.07c0.53-2.82,1.27-5.61,1.93-8.48c-0.5-0.56-1.1-1.1-1.54-1.74
		c-0.58-0.85-1.22-1.74-0.86-2.87c0.19-0.6-0.09-1.05-0.3-1.58c-0.68-1.71-0.35-2.09,1.8-2.14c0.97-5.31,2.03-10.63,2.88-15.99
		c0.52-3.25-0.42-6.35-1.66-9.33c-1.82-4.37-4.42-8.32-6.91-12.32c-0.13-0.2-0.24-0.52-0.42-0.56c-1.67-0.44-1.95-2.21-3.07-3.2
		c-0.8-0.72-0.92-2.04-0.92-3.16c0.01-5.1-0.59-10.24,0.71-15.29c0.04-0.15,0.03-0.32,0.04-0.49c-0.59-0.54-1.36-0.31-2.04-0.41
		c-3.43-0.5-5.49-2.71-7.01-5.6c-0.25-0.48-0.18-0.95,0.21-1.31c0.31-0.29,0.72-0.33,1.12-0.2c0.15,0.05,0.29,0.13,0.44,0.19
		c2.4,0.88,3.39,0.65,5.05-1.22c0.42-0.48,0.8-1,1.16-1.52c1.01-1.43,2.06-2.82,3.52-3.92c-1.68-2.5-3.11-4.95-3.17-7.81
		c0.79-0.7,1.64-0.22,2.25-0.72c-0.08-0.35-0.16-0.73-0.27-1.26c2-1.38,4.54-1.75,6.68-3.09c-1.35-1.69-3.14-2.99-3.11-5.16
		c-0.62-0.63-1.28-0.67-1.89-0.82c-6.2-1.5-9.79-5.68-11.8-11.47c-0.28-0.8-0.13-1.52,0.56-2.17c0.69-0.65,1.25-1.45,1.87-2.18
		c0.31-0.36,0.61-0.76,0.98-1.05c6.44-5.13,13.64-8.6,21.87-9.56c1.66-0.19,2.66-0.78,3.27-2.25c0.27-0.66,0.62-1.29,0.92-1.93
		c0.78-0.25,1.54-0.42,2.35,0.11c0.23-0.16,0.5-0.32,0.74-0.52c3.36-2.82,7.19-4.76,11.38-5.98c3.91-1.14,7.69-2.7,11.68-3.59
		c0.95-0.21,1.89-0.35,2.85-0.31c1.29,0.06,1.71,0.88,0.97,1.91c-0.47,0.65-1.05,1.2-1.57,1.81c-1.22,1.45-2.63,2.74-3.75,4.73
		c6.35-0.81,12.36-2.41,18.54-1.47c0.53,0.74,0.17,1.4-0.24,1.98c-4.56,6.4-9.27,12.66-16.01,17.01c-2.23,1.44-4.63,2.51-7.22,3.15
		c-0.53,0.13-1.14,0.04-1.58,0.48c-0.21,0.77,0.45,0.87,0.89,1.18c1.12,0.79,1.2,1.19,0.43,2.34c-0.4,0.59-0.91,1.11-1.04,1.83
		c-0.01,0.58,0.47,0.84,0.72,1.23c0.29,0.43,0.49,1,0.14,1.33c-1.16,1.08,0.04,2.26-0.21,3.37c-0.06,0.25,0.38,0.7,0.69,0.92
		c0.65,0.45,1.33,0.91,2.06,1.2c1.96,0.77,3.34,0.36,4.68-1.27c0.35-0.42,0.47-1.04,1.11-1.26c0.71,0.08,0.83,0.59,0.75,1.2
		c-0.1,0.76-0.55,1.47-0.3,2.43c1.43-0.8,2.44-1.9,3.41-3.07c0.93-1.13,1.62-2.46,2.93-3.97c0.55,4,0.78,7.36-0.82,10.52
		c0.39,0.68,1.34,0.31,1.54,1.06c0.21,0.78,0.38,1.53,0.04,2.34c-0.59,1.38-1.12,2.78-1.62,4.03c0.24,0.54,0.56,0.59,0.88,0.62
		c0.58,0.06,1.17,0.14,1.26,0.85c0.09,0.65-0.43,0.98-0.89,1.31c-0.45,0.32-0.91,0.64-1.45,1.02c1.62,2.37-0.73,3.13-1.86,4.52
		c0.53,0.76,1.13,1.49,1.6,2.3c0.88,1.53,0.61,2.07-1.11,2.46c-0.23,0.05-0.47,0.08-0.69,0.11c-1.19,2.15-1.19,2.15-3.09,1.56
		c-0.35,3.02-2.05,5.58-2.69,8.54c-0.52,2.42-1.98,4.53-3.01,6.78c-0.5,1.1-0.88,2.22-1.13,3.4c-0.69,3.28-1.33,6.58-2.96,9.58
		c-0.26,0.49-0.4,1.04-0.59,1.57c-0.32,0.9-0.2,1.65,0.47,2.42c0.69,0.79,1.16,1.71,2.3,2.06c0.55,0.17,0.97,0.8,1.44,1.23
		c0.58,0.54,1.14,1.09,1.6,1.53c0.49,0.04,0.5-0.28,0.67-0.41c0.77-0.6,1.28-0.55,1.77,0.15c0.38,0.54,0.53,1.14,0.58,1.8
		c0.04,0.52-0.22,1.11,0.33,1.68c2.31-1.34,4.26-3.2,6.37-4.91c0.53,1.64,0.53,1.64-0.84,5.95c0.52,0.45,1.05,0.1,1.57,0
		c2.47-0.45,4.92-0.47,7.35,0.29c1.29,0.41,2.58,0.87,3.94,1.02c0.16,0.02,0.31,0.06,0.46,0.12c0.39,0.15,0.72,0.39,0.76,0.84
		c0.03,0.45-0.25,0.77-0.65,0.89c-1.15,0.35-2.31,0.64-3.46,0.98c-0.9,0.26-1.87,0.32-2.68,0.83c0.07,0.25,0.07,0.45,0.16,0.51
		c4.37,2.97,7.21,7.19,9.67,11.73c2.36,4.37,4.3,8.93,6.32,13.45c2.52,5.65,5.54,10.99,9.62,15.68c5.84,6.7,12.76,11.83,21.33,14.52
		c3.6,1.13,7.29,1.81,11.03,2.22c3.58,0.39,7.17,0.62,10.75,0.95c1.68,0.15,3.35,0.03,5-0.22c2.36-0.36,4.41-1.39,6.02-3.19
		c2.04-2.28,3.66-4.84,5.05-7.56c0.22-0.43,0.37-0.88,0.61-1.3c0.16-0.27,0.42-0.5,0.77-0.5c0.46,0,0.76,0.3,0.88,0.69
		c0.14,0.45,0.22,0.94,0.23,1.41c0.08,3.36,0.22,6.72-0.65,10.02C334.39,174.64,334.47,174.81,334.5,174.99z M354.62,216.24
		c0.01,1.72-0.62,2.89-2.49,3.18c-0.48,0.07-1.03,0.29-1.33,0.9c1.59,1.77,3.51,2.6,5.96,2.64c-0.76-2.33-1.47-4.49-2.17-6.66
		c-1.27-1.98-1.88-4.34-3.41-6.21c-1.08,0.41-2.03,0.84-3.01,1.13c-0.94,0.28-1.92,0.44-2.94,0.67
		C347.59,215.31,350.49,217.14,354.62,216.24z M370.18,191.32c0.83,0.09,1.38,0.16,1.92,0.2c0.72,0.06,1.21,0.44,1.39,1.12
		c0.22,0.84-0.47,1.06-1.03,1.37c-0.1,0.06-0.11,0.25-0.22,0.5c2.01,2.82,3.86,5.85,6.77,8.03c0.03-0.44-0.07-0.82-0.22-1.16
		c-2.02-4.6-4.2-9.13-6.61-13.53c-2.76-5.03-5.73-9.95-8.64-14.9c-0.55-0.93-1.21-1.83-2.25-2.51c-0.1,0.38-0.22,0.6-0.2,0.8
		c0.26,2.47,0.64,4.94,1.82,7.14C365.26,182.72,367.74,187,370.18,191.32z M376.33,168.19c0.66,2.53,0.77,4.68,1.81,6.61
		c2.77,5.15,5.95,10.04,9.33,14.8c0.23,0.33,0.43,0.68,1.02,0.84c-0.12-1.42-0.69-2.65-1.17-3.88c-2.07-5.22-4.45-10.26-8.24-14.51
		c-0.25-0.28-0.5-0.6-0.51-1.05C378.55,169.7,377.53,169.2,376.33,168.19z M349.37,183.66c-0.37,0.83-0.18,1.38-0.06,1.91
		c0.95,4.22,2.27,8.31,3.75,12.37c0.77,2.1,2.19,2.65,4.32,2.98C355.42,194.72,353.21,188.96,349.37,183.66z M357.15,206.39
		c0.53,1.05,1.05,2.03,1.51,3.03c0.47,1.02,1.17,1.85,1.92,2.75c0.19-0.32,0.43-0.54,0.4-0.73c-0.16-1.09-0.33-2.19-0.61-3.26
		c-0.3-1.14-0.62-2.29-1.44-3.27C358.22,205.18,357.6,205.49,357.15,206.39z"/>
	<path d="M415.92,158.78c-2.57,5.72-5.59,10.88-10.18,15.24c-1.31-1.41-2.92-1.3-4.51-1.28c-1.67,0.02-3.33-0.05-5-0.32
		c-1.5-0.24-3.08-0.58-4.47,0.19c-0.53-0.47-0.45-0.88-0.12-1.14c2.43-1.87,3.06-4.54,3.39-7.38c0.09-0.77-0.05-1.61,0.41-2.27
		C401.98,158.88,408.85,158.61,415.92,158.78z"/>
	<path d="M404.24,175.04c-0.3,1.49-0.47,2.58-0.74,3.65c-0.31,1.21-1.09,1.91-2.39,1.88c-1.25-0.03-2.53,0.25-3.76-0.38
		c-0.36-1.87-0.72-3.72-1.11-5.7C399.05,173.69,401.49,174.76,404.24,175.04z"/>
	<path d="M387.09,166.17c0-1.17-0.08-2.12,0.02-3.05c0.13-1.28,1.24-2.17,2.47-2.13c1.53,0.04,3.32,1.38,3.83,2.86
		c0.66,1.92-0.44,3.46-2.46,3.24C389.71,166.95,388.5,166.51,387.09,166.17z"/>
	<path d="M399.33,200.55c-0.51-0.97-0.53-1.91-0.7-2.8c2.19-1.49,2.69-1.28,4.06,1.66C401.84,200.55,400.5,200.18,399.33,200.55z"/>
	<path d="M379.74,217.47c0.15,0.05,0.42,0.06,0.58,0.2c0.36,0.3,0.64,0.68,0.98,1c0.46,0.43,0.66,0.92,0.24,1.45
		c-0.37,0.47-0.88,0.61-1.48,0.4c-0.63-0.22-1.08-0.64-1.36-1.23C378.37,218.58,378.9,217.58,379.74,217.47z"/>
	<path d="M408.07,179.84c-0.4,0.82-0.99,0.98-1.63,1.06c-0.94,0.11-1.45-0.57-1.16-1.49c0.15-0.48,0.48-0.79,0.88-1.05
		c0.72-0.47,1.25-0.31,1.65,0.53C407.94,179.16,407.98,179.48,408.07,179.84z"/>
	<path d="M391.99,158.66c-0.86,0.05-1.68-0.53-1.7-1.29c-0.02-0.57,0.37-0.83,0.92-0.83c1.04,0,1.73,0.49,1.72,1.22
		C392.91,158.22,392.48,158.63,391.99,158.66z"/>
	<path d="M381.58,158.09c0.11-0.41,0.32-0.73,0.79-0.73c0.75,0,1.36,0.65,1.28,1.37c-0.04,0.37-0.3,0.57-0.62,0.61
		C382.33,159.42,381.59,158.75,381.58,158.09z"/>
	<path class="st0" d="M238.84,57.78c-1.18,1.53-2.69,2.41-4.68,2.32c-1.19-0.05-2.38-0.13-3.66-0.2c-0.22,1.96,1.38,3.55,0.96,5.7
		c-1.2-1.37-2.22-2.48-2.34-4.24c-0.1-1.58-1.27-2.44-2.72-3.08c-0.33,1.14,0.35,1.95,0.65,2.81c0.37,1.04,0.39,2.04,0.06,3.05
		c-1.03,3.17-2.81,5.89-5.04,8.33c-0.09,0.09-0.26,0.11-0.69,0.28c1.34-3.42,2.85-6.56,3.89-9.9c-1.01-0.02-0.94,0.89-1.3,1.36
		c-0.48,0.63-0.77,1.39-1.13,2.1c-0.33,0.64-0.65,1.27-0.96,1.92c-0.34,0.72-0.63,1.47-0.98,2.18c-0.31,0.63-0.66,1.23-1.19,2.19
		c0-1.54-0.17-2.67,0.04-3.73c0.3-1.47,0.22-2.84-0.3-4.22c-0.68-0.16,0.11,1.59-1.13,0.78c-0.81,0.92-0.74,2.16-1,3.25
		c-0.45,1.88-0.83,3.72-2.38,5.08c-0.33,0.29-0.54,0.81-0.66,1.26c-0.57,2.14-2.19,3.47-3.7,4.88c-0.24,0.22-0.47,0.43-0.83,0.42
		c-3.03-0.04-4.88,2.01-6.75,3.92c-1.03,1.05-1.83,2.34-3.08,3.96c0.14-3.62-0.2-6.69,0.24-9.77c0.26-1.81,0.05-3.63-0.03-5.49
		c-0.58-0.07-0.58,0.4-0.67,0.73c-0.36,1.31-0.72,2.62-1.02,3.94c-0.2,0.88-0.54,1.66-1.06,2.39c-0.23,0.33-0.42,0.68-0.66,1
		c-2.49,3.32-5.07,6.57-7.14,10.55c-0.6-1.74-1.2-3.03-0.79-4.73c0.32-1.34-0.01-2.84,0.23-4.27c0.3-1.78,0.73-3.52,1.59-5.17
		c-1.02-0.19-0.91,1.01-1.8,0.87c0.04-2.5-0.09-5.03,1.94-6.81c0.03-0.67-0.32-0.86-0.67-1.06c-0.34-0.2-0.67-0.42-0.98-0.62
		c-2.34,1.75-3.79,1.7-6.44-0.17c0.05-0.13,0.07-0.35,0.15-0.37c2.65-0.79,4.15-2.87,5.57-5.02c0.98-1.48,2.1-2.81,3.69-3.88
		c0.82,0.24,1.72,0.5,2.8,0.81c-1.64,1.29-2.08,3.01-2.21,4.86c0.5,0.51,0.84,0.13,1.17-0.22c0.11-0.11,0.15-0.28,0.22-0.42
		c0.91-2,1.54-4.18,3.49-5.35c-0.3-0.77-0.65-0.73-1.08-0.65c-2.32,0.44-4.05-0.53-5.35-2.37c-0.87-1.23-1.87-2.4-2.26-4
		c1.91-1.57,4.75-0.25,6.72-2.06c-0.72-1.34-2.06-0.62-3.13-1.13c2.21-2.04,5.37-1.72,7.68-3.18c-0.12-0.63-0.46-0.89-0.87-0.77
		c-2.46,0.73-3.68-0.77-4.8-2.58c2.27-0.54,4.48-0.79,6.75-0.48c0.39,0.05,0.8,0,1.19-0.09c2.6-0.58,5.24-0.57,7.86-0.37
		c1.52,0.12,2.78-0.25,4.03-1.1c2.29-1.58,4.66-3.06,6.91-4.84c1.71,1.15,3.18,2.58,3.87,4.45c1.1,2.99,3.27,4.16,6.21,4.39
		c0.23,0.02,0.45,0.07,0.79,0.13c-0.42,1.27-2.03,1.27-2.59,2.51c3.86,0.67,6.77-0.7,9.15-3.46c0.61-0.7,1.07-1.54,2.11-2.2
		c-0.56,4.69-2.6,8.2-6.7,10.75c1.31,0.61,2.22,0.26,2.9-0.28c0.9-0.7,1.89-0.77,2.9-0.91c0.47,0.39,0.44,0.85,0.19,1.31
		c-0.38,0.69-0.6,1.48-1.28,2.14c-1.64,0.21-3.19-0.51-4.74-1.01c-0.91-0.29-1.85-0.45-2.76-0.72c-0.43-0.13-0.76,0.08-1.06,0.55
		c0.85,1.07,2.14,1.29,3.3,1.66c1.28,0.41,2.64,0.61,3.96,0.89C237.99,56.71,237.99,56.72,238.84,57.78z M213.91,53.44
		c-0.87,0.38-1.57,0.93-1.19,1.27c0.64,0.57,0.26,0.98,0.17,1.45c-0.45,2.26-1.57,4.17-3.2,5.77c-0.9,0.89-1.84,1.74-3.05,2.28
		c-0.63,0.28-0.74,0.96-0.31,1.38c1.06,1.05,2.32,1.81,3.85,1.52c1.81-0.35,3.5-1.1,5.08-2.05c0.53-0.32,0.67-0.84,0.28-1.49
		c-0.73,0.45-1.58,0.77-2.17,1.35c-1.42,1.39-2.78,0.91-4.42,0.17C212.29,61.86,215.3,58.68,213.91,53.44z M223.87,49.55
		c0.2,1.83,0.37,3.26,0.97,4.61c0.19,0.42,0.57,0.55,0.98,0.37c0.31-0.14,0.42-0.48,0.34-0.8
		C225.82,52.26,225.24,50.92,223.87,49.55z M206.7,46.61c0.76-0.41,1.38-0.74,2-1.09c0.13-0.07,0.3-0.2,0.32-0.33
		c0.13-0.7,0.16-1.42,0.66-1.95c-0.75-0.69-1.38-0.7-1.99-0.27c-0.43,0.58,0.44,1.25-0.29,1.79
		C206.9,45.11,206.42,45.58,206.7,46.61z M223.86,44.9c0.54,0.24,0.76,0.33,0.97,0.43c0.33,0.15,0.62,0.12,0.77-0.23
		c0.05-0.11,0.01-0.35-0.08-0.42c-0.16-0.14-0.4-0.3-0.58-0.27C224.64,44.45,224.38,44.65,223.86,44.9z"/>
	<path class="st0" d="M351.94,225.34c-2.16,1.16-4.2,2.02-6.08,2.7c-1-0.17-1.03-1.17-1.77-1.36c-0.33,0.73,0.57,0.97,0.43,1.77
		c-3.43,0.83-6.88,2.1-10.6,1.16c-0.91-0.23-1.71,0.45-2.58,0.18c-0.35-0.89,1.01-0.67,0.87-1.58c-1.8,0.9-3.7,1.34-5.92,1.7
		c0.99-1.39,2.56-1.73,3.26-2.99c0.69-1.26,1.75-2.24,2.75-3.37c-0.51-0.56-1.09-0.38-1.59-0.39c-3.27-0.08-6.31-0.76-8.85-3.03
		c-1.12-1-2.48-1.7-4.28-2.49c2.49-0.33,4.05-1.56,5.53-2.99c1.11-1.07,2.57-1.57,4.01-2.06c0.74-0.25,1.58-0.28,2.33-1.03
		c-2.14-2.23-4.98-3.19-8.1-4.52c4.01-0.45,7.5-1.07,10.94-2.09c-0.32-0.8-1.02-0.9-1.57-1.19c-1.83-0.98-3.66-1.96-5.52-2.88
		c-2.61-1.28-4.9-2.98-6.94-5.05c-1.67-1.7-3.77-2.61-6.62-3.14c3.69-0.54,6.79-1.14,9.99-2.12c-1.29-2.79-3.82-2.98-6.17-3.54
		c-1.37-1.51-2.22-3.45-3.93-4.91c1.05-0.38,2.16-0.55,2.42-1.92c-1.69-0.9-3.95-1.11-4.84-3.25c0.3-0.47,0.71-0.31,1.08-0.31
		c1.76,0.03,3.52,0.16,5.27,0.07c1.42-0.08,2.62,0.21,3.8,1.05c1.41,1.01,1.53,0.94,2.71-0.33c0.34-0.37,0.68-0.65,1.2-0.7
		c3.79-0.37,5.9-3.1,8.09-5.74c0.44-0.53,0.56-1.33,1.3-1.64c0.6,2.23,0.42,4.44-0.77,9.66c0.35,0.35,0.77-0.09,1.13,0.09
		c0.16,0.08,0.19,0.21,0.1,0.4c-0.8,1.69-1.91,3.12-3.45,4.21c-0.45,0.32-0.95,0.6-1.21,1.14c-0.15,0.32-0.16,0.61,0.06,0.88
		c0.21,0.26,0.49,0.46,0.82,0.38c0.3-0.07,0.61-0.22,0.87-0.39c1.16-0.77,2.25-0.56,3.36,0.14c2.05,1.3,3.63,3.11,5.3,4.83
		c0.51,0.52,0.44,1.17,0.23,1.8c-0.35,1.07-0.57,2.15-0.24,3.83c0.4-1.67,0.68-2.83,0.95-3.98c0.71,0.05,1.04,0.48,1.29,0.99
		c-1.24,1.89-1.28,2.3-0.32,3.3c1.18,1.23,1.81,1.24,4.13-0.06c1.16,1.73,1.5,3.82,2.41,5.65c0.91,1.84,1.74,3.72,2.65,5.67
		c-2.76,1.92-5.67,2.32-8.79,1.28c-0.69-0.23-1.37-0.46-2.1-0.36c-0.56,0.07-1.19,0.22-1.29,0.86c-0.11,0.71,0.48,0.93,1.06,1.03
		c0.8,0.13,1.56,0.39,2.22,0.85c0.85,0.58,1.5,1.17,1.53,2.46c0.03,1.55,0.99,2.91,2.4,3.63c1.28,0.65,2.16,1.69,2.94,2.73
		C349.09,222.03,350.38,223.63,351.94,225.34z"/>
	<path class="st0" d="M220.66,216.03c0.8-0.05,1.51-0.1,2.22-0.15c0.79-0.62,1.09-1.57,1.65-2.34c0.58-0.8,1.32-1.37,2.32-1.75
		c1.26,0.9,2.58,1.78,3.81,2.75c0.57,0.45,0.91,1.1,0.08,1.72c-0.74,3.86-2.45,7.41-3.47,11.18c-0.69,2.54-1.31,5.11-2.2,7.58
		c-1.62,4.51-2.59,9.18-3.52,13.86c-1.01,5.08-1.88,10.19-2.91,15.27c-0.59,2.89-1.38,5.74-2.06,8.61c-0.41,1.72-1.9,1.98-3.25,2.34
		c-0.67,0.18-1.43,0.1-2.1-0.15c-0.53-0.5-0.43-1.21-0.66-1.78c-0.53-1.28-1.02-1.58-2.39-1.22c-1.23,0.33-2.44,0.71-3.7,1.08
		c-1.03-1.45-2.08-2.82-4.15-2.97c0.47-1.21,0.64-2.28,0.61-3.4c-0.04-1.3,0.41-2.51,0.95-3.67c4.18-9.06,8.27-18.16,12.56-27.16
		c1.96-4.12,3.55-8.37,5.16-12.62c0.65-1.71,1.08-3.51,0.66-5.36C220.12,217.22,220.36,216.76,220.66,216.03z"/>
	<path class="st0" d="M232.77,220.83c0.17,0.54,0.26,0.84,0.35,1.14c0.47-0.08,0.25-0.45,0.28-0.7c0.16-1.57-0.01-3.17,0.53-4.72
		c0.36-1.01,0.01-2.03-0.33-3.07c1.46-1.26,3.14-1.52,4.88-1.33c0.46,0.19,0.32,0.51,0.27,0.81c-0.14,0.89,0.42,1.32,1.13,1.59
		c0.8,0.31,1.1-0.38,1.53-0.88c0.63,0.35,1.27,0.67,1.87,1.05c0.33,0.21,0.6,0.52,0.78,0.68c0.32,0.82,0.01,1.43-0.16,2.02
		c-1.37,4.93-2.04,9.98-2.72,15.03c-0.71,5.28-1.47,10.56-2.19,15.85c-0.26,1.89-0.48,3.79-0.63,5.69c-0.16,2.07-0.6,4.09-0.9,6.14
		c-0.24,1.64-1.08,2.26-2.54,2.68c-2.47,0.72-4.96,1.14-7.52,1.27c-1.57,0.08-3.14-0.15-4.82,0.47c-0.09-1.38,0.3-2.34,0.58-3.3
		c0.74-2.53,1.5-5.05,2.34-7.54c0.51-1.52,0.74-3.09,1.06-4.65c0.1-0.49,0-0.93-0.1-1.41c-0.39-1.91-0.27-3.8,0.25-5.68
		c1.18-4.3,2.37-8.61,3.55-12.91c0.38-1.38,0.83-2.75,1.12-4.15C231.67,223.59,232.12,222.33,232.77,220.83z M239.64,221.05
		c0.85-1.12,1.53-1.92,0.82-3.1C238.99,218.76,238.99,218.76,239.64,221.05z"/>
	<path class="st0" d="M199.26,140.16c-0.94-0.26-0.76-0.95-0.65-1.56c0.08-0.46,0.48-0.95,0.19-1.37c-0.33-0.47-1.2-0.63-0.69-1.48
		c0.36-0.61,1.46-0.62,1.45-0.94c-0.06-4.8,2.13-9.13,2.26-13.82c0.4,0.06,0.62,0.1,0.84,0.13c0.05-0.16,0.16-0.32,0.15-0.46
		c-0.22-2.05,0.16-4.17-0.8-6.12c0.47-2.15-0.75-3.81-1.6-5.57c-0.86-1.79-1.52-3.64-2.66-5.33c-1.09-1.63-1.78-3.58-2.13-5.56
		c-0.52-2.98-0.95-5.98-1.42-8.97c-0.13-0.83,0.03-1.54,0.66-2.19c0.82-0.84,1.55-1.78,2.39-2.75c1.02,3.16,1.99,6.15,2.97,9.13
		c0.01,0.03,0.15,0.02,0.37,0.03c0.46-0.87,0.61-1.86,0.63-2.87c0.02-0.92,0.35-1.7,0.9-2.42c1.02-1.34,2.3-2.43,3.46-3.64
		c0.5-0.53,1.01-0.1,1.65-0.08c0.7-1.34,1.95-2.13,3.32-2.79c0.44,0.56,0.31,1.13,0.18,1.63c-0.74,2.85-0.46,5.74-0.13,8.58
		c0.66,5.56,0.81,11.14,0.65,16.72c-0.06,2.06-0.47,4.11-0.83,6.15c-0.1,0.59-0.56,1.12-0.85,1.69c-0.52,1.03-0.52,1.03-0.42,2.43
		c0.71-0.55,0.4-1.72,1.47-2.22c0.37,1.79,0.95,3.52,1.03,5.27c0.07,1.63-0.59,3.24-2.32,3.85c-2.41,0.85-3.54,2.78-4.59,4.86
		c-1.16,2.28-2.4,4.51-3.43,6.85c-0.38,0.87-0.98,1.64-1.51,2.44C199.69,139.96,199.44,140.04,199.26,140.16z"/>
	<path class="st0" d="M342.89,172.6c0.12-0.65,0.53-1.01,0.2-1.68c-0.94-1.94-0.82-2.18,0.89-3.26c0.4-0.25,0.81-0.49,1.29-0.77
		c2.3,0.64,4.01,2.25,5.53,3.97c5.32,6.02,9.71,12.68,13.14,19.94c3.11,6.58,5.57,13.4,6.67,20.65c0.47,3.13,0.1,6.21-0.45,9.28
		c-0.31,1.74-1.69,2.68-3.06,3.48c-1.02,0.59-2.18,0.97-3.39,0.8c-0.1-0.18-0.26-0.34-0.23-0.44c1.23-4.05,0.53-8.08-0.21-12.08
		c-0.39-2.11-0.98-4.2-1.62-6.25c-0.41-1.32-0.76-2.58,0.04-4c-1.74-0.74-2.23-2.26-2.86-3.7c-1.75-4.03-3.46-8.07-5.34-12.04
		c-1.12-2.37-2.37-4.7-4.29-6.6c-0.73-0.72-1.24-1.66-1.84-2.51C346.13,175.62,344.74,173.99,342.89,172.6z"/>
	<path class="st0" d="M369.98,172.02c-0.28,0.33-0.58,0.37-0.5,0.79c2.42,1.97,4.15,4.66,6.08,7.19c4.34,5.7,7.35,12.1,9.82,18.79
		c0.92,2.49,0.99,5.17,1.72,7.67c0.4,1.37,0.02,2.28-0.61,3.31c-0.66,1.08-1.49,1.86-2.97,1.81c-0.68-1.17-0.73-2.48-0.72-3.78
		c0.72-0.52,0.8,0.17,1.09,0.51c0.33-0.39,0.67-0.77,0.99-1.15c-0.48-0.24-0.96-0.48-1.44-0.72c-0.17,0.28-0.35,0.54-0.79,0.42
		c-0.08-0.05-0.26-0.12-0.31-0.23c-1.58-3.57-3.15-7.14-4.72-10.71c-0.13-0.29-0.22-0.6-0.36-0.88c-2.24-4.41-4.42-8.84-6.73-13.2
		c-3.04-5.73-6.49-11.17-11.47-15.51c0.56-0.81,1.45-0.8,2.16-1c1.02-0.29,2.02-0.08,2.89,0.69
		C366.17,167.86,368.22,169.75,369.98,172.02z"/>
	<path class="st0" d="M371.87,163.09c0.57-0.47,1.03-0.83,1.46-0.58c0.72,0.42,0.95,0.26,1.41-0.42c0.38-0.56,1.41-0.3,2.08,0.34
		c0.5,0.48,0.82,1.15,1.76,0.8c0.48-0.18,0.83,0.37,1.17,0.7c2.78,2.74,5.64,5.42,7.84,8.68c2.23,3.31,3.97,6.88,5.38,10.63
		c1.65,4.37,2.05,8.95,2.61,13.51c0.09,0.76-0.15,1.58-0.36,2.34c-0.18,0.65-0.68,1.05-1.42,1.03c-0.7-0.02-1.02-0.56-1.14-1.06
		c-0.35-1.38-0.63-2.79-0.83-4.2c-0.26-1.92-0.85-3.73-1.7-5.44c-0.61-1.22-1.07-2.46-1.39-3.79c-1.18-4.81-3.63-9.01-6.67-12.84
		c-1.97-2.49-3.77-5.14-6.29-7.17c-0.87-0.7-1.62-1.52-2.78-1.76C372.63,163.78,372.34,163.43,371.87,163.09z"/>
	<path class="st0" d="M357.6,166.58c0.79,0.71,1.44,1.26,2.04,1.85c0.28,0.28,0.45,0.64,0.44,1.07c-0.01,0.56,0.05,1.12,0.02,1.67
		c-0.17,2.53,0.52,4.88,1.52,7.15c1.25,2.84,2.52,5.67,4.26,8.28c1.46,2.19,2.74,4.49,4.15,6.71c1.8,2.83,3.72,5.56,5.93,8.09
		c0.84,0.96,1.76,1.85,2.93,2.44c0.43,0.21,0.9,0.38,1.1,0.87c0.85,2.06,1.95,4.03,2.16,6.3c0.01,0.14-0.09,0.3-0.18,0.57
		c-1.8-0.75-3.28-1.93-4.62-3.26c-1.58-1.57-3.06-3.25-4.56-4.9c-0.75-0.83-1.48-1.67-2.16-2.56c-1.45-1.9-2.82-3.85-3.64-6.14
		c-0.83-2.32-1.76-4.59-3.08-6.69c-2.13-3.41-3.35-7.21-4.58-11c-0.76-2.34-1.59-4.67-1.8-7.17
		C357.45,168.84,357.32,167.85,357.6,166.58z"/>
	<path class="st0" d="M409.61,160.61c-2.43,1.25-4.87,2.5-7.72,3.96c2.51,0.2,4.26-0.65,6-1.48c1.22-0.58,2.37-1.31,3.58-1.91
		c0.69-0.34,1.44-0.55,2.57-0.97c-2.17,3.75-4.19,7.03-6.73,9.96c-0.55,0.64-1.35,0.81-2.22,1.17c-2.54-1.78-5.53-1.75-8.75-1.57
		c1.2-1.45,3.34-1.45,4.18-3.41c-1.63,0.17-2.7,1.38-4.24,1.69c-0.13-1.82,0.63-3.47,0.25-5.3
		C400.91,161.46,405.15,160.57,409.61,160.61z"/>
	<path class="st0" d="M351.26,198.08c-0.71-0.48-0.9-0.61-1.09-0.74c-3.52-2.4-3.61-2.39-4.68-6.44c-1.25-4.78-2.33-9.6-3.48-14.41
		c-0.18-0.74,0.38-1.74-0.85-2.11c-0.13-0.04-0.02-0.87-0.02-1.48c1.68,0.86,2.9,1.96,3.91,3.31c0.48,0.64,0.88,1.34,1.39,1.95
		c1.03,1.23,1.36,2.54,1.19,4.19c-0.33,3.23,0.72,6.31,1.59,9.37c0.46,1.61,1.09,3.17,1.63,4.75
		C350.97,196.83,351.04,197.2,351.26,198.08z"/>
	<path class="st0" d="M212.96,155.83c-1.36,2.74-3.62,4.35-5.15,6.63c-1.86-2.18-3.65-4.28-5.55-6.51c1.59-2.5,3.84-4.49,5.85-6.91
		C210.2,151.1,211.5,153.51,212.96,155.83z"/>
	<path class="st0" d="M241.11,16.76c-2.77-1.55-5.49-0.37-8.67,0.03c2.25-1.91,4.22-3.57,4.03-6.61c3.78-0.68,7.38-2.08,11.47-0.9
		C245.71,11.9,244.09,14.78,241.11,16.76z"/>
	<path class="st0" d="M352.6,209.36c0.99-0.71,1.81-1.3,2.5-1.79c0.62,0.02,0.73,0.35,0.86,0.63c1.22,2.71,2.92,5.13,4.57,7.57
		c0.47,0.7,0.97,1.25,1.92,1.27c0.03,1.61,0.37,3.18,0.08,4.79c-0.23,1.22-0.87,1.6-1.74,0.82c-1.54-1.38-3.28-2.67-4.23-4.53
		C355.12,215.29,353.93,212.34,352.6,209.36z"/>
	<path class="st0" d="M208.74,133.58c2.01,2.26,3.05,4.85,4.77,7.09c-1.77,1.84-3.13,3.79-5.1,5.35c-1.84-1.74-3.09-3.83-4.61-5.81
		C205.23,137.88,206.92,135.83,208.74,133.58z"/>
	<path class="st0" d="M209.52,147.72c1.36-1.93,3-3.54,4.78-5.27c1.96,1.6,3.16,3.76,4.77,5.74c-1.5,2.27-3.21,4.31-4.99,6.45
		C212.48,152.22,211,149.97,209.52,147.72z"/>
	<path class="st0" d="M201.09,154.26c-2.42-1.65-2.94-3.45-2.11-5.95c1.25-3.77,1.29-4.12,3.54-6.46c1.12,0.52,1.54,1.69,2.25,2.58
		c0.74,0.93,1.48,1.86,2.35,2.94C205.1,149.69,203.12,151.94,201.09,154.26z"/>
	<path class="st0" d="M278.7,179.54c0-2.05,0-3.93,0-6.01c2.77-0.37,5.41-0.47,8.25-0.63c-0.12,2-0.25,3.77-0.83,5.65
		C283.76,179.16,281.26,179.26,278.7,179.54z"/>
	<path class="st0" d="M195.21,29.53c0.82-0.47,1.64-0.35,2.38-0.56c2.41,2.5,3.89,8.7,3,12.53c-1.04,0.55-1.96-0.27-2.85-0.21
		c-0.82-0.79-0.81-1.74-0.77-2.56c0.13-2.7-0.69-5.17-1.49-7.67C195.33,30.6,195.07,30.18,195.21,29.53z"/>
	<path class="st0" d="M369.57,165.97c0.38-0.57,0.69-1.02,1.03-1.53c0.2,0.01,0.43-0.01,0.64,0.05c1.92,0.53,3,1.97,3.21,3.77
		c0.44,3.79,1.69,7.28,3.36,10.66c0.03,0.06,0,0.15-0.01,0.27c-0.38,0.2-0.48-0.21-0.65-0.36c-0.24-0.2-0.43-0.47-0.6-0.74
		c-1.49-2.27-3.18-4.39-4.91-6.48C370.32,170.02,369.86,168.07,369.57,165.97z"/>
	<path class="st0" d="M378.68,180.27c1.64,1.17,2.68,2.84,3.72,4.48c1.44,2.28,3.17,4.37,4.31,6.87c0.89,1.94,1.41,2.24,3.41,3.56
		c0,1.11,0.66,2.2,0.07,3.43c-1.78-1.08-2.74-2.87-3.93-4.42c-1.36-1.77-2.52-3.7-3.33-5.79c-1.01-2.62-2.81-4.77-4.09-7.23
		C378.71,180.9,378.4,180.67,378.68,180.27z"/>
	<path class="st0" d="M297.78,175.22c0.49,0.63,0.39,1.12,0.44,1.81c-2.89,0.56-5.84,0.85-8.9,1.18c-0.39-1.89,0.08-3.54,0.48-5.4
		C292.62,173.58,295.22,174.71,297.78,175.22z"/>
	<path class="st0" d="M278.62,171.8c-0.28-4.44-0.27-4.49,0.43-5.72c2.36,2.11,5.17,3.55,8.16,5.58
		C284.01,171.81,281.32,172.15,278.62,171.8z"/>
	<path class="st0" d="M227.26,9.48c-1.52-2.06-3.2-1.34-4.81-0.35c-0.58-0.65,0.24-1.11-0.1-1.59c3.07-1.54,8.44-3.36,10.44-3.54
		c-0.09,0.23-0.1,0.52-0.25,0.62C230.65,5.96,229.56,8.17,227.26,9.48z"/>
	<path class="st0" d="M351.51,206.86c-0.94-2.27-1.81-4.38-2.69-6.52c2.44,0.14,4.51,1.91,5.52,4.71
		C353.64,205.83,352.79,206.47,351.51,206.86z"/>
	<path class="st0" d="M398.52,178.91c-0.67-0.94-0.02-2.2-1.03-3.4c2,0.14,3.61,0.25,5.24,0.36c0.35,1.13-0.27,1.95-0.41,2.81
		C400.59,179.24,400.59,179.24,398.52,178.91z"/>
	<path class="st0" d="M388.56,162.64c1.95-0.59,2.61,0.97,3.78,1.22c-0.19,2.15-0.48,2.37-2.06,1.81c-0.45-0.16-0.87-0.34-1.26-0.81
		C388.86,164.24,389.01,163.46,388.56,162.64z"/>
	<path class="st0" d="M221.63,79c-0.71-0.87-1.26-1.61-1.65-2.57c1.01-0.94,1.98-1.83,3.19-2.95
		C222.99,75.56,222.87,77.28,221.63,79z"/>
	<path class="st0" d="M221.11,79.84c-1.91,1.57-2.15,1.61-3.72,0.6c0.56-1.03,1.12-2.06,1.82-3.36
		C219.91,78.1,220.47,78.91,221.11,79.84z"/>
	<path class="st0" d="M215.43,78.86c-0.54-2.19,0.87-3.56,1.77-5.59c0.85,1.87-0.03,3.16-0.27,4.46
		C216.82,78.32,216.43,78.92,215.43,78.86z"/>
	<path class="st0" d="M195.18,20.36c-1.59,2.53-2.14,2.96-3.79,3.09C191.65,21.77,191.99,21.47,195.18,20.36z"/>
	<path class="st0" d="M193.43,27.67c0.91-1.06,2.08-1.53,3.23-2.03c0.47,0.6-0.01,0.98-0.35,1.17
		C195.42,27.31,194.47,27.67,193.43,27.67z"/>
	<path class="st0" d="M342.64,196.43c-0.8-0.02-1.34-0.33-1.43-1.19C342.52,194.68,342.71,194.84,342.64,196.43z"/>
	<path class="st0" d="M341.14,170.07c0.73,0.45,0.9,1.09,1.13,2.02C341.28,171.56,341.08,170.93,341.14,170.07z"/>
	<path class="st0" d="M400.21,199.19c-0.29-0.44-0.31-0.87-0.03-1.31c0.81-0.09,0.83,0.56,1.08,0.94
		C400.98,199.39,400.59,199.27,400.21,199.19z"/>
</g>
</svg>
