<?xml version="1.0" encoding="utf-8"?>
<!-- Generator: Adobe Illustrator 24.1.2, SVG Export Plug-In . SVG Version: 6.00 Build 0)  -->
<svg version="1.1" id="Layer_1" xmlns="http://www.w3.org/2000/svg" xmlns:xlink="http://www.w3.org/1999/xlink" x="0px" y="0px"
	 width="63.49" height="84.58" viewBox="0 0 63.49 84.58" style="enable-background:new 0 0 63.49 84.58;" xml:space="preserve">
<style type="text/css">
	.st0{fill:#1A1A1A;}
</style>
<g>
	<path d="M9.32,76.7c-0.53-0.98-1.16-1.89-1.79-2.8C3.33,67.84,0.12,61.39,0,53.8c-0.04-2.76,0.87-5.33,1.77-7.88
		c0.69-1.97,1.88-3.69,2.85-5.53c1.5-2.85,3.51-5.25,5.87-7.43c1.76-1.62,3.31-3.47,4.95-5.21c1.43-1.51,2.84-3.04,4.53-4.27
		c0.84-0.62,1.2-1.38,1.28-2.42c0.19-2.64,0.9-5.19,1.69-7.7c0.91-2.88,2.46-5.35,4.78-7.33c1.34-1.14,2.59-2.36,4.08-3.33
		c6.45-4.2,11.72-3.27,17.58,1.35c2.15,1.7,3.66,3.94,4.85,6.45c1.96,4.12,3.78,8.28,5.04,12.67c0.53,1.84,0.92,3.72,1.35,5.58
		c0.41,1.79,0.8,3.58,1.41,5.32c1.29,3.67,1.47,7.5,1.46,11.35c-0.02,5.54-1.26,10.75-4.07,15.58c-0.92,1.58-1.61,3.3-2.39,4.96
		c-1.92,4.09-4.33,7.84-7.74,10.86c-4.66,4.13-10.2,6.17-16.33,6.73c-1.66,0.15-3.32,0.19-4.93,0.8c-1.05,0.39-2.23,0.2-3.33,0.03
		c-2.93-0.47-5.77-1.26-8.38-2.74c-1.53-0.87-3.11-1.64-4.6-2.56c-0.77-0.48-1.76-0.8-2.03-1.87C9.57,77.04,9.44,76.87,9.32,76.7z"
		/>
	<path d="M9.32,76.7c0.12,0.17,0.25,0.33,0.37,0.5c-0.8,0.11-1.14-0.42-1.61-0.98C8.79,75.99,9.05,76.36,9.32,76.7z"/>
	<path class="st0" d="M13.04,76.83c1.67,0.23,2.61,1.3,3.74,1.36c0.35-0.14,0.35-0.26,0.13-0.37c-3.34-1.67-6.04-4.14-8.6-6.8
		c-1.57-1.63-2.85-3.45-3.73-5.53c-0.65-1.54-1.18-3.14-1.79-4.7c-0.56-1.42-1.03-2.84-0.77-4.42c0.07-0.44-0.06-0.97-0.23-1.4
		c-0.61-1.57-0.42-3.15-0.09-4.72c1.04-4.97,3.5-9.23,6.72-13.07c2.88-3.43,6.22-6.42,9.55-9.41c1-0.89,1.81-2,2.67-2.96
		c0.63-0.2,0.38,0.69,0.81,0.61c0.56-0.07,0.66-0.47,0.73-0.86c0.39-2.36,0.74-4.73,1.16-7.08c0.2-1.1,0.5-2.18,0.79-3.25
		c1.8-6.5,6.38-10.28,12.4-12.63c0.21-0.08,0.47-0.06,0.77-0.1c0.87,1.2,0.92,2.32,0.01,3.58c-0.77,1.06-1.32,2.28-2.18,3.8
		c1.84-0.94,3.22-1.64,3.32-3.66c0.05-0.93,0.47-1.83,0.7-2.7c0.7-0.23,1.17,0.16,1.65,0.41c4.79,2.49,8.61,6.04,11.55,10.55
		c0.78,1.19,1.44,2.47,1.47,4.27c-1.06-0.96-1.92-1.73-2.77-2.51c-0.59,0.49-0.06,0.73,0.1,0.99c0.94,1.48,1.91,2.95,2.87,4.42
		c0.57,0.88,1.06,1.79,1.21,2.84c0.11,0.73,0.49,1.35,0.87,1.96c3.93,6.21,4.89,13.04,4.51,20.23c-0.31,5.81-1.64,11.36-3.74,16.74
		c-1.52,3.88-3.53,7.53-6.27,10.71c-3.27,3.79-7.37,6.34-12.17,7.73c-3.7,1.07-7.45,1.75-11.32,1.63c-1.89-0.06-3.79-0.05-5.47-1.18
		c-0.37-0.25-0.93-0.18-1.4-0.3C17.62,80.3,15.32,79.03,13.04,76.83z M41.12,43.42c0.15,0,0.4,0.05,0.43-0.01
		c0.59-1.13,1.47-1.22,2.55-0.79c0.19,0.08,0.45-0.04,0.64-0.06c-0.32-1.01-1.69-0.32-2.06-1.33c-0.14-0.39-0.37-0.02-0.48,0.1
		c-0.42,0.45-0.96,0.42-1.51,0.54c-3.26,0.67-6.54,1.31-8.98,3.87c-0.15-1.02-1.4-0.15-1.62-0.8c0.57-2.47,1.36-4.77,1.04-7.18
		c-0.27-2-0.31-3.94,0.01-5.94c0.19-1.25,0.13-2.54-0.06-3.81c-0.24-1.54-0.37-3.11-0.54-4.61c5.25-1.96,7.45-6.15,6.18-11.86
		c-0.03,0.54-0.06,0.85-0.06,1.16c-0.01,0.4,0.02,0.8-0.02,1.2c-0.39,3.64-2.04,6.49-5.28,8.32c-0.43,0.24-0.88,0.42-1.27-0.07
		c0.21-2.4,0.25-2.37,1.61-4.23c2.07-2.82,2.77-5.93,1.73-9.64c-1.28,7.51-1.33,7.65-3.01,9.23c-0.66-1.44-0.69-3.13-1.7-4.42
		c-0.33,0.17-0.63,0.37-0.59,0.72c0.25,2.22,0.03,4.43,0.06,6.64c0.03,2.09-0.47,3.9-1.3,5.71c-0.09,0.2-0.33,0.32-0.46,0.45
		c-0.74-0.04-1.24-0.89-2.04-0.46c0.4,0.57,1.02,0.98,1.03,1.75c-0.09,0.46-0.67,0.65-0.63,1.19c0.57,0.36,0.91-0.65,1.47-0.27
		c0.68,2.2,0.86,4.43,0.25,6.85c1.27-0.93,0.74-2.77,2.2-3.37c0.59,1.06,0.63,2.02,0.37,3.1c-0.36,1.47-0.7,2.95-1.28,4.35
		c-0.15,0.36-0.48,0.77-0.23,1.12c0.68,0.93,0.06,1.71-0.26,2.45c-0.51,1.2-1.06,2.39-1.78,3.5c2.51-1.62,3.17-4.45,4.66-7.16
		c-0.25,2.03-0.55,3.65-1.32,5.13c-0.75,1.45-2.2,2.42-2.82,3.99c0.7-0.49,1.37-1.02,1.91-1.66c1.02-1.21,2.26-1.71,3.81-1.45
		c-0.38,1.69-0.03,2.09,1.49,1.88c0.57-0.08,1.06-0.73,1.72-0.28c-0.32,1-2.04,1.68-0.62,3.03c0.06,0.06-0.16,0.42-0.26,0.64
		c-0.18,0.41-0.61,0.78-0.09,1.4c1.39-1.55,3.08-2.75,5.09-4.28c-1.76,0.25-2.78,1.32-4.4,1.3c2.24-2.34,4.1-4.65,6.28-6.64
		c0.36,0.35,0.29,0.56,0.17,0.76c-0.37,1.13-0.83,2.23-1.08,3.38c-0.38,1.78-0.51,3.57,1.11,5.33c-0.15-1.47-0.92-2.51-0.69-3.69
		c0.22-1.16,0.5-2.31,0.79-3.45C41.42,44.47,41.38,43.94,41.12,43.42z M16.41,64.31c0.32-0.61,0.64-1.21,0.97-1.82
		c0.47-1.06,1.39-1.83,1.78-2.99c0.39-1.15,0.54-2.43,1.42-3.52c0.68,1.95-0.43,3.52-0.55,5.23c1.28-2.01,1.98-4.22,2.05-6.6
		c0.09-3.47-0.65-6.82-1.9-10.03c-0.48-1.23-0.5-2.21,0.23-3.36c1.03-1.62,1.6-3.47,2.07-5.33c0.19-0.75,0.41-1.51-0.07-2.43
		c-0.81,2.8-1.68,5.43-3.31,7.58c-0.65,0.24-0.92-0.53-1.45-0.27c-0.5,0.48,0.31,1.08-0.33,1.75c-1.96,1.26-4.28,2.23-6.96,2.15
		c0.52,1.2,1.81,0.52,2.53,1.2c0.31,0.61-0.09,1.46,0.58,1.98c0.45,0.23,0.93,0.3,1.39,0.13c1.65-0.6,2.36-2.32,3.72-3.33
		c0.83,0.86,0.91,1.94,1.06,2.92c0.89,5.55-0.96,10.34-4.2,14.74c-1.16,1.58-2.56,2.56-4.62,2.43c-1.45-0.09-2.56,0.58-3.54,1.87
		c4.06-1.21,5.05-0.73,8.37,0.77c3.16,1.44,5.87,3.52,8.09,6.22c0.46,0.56,0.97,1.08,1.46,1.62c-0.55-1.77-1.71-3.07-2.77-4.42
		c-1.7-2.17-4.09-3.52-6.35-5.05C16.2,65.22,16.31,64.77,16.41,64.31z M38.92,16.28c1.37,0.39,1.93,1.3,2.32,2.32
		c1.46,3.76,1.71,7.62,0.59,11.49c-0.9,3.11-2.73,5.74-4.92,8.1c-0.22,0.23-0.48,0.43-0.67,0.69c-0.19,0.26-0.69,0.41-0.41,0.91
		c2.48-1.23,2.69-1.43,6.41-6.37c1,2.92,1.99,5.77,4.29,7.92c2.26,2.1,4.73,3.63,8,3.69c-0.35-0.94-1.14-0.68-1.69-0.92
		c-4.64-2.04-7.64-5.6-9.52-10.22c-0.47-1.16-0.47-2.24-0.02-3.46c1.33-3.59,1.05-7.19-0.3-10.73c-0.46-1.21-1.14-2.29-2.1-3.16
		C40.45,16.11,39.91,15.73,38.92,16.28z M25.29,53.92c2.47,0.65,4.6,1.9,7.12,3.46c-0.72-2.15-2.94-2.19-3.54-3.7
		c0.45-0.42,0.86-0.35,1.21-0.17c1.48,0.79,2.89,1.65,3.92,3.05c1.15,1.57,1.35,3.48,1.98,5.23c0.09,0.25-0.06,0.6-0.12,1.03
		c-3.74,0.29-7.52,0.07-11.07,1.76c1.22,0.66,2.26-0.36,3.57-0.04c-2.39,1.33-4.84,2.18-6.89,3.8c0.94-0.08,1.84-0.25,2.71-0.62
		c2.28-0.96,4.59-1.83,6.88-2.77c1.43-0.59,2.88-0.78,4.44-0.63c1.8,0.18,3.5,0.7,5.61,1.48c-1.48-1.61-3.47-1.62-4.4-3.19
		c0.09-2.37-1.16-4.39-1.87-6.56c-0.4-1.22-1.42-2.11-2.47-2.87c-0.72-0.53-1.54-0.8-2.46-0.79c-0.79,0.01-1.32,0.26-1.69,1.03
		c-0.23,0.48-0.86,0.23-1.32,0.24C26.4,53.67,25.88,53.03,25.29,53.92z M53.16,49.05c-1.23,1.56-3.2,2.57-3.48,4.89
		c1.62,1.58-0.07,3.21,0.12,4.77c-4.43,2.24-6.84,4.44-8,7.36c-1.56,3.94-1.88,8.15,0.32,10.34c-0.72-3.58-0.48-5.28,1.23-8.48
		c0.37-0.7,0.83-1.36,1.22-2.06c0.06-0.1-0.03-0.28-0.06-0.43c-0.36-0.26-0.67,0.36-1.03,0.05c1.31-2.86,3.74-5.08,6.43-5.78
		c0.67-0.17,1.02-0.65,1.09-1.15c0.27-1.75,0.6-3.47,1.45-5.04c0.11-0.2,0.26-0.49,0.2-0.66c-0.44-1.15,0.11-1.97,0.81-2.78
		C53.78,49.71,53.65,49.35,53.16,49.05z M52.27,37.83c0.02-0.28,0.09-0.48,0.02-0.57c-1.54-1.92-2.27-4.21-2.93-6.5
		c-0.83-2.84-1.38-5.73-1.36-8.71c0-0.7,0.05-1.35,0.96-1.58c-1.27-0.71-1.35-0.79-1.26-1.83c0.1-1.22,0.56-2.43,0.16-3.73
		c-1.07,1.27-0.44,3.03-1.53,4.42c-2.09-1.57-3.2-3.5-2.66-6.46c-1.1,1.06-1.43,1.97-0.99,3.19c0.74,2.04,1.99,3.6,3.98,4.51
		c-0.2,3.25,0.29,6.31,0.96,9.34C48.31,33.01,49.76,35.67,52.27,37.83z M45.93,56.08c-2.71-1.35-4.88-1.29-6.19,0.18
		c-0.7,0.78-1.23,1.69-1.16,2.79c0.07,1.04-0.41,2.22,0.61,3.15c0.4-1.01-0.1-2.08,0.56-3.15c0.17,0.65,0.29,1.16,0.45,1.78
		c1.33-1.16,0.28-2.64,0.67-3.72C42.35,55.5,44.2,56.34,45.93,56.08z M44.38,47.55c0.55-0.08,0.58,0.74,1.14,0.54
		c-0.42-0.9-0.36-2.12-1.93-2.29c-0.81,2.13-0.17,4.07,0.59,5.96c0.67,1.67,1.6,3.17,3.57,3.63C45.3,53.31,44.73,50.49,44.38,47.55z
		 M57.02,43.55c0.43-3.31-0.51-6.56-0.45-9.87C56.1,36.99,56.44,40.27,57.02,43.55z M43.17,8.12c-0.53-1.04-1.91-1.18-2.2-2.31
		c-0.1-0.41-0.28-0.51-0.61-0.47C40,5.39,39.9,5.69,39.87,6.02c-0.05,0.5,0.04,0.92,0.47,1.24C41.18,7.87,42.05,8.34,43.17,8.12z
		 M36.35,3.46c-1.31-0.35-1.81,0.63-2.62,1c0.35,0.49,0.67,0.8,1.16,0.89C35.71,5.06,36.12,4.43,36.35,3.46z M41.3,10.31
		c-0.25-0.23-0.49-0.49-0.76-0.69c-0.31-0.22-0.42-0.78-1.06-0.74C40.23,9.91,40.23,9.91,41.3,10.31z"/>
	<path class="st0" d="M16.41,64.31c-0.68,0.41-1.14,1.51-2.35,0.61c0.83-1,1.68-1.95,2.87-2.54c0.1-0.05,0.3,0.07,0.45,0.11
		C17.05,63.1,16.73,63.7,16.41,64.31z"/>
	<path class="st0" d="M27.98,26.95c0.43-0.73,0.74-1.26,0.99-1.69c0.44-0.08,0.65,0.12,0.65,0.31c0.03,1.4,0.02,2.8,0.02,4.38
		C28.73,29.12,28.66,27.93,27.98,26.95z"/>
	<path class="st0" d="M28.05,29.73c0.4,0.79,0.4,0.79,0.23,1.6C27.66,30.85,27.96,30.26,28.05,29.73z"/>
	<path class="st0" d="M17.49,43.33c-1.07,1.93-1.97,3.29-3.71,3.97c-0.13-0.3-0.28-0.5-0.29-0.7c-0.02-0.38,0.04-0.76,0.06-1.1
		C14.77,44.83,15.9,44.2,17.49,43.33z"/>
	<path class="st0" d="M39.27,43.18c-1.54,2.69-3.9,3-6.22,3.39C34.77,45,36.68,43.79,39.27,43.18z"/>
</g>
</svg>
