<?xml version="1.0" encoding="utf-8"?>
<!-- Generator: Adobe Illustrator 23.1.0, SVG Export Plug-In . SVG Version: 6.00 Build 0)  -->
<svg version="1.1" id="Layer_1" xmlns="http://www.w3.org/2000/svg" xmlns:xlink="http://www.w3.org/1999/xlink" x="0px" y="0px"
	 viewBox="0 0 619.86 1798" style="enable-background:new 0 0 619.86 1798;" xml:space="preserve">
<g>
	<g>
		<path d="M227.84,0c1,0,2,0,3,0c2.7,5.39,6.5,9.76,11.49,13.22c4.57,3.17,8.9,6.68,13.32,10.07c4.14,3.18,8.24,6.4,12.28,9.54
			c1.94-1.27,3.69-3.06,5.79-3.66c7.87-2.26,16-3.19,24.12-4.14c1.31-0.15,2.74-0.25,3.98,0.09c5.45,1.49,10.96,2.04,16.6,1.91
			c5.04-0.11,10.15-0.6,15.07,1.69c-4.71-6.96-10.01-13.17-18.21-15.65c-6.84-2.06-13.88-3.49-20.86-5.05
			c-5.63-1.26-11.24-2.48-17.01-5.99c1.63-0.32,2.53-0.78,3.29-0.6c7.22,1.71,14.45,2.84,21.94,2.66c5.42-0.13,11-0.03,16.26,1.11
			c10.5,2.27,20.11,6.71,28.03,14.3c1.14,1.09,2.68,1.98,4.19,2.4c10.65,2.97,16.69,10.36,19.67,20.53
			c0.94,3.22,1.05,6.68,1.6,10.52c2.27-2.37,4.38-4.58,6.7-7.01c0.77,0.87,1.57,1.79,2.15,2.45c1.62-0.8,3.34-2.41,4.7-2.14
			c1.94,0.38,3-0.33,4.34-1.19c4.53-2.9,8.98-5.96,13.67-8.58c6.09-3.4,12.35-6.08,17.1-11.86c4.95-6.02,11.43-10.8,17.34-16.22
			c2.86,0.31,3.46,3.1,4.16,5.16c2.26,6.6,5.38,12.99,6.03,20.04c0.29,3.09,0.08,6.27-0.28,9.36c-0.68,5.84-2.1,11.64-2.37,17.49
			c-0.63,13.75-0.73,27.53-1.14,41.29c-0.05,1.58-0.6,3.19-1.17,4.69c-0.8,2.1-1.98,4.07-2.77,6.17c-1.75,4.68-2.94,9.63-5.18,14.05
			c-1.65,3.25-1.14,6.21-0.73,9.33c0.49,3.72,1.57,7.37,1.82,11.1c0.55,8.08,0.69,16.2,1.1,24.29c0.15,2.94,0.76,5.86,0.88,8.8
			c0.15,3.66,0.77,7.54-0.17,10.94c-1.55,5.6-0.34,10.75,0.88,16c1.39,5.95,4.25,11.31,7.59,16.34c4.43,6.69,8.73,13.56,15.74,18.05
			c0.91,0.59,1.43,1.79,2.13,2.71c-0.28,0.23-0.55,0.46-0.83,0.69c-9.01-7.07-19.65-12.19-26.24-23.27c0,5.55-0.06,10.21,0.03,14.87
			c0.04,2.06-0.47,4.04-0.1,6.17c1.57,8.84,5.56,16.67,9.73,24.45c1,1.87,1.56,4.03,2.8,5.7c4.14,5.58,8.79,10.7,14.55,14.73
			c1.48,1.04,2.58,2.6,3.94,3.83c1.18,1.07,2.48,2.01,3.73,3.01c-0.23,0.29-0.47,0.58-0.7,0.87c-12.92-9.04-24.41-19.89-36.45-29.82
			c0.16,2.43,0.52,4.85,0.43,7.25c-0.1,2.9,0.6,5.41,1.93,8.01c6.87,13.38,14.67,26.2,23.07,38.65c2.92,4.33,6.11,8.52,9.53,12.47
			c2.13,2.47,4.93,4.35,7.39,6.53c3.21,2.84,6.41,5.7,9.57,8.6c0.82,0.75,1.47,1.67,2.2,2.52c-8.25-2.73-16.21-5.69-23.65-9.64
			c-7.47-3.97-14.43-8.92-21.32-13.25c1.93,10.01,3.86,20.02,5.84,30.25c1.95,0,3.92-0.02,5.89,0.01c0.8,0.01,1.59,0.1,2.74,0.18
			c-1.8,2.19-3.22,3.92-4.77,5.8c1.34,0.38,2.89,0.52,4.09,1.24c1.21,0.73,1.94,2.2,3.09,3.08c2.6,1.98,5.13,4.22,8.05,5.6
			c6.05,2.86,9.25,8.07,12.48,13.45c4.58,7.63,6.82,16.19,9.93,24.41c1.73,4.57,3.69,9.09,4.89,13.8
			c2.26,8.83,4.39,17.72,5.84,26.71c0.41,2.56,2.13,4.38,2.27,6.85c0.31,5.6,0.66,11.2,1,16.8c0.07,1.19,0.16,2.38,0.24,3.57
			c0.2-0.01,0.41-0.01,0.61-0.02c0.1-1.61,0.2-3.22,0.35-5.64c0.82,1.69,1.61,2.65,1.71,3.66c0.47,4.92,0.98,9.86,1.02,14.79
			c0.03,4.16,0.9,8.12,1.68,12.15c1.31,6.73,2.31,13.52,3.38,20.29c0.61,3.87,1.03,7.78,1.66,11.65c1.07,6.61,2.12,13.22,3.39,19.79
			c0.8,4.14,1.59,8.36,3.13,12.26c2.14,5.46,5.16,10.58,7.45,15.99c1.79,4.24,4.85,8.33,2.82,13.28
			c6.57,8.99,16.07,12.17,27.23,13.86c-0.98,1.25-1.42,2.2-2.16,2.69c-2.29,1.51-4.69,2.85-7.05,4.25c0.11,0.23,0.22,0.46,0.32,0.7
			c2.56-0.71,5.12-1.42,7.82-2.17c1.11,4.12-0.77,8.27,1.64,11.48c1.1-0.94,2.03-1.74,3.21-2.76c0.65,1.24,1.43,2.06,1.46,2.91
			c0.25,6.3,2.51,12.12,4.11,18.09c2.62,9.74,5.44,19.42,7.98,29.18c1.52,5.83,2.89,11.71,3.9,17.64
			c1.04,6.14,2.64,12.24,2.11,18.57c-0.06,0.66-0.13,1.39,0.08,1.99c2.16,6.11,2.37,12.52,2.94,18.87c0.07,0.77,0.25,1.72,0.76,2.21
			c0.52,0.5,1.49,0.55,2.4,0.84c-0.8,10.85,0.27,21.36,1.84,31.83c0.8,5.32,1.74,10.62,2.85,15.89c1.24,5.89,2.65,11.75,4.14,17.58
			c2.61,10.25,5.27,20.49,8.05,30.69c1.11,4.08,3.38,7.98,3.75,12.09c0.79,8.85,3.88,17.21,4.73,26.01
			c0.59,6.18,1.61,12.33,2.45,18.49c0.22,1.62,0.49,3.23,0.67,4.86c0.49,4.35,0.95,8.71,1.35,12.44c-0.55-0.53-1.32-1.25-2.51-2.39
			c-1.19,7.13-4.91,11.75-8.28,16.53c-2.14,3.04-4.23,5.98-5.72,9.53c-1.38,3.28-2.4,7.11-5.91,9.36c-4.53,2.9-8.94,6.02-13.18,9.33
			c-2.87,2.24-5.85,3.62-9.52,3.91c-2.79,0.23-5.59,1.18-7.16,3.76c-2.8,4.62-5.33,9.41-9.23,13.27c-0.48,0.48-0.31,1.57-0.53,2.35
			c-0.65,2.27-2.01,4.1-4.14,5.04c-0.83,0.37-2.97-0.13-2.99-0.34c-0.27-3.7-4.62-4.72-5.11-8.54c-0.59-4.64-2.85-9.06-0.85-13.9
			c0.41-0.99,0.07-2.31,0.02-3.47c-0.01-0.29-0.26-0.57-0.47-0.98c-0.98-0.2-2.06-0.41-3.45-0.69c0-3.29,0.36-6.48-0.08-9.56
			c-0.76-5.28-0.02-10.39,1.81-15.18c2.21-5.78,5.28-11.23,7.77-16.91c1.1-2.51,1.94-5.19,2.46-7.88c0.68-3.53,0.49-7.27,1.47-10.69
			c2.51-8.82,1.27-17.77,1.55-26.66c0.05-1.51-0.68-2.48-1.94-2.53c-1.65,1.77-3.52,3.11-4.47,4.92c-3.21,6.14-8.83,7.04-14.68,6.77
			c-3.08-0.14-5.79,0.11-8.11,1.98c-1.5,1.21-2.82,1.45-4.72,0.59c-0.02-5.21,1.89-9.77,4.25-14.26
			c3.63-6.94,7.72-13.73,10.41-21.03c1.67-4.53,3.67-8.67,6.31-12.57c1.47-2.16,3.25-4.13,5.02-6.07c1.48-1.62,1.04-2.82-0.27-4.29
			c-6.03-6.75-10.75-14.38-14.81-22.44c-4.19-8.32-8.43-16.61-12.72-25.05c0.49-0.44,1.15-1.05,1.41-1.28
			c-2.48-5.37-4.76-10.41-7.13-15.41c-3.72-7.83-7.55-15.6-11.23-23.44c-0.68-1.44-1.12-3.09-1.24-4.67
			c-0.23-3.12-3.06-4.92-3.76-7.58c-1.13-4.24-1.93-8.65-2.2-13.03c-0.53-8.7-1.62-17.28-2.91-25.9c-1.21-8.08-3.16-15.9-5.83-23.54
			c-2.47-7.06-5.35-13.99-8.4-20.83c-1.99-4.47-4.49-8.72-6.97-12.95c-1.36-2.31-3.67-4.15-4.67-6.57
			c-3.27-7.89-7.76-15.05-12.16-22.3c-2.95-4.85-5.28-10.1-7.62-15.29c-1.55-3.43-2.63-7.07-4.16-11.28
			c-0.67,1.42-1.25,2.11-1.29,2.83c-0.48,9.02-4.14,17.47-4.36,26.63c-0.14,5.74-2.26,11.46-3.74,17.13
			c-2.91,11.18-5.86,22.35-9.02,33.46c-2.75,9.68-7.51,18.77-8.34,29.03c-0.34,4.23-1.32,8.43-1.54,12.66
			c-0.27,5.49,0.11,11-0.12,16.49c-0.19,4.39,0.71,8.61,2.32,12.49c4.12,9.91,8.66,19.65,13.12,29.42
			c4.14,9.06,8.4,18.05,12.57,27.1c0.3,0.65,0.43,1.43,0.44,2.16c0.09,3.91,1.73,7.2,4.22,10.03c5.89,6.69,11.9,13.27,17.87,19.89
			c0.22,0.25,0.59,0.46,0.66,0.74c0.27,1.22,0.97,2.73,0.52,3.63c-0.43,0.87-2.14,1.66-3.2,1.55c-2.78-0.28-5.5-1.07-8.54-1.72
			c0.47,1.46,0.76,2.38,1.07,3.29c1.35,3.89,1.05,8.32,2.46,11.93c2.96,7.53,5.78,15.25,10.43,22.05c1.37,2.01,2.41,4.26,3.51,6.45
			c0.86,1.71,1.44,3.42-1.05,4.46c-0.44,0.18-1,1.16-0.86,1.46c1.43,2.99-1.32,5.46-0.89,8.38c0.44,2.93,0.34,5.95,0.39,8.94
			c0.06,3.83-0.16,7.68,0.1,11.5c0.51,7.54,1.24,15.07,1.93,22.6c0.34,3.76,0.7,7.52,1.25,11.25c0.35,2.39,0.72,4.89,1.73,7.05
			c1.58,3.4,2.16,6.81,2.08,10.51c-0.05,2.59,0.6,5.19,0.82,7.8c0.12,1.48,0.1,3-0.04,4.48c-0.2,2.11-0.8,4.21-0.81,6.31
			c-0.06,19.83-0.03,39.67-0.05,59.5c0,1.49,0.21,3.12-0.32,4.43c-2.99,7.48-3.86,15.47-5.53,23.24
			c-1.92,8.93-2.57,18.13-4.27,27.11c-2.07,10.88-4.34,21.74-7.12,32.45c-2.82,10.85-6.58,21.46-9.54,32.28
			c-2.1,7.66-6.89,14.57-6.49,22.93c0.01,0.28-0.38,0.55-0.47,0.86c-3.08,10.85-7.79,21.07-12.25,31.38c-2,4.62-4.57,9-6.68,13.57
			c-2.67,5.77-5.3,11.57-7.65,17.47c-2.45,6.18-7.77,11.73-4.69,19.28c0.06,0.14,0.05,0.35-0.02,0.49
			c-1.66,3.8,0.47,7.24,1.01,10.83c0.54,3.63,2.84,5.66,5.95,6.98c4.49,1.92,9.02,3.74,13.56,5.57c5,2.01,9.97,4.1,15.54,4.04
			c4.99-0.06,5.07,0.14,4.69,5.22c-1.26,1.15-2.36,2.14-4.03,3.66c3.59,0.07,6.1,0.54,7.55,3.68c-2.11,0.68-3.94,1.27-5.91,1.91
			c1.45,0.8,2.85,1.61,4.29,2.35c3.32,1.71,6.96,2.97,9.92,5.16c4.61,3.41,9.15,6.76,14.63,8.71c1.1,0.39,1.85,1.77,2.86,2.8
			c-4.16,4.05-9.02,5.19-14.24,6.88c2.65,1.71,5.3,3.41,7.94,5.11c0.13,2.6,0.18,2.63-1.19,4.72c-0.98,1.5-0.64,2.39,1,2.98
			c2.99,1.08,5.96,2.21,9.04,3.36c-1.55,1.21-3.07,2.4-5.25,4.1c3.34,0.77,5.95,1.37,9.17,2.11c-0.64,2.13-1.2,4.09-1.82,6.04
			c-0.54,1.69-1.29,3.32-1.71,5.04c-0.7,2.88-1.22,5.8-1.8,8.67c3.12-0.23,2.82-5.18,6.97-4.16c-0.92,1.99-1.86,3.67-2.49,5.47
			c-0.97,2.75-2.22,5.54-2.43,8.37c-0.25,3.39,0.45,6.85,0.78,10.27c0.62,6.33,0.29,12.8,2.71,18.89c0.25,0.64-0.05,2.16-0.15,2.17
			c-3.08,0.15-1.58,2.57-1.37,3.51c1.23,5.65,1.91,11.32,1.84,17.11c-0.1,7.67-0.07,15.33,0,23c0.02,2.08,0.38,4.16,0.58,6.24
			c-2.48,0.13-2.52,2.12-2.58,3.96c-0.1,2.83,0.15,5.69-0.13,8.49c-0.47,4.72-1.7,9.39-1.8,14.1c-0.26,12.15-0.09,24.32-0.09,36.51
			c2-0.33,2.91,0.38,3.01,2.27c0.09,1.8,0.17,3.63,0.59,5.38c1.63,6.8,2.82,13.75,6.34,19.96c0.47,0.84,0.8,1.81,0.97,2.76
			c1.37,7.53,5.32,13.95,8.97,20.46c2.4,4.28,4.89,8.55,8.72,11.84c3.76,3.23,7.29,6.72,11.06,9.94c1.85,1.58,3.91,2.95,6.04,4.13
			c1.09,0.6,2.78,0.19,3.77,0.87c3.61,2.46,7.45,3.85,11.84,3.97c3.16,0.09,6.13,0.86,8.06,4.56c-2.93,1.87-5.7,3.63-8.47,5.4
			c0.1,0.24,0.21,0.48,0.31,0.72c1.44-0.23,2.89-0.45,4.41-0.69c-0.13,2.7-0.13,2.7-3.64,6.95c1.8,1.34,2.58,2.81,1.51,5.28
			c-0.94,2.16-1.17,4.73-1.26,7.14c-0.08,2.09,0.78,4.21,0.72,6.3c-0.2,7.1-0.41,14.22-1.06,21.29c-0.27,2.93-1.26,5.68-4.04,7.9
			c-4.21,3.35-7.93,7.38-11.55,11.39c-3.94,4.37-6.23,10.08-10.91,13.91c-0.23,0.19-0.22,0.63-0.42,0.88
			c-4.88,6.08-7.21,13.53-10.6,20.37c-3.23,6.53-6,13.33-7.54,20.6c-1.24,5.87-2.76,11.8-5.13,17.29
			c-2.73,6.32-5.2,12.75-6.45,19.42c-1.23,6.61-4.47,11.54-9.29,15.77c-1.97,1.73-3.98,3.44-6.06,5.04
			c-4.14,3.2-8.27,6.39-13.51,7.71c-4.57,1.14-9.08,2.51-13.63,3.73c-1.57,0.42-3.19,0.96-4.78,0.96
			c-7.07-0.02-14.07,0.35-21.09-1.82c-9.62-2.97-19.68-4.48-28.95-8.66c-0.58-0.26-1.26-0.44-1.9-0.44
			c-5.89-0.03-11.77-0.02-17.66,0c-0.26,0-0.53,0.19-0.8,0.29c0.31,0.48,0.6,0.95,1.28,2.02c-1.79-0.47-2.99-0.94-4.23-1.07
			c-4.38-0.47-5.6-6.39-10.42-6.01c-0.21-1.37-0.43-2.78-0.66-4.25c-4.66-0.19-4.22,6.89-9.23,5.74c-1.95-10.8,2.48-19.43,9.3-27.27
			c-1.42-2.57-0.24-4.69,1.18-6.78c1.74-2.56,3.34-5.24,5.24-7.67c1.06-1.36,2.5-3.05,3.98-3.29c1.57-0.25,2.51-0.87,3.55-1.79
			c3.48-3.07,7.36-4.06,11.45-2.07c3.46-2.4,6.65-4.7,9.92-6.86c2.71-1.79,5.5-3.01,8.32-0.02c0.5,0.53,1.37,0.71,2.58,1.3
			c2.59-4.72,4.79-9.49,8.7-13.71c0.32,1.74,0.52,2.85,0.88,4.83c5.99-12.07,11.89-23.34,17.19-34.88
			c2.42-5.28,3.66-11.1,5.46-16.67c1.92-5.97,2.95-12.06,2.98-18.36c0.01-2.1,0.88-4.2,0.83-6.29c-0.07-3.44-0.7-6.86-0.86-10.3
			c-0.32-6.93,0.65-13.92-1.02-20.79c-0.42-1.74-0.85-3.51-0.98-5.29c-0.5-6.72-1.58-13.41-4.27-19.51
			c-1.14-2.58-1.47-5.26-2.53-7.75c-1.34-3.13-2.91-6.17-4.36-9.26c-1.94-4.13-4.9-8.12-5.53-12.44c-0.69-4.73-2.61-8.78-4.43-12.87
			c-4.74-10.6-10-20.95-14.98-31.44c-7.91-16.64-17.88-31.9-29.72-46.03c-4.81-5.74-9.25-11.91-13.04-18.37
			c-5.11-8.71-9.76-17.73-13.97-26.91c-2.97-6.47-5.24-13.33-7.17-20.2c-3.76-13.35-7.69-26.59-14.31-38.9
			c-2.62-4.87-4.71-10.04-6.73-15.2c-2.65-6.78-5-13.69-7.57-20.79c-0.51,3.02-0.74,5.79-1.47,8.43c-1.81,6.55-1.41,13.37-3.7,20.01
			c-3.06,8.86-4.11,18.4-6.23,27.6c-4.02,17.45-8.01,34.91-12.32,52.29c-4.03,16.26-8.33,32.46-12.75,48.63
			c-2.53,9.26-5.25,18.48-8.39,27.55c-2.31,6.67-5.02,13.15-4.61,20.41c0.06,1.09-0.45,2.22-0.74,3.31
			c-1.73,6.45-3.76,12.83-5.12,19.35c-1.4,6.71-1.94,13.6-3.23,20.34c-1.63,8.57-2.53,17.2-2.86,25.9c-0.06,1.5,0.45,3.22-0.13,4.46
			c-1.95,4.17,0.07,7.59,1.41,11.27c2.06,5.65,4.42,11.24,4.72,17.4c0.4,8.29-1.78,15.61-7.91,21.34c0.33,1.26,0.8,2.34,0.86,3.43
			c0.39,7.93,0.74,15.86,1.02,23.8c0.13,3.83-0.14,7.68,0.19,11.49c0.37,4.39,1.26,8.73,1.81,13.11c0.45,3.59,0.49,7.24,1.15,10.78
			c1.14,6.08,2.58,12.1,3.99,18.13c0.43,1.84,1.17,3.6,1.65,5.04c3.91,0.45,7.94-2.43,10.52,2.23c0.21,0.38,1.21,0.44,1.85,0.46
			c2,0.06,4.01,0.16,6,0c5.61-0.45,7.78-0.81,11.14,6.71c1.93,4.32,3.54,8.86,6.02,12.85c4.92,7.92,5.25,16.44,4.46,25.03
			c-4.34,5.23-10.3,2.76-14.46,3.49c-3,2.63-5.23,4.74-7.63,6.62c-1.53,1.2-3.32,2.06-4.98,3.1c-0.46,0.29-1.04,0.61-1.23,1.06
			c-1.24,2.91-1.21,2.98-3.41,3.15c-1.49,0.12-3,0.07-4.5,0.05c-1.4-0.01-1.57,0.9-1.55,1.98c-4,0-8,0-12,0
			c-0.07-1.24-0.14-2.48-0.24-4.08c-6.45,0.28-12.17,1.88-17.76,4.08c-1.33,0-2.67,0-4,0c-0.33-0.32-0.61-0.83-1-0.92
			c-7.04-1.71-13.48-4.69-19.21-9.13c-2.6-2.01-5.25-4.01-7.55-6.33c-1.46-1.47-2.08-3.75-3.52-5.25c-1.43-1.49-1.7-3.03-1.76-4.92
			c-0.25-7.6-0.54-15.2-1.02-22.79c-0.18-2.86-0.93-5.68-1.42-8.52c-0.34-0.24-0.68-0.47-1.02-0.71c-0.27,0.77-0.54,1.54-0.81,2.31
			c-1.67-5.53-2.8-10.9-3.66-16.3c-0.54-3.39-1.2-6.92-0.79-10.26c0.23-1.85,0.12-3.43-0.33-5.06c-0.53-1.88-1.34-3.67-2-5.51
			c-2.48-6.88-4.95-13.76-7.43-20.64c0.92-4.68-2.17-8.04-3.92-11.83c-2.32-5.03-4.69-10.01-8.16-14.42
			c-1.17-1.49-2.3-3.55-2.26-5.32c0.08-3.78-2.1-5.18-4.65-5.8c-0.53-5.24-1.11-9.98-1.44-14.74c-0.13-1.94,0.37-3.92,0.44-5.89
			c0.1-2.61,0.43-5.28,0.01-7.81c-0.68-4.07-0.89-4.08,3.17-5.58c-2-3.43-6.7-5.13-6.58-10.53c2.55-0.51,5.06-1.02,7.67-1.55
			c2.14-4.99,5.1-9.33,10.5-11.67c1.14-0.49,2.3-2.2,2.45-3.47c0.68-5.95,1.25-11.94,1.39-17.92c0.08-3.58-1.01-7.18-1.02-10.77
			c-0.01-4.26,0.67-8.53,0.89-12.8c0.4-7.93,0.9-15.86,0.96-23.79c0.04-5.6-0.89-11.2-0.85-16.79c0.04-5.98-0.07-11.95-1.38-17.74
			c-2.25-9.99-4.49-20.02-8.23-29.61c-0.58-1.49-1.06-3.02-1.57-4.54c-1.3-3.83-3.54-7.63-3.7-11.5
			c-0.33-8.42-1.37-16.73-2.24-25.08c-0.3-2.91-0.07-6.5-1.67-8.53c-3.61-4.59-3.89-9.76-4.23-14.99
			c-0.31-4.65-0.25-9.34-0.02-13.99c0.32-6.57-0.8-12.71-4.03-18.5c-1.62-2.91-1.42-3.02,1.73-5.39c-3.19-3.58-6.39-7.14-9.54-10.73
			c-1.73-1.97-1.6-2.91,0.29-4.53c0.94-0.8,1.84-1.68,2.63-2.63c1.47-1.76,2.83-3.61,4.27-5.4c1.77-2.2,3.58-4.37,5.28-6.44
			c-2.76-2.47-6.71,3.03-8.75-2.1c6.32-4.21,12.44-8.29,18.95-12.63c-2.86-1.41-5.63-2.7-8.32-4.14c-0.93-0.5-2.11-1.21-2.41-2.08
			c-0.66-1.9,1.44-2.04,2.42-2.5c5.31-2.49,10.76-4.69,16.09-7.14c2.78-1.28,5.95-2.37,7.94-4.5c1.84-1.96,4.94-4.07,3.53-7.82
			c-0.07-0.19,0.25-0.72,0.48-0.79c3.3-0.97,3.32-4.1,4.29-6.55c2.62-6.64,5.91-12.91,6.38-20.44c0.52-8.44,1.84-16.79-0.29-25.15
			c-1.88-7.41-3.28-14.99-7.36-21.66c-1.45-2.37-2.96-4.72-4.13-7.22c-2.75-5.91-5.36-11.89-7.94-17.88
			c-2.9-6.73-5.85-13.45-8.49-20.28c-4.98-12.9-9.41-26.03-14.69-38.8c-6.1-14.76-10.01-30.29-16.56-44.93
			c-3.81-8.51-5.32-18.06-7.81-27.16c-1.25-4.6-1.48-9.38-2.27-14.03c-1.4-8.16-3.96-16.11-5.82-24.2
			c-1.29-5.62-3.8-11.12-1.98-17.16c0.3-1,0.19-2.71-0.46-3.31c-1.93-1.8-1.38-3.96-1.47-6.06c-0.05-1.16,0.03-2.33-0.01-3.5
			c-0.39-10.54,1.21-21.19-1.86-31.58c-0.19-0.64,0.39-1.51,0.62-2.27c0.41-1.36,0.98-2.7,1.22-4.09c0.68-3.9-0.24-7.94,1.45-11.84
			c0.78-1.79,0.13-4.2,0.13-6.42c-0.7-0.27-1.57-0.61-2.85-1.11c0.4-2.02,0.77-3.91,1.14-5.8c0.72-3.67,1.54-7.33,2.11-11.02
			c0.28-1.79-0.22-3.73,0.17-5.48c1.48-6.67,3.22-13.28,4.79-19.93c0.93-3.93,1.71-7.9,2.75-12.74c-1.32,1.21-1.84,1.69-2.99,2.75
			c1.73-7.18,3.44-13.59,4.78-20.09c1.06-5.16,4.17-10.17,1.61-15.74c-0.25-0.55-0.1-1.33,0.01-1.98c0.67-3.86,1.41-7.7,2.06-11.56
			c0.17-1.02,0.05-2.08,0.16-3.11c0.38-3.45,1.35-6.93-1.05-10.14c-0.24-0.32,0.43-1.31,0.76-2.2c-2.18-0.2-3.95-0.36-5.93-0.55
			c0-1.07-0.32-2.09,0.05-2.65c4.55-6.75,9.2-13.42,13.87-20.19c-0.95-0.79-1.88-1.55-3.14-2.59c3.4-2.84,6.53-5.45,9.65-8.05
			c-9.16-0.7-10.6-1.12-12.53-3.81c2.69-1.81,5.44-3.55,8.06-5.46c2.73-1.98,5.61-3.87,7.96-6.26c4.87-4.95,9.57-10.08,14.08-15.36
			c3.39-3.97,7.04-7.95,9.39-12.54c6.63-12.9,12.96-25.99,16.6-40.13c1.54-5.98,3.57-12.06,3.72-18.13
			c0.21-8.49,1.93-17.25-1.68-25.56c-0.25-0.57,0.01-1.33-0.11-1.98c-0.89-5.14-1.46-10.37-2.79-15.39
			c-2.09-7.85-5.1-15.48-6.98-23.37c-1.81-7.62-5.99-13.05-12.33-17.32c-6.43-4.33-11.88-9.62-14.56-17.19
			c-0.41-1.17-0.87-2.33-1.5-4.02c-3.44,10.16-6.85,19.58-9.8,29.14c-2.01,6.51-3.34,13.24-5.04,19.85
			c-0.93,3.62-1.97,7.22-3.02,10.8c-3.17,10.82-6.73,21.48-13.64,30.64c-0.68,0.91-1.16,2.27-2.06,2.65
			c-6.34,2.68-9.99,8.12-12.89,13.69c-3.81,7.32-10.61,11.52-15.9,17.26c-0.61,0.66-1.76,0.8-2.65,1.21
			c-0.87,0.4-1.98,0.64-2.53,1.32c-1.69,2.1-3.54,2.12-5.57,0.56c-1.56,2.43-2.94,4.59-4.39,6.85c-0.81-2.62-1.66-5.08-2.33-7.59
			c-1.4-5.24-2.04-10.69-7.84-13.64c-2.15-1.09-3.33-3.99-5.15-5.88c-3.63-3.78-7.43-7.41-11.09-11.17
			c-1.13-1.16-2.11-2.5-3.04-3.83c-3.19-4.55-6.47-9.04-9.42-13.74c-2.07-3.3-4.6-6.73-5.27-10.4c-1.64-8.98-4.88-17.58-5.55-26.81
			c-0.47-6.45-2.24-12.83-3.69-19.18c-2.03-8.9-2.3-18.08-4.86-26.92c-1.9-6.55-3.07-13.35-3.99-20.12
			c-1.04-7.65-1.44-15.38-2.11-23.08c-0.36-4.1-0.56-8.22-1.11-12.29c-0.42-3.06-1.3-6.05-1.95-9.08c-0.61-2.86-0.81-5.88-1.88-8.55
			c-1.13-2.8,3.27-6.06-0.88-8.43c-0.06-0.03,0.53-1.1,0.74-1.71c1.06-3.06,2.03-6.16,3.16-9.2c2.6-7.02,4.99-14.14,7.98-20.99
			c5.52-12.61,13.01-24.12,20.85-35.39c0.12-0.17,0.48-0.17,1.15-0.4c-0.25,0.97-0.43,1.66-0.64,2.45c1.44-0.26,2.83-0.68,4.24-0.72
			c3.89-0.11,7.36-1.37,10.42-3.67c2.23-1.67,4.44-3.43,6.4-5.4c2.9-2.92,6.11-4.06,10.09-2.73c2.41,0.8,4.84,1.57,7.41,2.4
			c1.48-0.87,3.13-1.64,4.56-2.72c4.55-3.43,12.2-3.09,15.8,0.96c1.73,1.95,2.95,4.36,4.74,6.22c2.79,2.89,4.31,7,8.48,9.14
			c0.16-0.96,0.53-1.68,0.33-2.15c-1.98-4.42-2.01-4.41,1.35-7.84c0.54-0.55,1.03-1.16,1.02-1.14c-1.12-0.98-2.05-1.79-2.9-2.54
			c1.04-1.3,1.27-1.81,1.67-2.05c5.3-3.18,8.56-7.85,10.63-13.63c2.03-5.65,6.02-10.09,10.19-14.41c-3.47-1.42-3.57-1.8-1.13-3.8
			c1.71-1.4,3.42-2.79,5.13-4.2c-1.85-1.61-3.49-3.04-5.29-4.6c1.05-0.88,1.51-1.58,2.06-1.67c3.84-0.61,7.09-1.89,9.34-5.44
			c0.69-1.09,2.88-1.22,4.39-1.78c1.66-0.62,3.34-1.16,4.96-1.85c1.1-0.47,2.12-1.15,3.19-1.75c-2.16-0.86-2.16-0.86-3.63-3.57
			c4.16,0.34,7.91,0.65,11.76,0.97c-0.78-2.54-4.44-3.22-3.24-6.79c4.9,0.22,9.81-0.73,14.6,1.42c1.87,0.84,4.02,1.58,5.44-1.18
			c0.83-1.6,2.3-1.53,3.85-0.59c1.73,1.06,3.59,1.91,5.4,2.85c0.36-0.52,0.71-1.03,1.12-1.62c3.05,2,5.92,3.89,9.02,5.92
			c-0.07-1.72-1.23-3.4,1.37-3.74c1.29,0.97,2.68,2.01,4.24,3.18c1.28-4.43,3.48-7.84,6.53-10.67c2.05-1.9,4.46-3.43,6.33-5.48
			c3.76-4.13,7.36-8.41,10.84-12.78c3.95-4.98,6.88-10.35,5.93-17.12c-0.32-2.29-0.5-4.77,0.04-6.97
			c1.49-6.07,0.58-12.42,2.75-18.43c1.21-3.36,0.15-4.63-2.72-6.14c-5.92,5.56-11.55,11.15-17.52,16.35
			c-3.43,2.99-7.42,5.34-11.12,8.02c-7.02,5.08-14.01,10.22-21.97,13.76c-3.14,1.39-6.33,3.11-10.12,1.79
			c6.47-5.95,12.82-11.69,19.06-17.55c5.66-5.32,10.43-11.47,15.59-17.24c5.56-6.21,10.29-12.73,13.52-20.04
			c-0.87-1-2.41-1.98-2.37-2.89c0.14-3.31-1.55-5.23-4.04-6.85c-2.35-1.53-1.07-2.55,0.51-3.45c-3.63-6.46-8.66-12.25-8.89-20.7
			c0.28-0.23,1.09-0.9,1.86-1.53c-0.45-0.97-0.87-1.87-1.3-2.8c0.56-0.84,1.18-1.75,1.63-2.44c-1.57-1.49-2.91-2.77-4.53-4.32
			c5.41-3.23,8.48-7.46,11.1-12.39c1.32-2.49,1.61-4.02-0.54-6.75c-1.2,1.51-2.39,2.92-3.48,4.39
			c-6.16,8.31-13.77,15.13-22.29,20.85c-4.81,3.23-9.5,6.48-13.4,10.79c-1,1.11-2.2,2.04-3.31,3.06c-0.18-1.16,0.08-1.9,0.49-2.54
			c3.71-5.95,7.35-11.94,11.18-17.81c8.27-12.67,14.84-26.04,17.9-41c1.9-9.25,4.27-18.39,7.97-27.12c0.95-2.25,1.96-4.47,2.95-6.7
			c-13.67,12.46-26.28,25.62-37.73,39.82c-1.18-1.35-0.77-2.76,0.16-4.21c1.82-2.87,3.85-5.63,5.38-8.65
			c4.89-9.65,11.01-18.5,17.39-27.2c1.89-2.58,3.65-5.25,5.48-7.88c-10.94,4.66-21.2,10.15-32.77,12.1
			c-4.68,0.79-9.52,1.67-14.18,1.27c-4.26-0.36-8.76-0.89-12.73-3.2c-1.14-0.66-2.87-0.45-4.32-0.37c-1.04,0.05-2.05,0.54-4.13,1.13
			c2.56-1.9,4.02-3.54,5.84-4.2c3.65-1.33,7.55-1.96,11.25-3.18c10.37-3.43,20.79-6.71,30.45-11.96c7.17-3.9,13.35-8.87,18.21-15.53
			c3.86-5.29,7.82-10.58,12.31-15.32c2.67-2.81,3.89-5.53,3.46-9.24c-0.17-1.48-0.55-3.32,0.12-4.43c1.29-2.12,0.13-3.84-0.27-5.61
			c-1.45-6.36-3.64-12.65-0.42-19.12c0.15-0.3-0.26-0.85-0.26-1.28c-0.03-2.65-0.01-5.3-0.01-7.85c1.53-1.77,3.08-0.85,4.83,0.11
			c1.29-8.71,2.53-17.09,3.78-25.54c0.49,0.08,1.21,0.19,2,0.31C223.49,8.57,223.93,3.6,227.84,0z M75.14,546.67
			c2.87-8.44,5.01-15.97,8.01-23.14c2.27-5.43,4.3-10.85,5.84-16.54c1.58-5.78,3.38-11.6,5.97-16.99
			c3.96-8.24,5.56-16.97,6.87-25.84c0.38-2.55,0.74-5.1,1.05-7.18c-2.16-2.85-4.36-1.38-6.14-0.79c-1.17,0.39-2.6,1.94-2.75,3.12
			c-0.69,5.52-2.81,10.84-2.17,16.54c0.45,3.98-1.39,6.8-5.44,9.4c-0.23-2.21-0.47-3.75-0.53-5.3c-0.06-1.51-0.71-2.32-2.12-2.97
			c-2.22-1.03-4.27-2.39-6.66-3.77c-5.06,5.46-10.86,10.47-17.42,14.73c-3.21,2.09-6.44,3.82-10,4.96
			c-3.66,1.17-4.32,2.84-2.22,6.19c1.9,3.03,3.73,6.11,5.45,9.24c4.15,7.55,6.63,15.94,11.7,23.04
			C67.98,536.15,71.24,541.01,75.14,546.67z M290.27,984.19c-0.78,0.81-1.47,2.13-2.17,2.14c-3.99,0.05-5.82,1.5-5.17,4.68
			c0.69,3.34,1.53,6.65,2.4,9.95c1.11,4.24,2.94,8.41,3.27,12.7c0.27,3.51,0.68,6.96,1.2,10.43c0.76,5.12,3.11,9.77,3.35,15.14
			c0.26,5.79,2.11,11.5,3.22,17.06c1.87-2.69,1.22-6.06,1.58-9.28c0.46-4.22,1.37-8.38,1.85-12.6c0.79-7.01,1.38-14.05,2.08-21.08
			c0.63-6.36,1.55-12.71,1.88-19.09c0.3-5.84-2.96-8.92-8.84-9.27C293.48,984.89,292.06,984.5,290.27,984.19z"/>
	</g>
</g>
</svg>
