<?xml version="1.0" encoding="utf-8"?>
<!-- Generator: Adobe Illustrator 24.0.2, SVG Export Plug-In . SVG Version: 6.00 Build 0)  -->
<svg version="1.1" id="Layer_2" xmlns="http://www.w3.org/2000/svg" xmlns:xlink="http://www.w3.org/1999/xlink" x="0px" y="0px"
	 width="192" height="743" viewBox="0 0 192 743" style="enable-background:new 0 0 192 743;" xml:space="preserve">
<path d="M176,264c-15-20-23-31-25-39s-2-39-5-49S131,53.06,131,45c0-2,5-2,5-2l-6-27c0,0,0-4,2-4c6.08,0-4-12-4-12H96H64
	c0,0-10.08,12-4,12c2,0,2,4,2,4l-6,27c0,0,5,0,5,2c0,8.06-12,121-15,131s-3,41-5,49s-10,19-25,39C1.48,283.37,0,298,0,298v378v30
	c0,0,3,19,15,28s81,9,81,9s69,0,81-9s15-28,15-28v-30V298C192,298,190.52,283.37,176,264z"/>
</svg>
