<?xml version="1.0" encoding="utf-8"?>
<!-- Generator: Adobe Illustrator 23.1.0, SVG Export Plug-In . SVG Version: 6.00 Build 0)  -->
<svg version="1.1" id="Layer_1" xmlns="http://www.w3.org/2000/svg" xmlns:xlink="http://www.w3.org/1999/xlink" x="0px" y="0px"
	 viewBox="0 0 2200.58 2434.76" style="enable-background:new 0 0 2200.58 2434.76;" xml:space="preserve">
<path d="M836.44,2290.49c17.74-22.26,33.46-45.28,45.74-70.52c1.68-3.46,2.85-7.58,2.84-11.38c-0.09-24.94,5.92-49.03,12.37-72.62
	c7.93-29.03,20.95-56.18,42.25-78.44c3.22-3.37,6.48-6.75,9.31-10.44c1.55-2.02,2.99-4.65,3.17-7.1c0.82-11.28,1.6-22.6,1.58-33.9
	c-0.02-9.94-4.62-16.95-13.62-22.59c-23.12-14.49-46.99-27.94-68.42-45.01c-4.13-3.29-8.19-6.86-11.54-10.91
	c-5.94-7.18-11.61-14.62-16.83-22.34c-3.7-5.47-6.95-11.37-9.57-17.43c-3.96-9.16-7.4-18.57-10.68-28
	c-3.28-9.43-6.33-18.72-12.84-26.8c-3.6-4.47-5.92-10.71-6.79-16.45c-1.38-9.14-6.31-15.87-11.47-22.71
	c-0.33,0.15-9.51,4.43-9.95,4.63c-1.91-6.43-3.81-12.79-5.89-19.77c-2.76,0-5.75,0-8.85,0c-0.64-0.86-2.03-1.86-2.03-2.86
	c-0.03-9.97-0.12-19.95,0.43-29.89c0.26-4.66,1.47-8.87-2.57-12.88c-1.31-1.3-0.98-5.26-0.14-7.53c2.08-5.59,4.65-11.05,7.51-16.29
	c2.4-4.42,2.62-8.74,1.53-13.48c-4.74-20.77-9.42-41.55-13.97-62.37c-1.13-5.16-1.72-10.44-2.6-15.89
	c-4.18,2.62-1.18,6.49-1.91,9.59c-0.44,1.87-0.9,3.79-1.74,5.5c-0.76,1.55-4.34,0.75-7.02-1.22c-7.72-5.67-13.33-12.85-16.78-21.86
	c-3.81-9.97-7.61-19.88-8.51-30.67c-0.63-7.49-3.52-13.97-8.5-19.82c-4.3-5.04-7.92-10.72-11.3-16.44
	c-2.69-4.55-4.92-9.46-6.71-14.44c-3.08-8.59-3.12-16.8,3.81-24.08c5.5-5.77,10.01-12.54,15.79-17.98
	c10.68-10.03,16.94-22.34,19.54-36.36c5.11-27.49,10.7-54.93,11.94-83.01c0.33-7.39,0.27-14.57-1.56-21.8
	c-1.8-7.09-2.92-14.35-4.46-21.52c-3.77-17.65-6.51-35.39-5.49-53.53c0.19-3.32,0.26-6.68-0.01-9.99
	c-2.79-33.83,9.3-62.66,29.56-88.8c0.78-1.01,1.14-2.34,1.99-4.13c-1.73-5.77-8.13-7.92-11.63-12.57c-3.6-4.77-7.64-9.2-12.09-14.5
	c-4.97,0.65-10.38,0.56-15.26,2.14c-15.87,5.14-31.18,11.73-45.06,21.13c-11.13,7.54-20.88,16.26-27.3,28.59
	c-5.61,10.78-14.02,19.41-24.67,25.61c-1.14,0.66-2.36,1.41-3.61,1.58c-1.19,0.16-2.75-0.04-3.64-0.73
	c-0.85-0.66-1.71-2.37-1.43-3.26c1.19-3.76,2.35-7.67,4.35-11.02c6.85-11.48,11.8-23.79,16.55-35.28c0.05-4.77-2.97-6.66-5.27-8.94
	c-22.3-22.09-45.69-42.83-72.52-59.42c-23.93-14.79-49.25-26.42-75.99-35.13c-25.01-8.15-50.56-11.49-76.81-10.35
	c-24.79,1.08-48.66,6.94-72.81,12.55c-8.79,12.87-17.37,25.45-26.29,38.52c-1.63-1.87-3.66-3.12-3.88-4.64
	c-1.15-7.98-0.9-15.93,1.72-23.69c1.82-5.38,0.79-10.17-2.07-15.2c-3.6-6.33-6.15-13.26-9.12-19.95
	c-5.78-13.02-14.15-23.99-25.26-33c-29.01-23.55-58.83-46-91.03-65.01c-13.73-8.11-28.1-15.25-42.59-21.94
	c-30.29-13.97-59.93-29.07-88.56-47.73c-9.88,3.23-18.62,9.22-26.2,16.68c-3.16,3.11-4.92,7.75-6.98,11.87
	c-3.55,7.1-6.76,14.37-10.34,21.46c-0.39,0.77-2.35,1.27-3.38,1.03c-0.95-0.22-2.25-1.56-2.33-2.5c-1.05-12.65-0.6-25.28,2.22-37.67
	c2.42-10.62,7.72-19.83,15.64-27.4c7.22-6.91,14.39-13.88,21.82-20.56c13.98-12.57,25.54-27.11,36-42.66
	c3.84-5.71,6.06-11.77,6.64-18.54c0.06-0.66,0.33-1.31,0.36-1.96c1.67-37.36,9.77-73.94,13.58-111.05
	c0.81-7.87,2.87-15.73,5.28-23.3c3.02-9.51,6.93-18.74,10.57-28.04c2.19-5.58,3.65-11.17,4.4-17.25c1.13-9.17,3.49-18.31,6.38-27.11
	c7.08-21.51,14.42-42.95,22.36-64.15c3.96-10.57,9.38-20.59,14.28-30.79c5.48-11.41,11.7-22.5,16.54-34.16
	c6.45-15.56,15.15-29.65,25.45-42.8c6.23-7.96,10.97-16.44,14.09-26.16c5.53-17.24,14.19-32.91,25.13-47.45
	c20.83-27.69,41.31-55.65,61.82-83.58c5.58-7.6,11.97-14.21,19.6-19.78c24.21-17.7,47.49-36.82,72.64-53.06
	c30.78-19.87,63.76-35.94,99.47-45.37c5.36-1.42,9.94-3.43,14.07-6.95c3.55-3.02,7.29-5.83,10.91-8.76
	c25.65-20.73,54.3-36.08,85.29-47.08c12.54-4.45,25.22-8.56,37.98-12.31c16.08-4.73,32.59-6.69,49.36-6.52
	c10.62,0.1,21.25,0.02,31.04,0.02c2.82-3.43,1.92-5.9,0.63-8.18c-5.72-10.09-13.78-17.87-23.73-23.76c-2.3-1.36-4.44-3-3.69-6.25
	c24.34-2.15,32.88,0.77,56.03,19.13c10.63,1.33,21.18,2.24,31.58,4.06c10.59,1.85,20.3,6.29,29.41,12.03
	c9.58,6.04,19.64,11.42,28.76,18.08c9.63,7.04,18.92,14.73,27.42,23.09c9.03,8.88,18.15,17.58,27.75,25.85
	c7.55,6.51,14.66,13.58,21.48,20.86c7.66,8.17,10.75,17.93,9.54,29.37c-1.42,13.39-4.39,26.27-9.85,38.53
	c-6.77,15.21-13.9,30.26-20.7,45.46c-3.53,7.89-6.74,15.92-10.01,23.92c-5.33,13.04-13.48,24.48-20.86,36.33
	c-1.35,2.17-3.54,4.05-5.73,5.45c-12.92,8.24-20.44,20.64-26.6,34.09c-5.55,12.1-10.82,24.33-16.41,36.41
	c-5.06,10.95-11.64,20.97-19.52,30.11c-10.51,12.18-18.87,25.77-26.53,39.84c-2.86,5.24-6.24,10.2-9.13,15.43
	c-1.91,3.46-3.37,7.18-5.14,11.03c6.48,21.82,14.59,42.9,25.28,62.94c8.47,15.89,18.3,30.77,29.55,44.97
	c23.17,29.24,45.22,59.37,67.8,89.09c3.96,5.21,6.82,11.49,13.19,14.72c9.56-6.36,19.06-12.36,28.17-18.93
	c3.45-2.49,8.1-5.02,6.41-11.5c-6.97-0.36-14.1-0.73-22.02-1.15c0.84-2.68,0.86-5.05,2.03-6.04c4.07-3.43,8.64-6.24,12.83-9.53
	c8.85-6.92,13.44-16.32,15.3-27.2c0.88-5.14-1.07-9.34-5.28-12.08c-8.19-5.33-16.86-7.76-26.28-2.86c-1.76,0.91-3.75,2.2-5.51,2.03
	c-1.5-0.15-4-2.16-4-3.34c0.01-4.58,0.84-9.16,1.48-14.65c-2.55-1.4-5.33-3.08-8.24-4.5c-9.5-4.63-15.66-12.17-18.94-22.03
	c-0.48-1.43,0.59-3.68,1.56-5.15c0.52-0.79,2.64-1.36,3.53-0.94c7.44,3.49,15.21,4.83,23.28,3.54c2.39-0.38,4.57-2.06,6.51-2.98
	c-0.11-2.23,0.26-3.73-0.31-4.67c-2.73-4.56-5.7-8.97-8.76-13.71c-4.24-3.15-8.58-0.37-13.06,0.34c-1.39,0.22-3.31-1.32-4.52-2.51
	c-0.38-0.38,0.37-2.77,1.23-3.4c5.88-4.3,11.87-8.44,17.94-12.48c2.12-1.41,5.12-1.67,5.79-4.83c-0.1-0.57,0-1.48-0.35-1.73
	c-9.26-6.63-16.25-15.57-24.2-23.54c-10.1-10.13-17.66-21.65-21.93-35.26c-3.58-11.42-7.59-22.79-10.07-34.47
	c-3.1-14.56-1.65-29.18,3.04-43.38c1.38-4.18,5.83-6.14,9.57-4.16c3.52,1.86,7.06,3.77,10.31,6.06
	c17.42,12.25,34.74,24.65,52.16,36.92c1.53,1.08,3.5,1.54,5.96,2.58c2.86-8.49-1.44-15.96-1.51-23.62
	c-0.08-7.98-0.18-15.96-0.04-23.94c0.14-7.88-1.05-16.09,4.84-23.26c1.64,0.87,4.12,1.34,4.81,2.71c2.68,5.34,4.61,11.06,7.17,16.47
	c1.96,4.13,4.46,8.01,6.97,12.44c2.1-1.76,3.91-2.7,4.89-4.18c4.05-6.11,7.81-12.4,11.74-18.59c6.58-10.32,10.42-21.51,11.21-33.77
	c0.25-3.96,0.81-7.92,1.59-11.81c0.18-0.91,1.8-1.65,2.9-2.18c0.39-0.19,1.36,0.31,1.76,0.76c1.3,1.45,2.78,2.87,3.63,4.58
	c8.06,16.24,14,33.11,14.08,52.11c2.46-0.51,4.75-0.32,5.93-1.37c2.44-2.18,4.48-4.9,6.35-7.62c3.01-4.39,5.47-9.18,8.66-13.43
	c10.76-14.36,16.59-30.26,16-48.33c-0.02-0.64,0.13-1.47,0.54-1.89c0.87-0.89,1.89-2.05,2.98-2.21c1.02-0.15,2.79,0.55,3.22,1.39
	c3.03,5.9,5.77,11.95,8.67,17.92c1.15,2.38,2.46,4.68,3.7,7c5.02-0.91,5.27-5.44,7.23-8.43c8.67-13.26,19.98-23.09,35.29-27.95
	c4.04-1.28,8.35,1.91,7.86,6.27c-0.52,4.61-1.68,9.14-2.35,13.74c-1.13,7.78-3.52,15.56-0.76,23.36c4.68,0.49,5.67-3.18,7.78-5.54
	c2.14-2.4,4.52-4.63,7.07-6.58c0.58-0.44,2.91,0.25,3.36,1.04c0.95,1.67,1.46,3.71,1.69,5.65c0.62,5.28,0.68,10.65,1.6,15.87
	c0.42,2.39,2.31,4.53,3.38,6.49c9.24,0.09,16.12-3.89,22.83-8.28c13.95-9.11,27.82-18.34,41.8-27.4c3.89-2.52,8.04-4.66,12.16-6.79
	c1.12-0.58,2.57-0.5,4.42-0.82c0.49,1.69,1.96,3.96,1.34,5.1c-2.21,4.05-4.9,7.89-7.82,11.48c-7.28,8.94-12.1,19.09-15.38,30.03
	c-0.52,1.72-0.07,3.73-0.07,6.49c2.35-0.28,4.23-0.07,5.7-0.75c6.03-2.79,11.89-5.95,17.92-8.73c1.73-0.8,3.86-1.04,5.79-1.01
	c1.15,0.02,2.61,0.81,3.33,1.73c0.69,0.88,1.17,2.65,0.74,3.55c-3.16,6.6-6.72,13.02-9.82,19.64c-1.03,2.2-2.81,4.57-1.25,7.51
	c5.07,2.78,7.16-5.57,12.76-3.15c7.82,24.17,3.85,49.59,4.78,74.31c2.79,2.72,5.29,1.44,7.1-0.32c7.61-7.39,14.98-15.05,22.57-22.45
	c0.73-0.71,2.74-0.9,3.66-0.41c0.9,0.49,1.8,2.29,1.6,3.29c-3.06,15.63-4.81,31.54-11.17,46.45c-5.57,13.05-12.98,24.73-22.79,34.95
	c-2.7,2.82-5.19,5.83-8.11,9.15c3.93,5.75,10.87,5.76,14.89,10.12c4.05,4.38,8.6,8.36,13.28,12.08
	c8.98,7.14,18.74,12.69,30.57,13.66c1.9,0.15,3.87,1,5.5,2.03c0.67,0.43,1.09,2.61,0.62,3.23c-1.17,1.52-2.79,2.81-4.46,3.81
	c-10.66,6.44-22.54,7.6-34.63,8.08c-5.88,0.24-11.95-1.87-17.68,1.09c0.89,10.07,3.79,19.43,8.26,28.46
	c7.54,15.22,9.43,31.81,10.61,48.47c0.18,2.51-0.97,5.13-1.66,7.66c-0.1,0.35-1.16,0.73-1.69,0.62c-1.2-0.24-2.97-0.44-3.4-1.24
	c-1.53-2.9-2.55-6.07-3.83-9.11c-5.13-12.17-8.35-15.4-22.97-23.09c-3.14,2.67-3.24,8.97-9.77,7.83c-1.34-0.24-3.84,1.47-4.52,2.89
	c-9.53,19.95,5.04,45.93,23.49,49.41c5.12,0.97,10.19,2.15,15.06,3.19c0.65,5.96-3.14,7.99-6.82,8.97c-6.38,1.71-13,2.53-20.12,3.83
	c0.39,1.72,0.2,3.97,1.23,5.03c13.33,13.63,19.31,29.99,18.79,48.9c-0.02,0.6,0.45,1.2,1.02,2.6c10.59,5.57,22.18,10.33,34.41,13.38
	c8.35,2.08,15.98,0.58,21.73-6.4c6.78-8.23,13.62-16.41,20.05-24.9c20.11-26.57,40-53.31,60.04-79.93
	c6.01-7.99,11.91-16.1,18.42-23.66c24.38-28.32,38.51-62.03,51.35-96.45c2.98-8,2.28-15.48-3.08-22.65
	c-3.55-4.75-6.05-10.29-9-15.49c-6.91-12.18-13.75-24.48-23.04-35.02c-13.87-15.73-23.92-33.71-31.61-52.96
	c-15.8-39.58-31.35-79.28-46.26-119.2c-4.4-11.77-6.61-24.41-9.25-36.77c-1.81-8.45-2.76-17.1-3.85-25.69
	c-1.43-11.23-2.73-22.49-3.89-33.75c-1.52-14.77-1.36-29.35,6.41-42.73c2.33-4.02,4.51-8.3,7.63-11.65
	c11.34-12.21,23.06-24.04,37.77-32.38c6.37-3.61,12.81-7.23,18.7-11.55c18.45-13.55,39.37-18.91,61.84-19.58
	c1.32-0.04,2.63-0.25,5.25-0.51c15.73-13.35,33.52-24.48,57.41-18.95c-1.94,6.01-7.95,7.04-11.55,10.58
	c-3.78,3.72-8,7.08-11.28,11.19c-3.17,3.98-7.39,7.8-6.57,14.37c1.72,0.5,3.47,1.41,5.23,1.45c8,0.19,16,0.29,23.99,0.15
	c26.31-0.47,51.65,4.46,76.35,13.26c18.83,6.71,37.44,13.7,55.11,23.34c17.64,9.62,34.57,20.06,49.81,33.15
	c7.66,6.58,15.56,11.57,26.22,13.09c9,1.28,17.66,5.76,26.16,9.52c14.01,6.2,27.91,12.66,41.57,19.59
	c9.47,4.81,18.92,9.92,27.54,16.07c23.33,16.63,46.19,33.94,69.3,50.88c8.13,5.96,15.16,12.85,21.14,21.04
	c20.44,27.98,40.98,55.9,61.82,83.58c10.95,14.54,19.4,30.31,25.14,47.46c3.01,8.97,6.97,17.14,12.86,24.58
	c10.79,13.62,19.93,28.23,26.66,44.4c4.85,11.66,10.98,22.79,16.54,34.16c7.31,14.96,14.55,29.89,19.44,45.93
	c4.27,14,9.82,27.6,14.6,41.45c4.34,12.58,8.78,25.13,9.6,38.64c0.23,3.86,1.84,7.69,3.18,11.41c3.37,9.4,7.23,18.64,10.34,28.12
	c2.48,7.57,4.89,15.3,6.03,23.15c3.54,24.38,6.59,48.84,9.57,73.3c1.53,12.56,2.68,25.17,3.62,37.78
	c0.61,8.16,2.72,15.45,7.43,22.35c10.57,15.47,22.05,30.06,36.04,42.62c7.43,6.67,14.62,13.64,21.82,20.57
	c8.94,8.61,14.71,19.21,16.31,31.37c1.47,11.16,1.37,22.53,1.78,33.81c0.03,0.92-1.15,2.42-2.06,2.71
	c-1.01,0.32-2.82-0.06-3.48-0.82c-1.71-1.97-3.29-4.18-4.37-6.55c-2.21-4.84-4.37-9.75-6.01-14.8c-2.59-7.98-7.44-14.07-14.31-18.63
	c-6.07-4.03-11.75-8.82-19.33-10.76c-29.59,19.13-60.77,35.53-93.22,49.54c-20.26,8.74-39.14,20.04-57.47,32.21
	c-24.44,16.22-47.98,33.7-70.75,52.22c-12.2,9.92-21.15,22.04-27.38,36.34c-3.45,7.92-6.99,15.79-11.15,25.16
	c1.42,10.15,5.25,21.82,1.46,34.41c-2.12-0.8-4.5-0.94-5.32-2.14c-6.03-8.78-12.04-17.59-17.47-26.74
	c-4.1-6.91-9.67-10.19-17.57-11.46c-19.04-3.05-37.7-8.2-57.15-9.12c-28.95-1.36-57.05,1.95-84.62,11.27
	c-46.82,15.83-88.34,40.34-124.31,74.14c-8.68,8.16-18.35,15.42-25.73,25.84c1.69,9.05,6.59,17.05,10.18,25.51
	c1.55,3.66,3.86,6.99,5.7,10.53c2.65,5.11,7.45,9.81,3.34,16.32c-6.12,1.33-9.49-3.54-13.71-6.28
	c-8.04-5.21-13.69-12.83-18.07-21.05c-9.27-17.39-24.36-27.99-41.23-36.41c-13.67-6.82-27.46-13.3-42.95-15.75
	c-8.42-1.33-16.38-5.47-24.58-8.24c-2.4-0.81-4.93-1.27-7.76-1.99c-1.77,2.67-3.51,4.7-4.61,7.04
	c-8.33,17.67-19.55,33.27-33.33,47.08c-1.88,1.88-3.71,3.85-5.32,5.96c-6.37,8.36-9.36,17.5-6.03,29.07
	c2.59-1.29,5.16-1.96,6.91-3.54c8.87-8.01,17.5-16.3,26.33-24.37c0.81-0.74,2.7-1.11,3.63-0.66c0.9,0.43,1.29,2.09,1.73,3.27
	c0.22,0.59,0.25,1.36,0.09,1.98c-6.12,23.42-13.88,45.99-32.73,62.77c-0.5,0.44-0.92,0.97-1.44,1.39
	c-10.01,8.16-16.88,18.43-22.14,30.24c-4.03,9.07-9.69,17.42-14.68,26.06c-1,1.73-2.55,3.18-3.31,4.99
	c-11.67,27.62-23.06,55.33-24.77,85.84c-0.45,7.98-1.46,15.95-1.58,23.93c-0.09,5.96,0.82,11.94,1.36,18.77
	c2.63,3.13,5.52,6.71,8.56,10.16c5.55,6.31,8.08,13.68,8.02,22.01c-0.08,11.31,0.08,22.62-0.29,33.92
	c-0.29,8.67-1.47,17.27-4.92,25.38c-3.13,7.35-6.28,14.7-9.33,22.08c-6.09,14.77-17,25.27-30.04,33.81
	c-1.42,0.93-3.57,0.76-5.28,1.08c-2.83-4.42,1.33-6.16,2.54-8.86c1.36-3.02,2.78-6.02,4.12-9.05c1.38-3.13,2.17-6.29-0.03-9.33
	c-0.67,0-1.43-0.24-1.86,0.04c-6.16,3.9-12.27,7.87-18.85,12.11c-0.5,3.9-1.44,7.79-1.41,11.67c0.16,20.43-3.79,39.6-15.2,57.04
	c-5.95,9.09-7.3,19.91-8.64,30.48c-0.83,6.59-0.93,13.26-1.42,20.88c3.8,7.76,10.68,14.22,16.62,21.29
	c7.02,8.36,12.16,17.52,14.24,28.21c4.97,25.6,8.74,51.17,1.25,77.11c-2,6.92-1.97,14.49-2.35,21.78c-0.56,10.77-3.05,21-6.9,31.05
	c-6.21,16.21-13.2,32.04-22.3,46.84c-5.6,9.11-10.36,18.57-13.86,28.23c0.6,1.76,0.71,3.28,1.51,4.21
	c20.98,24.4,29.31,53.49,30.29,84.82c0.64,20.62,0.04,41.33-1.19,61.93c-0.67,11.21-3.36,22.38-5.95,33.38
	c-3.27,13.92-3.73,27.47,0.21,41.42c3.06,10.86,4.5,22.17,6.78,33.25c3.64,17.65,7.99,35.02,17.86,50.54
	c2.82,4.43,5.09,9.51,6.32,14.6c1.76,7.27,5.04,13.16,9.49,19.26c4.94,6.79,7.57,15.45,10.28,23.61c2.72,8.17,4.36,16.62,7.96,24.61
	c4.81,10.7,3.14,22.26,2.2,33.53c-0.39,4.68-4.5,8.35-9.64,8.54c-5.96,0.21-12.05,0.43-17.9-0.53c-12.46-2.06-24.79-4.88-38.23-7.6
	c-4.74,4.05-11.49,6-18.93,7.31c-15.3,2.7-30.48,2.58-45.78,0.82c-6.79-0.78-12.8-3.17-17.65-8.41c-5.38,0.95-10.52,2.29-15.73,2.64
	c-5.27,0.36-10.64,0.09-15.89-0.56c-5.01-0.61-8.51-3.65-9.66-8.79c-0.58-2.6-1.09-5.24-1.28-7.89c-1.09-15.34-0.37-30.58,2.2-45.78
	c1.28-7.55,4.25-13.94,9.82-19.15c1.93-1.81,3.86-3.63,5.62-5.29c1.97-9.42,4.18-18.43,5.7-27.57c2.51-15.11,4.56-30.24,4.24-45.69
	c-0.33-15.95-1.18-31.97,2.46-47.8c1.85-8.06-0.32-16.1-3.5-23.42c-6.36-14.63-13.47-28.94-20.33-43.36
	c-0.2-0.42-1.02-0.55-1.63-0.86c-3.95,0.19-5.19,3.72-7.1,6.24c-4.03,5.3-7.48,11.07-11.81,16.1c-1.95,2.27-5.42,3.22-8.92,5.18
	c-0.37,3.87-0.69,8.46-1.27,13.02c-0.32,2.49-4.45,3.87-6.44,2.16c-2.48-2.14-5.3-4.17-7.01-6.87c-3.55-5.61-6.5-11.61-9.64-17.48
	c-1.85-3.47-3.59-6.99-5.47-10.67c-5.43,3.26-1.9,9.01-5.54,12.95c-1.2-0.31-3.32-0.24-4.44-1.27c-2.93-2.69-5.46-5.82-8.06-8.85
	c-2.04-2.38-1.97-6.68-6.41-6.85c-0.68,0.83-1.82,1.62-2.11,2.64c-6.69,24.27-20.58,44.57-35.6,64.18
	c-6.89,8.99-14.27,17.61-21.66,26.19c-3.71,4.31-5.17,8.79-4.74,14.59c0.98,13.28,1.79,26.62,1.64,39.92
	c-0.25,20.77-8,38.92-21.58,54.53c-0.87,1-3.37,0.83-5.06,0.67c-0.37-0.03-0.78-2.36-0.71-3.61c0.07-1.28,0.83-2.51,1.07-3.81
	c0.84-4.55,2.24-9.12,2.26-13.69c0.07-24.56,1.87-24.23-11.69-40.59c-1.25-1.51-1.86-3.54-2.95-5.2c-0.71-1.08-1.75-1.95-3.29-3.61
	c-1.93,1.78-4.01,3.19-5.43,5.1c-3.57,4.82-6.81,9.88-10.22,14.8c-6.89,9.93-12.47,20-12.49,32.92
	c-0.03,14.18-8.03,23.5-21.82,27.56c-1.9,0.56-3.65,1.61-5.5,2.36c-6.24,2.54-13.21,2.29-19.33,4.22
	c-5.99,1.88-10.55,7.88-16.27,11.12c-5.81,3.29-12.43,5.13-19.25,4.24c-11.15-1.44-22.69-1.9-31.7-10.33
	c-4.09,1.22-7.81,3-11.66,3.32c-5.24,0.44-11.25,1.28-15.72-0.73c-8.63-3.88-17.1-6.5-26.62-6.68c-5.71-0.1-10.89-7.95-9.15-13.28
	c6.21-18.94,10.55-38.56,20.66-56.1c3.15-5.47,7.19-9.22,13.16-11.5c7.58-2.89,15.47-6.32,23.26-4.09
	C811.79,2294.05,824.01,2290.19,836.44,2290.49z M1174.19,1164.27c5.34,11.91,10.78,22.62,14.98,33.79
	c5.28,14.02,13.14,25.99,24.38,35.82c1.87,1.63,3.28,4.04,7.07,2.47c3.04-15.91,6.51-32.27,15.38-46.62
	c4.87-7.89,5.4-16.01,4.61-24.84c-1.51-16.93-1.52-15.7-18.14-14.71c-4.65,0.28-9.3,0.47-13.94,0.91
	C1197.05,1152.19,1187.51,1155.8,1174.19,1164.27z"/>
</svg>
