<?xml version="1.0" encoding="utf-8"?>
<!-- Generator: Adobe Illustrator 23.1.0, SVG Export Plug-In . SVG Version: 6.00 Build 0)  -->
<svg version="1.1" id="Layer_1" xmlns="http://www.w3.org/2000/svg" xmlns:xlink="http://www.w3.org/1999/xlink" x="0px" y="0px"
	 viewBox="0 0 1465.44 2384.13" style="enable-background:new 0 0 1465.44 2384.13;" xml:space="preserve">
<path d="M561.64,697.07c9.68-12.73,19.34-25.47,29.03-38.19c21.81-28.63,43.19-57.59,65.6-85.74
	c15.11-18.99,26.38-39.99,36.12-61.91c5.13-11.53,8.86-23.68,13.32-35.51c1.81-4.78,1.08-9.37-1.46-13.4
	c-13.44-21.37-24.35-44.31-41.35-63.48c-11.59-13.06-18.72-29.13-25.36-45.15c-8.92-21.53-17.16-43.34-25.61-65.06
	c-5.07-13.03-9.69-26.25-15.06-39.16c-6.96-16.71-11.92-33.98-14.56-51.8c-3.22-21.74-5.95-43.56-8.18-65.42
	c-2.08-20.37,4.39-38.09,18.9-52.72c11.76-11.86,24.06-23.02,38.97-30.94c4.7-2.5,9.35-5.21,13.61-8.38
	c18.42-13.66,39.46-18.64,61.89-19.34c1.31-0.04,2.62-0.32,4.68-0.58c16.06-13.19,33.47-24.58,56.73-18.73
	c-0.67,4.63-4.27,5.54-6.75,7.49c-2.61,2.06-5.5,3.78-8.04,5.93c-2.02,1.71-3.79,3.75-5.47,5.81c-2.1,2.58-4.04,5.29-5.98,8
	c-1.97,2.76-3.56,5.64-1.19,10.08c6.75,0.1,14.01,0.53,21.26,0.27c31.11-1.12,60.73,5.25,89.98,15.58
	c22.13,7.82,42.88,18.14,63.31,29.39c13.52,7.44,25.32,17.24,37.23,26.88c6.25,5.06,12.58,8.79,21.03,10.36
	c10.31,1.91,20.21,6.54,29.97,10.74c12.84,5.52,25.31,11.91,38.06,17.65c10.99,4.95,21.35,10.9,31.03,18.05
	c21.97,16.24,43.87,32.59,65.99,48.63c9.82,7.12,18.09,15.49,25.23,25.33c19.56,26.97,39.38,53.76,59.44,80.36
	c11.36,15.07,20.14,31.4,25.97,49.26c2.73,8.36,6.6,15.85,12.02,22.77c11.12,14.2,20.8,29.22,27.58,46.16
	c4.69,11.71,11.12,22.72,16.65,34.1c7.28,14.97,14.29,30,19.09,46.06c4,13.38,9.65,26.25,14.16,39.49
	c4.29,12.58,9.1,25.04,9.51,38.66c0.12,3.84,1.8,7.69,3.14,11.41c2.93,8.15,6.12,16.2,9.17,24.3c4.24,11.27,7.08,22.76,8.11,34.88
	c1.19,13.92,3.62,27.73,5.73,41.56c3.01,19.77,5.75,39.57,6.7,59.56c0.52,10.96,3.98,20.63,10.55,29.56
	c10.28,14,20.95,27.56,34.08,39.07c7.01,6.14,13.72,12.64,20.39,19.16c10.96,10.7,16.82,23.86,17.76,39.1
	c0.53,8.63,0.63,17.29,0.83,25.94c0.05,2.18-2.3,4.34-3.63,3.58c-1.1-0.63-2.68-1.07-3.15-2.03c-3.2-6.57-6.88-13.04-9.03-19.97
	c-2.76-8.9-8.44-14.99-15.74-19.95c-5.47-3.72-10.85-7.7-17.67-9.95c-20.18,12.84-40.88,24.74-62.38,35.18
	c-6.59,3.2-13.08,6.66-19.84,9.44c-29.76,12.24-57.27,28.48-83.28,47.21c-19.46,14.01-38.43,28.71-57.43,43.35
	c-20.1,15.5-28.66,37.89-35.37,61.17c-0.87,3.02-0.03,6.55,0.13,9.84c0.32,6.62,0.94,13.23,0.94,19.85c0,1.52-2.03,3.03-3.68,5.3
	c-2.06-2.5-3.85-4.34-5.26-6.44c-5.92-8.85-11.76-17.76-17.56-26.69c-2.26-3.48-5.05-6.46-9.2-7.14
	c-20.35-3.33-40.21-9.12-61.01-10.31c-30.34-1.74-59.67,1.69-88.52,11.56c-46.13,15.78-86.9,40.2-122.59,73.24
	c-8.78,8.12-17.33,16.49-25.61,24.39c-1,7.32,3.46,12.04,5.5,17.47c2.1,5.59,4.89,10.93,7.58,16.28c1.79,3.56,4.21,6.82,5.83,10.45
	c1.28,2.87,3.29,5.93,0.85,9.32c-1.37,1.91-4.6,1.3-8.82-1.3c-9.89-6.09-17.91-14.17-23.24-24.31
	c-9.86-18.75-26.08-29.93-44.34-38.7c-12.56-6.03-25.14-11.89-39.28-14.22c-9.07-1.49-17.62-5.95-26.49-8.83
	c-18.36-5.97-36.75-11.83-55.18-17.59c-2.46-0.77-5.19-0.72-8.49-1.13c-1.99,2.6-4.04,5.11-5.92,7.75
	c-8.51,11.93-16.69,24.1-25.51,35.79c-15.15,20.09-34.55,34.92-57.49,45.29c-5.35,2.42-11.58,3.54-15.51,8.74
	c-1.29,5.1-2.17,10.24-0.2,15.6c11.87-0.81,23.61-1.43,35.31-2.47c10.76-0.96,20.73-4.84,30.38-9.46c8.41-4.02,16.6-8.5,24.97-12.61
	c3.06-1.5,6.33-2.11,9.8,1.48c-6.39,17.32-15.45,33.19-30.86,44.72c-10.09,7.55-20.44,14.75-29.68,21.39
	c-2.19,4.92,0.44,7.6,1.54,10.6c6.64,18.13,13.18,36.31,20.05,54.35c5.69,14.93,11.22,29.97,17.87,44.48
	c7.59,16.55,12.21,33.74,14.77,51.65c6.72,47,18.16,92.77,35.77,136.93c1.23,3.09,2.56,6.15,3.71,9.27
	c9.54,25.92,23.5,49.2,41.71,69.96c6.15,7.01,12.04,14.23,18.16,21.26c10.16,11.65,18.38,24.45,24.17,38.83
	c5.97,14.81,11.92,29.59,17.18,44.71c4.6,13.2,8.56,26.54,12.64,39.88c0.39,1.27,1.08,2.46,1.37,3.75
	c5.09,22.71,10.55,45.34,14.99,68.17c1.68,8.63,3.8,16.81,7.93,24.53c3.45,6.46,6.8,12.99,9.95,19.6c1.58,3.31,5.78,6.43,2.19,10.6
	c-2.69,3.13-6.18,0.75-9.35,0.49c-3.34-0.28-5.26,1.65-4.64,4.53c0.55,2.59,0.97,5.25,1.91,7.7c5.44,14.32,10.78,28.67,16.64,42.82
	c2.27,5.48,5.42,10.7,8.83,15.57c7.32,10.42,13.41,21.43,17.95,33.32c3.81,9.95,7.8,19.84,11.58,29.8c2.9,7.65,3.69,8.76-8.16,10.22
	c-1.03,7.18,2.44,14.14,2.2,21.34c-0.25,7.31,0.11,14.66-0.51,21.93c-0.61,7.26-2.09,14.45-3.12,21.23
	c-3.79,3.33-6.54-0.1-9.59-0.51c-0.58,1.05-1.5,2.05-1.67,3.16c-0.38,2.62-0.13,5.35-0.62,7.95c-2.04,10.84,3.18,17.74,11.92,22.98
	c6.28,3.77,12.47,7.7,18.6,11.7c4,2.6,4.06,6.44,0.05,9.74c-5.64,4.64-11.48,9.05-17.17,13.51c0.54,6.46,7.79,4.02,10.59,8.66
	c-11.97,12.13-25.64,20.62-43.6,19.96c-11.3-0.42-22.58-1.12-33.87-1.62c-3.24-0.14-6.49-0.02-9.61-0.02
	c-0.65,3.06-1.18,5.55-1.85,8.72c-21.46-0.39-40.99-5.9-58.08-18.48c-16.08-11.83-32.6-23.21-45.5-38.35
	c-4.99,0.58-3.19,5.52-5.68,7.31c-0.87,0.62-2.99,1.03-3.37,0.57c-3.79-4.6-7.47-9.3-10.91-14.17
	c-12.24-17.32-18.89-36.56-19.51-57.83c-0.04-1.31-0.44-2.61-0.77-4.45c-1.75,0.3-3.52,0.49-5.23,0.94c-2.21,0.58-3.78-0.17-4.93-2
	c-0.35-0.55-0.69-1.24-0.69-1.86c-0.06-17.98-0.31-35.96,0.06-53.93c0.11-5.22,1.79-10.47,3.18-15.59
	c1.38-5.11,3.29-10.08,4.73-14.38c-0.89-4.67-4.08-3.05-6.27-3.79c-0.82-0.28-1.66-2.21-1.52-3.25c0.35-2.58,0.86-5.3,2.03-7.59
	c5.47-10.66,10.79-21.42,16.9-31.71c9.54-16.07,18.19-32.55,25.69-49.67c6.78-15.49,10.74-31.47,10.07-48.47
	c-0.16-3.99-0.05-8,0.02-12c0.12-6.65,1.05-13.39,0.28-19.94c-0.93-7.89-2.98-15.7-5.11-23.39c-2.47-8.91-3.04-18.45-8.51-26.97
	c-1.56,0.99-3.55,1.64-4.54,3.02c-1.92,2.67-2.95,5.99-4.99,8.54c-0.94,1.17-3.36,1.52-5.12,1.53c-0.81,0-1.89-1.58-2.37-2.66
	c-0.52-1.16-0.75-2.58-0.68-3.87c0.47-8.84-1.73-17.3-4.43-25.48c-4.81-14.53-10.09-28.93-15.72-43.17
	c-2.43-6.14-5.94-11.91-9.44-17.55c-3.15-5.09-6.8-9.88-10.47-14.62c-11.47-14.81-21.78-30.27-28.29-48.02
	c-0.58-1.6-2.59-2.67-3.93-3.99c-0.99,1.43-2.16,2.77-2.92,4.3c-0.85,1.71-1.06,3.78-2.09,5.33c-0.43,0.65-2.71,0.93-3.34,0.41
	c-1.46-1.21-2.82-2.85-3.55-4.6c-7.23-17.21-13.86-34.68-17.76-52.97c-1.79-8.41-2.16-17.12-3.18-25.7
	c-3.53-2.58-7.8-3.88-7.96-9.94c-0.63-24.64-1.95-49.26-6.63-73.53c-1.25-6.47-2.97-12.85-4.72-20.34c-4.67,4.9-7.63,8.84-6.6,14.73
	c2.44,14.02-2.55,25.79-10.17,37.37c-12.42,18.88-29.53,30.3-51.18,35.44c-1.61,0.38-4.37,0.05-5.08-0.99
	c-0.89-1.3-0.21-3.67-0.21-6.4c-6.44-0.65-12.77,1-19.18,2.29c-5.09,1.02-5.92,0.15-9-7.61c-2.88,0.48-4.6,2.18-5.66,4.89
	c-2.42,6.19-4.67,12.48-7.58,18.45c-8.78,18.02-18.48,35.5-33.38,49.4c-5.4,5.04-7.01,11.08-5.31,18.17
	c1.39,5.78,2.7,11.58,3.85,16.51c5.2,4.51,10.65,4.9,15.88,4.94c13.33,0.08,24.08,6.04,35.01,12.92
	c26.77,16.85,41.47,42.78,53.69,70.37c3.67,8.29,4.35,18.08,5.5,27.29c1.41,11.21,2.13,22.53,2.67,33.83
	c0.61,12.64,1.5,25.35,0.81,37.95c-1.12,20.55,4.49,39.51,11.28,58.42c2.11,5.89,5.39,10.69,10.39,14.29
	c5.94,4.27,11.94,8.48,18.05,12.51c8.42,5.56,16.02,11.84,20.24,20.2c0.83,6.07-4.84,4.3-7.33,9.09c-0.96,5.45,3.86,12.02,3.9,19.26
	c0.04,6.55,1.34,13.15-1.17,20.02c-2.71,0.19-5.29,0.38-8.74,0.62c-1.1,4.86-1.78,10.13-3.53,15.02c-1.77,4.93-4.59,9.47-6.56,13.4
	c1.94,14.05,3.56,27.24,5.64,40.36c1.27,8.01,1.3,15.83-0.39,23.8c-1.79,8.46-3.3,17.01-4.42,25.58
	c-1.95,14.98-8.06,28.23-17.11,39.97c-15.43,20.02-31.4,39.63-50.19,58.51c-0.87,11.59-1.94,24.18-2.71,36.78
	c-0.62,10.03,1.06,19.8,2.91,29.7c4.44,23.79,4.99,47.62-3.56,70.86c-2.07,5.64-4.28,11.21-9.26,15.14c-2.21,1.75-4.43,2.8-7.69,1.8
	c-2.29-8.65,2.35-18.33-2.83-26.83c-1.2,0.27-2.92,0.14-3.48,0.88c-3.19,4.21-5.92,8.77-9.18,12.92c-2.06,2.62-4.82,4.61-9.21,3.83
	c-1.56-10.2-3.08-20.64-4.76-31.06c-1.71-10.57-4.56-20.84-9.02-30.59c-1.93-4.23-4.35-8.24-9.48-10.12
	c-1.39,1.03-3.45,1.87-4.41,3.4c-10.33,16.42-19.29,33.32-21.68,53.14c-0.77,6.42-3.96,12.64-6.53,18.74
	c-3.75,8.92-11.27,13.48-20.45,13.64c-12.5,0.22-25.32,2.92-36.05-3.44c-2.56,1.25-4.11,1.53-4.87,2.46
	c-9.29,11.35-21.62,14.74-35.67,14.28c-9.27-0.31-18.52,0.68-26.52-6.23c-2.6-2.25-7.45-2.18-11.33-2.62
	c-14.24-1.6-16.18-3.15-20.33-17.51c-0.72-2.47-1.28-4.99-2.03-7.91c-3.87,0.37-7.06,1.09-10.2,0.88
	c-7.23-0.48-13.26-5.51-13.49-12.4c-0.29-8.71-1.95-17.09-3.56-25.55c-0.36-1.89-0.34-4.16,0.37-5.91
	c4.24-10.46,6.51-21.7,12.61-31.45c4.96-7.92,11.97-12.35,21.11-13.46c3.29-0.4,6.65-0.37,9.98-0.36c9.5,0,18.32-2.46,26.99-6.34
	c10.01-4.47,17.72-10.85,24.18-19.99c8.92-12.63,16.5-25.74,21.93-40.15c6.33-16.8,12.98-33.5,18.75-50.49
	c2.54-7.49,3.27-15.6,4.75-23.44c1.98-10.47,4.06-20.91,5.76-31.43c1.17-7.21,1.92-14.5,2.56-21.78c0.35-3.97,0.03-7.99,0.1-11.99
	c0.33-18.43,4.68-35.69,15.77-50.68c7.52-10.16,15.6-19.91,23.56-29.74c3.11-3.84,4.66-7.9,3.92-12.89
	c-2.75-18.42-5.4-36.86-8.13-55.59c-7.24-8.04-16.22-13.71-25.37-19.12c-14.33-8.47-28.58-17.07-43.12-25.16
	c-18.44-10.26-30.3-25.57-36.63-45.48c-1.01-3.17-2.13-6.33-3.52-9.35c-5.64-12.23-9.47-24.82-9.23-38.52
	c0.07-3.87-1.41-7.77-2.3-12.25c-5.59-2.28-11.28-4.05-16.41-6.85c-4.62-2.52-8.63-6.16-13.07-9.43c-2.51,0.46-5.09,0.93-7.77,1.42
	c-5.44-3.62-4.67-10.62-8.32-15.61c-2.63,2.57-5.22,5.11-7.43,7.27c-1.47-0.15-2.44,0.03-2.7-0.32c-3.93-5.33-8.83-6.96-15.57-6.14
	c-7.87,0.95-15.93,0.62-23.89,0.47c-13.1-0.24-24.77-4.6-34.87-13.01c-4.1-3.41-8.05-7-12.25-10.28c-2.01-1.57-4.3-3.39-6.69-3.79
	c-14.2-2.38-20.89-13.22-27.37-24.09c-2.68-4.49-4.15-9.7-6.07-14.34c-5.15-2.25-9.64-3.89-12.33-9.53
	c-6.98-14.66-12.64-29.37-10.59-46.02c0.23-1.88-0.22-3.85-0.35-5.67c-3.4-0.67-6.39-1.25-9.22-1.8
	c-0.52-19.12,4.67-49.61,13.92-82.7c-1.11-0.28-2.24-0.88-3.31-0.78c-2.35,0.22-4.05-0.69-4.17-2.88c-0.14-2.6,0.12-5.35,0.84-7.85
	c3.75-13,10.58-24.38,18.75-35.03c2.79-3.63,6.13-6.81,5.19-12.36c-0.35-2.08,1.44-5.19,3.19-6.84c5.32-5.02,10.82-9.93,16.74-14.2
	c15.13-10.92,30.36-21.71,45.85-32.09c10.7-7.17,19.51-15.95,26.36-26.8c3.04-4.81,3.93-10.08,2.03-15.31
	c-2.02-5.57-4.86-10.84-7.16-15.83c-2.76-0.85-4.61-1.75-6.54-1.95c-10.96-1.17-20.48-5.36-28.68-12.77
	c-1.89-1.71-4.48-3.91-6.64-3.81c-6.3,0.32-8.2-3.53-8.98-8.31c-0.96-5.9-1.46-11.9-1.81-17.88c-0.39-6.58,0.74-13.49-5.17-18.53
	c-0.44-0.37-0.57-1.21-0.66-1.86c-2.25-16.23,0.6-31.91,6.93-46.66c3.65-8.52,10.49-15.37,17.71-21.42
	c7.67-6.43,16.3-8.44,26.14-6.02c7.22,1.78,13.86,4.66,20.03,8.72c6.68,4.39,13.34,8.8,20.02,13.17c5.99,3.92,7.58,3.83,14.29-0.82
	c1.63-1.13,3.19-2.36,3.58-2.65c1.72-6.79-1.83-10.44-3.49-14.61c-3.45-8.66-6.78-17.39-10.76-25.81
	c-5.29-11.19-7.97-22.53-4.99-34.86c0.44-1.82-0.05-3.91-0.29-5.84c-0.07-0.55-0.81-1.02-1.24-1.53
	c-38.37,9.61-43.69,9.05-86.19-8.97c-13.07,3.82-15.04,3.13-20.01-8.05c-1.31-2.95-2.92-6.52-2.35-9.4
	c1.29-6.57-0.74-11.47-4.43-16.67c-7.93-11.16-11.46-23.9-11.62-37.58c-0.11-9.45,1.54-18.44,5.52-27.16
	c5.02-11.01,11.17-21.19,19.03-30.37c3.39-3.96,7.23-7.65,9.54-13.09c-2.03-1.29-3.44-2.69-5.12-3.16
	c-16.51-4.67-30.63-12.86-40.94-26.93c-1.17-1.6-2.56-3.08-4.05-4.39c-4.02-3.55-7.87-6.39-14.19-5.47
	c-5.88,0.86-8.46-2.05-9.87-7.52c-1.58-6.12-1.96-11.73,4.54-15.75c5.7-3.52,6.2-10.14,7.36-15.8c1.19-5.8,0.69-11.94,1.01-17.92
	c0.44-7.97,1.22-15.93,1.39-23.9c0.29-13.96,5.79-26.04,13.82-36.84c15.62-21.01,34.71-38.61,56.14-53.59
	c8.2-5.73,17.39-9.71,26.91-13.01c8.79-3.05,17.5-6.5,25.86-10.56c5.92-2.88,11.38-6.85,16.67-10.82c1.95-1.47,3.96-4.31,4.03-6.59
	c0.41-12.32,5.68-23.17,9.48-34.49c0.34-1.01-0.55-2.43-0.87-3.69c-4.62-0.68-6.83,3.08-9.74,5.41
	c-5.15,4.15-10.12,8.53-15.23,12.73c-0.34,0.28-1.53,0.07-1.88-0.31c-0.82-0.89-2.13-2.23-1.91-3.02
	c4.69-16.74,11.05-32.84,20.43-47.52c4.7-7.35,11.13-13.24,18.91-17.47c5.78-3.14,11.54-6.31,17.21-9.4
	c-0.46-6.98-9.84-5.32-9.91-12.34c1.2-0.84,2.58-2.39,4.25-2.83c4.5-1.18,9.11-1.94,13.7-2.75c12.09-2.12,20.12-9.79,26.58-19.5
	c2.82-4.25,2.92-6.43,2.71-21.26c-11.19-9.36-22.13-19.05-33.68-27.92c-5.18-3.98-11.51-6.56-17.52-9.34
	c-3.77-1.74-7.79-0.82-11.71,0.36c-15.4,4.62-29.94,11.05-43.64,19.54c-5.62,3.48-11.71,6.29-17.77,8.96
	c-4.71,2.07-9.59,0.78-13.03-2.58c-4.24-4.14-8-8.9-11.25-13.87c-5.09-7.77-9.58-15.92-14.71-24.55c-3.29-0.29-6.48-0.7-9.68-0.83
	c-10.01-0.42-15.57-6.53-19.25-14.99c-0.79-1.81-1.57-3.87-1.49-5.78c0.52-13.18,0.25-26.28-1.5-39.39
	c-0.46-3.42,2.63-5.89,5.82-7.38c0.6-0.28,1.23-0.65,1.86-0.67c11.83-0.45,21.41-6.62,31.34-12.03c8.77-4.78,17.63-9.43,26.64-13.72
	c7.63-3.63,12.98-9.27,16.29-16.83c5.87-13.38,11.51-26.87,16.5-38.58c-0.08-6.5-3.05-9.38-5.72-12.28
	c-9.46-10.26-16.73-22.4-27.62-31.49c-3.44-2.87-6.01-7.22-7.96-11.38c-5.39-11.47-9.56-23.42-11.37-36.05
	c-1.2-8.41-1.16-8.42,3.95-21.3c3.11,3.75,5.93,7.15,8.88,10.71c7.22-5.31,0.25-14.76,7.34-20.17c5.51,3.46,5.25,10.28,8.17,15.18
	c3.4,5.71,6.33,11.72,10.01,17.24c3.32,4.97,7.16,9.65,11.17,14.09c3.96,4.38,8.44,8.29,13.18,12.89
	c5.51-4.98,10.39-9.34,15.21-13.76c9.62-8.82,20.66-14.37,33.85-15.48c10.6-0.89,21.16-2.77,31.76-3.05
	c11-0.29,20.96-3.76,30.67-8.09c4.11-1.83,7.85-5.08,10.96-8.43c4.98-5.35,9.36-11.26,13.88-17.03c2.87-3.67,5.32-7.68,8.39-11.16
	c1.08-1.22,3.73-2.14,5.16-1.67c1.56,0.51,3.1,2.61,3.65,4.33c1,3.14,1.18,6.53,1.86,9.79c0.4,1.93,1.07,3.8,1.68,5.68
	c0.48,1.46,3.81,2.52,5.12,1.45c8.74-7.17,19.18-11.61,28.43-17.98c29-19.99,60.91-32.6,95.78-37.86c9.87-1.49,19.57-4.3,29.67-2.82
	c1.86,0.27,3.78,1.14,5.32,2.22c0.61,0.43,0.73,3.01,0.3,3.25c-3.39,1.92-6.82,3.96-10.5,5.13c-18.33,5.86-33.34,16.48-45.43,31.26
	c-2.92,3.57-5.23,7.69-7.47,11.75c-1.22,2.21-1.71,4.82-2.88,8.32c3.4,0.52,5.83,1.33,8.21,1.2c23.82-1.31,44.36,7.11,63.18,20.9
	c18.41,13.5,34.71,29.06,47.64,48c6.76,9.91,13.76,19.65,20.45,29.61c1.36,2.02,1.76,4.68,2.85,7.74
	c-13.7,3.18-25.58-2.26-37.42-4.09c-0.62,1.48-1.19,2.15-1.04,2.59c6.7,20.89,13.39,41.79,20.26,62.63
	c2.5,7.59,5.26,15.1,8.21,22.53c8.54,21.46,23.14,37.02,44.86,45.57c1.1,0.43,1.91,1.61,2.85,2.44c-0.3,3.55-2.78,4.41-5.58,3.83
	c-13.69-2.79-27.33-5.79-41.78-8.88c-0.19,1.76-1.14,3.89-0.44,5.01c7.36,11.9,8.25,24.98,8,38.5c-0.58,31.95,16.9,65.73,42.82,83.8
	c3.75,2.62,7.21,5.66,10.72,8.61c0.29,0.25,0.06,1.32-0.17,1.92c-0.19,0.5-0.7,1.18-1.13,1.23c-2.6,0.28-5.29,0.87-7.82,0.5
	c-11.86-1.7-23.74-3.4-35.51-5.65c-10.57-2.02-20.3-6.35-29.12-12.63c-4.78-3.4-9.65-6.66-15.28-10.53
	c-0.36,3.04-1.27,5.17-0.67,6.7c1.7,4.31,3.76,8.53,6.13,12.52c11.59,19.52,24.01,38.42,40.61,54.23
	c3.83,3.65,6.87,8.13,10.27,12.23c-5.25-0.48-10.53-0.75-15.74-1.48c-18-2.54-34.9-7.43-47.12-22.32c-0.89-1.08-3.14-1.03-5.72-1.79
	c1.1,11.25,0.84,21.71,3.6,31.05c12.48,8.08,25.18,9.98,38.76,9.69c8.71-0.19,15.26-3.03,20.56-9.59
	C558.19,701.05,559.94,699.07,561.64,697.07z"/>
</svg>
