<?xml version="1.0"?>
<svg xmlns="http://www.w3.org/2000/svg" version="1.2" baseProfile="tiny" width="800" height="1819" viewBox="0 0 800 1819" stroke-linecap="round" stroke-linejoin="round">
<g id="ne_50m_admin_0_countries">
<path d="M 27.2034 472.4529 28.8683 442.2701 36.3175 394.445 32.3979 378.4741 36.8057 351.1622 23.3494 314.528 1 288.0959 23.1453 241.7465 55.3041 185.81 85.0131 141.4477 120.8703 95.2391 144.8017 50.8123 170.4773 12.6603 192.3723 1 203.2375 9.1793 208.9293 25.9221 207.4316 75.4998 214.839 92.6364 229.9189 105.2657 261.9326 99.1877 297.4404 86.9012 345.1556 60.732 353.3208 62.3301 371.014 76.0299 407.8925 135.8865 432.5592 188.5518 480.9516 206.7223 507.9985 227.1479 542.8101 258.2714 559.8004 289.6727 584.0393 385.6436 587.1374 443.672 580.4193 470.263 574.5456 477.1719 553.3779 571.8866 558.8207 620.0819 558.8169 651.8276 540.4299 664.4592 528.2781 684.4358 548.57 763.1904 546.2941 796.7891 547.3802 835.3224 583.9068 923.0209 605.3832 950.0722 624.5088 962.9281 649.4776 1043.6765 664.0537 1057.5845 723.3415 1049.3892 752.4541 1058.0847 764.1644 1077.1427 766.8999 1090.2457 763.4636 1135.5756 778.5986 1170.3313 798.8482 1205.9998 799 1227.9606 786.0679 1263.9683 762.6273 1306.098 731.1373 1322.4789 696.3525 1336.4336 679.9683 1369.0834 671.7503 1403.7324 656.307 1429.4866 646.8327 1457.6478 632.382 1515.1702 629.0326 1536.0491 605.4103 1557.2723 568.6768 1566.0862 535.7078 1568.0353 513.4274 1577.9104 502.2005 1597.5344 481.2322 1613.4569 468.5367 1620.547 468.6769 1637.9309 484.1063 1674.3637 501.6302 1703.909 502.0795 1727.6527 493.5416 1734.2877 466.5279 1731.389 460.8131 1740.1694 457.9658 1766.6437 450.7735 1789.3384 439.6768 1803.1893 420.3619 1818.2958 384.9488 1813.4328 351.6402 1790.7186 334.2681 1783.7014 324.3283 1784.4665 321.7162 1728.9278 307.4119 1685.7168 255.003 1581.7387 84.9647 1480.0189 45.2319 1434.2857 27.9344 1396.0153 10.6984 1359.8392 27.4954 1358.971 44.0378 1368.2284 65.2266 1379.3198 73.9694 1361.3642 65.0288 1321.9171 22.0601 1229.4443 18.9784 1204.0769 40.9139 1127.214 77.0366 1040.9166 75.3741 936.021 86.8809 856.9741 75.0646 805.5203 69.6775 742.4891 96.0431 658.9225 118.1662 638.3359 131.8795 611.9428 133.218 522.6788 84.0452 480.7189 27.2034 472.4529 Z"/>
</g>
</svg>