<?xml version="1.0"?>
<svg xmlns="http://www.w3.org/2000/svg" version="1.2" baseProfile="tiny" width="800" height="803" viewBox="0 0 800 803" stroke-linecap="round" stroke-linejoin="round">
<g id="ne_50m_admin_0_countries">
<path d="M 332.3802 527.9037 323.6064 513.6236 279.5532 466.6401 238.7967 430.5281 210.8405 415.5265 182.5626 416.843 138.6165 423.6054 122.5414 420.4321 84.5512 404.3316 52.955 385.2768 57.3979 377.6082 64.21 372.111 56.5037 347.8348 39.4274 308.6516 41.4849 296.4926 36.1644 279.5719 30.1981 266.7574 55.4971 236.6891 67.1819 212.3926 69.9704 188.6048 63.7418 163.7555 48.1301 118.7756 38.3232 105.6201 19.9364 93.1872 4.71 73.0795 1 58.9395 14.1744 56.3659 52.4161 56.568 89.5024 52.268 118.604 43.3632 160.6675 35.9885 178.0234 29.2272 198.2397 26.0876 259.544 33.8824 282.4971 28.2834 351.5619 27.4023 353.3449 24.4879 343.9706 15.0491 344.0731 11.469 385.1298 5.4751 391.4843 1 396.8835 16.012 412.3422 32.6612 429.2392 39.3657 438.3195 48.5441 438.7558 55.5261 408.8819 64.0665 406.861 68.2824 408.8469 72.4437 417.7465 74.5021 459.7201 95.3168 483.6467 95.6667 496.2567 101.9703 502.6202 114.4453 522.7401 131.3375 538.7919 147.7564 539.8163 153.4538 536.8627 161.8545 492.3088 194.452 486.7143 205.6163 486.0864 217.4035 506.0014 252.389 535.3285 290.5504 577.5963 319.336 635.8768 350.3722 636.8475 369.9425 627.8981 393.3232 620.1627 409.2141 616.6802 419.9505 609.6542 424.532 551.7077 424.0963 543.0469 427.9405 539.2564 432.5562 538.9859 436.3674 559.9078 443.2862 592.6666 467.9178 611.6422 491.8731 631.3259 502.2051 653.4724 521.1912 671.2963 538.9157 699.0013 561.7487 729.4604 553.6664 770.6221 573.6285 772.558 587.641 770.2207 600.2065 744.7151 614.321 741.6017 620.0429 741.7005 624.7878 745.1836 631.4364 760.458 642.3686 778.5167 658.6325 799 683.077 790.2006 690.6292 771.503 692.0422 756.8514 689.2561 751.7874 694.3798 752.2165 702.5021 771.5295 720.9957 775.4756 734.671 775.0659 758.5425 776.569 788.6076 731.9486 787.403 694.0405 802.4405 679.632 799.7479 669.7665 774.3229 661.3851 753.6625 636.5682 700.713 642.9029 678.8206 629.2941 666.3641 596.6286 644.0708 588.2496 634.7736 592.7146 621.8665 595.6477 598.3122 592.3941 579.2734 583.6463 573.6054 567.5032 573.3793 547.9248 578.273 508.6423 596.9051 481.1987 585.3075 465.3761 573.5332 456.1948 563.6519 435.7583 571.9667 430.7008 567.9777 429.5677 543.4455 423.3996 530.2681 411.077 514.8633 399.6266 507.4728 357.6502 522.7498 332.3802 527.9037 Z M 397.1345 88.5009 398.3959 79.6682 396.4805 71.6656 389.7828 69.1437 381.5493 71.2546 380.917 80.0858 383.4634 88.511 391.7328 92.2977 397.1345 88.5009 Z M 530.5149 224.448 520.9799 229.9912 512.0053 227.5844 511.9188 213.8556 518.351 208.3365 525.8277 208.5628 532.9449 213.4411 530.5149 224.448 Z"/>
</g>
</svg>