<?xml version="1.0"?>
<svg xmlns="http://www.w3.org/2000/svg" version="1.2" baseProfile="tiny" width="800" height="831" viewBox="0 0 800 831" stroke-linecap="round" stroke-linejoin="round">
<g id="ne_50m_admin_0_countries">
<path d="M 166.5052 378.461 166.6973 381.6653 153.9938 390.4431 163.1925 396.7737 171.9087 383.1087 178.7774 394.2521 182.5186 415.1167 181.8997 418.7461 182.5267 421.8593 183.8724 425.854 184.1955 431.6403 177.1133 449.8207 151.7686 447.8657 151.239 432.5245 147.3361 429.5464 141.5248 407.5994 133.638 400.4929 122.7341 382.402 129.1289 377.7884 137.6191 379.3851 141.9787 377.2347 153.7645 375.5522 160.9253 373.1134 166.5052 378.461 Z M 221.6742 146.5782 219.0478 147.8058 208.0898 133.7478 199.2708 129.6566 213.0511 119.7254 218.9957 111.1843 218.8682 92.5531 222.2193 82.345 221.0796 73.5095 224.1009 64.487 220.0054 54.3573 208.5428 46.323 185.9271 14.3433 150.215 6.4832 131.7232 6.078 141.9104 1 151.2922 1.6625 165.727 4.7617 183.0265 6.2778 193.5884 15.6984 203.6837 28.1763 212.816 33.2249 216.5761 36.4329 216.1538 40.0521 217.6736 43.4519 229.6087 49.2789 241.6441 58.6821 245.2223 86.2941 229.0025 99.3886 226.041 139.3793 221.6742 146.5782 Z M 766.4637 791.948 762.5484 802.1708 749.2643 821.8862 718.8686 827.8949 685.2597 830.0063 682.5773 824.8656 681.7732 820.2935 684.1143 813.0183 683.8421 810.1938 682.402 807.3489 694.6617 803.8152 702.5119 794.6247 715.2043 792.6586 731.1678 798.3183 739.7064 798.2165 752.2116 790.8209 762.0743 775.5121 768.1352 777.1705 766.4637 791.948 Z M 155.6867 314.3106 155.3539 331.2697 156.711 343.9575 155.407 348.4709 141.5611 356.8851 137.9941 361.6032 124.9423 366.3071 117.024 372.9052 113.1295 362.0775 105.5144 355.3478 104.2945 343.9864 98.4273 347.7769 90.0176 345.3721 76.1865 336.6524 67.503 324.8932 79.8009 322.9836 82.2896 330.2601 92.0705 321.4396 89.8922 316.7306 88.1419 316.1143 85.0166 307.3608 99.7694 284.6148 103.0075 269.8839 96.5453 246.1572 102.7219 244.6489 119.1153 253.0638 126.443 261.2815 126.6312 272.5014 133.5153 281.2244 143.4613 302.0751 155.6867 314.3106 Z M 62.7796 30.0777 77.9187 34.5771 86.0568 34.047 90.9569 31.2132 113.4145 32.54 131.5796 28.4411 134.2342 35.9117 133.755 39.8025 95.1314 43.218 59.6231 53.8635 40.1322 61.0808 31.0003 61.8022 24.075 57.8228 1 34.9364 7.2126 37.271 24.3122 50.2532 35.0643 48.0456 45.0905 39.7102 46.676 33.3464 45.2282 30.3093 49.823 20.2826 62.7796 30.0777 Z M 206.2168 271.4789 191.8505 274.3731 181.5899 271.4864 178.9617 269.1737 183.364 265.3089 193.0389 262.0945 208.5673 261.7869 215.3696 265.6081 216.1891 267.2784 206.2168 271.4789 Z M 630.0783 585.3332 633.0415 587.7332 624.9483 593.5389 606.389 587.1716 602.2396 587.7597 598.4583 580.5345 596.9781 575.1431 597.7862 570.1164 608.8293 573.7083 614.8657 580.7132 630.0783 585.3332 Z M 579.1907 399.4527 569.3559 414.8216 563.9474 413.6614 566.6829 394.5839 573.6211 391.4033 576.3665 391.5006 579.1907 399.4527 Z M 612.0753 656.497 603.1041 660.9115 604.9993 653.6821 622.1243 641.0331 631.5147 630.0586 636.8844 626.1102 638.7722 623.1104 646.2794 618.9309 649.9558 611.9285 648.808 606.3386 640.7083 597.2874 640.7041 590.7372 643.3519 586.0434 656.679 583.4802 653.2777 590.564 658.896 610.1271 641.5995 635.2205 626.5159 643.278 612.0753 656.497 Z M 294.7748 204.8664 315.7137 220.5678 333.5541 226.414 352.9517 246.0559 361.3053 253.0304 362.8387 259.4366 359.819 288.7689 355.6096 306.4442 356.3772 321.8932 351.8025 317.3602 347.1411 307.2791 339.5793 301.5216 337.0544 298.4909 350.5667 297.7066 351.6494 281.7552 358.1393 269.118 357.039 256.0412 341.2026 241.7675 330.3399 229.1638 313.7524 225.2169 298.3744 212.6702 289.2343 211.1615 278.1042 213.4366 282.0982 205.885 284.8423 195.9054 286.8748 194.0328 294.7748 204.8664 Z M 422.3974 488.7317 417.0397 489.6306 407.4219 486.0771 384.8251 469.3903 374.4005 468.0424 377.7482 458.4313 385.7032 461.6872 403.9303 476.098 410.8324 483.3353 422.3974 488.7317 Z M 529.1554 564.1849 528.3813 567.7649 511.761 540.3272 491.2775 533.9806 479.4794 527.4863 481.8677 523.6286 489.974 521.8178 491.2188 512.9815 487.6354 503.5131 476.6654 484.4486 470.4875 471.4983 467.6861 468.5365 466.7682 457.5982 479.7035 474.3308 485.1851 489.3031 493.8997 503.8907 499.944 529.2041 516.3783 537.5069 528.2966 549.5261 529.1554 564.1849 Z M 466.8282 383.3386 467.7651 390.4287 459.1946 389.1312 446.6013 392.11 442.0557 392.2549 444.8315 387.3453 453.5189 380.628 453.8862 374.3541 442.9411 365.4825 430.0801 343.1674 424.1233 337.9136 421.2332 329.4914 410.5736 320.5537 412.7303 315.6713 414.8875 314.5012 422.0531 316.7369 438.5968 348.886 439.6905 351.9716 466.8282 383.3386 Z M 761.1257 621.6782 769.1073 623.3652 773.4181 623.0521 788.1428 626.6118 796.9859 631.9467 799 634.2125 794.4388 639.4866 780.7593 630.4184 768.9799 629.6471 752.46 630.5213 745.8015 628.9577 749.9956 618.4707 761.1257 621.6782 Z M 779.8518 748.2098 762.8698 755.6539 760.9937 747.7902 769.5943 741.0733 779.8518 748.2098 Z"/>
</g>
</svg>