<?xml version="1.0"?>
<svg xmlns="http://www.w3.org/2000/svg" version="1.2" baseProfile="tiny" width="800" height="675" viewBox="0 0 800 675" stroke-linecap="round" stroke-linejoin="round">
<g id="ne_50m_admin_0_countries">
<path d="M 730.0311 553.5572 713.889 553.4269 694.5701 554.7594 684.0212 562.8998 679.7355 561.334 672.0724 559.7313 663.8525 564.3528 652.8499 577.7229 645.4265 586.0489 638.3032 597.5611 636.1325 603.7479 631.7518 615.151 627.809 628.1287 630.4946 637.0127 634.3603 645.2144 635.4737 654.1582 637.5105 661.1319 632.8783 666.4354 630.3159 673.9094 622.0441 672.9226 611.7721 666.1866 609.3528 656.0134 601.4169 649.125 596.2379 645.5957 587.8542 645.2741 574.561 648.9779 557.1074 651.9835 543.9048 652.9794 536.7558 656.7632 526.1656 660.5439 521.9705 656.4047 515.8736 644.8856 510.8415 633.394 507.442 628.37 504.5281 626.9954 500.9744 627.3402 496.9174 631.0719 493.9178 634.8741 489.605 636.2638 482.9076 639.3901 478.0948 643.5766 472.8379 654.2873 469.2835 653.5652 465.5894 651.1522 461.287 639.2689 455.487 636.5682 446.2187 636.4658 434.7351 633.9976 425.4299 630.4205 422.039 631.286 416.5112 636.3646 410.5123 637.0961 397.3948 632.5601 394.8211 634.6225 391.3547 641.2992 387.2239 647.7336 383.6511 648.353 381.6501 646.6866 382.824 635.2716 375.2239 631.1848 362.3831 630.4686 353.3455 632.0429 348.9219 631.5443 346.6885 629.2814 335.8755 609.9669 330.0607 608.6714 319.6306 609.4652 304.2624 606.8915 286.6177 602.2204 276.9189 600.4101 271.9473 595.9972 261.0808 594.2617 232.0435 585.3416 220.1571 583.5402 202.6061 582.817 175.9358 580.0129 158.7885 580.3062 150.7553 582.645 141.5184 583.8955 125.986 584.6682 119.6947 584.1914 109.7484 584.5853 98.2751 586.1408 94.8194 589.9915 90.654 598.6007 76.7755 613.0856 63.5182 622.4829 61.1449 623.2087 53.9929 617.3877 47.8832 615.1945 40.6553 614.1632 35.4099 615.557 32.0034 617.8834 31.7601 629.6606 30.9715 630.6449 26.1732 616.3419 27.3664 603.7571 30.9106 596.7573 35.0724 590.5184 34.0905 580.6852 38.5591 568.0412 39.2218 558.7356 37.837 554.5968 35.1172 549.7761 27.2386 544.0907 23.8694 539.8245 13.1212 533.7055 2.5742 526.2514 1 522.0206 1.7026 519.243 3.9052 515.1053 13.0549 503.1707 22.8576 491.63 28.9179 487.1187 60.4267 473.4432 65.4674 468.2698 67.1721 459.1128 67.6248 452.4045 67.7226 440.4453 66.8403 423.3533 65.1982 411.5064 60.7022 389.1678 47.8183 342.7605 41.4971 295.0321 47.3612 298.1773 61.4815 300.0956 72.9614 297.5179 78.8288 297.4016 83.9777 298.7113 91.8389 297.2893 98.9861 296.9242 102.4429 301.342 108.8661 305.4308 122.216 300.709 134.1149 294.6196 146.0777 295.8959 147.945 292.7045 151.6726 276.0986 155.3928 272.6282 169.6359 274.9196 175.0622 272.1043 180.9171 264.0998 189.5577 259.296 196.5911 259.5669 204.1308 254.0705 207.592 258.0578 209.0986 265.0267 206.4688 270.4746 207.4441 272.6789 212.435 275.5914 221.1673 275.8021 226.8167 273.6922 228.2193 270.5698 228.3898 264.8252 227.1952 259.4445 223.6569 254.7071 216.8114 252.1021 212.0139 251.858 211.2975 248.8976 213.153 242.6832 217.8109 231.2684 223.3887 220.986 226.7086 217.1412 227.3785 213.5366 226.9705 207.187 227.2331 195.838 232.432 179.9912 239.0702 168.2572 247.5662 164.637 257.8589 162.8203 264.559 157.3128 267.9637 150.8641 269.3349 145.3866 271.0095 140.6614 274.3152 138.6492 298.8142 140.4868 302.7717 130.3011 304.9318 127.4719 309.6878 124.5261 313.0222 120.9366 311.8477 118.1081 305.6514 116.1838 291.0082 114.292 288.1122 110.8407 289.1461 106.7831 293.2998 96.3101 297.3214 82.7707 299.4477 72.2649 299.795 66.0592 301.9153 64.4238 313.8111 62.6518 317.8034 60.6099 328.2378 46.4187 336.0291 44.0881 355.9833 48.0064 365.184 47.8051 367.6785 48.1628 376.8424 48.8818 377.842 47.4488 382.044 33.2873 386.1046 29.1809 401.841 10.6179 412.3497 2.7313 418.9827 1 421.3075 1.395 431.8882 13.3955 434.3713 13.8523 440.2158 9.1022 441.3704 8.7792 453.5113 8.2935 459.1938 12.4281 463.4492 20.5671 467.3968 27.0668 471.6031 28.7943 483.3535 20.4304 489.8479 17.6259 494.1634 17.6539 509.4606 24.7827 516.6802 28.688 518.3934 32.324 518.6259 36.6291 516.8256 43.0728 515.4273 50.0638 520.2422 58.2134 525.7698 63.6834 537.1069 54.2308 541.2949 51.5708 545.9376 51.3706 552.0667 47.8062 556.4208 42.5504 560.6792 40.652 568.936 41.6565 583.7484 40.0188 601.3535 47.5498 602.9348 49.9915 611.9673 59.1689 615.1817 63.7688 618.1073 65.1593 622.9291 69.6034 629.231 72.2776 633.508 71.2294 635.6268 72.6896 637.7069 76.2607 638.1239 82.4331 638.2341 100.1537 635.4013 105.3928 632.3614 109.6847 631.6709 112.9391 632.1394 116.8401 637.4266 124.2994 644.3681 135.9275 646.1574 142.7624 646.3805 147.9272 638.2144 163.4767 635.4243 167.1545 633.7065 174.7195 632.9383 182.3707 633.6888 185.4996 649.0064 197.0192 660.2679 203.1308 662.8837 206.2314 663.193 208.2176 657.9198 221.471 657.501 225.0003 666.5845 230.0005 671.8642 238.2835 676.8332 251.9405 685.9108 264.8206 704.7003 275.6837 718.3643 282.6617 721.3094 286.0068 722.493 290.1025 721.969 299.2682 719.1189 310.5378 717.0958 316.8309 722.6676 319.1091 736.6155 317.6667 753.7225 318.8635 774.8509 329.8655 775.256 335.3436 773.4569 340.4629 775.1896 345.6417 777.6991 349.9709 796.2941 362.5146 798.253 366.3759 799 372.9974 798.827 377.888 793.9667 379.2383 788.6446 381.8764 780.0507 388.2714 777.0038 396.7601 763.163 409.03 754.455 414.7136 747.2945 415.3639 730.1039 413.9922 723.8169 408.6781 721.0655 403.6405 714.3886 401.6608 705.6601 401.8861 693.6813 403.3673 691.31 405.0406 689.6289 411.4897 685.0055 422.5518 681.6086 428.8466 684.8004 432.4368 689.9808 440.0215 697.929 449.5905 706.0656 458.02 708.8093 463.3008 708.8813 467.1557 705.4104 471.8724 706.41 480.949 714.5277 492.5929 712.0668 494.6235 712.0218 509.4031 712.8442 525.1457 715.0743 528.847 719.314 531.7657 723.042 537.3371 729.4535 550.1537 730.0311 553.5572 Z"/>
</g>
</svg>