<?xml version="1.0"?>
<svg xmlns="http://www.w3.org/2000/svg" version="1.2" baseProfile="tiny" width="800" height="652" viewBox="0 0 800 652" stroke-linecap="round" stroke-linejoin="round">
<g id="ne_50m_admin_0_countries">
<path d="M 352.3968 35.1586 368.4192 43.4349 382.6186 45.3042 388.8427 41.6837 384.9656 21.7974 396.4991 11.2461 409.3042 6.3826 415.0677 14.9727 426.7609 23.7424 436.0259 23.81 460.9223 1 466.7655 5.4966 472.1809 13.5848 473.3168 20.1262 474.2942 26.9407 479.9067 29.8133 499.5586 28.2704 509.4661 15.8764 517.2834 8.0427 523.1506 13.2558 526.1015 28.4445 531.6521 48.2374 555.2773 70.2597 575.2061 76.4145 599.614 71.8128 609.2427 67.7458 615.8438 70.9752 622.4919 82.6238 636.7303 95.8739 666.4244 104.9744 675.6008 110.2258 682.065 119.1413 680.4413 132.0508 666.8043 164.3507 665.0892 173.8592 667.0365 177.0074 664.3569 183.0002 646.2137 204.7751 644.6361 212.3703 650.9673 224.6558 656.1822 234.8366 656.2029 234.8684 667.3738 239.6642 677.8499 241.1571 697.6218 241.4879 718.7213 241.813 721.3279 247.7508 745.2622 264.7026 752.839 278.3501 770.086 291.3229 756.3693 308.4785 758.6642 315.9409 763.9016 323.5175 783.1918 327.5742 793.0524 338.4385 794.0105 355.3458 799 382.8618 759.8668 411.1675 749.1695 442.049 748.2808 448.0996 746.906 447.2127 742.2912 437.1806 735.0815 437.4176 718.4864 433.4929 695.9292 461.6113 685.8539 484.8145 679.927 501.817 670.8202 515.6246 669.1702 530.102 670.4363 536.1461 667.3636 544.0195 667.3155 552.2483 680.9107 568.2709 684.3803 576.9884 701.1185 605.417 696.2184 615.9868 692.3644 627.3871 687.7675 635.511 682.3723 640.696 665.4688 640.65 644.1185 644.5576 629.7572 650.3864 622.2809 650.5257 606.6368 636.388 589.1434 615.1164 578.0809 604.9908 573.084 596.1838 559.4993 592.5768 540.1078 582.1339 526.6437 570.703 515.125 563.5964 498.9079 560.0932 485.547 560.5098 481.5779 541.1467 479.9049 519.0161 468.9855 504.2367 483.7209 446.2689 474.8829 440.6135 465.2474 445.2709 451.3143 459.0876 444.6727 475.5846 440.6782 490.1846 417.1878 504.0325 379.9068 508.9608 339.1949 503.7361 333.5628 499.9778 330.9905 495.7253 330.9831 490.624 333.8801 482.7989 341.0292 473.3316 342.8608 459.7703 335.6688 447.981 330.9681 443.3769 332.9142 432.0148 338.3667 417.8029 339.464 409.6911 312.2435 384.8978 292.4762 379.9279 273.2747 378.8699 258.7256 375.9491 250.2154 376.9878 244.0053 384.084 237.7541 389.1394 233.2033 382.9184 225.2932 339.2624 218.8291 332.5933 194.1801 324.9562 160.6445 321.7929 151.8361 313.6895 147.2893 294.0112 144.6412 270.3718 134.0684 247.5734 128.5397 241.7992 118.7658 231.5712 101.2402 235.3238 79.9901 247.9413 67.525 251.2745 62.7825 252.5563 46.4036 239.3765 28.2011 218.9256 13.7851 197.3382 10.4958 185.469 15.4782 171.3084 10.2759 160.2215 2.8439 139.9882 1 124.2916 91.9763 71.294 146.9749 44.1136 172.7429 36.0114 178.3945 64.549 182.914 73.6561 188.9176 79.6256 197.0105 80.9088 206.3959 74.0254 219.4903 66.8043 240.3103 70.5332 255.3991 77.5685 260.7166 84.7372 270.6858 91.6182 285.3414 93.3897 313.8521 80.6972 341.2352 61.1759 349.2998 47.5407 352.3968 35.1586 Z"/>
</g>
</svg>