<?xml version="1.0"?>
<svg xmlns="http://www.w3.org/2000/svg" version="1.2" baseProfile="tiny" width="800" height="1495" viewBox="0 0 800 1495" stroke-linecap="round" stroke-linejoin="round">
<g id="ne_50m_admin_0_countries">
<path d="M 45.5106 385.0684 45.1534 334.9132 61.0323 295.3097 106.585 278.7514 165.588 313.4075 190.1322 327.8814 212.2933 319.6898 240.2625 298.5652 274.6439 237.4929 360.7312 111.4839 395.1719 22.0594 428.8548 4.2707 477.3759 1 519.3025 6.6265 490.1704 72.0227 519.4887 80.4525 545.9154 74.3 609.8501 76.4155 634.7158 148.0469 628.3913 208.2039 568.5222 366.988 561.0185 421.5493 533.6359 503.0983 571.2524 556.7159 536.4312 628.2284 524.6478 674.2626 521.9553 743.7031 539.9645 875.6113 511.9124 1065.8736 461.7607 1148.9649 430.5488 1180.5831 374.7248 1263.174 301.2878 1287.8309 199.5009 1420.7331 181.4195 1455.6069 191.1764 1493.2294 167.3004 1493.6523 69.6222 1487.2476 3.588 1493.9877 1 1490.6659 6.7797 1347.7705 15.6796 1126.5665 22.2292 964.2951 28.6059 805.5397 33.4058 686.5935 39.8899 524.7428 45.5106 385.0684 Z M 709.1134 321.1469 683.1335 331.9514 704.3899 298.6771 707.4256 277.3319 737.1088 188.661 758.6629 189.0799 764.3907 196.9245 709.1134 321.1469 Z M 763.9705 610.0326 721.9822 690.7448 719.2036 667.7535 736.5515 608.0688 760.2983 587.0475 774.9679 564.9381 778.1938 538.8867 799 551.5003 793.9004 577.2236 763.9705 610.0326 Z"/>
</g>
</svg>