<?xml version="1.0"?>
<svg xmlns="http://www.w3.org/2000/svg" version="1.2" baseProfile="tiny" width="800" height="671" viewBox="0 0 800 671" stroke-linecap="round" stroke-linejoin="round">
<g id="ne_50m_admin_0_countries">
<path d="M 107.9124 532.9192 105.2014 534.3822 102.6472 534.3155 100.0459 532.0204 100.3479 523.0731 102.2787 517.6248 106.7384 516.6306 107.9124 532.9192 Z M 149.019 621.1125 143.4281 627.0874 134.5942 614.6388 134.6834 611.1653 149.019 621.1125 Z M 783.6134 1 786.0958 9.5192 780.0102 25.7136 773.4999 40.4178 761.0704 53.3106 760.5695 62.7487 756.5639 90.8943 758.3393 99.8344 761.3615 107.477 765.5165 111.5491 776.7843 138.9829 787.0462 163.9484 797.1138 184.4278 799 197.4342 790.3456 230.4939 780.1007 260.8909 781.1847 275.9894 785.8631 291.0679 790.9026 311.1855 792.9585 336.937 790.4951 353.7696 785.811 364.2619 776.7675 375.0487 768.8529 380.597 759.1985 371.5977 751.5699 371.2765 741.3641 374.1029 733.3548 378.3636 717.0711 394.2266 698.988 409.6664 673.8334 413.7733 664.1077 425.1962 653.6218 426.8428 633.6818 427.5484 620.6732 430.2874 621.2951 435.9893 620.3579 462.9275 620.6551 469.2291 618.6438 470.9181 609.62 471.7781 594.292 467.7487 573.5476 461.1908 558.8095 460.215 551.2725 471.9862 546.77 476.5957 541.1843 477.325 535.3495 479.4276 533.3877 484.6698 532.9307 491.2257 535.8024 502.4094 536.9086 520.2111 536.1982 532.3455 541.6355 540.002 573.396 565.6398 582.7785 572.0362 583.8631 575.8787 578.357 589.923 583.3635 609.5988 573.4289 609.291 556.8274 600.9188 548.8896 595.7843 539.293 599.9631 535.9542 599.1899 529.4363 589.5221 520.9236 579.6391 512.1796 579.0424 493.7016 583.005 474.8149 585.769 467.6481 585.7556 464.7151 587.55 453.7636 602.2982 449.1257 599.7766 430.0733 594.2058 412.7091 592.0772 409.1333 595.8822 411.2537 607.9018 415.0747 619.6221 412.8249 624.6058 403.2823 630.7733 390.6651 641.8875 382.9223 650.5292 377.5513 652.6461 358.3364 652.2538 339.1808 653.3561 331.5057 661.4992 324.3083 667.832 318.0997 669.5432 293.0804 649.3299 243.4277 642.1129 238.0533 633.2033 233.2886 631.4475 228.6838 642.9813 201.3944 653.933 190.0005 647.162 181.6543 638.9837 182.9385 629.0635 190.8441 620.9987 204.4009 615.2566 210.7186 594.8922 200.5024 568.687 191.4971 561.0206 181.9839 554.9245 171.9354 564.5903 163.4345 581.1695 154.607 589.6666 142.1916 591.4852 124.0189 590.6565 117.0749 565.7761 114.8487 544.4552 117.4557 520.1574 120.2791 505.7618 102.9208 485.7457 102.0687 466.8046 93.6913 456.9685 91.1844 461.8847 91.3876 467.3236 89.0103 463.3605 61.8672 407.5616 57.4612 381.7531 62.3333 361.9487 65.1502 355.3113 57.3112 344.7962 46.2706 332.8253 26.7425 317.1023 25.629 292.4898 21.531 263.4436 15.7358 253.6129 6.9241 235.6692 2.2268 220.8292 1 181.7226 3.5338 178.5919 17.4197 177.586 35.2672 174.9253 38.1413 168.633 35.065 163.3913 46.5483 154.6364 63.0731 135.3634 75.8942 115.1872 85.1101 102.4576 90.6504 89.7938 109.1241 71.9389 134.5378 59.6623 151.7068 56.8524 169.6208 52.7061 186.7976 46.7616 194.9212 46.2281 216.1584 53.5933 227.652 55.4991 239.7313 55.4414 252.2489 56.2382 263.158 55.5193 289.2818 50.4989 316.9515 54.5753 341.6733 51.4328 372.2744 45.5899 387.2981 49.2918 400.9881 55.1721 402.9042 67.0718 406.0696 72.5063 410.6335 76.7047 416.7257 76.6942 424.5308 68.3806 431.0222 59.8177 433.1526 58.2394 433.4966 62.4533 436.746 71.7209 442.5872 80.8503 448.4995 86.9089 458.3636 94.956 464.7687 95.3329 485.6799 87.674 517.0975 98.6535 520.7852 104.2167 530.9915 115.4405 542.0431 123.4972 566.5199 123.9236 575.1373 104.0209 570.8459 91.93 556.7892 70.9021 552.9309 58.4792 557.3569 56.2662 580.9373 53.8201 584.7554 51.3573 589.8791 37.6697 596.2896 39.1952 609.3803 40.9091 623.1325 31.4979 631.2385 21.6593 635.7329 26.1039 640.6736 32.954 646.046 36.9087 656.0418 42.761 667.0443 51.0062 673.9263 59.1304 679.4283 62.263 693.4155 59.8943 697.1585 60.1879 705.181 50.2588 710.8262 44.8444 715.6785 46.3482 722.7249 46.1552 737.1708 33.4616 745.3783 21.897 749.8907 18.723 763.0254 24.3661 768.2324 23.1523 775.5717 7.2744 783.6134 1 Z"/>
</g>
</svg>