<?xml version="1.0"?>
<svg xmlns="http://www.w3.org/2000/svg" version="1.2" baseProfile="tiny" width="800" height="542" viewBox="0 0 800 542" stroke-linecap="round" stroke-linejoin="round">
<g id="ne_50m_admin_0_countries">
<path d="M 598.9505 144.9394 601.8595 145.6876 603.488 148.4823 601.1016 157.6329 602.9082 163.341 608.041 168.1468 613.2045 170.1686 618.1409 171.3227 635.3085 174.2023 642.462 177.5144 651.9841 188.1836 663.8774 197.8516 666.8055 203.0088 666.3382 207.7092 662.92 213.4374 663.4849 215.7883 668.9627 221.4541 675.2304 227.2508 686.6226 233.6578 706.3303 243.6463 715.365 250.3683 718.4833 255.4955 723.5459 261.0519 730.5857 266.1072 735.3075 270.007 732.2151 281.2131 733.2252 284.8676 734.9978 288.0304 739.1109 292.3689 740.8007 298.0028 744.9125 305.0057 749.7443 308.1471 757.7729 309.2316 762.0371 312.4397 770.8836 317.9226 779.4287 322.6286 783.1035 325.909 785.3747 328.8321 787.3383 332.2881 788.3144 335.7561 788.5835 343.2834 790.1128 352.6055 794.7083 358.9143 799 363.6065 781.6219 358.4282 779.0274 358.3544 775.9447 359.3579 766.9113 366.2342 764.0154 367.1041 760.7203 366.5692 752.5563 365.8794 724.6991 360.9817 703.165 356.1637 696.6934 354.3896 685.1709 352.7743 677.5638 356.3594 670.467 368.4447 668.4112 370.8379 657.1591 374.5233 651.8364 373.6227 638.7935 377.0586 618.6011 372.3136 611.3908 373.3708 605.7317 375.9319 591.2081 381.5186 582.3822 384.7032 572.1074 387.6275 562.3458 392.0348 555.7719 394.4604 549.3228 394.4873 543.5007 392.0775 537.1272 390.0127 529.5089 389.6345 521.5634 390.9304 514.8303 395.7779 512.1054 399.2132 506.2561 408.3441 499.3527 423.1778 496.6343 426.171 495.8831 426.4637 494.175 427.7268 462.2549 420.4898 448.5077 418.8326 439.2201 421.1383 427.5652 417.0306 422.4752 416.3137 420.0765 417.6195 413.5944 415.7671 403.0285 410.7456 392.9 408.6294 383.8468 409.3624 378.2869 407.6804 373.833 402.7708 368.0491 393.7616 357.6498 384.8179 343.7184 377.6311 335.025 372.2216 331.5481 368.5988 324.058 366.5845 312.5562 366.1782 301.5202 369.686 285.6731 380.8118 270.9406 403.667 262.7469 412.3901 256.18 414.6188 254.5208 420.1239 257.77 428.9045 258.6202 438.993 256.3195 456.0872 257.1698 468.513 253.6595 466.5214 250.307 460.6789 248.7312 459.4972 239.0378 462.0501 234.0115 464.3794 231.3357 466.6694 229.2895 467.0025 226.2136 463.8022 223.7924 463.2121 219.9801 463.7699 216.0899 463.6818 213.5613 463.2499 211.9041 463.5178 207.3382 461.6009 190.6954 456.6556 187.845 455.0375 184.5303 455.173 175.9063 459.2674 171.3523 460.3828 157.6395 462.8225 142.9552 463.9188 137.3487 463.9184 133.4952 465.7172 131.0139 468.3017 129.3352 474.0647 126.4676 483.9563 125.2698 486.6392 125.48 490.6029 124.6386 497.2413 124.2423 503.1984 124.8038 507.2005 120.6874 515.196 115.6999 524.8643 111.5608 533.164 107.3979 541.4986 104.4743 535.6976 102.6455 528.9265 101.9298 521.1835 102.3127 519.1316 101.1792 516.8156 101.0938 516.3124 99.6751 510.4533 101.0841 506.403 99.9114 502.1045 96.5116 497.8582 93.427 494.6027 91.6254 491.6731 90.1625 490.4133 86.7567 489.9153 82.2021 488.357 76.1658 481.9412 70.3028 475.703 62.8091 467.7121 56.8043 460.8057 49.46 452.3489 42.6856 444.5314 38.6329 437.0305 36.9782 432.7299 38.9596 432.3546 41.8874 432.3083 43.1323 431.5584 43.2006 429.5667 40.1987 423.6543 38.7563 416.1519 36.2812 411.5534 28.4378 404.416 20.9687 398.9603 18.5994 396.1814 17.2619 392.2489 14.5096 367.4354 13.2703 360.3819 10.9318 357.2634 9.2295 355.8188 8.6014 354.0604 8.9384 349.6559 9.9542 345.7238 9.9178 344.1794 11.9616 340.7454 12.1458 317.8224 11.0614 316.6386 9.7717 314.6342 7.6647 314.7574 5.2837 314.5193 2.9387 311.1501 1 306.9054 1.6082 303.9365 3.7067 301.4777 5.9741 299.3293 8.8535 297.5488 17.3791 293.9925 19.807 292.1887 21.3341 289.9369 22.3548 286.8846 27.4269 275.1475 34.8889 263.4551 38.0645 261.0595 41.2984 253.2979 45.7134 243.7962 47.5121 239.3818 48.8372 234.9688 51.2612 231.424 59.4307 225.6207 65.7035 215.3831 72.338 215.9799 79.1364 217.6879 87.8863 218.5724 94.7775 216.6174 99.2824 212.6362 109.1161 209.5135 120.6351 205.851 122.2561 200.3362 125.6508 197.4566 129.5856 194.932 130.9394 194.5968 131.2174 196.4391 133.5263 202.2098 138.3268 207.9392 145.3964 214.2553 147.4478 213.8723 151.9194 209.1435 163.0908 206.2712 165.9261 204.9726 173.9098 198.0957 183.4804 193.6834 185.5898 193.2977 189.0564 192.1364 198.7295 187.5827 205.5765 188.2185 216.614 187.5366 235.0244 185.4248 248.3529 184.7382 255.0832 183.8929 256.7805 182.9694 259.4074 176.3128 261.4288 174.4499 266.4537 171.5902 276.3076 161.5654 282.7844 153.1006 284.5857 150.2585 284.7432 150.049 286.0697 149.5194 288.8486 145.9558 286.1227 142.2621 275.1942 134.7401 275.3562 133.7169 274.7325 132.4282 275.3513 131.3999 279.5509 128.3525 285.2064 124.8701 291.2226 123.5765 306.9052 123.8665 320.282 123.1362 323.415 123.3059 333.8496 121.5436 340.987 119.9449 348.3311 116.3391 364.9253 116.7229 378.7686 107.5347 382.7412 105.8931 384.4773 104.4551 384.9991 103.0508 391.4611 99.4136 398.694 91.8698 404.4083 85.0965 405.952 80.3233 421.5247 64.1188 426.96 64.4543 429.6239 62.4572 435.7618 51.6656 437.6613 49.6772 440.5836 49.011 444.0648 47.7888 447.1095 44.599 449.7189 39.8566 449.7085 33.9842 448.4801 29.2761 448.4667 26.9978 449.9289 24.9059 452.4111 22.7989 464.1845 17.0049 467.1508 14.2073 468.9257 11.7001 472.2177 11.2439 475.8246 11.4884 478.0932 9.9291 480.6492 7.2934 488.7784 3.7567 496.307 1 504.2464 2.1576 510.7249 3.5862 516.0522 5.2347 518.6549 5.6954 523.0507 13.3472 525.1285 16.0246 543.1088 34.1248 546.6033 38.4304 555.5717 51.6065 561.0773 60.5048 567.4234 73.3014 568.1239 80.264 567.38 86.236 566.3655 103.1717 564.8015 108.057 557.0891 117.2106 556.8002 121.3242 558.4463 124.7444 560.8473 126.1463 562.3249 127.8423 561.5211 135.7571 564.366 138.8534 570.2732 140.9037 585.1393 142.2592 592.8674 143.3705 598.9505 144.9394 Z"/>
</g>
</svg>