<?xml version="1.0"?>
<svg xmlns="http://www.w3.org/2000/svg" version="1.2" baseProfile="tiny" width="800" height="1088" viewBox="0 0 800 1088" stroke-linecap="round" stroke-linejoin="round">
<g id="ne_50m_admin_0_countries">
<path d="M 504.5827 37.1881 502.2967 37.9508 499.4573 39.6029 490.7835 42.7123 479.0524 45.6761 463.7711 49.4787 460.3204 53.5658 445.2863 79.3676 432.5762 84.6007 427.953 88.4535 424.4697 93.3598 416.8884 102.4028 413.7333 109.3665 405.3387 124.516 400.7557 143.5425 399.0118 154.2548 396.4769 169.8066 392.7402 177.6374 387.7188 184.9985 382.3136 192.202 377.6585 200.0975 373.6973 206.283 373.0516 208.4103 374.9715 210.1152 384.329 208.4084 388.0082 206.5445 393.1115 204.1543 396.3122 205.4303 399.5167 212.2451 403.1493 213.097 406.5608 212.2461 410.1949 213.9498 414.8423 230.9313 418.7928 245.333 427.9418 254.344 435.0987 261.389 436.8317 267.5998 438.5701 276.3918 439.0112 280.6816 436.787 283.2761 433.2419 288.6243 432.381 298.875 431.7778 302.2821 431.1401 311.7879 431.6114 317.6351 433.5254 322.1975 436.7047 324.8151 443.1603 326.168 448.9824 327.7652 452.3576 335.699 457.1468 345.7631 462.2619 349.9966 469.7596 352.783 475.1023 351.7631 487.5959 349.9778 498.348 350.409 514.0656 353.1206 519.9162 353.0209 527.475 352.5127 540.7103 347.038 545.5196 346.2189 550.8973 346.6982 558.7441 349.4785 563.0095 351.677 568.47 353.9495 576.4243 355.5725 581.5202 355.3022 585.3714 355.1992 587.6152 356.2307 600.2387 371.8794 611.1691 385.4385 620.6984 396.8298 630.9803 409.1244 631.7782 409.8449 636.3365 408.2547 639.3611 408.9369 642.1713 411.4325 646.9636 410.3956 653.7328 405.8344 663.6705 404.911 676.763 407.622 693.9611 407.6131 715.2389 404.8837 728.4112 401.9401 733.5157 398.779 742.0464 399.0909 752.3512 401.9124 757.9615 405.9469 758.6922 409.9225 760.8618 416.1144 758.7286 422.4039 752.2826 428.7937 748.7668 436.948 748.1879 446.867 744.8947 454.2088 738.8829 458.9753 736.6003 465.9075 738.04 474.9986 737.5222 488.3062 735.0314 505.8265 735.1214 516.2946 737.8063 519.7007 739.0712 524.6029 738.9119 530.9957 739.9546 536.6437 743.3064 543.9989 747.9866 558.6407 751.8537 564.9148 755.198 567.1986 758.6103 569.9934 768.4607 584.9157 770.8413 588.0555 770.1409 590.8238 769.2378 592.8983 768.1225 594.2243 757.7223 603.2398 737.0306 622.8354 735.3175 625.3239 735.4663 629.3944 741.4762 626.7241 747.9203 628.8511 751.0693 629.2578 752.5008 630.8449 754.3696 636.0618 756.5138 636.9108 759.6626 639.063 765.8119 644.5209 770.9539 650.2807 774.8063 653.0221 777.5169 655.5813 778.3748 659.3485 777.2372 663.1301 780.4532 671.8393 782.651 674.5315 783.7879 677.8515 782.6471 681.2004 785.3491 685.0816 788.2863 692.7441 791.8669 702.0932 792.28 707.3004 793.7696 709.6816 795.5063 716.6273 798.4899 723.1297 797.7622 727.6216 799 731.9858 786.7878 735.0832 785.69 734.6373 784.9623 733.0338 785.3547 720.5288 785.2748 706.4183 783.4083 700.6597 777.8311 691.4483 770.4205 679.2203 768.394 675.706 765.2564 673.7095 761.5444 673.4571 758.8301 674.357 755.1742 676.6939 751.7253 679.2278 745.0606 686.7322 738.3479 695.4928 734.4177 697.4754 730.4716 698.314 726.9921 698.0837 724.191 695.776 721.3216 691.0598 717.8632 684.7936 713.7277 682.7745 712.1263 684.7266 710.7487 688.4459 709.6693 692.1361 712.4439 696.7816 714.8302 700.3618 710.7272 700.2808 697.432 700.4166 682.0859 700.5654 666.7357 700.7068 652.9121 700.8283 640.0968 700.9329 635.2016 700.6707 630.2264 698.5879 625.4498 697.6109 622.9319 697.7932 618.4093 699.8907 612.5227 700.2343 608.5522 702.2207 605.3538 702.0068 605.2822 712.885 605.1689 728.3893 605.0419 744.8122 608.5957 743.5413 611.6735 743.6369 613.9264 744.7737 620.2421 743.7919 623.7425 744.2556 627.053 744.6432 630.1264 744.6756 632.0133 745.9613 634.5545 745.7052 637.2749 744.2586 640.5227 745.1205 643.9987 747.3997 646.2312 750.816 648.223 755.0615 650.2208 757.293 650.0874 761.376 650.0144 764.5721 649.297 767.2379 650.176 768.9484 650.8176 770.7732 650.6341 771.8426 649.452 772.3253 646.9141 772.7056 644.1999 773.0264 642.3125 772.9255 640.8439 771.2846 639.4267 771.1182 637.3609 771.3745 635.178 770.3873 633.2966 768.3352 629.9377 766.2922 626.3297 767.2125 623.8453 768.2993 621.2954 769.6239 618.9853 771.004 616.6811 770.6672 613.7172 771.6962 611.2257 773.2569 607.9102 774.5256 604.2978 775.145 600.1515 775.7746 596.1821 776.0397 591.6775 776.5489 591.3837 785.174 590.8033 802.1122 590.4108 813.3124 590.3911 823.6229 592.1118 827.3604 600.0374 835.2251 606.2386 839.3432 611.4905 843.9444 616.7235 845.8447 618.9082 847.5762 620.3359 850.4364 621.0389 853.4494 621.6003 856.0361 621.0023 858.7742 619.6854 861.3726 620.2419 864.0972 622.1038 866.2347 622.6626 868.9577 623.9415 871.5258 624.6443 874.1056 626.2185 875.9506 628.228 877.2247 630.8084 879.3431 631.0796 881.3469 630.7733 883.6489 630.7334 885.3823 633.1654 889.2952 633.8725 892.0589 632.6913 895.37 631.4748 906.801 628.4972 919.8121 626.5825 929.7287 623.4534 945.8695 619.8052 964.6045 615.351 987.3689 610.9408 1009.7771 606.6645 1031.3974 602.7927 1050.866 598.5204 1072.2656 595.9273 1085.1914 594.7454 1087.438 591.4825 1082.8152 586.5025 1078.4682 581.809 1075.872 579.847 1072.4115 577.21 1065.3247 573.4544 1062.9298 570.8031 1061.0652 568.2148 1061.3732 565.4641 1063.3609 561.233 1064.658 558.3786 1064.5029 546.9249 1059.7075 545.0445 1059.2547 552.5556 1047.9374 565.9871 1027.6502 574.5312 1014.7234 584.0209 1000.3325 588.867 992.9797 589.505 991.7261 589.5052 989.8593 587.5022 987.0929 583.0123 985.9635 577.8241 983.8804 574.5743 980.4443 570.0394 978.9962 566.5241 976.5505 560.0907 974.1933 556.2396 971.9851 551.5211 971.2226 547.7926 967.1482 534.1298 959.3017 530.5906 958.5726 526.7271 959.8234 521.0678 961.1301 515.5914 965.5317 508.7732 966.9804 502.4107 966.9696 499.1075 964.3889 495.9167 963.4688 491.7683 959.9446 484.4162 957.2659 479.0934 955.3936 475.7882 956.2854 471.5271 960.2698 467.2252 964.2199 463.8093 966.6775 459.2366 966.569 453.7656 970.2025 448.3921 971.4978 442.9788 972.0803 436.7351 973.3618 429.8267 971.1937 424.1689 969.2782 421.6285 968.4136 419.3366 969.0217 415.7802 971.0352 409.3916 971.8986 404.395 972.098 400.8448 971.1685 397.6517 967.6688 392.4837 965.8808 386.8004 963.7 385.6033 959.1924 386.4224 955.8308 388.6406 950.9655 387.4077 945.9384 385.015 937.9799 383.9937 934.7346 382.2126 931.9748 379.4115 930.9732 373.9362 931.7222 367.9491 928.7026 364.2533 925.8228 362.3399 922.304 364.3709 915.6697 362.5801 910.021 359.0067 906.8736 356.7055 901.3448 353.1321 896.9412 348.4138 894.6753 343.6993 894.913 340.0005 893.5182 335.7827 888.852 331.828 887.0789 327.3578 882.5347 319.0124 880.4963 314.6769 878.711 312.1947 875.9126 308.846 870.8795 309.2222 868.1083 307.597 865.3734 306.1465 860.4567 303.2908 853.2083 300.1559 849.0772 296.9333 845.9532 294.2052 843.3094 290.1484 839.3741 285.1711 837.076 280.9576 834.6587 279.2906 831.1076 277.8768 828.1901 275.5179 828.3898 272.1299 828.1171 268.3992 827.3622 264.4552 825.2236 261.1673 822.6397 255.6319 818.269 252.6151 817.6789 249.942 817.6634 246.009 821.887 234.161 817.3485 224.0309 810.6387 213.5315 808.836 206.7271 804.7386 200.4458 798.3426 197.0527 794.0293 194.2981 791.8768 180.9468 785.6099 178.2873 784.9919 173.2299 787.806 171.5821 789.5065 171.3018 794.422 170.7018 797.216 166.2889 798.8677 159.1738 798.4413 154.2138 796.6119 150.9019 796.3213 150.2333 797.7106 148.3734 798.2944 144.3329 797.855 138.3795 796.4358 132.9796 794.5633 125.6512 790.631 122.2773 791.0758 113.9723 790.158 107.1874 787.8884 105.4512 785.8402 102.4476 771.9265 101.5471 770.9556 98.6239 770.3214 93.7069 768.3547 90.6094 766.0808 88.9897 762.2177 87.0373 758.5456 78.7838 759.27 65.2527 754.3004 55.8898 749.6071 47.3276 744.4153 34.3466 734.232 29.4023 731.687 23.3016 728.5407 19.6932 723.5562 13.7402 718.4937 11.7432 717.1095 9.8676 712.5749 1 705.9231 5.3614 697.5343 16.0032 691.3141 30.0067 696.4019 31.7099 686.5624 26.6351 677.7802 27.3845 661.2928 29.0289 658.0256 32.7272 653.6453 37.5485 650.6349 40.3764 649.7766 45.1818 651.3343 48.2211 648.0691 59.6715 649.6435 63.1462 648.2924 65.5232 646.0743 68.3233 644.3875 71.907 640.4414 73.9663 635.8657 75.6814 634.0938 79.6529 634.7538 80.0225 632.7741 82.0686 630.0882 89.0384 624.094 88.9743 621.4196 87.0386 615.5767 87.5221 613.4414 91.5456 612.7277 96.3097 611.1215 98.864 605.5685 102.0176 600.7282 105.6402 593.61 109.6026 593.1855 111.7331 584.8539 117.1005 577.569 128.0549 555.9285 124.7773 556.3909 122.1631 559.276 119.1943 558.9188 115.834 557.1962 116.8735 547.4267 114.9423 546.2578 109.6631 553.7574 105.1912 546.0811 104.8097 541.4162 106.7339 536.8076 106.4753 533.6999 99.1533 535.9773 99.509 533.1023 104.0747 530.166 106.1566 527.095 110.1441 523.7608 111.8228 518.6949 112.8331 510.8396 114.6791 502.3907 113.3903 498.2247 111.2696 494.6566 109.617 478.9187 110.1903 469.7616 109.3356 462.5731 107.5379 456.4803 98.9779 448.474 112.7338 439.3639 117.7134 432.4752 111.6522 418.2702 103.676 406.3022 103.5288 399.1294 105.6596 400.0485 108.3826 399.8364 111.0653 384.7282 110.5447 380.0491 106.0939 372.4983 100.4428 372.3124 95.6367 362.8332 92.8354 360.7089 90.6501 354.7472 82.8869 343.1418 76.6863 337.1055 81.6297 323.1154 85.7857 320.4355 87.1894 316.9463 85.734 308.3682 86.211 306.3554 87.194 305.5015 88.1545 305.5609 89.7903 306.8492 92.811 310.5483 95.3178 315.1321 97.3655 316.5368 100.5142 315.015 112.7971 305.8628 112.0691 303.0358 113.2727 297.3134 117.404 292.6234 121.7658 291.0239 123.1013 288.4108 122.1124 284.398 117.7359 274.4028 113.7676 269.0295 111.2573 263.6794 109.9683 258.7561 105.4613 254.1301 107.4911 249.7347 111.153 244.5963 112.3851 243.7066 114.2976 245.1056 119.4518 254.4038 127.8348 260.4528 136.5851 270.2362 140.131 276.9891 143.0188 278.2155 145.5156 280.6618 144.3703 282.4795 141.5461 284.3989 140.6783 288.3365 142.4618 290.5405 144.3691 291.9433 149.5931 291.0451 152.5314 286.4259 150.9092 266.2795 148.0558 256.2292 144.6376 253.1047 141.5839 249.1379 143.7345 246.1275 149.3027 244.7597 156.6645 241.2226 183.6679 222.0056 193.0887 204.0243 200.1901 197.5103 208.1604 193.2669 217.8234 194.2327 225.3805 191.9575 227.7692 186.2475 225.8156 178.5268 222.9877 173.8789 225.8552 167.1171 228.8664 156.8787 228.7765 148.2963 232.5477 143.1735 231.2961 141.1651 225.8306 145.3199 221.5344 147.186 224.0003 143.769 231.6805 135.2882 235.7895 122.4285 238.8779 117.0754 249.6318 109.583 251.7825 105.9847 259.896 100.3791 273.0065 88.3722 277.9986 85.0273 303.059 92.6773 311.0565 92.1742 309.6166 93.5855 305.927 94.0706 300.5775 96.1748 298.9918 100.7853 302.5634 105.6107 306.3837 107.0023 309.6786 103.8887 312.9866 95.013 318.2665 85.2166 319.5593 74.976 323.2698 71.4546 328.6697 70.1852 338.2838 72.1939 345.6046 74.3019 353.2541 74.5616 376.6717 72.9981 414.7109 46.5096 432.3331 40.8445 443.3455 35.3111 450.3164 24.5065 452.1518 16.4026 457.2905 13.2675 462.7243 13.2883 465.1939 11.3235 465.9475 8.8326 478.9533 1.8843 486.418 1 493.022 1.1529 507.8933 7.307 514.8725 18.1195 516.1052 25.5629 506.815 33.6253 504.5827 37.1881 Z M 60.0853 646.1142 58.3205 647.5544 54.9635 644.9129 53.8219 641.6115 55.8863 639.1784 58.5371 640.0033 59.738 642.0301 60.0853 646.1142 Z"/>
</g>
</svg>