<?xml version="1.0"?>
<svg xmlns="http://www.w3.org/2000/svg" version="1.2" baseProfile="tiny" width="800" height="930" viewBox="0 0 800 930" stroke-linecap="round" stroke-linejoin="round">
<g id="ne_50m_admin_0_countries">
<path d="M 1 812.8575 7.17 796.4747 11.7993 788.917 17.4442 783.646 40.2074 770.8539 43.6569 771.3633 59.572 788.1347 64.635 789.4809 70.2549 789.0399 76.9108 789.7457 80.1503 786.4786 80.6368 782.1628 75.7929 777.3219 75.0611 772.1378 78.4002 766.5158 80.2752 760.2949 85.1622 752.9235 85.6583 749.4666 80.4165 745.6835 69.6878 739.8872 62.3328 734.3068 59.4996 728.9655 61.4669 722.1542 67.3219 716.6312 66.9512 713.6279 61.7364 708.644 57.9201 703.3081 54.0126 699.9636 43.2534 697.9513 45.2627 690.7905 49.1728 680.2613 50.0726 672.1865 46.968 650.9826 47.219 647.1199 50.1553 645.1605 56.5878 647.5177 63.0676 650.7522 80.6564 646.146 86.8141 645.4424 91.9336 649.5117 98.9941 652.7058 139.6521 643.9064 140.4121 634.8747 142.7182 626.6999 143.0009 620.572 141.2907 616.6386 139.2711 613.6671 138.0444 607.5372 137.9943 600.9576 141.8823 597.8628 154.8589 590.031 158.9154 590.3253 168.0298 594.5982 176.5788 601.2885 184.1886 615.3764 189.4689 627.4841 197.8886 642.1757 215.711 648.1604 236.971 651.9926 248.4807 650.9957 264.8928 638.4912 274.1898 628.7307 277.2028 623.477 282.6249 626.1903 288.7758 639.0463 292.7378 644.0295 293.7292 648.7809 290.9686 654.7123 293.6631 658.5219 305.1194 661.2266 315.1358 658.6888 319.6681 653.4484 327.1608 646.6174 327.216 640.8713 323.1925 637.1121 323.1859 631.9721 327.3463 627.9321 331.395 616.8758 332.6532 608.8015 336.6058 603.6595 344.1313 600.0887 346.8514 596.8521 351.0473 577.7 348.8639 570.7732 348.8601 565.0198 353.6119 557.694 354.496 545.6821 352.4857 525.9955 351.0974 512.4821 349.6573 498.3286 353.3314 479.7284 357.1544 460.3521 356.4624 455.5295 351.1589 449.6495 344.6194 444.2736 327.7701 439.8562 321.5053 432.836 316.6243 425.3756 313.0422 422.9879 294.6621 420.0435 290.5898 415.8335 292.2478 403.7612 293.8784 385.9387 293.2362 373.5474 296.5197 363.5529 300.221 356.0619 308.3417 348.128 312.6631 338.7693 315.021 336.4536 330.4067 334.8808 336.0026 330.9821 340.4151 327.0376 342.2728 321.7189 347.5476 312.9394 352.2548 306.961 352.7604 302.9271 351.7695 297.3202 347.118 286.2939 341.5556 277.1122 338.1875 273.8375 331.4284 252.2571 325.1242 247.1659 312.8439 244.4338 289.8356 242.0227 275.8895 245.9456 254.696 253.2206 238.5297 258.2598 228.0138 261.143 221.8324 260.3622 219.0417 257.0733 223.1317 254.2657 225.1844 247.7092 222.5773 238.32 218.5189 229.7305 216.2162 217.6612 217.2752 202.6592 221.307 188.5792 229.8302 170.2871 230.3777 162.8368 256.016 162.9897 281.5966 163.1567 309.584 162.9483 336.6224 162.7515 357.7193 163.3254 367.8782 158.5818 377.5329 165.7241 382.2587 167.3146 383.8699 166.7508 387.5683 171.786 399.5773 171.2167 401.4805 172.4037 402.5128 178.4897 413.6552 178.3293 419.1581 179.7038 423.6363 179.5466 430.1132 175.9968 434.769 177.1847 443.2233 181.7454 449.2614 185.6974 457.6949 184.4168 477.2824 185.102 492.4248 188.8907 507.4384 199.4094 517.4685 205.4637 526.4984 214.4253 529.8131 212.8217 532.938 210.3835 534.7149 209.3056 534.5785 201.6429 529.5183 188.5964 527.5465 177.5345 528.6517 168.4551 532.4573 161.9497 538.9628 158.0166 539.5997 151.8695 539.6818 151.0577 546.9677 136.4996 554.1954 122.0305 562.8824 105.2072 570.0347 91.3237 569.055 84.4362 569.734 74.1684 571.1797 62.7316 570.8037 55.9231 572.8737 51.2925 577.8074 34.2703 580.6882 24.3684 584.9724 19.903 591.6341 16.7636 601.3358 16.6783 626.7052 14.6011 650.3384 10.2732 658.1738 8.3222 672.9752 1.2581 678.6744 1 683.5931 3.7366 712.2335 12.0608 720.0893 15.3066 722.9277 14.8414 727.268 15.5664 733.9359 15.7005 740.4585 14.7353 744.6119 15.7341 749.9201 21.1837 753.4175 20.6101 757.9635 16.6988 766.5238 12.7207 783.0413 8.3686 785.7492 10.3816 791.561 20.338 797.5804 23.7362 799 42.1815 791.2375 65.1106 785.4187 82.3107 769.9686 110.7764 756.1173 136.2695 741.5079 178.9702 741.7256 210.3091 740.2043 229.9974 735.3363 242.0212 723.7873 274.4808 722.0804 302.4132 726.3663 336.6303 722.414 369.0943 710.2088 399.7797 704.983 423.9099 708.0541 453.0239 685.601 477.2421 657.3356 501.3222 639.0043 508.2728 624.7642 516.3688 614.5988 525.5882 611.2988 530.5862 603.891 541.7349 586.964 576.3425 578.1864 591.4912 566.6896 604.4392 549.5576 620.2458 543.2686 627.7129 540.7122 638.5699 541.7853 658.465 543.3536 719.0125 540.4579 736.5707 535.7122 765.3988 518.8903 797.6551 506.2907 815.5876 493.6838 821.0601 477.1651 825.9073 469.2378 831.987 464.4203 840.9138 455.1921 848.7044 441.5756 855.3796 424.389 871.7006 403.6828 897.6821 389.5324 912.5516 381.9256 916.3702 374.044 916.7167 365.8958 913.602 359.1063 913.1607 355.6634 914.5664 353.4535 913.4142 350.2306 910.9862 350.341 905.0167 349.359 895.1034 345.3342 884.8914 350.0661 876.6656 354.3047 870.4397 353.5473 867.1988 349.2826 861.9493 344.5012 854.4637 340.0088 854.9582 330.506 860.6942 320.5764 865.1388 311.2986 866.986 304.0118 871.6277 300.0212 874.1134 293.7729 874.104 290.2637 871.358 282.6312 868.6879 278.4806 869.5946 276.1434 870.8675 275.1735 880.2998 274.334 888.2757 272.869 895.739 270.1387 899.2168 258.6654 902.935 250.8947 908.0363 244.1579 911.4598 239.9864 910.6007 231.5939 903.7749 223.2972 897.4547 218.6735 892.1366 216.0847 888.3567 214.4017 886.6521 209.1639 886.39 207.6271 889.8693 204.9889 888.2142 196.7901 881.028 187.11 869.6755 183.5988 867.9438 178.2934 868.1057 169.9437 872.2419 161.7298 878.7403 146.8816 884.6744 134.5019 887.9901 133.4165 892.0781 130.5752 899.1098 126.5018 903.4841 115.5311 904.8296 111.6461 911.0741 102.2783 923.1547 96.0699 928.6466 94.3929 926.2835 90.5609 923.3422 82.6859 913.9219 74.8915 902.212 72.7819 896.8747 70.5922 893.8333 70.1245 882.092 58.4043 868.0915 29.1588 843.1377 25.9786 835.7201 1 812.8575 Z"/>
</g>
</svg>