<?xml version="1.0"?>
<svg xmlns="http://www.w3.org/2000/svg" version="1.2" baseProfile="tiny" width="800" height="789" viewBox="0 0 800 789" stroke-linecap="round" stroke-linejoin="round">
<g id="ne_50m_admin_0_countries">
<path d="M 9.4388 190.7685 14.1979 198.6859 49.4773 209.1945 57.3031 205.2969 62.1568 199.1069 62.3064 195.1033 65.375 194.0261 77.7242 200.49 87.992 199.3659 104.4573 199.5288 116.1796 200.8309 124.0605 196.3304 134.9963 179.3158 139.1141 169.7456 143.869 167.5443 146.9364 168.764 149.0194 176.7605 154.3744 184.3382 165.4712 196.7403 173.3933 202.7495 180.6584 204.996 187.9151 200.2393 195.3258 198.9798 216.255 208.8259 234.0557 210.91 247.3121 206.1431 245.6735 199.3114 240.9843 191.6643 240.0598 184.2855 241.0348 177.9331 250.1413 171.7089 249.7439 168.9216 239.0084 157.6101 239.603 154.7422 263.6177 142.5014 286.6704 135.7157 290.4028 130.3202 292.622 122.1754 293.7785 106.8838 292.6418 94.3632 283.4738 82.5483 282.962 76.6048 285.2216 70.4629 288.882 64.9375 298.0273 62.6081 308.7604 58.6907 317.2474 54.1445 328.7199 50.4016 337.7431 45.0987 346.5831 32.4099 351.9138 30.3303 368.0285 32.1893 371.4837 29.0593 369.3168 10.7772 372.2095 6.1392 377.8986 3.5491 380.5622 1 394.7028 2.9771 406.4772 7.6991 413.6225 10.5621 437.3626 23.7316 453.8824 38.5327 463.1194 55.0081 475.6078 67.7315 491.3196 76.672 503.8352 88.8562 513.181 104.2955 526.1273 112.8504 542.6445 114.5264 553.1732 119.6973 557.6895 128.4 566.797 136.2007 580.4633 143.0882 601.6308 146.6048 642.0369 146.6947 645.6287 146.8114 654.788 148.8052 665.3477 145.7876 678.1496 139.902 682.2339 136.4864 695.3347 117.9489 702.8582 119.3059 717.7061 116.6645 726.5981 112.3649 727.2785 112.3444 726.8496 117.0146 726.0968 125.1642 718.9628 131.128 726.8233 144.1503 734.5945 165.4026 730.9699 176.1323 736.0633 184.2456 749.93 189.7471 751.2468 192.0715 747.1499 194.6746 743.91 201.8039 743.9271 214.6106 756.2806 226.3012 781.0152 236.8415 788.8614 238.4768 791.9964 242.7397 796.1765 245.445 798.7009 248.8512 799 253.367 797.3655 256.53 785.8646 258.0498 772.6871 258.4178 763.1304 253.2447 762.4298 257.2765 762.4376 261.8692 753.4574 264.9679 759.538 296.3334 757.8253 305.4723 754.5549 308.6264 751.3844 307.4664 747.5505 307.2322 745.7261 310.2615 747.5238 316.928 738.5622 317.9863 724.1376 314.9402 717.401 309.0294 716.1014 302.8242 715.8273 297.032 711.0162 287.6555 699.3712 278.1482 675.5993 277.1606 666.7606 274.2614 657.649 270.8995 647.7 268.4831 638.5897 268.9535 627.6536 271.8038 608.3833 267.8667 602.0054 273.771 592.0165 280.6427 583.6151 280.6209 566.6538 265.3932 561.6537 264.4895 547.1671 272.6048 541.2258 273.1102 536.6299 270.6711 516.8088 264.9862 507.8866 263.8086 501.3722 266.6755 489.7348 263.7454 461.4595 243.7122 444.1538 259.1982 408.7349 255.4723 398.2403 266.0457 386.1742 286.069 376.3774 295.622 367.8762 292.1715 357.8386 283.3329 340.3508 260.5853 331.5067 256.4447 321.3203 255.4293 312.399 257.8662 307.6314 262.4328 303.7443 295.5191 300.2849 324.6827 299.951 342.1757 319.516 358.5291 342.5918 386.5384 350.0684 389.7771 353.7346 398.9191 359.1142 422.4435 365.185 448.886 377.0422 466.4054 387.7719 478.9424 400.8981 489.9493 417.388 507.1796 430.9648 526.0786 434.5808 533.0553 460.984 557.9592 486.7049 583.3155 509.6737 592.0298 513.3313 596.7061 513.729 616.3423 516.2971 623.6812 531.8593 644.0506 563.5717 673.6761 567.289 680.5835 568.3933 685.67 566.4216 689.6114 558.2463 693.8543 551.4315 689.359 521.8475 660.3579 493.4571 642.1166 461.4357 607.4268 418.9247 593.7987 390.014 578.5381 372.5153 580.8522 353.197 585.6072 341.2854 585.7066 332.8346 582.9135 326.872 573.398 327.8277 566.0692 326.8165 556.4865 310.0365 541.0757 287.1586 526.3417 265.5956 507.296 222.7339 455.8865 214.281 439.406 222.8589 436.4328 229.3065 436.8145 236.6681 433.5668 248.4773 433.6454 262.4349 437.1594 250.1772 426.1354 234.9234 415.2614 195.867 372.2497 184.4034 352.0157 183.4413 330.4284 186.9048 300.9166 180.2209 279.6135 150.5078 251.5855 139.7651 236.8925 117.6866 227.7767 107.7121 228.3609 101.444 238.8724 96.4295 262.468 75.7269 293.1907 68.7026 306.5845 57.7801 323.9381 48.7242 324.8731 43.4366 323.1492 28.2626 292.8895 13.6257 269.8513 11.8462 259.1228 10.9258 245.9625 1 197.2503 9.4388 190.7685 Z M 426.2195 683.8398 452.3391 689.1084 471.4643 686.5173 488.7911 689.6797 499.5981 695.6896 502.2313 698.6617 488.2559 699.205 472.4389 696.8492 454.5444 703.1749 438.7248 699.9339 432.7082 695.9251 428.4445 690.8922 426.2195 683.8398 Z M 502.6948 658.4685 492.8625 660.5556 430.1741 659.4572 411.9388 655.5054 391.6676 645.2208 387.5328 642.0585 407.9181 639.0701 426.8535 642.0117 432.6883 649.4703 483.9492 655.1502 502.6948 658.4685 Z M 444.9979 630.9829 422.8175 631.5623 403.5419 628.1054 394.1002 622.1255 394.7995 617.082 397.7175 608.6686 419.1351 609.6382 451.8293 615.4995 459.8586 622.4265 457.3926 625.6589 444.9979 630.9829 Z M 228.6936 477.1746 230.766 484.0097 213.644 470.9523 207.2304 462.2493 206.0748 458.4028 228.6936 477.1746 Z M 173.7813 299.5671 156.8726 303.3554 149.0235 295.779 147.0674 289.6517 133.3067 287.4094 125.1541 278.7524 123.5439 274.959 135.5678 265.9392 142.2366 251.0406 150.0365 260.243 159.356 277.4426 164.4318 282.2942 173.7813 299.5671 Z M 175.8536 341.7391 179.1435 350.3201 166.3908 342.3767 154.9072 339.1898 152.5839 333.3577 154.3428 328.6524 156.912 324.1152 165.6081 324.941 166.8256 329.4933 175.8536 341.7391 Z M 223.5645 424.3109 219.9143 429.382 211.1355 419.783 203.0541 412.9134 197.3327 404.8357 186.0351 394.6796 182.3743 383.2378 165.759 359.7254 163.3415 353.3752 171.6481 362.9491 178.6145 368.9632 184.4497 370.5097 199.0884 385.5753 213.4465 404.8399 230.7095 421.6292 227.0626 422.0833 223.5645 424.3109 Z M 222.4353 504.0841 224.3767 506.9409 224.159 508.8594 216.9885 506.0322 215.0338 506.8765 181.8033 464.1604 178.3168 455.9018 190.2555 465.9328 222.4353 504.0841 Z M 247.9461 494.524 256.9233 508.9807 248.1987 505.9188 239.1903 496.9192 233.9622 487.2044 247.9461 494.524 Z M 128.3718 359.7883 127.1371 367.2552 119.0167 357.5773 115.2319 340.488 105.4703 312.7912 104.3242 305.0272 109.93 297.5437 109.835 289.8073 103.0831 265.5512 109.36 261.7826 113.0362 261.4057 114.0993 278.1366 117.2099 287.817 126.9615 299.8483 124.4651 319.301 125.8581 347.1187 127.7597 353.3421 128.3718 359.7883 Z M 561.8791 726.3824 581.386 739.2777 524.5049 722.7899 530.9157 721.1237 536.9103 720.7084 561.8791 726.3824 Z M 680.007 764.1648 680.414 771.2204 686.071 779.1105 692.0813 788.206 665.4798 770.6566 640.6179 750.8452 592.3702 720.4117 558.4734 713.33 512.0177 688.6635 481.9106 680.0084 493.3306 677.8516 506.4997 677.6673 578.0452 710.4141 569.9954 701.6116 580.2074 697.9084 588.9631 700.3017 594.6972 711.2002 605.7794 718.2332 623.7843 730.5946 635.2068 740.0946 661.0761 757.0167 667.1655 759.315 680.007 764.1648 Z"/>
</g>
</svg>