<?xml version="1.0"?>
<svg xmlns="http://www.w3.org/2000/svg" version="1.2" baseProfile="tiny" width="800" height="344" viewBox="0 0 800 344" stroke-linecap="round" stroke-linejoin="round">
<g id="ne_50m_admin_0_countries">
<path d="M 188.845 7.5628 192.2283 21.8824 221.2886 38.4422 260.1686 53.2025 283.0082 54.0984 313.288 38.199 355.0252 21.5929 406.6967 6.5099 432.8265 15.4867 468.0197 17.2386 494.5136 12.0869 512.9795 24.1474 527.5391 46.0938 531.3923 99.8349 536.8413 102.3671 559.5032 80.8989 600.0476 89.5402 627.8652 92.0838 650.7753 81.0977 664.9729 79.6335 681.0579 74.804 699.0938 64.0768 714.6367 49.2289 731.4998 53.6248 760.0928 69.3296 777.7192 64.4517 786.5559 75.3263 799 107.0544 747.2255 116.9768 695.1936 120.5315 666.1883 116.6778 639.011 118.751 555.0379 210.3129 509.6421 241.4819 455.5132 260.1448 400.342 271.2364 372.6074 272.6629 348.2321 284.2455 331.0973 305.3632 330.6533 325.9301 323.3083 342.8792 292.9777 339.3603 280.3737 306.1336 258.8144 291.8259 205.1346 299.1461 178.9521 298.2005 93.2178 266.1557 67.3932 253.096 51.4111 225.9345 7.8897 127.9877 1 55.7099 41.8853 74.4506 80.3517 52.2797 117.4234 15.8148 161.382 1 188.845 7.5628 Z"/>
</g>
</svg>