<?xml version="1.0"?>
<svg xmlns="http://www.w3.org/2000/svg" version="1.2" baseProfile="tiny" width="800" height="455" viewBox="0 0 800 455" stroke-linecap="round" stroke-linejoin="round">
<g id="ne_50m_admin_0_countries">
<path d="M 799 272.6176 796.019 273.0452 789.3324 276.158 780.6327 277.5695 771.1297 277.4451 763.9727 282.6789 757.3424 290.9829 750.388 296.8255 746.6866 301.9453 744.7112 307.1185 720.8993 322.5662 717.7331 328.7213 715.321 337.0467 714.578 348.1908 713.2032 358.2086 709.1786 363.6196 696.0895 368.6101 692.8704 371.1568 690.5605 376.31 683.3721 384.3771 674.8857 392.104 659.081 401.1229 641.9079 404.2298 619.3891 402.0993 606.2086 399.1139 599.9114 402.9249 591.4144 414.2154 582.3811 433.5137 578.786 447.9426 575.6888 443.9556 569.9627 428.8608 563.8033 427.0427 555.4425 425.7936 549.1282 423.6722 535.4427 415.1626 528.4472 412.6434 520.4913 412.0636 512.9268 417.3316 507.2482 423.4995 489.3115 423.6574 469.6301 421.051 441.3701 401.1335 434.0922 401.0015 426.3237 401.9613 414.0424 397.2511 390.2674 384.26 379.1588 381.2055 372.1312 383.0698 365.7126 385.9529 361.1356 386.2859 358.4912 382.043 349.701 376.7755 340.8546 376.1403 338.2722 379.2888 335.1429 407.9892 332.088 418.3309 319.8893 417.7734 315.5011 422.6433 305.7792 436.4333 303.8112 449.7776 287.1307 447.0281 279.2257 444.6998 272.2055 446.3233 264.4025 453.5837 242.795 452.849 225.7564 448.176 218.7033 431.5235 211.0021 424.8396 201.2769 418.7997 197.86 417.4296 192.6111 408.3104 182.5679 396.9289 166.3285 381.305 153.4149 381.7416 148.7458 377.5735 146.7793 371.9116 141.652 362.0894 135.7784 355.1884 128.5235 352.3747 118.2751 343.497 104.8147 324.38 92.4019 311.0492 80.0405 310.8493 72.4344 303.8106 64.7741 294.6618 59.2161 285.8693 50.8856 264.6673 44.7342 252.5112 39.8769 244.9537 34.3217 238.5968 32.4156 233.6548 39.9085 222.8157 42.6825 217.4154 45.879 213.3055 47.8129 208.896 47.8815 205.5216 41.8766 194.312 33.5259 186.07 21.1634 177.534 13.5077 167.074 10.9266 157.6725 10.2599 152.535 5.0229 145.4012 1 135.0925 1.2777 128.9981 2.4485 127.3507 6.6179 127.5355 11.1145 131.8714 17.3772 140.1296 22.312 151.9943 25.8166 147.6711 32.5214 135.5159 44.0849 121.8797 55.6622 114.2905 65.8019 113.9803 74.1697 112.0536 81.2042 108.2789 93.1684 110.2788 101.7745 113.4514 104.6529 111.7451 108.4241 104.5346 110.881 98.2977 130.2274 95.1616 137.1743 83.1717 140.8843 83.3347 145.193 81.6268 149.3934 77.1226 153.3581 75.3302 156.3931 77.6866 160.4285 79.3038 164.7481 76.4917 171.3832 62.7012 174.9466 60.6118 191.8202 58.8024 214.9168 51.0295 226.6616 43.916 238.1162 40.13 250.4472 33.2464 269.9454 26.6167 270.9102 23.8113 262.0122 16.62 259.0575 12.113 257.1019 7.5024 260.337 2.4691 264.5799 1 270.0487 3.1857 286.2052 6.3834 290.613 9.3528 292.1539 16.5356 296.204 23.2491 299.5135 23.9881 298.2199 34.8507 303.3614 39.1133 310.8985 42.4675 315.9179 41.8406 319.5453 37.451 320.9498 34.4007 330.9832 34.0212 341.1142 29.4407 341.9632 21.9708 341.3931 7.9739 342.4753 5.9691 357.7603 9.9662 373.1035 16.2965 375.2344 30.1768 379.3583 37.0237 384.2148 43.2675 388.8929 46.1083 396.9529 46.5446 417.9107 54.7434 427.9984 56.3811 438.3565 62.0172 447.102 67.7976 453.4733 68.9675 456.4789 75.3413 460.4155 79.6865 467.2854 76.2555 492.3912 71.2511 501.5409 77.4221 507.7684 83.9947 508.644 86.1004 505.5274 92.0247 504.0536 96.5967 501.4713 99.6487 492.8467 102.9766 488.0233 108.2436 484.5378 113.9773 486.9967 119.3975 494.1474 123.3933 499.187 124.2428 501.1556 128.2025 517.5239 145.7688 530.7489 168.8113 535.8201 172.3606 540.5445 173.1385 545.9251 169.6182 552.0594 161.9673 559.3853 156.3626 565.6215 153.4327 576.5697 146.7678 576.9103 142.5669 567.3349 127.052 561.7179 114.4285 562.9492 112.0959 574.7791 113.8552 594.9907 120.3379 626.4703 142.2367 631.9956 142.0816 642.7754 140.0631 654.4019 136.003 659.842 131.6129 661.9877 133.1164 664.1943 145.5276 661.3437 152.461 647.4578 159.5262 648.375 162.8032 652.1261 166.9367 658.5731 169.6106 666.5512 177.4483 672.1737 186.4974 676.9822 190.6219 682.1899 192.476 694.8706 187.105 698.3673 183.0827 699.8778 180.2713 702.3964 180.7909 707.0631 185.1557 708.5208 187.7692 721.2211 192.4456 728.6687 198.4971 733.3853 201.2924 738.3614 198.1921 758.3655 202.4098 763.9992 206.4072 766.0459 213.351 765.2506 217.6518 768.7803 228.5543 795.1204 253.8669 798.4015 267.248 799 272.6176 Z"/>
</g>
</svg>