<?xml version="1.0"?>
<svg xmlns="http://www.w3.org/2000/svg" version="1.2" baseProfile="tiny" width="800" height="689" viewBox="0 0 800 689" stroke-linecap="round" stroke-linejoin="round">
<g id="ne_50m_admin_0_countries">
<path d="M 11.5215 460.7545 8.0407 425.3383 5.7195 401.663 3.2856 376.5701 1 352.9072 12.4123 338.4969 17.7968 324.7679 31.661 280.0541 37.1115 271.1777 47.8721 247.2577 49.4078 240.3338 60.0895 210.1537 59.3161 190.0458 57.4472 169.7123 63.2191 157.7394 68.376 148.1583 68.1159 140.044 70.5997 121.1283 72.2672 116.429 78.4432 116.1794 91.1121 118.7094 100.4511 116.8673 111.2204 116.9096 119.5271 116.3878 124.4999 110.6411 131.3994 88.6243 135.8148 84.2253 139.1735 82.9042 148.6866 78.8641 156.8597 72.4822 163.5156 67.9039 165.9744 66.9902 172.9817 66.4355 179.9893 63.7502 183.2385 60.6491 192.0759 58.2073 200.7112 59.6239 206.5454 56.9295 210.4264 55.1826 214.8277 55.0553 218.8825 52.5104 220.512 48.593 223.167 46.1048 229.932 40.3996 233.0363 36.2637 234.4335 32.1012 235.805 28.7779 238.7841 23.1928 250.5758 9.151 260.7307 1 296.1407 71.9448 310.6115 113.926 323.4145 157.7588 332.9862 223.6747 342.101 257.2421 356.7631 273.7713 366.8561 305.1092 375.4384 306.267 381.6954 314.8676 392.4475 344.2613 400.1895 355.1725 404.1771 345.7383 403.7004 340.3134 400.6554 331.2658 403.352 319.5811 409.2897 312.5624 422.9355 322.0066 430.4182 329.1857 432.4932 343.6431 435.659 351.6503 450.0224 368.5439 462.0802 373.401 477.6894 374.5258 490.7612 378.1633 501.2762 384.3052 521.0171 401.3648 565.9673 415.9984 602.4569 461.858 624.0079 493.6269 694.2871 541.0441 706.5964 564.07 713.133 586.6865 727.7937 585.3082 753.2087 609.6297 760.7561 628.3551 781.4036 634.7267 784.7651 623.4987 794.8215 632.4235 799 646.5063 785.9009 652.4763 771.4369 657.8257 769.3709 657.688 764.6187 664.3305 757.9402 682.3776 750.4117 687.7405 746.421 688.2881 723.5621 672.0322 720.0542 671.1618 715.1568 674.5568 711.6077 678.0487 700.938 665.5705 693.096 654.5004 682.1615 641.3094 671.6562 635.4811 660.332 628.1225 649.1359 610.7243 637.6909 591.5337 620.8561 575.9342 589.4094 553.4807 560.4912 524.8161 538.3424 494.7058 524.1049 479.0412 518.047 475.0647 488.7645 465.4015 468.2609 451.6714 452.5055 440.3277 442.8522 437.3258 433.492 437.0057 413.5939 439.3913 396.9958 432.2867 390.0558 432.3172 378.9514 430.263 370.2334 427.7504 360.0164 430.8445 339.0361 436.0166 330.4362 434.9148 325.7201 427.7655 322.9528 422.3022 315.6453 416.6034 309.637 416.6096 306.2869 421.7073 284.3789 434.5921 247.6684 441.6921 238.9644 441.1589 232.4718 435.9969 213.9813 413.8681 208.695 410.2605 204.5179 409.9159 195.938 407.2686 187.9245 403.0026 180.921 393.9259 173.8836 388.7511 166.2045 406.4296 152.7321 437.3061 145.5057 453.8461 136.1884 475.1441 133.2718 475.7682 128.56 474.1924 110.3986 447.4675 98.9637 437.3712 90.3732 438.2581 84.0826 443.1225 80.067 451.9593 75.7476 457.4262 71.0904 459.5115 61.1166 458.3607 45.8105 453.9676 29.9942 454.7207 13.6725 460.6113 11.5215 460.7545 Z M 434.0733 237.0258 438.1236 248.9116 426.5393 244.4268 424.5949 241.9708 429.6502 237.2297 430.7065 234.3254 434.0733 237.0258 Z M 442.0397 284.5645 446.9775 291.092 450.3993 290.4273 453.0698 288.227 454.936 283.5834 473.7343 292.6059 472.692 298.6885 461.5129 299.0782 448.5876 296.5985 436.6555 297.5596 422.4195 294.9838 419.0753 284.6891 428.1679 289.6354 432.8492 288.3466 433.6748 287.0185 427.2102 280.0752 418.152 278.7319 418.7472 273.2425 422.7849 271.0626 425.2686 268.379 420.0443 260.8742 430.2195 262.5362 436.6659 267.0604 440.9211 272.3597 442.0397 284.5645 Z"/>
</g>
</svg>