<?xml version="1.0"?>
<svg xmlns="http://www.w3.org/2000/svg" version="1.2" baseProfile="tiny" width="800" height="516" viewBox="0 0 800 516" stroke-linecap="round" stroke-linejoin="round">
<g id="ne_50m_admin_0_countries">
<path d="M 709.8451 514.2457 706.5327 514.9648 688.1991 512.2265 667.8915 502.7528 658.9514 495.4986 650.2947 495.7262 639.8929 500.7857 602.4657 515.3483 593.1941 512.1531 571.6035 498.5219 560.6594 483.5413 536.4514 453.6731 534.4618 446.5509 531.3108 440.8375 505.6578 433.4464 496.213 422.3852 488.3368 420.8186 476.8314 415.2615 447.0269 391.4867 439.6218 389.2229 437.7842 393.1779 438.2561 398.7617 436.3716 401.9766 432.543 401.8354 425.7008 393.0908 417.4866 385.3629 391.4968 399.4092 382.0915 403.1487 373.8886 403.8686 332.4979 422.0084 319.7808 431.9173 314.62 430.7165 316.0591 421.1874 334.1141 373.6678 337.9147 335.7271 344.2095 330.6282 346.1016 325.3934 343.6923 313.2176 326.3229 305.0845 319.2255 306.0735 312.5674 318.9581 305.7384 328.1956 290.098 333.5317 277.0287 323.2854 246.2414 309.1488 238.924 291.2886 237.6288 273.5086 221.8079 255.8324 215.7021 235.4136 218.8981 221.4225 233.9905 212.6697 238.4624 204.7498 219.8192 205.4082 216.0973 203.3472 215.5359 196.0742 208.2002 171.1086 215.7942 161.6417 219.3153 152.3036 213.6652 144.0548 215.545 134.9591 220.4815 125.8733 218.415 104.2833 237.0361 93.5053 254.9953 86.0545 292.6065 83.021 289.4238 63.2976 304.5843 62.8001 330.5875 39.7769 355.705 44.4263 392.4098 28.8095 462.5343 29.7302 472.1349 20.4225 470.514 11.0105 470.7926 1 483.922 3.853 505.9052 2.1541 588.4435 21.5093 608.7554 21.2966 637.157 40.968 652.4573 45.886 697.2629 45.0468 766.5827 52.0818 779.6969 38.0901 780.8987 34.5219 787.7586 41.8943 796.5119 53.8364 799 60.752 796.3167 64.958 788.1085 68.7271 786.3405 72.5538 782.858 79.0477 773.155 80.5007 768.2556 85.3867 762.8881 106.3014 752.4031 140.9709 736.0615 167.5679 722.7404 182.2491 716.8758 193.3794 713.3693 206.6682 712.7829 219.9223 727.8314 292.3015 727.9992 305.4296 725.197 318.9902 723.2551 332.7666 725.4282 344.615 734.7712 364.7098 744.9863 394.7629 749.2947 414.0092 755.7774 420.9452 761.9878 425.9766 763.3474 429.2156 763.2416 432.6287 760.2187 436.556 733.1061 447.4564 729.7616 456.1371 727.0319 465.7901 715.3694 480.2708 711.9822 493.5917 710.0329 508.8313 709.8451 514.2457 Z M 102.2276 239.8358 110.9523 246.1694 119.3401 244.6861 127.9372 240.9606 146.055 245.6227 186.6466 277.1279 190.2201 285.2443 165.0673 287.8892 159.0144 296.8048 152.7276 302.9384 145.5412 304.6981 132.8784 316.9971 115.9279 328.5439 112.1629 335.7546 82.5132 332.9608 66.0366 336.7851 52.2 349.8365 45.4042 376.0905 34.6463 396.2721 24.4093 403.2143 14.098 403.7689 12.1044 395.8499 13.5119 388.14 36.6638 360.0871 41.6399 350.8271 31.1823 346.0107 22.7967 335.3444 3.971 322.2772 1 312.4919 5.706 312.0557 10.1301 309.5593 15.7764 301.8324 18.7308 292.7532 4.7978 264.9243 12.9283 261.2262 22.706 262.7717 32.3668 271.1743 43.9553 262.6036 48.7302 261.5036 56.3103 265.194 65.0551 247.8379 83.9063 242.9335 93.3755 237.9021 102.2276 239.8358 Z M 143.2534 191.4492 132.3705 203.0582 126.4248 197.9582 123.4613 192.0359 108.8247 218.6582 93.5174 222.6098 84.9916 216.7923 86.2912 206.6536 79.0894 179.5092 66.465 171.0149 48.2187 169.2971 35.5667 157.5668 86.945 152.7922 92.8489 140.3413 103.8508 127.5018 111.7019 126.4328 118.1649 129.8382 118.9258 140.2426 120.3976 144.4392 143.2605 151.2986 151.524 169.0975 154.0402 190.1917 143.2534 191.4492 Z M 193.7079 261.0606 183.0292 263.1858 158.7022 244.8429 164.9668 233.3353 172.2924 229.0126 193.2331 237.0385 195.5738 254.9737 193.7079 261.0606 Z"/>
</g>
</svg>