<?xml version="1.0"?>
<svg xmlns="http://www.w3.org/2000/svg" version="1.2" baseProfile="tiny" width="800" height="1587" viewBox="0 0 800 1587" stroke-linecap="round" stroke-linejoin="round">
<g id="ne_50m_admin_0_countries">
<path d="M 631.9675 926.3611 616.6339 989.773 594.8253 989.275 519.7761 910.9168 460.2079 868.1828 440.4959 832.0377 423.9869 770.0005 458.044 762.2649 498.5069 776.2736 600.7045 832.5574 629.7325 891.4479 631.9675 926.3611 Z M 573.0435 1534.5407 589.1096 1585.5035 570.3015 1579.8922 515.8732 1521.8593 421.2844 1383.1084 388.3856 1268.4074 383.9319 1215.5761 407.0806 1221.5044 426.4879 1268.6662 515.8776 1299.5575 539.4685 1322.8424 539.2421 1380.2687 569.5456 1448.2135 573.0435 1534.5407 Z M 186.388 365.2253 256.7583 430.7537 281.7781 476.7665 240.9391 521.0939 191.5051 532.3152 131.9611 521.7372 34.374 472.847 1 362.3796 68.4872 365.6072 148.4015 344.9826 186.388 365.2253 Z M 622.9454 216.3211 604.3306 442.3782 572.3277 441.2487 515.1414 378.8463 472.2219 366.0854 458.8034 399.4602 461.0614 439.6431 483.3199 464.8503 552.1885 616.2565 558.7488 660.3676 550.2651 681.7547 483.3276 638.1593 322.5279 441.9387 199.0403 119.0793 366.223 67.9381 487.5079 152.5728 622.9454 216.3211 Z M 799 163.5551 762.3617 285.1894 706.6219 266.4642 691.2987 253.4807 679.1071 221.7406 684.4636 131.4827 681.8089 1 746.165 107.9547 799 163.5551 Z"/>
</g>
</svg>