<?xml version="1.0"?>
<svg xmlns="http://www.w3.org/2000/svg" version="1.2" baseProfile="tiny" width="800" height="861" viewBox="0 0 800 861" stroke-linecap="round" stroke-linejoin="round">
<g id="ne_50m_admin_0_countries">
<path d="M 634.8108 20.5414 634.1621 30.1554 623.2936 53.7193 618.1846 71.8729 616.9152 91.2327 619.9636 106.823 625.2547 117.929 628.6734 130.0587 626.0583 138.5109 620.7916 142.1159 624.4123 146.3728 632.3966 147.4076 645.9532 143.7333 666.7771 137.3034 694.0483 128.0143 711.9829 123.0182 741.5947 126.2304 757.3939 129.8065 765.5202 136.3957 774.3065 164.2345 778.6461 168.4672 785.8265 180.3187 791.841 194.5412 793.1338 201.7678 792.4996 206.9628 786.4793 214.649 779.737 225.9426 777.3685 232.7892 771.7142 237.8577 764.5381 242.8642 744.7717 244.8452 741.7469 247.8225 736.215 259.871 725.7896 270.074 721.0442 279.7191 716.8384 292.5926 717.6844 308.5646 715.6068 331.5306 713.482 347.0857 718.724 352.5181 742.3627 356.342 746.9678 359.4238 753.2415 369.0415 761.2898 378.0928 782.9244 383.8027 791.3148 390.7326 798.1157 398.3089 799 404.5186 794.0749 429.4619 789.3309 453.4069 791.1495 471.6281 792.8975 489.0238 795.4187 514.3638 794.2438 529.825 788.1204 539.2575 788.1031 546.6629 790.8768 555.5763 785.4086 580.2307 781.9026 584.3998 772.2254 589.0058 767.1251 595.63 765.4682 606.0251 760.2091 620.2635 754.8423 625.4712 754.8215 632.0877 759.9677 636.9188 759.8624 644.3151 750.1952 653.1232 744.3381 659.8786 731.4466 663.1676 716.7306 659.7101 713.2882 654.8103 716.8763 647.1671 715.6296 641.0508 710.5614 634.641 702.7181 618.0949 695.753 614.6087 691.8452 621.3804 679.8166 633.9687 658.5927 650.1081 643.7449 651.4146 616.3322 646.5156 593.3465 638.832 582.5463 619.9029 575.7822 604.2971 566.008 586.137 554.9773 577.5154 543.1983 572.0109 537.9472 571.6342 521.1042 581.7494 516.052 585.7462 516.0863 594.2361 517.6462 602.1443 520.2484 605.9761 522.4443 611.0491 522.046 618.9555 519.0136 629.5057 517.9776 641.1592 465.1906 652.5802 456.0415 648.4686 449.4158 643.2232 441.4115 644.1408 418.5198 650.1152 410.1105 645.9478 401.7549 642.9127 397.9224 645.4478 397.573 650.4373 401.4811 677.8177 400.2565 688.2477 395.0947 701.8538 392.428 711.1061 406.4148 713.6802 411.4732 717.9897 416.3967 724.8699 423.1396 731.2913 423.5982 735.1677 415.9408 742.3135 413.327 751.1128 416.9676 758.0006 426.4839 765.1829 440.3778 772.6318 447.1547 777.4979 446.4797 781.9609 440.0641 791.4903 437.5704 799.5253 433.1783 806.7928 434.08 813.4809 440.3275 819.7106 439.653 825.2819 435.411 829.5103 426.7672 828.6247 419.4563 829.2151 412.8854 827.4965 392.3404 805.9022 387.855 805.2563 358.0831 821.8554 350.6738 828.6836 344.563 838.4623 336.3473 859.6469 322.8052 847.3 311.0825 824.7095 297.4476 810.8432 268.7541 788.3575 261.0946 771.8333 228.2193 735.3142 181.0435 698.7749 146.957 667.0489 141.7827 660.0115 147.5168 660.8801 180.4008 676.7169 184.8789 674.9571 188.6661 671.4182 174.4535 663.1185 160.894 656.5835 148.1782 652.501 135.4649 652.8373 128.3149 646.1332 123.6569 635.9278 121.2906 627.2059 115.6417 618.0753 97.5532 599.2528 93.1628 591.9819 83.2803 582.0362 89.2733 580.7466 108.6245 590.2421 110.3367 586.4676 108.6545 580.8966 89.2099 571.8731 78.6673 571.2717 76.2177 564.945 77.6379 557.6226 63.6876 530.1911 49.2374 509.6517 46.9478 499.9503 85.9309 544.6107 91.1375 545.3826 97.9834 544.9682 114.0929 539.9707 111.0127 534.0049 103.7335 527.6053 96.6889 530.544 87.5294 531.147 82.7225 528.4732 80.5614 523.8713 89.6814 502.1885 85.7148 503.2806 82.8027 507.153 77.7759 508.9867 70.0191 510.1176 50.8422 498.4942 33.9007 467.1465 29.4182 460.7234 24.8908 449.8208 20.4398 445.328 1 400.7668 8.4388 404.0686 17.2695 416.9781 34.4613 414.2588 41.1753 406.779 47.0489 407.0598 53.0568 405.3429 60.6231 398.2932 82.6758 367.5818 88.5244 327.0708 86.6417 303.0131 83.4342 279.1509 90.7486 271.5311 93.6228 276.5538 95.0408 285.0267 98.4805 291.305 106.3371 296.9177 120.9723 298.4005 143.5976 307.2215 151.6529 312.8449 153.8561 301.5954 179.9203 291.9789 172.0486 288.5427 148.8895 292.3516 117.1517 278.0838 106.6328 268.9805 96.8287 251.7501 86.6425 242.7338 87.3681 234.6197 110.162 227.1255 116.1778 227.9662 118.6014 236.8725 124.7227 240.52 127.054 239.3026 128.0746 231.6855 128.1871 211.2706 121.2808 182.03 123.419 176.4122 129.6692 174.3726 135.2373 170.4946 139.1165 169.76 146.8309 170.4748 150.6966 177.2354 152.7909 180.953 160.574 182.6667 166.9675 186.264 172.4803 185.2851 177.0556 181.058 183.7821 180.1787 204.5419 180.2115 223.3939 180.2558 260.9387 180.3439 298.4882 180.4335 336.0651 180.5312 364.3728 180.6131 364.2855 163.8925 364.1495 138.0898 363.9909 107.6254 363.8471 78.4137 363.7173 51.4431 363.5526 19.5585 365.1107 10.4186 366.961 6.6215 366.291 1.3552 395.3616 1 447.938 3.3417 470.9153 3.0263 477.4417 3.4591 506.1449 1.8777 529.4014 3.9126 539.2849 6.1661 548.1689 7.311 576.0134 8.723 612.3415 7.0396 624.6779 7.4713 631.5297 11.9167 634.8108 20.5414 Z"/>
</g>
</svg>