<?xml version="1.0"?>
<svg xmlns="http://www.w3.org/2000/svg" version="1.2" baseProfile="tiny" width="800" height="206" viewBox="0 0 800 206" stroke-linecap="round" stroke-linejoin="round">
<g id="ne_50m_admin_0_countries">
<path d="M 71.1531 61.8523 138.5785 59.514 220.2579 60.8849 309.2234 62.2708 351.1337 62.8645 373.173 24.3379 414.9983 7.3296 457.8379 1 480.1371 2.6417 503.7164 8.2964 548.9259 39.9799 577.0956 47.1468 600.867 54.3162 617.9065 69.7066 644.9655 84.9325 666.2431 88.9865 678.8681 86.5787 699.8482 80.5743 713.6626 75.7491 758.7251 73.5028 791.9348 91.0607 799 110.3751 793.5938 130.2496 749.1362 141.166 687.5075 158.0568 636.4069 149.2327 574.2023 126.7822 537.8658 110.6144 522.7344 104.1533 500.021 93.8668 480.2232 82.7526 461.1117 75.5743 446.5409 70.9791 435.7745 76.803 430.3272 90.5474 421.7064 105.8707 410.6081 114.9387 358.5189 120.3144 311.7798 125.9082 286.6761 130.648 269.9338 134.2435 264.5617 180.4105 211.5899 179.7706 159.565 179.0766 105.6096 179.6817 47.5734 180.2733 32.6799 189.6132 16.948 204.7292 15.47 181.6472 1 128.8676 20.9185 105.9057 42.5437 92.4453 56.9929 103.382 61.2657 124.8768 72.3448 139.6027 110.3876 148.9404 148.1388 142.4995 171.194 145.6123 170.4771 133.7157 178.3777 117.9039 224.1756 111.2409 272.6187 106.8085 322.3646 97.3691 361.3345 97.7936 372.9949 95.1363 370.1619 91.0726 335.1888 86.4995 260.5469 97.3245 184.5391 100.3481 126.8571 128.8551 103.2545 126.0722 79.5549 97.2895 71.1531 61.8523 Z"/>
</g>
</svg>