<?xml version="1.0"?>
<svg xmlns="http://www.w3.org/2000/svg" version="1.2" baseProfile="tiny" width="800" height="408" viewBox="0 0 800 408" stroke-linecap="round" stroke-linejoin="round">
<g id="ne_50m_admin_0_countries">
<path d="M 406.5513 406.7784 406.8154 403.7314 405.8198 398.9543 402.0412 395.5475 396.7652 393.3446 387.0619 394.1201 378.0812 391.8334 371.6983 385.784 370.2798 381.1825 373.9752 377.4632 371.2812 374.3487 360.1517 366.9036 342.0153 348.3495 331.7372 344.1401 327.7379 332.5673 323.6696 330.0752 315.0071 328.8881 305.8515 329.9157 303.8529 331.2053 301.0445 333.0225 293.6833 347.3671 288.5965 352.1937 276.2558 349.7427 266.0786 346.2029 257.7669 344.1825 241.6326 342.7278 223.2422 342.145 210.6717 352.1348 205.3507 350.7077 196.0513 345.4892 180.9905 340.992 173.0203 337.5439 196.8307 307.6835 204.0731 289.7634 204.5293 278.8166 205.0779 265.0511 193.7161 236.1987 184.392 195.3888 174.7965 152.8702 166.8796 140.0137 132.8308 124.5018 125.382 107.681 99.5049 85.4774 63.0324 74.9881 55.9002 70.7558 25.0998 42.6939 1 24.397 6.7566 14.12 14.3245 3.3907 22.0883 1 44.3168 6.1916 64.7545 11.8665 79.964 8.8374 97.6202 18.1116 113.721 28.5898 130.0424 36.0992 162.1343 43.5716 173.9426 53.0798 187.8111 62.6213 242.9944 68.393 247.473 67.0141 251.5571 65.7534 270.155 62.676 286.5626 63.5166 303.7508 74.8866 314.875 74.3609 326.734 72.7716 341.9527 78.8669 353.8996 85.5924 354.873 92.365 365.3399 102.2202 395.936 117.2635 420.8151 125.7221 428.562 131.6621 447.5349 141.4374 449.4603 144.5432 449.0795 148.5572 443.69 155.9279 442.3369 162.4882 444.9063 166.2254 452.7947 169.8095 468.4605 170.5456 474.0646 165.8145 485.7175 162.3834 497.212 156.2705 512.5726 148.0631 533.4473 140.5451 541.8324 140.4687 549.9222 142.5931 555.6166 146.5766 565.2646 161.4557 574.3723 140.284 576.7816 138.6983 585.4432 142.7838 600.7759 148.3627 611.3692 151.2618 617.1536 155.4779 633.6807 174.3014 659.7403 172.7485 670.8414 175.3999 676.839 178.4157 679.5874 182.0733 675.4157 201.2169 669.4576 221.2099 670.0911 225.9891 680.8079 233.1886 695.3146 240.7156 703.1972 246.8468 708.5885 252.404 720.0315 256.3808 733.457 258.6714 739.8117 258.8184 746.5652 263.3792 764.0986 271.8048 766.3753 273.9378 763.6405 279.8366 757.1139 290.5541 751.7931 296.0862 745.7249 297.1463 739.785 299.7465 737.8422 305.4234 737.8067 312.7136 738.9783 317.8883 740.6048 319.8184 746.8262 321.3068 753.4339 336.3598 763.2811 343.764 778.5318 352.0075 792.1907 361.5018 799 370.4494 798.0077 377.1644 794.1293 391.1851 783.3632 403.0733 774.1773 406.3711 770.8677 405.3835 764.6559 402.002 752.141 393.5173 738.668 386.9408 728.5199 389.5257 721.8866 392.4048 708.5322 389.6595 692.6877 384.0127 684.3704 378.222 680.6476 373.8914 682.8682 365.9695 646.9981 352.6804 629.8044 349.1342 622.1648 353.5571 596.3748 375.4337 593.3157 377.6671 573.3703 380.9274 573.3484 382.6727 577.987 387.1941 577.1415 388.6288 543.5119 389.6242 532.3749 392.5383 502.4438 389.2327 492.6169 390.9234 484.2123 394.3555 463.7686 398.28 449.6533 402.8461 431.6059 405.2287 412.9557 405.4238 406.5513 406.7784 Z"/>
</g>
</svg>