<?xml version="1.0"?>
<svg xmlns="http://www.w3.org/2000/svg" version="1.2" baseProfile="tiny" width="800" height="1083" viewBox="0 0 800 1083" stroke-linecap="round" stroke-linejoin="round">
<g id="ne_50m_admin_0_countries">
<path d="M 315.7907 1047.935 299.6 1037.4083 284.0887 1027.2534 278.9207 1027.1627 255.8516 1028.6828 255.2009 1027.7993 251.2984 1022.0644 247.7749 1020.1984 245.6141 1021.0659 244.1501 1022.6703 241.6835 1022.3359 231.5615 1012.9646 227.3727 1011.5423 221.4897 1012.5945 214.462 1017.3117 211.3026 1023.2371 212.1416 1026.7259 215.7016 1028.3286 225.1241 1027.5717 226.4805 1028.6048 226.7576 1030.5599 225.6844 1032.4326 217.9966 1033.7904 215.7339 1036.0059 213.4828 1036.5024 212.0404 1036.8122 203.9693 1034.1868 191.8533 1033.8178 181.9693 1037.7452 166.3323 1038.9094 144.9499 1037.2896 137.3523 1033.838 132.7287 1031.745 129.6827 1022.326 131.0107 1008.6042 136.7171 990.5911 138.5835 977.2656 136.62 968.6516 140.0548 955.9935 148.8499 939.2761 154.9178 921.504 158.2578 902.6703 162.6124 890.4625 170.6498 882.0807 189.7716 858.4759 191.3121 856.7022 191.1545 844.6017 186.2643 842.7376 179.1353 839.0263 160.8809 834.0926 143.8536 830.6935 136.2107 826.9747 129.7466 817.5723 125.5439 817.2761 117.181 820.1897 106.7994 821.9445 99.3941 819.6769 94.6945 819.8326 91.9934 821.3946 90.7374 819.8437 89.1962 811.9318 85.3766 809.7013 79.3836 807.6201 75.5762 808.2057 72.7939 811.96 68.6465 814.4978 64.992 813.4165 54.2896 794.7629 51.5132 790.6127 50.9348 786.8976 48.378 780.0225 41.8548 772.9698 35.1389 770.4734 31.6937 771.0331 32.4929 762.7432 35.7974 750.8448 38.6678 744.6969 42.3236 739.7447 46.0972 736.365 47.2265 729.9475 46.9592 723.8 42.8645 722.6262 32.7179 717.5318 26.8579 712.4302 22.6215 706.2078 17.1377 697.6531 15.0763 689.1738 15.4109 680.8624 16.3461 677.1934 16.9127 674.6715 22.3971 662.0038 39.7655 651.3651 38.5509 639.5916 38.6927 632.4271 34.8947 627.5171 26.9117 625.167 24.9539 621.7976 24.23 618.5737 30.5542 611.79 23.7213 605.7473 20.9783 599.7399 11.4677 591.7993 10.5653 589.2086 16.5786 568.0561 13.3206 561.5854 9.0042 558.1232 3.8472 556.2389 1.633 553.1174 1 549.671 2.0705 547.6217 8.1926 548.6205 10.2167 546.5322 25.6233 534.8037 26.3642 532.4185 24.4026 530.9313 21.7616 530.0433 21.256 527.3613 21.5531 523.8829 30.419 506.1884 33.165 498.5781 33.9922 493.1368 33.8226 487.7073 29.868 478.9618 25.9264 471.9352 26.0943 466.5322 23.1213 463.5106 15.0709 448.5331 15.4306 442.9453 20.7269 438.9002 27.9165 436.5373 30.387 434.388 34.682 433.1908 45.5948 437.9785 50.4009 441.8701 51.8539 441.2005 56.5889 437.5035 64.4708 438.5351 84.0507 431.5923 87.0958 427.9266 89.4494 423.9886 89.713 422.2205 82.7022 414.0858 82.6247 411.2004 83.7717 408.0079 85.9885 405.5468 90.4474 404.0147 95.2692 400.8249 106.1232 391.6225 110.1199 383.3845 111.65 374.3428 112.184 367.5876 109.6229 362.0806 106.9429 358.4691 103.0235 358.8205 95.4736 358.1917 88.5614 354.8408 84.9424 349.7692 84.2118 345.4282 86.1047 342.8109 86.8117 339.5181 85.8598 336.1246 86.4578 333.3428 89.7434 331.2472 112.0009 332.3501 113.7861 329.9513 115.9033 317.0596 122.3791 297.5735 128.1027 286.8131 129.1867 282.2327 130.3018 256.215 131.5981 243.0728 128.1414 236.7283 120.2981 229.6116 122.7118 215.593 125.9419 204.7275 134.743 191.5704 141.3833 188.1244 169.7122 186.9891 200.898 188.9276 213.2077 209.7115 208.0266 220.0624 215.4989 225.1675 219.2303 223.484 222.3042 214.4339 224.4737 204.3788 227.2297 201.3929 236.6972 209.1902 239.9634 214.4497 239.7166 231.1021 243.9048 208.6483 241.6777 192.8123 243.9167 177.5773 247.998 169.7271 251.6823 164.754 274.3953 170.6702 299.6831 168.2954 309.1337 174.3133 330.4071 204.0752 337.6016 208.977 346.7424 210.5763 334.1938 204.1533 308.4154 167.9814 300.6551 163.4287 288.6614 161.8933 281.2431 158.2629 276.6384 152.7647 275.3632 147.9022 276.4052 111.8928 272.0599 106.4513 266.3362 104.4748 262.6851 106.8624 255.3023 106.7371 253.9649 98.5565 255.9222 92.5624 270.8149 88.7454 280.6815 83.4024 281.3232 73.6457 275.3534 65.8592 268.3479 51.6496 260.0804 38.2541 259.5178 22.8655 259.5486 22.8796 274.4187 23.485 278.0517 24.1322 300.4971 31.7088 305.9369 36.8423 312.8942 37.1726 325.4977 32.6205 334.8825 30.6516 338.4803 33.5852 343.5677 34.847 344.7472 34.8566 345.2152 37.3908 356.9035 41.1343 361.7936 46.9989 367.2273 55.9009 367.6943 68.6826 360.5903 77.8471 354.6871 83.6365 376.88 81.5355 379.0706 86.8207 382.4176 92.5267 394.3904 88.4801 424.4677 105.2762 442.5852 96.9568 447.2274 96.4415 451.4937 110.0337 447.101 123.8074 431.1056 138.5787 434.7462 147.5962 439.9236 149.5688 455.1435 147.5247 479.3978 156.1834 484.3849 153.331 503.5515 132.4476 511.2501 127.8948 536.7927 124.216 541.2381 116.1551 551.3648 107.9085 557.7635 99.009 573.1337 81.969 589.6591 84.4766 599.3683 87.354 609.9613 88.6084 620.283 105.9818 645.4928 124.6491 667.809 122.0181 676.7072 140.1945 681.4097 162.9225 688.7174 169.7914 695.0676 174.1957 713.7443 178.2097 714.489 178.4834 715.2585 181.5642 717.0396 192.8922 719.1292 202.2574 730.8688 239.5158 731.2248 248.7628 731.2553 251.2221 728.4926 264.345 722.8497 275.5843 714.9071 282.1611 710.7135 289.2424 710.2666 296.8565 721.4537 309.5936 744.3596 327.4126 754.1799 343.1498 750.8026 356.8889 750.1123 366.8654 752.1196 373.0851 755.9475 377.9517 761.6155 381.4743 764.1321 387.2476 763.5152 395.2749 764.8864 400.7412 769.1983 404.4387 768.9188 405.9911 767.2732 411.6471 765.1755 421.9108 764.0788 429.3771 758.4222 439.79 760.8293 448.226 766.3439 458.0186 770.3807 462.8622 771.8508 467.59 770.1534 479.1412 771.5122 481.9923 787.6208 489.4567 790.4108 493.1818 792.4317 501.1634 799 518.0817 795.8079 540.2373 792.5221 552.4737 784.6897 572.0523 784.3688 573.8332 783.4672 576.207 780.9626 579.7042 777.2225 580.4314 771.3893 578.2804 767.3097 575.3221 767.7339 567.0549 765.2086 566.6639 761.824 561.7985 760.3016 556.4514 756.8364 554.4307 744.5215 552.8284 740.2958 551.4522 737.1777 552.7753 734.9989 556.7403 736.7047 560.1249 739.1567 563.3806 746.2154 568.364 745.6315 570.5313 731.2953 576.5209 722.3613 582.341 713.9279 585.7775 705.4416 591.7416 688.4316 598.7754 675.8031 600.9911 673.2217 602.7487 668.9139 613.4992 665.7978 615.8407 662.6726 614.8223 660.2645 613.195 657.3639 614.7484 654.4219 618.3621 651.2569 619.8688 648.449 619.9323 643.81 629.3385 629.3627 632.6807 627.8212 637.5154 625.3356 643.1515 623.2475 644.5852 616.5877 642.6218 607.4478 641.7124 602.3217 644.9176 596.0938 646.7935 588.4437 647.537 580.0705 653.8521 572.0088 664.7349 567.5457 674.2543 565.1106 677.6962 560.7816 668.9811 555.6269 663.056 552.005 660.005 548.8392 660.0744 548.0358 661.3779 548.1321 665.9971 551.6954 673.5842 556.017 678.7105 556.7788 682.5579 559.2021 689.5294 565.5169 697.0435 575.2936 702.8655 582.0182 708.6662 587.1139 716.8244 587.2289 719.3749 585.9848 722.8009 583.7711 726.0648 581.9403 730.2811 576.8086 738.8411 578.4934 742.4739 583.0064 746.9885 587.0497 752.4438 592.2949 761.3012 599.6251 776.8673 604.2521 783.2135 610.4827 789.7195 616.568 794.6363 625.9107 794.1536 635.9231 803.5636 646.9983 817.2754 655.1534 823.4349 660.7585 825.18 665.5165 830.0742 669.8499 837.2056 671.6017 841.3671 675.3186 844.2636 685.0274 843.2662 697.9988 854.1842 706.0977 862.2273 710.4785 868.8156 709.516 871.5581 709.3799 880.0362 709.889 888.9888 708.8575 893.784 703.4927 900.289 700.6383 901.7577 699.1355 903.1751 681.521 895.8309 680.2051 897.2765 679.1606 898.3309 675.4215 922.1062 672.3917 926.7747 667.7789 931.1429 658.0067 935.6106 651.1663 937.541 645.8577 939.8038 629.1234 950.3116 621.6111 956.5114 616.8425 964.128 616.9409 968.4139 625.6474 980.7176 635.6714 993.3741 636.0941 1004.8083 632.0848 1013.5152 631.1938 1016.852 634.0729 1017.9939 639.4416 1018.2658 643.9686 1019.5702 646.0757 1025.5091 645.8396 1036.0048 644.6201 1045.8674 643.1428 1050.0527 638.8196 1050.5466 630.3435 1046.6165 623.6911 1041.9235 621.1183 1038.982 620.858 1035.366 622.1969 1033.0281 619.7498 1028.645 611.6444 1024.7886 603.1402 1026.8667 596.8916 1029.8477 592.8085 1029.8116 588.3017 1025.9705 581.4508 1023.1237 572.5496 1021.364 566.9853 1019.3696 565.8555 1020.667 566.6934 1029.2536 565.0777 1033.0502 521.2993 1039.0212 507.9883 1043.9216 498.3219 1050.1043 491.1368 1052.8275 489.413 1056.5632 482.3169 1061.5369 474.251 1063.1952 472.2901 1061.6232 467.1275 1063.9308 458.3078 1066.1967 452.5562 1065.5566 449.8302 1061.6418 444.3244 1055.6527 442.1083 1051.4869 442.3212 1048.8047 429.9895 1048.3433 422.202 1045.1939 405.7128 1045.989 401.6459 1044.6469 400.7955 1046.096 398.3204 1063.2096 395.053 1070.2309 389.7478 1077.4826 382.9471 1081.5099 377.5183 1082.2305 377.7876 1076.9432 379.1705 1070.5742 375.2703 1069.0692 369.4134 1068.3148 366.5827 1066.4047 367.3437 1061.5611 366.0055 1058.7207 363.5979 1055.329 357.7516 1050.9202 345.3691 1044.3566 336.9347 1041.0792 333.7417 1044.4655 327.6611 1047.8406 318.1392 1046.6094 315.7907 1047.935 Z M 665.0088 90.4104 667.4915 99.6027 665.5597 104.4239 656.0961 96.9386 646.9889 97.416 642.093 109.7515 638.0538 110.421 623.4774 99.935 620.9957 94.6463 620.3438 90.1966 621.6992 74.6705 621.1245 69.8236 625.2974 64.3548 625.6468 56.6598 633.0476 48.2874 639.9089 47.7218 642.4152 54.4821 645.9302 59.0668 657.7972 63.8813 659.6473 66.2105 660.8626 69.4897 655.7696 76.2289 654.0936 79.6427 656.0741 84.9233 665.0088 90.4104 Z M 708.8766 148.192 708.0488 152.5668 709.6845 159.1736 706.2723 158.8418 696.2589 160.8881 686.1423 159.1497 683.7816 150.9614 684.9534 142.9245 680.6649 137.6316 676.8169 134.5808 676.0339 130.0143 676.3838 125.2361 694.1988 137.2429 708.8766 148.192 Z M 468.9543 90.8641 456.549 91.266 451.7544 85.7877 446.9775 84.4261 449.4711 77.5963 452.791 75.0932 464.827 79.4078 468.7106 88.0481 468.9543 90.8641 Z M 230.1033 38.2133 228.1738 40.9024 229.671 21.4789 239.019 1 242.6807 1.5536 238.7514 7.0501 237.546 10.94 235.7764 18.7305 236.3452 22.8147 256.2275 24.4016 253.8159 27.9812 233.5307 29.9426 230.1033 38.2133 Z M 252.2321 48.9949 249.0161 52.3021 241.4008 51.7236 237.2132 48.4412 238.6984 45.0911 242.8158 42.6065 246.1724 42.2895 251.2093 44.0022 252.2321 48.9949 Z"/>
</g>
</svg>