<?xml version="1.0"?>
<svg xmlns="http://www.w3.org/2000/svg" version="1.2" baseProfile="tiny" width="800" height="603" viewBox="0 0 800 603" stroke-linecap="round" stroke-linejoin="round">
<g id="ne_50m_admin_0_countries">
<path d="M 516.1893 463.4022 507.812 462.2839 504.0671 463.8926 492.9596 476.9838 486.2819 482.1 481.2344 481.6885 475.9309 480.5087 472.1884 481.4576 469.4458 479.9678 470.5306 476.7832 473.2333 472.7805 478.5541 458.5428 492.2038 444.1843 492.4832 441.1854 486.8957 432.8052 481.0203 421.3852 480.9956 409.1371 479.878 400.2865 467.8031 397.819 465.6068 396.3254 465.2865 393.3404 468.4082 385.3927 472.0605 378.0458 472.5953 374.9353 471.7435 372.1919 464.3332 364.3627 452.7756 349.9172 442.0857 333.9144 432.9159 320.162 425.505 313.891 418.4274 304.8237 415.7369 299.0434 408.3559 296.9629 386.8194 297.0503 360.9597 297.1343 339.1348 297.2003 337.8464 304.9437 313.9925 310.0781 299.319 304.0185 283.0045 307.4291 275.0159 311.3548 272.4959 319.6027 268.8225 328.6449 265.336 332.3544 263.8241 336.4135 261.7944 340.1035 258.5751 344.3509 254.9817 352.8935 247.1742 365.027 238.9715 372.8294 225.0936 377.0169 220.7089 389.8003 217.4961 394.5487 212.1314 398.2421 206.4128 400.6254 201.1589 399.1154 195.1041 398.0492 188.7527 400.2944 187.6892 397.0775 191.3384 386.9635 188.5028 381.6617 177.7032 371.0226 176.7071 365.9128 173.42 359.3149 159.2179 345.634 145.8935 346.3467 149.676 335.008 149.6162 319.8941 145.1598 311.6042 146.38 303.1895 143.9067 303.6989 139.4245 309.4584 132.2653 307.5238 117.8151 298.4075 110.6363 289.6201 109.8339 282.2037 108.2331 279.3112 103.7701 280.8083 94.7027 280.5627 67.2133 267.0828 47.9478 233.6831 47.6018 226.2005 50.5731 213.3507 49.9609 209.8464 40.8576 218.2959 39.2108 212.5506 32.5172 199.1582 30.6299 191.4833 24.0843 188.0086 18.8161 187.3404 14.7027 189.837 9.1128 205.33 5.1091 205.1788 1 201.8045 2.0425 190.2105 6.8319 184.5457 12.7993 175.8229 30.9985 139.3783 37.4363 131.0462 41.4697 128.1682 49.8398 127.9102 66.2186 123.1705 79.6756 115.2061 86.3897 111.9544 101.7338 112.9646 119.8877 111.7255 143.6412 104.0524 144.2146 93.2661 144.1494 79.4382 143.4283 73.9568 135.0908 68.9685 130.2564 64.666 126.1198 59.1885 121.0615 55.2714 121.2821 51.2011 127.7307 47.7726 131.826 46.0319 141.4307 46.1696 144.6356 44.1638 147.0531 40.6772 149.8968 31.8296 150.9586 22.4892 144.7959 9.8987 145.2718 1 179.8649 2.4912 183.4088 3.4601 198.866 5.0835 208.4662 5.1174 214.4144 5.8284 216.8752 7.8731 216.3412 11.6031 214.6385 16.513 216.5789 21.6083 221.8614 22.9921 224.6941 21.4662 227.4098 18.9845 230.6285 17.0309 235.1793 18.3987 244.8674 25.9279 253.8999 28.028 263.7757 32.1323 273.0615 34.413 281.3236 34.1596 287.5629 38.3915 299.153 39.7575 314.1604 34.4613 325.9572 32.1371 342.5049 31.598 351.1552 33.3783 376.3943 29.1333 388.9764 30.112 396.2202 31.5703 393.1289 34.5046 389.9398 40.9301 387.0138 48.8556 384.0242 54.1923 385.0678 57.6812 393.4342 64.6193 405.2179 74.3827 410.0125 75.6395 415.5173 73.3535 424.1949 65.634 431.0366 57.2955 437.6412 53.256 445.3274 53.5145 451.4738 59.3822 458.9904 72.3234 465.8444 84.1056 466.7198 85.2935 469.4924 87.2439 472.9321 87.1664 476.558 84.2869 479.2208 82.5588 482.3938 77.1526 495.6976 60.8034 505.715 56.2923 509.252 55.105 516.2509 52.6331 527.8703 56.4863 544.7467 63.1619 565.2436 71.2505 572.4354 72.6106 576.6568 71.2164 582.6751 60.1225 590.2445 55.7674 601.0725 50.648 609.8573 47.9999 614.8957 47.6529 616.8013 44.6382 617.6984 40.1296 616.668 35.484 610.9314 27.1261 610.7305 24.6632 613.9608 23.041 620.9535 21.8067 630.0312 22.586 640.2684 26.1597 648.6221 31.3551 653.4153 37.5376 658.6961 50.7403 662.7801 63.592 673.2326 84.0031 673.1548 96.7009 673.071 111.439 677.6462 114.1648 682.6757 115.3177 685.0282 117.4753 690.1321 128.7601 694.8768 132.0203 700.5238 132.7578 711.1448 139.9387 717.9775 142.7456 718.96 144.9105 718.7575 147.9012 716.1447 151.7372 712.0528 154.4116 705.9815 159.3851 700.9777 165.9107 690.6906 181.5304 690.4139 184.4372 692.6429 186.5148 696.9595 186.8726 701.5529 185.7701 711.0792 180.0061 718.6645 181.9834 725.9332 186.2577 728.6317 190.7383 729.3752 196.643 727.7915 204.2714 727.6041 212.8034 730.1642 227.3165 734.0554 241.7803 737.8942 247.035 762.1956 259.6052 764.5664 264.3685 765.8261 269.739 764.1478 277.1378 761.7123 281.2586 754.8251 287.734 748.5173 292.7513 746.5561 298.1524 747.6426 308.2137 747.7939 330.9976 748.9182 350.7032 754.1918 357.8088 760.4541 361.3771 767.8352 360.6172 775.0139 359.2185 774.6892 371.014 772.8298 384.253 781.364 388.2174 785.6736 392.1898 788.0596 395.9204 774.6852 403.0855 770.8082 407.2307 769.0608 418.2816 769.5569 428.457 787.6687 435.52 794.6945 443.9568 797.8442 452.7596 799 469.4477 797.4104 473.2836 792.7709 473.3804 787.499 468.3175 783.5539 463.3488 778.6638 463.4243 769.5198 462.4124 759.1092 460.6018 746.2515 461.2537 741.6815 462.1182 738.7683 465.1795 738.0152 470.4323 736.7959 487.3759 741.04 491.0654 749.3585 495.1687 754.7998 496.8962 759.3454 496.3399 762.8096 499.0205 763.5895 506.2954 761.2416 511.673 756.6984 516.6956 750.9983 529.556 751.9972 534.3339 752.2833 541.2646 742.5229 560.0547 739.7195 563.7547 726.6874 560.1966 718.1843 559.0536 712.0639 563.8669 708.1593 560.9449 703.5656 556.6593 701.9774 550.9832 698.8789 549.8207 693.1766 549.8281 687.9074 553.1101 685.624 559.0058 685.2967 565.7696 684.4815 571.0178 681.3442 574.2125 674.9659 582.4663 671.9798 590.0607 668.2779 596.6709 662.9659 596.3387 660.5076 595.4359 658.8148 597.1708 650.5679 600.8943 643.4632 601.9992 641.5786 598.2212 637.429 595.2082 632.8055 589.2365 627.556 584.4108 617.5193 581.0918 613.5623 582.6265 608.8245 582.2728 605.6915 580.3839 606.1286 577.4611 611.3797 570.0401 614.3634 563.2362 615.988 555.8077 615.9526 548.7631 613.1231 538.8214 608.5953 530.9435 607.4897 526.3639 608.0021 519.8388 606.9461 513.7723 605.4763 510.6128 604.7445 504.5906 603.3172 499.1075 600.6586 497.0044 599.1427 487.8131 599.5505 478.3507 595.6606 474.798 589.5293 472.2222 585.921 468.5369 583.6942 464.4249 581.4796 463.2386 579.5979 463.4947 577.8915 466.064 575.856 466.616 572.2793 457.7674 570.7844 457.4305 568.3107 459.4768 540.0465 469.4092 538.8061 465.5957 536.405 461.066 530.9814 459.558 521.6537 462.9849 516.1893 463.4022 Z"/>
</g>
</svg>