<?xml version="1.0"?>
<svg xmlns="http://www.w3.org/2000/svg" version="1.2" baseProfile="tiny" width="800" height="844" viewBox="0 0 800 844" stroke-linecap="round" stroke-linejoin="round">
<g id="ne_50m_admin_0_countries">
<path d="M 1 348.4013 2.9832 347.1867 4.3633 346.4236 7.0984 345.9044 10.056 345.6061 12.7168 345.8211 16.4558 346.1522 17.3253 336.6936 17.7061 335.8865 18.2709 335.4444 18.8905 335.2825 19.3914 335.4643 20.0476 336.9361 21.0114 336.9247 22.0934 336.1795 24.3295 336.9461 26.1913 336.655 28.0045 337.3383 31.1641 337.5643 36.895 337.7193 40.0689 337.9995 42.0191 339.6446 44.1562 341.4503 46.5936 341.8401 50.1609 341.8704 52.6216 341.3839 53.9514 339.9098 54.9738 338.4829 60.4147 336.6274 66.0946 335.1879 67.7065 335.0859 68.1433 336.1445 67.7692 337.8608 68.309 339.5464 70.4718 340.7192 72.0393 341.0669 73.4772 340.9129 74.5668 340.4483 77.004 337.984 78.2129 337.4595 79.7381 337.5856 81.5307 336.4412 81.628 335.4959 80.5663 334.9813 79.7347 333.5661 79.9774 332.4645 79.8173 330.8845 80.0991 329.4095 80.898 328.335 82.2389 327.3314 81.6306 325.076 79.975 320.7312 78.3191 315.1996 76.4977 310.5677 74.0742 306.4667 72.8932 303.4916 73.5129 297.0972 73.3685 295.786 72.5034 294.9501 71.2907 294.4403 69.4907 294.9976 67.9062 295.0371 64.532 294.7139 62.9237 293.9672 58.9389 287.3131 58.5554 284.7657 58.7431 282.1892 60.6089 277.7841 61.4074 273.6398 61.9405 269.7635 61.7838 268.652 60.9983 267.2997 59.5814 266.2568 55.5944 265.8096 50.9647 264.2684 47.5182 261.8109 45.1226 260.3082 44.5136 259.3844 44.3082 258.3224 45.399 253.684 47.0294 248.4797 48.0097 246.9137 49.602 245.3241 50.7731 244.2454 52.6144 242.8334 57.6775 238.0568 62.4306 231.3785 65.4134 226.7018 66.8691 225.3398 68.3318 224.1837 70.4541 222.8008 72.8633 221.5584 75.1349 221.7234 77.1917 223.0478 78.6735 224.5641 78.9323 227.7692 79.897 229.8904 81.0252 231.1944 82.609 231.874 84.7026 231.8175 93.3994 228.5303 96.3173 227.9149 103.2214 227.7462 108.0599 226.5256 112.3591 225.2099 113.0684 222.5756 114.9913 218.5846 120.3049 213.4959 121.8621 211.1947 123.6893 206.7616 125.5779 202.7271 127.061 201.0751 135.0966 196.8517 142.9401 192.9735 144.3067 191.1467 149.7842 182.7614 152.9763 177.0616 153.8279 175.2247 155.787 170.2552 157.873 165.3242 160.2692 164.2363 165.5419 162.4743 169.7481 160.7238 171.9754 158.6609 173.3611 156.843 173.2431 155.005 172.2559 152.8108 172.5801 151.5297 172.8715 150.2663 175.9921 147.7478 182.0377 140.2338 185.599 136.4956 186.6993 136.5231 190.2961 134.5697 193.7354 132.345 193.6089 131.3011 193.276 129.9478 191.4214 129.3061 190.9295 127.6813 191.5337 125.3826 193.49 119.2106 193.2768 117.4273 191.7237 111.6631 192.2491 110.0918 193.1364 108.4912 195.3978 106.3791 198.2576 104.6444 207.3104 100.5544 209.1204 100.118 212.2378 99.0948 214.2333 96.866 214.5714 94.9461 213.8207 93.7402 212.0876 92.1133 208.7494 90.6122 205.7441 89.3084 200.5101 89.355 197.8653 88.2309 197.1795 87.4652 196.9714 84.8021 197.7844 80.3307 197.0022 79.9224 195.8121 80.4305 193.1032 79.8534 189.7311 79.8633 188.5345 78.5959 189.2792 77.1058 189.2305 75.1039 188.8654 73.1972 188.3722 72.7919 186.8034 72.3126 184.4318 70.6315 182.5783 68.5796 181.5059 67.1939 181.2151 66.2475 181.3759 65.628 182.961 63.9059 184.8872 61.4872 185.6849 59.3949 185.9901 57.8757 185.5903 56.7449 184.108 55.3443 182.5074 54.1167 181.907 53.0638 182.0015 51.4919 182.7838 49.5384 184.8862 48.0905 188.5148 46.7436 189.5503 45.014 189.5344 43.7214 188.6025 43.3189 186.1344 43.2707 182.0056 42.761 181.358 42.0399 180.9677 41.0792 181.0385 40.1353 182.0019 39.0768 183.1617 37.7368 183.0853 36.4132 181.9886 34.9019 179.1608 33.7631 178.8959 32.2195 179.4487 30.9447 180.5639 29.1338 181.5056 27.8786 183.7805 24.307 186.2401 23.557 189.273 22.4376 192.6255 21.1995 197.5598 22.2339 199.9665 22.7377 204.8337 23.9047 208.9211 24.882 213.1493 25.1969 214.914 25.1546 216.7984 26.27 221.4998 28.2034 225.3588 29.2355 228.0139 29.2546 232.0237 27.6338 234.056 26.1346 236.7731 24.4954 240.1348 24.5911 247.5355 22.093 248.8781 22.546 251.0352 22.7095 253.7078 21.25 255.1315 19.5043 255.3854 18.63 256.0614 17.9881 258.8875 16.8946 261.7372 15.3752 262.5752 13.3499 263.0856 11.9819 266.2078 10.2267 269.4416 8.4041 272.8266 6.4962 276.6625 4.3295 279.9028 2.4957 282.5455 1 282.6224 1.0898 282.8292 1.327 283.8425 2.0111 284.935 2.3529 286.2461 1.7106 287.8735 1.1842 288.7095 1.4867 288.8107 2.3572 287.7405 6.4416 287.7795 8.049 289.3247 11.3983 291.3224 16.8464 293.2106 21.9708 294.3264 25.3413 295.4583 26.7271 300.3041 28.1525 304.2916 29.3228 306.653 31.2307 309.2657 33.0637 311.1086 34.1886 311.9687 35.6321 312.1346 36.9355 311.9622 37.8101 310.9424 38.9584 306.2653 41.9187 305.7 42.8607 305.5528 44.0998 306.4229 47.8025 306.9727 50.1263 307.0816 54.8049 307.3453 59.2641 308.9843 61.302 310.3303 62.6206 311.1548 63.8171 312.831 65.457 314.2427 66.6807 315.4508 67.4003 316.0385 69.0192 315.6708 70.9203 315.162 72.5769 315.3086 73.4689 316.2816 74.1031 317.7747 75.7606 317.9566 78.189 317.8419 79.8595 318.4284 81.3654 318.5788 83.0358 318.0964 87.2101 318.1559 88.9071 318.1627 89.1024 316.8444 89.2167 315.7051 89.8598 314.0774 92.4944 312.2203 93.1852 310.1156 93.3896 307.9659 91.7647 306.2059 90.0711 305.7421 89.1312 305.3141 87.3522 304.373 86.1891 302.5207 86.726 299.7173 86.9613 296.6799 87.3429 296.12 87.731 296.0537 88.4778 296.7707 90.08 297.3748 92.1697 297.7046 95.095 298.5019 97.0325 298.7545 97.6511 303.5534 103.4951 304.8248 104.6879 305.0813 105.4713 304.6354 107.6014 303.7273 110.0907 303.8786 112.0697 305.485 114.2645 306.7927 115.7986 305.4794 117.8583 304.6885 120.2473 305.5388 121.3252 305.096 124.7671 305.476 125.4188 306.3896 125.6917 307.8274 125.4557 309.3263 124.5483 310.5879 124.3725 311.3431 124.6368 312.3704 122.0287 313.2563 121.6611 314.9682 122.3841 318.3463 127.3049 321.2159 131.472 322.0532 132.2626 322.565 132.7449 325.4119 134.9084 327.3804 136.2781 330.0741 135.7818 333.6271 135.6869 335.7369 137.0246 336.9602 137.9571 337.014 138.089 337.1767 138.1233 341.4773 141.3993 343.3324 141.1521 344.5662 142.0907 344.9329 144.4126 344.3785 146.8291 344.523 147.9664 346.4348 148.1796 350.5218 149.766 354.1404 151.1703 356.0069 151.6147 358.029 152.6564 359.8254 154.3294 363.3371 156.4692 366.4382 158.105 367.1568 160.3475 365.9348 159.8741 364.3294 160.1341 362.7075 161.1392 361.9395 161.7753 358.2473 165.6678 356.2973 166.8703 354.5534 168.6175 350.5363 173.9008 348.224 178.8327 346.5378 183.4742 346.5918 186.7612 345.9803 190.6181 344.2247 192.8219 343.1392 193.5733 341.876 196.9009 340.9756 200.7848 341.5151 202.0423 343.7347 203.7341 345.9019 205.3831 348.6697 207.1618 351.3142 208.8607 353.0156 209.0777 353.475 208.1046 354.0851 207.1786 356.0292 207.6589 358.4119 209.3237 359.9679 210.646 360.6642 211.0888 364.7742 213.3015 368.187 215.1347 372.5067 217.45 373.5797 218.8778 374.5261 220.3992 376.585 222.4149 381.5881 225.9701 385.8557 228.5075 389.3332 230.5749 392.0587 232.0203 393.302 231.7731 394.6476 230.9739 395.8349 230.5018 397.2358 230.901 399.3762 231.9998 404.4247 235.3577 409.1184 237.9691 414.1425 237.4116 415.4943 237.8211 416.5136 240.232 417.2258 242.6782 422.9099 244.2067 426.6405 244.8732 430.9156 246.131 433.0925 247.0802 435.2961 245.7945 435.6664 244.6932 437.4232 244.0094 440.3778 244.2336 445.9531 246.0265 448.2803 246.5485 450.1289 244.6955 453.6811 243.7747 455.5 242.794 459.4846 244.7072 466.6461 247.0466 470.3472 248.5159 471.2788 250.0356 471.7438 251.4846 471.8863 255.0249 472.8495 256.6038 480.1037 260.0148 482.5098 261.4779 484.422 261.9148 485.4947 261.9445 486.2529 262.3766 486.9926 264.417 487.5136 264.8763 488.9008 265.3475 490.3971 265.5967 494.8884 263.6734 497.9521 262.2242 500.2096 262.4934 501.7338 263.9428 502.0669 266.1174 503.0333 268.395 504.6997 269.4665 506.4188 269.5325 510.5716 267.8287 514.0529 268.8966 517.212 269.2158 520.7313 269.8317 522.1145 270.3531 525.8345 272.1203 530.3496 273.8728 532.0374 273.5871 538.8551 269.7165 539.4801 270.1278 541.1431 273.4886 543.3689 274.6275 546.7856 275.5544 550.1418 273.425 552.9332 273.8695 556.2697 273.9045 559.3851 272.808 562.1332 272.44 566.2762 273.9686 567.1218 273.5286 567.8064 272.3898 568.9855 267.3953 570.0177 262.9807 569.6969 260.3944 568.1349 256.6504 564.5252 251.8531 564.167 250.3632 564.5636 241.7001 565.3499 236.6889 566.18 234.2979 567.0248 230.913 567.0937 229.3604 566.8682 227.9727 565.7 227.1693 565.3178 226.1236 565.5151 225.224 566.3417 224.6899 569.9095 223.9099 573.8575 222.395 575.4139 221.6123 576.5743 220.8443 577.7179 219.6685 578.881 219.6628 582.6543 221.1169 584.02 222.0761 584.9708 225.1445 585.6227 226.3206 585.3998 229.4978 583.9055 237.2565 584.5846 240.1073 586.5947 242.1114 588.3122 243.4937 588.0999 244.0879 585.039 246.73 584.5696 248.0887 585.4077 249.3464 586.8003 250.383 587.4746 251.4001 588.3628 254.6274 590.1077 255.458 593.5855 257.3909 596.6214 258.7684 601.4964 257.4874 602.9613 258.1018 605.4627 258.6926 607.3809 258.8124 608.5335 259.2916 609.2011 259.7805 609.1797 260.4445 609.3438 261.1165 612.0747 261.1362 613.5321 261.4416 618.2764 260.4669 622.9956 259.229 624.9347 256.2005 625.8829 255.9363 628.5287 254.6452 631.3559 255.7147 634.5041 257.2212 636.1592 257.6319 639.3495 257.7015 642.4033 257.3202 649.6594 256.0529 653.7182 256.2098 657.1418 253.5731 657.9048 253.5287 659.7204 255.2685 663.7654 255.1619 665.8111 254.1247 668.038 253.2788 669.4851 252.9582 670.6557 252.8528 672.0945 252.9356 673.3587 252.2277 673.834 250.9479 673.4849 249.0915 672.2865 247.13 671.3154 245.9984 671.0781 245.373 671.1757 243.8884 671.678 241.7705 672.7549 239.323 671.4942 237.1055 669.7884 234.5628 668.7299 234.3816 666.2218 235.1598 663.4048 235.2237 661.0203 233.7906 659.1492 231.9192 658.5587 230.2857 658.8022 228.2325 659.3182 226.3267 659.3938 225.6185 661.4813 225.4901 664.4261 225.7161 666.6715 226.0901 668.4282 225.9541 671.3231 223.3688 672.7525 223.1307 674.3556 222.569 675.0242 222.0738 675.5695 222.3868 677.4202 222.5561 679.2935 222.3104 680.893 221.5416 682.4491 220.4071 685.174 218.0652 685.6131 216.798 685.4616 215.6727 684.8116 214.972 684.2029 214.6529 684.3086 213.6628 685.3478 211.9331 689.5789 209.1473 693.036 205.8456 694.848 203.424 695.4416 200.6034 696.2528 197.535 697.2259 196.2816 699.833 195.3492 707.2474 193.7242 709.4483 192.3581 712.621 189.8868 714.1243 188.0205 714.8909 186.5388 714.7656 184.9602 716.9956 184.3026 718.6208 181.6245 720.6707 178.898 724.5948 176.4391 727.9008 173.2784 729.2804 173.6454 730.8586 174.909 731.8154 176.3675 732.0894 177.1186 737.0208 177.7185 737.7512 177.5079 741.4769 178.5954 744.9648 179.9816 746.8045 180.2538 747.6618 180.141 748.3197 179.577 748.9528 178.0717 749.67 176.9633 750.1544 176.4963 749.8539 174.8482 753.9403 171.2772 757.6821 168.6541 760.9343 166.6998 762.0926 167.303 763.4617 168.4825 765.5764 171.5997 766.6577 172.3166 768.9759 171.6686 769.474 171.9872 769.2994 173.1866 767.9258 174.767 766.0419 176.2382 764.8456 177.4128 765.8936 180.916 765.998 182.145 766.6548 182.4809 770.4022 178.6054 772.3662 177.7383 773.2459 178.5232 773.8041 180.3788 776.1729 184.1014 777.2313 186.0054 773.6751 191.0755 772.4707 193.643 772.6723 194.493 772.7247 195.3472 771.8074 196.654 771.9467 197.1317 772.9797 197.8178 774.1748 198.2978 774.7065 198.2318 775.4304 197.0107 779.2761 195.0339 780.5047 195.2329 783.8007 197.4472 785.1628 197.4646 788.7392 197.8875 790.7813 196.752 792.5476 197.4558 796.4246 200.2304 797.2855 200.7203 797.3225 202.6193 797.4995 204.703 798.6234 206.2682 798.9705 207.7082 799 209.0592 798.4802 210.041 796.7026 210.7306 795.3761 212.4753 793.2291 215.0208 791.4943 217.0673 790.2773 218.8434 790.016 220.6107 790.5205 222.7548 791.3137 224.9744 797.3779 232.8117 797.5659 234.2564 796.1236 234.8106 793.9805 234.0697 792.0444 232.9004 789.5391 229.5281 787.8066 228.6175 786.2091 228.5346 777.1735 231.2598 775.256 231.9638 772.3529 233.5903 770.5763 236.4875 769.3576 239.1024 767.8607 240.2502 765.7442 242.3956 759.9044 248.9212 756.3731 251.8299 753.9584 253.003 752.3522 254.5123 751.6819 256.791 751.1614 258.4307 751.4599 262.3219 752.5393 267.0543 753.9168 270.0126 754.5182 270.6062 754.7123 271.4906 753.9507 273.2335 752.8376 274.7636 752.3169 275.6919 752.2979 280.1117 751.4183 282.3735 749.7051 285.7344 748.1189 288.304 745.3874 290.4413 744.4417 292.0504 743.6952 294.9264 743.3341 297.3371 743.4011 298.194 743.8292 298.9072 745.165 299.6171 746.7621 300.2737 747.626 301.4576 747.9034 302.9595 747.2129 306.6916 745.7979 311.9311 743.9514 316.151 741.999 320.1966 741.5734 321.4967 739.9435 326.3964 738.7634 333.0304 737.9565 337.5012 737.1717 340.5857 735.8288 340.8563 734.0856 340.0633 729.9534 339.1852 727.2778 338.4103 725.3113 337.6706 724.0189 337.8302 722.286 338.5983 720.5035 339.1809 719.3781 338.8306 716.5987 336.3716 715.8676 336.7499 715.5056 338.1104 717.9628 345.6468 719.3456 348.4029 719.6294 353.2054 719.7484 359.1157 719.6854 365.6016 719.3867 367.1222 718.4568 368.925 717.0695 369.5273 715.7064 368.9838 714.6761 369.2396 714.4267 370.3531 714.9783 373.1039 713.9897 376.4087 713.2907 379.2229 713.7697 381.8427 714.4461 384.4793 716.4437 390.1454 716.6328 392.2691 716.4954 394.2048 715.7764 395.0748 714.4193 395.0774 713.7529 395.942 713.2944 397.1888 712.1294 401.7584 710.7033 402.3665 709.1834 401.851 706.7413 399.121 705.3303 398.3909 704.4803 398.5196 704.1621 399.3343 703.7134 401.1585 703.2123 402.4005 701.8113 403.5811 701.2752 401.4346 699.5883 390.2099 698.7006 386.6657 697.8048 381.7264 696.959 380.2628 695.825 377.6177 694.6332 375.3608 693.708 374.4384 692.791 370.0894 692.1301 364.7176 691.9193 362.1729 690.2646 357.0103 688.5838 351.1408 687.038 351.5273 685.984 350.1586 685.3133 350.2434 683.2215 351.782 681.4344 351.4853 680.1446 351.7829 680.381 354.5278 680.8585 357.4355 680.4474 358.5306 677.2803 362.266 676.5111 364.6557 676.8121 367.0738 677.5074 370.285 677.0273 371.9842 675.6417 373.6377 673.6726 374.5982 671.8611 374.3769 670.6137 373.1518 669.2675 369.8689 668.17 368.1086 667.14 367.7524 666.4012 368.314 666.4673 370.4407 666.6567 372.1903 666.421 372.4055 665.8443 372.1801 665.1365 371.3732 662.7993 363.0597 659.8832 356.7398 659.5415 354.2526 660.1421 350.9763 660.7951 345.95 663.343 342.6475 663.6006 341.3116 663.9651 340.2417 664.6344 339.9815 668.2462 339.9919 669.4085 339.4009 670.3442 337.8689 671.7806 336.5803 673.2824 335.9881 674.4914 335.7158 676.557 336.6629 677.3197 335.9705 677.7205 333.8791 678.3859 331.7835 678.8432 330.7643 680.1142 330.2156 681.7777 329.9711 682.297 329.5569 682.6804 328.8373 682.8379 326.1227 684.3926 319.9657 684.888 317.2463 684.9444 316.7631 684.5933 313.803 685.1552 313.3268 688.8148 314.4839 690.3414 314.3391 691.1172 313.6761 691.2821 312.5698 690.7056 311.3359 687.9922 309.3281 683.2584 306.6991 678.9961 305.1952 671.4638 306.0518 663.9902 307.1943 661.7535 307.0613 658.9179 306.4385 652.1216 307.0498 643.8992 308.0856 640.7258 308.043 639.1717 308.1842 636.0697 308.6739 630.8886 308.1579 627.2536 307.2895 624.0107 306.2858 620.1852 305.4282 619.2891 305.4967 618.733 305.1334 618.2938 304.1887 618.0645 302.9486 618.3517 297.109 616.9115 288.3784 617.2641 285.1469 613.5744 278.1229 612.4041 276.8499 610.9976 276.8731 610.1785 277.8542 609.9736 279.5588 610.6416 281.4086 609.6988 283.5806 607.5054 284.3931 604.8067 283.8364 602.5363 282.9715 599.5598 280.9812 597.182 278.0746 596.7307 274.7528 595.5944 272.653 594.198 271.6768 593.2151 271.4369 592.3793 271.7154 591.7184 272.9175 592.4716 274.0477 593.5131 275.6275 593.3014 276.751 592.5068 276.9678 591.262 276.5568 589.4162 276.9168 587.5425 276.1572 586.451 276.1373 585.351 275.8832 585.1374 273.9602 583.2874 271.6042 580.2859 269.0084 577.4162 267.4558 576.1158 267.754 575.6056 269.651 575.8129 270.3419 576.7917 270.6417 578.2585 271.6551 578.6527 272.7743 578.5277 273.7764 576.9597 275.6699 575.8846 277.4451 573.3617 280.0817 571.2557 283.0614 570.8172 285.2646 570.0886 287.2588 569.8928 289.4252 570.6107 290.8817 571.8062 291.7621 574.767 292.2973 578.0189 295.0311 580.7702 298.8077 582.2393 299.9147 584.8461 301.0958 589.6932 300.9843 590.498 302.0237 591.4009 304.8469 592.426 305.8025 594.9861 307.0126 595.2688 307.9941 594.7545 309.1728 593.7318 310.1377 591.7683 310.8248 589.8631 311.1626 587.9042 310.9067 585.0227 310.8306 581.7703 310.9909 579.9725 318.2898 578.4941 320.9007 577.5521 320.9486 574.9478 319.8598 573.8738 320.1062 571.3857 326.6463 571.0731 328.2078 570.9585 329.3786 572.676 331.7654 574.6647 333.697 576.9371 334.3725 578.6298 333.672 580.0898 334.4137 581.8853 336.367 584.8064 337.5563 588.852 337.9794 591.2224 339.4636 591.598 340.8394 591.4995 342.265 591.3947 345.9773 591.1491 348.1247 589.3648 353.8332 588.1356 358.7404 589.0835 360.981 589.7146 361.8796 590.302 362.5678 592.1503 364.2677 593.4726 365.98 592.7322 370.6001 593.3797 371.7636 595.7605 372.4189 598.3024 372.8711 599.2191 373.5687 597.342 378.3344 598.0028 381.5249 599.1074 384.4857 600.0766 389.3811 600.207 389.8941 600.107 391.1441 601.7649 394.8837 604.4183 402.2151 604.7485 405.0004 604.7976 407.9534 604.4205 412.9328 602.2038 413.062 604.3732 416.2249 605.1375 418.5515 605.5954 421.8395 603.2309 422.4094 601.5249 422.1557 599.9552 419.3547 599.4455 422.0353 597.0482 424.6447 596.077 423.5164 595.491 422.2716 595.27 420.0276 596.1824 411.3246 595.8466 410.3723 595.1901 409.7779 593.7938 409.527 593.1883 407.817 591.5765 417.1386 592.7136 420.8255 592.3756 422.5658 588.514 424.266 584.3387 421.0689 583.7702 419.9965 583.6347 421.9558 583.0302 424.3659 579.2567 424.1774 577.3027 422.4435 578.3571 419.214 580.2866 411.4752 580.5396 408.0648 577.3048 405.7748 574.5886 404.4123 572.8972 401.0523 573.6729 404.8064 575.1416 406.068 577.2472 406.8933 579.5182 408.6955 578.0738 411.1523 576.6327 412.7149 573.9998 418.4684 570.5918 421.7993 566.5401 424.3939 552.9771 428.6421 550.1557 430.2056 546.1074 434.7475 543.5425 438.9877 543.211 443.1607 544.9433 447.5496 546.4855 454.4833 547.5903 455.8501 546.2097 458.4854 543.7388 461.3429 541.7379 465.1183 542.0081 467.1136 541.5083 468.4982 534.3213 473.3962 532.8629 476.1042 530.9232 478.82 528.4445 477.4584 527.0254 477.5567 529.0486 479.5224 528.83 480.9038 528.1686 481.7409 526.336 482.5888 515.7559 486.4386 507.6485 489.9763 505.3367 489.9593 505.7315 488.9879 507.1443 488.0764 506.9032 484.482 505.3794 483.8926 504.0686 483.6931 497.9413 488.371 495.5134 492.8283 496.0674 493.6305 497.4773 493.362 501.6272 490.7059 503.599 491.3136 503.7639 492.2692 497.4673 496.3159 484.2511 509.0538 483.673 511.4662 481.9734 514.2454 479.5972 516.8918 475.3426 523.229 467.0958 532.703 464.8255 536.2002 451.4095 543.725 448.968 545.8997 443.5021 552.9215 437.8411 558.6976 431.1902 563.5293 419.6139 569.7575 412.566 575.5147 410.3746 579.2701 410.2454 580.5885 411.0293 582.3703 412.3443 584.008 412.6519 585.326 412.0283 587.7257 411.6875 589.0523 409.6294 592.3653 406.0713 594.7745 394.52 599.882 392.9864 599.757 383.5156 598.9688 379.9825 599.9036 378.538 602.2029 375.3174 611.6479 372.2017 614.1842 371.0873 616.454 370.6404 618.0217 368.7736 618.0046 367.1471 617.3252 365.9606 617.8446 364.5999 614.7152 362.3304 614.0957 360.4539 613.8996 352.4394 617.1406 349.641 619.7026 343.7536 631.7041 342.2973 639.4006 343.6927 647.8643 345.7503 654.6029 346.1608 657.6419 345.8996 661.5776 344.8592 663.499 344.1071 665.7679 345.0916 670.4239 347.5784 676.4996 348.1864 679.0612 348.2388 681.712 350.1099 687.7604 348.8509 686.6768 347.8585 684.134 345.4842 680.8845 342.5898 684.149 344.1948 686.4813 349.6119 689.2208 351.2138 691.479 347.7331 711.6004 345.0858 718.7071 341.8371 723.3571 340.1211 725.1518 336.3279 732.4518 333.6466 741.2381 333.1144 744.608 334.3215 748.3675 332.9544 750.5916 331.239 752.2874 334.4952 751.52 335.6091 753.5524 336.02 755.6466 336.0643 768.0529 335.6903 780.8889 333.194 781.4164 330.4429 781.5531 328.0218 781.1921 326.2726 780.6966 321.9375 781.3688 319.6041 782.7727 317.7336 785.1071 317.8649 789.0896 309.8469 799.0445 308.1227 802.3484 307.4895 805.5268 308.5341 807.1976 310.5845 808.9112 313.2561 809.613 318.4217 810.3191 320.9015 811.238 322.5909 812.9175 316.5032 811.1146 309.3506 810.7223 292.2606 815.1294 287.7713 818.2728 285.2711 821.0014 283.5698 827.291 283.2923 831.4921 281.2852 834.9527 272.465 840.1303 266.8904 841.6476 264.7773 843.0076 258.1782 841.0045 250.9665 836.1202 247.9303 833.5158 237.184 821.0029 235.2265 819.3863 233.0372 814.0712 232.6828 812.1013 232.0848 811.2989 231.0665 810.7292 230.5754 809.8996 228.1381 803.7703 227.1109 797.4106 225.5398 790.2577 226.8316 790.7951 228.6268 793.2003 229.5392 796.6274 229.6731 801.3568 231.0161 801.9528 232.2095 801.5516 228.7139 790.5169 225.7169 787.684 224.924 787.4751 224.0857 785.6838 223.9831 783.469 224.2448 782.428 221.8427 778.7282 221.0003 776.5434 215.6557 765.3657 213.2464 757.3685 209.5334 748.3849 207.1561 745.1786 203.4354 738.1634 200.3287 734.8321 197.0352 730.393 194.4524 728.3674 193.4447 727.3154 185.8053 711.9801 183.4652 703.5491 181.4885 699.5116 180.5102 696.4649 177.8689 683.468 177.8556 681.159 177.5391 678.6194 175.6722 673.0401 172.3743 666.932 171.4317 663.1755 171.4487 661.7322 169.3746 655.8323 168.9409 653.156 167.5343 650.6277 165.9008 648.2873 164.1859 646.3883 160.1886 640.2772 158.7519 638.7589 156.0374 634.777 154.1565 627.5744 151.6789 624.6595 155.6179 624.8743 153.2444 622.1183 152.1206 620.3316 150.87 619.2024 152.7328 616.6467 149.732 616.5575 148.1649 614.8703 146.0671 609.7517 142.2059 603.8773 141.5812 600.8159 138.2613 591.0913 135.7403 567.9547 133.2709 557.5309 133.543 554.5873 130.5134 545.4837 129.0793 539.4036 128.5568 534.2925 127.7867 530.9014 127.1917 524.235 126.0174 522.0653 125.9163 520.7904 126.8196 517.8146 129.2526 513.2669 130.182 510.3493 129.3134 506.1191 127.0849 510.3877 125.1055 511.5075 124.2686 508.1821 124.3897 503.7774 124.18 502.7103 124.7268 501.2583 129.8729 502.2202 124.0906 499.1945 123.4363 497.5683 123.252 496.3747 124.5817 494.2525 122.5015 492.2849 121.8301 486.5754 121.2429 485.2477 121.0371 484.1888 122.5058 476.4236 128.0734 461.286 128.5648 457.8213 128.3095 452.8447 127.3347 448.8427 127.0183 444.6458 126.7544 443.5608 124.9552 443.0871 123.2932 441.4549 121.5457 435.1651 123.4469 433.2281 124.8922 432.1827 122.9454 432.5588 121.3549 432.2884 124.4961 429.5939 127.2824 427.5417 133.5391 425.302 136.2203 423.8053 132.2853 425.0794 128.2161 425.4375 119.6289 424.7062 121.3023 419.0124 122.8756 417.1627 124.546 416.1621 122.1396 416.3677 119.4075 415.766 120.5515 409.9551 122.7692 408.7992 125.1152 408.6732 128.0527 407.9812 124.9959 406.8634 121.7886 406.2417 117.877 407.0043 114.3567 406.1175 110.0475 405.9081 111.7294 406.7807 113.4853 408.6591 112.4188 411.779 111.4628 413.7113 109.0218 414.9479 106.9908 416.9073 106.3656 418.6912 105.203 419.9015 107.0545 420.9111 108.9845 421.6625 110.0573 423.1911 111.3 425.3953 111.0448 429.5354 105.5001 439.0126 103.6355 441.0842 90.5694 446.2051 85.4034 449.0889 74.5395 452.5462 70.3532 453.0399 65.8067 451.9086 59.2775 448.2929 49.5302 439.5322 47.0414 436.6854 39.5526 425.7755 34.0786 419.8909 30.0079 414.484 24.9075 409.2831 20.2466 402.4244 19.365 399.3952 19.9406 396.4266 21.9364 394.9339 24.0992 395.7637 25.6767 398.4228 26.842 399.6475 27.8593 400.1892 35.6964 396.8652 38.6417 397.2309 40.7846 395.4251 43.3146 396.0286 48.7305 393.3541 50.9363 393.3188 53.5836 392.8848 58.2769 385.4666 61.7407 380.7729 63.8545 379.8824 63.8124 378.682 63.3442 377.0821 61.7855 377.3787 60.6194 378.7991 59.7137 380.543 58.8477 381.5607 56.4351 380.4146 54.7596 380.4719 52.6676 380.9278 44.9861 383.2918 41.7486 385.65 39.6263 386.0141 27.9148 382.3423 16.8222 375.0219 12.3007 370.368 9.6657 364.6577 7.1268 357.9034 8.2593 356.1542 13.2896 352.5845 17.6124 349.799 13.8394 350.9051 9.7262 352.5155 7.6624 353.7032 5.2238 356.3244 2.2301 356.7236 1.3995 352.4898 1 348.4013 Z M 744.4683 840.8944 742.7139 843.3224 739.907 837.3819 738.5605 837.2304 738.6894 834.1124 739.5005 832.744 743.2655 830.6923 744.1962 831.2916 745.7342 837.013 744.4683 840.8944 Z M 741.0621 827.9898 738.3888 830.921 737.3648 829.6313 737.8737 828.5201 738.9853 827.7551 740.0377 826.7707 741.0621 827.9898 Z M 726.2315 807.1442 726.9983 808.0087 725.5068 808.0887 724.1883 806.8107 724.6062 805.3338 725.1563 804.6704 726.2315 807.1442 Z M 733.9416 815.6434 731.8533 816.0388 731.2843 815.0118 730.4588 813.9771 731.1865 812.7207 732.3048 812.2386 733.7884 813.8142 734.0963 815.0569 733.9416 815.6434 Z M 736.6929 810.4566 735.389 811.6648 735.0774 811.5863 734.9376 810.8663 734.9061 810.3447 734.7197 809.428 734.6645 807.7646 735.7366 806.1821 736.7348 806.2974 736.1344 807.8304 736.6929 810.4566 Z M 717.5093 784.769 716.3042 785.1157 715.5973 784.302 715.5406 783.2306 716.2538 782.4173 716.908 781.954 717.5506 781.9435 718.1355 783.6732 717.5093 784.769 Z M 710.6901 746.7836 709.8425 747.8634 707.0165 747.539 707.2777 744.6146 706.6547 741.8888 707.1667 740.6242 709.324 738.2837 711.0578 737.1297 712.215 739.6999 712.7287 742.3012 710.6901 746.7836 Z M 716.2582 722.7079 714.9174 723.4682 713.5841 722.9536 714.6452 721.6537 714.8432 719.2865 716.1972 720.3842 716.104 721.8783 716.2582 722.7079 Z M 717.1149 718.1856 716.5058 718.9442 715.6234 718.331 713.1194 713.5885 712.7058 710.3594 712.0042 709.3191 712.9116 707.5538 714.0423 706.8467 714.7206 704.9056 714.9755 702.0489 715.9689 699.6033 716.4724 698.8893 718.5158 698.5675 719.0386 698.1981 718.7537 696.0328 717.5622 695.2443 717.1484 694.6882 717.2039 689.3746 717.5151 687.1805 718.259 685.5271 717.7308 682.4004 718.0875 681.1529 719.5608 679.2591 720.2025 675.5723 719.5996 674.5829 720.9739 668.8228 720.8735 665.1121 722.6859 661.1186 725.5325 659.0155 726.4294 658.8403 726.5747 662.0089 726.8539 663.0151 725.2133 665.135 726.805 667.3597 726.5998 668.2791 725.9791 670.3121 724.9437 672.3692 723.4912 673.3599 722.3692 676.0597 721.7233 677.1087 723.8842 679.461 724.5795 688.3831 723.0034 691.0782 721.1175 691.8448 721.5356 697.771 721.1942 699.1558 719.3105 702.3633 718.9591 703.6921 717.8957 705.0474 718.3341 706.4809 719.2291 707.004 719.2427 708.227 718.3832 711.4932 718.29 715.0812 717.1149 718.1856 Z M 725.279 702.6951 726.4759 706.4421 724.294 705.054 723.581 703.9318 724.6893 702.9271 725.279 702.6951 Z M 717.11 680.0152 716.2402 682.0234 716.0646 678.0026 716.4677 677.436 716.9121 677.234 717.4677 677.5344 717.11 680.0152 Z M 120.7606 747.8392 120.5434 748.0075 120.5224 747.4817 120.7965 746.6633 121.1161 746.1258 121.2127 746.1993 121.1259 746.7387 120.9822 747.4682 120.7606 747.8392 Z M 130.4334 830.9632 130.0222 831.2693 129.5952 831.3651 129.2867 831.2985 129.1287 830.9481 129.2018 830.6982 129.5909 831.0134 130.0876 830.7872 130.6448 829.9634 130.767 829.6957 130.892 829.8546 130.7887 830.3369 130.4334 830.9632 Z"/>
</g>
</svg>