<?xml version="1.0"?>
<svg xmlns="http://www.w3.org/2000/svg" version="1.2" baseProfile="tiny" width="800" height="748" viewBox="0 0 800 748" stroke-linecap="round" stroke-linejoin="round">
<g id="ne_50m_admin_0_countries">
<path d="M 725.9536 225.6069 702.3419 236.4057 686.3291 231.9755 670.8186 206.3763 645.2033 142.7806 658.8632 118.953 658.2882 108.7371 660.9953 101.0434 668.7198 96.1188 676.7123 66.0545 687.4698 56.8065 705.332 76.9827 755.6187 149.9273 755.4619 179.817 752.5932 191.8708 725.9536 225.6069 Z M 799 740.6491 726.2715 742.2979 634.5135 744.2237 560.1208 745.4626 476.0671 746.7118 439.1226 701.5363 426.6202 652.1694 413.2859 601.491 376.5719 529.1338 253.8385 511.3805 188.626 501.8091 81.4486 487.3486 1 476.3879 69.16 399.0263 100.8733 357.3927 158.1115 267.136 187.5227 202.7577 215.8816 131.3076 240.263 75.6367 245.3869 65.4849 259.4529 46.6363 290.4767 27.416 335.1306 9.322 410.8372 1.4033 464.0099 1 475.9745 1.805 509.4648 10.8159 602.3765 55.2895 600.3443 72.8924 613.7834 125.3327 643.687 182.5237 668.2616 228.8771 671.4073 250.6289 649.0011 247.5679 631.9177 238.8643 599.2553 229.8384 536.3274 291.664 498.1126 325.3282 497.0332 336.7381 548.0205 349.6564 585.4332 349.1324 611.4907 340.009 633.7017 354.3096 648.3594 392.3353 654.3487 423.1796 689.6282 533.3074 718.6746 570.3884 755.1206 635.9364 768.7294 669.8933 776.5988 698.5562 799 740.6491 Z"/>
</g>
</svg>