<?xml version="1.0"?>
<svg xmlns="http://www.w3.org/2000/svg" version="1.2" baseProfile="tiny" width="800" height="809" viewBox="0 0 800 809" stroke-linecap="round" stroke-linejoin="round">
<g id="ne_50m_admin_0_countries">
<path d="M 574.0962 596.919 543.5315 606.4435 539.2912 607.2706 519.734 604.9886 493.6075 607.2163 473.0723 612.4941 457.1479 614.4589 431.1428 642.2148 384.012 717.2059 371.4812 732.8995 368.0103 762.3598 357.1258 785.6662 343.8108 803.8897 330.7788 808.3087 291.5421 801.1664 241.3477 791.9995 212.0486 769.5187 185.9057 739.9252 172.0517 718.3857 157.6193 706.6096 152.6565 699.9826 132.1159 690.128 124.3506 685.0151 117.5195 681.3894 109.1502 667.0624 104.1946 654.6247 105.8389 619.8291 91.213 599.198 66.1788 564.0001 50.2452 535.1272 28.4495 495.713 14.9737 461.9315 1 426.9347 2.6088 411.8385 15.542 401.4146 53.6041 383.3787 83.1807 369.465 104.2356 344.1917 127.2032 306.706 138.3627 284.162 149.5781 273.8308 161.835 257.9083 183.2199 222.648 207.0679 183.5232 232.6266 141.4996 265.1088 129.2415 309.505 115.1057 352.1966 78.448 403.1223 47.5794 485.4375 14.1975 523.8284 5.8086 538.4271 1 547.6469 7.3455 557.388 26.5486 571.2949 42.6364 603.6239 70.6824 617.3435 77.4904 650.5707 118.9747 686.1589 147.5356 727.0459 180.4599 754.9018 196.9285 769.1031 201.5755 780.6683 230.6175 792.4201 252.2029 799 272.3614 797.4402 291.9408 784.044 339.726 764.742 388.4966 749.4565 408.7215 730.9237 421.4236 712.7491 440.606 705.5633 479.821 697.0755 525.9542 673.494 544.8084 655.1792 557.1649 629.9009 572.3216 574.0962 596.919 Z"/>
</g>
</svg>