<?xml version="1.0"?>
<svg xmlns="http://www.w3.org/2000/svg" version="1.2" baseProfile="tiny" width="800" height="893" viewBox="0 0 800 893" stroke-linecap="round" stroke-linejoin="round">
<g id="ne_50m_admin_0_countries">
<path d="M 448.0353 887.3455 444.781 892.3635 440.666 891.9972 444.2566 888.2712 446.7365 883.0631 450.7212 868.2338 458.8825 862.9568 464.5442 856.8084 463.1754 863.2006 454.2684 869.8957 448.0353 887.3455 Z M 316.1969 640.7916 313.7417 643.3455 297.9331 641.7391 290.6951 638.5107 291.3992 636.1355 303.9082 638.4893 316.1969 640.7916 Z M 769.3334 685.1257 775.5157 688.7212 787.6801 688.4324 799 697.5963 794.6431 697.0245 788.5079 693.1136 782.8915 691.4696 775.4218 691.9565 771.887 690.4478 769.3334 685.1257 Z M 690.7917 670.17 711.4416 678.7066 738.9963 674.7078 734.577 677.2703 724.2845 679.6717 717.444 681.7379 712.8295 681.7386 707.376 680.9423 689.726 674.9904 679.8552 667.192 682.2757 664.5834 690.7917 670.17 Z M 8.3257 3.554 4.144 4.6636 1 3.4867 3.32 1.3719 8.0191 1 9.8266 1.5969 8.3257 3.554 Z"/>
</g>
</svg>