<?xml version="1.0"?>
<svg xmlns="http://www.w3.org/2000/svg" version="1.2" baseProfile="tiny" width="800" height="953" viewBox="0 0 800 953" stroke-linecap="round" stroke-linejoin="round">
<g id="ne_50m_admin_0_countries">
<path d="M 318.6518 6.2962 317.5209 13.2599 319.5229 33.7382 328.7007 53.6646 361.5189 74.1081 409.6703 114.474 466.5501 188.5212 492.7042 210.4799 516.1713 215.7529 562.0415 246.2978 593.9876 253.6011 629.7645 261.7875 723.383 325.1952 765.4354 343.4996 795.4882 367.3242 799 390.0661 797.8026 404.2097 744.1562 421.4142 735.0347 446.6383 708.8854 444.0101 677.3061 444.1633 667.1054 460.1929 682.4858 486.3029 692.6266 517.0668 685.1193 559.4698 682.5162 565.0744 674.8564 563.6501 630.4108 588.6133 597.2708 600.4486 567.346 606.4309 553.1099 594.7254 546.0178 578.7257 546.971 532.2285 541.4879 516.5783 531.2369 509.0034 510.8355 520.1297 487.1349 556.1281 465.1252 597.9879 431.9618 641.6132 404.5402 683.4464 374.9297 736.1372 354.6107 779.7495 375.7829 804.3181 388.7167 838.5143 384.8354 864.1295 388.6499 879.0509 382.1043 923.8931 380.8161 952.1629 314.8336 906.9923 287.7955 843.4013 191.9948 735.7467 82.5614 662.0231 76.8227 650.4354 82.9472 636.409 88.2687 625.3176 65.5018 624.3161 49.4574 633.0975 34.3619 630.4726 17.4838 602.9292 1.5395 578.9943 1 558.0892 8.3831 555.439 19.4123 547.186 42.5723 524.1281 47.2461 511.9541 46.2956 493.4326 14.554 434.5613 10.3449 396.5235 6.335 325.7902 13.2726 309.1178 25.1167 301.1199 81.3496 292.7462 81.0271 237.6495 84.5105 221.1607 95.8063 198.3426 103.1519 177.4382 134.3883 147.6583 176.7011 112.1871 195.1126 111.2113 211.2405 116.2398 229.3515 147.0208 249.2025 143.0794 253.4546 106.208 227.6183 57.7975 213.8667 26.8689 218.235 9.8752 227.9631 1 250.239 6.6385 271.5511 15.0915 285.0445 9.4259 306.2985 5.0668 318.6518 6.2962 Z"/>
</g>
</svg>