<?xml version="1.0"?>
<svg xmlns="http://www.w3.org/2000/svg" version="1.2" baseProfile="tiny" width="800" height="781" viewBox="0 0 800 781" stroke-linecap="round" stroke-linejoin="round">
<g id="ne_50m_admin_0_countries">
<path d="M 799 3.4816 794.177 10.1727 788.8489 14.5687 777.8081 36.3673 773.9357 38.3328 773.0264 22.2615 766.3207 20.1935 758.5239 25.9501 754.2488 34.2102 761.1779 44.9444 767.184 45.0636 774.5118 47.9809 794.8092 122.2653 790.701 135.57 778.6909 156.3128 767.2245 173.9787 755.7027 185.0642 741.6442 232.0911 729.1115 308.4503 738.9075 377.0244 734.519 440.4472 738.7339 455.4067 740.0866 474.0505 730.4459 477.4652 724.9877 476.9364 719.3613 465.51 719.9351 455.4366 725.6471 443.5886 727.8956 427.5661 725.1339 419.2029 719.5469 437.5059 709.5785 445.7258 703.0623 448.5831 696.7225 457.8588 703.5714 475.1859 712.3301 487.8435 715.2333 496.9438 712.0862 507.8136 710.265 544.8715 707.1806 543.8564 703.9744 538.8719 694.7772 538.5833 693.7432 553.5153 694.4913 561.8506 686.7002 568.317 683.9219 574.7744 690.348 579.2705 697.4203 581.9465 706.1156 581.302 713.3769 599.6064 715.6785 614.5022 699.1029 628.3586 693.4989 639.7828 684.1253 653.6352 678.8701 667.2315 677.3327 677.0012 683.8725 707.8259 695.3685 729.6443 705.043 743.4875 717.937 746.4265 714.9593 761.0609 705.3336 770.3895 687.7858 778.2429 668.449 779.7864 636.7753 772.605 623.8581 771.8068 618.7991 767.9467 617.2811 760.751 608.2073 749.9762 591.5897 735.6325 582.0079 736.6474 566.3821 733.562 540.4226 723.7992 528.4352 722.6194 511.2294 731.0654 491.223 742.1077 442.9439 724.8852 409.0642 712.7435 378.6041 701.7881 370.4805 697.5552 363.8254 698.4448 358.0441 704.1444 351.4332 714.2482 349.2621 717.1387 345.7461 719.9093 341.7971 720.6519 341.6491 715.835 326.7949 695.7332 303.1503 671.496 212.7756 596.9043 179.7369 552.3611 162.0964 520.3247 145.2332 503.5938 96.7334 469.2356 85.6106 455.6129 37.8082 409.757 1.3491 382.7935 1 371.4733 16.2023 357.4783 23.5817 358.208 31.5088 368.4003 44.4265 380.0089 50.5741 380.1543 59.6693 374.8966 59.9515 369.5595 109.2388 367.7441 118.0992 364.8301 127.1052 356.5298 131.7558 344.9292 132.6133 333.6572 134.5531 325.6153 142.5277 317.8467 156.9648 315.5224 168.1045 314.7573 171.438 309.4904 168.213 292.3616 162.5158 250.7626 161.3526 239.1872 163.4745 230.5603 167.9793 227.429 189.8126 225.4824 231.0591 229.193 239.0753 226.6051 255.7518 203.0965 271.2324 185.8263 282.2272 178.1004 290.8799 175.7735 300.817 191.1996 335.6027 213.3999 341.5024 212.0267 344.9552 210.8249 346.0631 207.6592 345.4821 197.4943 354.2287 188.2688 372.3237 179.9862 390.5294 165.354 408.8277 144.3925 424.6806 132.0627 438.0835 128.3992 443.1865 122.6657 440.0012 114.8919 441.0794 103.8491 446.4169 89.5563 454.1942 81.2836 464.4134 79.0368 468.4457 74.5398 466.3099 67.7945 468.2997 60.3658 477.5021 48.193 499.4776 37.7566 512.0455 41.2749 522.532 55.2759 537.3326 64.776 556.4445 69.7877 571.2684 67.8872 581.8053 59.1235 591.2907 56.447 599.7387 59.8839 604.1897 57.9097 604.6341 50.5617 608.9899 48.8542 617.2585 52.8037 624.5944 53.8054 630.9958 51.8595 633.4652 48.2813 634.7377 44.5913 639.5064 41.8148 655.9996 44.4889 674.4633 40.1702 694.8751 28.8591 708.4421 23.8404 715.1608 25.1077 723.1669 19.4087 732.4278 6.7455 753.7337 1 799 3.4816 Z"/>
</g>
</svg>