<?xml version="1.0"?>
<svg xmlns="http://www.w3.org/2000/svg" version="1.2" baseProfile="tiny" width="800" height="656" viewBox="0 0 800 656" stroke-linecap="round" stroke-linejoin="round">
<g id="ne_50m_admin_0_countries">
<path d="M 311.7666 646.1715 305.1793 648.1968 300.8625 647.6751 306.7681 638.8055 309.7646 640.7304 313.6109 641.5337 311.7666 646.1715 Z M 729.3031 11.3334 739.974 25.7473 751.4407 41.2411 760.3792 53.3134 767.5958 84.7347 768.4424 90.7322 768.9994 93.4342 769.5436 95.925 770.4901 100.2112 775.4546 102.0034 784.7578 102.731 791.5814 105.7574 795.7673 110.8648 796.1866 111.7162 798.4317 115.6471 799 118.5048 798.6615 126.7822 797.6165 137.4276 795.4962 144.3168 797.0466 153.6303 796.7483 157.6222 795.8035 160.3608 791.7342 163.5526 786.1596 166.6868 772.8434 175.9151 769.0067 177.3036 763.3423 177.621 758.4578 179.9433 752.7053 184.9061 740.4654 203.2509 729.9877 221.6653 726.521 236.8412 722.5511 251.3479 713.1321 260.7135 711.8838 265.9275 711.531 268.9457 711.3109 275.9055 710.3214 287.4472 708.9129 293.0255 707.3936 294.6952 697.0736 298.3526 691.1488 302.6778 687.6773 311.1132 686.4781 320.1997 684.5012 330.5648 683.4149 339.6521 681.8456 344.3711 678.4911 349.3538 673.2325 354.7518 668.6626 357.8013 656.6976 359.9266 650.6364 372.0244 645.4952 381.4826 645.3755 385.2358 640.4813 404.7581 631.8013 419.5347 631.2564 424.7126 631.243 428.9592 620.3174 442.0051 617.4261 445.8409 614.6374 450.8427 617.4343 455.5948 620.5635 459.9075 621.0172 461.3709 616.0262 465.5438 607.3333 472.793 602.1299 477.134 600.9862 479.4799 600.2585 490.1991 598.7461 493.0932 595.2795 497.0598 590.1776 501.4458 584.9779 504.8652 579.0872 507.2628 573.4147 508.1919 570.2436 506.8872 568.4274 503.659 565.2056 490.6082 563.5871 487.8217 559.8958 485.3144 552.5908 478.2284 545.2034 471.0491 536.2995 466.0381 534.3967 466.423 532.9264 467.8191 530.4205 475.1375 527.9406 477.8338 523.2594 478.7993 515.1204 478.9387 509.1805 477.9775 507.8267 476.5439 506.6146 473.3906 504.9669 470.863 497.8794 476.0371 486.7249 484.1729 483.0953 485.5164 480.3273 487.1563 476.6529 494.6877 472.2076 502.7555 466.3757 506.9846 460.6872 510.5419 457.4256 513.6413 452.7502 517.3252 443.6097 526.4526 431.4709 538.542 427.1893 544.7652 422.9672 554.0629 420.5045 564.3366 417.8082 575.5908 413.8478 593.6291 408.0392 603.8259 402.9279 611.9356 399.159 618.3015 397.1644 623.5391 396.3404 623.3664 394.373 625.6025 388.6914 624.1611 386.1267 619.6108 382.6177 618.8742 376.5368 612.1842 375.2473 613.2992 381.6595 630.2465 379.2796 636.8829 361.2769 637.0403 345.7802 639.256 335.1286 639.03 329.7792 636.621 327.4053 630.2673 326.4953 630.9196 325.9581 634.3223 322.5839 636.9856 310.6465 637.4538 305.3639 633.0956 301.0844 628.2248 296.5074 626.0414 297.2123 628.0883 302.468 632.8462 301.8273 639.6549 292.2237 647.4846 286.0964 647.8975 282.3299 644.4837 280.3741 638.9302 279.3861 630.7252 276.8604 625.3571 275.5063 625.3486 276.7572 630.2551 277.178 634.2564 277.244 642.5674 281.8225 649.0377 274.8025 650.9956 271.9557 651.0521 266.3758 651.161 265.3052 648.7643 264.2319 643.4185 262.7643 642.0088 261.0487 651.0431 257.3416 651.6511 254.7682 651.5487 243.7506 653.4241 241.2975 653.0284 240.7716 651.3411 242.0809 648.853 241.7843 644.7873 237.9634 647.8872 237.3554 654.1434 235.1699 655.1229 228.6023 654.1707 221.4169 650.8776 217.0543 647.5285 209.738 642.8645 195.4324 629.835 193.1101 624.0185 189.0149 616.8575 185.9532 609.6017 181.555 597.1893 182.9035 596.3094 186.2171 597.4117 187.8301 595.5883 181.8911 594.1703 180.6542 592.7204 180.2564 588.3747 180.5136 583.0749 185.3407 581.2685 189.5143 580.42 191.6116 577.2144 192.8228 573.9908 181.7236 578.7615 171.3402 573.083 169.0946 569.6876 170.2189 567.1212 175.1753 566.7906 182.2686 567.079 186.5218 564.6101 183.91 563.6998 179.3213 563.7407 177.6299 562.0502 177.7711 558.0169 176.2833 558.8919 174.3116 562.4424 167.3128 564.9817 163.2255 562.3003 162.8134 556.432 161.9239 553.7806 158.479 551.6739 146.2627 535.9958 130.932 522.8269 117.3154 513.7035 96.7594 509.1145 53.8375 508.5174 51.4404 507.2428 54.0711 505.243 57.8391 503.946 71.6525 496.9757 69.3296 495.9762 54.9856 500.2345 50.0839 500.5721 43.7169 509.1352 6.095 509.7818 1.6934 510.1233 1.8127 506.1679 3.7025 494.8253 4.9273 490.373 6.3365 487.016 4.9122 482.9214 3.5297 477.3824 2.8897 468.7186 4.6621 466.0705 5.2807 462.8171 4.9036 457.6947 5.0166 440.579 6.0514 438.7338 7.2718 437.337 7.3672 435.0639 5.1261 430.5951 3.0613 425.4947 3.1944 418.2272 2.4124 411.1657 1 407.9303 2.1996 395.9629 2.9666 380.7707 2.4818 374.0262 3.898 369.2758 4.7673 357.556 4.7909 346.0644 7.8074 327.9683 16.0038 327.2273 25.7872 325.851 30.238 318.7895 32.8583 309.7933 32.1877 300.8367 34.1245 297.924 38.1015 293.1357 45.2534 286.3085 45.0756 278.6938 47.058 276.3756 50.4292 274.656 55.2319 273.8117 60.6427 270.0943 63.7215 263.4891 66.7941 252.892 62.2899 245.4441 62.4059 243.7974 64.2073 239.8423 67.0938 235.8929 69.3546 234.6346 74.5443 235.7247 75.4334 235.3977 76.2516 234.159 79.8019 222.4773 79.5321 219.3085 74.8104 211.403 74.1087 205.8168 73.5319 197.5159 72.4759 190.1555 71.1236 187.3624 68.5727 184.997 67.4464 183.4662 57.7093 168.4599 58.0255 161.3869 62.3939 152.3893 65.225 148.0284 69.0907 145.6431 69.9 143.5649 68.7992 141.0203 66.9249 139.0908 66.5663 135.0309 67.169 132.337 68.5839 129.3946 68.1739 123.183 68.4798 113.6584 69.4101 99.8196 69.7796 91.3496 77.9955 85.1524 89.996 74.8601 96.2197 64.0707 99.5983 55.8998 104.1447 28.681 107.0272 27.0454 110.4353 25.7824 122.4393 15.9412 131.6056 12.315 138.5875 10.2251 149.0655 8.476 155.5354 9.2233 167.3498 9.7042 176.6753 8.7595 184.6678 3.4033 188.2705 1.9072 193.3153 1 216.1 8.3407 238.9378 15.2899 243.113 14.6688 246.5924 15.6398 252.2933 19.3915 260.6968 27.4242 265.6925 32.6086 268.1011 35.6586 279.7944 53.1092 284.1811 57.4958 288.6031 59.8879 293.1206 60.7561 296.5651 60.4465 299.862 58.4861 304.3453 54.602 311.1263 52.8488 316.6619 53.2007 345.401 37.549 348.1836 37.3446 356.5232 38.5804 365.7946 40.7268 389.8656 56.4518 409.5348 66.7418 423.359 70.1735 439.6437 72.5959 467.2762 73.2724 487.9435 51.1446 495.5923 46.307 504.8129 41.9363 507.7865 41.1878 524.0844 37.7933 556.0386 34.8681 586.0088 35.9457 591.9128 36.8029 604.6588 39.6376 624.3679 46.7015 632.9439 53.5188 646.2117 54.5672 655.6643 53.1429 658.5926 46.3098 667.8707 37.2974 674.6748 33.6116 681.8713 28.9213 693.2756 23.0664 702.6986 20.3989 710.9831 13.7416 717.6376 11.6099 729.3031 11.3334 Z"/>
</g>
</svg>