<?xml version="1.0"?>
<svg xmlns="http://www.w3.org/2000/svg" version="1.2" baseProfile="tiny" width="800" height="1050" viewBox="0 0 800 1050" stroke-linecap="round" stroke-linejoin="round">
<g id="ne_50m_admin_0_countries">
<path d="M 691.6435 662.4796 685.2568 664.2316 683.3958 663.4909 683.2167 649.7064 697.863 632.135 707.3083 611.9498 714.357 629.7205 702.7853 639.9603 696.6689 657.1609 691.6435 662.4796 Z M 110.8398 1048.619 104.723 1034.2905 98.6178 1019.9506 92.5245 1005.6051 86.4334 991.2437 82.191 981.1903 74.88 977.5078 70.5668 966.8702 66.1635 955.9721 61.7575 945.0686 57.3689 934.1657 52.9879 923.2528 48.6045 912.3352 44.2389 901.4134 39.881 890.4928 35.5212 879.5626 31.1793 868.6341 26.8456 857.6968 22.52 846.7613 18.193 835.8169 13.8843 824.8698 9.5842 813.9197 5.2828 802.9667 1 792.0167 15.4585 787.3076 33.1187 781.5456 50.7841 775.7598 68.4439 769.9501 86.1174 764.1173 103.7837 758.2611 121.4619 752.3769 139.1413 746.4751 156.8109 740.5506 174.4901 734.604 192.1579 728.6298 209.8335 722.6391 227.5061 716.6268 245.1648 710.5928 262.8289 704.5378 280.4775 698.4617 298.1299 692.3595 309.0264 688.5789 313.6321 674.0902 317.4589 662.0566 321.2616 650.0209 325.0799 637.9837 328.884 625.9451 332.6736 613.9053 336.4686 601.8646 340.269 589.8233 344.0446 577.7815 347.8254 565.7341 351.6012 553.6921 355.372 541.6504 359.1375 529.6092 362.8978 517.5687 366.6527 505.5292 370.4021 493.4908 374.146 481.4539 377.5753 470.422 371.2236 459.781 362.7118 445.4906 353.8188 430.5469 345.4722 416.4826 339.4165 406.2441 332.1202 393.9169 333.0504 378.0814 332.9184 370.1636 333.7741 358.0361 340.9202 341.2401 349.3442 319.8693 355.4748 305.6715 360.7663 293.3316 365.0159 283.423 367.3663 273.2167 366.1761 266.0292 363.4515 263.409 361.1494 260.0039 369.0619 254.5976 383.8447 251.0918 392.0363 251.8652 403.4642 249.2525 412.5025 246.8858 413.2029 243.6907 410.6402 238.3278 406.9115 230.4991 394.136 229.6741 390.2897 227.5083 394.7592 215.9594 394.6036 212.3213 392.9138 208.008 391.0884 200.7752 392.0403 191.4353 394.6606 185.0984 394.7022 180.0003 393.4863 169.4864 393.9148 160.1516 396.6 155.5154 401.3201 151.2075 405.7644 149.0238 410.4157 149.1895 414.1048 151.0221 415.6878 155.9129 414.6661 159.2767 412.0395 159.7428 411.1145 161.1544 414.8623 167.6823 420.3292 174.081 424.5384 173.0146 429.2644 167.9767 434.2084 163.9103 440.429 160.3152 444.9171 153.3677 448.7807 148.8516 452.2289 148.2124 462.3533 176.4552 477.3555 202.9155 490.6406 217.5087 504.4774 237.3501 525.5084 255.556 535.174 261.7664 574.2036 274.3809 595.5052 279.022 624.9084 283.3484 645.3542 293.1557 652.1844 293.69 662.7351 290.592 670.4839 290.734 690.1273 304.132 696.1022 317.0024 704.3182 323.7335 711.7068 334.3915 716.5886 345.5958 733.401 362.5203 745.4461 381.6659 757.6121 395.82 768.3873 404.5501 784.4811 407.7526 797.3149 411.5257 799 421.0819 798.0351 433.6193 795.8452 442.9161 784.4 461.1828 781.8444 472.3595 768.7568 490.9841 754.7768 522.0693 748.1818 529.0963 724.7396 545.4333 707.6204 564.9051 687.4079 598.5011 672.0586 631.748 666.115 642.3998 653.3744 644.7581 644.9412 643.9441 639.0944 640.917 641.2837 631.8651 642.5122 621.789 634.8388 622.947 628.0995 625.1163 612.5264 649.9982 603.9395 660.928 602.2285 674.7143 598.1667 692.5237 592.091 708.9323 589.4479 722.6857 589.618 730.4654 594.4735 749.4271 594.9681 768.8867 597.7788 780.534 600.09 794.5196 592.6089 798.9257 586.18 801.1139 560.697 802.8943 534.8531 807.5868 512.3037 815.8637 498.8104 824.016 481.2432 842.1516 470.5813 887.9427 453.3081 907.294 441.5965 911.3482 413.3689 913.0466 373.6252 918.2924 359.6597 922.8798 336.3954 950.6614 334.5831 959.4067 339.0478 965.7621 340.4939 972.7629 338.355 979.3131 327.7631 996.8916 316.337 1009.6283 285.9467 1017.3801 274.8387 1012.4934 264.6658 1009.9688 245.0007 1009.475 212.9581 1012.0662 201.0902 1021.3411 182.4809 1027.7273 165.2371 1037.7336 132.8747 1041.0349 110.8398 1048.619 Z M 443.2182 76.2528 441.3328 78.7085 438.4977 78.9613 432.0512 76.8763 428.2398 72.0019 428.9516 66.0633 429.1542 55.1271 430.9459 44.8085 430.4424 33.9 425.4799 31.6945 421.9731 32.2827 430.1346 16.9016 433.3203 14.5406 436.348 15.5421 443.8398 13.8942 447.7929 5.5469 450.9073 1 454.2437 1.5461 455.8724 4.0933 454.7484 16.7612 454.6499 27.3488 450.5798 59.7982 446.2665 65.4258 444.1213 69.983 443.2182 76.2528 Z M 441.7342 120.7092 437.6549 123.577 434.7396 123.1022 435.3176 117.3734 437.0561 113.394 441.2809 113.7048 442.3103 116.0909 441.7342 120.7092 Z"/>
</g>
</svg>