<?xml version="1.0"?>
<svg xmlns="http://www.w3.org/2000/svg" version="1.2" baseProfile="tiny" width="800" height="331" viewBox="0 0 800 331" stroke-linecap="round" stroke-linejoin="round">
<g id="ne_50m_admin_0_countries">
<path d="M 774.0577 130.0535 771.504 131.9558 764.0499 142.91 760.0006 152.2671 769.779 162.0481 772.7651 172.4832 778.3463 183.8034 786.9962 195.1454 796.7215 216.2532 799 224.729 796.312 230.2742 787.1958 233.7172 778.7074 243.6904 776.4376 255.8012 778.1041 261.763 752.5973 281.2648 746.0135 284.5215 741.6211 281.5835 736.1082 271.9341 729.5428 264.1538 726.0187 261.4498 723.9822 261.3355 721.9414 263.1528 721.0268 267.414 724.5087 285.5218 721.6967 292.9081 713.0175 298.6198 703.1644 328.2021 699.2332 324.4959 666.1777 284.9494 637.499 235.825 631.479 213.5555 638.8584 212.1956 646.0033 212.6609 649.8308 209.2013 654.2454 202.6969 650.5801 187.6349 664.3615 176.1147 669.5367 168.362 673.3715 169.2408 682.472 182.3174 695.6418 189.7848 711.8237 200.6344 721.8221 203.0508 709.1409 191.6503 687.261 176.6676 681.1055 166.7729 675.2573 152.9818 666.7681 159.0145 662.8356 164.0703 658.4377 166.9585 654.5837 163.5435 653.8819 159.0786 641.0219 158.2674 637.6994 154.2331 634.2847 151.9768 635.8714 160.5895 638.4251 165.9051 637.0973 172.3268 632.9187 172.7988 629.3112 166.1692 624.7184 160.1857 618.5103 135.0811 603.8553 123.2928 597.1506 119.3756 591.6239 117.9077 583.4622 109.8825 572.7051 105.6099 558.042 93.144 540.0762 84.2387 518.1494 81.1171 491.51 83.1137 482.5493 88.1049 476.4609 94.4301 473.6328 97.3691 457.8932 104.6313 451.9365 115.1142 448.1817 123.9513 440.334 133.982 449.3071 140.0284 397.8942 174.1094 387.7071 179.0525 364.5939 182.5321 359.2635 186.1739 352.2097 192.8977 351.2573 203.1368 352.3149 211.849 359.0269 218.5707 364.9985 222.8089 379.3456 243.0841 404.8354 268.653 409.6628 277.9612 413.6207 291.7701 405.9238 298.2534 399.9759 300.991 375.707 302.066 367.3358 307.5889 363.9385 316.0331 354.8804 322.9033 323.5797 329.6776 299.0133 330.4056 291.3796 322.4905 289.5676 300.297 273.1009 262.3785 269.2078 236.2518 265.0768 239.4858 256.313 242.4962 253.3393 248.9773 251.0938 268.2289 247.8447 274.7882 241.0751 274.1371 227.2175 267.1944 208.786 260.7702 185.4149 219.8725 182.895 212.1822 178.3634 203.0022 160.23 199.0588 144.7964 192.1085 127.9222 190.9595 119.2727 194.7781 110.4874 189.8085 109.0232 178.6354 91.3201 183.5393 68.6476 181.6605 48.4002 176.742 34.5243 179.1983 22.8871 187.0233 24.3612 207.344 20.9261 211.3094 20.4393 203.0188 16.4666 193.4386 11.674 185.4866 1.5174 177.2228 1 174.2135 5.0874 170.0916 23.6937 158.3695 26.024 153.4281 26.3897 143.1092 24.6781 133.2284 16.4348 118.6417 21.2768 109.6855 30.8717 102.5435 40.7085 96.9136 42.3822 94.5061 40.6041 89.5637 34.9414 84.1913 21.6378 75.0341 13.6192 74.393 13.5032 48.288 14.1545 20.6002 16.1893 17.8658 21.1063 16.2426 25.058 12.0548 27.3273 3.8676 33.1906 1 43.6852 7.379 54.4186 13.0028 58.8956 11.1778 62.2841 8.489 64.6564 5.8215 65.4473 3.2737 73.9888 10.7056 91.5193 23.8903 92.51 30.3455 90.8037 36.517 95.5357 54.2603 104.6871 56.8744 113.9197 53.488 116.1818 56.7759 114.4505 60.0377 109.6879 63.6763 108.4 78.9137 123.4814 86.1049 131.0073 92.3995 156.103 89.5735 165.3418 91.2756 171.6585 89.4831 164.7186 77.22 155.3956 68.1242 156.1903 64.059 163.2842 67.0959 168.6845 73.2888 180.9877 80.9754 203.6342 107.635 229.6996 114.1519 250.3583 113.3599 269.6123 109.8178 300.3389 99.5544 322.5633 80.9372 340.3002 72.6403 397.7186 54.9469 418.1009 36.4176 426.695 33.9738 434.8943 31.6506 452.9124 17.6239 462.5741 6.6921 472.7995 1.1931 503.0936 5.1108 522.7453 10.2384 536.3069 9.541 549.3619 13.1534 555.0823 21.0936 561.0136 24.471 593.0424 23.5062 619.3326 27.3566 676.9534 50.6451 711.4459 73.7398 729.8209 98.357 774.0577 130.0535 Z M 566.1041 184.2825 563.4127 190.154 556.9628 177.1095 557.983 173.7387 557.5145 161.9327 563.608 158.81 568.0918 158.5185 571.8063 160.17 574.1763 174.0584 572.2704 180.3604 566.1041 184.2825 Z M 195.0486 314.4538 187.5271 315.1485 172.1869 309.1503 160.993 297.617 160.1084 293.8972 160.3484 290.0953 166.5219 278.4055 174.7373 274.3986 177.9619 274.4749 185.7767 288.0383 180.4134 293.2557 182.544 301.6426 193.6734 307.8955 195.0486 314.4538 Z M 110.171 30.6017 108.6377 37.0454 98.1902 25.3691 104.4602 23.4952 106.6862 23.7289 110.171 30.6017 Z M 543.226 187.1313 537.0867 193.2955 534.7181 187.4792 538.9845 181.4354 540.4893 181.3772 543.226 187.1313 Z"/>
</g>
</svg>