<?xml version="1.0"?>
<svg xmlns="http://www.w3.org/2000/svg" version="1.2" baseProfile="tiny" width="800" height="557" viewBox="0 0 800 557" stroke-linecap="round" stroke-linejoin="round">
<g id="ne_50m_admin_0_countries">
<path d="M 649.8605 187.5201 646.0173 191.5149 643.6665 187.649 640.6398 184.239 638.2552 180.7656 635.231 173.31 635.096 169.5874 635.9189 165.6744 636.1097 161.7102 634.6549 153.6126 631.0653 146.1702 618.5076 128.3283 614.5422 123.6292 610.0084 119.4079 607.103 118.3277 601.2165 117.1927 598.5956 116.304 593.7346 113.3223 589.2085 109.8732 577.9662 99.7084 572.0167 96.7661 568.8636 93.234 551.0593 81.6608 545.8529 78.9049 539.5201 78.7509 534.1447 76.4335 538.3772 75.1397 539.23 71.4457 538.2848 67.6428 547.2652 74.0322 556.7179 79.6582 559.4598 84.077 564.0948 84.4576 572.5304 88.266 578.3192 91.6545 583.7755 95.5327 589.9173 101.0461 601.699 105.5566 603.3751 107.1277 609.3368 114.2726 617.1401 120.4054 619.7873 123.7402 652.6363 152.6779 658.1368 160.6856 658.5437 166.0625 657.4564 168.1393 653.9824 172.5917 654.021 177.9591 652.8443 182.7579 649.8605 187.5201 Z M 595.5654 161.5362 598.2697 162.6852 606.0755 157.2297 610.2273 161.2493 615.5262 163.2855 621.0338 164.4929 618.8193 172.5094 619.4504 176.2582 620.8545 180.0043 620.6423 185.4844 618.0816 190.3198 613.1809 197.3479 610.9965 198.6213 608.4395 199.3192 600.4615 199.7253 598.894 203.4997 599.3978 207.5333 603.6696 212.9072 607.0553 218.9053 603.5792 224.2988 597.8937 227.9938 592.5092 229.8374 583.6266 228.5234 574.2269 228.8284 572.4449 230.8817 572.3611 234.3219 571.012 236.9224 569.2759 239.2845 564.4488 244.1626 559.0592 248.4492 551.7077 252.4871 549.2353 253.4428 542.7507 254.0049 536.888 256.3085 534.2612 258.6035 531.4063 260.4569 525.1804 262.4493 519.0914 266.4641 516.6964 267.1257 504.1328 267.6766 486.1199 267.649 480.7699 268.0148 475.5812 267.3864 472.7199 265.751 466.6446 258.2839 461.3034 255.6857 455.4566 255.6938 447.6401 258.2254 446.1746 257.6308 430.6738 246.5572 425.9606 243.8414 420.9201 241.7974 414.7617 240.3539 408.9491 238.1018 405.5452 232.8655 405.9855 226.0942 410.6934 222.1625 417.8144 224.2021 420.5429 224.2046 423.2294 223.1023 426.3621 223.4976 429.5266 224.5308 441.0801 223.1919 447.7392 225.3402 454.1994 228.1558 460.2556 228.8241 466.4705 228.3186 474.8183 225.3195 477.44 225.7624 485.4368 225.9021 492.4422 221.8566 495.1551 205.1851 496.9593 199.5285 499.3393 198.3271 501.0471 198.6975 503.5795 201.5778 500.2916 205.0722 498.8354 207.781 498.3122 214.4484 500.0609 220.9493 504.0978 226.139 510.2163 226.88 515.8324 223.5771 521.9185 222.9723 527.5085 226.3446 533.2465 225.8695 535.894 223.7706 538.9679 222.8903 542.0098 222.5863 544.7902 221.3642 548.4805 215.8529 550.9755 209.6114 554.6328 204.7245 564.5943 196.6674 567.4525 195.6937 570.5416 195.1944 577.4867 195.6834 582.6614 192.8624 583.1022 186.2769 582.391 179.5752 576.5592 163.742 576.1632 161.2398 577.0248 158.4653 578.7332 155.9941 584.5189 156.0798 590.5551 157.1296 592.9179 159.5425 595.5654 161.5362 Z M 8.3603 420.3064 8.3412 419.591 8.2094 408.5529 8.0774 397.5073 7.9504 386.4601 7.8284 375.4014 7.7113 364.3371 7.6045 353.2679 7.4975 342.1998 7.3955 331.1229 7.2985 320.0431 7.2066 308.961 7.139 299.8472 4.118 296.3046 1 290.8736 1.6137 283.8636 5.2954 275.1554 6.9275 269.357 6.8998 264.6295 6.8332 253.5518 6.7716 242.4706 6.715 231.3919 6.6635 220.3164 6.6224 209.25 6.5811 198.1828 6.5449 187.1207 6.5137 176.0645 6.4876 165.0202 6.4719 153.9776 6.4507 142.9429 6.4451 131.9167 6.4393 120.9049 6.4386 109.8977 6.4429 98.901 6.4523 87.9153 6.4667 76.9468 6.4758 70.3484 6.4844 66.7115 6.4849 66.5063 8.0982 66.5087 13.5775 66.5097 17.944 67.3511 45.0344 78.8019 53.1378 83.4379 55.8989 84.5182 58.6249 84.5387 61.2237 85.0726 73.4629 91.4678 91.7791 97.9067 111.127 104.0986 117.1306 105.3857 123.3482 105.9123 136.8542 108.0497 143.9621 109.9744 154.3867 117.6655 159.6424 120.042 164.569 124.3878 171.5422 129.0586 174.2955 130.2291 177.3198 130.7741 184.1764 130.9373 191.0596 130.0953 193.8979 130.4733 196.6829 131.3238 199.2288 132.9545 200.5201 136.0968 204.7876 140.448 210.8404 142.4149 216.5841 146.3586 221.7529 151.0846 225.5555 155.8421 229.8728 159.8588 236.4103 161.5711 243.2923 161.8624 266.772 185.7863 267.9131 189.4729 268.1506 205.134 265.5428 217.3683 271.3768 221.1463 279.3268 222.5854 290.4894 225.2567 301.2118 229.2089 335.2853 245.9111 339.9582 247.347 346.8312 247.9253 353.7618 247.7552 356.2439 248.614 361.3941 251.643 363.9785 253.6155 368.5994 258.9832 372.7134 264.8101 374.4691 266.4785 376.568 267.7876 377.7558 270.9471 379.3016 280.6659 378.7748 286.7237 376.8737 288.9561 371.4414 290.0096 352.3892 290.9087 339.642 289.7047 330.6767 295.7874 330.4239 298.4605 331.0306 300.9568 338.7176 313.9875 343.2215 325.5227 346.9593 330.2263 352.5858 334.0554 357.5818 338.5725 362.1626 343.7568 371.6928 352.8104 376.8886 356.1712 382.9874 358.2664 393.1094 365.2979 394.4199 368.3854 397.2123 378.1001 398.3845 384.6812 398.5418 387.393 399.2183 389.826 408.0722 395.8258 410.0048 397.4947 413.7842 410.7529 416.7313 416.9028 421.8178 419.1069 427.7835 418.9976 444.0617 415.1494 446.4075 415.0349 449.3907 415.9551 451.9617 418.1206 452.7188 424.0652 450.0698 430.2808 449.2571 436.2762 452.3392 441.2101 460.4728 445.0823 463.4584 446.1453 478.1765 447.4364 483.9296 448.4964 489.5594 450.1773 491.4929 451.6662 490.0468 454.2917 487.0537 455.5624 483.6876 456.0736 478.2252 457.9502 478.2441 461.3351 481.2179 464.8784 483.9038 469.1338 486.212 470.6834 488.7258 471.7236 495.0269 473.2197 501.1319 475.2609 505.137 477.2823 509.2857 478.7367 518.3789 479.6905 524.9753 482.4224 534.5006 481.3283 526.1461 485.6871 523.2792 486.7559 513.3909 485.0734 511.4739 486.7811 515.4395 491.4389 521.4185 494.5862 523.5333 496.41 521.9514 498.5302 514.7732 502.7585 511.8063 503.3728 506.2819 503.6975 497.0736 501.8393 490.5779 499.4844 488.821 496.2871 487.119 494.3996 481.3055 489.8807 477.1401 487.4058 471.7716 486.554 466.1507 486.5892 456.1353 483.9366 434.2648 482.0105 429.0555 480.8539 422.5334 477.2187 419.4396 476.6938 416.0851 477.822 407.5676 478.4995 405.0751 478.1716 399.0544 475.0679 392.8006 473.9235 390.1724 474.8446 387.5198 475.0436 378.9915 472.813 372.5472 471.8637 367.2838 468.7693 364.4251 465.8801 361.2003 463.3112 358.2731 456.7051 353.6525 450.4285 347.8782 445.2611 335.4412 436.9068 332.9347 434.8293 328.1001 427.1809 328.4185 422.1188 330.26 417.001 327.5364 418.7382 324.4811 418.5123 315.9485 415.1046 312.4565 411.062 306.8138 400.0927 303.1887 394.3077 294.6862 384.0521 292.2545 377.9668 288.7047 372.6426 286.5006 370.668 284.6713 368.3855 283.0556 365.422 280.623 363.3556 268.6517 358.7688 266.5441 357.3261 264.222 356.5594 255.2943 356.072 250.1319 355.3112 240.4013 351.5601 235.3677 350.4336 229.3125 349.7166 223.4478 348.2921 220.5874 346.898 218.6686 344.5458 217.5368 338.9746 212.6205 339.5671 207.8011 338.5985 203.1246 336.639 198.3566 335.4584 195.0986 337.1365 194.0971 341.5715 192.5905 341.8002 189.7998 340.8935 188.4094 341.4263 185.3803 343.4729 182.9544 346.2392 178.4887 345.8186 169.3281 343.023 165.2461 341.2713 161.7753 338.1123 158.7893 334.5212 155.7666 331.6926 152.0569 329.6273 156.7855 334.5068 167.6426 356.0268 164.9336 356.4437 162.1444 355.9019 164.7103 360.0346 161.7593 360.6595 158.8342 360.6134 152.6539 358.8336 146.5176 358.248 144.7139 359.1235 146.0159 360.6723 148.1788 365.2294 149.9033 370.0099 141.0608 372.1696 131.993 373.4902 121.9001 376.0863 111.6767 376.2791 106.4277 374.8201 101.045 374.0008 96.0034 374.8418 91.1111 376.7152 86.9824 376.4271 84.3575 373.0815 83.1161 370.5412 81.5397 368.3368 77.6832 368.6985 73.9697 369.9009 80.3441 370.0216 82.2715 372.8315 83.9338 376.2431 88.4674 379.323 93.9108 377.4697 105.8837 377.9555 117.5436 383.3195 120.3065 383.9324 122.8446 384.982 128.8586 390.2933 133.3938 395.1221 137.213 400.6316 138.025 402.789 137.79 408.5768 136.6519 411.4523 129.1598 415.5341 121.1699 418.618 109.4129 424.621 98.0546 431.4389 92.0594 430.1173 86.6365 426.5251 84.5364 425.5528 78.9617 423.6006 75.5628 422.9018 62.1177 424.4641 48.6324 425.2814 42.963 425.2271 37.4415 424.0916 31.3618 421.967 25.3749 422.9337 21.301 425.4582 16.8236 425.843 8.3603 420.3064 Z M 388.7623 241.2538 386.5907 241.6497 385.6638 239.1686 380.6457 236.982 375.6459 230.2963 375.7509 224.5908 376.4105 222.9586 379.204 222.898 390.384 229.57 391.5183 231.6858 390.645 237.9096 388.7623 241.2538 Z M 280.4804 180.5711 276.8415 182.1652 274.2184 180.9139 273.1142 177.3405 274.0194 173.8991 277.2039 171.1976 279.2143 170.3888 281.4709 172.2444 282.3361 175.8956 280.4804 180.5711 Z M 634.7613 100.1547 633.5135 104.8101 630.3443 101.9748 628.169 97.947 629.5423 96.2176 633.0989 95.2665 634.7613 100.1547 Z M 605.098 89.3807 604.5496 92.0653 602.9279 91.8647 598.4164 86.4582 597.5506 85.0669 598.5928 83.764 603.8112 87.8003 605.098 89.3807 Z M 481.8004 11.8594 481.6967 13.7832 477.8467 12.7258 476.7946 12.9894 470.0876 7.2707 470.1632 3.8644 471.9002 1 474.6734 1.5282 479.6122 5.2921 481.8004 11.8594 Z M 546.862 469.7929 549.066 469.8088 552.8621 465.8164 556.0779 464.6059 558.1381 466.4463 554.3492 479.197 551.5403 477.2622 540.4249 473.6534 540.222 468.5968 537.3396 466.9513 535.6704 462.0041 532.0892 456.5081 531.4767 452.9949 533.5544 454.4511 535.8314 458.0404 545.4585 465.4276 545.0092 467.7964 546.862 469.7929 Z M 509.2728 441.2796 508.5041 442.6076 505.4634 441.6116 497.0837 434.0941 498.5315 428.5772 502.4463 425.7266 508.2408 428.8827 510.0683 433.473 510.5907 436.0363 509.2728 441.2796 Z M 550.0474 400.5378 550.8569 404.3967 546.8909 400.2324 548.8029 395.5774 549.1768 393.0549 549.0003 391.6296 544.9915 389.1738 547.2365 385.237 549.5553 383.9284 550.9961 383.5564 550.8104 389.1193 551.91 391.6233 550.0474 400.5378 Z M 706.5621 541.7864 705.6808 544.658 703.9242 543.6819 698.4632 545.1612 695.6398 544.8218 694.1337 542.2427 693.81 541.0514 698.4516 541.9877 697.8055 539.1312 704.4963 540.5926 706.5621 541.7864 Z M 148.4793 385.3462 146.1234 385.5132 136.5992 381.8248 134.1612 379.1402 145.3034 379.7242 148.1787 380.3975 148.7878 384.1594 148.4793 385.3462 Z M 343.0608 219.4005 340.0307 219.6768 335.1172 214.4648 333.8716 212.53 334.3604 209.8306 340.6598 206.2481 344.7189 209.5867 345.5344 216.6732 343.0608 219.4005 Z M 337.1869 31.2933 355.1884 34.9839 356.3743 34.9562 356.1641 33.7059 356.4685 33.3583 357.5366 34.2834 357.2192 36.8278 354.38 37.4181 351.7374 37.1406 349.8433 38.4301 344.726 43.29 341.2559 42.428 337.0251 43.4856 329.5886 43.5147 319.9216 41.2578 317.2881 43.056 313.8388 42.5206 310.432 44.4872 309.0245 44.3753 308.1973 41.4368 308.2518 39.9351 312.2899 38.6995 311.6746 34.0907 314.9361 31.8168 320.5561 32.0687 325.8039 30.5517 337.1869 31.2933 Z M 517.776 71.9342 507.2346 72.4387 503.4257 71.5408 500.0087 68.373 496.9027 63.4795 493.8018 62.2891 492.5472 61.3154 500.0094 57.7832 506.6107 56.8123 517.3493 61.6687 518.446 63.9894 518.5361 65.4824 518.27 70.3642 517.776 71.9342 Z M 519.044 433.3948 526.2853 437.8556 530.3614 436.5856 532.5444 437.3252 537.1269 442.4552 537.2875 446.1839 537.9593 449.3887 537.6824 450.7902 535.027 452.6778 535.3042 450.5142 533.3209 450.0828 526.4541 450.1398 521.1622 448.7438 513.852 448.3523 517.0265 444.9808 517.7503 443.606 514.0228 438.1312 513.9171 435.5237 514.2584 434.0878 517.5023 433.3329 519.044 433.3948 Z M 628.5177 413.3942 631.4787 414.2401 637.6703 413.9006 639.6064 416.995 642.3957 418.0796 644.7935 419.4901 646.8901 421.5309 646.8356 422.7606 646.2883 423.8287 644.9481 424.7744 645.2662 426.939 643.026 426.5996 640.1692 427.7155 634.734 425.1383 632.7401 424.5497 632.1986 422.3759 628.7221 418.7125 622.4996 416.0498 625.7382 413.9397 628.5177 413.3942 Z M 669.1353 547.7835 677.3574 550.5577 680.0318 553.611 676.9481 554.9939 669.6113 555.9361 667.9788 554.0689 661.0425 552.18 660.1051 548.768 656.5226 549.9252 658.4239 547.5217 654.1343 544.8093 652.9232 541.1845 652.8193 539.716 657.928 541.4308 669.1353 547.7835 Z M 148.6872 393.6076 149.6566 395.9894 141.8043 392.7254 134.3069 387.2705 130.5083 385.7909 127.9616 382.1921 132.6237 384.8731 140.7415 387.3805 148.6872 393.6076 Z M 380.9282 49.1701 379.1913 51.9767 375.117 51.682 373.3137 50.8133 376.2597 50.3158 377.4357 47.9952 378.7062 47.188 380.9282 49.1701 Z M 597.6784 82.9144 596.4367 82.8912 596.228 78.6218 597.0817 76.4019 599.9842 78.0415 600.4912 81.8691 597.6784 82.9144 Z M 536.5192 498.9903 535.6586 503.1711 531.4271 501.9136 530.5933 501.0113 531.3794 498.372 535.1588 498.264 536.5192 498.9903 Z M 685.5561 153.2502 685.0844 154.5057 682.0974 152.9735 684.5665 150.3028 685.7528 150.1492 685.5561 153.2502 Z M 799 294.5047 797.6828 299.4606 796.765 300.3023 795.6775 298.4042 791.3594 300.1186 789.2664 302.1362 787.0552 303.6003 782.0353 303.1219 777.301 301.6452 772.7306 299.0047 768.6761 295.6552 764.6441 290.4585 762.1744 285.1022 763.5867 278.9803 762.088 273.3894 754.3151 269.2523 752.6184 267.9326 749.2245 262.3115 745.7691 259.8358 741.4241 254.8775 740.3222 252.7452 738.5018 246.5567 737.9488 242.8287 739.7092 232.0842 739.1847 226.677 741.3535 227.2516 743.6225 229.4469 746.2108 230.9772 752.5282 232.1378 757.3016 236.5533 761.8082 245.0423 762.3202 247.7984 763.7668 249.8071 768.4581 253.4795 770.8787 255.82 775.4011 265.0447 777.9575 267.0529 780.9967 267.9116 783.81 269.2956 788.4559 273.4068 792.7193 278.0318 795.5551 282.8528 797.6758 287.9872 799 294.5047 Z M 735.0733 225.9413 734.067 226.3378 731.9611 219.5343 731.6278 214.5226 730.9928 210.8191 729.8694 208.5902 733.2056 204.6268 734.5764 203.5381 737.0397 205.7519 737.3511 210.4984 739.2165 214.5787 737.6756 223.3423 735.0733 225.9413 Z"/>
</g>
</svg>