<?xml version="1.0"?>
<svg xmlns="http://www.w3.org/2000/svg" version="1.2" baseProfile="tiny" width="800" height="1162" viewBox="0 0 800 1162" stroke-linecap="round" stroke-linejoin="round">
<g id="ne_50m_admin_0_countries">
<path d="M 724.9621 265.2753 724.5863 269.4001 722.5675 271.0112 719.4406 271.3194 714.6488 268.2776 711.1519 268.9392 707.6525 269.0632 702.7117 265.5334 701.0048 262.1225 697.1257 259.2905 689.1234 260.2506 682.5191 260.2008 676.9842 259.4856 672.0283 260.3173 667.8035 263.8134 664.6536 267.9312 660.9627 271.3742 650.098 273.539 644.31 273.5159 639.0963 275.7369 631.3444 276.4739 626.044 278.4458 616.6537 279.4438 605.3814 280.3957 599.0891 283.4374 596.579 284.7648 590.1777 289.0056 579.0259 295.6892 572.8758 297.998 565.4364 305.2833 556.5064 312.1246 550.7125 315.7612 542.1706 317.3985 538.6347 319.2288 537.3254 321.4551 538.0738 324.0511 536.6321 330.7131 534.0194 343.0319 533.2932 349.0778 532.6716 351.9721 527.0086 361.8602 520.9185 371.0608 517.9314 377.1671 516.2486 381.6387 518.1097 385.3748 520.591 392.0844 522.6622 397.4762 523.2376 401.116 522.5251 405.291 519.9495 409.1002 515.9128 411.5842 510.4497 412.2469 499.2534 418.9539 486.7571 428.859 482.6745 433.4884 481.5058 437.8553 479.6805 444.7099 480.4231 448.2707 482.654 450.7074 484.8844 456.5224 485.0693 459.5229 483.2047 461.2017 479.6664 461.5725 476.5004 462.1274 474.0789 463.6236 471.6619 463.2413 469.4258 463.9882 469.4242 466.4282 470.1674 469.2415 469.7928 472.2364 468.3014 474.1137 466.9983 475.4239 468.2992 477.299 470.5329 478.9926 473.8795 481.8114 478.5246 487.258 482.0592 488.205 485.0354 490.0854 485.4039 493.0899 484.2835 496.0852 481.6764 497.3926 481.4887 500.0243 485.0188 503.2192 487.433 505.4781 489.845 508.8612 492.0666 513.5575 492.0617 516.563 494.4712 520.3199 495.9529 523.519 495.9473 526.5251 499.8434 529.5354 503.1808 531.7995 505.5903 533.8719 508.0011 535.193 508.5515 537.4495 508.2216 540.8657 511.6784 546.5047 518.0136 550.7518 523.1417 556.8975 526.4511 561.357 532.585 568.519 532.7873 576.7318 525.1293 586.1221 517.4685 595.5221 529.9452 595.3056 542.6612 595.5451 555.9489 598.3013 564.8943 600.9406 570.3414 602.1307 574.2031 605.1568 576.021 609.8575 577.4706 613.6974 577.8058 619.2479 583.3096 623.7847 582.8818 628.055 582.6794 634.0996 585.131 634.2076 601.346 634.327 619.0623 634.4731 636.0845 633.466 642.5208 632.0586 650.3582 624.7889 655.0329 622.6528 659.5599 619.2685 665.0804 613.0766 669.427 610.2924 673.1165 606.8665 678.5923 603.4529 680.8671 600.9102 682.7101 599.9896 686.9486 598.3438 685.0752 601.7025 683.6416 605.1478 683.1462 610.115 685.0979 615.5596 683.3726 619.6006 680.6077 623.2034 680.4474 632.7534 680.2168 646.2817 680.0112 657.8731 679.7509 672.3556 679.4387 688.7683 679.2273 699.6773 682.138 697.5499 686.1434 695.6517 691.2378 700.7094 694.8801 702.9136 698.0267 703.4611 701.266 703.3311 705.6921 702.3006 715.3989 698.1892 722.0937 694.8707 729.6351 695.168 739.9758 696.5999 745.9389 696.5088 753.4628 710.5275 758.9571 720.7776 765.1918 732.4555 770.1961 741.8455 777.767 756.0989 784.2779 768.3888 791.1836 781.4668 799 796.3178 796.2516 800.0448 794.024 803.0222 794.1122 808.0916 790.7865 810.7668 787.2987 812.3703 783.1061 816.6016 780.2352 820.2765 779.9666 825.5309 779.6802 852.226 778.7708 859.4637 776.4853 865.6724 774.2204 868.8002 772.837 871.2574 775.7766 877.4519 778.366 889.8578 780.5391 892.3154 783.1695 897.3674 784.2794 902.1369 783.6408 903.9722 777.9752 906.1909 775.91 908.118 775.1421 915.1971 772.6332 917.7309 768.4304 921.0398 765.676 924.8526 763.3532 927.4659 761.1233 929.0022 759.9021 933.6609 758.2972 938.3649 753.0964 941.4577 752.0318 947.2531 751.8124 951.9974 754.3331 956.7768 762.727 966.8222 763.5325 969.199 758.3381 975.2185 755.2937 979.3753 747.7492 992.1184 747.5206 994.4423 749.0645 1000.4557 758.6519 1026.1296 760.3573 1028.2232 763.5097 1030.6559 768.8271 1030.3921 776.7173 1033.1402 780.477 1036.2958 780.7751 1037.851 779.8254 1038.8973 775.5094 1041.0194 770.6842 1043.7821 768.9697 1046.3994 768.4676 1050.5256 769.2706 1056.676 767.1521 1058.6611 762.363 1061.0569 758.1743 1064.4765 753.8832 1070.1833 746.6561 1078.8407 744.1819 1081.2235 743.0248 1084.1988 739.0789 1085.2123 731.5404 1091.0866 730.1696 1094.0579 731.248 1096.8744 734.878 1099.23 737.2501 1102.6636 737.7246 1107.0367 737.6052 1109.7634 737.611 1109.8351 732.9191 1113.9549 726.8374 1118.6481 719.531 1119.5878 716.6805 1121.9686 717.1181 1126.9349 719.174 1133.9337 718.9415 1139.4296 716.4681 1145.7147 711.0156 1152.5695 702.9061 1157.2915 695.3622 1159.8418 689.4793 1159.8701 683.7708 1160.3832 681.307 1161.1182 677.0688 1157.0118 657.9942 1143.3631 650.757 1136.031 643.9442 1132.6037 627.3639 1120.8168 625.7734 1117.02 624.0024 1104.8398 621.8797 1101.4029 616.1472 1096.999 601.5761 1091.1285 595.9317 1088.1884 590.0469 1082.8232 581.3272 1079.0277 571.8742 1071.2174 566.246 1064.9543 559.8837 1060.8092 540.0002 1055.0066 530.0353 1049.1894 511.3396 1040.9582 503.0109 1035.7088 482.9039 1029.3083 476.9321 1026.261 457.1282 1011.2404 443.1987 1006.3253 431.9561 997.8686 397.9266 979.8477 392.554 974.0761 387.2948 965.1387 379.695 959.8129 371.1009 947.557 358.3703 940.3491 346.0903 930.7895 341.4986 922.0721 333.2795 910.9611 330.8056 905.0236 323.6453 899.0962 323.0085 887.3634 317.9895 881.9445 321.5136 879.2907 325.2607 878.0964 329.7672 859.7644 327.1878 850.5796 314.2509 833.924 309.4725 825.9066 306.0265 815.6181 300.8189 809.525 293.0781 796.6796 288.2847 785.2552 278.0067 776.9868 275.2016 774.015 273.604 769.7898 267.9074 766.8305 267.4855 758.0375 263.327 741.34 257.5797 732.9464 237.0231 717.3251 236.6023 711.2609 234.8338 700.2288 230.1542 688.3193 207.0171 651.3651 201.1912 640.3519 195.288 622.4305 190.0583 612.2714 184.2144 594.1774 175.5692 580.4736 170.1036 568.5723 164.2622 553.7722 163.6935 545.8216 153.261 532.2735 147.6579 519.8275 137.966 509.4775 128.5407 501.65 124.4335 496.075 110.8846 469.5274 109.0063 461.6396 99.829 447.108 90.7911 436.716 85.069 428.3292 77.7915 420.8416 33.8154 398.3865 18.4009 389.038 13.1836 384.5483 10.7632 377.3318 11.7545 373.0336 16.2449 368.907 22.4881 371.8261 26.2806 370.4431 29.2514 365.1534 29.2796 357.2666 25.4485 347.2196 11.4603 328.0504 12.5129 323.8838 15.1397 319.1149 9.7662 309.883 3.9188 302.5516 1 296.8788 4.3791 274.8558 7.5775 269.2075 28.8333 246.3314 34.7049 236.6808 43.8369 230.5622 53.2039 221.3544 64.4427 214.227 66.0812 215.3422 67.6258 216.4361 67.7141 218.7195 68.1166 220.6817 69.3456 222.5099 69.4277 225.9367 70.8631 228.1843 70.9515 230.7786 71.035 234.3137 70.3002 236.104 70.9899 239.1571 73.3624 244.7597 72.4204 246.5579 70.1356 247.7666 67.8495 249.3941 65.555 253.0043 62.1382 252.997 57.1816 251.5768 53.8628 253.6549 52.6035 257.44 53.6247 260.5382 53.9241 263.4553 56.0851 265.895 62.396 265.9255 56.6758 274.1283 53.8733 277.8603 54.4863 280.1451 57.883 282.0315 60.4279 282.1029 66.0796 278.9832 69.9253 274.5937 72.1088 272.1335 75.7426 271.091 80.5055 272.9515 86.8116 276.7576 94.2027 280.0853 97.2068 281.9391 102.6361 281.2483 107.1995 280.3331 111.0247 283.1364 114.8962 285.4894 115.7799 293.8044 118.6806 299.8055 122.2296 304.4142 126.545 309.8978 130.5113 311.7054 135.6559 311.6327 142.6331 313.5493 145.3511 312.1266 147.7595 308.1886 149.0185 305.952 152.576 304.936 152.8934 302.4025 152.164 299.3695 153.3179 295.7718 156.2402 292.5736 163.7504 287.8277 167.3679 285.8343 168.1063 282.9805 169.4784 279.1794 168.9564 277.0895 167.4453 274.5118 167.8188 270.8206 169.8211 265.8545 172.666 260.0458 175.112 252.6729 176.0551 249.1949 178.6855 246.9444 179.6875 243.7576 181.1224 240.0019 184.3909 235.7555 184.3029 231.2688 185.6741 229.2574 185.8157 224.2402 189.084 213.8671 189.2149 211.7307 190.6337 211.1309 193.0976 211.759 195.2103 214.0553 195.8574 216.3378 196.7458 217.367 198.744 217.1199 201.0604 215.7716 200.9114 213.6947 199.2394 211.6902 198.7891 210.4811 199.5174 208.5613 203.0358 204.3214 206.8905 199.4025 215.1679 189.2034 220.1408 185.0114 232.9892 180.4422 242.7141 176.9908 252.0579 173.6882 264.7379 168.9853 282.6751 162.3604 295.5691 157.6043 307.0824 149.3173 316.0013 142.9072 323.6417 137.369 333.3258 130.3586 346.4393 115.3136 355.4802 104.9629 362.079 97.4155 366.6365 92.6665 370.2985 79.3348 374.4758 64.1724 376.332 57.4452 377.1275 55.1075 378.907 56.0769 380.9404 57.7008 383.4304 57.7651 385.7776 57.6744 387.2355 56.7468 385.1075 41.7107 385.4281 38.4426 386.6722 34.5252 386.4323 32.3956 382.488 29.4263 376.1691 23.4879 373.5598 18.1804 371.9785 13.707 367.5635 10.7948 363.0278 8.2386 363.4039 6.1172 366.1102 6.0968 372.9604 8.1372 377.9021 7.4264 381.5896 7.1719 385.1623 4.9794 388.9854 1.0132 391.5651 1 394.473 1.518 399.7914 5.5271 402.9516 7.9012 406.7482 9.8584 410.3458 10.5316 413.6149 10.7603 415.8924 10.5575 417.245 13.2655 418.84 16.5653 422.8989 18.7942 427.6967 20.9114 431.6013 24.568 434.2281 27.0281 437.332 29.9385 440.3495 33.7974 443.091 40.591 444.4812 45.2096 446.0463 47.7789 445.6757 50.3912 448.9039 55.1283 451.2998 57.7641 455.4923 59.4409 463.5655 61.3553 467.887 65.6523 471.7136 67.3309 475.7941 71.7557 479.3748 73.082 483.9389 72.8628 488.5074 75.0228 491.9698 79.2154 494.2027 84.4825 497.6672 87.4922 499.4085 92.8868 497.446 99.2198 499.3049 102.594 502.8928 105.3665 508.7049 108.2875 514.0146 107.5969 516.7335 108.5732 518.4674 111.2319 519.4658 114.3549 521.807 122.026 523.0163 126.8793 520.873 131.5616 520.0844 134.8054 521.2576 139.1743 526.7878 141.3236 531.8168 143.0938 534.9319 146.5127 538.3868 147.4438 543.244 147.2942 549.4505 146.5173 552.8977 144.6007 555.1218 144.0354 557.5941 144.9013 563.1007 146.8239 569.8245 149.0125 575.8819 147.8507 581.1353 147.3608 586.3437 146.183 591.6273 142.7454 596.0653 142.9237 599.3594 140.6006 603.4983 136.8528 607.5941 133.0784 610.7891 132.2774 615.9648 134.185 623.1157 136.917 627.1721 140.4095 630.2744 141.3662 633.5037 143.935 639.6705 144.0844 646.2606 142.8364 651.5121 138.7068 656.9754 137.5811 660.6994 136.4688 664.1347 137.2632 677.4689 145.2163 681.1375 149.2681 685.7178 150.1407 689.48 152.394 695.7462 154.8723 699.1888 157.3544 703.6039 158.9012 706.8073 162.3452 711.8674 164.5381 716.2357 165.7837 718.2234 168.5457 718.2551 170.3665 717.6583 171.5687 713.0842 178.5949 704.1082 192.4016 696.0047 204.8658 683.2241 224.5471 676.0544 235.5904 677.8942 236.092 689.1294 241.1906 691.9153 241.4277 696.0224 240.2586 698.675 238.3597 701.1933 238.1311 703.8057 240.0702 707.5033 242.5746 710.1844 249.734 712.1522 253.2573 716.7723 256.0074 721.7016 260.5273 724.9621 265.2753 Z"/>
</g>
</svg>