<?xml version="1.0"?>
<svg xmlns="http://www.w3.org/2000/svg" version="1.2" baseProfile="tiny" width="800" height="632" viewBox="0 0 800 632" stroke-linecap="round" stroke-linejoin="round">
<g id="ne_50m_admin_0_countries">
<path d="M 799 623.9456 798.09 631.1709 789.0311 623.1563 787.1995 619.7476 791.1131 616.1537 797.5258 616.9236 798.6948 619.6028 799 623.9456 Z M 70.662 11.4018 78.0894 17.6673 83.9372 13.3527 90.0206 13.8417 93.3509 15.9619 96.7811 16.7675 101.0561 16.8155 108.41 27.415 105.3305 36.8057 113.3904 34.9683 120.3611 42.8112 123.5323 42.1647 125.1266 39.0064 129.6388 35.4323 132.7321 40.3105 136.426 49.638 141.1665 52.4938 145.2921 62.3877 148.4796 74.8338 151.4729 76.6204 156.6164 76.7212 161.8457 75.0556 159.7574 85.7553 160.2709 95.2679 168.7714 102.1909 163.6157 105.8756 158.1793 111.2458 147.2006 115.3563 144.3707 113.5356 134.8733 104.0003 130.4658 92.8101 120.4614 76.8157 118.4982 72.1126 115.9131 69.0923 106.7647 67.1143 98.7188 63.2902 92.0042 55.2219 89.8927 50.2637 87.2942 46.8268 78.1694 47.05 72.3992 43.2686 66.6709 38.1131 40.7993 23.359 30.7066 24.9913 25.9902 20.8155 26.1327 13.2937 31.4089 8.727 9.0136 7.362 1 4.7987 6.4477 3.0905 37.6511 2.3817 49.343 1 50.4012 4.2429 60.8064 10.8108 70.662 11.4018 Z"/>
</g>
</svg>