<?xml version="1.0"?>
<svg xmlns="http://www.w3.org/2000/svg" version="1.2" baseProfile="tiny" width="800" height="582" viewBox="0 0 800 582" stroke-linecap="round" stroke-linejoin="round">
<g id="ne_50m_admin_0_countries">
<path d="M 679.6946 249.557 692.0481 270.9479 689.5328 281.2659 686.8973 296.3376 693.8718 307.2226 701.9959 314.2749 707.8138 320.7741 714.2579 329.7581 715.4771 347.7447 714.4527 360.7428 718.653 366.5629 722.2443 373.9353 721.5989 380.1349 719.3472 385.6219 711.6576 392.9509 710.4817 406.4372 723.2113 422.6135 731.39 431.393 731.3563 436.4869 733.6672 442.0344 739.7004 448.4673 743.3541 446.8892 747.3367 441.5246 749.1085 437.8374 759.9717 439.32 765.1016 440.9209 772.1513 451.4839 774.772 458.5328 776.5328 467.4109 783.8925 478.4231 790.2769 486.1679 791.6489 491.0333 797.3572 497.5659 794.0037 512.3014 794.4775 519.8146 790.8156 539.5877 790.0618 548.912 790.3283 552.3437 799 559.2301 798.1877 569.2147 789.4363 567.5941 774.2494 566.6576 743.8473 572.2857 733.373 570.2912 713.3817 571.2486 699.1497 574.2777 681.07 580.9608 667.0166 579.5058 659.3937 574.4818 649.3863 574.9275 638.0937 572.3148 626.0501 567.4959 615.0559 565.0907 603.1695 556.1021 597.6196 554.5106 593.7428 556.9312 590.4856 559.985 587.0697 561.8799 580.6271 560.2785 578.1816 554.1197 580.1666 548.131 580.751 543.5916 577.724 541.1429 570.4791 540.3645 558.8012 540.4591 539.9597 538.6986 535.627 537.5682 493.4399 536.2002 449.6639 536.143 412.5627 536.0422 365.7321 535.8207 332.799 535.6313 302.0816 535.4086 278.3336 547.4561 252.6129 560.4831 218.0582 567.2708 178.359 564.3608 165.6695 566.1327 152.5082 571.8523 142.8417 576.0035 129.1478 578.4031 111.5073 576.1172 104.3557 577.3058 99.9673 571.274 94.9594 561.51 98.2039 554.4444 108.9878 549.9948 125.2131 544.1899 133.6692 547.351 138.6314 547.5504 139.5766 543.7229 138.0071 541.662 125.8365 536.3338 119.5319 529.4012 114.2785 533.365 109.7053 541.7379 105.9349 544.2103 100.3939 546.512 97.3051 540.7456 95.9873 535.1616 98.5449 530.8981 97.4313 506.7386 99.0335 493.8777 98.3482 482.6055 106.0384 475.2696 113.3131 470.7494 141.6168 470.6058 167.9375 470.4419 193.3212 470.9042 219.1734 471.3394 221.8667 448.8117 230.0456 447.0936 242.3096 444.8347 265.1423 442.2046 290.5936 439.6893 296.0306 435.2832 300.2684 427.816 302.9535 421.1129 308.2241 418.2896 315.3358 420.5638 324.6623 424.1088 334.3181 429.5775 345.4012 434.6472 352.7859 437.8329 370.5202 445.8006 400.8949 456.884 425.8708 461.2876 456.0508 453.1444 477.8261 447.8859 480.51 438.1834 477.0897 428.733 460.8716 420.0973 438.8185 421.1189 432.051 423.453 421.7766 426.3505 415.5967 427.5047 405.1975 425.4857 391.9927 417.9966 383.689 410.4448 372.079 406.8974 358.32 403.3425 336.2787 387.7728 324.7645 384.9638 313.8697 384.118 292.9253 387.1262 272.4623 395.3519 261.6311 414.1282 241.1654 413.7484 197.7353 412.8744 157.8784 412.0162 124.9834 412.9967 121.7898 399.3004 114.1 388.339 101.5493 378.9316 98.841 370.2822 103.1874 362.808 115.4431 356.7417 118.2621 352.3495 111.8693 352.947 102.1748 356.832 95.7558 356.9881 95.0929 345.0696 84.5488 329.5753 72.7751 303.4014 59.2775 292.5827 48.0988 271.3989 36.2783 263.1845 25.3679 259.2838 16.0107 259.9456 12.4648 269.5034 1 255.5295 16.9885 250.7797 51.2533 233.8333 90.9191 184.5421 126.6108 126.0294 131.3183 112.1876 135.6924 101.6819 138.7719 77.6999 143.9328 63.4201 148.6582 60.7377 154.6959 49.8064 162.0405 30.637 170.2446 20.0285 179.3014 17.9817 186.3371 18.947 191.3223 22.9325 206.0222 25.4534 230.4372 26.5108 249.3339 23.7278 262.7066 17.1134 280.2318 13.7885 301.9297 13.7662 313.3533 10.9949 314.4995 5.4912 317.3313 3.8378 321.8498 6.034 326.1166 5.1767 330.1361 1.2599 334.1189 1 338.0668 4.3905 356.2346 5.4301 388.633 4.1104 418.5637 14.1937 446.0862 35.6937 460.3082 50.0413 461.212 57.2328 465.796 64.477 474.0573 71.7658 481.5927 73.0975 488.4026 68.4789 493.7581 68.9597 497.6689 74.5408 505.524 75.6643 514.24 72.2012 520.4769 73.3593 521.6293 76.6792 523.0745 78.4469 527.2982 79.22 533.028 83.4609 541.0732 94.8693 547.666 110.8161 552.812 131.2925 559.518 142.4161 567.7738 144.1884 572.5785 148.378 573.5617 153.2532 575.9798 156.5548 579.9529 158.3795 586.9212 157.2373 595.1448 164.1182 604.0403 179.1109 605.4847 185.8889 604.1299 189.5395 604.6857 192.1924 610.5444 194.6929 616.1089 199.5831 620.6888 206.9597 630.4932 213.4621 645.5036 219.1047 656.3706 227.6197 663.0768 239.0122 676.8573 248.5188 679.6946 249.557 Z"/>
</g>
</svg>