<?xml version="1.0"?>
<svg xmlns="http://www.w3.org/2000/svg" version="1.2" baseProfile="tiny" width="800" height="1208" viewBox="0 0 800 1208" stroke-linecap="round" stroke-linejoin="round">
<g id="ne_50m_admin_0_countries">
<path d="M 586.2044 2.7045 586.7935 2.6733 600.1608 1 611.2687 3.4337 624.5517 9.4363 637.0241 12.0108 648.7074 11.1514 658.1734 11.3771 665.4185 12.6811 671.0837 14.8856 675.1854 17.986 675.3581 20.6069 675.6498 21.8127 677.6624 28.8429 680.6457 39.3566 682.5384 49.0235 685.1172 62.3069 684.7924 69.5961 685.4299 72.4667 687.989 76.1712 691.0517 82.4511 692.049 85.9685 693.0563 88.6168 696.3299 93.7381 698.7363 101.3347 700.6348 111.3155 702.3902 116.1674 703.0285 118.5362 703.7386 122.8237 703.2719 131.7432 702.9139 142.1008 702.5054 153.683 702.1656 163.2541 701.6184 168.0776 701.2617 181.8623 698.0602 188.8555 698.1726 194.5201 698.9048 198.2384 697.6875 198.7247 695.4052 199.2319 685.2668 192.7784 675.3629 186.0381 673.9021 185.7664 671.7335 186.2764 665.7831 190.3866 660.1235 197.0431 657.4169 202.8488 653.2002 208.7757 646.412 218.3319 645.6861 220.4346 645.3017 228.4841 645.3062 236.1699 645.8216 237.2688 649.2505 237.814 651.4547 244.2341 656.6517 254.5501 665.7926 261.4952 674.3859 264.9022 686.5127 266.3553 696.1168 266.7338 695.9053 259.9719 697.3764 249.1988 698.957 242.0001 700.3132 241.7632 702.8115 242.6205 704.1666 243.4547 708.0412 243.4039 714.8114 245.2861 720.3348 245.5005 725.267 245.7004 733.5983 246.0418 738.4498 246.3049 736.1689 257.8967 728.8239 275.8048 726.1979 284.0794 719.0934 313.8534 711.2121 328.6041 706.9284 334.6369 694.9676 345.0649 691.6913 347.1354 688.8118 348.4169 683.7755 349.4075 663.1328 370.8629 655.3213 381.3567 648.0788 396.8791 641.2635 405.2717 630.9771 423.3929 621.9291 437.3504 613.3066 450.0683 598.6773 467.4953 592.3341 472.4632 588.1084 474.6931 576.7333 484.7415 560.6927 501.0016 548.3887 515.4929 530.2919 531.8522 519.9418 538.9715 504.349 553.1157 500.0711 555.1722 482.6935 568.2991 470.2941 576.2611 450.3644 585.4558 442.488 588.0199 423.7933 585.4441 415.9606 586.7087 409.3962 592.3724 408.745 600.5311 406.0255 601.7456 401.9141 601.3705 388.8705 597.9528 381.7899 598.6073 377.6695 602.9621 374.3657 608.4773 364.562 608.7874 347.0414 603.1775 326.4307 599.8766 321.6639 599.541 311.7874 603.8833 308.3217 604.5424 293.8126 603.838 285.7058 601.295 278.0225 601.4161 272.2036 603.7287 265.0984 604.638 246.4507 620.3182 236.5682 620.5677 228.1265 622.544 223.9032 622.5937 215.9083 620.6767 212.9753 620.9001 208.5338 621.9825 204.1776 624.7924 194.0297 626.2592 190.1917 628.6631 173.8298 643.0871 169.8961 642.6686 166.6876 641.8752 157.7971 642.0254 147.2533 635.0247 143.4363 635.6414 144.3154 633.3911 144.3568 629.4589 142.0428 626.7725 140.5196 625.5933 136.5869 625.9805 134.252 622.7238 128.1865 622.6553 126.1586 623.5879 123.2728 623.8814 122.7656 620.5124 122.839 618.3721 122.4214 615.1044 121.4 611.1153 118.9609 609.9354 117.1221 609.476 112.8593 609.9399 109.9443 610.5028 108.6494 611.734 107.2951 614.7482 107.9689 623.6898 105.6578 621.2233 102.8357 615.9773 101.6179 610.2961 101.9581 603.4869 106.3403 600.7044 105.6365 596.1414 104.3632 592.2123 98.4577 582.269 96.0955 577.7033 91.4885 574.7557 87.5042 567.3072 83.8633 564.7149 82.0222 559.4548 78.3433 555.3558 76.6806 548.6604 78.2286 544.683 80.9933 542.4157 84.2346 545.6145 87.8427 544.113 92.7629 538.9494 95.3538 531.3565 94.6982 519.4388 93.3636 512.0354 87.7799 493.0019 85.4674 488.6813 74.9265 475.4089 62.4893 457.5671 46.288 429.2725 38.2625 412.1836 25.4734 377.5005 14.992 358.1332 2.5182 340.2927 1 339.1882 2.547 336.7895 8.2581 332.0249 10.9178 330.6553 12.4091 331.0823 13.7464 329.7925 14.9266 326.7759 15.049 324.0169 15.4705 320.0952 16.6673 317.6804 17.848 312.9507 20.1826 309.8051 25.4182 307.4554 29.6473 309.7619 31.5123 312.1956 32.4265 315.5151 34.3266 317.0164 37.2095 316.7003 39.3764 318.6343 40.8213 322.8135 40.7749 325.9187 39.2513 327.9482 39.6396 330.4501 41.9301 333.4362 42.9808 336.348 44.6314 340.1731 52.1294 341.9717 55.8063 343.0252 62.041 343.0656 68.0191 344.4483 73.7364 347.1835 82.8843 347.3803 95.4916 345.0689 106.0037 345.1966 114.4002 347.7585 120.4012 348.002 124.0126 345.9167 125.4846 343.0905 124.8138 339.5272 126.5456 337.1632 130.6781 335.9907 133.8998 333.1245 136.2161 328.5525 141.8915 324.6555 150.9375 321.4386 155.5071 321.3256 155.2067 314.1155 154.2799 291.3639 153.3855 268.6293 152.5238 245.9233 151.6947 223.2423 150.8986 200.598 150.1359 178.0017 149.4063 155.45 148.7482 134.2071 150.9985 135.6234 165.8301 146.18 169.9149 151.931 171.9681 155.6024 178.5901 169.0157 183.5802 181.1096 187.6096 190.2303 188.0167 194.4637 188.6666 198.5942 189.2554 200.6119 188.9739 202.8849 186.4813 208.0502 183.9054 212.0354 180.837 217.4596 180.746 224.461 181.9816 232.6528 184.0901 236.6689 186.6148 237.9134 192.4922 235.6293 196.2765 236.11 201.6358 237.4733 219.053 235.8777 221.1757 236.3103 227.7835 236.6816 229.971 235.9315 231.9024 234.1258 234.0703 229.1054 236.0802 227.4193 239.7713 226.4674 244.1401 225.0038 247.7307 222.0525 253.3193 212.1128 264.7604 203.1309 268.29 200.9672 270.4999 198.5785 272.4023 195.3905 276.3063 184.3818 279.2555 175.2246 280.2448 170.9215 282.9055 163.8725 286.1903 159.3411 289.4315 156.9217 291.0628 156.2867 295.2666 155.0001 300.6804 153.7743 306.3992 154.9347 312.5482 157.5322 319.4984 161.9874 326.6139 167.5282 329.8889 170.3548 333.4025 171.5981 339.6455 171.9791 343.736 171.8399 350.1292 177.3944 353.3488 177.7238 360.5498 179.3765 369.4403 181.0833 375.035 180.8653 381.0244 177.8171 385.3492 177.6829 390.9382 177.9269 397.0789 177.1019 401.5871 175.8116 405.0386 173.1868 408.0819 170.3145 411.5977 161.7484 413.6343 154.855 416.784 146.9408 420.6591 136.2272 422.0573 128.7584 423.4747 126.7119 429.0568 124.4728 433.6737 122.9449 446.0869 120.1451 448.6391 118.613 450.9844 115.1253 456.4444 109.2378 463.167 104.3651 466.6385 101.5729 473.1916 77.5962 473.9866 74.645 478.6554 68.3603 481.5277 65.7268 483.3596 65.7157 485.9804 64.0924 489.3914 60.8597 493.4291 58.9114 498.0921 58.2573 501.1324 56.1362 502.5552 52.5611 504.9703 50.8698 508.3815 51.0576 510.3371 49.9647 510.8473 47.5804 512.9339 45.5881 516.6019 43.9849 518.5383 42.0219 518.7428 39.6969 523.1648 34.1643 531.8185 25.4443 539.9218 20.7144 547.477 19.9636 554.6447 18.3609 561.4361 15.9058 566.4586 11.8426 569.7182 6.179 575.2133 3.1781 586.2044 2.7045 Z M 547.1846 403.2915 554.5403 400.2533 557.8855 398.3519 560.3136 396.7945 563.45 394.4042 564.7211 388.3967 565.7968 383.2897 568.229 380.8392 570.684 379.2379 572.7432 376.6418 575.4249 370.3243 577.3338 364.1162 577.6049 361.5595 576.82 358.9 575.3674 356.0364 573.9643 352.1972 572.134 351.5416 568.5683 349.2931 563.3621 344.8459 558.8278 340.9864 554.642 335.4414 552.8784 334.5031 548.7615 330.7194 547.0033 328.5644 545.7977 326.0153 544.6173 325.1523 542.6989 325.7321 537.6667 326.6993 526.8192 330.7904 520.0696 334.6606 514.3721 339.3183 508.5249 341.0186 504.2387 342.5138 500.7554 347.9346 497.5039 352.9814 494.5862 357.5302 492.9282 359.5755 491.4254 360.8915 489.8874 363.8085 486.7517 368.644 483.9078 371.8854 479.9872 373.6091 474.9396 375.8447 473.2089 377.1674 472.9448 379.1409 474.651 383.7751 476.2953 388.2477 479.0076 393.4855 480.9891 397.3216 484.1377 402.0157 485.9762 404.7665 485.6333 409.3189 486.2359 410.9642 487.2779 412.868 488.1581 413.3652 489.155 414.0601 491.805 415.4176 492.4293 416.3015 494.2727 417.8904 496.0036 420.7556 499.3099 424.7144 503.0539 427.7514 509.5757 429.1119 514.6715 430.1718 516.3893 429.6351 518.196 427.2928 519.7042 424.2777 520.2677 420.4335 521.9614 418.4199 528.3878 408.7575 531.8811 405.2091 533.9644 405.0034 536.6605 404.3792 540.0735 404.172 542.6131 404.5337 543.1686 404.4392 547.1846 403.2915 Z M 797.6278 1206.6584 796.1249 1207.3498 790.0956 1206.4722 789.8088 1204.9191 792.2289 1202.6358 793.5576 1201.6841 796.6387 1202.3399 798.7095 1204.342 799 1205.0031 797.6278 1206.6584 Z"/>
</g>
</svg>