<?xml version="1.0"?>
<svg xmlns="http://www.w3.org/2000/svg" version="1.2" baseProfile="tiny" width="800" height="2370" viewBox="0 0 800 2370" stroke-linecap="round" stroke-linejoin="round">
<g id="ne_50m_admin_0_countries">
<path d="M 623.7629 716.7334 521.6564 773.1708 266.7951 533.1025 297.5689 254.4203 451.6792 101.171 597.2654 10.9492 747.0755 1 799 231.7775 762.634 556.9857 623.7629 716.7334 Z M 444.0778 1299.8788 388.4029 1338.8848 414.5408 1338.8894 388.3982 1365.3591 370.921 1339.0555 343.2592 1322.8511 308.1284 1315.7007 267.7342 1316.7332 267.7425 1290.0847 319.5021 1306.4727 398.4248 1290.4664 398.7691 1261.5536 375.5235 1235.4229 364.8357 1217.1322 394.0297 1188.9216 490.5924 1126.4045 531.1483 1093.3127 535.8992 1106.8987 537.5958 1119.7878 542.347 1131.9802 556.9402 1144.1726 507.2186 1192.5925 444.0778 1299.8788 Z M 67.5993 2367.6947 32.2567 2369.4148 1 2357.2046 9.3316 2346.4133 48.9246 2337.7311 67.4563 2314.2327 60.8462 2282.7087 62.5629 2247.8805 94.0029 2226.4783 118.1279 2224.2273 128.8249 2237.6422 135.6063 2270.211 117.2463 2295.2785 97.0187 2315.4685 86.9794 2346.6346 67.5993 2367.6947 Z"/>
</g>
</svg>