<?xml version="1.0"?>
<svg xmlns="http://www.w3.org/2000/svg" version="1.2" baseProfile="tiny" width="800" height="505" viewBox="0 0 800 505" stroke-linecap="round" stroke-linejoin="round">
<g id="ne_50m_admin_0_countries">
<path d="M 631.7059 64.295 637.0698 67.5916 649.768 78.7808 647.1863 98.2978 633.4447 129.859 626.2703 155.3653 625.7471 174.8239 627.3416 183.9231 629.9207 183.7548 643.6761 184.913 650.6618 184.7647 672.806 189.6218 690.6417 196.9602 694.2232 205.0122 696.7432 214.8679 718.0832 227.9484 742.4334 236.1325 750.5442 233.1258 779.6473 200.6806 791.3442 205.6283 798.8161 222.2392 798.7612 231.1637 791.44 265.0405 790.5059 283.14 797.9925 294.8847 799 304.1705 797.1399 312.7164 785.1553 313.823 768.8978 309.6615 754.8962 295.4646 744.6425 297.4652 735.7679 301.4222 731.5105 315.2745 727.8095 331.8167 729.3238 340.9183 735.9584 347.787 741.2565 362.6466 745.3266 381.9189 748.2799 390.7668 745.3555 394.7945 736.8811 397.655 729.7498 395.2094 716.844 372.32 710.8654 363.6209 701.0589 362.2937 683.9215 368.2756 657.6735 381.7615 646.9755 381.9037 637.8401 379.4459 629.1496 368.5711 621.6032 347.4611 619.0834 334.1675 614.0452 334.6749 597.0823 331.0686 589.2727 336.4462 589.4896 358.1681 588.2911 385.228 579.9871 402.8132 556.604 433.3173 548.0115 446.6007 544.6321 456.0986 543.9752 464.3297 547.7519 478.515 552.8481 492.0525 548.7915 499.8262 536.2083 504.0081 527.2287 495.8314 523.6576 481.1852 504.2313 461.2936 512.8638 444.4495 511.3593 440.2921 479.5625 431.8008 465.8215 419.1849 446.5643 396.9827 442.9708 387.4277 443.6835 356.3879 442.5638 348.8589 440.0103 345.2011 430.7622 345.4635 417.9026 356.2772 406.0192 372.3863 381.6497 390.5319 379.1099 394.4201 387.2715 412.1346 386.8969 419.0333 366.9404 447.2114 363.1266 456.5126 337.7382 474.1304 326.1055 480.7039 291.0438 467.4317 281.3439 465.8097 265.6157 474.3937 243.2818 482.4562 207.3657 490.2609 194.2621 484.0207 188.1051 478.2429 185.1396 469.6448 176.3475 454.4209 166.3544 445.2978 159.4707 435.4384 150.2678 424.5985 144.4062 415.5707 152.9105 387.244 147.2582 377.108 144.5153 362.7648 146.2402 353.1036 143.0788 350.6819 111.1246 344.4646 84.4824 345.6512 65.1893 354.726 49.2551 370.1399 47.3061 373.5022 48.1944 376.3681 55.5835 391.0987 42.0611 406.0696 21.5745 417.4386 7.2278 418.2512 1 415.7732 1.1945 399.3531 13.1746 393.6411 24.1347 383.2534 28.1031 368.2854 29.6859 357.7254 18.8044 344.6027 20.3892 336.7857 27.7343 322.098 32.1075 309.0333 37.9185 297.7868 60.4578 279.7164 83.05 261.5216 86.838 241.7141 89.0775 217.5357 92.3284 211.7945 122.3722 197.9334 129.9077 192.3446 133.8035 184.2051 157.6538 157.484 181.19 130.9585 185.9792 122.0107 189.9337 116.7766 190.0024 112.3927 187.1632 108.9627 176.2309 106.5407 172.6803 97.9407 184.8281 82.8713 199.847 73.7471 214.2909 73.8225 220.0371 78.1945 219.6611 83.2437 225.8256 88.7562 236.7595 90.6842 250.3372 88.943 263.8486 83.372 272.2672 69.8701 277.1768 59.6431 298.3513 48.0795 312.6967 54.0911 352.6785 55.8433 381.7964 52.7319 400.0424 44.787 422.656 44.7716 437.8346 49.2256 440.509 48.5615 444.6818 47.5008 448.7915 43.2175 463.0563 40.2313 464.9643 36.6603 464.3511 33.0122 461.7718 31.1539 444.2439 33.113 437.5282 30.3148 435.7923 23.8261 441.3903 12.5439 454.2563 3.3061 465.1683 1 473.0452 3.425 492.3741 20.4032 496.9871 20.8904 499.6348 17.8026 503.6177 16.0562 510.276 19.3534 517.8342 29.8784 519.091 31.4974 561.9884 27.3697 571.6181 27.2559 601.0206 45.4372 631.7059 64.295 Z"/>
</g>
</svg>