<?xml version="1.0"?>
<svg xmlns="http://www.w3.org/2000/svg" version="1.2" baseProfile="tiny" width="800" height="811" viewBox="0 0 800 811" stroke-linecap="round" stroke-linejoin="round">
<g id="ne_50m_admin_0_countries">
<path d="M 597.9674 642.0509 584.1753 670.3286 573.1273 700.1957 568.6467 728.3738 568.8718 757.4412 565.6927 783.6642 560.2154 809.5837 538.507 802.0903 526.7627 783.5034 524.1071 753.015 508.4575 716.1438 502.598 705.5612 480.0237 684.8822 459.5073 674.5264 443.6586 659.2469 445.7421 660.5046 434.0831 639.9526 425.2699 618.0904 407.1919 556.0106 400.9419 540.991 392.5457 527.2633 390.1987 513.7254 393.1888 498.7131 401.2175 476.2967 406.1679 453.6701 402.4525 422.8727 404.1181 392.4004 410.1283 378.8963 514.5644 193.6319 542.6777 154.1782 559.9167 134.8129 574.3104 112.9671 587.9982 85.3142 604.7343 60.0372 616.7022 52.2492 675.6368 29.4687 693.9321 7.767 708.6232 1 725.3223 1.3121 736.1546 11.6065 745.8332 23.8096 755.9545 30.3844 782.1293 42.2088 793.6443 53.707 799 73.6099 783.2282 92.6224 775.4373 109.7258 774.0856 128.5833 777.0987 154.0831 777.6302 179.683 758.0055 239.8904 736.7167 277.4382 731.0206 296.1278 724.6857 342.4517 712.2209 388.9899 701.6178 447.9587 684.152 508.7192 674.1876 534.1359 661.7314 558.4576 631.871 604.4004 597.9674 642.0509 Z M 27.4763 178.3611 36.7407 194.5615 32.5154 204.423 2.5148 198.5965 1 188.8601 12.3455 190.8646 27.4763 178.3611 Z"/>
</g>
</svg>