<?xml version="1.0"?>
<svg xmlns="http://www.w3.org/2000/svg" version="1.2" baseProfile="tiny" width="800" height="1478" viewBox="0 0 800 1478" stroke-linecap="round" stroke-linejoin="round">
<g id="ne_50m_admin_0_countries">
<path d="M 507.0603 883.1081 505.464 893.6077 499.796 889.3623 501.1309 884.0411 503.3449 881.6162 507.0603 883.1081 Z M 489.1757 851.8602 489.5028 854.2709 484.3678 852.4788 482.5741 853.353 476.834 852.7527 473.9595 838.8238 474.3545 835.5449 478.4522 836.5429 484.3371 843.4278 487.3474 848.2127 489.1757 851.8602 Z M 90.6368 1256.0322 89.5903 1263.188 85.5304 1263.0105 81.3992 1267.5187 79.4866 1268.0895 76.1083 1253.4089 79.9586 1232.971 82.0061 1230.0708 84.8699 1235.5654 93.1853 1238.1636 89.6164 1249.9179 90.6368 1256.0322 Z M 264.9382 11.7685 264.185 17.6336 266.5239 18.8584 269.7954 16.1454 273.9961 9.5063 278.5535 5.768 283.4706 4.9229 288.6644 9.456 294.1427 19.3776 299.8056 25.0232 302.4489 25.6392 304.3656 30.1779 304.6458 34.5311 301.9068 43.729 297.2757 54.4351 290.7041 67.6801 292.7892 78.8335 301.6468 87.9451 312.2874 93.3204 323.5748 91.8415 329.5694 89.1255 334.4662 84.8171 339.0233 82.7882 344.7776 82.2476 362.6932 85.4029 368.1464 88.4856 369.0026 94.6579 366.8107 110.542 369.5963 122.2007 374.7116 134.4873 375.3501 145.6983 369.0826 164.2133 363.836 181.7485 358.1663 190.2749 353.7638 195.7626 352.471 199.4868 352.8191 203.005 356.8742 208.2876 361.1777 215.1 362.2635 221.6155 361.8105 229.6293 358.8675 240.6249 347.8635 264.4687 339.1188 285.9984 343.6921 290.3197 352.373 293.4667 358.1219 296.5384 364.1417 294.5673 376.8965 281.8332 387.8761 272.3545 401.4871 262.8848 402.3128 262.0604 414.2211 255.0839 419.6487 248.6882 422.5616 240.543 426.7656 237.3815 432.2454 239.2013 439.1501 235.6462 447.4703 226.7181 453.8714 222.5832 458.3719 223.2497 466.4306 228.7453 478.0763 239.0745 488.4174 245.2054 497.4541 247.1268 501.8895 250.9665 501.7415 256.7275 503.7714 260.3747 508.0082 261.9014 509.8722 261.2699 509.3726 258.4857 513.4064 254.38 521.986 248.9518 530.7157 245.7358 539.618 244.7357 545.3215 240.4351 548.9969 229.3581 554.3776 220.9132 559.228 217.0788 565.2818 215.1219 566.8131 212.4425 563.8247 209.0465 564.0436 205.5725 567.4862 202.0355 574.9945 200.4751 586.5769 200.902 600.1886 204.3646 615.8547 210.8649 626.0793 212.8978 630.8855 210.4693 640.5615 220.6578 655.1285 243.4748 667.591 260.7069 677.937 272.3525 688.7729 281.2541 700.0758 287.4092 708.2911 295.8707 715.9755 312.0332 711.0107 334.616 709.95 354.0914 711.1297 377.993 718.1267 396.2253 730.9629 408.7677 738.4864 418.9479 740.7121 426.7676 750.6366 433.3389 768.272 438.649 775.6581 443.6093 772.8096 448.2369 772.7011 453.544 775.3068 459.5404 781.4909 464.4212 791.242 468.1878 797.0778 472.2454 799 476.5929 798.9538 483.7288 796.9348 493.6393 793.0633 501.3038 787.3387 506.7113 786.7199 510.8947 785.3639 517.2947 785.6313 530.3306 789.9571 538.9332 791.4619 549.9328 789.3563 558.9898 787.5011 577.4334 787.3615 584.5676 785.367 590.7298 780.3484 596.7493 772.6483 602.4645 763.1764 607.5974 757.356 609.9033 755.9985 610.9576 751.8988 616.6134 746.9481 622.1228 743.0186 622.206 740.0325 619.5301 737.9355 616.0313 736.5784 608.3059 727.6804 604.6434 717.938 602.4137 698.2174 606.588 682.254 608.9285 664.2899 606.5933 647.408 610.1667 640.3389 610.7595 632.2066 610.3811 624.3645 610.554 616.878 609.4385 602.9935 604.8654 597.7167 605.3018 586.6081 609.3673 574.9929 612.2656 563.8411 614.2821 547.4133 622.5637 535.5621 634.4114 532.0866 642.7336 526.2109 651.1356 518.0584 664.4306 507.4709 677.1719 500.0603 683.0004 502.1252 686.3847 500.3126 690.5163 488.6748 692.4386 479.6041 693.2393 477.9792 695.3064 479.1804 720.773 482.3988 730.3853 488.3325 741.9681 492.2127 748.3001 495.1584 767.1422 496.1057 783.1242 508.9894 793.1112 516.2931 800.7535 521.492 807.4847 519.7098 811.8248 516.6925 824.7293 519.7663 841.4082 537.8541 877.2071 539.4289 879.7414 537.2968 880.0499 534.4387 873.156 525.2865 861.6003 522.4054 849.1688 511.6646 835.5407 505.6402 830.1358 503.748 834.7079 500.3506 839.6316 489.8313 832.6666 480.8179 825.3464 472.4583 811.1158 471.4176 814.4419 469.5647 817.4581 460.0988 806.2875 450.2088 797.3802 441.3214 794.2204 435.8322 791.2612 430.5515 786.5291 419.4626 781.6309 391.9285 788.8279 356.862 783.356 343.3657 788.6477 337.8345 785.3566 334.4292 779.2247 337.7047 768.7549 338.4546 746.8473 342.6232 731.4419 340.6698 719.7282 342.7133 714.2096 344.2652 706.6783 338.7292 703.5969 314.0396 697.6066 308.8099 692.8504 302.2471 698.2737 272.596 701.2136 261.4191 705.7126 251.054 714.4033 248.3598 725.4892 254.3073 732.8246 258.1038 745.5425 247.3691 773.1921 245.5598 781.4071 249.5836 815.2662 247.8926 833.7988 242.0437 846.1891 232.7947 857.2893 228.9435 876.1614 221.6683 884.8566 211.8935 904.7592 205.2848 929.5569 200.5996 941.0014 197.8241 962.1066 177.7071 993.9308 172.9582 1011.9395 165.7789 1018.6672 168.2732 1024.0727 168.6788 1033.0838 166.1215 1057.0525 165.2334 1076.9173 168.2482 1087.555 177.841 1108.7228 175.5275 1114.7933 174.4133 1123.4567 182.5023 1127.4833 188.2982 1128.7056 221.0749 1119.091 232.1715 1121.7374 236.3378 1131.0377 239.0309 1139.1325 244.5767 1182.699 247.4488 1190.7844 254.0784 1198.5002 261.3402 1206.7001 263.8064 1205.2537 264.2823 1202.2323 264.7388 1198.8358 271.2248 1207.0883 276.2651 1222.4307 293.5982 1303.1103 298.5924 1313.3189 302.7227 1324.0358 292.1969 1318.7762 289.3447 1300.9533 286.3223 1293.4377 282.6033 1292.3139 276.7199 1292.4168 276.3399 1289.2239 280.7454 1283.422 280.0536 1276.4297 274.0124 1270.6554 264.2279 1275.1565 264.4859 1287.702 268.8783 1297.3277 285.4404 1318.8075 290.6286 1327.7718 297.2113 1330.3612 306.802 1328.9815 318.2798 1338.1082 327.3197 1346.5651 349.715 1359.4932 363.2847 1358.1142 377.9518 1354.8903 387.7836 1355.7081 397.4291 1358.9827 408.9796 1369.6655 427.3279 1396.4273 457.2622 1418.477 454.0067 1424.0109 452.6843 1432.4301 440.8548 1443.7199 438.9648 1450.2121 434.631 1458.4394 426.3999 1462.8648 419.3365 1463.7382 415.2589 1462.9807 412.4415 1461.3607 407.6247 1453.6602 405.1851 1451.3041 403.131 1450.7643 388.0561 1456.1645 373.4476 1462.1316 370.7416 1467.4299 366.8535 1473.6064 362.5896 1476.0506 359.2468 1476.6519 356.05 1473.0333 350.44 1468.3221 346.1178 1463.8979 347.2224 1456.7477 355.443 1446.2369 356.5298 1438.8721 355.4841 1426.2274 353.2542 1418.9091 350.8586 1418.648 346.8239 1417.4656 335.4182 1418.632 329.713 1410.367 327.4502 1401.3 323.5493 1398.0414 319.6874 1396.0554 311.1326 1399.1685 304.6127 1397.2734 282.9074 1389.2703 274.5538 1376.454 270.1009 1376.0519 266.1448 1377.451 264.6056 1380.3489 262.3139 1395.0291 260.4479 1399.4963 235.5384 1369.7044 218.3797 1357.3278 220.7652 1335.1821 215.543 1330.8086 209.0557 1330.3118 204.1422 1324.1148 208.4905 1310.9023 201.7542 1313.3631 192.4275 1312.7838 184.8238 1309.0231 179.0268 1290.5893 175.3771 1284.9315 167.4022 1275.1916 156.9093 1275.0478 153.4371 1270.3674 154.2606 1258.4675 146.6033 1251.0445 136.5378 1244.925 128.2289 1241.2897 119.7808 1221.8978 113.1219 1217.0596 107.4614 1213.1186 99.5978 1215.5728 97.0462 1222.4668 91.7981 1229.0906 85.8328 1228.1245 80.3607 1224.181 73.6993 1204.7769 72.5897 1192.9342 74.0685 1170.9405 82.415 1151.3077 86.9507 1119.6632 94.0897 1099.7831 99.0327 1093.0745 105.9178 1065.8145 119.9305 1030.9533 121.5279 1023.4461 124.3661 1015.0376 126.5172 1007.0905 127.2534 994.5144 125.4781 987.8461 125.4909 984.1164 128.445 979.412 138.3882 971.563 152.1202 958.5715 168.4917 940.2095 185.2825 911.8912 193.6409 895.411 197.1493 889.6057 200.8472 887.8133 206.5677 882.1844 210.5115 875.9333 210.7439 872.7632 201.7722 841.6463 195.8751 831.4633 192.9137 819.465 191.359 810.8019 189.2146 802.8347 190.3184 795.3523 187.0723 790.6476 179.7388 784.6619 172.1356 775.8207 167.6502 761.4186 167.6953 753.399 162.8487 746.3352 161.2674 738.9669 164.2331 731.9733 168.1154 725.9392 167.8382 699.2473 166.3529 691.2536 164.5562 676.9737 159.6606 666.1899 152.7241 653.524 144.8513 643.0451 124.1912 623.9956 109.5096 611.2493 102.2886 599.7179 93.1607 586.4293 86.6189 576.8751 78.3532 564.7894 74.2773 548.4087 72.1382 531.0094 73.4864 525.284 77.5469 521.5613 82.8337 518.565 87.0546 517.909 99.1048 510.0659 107.3902 510.837 109.322 509.1365 110.1725 505.5091 109.3119 489.6724 109.927 468.5206 111.6757 451.3162 113.5994 439.9861 135.6567 427.0203 140.3382 421.3658 142.6352 415.2053 142.678 409.7572 140.8895 405.4603 137.6311 403.0638 123.3189 414.287 120.5855 411.7297 114.3256 393.0068 111.603 387.298 107.6702 380.4565 103.4499 370.9017 103.0164 354.4357 100.0154 346.2519 82.703 328.6985 74.9662 319.3015 64.4706 305.7217 51.9142 289.4392 39.1289 274.377 33.2047 264.7779 31.0801 262.6084 30.3998 258.9315 34.5767 248.7336 32.861 238.4371 26.6471 224.6515 24.0585 216.1482 25.063 212.9106 21.9531 211.6039 14.7394 212.2314 7.9294 205.7433 1.5823 192.149 1 189.7649 3.2003 189.8354 11.5064 192.2713 14.3871 191.9518 20.382 188.9125 29.4295 185.7488 34.8011 184.7239 36.5672 183.1205 37.4123 179.8557 33.5664 148.631 34.488 142.1597 43.318 128.8341 42.6524 115.2815 45.3121 95.9085 55.0485 82.7271 62.2633 76.7193 64.7344 67.1847 67.9919 65.1965 73.836 65.9997 85.7907 73.2264 90.95 73.6079 98.3033 73.4742 106.2384 73.0068 109.9325 72.3465 135.3312 65.5563 140.9228 64.8558 146.2384 65.7749 150.1217 65.4668 154.0875 62.2943 156.9609 56.681 160.3939 38.7199 162.2445 35.5595 165.5441 33.015 170.9171 31.3267 177.1677 31.5037 185.3331 34.9994 190.4604 35.1737 196.2835 33.7506 201.2684 31.2972 204.5595 28.1706 206.0923 24.4057 204.8408 17.1479 201.216 8.0452 202.2628 6.9576 209.1106 8.9938 219.1989 11.2545 226.9021 10.7862 231.9488 9.2252 236.8912 4.9504 243.0823 1 249.1176 1.9096 253.7485 5.4836 264.9382 11.7685 Z M 255.9072 1081.4525 254.9452 1083.1037 251.096 1079.9296 248.3536 1076.3492 246.9027 1071.7771 252.8689 1072.005 255.8049 1076.2464 255.9072 1081.4525 Z M 255.5589 1092.4261 256.0108 1098.0388 253.8614 1104.7645 244.7853 1108.645 241.6941 1103.2312 242.5256 1094.9246 243.9245 1092.8481 252.8023 1093.3189 255.5589 1092.4261 Z M 215.168 1391.4331 213.2795 1391.9713 209.5542 1384.1782 214.2352 1372.9472 218.9587 1386.8007 215.168 1391.4331 Z M 108.7474 1253.2517 107.5589 1254.8786 102.5355 1236.0957 109.9579 1241.2295 108.7474 1253.2517 Z M 80.5976 1143.142 74.9825 1144.0866 75.7428 1138.7186 77.2545 1135.3466 79.9805 1134.4866 81.0939 1140.301 80.5976 1143.142 Z M 156.9994 1287.3282 159.5899 1299.077 155.9642 1296.636 152.9651 1291.4845 152.9953 1283.976 153.6916 1282.9366 156.9994 1287.3282 Z"/>
</g>
</svg>