<?xml version="1.0"?>
<svg xmlns="http://www.w3.org/2000/svg" version="1.2" baseProfile="tiny" width="800" height="1688" viewBox="0 0 800 1688" stroke-linecap="round" stroke-linejoin="round">
<g id="ne_50m_admin_0_countries">
<path d="M 110.6166 1522.0209 118.4115 1522.0813 127.0167 1504.6803 156.4191 1498.4032 153.1726 1517.0078 113.5051 1577.3291 88.5101 1553.7347 15.7372 1515.2266 1 1485.4097 25.2082 1462.7757 22.7359 1480.9839 34.8654 1489.2212 75.9114 1492.3583 112.7572 1508.6243 89.9288 1514.0007 110.6166 1522.0209 Z M 781.2853 44.2496 760.1394 78.6457 750.1582 78.0454 725.9961 57.7813 717.1913 44.2045 754.3929 3.9624 773.4707 1 799 14.7912 797.7664 26.4 781.2853 44.2496 Z M 246.4766 1599.0652 243.2939 1687.0544 216.69 1646.6474 213.7607 1627.9216 240.8194 1600.7722 246.4766 1599.0652 Z"/>
</g>
</svg>