<?xml version="1.0"?>
<svg xmlns="http://www.w3.org/2000/svg" version="1.2" baseProfile="tiny" width="800" height="631" viewBox="0 0 800 631" stroke-linecap="round" stroke-linejoin="round">
<g id="ne_50m_admin_0_countries">
<path d="M 782.2104 76.4886 793.2092 91.1269 796.3917 191.3525 799 198.4366 793.2401 199.5918 786.8727 207.3238 779.5146 219.1848 769.1781 225.4013 760.9899 232.3877 753.1887 241.0126 746.1621 242.9028 736.8556 232.1792 730.4238 221.1979 731.9409 218.7887 736.3316 217.9474 737.9653 212.2287 735.198 203.9731 728.9719 200.9398 721.1715 200.7495 713.7732 204.536 705.9624 211.9263 701.5706 219.8322 701.0729 235.6508 703.3572 253.4267 703.4062 262.0551 699.1617 272.827 697.782 288.642 701.0064 300.8347 703.936 308.092 704.2791 314.237 697.0521 333.8344 703.5439 337.4164 724.9592 338.5546 731.3749 351.6954 735.7825 360.6936 734.6793 366.0991 719.599 370.2765 700.5201 374.9135 686.7832 373.7702 662.0963 379.9706 648.9596 389.2404 652.8935 394.9398 657.517 399.3063 659.6706 411.4011 655.9585 428.6464 649.0575 445.4192 640.4637 466.2972 630.5033 490.3054 616.8542 526.3998 605.2442 554.7538 604.0675 575.1326 604.4546 588.4184 603.2258 614.9986 592.1398 629.6685 589.5965 630.1284 576.2528 628.4441 571.7504 627.8812 558.9992 626.2545 539.2169 623.7231 513.5397 620.4076 483.1702 616.4463 449.2789 611.9805 413.0525 607.1477 375.6772 602.1012 338.3046 596.9838 302.1332 591.9728 268.3094 587.2349 238.0582 582.9438 212.4865 579.2946 192.7816 576.4506 180.1129 574.6101 175.6347 573.9682 161.566 571.9132 154.0564 561.9527 144.9935 549.9049 135.9413 537.8444 126.8836 525.7801 117.853 513.7213 108.8334 501.659 99.8088 489.5843 90.8116 477.5156 81.8096 465.4345 72.8353 453.3597 63.8726 441.2731 54.9055 429.1834 45.9662 417.1004 37.0226 405.0145 28.1074 392.9176 19.2044 380.8184 10.2972 368.7257 4.3667 360.6271 1.1625 351.5573 1 327.9534 1.1028 322.8067 7.4287 313.4116 10.2175 320.2663 16.8886 329.6115 28.5518 327.5732 33.9545 329.199 37.3528 361.98 45.6807 373.7599 56.0355 378.5896 91.273 381.7577 113.3181 377.6927 156.8871 356.9104 179.703 349.5069 242.5055 351.4869 292.8462 360.7938 371.3797 366.4804 386.6302 365.1498 429.0251 348.0722 455.0307 332.9364 470.4487 328.5789 480.6245 313.9727 487.312 294.9266 493.2381 282.4761 500.8216 276.5272 508.0339 265.9851 513.7655 248.7984 528.2443 231.4635 586.1112 189.1164 619.7304 153.3699 622.6307 141.8841 640.87 124.5237 655.3994 105.5497 723.4031 51.1211 736.839 28.8012 744.5519 3.8702 745.4821 2.0684 751.3513 1 759.7335 4.6629 760.8536 23.2313 758.107 40.8307 758.0393 59.4419 756.9924 69.5559 763.5036 77.7698 774.3627 81.1871 779.1094 80.7009 782.2104 76.4886 Z M 780.7853 152.0214 781.642 144.1731 779.8608 140.1448 772.7738 139.7026 769.9546 146.491 769.1215 156.223 774.0176 156.9696 780.7853 152.0214 Z M 293.4909 331.6044 281.2035 332.5504 270.0678 325.5426 293.6476 316.4754 300.0474 312.3526 306.9925 303.9062 312.4071 311.2012 306.3011 322.6984 301.8892 327.6013 293.4909 331.6044 Z M 174.7974 325.0421 171.9786 326.3346 169.1546 316.4692 169.4207 313.3583 177.0687 308.9996 181.6494 317.0957 174.7974 325.0421 Z M 392.4177 346.9085 392.4495 353.0774 375.5285 351.2462 370.9849 354.4351 357.1358 352.6016 343.6276 348.0824 352.8362 340.6468 376.8293 331.9614 386.7704 339.9764 392.4177 346.9085 Z M 481.7742 298.5646 480.3195 302.1084 475.6344 301.7924 463.8971 298.5774 460.0872 293.4252 467.4082 287.3084 470.6317 286.9862 475.319 293.4175 481.7742 298.5646 Z"/>
</g>
</svg>