<?xml version="1.0"?>
<svg xmlns="http://www.w3.org/2000/svg" version="1.2" baseProfile="tiny" width="800" height="1650" viewBox="0 0 800 1650" stroke-linecap="round" stroke-linejoin="round">
<g id="ne_50m_admin_0_countries">
<path d="M 54.7826 283.3589 70.5431 367.0182 88.8657 366.845 98.2194 362.3982 109.0142 342.8023 113.8543 312.0085 123.458 307.6162 135.4438 310.9147 130.2289 320.7217 133.691 345.3674 142.9353 358.9966 149.088 361.476 161.3004 425.8807 165.8532 439.3828 165.5494 450.1832 139.7498 474.2217 101.3953 473.4767 74.374 487.8569 57.9263 486.922 58.0858 470.6348 43.4333 457.6918 26.8526 429.9739 30.905 380.7336 1.3185 289.2949 1 266.4351 11.0737 236.5684 20.9719 235.2215 34.4068 260.1421 54.7826 283.3589 Z M 217.038 604.6749 228.2257 610.1866 234.3258 610.2027 237.9396 622.5134 272.6457 647.168 282.2049 646.5091 290.1818 659.971 305.0816 666.8169 309.0415 680.5106 319.6521 694.4768 300.9296 711.2636 264.9806 706.6476 244.2814 725.7169 225.6175 720.781 222.453 710.7266 225.0692 707.3756 214.0129 681.7225 209.0989 642.5463 201.6158 619.4611 193.4753 609.5885 176.5551 618.1785 169.7402 619.6001 153.5821 600.655 161.3172 562.223 165.3528 551.2337 178.5489 549.155 198.4904 559.2992 217.038 604.6749 Z M 466.8169 778.404 473.9841 782.1989 469.9227 792.6289 436.8063 780.4887 410.0565 784.974 402.5965 784.3912 394.7064 774.6806 388.9826 755.532 391.7495 742.1242 403.0735 732.8326 407.2944 731.3257 415.5778 742.9441 423.1759 750.8576 430.5703 754.2802 447.3307 773.2263 466.8169 778.404 Z M 431.4037 666.4294 403.6772 668.861 364.7379 660.7819 349.116 649.7445 342.3759 638.7003 355.9141 630.6142 375.2855 626.8579 399.6391 601.7989 407.9442 611.5022 416.7506 639.7527 426.4492 648.3035 431.785 656.8778 431.4037 666.4294 Z M 464.7747 970.9874 488.3681 1007.0264 497.8446 1009.9144 483.0682 1035.544 452.967 1037.6794 417.5193 1030.8262 430.6281 1022.0656 423.9789 1012.0449 413.2629 1009.9727 400.9146 1014.6834 395.1966 1013.0324 403.2038 996.5147 423.1931 973.289 429.0631 971.4745 434.3782 971.2572 439.5312 973.3282 464.7747 970.9874 Z M 339.1465 438.1299 322.7356 449.6687 292.5067 448.4301 281.3184 441.8384 318.5527 406.6745 361.5889 399.5932 339.1465 438.1299 Z M 411.7414 573.737 407.6813 574.0344 403.6541 562.3772 390.3249 500.368 399.7066 445.0015 405.3665 456.7718 425.2188 554.0577 422.3285 569.947 411.7414 573.737 Z M 407.0327 411.3663 402.7218 427.0063 392.7378 408.8102 386.7682 332.2717 389.4311 325.1956 394.6811 324.6833 406.6906 378.0059 407.0327 411.3663 Z M 170.1576 510.5179 165.7215 517.0843 139.9089 500.6413 145.8546 484.7818 173.9539 490.5067 170.1576 510.5179 Z M 260.489 140.4944 250.2542 153.2772 222.5657 148.9666 216.0128 145.5643 217.8315 124.3039 224.7944 116.9891 241.3394 110.3975 263.9939 120.9968 260.489 140.4944 Z M 237.1708 50.9812 233.5684 53.4628 227.89 51.4951 213.3954 20.8723 217.1104 10.6909 235.3673 1 251.5934 18.0323 253.1046 27.4648 252.9641 35.4852 250.4524 42.4118 239.5824 45.2625 237.1708 50.9812 Z M 799 1635.4023 790.4127 1649.0228 777.7083 1648.75 761.5929 1638.9522 764.9698 1626.8578 783.5488 1624.8746 788.9019 1625.7188 799 1635.4023 Z M 707.0441 1473.8114 694.0189 1500.8072 672.5732 1494.3425 652.7384 1474.6206 642.5215 1457.4204 650.2051 1424.6139 660.6571 1418.9597 671.4355 1420.9189 676.3512 1453.0383 707.0441 1473.8114 Z M 672.6199 1323.6543 661.4509 1335.6644 651.9086 1334.2713 590.2217 1305.7802 593.0001 1294.2537 590.879 1264.7745 597.9632 1248.8127 615.2523 1242.3517 628.5439 1245.8554 636.3151 1269.4889 654.6734 1279.2237 641.5402 1287.2201 663.8577 1305.1998 672.6199 1323.6543 Z"/>
</g>
</svg>