<?xml version="1.0"?>
<svg xmlns="http://www.w3.org/2000/svg" version="1.2" baseProfile="tiny" width="800" height="690" viewBox="0 0 800 690" stroke-linecap="round" stroke-linejoin="round">
<g id="ne_50m_admin_0_countries">
<path d="M 740.3243 181.5601 733.3478 183.5759 733.4322 181.9736 735.2581 179.1838 738.8827 178.3742 740.2338 177.4148 742.5409 176.758 743.8661 176.8621 745.2241 177.6378 742.0762 179.2241 740.3243 181.5601 Z M 560.8814 63.2193 562.8577 71.0037 562.2969 72.4661 557.027 77.7402 552.5598 78.1261 548.9571 77.9452 546.2085 76.9296 542.6571 73.5119 539.2467 74.5419 530.7766 73.3645 528.4179 72.1702 531.5458 67.973 537.3536 66.2716 539.4749 65.9226 541.199 68.4936 545.4619 70.7123 550.4376 70.9323 551.6314 66.9599 558.2844 61.0647 560.8814 63.2193 Z M 480.6491 76.7006 477.4716 78.0438 471.6288 76.7063 468.7032 74.8306 470.552 72.6844 475.3262 72.6817 479.8121 75.2815 480.6491 76.7006 Z M 730.3033 197.8661 726.6964 199.1111 726.0532 193.1072 727.118 191.4788 733.2065 186.6026 734.8799 185.675 736.1382 186.6799 735.8511 187.9683 738.8514 190.1115 738.1864 192.8766 735.0306 195.9162 730.3033 197.8661 Z M 787.7524 216.3952 798.8115 230.8393 799 232.4412 797.8644 234.2769 791.2082 237.7666 789.7368 239.5542 787.4268 246.0732 779.0089 249.732 773.2146 254.2665 769.3197 258.231 767.3704 259.8331 759.6199 260.7846 757.1605 263.2797 754.1242 270.731 751.8654 273.8578 747.8656 277.5434 747.8609 279.7789 753.5569 287.8351 754.5953 290.3716 752.9092 294.2467 753.1116 296.9746 756.0843 300.2316 759.6049 300.9383 762.9948 299.5258 767.2374 299.593 770.0127 300.4305 771.1685 301.3761 771.3997 303.888 769.7109 309.2559 767.2434 312.7371 756.1237 318.1757 751.1793 321.3058 748.4551 323.5992 742.4048 322.4649 739.3248 322.5967 736.9801 324.3722 735.5611 325.8932 731.5051 326.3118 725.7692 327.2952 723.3774 328.3351 721.5398 330.9753 720.0216 334.7496 721.3577 339.2373 723.1916 343.2286 723.1479 346.917 724.6187 357.1513 722.8255 359.5686 718.9883 362.3315 714.4143 367.1727 709.2857 373.8849 710.1249 375.7821 722.572 389.5818 735.2066 403.5959 747.7368 417.4959 749.513 418.0958 751.8699 419.6851 754.0623 424.577 755.8755 429.7737 755.923 432.4762 754.5416 435.8972 751.5255 439.8592 747.856 443.0875 742.4735 445.8625 738.1927 448.4665 734.6661 455.2243 732.5252 457.6169 730.5562 458.6003 726.6578 459.5392 720.3472 459.4392 716.1761 458.9767 711.0198 464.0708 704.4113 466.0107 699.9926 472.9173 684.2126 478.5744 668.7511 483.0166 664.5051 484.7433 649.2012 481.4542 645.5192 482.5891 641.2729 485.8818 637.3559 488.4427 634.0475 488.6397 631.2619 489.9716 629.604 494.6287 628.1284 510.6163 622.6196 515.4258 615.9622 515.4735 611.3941 510.0008 605.9716 505.88 596.5121 496.0653 593.8875 494.7972 591.4314 494.8821 582.6449 497.9046 578.4706 496.6657 575.104 495.1527 569.4786 495.6939 559.4441 495.8881 553.0476 496.0297 549.9394 493.3402 547.0437 487.8176 545.0924 485.8452 542.8046 484.2606 539.0186 483.4779 522.8409 483.5946 519.7927 483.617 517.5551 482.5607 514.4436 477.8174 511.0394 475.5973 507.0553 475.5192 505.3039 478.1505 512.2221 486.6871 514.2377 491.319 520.2999 497.9938 537.8392 512.0707 541.0847 516.5486 540.7243 522.2973 540.6151 531.0867 541.2009 539.3923 545.696 551.2654 552.009 563.3185 553.7158 571.011 552.5266 576.712 551.3162 579.749 551.4477 581.0957 552.7422 582.3019 558.7646 583.9964 571.4153 584.9696 579.0599 584.8984 590.7228 586.0791 591.5693 590.3063 590.4066 597.3036 588.0906 601.2921 586.2125 602.4688 579.8598 603.4568 573.1639 607.808 563.4491 612.1294 557.9077 612.7566 555.596 613.6036 553.6359 614.8886 552.0193 616.5078 550.105 624.4365 547.2171 633.3851 541.807 638.7257 535.8623 643.148 529.8244 643.6907 524.9854 643.3792 522.5743 644.6795 519.087 648.304 514.1043 652.8123 510.2612 655.2215 505.0896 655.0296 499.569 657.2616 492.5893 660.9019 487.9613 663.8833 484.0073 668.9462 478.3496 674.2722 472.5439 678.0036 469.7593 682.5956 465.7899 688.4198 460.8426 688.6267 460.4502 685.1427 462.8345 679.5165 460.2658 674.6763 455.5586 672.09 453.3575 671.3271 451.161 671.6501 445.5763 674.0534 438.7133 678.4108 434.4926 681.5437 430.6768 682.9772 422.8239 684.2724 416.2112 684.9342 413.4892 684.0401 408.5703 680.8424 397.1969 670.8262 381.7878 657.2192 380.6153 653.2826 381.2713 649.2603 378.4692 643.3747 376.828 637.1076 375.4349 634.9453 375.0336 630.2578 371.6795 621.7973 368.9331 614.8603 366.4163 611.3286 367.4695 608.3295 366.4086 605.3239 364.3644 602.8688 361.3704 594.9783 362.4236 591.5853 361.6259 588.1775 359.1101 585.8339 355.5367 583.3106 350.771 578.0479 345.0776 573.0433 342.1643 571.0602 340.1809 570.2658 338.4563 565.5344 337.134 564.0834 334.2231 563.675 328.2718 561.6703 322.7226 563.9979 322.5889 560.3246 324.1723 558.1025 343.3413 540.6642 353.0113 532.6287 354.051 531.4409 354.8971 529.5726 355.5583 527.0733 353.3619 524.203 344.2961 510.5738 341.1485 508.0036 338.063 505.8972 334.5174 500.1672 330.276 486.8353 327.2256 480.1244 326.3017 474.985 326.4972 469.179 325.3662 464.7116 322.9114 461.5899 322.9181 452.0692 325.389 436.1411 326.0092 424.0165 324.7796 415.713 326.9752 409.4031 332.6041 405.0927 335.7522 398.406 336.4227 389.3395 339.8011 381.8983 345.8838 376.0821 347.9629 370.3297 346.0421 364.6427 345.4259 360.9934 340.2767 357.2668 330.7559 354.6297 322.8527 354.3009 318.0755 357.1709 305.85 359.7921 286.1882 362.1552 270.3768 362.0435 258.4068 359.4694 249.2945 360.2364 243.0416 364.3463 238.6496 365.2526 236.1177 362.9518 233.3665 362.3037 229.1875 363.7155 228.4698 363.0513 219.2713 351.7452 210.7642 341.2665 201.035 328.793 189.8276 314.3912 187.8105 313.4303 184.3195 313.4933 179.7013 313.6983 172.5324 312.1487 167.6345 310.0263 163.8181 307.9815 156.7834 305.3738 151.9442 304.8887 147.5999 305.5935 135.612 310.4654 128.8178 310.8549 123.5689 310.8875 109.5352 308.2551 99.9328 307.7485 88.7617 309.2373 83.9877 310.1055 77.3547 307.4845 72.8672 303.5737 68.7595 294.3588 65.8826 287.0963 60.739 285.5769 55.0345 284.2724 52.2573 281.8527 50.6332 277.6759 50.3094 272.3435 51.0317 263.6851 51.6242 260.5841 52.5662 251.2392 55.8069 246.391 57.8281 244.0427 57.5164 240.1187 56.1404 232.0656 54.7233 226.3697 48.5149 219.8601 40.591 211.5324 37.3943 198.3116 33.6526 182.7095 30.4759 181.1179 27.4404 181.8702 24.2493 181.0592 21.5722 174.7844 18.7752 173.5881 14.2181 175.737 10.9323 177.4139 2.652 178.8953 1 177.3165 1.6154 175.3734 5.2421 169.7391 9.5259 162.5371 14.4635 155.9685 19.0749 149.2453 22.571 142.0742 25.2125 127.7826 27.0411 117.927 31.6274 100.4067 39.5108 86.4534 42.52 80.0277 49.533 71.6869 52.7843 67.1545 57.0208 63.598 68.5173 58.7762 82.8152 34.8348 86.046 31.0352 99.8791 27.4964 110.5243 24.7295 118.4423 21.823 121.0602 20.279 123.1481 19.5646 121.3579 22.3362 117.5011 25.8603 113.182 28.0042 91.1204 33.3556 88.8504 34.4955 85.9411 36.736 85.7706 41.8858 86.2414 45.9309 92.3068 59.2218 94.7344 62.5066 103.1965 69.7461 101.2 70.7356 98.0054 70.8454 100.0974 80.3045 105.2564 86.8197 105.3921 90.9139 100.9954 103.6036 93.3558 111.1724 87.8551 120.0006 83.6613 123.5021 74.1469 140.8763 80.8364 151.3076 81.7048 156.5842 87.5357 164.1276 91.4002 166.6186 93.9503 169.6668 92.6475 174.7835 94.9081 181.7455 97.9482 185.4414 101.8358 186.9415 106.6711 186.9584 120.6891 182.4317 124.0305 180.3709 126.2032 176.6731 133.326 169.1906 133.9375 159.4672 135.6602 147.814 134.1115 140.191 127.0129 129.3188 123.9735 121.6046 116.8937 114.4031 112.75 102.1422 111.0154 98.3264 109.7717 93.0474 108.4507 83.7129 113.3719 80.3488 113.0766 72.713 125.0173 70.6557 151.0744 58.3287 167.1296 55.2282 185.5009 48.6435 189.7959 45.383 193.5684 39.949 196.4122 39.3285 205.8293 44.449 210.5651 42.6835 212.5005 38.7048 210.0554 30.9446 204.5988 30.9333 188.1377 33.7225 186.6059 30.3863 186.6742 27.4706 183.0108 18.233 185.571 11.2886 188.1547 5.6847 192.8939 3.4308 199.8042 1 204.9318 4.7432 208.0129 8.3166 209.6587 11.7836 210.6407 21.1804 213.2633 30.7149 216.0854 37.3517 220.6856 42.3619 224.3006 42.0403 226.892 41.2095 244.0562 40.1107 254.4248 43.537 267.6826 45.2967 280.0161 52.5914 292.7004 61.4437 295.8946 67.8933 296.9113 74.0675 299.9757 78.2058 296.8318 82.4559 298.4363 89.5876 302.0373 96.7771 307.5529 101.3553 323.3917 102.6157 340.5703 99.5484 367.0798 96.7826 375.6209 94.3825 419.5131 93.1073 427.8784 96.5534 428.692 99.9947 428.7914 102.6362 442.9453 115.5189 454.5585 117.2694 464.4381 121.4008 474.6388 123.6141 485.8112 126.738 492.0802 126.3357 496.7702 125.2294 502.3113 125.0378 541.3179 103.4386 562.2528 103.9532 565.4602 102.5481 568.2206 100.6595 560.4735 97.4038 543.0477 96.1748 537.7791 98.3757 534.7392 92.8467 540.4196 92.9866 559.7734 91.0947 581.9719 92.2748 599.9695 88.2988 609.0302 87.6244 614.2538 88.3891 628.5506 85.8034 655.543 88.7207 676.692 86.1823 674.3169 89.7391 667.4047 91.913 656.1623 92.6282 647.644 97.8516 629.2446 96.9467 616.3566 98.8639 620.5253 100.3012 620.6019 105.6351 622.385 106.7061 624.2472 106.7412 628.7095 110.6803 629.9505 113.2616 631.4558 118.7088 629.6005 124.6052 626.9398 127.2437 632.1841 126.3572 635.1215 123.5777 634.6432 120.7997 635.03 117.5784 637.9905 118.5749 640.0804 120.0211 647.0277 135.4086 651.8829 143.4891 653.0887 143.1769 654.2085 142.8854 655.5893 141.3274 657.6184 137.5082 659.4599 139.9163 660.5581 140.8376 661.6547 141.1277 660.6044 137.679 661.8724 133.2513 661.3857 131.7086 663.4733 131.3638 665.9766 131.9397 669.5491 133.1414 675.9596 138.181 680.2299 143.4145 680.6381 146.3453 682.177 147.9853 684.9387 149.7064 686.3213 152.4107 686.4932 148.144 684.8318 145.0445 684.3747 141.4954 692.5958 141.2959 694.6455 136.6179 699.1735 139.4052 711.2721 152.1597 715.6895 154.2533 728.6345 156.6342 736.8762 162.7456 741.7395 168.2476 739.028 174.0729 731.4963 177.028 728.5219 180.6763 726.8383 184.2492 726.8738 187.8338 724.6439 192.0121 724.3267 193.4799 723.0504 199.3586 720.0357 206.4528 715.9741 213.983 694.1825 214.3219 699.6191 217.3612 704.6028 219.5705 712.821 225.403 719.2149 220.7192 728.4489 220.3111 738.3511 215.0893 742.0916 214.2582 760.7756 216.7788 765.192 212.966 768.9113 211.8234 778.9681 212.4323 787.7524 216.3952 Z"/>
</g>
</svg>