<?xml version="1.0"?>
<svg xmlns="http://www.w3.org/2000/svg" version="1.2" baseProfile="tiny" width="800" height="689" viewBox="0 0 800 689" stroke-linecap="round" stroke-linejoin="round">
<g id="ne_50m_admin_0_countries">
<path d="M 572.7798 521.7349 562.974 521.6812 545.7149 521.5909 527.7958 521.5107 511.3874 525.07 497.8605 530.587 481.7566 539.2571 476.4941 542.6653 472.4263 545.2918 469.8718 548.6695 468.5521 556.0998 468.4785 567.5705 466.8063 575.8183 461.8987 583.3563 461.9053 583.3427 437.5692 592.4325 421.6641 599.88 406.0797 608.6981 394.2722 620.1496 386.2397 634.2145 372.9481 651.6127 359.4752 666.6713 345.1996 682.6648 329.1756 688.4604 315.684 687.1818 299.3565 680.7659 286.4276 679.5941 276.9103 683.662 268.0671 682.4617 259.8768 675.999 253.0546 673.669 247.5891 675.4591 240.5734 675.1927 227.6771 671.6919 216.3947 660.7173 210.2914 656.1886 205.6437 654.4785 192.3354 652.7939 161.8464 650.4982 158.6908 651.1165 146.1272 653.409 130.4549 656.2858 117.0191 659.1462 102.9539 662.1534 89.4691 650.7874 74.1613 637.8894 58.2612 623.493 46.2771 612.2001 40.3508 605.6787 29.8767 597.1106 22.4062 592.9593 19.4816 590.8546 11.4045 567.7287 6.6982 546.4146 6.1723 530.2894 5.4601 507.9119 4.7752 485.5141 4.1177 463.0993 3.4877 440.6709 2.8854 418.2323 2.3044 395.7869 1.764 373.3308 1.2452 350.8816 1 339.9791 16.4683 339.6035 34.0333 339.1958 52.4355 338.7901 72.4824 338.3728 92.569 337.9804 112.693 337.6131 126.7537 337.3717 130.436 337.1186 134.875 336.3602 135.1885 334.1402 129.2153 323.1523 129.4394 319.2342 130.8894 311.6898 133.2066 305.1664 136.2656 296.5818 136.5547 291.5606 133.7945 275.2688 133.9195 266.1583 134.5698 256.685 135.1827 247.7079 134.2358 241.4778 135.2788 238.052 137.1274 233.1482 138.0713 227.6325 139.2345 225.2454 138.8527 223.0644 137.732 218.9899 136.5833 209.8533 134.9773 197.1585 133.4071 188.0276 135.8882 188.4919 141.0706 189.261 143.6205 193.6991 145.1259 198.5885 148.5949 198.8059 157.7007 201.5698 160.87 205.5818 163.0371 214.3161 161.8203 218.829 158.927 222.5157 161.8818 225.6747 167.9673 227.7173 171.5169 227.0177 181.717 220.8665 185.8099 219.7446 191.1619 218.5029 195.9843 216.8875 209.6252 213.9637 217.0923 212.6693 221.2767 210.4749 224.2149 210.4386 226.3256 212.1307 224.4736 218.3611 223.8799 223.9412 226.5647 234.3262 228.5687 239.1808 232.9831 242.6733 236.193 244.4813 239.7843 248.2056 247.122 247.4779 263.3664 252.6569 268.3049 255.0824 275.1491 257.4737 279.9926 258.3543 296.724 260.1063 302.9206 261.329 314.3918 262.9639 323.5623 263.1913 330.0504 262.4064 334.6157 260.8633 337.3937 259.15 338.6806 257.7038 340.5436 252.4814 343.9482 241.1699 345.2799 237.8045 348.6748 236.2363 353.0672 235.2009 355.6342 237.011 358.527 249.5364 371.3192 260.8268 375.6912 270.322 378.8899 278.4488 381.6728 280.6781 386.5243 283.47 394.2625 284.4565 401.1808 284.7392 415.7165 290.6111 427.2912 295.3024 435.5606 298.6607 439.3465 301.2063 441.9869 305.3917 443.5554 308.6261 446.0619 316.9976 448.7649 323.6183 453.1901 324.8983 457.1345 325.4216 461.0376 329.9529 463.9761 333.938 469.8078 343.642 474.0868 350.3641 475.468 356.8806 480.3731 361.2494 487.025 363.1335 493.196 363.3952 496.754 361.4781 505.5376 358.159 512.3752 354.3434 517.3598 353.0393 520.2921 353.879 522.536 356.5691 523.6852 361.8142 523.9435 364.7298 528.7649 367.5435 532.3618 366.4661 533.7615 363.2894 533.8547 361.6686 533.9544 347.4399 534.0359 335.1015 534.1024 323.4926 534.191 309.3446 534.2699 297.0195 534.3249 286.8664 534.3806 276.2767 531.2543 276.8521 527.2856 279.2259 518.2089 279.4379 514.6591 281.2218 513.5311 283.9315 514.2148 287.5 514.3681 292.3213 513.0284 294.5839 509.0434 295.4536 503.3036 293.5514 492.8443 291.0505 484.1395 289.4937 477.9195 283.0585 469.4698 273.3609 463.9448 268.4672 450.567 258.3492 448.2997 256.3095 444.2422 251.5812 440.7674 243.5772 439.0683 238.2699 437.4467 234.3218 435.6525 228.4404 438.9056 219.4225 443.4947 202.2634 446.8048 189.9125 448.6342 180.7519 455.1849 171.4592 455.6589 163.1304 453.0465 152.4296 453.731 146.5344 454.1933 131.5762 454.5831 119.0107 454.6727 112.9089 452.8965 102.2764 448.5044 90.5064 438.8055 74.1196 438.8419 70.6314 444.6329 66.8066 453.7938 60.1002 458.2802 56.1241 463.654 50.4632 466.0638 47.5926 471.3309 40.3363 474.6765 34.454 475.8396 26.8251 473.3302 19.5621 478.4636 18.18 495.3118 15.7479 513.8683 13.096 533.3993 10.3322 553.1043 7.586 572.1718 4.9604 589.4435 2.6078 601.3838 1 603.1386 6.0037 606.8365 14.3253 611.0463 20.4868 616.2898 25.9173 620.7563 29.2259 623.7089 30.2678 642.5543 30.3132 649.3168 33.6944 655.1812 37.9233 656.6273 44.325 660.4908 48.4073 664.6498 51.6474 666.4554 52.0733 669.523 51.3737 674.5468 51.4229 679.2019 52.8968 681.422 54.3476 681.62 59.6949 683.0261 62.1204 689.3679 63.1996 695.8219 63.7714 702.0295 67.5429 708.7475 68.3577 716.509 70.0484 720.1638 74.045 728.4062 78.2698 738.4766 82.1323 745.7035 86.3939 749.5411 88.3435 749.7609 90.189 751.621 93.7189 753.5599 96.278 753.6854 99.9758 754.6014 103.4132 757.4323 104.3416 759.7833 104.627 761.9757 102.2284 764.9295 102.3772 768.1486 104.0434 769.2689 108.0156 771.7528 113.3974 775.8159 117.1427 778.5285 120.7197 777.5315 127.0575 775.7445 132.8328 781.2382 138.7544 788.384 144.4444 790.3043 146.9314 790.8021 155.0682 791.8589 157.8628 796.67 164.7714 799 169.3313 798.8033 171.9265 785.524 184.9326 781.3468 186.1107 777.4056 186.7599 773.8469 189.4216 771.6853 192.2194 772.4383 193.7514 773.7645 198.3968 776.7351 205.7309 779.4407 210.8801 777.0376 217.1763 771.6745 227.8337 769.254 228.7304 768.7047 236.8999 770.2547 239.9285 772.8018 242.3357 773.7689 247.9284 773.7262 255.5566 773.3492 261.7105 769.8082 277.3119 775.4777 291.1449 777.4608 292.6912 785.6202 292.9959 787.0025 294.1996 784.9736 298.0406 781.3674 301.9383 779.1295 303.9385 768.6521 308.3476 753.6178 313.1672 750.4014 318.0591 748.2744 325.2283 749.8725 329.4923 751.8118 331.9784 751.0463 338.2557 749.6153 344.8681 749.9519 350.1035 749.1825 354.7195 747.186 356.9484 744.4307 363.8706 741.0697 370.8091 738.4625 373.9588 734.6504 377.2151 728.6735 379.9096 728.7569 381.308 735.3964 384.6786 737.0759 386.9509 737.6672 388.4893 736.1986 389.9454 734.7963 391.9917 737.8343 394.1947 741.5661 396.0766 745.0289 400.8072 748.0522 407.3828 748.9166 409.6788 749.6225 410.5893 750.7717 410.7221 753.0119 409.81 757.1963 406.3321 760.2019 405.1158 763.6771 410.2641 749.1871 414.9798 741.5803 417.4563 719.8543 424.5548 700.8726 430.7749 695.9401 431.9387 686.0894 434.9838 681.1782 436.8653 664.0068 442.3333 656.8163 445.0807 651.0212 447.8369 636.8175 451.8967 623.4027 455.7252 608.7595 459.6742 592.3397 464.1183 583.1158 467.3513 576.8779 470.1713 562.3003 475.855 561.6017 477.2684 561.7702 481.2259 563.5025 489.4046 567.0225 496.849 569.9993 501.1426 571.8243 512.109 572.7798 521.7349 Z"/>
</g>
</svg>