<?xml version="1.0" encoding="utf-8"?>
<!-- Generator: Adobe Illustrator 23.1.0, SVG Export Plug-In . SVG Version: 6.00 Build 0)  -->
<svg version="1.1" id="Layer_1" xmlns="http://www.w3.org/2000/svg" xmlns:xlink="http://www.w3.org/1999/xlink" x="0px" y="0px"
	 width="395.26" height="251.13" viewBox="0 0 395.26 251.13" style="enable-background:new 0 0 395.26 251.13;" xml:space="preserve">
<g>
	<path d="M351.34,216.75c0.72,1.07,1.96,1.25,2.48,2.2c-0.05,0.08-0.11,0.15-0.16,0.23c-0.84-0.44-1.66-0.94-2.54-1.3
		c-0.72-0.29-1.49-0.49-2.26-0.59c-2.49-0.34-4.87,0.2-7.25,0.91c-1.39,0.41-2.74,0.9-4.09,1.43c-1.35,0.53-2.76,0.92-4.26,0.77
		c-0.47-0.05-0.95-0.01-1.43-0.01c0.02,0.55,0.92,0.72,0.46,1.42c-0.79-0.38-1.56-0.87-2.4-1.11c-1.3-0.38-2.59-0.72-4.04-0.37
		c-1.13,0.27-2.39,0.12-3.58,0.01c-1.51-0.14-3.01-0.38-4.54-0.46c-1.76-0.09-3.5-0.53-5.26-0.64c-1.08-0.06-2.16-0.59-3.32-0.15
		c0.16,0.66,0.33,1.31,0.49,1.95c-0.08,0.05-0.17,0.09-0.25,0.14c-1.09-1.62-2.52-2.87-4.25-3.65c-1.71-0.76-3.56-1.09-5.37-1.57
		c-0.03,0.08-0.05,0.15-0.08,0.23c0.53,0.31,1.06,0.63,1.65,0.98c-0.33,0.38-0.55,0.5-0.96,0.4c-1.59-0.39-3.2-0.73-4.8-1.08
		c-2.43-0.53-4.45-1.9-6.51-3.16c-0.98-0.6-1.96-1.11-3.1-1.36c-0.79-0.17-1.54-0.49-2.4-0.59c0.27,0.31,0.54,0.63,0.84,0.98
		c-0.13,0.12-0.26,0.24-0.5,0.47c-1.45-1.39-2.87-2.74-4.27-4.1c-1.16-1.13-2.32-2.27-3.46-3.42c-0.72-0.72-1.42-1.46-2.13-2.18
		c-0.38-0.38-0.71-0.86-1.16-1.1c-0.53-0.27-0.71-0.68-0.9-1.17c-0.13-0.36-0.25-0.74-0.48-1.04c-0.96-1.22-1.95-2.41-2.99-3.68
		c-0.27,0.61-0.51,1.15-0.87,1.96c-0.36-0.74-0.65-1.23-0.83-1.75c-0.61-1.76-1.4-3.38-2.62-4.82c-0.88-1.04-1.47-2.31-2.26-3.43
		c-0.77-1.09-1.65-2.1-2.46-3.16c-1.28-1.67-2.77-3.2-3.15-5.43c-0.11-0.65-0.6-1.28-1.02-1.84c-1.48-1.98-2.86-4.02-3.76-6.35
		c-0.14-0.36-0.45-0.65-0.63-1c-0.88-1.75-1.66-3.53-2.25-5.41c-0.47-1.52-1.19-2.98-1.92-4.41c-1.4-2.73-2.25-5.65-3.04-8.59
		c-0.72-2.68-1.36-5.37-2.04-8.06c-0.09-0.38-0.16-0.76-0.25-1.22c-0.41,0.07-0.8,0.14-1.27,0.22c-0.03-0.54-0.06-1.01-0.09-1.48
		c-0.89-0.27-1.33-0.95-1.42-2.07c-0.06-0.7-0.16-1.41-0.3-2.1c-0.34-1.65-1.47-2.92-2.19-4.38c-0.4-0.81-0.88-1.58-1.32-2.36
		c-0.09-0.16-0.19-0.32-0.4-0.68c-0.08,0.57-0.12,0.92-0.19,1.39c-1.18-1.11-2-2.48-3.56-2.94c-0.2,1.04,0.17,1.96,0.39,2.94
		c0.32,1.4,0.8,2.81,0.63,4.31c-0.07,0.67-0.72,1.23-0.1,2c-0.09,0.04-0.18,0.08-0.26,0.11c-0.77-0.18-1.55-0.37-2.34-0.56
		c0.1,1.13,1.33,1.2,1.81,2.08c-1.01,0.16-1.92,0.3-2.94,0.46c0,0.74,0,1.48,0,2.3c-0.34-0.09-0.56-0.15-0.86-0.24
		c-0.04,0.27-0.13,0.53-0.1,0.77c0.22,1.49,0.23,3.05,0.95,4.41c0.52,0.98,0.84,2.19,2.1,2.57c-0.02,0.95-0.68,0.43-1.21,0.45
		c0.21,0.35,0.36,0.6,0.52,0.88c-0.11,0.46-0.39,0.6-0.92,0.31c0.38,1.6,1.08,2.97,2,4.23c1.46,2,2.98,3.94,4.45,5.94
		c0.74,1.01,1.43,2.06,2.12,3.1c1.35,2.05,3.18,3.65,4.9,5.35c1.57,1.55,3.22,3.02,4.61,4.77c0.96,1.2,1.57,2.5,2.08,3.92
		c0.35,0.95,0.93,1.82,1.36,2.74c0.23,0.49,0.52,1.02,0.5,1.53c-0.09,2.53-0.1,5.07-0.81,7.56c-0.55,1.91-0.87,3.89-1.33,5.82
		c-0.28,1.18-0.68,2.33-0.96,3.5c-0.5,2.09-1,4.18-1.39,6.29c-0.17,0.9-0.05,1.86-0.05,2.79c0,0.39,0,0.78,0,1.37
		c-0.39-0.31-0.62-0.49-0.86-0.68c0.02-0.02-0.05,0.02-0.06,0.06c-0.24,1.35-0.48,2.72-0.82,4.01c-0.43,1.66-0.18,3.38-0.79,4.99
		c-0.27,0.71-0.21,1.55-0.33,2.33c-0.14,0.93-0.3,1.85-0.46,2.78c-0.01,0.08-0.04,0.18-0.01,0.24c0.5,0.97-0.07,1.93-0.02,2.9
		c0.02,0.31-0.08,0.63-0.09,0.94c0,0.45-0.03,0.92,0.06,1.36c0.16,0.77,0.29,1.47,0.1,2.3c-0.23,1.03-0.11,2.15-0.06,3.23
		c0.09,1.72-0.27,3.38-0.51,5.06c-0.06,0.41-0.32,0.8-0.46,1.2c-0.71,2.06-1.96,3.79-3.38,5.4c-0.24,0.28-0.64,0.43-0.98,0.61
		c-1.14,0.6-2.14,1.37-3.15,2.16c-0.38,0.29-0.9,0.43-1.38,0.55c-0.95,0.24-1.91,0.45-2.87,0.61c-1.54,0.26-3.08,0.06-4.6-0.01
		c-0.42,0.19-5.88-0.6-6.73,0.1c-1.34-0.06-2.73,0.18-4.09,0.66c-0.29,0.1-0.63,0.06-0.94,0.09c-0.62,0.07-1.25,0.16-1.87,0.22
		c-0.55,0.05-1.13,0.14-1.53-0.42c-0.5,0.45-0.93,0.59-1.58,0.15c-0.59-0.41-1.42-0.26-2.13-0.59c-0.4-0.19-0.89-0.29-1.25-0.57
		c-1.17-0.9-2.45-0.78-3.7-0.38c-0.95,0.31-1.73-0.03-2.45-0.44c-1.19-0.68-2.33-1.45-3.4-2.3c-1.48-1.16-3.09-2.21-3.8-4.12
		c-0.19-0.49-0.61-0.9-0.92-1.35c-1.98,0.51-3.88,0.12-5.8-0.47c-0.32,0.47-0.63,0.91-0.95,1.39c-0.15-0.06-0.29-0.11-0.43-0.17
		c-0.57,0.47-1.15,0.94-1.73,1.41c-0.09,0.07-0.19,0.16-0.3,0.18c-1.11,0.19-2.11,0.95-3.32,0.65c-0.13-0.03-0.27,0.02-0.41,0.03
		c-1.22,0.1-2.45,0.19-3.67,0.29c-1.13,0.09-2.14-0.46-3.21-0.65c-0.96-0.17-1.9-0.51-3.01-0.15c-0.29-0.31-0.63-0.68-0.99-1.07
		c-1.27,0.38-2.58,0.54-3.99,0.25c-1.15-0.24-2.39-0.06-3.59-0.05c-0.8,0.01-1.57-0.03-2.24-0.55c-0.17-0.13-0.51-0.23-0.66-0.14
		c-0.65,0.38-1.27,0.06-1.89-0.03c-0.78-0.11-1.55-0.22-2.59-0.38c-0.53-0.77-1.44-1.65-1.78-2.71c-0.49-1.52,0.01-3.04,0.84-4.43
		c1.12-1.87,2.43-3.69,3.2-5.71c0.6-1.59,1.67-2.81,2.49-4.2c0.44-0.74,1.31-1.23,2.04-1.77c0.88-0.65,1.75-1.35,2.73-1.83
		c1.08-0.53,2.19-0.98,3.52-0.63c1.36,0.35,2.79,0.45,4.17-0.12c0.14-0.06,0.31-0.07,0.47-0.05c0.19,0.02,0.37,0.08,0.41,0.09
		c1.64-1.31,3.18-2.6,4.79-3.8c1.32-0.98,2.72-1.84,4.07-2.78c0.35-0.24,0.66-0.56,0.94-0.89c0.48-0.57,0.88-1.21,1.38-1.76
		c0.76-0.85,1.12-1.85,1.21-3.07c-0.18,0.06-0.34,0.12-0.51,0.15c-0.18,0.03-0.37,0.02-0.66-0.15c0.44-0.4,0.93-0.75,1.31-1.2
		c0.37-0.44,0.63-0.98,0.9-1.42c-0.46-1.47-0.33-2.81,0.32-4.14c-0.21-0.12-0.34-0.19-0.46-0.27c-0.12-0.09-0.23-0.21-0.35-0.33
		c0.05-0.12,0.06-0.26,0.14-0.33c0.82-0.76,1.69-1.47,2.45-2.27c0.45-0.48,0.76-1.08,0.78-1.8c0.01-0.38,0.09-0.78,0.21-1.14
		c0.84-2.56,1.36-5.16,1.24-7.89c-0.05-1.02-0.12-2.04,0.16-3.08c0.11-0.42-0.22-1.09-0.55-1.49c-0.48-0.59-1.11-1.07-1.72-1.55
		c-0.19-0.15-0.54-0.11-0.76-0.25c-0.5-0.31-0.98-0.64-1.43-1.02c-1.24-1.05-2.59-1.91-4.12-2.43c-0.48-0.16-1.01-0.16-1.49-0.29
		c-1.4-0.38-2.46-1.33-3.59-2.17c-1.23-0.91-2.3-2.01-3.65-2.79c-0.54-0.31-0.87-0.98-1.38-1.58c-0.54,0.38-1.18,0.79-1.79,1.26
		c-0.65,0.49-1.03,0.5-1.53-0.07c-0.24-0.27-0.44-0.57-0.7-0.81c-0.65-0.6-1.23-1.24-1.25-2.18c-0.66,0.16-1.29,0.3-2.08,0.49
		c-0.19,0.18-0.52,0.49-0.73,0.69c-1.27-0.5-2.42-0.96-3.53-1.4c-0.37,0.36-0.65,0.63-0.89,0.86c-0.65-0.55-1.17-0.99-1.71-1.45
		c-0.19,0.42-0.36,0.79-0.53,1.16c-0.72-0.28-1.37-0.54-2.01-0.79c-0.18,0.22-0.3,0.36-0.47,0.56c-0.49-0.56-0.92-1.19-1.88-1.43
		c0.09,0.45,0.08,0.81,0.23,1.09c0.25,0.48,0.28,0.86-0.19,1.27c-0.28-0.38-0.53-0.73-0.79-1.08c-1.25,0.06-2.48,0.12-3.79,0.19
		c-0.23,0.77-0.7,1.31-1.61,1.01c-0.86-0.84-1.9-1.19-3.1-1.06c-0.51,0.05-1.02,0.12-1.5,0.26c-0.26,0.08-0.48,0.32-0.85,0.58
		c-0.84-0.06-1.84-0.41-2.94-0.21c-0.48,0.09-1.36,0.39-1.69-0.54c-0.03-0.09-0.48-0.04-0.77-0.05c-0.55,1.2-1.92,0.12-2.51,0.99
		c-0.72-0.4-1.3-0.72-1.99-1.1c-0.08,0.45-0.15,0.81-0.22,1.23c-0.84,0.14-1.84-0.86-2.49,0.29c-0.74-0.35-1.4-0.66-2.1-1
		c-0.29,0.96,1.22,1.36,0.57,2.4c-1.19-0.84-2.35-1.65-3.68-2.58c0.27,0.61,0.48,1.08,0.74,1.66c-1.21,0.76-2.42-0.58-3.69-0.15
		c0.31,0.88,0.63,1.77,1.02,2.87c-0.55-0.22-0.86-0.35-1.32-0.54c0.44,1.23,1.05,2.28,1.69,3.39c-0.98,0.62-1.68-0.64-2.62-0.35
		c0.63,1.2,0.45,2.56,0.71,3.85c0.19,0.95,0.47,1.89,0.78,2.82c0.24,0.73,0.31,1.39-0.27,1.9c0.23,0.9,0.46,1.72,0.65,2.56
		c0.04,0.18,0.03,0.49-0.08,0.56c-0.65,0.39-0.43,1.02-0.34,1.5c0.29,1.58,0.32,3.14-0.01,4.71c-0.09,0.42-0.01,0.87-0.07,1.32
		c-0.61-2.05-0.36-4.18-0.56-6.28c-0.12,0.95-0.29,1.89-0.34,2.85c-0.12,2.1-0.06,4.22-0.28,6.31c-0.23,2.07-0.09,4.13-0.23,6.19
		c-0.13,2-0.46,3.98-0.68,5.98c-0.06,0.55,0.01,1.12-0.02,1.68c-0.04,0.59-0.14,1.17-0.21,1.75c-0.03,0.24-0.06,0.49-0.02,0.72
		c0.35,1.68,0.12,3.37-0.04,5.03c-0.19,1.97-0.46,3.96-1.02,5.85c-0.31,1.03-0.32,2.01-0.39,3.02c-0.05,0.75-0.16,1.49-0.21,2.23
		c-0.02,0.35-0.03,0.72,0.04,1.07c0.43,1.95,0.24,3.89-0.39,5.72c-0.47,1.34-1.33,2.55-2.07,3.9c0.05,0.16,0.13,0.41,0.19,0.58
		c-0.82,0.8-1.65,1.52-2.38,2.33c-1.7,1.87-3.76,2.96-6.29,3.21c-0.69,0.07-1.34,0.38-2.02,0.55c-2.26,0.56-4.54,1.02-6.89,0.86
		c-1.34-0.09-2.63-0.46-3.78-1.16c-0.39-0.24-0.69-0.28-1.1-0.17c-1.06,0.27-2.09,0.62-3.22,0.65c-1.61,0.04-3.12-0.44-4.62-0.84
		c-1.83-0.49-3.58-1.27-5.29-1.9c-0.41-0.03-0.78-0.04-1.14-0.08c-1.17-0.14-2.35-0.28-3.52-0.43c-0.66-0.29-1.36-0.53-2-0.88
		c-1.74-0.93-3.69-1.19-5.51-1.87c-1.1-0.41-2.09-0.91-2.45-2.16c-0.05-0.19-0.26-0.37-0.44-0.48c-0.4-0.25-0.82-0.45-1.21-0.66
		c-2.08,1.02-4.17,1.31-6.36,0.32c-0.35-0.16-0.87-0.14-1.24,0c-1.77,0.64-3.58,0.89-5.46,0.81c-1.28-0.05-2.56-0.05-3.84,0
		c-0.9,0.03-1.73-0.13-2.52-0.52c-0.54-0.27-1.01-0.33-1.54,0.07c-0.56,0.42-1.12,0.19-1.63-0.12c0.05-0.24,0.1-0.46,0.17-0.76
		c-0.57-0.17-1.11-0.46-1.66-0.47c-0.64-0.01-1.3-0.32-1.97,0.27c-0.28,0.25-1.03-0.05-1.71-0.12c0.19,0.38,0.34,0.68,0.5,0.99
		c-0.05,0.04-0.09,0.08-0.14,0.13c-0.45-0.34-0.9-0.67-1.49-1.1c-1.31-0.05-2.24-0.88-2.79-2.19c-0.24-0.58-0.64-0.92-1.28-1.1
		c-0.54-0.15-1.01-0.53-1.56-0.83c0.09-0.43,0.1-0.74,0.21-1.02c0.42-1.08,0.87-2.14,1.43-3.17c0.91-1.68,1.65-3.46,2.49-5.17
		c0.65-1.32,1.65-2.42,2.4-3.65c1.12-1.82,2.96-2.62,4.53-3.82c1.51-1.16,3.14-1.02,4.85-0.83c0.67,0.07,1.37-0.14,2.07-0.2
		c0.29-0.02,0.59-0.02,0.88,0.03c1.27,0.24,2.52,0.67,3.79,0.73c1.65,0.07,3.31-0.14,4.54-1.54c0.25-0.28,0.64-0.44,1.18-0.79
		c1.78-3.2,3.68-6.62,5.57-10.05c0.63-1.16,0.98-2.39,0.9-3.74c-0.03-0.5,0.12-1.01,0.19-1.51c0.02-0.2,0.09-0.42,0.03-0.59
		c-0.5-1.29,0.02-2.58,0-3.87c-0.05-3.26-0.12-6.53-0.25-9.79c-0.04-1.01-0.3-2.01-0.53-3.01c-0.21-0.93-0.45-1.86-0.8-2.75
		c-0.21-0.53-0.63-0.98-0.96-1.47c-0.07-0.1-0.19-0.16-0.24-0.27c-0.53-1.13-1.02-2.27-1.57-3.39c-0.26-0.52-0.63-0.99-0.95-1.48
		c-1.31-1.99-2.81-3.85-4.39-5.63c-0.15-0.17-0.34-0.3-0.55-0.49c-0.35,0.84-0.67,1.61-1.05,2.55c-0.23-0.35-0.4-0.5-0.43-0.67
		c-0.2-1.2-0.61-2.37-0.51-3.61c0.02-0.25-0.08-0.54-0.22-0.76c-0.82-1.33-1.55-2.76-2.55-3.94c-0.93-1.09-1.63-2.31-2.42-3.47
		c-0.46-0.67-0.94-1.39-1.15-2.15c-0.31-1.13-1.24-1.75-1.81-2.65c-1.06-1.69-2.08-3.4-3.19-5.22c-0.22,0.27-0.39,0.48-0.63,0.78
		c-0.16-0.23-0.35-0.42-0.43-0.64c-0.14-0.4-0.14-0.87-0.33-1.24c-0.61-1.26-0.69-2.59-0.72-3.95c-0.01-0.32-0.22-0.64-0.36-1.01
		c-0.53,0.23-0.96,0.41-1.36,0.58c-0.07-0.58-0.13-1.02-0.16-1.45c-0.01-0.23,0.02-0.47,0.08-0.7c0.25-1.07,0.04-1.45-0.94-1.82
		c-0.45-0.71-1-1.33-1.26-2.05c-0.25-0.72-0.19-1.55-0.3-2.33c-0.08-0.58-0.23-1.15-0.38-1.86c-0.89,0.46-1.72,0.89-2.76,1.43
		c0.48-1.25,0.87-2.28,1.32-3.45c-0.51,0.03-0.86,0.04-1.23,0.06c-0.46,0.69-0.46,0.69-1.36,1.15c0.29-0.71,0.48-1.29,0.75-1.82
		c0.53-1.04,0.76-2.11,0.81-3.28c0.06-1.2,0.13-2.44,0.85-3.55c0.32-0.49,0.38-1.19,0.46-1.81c0.16-1.26,0.57-2.43,1.36-3.57
		c-2.23-3.11-3.41-6.85-5.62-10c-0.28,0.18-0.44,0.28-0.69,0.45c-0.25-0.64-0.53-1.24-0.7-1.87c-0.22-0.79-0.26-1.63-0.53-2.4
		c-0.28-0.8-0.73-1.54-1.14-2.29c-0.34-0.61-0.73-1.2-1.12-1.84c-0.33,0.07-0.66,0.13-1.19,0.24c0.39-0.3,0.6-0.46,0.82-0.63
		c-0.39-1.74-1.48-3.14-2.28-4.68c-0.31-0.6-0.74-1.15-1.02-1.76c-0.23-0.52-0.51-0.88-1.11-0.88c0.22-0.32,0.41-0.59,0.65-0.92
		c-0.25-0.38-0.5-0.77-0.7-1.07c-0.41,0.02-0.69,0.04-1.15,0.06c0.32-0.43,0.52-0.7,0.74-1c-0.07-0.72-0.45-1.26-1.12-1.62
		c-0.24-0.13-0.48-0.32-0.61-0.55c-0.6-1.02-1.62-1.58-2.49-2.3c-0.62-0.52-1.35-0.77-2.18-0.73c-0.29,0.01-0.59-0.05-1-0.09
		c1.04-1.24,2.4-0.71,3.72-0.96c-0.28-0.18-0.42-0.35-0.59-0.37c-0.95-0.15-1.74-0.64-2.59-1.05c-1.29-0.62-2.19-1.66-3.21-2.56
		c-1.05-0.93-2.07-1.9-3.1-2.85C1.37,73.9,0.71,73.27,0,72.61c0.16-0.17,0.35-0.37,0.51-0.54c0.63,0.25,1.17,0.46,1.53,0.59
		c0.99-0.43,1.82-0.85,2.7-1.15c1.48-0.5,2.62-1.39,3.42-2.92c-1.22-0.28-2.4-0.55-3.76-0.86c0.31-0.21,0.51-0.44,0.61-0.4
		c1.19,0.47,2.23,0.15,3.25-0.49c0.46-0.29,0.98-0.49,1.42-0.81c0.29-0.21,0.47-0.56,0.75-0.91c-0.96-0.5-1.98,0.14-2.79-0.72
		c0.79-0.23,1.59-0.32,2.23-0.7c0.61-0.36,1.06-1.01,1.55-1.52c0-0.63,0-1.21,0-1.9c-1.16,0.55-2.19,1.25-3.63,0.89
		c0.3-0.33,0.54-0.6,0.85-0.94c-1.05-0.27-1.99-0.59-2.71-1.44c-0.68-0.82-1.47-1.54-1.9-2.6c0.18-0.19,0.36-0.39,0.58-0.62
		c0.52,0.39,0.93,1.01,1.92,0.88c-1.78-1.38-3.81-1.81-5.7-2.69c0.34-0.46,0.7-0.6,1.16-0.62c1.26-0.07,2.52-0.16,3.83-0.25
		c0.26-0.44,0.17-0.81-0.19-1.16c-0.65-0.62-1.22-1.28-1.66-2.09c-0.29-0.53-0.88-0.9-1.43-1.44c1.21,0,1.85,1.08,2.9,1.23
		c0-0.63,0-1.26,0-1.85c-0.68-1.28-1.89-1.19-3.01-1.16c-0.02-0.14-0.04-0.19-0.03-0.22c0.08-0.22,0.17-0.43,0.28-0.68
		c0.52-0.06,1.06-0.19,1.58-0.16c0.49,0.03,0.98,0.23,1.52,0.37c-0.3-4.72-1.5-9-5.07-12.31c0.73-0.17,0.73-0.17,2.99,1.24
		c0.22-0.87-0.46-1.36-0.65-1.84c-0.06-0.64-0.11-1.11-0.17-1.68c0.92,0.73,1.79,1.42,2.8,2.22c-0.13-1.26-0.41-2.32-0.3-3.42
		c0.08-0.77,0.06-1.56,0.03-2.34c-0.03-0.99,0.02-2.02-0.24-2.96C5,24.02,4.79,23.26,4.09,22.87c-0.16-0.09-0.22-0.37-0.37-0.65
		c1.79,0.17,2.83,1.05,3.36,2.45c0.62,0,1.13,0,1.59,0c0.19-0.62,0.45-1.28,0.59-1.96c0.1-0.46,0.16-0.99,0.02-1.42
		c-0.43-1.39-0.17-2.75,0.05-4.11c0.16-0.96,0.4-1.91,0.6-2.87c0.41,0.06,0.41,0.06,1.4,1.58c0.09-0.24,0.16-0.42,0.25-0.68
		c0.32,0.02,0.66,0.04,1.03,0.07c0.2-0.41,0.03-1.1-0.86-3.28c0.54-0.53,0.79,0.28,1.37,0.32c0.01-0.5,0.09-0.96,0.02-1.4
		c-0.17-1.08-0.37-2.16-0.65-3.21c-0.13-0.51-0.33-1.06-0.96-1.26c-0.14-0.04-0.21-0.29-0.46-0.68c0.9,0.23,1.55,0.4,2.23,0.57
		c-0.33-1.64-1.69-3.55-2.96-4.2c0.32-0.63,0.9-0.19,1.12-0.08c1.19,0.6,2.31,1.37,3.11,2.43c0.62,0.83,1,1.85,1.44,2.81
		c0.25,0.53,0.41,1.1,0.61,1.65c0.05,0.05,0.1,0.13,0.17,0.15c0.92,0.38,1.6,0.97,2.14,1.87c0.82,1.37,1.45,2.84,2.25,4.21
		c0.78,1.34,1.79,2.5,3.07,3.4c0.13,0.09,0.25,0.19,0.37,0.3c1.19,1.11,2.4,2.21,3.57,3.34c1.82,1.74,3.21,3.76,3.9,6.21
		c0.07,0.25,0.21,0.47,0.37,0.81c1.14-0.82,2.18-1.57,3.18-2.28c-0.51-0.47-1.04-0.83-1.39-1.31c-1.17-1.59-1.2-3.35-0.6-5.16
		c0.2-0.59,0.79-0.78,1.28-0.92c0.59-0.17,1.24-0.16,1.83,0.56c-0.59-0.05-1.04-0.09-1.48-0.12c-0.46,0.69-0.6,1.37-0.54,2.1
		c0.06,0.76,0.45,1.42,1.52,1.48c0.68,0.04,1.36-0.02,2.04,0.02c0.47,0.02,0.93,0.16,1.39,0.19c0.35,0.02,0.72,0.02,1.04-0.1
		c0.54-0.19,1.05-0.48,1.66-0.77c-0.12-0.71-0.42-1.51,0.02-2.3c0.47-0.85,0.86-1.74,1.75-2.27c0.98-0.59,2.78-0.1,3.27,0.94
		c0.04,0.09-0.02,0.23-0.04,0.4c-0.36-0.33-0.64-0.69-1-0.9c-0.77-0.45-1.29-0.27-1.56,0.56c-0.16,0.51-0.29,1.09-0.24,1.62
		c0.1,1.04,0.39,2.05,1.14,2.97c0.2-0.2,0.39-0.31,0.46-0.47c0.78-1.77,2.15-2.36,4.09-1.63c-0.87,0.19-1.85-0.16-2.41,0.9
		c0.35-0.04,0.62-0.06,0.86-0.09c0.63,0.55,0.78,1.13,0.36,1.77c0.2,0.48,0.27,0.98,0.85,1.1c0.37-2.16,1.18-3.11,2.62-3.12
		c1.16-0.01,2.05,0.69,2.3,1.92c-0.35-0.23-0.66-0.37-0.88-0.59c-0.24-0.24-0.41-0.56-0.54-0.75c-1.4,0.2-1.65,1.32-2.17,2.33
		c0.18,0.2,0.38,0.43,0.56,0.64c2.33-0.24,3.52,0.21,5.44,2.74c0.35-0.67,0.71-1.26,1-1.89c0.65-1.41,1.65-2.57,2.59-3.78
		c0.65-0.84,1.39-1.62,1.98-2.49c0.69-1.02,1.46-1.96,2.32-2.83c0.44-0.45,0.81-0.97,1.25-1.42c0.7-0.72,1.14-1.55,1.55-2.47
		c0.7-1.55,0.97-3.21,1.5-4.8c0.34-0.99,0.82-1.75,1.87-2.17C71.92,3.7,74.51,2.03,76.64,0c0.07,0.12,0.19,0.3,0.35,0.56
		c-0.24,0.3-0.51,0.63-0.77,0.95c0.04,0.06,0.08,0.12,0.12,0.19c0.54-0.29,1.09-0.59,1.87-1.01c-0.25,0.34-0.34,0.52-0.47,0.64
		c-0.24,0.2-0.52,0.35-0.76,0.55c-1.16,0.92-1.26,0.59-2.05,2.49c0.19-0.03,0.36-0.06,0.71-0.12C75.2,4.67,74.86,5,74.32,5.52
		c0.96-0.23,1.63-0.4,2.39-0.58c-0.12,1.28-1.41,1.83-1.56,3.04c0.25-0.07,0.49-0.14,1-0.28c-0.22,0.45-0.29,0.84-0.48,0.92
		c-0.84,0.34-0.95,1.07-1.13,1.81c0.67,0.26,0.98-0.83,1.71-0.38c-0.55,1.02-1.1,2.04-1.58,2.94c0.96,0.11,1.97,0.22,3.19,0.35
		c-1.13,0.69-2.04,1.24-2.98,1.82c0,0.33,0,0.63,0,0.88c0.4,0,0.76,0,1.3,0c0.17-0.13,0.51-0.38,0.84-0.63
		c-0.25,1.28-0.91,2.42-0.66,3.77c0.22-0.53,0.43-1.06,0.65-1.6c0.09,0,0.18,0,0.27,0.01c0.8,1.55,0.96,3.26,0.87,5.23
		c0.88-0.57,1.55-1,2.32-1.51c0.06,0.74-0.29,1.09-0.63,1.45c-0.7,0.75-0.72,0.82-0.66,1.86c1.26-0.58,2.53-1.17,3.81-1.74
		c0.26-0.12,0.56-0.15,1.07-0.29c-1.19,1.82-2.94,3.03-3.34,5.32c1.68-0.97,3.01-2.19,4.85-2.46c-0.68,0.49-1.31,1.07-2.04,1.44
		c-0.76,0.39-1.06,1.07-0.99,1.72c0.09,0.75-0.23,1.35-0.33,2.02c-0.03,0.23-0.24,0.5-0.17,0.66c0.41,0.9,0.18,1.78-0.05,2.65
		c1.81,0.54,2.69,0.27,3.73-1.12c0.01,0.94-0.36,1.73-1.09,1.92c-2.79,0.71-3.93,2.81-4.61,5.32c-0.05,0.17-0.09,0.33-0.16,0.58
		c0.74-0.38,1.36-0.7,1.99-1.02c-1.07,1.93-1.09,4.08-2.05,6.12c1.47-0.5,2.15-1.59,3.23-2.63c-0.25,0.85-0.45,1.35-1,1.76
		c-0.34,0.25-0.5,0.76-0.73,1.16c-0.72,1.23-1.6,2.29-2.99,2.81c-0.14,0.05-0.26,0.17-0.44,0.29c1.68,1.11,3.39,1.55,5.54,1.31
		c-0.33,0.39-0.48,0.71-0.64,0.72c-0.64,0.02-1.21,0.45-1.95,0.11c-0.5-0.23-1.24-0.23-1.78,0.33c-0.22,0.23-0.63,0.28-1.09,0.47
		c0.41,0.4,0.75,0.86,1.2,1.16c0.98,0.65,1.76,1.44,2.27,2.51c0.15,0.32,0.46,0.65,0.78,0.8c1.27,0.62,2.45,1.29,2.89,2.78
		c1.7-0.6,2.9-1.66,3.89-3.06c-0.11-0.23-0.24-0.46-0.35-0.7c-0.93,0.17-1.04,0.3-1.02,1.39c-0.34-0.47-0.56-0.76-0.75-1.03
		c0.76-1.19,1.76-0.83,2.81-0.53c0.21,0.45,0.43,0.94,0.68,1.47c0.59-0.71,1.73-1.1,1.59-2.45c-0.37-0.06-0.63-0.11-0.94-0.17
		c0.05-0.1,0.09-0.26,0.15-0.27c0.17-0.03,0.37-0.04,0.52,0.02c0.35,0.14,0.62,0.09,0.84-0.28c-0.22-0.1-0.43-0.19-0.82-0.36
		c0.46-0.23,0.75-0.38,1-0.5c1.4,0.59,1.28,1.95,1.69,2.95c-0.72,3.47-3.32,5.06-6.39,6.29c0.24,0.17,0.39,0.37,0.53,0.36
		c1.04-0.06,1.91,0.49,2.78,0.88c0.5,0.23,0.94,0.32,1.45,0.34c1.3,0.07,2.61,0.14,3.91,0.25c0.78,0.06,1.69,0.87,1.89,1.6
		c0.11,0.4,0,0.61-0.61,1.05c-0.04-0.47-0.08-0.89-0.14-1.43c-0.34-0.23-0.75-0.52-1.18-0.81c-0.98,0.51-2.09,0.7-2.58,1.83
		c-0.39,0-0.79,0-1.34,0c0.7,0.87,1.3,1.63,1.99,2.51c1.51,0.01,2.92,0.73,4.18,1.68c1.4-0.61,2.63-1.36,3.71-2.37
		c1.02-0.96,1.1-1.57,0.2-2.8c-0.76,0.02-0.65-0.11-1.78,1.15c-0.12-0.07-0.25-0.15-0.4-0.24c0.07-0.31,0.14-0.6,0.21-0.86
		c1.2-0.77,1.82-0.83,3.08-0.23c0.25,0.81,0.54,1.73,0.89,2.81c0.58-0.08,1.24-0.13,1.88-0.26c1.56-0.32,3.15,0.72,3.62,2.05
		c0.23,0.67,0.56,0.98,1.19,1.11c1.51,0.31,2.58,1.21,3.32,2.74c0.34-0.36,0.67-0.57,0.78-0.85c0.17-0.47,0.28-1,0.25-1.49
		c-0.03-0.53-1.07-1.05-1.77-1c-0.15,0.01-0.31,0-0.46-0.02c-0.03,0-0.06-0.05-0.17-0.17c0.19-0.16,0.36-0.43,0.56-0.45
		c0.79-0.1,1.56-0.08,2.23,0.48c0.79,0.67,1.27,1.45,1.34,2.53c0.07,1.19-0.95,1.66-1.56,2.59c0.31,0.37,0.63,0.74,0.93,1.11
		c1.28-0.49,2.23-1.25,2.98-2.3c0.75-1.05,2.42-1.52,3.63-1c-0.33,0.16-0.56,0.37-0.81,0.38c-0.76,0.03-1.13,0.52-1.38,1.12
		c-0.45,1.04-0.86,2.11-1.64,2.97c-0.09,0.1-0.1,0.29-0.16,0.5c0.47,0,0.91,0,1.34,0c1.25-0.01,2.21-0.87,2.4-2.15
		c0.11-0.74,0.22-1.48,0.34-2.28c0.77,0.26,1.04,1.08,1.46,1.65c0.4,0.56,0.47,1.36,0.7,2.13c3.06-1.2,5.92-1.61,8.21,1.37
		c0.86-0.17,1.44-0.72,1.98-1.34c0-0.47,0-0.91,0-1.41c-0.3-0.28-0.54-0.88-1.1-0.5c-0.31,0.21-0.43,0.69-0.79,1.31
		c-0.13-0.7-0.21-1.13-0.28-1.52c0.88-0.83,1.75-0.52,2.6-0.32c1,0.85,1.84,1.78,1.79,3.19c0.95-0.03,1.81-0.46,2.61-1.29
		c-0.04-0.15-0.06-0.35-0.13-0.52c-0.07-0.17-0.19-0.33-0.25-0.43c-1.1-0.31-0.24,1.51-1.47,1.04c-0.47-0.33-0.08-0.81-0.01-1.27
		c1.13-0.76,1.92-0.78,2.93-0.07c0.84,0.6,1.38,1.39,1.43,2.52c0.44,0.06,0.82,0.12,1.2,0.17c0.62,0.49,1.23,0.98,1.9,1.52
		c2.15-0.44,4.37-0.83,6.56-1.35c2.58-0.61,5.14-1.33,7.7-2c0.19-0.05,0.39-0.15,0.57-0.13c1.22,0.14,2.29-0.32,3.42-0.69
		c2.56-0.83,5.16-1.55,7.78-2.15c1.79-0.41,3.67-0.41,5.47-0.8c2.96-0.63,5.93-0.41,8.9-0.44c0.66-0.01,1.33,0.18,1.99,0.2
		c0.71,0.02,1.42-0.06,2.13-0.1c0.35-0.02,0.72-0.15,1.05-0.09c2.29,0.37,4.63,0.28,6.88,0.92c0.6,0.17,1.26,0.11,1.86,0.25
		c1.48,0.35,2.95,0.74,4.41,1.13c2.11,0.57,4.16,1.34,6.21,2.09c1.71,0.63,3.46,1.16,5.38,1.16c1.58,0,3.21,0.36,4.71,0.88
		c1.3,0.45,2.56,0.77,3.93,0.75c0.19,0,0.4,0.04,0.57,0.12c2.51,1.08,5.22,1.66,7.6,3.07c1.58,0.93,3.16,1.86,4.74,2.79
		c0.17,0.1,0.33,0.22,0.52,0.25c2.1,0.41,3.78,1.63,5.45,2.86c1.8,1.33,3.54,2.74,5.32,4.1c1.12,0.85,2.19,1.74,3.07,2.84
		c1.35,1.69,2.64,3.42,4.02,5.09c1.51,1.83,2.61,3.91,3.8,5.93c1.01,1.72,1.95,3.47,2.87,5.24c0.86,1.66,1.74,3.32,2.46,5.04
		c0.72,1.73,1.27,3.53,1.89,5.29c0.1,0.29,0.15,0.61,0.27,0.9c0.33,0.84,0.68,1.66,0.72,2.59c0.02,0.53,0.26,1.06,0.44,1.57
		c0.91,2.5,1.82,4.99,2.75,7.47c0.44,1.17,0.95,2.31,1.36,3.49c0.99,2.8,1.97,5.59,3.19,8.3c0.56,1.24,0.88,2.58,1.34,3.87
		c0.52,1.47,1.05,2.94,1.63,4.38c0.98,2.43,1.92,4.88,3.03,7.25c0.57,1.23,1.43,2.33,2.2,3.47c0.79,1.17,1.6,2.33,2.46,3.44
		c0.69,0.89,1.48,1.71,2.23,2.56c0.15,0.17,0.32,0.33,0.46,0.5c0.96,1.15,2.01,2.18,3.18,3.13c0.71,0.58,1.63,0.98,1.93,2
		c0.09,0.31,0.43,0.6,0.72,0.78c1.68,1,3.14,2.35,4.99,3.09c0.65,0.26,1.31,0.53,1.87,0.94c1.66,1.22,3.51,2.02,5.42,2.75
		c0.15,0.06,0.3,0.1,0.43,0.17c2.31,1.18,4.81,1.85,7.29,2.54c2.08,0.58,4.21,0.98,6.37,1.01c1.13,0.02,2.25-0.19,3.38-0.29
		c0.11-0.01,0.22,0,0.33,0.01c0.7,0.07,1.4,0.14,2.16,0.22c0.31-0.63,0.57-1.17,0.84-1.72c0.07,0,0.14,0,0.22,0
		c0.1,0.43,0.21,0.87,0.35,1.45c1.21-0.59,2.41-1.17,3.62-1.75c0.74,0.38,1.43,0.74,2.26,0.3c0.31-0.17,0.57-0.01,1.02,0.32
		c1.86-0.26,3.52-0.94,4.88-2.29c0.21-0.21,0.53-0.37,0.82-0.43c0.42-0.08,0.68,0.12,0.55,0.7c1.24-0.23,2.47-0.26,3.6-0.91
		c0.96-0.56,1.89-1.17,2.97-1.57c0.99-0.36,1.81-1.19,2.68-1.84c0.34-0.25,0.67-0.53,0.94-0.85c0.74-0.87,1.48-1.74,2.14-2.67
		c0.62-0.89,0.99-1.99,1.72-2.76c0.81-0.87,1.1-1.97,1.69-2.93c0.22-0.36,0.29-0.82,0.52-1.18c0.73-1.16,0.73-2.44,0.7-3.74
		c0-0.23,0.03-0.47,0.05-0.77c0.8,0.2,1.06,0.8,1.35,1.56c0.21-0.28,0.44-0.45,0.5-0.67c0.38-1.4,0.96-2.74,1.11-4.2
		c0.03-0.25,0.34-0.48,0.62-0.85c-0.08-0.91-0.2-1.97-0.25-3.03c-0.02-0.46,0.16-0.92,0.2-1.39c0.13-1.56,0.14-3.12-0.34-4.64
		c-0.3-0.97-0.56-1.95-0.86-2.91c-0.34-1.11-1.31-1.43-2.28-1.6c-0.88-0.15-1.74-0.03-2.19,0.97c-0.16,0.36-0.49,0.64-0.86,1.09
		c-0.3-0.94-0.13-1.65,0.13-2.43c-0.63,0.03-1.06,0.23-1.44,0.64c-0.77,0.82-1.6,1.57-2.36,2.39c-0.91,0.99-2,1.63-3.32,1.86
		c-0.81,0.14-1.47,0.51-2.04,1.09c-1.77,1.81-4.01,2.88-6.25,3.94c-1.59,0.75-3.3,1.19-5.01,1.58c-0.84,0.19-1.66,0.49-2.51,0.56
		c-0.79,0.07-1.59-0.1-2.39-0.15c-0.47-0.03-0.95,0-1.32,0c-1.69,1.54-2.38,3.5-2.62,5.68c-0.64-0.27-0.78-0.66-0.77-1.19
		c0.03-1-0.06-2.01,0.03-3c0.06-0.65,0.29-1.29,0.52-1.91c0.22-0.59,0.55-1.13,0.91-1.84c-0.42,0.08-0.72,0.12-1.01,0.19
		c-2.36,0.58-4.76,0.86-7.15,0.41c-1.33-0.25-2.64-0.27-3.97-0.32c-1.43-0.06-2.74-0.59-3.99-1.19c-0.67,0.17-1.31,0.33-2,0.51
		c0.6-1.05,0.7-1.12,2.24-1.69c0.47-0.18,0.94-0.36,1.43-0.55c0-0.45,0-0.84,0-1.33c-0.82,0.52-1.57,1.09-2.39,1.49
		c-0.83,0.4-1.23,1.45-2.44,1.56c0.41-0.68,0.68-1.28,1.08-1.77c1.15-1.44,1.32-2.98,0.97-4.78c-0.33-1.69-0.55-3.42-0.59-5.17
		c-0.03-1.14-0.52-2.27-0.8-3.41c-0.25-0.98-0.77-1.99-0.67-2.93c0.1-0.9-0.32-1.68-0.18-2.55c0.13-0.82,0.03-1.67,0.03-2.6
		c-0.82,0.44-1.17,1.17-1.4,1.88c-0.5,1.52-0.24,3.02,0.49,4.44c0.39,0.77,0.78,1.53,1.23,2.42c-0.39,0.04-0.67,0.06-0.95,0.09
		c-0.76-1.03-1.31-2.06-1.41-3.31c-0.03-0.35-0.29-0.71-0.51-1.02c-0.48-0.68-0.89-1.41-1.44-2.06c-0.58-0.68-0.51-1.7-0.68-2.6
		c-0.23-1.19,0.23-2.26,0.12-3.38c-0.02-0.2-0.07-0.45,0.03-0.59c0.43-0.67,0.16-1.2-0.31-1.67c0.23-0.89,1.23-1.46,0.82-2.63
		c0.75-0.67,1.56-1.4,2.49-2.24c-0.02-0.04-0.06-0.42-0.22-0.49c-0.45-0.19-0.96-0.25-1.59-0.39c-0.04-0.05-0.18-0.36-0.39-0.43
		c-0.97-0.3-1.48-1.13-2.12-1.79c-0.24-0.25-0.32-0.7-0.37-1.08c-0.05-0.36,0.03-0.74,0.05-1.18c0.21-0.02,0.47-0.05,0.75-0.08
		c0.38,0.76,0.71,1.51,1.12,2.21c0.44,0.74,0.64,0.74,1.47,0.52c1.6-0.43,2.92-1.3,4.09-2.44c0.37-0.36,0.71-0.77,1.11-1.1
		c1.03-0.84,1.1-2,1.17-3.19c0.06-1.03,0.31-2.03,0.85-2.94c0.51-0.86,0.97-1.75,1.52-2.75c-1.39-0.5-2.61-1.05-3.48-2.22
		c-0.27-1.16,0.51-1.84,1.35-2.48c0.34-0.26,0.71-0.19,1.04,0.28c-0.76,0.28-1.5,0.62-1.18,1.68c0.9,1.06,2.3,1.4,3.55,0.91
		c0.85-0.33,1.58-0.81,2.3-1.39c0.97-0.78,2.08-1.37,3.15-2.06c-0.15-0.13-0.28-0.24-0.45-0.39c0.68-0.98,1.58-1.68,2.62-2.15
		c1.67-0.76,3.37-1.47,5.07-2.15c0.54-0.21,1.13-0.31,1.71-0.38c1.59-0.19,3.19-0.36,4.79-0.49c0.52-0.04,1.05,0.08,1.82,0.16
		c-1.21-2.06-1.29-3.93,0.15-5.76c0.26,0.02,0.56,0.03,1.01,0.06c-0.33,0.43-0.57,0.73-0.8,1.04c-0.03,1.36,0.42,1.96,1.86,1.97
		c1.86,0.01,3.74,0.29,5.59-0.18c0.26-0.07,0.56-0.05,0.84-0.01c1.55,0.22,3.09,0.58,4.65,0.66c1.36,0.07,2.56,0.61,3.84,0.9
		c0.34,0.08,0.74,0.15,1.04,0.04c0.64-0.25,1.22-0.18,1.84,0.05c0.54,0.21,1.12,0.32,1.73,0.48c0.17-0.28,0.34-0.58,0.53-0.9
		c0.22,0,0.45,0,0.74,0c0.03,0.23,0.11,0.47,0.08,0.69c-0.28,1.75,1.47,3.03,2.87,3.48c0.32,0.1,0.64,0.21,0.95,0.35
		c0.81,0.39,1.57,0.9,2.42,1.17c1.36,0.43,2.37,1.37,3.45,2.18c1.28,0.96,2.5,2.01,3.66,3.11c0.99,0.94,1.86,2.01,2.78,3.02
		c0.32,0.35,0.69,0.67,0.99,1.04c1.58,1.91,3.12,3.86,4.72,5.76c1.62,1.91,2.57,4.21,3.77,6.36c1.12,2.02,2.22,4.06,3.27,6.12
		c1.15,2.24,1.83,4.64,2.33,7.11c0.18,0.88,0.48,1.73,0.72,2.6c0.63,2.3,1.3,4.58,1.86,6.89c0.21,0.87,0.18,1.8,0.28,2.7
		c0.05,0.43,0.15,0.85,0.23,1.27c0.43,2.16,0.97,4.29,0.98,6.51c0,0.98,0.24,1.97,0.2,2.95c-0.06,1.49-0.27,2.97-0.41,4.46
		c-0.01,0.11,0.04,0.23,0.06,0.34c0.29,1.52-0.06,3.03-0.13,4.54c-0.07,1.57-0.3,3.14-0.47,4.7c-0.01,0.08-0.01,0.17-0.05,0.23
		c-0.87,1.41-1.09,3.04-1.29,4.6c-0.26,2.13-1.17,4.06-1.56,6.13c-0.1,0.56-0.41,1.14-0.78,1.57c-0.81,0.94-0.92,2.14-1.35,3.21
		c-0.17,0.43-0.26,0.9-0.5,1.29c-0.49,0.8-1.07,1.55-1.57,2.34c-0.27,0.42-0.41,0.92-0.68,1.35c-0.5,0.79-0.96,1.65-1.61,2.31
		c-0.96,0.97-1.77,2.12-2.97,2.84c-0.08,0.69-0.7,0.95-1.13,1.35c-0.47,0.44-1.02,0.78-1.52,1.2c-0.5,0.42-0.96,0.87-1.52,1.38
		c0.17,1.16,1.65,1.09,2.2,2.1c-0.24,0.06-0.41,0.12-0.58,0.13c-1.26,0.09-2.53,0.15-3.79,0.26c-0.38,0.03-0.79,0.13-1.12,0.31
		c-0.92,0.5-1.85,1.01-2.7,1.61c-0.46,0.33-0.91,0.79-1.15,1.3c-0.56,1.19-1.61,1.74-2.68,2.3c-0.26,0.14-0.49,0.36-0.71,0.53
		c0.57,0.52,1.47,0.15,1.94,0.99c-0.77,0.13-1.44,0.25-2.11,0.34c-1.43,0.18-2.59,1.02-3.88,1.56c-2.2,0.93-4.46,1.66-6.82,2.11
		C354.72,215.71,353.09,216.27,351.34,216.75z M220.22,206.4c0.07-0.11,0.12-0.22,0.2-0.29c1.45-1.17,2.05-2.83,2.55-4.54
		c0.25-0.86,0.37-1.76,0.55-2.64c0.16-0.8,0.36-1.6,0.47-2.41c0.13-0.98,0.09-1.98,0.29-2.94c0.23-1.14,0.38-2.27,0.3-3.42
		c-0.07-0.98-0.32-1.92-0.98-2.66c-0.78-0.88-1.64-1.69-2.49-2.5c-0.54-0.52-1.08-1.06-1.71-1.45c-0.86-0.52-1.8-0.89-2.7-1.35
		c-1.41-0.72-2.81-1.45-4.22-2.17c-0.31,0.7-0.33,0.76-0.05,1.59c0.44,1.28,0.48,2.62,0.19,3.87c-0.53,2.23-1.29,4.41-1.94,6.61
		c-0.27,0.9-0.51,1.8-0.76,2.7c-0.42,1.5-0.88,2.99-1.25,4.5c-0.46,1.84-0.69,3.74-1.45,5.52c-1.09,2.55-1.98,5.17-3.32,7.62
		c-0.71,1.31-1.13,2.75-1.02,4.31c0.04,0.57-0.15,1.16-0.2,1.75c-0.03,0.4-0.03,0.8,0,1.2c0.05,0.59,0.19,1.17,0.21,1.75
		c0.03,1.07,0.01,2.13,0.01,3.23c0.61,0,1.08,0.04,1.54-0.01c1.01-0.11,2.02-0.3,3.03-0.41c1.02-0.11,2.05-0.16,3.07-0.27
		c0.74-0.08,1.49-0.15,2.2-0.36c1.82-0.52,3.13-1.72,4.09-3.31c1.35-2.25,2.92-4.39,3.42-7.06c-0.33-0.11-0.69,0.54-1-0.03
		c0.04-0.09,0.06-0.18,0.11-0.22c0.61-0.56,1.34-1.04,1.82-1.69c0.51-0.71,0.84-1.52,0.56-2.54c-0.21-0.78-0.04-1.66-0.04-2.54
		c-0.37,0.17-0.72,0.33-1.09,0.5C220.46,206.62,220.35,206.51,220.22,206.4z M80.11,224.33c1.2-0.66,2.25-1.11,3.16-1.77
		c1.15-0.83,2.2-1.79,3.25-2.75c1.99-1.81,3.29-4.1,4.34-6.53c0.32-0.74,0.43-1.58,0.77-2.32c0.54-1.21,1.04-2.43,1.39-3.69
		c0.22-0.79,0.24-1.63,0.35-2.44c0.13-0.97,0.34-1.94,0.36-2.92c0.05-2.48-0.06-4.96,0.04-7.43c0.07-1.69-0.29-3.28-0.55-4.91
		c-0.1-0.62-0.06-1.27-0.24-1.87c-0.34-1.11-0.38-2.24-0.46-3.38c-0.07-1.04-0.3-2.1-0.64-3.09c-0.58-1.68-1.73-3.06-2.64-4.56
		c-0.09-0.15-0.29-0.24-0.49-0.4c-0.02,0.25-0.05,0.41-0.04,0.57c0.07,1.14,0.16,2.29,0.24,3.43c0.09,1.42-0.21,2.86,0.21,4.27
		c0.04,0.14-0.19,0.35-0.3,0.55c-0.38-0.32-0.7-0.58-1.24-1.03c0.28,2.53,0.53,4.77,0.79,7.16c-0.41-0.25-0.69-0.42-1.07-0.65
		c-0.49,1.04-0.95,2.01-1.39,2.95c-0.25-0.06-0.39-0.09-0.47-0.11c-0.53,1.66-1.06,3.29-1.57,4.93c-0.49,1.56-1,3.12-1.44,4.69
		c-0.36,1.28-0.61,2.58-0.95,3.86c-0.21,0.79-0.57,1.55-0.71,2.35c-0.23,1.35-0.35,2.73-0.5,4.09c-0.1,0.9-0.16,1.81-0.26,2.71
		c-0.15,1.45-0.35,2.89-0.44,4.34c-0.04,0.62,0.14,1.25,0.22,1.87C79.92,222.9,80.01,223.55,80.11,224.33z"/>
</g>
</svg>
