<?xml version="1.0" encoding="utf-8"?>
<!-- Generator: Adobe Illustrator 24.1.2, SVG Export Plug-In . SVG Version: 6.00 Build 0)  -->
<svg version="1.1" id="Layer_1" xmlns="http://www.w3.org/2000/svg" xmlns:xlink="http://www.w3.org/1999/xlink" x="0px" y="0px"
	 viewBox="0 0 35.82 45.59" enable-background="new 0 0 35.82 45.59" xml:space="preserve">
<g>
	<path d="M3.15,20.15c0.44,0.25,0.71,0.6,1.09,0.81c0.37,0.2,0.71,0.45,1.07,0.66c0.38,0.22,0.77,0.41,1.2,0.63
		c0.07-0.42,0.05-0.78-0.06-1.14c-0.24-0.74-0.52-1.47-0.7-2.23c-0.23-0.97-0.65-1.84-1.17-2.67c-0.02-0.03-0.01-0.08-0.02-0.15
		c0.47-0.07,0.83,0.29,1.27,0.34c-1.36-0.97-2.46-2.15-3.16-3.66c0.18-0.26,0.43,0.1,0.62-0.14c-0.29-0.53-0.57-1.06-1.04-1.49
		c-0.68-0.62-1.3-1.29-1.88-2.01C0.05,8.7-0.05,8.28,0.02,7.77c0.15-0.99,0.29-1.98,0.54-2.95c0.11-0.4,0.22-0.81,0.33-1.21
		C1.06,3,1.37,2.47,1.7,1.95c0.12-0.19,0.24-0.36,0.36-0.54c0-0.16-0.18-0.15-0.24-0.24c0.24-0.41,0.62-0.59,1.05-0.63
		c0.8-0.06,1.59-0.14,2.4-0.09c0.26,0.02,0.49,0.21,0.75,0.14c0.23-0.06,0.45-0.16,0.68-0.24c0.34-0.11,0.72-0.02,1.04-0.17
		c0.13,0.1,0.24,0.19,0.35,0.27C8.24,0.42,8.32,0.3,8.42,0.2C8.8-0.13,9.39-0.05,9.67,0.38C9.7,0.43,9.66,0.52,9.64,0.63
		c0.35,0.03,0.71,0.07,1.07,0.1c1.61,0.15,3.21,0.38,4.77,0.85c0.08,0.02,0.16,0.03,0.23,0.07c0.65,0.35,1.34,0.31,2.04,0.29
		c1.44-0.05,2.88,0.02,4.29,0.37c0.65,0.16,1.3,0.37,1.93,0.6c0.27,0.1,0.49,0.11,0.75,0c0.42-0.18,0.85-0.34,1.28-0.52
		c0.12-0.05,0.22-0.1,0.35,0.07c0,0.26-0.29,0.43-0.34,0.7c0.07,0.12,0.17,0.06,0.25,0.03c0.79-0.35,1.64-0.5,2.47-0.69
		c0.7-0.16,1.42-0.22,2.12-0.39c0.25-0.06,0.5-0.11,0.72-0.21c0.18,0.07,0.16,0.2,0.15,0.31c-0.03,0.3-0.13,0.58-0.22,0.87
		c-0.2,0.6-0.4,1.21-0.61,1.84c0.32,0.22,0.61,0.4,0.95,0.53c1.28,0.51,2.55,1.06,3.74,1.75c0.1,0.06,0.21,0.11,0.26,0.27
		c-1.18,1.44-2.61,2.64-4.1,3.88c0.17,0.11,0.41,0.05,0.5,0.3c0.07,0.19,0.38,0.19,0.59,0.23c0.59,0.11,1.18,0.22,1.75,0.39
		c0.15,0.04,0.32,0.06,0.41,0.27c-1.12,1.47-2.42,2.76-4.02,3.77c0.74-0.01,1.47-0.12,2.18-0.03c0.1,0.13,0.07,0.25-0.01,0.34
		c-0.43,0.53-0.74,1.14-1.12,1.7c-0.65,0.94-1.45,1.75-2.3,2.51c-0.53,0.47-1.08,0.89-1.72,1.18c-0.03,0.01-0.04,0.06-0.08,0.12
		c0.24,0.16,0.55,0.03,0.79,0.2c0.03,0.17-0.1,0.24-0.23,0.3c-0.36,0.17-0.72,0.35-1.09,0.49c-0.9,0.33-1.64,0.91-2.35,1.52
		c-0.88,0.76-1.74,1.52-2.62,2.27c-0.38,0.32-0.76,0.64-1.1,1.01c-0.2,0.22-0.44,0.41-0.67,0.6c-0.52,0.44-0.94,0.97-1.37,1.5
		c-0.29,0.36-0.52,0.75-0.76,1.14c-0.41,0.67-0.56,1.44-0.89,2.13c-0.12,0.25-0.2,0.51-0.4,0.69c-0.16-0.07-0.15-0.18-0.17-0.27
		c-0.02-0.08-0.03-0.15-0.05-0.23c-0.18,0-0.18,0.14-0.22,0.24c-0.28,0.68-0.62,1.34-0.95,2c-0.13,0.25-0.28,0.48-0.46,0.72
		c-0.47-0.26-0.46-0.79-0.7-1.17c-0.19,0.19-0.12,0.48-0.28,0.63c-0.17,0.04-0.13-0.16-0.26-0.15c-0.21,0.63-0.42,1.27-0.64,1.93
		c-0.42,0.04-0.53-0.35-0.8-0.49c-0.3-0.14-0.37-0.53-0.69-0.65c-0.26,0.31-0.82,1.52-1,2.14c0.1,0.27,0.4,0.1,0.56,0.23
		c0.05,0.65,0.05,0.65-0.65,1.04c-0.07,0.44,0.03,0.89,0.11,1.33c0.18,0.92,0.49,1.83,0.38,2.8c-0.03,0.24-0.07,0.46-0.22,0.66
		c-0.5,0.71-1.21,0.93-2.04,0.85C9.07,45.57,9,45.5,8.92,45.43C8.58,45.1,8.38,44.7,8.4,44.21c0.02-0.38,0.09-0.75,0.23-1.11
		c0.26-0.67,0.55-1.32,0.8-2c0.12-0.33,0.18-0.69,0.27-1.04c-0.19-0.15-0.43-0.11-0.66-0.21c-0.1-0.22-0.08-0.47-0.04-0.7
		c0.11-0.19,0.32-0.07,0.45-0.21c0-0.04,0.02-0.1,0.01-0.16c-0.04-0.22-0.18-0.35-0.38-0.42c-1.25-0.42-2.05-1.35-2.69-2.44
		c-1.05-1.8-1.49-3.78-1.69-5.82c-0.01-0.12-0.01-0.24-0.02-0.36c-0.18-1.47,0.27-2.79,0.93-4.1C3.95,24.23,2.95,22.5,3.15,20.15z"
		/>
	<path fill="#1A1A1A" d="M20.3,27.2c-0.19,0.02-0.22-0.15-0.29-0.25c-0.28-0.44-0.57-0.87-0.91-1.26c-0.1-0.12-0.18-0.26-0.38-0.29
		c-0.15,0.38,0.05,0.74,0.09,1.25c-0.73-1.01-1.34-1.93-1.99-2.86c0.08-0.19,0.17-0.35,0.36-0.52c0.18,0.18,0.36,0.35,0.54,0.53
		c0.17,0.17,0.33,0.35,0.5,0.52c0.11,0.12,0.21,0.24,0.33,0.35c0.14,0.13,0.31,0.13,0.43-0.01c0.24-0.29,0.53-0.54,0.67-0.86
		c-0.01-0.18-0.12-0.24-0.2-0.32c-0.44-0.44-0.88-0.87-1.32-1.31c-0.12-0.12-0.23-0.24,0.02-0.42c0.57,0.5,1.14,1.01,1.73,1.52
		c0.45-0.23,0.57-0.69,0.9-1.02c-0.51-0.68-1.25-1.08-1.82-1.72c0.41-0.56,0.74-1.16,1.19-1.7c1.15-1.37,2.05-2.9,2.76-4.54
		c0.31-0.71,0.64-1.42,0.99-2.12c0.12-0.25,0.29-0.48,0.45-0.7c0.45-0.63,0.61-1.3,0.31-2.03c-0.2-0.5-0.17-0.96,0.13-1.42
		c0.22-0.34,0.09-0.68-0.3-0.71c-0.73-0.05-1.47-0.15-2.2,0.05c-0.15,0.04-0.31,0.08-0.41,0.22c-0.03,0.11,0.08,0.12,0.12,0.22
		c-1.07,1.04-2.26,1.93-3.58,2.64c-0.69,0.37-1.41,0.66-2.17,0.85c-1.05,0.26-2.1,0.21-3.16,0.07c-1.28-0.17-2.56-0.4-3.84-0.59
		c-0.61-0.09-1.23-0.17-1.84-0.26c-0.44-0.06-0.88,0.01-1.31,0.02c-0.28,0.01-0.53,0.16-0.78,0.29c-0.6,0.32-1.14,0.74-1.7,1.08
		c-0.28-0.04-0.46-0.2-0.63-0.37c-0.95-0.92-1.82-1.91-2.67-2.91c-0.15-0.18-0.2-0.36-0.14-0.61C0.28,7.65,0.31,7.27,0.37,6.9
		C0.46,6.9,0.49,7.02,0.58,6.98C0.56,7.12,0.54,7.26,0.68,7.36c0.03,0.07,0.04,0.18,0.09,0.21c0.3,0.19,0.63,0.32,0.99,0.24
		c0.11-0.02,0.15-0.12,0.13-0.24c0.05,0.02,0.07,0,0.07-0.04c0,0-0.03,0-0.04,0C1.91,7.55,1.91,7.57,1.9,7.59
		c-0.24,0.16-0.47,0.16-0.72,0c-0.15-0.1-0.31-0.17-0.47-0.26C0.69,7.2,0.74,7.05,0.57,6.98C0.6,6.81,0.62,6.64,0.64,6.46
		c0.21-0.17,0.42-0.07,0.62-0.04c0.2,0.13,0.33,0.36,0.65,0.49C1.76,6.58,1.55,6.46,1.33,6.35C1.11,6.16,0.84,6.2,0.54,6.18
		c0.03-0.23,0.04-0.47,0.1-0.68c0.07-0.23,0.01-0.48,0.18-0.72C1.02,5.07,1.18,5.35,1.38,5.6c0.59,0.76,1.27,1.44,2.04,2.02
		c0.35,0.26,0.72,0.51,1.14,0.66c0.31,0.11,0.48,0.31,0.61,0.6C5.31,9.2,5.5,9.52,5.67,9.83c0.08,0.14,0.14,0.29,0.35,0.33
		c0.31-0.23,0.11-0.55,0.09-0.81C6.09,9.05,6,8.76,5.94,8.47c0.34-0.37,0.69-0.73,1.01-1.11c0.19-0.23,0.38-0.47,0.51-0.73
		C7.69,6.17,8.02,5.8,8.31,5.39c0.09-0.13,0.21-0.24,0.35-0.32c0.71-0.39,1.22-0.97,1.6-1.66c0.27-0.49,0.64-0.75,1.19-0.89
		c0.74-0.19,1.47-0.36,2.24-0.33c0.12,0.01,0.25-0.02,0.36,0.03c0.47,0.21,0.94,0.13,1.41,0.05c0.45-0.08,0.92-0.05,1.37-0.12
		c0.71-0.1,1.43-0.07,2.13-0.06c1.28,0.01,2.55,0.17,3.79,0.49c0.46,0.12,0.92,0.22,1.37,0.4c0.3,0.12,0.63,0.09,0.94-0.03
		c0.29-0.11,0.59-0.2,0.95-0.31c-0.23,0.55-0.49,0.96-0.9,1.31c-0.57,0.5-1.08,1.06-1.62,1.61c-0.02,0.02-0.01,0.07-0.02,0.11
		c0.04,0.06,0.09,0.07,0.15,0.06c1.85-0.44,3.74-0.26,5.61-0.25c0.83,0.01,1.68,0.02,2.5,0.21c0.12,0.03,0.23,0.04,0.34,0.09
		c0.88,0.43,1.77,0.84,2.65,1.27c0.03,0.01,0.04,0.06,0.09,0.14c-2.83,0.26-5.62,0.63-8.17,1.95c0.05,0.26,0.24,0.3,0.39,0.39
		c0.64,0.38,1.34,0.63,2.01,0.93c0.64,0.29,1.27,0.58,1.92,0.83c0.25,0.09,0.4,0.3,0.66,0.39c0.8,0.26,1.61,0.43,2.43,0.61
		c0.23,0.05,0.46,0.11,0.69,0.17c-0.15,0.45-0.73,1.09-2.06,2.3c-0.77,0.7-1.64,1.25-2.54,1.79c0.93,0,1.84-0.23,2.76-0.17
		c-0.14,0.56-1.51,2.48-2.37,3.34c-0.96,0.97-1.94,1.9-3.3,2.48c0.38,0.19,0.73,0.1,1.03,0.2c-0.03,0.18-0.17,0.19-0.27,0.23
		c-1.8,0.69-3.28,1.88-4.71,3.13c-0.64,0.57-1.29,1.13-1.94,1.69c-0.06,0.05-0.13,0.08-0.19,0.12c-0.38-0.3-0.42-0.87-0.94-1.09
		c-0.08,0.29,0.01,0.51,0.08,0.72L20.3,27.2z M11.73,3.99c-0.07,0.01-0.12,0.04-0.12,0.11c-0.08-0.02-0.12,0.02-0.16,0.08
		c-0.12,0.06-0.22,0.12-0.2,0.28c-0.08,0-0.11,0.05-0.12,0.12c-0.21,0.09-0.3,0.27-0.37,0.47c-0.06,0.01-0.1,0.04-0.08,0.11
		c0,0.01,0.04,0.02,0.04,0.02c0.05-0.04,0.05-0.09,0.02-0.14C11.01,5,11.1,4.81,11.13,4.58c0.08,0.01,0.12-0.04,0.13-0.11
		c0.14-0.01,0.21-0.11,0.26-0.22c0.07-0.02,0.11-0.06,0.1-0.14c0.08-0.01,0.11-0.05,0.1-0.13c0.03-0.01,0.11,0.03,0.06-0.06
		C11.77,3.94,11.75,3.96,11.73,3.99z M10.42,5.67c-0.17,0.07-0.09,0.19-0.07,0.3c-0.12,0-0.19,0.04-0.17,0.17
		c-0.15,0.03-0.13,0.14-0.12,0.24C9.87,6.53,9.93,6.7,9.99,6.88l-0.04,0l0.02,0.01c0.09-0.16,0.11-0.33,0.08-0.51
		c0.14-0.03,0.13-0.13,0.12-0.24c0.11-0.01,0.11-0.12,0.17-0.18c0.02-0.1,0.04-0.2,0.06-0.31c0.02,0,0.04,0,0.05-0.01
		c0.01,0,0.01-0.03,0.01-0.03C10.43,5.6,10.42,5.62,10.42,5.67z M12.93,5.9c0.18,0.02,0.31-0.05,0.36-0.24
		c0.17,0.01,0.26-0.06,0.24-0.24c0.27-0.16,0.42-0.38,0.36-0.72c0.21-0.24,0.16-0.49,0.02-0.73c-0.07-0.22-0.23-0.23-0.43-0.19
		c-0.43,0.1-0.8,0.34-1.18,0.53c-0.39,0.2-0.58,0.48-0.68,1c-0.18,0.07-0.18,0.25-0.22,0.39c-0.08,0.32,0.04,0.49,0.36,0.53
		c0.33,0.04,0.66,0.01,0.95-0.18C12.81,6.03,12.93,6.05,12.93,5.9z M16.16,7.93c-0.15,0.07-0.2,0.21-0.24,0.36
		c-0.25,0.13-0.37,0.4-0.6,0.55c-0.39,0.26-0.79,0.45-1.23,0.09c-0.02-0.02-0.07,0-0.11,0c0.09-0.28,0.06-0.57,0.03-0.86
		c0.16-0.09,0.11-0.24,0.11-0.38c0.2-0.2,0.31-0.44,0.36-0.71c0.19-0.05,0.25-0.23,0.36-0.36c0.08,0.02,0.17,0.03,0.2-0.09
		c-0.1-0.02-0.2-0.05-0.19,0.1c-0.22,0.02-0.35,0.13-0.36,0.36c-0.27,0.16-0.37,0.41-0.36,0.71C13.96,7.79,14,7.94,14.04,8.08
		C13.8,8.35,13.86,8.63,14,8.92c0.16,0.37,0.47,0.38,0.79,0.31c0.53-0.11,0.91-0.43,1.17-0.91c0.14-0.08,0.21-0.21,0.24-0.37
		c0.11-0.06,0.12-0.15,0.1-0.26c0.21-0.2,0.28-0.44,0.23-0.73c0.23-0.21,0.11-0.46,0.08-0.7c-0.01-0.09-0.15-0.11-0.25-0.09
		c0.04-0.1,0-0.15-0.1-0.15c-0.28-0.01-0.54,0.08-0.89,0.17c0.4,0.15,0.69-0.14,1-0.03c0.13,0.11,0.16,0.25,0.15,0.41
		c-0.01,0.13,0.01,0.27,0.01,0.4C16.36,7.19,16.3,7.44,16.3,7.7C16.17,7.73,16.17,7.83,16.16,7.93z M1.52,9.52
		c0.11,0.29,0.32,0.48,0.6,0.61c0.1,0.19,0.29,0.27,0.47,0.3c0.2,0.04,0.45,0.14,0.63-0.09c0.22-0.12,0.13-0.32,0.09-0.47
		C3.2,9.39,2.96,9,2.58,8.68C2.31,8.46,2.04,8.37,1.71,8.45C1.24,8.56,1.16,8.77,1.42,9.26C1.4,9.37,1.41,9.46,1.52,9.52z
		 M11.73,9.5c0.11,0.02,0.2,0,0.24-0.12c0.4-0.06,0.69-0.32,0.92-0.61c0.31-0.39,0.46-0.83,0.17-1.32C12.77,6.99,12.5,6.87,11.99,7
		c-0.21,0.05-0.41,0.13-0.61,0.23c-0.55,0.27-0.89,0.7-0.96,1.31c-0.2,0.25-0.15,0.52-0.07,0.79c0.09,0.32,0.25,0.41,0.62,0.42
		C11.26,9.76,11.52,9.7,11.73,9.5z"/>
	<path fill="#1A1A1A" d="M16.29,22.8c0.03,0.06,0.02,0.11-0.08,0.17c-0.9-0.68-1.83-1.36-2.66-2.15c-0.83-0.8-1.63-1.62-2.46-2.45
		c-0.45,0.68-0.48,1.39-0.39,2.11c0.08,0.65,0.21,1.3,0.43,1.92c0.03,0.09,0.05,0.19,0.07,0.31c-0.46,0.57-0.92,1.14-1.38,1.72
		c-1.22,1.52-1.18,1.72-1.07,3.63c0.01,0.11,0.02,0.22,0.11,0.32c0.01-0.44,0.05-0.87,0.04-1.31c-0.01-0.6,0.16-1.14,0.5-1.63
		c0.58-0.84,1.24-1.6,1.91-2.46c0.2,0.39,0.38,0.71,0.54,1.05c0.12,0.25,0.36,0.44,0.35,0.74l0,0.02c-0.17-0.18-0.35-0.31-0.6-0.35
		c-0.2,0.21-0.14,0.44-0.09,0.64c0.07,0.29,0.19,0.56,0.32,0.83c0.67,1.37,1.23,2.78,1.51,4.28c0.19,1.03,0.09,2.06-0.23,3.07
		c-0.31,0.98-0.79,1.87-1.2,2.8c-0.32,0.73-0.57,1.49-0.95,2.2c-0.15,0.28-0.2,0.61-0.21,0.93c-0.03,1.04,0,2.08,0.32,3.08
		c0.09,0.28,0.13,0.58,0.21,0.87c0.07,0.24,0.06,0.48,0.05,0.71c-0.06,0.95-0.84,1.66-1.8,1.63c-0.41-0.01-0.67-0.22-0.85-0.56
		c-0.21-0.41-0.2-0.84-0.08-1.28c0.21-0.73,0.56-1.41,0.82-2.12c0.22-0.58,0.43-1.16,0.42-1.79c0-0.22,0.01-0.45-0.06-0.65
		c-0.1-0.31-0.17-0.67-0.55-0.8c-1.39-0.46-2.21-1.52-2.86-2.75c-0.7-1.34-1.08-2.79-1.34-4.27c-0.12-0.67-0.18-1.34-0.23-2.02
		c-0.08-1.22,0.32-2.32,0.87-3.37c0.45-0.85,1.08-1.57,1.67-2.32c0.65-0.83,1.16-1.76,1.67-2.69c0.36-0.66,0.6-1.39,1.08-1.99
		c0.12-0.58,0.48-1.05,0.79-1.53c0.35-0.53,0.74-1.04,1.13-1.54c0.29-0.36,0.64-0.66,1.06-0.91c0.46,0.33,0.9,0.69,1.51,0.88
		c0.12-0.66-0.2-1.27-0.01-1.89c0.27-0.24,0.61-0.27,0.94-0.16c0.85,0.27,1.73,0.46,2.52,0.88c-0.02,0.15-0.14,0.2-0.24,0.26
		c-0.61,0.42-1.17,0.9-1.71,1.4c-0.09,0.08-0.18,0.16-0.28,0.23c-0.34,0.22-0.61,0.52-0.83,0.85c-0.53,0.8-0.97,1.65-1.32,2.55
		c-0.02,0.05,0,0.11,0,0.22c0.23-0.21,0.32-0.45,0.44-0.67c0.32-0.58,0.63-1.16,0.96-1.73c0.27-0.47,0.62-0.88,1.06-1.21
		c0.47-0.34,0.92-0.71,1.38-1.05c0.91-0.67,1.91-1.15,3-1.46c0.5-0.14,1.01-0.2,1.53-0.05c0.06,0.02,0.11,0.04,0.16,0.07
		c0.03,0.02,0.05,0.06,0.11,0.14c-0.48,1.11-1.02,2.21-1.75,3.23c-0.49-0.29-0.94-0.56-1.42-0.84c-0.16,0.25-0.11,0.46-0.08,0.68
		c0.05,0.48,0.22,0.93,0.39,1.38c0.08,0.21,0.1,0.38-0.11,0.57c-0.31-0.22-0.61-0.47-0.94-0.68c-0.32-0.21-0.58-0.57-1.08-0.52
		c-0.07,0.89,0.28,1.67,0.57,2.47c-0.04,0.18-0.15,0.32-0.32,0.43c-0.68-0.49-1.24-1.13-1.97-1.53c-0.04-0.02-0.11,0.01-0.17,0.02
		c-0.19,0.85,0.25,2.56,0.88,3.45L16.29,22.8z M8.69,29.48c0.04-0.12,0.09-0.24-0.01-0.42c-0.07,0.19-0.02,0.3,0.02,0.41
		c0.06,0.89,0.11,1.78,0.17,2.67c0.01,0.11,0.06,0.18,0.16,0.22c-0.05,0.17-0.12,0.33,0.01,0.55c0.09-0.21,0.05-0.37-0.02-0.54
		c0.04-0.88-0.09-1.75-0.16-2.62C8.85,29.63,8.84,29.51,8.69,29.48z"/>
	<path fill="#1A1A1A" d="M10.39,2.75C9.98,3.24,9.61,3.67,9.24,4.11C9.2,4.07,9.17,4.05,9.17,4.04c0.26-0.95-0.24-1.23-1.23-1.5
		C7.79,2.5,7.62,2.53,7.46,2.53C7.1,2.52,6.86,2.7,6.72,3.03C6.4,3.8,6.15,4.61,5.99,5.43C5.85,6.16,6.13,6.42,6.89,6.35
		C6.95,6.34,7,6.31,7.06,6.31c0.04,0,0.07,0.02,0.15,0.04c-0.54,0.67-0.99,1.4-1.64,2.01c-0.5-0.45-0.68-1.03-0.9-1.57
		C4.46,6.26,4.3,5.71,4.09,5.18c0.04,1.05,0.51,1.97,0.99,2.94C4.78,8.1,4.61,7.97,4.43,7.87c-0.9-0.51-1.6-1.26-2.28-2.01
		c-0.36-0.4-0.69-0.83-1-1.27c-0.2-0.28-0.21-0.54-0.1-0.84c0.25-0.7,0.63-1.34,1.02-1.96c0.22-0.35,0.6-0.45,0.99-0.47
		c0.38-0.01,0.76-0.01,1.14,0C5.11,1.33,6.03,1.3,6.93,1.13C7.76,0.97,8.5,1.28,9.25,1.55c0.11,0.04,0.21,0.13,0.29,0.21
		C9.82,2.08,10.09,2.4,10.39,2.75z M4.03,4.89L4,4.86l0,0.04L4.03,4.89z"/>
	<path fill="#1A1A1A" d="M18.27,10.88c0.19,0.23,0.4,0.47,0.6,0.71c0.13,0.15,0.25,0.31,0.4,0.44c0.19,0.18,0.36,0.15,0.49-0.07
		c0.1-0.19,0.18-0.4,0.26-0.6c0.07-0.21,0.13-0.42,0.2-0.67c0.4,0.29,0.35,0.87,0.78,1.09c0.33-0.16,0.47-0.45,0.56-0.76
		c0.08-0.27,0.12-0.54,0.17-0.82c0.02-0.12,0.05-0.23,0.2-0.26c0.16,0.05,0.17,0.2,0.23,0.33c0.11,0.28,0.22,0.56,0.34,0.83
		c0.12,0.25,0.22,0.53,0.58,0.49c-0.07,0.74-0.33,1.56-0.64,2.1c-1.2-0.41-2.32-0.09-3.38,0.48c-0.43,0.23-0.79,0.24-1.23,0.03
		c-0.58-0.27-1.18-0.47-1.8-0.64c-0.45-0.12-0.9-0.14-1.36-0.06c-0.07-0.33-0.05-1.35,0.04-1.76c0.17-0.09,0.34-0.06,0.55-0.03
		c0.17,0.27,0.34,0.56,0.53,0.84c0.13,0.2,0.29,0.38,0.45,0.56c0.1,0.11,0.22,0.17,0.39,0.07c0.11-0.51,0-1.04,0.07-1.64
		c0.41,0.44,0.59,1.1,1.32,1.08c0.15-0.45,0.11-0.88,0.04-1.3C18.02,11.13,17.99,10.95,18.27,10.88z M21.02,12.18
		c0.3,0.19,0.3,0.19,0.52-0.05C21.36,12.12,21.19,12.11,21.02,12.18z M21.85,11.65c-0.07-0.01-0.12,0.03-0.13,0.09
		c-0.01,0.05,0.03,0.13,0.06,0.14c0.08,0.03,0.15-0.01,0.16-0.11C21.95,11.7,21.9,11.67,21.85,11.65z"/>
	<path fill="#1A1A1A" d="M31.53,11.31c-1.04-0.69-2.21-1.07-3.3-1.59c-0.36-0.17-0.73-0.32-1.13-0.5c0.35-0.3,0.74-0.43,1.14-0.54
		c1.42-0.38,2.88-0.63,4.33-0.84c0.79-0.11,1.57-0.24,2.36-0.34c0.19-0.03,0.39-0.09,0.58,0C35.19,8.03,33.63,9.52,31.53,11.31z"/>
	<path fill="#1A1A1A" d="M11.05,18.8c0.33,0.18,0.51,0.37,0.66,0.57c0.87,1.17,1.97,2.09,3.14,2.93c0.44,0.31,0.88,0.62,1.31,0.94
		c-0.5,0.77-2.16,2.09-2.95,2.34C11.66,23.63,11.04,21.38,11.05,18.8z M14.18,24.35c-0.06-0.03-0.11-0.06-0.17-0.08
		c0.02-0.15-0.08-0.26-0.16-0.37c-0.35-0.53-0.75-1.02-1.19-1.49c-0.17-0.19-0.37-0.36-0.44-0.63c-0.08-0.34-0.08-0.33-0.36-0.62
		c-0.16,0.3-0.16,0.3,0.08,0.54c0.04,0.04,0.07,0.1,0.08,0.15c0.04,0.23,0.19,0.39,0.33,0.56c0.28,0.33,0.57,0.67,0.86,0.98
		c0.27,0.29,0.45,0.65,0.79,0.87c0.02,0.1,0.09,0.11,0.17,0.08c0.01,0.01,0.02,0.02,0.03,0.02c-0.01,0.01-0.02,0.02-0.03,0.02
		C14.19,24.37,14.19,24.36,14.18,24.35z M13.24,24.9l-0.02,0.03l0.03,0L13.24,24.9z"/>
	<path fill="#1A1A1A" d="M24.11,5.31c0.31-0.47,0.81-0.75,1.19-1.15c0.1-0.1,0.23-0.17,0.31-0.28c0.41-0.55,0.98-0.78,1.63-0.9
		c0.88-0.17,1.75-0.38,2.64-0.53c0.53-0.09,1.04-0.25,1.61-0.38c-0.01,0.55-0.23,1.02-0.37,1.51c-0.14,0.48-0.32,0.94-0.48,1.41
		c0.04,0.08,0.19,0.09,0.17,0.22c-0.02,0.08-0.09,0.08-0.14,0.07c-1.03-0.17-2.06-0.25-3.1-0.22c-1.03,0.03-2.08,0-3.1,0.22
		c-0.11,0.02-0.24,0.01-0.36,0.01L24.11,5.31z"/>
	<path fill="#1A1A1A" d="M8.17,17.29c0.03-0.89,0-1.7-0.2-2.51c-0.02-0.07-0.04-0.19,0-0.23c0.28-0.25,0.16-0.54,0.1-0.83
		c-0.02-0.11-0.02-0.24-0.04-0.44c0.39,0.4,0.56,0.91,1.02,1.11c0.18-0.08,0.2-0.23,0.2-0.37c0.01-0.28,0.01-0.56,0-0.84
		c0-0.21,0.04-0.39,0.28-0.49c0.22,0.25,0.45,0.5,0.72,0.65c0.18,0.06,0.2-0.15,0.33-0.14c0.12,0.01,0.22,0.11,0.38,0.06
		c0.28-0.38,0.14-0.87,0.28-1.37c0.29,0.47,0.44,0.96,0.68,1.39c0.25,0.46,0.56,0.87,0.87,1.3c-0.2,0.3-0.51,0.45-0.75,0.7
		c-0.51-0.13-0.9-0.53-1.43-0.65c-0.17,0.59,0.03,1.11,0.23,1.68c-0.62-0.15-1.06-0.59-1.66-0.62C9,16.13,9.18,16.53,9.28,16.92
		c0.07,0.25,0.19,0.48,0.29,0.72c0.05,0.12,0.08,0.24-0.04,0.32c-0.08,0.07-0.18,0.06-0.28,0C8.9,17.74,8.55,17.52,8.17,17.29z"/>
	<path fill="#1A1A1A" d="M4.91,16.36c0.34,0.03,0.65,0.19,0.97,0.28c0.16,0.05,0.16,0.05,0.47-0.11c-0.66-0.53-1.34-1.01-1.91-1.6
		c-0.57-0.59-1.02-1.26-1.51-1.98c0.21-0.1,0.39-0.11,0.62-0.05c0.58,1.18,1.44,2.1,2.68,2.65l-0.02-0.02
		c0.13,0.21,0.31,0.29,0.55,0.22c0.13-0.14,0.05-0.26,0-0.39c-0.27-0.75-0.4-1.54-0.61-2.3c-0.02-0.07-0.03-0.16,0.04-0.25
		c0.19-0.01,0.35,0.06,0.48,0.24c0.19,0.28,0.39,0.55,0.59,0.83c0.04,0.06,0.09,0.14,0.1,0.21c0.15,0.9,0.34,1.8,0.37,2.71
		c0,0.04-0.02,0.07-0.04,0.11c-0.15,0.13-0.29-0.13-0.47,0c-0.16,0.58-0.03,1.15,0.25,1.69c0.18,0.35,0.21,0.67,0,1.05
		c-0.4-0.26-0.79-0.52-1.18-0.78c-0.08-0.05-0.16-0.13-0.26-0.03l0,0c-0.14-0.04-0.17-0.16-0.2-0.27c-0.18-0.72-0.48-1.38-0.87-2.01
		c-0.03-0.05-0.03-0.11-0.04-0.17L4.91,16.36z"/>
	<path fill="#1A1A1A" d="M5.12,24.95c-1.25-1.28-1.8-2.73-1.84-4.49c0.69,0.56,1.36,0.98,2.05,1.37c0.69,0.4,1.42,0.69,2.24,0.96
		c-0.38,0.71-0.98,1.18-1.39,1.81c-0.27-0.04-0.44-0.23-0.65-0.32c-0.12-0.05-0.26-0.14-0.39-0.01c-0.1,0.1-0.09,0.21-0.05,0.33
		C5.1,24.67,5.1,24.75,5.12,24.95z M5.53,23.74l-0.02,0.05l0.01-0.03c-0.11-0.08-0.23-0.17-0.34-0.25
		c-0.11-0.14-0.26-0.26-0.42-0.31c-0.25-0.07-0.12-0.37-0.31-0.46c-0.07-0.03-0.15-0.15-0.25-0.05C4.14,22.79,4.13,22.9,4.23,23
		c0.26,0.25,0.56,0.43,0.89,0.56C5.23,23.69,5.33,23.82,5.53,23.74z"/>
	<path fill="#1A1A1A" d="M14.37,11.73c-0.24,1.27,0,2.49,0.01,3.78c-1.43-1.1-2.35-2.5-2.98-4.16c0.53-0.11,0.99,0.13,1.47,0.17
		C13.35,11.57,13.84,11.66,14.37,11.73z"/>
	<path fill="#1A1A1A" d="M9.27,11.02c0.08,0.44-0.11,0.85-0.11,1.39c-0.33-0.32-0.43-0.68-0.69-0.96c-0.27,0.13-0.56,0.03-0.84-0.01
		c-0.97-0.12-1.28-0.07-2.11,0.41c-0.2,0.01-0.24-0.25-0.44-0.26c-0.05,0.57,0.04,1.13,0.06,1.71c-0.38-0.16-0.79-0.66-1.06-1.28
		c0.07-0.18,0.26-0.23,0.41-0.32c0.27-0.17,0.56-0.31,0.82-0.5c0.63-0.47,1.35-0.59,2.1-0.5C8.03,10.77,8.66,10.84,9.27,11.02
		L9.27,11.02z"/>
	<path fill="#1A1A1A" d="M8.64,20.9c-0.25,0.55-0.52,1.05-0.87,1.55c-0.42-0.22-0.69-0.56-0.89-0.94c-0.27-0.5-0.49-1.51-0.51-2.19
		C6.77,19.46,7.79,20.18,8.64,20.9z"/>
	<path fill="#1A1A1A" d="M9.17,19.84c-0.53,0-0.79-0.31-1.01-0.64c-0.39-0.6-0.67-1.26-0.78-1.98c0.14-0.12,0.22,0.01,0.31,0.07
		c0.5,0.33,0.98,0.69,1.54,0.91c0.18,0.07,0.36,0.18,0.48,0.41C9.62,19.03,9.37,19.41,9.17,19.84z"/>
	<path fill="#1A1A1A" d="M7.81,13.92c-0.09,0.03-0.15-0.03-0.2-0.09c-0.32-0.36-0.6-0.74-0.85-1.16c0.1-0.29,0.2-0.56,0.3-0.86
		c0.16-0.05,0.31-0.09,0.46-0.13c0.29,0.11,0.43,0.41,0.67,0.55c0.15-0.03,0.16-0.18,0.25-0.25c0.58,0.78,0.58,0.78,0.49,1.83
		c-0.53-0.33-0.58-1.08-1.22-1.35c-0.05,0.52,0.08,0.99,0.07,1.46L7.81,13.92z"/>
	<path fill="#1A1A1A" d="M16.3,22.81c0.07-0.21-0.04-0.39-0.09-0.58c-0.25-0.8-0.47-1.6-0.59-2.49c0.46,0.22,0.75,0.57,1.07,0.87
		c0.32,0.3,0.78,0.41,1.04,0.74c0,0.13-0.05,0.22-0.13,0.21c-0.29-0.05-0.44,0.13-0.6,0.31c-0.09,0.11-0.17,0.22-0.27,0.32
		c-0.14,0.14-0.2,0.26-0.1,0.48c0.08,0.19-0.05,0.24-0.33,0.13L16.3,22.81z"/>
	<path fill="#1A1A1A" d="M5.84,12.25c0,0.82,0.24,1.6,0.45,2.38c0.08,0.28,0.18,0.56,0.26,0.82c-0.11,0.15-0.24-0.03-0.34,0.06
		l0.02,0.02c-0.12-0.31-0.4-0.48-0.62-0.7c-0.46-0.46-0.92-0.93-1.28-1.48c-0.07-0.11-0.18-0.22-0.14-0.37l-0.01,0.01
		c0.15,0.13,0.29,0.27,0.44,0.39c0.2,0.16,0.42,0.29,0.71,0.26c0.21-0.42-0.02-0.86,0.07-1.28c0.14-0.09,0.32,0.03,0.45-0.09
		L5.84,12.25z"/>
	<path fill="#1A1A1A" d="M22.89,11.18c-0.2-0.47-0.4-0.95-0.6-1.42c-0.07-0.16-0.07-0.3,0.01-0.46c0.16-0.34,0.35-0.66,0.57-0.99
		c0.19,0.13,0.28,0.28,0.38,0.42c0.16,0.24,0.22,0.48,0.16,0.78C23.3,10.09,23.13,10.64,22.89,11.18z"/>
	<path fill="#1A1A1A" d="M9.61,11.03c0.45,0.04,0.9,0.03,1.37,0.2c0.02,0.57-0.09,1.12-0.15,1.67c-0.21,0.03-0.28-0.11-0.37-0.2
		c-0.4-0.37-0.64-0.85-0.85-1.34c-0.05-0.11-0.06-0.23,0.02-0.34L9.61,11.03z"/>
	<path fill="#1A1A1A" d="M21.15,8.96c0.35,0.21,0.45,0.52,0.36,0.91c-0.08,0.33-0.12,0.66-0.19,0.99c-0.03,0.17-0.07,0.34-0.25,0.48
		c-0.11-0.2-0.21-0.39-0.32-0.57C20.36,10.1,20.5,9.47,21.15,8.96z"/>
	<path fill="#1A1A1A" d="M18.12,20.18c-0.3-0.57-0.44-1.16-0.6-1.84c0.37,0.11,0.58,0.34,0.84,0.49c0.27,0.16,0.54,0.33,0.8,0.49
		C18.89,20.1,18.74,20.23,18.12,20.18z"/>
	<path fill="#1A1A1A" d="M19.83,9.94c0.19,0.12,0.25,0.26,0.29,0.45c-0.33,0.41-0.33,0.98-0.62,1.48c-0.39-0.31-0.62-0.72-0.94-1.1
		C18.95,10.42,19.42,10.24,19.83,9.94z"/>
	<path fill="#1A1A1A" d="M21.83,9.54c-0.16-0.27-0.26-0.52-0.49-0.71c0.29-0.32,0.56-0.62,0.84-0.91c0.29-0.29,0.23-0.36,0.84-0.27
		c0.13,0.17,0.21,0.36,0.26,0.61c-0.17,0.02-0.25-0.19-0.47-0.14c-0.21,0.14-0.35,0.4-0.51,0.65C22.16,9,22.15,9.34,21.83,9.54z"/>
	<path fill="#1A1A1A" d="M9.4,16c0.19-0.01,0.3,0.09,0.42,0.15c0.33,0.17,0.66,0.35,1.03,0.55c-0.25,0.41-0.49,0.8-0.71,1.16
		c-0.16,0.03-0.23-0.05-0.26-0.14c-0.21-0.51-0.41-1.03-0.52-1.58C9.35,16.1,9.38,16.06,9.4,16z"/>
	<path fill="#1A1A1A" d="M19.31,17.04c0.41,0.15,0.73,0.36,1.03,0.66c-0.19,0.32-0.37,0.63-0.66,0.93
		C19.46,18.1,19.35,17.6,19.31,17.04z"/>
	<path fill="#1A1A1A" d="M12.24,25.94c-0.28-0.33-0.41-0.67-0.51-1.12c0.51,0.23,0.91,0.49,1.33,0.8
		C12.8,25.83,12.56,25.93,12.24,25.94z"/>
	<path fill="#1A1A1A" d="M10.77,14.94c0.39,0.23,0.67,0.39,0.96,0.56c-0.1,0.32-0.32,0.48-0.53,0.72
		C10.93,15.85,10.88,15.45,10.77,14.94z"/>
	<path fill="#1A1A1A" d="M17.77,12.21c-0.36-0.19-0.58-0.48-0.76-0.84c0.25-0.1,0.46-0.18,0.71-0.28
		C17.9,11.47,17.77,11.84,17.77,12.21z"/>
	<path fill="#1A1A1A" d="M15.59,11.7c0.26-0.03,0.47-0.18,0.72-0.1c0.11,0.19,0.06,0.4,0.07,0.59c0,0.17,0.04,0.35-0.08,0.57
		C16.01,12.42,15.76,12.1,15.59,11.7z"/>
	<path fill="#1A1A1A" d="M9.62,39.93c-0.4-0.1-0.4-0.1-0.44-0.51c-0.16,0.03,0.03,0.25-0.16,0.26c-0.07-0.17-0.05-0.34,0-0.51
		c0.13-0.16,0.33-0.08,0.48-0.16C9.7,39.3,9.67,39.59,9.62,39.93z"/>
	<path fill="#1A1A1A" d="M10.96,39.83c-0.12-0.79-0.05-0.89,0.57-0.91c0.07,0.28,0.07,0.28,0.02,0.56c-0.06,0.13-0.18,0.13-0.3,0.17
		C11.15,39.68,11.06,39.76,10.96,39.83z"/>
	<path fill="#1A1A1A" d="M5.85,12.26c0.04-0.11,0.06-0.23,0.2-0.27c0.08-0.02,0.15-0.06,0.22-0.07c0.15-0.04,0.3-0.07,0.5-0.11
		c-0.01,0.28-0.1,0.48-0.22,0.67c-0.31,0.06-0.5-0.13-0.72-0.24L5.85,12.26z"/>
	<path fill="#1A1A1A" d="M6.49,0.91C5.87,0.93,5.24,1.09,4.61,0.94C5.23,0.89,5.85,0.8,6.49,0.91z"/>
	<path fill="#1A1A1A" d="M8.2,20.11c-0.42-0.24-0.42-0.24-0.24-0.66C8.17,19.63,8.4,19.79,8.2,20.11z"/>
	<path fill="#1A1A1A" d="M8.57,19.98c0.19-0.01,0.29,0.06,0.4,0.12c0.06,0.2-0.08,0.31-0.19,0.44C8.48,20.42,8.53,20.21,8.57,19.98z
		"/>
	<path fill="#1A1A1A" d="M5.96,24.88c-0.07,0.16-0.12,0.27-0.27,0.33c-0.17-0.16-0.25-0.37-0.33-0.67
		C5.6,24.62,5.77,24.73,5.96,24.88z"/>
	<path fill="#1A1A1A" d="M5.8,9.36C5.62,9.04,5.51,8.84,5.39,8.64c0.14-0.1,0.27-0.11,0.31,0.03C5.77,8.85,5.85,9.03,5.8,9.36z"/>
	<path fill="#1A1A1A" d="M9.94,12.62c-0.3-0.11-0.34-0.37-0.38-0.63C9.74,12.17,9.9,12.36,9.94,12.62L9.94,12.62z"/>
	<path fill="#1A1A1A" d="M6.99,22.39c-0.1-0.1-0.29-0.14-0.23-0.35C7,22.13,7,22.13,6.99,22.39L6.99,22.39z"/>
	<path fill="#1A1A1A" d="M20.36,9.61c0.04,0.14,0.03,0.27-0.08,0.38c-0.14,0.01-0.16-0.1-0.2-0.19c0.07-0.11,0.15-0.19,0.29-0.17
		L20.36,9.61z"/>
	<path fill="#1A1A1A" d="M6.03,18.8c0,0.1,0.12,0.2,0,0.31C5.93,19.01,6,18.9,6.03,18.8L6.03,18.8z"/>
	<path fill="#1A1A1A" d="M9.71,18.18c0.02-0.03,0.04-0.09,0.06-0.09c0.08,0.01,0.14,0.05,0.14,0.13c0,0.03-0.04,0.09-0.05,0.08
		C9.78,18.31,9.72,18.27,9.71,18.18z"/>
	<path fill="#1A1A1A" d="M3.35,12.16c0.04-0.01,0.08,0,0.09,0.05c0,0.03-0.02,0.07-0.03,0.1c-0.03-0.02-0.06-0.04-0.09-0.06
		C3.29,12.21,3.31,12.18,3.35,12.16z"/>
	<path fill="#1A1A1A" d="M24.1,5.3c-0.02,0.03-0.05,0.05-0.07,0.08c-0.04-0.1,0.05-0.05,0.08-0.07C24.11,5.31,24.1,5.3,24.1,5.3z"/>
	<path fill="#1A1A1A" d="M9.63,11.02c-0.12,0-0.24,0-0.36,0l0.01,0c0.11-0.01,0.23-0.06,0.34,0.01L9.63,11.02z"/>
	<path fill="#1A1A1A" d="M6.98,22.39c0.04,0,0.08,0,0.13,0c0,0,0,0,0,0C7.07,22.39,7.03,22.39,6.98,22.39L6.98,22.39z"/>
	<polygon fill="#1A1A1A" points="20.31,27.21 20.28,27.24 20.3,27.2 	"/>
	<path fill="#1A1A1A" d="M9.94,12.62c0.03,0.02,0.06,0.03,0.09,0.05C9.95,12.75,9.94,12.69,9.94,12.62
		C9.94,12.62,9.94,12.62,9.94,12.62z"/>
	<path fill="#1A1A1A" d="M12.19,24.77c0.04,0.07-0.06,0.05,0.02,0.03c0.04-0.01,0.02-0.04-0.02-0.02L12.19,24.77z"/>
	<path fill="#1A1A1A" d="M8.11,11.93c0.07,0.03-0.01,0.07,0.03,0.01c0.02-0.03-0.01-0.05-0.05-0.02L8.11,11.93z"/>
	<path fill="#1A1A1A" d="M8.1,11.92c0.04-0.01,0.03-0.02-0.01-0.01c0.01,0.01,0.01,0.02,0.02,0.03L8.1,11.92z"/>
	<polygon fill="#1A1A1A" points="20.37,9.62 20.39,9.61 20.36,9.61 	"/>
	<polygon fill="#1A1A1A" points="4.92,16.35 4.88,16.34 4.91,16.36 	"/>
	<polygon fill="#1A1A1A" points="7.79,13.93 7.78,13.94 7.81,13.92 	"/>
	<path fill="#1A1A1A" d="M4.19,12.97c-0.02-0.01-0.04-0.02-0.07-0.03c0.01,0,0.03-0.01,0.03,0c0.01,0.01,0.01,0.03,0.02,0.04
		C4.18,12.98,4.19,12.97,4.19,12.97z"/>
	<path fill="#1A1A1A" d="M1.55,9.49c-0.01-0.1-0.01-0.2-0.14-0.22c0-0.16,0-0.32,0-0.45c0.43-0.33,0.6-0.33,0.96-0.08
		c0.57,0.39,0.82,0.94,0.85,1.62c-0.4,0.07-0.73-0.12-1.08-0.25C1.95,9.89,1.75,9.69,1.55,9.49z"/>
	<path fill="#1A1A1A" d="M11.98,9.39c-0.11-0.01-0.22-0.04-0.24,0.12c-0.24-0.06-0.45,0.1-0.69,0.11c-0.35,0.01-0.52-0.1-0.58-0.43
		c-0.04-0.21-0.04-0.43-0.06-0.65c0.2-0.1,0.2-0.32,0.29-0.49c0.35-0.65,0.94-0.86,1.62-0.93c0.31-0.03,0.5,0.2,0.72,0.36
		c0.01,0.08,0.01,0.16,0.02,0.24c0.08,0.55-0.19,0.94-0.6,1.27C12.3,9.12,12.06,9.16,11.98,9.39z"/>
	<path fill="#1A1A1A" d="M12.94,5.91c-0.1-0.02-0.2-0.02-0.26,0.09c-0.36,0.04-0.72,0.14-1.07,0c-0.17-0.25,0.07-0.47,0-0.7
		c0.17-0.07,0.21-0.25,0.25-0.38c0.08-0.23,0.2-0.36,0.42-0.46c0.29-0.13,0.57-0.29,0.86-0.42c0.23-0.1,0.48-0.19,0.74-0.04
		c0.01,0.23,0.02,0.47,0.02,0.7c-0.2,0.2-0.28,0.46-0.36,0.72c-0.14,0.02-0.22,0.1-0.24,0.24C13.14,5.68,13.02,5.77,12.94,5.91z"/>
</g>
</svg>
