<?xml version="1.0"?>
<svg xmlns="http://www.w3.org/2000/svg" version="1.2" baseProfile="tiny" width="800" height="1109" viewBox="0 0 800 1109" stroke-linecap="round" stroke-linejoin="round">
<g id="CityBoundaries">
<path d="M 719.3192 17.9001 711.4829 29.8492 695.318 42.7331 694.7554 73.4073 694.8753 210.6016 698.5222 211.1643 693.7971 260.4728 707.3614 255.6857 764.1345 255.7961 764.1869 269.1407 798.3317 269.7994 799 304.5594 786.7319 306.9363 785.2581 349.9189 764.2754 350.1295 762.485 383.4775 749.1064 385.4679 748.999 396.6368 720.5341 396.092 720.7617 430.4037 763.8639 430.3324 763.4673 466.5356 756.6156 466.4816 756.9857 538.3087 701.0846 537.9609 697.2251 550.1781 698.9483 609.9433 697.598 642.2922 703.6797 667.4009 729.0714 674.2348 712.9368 681.0499 691.2832 718.6279 691.6223 752.5103 695.7129 801.3033 690.3063 811.4273 692.1164 826.5274 682.3257 887.1027 677.7591 897.8001 651.736 936.2365 636.126 969.0187 631.4953 1005.1358 633.8842 1017.3363 629.7848 1095.9759 609.3618 1107.9987 581.1957 1058.3174 568.3284 1065.498 545.015 1024.7677 541.4874 1026.6495 517.3415 984.3739 477.5347 1007.2793 463.0979 983.2184 438.453 995.773 371.3092 995.1485 381.5247 971.6325 322.2156 971.1907 321.1343 981.4808 258.9457 982.4716 215.893 1007.9799 134.6067 916.4738 149.2027 900.5077 167.2157 898.3851 166.3925 881.1466 182.3395 880.4452 181.9142 825.4699 153.2606 822.9288 152.852 811.2097 145.0703 799.8559 146.3515 788.3409 126.8788 787.9669 127.3189 777.1605 109.467 777.2987 110.0915 739.0894 119.0797 725.5021 103.9147 725.3433 100.7869 760.2649 90.1137 759.0678 89.7917 777.1253 70.9635 778.7468 70.945 756.8582 42.1627 754.483 42.3447 725.1841 9.0319 719.5935 1 704.6425 3.6778 692.9656 16.535 675.3374 14.8737 654.5323 6.7186 648.6082 10.0134 636.8065 1.3757 599.7442 8.9701 587.6002 34.6079 581.6325 46.4723 569.314 61.276 579.6108 70.243 561.1375 61.9226 551.3398 71.0686 531.9066 49.0744 535.3332 59.3218 510.9995 60.3476 488.9238 75.271 490.869 87.5912 469.7403 69.6527 447.8334 75.246 443.4391 96.6176 461.8995 102.7251 454.5481 108.2091 432.1385 129.2941 431.656 142.4982 429.7668 154.4793 429.6223 219.2648 419.7811 221.9011 392.1577 227.2116 382.4881 262.7653 353.7076 284.962 345.9139 287.4595 295.2338 295.5937 288.3486 319.1089 289.72 320.6678 287.6415 333.0946 279.4016 334.0784 255.154 342.4601 254.5255 342.9934 239.2706 329.836 232.897 346.3768 218.5796 365.6673 213.7958 383.2079 213.8593 384.9822 167.1732 475.8958 167.4699 475.035 128.3479 434.952 128.5744 435.0115 113.3242 414.5267 113.2814 414.4999 70.3144 451.6782 67.5615 669.0411 7.023 708.7163 1 713.9541 8.0992 719.3192 17.9001 Z M 295.4241 513.624 294.2517 577.0123 273.6149 576.9822 273.3198 596.9121 282.3293 612.0851 282.0676 661.6712 300.1135 661.748 317.2128 672.1046 342.1014 673.3406 343.7393 533.2955 389.0643 533.9477 388.5525 520.0722 375.9328 516.7541 343.7901 517.3555 344.0468 463.0895 273.9618 462.5887 275.6596 512.8223 295.4241 513.624 Z"/>
</g>
</svg>