<?xml version="1.0"?>
<svg xmlns="http://www.w3.org/2000/svg" version="1.2" baseProfile="tiny" width="800" height="994" viewBox="0 0 800 994" stroke-linecap="round" stroke-linejoin="round">
<g id="CityBoundaries">
<path d="M 573.1127 897.5373 567.8163 920.2232 559.5168 931.8768 543.7037 910.3703 544.7109 900.7081 573.1127 897.5373 Z M 628.965 888.2773 653.1731 894.8611 672.0605 886.2592 704.3861 877.8124 712.1876 883.0203 713.752 898.6313 707.7519 907.4417 715.7724 918.2765 728.4017 920.3584 747.2922 904.9531 749.4158 919.6566 762.4761 916.6824 778.3155 903.8 787.3596 922.5888 784.9264 932.5847 709.0702 992.7427 648.8923 968.9789 633.0377 964.9639 616.7063 955.3211 589.8833 945.4664 597.7138 932.1465 615.1335 914.5721 608.4667 900.1021 612.6652 882.7597 628.965 888.2773 Z M 572.6051 684.9652 580.7325 698.1092 614.1339 720.9159 625.8744 741.2089 634.4222 737.9463 645.1588 749.1156 656.4802 777.4492 671.0956 783.4701 665.4302 800.7572 653.6594 804.1129 655.6707 821.6504 646.5659 837.6642 618.6871 821.5898 593.2396 832.1692 575.5447 821.3012 583.5002 860.5351 579.4571 873.6498 584.0142 884.9249 558.2916 888.0106 537.4414 902.7344 486.9275 842.5107 438.5058 782.0721 411.2741 766.9256 433.7832 740.6534 438.4572 716.173 450.4293 718.751 454.7657 730.1241 483.6874 729.2434 492.962 707.0905 504.5549 724.6728 528.1389 721.0809 521.4331 701.141 524.1432 692.7592 548.6469 691.5745 563.7535 696.4772 572.6051 684.9652 Z M 785.923 1 797.287 1.8287 797.973 210.4334 797.6464 361.805 799 465.8803 797.7797 512.8932 797.9975 679.9955 798.8851 748.2807 784.5122 754.6958 758.9047 719.4983 772.6887 661.9406 767.1433 657.276 752.267 689.124 735.4788 679.3336 697.8183 650.6012 696.4159 633.3128 684.7097 640.262 669.2324 629.72 661.2562 646.2318 626.5814 641.1272 615.7132 632.02 616.1211 612.3448 626.9972 611.9259 625.4229 576.5036 619.0526 574.8123 617.0949 544.2181 576.0198 535.9668 574.8355 524.6281 552.0601 506.1785 542.4055 505.0592 546.1046 526.2917 536.3779 526.8128 526.0514 513.9204 507.2104 529.4174 486.9575 526.5642 488.5089 515.2362 437.7718 492.6064 438.557 511.1936 455.9575 512.57 466.959 520.5257 465.2363 536.1206 475.1166 552.3835 502.6753 561.7585 506.6792 552.1978 531.0639 546.5318 536.2354 561.9611 560.7484 587.279 586.0555 604.7353 588.5998 615.15 575.6045 628.6928 564.7285 617.5555 557.9307 626.7663 535.0241 630.5808 506.9279 618.1537 486.8983 612.4674 478.7146 603.3844 461.1842 623.1742 466.0116 637.9984 455.2272 654.4895 433.0114 645.7856 430.7828 632.9391 396.7622 617.8633 399.4046 607.1589 394.9397 592.3796 396.2455 565.4114 386.3233 556.7569 370.9821 586.4487 380.2599 594.3443 363.5403 617.139 356.301 639.0964 364.4426 649.7233 385.6253 664.1996 415.8544 659.1587 422.5676 663.3582 438.6369 693.7607 438.5141 705.8932 429.8907 715.8327 423.1138 742.8689 409.0943 764.0958 346.8071 731.0268 295.808 699.7425 282.4521 693.3003 167.6266 629.6519 62.6146 567.7138 2.6586 535.3918 1.8835 530.2454 2.2332 366.9967 3.0268 302.9004 1 292.1936 1.2217 214.1736 3.2097 203.8736 1.639 129.6085 2.5198 105.5598 1.283 30.9552 2.1075 2.4637 199.7678 2.2225 244.6919 1.6233 345.6486 2.2826 446.8993 1.1763 499.0252 3.4043 554.5498 1.6861 773.2194 1.5777 785.923 1 Z"/>
</g>
</svg>