<?xml version="1.0"?>
<svg xmlns="http://www.w3.org/2000/svg" version="1.2" baseProfile="tiny" width="800" height="1230" viewBox="0 0 800 1230" stroke-linecap="round" stroke-linejoin="round">
<g id="CityBoundaries">
<path d="M 245.192 23.4494 245.1156 90.0411 280.1841 90.1589 280.1891 126.968 380.914 130.2391 415.2251 129.0395 416.8511 199.9954 485.2558 199.2041 484.6918 165.4422 569.1246 165.0171 570.6924 238.2316 537.8778 270.3672 584.4605 269.4185 552.8994 314.7541 552.9132 340.6619 624.3199 338.215 624.3834 310.769 648.8412 278.6142 659.7065 291.0076 695.9852 289.4885 695.981 307.3407 663.2024 307.3088 666.2017 336.3101 659.2669 346.6689 657.4656 419.4629 727.6345 415.8963 727.5073 443.7171 796.0999 444.5547 794.3526 568.4629 799 588.7134 719.9793 614.9477 695.8515 616.7756 695.8034 634.9354 667.5156 635.0636 659.346 686.5781 658.703 792.393 521.7752 790.5059 495.6491 797.2561 495.8056 807.4657 450.9268 807.6361 453.0377 825.5642 448.0565 953.7213 448.1189 1071.2927 537.1134 1071.2563 552.7618 1078.6603 619.6285 1134.4347 645.2452 1146.8857 644.8602 1228.8875 510.5247 1197.7707 510.1707 1172.4015 479.0083 1172.1068 479.0788 1190.3912 448.0882 1174.2711 176.0113 1171.217 161.764 1153.4161 184.9211 1137.0213 176.9948 1116.4758 162.005 1107.0124 100.9193 1156.0387 119.1475 1194.9991 103.1306 1212.1913 71.0831 1159.0061 56.3103 1109.9805 66.2182 1087.9326 47.2442 1035.1939 32.6179 1007.7688 38.1345 963.9734 53.962 945.6298 62.7069 921.8503 98.3808 923.2121 116.1627 909.8949 119.207 857.1765 131.2902 847.9328 138.7862 825.834 154.0716 812.1973 186.7476 770.945 182.8066 760.8312 199.3716 735.619 218.526 720.779 196.9766 694.4345 253.0645 634.8591 248.1214 625.7454 220.4841 643.9399 193.2799 672.2174 181.0903 645.2203 200.3505 625.4402 178.8911 618.2641 170.9789 602.2368 183.9132 580.648 152.3821 563.7395 143.5944 576.8497 158.4402 588.2172 163.4395 615.5009 136.1575 605.0335 142.6075 591.7016 124.8723 579.2657 106.4268 587.1037 87.6343 575.0693 103.3201 557.0895 92.1604 527.8023 53.0013 508.6539 71.0336 499.1166 81.1246 477.5105 105.4322 473.4926 105.4372 460.9182 80.644 461.1195 40.5178 448.9677 42.9598 322.6782 107.7656 321.708 108.0318 305.4426 36.84 265.5624 1 232.3467 74.1407 231.7997 105.7668 233.976 104.3146 127.4115 124.386 127.2746 123.5297 25.2578 106.0073 25.2994 106.0334 6.4569 175.6328 6.2679 175.6467 1 245.2134 1.8389 245.192 23.4494 Z"/>
</g>
</svg>