<?xml version="1.0"?>
<svg xmlns="http://www.w3.org/2000/svg" version="1.2" baseProfile="tiny" width="800" height="1260" viewBox="0 0 800 1260" stroke-linecap="round" stroke-linejoin="round">
<g id="CityBoundaries">
<path d="M 615.1761 106.5145 654.5865 108.406 665.5856 134.1066 661.4684 211.2147 692.1819 211.7185 692.98 262.7546 790.0627 264.2633 783.7019 348.5571 792.5092 497.1135 799 508.3719 770.677 659.7557 737.1832 925.552 780.4072 927.6097 781.8019 968.8212 730.1293 973.0884 717.1216 1061.3143 683.0073 1070.1965 654.7327 1162.0829 627.6919 1149.0171 514.7664 1150.8781 486.1206 1190.1656 424.0496 1213.9174 392.4823 1257.6405 140.9464 1259.3491 19.4611 1257.2622 5.9523 1230.2812 1 1048.9026 240.1847 1041.7712 238.2777 845.2943 214.2122 844.6556 209.0593 680.0056 185.5803 679.0542 209.18 574.218 207.9941 477.8442 254.3503 476.5425 257.0063 315.6359 210.8193 316.5552 213.0685 242.9492 188.6061 243.9965 186.9538 294.3242 165.848 340.0424 112.9006 341.6675 56.9794 384.8702 56.2241 428.3929 4.8722 428.2565 5.2774 296.3982 58.5529 296.4073 31.3957 257.4171 56.1598 189.2728 90.0816 184.0612 116.5424 218.3721 177.2465 216.8612 179.6346 165.2441 118.7296 166.7123 120.8529 117.0656 95.8982 116.722 98.2133 62.4537 121.6329 62.4703 123.9344 5.6926 501.9681 1 509.2985 118.6379 561.8965 119.6086 615.1761 106.5145 Z M 458.0407 211.9268 458.0709 258.7948 490.9534 258.806 490.8342 211.9235 458.0407 211.9268 Z"/>
</g>
</svg>