<?xml version="1.0"?>
<svg xmlns="http://www.w3.org/2000/svg" version="1.2" baseProfile="tiny" width="800" height="845" viewBox="0 0 800 845" stroke-linecap="round" stroke-linejoin="round">
<g id="CityBoundaries">
<path d="M 550.7582 646.4181 530.8428 651.3597 507.9909 723.6159 482.26 718.7029 465.8355 698.841 426.6645 705.094 394.7529 731.5061 347.8471 784.1923 262.0143 814.1107 222.8907 843.643 152.8332 645.6265 117.0674 645.6316 117.0238 606.9671 138.5016 606.9666 111.7598 529.5075 81.9073 289.3581 1 270.8618 1.0396 219.4162 71.1601 219.4556 65.7609 159.4321 269.3698 162.8806 270.4801 112.7912 316.9395 65.5651 291.2085 4.7586 699.4447 1 796.7418 155.8604 799 334.2331 769.7589 381.7685 730.7398 362.2262 713.0986 397.125 643.9974 474.6247 655.8627 485.1407 628.3479 516.9214 648.5451 535.6161 550.7582 646.4181 Z"/>
</g>
</svg>