<?xml version="1.0"?>
<svg xmlns="http://www.w3.org/2000/svg" version="1.2" baseProfile="tiny" width="800" height="993" viewBox="0 0 800 993" stroke-linecap="round" stroke-linejoin="round">
<g id="CityBoundaries">
<path d="M 249.5074 28.2822 276.4436 28.8259 276.5403 46.1707 259.788 45.8378 259.8282 93.2866 257.0728 98.2259 224.8267 97.8122 225.0629 115.3539 258.8355 115.7682 254.4817 133.9314 236.1926 133.774 234.4842 123.6666 223.9042 123.9056 227.5663 137.1562 227.2253 155.3498 239.0468 161.0638 275.8773 162.2645 309.1711 160.9655 386.7129 161.3743 387.3508 125.5382 380.3974 125.4565 380.43 107.4257 384.6118 104.2024 384.9221 81.236 399.4933 81.3893 399.1829 70.2036 381.1685 64.1356 388.2276 47.1749 396.7142 47.3618 397.5329 34.0559 415.7913 34.0835 415.999 7.9033 434.0849 8.376 434.4319 19.3747 447.2586 19.1951 456.9078 28.9592 476.3055 42.5193 485.804 44.3344 485.8588 26.1693 503.2477 26.029 503.4862 44.5969 495.2399 50.1208 519.0419 60.8947 518.7551 90.1881 538.1007 92.5055 538.981 122.7148 528.3399 136.8316 520.1856 136.859 521.2473 169.8502 503.1462 164.2262 503.1493 172.4622 519.157 172.5948 519.6739 181.5693 532.5508 182.3645 533.1692 194.1834 552.6881 195.1807 560.4992 202.904 573.4756 201.6445 574.2415 230.9183 558.0918 230.7837 556.4156 248.0336 546.0061 248.1158 539.0102 254.9067 538.5487 228.9904 521.4197 230.9072 521.5236 273.2044 530.2817 268.4759 536.0297 281.7215 558.8151 282.1127 561.2171 294.2999 557.0717 306.9221 556.9865 340.1249 586.7023 356.2433 612.9687 346.2434 621.2986 349.3358 630.0433 345.0215 638.4071 350.2 639.5241 299.5557 644.6466 317.3039 663.3152 318.6404 675.9207 346.7568 654.0905 347.798 648.9924 359.775 629.9954 347.6359 613.8556 374.428 610.5138 387.3047 626.7744 386.2278 632.3821 403.5106 655.4589 416.6534 634.2298 422.2691 634.1988 428.169 620.7533 439.1638 609.9807 439.2007 609.7964 455.4375 596.6594 456.4301 592.2239 473.634 620.6567 476.2185 636.8084 480.1199 636.8381 490.5336 558.0436 491.9973 558.161 575.6422 572.4688 572.914 594.3941 561.4074 659.4279 505.8685 676.7494 496.3456 701.8338 493.3422 714.6448 499.8717 730.2269 512.1822 783.6782 525.7118 787.2504 540.6681 799 559.1005 778.6264 572.5819 743.6753 535.1767 723.3014 516.6027 695.4734 516.9389 693.313 511.0363 674.5903 510.2342 650.1073 530.0617 627.9216 545.2084 603.2311 572.8702 579.1914 592.6243 557.0496 591.7787 556.4621 600.2596 569.1388 600.8617 595.0401 588.561 626.5841 554.5967 626.3618 580.6862 643.4184 580.7061 642.9309 612.4268 636.8796 612.4078 636.4144 637.284 627.0334 637.0323 627.1525 647.8631 585.7095 648.0269 585.2549 595.585 570.9088 601.4122 556.4909 600.8449 557.4264 647.5496 573.9912 648.3028 573.636 680.8437 643.4811 682.2615 643.8691 659.5391 663.9553 658.5624 663.8442 666.0502 683.5118 667.111 683.1949 686.5669 645.8639 685.0174 509.1563 682.1759 514.2399 712.5417 526.3426 712.3396 529.101 718.6412 551.8286 750.4272 507.9365 748.8263 507.7201 733.3714 490.8618 733.1856 490.9184 785.2536 436.344 784.1491 436.4314 795.0903 446.5004 801.7657 446.5536 819.2111 421.8251 818.999 422.2574 853.4438 386.8104 852.9899 386.3389 872.5123 374.2653 872.6607 373.0723 879.8892 374.47 922.431 377.0798 948.755 382.7517 955.3793 383.0694 969.3281 375.146 980.5089 376.4922 992.2559 354.4221 991.7314 353.6631 974.3913 320.1384 973.8434 320.3351 957.1895 353.0615 957.6748 352.9219 929.6719 370.6557 922.3442 334.1766 917.0635 334.1789 904.3956 317.89 904.2099 317.7623 885.124 302.0207 885.115 302.1627 938.2814 284.9327 938.0551 285.1476 957.8175 249.0349 957.5535 248.9054 920.509 235.0729 920.2722 235.0819 902.4189 161.6658 902.8862 161.6994 920.2213 144.5168 920.2129 144.3168 902.0573 109.4925 902.5933 109.3258 885.6897 56.7338 885.68 56.4598 868.2297 91.4443 868.1602 91.1433 850.8297 143.4261 850.55 142.3682 780.8103 212.2495 780.4079 211.3438 710.6397 161.5184 711.9689 158.6997 701.2028 163.747 695.3883 176.5485 695.5463 176.4295 676.7862 210.8927 676.3382 210.5678 652.2828 181.3313 663.4981 175.2184 653.229 175.1531 624.0123 194.0011 621.8614 157.6437 606.2756 157.7445 623.942 141.0851 624.0343 141.4778 658.9977 112.0091 658.9772 111.8409 624.0954 122.3668 624.0761 122.2314 611.7294 141.1057 611.7595 141.0143 605.7446 155.2496 601.717 174.6322 608.9263 174.7388 588.9384 157.6602 589.1274 157.1461 570.8084 129.366 583.742 102.5388 586.3273 115.6299 596.6715 122.1716 606.4385 95.9428 604.1264 62.5266 624.0419 37.8856 623.8418 38.5639 604.795 50.8552 604.8616 50.3396 570.9867 55.0009 565.6724 30.4918 554.5499 10.4332 534.1012 87.034 535.4818 86.926 522.0654 53.744 518.0255 52.9849 475.2668 45.7274 475.2876 45.4605 500.1485 33.3338 497.1654 33.8802 466.0165 1 465.564 1.0156 453.2556 28.5144 455.7259 35.1512 446.1932 34.7268 430.9774 1.0017 430.567 1.2816 286.1439 18.0686 286.2606 17.5596 309.0156 47.2115 309.501 57.2711 334.8772 54.2651 342.3613 34.5803 342.3391 34.7247 325.4261 17.0764 325.3044 17.4321 413.6888 70.6309 414.1759 70.6349 430.7918 87.7221 431.1064 87.5741 443.7311 95.7936 443.7536 98.0557 431.2652 122.9415 431.4269 122.3873 412.7385 118.498 399.7936 141.1171 408.941 140.8632 370.3465 170.382 376.0052 168.0847 368.1274 146.6149 369.0082 145.0456 352.0075 152.6221 350.6607 163.7567 358.2046 163.9822 342.7306 184.9144 332.4517 183.7015 360.2575 188.457 376.7949 209.5228 372.5483 209.2487 305.4953 190.2415 324.8668 175.3939 336.4313 162.1109 342.2689 144.97 339.5022 131.4072 325.4944 123.81 310.3064 103.2923 288.4197 105.3653 278.5837 114.5319 278.6497 114.592 267.3007 124.608 257.462 139.1587 257.8723 138.9325 242.6571 156.3362 225.4219 176.1681 223.4792 175.546 251.7792 210.0038 251.6911 209.9781 222.887 197.0045 210.331 221.8641 205.8703 221.8392 193.0151 212.8997 192.7319 200.2785 205.5074 190.4014 205.4438 182.7274 224.659 176.1516 216.3129 178.1841 193.8275 199.9794 188.2537 217.7158 188.3362 225.7655 160.3422 216.8859 156.6775 189.5328 139.1001 178.457 134.2433 178.7616 110.9413 191.6922 110.9066 190.9303 1 206.3159 14.1094 206.2674 35.4688 225.1315 34.5538 238.1319 44.9166 248.3918 45.6362 249.5074 28.2822 Z"/>
</g>
</svg>