<?xml version="1.0"?>
<svg xmlns="http://www.w3.org/2000/svg" version="1.2" baseProfile="tiny" width="800" height="978" viewBox="0 0 800 978" stroke-linecap="round" stroke-linejoin="round">
<g id="CityBoundaries">
<path d="M 527.8534 1 535.6971 28.9225 545.0003 41.903 542.8045 49.5641 548.1344 68.055 547.839 88.9882 553.6006 97.2161 555.9595 113.3394 563.5857 119.7267 563.8198 128.4609 570.1848 141.303 577.443 147.4783 591.3037 149.9643 592.4153 155.4014 586.601 159.9977 582.706 156.0093 573.2073 157.5112 573.2377 173.9151 581.0862 200.2992 575.1743 202.6754 581.5968 215.5713 587.3843 214.1228 594.0575 231.7642 592.8684 239.8591 595.8219 250.8028 595.0662 256.6807 597.9398 268.7663 601.8265 277.0467 609.2836 283.0556 604.2559 292.378 606.5457 307.766 609.2632 313.373 615.8352 315.5016 625.9118 335.9566 630.0845 334.4786 633.4528 327.9219 648.1038 327.5957 648.141 335.4792 633.8557 335.8672 634.4146 345.8878 626.8672 349.3801 627.0876 357.5884 621.1003 363.6942 621.4647 398.3297 628.1842 399.8959 628.4133 403.902 641.9275 404.9351 638.404 410.6232 641.1492 416.1626 639.3171 421.6955 640.0916 438.6327 633.8466 436.8555 634.5496 429.7426 631.8403 420.7951 633.8865 410.6037 628.3871 406.2481 626.9235 413.1033 629.2463 420.9708 628.0425 430.8784 631.5477 435.1546 634.8468 444.1768 635.1543 460.9467 637.421 470.459 641.0467 475.7867 641.3997 481.5562 646.6042 491.5753 650.1772 503.8533 654.599 508.1931 661.0214 523.4137 666.378 528.57 671.6115 540.9602 677.6096 546.8612 681.7696 558.318 691.021 565.9437 689.3877 573.1373 691.6656 580.6817 699.9437 587.6425 693.9217 590.0025 692.2185 596.1314 697.8288 605.1174 696.4846 610.4753 698.2609 616.8187 704.4945 622.0092 705.5124 629.2424 713.9294 637.9939 718.2354 645.0056 723.3521 648.2885 724.7918 655.0598 729.1062 657.2373 728.4711 663.7112 736.6364 673.6347 749.6216 681.3364 755.5853 681.6324 760.9732 678.8204 766.7498 686.4523 760.7851 691.1841 761.6986 698.775 767.9797 700.4185 785.7141 710.5304 789.4837 746.3778 788.5168 750.3335 798.1783 772.4254 795.9818 784.1525 798.1115 788.7156 790.3618 792.9063 794.3232 801.9811 790.9901 805.4141 799 812.3855 797.0837 818.5875 798.2157 826.7195 797.5051 861.3448 797.7389 958.9447 797.9989 976.3504 753.049 976.7759 683.3777 976.2067 619.6868 976.6151 619.6808 962.5991 611.7732 961.5662 614.8081 953.2832 617.5877 939.1971 614.6364 933.9462 605.2703 933.5371 593.2136 943.3258 573.4615 943.4842 562.3322 944.6527 561.9464 928.7236 573.0802 928.5013 572.6071 909.7003 535.0923 910.2297 534.687 891.6323 486.5529 892.4814 487.9046 886.5891 487.5258 873.7405 468.7309 874.0829 468.563 864.5573 461.3318 864.8067 459.2449 874.266 449.8801 874.4539 450.1261 883.7553 438.429 884.1082 438.1375 874.6855 384.3569 875.8137 383.8471 857.2493 421.2124 856.164 419.7165 799.708 436.1649 799.3999 438.6219 804.0555 438.9474 818.0076 457.8052 817.7486 457.7186 815.4309 476.5031 815.1389 476.282 798.7378 495.3127 798.4771 494.0558 742.1402 381.4106 744.6128 381.6761 738.5781 379.4334 640.8312 303.5995 642.7198 266.6861 643.4056 265.2392 588.9943 264.3342 581.1734 275.9733 577.1155 359.2032 575.3044 358.516 541.132 374.2229 534.5645 374.2436 519.1405 376.9511 518.6646 386.3378 518.767 385.9038 480.7564 384.0273 405.7754 318.3529 406.9695 315.7399 294.0615 257.8979 294.8554 256.3536 228.8374 237.6235 229.3083 237.3965 219.96 173.977 221.4934 169.52 215.7021 163.1953 193.2957 165.3868 185.271 177.5674 184.4052 178.3093 173.8837 158.0579 174.9141 156.2861 170.7432 162.56 155.0625 163.5834 142.0231 165.4594 133.4382 163.1228 130.6144 155.1508 133.0578 149.8942 128.558 114.245 129.0598 114.7348 170.2124 90.7255 167.6373 91.2862 186.6492 82.8536 186.8164 61.5862 183.6192 49.7255 179.2366 49.7593 170.8015 35.3217 166.8964 35.197 178.7289 27.4577 176.408 27.1731 165.0588 16.31 162.7162 16.1429 150.3104 1.6512 150.4703 1.2272 76.0915 6.1036 66.4622 1.106 64.1034 1 56.8977 10.7525 56.5098 10.4326 38.285 14.1834 38.2338 14.4681 45.4222 21.1509 46.7526 29.1276 40.6446 38.5769 46.3277 62.7961 46.3072 63.1329 35.8133 72.6471 36.4418 84.7943 44.7217 89.0695 44.8715 96.7397 53.6212 85.4118 53.7155 85.5356 59.4803 91.4788 59.9574 107.4361 64.2152 107.4104 72.1837 115.9064 71.9379 123.0462 97.4444 123.737 104.4069 127.8385 119.6828 124.0668 119.6979 123.7975 126.7067 149.5849 126.7397 151.9807 121.0256 162.3003 108.2688 160.7099 98.1022 162.9742 90.3949 174.4128 89.9836 224.6127 99.8748 228.3499 68.0657 228.7422 30.6705 231.6577 30.6073 231.0359 19.9899 228.861 11.8954 256.9516 11.1176 256.4694 56.128 269.7572 56.0928 274.9076 57.6214 288.1619 58.1287 302.5291 49.1913 301.5888 45.8073 291.0551 29.1473 309.564 29.1959 309.4688 20.0491 313.6746 20.2678 313.617 29.2262 320.5105 29.3228 326.0588 43.7892 331.1802 47.9378 331.6266 38.4077 342.8728 38.4743 341.6831 55.8119 359.5983 67.1403 428.4308 67.2656 443.0665 67.0168 443.3911 33.2199 444.425 10.9343 480.1852 9.9655 512.0411 10.3895 504.6898 1.1874 527.8534 1 Z M 205.9083 102.1621 202.0949 104.5506 201.9568 110.1728 214.1696 110.3175 211.855 118.3529 222.4513 121.6976 224.2346 103.5243 215.3819 106.5255 215.3129 101.5731 205.9083 102.1621 Z M 206.5914 164.7624 208.1926 183.222 254.6294 181.77 255.1778 178.9379 280.2989 162.9888 294.4836 162.6415 294.5856 141.4764 292.2148 140.3377 264.3927 140.5832 255.5137 141.8053 255.7178 125.6469 236.8382 126.2487 236.7488 135.604 233.2836 135.4986 232.0771 126.4085 218.0198 126.8642 208.4444 129.3632 204.9457 123.3199 196.1179 127.3152 196.586 133.4494 180.0503 132.1969 179.9739 146.435 198.9035 145.9917 198.8315 164.6485 206.5914 164.7624 Z M 468.2066 854.8253 477.7153 853.6027 477.279 836.325 467.7471 836.3849 468.2066 854.8253 Z"/>
</g>
</svg>