<?xml version="1.0"?>
<svg xmlns="http://www.w3.org/2000/svg" version="1.2" baseProfile="tiny" width="800" height="705" viewBox="0 0 800 705" stroke-linecap="round" stroke-linejoin="round">
<g id="CityBoundaries">
<path d="M 745.5729 205.0658 720.0954 202.881 717.823 261.729 722.1978 330.8303 758.6076 330.3592 792.0073 313.0066 799 355.3123 791.0985 396.7747 773.8072 396.4159 772.2081 356.1593 747.0601 356.4508 734.6977 439.9863 744.3274 440.4315 737.7657 486.9619 577.7949 487.9891 535.547 494.4906 535.848 561 565.1132 571.5232 558.5914 617.8988 550.6876 578.221 461.2406 580.0433 467.6238 627.7979 430.9586 641.8267 367.6493 643.8172 359.2275 702.8412 320.1123 704.2053 320.1042 685.5796 270.4815 653.898 202.9928 648.8287 202.2441 625.8881 142.606 627.9364 141.9034 480.3703 92.3439 482.1003 96.0373 501.0922 19.5043 503.7642 53.1681 457.2427 56.6026 431.1743 18.3978 432.3029 30.0167 424.0202 22.2531 383.454 42.3919 382.7661 30.9171 323.0065 105.5014 312.4475 92.8459 235.3475 1 240.3236 1.0646 203.0487 22.8925 202.7161 22.7995 117.4509 86.0952 117.1445 87.2376 64.1797 178.185 64.5011 237.4679 58.2774 249.169 106.2813 265.7018 106.284 265.6195 198.2445 376.0892 162.1951 399.9802 164.3771 383.1675 35.0238 344.5868 34.6324 337.0474 1 423.7635 5.5298 439.2582 16.6583 453.1517 123.271 483.4494 114.4522 556.1502 143.2321 561.8308 119.6193 634.2493 143.7964 619.0556 189.6912 745.5729 205.0658 Z M 634.6515 194.934 625.8639 232.8823 629.6663 312.0635 643.1406 357.6578 645.8213 401.0612 722.3919 391.7642 715.0152 261.7058 697.4716 226.0279 709.2938 203.1673 634.6515 194.934 Z M 172.5192 228.3216 173.5845 194.1594 86.421 195.0062 94.4898 233.7565 172.5192 228.3216 Z M 627.718 401.1596 558.7294 407.1359 577.0408 485.1129 650.5866 484.6628 648.1308 444.7013 627.718 401.1596 Z"/>
</g>
</svg>