<?xml version="1.0"?>
<svg xmlns="http://www.w3.org/2000/svg" version="1.2" baseProfile="tiny" width="800" height="549" viewBox="0 0 800 549" stroke-linecap="round" stroke-linejoin="round">
<g id="CityBoundaries">
<path d="M 609.6702 479.2571 608.018 476.8566 611.9448 469.6702 614.0208 472.3808 609.6702 479.2571 Z M 618.4142 463.0373 615.2913 460.3927 619.0015 452.6921 620.7073 446.3173 624.3708 439.7067 628.3237 441.3043 624.6967 450.1123 618.4142 463.0373 Z M 600.9159 389.4013 604.749 392.5027 620.8988 418.6511 627.9044 424.537 630.7089 424.3631 638.4299 428.7097 648.2922 432.9473 651.935 427.5679 656.431 428.7967 660.232 433.5312 662.1243 439.3711 663.8413 453.3521 666.1428 454.9182 661.6237 464.334 656.8771 466.4689 659.3459 469.5996 663.8224 469.1039 666.3434 465.8508 666.7846 455.0371 669.1907 454.6707 681.3047 457.3949 675.7446 468.3933 664.0962 493.9647 658.1189 509.1447 653.5892 517.3031 644.1884 538.685 637.2928 548.2263 602.7755 524.0447 607.4665 515.7729 613.2938 516.7219 618.0345 512.686 616.6883 510.566 618.7023 504.0317 609.1018 487.1084 611.9032 479.704 617.3716 481.9437 624.2971 483.2285 626.1948 488.3542 635.8882 480.7308 622.6047 481.3867 611.6668 478.3793 613.8371 474.3133 618.8486 475.5771 622.6312 468.6871 628.3166 454.6017 636.2116 450.8719 634.801 443.0436 639.4398 432.5856 638.1943 430.2227 627.6499 425.4996 620.7675 420.9574 616.6527 414.5172 604.2618 392.8803 600.9159 389.4013 Z M 695.287 342.3226 695.7536 347.4642 710.4733 347.4941 712.7823 345.1129 716.4452 346.1128 718.6417 350.4546 727.8373 357.4651 733.4434 360.6504 725.1374 372.9792 718.7974 386.9225 701.6157 418.7515 689.1954 440.3699 681.6931 456.3972 668.5417 453.3009 664.7943 449.3283 671.2838 441.9994 684.6194 418.8901 683.6672 415.9088 687.1858 404.4859 694.7105 399.5883 689.0308 397.8957 688.3014 392.6204 689.6257 388.1684 688.7307 377.2415 690.1422 365.3976 688.8911 360.5034 691.871 354.6684 689.1831 351.8682 689.1427 344.9906 695.287 342.3226 Z M 677.527 435.7527 673.1979 439.6856 671.6928 445.4612 676.5775 446.3779 679.2535 441.5453 677.527 435.7527 Z M 799 243.8403 777.7581 280.6758 767.946 296.6207 757.4409 314.6501 742.7346 337.5046 737.4845 347.2079 734.5695 359.2649 726.5814 355.1013 719.4921 350.3363 717.0543 345.4492 708.3933 333.6182 711.0672 331.5329 718.7208 332.1865 719.5858 325.3957 724.3191 323.1392 725.0972 317.1184 722.0454 311.5698 716.5436 314.1952 716.5846 317.6339 712.7101 326.1652 707.3604 323.414 714.8992 312.2059 715.7016 308.7546 721.0428 299.2189 722.0767 295.6221 725.7368 292.6451 728.9 284.536 734.071 289.287 739.3118 284.3034 744.566 282.1116 737.2686 277.4518 742.3658 275.762 746.3684 278.4248 748.0054 283.7406 752.6643 274.3173 759.0536 267.5152 761.1003 261.3354 765.8434 255.4134 772.8693 252.583 772.7787 249.3448 776.2766 246.4553 783.714 237.2776 797.909 245.3713 799 243.8403 Z M 235.1986 127.868 235.3111 120.1624 238.1717 119.2614 239.2378 130.1499 254.5296 141.9952 275.4253 152.4666 288.0472 156.0016 295.4046 156.0208 297.9973 149.227 302.7065 142.0748 317.8837 146.6203 332.9796 150.4183 338.4918 154.9685 339.6856 149.3943 342.0602 149.7045 340.7849 156.7614 345.7106 159.6011 352.739 146.7886 360.0468 148.149 361.8412 152.5727 360.4591 155.3343 370.6349 161.6436 376.2582 154.4517 376.5983 149.1153 373.8657 145.7564 376.7816 139.3226 380.4147 138.9478 409.7765 138.8187 424.6183 114.6667 423.1674 113.2346 428.9484 103.7505 435.0697 107.9409 435.1097 114.2144 427.6464 124.5112 414.8139 146.1024 417.855 165.2461 417.5552 173.5688 413.5005 192.0832 415.5284 193.1684 417.322 202.6014 421.3057 206.9044 421.3869 210.687 436.2232 226.1664 437.5847 229.3858 440.2271 245.3616 447.4426 255.6798 452.4769 261.1238 462.9634 270.1376 469.2186 274.598 475.6817 277.3278 484.3067 284.5742 499.5003 292.6985 513.1672 297.8269 533.091 306.6347 542.2764 309.1597 560.8873 313.0926 568.4441 316.168 571.9781 315.3839 608.6424 327.3826 609.5365 325.1684 621.6135 333.287 623.4136 338.7332 609.8551 333.7539 605.9357 334.8579 601.459 348.5802 598.7719 354.1404 588.2276 357.6331 589.2252 361.9163 582.1795 377.9673 598.0732 386.158 596.9341 388.2997 581.2313 379.8313 576.7394 389.7372 575.3027 398.1462 573.0495 404.7402 565.1389 418.3244 561.6175 426.3456 561.7034 433.581 556.4136 440.0735 553.9742 447.8095 549.6196 453.5375 549.4798 456.9843 545.6842 470.5056 545.6094 480.3596 543.3965 482.0791 472.2471 442.2734 477.063 434.0343 472.8536 434.1053 450.9778 428.4128 442.6635 425.2472 433.6121 426.3418 427.3458 426.1501 422.2099 424.4249 415.2631 426.5122 409.6131 425.58 406.6589 420.8635 374.7275 420.1832 374.407 375.1732 375.2766 365.0511 372.0697 362.0108 372.2642 347.7525 365.3597 341.927 358.7261 333.2903 353.9243 332.7052 340.5024 327.3685 333.5961 326.7629 331.4089 332.824 322.0394 330.4312 327.1064 325.3308 308.5015 320.1862 313.3105 309.6092 308.4761 308.9313 321.3565 286.8813 293.8331 272.0606 292.2412 274.3483 285.1387 270.212 286.4333 267.8263 260.1875 251.7282 230.8326 222.0552 215.7647 207.2283 213.7846 209.3319 213.9364 219.3835 210.6155 218.449 201.2762 218.4883 205.2908 212.3774 210.8221 212.3792 209.8427 201.3219 199.8398 191.2332 199.219 184.2839 164.8031 156.8207 125.347 127.7066 120.1462 112.0924 100.547 97.8913 95.3365 105.974 79.165 105.7054 81.9359 89.4128 53.1294 86.1121 54.0867 80.4433 44.2574 79.1276 43.4954 83.3029 31.3307 81.6328 29.9921 89.6274 26.8491 86.2148 18.2987 84.8752 19.1399 79.9161 10.7667 78.657 13.3314 67.897 20.6284 69.9502 39.0983 71.6206 38.8745 46.3088 31.9029 42.4463 20.3462 34.1911 20.1046 30.1113 23.6328 27.9157 22.3784 21.6284 26.0304 18.201 22.1341 15.6574 16.5432 14.1083 17.937 12.3747 12.0139 5.7218 8.5289 8.0751 5.8927 5.7769 1.6938 6.9643 1 1 5.2343 1.2592 5.4371 5.0644 8.8894 7.1153 12.4654 4.0208 20.3378 14.1327 26.5756 17.5287 23.5846 28.8778 20.2114 30.965 21.2751 34.0718 26.7788 36.8604 35.9543 43.971 47.0296 49.1688 52.2701 50.2902 63.1366 49.6059 69.2432 52.7981 72.9572 60.9087 83.2973 53.6583 88.4897 44.9861 89.9345 36.0038 87.5425 26.8408 81.4938 17.0872 83.8195 13.9857 88.6655 13.9254 92.8911 17.6622 96.8773 18.9915 106.191 17.7494 109.8132 18.3852 112.8811 21.8892 113.4265 31.3215 111.733 44.58 113.6789 51.371 116.3262 54.2102 123.019 56.1096 128.454 59.895 134.8565 71.7408 140.8464 76.003 150.1554 74.2933 156.2326 69.9298 163.6429 68.3269 175.3952 71.1275 175.4656 87.8546 179.0858 89.3249 177.0795 93.8431 187.4635 93.9027 190.4344 98.2318 188.6003 101.4159 193.5099 102.7124 201.0416 106.5187 204.3112 111.0972 210.8906 111.5103 210.7157 114.3369 219.8109 118.04 219.555 122.2594 225.251 124.7501 226.0019 120.4745 233.8395 124.0508 235.1986 127.868 Z M 72.2404 60.9278 70.2254 55.3414 65.8848 51.069 62.6625 50.3005 62.3437 57.5134 56.6077 56.5348 54.257 64.335 64.8771 66.6597 72.2404 60.9278 Z M 500.2726 297.9194 497.1181 298.3171 495.5626 306.8279 493.7263 310.3578 498.1713 320.7759 500.5748 323.226 500.5693 331.326 505.5364 337.2591 512.7601 338.6794 517.2803 334.7583 523.1241 338.769 524.3066 342.133 521.4262 346.2612 521.3054 349.563 530.9745 355.5474 535.4917 357.0804 545.2395 353.5697 547.9677 348.4488 544.4507 339.5864 548.7578 335.1364 547.8841 329.1917 543.2915 327.0372 538.0985 319.0929 540.5545 311.073 539.6525 309.2673 522.09 303.8519 511.6264 311.1587 508.3414 310.7016 505.9489 305.237 502.5267 304.2279 500.2726 297.9194 Z M 532.3964 357.3257 525.5848 353.0982 519.6919 351.5548 514.1116 356.7969 512.895 363.8818 514.3857 375.6201 505.403 379.1239 500.2332 377.8332 495.4782 379.5109 491.5507 385.0921 484.1123 381.8523 482.0026 385.4559 479.3374 396.6836 479.6405 403.7676 481.9934 409.7545 482.7853 415.7782 486.0292 413.8826 490.6209 401.6144 498.4302 396.1921 501.0025 390.7076 504.3103 389.0307 517.7524 388.4816 524.1886 385.4867 524.2223 379.6124 528.3459 374.5159 533.3066 372.1354 532.1877 366.1531 535.0823 358.8902 532.3964 357.3257 Z"/>
</g>
</svg>