<?xml version="1.0"?>
<svg xmlns="http://www.w3.org/2000/svg" version="1.2" baseProfile="tiny" width="800" height="614" viewBox="0 0 800 614" stroke-linecap="round" stroke-linejoin="round">
<g id="CityBoundaries">
<path d="M 768.8027 179.2676 737.8937 178.8513 737.8863 187.712 713.0878 187.9738 713.2399 205.1441 696.4198 205.2935 696.2275 187.2608 674.8134 187.2977 616.6521 186.773 559.8497 187.285 545.6057 187.4584 544.9824 207.73 545.5202 237.5056 589.7034 237.3683 589.5571 296.8495 589.5576 297.0268 586.3376 296.6037 544.8556 296.5192 544.6901 292.444 530.6795 292.5236 530.6802 281.885 515.5167 282.3247 515.6881 288.6427 471.5314 289.1482 442.821 289.2274 442.6885 297.4198 435.3451 297.39 435.431 303.4696 428.1635 301.2965 398.7269 298.477 398.6736 319.4484 411.5335 323.3066 413.5731 326.5573 398.3704 326.381 361.3845 326.7941 361.5441 341.8426 354.4491 341.7716 354.3777 375.6898 351.4369 378.9799 358.784 387.6545 369.1382 386.3857 369.1367 399.9073 376.2131 401.4639 376.514 417.7884 383.855 415.9761 383.8802 429.7075 379.2331 432.4276 376.548 437.4305 376.5317 441.6305 383.8997 440.3747 383.91 445.5269 365.6357 445.6591 335.5611 445.5286 324.9493 441.5676 324.9845 445.4292 330.3398 452.8778 325.0144 453.7067 325.0176 460.2861 335.7052 460.363 333.1378 453.6803 340.6523 453.4481 340.6579 467.3753 347.8995 467.9423 347.5893 475.2805 340.8483 475.086 340.5372 482.0123 319.9403 482.0147 324.9374 486.1365 325.065 504.5898 340.0737 504.9007 345.9785 511.1555 355.4742 504.8364 362.8595 512.1672 367.8816 511.957 368.4959 500.131 364.7203 494.0193 368.9616 489.9832 376.2507 489.9737 383.8428 497.9494 383.4283 519.4351 398.9559 519.3495 411.6873 521.7337 412.6378 526.287 404.4591 528.7892 398.487 533.3855 369.0008 551.4476 367.7972 535.795 361.7769 534.249 361.6389 548.4985 361.509 557.8304 354.005 562.384 353.774 593.2376 309.7102 593.1112 309.8169 563.5931 295.0596 548.7094 280.6385 548.6952 280.8364 534.3518 242.8487 534.4653 244.3393 528.7581 237.2233 526.938 237.2858 517.0803 231.3521 519.4391 222.6236 519.3456 222.6036 507.7855 215.3152 508.3273 215.2423 504.5311 185.7168 504.5437 173.7784 504.125 166.7658 507.3412 165.9665 519.2704 156.8897 519.1625 161.5183 511.5933 163.4749 506.1031 163.3137 485.9901 160.038 482.2196 149.0037 482.1007 148.83 519.1584 137.5572 519.118 137.5215 526.6535 123.3399 526.1237 123.25 533.8915 119.2641 537.6635 119.2127 552.8221 124.5835 552.8328 126.5585 556.3853 126.5254 563.8678 119.1319 563.8276 119.0562 574.0278 126.4281 574.2311 127.2028 576.5496 133.8017 578.4077 133.7853 584.2122 127.8835 585.7592 109.8394 584.8654 104.453 585.3841 104.0004 578.1033 89.7553 578.0959 89.8882 563.1984 81.0048 563.204 80.2665 571.8175 84.1057 577.9022 89.6801 582.2959 89.8774 585.4297 85.9392 589.4943 89.701 592.7734 89.6968 598.8165 81.66 606.0218 80.4735 613.2566 72.7872 612.7673 21.4122 613.0232 21.3416 604.9923 27.8136 605.0712 38.6683 604.388 48.9233 604.7961 71.3145 604.5884 71.5921 601.2184 54.3464 593.2414 53.8969 590.2969 47.6252 580.4738 45.6278 577.4932 45.2117 577.4723 45.0872 580.985 45.2633 586.2382 39.3573 588.4921 34.8993 586.8114 32.3115 586.8106 30.3778 591.5037 30.3132 593.1042 3.0764 593.0503 1.9171 587.3789 1 587.3797 1.1055 570.6655 1.1997 570.6616 29.8264 570.7174 29.8424 563.4776 35.7662 563.5535 45.3877 563.4331 47.0276 567.4288 57.5128 567.3759 53.0386 563.4897 56.7369 552.5468 60.5273 548.5012 73.8759 548.7208 74.0657 541.318 73.2744 541.3152 62.1239 541.3891 62.2448 539.693 68.5026 533.4128 68.3903 527.1067 62.6108 527.0873 61.2201 520.152 51.7609 522.6223 52.2413 519.3402 45.7844 515.8984 45.9642 499.5369 54.1403 499.7734 60.3164 500.7293 60.3524 504.3136 90.0504 504.2927 90.07 489.605 74.93 489.5977 74.9228 480.9612 82.3472 482.1026 82.5583 474.7548 90.126 474.7175 90.0864 401.4377 90.2292 349.9511 90.3309 267.7635 75.4843 267.6505 75.0448 259.0055 77.3432 252.9153 119.4254 252.8048 134.1952 253.2384 134.2619 246.9792 141.016 249.4629 141.0931 252.9229 211.3351 253.0332 215.5879 250.1128 215.7297 238.2428 222.6644 238.0292 222.4408 253.1614 235.3231 253.1476 243.1751 245.5868 266.8138 245.3718 267.849 253.1026 287.9673 252.9675 288.0349 267.802 321.2934 267.6787 324.6411 267.1435 325.0275 258.4597 324.7257 237.9779 329.5957 238.0016 329.6809 232.3784 335.1021 232.324 335.1519 238.0224 354.1983 238.0869 354.4151 208.2117 383.4035 208.1522 383.5005 237.916 409.6561 237.9599 441.3161 238.4938 471.8588 237.9077 501.209 237.9821 500.9045 213.0867 501.37 178.9313 501.0662 148.7676 545.955 148.9381 546.0068 141.6573 564.2054 141.6304 592.9701 142.2603 593.3433 120.3562 593.1592 80.5918 593.5736 33.1316 634.2126 33.2556 634.4627 17.0912 654.4308 16.627 653.8663 1.1974 673.6828 1 673.8122 16.5922 745.9433 17.1572 746.1921 31.2278 798.6386 30.6639 799 65.6683 790.3163 65.7954 790.4875 82.9572 768.5052 83.1718 768.9706 145.4267 768.8027 179.2676 Z M 266.5963 442.7925 268.488 449.4543 273.7057 449.2596 277.1328 445.5509 286.801 445.4344 285.6759 438.1627 279.0042 438.0346 277.2094 429.9905 284.1444 428.2591 284.1441 420.8785 280.8455 415.9896 266.6685 415.7472 266.5963 442.7925 Z M 313.2325 475.1417 313.2238 479.5986 317.2674 479.5278 317.6674 475.1551 313.2325 475.1417 Z M 290.2005 488.0763 283.1002 489.9284 289.0728 501.0562 294.638 503.3846 297.26 519.104 304.4688 522.6499 307.3744 528.5866 310.4576 527.2098 310.4826 514.3244 305.0278 513.5073 303.0071 504.7237 302.9399 493.4368 294.2799 486.2363 290.2005 488.0763 Z M 282.8166 504.761 284.3699 494.9125 276.8627 492.8765 277.005 497.1722 280.8258 498.6316 282.8166 504.761 Z"/>
</g>
</svg>