<?xml version="1.0"?>
<svg xmlns="http://www.w3.org/2000/svg" version="1.2" baseProfile="tiny" width="800" height="404" viewBox="0 0 800 404" stroke-linecap="round" stroke-linejoin="round">
<g id="CityBoundaries">
<path d="M 798.581 222.7494 799 302.199 698.952 302.2394 698.8707 252.536 651.3996 252.4761 648.9296 251.6491 649.2448 302.4833 698.952 302.2394 699.3901 352.411 600.4335 352.5102 512.3239 351.91 499.9124 352.6307 499.905 376.9497 449.9181 377.9305 350.8226 377.9538 350.5946 402.2178 300.2154 402.3163 300.3101 377.311 250.939 377.345 201.108 378.2772 201.1332 385.7224 190.3847 385.6223 190.14 403.165 176.5141 402.9537 176.4602 377.8242 151.1984 378.0312 151.0994 352.5292 101.4105 352.2882 101.2271 301.5428 76.4544 301.412 76.8385 251.2947 76.2645 176.7406 1 176.2271 1.0315 125.3303 48.7079 124.9263 50.7094 101.5672 71.0954 101.2257 75.715 98.1277 76.5853 25.5574 100.5717 25.5222 100.7709 1 219.0595 1.8867 273.2963 1.8677 273.423 26.3625 349.5117 25.9563 374.8844 26.6622 399.5338 25.911 562.1815 25.522 598.788 26.5891 648.3875 25.1785 648.4829 102.6322 698.3221 102.5123 698.8115 224.4235 706.2942 223.9652 798.581 222.7494 Z M 655.3144 176.1572 599.1474 176.2269 599.5943 241.1412 649.0454 238.4272 657.7829 238.868 659.4625 212.7495 659.0124 176.2547 655.3144 176.1572 Z"/>
</g>
</svg>