<?xml version="1.0"?>
<svg xmlns="http://www.w3.org/2000/svg" version="1.2" baseProfile="tiny" width="800" height="763" viewBox="0 0 800 763" stroke-linecap="round" stroke-linejoin="round">
<g id="CityBoundaries">
<path d="M 758.6508 309.9861 717.7745 473.4579 641.5646 513.1501 691.781 556.3274 667.3744 642.0627 622.291 709.0746 540.7165 762.3917 511.3049 732.0072 480.8767 718.146 475.3091 693.5706 412.3281 629.1231 407.0293 576.7471 369.6402 562.7161 369.7901 543.8492 292.5951 537.4518 207.1277 537.51 207.1853 560.6903 176.2829 568.1054 172.4171 515.7547 182.5003 479.5476 82.393 483.5088 5.0274 395.8141 1 368.7798 182.9237 366.49 180.8572 211.257 144.3881 253.2798 106.2661 254.6113 118.5552 184.9353 173.5453 201.2587 190.3292 150.3854 233.0613 136.8412 390.2078 109.2702 422.8979 97.0623 427.6059 59.022 471.381 51.203 504.9376 59.9832 558.5142 25.23 560.7956 58.3423 600.4255 55.7788 637.0319 34.3225 670.7731 1 799 53.6015 754.3946 164.1114 785.5206 176.8646 765.0697 247.5745 758.6508 309.9861 Z"/>
</g>
</svg>