<?xml version="1.0"?>
<svg xmlns="http://www.w3.org/2000/svg" version="1.2" baseProfile="tiny" width="800" height="844" viewBox="0 0 800 844" stroke-linecap="round" stroke-linejoin="round">
<g id="CityBoundaries">
<path d="M 590.2244 1 415.5543 325.7676 391.3512 370.8201 391.6797 386.5848 405.293 386.416 414.2517 387.4583 440.1853 387.3728 440.6261 405.5968 486.7254 402.92 539.9772 363.7988 575.6248 362.7636 577.3724 452.345 578.1482 452.0931 696.0217 433.707 695.1525 421.4738 705.8293 420.8255 704.5661 386.4034 706.48 386.358 706.9691 402.4285 715.1077 403.9389 715.6134 420.3782 728.7166 420.1044 728.4693 393.4674 730.6715 388.8826 760.1994 389.1169 760.0155 420.129 737.3086 420.2868 737.438 428.1644 745.8219 426.9206 747.5073 429.67 760.0763 425.2186 760.202 432.7231 778.4883 429.5947 779.9192 440.7066 785.2146 434.8886 784.6017 420.4692 799 419.393 791.6059 427.8573 793.0656 516.0465 727.4713 517.0232 728.3458 548.1513 713.9243 548.9249 696.3593 548.6118 696.8458 576.257 702.5355 576.8832 731.3057 576.7496 731.9875 607.5112 718.3579 607.5351 718.4252 612.587 708.1154 612.5911 708.0996 603.0826 696.9344 603.1409 697.5831 676.5002 675.0671 676.751 690.0338 692.3748 669.8623 699.2061 640.9503 736.5413 633.1761 744.336 636.3204 748.5286 629.2806 756.0025 623.602 752.8994 616.6327 758.1622 613.3672 764.7177 616.628 768.3216 620.8356 783.6922 635.5978 803.6967 638.345 804.3417 650.8879 828.5735 649.2977 833.23 628.6852 842.9214 620.4749 827.314 588.0951 780.3826 579.0469 763.0187 569.7496 750.5251 543.7478 682.4342 539.4132 675.4954 524.8153 663.6725 502.7068 647.0506 495.3359 637.869 487.753 607.9592 482.0133 599.5825 463.3728 587.2821 456.9797 584.0686 430.9059 566.4737 413.5603 556.2655 404.9584 553.2992 383.9003 549.9786 375.2934 545.8136 353.1772 529.582 342.7657 527.9015 322.145 537.0778 315.7357 543.7992 312.7369 553.9936 307.9354 558.7045 286.3305 564.6601 275.172 562.1783 265.0339 551.9896 257.2418 547.5068 244.0808 534.7716 238.9481 535.1772 236.7482 531.1324 234.3912 518.4632 229.2564 511.8015 223.6943 511.127 217.601 506.5886 203.274 489.0818 206.2623 473.7415 203.7548 468.6564 194.8453 464.5258 189.3913 451.969 184.9163 447.7239 174.0092 440.9269 168.3853 432.4149 147.0508 425.493 138.5436 423.9286 137.6811 420.3041 131.9022 418.749 123.4511 425.9085 111.5577 425.4498 103.8252 417.6755 102.329 414.1123 91.1897 399.426 80.299 393.2128 63.3466 392.9219 58.6535 386.9121 62.1745 368.7222 65.0214 360.5263 64.8502 349.8511 57.868 345.7685 40.8047 345.3557 20.1108 323.6567 15.601 312.6409 1 301.2476 1.0775 289.5463 3.0099 282.9448 11.9753 268.5822 13.7668 262.4757 11.972 257.4897 11.8276 246.1591 30.4891 246.8723 27.553 257.7202 74.586 257.6677 73.3217 243.5476 70.5194 228.7831 79.9162 228.6231 79.7537 218.1057 86.1303 218.1256 86.0485 207.5928 88.4321 202.2975 85.3366 193.2624 97.1511 193.2271 97.1866 133.6415 102.182 133.9901 112.386 128.6022 116.6637 117.6305 123.007 117.5781 123.2061 99.3213 128.4768 98.9142 128.7513 77.0342 137.7799 71.2282 165.2414 70.9835 164.3923 24.7273 141.4929 25.0725 141.0883 2.5986 225.4716 2.6667 262.4251 2.1886 457.078 1.2126 492.0981 1.4386 590.2244 1 Z M 274.5279 198.6851 275.4117 272.3566 275.1036 294.7506 345.4658 294.4963 367.9255 293.893 368.1121 285.7486 366.4725 196.6259 365.3731 182.3588 365.3053 165.4323 323.7838 165.3969 305.2978 165.7567 305.9274 198.4367 274.5279 198.6851 Z M 432.9679 389.859 380.5546 390.8447 373.4104 404.1461 369.5653 415.7698 371.9913 420.8617 369.947 434.3983 371.4747 445.7997 377.7396 445.8194 387.0849 455.1696 387.835 460.2149 408.1704 473.004 414.8741 472.5648 414.7258 468.2859 427.7384 468.3868 427.9032 463.8258 437.2891 467.0863 438.3396 463.1092 437.4942 394.4697 432.9679 389.859 Z M 736.7818 482.9445 726.3654 484.1872 726.344 488.1106 737.2387 488.1268 748.2252 475.5588 744.0044 475.369 736.7818 482.9445 Z M 726.2529 499.7099 727.9771 501.802 759.9214 501.9831 759.7648 494.1055 736.536 494.3086 731.8361 493.5772 726.2529 499.7099 Z M 726.5933 440.8249 728.3599 431.9463 724.9788 428.8531 712.0121 430.8792 714.2514 452.1187 727.442 450.9962 726.5933 440.8249 Z"/>
</g>
</svg>