<?xml version="1.0"?>
<svg xmlns="http://www.w3.org/2000/svg" version="1.2" baseProfile="tiny" width="800" height="362" viewBox="0 0 800 362" stroke-linecap="round" stroke-linejoin="round">
<g id="CityBoundaries">
<path d="M 518.1823 359.6979 389.8269 361.2291 373.9456 359.7552 332.9276 360.1582 328.3105 360.2032 317.4937 360.308 317.1201 339.4149 322.4182 339.2339 321.8311 314.8013 269.0391 314.4319 269.4755 360.1027 235.3348 358.5991 162.991 360.1643 97.1595 360.2306 97.1441 316.7595 81.9468 316.8691 80.1774 334.5763 82.2916 360.297 1 360.6523 10.0953 318.5419 22.8497 296.2734 34.018 290.2449 84.5059 289.3687 84.4318 271.9862 62.1975 271.5431 42.5259 274.8777 40.5842 265.9471 29.1193 247.8632 32.6847 236.5036 65.763 236.7164 83.3823 231.1897 82.5853 216.2003 92.2511 215.7774 96.9134 183.233 106.1708 159.4546 114.4915 149.1639 149.1613 134.4384 162.3187 117.4863 165.2067 80.1967 171.8864 51.8954 197.5043 69.4083 203.6332 52.7741 182.8362 41.6765 188.0485 36.9481 206.1077 44.9036 211.6341 15.6009 230.1168 17.8062 230.117 4.3419 253.1147 2.341 253.3992 37.1987 320.8479 36.8291 318.0406 11.751 306.3984 11.9965 306.3144 1.8874 353.4361 1 359.4002 5.5037 359.7839 36.9672 393.9954 36.6614 397.5514 44.0012 412.9594 43.9934 413.059 35.3408 463.8243 35.912 465.12 69.9871 484.7106 69.6525 485.2929 92.1572 499.368 83.3335 498.6877 70.035 521.3995 69.5257 542.4487 57.5772 575.731 49.0622 645.6673 49.2747 645.354 69.707 628.5351 69.936 639.3186 102.387 653.3954 103.734 663.4461 116.4281 676.4186 123.5001 674.6674 93.5051 645.0456 94.1937 645.0379 84.8663 657.5235 84.8507 657.2048 50.6926 673.7062 50.2926 673.6798 66.9276 718.4926 66.4527 736.5153 70.291 745.4596 66.0871 745.7498 102.3378 770.4173 102.299 770.594 82.7555 778.329 82.9176 778.5924 68.7976 761.3717 66.6452 761.6904 47.0478 798.1255 43.7203 799 173.2684 763.9155 173.6076 763.7016 132.7536 728.3761 133.4294 728.3532 130.5744 692.789 130.6253 676.3448 132.3954 676.4006 174.4246 658.1255 174.8513 658.5678 233.0439 681.4174 235.6797 692.8628 233.0471 692.8735 281.3399 728.0737 280.9544 728.7068 316.3015 716.8195 316.4161 716.7487 347.3407 706.8216 351.9385 687.7803 352.1399 687.3861 319.5067 676.1168 319.8082 676.7407 352.2857 667.849 346.3885 647.2678 341.4375 642.732 353.0139 587.4174 356.7818 523.5909 357.887 518.1823 359.6979 Z M 396.523 70.8625 359.8416 71.9463 359.9664 87.4498 394.5368 87.576 394.6886 101.7491 407.4027 103.2818 407.7155 75.0132 396.523 70.8625 Z M 438.896 88.1684 439.1378 106.4055 433.7798 124.4519 450.8775 113.7349 450.8089 105.597 464.1263 91.143 438.896 88.1684 Z M 499.3839 84.6688 465.145 106.141 500.0664 105.5032 499.3839 84.6688 Z M 500.5724 114.6459 500.7083 140.5498 520.9506 140.3097 520.9286 114.6873 500.5724 114.6459 Z M 553.1814 127.8796 553.3116 139.6053 572.7573 139.3242 572.9701 154.4973 587.5198 154.5502 587.1643 128.054 553.1814 127.8796 Z M 412.6199 160.6517 412.9447 211.4645 428.4273 211.145 428.0989 158.264 412.6199 160.6517 Z M 553.4901 193.7925 553.4988 206.9413 575.2067 209.2846 575.2108 195.2763 553.4901 193.7925 Z M 392.9662 212.3387 392.7499 195.4076 386.3692 191.6574 382.565 164.3858 365.4879 164.3152 368.5182 195.5251 346.7173 196.8344 346.7971 213.1634 392.9662 212.3387 Z M 289.5225 219.475 278.721 215.8058 277.2713 229.615 285.7129 229.7888 289.5225 219.475 Z M 347.0303 186.9534 346.7707 178.5532 326.4032 178.7877 325.5108 195.8211 336.7764 195.8325 347.0303 186.9534 Z M 189.2352 167.799 187.1188 134.9173 167.5218 128.961 159.3112 138.4516 163.5295 144.7403 185.8598 144.7204 189.2352 167.799 Z M 197.2889 129.1405 198.9914 144.7075 217.8388 144.6217 217.7352 133.92 210.5059 125.1603 197.2889 129.1405 Z M 233.7205 124.3359 236.046 143.957 242.1782 143.6801 242.1777 112.4107 233.7205 124.3359 Z M 208.6728 110.2102 208.7009 84.845 191.9257 84.9792 179.1491 110.1771 208.6728 110.2102 Z M 307.0608 99.7256 324.1374 96.8712 324.1482 82.0135 307.7191 82.0174 307.0608 99.7256 Z M 377.3779 121.8927 377.3805 136.8038 361.2053 136.718 361.1571 156.5481 382.5191 153.4171 388.0511 141.9558 388.0008 121.951 377.3779 121.8927 Z M 419.3746 134.8314 412.5666 151.6983 428.0319 151.6897 432.4652 141.3789 432.1886 126.8027 419.3746 134.8314 Z M 346.0309 158.7336 345.9253 143.0502 341.0891 134.744 326.168 134.8261 326.3316 161.5702 346.0309 158.7336 Z M 419.8872 240.9286 420.0442 248.6536 410.6509 259.1467 402.6442 259.2429 402.6978 276.9898 375.2728 275.1379 375.1408 288.8743 427.277 288.2948 427.1091 281.2689 437.7747 275.4554 433.8686 248.7429 419.8872 240.9286 Z M 370.5147 282.5008 351.5412 273.909 338.9678 277.8655 345.8426 298.3679 357.6541 295.7225 357.8375 308.0554 374.9218 307.8787 374.7581 290.1222 370.5147 282.5008 Z M 313.4192 308.0054 322.0786 307.6247 321.9884 289.8487 304.4695 289.8578 304.742 311.7704 313.4192 308.0054 Z M 175.6678 308.0576 180.7935 289.5883 169.5696 289.8142 163.2313 299.3055 166.1472 312.6296 175.6678 308.0576 Z M 115.155 299.3935 115.1589 288.7017 137.8374 288.7819 137.8405 265.8398 126.0925 265.8895 115.9268 275.5289 108.0483 289.1603 115.155 299.3935 Z M 126.8685 249.3811 112.4465 244.6272 113.2803 254.4601 126.8685 249.3811 Z M 305.1613 269.4546 322.2929 272.5436 322.3022 265.173 305.1613 269.4546 Z M 256.2837 307.0963 265.081 307.3577 265.0834 293.3884 256.3049 289.8883 256.2837 307.0963 Z M 274.0532 307.1724 284.3978 298.4652 284.9103 290.3224 271.717 290.0132 274.0532 307.1724 Z"/>
</g>
</svg>