<?xml version="1.0"?>
<svg xmlns="http://www.w3.org/2000/svg" version="1.2" baseProfile="tiny" width="800" height="387" viewBox="0 0 800 387" stroke-linecap="round" stroke-linejoin="round">
<g id="CityBoundaries">
<path d="M 745.3341 110.133 745.2561 122.2617 758.427 124.2671 758.2475 141.3919 799 141.7976 798.5584 163.3981 731.049 164.3335 706.9118 162.8857 707.1417 149.2651 689.2606 149.4083 694.5945 126.6754 691.3723 105.9621 691.4296 81.394 711.9332 81.3246 711.7098 95.2974 731.4003 95.3851 731.3556 108.5781 745.3341 110.133 Z M 651.7131 1 653.0231 26.8028 651.3427 73.8835 671.0607 73.9391 662.6939 81.1297 651.1507 111.1424 640.7757 134.8562 623.3308 134.6263 623.5457 160.5618 629.3102 161.577 678.6502 163.3085 682.1805 175.18 698.0892 175.1346 698.2035 188.642 683.4371 188.4871 678.4437 193.8323 676.7072 217.1589 676.1324 271.4042 676.439 364.9007 676.949 384.1943 650.7938 385.1387 623.747 383.7722 595.0779 376.4302 568.0814 373.3103 557.0447 373.6636 545.361 379.6088 490.2723 379.4409 489.5275 384.7936 472.1277 385.6009 463.152 381.7015 456.8072 358.3519 444.1363 352.8123 441.7248 358.5295 455.9789 363.9183 454.0507 368.3082 424.5171 354.7378 423.2226 359.9256 412.9046 358.1048 410.2166 363.3981 422.0339 368.8238 421.4502 379.0372 405.9487 371.3304 401.4075 363.5288 405.894 354.1348 396.3484 349.3184 403.7543 338.9414 402.3563 332.8101 389.2515 324.0219 338.2204 298.4293 311.0076 286.8259 308.4431 301.5179 303.868 309.9468 277.394 335.8039 273.1143 342.1784 263.5809 324.643 265.8155 316.1694 257.2501 312.7414 256.3807 305.2714 270.8189 312.4826 273.9748 308.147 258.9058 300.7445 253.3354 305.8364 230.8098 294.9028 238.2418 281.3457 222.775 273.7945 217.1156 285.6392 199.2542 277.9017 205.3183 265.3343 151.7895 238.6511 150.4969 244.4256 136.2347 244.4028 114.9449 262.3328 102.7069 271.1696 80.3726 271.4123 33.9135 249.0481 30.9664 254.2913 54.5791 265.1756 50.6357 272.1646 56.8762 275.3617 51.7445 287.7049 34.3338 287.2779 34.4753 295.5012 25.5837 295.3094 4.7273 284.9881 4.7898 271.3906 11.486 271.3665 11.7353 250.1907 1 250.8199 1.1217 191.6583 27.9863 190.5305 29.0287 152.5237 38.2569 156.46 45.5999 151.3383 45.3035 136.4698 47.3849 123.5156 63.7243 117.6512 93.6522 120.9342 139.2444 148.3747 157.0247 158.201 169.6212 167.1003 176.943 157.7503 179.8895 146.0061 196.2593 112.1456 233.117 130.1578 276.1182 43.0868 287.282 48.9431 298.9073 65.076 320.0958 87.8086 347.8122 114.197 357.6551 127.3694 361.9614 142.0981 370.6126 133.12 379.0017 135.7528 383.4914 132.3934 392.4245 139.8902 408.0596 143.7375 413.2075 148.6378 420.7917 147.6637 433.554 158.0096 451.1052 163.202 479.1258 168.6108 508.2992 167.7071 523.8877 165.703 530.8687 162.3719 554.2429 155.9841 567.7427 143.8184 597.7303 96.7831 610.404 74.3425 626.5049 40.5742 638.511 21.4085 644.6099 1.8351 651.7131 1 Z"/>
</g>
</svg>