<?xml version="1.0"?>
<svg xmlns="http://www.w3.org/2000/svg" version="1.2" baseProfile="tiny" width="800" height="729" viewBox="0 0 800 729" stroke-linecap="round" stroke-linejoin="round">
<g id="CityBoundaries">
<path d="M 617.2961 588.6199 632.6604 601.9602 619.3859 615.145 611.1718 608.4699 601.8092 620.1467 593.1043 608.7952 617.2961 588.6199 Z M 74.8253 560.4039 77.6112 577.4063 105.8182 579.5877 76.0228 590.3648 70.1498 584.9676 68.194 562.3755 74.8253 560.4039 Z M 124.8207 585.0682 121.1817 572.1615 105.7362 571.2991 112.4055 557.4948 121.4012 570.7803 144.7541 571.3199 144.8169 584.9259 124.8207 585.0682 Z M 144.0851 563.18 120.1178 563.1215 121.221 553.636 144.2618 553.8626 144.0851 563.18 Z M 658.8358 310.4334 666.7214 310.4389 666.265 338.8138 645.345 338.5768 629.6311 325.8879 636.281 309.8288 658.8358 310.4334 Z M 121.5025 268.2848 117.7757 276.3469 102.2276 271.7126 101.3601 261.2416 121.5025 268.2848 Z M 533.4029 241.9558 537.3456 243.401 522.3056 272.2312 513.9266 265.8672 520.947 245.6259 533.4029 241.9558 Z M 203.6653 245.732 207.7839 227.6264 215.3746 232.2573 203.6653 245.732 Z M 639.1248 236.585 639.8626 249.7036 604.4464 249.4564 594.1236 242.2153 592.6481 228.8187 613.6724 212.8091 619.7224 203.6827 637.9075 208.8074 639.1248 236.585 Z M 574.1052 169.0447 580.1017 179.0807 576.4062 190.0045 553.0989 160.0369 559.4663 156.6114 574.1052 169.0447 Z M 454.4019 615.8705 452.1212 593.5982 442.2609 593.2358 449.4574 615.0806 454.4019 615.8705 454.9531 651.1474 465.9602 673.444 456.7373 681.5195 450.8342 701.0689 468.7728 707.7965 476.0671 696.8933 486.6421 702.5323 478.0056 713.7538 450.9556 704.264 456.8036 720.9457 432.4101 726.8395 414.3978 727.8823 419.9591 710.6888 450.717 708.324 449.1356 698.4949 434.8976 691.4337 420.7647 695.5427 422.6215 678.2994 430.5793 675.8648 444.5095 687.6073 452.4543 654.318 431.8258 634.3912 409.4707 641.6154 414.7786 656.2303 412.7839 672.4101 367.0572 665.4424 371.423 648.7763 367.2276 619.0691 350.7837 623.3095 328.6207 635.3495 346.9132 577.954 316.5378 577.0163 306.6182 586.1814 312.2991 595.9131 305.5558 607.5888 303.0227 626.0438 316.3132 635.9618 283.5955 637.6398 281.5053 617.0413 270.1203 612.2661 273.6126 599.74 262.0397 596.1323 249.0108 611.3024 241.2213 601.032 224.9555 588.9182 227.9097 575.791 208.1834 573.6681 213.5881 587.9279 206.6074 600.2229 191.8073 605.9733 177.4134 595.7322 163.1522 593.551 157.2561 601.7909 167.2574 614.569 157.1157 628.6794 182.5183 634.6947 178.4127 650.0223 204.8213 660.2308 197.5823 682.2702 161.2201 668.1086 168.6803 650.3885 125.4989 628.6655 128.2343 651.75 110.1968 652.2274 98.2027 658.6524 103.8693 632.6033 111.6943 625.9264 109.9452 614.3016 114.8139 588.2121 124.8207 585.0682 151.9649 589.5973 151.4528 571.1063 182.3366 572.0719 180.8127 553.2324 198.8201 555.0723 205.0501 539.9298 222.8289 537.4205 226.298 551.068 244.8133 563.9679 262.5947 566.2423 265.9122 551.0577 263.5123 539.2893 253.4242 536.795 251.7883 517.3097 240.7761 513.3984 240.8433 536.2124 203.7296 530.9744 201.035 522.1322 203.7002 498.8529 209.8249 496.5158 210.9743 479.9241 202.5905 468.793 203.2681 450.8243 191.1486 444.009 186.4017 467.1828 174.0253 469.2766 170.7288 479.2378 138.6916 479.0855 117.5808 481.3598 117.8658 473.7868 142.3679 475.9181 139.5202 463.1596 160.9358 456.8891 140.1239 444.9824 163.8053 427.7017 183.7396 440.2921 192.1406 441.043 184.9594 416.1324 196.2216 396.0635 181.3771 394.2452 172.983 408.9786 162.0417 401.0499 150.5373 407.2435 132.7062 405.8386 133.904 377.4052 163.5746 364.3428 160.0368 345.0447 181.4923 341.8093 199.9804 321.2781 205.3044 308.5996 234.2833 321.6252 234.6397 304.223 210.8358 292.9644 225.0938 281.7965 216.9699 268.3102 228.0969 263.6601 245.1875 280.0279 297.2527 202.2062 279.9991 192.4746 270.4827 195.6609 251.6046 181.8379 242.1984 182.7276 234.7341 176.9397 234.4948 163.3187 226.4031 153.8677 202.8723 147.0514 169.6228 134.1397 138.3172 190.6577 120.1897 213.4724 102.9493 197.3924 86.3161 217.5882 85.9006 235.2487 44.2762 233.1023 41.6093 278.3848 20.1608 269.6315 1 278.5357 3.7662 224.2741 7.2666 210.7415 48.404 204.4436 78.9772 169.1806 118.5603 136.0746 116.7979 128.2663 144.8154 131.1156 154.6735 129.1899 179.0484 132.9486 203.9528 143.1861 219.2635 146.6285 234.5548 156.6301 239.1025 179.5904 249.9501 179.079 267.4447 188.6978 284.9228 181.097 289.4062 189.775 307.7075 159.0167 325.1386 166.7247 327.8764 181.4246 319.2831 205.7118 328.9009 214.57 333.8803 201.3978 323.195 197.156 328.9586 181.4845 349.7693 198.0525 364.2577 190.3282 366.9662 155.0418 380.7034 161.206 386.7064 146.0954 360.9663 130.1495 366.4442 117.4191 339.3781 102.2867 340.1536 85.4064 362.6007 94.3312 360.5853 77.8228 369.7543 77.5213 374.4569 120.6855 408.0629 111.7699 416.5544 114.3346 445.5056 110.2804 450.8309 88.5745 435.3268 78.7404 428.5846 65.6162 450.2807 35.1199 447.1842 25.2757 468.679 1 472.8775 4.1453 466.336 35.8894 445.9743 117.2125 437.4702 139.768 439.0612 152.3256 432.9507 182.345 425.0383 202.6592 437.5502 215.4902 444.5093 206.5008 455.4143 214.5309 462.641 235.8091 482.9585 244.7423 493.401 192.6728 507.5356 188.9834 497.0577 230.9144 486.4216 257.9055 471.7993 258.4236 471.2433 277.4212 495.1936 277.7566 531.6525 287.9272 540.699 295.508 569.6435 308.3157 588.5204 338.0303 593.9698 325.2224 592.4574 289.9261 606.187 287.1874 629.2425 307.3775 618.8659 310.8806 597.6585 346.3454 610.406 347.657 650.0814 379.571 665.0047 382.4847 675.6882 389.659 686.771 382.1687 686.3163 352.2439 666.685 338.6495 682.6738 322.2217 680.5019 304.746 692.7025 299.2572 689.5258 283.5564 703.5852 280.1732 706.0215 293.206 739.8311 289.8924 738.2902 276.6505 767.0212 279.4503 778.9644 272.7814 780.1036 315.417 791.9466 322.3639 773.8467 330.9563 743.256 331.4032 743.2003 322.0013 718.431 327.416 715.9597 317.1312 703.4688 318.0988 705.3036 331.0575 696.1872 334.2936 695.6127 345.6139 726.3753 340.8028 732.4613 343.0344 771.4344 340.0421 799 362.4249 792.2493 376.9411 771.2487 384.1896 738.4905 387.9624 712.4612 382.4651 714.6375 397.8782 689.0855 471.535 683.5553 462.3949 692.6534 438.5862 686.8173 437.2931 670.9314 472.0081 659.7293 465.9667 652.666 475.6458 634.6079 482.9299 642.654 489.6744 648.7843 518.6967 617.5483 519.1442 622.7429 511.7723 614.4906 496.0881 590.2091 510.1262 586.8918 491.1794 580.4781 480.8605 560.9832 499.303 567.0766 520.1075 546.4093 517.117 527.1199 529.6741 527.4234 503.4438 489.602 502.0712 503.73 539.8257 518.2128 538.6902 508.3975 556.184 540.5059 573.5052 546.9603 582.8407 540.382 595.2755 526.2535 598.6778 527.7635 608.467 502.5134 593.1863 506.9874 609.3257 506.0841 623.8213 525.0055 623.9718 524.8763 663.9347 465.531 662.3477 486.3079 643.8252 501.9767 599.6215 456.3424 609.4403 454.4019 615.8705 Z M 464.3771 567.1861 461.4227 581.0754 480.0463 575.2152 478.291 565.2619 464.3771 567.1861 Z M 441.6262 559.8172 451.4772 551.5583 444.3262 541.3563 443.6674 527.6858 448.7317 511.0238 434.8686 483.4392 425.3504 486.7536 425.8308 501.4726 437.1234 518.6119 430.854 524.5602 441.6262 559.8172 Z M 535.2024 488.9392 535.9277 496.7903 556.4137 491.1249 552.6813 484.2734 535.2024 488.9392 Z M 487.6892 562.2643 493.285 570.7114 507.9754 570.6843 518.4182 576.5264 524.8437 565.7169 508.0869 560.6366 487.6892 562.2643 Z M 243.7953 472.7662 252.2208 474.5442 248.5813 453.8304 239.3051 456.7231 235.2704 436.4463 220.0779 439.7625 218.0817 432.3719 199.5394 421.9307 195.7427 438.7642 215.6965 441.1464 215.2431 464.015 218.3104 471.3165 236.4408 463.025 243.7953 472.7662 Z M 270.147 431.9457 258.7905 451.9867 265.9528 458.6239 286.2794 461.9767 301.221 437.2649 283.5314 421.0834 270.147 431.9457 Z M 200.2511 414.5816 210.8477 419.11 220.5903 404.6051 231.9942 372.594 218.1005 362.7922 211.2015 380.2653 199.8352 393.9338 212.2738 398.8658 212.2726 407.6914 200.2511 414.5816 Z M 211.1426 363.275 217.8139 362.0168 219.52 345.7631 192.0085 342.2881 194.9988 354.4102 190.2692 383.885 202.871 385.2494 211.1426 363.275 Z M 645.8257 393.2685 634.431 418.4535 640.1842 440.0672 615.8347 436.948 616.6162 468.1 650.7613 473.803 657.1683 468.5073 648.698 446.3091 667.5073 406.2165 654.2516 410.4976 644.2887 406.0752 645.8257 393.2685 Z M 284.2866 412.0346 288.1828 399.3841 270.0273 381.3482 252.1793 383.0048 267.2571 405.5276 284.2866 412.0346 Z M 444.6554 297.9356 455.0158 257.8779 448.3148 257.6099 450.762 235.5957 438.9719 229.9905 431.6324 252.6404 415.9201 248.8283 418.3289 293.0901 444.6554 297.9356 Z M 289.9885 283.3868 324.0654 244.8068 323.9176 226.167 310.622 223.6533 293.0975 211.3281 262.2965 258.4642 276.3583 275.2317 287.1256 269.7549 289.9885 283.3868 Z M 406.6477 181.8068 417.8226 179.1689 413.8577 165.3293 400.5259 176.0767 386.8752 180.3487 387.5203 189.4077 406.6477 181.8068 Z M 422.4113 156.6334 424.1441 147.9968 408.5653 142.6988 402.7457 148.5768 422.4113 156.6334 Z"/>
</g>
</svg>