<?xml version="1.0"?>
<svg xmlns="http://www.w3.org/2000/svg" version="1.2" baseProfile="tiny" width="800" height="746" viewBox="0 0 800 746" stroke-linecap="round" stroke-linejoin="round">
<g id="CityBoundaries">
<path d="M 799 553.2076 771.6495 555.5978 770.8503 610.7019 674.2239 606.7302 635.5525 610.3885 540.8869 607.2022 541.0208 624.8844 554.5235 631.0124 585.1989 662.8405 651.0762 740.8603 609.5914 740.8139 609.3981 713.881 525.7412 716.2308 501.1847 701.1466 500.6852 661.5565 369.929 661.766 372.7437 682.265 352.7677 683.2221 353.2376 714.9706 360.2094 730.8848 336.6532 735.9046 287.1708 735.2581 287.1194 745.4558 259.3019 743.0396 182.5349 743.0218 185.3611 715.3478 205.7843 715.5044 205.1966 663.1294 124.2958 662.7368 123.3142 608.4681 14.4196 606.9888 12.2425 507.6273 13.055 455.2228 1 438.8014 13.3809 430.2207 52.5029 414.7578 63.9762 400.8606 91.7387 392.2401 120.1336 356.4692 156.4761 299.8265 171.8099 258.8306 176.9357 177.5784 175.8083 144.7786 182.0672 62.0355 187.2304 29.9078 236.8752 36.4234 238.8756 1 260.4292 11.0951 282.9481 11.23 276.112 46.8248 294.0718 45.5203 343.9658 74.5748 330.9422 89.9474 362.6509 99.4109 400.6383 71.3601 388.119 105.0269 422.4383 109.1636 438.9001 120.7509 498.3925 120.5133 511.5129 140.7614 546.098 214.492 578.3 261.1392 611.249 260.5451 610.9778 244.6152 633.1022 241.4397 632.8244 283.3264 660.2928 283.0463 661.163 339.2072 636.2453 338.7482 663.5753 361.8746 663.3084 392.1846 697.582 390.1974 736.6246 446.9743 776.552 446.408 776.5974 499.1702 771.9876 505.8989 799 553.2076 Z M 500.3905 500.3689 502.8779 501.9483 681.3531 500.0144 681.2409 479.6784 695.531 479.5703 695.1353 425.362 661.5619 425.4029 634.1712 434.599 634.0922 393.7707 502.1733 393.3447 505.1936 420.5747 552.6638 420.3654 553.1451 461.3798 580.3001 461.4467 580.5123 475.0957 503.4005 475.6785 500.3905 500.3689 Z"/>
</g>
</svg>