<?xml version="1.0"?>
<svg xmlns="http://www.w3.org/2000/svg" version="1.2" baseProfile="tiny" width="800" height="792" viewBox="0 0 800 792" stroke-linecap="round" stroke-linejoin="round">
<g id="CityBoundaries">
<path d="M 733.509 468.0691 791.8684 467.1898 793.5061 566.899 789.2599 628.6689 794.9907 628.2983 799 787.9194 688.1292 790.7495 648.6798 752.3357 647.1699 653.1583 638.7946 611.4189 497.9418 611.7916 478.256 611.5412 405.8854 611.9049 403.5412 473.1364 363.189 473.034 360.3945 314.7147 163.0055 315.0085 160.9859 159.1859 4.0604 159.7053 1 1.5369 313.6134 1 317.7949 155.032 470.7164 155.4937 474.474 416.6596 537.3134 415.4673 536.076 353.655 633.9795 351.9464 636.2882 469.4047 733.509 468.0691 Z"/>
</g>
</svg>