<?xml version="1.0"?>
<svg xmlns="http://www.w3.org/2000/svg" version="1.2" baseProfile="tiny" width="800" height="746" viewBox="0 0 800 746" stroke-linecap="round" stroke-linejoin="round">
<g id="CityBoundaries">
<path d="M 623.3503 678.6289 634.5875 683.0333 641.5602 673.0158 670.9725 676.1271 684.4633 685.6921 715.0943 692.9254 702.5851 701.8579 696.9018 723.9073 679.4372 724.5785 679.4106 735.0025 636.9595 734.4206 626.3536 744.7617 626.5854 713.4724 595.1715 713.3606 588.1324 696.0352 574.4372 685.8504 581.0249 671.7142 601.0049 679.0678 612.1654 667.4361 623.3503 678.6289 Z M 232.1395 264.3562 211.0844 264.2098 219.1869 250.6219 232.1395 264.3562 Z M 513.147 180.5501 513.4476 191.3256 499.2968 191.3205 499.2653 180.4758 513.147 180.5501 Z M 1.4062 191.8333 1 149.8314 42.9951 150.3926 43.3532 191.1957 1.4062 191.8333 Z M 564.638 73.0196 618.1121 182.8648 633.8604 205.9146 625.2101 211.6395 603.4672 208.9955 595.9479 191.1341 561.4485 191.3146 561.633 170.9445 541.0839 170.7344 543.2591 160.1951 554.6001 154.1026 565.0515 130.5331 540.8136 83.7813 540.7171 63.3828 564.638 73.0196 Z M 315.7672 1 325.1683 7.9131 336.8023 53.4455 345.2832 97.2364 461.6515 158.3072 473.768 169.4177 499.3821 200.3556 520.7252 201.4611 523.1053 228.6014 517.1777 259.7182 505.5686 259.8169 506.3709 275.0927 584.1763 275.5376 585.6938 367.8956 596.7427 372.7618 596.6223 409.4391 606.8497 419.3648 606.8696 442.5523 676.74 442.7168 676.5998 459.8538 720.2118 479.654 753.0168 482.7113 753.0933 504.2911 798.4016 504.15 799 525.1361 755.3365 528.912 740.7984 523.2684 711.9998 525.3538 711.776 567.2976 647.3254 566.2441 627.0095 572.5784 627.0364 612.8741 585.2572 612.9436 560.3773 609.1281 553.2429 622.0713 543.9258 609.0499 461.8072 607.9113 461.817 595.695 422.2144 591.6567 419.3357 596.9865 419.8705 640.2903 400.3805 650.5201 400.8621 682.161 378.2398 677.292 377.6153 649.3158 333.7159 650.4077 332.7057 625.4652 293.9084 626.0215 294.1703 603.5025 279.2591 607.1888 251.9997 607.7097 251.4224 598.5126 230.816 591.13 231.293 567.0612 210.2176 567.0646 210.0738 593.7439 197.6532 592.9169 192.4915 583.9929 168.3528 567.7653 166.2988 625.8535 161.5855 644.8076 166.6416 651.3981 166.9586 692.8464 97.8529 692.6301 86.7983 681.5441 70.2281 597.9798 77.3936 591.1183 104.3633 611.7969 109.5291 605.1694 79.443 581.4052 67.2926 584.4468 57.8693 560.1949 46.5515 548.1282 62.6366 536.1135 82.6796 540.6114 113.5813 566.1854 126.3276 572.5759 127.0403 527.429 82.7645 527.387 42.942 525.0229 42.8816 514.7488 52.3923 505.7297 80.2462 495.7726 99.5171 513.7468 115.2526 518.1524 126.4964 509.1561 126.5168 491.1605 109.5956 480.8939 104.5456 494.8282 79.2391 485.5549 72.7402 469.2007 86.4375 461.6429 86.5149 442.466 49.48 442.9058 59.8922 431.4327 52.2381 374.124 57.5632 358.8077 50.2922 338.1307 48.5502 312.7689 85.9496 312.1853 85.9884 295.6937 127.7173 295.6524 127.5612 274.539 161.2612 274.7405 161.0211 250.5387 202.911 250.5704 203.642 274.5305 211.8563 275.055 211.8228 323.9365 232.0278 320.5675 232.941 307.3319 216.9046 307.5405 220.0564 289.9907 243.6126 289.9017 239.3712 274.7214 239.4475 237.9061 253.2778 237.6838 251.4163 212.1614 211.4115 211.9227 211.2232 231.3993 190.5043 232.9174 190.526 209.7299 250.3018 211.1004 294.8638 224.2395 294.8724 234.2889 314.3418 232.0677 313.464 191.0802 344.7704 191.1212 344.7409 173.3217 378.0571 172.1798 377.751 193.4484 398.306 192.4278 398.7088 213.1432 378.1614 215.3623 385.2551 232.9856 406.7925 232.9444 406.5472 206.4607 417.7564 206.3649 419.9722 238.0582 433.5283 243.592 433.4661 270.381 419.9712 269.5838 420.0274 280.8261 434.7681 280.7477 461.3391 269.1797 466.7556 244.1601 472.1078 240.703 473.3276 203.8704 460.3424 180.8204 452.7305 174.4813 354.6801 138.734 337.6779 105.8827 281.7238 85.1136 265.9611 67.9623 262.4976 41.3099 303.1976 41.3192 305.0199 1.5715 315.7672 1 Z M 658.5013 526.3703 658.5086 544.0432 669.346 544.1423 669.2883 524.8732 658.5013 526.3703 Z"/>
</g>
</svg>