<?xml version="1.0"?>
<svg xmlns="http://www.w3.org/2000/svg" version="1.2" baseProfile="tiny" width="800" height="790" viewBox="0 0 800 790" stroke-linecap="round" stroke-linejoin="round">
<g id="CityBoundaries">
<path d="M 540.4517 654.4092 555.0577 655.2724 570.5133 671.0455 577.5743 684.1001 551.4038 695.8214 547.3932 675.0161 535.7404 671.3021 528.3348 680.7705 514.0363 664.758 523.7092 651.8567 540.4517 654.4092 Z M 23.0563 733.5886 1 670.2587 36.2374 657.9032 16.8148 630.0121 61.5573 620.2566 101.938 605.8056 117.6521 627.4388 127.317 653.2127 131.7624 681.6492 113.0074 688.1876 104.9182 665.3715 14.6339 697.2814 25.9503 730.0601 30.56 733.8714 78.0424 742.14 126.8267 725.0009 136.3966 729.6398 77.3519 750.0163 33.6462 742.2302 23.0563 733.5886 Z M 420.4424 29.8909 420.7015 85.9008 440.4077 85.7217 440.6558 130.6504 396.0336 131.3198 402.3564 145.3445 402.4395 161.2065 350.0626 161.9617 350.6947 199.7841 364.5894 199.1809 364.6694 298.6938 351.5701 298.8059 351.5974 338.7421 363.251 338.7752 365.8417 299.758 379.5123 299.8521 392.1225 312.4639 408.4739 293.4537 423.0872 289.9902 428.2416 275.0306 458.1097 275.1306 458.3261 201.0152 495.6584 201.1348 533.7062 199.1108 533.5034 274.6577 629.7668 274.7332 669.2881 276.8103 669.7855 280.4381 718.8538 280.5788 714.6544 288.1397 718.7121 312.2771 749.5401 323.1943 761.7711 318.1875 798.5147 316.8712 799 340.6971 758.5148 363.9784 707.0507 425.535 699.3553 459.1378 644.8614 563.5832 668.0882 605.865 674.0281 625.5045 675.6143 656.8235 580.6476 718.639 579.7227 711.7864 605.1105 689.3557 584.1918 666.5694 574.278 666.5564 520.9648 607.4351 511.8537 609.6328 542.7947 643.5228 516.4985 651.06 504.5661 672.7439 509.0338 684.5047 548.3021 703.3544 561.5181 717.0976 566.68 729.5342 488.414 681.5243 458.18 666.8619 422.8011 653.8794 331.1383 631.0482 302.3498 628.9753 283.8573 632.2028 257.996 649.0952 253.2217 640.7588 215.7969 632.1116 184.9211 628.1757 196.6321 646.5871 220.4789 663.7478 229.3565 675.961 260.0432 689.4762 253.9157 702.8834 271.0903 760.0711 235.9693 759.757 234.1169 770.0991 273.0967 770.6415 273.7135 788.5274 229.8442 789.181 221.0121 770.6933 205.4272 770.6251 191.7349 758.3231 201.3802 749.9925 231.6974 749.7148 244.3931 736.4114 244.3629 726.922 224.8215 726.6944 223.0776 694.6604 215.9054 695.1923 214.9753 731.0356 183.8692 726.7584 181.8702 697.0242 155.7392 713.1196 155.6181 717.0478 181.6371 739.1779 182.7701 750.9886 144.8134 719.9452 146.039 695.7725 178.8995 674.8614 178.488 633.6431 160.6306 634.8602 160.0361 667.9018 152.4562 667.9522 151.8351 634.9153 146.546 634.6713 146.4927 662.6772 141.7085 662.7292 124.1748 625.8436 130.3938 601.9515 121.4935 594.0157 137.9169 582.1426 170.8073 565.8373 167.861 560.6475 124.6077 580.1703 104.102 593.6178 69.9302 600.966 31.1835 615.3454 122.6309 532.6459 93.8184 495.6056 96.3225 482.9643 115.0715 420.9279 115.0578 378.03 106.217 330.9119 105.9122 316.3732 115.7593 310.0601 143.9987 308.5268 138.956 279.7066 142.8833 264.6829 154.0155 264.499 163.3402 239.8938 178.4212 239.121 184.7354 209.9822 183.1481 201.7229 191.7506 159.503 206.608 127.6255 196.1961 126.5857 184.9917 78.787 187.8563 58.455 175.0265 53.838 174.902 24.6779 193.4258 21.8322 263.5631 21.3998 266.4452 1 308.27 1.2278 308.3071 19.3277 420.3476 18.6237 420.4424 29.8909 Z M 317.6297 345.6649 277.2879 346.1769 277.6425 420.0182 289.8737 420.5338 289.8072 439.0989 353.5214 488.4352 359.6097 494.8216 425.1963 495.1556 416.061 476.1601 406.5556 476.1226 406.5712 460.7515 420.2238 457.2576 420.3801 419.4866 401.3333 419.5301 388.1741 431.789 387.8685 391.4081 369.2535 395.1766 369.1636 382.0281 313.196 382.2014 313.2239 419.745 294.5462 419.7322 294.4727 382.2351 303.7814 372.7859 322.4914 372.7984 331.8034 363.3486 331.7783 346.1893 317.6297 345.6649 Z M 585.083 285.929 569.6725 295.2749 569.6685 312.9716 595.9671 313.0441 607.4345 286.4381 585.083 285.929 Z"/>
</g>
</svg>