<?xml version="1.0"?>
<svg xmlns="http://www.w3.org/2000/svg" version="1.2" baseProfile="tiny" width="800" height="589" viewBox="0 0 800 589" stroke-linecap="round" stroke-linejoin="round">
<g id="CityBoundaries">
<path d="M 656.4 116.4112 686.7868 173.6401 733.2118 122.2347 770.9952 101.7094 795.8411 181.9095 799 222.0237 774.3287 369.379 752.1772 447.7822 711.6198 502.0826 619.1428 527.7857 619.6136 508.1384 453.2514 519.0257 456.3248 568.2216 449.0146 584.3067 424.2126 588.3168 407.246 522.0356 384.6655 517.0425 160.7078 397.2657 126.2667 283.8465 92.0265 283.9724 55.8632 264.7223 37.2146 233.8982 22.9116 187.9108 9.8761 172.1285 12.6895 154.0104 1 129.4425 29.5058 57.8719 96.5861 47.487 178.2802 118.9486 595.2912 1 656.4 116.4112 Z"/>
</g>
</svg>