<?xml version="1.0"?>
<svg xmlns="http://www.w3.org/2000/svg" version="1.2" baseProfile="tiny" width="800" height="736" viewBox="0 0 800 736" stroke-linecap="round" stroke-linejoin="round">
<g id="CityBoundaries">
<path d="M 799 266.3691 753.8069 615.8268 727.5382 681.3448 671.258 734.5011 646.6211 721.3296 453.682 697.867 476.8585 627.8786 366.4222 590.9989 357.7561 627.0082 246.8898 583.109 200.6841 596.5539 179.5101 433.966 155.8818 416.9928 23.6388 410.0736 1 296.5242 71.2127 289.8663 54.0047 151.0069 17.5985 146.7763 26.0601 116.6471 13.3808 43.0639 43.5217 43.2305 52.0147 95.7978 109.9413 103.1764 106.5963 137.602 241.7089 154.1687 203.2216 1 257.79 8.2112 247.6762 95.7247 296.223 101.9275 291.3908 151.6522 725.6683 200.091 709.5623 262.4778 799 266.3691 Z"/>
</g>
</svg>