<?xml version="1.0"?>
<svg xmlns="http://www.w3.org/2000/svg" version="1.2" baseProfile="tiny" width="800" height="1326" viewBox="0 0 800 1326" stroke-linecap="round" stroke-linejoin="round">
<g id="CityBoundaries">
<path d="M 776.5293 654.7043 771.6354 675.3453 799 698.5514 783.195 759.1171 793.5609 770.6871 775.9108 825.0687 768.0533 878.2403 715.0999 884.8415 707.8732 911.5859 660.6773 900.478 628.5331 1034.0035 648.3486 1044.0638 599.7431 1141.4425 619.9403 1280.5221 613.0289 1324.8326 597.2612 1253.9641 562.7294 1255.3699 561.7329 1287.926 535.5932 1287.9306 515.6298 1257.3937 435.8507 1257.3738 435.3106 1163.1199 335.8979 1159.3367 314.1763 1149.6949 237.2607 1151.3339 237.8671 1013.8957 266.234 1012.5682 266.2376 976.9128 237.6866 975.5795 237.8324 945.5056 314.7863 950.1887 307.9454 909.1981 237.7715 908.3141 237.6046 850.7848 146.7756 851.0298 141.3099 833.4483 181.3878 756.5361 90.7879 706.3097 24.0208 659.9371 1 635.0393 24.0454 618.303 36.0094 577.1794 4.8209 550.4549 25.0699 519.8526 109.8843 584.6749 158.319 513.7725 186.3814 430.5908 185.8322 395.9774 214.3124 398.0255 221.2887 357.6263 184.5511 315.6289 198.9911 185.8048 236.7284 130.0093 268.4483 110.0732 246.774 77.0622 292.0801 50.9976 300.0483 3.8891 348.2826 1 319.6043 37.2303 317.0094 104.1801 292.5512 154.7822 220.146 203.0458 317.1568 202.452 355.3229 215.4402 460.4468 201.8601 543.3925 222.1318 539.1338 284.4471 563.7292 312.5966 633.376 327.3788 645.5156 356.0229 624.2215 433.9633 585.5568 433.5607 586.0855 462.4966 536.4837 461.2851 535.8458 556.9792 591.1376 554.3767 579.7086 596.8913 776.5293 654.7043 Z"/>
</g>
</svg>