<?xml version="1.0"?>
<svg xmlns="http://www.w3.org/2000/svg" version="1.2" baseProfile="tiny" width="800" height="803" viewBox="0 0 800 803" stroke-linecap="round" stroke-linejoin="round">
<g id="CityBoundaries">
<path d="M 628.08 327.9056 644.4705 342.3589 635.1288 348.7649 615.5208 340.0961 628.08 327.9056 Z M 799 41.8062 792.3211 58.0238 735.8899 141.1856 719.9454 149.9815 719.7029 87.0892 710.5958 73.9229 736.1005 59.5451 728.7669 42.9911 752.0626 43.3639 768.2041 33.1204 782.2467 13.0256 790.5868 20.4115 790.9336 35.0964 799 41.8062 Z M 505.5999 1 524.2 12.8089 540.6973 17.6493 558.1883 37.1338 581.6955 52.8875 613.5658 54.546 625.5356 58.6998 647.6715 75.0285 669.2752 83.4335 682.9173 77.3218 681.9705 168.2974 664.4071 176.9544 641.4205 178.0916 632.1148 183.4293 630.037 193.8462 642.0971 220.3848 635.695 223.8843 659.3072 252.0336 631.5864 271.2749 625.2755 282.1243 613.2606 288.569 629.4114 317.6685 608.1709 336.8399 602.5333 346.0929 598.4497 367.6915 591.6653 381.0976 593.5945 389.261 573.3893 409.2693 563.9879 425.7012 481.4913 389.3284 478.1848 397.6124 462.0133 389.8035 463.876 378.3212 443.7906 368.7454 429.8439 381.8546 392.4334 337.198 374.6363 330.7732 359.6666 309.435 345.1056 319.4512 347.3409 333.4257 333.2225 336.0126 340.4669 369.0115 333.7534 389.339 347.8701 403.8563 380.3834 408.563 417.5362 445.7224 400.8696 458.3671 397.0946 453.5548 379.241 467.5022 399.3636 483.0587 426.9999 461.7979 435.0405 472.4238 405.2349 495.7785 422.1042 514.6022 445.9196 551.3668 456.8163 552.6383 464.667 566.9254 457.2114 579.4657 445.6385 587.4705 439.746 599.3044 429.2582 601.8045 417.3748 618.5261 399.5704 613.9433 389.5513 620.7816 388.4739 630.6593 370.2239 657.9044 336.808 615.9575 320.0204 631.9559 286.4052 655.9092 276.772 643.2467 267.5964 652.3478 276.9104 663.2583 266.1658 673.2725 256.3538 663.0923 248.6635 670.4657 260.0105 682.8035 242.3988 704.9344 246.2277 712.616 275.2478 685.0171 299.2989 692.7102 313.6029 701.4533 302.9911 708.541 296.0719 724.8006 301.6367 733.2123 319.5031 734.2498 318.9922 744.1223 287.6167 760.5712 280.8053 746.4741 267.0584 754.5234 273.867 768.2693 264.4079 772.3232 244.5782 763.9724 232.8321 765.8259 231.6462 742.2353 247.6078 721.9704 235.638 707.6034 226.8129 718.1057 241.3025 728.6874 228.5208 743.7352 221.2954 792.1186 203.2663 802.1642 193.6498 798.4489 189.5074 772.4976 160.7378 746.3053 153.6372 745.0686 138.3434 716.6342 117.2721 703.4347 94.847 701.7594 83.1001 692.1866 69.3246 702.6927 57.0994 702.5273 28.0655 710.8997 4.2917 709.2678 4.9691 691.1578 1 671.7257 5.1584 665.2524 10.7027 636.2313 8.3447 626.6532 15.9247 604.7567 3.2585 569.9863 12.2712 556.5317 24.5108 548.252 40.9406 526.0945 60.7256 509.3591 78.0968 517.8229 92.0937 500.4624 103.7994 507.962 117.9161 497.8745 126.4871 512.2479 150.2501 505.639 142.5425 468.4015 154.6498 467.8882 148.3912 447.6175 136.9508 442.069 94.3224 443.8009 95.6597 433.5589 88.7339 418.2472 88.7079 404.4449 70.925 392.065 57.9393 361.5805 63.4219 348.9926 83.4976 364.4046 96.826 362.3633 118.0628 376.0625 144.3422 372.7425 157.699 351.7442 166.9164 352.5279 183.8463 366.2765 189.3765 358.1876 217.8505 377.0574 208.5574 333.5221 219.5596 335.8461 228.038 382.1641 219.4203 384.0871 228.0068 425.993 236.0034 422.8702 247.4066 431.9949 267.5801 424.3866 304.4785 419.3604 296.8211 387.9999 268.8617 338.4613 257.501 335.1671 243.3803 348.5516 235.5577 335.8194 208.9525 329.1492 196.8541 312.3077 222.6959 303.503 234.9832 292.2073 245.9251 268.3527 275.7002 266.2153 262.6592 241.4866 267.8508 219.3691 284.2001 179.3431 289.8026 151.0245 303.2134 114.4342 342.2934 98.1248 328.3904 49.6954 366.4418 56.3329 375.7938 52.0282 391.7676 17.3641 438.5686 6.8066 473.2416 14.0228 490.1339 2.832 505.5999 1 Z M 621.1512 89.4702 621.63 111.6239 626.9162 127.0806 619.6637 146.0948 636.4014 142.9442 635.5335 116.7086 631.893 102.0654 636.8509 86.4833 621.1512 89.4702 Z M 374.3401 225.6409 377.6571 232.4526 398.871 243.8921 403.9273 262.5009 427.1735 249.0599 443.6645 216.1808 433.1028 217.4619 419.8569 209.6061 427.733 191.1971 370.651 181.7629 362.1383 197.6335 367.786 223.0845 374.3401 225.6409 Z M 207.38 434.9027 221.7018 431.0859 218.1103 414.2669 210.1846 416.5059 207.38 434.9027 Z M 356.5241 462.9872 342.8703 471.725 351.0791 484.0555 369.9549 471.9359 356.5241 462.9872 Z M 314.4463 573.2243 324.7018 564.1764 317.7242 556.2288 327.1498 548.3802 318.0076 518.5206 301.8598 505.3942 291.281 519.6742 273.4583 536.5638 288.3918 542.3806 314.4463 573.2243 Z M 193.8752 635.829 181.611 644.962 198.1252 658.5716 201.7608 649.606 193.8752 635.829 Z M 465.1924 316.4596 453.7985 345.5376 447.1287 353.4916 447.7043 365.9753 467.5327 375.6446 487.7544 381.4429 503.4436 364.5945 519.4337 365.827 528.7061 357.683 540.9209 363.8972 554.2654 356.896 526.9384 345.3679 525.2489 350.8283 486.8208 333.0383 484.8389 321.5673 465.1924 316.4596 Z"/>
</g>
</svg>