<?xml version="1.0"?>
<svg xmlns="http://www.w3.org/2000/svg" version="1.2" baseProfile="tiny" width="800" height="989" viewBox="0 0 800 989" stroke-linecap="round" stroke-linejoin="round">
<g id="CityBoundaries">
<path d="M 792.7926 185.9075 799 201.2328 728.8209 248.1549 697.0223 362.405 700.539 402.4655 661.8899 457.2124 656.9662 625.4502 632.782 712.4373 595.1746 762.6108 580.1835 844.4126 538.5838 872.6172 499.3789 961.891 480.3065 988.4781 249.8114 899.5954 228.5987 827.224 236.4173 781.719 201.9121 683.4803 146.226 679.3401 136.0586 648.7487 55.3506 609.8532 1 607.7313 14.9966 554.7401 58.2688 464.1083 95.3233 445.7375 117.3937 387.0623 110.4915 313.0786 152.9259 251.6626 183.4921 243.2829 234.7389 119.8129 309.122 70.8243 311.966 1 465.1876 61.2974 616.4622 112.6529 719.4175 163.3977 792.7926 185.9075 Z"/>
</g>
</svg>