<?xml version="1.0"?>
<svg xmlns="http://www.w3.org/2000/svg" version="1.2" baseProfile="tiny" width="800" height="1009" viewBox="0 0 800 1009" stroke-linecap="round" stroke-linejoin="round">
<g id="CityBoundaries">
<path d="M 201.5521 168.4559 216.5658 173.6254 235.3727 174.3763 249.4591 188.2225 244.01 206.9982 248.8913 228.5455 280.4211 273.6712 304.7109 273.5232 320.8988 247.4203 288.1499 226.9097 283.9285 212.736 337.9376 219.2952 317.7419 263.6529 305.7382 283.635 303.1827 304.6184 307.8522 315.1542 347.8337 370.0655 352.9536 354.1743 373.9347 323.392 360.7167 307.752 362.1143 292.4279 356.1317 288.6959 357.5389 270.9839 371.943 271.3607 383.0701 263.8146 392.5601 264.4684 394.7241 277.99 384.3161 288.3974 397.7438 293.5697 396.5675 303.2334 418.1514 301.5381 425.6772 279.0819 406.957 273.4821 398.9314 262.2757 404.6892 248.7519 399.868 242.968 381.2567 238.4899 382.8505 224.4515 426.5788 232.1534 425.9766 237.3968 447.6089 241.792 470.0351 226.2736 458.8757 222.6693 464.842 179.0493 474.2329 169.468 491.1307 171.8481 498.9185 181.2184 494.3812 212.5122 492.3204 243.6589 502.3821 245.1385 507.3228 209.7441 538.2461 215.1106 536.2627 226.7158 560.2 228.1783 558.6844 207.4831 562.5475 197.4732 528.6381 193.6684 526.992 204.3235 508.5699 202.7067 512.4311 175.6351 526.0177 154.2698 524.7838 138.8233 481.1174 130.9695 486.9109 88.5283 498.1743 86.4919 499.3234 70.8171 482.5505 56.9337 487.8253 8.1055 504.7404 19.9155 516.6146 17.5484 532.5522 1 539.145 24.6877 521.1867 61.0728 523.2469 76.3871 536.8215 80.2286 545.0732 76.0011 554.2924 94.1352 539.1706 94.0338 532.2509 153.2131 531.8639 176.8604 568.4304 181.3709 560.7711 214.307 562.0413 254.5034 571.3708 256.1539 575.348 272.596 589.6042 273.8847 595.1071 249.312 599.2885 200.0705 624.3747 211.5185 626.7914 234.9518 612.9942 260.0653 642.5537 269.7941 634.549 319.4891 644.2673 321.1531 646.4105 301.6004 654.5643 302.909 653.4273 341.1851 643.2654 345.4867 622.6869 338.7846 621.1298 352.6767 630.2355 353.8534 627.4788 377.8571 639.9228 376.1823 641.3408 367.5542 664.2446 366.2418 668.7834 324.4434 669.8838 292.0104 678.5175 277.2469 665.9839 272.236 669.8086 239.8279 700.0403 243.5613 696.8291 260.6604 701.2188 277.2433 718.5059 280.96 719.8428 243.6389 744.2024 246.7774 741.4856 269.3946 728.2946 267.4552 727.2407 283.9589 700.6762 278.6001 695.8232 287.0774 712.693 314.3455 708.2057 330.9016 715.0645 343.2152 712.8984 359.7144 700.5018 354.8622 699.6116 382.5036 717.119 380.7228 711.9633 414.2653 715.1502 433.2822 736.9659 447.2297 744.7813 456.8138 736.0637 471.1875 743.4033 475.137 735.4761 514.7734 710.1404 529.5357 707.3471 507.81 696.761 510.0704 700.9666 533.3757 693.8369 550.9744 699.7293 558.5936 696.5239 617.1189 711.259 620.1463 713.0728 641.7961 723.1986 643.0058 717.1588 668.6681 707.3622 667.7933 704.7497 695.3696 730.735 698.5131 728.3088 742.4302 685.8597 738.0405 677.7925 727.5484 657.5589 742.849 665.2629 752.8005 688.2465 741.1059 692.4419 753.9695 672.6918 763.5599 685.2079 780.4042 679.5327 789.0846 635.4066 786.3493 664.7103 840.8102 657.2231 845.035 639.4185 843.5157 637.6333 857.4077 649.7633 858.8931 646.8881 879.9958 661.3313 881.8105 659.7693 895.6519 691.5748 898.2016 697.3406 906.5017 713.6399 908.5627 715.8873 883.07 723.6862 884.0522 728.7926 866.0474 771.0885 873.7176 767.5779 904.1655 799 910.9496 796.6874 942.3015 763.9911 938.9729 762.0181 978.5912 737.0195 998.4256 730.6443 987.6976 744.3095 983.7531 746.2562 969.4895 726.401 976.9938 705.6915 925.3186 698.8771 934.5232 688.4108 924.2536 664.3871 924.8818 661.0074 953.2555 686.704 956.6105 680.3829 998.9125 638.4723 947.0325 620.9742 915.524 615.983 877.8031 618.3031 855.0648 606.9893 853.7205 613.1378 828.5934 640.8993 832.5807 655.7215 826.5351 619.6633 757.7312 590.028 691.9566 545.5919 704.1294 532.9893 693.1596 525.3511 695.2935 527.7196 720.5262 536.4623 721.2325 557.4427 734.7374 555.7582 746.7796 531.242 743.9551 536.339 785.9605 550.0743 806.2186 570.1125 828.701 583.95 850.9191 583.478 866.8229 551.993 863.6499 553.21 889.4618 563.2834 942.1469 551.5017 941.0449 547.4755 985.7635 522.8129 986.2818 532.4193 935.0495 561.5025 940.6785 557.6552 921.1015 521.3682 915.3297 520.0321 928.1188 510.9051 935.115 507.9726 959.6158 483.0481 956.1885 487.7317 916.8211 448.75 911.698 443.0403 951.441 470.9634 966.2575 470.8324 987.3949 479.585 988.1634 476.5601 1007.593 453.336 1003.5088 440.841 995.3764 427.8133 993.4524 417.4313 981.0976 417.1576 972.3834 428.5297 965.5169 419.0988 945.4746 429.464 939.4563 433.1618 922.8473 426.2513 883.6502 452.4903 884.3675 456.1398 854.2731 445.6962 853.0465 418.6064 822.3395 422.1971 803.5001 471.4827 809.9282 473.9769 803.4907 465.696 789.9483 464.1536 772.9824 437.4501 746.3011 429.8286 757.7164 417.9882 751.4837 417.3823 737.6628 426.6504 716.6907 413.9038 713.4557 407.7576 737.0604 384.4154 739.1001 376.5966 735.3779 387.5945 721.3326 366.9599 724.0684 369.5553 734.7498 340.3311 741.7997 340.2411 714.9003 317.9903 712.1147 315.1124 746.6035 328.4219 744.9745 324.1436 802.9067 359.0701 808.7972 352.8679 836.8065 349.9209 873.023 336.3342 876.5684 325.1952 865.1253 324.9197 832.1742 308.7537 829.1015 307.0343 852.6363 298.1026 860.4661 285.7182 852.6948 288.752 845.2376 281.5453 829.5376 269.1084 828.0611 263.6375 812.6821 245.0781 810.4997 230.2956 816.3168 234.782 840.7449 246.0666 845.7579 249.5454 833.571 259.9517 839.4467 252.5677 872.9463 237.7554 871.6603 235.945 884.1991 224.5532 883.1185 211.3659 869.9835 194.3081 867.9573 194.5573 856.2103 229.9892 862.102 230.9139 854.593 194.3515 850.6918 197.1991 786.9978 207.4962 772.6217 240.632 764.3652 238.7306 710.789 207.2021 703.2497 219.7026 649.6947 237.2195 636.7971 260.4911 639.9993 266.8977 632.1177 287.8095 634.2702 288.9639 598.5764 279.8041 597.9102 287.8385 580.045 292.116 542.0766 290.7038 514.1093 330.2512 558.4332 334.2261 557.17 292.3249 509.583 263.9398 485.5112 246.5875 485.8396 238.9074 497.7593 235.924 517.3142 246.918 518.8008 244.1479 539.9208 278.7195 541.7175 272.865 589.9079 236.2803 586.7983 230.7008 579.4622 213.8394 573.7379 211.96 590.8293 234.2132 591.4917 247.9103 588.5901 245.848 609.8022 232.6971 636.0976 188.5975 630.1375 191.9154 608.5101 180.5274 607.5653 175.1653 597.556 159.2949 593.7002 156.8705 618.2447 160.0932 625.4222 176.2472 626.8696 186.4958 636.0603 182.6556 651.544 176.1562 710.7228 167.2679 771.0375 160.1629 776.737 98.8794 770.0037 105.0791 721.486 130.6247 724.6019 137.6764 672.0755 159.9916 672.7117 161.84 656.3626 136.1853 651.084 133.1472 644.9481 104.0634 642.4843 109.6207 598.9401 150.2155 591.0748 170.4107 590.1536 166.4156 576.4158 167.6683 562.0476 178.0508 552.9414 160.5315 534.9538 152.179 531.6127 149.9055 548.9472 131.3849 549.5032 133.1348 562.2839 127.2501 573.9443 107.467 571.4136 103.5374 556.4762 107.9553 549.901 130.0531 550.9654 136.7941 539.2651 119.5602 534.4105 121.1469 525.1901 70.4755 520.2011 60.8141 527.6541 1 520.3692 7.7381 491.2382 30.549 495.6775 42.7652 486.4501 50.3534 500.7473 68.4651 503.0604 69.8148 486.0504 75.9314 484.5635 107.6654 489.339 112.4185 448.8325 128.4122 450.6986 123.4833 491.5759 123.3768 507.1036 148.114 501.8998 146.7875 515.277 160.0918 511.7886 158.4318 481.5852 188.4669 468.4774 209.2024 471.2486 215.7102 458.3785 205.835 450.3626 162.2897 446.255 165.3815 455.4544 177.6133 456.5883 167.0848 475.0538 134.4105 468.0158 137.0474 445.4229 152.7603 443.9036 202.7073 448.3988 216.3743 456.6208 236.046 452.9319 209.9113 424.5083 222.0634 410.5095 241.8869 409.9501 239.2668 420.6641 244.7202 454.4981 256.5113 467.712 280.5188 477.0111 310.291 473.3755 336.6313 481.829 366.0758 483.773 368.2103 450.2033 378.3181 450.7611 388.9793 435.4152 343.3664 372.0756 293.9982 301.2595 233.8796 327.331 218.9319 340.5506 200.0261 365.4326 183.8259 367.4665 162.4263 365.4912 124.0183 322.605 149.7652 325.6435 150.8358 316.4937 202.0826 322.611 206.8605 293.4698 186.5716 291.7506 183.7694 300.2032 160.8927 297.2865 142.5322 284.6271 157.4561 266.5731 167.2132 267.0242 190.7581 276.2875 194.9632 262.7449 168.636 254.9426 169.2501 249.3083 198.8298 255.213 210.4179 266.4262 208.7674 276.5769 195.2421 273.6389 190.738 280.4489 213.7075 285.0154 219.5485 299.6839 219.2694 314.4543 228.4675 326.5241 261.7484 310.7964 276.1395 301.3604 284.8251 286.3156 248.1074 231.4767 236.3901 239.0236 224.037 222.3026 228.0208 210.9342 215.4091 194.9547 212.9551 217.6194 192.3379 204.6355 210.1663 185.6624 201.5521 168.4559 Z"/>
</g>
</svg>