<?xml version="1.0"?>
<svg xmlns="http://www.w3.org/2000/svg" version="1.2" baseProfile="tiny" width="800" height="893" viewBox="0 0 800 893" stroke-linecap="round" stroke-linejoin="round">
<g id="CityBoundaries">
<path d="M 58.1331 345.0944 58.1504 371.2013 79.4447 371.4546 72.1606 384.0098 83.4438 405.1876 83.6148 443.3229 62.4989 423.466 57.9236 431.9758 33.2399 431.9679 33.3906 443.7668 8.8574 444.2701 8.9714 417.0165 1 369.9625 40.6771 370.0868 37.4944 345.3869 58.1331 345.0944 Z M 230.4339 245.7523 210.8797 235.2944 197.2283 219.0707 223.174 218.0437 230.4339 245.7523 Z M 230.4339 245.7523 275.1095 245.5659 275.6935 285.4954 300.4171 285.6099 300.4858 263.2945 295.4355 245.5918 332.3219 245.3836 349.4444 283.217 374.3142 283.1789 375.4224 293.4261 423.7522 294.6468 422.5247 273.3163 410.6705 248.0462 409.6433 197.6337 398.5343 197.6001 398.4805 147.3699 415.286 149.9327 449.0677 147.3463 448.6262 167.611 454.5103 172.299 496.1703 172.0748 517.1264 186.3301 542.7085 186.6324 546.0401 204.1706 545.3665 244.741 596.2199 244.9823 601.1875 217.4025 617.1976 222.0691 625.9607 234.8309 618.9484 244.8561 656.8895 244.7592 656.4197 220.4403 645.2007 209.2829 652.1712 197.1021 689.6734 197.3534 689.1974 221.2816 738.4262 220.7308 738.3886 234.0945 714.948 234.4375 702.4837 245.4091 688.5507 245.3855 688.399 292.5669 692.3954 294.2035 799 295.2859 798.8573 308.9465 738.6652 307.4431 740.4192 342.3723 738.7301 384.3876 690.4228 382.6848 681.0307 393.1007 680.9406 418.1215 632.3718 418.3145 635.6311 427.7838 630.6029 460.6465 642.3091 506.8362 621.7455 507.0773 622.5088 517.7695 642.677 533.3073 642.6759 539.8237 595.1092 540.6997 602.3934 564.6172 619.6317 564.5544 619.4412 591.5925 643.033 588.8736 651.4209 573.7709 667.1641 574.0241 667.3063 589.5398 644.6804 588.9268 644.462 640.0681 595.8804 638.7186 550.2046 642.3137 548.6602 708.7692 580.8992 707.1434 575.3145 671.426 593.8337 672.1055 592.5701 657.3256 622.0065 660.5755 644.0757 647.6847 644.2906 719.6438 618.6064 701.411 618.8545 734.8102 645.9498 738.4912 643.5017 829.9416 634.2508 825.5148 619.1842 837.322 616.655 854.2494 623.5692 886.3563 541.394 886.3734 528.8643 892.1995 512.6778 872.7152 512.1791 838.8572 516.8379 814.7458 500.182 800.1588 498.2864 788.2592 483.5377 788.4177 485.6445 807.3263 470.8506 804.5702 474.9964 772.2156 452.345 767.079 449.5401 781.4886 426.928 779.5008 427.1666 764.5449 401.6951 763.3588 401.7342 779.3875 426.8646 780.4926 427.0322 800.2517 401.3481 800.3538 400.9572 818.3859 375.7122 814.4998 378.3087 824.7199 368.2425 840.2961 319.3496 837.7329 301.4926 839.7391 301.3175 877.7596 290.0675 878.1008 289.8135 839.4394 255.1636 793.5899 275.2351 786.8504 253.8316 756.8574 254.0936 734.562 144.8662 734.1918 62.045 736.8845 57.8377 730.651 57.6765 686.5625 128.9489 685.3744 101.5547 666.9724 100.3437 638.2203 116.9234 640.8563 105.2406 606.2071 86.1678 599.528 79.8741 584.2505 80.6758 540.4154 134.8555 540.1571 130.0685 529.0164 124.8777 493.8326 107.985 493.025 106.4669 470.3103 133.7664 464.1024 151.7268 474.6911 163.2453 464.1945 163.1424 447.849 175.3335 438.1482 166.8617 428.625 166.6951 412.5828 154.5604 394.0917 105.6527 393.2165 109.3036 363.3883 106.5859 345.4287 59.1101 345.0411 59.0359 310.9673 63.6554 294.8211 115.4923 294.3139 95.5759 246.2076 136.4644 246.2462 204.486 309.1125 210.6448 289.0733 178.0854 264.4073 184.0468 258.7572 200.9657 276.3121 227.6216 290.8684 230.4339 245.7523 Z M 275.3202 308.5394 276.1969 332.812 287.986 343.5075 300.1149 343.6454 300.5138 309.9629 275.3202 308.5394 Z M 694.1316 323.7427 693.2071 342.1261 738.0208 342.4757 737.6107 325.1658 694.1316 323.7427 Z M 270.7278 343.7183 243.8097 324.0582 228.0882 331.1216 241.1843 343.3437 270.7278 343.7183 Z M 153.6717 344.1104 163.2072 326.9743 150.6712 298.2496 120.506 297.731 125.7921 317.878 106.5492 321.4466 128.4027 344.0811 153.6717 344.1104 Z M 153.1333 378.6293 153.7766 348.6234 139.664 348.7633 153.1333 378.6293 Z M 197.2878 425.214 186.7258 441.9319 206.9393 441.7395 197.2878 425.214 Z M 560.0294 505.7237 547.3239 506.2009 547.8048 538.2036 633.0134 538.9187 606.4405 517.5554 560.1265 516.207 560.0294 505.7237 Z M 521.4497 542.9281 522.7775 553.4985 545.9634 554.206 546.0812 542.4679 521.4497 542.9281 Z M 547.6929 552.3567 547.3555 565.1269 567.2473 564.3973 568.2264 544.9618 547.8114 542.6224 547.6929 552.3567 Z M 166.7419 571.0259 183.122 557.9004 183.1657 539.9493 165.2688 540.0611 164.4908 515.8897 142.5097 515.3977 155.0644 540.0821 156.1599 588.1143 179.7729 588.0128 180.0287 575.6206 166.7419 571.0259 Z M 572.442 596.8099 572.0147 637.6703 595.2295 637.3697 595.1726 620.4845 577.5741 607.4189 572.442 596.8099 Z M 522.4518 638.4848 522.865 662.804 546.7381 654.0396 534.2086 639.095 522.4518 638.4848 Z M 461.2289 665.4964 450.1509 664.7762 449.782 685.0548 478.3582 685.9674 497.3722 690.1997 497.5595 675.8914 477.951 679.6262 461.2289 665.4964 Z M 539.3718 684.1699 515.3524 684.2855 541.9369 707.1929 546.8235 700.2497 539.3718 684.1699 Z M 489.3651 694.5394 461.5206 687.4613 461.4351 734.4067 501.4075 734.7762 499.4759 715.0448 489.3651 694.5394 Z M 518.8085 765.169 510.8526 764.5708 521.2228 808.8754 513.0689 837.3054 546.3067 837.3353 546.4804 791.1251 521.4762 789.8853 518.8085 765.169 Z M 568.9944 801.1945 580.2893 775.3187 548.587 775.2035 548.5331 800.8183 568.9944 801.1945 Z M 546.9669 837.335 546.7434 881.2381 565.3494 880.1109 564.8559 845.1871 593.7064 853.8764 593.7619 837.342 546.9669 837.335 Z M 444.9721 734.6317 448.6784 734.8132 448.2788 666.6654 422.1243 672.2601 424.7411 690.7981 440.6471 710.6972 444.9721 734.6317 Z M 185.239 706.3674 179.3921 732.7343 205.9863 732.7546 205.5662 711.3424 185.239 706.3674 Z M 132.3918 706.2285 127.7829 688.9421 103.1859 689.4176 108.4411 710.9951 132.3918 706.2285 Z M 179.7413 637.5283 179.6195 618.7677 156.7274 620.0161 156.5214 637.6907 179.7413 637.5283 Z M 523.5827 518.2169 538.4407 523.0152 545.98 493.1748 523.5827 518.2169 Z M 299.1103 821.5989 319.7842 815.0866 323.1744 835.5071 350.7245 833.9869 351.3308 791.386 327.8333 791.2206 323.0516 812.4563 309.4801 791.0078 286.9314 790.9755 299.1103 821.5989 Z M 545.9272 269.1007 568.9501 269.0578 546.0215 246.3733 545.9272 269.1007 Z M 534.1676 257.1372 525.6925 236.9155 530.5759 221.2566 510.089 199.8716 471.8585 196.4464 448.4475 184.348 448.1053 219.2112 497.3243 218.8915 513.1486 226.7328 522.1846 247.8925 534.1676 257.1372 Z M 644.7793 247.0539 644.8006 257.672 663.0953 257.4984 667.371 246.2636 644.7793 247.0539 Z M 398.4805 147.3699 370.1572 147.4769 370.4875 98.2044 398.1533 97.1056 397.8456 49.4457 446.566 49.6516 446.56 1 495.8992 1.868 495.4545 39.7938 481.1695 49.8821 468.2731 49.7701 469.8051 73.6639 446.5627 64.2703 441.1222 129.7537 424.284 141.4593 404.7985 147.4236 406.1743 107.7708 398.1777 108.068 398.4805 147.3699 Z"/>
</g>
</svg>