<?xml version="1.0"?>
<svg xmlns="http://www.w3.org/2000/svg" version="1.2" baseProfile="tiny" width="800" height="973" viewBox="0 0 800 973" stroke-linecap="round" stroke-linejoin="round">
<g id="CityBoundaries">
<path d="M 797.4001 971.2863 775.2624 971.7822 775.3233 938.4576 799 938.3963 797.4001 971.2863 Z M 135.7179 191.4547 159.8833 223.6947 124.8842 248.9558 109.1526 228.7238 122.9975 217.5532 108.4874 196.3983 82.3384 215.0883 71.8681 201.2667 54.0387 194.7793 117.6802 166.5117 135.7179 191.4547 Z M 177.6094 41.9725 191.0974 66.0476 219.8195 55.0157 205.9201 25.5924 247.6374 11.0032 286.0665 62.3304 317.7851 116.4555 339.4145 132.9336 374.4134 110.596 398.3706 162.7854 406.4787 197.042 436.0344 193.8864 449.0971 239.5308 473.9944 255.282 482.8932 243.1412 525.9251 212.4165 547.4361 210.271 548.4217 240.1622 497.2629 243.8306 493.4764 269.4555 516.7349 266.7774 518.356 300.4174 531.9439 304.4411 538.4799 325.4895 555.6471 307.9665 579.5897 322.639 596.6164 366.1375 573.9956 364.1387 562.5849 395.6186 565.6131 410.0489 588.0132 416.0523 583.2338 442.6999 554.4815 432.5738 537.3017 437.7163 559.4845 467.159 603.1426 470.1735 606.4795 520.1892 596.8604 534.4359 573.331 535.187 558.6152 525.4699 549.5407 505.437 526.0444 518.7389 493.9725 529.5771 510.4476 626.2655 513.3675 661.7605 509.2322 730.0708 515.1365 758.7743 517.8397 798.3636 499.8144 791.6957 483.4849 804.3786 448.7625 794.4579 425.1156 800.168 412.5955 848.4873 411.7278 872.9999 403.1298 888.9256 364.95 896.2627 333.7476 919.2389 315.1638 923.0971 321.6834 898.2175 294.5872 864.745 290.4798 842.2068 314.1205 824.1901 292.9218 794.3165 322.4666 771.9734 306.7815 761.1453 302.6444 684.7141 335.9787 680.7161 378.604 746.9794 403.6762 763.5381 414.8205 780.238 440.337 782.8667 447.705 766.4898 474.4893 766.8255 477.686 702.5051 467.9215 685.4754 505.8885 664.0458 506.9649 645.9481 469.665 657.6874 467.6315 674.8607 435.4847 693.4933 419.2449 672.038 432.1211 645.3168 417.5463 603.7737 417.6467 575.3997 332.3854 574.6118 331.3272 554.2831 307.5315 554.1214 306.9136 605.1899 279.6684 616.5496 272.4989 584.8759 278.1927 552.5596 299.66 547.8692 295.7994 511.817 224.9066 513.3139 246.0644 476.5557 266.2135 474.1126 272.5294 449.1207 261.7074 436.9179 224.314 438.5961 194.4103 420.9532 201.7993 387.5489 196.5751 374.5279 162.3495 368.4582 158.9352 357.8342 132.7018 357.0921 139.3259 442.0298 70.3446 409.2139 17.4111 390.9642 1 376.6897 11.458 337.6862 36.5571 323.2882 54.4016 304.2414 40.5835 288.8918 46.0887 263.4966 86.1688 264.0334 107.326 258.9524 127.6189 282.297 144.9967 279.7367 161.6788 253.0384 180.7125 248.6298 111.6619 158.2298 172.9554 119.0165 179.1988 112.183 156.6919 81.9884 137.9518 41.9459 155.0946 34.8329 132.9649 12.8631 160.6781 1 177.6094 41.9725 Z M 258.9428 233.1381 236.2449 234.964 237.181 255.7208 247.1393 283.189 258.7028 287.4143 281.3933 276.2649 291.5507 245.1736 263.5788 242.1991 258.9428 233.1381 Z"/>
</g>
</svg>