<?xml version="1.0"?>
<svg xmlns="http://www.w3.org/2000/svg" version="1.2" baseProfile="tiny" width="800" height="803" viewBox="0 0 800 803" stroke-linecap="round" stroke-linejoin="round">
<g id="CityBoundaries">
<path d="M 444.8671 1 446.1944 3.1992 454.157 2.4659 458.2854 5.3892 457.7468 11.7134 464.2142 15.936 464.7186 23.5929 466.4928 28.4821 471.5733 31.5402 476.3781 36.9956 479.8922 43.7152 481.6836 51.8147 485.0926 61.7502 488.1945 78.1729 487.0792 82.6459 488.9026 88.4506 489.3144 96.3384 492.1028 99.637 490.8657 105.3867 493.2084 112.9034 482.4566 117.316 482.8361 123.4878 476.5581 122.3702 475.7369 129.506 473.0008 134.0714 479.6705 135.5589 481.1033 138.5233 479.241 143.7182 471.5906 153.6759 466.0819 156.8597 465.1615 161.197 469.0687 166.7282 476.2488 170.7394 478.988 185.1169 471.0024 183.8552 469.7803 190.1853 477.284 192.3447 479.4419 195.1825 469.8978 198.6742 464.5561 206.5683 476.0858 207.8707 488.815 200.4373 492.4323 201.73 497.7197 208.4574 500.6339 215.199 507.5946 221.6136 512.7143 221.2197 514.8219 203.169 517.992 204.1994 520.9129 198.2704 525.5223 196.1238 526.0346 189.1931 532.5329 186.9824 534.2863 183.6439 533.4587 175.9085 534.1059 170.3019 542.6215 167.4222 544.3551 160.9464 554.8665 165.0877 562.9551 165.211 566.6705 173.8788 566.7812 177.7816 575.2484 187.6966 571.9352 193.063 591.0678 200.0596 611.4429 215.5867 610.6183 246.809 615.821 276.2866 639.9073 286.8665 651.3023 294.5469 658.8441 296.1823 682.0342 294.4893 683.5373 300.2739 683.234 309.1371 686.7812 309.3151 709.851 387.101 716.8762 425.2341 725.8335 443.5843 739.3664 477.0112 745.5261 477.5462 746.0382 480.8765 740.0902 480.4161 738.2587 495.5375 744.2331 493.7085 748.9633 490.5856 753.1005 491.3137 759.1499 485.2532 764.8019 494.391 768.9326 489.5181 779.8076 490.4132 781.3726 496.6801 783.7431 497.0383 782.8226 511.5224 779.2254 511.1197 775.8699 537.9689 770.2634 537.2251 768.9224 544.6441 787.4324 547.3414 799 558.8503 796.2716 589.2549 793.4609 589.2608 791.3029 610.3249 785.2437 616.9381 786.1856 635.0618 784.2617 638.1859 776.7137 637.6526 773.5962 633.2668 781.5155 607.6037 778.5399 601.1995 764.4835 602.8837 761.9611 601.0622 755.4053 584.5969 752.7463 582.4074 749.6376 585.8965 750.4085 596.3305 753.9669 601.2669 753.4278 621.4108 747.5128 623.6191 737.2902 622.918 730.9246 619.8153 727.7125 629.9012 731.3291 637.686 730.4046 644.0031 726.0181 648.2785 724.0509 654.0025 725.5654 658.4973 732.5311 670.3148 729.9581 678.6025 720.2008 680.4668 714.155 688.0402 711.2109 688.9219 705.9913 694.5611 700.2797 694.5052 692.3112 696.8401 686.1516 700.2735 686.5612 702.9943 681.7981 708.0199 677.4465 716.1728 673.2924 721.6622 665.7721 724.7694 656.1237 725.1401 651.3615 758.7923 660.2503 760.0551 659.5333 769.5269 663.7741 770.0376 662.6515 780.4789 660.28 780.3916 659.0639 788.3679 654.2896 788.2224 653.174 802.4491 646.5365 801.6565 646.9599 795.9563 633.4768 794.528 633.913 791.0493 602.945 788.2641 602.9429 786.7092 553.1175 763.0024 544.4749 752.1249 538.7239 753.5424 536.3863 750.932 507.1441 728.752 478.7367 725.5625 426.8147 691.9612 412.0602 682.8254 391.6189 676.4202 376.2063 674.7916 310.9413 665.8679 296.1134 663.3043 281.4052 661.7264 186.8018 646.9377 128.8194 692.4467 58.6254 746.498 40.6549 762.5702 21.8314 762.8818 20.0156 754.7013 3.1296 665.9552 1 650.6143 16.6042 658.1684 17.2327 663.4722 21.1957 665.6368 22.4154 644.0066 24.3352 601.5507 25.0287 592.82 29.2083 592.375 29.3884 584.5899 25.0686 583.8697 25.6551 570.2358 38.7652 556.3653 80.352 513.9384 85.6746 507.9393 93.7559 445.1368 106.8286 359.5349 104.2157 358.5862 105.6712 351.5765 108.7409 351.9602 111.5845 345.9386 106.1918 330.8634 120.585 285.6769 145.3282 238.3085 159.9973 226.1934 170.7437 202.979 195.8278 147.7202 199.9737 137.8436 214.5041 89.5114 215.9839 78.2004 221.4868 72.248 218.7292 65.437 214.0252 61.9054 207.2119 64.2422 208.7418 51.0946 216.3089 49.0554 210.9231 42.1547 216.5961 29.4466 220.3259 28.5265 228.8636 30.9895 232.0708 29.3506 239.1988 30.9432 246.626 35.3965 250.6929 40.2487 251.958 44.3635 255.2448 47.0115 259.0573 46.0612 262.3075 50.1358 261.9772 57.3752 264.4147 61.9085 268.6054 59.1764 274.7496 58.281 283.3759 65.4513 286.5059 66.5089 285.6314 45.5052 300.1937 47.4139 298.1445 66.3477 302.3542 71.2846 312.6354 74.8702 317.985 78.9889 321.2199 85.443 327.3118 84.5948 327.0548 87.8894 341.6545 102.8632 342.7015 100.2942 353.1153 96.8772 355.1093 97.5812 364.9477 92.9288 373.1591 92.7568 374.4134 90.1491 385.5694 84.5578 397.0915 84.3483 396.3249 78.3137 397.477 73.7662 393.1651 68.3247 390.0978 67.2566 391.4441 53.6327 396.8853 52.9775 400.7327 48.7233 406.8489 35.3502 405.3819 30.4675 411.033 27.2789 419.6215 33.5565 425.0745 38.7717 424.9972 24.1387 430.2837 22.1342 432.4721 25.5915 441.1173 25.1556 441.5758 19.1063 432.2658 18.4582 432.3178 12.5994 436.3756 9.7544 440.0392 11.3103 444.279 6.564 444.8671 1 Z M 616.5744 282.388 609.9726 288.7125 611.2246 290.3719 600.4428 309.2403 615.9036 309.2863 619.0044 314.2706 630.1865 315.5137 635.0403 313.3247 635.5993 307.333 639.2374 307.1531 638.3835 299.845 636.2738 295.9437 625.1653 291.6461 616.5744 282.388 Z M 409.9458 515.484 412.7627 516.5992 416.6315 529.6603 417.4659 537.8535 425.4513 537.8123 438.339 539.3045 441.7065 515.4063 432.783 515.9595 428.6182 513.2642 415.6116 511.6467 414.7 507.068 410.4989 508.3851 409.9458 515.484 Z M 313.5128 539.2037 312.7592 526.2308 302.5727 516.2037 297.4681 523.0534 286.9545 532.8582 284.0113 536.8887 276.871 549.9521 287.0031 554.8033 287.7584 564.8881 284.1124 566.2258 278.6453 558.157 275.456 561.8372 279.2768 573.9285 278.4373 586.1713 279.1647 592.0547 277.5022 599.0825 272.6455 608.8985 271.3539 617.6573 272.1111 623.3136 266.7949 638.5393 264.5573 651.1176 271.2434 652.2173 286.8967 657.5076 301.0359 661.112 307.8682 661.8274 315.4128 664.8598 327.7536 666.693 334.5235 665.5024 353.8656 669.8476 354.699 662.4047 354.0218 651.1299 356.0001 633.7663 359.2607 623.4305 364.3336 631.1151 369.4291 633.1604 380.1651 639.8311 390.3196 638.0963 382.1831 650.0164 367.654 672.7731 395.6459 675.4132 398.7946 672.4336 405.3762 662.5144 413.0258 653.4887 413.7776 644.3496 419.3852 632.4426 423.6628 610.2939 429.9713 597.511 428.1173 592.1413 432.5199 587.6992 433.8347 574.9243 431.8758 562.3441 429.2464 555.2842 420.9373 540.1517 417.6201 541.6593 408.9834 542.2953 407.1517 543.9437 406.7064 551.2367 400.2015 550.3576 396.981 561.4929 398.2297 565.8245 396.2989 582.0679 391.4444 581.8953 391.1051 585.4868 377.7371 584.1204 370.1739 584.2194 367.5054 595.629 361.7252 595.6438 356.3771 600.5121 348.176 598.0347 347.953 593.161 349.98 587.5043 350.371 577.315 330.4426 576.0761 321.9101 574.0861 310.7249 573.5626 310.3171 577.0623 315.1184 581.3438 312.8215 592.7287 304.8804 586.4066 301.1964 586.5029 305.2671 573.134 308.4636 573.4457 310.8955 566.1909 312.5654 551.3881 314.3263 541.9735 313.5128 539.2037 Z"/>
</g>
</svg>