<?xml version="1.0"?>
<svg xmlns="http://www.w3.org/2000/svg" version="1.2" baseProfile="tiny" width="800" height="825" viewBox="0 0 800 825" stroke-linecap="round" stroke-linejoin="round">
<g id="CityBoundaries">
<path d="M 754.5392 689.4274 739.1583 681.7688 744.1021 672.0073 729.5209 669.3769 721.8751 680.2844 687.4704 632.7926 683.459 638.824 637.1981 655.1933 625.749 661.9101 620.1338 653.7164 599.8452 665.8394 606.0319 678.2611 593.0615 685.0272 599.7775 697.7806 586.4885 708.9343 558.4124 708.6918 543.7215 696.9279 534.5119 693.5091 524.4057 698.0736 509.2837 710.5099 538.8265 741.9213 517.7994 751.9986 510.5813 752.766 494.4502 762.9058 465.4882 771.749 458.6561 779.9798 461.2164 812.716 451.7195 824.1985 440.8228 821.6457 426.94 809.6901 321.2231 713.8675 331.485 700.9338 373.8727 738.7882 402.0184 702.2618 410.7554 679.7121 412.2743 620.8504 406.7566 612.4327 407.0607 610.1785 407.2135 609.0829 417.4821 610.0267 447.9555 640.5251 462.8688 680.24 469.0258 676.876 460.5825 653.2463 461.0616 641.4068 445.7515 625.6805 452.4377 618.4463 466.9246 633.5351 473.6853 627.8323 456.9375 603.1504 456.6564 590.2041 450.8789 576.9248 441.1047 570.1297 433.4445 555.7575 422.6106 562.3914 413.3747 530.5084 406.244 521.3953 363.7657 496.4097 353.9872 484.8479 347.5224 469.5568 348.1326 450.3762 320.873 433.6687 310.1026 433.2457 295.7468 441.4218 279.5343 432.7627 274.2007 423.1685 260.9189 424.7144 217.1944 397.2618 212.2606 401.8523 179.4566 399.3983 163.8289 407.7581 130.6605 406.1892 52.8279 385.2438 56.9092 376.0367 70.8557 379.7375 76.0371 360.1213 57.8277 355.1079 45.0431 347.0771 33.5214 355.553 5.5372 362.1701 1 352.7005 34.4622 329.6385 70.5141 333.0654 103.2667 293.6094 119.8657 295.2368 121.1218 285.3549 108.0573 280.4924 96.1999 282.1031 84.3015 295.8095 76.6015 285.7946 45.7831 288.2873 45.4197 282.447 70.8176 277.7642 88.5927 268.44 92.9595 256.8549 104.3856 255.2752 131.5455 263.6368 147.6271 260.1621 157.5725 252.244 170.0647 235.2233 181.6168 244.7984 210.4701 254.6194 224.9977 251.8315 235.4419 217.0575 221.6019 214.0146 204.0163 216.0006 189.0125 157.221 205.5636 153.8897 213.8895 170.5122 231.5322 167.2992 236.3006 174.9948 258.0513 170.7002 258.9878 149.9876 313.3363 141.2616 314.7648 151.9209 380.3492 145.8224 377.6907 123.9023 354.0174 124.9997 345.9644 117.2362 341.4245 70.9198 341.5742 56.1494 336.6702 1 353.0744 15.737 364.5906 9.5368 391.5025 18.3816 416.3249 31.6486 439.0651 60.8675 442.9173 73.7144 432.7675 80.7865 428.5518 93.1819 458.4072 126.9295 470.1964 149.5516 485.552 150.8823 499.9147 170.1187 516.4155 185.3945 513.5297 192.4014 538.7899 211.76 551.3963 214.4141 555.252 228.145 545.1321 247.627 549.3447 265.334 546.5549 274.1918 549.0144 286.5869 564.7584 291.8854 587.1665 314.8825 589.2831 332.1481 576.5748 360.2411 602.1614 379.6476 602.907 357.3403 615.3844 353.2621 650.9343 393.8795 669.831 394.188 670.9102 411.791 688.0586 412.1138 695.7259 420.7949 695.8156 432.7849 735.4098 486.1173 743.783 501.504 758.4643 521.5389 793.7728 599.9398 799 642.2105 796.5969 658.2869 787.4599 676.6544 767.2231 691.8827 754.5392 689.4274 Z M 412.7906 240.9892 401.7359 232.2277 387.0509 237.99 348.9357 245.4643 345.2903 252.8906 333.1994 262.2937 327.4113 276.9151 345.4107 294.2313 446.9191 324.0776 456.8645 302.9781 464.4811 295.4994 435.2953 274.1493 425.2874 264.135 412.7906 240.9892 Z"/>
</g>
</svg>