<?xml version="1.0"?>
<svg xmlns="http://www.w3.org/2000/svg" version="1.2" baseProfile="tiny" width="800" height="534" viewBox="0 0 800 534" stroke-linecap="round" stroke-linejoin="round">
<g id="CityBoundaries">
<path d="M 319.1243 1.1371 349.3551 1.3315 349.5973 31.2761 349.4509 51.406 359.4011 51.4546 359.4827 71.8367 379.4408 71.9258 379.4846 82.1688 389.6312 82.0817 389.6568 92.1751 395.1298 92.2579 395.2254 85.2117 399.5427 85.2502 399.5314 82.2598 419.5464 81.8777 439.3768 81.8564 439.3427 91.9 459.578 91.8527 459.6657 82.1069 499.4684 82.0824 519.5459 81.6809 519.545 71.913 524.5301 71.6217 559.9201 71.8496 599.6668 71.7951 599.4827 51.6435 639.6677 51.6126 639.4865 19.7015 639.4504 1.3117 676.7091 1.9924 699.3968 2.2451 698.6763 11.5288 708.7928 11.9988 708.7412 51.775 697.2456 51.6901 693.8059 62.1221 691.5329 72.8497 689.6154 76.9041 698.9061 76.7153 699.0071 82.0657 687.1537 82.0529 680.0094 98.2077 680.0521 102.4115 676.8337 111.8243 670.2812 119.0483 666.9026 133.6777 662.5874 141.5766 658.9807 149.6783 656.2863 151.1691 639.6918 152.3177 639.7063 111.8111 619.7729 111.8252 589.3536 112.3693 579.5543 111.6925 569.848 111.8486 570.1175 131.7884 569.9374 161.6328 590.0709 161.9374 589.9409 192.2084 609.8999 192.1053 609.8308 212.1996 619.8472 212.1972 619.7557 229.7319 617.218 232.2532 595.7363 232.3236 593.8115 235.9928 590.2055 235.9921 590.0795 232.3661 545.3728 232.6433 545.4185 227.6831 540.6322 227.6301 540.5618 197.3829 520.4368 197.3741 515.9314 204.4435 511.9442 208.4286 508.6855 213.5623 495.8258 220.8871 490.7052 225.711 488.9296 222.1172 485.7866 225.3123 485.7261 232.4043 484.2862 232.3976 477.8056 240.0979 469.3668 252.7393 460.5917 252.7368 460.7237 263.6974 450.3154 272.6685 440.9285 272.6746 436.5894 277.7751 434.0019 277.9515 426.6209 282.7213 426.5964 286.8394 421.0802 289.2972 421.0978 352.8462 460.9426 352.9144 460.9658 333.7106 461.2953 332.979 473.1013 332.988 487.8189 333.854 490.2884 333.0255 511.1668 332.9084 518.675 335.898 520.8656 332.7975 540.7238 332.8066 577.9803 332.4271 583.148 330.8127 600.374 332.3471 605.5316 331.3979 610.8996 333.6574 622.9811 333.7371 629.0839 330.7582 636.455 333.2872 671.1417 344.338 686.6244 351.5471 693.4087 351.0156 699.8682 346.9139 702.8235 345.9324 715.2611 347.6022 718.2077 349.2133 725.1686 358.1966 733.4511 362.4032 759.3126 362.4234 759.251 381.3957 766.6699 382.039 779.358 375.5161 779.2147 406.6556 779.328 433.1179 798.9083 433.0943 799 443.186 779.5094 443.1885 779.6024 484.9742 779.8239 513.5454 719.9665 513.5289 720.1682 523.8515 700.1883 523.7946 700.1012 513.3802 700.0151 493.3116 688.8182 493.1767 688.7962 483.0293 680.594 482.9234 679.8268 482.9824 679.6592 452.9701 660.3355 452.8529 660.2308 463.0213 660.461 492.9933 640.6861 492.8144 600.6004 492.8916 590.5587 492.8274 590.591 502.8985 560.5144 502.8872 560.4668 512.8131 560.4273 532.8681 501.3409 532.8834 471.2211 532.9712 471.2889 503.0097 441.4301 502.9147 441.2891 447.9155 436.1408 447.8127 436.3283 442.923 421.3012 442.9494 421.2999 432.7756 420.3768 422.6217 401.0999 422.3167 361.1615 422.4599 361.3035 442.3948 351.3216 442.4917 351.2936 462.4972 361.3462 462.5318 361.4413 492.8342 351.3306 492.837 351.41 512.9282 361.4105 512.8977 361.4437 522.6933 361.4272 531.5483 351.33 531.5732 351.3322 533.0207 321.6643 532.9614 308.0463 533.0933 306.444 531.1701 288.4278 518.9465 283.0957 516.7713 258.7374 515.283 241.9069 512.926 239.4462 510.5189 234.8317 503.5897 231.0618 499.872 218.9802 490.8544 214.181 484.107 202.693 473.8597 198.1889 471.4059 192.3847 469.5386 183.6361 469.1846 181.1632 470.2916 165.9514 472.5285 160.6491 475.3781 153.7132 481.6375 142.0789 485.3832 136.2133 485.5588 133.4598 481.2871 126.4077 480.468 121.1192 484.1731 106.8773 487.0092 94.0551 479.2203 91.3302 476.5336 90.323 472.3966 84.096 465.316 77.7238 463.7946 70.9741 456.6371 67.2874 456.6969 65.5757 459.777 64.6645 465.2168 61.4257 468.4411 57.3296 469.7876 51.8094 468.3113 49.2753 469.0232 47.7792 473.5816 45.0761 474.4702 39.7937 465.5864 32.5229 464.7967 27.9743 463.1406 22.3992 466.7142 22.3605 472.9 13.6654 470.7141 8.3458 472.8833 1 471.4528 1.3952 468.3375 1.204 438.7493 1.5302 436.3417 1.432 412.7499 1.6361 372.6053 1.7468 271.7817 1.9233 231.648 62.0453 231.8424 61.8632 261.88 71.6084 262.0064 71.5782 272.0237 121.5761 272.157 121.6355 252.0324 131.6801 252.1196 131.9122 222.0902 141.7304 221.8422 142.1372 176.459 142.0508 172.1842 38.6033 171.9624 38.7942 151.7788 38.8561 101.6541 39.0513 61.5971 84.1767 61.4572 84.1634 71.4176 118.9644 71.6119 118.9353 51.1966 179.1704 51.1381 268.762 51.2346 269.2859 33.6565 269.5154 11.0019 289.53 10.97 289.4708 1 319.1243 1.1371 Z M 309.3416 162.1968 309.3455 171.4952 311.0144 171.7508 310.2849 178.1429 314.0319 178.9464 311.9918 184.8948 311.5964 190.064 313.072 192.3403 341.4313 192.1026 341.4914 172.3727 329.4634 172.3566 329.5296 132.2042 289.2851 132.0515 289.2559 139.5132 290.8765 148.037 289.4893 152.1818 304.3983 152.3047 304.3976 160.9134 309.3416 162.1968 Z M 438.3153 192.0736 427.5207 192.16 427.5261 207.5683 434.2564 207.9572 432.7656 212.2868 421.2047 212.3495 421.0824 242.5402 425.7859 242.518 425.7887 246.9879 440.7929 247.1091 440.7404 237.3909 442.1652 232.3369 450.6963 232.3272 450.8533 202.1296 440.6686 202.0546 440.6327 192.0553 438.3153 192.0736 Z M 240.8853 236.2146 240.9164 232.3777 250.919 232.3655 250.8902 222.3038 260.9335 222.2782 260.9377 212.2054 245.8357 212.2317 245.9178 192.1139 250.8524 192.1215 250.8934 173.9637 246.6497 172.3556 235.9217 172.3508 235.5788 178.3501 230.8222 181.9712 230.8514 186.9868 234.626 187.0229 234.6621 192.0371 223.3861 191.1959 220.9264 188.6956 220.926 212.0851 198.0306 212.1698 191.0124 221.5218 190.7223 232.3351 191.1182 236.8402 191.0397 252.4382 195.1076 252.3929 195.8357 247.1955 201.0388 247.2708 201.01 257.3961 210.946 257.3237 210.9405 262.4266 230.7175 262.4243 230.7378 257.4073 235.8005 257.4337 235.6819 252.4111 231.3311 252.3785 230.862 242.3232 240.8327 242.4088 240.8853 236.2146 Z M 192.1741 218.9402 197.1084 212.1865 190.9969 212.3023 192.1741 218.9402 Z M 273.3832 226.4768 278.4011 227.2409 278.4609 222.3334 270.969 222.3029 270.9747 225.1674 273.3832 226.4768 Z M 301.0485 312.585 310.5075 312.8608 308.4885 308.4981 311.5136 308.5132 312.6103 302.8609 301.0383 303.6079 301.0485 312.585 Z M 181.5333 393.1126 181.555 372.7546 165.3018 373.0887 81.3285 372.5206 61.6533 372.926 61.6458 403.615 61.2812 412.9941 181.5076 413.2012 181.5333 393.1126 Z M 401.1638 372.9877 390.8234 372.9997 390.7633 382.9921 401.0244 383.0162 401.1638 372.9877 Z"/>
</g>
</svg>