<?xml version="1.0"?>
<svg xmlns="http://www.w3.org/2000/svg" version="1.2" baseProfile="tiny" width="800" height="726" viewBox="0 0 800 726" stroke-linecap="round" stroke-linejoin="round">
<g id="CityBoundaries">
<path d="M 267.1153 4.785 267.1005 7.2911 367.6259 7.8062 383.8008 30.4392 398.6272 59.6381 406.861 96.9046 602.2541 98.3149 799 98.8514 798.7465 157.1281 797.8771 367.3314 624.8212 367.6275 625.4924 473.7631 624.7397 644.2136 447.2696 710.8263 412.4684 724.8489 378.1019 724.3 378.0201 675.6789 154.9338 677.3613 154.0577 454.5804 135.3028 454.6783 134.8674 388.2941 125.2423 375.7819 67.9269 378.3432 68.3327 387.4705 42.454 387.3856 35.7572 378.6746 12.1545 376.7894 1.5991 353.5873 1.5556 276.2702 1 36.6158 185.0972 35.9188 244.6108 39.2345 244.032 1 267.1153 4.785 Z"/>
</g>
</svg>