<?xml version="1.0"?>
<svg xmlns="http://www.w3.org/2000/svg" version="1.2" baseProfile="tiny" width="800" height="703" viewBox="0 0 800 703" stroke-linecap="round" stroke-linejoin="round">
<g id="CityBoundaries">
<path d="M 559.6231 594.0841 549.5026 597.8522 542.9635 589.4259 543.571 578.1232 497.6822 578.1849 467.2691 577.4738 368.2359 577.4568 361.103 577.3111 361.0307 593.1513 347.7089 593.25 345.1321 595.8789 345.2289 620.4928 334.9364 620.2622 327.7944 620.1681 318.2605 624.8352 288.8672 625.0512 288.9716 639.0504 289.1525 657.1316 289.4243 669.8893 216.4891 669.4462 216.2848 700.8183 137.2181 701.771 2.9355 701.8631 1 679.198 9.2782 644.6874 9.2565 634.1381 14.3052 626.0725 16.5333 603.9956 23.5927 588.474 32.7016 577.0252 78.3534 577.392 78.3566 549.4383 86.9505 553.7909 131.5821 553.8078 131.5572 550.9018 152.8598 550.9732 152.8565 544.0998 166.1679 547.631 184.7621 547.6207 184.7296 553.8912 291.3354 553.9838 291.377 543.9555 335.4072 555.2241 344.7711 555.8176 344.1766 505.9279 330.4144 503.4176 310.507 503.2076 309.4962 493.2472 316.2096 464.8651 320.6486 454.5914 306.5709 436.9339 298.9444 419.2817 296.9567 405.009 283.1944 392.1632 284.4503 382.2442 341.164 381.9982 340.688 357.3644 344.9656 333.9136 355.6296 333.9115 355.7704 327.6509 364.7324 321.4782 371.5791 310.9237 371.7423 298.2811 368.4396 275.0739 357.4259 254.4891 340.8873 243.1613 326.1022 243.2053 326.1367 233.5734 315.3962 227.7232 321.8275 221.1534 320.9426 208.5624 316.8311 203.1926 317.6057 194.4297 333.406 191.4613 302.3696 137.8965 339.8399 137.9047 369.5167 136.5758 372.331 90.1254 329.1224 88.2926 331.2514 45.2134 314.1546 44.0035 290.5518 44.9683 290.7515 1 337.6102 2.1835 425.7601 5.3258 423.5094 51.02 467.1483 52.0646 469.2629 7.0679 516.4683 7.2534 517.11 54.6784 563.3889 54.3939 564.123 80.9008 569.0439 80.7661 569.3233 69.506 575.1548 69.5021 575.2491 54.1961 613.5624 54.503 618.2164 75.3019 622.5292 87.55 627.7673 93.3635 722.8911 161.0925 764.1062 190.0552 789.0184 211.2298 788.9235 219.6841 799 220.8523 798.8167 233.1052 789.1967 233.1732 789.1991 238.6543 778.5602 238.6607 776.2312 246.8563 753.0902 247.5538 752.954 267.8203 740.9004 268.7566 740.606 286.019 752.6331 287.841 761.3424 286.4187 788.3701 287.0535 794.8607 289.1376 781.3089 298.615 768.4634 303.5634 758.2279 329.1161 750.163 335.8844 731.2476 344.7344 716.1512 363.7693 714.7441 371.3316 701.1717 389.8372 700.1985 394.906 691.6756 406.7968 691.3403 419.3808 668.4191 419.2582 636.4866 421.1914 631.6272 439.4773 622.5482 458.5801 623.7401 463.196 612.1536 495.2892 576.2656 544.9892 555.5724 577.507 548.5387 584.8949 559.6231 594.0841 Z M 782.1268 233.5205 795.7781 228.1678 791.8929 223.824 782.2789 227.3284 782.1268 233.5205 Z M 562.8143 533.9728 553.9567 534.2223 544.0795 578.1527 555.1254 576.8714 565.2654 561.8298 565.568 533.0453 562.8143 533.9728 Z"/>
</g>
</svg>