<?xml version="1.0"?>
<svg xmlns="http://www.w3.org/2000/svg" version="1.2" baseProfile="tiny" width="800" height="679" viewBox="0 0 800 679" stroke-linecap="round" stroke-linejoin="round">
<g id="CityBoundaries">
<path d="M 779.7238 186.8903 799 213.3922 758.8287 235.8455 754.1217 246.9282 738.3061 260.9603 710.7914 270.341 704.5762 275.329 688.6597 273.5332 650.1085 257.5555 623.0627 258.5011 608.3253 252.9798 566.2528 227.7241 537.4403 217.7396 516.4808 218.3703 465.2237 199.967 450.7095 206.759 431.184 223.2266 422.3213 224.2813 420.6721 238.5423 421.1056 387.9496 420.7027 464.1991 419.0327 535.8835 418.2165 650.4689 395.1257 652.0113 389.2794 672.2873 370.0747 671.9393 361.9628 677.5124 351.9915 661.4227 342.9127 661.2759 336.6245 672.6137 253.8583 670.597 212.1691 670.6196 195.7556 650.3 195.7395 631.8757 178.9242 635.323 170.8793 650.2569 171.5227 670.5371 47.123 669.5785 34.2202 662.4581 20.6016 666.0738 20.6302 642.5656 14.042 624.1828 25.5423 611.6434 16.4837 589.7152 23.8441 557.3708 1 520.0387 2.1381 503.9439 8.3509 495.0105 29.3267 477.9172 37.6871 467.2261 42.7444 448.7491 68.7641 435.6021 83.7376 423.7798 122.604 399.9449 155.6295 361.5537 185.6317 330.1599 204.3089 304.9944 235.5338 279.9219 272.3105 235.5033 271.6206 218.7922 265.3057 206.8951 267.9292 197.4543 290.3937 190.9639 301.3224 171.1268 307.2086 122.6413 293.0581 100.363 270.9545 88.4953 270.0786 78.5511 277.5794 54.9674 291.5433 47.6422 311.0914 47.709 337.6361 52.3753 380.731 42.9653 405.0227 33.8506 440.205 29.2965 453.8713 11.5851 469.0349 1 483.1594 6.5821 491.0099 35.3389 502.9021 50.855 518.5711 83.0292 517.9815 101.8148 524.072 118.2839 535.4533 125.5381 569.1695 126.4243 591.3362 135.3688 606.6446 131.5152 613.6281 116.9244 623.5033 109.0221 636.7609 109.3785 645.9078 125.3505 626.9004 131.5415 625.2119 145.6814 632.6076 159.0722 658.1904 176.16 677.7363 176.7083 699.0042 170.1163 717.7324 153.2713 731.7622 161.6976 738.1097 181.3915 764.8582 195.2843 779.7238 186.8903 Z"/>
</g>
</svg>