<?xml version="1.0"?>
<svg xmlns="http://www.w3.org/2000/svg" version="1.2" baseProfile="tiny" width="800" height="710" viewBox="0 0 800 710" stroke-linecap="round" stroke-linejoin="round">
<g id="CityBoundaries">
<path d="M 773.6628 174.0592 798.5945 184.9866 775.9115 216.4015 735.8519 296.2018 695.9419 344.6991 694.444 385.2922 722.0403 416.9513 742.6697 468.641 714.9627 498.971 692.1983 485.7144 648.4935 535.6432 799 619.4669 769.1048 709.4615 588.0037 607.0741 608.7327 446.8044 580.5771 445.3449 516.9908 442.5788 528.4413 398.2245 219.6889 363.7884 223.1242 328.4363 188.6095 324.0265 195.7996 261.8082 157.0039 256.6816 184.3673 365.5777 88.308 353.8 90.6861 329.3248 49.5028 324.0792 43.4644 286.7062 1 58.5944 91.2212 83.0074 65.1812 31.8415 62.4185 1 207.3354 24.2076 411.2842 49.8525 490.8316 126.3298 550.4883 133.1891 568.8113 111.1229 620.1034 117.6487 617.1232 142.841 700.5315 152.8653 773.6628 174.0592 Z"/>
</g>
</svg>