<?xml version="1.0"?>
<svg xmlns="http://www.w3.org/2000/svg" version="1.2" baseProfile="tiny" width="800" height="584" viewBox="0 0 800 584" stroke-linecap="round" stroke-linejoin="round">
<g id="CityBoundaries">
<path d="M 798.8202 358.878 799 371.0379 752.4303 369.933 750.9973 277.7349 391.8351 279.6878 391.3989 212.8785 299.5261 210.5772 299.1171 451.6096 290.9916 451.6125 288.9243 415.5521 256.5584 398.8884 206.5403 398.932 206.2067 473.4378 114.7179 448.8951 114.0428 491.1103 91.3263 490.7312 91.3124 501.9298 113.8407 502.5759 113.8657 582.5572 23.0442 582.4441 18.1019 424.7186 1 417.9687 42.6112 374.3293 146.5156 273.0886 213.4559 204.2377 265.0623 154.2248 320.9328 97.073 390.1489 30.047 390.2551 1.0862 561.2516 1 563.0774 93.7591 655.108 93.424 656.3229 184.8074 772.0837 184.5967 773.7534 277.4441 797.4184 277.4963 798.8202 358.878 Z"/>
</g>
</svg>