<?xml version="1.0"?>
<svg xmlns="http://www.w3.org/2000/svg" version="1.2" baseProfile="tiny" width="800" height="899" viewBox="0 0 800 899" stroke-linecap="round" stroke-linejoin="round">
<g id="CityBoundaries">
<path d="M 383.4591 1 405.2104 2.271 404.6578 39.9639 431.9674 39.6501 432.0887 66.7632 418.7299 65.9354 418.9747 79.8538 389.3562 82.3083 389.3128 89.8251 399.5212 89.8564 399.4023 116.5258 389.1963 116.4794 384.0872 142.773 378.1767 147.4857 350.968 147.3888 357.4755 135.0028 354.8277 129.3887 342.7009 137.8916 342.0913 147.3336 334.2458 147.2967 328.7524 158.2647 329.3897 183.8931 332.5003 191.4435 378.0849 191.4012 378.0149 177.4305 405.2675 177.4582 410.5181 191.241 410.9781 205.0885 417.9481 218.0613 417.8726 234.4719 399.62 249.0704 432.2367 263.3155 440.7437 264.0252 471.6165 193.1372 470.5922 187.7657 439.9196 186.0168 439.8447 174.1128 431.9976 170.9781 432.208 136.6313 496.1205 137.2392 485.1899 161.8472 491.8989 162.7207 495.3736 153.277 503.979 150.2322 525.3598 150.0192 525.4406 178.4343 530.3458 187.116 545.4659 196.2724 560.227 191.2006 574.9738 198.2186 587.9048 195.6687 611.4459 197.4556 617.9055 195.0182 626.4301 206.2808 649.2049 184.8102 648.9369 217.9708 717.8245 218.1286 717.9804 190.8511 785.619 190.7102 793.4865 192.0429 798.3144 200.6727 798.7168 217.9294 784.8641 217.9773 785.012 245.0941 798.9138 245.0199 799 261.3258 771.873 276.6149 771.7862 299.4159 785.3174 299.4211 785.2645 313.1232 758.1533 313.3812 754.3928 326.6999 754.2153 368.3885 743.2491 370.3154 743.1322 401.9951 725.2374 393.2267 718.454 393.2156 718.3032 405.0712 704.5784 404.9743 704.5145 393.4323 718.154 386.5643 718.1933 375.7532 691.2465 387.1715 691.0945 321.5407 595.7889 375.891 595.3813 331.252 585.2793 323.556 558.1604 323.773 558.8566 317.1545 541.3198 317.1473 541.2264 327.145 557.7902 327.6715 555.4233 335.6676 544.9071 347.7165 536.9928 342.2041 541.44 334.3299 511.9074 330.9599 486.7334 326.0484 486.0532 362.328 494.0191 368.7518 513.9699 357.8968 527.1892 354.0766 593.5252 354.3341 593.8416 376.9743 569.9425 389.8919 541.8102 401.8297 541.7307 392.966 526.5462 403.1222 515.8113 403.0874 517.8842 413.2741 504.8764 420.164 504.8701 432.5866 515.0558 437.9905 512.429 450.1497 536.0561 450.3673 540.6138 452.685 554.8158 447.0166 554.8103 462.7892 542.1089 462.7377 542.1306 456.5562 515.9663 456.3516 510.199 464.5545 510.6039 476.1412 528.5901 477.7799 528.7687 508.0904 535.4623 515.3833 543.3004 516.4863 596.2617 516.7066 596.2332 533.9341 610.192 530.7446 618.7416 532.2 618.9503 462.8269 608.7089 462.8317 608.7277 454.4267 628.3418 454.1604 639.3398 448.3796 638.1985 462.8103 638.2393 505.0546 650.2122 505.1446 650.3594 462.6912 678.2381 462.8321 678.1006 489.2855 680.2227 501.7582 691.1858 517.527 704.0432 517.3717 738.7594 536.2354 752.3348 538.853 758.2234 549.2951 758.193 571.779 690.0009 572.1542 610.0256 571.5119 609.9464 576.757 589.4257 577.8439 582.1611 571.3246 573.4702 571.2936 568.4694 590.8824 545.3588 592.6289 534.1617 598.3061 534.1238 610.1022 541.2119 617.279 560.2398 617.3189 560.1956 637.7883 556.1194 647.08 525.813 640.1005 506.9156 627.7891 480.3343 622.434 468.1813 631.2657 462.5804 639.0498 460.394 658.0354 453.1725 652.7783 450.237 666.4293 433.2914 666.26 431.7062 679.5747 453.614 679.7162 462.2458 670.282 462.3993 660.2431 473.7724 660.2383 487.3589 639.7888 487.6028 625.3367 506.0024 628.6923 527.4935 642.1847 534.7781 643.8257 534.6961 657.2369 541.2269 656.9791 540.3326 677.8296 549.1241 680.0177 548.3519 795.3582 631.5853 814.8428 646.2703 816.7548 729.1627 822.0189 757.4251 816.0129 756.6696 896.6003 722.1472 898.1291 540.3048 898.1165 538.6112 897.7259 537.8692 816.1775 485.9299 816.3326 486.0979 790.2525 463.3018 790.2738 463.4014 774.0496 445.1917 763.4248 439.9596 774.4392 440.6666 790.189 446.4663 799.0656 432.6864 804.3492 390.121 803.9688 380.5602 812.853 375.985 803.8596 364.3468 803.8092 378.7051 842.3504 365.1023 843.6732 365.1583 830.1799 351.5397 830.0287 351.6991 816.3452 345.8863 816.3496 341.3534 803.9459 324.9355 800.7162 288.3828 800.5773 270.8031 802.7133 270.8051 812.8529 259.1987 813.8249 256.2296 802.9276 270.3753 800.3033 270.8468 787.0638 277.2771 787.7994 281.9738 775.769 257.4342 775.6764 257.356 761.478 267.062 761.4346 271.2468 751.471 284.5246 751.4946 284.5443 786.0467 298.0583 789.1663 311.1831 778.8928 311.3536 789.7149 337.722 789.815 337.8664 782.2756 320.7962 782.4553 318.9552 775.7107 331.9732 774.9716 330.1798 755.7595 338.7115 762.0487 347.7282 789.8739 365.6065 790.506 365.8527 755.3606 352.3622 755.1982 352.3648 748.3788 379.2677 748.5168 379.4212 725.0668 416.8735 746.8927 432.7417 746.8766 432.9697 706.3072 446.4197 706.3174 446.5721 691.9586 420.5389 691.9262 420.54 684.383 412.9313 675.1633 395.9256 668.1057 375.417 679.8459 374.8885 693.7907 379.4694 706.9102 365.8361 706.7631 367.0473 693.986 352.0824 694.1707 351.9944 713.7522 333.0203 733.8277 320.5637 737.8795 320.5607 748.3436 315.8559 761.7735 308.0904 768.0144 298.0078 765.2499 294.3722 748.3803 299.7113 736.1185 324.6825 731.7426 320.6632 721.0771 298.0676 722.8898 298.0865 734.6111 284.5743 734.5283 284.6366 720.7403 257.7389 720.5356 257.3774 727.5677 244.2162 727.5168 237.1641 720.8452 237.2052 693.8028 230.5835 693.7043 223.3796 679.534 178.6633 679.979 176.2804 693.7175 183.5352 696.3837 187.4794 707.1217 216.799 707.0337 216.6732 720.6875 210.0574 720.6744 209.8313 734.2347 230.1526 734.3296 227.662 761.3863 169.3011 711.1401 180.8992 707.1081 162.8824 693.7682 162.7449 707.4814 141.6885 707.0618 149.1512 697.9777 149.1573 684.4247 153.1328 680.1365 176.2181 679.937 176.1492 666.5443 162.6461 666.6286 162.7035 659.7532 136.2157 659.7598 136.2576 653.1233 109.5129 653.098 116.4167 659.66 108.9328 666.5201 108.9613 690.0597 122.0957 701.3667 122.0888 708.2495 159.2277 707.939 167.3446 711.296 226.6321 761.8449 222.68 775.1844 238.057 775.3372 239.5678 784.3578 223.9712 785.2533 216.7708 788.8887 203.2085 788.6684 203.1276 769.0012 165.6062 736.9912 154.5613 746.503 81.6475 745.7698 81.9093 779.52 69.3228 788.6216 47.8557 789.0953 47.5988 739.8596 42.499 734.5548 1 735.2265 1.0472 710.2581 48.1325 709.3408 48.2607 626.277 55.0486 626.17 55.1014 610.7815 72.3339 610.7823 71.7953 598.3443 82.536 598.3588 82.6708 568.4177 87.342 572.2518 111.974 571.9903 103.1134 559.3463 87.592 547.7611 97.2648 545.2638 105.3256 504.6991 112.3744 493.7092 90.4652 483.1875 71.9069 479.1243 64.2195 482.0998 63.8115 490.6126 51.3088 490.4433 51.3176 482.8144 27.9945 490.3213 28.0989 464.0175 41.6524 464.0093 54.7521 460.1391 54.396 449.9097 41.6605 453.2653 41.2189 463.1957 28.0833 463.3311 28.1879 436.7959 13.8992 436.6948 13.8427 423.4516 38.395 421.7735 47.5551 408.4662 45.9779 397.9523 61.7077 403.8466 70.6366 402.7335 83.242 393.4938 83.41 381.9703 75.6688 381.9989 75.234 368.4717 82.2113 366.3275 88.0017 354.8337 93.0164 365.3009 102.9288 379.0351 102.2827 395.3893 93.2713 395.3877 95.3448 406.3194 102.6173 406.2975 104.4733 382.1397 103.2578 377.2707 96.4707 367.8398 108.8599 368.1378 108.9008 352.6077 124.2301 348.1394 139.4884 330.3003 115.5769 312.4749 108.7321 304.3981 122.3718 300.0857 122.3388 314.0789 155.442 313.8859 156.0027 325.2902 151.263 336.3081 143.3743 344.4706 141.641 359.3918 135.8578 366.1114 140.1034 388.3436 149.6638 389.6575 149.6041 379.6598 177.1746 378.1378 189.753 381.3656 196.6992 374.5298 208.3405 383.2144 222.9261 383.5205 232.2902 386.9846 243.5716 384.2674 250.0455 388.5624 250.2013 398.3364 260.9781 396.7005 258.058 382.5203 277.4436 379.4413 277.3348 374.808 319.5988 355.9148 325.7745 364.0471 350.7843 361.5459 369.6847 351.7697 364.6367 343.4998 352.0039 343.6916 353.8224 335.1783 376.3309 323.8159 378.9512 309.7028 394.8678 309.5765 397.7197 300.16 378.7116 299.9774 378.5232 252.5328 362.4217 244.9475 321.2522 244.8312 316.6309 237.4821 316.5666 223.2353 300.4101 210.7119 278.0519 210.9378 278.1091 218.3429 271.2572 225.9748 273.0613 243.4412 264.0154 240.1871 239.6049 241.8728 236.1164 235.5937 240.319 206.6944 249.6118 206.6737 249.5038 181.9964 267.2387 189.1057 282.0359 181.3741 288.4781 181.1992 309.038 189.698 319.8951 190.5412 319.6596 123.4782 323.9964 123.4556 323.9083 72.4636 330.7268 56.165 328.7061 44.8244 350.5431 44.7631 350.6481 34.2022 325.95 32.2416 328.7279 27.1569 328.6147 9.7318 336.6368 5.1952 350.6108 14.979 350.7374 28.6288 369.7984 27.026 369.7127 33.144 357.5404 33.2278 357.5732 40.0358 384.2952 39.9085 383.4591 1 Z"/>
</g>
</svg>