<?xml version="1.0"?>
<svg xmlns="http://www.w3.org/2000/svg" version="1.2" baseProfile="tiny" width="800" height="746" viewBox="0 0 800 746" stroke-linecap="round" stroke-linejoin="round">
<g id="CityBoundaries">
<path d="M 517.509 567.2601 464.1851 469.4442 433.3609 390.9916 338.2435 310.1939 214.0831 218.9838 126.9029 172.7776 1 113.838 36.8461 59.8377 82.0008 78.8066 96.0951 50.6197 150.0073 1 206.5144 47.0243 222.6093 21.9862 267.914 28.6453 303.303 74.0741 323.1472 48.6089 447.7429 137.7708 483.3242 179.4998 538.1402 109.4788 568.1704 125.0476 607.1037 75.3134 622.4877 99.0935 671.0595 39.8962 701.7499 44.0032 761.8306 68.747 758.8999 87.1265 722.0722 139.9367 707.7447 194.8327 717.0562 213.35 799 319.083 764.6174 331.006 791.4218 366.1343 723.9585 446.4074 766.7714 519.2861 740.7436 549.3557 588.7562 577.4363 602.5672 654.2082 617.4844 705.9895 640.3469 730.2314 598.0899 745.2153 575.1745 729.0602 552.2652 680.5996 529.3654 594.0645 517.509 567.2601 Z"/>
</g>
</svg>