<?xml version="1.0"?>
<svg xmlns="http://www.w3.org/2000/svg" version="1.2" baseProfile="tiny" width="800" height="562" viewBox="0 0 800 562" stroke-linecap="round" stroke-linejoin="round">
<g id="CityBoundaries">
<path d="M 116.3095 324.65 155.8913 401.8897 9.6354 403.3165 1.5552 399.6307 1 326.0092 116.3095 324.65 Z M 159.7663 1.1676 160.0622 80.919 199.6526 80.7071 199.8796 100.7651 238.8096 100.5986 239.4661 79.7248 347.754 79.4483 347.8514 63.3137 338.653 63.3087 338.67 40.3485 379.1988 40.3636 378.9989 30.8228 459.7834 30.8246 459.7719 40.5971 553.9551 41.0978 554.092 59.7596 593.1517 59.7652 606.1997 77.9354 615.4872 78.5637 615.7418 93.7875 634.3679 101.6044 655.8421 104.0952 674.4325 126.5991 713.9889 132.1062 713.9232 121.5615 799 120.7919 798.4859 243.7823 783.6601 243.9276 783.793 261.5024 795.8053 261.4631 796.9212 322.1438 776.3996 323.6217 776.3172 351.7303 755.7336 351.7394 755.611 342.8665 716.0573 342.1915 717.78 361.5424 715.6357 400.0309 711.9276 402.4378 638.4467 403.3984 638.0903 429.5979 617.4233 434.0534 617.6872 403.401 596.434 403.3858 594.7502 441.918 578.4007 439.3965 484.3519 441.3072 484.8951 480.6559 515.9779 478.9231 516.853 519.8389 504.6953 521.1505 491.3644 538.215 491.3423 560.4083 482.0931 560.9472 481.7594 520.4564 460.6565 519.3143 459.8284 472.4279 441.7739 473.5152 440.8367 441.4225 420.1687 441.4155 420.2275 450.9672 400.2573 450.9595 400.252 442.1528 321.3472 442.0526 321.2779 423.5506 301.1759 423.3837 300.8828 380.9779 281.0669 381.3014 280.7925 353.2865 269.9769 342.5078 240.7725 341.6861 240.5829 322.5772 192.2906 323.0553 191.5099 365.8356 142.6515 367.0139 130.2782 343.4728 121.6144 315.8573 112.8385 298.2951 105.3743 301.7359 80.4015 254.38 82.956 236.5324 65.0218 222.5897 102.3667 222.8146 102.0951 202.9606 54.6178 202.0998 32.2788 161.8627 80.7311 153.4954 80.5344 81.3256 120.2983 81.1215 120.1876 43.2624 79.8013 42.815 79.943 1 159.7663 1.1676 Z M 319.2979 119.9535 338.7461 120.0005 339.0626 110.2282 355.8929 109.8399 357.9431 98.1373 319.3242 98.2705 319.2979 119.9535 Z M 375.9399 101.1369 376.2337 119.4621 398.8812 120.4488 391.9203 92.3209 375.9399 101.1369 Z M 758.4004 160.2755 764.4985 180.5515 764.5619 203.2743 783.6271 203.4037 783.8589 158.9453 758.4004 160.2755 Z M 240.2663 204.3543 240.1141 188.6225 226.6876 180.9196 210.6071 179.3834 210.9109 161.9303 160.0819 161.3047 160.4296 187.9017 178.9208 187.9302 178.7476 202.0283 160.4471 202.011 160.6726 221.7327 170.7022 234.7259 183.1083 240.9507 233.2941 240.4143 240.1385 231.2433 240.2663 204.3543 Z M 246.9303 243.8516 240.1983 251.5439 222.5328 244.3011 181.6427 244.1276 180.0724 264.5593 188.0605 275.4812 180.2963 282.101 179.6679 322.3486 239.9127 321.0592 243.6967 309.3089 258.7482 301.8379 280.3654 301.958 280.1663 261.7926 300.3988 261.8227 299.1299 244.0319 246.9303 243.8516 Z M 617.4767 341.3182 608.3137 360.8086 637.5869 360.833 637.5842 341.7573 617.4767 341.3182 Z"/>
</g>
</svg>