<?xml version="1.0"?>
<svg xmlns="http://www.w3.org/2000/svg" version="1.2" baseProfile="tiny" width="800" height="538" viewBox="0 0 800 538" stroke-linecap="round" stroke-linejoin="round">
<g id="CityBoundaries">
<path d="M 799 414.5521 655.6598 411.8285 656.0371 435.6864 589.0773 435.4071 585.5055 536.9613 555.277 506.5634 447.1931 507.9601 446.5252 471.8811 514.4497 468.296 512.4877 431.2875 445.5203 432.9743 444.6556 405.6505 418.7621 391.7842 400.9684 368.3709 442.7869 364.1089 433.7823 329.5328 403.0898 326.4978 368.7389 326.3092 369.5261 369.5863 298.0743 369.1257 295.4608 295.4641 225.6341 296.2829 223.7083 229.1271 198.3628 229.2502 197.8113 199.5879 152.9345 199.5263 151.4011 185.8416 81.4689 186.2625 67.0891 191.2208 11.4717 236.9653 9.5517 247.3661 1 216.306 2.4241 55.9129 5.9266 1 405.9342 2.4976 436.7492 75.2285 509.9188 74.491 510.4045 146.4217 653.468 145.0372 653.7169 180.2462 671.2593 180.4682 672.1234 260.2298 654.2915 261.323 654.4888 289.2941 687.9946 272.7913 689.7843 216.9565 796.8769 215.8957 799 414.5521 Z M 476.2714 399.4835 494.772 399.3236 494.7928 362.3149 469.4026 362.5744 476.2714 399.4835 Z M 547.2128 232.8523 546.9964 218.001 450.0807 218.7242 446.1107 236.8476 443.6403 322.3146 467.3782 337.9253 489.7984 327.7096 488.8411 291.0274 547.0825 290.1299 547.2128 232.8523 Z M 434.0283 309.4614 434.4141 291.2291 402.7445 291.5358 414.8966 323.3633 434.0283 309.4614 Z"/>
</g>
</svg>