<?xml version="1.0" encoding="utf-8"?>
<!-- Generator: Adobe Illustrator 23.1.0, SVG Export Plug-In . SVG Version: 6.00 Build 0)  -->
<svg version="1.1" id="Layer_1" xmlns="http://www.w3.org/2000/svg" xmlns:xlink="http://www.w3.org/1999/xlink" x="0px" y="0px"
	 viewBox="0 0 1620.45 1172.19" style="enable-background:new 0 0 1620.45 1172.19;" xml:space="preserve">
<g>
	<path d="M909.44,1008.76c-0.09-1.11-0.11-1.27-0.11-1.43c-0.07-1.8,0.05-3.65-0.37-5.36c-0.07-0.3-3.02-0.59-3.5,0.02
		c-1.12,1.41-2.27,3.44-2.1,5.09c0.47,4.59,1.6,9.11,2.7,14.85c-2.28-0.93-3.95-1.08-4.67-1.99c-5.3-6.63-12.37-12.16-15.04-20.5
		c-2.87-8.95-4.64-18.24-7.18-27.31c-2-7.12-0.32-13.55,2.66-19.93c1.04-2.22-0.07-3.79-2.35-3.65c-2.22,0.13-4.51,0.78-6.56,1.67
		c-11.87,5.18-24.33,8.05-37.03,10.36c-10.02,1.82-20.09,2.42-30.1,1.66c-6.71-0.51-13.28-2.96-19.9-4.58
		c-0.62-0.15-1.22-0.48-1.74-0.86c-0.37-0.27-0.59-0.76-1.01-1.33c2.24-4.07,6.71-4.45,10.32-5.9c13.12-5.26,25.7-11.54,37.9-18.66
		c8.03-4.68,16.35-8.89,24.33-13.66c9.07-5.42,17.94-11.16,26.82-16.89c4.1-2.64,4.64-4.97,2.65-9.17c-1.84-3.87-4.11-4.7-8.91-3.29
		c-6.49,1.91-12.92,4.13-19.51,5.62c-7.29,1.66-14.72,2.77-22.12,3.89c-5.67,0.86-11.38,1.58-17.1,1.95
		c-5.69,0.37-11.38,0.13-16.62-3.5c3.53-5.77,9.56-7.3,14.6-9.91c6.32-3.27,13.24-5.38,19.85-8.12c8.73-3.61,17.45-7.26,26.1-11.06
		c10.85-4.77,21.64-9.68,32.42-14.61c6.36-2.91,12.68-5.91,18.95-9.01c1.59-0.78,3.07-1.95,4.28-3.24c0.65-0.69,1.12-2.26,0.76-2.98
		c-0.39-0.77-1.81-1.32-2.83-1.41c-1.06-0.09-2.24,0.34-3.24,0.8c-10.05,4.58-21.06,5.46-31.5,8.41c-6.68,1.89-13.48,2.23-19.9,2.18
		c-8.74-0.06-17.81,0.99-26.48-2.07c-3.65-1.29-7.67-1.5-11.43-2.53c-1.93-0.52-4.79-1.09-4.07-3.93c0.39-1.51,2.22-3.35,3.75-3.77
		c7.81-2.17,15.37-5.2,23.5-6.34c4.77-0.67,9.4-2.48,14.06-3.89c5.91-1.8,11.84-3.58,17.65-5.68c1.18-0.43,1.87-2.23,2.78-3.4
		c-1.21-0.62-2.4-1.77-3.62-1.79c-10.72-0.19-21.13-2.27-31.38-5.16c-2.98-0.84-6.24-1.78-8.41-5.61c3.37-0.84,6.25-1.71,9.19-2.28
		c6.88-1.32,13.78-2.5,20.67-3.74c6.09-1.09,12.22-2.04,18.27-3.35c3.76-0.81,7.47-1.98,11.04-3.41c1.05-0.42,1.88-2.23,2.08-3.52
		c0.08-0.51-1.72-1.69-2.81-1.97c-12.74-3.23-23.79-9.55-33.57-18.19c-5.11-4.52-5.22-4.82-11.01-1.52
		c-7.91,4.5-15.68,9.26-23.31,14.23c-4.38,2.86-8.35,6.35-12.93,9.89c-1.96-2.71-3.94-2.83-7.39-0.07
		c-8.38,6.73-17.37,12.72-26.29,18.75c-13.15,8.89-27.48,15.55-42.44,20.72c-8.13,2.81-16.53,4.84-24.82,7.17
		c-2.79,0.78-4.3,2.51-5.23,5.27c-2.02,6-4.22,11.95-6.6,17.82c-3.54,8.72-7.12,17.42-11.05,25.97c-1.48,3.21-4.38,5.87-3.29,9.84
		c0.55,1.99,0.95,4.39,2.3,5.72c4.28,4.2,5.54,9.66,6.52,15.05c1.17,6.43,2.22,13.07,1.81,19.52c-0.27,4.27-2.92,8.53-5.06,12.49
		c-1.18,2.18-3.44,3.82-5.38,5.52c-3.24,2.85-4.84,6.46-5.67,10.6c-1.77,8.79-2.68,17.64-0.46,26.42c1.11,4.38,2.79,8.76,5.06,12.66
		c2.94,5.06,0.55,8.98-2.17,12.4c-7.95,10.01-18.43,16.61-30.45,20.8c-1.97,0.69-4.02,1.59-6.03,1.6c-1.4,0.01-3.07-1.09-4.08-2.18
		c-0.42-0.46,0.36-2.33,0.94-3.35c2.02-3.54,4.44-6.87,6.23-10.51c0.96-1.96,1.8-4.65,1.23-6.58c-2-6.9-0.18-13.29,1.43-19.83
		c0.37-1.49,0.26-3.92-0.66-4.72c-1.77-1.54-3.57-0.13-5.08,1.43c-8.5,8.79-15.75,18.44-19.89,30.05c-0.83,2.33-0.87,5.36-0.16,7.75
		c2.71,9.17,1.8,18.21,0.02,27.32c-0.34,1.74-0.5,3.62-0.23,5.36c1.09,7.08,2.55,14.11,3.51,21.2c0.32,2.35-0.57,4.84-0.76,7.27
		c-1.27,16.63-4.57,32.61-13.91,46.88c-3.26,4.97-8.1,7.38-13.4,8.03c-8.02,0.98-16.18,1.13-24.28,1.07
		c-5.04-0.04-10.06-1.21-15.11-1.71c-3.93-0.39-7.29-0.64-10.13,3.8c-4.6,7.18-11.19,13.04-14.78,21.02
		c-0.37,0.83-1.4,1.35-2.91,2.75c-0.98-2.19-1.97-3.89-2.53-5.72c-2.5-8.18-0.73-16.55-0.81-24.83c-0.02-2.36,2.95-4.46,0.91-7.3
		c-1.08-1.5-1.82-4.48-2.85-4.54c-2.02-0.12-4.7,0.79-6.08,2.25c-1.9,2.01-2.86,4.92-4.21,7.45c-0.38,0.72-0.49,1.82-1.07,2.16
		c-2.51,1.5-4.28,3.38-5.95,5.93c-1.51,2.33-4.78,3.83-7.58,4.95c-8.4,3.35-16.9,6.51-25.46,9.42c-11.78,4-24.07,3.02-36.07,2.16
		c-6.39-0.46-12.55-4.02-18.82-6.16c-3.24-1.1-6.45-2-8.9-4.81c-2.1-2.39-3.43-4.78-3.1-7.99c0.08-0.82,0.01-1.67,0.01-2.5
		c0-7.62-0.65-7.82-8.12-9.39c-5.16-1.08-10.02-3.55-15.01-5.43c-0.76-0.29-1.46-0.73-2.19-1.11c-1.84-0.96-4.62-1.49-5.3-2.98
		c-1.42-3.08-2.28-6.67-2.35-10.07c-0.07-3.52,1.24-7.05,1.59-10.61c0.14-1.41-0.23-3.65-1.15-4.21c-1.82-1.11-3.47-0.37-4.71,1.91
		c-1.46,2.68-3.73,4.94-5.74,7.49c-1.94-3.04-2.7-9.77-1.75-13.41c2.51-9.69,6.29-18.96,12.18-26.96c4.35-5.9,9.88-10.9,17.23-13.6
		c5.41-1.99,10.62-3.74,16.51-4.18c2.89-0.22,5.71-3.45,8.25-5.68c4.86-4.27,10.5-7.18,16.6-8.78c4.14-1.09,8.58,0.12,12.18,2.62
		c3.21,2.23,6.13,4.35,10.27,2.28c0.94-0.47,2.32-0.24,3.46-0.08c6.52,0.9,11.7-2.09,16.97-5.33c10.56-6.49,19.89-14.45,28.87-22.92
		c7.21-6.79,14.93-13.06,21.87-20.11c5.95-6.04,11.53-12.45,16.46-19.48c5.62-8.04,12.24-15.37,18.3-23.11
		c9.87-12.61,21.11-24.19,28.78-38.45c0.84-1.56,2.68-2.55,3.63-4.07c0.7-1.12,1.17-2.83,0.82-3.99c-0.24-0.78-2.07-1.36-3.25-1.48
		c-1.43-0.15-2.93,0.19-4.38,0.45c-8.84,1.61-15.96-0.9-22.57-7.3c-7.9-7.66-11.37-17.69-16.66-26.77
		c-3.99-6.85-4.88-14.72-7.72-21.95c-1.3-3.32-2.05-6.85-3.09-10.27c-1.03-3.42-3.28-5.28-6.8-6.32
		c-8.83-2.62-17.59-5.49-26.28-8.54c-12.26-4.3-24.41-8.94-36.66-13.28c-11.76-4.16-23.58-8.17-35.4-12.17
		c-11.97-4.05-23.95-8.06-35.96-11.99c-8.96-2.93-17.84-6.19-26.98-8.4c-11.07-2.68-22.37-4.44-33.59-6.54
		c-6.89-1.29-13.78-2.63-20.71-3.67c-4.71-0.7-9.49-1.09-14.25-1.3c-10.43-0.45-20.87-0.78-31.3-1.01c-6.33-0.14-12.67-0.01-19-0.03
		c-10.56-0.04-20.95,1.39-31.42,2.77c-12.66,1.66-25.06,4.34-37.41,7.35c-3.44,0.84-6.69,2.51-10,3.87c-0.72,0.3-1.5,0.8-1.94,1.42
		c-6.71,9.63-13.38,19.29-20.02,28.97c-1.95,2.84-4,5.26-7.35,6.91c-2.16,1.07-3.43,4.18-4.81,6.53
		c-4.85,8.27-9.41,16.73-14.44,24.89c-2.65,4.29-5.96,8.2-9.13,12.14c-1.96,2.44-4.01,4.96-7.84,4.17
		c-2.14-0.44-3.22,0.82-4.08,2.72c-2.89,6.37-5.81,12.73-8.98,18.96c-4.06,7.98-8.43,15.8-12.57,23.75
		c-4.96,9.51-10.69,18.54-16.28,27.68c-3.45,5.64-4.59,12.69-6.74,19.12c-1.37,4.08-2.71,8.17-4.04,12.26
		c-2,6.18-3.9,12.39-5.98,18.54c-3.85,11.38-7.79,22.74-13.22,33.5c-1.28,2.55-1.3,2.54-4.47,3.34
		c-3.71-24.37,0.74-48.21,4.77-72.08c-0.4-0.06-0.79-0.13-1.19-0.19c-3.04,12.27-6.08,24.53-9.11,36.8c-3.01,12.2-6,24.4-9.17,37.29
		c-3.55-3.1-4.91-6.61-5.55-10.11c-2.7-14.82-3.74-29.79-3.09-44.86c0.08-1.81-0.48-2.91-2.23-3.93c-3.09-1.79-4.75-4.52-6.15-8.17
		c-5.04-13.17-3.79-26.74-3.4-40.17c0.24-8.58,1.82-17.28,4.07-25.59c2.45-9.07,6.44-17.71,9.58-26.6c0.59-1.67,1.03-4.27,0.17-5.32
		c-0.82-0.99-3.43-0.5-5.89-0.72c-2.32-3.08-1.6-7.5-0.86-11.32c1.14-5.85,3.11-11.65,5.51-17.13c2.86-6.54,6.56-12.72,9.87-19.07
		c1.16-2.22,2.3-4.31-0.01-6.73c-2.26-2.37-1.29-5.79-0.1-7.77c5.23-8.64,10.93-16.95,17.94-24.4
		c10.87-11.55,23.54-20.54,36.79-29.07c11.29-7.27,23.35-12.87,35.27-18.83c0.99-0.49,1.61-1.72,2.41-2.6
		c-1.07-0.78-2.07-2.09-3.22-2.22c-2.78-0.33-5.62-0.11-9.71-0.11c1.56-2.19,2.22-4,3.5-4.76c5.86-3.49,11.66-7.23,17.92-9.85
		c9.58-4.02,19.41-7.55,29.33-10.62c6.97-2.16,14.26-3.3,21.43-4.74c4.15-0.83,8.43-1.11,12.52-2.14c1.59-0.4,3.59-1.97,3.99-3.4
		c0.32-1.16-1.1-3.44-2.38-4.32c-5.49-3.79-9.11-8.77-10.86-15.17c-0.8-2.94,0.01-4.26,2.97-3.91c2.37,0.28,4.74,1.15,6.95,2.14
		c6.39,2.85,12.69,5.91,19.04,8.85c0.87,0.4,1.81,0.82,2.74,0.88c3.48,0.24,4.39-1.27,2.92-4.51c-0.99-2.19-2.36-4.39-2.61-6.69
		c-0.28-2.47,0.11-5.24,1.03-7.56c0.72-1.84,2.56-1.45,4.11-0.09c4.57,4.02,9.23,7.93,13.86,11.89c0.38,0.32,0.66,0.84,1.08,1.02
		c1.61,0.66,3.25,1.22,4.89,1.82c0.51-1.64,1.67-3.4,1.39-4.89c-0.64-3.49-0.13-6.7,1.24-9.81c0.39-0.88,1.47-1.69,2.4-1.98
		c0.42-0.13,1.53,0.99,1.87,1.74c1.64,3.72,3.04,7.55,4.69,11.27c1.73,3.9,3.25,4.38,7.38,3.67c6.44-1.11,12.92-1.96,19.39-2.83
		c6.34-0.85,12.67-1.7,19.03-2.34c20.4-2.04,40.86-1.66,61.32-1.72c6.17-0.02,12.33-0.61,18.5-0.82c2.54-0.09,5.08,0.22,7.62,0.2
		c11.69-0.09,23.38-0.26,35.06-0.33c11.24-0.07,22.48,0.05,33.72-0.11c6.26-0.09,12.51-0.77,18.76-0.84
		c3.77-0.04,7.55,0.78,11.33,0.82c2.92,0.03,5.85-0.82,8.78-0.84c13.33-0.1,26.67,0.09,40-0.08c11.79-0.15,23.67,0.2,35.33-1.19
		c12.08-1.45,24.36-2.48,36.02-6.68c4.73-1.71,9.69-2.76,14.54-4.13c6.29-1.78,9.02-7.18,12.06-12.16c1.08-1.76,1.34-4,2.2-5.93
		c0.93-2.09,1.93-4.45-0.67-5.57c-2.54-1.1-3.51,1.4-4.7,3.25c-2.5,3.9-5.19,7.7-10.98,9.18c-0.54-1.59-1.05-3.42-1.78-5.16
		c-0.52-1.23-1.32-2.33-2-3.49c-0.99,0.67-2.32,1.12-2.93,2.05c-5.23,7.91-11.94,13.78-21.06,16.97c-6.01,2.11-7.46,2.11-11.87-2.47
		c-2.5-2.6-3.69-2.31-5.15,1.28c-1.94,4.77-3.93,5.57-8.09,2.29c-3.28-2.59-5.86-6.06-8.87-9.01c-0.92-0.9-2.25-1.38-3.4-2.05
		c-0.53,1.12-1.35,2.2-1.53,3.37c-0.26,1.8-0.02,3.66-0.09,5.49c-0.11,2.65-1.49,3.8-3.92,2.5c-3.45-1.84-7.12-3.54-9.99-6.1
		c-4.57-4.09-9.95-7.59-12.27-13.8c-0.28-0.75-1.95-1.52-2.79-1.36c-0.79,0.15-1.54,1.46-1.92,2.41c-0.34,0.85-0.16,1.91-0.21,3.08
		c-4.93,1.18-8.47-1.82-11.93-3.85c-9.67-5.68-19.25-11.58-28.45-17.99c-13.92-9.7-27.22-20.21-37.95-33.59
		c-0.69-0.86-2.7-1.17-3.92-0.9c-0.66,0.14-1.55,2.2-1.3,3.12c1.4,5.17,3.09,10.26,4.74,15.35c0.54,1.66,1.47,3.21,1.8,4.9
		c0.13,0.65-0.9,1.53-1.92,3.12c-3.86-4.01-7.64-7.46-10.84-11.38c-3.5-4.29-6.61-8.92-9.59-13.59c-1.48-2.31-2.33-5.02-3.41-7.57
		c-0.44-1.04-0.49-2.34-1.15-3.18c-0.71-0.9-1.93-1.39-2.93-2.06c-0.67,1.17-1.9,2.34-1.89,3.5c0.02,2.07,0.73,4.15,1.26,6.2
		c0.78,2.99,1.89,5.92,2.4,8.95c0.35,2.1,1.19,4.68-1.79,6.35c-6.08-4.83-11.19-10.57-14.73-17.52c-3.02-5.93-5.48-12.13-8.35-18.14
		c-0.47-0.98-1.73-1.58-2.63-2.36c-0.76,1.08-2.21,2.2-2.17,3.25c0.22,4.58,0.74,9.15,1.41,13.69c0.48,3.25,1.02,6.42-0.83,10.75
		c-1.97-2.95-3.6-5.05-4.88-7.35c-4.68-8.43-7.54-17.54-9.8-26.85c-0.38-1.58-0.43-3.31-1.12-4.73c-0.53-1.1-1.81-1.83-2.75-2.73
		c-0.72,0.96-1.97,1.87-2.06,2.88c-0.82,8.85-1.37,17.73-2.14,26.58c-0.16,1.78-0.92,3.52-1.6,5.98
		c-6.21-7.42-7.94-15.62-10.25-23.51c-2.47-8.48-3.64-17.18-3.18-26.05c0.03-0.48,0.07-1.08-0.16-1.45c-1-1.52-1.94-4.04-3.2-4.24
		c-2.75-0.43-3.11,2.51-3.49,4.46c-1.5,7.68-2.07,15.62-4.29,23.07c-3.35,11.23-4.46,22.71-5.82,34.22
		c-0.87,7.31-1.91,14.6-3.04,21.88c-0.17,1.09-1.1,2.67-1.94,2.86c-0.82,0.19-2.07-1.01-2.97-1.78
		c-5.71-4.83-8.02-11.73-10.63-18.31c-4.48-11.26-7.29-22.92-7.42-35.15c-0.05-4.77-1.12-9.57-0.83-14.3
		c0.42-6.84,1.52-13.66,2.56-20.45c0.96-6.28,1.91-12.59,3.39-18.76c1.86-7.72,3.91-15.43,6.5-22.92
		c2.91-8.42,6.47-16.61,9.82-24.87c0.75-1.86,1.28-3.66-0.73-4.82c-2.19-1.27-3.48,0.6-4.4,2.07c-7.54,12-15.04,24.04-22.44,36.12
		c-7.84,12.79-15.68,25.59-23.32,38.51c-5.97,10.09-11.75,20.3-17.4,30.57c-7.13,12.98-14.09,26.05-21.04,39.13
		c-2.67,5.03-4.98,10.25-7.67,15.28c-1.45,2.71-3.33,5.18-5,7.73c-5.35-1.24-4.9-5.69-5.21-8.68c-0.87-8.38-1.72-16.92-0.96-25.26
		c0.83-9.24,1.37-18.51,3.34-27.76c2.43-11.4,6.25-22.18,9.83-33.16c4.58-14.02,11.19-27.08,17.77-40.14
		c3.35-6.67,7.83-12.78,11.9-19.07c7.75-11.97,16.66-23.06,25.66-34.1c11.26-13.82,24.24-25.93,36.76-38.49
		c4.52-4.53,9.67-8.44,14.51-12.65c0.75-0.65,1.73-1.3,2.03-2.15c0.45-1.27,0.99-3.13,0.4-3.98c-0.6-0.86-2.79-1.46-3.82-1.03
		c-5.25,2.18-10.43,4.56-15.47,7.17c-10.48,5.43-20.98,10.82-31.23,16.67c-6.79,3.88-13.25,8.36-19.67,12.85
		c-11.37,7.94-22.72,15.93-33.86,24.19c-10.38,7.69-20.57,15.65-30.67,23.71c-5.53,4.41-10.88,9.09-16,13.98
		c-12.38,11.82-24.68,23.73-36.8,35.82c-4.95,4.93-9.29,10.46-14.02,15.63c-1.05,1.15-2.54,1.91-4.74,3.52
		c-0.46-3.32-1.28-5.82-1.07-8.24c0.93-10.78,3.14-21.4,7.42-31.29c3.67-8.48,8.22-16.69,13.27-24.45
		c4.98-7.65,10.76-14.84,16.76-21.74c6.74-7.75,13.79-15.31,21.32-22.29c7.57-7.02,15.64-13.57,23.96-19.69
		c9.71-7.15,19.76-13.87,29.98-20.27c6.74-4.22,14.08-7.49,21.09-11.3c17.49-9.53,36.11-16.47,54.76-23.14
		c11.11-3.98,23.04-5.66,34.57-8.5c1.03-0.26,2.69-1.67,2.57-2.2c-0.29-1.28-1.25-2.73-2.37-3.4c-1.01-0.6-2.59-0.35-3.91-0.31
		c-11.27,0.31-22.54,0.49-33.8,1.04c-7.55,0.37-15.09,1.13-22.6,1.99c-6.83,0.78-13.63,1.93-20.44,2.9
		c-6.96,1-13.94,1.89-20.88,3.01c-12.08,1.95-24.15,3.99-36.2,6.1c-1.9,0.33-3.67,1.37-5.56,1.85c-11.19,2.82-22.41,5.48-33.59,8.36
		c-19.88,5.11-39.14,12.1-58.39,19.14c-10.22,3.74-20.64,6.94-30.92,10.55c-8.74,3.06-17.38,6.45-26.13,9.48
		c-3.04,1.05-6.26,1.87-9.46,2.12c-4.01,0.31-5.96-3.18-3.78-6.71c3.24-5.24,6.77-10.31,10.31-15.36c1.5-2.14,3.24-4.15,5.04-6.06
		c6.23-6.63,11.83-13.82,19.65-18.94c6.55-4.29,12.28-9.81,18.71-14.31c4.93-3.45,10.37-6.16,15.59-9.18
		c13.44-7.8,27.59-14.2,42.14-19.47c16.37-5.93,33.21-10.48,50.39-13.5c11.1-1.95,22.27-3.57,33.45-4.97c7.99-1,16.05-1.63,24.1-2
		c11.92-0.55,23.88-1.23,35.8-0.91c11.49,0.31,22.94,1.82,34.41,2.81c3.76,0.33,7.52,0.75,11.29,1.01c1.8,0.13,4.25,0.33,4.12-2.19
		c-0.07-1.3-1.83-3.22-3.2-3.64c-12.13-3.7-24.25-7.49-36.56-10.51c-8.69-2.14-17.65-3.13-26.5-4.63
		c-4.19-0.71-8.37-1.46-12.57-2.06c-5.02-0.72-10.06-1.38-15.1-1.92c-6.86-0.74-13.72-1.46-20.6-1.96
		c-3.7-0.27-7.44-0.06-11.16-0.06c-9.67,0-19.34-0.13-29,0.03c-12.44,0.2-24.9,0.25-37.3,1.08c-12.44,0.83-24.81,2.54-37.22,3.83
		c-1.16,0.12-2.33-0.01-3.5,0.06c-10.7,0.65-21.4,1.41-32.1,1.94c-2.99,0.15-6.04-0.23-9.02-0.62c-1.03-0.14-1.95-1.05-3.81-2.11
		c3.81-3.38,6.94-6.72,10.6-9.29c5.6-3.92,11.43-7.57,17.4-10.89c14.56-8.1,30.38-13.25,46.33-17.51
		c10.63-2.84,21.54-5.38,32.76-5.56c10.6-0.17,21.22-1.12,31.8-0.82c9.32,0.27,18.62,1.72,27.9,2.8c7.81,0.91,15.61,1.9,23.37,3.09
		c5.79,0.89,11.59,1.92,17.28,3.29c12.8,3.09,25.6,6.24,38.3,9.73c8.61,2.37,17.05,5.37,25.57,8.05c1.23,0.39,2.53,0.89,3.77,0.81
		c2.82-0.17,3.87-2.51,1.69-4.31c-3.47-2.88-7.29-5.42-11.23-7.61c-6.1-3.38-12.45-6.32-18.66-9.51c-2.29-1.18-4.41-2.69-6.72-3.8
		c-11.27-5.37-22.6-10.64-33.89-15.97c-6.01-2.84-11.89-5.96-17.99-8.56c-18.39-7.84-36.15-16.94-53.25-27.24
		c-8.19-4.94-15.89-10.71-23.73-16.22c-0.96-0.68-1.43-2.06-2.79-4.12c6.88,0.52,12.78,0.63,18.57,1.48
		c10.17,1.5,20.44,2.79,30.35,5.38c11.77,3.08,23.32,7.1,34.74,11.34c11.71,4.34,23.47,8.78,34.62,14.36
		c15.43,7.73,30.65,16.02,45.31,25.11c11.07,6.86,21.36,15.09,31.6,23.19c14.51,11.49,28.58,23.53,41.2,37.13
		c4.93,5.31,9.59,10.87,14.4,16.29c3.23,3.64,6.62,7.16,9.77,10.87c5.31,6.26,10.5,12.63,15.72,18.98c0.3,0.37,0.31,1.06,0.66,1.28
		c1.57,1.02,3.58,3.03,4.77,2.64c2.51-0.82,1.79-3.45,1.2-5.58c-0.22-0.78-0.27-1.63-0.58-2.36c-1.82-4.2-1.34-8.1-0.2-12.61
		c2.57-10.19,3.49-20.74-0.85-30.82c-3.38-7.85-1.61-15.18,2.15-22.02c3.66-6.65,5.42-13.87,7.99-20.86
		c2.7-7.36,5.15-15.04,11.45-20.3c4.87-4.07,10.68-6.35,17.15-6c1.55,0.08,3.03,1.35,3.85,1.73c-2.58,8.05-5.1,15.25-7.14,22.59
		c-0.97,3.5-0.46,6.89,1.69,10.34c3.63,5.83,4.27,12.52,3.39,19.33c-0.21,1.63-0.45,3.28-0.42,4.92c0.07,5.35-1.64,10.02-5.4,13.79
		c-2.34,2.34-1.91,4.63-0.64,7.18c1.07,2.15,2.64,3.44,5.13,2.97c0.9-0.17,2.04-0.57,2.5-1.25c2.95-4.36,5.21-9.07,5.35-14.45
		c0.14-5.5,0.03-11,0.03-16.5c0-0.83,0.24-1.79-0.09-2.48c-4.32-9.07,0.34-16.77,3.92-24.48c2.77-5.97,6.34-11.56,9.32-17.43
		c1.53-3.02,2.78-6.24,3.76-9.49c3.2-10.6,10.16-16.99,20.78-19.96c3.58-1,6.76-0.48,10.01,0.48c2.77,0.82,2.76,1.69,0.81,3.85
		c-5.09,5.6-8.91,12.03-11.14,19.23c-1.01,3.28-0.62,6.67,1.42,9.94c6.13,9.78,3.57,23.13-3.42,30.72c-1.8,1.96-3.68,3.87-5.66,5.64
		c-2.08,1.85-2.46,4.14-1.12,6.24c2.75,4.3,1.49,8.24-0.28,12.34c-1.22,2.83-2.78,5.69-3.18,8.67c-0.83,6.13,1.99,11.5,5.04,16.54
		c1.56,2.58,10.25,3.52,12.88,1.88c2.26-1.42,1.99-3.63,1.95-5.79c-0.09-6.13,1.47-11.6,5.82-16.2c4.84-5.12,10.71-7.9,17.5-6.06
		c4.81,1.31,8.1-0.16,10.19-3.67c3.99-6.68,7.34-13.73,8.58-21.6c0.28-1.76,1.71-3.35,2.62-5.01c1.69,1.13,3.99,1.88,4.98,3.45
		c4.69,7.48,5.21,15.86,3.85,24.28c-1.72,10.7-7.06,19.69-13.8,28.07c-3.91,4.86-7.95,9.24-12.89,13.21
		c-5.11,4.12-8.64,10.22-12.76,15.53c-2.7,3.48-5.6,6.89-7.71,10.71c-2.8,5.06-4.75,10.59-7.43,15.74c-1.25,2.4-3.26,4.44-5.08,6.51
		c-2.58,2.93-2.59,4.79-0.12,7.69c2.98,3.49,5.63,7.27,8.74,10.63c4.83,5.2,10.87,8.79,17.14,12.03c5.66,2.93,11.26,5.95,16.83,9.04
		c3.32,1.84,4.8,1.42,5.5-2.24c2.02-10.56,4.19-21.05,7.97-31.18c3.88-10.41,8.98-20.06,16.98-27.82c3.48-3.38,7.63-6.26,11.89-8.6
		c6.26-3.43,12.9-6.17,19.37-9.22c5.86-2.76,6.43-9.38,0.56-13.71c1.44-3.81,2.97-7.81,4.43-11.84c0.38-1.05,1.1-2.54,0.68-3.21
		c-1.86-2.95,0.1-4.45,1.76-6.36c1.87-2.15,5.28-3.36,4.15-7.6c-0.22-0.84,3.54-2.86,5.58-4.14c0.93-0.59,2.17-0.67,3.22-1.08
		c2.75-1.08,3.23-2.83,1.54-5.34c-0.83-1.23-1.6-2.5-2.06-4.06c7.33,5.1,15.29,4.03,23.2,3.32c3.6-0.32,7.2-0.66,10.81-0.87
		c2.55-0.15,9.47-4.55,9.74-6.85c0.16-1.38-0.66-3.11-1.54-4.33c-1.99-2.77-4.29-5.32-6.39-7.86c1.27-2.21,2.28-3.89,3.21-5.61
		c0.38-0.69,0.87-1.46,0.87-2.2c0.07-6.68,1-13.55-0.21-20c-1.23-6.55,0.55-11.72,3.13-17.29c2.24-4.85-0.04-7.76-5.45-7.88
		c-5.83-0.12-7.09-0.47-13.05-3.95c3.87-0.81,6.9-1.24,9.81-2.09c4.05-1.17,8.08-2.48,11.95-4.13c0.95-0.4,1.87-2.48,1.64-3.54
		c-0.2-0.94-2.02-2.17-3.11-2.17c-3.43,0.01-6.86,0.77-10.29,0.82c-4.77,0.08-9.15-2.2-11.23-4.96c7.53-1.94,15.42-3.8,23.2-6.04
		c3.77-1.08,7.25-2.94,9.11-6.84c1.05-2.18,0.51-3.56-1.8-4.05c-2.23-0.47-4.5-0.95-6.76-1.02c-14.88-0.5-25.36-10.7-27.84-24.35
		c-0.06-0.3,0.1-0.65,0.17-1.05c4.6,2.62,9.05,5.5,13.78,7.78c9.75,4.7,20.17,4.94,30.28,2.11c3.38-0.95,6.12-5.17,8.49-8.37
		c1.54-2.08-1.3-5.41-4.16-5.12c-13.65,1.38-24.36-4.62-32.37-14.67c-6.93-8.69-11.87-18.81-11.24-30.62
		c0.28-5.21-1.06-10.65,2.28-15.4c0.28-0.4,0.64-0.76,1.37-1.61c3.62,6.12,7.06,11.96,10.52,17.78
		c7.18,12.05,16.61,22.14,27.58,30.74c8.01,6.28,8.17,6.04,15.6-1.07c1.05-1.01,2.41-1.68,3.5-2.65c2.11-1.89,1.61-5.5-1-6.47
		c-8.92-3.31-15.01-9.83-19.68-17.71c-5.53-9.32-8.41-19.53-8.1-30.4c0.2-7.03,1.62-13.93,4.22-20.53c0.23-0.59,0.77-1.05,1.87-2.5
		c2.09,4.29,4.01,7.74,5.48,11.37c4.21,10.33,10.05,19.68,16.73,28.55c4.33,5.75,8.46,11.69,13.23,17.05
		c3.67,4.12,7.75,8.08,14.49,5.31c2.92-1.2,6.52-0.63,9.71-1.3c1.79-0.38,3.95-1.3,4.84-2.69c0.55-0.86-0.61-3.34-1.63-4.59
		c-10.03-12.27-11.59-26.34-8.62-41.22c1.01-5.05,2.62-10.12,4.87-14.73c1.96-4.03,5.2-7.43,8.59-12.12
		c1.12,2.28,1.88,3.27,2.11,4.38c2.41,11.3,4.1,22.8,7.28,33.87c2.94,10.22,4.22,21.42,11.77,29.67c3.25,3.56,7.39,7.08,13.26,5.93
		c1.07-0.21,2.52,0.26,3.44,0.92c1.47,1.05,2.61,2.56,3.94,3.82c2.88,2.72,3.23,2.66,6.28-1.2c2.05,3.33,4.02,6.5,5.95,9.69
		c1.96,3.24,3.79,3.26,6.18,0.21c1.4-1.79,3.07-3.37,4.7-5.13c2.56,3.87,3.65,7.65,4.83,11.66c1.43,4.88,5.32,9.21,8.71,13.3
		c4.43,5.34,9.4,10.24,14.18,15.3c3.59,3.8,3.16,8.28,2.14,12.78c-1.28,5.63-1.31,5.93,3.76,8.32c7.35,3.46,14.94,6.47,22.1,10.28
		c4.91,2.61,8.83,6.08,9.76,12.64c1.02,7.2-0.05,13.99-1.26,20.86c-0.41,2.31-1.55,4.76-3.04,6.57c-3.91,4.74-6.65,10.29-11.76,14.3
		c-3.49,2.73-5.96,6.9-10.25,8.85c-1.56,0.71-3.54,1.69-4.97,1.28c-3.07-0.89-5.65-0.38-8.44,0.81c-1,0.43-2.49-0.11-3.71-0.39
		c-1.94-0.44-3.85-1.03-6.46-1.75c-0.21-1.77-1.88-2.93-4.79-2.56c-1.55,0.2-2.81-0.03-4.18-1.64c-1.24-1.45-4.03-1.76-6.21-2.13
		c-0.57-0.1-1.98,1.4-2.02,2.21c-0.05,1.12,0.67,3.12,1.36,3.27c3.17,0.65,4.37,3.09,6.13,5.26c0.97,1.2,3.16,1.33,4.61,2.24
		c3.43,2.15,6.85,4.33,10.09,6.76c6.51,4.89,5.71,5.06,6.88,13.45c0.89,6.44,0.39,10-6.42,12.77c-5.47,2.22-8.67,7.94-10.46,13.97
		c-0.87,2.92,0.97,3.75,2.78,4.94c2,1.31,3.92,2.75,6.19,4.37c-1.52,0.98-2.64,1.44-3.35,2.26c-0.56,0.65-1.11,2.27-0.81,2.56
		c2.17,2.08,2.87,4.6,3.29,7.46c0.13,0.89,1.83,1.84,2.99,2.25c7.31,2.53,14.72,3.11,22.22,0.75c2.41-0.76,4.86-1.41,7.55-2.19
		c-0.05,0.51-0.18,1.32-0.2,2.14c-0.11,4.16,0.78,4.78,5.07,3.77c6.78-1.59,12.99,0.47,18.96,3.3c1.54,0.73,3.21,2.38,3.66,3.94
		c0.98,3.39,3.69,4.74,6.01,6.79c5.03,4.47,9.86,9.2,14.4,14.15c3.29,3.59,7.75,3.9,11.83,5.39c0.87,0.32,1.76,0.6,2.8,0.95
		c-3.58,3.31-3.43,3.27-0.72,6.67c2.31,2.91,4.19,6.15,6.74,9.96c-4.74,0.03-5.12,2.64-4.78,5.72c0.04,0.33,0.1,0.71-0.02,0.99
		c-3.12,6.89,1.26,11.43,5.01,16.21c8.28,10.57,16.72,21.01,24.67,31.82c3.04,4.14,5.15,9.04,7.26,13.78
		c3.23,7.25,6.13,14.65,9.1,22.02c1.57,3.91,3.01,7.88,4.46,11.84c0.76,2.09,2.22,2.56,4.35,3.2c10.09,3.06,21.1,2.26,30.7,7.12
		c8.47,4.29,15.6,10.31,21.51,17.77c7.12,8.99,14.07,18.13,21.52,26.84c4.73,5.53,10.24,10.4,15.41,15.56
		c2.17,2.17,4.43,4.26,6.49,6.53c4.51,4.96,10.43,7.82,16.03,11.22c6.14,3.72,12.16,7.65,18.05,11.74c1.78,1.24,3.18,3.18,4.38,5.04
		c0.54,0.84,0.67,2.7,0.12,3.34c-2.04,2.37-0.87,4.48,0.34,6.35c6.39,9.91,12.86,19.77,21.1,28.31c4.13,4.29,8.29,8.57,12.07,13.16
		c6.72,8.15,7.63,17.42,5.25,27.54c-2.04,8.71-3.08,17.66-4.87,26.44c-0.61,2.98-2.4,5.71-3.2,8.67c-0.85,3.12-1.56,6.38-1.63,9.59
		c-0.21,9.16,0.13,18.34-0.16,27.5c-0.15,4.71-1.33,9.37-1.79,14.08c-0.28,2.83-0.66,5.84,0.01,8.52
		c1.82,7.36,0.41,14.12-1.91,21.14c-2.76,8.36-7.43,15.16-13.54,21.31c-3.52,3.55-7.9,5.2-12.34,6.8c-0.92,0.33-2.38-0.79-3.57-1.29
		c-1-0.41-2.11-1.42-2.9-1.2c-0.79,0.22-1.66,1.58-1.78,2.54c-0.51,3.97-0.75,7.97-1.08,11.97c-0.99,11.97-2.06,23.93-2.96,35.9
		c-1.25,16.69-6.14,32.63-9.56,48.88c-3.97,18.89-10.9,36.48-19.58,53.49c-3.46,6.78-7.91,13.06-11.94,19.54
		c-2.92,4.69-5.6,9.55-8.9,13.95c-5.02,6.67-9.43,13.77-15.54,19.67c-5.8,5.59-10.46,12.38-16.29,17.92
		c-8.08,7.68-16.67,14.83-27.3,19c-3.44,1.35-4.07,4.5-1.2,7.01c4.8,4.21,9.9,8.08,14.93,12.02c5.79,4.54,11.34,9.51,17.57,13.35
		c5.16,3.19,10.97,5.89,16.85,7.21c6,1.34,10.71-2.65,13.85-7.6c4.85-7.67,10.12-14.94,16.7-21.23c5.15-4.92,10.86-6.36,17.78-4.18
		c8.98,2.82,15.98,8.68,23.06,14.39c2.58,2.07,3.98,3.19,7.97,1.6c6.86-2.74,14.4-3.12,21.74,0.3
		c14.29,6.66,23.45,17.88,28.31,32.39c2.04,6.08,1.93,12.94,2.4,19.47c0.12,1.71-1.25,3.53-2.34,6.35
		c-2.98-3.25-5.43-5.62-7.52-8.28c-3.54-4.51-7.85-8-13.35-9.5c-4.3-1.18-8.35-0.58-11.79,3.07c-1.91,2.03-2.26,4.13-1.8,6.34
		c0.74,3.53-0.25,6.51-2.51,8.89c-1.92,2.03-1.65,3.71-0.47,5.73c1.76,3,3.6,6.04,2.83,9.71c-0.42,2.02-1.36,3.92-1.99,5.9
		c-0.39,1.23-0.73,2.48-0.94,3.75c-0.43,2.72-1.84,3.59-4.38,2.49c-1.78-0.77-3.48-2.04-5.32-2.3c-2.57-0.36-6.56-1.04-7.63,0.28
		c-4.5,5.58-10.88,5.88-16.85,7.94c-7.77,2.68-15.69,1.02-23.45,2.26c-2.07,0.33-4.47-0.77-6.6-1.54
		c-6.82-2.49-13.51-5.38-20.4-7.66c-7.7-2.55-15.24-1.1-22.38,2.33c-9.68,4.64-19.82,5.61-30.19,3.7
		c-5.07-0.93-10.21-2.32-14.83-4.54c-3.52-1.69-6.24-5.02-9.33-7.6c-5.66-4.74-11.39-9.4-16.97-14.24
		c-2.82-2.44-5.26-5.31-8.07-7.75c-9.45-8.23-18.93-16.44-28.54-24.49c-2.99-2.5-6.42-4.46-9.61-6.73
		c-3.66-2.59-4.54-6.63-5.44-10.65c-2.59-11.59-4.96-23.25-7.87-34.76c-1.59-6.27-4.03-12.33-6.21-18.44
		c-1.11-3.11-3.65-2.3-5.84-1.61c-2.17,0.68-4.33,1.51-6.31,2.61c-5.34,2.96-11.36,2.78-17.1,3.78
		C913.22,1010.6,911.27,1009.32,909.44,1008.76z M1128.31,757.4c-0.03,0-0.07,0-0.1,0c0-3.17,0.02-6.33-0.01-9.5
		c-0.01-1.96,0.36-4.53-2.61-4.3c-2.44,0.18-3.35,2.15-3.43,4.65c-0.08,2.43-0.51,4.87-0.97,7.27c-0.55,2.87-1.24,5.72-1.99,8.55
		c-2.17,8.17-4.43,16.3-6.57,24.48c-0.6,2.3-1.79,4.95-1.17,6.98c1.92,6.32,1.57,12.44,1.01,18.94c-0.68,7.96-2.32,15.54-5.38,22.74
		c-3.88,9.14-9.47,16.69-19.38,20.72c-5.09,2.07-10.78,4.04-14.33,8.91c-2.29,3.13-4.54,6.29-6.59,9.58
		c-2.98,4.79-5.38,9.98-8.7,14.51c-6.77,9.24-13.98,18.15-21.02,27.19c-2.46,3.16-4.94,6.31-7.46,9.42
		c-3.1,3.82-6.08,7.75-9.42,11.36c-4.29,4.63-8.9,8.96-13.34,13.45c-1.92,1.95-3.44,4.12-2.19,7.04
		c3.28,7.63,6.16,15.48,10.03,22.81c4.94,9.35,10.73,18.26,16.11,27.39c2.19,3.71,4.7,4.04,7.06,0.56c2.17-3.21,4.08-6.6,6.03-9.95
		c4.5-7.71,9.04-15.41,13.43-23.18c8.02-14.18,16.21-28.27,23.82-42.67c5.4-10.21,10.01-20.84,14.88-31.32
		c8.24-17.74,14.88-35.99,19.65-55.04c2.75-11,4.88-22.11,7.33-33.15c2.23-10.03,3.17-20.38,4.11-30.63
		C1127.92,775.29,1127.94,766.33,1128.31,757.4z M738.87,507.12c-1.08-4.92-1.87-9.92-3.39-14.7c-0.51-1.6-2.85-3.65-4.37-3.66
		c-2.57-0.02-4.17,1.88-3.99,5.07c0.28,4.81,0.81,9.81-0.14,14.44c-2.22,10.82-4.93,21.57-10.41,31.36
		c-0.4,0.71-1.04,1.46-1.03,2.19c0.02,1.37,0.44,2.73,0.69,4.1c1.29-0.29,3-0.15,3.8-0.94c2.81-2.76,5.56-5.66,7.88-8.84
		C734.19,527.56,738.77,518.31,738.87,507.12z M1071.23,675.89c-1.47-1.44-2.36-3.07-3.51-3.28c-2.52-0.45-5.57,4.21-4.16,6.33
		c0.77,1.15,3.3,2.58,3.72,2.24C1068.77,679.98,1069.7,678.08,1071.23,675.89z M1155.2,684.43c-1.42-2.32-2.35-4.13-3.6-5.68
		c-0.27-0.33-2.43,0.17-2.48,0.48c-0.28,1.8-0.2,3.66-0.22,5.5c0,0.14,0.2,0.28,0.21,0.42c0.11,1.81,0.74,3.68,2.78,3.08
		C1153.13,687.88,1153.92,685.98,1155.2,684.43z"/>
</g>
</svg>
