<?xml version="1.0" encoding="utf-8"?>
<!-- Generator: Adobe Illustrator 24.1.1, SVG Export Plug-In . SVG Version: 6.00 Build 0)  -->
<svg version="1.1" id="Layer_1" xmlns="http://www.w3.org/2000/svg" xmlns:xlink="http://www.w3.org/1999/xlink" x="0px" y="0px"
	 width="243.52" height="229.17" viewBox="0 0 243.52 229.17" style="enable-background:new 0 0 243.52 229.17;" xml:space="preserve">
<style type="text/css">
	.st0{fill:#1A1A1A;}
</style>
<g>
	<path d="M69.94,200.04c-0.26-2.46,2.32-1.91,2.16-3.8c-2.83-0.12-5.65-0.66-8.02-2.94c1.41-0.18,2.68-0.34,4.24-0.54
		c-7.11-3.74-14.62-5.85-21.03-10.63c3.22,0,6.44,0,9.58,0c0.46-2.06-2.04-2.31-1.75-3.89c1.75-2.88,4.04,1.42,5.86-0.76
		c-3.82-1.57-3.21-6.2-2.34-7.75c1.31-2.35,0.05-3.34-0.54-4.62c-2.58-5.62-4.58-11.56-9.57-15.82c-1.84-1.57-4.12-2.48-6.13-4.22
		c2.09-2.04,3.93,1.54,5.68-0.67c-3.46-4.27-7.21-8.74-11.99-12.06c-2.26-1.57-1.55-2.36,0.1-3.85c-5.55-2.51-10.73-5.91-17.31-3.12
		c0.54-4.21,1.62-5.45,6.99-8.64c-0.98-1.59-3.06,0.18-4.2-1.56c0.84-2.5,3.32-2.63,6.02-3.61c-4.51-3.68-9.71-6.2-12.67-11.18
		c1.52-0.71,2.72,1.67,4.39,0.1c-8.03-5.91-13.91-13.54-18.5-22.39c-1.13-2.18-1.25-3.65-0.16-5.31c3.58-5.43,7.07-10.97,12.12-15.3
		c-0.27-0.15-0.51-0.39-0.74-0.38c-9.61,0.44-8.24-3.23-5.73-9.42c0.69-1.71,3.09-3.53,0.37-5.63c-0.24-0.18-0.04-1.42,0.33-1.82
		c2.68-2.88,4.33-6.25,5.99-9.82c1.63-3.52,5.93-5.03,9.15-8.09c-2.74,0.04-4.28-1.44-5.74-3.84c3.82,0.02,6.31-3.74,10.8-1.95
		c-1.09-3.51-0.84-5.82,2.43-7.15c3.14-1.28,5.33-3.91,6.69-6.93c1.08-2.39,2.7-2.88,4.76-2.11c4.49,1.67,9.27,1.95,13.81,3.03
		c5.07,1.21,10.23,3.32,14.83,5.89c7.82,4.37,16.02,7.87,24.2,11.31c4.83,2.03,8.22,5.71,12.95,7.95
		c-4.21,7.64-6.13,15.52-6.85,23.68c-0.32,3.57,1.26,6.86,2.46,10.2c3.74,10.41,7.76,20.71,12.1,30.88c2.5,5.85,7.19,9.8,11.9,13.68
		c1.02,0.84,2.25,1.51,2.87,2.64c2.08,3.78,4.8,6.25,9.48,5.47c0.63-0.11,1.42-0.12,1.96,0.16c6.41,3.21,13.25,4.52,20.34,4.92
		c1.21,0.07,2.57,0.79,3.51,1.61c4.79,4.2,10.65,5.42,16.66,6.29c0.65,0.09,1.42,0.01,1.94,0.32c7.2,4.35,13.84,9.22,16.29,17.9
		c1.02,3.63,3.83,4.82,7.16,5.86c3.82,1.2,7.77,0.65,11.63,1.64c3.27,0.84,5.87,2.2,8.39,4.26c7.2,5.89,13.1,12.64,16.13,21.65
		c0.61,1.83,0.82,3.39,0.16,5.58c-4.19-2.69-7.18-6.36-10.78-9.26c-1.98-1.6-4.29-2.26-6.32-3.61c-2.39-1.59-5.16-0.06-6.33,2.82
		c-0.42,1.03-0.64,2.14-0.95,3.21c11.99,4.56,20.31,13.77,18.27,23.73c-3.87-2.13-6.18-5.92-9.83-8.15
		c-6.3-3.86-9.62-2.72-12.72,4.12c-1.57,3.48-4.94,5.58-8.59,6.96c-4.05,1.53-8.09,3.1-12.37,4.75c3.02,3.91,5.2,7.9,3.13,13.61
		c-3.93-5.23-8.25-8.64-14.81-9.62c0.3,6.81-3.99,9.34-9.39,11.38c-4.46,1.68-8.99,2.93-13.61,3.76c-6.16,1.1-11.39-2.31-16.9-4.25
		c-1.51-0.53-2.71-1.98-4.77-1.49c-0.93,1.57-0.19,3.89-2.11,5.4c-3.42-2.71-5-7.83-9.89-9.08c-1.38,0.68,0.99,1.76-0.37,2.41
		c-1.18,0-1.68-0.98-2.35-1.66c-2.77-2.8-5.22-6.74-9.63-1.76c-1.4-1.96-2.5-3.52-3.73-5.23c-6.69-0.45-12.91-3.04-17.99-7.52
		c-4.61-4.07-9.43-6.35-15.58-5.76C73.7,200.18,71.87,200.04,69.94,200.04z"/>
</g>
<g>
	<path class="st0" d="M102.05,185.07c-0.85-3.24-2.71-6.59-0.25-10.22c-5.23-4.94-8.1-11.13-10.45-17.56
		c-1.57-4.32,0.68-10.02,4.96-13.37c3.62-2.83,7.23-2.41,10.91,0.02c3.8,2.5,7.71,4.87,11.54,7.31c2.31,1.47,4.97,3.54,4.25,7.82
		c2.44-1.35,4.94-0.19,6.31-2.62c1.66,1.09,1.65,3.22,2.96,4.47c1.68,0.2,1.93-1.53,3.2-2.33c0.1,1.7,0.18,3.28,0.27,4.88
		c1.66,0.13,2.04-1.62,3.24-2.02c3.43,2.67,3.68,8.24,8.84,9.48c1.02-0.02,0.63-1.84,1.96-1.81c0.36,0.24,0.84,0.44,1.16,0.78
		c5.02,5.48,7.82,11.84,6.58,19.33c-0.57,3.48-3.9,5.51-5.95,8.2c-1.84,2.43-4.94,3.48-7.74,4.46c-5.06,1.79-9.83,3.87-14.6,6.49
		c-5.56,3.05-12.38,4.64-19.05,3.55c-6.28-1.02-12.17-3.16-17.43-7.11c-4.21-3.16-4.97-8.95-0.23-12.05
		C95.87,190.59,99.37,188.71,102.05,185.07z"/>
	<path class="st0" d="M190.11,182.14c-8.25-5.44-15.42-11.28-19.93-19.83c2.52-0.11,4.73-1.59,7.3-1.46
		c0.01-2.86-2.48-1.05-3.19-2.28c0.79-0.45,1.29-1.34,2.53-0.9c2.07,0.73,4.3,0.65,6.37,0.14c2.76-0.69,5.19-1.68,7.85,0.79
		c1.19,1.11,3.98,2.3,4.95-1.23c5.02,2.47,9.95,4.83,14.82,7.32c3.37,1.72,5.33,4.89,6.59,8.15c1.67,4.3-1.57,8.57-5.91,10.32
		c-6.26,2.52-12.78,3.57-19.32,4.72c-0.65,0.11-1.8,0.33-1.91,0.11c-1.78-3.68-6.02-1.61-8.71-3.92
		C183.92,181.93,187.01,183.92,190.11,182.14z"/>
	<path class="st0" d="M130.82,136.05c3.01,1.17,5.41-1.72,8.35-2.47c4.89-1.25,9.2-0.87,13.19,1.84c1.63,1.11,3.01,2.15,4.9,1.35
		c1.52-0.64,2.37,0.5,3.51,0.87c2.87,0.93,5.39,2.36,8.81,2.29c3.34-0.07,6.53,2.48,8.72,5.44c0.63,0.85,0.57,2.01-0.28,2.73
		c-2.31,1.95-3.76,4.66-7.49,5.2c-5.09,0.74-10.11,2.44-15.05,3.95c-6.18,1.89-10.67-0.82-15.55-3.38
		c-4.85-2.54-8.94-6.04-12.94-9.69c-1.79-1.63-1.9-5.46-0.19-7.18C127.67,136.12,128.32,135.95,130.82,136.05z"/>
	<path class="st0" d="M174.48,194.9c2.23,1.72,1.95,4.04,2.56,5.97c0.44-0.06,0.96,0,1.03-0.15c2.39-5.05,5.97-7.78,11.9-6.76
		c1.66,0.29,3.65,0.63,5.16-0.84c-1.35-3.18-5.42-1.01-6.9-4.02c6.36-0.32,12.74,1.72,19.88-1.05c0.64,0.91,1.44,2.19,2.39,3.34
		c3.01,3.65,2.61,5.01-0.9,8.29c-6.88,6.41-15.47,7.88-24.2,9.43c-3.95,0.7-7.59,1.1-11.54-0.3c-3-1.07-4.95-3.08-7.07-5.12
		c-1.09-1.05-1.73-2.35-0.7-3.48c0.97-1.06,1.6-3.25,3.68-2.48C172.48,198.76,173.24,196.78,174.48,194.9z"/>
	<path class="st0" d="M136.73,215.67c3.64-1.06,6.27-7.52,10.51-1.75c2.21,0.01,1.98-2.29,3.56-2.9c3.21,1.97,4.22,5.61,6.3,8.54
		c2.22-0.49,1.2-2.57,1.76-3.88c5.23-2.54,9.03,4.48,14.28,1.93c-0.33-0.9-0.71-1.96-1.15-3.16c0.78-1.24,1.99-2.35,3.31-3.33
		c5.78,3.76,5.66,7.66-0.16,10.78c-4.48,2.4-9.3,3.89-14.17,5.03c-6.88,1.61-12.82-2.06-19-4.21
		C138.84,221.64,136.71,219.69,136.73,215.67z"/>
	<path class="st0" d="M218.9,172.39c-0.8-3.17-1.38-4.33-3.17-6.33c0.08-1.81,2.69-0.24,2.79-2.23c-4.16-3.39-8.4-6.83-12.82-10.43
		c11.42-0.09,21.04,3.2,27.94,12.24c4.07,5.33,7.92,10.88,9.2,18.55C235.19,178.59,230.72,168.3,218.9,172.39z"/>
	<path class="st0" d="M198.41,151.4c-1.46-1.82-2.79-3.75-4.39-5.42c-3.61-3.77-7.8-6.22-13.33-5.01c-1.34,0.29-2.46-0.33-2.87-1.47
		c-1.74-4.87-5.45-8.51-8.02-12.96c15.16,1.53,25.59,8.69,29.81,23.54C199.21,150.52,198.81,150.96,198.41,151.4z"/>
	<path class="st0" d="M236.63,200.75c-3.87-1.84-5.44-5.56-8.44-7.81c-2.61-1.97-8.07-3.03-10.69-1.13
		c-1.35,0.98-3.88,1.41-3.87,1.09c0.09-2.62-3.72-2.84-3.12-5.87c0.48-2.39,1.88-2.59,3.61-3.3c1.97-0.81,4.96-0.38,4.79-3.89
		C228.64,184.06,236.09,189.32,236.63,200.75z"/>
	<path class="st0" d="M185.14,212.78c0.94-2.98,3.26-3.3,5.72-2.57c2.84,0.85,5.46,6.14,4.72,9.71
		C192.37,216.83,189.01,214.34,185.14,212.78z"/>
</g>
</svg>
