<?xml version="1.0" encoding="utf-8"?>
<!-- Generator: Adobe Illustrator 24.0.2, SVG Export Plug-In . SVG Version: 6.00 Build 0)  -->
<svg version="1.1" id="Layer_1" xmlns="http://www.w3.org/2000/svg" xmlns:xlink="http://www.w3.org/1999/xlink" x="0px" y="0px"
	 width="317.78" height="721.26" viewBox="0 0 317.78 721.26" style="enable-background:new 0 0 317.78 721.26;" xml:space="preserve">
<style type="text/css">
	.st0{fill:#333333;}
</style>
<path d="M309.04,530.25c-1.37-0.4-2.48-1.28-3.62-2.08c-2.55-1.79-5.05-3.65-7.61-5.42c-0.31-0.21-0.87-0.06-1.31-0.08
	c0-0.12,0.03-0.26,0-0.37c-0.02-0.07-0.14-0.11-0.22-0.17c0.11,0.14,0.22,0.29,0.34,0.43c0.14,0.61,0.19,1.26,0.44,1.83
	c2.27,5.15,3.44,10.6,4.35,16.12c0.91,5.51,1.59,11.04,2.5,16.55c1.44,8.73,4.26,16.99,7.75,25.06c1.52,3.52,3.28,6.92,5.19,10.24
	c0.4,0.69,0.88,1.34,0.81,2.2l0.12-0.11c-0.52,0.11-0.93-0.11-1.28-0.44c-2.48-2.27-4.74-4.75-6.84-7.38
	c-1.4-1.75-2.72-3.56-4.09-5.32c-0.48-0.62-1.01-1.21-1.58-1.88c-0.18,0.38-0.42,0.64-0.38,0.83c1.21,5.55,0.9,11.13,0.2,16.69
	c-2.13,16.88-6.81,33.12-12.45,49.12c-1.01,2.86-2.09,5.7-3.13,8.55c-0.27,0.75-0.54,1.51-0.38,2.48c0.23,0.25,0.5,0.63,0.86,0.91
	c0.63,0.49,1.3,0.92,1.96,1.37c1.62,1.1,2.82,2.56,3.88,4.19c1.63,2.5,2.26,5.25,2.27,8.18c0.01,0.97-0.12,1.91-0.49,2.81
	c-0.61,1.48-1.19,2.97-1.8,4.44c-1.55,3.75-3.83,7.01-6.89,9.68c-2.07,1.8-4.51,3.01-7.09,3.89c-2.42,0.83-4.91,1.39-7.45,1.72
	c-0.47,0.06-0.92,0.21-1.33,0.3c-3.77,6.39-7.68,17.7-9.21,26.6c-0.19,0.19-0.48,0.07-0.49-0.36c-0.07-3.03-0.15-6.07-0.1-9.1
	c0.08-4.81-0.3-9.57-0.95-14.33c-0.04-0.3-0.25-0.57-0.38-0.86c-0.78-0.72-1.79-0.48-2.71-0.64c-0.94-0.17-1.88-0.44-2.83-0.48
	c-1.94-0.1-3.78-0.68-5.63-1.16c-2.32-0.6-4.54-1.5-6.54-2.9c-2.3-1.61-3.93-3.71-4.92-6.33c-1.08-2.86-1.69-5.82-1.83-8.87
	c-0.2-4.35,0.45-8.6,1.57-12.78c0.25-0.92,0.49-1.85,0.83-2.75c0.4-1.08,0.51-2.18,0.43-3.3c-0.17-2.23-0.37-4.46-0.56-6.68
	c-0.08-0.95-0.26-1.91-0.27-2.86c-0.05-4.33-0.79-8.59-1.33-12.86c-0.62-4.9-1.5-9.78-2.69-14.59c-0.34-1.36-0.88-2.61-1.67-4.75
	c-0.06,2.06-0.19,3.17-0.12,4.28c0.33,5.28,0.03,10.54-0.19,15.81c-0.05,1.27-0.23,2.54-0.41,3.81c-0.28,2.02-0.61,4.04-0.98,6.52
	c-0.19-0.93-0.35-1.39-0.36-1.86c-0.12-3.2-0.55-6.37-0.76-9.55c-0.59-9.2-3-17.92-6.48-26.4c-1.52-3.69-3.09-7.36-4.67-11.03
	c-0.11-0.26-0.45-0.41-0.68-0.62c-0.05-0.11-0.1-0.23-0.17-0.33c-0.04-0.05-0.12-0.08-0.19-0.11c0.16,0.1,0.32,0.21,0.48,0.31
	c-0.47,2.72-0.09,5.39,0.38,8.06c0.22,1.25,0.54,2.5,0.15,3.82c-0.2-0.17-0.46-0.28-0.53-0.46c-1.18-3.3-2.38-6.59-3.49-9.91
	c-2.8-8.33-6.52-16.24-10.62-23.99c-2.31-4.36-4.66-8.71-6.94-13.09c-1.85-3.54-3.31-7.23-4.09-11.18c-0.25-1.25-0.6-2.48-0.95-3.7
	c-0.08-0.26-0.36-0.47-0.59-0.74c-0.12,0.5-0.29,0.95-0.32,1.42c-0.42,5.89-1.37,11.69-2.61,17.46c-0.71,3.29-1.75,6.45-2.95,9.57
	c-1.13,2.97-2.31,5.94-3.91,8.7c-0.31,0.54-0.73,1.02-1.09,1.53l0.12,0.11c-0.11-1.28-0.11-2.54,0.1-3.82
	c0.94-5.56,1.68-13.38,1.77-19.03c0.05-3.03,0.11-6.05,0.05-9.09c-0.09-4.97-0.73-9.86-1.62-14.73c-0.95-5.17-2.03-10.33-2.88-15.51
	c-0.75-4.56-1.49-9.13-1.31-13.8c0.1-2.55,0.08-5.11,0.07-7.66c0-0.44-0.23-0.88-0.35-1.34c-0.86,0.48-0.95,1.34-1.19,2.06
	c-1.54,4.53-3.39,8.95-5.34,13.31c-1.11,2.47-2.21,4.94-3.8,7.14l0.13,0.15c-0.18-1.13,0.02-2.2,0.4-3.29
	c2.22-6.5,4.15-13.09,5.69-19.79c0.61-2.64,1.59-5.21,1.55-8.18c-0.42-0.83-0.83-1.88-1.45-2.79c-1.92-2.8-3.15-5.91-4.3-9.07
	c-0.87-2.4-1.7-4.81-2.59-7.21c-0.16-0.43-0.48-0.81-0.73-1.21c-0.97,0.48-1.33,1.39-1.85,2.17c-3.92,5.84-8.04,11.54-12.48,17
	c-6.05,7.46-12.52,14.52-19.69,20.93c-3.7,3.31-7.56,6.41-11.69,9.16c-0.67,0.44-1.32,0.89-1.64,1.72c3.08,3.65,5.92,7.5,8.37,11.64
	c0.91,1.53,1.53,3.13,1.91,4.87c0.61,2.82,0.82,5.68,1.19,8.53c0.64,4.93,0.66,9.88,0.61,14.83c-0.02,2.23-0.22,4.46-0.38,7.49
	c1.38,4.66,3.96,9.57,7.39,14.05c1.65,2.16,3.43,4.22,5.14,6.33c1.31,1.61,2.61,3.23,3.9,4.86c3.91,4.99,4.77,10.68,3.81,16.77
	c-0.85,5.4-2.64,10.52-4.78,15.53c-0.94,2.2-1.91,4.4-2.88,6.58c-3.39,7.6-6.13,15.44-8.34,23.46c-1.9,6.93-3.79,13.86-5.69,20.78
	c-0.34,1.23-0.66,2.47-1.1,3.67c-0.83,2.23-1.16,4.66-2.66,6.64c-2.5,3.31-4.87,6.69-8.14,9.38c-4.25,3.51-8.91,6.22-14.12,7.93
	c-2.72,0.89-5.52,1.59-8.32,2.23c-2.64,0.6-5.33,0.99-7.99,1.53c-2.7,0.55-5.4,0.54-8.1,0.07c-2.36-0.41-4.75-0.67-7.03-1.45
	c-0.45-0.15-0.93-0.23-1.38-0.38c-3.34-1.08-5.92-3.07-7.44-6.3c-0.41-0.86-0.82-1.72-1.18-2.47c-0.74-0.75-1.53-0.69-2.32-0.53
	c-4.17,0.84-7.82,2.71-10.98,5.54c-0.69,0.61-1.2,1.48-2.26,1.56c-0.08-0.31-0.28-0.63-0.23-0.91c1.8-9.14,5.62-17.27,12.06-24.09
	c0.66-0.7,1.2-1.5,1.9-2.16c1.41-1.33,2.51-2.85,3.42-4.58c0.74-1.4,1.72-2.69,2.69-3.96c1.95-2.56,4.64-3.9,7.79-4.19
	c1.74-0.16,3.51-0.03,5.27-0.01c1.64,0.02,3.07,0.77,4.46,1.29c0.77-0.12,1.28-0.44,1.67-0.99c1.4-1.95,2.84-3.87,4.23-5.82
	c0.46-0.65,0.88-1.33,1.26-2.04c5.04-9.46,9.55-19.15,12.78-29.4c1.4-4.43,2.46-8.92,3.23-13.5c0.41-2.45,0.15-4.77-0.73-7.05
	c-1.9-4.93-4.16-9.69-6.76-14.28c-4.33-7.67-9.37-14.87-14.55-21.97c-2.55-3.49-5.08-6.98-7.62-10.47c-3.11-4.27-5.88-8.75-8.2-13.5
	c-0.2-0.42-0.47-0.83-0.79-1.16c-0.15-0.15-0.51-0.1-0.8-0.15c-0.23,1.09-0.46,2.16-0.72,3.38c-0.27-0.32-0.53-0.48-0.55-0.67
	c-0.47-4.11-0.9-8.23-1.36-12.42c-1,0.67-1.22,1.61-1.29,2.55c-0.09,1.11-0.05,2.24-0.07,3.35c-0.03,1.6-0.04,3.2-0.12,4.79
	c-0.02,0.45-0.26,0.89-0.42,1.42c-0.95-1.15-0.64-2.52-0.97-3.72c-0.34-1.23-0.51-2.5-0.73-3.76c-0.22-1.26-0.46-2.51-0.61-3.78
	c-0.14-1.23-0.26-2.45-0.67-3.76c-0.81,1.45-0.36,3.02-1.07,4.31c-0.09-0.04-0.24-0.05-0.26-0.12c-0.11-0.29-0.27-0.6-0.27-0.9
	c0.04-2.71-0.24-5.43,0.07-8.14c0.22-1.89,0.48-3.77,0.71-5.52c-0.23-0.4-0.5-0.42-0.8-0.12c-0.69,0.66-1.33,1.38-2.04,2.01
	c-0.18,0.16-0.57,0.07-0.86,0.1l0.11,0.09c0.11-0.62,0.08-1.3,0.34-1.85c3.27-6.86,4.72-14.23,6.12-21.61
	c0.86-4.55,1.4-9.16,2.25-13.71c1.17-6.28,2.62-12.5,4.34-18.65c3.19-11.41,7.38-22.45,12.31-33.21c0.33-0.73,0.73-1.44,0.95-2.2
	c0.89-3.11,2.56-5.84,4.13-8.62c5.65-10.04,10.63-20.4,14.86-31.11c2.65-6.7,4.85-13.54,6.08-20.64c0.82-4.72,1.49-9.47,1.33-14.29
	c-0.17-5.13-0.93-10.17-2.24-15.13c-0.57-2.16-1.04-4.35-1.66-6.5c-0.89-3.08-1.09-6.29-1.79-9.41c-0.14-0.62-1.02-0.9-1.51-0.47
	c-0.12,0.1-0.28,0.17-0.38,0.28c-1.22,1.27-2.47,2.51-3.64,3.82c-5.55,6.23-11.8,11.69-18.41,16.76
	c-5.2,3.99-10.35,8.04-15.71,11.25c-1.03,1.4-0.68,2.75-0.95,3.98c-0.24,1.09-0.43,2.2-0.51,3.31c-0.23,3.04-0.95,5.99-1.63,8.95
	c-0.43,1.86-1.02,3.7-1.68,5.49c-1.12,3.04-1.68,6.15-1.59,9.39c0.05,1.76-0.01,3.52,0.01,5.28c0.04,3.79-0.99,7.27-3.12,10.4
	c-1.89,2.77-3.8,5.54-5.87,8.17c-1.98,2.5-4.13,4.88-6.32,7.21c-1.42,1.51-3.03,2.83-4.58,4.21c-0.21,0.18-0.56,0.2-0.84,0.3
	c-0.09-0.29-0.32-0.62-0.26-0.87c0.34-1.39,0.79-2.76,1.12-4.16c0.88-3.73,1.83-7.44,1.66-11.34c-0.13-2.83,0.85-5.31,2.7-7.48
	c1.24-1.45,2.69-2.76,3.49-4.89c0.29-1.14,0.29-2.55-0.07-3.92c-1.92-2.2-3.81-4.36-5.68-6.53c-0.42-0.48-0.77-1.01-1.18-1.5
	c-0.09-0.12-0.26-0.19-0.4-0.25c-0.14-0.06-0.29-0.08-0.54-0.14c-1.28,0.83-2.61,1.69-3.94,2.55c-1.19,3.21-2.54,6.26-4.1,9.24
	c-1.18,2.25-1.98,4.73-2.47,7.24c-0.74,3.71-0.37,7.31,1.5,10.69c0.7,1.25,1.49,2.49,1.91,3.84c1.34,4.29,2.98,8.43,5.28,12.29
	c0.04,0.06-0.06,0.27-0.15,0.34c-0.11,0.08-0.32,0.15-0.41,0.1c-1.38-0.75-2.76-1.53-4.16-2.31c-0.21,1.39-0.12,1.9,1.23,5
	c0.7,1.6,1.55,3.14,2.34,4.71c-0.09,0.1-0.22,0.32-0.31,0.31c-0.3-0.05-0.62-0.13-0.87-0.29c-3.52-2.28-6.54-5.11-9.14-8.4
	c-0.69-0.87-1.46-1.69-2.24-2.49c-0.18-0.18-0.55-0.18-0.89-0.27c-0.88,3.32-0.47,6.68-0.17,10c0.3,3.3,0.93,6.57,1.46,10.17
	c-2.21-1.89-3.57-4.02-4.69-6.31c-1.13-2.3-2.03-4.68-2.85-7.11c-0.33-0.99-0.36-2.21-1.46-2.88c-0.71,1.37-0.44,2.83-0.45,4.24
	c0,1.28,0.23,2.55,0.2,3.83c-0.03,1.42,0.81,2.75,0.44,4.33c-0.44-0.37-0.91-0.6-1.11-0.97c-2.18-3.93-3.88-8.07-4.96-12.43
	c-1.62-6.51-3.06-13.06-4.31-19.66c-0.75-3.96-0.75-7.95-0.12-11.92c0.4-2.52,0.96-5.02,1.4-7.54c0.25-1.47,0.91-2.71,1.78-3.88
	c1.9-2.57,3.81-5.14,5.66-7.74c1.57-2.22,3.19-4.41,4.55-6.75c1.87-3.19,3.97-6.2,6.42-8.94c4.18-4.69,7.66-9.82,10.4-15.47
	c0.49-1,1.07-1.97,1.61-2.94c3.29-5.86,5.95-12.02,8.57-18.2c1.24-2.93,2.24-5.98,3.16-9.04c2.58-8.57,5.59-16.99,8.82-25.33
	c1.33-3.43,2.98-6.71,4.9-9.86c2.08-3.41,4.4-6.66,6.77-9.89c2.33-3.17,5.27-5.54,8.72-7.34c0.99-0.52,2.02-0.96,2.97-1.41
	c0.52-0.58,0.58-1.2,0.39-1.83c-1.63-5.53-2.45-11.23-3.34-16.91c-0.12-0.79-0.21-1.59-0.24-2.38c-0.16-5.91-0.42-11.81-0.23-17.73
	c0.16-4.99,0.98-9.85,2.08-14.68c1.88-8.29,4.64-16.27,8.64-23.8c1.65-3.11,3.51-6.06,5.93-8.68c2.71-2.93,5.13-6.12,8.28-8.65
	c1.15-0.92,1.85-2.19,2.23-3.62c0.75-2.77,1.43-5.56,2.5-8.24c0.13-0.33-0.23-0.87-0.43-1.53c0.47-0.59,1.02-1.35,1.64-2.06
	c1.38-1.57,2.56-3.27,3.54-5.11c0.32-0.6,0.35-1.21,0.17-1.85c0.12-0.01,0.25,0,0.36-0.04c0.07-0.02,0.12-0.12,0.18-0.18
	c-0.14,0.12-0.28,0.23-0.41,0.35c-0.45,0.15-0.9,0.3-1.34,0.45c-0.02-1.41,0.23-2.21,1.76-4.56c0.86-1.33,1.83-2.6,2.86-3.8
	c1.13-1.32,2.39-2.53,3.52-3.71c-0.09-0.63-0.16-1.07-0.25-1.67c0.76-0.69,1.61-1.4,2.39-2.17c1.35-1.34,2.75-2.66,3.96-4.12
	c1.78-2.15,2.73-4.65,2.54-7.49c-0.07-1.1-0.14-2.22-0.36-3.3c-0.07-0.36-0.6-0.64-0.91-0.94c-0.9,0.53-0.81,1.91-2.04,1.96
	c-0.48-0.71-0.32-1.48-0.16-2.23c0.24-1.09,0.44-2.18,0.07-3.28c-0.04-0.13-0.15-0.28-0.27-0.33c-0.35-0.15-0.68-0.07-0.81,0.22
	c-0.84,1.88-1.65,3.77-2.52,5.64c-0.1,0.21-0.51,0.28-0.77,0.42l0.11,0.11c-0.41-2.41,0.14-4.77,0.36-7.15
	c-0.28-0.85-0.97-1.16-1.78-1.37c-2.63-0.67-5.22-1.45-7.67-2.66c-1.15-0.57-2.27-1.16-3.33-2.18c-1.14-2.16-1.58-4.67-1.97-7.19
	c-0.22-1.42-0.35-2.85-0.59-4.27c-0.17-0.96-0.19-1.89,0.02-2.85c0.32-1.42,0.25-2.83-0.05-4.27c-0.26-1.24-0.39-2.52-0.47-3.8
	c-0.11-1.6-0.29-3.17-0.66-4.73c-0.29-1.23-0.41-2.52-0.48-3.79c-0.09-1.9,0.14-3.84-0.77-5.63c-0.3-2.87-0.42-5.74,0.15-8.59
	c0.09-0.46,0.32-0.9,0.54-1.32c0.4-0.74,1.03-1.26,1.87-1.32c1.26-0.1,2.53-0.09,3.9-0.13c1.35-1.13,2.35-2.56,2.96-4.22
	c0.33-0.9,0.29-1.89-0.51-2.74c-1.51-0.42-3.1,0.08-4.67-0.03c-1.47-0.11-1.51-0.07-3.64-1.32c0.45-0.2,0.82-0.37,1.2-0.52
	c1.33-0.54,2.73-0.94,3.97-1.64c3.1-1.74,3.08-2.05,3.2-5.23c0.28-7.02,0.87-14,2.61-20.85c0.99-3.9,2.63-7.52,4.3-11.14
	c0.13-0.28,0.39-0.5,0.6-0.74c0.77-0.89,2.28-0.83,2.91,0.11c0.26,0.4,0.56,0.79,0.71,1.23c1.22,3.48,2.98,6.71,4.75,9.93
	c2.08,3.79,4.56,7.3,7.31,10.71c0.51-0.12,0.98-0.15,1.37-0.35c0.57-0.29,1.08-0.68,1.6-1.05c2.89-2.04,5.93-3.76,9.42-4.58
	c0.44-0.1,0.82-0.45,1.24-0.7c-0.27-0.24-0.45-0.5-0.69-0.61c-4.56-1.89-7.99-5.21-11.22-8.78c-0.18-0.2-0.16-0.58-0.23-0.88
	l-0.03,0.03c0.66-0.2,1.24,0,1.83,0.28c5.11,2.44,10.59,3.51,16.12,4.39c1.09,0.17,2.22,0.1,3.33,0.07
	c0.19-0.01,0.55-0.44,0.52-0.62c-0.11-0.62-0.32-1.22-0.56-1.81c-0.97-2.38-1.57-4.86-1.86-7.41c-0.03-0.3,0.11-0.62,0.17-0.95
	c0.25,0.09,0.59,0.1,0.72,0.27c0.65,0.91,1.25,1.85,1.84,2.79c1.36,2.19,3.04,4.11,5.06,5.71c0.18,0.14,0.59,0.04,0.87-0.02
	c0.11-0.02,0.25-0.26,0.25-0.39c-0.04-0.79-0.12-1.58-0.19-2.37c-0.32-3.69-0.23-7.34,0.72-10.95c0.2-0.77,0.26-1.57,0.47-2.9
	c0.24,1.77,0.39,3.03,0.6,4.28c0.34,2.09,1.21,3.98,2.32,5.74c0.93,1.48,2.01,2.89,3.09,4.27c1.18,1.51,2.45,2.95,3.68,4.42
	c2.06,2.46,3.83,5.12,5.43,7.89c0.31,0.54,0.69,1.05,1.43,1.25c1.18-0.68,2.43-1.36,3.64-2.11c0.54-0.33,1.03-0.77,1.51-1.18
	c0.48-0.42,0.96-0.85,1.39-1.32c0.65-0.7,1.3-1.42,1.9-2.16c0.5-0.62,0.97-1.27,1.39-1.95c0.68-1.08,1.35-2.18,1.94-3.31
	c1.26-2.41,2.36-4.89,2.98-7.56c0.18-0.76,0.54-1.5,0.88-2.21c0.39-0.82,1.74-1.18,2.5-0.65c0.65,0.45,1.32,0.92,1.83,1.51
	c3.5,4.09,5.72,8.86,7.01,14.03c1.16,4.65,2,9.37,2.27,14.18c0.16,2.87,0.39,5.73,0.63,8.59c0.06,0.67,0.51,1.23,1.13,1.44
	c3.34,1.13,6.78,1.83,10.31,1.99c1.76,0.08,3.51,0,5.23-0.48c0.59-0.17,1.26-0.28,1.84,0.15c-0.03,0.1-0.02,0.27-0.09,0.31
	c-3.03,1.5-6.27,2.43-9.54,3.03c-2.81,0.51-5.68,0.95-8.57,0.86c-0.48-0.01-0.97-0.02-1.43,0.09c-0.83,0.19-1.42,0.68-1.63,1.67
	c0.1,0.35,0.16,0.85,0.38,1.25c1.85,3.43,2.65,7.17,3.37,10.95c0.45,2.35,0.71,4.75,1.3,7.07c2.3,9.17,6.6,17.25,13.15,24.14
	c4.81,5.07,10.53,8.79,16.76,11.82c1.57,0.76,3.16,1.48,5.08,2.38c-0.74,0.2-1.15,0.46-1.49,0.39c-5.19-1.01-10.26-2.41-15.03-4.73
	c-3.89-1.89-7.63-4.03-11.2-6.47c-0.51-0.35-0.93-0.91-1.64-0.83c-0.34,0.14-0.49,0.38-0.42,0.72c2.86,14.83,8.41,28.46,17.99,40.29
	c0.5,0.61,0.92,1.29,1.35,1.96c0.06,0.09,0.02,0.29-0.04,0.38c-0.09,0.12-0.27,0.28-0.38,0.26c-1.28-0.19-2.4-0.82-3.56-1.35
	c-1.44-0.67-2.85-1.42-4.3-2.07c-0.18-0.08-0.52,0.2-0.82,0.33c0.94,2.74,2.48,5.18,3.78,7.3c0.44,1.75,0.67,3.18,1.16,4.52
	c1.78,4.96,1.87,10,0.84,15.11c-0.03,0.15,0.02,0.32,0.03,0.49c0.43,0.91,1.32,1.34,2.07,1.92c1.9,1.46,3.79,2.93,5.7,4.39
	c2.6,1.99,4.42,4.58,5.79,7.52c1.36,2.91,2.43,5.92,3.16,9.04c1.89,8.08,3.86,16.15,5.22,24.36c0.78,4.73,1.66,9.44,2.48,14.16
	c0.08,0.47,0.13,0.95,0.16,1.43c0.55,8.61,1.38,17.23,0.67,25.85c-0.4,4.77-0.33,9.59-1.35,14.3c-0.13,0.62-0.17,1.27-0.21,1.91
	c-0.53,8.65-2.2,17.09-4.38,25.46c-2.5,9.59-5.35,19.07-8.91,28.33c-1.09,2.83-2.24,5.64-3.44,8.43c-0.63,1.48-1.57,2.78-2.73,3.91
	c-2.66,2.61-5.61,4.66-9.3,5.66c-3.9,1.05-7.58,0.74-11.2-0.93c-0.58-0.27-1.14-0.57-1.71-0.86c-1.75-0.86-3.24-2.03-4.35-3.67
	c-0.44-0.66-0.94-1.28-1.4-1.89c-0.35,0.09-0.7,0.08-0.88,0.25c-0.21,0.2-0.37,0.55-0.4,0.84c-0.33,3.99-0.42,7.96,0.19,11.95
	c0.78,5.11,2.46,9.91,4.61,14.57c1.54,3.34,3.22,6.61,4.79,9.94c5.78,12.3,11.06,24.81,15.32,37.73c0.8,2.42,1.51,4.87,2.25,7.28
	c0.24,0.27,0.41,0.56,0.67,0.74c9.05,6.1,18.6,11.23,28.94,14.8c5.75,1.99,11.66,3.4,17.72,4.07c2.07,0.23,4.04,0.78,6.14,1.33
	c-0.31,0.17-0.5,0.35-0.71,0.38c-5.56,0.69-11.14,1.03-16.74,0.83c-2.39-0.09-4.78-0.34-7.16-0.49c-1.44-0.09-2.87-0.13-4.31-0.14
	c-0.21,0-0.45,0.27-0.62,0.46c-0.05,0.06,0.03,0.34,0.13,0.43c0.48,0.42,0.99,0.81,1.5,1.19c4.03,3.04,7.08,6.9,9.38,11.37
	c1.54,2.99,2.78,6.1,3.89,9.27c1.53,4.37,3.04,8.75,4.54,13.14c3.21,9.42,7.53,18.31,12.65,26.83c3.22,5.35,6.61,10.57,10.45,15.5
	c2.26,2.91,4.66,5.69,7.23,8.32c0.89,0.91,1.67,1.92,2.44,2.94c0.14,0.18-0.02,0.58-0.05,0.89L309.04,530.25z"/>
<path d="M11.82,290.93c0.36,0.01,0.64,0.18,0.67,0.51c0.03,0.27-0.01,0.59-0.14,0.81c-0.09,0.14-0.35-0.09-0.4-0.5
	c-0.04-0.3-0.02-0.61-0.02-0.92C11.92,290.84,11.82,290.93,11.82,290.93z"/>
<path d="M53.64,524.37c0,0.3,0.02,0.59-0.01,0.89c-0.02,0.14-0.12,0.38-0.21,0.39c-0.36,0.04-0.52-0.22-0.32-0.58
	c0.13-0.24,0.43-0.4,0.65-0.6C53.75,524.47,53.64,524.37,53.64,524.37z"/>
<path d="M308.93,530.38c0.88-0.26,1.53,0.07,2.01,0.8l0.11-0.12c-0.81,0.07-1.56,0-2.02-0.81L308.93,530.38z"/>
<path d="M130.64,12.81c-0.39,0.09-0.6-0.02-0.61-0.31c0.1,0.01,0.24-0.02,0.29,0.03c0.09,0.11,0.14,0.27,0.2,0.4L130.64,12.81z"/>
<path d="M131.51,13.87c-0.84-0.22-0.84-0.22-0.87-1.06l-0.13,0.12c0.57,0.08,1.07,0.23,0.96,0.98L131.51,13.87z"/>
<path d="M115.14,118.42c-0.05,0.11-0.1,0.22-0.15,0.33c0.09-0.07,0.18-0.15,0.26-0.22L115.14,118.42z"/>
<path d="M166.05,521.56c-0.05,0.13-0.07,0.34-0.15,0.37c-0.77,0.26-0.38-0.07-0.11-0.25c0.08-0.06,0.26,0.02,0.4,0.04
	C166.18,521.71,166.05,521.56,166.05,521.56z"/>
<path d="M310.94,531.17c0.08,0.07,0.15,0.14,0.23,0.21c-0.04-0.11-0.08-0.22-0.12-0.32L310.94,531.17z"/>
<path d="M180.44,583.9c-0.06,0.09-0.13,0.19-0.19,0.28c0.1-0.06,0.21-0.11,0.31-0.17L180.44,583.9z"/>
<path d="M317.66,594.56c0.39,0.1,0.54,0.27,0.44,0.5c-0.09-0.06-0.23-0.09-0.26-0.17c-0.06-0.13-0.04-0.29-0.06-0.44L317.66,594.56z
	"/>
<polygon points="7.06,208.42 7.28,208.55 7.2,208.28 "/>
<path d="M7.2,208.28c-0.62-0.05-1.01-0.34-1-1.01l-0.12,0.12c0.33,0.35,0.65,0.69,0.98,1.04L7.2,208.28z"/>
<path class="st0" d="M104.76,95.15c-0.96-6.33-1-9.91-0.18-12.61c0.21,0.09,0.12,0.27,0.12,0.41c0,1.79,0.5,3.49,0.92,5.22
	c0.47,1.93,1.22,3.71,2.17,5.43c0.01,0.02,0.21,1.17,0.21,1.19C107.5,95.47,105.06,95.34,104.76,95.15z"/>
<path class="st0" d="M102.72,91.33c-0.58-1.35-1.1-2.68-1.38-4.11c-0.28-1.4-0.63-2.79-1.01-4.45c0.87,0.99,1.72,1.56,2.78,2.01
	C102.77,86.93,102.74,89.13,102.72,91.33z"/>
<path class="st0" d="M112.35,84.7c0.28,1.8-1.11,3.88-1.8,5.59c-0.43-1.71-0.78-4.12-1.15-5.59C110.46,84.7,111.38,84.7,112.35,84.7
	z"/>
<path class="st0" d="M108.26,92.04c-0.63-2.21-1.43-4.36-1.77-6.64c0.54,0,1.14,0,1.77,0C108.26,87.62,108.26,89.83,108.26,92.04z"
	/>
<path class="st0" d="M101.26,91.91c0.51-0.16,0.38,0.38,0.54,0.56c0.42,0.49,0.7,1.1,1.06,1.69
	C102.04,94.27,101.67,93.71,101.26,91.91L101.26,91.91z"/>
<path class="st0" d="M111.23,95.91c-0.62,0-1.13,0-1.7,0c-0.07-0.79,0.21-3.66,0.36-4.17C110.47,91.95,110.81,95.58,111.23,95.91z"
	/>
<path class="st0" d="M101.26,91.91c-0.21-0.15-0.19-0.32-0.05-0.56C101.4,91.57,101.36,91.74,101.26,91.91
	C101.26,91.91,101.26,91.91,101.26,91.91z"/>
</svg>
