<?xml version="1.0" encoding="utf-8"?>
<!-- Generator: Adobe Illustrator 24.0.2, SVG Export Plug-In . SVG Version: 6.00 Build 0)  -->
<svg version="1.1" id="Layer_1" xmlns="http://www.w3.org/2000/svg" xmlns:xlink="http://www.w3.org/1999/xlink" x="0px" y="0px"
	 viewBox="0 0 648.11 747.86" style="enable-background:new 0 0 648.11 747.86;" xml:space="preserve">
<path d="M327.92,597.95c0.13,0.04,0.27,0.08,0.4,0.13c-0.09-0.08-0.19-0.16-0.28-0.25L327.92,597.95z"/>
<g>
	<path d="M220.03,745.86c-0.54,0-0.93,0.17-1.27-0.03c-3.76-2.1-7.09-5.45-9.28-11.67c-0.78-2.22-1.99-2.18-3.07-2.9
		c-0.23-0.16-0.62,0.18-0.88,0.47c-0.88,0.95-1.73,1.96-2.75,3.12c0.96,4.59,3.04,7.93,4.5,12.49c-0.56,0.23-0.93,0.61-1.25,0.51
		c-2.25-0.8-4.5-1.7-6.74-2.59c-2.97-1.18-5.29-4.56-7.65-7.8c-0.37-0.52-0.72-1.17-1.15-1.48c-2.5-1.83-4.45-5.05-6.49-8.49
		c-0.67,0.34-1.42,0.71-2.23,1.13c0.39,4.05,2.01,6.63,3.25,10.14c-0.57-0.23-1.02-0.23-1.36-0.58c-0.97-0.98-1.97-1.98-2.84-3.21
		c-2.52-3.55-5.16-6.88-7.21-11.41c-0.95-2.11-1.7-4.55-2.46-6.92c-0.38-1.19-0.87-2.62-0.81-3.85c0.11-2.14,0.51-4.27,0.96-6.3
		c0.82-3.73,2.28-6.68,3.8-9.48c0.35-0.63,0.98-0.8,1.5-1.09c1.27-0.67,2.27-1.72,2.8-4.24c1.26-5.91,3.74-10.14,6.23-14.26
		c1.72-2.85,3.65-5.25,5.91-6.48c1.68-0.91,3.37-1.81,5.08-2.33c4.86-1.45,8.78-5.75,12.09-12.38c2.15-4.33,4.5-8.32,6.8-12.4
		c4.41-7.85,7.5-17.04,8.67-28.23c0.45-4.31,1.19-8.58,1.33-12.92c0.34-9.91,0.61-19.82-0.38-29.73
		c-1.13-11.32-3.91-21.32-6.85-31.23c-4.37-14.73-9.7-28.25-15.46-41.25c-2.87-6.48-5.7-13.02-8.61-19.44
		c-0.88-1.94-1.4-4.68-3-5.32c-0.09-0.04-0.22-0.47-0.2-0.69c0.17-2.07-0.77-3.1-1.3-4.44c-2.52-6.43-5.16-12.68-7.63-19.16
		c-3.57-9.35-6.62-19.28-9.3-29.56c-0.74-2.86-1.08-6.08-1.75-10c-0.72-0.74-1.88-1.98-3.06-3.12c-6.61-6.33-12.79-13.84-18.4-22.85
		c-3.98-6.37-7.58-13.43-10.61-21.41c-0.5-1.32-1.03-2.6-1.55-3.91c-5.31-1.26-10.29-4.25-14.95-8.94
		c-4.6-4.62-8.3-11.26-11.93-18.78c-3.46,14.38-1.64,27.19,2.26,39.93c-9.77-12.75-18.14-34.12-17.61-64.62
		c-2.84,0.23-5.66,0.63-8.48,0.66c-2.87,0.01-5.73-0.47-8.6-0.51c-2.89-0.05-5.71-0.79-8.53-1.79c-2.79-0.98-5.59-1.93-8.92-3.07
		c0.88-0.56,1.22-0.89,1.58-0.98c1.81-0.45,3.62-1.17,5.42-1.17c3.06,0.01,6.05-0.62,9.01-1.87c2.72-1.14,5.44-2.24,8.13-3.54
		c1.07-0.52,2.09-1.45,3.11-2.27c0.34-0.27,0.63-0.75,1.27-1.54c-1.64-0.56-2.95-0.83-4.2-1.45c-4.47-2.22-8.86-4.81-12.95-8.94
		c-2.31-2.34-4.55-4.82-6.64-7.81c-3.6-5.14-6.29-11.59-8.48-18.82c-0.22-0.74-0.44-1.49-0.69-2.37c-1.97,2.8-2.66,6.96-3.85,10.66
		c-1.6-5.03-0.49-17.55,3.31-38.58c-3.41-6.18-7.53-11.43-10.05-20.22c0.8,0,1.26-0.14,1.67,0.03c1.09,0.47,2.2,0.87,3.22,1.66
		c2.04,1.57,4.22,1.45,6.33,2.11c0.73,0.22,1.53-0.34,2.62-0.62c-0.99-2.55-1.8-4.66-2.54-6.58c-5.96-1.81-11.47-5.12-16.4-11.12
		c-1.98-2.41-3.73-5.49-5.56-8.32c-0.5-0.78-0.97-1.36-1.69-1.35c-4.87,0.09-9.71-0.45-14.57-1.11c-5.98-0.82-11.78-2.97-17.55-5.74
		c-0.42-0.21-0.82-0.54-1.15-1.55c0.42,0,0.85-0.13,1.25,0.03c1.71,0.65,3.4,1.52,5.13,2.03c1.17,0.35,2.38,0.32,3.58,0.32
		c4.79,0.04,9.58,0.04,14.38,0c1.52-0.01,3.04-0.13,4.55-0.32c0.45-0.05,0.89-0.52,1.46-0.87c-1.19-2.95-2.95-4.97-3.08-8.87
		c-0.06-1.94,0.03-3.78,0.67-5.71c1-0.29,2.08-0.87,3.17-0.88c6.65-0.04,13.15-2.2,19.66-4.39c4.95-1.66,9.85-3.54,14.65-6.27
		c3.19-1.81,6.31-4.05,9.49-5.97c1.97-1.19,3.94-2.6,6.07-2.2c2.32,0.44,4.38-0.69,6.39-2.71c6.95-6.98,14.31-12.27,21.72-17.27
		c5.9-3.99,11.86-7.73,17.85-11.22c3.48-2.02,7.06-3.54,10.64-4.91c4.12-1.58,8.28-2.89,12.44-4.07c1.65-0.47,3.35-0.34,5.02-0.36
		c4.24-0.04,8.48,0,12.71-0.01c1.94,0,3.8,0.91,5.59,2.1c2.8,1.88,5.64,1.45,8.71,1.22c0.32-1.96,0.79-3.85,0.91-5.8
		c0.4-6.68,0.68-13.4,1.01-20.09c0.15-3.06,0.3-6.11,0.49-9.16c0.14-2.19,0.63-3.15,1.79-3.45c1.12-0.3,2.24-0.14,3.26,0.88
		c0.77,0.76,1.57,1.48,2.26,2.45c4.92,6.88,9.38,14.59,12.79,24.17c1,2.81,1.85,5.8,2.78,8.72c0.16,0.49,0.34,0.95,0.53,1.49
		c2.02,0.01,4,0.45,5.99-0.44c0.84-0.38,1.75-0.34,2.62-0.32c4.01,0.04,7.89-1.37,11.82-2.8c3.91-1.44,7.74-3.37,11.61-5.08
		c0.13-0.06,0.3,0.1,0.61,0.23c-0.25,2.41-1.37,3.74-2.09,5.86c0.6,0.4,1.15,0.98,1.73,1.14c3.36,0.89,6.48,3.15,9.52,5.71
		c6.24,5.26,12.28,11.23,18.05,18.06c4.71,5.57,9.03,12.03,12.76,19.83c2,4.17,4.24,7.94,6.4,11.85c2.04,3.69,3.96,7.58,6.27,10.8
		c4.09,5.73,8.67,9.28,13.64,11.22c3.2,1.26,6.45,1.94,9.74,1.46c0.39-0.05,0.79,0.06,1.18,0.17c0.14,0.04,0.27,0.29,0.57,0.62
		c-0.56,1.18-1.1,2.32-1.77,3.73c0.47,0.32,0.86,0.8,1.26,0.83c4.94,0.4,9.82,1.79,14.73,2.77c5.47,1.1,10.94,1.27,16.47,0.48
		c4.19-0.61,8.09-3.14,12.16-4.34c0.54-0.16,1.09-0.3,2.21-0.61c-3.14,4.18-6.4,5.64-9.38,8.49c1.96,0.91,3.72,1.85,5.51,2.53
		c2.03,0.76,4.09,1.2,6.12,1.93c2.66,0.95,5.31,1.97,7.95,3.08c2.66,1.13,5.34,1.61,8.06,1.58c6-0.05,12,0,17.99-0.03
		c3.12-0.01,6.2,0.62,9.28,1.5c2.99,0.86,6.01,1.31,9.01,2.02c2.76,0.66,5.54,1.28,8.28,2.22c5.81,1.96,11.62,3.74,17.56,3.38
		c3.03-0.18,6.08-0.03,9.11-0.32c4.37-0.44,8.75-1.01,13.11-1.77c4.27-0.74,8.56-1.32,12.77-3.08c2.95-1.23,5.93-2.2,8.88-3.47
		c5.31-2.29,10.3-6.19,15.21-10.47c1.01-0.88,2.01-1.81,3-2.76c6.85-6.58,10.94-16.94,12.83-30.66c0.85-6.19-0.09-11.18-1.85-16.13
		c-1.46-4.13-3.46-7.25-5.53-10.27c-5.63-8.21-11.93-14.09-18.76-18.12c-3.19-1.89-6.35-3.98-9.59-5.45
		c-4.01-1.83-8.07-3.3-12.14-4.53c-2.66-0.8-5.38-1.08-8.08-1.28c-2.71-0.21-5.42-0.04-8.14-0.05c-5.78-0.03-11.36,2.37-16.97,4.52
		c-5.37,2.06-10.72,4.18-16.2,5.23c-7.96,1.52-15.93,1.96-23.91,1.63c-5.48-0.22-11-0.84-16.29-3.85
		c-3.76-2.14-7.29-5.29-9.93-10.95c-0.59-1.27-1.23-2.14-2.1-2.68c-6.84-4.28-13.13-10.62-19.25-17.58
		c-4.64-5.27-8.8-11.65-12.85-18.3c-0.36-0.58-0.71-1.2-1.01-1.89c-3.8-8.69-8.53-15.36-13.64-21.21c-2.16-2.47-4.37-4.82-6.58-7.14
		c-0.72-0.75-1.53-1.24-2.28-2.44c0.49-0.06,0.99-0.28,1.47-0.17c4.19,1.01,8.28,2.89,12.37,4.88c7.39,3.6,14.75,7.46,22.22,10.35
		c5.13,2,10.44,2.76,15.72,1.98c6.19-0.92,12.35-2.09,18.44-4.64c3.95-1.66,7.99-2.66,12.05-3.3c5.83-0.92,11.66-0.45,17.48-0.45
		c5.18,0,10.37,0.52,15.55,0.84c0.7,0.05,1.4,0.38,2.52,0.69c-0.58-1-0.84-1.59-1.17-2c-3.82-4.61-7.33-9.88-10.29-16.3
		c-2.24-4.87-3.61-10.65-4.97-16.43c-0.04-0.17,0.11-0.51,0.27-1.13c1.06,0.74,2.16,1.4,3.22,2.27
		c10.44,8.63,21.31,14.81,32.4,19.89c6.19,2.84,12.43,5.19,18.76,6.56c6.25,1.35,12.52,2.67,18.84,1.75
		c3.89-0.57,7.79-0.96,11.67-1.65c1.97-0.35,3.92-1.18,5.88-1.79c5.05-1.58,10.12-2.2,15.23-1.06c1.18,0.27,2.4,0,3.59,0.23
		c5.3,1.04,10.55,2.51,15.74,4.94c4.73,2.2,9.37,4.75,13.83,8.38c3,2.44,5.85,5.31,8.54,8.82c3.53,4.6,6.79,9.73,9.8,15.43
		c0.86,1.62,1.75,3.17,2.89,5.25c-1.3-8.89-2.32-17.14-4.28-24.86c-1.43-5.64-3.18-10.87-5.87-14.77c-1.11-1.62-2.4-2.85-3.63-4.16
		c-0.65-0.7-1.36-1.19-2-2.15c1.43-0.67,2.83-0.65,4.23-0.4c5.65,1,10.82,4.79,15.84,9.35c9.43,8.55,17.51,20.29,24.48,34.73
		c3.04,6.3,5.68,13.06,7.89,20.38c2.65,8.8,4.4,18.19,5,28.2c0.14,2.28,0.02,4.61,0.02,8.01c0.65-1.5,0.97-2.09,1.19-2.79
		c2.32-7.37,4.39-14.96,5.42-23.36c0.87-7.14,0.87-14.24-0.34-21.22c-0.37-2.16-1.04-4.17-1.62-6.4c0.92-0.44,1.57,0.57,2.18,1.37
		c3.77,4.97,7.3,10.45,10.08,17.36c3.61,8.98,5.94,19.06,7.1,29.99c0.46,4.3,0.95,8.71,0.88,13.03c-0.09,5.51-0.23,11.06-0.96,16.53
		c-1.21,9.09-3.29,17.35-6.88,25.42c5.25-3.51,9.07-9.55,13.42-14.12c0.56,1.23,0.38,2.27,0.11,3.32
		c-1.8,6.87-3.58,13.78-5.98,20.04c-2.07,5.39-4.23,10.66-6.49,15.78c-3.4,7.68-7.57,13.82-12.03,19.33
		c-6.85,8.45-14.43,13.68-22.42,16.98c-2.48,1.02-5.03,1.46-7.55,2.18c-0.38,0.1-0.75,0.25-1.49,0.48c0.55,0.89,0.82,1.54,1.19,1.9
		c4.7,4.75,9.18,10.16,13.13,16.84c3.11,5.26,6.02,10.92,8.96,16.52c1.55,2.95,2.99,6.1,4.42,9.24c0.56,1.22,0.97,2.64,1.5,4.09
		c-0.93,0.87-1.42-0.36-1.96-1c-2.4-2.88-4.74-5.96-7.19-8.69c-4.72-5.27-9.77-9.3-14.95-12.71c-7.98-5.25-16.23-8.52-24.59-10.93
		c-3.77-1.09-7.53-2.37-11.31-3.33c-3.39-0.85-6.8-1.36-10.21-2.03c-1.35-0.27-2.69-0.62-4.03-0.86c-4.52-0.79-9.06-1.23-13.58-1.94
		c-8.05-1.26-16.1-1.37-24.16-1.27c-1.91,0.03-3.82,0.47-5.71,0.88c-3.55,0.79-7.09,1.59-10.61,2.98c-4.16,1.65-8.14,4.15-12.1,6.87
		c-1.03,0.7-2.04,1.5-3.18,2.34c0.35,1.32,0.58,2.38,0.89,3.36c3.92,11.94,4.63,24.82,3.09,38.18c-0.94,8.15-0.91,16.23-0.54,24.43
		c0.51,11.08,1.66,22.07,1.22,33.27c-0.09,2.22-0.22,4.31-0.71,6.4c-1.04,4.43-1.89,9.03-2.99,13.42
		c-1.03,4.12-2.28,8.04-3.43,12.05c-0.18,0.63-0.37,1.24-0.67,2.24c0.82,0.22,1.49,0.36,2.15,0.61c0.62,0.23,1.23,0.69,1.85,0.86
		c3.43,0.93,6.65,2.94,9.65,6.15c0.69,0.74,1.39,1.46,2.1,2.11c5.29,4.83,8.31,13.07,9.85,23.15c0.55,3.56,0.44,7.51,0.47,11.3
		c0.05,7.05-0.13,14.09-0.02,21.13c0.07,4.69,0.88,9.18,1.62,13.68c1.34,8.15,3,16.04,4.97,23.76c1.05,4.11,1.36,8.65,0.1,13.14
		c-0.77,2.76-1.95,4.59-3.32,6.15c-0.6,0.7-1.26,1.24-1.83,1.79c-0.96,4.21,0.39,8.15,0.21,12.83c-2.26-3.15-3.97-6.48-5.34-10.86
		c-1.28,0.56-2.57,1.11-4.06,1.76c0.29,2.07,0.56,4,0.83,5.92c0.26,1.8,0.52,3.6,0.85,5.88c-3.66-1.13-5.15-5.97-6.68-10.79
		c-0.7,0-1.4,0-2.13,0c-0.09,0.52-0.25,0.97-0.2,1.3c0.27,1.67,0.6,3.32,0.9,4.97c0.37,2.05,0.72,4.11,1.21,6.85
		c-2.36-2.27-3.6-5.44-4.82-8.61c-0.6-1.55-1.08-3.26-1.71-4.77c-0.22-0.53-0.71-0.67-1.24-1.13c-0.36,4.78,1.57,8.34,1.35,12.83
		c-1.23-0.31-1.79-1.87-2.34-3.17c-2.12-4.99-4-10.2-5.09-16.31c-0.51-2.84-0.76-5.66-0.83-8.59c-0.09-3.78-0.24-7.55-0.29-11.34
		c-0.03-2.03,0.1-4.08,0.16-6.13c0.04-1.46,0.12-2.91,0.14-4.38c0.07-6.89,0.07-13.8,0.18-20.69c0.08-5.12,0.31-10.22,0.46-15.34
		c0.02-0.58-0.02-1.18,0.01-1.76c0.18-3.82-0.69-6.37-2.62-7.94c-1.75-1.41-3.45-3.06-5.11-4.78c-1.36-1.4-2.72-1.41-4.17-0.76
		c-3.03,1.35-6.11,1.93-9.23,2.11c-3.11,0.17-5.97-1.3-8.76-3.74c-7.12-6.27-12.37-16.21-16.86-27.9
		c-4.18-10.89-6.41-23.15-8.13-35.85c-0.4-2.97-0.58-6.04-0.83-9.08c-0.44-5.34-0.85-10.67-1.29-16.25
		c-1.46,0.4-2.72,1.55-4.14,2.76c0.23,0.88,0.34,1.74,0.62,2.32c2.35,4.81,3.95,10.32,4.56,16.66c0.61,6.35,1.21,12.84,0.68,19.22
		c-0.57,6.84-1.98,13.17-4.62,18.49c-3.33,6.71-7.53,10.7-11.99,14.08c-2.74,2.07-5.58,3.41-8.47,4.55c-2.72,1.08-5.4,2.51-8.12,3.6
		c-1.78,0.71-3.6,1.09-5.49,1.65c-0.76,2-0.66,4.37-0.67,6.67c-0.02,5.84,0.94,11.22,2.29,16.44c0.92,3.58,1.74,7.24,2.47,10.96
		c0.71,3.59,1.16,7.36,1.05,11.19c-0.07,2.37,0.45,3.78,1.4,5.16c2.83,4.13,5.37,8.78,7.15,14.64c0.35,1.15,0.8,2.29,0.93,3.54
		c0.29,2.84,1.08,5.18,1.94,7.47c1.21,3.21,1.63,6.85,1.98,10.97c-2.6-2.15-4.65-6-7.55-5.87c-0.09,0.88-0.19,1.23-0.14,1.41
		c2.34,7.55,3.3,15.7,3.13,24.35c-0.03,1.59,0.14,3.2,0.14,4.81c-0.01,4.64-1.47,8.21-3.9,9.91c-2.11,1.48-4.23,2.59-6.52,2.33
		c-0.38-0.04-0.77,0.13-1.26,0.23c-0.28,4.15-0.22,8.16,0.11,12.11c-0.9,0.79-1.55,0.18-2.18-0.38c-3.1-2.79-6.08-5.84-8.23-11.06
		c-0.4-0.97-1.1-1.63-1.72-2.19c-0.71-0.63-1.49-1-2.24-1.48c-0.13,0.19-0.31,0.34-0.35,0.56c-0.87,4.99-2.92,7.81-5.3,10.18
		c-2.92,2.9-6,4.68-9.3,5.31c-0.62,0.12-1.24,0.31-1.92,0.49c-0.42,2.71-0.57,5.23,0.04,7.81c0.35,1.48,0.64,3.01,0.9,4.55
		c0.13,0.78,0.13,1.63,0.21,2.88c-5.97-2.29-10.43-7.81-13.48-16.82c-1.1-0.56-2.09-1.06-3.13-1.58c-1.38,1.43-2.81,2.91-4.39,4.56
		c1.47,5.34,3.7,9.91,5.73,14.83c-0.74,1.55-1.56,1.15-2.3,0.95c-1.81-0.52-3.62-1.05-5.4-1.79c-3.05-1.26-5.98-3.1-8.49-6.7
		c-1.12-1.61-2.23-3.28-3.35-4.88c-0.24-0.35-0.52-0.67-0.82-0.84c-3-1.71-5.2-5.58-7.5-9.21c-0.24-0.38-0.48-0.76-0.79-1.28
		c-0.88,0.36-1.79,0.73-2.86,1.17c0.75,5.18,2.55,8.99,4.71,13.19c-0.67-0.23-0.99-0.32-1.31-0.47c-0.15-0.08-0.28-0.28-0.42-0.4
		c-3.82-3.06-11.87-14.98-14.22-21.15c-2.89-7.58-3.3-13.91-0.2-22.79c1.62-4.64,3.75-8.37,6.12-11.66
		c3.31-4.6,6.69-8.99,10.03-13.52c2.15-2.91,3.99-6.39,5.14-10.84c1.27-4.88,2.52-9.81,3.58-14.86c1.25-6.01,2.29-12.16,3.39-18.28
		c0.17-0.93,0.14-1.98,0.23-3.26c-1.94,0-3.76,0.05-5.58-0.01c-6.75-0.23-12.88-3.71-18.05-11.94c-1.01-1.62-1.92-3.5-2.76-5.43
		c-2.8-6.46-4.88-13.74-6.96-21.01c-0.8-2.81-1.11-6.09-1.65-9.16c-0.22-1.24-0.43-2.49-0.67-3.82c-6.26-2.03-12.49-4.05-18.72-6.08
		c2.49,3.1,5.19,5.16,8.02,6.44c2.74,1.24,5.55,1.97,8.6,3.02c-0.44,0.86-0.68,1.77-1.03,1.92c-1.23,0.53-2.49,0.97-3.75,1.1
		c-1.66,0.18-3.33,0.04-5.33,0.04c0.37,0.98,0.52,1.65,0.78,2.05c2.3,3.48,4.17,7.67,5.88,12.11c1.67,4.35,2.82,9.17,3.47,14.38
		c0.05,0.43,0.21,0.87,0.17,1.27c-0.53,6.17,1.09,11.96,0.87,18.45c-2.97-7.8-6.18-14.82-10.05-20.75
		c-0.22-0.34-0.56-0.41-1.06-0.75c-0.04,4.81-0.34,9.26-1.52,13.29c-1.11,3.8-2.34,7.47-3.76,11.96c-0.23-5.4,0.9-10.07-0.36-14.61
		c-0.22,0.44-0.46,0.7-0.51,1.06c-0.79,5.64-1.88,11.13-1.84,17.11c0.04,5.96-0.1,11.94-0.31,17.89
		c-0.23,6.72-0.86,13.37-1.81,19.89c-0.99,6.78-2.04,13.54-3.21,20.22c-0.58,3.33-1.43,6.53-2.28,9.66
		c-0.43,1.61-0.49,2.98-0.12,4.57c0.73,3.1,1.36,6.27,2.12,9.33c1.8,7.19,3.61,14.37,5.52,21.47c0.7,2.6,1.69,4.96,2.51,7.45
		c1.16,3.48,1.37,7.45,1.58,11.37c0.07,1.27,0,2.73-0.28,3.89c-1.33,5.52-0.81,11.17-0.55,16.85c0.32,6.81,2.05,12.9,2.74,19.51
		c0.6,5.74,1.18,11.5,0.9,17.41c-0.16,3.33-0.28,6.65-0.44,10.52c-0.66-0.63-1.11-0.84-1.39-1.37c-1.15-2.23-2.25-4.55-3.37-6.83
		c-0.2-0.4-0.45-0.73-0.77-1.23c-1.97,11.62-4.82,22.23-7.91,32.63c-1.07,3.6-1.99,7.35-2.94,11.06c-0.19,0.76-0.36,1.68-0.31,2.49
		c0.39,6.37-0.51,12.1-2.38,17.42c-0.19,0.54-0.24,1.32-0.25,1.99c-0.02,2.47,0.03,4.96,0.01,7.44c-0.04,3.73-1.02,6.44-2.89,7.81
		c-1.54,1.14-3.16,1.96-4.86,1.94c-0.54,0-1.08,0.14-1.74,0.23c0,3.41,0,6.58,0,10.1c-0.49,0-0.91,0.23-1.2-0.04
		c-2.91-2.72-5.87-5.34-7.63-10.71c-0.87-0.49-1.7-0.97-2.52-1.44c-0.14,0.13-0.36,0.19-0.4,0.39c-1.42,5.88-4.32,8.33-7.31,10.48
		c-1.25,0.89-2.53,1.74-3.94,1.62c-0.69-0.06-1.4,0.48-2.1,0.75C217.85,738.09,219.22,741.71,220.03,745.86z M61.83,240.74
		c3.09,0.13,6.11,1.55,9.14-0.66c-2.06-1.61-3.93-3.07-5.91-4.62C64.03,237.13,62.93,238.93,61.83,240.74z"/>
</g>
</svg>
