<?xml version="1.0" encoding="utf-8"?>
<!-- Generator: Adobe Illustrator 24.1.3, SVG Export Plug-In . SVG Version: 6.00 Build 0)  -->
<svg version="1.1" id="Layer_1" xmlns="http://www.w3.org/2000/svg" xmlns:xlink="http://www.w3.org/1999/xlink" x="0px" y="0px"
	 width="553.81" height="2071.23" viewBox="0 0 553.81 2071.23" enable-background="new 0 0 553.81 2071.23" xml:space="preserve">
<g>
	<path d="M269.29,166.62c7.89,1.2,15.58,1.38,22.08,6.46c2.64-2.87,3.12-6.2,4.07-9.27c7.29-23.46,18.4-44.85,33.78-64.06
		c20.13-25.15,46.37-39.4,77.97-44c5.87-0.85,12.07-0.81,17.95,0.04c18.6,2.7,24.69,11.91,28.08,26.69
		c3.2,13.95,1.36,27.49-3.42,41.02c-6.41,18.14-17.58,32.35-31.75,45.1c-14.12,12.71-29.49,23.86-43.55,36.55
		c-12.74,11.5-23.03,24.93-27.99,41.74c-0.93,3.16-2.17,6.59-1.79,9.72c1.69,14.04-1.04,27.86-1.54,41.78
		c-0.25,6.95-1.03,13.94-2.32,20.77c-1.38,7.3-2.31,14.41,0.04,21.66c1.31,4.03-0.8,7.86-1.14,11.81c-0.48,5.6-1.55,11.19-2.8,16.68
		c-0.74,3.24-2.09,6.53-6.61,5.96c-2.47-0.31-3.41,1.65-4.56,3.24c-3.13,4.31-6.02,8.82-9.43,12.89c-2.45,2.93-4.67,6.52-8.54,7.14
		c-3.8-1.67-1.47-5.29-3.44-7.24c-3.19,0.33-5.69,1.49-6.57,5c-1.35,5.32-4.71,8.71-10.11,9.9c-2.7,0.6-4.77,2.07-6.76,3.96
		c-4.36,4.14-11.24,3.63-15.5,8.23c-0.56,0.61-2.56,0.11-3.81-0.2c-2.21-0.56-3.98-2.41-7.13-2.22
		c-2.01,14.38,0.27,27.98,6.74,41.06c1.97,3.99,5.56,5.7,9,7.54c12.92,6.92,26.47,12.49,39.97,18.14c6.75,2.82,13.5,5.69,20,9.02
		c5.95,3.05,11.26,7.11,15.04,12.81c1.47,2.22,3.44,4.71,2.35,7.34c-1.93,4.66,0.73,7.54,3.12,10.7c3.21,4.24,6.96,8.19,8.77,13.28
		c1.5,4.21,4.08,8.83-1.66,12.29c-1.14,0.69-0.75,2.3-0.88,3.63c-1.38,13.64,0.53,26.97,3.14,40.31c3.65,18.62,5.37,37.5,5.67,56.43
		c0.32,20.31,0.32,40.66-0.75,60.94c-0.97,18.53-3.56,36.97-5.44,55.45c-4.98,9.92-1.67,19.08,1.81,28.64
		c3.97,10.91,7.11,22.18,8.36,33.82c0.69,6.37,3.81,10.95,8.5,15.15c27.69,24.78,49.73,53.44,61.49,89.31
		c4.21,12.84,4.96,26.05,6.08,39.26c3.78,44.54,1.94,89.19,1.86,133.79c-0.06,30.94-4.21,61.65-10.69,91.91
		c-11.92,55.65-27.45,110.34-45.41,164.33c-10,30.05-21.96,59.27-38.81,86.27c-1.6,2.56-2.72,5.23-2.96,8.36
		c-0.67,8.7-4.72,16.12-10.74,21.97c-5.52,5.36-8.51,11.49-10.59,18.72c-8.64,30.04-18.23,59.81-26.38,89.97
		c-8.85,32.73-16.46,65.79-24.68,98.69c-4.27,17.1-8.89,34.1-15.99,50.32c-1.85,4.23-3.05,8.81-4.04,13.34
		c-8.55,38.96-14.99,78.28-20.22,117.82c-2.57,19.43-4.78,38.85-6.21,58.42c-1.11,15.28-1.81,30.5-1.65,46.46
		c12.95,7.48,19.73,19.9,24.94,33.43c1.67,4.35,3.11,8.78,2.96,13.55c-0.16,5-1.07,6.3-5.72,8.1c-9.61,3.72-19.24,7.35-29.5,8.93
		c-1.26,0.19-2.42,0.99-3.76,1.56c-0.34,6.07-0.76,12.02-0.98,17.96c-0.1,2.75-0.82,5.28-2.23,7.55c-1.1,1.77-2.93,3.29-4.99,2.23
		c-3.78-1.95-7.27-0.47-10.55,0.68c-16.71,5.87-33.63,7.49-51.06,3.88c-5.18-1.07-10.52-1.43-15.79-2.04
		c-1.97-0.23-4.3-0.95-5.91-0.22c-8.03,3.64-16.43,1.75-24.66,2.12c-5.65,0.26-11.33,0.07-16.99,0.03
		c-2.31-0.02-4.71,0.17-6.45-1.52c-4.08-14.01-2.74-27.4,2.73-40.72c3.93-9.57,7.68-19.16,13.99-27.47
		c2.71-3.57,3.95-7.38,4.03-11.98c0.21-12.01,3.59-23.61,5.12-35.48c2.71-21.07,6.11-42.05,9-63.1c3.3-24,6.52-48.02,9.46-72.07
		c1.37-11.2,1.87-22.51,3.01-33.75c2.14-21.13,2.33-42.42,5.24-63.48c0.64-4.64,1.01-9.27,3.72-12.14c0.27-3.51-1.9-4.34-3.05-5.88
		c-7.6-10.16-8.14-21.5-5.12-33.26c2.18-8.48,6.65-15.97,11.15-23.35c2.52-4.13,3.76-8.08,3.55-13.06
		c-0.38-8.96,0.47-17.97,0.43-26.95c-0.1-23.32-0.44-46.63-0.62-69.95c-0.2-25.3,1.45-50.49,4.62-75.57
		c2.01-15.87,5.81-31.32,11.33-46.38c4.79-13.08,9.02-26.37,13.65-40.02c-3.73-5.52-7.86-11.15-11.48-17.09
		c-16.69-27.37-29.74-56.47-40.89-86.49c-14.71-39.61-28.24-79.63-39.86-120.25c-9.05-31.66-15.27-63.93-19.57-96.63
		c-2.61-19.84-3.85-39.62-3.97-59.61c-0.14-23.52,3.56-46.33,9.69-68.89c6.12-22.53,14.51-44.2,24.2-65.42
		c6.78-14.84,12.51-30.11,17.39-45.67c6.35-20.26,8.31-40.86,4.84-61.96c-2.53-15.38-4.53-30.85-6.89-47.06
		c-7.18-3.58-14.22-8.38-20.18-14.8c-19.36-20.84-27.82-54.48-13.37-83.33c8.02-16.02,18.67-29.81,30.45-43
		c5.97-6.69,11.69-13.6,17.63-20.55c-3.79-8.77-6.68-17.31-12.95-24.63c-10.93-12.77-17.94-27.95-23.57-43.71
		c-3.01-8.42-5.67-16.83-10.14-24.79c-4.51-8.03-7.09-17.19-10.12-26c-9.11-26.41-18.18-52.85-26.99-79.36
		c-11.01-33.14-20.72-66.68-30.55-100.18c-2.08-7.1-1.68-14.45-3.03-21.64c-2.21-11.76-1.73-23.76-0.19-35.67
		c0.82-6.3,2.14-12.47,4.66-18.31c3.22-7.46,7.13-9.35,14.07-5.69c7.4,3.9,15.33,6.42,22.86,9.87
		c25.44,11.65,50.26,24.49,73.56,40.1c13.28,8.89,26.59,17.73,40.6,27.06c4.25-6.76,8.42-13.4,12.92-20.56
		c-3.41-10.44-4.58-21.64-5.41-32.91c-0.14-1.97-0.81-3.89-0.12-5.85c3.55-10.12,3.78-20.89,6.06-31.26
		c8.2-37.17,25.25-69.87,49.72-98.86c15.02-17.8,32.99-31.79,53.77-42.29c9.39-4.74,19.51-7.46,29.71-7.6
		c13.94-0.2,26.38,4.97,33.53,17.83c4.8,8.64,4.74,18.43,3.17,28.12c-2.75,16.97-11.3,31.18-21.63,44.38
		c-15.18,19.4-30.62,38.6-42.2,60.5C273.97,155.79,271.12,160.65,269.29,166.62z M93.01,283.93c-2.14,3.66,0.15,5.91,1.04,8.19
		c13.59,34.64,27.33,69.22,41.01,103.82c2.2,5.56,3.88,11.34,7.03,16.47c0.48,0.78,1.45,1.26,2.14,1.83
		c1.7-0.64,2.08-2.88,4.17-2.87c4.31,1.88,6.18,6.68,10.02,9.01c2.11-0.35,3.93-1.75,5.92-0.4c2.97,2.29,1.99,7.12,5.63,9
		c9.72-8.42,19.95-31.8,19.28-43.46c-0.17-3-1.5-4.91-3.92-6.45c-9.82-6.25-19-13.27-26.38-23.17c-1.69,2.46-2.78,4.49-4.29,6.14
		c-1.58,1.73-3.61,3.14-6.17,2.09c-1.99-0.82-3.11-2.45-3.17-4.66c-0.09-3.36-1.09-6.49-2.29-9.56c-7.2,0.36-7.63,0.14-7.73-6.36
		c-0.15-9.27-0.04-18.55-0.04-28.07C120.33,306.22,104.78,297.76,93.01,283.93z"/>
	<path fill="#1A1A1A" d="M282.18,918.14c4.96,3.26,4.16,7.33,1.69,12.55c-5.56,11.74-11.97,23-18.12,34.41
		c-1.64,3.05-4.37,4.99-6.66,7.37c-2.41,2.51-4.9,4.94-6.9,7.91c5.77-1.37,9.43-5.57,12.93-9.71c7.76-9.2,14.04-19.43,19.39-30.17
		c4.44-8.92,8.34-18.09,12.75-27.74c-4.94-3.91-4.39-9.07-2.87-14.84c2.25-1.95,5.09-3.36,8.76-3.87c0.7,7.52,1.69,14.72,1.99,21.96
		c0.79,18.7,4.38,36.92,8.72,55.04c0.77,3.23,2.09,6.23,3.88,9.12c3.18,5.12,3.12,6.33-0.95,10.22c-7.74,7.39-8.71,16.01-5.36,25.62
		c2.07,5.93,4.91,11.61,6.09,17.79c-2.59,2.12-5.31,0.85-7.8,0.84c-5.4-0.03-8.32,2.52-10.67,7.28
		c-7.16,14.49-11.55,29.67-12.82,45.75c-0.2,2.57,0.33,5.21,0.52,7.81c-16.04,9.78-32.08,19.56-48.25,29.41
		c-2.24-11.12-1.7-44.75,0.79-51.59c-1.34-3.11-4-4.9-6.92-6.63c-10.46-6.2-19.85-13.47-24.15-25.54c-0.32-0.89-1.08-1.62-1.48-2.2
		c-3.95,0.66-5.21,2.42-4.06,5.68c1.8,5.11,4.69,9.51,8.39,13.45c6.4,6.8,13.38,12.89,21.7,17.2c-1.15,15.14-2.25,29.59-3.38,44.42
		c-21.79,3.59-42.41,9.87-64,11.91c-24.49,2.31-47.67-1.11-69.58-12.27c-11.8-6.01-19.76-14.85-22.76-28.5
		c-4.43-20.13-8.64-40.25-11.03-60.74c-0.94-8.03,1.09-15.88,1.39-23.84c0.6-15.92,1.77-31.82,3.89-47.62
		c1.86-13.87,4.82-27.5,9.19-40.79c0.71-2.16,1.18-4.56,3.94-6.73c11.08,3.31,22.68,7.15,34.54,8.56
		c12.31,18.54,22.31,38.43,41.35,50.84c2.08,1.82-0.91,3.89,0.34,5.56c1.18,1.58,2.46,3.3,4.1,4.27
		c11.47,6.79,23.21,13.08,36.37,16.03c5.27,1.18,10.16,0.39,17.04-2.3c-3.11-2.73-6.74-3.43-10.18-3.74
		c-13.56-1.2-25.08-7.87-37.08-13.3c-0.3-0.14-0.74-0.24-0.86-0.48c-3.8-7.73-12.51-10.69-17.11-17.62
		c-4.11-6.2-6.1-13.22-8.05-20.31c-2.66-9.64-4.24-19.47-6.18-29.25c-0.51-2.55-0.6-4.8,1.12-6.48c3.16-3.08,3.46-6.97,4.11-10.93
		c2.09-12.85,5.21-25.42,11.47-36.98c1.27-2.34,2.55-4.69,4.06-6.87c2.74-3.99,6.11-6.32,10.76-2.81
		c7.18-6.6,13.94-12.99,20.89-19.17c3.95-3.52,8.1-6.84,12.35-10c3.66-2.73,7.9-3.55,12.31-2.06c4.08,1.38,8.3,2.61,12.06,4.64
		c4.71,2.53,9.02,5.61,14.85,4.26c1.13-0.26,2.87,0.24,3.73,1.04c7.7,7.23,17.39,12.36,22.73,22.1c2.88,5.24,6.49,10.07,9.63,15.18
		c1.41,2.29,2.68,4.45,5.32,5.7c3.66,1.73,4.78,5.1,5.29,8.98c0.97,7.35,0.47,14.65-0.27,21.93
		C284.44,904.42,283.24,910.95,282.18,918.14z M248.51,983.48c-2.96,0.5-6.3,0.23-7.44,4.58
		C244.67,987.41,247.21,986.4,248.51,983.48z"/>
	<path fill="#1A1A1A" d="M85.96,2057.14c-0.87-7.1,0.91-14.13,2.84-21.14c2.94-10.65,7.26-20.7,13.23-30
		c4.74-7.39,7.4-15.6,9.37-24.02c3.77-16.18,5.92-32.64,8-49.12c3.78-29.95,8.14-59.83,11.44-89.83
		c2.51-22.75,4.75-45.54,5.32-68.51c0.42-16.94,1.1-33.88,1.04-50.83c-0.02-4.62,0.72-9.31-0.83-13.88
		c-0.41-1.22-0.48-2.7,0.72-3.67c5.04-4.11,2.68-9.1,1.35-13.68c-1.77-6.14-2.97-12.26-2.52-18.65c0.3-4.32,1.22-8.42,4.63-12.88
		c1.27,7.02,1.35,13.09,1.39,19.27c2.33,0.22,2.68-1.65,2.94-2.87c4.23-20.15,8.29-40.28,8.45-61.04
		c0.16-22.63-2.11-45.15-2.47-67.76c-0.17-10.57-1.39-21.27-0.8-31.83c1.57-28.14,2.32-56.43,9.7-83.9
		c2.2-8.19,4.46-16.43,9.47-25.21c0,5.19,0.01,8.8,0,12.4c-0.01,3.35-0.01,6.48,3.03,9.03c2.66,2.22,2.99,5.82,3.45,9.14
		c0.97,6.99,3.48,13.51,6.25,19.92c1.71,3.96,3.96,7.55,7.12,10.71c3.01,3.01,5.26,6.79,7.74,10.31
		c4.42,6.28,9.36,12.02,15.88,16.16c8.74-3.44,16.47-7.91,22.81-12.85c5.95-1.62,4.39,7.37,10.97,4.36
		c-4.18,14.3-8,27.31-11.8,40.33c-7.72,26.47-16.78,52.57-21.92,79.74c-2.34,12.39-4.48,24.82-6.64,37.24
		c-0.46,2.63-0.19,5.23,0.62,7.87c1.06,3.48,1.67,7.1,2.46,10.66c0.59,2.67-0.49,6.24,3.76,6.91c2.52,7.95,5.37,15.91-0.71,23.59
		c-3.51,4.43-7.06,8.83-10.61,13.23c-2.39,2.95-3.58,5.92-2.73,10.04c1.09,5.28-1.14,10.51-2.1,15.68
		c-3.58,19.28-6.09,38.65-7.73,58.2c-1.94,23.17-3.04,46.36-4.18,69.58c-0.75,15.3-1.15,30.57-0.88,45.84
		c0.47,27.21,1.88,54.39,5.38,81.42c0.65,5.02,1.93,10.04,5.62,13.61c5.86,5.68,7.88,12.99,9.71,20.41c1.71,6.92,1.6,27.1,0.19,35.7
		c-0.54,0.38-1.06,1.03-1.64,1.09c-18.78,1.97-37.49,4.93-56.5,1.64c-7.15-1.24-14.6-0.85-21.91-0.94
		c-11.3-0.14-22.61-0.04-33.91-0.07C89.31,2058.53,87.61,2058.65,85.96,2057.14z"/>
	<path fill="#1A1A1A" d="M285.98,375.39c0.87,2.82,1.79,5.32,2.4,7.9c1.16,4.95-1.56,11.57-5.97,13.57
		c-6.75,3.06-13.25,6.97-21.61,7.4c-1.28-8.17-7.65-12.27-13.96-16.62c-14.36-9.91-26.69-22.09-36.98-36.08
		c-4.55-6.19-8.6-12.6-15.16-16.79c-6.16-3.94-12.36-7.89-18.86-11.22c-9.76-5.01-19.91-9.25-29.69-14.24
		c-16.9-8.62-33.45-17.92-48.34-29.75c-7.31-5.82-13.08-13.1-16.03-22.34c-1.86-5.85-3.61-11.91-9.01-16.54
		c-0.27,8.8,2.56,16.24,5.35,23.56c12.3,32.31,24.68,64.59,37.41,96.73c5.01,12.66,10.91,24.98,16.61,37.35
		c1.48,3.22,1.89,6.12-0.28,9.24c5.69,4.97,11.16,9.75,16.54,14.43c2.29,0.71,2.47-2.04,4.1-2.28c0.53,0.36,1.14,0.6,1.51,1.05
		c5,5.97,7.31,13.37,10.68,20.21c1.42,2.88,0.72,5.96,0.41,8.83c-1.57,14.84-2.38,29.8-5.45,44.42
		c-2.68,12.78-7.29,24.88-15.56,35.29c-2.28,2.87-4.79,5.44-7.93,7.79c-36.55-23.86-49.4-60.37-55.58-101.4
		c-5.31-1.14-7.51-5.28-9.23-10.62c-11.02-34.18-23.89-67.72-36.19-101.46c-9.57-26.25-18.27-52.79-26.63-79.44
		c-1.68-5.36-2.18-10.71-1.58-16.54c0.95-9.23,0.29-18.63,0.28-27.96c-0.01-9.39,1.43-18.55,4.4-27.45
		c1.78-5.32,4.84-6.88,9.78-4.57c4.51,2.11,8.77,4.76,13.21,7.04c52.52,27.07,101.9,58.96,147.63,96.42
		c15.22,12.47,29.01,26.4,41.85,41.3c3.88,4.5,7.67,9.16,14.8,8.63c1.96-0.15,4.19,1.76,6.13,2.98
		c9.36,5.88,17.34,13.42,25.22,21.07c5.26,5.11,10.43,10.3,15.55,15.55c4.85,4.97,4.8,5.02,1.89,11.16
		C287.15,373.22,286.51,374.37,285.98,375.39z"/>
	<path fill="#1A1A1A" d="M254.21,461.48c2.65,3.6,5.55,6.84,10.26,5.69c2.12,2.57,1.11,4.98,0.6,7.1
		c-4.35,18.25-6.06,36.76-5.09,55.43c0.72,13.9,1.44,27.85,5.23,41.42c1.83,6.54,4.22,12.68,9.26,17.36c2.69,2.5,3.55,5.38,3.43,8.9
		c-0.64,19.31,1.37,38.54,2.16,57.8c0.64,15.51,2.86,30.96,4.39,46.51c-1.74,1.9-3.48,0.59-5.3-0.07
		c-20.35-7.48-41.28-12.74-62.71-15.92c-12.6-1.87-25.3-1.17-37.88-0.1c-14.2,1.21-28.34,3.31-42.45,5.38
		c-6.53,0.96-12.93,2.75-19.95,4.28c-1.71-6.38-0.65-12.66-0.91-18.83c-0.25-5.81,0.36-11.68-0.62-19.43
		c-7.84,10.49-6.1,21.76-9.87,32.06c-18.54-12.87-31.24-28.35-31.74-52.29c-0.42-19.97,8.25-36.07,18.98-51.43
		c6.84-9.78,15.07-18.58,22.66-27.84c4.41-5.38,8.65-10.88,12.4-17.28c4.52,2.52,6.99,8.99,13.7,6.73
		c11.61-10.61,19.89-23.53,23.32-39.26c1.34-6.14,2.75-12.39,3-18.63c0.54-13.61,2.58-27.14,2.21-40.81
		c-0.08-2.9,0.58-5.81,0.88-8.64c2.87-0.38,2.87,1.65,3.43,3.08c9.18,23.64,28.09,28.51,47.23,25.39
		C231.66,466.33,242.34,463.86,254.21,461.48z"/>
	<path fill="#1A1A1A" d="M357.01,1072.16c-8.53,6.59-16.92,13.07-25.49,19.68c-9.54-0.9-18.3-5.02-27.73-7.3
		c-2.04-9.84,2.11-18.19,4.93-27.37c4.1,2.48,4.14,6.44,5.58,9.62c1.36,3.01,2.46,6.35,6.56,7.13c1.91-0.42,3.87-1.84,3.91-3.77
		c0.11-4.46,2.01-8.36,3.13-12.48c2.35-8.67,1.5-17.15-1.14-25.52c-1.8-5.71-3.92-11.31-5.97-16.93
		c-2.34-6.41-2.37-12.47,2.81-17.59c2.95-2.92,2.71-6.14,2.47-9.98c-1.6-25.57-6.42-50.69-9.9-76c-1.53-11.17-1.96-22.49-2.96-33.73
		c-2.31-25.88-1.9-51.83-2.02-77.77c-0.05-9.66-2.85-18.95-4.37-28.41c-3.11-19.34-6.1-38.72-10.04-57.9
		c-2-9.73-4.33-19.37-5.81-29.22c-1.91-12.71-2.93-25.5-4.43-38.24c-0.8-6.81,0.72-13.99-2.44-20.52c-0.14-0.28-0.17-0.67-0.11-0.98
		c1.9-9.48-2.12-18.96,0.01-28.45c1.14-5.06,0.31-9.71-2.75-14.1c-12.09-17.39-14.97-37.22-15.45-57.8
		c-0.33-14.33,0.67-28.54,2.05-42.76c0.26-2.71,0.91-5.21,2.47-8.45c11.19,9.22,24.28,14.51,37.38,19.84
		c5.84,2.38,11.45,5.33,17.22,7.9c3.8,1.69,6.38,4.33,8.59,7.92c4.68,7.64,9.93,14.93,15.31,22.9c-3.02,3.03-4.08,6.38-2.81,10.68
		c2.46,8.27,4.63,16.66,2.02,25.44c-0.67,2.25,0.34,4.55,0.88,6.84c4.85,20.46,6.84,41.28,6.89,62.25
		c0.05,20.97,0.13,41.97-0.78,62.92c-0.71,16.22-2.93,32.36-4.47,48.54c-0.31,3.3-0.5,6.62-0.88,9.91c-0.26,2.29,0.05,5.52-1.3,6.67
		c-4.96,4.21-2.48,8.25-0.6,12.43c7.12,15.88,12.32,32.37,13.58,49.76c0.91,12.57,1.98,25.14,1.95,37.81
		c-0.09,34.27,0.33,68.55,0.58,102.82c0.02,2.32-0.3,4.91,0.59,6.9c5.5,12.24,4.69,25.27,4.74,38.09
		c0.05,13.38-2.69,26.38-7.68,38.88C358.96,1058.24,356.18,1064.7,357.01,1072.16z"/>
	<path fill="#1A1A1A" d="M250.34,1515.82c7.15,3.13,4.9,13.13,12.52,15.18c3.85-0.88,6.31-3.82,9.37-5.74
		c3.94-2.48,7.96-3.58,12.26-1.53c6.2,2.95,11.38,1.23,16.78-2.32c3.85-2.53,6.63-6.6,12.07-8.07c-0.95,3.84-1.59,7.38-2.69,10.75
		c-17.69,54.09-31.16,109.33-44.87,164.5c-4,16.11-8.68,32.07-10.99,48.6c-0.82,5.86-3.38,11.46-5.02,17.21
		c-5.93,20.8-9.77,42.07-13.73,63.3c-6.09,32.64-11.83,65.37-15.87,98.33c-1.45,11.83-2.63,23.75-3.17,35.73
		c-0.43,9.6-1.54,19.14-0.73,29.19c7.34,4.34,15.35,8.06,19.52,16.24c3.29,6.45,7.31,12.64,8.08,20.26
		c-4.31,2.2-8.61,3.06-12.81,3.32c-4.58,0.28-8.97,2.85-14.1,1.1c-3.78-11.43-6.72-23.59-17.18-31.27
		c-1.44-12.83-1.72-25.45-2.74-38.01c-1.07-13.27-0.92-26.6-2.07-39.8c-1.22-13.98-1.53-27.95-0.89-41.86
		c0.99-21.22,1.13-42.47,2.83-63.68c1.09-13.56,1.54-27.2,3.02-40.73c1.7-15.5,3.99-30.94,6.04-46.4c0.4-3.05,1.72-5.63,3.79-7.96
		c2.43-2.73,4.36-5.92,6.9-8.52c6.78-6.91,7.63-15.27,6.13-24.13c-1.17-6.87-2.41-13.75-5.04-20.28c-0.73-1.81-1.21-3.57-0.79-5.74
		c3.39-17.59,6.53-35.24,9.84-52.85c4.68-24.88,12.7-48.89,19.47-73.21C247.34,1523.64,247.33,1519.41,250.34,1515.82z"/>
	<path fill="#1A1A1A" d="M374.7,854.31c26.89,25.86,47.78,54.51,57.33,90.45c1.64,6.18,2.25,12.47,2.88,18.65
		c1.39,13.52,1.63,27.17,2.29,40.76c1,20.62,0.47,41.25,0.02,61.87c-0.07,3.28-0.01,6.57-0.01,10.57
		c-13.5-0.59-26.03-3.01-38.87-2.24c-12.87,0.77-25.77,1.25-38.74,3.07c0.18-1.31,0.08-2.26,0.36-2.39
		c11.68-5.5,14.18-16.53,15.02-27.45c1.49-19.21,2.19-38.51-1.1-57.72c-1.05-6.14-1.29-12.37-0.79-18.72
		c2.02-25.54,3.1-51.16,1.85-76.74c-0.49-9.92-0.53-19.9-1.54-29.82C373.06,861.33,372.24,857.63,374.7,854.31z"/>
	<path fill="#1A1A1A" d="M430.19,136.19c-1.09-1.27-1.87-1.93-2.35-2.77c-11.54-20.25-30.25-30.27-51.81-36.01
		c-7.59-2.02-15.37-3.31-22.88-4.89c-0.45-2,0.54-2.96,1.54-3.82c18.97-16.29,40.93-24.37,65.97-23.82c3.31,0.07,6.66,0.47,9.9,1.15
		c7.33,1.54,12.36,5.67,15.21,12.89c5.22,13.22,3.87,26.05-1.47,38.72c-1.41,3.34-3.39,6.55-5.66,9.38
		C436.19,130.1,434.35,133.81,430.19,136.19z"/>
	<path fill="#1A1A1A" d="M332.58,20.18c4.25,21.12-0.84,42.24-14.48,58.05c-16.45-24.51-40.29-36.38-68.78-40.15
		c-0.46-2.67,1.64-3.47,3.11-4.7c9.21-7.75,18.95-14.69,30.07-19.44C300.42,6.28,317.4,6.4,332.58,20.18z"/>
</g>
</svg>
