<?xml version="1.0" encoding="utf-8"?>
<!-- Generator: Adobe Illustrator 24.0.2, SVG Export Plug-In . SVG Version: 6.00 Build 0)  -->
<svg version="1.1" id="Layer_1" xmlns="http://www.w3.org/2000/svg" xmlns:xlink="http://www.w3.org/1999/xlink" x="0px" y="0px"
	 viewBox="0 0 1038.14 1503.65" style="enable-background:new 0 0 1038.14 1503.65;" xml:space="preserve">
<g>
	<path d="M625.78,1197.4c9.9,0.8,10.17,0.88,7.48,10.33c-3.41,11.99-6.03,24.15-8.53,36.33c-1.44,7.01-2.68,14.11-3.62,21.26
		c-1.05,7.99-3.16,15.84-4.98,23.71c-2.17,9.33-5.39,18.51-6.57,27.95c-1.17,9.39-3.12,18.83-2.28,28.43
		c0.62,7.07,3.1,13.66,5.52,20.21c3.81,10.33,9.71,19.58,17.49,27.23c4.35,4.28,9.73,8.12,16.42,8.65
		c7.56,0.59,13.68,4.54,18.98,9.29c11.17,10.04,19.97,21.92,25.3,36.16c1.39,3.72,2.47,7.43,2.3,11.45
		c-0.11,2.49-0.02,4.99-0.02,7.57c0.95-0.05,1.71-0.09,3.52-0.19c-2.66,3.73-0.57,7.79-2.33,11.5c-0.46,0.98-1.16,2.33-1.01,3.22
		c0.96,5.66-3.33,6.58-6.97,8.2c-4.72,2.09-9.32,4.53-14.16,6.29c-6.98,2.55-14.18,4.61-21.56,5.56
		c-5.84,0.75-11.56,2.13-17.54,2.41c-7.02,0.33-14.05,0.32-21.06,0.62c-6.44,0.28-12.88-0.43-19.3-0.52
		c-10.91-0.15-21.89,0.41-32.86-1.12c-6.4-0.89-12.94-1.22-19.38-2.24c-7.38-1.17-14.35-3.24-20.52-7.63
		c-1.05-0.74-2.31-1.18-3.59-1.82c-0.42-4.27-1.5-8.54-0.11-13.2c-3.25,0.54-5.87,1.91-8.85,1.66c-3.05-0.26-5.68-0.98-7.97-3.2
		c-3.7-3.58-4.35-3.32-8.93-1.03c-4.84,2.43-9.85,4.5-15.51,2.3c-1.16-0.45-2.64-0.12-3.97-0.12c-13.83,0-27.66,0.07-41.49-0.03
		c-9.98-0.07-19.62,1.53-28.87,5.26c-2.55,1.03-4.52-0.07-6.11-1.5c-1.78-1.6-3.78-2.95-5.28-4.98c-1.92-2.59-4.46-3.22-7.76-1.62
		c-3.92,1.91-7.52,4.42-11.65,5.96c-4.78,1.78-10.82-0.69-12.41-5.54c-0.66-2-1.13-4.13-1.22-6.22c-0.09-2.16-0.66-3.41-2.61-4.77
		c-2.65-1.84-3.18-5.53-3.28-8.37c-0.36-9.86,0.26-19.58,3.14-29.29c2.9-9.79,6.17-19.33,10.88-28.34
		c4.13-7.9,9.5-14.66,18.79-17.14c7.24-1.93,14.47-1.52,21.62-0.04c3.71,0.77,7.47,0.85,11.19,1.44c7.15,1.13,14.44,1.46,21.68,1.94
		c5.22,0.34,10.4-0.72,15.59-1.09c3.1-0.23,6.59-1.51,8.32-5.27c0.91-1.98,2.53-3.48,5.86-2.72c3,0.69,6.16-2.11,8.65-3.86
		c11.22-7.89,21.41-16.98,28.6-28.92c1.88-3.12,2.52-6.33,0.54-10.01c-6.02-11.21-11.73-22.58-17.88-33.86
		c0.32,13.85,4.72,27,7.53,40.92c-4.57-3.5-6.87-8.47-8.43-13.07c-3.91-11.52-5.9-23.54-5.23-35.82c0.16-3.01-1.11-5.35-2.65-7.91
		c-1.91,2.6-2.86,5.29-3.55,8.45c-1.88,8.57-2.02,17.3-2.63,25.93c-0.76,10.74-0.93,21.64,1.27,32.34
		c0.75,3.65,1.03,7.37,2.28,10.96c0.63,1.8,0.75,3.77,2.12,5.41c-3.4-1.77-4.26-5.41-6.22-8.15c-3.85-5.38-6.09-11.62-6.47-18.13
		c-0.45-7.76-0.96-15.58-0.03-23.38c0.37-3.07,0.48-6.17,0.71-9.28c-2.22-0.54-3.17,1.3-4.45,2.03c-5.22,3-11.07,2.06-13.27-3.39
		c-2.24-5.56-5.52-10.97-3.53-17.8c0.71-2.43,0.23-5.49,1.28-8.24c1.95-5.14,6.13-8.6,11.61-8.88c4.29-0.22,8.59-0.35,12.38,2.35
		c1.02,0.73,2.16,1.46,3.53,1.48c1.05-1.42,0.17-2.32-0.52-3.54c-2.47-4.39-5.59-8.58-6.81-13.45c-1.71-6.84-6.96-10.49-11.45-15.07
		c-6.45-6.57-14.6-11.13-20.62-18.19c-3.59-4.21-4.09-6.39-0.96-10.8c4.75-6.68,10.33-12.4,18.67-15.18
		c-3.05-3.65-6.62-6.81-8.8-11.01c-4.39-8.47-4.87-17.31-2.55-26.47c1.52-6,2.16-12.01,1.87-18.34c-0.33-7.29-0.24-14.6-1.3-21.84
		c-0.98-6.73-1.64-13.6-3.5-20.1c-1.67-5.82-1.35-11.56-1.42-17.36c-0.04-3.48-1.27-5.69-3.96-8.28
		c-6.58-6.34-12.94-12.91-17.05-21.5c-3.27-6.86-5.89-13.49-6.19-21.21c-0.28-7.16,0.41-14.19,1.61-21.15
		c0.84-4.88,0.69-9.56,0.12-14.38c-0.3-2.6-2.1-4.37-3.05-6.58c-6.24-14.52-11.05-29.56-16.43-44.39
		c-4.28-11.77-8.14-23.73-10.46-36.03c-1.72-9.13-4.5-18.01-5.86-27.25c-0.89-6.02-2.98-11.97-4.44-17.98
		c-0.56-2.32-1.69-4.49-1.83-6.93c-1.48,28.68,2.92,56.1,17.63,81.45c-1.11-0.47-3.35-2.25-3.97-3.19
		c-3.02-4.58-7.42-8.15-8.87-13.93c-0.59-2.36-3.64-4.03-5.38-6.18c-4.35-5.38-9.28-10.25-14.01-15.24
		c-5.14-5.43-10.31-11.1-16.37-15.48c-12.96-9.35-25.93-18.77-41.22-24.36c-7.68-2.81-15.22-5.36-23.49-6
		c-11.7-0.9-20.59,3.62-27.86,12.37c-4.81,5.79-7.28,12.7-9.97,19.54c-4.95,12.58-7.21,25.62-8.26,39.1
		c-0.81,10.42-0.76,20.43,2.88,30.32c1.12,3.05,0.14,6.45,1,9.66c1.1,4.11,2.65,8.11,2.94,12.8c-1.65,0.69-3.07,0.28-3.49-2.04
		c-1.39-7.7-4.43-14.99-5.93-22.62c-2.3-11.77-7.49-21.73-15.2-30.93c-5.9-7.04-12.45-13.3-18.94-19.69
		c-3.37-3.32-7.3-5.95-11.03-8.7c-9.74-7.18-18.37-15.66-27.91-23.03c-8.77-6.77-18.06-12.87-27.44-18.78
		c-9.68-6.1-20.15-10.45-31.06-13.56c-5.05-1.44-10.26-2.37-15.88-1.52c-11.11,1.68-16.98,4.46-24.13,11.11
		c-6.1,5.67-11.24,12.1-15.8,18.95c-6.51,9.78-12.75,19.77-17.71,30.46c-6.02,12.99-11.8,26.13-15.49,40
		c-0.94,3.52-1.72,7.05-3.07,10.57c-0.31-0.51-0.82-0.96-0.76-1.3c2.59-13.41,1.14-26.92,0.99-40.39
		c-0.13-11.35-1.01-22.72-0.42-34.02c0.35-6.73,0.17-13.57,1.58-20.31c0.93-4.46,0.76-9.2,1.01-13.78
		c0.99-17.85,4.37-35.26,7.89-52.72c2.58-12.79,6.34-25.3,8.92-38.03c2.22-10.98,5.63-21.6,8.74-32.25c2.57-8.82,5.53-17.66,9-26.3
		c2.61-6.52,5.01-13.24,7.18-20c1.95-6.06,5.23-11.68,7.82-17.55c5.78-13.12,12.9-25.49,20.38-37.72
		c7.25-11.85,15.38-23.06,24.22-33.69c6.11-7.34,12.24-14.74,19.14-21.43c6.51-6.32,12.83-12.85,19.29-19.23
		c10.58-10.45,22.33-19.46,34.9-28.11c-12.92-14.58-22.89-31.12-34.63-46.93c-3.77,3.35-7.21,6.9-11.01,10.03
		c-4.05,3.34-8.1,6.69-12.14,10.05c-5.96,4.97-12.9,7.63-20.11,9.78c-4.45,1.33-8.91,2.5-13.75,2.38c-2.36-0.06-4.22-1.33-6.42-1.27
		c-6.94,7.3-15.05,11.79-25.48,10.99c-1.81-0.14-3.69,0.19-4.33-2.15c-0.66-2.41,1.37-2.86,2.73-3.94
		c3.33-2.65,6.56-5.43,10.13-7.78c0.92-0.61,1.9-1.45,1.67-2.86c-2.73-3.89-6.94-6.6-8.76-11.52c-5.66,5.24-11.99,5.43-18.67,3.21
		c-5.51-1.83-6.02-3.55-1.73-7.18c4.24-3.59,8.84-6.74,13.1-10.74c-2.03-3.81-2.45-8.41-4.34-12.74c-2.6-1-5.63,0.12-8.54-1.13
		c-2.66-1.15-5.83-1.54-8.06-3.34c-2.12-1.71-5.72-2.23-5.97-6.11c5.67-2.34,11.69-2.69,17.55-3.65c2.26-0.37,4.41-1.23,4.29-3.27
		c-0.44-7.45,5.24-9.28,10.23-10.54c5.82-1.48,11.56-3.39,17.54-4.33c6.42-1.01,12.57-3.3,18.91-4.55c3.76-0.74,5.98-2.92,7.87-5.43
		c6.11-8.1,14.77-11.21,24.43-13.53c-0.54-2.72-2.27-4.73-4.37-6.73c-4.2-4.01-8.55-7.81-10.9-13.5c-2.3-5.57-2.17-10.91,0.08-16.16
		c1.29-3.02,1.47-5.1-0.44-8.09c-2.33-3.64-5.66-6.36-7.9-10.03c-1.24-2.04-1.81-4.09-2.36-6.77c7.54-0.6,13.61,2.36,19.16,6.49
		c5.46,4.06,8.93,9.55,11.35,15.99c2.06,5.46,6.72,9.43,9.98,14.25c6.65,9.84,16.56,16.1,25.76,23.08
		c4.64,3.52,8.56,7.84,13.03,11.39c6.98,5.54,7.8,12.85,8.98,20.66c0.73,4.82,1.74,9.59,2.15,14.49c0.13,1.51,1.33,2.93,2.67,4.02
		c5.49,4.44,11.39,8.34,16.57,13.23c7.16,6.76,14.96,12.83,22.34,19.38c5.96,5.3,12.23,10.34,18.84,14.94
		c7.23,5.03,14.4,10.18,21.85,14.85c5.77,3.62,11.26,7.47,16.35,11.99c2.8,2.48,5.09,5.26,7.11,8.36c1.97,3.04,3.09,3.08,5.18,0.01
		c5.92-8.7,13.02-16.48,20.32-23.89c5.13-5.21,10.68-10.24,16.16-15.19c5.93-5.35,12.38-10.05,18.24-15.48
		c4.64-4.3,10.08-7.78,15.34-11.37c3.56-2.43,5.81-4.92,7.19-9.57c1.88-6.34,4.92-12.56,9.06-18.22
		c4.05-5.54,8.81-10.25,13.49-15.12c4.57-4.77,9.79-8.77,15.7-11.7c3.36-1.66,4.27-4.45,4.14-7.6c-0.26-6.38,1.07-12.3,4.02-17.92
		c1.29-2.46,2.74-4.89,3.66-7.49c1.32-3.73,4.12-4.39,7.55-4.78c7.52-0.83,15.21-0.28,22.54-2.88c3.37-1.19,6.77-2.21,9.9-4.58
		c-6.94-3.44-10.93-9.67-15.1-15.63c-2.17-3.1-4.91-5.34-7.7-7.81c-10.54-9.36-22.72-16.25-34.78-23.14
		c-7.51-4.29-15.39-8.26-23.76-11.06c-4.2-1.41-8.56-3.07-12.83-6.66c8.78-6.34,18.79-8.27,28.94-11.7
		c-9.25-5.11-17.4-10.68-23.81-18.4c-0.15-0.18,0.57-1.08,0.98-1.8c10.61,6.46,21.54,8.44,32.97,2.27
		c-4.36,0.21-8.69-0.2-13.03-0.54c-2.28-0.18-4.55,0.02-6.87-0.37c-1.44-0.24-2.94,0.36-3.49-1.48c-0.53-1.79,0.87-2.78,2.03-3.67
		c6.02-4.63,12.78-7.77,20.6-9.75c-7.16-4.27-13.01-9.28-15.65-17.18c4.55,0.77,8.34,3.24,12.81,3.61
		c-3.76-3.39-8.67-4.81-12.58-7.98c-6.2-5.03-11.76-10.45-16.42-17.03c-8.32-11.76-11.02-25.51-14.82-38.87
		c-2.86-10.06-5.24-20.29-5.1-30.88c0.01-0.82-0.04-1.61-0.49-2.39c-6.54-11.2-8.24-23.99-11.91-36.14
		c-1.4-4.62-3.46-9.03-4.24-13.87c-0.22-1.36-0.31-2.53,0.04-4.22c5.83,3.57,5.42,10.39,9.52,14.88c0-4.58,0.16-9.16-0.04-13.73
		c-0.23-5.27-1.53-10.45-3.23-15.34c-2.28-6.57-5.21-13.01-9.38-18.68c-1.5-2.05-1.82-3.42,0.52-4.8c5.39,1.58,8.71,6.24,13.29,8.95
		c1.18-1.16-0.08-2.33-0.36-2.55c-3.72-2.98-4.42-8.03-7.85-11.18c-1.29-1.18-1.19-2.74-0.39-4.1c0.93-1.57,2.55-1.41,4.01-0.96
		c6.65,2.07,13.09,4.63,19.37,8.69c-0.1-2.7-2.74-3.95-2.69-6.97c8.8,1.57,14.45,7.09,18.75,14.06c4.25,6.9,6.74,14.55,7.21,23.11
		c2.75-2.45,3.85-5.47,5.9-7.82c1.95-2.23,4.45-3.78,6.26-6.08c1.51,0.76,1.74,1.42,1.12,3.1c-1.3,3.5-3.96,6.22-4.69,10.13
		c-1.18,6.38-1.1,12.69-0.69,19.08c0.13,2.08,2.01,2.97,3.05,4.36c5.52,7.31,12.52,13.03,20.3,17.81c0.68,0.42,1.54,0.56,2.33,0.84
		c0.63-6.96-1.59-10.59-12.09-20.41c11.17,3.25,19.39,10.14,24.7,20.94c0.53-1.05,1.26-1.8,1.16-2.42
		c-1.4-8.71,0.22-17.15,2.61-25.4c2.31-7.98,6.03-15.08,12.61-20.85c4.86-4.25,9.98-7.69,15.66-10.48
		c8.28-4.06,16.93-6.06,26.21-4.62c0.85,1.41,0.33,2.56-0.89,3.37c-1.77,1.17-3.62,2.2-5.45,3.27c-6.71,3.93-10.8,10.23-15.01,16.47
		c4.03-2.97,7.8-6.2,11.76-9.2c6.49-4.93,13.4-8.59,21.3-10.13c11.38-2.21,22.38-1.69,32.68,4.77c3.98,2.49,8.21,4.67,12.42,6.97
		c0.17,2.66-1.24,3.21-3.54,3.2c-6.18-0.05-12.41-0.53-18.38,1.9c-1.19,0.48-2.06,1.17-3.28,1.5c1.42,2,2.83,0.79,4.09,0.8
		c4.71,0.02,9.27-1.04,14.15-0.47c7.09,0.83,14.42,0.87,21.5,0.03c5.72-0.68,11.19-3.26,16.15-6.45c1.18-0.76,2.16-1.72,4.24-1.85
		c-1.85,6.19-7.3,8.11-11.77,10.99c7.64,2.79,11.94-2.65,16.67-6.37c3.61-2.84,7.24-5.58,11.13-8.03c4.76-3,9.31-6.32,14.04-9.57
		c-1.58-10.28-0.77-20.42,5.19-29.34c2.3-3.44,5.2-7.01,9.56-8.36c2.1,2.48-1.69,4.6,0.35,6.66c6.49-7.04,15.47-14.74,27.77-19.35
		c2.12,2.77,2.12,2.77-2.77,8.24c5.8-2.62,10.1-5.59,14.28-8.7c2.51-1.87,5.34-3.14,7.87-4.92c0.93-0.66,1.69-0.87,2.6,0.04
		c0.91,0.92,0.51,1.63,0.05,2.62c-2.17,4.65-4.2,9.37-6.4,14.33c2.88-0.65,2.76-3.59,4.71-4.57c2.59,0.28,3.64,1.57,3.43,4.24
		c-0.88,11.1-1.74,22.24-5.22,32.87c-1.57,4.8,0.28,9.45-0.65,14.24c-1.02,5.26-1.67,10.62-2.9,15.86c-1.24,5.3-4.34,9.74-6.7,14.51
		c-1.68,3.37-2.71,6.96-5.17,10.14c-1.86,2.41-0.44,6.63-1.13,10.12c-1.24,6.23-2.81,12.41-3.91,18.63
		c-1.41,7.96-4.04,15.49-6.85,22.86c-5.09,13.31-9.48,27.1-18.93,38.3c-0.77,0.91-0.62,2.23-2.12,3.06
		c7.31,4.59,10.86,11.39,13.3,18.68c2.27,6.78,3.37,13.88,3.06,21.22c-4.33-0.37-1.59-5.13-4.76-6.35
		c0.74,7.13,0.99,14.12,0.97,21.12c-0.01,2.56-0.03,5.22-3.74,3.05c-1.47-0.86-1.14,0.46-1.48,0.94
		c-6.63,9.25-15.57,16.15-24.35,23.06c-3.93,3.09-6.62,7.43-11.09,9.89c7.37-1.75,14.22-4.76,21.5-7.09
		c-12.07,9.39-25.23,17.5-33.36,30.96c0.78,1.05,1.41-0.27,3.12,0.23c-6.26,5.12-10.76,11.22-15.11,17.64
		c12.03,7.31,23.95,15.74,35.47,25.02c-2.38,2.49-4.54,4.75-7.16,7.5c6.81-0.32,11.99-3.66,17.71-5.16
		c5.44-1.42,9.87-4.99,14.75-7.58c4.03-2.14,8.05-4.22,12.55-5.2c6.34-1.38,9.95,0.62,12.2,6.36c2.5,6.38,3.53,13.02,3.99,19.78
		c0.12,1.83,1.05,2.33,2.61,3c3.85,1.66,7.39,3.91,10.67,6.62c7.11,5.87,10.88,13.74,11.39,22.48c0.43,7.33,2.85,14.29,2.58,21.76
		c-0.17,4.47,0.55,9.24,0.98,14.44c1.96-1.35,0.04-2.78,1.05-3.64c0.64-0.17,0.56,0.47,0.83,0.73c4.7,4.41,8.46,9.57,12.05,14.89
		c1.91,2.84,4.35,5.24,6.26,8.18c4.2,6.45,7.69,12.97,10.39,20.3c2.61,7.09,4.24,14.42,5.78,21.59c1.71,7.99,3.88,15.76,6.35,23.49
		c2.03,6.34,3.75,12.86,6.61,18.81c1.8,3.75,3.33,7.74,5.79,11.24c1.26,1.8,2.98,3.46,3.04,6.46c5.67-3.65,10.95-6.86,16.56-9.5
		c11.18-5.27,22.35-10.58,33.45-16c7.58-3.7,15.02-7.67,22.57-11.43c3.47-1.73,7.09-3.13,10.64-4.68
		c12.54-5.48,21.68-14.86,30.17-25.14c9.04-10.94,15.04-23.83,22.97-35.49c3.95-5.81,9.12-10.23,13.87-15.11
		c3.02-3.1,8.04-3.1,12-2.67c6.04,0.65,12.13,0.79,18.17,1.32c6.33,0.56,12.64,0.93,18.92,2.08c5.93,1.09,10.81-1.46,15.85-4.49
		c5.83-3.51,11.64-7.25,17.86-9.96c4.63-2.02,5.91-6.3,8.52-9.65c8.05-10.35,19.63-13.02,31.45-9.5c0.57,0.17,1,0.81,1.68,1.4
		c-1.28,2.65-3.44,4.52-5.65,6.13c-4.12,3-7.39,6.87-11.12,10.25c-2.78,2.52-2.32,4.7-1.09,7.86c2.06,5.27,3.56,10.63,1.96,16.67
		c-1.01,3.82-3.25,6.54-5.6,9c-5.39,5.65-12.5,8.8-19.78,11.36c-2.67,0.94-5.1,2.75-8.8,2.09c9.43,6.82,18.51,12.82,26.88,19.69
		c4.58,3.76,8.03,8.92,11.82,13.58c4.53,5.57,9.81,10.73,12.51,17.5c2.26,5.67,7.76,8.49,10.65,13.55c4.95,8.66,6.38,18,5.96,27.76
		c-0.02,0.55-0.66,1.08-1.23,1.95c-6.55-2.07-8.46-9.41-14.17-12.18c-1.11,2.97-2.27,6.11-3.47,9.23c-0.33,0.87-0.75,1.45,0.03,2.54
		c5.71,7.88,7.87,17.1,8.72,26.5c0.31,3.41,1.49,7.56-1.02,10.97c-2.12-0.64-2.98-1.77-3.73-3.1c-3.32-5.86-7.91-10.8-11.83-16.23
		c-4.06-5.63-6.14-6.54-12.35-4.55c-4.57,1.47-7.15-0.86-10.27-3.1c-3.99-2.87-7.43-5.77-9.21-10.84c-0.89-2.54-4.83-3.86-7.25-6.05
		c-6.01-5.41-10.82-11.8-15.78-18c-2.49-3.11-5.59-5.32-7.98-8.59c-3.21,2.04-3.39,4.59-2.23,7.29c2.13,4.94,4.36,9.83,6.46,14.78
		c3.82,9.03,8.61,17.66,10.95,27.28c1.01,4.14,1.3,8.42,0.61,12.61c-0.65,3.9,2.17,6.79,2.42,10.36c0.43,6.14,3.22,12.24,0.01,18.45
		c-1.39-0.29-2.15-1.39-2.63-2.87c-1.56-4.78-4.62-8.88-6.08-13.77c-1.02-3.41-2.84-6.64-6.83-7.86c-1.78-0.54-3-2.12-3.9-3.69
		c-2.58-4.49-6.04-8.58-7.04-13.83c-0.31-1.61-1.42-2.77-2.28-3.71c-8.54-9.27-15.07-20.04-22.47-30.14
		c-2.01-2.75-4.05-5.51-5.86-8.43c-1.46-2.36-3.8-3.96-6.94-4.17c-4.02-0.28-7.77-1.99-11.82-2.47c-2.19-0.26-3.62-0.29-5.12,1.43
		c-3.69,4.24-7.54,8.47-11.58,12.22c-7.53,6.99-13.02,15.51-20.05,23.67c4.93,4.8,9.84,9.71,14.89,14.46
		c7.36,6.93,13.86,14.69,20.12,22.52c4.7,5.87,9.11,12.17,12.9,18.76c3.16,5.49,7.38,10.26,10.24,15.96
		c3.22,6.43,6.53,12.84,10.24,19c3.37,5.61,6.11,11.54,8.83,17.41c2.76,5.96,5.52,11.99,7.78,18.19
		c3.95,10.83,7.96,21.66,11.36,32.67c3.68,11.87,7.04,23.84,9.97,35.95c1.63,6.73,3.85,13.4,5.65,20.14
		c2.61,9.8,4.5,19.75,6.13,29.76c0.55,3.35,1.96,6.47,2.37,9.94c1.19,9.98,3.68,19.78,4.6,29.81c1.25,13.64,2.54,27.28,3.79,40.92
		c0.14,1.49,0.21,2.99,0.2,4.48c-0.09,8.25-0.02,16.52,0.27,24.73c0.23,6.62,0.18,13.36,0.13,19.89c-0.05,7.63,0.66,15.51-1.13,23.2
		c-0.54,2.3,0.08,4.96-0.12,7.53c-0.89,11.73-2.34,23.4-4.23,34.99c-0.86,5.28-2.34,10.49-4.01,15.58
		c-1.86,5.69-1.26,11.2,0.35,16.69c1.05,3.59,1.26,3.53-0.75,7.32c-2.44-2.05-2.69-4.98-3.5-7.61c-2.24-7.28-3.28-15.03-8.06-21.33
		c-3.68-4.84-8.11-9.03-12.85-12.73c-7.45-5.81-16.16-9.67-24.83-13.15c-7.29-2.92-14.92-5.12-22.9-6.19
		c-4.19-0.56-8.51-0.13-12.66-1.61c-3.35-1.2-6.81,0.93-10.26,0.83c-11.35-0.34-21.94,2.88-32.5,6.53
		c-12.79,4.42-24.34,11.38-36.3,17.49c-4.17,2.13-8.73,3.34-12.73,5.89c-2.36-1.96-2.23-4.99-2.78-7.53
		c-2.25-10.33-4.06-20.76-6.12-31.14c-2.49-12.55-5.72-24.92-9.44-37.16c-2.88-9.49-6.43-18.76-10.88-27.56
		c-4.66-9.21-10.01-18.06-15.98-26.57c-3.06-4.37-5.52-9.23-8.61-13.66c-5.73-8.21-12.02-15.83-19.78-22.3
		c-8.81-7.35-17.08-15.34-25.74-22.87c-10.27-8.93-22.19-15.01-35.17-18.78c-5.99-1.74-12.38-3.19-18.53-2.99
		c-6.3,0.21-12.74-0.85-19.06,1.13c-2.85,0.89-6.14,0.52-9.23,0.51c-2.07-0.01-3.9,0.34-5.5,1.86c2.05,8.33,0.83,16.65-0.47,24.94
		c-0.8,5.13-1.83,10.2-3.42,15.2c-0.77,2.43-2.14,4.38-3.25,6.49c-3.02,5.71-2.96,11.96-3.96,18.05
		c-1.71,10.31-1.93,20.78-3.79,31.08c-0.87,4.82-0.55,9.85-0.98,14.79c-0.92,10.47-1.65,20.95-2.9,31.41
		c-0.6,4.98,0.12,10.18-0.71,15.22c-0.9,5.49-0.2,11.05-1.05,16.55c-1.02,6.61-0.46,13.31-0.51,19.98
		c-0.04,4.87-0.29,9.72-0.47,14.58c-0.2,5.57-0.26,11.27,0.76,16.7c0.52,2.76,2.33,5.66,3.82,8.33c5.23,9.4,8.63,19.48,12.02,29.63
		c2.2,6.56,5.35,12.8,7.84,19.27c4.31,11.21,10.36,21.71,13.71,33.29c1.51,5.24,2.94,10.7,3,16.08c0.04,3.14-0.55,6.67-1.43,9.96
		c-0.69,2.56,0.16,4.76,1.62,7.32c3.28,5.76,5.72,12.05,7.96,18.31c1.41,3.94-1.36,6.77-4.24,9.04
		C631.35,1193.74,628.61,1195.44,625.78,1197.4z M629.05,527.63c-2.56,2.89-4.46,5.55-6.86,7.64c-7.73,6.72-15.63,13.14-24.76,18.06
		c-9.29,5.01-18.12,10.73-28.83,12.57c-5.66,0.97-6.59,2.8-6.34,8.6c0.07,1.7,1.13,3.61-0.4,5.09c-2.37,2.28-4.25,5.07-7.37,6.57
		c-4.36,2.1-7.45,5.64-8.91,10.12c-4,12.19-9.13,24.02-11.43,36.77c-0.59,3.24-0.53,6.22,0.86,8.87c2.88,5.48,2.84,10.94,1.45,16.74
		c-0.48,1.99-0.3,4.16,0.4,6.34c1.99,6.21,5.04,11.94,8.08,17.61c1.53,2.86,3.54,6.41,8.11,6.19c5.65-0.27,11.31,0.48,16.98-0.03
		c13.65-1.22,24.21-7.46,32.54-18.42c5.79-7.62,9.84-16.07,13.91-24.54c2.34-4.86,4.17-10.07,3.84-15.76
		c-0.2-3.53-1.34-6.97-3.14-9.58c-4.31-6.24-10.3-10.79-17.36-13.87c-2.31-1.01-4.92-1.8-6.93-0.91
		c-6.48,2.87-13.23,4.13-20.21,4.67c0.63-1.45,1.76-2.22,3.22-2.84c7.59-3.25,14.1-8.33,20.88-12.88
		c10.29-6.9,20.03-14.61,28.98-23.19c6.34-6.07,12.5-12.34,17.53-19.64c1.14-1.65,1.38-2.6,0.03-4.06c-1.75-1.91-3.5-3.85-4.97-5.97
		C635.24,537.27,632.31,532.62,629.05,527.63z M455.31,1288.97c0,2.31,0.02,4.13-0.01,5.95c-0.02,1.32,0.59,2.25,1.79,2.64
		c1.26,0.41,2.26-0.21,2.96-1.25c1.9-2.82,3.62-5.77,5.71-8.44c1.73-2.22,2.48-4.43,0.48-6.58c-1.72-1.85-7.15-1.5-9.01-0.09
		C454.21,1283.48,455.7,1286.65,455.31,1288.97z M601.64,780.29c1.01,6.26,2.22,12.42,4.92,18.23c4.19-3.76,4.39-4.2,1.7-8.58
		C606.24,786.64,604.65,783.05,601.64,780.29z"/>
</g>
</svg>
