<?xml version="1.0" encoding="utf-8"?>
<!-- Generator: Adobe Illustrator 24.0.2, SVG Export Plug-In . SVG Version: 6.00 Build 0)  -->
<svg version="1.1" id="Layer_1" xmlns="http://www.w3.org/2000/svg" xmlns:xlink="http://www.w3.org/1999/xlink" x="0px" y="0px"
	 viewBox="0 0 257.63 445.15" style="enable-background:new 0 0 257.63 445.15;" xml:space="preserve">
<g>
	<path d="M216.63,154.05c-0.46,0.05-0.56,0.42-0.8,0.6c-0.58,0.43-1.16,0.84-1.81,1.15c-1.25,0.59-1.76,1.68-1.79,3.01
		c-0.01,0.32,0,0.65,0.08,0.95c0.17,0.68-0.06,1.2-0.62,1.54c-0.68,0.41-0.95,1.04-1.13,1.76c-0.31,1.27-0.71,2.52-1.19,3.74
		c-1.25,3.17-3.19,5.8-6.12,7.61c-1.75,1.08-3.23,2.48-4.63,3.95c-1.27,1.33-2.32,2.84-3.09,4.52c-1.13,2.45-2.26,4.9-3.4,7.35
		c-0.25,0.54-0.52,1.07-0.79,1.61c-0.34,0.66-0.4,1.29,0.2,1.85c0.21,0.2,0.3,0.43,0.38,0.72c0.21,0.81,0.52,1.51,1.25,2.08
		c0.51,0.4,1.04,0.83,1.54,1.26c0.15,0.13,0.32,0.3,0.5,0.32c0.8,0.09,1.26,0.63,1.7,1.21c1.36-0.04,2.64,0.31,3.91,0.61
		c2.56,0.62,5.05,1.47,7.5,2.43c1.74,0.68,3.51,1.32,5.27,1.95c1.31,0.47,2.63,0.91,3.93,1.39c3.91,1.45,7.52,3.49,11.13,5.53
		c1.49,0.84,2.88,1.88,4.34,2.78c0.89,0.55,1.58,1.34,2.42,1.95c0.5,0.36,0.94,0.49,1.54,0.37c0.92-0.19,1.01-0.06,1.46,0.78
		c0.28,0.53,0.46,1.04,0.5,1.65c0.05,0.66,0.51,1.18,1.14,1.42c0.48,0.18,0.75,0.42,0.75,0.94c0,0.21,0.11,0.38,0.29,0.5
		c0.88,0.55,1.47,1.48,2.5,1.82c0.23,0.08,0.42,0.26,0.5,0.49c0.32,0.92,1.04,1.59,1.46,2.45c0.29,0.58,0.76,0.88,1.46,0.82
		c0.68-0.05,1.16,0.25,1.29,0.97c0.06,0.34,0.35,0.53,0.52,0.86c-0.41,0.62-0.3,1.11,0.32,1.61c0.47,0.38,0.77,0.98,1.13,1.47
		c1.05-0.13,1.89,0.28,2.31,1.1c0.07,0.14,0.14,0.29,0.24,0.41c0.73,0.84,1.09,1.84,1.32,2.93c0.68,0.26,1.12,0.64,1.19,1.47
		c0.05,0.57,0.41,1.11,0.66,1.65c1.11,2.39,1.53,4.91,1.64,7.53c0.08,1.86-0.26,3.65-0.5,5.46c-0.13,0.98-0.63,1.87-1.19,2.71
		c-0.36,0.55-0.53,1.14-0.53,1.8c0,1.3-0.39,1.73-1.72,2c-0.36,0.37-0.58,0.85-0.64,1.37c-0.11,0.89-0.48,1.66-0.97,2.4
		c-0.4,0.59-0.8,1.17-0.99,1.7c-0.51,0.35-0.81-0.15-1.2,0.03c-0.03,0.02-0.13,0.05-0.16,0.11c-0.88,1.42-1.82,2.8-2.86,4.11
		c-0.98,1.23-2.18,2.19-3.56,2.92c-0.81-0.31-1.42-1.05-2.4-0.84c-0.13-1.11-0.26-2.2-0.39-3.23c-0.35-0.26-0.61-0.14-0.84,0.02
		c-1,0.66-2.07,1.18-2.97,2c-0.8,0.73-1.85,1.1-2.86,1.47c-0.97,0.36-1.96,0.67-2.95,0.99c-0.91,0.29-1.83,0.54-2.79,0.65
		c-0.82,0.09-1.62,0.4-2.43,0.6c-2.32,0.57-4.63,1.22-6.96,1.76c-2.99,0.69-5.96,1.45-9,1.95c-2.83,0.47-5.62,1.15-8.44,1.7
		c-1.45,0.28-2.91,0.44-4.37,0.68c-3.07,0.5-6.12,1.08-9.2,1.51c-2.18,0.3-4.28,0.95-6.47,1.19c-2.18,0.23-4.33,0.62-6.51,0.88
		c-1.89,0.23-3.78,0.59-5.6,1.2c-1.03,0.34-2.08,0.56-3.15,0.67c-1.11,0.12-2.19,0.37-3.21,0.73c-0.25,0.54-0.16,1.04,0.16,1.41
		c1.08,1.24,1.53,2.79,2.09,4.27c1.09,2.88,2.45,5.63,3.85,8.37c1.03,2.03,2.06,4.05,3.21,6.02c0.74,1.27,1.27,2.66,1.92,3.99
		c0.17,0.36,0.3,0.74,0.66,1.08c0.84,0.12,1.75,0.25,2.61,0.56c1.05,0.38,1.92,0.91,2.33,2.04c0.3,0.84,1.03,1.41,1.56,2.1
		c0.92,1.2,1.59,2.48,1.79,3.99c0.1,0.75,0.32,1.38,1.05,1.77c0.39,0.21,0.59,0.63,0.87,1.05c-0.61,0.53-0.5,1.08-0.03,1.65
		c0.33,0.4,0.53,0.89,0.74,1.36c0.26,0.58,0.44,1.1-0.08,1.65c-0.24,0.26-0.14,0.61-0.02,0.91c0.21,0.52,0.3,1.06,0.41,1.61
		c0.16,0.86,0.51,1.68,1.03,2.4c0.4,0.56,0.72,1.16,0.98,1.78c0.92,2.13,2.13,4.11,3.15,6.18c0.46,0.93,0.81,1.91,0.79,2.97
		c0,0.08-0.01,0.17,0.01,0.24c0.51,1.74-0.18,3.27-0.84,4.8c-0.65,1.52-1.42,2.96-2.55,4.17c-0.54,0.58-0.68,1.34-1.08,1.99
		c-1.36,2.16-2.99,4.03-5.23,5.3c-0.51,0.29-0.87,0.66-1.17,1.15c-0.94,1.52-2.2,2.73-3.72,3.67c-0.47,0.3-0.95,0.58-1.43,0.86
		c-0.19,0.11-0.38,0.09-0.55-0.06c-0.17-0.15-0.22-0.34-0.16-0.54c0.17-0.53,0.37-1.05,0.61-1.56c0.37-0.78,0.87-1.52,1.01-2.38
		c-2.07-1.48-3.6-3.35-4.65-5.54c-0.48,0.42-1.01,0.79-1.42,1.26c-0.66,0.76-1.48,1.33-2.25,1.96c-0.09,0.07-0.19,0.16-0.3,0.18
		c-0.26,0.06-0.53,0.24-0.78-0.03c-0.22-0.23-0.21-0.51-0.1-0.78c0.34-0.85,0.68-1.7,1.03-2.55c0.06-0.15,0.15-0.28,0.07-0.51
		c-2.06-0.57-3.28-2.2-4.46-3.85c-1.4-1.95-2.64-4.01-3.48-6.27c-0.76-2.05-1.5-4.13-1.42-6.38c0.03-0.72,0-1.44,0.01-2.16
		c0.02-1.2,0-2.39-0.24-3.56c-0.13-0.2-0.33-0.2-0.53-0.23c-0.55-0.09-0.83-0.46-0.95-0.96c-0.11-0.48-0.32-0.88-0.65-1.24
		c-1.06-1.15-1.67-2.54-1.9-4.06c-0.19-1.19-0.77-2.06-1.68-2.78c-0.16-0.12-0.31-0.25-0.46-0.38c-0.3-0.27-0.43-0.6-0.16-0.95
		c0.55-0.7,0.5-1.33-0.01-2.07c-0.4-0.58-0.57-1.32-0.9-1.95c-1.42-2.73-3-5.38-4.9-7.79c-1.3-1.66-2.61-3.32-4.07-4.86
		c-1.43-1.5-2.72-3.13-3.85-4.88c-0.29-0.45-0.49-1.01-1.22-1c-0.27,0.01-0.54-0.29-0.53-0.57c0.01-0.49-0.44-0.64-0.63-1.07
		c0.24-0.63,0.07-1.25-0.25-1.88c-0.68-1.31-1.31-2.64-1.97-3.96c-0.03-0.07-0.12-0.11-0.19-0.18c-0.1,0.03-0.26,0.02-0.31,0.09
		c-0.75,0.98-1.49,1.98-2.24,2.95c-0.45,0.59-0.62,1.2-0.26,1.89c0.22,0.42,0.13,0.78-0.23,1.07c-0.49,0.39-0.72,0.84-0.47,1.46
		c0.16,0.39-0.01,0.74-0.28,0.98c-0.53,0.49-0.72,1.12-0.92,1.77c-0.53,1.67-1.06,3.34-1.77,4.95c-0.69,1.55-1.6,2.96-2.78,4.16
		c-1.71,1.73-3.51,3.38-5.27,5.06c-0.44,0.43-1.02,0.62-1.54,0.92c-0.45,0.26-0.93,0.42-1.2,0.93c-0.13,0.24-0.42,0.36-0.71,0.4
		c-0.08-0.03-0.17-0.04-0.22-0.09c-0.53-0.56-1.02-0.43-1.58,0.01c-0.59,0.47-1.25,0.86-1.88,1.28c-0.3,0.2-0.61,0.39-0.99,0.19
		c-0.49-0.26-0.83,0-1.15,0.35c-0.51,0.56-1.03,1.12-1.56,1.66c-0.25,0.25-0.52,0.5-0.83,0.68c-0.48,0.28-1,0.5-1.5,0.75
		c-0.51,0.26-0.62,0.93-1.21,1.15c-0.5-0.06-0.79-0.48-1.17-0.75c-0.65-0.45-0.85-0.5-1.51-0.05c-2.15,1.46-4.23,3-5.92,5.01
		c-1.8,2.14-3.59,4.28-5.47,6.34c-1.18,1.3-2.47,2.49-3.78,3.66c-1.22,1.09-2.31,2.32-3.53,3.41c-2.53,2.26-4.81,4.77-7.44,6.93
		c-1.54,1.26-3.03,2.6-4.48,3.96c-1.43,1.33-2.67,2.85-3.94,4.33c-0.78,0.91-1.57,1.81-2.39,2.68c-0.75,0.81-0.77,0.8-0.62,1.93
		c-0.36,0.34-0.94,0.59-0.7,1.31c0.06,0.19-0.25,0.38-0.43,0.53c-0.27,0.24-0.55,0.46-0.79,0.73c-0.21,0.24-0.36,0.53-0.16,0.88
		c0.2,0.35,0.15,0.7-0.09,1.01c-0.28,0.36-0.4,0.79-0.46,1.22c-0.12,0.86-0.57,1.48-1.23,1.98c-0.61,0.46-0.82,1.1-0.67,1.78
		c0.14,0.63,0.18,1.17-0.37,1.62c-0.23,0.19-0.23,0.5-0.32,0.76c-0.55,1.75-0.98,3.55-1.67,5.24c-1.28,3.15-2.01,6.47-3.15,9.66
		c-0.93,2.6-2.04,5.11-3.18,7.62c-0.55,1.2-1.2,2.33-1.86,3.46c-0.12,0.21-0.26,0.41-0.35,0.62c-0.33,0.75-0.27,1.03,0.33,1.58
		c0.12,0.11,0.26,0.19,0.37,0.3c0.09,0.08,0.15,0.19,0.25,0.33c-0.42,0.96-0.13,1.96,0.1,2.89c0.42,1.73,0.44,3.38-0.24,5.02
		c-0.24,0.59-0.08,1.18,0,1.71c-0.16,0.43-0.6,0.6-0.62,1.07c-0.03,0.74,0.15,1.34,0.83,1.72c0.64,0.35,1.3,0.61,2.05,0.55
		c0.44-0.04,0.88-0.06,1.32-0.08c1.83-0.05,3.15,0.79,3.99,2.36c1.21,2.25,2.35,4.53,3.17,6.96c0.28,0.83,0.65,1.63,0.97,2.45
		c0.3,0.79,0.43,1.56,0.29,2.45c-0.26,1.69-1.01,3.1-2.14,4.33c-0.36,0.39-0.61,0.81-0.82,1.29c-0.3,0.69-0.66,1.37-1,2.04
		c-0.26,0.51-0.6,0.93-1.18,1.17c-0.69-0.61-0.48-1.5-0.8-2.29c-0.43,0.24-0.88,0.09-1.36-0.07c-0.49,0.82-0.9,1.62-1.46,2.35
		c-0.93,1.22-2,2.27-3.25,3.15c-0.34,0.24-0.58,0.52-0.61,0.97c-0.03,0.36-0.12,0.7-0.17,1.06c-0.08,0.58-0.37,1.05-0.73,1.48
		c-0.25,0.3-0.59,0.41-0.97,0.32c-0.4-0.1-0.4-0.45-0.44-0.77c-0.07-0.59-0.16-1.18-0.23-1.78c-0.06-0.51-0.3-0.9-0.76-1.15
		c-0.14-0.08-0.27-0.18-0.41-0.25c-1.58-0.77-2.82-1.93-3.86-3.33c-0.37-0.49-0.6-0.47-1.06-0.01c-0.4,0.41-0.62,0.84-0.67,1.46
		c-0.12,1.54-0.36,3.08-0.97,4.53c-0.21,0.5-0.52,0.88-1.04,1.1c-0.68-0.37-0.69-1.06-0.83-1.65c-0.12-0.54-0.17-1.1-0.28-1.65
		c-0.07-0.35-0.19-0.68-0.29-1.04c-0.2-0.02-0.38-0.09-0.51-0.05c-1.59,0.57-2.98-0.07-4.36-0.7c-0.91-0.42-1.65-1.08-2.31-1.86
		c-1.15-1.33-2.28-2.67-3.14-4.22c-0.09-0.17-0.17-0.37-0.44-0.4c-0.25,0-0.41,0.2-0.54,0.39c-0.36,0.52-0.66,1.09-1.18,1.49
		c-0.24,0.18-0.24,0.5-0.33,0.76c-0.3,0.87-0.55,1.75-0.95,2.58c-0.31,0.64-0.41,0.73-1.3,1.31c-0.71-0.9-0.62-2.12-1.33-3.1
		c-1.66-0.39-2.92-1.65-4.26-2.74c-0.65-0.53-1.28-1.06-1.97-1.54c-1.14-0.79-1.73-1.96-1.78-3.36c-0.05-1.16,0.1-2.32,0.29-3.45
		c0.4-2.41,1.22-4.69,2.09-6.96c0.59-1.55,1.35-3.07,1.53-4.77c0.05-0.5,0.32-0.98,0.49-1.47c0.18-0.5,0.14-0.88-0.39-1.22
		c-0.61-0.4-0.64-0.77-0.14-1.26c0.33-0.33,0.39-0.65,0.4-1.06c0.03-1.37,0.36-2.69,0.79-3.98c0.31-0.94,0.47-1.93,0.99-2.81
		c0.48-0.81,1.05-1.51,1.77-2.08c0.32-0.26,0.6-0.49,0.68-0.93c0.07-0.36,0.26-0.71,0.63-0.82c0.5-0.15,0.65-0.55,0.83-0.95
		c0.62-1.34,1.33-2.65,1.85-4.02c0.85-2.21,2.06-4.23,3.07-6.35c0.24-0.5,0.42-1.04,0.62-1.56c0.61-1.6,1.2-3.2,1.83-4.79
		c0.8-2.01,1.22-4.13,1.89-6.17c0.32-0.98,0.69-1.95,0.95-2.96c0.17-0.68,0.55-1.34,0.3-2.09c0.5-0.85,0.21-2.1,1.34-2.65
		c0.37-0.18,0.5-0.61,0.65-0.98c0.85-2.11,1.64-4.23,2.25-6.43c0.12-0.42,0.31-0.82,0.42-1.25c0.14-0.53,0.45-1.09-0.25-1.48
		c0.38-0.58,0.87-0.97,0.82-1.66c-0.04-0.55-0.04-1.11-0.18-1.71c0.52-0.52,1.18-0.96,1.19-1.83c0-0.16,0.21-0.32,0.33-0.48
		c0.26-0.36,0.47-0.72,0.51-1.19c0.06-0.59,0.4-1.02,0.91-1.31c0.35,0.02,0.54,0.41,0.96,0.3c0.04-0.03,0.17-0.07,0.24-0.15
		c0.15-0.19,0.23-0.43,0.4-0.6c0.33-0.34,0.43-0.7,0.39-1.19c-0.06-0.6,0.14-0.76,0.77-0.69c0.5,0.06,0.85-0.13,1.2-0.41
		c1.67-1.37,3.54-2.45,5.3-3.68c2.23-1.57,4.59-3.01,6.28-5.28c1.04-1.41,2.27-2.68,3.15-4.22c0.94-1.66,1.74-3.39,2.31-5.23
		c0.43-1.37,0.97-2.7,1.5-4.04c1.27-3.19,2.54-6.38,3.54-9.67c0.71-2.34,1.7-4.56,2.93-6.67c1.19-2.04,2.57-3.93,4.38-5.49
		c0.66-0.57,1.24-1.25,1.8-1.92c0.92-1.12,2-2.06,3.17-2.91c1.32-0.96,2.6-1.96,3.91-2.93c0.16-0.12,0.34-0.2,0.51-0.3
		c0.59-0.37,1.25-0.65,1.34-1.51c0.04-0.37,0.41-0.62,0.82-0.49c0.46,0.14,0.75-0.06,1.08-0.33c0.21-0.17,0.47-0.3,0.73-0.41
		c0.79-0.35,1.74-0.34,2.35-1.06c0.78,0.04,1.44-0.46,2.21-0.46c0.2,0,0.4-0.01,0.57-0.18c-0.02-0.48-0.26-0.9-0.38-1.36
		c-0.13-0.54-0.04-0.84,0.44-1.12c0.48-0.27,0.96-0.59,1.57-0.37c0.57,0.2,1.09-0.1,1.66-0.2c0.3-0.25,0.31-0.72,0.68-0.94
		c0.69-0.4,0.87-1,0.6-1.74c-0.07-0.19-0.1-0.37-0.02-0.58c0.18-0.44,0.42-0.77,0.96-0.72c0.23,0.02,0.47,0,0.76,0
		c0.13-0.69,0.49-1.13,1.18-1.27c0.09-0.42,0.19-0.84,0.25-1.27c0.04-0.28,0.07-0.56,0.24-0.8c0.38-0.54,0.57-1.11,0.52-1.78
		c-0.05-0.63,0.36-0.93,1-0.94c-0.04-0.87,0.27-1.55,0.65-2.22c0.3-0.52,0.5-1.08,0.66-1.67c0.22-0.83,0.34-1.65-0.31-2.4
		c0.59-0.65,0.3-1.2-0.12-1.73c-0.1-0.13-0.23-0.23-0.32-0.36c-0.38-0.52-0.41-0.79,0.05-1.27c0.45-0.47,0.75-1.03,1.09-1.57
		c0.22-0.35,0.31-0.74,0.38-1.12c0.07-0.36,0.05-0.72-0.26-1c-0.09-0.08-0.17-0.17-0.24-0.27c-0.78-1.08-0.87-1.52,0.28-2.23
		c0.06-0.04,0.11-0.11,0.2-0.22c0.04-0.22,0.04-0.51,0.13-0.77c0.2-0.56,0.17-1.1-0.1-1.62c-0.32-0.62-0.34-1.22,0.09-1.81
		c0.05-0.06,0.13-0.13,0.13-0.2c0-0.94,0.63-1.71,0.71-2.62c0.25-2.94,0.71-5.86,0.52-8.82c-0.06-0.92-0.01-1.84-0.01-2.76
		c0-0.51-0.08-0.98-0.3-1.48c-0.29-0.65-0.48-1.45,0.18-2.1c0.22-0.22,0.21-0.51,0.2-0.79c-0.08-1.27,0-2.55-0.19-3.82
		c-0.07-0.47-0.1-0.97-0.03-1.43c0.27-1.78,0.24-3.58,0.38-5.36c0.17-2.24,0.54-4.43,1.03-6.61c0.48-2.14,0.82-4.31,1.25-6.45
		c0.3-1.47,0.84-2.9,1.27-4.35c0.12-0.41,0.39-0.8,0.22-1.25c-0.34-0.13-0.45,0.14-0.57,0.31c-0.65,0.96-1.28,1.92-1.91,2.9
		c-0.95,1.48-1.92,2.94-2.83,4.44c-0.98,1.6-1.84,3.25-2.32,5.09c-0.22,0.84-0.61,1.64-0.79,2.51c-0.44,2.14-1.01,4.25-1.36,6.41
		c-0.38,2.31-0.9,4.6-1.35,6.9c-0.4,2.04-1,4.03-1.73,5.97c-0.78,2.07-1.95,3.93-3.2,5.74c-1.52,2.21-3.39,4.09-5.48,5.76
		c-0.79,0.63-1.45,1.43-1.77,2.36c-0.54,1.56-1.56,2.8-2.55,4.02c-1.76,2.16-3.59,4.28-5.56,6.27c-2.74,2.77-5.76,5.16-9.18,7.05
		c-2.7,1.49-5.54,2.66-8.35,3.9c-3.54,1.56-7.11,3.06-10.66,4.62c-1.68,0.74-3.27,1.64-4.86,2.57c-2.35,1.39-4.56,2.95-6.66,4.66
		c-1.18,0.96-2.31,1.96-3.42,3c-2.56,2.4-5.12,4.82-7.64,7.27c-1.28,1.25-2.52,2.56-3.65,3.96c-0.07,0.09-0.18,0.15-0.29,0.24
		c0.92-2.96,1.1-3.9,0.95-4.95c-0.04,0-0.09-0.02-0.12-0.01c-1.53,0.68-3.1,1.28-4.57,2.07c-1.62,0.86-3.15,1.88-4.71,2.86
		c-1.95,1.22-3.63,2.77-5.12,4.49c-1.56,1.81-2.97,3.76-4.42,5.67c-0.6,0.79-1.16,1.63-1.72,2.45c-0.49,0.73-0.99,1.45-1.28,2.29
		c-0.08,0.25-0.16,0.54-0.47,0.64c-0.28-0.12-0.12-0.33-0.11-0.5c0.1-1.47,0.21-2.94,0.3-4.41c0.02-0.28,0.03-0.57-0.04-0.83
		c-0.21-0.79-0.12-1.59-0.18-2.38c-0.12-1.48,0-2.95,0.01-4.43c0.02-3.06,0.55-6.03,1.56-8.91c1.31-3.76,3.17-7.22,5.51-10.45
		c0.44-0.61,0.81-1.28,1.16-1.95c0.71-1.35,1.53-2.62,2.5-3.8c0.1-0.12,0.17-0.26,0.24-0.4c0.01-0.03-0.02-0.07-0.03-0.11
		c-0.78,0.09-2.6,1.18-4.95,2.88c-1.59,1.16-2.94,2.56-4.35,3.92c-1.42,1.37-2.39,3.08-3.7,4.52c0.6-1.24,1.4-2.35,2.27-3.4
		c0.76-0.92,1.55-1.83,2.2-2.83c1.77-2.75,4.11-4.96,6.54-7.11c1.32-1.17,2.87-1.84,4.44-2.51c1.22-0.52,2.32-1.25,3.39-2.01
		c0.3-0.21,0.51-0.52,0.66-0.84c0.97-2.03,1.72-4.11,1.93-6.37c0.16-1.67,0.41-3.32,0.59-4.99c0.08-0.7,0.1-1.41,0.11-2.12
		c0.02-0.88,0.12-1.75,0.16-2.62c0.03-0.82,0.07-1.65,0.09-2.48c0.05-2.24,0.31-4.45,0.68-6.65c0.21-1.26,0.54-2.49,0.86-3.72
		c0.16-0.61,0.45-1.17,0.66-1.77c0.22-0.64,0.42-1.29,0.62-1.93c0.05-0.15,0.11-0.37,0.04-0.46c-0.53-0.71,0.03-1.2,0.31-1.74
		c1.26-2.4,2.6-4.77,3.78-7.22c0.41-0.85,0.88-1.64,1.33-2.46c2.46-4.53,4.86-9.09,7.27-13.64c0.54-1.02,1.05-2.06,1.38-3.18
		c0.87-2.97,2.28-5.69,3.96-8.28c0.87-1.35,1.76-2.68,2.8-3.88c1.06-1.23,2.24-2.38,3.55-3.37c2.42-1.83,5.05-3.34,7.63-4.93
		c0.99-0.61,2.14-0.89,3.16-1.44c2.2-0.2,4.04-1.39,6.03-2.16c1.87-0.72,3.78-1.18,5.8-1.3c1.72-0.1,3.43-0.11,5.14-0.11
		c1.23,0,2.46,0.14,3.69,0.31c0.35,0.05,0.71,0.07,1.07,0.08c0.4,0.01,0.79,0.03,1.18,0.18c0.49,0.18,0.99,0.28,1.51,0.31
		c0.52,0.03,1.03,0.12,1.51,0.33c0.41,0.19,0.85,0.27,1.29,0.21c1.01-0.14,2.04-0.09,3.05-0.27c0.67-0.12,1.36-0.05,2.03,0.07
		c0.99,0.18,1.96,0.31,2.95-0.02c0.4-0.13,0.87-0.1,1.31-0.08c2.56,0.07,5.1-0.17,7.64-0.36c0.47-0.04,0.95,0.12,1.42,0.11
		c1.19-0.03,2.37,0.12,3.57-0.12c0.69-0.14,1.43-0.04,2.15-0.02c2.16,0.06,4.33,0.02,6.45-0.36c2.54-0.46,5.14-0.68,7.57-1.62
		c1.39-0.54,2.68-1.24,3.72-2.32c0.16-0.17,0.35-0.4,0.56-0.43c0.86-0.14,1.28-0.74,1.67-1.42c0.04-0.07,0.11-0.11,0.18-0.17
		c0.29-0.13,0.56-0.02,0.75,0.18c0.48,0.51,0.98,0.43,1.52,0.12c0.28-0.16,0.58-0.27,0.85-0.43c1.06-0.66,2.25-0.99,3.38-1.49
		c0.56-0.25,1.19-0.16,1.72-0.41c0.09-0.16,0.06-0.32,0.06-0.48c0-0.72,0.43-1.2,1.11-1.26c0.28-0.02,0.56-0.01,0.84-0.01
		c0.28,0,0.56,0,0.69,0c0.35-0.13,0.42-0.33,0.53-0.49c0.52-0.77,1.02-0.91,1.81-0.5c0.56,0.29,1.11,0.61,1.64,0.9
		c0.11-0.06,0.21-0.07,0.25-0.13c1.14-1.77,2.52-3.4,3.32-5.38c0.47-1.15,1.08-2.21,1.82-3.22c1.06-1.43,1.37-3.01,0.87-4.76
		c-0.53-1.88-1-3.78-1.51-5.66c-0.19-0.7-0.55-1.35-1.05-1.85c-0.62-0.61-0.94-1.27-0.83-2.13c0.1-0.78-0.14-1.5-0.47-2.19
		c-0.83-1.73-1.42-3.55-2.08-5.35c-0.3-0.8-0.51-1.66-0.98-2.42c-0.29-0.46-0.31-1.06-0.31-1.62c0-0.27,0.01-0.55-0.21-0.74
		c-0.41-0.01-0.53,0.25-0.57,0.53c-0.18,1.44-0.63,2.79-1.12,4.14c-0.08,0.22-0.12,0.47-0.1,0.7c0.07,0.76-0.19,1.42-0.62,2.02
		c-0.47,0.66-0.77,1.4-1.11,2.12c-0.5,1.05-1.14,1.99-1.89,2.88c-0.63,0.76-1.14,1.63-1.66,2.48c-0.47,0.77-0.51,1.68-0.64,2.54
		c-0.16,1.04-0.66,1.77-1.57,2.26c-0.25,0.14-0.5,0.24-0.79,0.25c-1.22,0.07-2.26,0.51-3.26,1.25c-1.18,0.87-2.45,1.64-3.63,2.53
		c-0.65,0.49-1.39,0.81-2.19,0.91c-0.58,0.07-1.11,0.25-1.55,0.58c-0.59,0.45-1.28,0.64-1.9,1c-0.57,0.32-1.05,0.27-1.4-0.22
		c-2.01,0.58-3.94,1.19-5.9,1.7c-0.88,0.23-1.81,0.23-2.72,0.34c-0.24,0.03-0.49,0-0.71,0.08c-1.56,0.58-3.2,0.97-4.68,1.77
		c-1.04,0.56-1.59,1.52-2.11,2.51c-0.07,0.13-0.07,0.31-0.27,0.33c-0.18-0.58-0.08-2.26,0.23-3.57c0.27-1.16,0.46-2.34,0.79-3.49
		c0.35-1.18,0.73-2.35,1.13-3.55c-0.1-0.34-0.42-0.41-0.76-0.56c-1.33,0.62-2.54,1.57-4.13,1.92c0.32-0.8,0.97-1.19,1.51-1.66
		c1.22-1.05,2.2-2.3,3.11-3.61c0.55-0.78,1.01-1.63,1.51-2.45c0.21-0.34,0.4-0.69,0.64-1.01c1.42-1.92,1.99-4.12,2.27-6.45
		c0.16-1.37,0.3-2.77,0.79-4.08c0.13-0.35,0.19-0.7,0.1-1.06c-0.14-0.58,0.01-1.1,0.28-1.61c0.43-0.81,0.82-1.64,1.26-2.45
		c0.67-1.22,1.16-2.53,1.71-3.81c0.53-1.25,1-2.53,1.75-3.67c0.17-0.26,0.26-0.58,0.41-0.93c0.91-0.02,1.18-0.81,1.5-1.45
		c0.15-0.29,0.31-0.51,0.51-0.74c0.18-0.21,0.38-0.42,0.51-0.66c0.33-0.62,0.5-1.4,0.99-1.84c0.49-0.44,1.02-0.85,1.47-1.34
		c0.4-0.43,0.87-0.83,0.95-1.47c0.05-0.38,0.49-0.2,0.67-0.55c-0.11-0.57,0.26-1,0.63-1.49c1.14-1.5,2.51-2.76,3.85-4.06
		c1.03-0.99,2.11-1.94,3.01-3.04c1.06-1.29,2.01-2.69,2.65-4.25c0.68-1.63,1.56-3.14,2.33-4.72c0.28-0.57,0.57-1.13,0.88-1.68
		c0.22-0.41,0.12-0.86,0.21-1.29c0.26-1.13,0.49-2.26,0.7-3.4c0.3-1.59,0.05-3.09-0.38-4.6c-0.02-0.07-0.07-0.15-0.12-0.2
		c-0.05-0.06-0.12-0.1-0.2-0.15c-0.46,0.05-0.5,0.47-0.63,0.77c-0.45,1.03-1.11,1.81-2.24,2.12c-0.19,0.05-0.46,0.13-0.52,0.27
		c-0.41,0.89-1.36,1.27-1.91,2.04c-0.45,0.64-1.25,0.61-1.74,1c-0.33-0.16-0.41-0.31-0.36-0.54c0.07-0.31,0.1-0.64,0.19-0.94
		c0.1-0.3,0.26-0.58,0.36-0.79c0.01-0.39-0.39-0.34-0.43-0.61c0.16-0.35,0.33-0.71,0.49-1.07c0.17-0.4,0.71-0.7,0.55-1.15
		c-0.25-0.7-0.09-1.51-0.67-2.12c-0.29-0.31-0.44-0.75-0.67-1.13c-0.5-0.82-1-1.63-1.89-2.1c-0.34-0.18-0.61-0.51-1.03-0.87
		c-1.1-0.13-1.7-0.66-2.08-2c-0.04-0.15-0.08-0.32-0.17-0.44c-0.67-0.83-0.86-1.97-1.77-2.68c0.08-0.77-0.02-1.49-0.38-2.2
		c-0.28-0.55-0.34-1.17-0.13-1.85c0.34-1.13,0.53-2.31,1.04-3.38c-0.44-0.41-1.04-0.33-1.45-0.65c-0.87-0.68-1.91-0.97-2.88-1.42
		c-0.44-0.2-0.84-0.47-1.2-0.78c-0.56-0.48-0.89-1.03-0.37-1.82c0.57-0.19,1.19-0.4,1.71-0.86c0.45-0.4,1.1-0.54,1.68-0.55
		c1.14-0.02,2.18-0.42,3.22-0.68c0.22-0.27,0.15-0.56-0.05-0.66c-1.23-0.58-1.93-1.78-3.04-2.5c-1.43-0.93-2.66-2.14-4.28-2.82
		c-0.78-0.33-1.44-1-2.11-1.56c-0.95-0.79-1.99-1.46-3.04-2.11c-1.78-1.09-3.33-2.47-4.99-3.71c-1.19-0.89-1.27-0.92-2.27,0.13
		c-1.16,1.21-2.28,2.45-3.44,3.66c-0.33,0.35-0.71,0.64-1.06,0.97c-0.18,0.17-0.39,0.27-0.64,0.27c-0.48,0.01-0.96,0.09-1.44,0.06
		c-3-0.17-5.98-0.01-8.95,0.37c-0.87,0.11-1.75,0.07-2.63-0.01c-2.19-0.2-4.39-0.15-6.58-0.02c-0.32,0.02-0.63,0.07-0.95,0.07
		c-1.96,0.03-3.91,0.02-5.87,0.1c-0.71,0.03-1.28-0.23-1.74-0.65c-0.85-0.77-1.71-1.52-2.44-2.44c-1.56-1.97-3.28-3.81-4.93-5.71
		c-1.05-1.21-2.08-2.43-3.12-3.64c-0.23-0.27-0.45-0.57-0.73-0.79c-1.93-1.54-3.29-3.56-4.7-5.54c-0.38-0.54-0.68-1.14-0.64-1.89
		c0.02-0.54-0.17-1.1-0.3-1.64c-0.44-1.78-0.83-3.57-1.19-5.37c-0.5-2.5-1.2-4.96-1.79-7.44c-0.36-1.51-0.66-3.04-1-4.55
		c-0.23-1,0.33-1.75,0.78-2.53c0.2-0.34,0.49-0.63,0.77-0.91c0.48-0.49,0.91-1,1.19-1.63c0.15-0.32,0.36-0.62,0.58-0.91
		c1.1-1.41,2.22-2.81,3.32-4.23c0.63-0.81,1.22-1.66,1.86-2.46c2.1-2.61,4.23-5.2,6.33-7.82c0.33-0.41,0.68-0.58,1.21-0.62
		c0.83-0.08,1.65-0.26,2.47-0.42c1.33-0.25,2.68-0.4,4.03-0.51c1.19-0.1,2.38-0.22,3.56-0.39c0.4-0.06,0.79-0.06,1.19-0.09
		c0.71-0.06,1.43-0.12,2.14-0.23c1.53-0.24,3.04-0.55,4.62-0.52c0.95,0.02,1.9-0.18,2.84-0.36c0.66-0.12,1.19-0.04,1.81,0.27
		c1.27,0.63,2.36,1.47,3.49,2.3c1.9,1.4,3.99,2.5,6.1,3.54c4.8,2.39,9.36,5.19,13.83,8.12c0.07,0.04,0.12,0.11,0.19,0.15
		c0.99,0.59,1.46,1.37,1.52,2.61c0.11,2.46,0.49,4.91,0.67,7.37c0.14,1.99,0.52,3.95,0.62,5.94c0.13,2.4,0.7,4.73,0.82,7.12
		c0.06,1.16,0.14,2.31,0.26,3.46c0.06,0.57-0.06,1.04-0.45,1.54c-1.07,1.39-2.03,2.86-3.04,4.3c-0.39,0.55-0.8,1.09-1.19,1.65
		c-0.14,0.2-0.2,0.43-0.15,0.73c0.12,0.32,0.46,0.49,0.75,0.69c3.02,2.03,5.83,4.34,8.56,6.74c1.15,1.01,2.42,1.9,3.46,3.04
		c0.05,0.06,0.09,0.15,0.15,0.18c1.38,0.51,2.34,1.6,3.46,2.48c0.05,0.04,0.15,0,0.33,0c0.07-1,0.29-2.01-0.41-2.92
		c-0.36-0.47-0.48-1.02-0.42-1.58c0.08-0.82-0.31-1.54-0.48-2.31c-0.05-0.22-0.24-0.4-0.4-0.66c0.02-0.29,0.27-0.61,0.17-0.97
		c-0.2-0.71,0-1.39,0.13-2.08c0.11-0.58,0.25-1.18-0.07-1.8c-0.55-0.06-0.87,0.32-1.21,0.64c-0.78,0.73-1.55,1.48-2.37,2.27
		c-0.4-0.73,0.26-1.47-0.11-2.29c-0.53,0.8-0.68,1.57-0.75,2.34c-0.08,0.81-0.31,1.55-0.63,2.27c-0.38-0.06-0.25-0.31-0.25-0.46
		c0.07-1.81-0.26-3.57-0.65-5.32c-0.36-1.6-0.04-3.07,0.84-4.44c0.29-0.46,0.59-0.91,1-1.53c-1.29,0.18-2.1,0.9-3.03,1.39
		c-0.89,0.47-1.6,1.29-2.82,1.42c0.71-0.94,1.59-1.41,2.41-1.96c2.59-1.71,4.61-3.9,5.94-6.73c0.68-1.44,1.22-2.95,2-4.35
		c0.16-0.29,0.37-0.63,0.2-1.13c-0.74,0.14-1.49,0.29-2.25,0.43c-0.71,0.13-1.33,0.69-2.21,0.51c1.02-0.86,2.18-1.32,3.21-1.98
		c1.73-1.12,3.2-2.49,4.39-4.18c0.99-1.41,1.79-2.91,2.32-4.55c0.51-1.59,1.07-3.17,1.57-4.77c0.21-0.66,0.48-1.22,1-1.72
		c0.77-0.75,1.29-1.72,1.86-2.63c0.63-1.02,1.25-2.04,1.85-3.08c0.18-0.32,0.36-0.63,0.7-0.79c0.92-0.44,1.6-1.19,2.33-1.86
		c0.45-0.41,0.93-0.75,1.48-1c1.02-0.46,2.06-0.85,3.05-1.39c0.74-0.41,1.63-0.45,2.45-0.17c0.97,0.33,1.96,0.32,2.96,0.35
		c0.68,0.02,1.36-0.01,2.03-0.09c0.83-0.1,1.6-0.36,2.33-0.86c0.94-0.65,1.95-1.23,3.16-1.29c0.31-0.01,0.65-0.09,0.92-0.24
		c0.41-0.23,0.84-0.22,1.28-0.24c1.22-0.03,1.36-0.14,1.73-1.4c2.5-0.91,5.04-1.08,7.58-0.14c2.95,1.1,5.93,2.15,8.74,3.58
		c0.32,0.16,0.65,0.31,0.99,0.43c0.28,0.1,0.54,0.23,0.55,0.55c0.02,0.46,0.36,0.65,0.68,0.73c0.55,0.13,1.02,0.49,1.53,0.61
		c0.9,0.2,1.75,0.78,2.74,0.53c0.15-0.04,0.33-0.03,0.48,0.01c1.77,0.5,3.61,0.61,5.42,0.87c0.27,0.04,0.56,0.08,0.81,0.18
		c1.02,0.44,2.12,0.32,3.17,0.52c0.58,0.11,0.86-0.3,1.24-0.63c2.25,0.41,4.34,1.27,6.19,2.1c0.43,0.43,0.01,0.72,0.33,1.05
		c0.67,0.15,1.07,0.88,1.74,1.23c1.79,0.92,3.22,2.32,4.71,3.63c1.08,0.94,2.13,1.91,3.19,2.87c0.12,0.11,0.24,0.3,0.38,0.24
		c0.66-0.31,0.84,0.25,1.11,0.59c1.43,1.78,2.59,3.76,3.59,5.8c0.54,1.1,1.16,2.15,1.72,3.23c0.55,1.06,1.15,2.09,1.69,3.16
		c0.45,0.89,0.73,1.87,1.27,2.7c0.65,1.01,0.55,2.06,0.56,3.15c0.01,1.47-0.15,2.95,0.22,4.4c0.06,0.24,0.05,0.47-0.06,0.7
		c-0.34,0.7-0.23,1.4,0.11,2.05c0.21,0.4,0.19,0.84,0.39,1.25c0.74,1.49,1.54,2.95,2.5,4.31c2.83,4,5.62,8.04,8.9,11.7
		c1,1.12,1.8,2.3,2.39,3.67c0.71,1.65,1.47,3.28,2.28,4.88c0.56,1.1,1.23,2.14,1.87,3.19c0.83,1.37,1.49,2.82,2.12,4.29
		c0.34,0.79,0.1,1.65,0.35,2.45c-0.42,0.78-0.37,1.78-1.22,2.35c-0.4,0.27-0.75,0.62-1.2,0.78c-1.57,0.55-2.85,1.58-4.17,2.52
		c-1.28,0.92-2.76,1.38-4.19,1.97c-0.21,0.09-0.47,0.08-0.71,0.06c-0.87-0.05-1.73-0.12-2.59-0.2c-0.24-0.02-0.49-0.05-0.69-0.15
		c-1.08-0.55-2.12-0.35-3.22,0c-1.09,0.34-2.26,0.44-3.41,0.42c-0.08,0-0.16-0.03-0.24-0.04c-0.79-0.08-1.61,0.21-2.36-0.12
		c-0.69-0.31-1.37-0.62-2.08-0.9c-0.62-0.24-1.2-0.62-1.75-1.01c-0.75-0.54-1.52-1.01-2.39-1.33c-1-0.37-1.71-1.17-2.48-1.85
		c-0.45-0.4-0.89-0.8-1.44-1.05c-1.15-0.51-2.06-1.35-3-2.16c-1.42-1.22-2.85-2.42-4.47-3.38c-0.64-0.38-1.23-0.88-1.81-1.36
		c-0.59-0.49-1.17-0.61-2-0.42c-0.42,0.93-0.87,1.94-1.34,2.93c-0.53,1.11-0.95,2.28-1.55,3.37c-0.53,0.97-0.92,2.02-1.37,3.04
		c-0.12,0.26-0.18,0.53-0.08,0.93c0.46,0.34,0.97,0.79,0.84,1.58c-0.02,0.14,0.04,0.36,0.14,0.43c0.58,0.41,0.49,1.02,0.58,1.61
		c0.18,1.18,0.48,2.34,0.73,3.51c0.04,0.21,0.17,0.35,0.32,0.49c0.44,0.4,0.93,0.76,1.21,1.31c0.03,0.07,0.1,0.13,0.17,0.16
		c1.17,0.42,2.11,1.27,3.24,1.77c0.22,0.09,0.45,0.2,0.68,0.2c0.61,0.01,1.08,0.26,1.47,0.7c0.18,0.2,0.38,0.32,0.62,0.28
		c0.62-0.1,0.95,0.3,1.28,0.74c0.75-0.22,1.43-0.05,2.11,0.19c1.05,0.38,2.1,0.76,3.16,1.1c0.7,0.23,1.23,0.72,1.84,1.09
		c1.37,0.83,2.86,1.4,4.25,2.2c0.83,0.48,1.65,1.01,2.33,1.66c0.49,0.47,1.04,1.05,0.92,1.88c-0.04,0.26,0.02,0.47,0.23,0.64
		c0.14,0.11,0.18,0.25,0.11,0.42c-0.23,0.54-0.03,1.04,0.22,1.47c0.48,0.85,0.62,1.8,0.96,2.69c0.08,0.21,0.11,0.49,0.05,0.71
		c-0.45,1.73,0.04,3.37,0.47,5.02c0.1,0.38,0.25,0.75,0.27,1.16c0.03,0.44,0.07,0.88,0.35,1.25c0.05,0.06,0.1,0.14,0.1,0.22
		c-0.05,1.25,0.87,2.1,1.3,3.15c0.03,0.07,0.09,0.13,0.13,0.2c0.51,0.84,2.81,2.52,3.78,2.77c0.12,0.03,0.27,0.01,0.34,0.08
		c0.68,0.64,1.55,0.59,2.37,0.62c1.1,0.04,1.86,0.57,2.14,1.59c0.33,1.16,1.03,2,1.9,2.76c0.65,0.58,1.28,1.18,1.79,1.9
		c0.11,0.16,0.25,0.31,0.4,0.45c1.21,1.13,1.99,2.54,2.62,4.04c0.06,0.15,0.07,0.37,0.18,0.43c0.76,0.43,0.88,1.26,1.06,1.94
		c0.37,1.42,0.79,2.85,0.71,4.34c-0.06,1.14,0.19,2.2,0.52,3.28c0.38,1.24,0.85,2.48,0.8,3.83c-0.02,0.39,0.15,0.78,0.2,1.17
		c0.22,1.7-0.13,3.37-0.64,4.94c-0.37,1.13-0.98,2.25-2.12,2.95c-0.45,0.28-0.87,0.72-1.2,1.12c-0.9,1.11-2.06,1.88-3.13,2.78
		c-1.04,0.87-2.25,1.56-3.56,1.92c-2.06,0.56-3.91,1.48-5.63,2.72c-0.86,0.62-1.81,1.1-2.91,1.56c0.08-0.47,0.33-0.64,0.56-0.81
		c1-0.74,1.77-1.71,2.61-2.62c0.61-0.66,0.79-1.45,0.91-2.29c0.27-1.89-0.61-3.39-1.55-4.83c-0.4-0.08-0.6,0.13-0.78,0.34
		c-0.45,0.52-1.02,0.9-1.56,1.3c-0.22,0.17-0.46,0.31-0.72,0.42c-0.75,0.32-1.36,0.18-1.55-0.55c-0.32-1.18-1.25-1.83-1.98-2.66
		c-0.73-0.83-1.55-1.59-2.37-2.35c-0.65-0.6-1.29-1.2-1.84-1.88C217.09,154.29,216.91,154.12,216.63,154.05z M192.86,244.08
		c-0.37-0.04-0.73-0.13-1.08-0.11c-0.46,0.03-0.71-0.33-1.07-0.46c-0.11-0.04-0.24-0.02-0.36-0.03c-1.31-0.08-2.63-0.15-3.94-0.25
		c-1.63-0.12-3.25-0.3-4.88-0.39c-1-0.05-1.99-0.16-2.96-0.39c-2.68-0.64-5.29-1.49-7.9-2.38c-1.7-0.58-3.37-1.24-5.06-1.84
		c-0.9-0.32-1.79-0.69-2.61-1.19c-1.12-0.69-2.23-1.39-3.35-2.09c-0.26-0.16-0.52-0.39-0.91-0.13c-0.13,1.23-0.17,2.51-0.41,3.75
		c-0.44,2.34-0.73,4.71-1.26,7.04c-0.67,2.9-1.6,5.67-3.02,8.28c-0.32,0.59-0.62,1.14,0,1.72c0.08,0.07,0.12,0.21,0.14,0.32
		c0.15,0.8-0.46,2.05-1.18,2.41c-0.21,0.11-0.48,0.09-0.64,0.31c-0.11,0.33-0.2,0.68-0.35,1c-0.51,1.08-0.99,2.18-1.35,3.32
		c-0.34,1.07-0.74,2.11-1.24,3.11c-1.22,2.42-2.57,4.77-3.91,7.12c-0.13,0.23-0.39,0.45-0.01,0.74c0.16-0.07,0.35-0.13,0.52-0.22
		c2.96-1.39,5.98-2.64,9.12-3.6c1.49-0.45,2.92-1.05,4.34-1.68c2.47-1.09,4.74-2.5,6.77-4.25c1.57-1.35,3.06-2.8,4.53-4.26
		c1.62-1.6,3.04-3.39,4.71-4.94c0.06-0.05,0.1-0.12,0.16-0.18c1.58-1.91,3.28-3.71,5.14-5.35c0.6-0.53,1.23-1.02,2.01-1.27
		c0.95-0.3,1.9-0.61,2.86-0.87c1.78-0.47,3.6-0.68,5.44-0.74c0.79-0.03,1.59-0.1,2.38-0.23c1.1-0.19,2.18-0.47,3.31-0.49
		c0.3-0.01,0.61-0.07,0.86-0.45c-1.27-0.45-2.42-0.55-3.58,0.3C193.79,245.02,192.72,245.08,192.86,244.08z"/>
</g>
</svg>
