<?xml version="1.0" encoding="utf-8"?>
<!-- Generator: Adobe Illustrator 23.1.0, SVG Export Plug-In . SVG Version: 6.00 Build 0)  -->
<svg version="1.1" id="Layer_1" xmlns="http://www.w3.org/2000/svg" xmlns:xlink="http://www.w3.org/1999/xlink" x="0px" y="0px"
	 viewBox="0 0 84.5 143.28" style="enable-background:new 0 0 84.5 143.28;" xml:space="preserve">
<g>
	<path d="M3.72,131.25c-0.21,0.09-0.38,0.17-0.64,0.28c-0.49-0.82,0.07-1.44,0.38-2.09c-0.34-0.2-0.44-0.68-0.17-1.07
		c0.29-0.42,0.55-0.89,1.1-1.02c0.62-0.14,0.94-0.66,1.37-1.04c0.5-0.46,1-0.92,1.65-1.16c0.13-0.05,0.28-0.07,0.38-0.16
		c0.6-0.57,1.33-0.82,2.12-0.87c1.08-0.07,2.16-0.21,3.17,0.43c0.41,0.27,0.94,0.24,1.34-0.06c0.64-0.49,1.27-1.02,1.83-1.59
		c0.64-0.64,1.23-1.34,1.81-2.04c0.69-0.85,1.33-1.75,2.02-2.6c0.81-1.01,1.36-2.15,1.9-3.31c0.23-0.49,0.42-1,0.64-1.5
		c0.51-1.14,0.55-2.32,0.34-3.53c-0.08-0.47-0.07-0.94-0.14-1.41c-0.11-0.8-0.21-1.59-0.36-2.38c-0.28-1.48-0.56-2.96-0.88-4.43
		c-0.24-1.13-0.52-2.24-0.8-3.36c-0.22-0.87-0.48-1.73-0.73-2.59c-0.13-0.45-0.31-0.88-0.42-1.33c-0.06-0.23-0.07-0.48-0.03-0.71
		c0.18-0.96,0.38-1.92,0.58-2.87c0.27-1.29,0.36-2.61,0.5-3.92c0.22-2.02,0.46-4.04,1.02-6.02c0.45-1.6,1-3.16,1.61-4.7
		c0.35-0.87,0.69-1.75,1.12-2.58c0.65-1.25,1.37-2.46,2.07-3.67c0.39-0.68,0.8-1.34,1.24-1.99c0.32-0.47,0.69-0.91,1.04-1.36
		c0.29-0.37,0.41-0.79,0.4-1.26c-0.01-1.15,0.03-2.29,0.35-3.41c0.15-0.52,0.3-1.06,0.35-1.59c0.06-0.62,0.06-1.25,0.02-1.87
		c-0.05-0.79-0.19-1.57-0.23-2.35c-0.02-0.55,0.09-1.1,0.1-1.66c0.04-1.22-0.27-2.37-0.72-3.49c-0.09-0.21-0.15-0.43-0.24-0.69
		c-0.96,1.02-1.85,2.03-2.8,2.97c-0.4,0.39-0.93,0.64-1.41,0.95c-0.03,0.02-0.08,0.05-0.11,0.04c-0.54-0.25-1.04,0.18-1.57,0.09
		c-0.27-0.05-0.27-0.02-0.26-0.38c-0.85-0.11-1.12-0.85-1.53-1.43c-0.23-0.33-0.45-0.67-0.65-1.02c-0.28-0.49-0.51-1.01-0.81-1.49
		c-0.91-1.46-1.81-2.93-2.79-4.35c-0.51-0.74-1.18-1.38-1.78-2.08c-1.35,0.29-2.57,0.81-3.65,1.66c-0.47,0.37-1.1,0.37-1.67,0.49
		c-0.77,0.16-1.46-0.01-2.11-0.42c-0.24-0.15-0.56-0.2-0.8-0.36c-0.21-0.13-0.42-0.31-0.52-0.52C6.24,44.14,6.07,44,5.8,43.95
		c-0.15-0.03-0.3-0.09-0.46-0.1c-0.69-0.05-1.04-0.63-1.56-0.95c-0.31-0.19-0.62-0.41-0.95-0.55c-0.64-0.29-1.31-0.51-1.95-0.8
		C0.41,41.34,0.09,40.97,0,40.44c-0.02-0.11,0.03-0.33,0.07-0.33c0.63-0.04,1.13-0.62,1.81-0.42c0.09,0.03,0.18,0.04,0.3,0.06
		c0.11-0.58-0.5-1.33,0.33-1.7c0.82,0.39,1.6,0.8,1.95,1.77c1.41-0.45,2.79-0.9,4.16-1.34c-1.25,0.25-2.33-0.43-3.49-0.62
		c-0.44-0.07-0.86-0.4-0.94-0.94c-0.01-0.1,0.08-0.21,0.12-0.32c0.25,0.21,0.3-0.04,0.37-0.17c0.37-0.66,1.02-0.82,1.67-0.93
		c1.01-0.18,1.97,0.1,2.92,0.37c0.61,0.17,1.18,0.07,1.73-0.15c1.33-0.53,2.61-0.38,3.84,0.28c0.12,0.06,0.19,0.21,0.31,0.27
		c0.35,0.19,0.7,0.4,1.08,0.53c0.75,0.26,1.46,0.64,1.74,1.39c0.29,0.79,0.8,1.39,1.34,1.99c0.97,1.08,2.19,1.86,3.34,2.73
		c0.56,0.43,1.14,0.83,1.71,1.25c0.09,0.07,0.21,0.11,0.31,0.16c0.35-1.07,0.69-2.14,1.04-3.2c0.01-0.04,0-0.09,0.02-0.12
		c0.46-0.68,0.41-1.37,0.29-2.17c-0.11-0.76-0.13-1.59,0.2-2.4c0.24-0.59,0.54-1.18,0.7-1.78c0.28-1.03,0.91-1.75,1.58-2.51
		c0.38-0.43,0.74-0.92,0.86-1.53c0.02-0.11,0.09-0.23,0.16-0.31c0.83-0.83,1.6-1.77,2.95-1.75c-0.14-0.02-0.29-0.05-0.5-0.08
		c0.67-0.19,1.24-0.38,1.89-0.21c0.5,0.13,0.85-0.16,1.26-0.52c0.83-0.71,0.9-1.74,1.37-2.59c0.05-0.08-0.01-0.23-0.02-0.32
		c-0.76,0.25-1.49,0.57-2.24,0.72c-0.75,0.15-1.53,0.2-2.3,0.18c-0.83-0.02-1.4-0.48-1.54-1.25c-0.48-0.06-0.98,0-1.34-0.21
		c-0.55-0.32-1.09-0.72-1.3-1.39c-0.05-0.16-0.16-0.31-0.26-0.45c-0.33-0.46-0.26-0.79,0.15-1.21c0.77-0.8,1.82-1.16,2.72-1.74
		c0.49-0.32,0.88-0.62,0.76-1.29c-0.04-0.24,0.02-0.52,0.11-0.74c0.28-0.66,0.19-1.28-0.12-1.9C31.04,15.4,31,15.19,31,15.01
		c0.01-0.37,0.12-0.75,0.1-1.11c-0.04-0.65,0.14-1.24,0.37-1.84c0.09-0.23,0.08-0.5,0.09-0.75c0-0.03-0.18-0.06-0.29-0.1
		c-0.07-0.15-0.14-0.4-0.27-0.6c-0.96-1.49-1.69-3.08-2.13-4.8c-0.01-0.06-0.04-0.12-0.03-0.17c0.06-0.32,0.13-0.64,0.19-0.96
		c0.27,0.1,0.54,0.18,0.79,0.3c0.97,0.45,1.95,0.91,2.91,1.38c0.4,0.2,0.79,0.43,1.18,0.67c0.25,0.16,0.45,0.08,0.7-0.04
		c0.58-0.29,1.19-0.53,1.8-0.8c0,0.01-0.04-0.08-0.08-0.17c0.52,0.03,1.04,0.06,1.66,0.09c-0.06-0.52-0.14-0.96-0.15-1.41
		c-0.02-0.68-0.04-1.36,0-2.04c0.04-0.69,0.15-1.37,0.24-2.05c0.04-0.33,0.25-0.57,0.55-0.61c0.16-0.02,0.4,0.14,0.53,0.28
		c0.67,0.75,1.28,1.56,1.97,2.29c0.77,0.81,1.6,1.55,2.4,2.33c0.52,0.51,1.01,1.05,1.52,1.57c0.12,0.12,0.24,0.27,0.4,0.33
		c1.11,0.43,1.98,1.14,2.61,2.13c0.47,0.75,0.95,1.5,1.28,2.31c0.31,0.77,0.53,1.61,0.6,2.43c0.09,1.04,0.59,1.83,1.1,2.68
		c0.65,1.09,1.21,2.23,1.78,3.36c0.07,0.14,0,0.35-0.02,0.53c-0.01,0.07-0.05,0.15-0.04,0.22c0.14,0.61,0.29,1.21,0.43,1.82
		c0.01,0.04,0.01,0.08,0.01,0.12c-0.16,1.2,0.38,2.41,0.09,3.57c-0.24,0.94-0.04,1.98-0.63,2.85c-0.09,0.13-0.08,0.34-0.13,0.58
		c0.29,0.07,0.61,0.13,0.91,0.23c0.3,0.1,0.71,0.07,0.79,0.53c0,0.02,0.05,0.06,0.07,0.06c0.77,0.1,1.07,0.74,1.44,1.29
		c0.39,0.58,0.81,1.14,0.85,1.9c0.02,0.33,0.26,0.65,0.44,0.95c0.4,0.68,0.52,1.43,0.61,2.19c0.09,0.75,0.27,1.44,0.72,2.08
		c0.79,1.14,1.16,2.47,1.68,3.74c0.8,1.93,1.49,3.91,2.48,5.77c0.56,1.05,1.21,2.02,2.27,2.72c-0.18,0.11-0.3,0.19-0.46,0.29
		c-0.02-0.01-0.15-0.06-0.25-0.1c0.17,0.56,0.35,1.12,0.52,1.69c-0.05,0.02-0.09,0.04-0.14,0.06c-0.13-0.15-0.26-0.31-0.33-0.39
		c-0.04,0.42-0.08,0.88-0.13,1.33c-0.52,0.17-0.46,0.72-0.7,1.08c-0.69,1.04-1.33,2.11-2.01,3.16c-0.68,1.04-1.43,2.02-2.31,2.91
		c-0.3,0.31-0.56,0.66-0.83,0.99c0.6,0.56,1.22,1.11,1.81,1.68c1,0.97,1.79,2.09,2.46,3.3c0.39,0.71,0.85,1.37,1.62,1.83
		c-0.14,0.04-0.23,0.07-0.38,0.11c1.31,1.64,1.78,3.61,2.26,5.63c-0.07-0.04-0.13-0.07-0.23-0.12c0.2,0.72,0.4,1.4,0.6,2.08
		c0.37,1.28,0.57,2.6,0.75,3.92c0.19,1.37,0.17,2.78,0.67,4.11c0.57,1.5,1.18,2.97,2.14,4.28c0.07,0.09,0.03,0.26,0.04,0.4
		c-0.12-0.04-0.24-0.07-0.35-0.13c-0.07-0.03-0.12-0.1-0.25-0.1c0.23,0.32,0.46,0.63,0.68,0.95c-0.01,0.02-0.02,0.04-0.03,0.06
		c-0.16-0.1-0.32-0.21-0.48-0.31c-0.02,0.02-0.05,0.03-0.07,0.05c0.31,0.46,0.61,0.93,0.95,1.36c0.42,0.54,1.01,1,1.3,1.6
		c0.35,0.72,0.89,1.23,1.43,1.73c1.24,1.14,2.53,2.21,3.78,3.33c0.92,0.83,1.96,1.41,3.08,1.92c0.39,0.17,0.64,0.67,0.94,1.02
		c0.42,0.49,0.83,0.98,1.24,1.47c0.5,0.61,1.04,1.19,1.46,1.85c0.72,1.11,1.09,2.34,0.91,3.75c-0.55,0-1.09-0.05-1.62,0.01
		c-0.85,0.1-1.73,0.02-2.56,0.34c-0.18,0.07-0.45,0.03-0.29,0.36c0.01,0.01-0.04,0.07-0.08,0.09c-1.22,0.71-2.4,1.5-3.84,1.74
		c-0.67,0.11-1.32,0.37-1.98,0.5c-0.75,0.15-1.51,0.23-2.27,0.32c-0.84,0.1-1.68,0.17-2.53,0.25c-0.8,0.07-1.6-0.02-2.4-0.05
		c-0.67-0.02-1.31-0.24-2-0.23c-0.53,0.01-1.07-0.3-1.6-0.49c-0.42-0.15-0.82-0.36-1.25-0.5c-1.11-0.36-1.83-1.18-2.49-2.08
		c-0.15-0.2-0.27-0.42-0.5-0.62c0.05,0.65,0.06,1.31,0.16,1.96c0.16,1.08,0.39,2.16,0.57,3.24c0.18,1.02,0.39,2.02,0.97,2.93
		c0.55,0.86,0.85,1.82,0.73,2.89c-0.05,0.46,0.12,0.94,0.09,1.41c-0.04,0.54-0.22,1.08-0.27,1.62c-0.05,0.67-0.03,1.35-0.03,2.02
		c0,0.17,0.06,0.35,0.07,0.52c0.08,1.66,0.15,3.33,0.25,4.99c0.07,1.19,0.14,2.37,0.25,3.55c0.03,0.32,0.18,0.64,0.3,0.94
		c0.22,0.52,0.52,1,0.55,1.6c0.01,0.26,0.23,0.53,0.39,0.77c0.88,1.27,0.81,2.62,0.4,4.01c-0.04,0.15-0.14,0.29-0.24,0.4
		c-0.45,0.47-0.91,0.92-1.38,1.37c-0.06,0.06-0.17,0.08-0.3,0.15c-0.1-0.41-0.3-0.49-0.68-0.31c-0.22,0.1-0.53,0.09-0.77,0.02
		c-0.76-0.23-1.2,0.23-1.65,0.68c-0.67,0.67-1.46,1.04-2.43,1.02c-0.24-0.01-0.48,0.12-0.72,0.18c-0.18,0.05-0.38,0.16-0.47-0.16
		c-0.02-0.08-0.2-0.12-0.32-0.16c-0.61-0.18-1.2-0.39-1.47-1.05c-0.67,0.5-1.36,0.78-2.19,0.59c-0.27-0.06-0.57,0.03-0.84-0.03
		c-0.19-0.04-0.35-0.23-0.54-0.33c-0.44-0.25-0.89-0.48-1.33-0.73c-0.08-0.05-0.2-0.1-0.22-0.18c-0.21-0.67-0.73-0.62-1.26-0.59
		c-0.11,0-0.26-0.06-0.34-0.15c-0.42-0.48-0.83-0.97-1.23-1.46c-0.07-0.09-0.18-0.19-0.19-0.29c-0.05-1.09-0.07-2.17,0.57-3.15
		c0.45-0.69,0.93-1.44,1.67-1.72c1.03-0.38,1.17-1.26,1.5-2.05c0.53-1.24,1.04-2.49,1.46-3.77c0.27-0.83,0.39-1.71,0.54-2.58
		c0.21-1.16,0.39-2.32,0.58-3.48c0.05-0.33,0.11-0.66,0.14-0.99c0.12-1.52,0.3-3.04,0.26-4.57c-0.02-0.88-0.17-1.72-0.46-2.54
		c-0.31-0.85-0.47-1.78-1.06-2.52c-0.21-0.26-0.39-0.54-0.58-0.81c-0.84-1.14-1.54-2.35-1.89-3.75c-0.36-1.44-0.84-2.84-1.2-4.28
		c-0.12-0.49-0.11-1.03-0.09-1.54c0.03-0.91-0.19-1.76-0.61-2.55c-0.85-1.63-1.28-3.4-1.67-5.17c-0.29-1.29-0.73-2.51-1.31-3.69
		c-0.73-1.5-1.22-3.09-1.67-4.68c-0.17-0.62-0.25-1.26-0.39-1.99c-0.31,0.55-0.56,1.01-0.84,1.45c-0.83,1.34-1.7,2.65-2.84,3.76
		c-0.54,0.53-1.05,1.11-1.62,1.6c-0.52,0.44-1.1,0.81-1.67,1.2c-0.99,0.67-1.66,1.63-2.3,2.59c-0.15,0.22-0.11,0.63-0.03,0.92
		c0.2,0.68,0.53,1.31,1.06,1.81c0.88,0.83,1.28,1.93,1.5,3.07c0.16,0.85,0.14,1.74,0.13,2.61c0,0.42-0.15,0.84-0.23,1.26
		c-0.16,0.89-0.3,1.78-0.48,2.66c-0.11,0.57-0.23,1.16-0.43,1.7c-0.44,1.22-0.32,2.45-0.2,3.7c0.12,1.2,0.64,2.25,1.03,3.35
		c0.25,0.73,0.43,1.48,0.18,2.24c-0.12,0.37-0.36,0.73-0.63,1c-0.77,0.79-1.6,1.52-2.38,2.29c-0.41,0.4-0.81,0.82-1.14,1.29
		c-0.78,1.1-1.59,2.18-2.49,3.19c-1.01,1.13-1.94,2.33-2.91,3.49c-0.42,0.5-0.86,0.98-1.25,1.5c-0.26,0.36-0.41,0.8-0.68,1.16
		c-0.44,0.58-0.92,1.12-1.78,1.11c-0.24,0-0.54,0.25-0.73,0.46c-0.47,0.53-1.12,0.63-1.74,0.78c-0.55,0.14-1.14,0.13-1.68,0.28
		c-0.53,0.15-1.01,0.11-1.5-0.07c-0.15-0.05-0.29-0.12-0.43-0.17c-0.57-0.19-1.06-0.12-1.56,0.28c-0.28,0.23-0.71,0.38-1.07,0.39
		c-1.03,0.02-2.07-0.03-3.09-0.12c-0.33-0.03-0.65-0.24-0.95-0.42c-0.18-0.11-0.3-0.13-0.53-0.1c-1.01,0.14-2.02,0.12-2.95-0.37
		c-0.45-0.24-0.74-0.63-0.73-1.18C3.76,131.48,3.74,131.39,3.72,131.25z M52.85,58.87c0.4-1.16,0.79-2.36,1.22-3.55
		c0.31-0.86,0.66-1.71,1.04-2.55c0.33-0.73,0.71-1.44,1.13-2.28c-0.46-0.33-1.01-0.71-1.55-1.1c-0.27-0.2-0.53-0.41-0.78-0.63
		c-0.34-0.32-0.63-0.7-1.01-0.97c-0.43-0.31-0.79-0.67-1.1-1.11c-0.51-0.73-1.07-1.42-1.61-2.14c-0.17,0.41-0.27,0.87-0.53,1.22
		c-0.6,0.79-1.26,1.54-1.91,2.29c-0.4,0.46-0.83,0.93-0.91,1.54c-0.14,1.02-0.22,2.04-0.25,3.07c-0.04,1.4,0.5,2.6,1.49,3.58
		c0.33,0.33,0.7,0.66,1.11,0.86c0.53,0.26,0.98,0.58,1.34,1.03c0.07,0.08,0.17,0.21,0.25,0.2c0.38-0.04,0.69-0.03,1.02,0.29
		C52,58.82,52.43,58.78,52.85,58.87z"/>
</g>
</svg>
