<?xml version="1.0" encoding="utf-8"?>
<!-- Generator: Adobe Illustrator 24.0.2, SVG Export Plug-In . SVG Version: 6.00 Build 0)  -->
<svg version="1.1" id="Layer_1" xmlns="http://www.w3.org/2000/svg" xmlns:xlink="http://www.w3.org/1999/xlink" x="0px" y="0px"
	 viewBox="0 0 2100.47 1628.75" style="enable-background:new 0 0 2100.47 1628.75;" xml:space="preserve">
<style type="text/css">
	.st0{fill:#1A1A1A;}
</style>
<g>
	<path d="M1307.94,1291.4c0.54,6.35,0.76,12.95,1.73,19.43c2.68,18.06,5.04,36.14,5.12,54.44c0.05,12.19,3.49,23.64,8.02,34.79
		c12.79,31.47,27.5,62.05,43.08,92.21c4.88,9.45,10.23,18.68,16.75,27.16c1.22,1.59,2.12,3.78,4.13,4.13
		c5.58,0.95,8.05,5.41,11.29,9.14c6.97,8,13.96,15.99,21.23,23.71c2.46,2.62,3.61,5.15,3.58,8.74c-0.05,7.14-1.58,13.55-5.41,19.82
		c-4.39,7.19-9.78,13.46-15.35,19.6c-2.4,2.65-5.63,4.72-8.81,6.44c-14.04,7.6-28.62,13.88-44.36,17.06
		c-4.61,0.93-9.24,1.02-13.82-0.5c-6.36-2.12-12.73-3.14-19.26-0.37c-4.78,2.03-9.06,0.46-13.06-2.45
		c-5.44-3.95-10.38-8.69-13.5-14.4c-4.82-8.82-11.12-16.53-16.69-24.77c-1.93-2.86-3.49-5.38-3.39-9.01
		c0.4-14.12-2.22-27.67-7.01-41.01c-3.75-10.44-4.91-21.36-1.88-32.41c0.97-3.54,0.63-7.21-0.32-10.86
		c-1.77-6.78-4.11-13.35-6.99-19.72c-3.3-7.29-5.57-14.92-7.98-22.54c-2.56-8.09-1.52-15.88,0.73-23.55
		c1.72-5.86,1.13-10.78-1.7-16.21c-2.59-4.99-5.69-9.61-8.42-14.47c-20.05-35.66-41.71-70.48-57.67-108.29
		c-8.02-18.98-15.76-38.13-21.5-57.96c-4.8-16.59-8.82-33.41-10.88-50.6c-0.37-3.11-0.93-5.67-3.25-8.01
		c-14.85-14.96-26.77-32.1-38.08-49.85c-11.63-18.24-20.87-37.9-33.51-55.53c-2.47-3.45-3.82-7.74-5.52-11.71
		c-5.24-12.23-10.5-24.45-17.44-35.84c-0.35-0.57-0.64-1.17-0.9-1.78c-5.88-14.02-13.21-27.44-18.55-41.63
		c-5.37-14.27-9.99-28.93-12.71-44.03c-0.72-3.97-1.76-7.75-3.41-11.59c-3.46,0.03-5.99-0.57-6.96-4.79
		c-1.29-5.61-3.67-10.98-6.15-18.09c-2.39,4.73-2.65,7.98-2.14,11.08c1.55,9.5-0.45,18.48-3.03,27.52
		c-3.84,13.47-5.42,27.43-5.82,41.3c-0.22,7.54,0.73,15.07-0.38,22.73c-1.01,6.91-3.73,12.76-8,17.95
		c-5.49,6.68-11.1,13.28-17.09,19.5c-3.12,3.24-4.16,6.72-3.76,10.85c0.38,3.96,0.83,7.94,1.61,11.83
		c1.07,5.34,1.56,10.44-1.43,15.47c-2.36,3.96-1.89,8.25-0.54,12.56c1.88,6,3.52,12.06,4.9,18.23c1.5,6.7,5.56,13.02,11.15,17.2
		c2.71,2.02,4.2,3.89,4.85,6.85c3.26,14.93,6.9,29.79,9.64,44.81c4.24,23.19,8.76,46.35,11.29,69.81c1.5,13.86,2.4,27.8,3.04,41.74
		c0.41,8.96,1.07,17.92,1.72,26.83c1.94,26.66-2.48,51.67-16.11,74.84c-0.67,1.15-1.29,2.33-1.9,3.5c-0.15,0.29-0.21,0.63-0.34,1.04
		c-0.11,3.16,2.16,5.41,3.53,8c1.72,3.23,3.5,6.44,5.55,9.46c5.73,8.42,5.79,16.54,2.06,26.29c-5.57,14.51-9.03,29.83-13.47,44.78
		c-0.56,1.89-1.12,4.17-2.48,5.35c-6.53,5.65-7.13,13.18-7.08,20.9c0.07,10.67-3.18,20.27-8.81,29.17
		c-1.23,1.94-2.56,4.39-4.45,5.26c-9.18,4.19-13.93,13.21-21.52,19.11c-7.06,5.49-13.5,11.78-20.63,17.18
		c-3.89,2.94-8.82,4.38-12.69,7.6c-1.11,0.93-3.12,1.11-4.71,1.07c-5.62-0.14-11.27,0.76-16.85-1.06c-4.54-1.48-9.48-0.9-13.85,0.21
		c-8.81,2.22-17.26-0.12-25.66-1.28c-11.09-1.54-21.74-5.45-32.38-8.98c-4.38-1.45-8.63-3.37-12.79-5.38
		c-3.51-1.7-6.2-8.63-5.34-12.55c2.93-13.41,10.36-24.28,19.29-34.29c4.6-5.16,9.31-9.41,16.54-11.85
		c9.33-3.15,17.28-9.99,24.72-16.62c15.16-13.5,30.31-27.06,41.48-44.36c2.13-3.3,5.08-6.19,8.04-8.83
		c6.44-5.74,8.45-12.97,8.39-21.27c-0.1-15.04-3.22-29.71-5.12-44.53c-5.44-42.57-16.35-84.12-23.7-126.34
		c-1.14-6.54-2.79-13-4.24-19.48c-2.33-10.41-4.25-20.85-3.77-31.6c0.32-7-2.22-13.28-7.08-18.04c-9.42-9.22-12.33-19.88-9.94-32.7
		c2.18-11.67,0.82-23.32-4.7-33.86c-3.97-7.58-4.01-14.6-0.19-21.81c2.69-5.08,4.73-9.85,2.24-15.81c-0.9-2.16-0.15-5.38,0.69-7.83
		c1.59-4.63-0.14-8.03-2.21-12.1c-6.62-13.03-13.55-25.91-18.82-39.62c-3.32-8.64-4.09-17.38-3.93-26.44
		c0.41-23.64,4.73-46.86,7.47-70.24c1.12-9.56,1.16-19.26,2.69-28.74c2.48-15.47,1.46-31.18,3.93-46.64
		c2.89-18.02,5.33-36.11,7.81-54.2c0.86-6.29,2.45-12.36,4.28-18.41c2.2-7.29,5.4-14.27,6.48-21.94c0.36-2.52,1.89-4.96,3.21-7.25
		c3.32-5.77,6.75-11.48,10.31-17.1c1.59-2.51,3.13-5.61,5.53-6.93c4.9-2.7,6.75-7.16,8.7-11.73c5.37-12.53,10.62-25.13,16.05-37.63
		c1.36-3.12,1.89-6.27,2.24-9.62c3.11-30.22,1.03-60.56,2.16-90.8c0.62-16.63,1.03-33.23,1.13-49.86c0.02-3.68-0.08-7.33-1.38-10.82
		c-5.61-15.02-8.78-30.63-10.89-46.49c-2.73,0.36-3.58,2.3-3.51,4.19c0.29,7.65-2.9,14.23-5.97,20.88c-0.83,1.8-2.17,3.77-2,5.54
		c0.35,3.59-0.8,5.69-4.04,7.04c-0.79,0.33-1.77,1.43-1.79,2.19c-0.15,7.66-5.73,10.7-11.22,13.45c-1.7,2.89,0.72,4.64,1.36,6.7
		c3.62,11.57,4.3,30.04,1.72,42.04c-5.5,25.68-11.27,51.29-17.71,76.75c-4.48,17.74-10.22,35.1-15.53,52.59
		c-1.75,5.78-4.49,11.18-9.34,15.08c-6.76,5.43-7.25,12.65-4.92,19.93c2.84,8.88,5.41,17.81,7.54,26.87
		c1.15,4.89,3.69,9.21,5.34,13.9c2.84,8.12,3.43,16.29,2.8,24.61c-0.33,4.38-0.3,8.68,0.59,12.9c2.6,12.4,0.47,24.42-2.47,36.41
		c-0.31,1.27-0.78,2.57-1.48,3.65c-1.61,2.5-4.93,2.98-6.84,0.71c-3.87-4.59-8.39-9.5-7.91-15.7c0.96-12.39-4.55-23.24-6.71-34.72
		c-4.22-3.88-8.52-4.74-13.63-1.81c-4.75,2.72-9.08,5.3-9.73,11.57c-1.67,16.17-4.52,32.23-3.71,48.61
		c0.35,6.96,1.92,13.8,1.46,20.86c-0.5,7.57-3.54,13.19-10.57,16.92c-3.03-3.75-4.4-8.4-8.79-10.68c-1.12-0.58-1.6-2.82-1.96-4.38
		c-1.96-8.39-3.83-16.8-5.64-25.22c-0.35-1.61-0.34-3.3-0.41-4.96c-0.61-14.27,1.19-28.59-1.71-42.84
		c-0.81-3.99,0.35-8.68,1.62-12.73c2.43-7.75,2.32-15.78,3.15-23.65c0.8-7.63,1.94-15.18,3.37-22.66
		c1.39-7.31,1.56-14.48,0.36-21.78c-1.34-8.14-2.79-16.26-1.56-24.6c0.38-2.58-0.14-5.3-0.38-7.94c-0.12-1.31-0.94-2.66-0.75-3.89
		c1.98-12.82-0.56-25.71,0.85-38.59c1.08-9.89,1.02-19.9,2.59-29.77c3.55-22.3,7.3-44.56,12.63-66.52
		c3.14-12.91,5.97-25.9,9.29-38.77c1.61-6.24,2.52-12.69,9.52-16.53c3.31-1.81,4.93-6.87,3.31-11.65c-1.55-4.57-0.51-9.02,0.41-13.7
		c3.66-18.66,10.76-36.3,15.51-54.64c2.32-8.94,6.58-17.4,10.2-25.97c3.4-8.05,5.68-16.09,5.06-25.1
		c-0.66-9.61,1.32-19.19,2.41-28.76c1.35-11.87,2.74-23.73,3.83-35.63c0.91-9.93,4.58-19.36,5.04-29.37
		c0.07-1.46,1.37-3.01,2.42-4.25c3.24-3.78,6.37-7.73,10.04-11.06c5.4-4.91,10.95-9.77,16.94-13.92
		c12.57-8.7,24.58-18.26,37.96-25.79c2.33-1.31,4.59-2.3,7.34-2.76c8.11-1.34,15.02-9.44,15.83-17.82
		c0.81-8.43,2.25-11.81,7.36-16.96c-2.3-3.08-3-6.47-0.32-9.83c2.29-2.88,4.23-5.78,3.58-9.82c-0.17-1.08,0.62-2.7,1.5-3.49
		c4.83-4.32,6.11-9.83,6.92-16.02c0.58-4.47,3.54-8.56,4.05-13.28c0.18-1.64,0.67-3.24,0.88-4.88c0.51-4.06-3.44-7.69,0.18-12.48
		c2.26-3,1.42-8.31,2.05-12.58c0.73-4.92,1.9-9.75,2.06-14.79c0.2-6.16,3.98-11.18,6.58-16.83c-1.34-1.81-2.63-3.73-4.12-5.49
		c-7.81-9.24-7.91-20.16-6.32-31.16c1.11-7.67,8.68-10.58,15.12-6.34c1.94,1.28,3.6,2.96,5.53,4.26c1.91,1.29,3.99,2.33,6.74,3.91
		c13.27-7.66,26.93-14.97,42.31-18.69c15.09-3.65,29.69-9.32,45.01-11.86c1.4,3.87-3.12,4.54-2.69,7.44
		c3.87,0.76,6.43-2.99,10.85-2.93c0.89,3.67-6.02,8.43,0.93,11.55c3.22-0.16,4.58-3.2,6.72-5.15c4.23-3.86,8.8-7.13,14.56-8.24
		c5.56-1.07,8.4,0.25,9.79,5.75c1.69,6.66,3.68,13.63-1.91,19.79c-2.08,2.29-2.05,4.91,0.34,7.08c6.91,6.26,11.14,14,13.04,23.08
		c0.13,0.63,0.43,1.31,0.85,1.79c4.84,5.52,5.93,12.44,7,19.29c0.54,3.48,1.66,6.47,4.63,8.43c3.55,2.33,4.31,5.5,3.61,9.48
		c-0.75,4.27-1.12,8.67,0.24,12.86c1.7,5.25-0.42,9.76-2.34,14.28c-1.03,2.42-2.35,4.86-4.07,6.83c-2.39,2.75-3.01,5.74-2.72,9.17
		c0.11,1.32,0.08,2.67-0.03,4c-0.44,5.31-2.53,9.32-7.74,11.73c-7.05,3.26-13.87,6.05-21.96,3.68c-3.71-1.09-7.86-0.61-11.78-1.06
		c-5.87-0.67-9.35,2.21-11.83,7.51c3.36,5.25,6.43,10.43,8.13,16.75c1.32,4.93,3.66,11.38,10.71,13.09
		c2.38,0.58,5.12,2.52,6.31,4.63c3.1,5.48,9.87,6.87,12.83,12.34c0.39,0.72,1.6,1.12,2.51,1.42c8.44,2.84,16.74,6.25,26.05,6.97
		c1.19-2.85,2.32-5.56,3.4-8.17c2.29-1.59,4.55-1.05,6.82-0.36c9.58,2.89,18.56,6.41,26.14,13.71c6.4,6.17,14.54,10.45,22.6,14.53
		c6.46,3.28,13.23,6.22,17.38,12.9c2.85,4.6,5.29,9.49,6.25,14.6c2.3,12.2,8.48,22.2,16.02,31.61c6.92,8.63,11.24,18.83,17.17,28.06
		c5.07,7.89,4.48,16.32,2.19,24.64c6.1,15.69,11.2,31.5,15.72,47.51c1.04,3.66,1.92,6.93,5.92,9.56c5.13,3.38,8.84,8.93,13.15,13.55
		c2.85,3.05,4.03,6.79,4.59,10.84c2.02,14.82,4.13,29.63,3.47,44.65c-0.25,5.63,0.9,10.57,5.93,13.65c-0.48,1.66-0.84,2.92-1.2,4.18
		c0.31,0.56,0.47,1.35,0.94,1.64c6.56,4.11,10.12,10.58,12.76,17.37c2.75,7.1,4.64,14.53,5.69,22.16
		c1.94,14.15,4.42,28.21,4.07,42.61c-0.11,4.55,0.58,9.22,1.74,13.81c1.71,6.76,2.54,13.73,2.06,20.76
		c-0.87,12.89,0.89,25.82-1.15,38.74c-0.81,5.13-0.18,10.54,0.58,15.88c0.93,6.54,1.14,13.36,0.42,19.93
		c-2.38,21.74-3.47,43.66-10.21,64.81c-2.86,9-4.51,18.25-3.4,28.28c1.34,12.09,1.09,24.57-1.84,36.68
		c-1.33,5.5-2.9,10.86-5.39,16.02c-3.17,6.56-5.34,13.49-7.25,20.61c-4.64,17.31-10.8,34.15-20.23,49.58
		c-1.02,1.67-1.72,3.56-2.45,5.39c-1.38,3.45-3.28,6.61-5.95,9.15c-7.44,7.1-14.95,14.13-22.57,21.02
		c-2.27,2.05-5.35,2.54-8.35,2.92c-3.06,0.39-6.1,0.46-8.25-2.2c-2.62-3.23,0.72-5.45,1.76-8.65c-7.18-6.15-4.44-14.05-2.23-21.46
		c1.61-5.43,3.07-10.66,3.47-16.41c0.62-8.88,3.02-17.59,4.55-26.39c1.51-8.67,0.83-17.1,1.05-25.8c-4.08-1.62-7.01-0.51-9.92,1.19
		c-1.14,2.9-2.05,5.58-1.56,8.74c1.28,8.32-2.44,14.08-9.88,17.51c-3,1.38-6.11,2.63-9.29,3.47c-2.75,0.72-5.57-1.9-4.93-4.68
		c2.1-9.11,2.07-18.47,3.52-27.59c0.97-6.09,4.1-11.91,6.67-17.66c2.31-5.17,4.45-10.35,6.03-15.81
		c2.85-9.84,8.06-18.06,16.79-23.94c5.78-3.89,11.14-8.41,16.76-12.56c6.57-4.86,9.06-11.17,7.1-19.16c-0.4-1.61-0.77-3.24-1.3-4.81
		c-5.07-14.78-9.59-29.79-15.49-44.23c-3.95-9.66-6.49-19.53-8.4-29.62c-2.29-12.07-4.3-24.2-5.92-36.38
		c-1.28-9.56-4.61-18.69-5.22-28.37c-0.76-11.92-2.01-23.8-2.76-35.72c-0.54-8.61-0.61-17.26-0.89-26.11
		c-9.32-1.62-6.23-9.51-7.6-14.54c-2.62-2.95-5.68-2.76-8.65-3.1c-6.36-0.73-7.6-2.98-5.36-9.25c0.33-0.94,0.73-1.85,1.2-3.05
		c-2.11-4.82-5.54-8.77-9.5-12.35c-1.98-1.78-4.08-3.6-3.84-6.65c0.71-9.09-2.33-17.69-3.5-26.53c-1.12-8.51-3.09-16.92-4.14-25.43
		c-0.36-2.92-0.86-5.3-3.45-6.61c-3.75-1.89-5.03-4.77-5.05-8.89c-0.04-6.66-3.18-11.97-7.84-16.33c-2.91,0.67-2.77,3.1-3.22,4.75
		c-1.09,4.09-3.43,6.67-6.82,9.29c-9.11,7.04-13.87,16.25-13.67,28.35c0.25,15.16-4.37,29.51-10.04,43.44
		c-2.76,6.77-5.83,13.43-9,20.02c-2.64,5.48-3.98,11.21-4.71,17.2c-3.43,28.43-5.25,56.91-4.73,85.58
		c0.61,33.28-1.45,24.3,12.74,49.96c0.64,1.16,1.09,2.46,1.84,3.54c19.31,28.12,32.11,59.77,48.59,89.43
		c3.22,5.8,5.87,11.95,8.47,18.07c5.2,12.24,6.26,25.09,4.92,38.18c-1.6,15.6,1.48,30.4,7.31,44.77c3.26,8.01,6.05,16.17,8.71,24.41
		c3.37,10.42,8.32,20.28,11.38,30.85c1.68,5.81,3.14,11.66,2.39,17.64c-0.66,5.27,0.74,9.88,2.73,14.49
		c8.88,20.53,19.8,39.94,32.01,58.65c15.48,23.72,32.67,46.11,51.16,67.59c11.57,13.44,24.56,25.18,38.01,36.61
		c9.05,7.7,19.8,13.56,26.64,23.77c0.53,0.79,1.48,1.31,2.29,1.88c15.19,10.77,30.32,21.61,45.61,32.23
		c3.8,2.64,7.87,5.16,12.19,6.7c7.26,2.59,14.28,5.67,20.82,9.59c13.87,8.3,29.09,13.07,44.34,17.78
		c20.33,6.29,40.74,12.32,61.02,18.77c7,2.23,14.04,4.21,21.27,5.16c10.2,1.34,20.48,2.12,30.75,2.96
		c9.27,0.76,18.27,3.19,27.6,3.79c32.57,2.12,65.17,1.98,97.75,1.39c15.58-0.28,31.02-3.1,46.33-6.16c1.6-0.32,3.15-1.2,4.7,0.15
		c1.39,1.79-1.81,2.63-0.63,5.08c3.01,0.26,6.73,1.56,9.84,0.68c9.6-2.72,19.59-2.97,29.22-5.76c23.33-6.77,45.98-15.54,68.51-24.33
		c26.29-10.25,53-19.91,77.49-34.31c16.34-9.61,32.82-19.1,47.49-31.2c9.51-7.84,17.79-17.03,26.26-25.98
		c10.27-10.87,19.9-22.35,30.89-32.56c2.53-2.35,4.94-4.25,9.11-3.2c-0.07,6.34-1.85,12.2-4.55,17.27
		c-7.21,13.53-12.33,27.98-19.34,41.59c-8.28,16.07-18.57,30.83-29.38,45.12c-8.8,11.62-19.37,21.91-29.3,32.67
		c-4.33,4.69-10.06,7.64-15.3,11.16c-15.47,10.4-31.14,20.52-48.01,28.58c-5.99,2.86-12.19,5.27-18.95,8.17
		c-0.01,5.51-3.12,8.86-8.73,11.03c-11.74,4.54-23.35,9.6-34.7,14.97c-19.68,9.31-40.94,13.41-61.11,20.87
		c-18.19,6.73-37.13,10.18-55.82,14.77c-12.24,3-24.32,6.64-36.56,9.65c-6.76,1.66-13.64,3.25-20.55,3.73
		c-11.98,0.84-23.69,3.34-35.51,5.1c-15.08,2.25-30.04,3.97-45.3,1.92c-6.24-0.84-12.63-0.51-18.94-0.76
		c-12.95-0.51-25.85-1.72-38.8-2.28c-13.55-0.59-27.05-2.74-40.55-4.35c-6.6-0.78-13.18-1.16-19.85-1.23
		c-8.26-0.08-16.54-1.19-24.75-2.25c-14.48-1.87-29.02-3.02-43.48-5.18c-28.13-4.21-54.82-13.46-81.6-22.37
		c-9.43-3.14-18.4-7.65-27.6-11.5c-2.45-1.02-5.02-2.8-7.44-2.65c-8.5,0.51-15.28-3.95-22.59-6.92
		C1310.87,1291.02,1310.1,1290.13,1307.94,1291.4z"/>
	<path class="st0" d="M1798.73,1237.06c0.25,1.26,0.5,2.51,0.82,4.16c4.54,1.95,9.21,2.35,14.26,1.38
		c9.32-1.8,18.76-3.02,28.07-4.85c4.21-0.83,8.42-2.18,12.34-3.94c17.29-7.75,35.3-13.55,53.04-20.08
		c27.36-10.07,54.5-20.97,79.8-35.7c9.73-5.67,18.99-12.14,29.12-17.18c6.32-3.15,10.97-8.56,16.42-12.87
		c15.93-12.61,30.17-26.95,43.27-42.53c6.34-7.54,13.26-14.79,21.19-20.55c2.99,1.38,2.29,3.44,1.74,5.24
		c-0.68,2.22-1.6,4.37-2.55,6.49c-9.2,20.52-19.64,40.44-29.95,60.4c-7.51,14.55-18.9,26.51-28.77,39.47
		c-9.55,12.53-21.17,22.94-32.9,33.27c-1.73,1.53-3.65,3.03-5.74,3.96c-9.77,4.33-18.69,10.09-27.76,15.66
		c-10.71,6.58-21.97,12.18-34.04,15.98c-2.13,0.67-4.25,1.79-5.53,3.77c-0.2,1.99,2.21,1.14,2.53,2.53
		c-2.55,3.31-5.55,6.07-9.5,7.77c-7.88,3.38-15.3,7.61-23.51,10.49c-9.96,3.49-20.21,6.62-29.43,12.08
		c-1.67,0.99-3.67,1.54-5.58,1.97c-17.71,3.9-35,9.07-51.81,15.97c-6.2,2.55-12.99,4.21-19.66,4.98
		c-10.87,1.25-21.27,4.14-31.55,7.48c-14.16,4.6-28.46,8.78-43.2,10.46c-15,1.72-29.8,4.94-44.75,6.25
		c-16.44,1.45-33.06,1.67-49.62,0.76c-7.61-0.42-15.22-0.62-22.67-2.5c-1.92-0.48-4.06-0.96-5.93-0.58
		c-12.32,2.53-24.41-0.94-36.56-1.58c-8.44-0.44-16.93-2.2-25.41-3.3c-5.27-0.68-10.36-2.01-15.68,0.05
		c-3.34,1.29-6.34-1.44-9.63-1.82c-7.43-0.86-15.03,0.13-22.35-1.74c-8.98-2.31-18.24-1.72-27.36-3.19
		c-21.4-3.45-42.03-9.57-62.63-15.96c-19.06-5.91-38.04-12.07-55.97-20.99c-1.46-0.73-3.12-1.68-4.64-1.59
		c-9.89,0.56-17.64-5.26-26.26-8.47c-3.33-1.24-4.23-4.2-4.67-7.13c-2.05-13.5-5.65-26.66-8.36-40c-1.48-7.26-4.44-13.93-6.94-20.71
		c-8.95-24.25-16.14-49.19-27.86-72.39c-2.84-5.63-4.87-11.66-7.66-17.32c-1.22-2.47-2.27-5.65-6.65-6
		c-1.6,5.15-0.79,10.24-0.05,15.56c-4.46-6.72-8.83-13.37-12.12-20.66c-0.72-1.59-0.48-3.16-0.12-4.84
		c0.54-2.58,0.58-5.26,1.05-7.85c1.64-9.1,0.17-16.8-7.67-23.07c-5.82-4.65-8.42-11.08-4.79-18.7c1.72-3.62,0.8-7.09-1.07-10.48
		c-2.73-4.95-5.44-9.93-7.9-15.02c-1.75-3.62-2.01-7.3-1.38-11.55c1.68-11.27,5.45-21.83,8.85-32.6
		c4.79-15.17,8.34-30.73,12.65-46.97c3.97,5.05,5.72,10.44,7.75,15.48c6.26,15.53,15.11,29.62,24.12,43.55
		c6.68,10.32,11.92,21.53,19.62,31.19c14.29,17.91,27.18,36.9,42.91,53.71c10.96,11.72,22.73,22.38,35.39,32.17
		c4.91,3.8,10.59,6.81,13.58,12.76c0.7,1.39,2.28,2.41,3.61,3.39c9.35,6.89,18.73,13.74,28.14,20.55c1.32,0.95,2.79,1.95,4.33,2.29
		c5.1,1.14,9.33,4.19,12.71,7.56c8.14,8.11,18.17,12.49,28.45,16.78c6.13,2.56,12,5.74,18.03,8.57c13.23,6.2,26.97,10.99,41,15.08
		c12.73,3.71,25.11,8.71,37.96,11.86c15.32,3.75,29.96,9.95,45.85,11.83c7.42,0.88,14.93,1.32,22.37,2.44
		c11.02,1.66,22.14,3.05,33.26,4.27c5.84,0.64,11.67-0.26,17.66,0.37c10.15,1.07,20.41,2.53,30.74,1.78
		c5.95-0.43,11.89-0.28,17.88-1.01c6.48-0.79,13.12-0.69,19.81-0.16c14.53,1.16,29.02-0.37,43.28-3.82
		C1788.89,1237.97,1793.86,1237.72,1798.73,1237.06z"/>
	<path class="st0" d="M1001.58,878.9c14.6-5.58,29.41-1.89,44.8-0.73c-0.17-0.13,0.66,0.17,0.83,0.69
		c4.25,13.23,10.88,25.65,13.64,39.38c0.71,3.55,0.52,7.28,0.64,10.93c0.38,11.61-0.89,23.27,1.45,34.84
		c1.13,5.59,2.68,10.95,5.26,16.05c5.12,10.1,10.15,20.24,15.17,30.38c4.94,9.96,12.37,18.08,19.66,26.27
		c2.95,3.31,4.92,6.94,6.61,10.99c2.4,5.76,3.89,12.04,8.71,16.64c2.6,2.49,2.98,5.92,2.13,9.32c-0.57,2.28-1.28,4.49-0.57,7.11
		c2.31,3.77,7.28,4.01,10.49,6.96c1.25,4.05,2.08,8.34,3.87,12.19c3.51,7.55,3.82,14.67-0.96,21.75c-0.73,1.08-1.04,2.44-1.52,3.61
		c1.85,6.76,6.82,11.57,10.89,16.64c6.62,8.23,8.9,17.53,10.47,27.37c-2.52,2.35-7.3-3.89-7.41,4.25
		c-5.15-5.21-9.44-8.93-12.98-13.26c-12.05-14.68-23.39-29.86-31.67-47.1c-2.3-4.78-4.91-9.48-7.92-13.85
		c-8.9-12.88-15.71-26.93-23.16-40.62c-9.06-16.64-16.34-34.1-24.43-51.2c-2.94-6.21-6.8-11.98-7.57-19.07
		c-0.17-1.57-0.72-3.6-1.83-4.47c-3.75-2.93-4.6-7.32-5.92-11.29c-4.78-14.4-10.36-28.53-14-43.33c-1.71-6.97-3.7-14.15-8.93-19.7
		c-0.66-0.7-1.26-1.66-1.44-2.59C1004.14,898.12,998.97,889.76,1001.58,878.9z"/>
</g>
</svg>
