<?xml version="1.0" encoding="utf-8"?>
<!-- Generator: Adobe Illustrator 24.0.2, SVG Export Plug-In . SVG Version: 6.00 Build 0)  -->
<svg version="1.1" id="Layer_1" xmlns="http://www.w3.org/2000/svg" xmlns:xlink="http://www.w3.org/1999/xlink" x="0px" y="0px"
	 width="861.26" height="604.96" viewBox="0 0 861.26 604.96" style="enable-background:new 0 0 861.26 604.96;" xml:space="preserve">
<g>
	<path d="M605.14,540.01c7.77,2.61,15.47,2.99,23.04,3.53c7.48,0.53,13.71,3.15,19.31,7.99c6.56,5.65,14.04,10.15,20.44,16.02
		c5.33,4.89,9.78,10.46,13.07,16.91c2.71,5.32,1.99,7.62-2.77,10.92c-2.67,1.85-5.52,2.97-8.71,3.48
		c-9.62,1.53-18.87,0.57-27.82-3.48c-5.15-2.33-10.86-3.77-15.34-7.14c-7.05-5.3-14.84-8-23.17-10.59
		c-7.87-2.45-15.46-3.77-23.45-3.07c-9.66,0.85-19.3,1.13-28.93,0c-12.28-1.44-24.21,0.84-36.18,3.04
		c-6.22,1.14-12.48,2.13-18.77,2.8c-7.12,0.76-13.8-1.4-20.43-3.77c-4.98-1.78-9.57-4.51-14.72-5.86c-3.25-0.85-6.64-1.7-9.86-0.96
		c-7.94,1.83-16.07,2.78-23.85,5.4c-3.34,1.12-5.76,3.16-7.93,5.78c-4.25,5.13-8.44,10.32-12.95,15.21
		c-5.76,6.25-10.49,5.71-15.41-1.23c-6.65-9.39-7.15-19.87-5.11-30.57c1.24-6.51,3.45-12.85,8.3-18.41
		c-4.67-3.48-7.1-8.29-8.73-13.57c-3.15,0.15-5.81,1.16-8.65,1.1c-5.12-0.12-7-2.53-4.9-7.34c1.86-4.26,3.97-8.43,6.78-12.2
		c1.05-1.41,2.67-2.61,2.37-4.94c-7.16-0.22-13.06-4.16-19.4-6.83c-2.28-0.96-3.93-1.14-5.88,0.44
		c-8.85,7.16-19.42,11.53-28.94,17.64c-8.53,5.48-18.64,7.03-28.81,6.7c-3.07-0.1-5.16,0.41-7.13,3.18
		c-2.17,3.06-5.26,5.52-8.13,8.04c-4.58,4.01-9.96,3.16-15.15,1.81c-3.18-0.83-6.27-2.24-9.21-3.75
		c-11.35-5.85-23.37-5.9-35.59-4.39c-3.19,0.39-6.02,1.83-8.8,3.36c-1.02,0.56-1.92,1.42-3,1.78c-9.55,3.22-15.43,10.41-20.96,18.36
		c-7.69,11.04-16.27,21.45-23.86,32.6c-2.87,4.21-7.96,5.78-12.49,7.93c-8.3,3.94-17.48,5.04-26.02,8.24
		c-3.66,1.37-8.06,0.78-11.85-0.33c-4.49-1.32-9.04-2.09-13.6-2.96c-2.76-0.53-6.11-0.67-6.85-4c-0.86-3.86-0.15-7.61,3.17-10.44
		c6.9-5.87,14.46-10.7,22.84-14.14c3.19-1.31,4.91-3.51,6.34-6.56c3.57-7.59,3.32-14.37-1.62-21.52
		c-8.32-12.03-15.07-25.01-21.78-38.03c-5-9.73-10.5-19.26-16.07-28.71c-2.4-4.08-6.13-7-9.58-10.14
		c-6.91-6.29-14.67-11.52-21.98-17.31c-2.3-1.82-6.7-1.8-9.17-0.14c-2.21,1.49-4.34,3.09-6.6,4.5c-11.29,7.04-23.28,8.37-35.89,4.19
		c-4.1-1.36-5.97-5.64-3.94-9.47c4.37-8.2,8.01-16.84,14.12-24.02c2.26-2.66,4.5-5.35,6.82-7.96c0.53-0.6,1.28-1.16,2.03-1.38
		c7.21-2.17,13.61-6.26,20.67-8.77c5.21-1.85,10.58-1.01,15.8-0.24c7.81,1.16,14.94,4.41,21.84,8.17c2.25,1.22,3.88,3,5.34,5.11
		c4.9,7.08,10.86,13,18.68,16.95c6.04,3.05,8.15,2.58,13.14-2.19c8.14-7.77,10.05-16.23,6.19-27.12c-3.08-8.7-7.35-16.06-13.63-22.7
		c-7.43-7.85-14.37-16.22-19.52-25.79c-4.29-7.97-0.95-13.58,8.17-14.15c3.82-0.24,7.5-1.4,11.41-1.08
		c13.79,1.15,24.83,7.62,34.38,17.22c5.87,5.9,11.63,11.95,17.93,17.37c6.51,5.6,9.54,12.51,10.46,20.79
		c2.23,20.04,6.1,39.79,10.49,59.45c0.06,0.28,0.39,0.51,0.77,0.96c2.24-0.13,2.47-2.13,3.23-3.68c3.68-7.48,7.43-14.84,13.96-20.46
		c5.49-4.73,11.38-8.61,18.12-11.27c2.63-1.04,5.23-2.18,7.74-3.47c2.87-1.48,5.04-3.64,6.38-6.74c3.85-8.94,9.03-17.12,15.75-24.13
		c6.72-7,11.37-6.07,17.49-1.5c7.59,5.67,11.79,13.42,14.17,22.32c0.47,1.77,1.24,3.52,1.43,5.27c0.7,6.66,4.99,8.3,10.83,9.29
		c9.51,1.61,19.01,3.1,28.64,3.72c3.24,0.21,5.72-0.75,8.12-2.9c10.68-9.52,19.71-20.26,25.86-33.3c2.26-4.8,5.81-8.57,10.81-10.63
		c2.52-1.04,3.95-2.76,4.86-5.29c4.15-11.57,5.78-23.5,5.63-35.95c-2.44-0.89-4.69-1.95-7.06-2.54
		c-9.56-2.37-17.69-7.57-25.66-12.98c-9.99-6.78-13.78-16.04-9.21-28.15c5.89-15.6,16.83-26.92,30.99-35.35
		c4.65-2.77,4.65-2.76,6.87-6.11c-3.07-3.42-7.11-5.88-11.17-7.78c-2.53-1.18-5.14-2.24-7.43-3.82c-8.74-6.02-18.91-9.85-26.59-17.5
		c-1.05-1.04-2.4-1.78-3.23-3.07c-6.45-10.01-10.47-20.75-9.86-32.88c0.42-8.14,0.12-16.31,1.07-24.45
		c0.58-4.97,1.12-9.92,2.53-14.71c0.96-3.27,0.38-5.95-1.24-8.98c-7.17-13.36-13.07-27.28-17.77-41.73
		c-2.41-7.42-5.37-14.71-6.78-22.39c-2.24-12.22-5.86-24.25-5.61-36.86c0.09-4.53,0.85-8.94,1.65-13.37
		c0.35-1.93,1.65-2.85,3.17-3.54c8.21-3.73,16.62-3.77,25.28-1.6c9.03,2.27,18.17,4.13,27.26,6.18c11.69,2.63,23.2,5.86,34.41,10.16
		c6.33,2.43,12.42,2.13,18.37-2.16c9.12-6.57,19.21-11.41,30.49-12.86c5.85-0.76,10.69-4.31,16.66-4.78
		c7.77-0.61,15.5-2.39,23.29-2.33c8.92,0.07,17.85,0.88,26.71,2.27c6.09,0.96,12.11,2.16,18.07,3.7c2.72,0.7,5.16,0.46,7.65-1
		c10.51-6.18,21.89-10.42,33.3-14.53c8.31-2.99,17.04-4.35,25.76-5.56c2.14-0.3,4.24-0.58,6.36-1.07
		c9.11-2.14,18.19-1.29,27.09,1.26c3.23,0.92,4.56,3.51,4.66,6.92c0.21,7.35-0.44,14.64-1.18,21.93c-1.3,12.91-2.4,25.87-5.17,38.56
		c-2.68,12.31-4.3,24.9-9.24,36.66c-1.28,3.04-2.2,6.25-3.34,9.34c-1.14,3.09-0.05,6.66,1.38,9.91c6.5,14.8,12.12,29.92,14.29,46.05
		c0.91,6.74,1.7,13.53-0.62,20.27c-2.04,5.95-5.6,10.26-11.11,13.48c-9.96,5.83-20.84,8.5-31.94,10.81
		c-10.28,2.15-20.23,5.52-30.07,9.13c-3.63,1.33-3.95,3.06-1.97,6.65c2.2,3.99,3.69,4.55,6.79,2.89c9.31-5.01,19-8.73,29.77-8.98
		c3.15-0.07,6.29-0.47,9.43-0.99c6.23-1.02,11.79,2,17.25,4.07c14.17,5.36,25.46,15.03,35.26,26.31
		c6.78,7.81,13.37,15.73,21.51,22.19c7.58,6.02,7.36,10.5,4.38,20.46c-4.26,14.25-15.33,21.95-27.65,28.6
		c-13.36,7.22-27.73,8.93-43.09,8.89c-2.26,6.74-4.95,13.52-6.79,20.53c-2.75,10.44-4.84,21.05-7.35,31.56
		c-1.23,5.14,0.64,7.77,6.12,8.27c14.47,1.3,28.48-0.67,42.33-5.03c9.51-3,18.97-6.08,28.26-9.72c3.93-1.54,7.32-3.94,11.03-5.81
		c11.31-5.7,22.14-12.3,32.26-19.84c10.95-8.16,20.8-17.63,29.02-28.67c3.37-4.53,7.12-8.78,10.64-13.2
		c2.38-2.99,5.71-4.88,8.25-7.83c10.49-12.25,17.87-26.41,25.7-40.31c4.81-8.55,9.66-17.09,13.15-26.3
		c4.93-13.03,10.29-25.93,12.41-39.85c0.98-6.42,3.24-12.56,4.74-18.88c3.66-15.48,4.42-31.26,5.82-46.98
		c0.5-5.64,0.75-11.3,0.54-16.97c-0.08-2.09,0.54-3.97,1.58-5.7c1.38-2.29,3.24-2.92,5.95-1.96c6.9,2.47,10.7,8.3,14.87,13.61
		c9.58,12.22,15.84,26.18,19.98,41.03c2.64,9.45,3.94,19.22,5.33,28.95c2.52,17.68,4.63,35.47,3.49,53.25
		c-0.99,15.38-2.33,30.83-6.02,45.97c-2.45,10.03-5.9,19.74-8.23,29.81c-1.78,7.72-5.38,15.01-7.97,22.55
		c-2.49,7.24-5.5,14.31-9.8,20.54c-7.29,10.55-11.34,23.04-19.89,32.76c-7.27,8.26-13.05,17.65-19.89,26.23
		c-11.03,13.84-23.47,26.34-36.87,37.86c-6.18,5.32-12.04,10.98-18.4,16.13c-7.11,5.75-14.01,11.76-22.12,16.01
		c-14.43,7.55-28.12,16.46-43.19,22.87c-9.61,4.09-19.09,8.28-29.32,10.61c-5.88,1.34-11.92,1.19-17.81,2.38
		C617.23,530.34,608.25,535.72,605.14,540.01z"/>
</g>
</svg>
