<?xml version="1.0" encoding="utf-8"?>
<!-- Generator: Adobe Illustrator 24.0.2, SVG Export Plug-In . SVG Version: 6.00 Build 0)  -->
<svg version="1.1" id="Layer_1" xmlns="http://www.w3.org/2000/svg" xmlns:xlink="http://www.w3.org/1999/xlink" x="0px" y="0px"
	 viewBox="0 0 856.88 860.48" style="enable-background:new 0 0 856.88 860.48;" xml:space="preserve">
<g>
	<path d="M657.07,813.98c-2.08-2.3-4.29-1.95-6.39-1.46c-16.03,3.74-32.11,2.42-48.2,0.57c-25.52-2.94-48.71-11.83-69.43-27.06
		c-4.25-3.13-8.98-5.04-14.14-5.81c-6.95-1.04-13.69-2.85-20.29-5.21c-1.98-0.71-3.97-1.03-5.86-0.35
		c-7.26,2.59-14.8,2.15-22.27,2.09c-11.82-0.09-23.59-0.71-35.1-4c-8.17-2.34-16.32-4.6-24.12-9.39
		c-3.18,8.49-9.44,15.14-10.45,24.27c-0.57,5.21,0.59,10.28,0.75,15.43c0.23,7.55-2.69,12.45-9.74,14.61
		c-19.46,5.98-39.38,9.95-59.54,12.3c-9.74,1.13-19.13,3.75-28.8,5.01c-5.43,0.71-10.82,1.78-16.38,2.72
		c-2.21-2.26-3.81-4.58-1.98-7.8c-8.36-2.73-15.96,1.18-23.8,1.76c-13.44,1-26.4,5.51-39.97,5.58c-1.75,0.01-3.87,0.9-5-1.12
		c-1.19-2.14,0.28-3.71,1.62-5.29c1.92-2.25,3.91-4.48,5.44-7.63c-9.31-2.07-19.13,3.21-28.19-2.39
		c5.41-9.27,11.69-16.96,18.65-24.09c1.55-1.58,2.34-2.79,1.94-5.13c-0.59-3.43,0.76-6.12,4.23-7.57c6.3-2.63,12.51-5.45,18.07-9.5
		c1.21-0.88,2.52-1.63,3.65-2.6c6.28-5.38,6.21-5.38,3.03-13.2c-6.22-15.26-8.02-31.16-6.75-47.49c0.29-3.67,0.47-6.86-3.1-9.65
		c-2.77-2.16-5.33-5.15-6.61-8.64c-1.23-3.35-3.43-5.14-6.81-5.8c-1.3-0.25-2.63-0.54-3.82-1.09c-4.51-2.07-8.13-2.3-11.47,2.59
		c-2.15,3.15-5.96,4.32-10.29,3.28c-4.86-1.16-9.93-1.12-14.93-0.8c-14.45,0.91-28.95,0.38-43.4,1.62
		c-8.64,0.74-17.05,2.81-25.69,3.53c-9,0.75-17.07-1.27-23.65-7.19c-4.92-4.43-9.49-4.57-15.35-2.45
		C53.8,693.58,35,701.17,16.95,710.58c-2.65,1.38-5.42,2.58-8.24,3.55c-5.14,1.78-8.21-0.16-8.61-5.5
		c-0.52-6.89,0.91-13.32,3.54-19.85c5.84-14.55,16.65-25,27.07-36.04c7.56-8.01,15.86-15.16,23.62-22.91
		c5.1-5.09,10.47-9.78,17.39-12.29c1.62-0.59,2.77-1.74,3.58-3.31c5.29-10.3,13.47-16.43,25.08-18.41
		c9.67-1.65,18.87-5.28,28.25-8.12c7.54-2.29,15.24-3.6,22.96-4.74c13.16-1.95,26.32-3.95,39.67-4.39
		c8.98-0.3,16.93,3.01,24.94,6.19c1.87,0.74,3.56,1.71,5.64,1.56c9.71-0.68,19.3,0.58,28.87,1.9c3.97,0.55,7.26-0.28,10.93-1.97
		c4.88-2.24,7.95-5.37,10.89-9.89c9.8-15.01,22.42-27.22,39.13-34.55c2.08-0.91,2.65-2.28,2.68-4.24c0.06-3.49,0.26-6.96,0.56-10.44
		c0.77-9.14,1.63-18.19,7.04-26.07c0.43-0.62,0.62-1.61,0.51-2.37c-1.03-6.92-0.88-13.94-1.46-20.9c-0.56-6.74-0.5-13.61,0.21-20.42
		c0.15-1.45,0.77-2.94-0.18-4.43c-2.14-0.77-3.32,0.92-4.73,1.93c-13.1,9.38-20.32,22.52-24.32,37.8
		c-1.91,7.28-5.15,14.07-8.93,20.53c-3.49,5.95-8.05,10.69-14.87,13.42c-7.08,2.84-13.59,7.09-20.93,9.38
		c-4.25,1.33-8.53,2.81-12.62-1.05c-1.76-1.66-4.52-1.06-6.69-0.05c-12.63,5.85-25.95,9.35-39.6,11.72
		c-2.96,0.51-4.46,2.86-5.89,5.03c-3.78,5.72-8.99,9.17-15.56,10.9c-4.96,1.31-9.63,3.62-15.06,2.95c-2.67-0.33-5.25-0.5-7.7-1.72
		c-1.18-0.59-2.47-1.14-3.77-1.3c-12.44-1.49-20.99-9.61-29.43-17.6c-12.32-11.67-18.25-26.66-21.36-43.07
		c-2.78-14.68-2.23-29.13,1.87-43.45c2.49-8.68,5.41-17.64,12.09-23.64c6.45-5.79,10.47-12.99,15.3-19.73
		c7.48-10.44,17.08-18.6,27.07-26.38c5.02-3.91,5.8-3.34,7.41,2.63c0.97,3.62,0.93,7.27,1.06,10.9c0.2,5.65-0.03,11.32,0.05,16.97
		c0.05,3.63-2.08,7.04-0.83,10.92c0.37,0.47,1.19,0.48,1.65,0.17c4.38-2.96,9.47-3.88,14.41-5.35c2.55-0.76,4.1-0.56,4.77,1.39
		c7.97,0.13,15.72,0.44,20.06-7.58c7.04-3.51,14.26-6.3,22.29-6.47c5.64-0.12,11.17-1.65,16.9-0.93c3.97,0.5,8.03,0.67,11.76,2.13
		c2.65,1.03,4.75,0.47,7.35-0.77c-1.45-3.31-4.25-5.22-6.42-7.52c-5.85-6.21-10.97-12.75-14.02-20.9
		c-2.49-6.68-5.61-13.14-8.65-19.61c-2.82-5.98-7.19-10.75-12.37-14.82c-13.53-10.66-28.21-19.43-43.7-26.9
		c-3.65-1.76-6.68-4.22-9.43-7.22c-1.6-1.74-2.49-3.59-2.58-5.75c-0.32-7.88,1.14-15.56,3.26-23.08c0.76-2.72,3.08-4.26,6.3-3.52
		c4.7,1.08,9.43,2.06,14.14,3.1c10.4,2.29,20.79,4.66,31.22,6.85c2.35,0.49,4.89,1.22,7.62-0.7c-2.96-7.1-10.95-11.14-12.41-19.49
		c4.02-1.53,7.81-3.16,11.73-4.41c5.03-1.6,4.85-1.5,5.69-7.1c0.83-5.51,0.39-10.97,0.22-16.46c-0.04-1.23,0.36-2.75-1.39-3.48
		c-2.29,0.44-1.99,2.8-2.83,4.23c-1.17,2-2.52,2.76-4.81,2.62c-4.18-0.25-8.24-1.12-12.3-2c-3.54-0.77-5.68,0.21-7.78,3.41
		c-4.83,7.37-10.16,14.41-15.47,21.45c-3.83,5.07-7.5,5.34-11.72,0.76c-7.89-8.55-16.13-16.87-21.52-27.4
		c-0.2-0.39-0.77-0.59-1.36-1.02c-4.68,2.17-8.17,6.1-12.43,8.92c-12.63,8.36-23.91,18.55-36.63,26.8
		c-5.73,3.71-10.31,8.91-16.17,12.5c-8.51,5.22-16.92,10.62-25.38,15.91c-3.15,1.97-5.27,0.7-5.62-3.05
		c-0.33-3.54,1.58-6.46,2.65-9.5c1.47-4.18,3.38-8.28,5.84-12.1c12.17-18.89,24.14-37.9,36.32-56.78c3.33-5.17,7.2-10,10.7-15.07
		c7.19-10.4,13.21-21.58,20.89-31.66c6.35-8.35,12.8-16.62,17.81-25.9c0.47-0.87,1.2-1.63,1.02-2.85c-1.82-1.53-3.91-1.95-6.38-1.65
		c-23.44,2.87-46.89,5.76-70.35,8.41c-11.21,1.26-22.4,2.65-33.55,4.36c-4.97,0.76-9.97,0.46-14.94,0.99
		c-2.15,0.23-4.1-0.46-4.71-2.79c-0.7-2.69,1.14-4.03,3.26-4.85c9.16-3.55,18.33-7.06,27.53-10.51
		c19.33-7.25,39.02-13.42,58.75-19.44c11.76-3.59,23.69-6.67,35.16-11.1c9.62-3.71,19.12-7.7,28.98-10.76
		c6-1.86,7.82-6.97,9.85-12.45c-5.5-1.58-10.8-2.27-16-2.37c-10.04-0.2-19.8-2.38-29.68-3.62c-19.8-2.47-39.52-5.63-59.21-8.89
		c-5.23-0.87-10.41-2.14-15.67-2.97c-1.88-0.3-4.22-0.86-4.38-3.38c-0.16-2.49,1.89-3.19,3.87-3.87c4.49-1.54,9.22-1.03,13.82-1.58
		c15.68-1.88,31.41-3.74,47.17-4.53c12.79-0.65,25.6-1.13,38.42-1.47c13.8-0.36,27.58-1.2,41.37-1.8c1.63-0.07,2.74-0.63,3.62-2.12
		c3.62-6.17,9-10.7,14.83-14.57c10.48-6.96,20.92-13.9,32.46-19.25c14.49-6.72,29.52-11.04,45.11-13.98
		c9.65-1.82,19.22-4.05,29.01-5.02c17.93-1.78,35.87-2.88,53.73,0.64c6.57,1.29,12.76,3.83,18.67,6.93
		c7.08,3.72,13.9,7.9,20.4,12.57c5.52,3.96,9.63,8.66,8.21,16.3c-0.54,2.91-0.22,5.98-0.33,8.98c-0.2,5.59,1.43,8.44,6.56,10.05
		c7.78,2.44,15.7,4.44,23.85,5.16c7.02,0.62,13.68,2.79,20.48,4.38c14.91,3.48,29.58,7.82,44.17,12.45
		c6.35,2.01,12.61,4.26,18.53,7.34c3.05,1.58,3.59,2.91,2.05,5.95c-2.02,3.98-5.43,6.69-8.94,9.27c-10.63,7.81-22,14.42-33.65,20.56
		c-1.61,0.85-3.31,1.55-4.88,3.1c1.91,3.25,5.5,3.65,8.41,4.67c18.25,6.34,36,13.92,53.75,21.5c0.31,0.13,0.61,0.28,0.91,0.41
		c5.93,2.55,5.92,2.55,10.21-2.23c12.93-14.43,24.08-30.19,34.52-46.46c4.13-6.44,9.3-10.15,17.33-9.27
		c8.1,0.89,16.25,1.26,24.36,2.09c5.83,0.6,7.13,1.94,8.07,7.63c0.32,1.96,0.5,4,0.32,5.97c-1.78,19.04-3.31,38.11-4.8,57.18
		c-0.84,10.77-1.42,21.64-2.82,32.28c-1.39,10.51,2.13,18.59,6.87,27.23c4.94,9.01,8.54,18.75,12.72,28.18
		c1.88,4.26,3.77,8.52,5.59,12.8c1.35,3.18,3.6,4.43,7.1,4.16c14.06-1.06,27.67,1.65,40.26,7.48c11.47,5.3,21.71,12.84,30.27,22.4
		c8.26,9.22,15.69,18.94,20.7,30.37c2.08,4.75,4.16,9.43,4.18,14.76c0.02,3.5,1.63,6.68,2.19,10.13c0.93,5.78,1.12,11.6,1.26,17.35
		c0.16,6.46-1.16,13.07-4.31,18.8c-4.8,8.72-9.63,17.51-18.11,23.52c-3.19,2.27-6.71,3.61-10.25,5.01
		c-1.22,0.48-2.62,0.55-3.34,1.49c7.12,12.82,14.12,25.51,18.18,39.67c2.61,9.09,6.55,17.77,9.33,26.85
		c1.97,6.45,3.44,12.91,2.99,19.63c-0.29,4.25,1.17,7.25,4.42,9.84c4.16,3.32,8.01,7.04,12.14,10.41
		c7.65,6.24,12.72,14.43,17.56,22.79c0.95,1.63,2.06,2.92,3.46,4.15c7.01,6.17,13.76,12.56,18.65,20.67
		c3.85,6.38,5.24,13.66,7.5,20.58c5.75,17.62,8.5,35.87,10.45,54.27c0.82,7.75,2.43,15.42,3.54,23.15
		c0.51,3.53-0.22,6.86-1.72,10.18c-3.88,8.55-8.08,16.82-15.9,22.58c-1.27,0.93-1.86,2.19-2.07,3.8c-1.3,10.05-2.9,20.05-3.41,30.2
		c-0.14,2.78,0.81,5.23,1.18,7.84c1.73,12.04,4.3,23.96,8.3,35.37c3.55,10.14,7.2,20.34,12.47,29.84
		c4.09,7.38,7.61,15.07,10.91,22.85c0.48,1.14-0.13,2.81,2.17,3.27c1.29,0.26,1.09,2.66,0.6,4.08c-0.98,2.79-5.2,4.78-8.35,4.14
		c-9.77-2-19.39-4.5-28.78-7.95c-6.78-2.48-13.83-1.3-20.77-0.25c-7.74,1.17-15.47,2.35-23.21,3.48c-1.31,0.19-2.8,0.49-3.96,0.07
		c-4.5-1.65-6.89,0.8-8.96,4.17c-2.11,3.43-4.76,6.43-7.5,9.35c-3.04,3.24-6.1,3.46-9.79,1.15c-6.8-4.24-12.88-9.45-19.17-14.36
		c-1.82-1.42-3.41-2.36-5.76-2.2c-9.32,0.62-18.71,0.08-27.93-0.61c-6.24-0.47-11.35,0.64-17.02,2.47c-4.55,1.47-8.6,3.33-12.4,6.08
		c-4.48,3.25-9.78,4.12-15.08,4.74c-3.16,0.37-4.85-1.76-4.09-5.13c2.38-10.58,5.39-20.95,10.94-30.39c0.59-1,1.14-2.03,1.61-3.09
		C656.62,815.7,656.79,814.88,657.07,813.98z"/>
</g>
</svg>
