<?xml version="1.0" encoding="utf-8"?>
<!-- Generator: Adobe Illustrator 24.0.2, SVG Export Plug-In . SVG Version: 6.00 Build 0)  -->
<svg version="1.1" id="Layer_1" xmlns="http://www.w3.org/2000/svg" xmlns:xlink="http://www.w3.org/1999/xlink" x="0px" y="0px"
	 viewBox="0 0 861.53 732.99" style="enable-background:new 0 0 861.53 732.99;" xml:space="preserve">
<g>
	<path d="M102.97,317.11c-8.62-6.05-16.47-13.28-25.68-18.6c-4.15-2.39-8.68-1.98-13.51-0.7c-19.78,5.26-45.66-3.76-51.24-28.35
		c-1.14-5.05-1.99-10.12-2.67-15.21c-0.91-6.73,0.9-13.36,2.99-19.6c4.93-14.7,13.81-26.35,27.9-33.72
		c10.3-5.38,21.1-9.36,32.69-8.83c14.29,0.65,34.92,9.65,40.05,27.81c3.11,10.99,5.24,21.9,4.43,33.32c-0.3,4.24,0.4,8.31,2.66,12
		c2.69,4.4,5.44,8.77,8.16,13.15c1.52,2.45,3.3,3.13,5.66,0.99c7.41-6.7,17.14-9.5,25.3-14.97c2.62-1.76,5.84-2.47,8.97-2.99
		c4.12-0.69,8.15-1.68,12.15-2.82c2.42-0.69,4.8-0.96,7.38-0.52c3.51,0.6,6.34-1.41,6.9-4.88c1.03-6.4,1.75-12.79,1.12-19.37
		c-0.39-4.02-2.17-5.65-5.64-7.07c-6.79-2.77-13.22-6.37-18.02-12.14c-5.81-7-8.61-15.06-9.19-24.25
		c-0.87-13.74,4.29-24.96,14.24-33.55c7.87-6.79,16.83-12.29,28.1-12.44c8.32-0.11,16.5-0.55,24.73,1.72
		c16.64,4.59,25.18,15.88,26.82,32.08c0.74,7.29,0.81,14.69-1.53,21.71c-2.04,6.14-5.22,11.75-10.27,16.1
		c-13.09,11.3-13.1,11.32-13.69,28.4c-0.15,4.32-0.05,8.65-0.06,12.98c0,3.22,1.48,5.45,4.58,6.37
		c15.46,4.59,26.47,15.01,35.7,27.56c11.99,16.3,18.63,34.63,21.11,54.76c1.28,10.36,0.79,20.59,0.44,30.88
		c-0.11,3.32,0.7,5.46,3.52,7.46c4.75,3.36,9.78,6.28,14.45,9.8c11.35,8.56,18.96,19.95,25.51,32.2
		c8.15,15.23,12.57,31.77,16.77,48.39c3.01,11.91,5.84,23.87,9.36,35.63c3.24,10.82,7.2,21.69,13.31,31.04
		c6.45,9.88,14.46,18.97,27.67,21.09c9.03,1.45,17.89,4,27.16,2.93c14.39-1.67,27.33-6.82,38.46-16.23
		c0.48-0.41,0.82-0.99,1.36-1.65c-2.47-4.57-5.25-8.84-7.2-13.63c-7.09-17.45-5.68-34.4,1.88-51.31
		c8.92-19.96,21.67-37.39,35.14-54.38c8.08-10.2,17.16-19.5,25.87-29.13c1.97-2.18,4.13-4.27,5.27-7.59
		c-7.5-2.22-14.88-3.97-22.02-6.59c-14.28-5.23-27.77-11.86-40.34-20.48c-7.29-5-14.16-10.43-20.61-16.43
		c-1.71-1.59-3.59-3.06-4.79-5.07c-3.68-6.18-8.96-10.35-15.22-13.88c-18-10.14-32.21-24.43-44.51-40.96
		c-6.88-9.25-13.14-18.75-18.27-29.03c-7.52-15.05-11.94-30.91-13.69-47.71c-1.19-11.47-1.52-22.89-1.12-34.36
		c0.15-4.31,0.77-8.62,1.46-12.89c1.86-11.49,3.05-23.18,6.74-34.25c5.18-15.53,12.25-30.09,22.95-42.82
		c6.87-8.17,14.87-14.75,23.89-20.14c6.71-4.01,14.12-3.55,21.25-1.25c8.3,2.68,15.01,8.01,20.48,14.66
		c11.83,14.39,21.25,30.19,27.04,48.04c1.49,4.58,3.44,9,3.85,13.74c1.8,1.35,3.24,0.69,4.75-0.15c7.85-4.38,15.69-8.77,23.59-13.07
		c3.65-1.99,7.24-4.24,11.37-5.03c4.41-0.85,7.07-4.87,11.43-5.83c1.72-0.38,1.53-2.36,1.25-3.88c-1.11-5.99,0.01-11.95,0.2-17.92
		c0.07-2.16,0.8-4.21,1.68-6.23c1.61-3.66,3.37-4.17,6.11-1.14c3.68,4.07,7.26,8.26,10.1,13c0.42,0.7,0.71,1.53,1.96,1.9
		c1.64-0.63,1.8-2.25,1.93-3.9c1.64-21.05,6.68-41.31,13.73-61.16c3.73-10.49,6.1-21.47,11.42-31.38c1.23-2.29,2.5-4.56,4-7.31
		c3.19,3.73,5.53,7.34,5.87,11.67c0.69,8.7,3.35,16.96,5.16,25.4c3.02,14.13,6.51,28.17,9.78,42.25c0.26,1.13,0.31,2.33,1.97,3.24
		c3.06-4.71,7.6-8.1,11.37-12.26c3.04-3.34,6.39-6.34,10.5-8.35c4.26-2.09,7.2-0.18,6.95,4.62c-0.58,10.77-2.31,21.39-4.5,31.95
		c-1.21,5.83-0.77,11.88-2.77,17.83c13.01,2.75,24.32,8.28,35.62,13.88c9.87,4.89,19.17,10.7,27.82,17.46
		c5.6,4.37,11.96,7.76,16.68,13.31c1.98,2.33,4.11,1.86,6.27-0.86c3.32-4.18,5.83-8.92,8.72-13.38
		c9.72-15.02,21.59-27.92,36.49-37.84c7.88-5.25,15-11.84,23.8-15.45c9.64-3.96,19.49-6.61,30.46-5.43
		c12.69,1.36,21.21,8.37,29.16,17.05c8.01,8.74,13.38,19.06,16.07,30.46c3.89,16.48,4.8,33.1,1.01,49.9
		c-1.34,5.95-2.33,12.11-2.79,18.24c-0.76,10.18-3.66,19.91-5.8,29.78c-0.97,4.47-3.16,8.73-5.14,12.92
		c-1.7,3.61-3.46,7.17-4.68,10.99c-1.79,5.6-5.56,10.22-7.92,15.52c-4.51,10.12-11.72,18.44-18,27.35
		c-5.48,7.78-12.35,14.35-20.35,19.71c-5.94,3.99-11.43,8.64-17.42,12.55c-10.51,6.84-21.81,12.22-34.17,14.61
		c-8.49,1.65-17.09,0.39-24.82-3.58c-3.48-1.79-4.65-0.85-6.73,1.8c-5.08,6.48-9.34,13.76-16.61,18.8c5.5,0.24,10.69,1.7,15.99,2.45
		c5.03,0.71,9.59,2.71,14.13,4.71c4.56,2.01,5.61,6.41,3.05,10.58c-6.45,10.52-16.97,15.86-27.53,20.58
		c-13.85,6.19-28.58,10-43.46,13.02c-1.14,0.23-2.3,0.4-3.42,0.71c-0.62,0.17-1.19,0.55-2.21,1.05c2.58,1.8,5.29,2.38,7.88,2.57
		c12.6,0.95,25.2,1.67,37.86,0.95c9.13-0.52,18.3-0.78,27.44-0.68c5.34,0.06,10.6,1.44,14.89,4.91c4.24,3.43,4.61,6.76,1.63,11.31
		c-2.87,4.39-6.67,7.92-10.95,10.84c-13.55,9.25-28.76,14.92-44.65,17.98c-14.29,2.75-28.85,0.85-43.28-0.88
		c-13.23-1.59-25.58-5.91-37.74-10.97c-4.46-1.86-8.33-4.85-12.41-7.42c-1.1-0.69-1.95-1.86-3.79-1.89
		c0.38,5.58,0.2,11.22,1.25,16.61c2.05,10.58,1.28,21.24,1.7,31.87c0.06,1.53-0.17,2.9,1.57,3.79c6.73,3.42,12.39,8.34,18.55,13.57
		c3.36-3.36,6.76-6.67,10.43-9.67c11.01-9,22.67-16.85,35.91-22.17c8.39-3.36,17.21-3.51,26.06-3.24c0.49,0.01,1.07,0.06,1.44,0.32
		c6.13,4.41,13.35,7.4,17.16,14.73c3.98,7.65,4,15.32,1.58,23.25c-4.43,14.52-12.55,26.8-23.56,37.06
		c-8.5,7.93-17.34,15.45-27.86,20.86c-11.81,6.08-23.91,11.4-37.32,11.16c-10.79-0.19-20.12-4.29-24.68-15.36
		c-1.8-4.38-1.53-8.88-0.67-13.24c0.78-3.95-0.29-6.71-3.07-9.37c-3.15-3.02-6.86-5.25-10.79-8.21
		c-6.04,9.72-14.83,16.73-24.2,23.24c2.29,4.49,3.97,8.64,5.25,12.92c2.75,9.22,1.86,18.42-0.55,27.59
		c-0.88,3.34-1.58,6.67-2.92,9.94c-5.68,13.82-15.16,24.41-26.95,33.19c-0.4,0.3-0.79,0.6-1.35,1.02c0.75,2.09,2.1,3.54,3.41,4.96
		c10.33,11.22,17.65,24.26,21.69,38.84c2.61,9.41,3.53,19.23,1.02,29.03c-0.75,2.93-2.25,5.13-4.59,6.9
		c-4.82,3.64-10.01,6.24-16.03,7.68c-3,0.72-5.93,1.99-9.03,1.74c-8.33-0.68-15.84-3.92-22.84-8.24
		c-12.59-7.78-21.39-19.3-30.26-30.82c-9.88-12.83-13.56-27.68-14.88-43.26c-0.54-6.41,0.12-12.98,0.81-19.42
		c1.08-10.15,12.92-21.06,23.59-21.92c4.99-0.4,10-0.66,14.77,1.36c2.6,1.1,4.64,0.51,6.85-1.25c4.84-3.84,9.56-7.57,12.78-13.12
		c4.83-8.34,1.37-22.22-3.2-27.89c-0.31-0.38-0.58-0.96-0.99-1.09c-5.07-1.57-10.14-3.18-15.27-4.52c-1.98-0.52-2.84,1.56-3.8,2.77
		c-7.29,9.19-16.52,15.94-26.78,21.32c-5.43,2.85-11.01,5.48-17.03,6.99c-4.49,1.13-8.93,2.57-13.33,3.88
		c-9.42,2.81-18.56,0.88-27.73-0.1c-7.74-0.83-15.26-2.96-22.56-6.01c-8.65-3.62-15.8-9.22-22.3-15.7
		c-9.68-9.65-16.29-21.4-22.1-33.65c-4.66-9.81-7.05-20.4-10.68-30.57c-4.76-13.35-7.54-27.26-12.24-40.63
		c-5.29-15.06-14.61-27.16-26.18-37.77c-4.01-3.68-9.15-5.39-14.06-7.43c-2.68-1.11-4.56,0.65-5.89,2.59
		c-8.59,12.5-21.14,19.63-34.66,25.16c-19.96,8.16-40.49,8.16-61.24,3.2c-9.99-2.39-19.19-6.62-27.99-11.7
		c-4.73-2.72-8.96-6.29-13.05-9.95c-2.23-2-4.3-4.32-7.2-5.27c-3.82-1.24-7.5-1.82-11.48,0.54c-4.54,2.69-9.54,4.54-13.98,7.53
		c-4.67,3.15-7.39,7.55-9.52,12.52c-3.61,8.42-7.14,17.08-13.64,23.63c-6.81,6.87-14.78,12.76-25.06,12.8
		c-7.3,0.03-14.19-2.43-21.11-5.03c-10.84-4.07-16.77-13.02-22.68-21.63c-3.8-5.53-5.46-12.47-6.32-19.64
		c-1.72-14.32,3.36-26.23,11.18-37.26c8.76-12.34,26.3-17.4,40.74-13.37c8.07,2.25,14.3,6.89,20.21,12.3
		c5.88,5.39,7.35,5.7,14.49,1.95c2.94-1.54,5.84-3.21,8.64-4.98c4.75-3,5.73-5.76,3.44-10.83c-3.15-6.98-4.38-14.26-4.39-21.85
		c0-2.49-0.42-4.97-0.62-7.46C92.92,344.64,96.69,331.17,102.97,317.11z"/>
</g>
</svg>
