<?xml version="1.0" encoding="utf-8"?>
<!-- Generator: Adobe Illustrator 24.0.2, SVG Export Plug-In . SVG Version: 6.00 Build 0)  -->
<svg version="1.1" id="Layer_1" xmlns="http://www.w3.org/2000/svg" xmlns:xlink="http://www.w3.org/1999/xlink" x="0px" y="0px"
	 viewBox="0 0 449.21 545.64" style="enable-background:new 0 0 449.21 545.64;" xml:space="preserve">
<g>
	<path d="M122.33,193.8c-5.85-7.98-10.69-15.54-14.71-23.54c-7.6-15.13-16.08-29.86-20.3-46.51c-5.42-21.37-7.61-43.01-4.57-64.83
		c1.92-13.78,4.54-27.63,13.44-39.2c6.53-8.49,14.25-15.29,24.66-18.65c4.61-1.49,9.11-1.27,13.76-0.2
		c11.94,2.72,20.82,10.04,28.7,18.86c8.71,9.75,15.55,20.76,21.28,32.47c3.76,7.68,6.27,15.81,7.68,24.2
		c1.73,10.34,3.5,20.71,4.34,31.14c1.11,13.9,2.36,27.84,1.56,41.84c-0.12,2.14-0.02,4.29,0.71,6.7c0.8-2.15,1.54-4.33,2.42-6.45
		c8.15-19.62,15.32-39.85,27.73-57.24c9.33-13.07,17.76-26.98,30.11-37.75c10.28-8.97,21.83-15.74,34.28-21.07
		c4.72-2.02,9.57-3.78,14.44-5.48c5.44-1.9,10.91-2.8,16.62-2.9c17.63-0.3,26.7,7.6,31.49,23.32c1.9,6.26,2.17,12.67,2.75,19.14
		c0.86,9.49-0.05,18.58-2.47,27.62c-2.58,9.63-6.15,18.84-11.39,27.46c-4.15,6.82-8.49,13.51-12.66,20.31
		c-6.16,10.05-14.42,18.22-22.88,26.22c-11.63,10.99-24.16,20.9-37.19,30.18c-0.36,0.25-0.54,0.76-1.1,1.58
		c2.13,0.39,3.98,0.7,5.83,1.07c11.25,2.23,21.32,7.39,31.33,12.66c18.99,9.99,33.84,24.71,45.98,42.02
		c13.66,19.48,22.52,40.99,24.41,65.07c1.56,19.85,0.63,39.38-3.43,59.02c-1.75,8.46-4.28,16.65-6.14,25.03
		c-0.38,1.72-0.76,3.32,0.91,4.5c8.3,5.91,9.19,15.08,10.17,23.98c0.6,5.4,0.79,10.97-0.99,16.9c5.48-1.23,10.65-1.17,15.84-0.8
		c5.26,0.38,9.77,2.87,14.96,5.52c-0.37-3.73-0.48-6.94-1.05-10.06c-1.58-8.66-0.13-17.25,0.39-25.86c0.21-3.44,2.63-2.51,5.01-2.46
		c-2.6,12.62-2.41,24.81-0.69,37.96c6.32-5.34,12.47-9.49,19.03-13.03c3.38-1.82,6.95-3.14,10.54-4.4c2.1-0.73,4.24-1.1,6.08,1.11
		c-0.69,2.31-2.9,2.3-4.67,2.91c-9.69,3.31-18.56,8.1-26.44,14.68c-1.02,0.85-2.07,1.7-2.27,3.54c4.95,4.11,9.77,8.62,13.41,14.32
		c4.44,6.94,7.35,14.12,6.04,22.57c-0.76,4.86-3.17,7.44-8.02,8c-1.15,0.13-2.35,0.16-3.49,0c-10.3-1.46-19.97,1.82-29.85,3.74
		c-19.14,3.71-37.43,10.53-56.32,15.12c-15.31,3.72-29.72,1.17-43.22-6.63c-2.67-1.54-4.33-1.17-6.61,0.48
		c-11.12,8.06-23.26,14.2-36.27,18.58c-13.94,4.69-28.29,7.24-42.96,8.35c-17.86,1.35-35.7,0.94-53.31-1.74
		c-19.15-2.91-37.67-8.47-54.37-18.81c-27.1-16.78-48.38-39.3-65.39-66.12C27.33,445.4,20.38,432,14.93,417.86
		c-4.01-10.4-7.38-21.1-9.31-32.06c-3.73-21.2-7.59-42.38-4.48-64.2c1.96-13.74,4.19-27.3,9.58-40.12
		c6.36-15.11,14.65-29.04,25.85-41.19c7.46-8.09,15.2-15.79,24.26-22.13c9.47-6.63,19.67-11.8,30.51-15.68
		C101.15,198.97,110.99,195.44,122.33,193.8z"/>
</g>
</svg>
