<?xml version="1.0" encoding="utf-8"?>
<!-- Generator: Adobe Illustrator 24.0.2, SVG Export Plug-In . SVG Version: 6.00 Build 0)  -->
<svg version="1.1" id="Layer_1" xmlns="http://www.w3.org/2000/svg" xmlns:xlink="http://www.w3.org/1999/xlink" x="0px" y="0px"
	 width="643.04" height="861.1" viewBox="0 0 643.04 861.1" style="enable-background:new 0 0 643.04 861.1;" xml:space="preserve">
<g>
	<path d="M44.47,607.54c-2.83-0.92-5.14-1.92-7.56-2.42c-4.36-0.89-6.52-3.72-7.49-7.74c-1.53-6.31-3.07-12.62-4.47-18.95
		c-1.04-4.72-3.19-8.76-6.84-11.9C9.37,559,5.13,548.59,0.1,538.69c-0.2-0.39-0.03-0.97-0.03-1.42
		c8.53-7.11,18.45-11.94,27.68-17.84c9.85-6.29,18.47-14.19,27.94-20.97c2.84-2.04,5.75-3.97,8.61-5.99
		c3.65-2.58,5.66-5.87,5.21-10.59c-0.45-4.63-0.34-9.3-0.63-13.96c-0.36-5.7,1.9-11.09,3.66-16.45c0.71-2.15,2.87-2.66,4.81-3.13
		c9.05-2.23,18.13-4.36,27.48-4.93c1.33-0.08,2.65-0.45,3.97-0.44c3.04,0.01,4.37-1.74,5.18-4.4c5.03-16.65,13.07-31.96,21.13-47.26
		c2.02-3.83,4.21-7.56,6.34-11.33c1.35-2.38,1.3-4.62-0.02-7.09c-2.53-4.7-5.44-9.12-8.61-13.42c-2.72-3.68-2.4-5.05,1.1-7.93
		c1.16-0.95,2.37-1.84,3.59-2.7c6.42-4.57,11.34-10.13,12.65-18.28c0.45-2.8,1.4-5.58,3.15-7.83c3.25-4.17,2.56-8.38,0.55-12.64
		c-1.91-4.06-3.73-8.21-6.1-12.01c-1.9-3.06-1.03-4.82,1.52-6.6c4.3-3,9.34-4.34,14.09-6.29c6.95-2.86,13.75-5.93,19.82-10.43
		c5.39-3.99,5.33-12.23-0.02-16.27c-1.62-1.22-3.15-0.68-4.75-0.36c-6.04,1.25-11.97,2.88-17.8,4.9c-5.77,1.99-12.07,2.64-16.7,7.22
		c-2.55-2.27-3.25-4.28-2.63-7.06c1.27-5.69,2.21-11.46,4.56-16.84c1.15-2.63,0.52-4.37-2.01-5.75c-6.03-3.27-11.85-6.43-19.31-4.54
		c-4.87,1.23-7.77-1.81-8.03-6.99c-0.66-12.98,2.87-24.97,8.42-36.54c3.7-7.7,8.37-14.74,13.86-21.23c1.17-1.38,1.71-2.71,1.64-4.49
		c-0.39-9.69,1.46-19.24,1.84-28.88c0.32-7.98,0.11-15.98,0.14-23.97c0-1.33-0.02-2.67,0.05-3.99c0.07-1.41,0.52-2.67,2.06-3.08
		c1.68-0.44,2.4,0.84,3.08,1.97c3.37,5.56,6.3,11.36,8.9,17.31c2.79,6.4,5.53,12.82,8.23,19.25c0.94,2.25,2.42,3.41,4.63,2
		c4.97-3.2,10.7-4.44,16.04-6.69c3.82-1.61,5.76-4.3,6.54-8.6c1.91-10.49,2.96-21.11,4.86-31.59c0.39-2.15,0.83-4.22,2.4-5.86
		c2.5,0.1,2.71,2.14,3.35,3.79c3.24,8.3,4.18,17.12,5.83,25.78c0.55,2.89,0.49,5.99,2.86,8.75c6.24-1.56,12.32-3.73,18.18-6.38
		c6.21-2.81,12.3-5.91,18.24-9.26c8.37-4.72,13.82-12.31,18.89-20.22c4.7-7.33,8.09-15.29,11.66-23.17
		c5.26-11.61,11.99-22.25,20.33-31.88c8.79-10.15,19.92-17.19,32.09-22.26c13.49-5.62,27.03-11.33,41.43-14.42
		c22.44-4.81,45-7.56,67.87-3.27c3.18,0.59,6.56,0.92,9.28,3.32c-0.67,2.44-2.57,2.58-4.34,2.71c-11.68,0.87-23.04,3.46-34.28,6.57
		c-9.99,2.76-19.32,7.25-28.53,11.87c-12.2,6.12-24.61,11.96-34.79,21.39c-13.88,12.86-23.77,28.03-28.11,46.73
		c-4.05,17.49-7.48,35.23-15.41,51.54c-5.16,10.63-11.38,20.6-19.01,29.78c-6.08,7.32-13.01,13.83-19.07,21.06
		c-11.59,13.83-19.7,29.53-22.34,47.73c-1.74,12.03,3.21,21,12.11,28.38c9.1,7.55,18.2,15.09,26.98,23.02
		c7.1,6.42,6.88,8.28-1.97,11.62c-12.61,4.76-25.49,8.81-37.94,14.01c-6.52,2.73-10.07,11.36-7.41,17.85
		c0.91,2.22,2.86,3.11,4.8,4.11c6.22,3.18,12.48,6.28,18.61,9.63c5.56,3.03,5.68,6.66,0.19,9.98c-7.69,4.65-15.46,9.17-22.89,14.26
		c-3.61,2.47-5.55,5.19-5.04,9.88c0.74,6.78,0.84,13.59,3.57,20.05c1.66,3.95,4.26,7.11,6.97,10.26c1.27,1.48,3.08,1.82,4.94,2.09
		c5.61,0.79,10.9-0.98,16.29-1.89c1.5-0.25,2.12-1.52,2.63-2.77c4.84-11.9,12.06-22.15,21.18-31.15c2.36-2.33,4.12-5.26,6.47-7.6
		c3.6-3.6,4.21-8.16,3.4-12.53c-2.86-15.39-1.67-30.89-1.85-46.35c-0.1-8.66-0.12-17.36,3.29-25.59c0.73-1.76,0.69-4.37,3.44-4.14
		c2.32,0.19,2.98,2.34,3.71,4.24c3.5,9.03,5.42,18.51,7.89,27.84c1.7,6.43,3.52,12.82,5.34,19.22c0.27,0.95,0.78,1.84,1.24,2.72
		c2.48,4.72,3.82,5.4,8.09,2.52c7-4.71,14.76-7.72,22.51-10.68c8.22-3.14,16.68-5.79,25.72-4.3c2.02,2.92,1.03,5.08-1.22,7.07
		c-6.85,6.08-13.58,12.3-20.55,18.25c-5.32,4.55-10.39,9.36-15.62,14c-7.7,6.84-11.42,14.67-9.87,25.16
		c1.28,8.7,1.76,17.52,3.4,26.19c0.5,2.63,1.42,4.53,3.83,5.97c6,3.58,11.6,7.71,16.68,12.54c3.07,2.92,5.26,6.42,7.44,9.97
		c0.77,1.25,1.04,2.86,2.68,3.68c2.43,0.02,4.17-1.58,5.84-3.17c13.28-12.61,25.5-26.21,37.63-39.92
		c4.93-5.57,9.85-11.26,15.72-16.03c7.51-6.11,8.12-14.52,6.62-23.26c-1.55-9.02-1.96-18.19-3.75-27.19
		c-0.75-3.76-1.55-7.49-2.57-11.18c-0.57-2.07-1.29-4.14-0.6-6.51c1.98-1.17,4.06-0.93,6.14-0.16c12.68,4.72,21.84,13.12,26.87,25.8
		c1.09,2.76,1.66,5.79,4.66,7.76c7-4.59,14.08-9.16,21.08-13.86c11.48-7.7,22.57-15.95,33.84-23.96c6.52-4.63,13.8-8.03,21.48-10.43
		c1.27-0.4,2.53-0.98,4.07,0.54c-3.94,9.74-9.19,18.96-16.56,26.65c-13.13,13.71-26.82,26.87-40.02,40.51
		c-5.08,5.26-11.07,9.61-15.46,15.55c-6.93,9.39-8.88,20.32-9.6,31.56c-0.16,2.45-1.29,4.85-0.61,7.19
		c1.04,1.32,2.26,0.77,3.37,0.76c7.89-0.05,15.54,1.47,23.16,3.4c15.99,4.06,31.38,1.99,46-5.4c8.92-4.51,17.2-10.16,25.6-15.55
		c14.32-9.2,29.9-14.6,46.83-15.62c11.8-0.71,23.65-0.5,35.35,1.51c2.13,0.37,5.67-0.12,5.57,3.58c-0.09,3.33-3.36,2.68-5.4,3.25
		c-11.18,3.11-21.23,8.67-31.37,14.07c-13.52,7.19-23.8,18.04-33.4,29.63c-6.8,8.22-12.88,16.98-19.23,25.54
		c-5.45,7.35-11.05,14.56-18.56,20.06c-4.9,3.59-10.32,6.14-15.95,8.15c-10.61,3.8-21.47,5.91-32.85,3.89
		c-4.93-0.87-9.96-0.77-14.96-0.41c-2.58,0.18-4.84,0.99-6.44,3.1c0.13,0.4,0.15,0.87,0.34,0.96c8.09,3.66,7.67,4.99,2.29,11.56
		c-8.23,10.05-15.22,21.05-24.06,30.61c-2.13,2.31-2.96,4.85-2.65,8.15c1.21,12.97,3.66,25.7,6.56,38.37
		c0.93,4.05,1.79,8.11,3.62,11.93c1.72,0.48,2.78-0.75,3.9-1.62c9.57-7.47,20.87-10.88,32.37-13.79c1.77-0.45,3.58-0.74,5.36-1.15
		c4.06-0.94,5.18,0.06,4.43,4.29c-1.16,6.57-2.9,13.03-5.42,19.19c-6.17,15.08-12.36,30.15-16.44,45.98
		c-2.71,10.49-5.45,21.05-6.1,31.83c-0.59,9.75-0.15,19.67,0.93,29.4c1.05,9.41-1.66,17.29-7.66,23.92
		c-6.97,7.71-12.37,16.51-18.53,24.77c-9.89,13.27-21.32,25.12-32.38,37.34c-8.49,9.37-16.66,19.03-25.21,28.34
		c-4.83,5.26-10.1,10.05-16.31,13.83c-5.04,3.07-10.54,3.94-16.11,4.91c-1.55,0.27-3.01-0.13-4.34-0.86
		c-1.88-1.04-2.56-2.61-1.46-4.6c0.56-1.01,1.26-1.96,2-2.85c8.24-9.91,13.62-21.26,16.75-33.7c0.98-3.91,2.43-7.59,4.26-11.16
		c7.5-14.66,15.22-29.2,21.95-44.25c6.32-14.13,12.6-28.28,16.88-43.19c2.21-7.67,3.88-15.49,5.77-23.25
		c0.16-0.64,0.34-1.4,0.14-1.97c-2.79-7.99-1.85-16.5-3.51-24.64c-0.34-1.65-0.78-3.26-1.61-4.7c-6.72-11.72-14.3-22.87-22.54-33.58
		c-0.61-0.79-1.14-1.66-1.92-2.81c-3.66,4.02-6.76,7.34-7.83,12.21c2.24,1.28,4.32,0.17,6.38,0.1c3.16-0.12,4.18,1.03,3.94,4.2
		c-0.14,1.9-1.22,3.43-1.89,5.12c-1.97,4.95-3.98,9.89-6.16,14.74c-0.92,2.06-1.19,4.11-1.16,6.3c0.32,23.46-0.11,46.94,1.51,70.38
		c0.15,2.14-0.25,4.32-0.38,6.48c-0.1,1.7-0.17,3.39-2.37,3.82c-2.22,0.44-3.41-0.66-4.23-2.56c-2.3-5.34-4.28-10.83-7.42-15.79
		c-0.7-1.11-1.12-2.42-2.61-3.37c-2.51,2.2-2.74,5.76-4.75,8.35c-5.15,6.6-11.25,12.28-16.93,18.35
		c-15.13,16.17-27.72,33.94-37.48,53.88c-5.3,10.83-13.88,19.45-23,27.26c-4.63,3.96-10.88,3.07-15.47-1.71
		c7.23-9.05,9.4-20.19,12.12-31.16c0.87-3.52,2.41-6.92,3.95-10.24c6.25-13.42,10.74-27.5,15.62-41.44
		c5.01-14.32,8.8-28.96,11.98-43.76c0.94-4.37,1.31-8.86,2.37-13.24c0.31-1.27,0.3-2.67,0.14-3.98c-0.47-3.73-2.99-5.39-6.62-4.37
		c-4.85,1.35-9.76,2.09-14.79,2.04c-1.84-0.02-3.64-0.12-5.49-1.16c-1.61-8.3,5.4-10.8,10.37-15.06c-1-3.44-3.47-6.23-5.14-9.38
		c-2.17-4.08-3.56-8.31-3.85-12.81c-1.03-15.75-5.23-30.76-9.89-45.73c-1.82-5.83-3.87-11.28-8.15-15.72
		c-3.68-3.82-5.3-3.84-8.98-0.02c-5.42,5.63-10.91,11.2-16.23,16.92c-3.87,4.16-6.17,9.15-6.22,14.88
		c-0.11,13.51,0.61,26.95,3.63,40.2c0.78,3.44,2.08,6.66,3.27,9.95c0.66,1.82,2.03,3.79,0.29,5.6c-1.76,1.83-4.18,1.29-6.12,0.54
		c-6.14-2.39-11.49-5.98-15.58-11.29c-5.02-6.52-8.62-13.79-11.55-21.44c-0.4-1.06-0.55-2.28-1.45-3.03
		c-1.55-0.85-2.58,0.11-3.7,0.82c-9.98,6.33-19.13,13.91-29.57,19.52c-2.58,1.39-2.23,3.37-1.64,5.55c1.44,5.29,2.73,10.6,3.79,16
		c1.92,9.82,3.15,19.71,4.12,29.64c0.31,3.21,0.02,6.33-1.64,9.2c-1.78,3.07-3.2,3.28-5.8,0.75c-0.71-0.69-1.36-1.48-1.89-2.32
		c-12.04-19.19-25.19-37.64-38.73-55.78c-11.38-15.26-24.16-29.33-41.61-39.06c-3.57,2.82-6.18,6.91-9.52,10.26
		c-9.77,9.8-18.34,20.66-26.82,31.56c-5.92,7.62-11.32,15.65-16.95,23.49c-3.58,4.98-8.07,8.83-13.8,11.13
		c-4.54,1.82-7.43,0.1-7.81-4.87c-0.34-4.36,0.43-8.66,1.45-12.87c2.95-12.16,7.51-23.79,11.48-35.62
		c4.49-13.41,8.48-26.99,12.66-40.51C44.29,609.65,44.29,608.81,44.47,607.54z M169.72,647.92c6.2-5.15,11.2-10.44,15.79-16.08
		c6.4-7.86,11.84-16.48,19.16-23.62c2.66-2.6,3.9-5.91,3.81-9.92c-0.32-13.49,0.25-26.92,2.78-40.25c0.75-3.97,2.39-7.9,2.05-12.23
		c-4.09-1.12-7.89,0.5-11.59-0.01c-14.7-2.01-29.11-5.21-42.5-11.92c-2.36-1.18-4.67-1.56-7.22-1.09
		c-9.23,1.69-17.81,5.32-26.43,8.81c-1.48,0.6-2.65,1.69-2.86,3.24c-1.19,8.61-3.87,17.37,2.11,25.41c1.69,2.27,3.32,4.58,4.97,6.87
		c6.27,8.74,14.71,15.36,22.28,22.84c4.64,4.59,7.17,10.23,8.78,16.46C163.5,626.7,166.14,636.97,169.72,647.92z M239.33,577.11
		c7.43-3.99,12.59-9.99,18.39-15.96c-5.9-3.27-11.19-5.91-16.41-9.52C237.35,560.21,238.17,568.51,239.33,577.11z M294.48,418.18
		c3.66,0.3,7.57,1.08,9.68-1.58c2.4-3.03,0.45-6.82-0.46-10.27C299.21,407.58,295.42,412.42,294.48,418.18z M411.04,440.38
		c11.59-3.65,11.92-3.81,13.28-6.51C419.7,432.04,416.07,433.72,411.04,440.38z"/>
</g>
</svg>
