<?xml version="1.0" encoding="utf-8"?>
<!-- Generator: Adobe Illustrator 24.0.2, SVG Export Plug-In . SVG Version: 6.00 Build 0)  -->
<svg version="1.1" id="Layer_1" xmlns="http://www.w3.org/2000/svg" xmlns:xlink="http://www.w3.org/1999/xlink" x="0px" y="0px"
	 viewBox="0 0 625.28 861.5" style="enable-background:new 0 0 625.28 861.5;" xml:space="preserve">
<g>
	<path d="M272.88,785.48c-3.48-0.28-6.61,1.46-9.8,2.54c-12.96,4.39-25.94,5.46-39.11,1.1c-1.92-0.63-3.76-1.33-5.17-3.16
		c1.44-9.04,7.66-14.82,14.48-19.93c6.81-5.1,14.33-9.16,22.38-11.96c6.42-2.24,13.2-3,20.81-3.52c-3.79-4.28-7.07-8.13-10.5-11.84
		c-5-5.41-7.76-11.95-9.47-18.94c-1.3-5.33,0.16-6.96,5.78-7.08c7.19-0.16,13.74,1.94,19.92,5.55
		c10.73,6.26,19.09,14.83,25.31,25.83c3.46-1.44,4.84-4.75,6.68-7.19c8.86-11.75,20.44-20.45,31.79-29.43
		c16.2-12.82,32.15-25.95,46.96-40.35c9.61-9.35,17.49-20.09,21.88-33.03c0.26-0.78,0.7-1.52,0.13-2.71
		c-2.32,0.47-2.07,3.6-4.91,4.48c-2.15-5.48-3.53-11.2-4.67-17.04c-1.17-6.01-2.98-11.89-3.24-18.69
		c-6.06,1.66-7.39,8.71-13.41,9.97c-1.88-12.89-1.93-25.56-0.33-38.73c-12.62-1.16-24.65-3.18-37.77-6.05
		c9.78,16.67,17.61,32.8,17.69,51.75c-4.45,0.39-7.71-1.23-10.91-2.89c-7.75-4.04-14.21-9.86-20.8-15.48
		c-3.38-2.88-6.62-5.92-9.96-8.92c-1.67,1.34-0.71,2.63-0.51,3.82c2.81,16.73,5.89,33.42,5.59,50.5c-0.13,7.47-1.69,8.42-8.12,4.37
		c-10.58-6.64-19.16-15.37-26.35-25.58c-4.19-5.95-8.26-11.96-11.95-18.4c-0.95,5.78-0.4,11.55-1.55,17.18
		c-0.8,3.91-1.47,7.82-3.02,11.54c-1.49,3.56-3.72,4.36-6.83,2.06c-2.55-1.89-4.8-4.17-6.56-6.82c-7-10.54-14.03-21.08-18.25-33.15
		c-2.8-8.03-5.06-16.18-5.36-24.73c-0.17-4.72-0.58-8.97-4.5-12.6c-2.48-2.3-4.31-5.38-7.25-7.67c-3.36,3.03-4.17,8.09-8.89,10.22
		c-2.26-6.33-3.37-12.69-3.77-19.02c-0.33-5.23-2.13-8.71-6.77-11.12c-4.16-2.16-7.36-5.69-10.92-8.7
		c-3.11-2.63-6.52-4.53-10.75-4.79c-6.56-0.4-6.55-0.48-9.39,5.31c-1.8,0.68-2.95-1.36-5.05-1.09c-1.01,3.94,0.16,7.58,1.94,11.43
		c-3.3,1.64-1.41,4.46-1.24,7.29c-5.77,1.16-10.5-1.7-15.36-3.51c-7.35-2.73-11.5-8.18-14.02-15.68
		c-1.83-5.45-3.12-11.07-5.26-16.44c-2.05-5.14-0.98-7.84,3.41-11.27c3.86-3.01,8.17-5.17,12.94-6.25c2.87-0.65,5.11-1.51,6.62-4.51
		c1.77-3.53,5.39-5.38,9.01-6.75c2.12-0.8,3.34-1.72,3.12-4.27c-0.74-8.47,3.43-14.78,9.61-19.82c8.35-6.82,18.05-11.2,28.26-14.51
		c1.71-0.55,3.58-0.7,5.24-2.55c-4.87-1.69-9.19,0.63-13.57,0.89c-4.48,0.26-8.93,1.13-13.42,1.38c-4.59,0.25-9.2,0.05-14.58,0.05
		c4.38-8.64,9.36-16.26,14.1-24.16c-2.57-2.47-6-0.64-9.13-2.48c3.63-5.72,10.43-7.97,14.8-13.65c-9.13-2.74-17.61-5.28-26.96-8.09
		c5.43-5.6,11.52-8.58,17.27-11.98c5.86-3.46,11.6-7.13,18.99-10.33c-6.11-3.49-11.35-6.56-17.13-8.19
		c-8.24-2.32-16.81-1.45-25.26-1.6c-5.63-0.1-9.78,2.85-13.64,6.39c-9.82,9.02-19.92,17.71-30.62,25.68
		c-6.27,4.67-12.85,8.94-19.76,12.63c-4.02,2.15-8.47,2.97-12.9,3.66c-5.12,0.81-12.48-1.83-14.77-8.54
		c-1.89-5.53-4.01-10.96-3.85-16.93c0.08-2.87-0.87-4.94-3.49-6.6c-2.3-1.46-4.64-3.25-5.84-6.21c3.09-2.68,6.91-0.06,10.42-1.8
		c1.29-6.46,3.15-13.08,3.91-19.6c-1.12-1.3-2.13-1.23-3.11-0.97c-5.46,1.49-10.84,3.23-16.1,5.33c-2.79,1.11-3.89,3.03-3.61,6.26
		c0.35,4.06,0.65,8.25-0.71,12.57c-5.22-0.78-6.88-5.49-10.05-8.5c-5.1,3.4-9.05,8.04-14.25,11.09c-7.56,4.44-12.26,3.34-16.34-4.41
		c-1.77-3.37-3-6.94-2.95-10.93c0.1-9.14-0.45-18.22,3.26-27.04c8.65-20.57,21.44-37.84,39.79-50.67
		c8.87-6.2,18.37-11.4,28.56-15.21c0.93-0.35,1.85-0.68,2.45-1.94c-4.8-2.05-9.83-2.25-14.63-3.2
		c-17.07-3.37-32.3-10.43-45.15-22.16c-4.76-4.35-9.45-8.88-12.92-14.5c-1.58-2.56-1.37-4.21,1.23-5.7
		c3.04-1.73,5.99-3.61,9.43-4.51c11.74-3.06,23.6-4.07,35.66-2.4c2.87,0.4,5.76,1.17,9.38,0.83c-1.82-2.25-3.96-2.83-5.78-3.74
		c-16.85-8.46-30.51-20.66-41.73-35.67c-6.07-8.12-12.41-16.13-15.16-26.19c-0.16-0.6-0.45-0.96-1.11-1.34
		c-1.88-1.08-2.09-1.95,0.35-3.07c2.68-1.23,5.2-1.86,8.16-1.51c11.92,1.41,23.69,3.58,35.23,6.94c2.33,0.68,4.75,1.09,7.28,1.66
		c-0.35-1.86-1.5-2.6-2.51-3.45c-12.51-10.62-23.47-22.58-32.35-36.46c-3.82-5.97-5.87-12.63-8.25-19.13
		c-1.76-4.8-0.31-6.53,4.87-7.43c4.96-0.86,9.62,0.88,14.2,2.16c11.58,3.23,22.54,8.1,33.1,13.82c7.57,4.1,15.66,7.25,22.8,12.51
		C73.2,89.12,63.38,70.26,64.57,47.4c6.41-0.63,11.3,1.82,15.74,4.46c15.02,8.92,27.89,20.45,39.29,33.66
		c11.46,13.28,21.85,27.3,30.18,42.77c0.84,1.56,2.01,2.01,3.56,2.25c8.97,1.41,16.25,5.53,21.39,13.21
		c0.99,1.48,2.66,2.49,3.9,3.82c1.55,1.67,2.96,1.68,4.76,0.29c5.05-3.93,10.98-6.22,16.85-8.55c4.49-1.79,6.12-0.58,5.29,4.05
		c-1.67,9.31-2.94,18.8-8.79,26.76c-0.24,0.33-0.15,0.91-0.26,1.7c7.73-1.05,14.56-5.81,22.71-4.96c0.3,4.32-1.7,7.44-3.48,10.53
		c-7,12.16-15.08,23.56-24.66,33.85c-0.43,0.47-0.93,0.99-0.46,2.14c4.47,0.29,9.11-1.94,13.69-0.48c1.14,2.76-0.74,4.29-2.14,5.8
		c-4.97,5.38-9.81,10.96-16.16,14.8c-2.84,1.72-3.72,3.98-3.26,7.13c1.51,10.23,3.77,20.25,7.74,29.84
		c1.38,3.33,3.29,5.89,6.82,7.47c16.57,7.44,32.12,16.83,47.97,25.64c0.56,0.31,1.2,0.48,1.74,0.69c1.86-0.94,2.07-2.68,2.51-4.24
		c0.5-1.76,0.73-3.61,1.35-5.32c0.76-2.11,0.54-5.31,3.04-5.87c2.97-0.67,4.68,2.25,6.2,4.31c2.77,3.76,5.69,7.25,9.88,9.67
		c3.29-2.45,2.36-7.09,5.81-9.81c4.46,4.88,5.87,11.4,9.61,17.07c4.28-3.79,8.3-7.45,12.44-10.97c4.31-3.66,8.74-7.2,13.14-10.76
		c1.25-1.01,2.42-2.66,4.31-1.72c1.9,0.95,1.41,2.96,1.14,4.48c-1.97,11.19-1.24,22.61-2.99,33.81c-0.04,0.28,0.19,0.61,0.3,0.92
		c0.68,0.71,1.54,0.77,2.25,0.26c5.83-4.14,11.61-8.29,18.69-10.25c2.05-0.57,3.19-2.88,4.51-4.56
		c5.44-6.95,10.77-13.98,16.06-21.04c2.6-3.47,3.61-7.31,2.79-11.74c-2.72-14.75-3.84-29.71-5.6-44.59
		c-0.6-5.04-1.71-8.52-7.34-10.11c-9.16-2.58-17.31-7.69-25.75-11.99c-1.46-0.74-3.06-1.5-2.89-3.93c3.24-2.82,7.83-2.64,11.55-3.92
		c0.78-2.75-1.25-3.15-2.5-4.06c-11.45-8.33-22.99-16.54-33.06-26.59c-0.46-0.46-0.83-1-1.33-1.62c0.79-2.11,2.57-2.43,4.36-2.76
		c6.71-1.24,13.44-2.27,20.29-2.23c2.96,0.02,5.98,0.14,9.65-1.49c-7.52-9.78-16.7-17.74-23.44-28.25
		c4.37-3.23,9.18-3.06,13.88-2.68c4.52,0.36,8.93,0.26,13.73-0.63c-0.31-4.36-1.36-8.49-1.4-12.78c-0.09-10.35,2.99-19.65,8-28.48
		c1.58-2.79,3.63-5.18,6.44-6.84c1.01-0.6,2.04-1.32,3.24-0.67c1.39,0.75,1.48,2.12,1.31,3.49c-0.97,8.02,0.45,15.94,0.96,23.89
		c0.03,0.45,0.33,0.88,1.05,2.7c2.72-17.39,10.73-29.63,26.38-36.84c0.87,3.63,0.1,6.36-0.7,8.94c-1.75,5.6-2.31,11.41-3.37,17.13
		c-0.45,2.44-0.3,4.66,2.62,6.37c1.11-4.83,3.67-8.79,6.57-12.57c2.24-2.92,4.54-5.75,7.98-7.4c1.9-0.91,2.99-2.64,3.89-4.44
		c7.79-15.51,19.11-28.43,30.69-41.04c8.68-9.44,19.13-16.97,29.83-24.03c6.11-4.03,12.17-8.16,18.43-11.94
		c7.63-4.61,16.17-6.92,24.75-9c3.08-0.74,4.72,0.64,5.47,3.53c0.76,2.96,0.84,5.92,0.19,8.91c-2.43,11.25-6.2,22.07-10.95,32.51
		c-6.97,15.32-15.22,29.96-24.58,43.96c-0.26,0.39-0.5,0.85-0.12,1.36c0.92,0.55,1.51-0.14,2.13-0.63
		c16.47-13.04,34.77-22.68,54.53-29.73c16.68-5.95,33.86-9.79,51.29-12.6c8.23-1.33,16.55-1.81,24.87-1.98
		c5.34-0.11,6.59,1.93,4.61,6.73c-3.2,7.77-9.06,13.6-14.71,19.4c-19.16,19.65-40.81,36.25-64.08,50.75
		c-0.97,0.6-2.12,1.03-2.6,2.71c3.96,0.15,7.35-1.75,10.67-2.89c12.34-4.27,25.1-6.57,37.79-9.29c10.78-2.32,21.64-3.83,32.67-3.89
		c8.05-0.04,9.59,2.22,6.73,9.74c-1.02,2.67-2.7,5-4.6,7.1c-16.72,18.47-35.23,34.88-55.79,49.02
		c-13.59,9.35-27.63,17.92-41.85,26.24c-0.42,0.24-0.77,0.6-1.96,1.54c5.24-0.43,9.25-2.28,13.36-3.31
		c11.63-2.93,23.39-4.98,35.24-6.61c13.2-1.82,26.42-3.35,39.77-3.48c8.47-0.08,10.97,3.97,6.77,11.53c-1.95,3.5-4.63,6.5-7.63,9.18
		c-25.6,22.84-54.32,40.64-86.14,53.47c-6.95,2.8-13.87,5.66-21.06,7.79c-0.92,0.27-1.76,0.79-2.64,1.2
		c0.61,1.49,1.79,1.11,2.65,1.21c17.81,2.12,34.89,6.96,51.46,13.71c4.02,1.64,7.9,3.58,11.31,6.32c5.55,4.47,5.44,8.27-0.57,12.25
		c-3.89,2.58-8.24,4.34-12.55,6.12c-9.69,4.01-19.32,8.11-29.81,9.77c-7.56,1.19-15.07,2.54-22.72,3.07
		c-9.43,0.65-18.82,0.82-28.21-0.52c-1.1-0.16-2.34-0.42-3.18,0.71c-0.13,0.9,0.52,1.16,1.11,1.4
		c14.36,5.74,27.17,14.07,39.24,23.61c2.5,1.98,4.63,4.31,6.45,6.93c2.82,4.08,1.69,6.98-3.34,7.62c-5.11,0.65-10.31,1.25-15.42,1
		c-9.3-0.45-18.47-1.96-27.65-3.77c-10.45-2.07-20.68-5.09-31.17-6.9c-2.11-0.36-3.89-1.79-7.23-1.97
		c12.2,11.99,19.32,26.08,26.15,40.31c-1.77,3.69-4.54,4.04-7.7,3.32c-11.9-2.69-23.36-6.61-34.21-12.23
		c-3.69-1.91-7.3-4-10.95-5.99c-0.99-0.54-1.99-1.07-3.62-0.97c2.22,3.53,5.81,4.53,8.57,6.49c18.62,13.19,37.03,26.66,54.88,40.88
		c2.21,1.76,4.37,3.62,6.32,5.66c1.81,1.88,3.19,2.1,5.55,0.57c9.45-6.11,19.88-9.23,31.17-9.23c1.58,0,3.48-0.5,4.37,1.5
		c0.79,1.78-0.1,3.24-1.14,4.59c-3.08,3.94-6.17,7.85-9.28,11.76c-0.9,1.12-2.43,1.92-1.74,4.03c24.91-3.72,49.81-4.55,74.94,0.98
		c-0.89,3.81-2.77,5.24-5.02,6.51c-12.29,6.92-24.32,14.34-38.48,19.04c6.94,5.2,12.38,10.74,21.09,12.53
		c16.17,3.32,31.26,10.23,46.22,17.15c2.07,0.96,3.91,2.56,5.62,4.12c2.33,2.13,2.23,3.87-0.34,5.68c-2.77,1.96-6.04,2.68-9.37,3.18
		c-7.43,1.12-14.91,1.21-22.4,1.28c-2.79,0.03-5.58,0.44-8.29,0.67c-0.24,2.3,1.34,1.94,2.3,2.21c16.42,4.5,32.35,10.3,47.36,18.41
		c7.36,3.98,13.75,9.36,20.29,14.52c3.25,2.56,4.32,7.04,8.36,8.9c0.81,0.37,0.6,2.13,0.26,3.22c-9.56,5.64-20.08,6.5-30.73,6.8
		c-13.48,0.38-27.02,0.86-40.42-0.68c-16.67-1.92-33.47-3.28-49.72-7.98c-0.39-0.11-0.91,0.21-1.4,0.34
		c-0.18,2.24,1.82,2.62,2.92,3.71c11.97,11.79,24.67,22.92,33.29,37.68c1.85,3.17,3.74,6.3,4.34,10.02
		c0.71,4.37-0.09,5.37-4.66,5.23c-6.19-0.18-12.23-1.42-18.12-3.27c-11.4-3.58-22.87-6.99-33.93-12.24
		c-3.36,5.38-1.32,12.15-5.28,17.19c-3.65-1.69-5.64-5.31-9.58-7.21c-0.46,4.47-0.92,8.63-1.32,12.79
		c-1.94,19.8-10.23,36.89-22.01,52.63c-15.74,21.02-37.1,34.34-60.2,45.71c-18.34,9.03-37.13,17.32-53.91,29.24
		c-0.91,0.65-2.21,0.92-2.45,2.38c0.87,1.82,2.55,1.05,3.9,1.04c12.74-0.13,24.18,4,34.87,10.6c0.71,0.44,1.39,0.93,2.03,1.46
		c3.73,3.05,3.61,4.77-0.73,6.82c-9.76,4.6-20.15,5.4-30.75,4.68c-1.49-0.1-2.99-0.22-4.49-0.26c-0.43-0.01-0.86,0.26-1.9,0.59
		c2.17,2.05,4.15,3.77,5.73,5.84c8.65,11.28,12.29,24.13,11.88,38.2c-0.15,5.27-1.54,5.93-6.82,5.84
		c-10.46-0.19-18.23-5.8-25.4-12.3c-5.28-4.78-9.78-10.41-12.97-17.45c-1.39,1.59-1.15,3.21-1.2,4.77
		c-0.56,17.39-6.63,32.75-17.17,46.46c-2.66,3.46-5.95,6.3-9.28,9.06c-3.01,2.49-3.94,2.37-6.57-0.75c-4-4.75-5.49-10.61-6.51-16.51
		c-1.9-11.04-2.4-22.19-1.26-33.35c0.81-7.88,4.27-14.94,7.46-22.06C272.83,786.65,273.2,786.29,272.88,785.48z"/>
</g>
</svg>
