<?xml version="1.0" encoding="utf-8"?>
<!-- Generator: Adobe Illustrator 24.0.2, SVG Export Plug-In . SVG Version: 6.00 Build 0)  -->
<svg version="1.1" id="Layer_1" xmlns="http://www.w3.org/2000/svg" xmlns:xlink="http://www.w3.org/1999/xlink" x="0px" y="0px"
	 width="860.67" height="759.68" viewBox="0 0 860.67 759.68" style="enable-background:new 0 0 860.67 759.68;" xml:space="preserve">
<g>
	<path d="M275.07,608.18c-2.55,7.25-4.41,14.46-6.35,21.66c-3.33,12.34-9.39,23.04-19.17,31.5c-1.52,1.31-3.12,1.64-4.96,1.94
		c-5.11,0.84-5.71,1.62-6.08,6.68c-0.28,3.83-0.97,7.58-2,11.28c-0.86,3.12-2.71,4.7-5.92,5.17c-9.64,1.42-18.17,6.14-27.23,9.31
		c-5.01,1.75-9.41,5-14.77,5.8c-0.82,0.12-1.67,0.59-2.44,0.47c-9.9-1.48-17.89,4.06-26.49,7.25c-2.92,1.08-5.86,2.21-8.62,3.87
		c-2.56,1.55-5.53,0.99-7.88-1.11c-2.32-2.07-2.44-4.52-1.1-7.25c0.95-1.92,1.67-3.95,2.39-5.66c-0.35-1.34-1.24-1.59-2.01-1.61
		c-9.66-0.36-19.04-3.07-28.72-3.34c-6.98-0.19-13.31,2.68-19.93,4.15c-5.04,1.13-10.02,2.49-15.21,2.71
		c-3.73,0.16-4.76-1.08-4.19-4.8c0.29-1.86,1.06-3.56,2.21-4.98c4.2-5.2,8.63-10.21,14.4-13.74c8.83-5.41,15.08-13.56,21.1-21.48
		c6.41-8.44,7.16-19.14,6.72-29.65c-0.07-1.66-1.08-2.7-2.1-3.83c-4.78-5.27-8.25-11.26-9.58-18.32c-0.32-1.71-0.84-3.17-2.17-4.34
		c-7.16-6.29-8.89-14.92-10.26-23.75c-2.63-16.96,5.77-28.62,18.12-38.54c6.74-5.42,13.25-11.13,19.95-16.6
		c1.83-1.49,2.39-3.13,1.64-5.25c-3.91-11.01-4.23-22.46-4.26-33.95c0-0.49-0.02-1.01-0.16-1.48c-0.08-0.27-0.41-0.47-0.68-0.76
		c-1.43,0.68-1.99,2.08-2.7,3.33c-3.75,6.57-8.73,12.11-14.22,17.25c-4.21,3.94-9.14,6.65-14.52,8.51
		c-1.37,0.48-2.15,1.08-2.92,2.32c-4.23,6.86-7.74,14.18-14.67,19.14c-3.43,2.46-6.09,6.12-8.03,10.05c-1.5,3.03-3.81,5.5-5.91,8.02
		c-13.26,15.95-23.24,33.85-32.3,52.4c-3.3,6.75-5.35,13.95-8.64,20.67c-2.68,5.48-7.13,6.3-11.04,1.51
		c-4.5-5.5-7.1-12.06-8.89-18.84c-5.07-19.22-6.32-38.69-3.63-58.42c0.55-4.03,0.87-8.01-0.79-12.22c-1.62-4.1-1.02-8.93-0.58-13.37
		c0.87-8.79,2.57-17.47,6.29-25.59c3.4-7.41,5.73-15.26,9.66-22.45c0.82-1.5,0.61-3.57,0.86-5.38
		c2.35-17.22,10.07-32.08,21.13-45.06c11.41-13.38,24.89-24.63,40.43-32.97c11.6-6.22,23.74-11.5,37.17-12.32
		c5.45-0.33,10.95,0.17,16.43,0.24c7.6,0.09,14.05-3.51,20.64-6.59c1.26-0.59,1.51-2.1,1.84-3.41c2.72-10.83,5.96-21.51,10.09-31.87
		c3.14-7.88,7.19-15.37,11.22-22.84c0.77-1.42,2.06-2.6,2.33-4.59c-3.01-0.95-5.66,0.52-8.35,0.69
		c-17.06,1.07-32.91-3.38-48.45-9.81c-10.18-4.21-20.02-9.01-29.47-14.65c-4.44-2.65-4.59-4.57-0.29-7.64
		c9.14-6.53,19.18-11.25,29.73-15.07c11.63-4.21,23.59-6.73,35.8-8.34c2.08-0.27,4.28-0.42,6.49-2.37
		c-25.16-6.5-47.56-17.66-66.91-34.56c-1.73-1.51-2.84-3.62-3.73-5.69c1.18-2.44,3.19-3.74,5.36-4.52
		c7.37-2.65,14.32-6.28,21.71-8.88c4.95-1.74,10.12-2.5,15.14-2.6c10.79-0.23,21.6-1.46,32.4-0.03c0.25,0.03,0.54-0.28,1.69-0.93
		c-6.1-2.79-10.73-6.85-15.98-10.13c-12.99-8.13-25.67-16.77-34.53-29.76c-0.65-0.95-1.37-1.9-1.46-3.42
		c2.36-2.98,5.68-4.85,9.44-5.66c8.13-1.75,16.28-3.4,24.48-4.74c9.57-1.56,18.85,1.28,28.23,2.46c0.66,0.08,1.29,0.31,1.95,0.37
		c0.3,0.03,0.62-0.17,1.19-0.35c-1.74-4.11-5.1-6.94-7.71-10.3c-9.55-12.24-15.65-25.82-15.84-41.58c-0.03-2.73-1.06-3.75-3.36-4.63
		c-16.39-6.29-27.17-18.61-33.97-34.12c-5.27-12.03-8.84-24.8-6.81-38.34c0.2-1.32,0.31-2.65,0.6-3.95
		c1.68-7.73,6.98-10.46,14.07-7.08c5.87,2.8,12.12,4.5,18.2,6.65c11.25,3.97,21.34,10.11,31.38,16.26c3.54,2.17,6.46,5.71,9.14,9.13
		c2.74,3.5,4.74,3.66,8.41,1.4c3.38-2.09,6.98-3.83,10.48-5.74c6.26-3.41,12.27-7.31,19.2-9.33c13.24-3.85,26.37-7.74,40.46-7.59
		c12.32,0.13,23.98,2.63,35.72,5.96c14.52,4.11,28.25,9.76,40.96,17.87c2.36,1.51,4.22,1.13,6.24-0.72
		c5.8-5.29,12.28-9.64,19.01-13.69c5.38-3.24,11.19-5.15,17.17-6.5c6.64-1.5,13.28-3.29,19.93-4.36
		c11.62-1.87,23.46-2.97,35.26-0.93c4.49,0.78,6.21,3.42,6.09,8.01c-0.24,9.22-3.74,17.44-7.27,25.73
		c-6.86,16.09-17.34,29.67-30.41,40.86c-10.14,8.68-20.96,17.15-35.03,19.02c-2.73,0.36-3.74,1.81-3.41,4.42
		c0.42,3.3,0.84,6.61,1.25,9.92c0.18,1.4,0.71,2.44,2.19,3.02c6.56,2.57,10.56,7.99,14.2,13.56c1.63,2.5,3.13,3.03,5.71,2.04
		c9.53-3.65,19.6-5.12,29.48-7.4c11.58-2.67,23.39-3.79,35.16-3.61c12.77,0.19,25.56,1.7,37.88,5.57c3.13,0.99,3.2,1.98,1.86,5.25
		c-2.46,6.03-6.93,10.53-11.18,15.16c-7.24,7.88-15.41,14.62-24.67,20.13c-11.05,6.57-22.27,12.63-34.63,16.38
		c-0.78,0.24-1.59,0.51-2.12,1.59c1.88,0.6,3.56,0.01,5.24-0.41c17.09-4.26,34.46-4.78,51.98-4.72c11.17,0.04,22.18,0.87,33.18,2.44
		c1.64,0.23,3.26,0.6,4.86,1.02c4.34,1.14,5.07,2.54,2.32,6.27c-5.44,7.38-11.68,14.09-18.51,20.24
		c-8.44,7.6-17.65,14.18-27.14,20.37c-8.71,5.68-18.42,9.23-28.02,13c-1.66,0.65-3.57,0.89-4.97,2.86
		c5.62-0.32,10.7-1.89,15.89-2.73c7.43-1.2,14.91-1.28,22.4-1.19c4.99,0.06,9.96,0.2,14.96-0.39c3.55-0.42,7.13,0.77,10.62,1.35
		c6.85,1.14,13.86,1.39,20.56,3.42c6.04,1.83,12.07,3.7,18.29,4.86c3.06,0.58,6.09,1.36,9.02,2.02c0.86,3.16-1.23,4.62-2.76,6.26
		c-17.24,18.43-38.28,30.74-62.16,38.48c-13.21,4.28-26.64,7.26-40.61,7.3c-0.44,0-0.88,0.32-1.32,0.49
		c-0.61,2.47,1.3,3.35,2.7,4.34c13.3,9.34,24.19,21.27,35.76,32.53c12.31,11.99,23.06,25.35,34.95,37.69
		c10.52,10.92,18.42,24,26.94,36.54c12.13,17.85,21.04,37.32,30.12,56.8c4.85,10.41,9.85,20.7,13.76,31.5
		c0.91,2.5,2.92,3.55,5.55,3.26c3.48-0.38,6.98-0.66,10.41-1.28c12.6-2.25,25.2-4.31,37.61-7.71c8.62-2.37,17.51-3.86,26.1-6.56
		c8.72-2.75,17.1-6.38,25.62-9.64c8.07-3.09,16.12-6.28,23.83-10.24c2.53-1.3,3.55-2.86,3.9-5.67c2.64-20.81,4.76-41.72,8.49-62.33
		c2.83-15.62,5.05-31.6,12.16-46.17c0.66-1.34,1.31-2.69,2.01-4.01c1.3-2.46,2.86-2.39,5.33-1.22c8.2,3.85,10.22,11.73,12.81,19.13
		c5.92,16.89,8.18,34.62,11.48,52.1c1,5.29,0.59,10.85,1.74,16.72c1.72-2.71,3.72-5.28,5.11-8.14c4.9-10.11,12.02-18.76,18.21-28.01
		c6.66-9.96,13.61-19.71,21.25-28.96c7.88-9.54,16.11-18.65,26.61-25.39c4.88-3.13,7.77-1.49,7.68,4.44
		c-0.06,4.31-0.48,8.7-1.79,12.82c-1.65,5.22-2.73,10.62-5.04,15.65c-4.87,10.59-7.4,22.1-12.78,32.5
		c-0.19,0.37-0.02,0.93-0.02,1.41c9.43,0.12,12.03,4,8.36,13.03c-3.14,7.73-7.29,14.97-12.6,21.44c-3.07,3.74-5.34,8.02-8.54,11.69
		c-17.96,20.56-38.77,37.88-60.65,54.06c-16.08,11.89-32.42,23.37-49.44,33.85c-9.06,5.58-18.58,10.39-28.02,15.33
		c-21.86,11.43-44.5,21.07-67.33,30.31c-11.11,4.49-22.81,7.22-34.25,10.74c-7.76,2.39-15.78,3.71-23.9,5.96
		c2.4,6.48,5.25,12.3,6.71,18.61c2.05,8.89,3.57,17.85,4.17,26.97c0.09,1.41-0.47,2.64-1.1,3.79c-3.74,6.73-3.87,13.95-3.17,21.34
		c1.19,12.42,2.29,24.86,3.42,37.29c0.03,0.33,0.07,0.67,0.05,1c-0.28,5.41,1.98,11.75-2.04,15.96
		c-6.01,6.29-12.31,12.7-21.15,15.32c-6.62,1.96-11.51-2.03-16.68-4.89c-1.88-1.04-3.62-2.43-5.17-3.91
		c-4.13-3.94-9.29-5.17-14.64-5.37c-7.48-0.28-14.99-0.1-22.48,0.06c-3.02,0.06-5.93,0.78-8.22,3.08c-0.93,0.94-2.13,1.6-3.12,2.49
		c-9.01,8.02-17.13,6.46-25.74,0.1c-5.06-3.74-8.47-9.26-13.48-13.19c-2.7-2.12-3.16-5.73-2.42-9.25
		c1.81-8.66,1.15-17.25-1.11-25.72c-1.45-5.42-4.82-9.52-10.03-11.57c-9.85-3.88-18.03-10.03-24.63-18.11
		c-9.03-11.05-16.42-23.06-19.45-37.31c-0.27-1.28-0.95-2.48-1.5-3.69c-0.93-2.08,0.1-5.03-2.22-6.35c-2.12-1.21-4.54,0.3-6.87,0.12
		c-17.76-1.36-35.53-2.72-52.84-7.29c-7.42-1.96-15.1-2.76-22.46-4.74C290.94,611.58,283.38,609.7,275.07,608.18z M201.73,257.95
		c1.81-1.52,2.4-2.96,1.98-5.2c-4.18,0.29-8.45-0.82-12.64,0.82C194.45,255.62,198.47,255.52,201.73,257.95z"/>
</g>
</svg>
