<?xml version="1.0" encoding="utf-8"?>
<!-- Generator: Adobe Illustrator 24.0.2, SVG Export Plug-In . SVG Version: 6.00 Build 0)  -->
<svg version="1.1" id="Layer_1" xmlns="http://www.w3.org/2000/svg" xmlns:xlink="http://www.w3.org/1999/xlink" x="0px" y="0px"
	 width="763.34" height="830.48" viewBox="0 0 763.34 830.48" style="enable-background:new 0 0 763.34 830.48;" xml:space="preserve">
<g>
	<path d="M218,691.31c-2.75,9.5-10.8,15.62-14.72,24.26c-0.57,1.26-2.15,2.05-3.98,2.1c-11.47-9.85-16.98-24.09-24.99-36.75
		c-4.52,2.88-5.55,7.18-7.85,10.52c-1.7,2.47-3.37,4.94-5.34,7.21c-1.96,2.26-4.1,2.52-5.71-0.09c-4.43-7.17-10.44-13.3-13.58-21.32
		c-2.97-7.59-7.86-12.58-16.86-12.07c-2.77,0.16-5.79-0.27-8.34-1.31c-3.22-1.32-5.68-1.12-8.13,1.26c-0.68,0.66-1.67,1.1-3.44,0.8
		c-2.11-7.56-10.26-6.15-15.75-9.72c-1.84,1.75-3.84,3.29-5.39,5.19c-2.54,3.11-5.32,5.51-9.63,5.25c-1.41-0.08-1.97,1.03-2.72,1.91
		c-2.04,2.4-4.09,4.78-6.2,7.26c-4.32-0.89-6.38-4.33-7.82-7.37c-2.68-5.64-7.39-7.1-12.71-8.34c-6.78-1.58-13.2-4.28-19.51-7.2
		c-2.66-1.23-3.89-3.16-3.48-6.4c0.42-3.3,0.53-6.53,2-9.67c1.74-3.73-2.52-9.23-6.62-8.83c-2.64,0.26-5.27,0.71-7.9,1.16
		c-2.83,0.49-4.36-0.66-5.07-3.42c-0.55-2.13-0.84-4.24-0.74-6.42c0.54-12.6,2.85-24.76,9.47-35.73
		c7.24-12.02,9.31-25.17,8.59-38.88c-0.5-9.53,0.73-18.96,0.95-28.45c0.07-2.8,1.27-5.18,3.08-7.21c3.32-3.72,5.6-8.3,9.81-11.39
		c-1.15-3.51-2.23-6.8-3.19-10.12c-1.82-6.26-0.55-11.97,2.64-17.23c4.93-8.12,10.28-15.99,17.16-22.62
		c2.34-2.26,2.21-3.83,0.52-6.35c-7.3-10.92-14.59-21.87-20.61-33.56c-3.1-6.02-5.03-12.65-6.32-19.27
		c-0.62-3.17,1.04-6.78,1.68-10.19c1.63-8.74,3.72-17.13,2.4-26.48c-1.51-10.77-3.11-21.75-2.35-32.78
		c0.07-0.99-0.06-2.08,0.31-2.96c3.13-7.46,3.61-15.5,5.11-23.31c0.79-4.12,2.12-8.03,3.32-12.01c0.87-2.9,2.63-3.92,5.61-3.62
		c3.75,0.38,7.53,0.46,11.93,0.71c-3.35-4.33-4.55-9-6.12-13.52c-1.35-3.91-4.87-6.25-7.2-9.47c-3.62-4.97-7.74-9.57-11.65-14.33
		c-3.04-3.7-4.24-8.29-5.64-12.68c-3.24-10.15-7.82-19.75-11.57-29.69c-0.65-1.72-1.86-3.13-3.01-4.57
		c-2.18-2.73-4.42-5.45-6.29-8.38c-3.46-5.41-2.88-5.94,2.78-9.1c3.87-2.17,7.74-4.49,11.44-6.95c3.35-2.23,6.88-4.12,10.46-5.72
		c4.54-2.03,9.51-0.5,14.27-0.09c17.8,1.52,35.38,2.29,52.71-4.12c7.19-2.66,14.83-4.96,22.76-5.26c5.02-0.19,9.03-3.26,13.42-5.14
		c5.98-2.55,12.13-4.61,18.21-6.85c4.7-1.73,9.5-0.64,14.28,0.4c8.11,1.76,16.17,4,24.46,4.63c6.55,0.5,13.18,0.46,20.1-0.06
		c-0.25-5.72-0.01-11.07-0.87-16.25c-0.67-4.05,0.86-6.9,3.76-8.44c11.42-6.07,21.63-14.36,33.98-18.73
		c1.11-0.39,2.18-0.93,3.37-0.8c8.18,0.89,16.27-0.58,24.4-0.83c4.04-0.12,7.78-0.99,11.39-3.1c7.35-4.3,14.41-8.95,21.16-14.14
		c9.3-7.14,19.72-9.54,31.49-7.69c15.8,2.48,31.31,6.17,46.82,9.97c0.46,0.11,1,0.2,1.64-0.78c-1.71-6.25-4.15-12.66-6.62-19.24
		c5.75-4.91,12.45-8.09,19.29-11.17c6.34-2.85,12.91-3.94,19.73-4.49c6.25-0.51,11.71-3.19,16.89-6.74
		c5.34-3.65,11.15-6.51,17.18-8.99c2.96-1.22,6.06-2.78,7.94-5.78c6.82-10.87,16.89-18.7,25.85-27.56c3.14-3.11,4.07-2.93,6.62,0.63
		c6.56,9.18,14.03,17.74,18.59,28.28c1.84,4.26,3.26,8.68,5.23,12.9c2.83,6.07,6.75,11.04,12.28,14.74
		c8.14,5.44,15.17,11.87,19.83,20.68c3.49,6.6,9.25,11.7,12.33,18.68c1.23,2.79,1.42,4.9-0.05,7.42c-1.76,3.01-3.57,6.01-4.97,9.19
		c-1.32,2.98-0.58,4.09,2.58,4.19c8.4,0.25,16.3,3.2,24.52,4.38c6.15,0.88,9.57,4.74,11.89,10.14c2.42,5.62,5.21,11.08,7.58,16.72
		c2.42,5.76,6.73,9.89,11.42,13.59c6.41,5.05,12.64,9.87,16.32,17.72c2.1,4.48,7.7,6.66,11.45,10.19c1.69,1.59,3.65,2.9,5.4,4.44
		c4.52,4,5.32,8.38,2.79,13.91c-2.72,5.95-7.33,10.66-10.54,16.29c-0.48,0.84-1.41,1.45-1.2,2.87c1.98,1.25,4.38,0.79,6.61,0.85
		c7.05,0.19,12.51,2.55,16.98,8.59c5.05,6.82,8.9,14.45,14.46,20.9c1.2,1.39,2.27,2.82,3.91,3.77
		c18.17,10.51,35.48,22.33,52.35,34.8c1.33,0.98,2.74,2.02,4.28,2.54c10.07,3.42,16.29,11.13,22.12,19.37
		c1.53,2.16,2.17,4.99,5.12,6.2c1.12,0.46,1.43,2.9,0.14,3.42c-3.67,1.48-4.23,5.38-6.71,7.66c-5.55,5.1-9.9,11.24-14.86,16.85
		c-4.86,5.49-10.61,10.06-15.27,15.75c-2.25,2.75-3.3,4.95-2.48,8.86c2.66,12.69,4.99,25.48,6.56,38.35
		c1.24,10.15,6.09,18.5,10.93,27c1.65,2.89,3.23,5.86,5.25,8.48c2.09,2.71,1.87,5.24,0.31,7.85c-1.1,1.85-2.5,3.53-3.77,5.28
		c-2.51,3.5-5.15,6.82-6.63,11.05c-1.22,3.49-3.1,7.02-7.63,8.68c-3.49-4.92-7.61-9.25-14.23-10.25c-2.78,2.68-3.72,6.46-5.17,9.94
		c-1.42,3.43-2.98,6.39-7.55,5.49c-1.44-0.28-2.49,0.5-3.3,1.75c-1,1.53-2.17,2.95-3.25,4.43c-2.31,3.13-3.26,3.3-6.55,1.11
		c-0.42-0.28-0.91-0.52-1.18-0.91c-4.18-5.83-10.51-5.28-16.55-5.62c-1.32-0.07-2.64-0.24-3.97-0.28c-3.28-0.1-4.9-1.88-4.79-5.04
		c0.15-4.18-2.29-6.32-5.75-7.99c-2.48,1.95-3.45,4.89-5.13,7.32c-1.35,1.96-3.06,2.49-4.42,0.55c-3.8-5.41-10.53-8.03-13.06-14.79
		c-1.34-3.57-1.8-6.93-1.33-10.02c-0.79-1.21-1.51-1.3-2.11-1.05c-6.13,2.56-12.62,3.94-18.9,5.97c-8.9,2.87-18.11,5.26-25.54,11.54
		c-1.5,1.26-3.41,2.1-5.23,2.9c-12.43,5.48-17.93,16.18-21.46,28.36c-1.05,3.63-3.21,6.37-5.83,9.08c-4.6,4.76-8.73,9.96-12.9,14.81
		c5.17,12.34,12.11,23.33,17.53,35.08c1.23,2.67,1.67,5.38,1.53,8.24c-0.49,9.64-0.38,19.33-2.15,28.86
		c-0.47,2.54,0.23,4.41,1.64,6.47c2.55,3.74,3.93,7.86,4.15,12.55c0.55,11.64,1.06,23.29,2.67,34.86c0.96,6.9,4.55,12.82,6.7,19.27
		c4.96,14.89,12.21,28.76,18.83,42.92c1.89,4.05,3.48,8.24,5.15,12.4c0.71,1.75,0.65,3.57,0.14,5.4
		c-2.97,10.81-6.88,21.14-14.22,29.89c-3.2,3.81-3.72,8.8-5.39,13.28c-3.77,10.11-4.67,10.36-12.98,3.59
		c-3.4-2.78-5.99-6.65-11.04-7.22c-3.94-0.45-5.01-0.24-6.19,3.66c-1.39,4.6-2.57,9.26-3.97,13.86c-3.11,10.2-3.2,10.6-14.6,12.67
		c-1.46,0.27-3,0.27-4.49,0.15c-3.07-0.25-5.06,1.13-6.35,3.79c-2.7,5.59-6.7,10.32-10.17,15.4c-2.37,3.47-3.02,3.43-6.11,0.85
		c-5.79-4.83-10.8-10.38-15.32-16.38c-1.71-2.28-3.49-3.78-6.53-3.78c-4.77,0-8.93-2.5-13.41-3.71c-1.4-0.38-2.39-1.43-2.17-2.95
		c1.09-7.75-3.48-14.03-5.21-21.33c-4.14-0.17-7.48,0.85-9.98,4.33c-2.51,3.48-5.18,6.87-9.23,9.12c-3.4-3.75-6.88-7.08-8.19-11.96
		c-0.87-3.24-2.34-6.18-4.25-8.97c-5.33-7.77-9.57-16.4-11.14-25.43c-2.14-12.27-3.93-24.93,4.19-36.6
		c12.89-18.52,18.86-39.84,23.25-61.66c1.09-5.4,1.99-10.79,4.68-15.71c1.37-2.51,1.23-4.64-1.08-7.11
		c-5.07-5.45-9.98-11.14-12.49-18.73c-7.33,3.32-13.53,7.38-19.23,12.15c-8.01,6.72-16.5,12.84-24.04,20.16
		c-3,2.92-6.99,4.9-11.54,5.48c-5.27,0.67-9.7,4.3-15.11,4.77c-0.29,0.02-0.62,0.3-0.81,0.55c-6.74,8.66-16.72,14.39-21.99,24.36
		c-1.7,3.22-4.62,5.21-7.24,7.49c-1.65,1.43-3.75,1.57-5.69,0.89c-3.88-1.37-7.45-2.9-10.24-6.51
		c-4.97-6.43-10.42-12.55-16.24-18.22c-3.17-3.09-4.58-7.29-7.81-10.28c-2.79,0.63-4.65,2.23-6.35,4.46
		c-9.98,13.05-19.68,26.3-30.63,38.62c-6.39,7.19-12.62,14.59-18.72,22.06c-1.12,1.38-2.1,3.32-4.32,2.78
		c-2.17-0.53-2.32-2.56-2.64-4.39c-0.23-1.31-0.97-2.63-0.84-3.89C231.29,699.11,225.48,694.84,218,691.31z"/>
</g>
</svg>
