<?xml version="1.0" encoding="utf-8"?>
<!-- Generator: Adobe Illustrator 24.0.2, SVG Export Plug-In . SVG Version: 6.00 Build 0)  -->
<svg version="1.1" id="Layer_1" xmlns="http://www.w3.org/2000/svg" xmlns:xlink="http://www.w3.org/1999/xlink" x="0px" y="0px"
	 width="602.94" height="860.97" viewBox="0 0 602.94 860.97" style="enable-background:new 0 0 602.94 860.97;" xml:space="preserve">
<g>
	<path d="M602.67,452.47c-6.5,0.96-12.57,1.82-18.78,1.37c-4.73-0.35-5.01,0.14-5.15,4.88c-0.08,2.61,0.7,5.33-0.88,8.07
		c-4.68,0.16-8.65-1.85-12.32-4.5c-2.43-1.75-5-3.52-6.82-5.83c-2.56-3.25-5.91-3.73-9.55-4.45c-16.96-3.32-34.19-5.87-50.1-13.02
		c-11.68-5.25-22.99-11.35-34.47-17.06c-13.42-6.67-26.61-13.78-39.57-21.28c-11.23-6.5-22.45-13.05-33.3-20.2
		c-1.36-0.89-2.53-2.14-4.2-2.44c-1.21,0.7-1.11,1.64-0.6,2.59c5.83,10.85,12.62,21.1,19.28,31.44c3.26,5.05,7.7,8.69,12.95,11.45
		c6.63,3.49,13.33,6.84,19.95,10.35c13.42,7.11,24.13,17.7,35.77,27.09c15.06,12.15,25.88,27.59,33.99,45.03
		c1.48,3.18,2.59,6.48,3.59,9.84c0.6,2.03,1,4.19,2.75,5.64c1.86-0.26,2.53-1.66,3.14-3.01c6.22-13.7,14.79-25.99,22.97-38.52
		c3.54-5.42,6.45-11.28,11.69-15.44c4.52-3.59,5.99-3.31,8.73,1.76c2.98,5.49,2.53,11.63,3.49,17.51
		c2.27,13.8,1.49,27.56-0.93,41.19c-2.99,16.85-6.02,33.8-14.04,49.19c-3.7,7.1-8.61,13.46-14.89,18.62
		c-2.4,1.97-5.12,2.27-8.01,1.71c-5.37-1.05-10.92-1.18-15.6-3.46c-1.83,0.78-2.47,1.98-3.09,3.14
		c-7.82,14.5-19.86,24.47-34.45,31.44c-4.5,2.15-7.07,5.28-8.27,9.83c-3.97,14.96-8.38,29.79-13.4,44.42
		c-3.99,11.63-8.29,23.14-14.03,34.08c-3.24,6.18-5.79,12.72-8.81,19.02c-10.09,21.01-24.12,39.4-38.56,57.51
		c-6.96,8.73-14.31,17.09-22.54,24.66c-15.69,14.45-33.88,25-52.85,34.46c-8.88,4.43-18.31,7.19-27.82,9.29
		c-9.54,2.1-19.39,2.42-29.27,1.98c-10.43-0.46-20.44-1.83-30.08-6.18c-3.58-1.62-7.75,0.37-11.63,0.92
		c-9.54,1.34-18.71,4.47-28.41,5.28c-8.7,0.73-16.84-1.4-25.08-3.22c-3.88-0.86-7.65-2.27-11.43-3.57
		c-14.89-5.09-26.05-15.17-35.44-27.29c-6.42-8.28-12.58-16.9-15.34-27.23c-3.34-12.5-6.91-24.92-9.24-37.72
		c-3.18-17.46-3.96-34.95-3.22-52.54c0.87-20.57,2.23-41.13,6.27-61.4c0.88-4.39,1.01-8.95,2.97-13.1c0.75-1.6,0.06-2.86-1.01-4.06
		c-2.66-2.98-5.28-5.99-7.89-9.01c-1.18-1.36-2.68-2.52-3.16-4.58c4.68-4.76,10.73-7.63,16.65-11.48
		c-4.33-4.48-9.91-6.92-13.17-11.79c0.63-3.03,4.06-3.49,5.22-6.28c-1.29-3.28-3.67-5.63-7.29-6.53
		c-13.28-3.3-25.14-9.52-36.17-17.46c-8.01-5.76-15.36-12.31-21.81-19.74c-7.78-8.96-14.03-18.99-18.39-30.1
		c-2.31-5.88-5.42-11.61-6.6-17.71c-1.49-7.74-4.91-15.16-4.28-23.31c0.44-5.77-1.01-11.61,0.64-17.85
		c6.86-0.77,13.73,0.23,20.4,2.12c6.88,1.95,13.71,4.15,20.26,7.08c6.4,2.86,12.46,6.28,18.26,10.27
		c5.74,3.95,9.97,9.44,15.21,15.15c1.3-7.79,1.8-14.53,3.59-21.08c3.72-13.65,7.71-27.16,15.46-39.21c1.81-2.81,3.1-5.67,2.79-9.3
		c-0.62-7.27,1.61-14.16,3.74-20.99c1.51-4.86,3.98-5.72,8.24-2.88c9.22,6.15,16.91,13.92,24.05,22.37
		c9.26,10.94,16.17,23.12,21.11,36.51c0.22,0.59,0.72,1.07,1.11,1.64c1.87-0.63,2.4-2.4,3.31-3.66
		c11.78-16.44,26.76-29.46,42.9-41.42c6.37-4.72,13.07-8.55,20.26-11.67c5.81-2.52,8.56-0.94,9.07,5.3
		c1.16,14.19,0.2,28.27-2.44,42.25c-1.2,6.37-2.09,12.82-4.16,19c-0.42,1.26-0.69,2.55-0.41,3.8c1.51,0.82,1.91-0.36,2.41-1.09
		c12.66-18.41,26.47-35.85,42.21-51.77c12.78-12.93,26.63-24.6,40.9-35.77c5.75-4.5,11.79-8.72,17.92-12.69
		c4.46-2.89,6.14-6.72,6.98-11.39c0.71-3.93,1.04-7.91,1.7-11.86c0.91-5.4-1.86-8.3-7.22-9.9c-6.84-2.05-13.78-4.2-20.08-7.45
		c-6.06-3.12-12.26-5.96-18.31-9.09c-3.91-2.03-8.05-1.13-11.39,0.82c-11.22,6.56-23.21,11.58-34.63,17.73
		c-11.99,6.45-24.38,12.19-37.38,16.48c-9.53,3.14-19.07,3.56-29.04,2.15c-6.96-0.99-13.84-2.17-20.31-4.63
		c-8.37-3.18-16.51-7.01-24.21-11.7c-4.05-2.47-7.41-5.51-10.44-9.15c-4.75-5.7-5.86-12.04-4.36-19.1c0.44-2.07,0.76-4.05,0.36-6.33
		c-0.49-2.75,1.54-5.26,2.64-7.8c5.23-12.05,11.4-23.66,17.13-35.48c1.68-3.47,4.03-6.52,5.89-9.85
		c13.96-25.07,30.68-48.3,47.19-71.69c6.89-9.75,10.21-20.4,8.76-32.84c-1.5-12.85-1.48-25.9-1.72-38.87
		c-0.31-17.12-1.58-34.22-0.89-51.35c0.52-13.1,0.57-26.26,3.94-39.08c0.34-1.28,0.58-2.61,1.09-3.83
		C210-2.91,213.25-0.59,227.64,1.25c18.63,2.38,36.79,7.47,54.98,12.24c6.06,1.59,11.27,4.75,17.1,6.61
		c14.6,4.65,28.35,11.43,42.04,18.14c8.58,4.21,17.03,8.91,25.13,14.19c8.21,5.35,16.8,10.09,24.84,15.76
		c14.16,9.97,28.05,20.27,41.09,31.66c13.05,11.4,24.43,24.37,35.49,37.69c10.76,12.97,18.46,28.02,28.94,41.14
		c6.13,7.68,12.41,15.24,18.63,22.85c9.08,11.11,16.69,23.26,24.46,35.28c4.95,7.66,9.29,15.72,13.22,23.99
		c3.22,6.79,4.29,13.94,2.1,20.89c-4.07,12.89-11.37,16.43-25.18,16.7c-3.68,0.07-7.29-0.81-10.77-2
		c-11.62-3.96-23.59-5.43-35.83-5.64c-4.57-0.08-7.96,1.23-10.93,4.6c-8.79,9.94-19.22,17.98-30.56,24.74
		c-7.56,4.51-15.57,8.28-23.42,12.28c-2.98,1.52-6.41,1.63-9.61,2.43c-11.14,2.82-22.48,4.57-34.01,4.84
		c-3.87,0.09-4.3,0.66-3.69,4.45c1.15,7.11,2.86,8.87,9.91,9.41c13.16,1.01,25.94,4.04,38.76,6.97c11.03,2.52,22.19,4.42,33.02,7.82
		c10.79,3.39,21.77,6.29,32.2,10.67c8.46,3.56,17.35,5.76,25.8,9.35c15.23,6.46,29.42,14.76,43.61,23.14
		c9.77,5.76,18.9,12.45,27.89,19.25c6.45,4.88,13.15,9.65,18.41,16.03C602.67,448.48,603.36,449.98,602.67,452.47z M326.72,419.32
		c-13.9,24.39-30.2,46.89-48.74,68.03c2.9,2.8,6.09,4.83,7.42,8.68c-6.03,8.37-12.34,16.66-20.13,23.36
		c-10.59,9.11-22.34,16.8-34.83,23.15c-3.55,1.81-5.05,3.8-5.45,7.86c-0.45,4.55-1.42,9.34-4.48,13.12
		c-5.95-3.03-8.44-8.63-12.55-13.01c-1.74,1.32-3.16,2.45-4.63,3.51c-7.3,5.28-14.95,9.98-23.29,13.44
		c-4.31,1.79-6.72,0.22-7.64-4.56c-0.09-0.44-0.39-0.84-0.74-1.56c-5,0.67-10.03,1.41-14.84,0.13c-0.9,2.41,0.34,3.48,1.17,4.68
		c2.47,3.55,5,7.06,7.4,10.66c1.99,2.99,1.03,5.2-2.51,5.49c-3.64,0.3-7.28,0.73-10.96,0.69c-3.23-0.03-6.51,0.31-9.84,2.11
		c4.46,7.4,5.84,15.57,8.55,23.53c-5.73,2.1-11.52-0.56-17.34,1.71c3.99,5.04,9.84,7.66,12.73,13.49
		c-5.28,4.58-11.07,8.07-17.13,11.13c-2.44,1.23-3.48,2.54-3.45,5.68c0.06,8.93,2.31,17.42,3.95,26.06
		c2.07,10.93,4.89,21.69,7.69,32.44c2.93,11.26,7.22,22.06,11.83,32.8c10.89,25.36,25.93,47.96,43.93,68.68
		c7.44,8.57,15.87,16.07,25.5,22.26c3.42,2.2,6.18,1.78,9.2,0.03c19.26-11.18,38.05-22.97,52.32-40.61
		c3.02-3.74,6.71-6.97,9.47-10.88c9.09-12.87,18.04-25.81,26.24-39.32c5.43-8.95,10.45-18.12,15.72-27.14
		c5.77-9.88,9.95-20.56,14.17-31.18c1.54-3.86,3.45-7.58,4.79-11.51c3.78-11.05,4.91-22.7,6.61-34.14c0.76-5.11,1.42-11.38-4.4-15.3
		c-1.43-0.96-2.29-2.83-3.3-4.35c-6.42-9.59-10.99-20.05-14.54-31c-4.32-13.3-8-26.7-9.48-40.71c-0.51-4.82-0.08-9.63-0.82-14.37
		c-1.17-7.57-2.03-15.12-1.07-22.81c0.55-4.45,0.87-8.96,0.8-13.44c-0.24-15.12,1.61-30.15,1.9-45.24
		C326.09,433.8,326.9,426.75,326.72,419.32z M112.55,660.08c-1.98,1.84-2,3.4-1.96,4.84c0.48,17.62-2.18,35.11-1.45,52.81
		c0.89,21.65,4.47,42.59,11.32,63.06c3.86,11.55,8.37,22.82,14.83,33.19c5.07,8.12,11.55,15.06,19.17,20.8
		c2.43,1.83,5.23,3.41,8.5,3.98c9.01,1.56,17.86,0.67,26.68-1.2c1.58-0.34,3.36-0.52,3.88-2.65c-0.34-1.53-1.54-2.46-2.64-3.47
		c-9.07-8.39-17.02-17.8-24.35-27.68c-10.12-13.64-19.36-27.86-26.38-43.41c-3.27-7.25-6.96-14.33-10.23-21.54
		c-3.4-7.46-6.61-15.28-8.07-23.5c-1.74-9.81-4.13-19.49-5.45-29.38C115.29,677.58,113.93,669.26,112.55,660.08z M415.87,640.53
		c-2.51-0.43-3.09,0.85-3.62,2.66c-3.39,11.6-6.47,23.31-10.9,34.58c-3.95,10.05-7.01,20.47-12.44,29.91
		c-3.15,5.47-6.09,11.07-9.3,16.51c-5.22,8.85-10.09,17.97-16.53,26.02c-11.73,14.68-23.09,29.68-36.76,42.72
		c-11.89,11.34-22.6,24.07-38.01,31.1c-1.49,0.68-2.76,1.85-4.14,2.78c-5.53,3.68-10.8,7.78-16.92,10.53
		c-1.24,0.56-2.97,1.04-2.39,3.18c0.47,0.15,0.94,0.4,1.41,0.42c0.83,0.03,1.68,0,2.48-0.16c12.5-2.51,24.31-6.99,35.34-13.27
		c16.47-9.38,30.46-21.96,42.98-35.98c12.04-13.47,23.96-27.14,33.06-42.95c7.44-12.92,14.73-25.85,20.3-39.76
		c1.99-4.96,3.13-10.1,4.97-15.03c4.68-12.6,8.91-25.32,10.46-38.7C416.39,650.42,417.78,645.57,415.87,640.53z"/>
</g>
</svg>
