<?xml version="1.0" encoding="utf-8"?>
<!-- Generator: Adobe Illustrator 24.0.2, SVG Export Plug-In . SVG Version: 6.00 Build 0)  -->
<svg version="1.1" id="Layer_1" xmlns="http://www.w3.org/2000/svg" xmlns:xlink="http://www.w3.org/1999/xlink" x="0px" y="0px"
	 viewBox="0 0 815.58 739.96" style="enable-background:new 0 0 815.58 739.96;" xml:space="preserve">
<g>
	<path d="M669.62,39.43c1.61,0.96,2.78-0.28,4.08-0.86c6.25-2.79,12.63-5.2,19.5-5.93c1.76-0.19,3.84-0.81,4.91,1.29
		c0.92,1.8-0.47,3.1-1.43,4.45c-8.4,11.84-16.02,24.12-20.99,37.88c-1.59,4.41-2.39,8.5-1.22,13.44
		c2.57,10.83,0.01,21.53-3.07,31.95c-3.89,13.17-11.1,24.45-20.19,34.69c-10.97,12.36-22.24,24.36-36.18,33.48
		c-1.15,0.75-2,1.5-2.44,2.94c-3.24,10.67-8.73,20.47-11.97,31.18c-2.91,9.6-4.67,19.41-6.53,29.22c-0.37,1.95,0.34,3.29,2.14,3.97
		c6.71,2.53,11.8,7.19,16.89,12.06c6.13,5.86,12.47,11.57,19.24,16.65c5.92,4.45,5.55,10.47,2.91,15.39
		c-2.52,4.68-6.26,8.35-10.36,11.39c-6.66,4.94-13.37,9.96-21.2,13.06c-3.02,1.19-5.2,3.5-8.19,5.63c3.8,4.57,7.48,9.01,11.17,13.43
		c9.97,11.98,22.45,21.3,33.72,31.89c12.62,11.87,26.17,22.73,38.45,34.94c14.52,14.45,28.25,29.67,40.06,46.5
		c3.73,5.31,8.12,9.61,14.06,12.96c12.59,7.1,24.62,15.13,35.19,25.3c7.56,7.27,15.4,14.22,22.03,22.37
		c6.07,7.46,10.5,15.68,11.86,25.45c0.57,4.11,3.47,7.51,5.31,11.22c4.13,8.3,6.54,16.9,7.61,26.15c1.15,9.96,0.68,19.53-2.19,29.11
		c-1.45,4.85-3.68,9.28-6.24,13.57c-1.69,2.84-3.72,2.66-5.95,0.12c-2.04-2.33-1.9-6.11-5.21-7.86c-2.6,4.23-2.94,8.98-4.46,13.32
		c-2.06,5.9-4.84,11.29-9.27,15.77c-4.24,4.28-7.03,3.58-8.66-2.29c-3.89-14-8.91-27.56-16.41-40.06c-2.5-4.16-5.22-8.32-9.77-11.88
		c0.29,14.12-2.89,26.35-11.79,36.9c-3.41-2.09-4.34-4.8-5.18-7.45c-4.34-13.62-11.29-25.78-19.35-37.57
		c-4.25-6.21-10.23-9.8-15.57-14.33c-7.78-6.6-13.74-13.87-17.29-23.78c-6.85-19.11-7.42-38.71-6.92-58.55
		c0.06-2.54-0.25-4.84-1.34-7.23c-3.97-8.72-9.56-16.39-15.26-23.96c-6.91-9.18-13.9-18.32-21.3-27.1
		c-8.41-9.98-18.46-18.34-29-25.91c-17.59-12.64-36.11-23.84-55.69-33.23c-3.52-1.69-6.1-1.94-9.58,0.33
		c-5.03,3.29-9.68,7.04-14.52,10.55c-12,8.72-24.39,16.81-37.08,24.47c-3.27,1.97-6.28,2.45-9.93,1.46c-3.23-0.88-7.06,0.26-9-3.94
		c-0.97-2.11-2.94-1.82-4.59-0.33c-0.99,0.9-2.09,1.8-2.33,3.17c-1.18,6.7-2.43,13.39-2.2,20.48c6.5,1.83,12.96,2.48,19.23,4
		c11.16,2.71,22.41,4.99,33.41,8.32c2.23,0.68,4.46,1.51,6.75,1.81c7.87,1.05,14.01,4.94,19.01,10.93c2.45,2.94,4.9,5.88,7.44,8.76
		c1.99,2.27,2.14,4.61,1.11,7.4c-3.54,9.5-6.62,19.19-11.54,28.1c-2.79,5.05-2.16,11.13-5.24,16.06c-0.77,1.24,0.2,2.46,0.89,3.66
		c2.42,4.25,6.01,7.55,9.09,11.24c15.98,19.08,34.63,35.5,52.75,52.45c1.09,1.02,2.34,1.88,3.57,2.73
		c6.6,4.54,10.33,10.58,12.31,18.56c3.13,12.59,5.47,25.34,8.2,37.99c3.15,14.61,4.58,29.59,6.71,44.42
		c0.5,3.46,0.87,6.94,1.14,10.42c0.15,2.02,1.47,3.28,2.5,4.77c6.81,9.85,10.38,20.79,10.7,32.74c0.14,5.32-0.68,5.61-5.85,4.37
		c-4.45-1.07-8.05-3.66-12.25-6.31c-0.27,2.77-0.37,4.88-0.69,6.95c-0.77,4.96-2.33,6.22-7.12,4.64c-6.3-2.08-12.6-4.29-18.34-7.78
		c-3.34-2.03-6.35-4.66-10.18-6.27c-0.24,0.97-0.51,1.46-0.45,1.9c0.8,5.41,0.05,6.19-5.22,5.32c-9.76-1.62-18.77-5.55-27.85-9.23
		c-6.1-2.47-11.79-5.88-18.32-7.4c-4.42-1.03-8.24-3.59-11.95-6.12c-6.65-4.55-8.17-11.62-8.2-18.92
		c-0.08-21.31,0.18-42.61,1.02-63.91c0.34-8.63-0.02-17.29-2.27-25.76c-0.58-2.17-1.67-3.93-2.83-5.76
		c-6.61-10.39-14.18-20.15-20.31-30.86c-1.81-3.16-3.39-6.44-4.96-9.45c-1.7-0.66-3.1-0.18-4.13,0.51
		c-4.72,3.14-10.02,3.23-15.36,3.36c-7.66,0.18-15.32,0.63-22.98,0.69c-9.79,0.08-19.3,2.2-26.65,8.42
		c-8.84,7.48-16.58,5.3-24.91,0.15c-10.05-6.21-20.13-12.36-30.17-18.58c-9.28-5.75-9.36-5.9-18.2,0.5
		c-12.26,8.88-24.91,17.29-35.23,28.6c-1.9,2.09-2.41,3.71-1.67,6.56c3.92,15.14,7.18,30.46,11.27,45.55
		c3.84,14.21,5.86,28.71,7.63,43.23c1.62,13.34,0.42,13.91-11.01,17.75c-11.29,3.8-23.02,5.26-34.67,7.05
		c-7.2,1.11-14.63,1.31-21.75,2.39c-8.52,1.29-17.03,2.76-25.61,3.87c-10.97,1.41-21.93,1.02-32.91,0.38
		c-3.37-0.2-6.02-0.98-5.34-5.55c-6.23,0-12.04-0.02-17.84,0.01c-5.38,0.03-10.64-0.73-15.77-2.31c-4.02-1.23-4.66-3.14-2.19-6.63
		c2.12-3.01,4.82-5.51,7.51-8c13.72-12.71,29.72-21.85,46.47-29.84c0.45-0.21,0.86-0.49,1.42-0.82c0.58-2.58,0.16-5.23-0.05-7.85
		c-1.56-19.43-2.75-38.87-1.93-58.38c0.26-6.15,0.63-12.3,1.12-18.44c0.38-4.84,2.54-8.93,6.07-12.22
		c11.75-10.96,24.72-20.18,38.81-27.96c12.96-7.16,25.75-14.63,39.06-21.13c1.05-0.51,2.06-1.1,3.13-1.55
		c7.51-3.17,8.55-4.07,12.74-11.38c-6.04-7.03-7.88-16.09-10.99-24.58c-2.11-5.77-4.1-11.6-5.79-17.51c-1.62-5.63-1-6.79,4.14-9.66
		c6.98-3.89,14.02-7.67,21.02-11.5c4.76-2.6,9.82-4.06,15.27-4.15c4.33-0.07,8.69-0.73,12.97-0.38c7.83,0.65,15-3,22.69-2.96
		c1.57,0.01,1.57-0.3,1.8-3.26c-4.5,2.63-7.16,0.31-10.16-2.87c-8.59-9.13-15.57-19.51-23.43-29.2c-3.61-4.45-3.87-4.79-8.39-1.62
		c-3.18,2.23-6.03,2.3-9.23,0.49c-4.78-2.69-9.71-5.16-14.36-8.07c-2.69-1.68-4.39-1.47-6.29,1.05c-1.9,2.52-4.2,4.73-6.28,7.12
		c-6.75,7.75-14.76,13.85-23.66,18.96c-18.04,10.35-36.71,19.53-54.92,29.56c-4.95,2.73-10.28,4.76-15.76,6.22
		c-6.02,1.6-10.72,4.85-14.53,9.86c-6.41,8.42-14.79,14.77-23.28,20.97c-10.39,7.58-21.18,14.4-33.46,18.6
		c-4.1,1.4-8.22,2.74-12.47,3.51c-10.71,1.94-18.38,8.94-26.16,15.63c-4.53,3.9-9.07,7.81-13.26,12.11
		c-3.08,3.16-5.67,2.22-6.41-2.17c-0.63-3.75-0.66-7.58-0.25-11.98c-5.53,2.56-10.25,5.53-14.98,8.46
		c-7.24,4.48-13.6,10.17-20.49,15.12c-2.75,1.98-5.68,3.48-8.89,4.42c-4.04,1.19-6.43-0.43-6.76-4.69
		c-0.49-6.24,0.22-12.3,3.27-17.92c0.46-0.84,1.21-1.66,0.26-3.33c-2.01,1.26-4.07,2.46-6.02,3.81c-2.6,1.8-5.11,3.74-7.68,5.58
		c-1.19,0.85-2.39,2-4.02,0.86c-1.41-0.98-1.59-2.41-1.49-3.99c0.43-7.16,3.18-13.54,6.56-19.72c6.13-11.24,14.36-20.79,23.62-29.53
		c6.8-6.42,12.43-13.9,18.82-20.67c13.61-14.42,30.59-23.12,49.53-28.63c14.1-4.1,28.66-3.84,42.99-5.66
		c4.53-0.57,8.67-1.35,12.75-3.63c9.89-5.53,20.39-9.84,30.8-14.27c16.39-6.96,32.73-13.98,48.37-22.55
		c2.26-1.24,4.05-2.86,5.56-4.91c3.57-4.86,5.89-10.43,8.91-15.59c1.46-2.5,0.81-4.12-1.39-5.92c-3.73-3.04-7.07-6.56-10.73-9.71
		c-6.51-5.61-10.29-13-13.64-20.66c-5.07-11.58-10-23.22-13.77-35.31c-2.17-6.95-1.93-7.43,3.82-11.66
		c5.64-4.15,12.04-7.03,18.13-11.09c-0.73-3.66-2.34-7.12-3.76-10.57c-4.63-11.23-9.51-22.34-15.19-33.1
		c-3.19-6.05-6.87-11.78-10.27-17.7c-1.64-2.86-4.6-4.33-7.33-5.88c-11.63-6.59-22.35-14.4-32.54-23.06
		c-9.65-8.2-17.94-17.42-22.71-29.2c-4.91-12.14-7.6-24.8-5.49-38.02c0.38-2.36-0.36-4.03-1.62-5.97
		c-9.59-14.83-21.55-27.47-34.95-38.85c-1.14-0.96-2.12-2.12-3.09-3.26c-0.41-0.48-0.58-1.17-1.05-2.16
		c8.56-6.6,17.7-2.71,27.01-1.38c-0.53-4.03-2.82-6.76-4.76-9.38c-4.34-5.88-9.14-11.44-13.85-17.05c-3.6-4.28-2.85-6.79,2.68-7.79
		c11.5-2.09,22.57,0.26,33.41,3.81c10.12,3.31,19.96,7.38,29.22,12.72c1.61,0.92,3.2,1.73,5.11,1.79
		c9.11,0.29,17.32,3.66,24.82,8.35c8.17,5.11,16.17,10.55,23.39,17.05c7.51,6.76,11.73,15.73,16.39,24.31
		c8.91,16.39,13.14,34.07,13.09,52.77c-0.02,6.16,0.27,12.31,0,18.48c-0.96,22.21,5.23,42.41,17.53,60.84
		c4.25,6.37,7.95,13.1,12.71,19.15c1.81,2.3,3.19,3.07,6.6,2.23c6.73-1.66,13.7-2.49,20.49-4.15c0.96-0.24,1.99-0.29,3.13-1.31
		c-6.06-6.53-11.37-13.67-14.83-21.93c-3.39-8.09-8.12-15.85-8.06-25.44c2.99,0.15,4.63,1.61,6.26,2.92
		c9.56,7.69,20.81,12.44,31.49,18.19c2.13,1.15,4.19,0.67,6.18-0.45c2.32-1.3,4.63-2.6,7.14-4.01c-0.27-8.5,1.19-16.61,4.87-24.52
		c1.84-3.95-0.68-8.29-2.23-12.12c-2.54-0.5-3.98,2.6-6.47,1.16c-1.6-2.09,0.81-4.41-0.34-7.14c-7.48,3.01-14.6,7.16-22.42,8.79
		c-1.84-2.32-0.93-4.25-0.45-6.14c3.31-12.99,10.24-24.14,17.87-34.9c3.66-5.17,7.92-9.83,12.71-14.02
		c7.04-6.15,12.19-7.46,20.88-4.78c4.84-5.03,9.81-10.13,15.54-14.44c3.22-2.42,6.75-3.55,10.6-3.95c3.25-0.34,5.74,1.08,7.8,3.59
		c2.57,3.13,3.67,7,5.6,11.02c3.45-3.57,6.96-6.57,10.93-8.98c7.64-4.64,14.86-4.48,20.22,0.85c3.25,3.24,5,7.45,6.16,11.83
		c0.92,3.49,1.54,7.07,2.25,10.39c2.44,1.27,3.75-0.46,5.28-1.26c9.9-5.23,17.03-2.17,20.82,8.54c2.03,5.75,2.37,11.74,3.35,17.63
		c1.5,9.02,2.48,18.13,3.63,27.21c0.21,1.67,0.32,3.23,1.74,4.49c6.75,6.02,9.13,14.15,10.31,22.65c0.76,5.43,0.95,10.96,1.06,16.45
		c0.06,3.19,0.97,4.7,4.4,5.22c6.28,0.95,12.02,3.83,17.84,6.26c3.62,1.51,6.19,4.55,8.61,7.48c2.33,2.81,5.16,4.7,8.43,5.95
		c4.5,1.71,9.11,3.12,13.75,4.44c2.85,0.81,3.88-0.31,5.14-2.34c2.13-3.45,3.16-7.31,4.61-11.03c6.05-15.58,7.94-31.88,8.65-48.4
		c0.05-1.19,0.01-2.34-0.67-3.37c-4.21-6.42-4.81-13.73-4.99-21.07c-0.15-6.52-1.31-12.92-1.81-19.39
		c-0.88-11.39-0.04-22.62,3.01-33.66c0.49-1.77,1.19-3.44,2.04-5.08c6.18-11.87,13.85-22.65,22.69-32.69
		c6.59-7.48,11.92-16.03,19.16-22.99c4.23-4.07,8.67-7.78,14.53-9.35c1.42-0.38,2.89-1.02,4.03-1.92
		c12.63-10.04,26.95-17.05,41.65-23.36c7.86-3.38,16.27-4.53,24.71-5.42c0.16-0.02,0.33-0.01,0.5,0.02
		c7.62,1.07,9.71,3.78,5.36,10.47c-5.71,8.79-11.93,17.24-17.89,25.87C670.36,37.26,669.22,38,669.62,39.43z"/>
</g>
</svg>
