<?xml version="1.0" encoding="utf-8"?>
<!-- Generator: Adobe Illustrator 24.0.2, SVG Export Plug-In . SVG Version: 6.00 Build 0)  -->
<svg version="1.1" id="Layer_1" xmlns="http://www.w3.org/2000/svg" xmlns:xlink="http://www.w3.org/1999/xlink" x="0px" y="0px"
	 width="860.03" height="767.22" viewBox="0 0 860.03 767.22" style="enable-background:new 0 0 860.03 767.22;" xml:space="preserve">
<g>
	<path d="M57.55,673.39c-4.46-1.79-8.71-2.62-12.51-4.8c-3.39-1.94-5.24-4.18-4.8-8.34c0.69-6.53,1.88-12.9,5.25-18.57
		c3.57-6.01,7.23-12.03,12.3-16.94c7.61-7.36,10.99-16.9,14.06-26.63c0.05-0.16,0.04-0.34,0.11-0.49
		c4.56-11.01,2.89-22.1,0.59-33.24c-0.3-1.43-0.96-2.29-1.93-3.28c-7.91-8.03-14.59-16.83-17.38-28.08
		c-1.72-6.94-1.7-13.81,0.47-20.57c2.38-7.4,4.64-14.81,9.26-21.36c2.5-3.54,1.8-8.35,2.01-12.57c0.47-9.73,2.25-19.11,6.17-28
		c2.34-5.31,4.33-10.76,7.41-15.78c2.59-4.22,5.42-7.93,9.97-10.06c1.33-0.62,2.24-1.42,1.81-3.34c-4.25-2.37-9.18-3.35-13.94-4.47
		c-15.58-3.66-30.64-8.92-45.7-14.2c-5.96-2.09-11.87-4.34-17.74-6.69c-4.06-1.63-7.69-3.98-10.43-7.5
		c-4.76-6.09-2.53-13.22,4.57-16.13c6.71-2.76,13.55-1.52,20.21-1.06c19.58,1.36,39.1,3.47,58.65,5.11
		c4.98,0.42,9.96,0.71,14.86,1.71c2.01,0.41,2.93-0.39,3.73-2.26c1.18-2.78,1.93-5.65,2.78-8.52c3.68-12.43,7.97-24.72,11.01-37.3
		c4.84-20.02,9.46-40.1,12.45-60.53c2.16-14.78,5.44-29.4,7.68-44.17c1.34-8.86,3.87-17.54,4.11-26.57
		c0.34-12.83-0.21-25.57-2.99-38.17c-3.19-14.44-6.56-28.86-8.45-43.55c-0.28-2.18-0.25-4.34,0.19-6.46
		c2.76-13.37,7.61-25.5,19.98-33.05c1.03-0.63,2-1.24,2.52-2.33c2.23-4.69,5.7-8.61,8.3-13.03c7.37-12.51,17.42-22.6,27.83-32.45
		c8.82-8.35,17.88-16.43,27.81-23.45c2.84-2.01,5.79-3.85,9.43-6.26c20.28,21.99,34.28,47.15,41.75,76.62
		c4.15-2.11,7.35-5.48,10.89-8.31c7.41-5.93,14.6-12.12,23.02-16.65c5.34-2.87,5.35-2.94,9.64,1.57c8.36,8.78,14.68,18.88,19.43,30
		c0.25,0.59,0.64,1.11,0.9,1.55c0.53,0,1.01,0.13,1.13-0.02c5.83-6.97,13.49-11.75,20.54-17.26c5.01-3.91,10.79-6.56,16.38-9.47
		c2.71-1.42,5.47,0.45,7.98,1.57c6.09,2.7,10.97,7.17,14.91,12.29c4.44,5.76,10,10.79,12.61,18.48c4.98-4.04,9.46-7.96,14.57-10.92
		c5.16-2.99,10.52-5.64,15.86-8.3c2.21-1.1,4.29-0.62,6.59,0.62c11.68,6.35,18.74,16.71,24.8,27.95c3.46,6.42,6.28,13.13,7.04,20.36
		c2.18,0.15,2.84-1.11,3.52-2.23c6.76-11.25,16.27-20.15,25.31-29.43c11.16-11.45,22.71-22.46,35.82-31.75
		c3.75-2.66,7.79-4.52,12.05-5.87c4.76-1.51,8.61,0.9,11.22,4.52c4.26,5.92,8.06,12.18,11.19,18.8
		c6.55,13.86,12.16,28.14,17.2,42.56c3.7,10.58,6.69,21.55,8.46,32.72c0.77,4.83,1.61,9.45,5.72,12.8c1.53,1.25,2.46,3.07,2.67,5.21
		c1.16,11.84,1.19,23.66-1.75,35.24c-1.74,6.86-5.94,12.61-10.14,18.22c6.4,8.56,12.89,16.93,17.79,26.36
		c1.38,2.65,3.74,2.94,6.24,3.39c8.34,1.52,16.72,2.85,24.78,5.64c3.41,1.18,5.67,3.46,7.28,6.41c4.69,8.62,9.27,17.3,13.81,26
		c1.29,2.46,2.88,4.03,5.74,4.96c7.59,2.48,14.7,6.19,21.92,9.6c5.11,2.41,6.98,6.26,7.13,11.47c0.22,7.82,0.56,15.64,0.6,23.46
		c0.02,3.46,1.12,5.83,4.02,7.92c4.17,3.02,8,6.53,11.8,10.02c3.57,3.29,4.83,7.44,3.73,12.25c-2.31,10.1-2.46,20.39-2.71,30.68
		c-0.12,4.9,0.62,10.01-2.71,14.39c4.84,5.19,10.44,9.15,15.98,13.03c10.75,7.53,21.53,15.1,33.64,20.41
		c12.21,5.36,24.86,9.23,37.86,12.29c10.28,2.42,20.56,3.71,31.06,4.1c5.36,0.2,10.61-0.61,15.92-0.9c6.97-0.38,9.85,2.36,9.65,9.22
		c-0.22,7.29-2.33,14.14-4.84,20.82c-6.17,16.42-15.09,31.09-28.34,42.88c-5.34,4.75-10.13,10.15-16.49,13.64
		c-2.01,1.1-2.54,3.08-2.95,4.99c-1.01,4.75-2.62,9.26-5.2,13.83c3.42,1.9,5.47,4.89,7.42,7.97c2.99,4.71,2.8,7.21-0.4,11.78
		c-7.29,10.4-15.68,19.83-25,28.42c-2.65,2.44-4.1,5.14-4.13,8.68c-0.07,8.15-0.18,16.29-0.23,24.44
		c-0.1,15.14,0.73,30.29-0.51,45.44c-0.34,4.12-1.79,7.17-5.4,8.8c-6.66,2.99-12.9,6.86-19.52,9.79c-8.42,3.74-17.64,4.6-26.86,4.38
		c-2.99-0.07-5.99-0.43-8.95-0.84c-4.03-0.56-7.83-0.04-11.78,1.08c-10.83,3.08-21.75,2.28-32.6-0.25c-2.49-0.58-4.65-2.09-4.9-4.44
		c-0.42-3.92-3.09-5.27-5.94-6.65c-4.26-2.07-7.92-4.86-11.03-8.44c-1.38-1.59-1.76-3.35-2.27-5.33
		c-2.36-9.29,1.75-17.68,3.17-26.45c2.47-15.25,5.22-30.49,3.8-46.72c-9.7,5.84-19.32,10.93-29.36,15.1
		c-1.64,10.99-0.76,21.84-1.62,32.6c-0.53,6.63-0.58,13.33-1.48,19.91c-0.95,6.91-1.15,13.89-2.2,20.77
		c-1.13,7.38-2.42,14.73-3.69,22.08c-0.26,1.5-0.99,2.79-2.02,3.95c-5.95,6.72-13.42,10.76-22.12,12.61
		c-1.36,0.29-2.76,0.39-3.24,1.86c-2.67,8.26-9.99,10.6-16.97,13.02c-8.84,3.06-18.02,2.4-27.2,1.63
		c-7.49-0.63-14.85,0.61-21.97,3.02c-1.27,0.43-2.51,0.78-3.84,0.93c-11.4,1.31-22.07-1.86-32.68-5.36
		c-2.83-0.93-4.31-2.92-4.63-5.89c-0.18-1.63-0.12-3.33-1.08-5.21c-2.29-0.67-4.79-1.52-7.36-2.11c-5.58-1.27-10.02-4.39-13.93-8.38
		c-2.45-2.5-2.79-5.53-2.04-8.81c1.46-6.42,4.39-12.21,7.97-17.65c5.74-8.72,9.25-18.26,11.89-28.33
		c2.94-11.26,3.29-22.62,3.09-34.09c-0.02-0.98-0.29-1.95-0.5-3.3c-9.79,0-19.52,0-29.68,0c-1.89,3.1-3.9,6.4-5.28,10.21
		c-1.57,4.35-3.99,8.39-6.01,12.57c-3.47,7.2-7.91,13.73-12.88,20.01c-8.04,10.17-15.68,20.67-24.28,30.38
		c-2.74,3.1-6.06,5.68-9.05,8.57c-1.25,1.21-2.78,1.48-4.16,0.95c-3.24-1.24-6.77-1.75-9.75-3.64
		c-12.4-7.87-22.59-18.08-31.07-29.99c-3.09-4.35-6.82-8.17-9.79-12.62c-2.3-3.45-6.12-3.17-9.94,0.15
		c-8.85,7.67-18.86,13.61-28.98,19.36c-2.88,1.63-5.96,2.93-9.04,4.15c-2.52,1-5.09,1.19-7.67-0.27c-2.19-1.24-4.21-2.62-6.08-4.31
		c-10.66-9.69-18.46-21.39-23.9-34.62c-2.08-5.05-4.97-7.74-10.67-7.69c-6.17,0.06-12.26-1.09-18.06-3.35
		c-2.2-0.86-3.65-0.2-5.25,1.45c-9.72,10.06-21.59,16.73-34.99,20.19c-12.14,3.13-24.6,5.22-36.74,8.26
		c-14.49,3.63-28.34,1.78-42.42-0.88c-2.89-0.55-5.64,0.17-8.39,0.75c-10.79,2.26-21.51,1.45-32.05-1.15
		C59.61,684.72,55.85,680.56,57.55,673.39z"/>
</g>
</svg>
