<?xml version="1.0" encoding="utf-8"?>
<!-- Generator: Adobe Illustrator 24.0.2, SVG Export Plug-In . SVG Version: 6.00 Build 0)  -->
<svg version="1.1" id="Layer_1" xmlns="http://www.w3.org/2000/svg" xmlns:xlink="http://www.w3.org/1999/xlink" x="0px" y="0px"
	 width="777.21" height="949.06" viewBox="0 0 777.21 949.06" style="enable-background:new 0 0 777.21 949.06;" xml:space="preserve">
<g>
	<path d="M586.47,949.06c-0.99-1-2.26-1.47-3.6-1.53c-6.66-0.33-12.97-2.7-19.65-3.1c-6.02-0.35-11.08-3.84-15.24-7.79
		c-5.68-5.39-9.6-11.92-11.65-19.88c-3.41-13.21-1.98-26.45-1.89-39.71c0.01-2.06-0.34-3.55-1.74-5.34
		c-4.88-6.27-7.01-13.52-5.63-21.5c1.08-6.28,2.5-12.46,8.48-16.24c1.52-0.97,1.38-2.47,1.1-4.03c-1.75-9.96-2.82-20.1-7.21-29.39
		c-2.84-6.01-3.12-11.66,0.76-17.4c2.41-3.56,2.46-7.31,1.14-11.72c-4.94-16.52-1.48-31.2,11.32-43.18
		c2.33-2.18,3.69-4.52,4.01-7.69c0.54-5.48,3.29-10.36,4.37-15.76c2.09-10.45,4.04-20.86,4.25-31.57
		c0.15-7.48,0.77-14.98,1.96-22.38c1.17-7.27-0.42-14.64,1.07-21.91c0.56-2.72,1.05-5.47,1.96-8.39
		c-9.22-2.11-18.13-3.89-26.75-6.87c-12.45-4.31-24.49-9.4-35.8-16.2c-4.72-2.84-9.78-4.75-15.51-5.21
		c-1.68,4.9-2.27,9.85-3.07,14.7c-1.61,9.7-3.79,19.22-6.74,28.59c-0.39,1.22-0.98,2.31-0.46,3.81
		c7.74,22.11,13.6,44.71,17.85,67.77c1.44,7.82,4.42,15.35,5.99,23.16c3.39,16.96,9.78,33.12,12.9,50.15
		c0.74,4.05,2.43,7.91,3.62,11.88c1.1,3.66,2.17,7.3,2.49,11.16c0.55,6.47,0.67,6.54-5.19,8.9c-7.6,3.07-13.07,8.24-16.45,16.11
		c3.44,2.34,6.29,5.28,9.14,8.26c7.72,8.07,6.88,26.65-3.54,32.76c-2.39,1.4-3.97,3.91-6.9,4.76c-5.2,1.52-10.17,2.12-14.94-2.24
		c-1.94,4.48-3.76,8.48-5.42,12.54c-3.38,8.28-4.71,17.33-9.09,25.23c-3.33,6.01-7.71,11.09-13.37,15.22
		c-13.87,10.11-28.52,8.34-43.21,2.91c-16.19-5.99-27.87-17.8-38.02-31.29c-0.96-1.28-2.24-2.83-0.94-4.51
		c1.16-1.49,2.71-0.48,4.15-0.18c8.13,1.69,15.69,5.45,24.02,6.42c3.85,0.45,6.94-0.64,10.31-2.57
		c18.41-10.53,28.27-27.48,35.38-46.46c6.06-16.18,10.4-32.88,14.01-49.77c0.71-3.33,2.54-6.4,2.55-10.01
		c-0.7-0.18-1.27-0.54-1.59-0.38c-8.12,3.98-16.46,3.27-24.88,1.31c-3.59-0.84-6.71-2.82-10.01-4.32
		c-12.03-5.49-17.97-15.16-20.49-27.98c-2.05-10.45-0.63-20.21,4.73-28.74c7.95-12.67,19.71-19.71,35.29-19.77
		c9.91-0.04,18.66,2.3,26.02,9.12c0.32,0.3,0.89,0.34,1.77,0.66c0.33-3.86,0.74-7.6,0.77-11.22c0.08-12.31-0.3-24.62-0.62-36.93
		c-0.08-3.15-0.82-6.29-0.85-9.44c-0.06-5.85-3.49-8.96-8.38-11.01c-6.72-2.82-13.43-5.66-20.2-8.34
		c-11.44-4.53-22.31-9.72-32.69-16.72c-10.18-6.87-18.87-15.2-28.04-23.04c-7.73-6.6-12.77-15.68-17.77-24.51
		c-1.83-3.23-2.12-7.07-1.8-10.71c1.45-16.42,7.41-31.22,17-44.51c4.26-5.91,8.01-12.22,13.73-17.57
		c-5.44-3.6-10.48-7.01-14.87-11.17c-0.67,0.31-1.18,0.42-1.53,0.72c-8,6.9-17.44,10.16-27.6,12.93c-11.03,3-19.93-0.45-29.39-4.62
		c-6.54-2.88-10.65-8.21-15.3-13.07c-1.27-1.32-2.34-2.84-2.95-4.59c-2.6-7.47-6.04-14.79-6.11-22.86c-0.08-9,2.48-17.28,7.71-24.76
		c4.81-6.87,10.66-12.68,17.17-17.75c-5.91-16.45-12.2-32.49-15.85-49.36c-0.61-2.83-1.43-5.17-5.23-4.23
		c-10.05,2.49-18.63-1.77-26.76-6.65c-8.1-4.87-13.69-12.55-19.75-19.63c-0.97-1.13-1.66-2.5-3.09-3.32
		c-2.63,0.21-3.1,2.56-4.19,4.34c-3.27,5.35-3.4,11.72-5.73,17.41c-3.52,8.58-6.37,17.43-9.5,26.16c-1.24,3.46-2.91,6.69-4.83,9.81
		c-5.03,8.18-8.54,17.18-13.88,25.21c-3.15,4.74-6.58,6.84-12.68,6.52c-15-0.78-28.36-6.65-41.98-11.89
		c-4.46-1.72-8.44-4.68-13.47-4.9c-1.34-0.06-2.43-1.06-3.32-2.08c-1.69-1.93-3.88-3.1-6.46-4.36c-3.54,3.49-6.83,7.43-11.71,9.59
		c-6.47,2.87-13.03,3.8-19.97,2.59c-7.11-1.24-13.7-0.5-19.83,4.01c-9.56,7.05-24.32,3.92-30.54-6.08
		c-0.91-1.46-1.17-3.05-1.44-4.71c-1.32-7.97-5.45-12.11-13.47-13.68c-9.23-1.8-13.82-8.64-11.73-17.94
		c1.06-4.72,2.69-9.26,6.4-12.73c5.67-5.3,5.53-10.17-1.33-16.61c-8.3-7.8-15.01-16.45-19.43-26.8c-3.41-7.97-4.57-16.62-5.78-25.15
		c-1.87-13.18-0.43-26.22,3.04-38.96c1.64-6.02,4.27-11.84,7.01-17.48c1.88-3.87,5.01-6.94,9.48-8.67c2.26,2.99,3.21,6.09,2.84,9.76
		c-0.73,7.32-0.46,14.59,2.32,21.55c1.13,2.83,2.8,5.22,5.37,7c4.51,3.12,8.97,6.25,14.21,8.19c11.15,4.14,21.01,10.65,30.95,17.44
		c2.11-1.37,4.21-2.8,5.67-5.17c1.04-1.68,2.76-2.78,4.49-3.87c5.96-3.77,12.67-5.6,19.46-5.46c6.96,0.14,12.93,3.63,17.4,9.24
		c3.05,3.83,4.89,8.25,6.32,12.86c2.32,7.46,5.93,13.94,12.22,18.96c3.34,2.67,5.96,6.25,8.83,9.49c6.62,7.49,6.88,15.92,3.24,24.71
		c-1.92,4.63-6.04,6.92-10.53,8.48c-3.86,1.34-7.32,3.12-9.67,6.75c0.42,0.61,0.68,1.28,1.17,1.68
		c10.46,8.58,20.79,17.37,33.99,21.69c4.27,1.4,8.24,3.53,12.18,5.67c6.32,3.43,11.47,4.4,15.94-4.35
		c9.4-18.41,18.99-36.75,24.1-56.98c0.16-0.64,0.35-1.31,0.68-1.86c4.31-7.12,0.53-12.59-3.67-17.93c-2.04-2.59-4.87-2.41-7.75-1.83
		c-7.58,1.55-15.25,1.48-22.89,0.91c-10.82-0.8-19.26-6.98-27.34-13.39c-9.88-7.84-17.23-17.74-22.74-29.18
		c-3-6.23-5.44-12.81-9.64-18.44c-3.88-5.19-8.63-7.99-15.45-6.78c-2.87,0.51-4.96,1.88-6.78,3.81c-7.74,8.18-16.82,8.2-26.6,4.67
		c-2.63-0.95-4.26-3.15-6.48-4.59c-14.72-9.57-21.63-23.91-24.19-40.63c-1.22-7.98-0.4-16.14,2.48-23.62
		c2.17-5.64,5.84-10.75,10.6-14.82c1.74-1.49,3.75-1.89,5.94-2.25c7.01-1.16,13.97-0.21,20.92,0.32c5.77,0.44,10.3-1.64,13.38-6.16
		c5.69-8.34,14.32-12.14,23.06-15.83c4.39-1.85,8.63-3.82,13.72-4.07c7.68-0.38,14.42,1.8,20.86,5.38
		c6.83,3.79,13.57,7.74,20.89,10.57c6.11,2.37,11.99,2.31,17.76-1.02c4.32-2.49,8.69-4.84,12.73-7.82
		c5.12-3.77,10.95-6.27,17.16-7.75c5-1.19,4.95-1.12,5.04-6.56c0.41-24.73,6.51-47.88,19.67-68.93c5.28-8.44,10.8-16.78,17.57-24.15
		c6.88-7.48,14.6-13.93,23.75-18.54c2.97-1.5,5.42-2.95,4.88-7.45c-0.52-4.31,5.46-8.02,10.14-7.12c2.31,0.45,4.38,1.55,6.6,2.81
		c7.96-6.37,18.09-6.91,27.41-9.73c1.98-0.6,3.56-1.06,4.98-2.74c3.41-4.04,8.56-4.83,12.96-1.79c2.68,1.85,5.32,2.34,8.42,2.2
		c8.15-0.36,16.32-0.56,24.2,2.11c1.98,0.67,3.45-0.08,5.19-0.77c3.97-1.58,8.24-1.56,11.16,1.7c4,4.47,9.38,6.16,14.46,8.49
		c4.38,2.01,8.88,3.77,13.05,6.21c1.32,0.77,2.64,1.25,4.26,0.94c4.26-0.81,7.89,0.82,9.77,4.44c3.8,7.34,10.88,11.57,15.86,17.75
		c1.56,1.94,3.58,3.52,5.1,5.49c2.12,2.74,4.66,4.48,8.03,5.48c4.67,1.38,7.21,5.66,6.25,10.47c-0.44,2.22,0.01,3.87,1.08,5.62
		c10.32,16.74,15.42,35.24,18.18,54.49c1.59,11.14,0.74,22.27-1.23,33.26c-2.5,13.9-4.89,27.97-12.09,40.38
		c-6.4,11.03-12.57,22.29-21.33,31.76c-1.23,1.33-2.67,2.45-4.5,4.11c5.99,6.62,11.29,13.3,21.3,14.18
		c10.24,0.9,20.37,2.72,29.63,7.91c9.75,5.46,14.08,13.9,14.04,24.62c-0.03,8.79,1.35,17.33,4.97,25.17
		c3.31,7.17,8.92,12.5,16.52,15.72c7.12,3.02,12.89,8.29,18.11,13.83c3.13,3.32,4.18,7.94,4.75,12.81
		c1.29,10.97-3.59,18.86-10.3,26.76c-9.31,10.98-21.99,15.08-34.89,18.96c-5.88,1.77-11.74,3.67-17.84,4.72
		c-11.11,1.91-18.4-1.9-22.39-12.55c-1.8-4.81-4.9-8.63-7.85-12.59c-2.52-3.39-6.06-5.03-10.49-4.48c-4.63,0.58-9.3,0.78-13.91,1.44
		c-2.43,0.35-4.77,1.33-7.05,1.99c-0.38,0.86-0.2,1.5,0.36,1.93c8.65,6.49,15.99,14.52,24.93,20.71c4.64,3.22,9.14,6.36,14.32,8.81
		c4.38,2.06,8.69,4.59,12.92,7.1c7.58,4.49,16.33,5.49,24.48,8.26c14.63,4.96,29.3,9.79,44.4,13.14c11.2,2.48,22.57,4.05,33.97,5.3
		c3,0.33,4.06-0.69,4.23-3.98c0.34-6.19-2.48-11.15-5.87-16.01c-9.88-14.17-0.29-32.21,12.55-36.21c2.44-0.76,4.93-0.87,7.42-0.56
		c5.7,0.71,9.55-2.08,12.56-6.49c0.65-0.95,1.07-2.04,1.7-3c7.33-11.26,23.56-7.73,27.41,1.05c2.27,5.19,5.15,10.08,4.56,16.03
		c-0.62,6.27,3.09,10.19,7.36,13.89c1.57,1.37,2.88,1.01,4.53,0.31c6.44-2.73,13.03-5.04,20-6.02c6.75-0.95,13.51-1.73,20.34-1.01
		c6.65,0.7,13.32,0.48,19.97,0.14c4.25-0.22,8.05-1.94,11.14-5c1.19-1.18,2.62-2.05,3.86-3.12c2.96-2.55,6.16-4.81,6.85-9.35
		c0.45-3.01,2.13-5.91,3.94-8.52c0.88-1.26,1.98-2.32,3.76-1.81c1.53,0.44,2.36,1.33,2.94,2.97c1.07,3.05,1.57,6.19,1.44,9.31
		c-0.3,7.16,0.24,14.3,0.15,21.44c-0.04,3.42-1.44,6.53-2.66,9.57c-4.51,11.26-10.03,21.74-19.47,30.04
		c-4.66,4.1-9.62,7.77-14.73,10.94c-6.17,3.84-13.43,5.85-21,4.65c-2.65-0.42-5.29-0.77-7.95-0.66c-7.76,0.33-15.28-0.56-22.41-4.14
		c-3.61,3.5-4.96,7.35-3.6,12.23c1.34,4.82,1.82,9.82,2.15,14.79c0.41,5.98-1.93,10.58-7.18,13.76c-4.45,2.69-8.07,6.41-10.8,10.79
		c-4.05,6.49-9.26,11.07-16.89,12.97c-5.09,1.27-9.54,0.4-13.83-2.27c-2.63-1.64-4.58-3.69-4.85-7.09
		c-0.19-2.46-0.81-4.93-1.51-7.31c-1.04-3.5-3.03-6-6.78-7.31c-7.01-2.45-14.2-4.56-19.14-10.97c-4.37-5.67-7.06-11.59-6.03-18.87
		c0.16-1.1,0.77-2.24-0.17-3.84c-13.66-1.21-26.94-5.58-40.38-9.14c-18.9-5.01-37.95-9.83-55.81-17.99
		c-7.69-3.51-15.37-7.07-23.1-10.53c-3.66-1.64-7.04-3.66-10.15-6.26c-9.71-8.12-20.79-14.4-30.59-22.41
		c-3.59-2.94-7.22-5.83-11.15-9c-9.82,7.96-21.58,9.28-33.45,8.36c-12-0.93-22.95-5.22-31.73-14.05
		c-4.78-4.81-9.98-9.12-16.03-12.26c-2.22,1.97-0.94,4.07-0.49,5.78c2.52,9.66,6.11,18.9,11.25,27.52c1.69,2.84,3.27,5.8,4.47,8.87
		c3.38,8.63,8.4,16.16,14.47,23.09c9.97,11.4,19.48,23.22,31.15,33c2.26,1.89,4.49,4.09,8.48,2.74c0.67-9.08,3.85-17.72,11.62-22.9
		c7.23-4.82,15.3-8.1,24.7-7.98c14.98,0.19,32.32,11.27,35.57,33.51c6.51,1.84,13.38,1.73,20.1,2.5
		c12.03,1.38,22.88,5.35,30.84,14.54c6.36,7.34,11.72,15.62,14.38,25.23c1.86,6.72,3.86,13.4,6.05,20.03
		c2.51,7.58,3.46,15.57,4.71,23.44c2.08,13.16,2.18,26.48,2.44,39.79c0.15,7.52-1.05,14.86-1.49,22.28
		c-0.27,4.65,0.54,9.33,1.93,13.67c1.54,4.82,2.39,9.71,2.87,14.63c1.12,11.42,2.34,22.87,3.78,34.22
		c1.25,9.87,2.01,19.81,3.57,29.64c0.7,4.4,2.57,7.45,7.33,8.88c5.93,1.78,10.8,5.8,15.86,9.28c5.51,3.79,7.98,9.81,9.81,15.78
		c3.42,11.12,2.75,22.26-1.61,33.14c-0.69,1.73-1.52,3.41-2.78,4.69c-7.44,7.56-14.4,15.83-25.54,18.23
		c-0.63,0.14-1.19,0.56-2.26,1.08c0.27,5.98,1.29,12.06,1.35,18.2c0.13,13.66,0.3,27.34-0.98,40.94
		c-1.6,17.01,3.96,31.71,13.43,45.3c2.02,2.9,5.34,4.38,8.5,6.42c2.95-2.76,6.12-5.11,9.37-7.35c4.44-3.07,7.15-2.6,9.54,2.27
		c2.92,5.93,3.22,12.48,4.02,18.9c0.45,3.59-0.65,7.26,0.99,10.82c0.93,2.01-1.18,3-2.52,3.75c-5.08,2.88-10.43,5.1-16.28,5.87
		c-1.78,0.23-3.73-0.05-5.12,1.51C596.47,949.06,591.47,949.06,586.47,949.06z"/>
</g>
</svg>
