<?xml version="1.0" encoding="utf-8"?>
<!-- Generator: Adobe Illustrator 24.0.2, SVG Export Plug-In . SVG Version: 6.00 Build 0)  -->
<svg version="1.1" id="Layer_1" xmlns="http://www.w3.org/2000/svg" xmlns:xlink="http://www.w3.org/1999/xlink" x="0px" y="0px"
	 viewBox="0 0 860.89 717.47" style="enable-background:new 0 0 860.89 717.47;" xml:space="preserve">
<g>
	<path d="M652.88,708.32c-3.01-0.53-5.39-2.5-7.56-4.37c-7.04-6.07-15.43-9.01-24.23-11.13c-3.88-0.94-7.72-1.83-11.81-1.74
		c-5.75,0.13-11.08,0.85-16.1,4.22c-3.96,2.67-8.55,4.45-12.97,6.38c-3.33,1.45-6.76,1.48-10.11-0.33c-2.35-1.27-4.7-2.53-6.72-4.3
		c-7.89-6.91-15.69-13.9-24.06-20.27c-4.32-3.29-7.47-7.99-10.23-12.78c-9.36-16.32-16.66-33.74-26.5-49.79
		c-7.94-12.95-16.89-25.15-27.22-36.3c-3.69-3.98-10.64-2.55-13.14,2.15c-3.98,7.51-10.55,12.34-18.28,15.44
		c-12.43,4.98-25.33,8.14-38.22,8.75c-1.67,1.19-1.23,2.47-1.45,3.57c-1.04,5.38-3.12,10.13-7.77,13.49
		c-4.35,3.15-7.96,7.1-11.12,11.42c-3.95,5.39-4.06,9.45-0.7,14.2c2.59,3.66,6.41,5.05,10.46,2.95c3.53-1.82,5.3-0.54,6.7,2.41
		c1.15,2.4,2.33,4.81,3.14,7.33c0.91,2.85,2.73,4.05,5.25,2.73c7.99-4.17,13.66-0.47,18.9,5.12c10.13,10.8,15.84,23.69,18.03,38.24
		c0.1,0.64,0,1.33-0.1,1.98c-0.05,0.29-0.33,0.54-0.55,0.88c-2.24,0.99-3.69-0.7-5.32-1.71c-6.36-3.96-12.5-8.27-19.13-11.78
		c-3.21-1.7-6.5-3.22-10.41-3.99c-1.21,8.61-1.04,17.3-6.91,24.44c-2.54-1.16-3.24-3.48-4.48-5.34
		c-5.33-8.02-11.24-15.33-20.99-18.32c-4.36-1.33-8.98-1.03-13.26-2.05c-6.72-1.6-12.33,0.62-18.11,3.13
		c-0.93,0.4-1.87,0.78-2.34,1.75c-2.78,5.74-7.83,9.4-12.3,13.63c-2.51,2.37-5.42,4.38-7.06,7.66c-1.04,2.09-2.85,1.95-3.66-0.18
		c-3.86-10.06-8.56-19.92-7.23-31.22c0.58-4.92,3.65-8.53,6.15-12.39c2.44-3.77,5.09-7.36,6.38-11.77
		c1.71-5.81,5.68-10.15,10.01-14.08c4.93-4.48,7.18-9.8,6.53-16.44c-0.27-2.81-0.44-5.66-0.34-8.49c0.24-7.01-1.3-14.41,5.01-20.57
		c-6.67-1-11.64,1.06-16.33,3.89c-3.71,2.24-7.48,4.22-11.6,5.68c-5.61,1.99-10.82,1.09-15.98-1.18c-1.97-0.87-3.99-1.78-5.7-3.06
		c-8.37-6.23-18.97-7.01-27.98-11.64c-0.59-0.3-1.29-0.45-1.81-0.84c-4.73-3.55-8.93-3.44-12.66,1.56c-1.37,1.84-3.17,1.61-4.8,0.23
		c-1.65-1.4-3.37-2.76-4.79-4.37c-13.18-14.93-28.56-27.45-43.62-40.34c-4.87-4.17-10.64-7.57-13.07-14.09
		c-0.31-0.82-1.33-1.51-2.17-1.98c-11.66-6.52-22.22-14.69-33.18-22.25c-7.71-5.32-15.64-10.04-24.35-13.54
		c-7.18-2.88-13.23-7.65-19.02-12.72c-2.73-2.39-5.32-3.35-9.37-1.94c-7.85,2.74-15.62,5.68-23.34,8.74
		c-4.8,1.91-8.11,1.51-7.17-5.27c1.05-7.57,2.19-15.13,2.93-22.75c0.46-4.66-0.58-8.12-3.68-11.72
		c-6.52-7.57-14.59-11.87-24.24-13.78c-12.94-2.57-26.18-2.67-39.15-4.92c-2.79-0.48-5.55-0.96-7.98-2.85
		c0.02-2.97,2.49-3.71,4.44-4.75c15.75-8.39,32.28-14.87,49.21-20.47c5.7-1.89,11.35-3.56,17.25-4.72
		c8.41-1.66,16.59-0.09,24.84,0.75c2.97,0.3,5.47-0.19,8.03-1.76c7.94-4.87,15.82-9.88,24.67-13.05c0.78-0.28,1.48-0.79,2.27-1.02
		c6.04-1.72,8.75-0.22,9.77,6.01c0.95,5.74,1.74,11.56,1.92,17.36c0.15,4.65,2.04,7.52,6.23,9.07c8.2,3.04,15.96,7.49,25.04,7.74
		c2.69,0.07,5.36,0.03,7.94-0.67c12.2-3.32,24.38-6.72,36.17-11.4c2.52-1,3.16-2.32,3.28-4.74c0.36-7.35,1.6-14.59,3.93-21.57
		c2.28-6.83,4.28-7.82,11.32-7.79c11.16,0.06,21.68-3.09,31.92-7.23c13.74-5.56,26.55-13.03,39.86-19.47
		c12.6-6.1,24.8-12.88,36.12-21.19c3.43-2.52,4.82-2.04,7.16,1.82c3.85,6.36,5.1,13.68,7.31,20.63c1.72,5.42,2.72,10.99,3,16.66
		c0.14,2.92,1.44,4.2,4.24,5.18c8.98,3.16,17.84,6.94,25.13,13.1c6.34,5.35,13.07,10.55,18.05,17.21
		c5.01,6.71,11.6,9.52,19.32,10.85c1.15,0.2,2.31,0.39,3.42,0.72c5.38,1.61,7.73,4.59,7.86,10.17c0.05,2.16,0.26,4.5-0.44,6.45
		c-2.11,5.86-0.59,11.38,0.84,17c0.72,2.85,1.1,5.79,1.68,8.92c2.79-0.77,2.23-2.85,2.41-4.47c1.73-14.94,6.25-28.97,14.44-41.6
		c3.89-6,9.11-10.99,14.85-15.35c-1.73-4.63-4.01-7.98-8.49-10.2c-13.15-6.51-25.88-13.76-36.87-23.69c-2.98-2.7-5.51-5.79-8.2-8.74
		c-1.13-1.24-2.19-2.57-1.01-5.09c15.77-1.68,31.26,2.07,46.95,5.43c2.38-5.2,4.2-10.34,5.83-15.57c0.3-0.95,0.5-1.94,0.76-2.9
		c0.68-2.53,3.14-4.77,2.25-7.44c-0.8-2.41-3.77-3.08-5.67-4.67c-9.57-8.03-19.29-15.89-27.22-25.66c-2.16-2.67-4.15-5.41-5.49-9.87
		c18.64,0.93,35.14,6.69,52.27,12.72c-1.07-4.15-1.92-7.79-2.96-11.38c-0.98-3.38-1.92-6.82-1.95-10.28
		c-0.03-3.72-1.7-6.22-4.12-8.68c-2.95-3.02-6.36-5.34-9.99-7.42c-11.55-6.65-23.35-12.84-35.48-18.34
		c-8.06-3.65-10.67-10.56-12.3-18.21c-2.36-11.08-5.4-21.95-8.48-32.84c-1.74-6.15-5.63-9.78-10.93-11.22
		c-16.03-4.35-31.38-11.01-47.82-13.92c-10-1.77-19.94-3.93-30.07-4.88c-4.01-0.38-6.8-2.12-8.62-5.79
		c-3.56-7.16-6.95-14.38-9.29-22.05c-0.15-0.48-0.22-0.97-0.33-1.46c-1.41-6.16-0.05-7.67,6.23-6.62c2.46,0.41,4.86,1.16,7.39,1.16
		c0.63,0,1.26-0.15,2.31-0.29c0.21-3.21,0.43-6.32,0.62-9.44c1.08-18.44,2.11-36.89,3.27-55.33c0.22-3.45-0.93-5.95-3.43-8.31
		c-5.45-5.15-10.86-10.33-16.63-15.14c-1.62-1.35-3.59-2.47-4.37-4.76c1.75-2.71,4.73-3.63,7.39-4.82
		c6.06-2.71,12.29-5.05,18.4-7.65c3.83-1.63,7.16-0.83,10.25,1.65c4.41,3.55,8.78,7.15,13.2,10.69c2.72,2.17,5.58,2.9,9.26,2.26
		c12.94-2.26,25.96-3.99,38.92-6.11c6-0.98,11.94-2.41,18.5-3.76c-2.3-6.16-4.4-11.7-6.44-17.26c-0.92-2.5-1.7-5.04-2.57-7.56
		c-1.04-3,0.15-5.05,3.01-5.75c6.08-1.5,12.26-0.73,18.39-0.28c1.71,0.13,2.37,1.78,3.05,3.06c7.35,13.86,16.48,26.61,24.88,39.81
		c5.82,9.14,12.61,17.6,18.8,26.47c2.03,2.91,3.57,5.9,4.68,9.27c3.85,11.7,9.05,23.03,11.65,35.04
		c2.06,9.56,7.61,15.88,14.51,21.87c17.8,15.45,31.82,33.54,38.88,56.44c2.01,6.54,1.89,13.14,1.25,19.8
		c-0.16,1.67-0.66,3.26-2.09,4.17c-1.61,0.34-2.35-0.68-3.04-1.57c-8.98-11.54-20.74-19.59-33.33-26.6
		c-5.06-2.82-9.49-0.71-10.14,5.14c-0.35,3.12-0.1,6.32,0.07,9.48c0.72,13.47,1.5,26.94,2.28,40.41c0.06,0.98,0.29,1.95,0.49,3.2
		c3.76-0.5,5.99,1.76,7.67,4.5c5.69,9.27,14.25,15.28,23.31,20.69c9.18,5.49,17.61,12,25.69,18.92c2.88,2.47,4.98,2.67,8.34,1.11
		c15.49-7.24,30.28-15.94,46.29-22.08c4.62-1.77,9.2-3.69,13.91-5.2c3.24-1.04,4.07-2.7,3.19-5.93c-1.74-6.37-5.16-11.9-8.49-17.45
		c-1.8-2.98-2.7-5.97-2.54-9.44c0.2-4.32-0.02-8.67,0.2-12.99c0.31-6.14-1.89-11.45-5.23-16.34c-6.01-8.8-12.03-17.61-19.36-25.41
		c-3.78-4.02-8.06-7.47-12.47-10.76c-1.91-1.42-2.79-2.88-2.73-5.36c0.19-8.32,0.44-16.66-0.35-24.97
		c-0.32-3.34,0.75-5.61,4.19-6.15c5.08-0.79,6.71-4.12,8.11-8.7c1.76-5.77,2.14-10.76-1.32-16.08c-3.21-4.92-3.22-10.25-0.08-15.55
		c2.12-3.58,3.44-7.57,4.32-11.68c2.25-10.5,8.01-19.71,11.1-29.9c0.24-0.78,0.72-1.51,1.19-2.19c2.22-3.22,3.73-3.32,5.99-0.14
		c2.58,3.62,4.92,7.4,7.36,11.11c6.97-4.69,10.62-13.22,8.91-20.47c-1.57-6.64-0.65-12.22,3.75-18.13
		c3.98-5.34,8.51-9.64,13.69-13.49c1.52-1.13,3.15-2.86,5.36-1.68c2.17,1.16,2.38,3.32,2.5,5.6c0.61,11.83,2.67,23.49,4.71,35.12
		c3.5,20,8.54,39.69,12.93,59.51c3.1,14,8.42,27.34,12.62,41.01c1.32,4.28,3.27,8.36,3.9,12.87c0.38,2.69,1.73,4.93,3.43,7.09
		c10.62,13.47,21.14,27.02,31.7,40.53c2.36,3.02,4.63,6.12,7.18,8.97c3.4,3.79,8.56,4.18,12.91,6.12c2.42,1.08,5.04,1.71,7.58,2.51
		c7.27,2.29,13,6.56,17.09,13.03c1.48,2.34,3.17,4.56,5.05,7.24c1.49-2.01,0.91-3.54,0.54-5.1c-1.13-4.71-1.82-9.49-1.71-14.35
		c0.07-2.85-0.21-5.63-0.95-8.41c-0.43-1.58-0.52-3.29-0.54-4.94c-0.01-1.4,0.63-2.6,2.09-3.09c1.51-0.51,2.53,0.23,3.43,1.36
		c1.41,1.76,2.43,3.91,5.45,5.66c-0.89-6.87-1.65-12.83-3.29-18.72c-1.56-5.61-4.96-10.86-4.83-17.59c4.3,1.23,6.02,4.8,9.91,5.25
		c0.99-4.88,0.78-9.67,0.54-14.41c-0.45-9.17,0.17-18.32,0.15-27.48c-0.01-2.29,0.24-4.63,2.05-6.07c1.68-0.08,2.05,0.84,2.43,1.8
		c5.54,13.98,12.12,27.49,21.07,39.56c5.22,7.04,7.51,14.66,8.31,23.06c1.82,19.23,4.62,38.39,4.47,57.77
		c-0.04,5.72,2.47,10.68,4.41,15.77c2.86,7.51,2.67,14.72,0.38,22.4c-3.19,10.69-5.05,21.73-6.28,32.84
		c-0.53,4.82-2.3,9.19-3.93,13.5c-2.69-0.29-2.51-3.14-5.16-3.67c-1.29,4.82-3.39,9.42-5.67,13.93c-0.68,1.35,0.42,2.45,1.26,3.54
		c3.16,4.08,6.24,8.23,9.35,12.35c0.79,1.05,1.83,2,1.4,3.54c-1.12,1.11-2.13,0.27-3.17-0.17c-11.96-5.03-23.93-10.03-35.88-15.1
		c-1.84-0.78-3.46-1.95-5.49-0.3c-1.09,0.88-2.61,0.41-3.89,0.15c-7.34-1.48-14.55-3.36-21.45-6.39c-6.7-2.94-13.47-5.76-20.82-6.69
		c-8.9-1.13-16-4.7-20.51-13.06c-2.85-5.29-3.53-5.22-9.26-3.73c-4.14,1.08-8.18,2.51-12.58,3.88c1.33,3.37,3.82,5.38,6.07,7.43
		c6.18,5.62,10.43,12.25,13.25,20.21c3.43,9.69,8.13,18.91,12.99,28.26c-1.86,1.83-4.38,2.41-6.92,4.11
		c2.91,4.68,5.03,9.73,8.63,13.89c4.6,5.31,7.21,11.17,7.98,18.36c0.95,8.8,2.11,17.46,1.24,26.36c-0.66,6.81,0.62,10.54,9.72,11.49
		c5.76,0.6,9.9,2.76,13.92,6.53c7.2,6.76,15.39,12.26,24.16,16.74c8.25,4.21,15.3,9.66,19.48,17.98
		c8.07,16.09,20.22,29.29,30.56,43.76c4.47,6.26,7.61,12.89,9.02,20.34c2.42,12.78,6.13,25.24,9.4,37.79
		c2.25,8.65,6.27,16.91,10.77,24.61c5.61,9.6,6.27,19.4,4.12,29.83c-1.38,6.69-2.72,13.38-4.04,20.08c-0.27,1.36-0.73,2.68-1.77,3.5
		c-5.74,4.54-11.6,8.88-19.58,7.8c-6.79-0.92-13.28-3.06-19.8-5.03c-3.34-1.01-6.61-2.23-9.99-3.15c-2.45-0.67-5.17-1.38-6.53-4.49
		c3.86-4,9.7-4.24,14.01-7.52c-1.71-2.1-3.61-1.35-5.14-0.65c-9.15,4.22-19.06,5.85-28.63,8.62c-5.06,1.46-9.35,0.93-13.89-2.73
		c-6.84-5.52-10.82-13.02-15.86-19.79c-1.98-2.66-3.65-5.56-5.29-8.45c-0.95-1.68-2.13-3.47-0.71-5.73
		c3.92,0.03,7.12,2.41,10.69,3.56c6.77,2.17,13.25,5.47,20.64,5.22c4.22-0.14,5.36-1.54,2.89-4.63c-5.89-7.36-4.88-15.52-3.77-23.82
		c0.09-0.66,0.24-1.31,0.37-1.96c2.54-12.29,2.67-12.37-3.08-23.1c-5.12-9.56-11.05-18.61-18.45-26.62
		c-0.57-0.61-1.19-1.19-1.65-1.88c-6.42-9.56-14.91-17.06-24.35-23.39c-8.4-5.64-11.21-14.56-15.12-22.98
		c-3.27-7.05-3.01-14.3-1.22-21.5c1.46-5.92,1.1-11.11-3.12-15.81c-1.88-2.1-3.38-4.54-5.06-6.81c-1.1-1.49-2.34-2.86-4.08-3.59
		c-8.84-3.7-17.78-7.18-26.44-12c-2.13,5.55,2.35,10.42,0.46,15.57c-2.77,0.31-4.39-1.53-6.09-2.98
		c-6.35-5.42-12.97-10.45-20.12-14.78c-2.41-1.46-4.86-2.82-7.9-3.4c-1.58,2.91-3.15,5.63-4.56,8.42c-5.83,11.6-11.28,23.4-19,33.93
		c-1.8,2.47-1.59,4.58-0.04,7.3c3.68,6.48,8.9,10.8,15.52,14.17c15.98,8.13,29.45,19.38,39.85,34.11
		c3.69,5.22,6.27,10.98,7.69,17.22c1.12,4.96-0.01,9.29-3.94,12.65c-11.39,9.76-24.27,16.29-39.34,18.01
		c-2.13,0.24-4.33,0.08-6.33,1.28c0.37,2.36,2.46,3.04,4,4.15c6.88,4.94,12.6,10.88,16.23,18.63c1.56,3.33,2.71,6.77,0.6,10.81
		c-11.15-5.98-22.87-5.07-34.78-3.92c-1.14,3.91-0.28,7.13,2.06,9.98c4.05,4.92,8.59,9.31,14.35,12.24c5.94,3.02,12.05,2,18,0.23
		c6.92-2.05,13.06-5.82,19.09-9.71c1.26-0.81,2.5-1.65,3.81-2.37c5.43-2.98,5.88-2.92,10.41,1.22c7.45,6.8,15.44,12.65,25.38,15.38
		c2.22,0.61,4.41,1.58,6.37,2.78c2.88,1.76,5.17,4.06,5.94,7.65c1.53,7.15,2,14.17-1.4,21.04c-1.87,0.76-2.66-1.77-4.45-1.55
		c-1.3,3.34,0.92,6.45,0.68,9.6c-2.47,2.03-3.84-0.05-5.18-1.31c-3.77-3.55-7.71-6.84-12.3-9.32c-14.63-7.91-30.07-9.87-46.42-6.87
		C656.44,701.8,656.54,702.58,652.88,708.32z M724.76,247.85c-0.56-3.6-2.17-5.52-3.94-7.25c-2.63-2.55-5.22-5.2-8.14-7.37
		c-4.07-3.03-6.45-7.06-8.15-11.68c-3.68-10-8.65-19.38-13.33-28.78c-1.84-0.1-2.6,1.14-3.5,2.03
		c-6.36,6.35-12.69,12.73-18.99,19.14c-1.64,1.67-3.27,3.47-3.82,5.78c-2.7,11.23-2.8,22.66-2.8,33.89
		c1.35,0.81,2.34,0.41,3.28,0.19c15.59-3.66,31.48-4.65,47.41-5.3c1.49-0.06,3.29,0.5,4.36-0.54
		C719.35,245.84,721.63,246.59,724.76,247.85z"/>
</g>
</svg>
