<?xml version="1.0" encoding="utf-8"?>
<!-- Generator: Adobe Illustrator 24.0.2, SVG Export Plug-In . SVG Version: 6.00 Build 0)  -->
<svg version="1.1" id="Layer_1" xmlns="http://www.w3.org/2000/svg" xmlns:xlink="http://www.w3.org/1999/xlink" x="0px" y="0px"
	 width="647.82" height="860.97" viewBox="0 0 647.82 860.97" style="enable-background:new 0 0 647.82 860.97;" xml:space="preserve">
<g>
	<path d="M519.85,611.34c-4.87,16.11-7.72,32.82-14.94,49.49c-6.15-9.94-9.71-19.91-14.44-29.48c-2.79,1.5-2.55,4.05-3.04,6.17
		c-1.22,5.26-1.84,5.89-7.21,6.56c-8.38,1.05-15.97-1.53-23.95-4.83c2.14-3.51,4-6.62,5.93-9.68c0.89-1.41,2.17-2.78,1.71-4.53
		c-1.04-3.97-2.32-7.88-3.69-12.45c-7.28,5.5-14.38,10.06-21.45,14.67c-6.99,4.56-12.57,11.16-20.31,14.72
		c0-6.27-0.15-12.15,0.03-18.02c0.36-11.98,2.08-23.85,3.02-35.78c0.44-5.57-1.07-6.25-6.4-3.94c-5.76,2.5-11.67,4.68-18.55,7.41
		c1.5-5.65,4.72-9.55,6.04-14.53c-5.57-1.27-7.75,2.65-10.42,6.47c-6.75-4.53-2.41-11.9-5.24-17.48c-3.31-0.34-6.92-0.1-10.54,0.28
		c-1.75,0.18-3.82,1.07-4.98-1.01c-1.1-1.96,0.45-3.49,1.43-4.96c5-7.47,10.13-14.85,15.86-21.8c1.64-1.99,3.73-3.84,3.65-6.75
		c-2.52-2.23-6.3,0.56-8.53-2.73c2.23-3.92,5.99-6.4,9.51-9.08c4.07-3.1,3.9-4.14-0.46-7.04c-3.64-2.42-7.67-4.39-11.22-7.67
		c3.05-2.42,6.2-2.78,9.2-3.32c7.06-1.25,13.85-3.56,20.96-4.67c4.77-0.74,7.82-9.19,4.52-12.86c-3.16-3.52-3.87-7.1-3.11-11.45
		c0.96-5.47-1.12-9.18-6.36-11.46c-2.61-1.14-4.85-1.38-6.99,0.31c-5.2,4.08-11.08,7.31-15.34,12.57
		c-3.78,4.66-3.93,5.64-0.63,10.48c0.47,0.68,1,1.34,1.63,1.87c1.22,1.02,2.2,2.15,1.74,3.84c-0.57,2.09-2.48,1.97-4.08,2.15
		c-2.15,0.24-4.33,0.49-6.47,0.37c-2.31-0.13-3.69,0.8-4.87,2.69c-12,19.21-22.96,39.01-34.15,58.69
		c-13.73,24.15-26.83,48.66-40,73.12c-12.54,23.29-25.53,46.33-38.61,69.32c-7,12.3-14.87,24.09-21.53,36.59
		c-5.4,10.13-11.57,19.84-16.62,30.17c-0.74,1.52-1.42,2.83-1.05,4.68c1.84,9.27,3.57,18.57,5.21,27.88
		c0.54,3.05,1.08,6.17,0.2,9.81c-4.57-2.81-6.69-7.48-10.86-11.52c-2.93,20.06-3.44,39.34-7.45,59.5
		c-10.51-9.29-15.16-21.85-24.49-31.14c-3.6,6.7-4.72,14.03-8.5,20.53c-4.32-2.94-2.98-8.82-7.51-11.77
		c-4.34,4.76-8.67,9.67-13.18,14.41c-4.48,4.69-6.51,11.68-13.98,14.86c-3.61-15.68-7.64-30.79-10.3-46.68
		c-6.93,2.33-11.04,7.69-16.76,10.94c-2.09-3.6,1.28-6.81-0.34-10.47c-20.89,10.12-39.57,24.13-61.9,33.54
		c2.07-10.63,3.85-20.38,5.9-30.07c2.04-9.62,6.53-18.64,7.8-28.93c-7.11,0.08-13.26,2.01-19.81,1.34
		c0.64-4.09,4.83-6.04,5.59-10.28c-7.3-3.76-15.49-5.42-23.73-8.83c4.5-5.51,10.68-8.56,15.59-13.04c5-4.56,10.35-8.73,16.18-13.59
		c-6.45-4.49-13.58-3.53-19.94-5.63c0.11-2.25,2.01-2.53,3.34-3.28c5.51-3.11,11.8-4.32,17.42-7.24c3.23-1.68,6.34-3.64,9.72-5.08
		c1.84-0.78,2.77-2.31,2.55-4.49c-1.45-2.04-4.7-1.73-6.13-4.95c5.12-1.17,9.88-3.2,15.04-3.9c3.79-0.51,7.58-1.19,11.39-1.36
		c3.12-0.15,4.49-1.85,6.07-4.26c9.28-14.19,17.28-29.16,26.82-43.21c8.31-12.24,15.42-25.29,23.26-37.86
		c8.8-14.11,17.78-28.11,26.76-42.11c1.98-3.09,3.49-6.43,5.2-9.64c7.94-14.87,17.62-28.58,27.1-42.44
		c11.27-16.47,20.6-34.16,31.67-50.76c6.09-9.13,11.24-18.86,17.72-27.74c4.15-5.68,5.46-12.89,10.41-18.47
		c-4.74-3.93-9.51-7.19-13.75-11.11c-6.13-5.67-11.58-11.81-16.75-18.41c-4.54-5.8-10.88-10.22-16.51-15.15
		c-4.52-3.96-8.93-8.01-12.53-12.87c-1.47-1.99-2.87-4.03-2.35-7.25c23.41,2.89,46.7,4.75,70.45,1.72
		c-0.73-18.7,4.77-36.53,3.63-54.95c-1.85-0.24-3.08,2.57-5.33,1.34c-1.58-3.87,1.15-7.71,0.51-11.45
		c-5.58-3.51-10.89-1.21-15.98,0.41c-7.25,2.31-14.8,3.15-22.45,5.69c0.16-7.09,1.8-13.32,3.13-19.59
		c0.79-3.74,1.88-7.41,2.85-11.11c1.18-4.52,0.08-6.06-4.5-6.61c-4.12-0.5-8.2-1.39-12.4-1.21c-1.16,0.05-2.35-0.09-3.25-1.42
		c3.34-4.44,8.59-7.04,12.88-12.2c-5.64,1.58-8.66,5.24-12.33,7.78c-10.53,7.29-20.89,14.82-31.44,22.09
		c-13.04,8.98-26.59,17.13-39.82,25.79c-4.9,3.21-10.22,5.59-15.3,8.43c-3.8,2.13-8.08,1.5-12.13,1.86
		c-0.14,10.31,2.29,19.25,10.01,26.27c1.5,1.37,3.11,2.44,4.76,3.55c4.79,3.23,6.2,6.95,4.68,12.4c-1.24,4.45-0.82,8.93-0.34,13.4
		c0.3,2.75-0.15,4.9-2.88,6.21c-2.26,1.09-3.31,3.26-4.14,5.44c-0.93,2.43-2.71,4.28-5.08,4.22c-4.89-0.13-8.92,2.5-13.42,3.53
		c-3.5,0.8-6.85,0.87-10.42,0.44c-1.39-3.1-0.15-5.79,1.26-8.13c1.58-2.62,2.63-4.95,2.35-8.26c-0.27-3.2,1.67-6.39,1.54-9.8
		c-0.07-1.9-0.3-3.52-1.85-4.92c-4.44-4-7.94-3.73-10.79,1.68c-3.64,6.9-6.73,14.11-9.05,21.57c-1.19,3.81-3.45,6.18-7.01,7.87
		c-7.94,3.78-15.46,8.3-22.49,13.62c-0.9,0.68-1.72,1.62-3.31,1.45c-1.64-1.73-2.57-3.96-2.88-6.48c-0.49-3.97-1.29-7.85-2.67-11.65
		c-1.56-4.27,0.6-8.17,1.99-12.01c2.05-5.7,6.2-10.22,9.2-15.4c0.67-1.15,1.46-2.23,2.1-3.4c2.69-4.89,1.91-8.02-2.69-10.99
		c-6.78-4.39-18.14-4.12-24.51,0.86c-3.53,2.76-4.23,7.05-4.67,11.2c-0.28,2.67-0.32,5.26-2.18,7.49c-1.42,1.7-0.55,3.87-0.7,5.83
		c-0.45,6.02-3.44,7.9-7.99,4.01c-4.71-4.03-9.77-7.2-15.02-10.35c-3.09-1.85-4.9-5.5-4.86-9.42c0.05-5.46-0.05-11,3.34-15.79
		c1.34-1.89,0.65-3.23-1.13-4.59c-4.86-3.72-4.43-3.62-1.68-9.52c3.9-8.36,8.7-16.15,14.2-23.47c4.69-6.25,9.56-12.37,14.15-18.7
		c0.46-0.64,1.16-1.16,0.76-2.48c-7.47,2.76-13.15,10.66-22.56,7.97c0.36-4.35,1.86-8.06,2.98-11.84
		c5.33-18.05,12.86-35.01,26.35-48.57c7.62-7.66,15.36-15.32,23.84-21.96c10.91-8.54,20.69-18.34,31.46-27
		c11.41-9.18,22.3-18.98,33.99-27.83c7.16-5.42,14.06-11.19,21.23-16.61c13.55-10.23,27.23-20.29,40.8-30.48
		c11.72-8.8,23.28-17.82,35.07-26.52c10.99-8.1,22.07-16.1,33.34-23.8c8-5.46,15.02-12.12,22.93-17.68
		c13.06-9.18,25.82-18.82,39.55-27c6.33-3.77,13.37-5.9,20.82-6.48c5.08-0.39,5.52-1.17,3.65-5.79c-1.08-2.66-1.08-2.66-0.29-6.21
		c2.52-0.59,4.32,0.46,5.06,2.8c2.41,7.61,8.33,9.85,15.45,11.16c8.52,1.56,16.86,4.19,24.63,7.99c5.54,2.71,9.74,7.53,13.92,12.03
		c9.48,10.21,16.53,22.08,22.82,34.44c2.43,4.78,3.7,9.91,4.37,14.99c1.86,0.74,2.3-0.36,2.92-1.39c4.43-7.32,6.93-15.49,9.93-23.39
		c4.26-11.21,9.65-21.89,14.28-32.91c0.38-0.91,1.01-1.72,1.6-2.52c0.63-0.85,1.48-1.42,2.58-0.99c1.03,0.41,1.53,1.29,1.44,2.39
		c-0.07,0.82-0.29,1.63-0.53,2.43c-2.92,10.08-5.19,20.31-7.49,30.54c-1.05,4.67-3.34,9-4.35,13.75
		c-3.18,14.98-8.64,29.32-12.54,44.11c-2.41,9.14-6.2,17.9-9.11,26.91c-1.73,5.37-2.77,10.97-3.2,16.6
		c-0.23,2.9-1.33,4.52-4.03,5.54c-8.85,3.36-17.89,3.46-27.05,1.93c-1.07-0.18-2.33-0.46-3-1.93c-0.16-2.05,0.72-4.16,1.88-5.85
		c2.18-3.18,1.19-5.18-1.63-7.02c-1.23-0.81-2.34-1.8-3.98-3.08c-2.29,4.41-2.47,9-2.88,13.52c-0.07,0.82,0.08,1.66,0.17,2.49
		c0.4,3.7,0.49,7.22-6.03,7.47c4.48,2.42,7.72,3.61,10.97,4.78c7.98,2.88,13,11.46,10.85,19.66c-1.52,5.78-2.55,11.7-4.85,17.3
		c-2.93,7.12-0.23,13.27,4,18.99c1.09,1.47,2.69,1,4.15,1.01c4.1,0.01,8.19,0,12.74,0c-1.47,4.53-3.69,8.35-5.59,12.56
		c5.74,6.16,13.84,9.68,19.98,16.05c-3.29,2.19-6.56,0.41-10.02,2.24c4.7,8.91,12.86,15.4,18.01,25.1
		c-9.94-0.2-19.07-2.7-28.55-2.31c-0.15,4.01,1.57,7.6,0.16,11.18c-1.98,1.39-4.04-2.11-5.98,0.12c-0.75,1.03-0.05,1.93,0.34,2.78
		c2.63,5.77,4.61,11.75,6.14,17.9c0.61,2.46,2.02,4.49,4.24,5.96c4.77,3.18,8.85,7.74,15.48,6.87c1.62-0.21,3.31-0.06,4.94-0.45
		c15.22-3.63,30.07-8.57,45.11-12.78c23.55-6.59,46.46-15.51,70.63-19.8c14.08-2.5,28.08-5.44,42.25-7.53
		c10.76-1.58,16.7,3.49,22.18,11.32c9.23,13.16,13.82,28.35,19.43,43.09c3.43,9.02,6.52,18.15,8.12,27.72
		c0.22,1.31,0.43,2.75,1.12,3.82c4.42,6.87,2.12,13.37-1.03,19.76c-1,2.04-1.13,4.18-1.48,6.28c-1.08,6.44-4.65,11.76-7.73,17.22
		c-5.97,10.6-10.65,21.85-16.79,32.34c-6.97,11.9-13.94,23.81-20.94,35.7c-6.76,11.48-13.48,22.97-21.41,33.7
		c-4.85,6.56-9.67,13.12-15.61,18.79c-2.64,2.52-4.97,5.4-7.18,8.31c-4.03,5.31-8.08,10.61-12.97,15.16
		c-2.25,2.1-2.56,4.18-1.34,7.03c3.01,7.03,5.69,14.17,7.84,21.56c1.53,5.27,2.89,10.49,3.56,15.89c-1.63,1.21-2.57,0.01-3.55-0.76
		c-3.4-2.68-6.74-5.43-10.16-8.09c-1.47-1.15-3.12-2.06-5.07-1.15c-2.18,1.02-1.66,3.09-1.6,4.84c0.1,2.82,0.56,5.63,0.64,8.45
		c0.05,1.56,0.62,3.38-1.33,4.76C525.66,616.47,525.04,610.97,519.85,611.34z M464.19,427.87c1.85,2.53,3.35,4.5,4.75,6.54
		c0.67,0.98,1.16,2.12,0.09,3.16c-0.86,0.83-1.91,0.6-2.75,0.03c-2.83-1.9-6.02-2.62-9.29-3.35c-4.24-0.95-8.47,0.72-11.33,5.18
		c2.07,2.21,4.77,3.5,7.6,4.39c4.53,1.43,9.53,2.19,8.73,9.24c9.74-9.96,23.82-30.22,23.97-35.1
		C478.51,421.28,471.19,423.95,464.19,427.87z"/>
</g>
</svg>
