<?xml version="1.0" encoding="utf-8"?>
<!-- Generator: Adobe Illustrator 24.0.2, SVG Export Plug-In . SVG Version: 6.00 Build 0)  -->
<svg version="1.1" id="Layer_1" xmlns="http://www.w3.org/2000/svg" xmlns:xlink="http://www.w3.org/1999/xlink" x="0px" y="0px"
	 width="861.1" height="735.24" viewBox="0 0 861.1 735.24" style="enable-background:new 0 0 861.1 735.24;" xml:space="preserve">
<g>
	<path d="M620.71,509.28c0,2.67-0.2,5.47,0.05,8.23c0.4,4.41-1.4,7.9-4.47,10.66c-9.63,8.63-17.98,18.74-29.24,25.49
		c-1.31,0.78-2.19,1.89-2.8,3.38c-3.97,9.69-7.41,19.67-12.27,28.89c-4.31,8.17-8.19,16.58-13.33,24.39
		c-4.14,6.3-7.26,13.42-10.66,20.27c-4.9,9.86-7.28,20.7-12.86,30.28c-2.67,4.58-6.02,6.48-10.97,5.79
		c-5.44-0.76-10.92-1.31-16.32-2.21c-3.83-0.64-7.61-0.95-11.4-0.7c-3.8,0.25-6.13-1.33-8.33-4.28c-4.57-6.11-5.78-13.45-7.7-20.43
		c-4.05-14.77-9.05-29.07-17.06-42.23c-4.74-7.79-6.18-16.84-8.51-25.46c-1.34-4.97-3.99-9.54-4.39-14.77
		c-0.07-0.86-0.66-1.63-1.48-1.88c-3.9-1.19-5.15-4.45-6.22-7.83c-1.17-3.71-3.8-6.6-5.56-10c-1.58-3.05-3.41-3.07-5.89-0.55
		c-2.14,2.17-3.12,5.11-4.98,7.47c-1.63,2.07-2.99,4.29-6.45,3.18c-1.88-0.61-3.79,0.98-5.69,1.55c-6.07,1.82-7.86,1.36-11.55-3.69
		c-2.84-3.9-5.72-7.83-7.99-12.06c-1.82-3.38-4.07-3.42-7.36-3c-7.98,1.01-15.86,3.99-24.1,1.4c-5.71-1.8-11.47-3.48-17.29-4.88
		c-4.39-1.06-8.38-3.12-12.41-4.69c-2.3,1.24-2.36,3.41-2.86,5.25c-1.46,5.48-3.31,10.81-5.39,16.08c-1.04,2.64-2.68,3.91-5.24,4.76
		c-4.83,1.61-9.86,1.26-14.79,1.85c-1.69,0.2-2.63-1.1-3.82-2.01c-6.9-5.29-8.07-13.55-10.99-20.9c-1.72-4.32-3.42-8.66-4.93-13.06
		c-1.08-3.14-3.27-4.7-6.28-5.74c-12.38-4.28-24.66-8.85-36.48-14.53c-0.25-0.12-0.63,0.02-1.25,0.06
		c-1.94,3.04-0.69,6.55-0.14,9.48c2.3,12.26,1.13,24.04-2.76,35.79c-4.54,13.73-8.67,27.6-13.04,41.4
		c-0.87,2.76-3.06,4.79-4.82,6.92c-8.81,10.61-13.12,23.45-18.23,35.88c-3.28,7.97-7.46,15.26-13.9,21.04
		c-3.97,3.55-5.86,7.71-6.15,13.08c-0.7,13.3-2.03,26.54-3.92,39.75c-1.13,7.92-2.69,15.75-3.81,23.65
		c-0.46,3.26-1.89,5.23-4.97,6.77c-5.29,2.65-11.16,3.45-16.44,5.7c-6.23,2.66-12.46,2.29-18.81,2.4
		c-5.32,0.09-9.43-2.61-12.26-6.56c-7.34-10.27-14.55-20.53-19.79-32.25c-3.35-7.48-7.56-14.78-11.73-21.96
		c-3.01-5.19-4.82-10.95-8.04-16.06c-1.17-1.85-2.32-3.53-3.91-5.05c-2.03-1.94-3.79-4.11-5.17-6.66c-1.76-3.24-4.72-5.55-7.48-7.96
		c-6.18-5.38-11.62-11.4-16.16-18.25c-3.4-5.14-7.35-9.85-11.48-14.45c-4.69-5.22-8.35-11.3-9.8-18.27
		c-3.43-16.46-7.3-32.8-11.67-49.03c-3.25-12.06-7.02-23.98-9.94-36.11c-2.78-11.59-7.15-22.87-7.03-35.1
		c0.05-5.44,0.73-10.24,3.81-15.08c5.97-9.39,11.02-19.34,15.83-29.41c5.3-11.09,11.18-21.9,16.5-32.99
		c4.9-10.22,10.9-19.77,16.7-29.46c2.24-3.74,5.15-5.72,9.56-5.97c13.13-0.73,26.25-2.39,39.36-2.31
		c16.45,0.11,32.89-1.14,49.34-0.32c1.5,0.07,2.98-0.1,4.36-0.71c1.18-1.08,0.83-2.5,0.8-3.78c-0.16-5.77,1.71-10.84,5.37-15.21
		c4.61-5.51,8.66-11.39,12.14-17.67c0.81-1.46,2.56-2.19,2.92-3.81c-0.02-1.03-0.53-1.67-1.11-2.28
		c-13.09-13.73-23.91-29.51-37.81-42.48c-8.59-8.01-12.41-18.33-15.56-29.11c-3.86-13.23-6.58-26.8-11.3-39.79
		c-1.62-4.46-0.99-8.49,0.43-12.98c2.37-7.52,6.71-13.92,10.25-20.77c1.97-3.82,3.94-4.01,8.03-2.69
		c12.84,4.11,25.43,8.89,37.97,13.81c4.32,1.69,8.58,3.54,12.98,5.06c4.72,1.63,8.74,4.63,12.04,8.61
		c4.16,5.01,9.33,9.05,14.29,13.22c11.21,9.43,21.72,19.64,32.8,29.22c0.49,0.42,1.06,0.75,1.7,1.21
		c6.05-4.65,12.87-7.95,17.66-14.27c3.78-4.99,8.87-8.99,13.4-13.41c5.18-5.05,11.47-8.44,17.86-11.62
		c2.29-1.14,3.03-2.35,1.63-4.63c-6.82-11.12-10.92-23.51-16.28-35.31c-3.78-8.31-4.46-16.81-0.23-25.91
		c4.52-9.74,7.39-20.27,11.3-30.34c2.07-5.33,5.67-7.57,10.81-8.09c7.77-0.78,15.56-1.33,23.34-2.04c2.65-0.24,5.27-0.81,7.92-0.97
		c7.19-0.44,12.78,3.15,17.75,7.7c7.01,6.41,13.2,13.6,18.98,21.15c0.49,0.64,0.95,1.39,2.34,1.37c1.63-2.4,1.59-5.48,2.14-8.31
		c0.51-2.64,1.26-5.15,2.11-7.68c5.98-17.81,13.95-34.86,20.08-52.62c3.91-11.33,10.59-21.17,18.74-29.8
		c4.46-4.72,7.16-10.77,12.5-14.83c3.84-2.92,6.59-3,10.36,0.08c3.6,2.94,7.25,5.77,10.75,8.86c13.11,11.57,21.61,26.25,27.29,42.3
		c5.37,15.17,11.19,30.22,15.69,45.71c1.1,3.79,3.31,7.25,4.98,10.88c0.73,1.58,2.2,1.84,3.62,2.33c5.66,1.97,11.77,2.14,17.37,4.44
		c1.79,0.74,3.63,1.52,5.51,2.32c4.82-4.17,9.46-8.34,13.1-13.2c7.54-10.06,17.94-13.84,29.74-14.95
		c10.1-0.95,20.24-1.51,30.34-2.43c3.32-0.3,5.75,0.75,7.94,3.14c13.05,14.26,24.53,29.77,36.31,45.05
		c3.07,3.98,3.96,8.88,2.71,13.72c-2.72,10.45-3.67,21.27-7.1,31.64c2.86,2.42,5.85,4.18,8.48,6.46
		c13.3,11.52,26.31,23.41,40.6,33.75c2.42,1.75,4.62,3.81,7,5.62c2.12,1.61,3.93,1.59,6.11-0.48c4.23-3.99,8.66-7.71,12.39-12.26
		c5.81-7.1,13.09-12.76,19.89-18.87c2.79-2.51,4.51-6.08,8.43-7.54c7.78-2.88,15.7-2.78,23.61-1.38c5.73,1.02,11.5,1.83,17.25,2.49
		c4.11,0.47,8.27,0.76,12.42,1.09c3.13,0.25,4.9,1.79,5.95,4.49c4.29,10.98,7.29,22.39,11.05,33.55c0.61,1.8-0.15,3.28-1.05,4.69
		c-6.31,9.99-11.82,20.42-17.42,30.81c-5.05,9.37-10.23,18.68-14.98,28.2c-2.73,5.45-4.79,11.24-7.31,16.81
		c-2.07,4.59,2.41,10.27,7.4,9.44c8.12-1.36,13.33,2.26,18.57,7.97c4.82,5.25,9.89,10.22,14.14,16
		c10.93,14.86,22.31,29.38,32.09,45.09c4.46,7.17,10.3,13.48,15.58,20.13c1.86,2.34,3.96,4.49,5.89,6.78
		c2.8,3.31,3.33,7.35,2.68,11.34c-1.69,10.31-3.35,20.65-6.45,30.68c-1.17,3.8-1.82,7.78-2.54,11.7
		c-3.43,18.64-7.55,37.18-9.26,56.1c-0.62,6.8-0.43,13.67-3.28,20.09c-2.42,5.46-4.75,10.93-8.23,15.88
		c-6.23,8.86-11.45,18.36-16.79,27.77c-2.87,5.05-5.5,10.24-8.28,15.35c-2.34,4.31-6.4,7.14-9.57,10.74
		c-2.58,2.93-4.46,5.83-4.32,9.66c0.24,6.49-2.53,11.94-5.49,17.36c-6.87,12.57-12.28,25.87-19.08,38.47
		c-5.21,9.65-10.68,19.16-16.11,28.69c-2.53,4.45-6.25,5.87-11.56,6.04c-9.58,0.31-18.82-2.22-28.34-2.36
		c-3.3-0.05-6.77-2.44-7.67-6.7c-1.65-7.82-3.52-15.59-5.18-23.4c-2.11-9.92-4.36-19.82-6.06-29.81c-1.62-9.5-4.1-18.88-4.43-28.57
		c-0.07-2.21-1.25-3.4-2.76-4.39c-4.89-3.19-9.15-7.2-13.82-10.64c-6.51-4.79-12.31-10.23-16.92-16.81
		c-3.32-4.75-5.58-9.96-6.63-15.88c-2.39-13.59-5.6-27.02-9.51-40.27c-1.98-6.7-3.67-13.48-5.33-20.27c-0.75-3.07-1.87-5.31-5.59-5
		C625.47,510.87,623.8,508.64,620.71,509.28z"/>
</g>
</svg>
