<?xml version="1.0" encoding="utf-8"?>
<!-- Generator: Adobe Illustrator 24.0.2, SVG Export Plug-In . SVG Version: 6.00 Build 0)  -->
<svg version="1.1" id="Layer_1" xmlns="http://www.w3.org/2000/svg" xmlns:xlink="http://www.w3.org/1999/xlink" x="0px" y="0px"
	 viewBox="0 0 555.08 861.23" style="enable-background:new 0 0 555.08 861.23;" xml:space="preserve">
<g>
	<path d="M436.55,809.71c6.88,3.71,14.11,6.76,19.83,12.27c2.55,2.46,4.68,5.19,6.36,8.29c4.49,8.33,2.89,15.9-4.65,21.63
		c-4.18,3.17-9.02,4.56-14.15,5.76c-12.08,2.83-24.26,3.72-36.6,3.55c-7.73-0.11-15.19-1.77-22.71-3.2
		c-0.32-0.06-0.64-0.2-0.95-0.31c-14.02-4.71-14.91-15.58-6.89-25.79c5.7-7.27,13.19-12.06,21.58-15.71
		c2.28-0.99,5.19-1.36,6.65-4.57c-6.7-2.64-12.14-6.92-17.18-11.75c-0.36-0.34-0.91-0.57-1.13-0.98c-2.88-5.47-7.03-4.84-11.64-2.57
		c-5.7,2.81-12.04,2.47-18.06,2.99c-9.93,0.85-19.97,0.88-29.59-2.78c-2.43-0.92-8.01,2.71-8.64,5.26c-0.4,1.61,0.43,2.52,1.8,3.1
		c2.65,1.13,4.83,2.91,6.89,4.88c6.62,6.31,6.18,16.2-0.5,22.52c-7.66,7.24-16.66,12.23-26.4,15.54c-8.78,2.98-18,4.47-27.45,4.47
		c-10.16,0-20.3,0.72-30.29-1.93c-5.08-1.34-9.68-3.29-13.47-7.12c-2.59-2.61-3.49-5.41-2.93-9.02c1.02-6.53,4.57-11.28,9.76-15.07
		c8.01-5.84,16.83-10.03,26.19-13.23c2.62-0.9,5.81,0.4,8.16-2.34c-1.66-2.76-4.99-2.88-7.37-4.44
		c-8.6-5.63-15.69-12.51-21.28-21.26c-4.34-6.81-6.24-14.19-8.02-21.82c-1.66-7.13,0.06-13.89,1.59-20.65
		c3.11-13.85,12.92-23.36,22.3-33.01c2.4-2.47,3.4-4.1,1.92-7.64c-7.12-17.09-7.73-34.91-5.01-52.97c0.27-1.79,0.82-3.59,1.52-5.27
		c1.22-2.94,1.39-5.35-1.88-7.15c-1.94-1.06-1.89-3-1.23-4.86c1.27-3.6,2.04-7.39,4.05-10.72c0.75-1.23,1.59-2.51,1.16-4.47
		c-6.15,2.33-9.25,8.27-14.97,11.29c-4.15-3.98-6.9-8.78-8.64-14.17c-0.76-2.37,0.73-4.18,2.31-5.73
		c4.75-4.66,8.98-9.87,14.39-13.84c0.8-0.59,1.63-1.17,1.63-2.45c-0.71-1.49-2.27-1.82-3.7-1.95c-8.19-0.69-15.11-4.53-21.76-8.87
		c-4-2.61-8.57-4.51-11.58-8.5c-1.13-1.49-2.54-1.04-4.05-0.47c-5.92,2.22-11.89,4.26-18.13,5.44c-2.34,0.44-4.55,0.76-6.64-0.16
		c-1.35-2.86,0.27-4.8,1.58-6.63c3.51-4.88,7.43-9.41,12.21-13.11c2.2-1.71,3.4-3.92,2.23-6.54c-2.57-5.76-2.21-11.77-1.61-17.7
		c0.37-3.67-0.71-5.99-3.73-7.86c-5.13-3.19-9.09-7.78-13.56-11.76c-1.57-1.4-3.2-2.95-3.07-5.68c9.12-2.26,17.68,1.28,26.95,2.39
		c4.36-5.56,8.97-11.47,15.09-15.92c1.73-1.26,2.16-3.19,2.28-5.3c0.89-14.54,3.87-28.77,9.26-42.19
		c6.19-15.41,15.52-28.98,28.71-39.52c2.45-1.95,4.84-3.97,7.05-5.78c-0.19-1.92-1.25-2.56-2.38-2.73
		c-13.62-2.09-26.01-8.13-39.07-12c-12.37-3.66-23.61-9.84-35.19-15.25c-7.2-3.36-14.36-6.78-21.55-10.16
		c-5.13-2.41-9.81-5.75-14.82-8.15c-10.59-5.08-19.3-13.03-29.69-18.28c-3.63-1.84-6.4-4.77-9.55-7.2
		c-16.73-12.94-33.48-25.91-47.83-41.53c-14.42-15.69-27.98-32.07-39.44-50.16c-9.47-14.95-17.71-30.41-23.42-47.16
		c-3.82-11.2-6.82-22.63-7.5-34.51c-0.26-4.48-0.08-8.97,2.32-13.07c3.71-6.33,3.98-6.6,12.47-8.91c0.48-1.86-0.54-3.39-1.19-5.07
		c-3.58-9.26-5.23-18.77-4.6-28.79c0.35-5.52,3.03-8.99,7.37-11.6c8.72-5.25,18.27-6.73,28.29-6.14c7.67,0.45,15.24,1.23,22.32,4.55
		c0.72,0.34,1.6,0.44,2.7-0.19c-0.49-4.64,0.49-9.33,1.15-14.07c0.75-5.39,4.45-9.3,9.63-9.73c9-0.75,17.59,0.94,25.82,4.51
		c9.65,4.19,18.74,9.39,27.26,15.54c15.85,11.44,30.09,24.6,42.9,39.39c10.14,11.71,19.87,23.67,28.76,36.39
		c6.58,9.42,13.76,18.43,19.03,28.68c7.84,15.23,16.23,30.17,23.79,45.56c7.48,15.23,14.55,30.66,21,46.32
		c7.33,17.79,14.8,35.55,21.09,53.75c5.38,15.55,10.76,31.09,16.15,46.64c1.53,4.4,2.14,4.61,6.95,3.73
		c7.56-1.38,15.21-1.66,22.89-1.43c4.46,0.14,5.42-0.83,4.23-5.22c-1.67-6.13-2.74-12.34-3.62-18.61
		c-2.5-17.63-4.6-35.28-5.19-53.12c-0.53-15.97,0.06-31.94-0.85-47.92c-0.41-7.2,0.63-14.61,0.66-21.92
		c0.1-22.61,4.63-44.68,8.02-66.87c1.92-12.59,5.57-24.87,9.7-36.97c2.73-8.01,5.68-15.95,8.42-23.95
		c3.74-10.95,9.08-21.16,14.91-30.97c10.15-17.11,21.89-33.09,39.53-43.54c0.14-0.08,0.28-0.18,0.42-0.27
		c7.64-4.25,10.84-3.17,14.34,4.79c0.66,1.51,1.16,3.13,2.76,4.65c2.78-5.97,5.64-11.71,8.9-17.22c2.65-4.48,5.84-8.54,9.58-12.1
		c4.97-4.74,9.11-5.23,14.9-1.67c13.16,8.08,22.56,19.52,28.98,33.45c2.14,4.63,3.91,9.43,5.88,14.23c2.33-1.2,3.36-3.19,4.81-4.76
		c4.02-4.34,8.61-7.8,14.21-9.9c3.24-1.21,5.98-0.91,8.89,1.16c10.26,7.31,15.62,18.01,20.13,29.16c5.79,14.3,8.79,29.34,9.23,44.72
		c0.22,7.93-0.85,15.92-1.59,23.85c-1.8,19.12-5.83,37.88-11.31,56.18c-5.38,17.99-13.27,35.13-21.8,51.89
		c-3.54,6.96-6.65,14.12-10.71,20.83c-4.22,6.97-9.38,13.3-13.64,20.22c-9.18,14.89-19.8,28.76-30.26,42.74
		c-5.48,7.33-12.09,13.75-18.52,20.26c-7.01,7.1-13.53,14.66-20.71,21.6c-7.9,7.64-15.92,15.14-24.23,22.33
		c-1.26,1.09-2.41,2.3-3.68,3.37c-2.3,1.95-2.37,3.45,0.17,5.54c8.09,6.64,14.28,14.93,19.21,24.06
		c10.26,18.99,13.8,39.3,11.06,60.7c-0.44,3.45-0.52,6.89-1.98,10.23c-1.45,3.31,0.81,6.07,2.54,8.68c0.74,1.11,2.01,0.88,3.18,0.37
		c2.51-1.1,5.24-0.85,7.87-1.11c1.55-0.16,3.05,0.26,3.81,1.82c0.75,1.54,0.18,2.97-0.84,4.15c-2.18,2.52-4.28,5.14-6.71,7.39
		c-1.93,1.78-2.49,3.62-2.25,6.17c1.1,11.78-3.51,22.19-8.47,32.36c-1.55,3.18-4.54,5.66-6.91,8.49c2.21,4.63,5.86,7.98,8,12.3
		c0.82,1.66,2.21,3.25,0.81,5c-1.19,1.49-3.15,1.07-4.69,0.58c-4.27-1.37-9.03-1.38-12.87-3.74c-3.61-2.22-6.4-1.98-9.24,1.02
		c-0.04,1.97,1.63,2.16,2.91,2.81c7.27,3.75,14.1,8.13,20.32,13.5c2.32,2,2.59,3.93,1.67,6.59c-3.26,9.43-4.4,10-13.75,6.65
		c-3.02-1.08-5.73-3.27-10.16-2.81c2.3,2.34,4.11,4.16,5.9,6c3.05,3.13,3.09,4.2,0.09,7.46c-1.01,1.1-2.09,2.2-3.32,3.03
		c-2.96,1.99-3.06,4.44-1.63,7.36c5.27,10.75,9.78,21.87,12.65,33.45c2.29,9.25,6.35,16.55,14.91,21.03c0.58,0.3,1.09,0.73,2.1,1.43
		c4.33-3.39,8.55-7.1,13.56-9.71c3.74-1.95,7.55-3.46,11.63-4.35c3.69-0.81,5.43,0.37,6.57,4.11c1.98,6.48-0.01,12.49-2,18.52
		c-0.46,1.39-1.7,2.52-1.37,4.2c1.27,1.2,2.07-0.23,3.02-0.59c4.29-1.63,6.89,0.31,6.17,5.03c-0.91,5.97-2.72,11.86-6.55,16.54
		c-3.16,3.87-3.44,7.19-1.82,11.78c2.25,6.34,1.75,13.18,1.51,19.84c-0.73,19.99-9.11,36.88-21.51,52.08
		c-1.79,2.19-3.59,4.37-5.33,6.61C436.6,808.53,436.66,809.12,436.55,809.71z"/>
</g>
</svg>
