<?xml version="1.0" encoding="utf-8"?>
<!-- Generator: Adobe Illustrator 24.0.2, SVG Export Plug-In . SVG Version: 6.00 Build 0)  -->
<svg version="1.1" id="Layer_1" xmlns="http://www.w3.org/2000/svg" xmlns:xlink="http://www.w3.org/1999/xlink" x="0px" y="0px"
	 width="822.5" height="860.43" viewBox="0 0 822.5 860.43" style="enable-background:new 0 0 822.5 860.43;" xml:space="preserve">
<g>
	<path d="M203.46,329.37c1.87,1.11,3.18,2.72,4.05,4.43c4.25,8.3,12.19,11.01,20.23,13.24c6.73,1.86,13.62,3.33,20.54,4.22
		c7.58,0.98,15.02,0.27,20.8-5.82c0.8-0.84,1.78-1.51,2.68-2.24c5-4.05,6.36-3.87,10.39,1.37c1.31,1.71,2.47,3.54,3.69,5.3
		c5.27,7.6,12.84,11.2,21.43,13.47c7.09,1.87,14.22,3.57,21.45,4.69c5.79,0.9,8.43-2.86,7.05-8.6c-1.66-6.91-5.39-12.44-10.19-17.43
		c-1.38-1.43-2.72-2.9-4.3-4.59c2.25-2.74,5.18-4.09,8.28-5.25c7.18-2.7,14.22-5.68,20.12-10.79c1.92-1.66,3.61-3.51,4.76-5.73
		c1.33-2.57,0.53-4.64-2.16-5.41c-14.6-4.16-27.56-11.55-40.07-19.91c-2.61-1.74-5.5-3.06-8.39-4.64c-4.18,1.71-6.18,6.45-11.13,8.2
		c-1.26-4.52-1.84-9.05-2.36-13.58c-0.15-1.32-0.19-2.66-0.34-3.98c-0.25-2.19-1.43-3.22-3.71-3.05c-2.45,0.19-4.93,0.81-7.35-0.23
		c-0.41-2.16,1.03-3.59,2.05-4.97c2-2.7,1.95-4.78-0.28-7.44c-8.05-9.6-11.76-21.12-14.04-33.2c-0.22-1.14-0.08-2.54-0.69-3.38
		c-3.93-5.38-3.67-11.51-3.45-17.66c0.02-0.63,0.06-1.33-0.74-1.8c-1.84-0.26-2.78,1.43-4.15,2.24c-3.46,2.06-4.08,1.96-6.21-1.46
		c-0.45-0.72-0.92-1.38-2.06-1.95c-2.29,3.39-5.77,3.35-9.53,3.01c-5.19-0.46-10.11,0.08-14.65,3.42
		c-4.13,3.04-8.81,5.37-13.36,7.81c-4.15,2.22-5.68,1.49-5.62-3.02c0.09-6.51-3.49-9.97-8.98-12.15c-1.7-0.68-3.41-1.31-4.63-2.7
		c-0.15-1.54,0.8-2.21,1.99-2.46c3.28-0.68,6.32-2.3,9.54-2.86c5.07-0.89,7.79-3.94,9.75-8.27c1.17-2.58,2.71-4.98,3.82-7.58
		c1.11-2.62,2.86-2.86,5.25-2.09c4.91,1.59,9.9,2.94,14.74,4.71c2.07,0.76,3.76,0.91,5.62-0.29c7.54-4.88,15.45-9.27,22.61-14.65
		c22.84-17.15,41.9-38.51,63.03-57.58c10.31-9.3,19.44-19.65,27.51-30.91c3.96-5.54,7.31-11.52,11-17.26
		c3.68-5.74,3.59-11.35,0.05-17.17c-2.68-4.4-3.87-9.52-6.47-14.02c-1.75-3.02,0.48-5.64,4.95-5.85c3.66-0.17,7.3-0.33,10.95-0.67
		c2.66-0.25,4.16-1.39,5.47-3.59c3.15-5.27,4.66-11.38,8.63-16.23c3.41-4.16,5.34-4.06,7.8,0.9c2.79,5.65,5.97,11.11,7.58,17.3
		c0.95,3.64,3.97,4.69,7.32,4.91c5.65,0.37,11.31,0.71,16.96,0.94c2.78,0.11,4.81,1.11,6.04,4.22c-2.78,4.07-6.45,7.67-9.9,11.45
		c-3.25,3.57-6.51,7.14-9.68,10.78c-1.91,2.19-2.18,4.31-0.66,7.22c6.49,12.41,14.03,24.18,21.66,35.87
		c8.67,13.29,19.46,24.91,30.35,36.38c11.24,11.83,22.56,23.57,35.5,33.63c4.46,3.47,8.7,7.26,12.81,11.14
		c4.53,4.29,9.92,7.28,15.05,10.68c5,3.31,10.03,6.59,14.85,10.14c2.11,1.56,4,1.93,6.46,1.18c4.48-1.37,9.2-1.47,13.79-2.27
		c2.69-0.47,4.13,0.45,4.58,3.12c0.17,0.98,0.75,1.96,0.68,2.9c-0.44,5.67,2.75,8.91,7.22,11.52c2.73,1.59,5.35,3.4,7.85,5.33
		c1.9,1.46,4.09,2.83,4.62,5.9c-7.05,0.93-13.84,0.56-20.58,0.24c-2.77-0.13-4.67,0.28-6.29,2.74c-2.01,3.05-4.46,5.81-6.01,9.17
		c-0.56,1.21-1.26,2.33-2.28,3.25c-2.75,2.5-4.16,2.58-6.7-0.18c-5.53-5.99-10.99-12.07-16.4-18.17c-1.16-1.31-2.23-2.39-4.16-2.18
		c-6.21,0.66-12.24-1.11-18.38-1.47c-1.96-0.11-3.94-0.83-6.08,0.29c-0.57,2.78-1.31,5.65-1.73,8.57
		c-1.8,12.48-8.98,22.37-15.56,32.55c-5.43,8.38-11.61,16.16-18.71,23.22c-8.15,8.1-17.94,13.73-28.17,18.59
		c-5.37,2.55-7.83,7.85-5.62,13.65c2.07,5.41,5.35,9.18,11.11,11.16c7.49,2.58,14.2,7.18,22.73,8.38c-2.1,3.84-4.85,6.03-7.01,8.63
		c-3.21,3.88-5.98,8-8.24,12.47c-1.95,3.86,0.28,7.36,4.6,7.51c8.04,0.28,14.7-3.76,21.56-7.02c2.24-1.07,3.59-3.4,4.68-5.71
		c0.99-2.11,2.08-4.17,3.12-6.26c1.07-2.13,2.53-3.02,4.81-1.61c0.85,0.52,1.88,0.78,2.65,1.39c8.43,6.64,17.95,5.5,27.67,4.36
		c8.93-1.05,17.66-3.09,26.53-4.37c2.29-0.33,4.04-1.09,5.46-2.99c2.88-3.87,5.87-7.67,8.94-11.39c2.61-3.15,3.47-3.33,6.53-0.66
		c4.39,3.82,8.55,7.91,12.77,11.93c2.11,2.01,4.59,3.23,7.41,3.92c15.03,3.72,30.25,6.39,45.66,7.9c2.1,0.21,3.89-0.71,5.73-1.47
		c5.71-2.37,10.93-5.65,16.35-8.57c5.61-3.03,6.65-2.75,10.35,2.11c1.81,2.38,3.98,4.64,5.17,7.32c2.86,6.47,8.45,8.79,14.47,11.16
		c10.11,3.98,20.81,5.69,31.12,8.84c3.96,1.21,7.82,2.72,11.77,3.97c2.57,0.82,4.62,1.03,7.13,0.12c4.69-1.71,9.44-3.28,14.26-4.56
		c5.51-1.47,6.7-0.57,7.75,4.98c2.25,11.9,2.25,11.92,13.61,16.27c5.75,2.2,11.79,3.93,16.99,7.2
		c16.81,10.61,28.23,25.04,31.14,45.35c0.67,4.7,0.44,9.35,0.11,13.95c-1.14,15.95-6.1,30.75-16.18,43.22
		c-7.31,9.03-15.84,16.53-27.55,20.55c-10.86,3.73-21.38,6.24-32.7,3.98c-16.81-3.35-32.52-9.5-47.12-18.54
		c-7.2-4.46-14.56-8.69-21.97-12.8c-2.65-1.47-4.92-3.41-7.44-5.02c-23.43-14.94-46.41-30.58-70.34-44.75
		c-9.58-5.67-18.22-12.84-26.88-19.86c-5.54-4.5-11.97-7.14-18.49-9.7c-0.95-0.37-1.89-0.55-2.92-0.37
		c-25.23,4.45-50.36,9.36-75.41,14.73c-0.14,0.03-0.26,0.19-0.39,0.29c-0.8,0.93-0.31,1.87-0.04,2.82
		c3.57,12.65,7.75,25.12,11.14,37.84c2.91,10.91,7.01,21.48,12.08,31.65c2.7,5.43,7.28,7.93,12.49,9.93
		c3.39,1.3,6.91,2.31,10.31,4.46c-0.99,4.15-2.8,7.91-3.63,11.96c-0.66,3.24-0.8,5.99,0.94,9.05c3.36,5.91,4.37,12.83,7.56,18.87
		c1.23,2.33,2.68,4.53,3.48,7.15c0.79,2.6,2.77,4.49,5.62,5.22c3.71,0.94,7.38,1.99,11.09,2.94c3.04,0.78,6.14,1.38,8.89,3.76
		c-2.35,5.15-4.5,10.35-7.08,15.32c-1.66,3.2-2.08,6.35-1.01,9.64c2.88,8.88,6.44,17.5,10.62,25.83c2.22,4.42,5.83,7.55,10.68,9.28
		c4.57,1.62,9.18,2.93,13.93,3.91c3.22,0.66,6.51,1.35,8.91,4.33c-1.28,2.82-3.06,5.11-5.25,7.19c-5.03,4.77-8.62,10.5-11.18,16.93
		c-2.71,6.83-1.3,13.82,0.74,20.09c2.93,9.02,6.01,17.95,7.92,27.24c2.88,14,12.5,22.13,24.27,28.71c10.4,5.81,9.7,6.71,2.2,15.14
		c-6.75,7.59-10.68,16.38-11.44,26.47c-0.49,6.46-0.75,12.96-0.78,19.44c-0.06,13.26-5.11,23.78-16.04,31.54
		c-7.5,5.33-15.38,9.89-23.8,13.58c-3.42,1.5-7.08,1.83-10.6,2.73c-17.9,4.58-36.09,5.97-54.5,4.06
		c-7.95-0.82-15.95-1.36-23.77-3.09c-15.85-3.5-31.13-8.55-44.51-18.09c-7.05-5.03-11.7-12.13-15.84-19.65
		c-5.96-10.82-7.54-22.73-8.62-34.62c-2.57-28.26-7.77-56.06-13.61-83.77c-3.87-18.38-13.51-33.13-29.32-43.57
		c-5.32-3.51-7.86-2.31-8.41,3.93c-1.3,14.77-1.35,29.55-0.33,44.36c0.8,11.62,0.8,23.3,1.44,34.94
		c0.63,11.43,1.27,22.87,0.27,34.28c-1.88,21.49-12.77,35.74-33.86,43.8c-8.8,3.37-17.77,6.69-27.15,7.76
		c-21.95,2.51-44,3.64-65.03-4.96c-7.42-3.03-15.24-5.35-21.61-11.03c-7.43-6.62-11.76-14.76-14.34-23.99
		c-1.29-4.61-2.57-9.25-3.23-14.08c-0.57-4.13-3.14-7.63-6.85-10.01c-3.09-1.98-6.25-3.85-9.19-6.03c-3.78-2.8-3.83-4.71-0.58-8.16
		c4.79-5.07,10.33-9.42,14.62-15c1.38-1.8,2.11-3.58,2.26-5.87c0.82-12.13,1.8-24.25,3.38-36.3c1.06-8.11-1.78-14.67-7.69-20.07
		c-1.23-1.12-2.59-2.1-3.84-3.2c-3.26-2.88-3.16-4.94,0.25-7.53c3.32-2.51,6.54-5.15,9.91-7.6c6.47-4.7,9.41-11.39,10.94-18.92
		c0.9-4.42,2.38-8.66,4.25-12.75c5.15-11.2,4.95-21.9-2.71-32c-0.4-0.53-0.72-1.12-1.05-1.7c-1.97-3.49-1.44-5.18,2.51-6.05
		c2.94-0.65,5.75-1.65,8.65-2.4c7.93-2.04,14.28-6.1,18.26-13.56c2.97-5.57,6.4-10.9,9.5-16.41c2.46-4.39,2.08-8.95,0.36-13.5
		c-1.05-2.8-2.02-5.64-3.14-8.41c-0.95-2.34-0.29-3.87,2.04-4.71c1.4-0.51,2.83-0.95,4.25-1.42c3.16-1.04,6.41-1.87,9.47-3.16
		c6.43-2.72,11.4-6.8,14.95-13.24c7-12.67,14.84-24.88,21.48-37.74c6.02-11.67,12.62-23.06,18.02-35.05
		c2.01-4.45,1.45-5.61-3.18-7.44c-8.04-3.19-16.63-3.26-25.02-4.25c-10.9-1.28-21.82-2.41-32.71-3.87
		c-5.45-0.73-10.97-0.74-16.45-0.09c-4.57,0.54-8.47,2.55-12.06,5.49c-8.68,7.09-16.05,15.48-23.87,23.44
		c-18.3,18.65-36.7,37.19-55.52,55.33c-8.86,8.55-17.63,17.16-27.05,25.07c-6.22,5.22-12.83,9.99-20.52,12.96
		c-9.3,3.59-18.64,5.16-28.76,3.22c-10.01-1.91-19.55-4.54-28.56-9.4c-6.45-3.48-11.44-8.53-16.25-13.77
		C1.51,503.55-1.61,486.27,0.69,467.96c1.69-13.46,7.37-25.45,19.27-32.98c8.34-5.28,11.88-12.88,13.9-21.9
		c0.83-3.71,2.55-7.22,3.54-10.91c0.87-3.21,2.69-4.32,5.85-3.8c5.92,0.97,11.92,1.34,17.84,2.17c4.41,0.62,8.24-0.41,12.06-2.15
		c6.81-3.1,13.37-6.68,19.81-10.49c2.43-1.44,4.87-2.89,7.63-3.65c4.63-1.28,7.83-4.21,9.91-8.49c2.12-4.35,3.96-8.77,5.28-13.45
		c1.82-6.42,3.75-7.2,9.79-4.66c2.76,1.16,5.59,2.14,8.33,3.36c5.12,2.27,9.94,1.6,15.44,0.54c11.63-2.24,20.79-9.51,31.45-13.38
		c6.5-2.36,10.35-6.86,14.45-11.67C197.61,333.74,199.99,330.89,203.46,329.37z"/>
</g>
</svg>
