<?xml version="1.0" encoding="utf-8"?>
<!-- Generator: Adobe Illustrator 24.0.2, SVG Export Plug-In . SVG Version: 6.00 Build 0)  -->
<svg version="1.1" id="Layer_1" xmlns="http://www.w3.org/2000/svg" xmlns:xlink="http://www.w3.org/1999/xlink" x="0px" y="0px"
	 viewBox="0 0 861.04 697.5" style="enable-background:new 0 0 861.04 697.5;" xml:space="preserve">
<g>
	<path d="M162.99,621.91c-9.95-0.3-19.13-1.63-28.3-3.14c-4.49-0.74-8.55-2.73-12.79-4.18c-17.45-5.98-33.26-15.07-47.91-26.14
		c-9.86-7.45-17.38-17.08-22.35-28.32c-2.31-5.22-3.67-11.26-3.76-16.96c-0.1-6.53,3.49-12.42,7.04-17.86
		c6.93-10.64,12.5-21.89,16.66-33.88c0.78-2.24,0.41-3.67-0.68-5.5c-6.7-11.3-10.98-23.4-12.32-36.54
		c-0.59-5.78-2.56-11.35-2.74-17.24c-0.09-3.02,0.64-5.91,0.57-8.93c-0.12-5.11-0.56-10.09-1.24-15.18
		c-1.07-7.93,2.17-15.31,6.13-22.24c3.69-6.45,6.94-13.14,11.75-19.43c-26.51-1.11-49.61-11.7-73.05-22.28
		c3.58-6.56,7.41-11.77,12.69-16.06c9.95-8.1,19.92-16.1,31.25-22.28c15.65-8.55,32.23-13.95,49.9-16.57
		c13.68-2.04,27.37-3.42,41.18-3.88c0.55-0.02,0.94-0.23,1.54-1.24c-7.97-12.13-13.94-25.64-16.7-40.18
		c-2.73-14.39-5.26-29.01-1.45-45.02c18.6,14.6,31.46,32.37,42.73,51.94c7.36-40.53,22.24-77.28,49.65-108.21
		c4.77,2,6.65,5.47,8,9.3c3.77,10.65,5.62,21.84,9.1,32.59c3.95,12.19,6.92,24.68,8.25,37.42c1.05,10.06,2.36,20.16,1.64,30.34
		c-0.05,0.63,0.17,1.28,0.24,1.8c1.4,1.12,2.63,0.97,3.75,0c9.49-8.14,19.93-14.98,30.19-22.07c0.67-0.46,1.23-1.09,1.82-1.62
		c-4.02-6.45-5.57-13.54-6.63-20.75c-0.51-3.45-0.47-6.94-1.55-10.34c-0.88-2.76,0.65-5.21,2.05-7.47
		c5.64-9.05,12.14-17.48,18.83-25.77c1.51-1.87,3.27-2.72,5.64-2.41c1.64,0.21,3.28,0.35,5.4,0.57c2.06-5.25,4.66-10.2,7.82-14.87
		c6.05-8.96,11.42-18.36,17.74-27.16c2.28-3.18,4.6-4.82,8.94-4.89c6.76-0.12,13.54-0.68,20.1-0.48c3.11-5,3.36-10.47,5.01-15.49
		c4.82-14.71,8.81-29.66,11.37-44.91c1.71-10.16,4.23-20.17,5.27-30.44c0.15-1.48,0.2-2.98,0.2-4.47c-0.02-8.09,4.91-13.89,13-14.91
		c11.72-1.49,23.45-2.81,35.21-4.21c0.16-0.99-0.96-0.52-1.43-1.36c16.51-0.74,32.85-1.86,49.17,0.23c-0.6,0.8-1.95-0.18-2.57,1.05
		c0.44,0.11,0.85,0.26,1.27,0.31c14.19,1.73,28.54,1.88,42.63,4.57c3.06,0.59,6.16,0.09,9.27,1.26c5.43,2.04,7.99,5.76,9.48,11.2
		c2.12,7.76,2.73,15.72,4.14,23.57c3.56,19.8,6.47,39.74,11.7,59.21c1.25,4.64,2.94,9.18,4.67,13.67c0.77,2.01,1.91,3.86,1.25,6.28
		c4.44,1.14,8.8-0.06,12.55,2.28c1.2,0.75,2.34-0.35,3.24-1.57c2.68-3.66,4.3-7.85,6.29-11.87c10.37-20.87,18.67-42.63,27.47-64.17
		c3.33-8.14,9.5-11.47,18.05-12.25c13.24-1.22,26.29,0.33,39.25,2.25c10.01,1.49,19.95,3.75,30,5.11
		c8.24,1.12,16.53,1.75,24.62,3.97c3.93,1.08,7.47,2.82,10.99,4.66c4.39,2.31,6.14,6.11,6.12,11.1c-0.07,14.84,2.16,29.46,4.33,44.1
		c1.44,9.73,3.95,19.18,6.44,28.66c0.73,2.78,1.67,5.01,5.13,5.05c1.08,0.01,2.12,1.04,3.24,1.21c7.43,1.13,11.77,5.46,13.8,12.59
		c0.67,2.36,2.1,4.55,3.8,6.41c4.55,4.96,7.63,10.89,11.02,16.61c2.04,3.44,2.71,7.1,1.45,11.03c-0.66,2.06-1.11,4.18-1.68,6.27
		c-1.53,5.67-1.54,5.67,1.73,10.95c2.81-0.22,5.76-0.64,8.72-0.65c3.19-0.01,4.12,1.57,2.9,4.53c-0.44,1.06-1.07,2.12-1.86,2.93
		c-6.42,6.59-10.78,14.7-16.13,21.63c1.76,8.92,6.64,16.22,9.82,24.22c5.52,13.89,10.11,28.08,14.15,42.48
		c3.23,11.53,6.22,23.12,9.08,34.74c2.3,9.33,3.58,18.91,5.45,28.35c1.26,6.34,0.81,12.83,2.01,19.2c0.73,3.85-0.01,8-0.37,11.86
		c-0.74,7.92,1.32,15.22,3.61,22.36c3.54,11.1,5.88,22.58,9.96,33.47c6.36,16.96,13.14,33.77,20.07,50.51
		c2.15,5.2,5.23,10.03,8.11,14.9c2.21,3.74,4,7.64,5.33,11.76c1.39,4.27,0.61,5.47-3.53,7.15c-10.86,4.42-21.63,3.83-32.63,0.36
		c-7.6-2.4-15.33-4.19-22.35-8.27c-4.89-2.85-9.28-6.37-14.49-10.08c-14.45,38.89-7.85,74.16,15.67,107.63
		c-8.2,3.84-16.78,0.76-24.89,2.53c-0.03,4.2,2.46,7.57,2.22,11.67c-4.44,1.6-7.1,6.14-11.97,7.17c-0.63,0.13-1.16,0.78-1.78,0.86
		c-7.64,1.02-14.43,4.78-21.78,6.76c-12.42,3.35-25.2,4.34-37.85,6.25c-6.36,0.96-12.6-0.15-18.9-0.24
		c-0.82-0.01-1.91,0.01-2.42-0.47c-3.52-3.29-7.26-1.84-10.65-0.23c-3.19,1.52-6.25,0.29-9.33,0.41c-7.79,0.3-15.6,0.41-23.16-2.39
		c-7.79-2.88-9.22-4.62-9.09-13.1c0.02-1,0.16-2-0.93-3.41c-4.75,1.32-9.78,2.72-14.87,4.13c-1.53-2.08-0.78-3.83,0.18-5.65
		c1.01-1.91,1.94-3.87,2.75-5.88c0.62-1.54,1.27-3.32-0.44-4.56c-1.46-1.05-3-1.83-5.08-1.11c-2.23,0.78-4.3,2.62-7.84,1.58
		c2.67-5.77,7.16-10.03,9.8-15.39c2.73-5.55,5-11.27,7.08-17.04c2.06-5.7,3.42-11.66,5.14-17.64c-2.62-1.6-5.04-1.65-7.46-0.81
		c-23.54,8.23-48.21,11.32-72.5,16.1c-7.71,1.52-15.57,1.4-23.35,2.1c-1.47,0.13-3.01-0.25-4.87,0.98
		c-1.69,11.09-3.21,22.51,0.12,33.99c3.25,11.19,7.9,21.82,13.66,32.91c-6.47,1.16-11.72-2.07-17.34-2.34
		c-0.9,2.76-0.6,5.43-0.46,8.05c0.25,4.72-1.42,7.98-5.76,9.47c-4.74,1.63-9.46,3.11-13.34,6.51c-0.95,0.83-2.37,1.42-3.64,1.55
		c-6.36,0.66-12.13,3.5-18.33,4.74c-7.83,1.56-15.75,2.45-23.65,3.49c-0.49,0.07-1.32-0.15-1.45,0.07
		c-1.46,2.58-4.02,1.89-6.21,2.12c-2.82,0.28-5.65,0.53-8.48,0.5c-7.15-0.07-14.29-0.39-21.44-0.44c-3.21-0.02-4.93-2.37-6.57-4.29
		c-1.48-1.73-2.71-1.96-4.68-1.67c-2.48,0.37-4.95,0.66-7.26,1.71c-4.67,2.14-9.19,0.74-13.45-1.07c-1.74-0.74-3.37-1.18-5.17-1.41
		c-8.08-1.03-15.31-4.29-22.28-8.32c-2.99-1.73-3.93-4.13-3.86-7.42c0.13-6.64-1.2-13.25-0.39-19.92c0.1-0.79-0.03-1.66-0.91-2.67
		c-4.11,2.4-8.59,4.37-12.33,7.64c-1.82-0.69-2.34-1.57-1.16-3.36c4.84-7.38,8.73-15.29,12.83-23.1
		c7.78-14.83,9.46-30.66,8.12-47.04c-0.26-3.18-1.52-5.08-5.09-5.5c-8.62-1.02-17.01-3.03-24.93-6.74
		c-1.94-0.91-3.98-1.63-6.43-1.57c-2.44,16.32,4.68,30.06,11.83,44.76c-5.54-0.23-9.38-2.9-14.22-4.73
		c-0.46,6.47,3.75,12.18,1.44,18.26c-3.55,1.17-5.75-1.96-9.03-2.94c-5.29,10.52-16.03,9.67-25.38,11.23
		c-4.83,0.81-9.94,0.83-14.88,1.39c-14.6,1.66-29.18,0.81-43.78,0.56c-13.52-0.23-26.91-1.33-40.25-3.42
		c-5.38-0.84-10.74-2.06-15.95-3.42C165.76,632.69,162.52,628.42,162.99,621.91z"/>
</g>
</svg>
