<?xml version="1.0" encoding="utf-8"?>
<!-- Generator: Adobe Illustrator 24.0.2, SVG Export Plug-In . SVG Version: 6.00 Build 0)  -->
<svg version="1.1" id="Layer_1" xmlns="http://www.w3.org/2000/svg" xmlns:xlink="http://www.w3.org/1999/xlink" x="0px" y="0px"
	 width="529.81" height="861.13" viewBox="0 0 529.81 861.13" style="enable-background:new 0 0 529.81 861.13;" xml:space="preserve">
<g>
	<path d="M161.57,652.36c-4.22-3.06-8.8-4.67-13.17-6.53c-8.59-3.65-17.16-7.15-24.75-12.81c-8.95-6.67-19.57-10.62-28.54-17.38
		c-8.42-6.34-15.98-13.54-23.58-20.76c-6.27-5.96-13.03-11.46-18.05-18.57c-8.63-12.22-18.53-23.62-25.19-37.14
		c-5.45-11.05-9.99-22.5-13.76-34.25c-1.21-3.78-2.56-7.42-4.58-10.97c-3.49-6.12-4.03-13.28-5.05-20.16
		c-0.54-3.62-0.74-7.26-2.02-10.75c-1.09-2.97-3.05-17.32-2.85-19.44c0.97-10.2,2.05-20.36,2.2-30.65
		c0.2-13.68,2.51-27.3,7.18-40.14c3.17-8.72,6.97-17.26,10.12-26.03c1.01-2.82,2.17-5.53,2.39-8.6c0.2-2.69,1.55-5.1,2.86-7.41
		c7.37-13.04,15.05-25.88,23.83-38.05c11.33-15.7,23.97-30.17,37.56-43.99c7.48-7.61,15.76-14.29,23.14-21.95
		c0.93-0.97,1.98-1.76,3.25-2.27c4.25-1.69,7.66-4.56,11.1-7.49c2.02-1.72,2.48-2.78,1.06-5.32c-2.23-4.02-4.65-7.99-5.51-12.71
		c-2.89-15.77-7.25-31.34-6.06-47.63c1.05-14.46,4.9-28.01,12.4-40.55c3.83-6.41,7.04-13.2,10.53-19.81
		c3.76-7.13,8.3-13.6,15.01-18.36c7.36-5.22,12.51-12.91,19.78-18.17c8.05-5.83,15.79-12.09,24.31-17.31
		c10.5-6.45,21.1-12.67,32.51-17.34c13.71-5.62,27.66-10.48,42.39-12.9c6.19-1.02,12.54-1.63,18.36-4.24
		c2.93-1.32,5.91-0.04,8.87-0.58c7.54-1.35,15.21-1.57,22.83-2.07c3-0.2,5.8,0.71,8.78,2.17c-1.67,3.52-3.54,5.51-7.16,6.66
		c-10.95,3.48-21.34,8.28-31.07,14.53c-11.23,7.22-21.85,15.15-31.75,24.15c-9.5,8.63-16.75,18.84-23.32,29.73
		c-5.11,8.48-7.68,17.95-11.26,27c-1.96,4.95-2.27,10.72-2.48,16.15c-0.51,12.73-1.01,25.48,1.52,38.13
		c1.38,6.9,2.7,13.69,7.41,19.27c0.94,1.11,1.49,2.55,2.29,3.97c11.98-2.33,24.13-2.43,36.17-2.81c6.5-0.2,13.23-0.25,19.84,1
		c3.86,0.73,7.92,0.27,11.91,0.77c13.69,1.71,27.3,4.06,40.76,6.94c5.35,1.14,10.99,2.48,15.93,5.35c0.57,0.33,1.16,0.7,1.78,0.88
		c14.42,4.06,26.79,12.24,39.55,19.64c1.01,0.59,1.97,1.31,3.05,1.71c8.7,3.22,15.68,9.36,23.64,13.84
		c5.28,2.97,9.54,7.25,14.11,11.11c15.04,12.69,28.92,26.56,40.28,42.65c5.73,8.12,10.49,16.96,15.59,25.53
		c4.24,7.14,7.45,14.85,12.39,21.58c2.18,2.96,3.9,6.29,4.89,9.8c1.84,6.6,5.78,12.42,7.19,19.09c1.71,8.09,4.91,15.84,5.53,24.17
		c0.46,6.15,1.87,12.16,2.57,18.29c1.78,15.56,2.6,31.04-0.66,46.51c-0.27,1.29-0.45,2.67-0.27,3.96
		c1.56,11.26-1.8,21.72-4.83,32.31c-2.1,7.33-4.59,14.52-6.89,21.77c-3.69,11.68-8.62,22.74-15.13,33.27
		c-6.91,11.18-14.95,21.57-21.63,32.9c-4.4,7.46-10.47,13.75-16.6,19.91c-10.15,10.2-22,18.3-33.17,27.23
		c-2.72,2.17-5.67,4.09-9.12,5.08c-1.25,0.36-2.5,1.02-3.5,1.84c-9.71,7.93-21.11,13.12-31.7,20.07
		c4.67,8.86,13.2,13.66,21.47,18.73c14.52,8.9,30.27,15.22,45.99,21.58c5.72,2.31,11.83,3.16,17.92,3.83
		c3.21,0.35,6.2,0.9,8.79,3.04c3.26,2.69,4.05,5.01,1.96,8.61c-5.33,9.17-11.82,16.74-21.94,21.6c-9.74,4.68-19.94,7.34-30.1,10.41
		c-3.03,0.92-6.29,0.39-9.45,0.3c-2.54-0.07-4.21,0.63-5.25,3.43c-4.66,12.54-10.95,24.08-20.17,34.03
		c-4.27,4.61-8.27,9.44-13.26,13.83c0.8,6.6-1.42,12.8-4.2,18.93c-1.22,2.69-2.24,5.43-2.68,8.49c-0.5,3.44-3.56,5.87-5.58,8.5
		c-9.69,12.61-20.71,23.79-36.53,28.65c-2.9,0.89-5.52,2.34-8.21,3.61c-13.63,6.43-28.08,7.19-42.84,7.36
		c-13.37,0.15-25.45-4.56-37.86-8.13c-4.78-1.38-8.61-4.98-12.81-7.65c-2.11-1.34-4.1-3.02-6.5-3.67
		c-6.57-1.78-10.64-6.82-14.6-11.6c-2.1-2.53-4.65-4.18-7.02-6.16c-2.65-2.21-5.86-0.72-8.66-0.29
		c-16.82,2.62-33.19,1.06-48.89-5.44c-10.26-4.24-20.46-8.87-29.29-15.74c-10.27-7.99-16.57-18.79-21.01-30.92
		c-4.64-12.66-4.67-25.8-4.6-38.91c0.04-6.54,0.5-13.54,2.86-19.49c3.55-8.94,4.97-19.23,13.26-25.81c1.62-1.29,1.71-3.48,3.01-5.09
		c4.36-5.4,9.39-9.81,15.65-12.94c3.09-1.55,5.91-3.67,8.78-5.68c6.2-4.35,13.22-6.89,20.84-7.32
		C156.79,656.13,159.38,655.48,161.57,652.36z"/>
</g>
</svg>
