<?xml version="1.0" encoding="utf-8"?>
<!-- Generator: Adobe Illustrator 24.0.2, SVG Export Plug-In . SVG Version: 6.00 Build 0)  -->
<svg version="1.1" id="Layer_1" xmlns="http://www.w3.org/2000/svg" xmlns:xlink="http://www.w3.org/1999/xlink" x="0px" y="0px"
	 viewBox="0 0 860.28 860.44" style="enable-background:new 0 0 860.28 860.44;" xml:space="preserve">
<g>
	<path d="M764.09,685.39c-1.74-5.55,1.88-10.38,1.5-15.85c5.62-1.84,10.3-5.52,16.59-6.2c-8.69-12.64-9.87-26.91-12.76-40.72
		c-3.65-17.45-3.07-35.12-2.82-52.69c0.18-12.92,2.05-25.85,3.79-38.69c0.65-4.85,3.2-9.42,4.59-14.2
		c1.91-6.53,4.97-12.63,7.02-19.1c0.87-2.73,2.47-5.07,4.11-7.38c5.52-7.76,11.71-14.96,18.87-21.22
		c8.95-7.83,19.79-10.7,31.19-8.38c8.76,1.78,14.81,8.42,18.1,16.59c6.76,16.75,7.03,34.2,4.63,51.91
		c-2.79,20.61-8.85,40.4-16.6,59.46c-5.43,13.34-11.41,26.57-17.51,39.69c-4.83,10.39-10.4,20.35-16.48,29.96
		c-2.68,4.24-6.5,8.32-11.25,10.88c8.83,14.05,5.13,27.51-9.48,35.54c1.56,7.48,0.64,14.9-1.26,22.12
		c-1.13,4.28-4.1,7.89-5.82,12.06c-3.03,7.34-6.22,14.71-12.5,20.08c-0.37,0.32-0.74,0.73-0.92,1.17
		c-5.04,12.68-14.22,22.54-22.47,33.03c-7.9,10.05-18.99,15.99-29.53,22.56c-7.45,4.64-15.44,8.51-22.95,12.96
		c-12.61,7.47-26.35,11.61-39.84,16.59c-2.32,0.85-4.87,1.04-7.25,1.75c-8.5,2.56-16.45,6.98-25.57,7.43
		c-4.96,0.25-9.78,1.48-14.79,1.68c-6.77,0.27-13.41,2.11-20.27,2.11c-7.62,0.01-15.2,0.7-22.8,1.6
		c-8.75,1.04-17.57-0.95-26.38-1.28c-6.97-0.26-14.03-0.22-20.86-1.76c-8.73-1.97-17.97-1.13-26.36-4.89
		c-0.45-0.2-0.95-0.49-1.41-0.47c-10.37,0.42-19.95-3.26-29.65-5.99c-9.74-2.74-19.72-4.63-29.18-8.34
		c-2.01-0.79-4.07-1.51-6.17-1.96c-14.09-3.02-26.24-9.99-38.09-17.88c-4.08-2.71-8.77-5.01-13.33-6.78
		c-8.24-3.19-15.05-8.48-22.15-13.29c-13.5-9.15-25.62-20.04-37.59-31.12c-8.07-7.47-14.07-16.39-19.72-25.62
		c-1.68-2.75-3.54-4.62-6.81-5.2c-1.64-0.29-2.85-0.28-4.02,1c-3.71,4.06-8.93,5.66-13.86,6.35c-13.59,1.9-27.13,2.26-39.96-4.47
		c-8.47-4.45-14.2-11.18-18.95-19.19c-4.53-7.64-6.81-15.65-7.02-24.63c-0.11-4.63,0.07-9.08,0.89-13.56
		c0.68-3.7,2.32-6.91,5.14-9.54c-1.06-3.24-1.78-6.49-3.36-9.44c-4.75-8.88-4.03-18.67-2.96-27.88c0.8-6.89,3.45-14.11,9.83-18.93
		c4.18-3.15,4.03-4.21,0.43-7.91c-1.5-1.54-3.27-2.82-4.86-4.29c-1.64-1.52-3.42-1.77-5.53-1.1c-5.46,1.74-11.04,1.05-16.55,0.38
		c-7.43-0.9-14.03-3.74-19.62-8.92c-5.9-5.46-11.91-10.99-14.79-18.57c-2.65-6.97-5.85-13.77-5.71-21.8
		c0.09-5.37-0.69-10.89-0.46-16.36c0.4-9.22,4.54-17.25,8.5-25.29c0.42-0.85,1.24-1.68,2.08-2.12c5.23-2.76,5.89-7.55,5.96-12.71
		c0.22-15.95,5.55-30.22,14.44-43.27c1.55-2.27,0.96-3.7-1.33-4.71c-10.05-4.43-19.74-9.52-29.3-14.91
		c-6.32-3.57-11.71-8.27-16.57-13.52c-7.12-7.7-14.16-15.54-19.41-24.67c-4.69-8.17-9.17-16.46-10.78-26.03
		c-0.9-5.36-3.18-10.46-4.56-15.79c-1.94-7.52-2.41-15-1.64-22.65c0.3-2.97,0.91-5.97,0.76-8.92c-0.18-3.55-2.46-6.47-4.73-8.89
		c-2.86-3.04-3.39-7.74-7.36-9.87c-0.12-0.06-0.25-0.29-0.23-0.41c1.48-7.48-5.99-11.28-7.24-17.83
		c-2.15-11.37-7.07-22.13-7.06-34.02c0-4.95-1.27-9.86-1.47-14.86c-0.41-9.81-0.8-19.56,1.24-29.28c0.68-3.22,0.88-6.64,0.71-9.93
		c-0.45-8.49,2.1-16.28,4.49-24.25c1.74-5.83,4.37-11.53,4.34-17.83c0-0.63,0.21-1.37,0.57-1.89c3.64-5.3,5.2-11.43,7.2-17.41
		c1.29-3.86,0.85-5.14-3.11-5.95c-16.49-3.39-32.43-8.71-47.86-15.24c-10.16-4.3-18.92-10.94-23.48-21.82
		c-1.32-3.16-4.17-5.51-5.07-9.08c-2.64-10.49-2.44-20.67,2.81-30.38c1.59-2.95,4.18-5.15,6.25-7.74c0.93-1.17,2.08-2.17,3.04-3.32
		c8.83-10.62,20.27-13.93,33.69-12.6c6.42,0.63,11.5,3.8,16.91,6.71c14.4,7.73,27.1,18,40.82,26.73c6.86,4.36,14.51,7.41,20.87,12.6
		c1.98,1.61,3.92,0.53,5.51-0.59c4.34-3.06,8.45-6.43,12.79-9.49c8.66-6.11,16.8-12.9,25.69-18.76c6.79-4.48,13.05-9.85,20.4-13.41
		c13.58-6.57,26.54-14.59,41.57-17.84c7.46-1.61,14.42-5.29,22.26-5.36c0.61-0.01,1.24-0.45,1.82-0.76
		c12.79-6.8,26.88-6.25,40.7-7.16c6.93-0.46,13.86-1.2,20.79-1.34c12.28-0.25,24.57-1.44,36.83-0.5
		c13.83,1.07,27.69,1.65,40.99,6.87c7.16,2.81,15.03,3.94,22.06,7.38c7.56,3.7,15.62,6.16,23.28,9.7
		c9.97,4.6,19.22,10.51,29.24,14.92c5.7,2.51,10.04,7.12,15.6,9.84c6.9,3.37,12.8,8.21,18.8,12.9c0.66,0.51,1.44,0.9,1.98,1.51
		c8.29,9.33,18.87,16.23,26.95,25.83c6.23,7.4,11.58,15.41,17.28,23.17c0.88,1.2,1.6,2.58,2.67,3.59
		c5.41,5.14,8.43,11.75,11.83,18.21c3.5,6.66,4.52,14.12,7.61,20.86c1.66,3.63,3.7,7.1,5.13,10.81c5.01,13.03,7.78,26.54,9.69,40.39
		c1.19,8.6,1.97,17.17,1.58,25.71c-0.37,8.28-0.38,16.65-1.51,24.83c-0.76,5.53-0.31,11.34-3.06,17.38
		c4.93,2.25,8.84,6.01,12.67,9.89c3.87,3.92,6.74,8.67,10.41,12.65c5.76,6.26,8.92,13.93,13.09,21.03
		c3.09,5.26,5.74,10.83,7.99,16.5c5.2,13.1,7.74,26.98,11.03,40.62c1.58,6.57,3.2,13.43,2.9,20.08c-0.47,10.58,1.58,21.03,0.25,31.7
		c-0.91,7.31-2.18,14.64-2.62,22.08c-0.68,11.5-3.62,22.68-7.03,33.8c-1.59,5.17-4.73,8.97-6.89,13.52
		c-2.98,6.27-5.3,12.85-8.2,19.17c-3.88,8.45-8.31,16.54-13.59,24.29c-7.05,10.35-16.01,18.43-25.7,26.12
		c-6.36,5.05-12.53,10.34-19.14,15.07c-2.01,1.43-4.13,2.73-7.53,2.54c2.4,6.01,2.01,11.8,2.35,17.53
		c0.35,5.75-0.16,11.43-0.93,17.1c-0.13,0.99-0.47,1.94-0.66,2.92c-1.28,6.45-3.27,12.96,1.51,18.93
		c1.64,12.18,10.93,19.79,17.51,28.98c2.53,3.53,6.38,5.8,10.09,8.07c6.83,4.19,11.83,10.57,18.37,15.23
		c4.19,2.99,8.72,4.77,13.16,6.83c8.11,3.76,16.35,7.43,24.87,10.08c16.72,5.21,33.81,8.81,51.5,6.91c17.68-1.9,34.38-6.77,49.85-16
		c4.31-2.57,8.33-5.25,12.1-8.46C755.37,688.5,759.83,687.4,764.09,685.39z"/>
</g>
</svg>
