<?xml version="1.0" encoding="utf-8"?>
<!-- Generator: Adobe Illustrator 24.0.2, SVG Export Plug-In . SVG Version: 6.00 Build 0)  -->
<svg version="1.1" id="Layer_1" xmlns="http://www.w3.org/2000/svg" xmlns:xlink="http://www.w3.org/1999/xlink" x="0px" y="0px"
	 viewBox="0 0 886.3 771.98" style="enable-background:new 0 0 886.3 771.98;" xml:space="preserve">
<g>
	<path d="M402.85,761.77c-4.31,5.87-9.66,5.45-14.69,5.87c-0.97,0.08-1.79-0.13-2.71,0.63c-5.78,4.77-18.93,4.54-24.03-0.32
		c-1.67-1.59-1.43-3.69-1.3-5.63c0.36-5.48,0.94-10.95,1.35-16.43c0.38-4.98,0.65-9.97,0.97-14.96c0.14-2.23-0.45-3.51-2.99-4.27
		c-18.56-5.53-35.03-15.23-50.88-26.06c-3.59-2.45-6.41-5.82-9.23-9.11c-2.59-3.04-3.89-6.48-3.25-10.61
		c1.42-9.2,1.73-18.58,4.21-27.61c0.5-1.82,0.5-3.2-0.9-4.52c-4.05-3.81-4.61-8.36-3.7-13.72c0.84-4.91,1.18-9.93,2.43-14.77
		c0.77-2.97,0.12-4.94-2.27-6.93c-5.3-4.41-9.39-9.81-12.53-16.01c-2.87-5.67-3.07-11.48-1.97-17.49c0.24-1.29,0.94-2.51,0.28-3.94
		c-1.29-1.4-3.07-0.86-4.65-0.89c-4.2-0.08-7.76-1.7-10.96-4.28c-3.47-2.79-5.15-6.28-4.86-10.89c0.61-9.49,2.15-18.86,3.64-28.22
		c2.57-16.11,6.37-31.97,11.32-47.55c3.94-12.39,8.97-24.3,14.33-36.13c19.26-42.5,42.76-82.77,64.81-123.81
		c17.44-32.45,31.55-66.38,43.17-101.34c2.8-8.44,5.54-16.9,8.6-26.24c-10.99,5.34-20.59,11.47-31.29,15.49
		c0.6-2.05,2.29-2.91,3.87-3.81c8.1-4.6,16.18-9.24,24.37-13.68c2.7-1.46,4.27-3.31,4.87-6.38c1.1-5.6,1.27-11.24,1.59-16.89
		c0.12-2.12-1.08-3-2.55-3.83c-4.05-2.29-8.11-4.56-12.2-6.79c-1.03-0.56-2.31-1.12-3.32-0.32c-3.25,2.58-5.86,0.49-8.67-0.87
		c-2.04-0.99-3.77-2.74-6.67-2.8c-1.26,6.36-2.61,12.64-3.74,18.96c-3.59,20.07-12.64,38.02-21.62,56
		c-5.13,10.27-10.11,20.61-15.2,30.91c-0.6,1.21-1.02,2.34-0.88,3.78c0.83,8.6-3.27,14.78-10.22,19.1
		c-3.09,1.92-5.35,4.15-7.24,7.25c-10.81,17.7-19.36,36.4-25.5,56.2c-1.48,4.78-2.44,9.65-2.45,14.73
		c-0.01,5.63-2.45,9.91-7.92,12.08c-1.41,0.56-2.72,1.3-3.67,2.51c-5.75,7.27-10.22,15.19-12.2,24.33c-0.67,3.1-0.6,6.23-0.02,9.42
		c1.69,9.34-3.54,17.66-12.69,20.09c-2.51,0.67-3.42,2.54-4.49,4.33c-4.69,7.85-8.12,16.33-11.97,24.6
		c-3.3,7.08-6.38,14.25-9.49,21.41c-0.7,1.61-1.94,3.16-1.11,5.61c5.93-5.95,8.17-14.34,14.84-19.34
		c-5.99,14.63-14.7,28.17-17.14,44.2c4.13,2.35,8.37,2.67,12.32,3.79c3.06,0.87,4.76,2.29,5.6,5.49c2.22,8.53,4.67,17.02,7.35,25.42
		c0.99,3.12-0.19,4.65-2.53,6.13c-2.49,1.57-5.68,1.84-7.85,3.96c0.27,0.53,0.35,0.99,0.54,1.05c6.91,1.91,9.69,6.52,10.98,13.55
		c2.32,12.62,4.35,25.26,5.57,38.02c0.8,8.42,0.62,8.5-8.19,8.36c-7.14-0.12-14.28-0.43-21.13-1.18c-1.06,0.61-1.45,1.36-1.61,2.17
		c-3.48,17.03-10.37,32.96-15.83,49.35c-1.45,4.34-4,7.26-8.87,7.46c-1.97,0.08-2.9,1.23-3.55,2.94
		c-2.53,6.67-6.02,12.95-7.81,19.94c-1.28,4.98-3.55,6.47-8.7,6.5c-4.93,0.03-9.62-0.91-13.7-3.88c-3.42-2.49-4.51-5.04-3.11-9.06
		c6.01-17.31,10.05-35.16,14.95-52.78c1.63-5.85,0.41-9.89-3.47-14.25c-3.77,3.5-8.41,4.58-13.71,3.66
		c-2.43,4.72-3.45,9.78-5.23,14.55c-6.73,18.13-15.42,35.36-24.46,52.41c-0.47,0.88-1.02,1.72-1.48,2.6
		c-4.13,7.89-6.38,8.82-14.73,6.14c-1.6-0.51-3.11-1.14-4.56-2c-7.92-4.69-9.06-8.22-4.96-16.39c9.66-19.2,17.64-39.08,24.57-59.4
		c0.32-0.94,0.88-1.8,1.25-2.72c1.57-3.95-1.18-9.21-5.29-10.12c-1.69-0.38-2.83,0.17-3.59,1.83c-0.76,1.65-1.8,3.18-2.71,4.76
		c-0.81,1.42-1.97,1.68-3.39,1.03c-1.51-0.69-2.41-1.67-1.92-3.52c0.72-2.69,2.54-5.05,2.58-7.78c-1.12-1.76-2.89-2.03-4.35-2.74
		c-3.81-1.85-6-1.26-8.41,2.3c-11.4,16.81-22.74,33.66-34.16,50.46c-3.09,4.54-6.46,8.9-9.52,13.46c-2.08,3.1-4.76,3.8-8.21,3.01
		c-5.58-1.28-10.19-3.99-13.54-8.7c-1.36-1.92-1.66-3.75-0.57-6.03c10.27-21.33,21.68-41.99,35.5-61.25
		c2.22-3.1,4.55-6.12,6.74-9.07c-3.28-6.09-3.28-6.09-3.58-11.43c-6.2-0.12-12.09-1.83-17.45,4.38
		c-10.47,12.12-20.17,24.81-30.13,37.31c-2.07,2.6-4.24,5.14-6.51,7.58c-2.65,2.86-5.82,3.57-9.54,2.06
		c-4.56-1.85-8.49-4.51-11.8-8.17c-2.47-2.74-2.85-5.54-0.75-8.59c4.44-6.44,8.82-12.92,13.41-19.26c1.52-2.1,2.42-3.64,0.49-6.11
		c-2.6-3.33-1.42-6.88,0.33-10.31c4.63-9.1,10.84-17.16,16.71-25.44c4.99-7.05,10-14.08,15.19-21.38
		c-6.51-7.26-12.93-14.41-19.9-22.19c16.74-10.45,33.61-19.78,52.25-26.53c0.71-1.38-1.27-2.72-0.62-5.13
		c4.55-3.46,10.48-5.69,16.11-8.36c6.3-2.99,12.93-5.27,19.36-7.99c2.63-1.11,4.85-0.63,7.03,0.93c3.92,2.8,8.01,5.37,11.74,8.65
		c3.31-1.73,5.72-4.28,7.65-7.11c5.54-8.1,10.1-16.79,14.5-25.55c1.08-2.14,2.23-4.31,4.55-6.57c-0.41,5.27-3.64,8.98-3.69,13.52
		c1.46,0.16,1.61-1.16,2.09-1.97c8.01-13.81,17.52-26.73,24.38-41.22c0.98-2.07,1.56-3.93,0.51-6.16
		c-3.35-7.16,0.78-16.8,6.46-19.75c10.16-5.28,14.07-14.97,19.2-24.09c3.27-5.82,0-11.3,0.63-16.89
		c-5.65-6.65-1.65-14.54-2.75-21.79c-0.35-2.32,1.18-3.77,3.48-4.07c3.75-0.5,4.67-2.77,4.88-6.26c1.32-21.62,2.8-43.22,4.33-64.82
		c0.15-2.1-0.23-4.69,3.17-6.45c1.55,10.38-0.39,20.17-0.61,29.95c-0.22,10.16-0.62,20.32-1,30.48c-0.37,9.91-0.83,19.81-1.24,29.68
		c2.61,0.47,3.45-1.13,4.33-2.48c12.84-19.86,25.46-39.83,34.35-61.88c0.65-1.62,0.98-3.2,0.76-4.86
		c-1.13-8.45,2.68-14.95,8.5-20.34c2.87-2.66,5.13-5.48,6.96-8.93c26.3-49.73,52.69-99.41,79.06-149.11
		c2.88-5.43,5.72-10.87,8.57-16.31c1.04-1.98,2.45-3.53,4.63-4.38c2.72,0.6,3.5,2.99,4.24,5.1c3.3,9.44,5.73,19.06,7,29.05
		c1.84,14.47,1.81,28.91,0.89,43.4c-0.05,0.83-0.08,1.67-0.17,2.49c-0.97,9.11-0.95,9.06,7.1,13.6c6.67,3.76,13.26,7.66,19.88,11.5
		c1,0.58,1.96,1.25,3.42,1.11c0.65-2.75-0.62-5.21-1.53-7.6c-1.26-3.32-0.59-5.89,2.19-7.87c2.42-1.72,3.1-3.86,3.05-6.82
		c-0.7-44.65-1.27-89.31-1.85-133.96c-0.02-1.72-0.63-3.7,1.37-4.93c2.19,0.64,2.03,2.66,2.26,4.1
		c4.25,25.95,9.96,51.63,14.79,77.47c3.28,17.5,6.72,34.98,9.96,52.49c0.47,2.54,1.22,4.01,3.96,4.89c5.38,1.72,5.97,3.12,5.49,8.89
		c-0.55,6.49-0.67,12.97,0.46,19.41c1.2,0.98,2.15,0.17,3.15-0.39c9.98-5.66,19.98-11.29,29.94-16.98
		c4.98-2.84,7.25-2.27,11.26,3.38c-5.18,2.64-10.24,5.39-15.46,7.81c-4.84,2.25-9.1,5.32-15.01,5.84
		c-4.57,0.41-8.83,4.26-13.43,6.69c0.83,3.73,1.52,7.29,2.43,10.8c0.56,2.15,1.95,3.62,4.01,4.79c12.87,7.3,25.66,14.75,38.45,22.2
		c2.36,1.37,4.58,2.98,6.48,5.12c-15.41-6.48-29.77-14.93-44.4-22.65c-1.26,1.01-0.5,1.89-0.2,2.77
		c9.61,28.36,24.76,54.11,38.07,80.72c13.26,26.51,28.27,52.08,41.73,78.48c17.19,33.72,31.77,68.52,43.32,104.56
		c5.08,15.85,9.56,31.89,13.24,48.13c2.42,10.68-0.6,19.66-9.19,26.6c-1.35,1.09-1.76,1.99-0.99,3.77
		c5.55,12.98,10.82,26.08,16.43,39.03c4.43,10.22,9.23,20.27,15.04,29.81c0.82,1.36,1.96,2.72,1.31,4.84
		c-4.18-3.37-6.71-7.84-9.56-12.01c-2.54-3.71-4.75-7.63-7.22-11.38c-2.51-3.8-5.85-6.19-10.87-5.88c-1.03,3.66,2.09,5.87,2.7,8.84
		c0.57,2.72,1.97,5.28,3.15,7.84c4.32,9.32,4.22,18.99,2.45,28.82c-0.8,4.44-1.1,8.64,1.23,13.01c3.39,6.36,1.62,13.34-0.48,19.48
		c-2.28,6.68-0.89,12.39,1.54,18.24c1.35,3.26,1.52,6.49,0.84,9.78c-3.83,18.62-11.87,35.22-24.06,49.81
		c-0.19,0.22-0.58,0.27-1.69,0.76c-4.66-16.87-6.73-34.22-11.96-51.37c-6.25,0-12.35,1.78-18.54,2.64
		c-1.69,0.23-1.65,1.86-1.35,3.24c2.28,10.76,3.91,21.62,5.31,32.53c1.02,7.92,1.69,15.9,3.25,23.75c0.45,2.24-0.56,3.82-2.44,5.01
		c-5.94,3.75-12.3,5.85-19.42,5.15c-0.5-0.05-1.11,0.05-1.47-0.21c-3.49-2.47-7.08-4.36-11.55-4.67c-2.23-0.15-2.53-2.74-2.99-4.72
		c-2.78-11.99-5.58-23.98-8.42-35.96c-0.36-1.53-0.04-3.38-1.76-4.48c-1.4,1.8-1.12,3.82-0.8,5.76c1.72,10.56,2.09,21.21,2.37,31.87
		c0.12,4.56-1.01,6.3-5.22,7.94c-3.09,1.2-6.29,2.1-9.8,2.67c-0.07,2.23-0.43,4.24-2.51,5.59c-5.18,3.38-10.72,5.32-16.96,4.45
		c-5.73-0.8-7.47-2.91-8.62-8.61c-2.12-10.6-4.45-21.17-6.84-31.71c-0.84-3.73-4.37-5.07-7.3-6.21c-3.06-1.19-5.45,1.79-8.03,3.11
		c-1.05,0.54-0.78,2.12-0.76,3.26c0.08,6.67-1.12,13.29-0.74,19.97c0.19,3.38-1.22,5.99-4.18,7.33c-2.59,1.17-3.46,2.84-3.1,5.46
		c0.05,0.33-0.01,0.67-0.01,1c-0.07,8.14-1.3,9.36-9.46,9.29c-3.17-0.03-6.31-0.37-9.43-1C406.8,770.09,403.28,768.33,402.85,761.77
		z"/>
	<path d="M763.42,641.6c-2.91,0.25-3.27,1.71-2.79,4.44c1.66,9.45,5.91,17.99,9.08,26.91c3.18,8.93,6.63,17.76,10.63,26.36
		c1.35,2.89,0.89,4.97-1.74,6.88c-3.73,2.7-7.66,4.57-12.34,4.94c-3.34,0.26-5.45-0.98-6.61-4.03c-0.7-1.83-0.94-3.91-2.88-5.13
		c-1.82,0.25-3.41,1.08-4.92,1.92c-0.1,0.42-0.32,0.77-0.23,1.03c1.86,5.85,1.54,6.74-3.74,9.86c-1,0.59-2.03,1.17-3.09,1.64
		c-8.61,3.87-12.8,1.99-16.17-6.77c-3.63-9.46-8.33-18.47-12.16-27.86c-3.72-9.13-6.21-18.23-4.9-28.13
		c0.11-0.81,0.05-1.67-1.02-2.62c-2.08-0.48-4.56,0.09-6.99,0.19c-6.04,0.26-6.04,0.34-6.49-5.61c-4.75-0.72-9.47,1.09-14.06,0.6
		c-1.36-1.18-1.09-2.56-1.07-3.87c0.13-12,0.35-23.99,1.77-35.93c0.24-1.98,0.53-3.99,0.46-5.98c-0.1-2.8,1.07-4.69,3.25-6.32
		c4-2.99,7.83-6.23,11.83-9.21c2.06-1.54,3.07-3.14,2.64-5.89c-1.35-8.72-2.49-17.47-3.63-26.22c-0.18-1.41-0.89-2.46-1.62-3.58
		c-0.82-1.25-1.97-2.56-1.68-4.08c0.82-4.26-1.58-7.31-3.63-10.5c-4.14-6.44-8-13.04-11.33-19.95c-0.62-1.28-1.09-2.63-2.01-4.91
		c6,5.54,8.43,12.38,13.53,17.23c-2.02-6.67-5.46-12.68-8.79-18.69c-5.56-10.04-11.34-19.96-17.1-29.89c-1.76-3.04-3.82-5.71-7.45-7
		c-2.62-0.93-3.65-3.14-4.09-6.19c-2.51-17.37-9.12-32.94-21.26-45.89c-0.23-0.24-0.43-0.57-0.72-0.69
		c-6.45-2.63-7.11-8.07-7.77-14.15c-1.13-10.36-5.66-19.78-10.18-29.05c-7.29-14.96-14.93-29.76-23.94-43.79
		c-2.96-4.62-6.22-9.05-9.39-13.53c-1.17-1.65-2.63-2.8-4.67-3.51c-4.77-1.66-6.09-4.07-5.16-9.16c0.43-2.34-0.38-4.24-1.26-6.22
		c-6.06-13.54-13.47-26.38-20.34-39.5c-12.27-23.43-25.31-46.48-37.03-70.18c-7.28-14.72-12.73-30.32-16.46-46.47
		c-3.72-16.07-4.48-32.29-3.96-48.65c0.21-6.38,1.55-12.56,4.11-18.42c3.24-7.46,9.03-9.12,15.69-4.65
		c1.97,1.32,3.46,3.06,4.97,4.86c12.28,14.54,20,31.82,29.07,48.27c19.3,34.98,38.4,70.08,57.56,105.13
		c6.62,12.12,13.21,24.26,19.76,36.42c1.85,3.42,3.8,6.58,7.71,8.12c2.53,0.99,4.3,3.22,3.57,5.93c-1.8,6.61,1.55,12.01,3.77,17.58
		c9.56,23.92,22.47,46.02,37.06,67.18c3.25,4.72,7.16,8.84,11.8,12.08c3.08,2.15,4.16,4.75,3.44,8.1c-0.64,2.97,0.12,5.52,1.14,8.21
		c4.22,11.1,9.04,21.83,17.39,30.57c2.77,2.9,5.57,5.74,8.89,8.02c2.68,1.84,3.78,4.17,2.3,7.27c-0.61,1.28-0.74,2.42-0.24,3.81
		c4.95,13.59,9.75,27.25,17.59,39.56c1.31,2.05,1.26,2.09,3.84,3.39c1.53-1.23,0.29-3.64,2.03-4.85c2.18,0.51,2.4,2.5,3.16,4.09
		c3.22,6.76,6.45,13.52,9.69,20.28c0.29,0.6,0.49,1.49,0.97,1.71c6.33,2.79,6.98,10,11.29,14.37c4.45,4.51,9.1,8.8,13.69,13.16
		c2.36,2.24,4.73,2.69,7.72,1.94c4.36-1.09,8.79-1.89,13.14-3.02c2.41-0.63,4.48-0.49,6.65,0.84c11.23,6.85,22.51,13.61,33.77,20.41
		c0.43,0.26,1.07,0.48,1.2,0.86c2.05,6.36,8.48,7.25,13,10.51c0.25,0.18,0.35,0.55,0.88,1.44c-4.21,5.38-9.44,10.18-14.45,15.73
		c4.43,3.42,8.66,6.83,13.04,10.05c3.44,2.52,6.03,5.62,8.08,9.36c6.4,11.67,12.95,23.27,20.12,34.49c1.28,2,1.32,3.36-0.56,5.15
		c-3.78,3.61-7.7,6.87-12.59,8.16c-0.94,9.24-9.23,10.6-14.41,15.28c-3.35-2.03-5.09-4.98-7.52-7.19c-0.95-0.86-1.76-2.58-3.2-1.94
		c-4.68,2.09-6.36-1.64-8.23-4.28c-8.65-12.25-18.63-23.46-27.83-35.69c-3.23,2.14-6.34,4.19-9.83,6.5
		c12.12,17.49,18.12,37.96,28.52,56.64c-1.83,3.21-5.52,4.23-8.57,6.01c-8.36,4.88-8.35,4.78-13.75-3.09
		c-1.57-2.29-2.88-4.87-5.06-6.37c-1.22-0.21-1.9,0.36-2.64,0.69c-8.33,3.74-8.46,3.51-14.46-3.38
		c-7.38-8.48-13.37-17.83-18.74-27.64C765.66,644.5,765.07,642.71,763.42,641.6z"/>
</g>
</svg>
