<?xml version="1.0" encoding="utf-8"?>
<!-- Generator: Adobe Illustrator 24.0.2, SVG Export Plug-In . SVG Version: 6.00 Build 0)  -->
<svg version="1.1" id="Layer_1" xmlns="http://www.w3.org/2000/svg" xmlns:xlink="http://www.w3.org/1999/xlink" x="0px" y="0px"
	 width="761.34" height="861.52" viewBox="0 0 761.34 861.52" style="enable-background:new 0 0 761.34 861.52;" xml:space="preserve">
<g>
	<path d="M100.21,271.17c-0.25,7.47-3.3,14.1-4.48,21.11c-2.15,12.76-6.21,25.28-6.4,38.25c-0.18,12.58,0.25,25.19,1.44,37.79
		c1.71,18.1,4.87,35.94,8.14,53.78c2.77,15.11,3.45,30.29,2.4,45.7c-1.11,16.21-6.41,30.72-14.47,44.51
		c-4.37,7.48-10.87,12.91-17.43,18.26c-1.77,1.45-3.11,2.93-3.05,5.38c0.36,13.82,1.4,27.61,4.26,41.12
		c1.96,9.24,3.54,18.6,6.32,27.67c4.24,13.82,7.81,27.87,14.08,40.99c0.97,2.04,1.72,4.18,2.77,6.76c1.54-2.49,2.61-4.57,2.53-6.91
		c-0.56-15.43,4.34-29.67,10.84-43.14c5.62-11.62,12.36-22.83,21.17-32.52c2.47-2.71,4.04-6.1,6.81-8.59
		c8.98-8.09,18.97-14.52,30.31-18.79c1.99-0.75,4.17-1.12,6.17-2.58c-2.93-6.01-4.63-12.32-5.31-19
		c-1.45-14.26,2.25-27.38,8.24-40.04c7.74-16.36,16.21-32.41,23.21-49.08c5.59-13.3,12.13-26.3,16.03-40.27
		c2.31-8.28,4.67-16.53,7.33-25.16c2.56,1.92,3.75,4.21,4.4,6.81c1.61,6.46,2.69,13.01,3.54,19.61c2.11,16.35,4.07,32.71,6.65,49
		c3.26,20.54,5.68,41.2,8.22,61.85c0.7,5.66-0.09,11.27-0.1,16.81c1.7,0.79,2.21-0.56,3.08-1.2c9.87-7.32,19.1-15.43,29.76-21.78
		c7.4-4.41,15.09-8.31,22.27-13.06c3.05-2.02,6.58-2.25,9.77-3.64c5.06-2.21,5.4-2.82,2.46-7.59c-2.62-4.24-5.82-8.07-8.37-12.4
		c-5.58-9.48-10.51-19.21-13.73-29.75c-0.14-0.44-0.02-0.97-0.02-1.55c2.25-2.15,4.69-1.91,7.32-0.74
		c9.48,4.22,18.13,9.8,26.39,16.03c2.08,1.57,3.97,3.6,7.39,3.45c1.22-6.88,1.97-13.76,2.46-20.65c0.45-6.38,2.72-12.33,4.12-18.48
		c0.96-4.25,3.27-4.63,6.33-1.57c2.69,2.69,5.22,5.54,8,8.53c3.37-2.68,4.37-6.44,5.67-9.88c3.11-8.23,6.32-16.43,6.15-25.52
		c-0.14-7.17-2.38-13.26-7.18-18.61c-10.1-11.24-16.66-24.24-16.9-39.52c-0.16-10.39,3.31-20.26,6.86-30
		c3.7-10.14,9.73-18.89,15.54-27.81c12.8-19.66,24.95-39.79,33.99-61.42c5.51-13.19,7.62-27.46,6.67-42.09
		c-0.67-10.25-4.67-19.31-8.33-28.51c-4.98-12.54-9.15-25.32-12.64-38.33c-0.55-2.05-0.43-4.3-0.43-6.46
		c0.03-11.15-1.02-22.36,1.22-33.4c4.01-19.78,12.3-37.2,28.41-50.17c1.15-0.93,2.11-2.11,3.13-3.19c1.01-1.07,2.13-1.65,3.52-0.76
		c1.56,1,0.99,2.16,0.27,3.42c-3.97,6.97-6.25,14.62-8.89,22.14c-4.5,12.82-4.35,25.58-0.9,38.58c4.07,15.35,11.54,28.71,21,41.45
		c10.25,13.79,21.91,26.38,32.23,40.06c7.31,9.69,13.78,20.02,19.5,30.75c6.02,11.29,8.03,23.47,7.39,36.19
		c-0.81,16.07-6.08,30.82-12.74,45.25c-4.62,10-10.12,19.49-15.94,28.79c-4.22,6.74-9.68,12.63-13.8,19.51
		c-6.33,10.56-12.4,21.15-16.77,32.76c-2.28,6.06-4.15,12.27-6.52,18.29c-2.88,7.32-1.81,14.79-0.59,22.16
		c1.53,9.27,5.42,17.74,9.94,25.9c0.96,1.72,1.94,3.38,4.59,2.98c2.61-0.4,4.59,1.52,4.21,3.78c-1,6,1.6,10.94,3.61,16.16
		c2.16,5.61,1.53,11.45,0.62,17.23c-0.18,1.12-0.78,2.18-0.24,3.78c10.53-0.14,20.69-5.53,31.57-3.43c-0.03,3.42-1.65,5.18-3.62,6.8
		c-8.73,7.21-16.21,15.82-25.32,22.61c-0.62,0.46-1.34,1.04-1.05,2.29c10.27,1.96,19.26,7.54,28.95,11.32
		c3.43,1.34,6.1,4.04,9.21,5.94c8.99,5.49,17.52,11.5,24.04,19.94c0.72,0.93,1.56,1.83,2.93,1.37c1.28-0.43,1.85-1.61,1.86-2.73
		c0.05-7.81,0.33-15.65-0.22-23.43c-0.27-3.88-2.77-7.05-6.95-8.34c-2.96-0.91-4.97-3.3-7.34-5.11
		c-11.08-8.46-18.31-19.32-22.02-32.92c-4.53-16.65-4.29-33.22-1.12-49.92c3.64-19.17,10.72-37.17,18.65-54.93
		c5.56-12.45,11.49-24.72,17.2-37.09c6.41-13.88,12.92-27.72,19.14-41.69c5.34-11.99,11.49-23.61,15.89-36.03
		c3.27-9.24,6.9-18.35,10.38-27.52c0.46-1.21,0.65-2.64,2.35-3.22c2.27,0.85,2.21,2.96,2.21,4.89c0.04,17,1.93,33.92,2.1,50.9
		c0.14,14.36,2.66,28.48,4.04,42.71c1.06,10.93,2.16,21.86,3.8,32.73c2.36,15.63,4.37,31.31,6.61,46.95
		c0.47,3.31,0.51,6.63,0.68,9.95c0.69,13.99,0.45,27.99-1.01,41.87c-1.07,10.2-3,20.43-6.74,30.09c-2.18,5.63-6.3,10.16-10.02,14.85
		c-4.81,6.06-10.56,11.02-17.51,14.59c-3.5,1.79-5.02,5.05-5.47,9.33c3.29-0.11,5.28-2.26,7.54-3.67
		c18.18-11.38,38.13-15.94,59.21-13.57c19.07,2.14,37.08,8.58,52.65,20.01c12.96,9.52,24.23,20.87,30.35,36.34
		c1.16,2.92,2.84,5.62,4.06,8.55c3.18,7.66,3.88,15.71,4.76,23.83c1.44,13.28,1.81,26.59,0.74,39.84
		c-0.8,9.88-1.36,19.91-5.16,29.97c2.42-0.48,2.85-2.01,3.32-3.19c4.08-10.38,7.6-20.97,9.86-31.89c1.99-9.59,5.53-18.86,6.04-28.76
		c0.39-7.47,1.78-14.86,1.71-22.39c-0.04-3.99-1.19-6.72-4.74-9.09c-12.65-8.46-19.55-20.78-23.1-35.38
		c-3.88-15.97-1.09-31.39,2.95-46.8c4.03-15.42,8.41-30.72,13.65-45.81c5.5-15.83,10.66-31.8,14.85-48.08
		c2.99-11.61,5.92-23.2,8.37-34.93c0.55-2.65,0.61-5.28,0.69-7.94c0.05-1.86,0.15-3.71,2.42-4.36c1.97,1.06,2.09,3.11,2.31,4.79
		c1.16,8.78,4.01,17.14,6.04,25.7c4.13,17.46,8.19,34.95,12.73,52.3c4.57,17.44,7.16,35.17,9.18,53.02
		c1.03,9.09,3.49,17.96,3.79,27.18c0.25,7.67,0.58,15.63-1.17,22.82c-3.91,16.05-7.69,32.65-22.64,43.13
		c-1.38,0.97-2.29,2.41-2.37,4.22c-0.46,9.38-3.52,18.27-5.16,27.42c-4.04,22.53-13.16,43.21-23.37,63.35
		c-6.99,13.79-16.14,26.34-27.18,37.35c-4.08,4.07-6.48,9.32-9.18,14.21c-5.54,10.07-13.45,18.07-21.04,26.42
		c-6.04,6.64-12.67,12.71-19.3,18.7c-10.26,9.27-21.5,17.18-34.32,22.78c-6.69,2.92-13.03,6.66-19.77,9.56
		c-12.88,5.54-26.28,9.41-39.93,12.51c-12.89,2.93-25.99,4.21-39.14,4.34c-17.61,0.17-35.17-0.39-52.18-6.03
		c-4.36-1.45-9.06-2.14-13.46-3.59c-3.23-1.06-4.86,0.29-5.9,2.78c-1.21,2.9-1.89,6.03-3,8.98c-6.83,18.12-15.69,35.24-25.86,51.66
		c-4.19,6.77-9.04,13.2-14.74,18.85c-5.53,5.49-9.98,5.41-14.45-0.8c-5.84-8.1-10.29-17.09-14.08-26.26
		c-6.9-16.69-12.32-33.92-16.96-51.39c-0.62-2.34-1.46-4.61-2.34-7.33c-6.59,6.02-12.71,11.84-19.77,16.54
		c-11.43,7.61-24,12.75-36.64,17.91c-9.08,3.7-18.5,3.6-27.89,4.14c-9.81,0.56-19.69,1.02-29.47,0.12
		c-18.09-1.67-34.95-7.44-51.05-15.91c-10.52-5.53-20.19-12.11-29.12-19.87c-0.75-0.65-1.54-1.29-2.19-2.03
		c-4.94-5.62-9.88-11.28-14.55-17.09c-6.52-8.11-11.27-17.45-15.57-26.98c-4.32-9.58-7.62-19.52-10.3-29.62
		c-1.17-4.39-1.29-9.14-2.08-13.72c-0.3-1.76-0.81-2.96-2-4.27c-11.22-12.39-20.56-25.95-27.3-41.41
		c-5.12-11.75-9.84-23.6-13.62-35.82c-2.45-7.93-3.71-16.19-5.31-24.28c-1.93-9.74-3.84-19.57-4.63-29.58
		c-0.36-4.52-1.55-9.09-1.76-13.73c-0.1-2.22-1.43-3.62-3.23-4.72c-9.09-5.57-15.78-13.36-21.76-22.12
		c-5.65-8.27-10.11-16.95-11.59-26.78c-1.48-9.78-5.53-19.58-2.83-29.52c2.65-9.76,3.56-19.92,7.74-29.37
		c3.01-6.8,5.27-13.97,7.99-20.93c1.7-4.37,3.92-8.49,6.08-12.55c5.54-10.41,11.1-20.82,17.25-30.91
		c13.33-21.9,27.69-43.1,42.13-64.27c5.15-7.55,9.33-15.78,15.78-22.42C98.42,271.99,98.79,271.12,100.21,271.17z M230.23,671.73
		c-3.32,3.03-7.2,4.48-11.05,5.99c-13.96,5.47-27.6,4.25-40.98-2.02c-2.26-1.06-4.57-2.13-6.56-3.59c-2.65-1.94-4.42-1.08-6.48,0.93
		c-8.37,8.19-17.61,15.15-28.69,19.37c-1.39,0.53-2.62,1.44-3.98,2.06c-2.92,1.33-3.31,3.25-1.88,6.03c0.98,1.9,1.5,4.05,2.24,6.06
		c2.34,6.35,4.38,12.76,8.46,18.47c5.02,7.04,9.9,14.05,15.67,20.58c5.06,5.73,10.09,11.5,15.87,16.4c7.59,6.44,16.14,11.43,25,16.2
		c11.83,6.38,24.59,8.02,37.17,10c8.6,1.35,17.61,2.17,26.73,0.68c8.04-1.31,15.99-2.81,23.87-4.78c7.33-1.83,13.87-5.67,20.48-9.1
		c8.1-4.21,16-8.94,22.24-15.88c0.99-1.1,2.55-2.02,1.97-3.75c-2-6-2.36-12.4-4.63-18.32c-1.03-2.69-2.35-5.13-5.16-6.44
		c-8.44-3.93-16.84-7.93-25.27-11.88c-11.79-5.53-22.69-12.36-31.72-21.88c-1.63-1.72-3.55-2.99-5.59-4.15
		c-4.9-2.77-9.9-5.3-14.53-8.62C238.47,680.57,234.53,676.16,230.23,671.73z M429.85,761.47c1.65,1.08,3.02,0.92,4.32,0.99
		c9.98,0.51,19.94,1.26,29.96,1.15c23.95-0.27,47.35-4.15,70.5-10.04c12.53-3.19,23.86-9.23,35.48-14.55
		c3.73-1.71,7.58-3.37,10.99-5.85c12.24-8.91,25.11-16.98,36.28-27.28c6.07-5.59,11.88-11.48,16.36-18.29
		c-0.59-1.16-1.49-1.2-2.24-1.49c-12.63-4.92-24.4-11.69-35.6-19.04c-14.49-9.51-26.75-21.93-38.64-34.57
		c-1.36-1.44-2.42-3.16-3.61-4.77c-0.83-1.12-1.81-2.09-3.31-1.72c-1.37,0.34-1.55,1.6-1.63,2.79c-0.12,1.69-0.86,3.16-1.44,4.73
		c-4.71,12.5-13.11,22.68-20.85,33.25c-3.77,5.14-9.33,8.49-13.64,13.12c-3.79,4.08-8.76,6.42-13.62,8.98
		c-3.76,1.97-8.54,3.22-10,7.68c-0.86,2.61-2.26,4.4-4.12,5.96c-10.9,9.13-22.81,16.6-36.09,21.78c-3.1,1.21-6.2,2.44-9.25,3.77
		c-3.16,1.37-5.14,3.62-4.97,7.31c0.12,2.71-0.82,5.24-1.37,7.84C432.07,749.21,430.53,755.15,429.85,761.47z M642.11,679.14
		c1.21-2.35,2.24-4.84,3.68-7.05c7.77-11.92,12.07-25.24,14.57-39c2.79-15.32,5.85-30.71,3.11-46.5
		c-1.73-9.97-2.03-20.14-6.23-29.65c-8.48-19.24-20.71-34.65-40.8-42.86c-17.78-7.27-34.16-3.74-49.89,5.73
		c-6.58,3.97-11.25,10.03-15.22,16.31c-3.74,5.92-7.32,12.22-5.31,20.07c2.84,11.09,8.08,21.05,13.55,30.94
		c0.61,1.1,1.57,1.64,2.71,2.03c7.38,2.52,17.95-2.51,20.7-9.88c4.11-11.02-4.11-24.3-15.76-25.46c-0.66-0.07-1.33-0.07-1.99-0.17
		c-3.01-0.49-4.44-2.27-3.83-5.27c1.27-6.23,3.99-11.54,9.6-15.09c11.2-7.07,23.01-6.94,34.33-1.38
		c12.37,6.08,18.64,17.49,20.87,30.58c3.53,20.78-4.53,38-18.27,53.06c-1.03,1.12-2.33,1.83-3.68,2.52
		c-4.59,2.35-9.14,4.78-13.7,7.2c-2.88,1.52-3.42,2.96-1.13,4.76c4.53,3.55,7.54,8.42,11.52,12.44
		C613.8,655.5,626.96,668.18,642.11,679.14z M156.59,660.01c-9.92-14.58-13.63-29.78-8.18-46.12c5.6-16.81,17.72-26.28,35.8-27.98
		c1.03-5.12-1.4-9.76-1.11-14.89c-4.02,0.24-7.18,1.62-10.17,3.31c-5.22,2.94-9.77,6.91-14.75,10.15
		c-8.34,5.45-13.1,13.52-17.83,21.69c-4.27,7.38-5.91,15.78-8.68,23.75c-4.7,13.49-5.9,27.23-5.63,41.25
		c0.11,5.72,0.94,11.43,1.53,18.04C139.55,680.86,148.03,670.31,156.59,660.01z M194.12,640.32c4.74-0.48,8.29-1.48,11.57-3.36
		c1.55-0.89,2.5-2.49,1.97-4.23c-1.37-4.46-1.68-9.24-3.85-14.02C199.35,625.51,199.15,633.42,194.12,640.32z M180.28,608.39
		c-5.78,2.01-9.78,7.98-9.74,14.11c0.01,2.45-0.36,5.41,3.73,6.11C175.96,621.89,180.01,616.03,180.28,608.39z"/>
</g>
</svg>
