<?xml version="1.0" encoding="utf-8"?>
<!-- Generator: Adobe Illustrator 24.0.2, SVG Export Plug-In . SVG Version: 6.00 Build 0)  -->
<svg version="1.1" id="Layer_1" xmlns="http://www.w3.org/2000/svg" xmlns:xlink="http://www.w3.org/1999/xlink" x="0px" y="0px"
	 viewBox="0 0 735.48 860.65" style="enable-background:new 0 0 735.48 860.65;" xml:space="preserve">
<g>
	<path d="M349.68,839.21c-2.51-4.24-1.61-8.7-0.78-12.78c0.88-4.32,2.14-8.65,4.16-12.72c3.54-7.14,7.72-13.97,10.36-21.56
		c0.82-2.36,2.39-4.36,4.29-6.07c4.89-4.42,8.51-9.62,10.66-15.96c1.81-5.35,0.53-9.75-2.74-13.96
		c-6.27-8.05-13.47-15.2-21.17-21.88c-6.11-5.3-10.08-11.81-11.96-19.73c-1.53-6.48-2.71-6.93-9.56-7.61
		c-16.44-1.63-32.66-4.39-47.9-11.19c-1.72-0.77-3.39-1.41-5.28-1.08c-8.23,1.47-16.22,3.81-22.97,8.88
		c-7.97,5.98-16.2,11.62-23.43,18.59c-5.63,5.43-8.23,11.36-6.62,19.22c1.6,7.82,2.74,15.74,3.98,23.63
		c1.18,7.56-2.49,13.88-9.66,15.98c-12.39,3.63-23.99,8.66-34.63,16.16c-6.26,4.41-13.64,7.16-21.37,7.94
		c-14.36,1.44-28.15,4.88-41.41,10.53c-9.5,4.05-18.64,8.81-27.8,13.54c-1.15,0.6-2.08,1.74-4.16,1.07
		c-2.35-6.99,1.88-12.59,4.88-18.79c-10.69,1.9-20.99,4.05-30.29,10.87c-0.74-4.62,0.91-7.66,1.96-10.89
		c1.07-3.28,3.7-5.94,3.88-9.71c-3.41-2.41-6.77-0.38-10.12-0.21c-3.21,0.17-6.18,2.37-9.19,1.64c-0.75-1.17-0.74-1.84-0.33-2.41
		c2.72-3.8,5.54-7.53,8.87-10.8c2.73-2.69,5.8-4.95,9.62-6.06c8.34-2.42,15.58-7.55,23.95-9.94c1.12-0.32,2.04-1.14,2.72-2.12
		c1.77-2.56,4.27-4.2,7.03-5.44c3.48-1.55,5.28-4.24,6.36-7.82c2.69-8.97,1.61-17.66-0.77-26.54c-2.94-10.95-7.02-21.43-11.48-31.8
		c-1.67-3.88-1.29-8.15-2.37-12.15c-3.64-13.52,2.59-24.24,9.92-34.62c11.72-16.62,23.85-32.92,38.53-47.11
		c8.03-7.76,15.95-15.59,23.22-24.08c5.13-6,9.27-12.45,11.85-20.02c1.39-4.09,0.09-7.87,0.1-11.76
		c0.03-30.51,3.37-60.47,14.45-89.14c2.87-7.43,6.73-14.48,10.24-21.67c3.94-8.07,7.97-16.09,11.98-24.12
		c0.61-1.23,1.06-2.45,0.48-3.9c-1.38-1.18-2.79-0.28-4.14,0.15c-15.2,4.93-30.1,10.7-45.05,16.33c-3.8,1.43-7.02,3.87-9.72,6.87
		c-10.41,11.53-19.22,24.17-27.14,37.57c-5.68,9.6-9.39,19.8-12.18,30.4c-1.57,5.94-4.9,9.69-10.61,11.43
		c-2.98,0.91-5.58,2.44-7.39,4.88c-3.53,4.76-7.27,9.38-10.88,14.07c-5.51,7.14-11.35,14.23-19.33,19.72
		c-2.49-6.31-3.36-12.31-4.04-18.28c-6.44,0.53-9.35,3.54-10.26,9.45c-1.12,7.27-4.04,14.07-6.29,21.02c-1,3.1-0.33,5.03,1.44,7.19
		c2.08,2.53,4.48,4.84,6.01,8.01c-2.39,2.2-4.95,2.88-7.84,2.45c-1.68,1.29-0.59,4.16-3.25,5.04c-0.38-0.14-1.23-0.19-1.54-0.62
		c-2.97-4.17-7.43-5.52-12.08-6.13c-7.15-0.94-13.34-4.33-19.39-7.7c-3.62-2.02-6.1-5.85-7.72-9.95c-1.11-2.82-1.99-5.58-4.11-8.14
		c-2.17-2.61-2.22-7.33-0.27-10.02c4.44-6.13,5.99-13.36,8.97-20.01c3.67-8.19,5.93-16.93,8.65-25.47c1.21-3.79,3.01-7,5.82-9.71
		c8.39-8.09,16.7-16.26,24.88-24.54c8.51-8.62,17.12-17.17,24.91-26.53c8.8-10.56,17.17-21.71,29.71-28.47
		c1.72-0.93,3.38-2.32,4.52-3.89c5.44-7.44,13.34-10.5,21.87-11.66c8.85-1.21,17.03-4.53,25.53-6.77
		c12.39-3.27,24.26-8.22,36.46-12.12c5.48-1.75,9.54-5.49,11.75-10.22c3.21-6.85,8.53-9.77,15.24-11.52
		c5.47-1.43,10.89-3.02,16.33-4.57c9.37-2.68,14.19-9.35,16.78-17.96c1.92-6.38,2.9-13.01,2.7-19.73c-0.16-5.24-1.71-6.69-6.74-5.74
		c-9.64,1.82-19.33,3.52-28.65,6.71c-6.3,2.15-12.36,1.87-18.43-1.01c-8.48-4.04-16.09-9.4-23.56-14.98c-1.87-1.39-3.79-2.71-5.73-4
		c-0.99-0.65-2.1-1.15-3.25-0.35c-7.07,4.9-14.25,2.63-20.69-0.72c-14.11-7.34-22.55-19.68-26.31-34.78
		c-5.28-21.18-4.96-16.06,7.95-33.17c4.03-5.34,8.71-10.47,14.28-14.56c3.16-2.32,5.05-4.77,2.94-9.59
		c-3.31-7.54-2.54-16.01-2.91-24.1c-0.2-4.25-0.78-8.1-2.38-12.03c-6.52-15.97-4.43-32.69,10.21-43.41
		c11.01-8.07,20.16-17.75,27.06-29.63c3.32-5.72,8.19-9.89,14.92-11.72c12.51-3.41,24.89-7.32,37.41-10.7
		c20.87-5.64,40.47-14.01,58.8-25.54c12.39-7.79,25.11-15.07,37.79-22.38c8.81-5.08,17.27-10.69,25.46-16.67
		c11.1-8.11,25.9-2.34,31.36,8.45c4.29,8.48,2.67,15.87-3.68,22.33c-8.4,8.55-17.11,16.78-25.59,25.25
		c-5.9,5.9-11.3,12.22-15.45,19.51c-1.64,2.88-1.51,5.35,0.33,8.33c7.7,12.45,15.22,25.04,21.75,38.14
		c8.16,16.37,16.9,32.55,21.59,50.39c1.94,7.37,3.23,14.92,4.7,22.42c0.36,1.83-0.53,3.56-1.12,5.31
		c-4.74,14.14-12.62,26.74-19.32,39.92c-4.82,9.49-10.74,18.38-15.05,28.13c-4.6,10.4-6.38,20.93-4.07,32.44
		c3.06,15.29,7.8,29.89,14.29,44.01c1.25,2.73,2.98,4.29,6.1,3.99c0.65-0.06,1.33,0.09,1.99,0.12c11.21,0.45,20.63,3.57,28.33,12.95
		c9.79,11.92,24.08,18.07,37.66,24.78c2.67,1.32,5.47,2.41,8.14,3.78c13.2,6.79,27.12,11.65,41.26,16.11
		c9.67,3.05,16.94,10.05,21.68,18.95c7.19,13.5,15.05,26.69,20.68,40.99c2.93,7.43,5.59,14.95,8.6,22.35
		c4.88,12.01,10.45,23.76,14.78,35.96c3.32,9.37,6.34,18.91,8.57,28.66c1.67,7.28,4.47,14.24,7.63,20.97
		c3.43,7.29,3.47,8.76-2.03,14.48c-5.3,5.52-11.14,10.58-15.32,17.06c-2.72,4.22-7.01,4.11-10.71,3.37
		c-6.26-1.26-10.04,1.73-13.85,5.76c-2.85,3.02-6.2,5.51-10.09,7.15c-1.3,0.55-2.51,1.24-2.22,2.87c0.25,1.42,1.54,1.5,2.72,1.68
		c18.43,2.81,36.82,5.9,55.58,2.76c4.71-0.79,8.94-2.67,13.17-4.5c15.24-6.6,29.72-14.72,40.92-27.16
		c11.28-12.53,20.6-26.55,26.14-42.71c1.27-3.69,3.09-7.29,3.35-11.48c-4.38-0.97-8.52-1.52-12.42-2.82
		c-9.37-3.13-18.23-7.24-25.01-14.84c-2.32-2.61-3.61-5.53-3.78-9c-0.61-12.78-5.69-23.4-15.19-32.03c-3-2.73-6.44-4.77-9.79-6.87
		c-6.23-3.91-7.55-9.38-6.17-15.95c1.27-6.03,2.45-12.14,4.91-17.8c3.79-8.71,3.03-17.37-0.41-25.67
		c-5.09-12.27-9.96-24.65-16.07-36.48c-2.09-4.04-3.74-8.34-4.51-13.07c9.88,4.38,16.36,13.11,25.49,19.34
		c0.71-5.65-1.86-10.19-1.98-15.52c5.71,2.32,7.24,8.35,12.18,11.08c1.4-3.56-0.46-6.21-1.5-8.76
		c-7.77-19.09-14.83-38.47-23.21-57.31c-6.16-13.83-12.64-27.51-18.99-41.25c-1.81-3.92-3.14-8.07-5.68-11.64
		c-1.04-1.45-1.76-3.01,0.07-4.35c1.81-1.33,2.98,0.05,4.31,1.12c17.77,14.28,32.08,31.82,46.6,49.17c0.72,0.86,1.16,2.07,3.44,2.09
		c-2.64-7.38-4.48-14.72-6.63-22.42c4.27,0.02,6.69,2.35,8.86,4.72c10,10.93,19.67,22.16,27.96,34.48c1.48,2.2,2.95,3.54,5.84,2.43
		c1.64-3.57-3.11-6.56-1.3-10.25c6.12,2.7,47.73,60.71,55.85,77.81c1.28,0.54,2.5,0.38,4.02-0.64c-0.52-6.31-3.1-12.6-2.48-20.18
		c3.48,2.9,4.96,5.99,6.29,9.11c8.16,19.15,14.44,38.99,21.5,58.55c1.75,4.84,2.98,9.86,4.44,14.8c0.31,1.06,0.17,2.15,1.34,3.03
		c1.6,1.2,0.97,2.34-0.13,4.11c-6.45,10.34-15.93,18.24-22.42,28.59c-3.06,4.88-3.15,10.02-3.89,15.16
		c-1.68,11.7-6.98,20.61-18.22,25.3c-4.13,1.72-7.86,4.31-12.32,5.43c-2.01,9.96-2.8,19.93-4.8,29.71
		c-1.28,6.23-3.28,12.21-5.09,18.24c-6.33,21.1-16.95,40.13-29.77,57.85c-9.68,13.38-20.22,26.44-33.59,36.09
		c-13.39,9.67-27.14,19.09-43.08,24.84c-11.02,3.97-22.18,7.27-33.59,9.34c-10.44,1.89-21.14,2.59-31.82,2.6
		c-1.33,0-2.68-0.13-3.98,0.07c-5.43,0.83-6.46,2.13-5.65,7.46c1.4,9.24,4.16,18.16,6.39,27.21c3.41,13.88,6.59,27.81,8.17,42.06
		c0.44,4-0.45,7.56-3.26,10.58c-3.37,3.62-4.36,9.01-8.85,11.9c-0.75,0.48-0.72,2.13-1.09,3.22c-2.66,7.86-5.4,15.7-9.05,23.18
		c-0.29,0.6-0.77,1.09-2.22,1.32c-4.09-4.86-8.77-9.87-11.89-15.8c-3.47-6.58-8.21-8.43-15.34-8.08
		c-11.11,0.55-18.32,6.46-24.42,14.9c-3.5,4.84-7.12,9.54-9.95,14.86c-1.8,3.39-4.54,3-6.7-0.94c-3.21-5.86-5.53-12.1-6.82-18.68
		c-0.29-1.47-0.53-2.95-0.77-4.43c-1.58-9.79-9.44-11.89-15.76-10.44c-7.59,1.74-14.93,4.41-21.9,8.14
		C358.36,834.3,354.96,838.34,349.68,839.21z M459.8,573.43c-0.71-3.51-1.93-6.76-3.36-9.88c-2.79-6.07-4.24-12.29-2.47-18.9
		c3.69-13.84,3.85-28.02,3.8-42.15c-0.05-15.64-0.83-31.28-1.48-46.92c-0.14-3.27-0.83-6.51-2.45-9.59
		c-1.71-3.25-4.96-3.77-7.62-5.26c-13.07-7.35-26.62-13.72-40.52-19.35c-2.05-0.83-4.23-1.92-6.37-0.04
		c0.75,2.75,2.77,4.41,3.97,6.58c6.7,12.11,11.39,25.09,16.97,37.69c9.39,21.18,14.02,43.65,18.96,66.08
		c3.12,14.14,4.34,29.14,16.67,39.42c0.62,0.51,0.93,1.38,1.44,2.03C457.78,573.68,458.36,573.98,459.8,573.43z M501.6,624.7
		c6.39-13.82,4.01-27.74,2.85-41.56c-0.17-2.08-3.96-4.81-5.78-4.09c-4.65,1.85-9.32,3.95-10.89,9.37
		c-1.33,4.61-2.33,9.32-3.61,13.95c-1.13,4.06-0.57,7.76,1.79,11.23C489.79,619.22,494.59,623.38,501.6,624.7z"/>
</g>
</svg>
