<?xml version="1.0" encoding="utf-8"?>
<!-- Generator: Adobe Illustrator 24.0.2, SVG Export Plug-In . SVG Version: 6.00 Build 0)  -->
<svg version="1.1" id="Layer_1" xmlns="http://www.w3.org/2000/svg" xmlns:xlink="http://www.w3.org/1999/xlink" x="0px" y="0px"
	 width="861.09" height="717.17" viewBox="0 0 861.09 717.17" style="enable-background:new 0 0 861.09 717.17;" xml:space="preserve">
<g>
	<path d="M606.08,609.42c1.11,7.63,1.98,14.55,3.15,21.42c1.65,9.67,3.57,19.3,5.26,28.97c0.33,1.89,1.18,3.4,2.17,4.96
		c3.22,5.09,3.61,10.11-0.01,15.35c-5.62,8.12-11.93,15.61-19.4,22.07c-2.35,2.03-4.6,4.26-8.15,4.43
		c-2.59,0.12-2.93,2.98-4.06,4.67c-5.01,7.46-4.94,7.52-12.16,1.9c-1.58-1.23-3.18-2.44-4.66-3.77c-3.33-3-6.5-5.34-11.69-5.05
		c-5.09,0.28-9.8-2.89-14.55-4.87c-11.28-4.71-21.84-10.62-30.89-18.97c-6.3-5.81-9.75-12.47-8.91-21.58
		c1.2-12.96,3.42-25.75,4.99-38.64c1.25-10.24,2.64-20.47,4.02-30.7c0.36-2.66-0.44-4.09-3.1-5.34
		c-24.01-11.28-45.2-26.73-64.98-44.28c-16.05-14.25-28.11-31.48-37.77-50.45c-2.7-5.31-5.72-10.53-7.44-16.33
		c-0.45-1.52-0.76-3.28-2.64-4.5c-7.54,4.8-14.17,10.73-19.97,17.61c-7.22,8.55-13.44,17.83-19.11,27.44
		c-4.29,7.28-6.58,15.16-6.31,23.8c0.72,23.18,2.95,46.21,6.62,69.08c1.52,9.5,4.4,18.78,6.64,28.16c0.89,3.72,1.88,7.42,2.58,11.17
		c0.85,4.54-0.82,6.78-5.96,8.8c-5.74,2.26-11.73,3.68-17.61,5.47c-18.82,5.72-38.02,9.85-57.31,13.58
		c-6.78,1.31-13.67,2.94-20.72,1.18c-1.03-0.26-2.29,0.27-3.41,0.56c-9.08,2.34-18.43,2.72-27.69,3.66c-1.3,0.13-2.67,0.02-3.81-0.6
		c-1.1-0.88,0-2.42-1.25-3.27c-1.75-0.74-3.94,0.49-5.81-1.05c-0.82-1.83,0.22-3.43,1.24-4.88c6.15-8.74,14.05-15.74,23.46-20.56
		c8.3-4.26,15.48-9.85,22.02-16.2c4.64-4.5,7.14-9.88,4.32-17.12c-3.94-10.12-4.97-21.03-6.3-31.78c-0.92-7.44-2.09-14.91-2.1-22.37
		c-0.01-10.48,1.15-20.94,2.75-31.33c3.43-22.25,13.65-41.57,25.68-60.14c9.97-15.38,20.71-30.22,31.53-45.01
		c1.54-2.11,2.82-3.75-0.41-5.55c-20.99-11.68-39.2-26.81-55.62-44.28c-9.03-9.61-17.87-19.29-25-30.45
		c-2.62-4.1-2.9-4.28-6.99-1.47c-14.11,9.73-29.37,17.67-43.04,28.09c-14.66,11.18-26.95,24.75-39.42,38.15
		c-12.95,13.91-24.65,28.88-36.59,43.64c-10.71,13.24-23.81,22.73-41,25.54c-2.3,0.38-2.87,1.73-3.42,3.62
		c-2.94,10.06-5.98,20.08-9,30.12c-1.59,5.26-3.37,10.45-5.65,15.45c-0.74,1.62-1.23,3.52-3.56,4.2c-2.82-1.52-4.39-4.25-5.78-7.07
		c-6.89-13.95-10.27-28.78-10.98-44.26c-0.07-1.5-0.29-3.03-0.09-4.49c0.68-4.92-2.92-7.09-6.03-9.49c-1.68-1.3-2.98-0.26-4.25,1.12
		c-6.21,6.74-12.48,13.41-18.78,20.07c-1.58,1.67-3.05,3.53-5.29,4.42c-2.68-1.38-3.12-3.84-3.36-6.36
		c-1.82-19.15,1.54-37.47,8.92-55.12c0.73-1.75,1.22-3.25,0.79-5.22c-2.66-12.11-0.38-23.46,5.55-34.21
		c3.22-5.84,6.83-11.45,10.8-16.8c1.73-2.33,2.23-4.51,1.74-7.38c-1.33-7.85-2.51-15.76-0.85-24.04c6.81-1.69,13.57-1.02,20.12,0.88
		c3.63,1.06,6.27,0.89,8.96-1.91c4.4-4.58,9.83-7.96,14.82-11.84c2.29-1.78,3.37-3.64,3.61-6.61c0.42-5.29,1.87-10.41,3.74-15.41
		c0.88-2.36,2.66-2.7,4.74-2.81c5.86-0.31,11.16,1.7,16.28,4.14c2.19,1.05,3.75,1.02,5.98-0.03c19.71-9.25,39.23-18.92,60.03-25.63
		c15.36-4.95,29.51-12.18,41.97-22.62c1.91-1.6,2.61-3.07,2.47-5.47c-0.25-4.48-0.65-8.95-0.33-13.47
		c1.01-14.36,6.35-27.13,14.37-38.82c10.67-15.55,22.55-30.13,36.01-43.38c2.3-2.26,3.32-4.17,1.93-7.76
		c-7.83-20.15-14.22-40.82-21.87-61.04c-4.18-11.04-7.49-22.4-11.22-33.61c-3.61-10.86-8.02-21.44-11.17-32.46
		c-1.46-5.12-3.21-10.15-4.78-15.24c-0.49-1.59-1.12-3.35,0.37-4.67c1.64-1.45,3.05-0.1,4.5,0.7c8.53,4.73,15.62,11.38,22.85,17.73
		c7.37,6.47,14.76,12.92,22.17,19.34c9.05,7.85,18.03,15.78,27.07,23.65c9.79,8.53,19.64,16.99,29.39,25.57
		c4.37,3.85,8.59,7.88,12.83,11.88c1.63,1.54,3.07,1.99,5.31,0.86c14.17-7.14,29.14-12.02,44.48-15.97
		c19.98-5.14,40.25-7.92,60.82-6.5c13.23,0.91,26.45,2.64,39.36,6.13c16.7,4.52,33.4,9.02,49.33,15.88
		c4.73,2.03,9.28,4.49,13.79,6.98c2.54,1.4,4.48,1.22,6.8-0.58c21.73-16.82,43.34-33.82,65.41-50.2
		c12.96-9.62,25.64-19.6,38.73-29.07c11.57-8.36,23.3-16.6,34.42-25.62c3.17-2.58,6.64-4.78,10.79-6.16
		c1.68,3.31,0.49,6.19-0.48,8.87c-4.8,13.28-9.78,26.49-15.26,39.52c-6.69,15.92-12.72,32.12-19.52,47.99
		c-3.21,7.49-6.33,15.01-9.39,22.56c-3.94,9.7-7.7,19.47-11.69,29.14c-3.92,9.52-7.84,19.05-12.11,28.43
		c-2.15,4.72-1.67,8.35,1.96,12.13c17.14,17.88,28.18,39.41,36.85,62.32c0.06,0.16,0.2,0.31,0.2,0.45
		c-0.39,9.38,6.74,13.14,13.26,16.84c10.32,5.85,19.54,13.3,29.59,19.49c11.76,7.25,23.61,14.33,35.37,21.58
		c1.99,1.23,3.96,1.47,6.18,1.31c4.82-0.33,9.65-0.75,14.47-0.76c7.14-0.02,8.79,1.4,8.48,8.48c-0.24,5.57,1.45,9.2,6.23,12.39
		c7.05,4.7,13.99,9.63,20.46,15.17c2.41,2.06,5.21,3.17,8.69,2.92c4.8-0.35,9.65-0.19,14.47,0.32c3.22,0.34,4.84,1.98,4.72,5.22
		c-0.15,4.32-0.17,8.67-0.62,12.96c-0.23,2.19,0.17,3.87,1.51,5.53c7.87,9.72,13.26,20.65,16.26,32.81
		c1.68,6.83,2.53,13.76,2.45,20.76c-0.03,2.7,0.15,5.19,0.87,7.8c5.3,19.08,7.93,38.47,5.95,58.3c-0.58,5.81-1.59,11.56-6.53,16.18
		c-9.28-10.25-15.97-22.13-23.93-33.42c-4.34,3.74-8.69,6.75-13.51,9.01c-1.65,0.77-1.83,2.09-1.95,3.68
		c-1.31,16.78-6.26,32.29-16.26,46c-0.39,0.54-0.69,1.15-1.14,1.64c-1.29,1.43-2.04,3.83-4.42,3.59c-2.45-0.25-2.67-2.72-3.39-4.5
		c-5.24-12.99-8.72-26.53-12.53-39.97c-0.18-0.63-0.37-1.34-0.27-1.97c1.02-6.46-2.16-9.47-7.96-11.87
		c-10.85-4.49-19.68-12.32-29.09-19.19c-17.88-13.03-29.92-31.12-42.93-48.38c-11.03-14.63-21.74-29.52-34.48-42.77
		c-6.23-6.48-13-12.39-20.16-18.38c-4.96,5.18-8.67,11.13-13.4,16.24C608.49,390,587.36,410.19,561.64,425
		c-3.75,2.16-7.14,4.94-10.94,6.99c-3.08,1.66-3.2,3.61-1.42,6.01c6.9,9.29,11.53,19.87,16.68,30.1
		c7.16,14.24,13.8,28.76,18.54,44.09c1.58,5.11,2.93,10.25,3.9,15.45c1.24,6.65,4.8,11.6,9.86,15.66
		c22.33,17.91,46.74,31.85,74.65,39.13c7.07,1.84,14.1,3.85,21.31,5.15c0.16,0.03,0.33,0.04,0.49,0.1c2.3,0.82,5.23,1.06,5.81,3.99
		c0.58,2.95-1.98,4.46-3.92,5.89c-1.71,1.26-3.75,2.26-5.79,2.84c-15.25,4.29-30.67,7.39-46.57,8.45
		C631.78,609.66,619.37,610.17,606.08,609.42z"/>
</g>
</svg>
