<?xml version="1.0" encoding="utf-8"?>
<!-- Generator: Adobe Illustrator 24.0.2, SVG Export Plug-In . SVG Version: 6.00 Build 0)  -->
<svg version="1.1" id="Layer_1" xmlns="http://www.w3.org/2000/svg" xmlns:xlink="http://www.w3.org/1999/xlink" x="0px" y="0px"
	 width="860.92" height="675.04" viewBox="0 0 860.92 675.04" style="enable-background:new 0 0 860.92 675.04;" xml:space="preserve">
<g>
	<path d="M256.18,382.6c-9.92,2.47-19.52,3.21-29.17,1.97c-16.46-2.11-30.33-8.88-40.95-22.15c-8.18-10.22-10.26-21.76-8.97-34.19
		c0.97-9.3,6.59-15.93,14.25-20.59c4.34-2.64,9.36-1.75,14,0.12c5.6,2.26,10.58,5.61,15.57,8.94c9.67,6.45,18.57,14.18,29.77,18.11
		c1.1,0.39,2.18,0.81,3.29,1.15c0.28,0.09,0.64-0.05,1.39-0.13c0.88-4.21,2.53-8.42,3.42-12.73c1.82-8.79,5.64-16.7,9.65-24.53
		c7.35-14.37,17.59-26.64,28.75-38.17c18.83-19.45,40.83-34.76,64.29-47.9c16.71-9.35,34.67-16.03,52.88-21.95
		c12.23-3.98,24.87-6.2,37.44-8.45c16.45-2.95,33.05-1.81,49.72-0.61c15.34,1.11,30.39,3.17,45.3,6.73c3.61,0.86,5.8-0.92,5.93-4.71
		c0.09-2.84-0.41-5.6-1.44-8.31c-8.66-22.87-20.44-44-34.49-64.01c-6.93-9.87-14.41-19.16-22.98-27.57
		C483,73.02,471.51,63.26,458.45,55.29c-11.68-7.13-23.43-13.89-36.41-18.42c-11.16-3.9-22.5-7.15-33.77-10.68
		c-14.75-4.61-29.99-5.97-45.19-7.61c-7.77-0.84-15.54-1.91-23.39-2.04c-14.31-0.24-28.57,0.34-42.87,0.98
		c-23.04,1.03-44.51,7.49-65.63,15.94c-11.44,4.58-22.69,9.59-33.39,15.72c-8.67,4.97-16.49,11.25-24.81,16.74
		c-10.44,6.89-19.95,14.94-29.88,22.47c-0.93,0.7-1.9,1.38-2.7,2.21c-9.72,10.04-20.31,19.37-28.21,30.98
		c-7.95,11.68-16.42,23.15-22.28,36.06c-6.86,15.1-11.25,31.12-10.77,47.78c0.29,9.87,2.69,19.71,8.16,28.47
		c11.15,17.84,24.44,34.08,37.45,50.54c5.89,7.45,11.93,15.06,16.06,23.39c6.52,13.14,12.26,26.76,14.03,41.8
		c0.91,7.73,0.04,15.26,0.29,22.87c0.13,3.94-1.47,7.52-2.88,11.05c-4.09,10.2-8.03,20.56-17,27.77
		c-13.25,10.66-28.01,16.46-45.31,13.71c-23.32-3.7-39.97-17.02-52.19-36.54c-2.73-4.36-5.39-8.82-7.48-13.5
		c-6.15-13.76-9.73-28.17-10.11-43.33c-0.34-13.49-0.5-26.9,3.1-40.11c4.46-16.36,9.33-32.51,16.12-48.14
		c5.76-13.24,9.93-27.17,15.42-40.54c3.03-7.37,5.39-15.03,9.16-22.11c1.78-3.35,3.01-6.95,3.93-10.73
		c1.77-7.27,4.71-14.16,8.62-20.58c2.68-4.41,4.67-9.19,7.03-13.77c4.02-7.78,9.41-14.46,14.72-21.27
		c4.38-5.62,8.42-11.55,13.21-16.81c5.37-5.9,11.48-11.12,17.15-16.76c10.9-10.84,23.74-19.29,35.54-29.01
		c5.35-4.41,11.51-7.91,17.55-11.39c8.04-4.64,16.29-8.91,24.51-13.24c15.81-8.33,32.44-14.23,49.91-18.34
		c16.92-3.99,34.11-5.78,51.23-7.98c15.82-2.03,31.84,0,47.77,0.56c18.99,0.67,37.05,5.99,55.3,10.33
		c14.89,3.54,29.49,8.18,43.35,14.77c7.04,3.35,14.04,6.87,20.75,10.83c6.42,3.79,13.52,6.04,20,9.66c3.41,1.9,6.55,3.93,8.94,7
		c0.73,0.93,1.46,1.77,2.44,2.46c14.43,10.1,26.95,22.24,37.74,36.12c4.48,5.76,7.98,12.2,11.81,18.41
		c5.59,9.08,10.09,18.73,14.49,28.38c5.5,12.06,10.24,24.47,15.32,36.72c1.21,2.91,0.85,6.28,2.91,9.51
		c1.68-3.99,2.66-7.85,3.95-11.54c7.44-21.26,18.32-40.58,32.28-58.19c5.08-6.41,11.68-11.33,17.44-17.07
		c9.25-9.19,20.23-16.22,30.4-24.24c8-6.3,17.21-10.99,26.93-13.84c5.59-1.64,11.46-3.31,17.58-3.05c5.98,0.25,11.9-1.48,17.91-0.93
		c15.82,1.46,29.34,8.15,40.8,18.86c10.33,9.66,17.39,21.83,24.5,33.9c9.99,16.97,17.36,35.21,25.38,53.12
		c4.28,9.56,7.06,19.7,10.15,29.71c2.06,6.64,5.55,12.75,7.03,19.65c3.27,15.27,8.88,30.03,10.58,45.64
		c1.27,11.75,3.45,23.35,5.28,35c0.57,3.63,0.13,7.3,0.34,10.96c0.67,11.95,3.17,23.74,2.79,35.78
		c-0.51,15.97,0.57,31.96-0.27,47.93c-1.09,20.64-0.86,41.25,1.21,61.85c0.9,8.99,3.02,17.72,4.84,26.52
		c3.46,16.75,8.17,33.22,11.06,50.12c2.29,13.38,3.32,26.75,1.9,40.2c-1.37,13.02-3.55,25.82-8.14,38.34
		c-4.28,11.67-8.93,23.07-16.28,32.95c-9.41,12.65-20.63,23.96-35.44,30.02c-13.68,5.6-28.02,10.04-43.24,6.34
		c-8.72-2.12-16.45-6.36-23.19-12.27c-10.41-9.14-19.91-18.86-26.19-31.66c-8.58-17.46-8.94-34.72-2.06-52.63
		c6.69-17.42,17.7-31.96,29.73-45.85c4.14-4.78,7.81-9.93,12.07-14.63c12.07-13.33,23.78-26.98,35.76-40.39
		c7.21-8.07,14.77-15.79,20.54-25.07c8.28-13.33,13.35-27.78,16.66-43.05c2.45-11.34,2.07-22.83,2.96-34.25
		c1.1-13.95,1.25-27.93,0.63-41.89c-0.55-12.47-1.29-24.96-2.75-37.35c-1.63-13.85-4.2-27.58-6.28-41.38
		c-1.06-7.04-1.93-14.07-3.43-21.07c-1.5-7.01-3.1-14-5.43-20.71c-7.7-22.11-14.57-44.5-24.9-65.7
		c-5.54-11.36-11.14-22.64-17.77-33.36c-9.64-15.59-22.38-28.25-38.87-36.38c-9.2-4.54-19.39-5.2-29.63-2.82
		c-16.02,3.73-30.4,11.08-43.07,21.16c-27.41,21.8-50.45,47.25-63.75,80.43c-2.82,7.03-4.26,14.31-6.32,21.48
		c-0.85,2.94-0.03,5.09,3.03,6.41c4.88,2.11,9.69,4.41,14.45,6.78c10.03,4.98,19.02,11.43,26.85,19.47c0.58,0.6,1.16,1.25,1.86,1.66
		c11.83,6.86,18.07,18.78,26.43,28.82c10.48,12.58,16.32,27.45,21.32,42.57c3.2,9.68,5.3,19.78,5.83,30.27
		c0.47,9.16,1.42,18.21-0.16,27.31c-1.79,10.31-3.89,20.56-7.57,30.39c-1.04,2.77-2.81,5.28-4.31,7.87c-0.9,1.56-1.23,3.2-0.3,4.73
		c0.96,1.58,2.68,1.08,4.11,0.86c23.05-3.58,46.19-6.46,69.32-9.4c16.91-2.15,33.25-0.04,48.4,8.34c3.35,1.85,6.53,3.97,9.1,6.9
		c6.01,6.85,6.39,15.01,4.16,23.04c-3.39,12.21-9.12,23.14-20.17,30.55c-6.79,4.56-13.6,9.22-21.06,12.37
		c-9.11,3.85-19.01,4.8-28.93,4.3c-11.56-0.58-22.63-3.58-33.53-7.27c-12.88-4.35-25.89-8.4-37.55-15.55
		c-1.35,1.52-0.12,2.39,0.46,3.26c8.73,13.21,10.13,28.1,8.96,43.2c-0.54,7.03-2.45,14.05-8.53,19.29
		c-4.99,4.3-10.16,5.88-16.47,4.82c-12.57-2.1-21.47-9.29-27.94-19.9c-7.66-12.57-14.68-25.4-16.28-40.41
		c-0.12-1.15-0.2-2.36-1.42-3.13c-0.41,0.09-1,0.04-1.35,0.31c-7.35,5.66-16.18,8.41-24.35,12.45c-4.05,2-8.33,3.35-12.51,4.95
		c-18.21,6.96-36.71,12.89-56.27,14.68c-2.1,0.19-3.07,0.93-4.11,2.76c-2.03,3.58-3.87,7.38-7.45,9.87
		c-8.26,5.74-18.49,4.65-24.9-3.6c-3.12-4.01-6.28-5.01-11-4.54c-8.97,0.91-18.05,0.01-26.89-0.88
		c-10.82-1.09-21.77-2.31-32.42-5.05c-9.33-2.4-19.19-3.39-27.99-7.01c-12.26-5.04-25.01-9.07-36.6-15.75
		c-3.02-1.74-6.4-2.84-9.44-4.54c-9.41-5.29-18.46-11.1-26.43-18.49c-5.49-5.09-11.16-9.95-16.48-15.26
		c-7.55-7.53-12.67-16.66-18.32-25.44C260.53,400.72,258.7,391.82,256.18,382.6z"/>
</g>
</svg>
