<?xml version="1.0" encoding="utf-8"?>
<!-- Generator: Adobe Illustrator 24.0.2, SVG Export Plug-In . SVG Version: 6.00 Build 0)  -->
<svg version="1.1" id="Layer_1" xmlns="http://www.w3.org/2000/svg" xmlns:xlink="http://www.w3.org/1999/xlink" x="0px" y="0px"
	 width="860.43" height="820" viewBox="0 0 860.43 820" style="enable-background:new 0 0 860.43 820;" xml:space="preserve">
<g>
	<path d="M465.02,780.68c-5.71,3-10.55,6.54-14.28,11.31c-5.22,6.67-11.61,12.33-16.03,19.72c-3.7,6.18-10.37,7.35-16.95,8.05
		c-3.99,0.43-7.99,0.26-11.98-0.12c-1.46-0.14-3.13-0.41-4.27-1.23c-5.77-4.16-12.08-7.54-16.74-13.27
		c-4.6-5.66-9.16-11.39-14.02-16.83c-4.6-5.14-7.16-11.56-11.3-16.99c-4.96-6.51-10.09-12.74-16.71-17.71
		c-2.65-1.99-4.65-1.76-7.2-0.2c-4,2.45-7.27,5.82-11.12,8.42c-15.16,10.23-26.43,24.63-39.38,37.19
		c-6.97,6.76-14.49,6.5-21.98,3.64c-6.85-2.62-13.62-6.43-15.93-14.65c-0.71-2.53-0.84-4.76-0.05-7.27
		c2.18-6.94,6.23-12.89,10.08-18.88c7.02-10.9,14.43-21.55,21.8-32.22c2.22-3.21,3.03-7.02,5.02-10.31c0.8-1.32,0.17-2.61-0.61-3.73
		c-2.42-3.45-3.82-7.37-5.3-11.78c-5.19-0.08-10.44-0.91-15.63-1.98c-9.38-1.94-18.72-4.48-25.25-12.02
		c-7.73-8.93-15.01-18.28-20.47-28.86c-2.72-5.28-2.82-10.53,0.48-15.65c1.71-2.66,3.31-5.4,5.16-7.96c1.8-2.5,2.84-5.27,3.58-8.18
		c0.71-2.79,0.2-4.74-2.46-6.75c-3.59-2.71-7.46-5.01-10.95-7.75c-5.99-4.7-11.44-10.11-16.35-15.96
		c-6.21-7.39-12.05-15.08-17.64-22.95c-0.48-0.68-1.16-1.33-1.33-2.09c-1.28-5.84-5.48-6.31-10.54-6.7
		c-16.6-1.26-33.23-1.19-49.84-1.62c-11.2-0.29-23.32-14.74-19.9-27.55c2.84-10.61,8.98-16.78,19.01-20.47
		c18.24-6.69,36.35-13.75,53.45-23.09c3.64-1.99,6.77-4.77,7.83-9.2c2.35-9.88,3.57-19.95,5.21-29.96
		c1.44-8.76-3.59-14.22-8.57-19.65c-5.11-5.57-9.24-11.75-13.25-18.04c-2.37-3.72-2.82-7.93-2.59-12.46
		c0.33-6.36,1.57-12.53,2.54-18.77c0.67-4.34,2.7-7.9,5.92-10.69c2.28-1.97,3.03-4.18,2.66-7.06c-0.98-7.46-1.49-15.16-0.21-22.4
		c2.67-15.15,7.55-29.61,19.58-40.44c1.85-1.67,4.19-2.62,5.82-4.64c1.47-1.83,3.82-3.5,2.75-5.95c-1.19-2.74-3.62-4.74-6.81-5.24
		c-2.85-0.44-5.62,0.18-8.39,0.9c-5.96,1.54-11.86,3.26-17.96,4.25c-7.6,1.24-14.56-0.19-20.94-4.33
		c-15.25-9.9-29.18-21.49-42.71-33.61c-9.18-8.22-18.65-16.11-27.89-24.27c-9.99-8.81-19.93-17.66-29.32-27.13
		c-10.53-10.62-21.45-20.88-32.35-31.13c-4.1-3.86-7.19-8.28-9.34-13.4c-4.42-10.55,2.07-20.72,13.43-21.3
		c3.89-0.2,7.7,0.23,11.37,1.32c18.17,5.4,36.81,8.9,55.01,14.32c21.99,6.55,44.17,12.47,66.1,19.26
		c10.8,3.34,21.93,5.67,32.63,9.27c8.79,2.96,18.32,3.74,25.95,9c0.74-0.27,1.17-0.28,1.34-0.5c5.95-7.89,7.28-8.1,16.81-5.18
		c4.81,1.47,9.4,3.25,13.79,5.66c1.45,0.8,3.01,1.47,5,1c1.88-3.06,1.79-6.5,1.35-9.97c-1.02-7.93-2.46-15.79-2.72-23.82
		c-0.35-10.75,7.32-26.03,21.44-29.03c5.19-1.1,10.16-3.04,15.47-3.86c7.52-1.15,14.27-0.07,21.18,3.39
		c11.6,5.8,23.64,10.7,34.64,17.68c4.91,3.11,8.83,7.59,14.2,10.09c1.8,0.84,3.46,1.94,5.43,2.3c1.15-1.28,0.57-2.59,0.18-3.82
		c-3.02-9.72-5.19-19.62-6.65-29.69c-0.34-2.31-0.24-4.39,1.53-5.98c6.38-5.74,12.99-11.11,22.3-10.77c5.41,0.2,10.41,2.24,15.3,4.2
		c17.44,7,34.86,14.08,51.94,21.96c11.16,5.15,18.96,14.01,25.83,23.7c5.17,7.29,11.56,13.07,18.29,18.88
		c11.74,10.12,26.04,14.31,39.81,20.05c4.63,1.93,7.77,0.83,11.56-1.02c11.14-5.44,21.22-12.48,30.95-20.06
		c4.69-3.66,6.77-8.36,6.44-14.32c-0.47-8.32-0.86-16.63-2.05-24.88c-1.13-7.8-0.6-15.28,4.55-21.81c1.05-1.33,2.18-2.47,3.62-3.37
		c14.96-9.34,30.2-18.2,45.59-26.82c11.94-6.69,24.87-11.15,36.96-17.45c6.05-3.16,11.92-6.65,17.94-9.88
		c19.05-10.24,37.97-20.71,57.23-30.54c17.75-9.05,35.61-17.98,54.49-24.56c3.92-1.37,8.03-2.14,11.83-3.9
		c1.71-0.79,3.5-0.65,5.37-0.2c12.85,3.08,17.87,13.73,17.22,25.69c-0.31,5.66-2.61,10.39-6.57,14.68
		c-5.64,6.1-10.63,12.8-15.97,19.2c-11.21,13.45-24.01,25.42-35.89,38.24c-8.83,9.53-17.62,19.09-26.35,28.71
		c-8.5,9.37-17.77,18.02-26.08,27.57c-6.99,8.03-14.2,15.87-21.19,23.9c-4.81,5.53-10.9,9.83-15.11,15.92
		c-4.29,6.2-9.48,11.58-14.87,16.81c-1.91,1.86-3.85,2.78-6.56,2.94c-5.52,0.31-11.03,0.01-16.47-0.43
		c-7.15-0.58-14.31-0.18-21.44-0.76c-3.18-0.26-5.39,0.99-7.27,3.42c-5.81,7.53-10.5,15.72-14.72,24.03
		c0.48,1.92,1.94,2.63,3.3,3.04c6.9,2.11,12.03,6.96,17.65,11.09c3.92,2.88,6.34,6.69,8.17,11.1c3.77,9.1,8.3,17.8,14.34,25.64
		c0.71,0.92,1.38,2.03,2.35,2.55c7.87,4.28,14.89,10.05,23.35,13.34c2.04,0.79,3.65,0.17,5.14-0.89
		c6.53-4.65,13.82-7.99,20.69-12.03c5.38-3.16,8.14-3.31,12.44,1.06c5.22,5.31,10.48,10.49,13.85,17.51
		c2.1,4.39,5.12,8.54,7.97,12.63c3.65,5.24,5.91,11.15,8.52,16.89c2.86,6.3,2.04,12.13-2.52,17.63c-4.49,5.41-6.88,11.33-4.54,18.81
		c2.74,8.72,4.89,17.63,7.71,26.34c1.49,4.61,3.19,5.7,7.9,5.97c18.6,1.07,37.19,0.13,55.79-0.05c8.31-0.08,16.63,0.7,24.94,1.05
		c1.99,0.08,3.99,0.02,5.99-0.02c13.17-0.31,26.05,6.97,29.82,17.63c3.02,8.55,2.45,17.51-0.42,25.98c-2.05,6.05-8.07,8.39-13.59,10
		c-9.24,2.69-18.52,5.34-27.99,7.27c-11.58,2.36-23.25,4.12-34.85,6.25c-4.74,0.87-9.39,2.22-14.11,3.23
		c-2.53,0.54-3.62,1.87-3.63,4.49c-0.06,16.57-3.84,32.65-6.62,48.85c-0.76,4.45-2.96,8.46-7.34,10.8
		c-2.35,1.25-4.36,3.02-6.29,4.89c-1.77,1.72-3.83,3.6-6.55,2.9c-3.47-0.9-4.76,1.44-5.43,3.73c-3.24,11.06-8.12,21.45-12.62,32
		c-2.76,6.47-2.65,12.94-0.35,19.4c3.09,8.66,3.06,16.58-2.93,24.38c-4.34,5.65-8.07,11.63-13.65,16.33
		c-4.04,3.4-7.08,7.95-10.85,11.7c-7.62,7.56-11.69,7.56-19.9,3c-5.82-3.23-11.73-6.29-17.62-9.4c-0.56-0.3-1.24-0.37-1.78-0.52
		c-6.5,5.83-7.63,14.91-2.91,21.73c12.58,18.2,27.56,34.13,44.81,47.98c8.58,6.89,15.27,15.83,24.09,22.49
		c1.06,0.8,2.03,1.74,3.08,2.55c6.42,4.94,7.04,6.43,4.62,13.93c-3.57,11.05-10.79,19.01-21.33,23.78
		c-3.95,1.79-7.97,0.5-11.42-1.68c-9.98-6.3-20.31-12.01-30.01-18.8c-8.42-5.9-17.69-10.57-26.99-15
		c-9.6-4.57-19.42-8.69-29.08-13.13c-3.79-1.74-7.67-1.69-11.75-1.54c-2.87,6.14-4.75,12.48-6.85,18.74
		c-1.88,5.61-5.05,10.29-9.3,14.55c-11.83,11.84-24.92,22.02-38.9,31.13c-5.41,3.53-11.45,6-16.48,10.26
		c-2.53,2.15-6.37,1.7-9.52,2.7c-5.66,1.8-11.57,0.89-17.31,2c-2.15,0.41-4.78-0.86-7-2.19c-12.34-7.38-20.18-18.03-23.66-31.94
		C465.84,781.96,465.51,781.56,465.02,780.68z M237.61,238.59c1.41-1.68,0.44-3.88,1.12-5.69c1.34-3.57-0.13-6.08-2.78-8.24
		c-2.58-2.1-5.03-4.33-7.27-6.8c-0.71-0.78-1.45-1.91-3.2-1.06c0.84,4.78,1.6,9.66,2.56,14.5
		C229.06,236.42,232.26,238.92,237.61,238.59z"/>
</g>
</svg>
