<?xml version="1.0" encoding="utf-8"?>
<!-- Generator: Adobe Illustrator 24.0.2, SVG Export Plug-In . SVG Version: 6.00 Build 0)  -->
<svg version="1.1" id="Layer_1" xmlns="http://www.w3.org/2000/svg" xmlns:xlink="http://www.w3.org/1999/xlink" x="0px" y="0px"
	 width="861.11" height="689.45" viewBox="0 0 861.11 689.45" style="enable-background:new 0 0 861.11 689.45;" xml:space="preserve">
<g>
	<path d="M187.59,614.83c-2.01-0.74-2.52,0.43-3.17,1.7c-2.4,4.65-3.69,9.64-4.61,14.73c-2.06,11.32-3.64,22.67-3.34,34.24
		c0.13,5.03-0.86,9.97-3.25,14.49c-3.17,5.99-9.18,8.05-15.2,4.92c-5.49-2.85-9.02-7.31-9.37-13.76c-0.67-12.57,0.7-24.9,4.13-37.05
		c2.73-9.64,6.01-19,11.14-27.67c1.95-3.3,3.73-6.67,6.22-9.63c1.45-1.72,2.9-3.54,3.5-6.2c-3.35-0.47-5.26,1.56-6.98,3.37
		c-9.68,10.26-17.23,21.95-23.41,34.62c-3.58,7.35-6.66,14.86-9.25,22.6c-0.9,2.68-2.26,5.21-4.06,7.43
		c-3.95,4.86-10.95,5.19-15.42,0.78c-5.83-5.76-6.36-12.92-5.23-20.44c2.65-17.71,12-31.85,23.96-44.57
		c4.46-4.74,9.4-8.95,14.39-13.1c0.26-0.21,0.53-0.41,0.75-0.66c1.91-2.23,4.94-4.34,3.18-7.68c-1.69-3.19-4.79-1.15-7.23-0.76
		c-7.35,1.17-13.72,4.7-20.16,8.28c-11.59,6.44-22.48,14.36-35.77,17.39c-3.74,0.85-7.28,0.61-10.81-0.54
		c-6.95-2.26-9.61-8.63-6.15-15.16c3.37-6.35,8.65-10.94,14.8-14.5c15.09-8.75,31.67-13.73,48.13-19.06
		c10.17-3.29,20.72-4.89,31.08-7.28c6.77-1.56,13.88-1.6,20.84-2.34c1.13-0.12,2.26-0.29,3.3-0.43c0.22-1.26-0.44-1.72-1.2-2.14
		c-15.44-8.69-20.46-22.85-20.53-39.5c-0.02-4.67,0.89-9.28,2.38-13.72c2.65-7.88,14.47-13.27,22.62-6.07
		c5.38,4.76,8.26,11.26,10.06,18.04c2.92,11.04,6.65,21.66,13.81,30.72c8.72,11.04,20.33,14.37,33.83,12.12
		c11.56-1.93,22.28-6.67,33.39-10.11c10.49-3.25,20.69-7.54,31.51-9.62c10.44-2.01,20.84-4.45,31.52-4.93
		c6.19-0.28,12.32,0.43,18.38,1.56c2.93,0.54,5.66,1.74,8.18,3.51c5,3.53,6.41,6.96,4.66,12.81c-0.47,1.58-1.19,3.11-1.98,4.56
		c-6.35,11.7-12.75,23.37-19.14,35.05c-2.11,3.85-3.35,8-3.93,12.31c-0.66,5,1.49,7.59,6.49,7.86c3.67,0.2,7.15-0.26,10.67-1.84
		c9.03-4.06,16.93-9.52,24.69-15.74c10.7-8.58,20.17-18.41,30.58-27.2c7.09-5.98,15.03-11.01,22.49-16.6
		c4.41-3.31,5.55-5.32,4.37-10.51c-3.22-14.14-7.76-27.88-12.53-41.56c-3.17-9.1-5.45-18.5-8.34-27.7
		c-2.74-8.73-5.76-17.37-8.62-26.07c-1.46-4.45-5.84-5.01-9.27-7.38c-1.46,1.95-1.09,4.97-3.58,5.82c-2.46,0.85-4.99,0.22-7.37-0.53
		c-7.8-2.47-15.8-1.98-23.75-1.52c-3.96,0.23-7.87,1.33-11.9,1.16c-2.68-0.11-4.86,1.31-6.8,2.82c-5.77,4.48-11.97,4.05-17.91,1.14
		c-8.73-4.29-17.75-6.31-27.44-6c-13.84,0.45-27.07-3.13-40.28-6.65c-5.27-1.4-9.59-4.54-13.19-8.65
		c-5.05-5.78-5.24-12.01-0.5-18.14c2.67-3.45,5.94-6.28,9.26-9.07c5.58-4.67,5.86-9.45,0.83-14.88c-3.44-3.71-7.54-6.72-12.23-8.47
		c-9.96-3.72-19.94-7.47-30.15-10.39c-12.77-3.65-25.63-6.99-38.31-10.98c-16.69-5.24-33.69-9.45-51.09-11.24
		c-16.24-1.67-35.32,5.52-42.85,22.25c-1.77,3.94-4.1,7.62-6.13,11.45c-3.35,6.34-9.14,8.56-15.75,8.84
		c-6.31,0.27-12-5.72-12.36-12.72c-0.42-8.17,1.67-15.77,5.34-23.07c6.7-13.29,16.44-23.72,28.91-31.72
		c1.55-0.99,2.98-2.13,4.16-3.56c0.76-0.92,1.5-1.87,0.9-3.14c-0.71-1.51-2.09-1.54-3.44-1.3c-4.44,0.79-8.65,2.35-12.8,4.07
		c-11.53,4.78-20.78,12.45-28.34,22.26c-3.05,3.97-6.56,7.57-9.99,11.14c-8.54,8.86-22.65,8.29-28.3,0.31
		c-4.29-6.06-3.85-12.67-0.81-18.97c4.93-10.24,12.47-18.44,21.38-25.39c13.52-10.55,29.12-16.48,45.58-20.54
		c4.06-1,8.16-1.57,12.28-2.13c1.69-0.23,3.84-0.16,4.03-2.82c-1.13-1.89-3.2-1.53-4.87-1.92c-9.75-2.29-19.55-1.01-29.3,0
		c-8.49,0.88-16.62,3.36-24.57,6.38c-5.28,2-9.88,5.43-15.27,7.3c-5.29,1.83-10.4,3.12-16.03,1.08C3.94,266.07-0.09,261.01,0,253.16
		c0.08-7.03,2.49-12.91,8.93-16.79C19.51,230,31,226.47,43.09,224.44c8.09-1.36,16.18-2.26,24.36-1.65
		c14.32,1.07,28.43,3.01,41.55,9.52c5.18,2.57,11.09,3.63,15.69,7.47c0.68,0.57,1.55,0.65,2.29,0.03c1.19-0.97,0.71-2.1,0.16-3.15
		c-3.2-6.12-7.48-11.41-12.64-15.95c-11.35-9.99-24.21-16.88-39.3-19.4c-6.29-1.05-12.12-3.4-17.28-7.35
		c-6.19-4.73-6.85-11.21-5.6-18.01c1.19-6.48,6.14-9.66,12.04-11.37c10.8-3.12,20.95-1.08,30.94,3.69
		c14.75,7.05,27.18,17.4,39.61,27.64c9.83,8.09,16.62,19,23.98,29.28c4.66,6.5,8.82,13.29,11.78,20.78c0.87,2.19,1.77,4.73,4.34,5.8
		c2.34-0.63,2.27-2.67,2.78-4.35c2.25-7.31,3.88-14.78,7.12-21.81c3.91-8.48,10.08-14.36,18.61-17.82c4.44-1.8,9.11-2.13,13.66-0.37
		c7.14,2.77,10.67,6.49,11.26,17.08c0.41,7.44-1.51,14.56-5.43,21c-5.3,8.71-9.19,18.02-12.43,27.68
		c-5.58,16.65,0.71,27.61,14.95,34.61c12.79,6.29,26.41,10.92,39.7,16.18c8.51,3.36,17.1,6.49,24.86,11.49
		c4.32,2.78,9.16,4.6,13.46,7.52c4.93,3.34,9.14,7.27,12.45,12.11c3.58,5.23,4.48,11.09,2.52,17.16c-1.56,4.82-4.27,9.06-7.8,12.66
		c-3.39,3.45-5.46,7.43-6.55,12.1c-1.63,6.94,2.3,12.63,9.52,13.18c4.32,0.33,8.66,0.42,12.99,0.42c3.18,0.01,6.3,0.12,9.4,0.92
		c2.53,0.65,4.93-0.02,7.3-0.96c8.19-3.26,16.39-6.49,24.62-9.65c2.64-1.02,5.33-1.92,8.16-2.3c3.09-0.42,5.78,0.02,8.37,2.14
		c2.68,2.2,5.83,3.85,8.84,5.62c1.54,0.91,3.38,2.24,4.98,0.51c1.89-2.04-0.39-3.29-1.5-4.52c-4.14-4.59-8.12-9.27-10.71-14.97
		c-2.98-6.56-4.5-13.58-6.34-20.48c-4.25-15.94-7.5-32.05-8.3-48.62c-1.19-24.59,3.23-48.04,13.43-70.44
		c1.86-4.09,3.8-8.15,5.54-12.27c2.68-6.33,7.3-11.09,11.64-16.1c2.22-2.57,4.59-2.42,9.17,0.17c5.35-8.09,13.1-13.99,19.8-20.9
		c1.75-1.81,3.56-3.56,5.86-4.6c3.25-1.47,4.23-4.03,3.78-7.32c-0.75-5.46-0.89-10.94-1.09-16.44c-0.34-9.56,2.24-13.87,11.09-17.27
		c11.06-4.25,22.57-6.96,34.27-8.62c6.41-0.91,12.81-2.1,19.33-2.26c6.86-0.17,9.84,2.05,10.84,8.85c0.58,3.95,0.89,7.94,1.53,11.87
		c0.85,5.21,2.95,7.14,8.05,7.94c8.89,1.39,17.68,3.24,26.11,6.45c2.56,0.98,4.24,0.57,6.22-1.24c6.54-5.96,9.45-6.17,17.33-1.71
		c3.47,1.97,7.38,3.02,10.74,5.26c15.87,10.59,28.68,24.13,39.54,39.76c11.13,16.02,19.04,33.43,25.14,51.91
		c4.82,14.61,7.81,29.57,10.44,44.64c0.68,3.92,0.54,7.95,1.13,11.92c0.45,3.09,1.77,5.16,4.36,6.82
		c13.12,8.41,24.6,18.73,34.97,30.33c2.9,3.25,4.53,6.62,4.35,11.22c-0.17,4.12,3.17,6.8,6.26,8.99c2.99,2.12,5.24-0.4,7.54-1.97
		c3.51-2.39,6.15-5.48,8.36-9.12c5.34-8.76,8.9-18.18,11.43-28.07c0.74-2.9,1.79-5.71,2.74-8.56c1.94-5.81-0.54-10.2-6.61-11.51
		c-4.07-0.88-8.21-1.45-12.22-2.52c-8.33-2.24-11.2-6.22-10.88-14.82c0.7-18.81,1.5-37.61,2.19-56.42
		c0.32-8.59-1.27-16.95-3.89-25.06c-4.13-12.83-8.55-25.58-13.77-38.01c-6.05-14.43-14.27-27.54-26.27-37.83
		c-6.05-5.18-12.55-9.81-18.16-15.54c-8.49-8.67-17.73-16.62-24.75-26.66c-5.43-7.76-5.86-15.8-1.1-23.93
		c2.97-5.07,7.96-6.91,13.56-6.93c7.52-0.03,14.05,2.87,19.37,8.03c11.36,11.03,22.34,22.41,30.69,36.01
		c0.78,1.27,1.39,2.73,3.31,2.49c1.38-0.73,0.86-1.99,0.86-3.09c-0.07-10.27-3.08-19.98-5.42-29.85
		c-2.97-12.5-7.73-24.39-12.05-36.42c-2.35-6.55-5.7-12.76-7.75-19.46c-2.17-7.13-2.74-14.37-0.92-21.69
		c1.96-7.9,8.18-11.4,14.97-14.05c3.07-1.2,5.72,1.12,8.38,2.37c4.76,2.25,8.17,5.75,11.18,10.24c7.04,10.49,9.96,22.55,13.25,34.29
		c2.85,10.18,3.45,21,4.87,31.56c0.8,5.94,1.26,11.92,1.88,17.89c0.55,5.33,1.1,6.69,4.02,9.87c3.18-2.78,3.22-6.86,4.1-10.46
		c1.1-4.5,1.4-9.19,2.34-13.73c3.32-16.08,1.6-32.16,0.2-48.25c-0.58-6.63,0.62-12.96,3.5-18.92c3.6-7.47,10.2-9.51,17.85-9.31
		c6.87,0.18,11.48,3.54,14.31,9.84c3.43,7.63,4.37,15.69,4.66,23.87c0.88,25-1.7,49.52-10.35,73.18c-1.49,4.07-3.96,7.71-5.06,11.94
		c-0.21,0.8-0.63,1.55-0.79,2.36c-0.35,1.78-0.08,3.41,1.83,4.14c1.99,0.76,2.93-0.51,3.97-2.01c4.27-6.21,6.5-13.43,10.05-19.99
		c5.96-11.02,9.58-23,14.32-34.52c2.22-5.39,4.59-10.72,9.44-14.46c5.85-4.51,12.51-4.98,17.96-1.11c1.8,1.28,3.22,2.9,3.95,5.03
		c2.52,7.42,3.42,15.1,1.27,22.63c-5.98,20.96-14.53,40.74-28.35,57.89c-3.16,3.92-5.06,8.58-7.91,12.68
		c-0.89,1.29-1.09,2.79,0.49,4.32c2.34-0.42,4.35-1.62,6.23-3.35c6.01-5.56,11.13-11.94,16.81-17.8c4.26-4.4,8.23-9.18,14.82-10.48
		c10.3-2.03,16.87,3.1,15.4,13.48c-1.62,11.46-5.75,22.14-14.03,30.79c-9.71,10.13-20.97,18.47-31.54,27.59
		c-8.27,7.13-15.19,15.27-21.08,24.47c-7.74,12.08-15.22,24.27-19.62,38.01c-2.96,9.25-4.13,18.84-3.58,28.57
		c0.32,5.66,0.89,6.02,6.3,4.96c3.77-0.74,7.57-1.11,11.41-1.19c6.65-0.15,10.17,2.85,11.05,9.52c0.58,4.41-0.35,8.67-1.55,12.82
		c-4.58,15.88-12.19,30.23-22.54,43.09c-4.38,5.44-8.79,10.93-13.76,15.82c-5.28,5.2-11.22,9.71-17.75,13.41
		c-4.7,2.67-9.77,2.7-14.54,1.63c-3.14-0.71-5.86-3.51-8.64-5.55c-2.68-1.97-5.16-4.21-7.79-6.25c-6.87-5.35-10.86-12.5-12.98-20.78
		c-0.48-1.89-1.22-3.19-3.01-4.25c-3.38-2-5.57-5.61-8.98-7.41c-2.28,1.46-1.87,3.41-1.9,5.19c-0.08,4.33-0.21,8.66-0.16,12.99
		c0.07,6.27-2.61,11.22-8.02,13.95c-5.6,2.83-7.71,7.47-8.79,13.01c-2.81,14.41-4.44,28.95-5.09,43.63
		c-0.71,16.3-2.18,32.57-2.24,48.9c-0.02,5.16-0.03,10.33-0.29,15.49c-0.13,2.61,1.29,3.67,3.35,4.19c2.74,0.69,5.54,1.18,8.32,1.72
		c10.11,1.98,20.26,3.79,30.33,5.98c4.71,1.02,9.25,2.92,13.18,5.77c8.86,6.43,9.64,11.13,6.35,22.2c-2.5,8.44-5.3,16.82-9.56,24.6
		c-1.52,2.78-2.53,5.81-3.32,8.88c-0.68,2.61-0.4,5.18,2.03,6.68c2.27,1.4,3.98-0.53,5.81-1.65c8.59-5.28,12.34-14.24,16.96-22.45
		c4.99-8.84,9.67-17.85,13.96-27.07c3.3-7.08,2.23-13.56-1.68-19.89c-3.78-6.12-9.07-11.11-13.14-16.94
		c-8.02-11.49-9.98-25.51-1.79-36.33c6.89-9.09,17.69-10.9,26.85-0.44c6.99,7.98,12.92,16.91,16.2,27.31
		c1.91,6.04,5.37,11.43,8.29,17.01c4.49,8.57,12.22,13.32,21.21,16.28c7.18,2.36,13.43,6.61,20,10.17
		c8.93,4.84,17.36,10.5,25.06,17.22c2.54,2.22,4.78,4.65,6.87,7.21c10.02,12.26,19.95,24.58,24.96,39.98
		c2.88,8.87,3.94,17.86,1.3,26.97c-3.94,13.62-18.47,13.03-25.28,7.15c-4.61-3.98-8.04-8.79-10.24-14.53
		c-4.1-10.71-7.04-21.89-12.7-31.99c-3.59-6.4-7.47-12.61-12.65-17.88c-1.44-1.47-2.8-3.38-5.22-3.05
		c-1.57,1.73-0.83,3.26-0.22,4.83c5.51,14.1,11.3,28.13,14.74,42.92c3.85,16.55,6.99,33.25,5.53,50.4
		c-0.56,6.57-2.61,12.28-8.98,15.69c-5.05,2.71-12.81,1.87-17.2-2.02c-4.66-4.12-6.97-8.98-6.89-15.33
		c0.11-8.86,1.09-17.66,2.59-26.3c2.11-12.15,0.1-23.5-4.08-34.74c-1.39-3.73-2.36-7.65-4.51-11.07c-0.54-0.86-1.14-1.66-2.51-1.81
		c-1.85,1.27-1.16,3.11-0.6,4.74c6.08,17.63,4.23,35.41,1.52,53.32c-1.98,13.08-5.27,25.74-10.43,37.86
		c-2.46,5.79-7.2,10.14-13.26,11.63c-8.33,2.05-16.78-7.46-16.01-15.47c0.35-3.64,1.19-7.17,2.83-10.54
		c5.72-11.69,10.12-23.87,12.92-36.6c0.68-3.08,1.85-6.05,1.92-9.27c0.03-1.62,0.32-3.25-0.66-4.99c-1.99,0.86-2.23,2.53-2.5,4.12
		c-1.49,8.71-3.54,17.36-6.88,25.46c-5.04,12.2-11.46,23.69-23.07,31.2c-4.27,2.77-8.88,3.72-13.81,2.57
		c-6.34-1.48-10.28-8.41-8.49-14.73c1.44-5.07,3.97-9.41,7.94-13.02c7.67-6.97,15.02-14.34,19.47-23.86
		c4.14-8.85,8.39-17.74,8-27.99c-0.13-3.41-0.89-6.6-1.96-9.74c-1.6-4.7-5.38-5.88-9.38-2.85c-2.24,1.7-4.3,3.69-6.22,5.76
		c-7.7,8.3-15.22,16.8-24.34,23.6c-5.58,4.16-11.14,8.4-18.74,8.46c-8.61,0.06-15.21-5.45-15.7-14.1
		c-0.99-17.67,2.74-34.31,10.95-50.06c3.43-6.58,7.04-13.22,8.78-20.52c1.44-6.05,1.01-11.8-6.3-14.61
		c-8.22-3.16-16.55-4.95-25.15-5.95c-3.57-0.41-4.84,0.77-5.17,4.4c-0.38,4.3-0.11,8.62-0.25,12.93
		c-0.42,12.65-0.61,25.33-0.09,37.97c0.54,13.14,0.38,26.3,1.03,39.43c0.21,4.32,0.1,8.66-0.03,12.99
		c-0.15,4.85-0.97,9.54-3.14,14.02c-2.85,5.88-6.51,10.39-12.92,13.08c-9.97,4.18-20.44,5.6-30.87,7.63
		c-16,3.11-32.18,5.01-48.22,7.93c-8.49,1.54-17.11,2.65-25.7,3.76c-9.35,1.22-18.34-0.98-26.92-3.99
		c-11.49-4.03-22.29-9.64-31.1-18.44c-2.49-2.48-4.77-5.12-6.78-7.97c-5.56-7.87-3.85-16.03-0.93-24.29
		c2.95-8.33,7.42-15.99,10.23-24.38c2.11-6.28,2.98-12.66,2.53-19.19c-0.73-10.84-3.4-21.34-6.01-31.84
		c-0.7-2.8-2.44-3.33-5.46-1.51c-5.84,3.52-11.82,6.89-17,11.39c-8.54,7.42-17.96,13.83-25.5,22.4c-2.09,2.38-4.59,4.51-5.82,7.45
		c-4.19,10.02-12.24,15.94-21.51,20.55c-5.81,2.89-11.5,6.05-17.38,8.72c-7.36,3.33-15.18,4.96-23.32,2.44
		c-6.81-2.11-11.19-10.05-10.36-18.52c0.81-8.33,5.61-14.87,9.59-21.72c2.25-3.88,4.51-7.77,6.89-11.58
		c1.54-2.46,2.25-5.12,2.33-8.04c0.26-9.32-4.58-14.64-13.94-15.08c-7.57-0.35-14.93,0.89-22.13,3.17
		c-15.19,4.81-29.21,11.99-42.46,20.77c-8.87,5.87-18.09,11.21-26.25,18.13c-10.6,8.98-20.4,18.72-27.77,30.56
		c-4.01,6.44-5.89,13.72-6.11,21.39c-0.26,9.56,0.94,18.93,3.13,28.22c1.15,4.86,2.29,9.75,1.99,14.81
		c-0.19,3.18-0.73,6.24-2.93,8.83c-4.02,4.74-10.45,5.24-14.96,0.96c-3.79-3.59-6.5-7.84-8.57-12.71
		c-6.23-14.68-5.78-29.84-4.16-45.21C187.17,621.94,188.23,618.36,187.59,614.83z"/>
</g>
</svg>
