<?xml version="1.0" encoding="utf-8"?>
<!-- Generator: Adobe Illustrator 24.0.2, SVG Export Plug-In . SVG Version: 6.00 Build 0)  -->
<svg version="1.1" id="Layer_1" xmlns="http://www.w3.org/2000/svg" xmlns:xlink="http://www.w3.org/1999/xlink" x="0px" y="0px"
	 viewBox="0 0 860.59 830.65" style="enable-background:new 0 0 860.59 830.65;" xml:space="preserve">
<g>
	<path d="M264,675.67c3.15-7.07,8.82-10.87,14.71-14.31c6.15-3.6,12.92-6.16,20.02-4.97c8.33,1.39,16.95-0.23,25.14,3.26
		c3.53,1.5,6.54,3.08,8.8,6.06c2.87,3.79,6.21,6.91,10.91,8.32c1.66,0.5,3.18,0.9,4.76-0.18c4.67-3.19,9.46-6.21,14.01-9.56
		c4.49-3.31,4.5-4.41,2.07-9.46c-5.79-12.04-10.69-24.38-12.32-37.79c-0.14-1.15-0.41-2.32-0.88-3.37
		c-0.46-1.03-0.78-2.21-1.81-2.93c-1.28-0.49-2.26,0.33-3.23,0.89c-10.46,6.05-22.06,9.22-33.25,13.45
		c-11.21,4.23-22.15,9.31-33.71,12.43c-15.48,4.18-30.53,10.59-47.21,10.14c-0.85-1.8,2.74-3.82-0.17-5.61
		c-0.6-0.37,0.18-1.52,0.58-2.25c7.68-13.82,13.59-28.5,20.61-42.65c0.8-1.61,1.82-3.23,0.95-5.56c-4.87-0.8-9.96-2.46-14.97-2.23
		c-5.05,0.23-9.73,2.89-13.84,6.15c-8.33,6.61-16.34,13.71-26.2,18.11c-1.52,0.68-3.07,1.28-4.6,1.94c-1.85,0.8-3.61,0.74-5.09-0.72
		c-1.66-1.64-0.77-3.34,0-5.04c3.44-7.55,7.51-14.78,11.67-21.95c1.4-2.41,2.01-4.3-0.25-6.64c-2.14-2.22-2.56-4.96-0.66-7.76
		c1.66-2.45,0.91-4.27-1.55-5.77c-11.81-7.17-20.42-17.54-27.7-28.97c-3.28-5.15-5.5-10.98-8.02-16.59
		c-7.86-17.51-8.82-35.67-4.1-54.07c1.33-5.19,0.45-9.22-2.18-13.62c-7.09-11.85-13.21-24.31-21.75-35.25
		c-3.68-4.72-7.73-9.16-11.75-13.6c-2.05-2.27-4.8-3.74-7.79-4.22c-3.86-0.61-6.34-2.8-8.05-6.04c-2.16-4.11-5.38-6.15-10.09-5.8
		c-3.81,0.29-7.66-0.39-11.46,0.36c-1.32,0.26-2.63,0.2-3.94-0.26c-4.56-1.63-5.23-3.03-3.16-7.45c3.48-7.45,9.83-12.03,16.66-15.96
		c3.01-1.73,6.25-3.05,9.7-3.89c3.67-0.89,7.12-2.07,10.21-4.72c3.53-3.02,7.81-3.6,12.65-2.02c8.22,2.69,16.06,5.63,20.95,13.39
		c2.69,4.27,4.25,9.04,5.77,13.78c3.67,11.43,10.25,21.22,16.99,30.94c1.67,2.4,4.06,3.7,7.08,5.09c0.35-4.06-1.51-6.99-2.29-10.06
		c-3.7-14.68-7.62-29.31-11.9-43.83c-1.97-6.67-4.48-13.23-8.69-18.98c-2.74-3.74-4.01-8.15-3.53-12.72c0.41-3.86-1.35-6.2-3.89-8.6
		c-4.97-4.69-10.79-8.38-15.47-13.42c-3.04-3.27-2.98-5.15,0.89-7.33c5.81-3.28,12.15-3.35,18.49-2.32
		c5.42,0.87,10.87,1.87,15.71,4.71c3.13,1.83,6.51,2.19,10.05,2.14c2.66-0.04,5.38-0.1,7.96,0.42c5.19,1.06,8.96,3.6,10.33,9.38
		c3.64,15.35,6.79,30.8,10.04,46.24c2.47,11.71,5.29,23.34,8.69,34.82c0.32,1.07,0.51,2.31,1.6,3.01c5.18-1.52,5.46-1.98,5.68-6.97
		c0.37-8.17-0.29-16.31-0.45-24.47c-0.03-1.47-0.3-3.03-0.88-4.37c-2-4.61-2.7-9.23-0.98-14.07c0.8-2.26-0.75-3.89-1.83-5.43
		c-3.61-5.11-5.56-10.97-7.76-16.69c-2.05-5.32-0.03-7.82,5.48-6.86c8.54,1.48,16.22,4.99,22.8,10.67c2.36,2.03,4.61,3.83,7.99,3.08
		c1.38-0.31,2.64,0.16,3.72,1.04c4.27,3.46,8.58,6.87,12.77,10.42c2.32,1.96,3.08,4.83,3.08,7.68c0,4.69,0.47,9.28,1.38,13.87
		c1.06,5.38-0.22,10.56-1.98,15.63c-0.26,0.76-0.82,1.47,0.01,2.84c14.28-0.89,28.86-1.2,42.19,7.01
		c-2.04-10.88-6.13-20.64-9.19-31.04c3.66-1.02,6.14,0.79,8.08,2.49c7.71,6.72,17.2,10.83,25.03,17.35
		c2.37,1.97,5.69,0.81,6.68-2.23c1.03-3.16,1.72-6.43,2.69-9.61c0.62-2.03,0.91-4.22,2.35-5.9c1.73-0.43,2.48,0.87,3.36,1.77
		c5.13,5.23,10.43,10.32,15.26,15.82c2.71,3.09,5.45,2.87,8.56,0.06c0.25-0.22,0.53-0.44,0.7-0.71c4.21-6.57,8-13.36,11.72-20.95
		c-4.77-1.77-9.1-3.29-13.36-4.97c-17.49-6.88-35.76-11.58-53.05-19c-12.38-5.31-24.53-11.17-36.8-16.75
		c-26.04-11.84-52.09-23.66-78.38-34.95c-0.46-0.2-0.94-0.35-1.37-0.6c-5.35-3.05-5.35-3.06-8.22,2.12
		c-5.95-3.27-10.73-8.11-15.76-12.26c-2.86,1.22-3.18,3.33-3.47,5.51c-0.79,5.96-2.5,11.69-4.55,17.33
		c-0.21,0.58-0.73,1.05-1.16,1.64c-3.07-0.25-4.72-2.33-6.52-4.28c-7.1-7.71-14.23-15.39-21.39-23.05c-0.89-0.96-1.81-1.96-3.4-2.48
		c-5.56,3.77-8.82,10.77-15.82,12.8c-2.49-1.17-2.23-3.27-2.4-5.25c-0.59-6.97-1.19-13.94-1.89-20.89
		c-0.42-4.22-1.23-4.82-5.35-3.98c-3,0.62-5.57-0.11-8.11-1.9c-0.34-3.56,2.15-6.46,2.84-10.32c-5.69-1.32-11.2-1.1-16.59-0.96
		c-12.68,0.32-25.3-1.21-37.97-0.93c-3.75,0.08-4.78-1.62-3.37-5.07c1.4-3.43,4.32-5.45,7.32-7.27c6.13-3.72,12.5-6.98,19.18-9.62
		c1.62-0.64,3.45-1.02,4.73-2.28c-0.35-1.02-1.14-0.96-1.69-0.92c-9.01,0.69-17.94-0.84-26.92-0.83c-13.98,0-27.94-0.8-41.93-0.29
		c-4.93,0.18-5.89-0.78-7.59-5.51c4.53-5.84,11.29-8.88,18.11-13.45c-6-2.33-11.98-2.83-16.74-6.85c2.48-4.19,6.49-6.56,10.78-8.17
		c16.41-6.14,33.32-10.44,50.69-12.89c4.41-0.62,8.81-1.3,13.14-1.17c0.87-2.26,0.3-3.99-0.4-5.69c-0.58-1.41-0.95-2.84-0.82-4.37
		c0.3-3.51,1.85-4.36,4.92-2.55c3.26,1.92,6.16,4.48,10.14,6c1.87-4.99,2.65-10.05,3.61-15c1.05-5.41,2.63-10.67,3.74-16.05
		c0.77-3.73,1.67-4.01,5.08-1.81c5.22,3.36,8.8,8.69,13.94,12.07c8.63,5.67,14.77,14.08,23.14,20.43
		c3.93-6.14,8.86-11.4,14.18-16.97c4.75,7.33,5.54,15.56,9.55,22.75c3.63-0.86,7.21-0.06,10.82,0.09c4.28,0.17,5.18,1.38,4.56,5.68
		c-0.09,0.65-0.31,1.29-0.47,1.93c-1.15,4.51-0.88,5.08,3.09,6.97c10.36,4.93,20.77,9.77,31.05,14.87
		c14.76,7.32,29.31,15.04,43.42,23.58c11.39,6.89,23.2,13.1,34.53,20.08c10.91,6.72,22.31,12.81,32.67,20.25
		c15.69,11.26,33.12,19.95,47.79,32.59c10.26,8.84,22.3,15.12,32.21,23.9c2.07-0.34,2.4-1.74,2.67-3c0.69-3.25,1.41-6.51,1.79-9.81
		c0.38-3.36-1.61-5.96-5.05-6.88c-3.27-0.87-6.31-2.4-9.01-4.21c-6.31-4.22-8.15-9.88-4.12-15.83c4.67-6.9,3.03-13.39,1.86-20.38
		c-2.69-16-4.72-31.98,0.88-47.9c1.87-5.31,5.04-9.77,8.1-14.29c7.97-11.77,18.56-20.71,30.6-28.2c11-6.84,23-11.14,35.08-15.39
		c1.5-0.53,3.39-0.43,4.42-2.37c-2.05-2.7-4.07-5.53-6.26-8.22c-5.23-6.43-8.31-13.98-11.03-21.64
		c-4.29-12.07-4.49-24.78-5.19-37.39c-0.28-5.06,1.42-9.86,1.96-14.82c0.72-6.58,1.39-13.24,3.35-19.64
		c0.29-0.95,0.41-1.97,1.35-2.66c1.56-0.66,2.86,0.06,4.08,0.99c6.92,5.26,13.53,10.8,18.18,18.34c3.58,5.81,8.4,10.73,11.75,16.75
		c2.52,4.52,4.57,9.22,6.53,13.97c0.72,1.75,1.41,3.36,3.31,4.43c3.28-1.13,4.67-4.15,5.82-6.94c4.2-10.2,10.66-19.17,18.2-26.69
		c10.33-10.3,19.74-21.57,31.18-30.79C568.53,19,584.91,8.33,603.1,0.56c2.96-1.26,4.63-0.42,5.75,2.66
		c0.53,1.45,0.48,2.94,0.52,4.44c0.39,13.92-1.91,27.42-5.26,40.93c-4.9,19.78-14.04,37.62-23.44,55.41
		c-0.67,1.26-1.49,2.31-0.17,3.5c1.3,1.18,2.77,0.96,4.15,0.14c3.89-2.31,8.1-3.85,12.35-5.36c11.17-3.96,22.58-6.77,34.37-8.26
		c10.41-1.32,20.79-2.81,31.29-3.31c9.63-0.46,18.82,2.13,28.09,4.12c2.88,0.62,2.56,2.43,1.22,4.52c-2.86,4.46-7.17,7.4-11.1,10.71
		c-17.32,14.56-36.66,26-56.94,35.78c-15.77,7.6-32.32,13.26-49.51,16.82c-11.23,2.33-22.5,4.39-33.95,4.72
		c-0.81,2.25,0.92,3.18,1.8,4.47c11.57,16.96,20.83,34.76,22.18,55.86c0.77,11.95-0.52,23.55-3.55,35.08
		c-3.05,11.59-5.48,23.34-8.81,34.84c-2.82,9.74-6.12,19.38-8.39,29.25c-3.23,14.08-9.03,27.41-11.77,41.62
		c-0.65,3.39-2.05,6.69-3.48,9.86c-1.49,3.31-0.62,5.17,2.53,6.79c6.37,3.26,12.58,6.81,19.53,8.78c8.49,2.4,16.4,6.4,24.93,8.76
		c12.5,3.45,24.87,7.34,37.03,11.86c11.38,4.23,22.68,8.64,34.01,12.98c12.89,4.94,25.8,9.85,38.67,14.84
		c9.48,3.68,18.27,8.81,27.29,13.45c9.04,4.65,18.63,8.08,27.52,13.03c3.06,1.7,5.88,0.05,8.5-1.26c3.41-1.71,6.58-3.88,9.94-5.69
		c4.37-2.35,6.27-1.22,6.21,3.6c-0.06,4.49-0.14,8.98-0.31,13.47c-0.17,4.58,0.15,5.32,4.65,5.9c7.13,0.93,14.06,2.68,20.95,4.62
		c2.39,0.67,4.86,1.22,6.65,3.57c-2.1,5.52-8.02,8.27-10.62,13.94c2.63,2.77,5.29,5.48,7.84,8.29c1.94,2.14,4.82,3.67,4.59,7.3
		c-0.08,1.19,1.45,1.71,2.28,2.5c7.96,7.57,16.35,14.73,22.85,23.71c3.81,5.26,7.3,10.66,9.36,16.92c1.02,3.08,3.88,4.94,6.13,7.07
		c7.79,7.4,14.01,16.03,20.2,24.71c0.39,0.54,0.78,1.11,1.01,1.72c0.55,1.47,0.6,2.98-0.45,4.26c-1.07,1.3-2.45,0.73-3.68,0.28
		c-7.04-2.56-14.06-5.14-21.08-7.75c-1.5-0.56-2.83-1.79-4.61-1.02c-0.22,1.66,1.06,2.41,1.85,3.41c6.14,7.83,10.7,16.4,12.78,26.22
		c0.48,2.28,0.43,4.58-1.23,6.02c-1.9,1.64-4.07,0.45-5.95-0.8c-10.41-6.92-20.17-14.73-30.33-21.99
		c-7.58-5.42-15.41-10.48-23.17-15.63c-1.05-0.7-2-1.8-3.69-1.62c-1.92,2.46-1.49,6.01-3.34,8.55c-2.14,0.39-3.06-1.22-4.21-2.3
		c-2.55-2.39-4.98-4.91-7.54-7.29c-3.43-3.18-3.87-3.17-7.65-0.5c-1.77,1.25-3.49,2.57-5.33,3.71c-1.52,0.94-3.06,2.06-5.31,1.53
		c-1.82-3.76-2.29-7.88-2.69-11.97c-1-10.31-0.9-10.4-10.29-14.92c-24.65-11.87-48.11-25.82-70.94-40.8
		c-23.11-15.17-45.66-31.15-67.3-48.4c-18.88-15.05-38.04-29.76-58.39-42.8c-4.61-2.95-9.05-6.27-14.26-8.21
		c-1.69-0.63-3.31-1.66-5.44-0.7c-1.02,2.34-0.99,5.05-1.53,7.63c-1.77,8.47-2.84,17.05-5,25.46c-2.04,7.96-0.77,16.24-1.13,24.37
		c-0.11,2.45-0.76,4.9-0.49,7.66c11.99,4.34,24.31,7.75,36.47,11.66c11.93,3.83,24.62,5.38,36.58,11.3
		c-3.97,5.09-9.2,6.07-14.02,7.36c-9,2.4-17.44,6.58-26.69,8.14c-0.99,0.17-1.91,0.63-2.27,2.06c4.51,5.51,13.01,5.51,17.42,11.78
		c-10.83,4.73-22.92,4.56-33.29,9.58c-0.83,1.97,0.22,3.19,1.13,4.31c8.52,10.37,10.85,23.15,13.12,35.7
		c1.65,9.11,1.99,18.6,0.22,27.83c-1.81,9.44-3.57,18.89-7.37,27.89c-7.39,17.49-19.38,30.76-35.7,40.1
		c-7.96,4.56-16.53,7.84-25.65,9.49c-9.99,1.8-19.97,3.71-30.2,3.37c-8.37-0.28-16.49-2.1-24.52-4.28c-1.8-0.49-3.52-1.07-5.37-0.53
		c-13.28,3.87-26.27,8.44-38.27,15.46c-1.27,0.74-2.7,1.35-3.71,3.29c3.6,8.35,6.83,17.27,13.11,24.57c3.4,3.95,8.64,4.82,13.07,7
		c10.2,5.03,21.22,7.69,32.12,10.67c4.38,1.2,8.64,2.56,11.11,6.89c0.76,1.34,2.09,2.12,3.44,2.81
		c10.85,5.58,16.86,14.69,19.14,26.46c0.84,4.32-1.06,6.07-5.19,4.57c-2.8-1.01-5.52-2.38-8.1-3.88c-6.2-3.59-13.23-4.42-19.98-6
		c-3.85-0.9-7.33,1.04-10.52,4.22c11.05,5.64,14.9,15.32,16.15,26.55c0.19,1.71,0.44,3.32-1.39,4.38c-1.72,0.99-3.19,0.4-4.65-0.56
		c-8.32-5.42-17.69-8.27-27.1-11.03c-2.39-0.7-4.71-0.44-6.81,0.63c-2.88,1.47-5.7,1.13-8.07-0.49c-4.03-2.77-8.6-4.32-12.93-6.4
		c-7.54-3.63-14.23-8.63-21.21-13.13c-5.17-3.33-8.8-8.53-12.78-13.19c-4.03-4.72-8.35-9.08-13.49-12.56
		c-4.07-2.76-5.21-2.23-6.41,2.45c-0.78,3.04-1.75,5.92-0.91,9.26c0.73,2.92-1.07,5.51-2.97,7.64c-2.55,2.86-5.28,5.55-8,8.24
		c-3,2.96-5.72,6.34-6.86,10.26c-1.78,6.1-5.59,10.92-8.7,16.2c-2.41,4.09-6.6,6.06-10.45,8.3c-2.91,1.69-4.9,0.13-4.82-3.7
		c0.15-7.52-0.19-14.97-1.4-22.4c-0.84-5.18-0.78-10.36-5.9-14.07c-3-2.17-3.38-6.35-2.55-10.17c3.43-15.93,10.45-30.06,21.09-42.43
		c5.92-6.89,9.93-14.88,12.77-23.47c1.05-3.17,2.05-6.32,3.9-9.15c2.27-3.47,2.6-7.5,3.07-11.48c0.17-1.41-0.15-2.7-1.23-3.64
		c-2.87-2.5-6.18-4.5-8.46-7.7c-0.86-1.21-2.45-0.47-3.77-0.4c-8.61,0.5-16.86-1.51-25.05-3.82
		C266.05,677.29,265.29,676.51,264,675.67z"/>
</g>
</svg>
