<?xml version="1.0" encoding="utf-8"?>
<!-- Generator: Adobe Illustrator 24.0.2, SVG Export Plug-In . SVG Version: 6.00 Build 0)  -->
<svg version="1.1" id="Layer_1" xmlns="http://www.w3.org/2000/svg" xmlns:xlink="http://www.w3.org/1999/xlink" x="0px" y="0px"
	 viewBox="0 0 641.3 804.07" style="enable-background:new 0 0 641.3 804.07;" xml:space="preserve">
<g>
	<path d="M343.81,684.76c3.45-3.93,7.99-5.84,12.21-8.03c12.84-6.67,26.17-12.32,39.51-17.92c4.39-1.84,7.76,0.59,10.73,3.26
		c2.06,1.85,3.46,3.86,6.67,1.8c4.5-2.9,5.62-4.59,4.63-8.81c-2.18-9.26-6.74-17.68-9.45-26.77c-3.48-11.64-8.02-22.91-12.83-34.07
		c-1.11-2.57-1.79-5.3-3.11-7.83c-1.32-2.54-0.35-5.2,0.6-7.74c0.5-1.34,1.83-2.32,1.85-4.04c-2.66-0.48-4.48,0.34-6.19,2.32
		c-10.8,12.45-24.12,21.86-37.55,31.17c-11.48,7.96-22.82,16.16-34.06,24.46c-2.72,2.01-5.69,3.44-8.63,4.96
		c-3.56,1.84-6.74,0-9.86-1.73c-10.78-5.97-19.49-14.43-27.9-23.23c-2.39-2.5-4.65-5.12-7.59-8.38c0.47,6.28,0.79,11.65,1.28,17.01
		c1.22,13.43,2.48,26.86,4.64,40.18c0.85,5.25,1.89,10.49,3.18,15.65c1.23,4.9,3.4,9.34,7.44,12.72c2.28,1.91,4.45,4.04,5.85,6.77
		c0.81,1.59,2.29,2.23,3.84,2.95c6.07,2.82,12.69,4,18.84,6.53c1.07,0.44,1.87,0.21,2.76-0.4c3.77-2.57,7.55-1.65,11.41-0.1
		c5.71,2.3,10.28,6.14,14.33,10.61c8.89,9.78,16.55,20.43,22.06,32.52c2.51,5.51,3.87,11.32,4.32,17.35
		c0.12,1.62,0.45,3.38-1.53,4.64c-17.65-7.7-35.34-15.66-53.81-24.52c4.47,15.61,9.14,30.35,10.44,46.05
		c-3.32,0.08-5.43-1.56-7.64-2.93c-8.97-5.57-16.43-13.02-24.47-19.75c-7.13-5.96-14.21-11.98-21.6-18.22
		c-2.42,11.12-5,21.86-6.99,32.7c-0.93,5.06-2.55,9.99-2.84,15.19c-0.12,2.23-1.48,4.15-3.8,4.8c-2.46,0.7-3.14-1.39-4.53-2.86
		c-11.49-12.13-16.78-27.77-24.26-42.17c-2.91-5.6-3.41-11.68-2.24-17.51c2.13-10.58,2.51-21.48,5.77-31.83
		c0.69-2.2-0.34-3.27-1.85-4.6c-6.28-5.55-13.8-9.3-20.52-14.18c-2.85-2.07-5.52-4.25-7.28-7.35c5.9-6.2,16.27-9.15,41.28-11.74
		c1.62-6.18-0.81-31.91-3.7-39.23c-0.65-0.27-1.48-0.4-1.87,0.1c-4.72,6.07-12.08,7.16-18.59,9.63c-12.15,4.63-24.74,8-37.5,10.34
		c-5.06,0.93-9.54,2.23-13.59,5.23c-3.02,2.23-6.45,1.41-9.69,1.12c-17.14-1.56-33.92-4.8-49.9-11.46
		c-1.22-0.51-2.57-0.73-3.37-2.36c1.57-4.11,6.09-5.68,9.25-9.49c-7.46-3.17-14.55-6.25-21.7-9.19c-4.8-1.97-9.4-4.29-13.5-7.47
		c-3.3-2.57-3.19-4.45,0.09-7.15c3.91-3.21,8.66-4.93,13.02-7.34c0.67-0.37,1.37-0.69,1.73-1.83c-6.91,1.6-13.81,3.27-20.73,4.79
		c-14.12,3.11-28.1,7.21-42.75,7.06c-6.13-0.07-12.32,0.04-18.32-1.64c-2.23-0.63-4.47-1.27-5.77-3.7
		c3.28-3.53,7.34-5.79,11.42-7.95c10.14-5.36,20.52-10.23,30.76-15.38c10.27-5.18,19.42-12.26,28.98-18.61
		c11.09-7.38,21.63-15.53,32.19-23.67c7.05-5.44,12.74-12.18,19.23-18.15c13.74-12.66,26.65-26.07,37.24-41.56
		c5.09-7.45,8.88-15.61,13.1-23.54c0.3-0.57,0.81-1.34,0.64-1.81c-2.68-7.75-0.6-15.67-0.89-23.5c-0.29-7.87,0.93-15.69,2.36-23.33
		c3.15-16.84,7.46-33.42,14.1-49.32c1.79-4.28,2.59-8.97,4.45-13.21c12.01-27.43,26.15-53.58,47.52-75.06
		c8.81-8.85,18.21-17.11,29.52-23.45c-3.43-4.75-7.73-8.6-11.7-12.69c-6.39-6.59-12.28-13.59-17.46-21.11
		c-4.18-6.06-6.75-12.9-7.02-20.51c-0.19-5.44,1.79-9.74,5.56-13.36c8.21-7.86,18.11-11.5,29.4-11.71c3.41-0.06,6.01,0.96,8.16,3.81
		c7.02,9.31,13.75,18.82,18.96,29.27c1.7,3.4,4.15,4.96,7.65,5.52c4.11,0.67,8.22,1.31,12.29,2.17c2.87,0.61,4.37-0.53,5.29-3.14
		c4.56-13.02,9.46-25.92,12.87-39.31c2.22-8.7,4.48-17.38,7.51-25.85c0.5-1.41,0.89-2.86,1.26-4.31c1.07-4.15,0.58-7.26-3.37-10.35
		c-8.26-6.45-15.85-13.75-21.05-23.11c-2.8-5.03-1.38-8.12,4.33-9.04c9.34-1.51,17.66-5.28,25.92-9.87
		c8.96-4.98,14.42-12.47,18.97-21.06c3.64-6.87,7.99-13.05,15.16-16.46c-1.28-8.68-1.74-17.1,0.07-25.5
		c1.19-5.53,3.74-6.57,8.38-3.39c11.13,7.61,22.03,15.56,33.45,22.73c0.94,0.59,1.72,1.62,3.13,1.46c0-5.28-0.02-10.54,0.01-15.8
		c0.01-3.18,0.24-6.36,1.39-9.34c1.16-3.01,2.59-3.41,5.37-1.64c2.5,1.6,4.63,3.67,6.76,6.52c3.39-9.32,5.54-18.55,13.96-24.48
		c5.84,4.22,10.31,9.56,14.81,14.84c13.08,15.34,26.08,30.75,42.29,43.01c0.39,0.3,0.84,0.53,1.54,0.96
		c12.58-7.14,23.83-16.52,35.82-24.4c3.53,2.14,2.06,4.27,1.04,6.3c-2.85,5.65-6.57,10.79-9.37,16.49
		c-3.29,6.7-4.4,13.73-3.21,20.88c1.17,7.03,6.03,11.66,12.22,14.83c2.36,1.21,4.83,2.27,7.34,3.11c3.09,1.03,4.97,2.81,4.42,6.21
		c-0.46,2.9,1.04,4.2,3.4,5.24c3.19,1.41,6.25,3.13,9.44,4.54c6.62,2.93,11.67,7.63,15.52,13.65c1.1,1.73,2.41,3.05,4.03,4.28
		c12.62,9.62,19.88,22.59,23.27,37.89c0.31,1.39,0.79,3.07-0.63,4.19c-1.47,1.17-3.02,0.26-4.13-0.58c-3-2.29-5.54-1.34-8.58,0.15
		c-8.99,4.41-18.75,6.69-28.3,9.55c-2.52,0.75-5.07,1.41-7.6,2.41c6.45,1.03,12.99,0.58,19.44,1.51
		c16.42,2.36,31.69,7.35,44.9,17.85c5.98,4.75,10.14,9.16,6.31,19.36c-0.41,1.09-0.88,2.19-1.05,3.33
		c-0.98,6.59-4.53,11.19-10.35,14.35c-4.87,2.65-8.84,6.45-12.54,10.58c-4.62,5.17-5.65,11.55-6.42,18.03
		c-0.29,2.46-0.25,4.96-0.35,7.4c5.23,3.94,11.09,6.69,17.15,10.31c-4.2,4.87-10.05,5.33-15.58,7.34
		c1.91,6.17,3.97,12.08,5.57,18.12c6.17,23.21,8.48,46.8,6.42,70.75c-0.66,7.65-3.26,14.84-5.6,22.15
		c-5.95,18.62-18.69,32.79-30.15,47.83c-12.4,16.27-27.06,30.24-43.23,42.69c-2,1.54-2.29,3.13-2,5.58
		c1.65,13.72,3.41,27.44,2.84,41.33c-0.22,5.25-1.86,10.02-3.88,14.82c-7.3,17.36-21.22,29.16-34.56,41.4
		c-10.55,9.68-21.74,18.6-33.69,26.55c-3.88,2.58-7.17,2.47-11.09,0.3c-8.91-4.94-16.85-11.26-25.18-17.55
		c-0.38,2.19,0.28,3.96,0.76,5.6c3.97,13.76,8.46,27.32,15.27,40.01c3.01,5.62,8.3,7.46,13.82,8.87c7.88,2.02,15.94,3.25,23.81,5.46
		c5.94,1.67,12.25-0.05,18.4,0.05c2.02,0.03,2.43-2.03,3.26-3.42c2.6-4.33,3.6-4.57,8.48-2.84c4.06,1.44,8.17,2.74,12.53,4.73
		c2.46-6.33,6.41-6.4,12.33-4.21c9.71,3.59,18.23,8.88,26.21,15.19c4.04,3.19,8.14,6.32,12.02,9.74
		c5.85,5.16,10.32,11.28,14.16,17.94c1.39,2.4,2.57,4.96,1.53,8.64c-8.3-3.15-16.38-6.22-25.51-9.69c3.68,5.9,7.7,10.7,4.7,17.59
		c-9.07-1.53-17.16-5.91-26.59-8.7c2.44,4.7,4.98,8.4,6.28,12.69c0.49,1.62,1.21,3.24-0.18,4.69c-1.51,1.57-3.02,0.46-4.56-0.15
		c-10.99-4.35-22.28-7.76-33.73-10.63c-7.27-1.82-14.55-3.57-21.85-5.25c-2.88-0.66-5.37-1.93-7.05-4.34
		c-1.13-1.62-2.58-2.6-4.37-3.09c-7.4-2.03-14.32-5.39-21.57-7.84c-9.65-3.25-19.46-5.8-29.56-7.05c-6.13-0.76-12.79-1.8-18.28,0.78
		c-10.07,4.72-19.97,2.8-30.12,1.71c-11.76-1.26-23.44-2.98-35.04-5.26C348.6,688.27,345.6,688.01,343.81,684.76z"/>
</g>
</svg>
