<?xml version="1.0" encoding="utf-8"?>
<!-- Generator: Adobe Illustrator 24.0.2, SVG Export Plug-In . SVG Version: 6.00 Build 0)  -->
<svg version="1.1" id="Layer_1" xmlns="http://www.w3.org/2000/svg" xmlns:xlink="http://www.w3.org/1999/xlink" x="0px" y="0px"
	 width="725.2" height="859.58" viewBox="0 0 725.2 859.58" style="enable-background:new 0 0 725.2 859.58;" xml:space="preserve">
<g>
	<path d="M141.38,750.78c-4.76,9.74-5,18.98-3.56,28.81c1.09,7.42,2.8,14.67,4.19,22c0.22,1.14,0.34,2.4,0.91,3.36
		c5.69,9.51,3.34,19.18-0.42,28.24c-3.41,8.2-7.41,16.32-13.36,23.22c-1.45,1.68-2.85,2.53-5.02,2.63
		c-3.81,0.17-7.64-0.18-11.43,0.49c-1.43,0.25-2.57-0.46-3.58-1.42c-6.04-5.7-12.65-10.81-17.96-17.23
		c-3.32-4.02-7.55-5.33-12.37-4.49c-12.14,2.1-24.01,5.24-35.45,9.92c-7.23,2.95-14.76,2.56-21.98,0.44
		c-4.94-1.45-7.67-6.27-10.85-10.06c-2.32-2.77-3.99-6.06-5.24-9.59c-3.28-9.26-6.13-18.48-5.03-28.58
		c0.47-4.35,3.03-6.86,5.84-9.38c6.9-6.21,15.29-10,23.52-13.99c10.62-5.15,21.45-9.84,31.28-16.56
		c7.89-5.4,13.77-12.25,18.45-20.52c5.39-9.54,11.35-18.76,17.37-28.64c-3.91-3.23-5.15-8.45-8.47-12.38
		c-1.43-1.68-2.14-3.74-2.73-5.84c-3.99-14.22-9.06-28.14-12.05-42.63c-0.91-4.43-1.19-8.91-0.52-13.42
		c0.33-2.23,1.16-4.09,3.15-5.41c9.36-6.24,19.41-7.9,30.28-4.98c3.84,1.03,7.48,2.76,11.67,3.28c1.2-4.34-1.1-8.03-2.38-11.54
		c-2.61-7.16,0-12,4.95-16.78c7.53-7.28,14.51-15.11,20.71-23.57c3.57-4.87,8-8.92,12.1-13.29c7.63-8.15,14.73-16.76,22-25.23
		c2.28-2.66,4.66-5.21,7.43-7.39c4.76-3.73,8.59-8.25,11.81-13.4c3.47-5.57,9.22-9.08,13.43-14.01c2.03-2.38,4.24-4.6,6.35-6.88
		c-1.4-1.86-3.28-2.17-4.93-2.9c-11.28-4.98-21.79-11.21-32.14-17.96c-9.34-6.09-16.31-13.77-22.56-22.75
		c-2.86-4.11-7.11-7.25-9.44-11.97c-1.26-2.54-1.39-4.67-0.79-7.53c2.68-12.82,5-25.6,0.4-38.71c-3.35-9.56-7.49-18.78-11.03-28.25
		c-1.29-3.46-2.29-6.99-2.94-10.58c-1.28-7.16-0.44-13.83,4.67-19.64c7.24-8.25,14.17-16.77,21.32-25.1
		c3.68-4.29,8.02-7.96,12.01-11.95c6.44-6.43,11.16-14.04,16.18-21.44c3.08-4.54,5.71-9.39,9.04-13.78
		c6.65-8.78,8.97-19.22,11.27-29.61c2.41-10.87,3.52-21.97,4.94-33.01c0.15-1.15,0.13-2.38,0.53-3.45
		c2.47-6.65,1.07-12.69-2.54-18.52c-1.3-2.11-2.42-4.41-3.17-6.76c-1.12-3.52-1.17-6.95,0.33-10.65c4-9.84,8.09-19.62,12.61-29.24
		c1.9-4.04,0.69-8.71-1.06-12.61c-2.93-6.51-7.08-12.41-10.66-18.6c-5.19-8.97-12.92-16.11-17.81-25.25
		c-4.98-9.31-12.5-16.78-18.18-25.57c-3.16-4.89-6.43-9.82-8.33-15.32c-2.9-8.41-0.09-15.91,4.95-22.7
		c1.68-2.26,3.67-4.31,5.66-6.32c5.99-6.06,13.07-7.17,21.07-4.19c9.03,3.36,16.57,9.15,24.7,14.01
		c12.26,7.34,24.36,15.1,37.23,21.21c11.35,5.39,23.65,8.8,35.56,13.02c2.1,0.74,4.3,0.76,6.3-0.41
		c10.12-5.9,21.62-7.59,32.65-10.68c21.43-6,43.51-8.25,65.54-10.1c10.86-0.91,21.96,0.23,32.9,1.15
		c17.09,1.44,34.22,3.07,50.66,8.36c10.12,3.25,20.28,6.57,29.44,12.18c4.11,2.51,7.87,3.57,12.34,0.51
		c5.61-3.84,12.02-6.31,17.58-10.4c5.76-4.24,12.77-6.38,19.17-9.55c9.64-4.78,18.15-11.11,26.79-17.3
		c5.26-3.77,9.87-8.5,16.26-10.49c1.1-0.34,2.23-0.89,3.34-0.89c12.42-0.03,23.27,3.39,28.96,15.49c4.89,10.4,4.49,17.16-2.65,26.31
		c-6.1,7.82-11.91,15.82-16.38,24.86c-3.79,7.67-8.11,15.19-13.56,22.01c-10,12.52-17.63,26.54-24.31,41.08
		c-1.03,2.24-0.73,4.56-0.12,6.83c4.49,16.56,15.29,29,27.23,40.48c7.73,7.44,17.49,12.16,26.9,17.08
		c6.87,3.59,13.98,6.93,21.84,8.39c4.5,0.83,8.13,3.91,11.01,7.42c4.67,5.67,8.37,12,11.5,18.66c0.82,1.74,0.6,3.16-0.31,4.69
		c-7.81,13.16-14.39,27.02-22.61,39.95c-1.5,2.36-3.35,4.08-6.25,5.28c-7.15,2.97-11.95,8.44-14.99,15.76
		c-2.27,5.47-4.14,11.12-7.45,16.23c-3.7,5.7-5.37,12.47-8.5,18.55c-2.42,4.7-4.15,9.73-6.8,14.4c-3.45,6.08-4.95,13.03-6.97,19.69
		c-1.31,4.32-3.37,8.32-4.54,12.66c-0.57,2.11-2.29,2.97-4.26,2.61c-4.89-0.91-9.87-0.9-14.75-2.05c-9.21-2.17-18.43-4.49-27.78-5.7
		c-3.6-0.47-7.64,1.97-10.38,4.95c-3.37,3.66-6.43,7.62-9.6,11.47c-4.67,5.67-4.89,10.52-0.78,16.7
		c6.12,9.22,13.23,17.33,22.75,23.4c8.45,5.39,15.49,12.73,22.15,20.12c5.4,5.98,12.03,9.85,18.49,14.19
		c7.86,5.28,15.77,10.47,23.27,16.32c7.87,6.13,15.76,12.26,23.79,18.18c4.99,3.68,9.59,7.81,13.79,12.24
		c8.28,8.73,17.45,16.49,26.51,24.3c7.37,6.35,14.23,13.5,23.13,18.04c4.88,2.49,9.95,4.6,14.64,7.5
		c6.84,4.23,9.62,11.94,6.98,19.33c-2.91,8.14-5.62,16.35-9.52,24.08c-3.52,6.97-7.47,13.69-14.09,18.28
		c-2.73,1.89-5.3,3.99-7.94,5.99c-3.64,2.76-7.53,4.14-11.99,4.25c-1.68,0.04-3.11,0.1-4.27,1.84c-2.54,3.81-4.81,5.18-8.6,3.08
		c-5.27-2.91-11.1-2.54-16.44-4.44c-2.04-0.72-4.05-1.52-6.08-2.28c-2.6-0.98-4.53-3.15-4.31-5.6c0.73-8.22-5.3-12.85-9.11-18.7
		c-6.15-9.47-15.4-15.46-24.18-22.03c-6.73-5.03-12.93-10.8-20.88-14.89c-0.71,3.86,0.12,7.26,1.86,10.16
		c2.18,3.63,4.46,7.25,8.29,9.68c7.26,4.6,12.83,11.12,18.12,17.74c5.7,7.13,12.51,13.45,16.84,21.59
		c3.46,6.52,8.99,12.05,9.63,19.99c0.15,1.92,0.96,3.91,1.9,5.63c5.26,9.59,6.66,20.14,7.51,30.75c0.48,5.95-0.99,11.86-1.71,17.79
		c-1.49,12.38-6.01,23.75-10.83,35.07c-3.26,7.66-6.97,15.11-11.03,22.36c-2.72,4.86-1.21,9.13,1.09,13.18
		c1.19,2.09,4.06,2.58,6.54,2.96c9.26,1.4,16.77,6.4,23.26,12.6c3.59,3.43,4.79,8.66,4.48,13.88c-0.1,1.77-0.8,2.94-2.36,4.05
		c-3.93,2.81-8.25,3.83-12.95,4.61c-10.82,1.79-21.47-0.1-32.2-0.37c-14.81-0.37-29.34-2.98-43.96-4.71
		c-8.77-1.04-17.53-3.17-26.07-6.06c-4.43-1.5-9.22-2.52-13.92-3.37c-8.34-1.51-16.41-3.81-24.4-6.6c-11.49-4.01-22.46-9.1-33-15.15
		c-1.6-0.92-3.16-1.02-4.78-0.43c-3.28,1.2-6.65,2.24-9.76,3.8c-8.25,4.15-17.18,5.92-26.03,8.14c-6.29,1.58-12.56,3.07-18.93,4.3
		c-6.4,1.24-12.89,1.53-19.24,2.8c-6.3,1.26-12.61,0.28-18.91,0.7c-9.95,0.67-19.91-0.27-29.86-0.59
		c-7.84-0.25-15.47-1.48-23.25-2.29c-4.78,4.35-10.72,7.11-15.9,10.99c-8.35,6.27-17.64,11.28-24.98,18.94
		c-4.17,4.35-7.31,9.47-11.22,14.01c-1.17,1.35,0.1,3.43-0.73,4.83c-3.64,6.13-6.97,12.89-14.26,15.31
		c-17.31,5.75-34.05,5.01-49.45-5.92c-1.08-0.77-2.31-1.52-3.02-2.58c-7.56-11.28-16.68-21.65-21.99-34.25
		c-2.45-5.8-4.21-12.1-5.16-18.48c-1.16-7.74-3.99-15.13-4.93-22.92c-0.08-0.62-0.34-1.6-0.75-1.75c-3.42-1.23-5.12-4.75-8.02-6.31
		C155.56,759.42,148.22,755.92,141.38,750.78z"/>
</g>
</svg>
