<?xml version="1.0" encoding="utf-8"?>
<!-- Generator: Adobe Illustrator 24.0.2, SVG Export Plug-In . SVG Version: 6.00 Build 0)  -->
<svg version="1.1" id="Layer_1" xmlns="http://www.w3.org/2000/svg" xmlns:xlink="http://www.w3.org/1999/xlink" x="0px" y="0px"
	 width="745.66" height="753.54" viewBox="0 0 745.66 753.54" style="enable-background:new 0 0 745.66 753.54;" xml:space="preserve">
<g>
	<path d="M340,610.18c-3.31-13.77,0.45-23.33,12.11-31.27c2.34-1.59,4.76-3.08,7.26-4.41c5.71-3.06,9.01-7.92,10.08-14.12
		c1.23-7.15,0.64-14.24-1.54-21.23c-1.03-3.31-2.99-4.59-6.29-4.17c-1.16,0.15-2.43,0.06-3.44,0.53c-4.55,2.1-8.32,0.33-12.22-1.9
		c-2.85-1.63-4.81-3.36-4.15-7.02c0.63-3.48,0.92-7,5.04-8.38c3.2-1.07,5.89-2.95,8.41-5.59c-4.74-9.36-11.42-17.18-18.18-24.93
		c-1.01-1.16-2.41-0.88-3.72-1c-4.87-0.45-9.58,0.37-14.33,1.39c-5.44,1.17-13.7-5.32-13.91-10.59c-0.14-3.52,1.11-6.12,4.47-7.61
		c1.93-0.86,4.17-1.26,5.59-3.47c-1.12-2.44-3.46-3.83-5.26-5.7c-3.13-3.23-6.5-6.28-9.26-9.8c-4.18-5.34-9.45-6.38-15.52-4.72
		c-3.62,0.99-6.81,0.8-9.93-1.45c-5.06-3.65-5.48-9.84-0.83-13.93c1.23-1.09,2.66-2,3.49-3.69c-1.3-3.24-4.04-3.07-6.15-1.84
		c-5.18,3.03-10.57,2.18-16.03,1.77c-8.2-0.61-16.39-1.07-23.06,5.24c-1.25,1.18-2.97,1.32-4.68,1.44
		c-4.48,0.31-8.95,0.81-13.44,1.13c-2.93,0.21-4.95,1.32-5.98,4.32c-1.62,4.74-4.33,8.52-9.48,10.17c-2.61,0.84-4.32,3.06-5.73,5.38
		c-3.48,5.72-8.34,8.73-15.23,8.47c-4.39-0.16-6.56-1.67-7-5.98c-0.43-4.33-0.54-8.59,1.86-12.61c1.34-2.25,2.08-4.86,3.24-7.67
		c-3.77-2.3-7.24-4.81-11.05-6.61c-2.21-1.04-4.73,0.29-6.25,2.1c-1.71,2.04-3.73,2.48-6.14,2.63c-3.15,0.19-6.28,0.76-9.44,0.98
		c-2.9,0.21-5.54,0.97-7.93,2.67c-7.08,5.04-14.82,7.94-23.66,8.05c-5.73,0.07-11.07,1.87-16.03,4.97
		c-5.27,3.29-10.92,5.62-17.41,5.27c-6.7-0.36-12.71,2.18-18.59,5.04c-6.97,3.39-13.92,2.1-20.86-0.13
		c-8.93-2.87-9.27-16.36-3.28-21.2c4.55-3.68,9.37-6.92,14.32-10c1.55-0.96,3.52-1.73,4.43-3.15c4.5-6.96,11.99-8.63,19-10.99
		c4.39-1.48,8.27-3.26,11.1-7.11c3.58-4.85,9.29-6.17,14.53-8.18c1.38-0.53,2.9-0.78,4.38-0.98c5.2-0.7,9.54-2.65,12.21-7.52
		c0.86-1.58,2.22-2.89,3.48-4.48c-3.28-2.52-6.93-4.15-10.74-5.13c-5.54-1.43-10.1-4.23-13.79-8.5c-4.18-4.85-9.39-7.83-15.64-9.16
		c-1.43-0.3-2.85-0.98-4.1-1.75c-4.56-2.8-9.18-5.29-14.66-5.95c-2.71-0.32-4.77-2.28-6.76-4.07c-3.71-3.34-7.75-5.67-13.04-4.89
		c-5.5,0.81-10.06-1.24-14.16-4.79c-2.94-2.54-6.5-3.99-10.13-5.29c-5.35-1.91-9.31-5.73-12.86-9.95
		c-3.55-4.22-3.92-8.96-1.95-14.06c2.36-6.13,8.94-11.85,14.87-11.42c7.99,0.58,15.58-0.88,23.15-2.89
		c6.11-1.63,11.64-1.43,16.99,2.68c6.9,5.29,14.96,7.02,23.57,5.69c4.81-0.74,8.55,1.96,13.46,4.27
		c-1.39-5.85,0.58-10.05,3.31-14.16c1.68-2.53,0.71-4.95-2.36-7.07c-1.63-1.13-3.31-2.31-5.03-3.19
		c-7.2-3.68-8.52-10.77-10.21-17.45c-1.24-4.9,4.72-16,9.14-18.52c1.05-0.6,2.15-0.78,3.33-0.92c6.01-0.73,11.64,0.72,16.92,3.35
		c3.18,1.58,5.35,4.31,6.82,7.68c2.72,6.24,6.63,11.7,13.01,14.5c5.05,2.21,7.34,6.09,9.55,10.79c3.19,6.75,4.12,13.66,3.51,20.88
		c-0.5,5.85,0.42,11.26,3.72,16.19c2.26,3.38,2.31,7.26,2.13,11.1c-0.21,4.23,0.64,7.88,4.23,10.56c0.78,0.58,1.41,1.44,1.93,2.28
		c3.93,6.36,9.25,11.25,15.65,15.04c2.21,1.31,3.59,3.44,5.08,5.44c1.39,1.87,2.56,3.98,4.25,5.54c3.62,3.34,7.07,7.04,13.07,4.66
		c2.66-1.06,5.88-0.99,8.89-0.24c1.11,0.28,2.34,0.41,3.47,0.25c2.99-0.44,5.4-2.23,6.73-4.71c1.38-2.56-1.13-4.21-2.67-5.86
		c-1.81-1.95-3.69-3.86-5.63-5.68c-1.75-1.64-3.04-3.36-3.21-5.95c-0.2-3.22-2.67-5.28-4.65-7.49c-1.56-1.74-3.04-3.46-4.07-5.62
		c-3.52-7.43,0.53-12.53,6.14-15.71c1.39-0.79,2.86-0.68,4.36-0.24c5.84,1.7,11.38,4.07,15.44,8.73c2.8,3.21,5.83,6.06,9.81,7.47
		c6.55,2.32,10.65,7.22,14.21,12.73c1.14,1.77,2.33,3.2,4.79,3.66c-0.68-5.38-1.44-10.6-1.99-15.85
		c-1.51-14.33-1.04-28.6,1.68-42.77c1.07-5.55-1.91-11.17-7.16-13.07c-3.84-1.39-7.05-3.47-9.81-6.59
		c-3.46-3.91-7.63-6.82-13.16-7.42c-6.92-0.76-13.94-3.25-20.7-0.48c-4.68,1.92-9.32,2.02-14.11,2.26
		c-2.46,0.12-4.52-0.62-6.59-1.86c-7.09-4.25-13.11-9.68-18.13-16.23c-2.65-3.45-5.71-6.3-9.61-8.53c-4.62-2.64-8.5-6.5-11.41-11.01
		c-3.32-5.15-7.26-9.18-12.96-11.93c-6.13-2.96-12.31-5.84-18.39-8.91c-2.38-1.2-4.79-1.1-7.3-0.95
		c-6.62,0.38-12.88-0.51-18.31-4.86c-3.98-3.19-5.91-7.43-5.24-12.2c0.75-5.35,5.05-8.1,9.95-9.31c3.19-0.79,6.61-0.96,9.92-0.95
		c4.13,0.01,7.84-1.06,11.49-2.87c4.57-2.27,9.24-3.78,14.28-1.11c1.48,0.78,3.27,0.84,4.91,0.49c3.97-0.85,7.32,0.26,10.75,2.35
		c8.77,5.34,17.71,10.39,26.61,15.52c5.71,3.29,9.02,8.79,12.69,13.89c2.8,3.9,5.69,6.44,10.78,4.36c2.4-0.99,4.84,1.31,7.28,0.2
		c3.38-4.78,3.12-9.1-0.78-13.57c-2.38-2.73-4.02-6.09-6.01-9.17c-2.32-3.59-0.86-6.62,1.31-9.63c2.17-3.01,4.89-4.42,8.61-3.45
		c1.6,0.42,3.2,0.84,4.99,1.3c2.03-2.98,2.37-6.18,1.47-9.47c-1.49-5.44-1.33-10.9-0.32-16.33c1.89-10.22,0.15-12.95-9.94-15.14
		c-3.64-0.79-7.26-0.89-10.92-0.33c-7.79,1.19-14.68-0.1-20.8-5.75c-3.35-3.09-7.81-5.01-11.87-7.29c-2.08-1.17-4.07-2.47-5.3-4.46
		c-3.18-5.17-7.62-9.2-11.71-13.57c-3.15-3.36-3.78-7.28-2.37-11.53c1.74-5.23,5.09-6.96,10.38-5.58c3.61,0.94,6.86,2.47,9.57,5.11
		c2.19,2.14,4.73,3.63,7.96,3.67c4.14,0.05,7.05,2.81,10.13,5c2.21,1.57,4.49,2.45,7,1.54c4.82-1.75,9.75-1.51,14.85-1.03
		c0.2-1.86-0.86-3.14-1.68-4.09c-4.16-4.78-5.51-10.53-6.25-16.55c-0.33-2.7-1.44-5.01-2.78-7.38c-4.4-7.73-8.07-15.73-6.96-25.03
		c0.42-3.48-0.52-6.45-2.9-9.16c-9.52-10.88-0.43-29.22,12.42-31.14c4.82-0.72,9.39,0.68,13.13,3.66
		c5.2,4.14,10.07,8.72,15.04,13.15c2.15,1.92,3.98,4.17,4.54,7.03c1.56,7.91,5.96,14.37,10.25,20.91c2.98,4.53,4.91,9.55,5.61,14.84
		c0.95,7.25,4.56,13.1,8.58,18.86c0.57,0.82,1.22,1.59,1.9,2.32c9.62,10.36,12.14,23,11.43,36.53c-0.3,5.67,0.8,10.75,3.73,15.58
		c1.88-0.82,1.9-2.31,1.8-3.84c-0.24-3.53,1.11-6.55,3.17-9.24c2.35-3.05,3.35-6.4,3.18-10.23c-0.11-2.49-0.08-5.01,0.17-7.49
		c0.58-5.55,4.95-9.64,10.24-9.82c5.17-0.17,9.91,3.68,11,8.97c0.17,0.81,0.3,1.64,0.37,2.47c0.51,6.11,0.73,12.21,3.13,18.07
		c0.96,2.34,0.81,5.28,0.62,7.91c-0.33,4.67-0.54,9.26,0.56,13.9c0.61,2.58,0.03,5.24-1.02,7.81c-2.83,6.92-5.78,13.79-9.36,20.33
		c-1.18,2.16-0.94,3.74-0.08,5.55c2.95,6.2,8.65,8.98,14.61,11.24c4.51,1.71,9.14,3.07,13.5,5.92c6-3.37,11.95-7.07,18.58-9.35
		c2.99-1.03,5.94-2.18,8.97-3.08c7.49-2.22,11.19-6.99,10.9-14.92c-0.25-6.83,0.8-13.19,4.52-19.09c3.24-5.13,4.17-11.03,3.2-16.84
		c-1.37-8.18,0.92-15.32,5.51-21.62c4.02-5.52,5.87-11.44,6.25-18.06c0.36-6.34,2.26-11.95,7.16-16.47c9-8.31,21.62-5.34,25.76,6.19
		c2.38,6.64,1.07,13.55,1.69,20.32c0.15,1.59-0.53,3.25,0.67,5.14c2.14-2.77,4.98-4.43,7.65-6.33c2.19-1.57,4.03-3.53,5.05-6.07
		c1.79-4.47,4.8-7.87,8.56-10.82c5.79-4.54,6.65-13.1,2.07-18.68c-1.35-1.64-3.16-2.36-5.26-2.49c-1.66-0.11-3.44-0.11-4.81-1.13
		c-4.06-3.01-8.33-5.31-13.46-6.09c-2.41-0.37-3.79-2.76-4.54-4.95c-1.05-3.06-2.57-5.77-4.57-8.25c-0.86-1.07-1.36-2.3-1.56-3.63
		c-0.74-4.84-2.56-9.24-4.85-13.55c-1.88-3.54-0.71-7.06,2.69-9.54c3.14-2.29,6.42-2.01,9.45,0.92c0.95,0.92,1.83,1.96,2.52,3.08
		c1.74,2.84,3.46,5.53,6.47,7.39c2.07,1.28,3.51,3.58,4.16,6.07c1.02,3.9,3.08,2.98,5.78,1.44c-2.12-4.72-1.28-9.29-0.4-13.87
		c0.67-3.49,0.44-6.9-0.53-10.36c-1.72-6.1-3.17-12.24-1.06-18.64c3.57-10.86,15.94-14.96,23.83-7.79c0.61,0.56,1.41,1.11,1.68,1.83
		c3.53,9.61,11.19,16.87,14.98,26.32c1.43,3.57,2.77,7.2,2.62,11.11c-0.17,4.71,1.94,8.42,5.08,11.51c3.27,3.22,4.83,7.01,5.5,11.45
		c0.98,6.55,1.48,7.43,5.1,12c3.02-1.09,6.34-1.35,9.53-0.33c3.57,1.14,6.5,0.12,9.3-1.81c0.01-8.45,2.95-16.04,6.46-23.3
		c2.47-5.11,6.28-6.58,10.52-5.5c3.7,0.95,6.13,5.12,6.8,10.13c1.34,10.09-1.27,19.79-2.39,29.64c-0.17,1.52-0.82,2.94-1.9,4
		c-2.03,2-2.73,4.36-2.95,7.17c-0.28,3.65-2.49,6.28-6.06,7.07c-6.02,1.34-11.08,4.41-15.89,8.03c-1.62,1.22-3.2,2.62-5.27,2.63
		c-3.89,0.02-5.97,2.34-7.82,5.33c-1.81,2.94-3,6.31-6.62,8.88c3.79,0.73,7.01,0.39,9.61,2.39c4.46,3.44,6.54,9.84,4.44,15.77
		c-1.9,5.37-3.49,10.69-3.72,16.46c-0.17,4.22-2.27,7.95-4.36,11.59c-3.44,5.97-5.35,12.39-3.35,19.16
		c1.87,6.29,0.51,11.87-2.46,17.25c-1.11,2.02-1.76,4-1.44,6.16c0.48,3.25,0.02,6.32-1.17,9.29c-0.76,1.91-0.55,3.31,1,4.88
		c10.61,10.73,18.85,23.23,26.73,36.56c1.57-1.8,1.48-3.79,1.93-5.56c0.74-2.9,1.31-5.84,3.51-8.14c6.04-6.31,14.1-4.54,16.69,3.79
		c0.74,2.37,1.14,4.83,0.45,7.39c-0.73,2.69-0.24,5.17,1.34,7.6c1.82,2.81,3.31,5.85,2.69,9.88c4.26-5.11,10.16-7.5,15.21-11.1
		c1.51-1.08,2.08-2.98,3.02-4.55c2.91-4.86,5.58-9.94,10.92-12.69c2.13-1.1,2.54-2.94,2.35-5.04c-0.09-0.99-0.29-2-0.65-2.92
		c-3.15-7.85-3.85-15.7-0.72-23.8c1.1-2.85,0.4-5.91-0.68-8.8c-1.87-4.98-2.37-9.87-0.15-15.04c2.08-4.84,1.72-9.69-1.66-14.16
		c-7.45-9.84-0.38-30.33,13.52-32.71c5.91-1.01,10.15,1,13.69,5.09c2.5,2.89,4.27,6.29,4.98,10.21c1.18,6.58,3.14,12.72,7.59,18.14
		c3.39,4.14,4.66,9.45,3.69,15.05c-0.62,3.61-0.82,7.28-0.55,10.96c0.15,2.04,0.48,3.97,2.46,5.59c6.35-1.18,12.59-3.22,18.36-6.6
		c2.3-1.35,4.51-2.86,6.86-4.1c6.63-3.5,13.45-5.52,21.09-3.35c6.26,1.78,12.47,1.54,18.39-1.75c6.38-3.55,13.42-4.43,20.35-2.71
		c6.93,1.72,13.23,0.1,19.54-2.01c5.46-1.83,10.64-1.77,16.1,0.15c5.81,2.05,11.75,3.06,18.13,2.12
		c10.08-1.49,19.21,7.25,18.25,16.85c-0.6,5.99-4.62,9.64-9.56,11.89c-8.48,3.85-17.21,7.14-25.88,10.55
		c-2.82,1.11-5.88,1.33-8.87,1.11c-8.32-0.6-16.14,0.42-23.31,5.24c-8.16,5.49-17.37,6.27-26.87,4.8c-4.53-0.7-8.91,0.07-13.37,0.7
		c-6.48,0.92-10.08,6.13-15.11,9.18c0.89,4.73,3.32,7.33,8.09,8.33c4.18,0.88,8.08,2.66,11.5,5.64c3.94,3.43,8.64,5.27,14.16,5.32
		c6.09,0.06,11.62,2.84,17.02,5.37c5,2.35,7.28,9.44,5.6,15.28c-1.23,4.28-7.03,8.36-12.28,7.71c-7.39-0.91-14.59-1-21.69,1.48
		c-0.74,0.26-1.7,0.22-2.47,0.01c-7.36-1.97-14.88-1.18-22.3-0.98c-5.19,0.14-9.89-0.83-14.41-3.13c-2.99-1.53-6.15-2.51-9.41-3.3
		c-7.28-1.76-14.1-2.16-19.62,4.42c-1.66,1.98-4.12,3.44-6.45,4.66c-6.93,3.63-12.42,8.88-17.29,14.84
		c-4.71,5.77-11.17,8.9-17.77,11.65c-7.95,3.31-14.96,7.93-21.3,13.71c-1.98,1.81-2.99,3.73-2.91,6.5
		c0.28,10.67-0.13,21.32-1.84,31.88c-0.54,3.3,0.56,5.89,3.1,7.92c3.99,3.19,8.27,5.72,13.65,5.06c5-0.62,9.55,0.5,13.88,3.01
		c1.27,0.74,2.75,1.41,4.19,1.54c6.35,0.58,11.04,4.44,15.94,7.84c3.5,2.43,4.54,6.12,4.05,10.14c-0.49,4.05-3.04,6.51-6.87,7.76
		c-1.59,0.52-3.19,0.84-4.86,1.03c-4.74,0.56-9.54,0.48-14.07,2.75c-2.8,1.4-6.23,0.62-9.36,0.35c-3.22-0.28-6.25-0.42-8.97,1.86
		c-1.78,1.5-4.1,1.37-6.24,0.96c-9.58-1.84-16.21,4.33-19.69,13.01c-8.08,20.16-18.15,39.24-30.95,56.89
		c-9.61,13.25-20.48,25.42-31.05,37.85c-5.28,6.22-8.92,13.29-11.02,21.06c-1.82,6.75-1.94,13.51,2.79,19.5
		c1.43,1.82,2.48,3.93,4.01,6.4c6.9-1.29,14.17-1.09,21.45-0.42c16.81,1.55,30.46,8.78,40.72,22.31c2.79,3.68,4.59,7.79,5.28,12.27
		c1.48,9.55,1.94,19.01-0.93,28.56c-3.18,10.57-7.42,20.45-12.78,30.17c-4.44,8.05-9.87,14.84-16.13,21.3
		c-2.02,2.09-3.14,5.05-4.63,7.65c-2.44,4.26-5.78,7.67-10.81,7.95c-7.49,0.42-14.09,3.38-20.98,5.8
		c-16.68,5.85-33.84,8.63-51.59,6.36c-5.56-0.71-5.55-0.55-8.07,4.15c-0.94,1.76-2,3.46-3.04,5.16c-4.59,7.54-11.09,8.75-19.6,6.37
		c-3.67-1.03-6.33-3.47-7.35-7.47c-1.4-5.48-3.09-10.88-4.5-16.36c-0.87-3.39-2.45-5.77-5.78-7.53
		c-10.97-5.77-20.86-13.1-29.34-22.21c-2.2-2.36-4.35-3.97-8-4.08c-7.54-0.22-12.9-5.62-14.14-13.08
		c-1.81-10.82-2.01-21.88-4.69-32.56c-0.94-3.76,0.38-6.5,3.18-8.77c8.68-7.04,17.61-13.8,27.41-19.15
		c7.32-3.99,15.69-5.41,23.73-7.57C331.43,612.52,335.73,611.34,340,610.18z"/>
</g>
</svg>
