<?xml version="1.0" encoding="utf-8"?>
<!-- Generator: Adobe Illustrator 24.0.2, SVG Export Plug-In . SVG Version: 6.00 Build 0)  -->
<svg version="1.1" id="Layer_1" xmlns="http://www.w3.org/2000/svg" xmlns:xlink="http://www.w3.org/1999/xlink" x="0px" y="0px"
	 viewBox="0 0 823.75 861.21" style="enable-background:new 0 0 823.75 861.21;" xml:space="preserve">
<g>
	<path d="M273.81,787.5c-3.22-2.79-1.29-7.11-3.52-10.83c-4.6,8.06-8.77,15.53-13.1,22.91c-7.66,13.06-15.97,25.72-24.17,38.44
		c-0.67,1.04-1.42,2.05-2.75,1.66c-1.66-0.49-2.28-1.89-2.08-3.53c1.55-12.59,0.64-25.3,2.17-37.9c1.64-13.53,3.41-27.04,5.49-40.62
		c-5.63-0.75-8.35,5.33-13.99,5.47c0.02-5.76,1.69-11.07,3.03-16.24c-1.46-1.1-2.19-0.1-2.93,0.41
		c-13.12,9.1-26.26,18.17-39.99,26.33c-2,1.19-4.16,2.09-6.23,3.16c-1.7,0.88-3.17,0.85-4.47-1.01c2.68-8.97,8.28-16.46,13.07-24.35
		c17.5-28.84,38.73-54.94,59.79-81.18c12.31-15.34,24.49-30.76,38.37-44.73c6.09-6.14,11.75-12.74,18.68-18.03
		c1.31-1,2.69-1.98,3.66-3.65c-3.77-3.66-8.52-6.17-11.98-10.3c-1.82-2.17-2.28-4.11-2.11-6.75c0.32-5.03,2.68-9.21,4.9-13.51
		c0.83-1.62,1.54-3.3,2.56-5.51c-13.65-4.72-27.34-8.95-39.48-17.04c-12.08-8.04-21.05-19.14-30.81-29.51
		c-4.86,1.04-8.71,3.24-12.06,6.79c-6.51,6.88-13.65,13.14-18.27,21.66c-1.51,2.78-1.97,4.66,0.59,6.92
		c2.89,2.56,4.56,6.1,6.81,8.99c-0.81,2.25-2.49,2.88-4.3,3.39c-4.81,1.35-9.61,2.72-14.61,3.26c-3.33,0.36-3.32,0.49-4.91,4.03
		c7.14,3.61,16.35,1.4,22.67,7.57c-0.45,2.96-2.72,3.97-4.57,5.22c-7.46,5.05-15.63,8.84-23.51,13.15c-1.27,0.7-2.91,0.91-3.52,2.76
		c3.32,3.48,8.68,4.78,11.16,9.52c-1.61,2.1-3.75,2.99-5.87,3.89c-4.45,1.91-8.75,4.14-12.69,6.9c-6.06,4.25-9.63,10.78-12.34,17.19
		c-6.78,16.02-13.35,32.13-19.52,48.41c-3.78,9.97-4.6,20.15-3.37,30.46c0.93,7.82-1.25,14.54-5.4,20.73
		c-4.16,6.21-8.83,12.08-13.28,18.1c-0.63,0.85-1.4,1.42-3.1,1.21c-0.97-5.05-1.98-10.3-3.08-15.99
		c-11.01,2.65-22.19,3.52-33.49,3.04c-2.41-0.1-4.73-0.08-5.88-2.73c-0.74-1.69-2.2-1.24-3.46-1.08
		c-6.76,0.85-11.61-1.73-15.91-7.09c-5-6.23-9.59-12.79-14.83-18.83c-3.42-3.95-3.18-4.81-0.55-9.13
		c6.74-11.09,13.21-22.36,20.23-33.27c9.64-14.96,19.02-30.1,29.63-44.41c4.31-5.82,9.87-10.4,15.43-14.88
		c12.71-10.27,24.9-21.18,36.58-32.51c18.8-18.26,34.87-38.86,46.9-62.35c3.45-6.74,5.5-13.86,6.04-21.42
		c0.22-3-0.53-5.43-2.89-7.57c-2.7-2.46-5.08-5.28-7.44-8.08c-1.96-2.32-3.93-3.04-6.98-1.86c-16.09,6.25-32.67,11.08-49.02,16.58
		c-5.33,1.8-10.84,3.2-16.36,4.29c-4.33,0.85-8.34-0.47-10.96-4.3c-2.07-3.02-3.59-6.33-4.49-9.96
		c-4.61-18.56-7.53-37.46-11.4-56.17c-2.42-11.7-3.57-23.67-5.46-35.49c-1.03-6.39-2.09-12.78-3.83-19.05
		c-0.89-3.21-2.8-4.26-5.99-4.7c-12.21-1.68-24.27-0.46-36.28,1.54c-7.72,1.28-15.39,2.79-23.39-0.4c-0.94-2.06-1.41-5.41-0.14-6.85
		c5.29-6.01,2.69-13.47,4.46-20.08c1.9-7.06,2.9-14.35,4.41-21.51c1.55-7.33,3.16-14.65,4.9-21.94
		c3.21-13.43,6.84-26.84,12.17-39.51c5.32-12.65,10.89-25.27,18-37.15c10.27-17.14,21.35-33.7,33.89-49.24
		c4.6-5.7,8.99-11.54,13.39-17.39c1.42-1.89,2.95-3.61,6.52-3.54c-4.28,11.53-9.42,22.27-14.95,34.08c5.36-2.9,7.51-7.97,12.51-9.89
		c1.15,3.06-0.37,5.58-1.4,7.67c-7.3,14.8-12.17,30.54-18.24,45.81c-0.23,0.59-0.63,1.2-0.07,1.91c1.55,0.8,3.12-0.9,4.73-0.17
		c0.83,1.35-0.2,2.21-0.82,3.1c-1.51,2.2-3.14,4.31-4.63,6.52c-2.63,3.91-4.23,7.98-4.4,12.95c-0.46,13.31-2.95,26.45-3.65,39.77
		c-0.62,11.8-1.3,23.6-1.62,35.42c-0.04,1.34-0.15,2.68,1.41,3.39c1.72,0.78,2.85-0.27,4.03-1.18c10.04-7.76,20.85-14.27,32.3-19.67
		c8.59-4.05,17.73-6.56,27.09-8.16c4.68-0.8,7.29,0.88,8.44,5.56c3.26,13.23,6.24,26.53,9.64,39.72c2.49,9.66,5.48,19.18,8.24,28.77
		c0.42,1.46,0.95,2.85,2.7,3.68c2.94-1.44,4.81-4.31,7.13-6.55c4.08-3.95,8.52-7.45,12.81-11.14c4.92-4.23,11.06-4.16,17.05-4.29
		c5.16-0.11,10.34,0.07,15.46,0.76c2.37,0.32,4.21,0.04,5.5-2.22c0.48-0.84,1.33-1.49,2.08-2.14c4.48-3.9,7.59-4.2,12.5-0.81
		c3.69,2.55,7.29,5.27,10.48,8.47c1.26,1.27,2.39,2.89,5.05,2.34c1.15-6.06,2.35-12.3,4.53-18.52c-2.57-4.05-4.85-8.56-5.08-13.85
		c-0.41-9.47-0.11-18.96-2.38-28.32c-1.03-4.24-2.36-8.36-4.06-12.27c-1.65-3.81-1.84-7.39-0.78-11.15
		c2.85-10.07,5.48-20.19,7.73-30.42c2.54-11.54,4.43-23.18,6.22-34.84c1.8-11.69,3.23-23.42,2.94-35.29
		c-0.07-3.04,1.14-5.38,3.36-7.46c5.95-5.57,11.81-11.23,17.63-16.93c10.26-10.05,19.08-21.28,27.34-33.03
		c7.28-10.36,13.22-21.54,20.78-31.74c6.31-8.52,13.77-14.54,24.21-17.13c12.09-3.01,23.94-7.05,36.06-9.88
		c12.6-2.95,25.07-6.42,37.89-8.64c11.92-2.07,23.03-6.51,33.11-14.1c14.88-11.2,29.45-22.85,44.79-33.44
		c9.67-6.68,20.55-9.92,32-11.61c13.18-1.95,26.38-3.8,39.77-3.22c7.84,0.34,15.47,2.14,23.12,3.59c18.31,3.45,36.8,5.68,55.25,8.06
		c17.49,2.25,34.84,5.17,52.15,8.42c5.38,1.01,10.87,1.49,16.2,2.88c1.59,0.42,3.31,0.53,4.19,2.84c-4.05,0.85-7.99,2.36-11.94,2.37
		c-15.52,0.06-30.85,2.36-46.69,3.48c2.28,3.12,6.66,1.01,9.35,4.66c-13.51,3.42-26.73,5.6-40.03,7.32
		c-0.16,2.35,2.73,1.91,3.09,4.33c-8.23,3.38-17.46,2.1-25.95,4.76c-8.32,2.6-17,4.05-25.33,5.95c-0.37,2.3,2.22,2.55,1.66,4.81
		c-5.56,2.22-11.85,2.89-17.9,4.36c-3.71,0.9-7.42,1.89-11.06,2.93c-4.62,1.32-8.12,4.09-10.51,9.03
		c-6.21,12.86-11.22,26.28-17.98,38.89c-1.38,2.58-1.86,5.69-2.46,8.62c-0.52,2.55-1.83,4.03-4.24,5.03
		c-5.84,2.44-11.83,4.48-17.93,6.02c-8.12,2.05-15.7,5.43-23.27,8.78c-3.12,1.38-5.62,1.24-8.51-0.13c-5.7-2.72-11-6.18-16.75-8.84
		c-3.21-1.48-6.49-2.73-9.86-3.47c-4.38-0.96-8.58-0.81-12.91,1.68c-11.04,6.34-21.16,13.87-30.92,21.96
		c-4.29,3.55-6.12,7.66-5.21,13.57c1.17,7.54,1.49,15.26,1.53,22.9c0.03,5.42-2.96,10.21-5.67,14.68
		c-1.98,3.28-3.49,6.77-5.45,10.03c-6.01,10-10.1,20.92-15.07,31.42c-2.25,4.75-3.09,9.66-0.3,14.32c3,5.01,4.71,10.6,7.58,15.85
		c13.97-0.92,23.85,8.08,34.8,14.38c5.2,2.99,9.42,7.38,13.97,11.28c1.7,1.45,3.23,2.01,5.4,1.08c10.36-4.44,21.46-5.83,32.49-7.1
		c5.08-0.59,10.15-1.91,15.36-1.4c6.29,0.62,7.73,1.99,8.49,8.19c0.51,4.16,0.42,8.31-0.11,12.45c-0.36,2.78,0.36,4.83,2.94,6.24
		c7.21,3.94,13.18,9.56,19.56,14.62c1.93,1.53,3.91,2.15,6.39,2.24c6.13,0.22,12.29-0.16,18.39,0.65c1.22,0.16,2.21-0.26,3.29-0.82
		c8.71-4.55,14.6-12.17,19.84-19.91c3.57-5.26,3.61-12.34,4.56-18.77c1.66-11.19,2.97-22.43,5.08-33.57
		c1.71-9.02,6.79-15.75,13.09-21.83c10.31-9.94,20.9-19.57,31.64-29.05c3-2.64,6.03-5.16,9.41-7.37c4.03-2.64,8.23-3.45,12.82-2.99
		c7.79,0.77,15.56,1.73,23.14,3.78c9.81,2.66,19.85,4.22,29.72,6.62c4.77,1.16,9.93,0.8,14.92,0.96c2.06,0.07,3.69-1.05,5.28-2.44
		c10.66-9.32,20.27-19.76,31.1-28.92c9.91-8.39,19.93-16.49,30.84-23.64c10.64-6.98,21.74-12.9,33.33-17.98
		c4.24-1.86,8.82-2.96,13.24-4.42c1.7-0.56,2.48,0.1,2.64,1.37c-13.87,10.05-25.87,21.93-39.68,32.56c5.13,1.15,9.51-2.12,13.9-0.45
		c0.32,2.44-1.19,3.35-2.57,4.19c-11.15,6.77-20.41,16-30.83,23.72c-10.47,7.76-19.46,17.23-28.24,26.8
		c-7.93,8.64-14.1,18.46-17.35,29.95c-0.71,2.52-1.76,4.99-2.58,7.51c-1.06,3.28-2.99,5.92-6.23,7.44c-6.63,3.1-13.23,6.28-19.9,9.3
		c-2.9,1.32-5.9,0.71-8.75-0.38c-1.39-0.53-2.79-1.17-4.01-2.01c-6.78-4.67-13.15-3-19.52,0.96c-1.9,1.18-2.85,2.39-2.63,4.79
		c1.68,18.04,1.29,36.27,4.6,54.17c0.52,2.79,0.03,5.35-1.48,7.65c-4.75,7.25-9.81,14.25-16.02,20.38
		c-3.23,3.19-7.03,4.94-11.34,5.9c-5.71,1.27-11.18,3.17-16.42,5.81c-4.23,2.13-6.73,5.68-9.09,9.74c3.79,2.07,7.85,2.41,11.6,3.66
		c1.79,0.6,3.44,1.14,4.69,2.59c6.39,7.44,12.58,15.03,17.96,23.26c1.67,2.55,1.8,5.2,0.57,7.57c-1.69,3.28-1.2,6.79-1.76,10.58
		c52.44-27.04,102.58-57.83,152.27-90.15c0.84,3.35-1.31,4.85-2.72,6.45c-6.38,7.24-12.77,14.5-19.42,21.49
		c-9.98,10.5-20.19,20.79-30.3,31.18c-0.56,0.58-1.36,1.01-1.41,2.42c3.47-0.32,5.9-3.51,9.32-3.43c1.97,2.6-0.03,4-1.41,5.61
		c-10.43,12.1-20.51,24.47-30.1,37.25c-6.75,9-10.89,19.01-12.5,30.02c-1.18,8.05-5.21,13.97-11.2,19.31
		c-9.95,8.88-20.93,16.48-30.7,25.56c-7.12,6.62-12.79,14.19-17.4,23.82c4.71-2.39,8-5.53,13.19-7.09
		c-0.61,7.57-6.62,12.22-8.31,19.9c9.62-3.87,16.95-10.84,26.62-13c0.41,3.52-3.21,4.75-2.89,8.07c6.32-2.14,12.15-5.45,19.52-6.59
		c-1.2,3.55-3.4,4.96-5.17,6.43c-12.82,10.68-24.6,22.4-36.01,34.55c-6.31,6.71-9.87,14.68-9.82,23.8
		c0.02,3.89,0.77,7.88,0.97,11.86c0.24,5.03-2.42,8.4-6.5,10.25c-8.64,3.91-17.54,7.28-25.77,12c-9.22,5.29-18.88,9.96-27.38,16.35
		c-5.26,3.96-9.22,9.49-13.73,14.98c7.36,5.86,14.81,11.37,21.78,17.45c6.89,6.02,15.12,10.54,21.38,17.85
		c-2.65,2.3-5.16,2.14-7.58,2.27c-18.32,0.92-36.58,0.3-55.68-2.67c2.92,4.46,6.89,6.69,9.89,9.83c4.93,5.14,10.12,10.05,14.9,15.32
		c1.7,1.88,3.71,3.31,5.49,5.04c9.1,8.8,16.61,19.02,25.35,28.15c1.04,1.09,2.17,2.29,0.91,3.91c-0.9,1.15-1.95,0.63-3.13,0.29
		c-12.46-3.57-24.96-7.01-37.42-10.59c-19.5-5.6-38.96-11.37-57.93-18.6c-8.23-3.13-16.9-5.09-24.7-9.37
		c-0.76-0.42-1.79-0.93-3.32-0.16c6.56,7.9,13.04,15.71,19.82,23.88c-3.52,2.15-6.11,0.98-8.54-0.31
		c-8.52-4.53-17.01-9.14-25.47-13.77c-10.5-5.76-20.97-11.58-31.47-17.35c-1.01-0.55-2.09-1.17-3.2-1.32
		c-2.37-0.33-4.05,0.5-3.54,3.3c0.73,4.08,1.05,8.23,2.29,12.25c1.42,4.58,2.18,9.31,1.01,14.88
		c-11.71-7.39-20.34-17.32-29.79-28.24c-1.29,24.41-1.55,47.63-3.17,70.83c-3.46-0.33-3.88-2.55-4.82-4.2
		c-8.01-14.05-13.82-29.1-19.95-44c-0.72-1.76-0.86-3.95-3.15-5.07c-3.17,8.68-4.77,17.81-8.35,26.23c-0.4-0.01-0.79-0.02-1.19-0.02
		c-2.77-5.01-5.55-10.02-8.74-15.79c-14.52,33.58-28.78,66.6-43.05,99.61c-0.48-0.07-0.95-0.14-1.43-0.21
		c-4.16-6.01-4.93-13.32-7.23-20.06c-2.42-7.1-3.99-14.42-5.77-21.69c-1.74-7.1-2.49-14.43-4.19-21.5
		c-1.63-6.82-0.97-14.22-4.34-21.59C280.1,780.78,277.34,784.46,273.81,787.5z M377.19,577.57c2.06,1.07,3.85-0.02,5.67,0.29
		c8.18,1.41,16.5,1.64,24.68,3.33c4.87,1.01,9.76,2.06,14.63,3.06c4.84,0.99,6.98-1.19,9.13-4.64c4.39-7.06,8.95-14.02,13.39-21.05
		c2.24-3.55,5.15-6.54,7.94-9.6c4.09-4.48,9.65-3.75,14.94-3.65c7.69,0.15,15.14,2.31,22.74,2.97c15.28,1.34,30.05,5.59,45.25,7.31
		c4.6,0.52,9.18,1.85,13.78,0.04c6.65-2.62,13.31-5.23,19.67-8.5c6.29-3.23,11.81-7.11,14.58-14.24
		c4.43-11.44,9.74-22.54,13.53-34.24c2.75-8.49,6.16-16.78,8.02-25.53c1.73-8.16,6.69-13.45,13.82-17.22
		c2.14-1.13,4.74-1.73,6.46-4.5c-3.79-4.24-7.71-8.5-11.49-12.88c-2.74-3.18-5.97-4.26-10.17-3.74c-3.61,0.45-7.32-0.03-10.97,0.16
		c-3.84,0.2-7.81-0.4-11.34,0.89c-0.32,1.45,0.3,1.92,0.96,2.49c6.2,5.29,12.33,10.67,17.6,16.92c1.63,1.93,3.74,3.84,2.54,7.35
		c-12.06,0.03-23.46-3.53-36.18-5.86c3.5,4.99,7.4,8.3,9.05,13.56c-7.18,2.31-13.21-3.09-19.89-2.57c-0.78,1.86,0.55,3.86-0.91,5.58
		c-5.16-1.33-9.43-4.49-13.6-7.15c-1.07,0.52-1.5,1-1.71,1.67c-2.16,6.88-5.6,13.12-9.77,18.95c-6.07,8.48-12.93,15.7-23.58,18.92
		c-8.03,2.43-16.08,3.87-24.32,5.14c-18.64,2.85-36.98,2.4-55.13-2.91c-2.01-0.59-3.77-0.72-5.16,1.53
		c-4.71,7.62-10.16,14.64-16.01,21.5c-6.77,7.92-14.4,14.56-22.47,20.94c-3.35,2.65-7.42,4.39-10.31,7.86
		c2.26,2.84,5.94,4.07,7.1,7.67C380.89,571.26,377.58,574.11,377.19,577.57z M104.62,737.67c-1.88-7.85-3.86-15.76-7.16-24.16
		c-1.87,3.09-3.28,5.13-4.4,7.32c-2.86,5.59-2.57,7.16,2.05,11.75c1.76,1.75,3.69,3.34,5.58,4.95
		C101.77,738.44,102.97,738.86,104.62,737.67z"/>
</g>
</svg>
