<?xml version="1.0" encoding="utf-8"?>
<!-- Generator: Adobe Illustrator 24.0.2, SVG Export Plug-In . SVG Version: 6.00 Build 0)  -->
<svg version="1.1" id="Layer_1" xmlns="http://www.w3.org/2000/svg" xmlns:xlink="http://www.w3.org/1999/xlink" x="0px" y="0px"
	 viewBox="0 0 537.67 861.12" style="enable-background:new 0 0 537.67 861.12;" xml:space="preserve">
<g>
	<path d="M164.32,160.2c-5.86-5.91-11.05-12.62-12.65-20.23c-1.98-9.38-5.61-18.82-3.4-28.89c1.14-5.19,0.15-10.55-0.34-15.83
		c16.23,0.79,32.2,1.51,47.58,7.97c-5.26-18.82,2.29-34.51,9.28-51.05c9.33,6.74,19.99,9.5,29.35,15.68
		c3.65-5.46,7.1-10.9,10.84-16.13c6.12-8.56,13.32-16.03,21.85-22.34c5.19-3.84,9.62-8.67,14.95-12.44
		c7.87-5.57,15.88-10.89,24.26-15.67c1.35-0.77,2.86-0.85,4.32-1.15c2.05-0.42,3.06,0.42,3.34,2.55c1.74,12.93,2.02,25.9,0.5,38.85
		c-1.1,9.41-2.19,18.83-4.44,28.08c-2.69,11.05-6.5,21.65-11.81,31.72c-1.38,2.61-2.41,5.41-3.79,8.56
		c10.33,4.22,21.1,6.82,29.38,13.84c-3.05,14.23-11.17,24.68-23.38,32.51c3.41,3.82,7.35,6.39,10.07,10.16
		c1.1,1.53,2.75,0.53,4.06-0.23c16.92-9.83,35.44-14.7,54.48-18.5c18.26-3.64,36.62-3.78,55.07-3.79
		c17.01-0.01,33.64,2.95,50.32,5.79c4.25,0.72,8.52,1.4,12.78,2.13c2.06,0.35,4.34,0.37,6.44,2.51c-2.52,3.74-4.78,7.79-7.68,11.3
		c-11.46,13.86-22.58,28.05-36.28,39.85c-18.43,15.88-38.47,28.73-61.88,36.58c-21.25,7.12-42.86,10.97-65.05,12.3
		c-6.97,0.42-13.98,0.11-20.97,0.16c-2,0.01-4.02-0.06-5.99,0.2c-3.19,0.42-6.22,4.08-5.67,7.06c1.33,7.27,1.13,14.46,0.02,21.74
		c-0.82,5.42-0.92,10.94-1.65,16.37c-0.89,6.59-3.23,12.81-5.49,19.02c-3.97,10.91-7.86,21.88-13.22,32.2
		c-5.44,10.48-11.2,20.8-16.99,31.09c-2.71,4.81-5.52,9.73-6.69,14.99c-2.61,11.72-3.88,23.31,3.13,34.64
		c6.09,9.85,13.73,17.42,23.95,22.58c3.5,1.77,7.41,2.46,10.95,4.23c3.56,1.78,7.22,0.54,10.67-0.71
		c14.9-5.38,29.25-11.86,42.74-20.33c12.28-7.71,25.31-14.04,39.54-17.5c19.17-4.66,37.66-2.6,55.51,5.66
		c0.6,0.28,1.15,0.68,2.33,0.15c0.17-7.36,0.66-14.95,1.82-22.48c2.08-13.54,5.53-26.56,11.99-38.84
		c6.3-11.95,13.14-23.5,21.2-34.31c2.78-3.72,5.83-7.35,9.27-10.44c10.9-9.8,21.93-19.49,35.26-26.01c2.21-1.08,4.43-2.71,7.04-1.85
		c3.08,1.02,5.5,2.67,6.32,6.34c1.82,8.07,1.66,16.23,1.44,24.36c-0.31,11.15-0.67,22.33-2.15,33.4c-1.1,8.22-2.26,16.47-4.86,24.42
		c-1.47,4.5-1.92,9.29-4.94,14.51c4.62-1.41,7.9-2.3,11.11-3.42c2.77-0.97,5.05-0.36,7.49,1.14c2.57,1.58,2.59,4.31,1.07,5.38
		c-3.85,2.71-4.64,7.11-6.81,10.64c-8.63,14.03-19.96,25.12-33.75,34.01c-6.31,4.07-12.81,7.65-19.66,10.67
		c-4.6,2.03-4.89,3.48-3.43,8.51c1.03,3.57,2.38,6.99,4.42,9.98c4.54,6.64,6.08,14.43,8.39,21.83c2,6.41,1.88,13.42,1.44,20.19
		c-0.77,11.75-2.52,23.41-3.4,35.16c-0.46,6.11-1.21,12.26-1.39,18.37c-0.27,9.42-0.53,18.88,0.76,28.33
		c0.61,4.42,1.24,8.83,2.03,13.23c2.16,12.07,8.76,21.71,16.09,31.15c5.7,7.34,11.24,14.93,15.84,22.98
		c3.44,6.02,4.53,13.11,4.97,20.17c0.79,12.77-1.48,25.22-3.8,37.65c-2.38,12.75-4.8,25.51-7.7,38.15
		c-3.52,15.34-7.05,30.67-13.42,45.25c-3.43,7.84-8.97,11.92-16.73,13.79c-5.01,1.2-9.94,2.68-15.06,3.5
		c-3.97,0.64-7.53-0.05-11.14-1.74c0.05-5.88,3.01-10.61,5.12-15.61c2.78-6.58,6.33-12.81,8.73-19.59
		c3.59-10.13,5.32-20.61,6.72-31.19c1.35-10.23,2.83-20.47,2.67-30.82c-0.13-8.18-1.48-16.09-4.48-23.85
		c-2.3-5.94-7.18-9.1-11.52-12.8c-4.41-3.75-9.64-6.5-14.49-9.71c-9.43-6.24-18.57-12.9-25.73-21.89
		c-2.51-3.15-3.03-7.31-5.99-10.97c-1.72,4.97,0.23,8.89,1.56,12.75c3.65,10.59,9.4,20.12,15.61,29.36
		c2.3,3.42,3.29,7.21,3.85,11.21c1.29,9.12,0.53,18.28,0.54,27.42c0.02,13.82-0.8,27.6-2.43,41.32c-0.74,6.24-4.16,11.5-6.91,16.92
		c-1.22,2.4-4.34,3.56-6.98,4.59c-6.22,2.44-12.81,3.64-19.27,5.17c-6.34,1.51-9.66-2.41-7.66-8.51
		c3.58-10.92,6.88-21.95,8.42-33.31c2.42-17.83,2.06-35.55-5.21-52.51c-2.63-6.14-6.62-10.97-12.58-14.24
		c-9.93-5.44-19.74-11.08-29.58-16.69c-10.38-5.92-18.15-14.48-24.53-24.43c-0.63-0.98-1.16-2.02-1.8-2.99
		c-0.16-0.25-0.52-0.36-0.82-0.56c-1.55,0.62-0.82,1.96-0.86,2.99c-0.34,8.8-0.38,17.61-0.63,26.42c-0.35,12.23-0.34,24.52,1,36.8
		c1.71,15.69,3.19,31.46,2.36,47.28c-0.38,7.23-0.95,14.47-4.2,21.29c-1.44,3.02-1.57,6.74-2.3,10.12
		c-4.18,19.42-11.16,37.92-18.14,56.41c-1.51,4-3.09,8.05-6.38,11.17c-3.7,3.51-7.67,6.28-12.85,7.15
		c-7.04,1.18-13.96,3.12-21.23,2.39c-5.13-0.51-6.32-2.59-3.19-6.73c1.41-1.87,1.75-3.92,2.42-5.91
		c3.64-10.89,7.83-21.63,10.32-32.85c5.08-22.93,9.15-46,8.63-69.66c-0.19-8.35-0.66-16.66-1.98-24.86
		c-1.22-7.54-4.04-14.74-6.29-22.05c-5.01-16.3-13.2-31.19-20.79-46.34c-1.72-3.42-3.48-6.82-5.24-10.22
		c-1.88-3.63-9.94-6.07-13.51-4.18c-1.23,0.65-1.64,1.53-1.48,2.83c0.17,1.32,0.19,2.67,0.47,3.97c4.03,19.1,4.25,38.4,1.72,57.6
		c-2.67,20.23-4.44,40.62-10.61,60.31c-3.76,12-7.74,23.93-11.89,35.78c-2.57,7.34-6.42,14.25-9.9,21.25
		c-1.99,4-5.49,6.72-9.34,8.73c-8,4.16-16.47,7.13-25.3,8.98c-3.92,0.82-7.93,0.06-11.89,0.02c-2.49-0.02-3.55-1.72-2.85-4.14
		c0.65-2.22,1.25-4.48,2.61-6.44c9.24-13.4,15.07-28.38,20.84-43.49c6.38-16.72,9.22-34.08,10.38-51.65
		c0.76-11.55-0.96-23.12-4.79-34.38c-6.25-18.39-11.43-37.16-18.32-55.33c-6.9-18.19-13.17-36.59-18.54-55.28
		c-3.63-12.62-5.79-25.54-7.32-38.63c-2.08-17.82-0.27-35.17,3.78-52.48c3.56-15.23,8.07-30.16,13.21-44.93
		c2.35-6.75,4.41-13.61,6.48-20.45c2.19-7.24,0.5-14.17-2.02-20.98c-0.46-1.25-1.27-2.34-2.46-3.07
		c-5.77-3.56-11.42-6.99-18.57-7.67c-19.44-1.86-37.61-7.56-54.47-17.85c-9.81-5.99-19.56-12.08-28.65-19.02
		c-12.37-9.44-22.03-21.56-31.5-33.93c-7.51-9.82-12.07-20.99-17.48-31.79c-1.75-3.49-1.99-7.7-3.24-11.48
		c-1.22-3.7-0.75-7.61-2.6-11.35c-2.8-5.65,1.35-9.81,4.8-13.71c1.79-2.02,4.13-3.05,6.99-3.39c7.53-0.87,14.96-0.01,22.41,0.74
		c10.11,1.02,10.23,2.87,13.91-8.88c2.75-8.78,6.31-17.12,11.41-24.79c0.09-0.14,0.23-0.26,0.28-0.41
		c3.58-11.73,13.16-19.05,20.81-27.68c4.13-4.66,9.61-8.15,14.63-11.98c12.06-9.21,26.29-13.07,40.69-16.75
		c7.33-1.87,14.72-2.63,22.15-3.5C161.01,162.69,163,162.56,164.32,160.2z"/>
</g>
</svg>
