<?xml version="1.0" encoding="utf-8"?>
<!-- Generator: Adobe Illustrator 24.0.2, SVG Export Plug-In . SVG Version: 6.00 Build 0)  -->
<svg version="1.1" id="Layer_1" xmlns="http://www.w3.org/2000/svg" xmlns:xlink="http://www.w3.org/1999/xlink" x="0px" y="0px"
	 viewBox="0 0 785.14 860.98" style="enable-background:new 0 0 785.14 860.98;" xml:space="preserve">
<g>
	<path d="M709.79,800.2c0.47,4.01,3.31,7.04,3.62,11.12c-5.54-0.27-9.94-2.69-14.35-4.84c-7.03-3.43-14.47-5.71-21.72-8.48
		c-7.94-3.03-16.02-4.14-24.19-5.31c-2.35-0.34-3.45-1.48-4.49-3.33c-3.19-5.65-5.02-11.93-8.52-17.45
		c-3.64-5.74-6.46-11.98-11.04-17.13c-3.31-3.73-5.07-7.98-4.73-13.22c0.4-6.31,0.09-12.66,0.19-18.99c0.04-2.5-0.51-4.31-2.87-5.81
		c-3.35-2.13-4.87-5.33-5.35-9.55c-0.96-8.41-2.74-16.73-4.18-25.09c-0.48-2.8-0.3-5.35,2.69-6.79c2.11-1.01,1.94-2.91,1.78-4.75
		c-0.75-8.24-2.74-16.01-7.95-22.75c-7.73-10.01-15.26-20.18-22.95-30.21c-2.56-3.33-5.75-6.01-9.58-7.85
		c-2.17-1.04-3.75-0.76-5.74,1.04c-7.16,6.46-14.6,12.62-21.99,18.82c-3.82,3.21-8.53,2.63-12.88,2.08
		c-2.61-0.33-4.29-2.42-4.63-5.67c-0.83-7.94-9.84-16.36-18.54-17.53c-3.96,6.84-8.06,13.81-12.02,20.85
		c-1.33,2.35-1.8,4.74-0.74,7.61c1.2,3.23,0.88,6.86,1.55,10.31c0.63,3.23,2.78,5.57,3.55,8.71c1.8,7.33,2.04,14.84,3.18,22.24
		c1.91,12.39,5.18,24.38,9.51,36.1c4.78,12.98,11.29,25.11,18.39,36.94c1.71,2.85,3.62,5.58,5.46,8.35c0.93,1.4,1.75,2.82,1.43,5.17
		c-8.29,0.35-15.77-3.89-24.47-5.07c1,6.99,6.24,12.03,5.69,19.43c-11.22-2.32-20.07-9.75-30.9-12.74
		c-1.21,4.8,2.88,8.17,1.95,13.02c-12.24-2.45-22.71-10.05-34.91-13.09c-1.31,3.79-1.24,6.76-1.05,9.73
		c0.66,10.3,1.38,20.6,2.02,30.9c0.14,2.24,1.09,4.18,1.95,6.15c4.01,9.16,6.23,18.94,9.9,28.22c0.31,0.78,0.49,1.59,0,2.49
		c-1.5,1.24-3.06,0.61-4.56-0.15c-4.29-2.19-8.85-3.87-12.85-6.59c-3.23-2.2-6.92-3.29-10.55-4.41c-6.91-2.14-14.66,1.96-17.13,8.67
		c-1.05,2.85-1.31,5.83-1.8,8.79c-0.43,2.6-0.86,5.23-2.13,7.94c-4.13-1.33-5.66-5.11-8.07-7.85c-2.4-2.72-4.49-5.74-6.49-8.77
		c-2.07-3.14-4.73-4.69-8.53-5.25c-9.86-1.46-9.74-1.61-12.88,8.23c-1.79,5.61-3.95,11.1-5.91,16.54c-2.25-0.38-2.31-1.92-2.81-3.07
		c-3.61-8.2-7.38-16.35-10.68-24.67c-1.01-2.55-3.53-3.47-4.49-6.26c-1.72-4.96-1.9-9.85-1.29-14.75c1.01-8.1,1.78-16.16,1.64-24.35
		c-0.1-5.56-1.12-10.92-1.96-16.33c-0.83-5.32-0.48-10.17,1.5-15.39c4.43-11.64,7.51-23.73,9.45-36.07c0.28-1.77,0.36-3.3-1.44-4.33
		c-2.37-1.35-2.9-3.61-2.61-6.04c1.11-9.27,3.44-18.28,6.09-27.21c0.58-1.96,1.77-3.74,4.05-3.98c4.47-0.47,5.45-3.96,6.32-7.33
		c0.62-2.39,0.81-4.93,0.88-7.42c0.28-10.26,5.44-18.7,9.97-27.4c2.15-4.13,4.26-8.27,6.41-12.39c0.82-1.57,0.81-2.96,0.12-4.71
		c-1.2-3.06-3.2-5.49-5.49-7.61c-1.8-1.67-3.97-2.21-6.84-1.8c-14.52,2.09-28.71,5.73-43.01,8.78
		c-11.55,2.47-22.64,6.62-32.98,12.46c-2.43,1.37-4.46,3.47-6.61,5.3c-8.88,7.54-18.79,13.77-27.39,21.68
		c-3.5,3.22-5.88,7.18-8.03,11.35c-0.89,1.72-0.94,3.07,0.5,4.47c2.64,2.56,2.94,5.67,2.46,9.2c-0.93,6.77-2.4,13.44-3.55,20.16
		c-0.68,3.96-2.48,6.88-6.16,8.44c-3.44,1.46-4.53,4.18-5.57,7.62c-7.47,24.73-3.37,49.49-0.56,74.25c0.28,2.43,0.83,4.84,2.23,7.08
		c1.03,1.64,1.32,3.78-0.04,5.6c-1.86,0.92-3.26-0.11-4.68-0.96c-4.43-2.65-9.13-4.94-13.2-8.06c-5.5-4.22-11.17-4.43-17.4-2.56
		c-2.64,0.79-3.49,2.9-4.3,5.08c-2.15,5.76-2.31,12.09-4.99,17.72c-0.44,0.92-0.7,1.86-1.83,2.37c-1.89-0.22-2.5-1.85-3.12-3.34
		c-2.37-5.77-6.18-10.67-10.08-15.35c-5.8-6.97-14.59-6.36-19.92,0.87c-3.86,5.24-7.03,10.91-10.22,16.57
		c-0.7,1.24-0.89,2.97-3.34,3.09c-2.07-5.52-4.28-11.14-6.25-16.84c-0.48-1.41-0.78-2.93-1.54-4.18c-6.53-10.6-4.6-22-3.62-33.46
		c1.07-12.47,7.15-22.98,11.81-34.13c3.7-8.87,7.03-17.94,9.32-27.34c0.57-2.34,0.75-3.94-1.76-5.41c-2.43-1.42-2.47-3.99-1.7-6.66
		c2.52-8.77,5.67-17.34,7.61-26.29c0.61-2.81,1.51-6.06,5.67-5.7c1.67,0.14,2.37-1.04,2.77-2.37c0.63-2.07,1.33-4.11,1.44-6.31
		c0.68-13.85,5.14-26.35,13.36-37.52c0.39-0.52,0.69-1.11,1.01-1.62c-0.71-1.55-2.02-1.25-3.08-1.05
		c-16.17,3.09-32.16,1.76-48.08-1.8c-6.96-1.56-14.09-2.2-20.98-4.18c-10.95-3.15-21.09-8.16-31.18-13.26
		c-17.93-9.07-34.11-20.75-48.96-34.2c-8.38-7.59-16.07-15.9-23.56-24.43c-9.06-10.33-16.52-21.65-23.62-33.3
		c-3.14-5.16-5.11-10.81-6.91-16.53c-0.81-2.58-0.93-5.17-0.29-7.75c2.71-1,4.29,0.65,5.98,1.93c9.83,7.44,19.98,14.36,31,19.95
		c14.71,7.47,29.85,14.03,45.58,18.86c13.8,4.24,28.14,6.54,42.52,8.16c5.29,0.59,10.6,1.23,15.91,1.46
		c21.52,0.92,42.96-0.26,64.19-3.73c7.15-1.17,14.25-3.19,21.24-5.4c10.13-3.2,20.43-5.79,30.32-9.78
		c5.12-2.07,9.95-4.64,14.77-7.25c7.01-3.78,14.31-7.15,20.37-12.47c6.02-5.29,11.8-10.75,13.55-19.12
		c1.55-7.47-2.77-15.07-10.19-16.92c-16.94-4.23-33.93-8.25-50.9-12.36c-8.4-2.04-16.89-3.81-25.16-6.27
		c-6.09-1.81-11.21-5.79-16.48-9.27c-17.9-11.83-36.07-23.25-54.16-34.77c-8.79-5.6-17.54-11.39-25.21-18.31
		c0.07-0.48,0.05-0.67,0.13-0.8c5.35-9.06,6.89-9.88,18.33-6.63c12.8,3.63,25.73,6.78,38.59,10.09c11.92,3.06,23.63,6.93,35.66,9.6
		c4.84,1.07,9.58,2.85,14.18,4.74c3.03,1.25,4.76,0.64,5.88-2.26c1.49-3.84,4.06-7.24,4.06-11.68c0-2.51-0.6-4.47-2.16-6.39
		c-18.7-22.96-37.33-45.99-56.06-68.93c-7.26-8.89-14.74-17.6-22.08-26.42c-3.07-3.68-3.51-6.86,0.62-9.75
		c0.67-0.47,1.3-1.1,1.72-1.79c1.85-3.03,4.04-2.46,6.83-1.24c6.76,2.96,12.83,7.07,19.09,10.85c12.1,7.31,24.34,14.42,36.05,22.31
		c10.48,7.06,21.11,13.94,31.13,21.68c6.83,5.27,13.8,10.37,20.69,15.56c1.31,0.99,2.79,0.95,4.29,0.82
		c0.49-0.04,0.98-0.2,1.45-0.36c9.31-3.11,10.21-5.93,5.51-14.51c-9.42-17.21-18.44-34.62-27.4-52.07
		c-5.62-10.95-11.69-21.67-17.65-32.43c-1.93-3.49-3.55-7.13-5.64-10.56c-2.81-4.61-0.92-6.63,4.67-6.83
		c8.79-0.31,14.67,4.99,20.4,10.17c5.4,4.89,10.38,10.27,15,16c4.48,5.56,10.27,9.92,15.12,15.22c10,10.92,19.71,22.08,28.86,33.71
		c7.41,9.41,14.46,19.11,21.78,28.59c1.17,1.52,1.49,3.31,2.42,4.87c3.63,6.13,9.63,9.49,15.44,13.05c0.74,0.46,1.61,0.32,2.68-0.62
		c-6.45-23.54-16.03-46.44-21.15-71.1c6.68,0.06,11.08,2.51,14.14,7.22c5.26,8.1,10.45,16.24,15.53,24.45
		c8.32,13.44,14.88,27.85,22.03,41.9c4.12,8.1,8.33,16.42,9.37,26.06c0.74,6.84,5.4,12.65,10.42,18.37
		c2.65-4.6,1.63-10.23,5.57-13.99c4.38,1.47,7.63,4.2,8.54,8.77c2.35,11.74,4.97,23.42,6.76,35.28c1.47,9.77-0.2,18.86-3.65,27.84
		c-0.55,1.42-1.1,2.91,0.15,4.2c1.12,1.15,2.43,0.5,3.73,0.19c13.12-3.15,25.92-7.27,38.35-12.55c2.29-0.97,4.72-1.64,7.12-2.3
		c7.99-2.17,15.04-6.27,21.74-10.91c2.91-2.01,4.26-5.5,5.6-8.7c0.76-1.83,1.6-3.62,2.51-5.52c-3.61-4.84-8-9.01-12.5-12.83
		c-11.07-9.4-20.58-20.39-31.3-30.12c-7.89-7.15-15.96-14.1-23.86-21.23c-2.96-2.67-5.84-5.48-8.46-8.48
		c-2.87-3.28-1.96-5.05,2.34-6.02c5.36-1.21,9.55,1.43,13.3,4.29c9.65,7.38,19.92,13.85,29.82,21.16c7.5-3.88,15.82-3.35,23.85-4.43
		c1.5-0.2,2.96,0.31,4.33,0.99c10.15,5.02,20.82,8.82,31.25,13.19c2.61,1.1,5.09,1.17,7.66-0.21c2.77-1.49,5.84-2.28,8.65-3.81
		c2.97-1.62,3.55-3.65,2.75-6.54c-0.75-2.72-1.62-5.43-2.33-8.13c-0.97-3.7-3.64-5.05-6.5-6.15c-7.45-2.86-14.93-5.67-22.55-8.01
		c-5.07-1.55-9.04-4.24-11.74-8.66c-2.94-4.82-5.66-9.79-8.38-14.75c-1.39-2.54-0.81-4.15,2.17-5.32
		c5.91-2.32,12.14-3.51,18.09-5.68c5-1.83,9.96-0.85,14.6,1.22c7.68,3.42,15.89,4.81,23.96,6.77c4.46,1.08,8.52-0.76,12.56-2.3
		c1.09-0.41,2.1-1.02,3.16-1.5c5.86-2.69,5.91-2.82,3.78-8.97c-0.16-0.47-0.4-0.96-0.39-1.44c0.08-7.34-4.05-9.84-10.84-10.54
		c-9.1-0.93-17.82-4.27-26.99-5.07c-0.79-0.07-1.77-0.29-2.29-0.81c-5.74-5.73-13.23-9.61-17.54-16.84
		c-1.89-3.18-1.85-4.47,1.57-5.8c8.34-3.25,16.45-7.2,25.37-8.78c1.67-0.3,3.3-0.41,4.95-0.02c7.16,1.68,14.56,1.72,21.73,3.2
		c4.1,0.85,7.6,0,10.9-2.13c2.79-1.8,5.72-2.37,8.99-2.4c4.15-0.03,8.32-0.35,12.45-0.82c3.79-0.43,4.51-1.47,4.32-5.26
		c-0.44-8.59-2.42-16.9-6.84-24.22c-3.36-5.57-9.04-9.22-13.88-13.54c-13.18-11.76-27.51-22.09-41.17-33.24
		c-5.79-4.73-11.83-9.18-17.93-13.51c-4.59-3.26-8.19-7.11-10.62-12.28c-4.53-9.67-10.96-18.25-16.45-27.37
		c-3.94-6.54-7.9-13.09-12.53-19.2c-1.95-2.58-1.56-5.98-2.98-8.88c-4.96-10.16-9.32-20.6-14.33-30.74
		c-2.05-4.14-3.82-8.33-6.11-13.74c14.34,2.11,27.27,6.33,40.79,8.71c-18.6-14.08-37.87-27.02-56.55-41.2
		c1.34-2.21,2.26-3.85,4.71-3.77c8.61,0.27,16.52,1.14,24.68,5.77c16.03,9.1,30.44,20.17,44.81,31.47
		c7.59,5.97,15.27,11.83,22.95,17.68c4.3,3.28,9.6,4.67,14.54,6.24c8.43,2.68,16.33,6.57,24.59,9.57c5.68,2.07,9.66,7,14.18,10.89
		c3.52,3.03,6.6,6.58,9.82,9.96c13.21,13.87,27.4,26.73,41.29,39.91c0.81,0.77,1.61,1.68,3.34,1.34c-1-4.39-3.88-7.65-6.58-10.83
		c-13.02-15.37-26.96-29.89-41.46-43.88c-4.06-3.92-7.93-8.03-11.88-12.07c-16.18-16.53-33.32-32.06-50.11-47.96
		c-3.67-3.48-7.4-6.97-9.71-11.87c8.63,0.92,17.57-0.32,24.29,7.25c7.54,8.5,17.27,14.62,25.58,22.3
		c14.17,13.11,28.31,26.27,42.59,39.26c15.63,14.21,31.52,28.14,47.09,42.42c4.9,4.49,9.46,9.34,14.61,13.59
		c5.23,4.31,6.56,10.66,7.94,16.8c1.7,7.61,3.28,15.26,3.65,23.75c8.7-3.06,16.27-7.55,24.84-9.27c1.43,3.04-0.5,4.55-1.76,6.14
		c-4.55,5.73-9.2,11.37-13.79,17.07c-0.4,0.5-0.65,1.11-1.05,1.79c1.96,2.15,3.87,4.2,5.72,6.31c1.33,1.53,2.96,1.33,4.6,0.91
		c3.22-0.84,6.42-1.75,9.63-2.64c13.47-3.73,26.94-7.47,40.42-11.16c1.6-0.44,3.26-0.65,4.9-0.89c1.04-0.15,2.08-0.01,2.27,1.3
		c0.16,1.1-0.18,2.05-1.52,2.01c-0.92-0.02-1.58,0.26-2.15,0.95c-11.76,14.06-25.54,26.21-37.73,39.86
		c-0.1,0.11-0.12,0.31-0.24,0.65c1.59,5.95,4.7,11.53,6.28,17.66c1.18,4.6-0.74,7.66-5.19,7.82c-4.72,0.17-7.6,5.51-4.85,9.49
		c2.45,3.55,5.44,6.73,8.14,10.12c3.23,4.07,3.19,4.99,0.23,9.13c-6.29,8.79-12.56,17.6-18.8,26.42
		c-4.14,5.86-9.22,10.94-13.74,16.48c-0.59,0.73-1.25,1.63-2.53,1.34c-1.23-1.77-0.13-3.45,0.21-5.18
		c1.14-5.7,2.41-11.38,3.33-17.11c0.7-4.34-0.05-4.95-4.27-4.96c-3.49-0.01-7.06,0.29-10.42-0.8c-2.85-0.93-4.33,0.02-5.48,2.59
		c-1.9,4.24-4.04,8.37-6.04,12.56c-1.35,2.84-2.67,5.68-4.99,7.96c-2.59-0.53-2.55-2.37-2.53-4.22c0.05-4.5,0.11-9,0.12-13.5
		c0.01-1.61,0.61-3.39-1.4-4.75c-2.58,1.16-4.02,3.44-5.47,5.9c-3.91,6.65-6.27,13.93-8.6,21.16c-2.91,9.03-6.71,17.71-9.58,26.76
		c-5.18,16.33-10.68,32.56-13.37,49.53c-0.71,4.48-0.11,9.18-0.11,14.32c1.69-1.36,2.26-3.04,3.07-4.55
		c5.58-10.41,10.02-21.36,14.97-32.07c1.16-2.52,2.71-4.59,5.71-5.05c2.84-0.44,4.24,0.86,3.67,3.59
		c-2.24,10.73-4.86,21.39-6.7,32.19c-1.76,10.34-2.77,20.84,0.91,31.08c0.71,1.98,0.07,3.6-0.54,5.29c-1.36,3.79-3.6,7.13-5.7,10.52
		c-1.84,2.96-2.14,5.91-0.77,9.03c2.6,5.92,4.37,12.15,7.3,17.99c3.33,6.62,3.86,14.03,3.4,21.43c-0.01,0.16-0.1,0.33-0.09,0.49
		c0.78,8.86-3.8,14.07-11.27,18.02c-4.02,2.13-7,6.06-11.24,8.18c-1.61,0.81-2.01,2.37-1.91,4.25c0.2,3.93,1.84,7.44,3.13,10.99
		c4.61,12.66,10.27,24.93,15.98,37.09c8.03,17.14,17.26,33.74,27.45,49.75c3.68,5.79,4.59,12.1,3.69,18.67
		c-0.59,4.37-0.25,8.52,0.59,12.84c3.21,16.5,7.81,32.6,13.3,48.46c8.51,24.6,18.87,48.29,34.49,69.35c0.99,1.33,2.1,2.57,3.19,3.83
		c1.38,1.59,2.23,3.29,1.21,5.92c-5.63,0.56-11.13-2.08-17.83-2.07c4.31,7.02,9,13.01,11.87,19.75c-1.62,2.57-3.44,1.48-5.13,1.02
		c-7.88-2.14-15.3-5.57-22.99-8.26C712.9,800.66,711.78,799.86,709.79,800.2z"/>
</g>
</svg>
