<?xml version="1.0" encoding="utf-8"?>
<!-- Generator: Adobe Illustrator 24.0.2, SVG Export Plug-In . SVG Version: 6.00 Build 0)  -->
<svg version="1.1" id="Layer_1" xmlns="http://www.w3.org/2000/svg" xmlns:xlink="http://www.w3.org/1999/xlink" x="0px" y="0px"
	 viewBox="0 0 521.29 861.25" style="enable-background:new 0 0 521.29 861.25;" xml:space="preserve">
<g>
	<path d="M209.16,839.67c3.45-5.72,7.08-10.42,10.87-14.99c2.01-2.43,4.31-4.63,6.52-6.89c0.94-0.96,2.04-1.8,2-3.3
		c-0.1-4.12,3.02-6.93,4.27-10.51c0.69-1.97,2.83-2.71,4.78-3.29c6.04-1.78,11.22-4.7,15.15-9.88c3.61-4.75,8.5-7.17,14.76-6.59
		c10.28,0.95,20.2-1.26,30.1-3.72c4.6-1.14,7.79-3.42,9.39-7.92c1.14-3.21,3.24-5.79,5.72-8.08c2.48-2.3,5.05-3.31,8.61-2.12
		c4.98,1.67,10.6-1.19,13.56-5.72c4.18-6.39,6.15-13.61,8.55-20.7c3.03-8.97,7.02-17.57,9.73-26.67c1.84-6.17,0.52-11.9-0.97-17.64
		c-1.25-4.81-6.17-6.16-9.8-2.77c-4.85,4.52-9.7,9.08-13.32,14.75c-1.67,2.62-0.21,4.36,1.19,6.25c2.42,3.26,2.42,3.26,1.53,7.36
		c-3.8,0.97-7.42-0.16-11.15-1.52c-4.28,3.6-5.89,8.74-8.24,13.41c-0.37,0.74-0.6,1.55-0.99,2.28c-3.88,7.15-6.38,14.41-4.13,22.82
		c0.74,2.78,0.93,6.21-0.76,9.34c-3.68-0.38-5.55-3.1-7.43-5.44c-2.17-2.71-4.28-5.56-5.64-8.81c-2.13-5.08-4.81-9.8-8.2-14.17
		c-2.66-3.42-2.31-7.18-0.15-10.76c3.86-6.41,8.75-12.14,12.24-18.81c1.18-2.27,3.6-3.35,5.54-4.5c0.5-1.73-0.3-2.9-0.88-4.04
		c-0.91-1.81-0.84-3.46,0.18-5.2c2.11-3.59,3.54-7.47,5.07-11.34c1.66-4.19,3.78-8.25,9.98-7.85c3.67,0.24,7.34-2.03,10.05-4.96
		c4.8-5.18,10.41-8.02,17.74-7.34c3.6,0.34,7.29-0.28,10.96-0.47c1.14-2.44,0.51-4.41-0.74-6.26c-5.43-8.02-9.03-17.02-13.75-25.42
		c-2.06-3.66-5.31-6.21-7.29-9.41c-1.66,0.17-1.84,1.12-2.28,1.76c-1.78,2.61-3.25,2.74-5.33,0.06c-2.55-3.29-3.09-3.11-5.99,0.07
		c-1.46,1.6-2.97,3.16-5.3,3.22c-1.29-0.75-1.07-2.07-1.39-3.14c-0.29-0.97-0.54-1.93-0.94-2.09c-2.76-0.95-2.88,2.24-4.66,1.86
		c-1.96-0.41-1.18-2.79-3.11-3.55c-3.01,0.26-4.17,4.41-7.5,4.58c-2.93-3.4-4.09-7.47-4.69-11.64c-2.43-0.97-3.12,1.97-5.21,1.78
		c-1.7-0.65-1.02-2.46-1.41-3.79c-1.23-4.21-2.59-4.87-7.17-4.6c-2.94,0.18-5.94-0.4-8.9-0.71c-1.46-0.16-1.47-1.58-2.05-2.55
		c-1.37-2.29-2.73-4.69-6.1-4.14c-0.86,0.14-1.64-0.31-2.25-0.9c-3.31-3.2-7.2-5.25-11.69-6.25c-1.29-0.29-2.87-0.87-3.05-2.29
		c-0.54-4.29-4.21-6.26-6.87-8.43c-5.04-4.12-6.47-9.09-6.17-15.12c-1.32-1.59-3.17,0.21-4.6-0.6c-1.37-1.02,0.25-2.64-0.95-3.78
		c-2.75-0.85-5.82,0.81-8.77-0.56c0.1-4.29,3.7-7.46,3.81-11.57c-1.43-2.16-4.04-0.6-5.84-2.5c-0.18-4.47,4.84-7.09,5.12-11.67
		c-1.55-3.09-5.15-0.08-7.14-2.38c0.47-2.73,3.3-4,4.4-6.6c-1.52-2.02-2.47-4.57-5.53-5.88c3.66-3.86,0.66-7.54-0.19-11.19
		c-0.51-2.18-0.68-3.79,1.01-5.37c2.95-2.77,3.08-6.19,1.74-9.64c-0.88-2.25-0.82-4.22,0.43-6.16c1.66-2.58,0.01-5.74,1.37-8.21
		c1.75-3.19,1.23-7.12,4.73-9.97c2.1-1.71,2.12-6.14-0.66-8.66c0.1-2.3,2.31-2,3.27-3.41c-0.41-2.36-1.7-4.45-3.02-6.55
		c-2.52-4-1.55-5.98,3.17-6.68c0.49-0.07,0.99-0.09,1.49-0.09c5.03-0.04,5.03-0.04,4.72-4.95c-0.23-3.65,0.49-4.38,4.24-3.55
		c3.06,0.68,4.79-0.6,5.83-3.22c1.17-2.93,2.59-5.49,6.29-5.38c1.22,0.04,1.85-0.67,2.24-1.62c1.2-2.99,2.99-5.5,6.07-6.77
		c-1.04-3.74-4-5.45-5.68-8.07c-9.49-14.83-17.08-30.36-19.29-48.15c-1-8.08-2.62-16.08-4.01-24.47c-1.4-0.56-3.23,0.29-4.62-1.54
		c-3.18-4.18-4.72-4.15-8.9-1.05c-0.52,0.39-1.14,0.63-1.5,0.83c-1.46-0.02-2.02-0.87-2.53-1.74c-1.64-2.8-3.61-4.31-6.9-2.22
		c-0.94,0.6-2.37,1-3.38,0.45c-3.16-1.73-6.09-3.92-10.01-3.5c-0.36,0.04-1.01-0.47-1.14-0.85c-1.48-4.31-5.42-4.54-8.9-5.06
		c-2.75-0.41-3.81-2.31-4.82-4.14c-1.82-0.11-2.5,1.48-4.03,1.65c-2.5-2.61,0.15-6.11-1.45-9.23c-3.09,0.1-5.22,3.25-8.8,3.15
		c-2.84-5.56-3.35-11.8-3.84-17.9c-1.4-1.31-2.61,0.43-3.98-0.1c-1.47-1.27-0.11-3.55-1.49-4.95c-1.66-0.33-2.98,1.44-4.85,0.86
		c-1.49-3.13,1.42-5.59,1.5-8.79c-3.45-1.68-7.31-1.66-10.95-2.44c-14.74-3.15-28.73-8.29-42.04-15.34
		c-9.58-5.07-18.82-10.68-27.8-16.75c-1.24-0.84-2.6-1.6-3.59-2.68c-4.61-5.01-10.58-7.14-16.95-8.88
		c-12.45-3.4-25.23-4.49-37.96-5.98c-0.99-0.12-2.03-0.1-2.95-0.41c-1.96-0.65-3.74-1.84-4.38-3.8c-0.72-2.22,1.47-3.13,2.77-4.27
		c10.1-8.9,22.05-10.82,35-9.46c11.4,1.2,21.94,5.43,32.71,8.83c14.13,4.45,28.73,7.21,42.76,11.91c7.13,2.39,14.33,4.28,21.64,5.84
		c4.89,1.04,9.81,1.43,15.09,0.93c0.3-7.03,3.83-12.26,7.56-17.68c2.23-3.24,4.82-6.81,4.95-11.37c0.11-3.91,1.18-4.29,4.7-2.63
		c0.74,0.35,1.46,0.72,2.62,1.3c1.69-5.24,7.58-6.2,10.07-10.67c0.75-1.34,2.42-0.83,3.72-0.75c3.86,0.26,6.65-1.54,8.84-4.51
		c0.29-0.4,0.52-1.23,0.75-1.23c5.16,0.2,6.27-5.27,9.89-7.19c3.56,1.1,3.42,4.2,3.99,7.51c2.73-2.41,6.8-0.91,8.74-4.49
		c0.35-0.65,1.6-0.6,2.27,0.02c3.4,3.14,6.34,1.06,9.51-0.55c3.8-1.93,7.55-4.25,12.29-3.91c0.97,3.94-0.21,8.03,1.31,11.91
		c3.79,0.21,7.12-1.9,10.67-1.73c1.34,1.8-0.16,3.77,0.82,5.63c4.19,1.08,7.85,3.67,12.15,4.94c4.35,1.28,6.16,5.76,9.01,8.84
		c1.63,1.76,2.74,2.45,4.92,2c2.42-0.5,4.89-0.95,7.52,0.21c0.37,2.68-2.9,4.5-2.18,6.76c0.69,2.18,1.57,4.2,0.94,6.6
		c2.89,1.34,6.07,1.53,8.37,4.16c-0.35,3.06-3.63,4.51-4.57,7.32c0.82,2.1,3.81,1.32,4.68,3.68c0.27,1.95-2.39,2.43-2.66,4.53
		c3.19,1.78,6.91,2.95,9.82,5.79c-1.85,3.69-4.23,6.83-6.79,9.74c0.08,1.46,1.19,2.04,1.99,2.84c3.64,3.65,3.66,4.4-0.17,8
		c-1.45,1.36-3.07,2.54-4.91,4.05c0.71,2.45,3.78,5.06-0.45,7.83c-2.18,1.43-1.22,6.47-5.98,5.59c0,2.66,0,4.95,0,7.25
		c0.01,5.34-0.49,5.9-5.98,6.29c-1.64,0.12-3.3,0.02-5.05,0.02c-1.64,2.5-2.81,5.69-4.6,7.44c-2.61,2.56-3.88,7.19-8.79,7.33
		c-1.91,0.05-3.54,1.25-4.52,3.38c-1.15,2.49-3.24,4.21-6.44,3.79c-0.81,2.63-0.62,5.12,0.05,7.51
		c4.18,14.89,8.02,29.89,15.25,43.72c4.39,8.41,9.38,16.45,14.51,24.81c2.52-1.23,5.45-1.47,6.42-4.74
		c0.39-1.31,1.69-1.45,2.81-1.76c6.91-1.94,6.91-1.94,9.73-7.66c2.37-0.74,3.7,2.1,6.59,1.69c2.77-3.84,3.61-9.61,8.49-12.85
		c4.24,1.99,5.91,6.47,8.92,9.65c1.8-1.47,2.02-4.01,4.43-5.33c3.59,4.67,9.65,1.16,14.05,4.17c1.22,0.84,2.43-1.62,4.03-1.44
		c3.11,0.35,6.25-0.27,9.35,0.97c6.08,2.43,10.07,0.71,12.15-5.33c3.63-10.52,7.32-21.04,10.45-31.72
		c2.81-9.58,6.38-18.9,8.83-28.61c2.69-10.63,5.17-21.3,7.48-32.01c0.91-4.19,1.94-8.38,1.84-13.04c-3.28-0.64-6.79-0.71-8.38-4.05
		c-3.08,0.77-5.13,3.06-8.07,3.56c-2.52-1.95-1.24-6.03-4.52-7.67c-1.84-0.22-3,2.57-5.44,1.61c-2.02-1.99,0.22-7.88-5.5-6.62
		c-1.54-1.34-0.59-3.49-2.22-4.8c-3.36-0.11-5.29,3.68-9.08,3.85c-0.94-4.65-0.18-9.29-0.76-13.66c-1.67-1.74-3.69-0.16-5.38-0.94
		c-1.94-2.67,1.62-4.44,1.16-7.23c-3.72-0.29-7.46-0.59-11.46-0.91c-0.26-2.71,2.97-6.02-1.73-7.53c1.78-2.95,3.32-5.49,5.07-8.38
		c-2.19-2.44-1.25-6.02-2.7-9.14c-0.61-1.31-0.77-3.33-1.68-4.82c-2.21-3.61-0.76-7.18,0.31-10.57c1.4-4.44,3.62-8.65,1.65-13.49
		c-0.31-0.77-0.1-1.9,0.62-2.28c4.06-2.17,3.19-7.53,6.7-9.69c-0.18-1.81-1.31-2.66-2.11-3.69c-3-3.89-2.95-4.11,1.57-6.37
		c0.44-0.22,0.85-0.5,1.33-0.79c0.71-2.04-1.75-4.09,0.2-6.45c3.8-0.06,7.77,1.74,11.72,1.09c1.17-1.43,0.51-2.71,0.3-3.99
		c-0.79-4.77-0.22-5.39,4.82-5.34c0.64,0.01,1.29-0.1,2.33-0.19c-0.14-2.89-0.36-5.65-0.38-8.41c-0.03-4.43,1.56-5.42,5.48-3.48
		c1.18,0.58,2.27,1.36,3.49,2.1c0.64-0.32,1.31-0.5,1.77-0.92c0.47-0.43,0.74-1.1,1.09-1.65c1.44,0.92,2.41,1.53,3.41,2.17
		c0.48-0.27,1.01-0.4,1.29-0.75c1.6-1.98,3.69-2.78,6.16-2.64c1.55,0.09,3.08-0.07,4.25-1.09c2.55-2.23,5.06-1.74,7.85-0.46
		c4.91,2.24,6.01,1.81,9.07-2.59c1.14-1.64,2.38-3.2,3.64-4.75c0.28-0.34,0.85-0.46,1.36-0.72c3.05,1.22,2.11,5.24,4.82,6.7
		c5.12-2.95,8.56,2.55,13.85,2.39c1.8-1.56,2.18-4.72,3.44-7.32c8.8-18.09,16.77-36.56,25.11-54.85
		c5.77-12.66,12.86-24.73,21.73-35.68c4.69-5.79,8.71-12.13,13.61-17.82c5.54-6.43,12.21-11.3,19.51-15.39
		c4.42-2.48,7.55-0.43,7.5,4.66c-0.02,1.51-0.27,2.96-0.9,4.37c-6.63,14.86-13.05,29.8-18.65,45.09
		c-2.86,7.82-5.18,15.86-6.37,24.07c-1.9,13.1-6.69,25.43-9.5,38.26c-2.32,10.61-6.8,20.46-10.1,30.72
		c-0.77,2.4-2.13,4.51-3.38,6.67c-0.81,1.4-2.12,2.65-1.61,4.76c2.5,1.55,5.94-0.96,8.35,1.56c1.37,3.02-3.24,4.95-1.68,7.77
		c1.35,2.44,3.46,4.43,6.27,5.45c-0.09,1.9-1.78,2.99-1.72,4.8c0.79,1.66,2.66,2.33,3.89,3.68c1.22,1.34,2.87,2.32,3.45,4.31
		c-0.94,2.19-3.14,3.26-4.81,4.83c-3.5,3.31-3.54,3.27-0.67,7.23c2.24,3.09,2.22,6.57-0.28,9.48c-0.91,1.05-1.49,1.84-1.37,3.42
		c0.17,2.28-0.72,4.55-0.55,6.91c0.37,5.09-0.34,9.91-4.1,13.35c0.65,2.69,2.62,3.99,3.93,6.49c-4.96,2.58-6.44,6.67-4.01,11.7
		c-3.49,2.07-7.14,0.61-10.39,2.35c-0.13,2.88-0.17,5.86-0.41,8.83c-0.44,5.41-2.23,6.73-7.49,5.73c-4.89-0.93-4.89-0.93-8.04,1.04
		c-1.96,0.07-2.88-2.41-4.97-1.96c-1.25,0.58-1.32,1.82-1.6,2.92c-0.65,2.51-1.74,4.39-4.84,3.62c-1.26-0.32-2.52-0.02-3.03,1.14
		c-1.85,4.15-5.34,3.23-8.58,2.88c-5.15-0.56-7.8,1.52-7.88,6.77c-0.29,18.74-2.38,37.28-7.98,55.18
		c-4.11,13.13-8.75,26.15-15.03,38.47c-1.66,3.25-2.71,6.78-4.99,9.74c-1.45,1.88,0.01,3.42,1.05,4.92c1.01,1.46,2.2,2.43,4.16,2.09
		c1.95-0.34,3.66-2.8,5.91-0.61c1.77,1.71,0.67,4.21,1.87,6.37c4.81-0.27,7.56-5.88,12.81-5.27c1.66,3.94-0.76,8.06,0.93,12.11
		c1.73,0.61,3.64-1.59,5.6-0.01c1.22,1.33-0.34,3.14,0.54,4.79c7.87,2.8,10.81,11.64,18.38,15.33c-0.71,4.58-0.41,8.75,4.94,10.48
		c0.98,0.32,1.63,1.29,1.64,2.34c0.05,6.46,4.35,9.04,9.87,10.75c-1.34,7.55,6.78,4.22,9.26,8.19c-1.78,2.72-3.66,5.59-5.64,8.61
		c1.58,2.96,4.93,3.94,6.84,6.25c-0.85,2.41-3.8,2.43-4.61,4.88c0.11,1.59,1.73,2.61,2.24,4.26c-0.82,1.87-4.33,1.61-4.07,3.76
		c0.41,3.45-0.64,7.07,0.78,10.33c1.43,3.28,2.17,6.22-0.62,9.2c-1.22,1.3-0.89,3.12-0.7,4.8c0.83,7.12,0.82,7.12-4.42,12.41
		c0.71,3.44,4.38,4.17,6.44,6.5c-1.1,3.05-5.04,2.82-6.17,5.92c1.27,4,4,7.6,5.88,11.83c-3.26,3.11-7.79,1.48-11.27,3.34
		c-1,1.86,1.47,3.3,0.5,5.57c-3.06,1.1-5.87,3.39-9.36,5.09c1.22,3.62-1.5,7-0.87,10.77c0.09,0.54-0.82,1.63-1.47,1.85
		c-3.5,1.15-5.09,4.05-6.76,6.95c-0.09,2.01,2.32,2.68,2.7,4.39c-0.38,0.4-0.57,0.66-0.82,0.85c-1.91,1.51-5.51-0.46-6.42,2.77
		c-1.09,3.86-2.2,8.33-0.26,11.77c6.19,10.97,12.09,22.31,22.21,30.39c2.53,2.03,3.97,3.98,4.32,7.31c0.42,4.01-0.4,7.64-1.93,11.16
		c-1.85,4.27-3.72,4.85-8.7,4.87c-16.43,0.08-31.8,4.29-47.41,12.83c7.34,2.68,13.46,5.34,20.28,5.69
		c6.21,0.32,11.69,2.55,16.56,6.24c2.8,2.12,5,4.56,5.14,8.63c0.11,3.21,2,6.22,2.16,9.62c0.25,5.32-1.07,10.14-3.39,14.59
		c-2.51,0.5-3.67-0.88-4.13-2.46c-2.66-9.29-10.36-13.12-18.38-14.78c-8.55-1.77-16.07-5.13-23.41-9.65
		c-2.74,1.93-4.7,4.06-6.28,6.98c-2.44,4.5-5.57,8.66-8.66,12.77c-1.68,2.23-1.8,4.38-1.36,6.99c1.28,7.59,3.29,14.93,6.57,21.92
		c1.41,3,2.86,6.12,0.46,9.41c-0.67,0.92-0.02,1.87,0.35,2.81c1.81,4.62,3.06,9.46,5.78,13.7c0.65,1.01,1,2.12,0.2,3.56
		c-2.69,1.11-5.37,0.29-7.84-1.11c-4.07-2.31-7.67-5.27-10.92-8.64c-0.92-0.95-1.73-2.08-2.81-2.8c-4.15-2.77-5.82-2.17-6.93,2.67
		c-0.84,3.66-3.14,7.05-2.04,11.13c0.49,1.84,0.95,3.55,2.73,4.52c5.1,2.8,10.2,5.6,15.31,8.37c2.35,1.28,4.84,0.96,7.33,0.58
		c3.78-0.58,7.55-1.26,11.34-1.72c3.88-0.48,7.26,0.82,10.01,3.54c3.21,3.18,6.78,5.88,10.47,8.46c3.28,2.3,6.18,4.98,7.81,8.87
		c1.53,3.65,5.44,4.02,8.56,5.28c4.69,1.89,9.2,3.94,12.32,8.14c0.77,1.04,1.88,2.06,1.18,3.56c-0.74,1.56-2.3,1.37-3.52,1.11
		c-8.01-1.71-16.27-1.04-24.28-2.53c-1.94-0.36-3.57-0.05-5.32,0.56c-2.68,0.94-5.01,0.94-7.07-1.73c-1.96-2.53-4.96-3.94-7.98-4.93
		c-5.85-1.92-11.78-3.59-17.63-5.53c-5.1-1.69-10.01-1.33-15.17-0.02c-6.13,1.55-12.11,3.59-18.14,5.39
		c-7.23,2.17-12,7.96-16.42,13.94c-5.92,8.01-10.14,17.19-17.43,24.29c-3.22,3.13-6.82,5.99-10.87,6.69
		c-8.04,1.39-15.1,5.06-22.53,7.9c-2.01,0.77-3.98,1.7-6.21,1.78c-1.96-1.27-1.87-3.03-1.1-4.83c0.45-1.06,1.13-2.04,1.83-2.96
		c4.62-6.19,9.79-12.06,10.46-20.33c0.22-2.75,1.89-5,4.08-6.66c7.81-5.92,13.44-14.38,22.38-18.99c1.47-0.76,2.86-2.16,2.38-4.03
		c-0.59-2.25-2.83-2.18-4.56-2.16c-4.52,0.04-8.91,1.14-13.31,2.06c-4.72,0.98-9.48,1.91-14.06,3.36
		c-6.8,2.15-11.97,7.09-17.64,11.14c-2.02,1.45-3.79,3.25-5.66,4.91c-4.17,3.72-8.96,5.75-14.6,5.23c-1.72-0.16-3.37-0.18-4.87,0.62
		c-9.26,4.92-19.9,6.26-29.13,11.26C211.27,840.05,210.69,839.8,209.16,839.67z M423.75,632.76c-6.58-8.42-12.51-17.01-20.53-23.85
		c-1.25-1.07-2.65-2.04-4.13-2.76c-3.12-1.53-5.42-1.05-7.22,1.99c-2.52,4.26-6.32,5.6-10.88,5.79c-1.83,0.08-3.66,0.14-5.47,0.38
		c-2.71,0.36-5.8,4.7-4.92,7.21c3.25,9.23,5.84,18.73,11.17,27.14c1.34,2.11,2.47,2.88,5.16,2.33c9.81-2.03,17.97-7.7,26.88-11.7
		C417.09,637.8,420.45,636.23,423.75,632.76z"/>
</g>
</svg>
