<?xml version="1.0" encoding="utf-8"?>
<!-- Generator: Adobe Illustrator 24.0.2, SVG Export Plug-In . SVG Version: 6.00 Build 0)  -->
<svg version="1.1" id="Layer_1" xmlns="http://www.w3.org/2000/svg" xmlns:xlink="http://www.w3.org/1999/xlink" x="0px" y="0px"
	 viewBox="0 0 861.4 747.58" style="enable-background:new 0 0 861.4 747.58;" xml:space="preserve">
<g>
	<path d="M519.37,736.56c-1.61-2.3-2.21-15.33-0.68-26.21c1.24-8.79,4.53-17.18,5.89-26.13c-5.33,1.88-9.64,4.71-13.02,8.87
		c-1.78,2.2-3.6,4.38-5.24,6.68c-7.27,10.2-17.4,14.64-29.62,16.08c-11.38,1.34-22.92,1.76-34.05,5.07
		c-5.19,1.54-10.18,3.47-14.33,6.79c-3.78,3.02-8.02,5.31-11.76,8.38c-4.38,3.58-9.44,4.92-15.27,5
		c-13.3,0.18-26.53,1.64-39.63,4.05c-2.88,0.53-5.3,2.88-8.6,2.36c-1.27-2.2-0.62-4.08,0.85-5.89c5.57-6.86,11.65-13.21,18.82-18.41
		c6.07-4.41,11.67-9.15,16.61-14.97c6.12-7.22,14.07-12.63,22.26-17.46c1.89-1.11,4.1-1.39,6.28-1.45
		c11.37-0.29,20.93-4.82,28.86-12.75c3.91-3.91,8.33-7.15,12.56-10.64c0.77-0.64,1.57-1.19,2.2-3.25
		c-7.07,2.55-14.39-1.19-20.69,3.6c-3.13,2.38-6.76,3.49-10.69,3.75c-5.38,0.35-10.66,1.32-15.11,4.56
		c-7.49,5.46-16.3,6.48-25.02,7.67c-5.44,0.74-10.95,0.84-16.46,0.16c-3.8-0.47-7.61-0.55-11.45,0c-8.94,1.29-16.88-1.14-24.68-5.71
		c-11.17-6.55-21.74-13.95-32.82-21.25c1.36-2.86,3.99-3.83,7-4.45c5.49-1.12,10.98-0.28,16.43,0.05c5.04,0.31,9.91-0.46,14.86-0.89
		c7.45-0.65,14.94-0.84,22.41-1.04c3.01-0.08,5.57-0.88,7.63-3.04c7.49-7.85,17.44-11.51,27.1-15.48c6.3-2.58,13.12-1.83,19.71-0.57
		c13.05,2.51,25.54,0.48,37.5-4.83c4.41-1.96,8.97-2.96,13.91-4.03c-4.71-2.43-8.39-5.91-12.63-8.59
		c-4.61-2.91-7.31-7.69-10.88-11.61c-3.36-3.7-8.51-5.5-11.73-10.47c11.56-1.55,21.96-2.38,32.3,2.6
		c10.92,5.26,22.25,9.68,33.71,13.69c4.11,1.44,7.7,3.93,10.96,6.85c6.69,6,13.42,11.96,20.09,17.98c5,4.51,10.38,4.7,15.79,1.22
		c12.56-8.07,15.52-20.14,14.38-33.83c-2.01-23.93-14.84-41.35-34.34-54.03c-7.46-4.85-16.12-7.79-24.44-11.13
		c-18.5-7.43-37.95-10.47-57.64-10.54c-13.12-0.04-26.3,0.52-39.45,0.75c-11.29,0.2-21.91,3.76-32.85,5.66
		c-3.21,0.56-5.78,2.45-8.42,4.22c-5.37,3.61-10.74,7.24-16.94,9.39c-1.61,0.56-3.23,0.99-4.88,0.84c-2.54-0.22-5.12-1-6.32-3.38
		c-1.29-2.57,0.83-4.35,2.41-6.03c1.48-1.57,2.98-3.18,4.69-4.48c11.04-8.43,18.34-19.59,23.97-32.07
		c3.9-8.65,7.69-17.3,10.62-26.36c1.98-6.13,2.86-12.3,2.78-18.66c-0.15-11.5-0.1-22.99,0.62-34.48c0.4-6.36-0.48-12.7-2-18.81
		c-1.87-7.51-7.27-12.38-14.39-14.74c-5.5-1.82-11.31-3.34-17.13-3.27c-8.88,0.1-17.37,2.41-25.39,6.37
		c-6.4,3.16-12.24,7.3-18.89,10.07c-6.04,2.51-12.12,3.39-18.51,2.93c-5.02-0.36-9.96,0.6-14.95,0.77
		c-3.47,0.12-6.9,0.25-10.41-2.02c2.91-4.03,6.76-6.61,10.32-9.48c5.23-4.21,8.31-9.86,10.72-15.95c0.3-0.75,0.25-1.64,0.3-2.46
		c0.03-0.5-0.17-0.94-1.07-1.32c-10.28,10.34-18.17,23.7-33.14,28.82c2.39,4.12,9.2,5.62,18.42,4.36c1.9,2.16,0.72,3.79-0.94,5.43
		c-4.64,4.6-10.53,6.69-16.72,6.85c-7.82,0.2-15.68-0.61-22.45-5.39c-0.21-0.15-0.63-0.02-0.95-0.02
		c-2.32,7.34,2.54,13.33,11.3,14.03c3.26,0.26,6.58-0.51,10.05,0.47c-0.1,2.25-1.41,3.52-3.01,4.37
		c-11.7,6.21-23.56,7.67-35.85,1.47c-3.19-1.61-5.51-4.09-6.77-7.02c-1.49-3.44-3.46-4-6.63-3.21c-11,2.74-21.91,5.59-30.3,14.03
		c-8.93,8.98-20.27,13.64-31.97,17.68c-8.94,3.08-17.83,6.29-26.74,9.46c-2.03,0.72-4.04,1.49-6.32,0.03
		c1.11-5.5,6.45-8.01,8.56-12.66c-0.2-0.14-0.55-0.49-0.67-0.43c-6.88,3.88-14.25,5.29-22.1,4.7c-1.79-0.13-3.69,0.19-5.44,0.67
		c-14.85,4.09-29.77,3-44.55,0.11c-9.71-1.9-19.53-1.64-29.26-2.72c-1.93-0.21-3.97,0.14-6.11-1.31c1.8-3.79,3.78-7.2,7.31-9.29
		c13.63-8.07,26.11-17.88,39.63-26.09c17.24-10.48,35.83-14.77,55.96-11.37c5.92,1,11.95,1.33,17.94,1.02
		c11.86-0.62,23.58,0.84,35.37,1.59c16.08,1.02,32.23,1.25,48.37-0.91c7.78-1.04,14.06-4.87,20.53-8.36
		c5.89-3.17,11.72-6.25,18.08-8.37c6.06-2.02,11.56-5.06,16.04-9.79c6.05-6.4,12.22-12.7,18.64-19.36
		c-0.28-1.82-1.74-3.65-3.58-5.09c-4.59-3.61-7.54-8.41-10.12-13.47c-7.86-15.43-15.8-30.83-25.43-45.26
		c-14.4-21.58-32.81-38.19-58.66-44.39c-11.07-2.65-22.46-4.8-34.04-1.65c-8.12,2.21-15.32,6.33-22.74,10.03
		c-0.84,0.42-1.54,1.3-2.05,2.13c-5.31,8.61-13.35,9.74-22.27,7.96c-5.05-1.01-9.92-3.33-14.98-3.75
		c-13.52-1.13-23.82-9.89-35.88-14.4c-4.05-1.51-8.21-2.64-12.27-4.11c-2.54-0.92-4.88-2.13-7.1-3.58c-1.26-0.83-2.56-1.9-2.08-3.64
		c0.5-1.82,2.27-1.79,3.73-1.82c7.21-0.14,14.31,0.99,21.23,2.78c5.67,1.47,11.47,2.03,17.19,3.16c3.25,0.64,6.6,0.45,9.84-0.79
		c6.83-2.62,13.76-4.98,20.54-7.76c5.5-2.26,8.52-6.52,11.56-12.13c-13.04,1.41-25.38,3.11-37.57,3.09
		c-1.3-1.81-0.32-2.86,0.35-3.99c6.13-10.29,13.13-19.69,24.62-24.65c8.33-3.59,12.15-11.66,17.37-18.2
		c3.31-4.14,6.98-7.5,11.36-10.3c2.8-1.79,5.46-3.81,8.16-5.76c1.9-1.37,2.02-2.94,0.35-4.58c-2.94-2.89-6.08-4.93-10.61-4.11
		c-7.76,1.41-15.28,0.59-22.12-3.68c-2.24-1.4-4.61-1.87-7.16-1.68c-7.18,0.53-13.51-1.08-18.4-6.83c-1.67-1.97-4.13-2.77-6.61-3.29
		c-6.96-1.46-10.52-6.18-12.77-12.57c-2.15-6.11-3.12-12.62-6.23-18.41c-2.68-4.98-5.26-10.01-7.97-14.97
		c-1.65-3.03-4.87-4.49-7.24-6.81c-2.37-2.32-4.92-4.45-7.62-6.88c2.71-2.81,5.88-3.93,9.29-4.68c7.16-1.58,14.26-0.47,21.37,0.4
		c6.94,0.85,13.82,1.67,20.44,4.3c7.11,2.83,14.72,3.01,22.17,1.7c7.66-1.34,14.9,0.69,22.26,1.88c1.8,0.29,3.39,1.42,4.69,2.74
		c6,6.09,13.56,8.83,21.76,10.27c6.76,1.18,7.99,2.76,8.04,9.64c0.02,2.82-0.78,5.64-0.09,8.46c0.07,0.28,0.35,0.51,0.77,1.11
		c3.19-2.66,5.85-5.81,7.64-9.4c3.84-7.71,8.1-15.37,7.55-24.49c-0.19-3.2-1.24-6.2-1.8-9.31c-1.74-9.64,4.01-23.06,12.53-27.97
		c4.25-2.45,7.28-5.58,9.38-9.94c1.82-3.77,4.44-6.93,7.68-9.72c5.3-4.56,8.01-10.99,11.11-17.03c1.83-3.57,4.52-6.01,7.6-8.17
		c5.62,3.6,7.68,10.71,4.77,17.19c-2.7,6-4.2,12.27-4.71,18.73c-0.8,10.17-5.17,18.41-12.5,25.32
		c-5.46,5.15-10.45,10.71-14.62,17.01c-2.19,3.31-2.66,7.14-3.93,10.73c-2.26,6.36-2.99,13.16-6.55,20.22
		c8.79-3.6,14.7-8.82,17.3-16.62c3.71-11.13,12.46-16.08,22.37-19.46c7.87-2.68,15.29-5.65,20.29-12.64
		c4.07-5.69,9.95-8.85,16.13-11.31c9.06-3.6,16.75-8.89,22.59-16.67c3.71-4.95,8.65-8.2,13.93-11.09c1.74-0.95,3.74-2.3,5.52-0.64
		c1.77,1.66,0.62,3.68-0.29,5.5c-3.25,6.49-4.9,13.77-9.84,19.45c-1.5,1.73-1.1,4.06-0.53,6.69c5.55-2.9,10-6.7,13.84-11.37
		c7.25-8.83,16.29-15.13,27.24-18.55c5.74-1.79,8.37,0.13,7.77,6.12c-0.74,7.31-1.99,14.45-7.43,20.23
		c-3.05,3.25-5.33,7.18-6.93,11.48c-2.48,6.64-7.82,10.68-13.71,13.98c-7.27,4.08-14.45,8.25-21.21,13.16
		c-7.85,5.69-12.42,14.01-18.05,21.69c4.64-1.05,8.84-2.78,12.56-5.41c4.08-2.88,7.88-6.14,11.85-9.18
		c5.53-4.22,11.55-6.81,18.7-7.43c8.88-0.78,17.43-0.37,26.2,1.45c6.93,1.44,14.28,0.5,21.4-0.13c6.38-0.57,12.72-0.29,18.88,0.96
		c7.19,1.46,14.21,1.12,21.3,0.07c4.03-0.6,7.97-0.85,11.58,2.05c0.02,2.51-1.58,4.22-3.2,5.83c-2.48,2.48-5.14,4.77-8.34,6.3
		c-8.99,4.3-16.12,11.05-23.58,17.45c-5.66,4.85-11.66,9.39-17.92,13.41c-7.08,4.56-15.38,5.1-23.57,5.19
		c-4.51,0.05-8.95,0.25-13.43,0.85c-8.03,1.08-14.24,4.99-20.2,12.12c6.65-0.48,12.27-0.95,17.61-3.11
		c7.43-3.02,14.74-1.25,22.05,0.34c0.88,0.19,1.87,0.78,2.01,1.92c-0.03,0.22,0.01,0.47-0.07,0.53
		c-6.52,4.44-11.38,10.42-16.33,16.47c-3.02,3.68-7.78,5.54-13.03,5.1c-5.23-0.44-10.13,0.67-15.16,4.19
		c8.67,5.61,18.43,5.46,27.09,8.04c0.56,1.13,0.34,1.87-0.32,2.51c-7.55,7.32-16.17,12.51-26.58,14.99
		c-8.96,2.14-17.47,1.96-25.77-2.03c-6.53-3.13-11.25,0.81-16.45,3.26c0.64,3.06,2.19,4.68,4.31,5.87
		c6.82,3.81,13.54,7.83,20.76,10.86c4.17,1.75,8.65,2.75,13.12,2.67c13.21-0.25,26.24-1.6,38.28-7.82c4.5-2.32,8.34-5.31,11.73-9.11
		c4.15-4.65,8.22-9.5,13.72-12.75c3.89,5.36,1.09,15.73-7.36,27.14c7.35-0.7,13.75,1.42,20.04,3.56c9.67,3.28,19.73,4.65,29.65,6.58
		c15.13,2.95,29.71,1.06,43.36-6.81c8.56-4.94,18.38-6.8,27.54-10.33c9.6-3.7,19.38-6.95,28.51-11.79c5.92-3.14,12.3-5.04,18.9-6.26
		c8.17-1.51,16.06-4.23,24.37-5.22c7.77-0.92,15.57-2.18,23.33-2.21c8.95-0.04,17.94,1.24,26.62,3.73
		c9.27,2.66,18.45,5.63,27.68,8.44c1.57,0.48,3.35,0.58,3.85,2.65c-0.97,1.85-2.69,2.36-4.55,2.5c-6.16,0.47-12.28,0.64-18.41-0.64
		c-10.78-2.25-21.77-3.08-32.71-3.87c-5.74-0.41-11.38,1.61-18.26,3.3c5.36,2.61,9.42,4.96,11.56,9.54
		c-2.52,2.69-5.37,2.97-8.3,1.63c-11.9-5.44-24.83-3.89-37.28-5.43c-4.26-0.53-8.55,1.14-12.67,2.45
		c-11.66,3.71-22.42,9.31-32.64,15.97c-12.64,8.24-26.19,14.39-40.95,17.76c-10.42,2.38-20.85,1.29-31.28,0.17
		c-9.62-1.03-18.97-3.52-28.41-5.51c-8.65-1.82-17.56-2.29-26.1-4.34c-12.4-2.96-24.48-0.73-36.68,0.64
		c-9.9,1.11-19.51,0.94-28.75-3.76c-5.15-2.62-11-3.7-16.3-6.14c-10.09-4.63-19.01-10.89-26.83-18.76c-1.05-1.06-2.22-2-3.36-2.95
		c-2.36-1.98-4.61-1.56-6.64,0.5c-6.06,6.14-9.76,13.38-10.26,22.12c-0.27,4.81,1.45,8.72,4.69,12.19
		c10.37,11.06,22.78,18.1,37.93,20.41c6.9,1.05,13.7,3.57,20.72,2.56c9.18-1.31,18.26-0.07,27.38,0.02
		c7.91,0.07,15.42-2.45,22.99-4.38c18.3-4.67,36.39-5.25,54.47,1.31c6.85,2.49,13.75,4.9,20.96,6.44
		c12.11,2.58,22.32-1.23,31.71-8.29c3.18-2.39,5.96-5.32,8.88-8.04c2.38-2.22,4.18-2.2,5.41,0.65c1.65,3.83,3,7.91,0.82,12.03
		c-3.75,7.12-7.88,13.92-15.49,17.72c-1.29,0.64-2.86,1-4.04,2.95c5.57,5.17,10.59,11.38,18.81,12.57
		c13.78,1.99,26.14-1.04,36-11.59c1.36-1.46,2.81-2.86,4.34-4.13c6.91-5.73,12.11-12.54,15.51-21.02c2.69-6.7,7.82-12.2,10.76-19.32
		c3.48,2.05,4.92,4.55,3.75,7.73c-1.4,3.81-1.58,7.81-2.53,11.67c-1.37,5.56-3.49,10.69-6.61,15.53c-3.34,5.17-5.86,10.81-8.03,16.6
		c-2.78,7.41-5.92,14.91-13.99,17.91c-6.68,2.49-13.12,5.72-20.16,7.26c-2.09,0.46-4.08,1-5.92,2.41c-3.44,2.63-4.89,5.42-3.25,9.8
		c1.45,3.88,2.31,7.97,2.09,12.23c-0.13,2.62,1.09,4.39,4.03,4.71c2.14,0.24,4.38,0.52,6.33,1.35c3.78,1.61,6.63,0.68,9.38-2.16
		c5.59-5.77,11.71-10.86,19.1-14.27c4.67-2.15,8.07-5.72,10.91-9.98c1.7-2.55,3.5-5.42,7.54-4.74c1.52,2.98,0.43,5.49-1.16,7.93
		c-2.27,3.49-4.5,7-6.8,10.47c-3.97,5.97-7.6,12.07-9.86,18.98c-1.62,4.95-5.29,8.38-10.15,10.43c-2,0.84-4.06,1.58-5.91,2.67
		c-5.14,3.01-10.61,3.7-16.36,2.64c-2.93-0.54-5.03,0.03-5.4,3.35c-1.18,10.5-4.27,20.44-9.15,30.16
		c5.02,3.62,10.34,6.46,15.72,8.82c10.69,4.7,22.05,7.46,33.54,9.52c4.9,0.88,9.72-0.34,14.1-2.22c5.79-2.49,11.29-5.71,16.78-8.84
		c6.79-3.87,9.5-10.29,8.09-18.28c-0.27-1.55-1.45-3.31,0.49-4.52c1.65-1.02,3.26-0.07,4.72,0.66c6.95,3.5,12.18,8.56,14.89,16.07
		c2.9,8.01-0.18,16.41-7.58,20.59c-5.9,3.33-12.36,4.85-18.88,6.19c-1.74,0.36-3.54,0.49-5.28,1.47
		c12.52,9.9,26.02,12.07,40.18,5.49c8.53-3.96,14.67-10.9,17.94-19.95c1.67-4.6,0.9-9.13-1.42-13.41c7.63-1.97,19.9,5.28,23.4,13.57
		c4.24,10.03-0.94,19.45-15.63,28.35c1.39,1.59,3.09,0.73,4.66,0.61c7.92-0.57,15.05-4.02,22.53-6.19
		c6.72-1.95,12.96-5.13,19.7-7.07c6.73-1.93,13.47-2.34,20.28-1.64c13.52,1.4,26.96,0.71,40.31-1.38
		c5.91-0.93,11.61-0.18,17.35,0.64c7.09,1,14.15,2.17,21.21,3.37c8.93,1.51,17.93,1.03,26.92,1.07c0.83,0,1.67-0.06,2.5-0.04
		c1.47,0.05,3.23-0.23,3.67,1.72c0.37,1.64-1.09,2.35-2.22,2.95c-6.59,3.52-13.07,7.32-20.8,7.95c-2.61,0.21-5.26,0.59-7.54,1.81
		c-0.29,1.2,0.16,2,1.05,2.1c12.42,1.42,22.69,8.32,33.68,13.33c6.68,3.04,13.87,4.55,20.5,7.77c12.1,5.89,24.48,11.18,36.58,17.06
		c7.64,3.71,13.8,9.7,20.85,14.38c-0.65,3.32-3.45,3.47-5.45,3.82c-5.05,0.88-10.08,1.42-15.35,0.91
		c-12.58-1.22-25.22-2.06-37.9-1.31c-11.52,0.68-22.88-0.38-34.29-2.17c-8.18-1.28-16.7-1.55-24.88,0.05
		c-11.51,2.26-22.84,1.4-34.27-0.03c-13.22-1.66-26.21-4.79-39.33-6.66c-10.12-1.44-20.47-2.19-30.71-3.32
		c-13.71-1.51-27.55-2.3-40.78-6.77c-8.89-3-16.85-7.86-25.07-12.22c-16.06-8.53-31.19-18.55-46.25-28.7
		c-11.23-7.57-23.52-12.93-36.22-17.63c-10.62-3.93-21.59-6.68-32.23-10.47c-2.64-0.94-4.95-2.76-8.03-3.05
		c-3.48,3.31-6.44,7.18-8.57,11.46c-5.29,10.61-13.43,19.04-21.18,27.66c-5.8,6.46-10.49,13.3-13.16,21.47
		c-1.57,4.82-3.31,9.6-5.11,14.18c1.85,1.14,2.87,0.32,3.81-0.21c10.87-6.08,22.82-8.89,34.71-12.14c13.15-3.6,26.49-4.79,39.94-4.8
		c12.06-0.01,23.69,2.73,34.75,7.78c6.98,3.18,13.82,6.54,20.23,10.81c15.12,10.08,26.47,23.11,32.45,40.5
		c4.57,13.29,7.9,26.81,7.41,41c-0.1,2.82-0.25,5.69-0.86,8.43c-2.8,12.67-2.66,25.85-6.67,38.3c-2.09,6.5-4.96,12.71-7.69,18.96
		c-2.3,5.28-2.68,10.48-0.46,15.98c1.73,4.29,2.89,8.74,3.06,13.55c0.32,8.59-3.4,15.19-9.23,20.78
		c-5.58,5.34-10.73,10.87-13.79,18.12c-1.37,3.25-3.94,5.8-6.24,8.39c-4.77,5.36-9.34,10.83-13.03,17
		C520.7,736.18,520.13,736.62,519.37,736.56z"/>
</g>
</svg>
