<?xml version="1.0" encoding="utf-8"?>
<!-- Generator: Adobe Illustrator 24.0.2, SVG Export Plug-In . SVG Version: 6.00 Build 0)  -->
<svg version="1.1" id="Layer_1" xmlns="http://www.w3.org/2000/svg" xmlns:xlink="http://www.w3.org/1999/xlink" x="0px" y="0px"
	 width="805.16" height="495.29" viewBox="0 0 805.16 495.29" style="enable-background:new 0 0 805.16 495.29;" xml:space="preserve">
<g>
	<path d="M295.96,332.82c-10.28-1.03-19.88-2.86-29.46-6.46c-0.86,5.3,0.35,10.19,1.09,14.96c4.64,30.01,12.66,59.2,22.16,87.99
		c2.29,6.94,5.32,13.64,8.05,20.43c0.81,2.02,1.53,4.05,1.83,6.21c0.23,1.62,0.94,3.49-0.75,4.61c-1.64,1.08-3.18-0.07-4.57-0.97
		c-4.51-2.9-8.51-6.44-12.14-10.35c-23.45-25.18-39.13-54.6-46.66-88.11c-3.71-16.53-3.44-33.43-0.86-50.19
		c0.86-5.6,2.77-10.98,5.38-16.03c2.84-5.49,7.13-7.08,12.85-4.87c2.48,0.96,4.73,2.37,6.92,3.93c10.67,7.61,22.21,13.41,35.1,16.21
		c1.53,0.33,3.12,1.22,5.24,0.03c-27.8-35.45-41.98-76.7-51.4-120.13c-6.17-0.07-11.89,0.99-17.57,1.77
		c-33.52,4.58-67.14,7.42-101.01,7.95c-15.18,0.24-30.3-0.55-45.45-0.7c-15.84-0.15-31.62-0.89-47.35-2.69
		c-9.42-1.08-18.81-2.33-28.19-3.7c-3.85-0.56-7.43-1.94-9.19-6.23c2.29-5.32,4.54-10.8,8.46-15.52
		c7.66-9.22,14.88-18.81,23.82-26.9c2.84-2.57,3.79-5.21,3.25-9.53c-1.39-11.28-0.09-22.48,3.44-33.47
		c3.72-11.59,10.58-20.9,18.66-29.75c8.58-9.39,19.25-14.11,31.44-15.76c16.28-2.21,32.58-1.12,48.77,1.08
		c4.12,0.56,5.89-0.89,7.84-4.13c10.62-17.65,22.98-33.9,39.15-46.95c5.84-4.71,11.84-7.05,19.75-4.51
		c11.61,3.72,22.77,8.44,33.91,13.27c10.67,4.63,21.5,8.87,31.8,14.36c3.55,1.89,7.82,1.37,11.77,1.59
		c16.35,0.91,31.29,6.05,45.05,14.72c2.22,1.4,4.34,1.37,6.66,1.18c21.41-1.78,42.83-3.52,64.3-4.27
		c15.48-0.54,30.96-0.46,46.45,0.16c22.63,0.91,45.31,0.94,67.9,2.64c17.97,1.35,35.68,4.48,53.17,8.8
		c0.97,0.24,1.95,0.51,2.83,0.96c2.34,1.2,4.31,3.13,4.36,5.67c0.05,2.24-2.21,3.59-4.21,4.51c-14.19,6.59-28.6,12.55-43.68,16.91
		c-11.02,3.19-21.82,7.16-32.75,10.66c-11.1,3.55-22.31,6.74-33.69,9.27c-0.93,0.21-1.97,0.19-2.95,1.66
		c7.68,0.98,14.99,2,22.06,4.16c3.99,1.22,8.04,2.3,11.74,4.21c5.31,2.74,5.36,5.17,0.49,8.56c-4.02,2.8-8.65,4.21-13.21,5.72
		c-29.25,9.64-59.37,14.75-89.96,17.5c-1.39,0.13-2.88-0.05-4.26,0.82c1.33,1.89,3.36,1.56,5.04,1.89
		c17.35,3.46,34.36,8.01,50.48,15.42c4.35,2,8.66,4.26,11.19,8.88c-1.57,3.24-4.54,4.39-7.57,5.19c-4.99,1.32-10.07,2.17-15.27,2.24
		c-30.71,0.43-60.8-3.45-90.06-13.05c-1.74-0.57-3.64-0.73-5.27-1.5c-2.3-1.09-3.78-0.19-5.36,1.56c0.44,3.52,2.8,6.21,4.46,9.19
		c7.12,12.8,14.28,25.54,24.13,36.61c14.37,16.16,31.9,26.52,53.27,29.95c22.97,3.69,45.25,1.29,67.23-6.8
		c13.96-5.14,26.87-12.42,40.63-17.87c2.74-1.09,2.55-2.68,2.16-5.11c-3.42-21.54-7.04-43.04-9.79-64.68
		c-0.27-2.14-0.38-4.32-0.43-6.48c-0.04-1.46-0.26-3.23,1.63-3.74c1.63-0.44,2.31,1.04,3.05,2.1c5.69,8.21,11.22,16.53,16.31,25.14
		c5.93,10.03,11.65,20.17,16.58,30.73c0.62,1.33,1.03,2.83,2.77,4.03c6.66-3.1,13.55-6.28,20.41-9.51c1.28-0.6,1.74-1.94,2.47-3.05
		c10.41-15.88,21.82-31.05,33.09-46.31c1.26-1.71,2.49-3.55,5.36-4.47c1.49,5.36-1.14,10.03-1.93,14.86
		c-0.84,5.09-1.91,10.13-3.06,15.17c-1.15,5-2.51,9.93-4.4,15.33c3.67-0.26,6.75-0.68,9.84-0.65c24.87,0.19,46.64,8.25,64.71,25.65
		c8.89,8.56,17.03,17.82,25.48,26.79c6.2,6.59,13.05,12.43,21.5,16c12.54,5.3,25.33,5.27,38.02,0.74
		c13.29-4.74,24.78-12.78,36.36-20.61c2.55-1.73,4.97-6.15,8.38-3.27c3.61,3.05-0.79,6.04-2.17,8.55
		c-10.31,18.77-24.08,34.37-43.44,44.16c-17.22,8.71-35.03,9.45-53.2,2.64c-11.7-4.39-20.56-12.75-29.76-20.63
		c-12.24-10.49-25.84-17.11-42.39-14.81c-7.94,1.1-15.26,4.59-22.59,7.72c-7.54,3.21-13.91,8.49-21.17,12.21
		c-2.48,1.27-2.67,3.74-2.83,6.03c-0.84,11.64-2.85,23.14-4.32,34.7c-0.61,4.79-1.48,9.54-2.29,14.3c-0.19,1.14-0.51,2.29-1,3.33
		c-0.68,1.45-1.03,3.45-3.11,3.48c-2.12,0.03-2.51-1.93-3.11-3.43c-4.42-10.95-8.8-21.91-13.18-32.87
		c-0.37-0.92-0.46-1.97-1.88-2.57c-10.33,7.14-20.88,14.39-31.38,21.7c-17.64,12.29-36,23.38-55.45,32.56
		c-20.94,9.88-43.08,15.2-66.2,14.84c-15.65-0.25-31.13-2.92-46-8.26c-2.46-0.88-4.86-1.96-8.06-2.31
		c1.9,5.96,3.72,11.57,5.44,17.19c6.86,22.37,11.54,45.22,13.31,68.5c1.35,17.74,1.97,35.62-0.58,53.38
		c-0.45,3.13-1.05,6.22-3.15,8.82c-1.38,1.71-2.51,2.09-4.6,0.9c-6.35-3.6-11.47-8.58-15.98-14.15
		c-16.84-20.81-29.22-44.03-36.71-69.76c-7.19-24.71-12.41-49.75-11.73-75.7C296.26,334.37,296.08,333.73,295.96,332.82z"/>
</g>
</svg>
