<?xml version="1.0" encoding="utf-8"?>
<!-- Generator: Adobe Illustrator 24.0.2, SVG Export Plug-In . SVG Version: 6.00 Build 0)  -->
<svg version="1.1" id="Layer_1" xmlns="http://www.w3.org/2000/svg" xmlns:xlink="http://www.w3.org/1999/xlink" x="0px" y="0px"
	 viewBox="0 0 860.83 843.2" style="enable-background:new 0 0 860.83 843.2;" xml:space="preserve">
<g>
	<path d="M423.66,754.35c7.19-6.47,13.37-13.74,23.04-16.29c1.6-0.42,3.36-0.7,4.71-1.56c3.7-2.38,7.21-4.46,7.32-10.16
		c0.09-4.86,1.03-9.76,1.16-14.71c-3.99-1.4-7.72-0.75-11.29-0.81c-20.45-0.34-39.74-5.75-58.78-12.56
		c-13.77-4.92-25.99-12.58-37.86-20.88c-1.99-1.39-4.01-2.19-6.43-2.35c-12.47-0.82-24.86-2.5-37.11-4.84
		c-14.05-2.68-27.62-7.05-40.44-13.67c-7.52-3.88-15.15-7.55-22.37-11.98c-1.56-0.96-2.9-0.26-4.28,0.19
		c-7.76,2.56-14.16,7.28-20.06,12.76c-1.83,1.7-3.65,3.38-5.7,4.83c-5.52,3.92-9.75,9.01-13.04,14.9c-1.62,2.9-3.27,5.79-4.92,8.68
		c-2.49,4.36-2.09,6.51,1.67,10.04c5.1,4.79,10.13,9.64,15.19,14.47c2.67,2.56,4.83,5.52,6.53,8.79c2.16,4.18,1.1,5.95-3.49,6.02
		c-1,0.02-2-0.07-2.99-0.09c-5.92-0.14-10.96,0.87-15.67,5.57c-5.61,5.6-13.46,8.47-20.18,12.8c-7.35,4.73-13.51,10.74-19.75,16.71
		c-3.25,3.11-6.4,6.32-9.49,9.58c-9.11,9.59-20.19,14.78-33.41,16.01c-13.15,1.23-26.3,1-39.44,0.84
		c-8.85-0.11-17.26,0.79-24.72,6.12c-1.44,1.03-3.01,2.13-4.92,2.21c-2.49-3.86-0.39-14.72,5.31-26.41
		c-9.03-0.07-17.7,0.06-26.35-0.27c-8.78-0.33-17.09,1.16-24.29,5.44c-1.51-0.98-1.74-1.87-1.47-2.63
		c2.55-7.19,4.96-14.4,9.57-20.68c3.2-4.35,7.44-6.72,12.53-7.34c8.04-0.98,15.34-4.38,23.07-6.35c3.43-0.88,4.99-3.8,6.88-6.24
		c2.27-2.93,4.66-5.16,8.28-6.73c13.12-5.69,26.14-11.59,38.97-17.95c7.6-3.77,15.26-7.31,22.37-11.99c1.5-0.99,2.41-2.03,3.12-3.62
		c3.44-7.76,5.9-15.87,8.96-23.76c3.14-8.08,7.51-15.57,11.67-23.15c1.02-1.85,2.88-2.73,4.29-4.13
		c12.03-12.03,25.83-21.98,38.69-33.03c3.16-2.71,6.21-5.54,9.26-8.37c2.34-2.18,3.22-4.54,2.3-7.99c-2.1-7.88-3.66-15.9-5.41-23.87
		c-1.08-4.94-0.33-9.97-0.61-14.95c-1.27-22.43,3.14-44.09,9.35-65.43c5.58-19.16,14.82-36.72,25.7-53.31
		c7.65-11.67,16.14-22.81,25.11-33.54c5.54-6.63,11.09-13.25,16.7-19.83c0.96-1.13,2.18-2.05,3.31-3.02
		c5.02-4.33,5.21-7.6,0.58-12.55c-2.05-2.19-4.17-4.31-6.34-6.37c-10.21-9.65-18.44-20.96-26.92-32.05
		c-9.2-12.04-17.91-24.47-25.39-37.62c-8.13-14.3-16.69-28.42-22.89-43.75c-0.38-0.93-0.83-1.81-2.02-2.36
		c-2.81,2.54-2.81,6.81-5.49,9.88c-3.67-3.79-5.4-8.39-7.77-13.98c-5.4,8.35-8.02,17.12-13.32,25.62c-3.53-7.27-4.1-14.44-5-21.44
		c-0.93-7.25-1.29-14.56-1.89-21.86c-2.21-1.66-4.09-0.75-6.06,0.3c-3.82,2.05-7.72,3.92-12.03,4.75c-1.12,0.22-2.26,0.73-3.83-0.76
		c2.3-4.4,1.63-9.81,4.42-14.6c2.32-3.98,3.5-8.6,5.32-12.88c4.17-9.78,8.69-19.42,12.56-29.32c3.2-8.2,5.87-16.76,10.64-24.09
		c7.32-11.24,15.27-22.08,23.5-32.75c11.55-14.97,24.91-28.21,37.48-42.16c11.55-12.82,24.41-24.52,37.99-35.36
		c12.4-9.9,25.8-18.14,39.77-25.55c5.2-2.76,10.78-2.79,16.49-2.76c8.97,0.04,17.96,1.06,26.92-0.45c7.68-1.29,15.4-2.32,23.1-3.46
		c3.24-0.48,6.32-0.29,8.89,2.11c0.24,0.22,0.54,0.42,0.85,0.52c14.03,4.63,19.85,17.29,27.13,28.3
		c4.27,6.45,8.24,13.27,10.34,20.93c1.28,4.69,1.73,9.01-1.7,13.18c-2.2,2.68-3.68,5.92-6.16,8.45c-1.84,1.88-2.54,4.08-1.85,6.85
		c1.31,5.29,0.42,10.62-0.42,15.88c-0.48,3.03-2.67,4.93-5.26,6.27c-3.11,1.61-6.33,3.06-9.82,3.56c-2.24,0.32-3.53,1.1-4.17,3.45
		c-4.28,15.79-10.86,30.74-17.84,45.44c-5.97,12.57-12.43,24.93-19.79,36.83c1.6,2.07,3.87,1.92,5.96,1.87
		c5.19-0.12,10.31,0.62,15.45,0.99c15.5,1.11,29.41,6.64,42.16,15.33c1.51,1.03,3.06,2.01,4.59,3.03c1.53,1.02,3.07,1.17,4.64,0.11
		c4.31-2.9,9.28-4.49,13.85-6.87c2.65-1.38,3.75-3.16,3.06-5.99c-2.39-9.82,1.45-17.77,8.19-24.25c3.28-3.15,8.06-4.82,12.84-4.72
		c8.89,0.18,17.87,1.24,21.82,10.8c6.34,15.35,3.06,28.32-13.51,35.65c-3.78,1.67-8.65,2.12-12.99-0.44
		c-2.7-1.6-5.66-2.78-8.32-4.66c-5.79,3.01-11.58,5.78-17.13,10.37c6.63,2.63,12.64,4.95,18.61,7.39
		c14.37,5.88,27.49,13.63,36.62,26.61c10.43,14.82,7.99,29.61-2.53,43.18c-5.56,7.17-12.95,12.38-19.58,18.41
		c-0.93,0.85-2.39,1.23-2.71,3.14c5.53,1.02,11.03,2.07,16.55,3c0.75,0.13,1.77-0.08,2.38-0.51c7.31-5.18,15.95-5.39,24.31-6.35
		c12.27-1.4,24.37-3.38,36.25-8.14c-2.04-4.39-7.88-5.69-8.93-11.16c4.27-0.9,8.37-0.34,12.43-0.46c2.7-0.08,6.29,1.64,7.87-1.12
		c1.68-2.94-1.99-4.91-3.37-7.2c-3.35-5.54-7.08-10.85-10.66-16.26c-0.74-1.12-1.52-2.22-0.58-4.62
		c15.52,1.64,30.53,7.17,47.19,8.63c2.03-3.18,5.37-6.83,8.47-10.69c2.6-3.24,3.59-3.22,5.73,0.39c2.46,4.15,5.18,8.17,7.29,12.5
		c1.94,3.98,5.1,5.73,9.1,5.89c12.66,0.51,25.26,1.92,37.84,3.06c12.92,1.17,25.87,2.16,38.79,3.18
		c14.16,1.12,28.13,3.12,42.02,5.79c15.81,3.04,31.78,5.39,47.06,10.9c19.51,7.03,35.82,18.41,49.48,34.01
		c6.41,7.32,12.04,15.14,16.65,23.56c6.09,11.15,10.55,22.96,9.58,36.16c-0.39,5.29,0.05,10.63-0.29,15.96
		c-0.63,9.94-3.33,19.39-6.79,28.58c-2.53,6.73-9.1,8.01-15.3,9.52c-17.79,4.35-33.78-0.49-49.11-9.6
		c-3.51,3.55-7.17,2.93-10.87,0.46c-4.21-2.81-9.28-3.58-13.73-5.86c-7.32-3.74-13.84-8.58-20.07-14.45
		c-2.79,2.8-4.78,6.21-7.6,8.94c-3.19,3.09-7.06,5.02-10.81,7.03c-2.88,1.54-6.19,1.6-9.68,0.64c-6.26-1.73-12.35-4.05-18.66-5.53
		c-4.56-1.06-8.38-3.21-11.71-6.33c-5.59-5.24-11.23-10.43-17.32-15.08c-2.91-2.22-3.72-5.49-4.23-8.77
		c-0.42-2.62-1.38-5.3-1.29-7.82c0.28-8.05-5.53-10.88-11.29-12.62c-13.99-4.23-27.88-8.81-42.22-11.92
		c-9.23-2-18.2-5.23-27.32-7.77c-5.77-1.61-11.52-3.24-17.23-5.07c-4.78-1.53-9.52-0.47-14.16,1.17
		c-13.81,4.87-28.09,8.21-41.94,12.94c-7.22,2.47-14.2,5.7-21.13,8.92c-7.23,3.36-14.6,6.44-21.52,10.47
		c-2.35,1.37-2.87,2.68-2.12,5.21c6.48,21.92,9.74,44.5,13.2,67.02c1.01,6.55,0.54,13.32,1.37,19.92
		c2.23,17.49,0.69,34.94-0.81,52.31c-0.91,10.56-3.92,20.92-5.62,31.43c-1.84,11.39-5.59,22.27-8.43,33.38
		c-0.16,0.64-0.39,1.28-0.61,1.9c-2.35,6.47-2.18,7.63,3.43,11.98c14.98,11.62,29.06,24.35,43.97,36.07
		c3.77,2.96,7.82,6.22,9.46,11.24c0.58,1.79,2.05,1.94,3.63,1.91c2.23-0.04,4.18-1.04,6.21-1.78c20.06-7.25,38.41-17.55,54.97-30.96
		c13.59-11.01,26.71-22.58,38.29-35.73c5.69-6.46,11.08-13.22,16.22-20.17c2.65-3.58,5.96-6.64,9.45-9.53
		c4.2-3.48,7.95-7.48,12.76-10.21c10.52-5.96,21.38-7.09,32.43-1.83c4.4,2.09,5.94,6.29,6.57,11.05
		c1.57,11.81-3.39,21.49-9.86,30.54c-7.39,10.33-16.81,18.86-26.05,27.49c-13.05,12.19-27.27,22.96-42.22,32.62
		c-12.13,7.84-24.33,15.81-37.75,21.34c-16.57,6.82-32.95,14.23-50.44,18.54c-3.23,0.8-6.58,1-9.75,2.13
		c-1.63,0.58-2.54,1.39-2.5,3.19c0.16,8.02-1.27,15.93-1.76,23.91c-0.17,2.88,0.71,4.85,2.99,6.31c6.17,3.97,12.71,7.25,19.69,9.47
		c4.13,1.32,8.25,2.51,12.07,4.64c1.3,0.72,2.7,1.46,4.14,1.7c8.93,1.47,17.17,5.26,25.82,7.65c5.17,1.43,9.41,5.05,12.02,9.32
		c6.42,10.51,9.08,11.15,18.86,15.29c3.64,1.54,7.22,3.31,10.92,4.77c4.17,1.64,6.8,4.56,7.82,9c1.82,7.95,2.77,15.99,3.03,24.53
		c-4.36-3.22-9.15-5.42-13.27-8.62c-3.56-2.77-7.53-4.2-11.88-4.72c-8.76-1.04-17.62-0.52-26.38-1.97
		c-4.25-0.7-8.56,0.84-13.06,1.93c-1.37,11.8-1.67,23.87-7.71,34.54c-1.12,0.27-1.8-0.24-2.1-1.05c-2.83-7.8-9.5-12.72-14.29-19.05
		c-1.16-1.54-3.13-1.89-4.91-2.25c-8.64-1.75-17.22-3.74-25.74-6.02c-3.3-0.88-5.86-3-9.03-4.1c-8.4-2.93-17.09-2.43-25.7-2.8
		c-7.94-0.34-15.52-1.47-22.3-6.07c-1.68-1.14-3.27-2.22-4.49-3.85c-6.3-8.39-12.39-16.91-17.72-25.97
		c-1.31-2.22-1.85-4.68-2.15-7.12c-0.42-3.46-2.04-5.3-5.47-6.13C428.99,758.07,425.97,757.76,423.66,754.35z M322.39,199.76
		c3.76-1.59,5.85-3.74,6.78-7.32c3.22-12.38,7.65-24.39,11.69-36.5c4.68-14.01,11.15-27.34,18.18-40.39
		c1.67-3.09,3.91-6.02,4.85-10.08c-7.43,0.13-14.52-2.5-21.46,0.79c-9.47,4.48-18.62,9.45-27.16,15.63
		c-4.95,3.58-5.62,7.45-4.59,13.16c2.9,15.99,6.8,31.8,8.44,48.03C319.67,188.47,320.55,193.91,322.39,199.76z M285.29,227.04
		c1.15-1.08,1.9-1.99,2.84-2.65c7.11-5.02,11.27-10.98,6.59-19.89c-0.07-0.14-0.08-0.32-0.11-0.49c-3.49-19-5.99-38.11-6.25-57.46
		c-0.01-0.95,0.11-2.07-1.63-2.39c-9.43,9.6-20.12,18.35-26.75,30.7c11.67,7.46,14.04,21.83,8.37,32.04
		c-1.13,2.03-0.53,3.37,0.64,4.94C273.42,217.78,279.45,221.97,285.29,227.04z M242.3,216.45c0.52,5.25,10.89,25.61,16.04,31.54
		c5.41-2.22,10.9-4.5,16.06-7.51c1.67-0.97,2.41-2.35,0.83-4.06c-5.21-5.63-9.44-12.01-13.88-18.23c-1.22-1.71-3-2.52-4.72-2.2
		C251.87,216.89,247.1,216.65,242.3,216.45z M457.12,682.58c-1.35-1.54-1.88-2.38-2.63-2.94c-6.71-5.12-13.43-10.23-20.21-15.26
		c-4.92-3.65-9.95-6.95-16.16-2.4c-0.63,0.46-1.62,0.4-2.35,0.76c-3.77,1.85-8.18,2.18-12.31,5.03
		C420.53,675.99,437.17,683.03,457.12,682.58z"/>
</g>
</svg>
