<?xml version="1.0" encoding="utf-8"?>
<!-- Generator: Adobe Illustrator 24.0.2, SVG Export Plug-In . SVG Version: 6.00 Build 0)  -->
<svg version="1.1" id="Layer_1" xmlns="http://www.w3.org/2000/svg" xmlns:xlink="http://www.w3.org/1999/xlink" x="0px" y="0px"
	 viewBox="0 0 861.35 861.19" style="enable-background:new 0 0 861.35 861.19;" xml:space="preserve">
<g>
	<path d="M703.21,701.31c-7.68-2.08-14.66-3.98-21.7-5.89c-0.28,0.95-0.6,1.44-0.53,1.87c2.85,17.44,1.34,34.78-0.57,52.21
		c-1.81,16.57-4.75,32.91-8.09,49.2c-2.24,10.94-5.53,21.59-11.03,31.37c-3.21,5.73-1.22,11.71-1.55,17.56
		c-0.24,4.25-0.32,8.44-1.82,12.49c-3.34,0.15-5.73-1.89-8.92-1.93c-0.23,3.35-2.2,3.2-5.1,2.75c-16.17-2.53-30.18-9.93-43.66-18.69
		c-3.23-2.1-7.2-2.06-10.73-3.57c-9.45-4.04-17.8-9.56-25.07-16.75c-0.81-0.8-1.47-1.85-1.89-2.91
		c-3.94-9.88-8.77-19.37-12.55-29.34c-2.29-6.04-4.48-12.16-7.39-17.98c-3.44-6.9-8.69-12.25-14.55-16.9
		c-7.73-6.13-14.34-13.42-21.75-19.86c-12.69-11.03-25.47-21.96-37.37-33.86c-3.88-3.88-8.89-5.19-14.62-5.04
		c-15.98,0.44-31.96,0.7-47.96,0.25c-8.63-0.24-17.29-0.49-25.94-0.55c-9.3-0.07-18.59-1.29-27.88-2.05
		c-7.45-0.62-14.39,1.11-20.95,4.51c-15.08,7.82-27.3,18.8-36.5,33.14c-4.49,7-9.42,13.73-13.61,20.9c-3.08,5.28-5,11.19-8.6,16.28
		c-2.12,3.01-4.68,4.95-8,6.4c-7.98,3.5-16.54,4.98-24.82,7.42c-21.05,6.23-42.59,10.57-63.64,16.83
		c-8.58,2.55-17.52,3.94-26.44,5.1c-0.16,0.02-0.34,0.07-0.5,0.04c-2.38-0.36-5.35,0.49-6.69-2.24c-1.29-2.62,0.83-4.28,2.5-5.93
		c0.45-0.45,0.79-1.08,0.54-1.99c-3.6-0.53-7.11,1.07-10.73,0.94c-1.77-0.06-3.85,0.58-4.97-1.43c-1.12-2.01-0.3-3.93,0.92-5.58
		c1.76-2.39,3.48-4.74,5.66-6.88c11.56-11.33,25.38-19.32,39.41-27.18c0.28-2.62-0.84-4.54-2.44-6.33
		c-8.85-9.85-16.26-20.66-21.57-32.81c-6.27-14.34-7.44-29.38-4.56-44.57c3.85-20.32,10.04-39.96,18.94-58.69
		c0.35-0.75,0.72-1.49,1.13-2.21c0.39-0.69,1.15-1.26,0.25-2.69c-4.42,2.24-8.89,4.52-13.38,6.76c-2.18,1.09-4.51,3.36-6.85,1.59
		c-2.33-1.77-0.18-4.31,0.29-6.47c1.18-5.46,4.18-10.1,6.88-14.87c0.9-1.58,1.78-3.17,2.94-5.25c-2.33,0.02-4.13,0.42-5.96,0.92
		c-13.01,3.58-26.07,6.86-39.46,8.78c-2.34,0.34-4.63,0.34-6.95,0.31c-1.49-0.02-3.2,0.17-3.99-1.43c-0.8-1.61,0.45-2.81,1.32-4.02
		c4.72-6.56,10.82-11.74,16.93-16.9c11.61-9.8,24.47-17.84,37.03-26.29c3.69-2.48,8.23-3.59,11.14-7.38
		c1.62-2.1,2.52-4.11,2.39-6.81c-1.04-22.14,2.39-43.69,7.49-65.21c3.69-15.55,8.2-30.81,12.78-46.07
		c1.91-6.36,4.88-12.39,6.84-18.74c3.16-10.22,7.9-19.7,12.88-29.11c-1.94-3.64-4.72-6.64-5.72-10.59
		c-0.49-1.95-1.92-2.71-3.81-2.27c-15.3,3.58-31,3.54-47.28,5.07c0.36,8.32-1.17,16.49-1.56,24.74
		c-0.58,12.31-1.18,24.66-0.24,36.95c0.75,9.76,2.72,19.38,4.64,29.03c1.9,9.56,4.78,19.07,4.51,29.01
		c-0.05,1.83-0.15,3.73,0.28,5.48c1.99,7.98-0.97,14.69-5.07,21.17c-5.85,9.24-12.53,17.64-22.69,22.54
		c-0.75,0.36-1.45,0.98-2.23,1.08c-3.71,0.44-5.7,1.93-6.27,6.13c-0.48,3.55-3.97,5.81-7.01,7.4c-4.83,2.53-7.41,6.54-10.3,10.98
		c-7.72,11.88-17.59,21.49-31.59,26.24c-6.01,2.04-11.87,4.71-18.24,4.67c-7.68-0.05-14.97-1.18-20.5-7.91
		c-4.82-5.87-9.4-11.94-14.3-17.76c-6.49-7.71-8.98-17.69-12.51-27.02c-5.42-14.31-6.18-29.47-8.57-44.81
		c-0.22,3.06-0.42,5.69-0.61,8.32C1,504.99,0.84,504.99,0.68,505c-0.21-5.96-0.43-11.93-0.63-17.89c-0.21-6.17,0.33-12.3,1.06-18.45
		c0.17,2.71,0.34,5.43,0.51,8.14c0.93-9.27,2.62-18.43,3.49-27.69c1.4-14.82,5.4-29.01,10.21-43.04c6-17.54,13.67-34.26,24.04-49.66
		c2.68-3.98,4.03-8.21,4.53-13.01c2.09-20.04,4.49-40.02,10.17-59.47c2.4-8.21,5.85-15.92,9.48-23.58
		c4.63-9.76,9.49-19.37,16.5-27.79c2.36-2.84,5.49-4.01,8.14-6.84c2.31,3.93,3.56,7.48,4.35,11.14c3.63,16.73,3.4,33.74,3.43,50.73
		c0,1.81-0.29,3.65,0.65,5.83c5.17-2.53,10.15-5.34,15.37-7.64c9.13-4.03,18.52-7.35,27.85-10.87c11.52-4.35,23.3-7.96,34.81-12.3
		c7.2-2.72,13.06-7.94,19.05-12.68c7.31-5.78,14.48-11.77,21.46-17.94c9.45-8.36,19.97-14.88,31.85-19.6
		c-0.28-3.75-1.29-7.1-3.43-9.88c-1.48-0.59-2.54,0.06-3.62,0.43c-4.9,1.67-8.04,0.32-9.83-4.44c-1-2.66-1.59-5.46-1.37-8.33
		c1.72-22.61,4.44-45.07,12-66.61c1.58-4.51,4.1-8.7,6.23-13.01c1.69-3.42,5.05-4.15,8.31-4.75c2.1-0.39,3.26,1.31,4.31,2.86
		c1.76,2.6,3.53,5.19,5.18,7.61c2.6-0.12,3-1.7,3.36-3.4c4.37-20.75,11.66-40.56,19.64-60.11c3.57-8.76,7.46-17.42,12.03-25.73
		c2.11-3.83,4.91-7.14,8.28-9.93c1.26-1.04,2.79-2.15,4.55-1.36c1.96,0.88,1.34,2.79,1.34,4.41c0.03,12.49-2.53,24.9-1.46,37.4
		c0.65,7.59-0.88,15.27,1.43,22.8c1.41,4.61,1.75,5,6.02,2.97c2.7-1.28,5.42-2.53,8.09-3.88c2.47-1.25,5-1.4,7.74-1.24
		c2.47,0.14,3.59,1.37,4.34,3.38c0.38,1.03,0.13,2.32,0.99,3.03c1.78,0.13,2.08-1.18,2.77-2.05c9.73-12.23,17.98-25.55,28.7-37.06
		c9.81-10.52,20.54-19.89,32-28.5c1.04-0.78,2.12-1.89,3.56-1.1c1.68,0.92,1.1,2.6,1.04,4.05c-0.21,5.47-2.83,10.23-4.59,15.24
		c-3.31,9.41-4.89,19.32-8.54,28.65c-3.43,8.78-6.14,17.84-10.81,26.46c4.48,0.93,6.27-5.26,10.99-3
		c1.29,9.46-2.53,18.55-3.96,28.33c9.5-1.29,18.38-2.22,27.31-1.97c8.71,0.24,17.3,2.13,26.09,3c1.16-4.21,0.29-7.54,0.52-10.8
		c0.28-4.01,1.58-7.43,3.78-10.64c11.53-16.84,24.89-32.02,40.04-45.75c11.12-10.08,23.16-18.93,34.66-28.37
		c3.47,1.8,3.47,4.34,2.39,7.33c-5.74,15.96-11.76,31.81-19.48,46.95c-2.98,5.84-5.78,11.77-9.15,18.63
		c4.27-1.72,6.72-4.28,9.73-5.87c1.47-0.78,2.83-2.09,4.56-1.04c1.98,1.21,1.34,3.23,1.05,4.99c-1.14,6.96-3.98,13.39-6.65,19.84
		c-3.1,7.5-5.77,15.23-11.06,22c5.26,4.98,11.45,7.7,17.77,11.24c1.3-4.58,2.46-8.66,3.6-12.73c2.32-8.28,6.68-15.49,11.49-22.52
		c5.36-7.83,10.81-15.55,17.15-22.66c4.64-5.2,10.13-7.72,16.87-6.25c5.32,1.16,8.53-1.01,11.34-5.07c3.7-5.35,7.13-10.81,9.9-16.71
		c9.56-20.41,23.41-37.5,40.74-51.76c3.62-2.98,7.49-6.04,12.57-7.45c1.51,3.69,1.42,7.33,0.5,10.77
		c-3.97,14.77-7.55,29.63-10.21,44.69c-0.98,5.54,1.08,9.29,6.24,11.97c2.36,1.22,4.65,2.6,6.86,4.08
		c7.33,4.93,9.53,11.33,7.31,20.47c-2.03,8.39-6.45,15.67-10.67,23.01c-4.49,7.81-8.53,15.82-11.83,24.19
		c-1.58,4-0.8,5.27,3.43,5.34c5.53,0.1,10.84,1.7,16.32,2.14c3.95,0.31,4.91,2.02,5.01,6.02c0.22,8.82-3.82,16.44-7.03,24.2
		c-2.53,6.12-5.32,12.08-5.91,18.87c1.71,1.93,4.04,2.66,6.53,3.17c2.11,0.44,4.24,0.92,6.25,1.68c3.5,1.32,4.64,3.97,3.55,7.56
		c-1.08,3.54-2.97,6.65-5.17,9.59c-0.88,1.18-2.17,2.13-1.7,4.29c16.46,3.57,27.77,14.91,38.96,26.69
		c7.48,7.89,13.25,17.07,20.33,25.22c6.98,8.03,15.86,13.58,24.95,18.83c5.76,3.33,11.63,6.47,17.26,10
		c6.33,3.98,13.35,6.03,20.45,7.77c3.33,0.81,6.42,2.68,10.44,2.7c2.65-23.68,7.7-46.51,18.87-67.63c3.99,0.78,6.48,2.54,8.39,5.21
		c7.47,10.42,12.03,21.94,14.99,34.47c2.15,9.13,2.12,18.49,4.53,27.55c1.12,4.21,0.55,8.95,0.34,13.42
		c-0.24,4.87,0.71,9.27,3.7,13.14c1.78,2.3,2.38,5.41,5.26,7.78c3.53-10.12,10.07-17.83,16.95-25.27c0.96-1.04,2.12-2.15,3.66-2.15
		c4.77,3.32,5.44,7.98,5.25,13.28c-0.37,10.15-0.03,20.33-1.41,29.57c-0.19-2.47-0.45-5.81-0.8-10.3
		c-1.57,16.57-2.32,32.1-5.54,47.24c-2.41,11.34-3.05,23.13-8.03,33.88c-1.35,2.92-0.78,6.25-1.46,9.35
		c-3.01,13.64-6.24,27.23-8.89,40.94c-3.23,16.71-7.71,33.04-14.35,48.69c-9.4,22.16-22.13,42.07-40.76,57.73
		c-11.11,9.34-23.81,15.77-37.87,19.14c-15.63,3.75-31.41,2.85-46.96-0.6c-5.28-1.17-10.45-3.18-15.39-5.66
		c-8.15-4.08-16.75-6.93-25.77-8.42c-0.44-0.07-0.93,0.22-1.45,0.35c-0.39,2.51,1.85,3.41,2.96,4.9
		c8.88,11.9,17.24,24.08,22.47,38.13c0.46,1.25,1,2.48,1.39,3.75c1.67,5.37,0.97,6.28-4.86,6.47c-0.66,0.02-1.32,0.07-1.97,0.15
		c-0.14,0.02-0.26,0.19-0.67,0.52c0.6,3.78,1.32,6.77,6.15,8.54c7.94,2.91,15.58,6.66,23.84,8.76c0.95,0.24,1.84,0.83,2,0.73
		c3.44-14.29,0.74-28.59,4.65-43.12c8.2,7.96,13.85,16.64,19.61,25.69c12.47-6.83,24.75-13.32,37.17-19.53
		c12.42-6.2,25.22-11.17,38.83-14.72c-6.23,14.83-12.88,28.93-23.71,41.48c19.66-0.13,38.1-0.13,56.34,3.15
		c0.81,0.15,1.51,0.65,2.03,1.77c-4.8,8.18-12.93,13.39-20.03,20.31c6.72,4.68,13.17,9.18,20.11,14.02
		c-7.47,6.63-16.87,9.4-25.23,14.67c5.88,12.79,12.01,25.53,17.29,39.9c-23.16,0.85-43.42-7.2-64.52-13.18
		c1.25,14.4,5.16,28.41,3.99,43.15c-21.52-14.97-37.15-35.45-53.65-55.82c-2.86,4.09-5.19,7.42-8.07,11.55
		C703.49,724.65,703.19,713.01,703.21,701.31z M618.18,344.61c-1.02,2.85-0.3,4.96,0.86,7.05c1.37,2.47,2.75,4.95,3.94,7.52
		c4.88,10.57,9.44,21.29,14.9,31.59c5.15,9.71,9.47,19.82,12.31,30.4c2.1,7.84,5.49,15.29,6.82,23.36c0.24,1.44,1.07,3.16,2.58,3.89
		c1.34,0.16,1.93-0.65,2.66-1.36c8.25-7.98,14.01-17.77,19.64-27.57c3.48-6.06,6.18-12.58,6.41-19.77
		c0.17-5.35,0.97-10.58,2.21-15.79c1.41-5.93,1.1-5.75-4.21-8.89c-17.25-10.17-35.66-17.84-54.14-25.33
		C627.63,347.89,623.2,345.55,618.18,344.61z"/>
</g>
</svg>
