<?xml version="1.0" encoding="utf-8"?>
<!-- Generator: Adobe Illustrator 24.0.2, SVG Export Plug-In . SVG Version: 6.00 Build 0)  -->
<svg version="1.1" id="Layer_1" xmlns="http://www.w3.org/2000/svg" xmlns:xlink="http://www.w3.org/1999/xlink" x="0px" y="0px"
	 width="793.27" height="861.37" viewBox="0 0 793.27 861.37" style="enable-background:new 0 0 793.27 861.37;" xml:space="preserve">
<g>
	<path d="M40.38,768.11c-3.11-1.79-6.97,0.4-9.75-2.47c0.78-2.06,2.54-3.07,4.09-4.21c5.22-3.86,10.55-7.57,16.24-10.74
		c8.94-4.99,15.49-12.2,19.99-21.44c4.87-10,10.54-19.6,14.99-29.54c-0.71-1.3-1.55-1.9-2.51-2.18c-6.63-1.87-9.3-6.97-10.95-13.04
		c-2.62-9.63-2.57-19.44-1.85-29.25c0.31-4.27,2.36-7.85,6.04-10.43c6.31-4.41,13.11-7.94,20.09-11.08
		c3.96-1.78,5.54-4.34,6.03-8.74c2.23-20.2,0.1-40.23-1.56-60.3c-1.14-13.75-2.72-27.48-1.11-41.31c0.24-2.06-0.24-3.79-1.29-5.66
		c-1.82-3.24-3.13-6.76-5.29-10.14c-3.12,6.04-2.33,13.05-5.65,18.87c-1.33,0.27-2.02-0.64-2.6-1.71
		c-4.38-8.13-7.05-16.85-8.74-25.86c-1.41-7.53-2.47-15.12-2.28-22.83c0.02-0.81-0.13-1.67-0.99-2.27
		c-2.21-0.91-3.23,0.97-4.46,2.18c-6.53,6.45-13.4,12.49-20.92,17.78c-1.17,0.82-2.21,2.09-4.8,1.08
		c7.26-13.94,11.84-28.82,17.69-44.4c-5.86,2.47-10.17,6.12-16.57,6.28c1.79-2.88,3.06-5.36,4.73-7.53
		c4.89-6.36,9.04-13.15,12.49-20.39c3.92-8.22,8.19-16.23,11.81-24.64c4.45-10.34,8.2-20.96,12.89-31.2
		c3.59-7.82,5.88-16.24,8.8-24.36c0.9-2.5,2.02-4.92,3.01-7.39c0.96-2.41,0.67-4.16-1.67-5.99c-6.68-5.24-13.09-10.83-19.57-16.31
		c-3.84-3.24-4.09-4.11-3.11-10c11.05-1.13,21.27,3.68,32.07,5.47c2.47-6.68,0.27-12.46-2.22-17.98c-3.5-7.75-6.61-15.6-8.88-23.8
		c-0.34-1.24-0.6-2.63-2.51-3.13c-1.06,1.8-0.56,3.79-0.46,5.66c0.33,5.83,0.47,11.65,0.2,17.48c-0.12,2.62-0.53,4.95-3.44,6.17
		c-2.82-1.72-4.42-4.44-6.16-7.02c-7.04-10.45-10.87-22.33-15.37-33.94c-4.87-12.56-8.66-25.45-12.42-38.37
		c-3.03-10.39-4.7-21.05-7.21-31.53c-1.28-5.34-0.25-9.99,2.72-14.59c5.06-7.83,10.25-15.57,15.7-23.13
		c1.41-1.96,1.73-3.73,1.17-6.03c-0.9-3.72-1.65-7.49-2.1-11.28c-0.62-5.25,3.41-8.29,6.16-11.9c0.28-0.37,0.79-0.57,1.2-0.85
		c0.21-1.58-1.05-2.46-1.77-3.43c-3.65-5-2.94-10.55-1.43-15.73c3.16-10.81,8.69-20.46,16.65-28.54c6.13-6.22,13.72-10.48,21-15.17
		c14.71-9.49,29.04-19.45,39.57-33.89c4.47-6.13,7.57-12.88,10.25-19.88c0.69-1.81,1.17-3.73,3.5-3.46
		c2.44,0.28,2.17,2.51,2.51,4.27c2.1,10.82,2.63,21.76,2,33.68c5.09-3.3,9.19-6.58,13.95-8.84c8.17-3.88,16.67-6.59,25.48-8.52
		c16.74-3.65,33.56-6.88,50.41-9.99c2.57-0.48,4.72-2.33,8.05-2.5c-4.34,5.59-9.5,9.52-14.9,12.95c-4.89,3.11-8.99,6.55-11.69,11.84
		c-1.68,3.3-4.4,6.06-6.43,9.4c14.27-5.8,28.47-11.59,42.2-18.94c1.87,2.64,1,4.7-0.07,6.79c-6.24,12.25-14.17,23.29-23.7,33.2
		c-0.79,0.82-1.91,1.39-2.21,2.94c2.54,1.87,5.37,2.66,8.65,2.4c6.64-0.53,13.18-2.09,19.89-1.81c1.42,0.06,3.18-0.58,4.04,1.14
		c0.83,1.66-0.56,2.75-1.35,3.98c-1.7,2.64-4.28,4.69-5.36,8.15c5.08,3.39,11,5.15,16.29,8.12c13.6,7.63,28.53,11.88,43.2,16.78
		c3.84,1.28,7.8,0.29,11.94,0.05c-4.22,6.07-11.34,7.38-35.38,6.83c-0.61,1.49,0.65,2.11,1.49,2.66
		c12.55,8.33,25.84,14.44,41.41,13.49c7.17-0.44,14.43-0.53,21.46,0.52c10.53,1.58,20.74,4.76,29.57,11.08
		c2.36,1.69,5.42,1.9,7.48,3.87c4.16,4,9.18,7.11,12.46,12.01c7.16,10.68,9.21,22.21,5.86,34.66c-0.3,1.1-0.88,2.19,0.25,3.25
		c1.94,0.12,2.8-1.52,3.96-2.61c3.42-3.19,7.1-6.03,10.93-8.72c1.97-1.38,3.71-2.1,5.89-0.59c2.38,1.65,3.85,3.75,3.31,6.74
		c-3.09,17.16-5.9,34.36-8.23,51.65c1.03,1.23,2.47,0.81,3.73,0.82c6.63,0.03,11.91,2.95,15.97,7.91c1.92,2.35,3.18,1.82,5.38,0.47
		c15.49-9.48,30.01-20.39,45.18-30.36c14.18-9.32,28.2-18.89,42.64-27.79c12.32-7.6,24.56-15.29,36.52-23.43
		c2.75-1.87,5.67-2.71,8.88-2.91c4.5-0.28,6.43,1.66,6.06,6.25c-0.29,3.57-2.09,6.66-3.6,9.78c-5.73,11.82-11.12,23.79-16.36,35.83
		c-4.52,10.38-10.46,20.02-15.48,30.14c-4.43,8.94-8.7,17.95-12.95,26.97c-4.17,8.85-8.2,17.77-12.22,26.69
		c-1.43,3.18-2.66,6.45-3.98,9.66c0.54,1.62,1.63,2.68,3.27,2.62c5.92-0.22,11.66-0.04,17.64-2.09c9.47-3.25,18.37-7.78,27.79-11.04
		c2.97-1.03,5.64-2.8,8.41-4.27c3.75-1.99,7.49-2.44,11.72-1.9c1.41,2.67,1.96,5.25,0.57,8.38c-1.38,3.1,0.02,5.1,3.44,4.58
		c16.01-2.42,32.23-0.66,48.3-2.89c10.49-1.46,21.28-0.82,31.93-0.96c5.33-0.07,10.66,0.4,15.98,0.26c3.54-0.1,6.41,1.02,7.9,4.02
		c1.36,2.74-1.51,7.5-5.4,9.05c-12.38,4.94-23.77,11.87-35.79,17.52c-11.58,5.45-22.81,11.63-34.23,17.43
		c-7.25,3.68-14.92,6.43-22.11,10.28c-8.47,4.54-17.18,8.64-25.65,13.17c-2.7,1.44-6.22,1.43-8.13,4.24
		c0.3,2.19,1.95,2.22,3.39,2.43c9.21,1.31,18.42,2.69,27.65,3.85c7.42,0.93,14.65,3.06,22.04,3.29c2.53,6.18,1.22,8.72-5.43,11.2
		c-6.57,2.45-13.47,3.65-20.22,5.39c-11.56,2.97-22.64,7.66-35.14,9.41c0.75,4.68-0.5,9.19,0.38,13.39
		c1.55,7.44,7.32,11.24,14.25,13.13c11.56,3.15,20.97,9.26,27.36,19.49c5.35,8.56,7.4,18.02,6.9,28.1
		c-0.37,7.4-1.68,14.51-5.02,21.18c-0.38,0.76-0.37,1.61,0.22,2.84c5.97,0.96,11.79,3.17,17.21,6.53
		c7.21,4.47,12.92,9.88,13.88,18.92c0.15,1.47,0.63,2.96,1.26,4.3c0.97,2.07,2.7,3.71,5.03,3.56c10.79-0.72,19.1-11.55,16.87-19.05
		c-0.38-1.27-0.66-2.53-1.37-3.71c-2.79-4.63-2.42-8.09,0.92-12.19c5.64-6.91,12.93-11.73,21.04-14.77
		c6.9-2.59,14.5-2.43,21.57-0.03c4.82,1.64,9.56,3.63,13.72,6.98c5.17,4.17,8.28,3.87,13.94,0.12c5.69-3.77,11.41-7.33,18.07-9.39
		c6.23-1.92,12.42-2.14,18.75-1.48c1.13,0.12,2.31,0.47,3.31,1c1.81,0.98,4.69,1.54,4.02,4.3c-0.6,2.45-3.07,3.35-5.53,3.44
		c-7.38,0.26-13.97,2.79-19.76,7.2c-3.95,3.01-7.71,6.22-9.98,10.94c-1.17,2.43-1.27,4.8-1.29,7.25c-0.02,2.72-0.84,4.88-3.14,6.4
		c-4.03,2.65-7.08,6.53-11.4,8.86c-3.52,1.9-6.9,2-10.52,0.51c-9.41-3.88-18.74-0.58-24.1,7.98c-5.51,8.8-5.82,17.73-2.05,27.16
		c4.48,11.22-1.62,26.11-12.55,31.5c-4.71,2.33-9.38,4.16-14.77,3.22c-2.43-0.42-3.58,1.55-4.63,3.19
		c-5.2,8.2-12.83,12.67-21.99,15.27c-5.59,1.59-10.86,0.63-16.26-0.43c-1.73-0.34-3.45-1.15-5.66-0.68
		c1.68,5.44,3.45,10.57,3.29,16.13c-0.12,4.28-0.78,8.46-3.37,11.8c-1.89,2.44-1.52,4.68-0.79,7c4.34,13.79,8.38,27.68,13.24,41.31
		c4.79,13.44,8.98,27.08,12.86,40.82c0.87,3.07,3.17,4.93,6.07,6.21c5.17,2.29,10.42,4.45,14.96,7.95c1.17,0.91,2.6,1.55,3.17,3.32
		c-3.24,3.17-8.04,1.08-11.98,3.43c0.54,7.97,6.77,14.35,7.73,22.91c-5.64-1.12-10.76-1.2-15.09-4.06c-1.9,2.44-1.19,4.67-1.19,6.75
		c0,6.66,0.25,13.32-1.17,19.91c-1.13,5.22-4.26,8.52-9.4,8.74c-8.42,0.37-16.88,2.56-25.29-0.22c-1.95-0.64-3.63,0.51-5.18,1.36
		c-4.42,2.41-9.13,2.8-14.03,2.72c-6.65-0.11-13.32,0.24-19.97,0.07c-4.76-0.12-9.08-1.62-11.96-6.46
		c-1.58,1.83-3.41,1.91-5.47,1.65c-2.99-0.37-5.97,0.33-8.93,0.74c-13.82,1.89-23.54-5.93-24.31-19.75c-0.11-2-0.21-4-0.39-5.99
		c-0.77-8.4,1.43-15.83,7.11-22.16c1.11-1.24,2.22-2.49,3.22-3.82c2.59-3.48,2.46-3.94-1.44-5.68c-2.37-1.06-2.37-1.06-4.64-3.8
		c1.33-1.86,3.43-2.4,5.46-3.02c0.79-0.24,1.65-0.24,2.47-0.37c9.71-1.6,9.31-1.65,10.42-11.18c0.9-7.79,1.64-15.52,1.47-23.37
		c-0.2-9.7-2.42-19.12-3.39-28.71c-0.42-4.19-2.62-6.59-7.13-7.67c-4.89-1.17-8.85-4.37-11.74-8.74c-2.95-4.46-5.11-9.34-7.75-13.97
		c-3.9-6.82-2.05-13.5,0.63-20.12c2.91-7.19,3.08-7.34-2.87-12.45c-10.35-8.89-21.42-16.9-32.21-25.24
		c-6.19-4.79-12.4-9.57-18.14-14.9c-2.21-2.05-4.71-4.03-5.92-6.7c-3.16-7-9.7-8.59-15.94-9.49c-8.03-1.16-16.27-0.88-24.42-1.18
		c-0.63-0.02-1.27,0.27-2.05,0.45c-0.54,5.6,1.94,10.54,3.5,15.46c3.31,10.43,6.32,21.04,11.87,30.66c1.46,2.53,2.98,4.13,5.9,4.69
		c6.78,1.29,10.46,5.71,12.42,12.21c1.92,6.37,3.59,12.66,4.01,19.41c0.25,4.02-0.04,7.41-2.79,10.07
		c-5.44,5.26-6.61,11.26-6.49,18.81c0.14,9.01-0.44,18.31-3.3,27.13c-0.56,1.73-0.19,3.23,0.69,4.76
		c5.49,9.53,9.62,19.69,13.78,29.82c0.84,2.05,2.21,2.6,4.15,2.93c4.59,0.79,9.15,1.76,13.72,2.67c2.63,0.53,5.06,1.43,6.85,3.73
		c-2.6,3.82-6.54,5.85-9.97,8.93c7.31,6.27,16.73,9.34,23.75,16.48c-7.79,3.43-15.39,4.31-22.72,5.58
		c-1.37,5.18,1.48,9.18,2.1,13.33c-0.6,1.6-2.28,0.64-3.01,1.64c4.33,13.02,6.69,26.35,6.74,40.09c0.03,9.64-1.33,11.99-10.51,14.93
		c-12.42,3.99-25.14,4.52-37.92,1.91c-1.68-0.34-3.08-0.6-4.79,0.02c-5.67,2.06-11.53,3.22-17.63,2.83
		c-9.45-0.6-19.17,0.8-28.25-2.42c-9.38-3.33-19.09-2.09-28.58-2.89c-12.58-1.07-22.08-11.77-25.31-21.74
		c-0.26-0.79-0.47-1.59-0.76-2.37c-4.19-11.4-0.2-20.77,7.26-29.28c0.76-0.87,1.9-1.4,2.29-2.58c0.1-0.3,0.06-0.65,0.09-1.05
		c-1.11-1.84-3-1.12-4.49-1.03c-8.67,0.56-14.02-4.12-18-11.07c-3.37-5.89-5.21-12.32-5.21-19.05c0-4.87,1.45-9.43,5.16-13.13
		c3.69-3.69,7.64-6.92,12.32-9.24c1.63-0.81,3.36-1.52,4.2-3.75c-3.13-2.75-7.82-2.07-11.05-4.53c0.43-2.73,2.67-3.06,4.41-3.8
		c3.97-1.7,8.02-3.23,12.04-4.81c2.31-0.91,3.22-2.34,2.86-5c-1.41-10.19-2.33-20.46-5.02-30.44c-1.02-3.77-3-5.52-6.9-6.07
		c-3.11-0.44-6.32-0.59-9.28-1.51c-6.81-2.11-11.39-6.43-12.78-13.81c-1.62-8.63-4.71-16.88-5.16-25.87
		c-0.34-6.75,1.64-11.66,6.58-15.73c5.43-4.46,5.72-5.02,2.71-11.24c-4.12-8.54-9.29-16.49-14.21-24.58
		c-1.34-2.2-3.29-3.07-5.89-2.96c-3.48,0.14-6.95,0.57-10.45-0.22c-3.09-0.7-4.39,1.64-5.53,3.98c-2.34,4.79-6.11,5.54-10.11,1.99
		c-1.37-1.21-2.83-2.39-3.92-3.84c-2.89-3.83-7.28-3.57-11.27-4.39c-2.12-0.44-2.87,1.08-3.56,2.72c-2.3,5.52-4.68,11-8.03,16.02
		c-1.78,2.66-3.87,5.02-6.16,7.18c-3.24,3.07-6.22,3.1-9.83,0.38c-0.92-0.69-1.9-1.44-2.53-2.37c-4.91-7.31-11.07-13.72-15.43-21.44
		c-1.76-3.11-4.29-3.49-5.57-0.83c-5.74,11.98-11.65,23.91-14.81,36.93c-0.31,1.27-0.82,2.55-0.08,4.26
		c3.49,0.71,6.81,2.55,10.39,3.76c5.86,1.98,8.81,5.73,8.84,12.26c0.06,11.15-2.05,21.91-5.36,32.38
		c-2.19,6.93-7.81,11.01-14.75,13.01c-2.7,0.78-5.51,1.18-8.83,1.87c1.01,8.65-0.18,17.2-0.29,25.79c-0.1,8.46,0.45,16.95-0.59,25.8
		c10.63,5.47,21.22,11.53,31.36,19.71c-9.7,5.01-20,4.54-29.53,7.38c-0.87,1.26-0.24,2.36,0.53,3.54c1.99,3.07,3.89,6.21,5.86,9.29
		c0.9,1.41,2.01,2.72,0.98,5.24c-6.01,0.3-11.39-2.67-17.04-4.89c-1.94,3.23-2.55,6.74-3.43,10.06c-1.75,6.6-3.59,13.07-6.8,19.19
		c-1.7,3.24-3.69,5.65-6.8,7.6c-9.83,6.18-20.75,8.93-32.03,10.41c-7.58,1-15,2.97-22.72,3.09c-15.89,0.25-31.72,2.88-47.65,1.21
		c-4.79-0.5-9.29-2.35-14.1-3.04c-2.94-0.42-5.9-0.61-8.83-0.86c-10.61-0.89-18.09-6.12-22.53-15.7c-1.75-3.78-3.24-7.73-3.92-11.81
		c-2.1-12.55,6.73-25.01,18.59-28.27c5.94-1.64,11.21-5,17.3-6.3C37.88,772.09,39.89,770.86,40.38,768.11z"/>
</g>
</svg>
