<?xml version="1.0" encoding="utf-8"?>
<!-- Generator: Adobe Illustrator 24.0.2, SVG Export Plug-In . SVG Version: 6.00 Build 0)  -->
<svg version="1.1" id="Layer_1" xmlns="http://www.w3.org/2000/svg" xmlns:xlink="http://www.w3.org/1999/xlink" x="0px" y="0px"
	 width="859.8" height="843" viewBox="0 0 859.8 843" style="enable-background:new 0 0 859.8 843;" xml:space="preserve">
<g>
	<path d="M177.97,699.13c6.9-1.82,13.49-0.44,19.98,0.67c5.07,0.86,10,2.52,14.98,3.88c1.45,0.4,2.93,1.19,4.34,0.33
		c3.71-2.26,7.84-3.49,12.04-4.83c0.24-2.96-0.71-5.55-1.65-7.9c-1.36-3.43-1.41-6.8-1.06-10.29c0.48-4.72,2.73-6.05,7.1-3.94
		c2.83,1.37,5.49,3.11,8.13,4.83c8.01,5.21,14.84,11.74,21.38,18.67c3.17,3.36,7.22,5.86,11.59,7.56c2.83,1.1,5.55,2.37,7.75,4.44
		c2.57,2.42,4.83,2.38,7.39,0.04c5.55-5.07,12.12-8.06,19.53-9.3c3.62-0.61,7.23-1.27,10.87-0.12c0.16,0.05,0.33,0.09,0.49,0.09
		c4.35,0,8.76-0.73,13.59,2.14c-9.39-37.07-10.13-73.29-3.08-110.24c-40.65-8.78-65.42-33.09-73.05-74.27
		c-7.38-1.45-13.26-5.45-17.88-11.43c-1.14-1.48-2.29-3.07-2.19-4.93c0.27-5.02-1.3-9.85-1.22-14.87
		c0.23-13.17,5.6-23.38,16.87-30.32c2.19-1.35,3.52-3.08,3.29-5.69c-0.34-3.74,1.42-7.63-0.75-11.23c-7.38-0.93-7.69-0.74-10.19,6
		c-1.04,2.81-1.91,5.71-3.29,8.35c-1.74,3.34-3.75,3.54-6.13,0.65c-3.07-3.73-5.57-7.91-6.74-12.6c-0.74-2.98-2-4.58-5.04-5.25
		c-4.51-0.99-8.28-3.36-11.2-7.02c-3.65-4.57-3.57-7.27,0.18-11.97c3.1-3.9,6.9-6.68,11.64-8.19c4.17-1.33,6.74-4.01,7.17-8.6
		c-0.52-0.1-1.03-0.37-1.46-0.27c-12.51,2.8-24.93,5.88-36.77,10.96c-15.61,6.7-30.54,14.75-45.47,22.8
		c-9.39,5.06-18.16,11.18-26.7,17.52c-15.93,11.82-30.91,24.82-44.18,39.6c-7.9,8.8-14.47,18.64-19.92,29.18
		c-0.29,0.57-0.68,1.08-1.28,2.03c-2.21-2.45-1.62-5.08-1.48-7.55c0.44-7.74,2.74-15.18,5.74-22.1
		c5.15-11.88,10.59-23.73,17.76-34.59c7.57-11.47,16.89-21.44,27.57-30.08c14.23-11.53,28.51-23.03,44.46-32.16
		c9.77-5.6,19.48-11.36,30.38-14.75c4.1-1.28,7.92-3.45,12.14-4.5c1.34-0.33,2.54-0.92,2.24-3.59
		C133.95,372.55,74,379.71,17.42,407.4c-1.66-2.69,0.14-4.35,1.26-6.02c4.76-7.09,10.73-13.13,16.81-19.06
		c21.24-20.73,47.15-33.06,75.05-41.99c12.87-4.12,25.79-7.97,39.24-9.13c10.41-0.9,20.64-2.98,31.13-3.55
		c11.28-0.62,22.54-1.29,33.84-1.32c8.48-0.02,16.92,0.85,25.32,2.06c11.02,1.58,22.03,3.22,33.05,4.82
		c11.95,1.73,22.98,6.5,34.24,10.49c0.94,0.33,1.8,0.91,2.84,0.71c0.27-0.05,0.49-0.36,0.99-0.76c-1.58-2.47-4.22-3.68-6.49-5.16
		c-10.32-6.72-20.6-13.53-31.18-19.81c-7.27-4.32-15.12-7.66-22.53-11.77c-11.37-6.3-23.45-11.02-35.39-15.99
		c-12.85-5.35-25.55-11.06-39.01-14.99c-8.73-2.55-17.13-6.32-25.94-8.83c-9.28-2.64-18.53-5.31-28.09-6.84
		c-8.2-1.32-16.18-3.67-24.42-5.02c-8.58-1.41-17.18-1.85-25.78-2.54c-11.09-0.9-22.16-2.24-33.36-1.42
		c-9.97,0.73-19.86,1.85-29.61,4.02c-3.01,0.67-6.17,0.67-8.91,2.38c-1.04-1.84-0.14-2.82,0.86-3.73c2.94-2.7,5.88-5.4,8.85-8.06
		c16.48-14.7,34.65-26.27,56.53-31.32c10.54-2.43,20.93-5.37,31.64-7.17c13.07-2.2,26.18-1.96,39.31-1.8
		c8.47,0.1,16.95,0.34,25.4,0.87c11.13,0.7,22,2.6,32.82,5.71c24.44,7.03,47.01,18.4,70.02,28.77c13.58,6.11,25.3,15.4,38.02,22.97
		c5.33,3.17,9.83,7.38,14.83,10.95c0.9,0.64,1.58,1.81,3.08,1.41c1.78-1.19,0.88-2.52,0.01-3.76
		c-11.41-16.19-21.16-33.44-31.81-50.12c-10.47-16.38-19.49-33.69-29.87-50.13c-6.66-10.55-12.9-21.33-19.43-31.94
		c-9.77-15.86-19.72-31.61-29.29-47.59c-7.53-12.58-15.88-24.58-24.33-36.53c-0.49-0.7-0.87-1.42-0.45-3.01
		c4.01,0.11,7.85,1.59,11.38,3.44c9.76,5.13,18.76,11.46,26.96,18.84c6.07,5.46,12.55,10.42,18.7,15.8
		c9.82,8.61,17.98,18.73,27.08,27.98c13.92,14.15,26.25,29.69,38.83,44.98c12.27,14.91,23.64,30.51,33.81,46.97
		c5.51,8.93,11.37,17.64,15.64,27.28c0.52,1.17,1.08,2.39,2.1,3.02c0.88-0.19,1.07-0.68,0.96-1.15c-4.18-18.24-4.56-36.96-6.9-55.43
		c-1.34-10.54-0.47-21.25,0.67-31.85c0.41-3.79,0.85-7.59,1.19-11.39c0.22-2.53,1.07-4.76,2.37-7.14c2.81,1.77,2.35,4.32,2.4,6.46
		c0.21,9.53,1.81,18.9,3.1,28.29c1.76,12.86,4.77,25.48,8.23,38.02c4.24,15.41,6.68,31.26,11.04,46.66
		c0.13,0.47,0.35,0.91,0.57,1.47c1.44-1.42,1.25-3.21,1.15-4.74c-0.51-7.47-0.75-14.93-0.66-22.44c0.16-13.83,1.29-27.53,4.28-41.02
		c2.09-9.42,5.41-18.52,8.14-27.77c1.92-6.52,2.94-13.26,5.72-19.59c5.35-12.21,11.64-23.9,18.48-35.33
		c11.32-18.93,24.81-36.27,38.85-53.19c5.19-6.26,10.8-12.23,17.28-17.28c6.04-4.7,11.55-10.03,17.78-14.52
		c7.98-5.76,16.47-10.62,25.12-15.23c1.9-1.01,3.91-1.83,5.7-2.99c1.79-1.16,3.48-1.86,5.49-0.83c1.06,1.96-0.11,3.21-1.23,4.45
		c-16.07,17.84-28.01,38.28-38.84,59.61c-8.31,16.36-15.68,33.01-21.94,50.23c-2.2,6.04-5.48,11.7-7.84,17.77
		c-3.62,9.29-6.81,18.71-10.11,28.1c-7.09,20.16-10.92,41.13-15.3,61.97c-1.95,9.29-3.69,18.61-5.15,27.99
		c-2,12.83-3.77,25.68-5.64,38.53c-0.16,1.11-0.51,2.28,0.5,3.2c0.38-0.14,0.88-0.2,0.94-0.38c3.67-12.3,8.86-24.03,14.41-35.51
		c7.96-16.44,15.74-33.01,25.61-48.5c3.94-6.18,7.85-12.3,12.32-18.13c3.93-5.12,5.77-11.54,9.41-16.99
		c6.05-9.06,13.54-16.83,20.78-24.84c2.34-2.58,4.79-5.07,7.11-7.69c15.17-17.2,32.71-31.61,51.27-45.06
		c12.3-8.91,24.93-17.12,38.04-24.7c5.23-3.02,10.94-4.86,16.45-7.21c13.44-5.76,26.78-11.78,40.29-17.37
		c6.59-2.73,13.51-4.59,20.53-6.1c8.24-1.78,16.44-3.8,24.55-6.1c6.47-1.84,13.01-2.65,19.69-2.77c2.83-0.05,5.65-0.36,8.48-0.52
		c1.59-0.09,3.24-0.54,4.69,0.39c0.21,2.2-1.36,2.7-2.59,3.44c-16.08,9.68-33.01,17.93-48.74,28.17
		c-27.11,17.65-53.13,36.82-76.63,59.14c-17.5,16.62-35.02,33.24-51.79,50.62c-2.95,3.06-6.6,5.47-9.27,10.16
		c4.86-1.71,8.34-3.98,11.72-6.43c13.9-10.09,29-18.17,44.14-26.18c5-2.64,10.1-5.06,14.98-7.95c8.05-4.76,17.15-7.18,25.69-10.87
		c8.53-3.68,17.19-7.09,25.86-10.44c9.94-3.84,20.29-6.35,30.6-8.92c14.23-3.55,28.76-5.2,43.32-6.65
		c10.63-1.06,21.28-0.88,31.93-0.59c1.43,0.04,3.32-0.27,3.7,1.69c0.44,2.28-1.7,2.51-3.13,3.2c-9.02,4.32-18.77,6.69-27.93,10.68
		c-12.04,5.25-24.2,10.25-36.33,15.3c-21.26,8.84-40.74,20.96-60.63,32.4c-17.36,9.98-33.73,21.38-49.63,33.37
		c-10.34,7.79-20.21,16.31-30.18,24.64c-16.64,13.91-31.23,29.94-46.91,44.83c-4.82,4.57-8.5,10.24-13.35,14.84
		c-1.02,0.97-2.18,2.13-1.12,4.34c5.29-3.23,10.59-6.18,15.58-9.57c11.34-7.7,23.43-14.25,36.04-19.25
		c16.93-6.72,33.82-13.9,51.47-18.54c18.99-5,38.43-8.07,58.01-9.68c16.57-1.36,33.16-0.89,49.77,0.34
		c7.63,0.56,15.29,0.96,22.89,1.86c16.21,1.92,32.09,5.43,47.67,10.3c6.98,2.18,14.03,4.14,21.03,6.29
		c14.29,4.39,27.21,11.52,39.41,20.03c2.88,2.01,3.18,2.9,3.11,5.96c-2.09,1.16-3.87-0.35-5.7-0.83c-8.58-2.2-17.28-3.35-26.09-4.27
		c-10.76-1.12-21.55-1.64-32.32-2.38c-9-0.62-17.98,0.15-26.94,0.79c-13.78,1-27.6,1.4-41.36,2.76c-12.6,1.25-25.09,3.36-37.55,5.34
		c-8.61,1.37-17.21,3.68-25.8,5.62c-21.42,4.84-42.93,9.53-63.5,17.36c-16.81,6.41-32.96,14.35-48.44,23.59
		c-1.13,0.67-2.18,1.43-2.91,2.62c1.29,1.47,2.56,0.62,3.71,0.26c17.68-5.54,35.66-9.78,54.17-11.08
		c22.96-1.61,45.84-1.31,68.69,2.65c12.9,2.24,25.39,5.5,37.39,10.43c15.13,6.21,29.2,14.28,41.41,25.51
		c6.23,5.73,13.07,10.7,18.64,17.26c7.37,8.68,13.31,18.29,19.5,27.74c5,7.64,9.4,15.69,13.79,23.71c1.53,2.81,2.79,5.9,3.21,9.56
		c-3.76-0.16-5.37-3.12-7.42-4.9c-15.9-13.74-34.28-23.37-52.82-32.85c-10.07-5.15-19.98-10.59-30.63-14.52
		c-7.63-2.81-15.11-5.91-23.13-7.73c-12.65-2.86-25.18-6.3-37.67-9.83c-11.84-3.34-23.87-4.13-36.07-3.95
		c-18.38,0.27-36.63,1.67-54.3,7.12c-10.95,3.38-21.83,7.01-32.59,10.93c-3.96,1.44-7.49,4.04-11.08,6.04
		c0.26,1.42,1,1.72,1.83,1.93c12.94,3.32,24.27,10.05,35.26,17.25c6.26,4.1,11.44,9.65,15.75,15.88
		c8.98,12.99,14.07,27.43,16.19,43.01c2.17,16,0.26,31.52-5.23,46.64c-4.44,12.23-10.87,23.15-20.71,31.9
		c-3,2.66-6.27,4.86-9.52,6.53c-0.5,1.28-0.06,1.96,0.46,2.63c6.4,8.31,12.38,17,19.28,24.87c11.3,12.88,20.45,27.12,27.95,42.37
		c7.36,14.96,13.28,30.49,15.14,47.29c0.55,4.93,0.97,9.89,2.81,14.62c1.98,5.08,7.15,7.67,12.06,5.81
		c1.31-0.49,1.53-1.63,1.89-2.73c2.63-8.07,5.41-16.07,8.42-24.01c2.1-5.55,1.91-5.66,7.44-9.55c3.74,1.04,5.26,4.25,7.03,7.27
		c6.04,10.33,9.11,21.79,12.31,33.14c1.49,5.27,4.04,9.8,6.93,14.22c7.97,12.21,12.25,25.69,14.96,39.91
		c3.07,16.13,1.46,32.19-0.95,48.03c-1.64,10.77-6.45,20.82-12.51,30.22c-4.36,6.77-9.18,12.85-16.46,16.13
		c-6.57,2.96-13.22,6.12-21.01,5.06c-4.38-0.6-8.42-1.92-12.27-3.73c-12.22-5.73-23.13-13.2-30.53-24.89
		c-1.18-1.86-2.55-3.5-4.6-4.45c-16.78-7.83-33.95-13.54-52.95-11.29c-5.71,0.67-11.01,2.49-16.39,4.14
		c-12.48,3.85-25.22,5.89-38.27,6.45c-22.38,0.96-43.9-3.48-64.22-12.15c-20.27-8.65-40.61-10.64-61.94-6.09
		c-9.78,2.09-19.51,4.27-28.53,8.71c-5.37,2.64-9.52,6.55-12.13,12.09c-2.86,6.07-6.94,11.41-11.46,16.29
		c-3.51,3.79-8.52,4.99-13.55,5.52c-15.12,1.6-28.32-3.67-39.73-12.8c-15.83-12.69-28.95-28.02-39.01-45.69
		c-5.23-9.2-10.92-18.21-14.11-28.51c-1.39-4.51-2.97-8.9-2.37-13.59c0.35-2.73-0.45-4.42-2.53-5.9
		c-7.9-5.6-13.79-12.95-18.65-21.23C178.94,703.8,177.74,702.03,177.97,699.13z"/>
</g>
</svg>
