<?xml version="1.0" encoding="utf-8"?>
<!-- Generator: Adobe Illustrator 24.0.2, SVG Export Plug-In . SVG Version: 6.00 Build 0)  -->
<svg version="1.1" id="Layer_1" xmlns="http://www.w3.org/2000/svg" xmlns:xlink="http://www.w3.org/1999/xlink" x="0px" y="0px"
	 viewBox="0 0 860.53 853.66" style="enable-background:new 0 0 860.53 853.66;" xml:space="preserve">
<g>
	<path d="M501.47,727.21c-2.12-0.79-4.14-0.44-6.03,0.03c-7.13,1.78-14.21,0.71-21.34,0.12c-17.56-1.45-34.28-6.24-50.81-12.02
		c-4.87-1.7-10.23-0.98-15.36-1.42c-8.33-0.71-16.61,0.36-24.87,1.46c-2.43,0.33-3.65,1.43-4.65,3.74
		c-3.81,8.88-8.46,17.27-14.72,24.78c-6.87,8.25-20.28,11.93-30.23,7.85c-9.54-3.91-18.94-8.14-28.63-11.67
		c-2.83-1.03-5.8-1.5-8.61-2.53c-1.81-0.66-3.1,0.06-4.42,1.37c-9.97,9.85-21.16,18.22-32.36,26.59c-3.86,2.89-7.43,6.17-11.11,9.31
		c-5.98,5.1-13.1,8.52-19.4,13.17c-2,1.47-4.94,1.77-7.51,2.32c-6.4,1.37-11.35,4.62-13.66,10.9c-1.78,4.84-5.85,6.92-10.07,8.11
		c-5.94,1.68-12.2,1.64-18.34,0.64c-5.68-0.92-9.02-4.86-9.27-10.62c-0.08-1.83-0.06-3.67-0.21-5.49c-0.13-1.58,0.58-3.23-0.2-4.84
		c-4.44,1.54-7.22,4.69-9.46,8.46c-4.27,7.2-10.38,9.96-18.41,8.24c-3.09-0.66-6.17-1.39-9.19-2.31c-5.48-1.68-8.36-5.85-8.23-11.59
		c0.03-1.16,0.29-2.33-0.56-3.67c-3.52,0.08-4.51,3.13-5.1,5.55c-0.83,3.38-2.72,4.88-5.75,6.14c-7.5,3.13-14.65,2.43-21.46-1.52
		c-5.97-3.46-8.61-14.48-5.38-22.13c3.74-8.87,9.13-16.49,17.29-21.99c3.15-2.12,5.53-5.27,9.15-6.84c1.67-0.72,2.09-2.48,2.36-4.18
		c0.51-3.21,2.45-5.25,5.2-6.88c3.75-2.22,7.66-4.13,11.72-5.55c5.09-1.78,9.01-4.87,12.65-9.21c-4.22-4.26-4.43-10.05-5.66-15.47
		c-0.69-3.02-1.89-5.21-4.88-6.95c-4.32-2.51-7.27-6.75-9.93-11.01c-3.16-5.06-1.78-10.46,0.74-14.77
		c3.52-6.03,2.61-11.46,0.95-17.54c-1.86-6.86-3.56-13.8-3.36-21.08c0.09-3.18,1.42-6.07,1.62-8.92c-0.62-0.72-1.09-0.83-1.55-0.51
		c-8.58,5.9-18.61,8.61-28.11,12.4c-3.95,1.58-8.68,2.5-12.58-1.31c-1.73-1.68-3.87-0.38-5.7,0.05c-6.49,1.54-12.37,4.98-18.92,6.34
		c-4.84,1-9.7,1.93-14.58,2.69c-1.24,0.19-2.79-0.07-3.87-0.69c-6.94-3.99-14.93-5.5-21.82-9.65
		c-10.18-6.12-18.32-20.34-16.64-30.27c1.15-6.76,4.17-12.94,6.55-19.32c6.28-16.81,13.97-33.14,17.52-50.89
		c0.49-2.46,1.22-4.84,2.18-7.16c3.93-9.42,6.26-19.27,7.88-29.31c0.51-3.15,1.89-5.98,3.54-8.73c5.92-9.87,12.54-19.26,19.64-28.3
		c2.93-3.73,4.76-7.98,6.99-12.19c-0.84-2.31-3.06-3.36-4.76-4.86c-6.88-6.07-8.27-12.61-4.73-21.09
		c3.79-9.07,9.08-17.37,13.2-26.26c0.49-1.06,1.15-2.03,1.6-3.1c2.15-5.12,2.07-5.06-1.89-8.88c-4.77-4.61-9.86-8.92-12.24-15.54
		c-1.05-2.91-1.15-5.39,0.06-8.14c1.48-3.35,2.39-7.01,4.26-10.11c3.27-5.42,2.46-10.77,1-16.37c-3.29-12.62-3.05-24.94,3.05-36.85
		c2.79-5.45,4.85-11.04,4.18-17.53c-0.58-5.6,0.34-11.34-0.03-16.97c-0.42-6.37,1.74-11.37,6.31-15.57
		c0.97-0.89,1.81-1.91,2.93-3.11c-3.81-9.94-8.38-19.52-13.17-29c-6.06-12-6.9-24.43-1.29-36.58c4.69-10.14,13.64-15.33,24.43-17.88
		c7.72-1.82,14.75-1.22,21.6,2.87c3.84,2.29,6.04,6.14,9.29,8.97c2.24,1.95,4.22,4.22,6.88,6.08c3.51-2.24,3.52-6.31,4.65-9.52
		c6.93-19.61,13.19-39.43,18.38-59.6c3.02-11.75,6.28-23.52,11.36-34.57c7.52-16.35,18.33-23.44,35.82-23.89
		c2.82-0.07,5.65,0.31,8.48,0c0.96-0.1,2.2-0.15,2.92,0.34c5.67,3.87,13.13,3.95,17.89,8.92c2.84-0.94,3.42-3.09,4.37-5.02
		c5.94-12.05,11.09-24.53,18.8-35.62C253.33,12.24,260,5.99,269.8,3.83c2.23-0.49,4.88-0.54,6.52-2.98
		c0.71-1.05,2.47-0.98,3.77-0.56c2.6,0.84,5.27,0.66,7.97,0.68c-1.63,1.01-3.63-0.31-5.68,1.2c10.92,0.36,21.13,1.18,30.63,6.55
		c9.28,5.24,17.11,11.82,24.3,19.65c7.56,8.22,10.46,17.84,10.48,28.51c2.16,0.01,2.75-1.06,3.42-1.98
		c4.23-5.81,9.08-10.99,14.54-15.72c10.03-8.68,21.65-12.35,34.59-11.02c24.62,2.54,39.01,17.73,44.22,40.33
		c1.63,7.08-0.75,14.78-3.93,21.74c-7.4,16.17-14.6,32.44-22.04,48.6c-5.28,11.46-10.87,22.78-16.23,34.2
		c-2.61,5.56-4.98,11.22-7.5,16.82c-0.93,2.07-1.27,4.1-0.19,6.04c1.32,0.96,2.36,0.21,3.47-0.03c8.61-1.89,17.21-3.83,25.85-5.52
		c4.27-0.84,7.79-3.51,12.24-4.05c13.02-1.58,25.93-4.29,39.16-1.69c8.51,1.67,16.8,4.58,22.73,10.62
		c5.19,5.29,10.26,11.37,11.89,19.28c0.95,4.62,4.11,6.61,8.33,5.2c14.9-5,29.44-2.01,43.97,1.64c9.81,2.47,19.18,6.4,26.38,13.47
		c10.68,10.49,20.94,21.67,27.47,35.3c6.38,13.32,9.15,27.68,7.98,42.57c-0.58,7.41-1.51,14.79-3.56,21.98
		c-1.17,4.13,0.51,8.17,4.32,10.3c2.45,1.37,5.01,2.54,7.09,3.59c1.98-0.54,1.96-1.88,2.47-2.88c9.6-18.87,20.08-37.12,34.9-52.59
		c10.96-11.45,22.86-21.86,34.44-32.64c4.74-4.42,10.75-6.66,16.37-9.45c8.48-4.22,17.41-7.87,26.66-9.65
		c7.54-1.45,15.44-2.7,23.25-1.54c7.73,1.15,15.59,0.55,23.32,2.32c3.89,0.89,7.1,2.83,10.46,4.47
		c10.29,5.01,21.08,9.35,29.08,18.07c8.64,9.41,15.53,19.84,19.71,32.07c3.07,8.99,6.1,17.94,7.26,27.39
		c0.79,6.46,1.06,12.92-0.55,19.34c-1.99,7.89-3.04,16.03-6.53,23.52c-8.27,17.76-20.48,31.55-38.29,40.51
		c-16.23,8.16-33.21,14.65-49.34,22.97c-15.9,8.2-31.07,17.67-43.41,30.73c-9.46,10.02-17.6,21.15-24.25,33.41
		c-8.9,16.41-14.76,33.82-18.87,51.89c-3.74,16.41-8.76,32.41-14.59,48.18c-0.98,2.64-1.41,5.49-2.3,8.17
		c-3.29,9.94-7.56,19.45-12.24,28.84c-5.43,10.92-12.56,20.75-19.02,30.96c-6.88,10.89-14.91,21.3-27.47,27.37
		c1.64,7.04,1.66,14.21,4.02,21c0.82,2.36,1.71,4.74,2.09,7.19c2.53,16.15,9.64,30.31,18.43,43.85c4.15,6.39,7.74,13.15,9.05,20.92
		c0.36,2.17,0.85,4.22,0.28,6.33c-0.98,3.62,0.81,7.63-0.6,10.84c-2.06,4.71-1.2,8.97-0.18,13.5c1.26,5.6,0.7,11.4,0.08,16.9
		c-0.46,4.07-2.91,8.64-8.01,9.74c-6.45,1.39-12.87,3.06-19.61,1.09c-5.42-1.58-8.08-4.29-8.69-10c-0.11-0.99-0.18-1.99-0.31-2.98
		c-0.58-4.32-2.12-5.35-6.4-4.32c-1.44,0.35-2.88,0.68-4.75,1.12c0.2,4.57-0.9,9.03-2.12,13.49c-0.41,1.48-0.96,2.8-1.89,4.02
		c-4.2,5.52-10.76,7.27-16.54,10.15c-2.53,1.26-6.38,1.15-8.06-0.76c-1.6-1.83-3.38-1.63-4.94-2.17c-6.64-2.32-9.87-7.01-10.7-13.71
		c-0.18-1.49-0.29-2.99-0.43-4.48c-0.62-6.35-6.07-9.49-11.98-6.96c-1.26,0.54-2.04,1.57-1.75,2.7c0.68,2.7-0.44,5.26-0.23,7.92
		c0.34,4.25-1.55,7.4-5.44,8.32c-3.22,0.76-6.34,1.98-9.53,2.54c-5.62,0.98-11.4-0.18-16.69-1.85c-6.46-2.04-8.33-8.36-9.47-14.28
		c-1.07-5.54,0.39-11.63-1.01-16.82c-1.34-4.96-5.69-9.16-7.55-14.37c-1.07-3-1.13-5.55,0.6-8.49
		c8.07-13.73,12.68-28.88,17.56-43.91c1.66-5.1,2.16-10.41,3.6-15.54C502.23,729.82,502.3,728.65,501.47,727.21z M134.7,591.32
		c1.24-0.51,1.59-1.72,2.24-2.66c4.29-6.17,8.71-12.3,15.56-15.82c4.3-2.21,5.7-5.58,5.91-10.04c0.48-10.67-0.59-21.29-1.45-31.88
		c-0.56-6.9-0.48-13.91-2.57-20.74c-1.24-4.04-1.98-8.45-1.8-12.8c0.28-6.61-2.13-12.63-3.14-18.62c-1.91-0.64-2.85,0.02-3.8,0.74
		c-4.37,3.3-8.27,7.22-13.15,9.87c-1.58,0.86-1.82,2.64-2.27,4.27c-2.88,10.64-3.74,21.63-4.91,32.5
		c-1.51,14.05-2.28,28.19-4.78,42.13c-0.37,2.06,0.1,3.53,1.75,4.78c4.52,3.43,7.24,8.11,9.29,13.31
		C132.29,588.17,132.99,590.12,134.7,591.32z"/>
</g>
</svg>
