<?xml version="1.0" encoding="utf-8"?>
<!-- Generator: Adobe Illustrator 24.0.2, SVG Export Plug-In . SVG Version: 6.00 Build 0)  -->
<svg version="1.1" id="Layer_1" xmlns="http://www.w3.org/2000/svg" xmlns:xlink="http://www.w3.org/1999/xlink" x="0px" y="0px"
	 viewBox="0 0 860.07 627.34" style="enable-background:new 0 0 860.07 627.34;" xml:space="preserve">
<g>
	<path d="M738.68,345.41c-4.5-9.39-8.68-18.82-13.47-27.92c-8.52-16.21-17.33-32.27-26.19-48.3c-4.74-8.57-9.92-16.89-14.25-25.7
		c-1.56-3.18-1.59-6.05,0.22-8.97c9.05-14.54,18.65-28.64,30.03-41.55c10.91-12.38,22.8-23.77,34.11-35.74
		c10.3-10.9,21.93-20.33,33.01-30.37c2.26-2.05,3.83-4.59,5.82-6.82c6.68-7.46,14.49-13.62,22.03-20.13
		c9.18-7.93,17.63-16.7,26.53-24.97c3.77-3.51,8.02-6.52,11.78-10.04c4.59-4.29,7.92-2.05,8.48,3.2c0.54,5.1,1.56,10.23,0.9,15.41
		c-1.22,9.51,0.36,18.96,0.49,28.43c0.16,11.11,0.85,22.22,0.77,33.33c-0.07,8.66,1,17.24,1.07,25.88
		c0.13,16.78,0.15,33.56-1.51,50.29c-0.21,2.15,0.57,4.32-0.32,6.71c-16.15,7.39-31.57,16.54-47.22,25.29
		c-9.47,5.3-18.05,11.95-26.8,18.31c-8.49,6.18-17.67,11.29-26.26,17.32c-1.63,1.15-3.35,2.19-4.91,3.43
		c-1.88,1.5-2.13,3.12-1.26,5.66c10.37,30.39,21.32,60.58,30.94,91.22c0.5,1.6,1,3.18,0.27,5.18c-5.68,0.93-11.45,0.06-17.12-0.9
		c-24.3-4.11-48.57-8.4-72.85-12.61c-1.44-0.25-2.91-0.78-4.7,0.16c-0.55,3.11-0.02,6.42,0.24,9.67c1.95,24.74,3.33,49.5,3.92,74.33
		c0.46,19.18,0.55,38.31-1.1,57.41c-0.56,6.43-1.63,12.67-4.89,18.65c-3.72,6.8-9.48,10.72-15.96,13.69
		c-6.65,3.04-13.41,5.9-19.98,9.12c-9.44,4.63-19.54,7.6-29.13,11.84c-16.71,7.38-33.45,14.68-50.26,21.83
		c-16.67,7.1-33.41,14.02-50.92,18.92c-5.26,1.47-10.3,3.7-15.47,5.5c-4.55,1.59-9.11,3.23-14.71,2.59
		c2.01,1.64,3.86,0.61,5.63,1.56c-13.84,2.15-27.34,0.29-40.91-0.4c2.93-0.16,5.87-0.32,8.8-0.48c-10.62-0.43-21.26-0.81-31.75-2.23
		c-12.85-1.73-25.52-4.57-37.82-8.88c-5.11-1.79-8.67-5.65-12.24-9.26c-5.96-6.03-11.48-12.5-15.65-20.01
		c-3-5.41-7.59-9.69-11.02-14.82c-7.95-11.88-15.39-24.09-22.53-36.47c-8.56-14.85-17.1-29.73-23.77-45.58
		c-2.18-5.19-3.99-5.42-8.57-1.61c-15.99,13.29-33.26,24.93-49.29,38.17c-1.81,1.49-3.83,2.67-5.99,3.58
		c-3.27,1.38-6.16,1.65-9.89,0.04c-8.67-3.74-17.73-6.6-26.74-9.47c-3.83-1.22-7.33-3.14-11.12-4.4c-2.54-0.85-3.2-3.04-3.24-5.61
		c-0.15-8.16,0-16.31,0.29-24.46c0.35-10.14,0.44-20.29,1.03-30.41c0.36-6.21-2.13-10.03-7.79-12.25
		c-12.25-4.8-23.62-11.46-35.17-17.61c-15.22-8.12-30.79-15.61-45.64-24.44c-5.55-3.3-11.63-5.76-17.59-8.34
		c-5.96-2.58-11.6-5.77-17.36-8.73c-3.4-1.75-6.71-3.66-10.28-5.1c-4.22-1.7-6.78-4.44-8.17-9.17
		c-4.91-16.74-9.99-33.45-15.84-49.88c-3.07-8.62-6.78-17.07-8.87-25.95c-2.36-10.04-6.16-19.63-8.39-29.68
		c-0.14-0.64-0.34-1.29-0.63-1.88c-5.7-11.54-8.91-23.89-12.1-36.28c-2.03-7.89-4.47-15.67-6.81-23.47
		c-0.65-2.16-1.28-4.13,0.94-5.85c2.1-1.62,3.59-0.35,5.38,0.66c22.45,12.53,43.14,27.7,64.1,42.48
		c15.11,10.65,30.19,21.33,44.69,32.83c22.97,18.21,46.25,36.03,67.45,56.34c13.47,12.91,28.02,24.66,41.09,38
		c8.39,8.56,16.63,17.27,24.9,25.95c2.8,2.94,3.85,5.88,2.26,10.3c-3.15,8.77-7.58,17.04-10.06,26.07
		c-3.88,14.13-7.83,28.24-11.8,42.34c-0.68,2.4-0.16,4.24,1.92,5.64c2.22,1.48,4.4,3.01,6.64,4.44c2.29,1.46,4.35,0.54,6.55-0.55
		c8.83-4.36,16.64-10.42,25.27-15.13c5.7-3.11,11.25-6.47,17.23-9.04c4.17-1.79,5.12-4.09,3.2-8.23c-12-25.83-22.17-52.42-32.34-79
		c-4.8-12.56-9.32-25.26-12.05-38.49c-0.98-4.77-3.77-8.83-5.25-13.45c-5.95-18.54-12.34-36.93-16.88-55.91
		c-1.68-7.01-0.94-13.52,1.92-19.96c5-11.28,12.17-20.8,21.66-28.84c15.62-13.24,30.53-27.31,46.48-40.17
		c8.68-7,17.55-13.83,27.62-18.78c3.69-1.81,5.19-4.97,5.54-8.33c1-9.65,4.26-18.83,5.43-28.41c2.15-17.7,7.38-34.78,10.6-52.23
		c3.08-16.75,9.33-32.66,11.82-49.51c0.71-4.79,2.88-9.23,5.55-13.29c1.13-1.72,3.71-1.4,3.84,0.21c0.13,1.65,0.9,1.88,1.75,2.25
		c6.14,2.65,10.86,7.18,15.19,11.99c8.05,8.92,17.11,16.8,25.33,25.54c18.02,19.16,36.76,37.71,49.89,60.89
		c1.63,2.87,3.67,5.6,5.92,8.01c3.59,3.85,7.6,6.1,13.54,5.62c17.57-1.42,35.25-1.54,52.79-3.19c17.18-1.61,34.47-1.97,51.56-4.58
		c9.81-1.5,19.53-1.61,28.83,2.65c0.9,0.41,1.91,0.68,2.69,1.26c10.2,7.65,19.51,15.97,24.55,28.24
		c6.44,15.67,10.04,32.11,13.65,48.51c3.79,17.23,7.86,34.42,11.2,51.74c3.81,19.77,9.4,39.14,12.72,59.04
		c1.8,10.81,3.24,21.73,5.96,32.4c1.29,5.06,1.85,5.73,7.14,6.7c8.83,1.63,17.8,2.38,26.53,4.57c6.13,1.54,12.34,2.8,18.46,4.38
		C734.48,348.01,736.59,348.15,738.68,345.41z"/>
</g>
</svg>
