<?xml version="1.0" encoding="utf-8"?>
<!-- Generator: Adobe Illustrator 24.0.2, SVG Export Plug-In . SVG Version: 6.00 Build 0)  -->
<svg version="1.1" id="Layer_1" xmlns="http://www.w3.org/2000/svg" xmlns:xlink="http://www.w3.org/1999/xlink" x="0px" y="0px"
	 viewBox="0 0 567.43 860.95" style="enable-background:new 0 0 567.43 860.95;" xml:space="preserve">
<g>
	<path d="M447.94,835.32c-6.89,2-13.81,2.32-20.8,1.14c-2.75-0.46-5.24,0.49-7.81,1.23c-12.39,3.53-24.67,3.16-36.68-1.58
		c-8.77-3.46-11.59-8.86-9.47-17.93c0.42-1.79-0.16-2.76-1.23-3.93c-10.22-11.22-11.22-23.42-3.27-36.38
		c3.43-5.59,7.2-10.8,12.6-14.67c0.64-0.46,1.37-1,1.42-1.95c-15.42-13.24-15.9-24.48-3.68-40.16c-3.2-2.54-6.21-5.35-8.71-8.63
		c-1.4-1.84-3.37-1.77-5.43-1.75c-5.51,0.06-11.02-0.09-16.32-1.82c-14.79-4.82-21.68-14.51-22.12-30.71
		c-0.04-1.48,0.46-2.98-0.27-5.11c-11.44-0.08-20.58-5.45-27.69-14.51c-7.08-9.04-7.81-19.77-8.01-30.86
		c-2.7,0.4-3.94,2.55-5.36,4.18c-3.41,3.92-7.1,7.52-11.28,10.58c-2.33,1.7-3.49,3.67-3.47,6.68c0.12,19.49-0.03,38.98,0.74,58.46
		c0.66,16.79,2.41,33.51,4.23,50.21c2.09,19.19,3.74,38.38,2.47,57.71c-0.47,7.14-1.53,14.24-3.5,21.03
		c-2.09,7.23-7.05,13.01-13.61,16.66c-14.99,8.33-30.78,10.28-47.16,4.24c-5.25-1.94-9.95-4.66-13.02-9.61
		c-6.38,0.19-12.42,2.73-18.72,2.31c-8.09-0.54-16.31-0.04-24.03-3.53c-12.74-5.77-15.07-19.87-4.72-29.31
		c4.35-3.98,9.7-6.08,15.28-6.93c12.49-1.9,18.18-9.56,20.08-21.35c1.88-11.65,1.85-23.33-0.24-34.81c-2.82-15.54-6-31.08-11.4-46
		c-2.99-8.26-5.8-16.6-9.91-24.45c-2.22-4.23-3.47-8.97-5.13-13.5c-0.96-2.6-2.48-4.57-5.11-5.78c-4.46-2.05-7.56-5.93-11.72-9.12
		c-22.81,8.5-42.17-0.32-59.99-13.9c-19.11-14.56-23.75-35.19-22.16-58.26c-14.33-4.27-23.93-13.47-27.21-28.18
		c-3.14-14.09,0.37-27.04,9.09-38.99c-10.89-6.05-16.32-15.93-20.27-26.65c-8.31-22.57-4.64-43.47,9.78-62.55
		c5.53-7.32,11.41-14.3,19.03-19.64c2.29-1.6,4.37-3.58,6.27-6.17c-8.24-15.15-5.97-29.54,4.17-43.08
		c-2.63-2.26-5.74-2.19-8.58-2.99c-5.3-1.49-10.44-3.53-15.05-6.56c-5.28-3.47-11.2-4.64-17.23-5.83
		C10.58,340.15,3.7,334.35,0,325.7c2.78-4.03,6.84-6.15,11.66-6.39c8.51-0.43,16.85,0.75,23.4,6.68c4.46,4.03,8.76,3.79,13.79,1.86
		c5.15-1.98,10.2-4.11,14.64-7.42c2-1.49,3.69-3.29,4.88-5.6c0.85-1.66,1.11-3.04-0.07-4.57c-0.61-0.79-1.12-1.66-1.59-2.54
		c-2.5-4.63-7.54-10.25-11.72-13.57c-13.63-10.83-21.36-24.62-19.68-42.39c1.18-12.53,6.58-23.66,14.09-33.64
		c2.07-2.76,2.74-4.21-0.05-6.97c-6.07-6.02-8.33-13.98-8.83-22.22c-1.01-16.78,3.61-31.89,14.62-44.86
		c2.81-3.31,6.18-6.15,8.76-9.52c2.68-3.49,0.18-8.34,1.38-12.51c2.7-9.38,6.44-17.88,16.33-21.86c0.92-0.37,1.91-0.8,2.58-1.49
		c6.12-6.2,13.29-11.01,20.68-15.33c-0.09-0.87,0.02-1.46-0.21-1.81c-4.95-7.6-5.12-16.09-4.03-24.57
		c0.81-6.3,3.85-11.99,7.14-17.39c7.53-12.34,18.47-20.4,32.24-24.47c5.29-1.56,10.87-1.33,16.36-0.75c2.46,0.26,4.5-0.3,6.54-1.74
		c14.68-10.33,31.21-13.95,48.8-12.18c24.15,2.43,43.34,17.49,49.74,40.62c1.54,5.55,3.91,7.94,9.71,9.64
		c19.06,5.56,30.6,18.62,34.22,38.34c0.66,3.6,1.53,7.2,1.25,10.9c-0.19,2.5,1.15,3.52,3.28,4.25c15.26,5.25,25.05,15.19,28.81,31.4
		c3.65,15.7-0.07,28.87-10.88,40.34c-1.96,2.08-0.93,3.57,0.11,5.29c3.5,5.78,6.19,11.9,6.2,18.74c0.02,8.15-0.16,16.35-4.21,23.82
		c-1.15,2.11-1.18,4.19,0.57,5.98c10.28,10.48,12.12,23.65,11.9,37.44c-0.11,6.57-1.65,12.84-5.1,18.51
		c-1.61,2.64-1.61,4.76,0.71,7.1c5.44,5.48,8.09,12.43,10.08,19.77c3.55,13.09,3.99,26.19-1.62,38.64
		c-8.3,18.42-21.02,32.62-40.99,38.99c-7.08,2.26-14.03,5.06-21.56,4.19c-6.06,30.43-7.89,33.52-21.38,49.04
		c14.27,7.25,24.08,18.89,30.34,33.12c6.43,14.62,4.94,29.84,0.34,44.82c1,1.97,3.05,1.78,4.71,2.42c2.87,1.09,4.17,0.05,5.04-2.8
		c4.27-14.05,20.13-21.21,34.26-17.56c1.43,0.37,2.83,1.04,4.83,0.79c6.74-12.63,17.56-19.99,31.83-22.79
		c15.19-2.98,26.5,3.14,35.78,14.7c7.49-2.35,14.99-3.7,22.67-3.97c1.33-0.05,2.76-0.44,3.97-0.08c5.01,1.48,7.57-0.93,9.76-5.1
		c5.35-10.18,9.36-20.91,13.56-31.57c0.86-2.18,0.44-3.98-0.83-6.06c-8.1-13.25-13.96-27.52-18.77-42.25
		c-3.56-10.9-6.67-21.9-9.24-33.08c-1.06-4.59-1.65-9.19-1.68-13.84c-0.03-4.31,2.17-8.07,4.37-11.5
		c12.71-19.94,28.33-37.39,46.17-52.9c8.43-7.33,16.98-14.47,26.61-20.22c5.91-3.53,7.13-3.31,10.21,2.87
		c3.66,7.33,6.08,15.08,8.07,23.01c2.15,8.54,4.78,16.98,6.63,25.58c3.11,14.49,6.78,28.86,9.16,43.5
		c0.85,5.24-0.81,9.61-3.79,13.97c-10.67,15.6-23.52,29.33-36.2,43.24c-8.47,9.29-18.17,17.11-27.77,25.07
		c-3.13,2.59-5.13,5.23-5.41,9.5c-0.77,11.56-4.24,22.57-7.86,33.47c-0.94,2.83-0.83,4.54,1.42,6.48c7.61,6.56,11.01,15.28,12.07,25
		c0.28,2.56,1.66,3.85,3.66,4.89c8.26,4.31,13.35,11.1,16.39,19.84c2.85,8.17,2.44,16.01-1.41,23.6c-1.3,2.56-1.14,4.32,0.16,6.85
		c6.2,12.06,6.81,24.77,3.91,37.88c-2.21,9.96-7.37,18.03-14.71,24.9c-0.47,0.44-0.84,1.01-1.22,1.54c-0.07,0.1-0.01,0.31-0.01,0.72
		c3.25,2.24,6.81,4.4,9.1,7.99c5.12,8.04,5.01,16.27,0.9,24.62c-0.88,1.79-1.74,3.77-3.16,5.06c-3.74,3.41-3.02,6.98-1.08,10.81
		c0.83,1.63,1.55,3.32,2.42,4.93c2.42,4.47,5.39,7.06,11.29,7c14.81-0.16,25.98,6.62,32.02,20.42c3.59,8.2,3.64,16.87,0.96,25.42
		c-0.87,2.77-0.48,4.49,2.11,6.17c16.2,10.49,26.44,25.51,32.13,43.7c1.48,4.74,1.76,9.77-0.83,14.53c-1.1,2.03-1.9,4.26-2.55,6.48
		c-2.07,7.07-6.51,12.37-12.45,16.38c-8.34,5.63-17.39,9.64-27.38,11.58c-6.07,1.18-12.09,2.3-18.3,2.07
		c-1.71-0.06-3.31,0.32-4.76,1.26c-1.14,0.74-2.37,1.47-3.69,1.41c-5.82-0.24-11.4,1.51-17.1,1.99c-8.49,0.72-16.4-2.24-24.07-5.35
		c-6.15-2.5-8-7.05-6.76-13.82C448.67,838.67,449.43,837.22,447.94,835.32z M219.5,817.84c6.66,0.32,16.39-5.04,18.55-10.37
		c2.37-5.84,4.38-11.8,4.28-18.32c-0.17-11.65,0.38-23.32-0.19-34.94c-0.44-9.06-1.11-18.24-4.77-26.8
		c-5.03-11.75-10.08-23.5-15.13-35.24c-0.4-0.92-0.78-1.92-2.42-1.31c-0.42,2.31-0.71,4.73-0.08,7.19c0.55,2.13,0.6,4.28,0.39,6.45
		c-0.97,9.96-0.28,19.94-0.1,29.9c0.3,16.96,2.77,33.78,3.78,50.71c0.2,3.29,0.7,6.73,0.01,9.86
		C222.16,802.43,221.35,810.02,219.5,817.84z"/>
</g>
</svg>
