<?xml version="1.0" encoding="utf-8"?>
<!-- Generator: Adobe Illustrator 24.0.2, SVG Export Plug-In . SVG Version: 6.00 Build 0)  -->
<svg version="1.1" id="Layer_1" xmlns="http://www.w3.org/2000/svg" xmlns:xlink="http://www.w3.org/1999/xlink" x="0px" y="0px"
	 viewBox="0 0 861.08 751.12" style="enable-background:new 0 0 861.08 751.12;" xml:space="preserve">
<g>
	<path d="M465.01,711.6c-2.51-2.37-5.37-2.47-8.16-2.54c-9.07-0.23-17.79,1.61-26.43,4.3c-20.56,6.38-41.29,8.96-62.17,1.33
		c-3.68-1.35-7.24-3.03-11.45-4.81c0.36,5.44-0.99,9.54-6.48,10.32c-2.35,0.33-4.56,0.94-6.71,1.77c-14.1,5.4-28.89,6.17-43.32,3.5
		c-17.73-3.29-35.37-3.17-53.18-2.83c-13.79,0.27-27.66,0.13-41.21-2.83c-9.35-2.05-18.77-4.21-26.97-9.75
		c-6.96-4.71-7.26-12.13-0.45-16.99c1.06-0.76,2.42-1.2,2.95-2.59c-0.17-1.07-1.1-1.12-1.86-1.32c-8.93-2.35-16.26-7.31-22.8-13.68
		c-3.73-3.63-8.1-6.38-13.03-8.17c-11.35-4.13-15.7-11.83-15.91-24.46c-0.16-9.28-0.52-18.67,1.73-27.84
		c0.28-1.13,0.34-2.41,0.93-3.35c2.97-4.75,5.53-9.42,6.81-15.17c1.37-6.19,5.06-11.88,7.82-17.75c0.79-1.67,1.53-3.28,1.13-5.41
		c-4.1-2.11-8.19-0.98-12.12,0.17c-5.09,1.49-10.03,3.46-15.07,5.12c-6.02,1.99-12.37,2.54-18.52,4.1
		c-8.01,2.04-16.35-2.43-19.44-10.09c-2.05-5.09-5.48-8.9-9.16-12.84c-9.53-10.21-21.31-17.53-32.21-25.97
		c-6.41-4.97-10.48-10.99-10.9-19.22c-0.19-3.73-1.21-6.96-3.67-10.05c-4.24-5.32-4.7-12.02-4.87-18.51
		c-0.25-9.65,0.02-19.32-0.01-28.98c-0.02-4.25,1.34-8.18,2.56-12.15c0.19-0.63,0.42-1.42,0.9-1.76c4.62-3.36,5.17-8.51,6.23-13.52
		c0.52-2.47,2.07-4.64,3.96-6.25c7.9-6.77,14.09-15.02,20.18-23.33c3.14-4.29,7.45-7.13,11.64-10.07c3.07-2.15,7.07-0.75,10.65-1.79
		c7.22-2.1,11.89-7.04,15.88-12.79c1.76-2.54,2.51-5.77,3.85-8.63c1.49-3.19,0.72-5.74-1.79-8.03c-2.7-2.47-5.26-5.1-7.95-7.59
		c-2.6-2.4-4.69-5.14-6.36-8.26c-1.75-3.26-4.01-6.06-7.28-8.04c-3.48-2.1-6.63-2.16-10.26-0.13c-9.57,5.35-19.1,10.91-29.46,14.6
		c-12.19,4.34-22.57,0.59-25.54-11.25c-2.39-9.54,0.27-17.78,8.14-22.19c3.39-1.9,7.2-3.21,10.13-5.82
		c-0.63-2.11-2.24-2.96-3.69-3.48c-5.45-1.93-7.35-6.37-8.52-11.4c-0.23-0.97-0.47-2.01-0.36-2.97c1.13-9.2-3.68-16.56-7.22-24.39
		c-2.37-5.23-3.41-10.61-3.45-16.72c-0.09-11.13,6.27-16.04,14.74-20.11c2.53-1.22,4.77-3.04,7.67-3.52
		c1.6-0.26,2.45-1.61,3.19-2.95c2.07-3.77,4.15-7.53,6.38-11.58c-7.22-6.65-14.8-12.58-22.36-18.53c-1.05-0.82-2.21-1.5-3.21-2.37
		c-15.21-13.35-9.16-28.32,4.76-37.34c4.57-2.96,9.56-2.46,14.16,0.5c8.23,5.3,14.7,12.48,20.95,19.87
		c3.32,3.93,6.76,7.73,10.5,11.43c11.63-8.63,23.46-16.55,35.98-23.43c6.68-3.67,12.91-4.63,19.59-0.02
		c2.79,1.93,5.49,4.41,9.84,4.74c0.62-4.86,0.93-9.72,1.08-14.61c0.19-6.15,0.11-12.32,1.43-18.38c1.45-6.67,6.9-11.41,13.64-11.75
		c4.48-0.22,8.9-0.25,13.33,1.01c7.36,2.09,12.11,7.5,12.87,15.15c1.72,17.19-0.01,34.21-2.37,51.21
		c-0.82,5.94-1.19,11.94-2.53,17.81c-0.42,1.85-0.09,3.78,1.15,5.22c5.6,6.49,7.37,14.84,10.8,22.35
		c3.76,8.24,8.5,15.83,13.63,23.21c3.44,4.94,6.67,9.96,8.93,15.55c2.7,6.71,2.07,13.6-0.38,20.04
		c-4.9,12.91-9.23,26.01-13.12,39.24c-2.77,9.4-9.82,14.36-17.88,18.33c-5.2,2.57-10.35,5.25-15.8,7.36
		c-5.5,2.13-9.72,6.36-14.02,10.26c-2.96,2.68-3.35,6.37-2.78,10.18c1.11,7.42,1.45,14.92,2.23,22.36
		c1.06,10.13-3.05,17.76-9.91,24.44c-3.81,3.71-7.67,7.39-11.67,10.9c-6.39,5.6-8.88,13.17-10.62,21.02
		c-1.19,5.34-1.59,10.85-2.43,16.28c-0.59,3.78,0,7.16,2.15,10.45c7.2,11.02,15.19,21.47,23.22,31.88
		c3.12,4.05,7.23,6.84,12.33,8.03c2.78,0.65,4.2-0.33,4.25-3.17c0.04-2.83,0.09-5.67-0.04-8.5c-0.26-5.65-0.27-11.28,1.16-16.81
		c0.63-2.45-0.19-4.35-1.77-6.35c-5.4-6.84-7.71-15.02-9.13-23.41c-0.62-3.65,0.63-7.29,2.13-10.67
		c5.73-12.93,10.89-26.1,16.67-39.01c6.37-14.2,14.39-27.34,23.86-39.6c6.01-7.79,13.37-14.37,20.28-21.36
		c12.29-12.43,23.91-25.53,36.85-37.31c1.1-1,2.21-2.04,2.57-3.62c-0.97-1.79-2.93-1.31-4.39-1.93c-2.57-1.1-3.15-2.82-1.24-4.91
		c1.91-2.09,4.02-3.99,6.12-5.89c2.14-1.93,1.98-3.36-0.34-5.18c-4.46-3.48-8.68-7.27-12.99-10.94c-1.12-0.95-2.48-1.76-2.39-3.84
		c1.99-2.45,4.99-2.09,7.68-1.83c7.28,0.71,14.6,0.43,21.88,0.94c1.3,0.09,2.65,0.38,4.5-0.75c-5.71-8.62-12.98-16.05-18.92-24.65
		c2.03-1.64,4.08-2.12,6.23-2.35c12.28-1.29,24.6-1.16,36.92-0.97c5.18,0.08,5.06,0.02,6.44-4.81c2.98-10.38,6.5-20.57,11.18-30.33
		c1.38-2.88,3.3-5.42,5.33-7.83c10.98-13.02,22.62-25.28,37.83-33.56c3.2-1.74,6.01-4.17,9.02-6.26c2.14-1.49,3.03-3.38,2.34-6.02
		c-0.84-3.21-1.34-6.52-2.29-9.69c-1.13-3.75-3.14-4.99-6.63-4.31c-8.9,1.72-16.95-0.75-24.87-4.52
		c-7.61-3.62-13.3-9.34-18.22-15.93c-3.37-4.51-3.81-9.91-3.64-15.24c0.29-9.03,3.04-15.69,9.2-23.82c-0.15-0.4-0.18-1.01-0.5-1.27
		c-8.77-7.04-11.73-16.72-10.52-27.2c1.3-11.29,5.74-21.35,15.54-28.53c6.35-4.66,13.21-7.49,20.77-9.13
		c2.63-0.57,5.6-1.94,6.42-4.28c2.47-7.01,8.34-10.13,14.01-13.57c6.17-3.74,12.94-6.23,20.06-6.84c8.41-0.73,15.95,3.06,23.19,6.67
		c9.75,4.87,16.06,13.12,20.26,23.12c1.04,2.48,0.49,5.29,1.56,7.28c1.39,0.96,2.4,0.61,3.33,0.38
		c11.66-2.85,20.39,2.57,27.78,10.48c3.45,3.69,7.15,7.49,8.89,12.55c3.2,9.28,0.27,17.31-4.91,24.91c-1.02,1.5-2.24,2.87-3.35,4.28
		c-0.28,1.82,1.2,2.69,2.03,3.86c3.35,4.71,3.81,10.09,2.39,15.27c-5.25,19.17-22.01,27.45-39.95,25.01
		c-1.92-0.26-3.75-1.16-5.83-1.84c-3.83,5.89-8.64,10.95-11.81,18.02c3.89,0.2,7.43,0.23,10.94-0.51c8.74-1.87,17.62-2,26.39-1.18
		c12.27,1.15,24.16,4.09,34.48,11.41c3.23,2.29,6.71,1.35,10.14,0.89c17.83-2.37,35.64-1.97,52.83,3.33
		c14.63,4.51,28.42,11.12,40,21.68c5.84,5.32,12.59,3.05,15.48-4.88c-2.32-1.5-5.22-1.81-7.56-3.44
		c-13.27-9.26-15.83-22.01-8.38-37.37c3.47-7.14,8.66-12.98,15.73-16.99c2.01-1.14,3.8-2.69,5.67-4.08
		c0.97-0.72,1.84-1.64,1.39-2.94c-0.87-2.54,0.17-4.94,0.3-7.4c0.77-14.56,9.48-23.06,21.82-28.91c6.64-3.15,13.65-3.86,20.86-3.73
		c1.78-2.06,3.19-4.31,5.21-6.1c11.21-9.94,23.8-11.52,37.96-4.27c11.92,6.1,21.23,14.86,26.42,27.5c0.71,1.72,1.43,3.12,3.83,3.22
		c14.49,0.63,23.79,8.44,28.7,21.69c3.81,10.27,5.55,20.86,3.55,31.85c-0.83,4.53-2.94,8.48-5.13,12.4c-1.45,2.6-1.7,4.82,0.42,7.28
		c5.6,6.5,6.24,14.42,5.95,22.52c-0.04,1.16-0.53,2.31-0.5,3.45c0.36,17.54-17.78,31.02-35.6,28.11c-1.47-0.24-2.93-0.67-5.01-0.17
		c-1.67,6.07-5.8,10.51-11.23,14.21c-7.29,4.97-20.8,5.96-28.41,1.45c-0.57-0.34-1.1-0.75-1.68-1.09
		c-3.97-2.32-7.57-3.49-12.78-2.34c-12.41,2.75-23.39-0.68-31.17-11.58c-0.47-0.66-1.06-1.24-1.57-1.83
		c-1.9,0.42-3.06,1.54-4.6,3.64c11.12,18.41,15.34,39.94,22.81,59.99c16.47-2.83,32.17-5.55,47.87-8.23
		c5.94-1.01,11.97-0.72,17.95-0.97c3.65-0.15,4.3,1.43,2.4,4.69c-5.21,8.97-11.88,16.86-18.38,24.87c-0.99,1.22-2.7,2.06-2.61,4.67
		c4.6,0.57,9.02,2.34,13.68,3.26c3.08,0.6,7.47,0.83,8.08,3.67c0.75,3.47-3.7,4.88-6.28,6.81c-2.23,1.67-5.34,1.9-7.65,4.75
		c5.64,1.57,11.36,1.68,16.03,4.38c0.98,2.27-1.53,2.58-1.68,4.21c0.45,0.29,0.97,0.69,1.55,0.98c5.35,2.67,10.72,5.28,16.05,7.97
		c11.29,5.68,19.55,13.78,23.4,26.38c3.62,11.87,9.54,23.06,9.8,35.86c0.08,3.87-0.68,7.62-1.14,11.42
		c-0.18,1.49-0.49,3.04,1.26,3.92c4.95,2.5,8.53,6.9,13.4,9.54c4.25,2.3,8.91,3.61,13.23,5.55c6.24,2.79,12.64,1.47,18.88,2.56
		c8.2,1.43,16.37,3.02,24.09,6.14c3.77,1.52,6.19,4.79,8.17,8.45c4.45,8.25,5.15,17.52,7.57,26.32c2.96,10.75,5.83,21.52,8.56,32.34
		c2.74,10.86,3.45,21.64-2.34,31.92c-3.19,5.66-4.78,12.15-8.54,17.45c-4.44,6.26-9.82,11.09-18.6,9.7
		c-3.42-0.54-6.91,0.46-9.71,2.98c-2.2,1.98-4.55,3.8-7.3,6.07c4.32,4.34,6.85,9.32,8.47,14.77c0.38,1.27,0.66,2.59,1.18,3.8
		c1.5,3.49,0.58,6.19-1.95,8.95c-8.21,8.99-16.45,18.08-27.06,24.13c-8.5,4.84-18.08,7.54-27.65,9.81
		c-4.07,0.96-7.92,2.52-11.87,3.82c-2.63,0.87-3.38,2.83-4.43,5.62c-2.28,6.06,1.32,8.41,4.72,11.51c2.46,2.24,5,4.5,6.98,7.14
		c3.57,4.78,8.42,6.05,13.97,6.23c8.63,0.28,17.28,0.04,25.84,1.85c4.96,1.05,9.05,3.23,12.33,6.95c3.97,4.49,7.85,9.07,11.69,13.67
		c2.79,3.35,6.15,5.31,10.6,5.82c8.93,1.02,17.83,2.36,26.73,3.67c5.9,0.86,12.83,7.83,13.64,13.56c0.33,2.32-0.69,3.88-2.87,4.61
		c-0.77,0.26-1.67,0.4-2.45,0.26c-10.27-1.87-20.19,1.23-30.26,2.07c-11.18,0.93-22.21,0.67-33.15-2.38
		c-13.13-3.66-26.63-3.83-40.12-3c-7.46,0.46-14.85,1.87-22.31,2.32c-8.63,0.52-16.68-1.19-23.98-6.54
		c-7.24-5.3-14.45-10.62-21.65-15.98c-4.11-3.06-5.76-3.06-9.88-0.16c-4.61,3.26-9.17,6.59-13.07,10.36
		c-0.45,1.87,1.13,2.09,1.78,2.94c5.57,7.32,2.81,14.07-3.08,18.08c-5.06,3.44-10.69,5.35-16.9,4.97
		c-19.48-1.21-38.54,1.86-57.44,5.94c-17.88,3.86-35.58,3.58-53.41-0.21c-16.57-3.52-33.19-6.84-50.16-8.06
		c-5.63-0.4-11.19-1.73-16.24-4.56c-8.06-4.52-9.59-11.21-4.3-19.03C462.63,714.87,463.81,713.3,465.01,711.6z M772.77,561.84
		c-0.23-1.26-0.94-2.08-1.9-2.33c-3.86-0.97-6.54-3.84-9.81-5.77c-7.99-4.71-11.8-11.76-12.5-20.87
		c-0.85-10.97-3.19-21.66-6.52-32.16c-2.64-8.35-2.51-16.32,3.4-23.56c1.65-2.03,2.7-4.57,3.86-6.97
		c2.31-4.79-1.04-10.59-6.38-10.84c-4.14-0.19-8.3,0.01-12.46,0.05c-2.05,0.02-3.83,0.65-5.57,1.83c-7.09,4.84-14.82,7.9-23.42,9.21
		c-5.33,0.82-10.7,1.64-16.59,2.41c1.57,6.15,2.5,12.09,4.59,17.6c6.29,16.59,9.51,33.91,12.49,51.25
		c1.2,6.96,3.91,12.88,7.71,18.65c3.49-0.88,6.22-2.93,8.8-4.85c8.76-6.53,17.6-6.11,26.62-0.97c6.9,3.93,14.28,7.12,20.42,12.97
		C767.96,565.41,771.33,564.88,772.77,561.84z"/>
</g>
</svg>
