<?xml version="1.0" encoding="utf-8"?>
<!-- Generator: Adobe Illustrator 24.0.2, SVG Export Plug-In . SVG Version: 6.00 Build 0)  -->
<svg version="1.1" id="Layer_1" xmlns="http://www.w3.org/2000/svg" xmlns:xlink="http://www.w3.org/1999/xlink" x="0px" y="0px"
	 viewBox="0 0 755.78 859.95" style="enable-background:new 0 0 755.78 859.95;" xml:space="preserve">
<g>
	<path d="M637.61,570.26c5.18,7.59,10.65,14.77,15.17,22.5c3.9,6.67,8.19,13.18,11.12,20.43c1.23,3.04,3.4,5.48,6.38,7.43
		c12.16,7.95,19.94,19.32,24.47,32.97c1.62,4.88,0.77,9.94-0.16,14.84c-0.68,3.57-0.61,6.8,1.72,9.77
		c3.42,4.35,4.72,9.74,7.09,14.62c4.98,10.25,11.56,19.35,19.49,27.51c7.42,7.64,15.44,14.8,22,23.12
		c5.09,6.45,10.09,13.36,10.8,22.41c0.69,8.72-2.73,15.69-7.97,21.83c-8.87,10.39-21.12,13.23-34.12,13.79
		c-17.58,0.75-33.74-4.66-49.81-11.03c-13.74-5.45-26.63-13-41.18-16.48c-3.42-0.82-6.89-1.75-10.31-1.59
		c-13.47,0.63-18.33,4.87-17.84,18.04c0.41,11.11-0.91,21.79-3.3,32.43c-1.75,7.82-6.74,13.03-14.42,15.73
		c-9,3.16-18.25,3.38-27.6,2.86c-12.2-0.68-24.01-3.42-35.53-7.35c-5.52-1.88-10.81-4.39-15.88-7.24
		c-15.77-8.87-31.41-17.99-47.16-26.89c-6.81-3.85-13.95-7.16-21.38-9.56c-8.15-2.63-16.36-0.84-24.65,0.28
		c-9.26,1.25-14.87,6.75-19.54,13.92c-1.82,2.79-2.65,6.06-3.13,9.28c-1.28,8.63-3.7,16.81-7.43,24.75
		c-4.17,8.9-10.92,14.4-19.87,17.79c-10.43,3.95-21.09,4.21-31.98,2.66c-9.46-1.34-18.38-4.24-27.05-8.2
		c-6.94-3.18-14.3-5.62-20.48-10.18c-17.48-12.89-33.22-27.54-45.66-45.54c-2.7-3.91-6.45-7.11-9.84-10.51
		c-7.14-7.14-14.22-14.37-23.48-18.9c-5.23-2.56-10.73-4.14-16.4-5.53c-10.51-2.57-20.07,1.3-29.89,3.42
		c-7.95,1.72-15.82,3.81-23.62,6.19c-2.1,0.64-4,1.61-5.98,2.43c-13.25,5.52-27.03,9.04-41.03,12.11
		c-12.07,2.65-24.08,2.9-36.15,1.58c-6.51-0.72-13.03-2.21-19.2-4.72c-1.08-0.44-2.17-0.91-3.29-1.17
		c-9.16-2.11-13.81-8.34-16.32-16.99c-3.41-11.77-0.97-21.64,7.6-30.54c6.54-6.79,12.31-14.33,18.3-21.64
		c2.83-3.45,6.08-6.51,9.16-9.68c7.96-8.18,12.79-18.21,17.3-28.33c2.49-5.6,2.73-11.88-0.06-17.94
		c-3.77-8.19-6.21-16.85-7.96-25.67c-2.33-11.73-4.62-23.47-5.44-35.45c-0.85-12.56,0.57-24.94,2.79-37.26
		c2.3-12.81,6.6-25.01,11.35-37.07c2.2-5.57,4.88-10.92,7.83-16.12c7.15-12.59,14.91-24.8,23.18-36.69
		c10.35-14.89,18.1-30.96,21.43-48.98c1.33-7.18,3.06-14.29,4.68-21.41c1.71-7.54,1.1-14.93-0.33-22.23
		c-1.34-6.83-3.34-13.53-6.25-19.96c-3.36-7.41-5.76-15.27-10.21-22.16c-8.92-13.82-17.06-28.15-27.22-41.15
		c-3.77-4.83-8.11-9.25-10.74-14.91c-0.42-0.89-0.97-1.78-1.66-2.48c-10.09-10.27-18.32-21.99-25.71-34.22
		c-7.46-12.33-12.36-25.83-14.4-40.16c-1.15-8.07-1.7-16.23-2.33-24.36c-0.3-3.81-0.1-7.59,1.38-11.29
		c1.66-4.14,1.72-8.14-2.75-10.91c-0.83-0.51-1.72-1.26-2.08-2.12c-3.07-7.32-7.62-13.87-10.24-21.51
		c-3.49-10.16-1.27-19.88,0.22-29.77c2.16-14.29,9.29-26.67,18.39-37.04c7.02-7.99,15.43-15.4,25.6-20.26
		c9.94-4.75,20.29-6.84,31.05-8.32c10.26-1.41,20.62-0.9,30.8-2.41c6.02-0.89,11.94-2.88,17.62-5.22
		c16.28-6.71,31.83-15.07,48.28-21.36c6.74-2.58,13.5-5.79,21.25-3.79c5.45,1.4,7.14,5.5,3.4,9.83
		c-6.88,7.95-14.29,15.37-22.81,21.57c-5.72,4.16-9.61,10.17-15.12,14.51c-0.72,0.57-0.99,1.35-0.57,2.2
		c0.52,1.05,1.54,1.08,2.57,1.13c4.64,0.23,9.3,0.32,13.92,0.8c11.11,1.17,21.69,4.33,32.26,7.99c10.26,3.55,19.09,9.22,27.9,15.21
		c1.74,1.18,3.97,1.48,5.34,3.46c0.89,1.29,2.23,0.9,3.45-0.14c8.98-7.6,19.43-12.79,30.03-17.62c10.91-4.97,22.56-5.99,34.48-6.79
		c14.71-0.99,28.63,3.47,43.01,4.07c13.49,0.56,26.71-1.12,39.84-4.49c7.02-1.8,14.27-3.24,21.67-3.1
		c4.51,0.08,8.85-0.85,13.25-1.87c5.38-1.25,11.06-0.56,16.25,0.91c6.66,1.88,13.35,4.16,19.02,8.5c1.73,1.33,3.36,2.71,4.65,4.48
		c2.6,3.55,2.3,5.74-1.34,8.33c-1.08,0.77-2.25,1.59-3.5,1.89c-13.77,3.32-24.36,12.03-34.97,20.63
		c-11.9,9.65-21.39,21.28-28.9,34.73c-7.3,13.08-16.57,24.94-24.8,37.43c-8.76,13.3-19.63,24.47-32.03,34.01
		c-7.96,6.13-16.98,11.04-26.89,13.89c-4.94,1.42-9.63,3.71-14.85,4.19c-2.01,0.19-2.67,1.76-3.17,3.41
		c-1.36,4.46-2.65,8.92-3.59,13.5c-3.23,15.71-4.82,31.5-4.07,47.58c0.38,8.11-0.44,16.29,0.03,24.42
		c0.43,7.26,2.11,14.4,2.85,21.61c0.97,9.41,4.64,17.96,7.06,26.9c2.9,10.72,8.54,20.04,14.71,29.23
		c6.84,10.17,16.45,17.25,25.27,25.31c6.98,6.38,13.72,3.99,20.65,0.72c3.61-1.7,6.83-4.14,9.96-6.65
		c4.76-3.82,10.22-6.35,16.2-7.37c8.77-1.5,16.72,1.33,24.42,5.21c4.5,2.26,8.11,5.79,12.49,8.23c11.51,6.39,23.68,8.05,36.08,3.93
		c10.11-3.36,20.21-6.71,30.67-8.61c7.19-1.31,14.61-0.92,21.89-0.1c11.17,1.25,21.65,5.01,31.55,10.13
		c6.65,3.44,10.33,9.96,13.04,16.55c1.99,4.82,2.82,10.18,2.98,15.6c0.34,11.54,7.33,18.72,17.19,23.06
		c13.99,6.17,22.09,16.65,24.6,31.5c0.77,4.55,0.34,9.29-0.72,13.78c-1.35,5.73,1.37,10.41,3.57,15.07c1.16,2.44,3.95,3.4,7.21,3.48
		c12.61,0.28,24.69,3.11,35.97,8.93c1.94,1,3.67,2.28,5.04,4.02c2.7,3.44,2.6,7.69-0.39,10.86c-3.54,3.75-6.95,7.63-11.31,10.52
		C639.44,567.93,638.2,568.58,637.61,570.26z"/>
</g>
</svg>
