<?xml version="1.0" encoding="utf-8"?>
<!-- Generator: Adobe Illustrator 24.0.2, SVG Export Plug-In . SVG Version: 6.00 Build 0)  -->
<svg version="1.1" id="Layer_1" xmlns="http://www.w3.org/2000/svg" xmlns:xlink="http://www.w3.org/1999/xlink" x="0px" y="0px"
	 viewBox="0 0 813.94 588.82" style="enable-background:new 0 0 813.94 588.82;" xml:space="preserve">
<g>
	<path d="M627.54,578.25c-6.74-9.18-11.53-19.19-18.2-28.71c-17.12,5.65-34.98,7.46-53.37,9.2c0,10.12,2.21,20.39-3.16,30.08
		c-2.6-2.83-4.23-5.7-5.83-8.61c-2.96-5.39-6.03-10.73-8.92-16.16c-1.15-2.16-2.49-2.96-5.11-2.85
		c-19.66,0.82-39.27,0.36-58.93-0.93c-16-1.05-31.87-2.47-47.49-6.08c-2.48-0.57-3.77,0.66-5.14,2.12
		c-5.49,5.84-10.4,12.13-14.77,18.86c-0.95,1.46-1.61,3.24-4.11,4.14c-2.28-10.96,0.43-21.04,2.79-31.42
		c-3.18-2.01-6.34-3.96-10.05-5.09c-2.28,2.73-2.11,6.57-4.95,8.86c-2.94-2.36-2.66-6.01-3.89-9.28
		c-8.95-0.64-17.81-2.14-26.63-3.83c-1.87-0.36-3.09,0.19-4.15,1.87c-1.95,3.1-4.13,6.05-6.26,9.03c-0.84,1.17-1.38,2.68-3.72,3.34
		c-2.31-5.89,0.16-11.45,0.71-17.74c-5.21-1.04-9.5-6.43-16.43-2.47c1.58-7.82-5.84-7.64-8.62-11.64
		c-5.68,2.95-7.23,9.63-13.01,13.21c-1.17-7.83,1.92-14.04,4.8-20.54c-5.32-5.64-10.03-11.81-14.98-18.01
		c-4.98,2.47-8.52,6.64-13.12,8.97c-1.43-1.2-0.9-2.31-0.46-3.37c1.46-3.54,2.75-7.24,5.26-10.16c2.44-2.84,2.53-5.21,0.4-8.34
		c-3.26-4.78-6.06-9.88-9.22-15.12c-5.07,2.11-9.19,5.41-14.34,8.3c0.19-5.6,3.16-8.83,5.8-12.08c3.82-4.71,3.96-4.61,1.12-10.07
		c-1.46-2.8-2.99-5.57-4.52-8.34c-0.14-0.26-0.52-0.38-0.98-0.71c-4.59,1.87-8.23,5.78-13.68,7.59c0.8-7.31,6.21-11.2,9.75-16.46
		c-2.54-5.22-5.39-10.4-8.55-15.39c-4.82,0.73-7.33,5.01-11.94,6.45c0.35-4.56,2.09-8.04,4.69-11.03c2.14-2.46,2.14-4.32-0.04-6.86
		c-2.68-3.12-4.68-6.83-8.28-9.4c-3.7,2.4-6.13,6.17-10.3,8.66c-1.02-5.65,2.04-9.52,4.14-13.74c-3.19-3.02-5.85-0.77-8.52,0.13
		c-0.68,2.48,1.11,4.79-0.34,7.31c-2.09-1.08-2.94-3.42-5.53-4.24c-5.97,3.1-11.13,7.6-15.29,13.3c1.03,3.2,3.47,5.88,2.76,9.66
		c-2.83-0.02-3.86-3.31-6.78-3.25c-2.72,2.96-3.62,7.21-6.4,10.4c1.02,1.94,2.08,3.62,2.8,5.44c0.64,1.62,1.97,3.18,1.06,5.22
		c-2.62-0.07-4.02-2.96-7.13-2.84c-2.04,4.67-4.15,9.5-6.28,14.33c-0.67,1.51,0.16,2.4,1.1,3.47c1.83,2.08,3.64,4.25,3.68,7.53
		c-2.9,0.26-4.71-1.95-7.4-2.38c-2.25,3.43-2.63,7.67-4.56,11.35c2.15,3.16,5.39,5.6,5.86,9.95c-3.03,0.61-4.88-2.17-7.74-2.24
		c-2.5,3.68-2.96,8.35-5.14,12.18c-2.51,4.42,3.14,7.85,1.25,12.1c-2.08,0.1-2.86-1.97-4.56-2.14c-6.54,4.52-4.05,11-3.24,17.27
		c-2.95-0.14-3.21-3.16-5.54-3.78c-2.38,3-4.47,6.41-7.4,9.12c-1.11,1.03-0.91,2.32-0.71,3.71c0.4,2.73,0.84,5.5-0.18,8.68
		c-3.2-1.58-3.34-5.29-6.11-7c-7.99,2.65-16.44,3.4-24.92,3.49c-3.25,0.04-5.5,0.62-6.28,4.08c-0.14,0.6-0.68,1.14-1.54,1.07
		c-1.14-0.48-0.93-1.61-1.01-2.52c-0.18-2.08-1.37-2.87-3.3-2.95c-4.04-0.16-7.92-1.03-11.61-2.96c-2.91,1.51-3.85,4.99-6.95,6.82
		c-1.41-2.65-0.06-5.02,0.57-7.14c0.64-2.18,0.69-3.7-1.02-5.36c-2.87-2.77-4.41-6.58-6.84-9.61c-2.43,0.31-3.49,2.86-5.93,2.98
		c-0.8-1.65,0.42-2.82,1.06-4.02c2.75-5.16,2.48-6.95-2.03-11.85c-1.67,0.41-0.55,1.97-1.16,2.83c-1.78-1.09-2.22-1.22-4.39-1.3
		c-1.03-6.62-5.15-10.81-10.89-13.65c-1.32-0.65-3.43-0.57-3.87-2c-1.73-5.68-7.2-5.2-11.2-7.01c-1.84-0.83-3.52-1.24-4.6-3.31
		c-1.68-3.21-5.5-4.18-8.19-6.93c0.84-3.52,1.69-7.35-2.17-10.3c1.75-1.85,4.61-2.33,5.75-5.52c-4.91-1.13-10.38,1.1-14.95-2.44
		c4.6-5.14,11.7-3.14,18-6.15c-4.83-1.11-8.79-2.16-12.08-5.17c0.41-2.43,1.26-4.97,0.54-7.88c3.61-0.64,6.3-2.23,8.4-4.68
		c1.23-1.43,2.7-1.71,4.46-1.61c5.07,0.3,9.82,1.67,14.32,3.97c1.63,0.83,2.61,1.87,2.16,3.93c-0.46,2.12-0.03,4.42,2.35,4.77
		c2.64,0.39,4.77-1.83,4.82-4.05c0.1-4.15,3.24-4.91,5.7-6.68c2.44-1.76,4.97-1.54,7.62-0.9c2.76,0.67,5.39,1.7,7.95,2.93
		c1.08,0.52,1.97,1.09,2.49,2.27c2.69,6.1,4.5,7.31,11.27,6.5c2.59-0.31,4.49,0.22,6.42,1.76c3.38,2.7,2.73,6.46,2.45,9.92
		c-0.33,4.13-0.04,5.14,4.15,5.4c3.47,0.22,6.59,0.48,8.43,3.98c0.46,0.88,1.52,1.2,2.52,1.49c5.19,1.53,5.78,2.21,7.39,8.51
		c-2.47-3.92-6.29-5.66-10.14-7.83c-3.61-2.04-6.57-4.28-11.01-4.41c-3.01-0.09-4.45-3.18-4.03-6.58c0.68-5.41-2.88-9.69-8.32-9.95
		c-1.5-0.07-3-0.04-4.5,0.02c-3.08,0.11-5.22-1.45-6.16-4.14c-0.93-2.64-1.96-5.44-4.79-5.84c-4.03-0.57-8.25-1.32-12.27,0.41
		c-1.22,0.53-1.29,1.63-1.52,2.85c-0.56,2.95-1.86,5.55-5.16,6.39c0.25,0.45,0.39,0.93,0.54,0.93c3.04,0.12,5.35,1,7.28,3.83
		c1.98,2.9,4.95,4.99,8.18,6.82c6.91,3.92,10.1,10.84,12.77,17.92c3.99,10.58,7.45,21.38,12.76,31.42
		c2.41,4.57,5.08,8.99,8.58,12.84c1.69,1.86,3.49,3.56,6.29,4.62c5.52-5.04,9.66-11.31,12.92-17.99
		c6.79-13.9,12.44-28.29,17.69-42.87c6.36-17.68,12.93-35.33,23.3-51.22c10.71-16.41,26.08-25.2,45.29-27.77
		c14.16-1.89,28.32-1.6,42.32,0.89c13.89,2.47,24.7,10.39,33.52,21.14c4.85,5.91,8.91,12.4,13.21,19.03c4.3-1.78,7.52-5.1,11.75-6.6
		c1.6-0.57,1.21-2.17,1.21-3.48c0-17.59,2.52-34.84,7.02-51.83c1.06-4.02,2.55-7.88,4.05-11.95c-8.42-7.59-16.87-15.09-21.62-25.89
		c2.82-1.47,4.55,0.35,6.33,1.2c6.06,2.89,12.32,5.01,18.95,6.07c3.2,0.51,5.36,0.03,7.26-3.31c8.81-15.49,20.91-28.36,33.67-40.64
		c0.83-0.8,1.88-1.39,2.32-2.83c-4.76-6.74-9.95-13.49-9.97-22.39c2.06-0.97,2.84,0.39,3.77,1.22c4.76,4.22,9.87,7.91,15.61,10.71
		c1.6,0.78,3,1.18,4.58-0.16c13.66-11.6,29.49-19.87,45.07-28.98c-1.2-4.97-3.85-9.6-3.18-15.23c3.42,1,4.8,3.91,6.96,5.8
		c5.1,4.46,5.83,4.74,11.79,1.58c8.5-4.51,17.43-8.13,26.12-12.16c-2.42-7.07-2.53-7.93-1.46-11.96c2.85,1.02,4.12,3.77,6.17,5.53
		c2.8,2.39,5.16,3.1,8.92,1.53c10.43-4.35,21.13-8.07,31.72-12.05c0.6-0.22,1.16-0.55,1.65-0.79c0.69-2.65-1.64-5.02-0.05-7.62
		c2.31-0.4,3.35,1.7,4.81,2.83c2.16,1.66,4.19,2.23,6.9,1.17c6.33-2.47,12.78-4.66,19.07-6.92c0.69-2.53-1.77-4.35-0.64-6.51
		c0.65-0.61,1.29-0.27,1.76,0.14c4.64,3.95,9.16,3.38,13.97,0.11c3.68-2.5,7.96-4.09,11.66-6.9c-0.83-3.37-4.68-5.08-4.34-9.12
		c2.75,0.55,5.31,0.99,7.84,1.57c3.26,0.75,5.23-0.14,6.5-3.54c2.62-7.02,1.72-11.56-4.26-17.62c-2.29,0.15-4.35,1.3-6.54,2.03
		c-2.04,0.68-3.79,2.1-6.53,2.51c-0.4-5.37,4.51-7.38,6.74-11.35c-5.94-4.95-12.33-9.31-19.18-13.05c-1.8-0.98-3.15-0.46-4.59,0.53
		c-2.99,2.05-6,4.09-9.54,6.5c-1.46-5.37,1.98-8.83,3.61-12.96c-7.08-3.69-14.32-6.59-21.6-9.35c-1.98-0.75-3.9-0.5-5.7,0.75
		c-2.45,1.71-4.95,3.38-7.46,5c-1.34,0.86-2.41,2.4-4.66,1.97c-1.11-4.62,2.37-7.9,3.91-12.35c-6.74-2.43-13.38-4.88-20.31-6.24
		c-2.94-0.58-6.07,0.57-7.25,4.01c-0.78,2.29-2.33,2.92-4.57,2.91c-1.99-0.01-3.99,0.26-5.97,0.52c-2.53,0.34-4.69,0.19-6.95-1.6
		c-1.7-1.35-4.31-1.54-6.65-2.29c-0.5-1.28,1.57-1.63,1.11-2.84c-0.17-0.26-0.31-0.71-0.54-0.76c-6.37-1.43-12.81-3.92-18.91,0.69
		c-1.04,0.79-1.91,1.29-3.13,0.8c-3.93-1.59-8.5-2.34-9.64-7.38c-2.01-0.56-3.73-0.4-5.93,0.29c1.99,3.04,4.7,4.8,7.28,6.11
		c2.64,1.34,4.08,3.05,5.07,5.63c2.03,5.27,4.86,9.87,10.75,11.61c0.63,0.19,1.51,0.92,1.79,0.71c3.35-2.37,6.9,0.31,10.3-0.5
		c3.54-0.85,6.77-1.98,7.51-6.13c5.14,0.34,9.74-0.15,14.32-1.01c3.82-0.72,7.01,0.53,9.13,3.71c2.52,3.78,5.79,6.35,10.11,7.68
		c1.3,0.4,2.26,1.31,3.2,2.3c4.04,4.26,8.93,6.29,14.85,5.3c2.73-0.46,5.41,0.25,6.62,2.52c3.66,6.91,10.4,8.86,16.91,11.22
		c2.8,1.01,4.59,2.94,5.99,5.48c-4.63-2.91-9.68-4.55-14.91-5.79c-3.11-0.74-5.73-1.98-7.71-4.93c-2.91-4.33-6.18-4.37-10.4-0.92
		c-0.62,0.51-1.34,0.9-2.02,1.35c-0.54-0.39-1.11-0.6-1.3-0.99c-3.28-6.53-9.62-8.74-15.7-11.45c-2.82-1.25-5.64-2.79-6.7-6.11
		c-0.44-1.35-1.36-2.45-2.64-2.82c-6.49-1.86-12.63-3-18.89,1.74c-3.83,2.9-8.86,4.52-13.6,5.79c-3.02,0.81-5.87-1.89-8.84-2.91
		c-2.34-0.81-4.49-2.17-6.69-3.34c-1.83-0.97-3.07-2.29-3.53-4.51c-0.54-2.6-2.06-4.81-3.53-7.07c-2.08-3.19-4.63-5.04-8.46-5.27
		c-4.2-0.25-5.14-3.6-5.87-7.1c-5.71,0.58-8.89-2.73-11.53-6.79c-3.91-6-7.78-12.02-11.57-18.09c-0.93-1.5-2.13-2.99-2.02-5.41
		c4.01,0.59,6.19,4.39,10.15,5.35c-0.4-3.28-2.76-6.24-1.16-9.89c2.36-0.96,4.79,0.16,6.96,0.99c5.67,2.15,9.72-1.3,9.49-9.2
		c-0.05-1.71-0.1-3.23,0.57-4.82c1.95-4.6,3.84-9.23,4.42-14.25c0.2-1.76,1.68-2.79,2.5-4.4c-4.53-1.49-9.55-0.91-13.67-3.59
		c1.15-2.24,3.07-1.99,4.59-2.38c4.03-1.04,8.09-2.04,12.19-2.71c3.67-0.6,6.67-1.86,8.09-5.86c7.44,1.56,14.72,1.18,22.04,0.9
		c4.12-0.16,7.81-1.57,11.67-2.52c1.91-0.47,3.23-1.86,3.7-3.74c0.64-2.57,2.28-3.84,4.68-4.63c3.96-1.31,7.65-3.07,10.84-5.97
		c2.97-2.7,6.73-1.3,10.07-0.71c2.54,0.45,4.93,1.81,7.47,2.23c-0.56,7.02,0.89,9.07,7.59,10.64c4.08,0.95,8.17,0.8,12.38,0.48
		c5.63-0.43,11.09-0.74,16.33-3.23c2.71-1.29,5.41-2.49,7.65-4.32c4.03,1.15,7.38,3.17,10.72,5.38c6.35,4.2,13.29,6.77,21.14,6.39
		c4.75-0.23,8.09,2.54,9.93,7.51c1.75,4.74,3.64,9.36,9.36,10.71c1.68,0.39,1.92,2.14,2.62,3.43c2.93,5.36,10.09,6.76,14.91,2.94
		c1.37-1.09,9.34-2.67,11.05-2.15c4.58,1.41,8.97,3.16,14.08,1.69c3.29-0.94,7.49,2.97,8.84,7.41c0.83,2.72,1.56,5.51,3.28,7.78
		c2.96,3.91,5.87,7.33,11.99,5.57c4.06-1.17,8.01,2.11,9.14,5.5c2.65,7.93,9.24,10.41,15.62,13.56c0.68,0.33,1.73,0.2,1.98,1.76
		c-7.21-0.58-13.74-1.77-17.9-8.61c-1.55-2.55-4.17-4.27-6.68-5.94c-0.55-0.36-1.37-0.97-1.76-0.79c-5.07,2.32-7.46-2.07-10.79-4.14
		c-2.39-1.49-4.95-2.71-7.36-4.17c-3.35-2.03-8.66-2.19-7.79-8.37c0.14-1.01-1.55-2.08-2.75-2.71c-4.81-2.52-10.16-2.69-15.38-3.4
		c-1.74-0.24-3.08,0.91-4.5,1.84c-7.13,4.69-14.72,3.25-19.35-3.72c-1.18-1.79-2.62-2.86-4.62-3.52c-2.53-0.82-4.97-1.89-7.77-2.98
		c0.25-5.74-3.92-7.65-8.49-9.12c-1.16-0.37-2.15-0.87-2.91-1.8c-5.78-7.08-14.53-8.35-22.41-11.1c-3.59-1.25-7.58,0.33-11.05,2.12
		c-2.52,1.3-5.02,2.61-7.72,3.52c-1.26,0.43-2.49,0.75-3.89,0.37c-6.34-1.75-8.07-1.2-12.01,3.68c-4.52-2.29-9.08-4.6-13.62-6.91
		c-2.59-1.32-5.3-2.12-6.19-5.76c-0.7-2.87-4.97-3.96-7.97-2.69c-2.94,1.24-5.95,2.04-9.12,2.48c-4.43,0.62-6.43,3.04-6.84,7.78
		c-2.05,1.19-4.83,0.57-6.75,2.17c0.12,1.41,1.17,1.69,1.98,2.19c4.67,2.89,9.61,5.43,13.97,8.75c5.87,4.46,12.32,6.99,19.51,8.2
		c8.73,1.47,17.09,4.39,25.41,7.34c2.71,0.96,5.15,1.4,7.15-1.29c1.05-1.41,2.48-1.4,4.05-0.99c7.26,1.89,14.67,2.98,21.86,4.05
		c1.28,0.91,1.25,2.18,1.57,3.26c0.71,2.43,2.04,3.81,4.75,3.07c2.42-0.67,4.84-0.11,6.74,1.1c4.75,3.03,9.71,3.05,14.93,2.01
		c1.45-0.29,2.94-0.59,4.79-0.16c1.06,2.64,1.72,6.06,5.58,5.84c0.89,1.48-0.2,2.12-0.6,2.94c-2.05,4.18-0.54,6.84,4.11,6.9
		c2.5,0.03,5.34-0.14,6.93-2.18c1.88-2.42,3.91-2.66,6.54-2.08c1.61,0.35,3.3,0.57,4.95,0.08c0.8-0.24,1.87-0.73,2.38-0.12
		c3.29,3.94,9.27,3.84,12.2,8.17c1.89,2.78,5.42,3.15,8.22,6.09c-4.69-1.24-8.45-2.04-11.56-5.23c-3.3-3.38-7.71-5.13-12.4-6.04
		c-3.49-0.68-6.52-0.39-8.99,2.65c-2.05,2.52-5.1,3.19-8.17,2.79c-3.77-0.49-7.41-1.59-11.21-3.43c3.35-5.37,0.04-7.92-4.26-10.21
		c-2.11,1.36-3.75,3.35-5.33,5.94c6.11,4.58,13.12,7.43,19.14,11.79c4.78,3.47,9.5,4.48,15.18,2.18c3.35-1.36,7.18-1.35,10.87-1.16
		c1.32,0.07,2.67,0,3.59,1.72c-3.34,3.73-8.49,5.02-11.97,8.66c0.1,1.94,1.92,2.53,3.09,3.53c6.21,5.32,12.32,10.74,17.41,17.16
		c1.31,1.65,2.66,2.06,4.72,1.83c3.47-0.37,6.98-0.37,10.48-0.38c1.59-0.01,3.35-0.13,4.69,1.74c-4.04,2.44-8.44,4.05-12.31,7.41
		c5.5,8.56,8.53,17.73,7.46,28.04c3.8,1.05,6.7-2.36,10.45-1.5c-2.4,5.68-6.73,9.25-11.36,12.52c-1.5,1.06-3.03,1.98-4.05,3.61
		c-8,12.91-19.73,21.36-33.1,28.01c-15.66,7.79-31.94,14.09-48.11,20.7c-15.83,6.48-31.55,13.21-46.47,21.79
		c-12.17,7-24.13,14.21-34.48,23.66c-11.91,10.87-23.9,21.78-31.26,36.61c-3.18,6.41-6.69,12.66-8.3,19.73
		c-0.22,0.97-0.46,1.98-0.93,2.84c-12.63,22.58-15.13,47.26-15.15,72.47c0,5.65-0.41,11.32,2.12,16.69
		c0.67,1.43,0.67,3.27,0.64,4.92c-0.32,16.46,6.33,31.04,12.2,45.84c0.09,0.24,0.47,0.36,0.92,0.68c3.67-4.6,5.86-10.02,8.38-15.2
		c6.92-14.21,13.43-28.62,20.38-42.81c12.24-24.98,24.93-49.73,41.66-72.11c17.2-23.01,37.26-43.11,62.02-57.99
		c16.98-10.21,35.1-17.71,55.14-19.34c17.36-1.41,34.48-0.43,51.55,3.73c17.52,4.27,34.64,9.62,51.28,16.46
		c22.96,9.45,38.97,25.81,47.1,49.36c2.71,7.85,4.4,16.08,4.7,24.46c0.12,3.42,1.14,5.83,4.02,7.97c5.5,4.09,10.09,9.19,13.91,14.92
		c1.06,1.6,2.57,3.15,1.73,5.93c-6.47-2.78-12.55-6.43-19.97-7.92c-2.11,14.54-6.42,28.09-12.81,41.29
		c6.63,7.09,14.65,13.21,18.68,22.47c-1.46,1.27-2.6,0.57-3.59,0.13c-6.22-2.83-12.74-4.86-19.1-7.3c-2.57-0.99-3.94-0.54-5.23,1.83
		c-6.8,12.55-16.26,23.12-25.43,33.9c-1.71,2.01-3.63,3.86-5.61,5.96c4.66,8.96,9.6,17.72,11.26,28.07
		c-2.82,0.28-3.97-1.39-5.16-2.56c-4.44-4.32-9.57-7.76-14.48-11.47c-1.64-1.24-3.19-2.29-5.27-0.41
		c-10.97,9.97-22.87,18.8-34.96,27.79c4.2,8.84,9.68,17.06,10.28,27.08c-2.27,0.35-3.03-0.97-3.99-1.78
		c-6-5.07-12.61-9.25-19.16-13.54c-1.88-1.23-3.26-1.55-5.38-0.32c-14.53,8.44-29.48,16.05-45.94,21.62
		C629.55,555.07,630.1,566.63,627.54,578.25z M663.31,299.94c-2.7-2.94-4.85-5.19-6.9-7.52c-1.6-1.82-3.15-1.71-5.28-0.72
		c-5.16,2.4-10.01,5.3-14.66,8.51c-5.96,4.13-12.39,7.69-17.33,13.06c2.45,5.2,3.69,10.29,2.02,16.66
		c-3.5-3.77-6.45-6.89-10.49-9.42c-7.15,7.95-14.19,15.87-20.27,24.52c3.62,5.35,4.42,11.29,5.7,18.32
		c-4.76-3.05-7.54-6.74-12.03-8.76c-6.59,9.64-12.61,19.34-17.96,29.49c3.66,5.46,6.91,10.92,7.27,18.09
		c-5.04-1.55-8.16-5.46-13.07-6.92c-4.79,9.55-9.52,19-14.25,28.43c4.74,5.44,9.24,10.64,10.81,18.21
		c-6.1-1.67-10.46-5.92-16.31-6.25c-7.41,11.84-12.52,24.69-19.42,36.62c4.1,5.64,9.79,10.02,11.22,17.71
		c-4.61-1.85-8.56-3.57-12.61-5.04c-4.8-1.74-4.78-1.62-7.55,2.58c-5.97,9.02-11.79,18.16-19.44,25.93
		c-0.51,0.52-0.65,1.12-0.47,1.81c0.69,0.79,1.57,1.21,2.62,1.25c12.18,0.43,24.39,0.37,36.32-2.22
		c17.75-3.85,34.89-9.63,51.53-17.04c19.68-8.77,38.4-19.06,55.98-31.58c18.02-12.83,34.42-27.29,48.15-44.67
		c0.95-1.2,2.25-2.26,2.35-4.13c-3.8-0.59-6.58,3.05-10.21,1.79c-0.13-2.41,1.54-3.47,2.81-4.68c4.01-3.8,8.37-7.09,13.44-9.41
		c1.94-0.89,3.8-1.87,5.04-3.89c6.86-11.1,12.29-22.85,16.47-35.19c0.39-1.17,1.26-2.42,0.29-3.95c-6.26,0.07-11.35,4.95-17.89,4.96
		c0.6-2.73,2.08-4.56,3.53-6.35c4.03-4.96,8.8-9.15,14.35-12.27c2.44-1.37,2.99-2.99,3.09-5.55c0.29-7.57-0.82-14.96-2.37-22.29
		c-0.68-3.2-1.41-6.49-3.51-9.35c-6.62,1.31-12.08,5.09-18.06,7.97c0.97-8.65,6.34-14.45,11.98-20.18
		c-2.42-4.26-5.75-7.49-8.64-11.09c-3.54-4.39-8.16-3.59-12.71-4.04c-5.43-0.54-7.5,4.97-11.64,6.39c-1.76-1.48,0.26-3.48-1.35-4.96
		c-3.43,0.46-6.92,1.14-10.33,2.76C664,291.37,664.91,294.99,663.31,299.94z M69.04,496.91c2.38-0.66,3.63-1.84,2.76-3.76
		c-1.68-3.73-2.58-7.83-4.87-11.21c-2.52-0.39-4.33,2.42-6.89,0.97c0.43-3.14,3.81-4.07,4.92-6.8c-1.18-2.42-1.81-5.19-3.57-7.23
		c-3.03-0.29-4.82,2.51-7.89,2.44c0.18-3.69,3.22-5.35,5.16-8c-3.16-1.54-5.25-4.41-8.6-5.04c-2.53-0.48-4.53-1.25-6.24-3.45
		c-1.73-2.23-7.3-2.54-8.62-0.75c-1.26,1.71-2.99,3.95-2.73,5.69c0.46,3.12,0.44,7.58,2.35,9.08c3.16,2.48,6.34,5.09,9.67,7.42
		c3.85,2.71,9.45,3.05,11.25,8.54c0.16,0.49,0.97,0.93,1.55,1.1C62.97,487.52,66.8,491.15,69.04,496.91z M53.54,438.37
		c-2.47-1.51-3.74-3.4-4.2-5.96c-0.24-1.34-1.67-1.95-2.87-2.57c-6.17-3.15-11.47-0.1-16.79,2.44c-0.79,0.38-1.36,1.45-1.78,2.32
		c-1.03,2.19-0.72,4.06,2.03,4.38c3.66,0.43,6.54,2.15,9.09,4.65c1.87,1.84,4.5,1.72,5.87,0.24
		C47.22,441.37,50.23,440.43,53.54,438.37z M445.43,97.27c9.67,0.73,19.24,1.72,28.1,6.18c1.1,0.73-0.12,2.45,1.22,3.36
		c6.38,0.54,7.42-0.05,9.45-5.66c-8.61-1.9-17.22-3.64-25.73-5.75C453.82,94.25,449.65,95.12,445.43,97.27z M429.97,46.82
		c6.82-4.63,14.66-6.84,21.93-10.49c-5.47-0.66-11.1-5.17-15.98,1.05c-0.09,0.11-0.3,0.16-0.46,0.18
		C429.9,38.25,430.55,42.77,429.97,46.82z M311.64,433.35c4.29,7.59,7.81,15.35,12.95,22.26c-0.98-7.02-3.47-13.69-4.3-20.71
		c-0.16-1.35-1.14-1.95-2.42-2.06C315.96,432.68,314.01,432.29,311.64,433.35z M49.42,444.64c4.99,0.54,9.73,1.06,14.93,1.63
		C59.89,440.67,53.29,439.99,49.42,444.64z M415.84,70.68c-2.17-0.25-4.1-0.18-4.86,1.83c-0.65,1.74,0.71,3.13,1.81,4.35
		c1.27,1.4,2.4,3.04,5.02,3.73C416.6,77.06,416.08,73.89,415.84,70.68z"/>
	<path d="M63.21,402.14c-4.21,0.45-8.45,0.14-11.54,3.68c-0.28,0.32-1.07,0.61-1.36,0.44c-4.27-2.41-6.55,0.78-9.3,3.07
		c-2.05,1.71-4.74,2.17-6.98,0.57c-2.62-1.86-4.6-0.99-6.74,0.59c-2.36,1.75-4.91,2.8-7.92,1.87c-1.92-0.59-3.05,0.72-4.35,1.78
		c-4.23,3.47-8.7,3.65-12.18,0.6c-3.19-2.8-3.81-8.91-1.31-12.92c2.31-3.71,7-5.15,11.37-3.05c2.06,0.98,3.63,1.14,5.51-0.15
		c3.16-2.16,6.43-2.55,9.75-0.21c1.8,1.27,3.73,1.32,5.62,0.17c3-1.81,5.98-1.58,9.04-0.13c1.35,0.64,2.72,0.77,4.32,0.3
		C52.96,397.03,58.27,398.44,63.21,402.14z"/>
	<path d="M91.73,414.3c0.7-1.9,3.19-0.87,4.13-2.84c-1.26-1.13-2.58-1.8-4.39-1.38c-1.61,0.37-3.25,0.59-4.87,0.9
		c-3.29,0.62-5.91-0.19-7.46-3.39c-1.43-2.96-0.7-7.61,1.54-9.76c2.26-2.15,6.83-3.06,9.25-1.2c2.38,1.83,5.2,1.6,7.51,2.52
		c3.92,1.55,9.29,2.14,10.5,7.96c0.48,2.3,0.06,3.76-1.52,5.28C101.95,416.7,97.06,417.11,91.73,414.3z"/>
	<path d="M28.12,415.02c4.37-0.59,8.43-1.64,12.45-2.38c4.14-0.77,8.87,0.76,12.68-2.12c0.78-0.59,1.99-0.41,2.89,0.06
		c2.08,1.08,3.66,0.3,5.48-0.84c2.92-1.82,6.6-1.27,8.66,1.06c1.4,1.59,1.99,3.45,0.9,5.5c-1.21,2.29-5.06,4.37-7.75,3.31
		c-6.3-2.48-12.85-0.8-19.18-1.75c-3.9-0.59-7.61-1.81-11.68-0.61C31.32,417.62,29.32,416.91,28.12,415.02z"/>
</g>
</svg>
