<?xml version="1.0" encoding="utf-8"?>
<!-- Generator: Adobe Illustrator 24.0.2, SVG Export Plug-In . SVG Version: 6.00 Build 0)  -->
<svg version="1.1" id="Layer_1" xmlns="http://www.w3.org/2000/svg" xmlns:xlink="http://www.w3.org/1999/xlink" x="0px" y="0px"
	 width="541.93" height="861.34" viewBox="0 0 541.93 861.34" style="enable-background:new 0 0 541.93 861.34;" xml:space="preserve">
<g>
	<path d="M368.2,819.06c-1.88-2.81-3.76-5.54-5.55-8.32c-3.26-5.06-3.14-10.06,0.51-14.82c2.93-3.82,5.35-8,8.53-11.66
		c3.64-4.18,5.84-9.15,7.24-14.6c1.48-5.78,3.54-11.42,5.56-17.05c4.64-12.99,6.56-26.38,6.83-40.15c0.1-5.03-2.4-8.4-5.27-11.36
		c-5.85-6.02-6.93-12.6-4.04-20.1c2.21-5.73,1.4-10.52-2.12-15.84c-7.32-11.09-13.07-23.13-19.2-34.92
		c-4.29-8.25-8.5-16.55-12.82-24.79c-1.54-2.94-3.05-5.88-4.31-8.97c-1.16-2.87-2.41-6.58-6.02-6.6c-3.77-0.02-6.99,2.36-8.75,5.82
		c-2.62,5.16-5.16,10.4-7.28,15.78c-2.62,6.65-5.14,13.33-8.21,19.79c-6.11,12.88-6.42,26.28-3.79,39.98
		c0.91,4.74,1.31,9.61,2.57,14.25c1.97,7.25-0.3,13.42-4.9,18.48c-6.99,7.68-11.35,16.52-14.78,26.19
		c-2.94,8.3-5.67,16.65-8.41,25.02c-1.33,4.07-1.57,8.08-0.81,12.26c1.44,7.97-0.87,12.68-7.75,17.24
		c-4.25,2.82-9.37,4.41-12.53,8.86c-1.07,1.5-2.21,2.8-2.46,4.76c-1.05,8.2-5.16,15.42-7.59,23.18c-1.13,3.62-3.93,4.99-7.74,4.96
		c-8.13-0.06-16.31,0.56-24.38-0.72c-4.72-0.75-9.38-1.95-14.02-3.16c-2.68-0.7-3.36-2.64-1.95-5.02c1.62-2.71,3.32-5.39,5.19-7.93
		c5.33-7.22,10.45-14.65,17.93-19.93c2.95-2.08,3.75-4.9,3.45-8.28c-0.22-2.49-0.21-5-0.51-7.48c-0.58-4.87,1.25-8.77,4.54-12.16
		c9.7-10.01,17.56-21.23,22.77-34.24c1.17-2.92,2.02-5.95,3.21-8.88c1.14-2.81-0.07-6.36-1.39-9.05c-3.62-7.39-2.47-14.45,1.3-21.02
		c4.45-7.74,3.72-15.02,0.53-22.88c-4.74-11.66-10.45-22.91-14.48-34.92c-2.75,0.19-3.53,2.24-4.28,3.94
		c-3,6.85-6.06,13.66-9.77,20.16c-2.44,4.27-2.06,9-2.12,13.63c-0.03,2.16,0.17,4.34,0.5,6.47c1.71,11.23-2.29,20.71-9.4,28.91
		c-7.65,8.82-12.09,18.73-13.76,30.34c-1.32,9.21-2.94,18.37-3.68,27.65c-0.28,3.49,0.22,6.9,1.35,10.31
		c1.56,4.72,2.55,9.62,3.46,14.54c1.02,5.51-0.19,10.33-3.34,14.62c-4.03,5.49-7.88,11.13-12.59,16.11
		c-1.98,2.09-2.88,4.63-3.64,7.47c-2.54,9.46-3.73,19.22-6.86,28.55c-1.21,3.61-3.36,4.93-6.73,5.63
		c-10.02,2.07-20.14,2.32-30.32,2.15c-5.68-0.09-11.28-0.04-16.68-2.3c-4.77-2-5.77-4.03-3.78-8.86c3.5-8.48,7.79-16.53,13.09-24.04
		c1.71-2.43,3.05-5.21,4.79-7.57c3.23-4.4,2.76-8.61,0.88-13.13c-0.7-1.69-1.55-3.34-2.06-5.09c-1.2-4.15-1-8,1.49-11.91
		c4.29-6.76,8.92-13.19,14.17-19.24c6.06-6.99,8.31-15.85,10.34-24.6c2.26-9.73,3.95-19.58,5.95-29.37
		c1.1-5.35,0.98-10.5-1.22-15.66c-1.62-3.81-3.04-7.74-3.89-11.84c-1.55-7.47-0.7-14.35,3.42-21.07c3.36-5.48,8.05-10.26,9.49-16.86
		c0.28-1.3,0.69-2.57,0.71-3.91c0.26-14.81,1.29-29.58,0.6-44.44c-0.39-8.41-0.9-16.96,0.46-25.39c0.7-4.34-1.08-6.95-4.7-9.48
		c-7.42-5.19-14.94-9.75-23.8-12.28c-6.28-1.79-12.25-1.28-18.16,0.3c-10.66,2.86-19.28,9.58-27.88,16.12
		c-9.93,7.54-19.35,15.69-28.23,24.46c-4.05,3.99-8.22,7.84-7.23,14.48c0.4,2.68-1.09,5.09-2.47,7.45
		c-3.19,5.44-6.54,10.83-7.91,17.12c-0.62,2.85-0.28,5.37,1.13,8.13c5.54,10.83,11.76,21.23,18.5,31.35c1.95,2.93,4.43,4.89,7.68,6
		c3.15,1.07,6.25,2.35,9.46,3.18c5.63,1.46,8.35,5.19,8.83,10.72c0.51,6.01,0.29,12.04-1.2,17.88c-0.51,2.01-0.34,3.46,0.59,5.08
		c4.47,7.77,7.99,16.09,13.56,23.24c2.1,2.7,1.25,5.83,0,8.52c-4.8,10.34-10.48,19.94-20.36,26.55c-7.15,4.78-11.64,4.73-17.38-1.75
		c-6.93-7.83-11.74-16.96-15.44-26.64c-1.13-2.94-2.84-4.68-5.53-5.95c-2.24-1.05-4.39-2.25-6.47-3.68
		c-4.82-3.31-6.2-7.95-6.17-13.34c0.01-1.83-0.2-3.76,0.3-5.47c1.75-6.01,0.11-11.36-2.17-16.91c-5.54-13.51-10.77-27.15-16-40.79
		c-4.73-12.34-11.18-23.67-18.67-34.55c-5.48-7.96-8.17-17.01-7.48-26.89c0.23-3.35,1.41-6.02,3.86-8.34
		c5.44-5.15,10.56-10.59,16.5-15.23c8.55-6.69,13.79-16.1,19.45-25.13c5.92-9.44,12.64-18.35,18.71-27.67
		c6.79-10.43,15.79-19.27,21.11-30.79c2.68-5.8,7.02-10.82,9.3-16.97c0.84-2.26,1.36-4.46,1.19-6.78
		c-0.79-10.77,1.84-21.07,6.37-30.44c5.61-11.61,9.49-23.77,13.56-35.87c2.68-7.96,4.5-16.19,4.4-24.88
		c-0.18-16.15-0.43-32.3-0.74-48.44c-0.26-13.6,0.12-27.21-0.22-40.81c-0.32-12.65-0.66-25.32-1.45-37.92
		c-0.61-9.74-5.59-17.52-14.73-22.76c-6.95-3.98-13.65-4.44-21.06-2.88c-6.24,1.31-12.37,1.56-18.65-0.72
		c-7.47-2.7-11.94-7.86-9.93-15.32c1.69-6.25,0.57-11.31-2.15-16.63c-3.77-7.38-6.68-15.21-11.64-21.97c-1-1.36-2.18-2.48-3.36-3.66
		c-2.06-2.07-3.97-2.98-7-1.54c-3,1.42-5.91,0.55-8.89-1.36c-9.75-6.25-15.64-14.7-16.47-26.42c-0.19-2.68-1.45-5.12-2.24-7.61
		c-1.97-6.22-3.22-7.9-2.24-10.63c4.9-13.65,8.92-28.06,24.65-33.9c9.74-3.61,19.58-4.43,29.83-2.3c8.69,1.81,16.78,5.22,25.04,8.18
		c9.55,3.42,19.3,3.02,29.09,1.37c0.47-0.08,0.93-0.36,1.34-0.64c0.4-0.28,0.73-0.67,1.48-1.37c-2.67-6.56-3.49-13.86-6.47-20.57
		c-1.06-2.39-2.33-4.68-2.77-7.42c-0.79-4.89-4.03-7.42-8.91-8.6c-11.86-2.84-15.87-9.07-15.29-21.25
		c0.9-18.81,16.76-24.51,30.87-18.44c7.32,3.15,11.36,11.24,8.82,20.59c-0.92,3.38-2.44,6.6-4.48,9.45
		c-2.4,3.35-2.59,6.69-1.02,10.36c3.39,7.94,6.66,15.93,10.09,23.85c2.4,5.55,4.16,6.47,10.2,5.78c8.13-0.92,8.03-0.91,6.97-9.29
		c-1.02-8.07-0.76-16.26-2.46-24.3c-0.72-3.42-2.09-5.91-5.21-7.35c-7.34-3.4-11.21-9.32-11.73-17.18
		c-0.38-5.84,0.5-11.6,4.65-16.25c10.16-11.36,19.72-10.8,31.49-3.47c7.55,4.7,10.16,19.04,5.14,26.6
		c-1.64,2.46-3.17,5.08-5.66,6.93c-2.97,2.2-3.75,5.4-3.48,8.88c0.73,9.46,1.54,18.9,2.32,28.36c0.29,3.5,2.14,6.6,5.34,7.02
		c7.22,0.94,13.67,4.12,20.55,5.99c4.3,1.17,8.63,1.28,12.87,0.71c9.22-1.24,18.36-3.08,27.57-4.42c9.78-1.42,19.61-1.3,29.38,0.04
		c4.95,0.68,5.44,1.72,4.73,6.68c-0.97,6.75-5.41,11.71-8.73,17.22c-7.28,12.09-15.45,23.62-22.04,36.17
		c-4.85,9.22-8.31,18.75-10.77,28.8c-1.01,4.12-0.48,7.52,2.23,10.65c5.77,6.66,11.47,13.38,17.4,19.9
		c1.58,1.74,3.02,3.52,4.31,5.46c2.99,4.49,3.03,5.52-0.71,9.46c-4.02,4.23-8.58,7.92-13.49,11.02c-4.37,2.76-8.05,6.41-12.62,8.91
		c-3.33,1.82-2.62,6.36,1.27,8.27c4.18,2.06,8.38,4.08,12.61,6.01c4.72,2.15,9,5.03,13.59,7.37c5.37,2.74,5.75,5.75,2.06,10.72
		c-3.37,4.54-6.57,9.21-9.77,13.87c-3.02,4.39-5.9,8.85-9.64,12.71c-2.68,2.77-2.04,5.87,1.51,6.89c6.7,1.93,13.28,4.34,20.21,5.43
		c0.66,0.1,1.31,0.24,1.96,0.39c10.96,2.49,11,3.61,7.02,13.85c-4.1,10.59-9.24,20.61-14.24,30.73c-1.23,2.5-1.33,4.7,1.03,6.71
		c1.11,0.95,1.9,2.29,3.02,3.7c3.01-2.23,5.65-3.91,7.96-5.95c6.79-5.98,15.07-9.75,22.27-15.15c5.04-3.78,8.91-2.17,10.16,3.96
		c2.09,10.25,5.73,20.16,6.28,30.75c0.26,4.99,2.74,9.6,3.16,14.61c0.09,1.14,0.28,2.39,1.65,2.83c1.57,0.51,2.54-0.52,3.41-1.52
		c8.68-10.1,18.83-18.83,27.13-29.28c1.24-1.56,2.6-3.06,4.11-4.35c2.68-2.29,4.77-2,6.51,1.13c2.19,3.93,3.4,8.23,4.47,12.64
		c2.6,10.78,5.66,21.44,8.56,32.27c3.2-0.41,4.91-2.23,6.53-4.1c6.77-7.76,13.51-15.55,20.26-23.32c0.66-0.75,1.31-1.51,2.01-2.23
		c5.44-5.62,9.35-4.88,11.01,2.69c2.82,12.82,6.52,25.47,7.83,38.6c0.41,4.08,1.4,7.47,5.88,9.38c3.6,1.54,6.74,4.26,9.93,6.66
		c2.82,2.13,5.14,1.81,7.42-0.72c4.91-5.44,9.31-11.28,13.6-17.2c5.56-7.66,12.86-13.95,17.48-22.33c0.56-1.02,1.24-1.98,1.76-3.01
		c2.33-4.69,2.34-4.83-1.58-8.5c-6.69-6.24-12.22-13.38-14.46-22.32c-2.68-10.69,0.02-20.86,5.41-30.13
		c9.42-16.19,22.76-27.73,41.53-31.49c9.94-1.99,19.59-0.58,29.08,3.87c14.25,6.69,21.77,18.6,26.97,32.37
		c2.29,6.06,5.05,12.32,3.77,19.23c-0.37,1.99,0.48,4.24-2.27,5.49c-1.2,0.54-1.1,2.64-1.57,4.05
		c-5.01,15.22-14.57,25.83-29.78,31.91c-8.3,3.32-16.56,2.65-24.92,3.13c-1.32,0.08-2.67-0.03-3.99-0.14
		c-4.9-0.41-8.11,1.51-11.22,5.61c-6.73,8.86-14.22,17.21-20.18,26.6c-5.09,8.02-11.4,15.14-16.27,23.31c-1.78,3-2.06,5.54-0.4,8.81
		c8.14,15.99,12.98,33.03,16.18,50.66c1.75,9.67,3.83,19.23,3.79,29.13c-0.05,12.35-0.94,24.5-4.05,36.57
		c-3.44,13.32-6.2,26.82-9.37,40.22c-2.13,9-4.03,18.16-4.76,27.5c-0.72,9.19,0.13,18.24,4.7,26.11c4.78,8.23,3.35,15.61-0.65,23.06
		c-3.73,6.94-4.45,14.6-5.91,22.04c-3.29,16.8-5.9,33.73-9.15,50.53c-1.05,5.45-1.49,10.78-1.3,16.3c0.18,5.12,1.62,9.8,3.37,14.47
		c2.41,6.42,0.89,12-4.38,16.57c-2.99,2.59-5.72,5.49-8.55,8.27c-1.9,1.86-2.5,4.23-2.69,6.81c-0.35,4.82-0.68,9.64-1.19,14.44
		c-0.77,7.21-1.86,8.63-8.84,9.99c-13.6,2.64-27.18,1.88-40.59-1.34c-6.14-1.47-7.59-4.46-5.1-10.67
		c3.35-8.35,7.66-16.21,13.45-23.18C366.7,821.09,367.37,820.15,368.2,819.06z"/>
</g>
</svg>
