<?xml version="1.0" encoding="utf-8"?>
<!-- Generator: Adobe Illustrator 24.0.2, SVG Export Plug-In . SVG Version: 6.00 Build 0)  -->
<svg version="1.1" id="Layer_1" xmlns="http://www.w3.org/2000/svg" xmlns:xlink="http://www.w3.org/1999/xlink" x="0px" y="0px"
	 width="950" height="765.69" viewBox="0 0 950 765.69" style="enable-background:new 0 0 950 765.69;" xml:space="preserve">
<g>
	<path d="M950,212.81c-2.04,0.2-1.92,2.59-3.51,3.41c-1.3,0.29-1.96-0.88-2.8-1.56c-8.69-6.98-18.19-12.94-26.15-20.84
		c-2.97-2.94-7.17-3.41-10.84-4.85c-8.02-3.14-14.5-8.39-20.76-14.04c-2.68-2.42-5.63-3.94-9.47-3.6c-2.64,0.23-5.37-0.22-7.88-1.11
		c-5.1-1.8-10.36-2.44-15.71-2.62c-2.57-0.08-4.64-0.95-6.81-2.51c-6.81-4.87-14.22-8.57-22.78-9.28c-3.87-0.32-7.69-2.6-11.63-0.02
		c-1.53,1-3.24,1.7-4.31,3.28c-1.58,2.34-3.87,3.33-6.56,4.14c-8.6,2.58-13.56,11.37-11.44,19.76c0.16,0.64,0.19,1.48,0.62,1.88
		c5.67,5.38,8.41,13.8,16.91,16.27c1.45,0.42,2.48,1.57,3.33,2.88c2.82,4.31,5.57,8.65,8.01,13.2c0.84,1.56,0.53,2.75-0.04,4.21
		c-2.02,5.15-1.13,10.36-0.7,15.71c0.52,6.43,2.13,12.3,4.96,18c0.86,1.74,1.67,3.1,3.62,3.75c6.17,2.09,9.94,6.88,13.21,12.13
		c1.1,1.77,1.33,3.81,0.63,5.78c-1.83,5.15-0.93,10.18,0.48,15.21c1.38,4.93,0.12,6.22-5.04,6.02c-3.56-0.13-5.79-1.23-7.08-4.78
		c-1.82-5-4.67-9.51-7.42-14.09c-2.75-4.59-6.65-6.63-12.25-8.15c0.99,5.13,1.86,9.75,2.79,14.35c0.46,2.28,1.15,4.52,1.49,6.82
		c0.2,1.4,0.59,3.12-1.17,3.98c-1.86,0.91-3.21-0.16-4.35-1.44c-6.65-7.42-13.39-14.76-19.86-22.33
		c-7.13-8.36-14.09-16.87-20.92-25.48c-2.22-2.8-4.98-3.5-7.96-2.73c-4.93,1.27-8.78,0.38-11.64-4c-0.54-0.82-1.33-1.5-2.05-2.18
		c-3.64-3.4-5.88-4-8.16-2.22c-3.16,2.47-4.94,8.61-3.28,11.7c1.42,2.64,2.97,5.2,4.49,7.78c2.67,4.52,2.91,9.1,0.21,13.65
		c-0.78,1.31-0.78,2.3-0.2,3.68c1.68,4.04,2.35,8.63,7.26,10.55c1.37,0.54,1.88,2.33,2.14,3.81c1.1,6.27,3.23,12.4,0.67,18.96
		c-1.87,4.78,2.06,14.25,7.15,17.54c2.91,1.88,4.13,4.09,4.14,7.33c0.02,8.72,3.27,16.98,3.66,25.66c0.11,2.4,0.19,4.67-2.3,6.44
		c-3.57-0.88-6.27-3.97-10.01-4.88c-1.13-0.28-1.93-1.54-1.79-2.77c0.41-3.64-1.63-6.77-1.92-10.24c-0.3-3.53-2.23-5.78-5.34-7.23
		c-2.66-1.24-5.52-2.23-7.07-6.13c-1.03,4.74,0.93,8.21,0.24,11.82c-0.28,1.45,0.23,2.97-1.69,3.65c-1.76,0.62-2.26-0.72-3.18-1.65
		c-4.1-4.19-7.36-9.03-10.67-13.8c-7.31-10.52-14.39-21.2-21.57-31.81c-1.31-1.93-2.62-3.86-4.03-5.72c-1.77-2.33-4-3.43-6.18-0.76
		c-2.6,3.18-5.93,0.98-8.8,1.7c-3.67,0.93-5.99-0.51-8.09-3.28c-2.21-2.93-5.51-4.76-7.82-7.69c-1.53-1.94-6.16-0.9-9.09,1.49
		c-3.17,2.58-3.9,6.49-5.55,9.91c-0.13,0.26-0.14,0.74,0.01,0.96c4.37,6.19,3.9,14.85,10.56,19.94c5.92,4.53,9.08,10.94,10.74,18.1
		c0.91,3.92,1.84,7.93-1.94,11.07c-7.44,6.18-6.96,14.07-2.87,21.21c4.54,7.94,5.16,15.51,2.14,23.78
		c-0.28,0.77-0.34,1.63-0.48,2.45c-1.03,6-2.28,6.75-7.96,4.8c-3.19-1.09-3.63-2.13-2.34-5.46c2.92-7.52,1.09-12.71-6.02-16.66
		c-2.01-1.12-3.86-2.37-5.7-3.78c-3.18-2.43-4.79-4.47-3.44-8.99c1.5-5.03-2.36-11.47-7.32-14.24c-1.31,6.92-0.66,14.25-4.51,20.51
		c-3.24-1.15-4.41-3.56-5.72-5.88c-5.99-10.57-10.74-21.75-16.3-32.53c-2.65-5.14-6.28-9.1-13.02-8.82
		c-4.44,0.19-8.57-1.27-11.01-5.58c-0.24-0.43-0.51-0.9-0.88-1.21c-5.38-4.56-6.91-9.76-4.35-16.71c1.87-5.08-4.06-17.29-8.6-20.23
		c-1.54-0.99-2.87-0.37-4.28-0.04c-3.21,0.75-6.02,2.79-9.91,2.6c0.82,3.52,1.25,6.78,2.35,9.81c1.9,5.2,0.14,9.28-2.9,13.39
		c-6.9,9.3-14.56,17.75-24.72,23.63c-0.73,0.42-1.42,0.88-1.86,1.92c1.41,3.02,4.05,5.03,6.93,6.63c6.73,3.73,12.8,8.45,18.63,13.34
		c7.57,6.36,11.56,15.38,15.16,24.34c1.48,3.69-0.86,7.07-3.27,9.99c-3.59,4.34-7.56,8.38-10.79,13.19
		c1.74,3.65,4.92,5.96,7.63,8.51c9.56,9.03,19.34,17.89,31.2,23.88c11.13,5.61,22.58,10.61,34.23,15.03
		c8.86,3.37,17.41,7.4,26.14,11.03c8.92,3.71,15.12,10.47,21.4,17.45c12.15,13.52,22.96,28.05,33.19,43.01
		c3.08,4.5,5.66,9.45,7.73,14.49c3.64,8.84,8.65,16.75,14.23,24.46c7.98,11.03,15.76,22.25,24.5,32.66
		c7.68,9.15,16.78,17.01,26.08,24.61c11.89,9.72,24.7,18.09,38.11,25.41c12.69,6.93,26.29,11.92,40.09,16.35
		c9.34,2.99,18.62,6.12,28.22,8.2c2.1,0.45,4.21,1.12,6.15,2.04c4.28,2.05,5.33,6.84,2.22,10.45c-1.82,2.12-3.9,3.94-6.57,5.23
		c-14.25,6.9-29.3,10.54-45,12.25c-17.42,1.9-34.87,2.92-52.32,1.85c-12.77-0.78-25.52-2.58-37.69-7.04
		c-1.65-0.61-3.28-1.74-5.02,0.09c-1.67,1.76-0.4,3.3-0.16,5.05c0.84,6.08,4.71,11.28,4.67,17.69c-0.02,2.54-0.27,3.9-2.72,4.17
		c-8.36,0.92-16.06,3.93-23.68,7.26c-1.18,0.51-2.43,1.08-3.84,0.42c-1.26-3.45,1.32-6.21,2.27-10.1
		c-7.62,4.31-10.19,11.92-15.14,17.55c-4.71-3.71-7.29-8.85-12.01-11.86c-1.46,0.45,0.12,1.8-1.06,2.71
		c-6.48-0.84-13.29-1.87-20.28-3.67c-0.51,4.57,3.66,6.71,4.81,11.14c-12.44,3.5-25.13,5.77-38.66,7.96
		c1.66-5.5,3.78-9.74,5.99-14.62c-3.27,0.61-5.6,1.73-7.59,3.81c-3.33,3.48-6.78,6.79-9.5,10.87c-3.25,4.87-5.56,4.81-9.85,0.74
		c-4.11-3.89-8.28-7.71-12.43-11.54c-0.84-0.78-1.68-1.62-3.23-1.59c-1.06,2.87,2.21,5.21,0.84,8.19c-2.31,1.38-4.87,0.09-7.01-0.53
		c-5.15-1.48-10.49-1.89-15.6-3.44c-2.68-0.81-5.14-0.49-7.64,0.98c-9.02,5.31-18.13,10.46-27.2,15.69
		c-1.85,1.07-3.71,2.08-6.17,2.48c-0.8-5.8,2.43-10.71,2.73-16.29c-3.27-0.35-4.76,1.8-6.26,3.6c-6.61,7.95-12.21,16.56-16.35,26.07
		c-0.86,1.97-1.58,4.03-3.52,5.96c-10.86-13-21.66-25.94-32.78-39.25c-1.77,2.79-0.51,4.95-0.13,7.06c0.38,2.14,0.78,4.24,0.09,7.21
		c-13.28-6.28-26.43-12.15-37.04-22.91c8.1-8.9,13.81-18.58,14.34-30.84c-6.5-1.08-12.71,1.66-18.87,1.74
		c-1.77-0.63-0.56-2.27-1.68-3.26c-7.99,0.24-16.19,0.3-25,3.91c1.57-4.73,4.47-6.82,6.34-9.56c1.4-2.05,3.15-3.88,4.88-5.68
		c7.19-7.46,8.98-16.79,9.36-26.62c0.08-2-0.12-4.01,0.05-6c0.3-3.59-0.14-6.89-2.42-9.89c-2.19-2.89-2.05-5.74,0.64-8.43
		c1.52-1.52,2.68-3.39,4.4-4.75c3.53-2.81,5.39-6.64,6.61-10.87c0.46-1.58,1.57-3.35-0.26-4.52c-2.13-1.36-3.96-3.88-7.05-2.83
		c-9.76,3.32-15.27,10.72-18.98,19.84c-0.83,2.04-0.28,3.74,0.84,5.6c2.06,3.41,3.74,7.05,5.65,10.56c1.54,2.83,1.19,5.24-0.84,7.8
		c-3.96,4.99-8.46,9.5-13.65,13.04c-3.69,2.51-4.95,5.67-5.18,9.59c-0.32,5.33,0.07,10.63,0.95,15.92c0.95,5.75,0.4,6.21-5.34,6.86
		c-3.41,0.39-7.49-0.77-9.37,3.78c-0.26,0.62-1.75,0.95-2.7,1.02c-9.13,0.65-18.27,1.11-27.37,2.15c-2.05,0.23-4.31,0.04-6.39-0.88
		c0.07-3.69,3.44-5.61,4.52-8.68c-0.2-0.3-0.34-0.78-0.54-0.8c-11.88-1.27-23.56,0.31-35.19,2.5c-0.61,0.11-1.4,0.4-1.7,0.86
		c-2.52,3.97-6.7,4.53-10.75,5.37c-1.14,0.24-2.56,0.19-3.04,1.39c-1.36,3.38-4.6,3.71-7.34,4.39
		c-12.61,3.09-25.02,6.73-37.15,11.38c-2.42,0.93-4.86,2.23-8.12,1.72c1.3-4.64,4.41-8.35,6.43-13.49
		c-24.4,1.35-46.52,9.87-69.16,14.93c-0.78-1.71-0.3-2.59,0.32-3.38c1.23-1.58,2.27-3.4,3.78-4.63c6.72-5.46,9.32-12.19,7.02-20.67
		c-0.67-2.46,0.38-4.07,2.64-5.23c4.29-2.18,8.57-4.38,13.11-5.95c2.06-0.71,3.58-1.65,4.12-3.85c1.04-4.22,2.95-8.11,4.61-12.1
		c3.85-9.23,2.5-19.04,3.02-28.61c0.36-6.81-0.1-13.66,0.08-20.48c0.07-2.76-0.52-4.57-3-6.18c-6.06-3.93-11.51-8.81-14.75-15.29
		c-5.29-10.59-6.64-13.36,2.04-22.64c4.54-4.85,9.11-9.68,14.48-13.61c1.58-1.16,1.93-2.39,1.89-4.2c-0.13-4.99,0.2-10-0.14-14.97
		c-0.59-8.48,4.34-14.77,7.99-21.59c9.51-17.79,21.32-34.12,32.55-50.79c6.7-9.94,9.98-20.86,12.59-32.26
		c2.89-12.63,5.03-25.45,9.06-37.82c0.41-1.26,0.62-2.59,0.95-3.88c0.87-3.37,0.04-5.73-3.54-6.95c-4.6-1.58-7.8-5.26-10.71-8.77
		c-4.36-5.27-9.56-9.76-13.63-15.26c-1.09-1.48-2.1-2.98-3.02-4.57c-3.32-5.72-3.1-10.85,1.68-15.84c2.78-2.9,5.29-6.19,6.95-11.03
		c-7.52,3.98-14.21,7.53-20.9,11.08c-2.34,1.24-4.68,2.49-7.01,3.76c-1.33,0.72-2.57,0.55-3.71-0.36c-1.35-1.08-0.89-2.37-0.3-3.61
		c1.57-3.3,3.01-6.68,4.78-9.86c6.31-11.31,12.13-22.88,18.91-33.93c3.18-5.17,3.32-7.25-1.31-11.24c-6.04-5.2-6.3-10.66-2.87-17.11
		c1.09-2.06,2.1-4.16,3.13-6.25c2.16-4.36,2.36-8.54-0.71-12.67c-1.89-2.53-3.5-5.27-5.18-7.95c-1.39-2.24-3.46-3.66-5.82-4.51
		c-5.29-1.91-8.88,0.61-8.81,6.07c0.02,1.83,0.06,3.7,0.45,5.47c1.01,4.55-0.97,7.67-4.43,10.24c-1.87,1.39-3.64,2.9-5.49,4.32
		c-1.41,1.08-2.35,2.46-2.28,4.23c0.21,5.34-2.5,9.87-3.97,14.74c-0.91,3.01-2.02,6.09-0.05,9.13c0.85,1.31,0.57,2.48-0.23,3.69
		c-1.19,1.8-2.2,3.74-3.5,5.46c-4.62,6.14-6.58,13.35-8.34,20.62c-0.87,3.58-3.45,6.04-6.31,5.55c-2.91-0.5-5.6-4.91-4.72-8.24
		c0.55-2.06,1.65-3.98,2.53-5.94c4.95-10.97,2.74-20.39-6.6-28.04c-2.32-1.9-4.66-3.68-7.33-5.14c-4.67-2.55-5.42-5.52-3.27-10.43
		c0.72-1.64,1.34-3.33,2.39-6c-5.6,1.56-10.29,2.81-14.95,4.18c-8.94,2.62-17.86,5.32-26.79,7.97c-1.12,0.33-2.25,0.64-3.4,0.83
		c-1.57,0.26-3.05-0.03-4-1.43c-0.96-1.41,0.1-2.56,0.78-3.64c2.74-4.42,6.72-7.78,10.16-11.59c11.36-12.58,22.59-25.28,34.76-37.1
		c0.85-0.83,1.8-1.75,1.49-3c-1.01-4.08-0.38-8.84-4.68-11.47c0.66-4.26,4.05-6.65,6.15-10.52c-5.22-4.59-7.47-12.18-14.98-15.21
		c-2.11,2.76-1.91,6.08-2.65,9c-1.16,4.58-4.3,6.99-8.28,7.46c-3.71,0.44-6.13,2.13-8.43,4.57c-0.91,0.97-1.64,2.15-2.67,2.95
		c-4.38,3.43-5.31,7.58-3.21,12.69c1.19,2.89,0.75,5.77-0.57,8.7c-1.05,2.33-2.45,3.75-4.87,4.53c-9.39,3.02-15.74,9.55-19.96,18.19
		c-1.55,3.17-1.57,6.9-1.06,10.3c0.99,6.59-4.3,9.25-7.66,13.03c-1.28,1.44-3.59-0.27-3.2-2.65c0.63-3.82,0.08-7.69,0.72-11.45
		c0.71-4.22-0.15-8.02-2.66-11.33c-2.01-2.66-1.77-4.7,0.64-6.9c2.26-2.08,5.39-3.4,5.94-7.05c0.8-5.27-0.96-10.23-1.66-15.31
		c-0.21-1.53-1.86-2.18-3.3-2.76c-1.48-0.59-3.37-0.62-4.05-2.5c0-0.2-0.04-0.37,0.01-0.53c0.56-1.99,3.46-3.55,1.99-5.75
		c-1.67-2.52-4.67-1.25-6.96-0.84c-11.94,2.12-23.9,4.19-35.68,7.11c-0.81,0.2-1.59,0.54-2.41,0.63c-2.4,0.26-5.34,1.43-6.52-1.77
		c-1.05-2.86,1.39-4.62,3.29-6.04c9.18-6.85,18.5-13.52,27.75-20.28c9.12-6.67,18.52-13.02,27.21-20.21
		c4.46-3.69,6.23-9.57,7.07-15.41c0.09-0.61-0.06-1.49-0.45-1.89c-3.26-3.35-3.1-7.94-4.38-11.9c-2.78-1.93-5.53-1.96-8.57-0.78
		c-2.31,0.9-4.8,1.49-7.26,1.79c-5.91,0.73-11.13,2.68-15.79,6.61c-2.85,2.4-6.95,3.01-10.42,2.28c-4.6-0.97-9.29-0.66-13.85-1.75
		c-4.04-0.96-7.58,0.22-10.06,3.81c-0.85,1.23-1.73,2.44-2.68,3.6c-1.84,2.26-4.01,3.79-7.13,4.07c-5.33,0.47-9.39,2.97-13.2,7.03
		c-6.59,7.03-12.96,14.27-19.29,21.51c-5.36,6.14-10.73,6.29-16.9,1.45c0-1,0-2,0-3c10.21-5.9,18.33-14.16,25.94-22.98
		c3.25-3.77,5.85-8.14,9.79-11.27c2.61-2.07,4.3-4.6,5.13-7.75c1.04-3.96,3.07-7.3,5.92-10.23c3.68-3.8,8.61-6.35,11.14-11.31
		c0.31-0.62,1.36-1.18,2.09-1.21c3.08-0.12,5.6-2.14,8.61-2.41c5.72-0.53,10.42-3.2,14.59-6.97c1.61-1.45,3.52-2.48,5.29-3.7
		c4.59-3.14,9.06-6.19,10.18-12.61c1-5.76,3.82-10.99,9.73-13.68c1.4-0.64,2.19-2.07,2.77-3.45c1.67-3.95,3.72-7.86,4.94-11.85
		c1.22-4,3.47-6.27,6.83-7.05c9.92-2.31,17.84-7.99,25.63-14.05c2.35-1.82,4.7-2.45,7.86-1.81c6,1.21,12.18,2.19,17.43-2.67
		c1.17-1.08,2.87-1.76,4.44-2.2c4.32-1.19,7.88-3.5,10.95-6.67c1.95-2.01,4.28-2.94,7.11-3.12c9.96-0.64,19.53,0.69,28.52,5.24
		c1.91,0.97,4.09,1.11,5.85,0.49c6.87-2.41,14.08-4.55,18.52-10.97c3.5-5.08,9.4-6.68,13.92-10.24c0.94-0.74,2.29-0.06,3.42-0.2
		c3.45-0.42,6.98,0.37,10.37-0.94c3.8-1.48,7.66-2.81,11.47-4.19c2.48,6.21,2.23,8.03-1.86,9.13c-5.43,1.46-10.05,4.41-14.74,7.21
		c-6.17,3.69-8.55,10.4-12.04,16.16c-1.98,3.26-0.57,6.77,0.21,10.2c0.93,4.09,0.64,7.77-3.56,10.38c-2.94,1.83-4.98,4.75-6.74,7.44
		c0.58,2.69,3.63,2.12,4.46,4.41c-1.5,2.87,0.01,6-0.12,9.13c-0.14,3.41,1.48,6.38,4.21,8.06c4.5,2.78,8.41,6.51,13.64,8.19
		c3.97,1.28,5.53,4.25,5.12,8.48c-0.34,3.52-0.07,7,0.59,10.45c0.69,3.61-0.29,6.66-3.11,8.89c-3.73,2.97-4.35,6.75-3.74,11.15
		c0.5,3.64,1.69,7.15,2.15,10.76c0.32,2.49,1.28,4.06,3,5.89c3.13,3.32,7.2,5.99,8.8,10.57c1.18,3.38,3.47,5.51,6.64,7.02
		c2.38,1.14,5.06,2.55,5.47,5.37c0.42,2.87,1.69,5.38,2.42,8.1c1.29,4.79,2.94,5.78,8.64,5.64c1.5-4.94,2.75-10.16,6.59-14.12
		c6.12-6.3,11.97-12.84,19.59-17.53c4.07-2.5,8.39-4.76,12.1-8.55c-2.42-6.67-3.33-13.77-4.09-20.83c-0.33-3.03-1.25-5.16-3.57-6.62
		c-4.63-2.93-9.03-6.25-14.26-8.15c-2.67-0.97-5.11-2.39-7.46-3.99c-4.53-3.09-9.13-6.09-13.68-9.15c-3.41-2.29-6.47-4.99-9.16-8.02
		c3.29-4.1,7.29-6.8,11.34-9.45c11.71-7.66,23.92-14.4,36.89-19.71c5.47-2.24,9.41-5.15,12.22-11.15
		c5.7-12.16,15.96-20.65,27.27-27.72c1.33-0.83,2.58-1.5,4.02,0.31c-6.99,8.57-14.18,16.99-18.42,27.36
		c16.49-8.2,33.36-14.36,51.46-15.56c0.75-5.52-1.31-10.05-1.65-15.68c7.19,2.81,13.19,6.02,18.01,10.35
		c5.75,5.17,12.57,6.92,19.45,8.01c12.73,2.01,24.92,5.82,37.19,9.4c7.81,2.28,15.35,5.59,23.13,7.8
		c14.12,4.02,27.59,9.5,40.75,15.85c8.06,3.89,15.76,8.48,23.96,12.14c2.64,1.18,6.74,1.62,7.39,6.22
		c-3.35,2.05-6.75,4.06-10.07,6.18c-10.28,6.56-21.45,11.34-32.6,16.09c-11.15,4.75-22.37,9.42-33.82,13.37
		c-11.8,4.06-10.41,3.06-11.17,14.69c-0.04,0.66,0.08,1.33,0.02,1.99c-0.33,3.7,1.21,5.74,4.96,6.57c5.07,1.11,9.59,3.45,13.97,6.39
		c10.48,7.03,19.24,15.88,27.51,25.23c6.76,7.65,11.83,16.42,15.57,25.95c1.44,3.67,1.44,6.85-0.91,10.34
		c-2.18,3.24-4.98,6.06-7.4,10.13c9.27-2.43,17.59-5.02,22.52-13.09c2.73-4.48,6.86-5.97,11.5-7.02c3.84-0.87,7.46,1.22,10.91,1.14
		c9.56-0.21,19.42-0.76,25.38-10.48c2.34-3.82,5.47-7.14,8.02-10.84c2.7-3.94,4.37-8.65,8.22-11.73
		c7.94-6.35,13.04-14.37,15.35-24.28c1.56-6.72,5.17-12.95,4.03-20.31c-0.58-3.69,3.7-9.06,6.78-9.15
		c8.56-0.25,15.2-5.23,22.59-8.57c8.6-3.88,10.58-11.23,13.22-19.1c1.96-5.85,1.91-10.56-1.42-15.5c-1.11-1.65-2.11-3.39-3.06-5.14
		c-6.46-11.82-17.76-16.39-29.8-19.68c-2.27-0.62-4.42-1.17-6.42-2.47c-3.42-2.22-6.45-5.27-10.87-5.05
		c-0.53-8.99,4.27-12.92,11.43-9.16c5.94,3.12,12,5.74,18.41,7.5c8.97,2.47,17.74,5.67,26.99,7.11c3.77,0.59,7.61,1.22,10.89,3.38
		c2.7,1.79,5.47,2.1,8.56,1.31c1.92-0.49,3.96-0.51,5.92-0.9c3.26-0.65,6.88-0.81,9.37-3.1c3.32-3.06,6.87-3.64,11.06-2.88
		c1.94,0.35,4,0.39,5.97,0.24c3.74-0.29,6.42,1.11,8.36,4.28c3.37,5.54,8.44,9.41,13.6,13.03c2.65,1.86,4.22,3.87,5.1,6.94
		c2.62,9.23,13.61,14.66,22.85,11.45c2.42-0.84,4.62-0.91,7.23-0.21c9.96,2.67,19.87,5.69,30.07,7.18c7.3,1.07,14,2.49,20.27,7.03
		c3.99,2.89,5.89,5.68,6.31,10.36c0.85,9.43,4.12,18.2,9.53,25.88c7.53,10.69,19.34,18.31,22.77,31.95c0.15,0.6,0.77,1.07,1.17,1.61
		c6.72,9.07,14.73,16.66,25.05,21.55c1.31,0.62,1.91,1.67,2.53,2.91c3.56,7.07,9.32,12.5,14.09,18.67c0.61,0.79,1.35,1.51,2.54,1.14
		C950,208.81,950,210.81,950,212.81z M575.36,712.89c0.88-0.46,1.28-0.54,1.42-0.77c0.43-0.7,0.78-1.45,1.12-2.21
		c4.12-9.41,5.57-19.18,5.35-29.5c-0.14-6.59-4.41-9.17-8.82-13.68C572.15,682.91,571.35,697.76,575.36,712.89z M326.88,673.52
		c7.9-2.17,13.35-5.83,12.98-14.66c-0.07-1.6,0.68-3.23,0.99-4.85c0.84-4.34,1.51-8.7,0.84-13.13c-2.04-0.27-3.31,1.2-4.96,1.33
		c-3.48,0.28-4.92,2.48-6.02,5.59C327.82,656.02,326.35,664.39,326.88,673.52z"/>
</g>
</svg>
