<?xml version="1.0" encoding="utf-8"?>
<!-- Generator: Adobe Illustrator 24.0.2, SVG Export Plug-In . SVG Version: 6.00 Build 0)  -->
<svg version="1.1" id="Layer_1" xmlns="http://www.w3.org/2000/svg" xmlns:xlink="http://www.w3.org/1999/xlink" x="0px" y="0px"
	 viewBox="0 0 860.5 786.62" style="enable-background:new 0 0 860.5 786.62;" xml:space="preserve">
<g>
	<path d="M720.59,266.92c3.82,7.81,9.42,13.66,15.2,19.41c5.42,5.39,10.85,10.78,15.1,17.24c3.41,5.18,4.82,10.92,5.26,16.95
		c0.54,7.45,1.01,14.91,1.14,22.39c0.15,8.53-0.47,16.93-2.6,25.17c-1.64,6.36-5.86,11.24-10.59,15.41
		c-3.02,2.66-3.46,5.64-2.75,8.8c1.95,8.62,0.62,17.26,0.54,25.87c-0.07,7.77-0.99,15.53-1.85,23.28c-0.67,5.99-2.55,11.7-3.3,17.67
		c-0.45,3.61,0.46,6.61,2.28,9.43c2.16,3.35,4.47,6.62,6.95,9.75c3.48,4.38,5.27,9.3,4.88,14.83c-0.8,11.27-1.68,22.54-2.79,33.79
		c-1.03,10.4-5.8,19.37-12.07,27.43c-9.84,12.65-20.69,24.37-33.98,33.56c-1.01,0.7-1.79,1.31-1.99,2.63
		c-1.98,13.2-9.01,24.15-15.81,35.19c-0.87,1.41-1.86,2.67-2.02,4.47c-0.62,6.79-0.83,13.68-2.21,20.32
		c-1.87,9.03-4.25,17.68-11.76,24.57c-7.31,6.7-15.29,12.21-23.34,17.79c-13.1,9.08-26.28,18.05-39.01,27.66
		c-2.28,1.72-5.03,2.49-7.59,3.68c-6.91,3.2-13.66,6.76-20.92,9.18c-0.63,0.21-1.23,0.74-1.84,0.72
		c-10.85-0.25-21.05,4.39-32.13,3.62c-7.69-0.54-15.55-0.69-23.34-0.5c-1.61,0.04-2.88,0.46-4.14,1.37
		c-7.66,5.48-16.28,9.08-25.09,12.12c-5.02,1.73-9.83,4.06-15.07,5.2c-2.65,0.58-4.63,2.19-6.53,4.27
		c-6.47,7.08-14.56,11.24-24.11,12.7c-8.38,1.28-16.5,3.63-24.53,6.4c-7.07,2.44-14.2,5-21.52,6.36c-7.82,1.46-15.87,1.16-23.83-0.1
		c-8.76-1.39-17.64-1.37-26.4-0.51c-9.19,0.9-17.45-0.59-25.12-5.82c-4.68-3.19-10.03-5.14-15.3-7.13
		c-4.39-1.66-8.34-4.18-12.45-6.35c-14.29-7.57-27.35-17.04-40.66-26.16c-10.27-7.04-19.61-15.55-31.23-20.52
		c-8.46-3.61-17.18-6.34-26.39-7.03c-3.56-0.27-7.02-0.99-10.11-2.53c-7.28-3.63-14.52-7.27-20.55-13.06
		c-5.26-5.05-10.99-9.63-16.72-14.2c-12.09-9.64-22.41-20.63-27.76-35.74c-4.66-13.17-10.19-26.03-14.25-39.43
		c-1.36-4.5-2.38-8.96-2.24-13.72c0.24-7.81-0.01-15.61,1.23-23.41c0.68-4.25-2.05-8.25-3.22-12.36c-0.41-1.43-1.47-2.73-1.64-4.16
		c-0.71-6.03-4.66-9.75-9.09-13.08c-7.18-5.4-11.6-13.24-17.66-19.61c-9.7-10.2-12.18-23.23-15.26-36.21
		c-2.83-11.97-3.98-24.2-6.42-36.22c-0.38-1.89-0.47-3.57,0.69-5.23c3.16-4.5,5.08-9.77,8.61-14.03c5.92-7.13,8.09-15.59,8.45-24.57
		c0.15-3.86,0.38-7.75,1.45-11.36c3.97-13.3,4.13-27.25,7.16-40.72c0.86-3.83-0.39-8.58-2.33-12.42
		c-4.16-8.26-4.83-17.22-5.89-26.13c-0.08-0.66,0.15-1.36,0-1.99c-2.76-11.86,3.82-20.01,11.23-27.67c4.35-4.5,8.07-9.43,9.93-15.32
		c1.64-5.21,0.6-10.7-1.96-15.43c-2.55-4.72-5.02-9.66-6.31-14.61c-3.64-13.96-11.96-25.81-16.53-39.34
		c-2.86-8.46-7.49-16.31-11.26-24.47c-3.7-8-6.9-16.19-9.7-24.54c-3.81-11.36-7.64-22.71-11.54-34.04
		c-4.54-13.21-8.88-26.47-12.97-39.83c-2.72-8.91-5.69-17.75-8.93-26.49c-3.53-9.53-6.48-19.22-9.19-29
		c-0.98-3.55-2.76-6.75-3.86-10.23c-0.35-1.1-0.88-2.12-0.99-3.32C-0.41,1.76,1.16,0.05,7.01,0c2.95-0.02,5.45,0.06,8.09,2.39
		c2.36,2.08,5.68,3.53,9.6,3.27c3.62-0.24,6.79,2.51,9.88,4.33c5.35,3.14,10.95,5.53,16.8,7.52c4.44,1.51,8.23,4.41,12.09,6.95
		c8.84,5.83,19.1,8.63,28.19,13.82c11.01,6.29,22.64,11.16,34.4,15.79c2.44,0.96,4.56,2.72,6.8,4.15
		c7.75,4.95,16.39,8.13,24.75,11.72c16,6.85,31.59,14.63,44.89,25.68c8.9,7.39,18.83,13.01,27.91,19.97
		c4.4,3.37,10.58,3.32,15.09,0.07c11.37-8.2,23.52-14.98,35.95-21.45c5.86-3.05,11.29-6.74,17.82-8.45
		c3.92-1.03,7.92-1.2,11.85-1.41c8.13-0.44,16.27-0.89,24.45-0.84c7.61,0.05,15.25-1.05,22.84-1.96c10.73-1.29,21.4-3.05,32.13-4.28
		c6.92-0.79,13.56,1.12,20.06,3.3c7.56,2.54,14.52,6.67,22.36,8.48c6.24,7.13,15.49,4.47,23.15,7.04
		c5.81,1.95,12.02,2.68,17.74,4.97c2.15,0.86,4.17,1.06,6.32,0.54c9.98-2.43,20.07-2.41,30.25-1.71c4.94,0.34,9.94-0.18,14.93-0.17
		c19.95,0.03,38.42,5.48,56.14,14.11c3.11,1.51,6.53,2.29,9.27,4.73c1.58,1.4,3.87,0.56,5.72-0.27c8.34-3.73,16.93-6.87,25.35-10.39
		c10.68-4.47,21.9-6.83,32.86-10.2c12.05-3.71,23.87-8.15,35.87-12.03c15.17-4.9,30.21-10.22,45.84-13.59
		c11.37-2.45,22.24-6.13,32.74-11.47c8.56-4.35,18.36-5.69,27.98-6.7c7.8-0.81,15.52-2.42,22.88-4.76
		c9.69-3.08,19.65-4.91,29.36-7.8c7-2.08,11.98,3.34,11.05,10.8c-0.95,7.61-4.45,14.01-9.25,19.53
		c-7.93,9.12-13.88,19.51-19.98,29.78c-3.61,6.08-8.74,10.9-12.42,16.87c-2.44,3.97-4.96,7.87-6.96,12.08
		c-4.17,8.79-10.39,16.26-15.89,24.16c-10.27,14.76-20.3,29.66-29.38,45.19c-2.02,3.46-4.95,6.24-7.32,9.47
		c-8.27,11.27-16.94,22.29-24.02,34.35C730.55,251.47,725.26,258.91,720.59,266.92z"/>
</g>
</svg>
