<?xml version="1.0" encoding="utf-8"?>
<!-- Generator: Adobe Illustrator 24.0.2, SVG Export Plug-In . SVG Version: 6.00 Build 0)  -->
<svg version="1.1" id="Layer_1" xmlns="http://www.w3.org/2000/svg" xmlns:xlink="http://www.w3.org/1999/xlink" x="0px" y="0px"
	 viewBox="0 0 595.17 861.07" style="enable-background:new 0 0 595.17 861.07;" xml:space="preserve">
<g>
	<path d="M140.99,694.92c1.63-7.43,3.06-14.06,4.54-20.68c0.59-2.65-0.11-4.24-3.1-4.27c-3.8-0.03-7.48-1.76-11.71-0.44
		c-2.14-8.03,2.91-14.72,3.06-22.4c-10.27-6.27-11.37-16.93-12.06-27.68c-0.93-14.3,3.35-27.58,7.96-40.86
		c2.99-8.62,7.39-16.34,12.78-23.59c2.3-3.09,4.94-5.85,8.31-7.83c4.65-2.75,6.81-2.43,10.56,1.39c1.75,1.79,2.91,4,4.31,5.94
		c3.19-0.08,3.43-2.75,4.13-4.53c3.04-7.74,6.18-15.43,9.79-23.07c-1.73-1.97-4.04-2.18-6.3-2.5c-5-0.73-5.25-1.19-3.14-6
		c1.8-4.1,3.63-8.19,5.46-12.28c0.79-1.75,1.24-3.41-0.25-5.09c-5.31-6.01-6.47-13.75-6.36-21.01c0.19-12.73,1.22-25.64,7.29-37.3
		c3.92-7.52,8.09-14.97,15.14-20.21c4.95-3.68,7.87-3.5,12.11,0.97c1.13,1.19,2.04,2.62,2.9,4.03c0.86,1.39,1.13,3.16,3.39,4.41
		c4.08-4.68,7.14-9.98,9.56-15.94c-3.26-1.83-6.15-0.92-8.86-1.29c-4.43-0.61-5.48-2.13-3.55-6.25c1.41-3,3.13-5.86,4.74-8.77
		c3.35-6.09,6.72-12.16,10.41-18.84c-2.53,0.12-3.84,1.38-5.2,2.36c-1.9,1.37-3.85,2.58-6.08,3.38c-4.96,1.78-8.19,0.5-10.62-4.21
		c-1.5-2.91-1.82-6-1.97-9.19c-0.09-1.8,0.33-3.66-0.42-5.46c-1.94-0.73-3.08,0.84-4.43,1.62c-8.8,5.07-16.86,11.35-26.08,15.72
		c-11.01,5.21-22.39,9.26-34.27,12.11c-10.49,2.51-20.76,5.94-31.15,8.88c-2.66,0.75-3.29,2.49-3.98,4.99
		c-3.35,12.14-6.39,24.49-15.43,34.07c-3.6,3.81-7.48,6.07-13.97,1.61c-7.14-4.9-11.11-11.74-13.83-19.6
		c-0.65-1.88-1.24-3.79-1.92-5.67c-1.15-3.2-3.24-4.43-6-2.74c-8.11,4.97-16.83,8.68-25.29,12.9c-5.2,2.6-10.28,5.43-15.42,8.15
		c-1.88,0.99-3.77,1.11-5.54,0.05c-0.96-1.47-0.3-2.66,0.2-3.91c5.7-14.07,15.25-25.27,26.25-35.42
		c5.08-4.69,10.78-8.41,17.27-10.73c4.32-1.54,5.98-4.21,6.68-8.78c1.98-12.96,6.68-24.99,14.79-35.43
		c6.89-8.86,16.71-7.82,22.43,2.66c3.97,7.27,7.03,15.03,8.19,23.37c0.56,4,1.79,4.83,5.7,3.9c18.76-4.44,37.55-8.74,56.25-13.4
		c9.22-2.3,18.03-5.94,26.37-10.51c4.79-2.63,10.02-4.41,14.44-7.83c2.19-1.7,4.04-3.38,4.99-5.97c2.25-6.13,5.18-11.94,8.87-17.29
		c6.33-9.15,14.13-16.76,24.53-21.23c6.11-2.62,10.8-0.22,12.81,6.59c0.9,3.02,1.62,6.11,1.36,9.35c-0.14,1.78-0.34,3.7,1.31,5.27
		c3.13-0.49,4.87-3.22,7.21-4.92c4.19-3.05,8.38-6.01,13.23-7.93c2.87-1.13,5.14-2.93,6.86-5.56c1.73-2.64,3.63-5.18,5.62-7.63
		c2.56-3.15,2.91-7.05,3.7-10.73c0.57-2.63-1.16-4.56-3.82-4.92c-6.78-0.92-13.25-3.2-19.97-4.38
		c-14.93-2.63-29.08-7.67-41.36-16.52c-5.65-4.07-12.03-7.86-15.26-14.23c-2-0.25-2.36,1.07-3.09,1.91
		c-6.24,7.21-13.71,13.13-20.75,19.5c-15.65,14.17-33.25,25.54-51.84,35.42c-5.43,2.88-11.23,5.06-16.81,7.66
		c-2.46,1.15-4.49,0.71-6.34-1.12c-2.01-1.99-4.12-3.89-6.03-5.97c-3.92-4.25-4.17-6.7-0.74-11.45
		c8.4-11.64,17.57-22.64,28.07-32.47c10.48-9.81,21.74-18.66,33.71-26.58c7.52-4.97,15.55-9.01,23.76-12.71
		c0.89-0.4,1.96-0.56,2.55-1.98c-0.5-1.38-1.09-3.02-1.69-4.67c-9.28,1.28-17.72,5.01-26.6,7.1c-13.14,3.09-26.39,5.58-39.68,7.82
		c-13.12,2.22-26.25,4.42-39.52,5.69c-8.8,0.84-17.6,1.19-26.42,1.3c-3.4,0.04-5.39-1.8-6.58-4.42c-1.23-2.7-0.74-5.86-1.62-8.77
		c-0.56-1.85,1.71-2.57,3.11-3.38c10.25-5.97,21.24-10.17,32.45-13.99c21.69-7.39,44.17-11.05,66.65-14.78
		c10.66-1.77,21.48-1.93,32.43-3.21c0.47-3.02,0.92-5.91,1.46-9.37c-5.12-0.57-9.9,0.08-14.63-0.39
		c-16.26-1.64-32.35-4.16-48.15-8.38c-12.37-3.3-24.64-6.97-36.54-11.71c-11.29-4.49-22.27-9.72-32.81-15.77
		c-7.85-4.5-9.79-13.35-4.98-21.1c1.56-2.52,4.22-2.71,6.62-2.62c6.99,0.27,14.01,0.5,20.92,1.46c17.46,2.42,34.72,6.11,51.87,10.08
		c19.59,4.53,38.82,10.46,57.44,18.21c3.21,1.34,6.54,2.39,10.01,3.64c1.77-1.89,3.13-3.83,3.49-6.64
		c-7.7-2.36-15.54-3.62-23.1-6.15c-16.07-5.37-30.96-12.93-45.18-21.99c-20.47-13.06-38.59-28.94-55.51-46.25
		c-3.47-3.55-6.53-7.4-8.87-11.96c-3.39-6.61-0.67-11.8,3.24-16.41c3.79-4.46,9.28-6.27,14.97-4.2
		c14.83,5.39,29.66,10.75,44.09,17.22c18.86,8.47,35.08,21,51.97,32.53c12.58,8.58,23.25,19.39,34.86,29.1
		c4.62,3.86,4.75,3.72,9.15,0c12.97-10.95,27.47-19.29,43.38-25.2c4.67-1.73,9.4-3.28,14.11-4.91c0.93-1,0.7-2.16,0.45-3.3
		c-2.8-13.13-0.7-25.8,3.88-38.15c2.13-5.75,4.62-11.4,7.38-16.88c4.57-9.07,11.1-16.58,19.43-22.43c6.69-4.7,12.44-3.77,17.28,2.78
		c4.93,6.67,8.13,14.1,9.15,22.38c0.1,0.84,0.16,1.66,1.48,2.19c4.43-4.73,7.91-10.35,11.68-15.74c1.05-1.5,1.94-3.11,2.94-4.64
		c0.66-1,1.42-1.94,2.83-1.5c1.27,0.4,1.88,1.45,1.9,2.66c0.02,1.82-0.1,3.66-0.33,5.47c-0.82,6.45-1.39,12.91-1.58,19.4
		c-0.04,1.3-0.33,2.64,0.29,3.83c1.59,0.77,2.2-0.53,2.99-1.25c3.7-3.35,6.95-7.18,10.95-10.23c7.98-6.07,17.01-9.57,26.82-11.36
		c5.51-1.01,9.4,1.5,12.54,5.47c6.73,8.5,10.19,18.23,10.34,29.11c0.09,6.79,0.91,13.57-0.14,20.22c1.84,0.63,2.55-0.46,3.45-1.14
		c19.7-14.91,40.43-28.28,62.34-39.59c15.03-7.76,30.64-14.43,47.29-18.51c5.77-1.41,11.46-1.52,17.18-2.28c0.33-0.04,0.67-0.03,1,0
		c8.43,0.56,15.86,15,11.25,22.03c-5.72,8.73-13.13,15.88-21.24,22.38c-20.31,16.28-42.22,30.27-64.32,43.87
		c-16.58,10.2-33.79,19.37-51.64,27.27c-9.85,4.36-19.46,9.26-29.26,13.96c0.53,3.57,1.99,5.06,5.72,4.53
		c8.74-1.26,17.4-2.97,26.06-4.65c14.4-2.8,28.95-4.26,43.51-5.84c12.91-1.4,25.73-3.63,38.65-4.84
		c10.26-0.96,20.45-2.87,30.83-2.72c3.3,0.05,6.61-0.77,9.92-1.01c7.64-0.56,15.27,0.27,22.92,0.25c3.66-0.01,7.33,0.13,10.99,0.15
		c2.8,0.01,4.91,1.21,5.97,3.74c3.96,9.45,3.37,17.82-6.4,23.16c-5.57,3.04-11.68,4.84-17.74,6.64c-8.75,2.6-17.44,5.46-26.43,7.17
		c-8.49,1.62-16.97,3.26-25.51,4.61c-14.62,2.31-29.26,4.41-43.9,6.54c-5.23,0.76-10.57,1.05-15.79,1.19
		c-14.78,0.4-29.48,2.91-44.31,1.75c-0.81-0.06-1.66-0.12-2.52,0.84c0.35,2.43,2.07,3.18,4.43,3.4c13.42,1.26,26.41,5.13,39.68,6.87
		c15.48,2.03,30.09,7.02,44.96,11.06c18.14,4.93,35.78,11.4,52.59,20.02c7.44,3.81,14.77,7.68,21.26,12.99
		c5.98,4.89,5.01,14.81-1.63,18.89c-3.82,2.35-8.08,3.18-12.29,3.88c-14.03,2.33-28.11,2.61-42.3,1.06
		c-12.73-1.4-25.54-1.96-38.18-4.28c-12.73-2.33-25.57-4.11-37.53-9.54c-2.66-1.21-5.81-0.96-8.5-2.31
		c-0.5,1.63,0.33,2.02,1.01,2.36c16.17,8.07,30.54,18.83,44.96,29.59c11.16,8.33,21.18,17.77,30.19,28.3
		c6.26,7.32,12.81,14.42,17.54,22.97c1.98,3.59,1.84,6.47-0.35,9.7c-6.91,10.19-8.37,10.47-20.62,7.89
		c-13.42-2.83-26.1-7.72-38.85-12.54c-8.61-3.25-16.46-8.06-24.79-11.69c-16.76-7.3-30.3-19.18-44.8-29.65
		c-11.61-8.39-22.1-18.21-31.05-29.53c-4.18-5.28-4.38-5.52-9.98-2.23c-10.39,6.1-21.34,10.85-32.69,14.75
		c-3.92,1.35-7.99,2.27-11.99,3.38c-4.6,1.27-6.63,3.63-5.97,8.29c0.95,6.74,1.02,13.63,3.2,20.19c0.86,2.58,1.7,4.79,4.84,5.71
		c3.19,0.93,4.53,3.82,4.66,7.04c0.1,2.32,0.25,4.75-0.3,6.97c-1.48,5.98-0.03,11.29,2.31,16.8c7.07,16.69,14.41,33.27,21.96,49.75
		c0.69,1.5,1.11,3.13,1.61,4.72c1.86,5.85,1.37,6.8-4.75,8.19c-3.56,0.81-7.23,1.17-10.81,1.93c-4.04,0.86-4.51,2.19-2.74,5.85
		c10.95,22.57,21.55,45.31,31.44,68.37c3.73,8.7,7.58,17.38,10.28,26.49c0.23,0.78,0.63,1.56,0.14,2.76
		c-5.43,2.68-12.05,2.08-18.2,4.65c23.38,43.41,48.6,85.4,69.65,130c-1.02,2.53-3.89,2.86-6.35,3.55c-4,1.13-8.09,1.96-12.16,2.83
		c-4.72,1.02-5.39,2.67-3.14,6.96c8.5,16.23,18.61,31.5,27.93,47.25c7.45,12.59,16.05,24.55,22.04,37.95
		c4.7,10.49,10.03,20.64,15.49,30.71c3.56,6.56,7.6,12.87,11.23,19.42c6.3,11.4,10.83,23.55,15.78,35.52
		c1.77,4.27,1.24,5.29-3.05,7.44c-6.14,3.07-12.71,4.98-19.38,6.38c-25.76,5.42-51.75,9.51-77.87,12.66
		c-11.56,1.4-23.24,1.86-34.88,2.59c-17.25,1.07-34.5,2.16-51.76,2.92c-8.98,0.4-17.98-0.16-26.98,0
		c-18.62,0.32-37.24,0.82-55.87,0.54c-19.98-0.3-39.89-1.74-59.79-3.6c-10.96-1.02-21.81-2.43-32.31-5.86
		c-6.83-2.23-7.53-3.08-7.16-10.23c0.53-10.3-0.28-20.64,1.09-30.91c0.22-1.62-0.08-2.93-1.81-3.64
		c-9.86-4.02-13.03-12.91-15.23-22.05c-1.78-7.41-2.25-15.05-2.41-22.76c-0.32-16.36,3.24-31.71,10.11-46.37
		c2.83-6.04,6.71-11.42,11.53-16.15C128.58,694.7,133.5,691.1,140.99,694.92z"/>
</g>
</svg>
