<?xml version="1.0" encoding="utf-8"?>
<!-- Generator: Adobe Illustrator 24.0.2, SVG Export Plug-In . SVG Version: 6.00 Build 0)  -->
<svg version="1.1" id="Layer_1" xmlns="http://www.w3.org/2000/svg" xmlns:xlink="http://www.w3.org/1999/xlink" x="0px" y="0px"
	 width="701.33" height="831.33" viewBox="0 0 701.33 831.33" style="enable-background:new 0 0 701.33 831.33;" xml:space="preserve">
<g>
	<path d="M140.53,179.83c-9.15-4.69-16.2-11.13-23.14-17.83c-12.45-12.01-17.14-27.31-19.65-43.69c-1.14-7.42-1.68-14.82-0.83-22.35
		c2.41-21.53,9.31-41.42,23.73-57.69c15.63-17.63,35.03-29.44,58.89-32.98c6.43-0.95,12.79-1.97,19.32-1.81
		c13.27,0.32,25.18,4.79,35.63,12.57c10.58,7.88,19.14,17.67,22.53,30.91c4.03,15.78,2.17,30.29-9.46,42.75
		c-3.91,4.19-7.93,8.04-13.17,10.49c-1.85,0.86-3.66,1.59-5.66,0.6c-1.3-1.38-0.48-2.89-0.33-4.31c0.68-6.15-0.45-11.95-3.39-17.35
		c-2.9-5.32-5.87-6.17-11.43-3.68c-12.16,5.45-20.87,14.51-27.75,25.73c-5.75,9.38-9.75,19.32-10.62,30.3
		c-0.42,5.26-0.12,10.61,1.53,16.07c5-1.47,9.69-3.02,14.47-4.21c10.88-2.69,21.69-2.48,32.57,0.52
		c13.33,3.67,25.02,10.34,36.66,17.61c15.2,9.49,29.12,21.1,45.7,28.34c9.44,4.12,18.93,8.02,29.43,8.7
		c15.15,0.99,27.51-4.81,38.04-15.22c9.04-8.93,16.84-18.81,23.72-29.51c5.31-8.26,11.99-15.55,18.37-23.02
		c12.44-14.57,25.37-28.65,40.73-40.24c5.45-4.11,11.25-7.87,17.41-10.73c5.21-2.42,7.08-6.54,8.65-11.38
		c7.41-22.83,17.64-44.12,34.19-61.9c1.47-1.58,3.09-3.04,4.79-4.37c4.32-3.41,6.63-2.85,8.55,2.28c1.56,4.18,3,8.44,4.1,12.77
		c2.51,9.81,6.33,19.3,7.24,29.5c0.25,2.84,2.03,3.77,4.53,3.15c7.75-1.9,15.74-2.7,23.34-5.3c6.98-2.38,14.32-3.03,21.58-3.87
		c24.85-2.88,49.48-1.86,73.92,3.96c9.23,2.2,18.45,4.27,27.15,8.09c3.45,1.51,6.93,3.17,9.45,6.35c-1.37,2.61-3.55,3.65-5.95,4.49
		c-14.59,5.1-29.48,9.36-43.6,15.82c-12.41,5.68-24.87,11.26-36.79,17.94c-0.71,0.4-1.53,0.72-1.75,1.83
		c10.23,3.25,20.4,6.69,30.03,11.55c14.96,7.55,28.57,17.02,40.6,28.7c4.45,4.32,8.02,9.34,10.99,14.77c0.4,0.72,0.77,1.5,0.96,2.29
		c0.96,3.98-0.88,5.88-4.81,4.68c-6.2-1.9-12.51-3.63-18.4-6.28c-4.28-1.93-8.75-1.86-13.09-2.9c-16.19-3.89-32.6-4.22-49.13-2.74
		c-22.02,1.96-42.05,9.88-60.92,20.8c-12.97,7.5-25,16.54-36.89,25.63c-14.27,10.91-29.97,18.4-47.44,22.32
		c-10.74,2.41-21.69,3.32-32.59,4.64c-15.22,1.84-30.13,4.94-44.26,11.14c-11.73,5.14-23.64,10.06-36.28,12.14
		c-16.41,2.7-33,3.99-49.61,1.21c-1.59-0.27-3.16-1.16-5.09,0.12c1.43,2.67,4.16,3.74,6.52,4.88c11.7,5.65,23.82,10.17,36.63,12.68
		c2.09,0.41,4.09,1.37,6.1,2.14c12.61,4.81,24.89,10.21,35.66,18.62c9.37,7.32,15.43,16.93,19.76,27.7
		c3.67,9.12,5.85,18.69,6.96,28.47c0.74,6.48-0.67,13.64-3.38,17.69c-0.76,0.19-1.39-0.18-1.67-0.77
		c-4.78-10.03-14.28-13.94-23.59-17.87c-2.99-1.26-6.47-1.75-9.5-2.9c-6.28-2.39-12.25-1.2-18.08,0.68
		c-11.54,3.72-23.21,5.66-35.35,4.89c-6.75-0.43-13.16-1.79-19.04-5.22c-1.02-0.59-2.05-1.09-3.2-1.11
		c-1.2,1.17-0.47,2.17,0.06,3.21c5.08,10.12,10.51,20.03,16.65,29.55c3.49,5.4,8.4,9.32,13.06,13.61
		c6.28,5.79,13.08,10.79,20.27,15.27c18.63,11.62,37.43,22.93,56.59,33.7c16.38,9.2,32.43,18.92,46.74,31.41
		c9.8,8.55,19.65,16.97,27.95,26.99c14.22,17.19,24.57,36.68,33.62,56.99c6.36,14.27,7.9,29.31,9.54,44.54
		c1.5,13.88-0.02,27.54-1.28,41.25c-0.61,6.63-1.95,13.18-3.63,19.62c-0.79,3.02-0.07,4.86,2.23,6.91
		c12.07,10.72,21.85,23.26,28.95,37.81c1.1,2.24,1.96,4.57,2.62,7c1.3,4.77,0.69,6.46-3.27,9.13c-12.96,8.73-27.2,14.58-42.2,18.66
		c-9.14,2.49-18.06,5.78-27.41,7.5c-1.25,0.23-2.1,0.97-2.84,1.88c-3.61,4.42-8.37,7.6-12.38,11.59
		c-7.42,7.37-16.67,12.04-25.47,17.42c-10.79,6.6-21.42,13.4-33.56,17.44c-12.47,4.14-25.12,7.37-38.01,10.04
		c-13.18,2.73-26.44,2.79-39.69,3.2c-7.58,0.23-15.22-1.1-22.82-1.83c-2.48-0.24-4.97-0.64-7.38-1.26
		c-6.12-1.57-9.86-0.04-13.6,5.86c-6.42,10.11-15.29,18.39-24.83,25.79c-1.76,1.37-3.25,1.22-4.96,0.02
		c-2.74-1.92-5.35-3.97-7.51-6.55c-18.92-22.6-38.39-44.72-57.65-67.03c-10-11.59-18.34-24.48-26.69-37.31
		c-9.13-14.02-15.57-29.31-21.26-44.96c-7.85-21.58-10.5-43.89-8.31-66.59c1.58-16.39,6.37-32.2,11.1-48
		c6.93-23.1,18.51-44.04,28.95-65.53c6.77-13.92,12.89-28.13,16.5-43.2c1.85-7.72,2.84-15.68,3.56-23.66
		c1.68-18.58-0.68-36.91-2.9-55.23c-0.9-7.39-3.02-14.65-5.66-21.69c-0.9-2.39-2.24-3.74-4.94-4.21c-3.42-0.6-6.64-2.1-9.76-3.68
		c-3.93-1.98-5.8-1.45-7.85,2.45c-0.92,1.75-1.52,3.67-2.26,5.52c-4.26,10.5-10.31,20.13-15.01,30.41
		c-6.08,13.28-10.3,27.1-9.54,41.91c0.27,5.22,1.16,10.46,3.19,15.43c2.26,5.54,4.97,10.83,7.79,16.11
		c5.32,9.96,7.73,20.67,9.03,31.92c2.41,20.79-3.65,39.47-12.67,57.55c-5.49,11.01-12.13,21.38-18.81,31.72
		c-8.11,12.57-12.88,26.53-16.65,40.94c-2.22,8.46-2.76,17.06-3.62,25.66c-0.47,4.67-0.29,9.29,1.14,13.81
		c0.41,1.3,0.76,2.67-0.76,3.52c-1.18,0.66-2.26,0.16-3.2-0.64c-2.02-1.74-4.09-3.39-5.77-5.5c-9.05-11.34-14.15-24.34-16.36-38.56
		c-0.81-5.2-1.6-10.41-2.49-16.26c-3.25,3.45-3.75,7.52-4.74,11.17c-4.43,16.21-5.73,32.82-4.17,49.49
		c0.9,9.6,3.69,18.95,7.71,27.82c0.75,1.66,1.59,3.35,1.94,5.12c0.83,4.14-1.28,5.98-5.34,4.79c-5.02-1.47-9.41-4.09-13.58-7.22
		c-5.77-4.33-10.74-9.43-15.32-14.96c-6.92-8.34-13.58-16.84-17.69-27.02c-0.38-0.95-0.87-1.77-1.57-2.51
		C6.29,632.08,0.09,616.3,0,597.97c-0.07-15.06,0.84-29.91,6.59-44.09c5.05-12.47,12.32-23.61,20.73-33.98
		c8.65-10.67,16.03-21.96,20.86-34.94c3.55-9.55,3.04-19.03,0.51-28.47c-3.34-12.44-5.59-24.98-5.95-37.88
		c-0.57-20.32,8.12-36.17,22.87-49.49c11.74-10.6,24.34-20.21,35.55-31.45c13.78-13.82,21.25-30.19,23.17-49.57
		c1.7-17.14,0.74-34.29,1.29-51.43C126.27,216.83,129.24,197.55,140.53,179.83z"/>
</g>
</svg>
