<?xml version="1.0" encoding="utf-8"?>
<!-- Generator: Adobe Illustrator 24.0.2, SVG Export Plug-In . SVG Version: 6.00 Build 0)  -->
<svg version="1.1" id="Layer_1" xmlns="http://www.w3.org/2000/svg" xmlns:xlink="http://www.w3.org/1999/xlink" x="0px" y="0px"
	 viewBox="0 0 877.14 638.55" style="enable-background:new 0 0 877.14 638.55;" xml:space="preserve">
<g>
	<path d="M38.19,444.77c3.3-5.94,6.46-11.33,10.22-16.64c-3.17-2.83-6.41-5.2-9.94-6.88c-7.16-3.39-11.21-9.06-13.34-16.41
		c-0.74-2.55-1.71-5.05-2.27-7.64c-0.88-4.08,1.12-6.69,5-5.78c8.47,1.98,17.31,3.18,22.08,12.51c1.77,3.46,4.21,7.12,7.61,10.11
		c2.85-3.01,5.57-5.88,8.5-8.98c-5.08-9.37-7.27-19.49-8.01-29.97c-0.09-1.32-0.12-2.67,0.06-3.98c0.62-4.7,0.93-5,5.58-6.16
		c-0.59-2.43-0.88-4.9-0.21-7.36c0.94-3.42,2.46-4.18,5.94-3.31c2.63,0.66,4.52,2.68,7.36,3.94c0.37-4.44,0.7-8.49,1.05-12.55
		c0.1-1.16,0.16-2.35,0.47-3.46c1.12-4.01,2.82-4.86,6.64-3.12c5.57,2.53,9.56,6.68,11.49,12.5c1.87,5.63,3.41,11.37,5.23,17.51
		c2.93-2.15,5.67-4.17,8.65-6.36c-1.35-3.29-2.52-6.34-3.84-9.32c-2.37-5.33-3.98-10.9-5.52-16.49c-0.21-0.78-0.33-1.71-0.11-2.46
		c1.89-6.36,3.73-12.75,5.88-19.02c0.85-2.48,3.24-2.62,5.68-0.54c2.94,2.5,4.91,5.85,7.24,8.87c5.46,7.07,6.61,15.4,7.11,23.92
		c0.15,2.46-0.19,4.97,0.64,7.69c7.05-2.4,14.21-1.52,21.3-1.62c2.51-0.04,4.3-0.74,4.96-3.17c2.43-9.03,9.32-12.54,17.5-15.05
		c4.12-1.26,8.1-1.58,12.27-1.38c8.35,0.41,11.99-4.48,9.38-12.36c-0.93-2.82-1.83-5.7-1.86-8.72c-0.04-3.78-1.72-6.34-5.38-7.49
		c-4.64-1.46-8.65-4.15-12.93-6.35c-3.77-1.94-5.46-4.68-5.6-8.65c-0.27-7.48-0.64-14.97-0.66-22.46
		c-0.02-5.59-0.42-11.16,0.31-16.78c0.66-5.06,1.77-7,6.65-8.61c1.9-0.62,3.77-1.32,5.65-2.01c5.71-2.1,6.93-6.2,3.26-11.25
		c-1.86-2.56-3.83-5.04-5.88-7.44c-4.22-4.94-7.08-10.81-11.05-15.91c-1.25-1.61-1.38-3.16-1.16-5.09
		c0.77-6.78,2.06-13.38,4.07-19.95c1.78-5.82,1.99-12.1,4.41-17.79c1.28-3.02,2.46-6.12,5.66-7.93c2.31-1.31,4.48-1.83,7.12-1.26
		c3.57,0.78,7.24,1.12,10.83,1.8c2.28,0.43,3.7-0.06,4.78-2.33c7.78-16.31,17.79-31.15,29.79-44.66c2.09-2.35,3.85-5,5.77-7.52
		c0.61-0.81,1.06-1.69,1.14-2.72c0.86-10.67,5.29-20.16,9.8-29.62c1.3-2.73,3.45-4.87,5.77-6.82c5.99-5.03,12.21-9.82,17.2-15.92
		c5.34-6.54,13.15-8.77,20.43-11.96c0.91-0.4,1.97-0.5,2.81-1c7.31-4.3,15.13-3.46,22.8-1.84c5.24,1.11,10.5,1.89,15.79,2.04
		c4.5,0.13,8.56,1.01,12.26,3.5c3.22,2.16,6.27,2.44,9.75,0.28c2.96-1.83,6.44-2.63,9.88-3.33c5.21-1.05,10.47-1.73,15.62-3.19
		c6.28-1.78,11.69,1.29,16.8,4.55c2.78,1.78,5.36,3.88,8.35,6.06c2.99-4.64,4.56-9.72,7.01-14.35c4.26-8.06,9.26-15.69,13.86-23.55
		c1.58-2.7,3.92-3.59,7.11-3.56c6.75,0.06,13.11,2.08,19.56,3.5c6.78,1.49,13.62,2.76,20.18,5.35c7.3,2.88,9.94,5.64,10.56,13.23
		c0.22,2.64,1.09,5.2,0.94,7.9c-0.14,2.47-0.03,4.95-0.03,7.51c2.6,1.14,5.19,0.47,7.5,0.27c6.1-0.53,11.13,1.74,15.74,5.11
		c2.19,1.61,3.77,1.51,5.78,0.06c2.57-1.84,5.18-3.62,7.82-5.36c2.34-1.54,4.19-1.44,6.4-0.06c8.17,5.11,16.29,10.29,22.9,17.42
		c2.95,3.18,5.94,6.29,9.12,9.24c5.11,4.73,5.43,6.94,2.32,13.03c-0.52,1.02-0.98,2.08-1.74,3.7c4.19,1.07,8.12,2.31,12.06,3.22
		c2.95,0.68,5.7,1.64,8.46,2.76c2.78,1.12,5.16,2.44,4.61,6.09c-0.15,1.01,0.59,1.85,0.97,2.76c1.47,3.46,3.58,6.75,2.96,10.99
		c3.9,0.43,6.32-2.31,9.2-3.51c3.8-1.58,7.29-3.98,10.8-6.19c2.27-1.43,3.93-3.48,5.27-5.88c2.51-4.5,4.51-9.28,7.55-13.5
		c3.41-4.73,7.74-7.36,13.57-8.29c9.49-1.52,19.23-1.78,28.34-5.35c0.77-0.3,1.63-0.4,2.33-1.48c-0.72-3.8-2.5-7.51-4.3-11.15
		c-1.7-3.43-2.32-6.98-1.89-10.66c0.61-5.29,1.04-10.62,2.66-15.74c0.52-1.64,0.11-3.81,2.77-4.08c2.35-0.24,4.35,0.34,5.77,2.22
		c2.64,3.5,4.42,7.46,5.39,11.7c1.66,7.27,3.77,14.44,4.94,21.82c0.12,0.79,0.43,1.61,1.71,2.46c3.39-1.61,6.11-5.04,10.12-5.94
		c0-8.19-0.63-16.16,1.7-24.19c9.47-1.84,9.18,7.13,13.65,12.66c0.03-10.9,0.78-20.49,5.06-29.74c5.95,2.62,10,6.63,13.17,11.58
		c3.49,5.44,0.84,11.34,0.66,17.25c7.54,2.69,8.79,9.52,10.85,15.75c0.69,2.08,0.81,4.36,3.96,3.92c3-12.94,2.93-26.61,10.58-38.37
		c2.96,0.37,5.26,2.06,7.56,3.56c1.7,1.11,2.8,2.84,2.71,5.06c-0.41,11.05,0.87,22.25-3.37,33.25c4.22,2.28,8.82,3.19,12.84,6.42
		c3.2-9.7,6.92-18.38,11.43-26.71c0.56-1.02,1.09-2.06,1.66-3.08c0.95-1.7,1.53-4.08,4.16-3.49c2.27,0.51,3.79,2.31,4.21,4.52
		c1.2,6.35,2.47,12.78,3.06,19.13c0.45,4.81-1.63,10.07-3.84,14.78c-0.42,0.9-1.01,1.73-1,2.78c0.44,1.63,1.81,1.92,3.14,1.91
		c3.75-0.05,6.18,2.08,8.38,4.72c5.25,6.33,8.75,13.74,12.76,20.82c1.17,2.07,2.32,3.82,4.15,5.4c5.63,4.85,12.02,9.06,15.06,16.31
		c0.49,1.17,1.52,1.67,2.56,2.24c7.49,4.12,14.02,9.52,20.19,15.36c1.44,1.36,2.85,2.92,3.74,4.66
		c6.18,12.1,13.21,23.91,13.84,38.05c0.42,9.42,0.62,18.83-0.02,28.26c-0.5,7.33,0.07,14.66,0.76,21.95
		c1.39,14.74-4.61,26.43-14.68,36.49c-6.52,6.52-14.08,11.69-21.92,16.46c-1.28,0.78-2.52,1.52-4.18,1.27
		c-5.75-0.85-11.48-1.71-17.11-3.27c-10.25-2.84-20.54-5.52-30.84-8.16c-4.5-1.15-6.7-3.57-7.79-8.41
		c-2.02-8.91-3.69-17.88-5.13-26.87c-0.68-4.25-1.34-8.53-1.96-12.8c-0.16-1.12-0.08-2.37-1.75-3.38
		c-5.36,4.53-12.36,4.97-19.1,6.25c-1.62,0.31-2.27,1.21-2.37,2.7c-0.53,7.78-1.43,15.44,1.27,23.2c2.49,7.17,4.87,14.46,5.85,22.11
		c0.39,3.03-0.65,4.86-2.99,6.18c-6.22,3.51-12.43,7.06-18.9,10.11c-2.5,1.18-4.67,0.39-6.51-1.12
		c-8.89-7.35-15.78-16.21-18.32-27.65c-2.37-10.71-3.55-21.59-3.85-32.61c-0.2-7.52-3.09-14.55-6.27-21.34
		c-0.75-1.6-2.27-2.6-3.9-2.91c-8.81-1.66-13.51-8.01-17.14-15.28c-2-4-4.84-5.48-9.05-5.64c-7.34-0.28-14.46-2.26-21.73-3.1
		c-3.04-0.35-4.71-2.56-6.05-4.79c-2.2-3.65-5.4-5.31-9.4-5.57c-3.17-0.21-5.04-2.43-7.17-4.21c-2.16-1.8-4.2-2.44-7.01-0.59
		c4.01,6.98,5.94,14.4,6.52,22.22c0.26,3.45,1.64,6.51,4.58,8.51c8.65,5.88,9.98,15.32,11.7,24.41c1.93,10.18,1.08,20.59,1.63,30.89
		c0.34,6.4-1.43,12.53-6.86,16.87c-6.2,4.95-7.95,12.19-10.63,19.19c-2.58,6.77-1.89,13.17-0.94,19.83
		c0.81,5.69-2.07,10.4-4.33,15.13c-1.5,3.14-2.49,6.53-4.41,9.49c-1.01,1.55-0.57,3.08,0.31,4.68c5.13,9.4,7.42,19.9,11.34,29.78
		c1.4,3.52,1.21,7.02-1.54,10.28c-6.2,7.36-12.13,14.95-18.22,22.41c-0.83,1.02-1.84,1.96-2.9,2.73c-4.53,3.3-5.88,3.14-9.59-1.12
		c-2.51-2.88-5.42-5.42-7.35-8.8c-0.48-0.83-1.18-1.66-2.8-1.03c1.87,5.35,3.32,10.84,4.27,16.47c0.39,2.34,0.02,3.58-2.1,4.85
		c-7.78,4.66-16.41,7.17-24.88,10.08c-2.9,1-5.05-0.18-6.81-2.7c-3.25-4.65-6.26-9.45-9.03-14.38c-1.35-2.4-2.5-2.45-4.69-1.02
		c-8.07,5.26-16.74,9.45-25.43,13.57c-4.71,2.23-9.51,2.88-14.55,1.35c-2.71-0.82-5.47-1.47-8.14-2.4
		c-5.6-1.96-10.42-0.41-14.82,3.11c-3.23,2.59-5.54,6.25-9.77,7.94c1.39,5.61,2.75,11.03,4.07,16.47c1.55,6.41,1.07,8.42-4.6,11.65
		c-6.76,3.86-13.76,7.33-20.91,10.5c-3.79,1.68-6.48,0.56-8.81-2.21c-2-2.39-3.71-5.03-5.55-7.56c-1.98,1.17-1.26,2.85-1,4.16
		c0.76,3.8-1.19,5.65-4.44,6.57c-5.69,1.61-11.58,0.77-17.35,1.36c-6.84,0.71-11-2.06-14.09-8.27c-1.93-3.87-2.93-8.59-7.01-11.55
		c-11.02,5.67-22.73,2.72-34.24,2.48c-3.81-0.08-7.63-1.34-11.43-0.89c-12.31,1.44-23.25-2.96-33.96-7.91
		c-8.76-4.06-18.18-5.16-27.38-7.23c-6.24-1.4-11.24-3.79-14.93-9.58c-4.92-7.72-9.05-15.88-14.16-23.48
		c-2.07-3.07-4.66-5.11-7.94-6.48c-4.29-1.8-8.54-3.67-12.59-6.01c-4.14-2.39-6.91-5.62-7.35-10.56c-0.05-0.6-0.49-1.18-0.76-1.77
		c-1.67-0.09-2.22,1.1-2.49,2.09c-1.97,7.41-7.91,10.19-14.31,12.45c-4.05,1.43-7.63,3.88-13.17,5.04
		c5.96,3.15,6.24,7.64,6.11,12.33c-0.18,6.49-0.28,12.98-0.34,19.48c-0.05,4.84-3.46,7.7-6.82,9.86c-4.31,2.77-5.22,6.23-4.2,10.64
		c1.33,5.73,0.98,11.6,1.69,17.37c0.22,1.76-0.18,3.26-1.18,4.71c-1.98,2.86-3.81,5.84-5.85,8.66c-2.75,3.82-3.69,7.82-2.66,12.54
		c1.24,5.68,2.38,11.45,2.79,17.23c0.67,9.53-0.78,18.92-4.48,27.74c-3.27,7.78-6.4,15.65-10.78,22.94
		c-2.68,4.45-4.56,5.43-9.36,3.59c-8.53-3.27-16.88-6.96-24.48-12.14c-4.18-2.85-5.42-6.26-4.14-11.66
		c1.87-7.92,3.74-15.84,5.55-23.78c1.07-4.69,0.03-9.31-1.08-13.81c-0.78-3.15-4.24-4.17-7.22-2.65c-5.37,2.74-9.38,6.38-8.69,13.09
		c0.53,5.05-1.71,9.68-2.15,14.64c-1.09,12.07,2.76,22.95,6.33,33.99c1.22,3.77,2.75,7.35,3,11.47c0.24,3.91-0.44,7.46-2.6,10.4
		c-9.83,13.4-19.37,27.05-31.44,38.64c-3.6,3.46-8.13,5.21-12.83,6.31c-3.58,0.84-6.89,0.17-10.29-2.01
		c-8.39-5.39-14.92-12.66-21.86-19.61c-7.94-7.94-9.4-17.8-10.24-28.22c-0.96-11.8-1.26-23.6-1.16-35.42
		c0.01-0.82-0.03-1.72-0.36-2.44c-4.17-9.2-2.72-18.96-2.88-28.55c-0.12-7.36,0.91-14.59,2.93-21.69c0.97-3.42-0.5-6.74-1.98-9.55
		c-4.07-7.75-4.01-15.25-0.85-23.29c2.87-7.29,1.8-8.73-5.85-10.35c-3.26-0.69-6.55-1.64-9.83-1.64c-5.87,0.01-9.22-3.31-11.77-7.85
		c-1.71-3.04-3.14-6.25-5.25-9.03c-1.7-2.24-0.99-3.59,1.29-4.65c6.78-3.15,16.1-6.27,24.59,1.54
		C30.34,438.67,34.51,441.14,38.19,444.77z"/>
</g>
</svg>
