<?xml version="1.0" encoding="utf-8"?>
<!-- Generator: Adobe Illustrator 24.0.2, SVG Export Plug-In . SVG Version: 6.00 Build 0)  -->
<svg version="1.1" id="Layer_1" xmlns="http://www.w3.org/2000/svg" xmlns:xlink="http://www.w3.org/1999/xlink" x="0px" y="0px"
	 width="618.29" height="819.57" viewBox="0 0 618.29 819.57" style="enable-background:new 0 0 618.29 819.57;" xml:space="preserve">
<g>
	<path d="M317.13,815.79c-1.78,3.73-4.44,4.38-7.7,3.31c-4.4-1.45-8.4-2.17-13.38-0.68c-6.36,1.9-11.71-2.22-16.25-6.77
		c-7.86-7.89-11.06-18.02-13.67-28.39c-0.69-2.76-1.67-3.93-4.69-3.61c-10.93,1.14-21.08,4.92-31.55,8.69
		c1.3,1.84,3.1,2.45,4.5,3.53c2.05,1.58,3.61,3.48,4.43,5.9c1.5,4.41,0.65,6.28-3.54,8.53c-3,1.62-6.17,2.69-9.57,2.33
		c-3.89-0.42-7.58,0.67-11.36,1.1c-0.81,0.09-1.55,0.62-2.36,0.75c-6.18,0.99-12.05-2.28-18.63-0.33c-6.04,1.79-12.3-1.44-18.4-3.16
		c-7.24-2.03-9.14-7.68-10.64-13.64c-1.29-5.16-1.8-10.5-0.09-15.79c0.75-2.31-0.16-4.26-1.79-5.9
		c-6.53-6.55-11.79-13.98-15.51-22.48c-1.23-2.82-3.4-4.02-6.45-3.31c-2.31,0.54-4.61,0.39-6.95,0.27
		c-15.47-0.78-30.91-2.06-45.88-6.23c-21.73-6.06-41.86-15.29-57.72-31.94c-3.43-3.6-7.12-7.02-10.21-10.9
		c-7.89-9.9-12.66-21.27-15.91-33.5c-1.8-6.77-3.64-13.44-3.79-20.44c-0.26-11.67,1.24-23.07,3.94-34.51
		c3.01-12.78,8.98-23.99,16.26-34.46c10.02-14.4,22.77-25.98,39.23-32.94c6.52-2.76,13.26-4.49,20.34-4.47
		c4.02,0.02,7.89-1.04,11.9-1.17c10.36-0.34,18.41,4.93,26.5,10.22c3.96,2.58,6.79,6.15,9.26,10.2c6.29,10.31,1.88,27.97-5.19,35.47
		c-7.91,8.38-17.62,13.45-28.97,15.4c-7.3,1.26-14.19,4.16-20.48,7.64c-8.69,4.81-13.49,13.07-14.78,23.1
		c-0.32,2.48-0.2,5.1-0.98,7.41c-1.69,5.02-0.09,9.52,1.58,14.03c4.12,11.16,11.03,20.63,19.8,28.35
		c8.38,7.39,18.48,12.05,29.5,14.81c6.53,1.63,12.94,2.66,19.66,2.14c4.77-0.37,6.21-1.64,6.38-6.34c0.15-4.17-0.97-8.31-0.82-12.36
		c0.2-5.44,1.48-10.86,2.62-16.23c1.48-6.96,2.69-13.96,5.81-20.55c1.31-2.77,3.25-4.95,4.71-7.52c3.29-5.78,5.78-12.09,9.98-17.27
		c10.45-12.88,19.97-26.39,32.77-37.48c14.31-12.41,28.81-24.74,42.1-38.32c3.48-3.55,6.45-7.61,9.49-11.57
		c2.11-2.76,1.82-4.42-1.25-6c-11.28-5.84-21.68-12.92-31.14-21.39c-0.88-0.78-1.77-1.41-3.12-1.17
		c-5.98,1.03-11.43-0.61-16.81-3.14c-6.32-2.97-13.05-5.1-19.08-8.63c-15.51-9.06-28.75-20.91-41.07-33.86
		c-6.54-6.88-13.15-13.69-19.71-20.55c-4.85-5.08-8.92-10.67-12.26-16.92c-2.96-5.55-7.12-10.42-10.14-16
		c-5.25-9.7-9.82-19.63-10.72-30.83c-0.39-4.82-0.56-10.01,1.12-14.27c2.36-6,6.84-11,12.93-14.04
		c13.65-6.81,28.29-10.35,43.12-13.57c10.77-2.34,21.61-3.93,32.52-5.16c3.07-0.35,4.3-1.62,4.94-4.44
		c2.61-11.57,7.35-22.42,11.66-33.4c2.2-5.58,6.33-10.13,9.36-15.29c10.59-18.04,24.85-32.81,40.95-45.94
		c0.26-0.21,0.56-0.38,0.78-0.62c12.42-14.01,28.94-22.76,43.72-34.2c0.19-2.92-0.81-4.57-4.29-3.5
		c-8.27,2.54-16.89,3.72-25.09,6.55c-2.03,0.7-4.17,1.13-6.3,1.52c-10.76,1.93-21.58,3.61-32.29,5.78
		c-6.17,1.25-12.11,3.51-18.56,3.53c-7.67,0.03-18.76-5.94-21.47-14.73c-2.35-7.63-4.26-14.92-1.85-22.87
		c1.37-4.54,3.63-8.51,6.43-12.23c2.2-2.93,5.12-4.02,8.83-4.77c8.65-1.77,17.44-2.41,26.07-4.08c7.56-1.46,15.23-1.66,22.83-2.49
		c3.64-0.4,7.17-1.38,10.77-1.37c0.63-1.13-0.12-1.61-0.76-2.09c-10.16-7.65-18.31-17.38-26.6-26.83
		c-4.26-4.85-6.5-11.52-9.47-17.46c-4.15-8.32-7.47-17.01-11.01-25.59c-4.29-10.41-5.42-21.22-7.23-31.93
		c-2.08-12.33-0.16-14.05,12-13.92c11.34,0.13,22.59,1.33,33.54,4.45c11,3.14,21.61,7.39,32.27,11.5
		c6.71,2.58,11.66,7.63,17.21,11.83c11.1,8.39,20.39,18.59,29.12,29.37c3.36,4.15,4.89,9.45,8.6,13.45c2.35-0.36,2.7-2.05,3.13-3.91
		c3.55-15.27,8.03-30.28,15.6-44.05c3.99-7.25,7.69-14.85,13.23-21.1c6.95-7.83,14.18-15.44,21.66-22.77
		c3.16-3.1,7.12-5.46,10.96-7.75c4.96-2.96,7.18-2.4,10.34,2.47c3.45,5.3,6.61,10.77,9.02,16.66c5.33,13.01,8.64,26.51,10.4,40.46
		c2.34,18.56-1.77,36.05-8.27,53.18c-1.11,2.93-2.43,5.79-3.89,9.24c5.72-0.26,10.76-1.78,15.82-3.13
		c6.75-1.8,13.37-4.23,20.38-4.79c8.7-0.7,14.85,3.74,19.44,10.59c4.82,7.19,4.13,15.28,2.67,23.15c-1.36,7.33-7.79,10-13.81,12.3
		c-8.6,3.29-17.93,3.38-26.9,5.1c-11.27,2.16-22.6,3.99-33.9,6.03c-1.07,0.19-2.3,0.3-3.14,1.28c1.39,1.11,3.06,1.29,4.71,1.48
		c5.48,0.63,10.78,2.07,16.03,3.71c3.01,0.94,6.04,1.7,9.3,1.55c3.01-0.13,5.96,0.82,8.77,1.8c14.42,5.05,29.04,9.63,43.03,15.77
		c9.41,4.13,18.19,9.68,27.43,14.22c18.38,9.03,34.76,20.84,49.86,34.6c5.26,4.8,11.03,9.04,15.54,14.6
		c9.32-5.29,18.39-9.43,29.02-9.28c5.09,0.08,8.69,1.93,11.39,5.85c7.71,11.18,13.75,23.1,16.97,36.43
		c3.38,14.04,5.01,28.25,4.12,42.6c-1.2,19.24-5.38,37.83-14.64,54.96c-2.57,4.75-2.35,9.97-3.25,15.01
		c-3.5,19.53-8.11,38.55-18.37,56.02c-6.45,10.98-13.77,21.17-21.79,30.93c-8.94,10.88-20.11,19.13-32.02,26.46
		c-6.52,4.01-12.81,8.5-19.68,11.79c-15.6,7.47-31.54,14.26-48.44,18.35c-9.55,2.31-19.33,3.36-29.07,4.65
		c-2.42,0.32-5.04,0.33-6.75,3.08c1.35,1.84,3.37,1.83,5.26,1.75c19.22-0.83,38.54,0.99,57.68-1.87c18.42-2.75,36.97-4.51,55.26-8.2
		c5.18-1.05,10.38-2.27,15.69-2.8c3.14-0.31,6.04-1.65,7.99-4.52c1.88-2.77,4.34-4.19,7.63-2.12c2.49,1.57,4.82,0.51,7.15-0.38
		c3.73-1.42,7.44-2.9,11.14-4.4c1.26-0.51,2.5-0.78,3.88-0.67c5.64,0.44,6.41,1.76,5.09,7.29c-0.97,4.06-3.98,7.22-4.82,11.28
		c1.91,1.06,3.48,0.11,5.06-0.17c2.31-0.42,4.62-0.76,6.95-0.29c3.7,0.75,4.98,2.6,4.51,6.41c-0.33,2.69-1.2,5.14-2.68,7.44
		c-0.97,1.5-2.47,2.7-2.84,4.8c3.61,1.63,8.69-0.85,11.16,4c-0.68,3.36-3.15,5.64-5.36,8.12c-3.02,3.39-2.93,4.03,0.72,6.38
		c3.33,2.15,3.56,3.22,1.27,6.37c-1.68,2.32-3.74,4.26-6.14,5.81c-11.99,7.79-23.47,16.47-36.54,22.46
		c-11.62,5.32-23.36,10.38-36.12,12.62c-7.04,1.24-13.54,4.62-20.59,6.02c-16.81,3.36-33.58,6.79-50.77,7.84
		c-10.63,0.65-21.15,2.51-31.88,2.13c-8.52-0.3-16.84-2.19-25.34-2.44c-5.18-0.15-8.61,1.99-10.23,6.72
		c-1.18,3.44-2.52,6.82-3.82,10.33c10.21,10.47,20.11,21.17,28.14,33.52c7.37,11.33,11.78,23.54,9.27,36.86
		c-2.51,13.34-8.69,25.1-21.03,32.48c-2.71,1.62-5.3,3.46-8.11,4.89c-4.58,2.34-9.13,4.77-14.43,5.35
		c-2.07,0.22-4.26,0.68-6.17,2.41c2.39,1.96,4.49,4.08,5.87,6.76c1.77,3.45,1.4,5.26-2.21,6.82c-5.7,2.46-11.81,3.41-18,2.78
		c-3.83-0.39-7.24-0.71-9.39,3.45c-0.8,1.55-2.78,1.72-4.44,1.93c-2.61,0.33-5.23,0.56-7.88,0.84c2.76,8.17,1.38,9.84-7.23,8.75
		c-3.32-0.42-6.06-1.32-9.43,1.62C325.74,819.56,320.99,818.27,317.13,815.79z"/>
</g>
</svg>
