<?xml version="1.0" encoding="utf-8"?>
<!-- Generator: Adobe Illustrator 24.0.2, SVG Export Plug-In . SVG Version: 6.00 Build 0)  -->
<svg version="1.1" id="Layer_1" xmlns="http://www.w3.org/2000/svg" xmlns:xlink="http://www.w3.org/1999/xlink" x="0px" y="0px"
	 width="859.76" height="860.54" viewBox="0 0 859.76 860.54" style="enable-background:new 0 0 859.76 860.54;" xml:space="preserve">
<g>
	<path d="M179.62,680.43c-1.25,8.25-1.96,16.07-3.7,23.66c-3.37,14.73-5.71,29.7-10.71,44.05c-2.53,7.27-7.48,12.05-14.27,15.13
		c-10.93,4.96-22.57,6.76-34.43,7.41c-8.63,0.48-17.2,1-25.76,2.57c-9.24,1.69-18.58,1.04-27.65-1.83
		c-4.75-1.5-9.49-1.27-14.25-0.05c-7.11,1.82-14.12,2.31-20.84-1.52c-4.68-2.67-7.75-6.49-7.7-11.99c0.03-3.67-1.66-5.16-4.9-5.6
		c-5.94-0.8-9.76-5.32-14.43-8.29c-1.6-1.02-1.16-5.8,0.69-6.4c1.45-0.47,1.24-1.35,1.51-2c4.14-10.05,10.44-18.87,16.19-27.97
		c10.3-16.32,21.79-31.89,30.21-49.35c5.34-11.08,11.29-21.89,14.84-33.77c1.97-6.6,0.94-10.78-4.9-14.39
		c-8.17-5.04-14.82-11.8-21.8-18.2c-3.57-3.27-3.96-4.74-1.02-8.45c3.81-4.81,6.69-10.41,11.63-14.29c1.86-1.46,2.5-3.21,2.46-5.61
		c-0.28-16.37,1.55-32.53,4.68-48.6c2.25-11.55,4.13-23.22,7.37-34.5c4.87-16.91,11.16-33.37,18.31-49.48
		c0.47-1.06,0.99-2.17,1.77-2.99c3.96-4.14,4.69-8.94,3.47-14.35c-1.29-5.71-0.7-11.35,1.97-16.55c4.33-8.42,8.05-17.19,14-24.7
		c4.89-6.18,10.71-11.39,16.87-16.21c8.52-6.66,16.58-13.75,23.21-22.34c1.22-1.58,2.55-3.08,3.98-4.46
		c2.61-2.52,4.3-5.12,3.88-9.15c-0.35-3.41,0.29-6.97,2.39-9.9c-1.96-1.71-3.07-0.02-4.28,0.48c-7.26,2.99-14.57,5.69-22.61,5.56
		c-7.76-0.13-11.07-3.77-9.92-11.37c0.55-3.62,1.73-7.02,3.83-10.18c4.86-7.34,9.27-15.03,17.84-18.61
		c-1.15-2.78-2.97-2.08-4.53-2.04c-4.5,0.11-9,0.28-13.42-0.82c-4.22-1.05-5.36-3.19-3.95-7.36c1.82-5.36,5.07-9.55,9.62-13.02
		c6.53-4.98,13.16-9.64,21.06-12.19c0.44-0.14,0.78-0.57,1.25-0.93c-1.13-2.11-2.95-1.45-4.46-1.61c-5.98-0.66-11.88-1.7-17.35-4.35
		c-4.05-1.96-4.52-4.43-1.52-7.8c2.36-2.64,5.16-4.69,8.56-5.87c1.55-0.54,3.23-0.88,4.81-2.61c-7.28-2.35-13.72-5.94-20.23-9.42
		c-3.26-1.74-6.25-3.82-9.07-6.18c-5.4-4.52-5.93-8.88-2.12-14.85c3.75-5.89,9.78-8.31,15.81-10.76c10.1-4.11,20.7-6,31.48-7.07
		c1.6-0.16,3.36,0.11,4.52-1.45c-0.55-1.69-2.11-1.5-3.32-1.8c-3.5-0.87-6.41-2.69-8.97-5.18c-2.77-2.7-2.9-4.79,0.23-7.44
		c3.19-2.71,6.87-4.68,11.13-5.32c1.1-0.16,2.41,0.17,3.07-1.19c-0.43-1.79-2.03-1.99-3.41-2.48c-3.66-1.31-7.01-3.25-9.77-5.92
		c-5.17-5.01-4.76-8.93,0.97-12.32c5.27-3.12,11.13-4.38,16.98-5.48c14.01-2.64,28.07-3.36,42.08,0.18c0.39,0.1,0.89-0.2,1.71-0.41
		c-2.42-4.37-5.59-8.02-7.77-12.29c-5.9-11.58-11.42-23.33-12.75-36.43c-0.52-5.09-0.08-10.32,0.4-15.44
		c0.36-3.83,2.95-5.94,7.13-6.5c10.67-1.44,19.96,2.4,28.7,7.89c5.3,3.33,10.28,7.13,14.44,11.73c1.93-1.44,1.3-2.85,1.37-4.11
		c0.2-4.04,2.13-5.94,6.2-6.32c5.36-0.51,9.66,2,13.9,4.72c1.35,0.86,2.28,2.5,4.2,2.26c1.45-0.82,1.47-2.3,1.48-3.54
		c0.04-4.52,3.93-6.39,8.1-6.13c4.06,0.26,7.7,1.97,11.2,3.96c1.69,0.96,3.37,1.95,5.49,3.18c0-6.61-0.39-12.7,0.09-18.71
		c0.82-10.39,2.58-20.65,7.3-30.14c2.2-4.42,3.63-9.28,8.11-12.29c4.22-2.84,7.3-3.25,11.47-0.42c5.55,3.77,10.41,8.3,13.87,14.16
		c5.28,8.93,9.59,18.26,11.87,28.44c0.15,0.66,0.38,1.26,1.05,1.7c2,0.42,2.66-1.3,3.03-2.56c2.7-9.2,7.96-17.16,12.23-25.6
		c0.96-1.89,2.53-3.49,3.91-5.15c4.56-5.45,11.93-4.56,15.29,1.88c2.84,5.44,3.56,11.38,3.9,17.4c0.09,1.62-0.32,3.32,0.71,5.07
		c3.33,0.23,5.65-1.77,7.6-3.94c2.66-2.96,6.13-5.16,9.61-4.08c3.69,1.14,5.25,5.24,6.1,9.09c0.68,3.08,0.94,6.21,0.63,9.37
		c2.68,1.03,3.55-0.77,4.63-2.14c4.23-5.39,8.72-10.51,14.33-14.55c6.99-5.02,13.67-10.52,21.83-13.7c3.96-1.54,8.1-2.1,12.25-2.09
		c4.11,0.01,6.93,3.7,7.28,8.65c0.45,6.39-2.17,12.05-4.21,17.84c-0.2,0.58-0.93,1.02-0.25,2.11c2.84-1.25,5.72-2.74,8.75-3.81
		c6.33-2.24,8.4-0.46,8.72,6.13c0.52,10.75-3.89,19.73-9.32,28.46c-1.22,1.96-2.97,3.59-3.64,5.77c0.36,1.41,1.43,1.58,2.4,1.41
		c3.5-0.62,6.1,1.19,8.68,3.06c2.56,1.86,3.3,4.28,2.62,7.46c-1.43,6.62-4.94,11.93-10.23,16.86c3.99,4.37,4.21,10.47,7.57,16.41
		c1.49-3.66,1.3-6.46,1.71-9.13c2.51-16.52,7.57-32.01,18.33-45.16c5.05-6.17,10.77-6.77,16.81-1.52
		c9.28,8.07,15.61,18.07,18.87,29.99c2.15,7.88,4.29,15.75,4.56,23.99c0.02,0.65,0.12,1.34,0.82,1.85c1.08,0.43,1.94-0.1,2.19-1.16
		c0.92-3.87,3.6-6.71,5.68-9.88c2.87-4.38,8.32-4.64,11.81-0.69c4.64,5.25,7.63,11.31,8.51,18.3c0.87,6.91,2.13,13.79,1.27,20.69
		c1.7,0.81,1.98-0.48,2.44-1.2c12.94-20.15,29.24-36.94,49.31-50.14c5.15-3.39,10.41-6.52,15.86-9.34
		c4.36-2.26,8.87-1.43,12.92,0.61c2.41,1.22,3.01,4.01,3.21,6.9c1.18,16.83-4.63,31.69-12.6,45.98c-0.39,0.69-1.07,1.32-0.41,2.37
		c1.44,0.55,2.34-0.57,3.34-1.34c6.52-5.04,13.8-8.55,21.74-10.65c5.7-1.51,7.11-0.28,7.51,5.62c0.26,3.83-0.78,7.23-2.6,10.49
		c-1.44,2.58-2.89,5.15-4.97,8.88c5.18-1.96,9.27-3.5,13.36-5.04c7.15-2.69,14.54-4.46,22.07-5.65c2.96-0.46,5.95-0.75,8.9-1.24
		c5.45-0.9,10.75-1.23,16.28,0.36c4.4,1.27,9.16,1.03,13.7,2.36c11.4,3.33,13.08,10.87,6.67,20.79c-4.81,7.45-11.55,13.34-19.16,18
		c-6.65,4.07-13.12,8.58-20.81,10.67c-0.67,0.18-1.2,0.54-1.34,1.75c1.93,1.13,4.26,0.66,6.38,0.78c4.51,0.26,8.97,0.75,13.29,2.03
		c6.25,1.85,7.6,6.42,3.39,11.29c-1.37,1.59-2.9,3.05-4.78,5.01c4.24-0.21,8.05,0.16,11.69-0.2c9.94-0.98,18.95,1.94,27.93,5.45
		c1.08,0.42,2.18,0.8,3.28,1.19c7.45,2.64,10.85,8.71,5.49,17.36c-5.36,8.64-13.51,13.62-21.95,18.34
		c-5.09,2.85-10.59,4.83-16.71,6.57c5.44,2.26,11.02,3.15,15.53,6.51c1.06,0.79,2.31,1.34,3.37,2.13c6.07,4.53,6.04,7.74-0.07,12.39
		c-2.45,1.86-5.28,2.78-8.27,3.3c-1.61,0.28-3.35,0.23-4.69,2.12c4.86,2.13,9.6,4.31,14.42,6.29c8.32,3.4,15.35,8.65,21.57,15.02
		c2.93,3.01,2.75,4.87,0.06,8.23c-2.27,2.82-5.18,4.68-8.58,5.72c-16.1,4.92-32.5,7.01-49.3,4.84c-0.82-0.11-1.66-0.18-2.43,0.45
		c-0.46,2.31,1.44,3.14,2.85,4.15c3.53,2.51,7.15,4.88,10.73,7.33c3.56,2.44,7.52,1.24,11.16,0.79c17.05-2.09,33.68-5.94,49.7-12.33
		c14.77-5.89,28.36-13.91,41.78-22.3c3.92-2.45,7.6-5.32,12.86-4.15c3.08,0.69,5.59,2.14,7.92,3.99
		c6.47,5.14,10.34,17.84,6.88,25.24c-0.96,2.04-2.01,4-2.31,6.18c-1.83,12.96-5.26,25.42-11.91,36.78
		c-4.88,8.34-8.43,17.39-13.84,25.43c-2.31,3.44-4.39,7.01-7.73,9.71c-1.6,1.29-3.12,3.38-3.51,5.34
		c-1.05,5.27-3.82,9.93-4.88,15.19c-1.19,5.92-3.82,11.43-6.54,16.68c-9.96,19.24-21.18,37.7-34.97,54.54
		c-6.22,7.6-12.68,14.99-18.89,22.61c-6.7,8.22-14.67,15.17-23.29,21.62c-11.06,8.27-22.17,16.47-33.28,24.69
		c-2.42,1.79-5.83,2.51-6.22,6.53c-0.24,2.4-0.36,4.45,0.84,6.69c7.69,14.38,15.83,28.56,22.65,43.35
		c4.47,9.68,8.29,19.64,10.31,30.52c2.99,16.08,4.62,32.24,5.71,48.43c0.83,12.35,0.41,24.8-0.44,37.28
		c-0.87,12.7-8.55,17.12-18.15,21.45c-4.95,2.23-10.52,1.42-15.26,4.22c-1.83,1.08-3.76,2.05-5.62,3.13
		c-8.65,5.01-17.65,8.51-27.99,6.5c-4.08-0.79-7.39-2.97-10.72-5.11c-2.61-1.68-4.64-1.79-7.71-0.4
		c-14.37,6.53-28.43,6.16-41.52-3.51c-5.21-3.85-10.46-6.61-17.42-5.68c-4.53,0.61-9.25-0.1-13.65-2.15
		c-4.86-2.26-7.08-5.24-6.45-10.5c0.35-2.95,0.04-5.53-1.6-8.04c-4.74-7.3-3.4-15.36-2.65-23.3c1.71-18.06,3.54-36.11,4.59-54.23
		c0.61-10.51-0.22-20.94-0.14-31.91c-44.13,17.57-88.48,32.65-136.78,33.55c1.9,8.02,2.87,15.39,5.02,22.52
		c2.51,8.32,3.24,16.98,5.01,25.42c1.77,8.43,1.98,17.02,3.82,25.47c2.28,10.52,2.04,21.47,1.74,32.29
		c-0.33,12.12,0.62,24.3-1.62,36.34c-0.43,2.29-0.69,4.6-1,6.91c-0.79,5.81-4.9,8.96-9.65,11.12
		c-16.35,7.45-33.59,11.97-51.49,12.65c-7.48,0.29-13.56,1.91-18.97,6.85c-1.31,1.2-3.11,1.86-4.8,2.6
		c-10.3,4.49-19.59,1.67-28.27-4.11c-3.02-2.01-5.85-2.15-8.95-1.21c-8.98,2.69-18.15,2.37-27.19,1.09
		c-3.79-0.53-7.2-3.34-9.81-6.48c-1.06-1.27-1.95-2.71-2.73-4.17c-1.94-3.61-4.3-5.8-8.99-5.22c-3.38,0.42-6.92-0.61-10.4-0.89
		c-2.39-0.19-3.59-1.5-3.99-3.73c-0.18-0.98-0.61-2.02-0.44-2.95c2-11.15,0.01-22.73,5.7-33.56c6.43-12.21,9.66-25.72,13.05-39.16
		c3.93-15.58,5.85-31.36,7.2-47.26c0.96-11.29,0.43-22.64,0.12-33.97c-0.1-3.64-1.54-5.41-4.98-6.28
		c-8.55-2.17-16.53-5.87-24.64-9.24c-4.1-1.71-8.18-0.02-11.76,2.25c-8.48,5.37-17.61,9.37-27,12.8
		c-9.84,3.59-20.12,4.28-30.49,4.19C182.41,680.42,181.26,680.43,179.62,680.43z"/>
</g>
</svg>
