<?xml version="1.0" encoding="utf-8"?>
<!-- Generator: Adobe Illustrator 24.0.2, SVG Export Plug-In . SVG Version: 6.00 Build 0)  -->
<svg version="1.1" id="Layer_1" xmlns="http://www.w3.org/2000/svg" xmlns:xlink="http://www.w3.org/1999/xlink" x="0px" y="0px"
	 width="861.06" height="807.58" viewBox="0 0 861.06 807.58" style="enable-background:new 0 0 861.06 807.58;" xml:space="preserve">
<g>
	<path d="M707.7,280.46c-1.97,10.08-2.21,19.35-1.63,28.65c0.67,10.65,0.64,21.28-0.1,31.93c-0.58,8.35-2.46,16.46-4.49,24.52
		c-0.91,3.59-1.57,7.13-1.34,10.83c0.72,11.6,0,22.97-5.62,33.5c-3.88,7.27-8.34,14.15-16.27,17.58
		c-6.06,2.62-8.29,8.42-11.76,13.19c-1.21,1.67,0.28,3.52,0.65,5.26c2,9.43,4.67,18.7,4.53,28.51c-0.16,11.02-1.35,21.81-4.33,32.47
		c-1.43,5.12-3.92,9.5-6.94,13.71c-14.3,19.96-32.86,32.91-57.73,36.35c-8.21,1.14-16.15,1.84-24.18-0.44
		c-1.9-0.54-3.38,0.01-4.88,1.54c-6.04,6.19-11.5,12.89-17.03,19.5c-3.99,4.77-3.86,9.77-0.38,15.09
		c4.86,7.42,10.71,13.97,17.42,19.79c1.41,1.22,2.77,1.6,4.54,1.28c12.48-2.26,24.08-0.16,34.61,7.09
		c10.11,6.96,17.59,15.73,19.28,28.41c0.23,1.71,0.85,3.27,2.28,4.3c9.11,6.57,15.01,15.97,21.55,24.74
		c6.76,9.07,12.85,18.63,17.58,28.98c3.76,8.23,4.94,16.86,3.75,25.82c-0.29,2.19-1.58,4.01-2.41,5.99
		c-3.08,7.35-5.8,14.86-10.27,21.55c-0.26,0.39-0.26,0.95-0.36,1.35c0.42,1.53,1.79,1.44,2.83,1.79
		c9.02,2.98,17.83,6.55,26.04,11.28c6.06,3.49,11.39,8.14,15.88,13.57c3.22,3.89,2.29,7.09-2.52,8.75
		c-5.73,1.98-11.84,2.62-17.74,1.93c-9.22-1.08-18.49-1.9-27.58-4.18c-6.65-1.67-13-4.07-19.42-6.3c-8.15-2.82-16.44-5.4-23.9-9.88
		c-2.82-1.69-5.92-3.1-7.26-6.54c-0.66-1.7-2.41-2.3-4-2.74c-12.31-3.44-24.62-6.8-37.15-9.48c-11.27-2.41-22.62-3.71-34.02-4.66
		c-15.76-1.31-31.52-1.51-47.32,0.41c-11.72,1.42-23.49,2.55-35.05,4.98c-6.84,1.44-13.71,2.66-20.59,3.83
		c-10.16,1.74-20.31,3.53-30.45,5.42c-1.73,0.32-3.7,0.34-5,1.91c0.08,0.35,0.06,0.74,0.24,0.97c5.46,7.05,4.57,11.37-3.43,15.14
		c-8.14,3.84-16.61,6.88-25.31,9.19c-11.88,3.16-23.73,6.47-35.7,9.3c-5.33,1.26-10.94,1.15-16.39,0.37
		c-4.62-0.66-5.93-5.07-2.88-9.14c5.17-6.89,11.89-12.1,18.96-16.85c6.92-4.66,14.26-8.54,22.36-10.82
		c0.42-0.12,0.73-0.61,1.11-0.94c-0.98-2.26-3.33-2.78-4.97-4.1c-6.92-5.57-13.02-11.97-18.46-18.89
		c-6.06-7.71-9.79-16.59-10.17-26.57c-0.42-11.16,5.54-19.54,12.25-27.58c6.96-8.34,14.61-16.01,23.14-22.69
		c5.77-4.52,8.85-10.62,12.03-16.86c5.28-10.38,12.03-19.6,22.23-25.71c9.97-5.97,20.54-7.24,31.6-3.4c1.4,0.49,2.48,1.1,4.14,0.16
		c6.26-3.52,12.21-7.44,17.69-12.11c6.09-5.18,6.34-12.14,5.94-19.22c-0.16-2.84-2.23-4.68-4.83-5.89
		c-8.59-3.99-17.18-7.97-25.69-12.11c-6.87-3.34-13.92-6.42-20.36-10.48c-7.74-4.87-15.1-5.89-23.38-1.6
		c-7.44,3.86-15.54,4.41-23.82,3.58c-3.76-0.38-7.51,0.33-11.37-0.51c-13.36-2.9-26.5-6.46-38.29-13.56
		c-11.84-7.13-20.6-17.22-26.25-29.87c-4.79-10.71-8.21-21.8-7.99-33.71c0.03-1.85-0.82-3.1-1.92-4.41
		c-8.57-10.25-15.71-21.45-21.92-33.27c-1.92-3.67-4.3-6.61-8.61-8.38c-12.63-5.19-21.42-14.68-28.22-26.44
		c-8.61-14.9-11.19-31.17-11.13-47.87c0.03-9.13-2.72-16.98-7.14-24.46c-6.7-11.34-10.23-23.71-13.06-36.42
		c-2.5-11.24-3.19-22.67-4.36-34.06c-1.07-10.42-0.42-20.86-0.95-31.28c-0.41-7.96-0.25-16.01-1.52-23.83
		c-1.07-6.61-4.74-12.36-10.3-16.57c-1.56-1.18-3.41-1.37-5.21-1.49c-12.97-0.87-25.72-3.39-38.56-5.21
		c-17.97-2.54-35.9-5.32-53.83-8.06c-18.77-2.87-37.55-5.61-56.4-7.92c-3.58-0.44-5.67-2.46-5.88-6.71
		c-0.32-6.48-0.19-12.99-0.3-19.49c-0.03-1.88,1.21-3.01,2.26-4.29c6.99-8.46,13.97-16.94,20.96-25.41
		c1.17-1.42,2.56-2.85,1.71-4.88c-1-2.41-3.3-1.93-5.21-1.87c-4.52,0.14-8.95-0.7-13.42-1.08c-2.18-0.19-3.72-1.28-4.34-3.5
		c-2.14-7.59-2.81-14.93,2.14-21.93c5.85-8.29,12.5-15.96,18.07-24.47C32.65,48.8,43.3,32.91,54.07,17.09
		c3.72-5.46,7.34-11.01,12.03-15.78c1.6-1.63,2.95-1.62,4.29-0.59c2.8,2.15,6.12,2.32,9.32,3.01c11.54,2.49,23.08,4.99,34.63,7.46
		c11.38,2.44,22.77,4.86,34.16,7.28c10.26,2.18,20.52,4.31,30.77,6.54c15.61,3.41,31.19,6.91,46.79,10.34
		c10.88,2.39,21.75,4.81,32.66,7.05c12.23,2.51,24.51,4.75,36.74,7.29c11.57,2.4,23.08,5.05,34.63,7.56
		c10.56,2.29,21.14,4.54,31.71,6.78c11.55,2.45,23.11,4.86,34.67,7.3c20.84,4.4,41.69,8.75,62.51,13.22
		c11.22,2.41,22.34,5.3,33.61,7.43c10.61,2.01,21.01,4.88,31.63,6.88c15.69,2.96,31.19,6.88,46.79,10.33
		c10.88,2.41,21.79,4.69,32.69,7.06c19.67,4.27,39.32,8.63,59.01,12.83c15.95,3.4,31.95,6.57,47.91,9.94
		c15.14,3.2,30.26,6.51,45.38,9.78c11.39,2.47,22.76,4.99,34.16,7.44c20.82,4.48,41.64,8.93,62.47,13.36
		c1.71,0.36,3.3,0.72,3.72,2.73c0.9,4.23,2.12,8.38,1.91,12.8c-0.14,2.92-1.26,4.91-3.79,6.52c-5.88,3.73-12.14,6.99-16.7,12.51
		c-1.11,1.35-3.33,2.16-2.6,4.41c0.78,2.41,2.68,3.72,5.19,4.11c4.28,0.65,8.55,1.42,12.84,1.93c4.72,0.57,6.49,1.98,7.15,6.7
		c0.71,5.12,0.85,10.28,0.59,15.46c-0.15,3.12-1.79,5.24-4.08,7.1c-8.92,7.25-17.82,14.52-26.7,21.83
		c-9.38,7.72-18.99,15.18-27.96,23.35c-3.84,3.5-7.79,3.96-12.18,3.37c-18.97-2.54-37.95-5.07-56.85-8.05
		C724.78,283.05,716.27,282.89,707.7,280.46z M325.59,276.97c2.4-2.25,3.6-4.57,5.89-5.72c2.57-1.29,3.36-3.18,2.79-6.13
		c-1.81-9.44,1.71-17.6,6.63-25.33c1.86-2.92,4.42-4.85,7.78-5.86c3.26-0.98,6.44-2.23,9.66-3.36c-0.04-0.31-0.08-0.63-0.11-0.94
		c-23.82-3.42-47.64-6.84-71.48-10.27c-0.15,1.13-0.35,1.58-0.21,1.76C300.36,238.94,314.14,256.78,325.59,276.97z M547.35,345.58
		c2.31,0,4.1,0.44,5.55-0.09c3.31-1.21,7.64-0.15,9.88-3.62c2.61-4.04,5.84-7.68,7.93-12.06c3.38-7.07,7.86-13.55,12.28-19.92
		c9.17-13.23,19.02-26.01,29.89-37.94c0.97-1.07,2.6-1.95,1.84-3.72c-0.7-1.62-2.43-1.5-3.89-1.72c-8.23-1.19-16.45-2.43-24.68-3.56
		c-1.7-0.23-3.51-0.8-5.31,0.3c1.19,3.49,2.47,6.73,3.39,10.07c5.16,18.58-4.26,34.75-22.93,41.61c-4.94,1.82-8.83,3.44-8.09,9.62
		c0.11,0.94-0.36,1.95-0.54,2.93C551.55,333.48,550.11,339.39,547.35,345.58z"/>
</g>
</svg>
