<?xml version="1.0" encoding="utf-8"?>
<!-- Generator: Adobe Illustrator 24.0.2, SVG Export Plug-In . SVG Version: 6.00 Build 0)  -->
<svg version="1.1" id="Layer_1" xmlns="http://www.w3.org/2000/svg" xmlns:xlink="http://www.w3.org/1999/xlink" x="0px" y="0px"
	 width="707.6" height="860.74" viewBox="0 0 707.6 860.74" style="enable-background:new 0 0 707.6 860.74;" xml:space="preserve">
<g>
	<path d="M553.89,802.18c-1.9-0.44-1.02-2.23-2.36-2.35c-5.72,4.4-5.72,4.4-8.76,4.77c2.09-8.68,7.85-15.55,10.92-24.13
		c-4.88,0.17-7.17,4.97-11.49,4.98c-1.76-3.97-0.17-8.23-2.08-12.17c-3.46,0.06-6.05,2.36-8.7,4.02c-3.72,2.33-8.02,3.17-11.8,5.31
		c-2.53,1.44-4.14-0.21-3.95-3.58c0.11-1.99,0.5-3.97,0.57-5.96c0.07-1.94,0.89-3.89-0.08-6.05c-7.91,3.81-16.71,5.83-22.46,13.3
		c-1.48,1.92-3.66,3.45-6.75,2.06c-0.04-5.89,1.93-11.02,4.9-15.92c8.38-13.86,18.4-26.51,29.05-38.61
		c11.1-12.62,22.75-24.74,35.99-35.22c9.65-7.64,18.83-15.86,28.65-23.3c5.18-3.93,11.04-6.74,16.54-10.62
		c-3.83-11.97-3.71-23.69,3.59-34.71c-2.34-3.56-4.33-7.14-6.04-10.94c-4.93-10.96-3.63-21.75,0.13-32.52
		c1.21-3.48,1.12-6.03-1.3-9.12c-6.51-8.33-8.66-18.13-8.2-28.57c0.04-1,0.13-1.99,0.14-2.99c0-0.32-0.17-0.64-0.32-1.18
		c-7.5-3.74-14.67-8.18-19.78-15.27c-0.85-1.18-1.88-1.7-3.42-1.45c-2.29,0.39-4.62,0.54-6.92,0.8c-3.39,5.22-5.74,10.92-8.99,16.16
		c-6.45,10.42-15.22,18.48-24.82,25.7c-3.68,2.77-5.85,6.04-7.14,10.31c-9.19,30.33-25.97,55.71-50.6,75.61
		c-4.74,3.83-7.93,8.04-10.59,13.33c-6.08,12.08-14.85,21.81-26.01,29.72c-10.05,7.12-20.76,12.58-32.41,16.11
		c-12.6,3.82-25.49,6.59-38.77,5.89c-16.98-0.9-33.93-2.2-49.02-11.4c-5.82-3.55-12.71-3.72-18.98-5.88
		c-10.58-3.66-19.75-9.48-27.76-17.2c-2.4-2.31-4.47-4.96-6.93-7.2c-8.18-7.46-14.02-16.68-17.91-26.76
		c-5.49-14.23-10.89-28.7-9.41-44.51c0.09-0.99,0.03-2-0.03-2.99c-0.02-0.3-0.25-0.58-0.44-0.98c-3.2,0-6.47-0.14-9.72,0.03
		c-8.4,0.42-13.69-3.9-17.49-10.89c-5.26-9.68-5.54-19.84-4.13-30.5c1.94-14.73,5.77-29.02,9.05-43.44
		c2.69-11.85,4.72-23.84,5.71-35.96c0.5-6.15,1.05-12.28,2-18.37c1.37-8.8,1.57-17.48-0.85-26.22c-1.44-5.22-1.5-10.74-3.79-15.87
		c-5.09-11.41-11.47-21.7-22.23-28.61c-2.51-1.61-5.31-2.77-7.9-4.27c-2.99-1.74-5.37-0.87-7.58,1.39
		c-5.85,5.97-10.46,12.75-14.66,20.02c-4.5,7.81-6.9,16.13-8.85,24.73c-0.22,0.97-0.56,2.02-0.4,2.96
		c1.31,7.9-2.94,12.92-8.78,17.09c-4.92,3.52-8.82,8.11-12.94,12.43c-3.9,4.08-5.02,9.69-7.1,14.73
		c-2.28,5.53-4.04,11.25-6.79,16.61c-4.33,8.43-11.38,10.1-20.21,6.44c-4.26-1.77-8.19-4.34-12.81-5.44
		c-1.74,2.08-0.08,3.98-0.11,5.84c-0.19,13.21-0.82,26.31-7.97,38.07c-3.95,6.49-8.42,12.48-15.74,15.45
		c-10.31,4.17-18.17,2.98-24.17-3.08c-9.32-9.42-12.14-16.62-5.46-29.09c2.53-4.72,7.45-6.97,12.89-7.51c0.49-0.05,1.02,0,1.48,0.16
		c1.39,0.47,3.11,0.75,3.1,2.69c-0.01,1.67-1.42,2.13-2.78,2.35c-5.69,0.9-8.26,4.67-10.09,9.79c-1.73,4.83,0.3,8.55,2.5,12.17
		c5.51,9.05,17.01,10.55,24.3,2.9c8.27-8.67,13.22-19.09,13.77-31.25c0.21-4.81,0.75-9.61,0.09-14.46
		c-0.93-6.92-1.77-8.04-8.69-9.32c-2.94-0.54-5.96-0.73-8.88-1.39c-12.13-2.76-18.47-13.95-14.09-25.59
		c1.45-3.86,0.05-7.57,0.87-11.68c3.16,0.48,3.92-1.81,5.18-4.03c2.88-5.08,4.77-10.61,7.54-15.72c2.18-4.02,1.02-7.75-0.65-11.45
		c-2.81-6.2-5.81-12.33-8.7-18.49c-4.84-10.3-6.92-21.15-4.57-32.52c0.37-1.8,0.1-2.9-1.59-4.15c-3.34-2.46-6.33-5.39-9.41-8.2
		c-3.49-3.17-3.75-5.62-0.91-9.54c1.26-1.75,2.87-3.24,4.21-4.94c2.34-2.96,3.48-6.3,3.05-10.32c-2.5,0.16-2.44,3.42-4.88,3.33
		c-1.86-0.58-2.03-2.28-2.14-3.95c-0.13-1.99-0.48-4.06-0.13-5.98c1.2-6.7-2.61-10.08-7.88-12.68c-2.57-1.27-5.22-2.26-8.1-2.34
		c-6.28-0.16-9.88-3.3-10.9-9.47c-0.13-0.82-0.39-1.62-0.61-2.42c-2.1-7.88-2-7.75,4.4-12.74c7.45-5.81,11.28-13.27,10.22-23.05
		c-1.29-11.94-3.84-23.65-5.91-35.45c-0.75-4.3-3.01-8.07-5.23-11.8c-1.36-2.28-2.57-4.65-2.64-7.59c2.69-1.23,3.82,0.62,5.17,2.33
		c9,11.35,18.01,22.69,27.13,33.94c3.03,3.74,6.11,7.5,10.06,10.38c1.85,1.35,3.69,2.72,5.74,4.23c1.71-2.89,2.11-5.28,0.75-8.22
		c-6.45-13.86-12.77-27.78-19-41.74c-6.09-13.65-11.54-27.59-18.23-40.98c-0.76-1.52-1.09-3.13-1.47-4.76
		c-0.55-2.36-0.95-4.95,1.43-6.33c2.48-1.44,5.21-0.72,7.53,0.88c2.52,1.73,4.23,4.29,5.89,6.74c7.37,10.88,14.49,21.94,21.86,32.83
		c3.61,5.33,7.56,10.42,11.61,15.97c2.7-2.56,4.5-5.33,6.68-7.72c7.47-8.17,15.86-15.27,25.18-21.12
		c5.51-3.46,8.11-8.55,10.24-14.12c4.5-11.8,9.2-23.52,14.62-34.9c7.01-14.7,12.17-30.2,19.76-44.63c1.17-2.22,1.15-4.86,2.49-7.04
		c2.01-3.26,4.03-3.42,6.77-0.77c3.93,3.8,2.8,8.46,1.86,12.7c-3.89,17.51-8.24,34.93-13.69,52.03c-2.52,7.89-3.33,16.21-7.09,24.03
		c3.7,0.9,6.19-1.33,9.16-1.4c14.84-0.39,29.62-0.31,44.35,1.78c9.21,1.31,18.63,1.19,27.64,3.88c1.91,0.57,3.8,1.26,5.62,2.07
		c5.71,2.54,8.79,2.36,12.27-2.92c7.53-11.42,17.39-20.56,27.34-29.67c1.35-1.24,1.81-2.62,1.59-4.46
		c-1.46-12.11-3.92-23.97-9.26-35.03c-1.22-2.53-1.63-5.02-1.33-7.72c0.26-2.38,0.6-4.73,3.34-5.59c2.75-0.86,4.95,0.22,6.6,2.34
		c3.69,4.76,8.11,8.82,12.38,13.02c1.15,1.13,2.05,2.73,4.82,2.49c2.52-5.1,5.48-10.51,7.17-16.35
		c5.31-18.37,10.49-36.76,16.81-54.82c4.06-11.61,6.98-23.57,10.45-35.36c1.42-4.82,2.01-5,5.82-2c5.26,4.15,8.27,9.07,7.14,16.32
		c-2.81,17.92-5.94,35.79-7.76,53.85c-0.78,7.79-1.14,15.55-1.14,23.2c1.89,0.92,2.34-0.49,3.08-1.24
		c8.39-8.45,14.35-18.75,21.36-28.25c0.69-0.94,1.37-1.89,2.03-2.85c1.33-1.93,3.12-2.68,5.13-1.36c1.67,1.1,3.02,2.61,2.23,5.02
		c-2.67,8.23-5.51,16.41-7.86,24.73c-3.57,12.6-8.82,24.8-9.1,38.21c-0.08,3.71,0.72,5.97,4.53,7.62
		c15.61,6.78,26.64,19.1,37.06,31.96c4.75,5.86,10.17,11,15.69,16.05c2.97,2.72,3.85,2.46,5.95-1.18c2.99-5.16,6.03-10.31,9-15.48
		c1.39-2.42,3.32-3.27,5.82-1.97c2.33,1.21,3.1,3.19,2.64,5.86c-1.31,7.49-1.12,15.12-1.78,22.67c-0.54,6.17,4.16,8.63,9.43,5.4
		c3.39-2.08,6.64-4.48,9.66-7.06c15.31-13.09,31.44-25.18,46.51-38.55c0.98-0.87,2.08-1.75,3.28-2.23c2.23-0.89,4.05-0.24,4.51,2.32
		c1.19,6.61,0.86,12.85-4.07,18.21c-10.71,11.63-21.32,23.36-31.32,35.61c-3.91,4.79-7.63,9.7-9.45,15.74
		c-1.39,4.59-0.37,6.89,4.07,8.62c3.79,1.47,7.61,2.21,11.67,0.63c2.29-0.89,4.7-1.72,7.24-1.6c4.91,6.34,3.44,13.78-3.3,17.56
		c-14.36,8.04-29.05,15.54-42.83,24.6c-3.47,2.28-6.82,4.65-9.75,7.68c2.09,4.34,4.27,8.45,6.08,12.72
		c6.98,16.46,9.72,33.83,10.57,51.54c0.3,6.23-1.18,12.22-3.84,17.89c-0.63,1.33-1.62,2.65-1.16,4.24c1.44,5.01,1.02,10.26,2,15.34
		c3.76,19.58,2.77,39.16-1,58.57c-1.52,7.84-5.48,14.94-9.67,21.76c-0.86,1.41-1.94,2.54-1.82,4.45c0.5,8.33-0.46,16.58-1.21,24.88
		c-0.96,10.6-1.96,21.15-4.38,31.55c-0.75,3.22-2.59,6.16-2.51,9.57c4.97,1.41,6.71,0.58,8.42-3.83
		c7.67-19.8,20.74-35.46,37.37-48.29c2.32-1.79,3.67-3.68,4.06-6.48c1.34-9.75,5.56-18.36,10.82-26.5
		c7.04-10.9,15.73-20.25,26.78-27.18c5.78-3.63,11.75-7.16,18.6-8.19c5.02-0.76,8.88-3.29,12.8-6.11c4.71-3.39,9.53-6.68,15.26-8.19
		c2.01-0.53,2.62-1.83,2.57-3.69c-0.32-12.38,1.2-24.6,3.25-36.77c2.68-15.92,5.18-31.87,9.59-47.43c0.56-1.97,1.1-3.67,3.44-4.43
		c4.74-1.54,6.57-0.58,6.88,4.41c0.46,7.31,0.97,14.63,1,21.95c0.03,6.34,2.66,11.96,4.13,17.89c0.16,0.65,0.8,1.01,1.73,1.26
		c3.68-4.95,7.37-10.01,11.16-15.01c14.59-19.24,29.65-38.1,45.89-55.99c3.69-4.06,8.06-7.43,11.53-11.76
		c2.83-3.53,8.85-2.82,13.54,1.22c-0.7,2.63-1.83,5.13-3.37,7.54c-5.67,8.89-9.83,18.47-12.5,28.68c-1.1,4.2-0.37,5.18,4.03,4.72
		c5.14-0.53,10.1-2.07,15.11-3.33c4.34-1.09,5.26-0.31,5.6,4.15c0.31,4.07-0.62,7.3-4.04,10.05c-10.92,8.76-16.93,21.17-23.83,32.9
		c-3.64,6.19-6.23,12.87-9.03,19.45c-0.48,1.12-0.95,2.24,0.07,3.23c1.22,1.18,2.44,0.53,3.62-0.2c4.52-2.81,8.88-5.88,13.73-8.12
		c3.22-1.49,4.28-0.99,5.55,2.37c1.79,4.71,0.93,8.78-2.66,12.31c-9.86,9.68-19.19,19.9-29.37,29.27c-0.72,0.66-1.34,1.43-2.17,2.33
		c2.27,3.2,4.37,6.34,6.66,9.34c3.29,4.31,5.4,9.23,6.86,14.32c1.02,3.55,2.71,6.05,5.44,8.5c5.18,4.65,10.36,9.41,14.12,15.42
		c6.46,10.32,10.47,21.46,11.25,33.67c0.04,0.63-0.08,1.34,1.13,1.93c2.95-2.79,5.98-5.78,9.13-8.63
		c11.54-10.47,23.81-19.8,39.01-24.43c0.79-0.24,1.57-0.59,2.38-0.74c2.23-0.43,4.65-1.54,6.37,0.95c1.54,2.24,0.96,6.83-1.23,8.65
		c-5.24,4.37-10.53,8.68-15.94,12.84c-4.54,3.49-8.43,7.55-11.72,12.2c-1.04,1.46-2.33,2.88-1.86,4.98
		c1.69,0.99,3.53,0.71,5.33,0.67c1.83-0.04,3.66-0.26,5.49-0.22c4.45,0.09,7.74,2.08,8.31,4.92c1.08,5.34-0.25,8.66-4.8,10.78
		c-4.79,2.23-8.89,5.14-11.9,9.55c-2.33,3.42-2.45,6.25-0.06,9.56c0.88,1.21,1.9,2.32,2.82,3.51c0.95,1.24,3.03,2.03,2.09,4.09
		c-1.01,2.22-2.7,3.92-5.3,4c-7.15,0.21-14.31,0.71-21.4-0.76c-2.28-0.47-4.77-1.39-6.23,1.31c-1.46,2.69-2.15,5.15,0.39,8.15
		c3.54,4.18,4.3,9.73,4.73,15.02c0.93,11.37,0,22.56-3.52,33.55c-1.51,4.71-0.26,9.86-0.41,14.81c-0.35,11.88-3.45,22.99-8.78,33.51
		c-2.23,4.4-3.22,8.55-2.39,13.71c1.14,7.02,1.14,14.28,1.17,21.41c0.08,16.8-0.09,33.64-1.53,50.38
		c-2.21,25.73-6.7,51.12-13.28,76.11c-3.26,12.39-7.83,24.36-12.52,36.27c-0.72,1.82-1.07,5.48-4.29,4.39
		c-2.95-1-1.61-4.05-1.03-6.12c1.94-6.93,3.91-13.81,1.43-21.26c-3.63-1.6-7.11,1.82-11.47,0.94c0.48-6.82,2.89-13.5,1.96-21.07
		c-6.16,2.72-10.39,8.16-16.47,9.52c-1.85-1.4-1.63-2.99-1.6-4.44c0.2-7.97,0.95-15.9,2.27-23.76c0.6-3.58-0.7-5.31-4.02-4.71
		c-4.39,0.78-8.7,2.05-13.04,3.02c-3.08,0.69-5.62,3.9-8.34,6.07C557.75,800.19,555.92,801.59,553.89,802.18z M239.64,559.97
		c1.42-2.66,2.45-5.02,4.48-6.51c1.98-1.46,1.74-3.04,1.32-5.23c-1.99-10.42-2.19-21.07,0.68-31.18
		c4.75-16.8,10.92-33.15,20.68-47.86c1.45-2.19,1.83-4.09,0.27-6.39c-2.51-3.72-3.09-7.92-3.1-12.37
		c-0.03-14.32,3.91-27.95,7.02-41.71c1.5-6.65,2.46-13.37,3.68-20.05c1.25-6.89,1.24-13.53-2.97-19.5
		c-1.29-1.83-0.19-4.59-2.49-6.21c-4.18,7.9-5.33,15.6-1.29,23.65c1.63,3.24,1.42,6.33-1.34,9.14c-2.68,2.73-5.19,5.64-7.56,8.64
		c-1.59,2.02-3.03,1.66-4.58,0.24c-0.85-0.78-1.61-1.69-2.3-2.62c-6.64-9.07-14.57-16.85-23.4-23.76
		c-7.34-5.75-14.64-11.5-23.52-14.84c-2.89-1.09-5.29-1.44-7.82,0.79c-2.61,2.31-5.49,4.32-8.25,6.47c-4.06,3.16-4.03,4.04,0.22,6.6
		c9.38,5.65,18.15,12.36,23.63,21.82c8.83,15.24,14.61,31.65,13.39,49.75c-0.71,10.62-0.81,21.34-2.4,31.84
		c-2.69,17.75-7.24,35.15-11.74,52.53c-3.55,13.72-5.94,27.47-4.15,41.87c1.19,9.54,8.47,15.89,17.91,15.41
		c4.44-0.23,5.25-1.03,6.28-5.52c0.41-1.78,1.19-3.5,1.37-5.3c0.6-5.79,4.53-11.73-0.99-17.31c-1.31-1.32-1.14-3.64,0.42-5.01
		c1.63-1.42,3.06-0.25,4.3,1.02C237.87,558.82,238.46,559.13,239.64,559.97z M61.24,414.85c0.92-4.07,2.11-6.94,3.36-9.83
		c1.49-3.43,2.08-7.37,1.75-11.18c-0.74-8.43-2.74-16.67-4.46-24.93c-0.5-2.41,0.02-5.79-3.32-6.57c-3.44-0.8-5.45,1.93-7.47,4.09
		c-1.49,1.6-2.42,3.58-2.59,5.83c-0.4,5.17-0.33,10.28,1.17,15.32c1.8,6.06,4.53,11.76,6.6,17.73
		C57.3,408.25,58.48,411.46,61.24,414.85z"/>
</g>
</svg>
