<?xml version="1.0" encoding="utf-8"?>
<!-- Generator: Adobe Illustrator 24.0.2, SVG Export Plug-In . SVG Version: 6.00 Build 0)  -->
<svg version="1.1" id="Layer_1" xmlns="http://www.w3.org/2000/svg" xmlns:xlink="http://www.w3.org/1999/xlink" x="0px" y="0px"
	 viewBox="0 0 860.62 650.93" style="enable-background:new 0 0 860.62 650.93;" xml:space="preserve">
<g>
	<path d="M755.98,650.2c-2.58,1.32-4.15,0.71-5.58-0.69c-5.46-5.31-11.59-9.92-16.64-15.68c-3.81-4.35-9.21-4.2-14.24-4.64
		c-2.99-0.26-5.37,1.45-6.32,4.62c-1.75,5.82-5.91,10.4-8.27,15.92c-0.28,0.64-0.92,0.92-2.02,1.16
		c-2.73-5.09-6.11-10.07-8.21-15.55c-5.08-13.24-12.79-25.2-18.01-38.35c-1.35-3.39-2.94-6.7-4.59-9.95
		c-2.62-5.15-7.3-8.11-12.11-10.8c-12.35-6.9-24.81-13.6-37.11-20.58c-2.61-1.48-4.63-1.8-7.37-0.34
		c-6.05,3.22-12.94,2.78-19.48,3.76c-15.2,2.27-30.44,2.55-45.82,1.52c-7.57-0.51-15.26-0.59-22.91-0.48
		c-20.75,0.3-40.64-3.69-59.62-12.11c-3.85-1.71-7.35-4.1-10.3-6.96c-2.96-2.86-5.89-3.17-9.54-2.29
		c-13.57,3.28-27.22,6.17-40.47,10.78c-8.32,2.89-16.86,5.18-25.2,8.06c-3.13,1.08-5.44,2.56-7.03,5.72
		c-4.81,9.5-10.65,18.53-14.81,28.29c-3.34,7.84-9.2,10.1-16.52,11.53c-10.56,2.06-21.27,3.56-31.46,7.16
		c-7.79,2.75-15.31,6.31-23.51,7.82c-1.41,0.26-2.81,1.28-4.55,0.03c0.45-5.52,6.34-7.49,8.96-12.89
		c-11.76,3.04-22.46,6.91-33.95,7.3c-0.71-3,1.36-4.3,2.86-5.59c9.83-8.5,19.95-16.61,31.78-22.27c5.2-2.49,5.19-2.71,2.48-7.78
		c-5.83-10.89-10.42-22.36-13.9-34.14c-2.68-9.08-3.5-18.66-2.39-28.2c0.78-6.71,3.51-12.72,6.86-18.57
		c7.22-12.62,15.44-24.48,24.88-35.55c11.67-13.68,23.69-27.04,36.76-39.37c10.89-10.28,22.55-19.73,34.3-29.01
		c4.99-3.94,9.5-8.37,13.78-13.03c3.25-3.54,4.73-7.72,5.29-12.61c1.1-9.59,3.81-18.91,5.82-28.35c3.13-14.69,5.38-29.56,5.38-44.55
		c0-16.16-1.81-32.25-6.35-47.89c-0.96-3.29-1.15-6.75-1.85-10.08c-2.15,0.28-2.51,1.64-2.86,2.9
		c-5.49,19.52-17.47,34.95-31.17,49.27c-1.5,1.57-3,2.82-2.96,5.41c0.21,12.13-4.14,23.14-9.06,33.9
		c-4.92,10.79-11.33,20.7-18.61,30.08c-4.79,6.17-8.98,12.82-14.88,18.09c-0.89,0.8-1.29,1.84-1.49,3.06
		c-1.42,8.97-4.49,17.39-9.53,24.92c-8.24,12.33-18.65,22.31-33.39,26.19c-13.26,3.49-26.59,3.38-39.61-1.83
		c-6.47-2.59-13.34-4.11-19.32-7.95c-2.41-1.54-4.49-0.9-6.12,1.97c-7.04,12.36-11.22,25.55-12.19,39.61
		c-0.92,1.76-3.68,0.6-4.12,3.23c-0.27,1.62-2.29,0.93-3.47,0.52c-2.66-0.93-5.59-1.61-7.81-3.23c-5.93-4.31-12.63-7.33-18.53-11.71
		c-14.66-10.88-20.72-26.01-22.11-43.5c-0.83-10.48,0.79-20.59,5.65-30.04c0.78-1.52,1.01-3.17,1.22-4.82
		c1.29-10.36,4.54-20.09,9.42-29.29c0.72-1.35,1.45-2.66,1.28-4.22c-1.47-13.1,2.65-24.87,8.66-36.17
		c3.58-6.74,6.83-13.58,11.64-19.71c17.18-21.93,46.9-31.33,72.48-22.87c4.91,1.62,9.74,3.35,14.3,5.74
		c2.78,1.45,5.49,1.01,8.27,0.52c10.16-1.82,20.39-3.33,30.7-3.47c11.03-0.15,21.87,1.75,32.34,5.29c2.44,0.83,3.9,0.46,5.66-1.37
		c5.79-6.01,10.75-12.69,15.74-19.31c7.92-10.49,14.92-21.53,19.6-34.01c3.6-9.59,3.68-17.48-3.67-26.03
		c-14.17-16.5-29.28-31.4-49.54-40.22c-6.16-2.68-12.76-3.65-19.23-5.1c-23.44-5.25-45.81-0.26-67.25,8.59
		c-16.29,6.72-31.99,15.21-44.72,27.8c-9.56,9.46-19.44,18.82-26.56,30.38c-4.88,7.92-8.97,16.33-13.33,24.56
		c-2.65,5-5.09,10.11-7.71,15.12c-2.09,3.99-5.49,6.71-9.45,8.59c-4.64,2.21-10.24-1.47-12.03-7.25c-1.91-6.17-2-12.54-2.03-18.81
		c-0.11-19.6,2.86-38.77,9.27-57.37c6.37-18.48,14.64-36.05,24.98-52.63c10.44-16.75,22.98-31.69,37.23-45.43
		c9.66-9.31,19.99-17.64,30.87-25.27c16.05-11.26,32.4-22.15,51.09-28.85c15.5-5.56,31.3-10.2,47.19-14.35
		c10.74-2.8,22.04-3.26,33.14-4.16c5.23-0.42,10.18-2.18,15.57-2.16c5.97,0.02,12.02-0.6,17.91,0.27
		c13.46,1.98,27.21,1.54,40.51,3.98c14.64,2.69,29.34,5.68,43.38,11c4.17,1.58,8.56,2.56,12.58,4.62c1.02,0.52,2.21,0.54,3.42,0.43
		c13.14-1.15,26.29-0.08,39.43-0.02c6.42,0.03,12.84,1.74,19.26,2.71c1.48,0.22,2.95,0.71,4.43,0.71
		c11.67,0.05,20.02,6.19,28.22,13.82c14.69,13.66,25.68,30.61,40.41,44.17c6.5,5.97,13.04,11.91,19.29,18.14
		c6.94,6.92,14,13.78,17.44,23.41c1.69,4.72,3.27,9.42,3.35,14.45c0.13,8.16,0.33,16.34-0.06,24.49c-0.23,4.75,0.9,8.84,3.35,12.72
		c7.93,12.51,12.56,26.4,16.92,40.39c1.97,6.32,3.67,12.74,5.18,19.19c0.53,2.27,1.56,3.19,3.65,4.05
		c5.22,2.15,10.38,4.69,15.1,7.66c4.56,2.87,7.82,7.64,11.21,11.96c7.97,10.16,11.42,21.98,12.19,34.65
		c0.63,10.41,0.29,20.81,1.43,31.28c1.83,16.96-1.09,33.48-10.18,48.4c-1.28,2.1-1.4,4.16-1.38,6.59
		c0.06,7.82-0.73,15.62-1.99,23.34c-0.31,1.88-0.41,3.5,0.26,5.31c1.61,4.36,3.13,8.76,4.52,13.2c0.68,2.16,1.91,2.93,4.08,2.62
		c1.14-0.17,2.46-0.47,3.46-0.09c5.67,2.13,10.16-0.03,14.81-3.14c3.28-2.19,7.27-3.3,11.17-4.18c1.99-0.45,3.74-1.37,5.58-2.13
		c1.99-0.82,2.91-2.37,2.34-4.39c-1.38-4.88,1.21-7.54,5.05-9.6c1.17-0.63,2.32-1.34,3.54-1.84c3.47-1.42,5.25-4.1,5.33-7.7
		c0.2-8.84,0.94-17.63,1.93-26.41c0.41-3.63,0.06-7.28-0.16-10.94c-0.64-10.34,0.72-20.56,2.71-30.69
		c1.58-8.07,5.96-13.56,14.42-15.2c9.33-1.82,18.75-3.36,28.23-3.2c5.72,0.1,11.62,1.02,17.01,3.29
		c8.35,3.52,12.44,10.11,12.65,19.12c0.05,2.16,0.09,4.34-0.13,6.49c-1.13,11.28-1.11,22.63-1.82,33.92
		c-1.15,18.25-2.73,36.52-6.71,54.43c-1.32,5.96-5.02,10.84-8.68,15.62c-9.27,12.11-19.61,23.08-33.22,30.49
		c-1.16,0.63-2.14,1.61-3.31,2.23c-6.15,3.3-9.29,8.2-10.27,15.32c-0.76,5.49-3.26,10.78-5.28,16.04
		c-2.18,5.67-6.89,8.93-12.27,11.03c-5.58,2.18-10.82,5.13-16.58,6.89c-3.1,0.95-4.85,3.38-4.9,6.82
		c-0.06,3.67-0.18,7.33-0.29,10.99c-0.7,22.94-1.19,45.9-2.55,68.82c-0.34,5.82-0.97,11.6-1.67,17.39
		c-0.46,3.76,1.14,7.44,1.77,11.17C755.58,639.66,755.74,645.05,755.98,650.2z"/>
	<path d="M48.46,398.6c-0.94,2.18-2.89,3.53-4.32,5.26c-4.51,5.47-5.38,13.42-2.37,19.15c2.66,5.06,7.06,6.81,12.3,6.84
		c11.39,0.06,20.92-5.13,29.71-11.6c13.29-9.78,23.78-22.1,31.98-36.49c6.62-11.6,12.71-23.39,16.02-36.39
		c2.85-11.21,3.16-22.71,3.41-34.21c0.24-10.65,0.58-21.3,0.98-31.95c0.15-3.98,1.69-7.62,3.44-11.2c1,5.58,0.54,11.15,0.39,16.68
		c-0.42,15.21,1.66,30.25,3.05,45.31c1.24,13.51,0.71,26.91-0.03,40.39c-1.64,29.82-14.02,55.57-30.11,79.79
		c-8.61,12.96-19.97,23.63-31.92,33.58c-8.44,7.03-16.94,13.99-25.38,21.01c-13.21,11-22.52,24.94-26.75,41.76
		c-2.03,8.07-0.19,15.96,4.34,22.91c3.6,5.52,14.03,6.52,18.12,2.16c1.99-2.12,3.09-4.44,1.52-7.19c-1.38-2.42-5.66-3.5-8.35-2.28
		c-0.72,0.33-1.28,1.08-2.22,0.74c1.28-7.66,11.29-9.49,16.58-6.46c10.73,6.15,8.29,18.96,2.66,25.51
		c-3.84,4.47-8.91,6.76-14.64,7.8c-12.62,2.29-32.64-5.48-39.27-16.79c-6.92-11.82-8.57-24.37-7.06-37.52
		c2.07-18.06,9.85-33.66,21.3-47.61c6.04-7.35,12.31-14.41,19.93-20.18c0.53-0.4,0.92-0.95,0.79-2.15c-2.43-1.04-5.25-0.9-7.96-1.09
		c-13.24-0.93-22.16-10.24-21.35-24.81c0.55-9.84,5.08-17.67,11.1-24.49c5.9-6.68,12.86-12.55,21.19-16.37
		c0.59-0.27,1.22-0.48,1.85-0.59C47.62,398.07,47.94,398.36,48.46,398.6z"/>
</g>
</svg>
