<?xml version="1.0" encoding="utf-8"?>
<!-- Generator: Adobe Illustrator 24.0.2, SVG Export Plug-In . SVG Version: 6.00 Build 0)  -->
<svg version="1.1" id="Layer_1" xmlns="http://www.w3.org/2000/svg" xmlns:xlink="http://www.w3.org/1999/xlink" x="0px" y="0px"
	 viewBox="0 0 851.51 861.07" style="enable-background:new 0 0 851.51 861.07;" xml:space="preserve">
<g>
	<path d="M809.3,655.67c-0.17,1.6,0.81,2.3,1.67,3.09c9.15,8.52,17.99,17.36,25.66,27.25c4.96,6.4,10.4,12.62,12.2,20.91
		c0.11,0.49,0.12,1.13,0.43,1.41c1.93,1.74,3.01,4.07,1.61,6.19c-1.99,3.02-3.59,6.86-8.09,7.19c-2.49,0.18-4.99,0.47-7.48,0.43
		c-5.58-0.07-10.82,1.44-16.74,3.03c1.41,4.94,1.34,9.83,0.32,14.72c-0.89,4.25-1.82,8.47-4.69,11.93c-0.89,1.06-1.44,2.15-1.39,3.6
		c0.53,15.72-6.54,28.61-15.84,40.35c-4.75,6-11.17,9.91-19.63,8.55c-1.33-2.53-0.79-4.94-0.33-7.38c1.56-8.15,3.58-16.23,3.74-24.6
		c0.06-3.19,0.68-6.6-3.35-7.9c-4.79-1.55-8.51-0.34-10.65,3.8c-2.85,5.51-6.64,10.3-10.4,15.17c-2.5,3.23-5.06,6.17-8.78,7.88
		c-1.93,0.89-2.56,2.26-2.57,4.33c-0.04,5.98,0.18,11.99-2.02,17.76c-0.76,1.98,0.17,3.81,1.04,5.7c2.54,5.55,5.46,10.94,7.52,16.71
		c2.27,6.35,2.08,13.06,2.96,19.6c0.42,3.15-3.42,5.77-6.81,5.67c-5.38-0.15-9.37-3.35-13.38-6.16
		c-10.9-7.62-22.13-14.82-32.25-23.52c-2.59-2.22-5.87-2.28-8.96-2.44c-11.81-0.59-22.77-3.75-33.23-9.33
		c-7.37-3.93-13.74-8.6-18.15-15.84c-5.81-9.54-6.14-19.21-0.78-28.88c1.6-2.88,2.28-5.14,0.78-8.3c-1.26-2.65-1.97-5.73-2.16-8.67
		c-0.28-4.49-3.04-5.85-6.72-6.71c-9.43-2.2-18.49-5.43-27.11-9.91c-14.11-7.34-26.35-16.78-34.94-30.44
		c-0.43-0.69-0.97-1.31-1.73-2.32c-3.97,2.22-7.49,4.96-11.31,7.16c-12.48,7.17-26.16,10.56-40.01,13.57
		c-11.24,2.45-22.63,3.84-34.12,4.3c-11.66,0.47-23.25-0.45-34.8-1.99c-13.47-1.8-26.36-5.7-38.56-11.6
		c-10.77-5.22-20.88-11.62-31.34-19.08c-10.14,9.66-21.87,17.05-37.4,14.06c-1.88,2.8-1.83,5.23,0.35,7.75
		c1.74,2.01,3.09,4.32,4.3,6.71c5.58,10.95,3.47,20.03-6.51,27.31c-15.52,11.31-33.14,17.33-51.84,20.79
		c-8.67,1.6-17.48,2.38-26.19,3.36c-5.04,0.56-9.2,2.19-13.5,4.17c-12.29,5.67-25.35,9.11-38.23,13.05
		c-2.74,0.84-6.35,1.52-8.44-1.21c-2.22-2.91-1.06-6.47,0.35-9.46c4.25-9.01,10.9-16.31,17.54-23.55
		c3.82-4.16,7.66-8.35,12.31-11.66c1.37-0.98,2.42-2.3,3.14-3.83c4.48-9.51,12.46-15.42,21.22-20.46c3.87-2.23,7.92-4.17,11.76-6.18
		c0.4-1.37-0.66-1.6-1.25-1.99c-14.78-10.03-18.17-24.91-13.11-40.83c1.89-5.95,5.16-11.17,8.29-16.45
		c1.08-1.81,1.42-3.47,1.45-5.57c0.22-15.92,2.29-31.49,8.84-46.24c2.1-4.72,3.8-9.6,6.88-13.81c2.44-3.35,3.99-3.75,7.58-1.62
		c3.89,2.3,7.23,5.36,10.53,8.41c2.36,2.18,5.05,3.74,7.71,5.44c3.18,2.04,5.97,1.62,8.82-0.27c3.9-2.58,7.48-5.57,10.97-8.67
		c1.28-1.13,2.12-2.42,1.71-4.37c-4.31-20.52-7.21-41.33-12.87-61.57c-0.13-0.45-0.51-0.82-0.76-1.21
		c-2.04-0.73-3.61,0.41-5.25,1.12c-4.95,2.13-10.03,3.43-15.5,3.28c-8.39-0.24-16.49,1.42-24.5,3.93c-4.38,1.37-8.94,2.81-13.7,1.49
		c-1.4-0.39-2.65,0.07-3.69,1.03c-6.16,5.65-13.26,10.06-19.87,15.11c-1.53,1.17-3.36,2.2-3.39,4.62
		c-0.12,10.23-5.12,18.65-11.14,26.16c-10.48,13.06-19.15,27.14-27.16,41.78c-4.17,7.62-7.81,15.4-11.16,23.38
		c-1.86,4.43-3.86,8.9-7.45,12.31c-3.96,3.78-8.4,3.27-11.27-1.35c-3.5-5.63-4.42-12.14-6.07-18.4c-0.78-2.95-0.16-6.9-3.9-8.03
		c-3.32-1.01-4.89,2.52-6.68,4.31c-9.16,9.19-18.34,18.4-25.4,29.44c-3.07,4.81-5.06,10.12-7.41,15.24
		c-1.75,3.83-4.66,6.03-8.17,7.63c-3.39,1.54-7.75-0.26-10.4-3.9c-2.68-3.69-3.97-8.04-5.63-12.2c-1.37-3.43-3.17-6.62-5.37-9.53
		c-1.27-1.69-3.08-3.26-5.53-2.61c-2.33,0.61-3.13,2.47-3.84,4.72c-3.45,11.01-4.95,22.38-6.63,33.73c-0.85,5.73-3.16,7.2-8.54,5.1
		c-4.01-1.57-7.61-3.95-10.82-6.79c-2.37,0.94-2.13,3.08-2.39,4.72c-0.75,4.76-1.83,9.46-2.17,14.31
		c-0.48,6.79-6.4,10.11-12.95,8.04c-8.41-2.65-12.9-9.5-17.96-15.86c-3.4-4.28-4.87-9.58-7.27-14.32c-2-3.93-1.84-9.54,0.73-14.09
		c0.93-1.64,1.19-3.41,1.53-5.16c0.71-3.64,1.78-7.12,4.04-10.11c0.84-1.12,1.39-2.24,1.28-3.66c-0.84-10.99,4.93-19.36,11-27.59
		c2.09-2.83,5.19-4.78,7.27-7.51c2.24-2.95-0.42-6.47,0.11-9.98c1.56-10.45,5.66-18.87,13.42-26.39c7.59-7.35,16.99-9.05,26.2-10.9
		c9.61-1.93,19.23-3.86,28.8-5.98c15.14-3.36,29.56-8.76,43.38-15.73c9.36-4.72,18.77-9.34,27.91-14.52
		c9.63-5.46,20.12-8.57,31.21-9.42c1.47-0.11,3.13-0.19,4.44,0.35c4.46,1.82,7.87,0.23,11.45-2.43
		c6.82-5.09,13.18-10.68,19.58-16.26c1.34-1.17,2.17-2.4,2.1-4.27c-0.04-1.14,0.55-2.3,0.49-3.44c-0.47-9.46,4.78-15.65,11.93-20.6
		c8.18-5.66,13.22-13.92,18.66-21.85c1.5-2.19,2.74-4.58,3.9-6.98c3.66-7.59,8.82-14.04,14.84-19.85c1.85-1.79,2.41-3.8,2-6.33
		c-1.63-10.05-0.54-20.23-1.24-30.35c-0.3-4.39,1.63-9.05,2.47-13.6c3.65-19.88,10.17-38.82,20.18-56.4
		c2.63-4.62,2.12-8.4-0.36-12.55c-7.35-12.29-16.54-23.5-22.63-36.46c-3.65-7.76-9.03-10.31-16.89-10.11
		c-3.96,0.1-7.3-1.73-10.38-4.28c-7.58-6.28-10.89-14.77-9.6-23.92c1.37-9.72,7.04-19.57,18.63-22.19
		c11.19-2.53,20.32-0.35,27.98,8.11c5.05,5.58,6.26,12.21,5.65,19.5c-0.48,5.64-2.12,10.72-5.69,15.13
		c-0.93,1.14-1.32,2.34-0.53,3.67c7.97,13.45,15.9,26.92,27.6,38.02c3.36-2.32,3.98-4.95,3.27-9.2
		c-1.89-11.32-4.09-22.58-6.06-33.88c-3.91-22.31-6.78-44.76-9.36-67.26c-1.02-8.91-2-17.81-2.87-26.73
		c-0.62-6.39-2.28-12.75-6.76-17.88c-4.05-4.64-7.88-9.49-12.08-13.99c-6.66-7.12-15.74-8.29-24.74-9.04
		c-5.77-0.48-11.53-0.11-17.23,1.85c-6.53,2.25-10.76-1.36-10.48-8.22c0.18-4.46,1.64-8.45,4.4-11.96c1.54-1.97,3.06-3.95,4.58-5.93
		c8.67-11.28,11.8-24.24,11.44-38.2c-0.23-8.88,0.79-17.54,2.89-26.2c1.37-5.64,2.55-11.32,4.1-16.93
		c2.07-7.51,5.77-14.16,10.01-20.53c2.21-3.33,5.51-5.82,8.98-7.83c4.9-2.85,9.37-0.82,10.55,4.85c1.22,5.86,2.22,11.78,2.97,17.72
		c1.95,15.39,4.68,30.66,8.91,45.56c3.27,11.51,7.57,22.73,11.74,33.96c1.7,4.57,4.94,8.32,8.77,11.38
		c3.91,3.13,5.39,2.95,8.97-0.47c2.42-2.31,4.64-4.78,6.31-7.7c4.55-7.98,11.02-14.64,15.74-22.48
		c7.73-12.83,15.71-25.53,24.39-37.7c9.75-13.66,18.28-28.24,29.72-40.67c1.25-1.36,2.6-2.57,4-3.74c3.86-3.23,8.31-2.71,11.06,1.5
		c2.38,3.64,4,7.63,4.86,11.94c3.02,15.19,0.91,30.17-1.61,45.15c-0.36,2.13-0.65,4.31-1.33,6.35c-4.45,13.34-2.34,26.26,2.03,39.16
		c2.73,8.05,6.93,15.51,9.25,23.69c1.82,6.43,3.04,12.9,1.6,19.66c-1.49,6.98-7.42,9.61-12.96,4.96
		c-7.91-6.64-17.22-10.29-26.87-12.67c-11.84-2.92-23.85-2.89-34.9,3.55c-7.77,4.53-12.49,10.84-12.61,20.46
		c-0.11,9.23,1,18.24,2.41,27.29c1.34,8.55,2.15,17.23,4.71,25.5c2.11,6.84,2.65,14.03,5.27,20.73c1.39,3.55,1.68,7.44,2.56,11.15
		c1.91,8.05,5.85,15.14,9.15,22.32c1.87,1,3.23,0.02,4.41-0.75c7.81-5.06,16.89-5.98,25.66-7.37c7.34-1.16,14.88-1.38,22.33-1.93
		c16.9-1.23,33.58,0.7,50,4.91c0.81,0.21,1.61,0.44,2.39,0.73c7.55,2.85,7.55,2.85,11.7-4.05c3.36-5.6,3.58-6.41-0.54-10.78
		c-3.05-3.23-4.38-7.03-5.4-11.05c-2.31-9.11-0.93-17.3,5.88-24.33c5.84-6.02,18.44-8.95,26.4-6.27
		c12.71,4.28,19.85,17.27,18.55,29.23c-0.46,4.21-0.78,8.15-3.42,11.73c-2.16,2.92-4.49,5.3-8.07,6.3
		c-4.41,1.23-8.14,4.46-13.13,4.14c-1.91-0.12-3.13,1.81-4.09,3.35c-1.84,2.95-3.52,6.01-5.44,9.32
		c14.54,5.82,25.92,15.97,37.17,25.99c7.13,6.35,12.75,14.41,18.31,22.32c8.97,12.74,16.11,26.48,21.4,41.04
		c3.55,9.79,6.93,19.7,9.02,30.02c2.02,9.92,5.08,19.62,7.66,29.42c0.33,1.25,0.99,1.99,2.3,2.29
		c12.61,2.94,22.55,10.36,31.57,19.17c4.29,4.19,7.69,9.22,10.91,14.21c8.35,12.91,17.59,24.94,29.27,35.1
		c6.51,5.67,10.46,13.21,12.19,21.75c0.55,2.69,1.53,5.17,3.49,7.05c6.46,6.22,13.07,12.29,19.53,18.51c1.91,1.84,4,2.85,6.63,2.97
		c5.21,0.24,9.85,2.41,13.58,5.72c7.42,6.58,15.44,12.02,24.62,15.81c11.33,4.69,18.67,13.6,24.64,23.83
		c4.03,6.9,8.02,13.79,12.9,20.17c3.6,4.71,8.12,8.3,12.52,12.06c7.81,6.66,16.35,12.49,22.49,20.96c2.56,3.53,2.29,5.8-1.42,8.23
		c-1.87,1.22-3.92,1.73-6.14,1.82C814.69,654.59,811.85,654.49,809.3,655.67z M735.73,778.01c1.83-6.53,2.55-13.28,2.87-20.07
		c0.27-5.67,0.67-11.31,2.59-16.7c0.62-1.72,0.46-3.19-0.28-4.79c-0.83-1.81-1.75-3.65-2.13-5.58c-0.48-2.43-1.61-4.08-3.51-5.71
		c-7.81-6.67-12.99-14.92-14.98-25.2c-1.28-6.61-1.56-13.22-1.48-19.88c0.17-14.38-1.47-28.63-4.69-42.56
		c-3.22-13.92-7.88-27.46-14.68-40.19c-5.37-10.05-9.74-20.48-7.59-32.36c0.38-2.08-0.87-3.38-2.08-4.81
		c-5.22-6.16-12.08-10.41-17.98-15.77c-2.12-1.92-3.99-2.07-6.73-1c-9.93,3.87-19.27,2.36-27.71-4.14
		c-6.08-4.68-12.41-8.96-19.33-12.32c-1.66-0.8-3.24-1.86-5.01,0.31c1.1,2.18,1.72,4.57,2.01,7.04c1.2,10.24,3.14,20.36,4.38,30.6
		c1.4,11.52,3.46,22.96,5.13,34.46c0.32,2.24,1.13,3.7,3.4,4.32c3.38,0.93,6.42,2.73,9.63,4.05c2.97,1.22,5.9,3.39,9.41,2.57
		c5.86-1.35,11.63-3.07,16.42-6.92c3.8-3.05,8.32-4.84,12.37-7.44c2.71-1.74,5.41-0.8,7.03,1.59c3.65,5.39,6.77,11.29,7.35,17.76
		c0.86,9.57,2.83,19.01,2.45,28.75c-0.37,9.45,0.21,18.92-1.34,28.33c-0.68,4.14-0.72,8.33,1.34,12.2c2.1,3.97,3.56,8.22,5.87,12.11
		c6.34,10.7,7.17,22.63,7.19,34.66c0.01,7.1-2.26,13.73-4.65,20.32c-1.27,3.51-0.52,6.99,2.09,7.87c3.51,1.19,6.44,3.63,9.79,4.69
		c7.44,2.35,13.15,7.01,18.75,12.02C732.58,777.09,733.26,778.43,735.73,778.01z"/>
</g>
</svg>
