<?xml version="1.0" encoding="utf-8"?>
<!-- Generator: Adobe Illustrator 24.0.2, SVG Export Plug-In . SVG Version: 6.00 Build 0)  -->
<svg version="1.1" id="Layer_1" xmlns="http://www.w3.org/2000/svg" xmlns:xlink="http://www.w3.org/1999/xlink" x="0px" y="0px"
	 width="781.22" height="861.51" viewBox="0 0 781.22 861.51" style="enable-background:new 0 0 781.22 861.51;" xml:space="preserve">
<g>
	<path d="M75.41,817.2c-3.52-0.07-6.62,1.31-9.61,0.09c-0.9-2.19,0.4-3.65,1.57-4.98c5.81-6.63,11.57-13.26,18.61-18.76
		c12.72-9.93,25.1-20.3,37.62-30.49c0.64-0.52,1.35-1.01,1.26-2.01c-1.92-1.31-3.78,1.09-5.77,0.08c-1.3-1.54-0.23-2.79,0.74-3.88
		c2.42-2.71,1.32-4.42-1.83-5.99c-6.28,3.15-12.77,6.47-19.32,9.66c-11.97,5.83-23.81,12-36.57,16.02
		c-5.23,1.65-10.57,2.96-15.9,4.28c-1.71,0.42-3.66,0.87-4.83-1.12c-0.33-2.28,2.39-2.77,2.6-5.1c-1.95-0.81-4.08-0.21-6.11-0.27
		c-9.06-0.27-10.34-2-7.46-10.21c-0.08-1.95-2.71-1.16-3.11-3.32c3-5.21,6.99-10.08,12.13-13.85
		c14.37-10.54,28.38-21.57,43.33-31.31c2.35-1.53,4.89-2.79,7.62-4.33c-1.23-1.73-5.01-1.36-3.82-4.81c0.8-2.32,2.72-3.74,4.01-5.81
		c-0.41-1.77-1.72-3.05-2.61-4.74c-21.35,9.93-41.69,21.51-63.06,32.49c-0.14-3.81,4.13-4.65,3.51-8.11
		c-3.83,0.79-7.57,2.44-11.84,1.52c-2.74-7.98,4.4-12.85,6.72-19.36c-3.2-0.95-6.3,0.64-9.37-1.02c0.95-3.2,4.39-4.07,6.15-7.04
		c-4.56-0.8-9.22,1.91-13.07-1.43c-0.16-2.65,2.74-3.57,3.49-6.25c-3.46-1.02-6.87-2.04-10.48-3.1c0.19-3.09,4.1-2.66,4.97-5.35
		c0.78-2.42,2.6-4.49,3.95-6.7c-1.25-1.93-4.94-0.9-4.75-3.89c0.18-2.8,3.03-3.33,5-4.35c17.35-8.91,35.39-16.02,53.99-22.04
		c14.29-4.63,28.65-8.53,43.41-11.08c2.69-0.46,4.42-2.02,5.82-3.96c-0.41-2.08-2.7-1.53-3.51-3.39c2.31-5.5,8.51-5.87,12.83-8.55
		c0.13-1.85-2.24-1.72-2.07-3.24c-0.04-0.68,0.43-1.03,0.86-1.16c3.81-1.18,7.71-1.83,11.67-2.28c24.3-2.77,48.52-1.9,72.74,1.04
		c10.94,1.33,21.7,3.28,32.2,6.64c1.09,0.35,2.17,0.9,3.89,0.13c-1.94-11.61,0.97-23.21,1.4-34.96c0.41-11.28,4.42-21.76,8.61-32.11
		c1.78-4.41,4.74-8.42,3.08-13.7c-0.56-1.78,1.07-3.39,2.28-4.8c1.7-1.99,3.8-3.66,4.8-6.38c-3.72,1.7-7.19,3.81-10.98,5.29
		c-3.23,1.26-5.96,1.01-8.95-0.86c-5-3.12-9.65-6.53-13.01-11.47c-2.66-3.9-2.61-5.16,0.51-8.78c2.2-2.55,4.84-4.57,7.68-6.34
		c1.55-0.97,3.07-1.93,4.11-3.57c-1.55-1.06-2.82-0.2-3.88,0.33c-6.32,3.19-13.51,3.43-19.99,6.07c-1.56,0.64-3.3,0.8-4.87-0.05
		c-5.44-2.93-10.79-6.01-14.59-11.09c-2.7-3.61-2.25-5.42,1.5-8.2c2.89-2.14,6.7-2.96,9.28-6.48c-2.83,0.03-4.98,0.94-6.94,2.01
		c-6.51,3.54-12.33,2.76-17.82-2.15c-2.49-2.22-5.17-4.24-6.91-7.15c-2.25-3.78-1.77-5.29,1.8-7.9c2.81-2.05,6.41-2.79,9.14-5.57
		c-2.87-0.31-5.15,0.57-7.42,1.53c-6.29,2.68-12.09,2.18-17.86-1.82c-5.09-3.54-10.19-6.89-13.64-12.23
		c-3.29-5.09-2.95-6.74,2.48-9.07c6.43-2.77,13.09-4.92,19.88-6.6c4.03-0.99,7.95-2.26,11.74-4.39c-8.42,0.88-16.83,1.93-25.26,2.6
		c-7.24,0.58-14.42,2.82-21.79,0.87c-1.63-0.43-3.17-0.88-4.58-1.84c-5.97-4.04-11.2-8.91-16.12-14.13
		c-0.8-0.85-1.58-1.74-2.19-2.72c-2.51-4.05-0.99-7.04,3.77-7.41c13.95-1.07,27.9-2.07,41.76-4.06c1.31-0.19,2.68-0.06,4.03-0.95
		c0.21-2.56-0.84-3.87-3.64-3.89c-7.82-0.06-15.65,0.01-23.46-0.4c-10.97-0.57-21.97-0.76-32.87-2.14
		c-3.62-0.46-6.36-2.96-8.71-5.52c-5.07-5.54-9.33-11.72-13.5-17.96c-0.96-1.43-1.39-3-1.61-4.67c-0.61-4.59,0.42-5.42,4.93-5.63
		c13.35-0.64,26.63,0.97,39.94,0.94c4.65-0.01,9.23,1.26,14.1,0.72c0.42-3.13-1.89-3.14-3.68-3.45c-8.2-1.4-16.48-2.39-24.6-4.14
		c-10.42-2.25-21-3.56-31.42-5.75c-4.78-1-8.15-3.61-10.4-7.78c-3.02-5.57-5.52-11.38-7.3-17.47c-1.63-5.59-0.06-7.48,5.81-6.88
		c5.96,0.61,11.94,1.25,17.84,2.29c10.84,1.91,21.83,2.53,32.69,4.27c0.66,0.11,1.32,0.07,1.89-0.54c-0.34-2.38-2.52-2.29-4.14-2.76
		c-12.62-3.67-25.29-7.14-37.87-10.92c-6.98-2.09-13.86-4.55-20.51-7.58c-4.65-2.12-7.73-5.5-9.6-10.25
		c-2.49-6.34-5.59-12.49-5.12-19.6c0.38-5.79,1.21-6.28,6.61-4.63c15.28,4.66,30.6,9.2,45.9,13.79c0.95,0.28,1.88,0.73,3.43,0.07
		c-6.61-4.34-13.54-7.35-20.29-10.62c-9-4.35-17.62-9.37-26.29-14.31c-0.87-0.49-1.71-1.03-2.6-1.49
		c-11.22-5.76-18.39-19.09-17.04-31.69c0.53-4.92,2.89-6.59,7.78-5.36c10.9,2.74,20.78,7.99,30.86,12.73
		c5.37,2.52,10.75,5,16.35,7.09c-1.67-2.57-4.34-3.74-6.78-5.09c-16.36-9.07-31.72-19.56-46.38-31.18
		c-4.34-3.44-7.24-7.2-7.57-12.72c-0.4-6.63-2.15-13.15-1.59-19.87c0.48-5.83,2.06-7.05,7.18-4.36
		c11.04,5.81,22.01,11.77,32.61,18.36c5.78,3.59,11.63,7.09,17.91,10.91c0.05-2.15-1.33-2.96-2.29-3.81
		c-13.21-11.71-26.59-23.21-39.64-35.09c-5.15-4.69-10.33-9.43-14.71-14.92c-0.94-1.18-1.68-2.37-2.1-3.89
		c-2.86-10.3-1.53-20.51,0.67-30.66c0.85-3.91,2.67-4.29,6.09-1.84c9.1,6.54,16.8,14.67,24.96,22.25
		c10.48,9.73,20.66,19.79,30.98,29.7c0.45,0.43,0.94,0.97,1.69,0.52c0.5-0.69,0.1-1.3-0.31-1.77
		c-11.01-12.52-20.5-26.21-30.31-39.65c-7.96-10.9-15.82-21.85-23.01-33.28c-3.81-6.04-3.95-12.1-1.39-18.55
		c1.86-4.7,4.45-8.93,7.67-12.78c3.07-3.67,4.52-3.98,8.3-1.08c6.49,5,11.86,11.21,17.33,17.23c10.29,11.33,20.54,22.72,29.43,35.24
		c0.44,0.61,0.83,1.42,1.87,1.35c0.46-1.68-0.73-2.81-1.38-4.08C83.71,73.58,74.04,51.32,65.62,28.52
		c-1.67-4.52-2.67-9.25-3.07-14.11c-0.3-3.71,1.21-6.42,3.8-8.77c0.37-0.33,0.79-0.61,1.19-0.91c8.7-6.59,12.11-6.49,19.4,1.51
		c6.16,6.77,11.69,14.06,16.38,21.98c10.42,17.6,21.19,35,29.84,53.59c0.33,0.72,0.66,1.55,2.38,1.84c-0.22-3.8-0.5-7.47-0.62-11.14
		c-0.39-12.15-1.06-24.31,1.34-36.36c0.49-2.47,1.24-4.81,2.28-7.1c2.21-4.84,3.89-5.75,8.8-4.48c7.65,1.98,11.06,6.1,11.92,14
		c1.1,10.09,2.08,20.2,3.62,30.22c1.18,7.7,3.28,15.25,4.73,22.92c2.14,11.29,5.28,22.33,7.84,33.51c0.74,3.24,1.77,6.43,2.9,9.55
		c6.84,18.91,13.64,37.78,21.8,56.24c8.95,20.25,19.26,39.78,28.96,59.62c4.66,9.53,11,18.2,16.77,27.15
		c6.95,10.77,13.28,21.99,21.21,32.06c8.95,11.36,16.65,23.64,26.2,34.58c8.52,9.76,15.95,20.46,23.95,30.67
		c8.54,10.89,18.46,20.58,27.46,31.08c4.55,5.31,8.7,10.95,13.84,15.75c2.46,2.29,5.02,4.33,8.11,5.72
		c7.17,3.21,13.85,7.24,19.58,12.36c6.83-2.28,13.19-4.75,19.98-5.66c1.87-0.25,3.43-1.25,4.96-2.26
		c6.95-4.61,13.66-9.49,19.51-15.51c4.41-4.54,9.29-8.58,14.16-12.64c9.48-7.91,18.45-16.36,25.57-26.56
		c6.08-8.71,7.86-18.94,9.97-29.04c3.03-14.49,7.83-28.18,17.57-39.69c1.11-1.31,2.25-2.6,1.75-4.43
		c-1.98-7.28-4.26-14.36-10.75-19.2c-3.89-2.9-8.13-4.52-12.91-4.72c-2.83-0.12-5.68-0.15-8.45-0.79
		c-9.51-2.18-14.89-14.19-10.19-22.7c2.28-4.13,5.46-6.69,10.72-5.83c0.34-4.06,0.1-8.08,2.79-11.49c2.61-3.32,6.14-4.36,10.06-4.78
		c1.33-2.28,0.83-4.94,2.3-7.12c4.13-6.08,9.8-8.94,17-8.31c2.94,0.26,4.48-0.49,5.99-3.06c3.82-6.54,10.13-9.08,17.35-8.71
		c7.05,0.36,12.94,3.27,15.73,10.37c1.84,4.69,2.18,9.37-0.93,13.79c-0.85,1.22-1.64,2.48-2.33,3.51c-0.05,1.27,0.64,1.78,1.3,2.27
		c9.37,6.88,11.24,16.39,9.55,27.14c-1.16,7.36-5.09,13.69-7.65,20.53c-0.8,2.15-1.65,4.28-2.82,7.29
		c5.69-0.03,10.72-0.42,15.62-1.51c14.1-3.13,26.83-9.12,36.85-19.76c7.26-7.71,15.93-10.1,26.17-9.1
		c10.87,1.06,20.93,3.75,28.97,11.69c1.25,1.23,2.5,2.42,1.92,4.24c-0.56,1.74-2.12,2.41-3.88,2.72c-3.11,0.55-6.27,0.67-9.4,1.25
		c-4.04,0.75-7.03,2.77-9.6,5.78c-3.15,3.68-6.01,7.58-8.45,11.75c-3.43,5.88-8.06,10.1-14.82,11.73
		c-5.73,1.38-10.05,5.06-14.3,8.84c-0.77,0.68-1.39,1.44-1.16,2.97c4.38,2.08,8.97,4.27,13.56,6.43c1.86,0.87,3.82,1.04,5.86,0.86
		c5.81-0.51,11.63-0.9,17.43-1.45c2.77-0.27,5.29-0.2,7.13,2.84c-5.73,5.94-12.06,11.08-18.86,15.46
		c-6.28,4.04-12.98,7.48-20.05,10.07c-5.12,1.88-10.05,2.09-14.83-0.92c-0.56-0.35-1.17-0.63-1.77-0.92
		c-8.2-3.9-10.24-3.12-14.96,4.51c-5.91,9.54-14.06,16.29-25.2,19.09c-8.39,2.11-16.75,4.33-24.88,7.35c-5,1.86-8.77,5.02-12.31,9
		c-10,11.25-14.99,24.6-17.32,39.15c-1.91,11.9-8.05,20.95-17.96,27.61c-1.32,0.89-3.12,1.33-3.55,3.22
		c0.38,1.02,1.28,1.21,2.05,0.94c5.55-1.97,11.31-1.49,16.78-0.48c11.43,2.1,21.72-0.85,31.92-5.43c20.03-9,40.43-17.2,59.89-27.45
		c13.59-7.16,25.94-16.25,38.88-24.43c21.63-13.67,41-30.19,60.55-46.51c8.57-7.16,15.67-15.86,23.98-23.33
		c14.55-13.08,26.3-28.71,38.96-43.51c6.61-7.72,13.03-15.59,19.12-23.73c1.93-2.58,3.44-2.52,4.52,0.47
		c1.22,3.38,2.09,6.79,1.65,10.65c-1.1,9.64-2.82,19.01-8.82,28.09c12.22-1.55,23.18-7.02,34.73-1.31c0.84,2.85,0.01,5.74-0.96,9.14
		c-0.38-1-0.55-1.47-0.72-1.93c-0.38-0.24-0.53-0.1-0.54,0.41c0,0.33-0.19,0.67-0.15,0.98c1.15,9.01-5.23,12.23-11.78,15.27
		c-2.85,1.33-5.77,2.52-8.38,4.81c1.99,1.18,3.54-0.19,5.14-0.48c4.93-0.88,6.27,0.14,6.74,5.14c0.21,2.24-0.51,4.28-1.06,6.36
		c-2.08,7.8-6.22,13.64-14.26,16.5c-6.53,2.33-12.79,5.4-19.8,8.41c4.33,2.09,8.55,1.39,12.42,2.59c9.67,3,10.88,5.29,6.83,14.61
		c-3.37,7.74-8.37,12.85-17.44,13.58c-4.19,0.33-8.49,0.9-13.34,1.7c2.81,2.72,6.02,2.95,8.77,4.09c4.91,2.03,5.3,2.8,3.69,7.86
		c-1.7,5.32-4.62,9.83-8.36,14.01c-2.97,3.32-6.22,4.2-10.27,3.25c-5.5-1.3-11.2-1.71-16.52-3.82c-1.21-0.48-2.52-0.9-4.22,0.69
		c6.42,4.43,13.02,8.54,17.51,15.17c-4.32,5.97-10.05,10.43-15.99,14.73c-5.26,3.82-9.7,1.08-14.29-1.25
		c-1.86-0.94-3.21-2.97-6.01-2.67c0.13,2.28,1.86,3.41,3.08,4.8c7.25,8.2,7.25,9.67-0.56,17.1c-1.8,1.72-3.72,3.37-5.79,4.73
		c-5.79,3.82-6.9,3.75-12.31-0.01c-0.47,0.32-0.55,0.79-0.37,1.26c2.16,5.94,1.97,6.89-3.3,10.63c-3.39,2.41-6.98,4.54-10.54,6.71
		c-4.56,2.78-5.01,2.71-9.14-0.8c-0.95,1.2-0.63,2.54-0.17,3.65c1.22,2.94,0.35,5.19-1.95,7.08c-5.34,4.38-11.69,6.94-17.85,9.86
		c-1.96,0.93-2.81-1.59-4.91-1.1c-0.74,7.79-6.79,10.57-13.08,13.11c-1.7,0.69-3.41,1.35-5.06,2.14c-3.33,1.59-6.57,2.6-10.03-2.41
		c0.41,5.47-2.55,7-5.49,8.58c-3.83,2.05-7.78,3.84-11.99,4.9c-3.51,0.89-7.23,2.05-9.71-2.67c-0.01,6.3-4.07,8.37-8.78,9.84
		c-4.26,1.32-8.52,2.66-12.43,3.89c-2.33-1.06-1.6-3.63-3.28-4.66c-0.28,0.16-0.74,0.28-0.76,0.45c-0.7,6.72-5.2,9.53-11.13,10.91
		c-1.78,0.41-3.52,1.03-5.32,1.33c-7.54,1.26-7.54,1.23-8.88-6.39c-0.11-0.65-0.24-1.33-1.34-1.71c-0.88,3.51-1.91,6.97-2.59,10.5
		c-0.68,3.53-2.65,5.6-6.05,6.5c-6.87,1.81-13.74,3.66-20.62,3.26c-1.52-1.94,0.19-4.1-1.48-5.51c-6.63,7.34-6.61,7.42-17.86,9.72
		c-4.36,0.89-8.8,1.34-12.83,1.94c-2.07-1.63-0.29-3.61-1.45-5c-1.49-0.15-1.95,1.15-2.49,2.05c-1.89,3.17-4.39,4.87-8.23,4.26
		c-2.09-0.33-3.51,0.82-4.4,2.6c-3.15,6.3-7.92,11.5-11.88,17.25c-1.33,1.93-1.71,3.81-1.79,6.04
		c-0.61,17.77-7.65,32.47-21.18,44.06c-3.1,2.66-6.85,4.05-10.46,5.76c-1.27,0.6-2.99,0.53-3.72,2.36c2.89,1.62,6.18,1.17,9.22,1.78
		c7,1.41,13.97,2.75,21.28,1.63c5.93-0.91,14.3,5.22,16.24,11.17c2.72,8.38,4.3,17.13,8.17,25.14c1.18,2.44,0.42,4.4-1.72,6.12
		c-4.27,3.42-9.16,6.01-14.41,6.4c-5.83,0.43-10.96,2.5-16.25,4.39c-1.9,0.68-3.76,1.3-5.83,1.02c-4.64-0.63-9.14-2.27-13.98,0.02
		c-2.26,1.07-4.67-1.04-6.68-2.6c-4.42-3.44-7.31-8.11-10.19-12.76c-1.23-1.99-2.5-3.25-5.08-3.25c-3.3,0.01-6.52-1.2-9.91-0.83
		c-2.49,0.27-4.12-1.3-5.15-3.3c-2.6-5.02-5.1-10.03-5.51-15.89c-0.31-4.46,0.56-7.91,5.01-9.75c1.08-0.45,2.08-1.05,2.34-2.76
		c-3.67-0.83-7.48-0.32-11.15-1.17c-3.42-0.79-6.8-1.52-9.91-3.17c-3.62-1.91-7.22-1.96-10.16,0.97c-3.67,3.67-8,5.86-13.06,6.91
		c1.3,19.57-0.35,38.78-1.91,57.96c-1.55,18.98-4.13,37.81-11.18,55.77c-2.81-1.08-1.57-3.25-3.29-4.57
		c-4.26,3.01-6.13,9.3-11.86,10.41c-2.22-1.29-1.14-3.72-2.72-5.18c-1.4-0.86-2.98,1.24-5.1-0.2c-0.47-6.24,4.41-11.71,4.18-19.25
		c-14.01,30.13-31.72,56.66-53.19,80.2c-2.83-0.75-1.68-3-3.13-4.01c-3.44,1.96-6.13,4.94-9.1,7.56c-3.27,2.89-6.79,5.44-10.94,6.82
		c-4.28,1.43-5.58,0.17-4.71-4.22c0.22-1.14,0.52-2.27,0.88-3.38c0.3-0.93,0.94-1.8,0.17-2.98c-1.56-0.43-2.76,1.82-4.58,0.83
		c-1.22-2.25,0.31-4,1.36-5.83c9.24-16.01,18.54-32,29.75-46.76c0.29-0.38,0.42-0.87,0.35-1.72c-5.09,3.79-11.65,3.98-16.26,9.82
		c-14.59,18.46-31.13,35.15-50.24,49.09c-5.5,4.01-7.75,4.83-11.74,4.29c0.14-0.95,0.28-1.91,0.42-2.84
		c-0.41-0.41-0.87-0.43-1.38-0.32c-5.84,1.26-11.62,2.9-17.7,2.72c-6.51-0.2-6.82-0.59-3.96-6.25c-4.49-2.55-4.66-3.18-2.21-7.63
		c3.04-5.52,8.14-9.18,12.47-13.48c13.58-13.49,27.4-26.74,41.26-40.2c-1.31-2.78-2.68-2.99-4.83-0.9
		c-6.34,6.15-12.63,12.35-19.24,18.19c-8.61,7.6-17.33,15.09-26.33,22.22c-7.2,5.7-15.6,9.56-23.73,13.78
		c-2.43,1.26-5.04,1.36-7.87,1.16c-0.7-3.46,3.06-5.28,2.62-9.26c-4.54,1.55-9.12,1.31-13.7,1.25c-5.74-0.07-7.55-2.75-6.17-8.4
		C70.54,825.58,73.29,821.79,75.41,817.2z M362.53,686.27c1.19,9.03,6.48,13.72,15.36,13.9
		C379.52,691.97,371.53,684.55,362.53,686.27z"/>
</g>
</svg>
