<?xml version="1.0" encoding="utf-8"?>
<!-- Generator: Adobe Illustrator 24.0.2, SVG Export Plug-In . SVG Version: 6.00 Build 0)  -->
<svg version="1.1" id="Layer_1" xmlns="http://www.w3.org/2000/svg" xmlns:xlink="http://www.w3.org/1999/xlink" x="0px" y="0px"
	 viewBox="0 0 835.68 873.64" style="enable-background:new 0 0 835.68 873.64;" xml:space="preserve">
<g>
	<path d="M370.31,797.33c4.93,0.86,8.73,3.51,12.45,6.75c3.45,3,6.81,6.09,10.37,10.41c5-12.53,11.47-22.75,23.96-27.07
		c-0.07-0.7-0.01-1.2-0.15-1.27c-7.79-3.69-13.95-9.53-20.02-15.4c-10.41-10.07-20.75-20.3-27.65-33.22
		c-7.04-13.18-8.95-26.84-0.56-40.19c4.58-7.28,11.05-12.94,18.97-16.5c14.47-6.51,29.67-8.83,45.32-6.2
		c6.36,1.07,11.29-0.03,15.29-5.07c1.45-1.82,3.34-3.19,5.1-4.45c-1.02-8.56-1.13-16.74,2.21-24.91c-4.23-2.13-8.58-4.12-12.77-6.42
		c-6.87-3.79-13.94-7.51-19.48-12.87c-6.69-6.47-13.98-10.68-23.04-12.6c-4.3-0.91-8.7-2.75-12.04-5.8
		c-5.46-4.98-12.4-5.15-18.96-6.55c-15.94-3.41-30.6-9.96-44.67-18c-1.23-0.7-2.2-2.32-3.94-1.28c-1.77,1.05-2.27,2.7-2.07,4.71
		c0.48,4.86-0.35,9.7-1.16,14.4c-1.27,7.4-5.35,9.7-11.63,6.16c-5.05-2.84-10.33-5.44-14.68-9.39c-1.32-1.2-2.77-1.73-4.47-1.94
		c-9.84-1.22-18.22-5.92-26.52-10.94c-9.74-5.9-18.25-13.37-26.56-20.99c-5.23-4.8-9.22-10.91-13-16.96
		c-3.24-5.19-5.86-10.77-8.65-16.24c-0.69-1.35-1.4-2.54-2.6-3.54c-11.78-9.81-20.63-21.53-23.84-36.87
		c-0.3-1.41-1.1-2.39-2.04-3.34c-11.14-11.27-18.19-24.79-21.61-40.17c-0.97-4.36-1.52-8.87-1.97-13.3
		c-0.32-3.14-1.51-4.29-4.22-5.07c-10.87-3.12-21.43-7.13-31.65-11.96c-11.29-5.34-22.39-11.17-32.33-18.69
		c-8.97-6.79-17.59-14.08-25.81-21.87c-8.5-8.06-16.02-16.87-23.05-26.1c-10.25-13.46-18.49-28.16-25.39-43.63
		c-7.14-16.02-11.88-32.66-14.71-49.97c-1.46-8.92-1.16-17.9-2.16-26.8c-1.66-14.71,0.49-29.2,3-43.59
		c3.17-18.19,9.04-35.68,15.26-53.01c1.84-5.13,5.21-9.61,7.87-14.37c5.49-9.82,11.17-19.59,18.4-28.31
		c10.3-12.43,21.36-24.03,34.18-34c5.9-4.59,11.8-9.15,17.81-13.59c7.12-5.26,15.01-9.22,22.77-13.29
		c10.72-5.62,21.86-10.54,33.69-13.52c15.96-4.01,31.9-8.32,48.38-9.61c21.99-1.72,43.87-1.23,65.27,4.87
		c7.51,2.14,14.73,5.26,22.16,7.65c16.76,5.4,31.75,14.35,47.1,22.59c3.45,1.85,6.7,4.1,9.25,7.4c2.21,2.85,5.86,4.26,8.68,6.62
		c11.63,9.74,22.72,20.05,32.56,31.57c9.93,11.62,18.46,24.26,24.55,38.37c1.45,3.37,3.81,6.17,5.14,9.62
		c2.39,6.18,3.32,12.76,5.75,18.94c3.84,9.76,6.35,19.96,8.38,30.23c2.78,14.08,3.31,28.37,2.93,42.7
		c-0.24,9.32-0.48,18.67-2.09,27.85c-2.32,13.22-5.92,26.1-10.26,38.85c-3.7,10.88-7.82,21.47-13.31,31.55
		c-4.13,7.59-9.97,14.03-14.24,21.52c-0.48,0.84-1.41,1.47-1.34,2.33c8.67,12.67,16.94,25.15,20.2,40.37
		c3.55,16.56,2.64,32.68-2.81,48.6c-2.3,6.74-4.49,13.5-7.69,19.93c-6.94,13.94-18.5,23.75-29.67,33.91
		c-2.53,2.3-4.72,4.5-5.44,8.02c-0.6,2.94-2.1,5.58-3.92,8c-0.78,1.04-1.85,1.99-1.39,3.7c5.05,0.99,8.64-0.24,12.04-4.83
		c5.81-7.86,12.19-15.41,20.82-20.55c3.02-1.8,4.08-5.23,5.86-7.93c13.57-20.57,31.87-35.75,53.91-46.08
		c12.71-5.96,25.45-12.15,39.42-16.08c-0.87-2.58-1.62-5.06-2.53-7.48c-4.05-10.65-3.81-21.6,1.06-31.48
		c6.47-13.11,15.94-23.99,29.84-30.2c9.55-4.27,19.38-6.95,29.92-6.54c6.41,0.25,12.53,2.13,18.35,4.44
		c7.92,3.15,14.93,8.07,20.76,14.32c3.03,3.25,4.96,7.4,6.47,11.66c1.2,3.39,2.47,6.75,3.78,10.31c2.71-0.19,4.67-2.01,7.19-2.22
		c5.94-0.48,11.67-0.14,16.91,2.97c5.27,3.13,10.78,5.88,15.01,10.54c3.27,3.6,7.24,6.35,11.55,8.63
		c10.58,5.62,15.14,4.76,24.87-3.09c2.83-2.28,5.11-5.23,7.86-7.63c5.32-4.64,11.3-8.04,18.25-9.83c6.89-1.78,12.81,0.42,18.58,3.61
		c1.39,0.77,3.14,1.73,3.01,3.66c-0.16,2.37-2.51,2.63-4.1,3.03c-7.34,1.87-13.54,5.51-18.34,11.35
		c-7.3,8.87-13.23,18.57-17.68,29.2c-5.77,13.79-16.54,22.56-29.66,28.86c-2.22,1.07-4.65,1.5-7.68,2.28
		c4.53,4.06,9.54,6.72,13.3,10.91c2.45-1.21,3-3.46,4.21-5.15c6.47-9.08,15.63-13.06,26.38-13.9c2.3-0.18,4.59,0.57,6.76,1.52
		c7.46,3.26,14.93,6.37,20.27,13.05c1.6,2,4.14,3.25,6.35,4.91c11.53-5.16,21.18-12.43,27.45-23.6c2.35-4.18,5.37-8.04,6.92-12.6
		c1.52-4.48,6.71-4.32,8.94-0.77c3.1,4.95,5.46,10.19,6.87,15.88c4.24,17.15,3.56,34.37-0.59,51.28
		c-2.6,10.62-7.26,20.68-13.77,29.67c-1.24,1.71-1.96,3.11-1.38,5.41c3.2,12.72,4.72,25.68,6.06,38.74
		c1.49,14.42-0.32,28.17-4.47,41.74c-1.93,6.3-5,12.23-8.76,18.14c3.73,1.75,7.68,2.77,10.83,5.59
		c7.46,6.69,12.71,14.67,15.98,24.14c1.9,5.5,3.34,11.06,4.16,17.04c8.89,1.99,17.82,2.04,26.75,1.2c4.61-0.43,9.21-1.33,13.8-2
		c8.92-1.29,13.15,2.15,12.3,10.77c-1.25,12.78-5.96,24.38-13.08,35.04c-7.53,11.28-17.66,19.76-28.81,27.2
		c-3.58,2.39-6.63,5.54-10.78,7.1c-2.19,0.82-2.05,2.59-1.64,4.59c1.33,6.55,1.66,13.21,1.49,19.87c-0.17,6.88-2.71,9.18-9.67,8.88
		c-8.28-0.35-15.34-3.97-22-8.56c-1.35-0.93-2.39-2.34-4.58-2.93c-6.19,6.33-14.41,10.01-22.24,14.3
		c-6.43,3.52-13.57,4.95-20.69,4.62c-7.82-0.37-14.84-4.12-20.57-9.24c-11.37-10.16-18.13-23.14-21.07-38.09
		c-0.26-1.34-0.43-2.68-1.53-3.58c-5.13-4.19-7.16-10.28-9.69-16.01c-0.91-2.06-2.09-3.7-3.81-5.1
		c-11.99-9.78-20.91-21.75-25.42-36.68c-1.76-5.81-5.05-10.79-8.02-15.94c-1.67-2.91-3.03-5.89-3.99-9.09
		c-1.37-4.57-0.52-6.48,4.06-7.69c3.36-0.89,6.87-1.8,10.3-1.73c7.86,0.16,14.89-2.77,22.21-4.87c8.98-2.58,18.12-4.53,27.53-2.26
		c1.85,0.45,3.25-0.36,4.68-1.18c7.41-4.23,15.53-5.2,23.7-4.13c5.55,0.73,8.97-1.95,13.47-5.2c-23.22-12.16-38.12-31.19-49.38-53.8
		c-4.55,4.64-8.64,9.7-13.61,13.83c-16.61,13.79-32.11,29.01-51.28,39.5c-8.31,4.55-16.99,8.26-25.84,11.91
		c0.45,2.92,2.63,4.35,4.09,6.32c4.87-0.5,9.62-1.06,14.42,0.02c2.74,0.62,3.94,1.91,3.81,4.81c-0.08,1.88-0.47,3.61-1.12,5.31
		c-1.6,4.2-1.38,9.4-3.7,12.77c-3.97,5.73-3.65,11.45-2.76,17.43c1.26,8.53,0.69,17.11,0.76,25.63c0.04,4.26,1.52,6.58,4.54,8.88
		c4.64,3.53,8.88,7.53,12.86,11.81c3.32,3.57,5.92,7.51,8.31,11.75c2.67,4.74,6.03,9,7.51,14.46c3.09,11.43,2.82,22.7-1.7,33.54
		c-1.68,4.04-5.52,7.11-9,9.87c-5.72,4.52-11.86,8.55-18.87,10.84c-15.39,5.04-31.21,6.49-47.29,4.92
		c-9.1-0.89-18.3-0.47-27.31-2.52c-3.29-0.75-6.37,1.54-9.52,2.38c-8.55,2.27-17.12,2.08-25.75,1.57c-4.88-0.29-5.81-0.2-7.55,4.27
		c-2.76,7.1-7.34,12.83-12.35,18.42c-5.37,5.98-11.93,10.27-19.12,13.3c-11.83,4.98-24.05,8.97-37.21,7.96
		c-10.47-0.8-20.53-2.99-28.08-11.04c-6.33-6.75-10.81-14.82-12.38-23.86c-1.96-11.3-2.55-22.82-0.29-34.25
		C368.07,801.9,368.51,799.44,370.31,797.33z M366.93,324.37c2.96-3.84,6.25-7.23,8.52-11.21c12.72-22.37,22.34-45.88,24.73-71.81
		c0.83-8.99,3.2-17.82,2.74-26.96c-0.36-7.12-0.25-14.27-1.56-21.31c-1.12-6.03-3.09-11.9-4.17-17.89
		c-1.78-9.88-4.87-19.3-8.45-28.56c-6.87-17.77-16.94-33.82-29.05-48.36c-12.58-15.11-27.7-27.65-44.35-38.21
		c-9.58-6.08-19.78-11-30.54-14.48c-11.68-3.77-23.44-7.42-35.57-9.5c-9.48-1.63-19.03-2.87-28.7-2.94
		c-11.68-0.09-23.26,0.92-34.8,2.56c-6.88,0.98-13.79,1.93-20.4,4.14c-4.56,1.52-8.87,3.85-13.48,5.15
		c-17.89,5.04-33.39,14.68-48.13,25.45c-13.63,9.96-25,22.47-34.96,36.03c-10.02,13.64-17.72,28.71-24.26,44.31
		c-6.72,16.04-9.7,33.03-11.53,50.18c-0.37,3.42-1.48,6.87-1.09,10.32c1.45,12.7,0.36,25.54,3.28,38.23
		c2.71,11.8,5.04,23.62,9.55,34.94c9.98,25.03,25.99,45.9,45.1,64.4c12.55,12.15,26.41,22.84,42.1,30.87
		c10.04,5.14,20.23,9.88,31.76,11.28c2.99-4.17,4.92-8.97,7.24-13.52c10.41-20.37,25.58-36.19,45.01-48.07
		c2.28-1.4,4.44-2.92,6.14-5.04c4.88-6.09,9.93-11.98,15.72-17.28c14.29-13.09,29.19-25.09,47.25-32.88
		c12.3-5.3,23.99-6.47,35.54,1.25c11.89,7.94,18.67,19.91,24.99,32.2c1.33,2.6,1.42,6.42,4.18,7.58
		C355.75,317.76,361.25,321.12,366.93,324.37z M731.13,555.36c-7.58,7.21-16.28,11.55-25.3,15.33c-2.9,1.21-5.82,2.37-8.76,3.47
		c-2.36,0.87-3.24,2.13-1.7,4.49c3.7,5.68,7.01,11.68,11.8,16.54c4.16,4.22,7.75,9.14,13.64,11.38c4.9,1.86,7.93,0.79,10.01-3.91
		c0.54-1.21,1.26-2.39,1.52-3.67c2.25-11.24,2.94-22.58,0.87-33.87C732.64,562.1,733.04,558.8,731.13,555.36z"/>
</g>
</svg>
