<?xml version="1.0" encoding="utf-8"?>
<!-- Generator: Adobe Illustrator 24.0.2, SVG Export Plug-In . SVG Version: 6.00 Build 0)  -->
<svg version="1.1" id="Layer_1" xmlns="http://www.w3.org/2000/svg" xmlns:xlink="http://www.w3.org/1999/xlink" x="0px" y="0px"
	 width="861.51" height="849.76" viewBox="0 0 861.51 849.76" style="enable-background:new 0 0 861.51 849.76;" xml:space="preserve">
<g>
	<path d="M534.92,819.27c-7.24,1.53-12.38-1.6-18.89-2.65c1.79,5.85,6.27,8.69,9.33,12.5c3.22,4.01,7,7.48,11.96,11.44
		c-7.84,3.09-14.65,0.38-21.33,0.54c-0.65,2.34,1.57,3.19,2.19,4.79c0.42,1.1,0.93,2.25-0.19,3.21c-1.02,0.87-2.34,0.84-3.25,0.06
		c-6.23-5.32-14.28-7.45-20.88-12.23c-18.29-13.26-35.74-27.46-49.07-45.86c-8.71-12.03-15.98-25.15-19.6-39.65
		c-4.75-19.07-8.08-38.45-6.12-58.27c1.57-15.93,4.85-31.53,9.35-46.91c3.05-10.41,5.11-21.02,3.57-32.02
		c-0.97-6.89-4.32-12.5-8.77-17.6c-1.11-1.27-2.45-2.09-4.23-2.4c-4.75-0.82-9.43-2.15-14.2-2.75c-8.13-1.01-15.82-3.52-24.21-6.5
		c-4.96,17.52-6.4,34.96-3.78,52.76c-4.47,0.47-5.15-4.65-9.55-4.84c-0.56,7.97-0.62,16.05-2.48,24.16
		c-4.86-1.15-5.19-6.14-8.82-8.77c-2.06,12.92,1.18,25.62-0.74,38.41c-5.27-6.05-10.28-11.95-14.3-18.63
		c-6.48-10.79-10.29-22.67-14.46-34.44c-6.1-17.2-9.82-34.9-11.35-53.01c-1.16-13.76-2.53-27.54-2.27-41.38
		c0.06-3.13-0.45-5.55-3.12-7.84c-3.29-2.82-4.58-7.28-6.52-11.09c-4.66-9.16-8.98-18.55-11.83-28.44
		c-1.36-4.71-3.45-9.39-3.13-14.52c0.06-0.98,0.17-2.03-1.24-2.87c-2.79,2.61-2.63,6.49-3.71,9.73
		c-4.39,13.09-8.88,26.14-15.32,38.4c-1.89,3.6-4.64,6.29-8.1,8.59c-8.75,5.82-18.07,10.57-27.38,15.33
		c-4.84,2.47-8.14,6.29-11,10.61c-6.55,9.9-14.47,18.68-21.99,27.8c-7.21,8.74-17.01,13.71-26.96,18.45
		c-2.58,1.23-5.42,2.28-6.6,5.03c-2.31,5.39-6.69,8.73-11.36,11.59c-9.79,6-19.68,11.63-31.92,11.11
		c-6.81-0.29-13.15-7.1-12.29-14.12c0.24-1.98,0.34-3.99,1.17-5.86c0.49-1.1,0.77-2.27,0-3.33c-4.72-6.49-6.28-14.2-8.46-21.67
		c-0.08-0.29-0.41-0.5-0.81-0.97c-5.27,2.55-9.9,6.03-14.49,9.54c-3.73,2.85-7.62,5.38-12,7.09c-7.82,3.05-12.37,0.66-14.37-7.5
		c-0.69-2.79-0.79-5.6-0.16-8.42c0.26-1.14,0.68-2.26-0.58-3.57c-7.35,1.77-14.98,1.91-22.9,0.78c0.02-6.17,3.7-9.89,7.39-13.39
		c9.29-8.82,19.12-16.99,30.17-23.59c0.37-0.22,0.53-0.77,1.07-1.59c-15.17-3.86-30.82-4.55-46.48-9.8
		c6.79-6.04,13.84-9.29,20.99-12.26c6.99-2.9,13.88-6.19,21.37-6.44c0.25-1.78,0-2.49-0.92-2.86c-10.8-4.39-20.98-10.02-31.05-15.84
		c-2.48-1.44-4.53-3.31-6.03-6c2.06-3.07,5.07-4.11,8.43-4.55c16.74-2.21,33.53-2.2,50.35-1.29c18.15,0.98,36.12,3.61,54.17,5.5
		c9.58,1,19.25,2.3,28.42,5.33c6.08,2.01,11.77,1.52,16.81-1.45c9.3-5.49,19.16-10.07,27.81-16.65c1.88-1.43,3.46-3.07,4.71-5.1
		c10.09-16.46,19.09-33.55,28.49-50.4c0.49-0.88,0.9-1.78,0.6-3.21c-11.68-0.93-23.47-1.87-35.61-2.85
		c-1.59,9.76-4.47,18.92-7.4,28.07c-0.96,3.01-1.91,6.03-3.01,8.99c-2.52,6.8-6.68,12.21-13.31,15.55c-9.51,4.8-19.05,9.23-29.98,10
		c-6.77,0.47-12.47-1.19-17.39-5.69c-2.45-2.24-4.89-4.43-8.01-5.77c-2.5-1.07-4.3-3.08-6.16-5c-1.83-1.89-3.67-3.71-0.88-6.61
		c-4.06-1.5-7.17-3.32-9.94-5.29c-6.74,2.45-12.31,6.77-19.23,8.55c-10.2,2.63-18.87-0.45-24.24-9.4
		c-5.29-8.82-5.61-17.41-0.1-26.35c5.32-8.64,7.25-18.2,5.69-28.28c-1.13-7.3-1.29-14.6-0.44-21.91c0.34-2.95-0.4-5.38-2.53-7.19
		c-12.81-10.86-25.33-22.03-39.5-31.25c-12.56-8.17-25.77-15.26-38.21-23.6c-1.37-0.92-2.9-1.67-3.86-3.45
		c1.17-2.34,3.54-2.96,5.74-3.06c17-0.82,34.07-0.98,50.79,2.31c11.54,2.27,22.55,6.79,33.58,11.32c0.19-0.41,0.66-0.98,0.53-1.22
		c-6.61-12.3-12.07-25.2-19.39-37.13c-0.61-1-1.25-1.93-2.16-2.71c-17.83-15.27-35.02-31.27-52.45-47c-3.56-3.21-5.72-7.67-9.86-9.9
		c1.16-2.69,2.77-2.33,4.21-2.36c7.45-0.16,14.41,2.12,21.41,4.23c11.78,3.56,23.37,7.58,34.8,12.19
		c12.51,5.05,24.52,11.07,36.39,17.41c5.27,2.81,9.14,7.07,11.93,12.42c3.31,6.36,6.15,12.93,9.17,19.42
		c0.89,1.91,1.85,3.79,2.68,5.48c1.93-0.13,2.06-1.14,2.15-2.14c0.86-9.95,1.57-19.92,2.59-29.85c0.77-7.51-0.55-14.71-3.42-21.49
		c-5.59-13.23-9.08-27.12-13.43-40.74c-4.46-13.93-7.93-28.15-11.42-42.34c-1.22-4.96-2.88-9.92-2.94-15.13
		c-0.02-1.59-0.48-3.5,1.5-4.39c1.81-0.81,3.13,0.32,4.52,1.3c11.55,8.12,20.79,18.61,30.09,29.09
		c15.72,17.72,29.53,36.93,43.74,55.83c5.01,6.66,9.52,13.65,12.45,21.55c0.83,2.23,1.29,4.46,1.3,6.82
		c0.06,11.52-1.51,22.89-3.29,34.24c-0.38,2.42-0.69,4.85-0.39,7.55c7.19-9.69,15.13-18.67,21.19-29.18
		c-2.31-2.47-5.79-3.32-6.98-6.54c1.1-2.7,3.43-2.19,5.53-2.21c1.81-0.02,3.85,0.43,4.85-1.65c1.09-2.28-0.47-3.77-1.91-5.19
		c-9.2-9.01-17.02-19.17-24.68-29.47c-1.99-2.67-3.93-5.36-4.7-8.72c-0.8-3.47,0.11-4.69,3.68-4.31c6.73,0.71,12.98,3.27,18.87,6.27
		c5.49,2.79,11.25,4.96,16.54,7.98c2.32-0.86,1.78-3.12,2.53-4.68c2.11-4.34,4.03-8.77,6.05-13.16c1.44-3.13,1.64-5.76-1.36-8.47
		c-4.43-4.01-8.44-8.5-12.52-12.89c-1.43-1.54-3.23-2.37-5.04-3.14c-18.76-7.95-35.96-18.72-53.37-29.14
		c-9.44-5.65-18.66-11.62-27.49-18.18c-0.81-0.6-1.67-1.1-2.07-3.12c9.79-5.28,21.44-1.48,31.64-6.07
		c-0.54-2.12-2.33-3.79-4.32-5.25c-14.8-10.86-28.06-23.54-41.76-35.68c-3.36-2.98-6.51-6.2-9.65-9.42c-1.21-1.24-3-2.49-2.01-4.67
		c0.9-1.99,2.82-2.01,4.69-2.14c6.26-0.42,12.45,0.72,18.21,2.62c10.78,3.57,22.04,5.2,32.77,8.73
		c17.53,5.76,35.13,11.4,51.84,19.36c8.55,4.07,17.04,8.33,25.3,12.97c9.71,5.45,16.29,14.14,22.13,23.34
		c9.71,15.32,19.84,30.42,28.71,46.22c7.33,13.05,15.64,25.55,22.37,38.94c0.87,1.72,1.62,3.65,3.79,4.74
		c1.8-6.1-0.24-12.8,3.41-18.58c3.8,1.95,5.25,5.11,6.66,8.29c3.86,8.69,6.16,17.93,9.56,26.8c7.09,18.49,11.99,37.67,17.15,56.76
		c0.72,2.67,2.22,4.4,4.68,5.43c6.28,2.62,12.59,5.18,18.85,7.84c3.36,1.43,6.61,3.15,9.99,4.53c4.5,1.83,6.04,0.58,6.01-4.28
		c-0.03-4.99-1.32-9.89-0.96-14.91c0.2-2.84-2.47-4.6-2.78-7.36c-0.24-2.2-0.56-4.02,2.19-4.63c2.26-0.5,1.96-2.37,2.09-3.99
		c0.62-7.61,0.17-15.33,2.24-22.81c0.48-1.72,0.4-3.65,2.43-5.11c7.26,5.56,11.28,13.65,16.9,21.55
		c3.68-30.54,9.85-59.71,17.82-88.58c4.74,3.44,5.39,8.34,6.89,12.77c5.14,15.13,4.84,31.08,6.93,46.81
		c3.39-0.7,2.98-3.31,2.96-5.75c-0.02-2.5,0.04-4.97,3.75-4.04c1.87,0.47,2.71-1,3.67-2.07c6.77-7.58,13.2-15.42,19.18-23.64
		c16.38-22.49,33.7-44.22,51.41-65.68c8.25-10,16.98-19.59,25-29.83c8.16-10.42,16.21-21.18,26.54-29.74
		c10.15-8.4,20.86-15.96,32.82-21.64c3.15-1.5,6.18-3.26,9.24-4.93c15.25-8.31,31.83-13.46,47.78-20.11
		c14.11-5.88,28.58-10.8,42.65-16.79c8.69-3.7,17.66-6.75,26.51-10.07c1.83-0.69,3.81-0.94,5.07-2.8c0.81-1.19,2.34-1.09,3.69-1.06
		c3.55,0.08,4.56,1.57,2.89,4.76c-2.02,3.86-4.84,7.18-7.92,10.24c-13.93,13.86-27.86,27.73-41.86,41.52
		c-3.56,3.5-7.37,6.75-11.03,10.14c-0.72,0.66-1.53,1.33-1.44,2.82c13.27-0.46,26.48-5.43,40.86-1.91c-3.47,4.94-7.3,7.18-11.2,9.34
		c-19.36,10.71-39.56,19.89-58.28,31.72c-11.25,7.11-22.45,14.25-34.11,20.7c-7.04,3.89-12.04,10.45-17.78,15.99
		c-14.02,13.53-27.36,27.74-40.41,42.17c-8.71,9.63-16.95,19.68-26.13,28.89c-0.57,0.57-1.07,1.21-0.87,2.05
		c1.41,0.9,2.32-0.07,3.28-0.63c19.78-11.35,39.76-22.34,59.59-33.6c18.48-10.49,37.48-20.12,56.65-29.37
		c10.03-4.84,19.91-9.98,30.11-14.48c13.83-6.1,28.38-8.11,43.3-8.08c16.98,0.04,33.95,0.58,50.94,0.24
		c9.15-0.18,18.31,0.68,27.46,0.56c15.5-0.2,30.93,1.32,46.4,1.67c1,0.02,2,0.07,2.99,0.17c1.65,0.18,3.58,0.18,4.06,2.2
		c0.51,2.16-1.4,2.7-2.84,3.49c-6.76,3.69-14.04,6.06-21.3,8.48c-11.67,3.88-23.32,7.84-35.14,11.22
		c-14.51,4.14-28.77,9.14-43.45,12.69c-2.22,0.54-4.56,1.01-5.94,3.98c13.9,4.52,28.12,7.8,41.33,14.31
		c-0.65,2.87-2.42,3.67-4.59,4.37c-9.07,2.95-18.52,4.05-27.8,5.99c-16.11,3.36-32.41,5.83-48.38,9.86
		c-2.57,0.65-5.27,1.25-7.56,2.51c-12.58,6.88-26.15,11.53-39.07,17.63c-11.4,5.38-22.75,10.87-34.09,16.37
		c-13.3,6.45-26.79,12.51-40.36,18.38c-11.9,5.15-23.46,10.98-34.71,17.45c-6.03,3.47-12.25,6.61-18.3,9.85
		c0.03,0.54-0.08,0.99,0.08,1.14c6.13,5.41,11.24,11.8,16.86,17.69c1.32,1.39,2.86,1.88,4.87,2c10.15,0.59,20.32,0.46,30.46,0.23
		c17.35-0.41,34.61,1.34,51.95,1.17c12-0.12,23.97-0.88,35.97-1.06c11.44-0.17,22.55,1.64,33.61,4.06
		c14.94,3.28,29.68,7.36,44.34,11.73c17.7,5.27,35.05,11.39,51,20.93c3.14,1.88,6.41,3.54,9.62,5.29c0.9,0.49,1.72,1.03,1.87,2.58
		c-2.2,2.38-5.5,2.4-8.46,2.71c-27.78,2.89-55.55,1.91-83.32-0.26c-1.49-0.12-2.99-0.16-4.48-0.13c-0.42,0.01-0.83,0.41-2.13,1.09
		c11.84,8.54,24.7,14.77,36,24.75c-3.57,0.83-6.19,1.65-8.96,1c-13.97-3.3-28.24-4.59-42.43-6.45c-21.78-2.85-43.57-5.66-65.18-9.62
		c-13.28-2.43-26.7-3.6-40.16-4.56c-5.77-0.41-11.51-1.33-17.43-2.04c-0.9,2.41-0.56,4.4,0.68,5.97c3.02,3.83,4.79,8.37,7.4,12.43
		c3.32,5.17,4.02,10.57,0.98,16.39c-6.85,13.1-15.73,24.65-25.77,35.41c-3.82,4.09-8.56,5.42-13.82,5.8
		c-1.76,0.13-3.69-0.42-5.4,1.31c3.16,3.41,6.31,6.8,9.45,10.18c-1.1,2.24-3.34,0.53-4.63,2.03c6.88,10.28,12.1,21.6,17.85,32.63
		c2.98,5.71,5.03,11.92,6.7,18.2c1.57,5.9,3.03,11.85,4.96,17.64c3.86,11.55,5.81,23.56,8.77,35.32
		c3.77,14.99,6.93,30.14,11.71,44.86c0.46,1.42,0.89,2.82,0.37,4.52c-3.56,0.9-5.86-2.04-8.93-2.69c-2.36,1.95-2.74,4.6-2.66,7.54
		c0.13,5.49,0.21,10.99,0.04,16.48c-0.07,2.08-0.08,4.35-1.56,6.33c-3.99-2.11-4.28-7.34-8.5-10.41
		c-2.67,16.36-2.99,32.33-8.63,47.49c-17.11-40.01-28.77-81.9-44.28-122.59c-5.49,4.55-6.87,9.41-4.52,15.53
		c5.86,15.32,5.48,31.33,4.77,47.34c-0.81,18.12-4.98,35.45-11.36,52.44c-3.09,8.21-7.01,16.13-9.06,24.79
		c-1.81,7.63-2.65,15.37-3.86,23.07c-2.43,15.39-1.75,30.8-0.14,46.21c1.72,16.45,7.91,31.1,17.96,44.16
		C525.62,809.31,529.37,814.34,534.92,819.27z M275.78,372.64c0.3-3.48-0.63-6.5-1.47-9.47c-1.12-3.97-3.71-5.09-7.08-2.7
		c-3.27,2.32-6.91,3.85-10.33,5.82c-0.85,0.49-2.5,0.21-2.31,2.06c3.35,0.86,6.67,1.87,10.06,2.54
		C268.15,371.58,271.44,373.63,275.78,372.64z M266.21,245c-0.32-3.2-13.66-23.27-16.74-25.28c0.53,3.99-0.7,8.41,1.68,11.32
		C255.41,236.23,260.49,240.79,266.21,245z M254.47,380.34c-2.61-3.51-3.62-7.8-6.77-11.24c-3.39,2.79-7.94,2.32-12.32,5.93
		C242.36,376.85,247.99,379.68,254.47,380.34z"/>
</g>
</svg>
