<?xml version="1.0" encoding="utf-8"?>
<!-- Generator: Adobe Illustrator 24.0.2, SVG Export Plug-In . SVG Version: 6.00 Build 0)  -->
<svg version="1.1" id="Layer_1" xmlns="http://www.w3.org/2000/svg" xmlns:xlink="http://www.w3.org/1999/xlink" x="0px" y="0px"
	 width="860.57" height="727.24" viewBox="0 0 860.57 727.24" style="enable-background:new 0 0 860.57 727.24;" xml:space="preserve">
<g>
	<path d="M739.75,548.97c-1.84,1.97-2.45,4.08-3.13,6.07c-3.4,10-8.29,19.21-14.2,27.94c-4.1,6.06-10.3,8.78-16.79,10.88
		c-6.13,1.98-15.29-2.37-17.98-8.56c-1.38-3.16-1.53-5.97,0.49-8.94c3.02-4.44,6.91-8.11,10.44-12.09
		c8.87-9.99,11.32-21.56,9.55-34.42c-0.19-1.36-0.52-2.59-1.43-3.65c-6.19-7.26-8.86-16.03-9.87-25.21
		c-1.02-9.22-5.23-17.05-9.48-24.89c-5.88-10.84-12.66-21.18-19.8-31.17c-9.36-13.09-19.77-25.43-29.93-38.34
		c-12.01,21.5-29.6,36.12-50.53,47.04c0.1,2.26,2.1,2.51,3.38,3.4c11.92,8.3,20.62,19.15,26.25,32.54
		c4.65,11.06,10.64,21.47,16.09,32.13c5.69,11.12,10.44,22.72,16.55,33.57c7.42,13.18,13.99,26.89,22.77,39.3
		c5.39,7.61,10.63,15.33,15.8,23.08c1.32,1.98,2.86,2.83,5.18,3.29c8.51,1.66,17.02,3.2,25.68,3.72c0.67,0.04,1.31,0.22,2.03,1.15
		c-1.45,4.27-6.99,4.41-9.09,8.17c0.25,2.3,1.97,3.33,3.74,4.27c8.52,4.52,17.02,9.05,25.58,13.48c3.16,1.64,5.37,4.3,9.09,6.95
		c-10.53,3.71-20.79,3.38-30.78,6.06c2.18,3.64,6.21,5.12,8.41,8.33c-0.74,2.12-2.65,2.54-4.26,3.31c-2.1,1.01-4.33,1.8-6.31,3
		c-3.73,2.28-4.2,4.44-1.36,7.62c5.86,6.55,6.83,14.66,7.19,22.78c0.28,6.34-3.86,10.55-10.24,11.4c-6.98,0.93-13.93,0.98-20.7-1.54
		c-2.61-0.97-4.8-0.9-7.65,0.98c-4.69,3.08-9.52,6.51-15.94,5.96c-6.33-0.54-11.89-2.52-17.07-6.31c-1.61-0.18-2.55,1.15-3.57,2.17
		c-4.68,4.69-10.36,5.16-16.58,4.59c-6.57-0.6-12.6-2.14-18.25-5.77c-3.7-2.38-8.17-2.63-12.52-1.08
		c-8.01,2.85-15.66,2.64-22.69-2.69c-1.36-1.03-2.67-0.75-4.22-0.31c-9.84,2.77-18.05-1.34-25.31-7.12
		c-3.67-2.92-4.07-7.81-2.74-12.49c1.69-5.94,5.24-9.99,11.52-11.04c3.79-0.64,7.44-1.78,11.18-2.6c5.83-1.28,10.32-5.27,15.68-7.48
		c1.85-0.76,3.19-2.41,4.28-4.11c5.15-8.04,9.48-16.52,11.45-25.88c0.94-4.47,0.97-9.12-1.2-13.64c-8.72-18.23-18.67-35.58-31.99-51
		c-8.4-9.72-18.18-18.12-26.12-28.2c-3.02-3.84-6.21-5.56-11.16-5.99c-8.95-0.77-17.65-3.12-26.14-6.26
		c-13.1-4.86-26.03-10.14-38.97-15.41c-5.28-2.15-11.08-2.18-16.62-3.32c-5.68-1.17-11.23-2.94-17.16-3.12
		c-14.35-0.43-28.66-0.06-42.8,2.28c-9.84,1.63-19.92,1.84-29.55,4.85c-6.46,2.02-13.13,3.42-19.11,6.3
		c-0.42,1.49,0.28,2.15,1.14,2.75c5.2,3.61,10.46,7.14,15.56,10.88c1.98,1.45,3.71,1.13,5.52,0.1c3.03-1.74,5.95-3.67,9-5.37
		c2.42-1.35,4.82-2.95,7.74-2.59c2.38,3.59-1.49,6.45-0.64,10.2c5.54-0.47,11.08-0.93,16.62-1.4c3.98-0.34,7.95-0.79,11.94-1
		c1.81-0.09,3.91,0.07,4.53,2.27c0.56,1.99-1.19,3.05-2.47,3.96c-4.91,3.46-9.4,7.41-13.99,11.26c-1.25,1.05-2.56,2.01-3.19,3.77
		c2.76,1.05,5.94-0.17,7.93,2.14c0.21,2.37-1.64,2.98-2.89,3.92c-7.68,5.8-10.81,13.95-12.32,23.07c-1.6,9.71-2.49,19.44-1.77,29.27
		c0.23,3.08-1.1,5.53-3.26,7.52c-2.51,2.31-4.24,4.77-4.83,8.37c-1.27,7.73-7.57,10.6-14.1,12.35c-3.64,0.98-7.55,1.47-11.17,2.45
		c-8.2,2.22-13.81-1.01-17.54-7.63c-2.38-4.22-5.33-5.23-9.7-5.03c-5.33,0.24-10.56,0.4-15.55,2.7c-6.81,3.13-14.17,3.38-21.5,3.68
		c-2.47,0.1-4.11-1.14-5.58-2.78c-1.98-2.22-4.11-2.42-7.12-2.01c-6.07,0.83-11.81,3.75-18.14,2.91c-1.32-0.17-3.16,0.26-3.89-0.47
		c-4.1-4.09-8.81-2.25-13.42-1.85c-2.99,0.26-5.88,0.28-8.68-1.42c-2.03-1.23-4.58-0.35-6.89-0.41c-6.85-0.17-11.56-4.1-12.21-10.01
		c-0.31-2.75,0.54-4.88,2.62-6.63c3.37-2.82,7.11-4.79,11.41-5.93c13.5-3.58,27.15-6.73,40.21-11.68c8.23-3.12,15.84-7.7,23.12-12.7
		c0.81-0.56,1.5-1.32,2.17-2.06c5.86-6.44,5.63-7.05-1.23-12.17c-6.39-4.76-13.02-9.25-18.77-14.96
		c-14.61,8.64-28.39,3.65-41.95-2.9c-9.84-4.76-17.28-12.02-20.42-22.71c-2.13-7.26-0.42-14.47,1.76-21.56
		c3.21-10.44,10.82-17.3,18.94-23.78c1.82-1.46,3.95-2.64,5.17-4.66c4.5-7.44,11.64-10.56,19.65-12.45
		c25.03-5.91,48.83-15.19,72.09-26.04c6.17-2.88,12.39-5.63,18.27-9.08c1.41-0.83,3.07-1.32,4.18-3.6
		c-6.38-2.38-13.08-1.15-20.64-2.79c7.89-6.54,16.12-10.73,24.12-15.34c8.2-4.73,16.71-8.88,25.66-13.87
		c-3.44-3.11-5.43-6.74-10.94-5.58c-5.72,1.2-11.29-1.09-16.31-3.59c-15.61-7.76-27.54-19.08-33.05-36.18
		c-0.14-0.44-0.54-0.8-0.98-1.42c-3.7,1.44-7.49,2.7-11.11,4.22c-7.64,3.21-15.48,3.22-23.51,2.82c-9.84-0.48-19.28-2.99-28.84-4.97
		c-4.9-1.01-9.5,0.91-13.93,2.81c-16.4,7.03-32.02,15.48-46.48,26.01c-3.9,2.84-8.07,5.31-11.92,8.21
		c-13.78,10.39-24.23,23.74-32.95,38.43c-7.56,12.74-15.54,25.24-22.5,38.33c-10.44,19.62-18.74,40.08-24.49,61.58
		c-4.11,15.39-4.63,30.76-0.45,46.23c1.01,3.75,1.16,7.49-0.6,11.21c-4.02,8.52-8.21,10.46-17.16,7.42
		c-2.59-0.88-4.91-0.81-7.66-0.24c-15,3.12-29.11,1.25-41.61-8.42c-4.07-3.15-8.41-5.88-11.72-10c-3.18-3.96-5.6-8.21-7.24-12.98
		c-1.17-3.41,0.71-6.29,1.85-9.07c1.24-3.01,0.62-4.56-1.52-6.85c-11.6-12.37-13.33-27.04-9.19-42.86
		c3.15-12.01,9.67-22.18,17.42-31.7c6.22-7.64,13.31-14.44,19.98-21.64c1.26-1.36,2.41-2.74,2.99-4.54
		c5.2-16.13,13.61-30.67,22.48-44.97c1.39-2.23,1.74-5.51,5.35-6.28c2.04,4.16-0.61,8.76,1.94,13.47
		c5.72-10.94,10.14-22.12,17.44-32.07c2.66,2.66,1.78,5.04,1.47,7.18c-1.8,12.02-2.9,24.15-5.89,35.97
		c-0.17,0.67-0.1,1.31,0.46,1.87c1.74,0.67,2.85-0.57,3.84-1.58c5.93-6.07,12.28-11.72,17.65-18.35c2.54-3.14,3.37-6.23,2.45-10.13
		c-0.95-4.06-1.02-8.25-0.58-12.42c0.15-1.47,0.21-2.97,1.44-4.28c3.58,0.83,5.01,4.91,9.37,5.74c6.61-18.18,13.1-36.56,27.35-51.85
		c1.73,10.68-0.7,20.18-0.58,30.04c3.6-0.58,4.89-3.34,6.53-5.44c13.65-17.41,26.54-35.39,39.59-53.26c1.57-2.15,3.4-4.1,5.13-6.13
		c4.3-5.03,4.26-8.38,0.24-13.3c-3.06-3.74-5.9-7.73-7.36-12.39c-1-3.21-2.74-5.65-5.4-7.54c-8.8-6.24-14.4-15.08-19.6-24.23
		c-4.97-8.73-8.52-18.06-11.67-27.55c-2.26-6.8-3.08-13.95-5.26-20.8c-4.29-13.52-3.71-27.59-3.98-41.55
		c-0.08-4.05,0.78-7.95,1.75-11.83c0.84-3.35,2.47-4.01,5.47-2.02c4.17,2.76,7.94,6.07,11.41,9.67
		c9.29,9.64,17.09,20.43,24.06,31.83c1.65,2.7,3.63,5.12,6.12,7.49c1.1-1.47,0.22-2.42-0.2-3.31c-9.18-19.54-1.87-38.02,13.1-48.48
		c7.51-5.24,11.31-11.92,11.63-20.84c0.35-9.91,1.6-19.74,6.46-28.48c6.13-11.01,15.19-19.04,26.67-24.58
		c5.78-2.79,11.64-4.74,17.89-5.89c10.05-1.86,19.9-0.88,29.48,2.34c2.41,0.81,4.95,0.58,7.21,1.7c3.55,1.75,7.39,2.83,10.44,5.67
		c4.11,3.83,9.6,4.47,14.84,5.16c3.38,0.45,6.39-0.91,8.75-3.8c3.65-4.47,5.94-9.63,8.1-14.85c4.93-11.93,19.6-18.88,33.31-16.04
		c3.02,0.62,4.59,0.08,6.42-1.92c8.34-9.11,17.85-16.91,27.48-24.59c0.77-0.62,1.5-1.31,2.67-1.48c2.13,2.66-1.36,4.51-0.87,6.88
		c1.32,0.98,1.67-0.51,2.28-1.03c4.22-3.52,8.47-7.02,12.53-10.72c2.42-2.21,5.57-3.68,7.04-6.9c0.46-1.02,1.48-1.36,2.52-0.79
		c1.12,0.62,0.93,1.65,0.55,2.62c-0.24,0.61-0.57,1.21-0.97,1.73c-11.9,15.84-22.79,32.44-35.7,47.52c-1.26,1.47-2.43,3.03-2.7,5.83
		c8.3-4.3,16.97-6.02,24.58-10.65c11.67-7.11,24.37-10.45,38.17-8.53c7.19,1,13.71,3.91,20.36,6.54c10.53,4.17,20.29,10.04,30.91,14
		c15.59,5.81,31.59,9.35,48.29,7.15c7.61-1,14.55-3.98,20.51-9.35c4.99-4.5,8.78-9.98,13.49-14.66
		c5.08-5.05,10.32-10.17,16.51-13.63c10.67-5.98,21.7-6.92,32.35,0.77c3.89,2.81,7.79,5.5,13.26,4.3c3.54-0.77,5.44-3.17,7.39-5.52
		c3.19-3.84,7.04-6.34,11.64-8.25c3.66-1.52,7.27-2.14,10.62-0.52c9.95,4.81,19.08,0.52,28.47-1.83c7.82-1.96,15.72-3.62,23.88-4.64
		c-16.08,10.24-33.65,17.59-49.75,28.42c1.33,3.46-0.97,5.45-4.02,7.19c-17.64,10.07-34.35,21.64-51.69,32.21
		c-1.58,0.96-3.01,1.59-2.55,4.09c0.32,1.73-2.04,2.88-2.56,4.66c1.94,1.37,3.29-0.02,4.68-0.69c8.38-4.05,16.74-8.15,25.39-11.61
		c1.83-0.73,3.63-1.44,5.47-1.42c0.88,1.6,0.02,2.12-0.88,2.65c-3.01,1.79-5.63,4.12-8.53,6.07c-5.06,3.4-8.08,8.52-9.05,14.45
		c-0.9,5.55-4.73,8.05-9.22,9.23c-4.29,1.12-8.72,2.11-13.28,2.15c-4.05,0.04-7.23,2.43-10.19,4.85
		c-9.8,8.03-17.84,17.36-22.41,29.46c-3.13,8.28-9.91,13.93-16.72,18.78c-5.42,3.86-12.61,2.39-19.01,1.42
		c-8.88-1.35-17.26-4.91-26.15-6.36c-2.51-0.41-3.73-2.06-4.45-4.68c-2.66-9.66-8.74-16.1-18.53-19c-4.97-1.47-9.9-3.12-15.14-2.84
		c-9.99,0.53-18.87,3.64-25.51,11.63c-1.64,1.98-2.24,3.93-1,6.39c0.66,1.31,0.91,2.85,1.26,4.31c1.39,5.82-2.18,10.07-8.22,9.9
		c-1.8-0.05-3.61-0.76-6.1,0.16c0.04,4.83-1.07,9.8-1.69,14.65c4.31,3.28,9.83,1.13,14.02,4.14c-0.55,2.53-2.59,3.63-4.16,4.92
		c-4.36,3.61-8.9,6.99-13.4,10.42c-1.35,1.03-2.6,2.14-3.1,3.81c-1.38,4.62-3.23,9.05-5.53,13.13c0.91,1.93,2.16,1.92,3.83,1.49
		c14.12-3.63,27.98-3,41.5,2.76c5.19,2.21,10.63,3.79,15.43,6.97c11.61,7.69,20.28,18.24,28.19,29.39c4,5.64,8.97,10.29,13.71,15.14
		c16.66,17.03,34.42,32.84,54.15,46.31c10.87,7.42,22.32,13.88,33.77,20.36c0.7,0.4,1.54,0.57,3.06,1.11
		c-3.27-14.7-6.42-28.89-9.57-43.07c0.5-0.23,0.99-0.46,1.49-0.7c5.32,2.92,7.2,9.06,11.28,13.13c4.11,4.1,6.9,9.24,10.87,13.88
		c0.62-1.03,1.08-1.54,1.25-2.13c6.49-21.84,18.72-40.28,33.42-57.38c7.82-9.1,15.32-18.52,24.57-26.19
		c18.56-15.37,38.59-28.49,61.82-35.66c10.58-3.27,21.61-5.07,32.63-6.75c8.35-1.27,16.22-0.26,24.08,2.03
		c13.01,3.78,19.23,15.38,18.03,28.14c-0.39,4.1-2.68,7.81-5.65,10.92c-9.34,9.79-21.34,13.73-34.23,15.79
		c-17.58,2.81-35.21,5.68-51.78,12.47c-16.78,6.87-31.78,16.62-45.03,29.17c-10.69,10.12-20.54,20.87-28.5,33.28
		c-1.43,2.24-2.69,4.59-3.98,6.91c-1.45,2.61-1.09,5.13-0.49,8.08c3.08,15,12.8,26.13,21.49,37.84c7.04,9.49,14.45,18.74,22.5,27.4
		c10.55,11.33,21.53,22.25,32.87,32.8c1.46,1.36,3.15,2.52,4.42,4.04c2.52,3.03,5.75,4.72,9.21,6.5
		c12.31,6.32,23.19,14.45,29.63,27.17c2.62,5.17,5.25,10.43,5.66,16.4c0.27,3.9,2.18,6.77,5.05,9.38
		c10.62,9.64,22.2,18.1,33.21,27.25c3.48,2.89,6.71,6,9.73,9.32c6.61,7.3,6.56,14.47-0.01,21.55c0.38,1.98,2.35,2.64,3.46,4.01
		c4.5,5.54,9.24,10.96,8.37,18.94c-0.68,6.28-2.6,8.7-8.74,10.41c-0.63,0.17-1.24,0.41-2.22,0.74c2.53,4.84,2.22,9.27-1.57,13.22
		c-4.96,5.18-12.6,5.88-19.06,1.17c-8.08-5.88-15.77-12.26-22.68-19.54c-7.33-7.72-15.27-14.8-23.46-21.71
		c2.43,6.51,6.33,12.17,10.04,17.93c4.41,6.85,9.4,13.33,12.99,20.69c1.04,2.12,1.61,4.33,1.68,6.72c0.2,6.25-4.14,9.02-8.74,11.6
		c-4.39,2.46-8.61,2.06-12.6-0.92c-3.23-2.42-5.97-5.36-8.16-8.72c-5.09-7.82-9.78-15.87-13.91-24.25
		c-5.37-10.9-10.76-21.79-16.52-32.48C745.67,555.11,743.65,551.51,739.75,548.97z M542.61,423.11c-1.49,3.09-4.02,4.18-6.12,5.76
		c-8.34,6.28-9.68,6.12-1.3,16.14c0.84,1,1.79,1.66,3.01,1.22c5.03-1.85,10.48-1.49,15.58-3.28c8.51-2.98,16.5-6.99,24.55-10.98
		c16.85-8.36,27.34-22.53,35.4-38.69c4.85-9.73,3.73-12.14-6.29-15.8c-11.57-4.22-22.68-9.5-34.16-13.87
		c-16.01-6.09-32.2-11.68-48.19-17.81c-8.37-3.21-16.75-4.27-25.41-1.99c-13.76,3.63-12.5,1.13-16.27,15.14
		c-0.17,0.64-0.46,1.26-0.59,1.91c-1.85,9.52-2.83,19.04-0.02,28.74c1.7,0.26,3.45-1.04,4.84,0.39c1.38,1.42,0.21,3.59,1.47,5.29
		c17.8-0.7,35.57,0.53,53.36,0.48c4.31-0.01,8.65,0.4,12.94,0.88c3.1,0.34,3.71,1.98,1.72,4.36c-1.49,1.79-3.31,3.26-5.25,4.59
		c-7.49,5.15-14.95,10.35-23.05,15.96C533.66,422.98,538.06,421.73,542.61,423.11z"/>
</g>
</svg>
