<?xml version="1.0" encoding="utf-8"?>
<!-- Generator: Adobe Illustrator 24.0.2, SVG Export Plug-In . SVG Version: 6.00 Build 0)  -->
<svg version="1.1" id="Layer_1" xmlns="http://www.w3.org/2000/svg" xmlns:xlink="http://www.w3.org/1999/xlink" x="0px" y="0px"
	 viewBox="0 0 860.78 803.08" style="enable-background:new 0 0 860.78 803.08;" xml:space="preserve">
<g>
	<path d="M523.16,803.08c-7.78-4.34-17.11-3.53-24.07-9.3c-2.44-2.03-5.49-0.94-8.23-0.6c-5.12,0.63-9.88-0.2-14.37-2.66
		c-0.15-0.08-0.28-0.22-0.43-0.24c-10.45-1.55-14.33-10.81-20.27-17.52c-5.6-6.33-9.54-13.92-14.78-20.61
		c-3.58-4.57-5.71-10.42-7.79-15.96c-0.84-2.22-1.64-3.29-3.81-3.8c-6.31-1.49-12.63-3-18.88-4.72
		c-18.96-5.23-37.37-11.73-53.99-22.66c-4.96-3.26-8.2-2.11-11.78,1.04c-5.7,5.01-8.78,11.7-12.07,18.17
		c-3.91,7.69-7.1,15.74-10.72,23.58c-0.82,1.77-1.01,2.96-0.02,4.97c2.05,4.14,3.94,8.39,5.89,12.61c1.08,2.35,0.73,4.88,0.17,7.51
		c-2.15,1.17-4.4,0.88-6.71,0.44c-5.07-0.97-10.17-1.67-15.34-0.82c-4.23,0.69-4.99,1.68-4.42,5.98c0.79,6.02-0.67,7.25-6.23,5.15
		c-1.12-0.42-2.22-0.87-3.38-0.68c-6.32,1.05-11.67-1.67-17.06-4.29c-0.45-0.22-0.91-0.8-1.27-0.72c-4.6,0.97-9.45-1.71-13.68,0.71
		c-1.18,1.13-0.38,2.08-0.39,3.01c-0.05,3.46-2.89,5.41-5.96,4.1c-2.6-1.1-5.31-2.16-7.4-4.09c-5.15-4.75-11.35-6.72-18.12-7.48
		c-4.94-0.55-9.89-0.99-14.82-1.63c-4.75-0.61-7.46-2.81-9.47-6.9c-3.67-7.48-5.14-15.54-5.34-23.62
		c-0.17-6.71-1.46-13.2-2.03-19.81c-0.39-4.49-0.5-8.96,0.57-13.38c0.08-0.32,0.14-0.68,0.07-0.99c-2.07-9.63,2.22-18.59,2.97-27.94
		c0.53-6.6,2.19-13.1,4.1-19.45c1.69-5.6,2.5-11.37,3.57-17.07c2.28-12.12,5.41-23.95,9.7-35.51c1.83-4.95,3.08-10.11,4.67-15.42
		c-1.49-0.87-3.17-0.34-4.63,0.04c-4.86,1.25-9.84,1.61-14.79,2.28c-4.32,0.58-5.13-0.08-4.21-4.45c0.83-3.95,0.71-7.95,1.22-11.89
		c0.62-4.84-0.79-9.6,0.25-14.26c-4.82-2.44-10.28-0.57-12.61,4.19c-2.7,5.54-5.04,11.24-6.37,17.28c-0.8,3.62-3.14,5.51-6.32,7.12
		c-11.73,5.95-24.16,8.26-37.19,7.92c-1.32-0.03-2.65,0.25-3.97,0.36c-4.27,0.38-6.22-1.6-5.49-5.91
		c1.25-7.42,4.41-14.26,6.71-21.36c0.6-1.84,1.97-3.52,1.18-5.9c-2.01,0.62-2.67,2.39-3.52,3.87c-3.42,5.93-7.37,11.47-11.54,16.9
		c-1.59,2.07-3.14,2.83-5.48,1.97c-4.82-1.78-9.68-3.47-14.41-5.48c-2.27-0.96-4.32-2.46-6.74-2.53c-1.58-2.1-0.58-3.72,0.54-5.18
		c7.07-9.25,12.6-19.6,20.5-28.24c0.43-0.47,0.71-1.14,0.06-2.58c-9.57-0.12-16.68,6.23-24.9,10.66
		c-3.27-5.35-5.01-11.24-7.02-16.97c-3.66-10.43-3.65-10.64,5.54-16.68c18.35-12.06,36.62-24.26,55.6-35.33
		c11.32-6.6,22.58-13.5,34.86-18.01c6.69-2.46,13.19-5.32,19.77-8c7.82-3.18,15.44-6.84,23.97-10.67c-4.93-4.32-10.75-6.17-16-8.84
		c-5.28-2.69-10.11-6.31-16.6-7.53c2.37-5.46,7.95-7.49,9.91-12.83c-4.7,0.61-7.76,3.61-11,6.19c-4.5,3.59-4.55,3.45-9.63,0.79
		c-9.44-4.94-19.28-8.98-29.36-12.43c-4.73-1.62-5.14-2.47-2.23-6.51c2.29-3.19,5.67-5.53,7.49-9.48c-2.42-0.39-3.96,0.92-5.4,2.22
		c-7.15,6.5-15.44,11.55-22.77,17.82c-2.2,1.88-4.37,0.86-6.45-0.36c-5.03-2.93-9.66-6.5-15.01-8.92
		c-9.09-4.1-18.17-8.22-26.41-13.99c-2.37-1.66-5.83-1.45-7.89-4.38c2.58-3.33,6.84-5.22,8.65-9.64c-1.93-0.39-3.12,0.94-4.44,1.62
		c-1.92,0.98-3.65,2.36-5.59,3.28c-6.53,3.09-6.07,2.51-11.44-2.34c-5.18-4.67-8.87-10.68-14.66-14.77
		c-4.77-3.37-4.31-5.89,0.89-8.85c6.67-3.8,12.87-8.3,19.22-12.58c0.8-0.54,1.66-1.07,2.11-3.19c-6.72,0.97-11.92,4.71-17.74,6.47
		c-5.87,1.78-11.74,3.64-17.01,6.21c-1.64-0.3-2.35-1.29-2.96-2.24c-6.01-9.39-13.01-18.11-18.69-27.72
		c-1.1-1.86-2.09-3.8-2.87-5.81c-1.1-2.83-2.42-5.27-4.96-7.25c-3.36-2.61-2.81-5,1.15-6.49c5.14-1.93,10.37-3.54,15.95-3.59
		c2.36-0.02,4.62-0.75,6.76-1.64c2.98-1.24,3.25-3.27,0.59-5.04c-2.63-1.75-5.38-3.4-8.27-4.63c-4.63-1.97-8.66-4.95-13.04-7.3
		c-2.68-1.44-3.34-3.32-2.65-6.16c1.7-6.93,3.23-13.89,4.87-20.83c0.54-2.27,0.91-4.54,1.07-6.89c0.24-3.35,1.6-4.09,4.62-2.61
		c1.78,0.87,3.32,2.24,5.08,3.15c11.19,5.73,22.73,10.71,34.27,15.69c1.39,0.6,2.82,1.04,4.22,0.2c0.49-0.98,0-1.7-0.44-2.37
		c-6.85-10.48-11.95-21.92-18.02-32.84c-1.38-2.48-2.78-4.92-4.38-7.27c-2.47-3.63-1.92-4.44,2.21-5.67
		c6.93-2.05,14.03-3.84,19.95-8.59c-1.56-6.93-5.31-12.8-7.12-20.03c6.84-1.15,13.31-2.75,19.85-3.2
		c8.31-0.58,16.36-2.84,24.66-3.27c1.32-0.07,2.63-0.42,3.95-0.61c7.69-1.09,8.68-0.18,12.17,6.93
		c6.58,13.42,11.63,27.6,19.92,40.19c1.57,2.38,2.56,5.14,4.23,7.58c1.2-2.87,0.63-5.55,0.06-8.25
		c-2.14-10.06-4.31-20.11-6.34-30.19c-1.18-5.85,0.53-7.76,6.49-7.08c10.89,1.24,21.72,3.07,32.74,2.83
		c3.62-0.08,6.84,2.44,10.7,1.57c1.26-0.28,2.01,1.55,2.4,2.85c2.45,8.18,6.25,15.69,10.82,22.89c3.65,5.77,5.83,12.28,8.64,18.48
		c3.29,7.27,7.07,14.32,10.66,21.46c0.45,0.9,1.05,1.72,3.22,1.6c-2.16-19.39-1.86-38.92-4.21-58.34c2.22-1.82,4.48-1.09,6.74-0.68
		c8.66,1.58,17.1,4.34,26.05,4.9c1.16-0.64,0.97-1.88,1.01-3c0.42-10.15,2.49-20.09,3.96-30.1c0.74-5.04,2.6-9.97,4.13-14.86
		c2.33-7.43,4.02-15.11,7.71-22.1c1.3-2.47,1.92-5.3,2.85-7.97c4.7-13.57,12.11-25.88,18.01-38.89c0.62-1.36,1.36-2.68,1.82-4.09
		c1.59-4.93,3.93-9.45,6.43-13.99c6.84-12.39,10.42-25.69,9.89-39.98c-0.09-2.4-0.47-5.55,1.92-6.83c2.62-1.4,4.61,1.32,6.43,2.8
		c5.63,4.59,9.6,10.56,13.25,17.51c8.32-4.82,14.72-11.82,22.91-16.96c-0.19,6.12,0.6,12.18-1.05,18.07
		c-1.24,4.44,0.38,7.33,4.21,9.84c6.8-6.92,11.66-14.8,15.35-23.67c2.36-5.67,0.26-10.75-0.64-15.95
		c-0.96-5.56-1.77-11.18-3.05-16.68c-0.51-2.19,0.58-3.48,1.57-4.95c1.3-1.92,2.7-1.87,4.58-0.44c5.67,4.3,9.99,10.09,15.87,14.17
		c2.45,1.7,3.87,4.54,5.48,7.07c0.8,1.26,1.44,2.68,2.73,3.53c2.12,1.39,4.09,2.1,5.89-0.74c1.41-2.24,3.03-4.41,5.16-6.07
		c1.56-1.21,3.01-2.75,5.52-2.05c1.5,2.38,1.08,5.8,3.46,7.94c1.72,0.17,2.08-1.4,2.93-2.31c1.14-1.21,2.11-2.6,3.38-3.65
		c5.72-4.75,7.29-4.25,9.69,2.6c1.08,3.1,1.27,6.51,3.2,9.68c6.6-3.05,11.85-9.24,19.96-8.73c1.57,6.2,2.53,12.13,4.94,17.67
		c3.24,7.47,7.33,13.48,15.33,17.34c8.58,4.13,16.19,10.33,24.04,15.93c9.16,6.54,16.66,14.76,25.14,21.96
		c10.97,9.32,19.87,20.53,28.04,32.33c0.46,0.67,1.03,1.27,1.62,1.82c0.17,0.16,0.61,0.02,1.33,0.02c0.69-4.34-1-8.41-2.52-12.18
		c-1.58-3.93-0.91-6.16,2.06-9.03c4.53-4.38,9-8.89,12.72-14.07c1.92-2.68,4.37-4.98,7.05-7.03c3.44-2.63,5.89-6.27,8.52-9.46
		c2.51,0.15,3.5,1.83,4.39,3.34c4.97,8.44,9.9,16.91,14.7,25.45c2.12,3.78,5.29,6.87,6.98,10.92c0.51,1.22,1.71,1.53,2.97,1.23
		c1.46-0.34,1.59-1.42,1.49-2.71c-0.8-10,0.68-19.92,1.14-29.87c0.38-8.35-0.3-16.64-0.2-24.96c0.02-1.31-0.16-2.66,0.69-4.27
		c7.89-1.85,15.94-3.54,24.23-4.4c6.87-0.71,13.53-0.38,20.25,1.04c4.1,0.87,6.04,2.46,6.79,6.57c0.3,1.61-0.31,3.35,0.93,5.18
		c5,1.84,10.57,0.77,15.95,1.48c5.28,0.7,5.37,0.42,5.49,5.88c0.18,7.64-0.68,15.25-0.98,22.87c-0.17,4.36,1.59,6.43,4.81,8.51
		c10.72-4.35,21.24-9.22,31.68-14.25c2.85-1.37,5.79-2.5,8.87-3.33c2.88-0.78,4.3-0.13,4.88,2.98c1.43,7.64,1.23,15.34,0.13,22.89
		c-0.91,6.3-1.24,12.57-1.31,18.88c-0.03,3.45-1.21,5.49-4.59,6.75c-4.03,1.49-7.88,3.48-12.09,4.56c-1.6,0.41-3.21,0.97-4.47,2.93
		c6.41,1.81,12.09-2,18-1.74c5.89,0.25,11.77-1.93,17.53-0.42c0,5.71,0.51,11.06-0.11,16.27c-1.13,9.56-3.01,19.04-4.39,28.57
		c-0.45,3.08-1.92,3.99-4.91,4.33c-7.7,0.9-15.36,2.08-22.98,3.58c-4.87,0.96-9.85,1.33-14.79,1.94c-2.4,0.3-4.82,0.53-7.27,0.79
		c0.26,3.17,2.23,2.79,3.75,2.88c4.83,0.27,9.62,0.75,14.32,2c5.38,1.43,6.43,2.75,6.11,8.37c-0.51,9.02-2.48,17.81-4.6,26.54
		c-0.47,1.95-0.84,3.47,0.71,4.98c1.5,1.47,3.06,0.79,4.64,0.24c10.37-3.64,20.98-6.13,31.9-7.51c4.6-0.58,9.06-2.04,13.8-1.88
		c6.79,0.22,13.48,5.01,15.81,11.39c0.62,1.69,1.72,3.22,2.66,4.79c4.89,8.14,9.19,16.66,12.9,25.33
		c3.97,9.27,7.75,18.77,9.57,28.82c0.4,2.23,1.49,3.51,3.2,4.72c3.28,2.31,7.05,3.7,10.46,5.8c5.14,3.16,8.51,7.68,8.3,13.38
		c-0.35,9.61,4.85,16.72,9.27,24.2c4.95,8.38,9.12,17.04,10.98,26.6c2.49,12.75,7.7,24.33,14.61,35.17c4.48,7.03,5,14.53,2.47,21.94
		c-1.59,4.64-5.93,7.96-9.76,11.1c-2.28,1.87-3.85,3.76-4.82,6.64c-1.67,4.99-5.28,8.67-9.67,11.55c-0.72,0.47-1.54,0.89-2.34,0.54
		c-2.66-1.17-4.29,0.37-5.33,2.32c-2.11,3.94-5.49,7.03-7.28,11.16c-0.94,2.18-2.4,4.04-4.03,5.69
		c-5.63,5.71-10.07,12.42-15.41,18.32c-7.03,7.77-14.38,15.28-22.35,22.13c-6.96,5.98-14.02,11.74-22.38,15.78
		c-4.25,2.05-5.45,6.78-3.46,13.09c3.66,11.56,7.36,23.12,11.49,34.52c1.83,5.06,3.08,10.16,3.98,15.41
		c2.11,12.3,5.68,24.31,7.35,36.69c1.11,8.24,3.27,16.5,3.34,24.68c0.12,15.32,2.7,30.53,1.65,45.84
		c-0.57,8.29-1.65,16.54-2.59,24.8c-0.19,1.68-0.72,3.25,1.18,4.37c4.52,2.67,7.73,6.67,10.98,10.69c1.87,2.31,3.94,4.53,6.53,6.14
		c0.98,0.61,2.09,1.27,1.72,2.72c-0.4,1.52-1.62,2.07-3.05,2.07c-3.17,0-6.33,0-9.49-0.15c-3.22-0.16-6.16,0.64-8.96,1.81
		c-0.6,2.6,1.61,3.77,2.15,5.64c1,3.48-0.19,4.63-3.71,4.92c-9.31,0.76-17.54-3.12-26.12-5.51c-2.17-0.6-4.29-1.62-6.58-1.38
		c-0.75,2.61,2.16,3.51,2,6.45c-3.44,0.25-7.09,1.06-10.61,0.67c-8.64-0.96-16.95-3.47-24.75-7.35c-3.71-1.85-7.59-2.32-11.57-2.61
		c-6.39-0.45-12.66-1.99-17.87-5.47c-5.36-3.59-9.4-8.93-12.64-14.57c-8.78-15.28-17.36-30.65-24.44-46.86
		c-5.19-11.89-10.79-23.58-15.26-35.78c-1.93-5.26-3.95-5.62-8.59-2.62c-6.98,4.53-13.66,9.75-21.15,13.21
		c-7.79,3.61-15.47,7.69-24.11,9.98c2.99,24.35,6.95,48.42,6.32,73.72c4.07,3.51,7.89,8.43,11.28,13.82
		c2.56,4.08,3.09,8.77,5.18,12.92c0.73,1.46-0.13,2.48-1.34,3.34c-1.41,1-2.63,1.68-4.53,0.76c-4.79-2.33-9.85-3.96-15.11-4.92
		c-1.47-0.27-3.06-0.97-4.14,0.53c-1.01,1.41-0.5,2.88,0.58,4.1c2.59,2.9,1.28,6.74,3.24,10.39c-6.87-0.41-12.82-1.67-18.54-3.59
		c-6.49-2.19-13.54-1.69-19.87-4.58c-1.56-0.71-3.63-0.58-5.43-0.42c-5.79,0.5-7.02,2.04-6.79,7.89c0.05,1.33,0.01,2.66-0.1,3.99
		C524.05,801.56,523.69,801.98,523.16,803.08z"/>
</g>
</svg>
