<?xml version="1.0" encoding="utf-8"?>
<!-- Generator: Adobe Illustrator 24.0.2, SVG Export Plug-In . SVG Version: 6.00 Build 0)  -->
<svg version="1.1" id="Layer_1" xmlns="http://www.w3.org/2000/svg" xmlns:xlink="http://www.w3.org/1999/xlink" x="0px" y="0px"
	 viewBox="0 0 763.66 860.58" style="enable-background:new 0 0 763.66 860.58;" xml:space="preserve">
<g>
	<path d="M465.76,490.08c-7.77,8.05-17.06,13.05-27.33,16.44c-3.92,1.3-7.9-0.51-9.48-4.42c-1.16-2.85-1.34-5.81-1.19-8.83
		c0.1-2,0.23-3.99-1.31-5.89c-6.25,2.86-13.03,2.08-19.58,2.94c-10.51,1.37-19.54,6.27-28.63,11.2
		c-11.55,6.27-23.34,12.06-35.09,17.94c-9.69,4.85-19.98,8.24-29.7,12.99c-6.17,3.02-13.03,3.94-19.53,5.96
		c-1.91,0.59-3.85,1.05-5.46,2.09c-3.29,13.05-0.13,24.71,5.81,36.47c5.18,10.26,12.51,18.84,18.97,28.06
		c4.52,6.47,10.75,11.8,16.98,16.8c4.35,3.49,6.98,7.87,8.57,13.07c1.68,5.48,0.7,10.4-3.76,14.03c-3.88,3.15-4.18,6.77-3,11.16
		c1.69,6.25,3.15,12.57,4.69,18.86c2.55,10.39-3.41,20.63-13.82,22.96c-8.27,1.85-16.65,3.25-25.03,4.49
		c-15.49,2.3-29.79,8.16-44.14,14c-7.36,3-14.9,5.59-22.24,8.63c-15.32,6.35-29.68,14.3-41.74,25.96c-2.32,2.25-4.46,4.99-8.04,5.19
		c-0.39-0.36-0.81-0.56-0.84-0.82c-1.74-12.25-3.71-24.5,4.86-35.38c1.99-2.53,4.15-4.73,6.91-6.39c1.99-1.2,3.91-2.53,3.64-6.24
		c-8.82,0.8-17.21-1.97-26.2-0.24c-8.93,1.72-15.97,7.08-23.99,10.49c-2.37-2.99-2.69-5.37-1.53-8.94
		c1.93-5.94,3.88-11.56,8.18-16.3c4.06-4.48,8.58-7.28,14.73-8.43c11.02-2.06,22.57-0.29,33.16-3.84
		c11.2-3.75,22.59-3.27,33.96-4.39c16.15-1.59,31.91-5.22,45.61-14.75c2.26-1.57,5.4-2.68,3.12-6.53c-0.49-0.83,0.07-1.95,0.5-2.87
		c6.5-14.12,2.83-27.32-3.78-40.18c-10.81-21.03-24.31-40.12-41.22-56.72c-3.28-3.22-5.94-6.75-6.27-11.57
		c-0.43-6.29-3.99-11.85-3.83-18.39c0.14-5.69,0.9-11.36,4.06-15.72c4.74-6.52,7-13.87,9.55-21.2c4.4-12.63,11.64-23.45,20.35-33.5
		c15.32-17.7,33.31-32.02,53.71-43.35c12.67-7.03,25.7-13.29,39.67-17.37c1.39-0.41,2.95-0.65,4.19-2.41
		c-7.13-7.18-10.68-16.41-13.39-26.17c-4.71-0.94-9.29-1.49-13.8-2.72c-7.43-2.04-13.08-6.29-18.23-11.65
		c-7.37-7.68-13.26-16.26-15.86-26.7c-1.02-4.09-3.07-5.8-7.32-5.56c-3.13,0.18-6.3-0.21-9.44-0.75c-2.54-0.44-4.95,0.18-6.97,1.98
		c-4.06,3.62-9.21,5.24-14.02,7.47c-2.58,1.2-5.4,1.83-8.28,1.52c-3.92-0.42-6.66,1.16-8.87,4.32c-2,2.86-4.21,5.6-6.52,8.21
		c-4.38,4.94-9.14,9.31-16.46,8.74c-0.92-0.07-1.51,0.4-2.22,0.87c-8.16,5.37-16.65,5.13-25.17,1.1
		c-11.45-5.42-22.1-12.35-33.38-18.04c-17.84-9.01-36.11-17.13-55.65-21.92c-1.13-0.28-2.26-0.56-3.4-0.76
		c-0.47-0.08-0.99,0.05-1.72,0.09c-1.26,2.84-0.81,5.93-0.14,8.66c2.14,8.73,2.81,17.73,5.3,26.39c1.38,4.8,3.44,9.37,4.5,14.28
		c0.65,3.03,0.04,5.31-1.79,7.84c-10.83,14.98-21.89,29.83-31.27,45.76c-6.79,11.54-10.55,24.29-13.09,37.5
		c-2.35,12.26-2.46,24.54-1.56,36.8c0.66,8.92,2.6,17.76,4.24,26.59c3.62,19.49,8.67,38.64,15.86,57.11
		c6.82,17.52,14.64,34.6,24.45,50.74c3.84,6.32,7.37,12.86,11.7,19.03c-2.82,2.81-5.55,1.85-8.23,1.13
		c-5.47-1.46-9.71-5.2-14.11-8.34c-15.15-10.8-30.98-20.74-44.42-33.83c-3.61-3.51-6.54-7.56-9.71-11.39
		c-3.08-3.73-6.56-7.08-9.64-10.77c-8.02-9.63-14.06-20.46-18.83-32.07c-5.5-13.38-7.45-27.5-10.05-41.58
		c-3.58-19.37-3.36-38.83-1-58.05c1.85-15.08,2.14-30.19,3.63-45.25c1.11-11.24,4.28-21.91,10.71-31.34
		c5.85-8.58,10.13-17.95,14.42-27.34c3.87-8.47,7.68-16.95,10.82-25.73c1.97-5.49,3.55-11.07,5.03-16.69
		c2.4-9.17,6.4-17.37,13.19-24.11c1.17-1.16,2.46-1.67,3.99-1.76c6.16-0.37,11.49-3.12,16.89-5.76c2.53-1.24,5.11-2.52,7.8-3.28
		c4.92-1.4,8.52,0.24,10.77,4.78c1.82,3.67,4.57,6.94,4.61,11.44c0.02,2.38,2.12,3.57,4.15,4.56c10.47,5.08,20.91,10.25,31.39,15.31
		c8.24,3.97,16.42,8.03,24.97,11.35c11.34,4.4,22.78,8.34,34.77,10.61c2.56,0.48,3.72-0.24,4.98-2.63
		c2.24-4.21,4.25-8.75,8.33-11.69c1.56-1.13,1.47-2.44,0.76-3.93c-0.8-1.67-1.77-3.25-3.28-4.35c-2.33-1.68-4.15-3.84-6.05-5.94
		c-2.1-2.33-3.92-4.91-7.12-6.05c-1.58-0.56-2.45-2.21-3.41-3.57c-6.21-8.83-12.28-17.69-16.92-27.54
		c-6.16-13.08-9.84-26.79-12.24-40.95c-1.95-11.5-3.33-23-2.89-34.74c0.64-16.93,3.59-33.3,9.52-49.21
		c3.32-8.89,7.05-17.58,10.86-26.24c5.11-11.61,12.25-22.11,18.93-32.84c7.31-11.74,15.74-22.72,24.34-33.48
		c11.12-13.91,23.14-27.09,35.63-39.82c1.79-1.82,3.88-3.2,6.16-4.19c3.95-1.72,6.22,0.08,5.52,4.29
		c-2.57,15.33-3.45,30.76-3.01,46.28c0.06,2,0.04,4.04,0.45,5.97c1.23,5.79,2.93,10.77,9.78,13.01c6.58,2.15,12.72,5.77,19.32,8.09
		c13.08,4.6,26.69,6.95,40.31,9.19c4.76,0.78,9.58,1.2,14.21,2.63c6.29,1.94,12.86,1.66,19.3,2.39c14.77,1.68,29.62-0.13,44.39,0.88
		c10.91,0.75,22.01,0.28,32.47,4.67c4.31,1.81,8.47,3.85,12.57,6.07c3.36,1.83,6.68,3.79,10.2,5.28c5.02,2.12,9.9,3.16,14.82-1.07
		c3.93-3.39,9.09-4.96,14.11-6.12c11.18-2.59,22.01-6.37,33.29-8.76c13.99-2.96,28.06-5.62,41.96-9.06
		c10.17-2.52,20.42-4.75,30.53-7.56c1.11-0.31,2.3-0.45,3.45-0.44c5.87,0.07,8.03,3.19,5.45,8.44c-2.56,5.22-5.35,10.39-8.55,15.23
		c-9.65,14.58-19.44,29.06-30.35,42.76c-4.97,6.24-9.15,13.1-14.04,19.42c-13.96,18.02-27.71,36.22-44.01,53
		c4.54,6.27,8.91,12.7,13.69,18.81c4.55,5.81,8.13,12.18,11.91,18.46c1.19,1.98,1.4,4.01,0.4,6.62c-6.29-1.1-12.24-3.15-18.07-5.27
		c-10.33-3.75-21.02-6.36-31.34-10.13c-4.88-1.79-4.95-1.59-7.96,3.46c0.65,1.27,1.98,1.09,3.06,1.29
		c8.75,1.65,14.49,7.19,18.48,14.68c6.61,12.41,15.31,23.18,26.62,31.34c10.64,7.68,22.16,14.13,34.61,18.69
		c8.8,3.22,9.2,3.6,14.43,10.77c2.13,0.8,3.86-0.65,5.62-1.35c13.89-5.54,27.92-10.79,40.33-19.43
		c16.98-11.82,29.13-27.13,34.55-47.35c2.15-8.03,5.14-15.85,6.37-24.13c0.6-4.05,3.01-5.87,6.92-7.33c6.5-2.42,13-2.72,19.66-2.19
		c4.54,0.36,7.69,2.43,10.1,6.82c4.81,8.75,6.78,18.41,10.03,27.64c6.24,17.74,13.02,35.27,19.87,52.78
		c7.81,19.97,15.32,40.05,20.43,60.93c0.83,3.37,0.84,6.93,1.38,10.38c2.22,14.31,4.14,28.64,3.88,43.17
		c-0.05,2.67-0.32,5.3-0.67,7.95c-3.27,25.13-8.67,49.79-16.09,74.01c-8.84,28.84-19.42,56.99-33.96,83.52
		c-3.28,5.98-6.59,11.95-10.01,17.86c-1.03,1.78-1.27,3.18,0.09,4.96c6.87,9.02,12.39,18.9,17.87,28.78
		c4.27,7.7,8.76,15.28,12.6,23.22c3.21,6.64,5.67,13.49,7.17,20.7c0.33,1.61,0.65,3.25,0.16,5.04c-4.3,1.92-6.78-1.16-8.81-3.68
		c-4.63-5.73-10-10.71-15.09-15.97c-8.91-9.21-17.32-18.92-27.29-27.07c-2.19-1.79-4.35-3.59-7.12-5.1
		c-2.92,2.42-5.17,5.53-7.32,8.55c-5.45,7.64-11.65,14.53-18.65,20.74c-4.25,3.77-5.16,8.05-3.28,13.53
		c2.26,6.59,2.12,13.5,1.9,20.29c-0.29,8.97,0.14,18.33-3.2,26.64c-2.82,7.01-1.45,13.02,0.28,19.49
		c2.41,9.03,5.51,17.75,10.33,25.83c3.87,6.48,6.73,13.49,7.21,21.09c0.37,5.76,3.98,9.57,7.4,13.21
		c10.83,11.55,12.74,24.75,8.54,39.42c-1.26,4.41-3.66,8.22-6.61,11.6c-2.69,3.08-4.76,2.66-6.8-0.83
		c-3.54-6.06-7.7-11.62-12.63-16.68c-4.99-5.13-9.7-10.56-14.15-16.16c-1.89-2.37-3.42-2.71-6.3-2.07
		c-12.79,2.83-25.61,3.86-38.11-1.47c-1.33-0.57-2.26,0.04-3.29,0.42c-15.53,5.73-29.17,14.44-41,26.02
		c-1.23,1.2-2.12,3.45-4.38,2.48c-1.92-0.82-2.2-2.9-2.24-4.71c-0.07-2.74-0.95-5.2-1.86-7.72c-3.26-8.96-1.49-17.2,4.61-24.2
		c5.81-6.68,13.13-11.79,20.32-16.9c3.45-2.45,6.27-4.94,8.14-9.02c1.97-4.3,5.08-8.29,8.98-11.2c10.9-8.13,15.61-19.49,17.45-32.43
		c0.09-0.62,0.01-1.39-0.29-1.92c-4.29-7.31-2.19-15.67-3.86-23.42c-3.52-16.4-6.08-33.05-16-47.33c-6.26-9.02-11.11-18.94-18-27.6
		c-8.64-10.85-17.91-21.05-28.47-30.06c-2.68-2.28-5.71-4.12-8.94-5.41c-8.3-3.3-12.77-9.81-15.16-17.91c-1.05-3.57-2.8-5-6.43-6.39
		c-10.07-3.85-20.04-8.23-26.4-17.89c-2.98-4.52-4.22-9.18-4.12-14.56c0.17-9.49,1.16-18.95,0.71-28.45
		c-0.31-6.49-0.69-12.98-0.86-19.47c-0.07-2.61-1.11-4.27-3.3-5.68C473.09,495.62,469.69,492.94,465.76,490.08z M595.83,477.3
		c25.97,29.74,51.74,59.24,77.83,89.12c3.18-8.48,6.4-16.4,8.36-24.91c2.29-9.87,5.29-19.6,6.87-29.63
		c1.04-6.56,2.28-13.1,2.04-19.83c-0.21-5.82-0.51-11.76,0.41-17.46c1.56-9.64,1.66-19.19,0.55-28.82
		c-0.42-3.63,0.22-7.22-0.26-10.92c-1.22-9.42-3.07-18.72-4.73-28.05c-1.28-7.16-2.99-14.28-5.01-21.27
		c-3.35-11.55-9.16-22.11-14.18-32.97c-2.12-4.58-2.55-9.13-1.37-14.07c2.38-9.88,4.2-19.87,4.58-30.06
		c0.11-3.05,0.23-6.13-0.3-9.04c-1.47-0.13-2,0.58-2.44,1.25c-5.05,7.76-11.41,14.72-13.53,24.24c-1.05,4.7-4.06,8.79-9.3,9.35
		c-8.02,0.86-15.61,3.27-23.32,5.34c-7.75,2.09-14.79,5.98-22.29,8.72c-3.23,1.18-3.15,2.54-1.33,5.72c1.71,2.97,4.4,4.95,6.49,7.51
		c6.84,8.38,13.62,16.8,20.52,25.14c5.21,6.3,10.1,12.81,14.09,19.97c3.17,5.69,0.54,10.22-6.09,10.44
		c-1.64,0.05-3.33-0.26-4.95-0.6c-12.21-2.61-24.27-5.73-36.02-10.02c-0.91-0.33-1.97-1.6-3-0.08c0.18,1.36,1.3,1.91,2.21,2.57
		c7.05,5.13,13.18,11.23,18.76,17.88c3.85,4.59,7.82,9.1,10.86,14.31c1.14,1.96,1.76,3.96,0.28,6.07c-1.39,1.99-3.23,2.71-5.62,2.38
		c-1.65-0.23-3.25-0.46-4.87-0.97c-4.64-1.45-9.35-2.68-14.24-4.05c0.1,2.81,2,3.61,3.34,4.7c3.76,3.06,7.36,6.31,10.32,10.14
		c3.95,5.13,8.7,9.69,11.58,15.61c1.5,3.08,1.03,4.52-1.86,6.04c-1.36,0.72-2.84,1.02-4.35,0.92c-4.83-0.33-9.61-0.81-14.1-2.92
		C600.02,478.23,598.32,477.05,595.83,477.3z M570.52,546.63c-1.44,6.09-0.83,12.35-3.33,18.15c-1.47,3.41-1.53,6.87,1.27,10.15
		c1.43,1.67,1.81,4.23,2.65,6.4c2.09,5.4,3.24,11.21,6.88,15.94c7.11,9.23,16.08,16.37,25.82,22.56
		c12.12,7.7,24.06,15.56,32.88,27.22c1.62,2.14,3.5,2.23,4.77-0.04c4.94-8.86,10.09-17.66,12.95-27.45c0.71-2.45,0.69-5.64-1.87-7.8
		c-6.23-5.26-12.28-10.75-18.71-15.76c-4.61-3.6-8.99-7.4-13.22-11.42c-3.01-2.86-6.23-5.5-9.41-8.18
		c-11.97-10.09-25.62-17.99-37.26-28.52C573.1,547.12,572.21,546.27,570.52,546.63z"/>
</g>
</svg>
