<?xml version="1.0" encoding="utf-8"?>
<!-- Generator: Adobe Illustrator 24.0.2, SVG Export Plug-In . SVG Version: 6.00 Build 0)  -->
<svg version="1.1" id="Layer_1" xmlns="http://www.w3.org/2000/svg" xmlns:xlink="http://www.w3.org/1999/xlink" x="0px" y="0px"
	 viewBox="0 0 828.54 805.89" style="enable-background:new 0 0 828.54 805.89;" xml:space="preserve">
<g>
	<path d="M517.31,777.64c-2.26-0.46-3.01-1.99-3.99-3.29c-22.92-30.5-45.85-60.98-68.76-91.48c-4.7-6.26-9.33-12.56-14.04-18.81
		c-6.08-8.06-14.2-14.03-21.48-20.85c-9-8.42-18.19-16.64-27.39-24.85c-2.21-1.97-3.42-4.48-4.64-7.01
		c-8.43-17.54-17.16-34.94-25.14-52.69c-0.53-1.19-1.26-2.28-2.16-3.89c-3.25,6.08-4.54,12.39-6.69,18.36
		c-4.71,13.11-9.74,26.11-13.88,39.42c-0.55,1.78-1.62,3.25-3.08,4.45c-13.28,10.86-26.55,21.74-39.83,32.6
		c-7.74,6.32-15.56,12.53-23.23,18.94c-3.36,2.8-5.3,6.82-7.78,10.35c-14.32,20.46-28.22,41.22-42.88,61.43
		c-14.96,20.62-29.32,41.65-44.2,62.32c-0.94,1.3-1.55,2.99-3.44,3.28c-0.97-1.24-0.27-2.32,0.1-3.37
		c7.17-20.21,13.89-40.56,20.7-60.89c10.7-31.97,21.81-63.8,32.74-95.69c10.49-30.62,20.98-61.24,31.41-91.88
		c0.66-1.94,1.5-3.67,2.86-5.19c7.89-8.82,15.79-17.62,23.63-26.48c1.93-2.18,4.21-3.69,6.88-4.79c10.61-4.4,21.17-8.89,32.19-12.18
		c0.27-0.08,0.45-0.47,1.04-1.11c-5.68-19.7-11.46-39.72-17.45-60.46c-11.55,0-22.87-0.14-34.18,0.08c-3.87,0.08-6.36-0.9-7.46-4.83
		c-0.8-2.87-2.82-4.02-5.94-4.21c-23.31-1.46-45.2-7.77-65.34-19.76c-17.33-10.32-30.13-25.13-40.56-42.02
		c-11.26-18.24-19.16-37.94-23.28-59.05c-1.05-5.38-2.08-10.79-2.7-16.23c-0.3-2.63-1.33-4.15-3.46-5.56
		c-32.06-21.27-64.07-42.63-96.1-63.95c-6.62-4.41-13.27-8.76-19.8-13.07c8.47-8.09,16.99-16.22,25.76-24.6
		c6.84,5.13,13.46,10.09,20.34,15.24c7.51-6.47,14.92-12.84,22.63-19.48c5.56,4.84,10.92,9.5,16.65,14.49
		c6.19-5.04,11.28-11.24,17.91-16.12c7.66,7.25,15.19,14.39,23.26,22.03C152.68,124.24,202.9,59.22,267,3.88
		c1.77-1.53,3.52-3.5,6.7-3.88c-0.3,2.78-1.92,4.46-3.32,6.15c-3.94,4.74-7.77,9.59-12.03,14.02
		c-17.16,17.87-29.41,38.98-40.31,60.95c-9.61,19.37-17.85,39.32-24.03,60.08c-3.51,11.78-6.63,23.65-9.24,35.68
		c-2.02,9.28-3.48,18.63-5.01,27.98c-1.23,7.55-1.87,15.2-2.56,22.82c-0.66,7.3-0.94,14.63-1.62,21.92
		c-0.25,2.74,0.41,4.64,2.44,6.58c28.08,26.8,56.05,53.73,84.15,80.52c2.5,2.38,4.16,5.9,8.48,7.15
		c-4.48-13.05-7.54-25.91-11.61-38.45c-1.17-3.61-0.38-5.37,2.27-7.5c15.44-12.42,30.6-25.2,46.39-37.19
		c0.51-0.39,0.88-0.96,1.46-1.6c-12.35-14.89-24.64-29.72-37.19-44.85c4.74-6.01,9.62-11.65,14.68-17.14
		c0.85-0.92,1.95-1.1,3.16-1.2c13.45-1.22,13.48-1.24,19.21,11.09c5.81,12.49,11.57,25.01,17.59,38.02
		c8.53-6.7,16.8-13.18,25.55-20.05c10,13.62,19.68,26.82,29.62,40.35c3.22-4.16,4.83-8.54,7.01-12.56
		c5.78-10.67,11.33-21.46,16.9-32.24c1.45-2.8,3.28-4.14,6.69-3.94c5.64,0.34,11.32,0.2,16.98,0.02c2.86-0.09,4.36,0.82,4.71,3.77
		c0.3,2.46,0.62,5.02,1.54,7.29c2.24,5.56,0.56,9.31-3.72,13.41c-12.86,12.34-25.21,25.21-37.74,37.89
		c-0.45,0.45-0.75,1.05-1.27,1.78c10.53,14.22,20.91,28.46,31.58,42.48c2.09,2.75,2.33,5.11,1.53,8.24
		c-3.18,12.57-6.2,25.18-9.13,37.81c-0.59,2.52-2.44,4.72-1.99,8.63c52.95-47.59,105.3-94.64,157.15-141.24
		c6.32,5.9,12.36,11.53,18.58,17.34c5.93-4.53,11.47-8.75,17.57-13.4c5.76,6.11,11.53,12.24,17.35,18.42
		c5.61-2.97,10.03-6.21,14.4-9.43c2.9-2.14,4.7-1.97,7.13,0.66c5.97,6.49,12.21,12.72,18.9,19.64
		c-86.1,49.25-172.8,97.89-259.38,147.17c1.18,1.92,2.91,1.04,4.39,0.91c21.9-1.92,43.8-3.9,65.7-5.8
		c10.62-0.92,21.25-1.71,31.87-2.52c0.98-0.08,2.39-0.35,2.9,0.16c2.75,2.78,5.9,1.4,8.92,1.12c18.74-1.72,37.48-3.45,56.21-5.24
		c17.24-1.65,34.46-3.42,51.7-5.06c14.09-1.34,28.2-2.53,42.29-3.83c37.47-3.47,74.95-6.96,112.42-10.45
		c14.26-1.33,28.52-2.68,42.78-4.02c0.84-0.08,1.66,0.01,2.8,0.78c-4.22,5.24-8.4,10.48-12.62,15.68
		c-14.19,17.44-28.23,35.01-42.67,52.25c-9.84,11.75-19.4,23.73-29.07,35.61c-1.87,2.3-3.77,3.25-6.83,2.87
		c-27.11-3.33-54.25-6.44-81.37-9.76c-24.95-3.06-49.88-6.36-74.83-9.42c-22.8-2.8-45.62-5.43-68.43-8.13
		c-13.41,1.96-26.41-1.69-39.55-3.08c-18.37-1.94-36.67-4.57-55.01-6.83c-7.06-0.87-14.14-1.54-21.54-2.33
		c-2.79,11.01-5.49,21.62-8.16,32.24c-1.7,6.77-3.23,13.59-5.08,20.32c-0.82,2.97-0.21,4.68,2.73,5.82
		c7.45,2.89,14.78,6.12,22.28,8.87c4.98,1.83,9.15,4.54,12.73,8.44c5.63,6.13,11.21,12.36,17.31,18.01
		c5.6,5.19,8.57,11.47,10.78,18.6c9.06,29.18,18.43,58.26,27.63,87.4c7.44,23.55,14.5,47.23,22.28,70.66
		c6.12,18.45,11.28,37.21,18.18,55.4C517.44,776.13,517.31,776.67,517.31,777.64z"/>
</g>
</svg>
