<?xml version="1.0" encoding="utf-8"?>
<!-- Generator: Adobe Illustrator 24.0.2, SVG Export Plug-In . SVG Version: 6.00 Build 0)  -->
<svg version="1.1" id="Layer_1" xmlns="http://www.w3.org/2000/svg" xmlns:xlink="http://www.w3.org/1999/xlink" x="0px" y="0px"
	 width="685.35" height="860.78" viewBox="0 0 685.35 860.78" style="enable-background:new 0 0 685.35 860.78;" xml:space="preserve">
<g>
	<path d="M432.09,620.2c-4.39,3.91-8.23,7.57-12.34,10.9c-4.58,3.72-5.64,3.63-10.72,0.41c-1.92,3.38-2.09,7.25-3.22,10.81
		c-3.8,11.88-6.51,24.12-12.18,35.36c-2.14,4.25-1.49,8.94-0.73,13.27c2.06,11.76,4.03,23.55,6.99,35.16
		c2.72,10.64,6.24,21.02,9.59,31.45c8.03,25.01,17.65,49.57,20.85,75.9c0.78,6.45,1.69,12.86,0.44,19.4
		c-0.48,2.48-1.59,3.64-3.89,4.49c-8.47,3.14-17.33,3.04-26.12,3.32c-10.83,0.35-21.63-0.18-32.41-1.32
		c-9.8-1.03-16.2-6.19-19.81-15.2c-8.91-22.24-11.59-45.31-9.5-69.06c0.41-4.64,0.65-9.3,0.94-13.96c0.1-1.67-0.07-3.25-0.89-4.83
		c-2.77-5.31-5.16-10.83-8.13-16.03c-3.66-6.4-6.44-13.12-8.58-20.14c-1.7-5.59-2.5-11.23-2.42-17.13c0.11-7.64-0.82-15.3,0.61-22.9
		c0.98-5.24,1.3-10.57,2.05-15.82c1.86-12.89-0.46-25.24-4.04-37.43c-3.42-11.67-8.15-22.88-13.03-34.01
		c-0.19-0.43-0.6-0.77-0.87-1.11c-1.09-0.24-1.62,0.4-2.02,1.15c-11.68,22.23-27.24,41.8-42.36,61.67
		c-5.85,7.69-11.87,15.27-17.2,23.31c-4.94,7.44-6.58,16.28-8.62,24.86c-4.59,19.32-3.92,38.64-0.22,57.99
		c2.47,12.89,5,25.78,7.14,38.72c1.52,9.2,2.51,18.5,1.28,27.87c-0.88,6.67-3.55,9.8-10,11.43c-8.75,2.21-17.59,3.31-26.67,2.97
		c-9.97-0.37-19.95,0.18-29.73-2.73c-4.75-1.41-7.44-3.92-8.22-8.78c-3.97-24.69-4.52-49.12,1.55-73.77
		c3.36-13.63,7.2-27.01,12.91-39.7c6.83-15.16,13.24-30.55,21.56-45.04c3.8-6.62,6.63-13.8,9.84-20.73
		c3.07-6.63,3.05-14.25,3.94-21.51c1.33-10.83,0.05-21.63-0.68-32.42c-1.27-18.81,0.95-37.18,6.07-55.31
		c3.24-11.45,7.94-22.22,13.37-32.73c1.83-3.54,3.84-6.97,6.47-10.06c2.08-2.45,4.3-5.11,3.52-9.39
		c-8.58-0.48-16.47,0.48-22.96,6.89c-9.11,9-13.87,20.09-16.43,32.45c-2.81,13.57-1.48,27.21-1.4,40.85
		c0.06,9.13,0.57,18.23-1.12,27.37c-1.91,10.32-6.12,19.51-10.84,28.73c-8.53,16.66-21.9,28.38-37.6,37.57
		c-9.59,5.62-19.93,9.53-31.18,11.3c-11.39,1.79-22.77,3.19-34.25,2.84c-14.94-0.45-28.13-6.22-40.11-14.93
		c-0.54-0.39-1.21-0.75-1.5-1.3c-3.91-7.36-11.38-10.41-17.74-14.84c-7.48-5.21-13.47-11.89-17.89-19.86
		c-2.08-3.75-4.62-7.18-6.29-11.28c-1.99-4.89-3.01-9.82-3.73-14.92c-0.16-1.14-0.28-2.37-0.79-3.38
		c-3.74-7.42-3.49-14.91-0.79-22.57c0.82-2.34-0.04-5.03,1.16-7.35c1.06-2.03,1.79-4.66,4.63-4.61c2.6,0.04,3.42,2.39,4.15,4.44
		c3.11,8.71,7.33,16.62,14.13,23.2c6.58,6.37,14,8.13,22.43,5.65c13.98-4.12,23.15-13.42,27.52-27.26c5.24-16.59,7.62-33.7,8.91-51
		c0.03-0.44-0.31-0.91-0.42-1.21c-0.89-0.77-1.68-0.47-2.48-0.22c-16.5,5.14-30.45-6.54-34.49-21.25
		c-1.02-3.71-1.73-7.45-1.27-11.33c0.17-1.47,0.83-2.51,2.3-2.91c1.41-0.38,2.07,0.6,2.84,1.52c6.46,7.78,14.07,9.55,23.52,5.53
		c7.81-3.32,14.17-8.66,20.12-14.53c7.96-7.84,16.02-15.71,25.57-21.5c12.89-7.8,15.09-10.3,33.89-11.47
		c0.36-0.67,0.17-1.26-0.3-1.78c-8.67-9.8-11.54-21.35-8.85-33.87c1.49-6.94,4.59-13.68,11.78-17.07c1.57-0.74,1.98-2.03,2.59-3.42
		c2.66-6.12,5.71-11.97,10.3-16.98c7.97-8.68,18.07-12.78,29.46-14.29c1.12-0.15,2.39-0.02,3.44,0.38c2.1,0.79,4.98,0.8,5.58,3.55
		c0.52,2.38-1.99,3.21-3.31,4.57c-6.24,6.41-9.04,14.43-9.74,22.98c-1.1,13.39,2.63,25.49,12.41,35.08
		c3.52,3.45,7.89,6.03,11.8,9.11c10.17,8.02,22.6,11.92,33.54,18.58c6.91,4.21,13.02,9.22,18.45,15.12
		c2.37,2.58,3.78,5.81,5.16,9.36c15.24-5.86,29.98-3.63,44.65,1.24c5.06,1.68,10.08,3.39,14.83,5.87
		c4.28,2.23,17.67,3.48,22.86,2.39c1.04-2.36-0.77-3.83-2.02-5.16c-3.25-3.44-3.4-7.83-4.18-12.05c-0.22-1.19,0-2.4,1.19-3.05
		c1.23-0.66,2.34-0.11,3.1,0.85c4.45,5.64,10.73,6.75,17.34,7.32c9.98,0.86,18.65-2.53,26.8-7.81c0.52-0.34,1.08-0.8,0.85-1.71
		c-31.24,0.57-48.93-17.91-61.32-44.06c-2.3,0.34-3.71,1.97-5.24,3.41c-11.36,10.77-31.37,16.24-48.28,7.95
		c-2.93-1.44-5.25-3.48-8.17-7.46c2.28-3.55,6.25-4.57,9.82-6.1c4.91-2.1,9.76-4.29,14-7.6c1.26-0.99,2.85-1.86,2.38-4.2
		c-3.19-0.12-6.15,1.32-9.31,1.02c-11.9-1.13-22.37-5.45-32.06-12.55c-17.67-12.95-28.42-30.46-35.26-50.79
		c-1.17-3.49-2.08-7.1-1.07-10.78c1.09-3.99,2.84-4.5,5.92-1.75c3.61,3.23,6.43,7.2,9.49,10.93c1.43,1.74,2.77,3.57,5.15,4.51
		c-3.29-7.59-5.03-15.56-5.64-23.6c-0.85-11.14-2.54-22.16-4-33.21c-2.08-15.67-4.62-31.27-10.21-46.16
		c-8.3-22.09-23.87-35.52-47.38-39.36c-23.59-3.85-42.74,4.72-59.08,21.12c-2.61,2.61-4.07,6.04-5.91,9.06
		c-2.91,0.32-3.55-1.4-4.03-3.53c-1.55-6.93,0.18-13.18,3.79-19.06c1.62-2.64,3.3-5.23,4.84-7.67c-0.91-1.48-1.98-1.15-2.93-1.13
		c-21.68,0.44-39.95-7.27-54.88-22.96c-3.89-4.09-6.01-9.14-7.62-14.43c-0.44-1.46-0.34-2.94,0.34-4.9
		c4.25-0.04,7.94,1.94,11.63,3.47c8.44,3.5,17.26,4.19,26.93,4.75c-1.53-2.22-3.1-3.09-4.69-3.91c-1.81-0.94-3.33-2.21-4.59-3.79
		c-1.68-2.11-2.48-4.67-1.09-6.95c1.31-2.13,3.9-1.52,5.97-0.96c3.21,0.88,6.44,1.55,9.74,2.06c9.76,1.51,19.32,1.6,29.23,0.2
		c13.47-1.9,27.18-3.14,40.79-0.48c4.74,0.93,9.32,2.5,13.83,4.22c16.92,6.45,30.92,16.74,41.52,31.52
		c1.06,1.48,2.34,2.81,3.58,4.16c0.3,0.33,0.83,0.44,1.63,0.85c0.94-3.26,0.09-6.8,2.31-9.33c-8.91-13.29-10.53-31.79-0.91-36.68
		c4.56,2.67,7.61,7.14,10.58,11.43c7.2,10.42,16.62,17.39,28.73,21.21c7.28,2.29,14.1,1.13,21.11-0.61
		c7.63-1.9,14.68-5.38,22.03-8.03c5.63-2.02,11.26-3.98,17.32-5.44c-0.4-2.35-2.24-2.79-3.81-3.54
		c-22.29-10.59-45.84-16.75-70.1-20.85c-10.54-1.78-21.13-2.57-31.71-3.7c-1.66-0.18-3.58,0.03-3.96-2.13
		c-0.32-1.81,1.27-2.53,2.56-3.29c10.69-6.31,21.74-11.63,34.49-11.93c4.03-0.1,7.79-1.6,11.83-1.8c11.91-0.57,23.61,1,35.31,2.85
		c4.38,0.69,8.4,2.62,12.86,3.4c-5.84-5.34-12.9-8.67-19.28-13.02c-6.35-4.32-13.15-7.86-19.74-11.75
		c-6.64-3.92-14.02-6.45-20.58-10.1c0.71-2.91,2.41-3.65,4.14-4.27c8.95-3.18,18.04-4.01,27.51-2.62
		c11.93,1.74,23.52,4.56,34.67,9.08c10.96,4.44,21.79,9.14,31.28,16.41c0.92,0.7,1.97,1.24,3.01,1.76c0.53,0.26,1.05,0.88,2.21,0.1
		c-12.81-12.83-24.88-26.27-39.52-37.2c2.82-3.12,5.97-3.22,9.15-2.96c11.33,0.95,21.75,4.81,31.61,10.24
		c4.96,2.73,9.94,5.44,14.78,8.35c5.92,3.55,10.31,8.94,14.57,14.27c12.34,15.42,20.69,32.85,25.67,51.93
		c0.17,0.63,0.43,1.24,0.62,1.8c2,1.28,4.04,0.58,5.93,0.28c14.52-2.34,27.81,1.57,40.38,8.26c6.1,3.25,12.35,6.23,17.48,11.36
		c5.35,5.36,9.38,11.12,10.91,18.31c2.24,0.68,3.03-0.92,4.09-1.82c10.17-8.61,20.17-17.44,30.51-25.85
		c8-6.51,16.43-12.5,24.63-18.77c1.28-0.98,2.87-1.76,3.27-3.38c-0.36-2.14-2.07-2.13-3.41-2.7c-6.56-2.78-13.67-4.36-19.39-8.99
		c-3.8-3.07-4.05-3.79-0.86-7.63c5.64-6.8,13.32-11.04,20.74-15.4c13.79-8.1,28.36-14.75,42.54-22.11c1.6-0.83,3.37-1.41,5.06-3.34
		c-3.35-3.34-9.01-3.31-11.59-7.46c5.64-13.07,81.23-73.2,95.03-75.53c1.93,2.87,1.15,6.04,0.51,9.02
		c-3.3,15.45-6.38,30.96-10.87,46.14c-1.6,5.42-2.58,10.99-4.23,16.42c-4.65,15.33-11.37,29.82-17.63,44.51
		c-2.21,5.18-4.28,10.41-6.66,15.54c-4.08,8.78-9.83,16.58-14.12,25.21c-2.42,4.87-6.9,7.56-11.49,10
		c-22.31,11.89-40.25,28.32-52.13,50.83c-3.87,7.34-7.37,14.92-9.51,23.03c-1.78,6.74-4.58,12.62-11.11,16.43
		c-5.73,3.35-10.9,7.66-16.74,10.88c-3,1.65-4.55,3.52-3.7,7.12c0.52,2.22,0.17,4.63,0.95,7.17c4.22-0.14,8.31-0.81,12.41-1.07
		c11.67-0.74,25.16,12.12,26.58,24.75c1.38,12.25-1.29,23.47-6.95,34.12c-3.74,7.05-7.39,14.19-13.13,19.97
		c-9.73,9.79-20.52,17.76-33.98,21.88c-9.83,3.01-19.79,5.82-28.94,10.71c-1.78,0.95-3.38,2.14-4.77,3.6
		c-2.64,2.78-2.4,3.97,0.76,6.34c12.55,9.41,32.25,7.15,42.99-1.56c3.52-2.85,6.65-6.01,9.43-9.58c2.63-3.39,5.48-6.61,6.59-11.03
		c3.46,0.55,4.78,2.91,6.03,5.18c3.93,7.16,4.72,14.88,3.48,22.8c-1.59,10.13-4.27,19.87-11.46,27.72
		c-0.32,0.34-0.42,0.89-0.68,1.47c0.95,1.23,3.15,1.09,3.46,3.08c0.26,1.64-0.48,2.95-1.18,4.24c-4.21,7.77-10.81,12.99-18.61,16.7
		c-9.41,4.48-19.6,6.04-29.73,4.65c-8.55-1.17-15.52-6.51-21.68-12.56c-0.82-0.81-1.54-1.73-2.32-2.57
		c-0.09-0.09-0.31-0.06-0.53-0.1c-1.26,0.6-0.74,1.7-0.49,2.53c3.09,10.01,6.7,19.85,10.75,29.48c7.29,17.34,12.56,35.12,12.7,54.04
		c0.14,18.97,7.28,35.26,17.79,50.52c2.59,3.75,5.39,5.82,10.07,6.88c11.67,2.64,23.15,6.15,34.63,9.56
		c5.29,1.57,10.04,4.56,14.55,7.64c4.88,3.34,5.98,8.71,5.11,14.26c-4.18,26.64-10.81,52.54-25.77,75.45
		c-7.66,11.74-17.08,22.21-27.16,31.91c-6.97,6.71-15.29,11.78-24.42,15.26c-3.7,1.41-7.13,3.42-11.28,3.86
		c-4.33,0.46-7.9-0.63-11.13-3.25c-10.21-8.31-16.22-18.49-15.99-32.24c0.14-8.28,1.15-16.33,3.69-24.07
		c3.65-11.13,12.01-17.99,22.38-22.86c11.21-5.26,21.76-11.57,29.91-21.21c2.48-2.93,4.95-5.82,6.2-9.57c0.83-2.51,0.27-4-2.23-5.16
		c-5.91-2.74-12.01-4.97-18.27-6.65c-9.13-2.46-18.35-4.57-27.54-6.8c-3.74-0.91-6.74-0.82-9.54,2.95
		c-3.13,4.22-7.39,7.68-11.8,10.7c-4.25,2.92-6.7,2.29-9.6-1.95C435.27,628.76,434.75,624.27,432.09,620.2z"/>
</g>
</svg>
