<?xml version="1.0" encoding="utf-8"?>
<!-- Generator: Adobe Illustrator 24.0.2, SVG Export Plug-In . SVG Version: 6.00 Build 0)  -->
<svg version="1.1" id="Layer_1" xmlns="http://www.w3.org/2000/svg" xmlns:xlink="http://www.w3.org/1999/xlink" x="0px" y="0px"
	 viewBox="0 0 860.46 727.47" style="enable-background:new 0 0 860.46 727.47;" xml:space="preserve">
<g>
	<path d="M426.99,437.21c-1.24-0.31-2.01-0.09-2.63,0.56c-8.99,9.44-20.01,16.43-29.9,24.79c-3.05,2.57-6.37,4.77-9.49,7.27
		c-7.95,6.35-16.75,6.36-25.71,2.17c-5.42-2.53-10.7-5.36-16.16-7.79c-2.42-1.08-4.02-2.96-5.71-4.73
		c-9.17-9.63-17.83-19.69-25.69-30.43c-3.34-4.57-5.67-5.07-11.22-3.65c-8.09,2.07-16.4,2.56-24.71,3.11
		c-7.26,0.48-14.57-0.34-21.78,1.12c-3.3,0.67-5.98,1.72-8.29,4.67c-12.7,16.24-25.62,32.3-38.68,48.25
		c-2.8,3.42-6.52,5.48-11.48,3.84c-6.32-2.09-12.72-3.86-18.96-6.27c-6.33-2.44-13.15-3.61-19.48-6.04
		c-9.6-3.69-19.51-6.47-28.98-10.6c-8.73-3.8-16.3-8.82-22.5-15.98c-2.51-2.9-2.75-6.29-1.98-9.86
		c3.83-17.76,10.07-34.79,15.6-52.04c1.47-4.59,2.95-9.18,4.46-13.77c0.79-2.4,0.19-4.33-1.14-6.53
		c-4.28-7.09-10.51-12.44-15.98-18.43c-5.44-5.96-10.06-12.45-14.12-19.31c-1.77-3-3.7-4.32-7-4.49
		c-13.77-0.72-27.55-1.41-41.3-2.41c-5.95-0.43-11.86-1.5-17.75-2.45c-3.13-0.5-5.08-3.06-7.33-4.97
		c-4.58-3.9-7.85-9.02-11.97-13.36c-1.39-1.47-2.08-3.41-2.62-5.34c-2.44-8.64-4.27-17.21-3.99-26.43
		c0.31-10.6-0.65-21.26-0.49-31.9c0.02-1.16,0.06-2.33,0.17-3.49c0.94-9.53,2.72-11.81,12.1-13.54c13.42-2.47,26.8-5.12,40.2-7.6
		c5.57-1.03,11.02-2,16.32-4.03c2.34-0.9,3.51-2.12,3.76-4.61c0.65-6.48,2.91-12.54,4.75-18.75c1.62-5.46,3.97-10.52,6.02-15.75
		c3.7-9.46,9.11-18.08,13.29-27.3c0.7-1.54,1.82-2.75,2.95-3.99c4.5-4.9,4.89-7.18,1.53-12.83c-6.38-10.73-13.11-21.24-19.38-32.03
		c-3.24-5.58-6.29-11.33-7.97-17.64c-0.31-1.17-0.86-2.12-1.55-3.08c-2.71-3.72-2.75-6.06-0.25-9.99c2.09-3.28,5.01-5.82,7.9-8.3
		c5.78-4.96,10.83-10.75,17.1-15.12c8.01-5.59,15.94-11.31,24.36-16.32c7.76-4.61,13.45-4.31,20.39,1.43
		c13.23,10.96,25.69,22.73,37.69,35.02c2.2,2.25,4.71,4.25,7.3,6.05c2.97,2.06,5.93,2.43,9.81,1.21c13.84-4.36,28.1-6.56,42.68-6.51
		c8.49,0.03,16.97-0.79,25.46-0.12c1.64,0.13,2.73-0.41,3.73-1.85c4.72-6.85,9.72-13.5,14.35-20.4c4.9-7.32,10.25-14.31,15.38-21.46
		c3.84-5.34,8.29-9.75,13.62-13.49c2.31-1.62,4.88-2.43,6.87-0.84c3.93,3.13,8.71,3.92,13.12,5.55
		c12.96,4.81,25.21,11.42,38.33,15.65c8.34,2.7,13.33,8.2,17.93,14.86c2.84,4.11,6.06,7.95,9.04,11.96
		c4.19,5.63,5.91,11.6,3.93,18.75c-3.73,13.47-6.73,27.13-10.44,40.6c-1.88,6.81-0.11,12.19,4.1,17.48
		c6.43,8.08,12.25,16.62,17.8,25.33c0.8,1.26,1.77,2.43,2.53,3.71c1.93,3.25,4.47,4.56,8.31,3.34c3.5-1.11,7.19-1.33,10.88-1.18
		c11.5,0.48,22.95-0.36,34.37-1.67c7.66-0.88,13.61,2.09,18.39,7.89c5.08,6.15,11.05,11.45,16.02,17.79
		c6.46,8.24,9.11,17.21,8.83,27.3c-0.22,8.01,0.17,16,0.85,23.96c0.75,8.84-0.46,17.61-0.67,26.41c-0.15,6.09-3.44,11.06-9.73,13.09
		c-12.95,4.16-25.06,10.59-38.18,14.3c-2.02,0.57-3.65,1.86-3.87,4.12c-0.23,2.42,1.09,4.04,3.2,5.15
		c6.49,3.43,12.55,7.59,18.92,11.19c7.83,4.42,15.31,9.4,23.07,13.91c2.79,1.63,5.25,1.78,8.01,0.51c1.06-0.49,2.06-1.1,3.11-1.6
		c16.14-7.6,33.17-12.54,50.37-16.96c3.22-0.83,6.46-1.47,9.86-1.32c1.95,0.09,3.95-0.54,5.89-0.99c2.23-0.52,4.2-1.84,4.92-3.92
		c4.6-13.31,11.51-25.78,14.26-39.76c0.87-4.41,2.42-8.65,5.3-12.28c1.78-2.24,2.83-4.88,3.75-7.57c1.02-3.01,2.66-5.72,3.96-8.58
		c1.72-3.77,4.9-4.62,8.07-4.39c15.08,1.1,30.15,2.58,44.66,7.13c3.96,1.24,7.87,1.05,11.81,1.39c8.54,0.74,15.32,5.3,21.63,10.46
		c4.36,3.56,7.95,8.04,12.08,11.9c4.25,3.97,6.22,9.14,6.29,14.5c0.13,10.75,0.75,21.54-0.95,32.27c-0.57,3.59-0.49,7.31-0.39,10.96
		c0.2,7.17-0.77,14.25-1.11,21.37c-0.22,4.63,2.21,9.24,5.36,12.45c5.48,5.58,11.22,10.87,15.59,17.41c1.76,2.63,3.9,3.37,6.82,2.4
		c7.1-2.36,14.62-3.01,21.72-5.49c7.59-2.66,15.67-2.85,23.57-3.87c5.75-0.74,11.55-1.14,17.26-2.08c6.53-1.08,12.37-0.56,17.51,4.3
		c2.36,2.23,5.82,3.27,8.33,5.38c10.29,8.67,17.59,19.1,20.74,32.58c1.69,7.24,3.9,14.42,5.58,21.71c0.3,1.29,0.52,2.61,0.76,3.91
		c1.46,7.96-1.5,14.4-7.19,19.68c-8.89,8.25-17.56,16.72-27.02,24.37c-5.85,4.73-11.88,9.71-13.38,17.85
		c-0.72,3.9-1.67,7.81-1.82,11.74c-0.17,4.58-1.32,8.85-2.59,13.16c-2.07,7-3.01,14.26-5.87,21.11c-1.92,4.6-3.92,9.14-6.13,13.59
		c-0.89,1.79-1.69,3.65-2.83,5.27c-4.6,6.51-2.82,12.81,1.92,17.71c6.01,6.22,9.64,13.94,14.69,20.73
		c3.49,4.69,7.5,8.89,11.11,13.46c4.41,5.57,7.43,11.78,10.6,18c0.79,1.56,0.55,2.85-0.25,4.22c-1.26,2.16-2.33,4.45-3.76,6.48
		c-8.97,12.81-17.74,25.79-29.04,36.74c-3.17,3.07-6.04,6.68-10.66,7.92c-1.49,0.4-2.8,0.69-4.33,0.06
		c-11.71-4.76-23.09-10.08-33.5-17.41c-6.25-4.4-12.86-8.32-19.73-11.73c-3.61-1.79-6.68-4.33-9.88-6.71
		c-2.78-2.06-10.01-2.33-12.81-0.43c-15.31,10.36-32.03,17.63-49.87,22.21c-7.56,1.94-12.47,6.16-15.42,13.32
		c-3.47,8.43-7.38,16.69-11.13,25c-0.41,0.9-0.96,1.78-1.62,2.51c-4.32,4.79-7.28,10.45-9.22,16.46c-1.33,4.13-5.37,5.82-6.89,9.53
		c-0.12,0.29-0.93,0.5-1.37,0.43c-4.71-0.71-9.68,1.04-14.22-1.6c-1.41-0.82-3.09-1.34-4.71-1.59c-12.19-1.89-23.85-6.01-35.86-8.73
		c-12.36-2.8-24.99-5.51-36.28-11.89c-6.17-3.49-9.79-7.78-9.42-15.89c0.68-14.82,2.17-29.53,3.69-44.26
		c0.22-2.15,0.52-4.25,1.2-6.35c1.44-4.43,0.68-5.69-3.16-8.22c-12.78-8.44-25.22-17.35-36.55-27.68c-1.95-1.77-3.46-4.02-5.25-5.97
		c-4.01-4.38-8.95-6.14-14.86-5.25c-13.13,1.98-26.26,4.04-39.42,5.79c-3.93,0.52-7.99,0.14-11.98,0.15
		c-1.42,0.01-2.52-0.76-3.57-1.6c-9.87-7.81-17.3-17.38-21.65-29.31c-4.67-12.81-8.14-25.97-11.76-39.08
		c-1.06-3.82-1.75-7.87-1.77-11.82c-0.02-4.18,2.92-7.07,6.51-8.74c8.14-3.78,16.43-7.23,24.65-10.85c1.67-0.74,3.42-1.41,4.91-2.43
		c4.6-3.13,9.65-5.19,14.89-6.91c5.51-1.81,6.11-2.95,6.29-8.59c0.24-7.78-1.49-15.56,0.33-23.37c0.86-3.68,2.6-7.12,2.74-10.98
		C426.91,440.65,427.7,439.05,426.99,437.21z M416.78,370.43c-1.12,1.02-0.86,2.04-0.5,2.94c5.36,13.42,10.83,26.79,15.1,40.61
		c0.29,0.95,1.18,1.53,2.33,1.34c2.49-4.17,3.51-8.96,5.87-13.2c1.78-3.2,1.14-6.46-1.23-9.29c-4.58-5.49-8.94-11.21-14.57-15.69
		C421.23,375.11,419.9,371.76,416.78,370.43z"/>
</g>
</svg>
