<?xml version="1.0" encoding="utf-8"?>
<!-- Generator: Adobe Illustrator 24.0.2, SVG Export Plug-In . SVG Version: 6.00 Build 0)  -->
<svg version="1.1" id="Layer_1" xmlns="http://www.w3.org/2000/svg" xmlns:xlink="http://www.w3.org/1999/xlink" x="0px" y="0px"
	 width="790.54" height="860.65" viewBox="0 0 790.54 860.65" style="enable-background:new 0 0 790.54 860.65;" xml:space="preserve">
<g>
	<path d="M350.25,839.21c5.15-14.36,10.67-28.25,17.98-41.35c2.22-3.98,2.41-8.51,4.42-12.6c3.21-6.53,8.06-11.81,12.03-17.74
		c4.54-6.77,9.59-13.22,12.31-21.04c3.97-11.39-0.39-20.55-10.31-27.28c-1.79-1.21-3.63-2.4-5.2-3.86
		c-3.49-3.26-7.69-3.4-12.07-3.34c-11.45,0.16-22.87,1.86-34.35,0.56c-17.03-1.93-34.25-2.76-51.05-5.88
		c-15.62-2.89-31.1-6.9-46.36-11.63c-10.17-3.16-20.19-6.74-30.3-10.05c-4.47-1.46-8.41-4-12.76-5.68
		c-1.06-0.41-1.99-1.48-3.24-0.97c-8.11,3.32-16.2,6.69-24.07,9.95c-0.19,1.97,1.09,2.45,1.84,3.24
		c11.08,11.62,18.65,25.42,25.07,39.98c2.54,5.77,5.48,11.36,7.16,17.48c0.35,1.28,0.89,2.51,1.17,3.8
		c1.92,8.73,0.97,11.58-6.6,16.3c-11.46,7.15-23.52,13.11-36.49,17.06c-16.4,4.99-33.08,8.98-49.53,13.76
		c-8.18,2.38-16.51,3.83-24.74,5.79c-8.36,2-16.52,4.94-24.8,7.36c-7.41,2.16-15.04,2.66-22.54,4.11c-0.82,0.16-1.66-0.08-2.81-1.27
		c2.02-7.18,9.17-10.98,13.55-17.61c-13.87-0.4-26.9,4.65-40.79,2.11c3.49-7.25,9.75-10.22,15.18-14.46
		c-7.76-0.76-15.21-1.61-22.44-3.09c-1.12-1.71-0.18-2.61,0.91-3.52c3.62-2.99,7.51-5.57,11.98-7.09c8.5-2.89,16.87-6.2,25.91-7.24
		c8.39-0.97,16.2-4.11,23.54-8.01c12.06-6.42,24.61-11.8,36.63-18.28c5.89-3.18,11.11-7.27,16.38-11.66
		c-2.37-4.99-5.54-9.05-9.85-12.31c-6.4-4.85-11.68-10.93-17.15-16.73c-9.03-9.58-19.42-17.75-28.17-27.6
		c-6.1-6.87-11.47-14.12-15.19-22.64c-2.81-6.44-2.57-12.91-2.05-19.57c1.16-15.07,5.09-29.59,10.29-43.59
		c5.18-13.97,11.63-27.43,19.51-40.3c7.57-12.36,15.61-24.37,23.84-36.25c6.62-9.54,13.87-18.68,22.46-26.62
		c3.36-3.1,5.71-6.69,6.99-11.24c4.06-14.37,9.1-28.37,15.48-41.94c2.94-6.26,5.12-12.96,7.67-19.36c-1.29-1.17-2.31-0.45-3.4-0.09
		c-10.29,3.4-20.64,6.39-31.65,6.42c-8.66,0.03-15.81-5.86-16.31-14.67c-0.46-8.01,0.28-16.14,3.14-23.63
		c3.95-10.38,7.8-20.84,13.47-30.53c8.86-15.12,20.09-28.14,33.32-39.5c10.5-9.02,21.51-17.37,33.5-24.32
		c3.14-1.82,3.93-4.84,4.74-7.83c3.17-11.75,5.61-23.68,6.53-35.81c0.71-9.41-0.89-18.55-5.96-26.83c-1.03-1.69-2.09-2.66-4.17-2.99
		c-12.68-1.97-24.2-7.41-35.33-13.28c-11.07-5.83-21-13.67-28.7-23.69c-3.82-4.97-5.85-11.17-6.56-17.52
		c-1.92-17.07,2.16-32.99,9.24-48.4c5.36-11.67,11.72-22.78,19.01-33.28c5.47-7.88,11.35-15.51,18.18-22.39
		c10.68-10.75,21.19-21.72,33.3-30.82c10.88-8.18,22.27-15.95,36.04-18.64c12.21-2.39,23.91-1.41,33.96,6.99
		c4.53,3.78,8,8.41,10.64,13.69c1.11,2.22,2.46,4.32,3.67,6.42c1.75,0.26,2.53-0.98,3.4-1.86c6.83-6.93,14.72-12.45,23.13-17.24
		c9.61-5.47,20-6.81,30.82-5.19c6.01,0.9,10.66,4.41,15.2,8.15c8.49,6.99,14.5,16,20.37,25.06c2.5,3.86,4.29,8.31,5.74,12.71
		c4.03,12.16,7.87,24.41,6.93,37.52c-0.17,2.43,0.49,4.35,2.22,6.29c9.49,10.67,14.62,23.33,15.96,37.45
		c0.69,7.24-0.81,14.25-3.91,20.88c-0.7,1.5-1.81,2.82-2.06,5.04c4.91,3.6,10.55,6.34,16.35,8.71c4.46,1.82,9.15,3.08,13.62,4.88
		c9.04,3.64,18.42,4.28,27.97,3.42c12.42-1.11,23.07,2.97,31.79,11.55c4.48,4.41,7.05,10.49,6.73,16.77
		c-0.77,14.99-3.22,30.13-14.5,40.87c-7.3,6.95-9.58,16.04-14.7,23.8c-0.55,0.83-0.83,1.83-1.4,2.64c-2.42,3.45-5.34,3.31-7.15-0.53
		c-1.54-3.26-2.65-6.71-4.02-10.26c-2.9,1.14-4.95,3.18-7.01,4.99c-10.67,9.4-23.09,14.96-37.02,17.27
		c-3.94,0.65-7.17,1.75-8.78,6.07c-0.94,2.53-2.76,5.61-5.77,5.63c-3.17,0.03-4.17-3.4-5.51-5.84c-2.21-4.02-3.01-8.93-7.44-11.53
		c-0.7-0.41-1.2-1.23-1.92-1.52c-11.33-4.54-21.35-11.56-32.02-17.32c-7.43-4.01-14.76-8.16-22.11-11.87
		c-2.07,0.87-2.08,2.38-1.97,3.91c0.6,8.82,2.88,17.4,3.82,26.18c0.24,2.24,1.81,2.84,3.82,3.18c12.5,2.12,24.7,5.36,36.57,9.83
		c2.83,1.07,5.39,2.59,7.99,4.08c3.05,1.75,4.04,4.33,3.06,7.62c-1.24,4.16-3.23,8-5.18,11.87c-7.64,15.14-17.91,28.38-29.2,40.89
		c-1.99,2.21-2.36,4.26-1.85,7.19c1.96,11.32,5.82,22.15,8.24,33.35c0.49,2.28,1.78,3.2,4.2,3.32c13.81,0.7,27.43,3.02,41.08,5.13
		c3.85,0.6,7.31,2.25,10.82,3.74c2.85,1.21,3.93,3.47,3.07,6.51c-3.76,13.22-9.63,25.46-17.14,36.94c-3,4.59-6.05,9.14-9.26,13.99
		c5.36,5.75,10.55,11.33,15.76,16.89c5.48,5.84,7.68,6.02,13.77,0.44c7.99-7.33,16.01-14.58,25.32-20.25
		c4.52-2.75,6.12-2.21,6.96,3.13c1.25,7.91,0.62,15.94,1.04,23.92c0.52,9.82,2.31,19.44,3.87,29.11c0.48,2.98,2.34,3.69,4.81,4.08
		c8.42,1.3,16.92,1.35,25.39,1.83c6.31,0.36,9.72-3.18,11.44-8.38c4.08-12.32,9.7-24.07,13.38-36.54c1.42-4.82,4.36-8.92,8.31-12.7
		c5.62,2.33,9.56,6.71,13.53,10.8c6.95,7.16,13.35,14.87,20.23,22.1c9.22,9.69,6.38,8.54,17.39,2.38
		c7.58-4.24,14.09-10.05,21.43-14.64c2.78-1.74,4.42-4.06,4.79-7.65c1.04-10.1,2.65-20.12,5.6-29.89c1.17-3.87,2.72-7.46,5.42-10.55
		c1.46-1.66,2.88-1.86,4.84-0.95c2.96,1.37,5.34,3.43,7.36,5.88c5.11,6.22,11.56,11.04,17.11,16.79c1.93,2,3.96,2.16,6.35,1.35
		c11.2-3.8,22.41-7.53,34.16-9.27c2.42-0.36,3.62-1.71,4.78-3.78c5.87-10.47,12.6-20.4,19.65-30.1c4.61-6.34,7.56-5.82,10.66,1.39
		c3.09,7.18,6.16,14.37,8.52,21.84c0.97,3.07,2.59,4.66,6.33,4.99c5.65,0.5,11.3,0.47,16.94,0.7c8.21,0.34,16.19,1.52,24,4.16
		c6.62,2.24,13.35,4.17,20.04,6.21c3.88,1.19,7.37,3.14,10.46,5.71c2.44,2.02,2,4.04-0.99,5.13c-1.55,0.57-3.21,0.97-4.85,1.16
		c-16.98,1.97-33.31,6.72-49.17,12.74c-21.02,7.97-41.77,16.86-59.88,30.47c-11.43,8.59-23,17.05-33.81,26.47
		c-11.18,9.74-21.65,20.14-31.62,31.15c-14.06,15.53-28.58,30.66-44.49,44.4c-8.81,7.61-16.5,16.46-25.68,23.72
		c-15.27,12.09-30.46,24.31-46.84,34.86c-12.17,7.83-24.8,14.98-38.09,20.84c-0.75,0.33-1.6,0.48-2.08,1.26
		c-0.07,0.9,0.41,1.55,0.93,2.22c16.44,20.99,32.12,42.53,45.04,65.89c6.33,11.45,11.6,23.49,14.42,36.42
		c1.02,4.68,0.47,9.25-0.6,13.84c-0.56,2.38-2.35,3.7-4.14,4.78c-5.9,3.57-8.27,9.17-9.92,15.49c-1.97,7.55-4.43,14.98-6.69,22.46
		c-0.37,1.23-0.35,2.84-2.01,3.13c-1.85,0.33-2.64-1.19-3.42-2.43c-6.87-10.81-13.85-21.55-19.85-33.25
		c-3.11-0.59-6.42-0.4-9.69-0.22c-3.64,0.21-5.78,1.8-7.86,5.46c-6.06,10.67-12.59,21.18-20.85,30.38
		c-3.62,4.03-4.75,3.64-6.68-1.19c-4.18-10.48-5.3-21.63-7.14-32.6c-0.51-3.03-1.24-5.08-4.76-4.95c-0.79,0.03-1.59-0.47-2.4-0.63
		c-5.18-0.97-9.8-0.72-14.6,2.55c-10.86,7.41-22.64,13.32-34.31,19.37C354.23,841.86,354.17,841.75,350.25,839.21z"/>
</g>
</svg>
