<?xml version="1.0" encoding="utf-8"?>
<!-- Generator: Adobe Illustrator 24.0.2, SVG Export Plug-In . SVG Version: 6.00 Build 0)  -->
<svg version="1.1" id="Layer_1" xmlns="http://www.w3.org/2000/svg" xmlns:xlink="http://www.w3.org/1999/xlink" x="0px" y="0px"
	 viewBox="0 0 679.38 861.13" style="enable-background:new 0 0 679.38 861.13;" xml:space="preserve">
<g>
	<path d="M197.42,167.63c-3.31-8.95-8.61-16.55-11.63-25.17c-4.39-12.53-8.82-25.02-10.86-38.27c-1.56-10.19-4.23-20.21-4.58-30.57
		c-0.4-11.47-0.93-22.94-0.56-34.43c0.39-12.11,3.38-23.53,9.03-34.21c3-5.67,3.85-5.79,9.84-3.83
		c12.46,4.07,22.79,11.41,32.09,20.47c8.99,8.76,16.78,18.49,23.58,28.96c8.71,13.39,16.36,27.44,23.03,41.94
		c3.94,8.56,7.55,17.38,9.26,26.81c0.65,3.57,2.02,7.02,3.13,10.5c0.92,2.91,3.08,3.65,5.91,3.27c4.46-0.6,8.92-1.12,13.39-1.65
		c14.31-1.71,28.59,0.32,42.89,0.34c7.95,0.01,15.94,0.56,23.88,1.47c12.54,1.44,25.06,3.04,37.47,5.35
		c10.63,1.98,21.29,3.81,31.89,5.89c7.64,1.5,15.36,2.55,22.95,4.6c9.45,2.56,19.15,4.21,28.64,6.75
		c18.95,5.07,37.84,10.05,56.03,17.8c12.69,5.41,25.22,11.16,37.9,16.57c1.97,0.84,3.74,2.17,5.53,3.38
		c6.97,4.73,7.59,8.69,1.86,15.11c-9.77,10.95-20.25,21.29-32.25,29.75c-20.53,14.49-40.98,29.15-62.87,41.59
		c-6.95,3.95-14.1,7.54-21.02,11.52c-4.41,2.54-5,3.68-2.88,8.03c2.29,4.69,2.57,9.58,3.18,14.52c1.4,11.42,2.09,22.92,0.57,34.29
		c-1.97,14.68-5.63,28.94-12.52,42.34c-3.58,6.96-7.42,13.73-11.22,20.55c-1.49,2.68-3.5,4.83-5.39,7.14
		c-7.35,9-14.41,18.24-22.75,26.39c-0.94,0.92-1.76,2.05-2.33,3.23c-3.11,6.38-7.52,11.73-12.71,16.49
		c-0.64,0.59-1.06,1.28-0.44,2.27c0.86,0.96,1.69,0.3,2.57-0.19c16.7-9.45,32.58-20.12,47.59-32.06
		c9.54-7.6,17.71-16.66,26.24-25.32c14.37-14.6,29.15-28.83,42.46-44.41c13.29-15.57,25.71-31.76,36.71-49.16
		c10.75-17.02,18.89-35.11,26.34-53.63c1.54-3.84,2.81-7.79,3.36-11.97c0.64-4.8,3.02-9.13,4.47-13.73
		c2.61-8.28,4.14-16.77,5.75-25.28c3.52-18.53,4.12-37.35,6.26-56.01c0.95-8.28,1.04-16.61,2.16-24.85
		c0.77-5.69-0.33-11.3-0.52-16.95c-0.23-6.97-0.09-13.94-1-20.9c-0.74-5.65,5.58-11.46,11.68-10.87c7.32,0.71,14.31,2.75,21.15,5.56
		c9.63,3.95,16.93,11.02,24.78,17.43c6.9,5.63,10.55,13.24,13.08,21.4c1.44,4.62,0.69,9.67,0.34,14.41
		c-1.22,16.76-2.07,33.65-6.5,49.95c-4.4,16.18-8.82,32.34-15.57,47.82c-11.01,25.25-24.62,49.07-38.98,72.46
		c-9.48,15.44-19.45,30.61-30.96,44.67c-2.32,2.83-4.7,5.62-7.17,8.32c-12.77,14.03-25.4,28.22-39.64,40.81
		c-6.72,5.94-13.52,11.83-21.16,16.65c-6.91,4.35-12.73,10.19-19.74,14.44c-10.95,6.65-21.75,13.55-32.65,20.27
		c-6.94,4.28-13.98,8.39-20.94,12.64c-10.27,6.27-21.44,10.63-32.45,15.31c-2.59,1.1-3.35,2.4-2.87,4.84
		c1.27,6.53,3.27,12.88,5.29,19.2c0.71,2.22,1.78,4.31,2.56,6.51c1.69,4.7,2.43,5.37,7.54,5.22c5.66-0.16,11.3-0.73,16.96-0.79
		c8.46-0.08,16.9-0.23,24.91,3.62c6.82,3.28,8.53,7.58,4.38,13.81c-5.94,8.89-13.91,15.55-23.14,20.86
		c-8.19,4.7-16.29,9.52-25.05,13.13c-1.38,0.57-2.9,1.17-3.09,2.94c-0.43,3.99-2.21,7.62-2.74,11.64
		c-0.95,7.28-3.99,14.07-6.61,20.85c-1.84,4.75-3.58,9.66-6.4,14.04c-2.49,3.86-4.43,4.92-8.71,3.49
		c-7.11-2.37-14.11-4.98-20.09-9.79c-3.23-2.6-6.84-4.74-10.33-7.01c-2.82-1.83-5.26-4.01-7.46-6.58
		c-3.51-4.09-7.57-5.75-13.28-3.92c-11.49,3.69-23.46,4.82-35.49,4.39c-5.12-0.18-10.27-0.97-14.9-3.59
		c-4.32-2.44-5.11-4.27-3.2-8.95c2.42-5.94,6.13-11.09,10.84-15.42c5.15-4.74,10.44-9.33,15.78-13.84
		c6.26-5.28,6.47-5.55,5.75-13.43c-0.06-0.66-0.24-1.31-0.45-1.94c-1.83-5.32-2.36-11.04-4.83-16.52
		c-3.71,0.72-6.94,2.45-10.06,4.12c-12.48,6.65-24.77,13.75-35.69,22.74c-10.52,8.67-21.17,17.2-30.92,26.83
		c-18.27,18.04-35.26,37.22-51.96,56.66c-13.86,16.13-24.37,34.4-33.79,53.44c-9.03,18.27-14.78,37.41-16.79,57.53
		c-1.49,14.94-0.32,29.64,10.48,41.86c6.29,7.11,14.39,10.22,23.32,10.86c14.35,1.04,25.31-5.15,33.24-17.15
		c2.87-4.34,4.81-8.91,6.54-13.79c3.36-9.5-5.5-25.81-13.21-30.27c-6.18-3.58-11.54-8.39-18.13-11.43
		c-4.52-2.09-5.53-7.5-3.92-12.54c3.81-11.92,11.9-21.13,19.3-30.7c7.87-10.18,17.47-18.74,27.46-26.83
		c13.55-10.96,27.94-6.45,36.8,6c9.08,12.76,15.99,26.78,19.48,42.31c1.76,7.84,2.43,15.6,2.47,23.64
		c0.03,7.63,0.09,15.27-0.26,22.88c-0.5,10.68-2.18,21.2-5.99,31.25c-6.15,16.25-15.7,30.11-28.12,42.37
		c-16.89,16.67-37.38,26.41-59.67,32.85c-8.98,2.59-18.36,2.55-27.73,1.15c-11.83-1.76-22.9-5.96-33.25-11.41
		c-9.7-5.11-17.47-13-24.53-21.68c-10.31-12.67-13.98-27.3-15.35-43c-1.41-16.17,0.53-32.06,5.12-47.42
		c4.23-14.14,9.62-27.93,15.84-41.42c10.25-22.21,23.39-42.5,37.98-62.02c14.65-19.6,31.73-36.76,50.57-52.27
		c30.85-25.39,64.1-47.05,99.98-64.68c4.46-2.19,8.48-5.27,12.72-7.92c2.15-1.34,3.59-3.05,2.84-5.77
		c-0.78-2.81-2.61-5.03-5.54-5.01c-7.89,0.06-14.93-2.65-22.03-5.6c-4.91-2.04-10.33-2.7-15.58-3.22
		c-12.57-1.24-24.01-5.94-35.73-10.14c-13.54-4.84-25.13-12.67-36.62-20.83c-6-4.26-10.64-10.02-15.65-15.34
		c-2.84-3.02-5.25-6.45-7.81-9.73c-2.35-3.02-4.97-3.9-8.73-2.8c-4.3,1.27-8.52,2.73-12.68,4.47c-5.67,2.38-11.74,3.52-17.81,4.69
		c-7.66,1.48-15.06,4.21-22.7,5.83c-10.74,2.27-21.53,4.39-32.43,5.8c-3.13,0.4-6.21,1.21-9.33,1.74
		c-13.84,2.35-27.72,2.91-41.77,2.21c-7.14-0.35-13.76-1.86-20.4-4.14c-6.54-2.25-10.19-9.63-7.64-16.03
		c4.92-12.36,10.01-24.66,15.81-36.63c2.82-5.81,6.52-11.19,9.68-16.84c7.79-13.97,17.51-26.69,26.04-40.18
		c8.55-13.52,18.07-26.38,27.43-39.34c14.34-19.86,29.36-39.2,45.01-58.03c9.15-11,18.98-21.46,28.8-31.88
		c8.44-8.95,15.84-18.85,25.3-26.88C185.2,179.36,191.11,173.47,197.42,167.63z"/>
</g>
</svg>
