<?xml version="1.0" encoding="utf-8"?>
<!-- Generator: Adobe Illustrator 24.0.2, SVG Export Plug-In . SVG Version: 6.00 Build 0)  -->
<svg version="1.1" id="Layer_1" xmlns="http://www.w3.org/2000/svg" xmlns:xlink="http://www.w3.org/1999/xlink" x="0px" y="0px"
	 viewBox="0 0 641.34 861.52" style="enable-background:new 0 0 641.34 861.52;" xml:space="preserve">
<g>
	<path d="M275.56,816.93c-16.23,19.86-36.91,25.09-59.69,14.92c-19.75-8.81-27.22-26.25-24.99-48
		c-27.03-0.86-51.07-9.06-71.83-25.97c-10.97,6.18-22.88,10.07-34.65,13.77c-14.21,4.47-28.82,8.2-43.89,8.88
		c-6.97,0.32-9.25-1.52-11.65-8.88c-2.45-7.48-3.24-15.28-4.12-23.06c-2.81-25,1.64-49.1,9.33-72.72
		c6.54-20.08,17.25-37.85,30.05-54.63c12.02-15.75,25.63-29.91,41-42.11c9.87-7.83,16.81-17.9,25.11-26.9
		c11.52-12.51,23.58-24.21,37.73-33.82c8.97-6.1,18.07-11.9,27.61-17.02c1.62-0.87,2.66-1.96,2.31-3.94
		c-2.2-12.24-0.9-24.6-1.23-36.9c-0.02-0.82-0.13-1.64-0.23-2.88c-8.47,2.97-16.99,4.78-25.62,6.13c-3.68,0.57-7.29,1.93-11.11,1.01
		c-0.47-0.11-1.04-0.16-1.49-0.02c-9.18,2.92-18.56,0.81-27.82,0.97c-5.6,0.1-11.28-0.87-16.83-1.89
		c-17.23-3.18-34.04-7.56-49.59-16.19c-17.23-9.57-32.06-21.85-44.99-36.64c-9.69-11.09-14.9-24.29-17.84-38.34
		c-2.58-12.27-0.88-24.41,6.53-34.82c6.03-8.46,17.39-14.23,28.97-10.48c8.08,2.62,15.54,6.57,22.75,11.14
		c8.28,5.25,16.87,10.06,25.95,13.86c4.43,1.85,9.01,3.33,13.46,5.13c1.95,0.79,3.2,0.46,4.86-0.93
		c17.72-14.84,34.83-30.39,52.78-44.98c8.37-6.8,16.55-13.96,24.39-21.36c9.26-8.74,18.02-18.1,25.58-28.42
		c-0.17-2-1.92-2.2-3.17-2.82c-3.38-1.68-5.02-4.26-4.54-8.05c1.03-8.08,1.97-16.15,4.62-23.96c6.1-17.99,15.6-34.1,26.86-49.23
		c2.66-3.57,5.92-6.7,8.88-10c-0.37-2.92-3.3-2.58-4.75-4.04c-7.56-7.63-15.76-14.56-23.11-22.45c-12.34-13.26-20.89-28.91-28.38-45
		c-5.75-12.34-11.76-25.05-10.64-39.49c0.36-4.62,1.51-6.5,5.74-8.02c19.22-6.88,38.83-7.65,58.5-2.85
		c6.36,1.55,13.07,2.54,19.18,6.43c3.59-4.14,7.55-7.64,11.57-11.07c1.41-1.2,2.79-2.25,4.66-2.75c3.19-0.84,5.31-0.16,6.98,2.95
		c2.01,3.73,2.82,7.78,4.04,12.1c4.81-1.19,8.71-4.09,13.14-5.74c14.32-5.3,28.84-7.22,44.06-5.28c5.58,0.71,11.23,0.94,16.78,2.04
		c1.4,0.28,3.01-0.06,4.43-0.46c13.88-3.96,26.98-1.42,39.74,4.49c3,1.39,5.24,4.04,8.74,5.11c1.39-4.51-0.88-8.53-1.29-12.69
		c-0.13-1.31-1.63-1.51-2.7-1.91c-7.05-2.66-10.19-8.25-10.98-15.28c-0.81-7.21,2.25-12.62,8.64-16.06
		c6.35-3.41,12.63-3.79,18.81,0.55c9.22,6.47,11.2,16.84,4.33,25.48c-2.45,3.08-3.05,5.02-0.56,8.52c2.93,4.11,4.73,9.02,7.28,14.09
		c7.16-7.56,10.72-16.69,15.38-25.73c-6.19-4.1-9.62-9.58-8.44-17.2c0.67-4.34,2.76-7.76,6.3-10.35c7.49-5.48,17.74-3.66,22.75,4.11
		c3.35,5.2,3.32,10.54,0.9,16.15c-2.48,5.76-7.94,7.13-13.11,8.93c1.28,9.74,2.16,19.11,2.5,28.54c3.93,0.75,5.07-2.57,7.16-3.31
		c0.57-2.13-0.62-3.06-1.18-4.22c-5.81-11.98,2.92-27.47,17.54-27.85c9.98-0.26,19.07,7.82,20.04,17.28
		c1.07,10.52-5.53,19.59-16.4,21.65c-2.84,0.54-4.21,1.65-4.73,4.08c-0.82,3.81-2.76,7.38-2.82,12.1
		c9.85-4.84,19.21-9.37,28.95-12.51c0.69-1.85-0.29-3.19-0.61-4.61c-1.66-7.43,1.5-14.02,8.65-17.83c5.76-3.07,14.38-1.5,18.84,3.43
		c4.57,5.06,5.28,13.07,1.68,19.1c-3.85,6.46-10.91,9.37-17.98,7.22c-1.85-0.56-3.56-1.44-4.72,0.8c-2.45,4.71-4.96,9.4-7.09,14.26
		c-0.74,1.68-1.03,3.85-0.18,5.48c1.32,1.16,2.5,0.76,3.65,0.74c4-0.07,8.04-0.64,11.97,0.13c3.45,0.68,5.18,0.17,6.71-3.57
		c3.68-8.98,14.94-13.07,22.98-9.02c9.63,4.86,13.67,15.12,9.37,23.79c-6.27,12.67-23.06,12.57-29.02,4.87
		c-1.94-2.51-3.92-2.8-6.92-1.56c-4.89,2.03-9.91,3.73-14.55,6.01c-0.4,1.79,0.81,2.32,1.78,2.83c8.3,4.35,14.4,11.19,20.48,18.05
		c0.44,0.5,0.95,1.04,1.11,1.65c2.88,10.91,11.33,18.11,17.66,26.72c7.42,10.09,11.51,21.66,14.7,33.61
		c3.67,13.78,4.95,27.83,4.45,42.04c-0.29,8.21-2.15,16.09-5.72,23.52c-0.53,1.1-1.17,2.13-0.43,3.23c0.79,1.17,1.98,0.79,3.17,0.56
		c3.93-0.75,7.84-1.24,11.83-0.01c3.02,0.93,4.57,2.92,4.23,5.89c-0.42,3.58-0.89,7.04-2.67,10.5c-7,13.58-17.21,23.51-31.34,29.3
		c-3.52,1.44-6.66,3.71-10.59,4.3c-2.63,0.39-3.2,2.16-2.31,4.87c4.37,13.3,7.06,26.93,8.63,40.88c0.74,6.59,1.16,13.23,1.58,19.8
		c0.46,7.14-0.1,14.5-1.49,21.66c-0.79,4.05-1.98,4.85-6.26,4.49c-9.28-0.77-17.6-4.73-26.21-7.77c-5.08-1.79-9.22-5.23-14.02-7.48
		c-1.18-0.55-2.27-1.46-3.72-1.11c-1.27,0.92-0.61,2.13-0.44,3.19c2.54,15.75,5.88,31.34,8.8,47.01c1,5.37,2.63,10.62,3.02,16.15
		c0.34,4.88,2.14,6.15,7.05,6.57c11.78,1.02,23.56,2.07,35.33,3.14c8.22,0.75,15.87,3.76,21.81,9.11
		c7.86,7.08,10.26,16.71,7.38,26.97c-3,10.69-9.14,19.53-18.01,26.33c-5.96,4.57-12.32,8.53-18.82,12.27
		c-3.25,1.87-7,2.08-10.46,3.24c-3.03,1.03-6.66,1.07-8.62,4.48c10.18,7.29,19.66,15.28,28.95,23.46
		c8.5,7.48,16.43,15.58,23.27,24.64c8.92,11.82,18.19,23.42,26.18,35.86c3.87,6.02,7.47,12.48,10.44,19.14
		c5.54,12.44,12,24.51,16.5,37.36c4.39,12.53,7.88,25.35,10.39,38.49c2.46,12.89,2.63,25.77,2.82,38.74
		c0.05,3.25-1.02,4.72-3.97,5.85c-4.76,1.82-9.71,2.27-14.66,2.77c-21.52,2.17-42.96,1.58-64.08-3.28
		c-12.75-2.93-25.51-5.69-37.68-11.15c-7.38-3.31-15.05-6.09-22.21-9.96c-2.58-1.4-4.47-0.47-6.19,1.39
		c-5.68,6.16-12.42,11.01-19.46,15.4c-8.03,5.01-15.78,10.84-25,13.35c-5.87,1.6-8.19,5.3-10.65,10.24
		c-5.91,11.86-15.55,20.51-27.43,25.84c-9.01,4.04-19.05,4.79-28.93,2.81c-3.59-0.72-7.18-1.46-10.8-2.02
		c-4.28-0.66-4.33-0.48-4.87,3.86c-1.42,11.25-5.65,20.88-14.6,28.56c-6.98,5.99-14.76,7.32-23.25,6.6
		c-13.34-1.13-24.4-7.06-33.54-16.74c-3.32-3.51-6.98-6.67-9.92-10.55c-3.05-4.04-5.63-8.26-6.24-13.41
		C277.71,819.28,277.53,817.96,275.56,816.93z M204.52,345.26c-10.66,11.43-18.9,23.53-31.53,31.6c9.64,1.75,18.98,3.55,28.4,2.88
		c1.55-4.16,1.43-7.24-1.87-10.26c-3.59-3.28-2.98-5.48,1.35-7.88c1.19-0.66,2.34-1.19,2.28-2.89
		C202.99,354.56,203.91,350.49,204.52,345.26z M209.01,789.72c1.68-2.36,1.73-4.57,2.05-6.94c-3.08-0.52-5.46,0.51-8.22,1.19
		C204.44,786.5,206.25,788.27,209.01,789.72z"/>
</g>
</svg>
