<?xml version="1.0" encoding="utf-8"?>
<!-- Generator: Adobe Illustrator 24.0.2, SVG Export Plug-In . SVG Version: 6.00 Build 0)  -->
<svg version="1.1" id="Layer_1" xmlns="http://www.w3.org/2000/svg" xmlns:xlink="http://www.w3.org/1999/xlink" x="0px" y="0px"
	 width="825.87" height="571.22" viewBox="0 0 825.87 571.22" style="enable-background:new 0 0 825.87 571.22;" xml:space="preserve">
<g>
	<path d="M643.75,563.82c-2.81,0.56-3.64-1.55-4.88-2.99c-4.57-5.34-7.67-11.67-11.57-17.46c-3.26-4.83-6.67-9.56-10.07-14.29
		c-0.52-0.73-1.04-1.69-2.61-1.54c4.25,14,11.55,27.3,9.72,43.68c-4.99-3.1-7.97-7.03-10.96-10.81
		c-9.57-12.11-18.76-24.52-30.06-35.18c-2.96-2.79-5.08-6.17-9.08-8.14c-2.99-1.47-5.43-2.29-8.76-1.93
		c-5.52,0.59-10.97-0.84-16.23-2.35c-10.11-2.89-19.95-6.3-27.29-14.66c-9.41-10.73-12.2-23.55-11.78-37.15
		c0.27-8.63,2.25-17.15,5.43-25.72c-5.66-7.08-11.54-14.28-17.94-21.04c-9.96-10.53-20-20.98-29.97-31.5
		c-13.79-14.54-28.49-28.11-45.3-39.05c-14.71-9.59-30.87-16.11-47.92-20.7c-30.16-8.13-60.85-11.26-91.95-11.18
		c-11.84,0.03-22.21,5.09-32.41,10.42c-7.37,3.85-14.45,8.42-22.13,11.49c-15.45,6.18-31.56,7.49-48.1,4.95
		c-21.64-3.32-35.7-16.52-46.47-34.36c-0.25-0.41-0.62-0.74-1.4-1.64c-3.75,5.29-7.89,9.98-12.52,14.2
		c-7.64,6.97-15.21,14.38-24.61,18.64c-18.61,8.44-37.5,16.43-58.59,16.26c-4.68-0.04-6.85-0.95-9.03-4.56
		c-3.78-0.76-8.09,0.72-11.64-2.76c1.08-2.74,3.48-4.09,5.91-5.45c7.25-4.08,14.61-7.98,21.66-12.38
		c7.64-4.76,14.84-10.08,20.01-17.76c2.91-4.33,7.7-6.8,11.53-10.24c10.07-9.04,18.63-19.47,27.69-29.45
		c1.45-1.6,2.96-3.17,4.57-4.61c4.81-4.29,10.16-6.23,16.55-3.65c1.01,0.41,2.07,1.15,3.54,0.67c1.23-5.1,3.6-9.8,7.22-14.24
		c-3.59-1.61-7.09-1.03-10.44-1.07c-22.41-0.3-43.54-5.81-63.12-16.47c-14.6-7.95-27.39-18.32-36.56-32.57
		c-1.33-2.07-1.4-2.02-1.17-5.16c3.54-0.73,5.44,2.66,8.79,3.28C12.68,174.45,1.27,150.38,0,120.91
		c6.81,3.89,9.49,10.35,14.77,14.47C1.69,95.25,3.69,55.43,15.1,15.76c0.69-0.07,1.38-0.14,2.07-0.2
		c5.04,17.37,8.1,35.36,15.68,52.1C34.77,44.73,34.87,21.53,46.79,0c2.07,2.68,2.78,5.31,3.83,7.8c8.89,21,15.96,42.74,25.92,63.31
		c3.57,7.37,8.72,13.72,13.43,20.56c0.56-9.66-0.22-19.45,4.66-28.6c2.24,0.68,3.14,2.52,4.1,4.13
		c8.06,13.43,16.31,26.79,27.59,37.79c11.66,11.36,23.48,22.68,39.12,28.63c5.13,1.95,10.52,3.12,15.92,4.05
		c14.3,2.46,28.63,3.97,43.23,3.29c16.14-0.76,32.15-2.51,48.19-4.25c23.34-2.53,46.71-5.22,70.24-4.5
		c18.81,0.58,37.57,2.07,56.27,4.33c14.72,1.78,29.38,3.91,43.98,6.45c21,3.66,42,7.59,62.18,14.49
		c18.39,6.29,37.26,11.44,54.76,20.11c16.85,8.35,33.46,17.15,49.5,27.06c11.47,7.09,23.24,13.74,34.22,21.57
		c12.74,9.09,24.98,18.8,36.75,29.17c9.8,8.63,18.11,18.59,27.44,27.6c1.79,1.73,2.7,4.26,5.5,5.66
		c7.26-8.32,12.68-17.96,18.3-28.17c2.26,3.59,2.35,7.18,3.07,10.61c0.73,3.46,0.23,6.99,0.98,10.82
		c6.08-2.38,8.52-8.57,13.52-12.47c1.28,4.67,0.33,9.19,1.33,13.87c4.48-1.78,5.56-6.7,9.91-8.29c0,7.71,0,15.31,0,23.16
		c2.95-0.93,4.78-3.27,8.4-4.93c-3.63,17.95-11.99,32.75-21.47,47.47c5.32,1.21,10.61,1.37,15.62,3.15
		c12.27,4.35,21.47,11.95,26.22,24.25c2.13,5.5,2.58,11.41,1.98,17.24c-0.91,8.78,2.62,15.39,8.28,21.87
		c11.36,13.01,20.41,27.52,25.02,44.42c0.92,3.39,1.18,6.89,1.03,10.41c-0.05,1.18-0.14,2.42-1.53,2.84
		c-1.1,0.33-1.9-0.35-2.64-1.06c-1.05-1.02-2.08-2.05-3.33-3.28c-1.1,2.1,0.17,3.79,0.17,5.5c0,1.17,0.2,2.43-1.13,3.03
		c-1.22,0.55-2.26-0.01-3.16-0.85c-0.73-0.68-1.4-1.42-2.12-2.12c-10.68-10.52-20.92-21.46-31.19-32.38
		c-0.78-0.83-1.66-1.55-2.53-2.36c-1.26,1.2-0.64,2.28-0.31,3.3c2.74,8.43,4.34,17.09,5.24,25.89c0.29,2.83,0.71,5.6,1.52,8.33
		c1.61,5.42,0.48,10.59-1.93,15.48c-2.63,5.33-9.11,7.77-16.44,6.2c-8.48-1.81-16.64-4.67-24.57-8.19
		c-0.85-0.38-1.61-1.24-3.29-0.52c11.77,21.81,11.12,44.33,2.54,66.82c-4.76,12.49-6.98,15.94-11.53,18.25
		c-2.15-3.14-1.21-6.62-1.09-9.95c0.41-10.81,1.09-21.58-0.8-32.37c-0.94-5.37-3.7-9.95-5.42-14.97
		c-5.88-17.17-17.2-30.4-31.8-40.58c-8.81-6.15-18.06-11.89-28.41-15.49c-4.22-1.46-8.34-3.48-12.12-5.85
		c-9.57-6-19.49-11.4-28.5-18.39c-13.44-10.43-28.27-18.81-42.98-27.29c-0.54-0.31-1.11-0.74-2.4-0.27
		c1.03,3.35,4.15,5.43,5.45,8.52c1.81,4.28,5.03,6.44,9.37,8.07c9.12,3.42,17.11,8.64,23.77,16.03c8.97,9.95,11.69,21.46,9.61,34.27
		c-0.74,4.55-1.33,9.25-3.37,13.51c-0.95,1.98,0,3.52,0.96,5.11c2.01,3.34,3.42,6.87,2.88,10.87c-0.21,1.52,0.56,2.56,1.31,3.64
		c10.61,15.13,15.63,32.21,17.43,50.37C643.88,556.04,645.41,559.95,643.75,563.82z"/>
</g>
</svg>
