<?xml version="1.0" encoding="utf-8"?>
<!-- Generator: Adobe Illustrator 24.0.2, SVG Export Plug-In . SVG Version: 6.00 Build 0)  -->
<svg version="1.1" id="Layer_1" xmlns="http://www.w3.org/2000/svg" xmlns:xlink="http://www.w3.org/1999/xlink" x="0px" y="0px"
	 width="861.32" height="668.86" viewBox="0 0 861.32 668.86" style="enable-background:new 0 0 861.32 668.86;" xml:space="preserve">
<g>
	<path d="M91.86,472.29c-2.94-1.05-5.86-0.05-8.74,0.33c-22.17,2.93-44.39,4.61-66.76,3.36c-7.74-0.43-9.54-1.92-12.1-9.44
		c-4.54-13.36-4.36-27.19-4.2-41.02c0.04-3.16,0.29-6.32,0.57-9.47c0.26-2.87,1.77-4.47,4.82-4.67c2.53-0.16,4.93,0.15,7.42,0.59
		c13.13,2.3,25.63,7.12,38.73,9.53c5.4,0.99,10.8,1.29,16.88,0.76c-1.7-2.6-4.01-2.69-5.89-3.13c-4.37-1.02-8.81-1.94-13.26-2.37
		c-5.11-0.49-9.25-2.74-12.74-6.19c-12.48-12.34-23.55-25.83-32.73-40.83c-1.04-1.71-1.33-3.22-0.58-5.14
		c5.43-14.04,13.85-26.08,24.29-36.79c1.16-1.19,2.44-2.29,3.81-3.23c3.82-2.63,5.99-2.23,8.78,1.58
		c7.12,9.69,13.34,19.97,18.67,30.71c4.22,8.51,10.29,14.26,19,18.07c10.66,4.66,20.57,10.92,31.27,15.57
		c2.51,1.09,4.7,1.16,7.75,0.06c-2.13-4.09-4.15-8.02-6.22-11.92c-6.95-13.09-13.21-26.5-18.98-40.16
		c-1.43-3.39-0.51-5.17,2.36-6.89c12.21-7.31,24.93-13.38,38.86-16.63c4.56-1.06,6.79-0.26,9.33,3.68
		c4.72,7.31,7.75,15.47,11.13,23.42c4.56,10.72,9.33,21.37,12.79,32.52c1.16,3.75,3.77,4.69,7.29,4.56
		c11.32-0.42,22.66-0.48,33.96-1.21c17.03-1.1,33.97,0.08,50.9,1.39c9.03,0.69,17.91,0.32,26.89-0.62
		c17.34-1.8,33.74-7.43,50.45-11.78c0.48-0.13,0.94-0.43,1.42-0.47c11.22-0.92,17.98-8.56,24.62-16.36
		c2.37-2.79,4.64-5.67,7.03-8.45c3.18-3.69,4.08-4.14,11.58-6.11c-3.55-8.71-5.95-17.72-13.32-24.49
		c-9.7-8.9-19.19-18.04-29.62-26.07c-15.97-12.29-32.08-24.42-49.85-34.09c-3.19-1.74-6.64-3.06-10.09-4.26
		c-3.21-1.12-6.15-0.32-8.83,1.9c-5.77,4.78-11.61,9.47-18.15,13.21c-3.48,1.99-6.95,3.97-10.82,5.1
		c-4.96,1.44-9.62,0.79-13.54-2.72c-2.82-2.53-5.11-5.68-9.08-6.67c-0.7-0.18-1.19-1.11-1.23-2.38c3.82-1.97,2.95-5.15,2.14-8.76
		c-1.32-5.84-0.26-11.95-1.54-17.87c-0.79-3.67-0.7-3.8-4.61-5.91c-3.3,1.74-4.93,5.87-9,6.8c-3.42-1.41-4.34-4.87-6-7.66
		c-2.79-4.71-10.04-8.14-15.35-7.01c-2.42,0.51-3.21,2.76-4.52,4.41c-1.2,1.52-1.84,3.83-4.39,3.41c-2.62-0.43-3.14-2.87-3.77-4.84
		c-3.28-10.22-1.18-19.59,4.5-28.5c6.5-10.19,15.82-17.46,25.07-24.81c1.67-1.33,3.64-2.32,5.58-3.25
		c11.84-5.74,21.05-14.96,31.02-23.19c6.44-5.31,13.58-9.64,20.72-13.9c9.72-5.8,19.68-11.18,30.31-15.18
		c0.63-0.24,1.24-0.5,2.26,0.41c-4.23,8.64-9.45,16.92-14.73,25.21c2.46,1.29,4.3,0.85,6.04,0.44c7.98-1.9,16.16-2.25,24.25-3.27
		c3.36-0.42,6.87-0.14,9.76,2.06c-0.26,2.35-1.99,3.32-3.17,4.64c-8.54,9.57-17.27,18.99-25.65,28.69
		c-6.59,7.63-6.4,7.98-1.75,16.96c1.72,3.33,4.11,5.8,7.3,7.93c10.38,6.95,20.55,14.2,30.72,21.46
		c15.25,10.89,31.86,19.36,48.82,27.14c9.68,4.44,19.19,9.23,28.48,14.37c10.26,5.67,21.61,8.68,31.85,14.29
		c9.76,5.35,19.87,10.1,29.25,16.12c2.88,1.85,4.31,1.48,5.79-1.47c1.94-3.87,4.1-7.64,6.37-11.32c2.93-4.77,6.56-8.81,12.3-10.33
		c2.9-0.77,4.88-2.4,5.94-5.44c0.81-2.34,1.79-4.65,2.59-7.01c4.28-12.57,10.75-23.96,18.7-34.55c5.8-7.72,11.57-6.13,16.44-0.57
		c4.18,4.77,7.99,9.82,12.04,14.68c2.68,3.21,5.03,6.66,3.74,11.96c5.3-0.96,9.64-2.89,14.08-4.42c6.29-2.17,12.49-4.61,18.77-6.83
		c6.33-2.23,11.06-6.84,15.85-11.1c9.69-8.64,18.9-17.83,28.3-26.79c0.83-0.79,1.85-1.47,1.75-2.88c-0.63-1.32-2.05-0.71-3.04-1.18
		c-2.99-1.4-4.69-3.31-4.18-7.01c1-7.25,1.63-14.54,3.26-21.71c1.96-8.6,3.7-17.24,5.45-25.88c0.97-4.77,2.58-9.28,4.8-13.61
		c1.52-2.97,3.71-4.03,6.98-2.93c5.69,1.9,11.28,4.05,16.79,6.4c1.32,0.56,2.57,1.69,4.13,0.66c0.66-1.34-0.25-2.22-0.85-3.18
		c-8.83-14.17-18.66-27.59-30.09-39.79c-2.88-3.08-4.75-6.82-7.2-10.17c-1.32-1.81-1.03-3.78,0.22-5.6
		c8.83-12.94,18.26-25.39,29.64-36.24c3.84-3.66,5.4-3.51,9.23,0.24c2.76,2.7,4.39,6.23,6.94,9.27c3.5-0.71,5.41-3.76,8.2-5.42
		c5.09-3.02,9.38-2.13,13.99,0.6c6.44,3.81,13.06,7.31,20.19,12.4c-1.16-3.46-2.57-5.51-4.3-7.3c-8.27-8.5-14.95-18.31-22.68-27.25
		c-0.54-0.63-1.04-1.31-1.47-2.02c-3.26-5.4-1.31-9.12,4.94-9.36c12.92-0.5,25.57,1.5,38.11,4.33c3.08,0.69,6.11,1.6,9.2,2.27
		c5.04,1.1,8.56,4.34,11.62,8.16c5.01,6.26,9.29,12.99,12.99,20.12c5.52,10.63,11.41,21.08,16.86,31.74
		c10.83,21.19,20.1,43.06,28.52,65.31c2.12,5.6,4.52,11.09,6.63,16.7c6.45,17.15,8.67,34.94,6.5,53.05
		c-1.79,14.93-5.45,29.46-13.18,42.66c-11.19,19.1-22.14,38.35-33.88,57.13c-6.64,10.63-24.07,21.03-41.4,16.38
		c-11.87-3.18-24.06-5.17-36.38-6.26c-8.61-0.76-17.16-2.24-25.79-2.91c-23.73-1.84-47.39-4.79-71.27-4.04
		c-4.63,0.15-8.51,1.2-12.53,3.81c-12.26,7.98-24.47,16.14-37.96,22.05c-0.57,0.25-0.98,0.84-2.1,1.83
		c6.4,4.52,12.63,8.84,18.34,14.59c5.38-4.1,11.17-7.27,17.01-10.35c10.46-5.5,20.81-11.24,31.83-15.54
		c8.06-3.15,16.45-5.34,25.21-5.5c5.54-0.1,9.31,2.28,11.97,7.32c3.72,7.07,7.54,14.06,10.45,21.51c1.51,3.87,1.08,5.88-2.59,7.86
		c-6.53,3.52-13.72,5.1-20.93,6.39c-16.89,3.01-33.82,5.69-50.98,6.69c-0.81,0.05-1.67-0.07-2.78,1.25
		c3.38,3.13,6.28,6.87,8.83,10.76c3.56,5.43,7.92,5.89,13.98,5.52c17.78-1.07,35.63-1.5,53.21,2.57c1.13,0.26,2.31,0.34,3.46,0.51
		c7.25,1.09,10.73,4.35,11.48,11.57c0.7,6.78,1.1,13.62,0.41,20.45c-0.57,5.64-2.32,7.5-7.95,7.37c-8.85-0.19-17.57-1.56-26.12-3.88
		c-4.45-1.2-9.09-1.47-13.3-3.31c-0.97,2.02,0.37,2.61,1.06,3.36c5.99,6.54,10.97,13.83,15.53,21.38c1.86,3.08,4.16,5.01,7.45,6.15
		c11.36,3.94,21.89,9.63,32.44,15.3c1.03,0.55,2.08,1.1,2.99,1.82c8.79,6.93,10.45,8.71,7.48,20.84c-1.07,4.36-2.15,8.73-3.97,12.85
		c-3.01,6.81-6.83,8.25-13.54,4.95c-3.75-1.84-7.07-4.38-10.32-7c-1.27-1.02-2.39-2.33-4.59-2.09c0.4,5.31,1.66,10.7,0.99,15.83
		c-1.12,8.52,2.91,13.81,8.54,19.26c22.23,21.51,48.39,36.15,77.65,45.61c0.44,0.14,0.93,0.13,1.39,0.19
		c0.85-1.61-0.51-2.17-1.26-2.86c-2.35-2.19-4.22-4.74-5.6-7.61c-1.51-3.14-0.36-4.8,3.16-4.67c2,0.07,3.86,0.86,5.73,1.61
		c10.09,4.04,19.33,9.69,28.74,15.03c1.59,0.9,3.11,1.94,4.73,2.8c5,2.66,9.01,1.37,11.92-3.51c10.78-18.05,22.21-35.63,37.76-50.08
		c1.31-1.22,2.45-2.76,4.7-3.11c2.83,2.78,2.87,6.47,2.61,10.06c-0.6,8.32-1.94,16.53-4.6,24.48c-1.52,4.54-2.87,9.13-4.38,13.98
		c3.2,0.58,5.7-0.78,8.27-1.65c6.99-2.37,13.1-6.51,19.61-9.83c2.05-1.05,3.92-1.74,6.47-0.26c-0.2,4.64-2.94,8.26-5.74,11.58
		c-11.56,13.74-25.91,23.7-42.16,31.28c-16.67,7.76-34.16,12.18-52.31,14.13c-10.3,1.11-20.65,0.45-30.91-0.91
		c-2.62-0.35-4.13,0.32-6.01,2.2c-8.23,8.24-17.36,15.4-27.93,20.48c-2.84,1.37-6.09,2.53-9.16,2.06c-4.63-0.7-8.9,0.43-13.28,1.24
		c-0.98,0.18-1.99,0.2-2.98,0.29c-9.04,0.88-15.42-1.99-19.19-11.07c-3.51-8.44-7.87-16.53-10.1-25.46c-0.7-2.8-2.66-3.74-4.89-4.38
		c-17.58-5-33.76-13.19-49.77-21.78c-12.35-6.63-23.78-14.73-35.47-22.4c-8.8-5.77-17.95-9.2-28.52-8.52
		c-2.82,0.18-4.87,1-4.69,4.41c0.1,1.99-0.17,4-0.07,5.99c0.28,5.32,2.13,9.78,7.43,11.95c5.89,2.42,9.19,7.03,12.32,12.41
		c8.96,15.4,18.32,30.57,29.1,44.8c1.91,2.52,3.67,5.16,5.34,7.84c3.46,5.53,2.92,10.11-1.8,14.65c-1.42,1.37-3.17,2.42-4.8,3.55
		c-3.4,2.36-6.72,4.95-10.11,7.15c-7.92,5.15-16.86,7.89-26.54,5.36c-2.59-0.67-5.17-1.3-7.82-1.54
		c-6.41-0.58-10.59-3.74-13.37-9.65c-5.23-11.13-8.56-22.56-8.89-34.98c-0.32-11.93-4.34-23.15-8.03-34.38
		c-0.7-2.14-1.8-3.34-4.37-2.96c-9.83,1.45-19.57-0.06-29.28-1.28c-10.25-1.29-19.57-5.42-28.18-10.95
		c-13.53-8.7-24.29-19.91-28.34-35.96c-3.14-12.42-5.68-25.05-4.45-38.02c0.63-6.65,2.61-13.03,4.54-19.39
		c1.7-5.57,3.24-11.23,5.47-16.59c2.49-5.99,2.33-11.6,0.52-17.78c-3.13-10.7-5.04-21.74-6.6-32.78c-0.7-5-2.81-8.4-7.42-10.26
		c-2.61-1.05-5.22-2.13-7.91-2.98c-5.05-1.59-9.55-0.71-14.24,2.09c-10.18,6.08-19.57,13.21-29.04,20.28
		c-3.12,2.33-5.96,5.04-7.87,8.3c-4.44,7.55-11.45,11.54-19.17,14.32c-16.18,5.83-31.17,14.16-46.62,21.54
		c-18.2,8.69-33.67,21.42-49.53,33.56c-5.82,4.45-11.63,8.96-17.11,13.82c-5.22,4.63-9.88,9.9-15.02,14.62
		c-8.19,7.53-15.61,15.97-25.5,21.56c-2.44,1.38-4.78,2.17-7.48,2.28c-11.24,0.46-22.22-1.6-33.23-3.37
		c-11.27-1.81-17.59-9.29-21.63-19.2c-1.94-4.74-2.01-4.83-6.76-3.13c-8.47,3.02-17.03,5.74-25.71,8.11c-6.61,1.8-11.53,0-15-5.64
		c-6.11-9.92-12.1-19.92-17.53-30.23c-0.62-1.17-1.11-2.43-1.46-3.7c-1.27-4.58-0.5-6.08,4.04-7.32c6.74-1.85,13.6-3.15,20.52-4.2
		c11.55-1.75,22.72-5.05,33.9-8.31C91.09,473.59,91.8,473.36,91.86,472.29z"/>
</g>
</svg>
