<?xml version="1.0" encoding="utf-8"?>
<!-- Generator: Adobe Illustrator 24.0.2, SVG Export Plug-In . SVG Version: 6.00 Build 0)  -->
<svg version="1.1" id="Layer_1" xmlns="http://www.w3.org/2000/svg" xmlns:xlink="http://www.w3.org/1999/xlink" x="0px" y="0px"
	 viewBox="0 0 714.63 860.15" style="enable-background:new 0 0 714.63 860.15;" xml:space="preserve">
<g>
	<path d="M364.94,617.55c-27.14,20.6-56.34,23.65-88.12,14.03c-1.17,6.28-4.67,11.19-6.39,16.95c-1.91,6.39-5.74,11.98-8.97,17.76
		c-5.35,9.58-10.69,19.2-17.1,28.16c-1.85,2.59-3.83,5.08-6.08,7.26c-3.3,3.2-7.2,4.98-12.07,5.12c-10.53,0.3-21.22,0.7-31.05-3.27
		c-15.12-6.11-29.71-13.27-41.36-25.4c-8.74-9.1-11.23-19.27-7.8-31.12c1.57-5.43,3.15-10.85,5.14-16.17
		c1.89-5.03,2.01-10.26-0.67-15.4c-2.81-5.39-5.77-10.62-5.68-17.27c0.06-4.04,0.6-7.48,2.55-10.87
		c5.72-9.95,11.42-19.9,17.08-29.88c3.4-6,8.21-10.87,12.72-15.97c3.19-3.62,6.54-7.1,9.93-10.53c1.54-1.56,1.92-2.96,0.55-4.79
		c-2.68-3.58-3.47-7.93-4.44-12.11c-1.75-7.56,0.58-14.13,5.87-19.69c2.96-3.12,6.77-2.61,10.32-1.81c4.56,1.03,9.1,1.91,13.78,2.13
		c6.79,0.32,12.66-1.64,17.82-6.2c9.37-8.28,18.39-16.89,26.57-26.37c2.54-2.94,4.02-6.32,5.73-9.75c4.7-9.45,6.18-19.63,8.24-29.73
		c0.92-4.51,2.81-9-0.22-13.68c-6.08,0.36-11.86,2.59-17.78,4.07c-10.8,2.7-21.55,5.61-31.86,9.99c-7.07,3-14.71,4.26-22.22,5.71
		c-6.72,1.3-12.53-0.72-17.01-6.06c-8.36-9.96-11.98-21.3-9.98-34.29c0.3-1.96,0.38-3.95,0.55-5.85c-1.27-1.94-3.13-1.99-4.96-1.83
		c-10.92,0.99-21.83,1.95-32.83,1.28c-6.66-0.4-12.88-2.21-18.26-5.99c-3.23-2.27-6.43-3.24-10.21-3.02
		c-21.04,1.21-39.04-6.4-55.3-19.07c-0.79-0.62-1.45-1.28-2.56-1.33c-8.82-0.42-16.97-3.56-24.7-7.31c-6.36-3.09-12.4-7.2-17-12.8
		c-4.6-5.6-6.27-12.48-6.9-19.49c-0.51-5.62-0.19-11.32-0.22-16.98c0-0.5-0.06-1.04,0.1-1.49c3.82-10.91,4.95-22.86,12.34-32.41
		c2.26-2.92,5.19-5.13,8.22-7.19c2.65-1.8,4.72-4.02,6.59-6.68c4.67-6.66,7.74-14.36,13.27-20.44c3.46-3.81,7.28-7.27,10.81-11.03
		c2.32-2.46,6-2.94,9.23-3.44c15.09-2.35,25.16-11.62,34.07-23.19c6.64-8.62,15.63-13.83,26.95-13.96
		c4.32-0.05,8.61,0.34,12.93,0.72c6.71,0.59,13.13-1.41,19.57-3.21c9.07-2.54,15.25-9.9,23.58-13.6c7.12-3.17,13.78-7.4,21.27-9.68
		c7.44-2.27,14.71-0.91,21.02,3.36c7.56,5.11,15.29,9.94,22.41,15.76c6.95,5.68,14.37,10.76,20.41,17.51
		c3.93,4.39,6.61,9.56,9.37,14.68c0.62,1.16,0.67,2.52,0.62,3.9c-0.3,9.16,4.47,15.65,11.34,20.91c5.96,4.56,12.77,7.77,19.12,11.71
		c2.16,1.34,3.77,0.47,5.54-0.5c1.88-1.03,1.6-2.67,1.28-4.37c-0.86-4.54-2.86-8.77-2.74-13.62c0.2-8.17,1.93-15.9,5.67-23.06
		c6.23-11.94,11.56-24.39,19.07-35.62c6.57-9.82,12.56-20,18.75-30.04c5.25-8.53,10.67-16.94,16.98-24.62
		c4.53-5.52,6.05-12.04,8.71-18.22c5.44-12.66,10.73-25.38,16.48-37.91c4.19-9.12,9.11-17.72,15.15-25.62
		c5.62-7.34,13.29-12.3,21.1-17.14c3.7-2.29,7.69-2.72,11.52-4.05c1.77-0.62,3.69-0.41,5.43,0.14c8.32,2.66,16.08,6.32,22.22,12.81
		c3.02,3.19,4,3.21,7.51,0.48c5.77-4.5,10.82-9.83,17.01-13.87c7.08-4.62,12.92-3.64,19.27,1.02c10.71,7.86,17.27,19.28,25.1,29.58
		c2.2,2.9,2.51,7.17,6.22,9.48c6.75-4.67,14.46-7.29,22.03-10.2c6.86-2.63,12.35-0.6,15.63,5.61
		c10.63,20.12,15.36,41.78,16.07,64.32c0.44,13.8-0.05,27.63-2.25,41.31c-0.9,5.57-1.95,11.18-3.66,16.54
		c-1.89,5.89-1.37,11.43,0.57,17.05c3.23,9.35,2.6,19.02,2.68,28.69c0.1,12.66-3.05,24.71-6.04,36.83
		c-0.43,1.76-1.29,3.45-1.01,5.68c7.17,4.36,13.94,9.63,22.56,11.91c7.75,2.05,14.48,5.74,19.72,12.61
		c9.1,11.93,20.55,21.78,31.11,32.42c5.77,5.81,12.08,10.29,19.56,13.4c2.97,1.24,6.14,1.47,9.18,2.33
		c5.87,1.66,9.95,4.85,12.06,10.8c2.16,6.1,4.7,12.1,7.44,17.96c2.86,6.13,3.98,12.4,2.39,18.95c-2.1,8.63-0.42,16.89,2.23,25.01
		c1.05,3.22,1.14,6.12-0.03,9.21c-1.59,4.21-3.12,8.43-5.37,12.36c-1.15,2.01-1.99,4.09-2.17,6.54c-0.27,3.71-2.29,6.45-5.74,8.16
		c-6.49,3.23-13.22,5.41-20.55,5.27c-7.46-0.14-14.37,2.47-21.43,4.28c-4.67,1.2-9.14,1.67-13.44-1.08c-0.86-0.55-1.89-1-2.85-0.66
		c-3.37,1.21-6.55-0.22-9.82-0.47c-5.26-0.41-8.72-3.69-12.27-7c-2.88-2.68-2.25-6.2-2.07-9.4c0.16-2.86-0.54-4.73-2.98-6.21
		c-4.64-2.8-5.89-7.88-7.93-12.39c-2.26-5-3.7-9.57-1.45-15.6c1.73-4.64,1.56-10.34,2.58-15.54c0.54-2.75-0.73-5.08-2.83-7.1
		c-6.75-6.49-14.1-12.32-21.84-17.42c-5.88-3.88-12.9-6.02-19.43-8.89c-1.09-0.48-2.24-0.48-3.33,0.27
		c-10.8,7.48-22.33,6.17-33.98,2.68c-10.35-3.11-20.9-3.8-31.63-3.4c-3.16,0.12-5.41,1.3-7.17,3.73c-1.17,1.62-2.39,3.21-3.4,4.92
		c-3.55,6.01-6.81,12.16-11.52,17.47c-2.42,2.73-2.98,6.54-3.19,10.29c-0.44,7.9,1.54,15.53,3.18,23.04
		c1.99,9.1,3.55,18.29,5.57,27.39c4.97,22.4,8.32,45.14,13.89,67.4c3.36,13.44,5.52,27,6.9,40.78c1.11,11.07,2.59,22.15,2.49,33.24
		c-0.19,21.19-2.49,42.18-8.22,62.71c-2.23,8.01-4.24,16.08-7.11,23.9c-4.95,13.48-11.73,26.04-19.24,38.25
		c-4.99,8.12-10.56,15.73-17.04,22.72c-2.96,3.19-4.76,7.22-6.88,10.99c-4.97,8.83-10.45,17.34-16.09,25.75
		c-5.5,8.22-8.85,17.51-12.9,26.44c-0.82,1.82-0.87,3.72-0.2,5.81c4.01,12.42,8.95,24.31,17.26,34.62
		c3.72,4.62,4.77,10.29,3.62,16.11c-0.8,4.07-2.11,8.04-3.3,12.03c-0.74,2.48-2.99,3.48-5.07,4.53c-7.17,3.62-14.72,5.75-22.65,7.39
		c-17.38,3.6-34.82,2.82-52.25,2.09c-11.44-0.48-22.79-2.17-33.99-4.97c-5.47-1.37-10.97-2.5-16.37-4.26
		c-5.35-1.75-9.09-4.85-10.62-10.23c-1.62-5.69-4.12-11.08-4.74-17.14c-0.35-3.51,1.58-6.01,2.13-9.06
		c2.42-13.31,6.25-26.21,11.88-38.55c3.19-7,7.2-13.53,11.59-19.8c7.26-10.38,12.61-21.93,19.97-32.23
		c10.3-14.41,17.92-30.34,26.36-45.81c1.9-3.48,3.27-7.3,4.45-11.09c3.56-11.42,7.73-22.66,8.82-34.75
		C372.01,625.41,369.21,621.41,364.94,617.55z"/>
</g>
</svg>
