<?xml version="1.0" encoding="utf-8"?>
<!-- Generator: Adobe Illustrator 24.0.2, SVG Export Plug-In . SVG Version: 6.00 Build 0)  -->
<svg version="1.1" id="Layer_1" xmlns="http://www.w3.org/2000/svg" xmlns:xlink="http://www.w3.org/1999/xlink" x="0px" y="0px"
	 width="771.37" height="861.19" viewBox="0 0 771.37 861.19" style="enable-background:new 0 0 771.37 861.19;" xml:space="preserve">
<g>
	<path d="M188.15,704.94c-6.57,1.97-12.01,5.1-17.25,8.62c-2.24,1.51-4.73,2.48-7.21,3.42c-4.39,1.66-6.49,0.04-5.86-4.6
		c0.61-4.48,1.94-8.83,4.23-12.72c4.83-8.2,7.19-17.5,11.93-25.78c1.81-3.17,2.23-7.19,1.37-11.39
		c-2.63-12.87-4.77-25.85-5.26-39.04c-0.13-3.49-1.12-6.9-0.73-10.44c0.2-1.78-1.15-2.69-2.53-3.35c-2.85-1.37-5.63-2.98-8.62-3.93
		c-14.87-4.76-28.36-12.27-41.63-20.29c-24.41-14.76-44.41-34.38-62.19-56.42c-3.11-3.86-6.27-7.76-8.24-12.44
		c-0.71-1.68-1.71-3.36-3.49-4.1c-4.28-1.78-8.44-3.77-12.63-6.88c-3.64,7.47-4.33,14.86-4.29,22.3
		c0.08,13.15,3.39,25.75,7.62,38.04c6.01,17.46,13.01,34.56,20.16,51.57c3.66,8.73,8.7,16.88,12.44,25.58
		c5.92,13.77,13.59,26.69,19.39,40.48c4.83,11.48,8.83,23.26,12.13,35.36c3.49,12.79,5.39,25.71,6.56,38.8
		c1.06,11.82-1.61,23.04-5.56,34.16c-3.6,10.13-9.32,18.69-16.75,26.25c-1.77,1.8-3.88,3.22-6.46,3.52
		c-3.42,0.39-5.06-1.73-3.95-4.92c0.16-0.47,0.37-0.94,0.66-1.34c12.69-17.59,14.22-38.08,14.55-58.62c0.2-12.65-3-24.99-6.6-37.17
		c-5.91-19.96-14.04-39.01-22.01-58.2c-6.56-15.81-16.54-29.58-24.03-44.77c-4.02-8.16-8.5-16.02-11.97-24.56
		c-3.97-9.76-6.72-19.83-9.99-29.75c-2.01-6.09-3.31-12.58-3.32-19.12c-0.03-11.31-0.17-22.64,0.21-33.94
		c0.78-22.98,9.39-42.84,25.77-58.85c4.19-4.09,5.08-7.39,4.12-12.76c-3.1-17.35-4.63-34.99-9.95-51.93
		c-1.3-4.15-3.16-8.04-4.95-11.97c-0.78-1.72-2.1-2.32-3.86-2.69c-7.12-1.5-13.14-4.64-16.48-11.59c-0.41-0.86-1.09-1.54-1.82-2.24
		c-1.95-1.87-2.29-6.51-0.6-8.21c3.85-3.86,6.79-8.51,10.92-12.18c3.32-2.95,6.79-5.35,11.02-6.56c3.08-0.88,5.35-2.62,6.83-5.42
		c2.41-4.56,4.52-9.3,7.23-13.67c7.06-11.37,16.04-21.16,25.59-30.49c6.11-5.96,12.35-11.66,20.07-15.5
		c0.59-0.29,1.15-0.7,1.63-1.15c13.97-12.9,31.08-20.47,48.27-27.6c15.8-6.56,32.23-11.24,49.19-14.31
		c9.84-1.78,19.71-3.07,29.6-4.3c3.72-0.46,5.94-2.04,8.01-4.97c3.61-5.13,6.46-10.82,11.73-14.77c4.04-3.03,8.32-5.49,12.83-7.64
		c1.56-0.75,3.16-0.73,4.87-0.43c2.08,0.37,4.18,1.14,6.78,0.28c-0.63-4.01-1.21-8.03-1.89-12.03c-2.48-14.6-4.61-29.27-7.37-43.79
		c-2.43-12.79-3.96-25.58-4.66-38.51c-0.55-10.27,0.27-20.53,1.25-30.69c2.87-1.34,5-1.02,7.15,0.9c10.6,9.49,19.89,20.18,27.7,32
		c7.52,11.38,15.4,22.51,22.98,33.84c2.14,3.2,4.28,3.12,6.42-0.54c4.88-8.33,10.94-15.85,16.14-23.97
		c6.47-10.09,13.84-19.56,21.15-29.07c8.11-10.55,15.78-21.46,24.18-31.78c12.27-15.09,24.65-30.12,38.63-43.72
		c1.63-1.58,3.4-3.93,5.93-2.54c2.24,1.24,3.57,3.27,4.03,6.34c2.07,13.69,1.21,27.54,2.57,41.27c0.75,7.54,0.25,15.3,0.65,22.89
		c0.62,11.64-0.14,23.27,0.51,34.87c0.21,3.71-0.45,7.29-0.82,10.85c-0.45,4.28-0.01,8.55-0.19,12.78
		c-0.38,9.14-1.16,18.24-1.69,27.37c-0.03,0.46,0.22,0.93,0.34,1.43c2.41,1.08,4.62-0.23,6.87-0.4c17.42-1.27,34.86-1.54,52.32-1.03
		c6.46,0.19,12.94-0.86,19.4,0.64c4.08,0.95,5.49,2.71,3.64,6.6c-3.65,7.65-7.5,15.15-13.27,21.59c-7.55,8.43-14.28,17.61-22,25.87
		c-9.19,9.84-18.41,19.66-27.91,29.21c-8.46,8.5-18.34,15.37-26.37,24.39c0.73,1.85,2.62,2.51,4.1,3.32
		c11.46,6.3,21.35,14.67,31.02,23.31c10.3,9.22,20.47,18.67,28.83,29.7c8.03,10.59,15.5,21.61,23.64,32.13
		c7.59,9.8,13.19,20.76,19.2,31.5c1.43,2.55,1.23,5.51,2.58,8.04c4.77,8.98,7.9,18.57,10.71,28.3c1.24,4.29,3.04,8.42,4.68,12.59
		c1.2,3.03,2.52,3.49,5.31,1.97c0.87-0.47,1.72-1.07,2.39-1.79c10.81-11.64,23.07-21.58,36.21-30.38
		c7.44-4.98,15.19-9.45,23.26-13.48c7.38-3.68,14.18-8.65,21.64-12.31c20.03-9.83,40.27-18.86,62.34-23.67
		c17.45-3.8,34.95-6.54,52.71-7.34c8.44-0.38,16.94,0.61,25.41,0.98c1.54,0.07,2.99,0.54,4.24,1.37c2.24,1.49,2.39,4.74,0.22,6.3
		c-2.83,2.04-5.76,3.84-9.46,4.12c-5.92,0.44-9.77,3.88-11.78,9.28c-2.61,7.01-4.49,14.19-5.67,21.64
		c-1.5,9.46-2.21,19.05-5.31,28.29c-1.99,5.94-2.41,12.4-3.85,18.55c-4.41,18.88-13.97,34.97-26.23,49.86
		c-9.55,11.61-20.51,21.85-30.37,33.14c-14.75,16.89-21.71,36.88-23.47,58.74c-0.74,9.21,0.35,18.58,0.92,27.86
		c0.24,3.88-0.64,7.62-0.68,11.44c-0.21,17.57-4.63,34.05-12.79,49.61c-5.9,11.26-14.49,20.28-23.74,28.66
		c-7.33,6.65-14.02,13.8-19.42,22.05c-2.06,3.15-3.19,6.92-4.76,10.4c-0.65,1.44,0.13,2.58,0.74,3.75c1.38,2.66,2.97,5.23,4.12,7.98
		c1.76,4.18-0.21,6.81-4.71,6.88c-6.76,0.09-11.77-2.55-16.49-7.64c-9.65-10.4-19.04-20.94-26.77-32.86
		c-12.7-19.59-23.01-40.38-32.01-61.94c-6.82-16.34-11.64-33.24-16.52-50.17c-1.73-5.99-0.89-12.3-2.51-18.28
		c-0.3-1.11-0.19-2.3-0.77-3.38c-2.17-4.06-4.41-5.04-7.84-1.98c-6.53,5.82-14.66,9.17-21.33,14.69c-5.33,4.41-11.9,6.6-17.98,9.65
		c-8.9,4.46-17.91,8.58-27.44,11.8c-6.51,2.2-12.59,6.37-19.42,7.6c-11.62,2.09-22.8,6.04-34.58,7.4
		c-9.18,1.06-18.27,2.92-27.34,4.42c-0.36,1.74,0.88,2.27,1.68,2.97c11.22,9.8,20.79,21.05,29.6,33.05
		c4.62,6.29,10.21,11.84,14.62,18.35c8.88,13.08,17.93,26.04,26.86,39.09c2.63,3.84,4.94,7.92,7.7,11.67
		c3.86,5.23,5.44,11.24,6.92,17.31c-1.83,1.96-4.03,1.72-6.17,1.61c-9.74-0.53-19.08-3.08-28.21-6.2
		c-4.29-1.47-8.88-1.61-12.98-3.36c-10.76-4.59-22.35-6.39-33.28-10.34c-1.72-0.62-3.43-1.25-5.12-1.95
		c-4.23-1.77-6.13-1.02-7.33,3.54c-3.42,13.03-8.46,25.56-11.87,38.59c-0.6,2.28-1.45,4.37-3.23,6.27
		c-6.57-3.1-11.96-7.57-16.07-13.21c-6.49-8.92-14.1-16.81-21.25-25.13c-8.89-10.35-17.48-20.95-26.2-31.44
		c-0.43-0.51-0.78-1.09-1.7-1.13c-0.28,0.22-0.78,0.44-0.99,0.82c-6.26,11.17-13.4,21.82-19.27,33.21c-1.08,2.1-1.06,3.48,0.09,5.43
		c7.15,12.21,14.17,24.49,23.98,34.86c8.25,8.72,17.23,16.64,26.72,23.96c9.2,7.1,18.37,14.24,27.96,20.85
		c5.67,3.91,11.62,7.28,17.76,10.07c11.04,5.01,22.19,9.89,33.96,13.08c0.95,0.26,1.93,0.62,2.71,1.19c1.68,1.24,4.41,2,4.13,4.54
		c-0.27,2.51-2.65,3.87-4.85,4.56c-3.15,0.99-6.45,2.14-9.79,1.6c-15.43-2.49-31.12-4.25-45.48-10.8
		c-11.49-5.24-22.72-11.22-32.74-19.04c-13.93-10.88-27.35-22.4-38.86-35.84c-11.47-13.38-22.81-26.94-30.01-43.36
		c-2.19-5-5.81-9.29-8.33-14.19C197.82,727.15,192.55,716.41,188.15,704.94z M193.66,617.1c-0.66,5.36,0.81,10,1.59,14.68
		c0.21,1.27,1.22,2.44,2.72,2.6c1.46,0.16,1.99-1.02,2.4-2.12c0.65-1.78,1.81-3.21,3.11-4.47c2.89-2.8,3.05-5.65,0.47-8.91
		C200.66,618.97,197.6,617.38,193.66,617.1z"/>
</g>
</svg>
