<?xml version="1.0" encoding="utf-8"?>
<!-- Generator: Adobe Illustrator 24.0.2, SVG Export Plug-In . SVG Version: 6.00 Build 0)  -->
<svg version="1.1" id="Layer_1" xmlns="http://www.w3.org/2000/svg" xmlns:xlink="http://www.w3.org/1999/xlink" x="0px" y="0px"
	 viewBox="0 0 860.24 839.18" style="enable-background:new 0 0 860.24 839.18;" xml:space="preserve">
<g>
	<path d="M309.16,839.18c-4.95-5.54-9.03-10.49-9.81-17.37c-0.32-2.85-2.08-5.25-3.24-7.82c-1.28-2.84-4.27-2.4-6.55-2.44
		c-14.96-0.29-29.93-0.34-44.9-0.49c-1.49-0.02-3.14,0.16-4.44-0.4c-4.56-1.96-8.54-0.96-12.76,1.26
		c-6.33,3.32-12.89,6.2-19.41,9.14c-5.39,2.43-7.59,0.72-7.48-5.25c0.15-8.73,3.47-16.46,7.24-24.06c2.12-4.29,4.11-8.21,2.89-13.57
		c-1.58-6.92,1.22-13.42,4.76-19.43c4.09-6.95,9.46-12.85,15.16-18.49c6.84-6.76,13.63-13.57,20.96-20.88
		c-6.94-2.43-12.97-5.07-19.01-7.71c-17.96-7.85-36.41-14.81-52.35-26.54c-8.16-6.01-15.91-12.58-22.83-20.11
		c-4.94-5.38-10.45-10.21-15.19-15.82c-5.74-6.79-10.22-14.37-14.49-22.08c-9.9-17.9-20.82-35.26-28.99-54.08
		c-1.72-3.97-3.34-7.99-4.73-12.08c-0.85-2.5-2.24-3.32-4.8-3.21c-4.45,0.18-8.33,2.26-12.46,3.46
		c-11.49,3.33-21.96,2.73-30.92-6.46c-3.26-3.35-6.57-6.63-9.36-10.36c-1.87-2.5-3.57-5.09-4.58-8.22
		c-2.56-7.97-1.17-15.46,3.42-21.86c4.47-6.24,5.19-12.8,4.59-19.87c-0.62-7.31-1.82-14.52-4.16-21.51
		c-1.94-5.79-5.49-9.63-11.7-11.08c-5.03-1.18-9.59-3.71-14.08-6.3c-5.68-3.27-8.84-8.43-9.52-14.52
		c-1.46-13.07,0.49-25.42,8.99-36.28c4.95-6.34,6.88-13.98,6.07-22.09c-0.31-3.14-0.97-6.25-1.57-9.35c-0.35-1.8-1-3.53-1.33-5.33
		c-1.03-5.46,0.64-7.64,6.21-8.17c2.05-8.1-2.91-15.55-2.44-23.71c3.93,2.24,5.88,5.85,7.6,9.44c4.24,8.84,7.97,17.93,12.3,26.73
		c3.87,7.88,9.36,14.84,13.21,23.24c3.13-2.59,3.84-6.03,6.09-8.39c1.49-1.57,2.68-3.52,4.69-4.4c8.18-3.59,11.3-10.86,13.82-18.6
		c0.31-0.94,0.23-2.02,1.45-2.5c1.88,0.05,2.32,1.48,2.61,2.99c0.82,4.24,1.56,8.37,0.49,12.82c-1.03,4.26-1.16,8.79-0.16,13.16
		c2.7,0.52,4.04-2.99,6.74-1.64c1.22,1.9,0.1,3.84-0.1,5.74c-0.61,5.63-1.21,11.21-0.01,16.88c2.14,10.15,9.8,15.45,17.66,20.61
		c1.81,1.19,3.68,2.29,5.59,3.3c7.44,3.91,11.98,10.45,13.81,18.16c1.87,7.85-0.41,15.46-5.73,21.82c-1.72,2.05-3.15,4.13-4.1,6.74
		c-2.62,7.21,0.91,11.81,6.26,15.53c4.15,2.89,7.69,6.36,11.04,10.06c5.94,6.57,5.95,17.72,0.07,24.18
		c-3.53,3.88-8.36,4.56-13.2,5.01c-5,0.46-8.95,2.37-11.08,7.23c-1.71,3.92-1.83,7.5,0.88,11.21c6.82,9.29,14.92,17.47,22.25,26.3
		c15.84,19.06,36.27,31.98,57.35,44.28c15.58,9.09,32.33,14.93,49.56,19.48c14.68,3.88,29.74,5.46,44.98,4.52
		c1.99-0.12,3.99,0.01,5.98-0.03c5.09-0.09,6.84-2.98,4.41-7.51c-1.65-3.08-3.22-6.18-4.67-9.37c-4.82-10.62-5.36-22.25-8.19-33.34
		c-1.86-7.31-1.01-14.26,0.52-21.59c2.09-9.98,5.53-19.47,8.37-29.18c0.95-3.26,2.71-6.05,4.6-8.8c1.02-1.48,2.49-2.73,2.57-4.21
		c-10.43-12.33-22.26-22.78-32.84-34.44c-2.23-2.46-4.66-4.75-7.06-7.06c-1.75-1.68-2.66-3.44-1.02-5.69c1.43-1.96,3-2.37,5.58-1.74
		c8.55,2.09,17.35,2.99,25.94,5.02c13.28,3.14,26.71,5.72,39.89,9.24c6.85,1.83,12.36-0.23,17.91-3.38
		c1.87-1.06,1.93-2.64,0.12-3.97c-14.73-10.85-28.82-22.6-45.01-31.41c-6.86-3.73-13.34-8.15-20.03-12.18
		c-1.37-0.82-2.53-2.23-4.43-1.98c-1.41,1.68,1.02,3.53-0.42,5.34c-0.96,0.78-1.98,0.39-2.95-0.42c-0.38-0.32-0.79-0.64-1.09-1.03
		c-5.94-7.96-13.06-6.65-20.55-2.67c-1.17,0.62-2.38,1.14-3.73,1.79c-4.62-3.16-9.65-5.89-12.33-11.22c-1-2-2.46-1.67-4.22-1.27
		c-11.53,2.6-23.23,4.11-35.01,4.92c-0.83,0.06-1.74,0.26-2.49,0.01c-9.95-3.4-18.62,2.38-27.84,3.98
		c-4.88,0.85-9.68,2.46-14.18,4.73c-1.27,0.64-2.58,0.87-3.56-0.5c-0.92-1.29,0.24-2.09,0.77-3.08c3.94-7.44,7.65-15,13.01-21.33
		c-1.26-2.19-2.76-2.69-4.52-2.42c-11.24,1.71-22.59,0.96-33.88,1.47c-1.66,0.08-3.51,0.46-4.3-1.55c-0.82-2.07,0.49-3.4,1.92-4.69
		c6.5-5.84,13.87-10.34,21.7-14.11c4.03-1.94,7.8-4.5,12.39-5.1c1-0.13,1.95-0.54,2.32-2.03c-0.61-2.2-2.79-2.58-4.79-3.36
		c-8.85-3.41-17.77-6.67-26.15-11.16c-2.27-1.22-5.89-2.06-5.52-5.03c0.41-3.26,4.34-3.13,6.91-3.73
		c11.45-2.68,23.12-2.65,34.76-1.91c4.95,0.32,8.8-1.01,11.75-5.36c-1.37-2.2-3.27-4.05-5.28-5.71c-5.13-4.24-9.75-9.07-15.21-12.92
		c-1.08-0.76-1.98-1.78-3.02-2.62c-1.51-1.21-1.82-2.78-1.25-4.49c0.6-1.78,2.27-1.76,3.76-1.81c7.42-0.24,14.65,1.06,21.59,3.48
		c9.25,3.23,18.9,5.31,27.73,9.72c1.57,0.78,3.14,0.87,4.84,0.82c7.9-0.25,15.66,0.86,23.13,3.33c2.95,0.98,4.75,0.39,6.47-1.84
		c2.53-3.3,5.16-6.53,7.63-9.87c3.64-4.93,8.58-3.14,13.18-2.51c2.44,0.34,4.89,1.14,7.15,2.15c3.06,1.37,4.89,0.49,6.62-2.21
		c1.8-2.82,3.44-6.27,9.01-4.53c-5.01-5.23-9.69-8.96-13.22-13.78c-2.88-3.94-3.02-4.89-0.58-8.92c2.03-3.35,4.33-4.49,8.46-3.31
		c4.95,1.41,9.73,3.42,14.65,4.99c11.87,3.8,23.72,7.69,35.7,11.15c5.58,1.61,11.61,0.59,17.33,1.95c1.35,0.32,1.97-0.91,2.51-2
		c0.88-1.79,1.81-3.56,2.76-5.31c1.28-2.35,2.91-4.06,5.96-3.34c2.02,0.47,3.44-0.36,4.66-2.05c1.36-1.87,2.98-3.58,4.59-5.25
		c1.71-1.77,1.8-3.38,0.07-5.19c-10.61-11.05-20.51-22.76-31.34-33.61c-7.88-7.9-15.71-15.85-22.63-24.63
		c-0.1-0.13-0.21-0.26-0.31-0.39c-2.38-3.11-3.23-7.28-1.42-9.21c2.34-2.49,5.67-3.26,8.75-2.18c7.39,2.59,15.06,4.23,22.47,6.7
		c19.53,6.53,39.31,12.18,59.87,16.86c-3.11-4.33-4.25-9.17-4.79-14.22c-0.14-1.32-1.54-1.57-2.61-2.03
		c-11.32-4.89-20.34-12.82-27.5-22.55c-6.91-9.39-8.89-20.17-5.84-31.74c2.23-8.46,5.81-16.06,10.71-23.41
		c7.49-11.23,18.13-17.68,30.33-21.45c7.12-2.2,10.92-7.18,15.01-12.32c1.84-2.31,1.62-5.39,1.68-8.2c0.05-2.63-2.11-3.61-4.18-4.36
		c-4.06-1.48-8.18-2.81-12.25-4.26c-3.15-1.12-6.21-2.45-8.83-4.59c-7.15-5.83-9.45-12.91-3.01-21.24
		c4.43-5.74,10.31-9.31,16.9-11.95c7.08-2.84,14.57-4.72,21.07-8.9c1.39-0.9,2.76-1.88,3.96-3.01c2.19-2.06,2.68-4.03,0.67-6.93
		c-3.33-4.82-6.9-9.38-10.92-13.62c-1.29-1.36-2.56-2.68-1.38-5.22c2.33-0.4,4.94-0.81,7.53-1.3c5.03-0.95,5.68-1.93,4.16-6.71
		c-1.66-5.23-3.25-10.5-6.07-15.29c-0.58-0.99-1.14-2.05-0.56-3.88c19.63,3.19,34.52,14.09,47.44,28.99
		c2.99-2.41,4.99-6.41,10.09-7.48c-3.15,9.99,2.25,17.92,4.83,26.37c2.91,9.53-0.21,15.96-9.79,18.63
		c-3.01,0.84-6.24,1.37-8.48,3.89c-4.72,5.31-3.18,13.05,3.5,17.45c2.11-1.43,2.47-4.3,4.53-5.77c1.87-1.34,3.03-3.55,5.47-4.5
		c2.22,1.25,1.97,3.12,1.32,5.12c-2.78,8.64-1.1,17.43-1.23,25.94c2.08,1.35,3.29-1.46,5.28-0.11c0.42,3.14,1.11,6.54,1.27,9.96
		c0.16,3.26,1.51,6.13,2.39,9.14c0.72,2.48,2.6,4.23,5.24,3.59c8.97-2.2,18.56-3.19,24.47-11.86c1.31-1.93,1.85-3.53,1.28-5.95
		c-1.78-7.61-2.82-15.36-3.47-23.17c-1.01-12.08,6.81-16.11,17.22-15.7c5.18,0.2,10.29-0.11,15.32-1.23
		c4.84-1.08,7.18-4.55,7.91-9.21c0.61-3.85,0.17-7.66-0.9-11.38c-1.7-5.95-2.48-12.05-3.24-18.16c-0.76-6.07,3.91-15.38,11.84-17.07
		c12.12-2.58,17.6-10.96,20.1-22.17c0.72-3.23,1.54-6.43,2.45-10.23c5.34,10.79,13.46,19.52,15.36,31.8c3.7-2.38,4.31-7.1,8.15-8.06
		c1.15,0.36,1.18,1.08,1.01,1.69c-3.11,11.18-0.56,21.92,3.26,32.27c3.6,9.76,0.84,17.19-6.38,23.7c-1.61,1.45-3.35,2.75-5.02,4.12
		c-4.35,3.56-5.25,7.07-2.87,12.35c2.71,6.02,7.21,10.74,11.64,15.5c3.52,3.78,7.04,7.48,9.04,12.43c3.6,8.89,1.72,15.15-6.62,19.87
		c-5.49,3.1-11.49,5.25-16.22,9.68c-4.08,3.82-4.53,4.33-2.58,9.45c2.4,6.3,2.27,11.94-2.72,17.07c-2.33,2.4-1.01,5.48-0.16,8
		c1.31,3.88,3.87,7.18,4.32,11.58c0.41,4.04,2.12,7.96,1.39,13.21c9.74-4.63,18.72-8.61,29.98-9.92
		c-4.11,6.05-6.49,11.65-9.58,16.89c-1.95,3.29-4.09,6.45-5.84,9.88c-2.12,4.17-2.91,8.12,0.13,12.16c0.36,0.48,0.37,1.23,0.52,1.77
		c-1.48,1.9-3.43,1.31-5.2,1.36c-7.22,0.19-10.72,3.08-11.79,10.08c-0.4,2.59-1.56,4.8-3.09,6.73
		c-8.72,10.93-17.54,21.76-28.99,30.1c-2.44,1.78-5.16,3.49-6.5,7.2c3.66-0.45,6.12-2.54,8.9-3.63c6.98-2.73,14.19-3.19,21.52-3.45
		c13.63-0.49,25.76,4.65,37.42,10.63c5.79,2.97,10.69,7.82,15.24,12.67c2.1,2.24,3.62,3.08,6.7,1.28c3.86-2.25,8.34-3.16,12.92-3.4
		c2.84-0.15,4.53,0.51,5.83,3.33c1.17,2.56,1.88,5.62,4.31,7.46c1.57-0.89,0.75-1.93,0.67-2.82c-0.51-5.24,0.27-6.33,5.34-6.82
		c15.57-1.51,12.92-2.19,19.92,11.68c0.88,1.73,1.02,3.81,2.76,5.94c1.27-2.85,1.49-5.29,1.13-7.88c-0.4-2.85,0.89-4.57,3.75-4.74
		c4.35-0.25,8.62-1.07,12.78-2.22c3.36-0.93,5.37,0.23,7.12,2.91c2.73,4.18,5.6,8.28,8.44,12.38c1.83,2.64,3.83,3.84,7.52,3.02
		c4.31-0.95,8.93-0.54,13.41-0.7c1.91-0.07,3.1,1.09,3.99,2.57c1.12,1.88,1.68,3.95,2.09,6.1c0.8,4.11,3.56,5.15,6.68,2.36
		c2.48-2.22,4.79-4.61,7.76-6.22c1.32-0.72,2.54-1.64,4.15-1.45c1.73,0.21,2.79-0.65,3.69-2.01c1.6-2.43,4.3-3.63,6.46-5.42
		c1.93-1.6,3.92-0.56,4.21,2.02c0.26,2.27,0.05,4.58,0.05,7.23c2.28-0.62,3.13-2.28,4.22-3.65c5.75-7.23,12.46-13.4,20.17-18.49
		c2.02-1.33,4.15-2.86,6.35-1.16c2.08,1.6,0.92,3.96,0.23,6.01c-2.23,6.61-5.79,12.76-6.89,19.77c-0.07,0.48-0.33,0.96,0.44,1.83
		c1.9,0.56,3.1-1.37,4.59-2.4c8.21-5.71,16.65-11.01,26.07-14.57c0.77-0.29,1.57-0.56,2.38-0.72c0.45-0.09,0.96,0.07,1.69,0.14
		c0.97,3.22-1.05,5.79-2.21,8.28c-4.23,9.04-8.72,17.97-13.83,26.56c-1.56,2.61-2.35,5.1-1,8c0.28,0.59,0.5,1.29,0.47,1.93
		c-0.37,8.71,5.95,12.58,11.94,16.76c5.03,3.51,10.44,6.61,13.64,12.21c0.93,1.63,1.96,3.12,0.88,5.44
		c-6.15,1.67-12.65,1.17-19.07,0.84c-7.3-0.38-14.66,0.06-21.89-1.47c-2.63-0.56-4.54,1.2-6.05,2.9
		c-7.74,8.76-18.19,12.01-29.03,14.31c-10.8,2.29-21.19,0.49-31.18-4.01c-6.87-3.1-17.48,0.1-21.05,6.86
		c-3.84,7.27-9.05,10.5-17.37,8.38c-3.18-0.81-6.58-0.82-9.84-1.51c-3.07-0.65-4.9-1.91-3.98-5.43c0.34-1.31,0.16-2.62-1.03-3.82
		c-3.02,0.22-3.77,2.96-5.17,4.83c-3.49,4.64-3.47,4.76-8.98,2.7c-3.26-1.23-6.46-2.67-9.59-4.2c-4.19-2.05-4.53-2.94-3.73-7.79
		c0.1-0.62,0.01-1.27,0.01-1.89c-2.43-0.66-3.04,1.27-4.1,2.37c-3.16,3.27-4.31,3.62-7.46,0.64c-3.95-3.74-3.81-4.2-9.81-0.6
		c-1,0.6-2.17,1.02-2.98,1.81c-2.13,2.08-4.05,1.51-6.25,0.09c-2.8-1.81-5.68-3.46-7.91-6.03c-0.85-0.98-1.79-1.98-3.54-2.27
		c-0.32,2.53,1.68,4.17,2.2,6.25c2.85,11.44,7.48,22.41,9.27,34.13c1.17,7.72,2.24,15.47,3,23.24c0.46,4.68,1.79,7.99,6.75,9.82
		c5.11,1.88,9.85,4.83,14.69,7.43c9.92,5.33,16.34,13.76,21.46,23.6c4.49,8.63,6.81,17.96,10.05,27c0.93,2.6,0.66,5.27,0.88,7.91
		c1.24,15.25-1.1,29.83-7.89,43.64c-1.49,3.03-3.42,5.71-5.48,8.32c-3.03,3.84-3.94,7.67-1.7,12.39c4.57,9.61,8.2,19.63,11.77,29.66
		c0.17,0.47,0.51,0.9,0.58,1.38c1.15,7.66,6.74,12.15,11.75,17.29c13.57,13.93,30.71,22.01,47.85,30.17
		c4.87,2.32,9.07,5.55,13.04,9.11c4.32,3.87,8.5,7.86,13.93,10.3c7.17,3.23,13.78,7.71,19.69,12.67
		c9.89,8.3,17.69,18.53,22.15,30.92c0.44,1.23,0.84,2.55-0.03,3.82c-1.03,0.93-2.23,0.62-3.32,0.33
		c-10.76-2.89-21.83-4.36-32.59-7.26c-9.15-2.46-18.3-2.91-27.16,1.38c-0.79,1.96,0.83,3.15,1.49,4.56
		c2.31,4.92,3.31,10.13,3.74,15.46c0.31,3.78-0.9,4.74-4.69,4.36c-2.22-0.22-4.16-1.26-6.1-2.12c-11.74-5.16-24.01-7.48-36.78-7.91
		c-16.12-0.55-31.09-5-44.64-13.98c-4.86-3.22-9.86-6.24-14.26-10.07c-8.12-7.08-17.81-10.97-27.94-13.88
		c-6.98-2.01-13.27-5.3-19.34-9.14c-2.27-1.44-4.07-3.4-5.68-5.57c-7.63-10.26-10.08-21.56-6.83-33.97
		c1.43-5.47,4.77-10.05,8.63-13.81c3.73-3.64,7.72-7.42,12.71-9.46c2.53-1.04,2.67-2.63,2.19-4.75c-0.82-3.62-2.38-6.92-4.41-10
		c-1.37-2.08-3.27-3.24-5.81-3.35c-7.49-0.33-14.78-2.09-22.14-3.35c-6.63-1.14-13.14-3.35-18.65-6.81
		c-5.71-3.59-10.68-2.15-15.51,0.01c-8.6,3.85-16.98,8.19-25.85,11.44c-2.14,0.78-3.6,2.12-5.05,3.83
		c-10.6,12.58-20.41,25.89-33.48,36.18c-12.17,9.58-24.75,18.39-39.24,24.36c-11.7,4.82-23.27,9.99-35.49,13.27
		c-8.01,2.15-16.26,3.47-24.46,4.87c-8.69,1.49-17.3,3.54-26.2,3.59c-3.18,0.02-5.19,2.88-8.59,3.23
		c0.45,6.13,0.77,11.92,1.32,17.69c0.97,10.17,1.48,20.25-2.65,30c-3.53,8.34-9.04,14.94-16.23,20.41
		c-3.53,2.68-6.52,5.95-8.98,9.89C325.64,822.56,317.62,830.75,309.16,839.18z M328.52,433.59c4.49,1.6,7.61,4.68,12.92,4.9
		c-3.18-4.31-5.38-8.32-7.75-12.48C331.53,428.02,330.74,430.6,328.52,433.59z M359.09,436.11c-4.35,1.58-7.5,4.21-12.36,4.74
		c3.21,2.47,5.71,3.59,8.92,4.43C356.75,442.33,358.42,439.78,359.09,436.11z"/>
</g>
</svg>
