<?xml version="1.0" encoding="utf-8"?>
<!-- Generator: Adobe Illustrator 24.0.2, SVG Export Plug-In . SVG Version: 6.00 Build 0)  -->
<svg version="1.1" id="Layer_1" xmlns="http://www.w3.org/2000/svg" xmlns:xlink="http://www.w3.org/1999/xlink" x="0px" y="0px"
	 viewBox="0 0 861.13 604.96" style="enable-background:new 0 0 861.13 604.96;" xml:space="preserve">
<g>
	<path d="M200.33,415.07c-1.89,1.51-2.05,3.77-2.4,5.84c-1.71,10.07-4.8,19.82-8.6,29.18c-4.96,12.22-11.91,23.37-21.65,32.65
		c-6.01,5.73-11.43,12.08-17.23,18.04c-5.93,6.1-12.26,11.88-19.15,16.76c-14.6,10.35-27.44,22.72-41.02,34.24
		c-13.7,11.63-27.93,22.59-42.94,32.52c-2.58,1.7-5.07,2.07-8.02,1.3c-12.3-3.21-24.06-7.73-35.23-13.82
		c-3.24-1.77-4.55-4.2-3.99-7.71c2.08-12.96,4.28-25.9,6.25-38.88c0.57-3.74,0.67-7.5,1.69-11.24c0.68-2.46,1.79-4.23,3.56-5.74
		c11.51-9.82,23.07-19.59,35.42-28.37c1.58-1.13,3.43-2.09,3.87-4.26c-1.44-2.43-3.81-2.56-6.07-3.08
		c-6.93-1.59-14.04-2.55-20.51-5.86c-3.62-1.85-4.54-2.96-3.72-6.99c2.34-11.55,4.82-23.08,7.2-34.62c0.77-3.74,1.51-7.5,2-11.28
		c0.63-4.84,3.04-8.31,7.23-10.74c6.76-3.92,13.51-7.86,20.19-11.91c7.1-4.31,14.05-8.87,21.19-13.11
		c11.57-6.88,23.22-13.64,34.89-20.36c4.11-2.37,8.27-4.62,12.64-8.23c-5.86-0.88-10.7-2.42-15.58-3.8
		c-2.15-0.61-4.05-1.56-5.85-2.7c-2.66-1.67-2.67-3.53-0.31-5.56c0.92-0.79,2.01-1.09,3.13-1.46c7.11-2.37,14.35-4.2,21.74-5.39
		c2.16-0.35,4.25-0.81,6.23-2.14c0.67-2.67-0.22-5.49,0.3-8.3c1.25-6.78,4.07-12.92,6.96-19.09c3.12-6.65,6.73-13.03,11.46-18.6
		c11.12-13.11,22.89-25.39,38.42-33.68c7.84-4.18,16.36-6.49,24.17-10.61c4.42-2.34,9.64-2.58,14.6-2.98
		c2.87-0.23,4.64-1.39,5.81-3.84c0.43-0.9,0.87-1.8,1.4-2.65c2.66-4.27,2.22-7.61-1.76-11.25c-5.79-5.3-9.83-12.12-13.77-18.89
		c-1.66-2.85-1.6-6.29-1.31-9.21c0.89-8.84,4-16.46,12.29-21.61c16.22-10.08,33.32-12.39,51.71-8.09c4.77,1.11,7.39,4.07,6.94,8.33
		c-0.79,7.5,2.87,10.96,9.28,12.88c0.61,0.18,1.15,0.58,1.51,0.78c1.53-0.31,2.14-1.43,3.08-2.07c2.71-1.84,4.79-1.59,6.98,0.82
		c0.67,0.74,1.28,1.54,1.92,2.31c2.76,3.34,3.04,3.06,6.97,1.23c10.56-4.92,19.76-12.38,30.58-16.71
		c14.01-5.61,27.69-12.37,42.52-15.43c8.9-1.84,17.33-5.5,26.49-6.27c8.95-0.76,17.84-2.65,26.78-2.88
		c6.87-0.17,9.37-4.33,11.98-9.22c2.08-3.9,1.91-8.37,3.39-12.46c3.91-10.78,5.47-22.15,7.47-33.37c1.87-10.43,3.92-20.88,4.3-31.34
		c-1.68-1.69-3.43-2.6-5.27-3.39c-5.99-2.59-9.47-7.29-12.27-13.11c-2.34-4.87-2.77-9.69-2.52-14.81c0.21-4.24,2.71-7.61,4.98-10.73
		c4.57-6.3,10.77-11.32,18.4-12.81c5.5-1.07,11.51-2.81,17.26,1.36c3.07,2.22,7.28,2.87,10.38,5.62
		c8.45,7.48,11.29,22.04,5.96,32.05c-3.49,6.56-7.58,12.62-14.98,15.32c-2.97,1.08-3.27,3.22-3.17,5.92
		c0.53,14.47,1.18,28.92,2.05,43.37c0.56,9.35,1.9,18.52,3.84,27.64c0.24,1.13,0.41,2.31,0.84,3.37c1.46,3.56,2.96,6.13,7.86,6.83
		c9.2,1.32,18.6,1.35,27.62,3.85c11.81,3.27,23.83,5.64,35.51,9.49c8.66,2.85,17.55,4.98,26.08,8.33
		c10.97,4.31,22.08,8.63,31.96,14.87c13.14,8.31,26.76,16.13,38.31,26.8c5.27,4.87,9.93,10.32,14.11,16.11
		c3.42,4.74,8.46,3.88,13.03,4.8c0.97,0.19,1.8-0.73,2.26-1.7c2.79-5.84,5.63-11.66,8.36-17.53c0.67-1.45,0.43-2.76-1.05-3.93
		c-8.05-6.35-13.26-14.84-17.36-24.02c-5.05-11.32-1.06-25.35,8.96-32.62c6.33-4.59,12.65-9.05,20.2-11.63
		c4.39-1.5,8.86-1.53,13.26-1.8c4.94-0.3,9.96,0.38,14.91,0.93c3.71,0.41,6.47,2.45,7.97,6.02c0.57,1.36,0.63,3.16,2.05,3.9
		c5.16,2.67,10.4,5.2,15.63,7.75c1.09,0.53,1.84-0.44,2.7-0.87c3.68-1.83,6.16-1.66,9.04,1.06c9.34,8.83,15.37,19.64,18.02,32.14
		c0.77,3.64,1.43,7.37,1.68,11.22c0.75,11.76-11.03,24.8-22.95,28.33c-6.37,1.89-12.62,2.67-19.11,1.51c-2.08-0.37-3.37,0.23-4.59,2
		c-3.63,5.26-5.28,11.47-8.39,16.97c-1.14,2.01-1.82,4.27-2.83,6.67c4.51,5.19,8.92,10.52,12.81,16.31
		c7.21,10.71,12.63,22.19,16.66,34.39c1.67,5.04,3.39,10.07,4.9,15.16c0.56,1.89,1.57,2.66,3.44,2.96
		c12.81,2.02,25.6,4.17,38.42,6.2c12.18,1.92,24.23,4.28,35.63,9.27c2.64,1.16,4.97,2.66,4.76,5.67c-0.21,2.99-2.91,4.67-5.45,5.21
		c-6.97,1.47-13.78,3.46-20.91,4.5c-12.66,1.85-25.41,2.09-38.09,3.39c-5.94,0.61-11.98,0.08-17.98,0.47
		c-2.86,0.19-4.74,1.49-5.89,3.9c-8.06,16.92-20.67,30.29-33.9,43.5c5.34,10.44,8.73,21.77,10.62,33.42
		c2.62,16.19,2.03,32.14-3.42,48.03c-4.44,12.93-9.58,25.55-15.42,37.8c-5.36,11.24-10.01,22.81-15.87,33.83
		c-2.64,4.97-4.46,10.38-6.57,15.62c-2.31,5.73-4.86,11.31-8.55,16.32c-1.32,1.79-2.79,3.48-4.92,4.08
		c-11.2,3.2-22.4,7.23-34.1,7.04c-9.1-0.15-18.1-0.27-27.13,0.82c-2.38,0.29-4-1-5.11-3.21c-1.8-3.56-3.83-7-5.76-10.5
		c-0.71-1.3-1.16-2.8-2.83-3.46c-2.5,0.3-2.68,2.55-3.36,4.33c-1.77,4.66-2.93,9.54-5.75,13.79c-2.23,3.36-5,4.96-9.16,4.67
		c-4.97-0.35-10.03,0.22-14.96-0.38c-5.38-0.66-10.55-1.25-16.09-0.82c-3.94,0.3-8.49-0.27-12.73-0.94
		c-2.2-0.35-3.74-1.51-4.68-3.33c-9.14-17.74-21.71-33.51-29.69-51.93c-2.64-6.09-6.28-11.73-9.07-17.76
		c-4.58-9.89-8.17-20.02-5.74-31.25c0.77-3.56,0.92-7.23,2.32-10.69c1.37-3.38,0.22-4.87-3.56-4.79
		c-5.33,0.11-10.71-0.03-15.97,0.71c-12.46,1.77-24.83-0.16-37.23-0.39c-15.45-0.29-30.96-1.56-46.06-4.76
		c-19.03-4.03-38.36-6.54-57.22-11.34c-6.92-1.76-13.36-4.96-20.04-7.47c-7-2.63-14.05-5.11-20.84-8.26
		c-15.05-6.99-30.22-13.71-43.32-24.22c-4.91-3.94-10.44-4.76-16.82-3.76c-15.39,2.43-30.31,0.25-44.49-6.41
		C203.77,416.36,202.28,415.19,200.33,415.07z M663.91,453.79c-1.07,0.15-1.3,0.12-1.38,0.21c-3.9,4.71-5.96,10.49-8.99,15.71
		c-0.82,1.41,0.41,2.78,2.87,2.91C659.17,466.73,664.05,461.55,663.91,453.79z"/>
</g>
</svg>
