<?xml version="1.0" encoding="utf-8"?>
<!-- Generator: Adobe Illustrator 24.0.2, SVG Export Plug-In . SVG Version: 6.00 Build 0)  -->
<svg version="1.1" id="Layer_1" xmlns="http://www.w3.org/2000/svg" xmlns:xlink="http://www.w3.org/1999/xlink" x="0px" y="0px"
	 viewBox="0 0 860.9 609.64" style="enable-background:new 0 0 860.9 609.64;" xml:space="preserve">
<g>
	<path d="M412.34,397.57c-0.92,1.53-0.24,2.86-1.23,3.96c-2.78,0.1-3.77-3.57-6.92-3.51c-2.31,5.01-0.38,10.59-1.45,16.32
		c-4.62-2.53-7.69-6.52-12.46-7.71c-2.39,4.13,1.76,8,0.3,12.48c-7.88-4.69-13.95-10.83-21.4-16.48
		c-1.23,7.35-0.12,14.12-0.79,20.75c-2.59,1.09-3.74-0.97-5.16-2.16c-7.65-6.42-15.09-13.09-21.99-20.33
		c-0.89-0.94-1.7-2.11-3.52-2.15c-2.11,3.68,0.01,8.05-1.53,12.13c-4.4-0.87-6.85-5.35-11.5-6.02c-1.43,4.25,0.72,8.42-0.5,12.61
		c-3.45,0.35-5.06-2.3-6.5-4.47c-4.5-6.81-10.49-12.52-14.42-19.74c-0.54-0.99-1.29-2-3.04-1.63c-2.15,2.5,0.09,7.33-4.22,9.26
		c-1.94-2.06-2.84-4.55-3.9-6.93c-1.08-2.43-2.07-4.91-3.19-7.32c-2.58-5.54-4.59-6.44-10.6-5.21c-13.65,2.8-26.18,8.64-38.75,14.33
		c-3.48,1.57-6.8,3.48-10.2,5.22c-2.64,1.34-3.57,3.33-2.25,6.65c5.38,0.9,10.95,0.36,15.48-2.88c12.21-8.72,22.96-3.9,33.73,2.75
		c2.64,1.63,4.4,3.94,5.68,6.75c2.43,5.34,1.94,9.52-1.78,13.32c-3.7,3.78-8.68,4.74-13.62,2.46c-3.24-1.5-6.08-1.01-8.82,1.15
		c-3.31,2.6-5.97,5.68-8.08,9.34c-3.73,6.5-7.88,12.74-11.99,19c-4.48,6.82-10.25,12.18-16.69,17c-4.93,3.69-9.73,7.57-14.48,11.49
		c-5.22,4.31-7.08,9.93-5.7,16.51c1.1,5.23-0.88,9.34-4.94,12.12c-3.71,2.55-7.38,5.81-12.62,4.81
		c-11.2-2.14-14.15-5.22-15.82-16.64c-0.24-1.64-0.69-3.25-1.14-4.86c-2.24-8.14,0.03-13.61,7.37-17.96
		c1.49-0.88,3.33-1.59,3.6-4.05c-9.84-0.32-19.37-2.76-29.17-1.48c-4.32,0.56-7.12,2.46-8.21,6.72c-0.12,0.48-0.3,0.95-0.47,1.42
		c-3.69,10.13-11.68,13.94-22.08,10.5c-1.42-0.47-2.74-1.29-4.17-1.65c-10.21-2.56-10.8-18.02-4.77-23.66
		c4.4-4.11,8.35-8.61,12.23-13.17c2.85-3.35,6.44-4.35,10.58-4.68c9.75-0.77,19.4-2.44,29.13-3.39c7.37-0.72,14.91-1.84,21.46-5.9
		c6.84-4.25,12.87-9.45,18.06-15.64c0.96-1.14,1.3-2.12,0.71-3.59c-2.92-7.25-11.15-13-19.07-12.44
		c-9.73,0.69-17.05-3.44-23.07-10.48c-3.9-4.56-3.45-10.59-4.9-15.98c-0.26-0.95-0.05-2.02-0.28-2.98
		c-2.93-12.18,2.35-15.67,11.34-21c5.16-3.06,10.47-5.84,14.86-10.02c1.73-1.64,3.93-2.47,6.05-3.43
		c7.87-3.55,13.4-9.72,18.43-16.44c0.83-1.11,1.9-2.35,1.35-4.31c-3.25,0.2-6.46,2.61-10.18,0.72c1.27-5.74,4.72-10.34,6.6-16.17
		c-9.86-0.59-19.18,1.46-29.43,1.32c5.46-11.23,14.6-19.14,20.25-29.66c-2.49-1.94-5.37,0.44-7.66-0.93
		c0.17-2.6,3.38-3.49,3.05-6.45c-4.99-0.98-10.05,0.83-16.2,0.01c5.03-5.23,10.37-9.02,14.43-14.09c-0.12-1.82-3-0.81-2.92-3.17
		c2.23-2.68,6.21-3.92,8.29-7.38c-1.69-2.4-4.25-3.36-6.52-4.6c-14.14-7.78-28.12-15.89-42.57-23.06
		c-11.47-5.69-22.74-11.77-34.29-17.28c-4.84-2.31-8-6.46-11.62-10.09c-1.73-1.74-1.44-4.38-1.37-6.68
		c0.35-12.25-1.96-24.16-3.96-36.16c-1.37-8.22-3.12-16.35-4.49-24.56c-1.65-9.86-4.57-19.43-6.56-29.21
		c-0.39-1.93-1.28-3.81-3.45-4.99c-3.42,1.06-6.72,2.89-10.67,3.24c-3.54,0.32-6.93,0.75-10.3-0.47c-1.72-0.62-3.22-0.18-4.84,0.3
		c-9.64,2.85-18.45,1.11-26.32-5.09c-1.52-1.2-2.94-2.01-4.92-1.89C6.54,90.84-0.62,76.2,0.04,66.94c0.35-4.88,2.15-9.01,5.78-12.3
		c6.78-6.15,13.13-12.75,20.11-18.72c8.64-7.38,16.38-15.46,21-26.29c2.53-5.94,7.85-8.96,14.63-9.55c8.69-0.75,16.16,3.1,23.9,5.73
		c5.45,1.85,8.87,6.41,11.18,11.56c3.34,7.44,6.38,15.03,8.43,22.93c1.55,5.97,3.2,11.89,5.47,17.62
		c7.46,18.8,11.95,38.46,16.81,58.01c2.89,11.63,5.01,23.44,8.76,34.86c1.64,4.99,4.93,7.79,9.74,9.83
		c16.71,7.08,34.47,10.01,52,13.89c5.07,1.12,6.86,0.35,9.55-4.13c4.19-6.98,7.53-14.49,12.87-20.77c1.82-2.14,0.83-4.31,0.18-6.59
		c-2.35-8.31-5.41-16.41-6.95-24.97c-2.48-13.78-3.16-27.72-4.29-41.64c-0.64-7.88,0.32-15.62,0.63-23.42
		c0.03-0.87,0.3-1.62,1.8-2.09c4.28,4.39,6.64,10.72,12.44,15.31c1.42-8.04,2.74-15.56,4.03-22.91c1.99-0.63,2.38,0.74,2.99,1.61
		c2.3,3.26,4.62,6.52,6.79,9.87c3.45,5.34,8.36,9,13.75,12.05c10.03,5.68,19.62,11.97,28.04,19.88c1.97,1.85,3.66,1.6,5.82,0.45
		c6.91-3.66,13.89-7.31,21.54-9.13c7.57-1.8,14.82-4.85,22.74-5.35c3.96-0.25,7.86-1.34,11.78-2.13c1.56-0.31,2.58-1.47,3.43-2.74
		c3.36-4.99,8.39-8.59,11.5-13.79c0.22-0.37,0.81-0.51,1.5-0.92c3.32,2.87,0.83,7.38,2.97,10.63c10.45-7.14,17.36-18.18,28.7-25.69
		c1.04,8.9-2.41,16.51-2.81,25.44c11.02-6.31,21.52-11.9,32.18-17.19c10.6-5.26,21.12-10.66,32.85-13.34
		c-4.17,15.47-12.53,28.53-20.38,42.36c9.04,0.35,15.11-6.97,23.97-6.28c-2.52,6.08-6.7,10.65-9.69,16.18
		c2.65,1.97,5.52,3.14,8.36,4.35c1.99,0.85,4.19,1.35,5.82,2.82c3.6,3.24,7.03,2.82,10.74,0.14c10.01-7.24,20.94-12.96,31.67-19
		c4.05-2.28,8.31-4.2,12.49-6.25c1.2-0.59,2.46-1.14,3.92,0.13c-1.42,5.87-5.2,10.67-8.24,16.06c10.98-1.85,20.9-6.32,31.51-9.78
		c0.72,3.54-1.53,5.92-2.97,8.46c-1.05,1.86-2.48,3.56-3.96,5.13c-7.93,8.44-9.55,19.01-10.47,29.91
		c-0.87,10.3-3.1,20.41-5.02,30.54c-1.04,5.49-0.24,10.27,3.13,14.92c9.47,13.07,16.27,27.45,20.07,43.2
		c0.04,0.16,0.06,0.33,0.13,0.48c1.24,2.9-0.73,7.11,2.19,8.87c3.05,1.84,7.18,1.16,10.75,1.09c19.63-0.36,39.23-1.63,58.8-3.28
		c2.26-0.19,3.67-1.19,4.95-2.84c2.36-3.05,3.79-6.63,5.72-9.92c12.4-21.11,22.9-43.21,33.73-65.12c5.44-11,11.52-21.81,14.99-33.72
		c1.53-5.26,3.14-10.5,4.5-15.81c1.21-4.74,3.04-9.28,5.88-13.14c3.32-4.52,8.31-6.99,13.94-6.45c13.23,1.26,25.64,5.45,37.23,11.93
		c5.41,3.02,9.13,7.67,11.42,13.44c2.4,6.03,4.97,11.99,7.22,18.08c3.91,10.62,9.72,20,17.51,28.21c5.65,5.96,5.88,12.04,1.35,18.89
		c-4.17,6.31-9.81,11.31-14.88,16.76c-3.37,3.62-9.13,3.72-14.02,4.55c-5.59,0.95-11.28,1.22-16.84-0.48
		c-1.13-0.35-2.36-0.71-3.43-0.19c-11.97,5.88-23.29,1.89-34.62-2.18c-0.76-0.27-1.55-0.44-2.42-0.67
		c-1.92,2.22-2.39,4.93-3.16,7.39c-4.16,13.16-9.3,26.07-11.76,39.7c-2.01,11.13-3.43,22.37-4.1,33.68
		c-0.58,9.84-8.76,19.61-18.82,20.97c-9.1,1.23-18.25,0.99-27.36,1.84c-22.38,2.09-44.73,4.29-66.48,10.36
		c-0.32,0.09-0.64,0.19-0.96,0.27c-10.67,2.57-12.76,4.02-19.72,13.74c1.29,2.33,3.95,2.67,6.01,3.89c2.12,1.25,4.82,1.45,6.81,3.99
		c-5.07,3.89-12.36,2.4-17.41,7.29c6.28,6.87,12.47,13.65,18.47,20.23c-1.45,2.81-3.5,2.18-5.21,2.09
		c-8.79-0.45-17.62,0.15-26.38-1.08c-1.56-0.22-3.44-0.85-4.37,1.22c-0.79,1.75,0.02,3.25,1.09,4.6c2.03,2.55,4.63,4.67,6.07,7.71
		c-1.95,1.72-4.01-0.2-5.81,0.58c-0.16,0.29-0.52,0.69-0.44,0.83c3.22,5.6,6.34,11.31,10.59,16.19c3.17,3.64,7.99,4.03,12.4,4.46
		c12.72,1.25,25.47,2.51,38.27,1.63c13.44-0.92,26.87-1.99,40.17-4.34c5.24-0.92,10.57-1.22,15.79-2.4
		c12.49-2.82,25.27-4.26,37.63-7.7c16.21-4.5,32.01-10.1,47.29-17.17c8.59-3.97,17.57-7.07,25.66-12.15
		c10.16-6.39,19.59-13.76,29.22-20.87c11.77-8.69,21.61-19.32,31.07-30.28c8.28-9.59,15.54-20.01,17.92-32.94
		c0.18-0.98,0.37-1.97,0.45-2.96c0.41-4.91-2.95-7.75-7.5-5.92c-8.52,3.42-16.66,7.62-23.53,13.87
		c-10.23,9.32-19.85,19.19-27.87,30.56c-6.03,8.56-17.43,11.93-27.05,7.66c-7.81-3.47-11.99-14.47-7.74-21.92
		c5.28-9.26,11.37-17.73,18.97-25.48c7.27-7.41,14.47-14.76,23.01-20.53c13.27-8.97,27.17-16.55,43.46-19.05
		c6.29-0.96,12.48-1.79,18.81-1.74c5.22,0.05,10.31,1.16,14.96,3.22c9.75,4.32,14.36,12.61,15.23,22.87
		c1.07,12.58-0.79,24.84-4.59,36.92c-4.21,13.37-10.99,25.3-20,35.82c-7.88,9.21-16.47,17.77-26.05,25.39
		c-8.72,6.94-17.59,13.63-26.75,19.94c-8.09,5.58-16.56,10.5-25.29,15.01c-17.93,9.26-36.72,16.39-55.65,23.31
		c-15.99,5.84-32.33,10.01-48.94,13.33c-16.14,3.22-32.48,5.2-48.8,7.29c-15.55,1.99-31.17,2.53-46.79,3.23
		c-0.66,0.03-1.31,0.13-1.77,0.7c-0.06,0.15-0.22,0.35-0.17,0.45c3.49,7.73,2.06,15.62,0.32,23.34c-3.95,17.55-3.64,34.98,0.4,52.43
		c1.82,7.88,5.01,14.75,10.9,20.74c8.39,8.54,15.83,18.04,25.54,25.23c4.53,3.36,9.14,6.68,14.53,8.63
		c7.27,2.64,12.01,7.49,13.72,15.2c1.23,5.52,3.02,10.9,4.7,16.31c2.93,9.42-1.67,19.79-10.29,23.45
		c-6.65,2.82-13.2,1.02-19.27-1.88c-2.49-1.19-4.15-4.25-3.49-7.26c2.46-11.16-4.97-17.12-11.91-23.38
		c-0.99-0.89-2.34-1.45-3.12-2.48c-3.66-4.81-8.84-5.4-14.29-5.65c-9.32-0.44-18.46-0.15-27.76,1.74
		c-7.26,1.48-9.77,5.91-10.94,11.78c-1.29,6.48-0.76,12.96,3.29,18.65c0.29,0.41,0.54,0.84,0.76,1.29
		c4.91,9.57,3.27,14.23-6.89,17.89c-2.86,1.03-4.75,3.71-8.46,3.51c-5.29-0.29-8.43-3.76-11.84-6.65
		c-4.32-3.65-7.83-8.17-9.91-13.59c-1.74-4.51-4.67-8.41-6.31-13.01c-3.62-10.17-0.56-20.69,8.29-26.87
		c5.85-4.09,10.57-8.99,12.92-15.95c0.83-2.44,0.86-4.49-0.74-6.53c-0.51-0.65-0.78-1.5-1.34-2.1c-5.76-6.25-4.49-13.14-1.74-20.06
		c2.82-7.1,6.62-13.22,15.45-13.6c0.77-0.03,1.52-0.54,2.18-0.78c1.05-2.07,0.21-3.87-0.46-5.45c-3.93-9.32-8.74-18.01-18.15-23.04
		c-0.44-0.23-0.81-0.69-1.27-0.78c-7.8-1.52-11.25-7.64-14.72-13.79c-2.24-3.98-5.34-7.14-9.04-9.85
		c-6.75-4.95-11.75-11.78-17.94-17.34c-6.57-5.9-13.08-11.84-21-15.98c-2.55-1.33-5.1-2.32-7.98-2.65
		C423.97,400.9,418.27,398.96,412.34,397.57z"/>
</g>
</svg>
