<?xml version="1.0" encoding="utf-8"?>
<!-- Generator: Adobe Illustrator 24.0.2, SVG Export Plug-In . SVG Version: 6.00 Build 0)  -->
<svg version="1.1" id="Layer_1" xmlns="http://www.w3.org/2000/svg" xmlns:xlink="http://www.w3.org/1999/xlink" x="0px" y="0px"
	 width="711.94" height="860.62" viewBox="0 0 711.94 860.62" style="enable-background:new 0 0 711.94 860.62;" xml:space="preserve">
<g>
	<path d="M463.72,548.46c1.17,2.94,3.68,4.63,6.19,6.15c6.9,4.19,12.47,9.93,18.54,15.12c10.82,9.26,19.86,20.13,28.75,31.05
		c5.08,6.24,11.31,9.25,18.4,11.86c18.21,6.7,37.24,9.88,56.11,13.85c10.8,2.27,21.6,3.8,32.61,4.18c4.64,0.16,9.28-0.1,13.95,0.23
		c2.93,0.21,5.18-2.23,6.99-4.9c5.51-8.11,10.85-16.39,18.32-22.95c1-0.88,2.02-1.77,3.15-2.45c3.41-2.06,6.27-1.11,7.36,2.72
		c1.76,6.2,3.61,12.39,4.75,18.75c0.18,0.98,0.29,1.99,0.61,2.92c1.65,4.86,3.65,6.19,8.61,5.03c4.73-1.1,9.48-1.65,14.32-1.78
		c2.25-0.06,4.32,0.38,6.33,1.15c3.69,1.42,3.68,2.34,2.67,6.33c-4.13,16.28-15.1,28.12-25.62,40.3
		c-3.69,4.27-7.31,8.61-10.81,13.04c-9.53,12.06-22.13,20.49-34.15,29.69c-8.38,6.42-17.39,11.76-26.7,16.42
		c-6.49,3.25-12.58,7.47-19.91,9.07c0.04,3.89,0.39,7.19,1.5,10.59c2.86,8.75,3.33,17.98,4.27,27.05c0.83,7.92,1.9,15.82,2.17,23.82
		c0.31,8.99-0.08,17.91-0.58,26.87c-0.34,6.08-0.96,11.89-4.71,16.94c-0.79,1.06-1.39,2.22-2.69,2.85
		c-10.14,4.91-20.63,7.97-32.08,8.25c-13.63,0.33-25.94-3.6-37.56-10.03c-5.44-3.01-9.24-7.97-11.5-13.88
		c-0.62-1.63-1.63-2.88-2.85-4.02c-11.14-10.48-21.99-21.29-34.51-30.22c-7.46-5.32-15.53-9.7-22.92-15.13
		c-1.9-1.4-3.27-3.25-5.82-4.27c-6.3-2.53-12.39-1.63-18.62-0.74c-12.37,1.77-24.83,3.24-37.28,2.96
		c-13.76-0.31-27.48-1.08-41.18-3.85c-16.97-3.43-33.3-8.55-48.69-16c-11.39-5.52-19.73-1.12-28.5,4.69
		c-1.1,0.73-2.24,1.54-3.06,2.57c-11.79,14.77-28.93,17.97-45.98,21.36c-8.03,1.59-15.75,4.28-23.45,6.9
		c-11.57,3.95-23.5,5.99-35.44,8.11c-3.86,0.68-7.67-0.01-11.44-0.5c-5.05-0.65-7.18-6.74-4.72-12.46
		c2.86-6.67,8.14-11.33,13.46-15.84c3.05-2.59,5.84-5.42,8.95-8.3c-5.81-6.9-8.44-15.43-11.75-23.46
		c-5.06-12.28-3.82-25.14-0.57-37.8c0.62-2.41,1.39-4.79,2.17-7.16c5.17-15.71,13.27-29.75,24.42-41.94
		c4.92-5.38,8.46-12.01,14.67-16.25c1.27-0.87,1.15-2.29,0.88-3.65c-1.51-7.65-3.22-15.28-4.47-22.97
		c-1.42-8.72-1.76-17.57-1.57-26.39c0.11-5.43-1.39-10.82,0.08-16.32c-2.81-1.23-4.95,0.03-6.94,0.96
		c-17.03,7.95-33.91,16.16-49.53,26.77c-5.11,3.47-10.03,7.09-14.8,10.98c-5.53,4.51-9.29,10.45-13.15,16.24
		c-5.76,8.63-13.54,13.51-23.61,16.01c-10.95,2.72-21.88,3.85-33.09,3.6c-10.91-0.25-20.05-5.24-29.23-10.22
		c-2.18-1.18-4.02-2.96-6.13-4.29c-8.4-5.3-11.41-13.95-14.26-22.7c-0.93-2.85-1.74-5.73-2.59-8.61
		c-1.68-5.66-2.15-11.13-0.21-17.04c4.08-12.44,7.47-25.1,10.25-37.93c0.93-4.31,2.83-8.5,4.45-12.67
		c2.66-6.84,4.13-13.97,6.01-21.01c2.91-10.91,6.59-21.59,9.26-32.6c2.6-10.73,3.41-21.66,4.26-32.52
		c0.47-5.98-1.48-12.18-2.55-18.24c-1.25-7.07-1.16-14.18-1.45-21.31c-0.56-14.07,5.9-25.64,12.3-37.24
		c4.58-8.3,9.56-16.42,13.39-25.06c3.21-7.24,3.53-15.23,1.84-23.04c-2.12-9.8-2.24-19.82-3.69-29.7c-2.38-16.3-3.78-32.7-3.42-49.2
		c0.11-4.99,0.18-9.98,1.23-14.9c0.65-3.05,2.26-5.57,4.28-7.78c3.46-3.79,8.05-2.36,11.72-1.2c14.74,4.66,28.86,10.89,42.93,17.32
		c12.19,5.57,24.13,11.98,37.45,14.78c0.16,0.03,0.35,0.05,0.48,0.13c8.45,5.59,17.58,3.78,26.58,2.26
		c19.24-3.24,37.98-1.45,56.76,3.67c8.17,2.22,16.54,3.59,24.3,7.17c1.31,0.61,2.98,0.77,3.82-0.1c2.84-2.9,6.89-4.61,8.24-9.01
		c1.46-4.76,3.54-9.25,6-13.65c3.99-7.14,5.19-14.5-0.46-21.68c-3.27-4.15-4.35-9.34-5.64-14.31c-1.56-6.03,0.99-10.98,5.2-15.61
		c-2.38-2.91-5.48-5.1-8.38-7.43c-10.51-8.43-21.15-16.69-31.74-25.03c-9.67-7.62-19.14-15.47-29.45-22.29
		c-7.61-5.03-14.01-11.87-22.21-16.08c-11.91-6.11-24.37-10.48-37.97-11.05c-8.13-0.34-16.24-1.3-24.32-2.08
		c-5.13-0.5-10.6-1.62-15.3-4.13c-8.99-4.8-12.96-12.86-12.11-22.74c0.47-5.43-0.1-10.92,1.33-16.37C96,61.9,97.83,56.9,99.23,51.78
		c2.08-7.61,7.2-11.72,14.9-12.8c4.48-0.63,9.05-0.79,13.46-0.07c11.84,1.92,22.16-6.87,25.59-17.8c0.8-2.53,1.72-5.18,1.72-7.78
		c0-6.96,6.14-11.57,12.19-12.48c6.77-1.02,13.62-1.07,20.43-0.39c5.29,0.53,10.51,1.91,15.8,2.24c6.58,0.42,12,3.53,17.55,6.44
		c2.37,1.24,3.17,3.85,3.61,6.31c1.23,6.88,2.28,13.79,3.39,20.69c2.42,15.09,3.23,30.51,8.28,45.08
		c2.28,6.58,5.71,12.82,10.31,18.07c6.26,7.13,11.85,14.84,18.86,21.32c4.16,3.84,6.41,9.36,10.93,12.9
		c10.99,8.62,20.61,18.93,32.36,26.61c4.51,2.95,7.86,7.18,12.24,10.24c4.35,3.04,4.76,2.73,9.65,0.47
		c9.08-4.2,18.12-2.61,22.54,5.05c3.9,6.76,7.61,13.65,12.74,19.65c3.49,4.08,7.18,7.82,11.67,10.81
		c7.29,4.85,9.94,11.96,9.16,20.43c-0.16,1.71,0.72,2.57,1.66,3.33c6.05,4.89,11.13,11,18.34,14.48c1.62,0.78,3.02,1.2,4.72,0.77
		c5.48-1.39,10.94-0.23,16.3,0.58c5.24,0.8,9.48,10.4,6.65,15.02c-1.58,2.58-1.2,3.64,0.9,5.72c8.66,8.6,18.28,16.02,27.99,23.28
		c9.42,7.05,19.36,13.48,30.59,17.34c5.67,1.95,11.57,2.47,17.71,1.39c7.84-1.38,15.8-2.15,23.74-2.83
		c3.86-0.33,7.33,0.78,10.36,3.83c8.25,8.29,15.07,17.75,22.55,26.66c3.65,4.34,2.3,9.77,1.26,14.89c-0.97,4.81-4.5,6.87-8.67,7.93
		c-8.85,2.24-16.71,6.42-24.09,11.65c-4.85,3.44-9.22,7.18-9.47,13.81c-0.03,0.76-0.74,1.48-0.96,2.26
		c-1.23,4.44-3.31,8.6-3.05,13.49c0.22,4.17-1.45,8.14-3.55,11.78c-0.65,1.12-1.58,2.25-2.67,2.91c-7.23,4.36-14.79,7.41-23.55,6.22
		c-7.87-1.07-15.07-4.11-22.28-7.14c-4.7-1.98-7.02-6.26-8.04-10.81c-2.31-10.37-4.54-20.76-6.52-31.21
		c-1.33-7.04-5.33-13.36-9.59-19.02c-5.38-7.14-11.35-13.89-18.08-19.91c-9.9-8.84-19.61-17.88-29.88-27.29
		c-14.72,18.1-27.95,36.97-41.76,55.56c4.45,3.79,9.7,5.68,14.06,8.95c2.4,1.8,4.77,3.63,7.1,5.52c4.62,3.75,5.75,8.25,4.39,14.21
		c-2.22,9.77-6.85,18.78-8.53,28.68c-0.58,3.45-1.56,6.86-1.76,10.33c-0.25,4.31-0.88,8.41,2.63,12.56
		c3.65,4.31,3.09,10.36,1.62,15.86c-1.55,5.79-3.16,11.57-5.57,17.07c-1.23,2.81-1.64,5.72-2.09,8.8
		c6.93,4.96,14.21,3.97,21.31,1.33c7.15-2.66,14.44-5.34,20.98-9.17c9.84-5.77,20.45-9.58,30.91-13.74
		c12.34-4.91,24.99-9.05,37.44-13.72c13.38-5.01,26.97-9.42,40.01-15.38c9.96-4.55,17.57-11.91,25.33-19.16
		c5.47-5.11,10.62-10.55,15.92-15.83c2.4-2.39,5.48-3.07,8.69-3.23c4.35-0.22,8.63,0.48,12.9,1.23c5.73,1,11.1,3.47,16.97,3.92
		c1.61,0.12,3.35,0.69,4.72,1.55c11.61,7.38,24.33,13.19,33.4,24.15c5.4,6.53,12.16,11.9,16.73,19.16
		c5.36,8.52,4.35,14.67-1.57,20.1c-8.62,7.9-18.6,11.1-30.25,8.84c-2.98-0.58-6.02,0.36-8.53,1.92c-3.11,1.93-6.47,2.65-9.94,3.01
		c-10.3,1.09-20.36,3.36-30.14,6.65c-5.71,1.92-10.73,5.08-14.39,10.27c-5.61,7.94-13.33,13.37-22.25,17.12
		c-1.57,0.66-2.94,1.43-3.98,2.85c-2.64,3.6-6.82,5.18-10.6,4.18c-5.5-1.46-9.85,0.7-14.16,2.81c-15.1,7.4-29.77,15.6-43.87,24.79
		C464.35,547.36,464.15,547.87,463.72,548.46z"/>
</g>
</svg>
