<?xml version="1.0" encoding="utf-8"?>
<!-- Generator: Adobe Illustrator 24.0.2, SVG Export Plug-In . SVG Version: 6.00 Build 0)  -->
<svg version="1.1" id="Layer_1" xmlns="http://www.w3.org/2000/svg" xmlns:xlink="http://www.w3.org/1999/xlink" x="0px" y="0px"
	 width="927.81" height="750.79" viewBox="0 0 927.81 750.79" style="enable-background:new 0 0 927.81 750.79;" xml:space="preserve">
<g>
	<path d="M372.88,167.85c14.54-6.23,29.67-8.04,44.96-9.01c1.65-0.11,3.39-0.25,4.97,0.11c7.4,1.68,12.7-1.79,17.69-6.61
		c18.11-17.47,37.23-33.78,56.97-49.39c17.75-14.03,35.21-28.43,52.91-42.52c8.48-6.75,16.25-14.3,24.62-21.16
		c13.15-10.78,27-20.6,41.4-29.64c4.74-2.98,10-4.19,15.69-4.22c9.33-0.06,18.64-0.57,27.86,1.51c5.05,1.14,6,2.1,4.75,6.98
		c-3.21,12.51-8.61,24.13-15.2,35.16c-7.28,12.18-15.67,23.58-24.92,34.34c-0.53,0.61-1.24,1.16-1.04,2.21
		c1.81,1.07,3.11-0.32,4.46-1.08c9.01-5.04,17.64-10.72,26.19-16.49c13.11-8.85,26.82-16.75,40.06-25.36
		c13.25-8.62,26.31-17.54,39.05-26.94c6.41-4.73,12.93-9.36,19.49-13.9c1.86-1.29,3.83-2.11,6.08-1.74
		c8.52,1.4,17.25,1.55,25.47,4.67c6.56,2.49,7.54,4.12,5.73,10.85c-2.45,9.13-7.25,17.19-12.35,24.96
		c-6.12,9.32-12.46,18.54-19.35,27.3c-9.07,11.53-19.28,22.07-30.68,31.39c-0.75,0.62-1.47,1.28-2.66,2.32
		c2.17,0.61,3.61-0.07,4.92-0.73c9.06-4.55,18.39-8.5,27.75-12.38c11.38-4.72,23.13-8.39,34.8-12.29c0.63-0.21,1.36-0.21,1.93-0.51
		c14.8-7.83,27.32,0.15,40.16,5.8c0.89,0.39,1.63,1.14,2.44,1.73c0.68,0.49,1.36,0.97,1.94,1.38c-0.78,4.14-3.24,6.62-5.63,9.13
		c-8.22,8.61-17.91,15.41-27.47,22.37c-6.95,5.06-13.98,9.99-21.73,15.51c5.18,1.42,9.41,2.67,13.69,3.72
		c4.08,1.01,7.94,2.47,11.52,4.66c4.73,2.89,5.21,4.87,1.42,9c-5.08,5.52-10.66,10.58-16.76,14.94
		c-22.81,16.31-46.99,30.17-72.55,41.82c-16.06,7.32-32.22,14.31-48.77,20.38c-16.25,5.96-32.55,11.81-49.23,16.51
		c-1.8,0.51-3.98,0.48-5.39,2.49c5.06,2.05,10.45,2.29,15.52,3.88c21.97,6.91,44.46,11.35,67.31,14.3
		c31.78,4.1,61.94-2.29,91.53-12.99c13.27-4.8,25.16-12.15,36.11-20.92c4.13-3.3,7.62-7.42,11.23-11.34
		c18.94-20.55,31.91-44.5,40.48-71c5.51-17.02,7.35-34.43,6.29-52.19c-0.36-5.98-1.54-11.88-2.9-17.73
		c-0.62-2.65-1.74-5.42,0.2-8.67c7.36,2.62,10.15,9.6,15.18,15.45c-0.12-2.87-0.52-4.99-1.28-7.03
		c-5.89-15.78-12.31-31.32-22.07-45.21c-0.9-1.28-1.75-2.48-0.37-4.26c4.27,0.34,7.58,2.84,10.53,5.67
		c28.03,26.95,43.57,59.01,41.86,98.8c-0.99,23.03-6.64,44.44-18.65,63.93c-8.53,13.84-19.74,25.38-33.27,34.72
		c-10.15,7.01-20.17,14.19-31.14,19.86c-25.51,13.2-52.56,21.27-81.1,24.82c-17.47,2.17-34.94,2.07-52.37,1.18
		c-24.94-1.27-49.72-4.38-74.25-9.22c-4.56-0.9-9.01-2.37-13.53-3.5c-1.74-0.43-3.48-1.2-5.63-0.57
		c-4.64,9.47-12.29,16.62-20.07,23.67c-1.23,1.12-2.51,2.21-3.56,3.48c-2.88,3.49-6.42,5.76-10.94,6.32c-1.4,0.17-2.74,0.35-3.02,2
		c-1.03,6.04-5.08,10.43-8.57,14.98c-9.51,12.4-21.2,22.47-34.64,31.16c1.44,3.39-0.33,6.34-2.21,9.36
		c-7.9,12.67-16.99,24.28-29.26,33.09c-1.82,1.3-3.73,2.48-5.68,3.78c1.43,1.45,3.07,0.9,4.46,1.3c3.79,1.1,5.02,2.9,3.85,6.65
		c-1.18,3.81-2.68,7.56-4.96,10.87c-4.16,6.04-8.56,11.89-13.42,17.4c-2.46,2.78-5.38,4.95-8.43,7c-3.26,2.19-3.27,2.17-0.16,5.04
		c0,0.35,0.13,0.76-0.02,0.98c-8.3,12.35-17.13,24.2-30.42,31.78c-1.89,1.08-1.89,1.09-1.5,4.67c5.58-1.14,9.95-4.39,14.3-7.61
		c2.14-1.58,4.21-3.29,6.13-5.13c1.72-1.64,3.16-1.39,4.85,0.61c5.05-9.26,11.39-17.16,18.28-24.61
		c9.13-9.86,19.63-17.89,31.82-23.76c8.68-4.18,16.86-9.32,25.8-13.06c7.63-3.19,15.43-5.22,23.62-5.84c2.7-0.21,5.2-0.7,7.65-1.95
		c6.27-3.19,13.23-3.34,20-3.73c11.5-0.67,22.97,0.17,34.28,2.6c1.3,0.28,2.6,0.6,3.86,1.02c5.6,1.84,6.59,4.04,4.22,9.3
		c-0.33,0.74-1.04,1.33-0.87,2.34c1.09,1.24,2.47,0.48,3.64,0.28c12.57-2.09,24.93-0.12,37.21,2.16c8.66,1.6,17.33,3.54,25.23,7.6
		c6.92,3.56,14.09,6.93,18.85,13.57c4.25,5.93,3.19,9.84-3.73,12.13c-9.49,3.15-19.35,4.7-29.19,6.39
		c-22.95,3.95-45.69,9.08-68.64,13.08c-19.99,3.49-39.94,7.25-59.78,11.52c-15.26,3.29-30.63,6.2-45.73,10.77
		c0.48,1.75,2.63,1.6,2.93,3.15c0.15,0.58-0.19,0.99-0.59,1.25c-2.97,2-6.39,2.74-9.82,3.45c-3.91,0.8-7.83,1.54-11.72,2.41
		c-2.37,0.53-3.97,1.86-5.22,4.15c-4.56,8.31-9.79,16.22-15.32,23.93c-0.37,0.52-0.54,1.18-0.79,1.73c1.06,2.34,3.38,3.34,4.65,5.31
		c1.58,2.44,3.03,4.79,2.29,7.87c-0.32,1.35-0.22,2.66,0.77,3.76c4.8,5.33,3.89,10.74,0.39,16.32c-2.92,4.66-5.87,9.32-8.34,14.22
		c-2.36,4.68-6.34,7.14-10.73,9.22c-3,1.42-6.09,2.66-9.19,3.88c-3.31,1.31-5.59,2.86-6.91,6.87c-1.31,3.99-6.16,5.78-9.76,8.15
		c-7,4.62-14.84,6.74-23.11,7.12c-4.27,0.19-6.96,2.26-9.56,5.38c-14.57,17.41-29.84,34.25-49.14,46.53
		c-15.98,10.17-33.18,17.98-52.62,18.14c-13.81,0.11-27.62-0.74-41.25-3.45c-9.14-1.82-18.27-3.52-27.11-6.7
		c-6.92-2.49-13.7-5.33-20-8.99c-5.46-3.16-10.87-3.91-16.73-2.45c-16.52,4.11-33.08,2.78-49.66,0.61
		c-0.97-0.13-1.91-0.55-2.82-0.93c-2.18-0.91-3.74-0.46-5.05,1.65c-1.75,2.81-3.85,5.38-7.38,6.57c-2.28-2.88-3.24-6.24-4.51-9.42
		c-1.37-3.44-3.12-6.64-5.78-9.23c-1.54-1.5-3.3-3.2-5.69-2.22c-2.33,0.96-3.39,3.16-3.7,5.55c-0.32,2.44-0.13,4.97-1.18,7.25
		c-11.74-1.29-18.63-10.83-16.22-22.2c0.44-2.07,1.69-3.57,3.17-4.97c3.13-2.98,6.51-5.71,8.98-9.28
		c-4.84-6.94-12.06-8.48-19.75-8.38c-20.33,0.27-40.59,1.31-60.38,6.7c-3.8,1.03-5.41,3.78-6.34,7.02
		c-4.53,15.83-8.28,31.87-11.53,48.01c-1.61,7.98-2.65,16.08-2.81,24.25c-0.33,16.49-1.5,32.96-0.81,49.47
		c0.06,1.4-0.18,2.81-0.32,4.78c-2.54-2.33-3.08-4.94-3.81-7.4c-3.33-11.21-5.26-22.64-6.28-34.32
		c-1.15-13.13-2.34-26.19-0.94-39.37c1.98-18.58,4.8-36.98,11.27-54.63c3.15-8.6,9.31-13.74,18.29-15.03
		c17.74-2.56,35.52-2.7,53.3-0.24c1.6,0.22,3.2,0.9,5.24,0.1c-2.11-2.16-4.61-3.38-7.01-4.68c-2.68-1.46-4.25-3.55-4.85-6.56
		c-0.46-2.29-1.01-4.57-1-6.91c0.07-16.65-1.08-33.28-0.09-49.94c0.94-15.89,4.05-31.34,8.6-46.53c0.67-2.25,1.37-4.98,4.93-4.06
		c1.03-10.69,5.4-19.86,9.88-28.96c1.04-2.11,0.35-3.83-0.42-5.7c-4.39-10.68-10.62-20.35-16.67-30.11
		c-4.38-7.07-8.81-14.11-13.33-21.08c-7.46-11.5-16.81-21.47-25.8-31.74c-10.68-12.21-23.49-22.18-35.06-33.45
		c-7.12-6.94-9.98-14.41-8.06-24.1c3.33-16.76,2.73-33.76,2.58-50.71c-0.05-6.49-0.51-12.98-0.69-19.47
		c-0.05-1.79-0.36-3.66,0.48-5.37c1.89,0.02,2.74,0.59,7.98,5.42c0.98-7.76,1.97-15.12,2.83-22.5c1.63-14.04,3.63-28.06,4.62-42.15
		c0.73-10.44,0.58-21.01-0.01-31.47c-0.82-14.62-1.82-29.23-1.78-43.88c0.01-2.33,0.23-4.71-0.13-6.99c-0.71-4.47,1.11-7.25,5-9.22
		c6.26-3.18,12.78-5.6,19.58-7.34c3.61-0.92,5.38,1.42,6.74,3.87c2.59,4.65,4.78,9.51,7.19,14.25c0.78,1.54,0.86,3.53,2.99,4.78
		c0.84-6.16,1.81-11.98,2.38-17.84c0.47-4.83,2.16-9.41,2.41-14.28c0.13-2.55,1.88-4.1,4.19-5.11c7.87-3.42,16.29-4.69,24.62-6.26
		c3.62-0.69,5.22,1.92,6.39,5.01c5.19,13.63,8.12,27.77,9.69,42.23c0.17,1.59-0.29,3.39,1.68,5.11c2.04-6.13,3.87-12.04,5.97-17.86
		c2.37-6.56,4.53-13.2,7.5-19.54c0.91-1.93,1.99-2.61,4.14-2.72c5.66-0.29,11.31-0.01,16.96,0.13c5.93,0.15,8.47,2.13,9.8,8
		c2.86,12.61,3.31,25.39,2.03,38.25c-0.31,3.06-1.07,6.16-0.07,9.83c5.06-6.81,9.54-13.31,13.71-20.02c1.31-2.11,2.87-4.1,4.53-5.96
		c2.53-2.82,3.37-2.8,5.88,0.26c3.96,4.83,5.86,10.79,8.4,16.36c1.64,3.61,2.54,7.56,3.73,11.36c1.34,4.27,0.93,8.54,0.01,12.84
		c-2.16,10.11-5.9,19.73-8.79,29.6c-3.01,10.27-7.82,19.78-11.2,29.87c-0.52,1.55-1.49,2.96-2.52,4.93
		c5.15-0.08,5.43,3.52,6.09,7.15c2.02,11.01,1.46,21.86-1.53,32.99c4.26,1.2,4.66,4.69,5.01,8.43c0.32,3.47,1.12,6.89,1.7,10.33
		c0.87,5.2,0.01,10.26-1.27,15.69c2.98,0.35,4.3,2.45,5.13,5.13c2.09,6.72,3.49,13.43,2.65,20.6c-0.87,7.39-1.01,14.87-2.92,22.9
		c2.51-1.16,3.14-2.88,3.86-4.32c10.12-20.1,21.6-39.42,34.35-57.94c14.08-20.44,27.45-41.34,40.01-62.7
		c9.34-15.9,17.8-32.35,24.99-49.42c5.16-12.26,9.84-24.68,14.18-37.25c0.99-2.87,0.37-6.44,3.33-8.58c2.14,0.72,2.69,2.52,3.1,4.27
		c3.65,15.59,6.91,31.26,5.69,47.4c-0.44,5.78-0.86,11.55-1.4,18.28c2.76-2.7,4.87-4.68,6.89-6.74
		c18.25-18.63,38.03-35.46,60.43-48.86c13.01-7.78,27-13.66,42.43-14.96c2.57-0.22,5.23-0.99,8.51,0.88
		c-10.49,10.62-21.95,19.73-31.39,30.78C389.89,144.51,380.36,155.37,372.88,167.85z M209.26,517.75c0.26,0.25,0.53,0.5,0.79,0.76
		c8.85-4.17,17.74-8.25,26.54-12.52c8.98-4.36,18.14-8.6,27.71-10.98c7.08-1.76,10.67-5.08,12.02-11.74
		c0.2-0.98,0.59-1.91,0.82-2.88c3.69-15.33,4.36-30.95,4.17-46.6c-0.15-12.65-0.19-25.32,0.6-37.92c0.89-14.1,1-28.21,2.33-42.32
		c1.19-12.56,1.93-25.17,3.6-37.72c1.33-9.99,5.93-17.94,13.56-24.21c16.12-13.25,31.02-27.71,43.97-44.1
		c1.97-2.49,4.53-4.65,5.66-7.86c-1.69-0.68-2.94-0.05-4.15,0.36c-23.63,8.12-47,16.78-68.02,30.72
		c-13.17,8.74-26.17,17.51-37.15,29.17c-12.24,12.99-23.8,26.48-34.22,40.94c-4.66,6.47-9.76,12.67-13.38,19.85
		c-0.58,1.15-1.46,2.08-0.89,3.66c2.89,8,2.27,15.68-2.56,22.54c5.15,9.33,9.54,18.4,6.38,29.14c-0.56,1.9,0.45,3.49,1.24,5.18
		c2.74,5.82,6.77,11.11,7.1,17.94c0.08,1.57-0.29,3.59,1.67,5.22c3.51-6.97,6.86-13.63,10.2-20.28c3.27-6.51,4.8-13.83,8.41-20.16
		c2.71,1.06,3.03,2.87,3.15,4.43c0.82,11.06,4.26,21.93,2.61,33.18c-0.48,3.29-1.3,6.52-1.84,9.8
		c-2.95,17.95-7.13,35.55-15.08,52.04C212.25,508.03,210.72,512.86,209.26,517.75z"/>
</g>
</svg>
