<?xml version="1.0" encoding="utf-8"?>
<!-- Generator: Adobe Illustrator 24.0.2, SVG Export Plug-In . SVG Version: 6.00 Build 0)  -->
<svg version="1.1" id="Layer_1" xmlns="http://www.w3.org/2000/svg" xmlns:xlink="http://www.w3.org/1999/xlink" x="0px" y="0px"
	 width="861.03" height="797.25" viewBox="0 0 861.03 797.25" style="enable-background:new 0 0 861.03 797.25;" xml:space="preserve">
<g>
	<path d="M37.28,774.23c0.88-1.61,1.58-2.89,2.69-4.91c-9.46,1.04-18.3,0.06-27.16-0.43c-1.78-0.1-3.94,0.66-4.81-1.55
		c-0.89-2.27,1.22-3.13,2.6-4.24c0.77-0.62,1.7-1.1,1.8-2.25c-0.22-1.78-2.82-1.17-3-3.36c2.14-2.99,5.63-4.58,8.97-6.33
		c5.94-3.12,12.34-5.14,18.8-6.65c14.28-3.34,27.77-9.18,41.93-12.88c4.55-1.19,10.57-9.61,10.84-14.44
		c0.07-1.24-0.26-2.26-0.93-3.27c-1.2-1.8-2.86-3.5-3.4-5.5c-2.88-10.75-11.91-16.04-19.53-22.61c-8.23-7.09-15.31-15.2-21.51-24.12
		c-3.12-4.5-6.14-9.06-9.2-13.59c-3.77-5.57-5.41-11.75-6.74-18.11c-1.08-5.15,1.52-7.91,6.65-6.71c9.72,2.28,19.33,5,28.67,8.58
		c5.6,2.15,11.17,4.34,16.79,6.42c1.18,0.44,2.41,1.24,3.91,0.51c0.59-1.37-0.26-2.48-0.85-3.61c-1.03-1.99-1.38-4.13-1.24-6.3
		c0.42-6.53,2.21-12.79,4.18-18.97c0.81-2.55,2.91-4.03,5.78-3.93c1.91,0.07,3.04-0.67,3.69-2.58c2.74-8.07,6.69-15.58,10.7-23.07
		c0.62-1.16,1.65-2.48,1.52-3.62c-0.81-7.07,3.62-11.45,7.8-16c0.56-0.61,1.13-1.22,1.62-1.89c0.17-0.23,0.13-0.62,0.19-0.96
		c-0.53-0.89-1.45-0.76-2.17-0.56c-9.1,2.46-17.81,0.79-26.41-2.32c-0.94-0.34-1.95-0.5-2.84-0.94c-8.56-4.19-16.78-2.81-24.92,1.29
		c-2.07,1.04-4.22,2.04-6.45,2.62c-9.17,2.35-16.99,7.5-25.13,11.96c-4.09,2.24-8.09,4.63-12.54,6.12
		c-1.72,0.57-3.26,0.66-4.51-0.91c-1.26-1.58-0.12-2.73,0.67-4.01c3.95-6.45,8.85-11.96,14.77-16.77
		c8.26-6.71,15.55-14.53,23.46-21.67c8.29-7.49,17.78-10.55,28.4-11.77c7.27-0.84,14.5-2,21.74-3.11c3.22-0.49,5.96-2.19,8.4-4.22
		c6.41-5.32,12.73-10.74,19.05-16.16c2.18-1.87,3.85-4.03,4.26-7.09c1.3-9.72,3.54-19.27,5.43-28.86c-1.39-1.75-3.13-0.96-4.67-0.81
		c-11.12,1.06-22.25,1.61-33.42,0.77c-5.36-0.4-10.6-1.28-15.52-3.47c-2.55-1.13-4.55-1.03-6.87,0.77
		c-3.44,2.66-7.66,3.95-11.62,5.69c-0.95,0.42-1.95,0.44-3-0.52c-0.45-4.63,1.44-8.86,3.25-13.1c1.73-4.06,0.52-6.42-3.61-7.89
		c-5.41-1.93-10.93-3.66-16.59-6.65c6.72-5.63,14.86-5.85,22.46-9.04c-2.62-4.17-3.98-8.72-9.26-10.49
		c-3.87-1.3-6.71-4.45-9.01-7.69c-6.58-9.29-16.19-12.83-26.76-14.78c-7.16-1.33-14.37-2.46-20.97-5.88
		c-2.05-1.06-3.72-2.12-3.63-4.91c2.66-1.11,5.52-1.23,8.28-1.16c7.57,0.2,14.88-1.11,22.19-2.91c9.81-2.42,19.95-0.74,29.86-1.8
		c10.6-1.13,19.25,4.39,28.55,7.67c6,2.12,10.75,6.59,16.48,9.26c1.65,0.77,3.14,1.91,4.81,2.64c3.21,1.42,6.09,1.45,9.28-0.9
		c11-8.11,21.37-16.98,31.89-25.67c1.2-0.99,2.05-2.04,2.12-3.74c0.23-5.48,0.48-10.97,0.92-16.44c0.6-7.47-4.01-12.59-8.34-17.49
		c-5.35-6.06-10.19-12.27-13.19-19.83c-1.02-2.56-2.98-4.17-5.67-5.25c-5.56-2.22-10.94-4.88-16.44-7.25
		c-3.41-1.47-5.75-3.65-6.8-7.39c-4.55-16.11-16.91-26.32-28.4-37.17c-5.8-5.48-11.99-10.57-17.69-16.12
		c-4.44-4.33-7.47-10.04-10.76-15.99c5.64-2.87,10.72-1.97,15.52,0.47c3.85,1.96,6.88,5.26,10.46,7.67
		c12.88,8.66,26.64,15.73,40.79,22.06c5.23,2.34,10.94,2.75,16.54,3.4c4.98,0.58,9.88,1.19,14.54,3.26
		c4.17,1.86,8.68,2.35,13.22,1.98c8.14-0.67,15.84,1.23,23.44,3.83c1.15,0.39,2.17,1.04,2.78,2.03
		c4.84,7.95,12.16,12.01,21.92,13.46c1.54-3.56,3.27-7.65,6.32-10.91c1.47-1.58,2.74-3.35,4.26-4.89c1.28-1.3,2.05-2.78,1.58-4.49
		c-1.29-4.64,0.83-8.43,2.69-12.35c1.2-2.53,3-4.78,3.81-7.76c-7.39-6.24-15.76-11.58-20.06-20.41c0.6-1.5,1.44-2.17,2.4-2.36
		c2.89-0.58,4.55-1.95,5.16-5.08c0.45-2.28,2.33-2.38,3.99-0.5c0.75,0.86,1.11,2.07,2.75,2.76c2.37-5.21,8.36-8.94,5.93-16.09
		c-0.54-1.57-0.59-3.41-1.75-4.63c-5.61-5.89-9.93-12.96-16.56-17.93c-1.62-1.22-2.87-2.19-5.28-1.43
		c-3.03,0.96-5.93-0.01-7.53-3.22c-0.07-0.15-0.2-0.27-0.3-0.4c-4.8-6.33-6.93-12.66-1.23-19.81c2.24-2.81,3.35-6.49,6.39-8.81
		c1.59-1.21,1.57-3.23,2.06-4.97c1.74-6.22,3.46-7.58,9.84-7.63c4.08-0.03,7.89-0.79,11.25-3.31c4.95-3.71,10.92-5.66,15.95-9.3
		c5.4-3.91,9.79-8.55,12.14-14.84c4.67-12.5,11.09-24.17,16.97-36.11c6.53-13.26,12.84-26.63,19.44-39.86
		c3.41-6.84,7.19-13.51,10.93-20.18c2.37-4.22,6.42-6.15,10.95-7.14c5.25-1.15,6.5,0.01,5.66,5.22c-0.61,3.78-1.39,7.53-2.07,11.3
		c-3.97,21.94-8.04,43.87-10.88,66c-0.89,6.96-0.84,13.96-1.52,20.92c-0.42,4.31,1.39,6.28,5.71,6.3
		c17.65,0.07,35.33,0.54,52.95-0.26c8.3-0.38,16.58-0.83,24.88-0.75c2.8,0.03,5.65,0.02,8.25,1.45c0.74,3.57-2.11,3.86-4.14,4.47
		c-10.51,3.17-21.05,6.26-31.62,9.21c-6.91,1.93-13.64,4.32-20.37,6.77c-2.68,0.98-5.1,2.51-7.25,4.37
		c-3.43,2.97-3.08,6.52,0.82,8.85c16.58,9.9,32.88,20.22,48.45,31.67c1.9,1.4,3.65,2.93,5.02,4.82c0.83,1.14,2.1,2.29,1.06,4.02
		c-0.9,1.48-2.29,1.82-3.86,1.8c-9.33-0.13-18.66-0.21-27.99-0.42c-3.99-0.09-7.98-0.41-11.96-0.67c-1.55-0.1-3.02-0.13-3.91,1.99
		c4.18,4.01,9.87,5.01,15.06,6.83c14.6,5.13,27.74,12.88,40.34,21.67c1.62,1.13,2.98,2.65,4.41,4.05c0.32,0.31,0.42,0.85,0.61,1.26
		c-1,2.09-3.06,1.9-4.74,2.39c-8.99,2.63-18.35,3.16-27.49,4.94c-4.25,0.83-8.51,1.62-12.7,2.69c-3.88,0.99-4.32,2.15-3.19,6.07
		c1.24,4.31,2.57,8.62,3.51,13c0.76,3.55,2.64,4.52,6.06,4.06c8.09-1.1,16.2-1.98,24.3-2.93c3.8-0.45,7.64-0.68,11.42-1.3
		c7.65-1.26,14.9,0.84,22.16,2.54c10.73,2.51,21.49,3.11,32.1,0.08c9.74-2.78,19.27-2.17,29.08-0.61
		c14.31,2.28,28.75,3.42,43.29,2.18c7.48-0.64,14.81-2.16,22.19-3.38c0.98-0.16,1.96-0.54,2.94-0.53c9.6,0.12,18.2-3.81,26.87-7.03
		c14.95-5.56,29.71-11.64,44.5-17.62c3.73-1.51,7.57-2.59,11.46-3.41c15.31-3.24,30.46-7.19,45.9-9.79
		c3.32-0.56,6.64-0.46,9.97-0.38c2.43,0.06,4,1.23,4.79,3.66c-1.52,2.02-3.49,3.2-5.49,4.37c-15.09,8.8-30.37,17.3-45.2,26.52
		c-11.63,7.23-23.78,13.28-36.13,19.07c-7.91,3.71-14.02,10.1-20.76,15.52c-8.96,7.2-17.55,14.82-25.09,23.58
		c-3.86,4.49-8.66,7.55-14.82,8.46c-8.22,1.21-16.31,3.12-24.15,5.96c-3.82,1.38-7.84,1.47-11.85,1.21
		c-9.48-0.61-19.01-1-28.46-0.38c-8.75,0.57-17.53,1.67-26.09,3.91c-1.99,0.52-3.69,1.43-5.14,2.9c-4.8,4.87-10.43,8.88-15.14,13.75
		c-5.03,5.2-9.99,10.55-14.57,16.54c4.14,0.21,7.98-1.08,11.81-2.05c10.29-2.61,20.51-5.53,30.8-8.17
		c8.06-2.07,16.28-1.26,24.35-0.33c17.22,1.97,34.48,3.04,51.79,3.67c3.99,0.15,8.04,0.22,11.95,0.94
		c12.44,2.28,23.74-0.48,35.27-5.44c15.56-6.69,31.49-12.68,47.85-17.23c7.22-2.01,14.81-2.27,22.27-2.95
		c11.95-1.1,23.79-3.02,35.62-4.94c12.06-1.96,24.2-2.37,36.35-2.7c5.68-0.16,11.29-0.75,16.89-1.58
		c5.48-0.82,10.98-0.17,16.47-0.34c1.52-0.05,2.97,0.43,4.06,2.23c-0.53,3.24-2.91,5.05-5.91,6.33c-6.28,2.69-12.91,4.38-19.43,6.26
		c-15.27,4.41-29.57,11.1-43.95,17.69c-15.72,7.21-31.76,13.72-46.92,22.11c-14.4,7.96-28.83,15.91-41.52,26.56
		c-2.42,2.03-4.92,3.97-7.26,6.1c-12.1,10.98-27.93,15.21-41.6,23.28c-9.12,5.38-18.18,6.13-27.73,3.58
		c-5.72-1.53-11.08-4.44-16.57-6.79c-5.97-2.56-11.84-5.32-18.05-7.3c-5.57-1.77-10.89-2.21-16.38,0.58
		c-3.38,1.72-7.15,2.75-10.81,3.86c-5.41,1.64-9.52,5.01-13.47,9.11c2.41,2.3,5.09,0.77,7.38,1.41c1.42,0.4,3,0.21,4.45,0.54
		c2.98,0.68,3.48,2.15,1.56,4.55c-0.71,0.89-1.82,1.46-2.2,2.99c4.86,4.42,7.78,10.38,11.07,16.13c3.2,5.58,9.85,8.92,11.17,16.23
		c-6.72,1.83-12.63-0.57-18.66-1.25c-0.2,1.9,1.18,2.42,2.17,3.15c6.63,4.83,12.39,10.58,18.09,16.45
		c4.54,4.68,9.88,8.25,16.45,9.86c8.23,2.01,16.14,5.08,24.12,7.91c9.27,3.28,18.68,6.36,28.3,8.07
		c16.18,2.87,30.39,9.29,43.02,19.72c6.28,5.18,13.05,9.78,20.44,13.34c7.14,3.43,12.4,8.73,16.42,15.56
		c2.93,4.98,6.51,9.57,9.88,14.45c3.12-1.2,4.4-4,6.64-5.63c7.39-5.41,14.92-10.64,22.07-16.36c10.36-8.29,22.16-14.02,33.75-20.23
		c13.78-7.38,26.98-15.84,41.49-21.81c4.55-1.87,9.03-4.07,13.92-4.63c1.82,3.03,0.91,4.94-1.02,7.03
		c-11.89,12.85-24.68,24.71-38.38,35.58c-4.17,3.31-8.31,6.66-12.61,9.79c-11.92,8.68-19.61,20.67-26.25,33.45
		c-6.13,11.81-13,23.21-19.04,35.07c-2.67,5.24-6.64,9.79-10.76,14.53c2.25,1.06,4.23,0.66,6.09,0.34
		c11.5-1.96,22.71-4.99,33.85-8.49c13.17-4.14,26.06-9.08,39.28-13.07c2.07-0.62,3.97-0.52,5.44,1.29c1.4,1.72,0.84,3.36-0.15,5.07
		c-3.17,5.49-6.85,10.53-11.36,15.07c-3.74,3.76-7.21,7.81-10.99,11.57c-4.81,4.78-9.49,9.69-15.12,13.92
		c8.82,2.49,17.59,3.88,26.48,2.23c12.64-2.34,25.36-3.36,38.2-3.47c14.33-0.12,28.6,0.87,42.89,1.59
		c6.61,0.33,13.27-0.26,19.93,0.29c3.16,0.26,6.24,0.97,9.4,1.18c6.15,0.4,12.28,1.06,18.44,0.04c1.41-0.23,3.27-0.46,3.74,1.5
		c0.39,1.62-0.75,2.65-2.01,3.67c-2.02,1.64-4.5,2.13-6.77,3.1c-18.86,8.02-38.59,13.39-58.41,18.37
		c-11.79,2.96-23.46,6.33-35.1,9.78c-13.85,4.1-27.6,8.64-41.63,12.01c-8.08,1.94-16.57,0.52-24.84-0.74
		c-10.82-1.64-21.49-4.39-32.5-4.72c-2.45-0.07-4.81-1.56-7.24-0.58c-0.69,1.42,0.19,1.99,1.05,2.5
		c9.58,5.68,18.63,12.2,28.73,17.06c4.44,2.14,8.96,3.75,13.67,4.47c8.25,1.27,16.3,3.32,24.46,4.96c4.57,0.92,9.22,0.86,13.87-0.26
		c13.74-3.31,27.64-5.82,41.44-8.89c5.42-1.21,11.3-0.81,16.91,0.12c1.66,0.28,3.75,0.25,4.85,2.5c-1.99,3.11-5.23,4.31-8.63,4.93
		c-9.54,1.72-18.87,4.12-27.45,8.73c-7.53,4.06-15.94,4.62-24.04,6.38c-8.58,1.86-17.47,1.86-26.05,3.96
		c-6.09,1.49-12.35,1-18.33-0.24c-10.43-2.17-20.95-3.64-31.51-4.85c-9.09-1.04-18.24-1.48-27.31-2.79
		c-8.64-1.25-16.72-3.48-24.43-7.95c-9.2-5.33-18.39-10.75-27.97-15.43c-4.17-2.04-8.3-2.96-12.93-2.49
		c-22.6,2.3-45.17,2.01-67.67-1.4c-2.62-0.4-5.11-1.55-8.48-1.36c-0.03,4.48,1.73,8.29,4.24,11.68
		c9.61,12.97,19.35,25.84,29.09,38.72c3.05,4.03,5.26,8.48,6.79,13.26c1.22,3.8-0.16,5.12-4.39,4.27
		c-8.81-1.77-17.7-3.24-26.37-5.53c-8.13-2.15-16.47-2.19-24.66-3.5c-1.65-0.27-2.44,0.71-3.27,1.77c-2.91,3.7-6.9,6.25-10.27,9.46
		c-2.06,1.96-4.65,2.22-6.63-0.11c-3.39-4-8.46-6.62-9.91-12.25c-0.41-1.6-2.2-1.85-3.66-2.22c-4.13-1.03-8.28-0.97-12.36,0.12
		c-10.47,2.78-21.23,4.09-31.8,6.37c-1.52,0.33-2.97-0.03-4.49-0.52c-1.3-2.25-0.17-4.08,1.07-5.9c4.48-6.63,9.36-12.77,16.02-17.53
		c8.39-6,8.49-23.98,0.61-30.35c-1.63-1.32-3.31-1.95-5.42-2.11c-9.5-0.71-18.66-2.87-27.7-5.99c-10.73-3.71-21.12-8.05-30.91-13.81
		c-1.19-0.7-2.36-1.05-3.77-1.02c-11.38,0.28-22.48-2.16-33.71-3.4c-13.5-1.5-26.24-5.89-39-10.04c-7.4-2.41-14.87-4.86-21.91-8.32
		c-1.93-0.95-3.46-0.87-5.56,0.08c-5.3,2.4-10.96,3.93-16.65,5.12c-8.46,1.77-16.71,4.58-25.41,5.22c-3.01,0.22-5.19,1.98-6.97,4.37
		c-3.59,4.8-7.41,9.41-11.48,13.84c-2.61,2.84-5.61,5.14-8.53,7.44c1.09,9.04,3.23,17.78,3.72,26.76
		c0.44,8.08-7.49,17.75-15.53,18.76c-2.99,0.38-5.95,0.65-8.95,0.35c-14.57-1.45-28.98,0.64-43.29,2.61
		c-22.18,3.04-44.42,3.3-66.71,3.15C42.36,776.28,39.93,775.9,37.28,774.23z M398.43,497.32c-0.27,2.09,0.22,4.24,0.84,6.47
		c1.87,6.72,5.96,12.19,9.62,17.94c2.06,3.24,4.31,4.87,8.49,4.3c8.14-1.1,15.46,1.03,21.42,7.07c5.88,5.97,10.69,12.75,15.15,19.8
		c2.09,3.32,3.24,6.87,2.49,10.9c-0.27,1.45-0.21,3.02,0.51,4.4c4.02,7.69,6.71,15.94,10.02,23.92c1.07,2.57,3.06,4.45,5.24,5.9
		c5.82,3.87,11.74,7.59,17.75,11.15c16.22,9.6,33.49,16.97,50.97,23.88c7.91,3.12,16,5.65,24.46,6.87c4.45,0.64,8.6,0.48,12.18-2.7
		c10.82-9.62,22.02-18.78,33.27-27.9c7.75-6.28,14.75-13.48,22.53-19.77c1.34-1.09,3.22-1.92,3.14-4.59
		c-5.05-2.78-10.4-5.35-15.87-7.65c-14.88-6.26-28.61-14.82-43.5-21.15c-21.93-9.33-44.4-14.51-68.3-14
		c-12.46,0.26-24.94-0.51-37.12-3.85c-8.18-2.24-16.36-4.62-24.69-6.09c-8.68-1.53-14.83-6.35-19.88-13
		c-4.58-6.04-9.58-11.48-16.49-14.96c-3.11-1.57-6.05-3.51-8.67-5.86C401.16,497.64,400.34,496.66,398.43,497.32z"/>
</g>
</svg>
