<?xml version="1.0" encoding="utf-8"?>
<!-- Generator: Adobe Illustrator 24.0.2, SVG Export Plug-In . SVG Version: 6.00 Build 0)  -->
<svg version="1.1" id="Layer_1" xmlns="http://www.w3.org/2000/svg" xmlns:xlink="http://www.w3.org/1999/xlink" x="0px" y="0px"
	 viewBox="0 0 781.39 861.1" style="enable-background:new 0 0 781.39 861.1;" xml:space="preserve">
<g>
	<path d="M102.05,540.87c-1.69-0.46-2.58,0.32-3.41,1.14c-9.36,9.33-21.31,14.73-32.49,21.25c-13.5,7.88-28.56,11.82-43.47,15.98
		c-5.18,1.45-10.59,1.17-15.92,1.12c-4.13-0.03-7.01-3.31-6.75-7.39c0.12-1.81,0.6-3.6,0.92-5.4c-0.25-0.62,1.07-0.04,0.44,0.18
		s0.02-0.17,0.11,0.49c0.07,0.49,0.14,0.98,0.2,1.43c0.45,0.31,0.64,0.22,0.71-0.22c2.3-16.05,8.39-30.84,16.17-44.8
		c7.11-12.76,15.04-25.14,23.75-36.89c7.33-9.89,15.94-18.79,24.21-27.94c6.14-6.79,12.07-13.82,19.17-19.62
		c11.98-9.78,23.84-19.81,38.14-26.17c2.94-1.31,3.54-3.85,4.38-6.25c2.86-8.18,5.65-16.37,9-24.36
		c7.18-17.17,14.11-34.4,22.64-51.01c7.88-15.36,14.69-31.3,22.33-46.78c-1.21-2.33-3.38-3.32-5.39-4.43
		c-22.6-12.44-29.57-38.51-18-62.76c1.51-3.16,4.44-5.43,5.69-8.98c-1.36-2.15-3.86-2.57-5.98-2.89
		c-12.39-1.9-23.53-6.8-34.39-12.91c-15.42-8.68-29.34-18.94-39.48-33.72c-1.7-2.47-3.06-5.11-4.35-7.83
		c-2.95-6.24-1.49-11.62,2.53-16.66c8.7-10.93,19.2-19.81,31.16-26.99c1.84-1.1,3.67-2.22,5.63-3.42c-0.27-3.83-2.76-6.87-2.97-10.6
		c-0.42-7.42,1.4-14.2,5.14-20.51c0.86-1.46,1.74-2.77,1.5-4.6c-2.28-17.37,9.98-30.24,23.88-33.71c0.14-0.04,0.25-0.21,0.47-0.4
		c0.91-1.46,0.28-3.15,0.27-4.77c-0.06-9.98,9.14-19.17,19.06-20.39c10.61-1.3,17.27,3.67,22.01,12.07
		c1.87,3.32,3.89,4.38,7.48,4.01c5.36-0.56,10.58,0.68,15.82,1.71c6.15,1.2,6.22,0.83,9.26-4.4c8.03-13.84,19.45-22.38,36.01-23.34
		c14.95-0.86,27.66,3.6,38.69,13.81c4.61,4.27,8.89,8.86,13.68,13.87c6.55-9.05,15.22-12.32,25.74-12.19
		c11.32,0.14,17.06,7.55,22.54,16.58c6.05-8.56,13.64-13.62,23.83-12.94c7.19,0.48,14.02,2.44,19.27,7.71
		c-0.07,1.12-0.73,1.36-1.38,1.33c-8.39-0.37-14.09,4.23-18.85,10.36c-3.16,4.07-5.89,8.48-9.06,12.54
		c-6.04,7.72-13.02,14.17-22.97,16.65c-5.26,1.31-7.19,4.77-5.83,9.94c1.12,4.28-0.1,8.28-1.33,12.16
		c-0.53,1.68-0.33,2.66,0.26,4.06c5.38,12.57,22.94,20.2,36.25,14.97c7.21-2.83,13.52-7.15,20.29-10.71
		c10.24-5.39,20.81-9.25,32.45-10.85c23.31-3.21,43.63,3.92,62.72,16.28c17.78,11.51,31.19,26.86,40.06,46.1
		c1.74,3.77,3.02,7.74,4.43,11.65c0.33,0.91,0.39,1.95-0.39,2.74c-1.73,0.47-2.39-0.9-3.36-1.73c-7.91-6.74-16.81-11.14-27.26-12.55
		c-14.12-1.9-27.88-1.69-41.12,4.39c-6.56,3.01-12.79,6.69-18.03,11.51c-11.27,10.37-21.26,21.97-30.87,33.74
		c0.34,0.81,0.85,0.9,1.27,0.67c15.34-8.31,31.78-8.96,48.59-7.02c16.79,1.94,32.5,7.86,46.9,16.03
		c15.1,8.57,27.45,20.92,36.91,35.78c4.93,7.74,9.23,15.76,11,24.9c0.43,2.22,1.19,4.51-0.75,6.76c-1.94-2.11-2.39-5-4.53-6.69
		c-1.43-1.13-2.72-2.62-4.34-3.33c-10.36-4.5-20.87-6.01-31.1,0.13c-13.25,7.97-22.98,19.58-31.93,31.91
		c-0.5,0.69-0.79,1.45-0.44,2.72c2.05,0.02,3.4-1.54,4.91-2.57c19.19-12.99,38.5-11.47,57.27-0.54c13.29,7.75,20.4,19.8,23.21,34.44
		c1.75,9.09,0.54,18.12-3.23,26.7c-0.82,1.85-1.91,3.37-4.03,4.29c0.91-10.23-4.85-15.8-12.82-20.05
		c-9.53-5.08-19.66-4.36-29.79-3.18c-3.84,0.45-5.01,2.61-3.24,5.4c5.59,8.75,5.19,18,2.46,27.39c-0.52,1.77-0.35,3.08,0.08,4.69
		c1.03,3.86,2.26,7.72,2.71,11.66c1.31,11.38-1.83,21.08-11.68,27.88c-0.68,0.47-1.34,1.01-2.26,0.78c-1.1-0.88-0.27-1.84-0.06-2.71
		c2.75-11.64-2.57-19.52-13.16-25.16c-9.08-4.83-18.33-3.37-27.46,0.43c-12.15,5.05-23.53,11.68-35.52,17.06
		c-7.72,3.46-14.99,7.84-22.99,10.83c-10.23,3.83-20.91,5.34-31.51,7.25c-8.98,1.62-18.09,2.8-27.29,2.06
		c-15.69-1.27-30.86-4.58-45.4-11.79c-4.39,5.62-10.44,8.91-18.01,11.18c5.05,4.71,10.11,7.57,15.14,10.31
		c9.75,5.3,17.99,12.57,26.44,19.58c2.94,2.44,5.32,5.59,8.39,7.81c6.46,4.66,11.43,10.67,16.24,16.83
		c6.76,8.67,14.81,16.27,20.96,25.42c6.59,9.8,13.09,19.67,18.31,30.3c1.97,4.01,3.94,8.03,5.32,12.31
		c2.03,6.29,0.67,8.63-5.49,10.91c-9.57,3.54-19.59,3.5-29.51,4.39c-1.45,0.13-3.01-0.49-5.01,1.31
		c14.96,23.63,26.37,48.95,29.27,77.51c4.47,0.16,6.62-2.43,8.69-4.95c5.49-6.68,8.41-14.6,11.16-22.69
		c8.26-24.29,22.79-44.51,42.7-60.33c13.77-10.94,29.99-17.1,48.06-16.96c1.14,0.01,2.35,0.18,3.96-0.99
		c-0.55-10.76,2.71-20.54,13.21-25.87c9.83-4.99,19.99-4.09,29.55,1.32c2.85-2.28,4.17-5.22,5.89-7.81
		c9.92-15.02,24.11-21.8,41.83-21.87c4.68-0.02,9.32,0.37,13.92,1.22c4.58,0.84,9.03,2.16,13.42,3.7c1.48-1.05,0.79-2.46,0.61-3.65
		c-1.91-12.29,2.73-22.27,11.22-30.61c6.25-6.14,13.63-10.49,22.38-12.43c12.07-2.68,23.66-6.66,34.29-13.21
		c13.38-8.24,20.78-19.82,20.65-35.76c-0.05-5.81-2.3-11.03-4.91-16.08c-3.37-6.53-7.51-12.55-12-18.38
		c-3.65-4.73-7.05-9.64-9.39-15.24c-5.63-13.48-2.77-26.06,3.77-38.28c2.86-5.35,6.71-9.92,11.7-13.45c1.86-1.32,3.6-2.91,6.7-2.65
		c-1.52,4.1-3.28,7.74-4.12,11.75c-0.92,4.35-0.22,8.45,1.32,12.2c3.47,8.42,9.04,15.51,16.02,21.35
		c5.22,4.37,10.65,8.44,16.28,12.35c14.15,9.8,22.63,22.88,19.84,41.09c-0.43,2.82,0.71,4.77,2.65,6.59
		c4.63,4.35,8.51,9.34,12.07,14.6c3.11,4.6,5.2,9.63,6.24,15.05c0.82,0.26,0.81-0.37,1.07-0.9c1.29,1.69,1.48,3.59,1.47,5.54
		c-0.01,2.33,0.1,4.68-0.07,7c-0.3,4.15,1.08,8.35-2.57,12.25c-2.16,2.3-2.14,6.54-3.42,9.79c-6.54,16.62-19.42,25.59-36.25,29.68
		c-1.13,0.28-2.29,0.47-3.44,0.66c-4.97,0.84-4.67,0.87-5.26,5.95c-1.34,11.57-8.54,22.79-21.7,24.48c-3.41,0.44-4.18,1.9-2.6,5.18
		c3.01,6.24,7.26,11.47,12.7,15.82c11.96,9.56,22.07,20.69,28.88,34.59c5.29,10.79,6.27,22.08,5.51,33.93
		c-0.61,9.43-2.29,18.39-5.83,27.15c-8.11,20.06-23.3,30.66-44.3,33.17c-8.82,1.06-17.2-1.7-24.88-5.98
		c-3.01-1.68-4.88-1.05-6.94,1.17c-4.16,4.48-7,9.64-8.75,15.5c-3.06,10.26-4.65,20.78-6.06,31.35c-1.35,10.13-4.12,19.97-7.77,29.4
		c-3.75,9.69-10.09,17.99-17.97,24.9c-3,2.63-6.19,5.07-9.48,7.33c-13.02,9-27.62,10.35-42.6,7.62c-6.53-1.19-11.97-0.96-17.86,2.53
		c-10.75,6.36-22.59,10.13-35.22,9.22c-23.8-1.72-44.81-9.71-59.97-29.24c-5.03-6.48-8.11-14.05-10.21-21.95
		c-0.67-2.52-1.84-3.99-4.4-4.77c-4.95-1.5-8.68-4.79-11.83-8.81c-3.57-4.56-3.5-4.28-8.57-2.3c-18.97,7.42-38.57,10.08-58.76,6.83
		c-3.18-0.51-4.45,0.28-5.51,3.18c-3.43,9.41-2.37,17.89,4.25,25.62c5.2,6.08,10.61,11.96,16.04,17.84
		c9.57,10.35,17.85,21.54,21.19,35.66c3.42,14.44-1.67,33.15-17.19,41.95c-9.2,5.21-19.94,6.91-30.53,4.77
		c-11.2-2.26-21.38-6.98-30.09-14.8c-5.43-4.88-8.08-10.89-9.22-17.74c-1.23-7.34-0.56-14.56,2.12-21.6
		c3.49-9.15,7.79-17.96,10.9-27.29c3.72-11.18,1.67-19.31-7.65-26.48c-5.97-4.59-12.47-8.42-19.21-11.63
		c-9.35-4.46-17.96-10.17-27.04-15.05c-1.19-0.64-2.24-1.26-3.68-1.24c-10.58,0.12-20.88-1.69-30.97-4.79
		c-0.64-0.2-1.32-0.27-1.93-0.51c-5.25-2.05-9.66-1.66-14.67,1.91c-8.95,6.37-19.68,9.67-29.37,14.83
		c-1.47,0.78-3.01,1.43-4.48,2.21c-8.61,4.6-9.49,9.85-4.11,18.27c2.59,4.05,5.54,7.78,7.51,12.29c5.4,12.38-0.8,21.05-9.63,25.85
		c-10.24,5.56-21.09,9.75-32.41,12.89c-14.67,4.08-29.41,6.92-44.67,7.53c-6.43,0.26-12.91,1.2-19.37,1.7
		c-6.69,0.52-13.26,0.03-19.71-2.14c-7.89-2.66-12.17-11.54-6.42-19.2c1.2-1.59,2.34-3.34,3.87-4.54
		c6.69-5.22,12.59-11.41,19.83-15.96c2.55-1.6,5.15-3.12,7.96-4.16c12.96-4.79,25.53-10.58,38.62-15.03
		c4.12-1.4,7.75-3.91,10.97-6.84c5.38-4.89,5.15-10.35-0.57-14.73c-4.93-3.77-10.62-6.21-16.1-9.01
		c-13.49-6.9-24.07-16.66-32.22-29.64c-11.69-18.6-15.2-39.11-14.16-60.22c1-20.37,7.26-39.56,20.08-56.02
		c1.68-2.16,1.79-4.07,1.34-6.82c-1.45-8.86-2.83-17.77-2.99-26.8C102.49,543.98,102.82,542.45,102.05,540.87z"/>
</g>
</svg>
