<?xml version="1.0" encoding="utf-8"?>
<!-- Generator: Adobe Illustrator 24.0.2, SVG Export Plug-In . SVG Version: 6.00 Build 0)  -->
<svg version="1.1" id="Layer_1" xmlns="http://www.w3.org/2000/svg" xmlns:xlink="http://www.w3.org/1999/xlink" x="0px" y="0px"
	 viewBox="0 0 853.55 759.38" style="enable-background:new 0 0 853.55 759.38;" xml:space="preserve">
<g>
	<path d="M474.62,441.52c-4.39-1.53-8.77-1.19-12.97-1.95c-7.44-1.35-7.57-1.26-10.75,5.41c-8.06,16.91-17.71,32.82-29.45,47.43
		c-12.91,16.06-28.5,28.85-47.43,37.93c-19.46-10.15-32.85-26.25-43.34-46.24c-2.17,3.88-4.15,7.06-5.8,10.41
		c-8.6,17.46-17.82,34.59-27.08,51.71c-7.13,13.17-14.1,26.43-21.73,39.31c-9.15,15.43-17.68,31.24-28.01,45.98
		c-5.06,7.22-9.22,15.07-14.3,22.27c-5.85,8.29-11.99,16.39-18.35,24.32c-7.91,9.88-15.25,20.34-24.44,29.01
		c-9.39,8.86-16.15,19.75-24.8,29.11c-2.73,2.95-5.74,5.61-9.12,7.75c-3.75,2.37-6.27,1.06-7.02-3.28
		c-0.31-1.83-0.19-3.66,0.02-5.48c1.76-14.79,6-28.99,10.37-43.15c0.74-2.4,1.37-4.67,1.36-7.25c-0.1-20.03,4.32-39.28,10.2-58.28
		c3.78-12.22,7.4-24.5,10.96-36.79c2.01-6.92,5.38-13.26,8.17-19.84c5.53-13.02,9.72-26.55,15.77-39.37
		c10.64-22.58,20.43-45.58,32.89-67.26c3.88-6.75,7.58-13.7,12.92-19.53c4.55-4.96,10.01-8.74,15.62-12.34
		c3.17-2.03,6.31-1.41,9.43,0.32c3.18,1.76,5.94,4.23,9.49,5.64c2.76-3.16,4.19-6.87,5.46-10.63c0.68-2.01,0.01-3.84-0.94-5.72
		c-4.09-8.04-6.98-16.52-9.26-25.26c-1.64-6.28-0.07-11.4,3.96-16.16c4.78-5.64,10.44-10.34,16.33-14.67
		c12.38-9.1,25.3-17.6,40.5-20.91c7.34-1.6,11.09-5.89,15.15-11.37c6.76-9.12,15.42-16.14,27.04-18.24c3.24-0.58,4.27-2.08,4.8-5.16
		c1.26-7.31-0.45-13.78-4.12-20.06c-4.02-6.88-8.59-13.46-11.36-21.64c-4.4,3.7-8.05,1.84-11.96-0.34
		c-3.98-2.23-7.25-5.29-10.82-8.02c-1-0.77-1.81-2.32-3.36-1.42c-3.1,1.79-5.44,0.17-7.75-1.53c-3.48-2.56-7.31-4.67-10.48-7.65
		c-1.64-1.54-3.55-2.5-5.85-2.44c-10.67,0.29-21.3-0.32-31.92-1.29c-0.96-0.09-1.94-0.01-2.96-0.01
		c-2.36,5.24-4.56,10.29-7.54,14.89c-5.43,8.39-12.13,15.36-21.75,19.11c-4.99,1.95-10.05,2.37-15.17,1.4
		c-2.33-0.45-4.1-0.2-6.07,1.07c-2.66,1.72-5.68,2.76-8.71,3.7c-2.8,0.87-4.2,2.65-4.75,5.71c-1.5,8.34-3.34,16.62-5.17,24.9
		c-0.95,4.27-3.74,5.42-7.3,2.86c-5.82-4.18-11.49-8.54-16.63-13.57c-1.07-1.05-1.86-3.03-4.18-2.06
		c-1.69,8.18-3.37,16.42-5.11,24.66c-0.62,2.93-1.38,5.82-2.09,8.73c-0.44,1.79-0.94,3.54-2.12,5.02c-2.1,2.64-3.3,2.8-5.64,0.43
		c-6.66-6.77-12.62-14.14-18.3-21.74c-1.82-2.43-3.45-5.04-7.26-3.44c-2.36,0.99-3,2.92-3.37,5.12c-1.56,9.18-3.15,18.36-4.69,27.55
		c-0.39,2.32-0.88,4.6-1.98,6.68c-1.67,3.14-3.73,3.69-6.39,1.25c-4.29-3.94-8.26-8.22-12.43-12.29
		c-4.05-3.94-7.95-8.04-12.04-11.94c-3.37-3.22-6.22-2.81-9.81-1.32c-5.41,2.24-11.01,3.62-16.93,3.86
		c-4.35,0.18-8.35-0.74-11.81-3.15c-10.26-7.14-18.32-16.14-24.1-27.41c-4.13-8.05-5.93-16.52-7.27-25.23
		c-0.38-2.47-0.54-4.94,0.53-7.37c1.52-3.47,2.66-4.13,6.15-2.5c5.29,2.47,10.15,5.7,15.05,8.84c1.5,0.96,2.79,2.38,5.29,2.41
		c0.5-7.92,2.75-15.54,4.29-23.3c0.29-1.46,0.26-2.97,1.13-4.29c1.98-3.02,4.31-3.52,6.97-1.02c3.52,3.3,6.91,6.75,9.87,10.58
		c1.01,1.31,1.79,2.8,3.74,3.99c0.66-3.74,1.12-7.25,1.91-10.68c1.09-4.75,3.76-5.47,7.28-1.99c1.89,1.87,3.59,3.94,5.28,6
		c1.05,1.27,1.9,2.73,3.67,2.75c1.56-0.95,1.26-2.41,1.53-3.68c0.96-4.55,1.87-9.12,2.97-13.64c1.08-4.46,4.2-5.5,7.78-2.63
		c1.82,1.46,3.4,3.17,4.79,5.07c1.05,1.44,1.85,3.2,4.01,4.08c1.77-2.84,1.83-6.24,2.91-9.26c1.84-5.12,3.15-5.55,7.03-1.6
		c2.31,2.34,4.46,4.84,6.56,7.14c1.95-0.31,1.87-1.65,1.88-2.74c0.05-4.59,1.59-8.84,2.92-13.12c1.47-4.77,2.55-5.08,6.59-2.35
		c3.37,2.28,5.78,5.47,8.19,8.66c0.67,0.88,0.92,2.19,2.63,2.25c2.35-4.43,0.96-10.61,5.48-13.94c2.62,0.13,3.56,2.62,6,2.66
		c1.37-3.98,1.82-8.33,3.84-12.19c1-1.92-0.51-3.04-1.81-4.14c-1.44-1.23-2.9-1.64-4.46-0.28c-1.76,1.54-3.4,3.2-5.22,4.65
		c-3.82,3.05-5.88,2.31-6.7-2.62c-0.65-3.93-0.94-7.94-1.23-11.92c-0.15-1.98-0.52-3.5-2.71-4.21c-2.12-0.68-3.62,0.23-4.93,1.55
		c-3.18,3.18-6.25,6.47-9.38,9.7c-0.58,0.6-1.16,1.22-1.85,1.68c-2.01,1.36-3.79,3.93-6.51,2.92c-2.74-1.02-2.44-4.1-2.91-6.49
		c-0.64-3.22-1.14-6.47-1.68-9.57c-2.52-0.75-3.18,1.19-4.27,2.27c-2.24,2.21-4.11,4.78-7.09,6.2c-4.28,2.04-6.63,1.13-7.42-3.57
		c-0.57-3.42-0.6-6.97-0.57-10.46c0.03-3.02-0.46-5.91-0.97-8.74c-1.92-0.79-2.5,0.58-3.34,1.57c-4.31,5.09-8.69,10.1-12.92,15.25
		c-1.64,2-3.42,2.96-6.05,2.49c-2.7-0.49-2.52-2.86-3.16-4.59c-1.51-4.03-1.15-8.48-2.15-12.42c-2.02-0.62-2.49,0.7-3.12,1.55
		c-1.28,1.74-2.37,3.63-3.66,5.36c-1.76,2.36-3.95,4.43-7.11,3.63c-2.87-0.72-3.07-3.47-3.59-5.99c-1.2-5.88-2.24-11.76-2.56-17.76
		c-0.07-1.33,0.12-2.75-1.6-3.24c-1.57-0.45-2.93-0.26-4.04,1.09c-4.43,5.39-8.9,10.76-13.32,16.16c-0.52,0.64-0.73,1.56-1.31,2.11
		c-1.66,1.57-3.09,3.7-5.79,3.4c-2.91-0.32-3.34-2.91-4.24-5c-2.46-5.73-2.32-12.07-4.14-17.96c-0.29-0.94-0.32-1.97-1.47-2.75
		c-4.15,4.22-7.52,9.2-11.81,13.36c-5.11,4.97-7.59,4.9-12.22-0.53c-2.81-3.3-4.02-7.3-5.08-11.28c-1.46-5.43-2.69-10.95-3.85-16.42
		c-1.69-7.98-1.37-16.34,0.51-24.27c2.29-9.67,4.51-19.47,9.16-28.39c5.03-9.64,11.49-18.12,19.6-25.54
		c14.31-13.09,31.29-13.46,48.84-11c21.2,2.97,41.31,9.83,61.06,17.95c12.32,5.06,24.46,10.44,36.34,16.44
		c14.16,7.15,27.32,15.87,40.27,25c15.68,11.06,30.58,23.11,45.36,35.27c7.5,6.16,15.3,12.33,20.79,20.73
		c7.07,10.83,11.39,22.49,11.9,35.46c0.22,5.51,0.36,6.01,5.52,7.12c5.04,1.08,10.15,1.84,15.25,2.6c6.69,1,12.12-1.28,16.46-7.15
		c-0.98-5.74-0.76-12.01,0.12-18.3c0.95-6.74,2.02-7.52,8.83-6.22c3.31,0.63,6.27,2.21,9.31,3.5c5.96,2.52,11.22,1.8,15.96-2.6
		c-0.07-0.4-0.02-0.87-0.2-1.01c-11.85-8.58-17.4-22.01-25.69-33.33c-1.47-2.01-2.76-4.17-3.97-6.36c-0.84-1.53-2.19-3.05-1.12-5
		c2.06-1.68,4.2,1.12,6.43-0.32c0.69-3.18-1.15-6.09-2.01-8.89c-3.98-13.08-6.07-26.55-8.97-39.85c-1.06-4.87-2.51-9.66-2.65-14.7
		c-0.04-1.54-0.27-3.12,1.29-3.99c1.4-0.78,2.52,0.26,3.62,0.99c5.41,3.57,11.27,6.41,16.46,10.37c3.54,2.7,4.91,2.23,6.66-2.02
		c5.27-12.78,11.86-24.9,18.17-37.16c9.16-17.81,20.19-34.4,32.63-50.08c0.87-1.09,1.65-2.21,3.18-1.96
		c1.63,0.27,1.75,1.82,2.19,3.05c4.06,11.44,6.56,23.27,8.65,35.19c6.7-1.39,8.98-0.24,12.98,6.05c4.72,7.41,7.59,15.51,9.45,24.03
		c0.17,0.8,0.09,1.68,0.81,2.32c1.56,0.55,2.84-0.29,4.19-0.93c9.62-4.55,19.16-9.29,28.9-13.55c10.96-4.8,21.45-10.66,32.83-14.52
		c1.79-0.61,3.51-1.48,5.03,0.28c1.37,1.59,0.24,3.12-0.39,4.64c-4.4,10.49-11.07,19.71-16.6,29.57
		c-6.99,12.48-14.73,24.52-21.68,37.03c-2.41,4.34-5.33,8.4-7.96,12.51c-0.07,1.69,2.03,1.83,2.07,3.36
		c-0.09,0.25-0.1,0.74-0.31,0.85c-6.05,3.03-6.11,9.04-6.98,14.47c-1.45,9.06-4.16,17.8-6.34,26.68c-0.87,3.55-3.38,5.87-6.44,7.24
		c-6.02,2.69-9.07,7.06-9.83,13.6c-0.76,6.62-3.95,12.62-5.96,18.94c2.58,2.53,5.87,2.67,8.89,3.33c2.14,0.47,3.32-1.25,4.28-2.84
		c3.74-6.2,8.69-11.32,14.12-16.03c0.87-0.75,1.78-1.26,1.98-2.66c2.14-14.97,8.74-28.19,16.32-40.99
		c9.89-16.73,21.24-32.32,36.35-44.78c5.74-4.73,11.43-9.82,19.47-10.35c0.91-0.06,1.47-0.67,2.09-1.23
		c15.34-13.88,31.96-26.13,49.31-37.28c12.86-8.27,26.43-15.55,41.65-18.87c0.97-0.21,1.97-0.35,2.96-0.43
		c8.37-0.66,11.17,3.32,8.6,11.73c-3.66,11.97-8.96,23.27-13.67,34.83c-6.4,15.68-15.72,29.7-23.97,44.32
		c-2.02,3.58-4.64,6.83-7,10.24c1.74,1.39,2.7,0.03,3.6-0.73c9.56-8.08,19.84-15.19,30.15-22.23c6.86-4.68,14.03-8.98,21.36-12.89
		c9.11-4.86,17.1-11.58,26.59-15.77c15.83-6.99,30.67-16.09,46.77-22.47c11.25-4.46,22.65-8.56,34.6-11.02
		c6.04-1.24,12.04-2.78,18.19-2.88c14.04-0.22,27.74,1.05,40.64,7.76c14.21,7.39,24.52,18.26,30.95,32.67
		c3.55,7.96,4.07,16.69,4.41,25.4c0.86,22.06-4.39,42.71-14.97,61.81c-5.38,9.72-7.39,11.07-17.51,4.27
		c-5.42-3.64-9.94-8.34-14.54-12.94c-3.41-3.41-5.59-2.91-7.26,1.49c-1.53,4.04-2.47,8.25-3.61,12.41
		c-2.37,8.63-4.74,17.33-8.52,25.46c-3.21,6.91-5.76,7.2-10.11,1.15c-5.63-7.82-11.82-15.29-16.37-23.86
		c-0.3-0.56-0.83-0.99-1.27-1.49c-3.77,0.48-6.01,2.1-7.01,5.98c-1.44,5.55-2.83,6.43-7.38,6.32c-2.49,10.26-5.98,20.3-9.42,30.36
		c-0.87,2.55-2.05,4.9-3.54,7.13c-2.27,3.38-3.67,3.69-6.64,0.7c-4-4.02-7.47-8.49-10.33-13.42c-1.57-2.71-3.24-5.37-5.04-8.33
		c-5.06,2.55-9.13,5.4-10.87,10.71c-2.07,6.31-4.33,12.57-6.17,18.95c-0.92,3.18-2.63,5.66-4.45,7.81
		c-1.97,0.71-3.02-0.95-4.64-1.01c-1.38,5.79-0.64,11.54-1.62,17.19c0.35,0.13,0.69,0.26,1.04,0.39c2.41-1.61,4.73-3.38,7.24-4.8
		c3.81-2.15,5.99-0.92,6.39,3.42c0.11,1.16,0,2.33,0,3.5c0,0.98-0.36,1.98,0.15,2.98c1.31,0.87,2.18-0.26,3.03-0.85
		c4.14-2.89,8.73-4.82,13.44-6.52c4.05-1.47,6.01-0.22,6.02,4.1c0.02,5.83-0.66,11.6-1.65,17.34c-0.64,3.71-0.63,4,1.84,7.48
		c2.78-2,5.51-4.09,8.36-6c1.89-1.26,3.85-3.12,6.34-1.7c2.26,1.28,2.66,3.61,2.68,6.08c0.02,1.77-0.36,3.64,0.75,5.49
		c4.6-2.72,9.13-5.41,13.68-8.07c1.15-0.67,2.34-1.29,3.56-1.82c5.16-2.23,7.75-0.74,7.81,4.86c0.05,5.32-0.29,10.66-0.61,15.98
		c-0.16,2.65-0.02,5.19,0.51,8.15c5.24-2.31,9.75-4.77,14.6-6.41c4.39-1.49,7.6,0.79,6.72,5.14c-2.2,10.95-4.73,21.85-10.04,31.78
		c-3.55,6.63-8.06,12.55-14.74,16.58c-10.26,6.18-20.85,5.86-31.81,2.11c-5.96,5.17-12.71,9.16-19.07,13.71
		c-8.47,6.06-8.65,5.8-11.61-4.41c-1.87-6.46-2.87-13.01-3.23-19.65c-0.2-3.67-2.01-5.9-4.78-7.64c-2.67-1.68-5.76-2.58-8.39-4.4
		c-1.56-1.09-3.2-0.37-4.74,0.37c-3.74,1.82-7.6,3.43-11.18,5.51c-4.42,2.57-9.15,3.84-14.14,4.48c-3.74,0.47-5.9-1.03-5.78-4.87
		c0.16-5.31-0.36-10.66,0.73-15.93c0.95-4.65,0.47-8.63-3.89-11.8c-3.21-2.33-6.18-5-9.49-7.26c-2.07-1.42-3.52-1.08-5.4,0.1
		c-5.35,3.36-10.71,6.73-16.22,9.82c-5.91,3.31-9.16,1.52-9.43-5.4c-0.31-7.82-0.27-15.66-0.02-23.49c0.11-3.5-0.96-6.07-3.43-8.39
		c-4.1-3.87-7.05-8.83-11.64-12.49c-4.7,1.62-9.54,2.75-14.6,2.36c-8.01-0.62-14.53-4.55-20.31-9.71
		c-6.33-5.65-10.18-13.05-13.53-20.71c-0.33-0.74-0.71-1.46-1.2-2.48c-4.14,0.85-8.01,2.04-11.64,3.51
		c-0.22,1.79,0.82,2.48,1.79,3.07c8.75,5.37,15.96,12.55,23.03,19.84c7.47,7.72,7.79,8.09,3.18,19.86
		c-3.23,8.24-8.29,15.52-13.42,22.71c-6.91,9.7-15.1,18.16-24.33,25.65c-0.26,0.21-0.52,0.42-0.8,0.6
		c-7.12,4.94-8.94,4.75-15.63-0.61c-7.74-6.21-12.83-14.47-17.39-22.95c-6.39-11.89-10.9-24.61-14.46-37.64
		c-0.49-1.81-1.08-3.63-3.06-4.26c-2.06-0.66-2.92,1.2-4,2.36c-6,6.52-12.72,12.26-19.45,17.95c-4.27,3.62-6.98,7.79-8.05,13.32
		c-0.85,4.46-0.97,8.93-1.32,13.41c-0.13,1.68,0.16,3.26,1.34,4.66c1.28,1.52,2.35,3.23,3.52,4.85c3.98,5.53,8.44,9.41,16.14,9.54
		c5.08,0.09,10.27,2.59,14.89,5.34c5.15,3.06,10.66,5.46,15.64,8.83c9.38,6.34,15.54,15.43,21.18,24.89
		c2.03,3.42,3.99,6.9,5.75,10.51c3.07,6.27,3.18,12.5,0.87,18.88c-1.64,4.52-3.11,9.1-6.13,13.05c-1.95,2.56-2.56,5.75-1.89,9.23
		c2.59,1.51,5.67,1.41,8.53,2.08c11.17,2.63,22.36,4.99,32.72,10.36c5.75,2.98,9.64,6.92,12.17,12.98
		c4.42,10.58,9.79,20.76,14.03,31.44c6.85,17.28,13.43,34.66,19.93,52.08c4.59,12.28,9.17,24.6,14.16,36.74
		c4.88,11.87,7.92,24.36,12.34,36.39c4.53,12.33,8.76,24.76,12,37.51c3.36,13.2,7.07,26.3,8.99,39.85c0.72,5.07,2.84,10,2.79,15.17
		c-0.11,11.52,3.26,22.2,6.87,32.94c1.62,4.82,2.03,10.08,2.72,15.18c0.21,1.53,0.23,3.56-1.5,4.47c-1.92,1.02-2.92-0.8-4.21-1.78
		c-10.29-7.83-19.25-16.91-26.41-27.73c-0.63-0.95-1.54-1.76-2.46-2.46c-16.82-12.7-29.42-29.2-41.94-45.86
		c-15.53-20.65-29.58-42.31-44.41-63.43c-9.18-13.08-17.3-26.87-26.08-40.22c-15.46-23.51-29.3-47.96-43.01-72.5
		c-2.68-4.79-4.95-9.81-7.5-14.68c-1.86-3.56-1.42-6.99-0.08-10.6c4.51-12.2,11.87-22.65,19.78-32.78
		C472.52,445.51,474.27,444.31,474.62,441.52z M678.59,245.84c-2.58-2.09-3.92-4.61-5.79-6.69c-1.51-1.69-2.69-4.08-5.63-3.14
		c-3.34,1.06-6.92,1.98-7.99,5.94c-0.73,2.72-1.1,5.54-1.51,8.33c-0.31,2.12,1.06,3.33,2.66,4.41c1.64,1.11,2.92,0.76,4.51-0.3
		C669.13,251.56,673.57,248.94,678.59,245.84z M324.24,469.85c-2.33-7.29-4.01-14.52-5.33-21.84c-0.44-2.45-0.64-4.95-1.28-7.35
		c-0.67-2.53-2.59-3.17-3.86-1.3c-2.22,3.29-4.78,6.46-6,10.29c-0.77,2.42-0.46,4.76,1.57,6.87
		C313.92,461.32,319.52,464.96,324.24,469.85z M526.26,206.99c0.3,3.03,0.6,5.65,0.79,8.28c0.15,2.05,0.09,4.3,2.96,4.24
		c2.62-0.06,5.82,1.22,7.02-2.81c1.19-3.97,2.67-7.85,3.99-11.78c0.64-1.92,2.38-3.49,2.18-6.19
		C537.5,201.93,532.21,205.04,526.26,206.99z"/>
</g>
</svg>
