<?xml version="1.0" encoding="utf-8"?>
<!-- Generator: Adobe Illustrator 24.0.2, SVG Export Plug-In . SVG Version: 6.00 Build 0)  -->
<svg version="1.1" id="Layer_1" xmlns="http://www.w3.org/2000/svg" xmlns:xlink="http://www.w3.org/1999/xlink" x="0px" y="0px"
	 viewBox="0 0 926.92 612.83" style="enable-background:new 0 0 926.92 612.83;" xml:space="preserve">
<g>
	<path d="M413.29,567.25c-2.75,11.52,1.24,23.42-5.6,33.86c-15.89-13.64-25.04-31.46-36.19-48.94c0.52,8.51,1.33,16.3-0.24,24.81
		c-7.86-4.19-13.06-10.01-17.83-16.12c-4.67-5.97-8.75-12.4-13.04-18.55c-1.96,0.54-1.53,1.93-1.64,2.97
		c-0.45,4.48-1.02,8.93-2.41,13.24c-0.5,1.54-0.39,3.56-2.48,3.92c-1.93,0.34-2.98-1.29-4.04-2.5c-2.19-2.49-4.56-4.87-6-7.95
		c-0.34-0.72-0.73-1.52-2.33-1.67c-2.61,5.15-3.87,11.36-8.71,16.15c-8.96-4.85-10.26-14.88-15.18-22.84
		c-2.94,3.21-1.96,8.5-6.25,11.14c-5.45-3.51-8.16-9.3-11.44-14.59c-3.32-5.37-5.42-11.37-8.37-18.3
		c-2.17,5.85-2.88,11.15-6.46,15.91c-11-10.36-15.89-24-21.96-38.26c-2.15,6.72-3.3,12.68-7.86,17.91
		c-7.86-11.31-13.32-23.12-18.41-36.06c-1.91,4.85-1.77,9.51-4.85,13.68c-8.84-9.31-15.04-19.75-20.57-31.2
		c-2.28,4.6-2.67,9.72-7.16,13.72c-11.16-10.76-16.26-24.44-20.6-39.01c-3.06,3.1-1.41,8.57-6.1,10.49
		c-5.16-5.5-8.4-12.14-10.96-19.3c-2.85,1.54-2.22,4.93-5.19,6.46c-6.16-7.24-9.17-16.15-12.55-25.13
		c-4.15,1.72-4.56,6.38-7.53,9.09c-2.17-1.09-2.89-3.22-3.86-5.05c-6.18-11.72-14.24-22.06-23.01-31.92
		c-5.97-6.71-11.5-13.83-17.48-20.54c-7.64-8.57-15.76-16.71-23.24-25.42c-7.17-8.35-15.19-15.85-22.76-23.79
		c-8.43-8.84-18.56-15.69-27.51-23.91c-1.33-1.22-2.98-2.17-3.5-4.38c1.25-1.6,2.76-1.19,4.27-0.35
		c20.38,11.33,42.77,17.5,64.73,24.57c15.65,5.04,31.97,7.86,48.12,11.17c9.95,2.04,19.85,4.14,29.94,5.25
		c17.26,1.89,34.52,2.72,51.78,0.02c5.26-0.82,10.53-1.63,15.8-2.39c1.28-0.19,2.63-0.57,3.9,0.22c1.28,2.59-0.86,3.57-2.24,4.84
		c-7.08,6.54-14.17,13.06-21.75,20.03c2.56,0.28,4.16-0.88,5.78-1.6c17.01-7.46,34.84-12.17,52.91-16.14
		c1.95-0.43,3.87-1.03,5.84-1.32c2.59-0.39,5.3-1.02,7.77,1.47c-1.35,5.59-4.55,10.36-8.26,15.8c13.75-3.4,26.6-7.74,41.1-6.11
		c-2.99,7.22-8.25,12.11-12.73,17.79c5.94-2.44,11.9-4.87,17.83-7.33c11.25-4.67,22.76-8.51,34.64-11.21c2.43-0.55,4.86-1,7.58,0.17
		c-0.41,5.09-4.2,8.58-6.22,13.69c10.64-3.94,20.59-8.63,32.12-7.99c-0.62,5.47-4.52,8.92-6.98,13.73c2.32-0.31,3.56-1.43,4.88-2.3
		c7.41-4.88,15.38-8.59,23.71-11.58c1.78-0.64,3.71-1.35,5.12,0.23c1.26,1.41,0.08,3.12-0.28,4.73c-1.19,5.33-3.7,10.2-5.29,15.68
		c13.59-6.12,26.46-13.8,42.64-13.96c-2.82,8.03-7.16,14.39-11.77,21.64c17.53-9.5,33.5-20.14,53.3-23.53
		c0.51,12.28-8.36,20.48-11.65,31.18c3.13,0.12,5.38-1.21,7.72-2.22c10.22-4.41,20.91-6.62,32.03-6.68
		c2.39-0.01,2.39,0.08,5.37,1.64c-1.01,4.13-3.87,7.22-6.59,10.2c-17.4,19.11-37.29,35.12-59.79,47.89
		c-8.09,4.6-16.16,9.22-24.48,13.94c34.57,5.36,69.22,8.86,104.16,7.18c0.25-0.44,0.59-0.75,0.54-0.97
		c-2.74-10.77,1.16-19.72,8.06-27.53c6.53-7.39,15.3-9.29,24.62-7.78c7.88,1.28,14.69,5.38,18.36,12.56
		c2.63,5.16,6.23,6.04,11.47,5.69c-0.73-9.52,2.58-18.09,6.37-26.4c4.39-9.61,10.92-17.8,18.2-25.46
		c16.06-16.91,35.44-28.51,57.32-36.11c3.6-1.25,5.84-3.3,7.51-6.67c2.85-5.76,5.42-11.6,8.29-18.52
		c-8.45,5.08-16.39,8.85-23.96,13.26c-10.18,5.92-21.3,9.33-32.26,13.22c-1.48,0.52-3.07,0.83-4.08-0.65
		c-1.04-1.52,0.08-2.85,0.94-4.06c3.8-5.34,8.82-9.53,13.46-14.07c4.03-3.95,8.37-7.59,12.45-11.53c-1.5-2.26-2.73-1.5-3.73-1.31
		c-3.11,0.59-6.19,1.78-9.29,1.84c-8.13,0.17-8.88,0.05-9.86-7.98c-14.3,7.78-29.05,14.05-44.7,18.09
		c-15.52,4.01-31.15,6.66-47.05,5.28c-1.47-3.46,0.8-4.51,2.49-5.66c7.89-5.39,16.58-9.14,25.54-12.32
		c21.58-7.67,43.76-12.68,66.55-14.98c1.43-0.14,1.43-0.16,3.85-2.47c-3.33-1.83-6.98-1.97-10.39-2.73
		c-9.98-2.22-19.36-6.11-28.7-10.08c-11.17-4.76-22.38-9.49-32.78-15.87c-11.84-7.26-22.12-16.48-32.59-25.52
		c-8.22-7.1-15.91-14.69-23.26-22.63c-5.1-5.5-9.29-11.75-13.33-18.06c-0.91-1.42-1.95-3.06-0.63-4.57
		c1.34-1.53,3.12-0.42,4.67,0.03c12.99,3.83,24.9,10.28,37.28,15.57c9.49,4.05,18.4,9.29,27.65,13.84c1.75,0.86,3.27,2.19,5.31,3.59
		c-1.98,1.58-4.64,0.96-5.8,2.98c2.61,14.03,20.17,26.07,32.51,22.26c1.12-1.74-1.22-3.02-0.53-5.02c1.96-1.55,3.87-0.38,5.63,0.79
		c10.84,7.2,20.98,15.28,30.22,24.48c3.5,3.48,7.13,6.84,10.79,10.35c2.55-2.43,3.13-5.41,2.92-8.66
		c-0.23-3.49-0.45-6.98-0.08-10.48c0.16-1.52,0.45-2.9,1.46-4.15c3.94-4.83,7.58-4.74,11.19,0.36c0.76,1.08,1.4,2.28,2.3,3.24
		c1.61,1.7,2.9,1.05,3.99-1.07c-3.26-4.06-7.1-7.72-10.62-11.67c-8.75-9.82-17.57-19.59-25.94-29.73
		c-16.96-20.56-33.33-41.57-45.99-65.18c-1.2-2.23-1.23-2.21-0.79-5.74c2.84-1.02,5.08,0.7,7.36,1.89
		c11.56,6.02,22.03,13.72,32.54,21.35c9.82,7.13,19.82,14,29.87,21.08c1.12-2.31-2.14-3.57-0.57-6.16
		c14.92,5.18,27.33,14.31,38.91,25.13c1.2-0.07,0.83-2.02,2.22-2.22c1.03-0.01,1.67,0.82,2.41,1.47c0.61,0.54,1.21,1.09,2.19,1.98
		c0.83-1.85,0.25-3.47,0.29-4.96c0.31-10.36,4.5-18.36,14.1-22.87c2.89-1.36,3.81-3.08,3.54-6.2c-0.81-9.42-0.98-18.91-4.53-28.31
		c-9.12,7.11-18.58,12.96-29.72,15.76c-3.25-5.57-1.89-11.36-2.48-17.22c-6.65,2.24-12.45,5.54-18.83,7.32
		c-1.44,0.4-1.72,1.78-2.02,3.17c-1.4,6.6-5.27,7.65-10.77,2.64c-4.74-4.33-6.38-10.42-7.85-16.43c-4.39-17.9-1.91-35.39,3.39-52.66
		c3.18-10.35,6.88-20.51,11.37-30.38c0.97-2.13,1.93-4.18,4.24-5.08c1.57,1.45,1.39,3.23,1.8,4.8c2.14,8.21,8.09,10.83,15.64,6.9
		c9.65-5.02,10.77-20.27,1.99-26.75c-2.43-1.79-4.99-1.48-7.61-0.71c-1.41,0.41-2.55,1.62-4.16,1.39c-1.33-1.06-0.42-2.1-0.03-3.13
		c2.46-6.65,6.41-12.4,10.83-17.86c6.5-8.02,12.74-16.29,20.84-22.84c3.46-2.8,7.14-5.31,12.4-6.43
		c-0.05,15.67-0.48,30.87,2.15,46.31c13.1-11.15,25.14-23.12,42.23-27.16c1.33-0.31,2.64-0.31,3.89,1.09
		c-22.45,57.55-17.99,113.9,8.29,169.61c10.68-6.19,21.07-7.47,30.96-0.2c10.46,7.7,12.6,15.06,10.02,30.59
		c4.73,0.44,8.68-0.72,12.68-3.67c12.62-9.29,25.87-17.62,40.03-24.43c1.19-0.57,2.44-1.03,3.68-1.46c0.24-0.08,0.59,0.18,0.9,0.29
		c1.34,1.37-0.65,2.77,0.2,4.66c15.01-11.02,29.88-22.04,46.53-30.54c1.76,3.12,0.59,5.22-0.49,7.23
		c-5.42,10.14-11.75,19.65-18.58,28.93c-10.19,13.85-21.49,26.74-32.55,39.84c-12.59,14.91-26.08,28.95-41.54,40.97
		c-2.88,2.24-3.77,5.73-1.52,9.74c7.39,13.21,13.96,26.91,22.73,39.32c1.37,1.94,2.98,3.6,5.16,4.6c6.59,3.04,12.76,7.01,19.38,9.18
		c4.73-59.84,21.47-115.38,55.23-165.21c2.3-3.39,3.97-7.73,8.26-9.36c1.77,0.99,1.3,2.4,1.22,3.69
		c-1.24,19.34-4.63,38.35-8.93,57.22c-2.26,9.9-3.98,19.91-6.92,29.66c-0.79,2.63-1.85,4.85-3.96,6.53
		c-2.91-1.93-0.48-5.52-3.13-7.51c-2.5,0.2-3.9,2.11-5.11,4.02c-5.68,8.97-7.95,18.94-8.36,29.41c-0.04,0.97,0.27,1.98,0.58,2.92
		c1,3,1.93,3.29,4.71,1.56c0.95-0.59,1.56-1.82,3.26-1.48c1.22,2.34,0.07,4.69-0.49,6.98c-2.27,9.3-6.42,17.75-11.64,25.74
		c-4.18,6.4-8.19,12.9-12.28,19.38c0.64,1.46,1.96,1.67,3.27,2.03c2.39-1.56,2.46-4.2,2.96-6.58c0.49-2.33,1.18-4.53,2.78-6.31
		c4.15-4.63,9.89-3.76,12.8,1.89c0.21,0.42,0.6,0.74,0.9,1.1c1.9,0,3.02-1.43,4.47-2.14c3.51-1.72,6.75-1.49,9.8,0.97
		c2.98,2.4,4.28,5.45,3.45,9.28c-0.07,0.33-0.17,0.64-0.25,0.97c-1.91,7.46-1.99,7.62,4.84,11.23c9.74,5.14,8.28,14.52,0.76,20.01
		c-3.67,2.68-5.76,1.77-7.04-2.63c-0.87-2.99-4.25-4.5-7.05-3.07c-1.03,0.53-1.95,1.28-2.87,2c-2.73,2.14-5.65,2.64-8.9,1.3
		c-2-0.83-4.07-1.48-6.06-2.32c-1.91-0.81-3.75-1.78-6.59-3.14c1.68,3.28,2.76,5.64,4.05,7.88c8.46,14.77,15.11,30.33,21.4,46.13
		c3.94,9.9,8.2,19.63,10.88,29.96c1.38,5.31,2.44,10.71,3.56,16.09c0.26,1.25,0.67,2.69-0.72,3.65c-1.53,1.05-2.86,0.29-4.12-0.61
		c-3.83-2.73-7.12-6.05-10.05-9.68c-16.14-20.01-28.41-42.23-37.18-66.34c-3.65-10.05-5.36-20.62-6.2-31.28
		c-0.28-3.6-1.54-5.23-5.38-5.52c-6.67-0.51-12.94-2.91-19.2-5.17c-4.2-1.52-7.63-4.02-10.21-7.84c0,5.57,4.38,10.14,3.43,16.5
		c-5.5-1.65-7.94-6.35-11.59-9.44c-3.81-3.22-6.74-7.29-10.9-10.69c1.53,5.77,3.01,11.57,4.67,17.3c0.24,0.81,1.31,1.46,2.12,2.02
		c12.49,8.64,22.21,20.02,31.48,31.85c9.37,11.96,17.42,24.8,24.44,38.23c9.55,18.28,16.01,37.35,13.19,58.49
		c-1.33,9.93-4.2,19.54-5.85,29.4c-1.13,6.73-3.19,13.25-3.94,20.07c-0.46,4.18-0.66,8.23,0.38,12.36
		c3.21,12.66,7.44,24.88,14.74,35.84c2.52,3.79,5.68,6.93,9.69,9.21c3.22,1.83,5.9,4.29,7.78,7.79c-2.57,2.72-6.06,2.87-9.23,3.04
		c-12.63,0.66-25.27,1.36-37.77-1.63c-6.22-1.49-7.69-2.59-8.44-8.95c-1.59-13.48-7.3-25.15-15.52-35.72
		c-5.14-6.6-5.01-11.05,0.53-17.22c3.47-3.87,6.22-8.19,7.53-13.34c1.44-5.68-0.13-9.77-5.25-12.49
		c-13.5-7.2-26.99-14.43-40.58-21.46c-7.57-3.91-14.42-8.94-21.66-13.36c-2.35-1.44-4.21-1.81-6.92-0.87
		c-15.61,5.43-31.63,9.22-48.02,11.42c-3.99,0.54-7.76,1.44-11.42,3.24c-19.29,9.46-39.97,13.47-61.18,15.3
		c-5.79,0.5-11.53,1.46-17.11,1.26c-0.78,1.22-0.34,1.99,0,2.7c1.78,3.79,0.93,6.96-1.79,10.05c-5.5,6.25-10.52,12.89-15.48,19.59
		c-7.69,10.38-12.6,21.8-14.57,34.6c-1.09,7.1-9.59,14.84-16.55,15.26c-12.73,0.77-25.26-0.83-37.59-3.98
		c-0.42-0.11-0.77-0.54-1.17-0.85c0.22-2.49,1.96-3.97,3.61-5.21c14.26-10.77,23.57-25.68,33.41-40.09
		c6.58-9.64,8.73-20.32,4.57-32.27c-59.01-2.18-117.8-6.97-175.02-21.5c-0.98,0.98-0.86,1.62-0.49,2.2
		c16.98,26.21,29.14,54.51,36.8,84.78c0.95,3.75,1.26,7.55,1.69,11.34c0.41,3.65-1.01,4.45-4.45,2.65
		c-8.66-4.54-16.01-10.76-22.45-18.06C420.4,575.79,417.16,571.82,413.29,567.25z M710.91,53.46c-0.19,4.85,0.31,9.08,1.66,13.57
		C717.68,60.51,717.25,55.75,710.91,53.46z"/>
</g>
</svg>
