<?xml version="1.0" encoding="utf-8"?>
<!-- Generator: Adobe Illustrator 24.0.2, SVG Export Plug-In . SVG Version: 6.00 Build 0)  -->
<svg version="1.1" id="Layer_1" xmlns="http://www.w3.org/2000/svg" xmlns:xlink="http://www.w3.org/1999/xlink" x="0px" y="0px"
	 viewBox="0 0 850.45 613.05" style="enable-background:new 0 0 850.45 613.05;" xml:space="preserve">
<g>
	<path d="M118.02,448.12c-2.82,2.73-5.25,5.5-8.44,7.38c-1.88,1.11-2.06,2.74-1.32,4.76c0.98,2.66,1.49,5.44,1.48,8.32
		c0,4.24-1.69,7.5-5.58,9.24c-2.27,1.01-3.71,2.65-5.13,4.54c-6.47,8.66-15.06,14.44-25.14,18.13c-1.76,0.64-3.55,1.28-5.15-0.21
		c-1.91-1.77-0.18-3.33,0.44-4.94c1.53-3.99,3.56-7.83,3.9-12.64c-6.82-1.99-12.98-0.84-18.94,2.06c-1.98,0.96-1.54,2.82-1.04,4.4
		c1.06,3.33,2.31,6.6,3.47,9.89c1.49,4.24,0.44,5.7-4,4.82c-5.28-1.04-9.91-3.78-14.51-6.47c-7.6-4.43-12.01-10.57-11.9-19.86
		c0.05-4.2-2.17-8.38-0.12-12.7c0.25-0.53-0.41-1.55-0.76-2.29c-0.43-0.9-0.99-1.73-1.48-2.6c-6.15-10.83-5.75-15.55,2.17-25.29
		c2.62-3.23,5.28-6.43,7.89-9.66c2.08-2.57,4.67-3.63,7.95-2.86c4.55,1.08,8.91,2.68,13.12,4.74c6.12,2.99,12.24,5.99,18.4,8.9
		c1.62,0.76,3.37,1.24,5.52,2c1.59-4.65,2.89-9.3,6.35-13.2c-4.86-3.68-9.36-7.31-14.09-10.62c-13.72-9.6-25.46-21.44-37.49-32.96
		c-10.11-9.69-20.16-19.42-28.14-31.05c-1.8-2.62-3.39-5.33-4.9-8.12c-1.13-2.09-0.52-3.46,1.38-4.53c2.78-1.56,5.69-2.61,8.92-2.91
		c29.08-2.68,58.22-3.02,87.33-1.41c14.94,0.83,29.97,1.17,44.77,3.8c3.24,0.58,4.16-0.95,4.77-3.49
		c4.13-17.12,12.3-32.29,22.57-46.41c2.54-3.5,5.21-6.95,8.18-10.08c2.55-2.69,2.51-5.55,1.92-8.78
		c-1.37-7.53-2.48-15.12-4.04-22.62c-2.31-11.11-3.27-22.4-4.63-33.63c-1.44-11.9-2.51-23.85-3.74-35.77
		c-0.17-1.61-0.84-3.34,1.04-4.56c2.31,0.07,2.71,2.07,3.52,3.62c3.54,6.84,5.77,14.17,8.06,21.48
		c5.87,18.74,11.78,37.46,17.68,56.19c0.29,0.93,0.36,2.01,1.81,2.7c4.98-2.4,8.8-6.94,14.88-9.4c-6.34-6.81-11-13.85-16.16-20.52
		c-3.17-4.1-5.53-8.71-8.06-13.19c-1.94-3.44-0.46-5.18,3.6-4.78c7.47,0.74,14.79,2.33,22.07,4.1c1.24,0.3,2.43,1.16,4.03,0.5
		c0.99-2.19,0.19-4.52-0.23-6.71c-1.93-10.18-1.85-20.51-2.3-30.79c-0.1-2.4-0.61-4.48-1.77-6.62
		c-6.83-12.57-12.88-25.53-18.44-38.71c-0.68-1.62-1.58-3.61-0.12-5.2c1.64-1.78,3.76-0.93,5.61-0.2c4.8,1.89,9.54,3.91,14.31,5.88
		c1.06,0.44,2.01,1.25,3.84,0.72c2.16-3.28,1.59-7.66,2.63-11.57c2.06-7.71,3.47-15.59,5.34-23.36c0.5-2.09,0.31-3.79-0.53-5.74
		c-4.25-9.78-7.66-19.86-10.21-30.22c-0.28-1.13-0.61-2.26-0.77-3.41c-0.16-1.13-0.4-2.4,0.67-3.26c1.29-1.05,2.58-0.34,3.68,0.37
		c3.93,2.54,7.45,5.6,11.03,8.59c1.74,1.45,3.31,3.24,5.99,4.2c9.84-21.1,21.2-40.96,38.88-56.35c1.86-1.62,3.7-3.4,6.11-4.29
		c0.79-0.29,1.59-0.51,2.69,0.03c1.45,3.13-0.43,5.95-1.58,8.71c-4.3,10.33-7.55,20.98-9.99,31.89c-1.27,5.68-2.5,11.37-3.73,17.06
		c-0.24,1.1-0.81,2.24,0.51,3.8c4.5-1.91,9.17-3.89,13.83-5.87c0.91-0.39,1.81-0.9,2.76-1.09c3.47-0.71,4.83,0.76,3.7,4.08
		c-1.03,3.01-2.64,5.77-4.5,8.33c-6.36,8.75-12.17,17.93-19.96,25.56c-1.44,1.41-1.75,3.08-1.86,4.97
		c-0.81,14.14-1.54,28.29-1.12,42.46c0.33,11.02,2.16,21.85,4.8,32.54c0.32,1.28,0.84,2.51,1.26,3.74c1.82,0.01,2.3-1.35,2.86-2.51
		c7.53-15.6,15.67-30.87,24.5-45.76c4.08-6.88,8.56-13.5,13.17-20.02c1.19-1.68,2.15-3.82,4.55-4.37c2.47,1.25,1.64,3.43,1.49,5.28
		c-0.87,10.63-2.29,21.18-4.2,31.67c-2.86,15.73-5.53,31.48-7.8,47.31c-1.01,7.08-2.72,14.05-4.11,21.08
		c-0.32,1.59-1.12,3.17-0.04,5.08c3.68-0.38,7.38-1.2,11.07-1.82c13.16-2.21,24.67,1.35,35.2,9.1c3.48,2.56,7.25,4.75,10.38,7.77
		c1.33,1.29,2.66,1.44,4.52,0.95c17.5-4.68,35.3-4.27,53.07-2.38c5.03,0.53,10,2.4,14.83,4.25c3.53,1.35,4.59,0.77,6.08-2.76
		c1.79-4.24,2.74-8.45,0.82-12.99c-2.12-5-1.94-9.75,2.34-13.74c1.69-1.57,1.16-3.28,0.18-4.99c-7.97-13.85-14.13-28.63-21.93-42.58
		c-8.61-15.39-16.34-31.24-22.03-48c-0.51-1.5-1.82-3.18-0.05-4.56c1.96-1.53,3.38,0.22,4.82,1.25c7.91,5.65,14.6,12.63,21.27,19.62
		c8.86,9.28,17.68,18.59,26.5,27.9c0.69,0.73,1.31,1.51,2.84,1.38c0.99-4.12,1.06-8.36,0.86-12.57
		c-0.53-11.14-1.71-22.22-3.34-33.26c-0.83-5.64-2.61-11-3.91-16.49c-0.51-2.15-1.92-3.42-3.51-4.66
		c-12.79-9.97-24.4-21.16-34.6-33.77c-1.63-2.02-3.89-3.71-4.21-7.48c8.21-1.38,15.75,2.96,23.73,2.63c0.91-0.92,0.2-1.76-0.31-2.59
		c-8.63-14.04-17.79-27.74-27.27-41.22c-0.77-1.09-1.54-2.18-2.24-3.31c-0.78-1.27-1.86-2.71-0.71-4.11
		c1.23-1.49,3.11-1.13,4.64-0.46c4.57,1.99,9.23,3.9,13.26,6.88c10.87,8.02,21.11,16.76,29.99,27.01c1.51,1.75,3.12,3.46,5.51,4.85
		c2.57-2.45,5.3-4.82,7.76-7.44c4.12-4.4,8.87-8.06,13.44-11.94c2.96-2.51,4.67-1.84,5.14,2.21c0.86,7.34,0.07,14.66-1.28,21.87
		c-1.1,5.88-1.96,11.85-4.24,17.45c-1.11,2.73-0.6,5.14,0.98,7.55c6.04,9.17,12.15,18.31,16.51,28.46c0.97,2.25,2.02,4.46,3.15,6.96
		c11.04-5.06,21.62-10.39,33.29-13.21c1.39,3.03,0.41,5.29-0.19,7.43c-4.18,14.92-8.79,29.69-16.55,43.23
		c-0.91,1.58-1.18,3.22-0.58,4.79c3.7,9.72,5.26,19.92,6.89,30.11c0.05,0.29,0.35,0.54,0.66,1.01c4.81-1.42,9.69-2.86,15.08-4.45
		c-0.83-9.44-3.68-18.5-4.91-27.84c-1.19-9-4.14-17.77-3.32-27.12c3.69,3.88,5.53,8.7,7.44,13.31
		c8.79,21.21,18.33,42.13,25.62,63.94c0.78,2.33,1.63,4.16,4.68,4.25c18.63,0.55,36.61,4.36,54.05,10.89
		c0.6,0.22,1.29,0.19,2.9,0.42c-3.98-17.35-9.18-33.88-14.15-50.44c-4.7-15.63-12.94-47.1-12.41-49.98
		c2.52-0.42,3.44,1.61,4.61,3.13c5.65,7.32,9.06,15.89,13.23,24.02c7.62,14.86,13.27,30.56,18.36,46.39c3.5,10.9,6.59,22,9.31,33.16
		c0.56,2.29,1.6,3.67,3.75,4.82c13.39,7.16,26.17,15.32,37.57,25.4c6.98,6.17,13.87,12.51,19.71,19.8c1.91,2.38,3.73,2.81,6.45,2.08
		c32.65-8.85,66.01-14.4,99.17-20.89c10.42-2.04,21.16-2.45,31.75-3.58c3.64-0.39,7.28-0.92,10.93-0.98
		c5.38-0.08,7.48,3.01,5.99,8.06c-1.06,3.57-2.86,6.77-4.87,9.81c-12.23,18.51-25.74,36.02-40.41,52.68
		c-20.82,23.65-42.69,46.25-66.05,67.41c-2.73,2.47-6.75,3.97-6.4,8.86c0.1,1.46-1.68,2.05-3.06,1.9c-2.07-0.24-3.43,0.64-4.79,2.05
		c-8.81,9.12-18.21,17.58-28.48,25.05c-0.55,0.4-1.03,0.84-1.18,1.59c0,1.66,1.35,2.57,2.27,3.7c8.35,10.16,5.32,11.84,0.14,20.24
		c-2.71,4.4-7.28,7.29-11.57,10.17c-3.16,2.13-4.82,1.28-5.41-2.46c-0.18-1.15-0.24-2.32-0.42-3.47c-0.35-2.15-1.2-3.37-3.79-3.71
		c-9.41-1.27-15.48-0.63-22.94,3.13c0.11,1.63,2.54,1.46,2.66,3.33c-2.47,4.86-7.22,6.96-12.24,8.08c-8.77,1.96-17.51,3.07-24.43-5
		c-2.35-2.74-5.97-3.49-9.46-4.08c-28.65-4.88-55.7-14.18-80.96-28.7c-6.46-3.71-12.72-7.75-19.4-11.88
		c-3.28,7,0.18,13.97-1.56,20.28c0.41,0.91,1,1.18,1.67,1.32c19.73,4.17,30.66,17.22,35.06,36.02c4.34,18.56,0.91,36.71-4.77,54.51
		c-0.51,1.61-1.09,3.12-0.95,4.8c0.93,11.54-1.99,22.46-5.29,33.32c-1.21,4.01-2.58,7.93-5.35,11.18c-0.64,0.76-1.27,1.56-2.76,1.75
		c-6.55-2.89-8.16-10.17-12.24-15.59c-4.04,2.66-7.9,5.22-11.77,7.75c-1.47,0.96-2.13,2.41-2.87,3.94
		c-4.16,8.55-8.87,16.77-15.22,23.96c-3.73,4.23-5.91,4.22-8.55-0.87c-3-5.78-5.64-12.1-5.68-18.48
		c-0.06-8.99-4.58-14.85-10.89-20.53c-2.34,1.48-3.66,4.45-6.73,5.33c-4.23,1.21-5.83,0.42-6.67-3.88
		c-1.24-6.27-1.75-12.64-0.65-18.88c1.32-7.53,0.19-14.88-0.4-22.31c-1.91-0.86-2.78,0.72-3.82,1.6c-5.71,4.81-12.58,7.5-19.3,10.36
		c-6.83,2.91-13.73,1.05-20.49-0.93c-8.58-2.51-17.17-4.99-26.07-7.58c-8.85,16.79-24.11,26.87-38.56,37.79
		c-2.92,2.21-5.83,4.43-9,6.3c-3.47,2.05-6.39,4.67-8.7,8.07c-5.93,8.74-14.8,14.35-22.95,20.59
		c-10.93,8.38-21.85,16.92-35.16,22.35c-2.53-0.64-3.34-2.57-3.16-5.47c0.42-6.82,3.12-12.9,5.75-19.02
		c0.65-1.51,1.33-3.01,1.95-4.39c-1.27-2.37-3.62-1.84-5.36-2.6c-2.6-1.14-5.17-2.3-7.52-3.9c-2.45-1.68-4.67-3.44-8.15-1.77
		c-2.21,1.06-4.51-0.88-3.49-3.09c2.94-6.41-3.4-8.87-4.48-14c-7.8,3.88-15.08,7.1-22.95,8.64c-0.82,0.16-1.61,0.44-2.42,0.58
		c-1.58,0.28-2.92-0.05-3.99-1.41c-1.26-1.59-0.28-2.81,0.5-4.06c3.79-6.11,8.43-11.55,12.98-17.09
		c5.4-6.58,11.26-12.69,17.19-18.77c1.06-1.08,2.02-2.21,2.65-3.6c6.57-14.62,16.98-26.1,29.13-36.28
		c10.38-8.69,21.21-16.67,33.23-22.96c2.19-1.14,4.43-2.18,7.03-3.46c-1.99-5.05-4.66-9.64-6.48-14.58
		c-0.68-1.83-2.47-0.87-3.82-0.04c-11.66,7.21-24.32,12.39-36.74,18.04c-14.71,6.7-30.1,11.61-45.19,17.31
		c-0.16,0.06-0.34,0.06-0.48,0.14c-11.95,6.77-23.6,4.48-35.39-0.73c-19.17-8.47-38.17-17.23-55.8-28.68
		C122.57,450.6,120.49,449.54,118.02,448.12z"/>
</g>
</svg>
