<?xml version="1.0" encoding="utf-8"?>
<!-- Generator: Adobe Illustrator 24.0.2, SVG Export Plug-In . SVG Version: 6.00 Build 0)  -->
<svg version="1.1" id="Layer_1" xmlns="http://www.w3.org/2000/svg" xmlns:xlink="http://www.w3.org/1999/xlink" x="0px" y="0px"
	 viewBox="0 0 858.73 766.27" style="enable-background:new 0 0 858.73 766.27;" xml:space="preserve">
<g>
	<path d="M636.44,321.91c-2.55,1.04-5.28,0.85-7.77,0.23c-10.81-2.72-19.95,0.95-28.67,6.84c-9.36,6.31-17.49,13.89-23.91,23.17
		c-6.17,8.91-7.71,19.14-4.51,29.12c5.67,17.69,15.48,32.67,32.53,41.75c4.22,2.25,5.08,3.17,7.37,6.94
		c-2.68,1.19-5.16,0.65-7.6-0.32c-19.99-7.96-38.41-2.63-55.5,7.86c-8.08,4.96-12.52,13.62-13.74,23.4c-0.12,0.99-0.1,2-0.18,2.99
		c-0.14,1.64,0.06,3.47-1.75,4.38c-1.92,0.97-3.09-0.53-4.36-1.55c-1.96-1.56-3.87-3.16-5.85-4.69c-1.54-1.2-3.11-2.4-5.67-2.47
		c0.63,2.36,2.51,3.32,3.6,4.81c8.34,11.51,13.47,24.36,16.63,38.15c2.99,13.01,3.35,25.97,0.47,39.01c-0.27,1.24-0.25,2.36,1,3.02
		c3.84,2.02,7.58,4.1,10.63,7.33c2.85,3.02,5.3,6.35,8.03,9.76c6.19-4.45,12.25-8.78,18.27-13.17c1.21-0.89,1.99-2.19,2.72-3.53
		c10.22-18.56,21.67-36.29,35.61-52.31c1.9-2.19,3.59-4.82,7.41-5.55c1.9,5.09-0.49,9.78-1,14.51c-0.51,4.71-3.1,8.96-3.69,14.79
		c5.95-4.69,11.09-8.84,16.28-12.88c22.33-17.39,43.71-36.04,67.71-51.18c21.29-13.44,43.69-24.88,67.49-33.21
		c11.45-4.01,23.42-6.17,35.64-7.08c9.82-0.73,19.63-0.85,29.45-1.02c6.69-0.12,13.27,1.08,19.9,1.61c2.05,0.17,3.81,1,5.76,2.56
		c-2.95,1.82-5.92,1.64-8.75,1.6c-32.24-0.51-63.24,5.81-93.26,17.22c-17.85,6.78-33.9,16.94-49.71,27.47
		c-22.65,15.07-43.82,32-64.15,50.07c-9.45,8.39-19.62,15.99-29.66,23.7c-3.62,2.78-5.58,6.37-6.82,10.88
		c2.93-1.96,5.86-3.92,8.78-5.89c2.92-1.96,6.09-3.43,9.27-4.89c1.74-0.8,3.34-1.35,5.05,0.23c1.72,1.58,0.63,3.03,0.09,4.54
		c-3.8,10.64-9.92,19.93-16.86,28.74c-0.92,1.17-2.1,2.17-2.46,3.8c0.85,1.44,3.28,0.75,3.93,3.21
		c-1.95,5.93-6.72,10.48-10.93,15.29c-2.94,3.36-6.5,6.22-10,9.03c-3.77,3.02-3.88,3.24,0,6.92c15.63-8.99,26.62-8.09,38.65-2.36
		c3.1-3.66,5.79-6.9,4.98-12.8c-1.82-13.2-2.18-26.63,0.1-39.82c2.23-12.94,5.46-25.72,10.44-37.95c0.94-2.31,1.63-5.99,4.71-5.8
		c3.27,0.2,3.04,3.97,3.54,6.4c1.61,7.84,2.42,15.8,2.64,23.81c0.04,1.32-0.24,2.67,0.61,4.21c2.62-1.62,2.64-4.79,4.25-6.89
		c1.16-1.51,1.51-4.26,3.99-3.89c2.75,0.41,3.37,3.1,3.63,5.39c0.82,7.11,1.9,14.31,0.98,21.41c-0.59,4.55,1.98,7.17,4.4,10.93
		c5.22-7.47,13.16-10.93,20.66-14.68c0.29-12.79,5.96-22.23,16.35-28.84c2.29-1.45,3.15-2.99,3.01-5.64
		c-0.96-17.79,1.84-35.19,5.48-52.51c0.8-3.78,2.32-7.3,3.86-10.8c0.85-1.94,1.81-3.9,4.06-4.45c1.43,0.92,1.39,2.19,1.19,3.27
		c-0.47,2.56,0.75,4.05,2.75,5.32c2.47,1.55,4.11-0.17,5.82-1.37c5.85-4.14,11.63-8.35,17.45-12.53c1.21-0.87,2.44-1.72,3.99-2.07
		c2.95,2.16,1.8,5.55,2.67,8.38c2.58,1.22,4.03-0.86,5.56-2.11c7.68-6.26,16.25-11,25.26-15.01c2.13-0.95,4.32-1.67,7.03-0.95
		c-0.44,3.49-3.45,4.41-5.38,6.21c-1.43,1.33-3.94,2.03-4.06,4.13c-0.17,2.94,0.16,6,0.83,8.88c0.6,2.58,2.84,1.81,4.53,1.16
		c5.42-2.1,10.8-4.28,16.16-6.52c1.54-0.64,2.93-1.63,4.92-0.87c1.1,2.84-0.43,5.71-0.53,8.86c6.85,2.57,13.9-0.29,20.89,0.29
		c0.07,3.2-1.96,3.85-3.67,4.7c-18.37,9.08-36.1,19.31-53.33,30.37c-11.77,7.56-23.26,15.55-33.29,25.41
		c-2.01,1.98-3.9,4.11-5.68,6.3c-2.63,3.25-3.8,6.09-2.11,11c5.32,15.47,0.37,28.82-11.23,39.8c-2.45,2.32-3.63,4.74-4.43,7.97
		c-3.8,15.34-12.24,26.84-27.93,31.82c-2.26,0.72-3.76,1.76-4.36,4.21c-0.93,3.75-3.59,6.65-5.85,10.31
		c6.73,4.34,13.47,8.22,18.73,13.71c-1.07,4.13-4.56,2.32-7.22,3.65c3.61,3.84,7.03,7.57,10.56,11.21
		c3.26,3.36,6.25,6.92,9.07,10.64c0.92,1.21,1.89,2.48,0.93,4.07c-1.04,1.71-2.59,0.94-4.04,0.67c-4.88-0.91-9.54-2.63-15.25-4.45
		c5.66,9.22,13.31,16.01,17.43,25.46c-3.75,1.35-6.29,0.3-8.89-0.89c-13.27-6.08-24.03-15.45-33.99-25.86
		c-5.64-5.9-11.4-11.7-16-18.49c-0.86-1.27-1.82-1.83-3.33-1.55c-0.98,0.18-2.01,0.45-2.97,0.31c-4.2-0.6-6.43,1.44-8.63,4.9
		c-5.21,8.2-13.55,12.18-22.59,14.45c-12.57,3.15-25.06,2.76-37.16-2.37c-1.46-0.62-2.74-1.19-4.17-0.09
		c-4.26,3.29-9.38,4.96-14.6,7.57c6.93,12.36,10.83,25.5,12.55,39.75c-5.03-0.05-7.19-4-11.64-5.44c1.99,5.58,3.4,10.75,4.5,15.99
		c1.71,8.16,3.25,16.34,3.71,24.68c0.09,1.62,0.62,3.38-1.68,4.61c-9.3-5.54-13.73-15.48-20.42-24.23
		c-1.4,13.06,0.04,25.83-3.32,38.2c-3.13-0.75-3.98-2.67-4.95-4.34c-4.7-8.11-8.44-16.6-9.97-25.95
		c-1.24-7.54-3.21-14.92-4.05-22.57c-1.46-13.28,0.52-26.24,2.78-39.19c0.53-3.04,0.51-4.66-2.61-6.33
		c-4.96-2.66-9.48-6.11-13.75-9.9c-5.51-4.89-9.11-10.98-11.9-17.59c-0.88-2.08-1.78-3.25-4.01-3.78
		c-4.04-0.96-8.14-1.91-11.97-3.47c-6.72-2.74-12.28-7.31-16.98-12.75c-2.12-2.45-3.82-3.26-7.18-2.44
		c-16.04,3.91-32.23,4.49-48.57,1.69c-14.6-2.5-26.89-9.41-37.88-18.97c-13-11.31-24.09-24.38-34.71-37.88
		c-2.14-2.73-4.28-5.45-6.58-8.39c-5.3,4.97-8.42,11.12-12.16,16.74c-5.7,8.58-10.84,17.55-16.27,26.31
		c-10.29,16.6-23.44,30.19-41.08,39.08c-13.16,6.63-26.73,9.05-41.57,6.74c-14.89-2.32-25.47-10.8-35.28-21
		c-7.64-7.93-13.57-17.22-20.28-25.9c-7.45-9.65-16.34-17.53-28.19-21.46c-0.63-0.21-1.25-0.45-1.89-0.63
		c-6.74-1.91-7.4-1.32-7.28,5.67c0.06,3.66-0.08,7.33-0.34,10.98c-0.52,7.5-5.67,11.41-11.77,14.2c-6.79,3.11-13.8,5.76-21.06,7.63
		c-6.8,1.75-11.52-1.77-11.64-8.77c-0.03-1.89-0.82-3.06-1.89-4.39c-2.76-3.42-2.99-4.13-3.4-8c2.53-1.58,4.6,1.91,7.27,0.56
		c1.04-0.88,0.59-2.28,0.58-3.56c-0.1-10.82-2.44-21.19-7.29-30.82c-2.9-5.76-8.11-9.64-13.38-13.21
		c-8.16-5.54-17.1-9.6-26.11-13.53c-1.59-0.69-3.13-0.85-4.79-0.61c-0.05,2.27,2.86,3.8,0.83,6.38c-3.09,0.31-5.54-1.28-7.74-3.35
		c-2.6-2.45-5.47-4.21-9.04-4.98c-3.7-0.8-5.5-3.67-6.04-7.16c-0.37-2.38-1.07-4.32-2.73-6.18c-2.28-2.55-2.97-5.94-3.27-9.28
		c-0.41-4.56,0.83-6.07,5.37-6.6c2.64-0.31,5.32-0.31,7.98-0.46c5.47-0.3,7.31-3.63,4.46-8.1c-4.79-7.51-10.9-13.86-17.69-19.52
		c-3.56-2.96-6.18-6.82-9.84-9.65c-0.63-0.49-0.56-1.52-0.31-2.36c3.31-2.18,6.9-3.12,10.81-2.16c2.24,0.55,3.48-0.36,4.23-2.36
		c1.76-4.67,3.77-9.26,5.3-14.01c6.94-21.51,13.76-43.05,23.11-63.7c4.87-10.74,8.28-22.08,12.72-33.02
		c6.01-14.79,12.07-29.53,19.25-43.82c8.73-17.38,16.48-35.22,23.69-53.29c8.47-21.24,19.79-41,32.14-60.18
		c0.18-0.28,0.32-0.59,0.54-0.84c1.45-1.7,2.66-4.69,5.31-3.4c2.46,1.21,0.75,3.92,0.33,5.89c-3.78,17.41-8.42,34.57-14.17,51.46
		c-2.67,7.85-4.13,16.16-4.89,24.44c-0.71,7.64-1.85,15.2-3.1,22.74c-1.11,6.68-4.91,12.34-7.62,18.4
		c-3.36,7.52-5.9,15.17-6.62,23.41c-0.14,1.58-0.72,3.13-1.21,5.15c3.13-0.31,5.9-0.54,8.65-0.87c2.07-0.25,2.57-1.87,2.87-3.58
		c3.82-22.06,13.46-41.69,25.28-60.4c1.24-1.97,2.64-3.83,3.95-5.76c4.28-6.29,2.96-5.94,9.76-3.05c3.36-2.92,5.46-6.97,7.94-10.61
		c9.95-14.6,21.17-28.22,31.78-42.31c11.59-15.39,25.48-28.5,40.08-40.98c6.57-5.62,12.9-11.52,19.67-16.91
		c2.2-1.76,4.62-3.26,6.99-4.8c1.14-0.74,2.41-1.26,3.78,0.37c-0.43,2.95-2.99,4.52-5.16,6c-4.02,2.75-5.98,6.44-6.92,11.07
		c-2.07,10.12-3.91,20.26-4.72,30.57c-0.14,1.78-0.66,3.63,0.14,5.38c1.63,0.87,2.46-0.27,3.43-1.2
		c14.81-14.04,31.25-25.93,48.58-36.62c2.51-1.55,5.22-2.78,7.45-3.96c2.72,0.4,2.19,3.22,4.23,4.07c2.19-1.51,4.65-2.91,6.75-4.72
		c7.48-6.47,16.37-10.87,24.27-16.68c14.64-10.77,30.28-19.96,45.67-29.54c11.85-7.38,24.27-13.85,36.36-20.84
		c18.59-10.76,37.63-20.68,57.23-29.41c9.09-4.05,18.45-7.59,27.38-11.96c14.67-7.18,29.93-12.98,44.95-19.28
		c14.08-5.9,28.86-10.14,43.3-15.2c17.21-6.03,35.14-8.88,53.03-11.81c6.07-0.99,12.28-0.96,18.44-0.83c1.6,0.03,3.4-0.11,4.54,1.7
		c-0.14,2.79-2.44,3.25-4.47,3.74c-2.26,0.54-4.59,0.82-6.91,1.05c-12.99,1.28-23.56,8.07-33.57,15.52
		c-17.27,12.86-33.15,27.41-47.35,43.59c-11.49,13.1-18.94,28.55-22.24,45.74c-1.26,6.57-1.24,13.48,1.67,19.65
		c2.48,5.25,6.61,9.5,11.12,13.26c6.22,5.18,13.52,8.48,20.79,11.78c15.51,7.03,31.65,12.19,48.4,15.37
		c3.7,0.7,7.31-0.27,10.96-0.11c2.93,0.13,5.99-0.42,8.69,1.47c-0.1,3.01-2.19,3.39-4.41,3.76c-6.24,1.04-12.4,2.57-18.63,3.59
		c-6.36,1.03-11.66,3.65-16.38,7.83c-12.58,11.16-25.33,22.13-34.96,36.17c-7.1,10.35-10.52,21.42-7.86,33.99
		c1.34,6.35,4.55,11.79,8.07,17.05c7.53,11.25,16.22,21.56,26.28,30.62c4.56,4.11,9.63,7.64,16.01,8.7
		c3.12,0.52,6.03,1.87,8.94,3.13C635.59,318.43,637.06,319.39,636.44,321.91z M331.64,549.47c-7.99-11.65-17.01-21.66-26.13-31.61
		c-3.51-3.83-7.06-5.27-11.85-2.57c-1.26,0.71-2.86,0.85-4.33,1.14c-16.25,3.24-32.41,3.23-48.41-1.51
		c-2.27-0.67-4.29-1.22-6.64,0.25c-9.23,5.78-19.17,9.96-29.69,12.81c-1.88,0.51-4.01,0.29-5.86,1.81c-0.4,3.06,1.11,5.82,2.65,8.17
		c7.93,12.11,15.47,24.47,24.18,36.09c10.03,13.38,21.79,25.15,32.97,37.48c0.89,0.99,1.77,1.99,2.6,3.03
		c1.04,1.31,2.3,2.72,1.41,4.48c-1.07,2.12-3.21,1.36-4.91,1.16c-1.8-0.21-3.63-0.69-5.29-1.4c-14.25-6.05-28.26-12.68-41.1-21.34
		c-17-11.46-33.04-24.16-47.27-39.05c-3.88-4.07-7.76-8.28-12.71-11.21c-4.64-2.74-8.69-2.64-11.93,0.52
		c-2.02,1.97-3.94,4.1-5.58,6.38c-3.03,4.22-1.44,8.45,3.54,9.49c7.15,1.5,13.29,5.1,19.36,8.92c12.85,8.08,22.06,19.67,30.52,31.92
		c5.9,8.54,11.98,16.99,20.52,22.98c17.36,12.17,36.06,12.04,54.46,3.18c18.25-8.79,32.58-22.24,42.4-40.3
		c5.32-9.79,10.64-19.62,17.52-28.47C325.22,557.77,328.36,553.7,331.64,549.47z M463.03,607.32c-5.98-7.59-6.37-16.08-6.56-24.48
		c-7.18-1.95-13.52-4.79-19.27-8.86c-11.51-8.15-20.88-17.99-24.81-32.01c-0.66-2.37-2.16-2.84-4.4-3.09
		c-12.6-1.36-25.04-3.47-36.42-9.51c-1.71-0.91-3.4-1.45-5.23-0.71c-8.94,3.66-16.22,9.54-22.64,16.79
		c0.57,0.94,0.98,1.64,1.42,2.32c10.45,15.98,23.84,29.46,37.13,42.97c7.3,7.43,15.91,12.88,26.18,15.75
		c6.95,1.94,13.97,3.07,21.07,3.82C440.46,611.48,451.35,611.16,463.03,607.32z M361.17,523.12c-11.28-0.43-22.4,1.15-33.59,0.18
		c-0.09,0.35-0.19,0.7-0.28,1.04c3.92,5.01,7.84,10.03,11.9,15.22C346.39,533.27,353.4,527.86,361.17,523.12z M563.28,584.14
		c2.34-4.94,4.37-9.96,5.36-16.21c-3.28,1.82-5.78,3.02-7.77,5.51C563.37,576.61,562.09,580.46,563.28,584.14z"/>
</g>
</svg>
