<?xml version="1.0" encoding="utf-8"?>
<!-- Generator: Adobe Illustrator 24.0.2, SVG Export Plug-In . SVG Version: 6.00 Build 0)  -->
<svg version="1.1" id="Layer_1" xmlns="http://www.w3.org/2000/svg" xmlns:xlink="http://www.w3.org/1999/xlink" x="0px" y="0px"
	 width="861.99" height="627.69" viewBox="0 0 861.99 627.69" style="enable-background:new 0 0 861.99 627.69;" xml:space="preserve">
<g>
	<path d="M487.27,603.44c-5.71-1.32-6.69-5.34-6.52-10.58c0.53-17.01-0.49-33.92-4.82-50.69c-1.39-1.09-3-0.4-4.55,0.11
		c-5.87,1.93-11.88,3.16-18.02,3.74c-8.48,0.8-16.58,3.63-25.08,4.38c-16.41,1.46-32.81,3.12-49.32,2.44
		c-2.83-0.12-5.74-0.08-8.4-1.06c-2.82-1.04-4.35,0.09-5.72,2.33c-1.39,2.26-2.87,4.48-4.36,6.68c-3.1,4.59-7.27,6.57-12.65,6.54
		c-2.33-0.02-4.66,0.28-6.99,0.23c-7.66-0.15-14.77,1.44-21.4,5.55c-4.79,2.97-5.19,2.64-8.06-2.04c-1.98-3.23-6.69-5.17-10.37-3.72
		c-5.01,1.98-10.14,3.2-15.44,3.91c-2.1,0.28-4.44,1.5-6.16-0.36c-1.84-1.99,1.25-3.45,1.17-5.83c-7.88-1.01-15.97-0.09-23.54-1.48
		c-1.04-1.99-0.12-2.99,0.88-3.92c2.19-2.04,4.32-4.17,6.9-5.76c3.92-2.41,6.19-5.87,6.96-11.18c-12.82-4.32-25.25-9.72-36.85-16.74
		c-2.56,1.52-3.73,3.71-5.03,5.81c-9.05,14.55-13.32,30.78-16.37,47.38c-1,5.41-3.88,8.44-8.72,10.51
		c-8.7,3.71-17.55,7.09-25.91,11.61c-4.68,2.53-9.69,4.22-14.88,4.5c-1.08-1-1.05-2-0.83-2.99c1.07-4.89,1.05-4.8-3.45-6.63
		c-7.79-3.16-15.47-2.43-23.4-0.24c-7.51,2.08-15.15,3.89-23.01,4.31c-1.36,0.07-2.94,0.54-3.48-1.01
		c-1.03-2.94-3.27-2.22-5.36-2.16c-3.59,0.1-7.29,1.29-10.65-0.94c-0.56-2.09,0.49-3.69,1.51-5.17c4.26-6.15,8.08-12.69,13.9-17.57
		c1.64-1.38,1.64-2.73,0.97-4.38c-4.95-12.22-8.21-24.93-10.4-37.87c-2.05-12.13-3.98-24.35-1.08-36.66
		c0.32-1.37,0.2-2.61-0.45-3.85c-0.62-1.18-1.21-2.38-1.65-3.63c-3.15-8.83-2.78-11.08,4.87-16.56c4.8-3.44,6.36-8.31,7.97-13.35
		c0.87-2.73-1.08-3.09-3.09-3.12c-4.83-0.07-9.66-0.02-14.49-0.14c-2.26-0.06-4.72,0.32-6.8-2.08c2.89-7.23,8.66-12.65,13.27-18.85
		c-1.47-1.31-2.49-0.22-3.25,0.32c-10.39,7.34-21.82,12.66-33.5,17.5c-4.72,1.96-8.33,1.04-12.03-3.3
		c3.1-6.52,6.98-12.68,11.55-18.4c2.7-3.38,5.33-6.91,8.54-9.77c4.92-4.39,7.01-9.95,8.24-16.1c0.36-1.79,1.16-3.54,1.25-5.34
		c0.62-12.91,9.74-18.26,20.09-21.96c9.39-3.36,18.34-8.02,27.95-10.53c10.66-2.79,20.65-7.45,31.28-10.21
		c3.71-0.97,7.29-2.33,10.53-4.43c1.1-0.71,2.57-1.34,1.64-3.04c-0.73-1.36-1.96-0.83-3.09-0.49c-3.97,1.18-7.98,2-12.08,1.76
		c-1.6-3.53,0.08-6.99-1.17-10.68c-2.6,2.86-4.21,6.03-6.16,8.93c-6.26,9.31-6.25,9.39-17.02,9.37c-3.29-0.01-6.58-0.62-10.11-0.97
		c-0.7-5.37,2.95-9.46,3.65-14.59c-3.9-0.17-7.2,1.37-10.48,2.71c-5.21,2.13-7.15,1.1-7.31-4.52c-0.18-5.93-0.04-11.88-0.53-17.86
		c-2.23,2.65-2.05,5.95-2.59,8.9c-1.55,8.51-4.37,16.76-5.12,25.41c-0.24,2.81-2.14,4.21-4.29,5.01c-7.32,2.73-14.7,5.31-22.13,7.73
		c-3.72,1.21-4.87,0.28-5.01-3.68c-0.2-6.06,1.41-11.9,2.57-17.75c2.48-12.49,4.09-25.19,8.71-37.32
		c-13.56,18.21-26.85,36.47-37.57,56.06c-3.16-0.41-4.11-2.27-5.15-3.94c-2.02-3.26-3.64-6.73-5.01-10.3
		c-1.74-4.54-1.74-8.89,0.78-13.37c3.42-6.09,6.32-12.48,10.01-18.43c0.72-1.17,1.19-2.35,1.27-3.72
		c0.36-6.48,2.11-12.81,2.02-19.33c-0.06-4.36,1.85-7.86,5.26-10.27c4.75-3.35,5.84-8.12,5.69-13.72
		c-4.76,6.46-9.67,12.82-14.25,19.41c-3.62,5.21-7.57,10.14-11.54,15.07c-0.5,0.63-1.17,1.49-1.84,1.56
		c-7.34,0.82-14.74,2.5-22.31-0.77c1.55-5.25,4.92-9.46,6.84-14.64c-3.15-0.7-6.08-1.15-8.89-2.02c-4.04-1.24-4.78-3.06-2.65-6.67
		c1.52-2.57,3.3-5.02,5.24-7.3c9.6-11.3,19.52-22.36,30.37-32.43c17.14-15.92,36.13-29.43,57.02-40.1
		c21.94-11.22,44.45-20.94,68.07-28.29c15.16-4.72,30.45-8.53,46.05-10.99c15.18-2.39,30.52-2.42,45.84-1.1
		c9.6,0.83,19.33,0.66,28.77,2.71c8.22,1.79,16.52,1.25,24.78,1.64c5.4,0.26,10.09,1.85,13.6,6.2c2.26,2.79,5.24,4.33,8.58,5.69
		c7.45,3.04,13.95,7.74,20.14,12.83c3.54,2.91,7.45,5.38,10.59,9.08c1.68-17.28,4.55-34.08,7.51-51.1
		c-1.82-1.41-4.26-1.22-6.26-2.36c-2.88,3.31-1.89,7.55-3.49,10.97c-7.88,3.02-35.11,3.37-41.92,0.44
		c0.11-4.84,1.42-9.59,2.77-14.29c-2.3-0.56-2.85,0.9-3.68,1.82c-2.12,2.34-4.33,4.63-6.24,7.15c-5.16,6.8-11.8,9.22-20.19,7.7
		c-7.37-1.34-14.84-2.13-22.21-3.44c-4.75-0.85-9.31-2.47-13.76-4.97c-0.2-5.57,2.46-10.47,3.21-16.13
		c-3.72,3.64-7.43,7.29-11.16,10.93c-3.86,3.77-4.16,3.84-9,1.29c-6.11-3.21-10.51-8.56-16.1-12.86c-2.15,1.09-3.43,3.35-5.02,5.16
		c-2.4,2.75-5.26,3.91-8.77,4c-6.53,0.17-12.99-0.53-19.38-1.68c-6.73-1.21-7.95-3.35-6.22-10.02c0.69-2.64,1.75-5.19,2.33-7.95
		c-4.16,3.19-7.38,7.17-10.32,11.31c-3.05,4.29-6.85,6.52-12.14,6.66c-4.49,0.12-8.97,0.71-13.48,0.37
		c-5.61-0.43-6.66-2.13-4.49-7.49c2.2-5.43,5.18-10.45,8.59-15.19c12.88-17.91,28.31-33.26,47.15-44.82
		c18.03-11.07,36.89-20.45,57.14-27.04c17.68-5.76,35.77-9.21,54.13-11.23c12.22-1.34,24.58-1.74,36.87-0.15
		c4.72,0.61,9.31,0.05,13.9-0.79c4.93-0.91,9.9-1.28,14.89-1.6c4.84-0.3,5.11-0.6,4.7-5.3c-0.47-5.34,0.12-10.64,0.6-15.94
		c0.3-3.3,1.52-4,4.74-2.61c5.81,2.51,11.51,5.25,16.61,9.08c0.91,0.68,1.77,1.56,3.74,1.57c3.66-7.67,7.24-15.73,12.02-23.92
		c11.48,9.45,19.44,22.16,27.6,34.79c3.54-2.11,5.02-5.01,6.73-7.56c5.11-7.63,11.35-14.37,16.69-21.82c2.36-3.3,3.98-3.1,6.47,0.41
		c4.17,5.9,6.72,12.61,9.4,19.25c1.9,4.7,1.89,4.68,6.17,2.43c6.77-3.57,13.5-7.24,20.89-9.44c1.56-0.46,3.08-1.43,5.31-0.3
		c1.47,8.94-1.61,17.65-3.39,26.76c4.81,1.14,9.1,2.36,13.82,0.41c14.68-6.09,30.16-6.46,45.73-5.81
		c18.96,0.79,37.02,5.66,55.02,11.42c22.01,7.04,42.62,17.01,62.8,27.96c14.36,7.79,27.94,16.87,40.63,27.2
		c2.56,2.08,5.07,4.28,6.82,6.77c0.23,1.28-0.24,1.98-0.82,2.58c-7.02,7.22-15.54,11.89-25.16,14.58c-3.2,0.9-6,0.15-8.66-2.33
		c-4.22-3.94-8.9-7.4-13.34-11.03c-1.65,1.31-0.6,2.24-0.1,3.2c1.78,3.38,3.53,6.78,5.33,10.15c1.13,2.11,0.5,3.51-1.64,4.3
		c-8.8,3.26-17.79,5.56-27.26,5.69c-2.49,0.03-4.52-0.78-6.37-2.38c-2.52-2.18-5.27-4.12-7.62-6.47c-2.75-2.76-5.36-2.9-8.56-0.33
		c1.64,4.97,4.77,9.31,6.41,15.15c7.33-5.02,13.49-2.54,20.01,1.39c3.28,1.98,7.84,0.67,11.81,0.55c5.32-0.15,10.62-0.7,15.98-0.42
		c2.77,0.15,4.61,1.13,6.45,3.06c3.03,3.17,5.29,6.86,7.62,10.49c1.01,1.57,2.09,2.84,3.96,2.07c8.75-3.62,15.84,0.37,22.85,4.79
		c5.45,3.45,10.84,6.99,17.11,11.05c-8.4,4.95-17.34,5.74-25.21,9.27c0.68,2.01,2.17,1.61,3.39,1.68c0.99,0.06,1.99-0.09,2.99-0.14
		c8.96-0.45,17.33,0.62,25.22,5.87c9.44,6.27,19.1,12.16,27.53,19.8c1.14,1.04,2.21,2.05,3.88,1.9c4.21-0.39,8.27,0.94,12.43,1.04
		c3.24,0.08,5.94,1.52,7.95,3.73c10.2,11.23,19.29,23.35,28.08,35.69c0.26,0.36,0.26,0.91,0.51,1.86
		c-9.24-1.25-17.74-4.82-27.62-5.42c5.76,4.44,12.05,6.07,17.73,8.89c1.19,0.59,2.44,1.04,3.65,1.6
		c15.94,7.28,11.74,3.78,17.67,20.28c1.52,4.22,2.94,8.48,4.37,12.73c0.41,1.21,1.31,2.38,0.12,4.56
		c-9.58-3.82-18.46-9.6-29.33-12.89c12.45,22.14,23.55,44.11,32.64,67.24c-4.08,2.39-8.12,2.37-12.02,2.3
		c-3.62-0.07-5.66,0.97-7.1,4.59c-1.62,4.09-2.98,8.56-6.91,11.66c-3.75-2.17-7.56-4.38-12.12-7.02c1.06,5.36,5.57,7.78,7,12.06
		c-3.31,3.14-7.49,4.07-11.47,4.7c-14.32,2.27-12.75,2.23-20.41-7.94c-1.05-1.4-1.65-3.33-3.82-3.66c-1.19,2.8,1.28,4.71,1.57,7.08
		c0.3,2.47,1.65,4.71,1.54,7.24c-1.46,1.73-3.39,1.44-5.14,1.22c-6.28-0.78-12.52-1.79-18.8-2.56c-3.55-0.43-5.53-2.36-6.96-5.55
		c-2.81-6.24-4.16-13.02-7.3-19.12c-0.43-0.84-0.47-1.99-2.01-2.3c0.88,7.28,3.45,14.31,2.42,21.45c-1.14,1.3-2.33,0.9-3.46,0.76
		c-6.13-0.76-12.1-2.18-17.92-4.24c-2.66-0.94-4.38-2.43-5.13-5.46c-1.88-7.58-4.17-15.07-6.35-22.58c-0.5-1.71-0.68-3.59-2.81-5.68
		c-0.11,8.88,2.01,16.88,1.96,24.78c-1.84,1.12-3.29,0.66-4.72,0.27c-3.37-0.91-6.69-2.38-10.12-2.68
		c-6.47-0.58-9.15-4.16-10.21-10.14c-0.79-4.49-2.4-8.83-4.15-13.3c-3.26,6.4-5.97,12.87-9.72,19.33
		c-6.55-3.5-9.92-9.98-15.66-13.74c0.95,4.04,3.74,6.98,5.46,10.49c0.51,1.05,1.03,2.1,1.67,3.07c3.64,5.48,3.93,10.76-0.73,15.87
		c-0.76,0.84-1.55,1.77-1.76,3.56c3.58,3.98,8.57,6.73,13.08,10.03c5.64,4.12,11.49,7.98,17.32,11.83c3.15,2.08,5.24,5.07,7.5,7.95
		c8.63,11.01,17.01,22.23,26.75,32.31c5.67,5.87,11.46,11.61,17.09,17.52c3.44,3.62,3.54,5.2,1.19,10.8
		c-6.64-3.04-12.09-8.02-18.79-11.63c-0.28,4.94,4.75,6.97,5.3,11.01c-1.24,1.69-2.95,1.24-4.21,0.83c-4.1-1.33-6.83,0.24-9.5,3.28
		c-1.93,2.2-4.13,4.39-7.21,5.36c-2.8-0.97-3.64-4.17-6.02-5.58c-2.63,0.24-2.23,3.14-3.84,4.26c-2.35,0.26-3.55-1.6-5.14-2.68
		c-1.62-1.1-3.16-2.31-4.99-3.65c-1.52,2.26-0.91,4.32-0.26,5.98c3.94,10.08,4.38,20.79,5.95,31.3c1.05,7-0.21,13.38-2.92,19.87
		c-4.81,11.52-9.74,22.97-16.1,33.73c-2.18,3.7-2.33,6.96,0.3,10.43c2.12,2.81,3.6,6.01,4.52,9.41c0.97,3.62,0.04,4.47-3.62,4.08
		c-6.79-0.73-13.39-1.97-19.84-4.45c-3.79-1.46-7.86-0.98-10.93,2.59c-2.17,2.53-4.85,4.54-7.48,6.59c-2.56,1.99-4.8,1.81-7.17-0.22
		c-2.66-2.27-5.36-4.5-8.1-6.67c-4.49-3.56-9.19-3.9-14.39-1.32c-4.01,1.99-8.24,3.58-12.49,5.03c-3.29,1.13-4.68-0.26-4.19-3.75
		c0.09-0.66,0.11-1.41,0.45-1.94c3.22-5.04,0.87-8.62-3.24-12.03c-2.43,5.9-4.84,11.72-7.23,17.55c-0.95,2.31-1.59,4.78-2.82,6.93
		c-1.48,2.58-1.68,4.87-0.19,7.49c1.33,2.34,1.83,4.99,1.82,7.71c-0.02,3.99-0.84,5.04-4.6,4.6c-5.11-0.6-10.39-0.89-15.13-2.96
		c-7.75-3.38-15.64-1.86-23.53-1.45c-1.78,0.09-3.16,1.21-3.88,2.8c-2.19,4.85-6.65,8.04-9.15,12.69c-0.83,1.55-2.85,1.87-4.18,0.12
		c-3.76-4.95-8.68-9-11.42-14.75c-0.37-0.78-1.11-1.44-1.92-1.48c-4.83-0.25-9.57-2.32-14.53,0.05c-6.15,2.93-12.48,5.5-19.2,6.93
		c-4.91,1.04-6.55-0.69-5.14-5.62c0.36-1.27,1.04-2.45,1.49-3.7C486.7,606.71,487.52,605.58,487.27,603.44z M533.05,151.43
		c-5.91,0.09-5.91,0.09-7.2,4.8c-1.33,4.85-1.79,5.05-6.84,4.71c-2.6-0.18-5.26-0.33-8.26,0.34c0.67,8.58,2.53,16.82,2.87,26.45
		c9.76-7.55,18.64-14.43,28.03-21.7C535.28,162.65,535.16,156.65,533.05,151.43z M531.51,304.05c-0.66,10.52-1.93,20.64-0.14,31.21
		c4.67-1.61,8.88-3.04,13.08-4.53c1.45-0.51,1.69-1.96,2.16-3.18c1.8-4.65,3.22-9.49,5.47-13.92c2.11-4.15,1.09-7.4-1.12-11.19
		c-3.03,2.67-4.29,6.02-6.31,8.8c-3.46,4.75-5.02,4.77-8.26-0.23c-0.71-1.1-1.16-2.38-1.68-3.6
		C534.19,306.19,533.85,304.86,531.51,304.05z M326.88,273.48c-1.31-5.82-2.57-11.12-4.82-16.72c-3.83,3.36-5.98,7.74-9.91,10.08
		c-4.33-1.41-5.71-6.41-10.49-7.97c1.18,5.19,3.73,9.12,5.38,13.4c0.66,1.71,2.25,1.9,3.79,1.61
		C315.9,272.91,321,272.99,326.88,273.48z M630.7,158.65c-2.2-0.58-3.64,0.52-5.21,0.84c-6.47,1.35-8.29,0.57-11.81-5.12
		c-1.48-2.4-3.07-4.75-4.47-7.2c-1.63-2.87-3.29-5.69-5.99-8.21c-0.21,0.93-0.52,1.45-0.39,1.81c2.05,5.66,3.2,11.52,4.03,17.45
		c0.33,2.33,1.83,3.54,3.8,4.16c3,0.94,6.06,1.77,9.14,2.42C625.4,165.97,627.76,164.62,630.7,158.65z M296.21,298.06
		c0.84-5.64,1.04-11.12,2.88-17.44c-2.86,1.58-4.7,2.38-6.29,3.53c-2.09,1.49-3.53,1.09-5.07-0.81c-2.51-3.1-5.17-6.09-7.84-9.06
		c-0.66-0.74-1.04-2.27-2.7-1.45c-0.44,2.17,0.31,4.27,0.4,6.41c0.09,2.21,0.68,4.24,2.66,5.65
		C285.8,288.84,291.2,292.96,296.21,298.06z M583.85,343.47c4.08-10.1,4.07-12.33-0.27-14.77c-2.64,4.46-5.28,8.94-8.04,13.62
		C578.4,343.46,581.04,343.14,583.85,343.47z"/>
</g>
</svg>
