<?xml version="1.0" encoding="utf-8"?>
<!-- Generator: Adobe Illustrator 24.0.2, SVG Export Plug-In . SVG Version: 6.00 Build 0)  -->
<svg version="1.1" id="Layer_1" xmlns="http://www.w3.org/2000/svg" xmlns:xlink="http://www.w3.org/1999/xlink" x="0px" y="0px"
	 viewBox="0 0 808.54 831.67" style="enable-background:new 0 0 808.54 831.67;" xml:space="preserve">
<g>
	<path d="M337.49,789.1c-6.78,7.93-14.15,14.83-23.61,19.07c-8.88,3.98-18.1,5-27.79,3.63c-12.47-1.77-20.94-9.47-28.77-18.3
		c-11.96-13.49-19.1-29.57-24.3-46.54c-1.59-5.19-1.96-10.81-2.4-16.28c-1.14-14.15-1.11-28.27,2.63-42.11
		c0.52-1.92-0.24-3.29-1.09-4.66c-7.73-12.3-13.62-25.46-18.24-39.2c-0.31-0.94-0.44-1.99-1.88-2.49c-3.15,1.95-5.47,4.07-5.63,8.7
		c-0.39,10.91-3.99,21.2-7.46,31.45c-1.09,3.21-3.29,5.09-6.84,5.79c-5.15,1.02-10.28,1.3-15.4,0.56
		c-6.26-0.9-12.64-0.95-18.76-2.79c-2.15-0.64-4.25-0.45-6.37,0.29c-20.53,7.23-41.2,6.07-61.94,1.02
		c-3.51-0.85-6.44-3.51-10.53-3.42c-2.22,5.95-4.5,11.76-4.77,18.2c-0.2,4.82-0.73,9.63-1.35,14.42c-1.03,8.03,0.71,15.93,1.02,23.9
		c0.16,4.12,0.27,8.33,1.85,12.3c0.48,1.21,0.9,2.7-0.41,3.69c-1.43,1.07-2.89,0.39-4.17-0.45c-6.26-4.08-10.88-9.76-15.13-15.77
		c-0.94-1.33-1.54-2.93-3.9-4.12c-0.62,4.88-1.67,9.3-1.71,13.9c-0.02,2.67-0.07,5.33-0.04,8c0.01,1.46-0.41,2.63-1.83,3.22
		c-1.45,0.6-2.54-0.09-3.61-1.01c-4.94-4.23-8.18-9.64-10.41-15.63c-4.05-10.87-7.78-21.84-8.03-33.74
		c-2.26-0.2-2.92,1.61-3.83,2.79c-5.63,7.22-11.53,14.24-16.39,22.04c-0.93,1.49-1.73,3.28-4.1,3.65c-2.39-2.11-2.05-5.1-2.14-7.75
		c-0.33-9.5-0.1-18.99,1.51-28.39c2.36-13.8,5.17-27.5,10.78-40.41c5.07-11.67,12.42-22,19.81-32.69c0.2-1.47-1.17-2.76-1.84-4.13
		c-9.14-18.42-8.94-37.5-4.29-56.91c3.17-13.23,7.46-26.08,13.7-38.22c5.15-10.02,11.53-19.1,20.51-26.12
		c1.51-1.18,2.4-2.61,3.18-4.33c8.26-18.09,18.92-34.74,30.63-50.75c0.49-0.67,1.05-1.29,1.61-1.91c6.3-6.96,10.23-7.49,18.05-2.18
		c9.14,6.21,17.34,13.52,24.74,21.7c2.02,2.23,4.01,3.18,7.18,3.34c23.22,1.19,45.37,6.61,65.99,17.63c0.56,0.3,1.21,0.43,2.4,0.84
		c-0.5-2.1-1.9-3-2.89-4.11c-8.61-9.55-14.97-20.47-18.54-32.75c-2.71-9.3-2.9-19.07-3.11-28.73c-0.07-3.35-1.06-5.92-3.14-8.6
		c-10.11-12.99-17.33-27.58-22.63-43.1c-2.36-6.92-4.5-13.92-5.97-21.12c-1.11-5.43-1.59-10.88-1.21-16.39
		c0.52-7.48,2.93-10.62,10.22-12.14c9.26-1.93,18.61-3.18,28.15-3.22c5.64-0.02,11.31-0.32,16.96-0.4
		c4.66-0.07,9.32-0.19,13.92,0.91c1.94,0.46,3.94,0.17,5.62-0.37c1.3-1.76,0.84-3.47,0.87-5.11c0.33-19.1,3.52-37.79,9.23-55.95
		c3.3-10.51,8.66-20.15,15.77-28.71c2.27-2.73,4.97-4.92,8.15-6.48c5.36-2.62,8.46-1.65,11.8,3.42
		c7.05,10.7,14.31,21.26,20.38,32.57c0.38,0.71,1.02,1.27,1.43,1.77c1.85,0.37,2.63-0.86,3.56-1.74
		c5.73-5.41,10.55-11.56,14.71-18.23c4.37-7.02,2.91-12.65-4.76-16.28c-5.55-2.63-11.5-4.39-17.15-6.81
		c-9.33-3.99-18.75-7.82-27.25-13.51c-5.6-3.74-8.67-8.83-7.39-15.68c2.66-14.18,4.85-28.47,8.96-42.35
		c2.69-9.08,6.45-17.81,8.86-26.98c0.55-2.09,1.21-4.12,1.26-6.57c-2.65-2.15-5.86-2.69-9.19-2.86
		c-10.51-0.54-20.72-3.12-31.09-4.57c-4.57-0.64-7.13-4.1-7.09-8.74c0.11-13.32,4.77-25.36,10.89-36.89
		c9.59-18.07,23.44-32.32,40.47-43.39c10.77-7,22.34-12.49,35-15.32c1.13-0.25,2.29-0.46,3.44-0.53c2.77-0.18,4.53,0.95,4.59,3.93
		c0.09,4.65,0.4,9.33,0.11,13.96c-0.25,4.05-2.11,5.47-6.28,5.33c-8.15-0.28-16.26-1.18-24.46-0.53c-3.29,0.26-5.6,1.25-7.63,3.8
		c-10.04,12.59-15.26,27.08-17.19,42.89c-0.52,4.24,1.37,7.05,5.68,7.13c8.69,0.17,17.16,2.18,25.83,2.55
		c4.6,0.2,9.17,1.47,13.73,2.38c3.91,0.78,7.77,1.85,11.69,2.59c10.22,1.94,14.97,7.12,13.83,17.28
		c-1.41,12.59-2.01,25.22-3.11,37.82c-0.69,7.96-0.72,15.96-0.37,23.95c0.21,4.7,3.46,7.11,7.2,8.76
		c8.37,3.7,16.85,7.12,25.29,10.65c11.2,4.69,22.46,9.24,33.14,15.05c5.71,3.11,9.31,7.84,10.82,14.24
		c2.94,12.46,5.01,25.09,7.59,37.61c3.32,16.1,6.11,32.37,10.89,48.11c2.91,9.57,4.46,19.43,7.28,28.96
		c3.43,11.56,5.75,23.25,6.76,35.21c1.23,14.62,2.23,29.3-1.24,43.73c-2.69,11.2-7.07,21.73-14.11,31.08
		c-5.4,7.17-10.1,14.84-16.19,21.53c-9.05,9.93-19.51,18.07-30.67,25.42c-0.69,0.46-1.38,0.92-2.03,1.43
		c-0.25,0.19-0.38,0.54-0.73,1.06c0.64,3.11,2.58,5.84,4.14,8.71c1.19,2.19,3.38,2.41,5.65,2.42c9.17,0.07,18.29-0.79,27.43-1.15
		c10.5-0.42,20.4-2.97,30.3-5.71c13.11-3.63,24.58-10.88,36.43-17.31c10.12-5.49,19.07-12.81,29.37-17.99
		c11.45-5.75,23.05-11.16,34.91-15.97c8.21-3.32,16.89-4.96,25.68-6.05c8.08-0.99,16.1-2.55,24.19-3.26
		c14.32-1.25,28.63-0.94,42.75,2.13c3.03,0.66,5.15-0.56,7.32-2.18c8.68-6.47,17.52-12.69,26.83-18.25
		c12.34-7.37,25.38-13.19,38.79-18.26c2.94-1.11,5.63-2.85,8.83-3.35c2.91-0.46,5,0.03,6.71,2.82c3.39,5.52,5.02,11.64,6.07,17.81
		c3.06,17.94,3.74,36.09,3.56,54.27c0,0.33,0.01,0.67-0.05,1c-1.36,8.25,1.86,14.11,8.01,19.83c11.64,10.82,20.71,23.87,27.64,38.21
		c5.4,11.18,7.66,23.05,5.52,35.46c-1.03,6.01-2.23,6.62-8.03,5.53c-8.32-1.57-16.66-2.98-25-4.41c-1.12-0.19-2.3-0.49-3.49,0.05
		c-0.31,1.64,1.09,2.27,1.99,3.05c8.14,7.02,14.67,15.38,20.83,24.14c7.77,11.06,14.82,22.55,20.72,34.68
		c8.58,17.64,15.79,35.8,17.74,55.55c0.41,4.1,1.27,8.21,0.82,12.39c-0.22,2-0.34,4.02-2.49,5.39c-3.29-1.09-5.05-3.98-6.96-6.6
		c-8.45-11.6-17.56-22.63-27.74-32.76c-1.86-1.85-3.7-3.71-5.88-5.04c-1.03,0.88-0.81,1.68-0.54,2.46
		c7.17,20.87,9.55,42.45,9.58,64.38c0,3-0.02,6-0.1,8.99c-0.09,3.18-1.31,5.75-4.74,7.86c-8.73-11.12-15.55-23.49-23.63-34.98
		c-8.04-11.43-16.26-22.73-24.64-34.43c-3.01,2.08-5.97,4.09-8.89,6.15c-1.07,0.76-1.18,1.92-1.13,3.13
		c0.47,11.37-1.23,22.58-2.77,33.77c-0.84,6.09-3.33,11.84-5.38,17.64c-0.55,1.57-1.84,2.77-3.14,3.83
		c-2.99,2.43-4.25,2.01-5.54-1.78c-5.58-16.35-11.31-32.65-17.88-48.64c-0.62-1.5-1.61-2.84-2.44-4.29
		c-12.95,1.66-24.92-2.19-36.93-5.45c-2.59-0.7-4.62-0.9-7.08,0.39c-11.71,6.18-24.42,8.6-37.48,9.35
		c-8.92,0.51-11.79-2.39-14.23-11.17c-3.06-10.99-3.16-22-1.9-33.14c0.27-2.37-0.31-4.07-1.79-5.89
		c-5.66-6.96-12.16-13.23-16.9-20.93c-7.94-12.9-15.51-26-22.77-39.3c-5.05-9.25-10.93-18.17-19.2-24.7
		c-13.4-10.57-28.06-18.57-45.49-21.26c-18.66-2.88-37.51-2.73-56.2-4.89c-4.87-0.56-9.75-1.35-15.15-1.9
		c0.79,3.6,2.37,6.06,3.77,8.61c8.59,15.64,20.3,28.66,33.1,40.99c15.03,14.47,31.32,27.33,47.75,40.09
		c1.26,0.98,2.6,1.35,4.14,1.47c10.95,0.85,21.85,2.27,32.62,4.31c8.32,1.58,16.54,3.84,24.54,6.76c2.06,0.75,3.92,1.87,5.54,3.33
		c2.55,2.3,3.66,5.06,2.47,8.53c-3.74,10.9-8.52,21.32-14.49,31.16c-2.58,4.26-4.34,8.96-7.35,12.98c-1.15,1.54-1,3.51-0.41,5.31
		c5.35,16.45,6.81,33.53,7.45,50.63c0.44,11.75-3.1,23.02-6.91,34.07c-5.45,15.81-14.7,28.95-27.64,39.58
		c-2.94,2.42-6.3,3.64-9.7,4.97c-2.71,1.06-4.23-0.78-5.38-2.49c-4.14-6.1-9.43-11.2-14.11-16.83
		c-6.08-7.32-12.73-14.09-19.95-20.28c-3.31-2.84-4.13-2.61-6.61,1.06c-9.59,14.23-18.22,29.02-26.29,44.15
		c-2.06,3.85-2.75,8.19-4.46,12.17c-0.46,1.06-0.59,2.23-1.41,3.15c-2.03,2.27-4.11,2.19-5.51-0.53c-2.08-4.05-2.83-8.58-3.2-13.01
		c-1.14-13.78-3.23-27.41-5.45-41.05c-1.55-9.54-2.97-19.06-6.19-28.18c-1.6-4.53-3.56-8.94-7.69-12.03
		c-3.98-2.98-7.14-2.88-10.16,1.21c-2.98,4.04-5.06,8.71-6.52,13.42c-2.67,8.64-2.67,17.75-2.73,26.71
		c-0.09,12.48,0.32,24.96,0.57,37.45c0.08,3.87-0.74,7.62-1.39,11.39c-0.25,1.46-0.51,3.15-2.47,3.28c-1.57,0.1-2.99-0.46-3.79-1.94
		c-1.92-3.5-3.86-7-5.66-10.56c-4.3-8.49-9.79-16.25-14.72-24.36C340.08,790.74,339.3,789.6,337.49,789.1z M229.76,617.27
		c4.75-0.01,7.92-1.89,11.38-2.09c10.47-0.6,20.88-2.27,31.41-1.77c1.59,0.08,2.85-0.28,4.08-1.38c5.46-4.88,11.06-9.6,16.51-14.5
		c16.49-14.82,32.31-30.26,46.49-47.39c6.22-7.51,11.48-15.49,16.05-24c1.1-2.05,2.47-4.22,1.55-7.06
		c-4.97,1.96-8.94,5.05-13.21,7.56c-15.02,8.85-31.39,14.36-47.65,20.34c-16.2,5.96-29.78,16.12-40.95,29.38
		C245.16,588.55,239.23,603.38,229.76,617.27z M361.94,495.67c-2.73,0.31-4.35,2.3-6.6,2.9c-10.11,2.67-19.74,6.87-30.04,9.01
		c-20.9,4.33-41.79,5.17-62.82,1.14c-1.98-0.38-4.13-1.24-5.89,0.65c0.24,0.53,0.31,0.87,0.51,1.11c0.58,0.69,1.47,0.7,2.27,0.87
		c15.59,3.4,31.29,5.86,47.32,6.03c19.72,0.21,36.81-7.52,53.31-17.15C361.61,499.29,363.23,498.29,361.94,495.67z"/>
</g>
</svg>
