<?xml version="1.0" encoding="utf-8"?>
<!-- Generator: Adobe Illustrator 24.0.2, SVG Export Plug-In . SVG Version: 6.00 Build 0)  -->
<svg version="1.1" id="Layer_1" xmlns="http://www.w3.org/2000/svg" xmlns:xlink="http://www.w3.org/1999/xlink" x="0px" y="0px"
	 viewBox="0 0 777.38 847.26" style="enable-background:new 0 0 777.38 847.26;" xml:space="preserve">
<g>
	<path d="M488.19,384.42c-4.2,0.83-6.58,3.42-7.18,7.91c-1.09,8.22-2.27,16.38-1.8,24.76c0.43,7.73,4.17,14.26,6.38,21.34
		c1.51,4.85,2.98,9.74,3.35,14.84c0.22,3.04,0.91,5.87,2.35,8.57c7.67,14.33,11.79,29.7,14.77,45.66
		c2.15,11.54-1.74,20.35-7.85,29.22c-11.71,17-24.79,32.93-38.11,48.64c-8.92,10.52-18.92,20.06-29.19,29.34
		c-11.23,10.16-22.31,20.48-34.05,30.03c-14.03,11.41-28.06,22.84-43.92,31.76c-4.47,2.51-8.65,5.54-12.98,8.31
		c-7.14,4.55-14.79,8.16-22.43,11.73c-3.58,1.67-6.88,4.12-10.96,4.68c-0.88,0.12-1.51,0.74-1.91,1.49
		c-2.13,4.01-5.71,6.93-8.19,10.61c-8.37,12.44-18.55,23.44-27.82,35.15c-10.94,13.81-21.27,28.08-32.19,41.9
		c-12.78,16.17-25.94,32.05-38.97,48.03c-2.09,2.56-4.36,4.96-6.58,7.41c-1.24,1.36-2.81,2-4.46,0.95c-1.59-1.01-1.04-2.6-0.51-4.04
		c8.69-23.55,18.41-46.68,27.92-69.9c8.14-19.89,16.61-39.65,25.01-59.44c4.27-10.07,8.66-20.08,13.06-30.1
		c2.96-6.74,4.87-13.56,5.18-21.09c0.36-8.87,1.99-17.7,3.27-26.51c1.81-12.47,4.52-24.78,7.11-37.11c0.06-0.28-0.14-0.62-0.24-1.05
		c-1.7-0.44-2.24,0.99-2.81,2.01c-9.21,16.6-20.8,31.6-31.41,47.26c-4.84,7.14-9.41,14.46-14.17,21.65
		c-1.74,2.63-3.65,5.16-5.59,7.65c-6.42,8.24-12.12,16.96-17.95,25.62c-2.21,3.28-4.97,6.21-7.57,9.22
		c-1.19,1.38-2.56,2.69-4.9,2.03c-1.41-1.7-0.81-3.56-0.26-5.5c3.23-11.46,7.27-22.67,11.72-33.68
		c7.02-17.35,12.51-35.25,19.44-52.62c5.94-14.9,10.6-30.27,16.5-45.2c5.6-14.17,11.25-28.37,15.76-42.91
		c5.36-17.28,12.21-33.99,18.06-51.08c4.17-12.18,8.3-24.39,13.45-36.28c4.64-10.72,8.06-22.04,12.47-32.94
		c4.29-10.59,7.14-21.71,11.89-32.14c0.26-0.56,0.36-1.29-0.46-2.22c-3.71,1.57-7.52,2.83-11.03,5.56
		c-21.82,16.93-43.35,34.23-65.41,50.86c-15.65,11.79-31.77,22.97-46.86,35.56c-14.43,12.03-29.88,22.82-44.81,34.25
		c-4.35,3.33-8.49,6.92-12.65,10.48c-5.8,4.97-12.18,9.16-18.17,13.89c-19.03,15.06-38.22,29.92-57.57,44.56
		c-11,8.32-22.05,16.55-32.85,25.13c-2.2,1.75-4.71,3.12-7.19,4.47c-1.27,0.69-2.85,1.41-4.12-0.09c-1.32-1.56-0.73-3.13,0.33-4.55
		c2.1-2.79,4.04-5.72,6.41-8.26c9.78-10.45,18.23-21.97,27.34-32.97c6.46-7.8,12.82-15.68,19.63-23.2c7.25-8,13.71-16.71,20.86-24.8
		c10.46-11.85,19.8-24.61,30.16-36.53c9.7-11.15,19.62-22.11,29.06-33.47c5.3-6.37,10.17-13.1,15.67-19.34
		c6.15-6.99,12.17-14.11,18.03-21.35c7.63-9.43,14.93-19.12,22.89-28.3c13.29-15.33,26.48-30.73,40.11-45.76
		c5.11-5.64,9.89-11.73,13.83-18.21c1.88-3.1,1.76-7.6,1.97-11.5c0.57-11.03,3.62-21.48,7.08-31.84c0.88-2.65,1.31-5.48,2.87-7.92
		c0.66-1.04,0.26-2.26-0.03-3.4c-3.23-12.98-2.48-26.02-0.68-39.09c0.97-7.07,1.28-14.21,2.77-21.23c0.62-2.92,1.26-5.82,1.95-8.72
		c3.14-13.2,6.8-26.24,13.02-38.35c4.89-9.52,9.54-19.14,15.83-27.95c11.46-16.06,24.69-30.32,40.24-42.43
		c2.77-2.16,5.86-3.83,9.32-4.64c1.14-0.27,2.41-0.36,3.24,0.7c0.82,1.06,0.34,2.13-0.18,3.25c-2.12,4.56-5.36,8.4-7.97,12.63
		c-8.03,13-14.35,26.93-21.55,40.38c-5.23,9.77-9.93,19.78-14.21,29.99c-2.12,5.06-2.08,10.43-2.44,15.68
		c-0.82,11.96-0.57,23.96,0.11,35.94c0.04,0.63,0.37,1.24,0.7,2.29c5.44-0.15,10.49,1.17,14.48,5.26
		c9.28-4.27,18.42-8.21,28.03-10.94c5-1.42,10.14-1.81,15.23-2.47c1.64-0.21,2.57-0.39,3.33-2.13c5.72-13.2,12.48-25.88,19.31-38.53
		c0.62-1.14,0.78-2.22,0.36-3.32c-3.01-7.9-3.66-16.35-5.88-24.43c-0.35-1.27-0.71-2.6-1.38-3.71c-2.63-4.38-1.36-8.33,1.34-12
		c2.15-2.94,2.36-5.76,1.39-9.3c-2.48-8.97-3.68-18.21-4.97-27.42c-2.1-14.98-4.14-30-4.9-45.09c-0.59-11.57-0.56-23.25,0.67-34.84
		c0.04-0.4,0.56-0.75,0.78-1.02c1.6-0.53,2.22,0.61,3.03,1.4c8.67,8.35,13.74,18.95,18.82,29.62c5.73,12.04,9.77,24.68,13.55,37.39
		c0.93,3.11,3.7,4.55,4.64,7.44c1.9,5.83,3.94,11.61,6.06,17.36c2,5.41,3.75,10.94,6.55,16.5c2.81-2.33,5.45-4.26,7.78-6.52
		c7.66-7.41,15.77-14.29,24.96-19.7c6.68-3.93,13.38-8.06,21.35-9.08c1.78-0.23,1.76-0.36,4.85,0.93
		c-1.68,5.55-5.62,9.66-9.19,13.91c-13.66,16.29-26.55,33.19-39.58,49.98c-0.85,1.09-2.32,2.23-1.34,3.95
		c3.42,5.99,3.01,12.88,4.48,19.31c3.1,13.57,5.76,27.26,8.07,41c2.26,13.42,5.57,26.68,6.19,40.35c0.06,1.35,0.31,2.64,1.21,4.09
		c7.26-0.34,14.74-1.15,21.9,0.96c1.31-0.97,0.88-2.2,0.97-3.32c1.02-11.77,1.2-23.6,2.95-35.32c1.6-10.71,4.69-21.06,7.23-31.54
		c3.95-16.31,9.87-31.98,15.86-47.61c4.53-11.83,10.24-23.05,17.45-33.49c8.71-12.61,18.18-24.62,28.94-35.52
		c5.48-5.55,12.74-8.89,18.48-14.25c11.67-10.89,25.69-18.17,39.95-25.01c14.05-6.74,28.91-10.48,44.25-12.82
		c7.27-1.11,14.51-2.01,21.85-1.73c9.78,0.38,19.45,1.75,29.11,3.37c8.55,1.44,16.79,3.79,25,6.46c3.83,1.25,7.37,3.04,10.92,4.8
		c3.82,1.9,4.71,5.31,2,8.64c-5.67,6.96-10.45,14.55-15.7,21.79c-10.72,14.77-22.24,28.9-33.68,43.08
		c-5.73,7.1-12.61,13.26-18.97,19.85c-3.46,3.58-6.91,7.18-10.4,10.74c-1.66,1.69-2.11,3.14-0.95,5.67
		c3.37,7.39,6.18,15.03,9.24,22.56c1.31,3.22,0.86,5.64-1.7,8.46c-9.64,10.63-20.39,20.06-31.03,29.61
		c-15.21,13.64-30.38,27.36-46.09,40.41c-8.13,6.75-16.76,13.01-25.65,18.85c-12.47,8.2-24.94,16.39-37.8,23.96
		c-0.54,0.32-1.08,0.79-1.02,1.54c0.86,1.25,1.83,0.35,2.68,0.14c16.96-4.26,34.03-7.93,51.41-10.05c2.42-0.29,3.98-1.54,5.18-3.44
		c2.13-3.37,4.25-6.74,6.31-10.15c13.96-23.22,33.25-40.87,56.53-54.42c4.15-2.41,8.14-5.04,12.47-7.19
		c5.18-2.56,10.63-3.81,16.21-4.51c12.23-1.55,18.57,4.96,22.94,14.97c1.37,3.14,2.42,6.5,2.34,11.04
		c5.87-4.07,11.51-7.04,17.12-10.07c15.04-8.13,30.13-16.21,46.53-21.3c4.37-1.36,8.77-3.18,13.57-2.98
		c3.15,0.13,4.67,1.32,4.68,4.43c0,1.97-0.31,4-0.81,5.92c-3.78,14.49-9.17,28.36-15.91,41.75c-3.81,7.56-8.24,14.77-11.95,22.36
		c-2.77,5.67-7.7,9.54-11.39,14.45c-10.25,13.64-22.44,25.44-35.7,36.13c-2.45,1.98-4.96,3.99-7.72,5.45
		c-8.24,4.37-10.13,12.03-10.15,20.19c-0.06,20.27,1.42,40.49,2.85,60.71c0.46,6.46,0.37,12.96,0.72,19.43
		c0.43,7.95,1.08,15.89,1.57,23.84c0.44,7.14,0.74,14.29,1.2,21.43c0.52,8.12,1.01,16.24,1.75,24.34
		c0.83,9.07,0.85,18.17,1.81,27.24c2.1,19.99,2.95,40.07,4.16,60.12c1,16.46,1.53,32.94,2.63,49.39c1.04,15.6,1.5,31.19,1.74,46.82
		c0.22,14.06,1.29,28.09,2.55,42.11c0.42,4.72,0.03,9.62,0.35,14.4c1.11,16.66,2.45,33.3,3.66,49.95c0.14,1.88,1.09,4.57-1.53,5.13
		c-2.9,0.61-3.69-2.15-4.47-4.35c-5.42-15.27-11.27-30.41-16.11-45.86c-4.26-13.59-8.2-27.29-11.71-41.12
		c-3.01-11.88-6.39-23.68-10.49-35.25c-2.45-6.9-3.41-14.18-5.48-21.18c-2.58-8.73-5.56-17.39-7.42-26.27
		c-1.43-6.84-3.77-13.38-5.31-20.16c-2.79-12.3-7.76-24.02-10.38-36.32c-3.14-14.77-8.15-29-11.72-43.63
		c-0.92-3.77-1.78-7.69-3.97-11.66c-3.88,4.01-7.96,7.27-12.22,10.31c-6.1,4.37-12.36,8.39-19.89,9.82
		c-2.16,0.41-2.39,2.09-2.71,3.7c-2.09,10.22-3.82,20.53-6.28,30.65c-3.09,12.74-5.24,25.67-7.58,38.54
		c-2.68,14.7-6.54,29.13-8.88,43.9c-1.58,9.97-4.83,19.67-6.79,29.59c-2.32,11.73-5.8,23.17-7.75,35.02
		c-1.64,9.95-3.61,19.95-6.48,29.68c-2.03,6.87-2.2,14.08-3.81,21.02c-2.61,11.26-4.78,22.64-9.27,33.37
		c-0.51,1.22-1.05,2.48-2.96,3.06c-2.36-1.53-3.19-3.96-3.44-6.9c-1.45-17.25-2.34-34.53-3.37-51.8
		c-1.16-19.29-0.93-38.56-1.22-57.85c-0.31-20.32,0.03-40.65-0.68-60.97c-1.05-29.76-1.48-59.53-1.46-89.31
		c0.01-11.15-0.58-22.3-0.27-33.46c0.09-3.29-0.94-5.92-2.99-8.62c-8.03-10.58-13.15-22.6-17.02-35.26
		c-4.19-13.72-4.9-27.72-4.09-41.89C491.18,389.46,493.09,385.9,488.19,384.42z M346.35,383.68c3.16-6.03,6.67-10.77,11.27-14.67
		c2.79-2.36,5.61-3.57,9.5-3.1c5.6,0.68,11.19,1.36,16.77,2.25c3.24,0.52,5.67-0.03,7.13-3.6c1.74-4.29,4.39-8.12,8.03-11.13
		c0.92-0.76,1.14-1.55,0.37-3.14c-6.72,1.32-12.21-1.61-16.88-6.57c-3.6,2.08-7.41,3.22-11.13,4.55c-8.1,2.88-16.19,5.7-23.51,10.38
		c-3.55,2.27-6.57,4.94-9.18,8.44C341.85,372.03,343.01,377.78,346.35,383.68z M516.6,356.57c16.66-1.44,32.29-1.39,47.99,1.16
		c-1.53-1.76-2.79-3.53-3.66-5.41c-1.26-2.71-3.06-3.7-6.03-4.22c-9.03-1.6-17.35-5.16-25.06-10.18c-1.84-1.2-3.51-2.86-5.79-3.43
		C521.86,341.87,521.77,349.45,516.6,356.57z M383.17,397.38c-10.4,2.54-19.98,5.13-30.46,4.51c1.66,7.86,3.18,15.06,4.96,23.5
		c3.44-5.2,5.81-10.21,10.35-13.1c4.88-3.11,10.81-2.53,16.44-3.55C384.44,404.78,382.54,401.43,383.17,397.38z M277.79,210.83
		c-2.33,5.68-3.5,11.63-5.76,17.34c3.91-2.2,5.11-6.8,9.43-8.52C279.56,216.63,279.95,213.47,277.79,210.83z M391.96,196.31
		c-1.52,3.04-3.78,5.38-2.28,8.12c1.27,2.31,3.88,3.15,7.31,2.29C394.38,203.71,394.62,199.9,391.96,196.31z"/>
</g>
</svg>
