<?xml version="1.0" encoding="utf-8"?>
<!-- Generator: Adobe Illustrator 24.0.2, SVG Export Plug-In . SVG Version: 6.00 Build 0)  -->
<svg version="1.1" id="Layer_1" xmlns="http://www.w3.org/2000/svg" xmlns:xlink="http://www.w3.org/1999/xlink" x="0px" y="0px"
	 viewBox="0 0 861.59 767.22" style="enable-background:new 0 0 861.59 767.22;" xml:space="preserve">
<g>
	<path d="M533.07,760.81c-0.75-2.3,0.3-4.28,1.02-6.29c6.02-16.77,15.61-31.6,25.46-46.26c1.95-2.91,3.84-5.84,5.52-8.91
		c1.37-2.51,0.78-4.49-1.64-5.93c-10.38-6.19-19.58-13.72-26.8-23.51c-1.51-2.05-3.77-2.54-5.98-3.29
		c-9.89-3.36-20.31-3.03-30.47-4.47c-19.39-2.76-38.92-1.27-58.38-1.67c-13.15-0.27-26.32-0.11-39.47,0.01
		c-11.81,0.11-23.68,0.57-35.29,2.5c-8.19,1.36-15.54,5.76-22,11.18c-2.53,2.12-5.03,4.35-6.94,7.05c0.12,2.09,1.75,2.82,3.07,3.75
		c5.06,3.58,9.33,8.05,13.82,12.27c1.23,1.15,2.58,2.41,1.77,4.29c-0.77,1.8-2.63,1.93-4.28,1.94c-5.99,0.06-11.96,0.14-17.96-0.51
		c-6.44-0.69-12.96-1.26-19.4-0.97c-5.34,0.24-10.24,2.79-14.49,6.1c-3.32,2.59-7.08,4.28-10.58,6.33
		c-4.59-2.28-6.3-6.68-8.57-10.41c-2.3-3.77-5.11-4.88-9.18-4.09c-7.02,1.38-14.08,2.59-21.09,4.03c-2.19,0.45-3.94,0.34-5.39-2.06
		c1.83-4.63,5.55-7.91,9.27-11.17c0.87-0.77,1.87-1.39,2.79-2.11c3.78-2.91,3.82-4.16-0.35-6.25c-6.87-3.43-12.18-8.65-17.21-14.24
		c-6.17-6.86-8.72-14.95-9.28-24.14c-1.12-18.42,6.08-33.67,16.68-47.93c6.22-8.36,13.9-15.24,21.53-22.18
		c1.92-1.75,3.3-3.61,3.93-6.16c1.39-5.59,2.95-11.14,4.43-16.63c-2.08-0.94-2.46,0.56-3.11,1.32c-4.9,5.67-9.74,11.4-14.6,17.11
		c-2.98,3.49-4.62,3.67-7.86,0.73c-2.96-2.69-5.76-5.55-8.82-8.12c-2.68-2.25-2.82-4.64-1.3-7.52c1.86-3.53,3.43-7.23,5.52-10.62
		c1.77-2.88,2.26-5.66,0.36-8.4c-4.24-6.1-2.19-11,2.21-15.96c4.75-5.36,9.09-11.06,13.65-16.59c1.5-1.81,3.02-3.55,1.25-6.47
		c-4.74,3.78-8.15,8.46-11.65,12.95c-7.78,9.97-15.88,19.7-23.18,30.04c-2.72,3.86-3.72,7.38-2.16,12.03
		c1.46,4.38,2.18,9.07,2.76,13.68c0.52,4.18,1.44,8.21,3.18,12c1.25,2.71,1.05,5.07-0.49,7.55c-2.55,4.09-4.97,8.27-7.48,12.4
		c-1.32,2.17-2.39,4.27-1.52,7.02c0.48,1.52,0.27,3.3,0.21,4.96c-0.37,10.74,1.72,21.2,3.43,31.71c0.89,5.45,0.33,6.15-4.66,8.31
		c-5.39,2.33-11.08,3.59-16.73,5.01c-1.44,0.36-2.89,0.41-3.52,2.23c-3.34,9.61-8.04,18.63-12.27,27.86
		c-0.99,2.15-0.83,4.04-0.21,6.24c1.88,6.6,4.74,12.82,7.51,19.03c4.08,9.16,7.44,18.49,9.35,28.35c0.8,4.13-0.32,5.65-4.55,5.11
		c-6.26-0.81-12.51-1.77-18.73-2.84c-8.85-1.52-17.67-3.21-26.51-4.82c-0.65-0.12-1.37,0.01-1.98-0.21
		c-11.08-3.94-22.68-2.76-34.08-3.55c-3.55-0.24-6.84,0.34-10.12,1.98c-13.7,6.82-27.48,13.48-41.78,19.01
		c-4.5,1.74-9.03,3.33-13.68,4.59c-4.3,1.16-5.69,0.1-5.08-4.39c1.1-8.11,3.74-15.84,6.46-23.53c1.55-4.4,1.57-4.76-2.86-6.74
		c-5.68-2.53-11.3-3.06-17.34-0.48c-9.63,4.11-19.48,7.73-29.3,11.38c-2.24,0.83-4.7,1.84-7.22,0.64c-1.4-2.06-0.41-3.95,0.46-5.68
		c8-15.91,15.99-31.82,25.26-47.03c1.06-1.73,1.81-3.32,1.99-5.46c1.83-22.41,9.41-42.42,25.03-59.01c0.44-0.47,0.76-1.06,1.24-1.75
		c-4.89-5.14-8.24-11.32-12.76-16.64c-2.74-3.23-2.6-4.58,0.38-7.7c7.48-7.83,15.69-14.93,22.9-23.02c0.64-0.72,1.55-1.26,1.77-3.35
		c-7.22,2.11-13.54,5.59-20.52,6.96c-1.71-1.33-1.48-3.3-1.43-5.04c0.16-4.99,0.59-9.97,0.8-14.96c0.12-2.84,1.56-4.53,4.08-5.65
		c6.09-2.7,12.07-5.63,18.19-8.25c5.26-2.26,8.88-5.41,9.1-11.69c0.14-3.89,3.18-5.92,6.4-7.65c10.57-5.69,21.97-9.59,32.55-15.2
		c7.94-4.2,15.73-8.64,24.07-12.03c0.92-0.37,1.75-1.12,2.7-1.28c7.76-1.35,11.6-6.65,14.7-13.36c3.48-7.53,8.99-13.96,12.85-21.34
		c1.69-3.24,3.65-6.34,5.45-9.53c2.63-4.67,2.1-7.29-1.73-10.75c-2.12-1.91-4.31-0.61-6.13-0.09c-6.68,1.91-13.52,3.1-20.73,5.09
		c-6.5-9.67-7.6-21.18-10.66-32.4c6.36-3.62,13.17-5.2,19.84-7.05c5.28-1.47,10.65-2.62,15.99-3.91c1.76-0.43,3.38-1.03,4.65-3.14
		c-3.46-1.05-6.72,0.32-10.07-1.11c0-3.7,0-7.46,0-11.23c-6.15-1.91-11.89-3.53-17.83-4.36c-4.99-0.7-8.23-3-9.92-8.17
		c-3.01-9.19-5.68-18.43-7.16-28c-0.81-5.25,0.26-6.77,5.44-5.72c12.2,2.47,24.54,4.51,36.29,8.79c3.12,1.14,5.73,1.4,8.21-1.13
		c1.39-1.42,2.9-1.45,4.97-0.96c9.23,2.18,18.56,3.94,27.61,6.88c0.64,0.21,1.29,0.25,1.98-0.37c-4.21-5.89-8.21-12.01-12.8-17.65
		c-2.03-2.49-5.17-4.16-7.97-5.93c-7.46-4.72-14.87-9.48-21.98-14.72c-4.95-3.64-10.44-6.52-15.17-10.53
		c-1.31-1.11-1.87-2.01-1.83-3.68c0.12-5.21,0.89-10.3,2.76-15.16c0.67-1.73,1.01-3.48,1.36-5.28c0.63-3.15-0.59-5.1-3.32-6.46
		c-4.81-2.4-8.84-5.9-12.98-9.26c-1.76-1.43-2.3-2.83-2.17-5.09c0.32-5.98,1.1-11.9,1.87-18.13c-3.87-1.54-7.56-3.53-11.51-4.44
		c-4.87-1.13-7.21-4.23-7.72-8.6c-0.4-3.44-2.2-5.14-5.03-5.93c-9.19-2.56-17.59-7.01-26.38-10.55c-3.73-1.5-7.1-3.64-10.68-5.39
		c-1.83-0.9-3.33-2.18-3.54-4.48c-0.72-8.1-2.36-16.15-1.01-24.34c0.61-3.68,1.63-4.55,5.29-3.62c3.06,0.78,6.04,1.86,9.04,2.88
		c9.77,3.32,20.04,4.97,29.67,8.8c0.72,0.29,1.61,0.16,2.78,0.25c-0.28-2.17-1.7-2.97-3.1-3.63c-10.59-5-19.81-12.2-29.63-18.43
		c-2.37-1.5-4.9-2.7-7.14-4.5c-2.38-1.92-3.31-4.11-2.86-6.95c1.56-9.89,3.54-19.66,8.56-28.51c2.71-4.77,3.76-5.22,9.17-3.54
		c2.84,0.89,5.79,1.52,8.3,3.28c0.96,0.68,1.86,0.53,3.11-0.78c-3.28-5.3-6.06-11.1-8.86-16.88c-3.53-7.31-8.15-14.2-9.52-22.39
		c-2.84-17.04-6.67-33.9-8.78-51.07c-0.44-3.62-0.67-7.26-1.19-10.88c-0.34-2.39-1.19-5.43,1.58-6.75c2.89-1.38,5.96-2.78,9.51-1.04
		c5.69,2.78,10.99,6.24,16.61,9.16c14.01,7.26,28.84,13.04,41.97,21.86c11.16,7.49,23.39,13.57,32.8,23.52
		c0.66,0.69,1.3,1.58,2.84,1.26c-0.55-7.74-3.87-14.91-5.01-22.55c0.98-1.76,2.77-2.32,4.42-3.01c8.76-3.7,17.78-6.48,27.19-7.98
		c3.26-0.52,5.06,0.62,6,3.67c2.25,7.32,4.58,14.61,6.87,21.92c1.62,5.19,3.22,10.38,5,16.13c1.28-1.32,1.02-2.46,1.01-3.48
		c-0.05-6.68,0.77-13.3,1.73-19.89c0.75-5.13,1.68-5.77,6.85-6.92c5.74-1.28,11.54-1.54,17.35-1.35c7.4,0.24,8.68,1.66,8.67,8.96
		c-0.05,22.39,3,44.52,5.56,66.68c0.53,4.61,1.15,9.21,1.7,13.57c1.41,1.05,2.59,0.65,3.58,0.13c4.87-2.6,10.17-4.04,15.34-5.86
		c5.02-1.76,5.27-1.78,6.95,3.5c2.63,8.25,5.21,16.51,7.66,24.81c2.78,9.44,7.08,18.31,10.15,27.63c0.5,1.51,1.35,2.33,2.89,2.07
		c1.47-0.25,1.55-1.49,1.55-2.72c-0.04-14.16,1.35-28.25,2.11-42.37c0.22-4.14,1.38-6.46,5.68-7.95c10.9-3.77,10.76-4.06,14.71-15.1
		c1.57-4.38,3.36-8.69,5.11-13.01c0.75-1.86,1.72-3.55,3.6-4.63c4.73-2.74,15.95-4.38,22.05-3c1.01,5.07,1.42,10.3,1.53,15.6
		c0.05,2.19-1.28,5.15,2.64,5.98c3.84,0.82,5.46-1.19,6.64-4.25c1.75-4.52,4.32-8.63,6.49-12.94c1.11-2.2,2.49-3.15,4.92-3.48
		c5.45-0.72,10.91-1.39,16.4-1.64c2.38-0.11,4.03-0.86,5.32-2.95c2.37-3.82,5.04-7.44,7.49-11.21c4.35-6.71,9.56-12.75,14.59-18.94
		c1.26-1.55,2.57-2.28,4.69-2.02c7.08,0.89,14.15,1.81,21.14,3.24c1.79,0.37,3.48,1.05,5.19,2.52c-2.66,10.02-7.71,19.22-11.6,29.32
		c2.71,0.85,5.14,1.81,7.66,2.36c2.73,0.59,3.07,2.02,2.24,4.35c-1.18,3.27-2.24,6.59-3.44,10.16c4.49,2.78,9.08,5.29,13.77,7.72
		c6.48,3.36,7.63,3.9,4.1,10.54c-0.58,1.1-1.27,2.37-0.81,4.17c3.28-2.03,4.7-5.44,6.92-8.09c7.81-9.31,15.51-18.71,24.08-27.36
		c3.34-3.38,6.43-4.74,11.34-2.34c5.68,2.78,11.26,5.58,17.01,9.6c-7.03,15.62-17.2,29.54-24.37,45.67
		c1.98-0.59,2.97-1.75,3.89-3.04c4.66-6.5,10.01-12.46,14.98-18.71c1.89-2.39,3.48-2.48,5.87-0.92c6.27,4.09,12.3,8.48,17.63,13.87
		c2.18-0.82,2.42-2.81,3.08-4.41c3.41-8.32,6.84-16.63,10.04-25.02c1.26-3.31,3.42-5.03,6.75-5.94c9.45-2.57,19-3.3,28.71-2.25
		c6.82,0.74,8.14,2.58,5.78,9.17c-2.24,6.27-3.63,12.83-6.46,18.9c-0.21,0.45-0.33,0.95,0.13,1.43c1.43,0.2,1.87-1.11,2.52-1.92
		c5.02-6.21,9.89-12.54,14.99-18.68c1.5-1.8,2.17-3.66,2.23-5.89c0.25-9.98,0.67-19.96,0.69-29.95c0.02-8.63,1.99-12.01,9.92-15.35
		c3.68-1.55,7.35-3.21,11.38-3.61c3.1-0.3,4.33-2.34,4.66-4.99c1.4-11.27,5.8-21.87,7.29-33.14c0.47-3.56,2.26-6.95,3.38-10.43
		c0.4-1.23,1.12-1.99,2.36-2.32c10.81-2.93,21.26-7.74,32.95-5.86c1.85,0.3,3.45,0.84,5.11,1.67c2.39,1.19,2.88,2.58,2.26,5.18
		c-2.67,11.19-6.48,22.04-9.67,33.07c-0.97,3.35-1.32,6.84-2.72,10.1c-1.01,2.34,0.44,3.82,2.68,4.42c2.24,0.61,4.56,0.95,6.78,1.62
		c5.82,1.75,6.46,1.82,9.89-3.46c8.18-12.59,18.05-23.89,27.02-35.88c2.85-3.82,2.97-3.75,7.23-1.39c2.62,1.45,5.22,3,8.01,4.05
		c4.98,1.87,9.09,4.88,12.47,8.88c2.1,2.48,3.93,2.85,7.23,1.56c9.74-3.82,18.87-9.1,29-11.97c8.48-2.4,17.13-4.08,25.8-5.56
		c6.24-1.07,12.48-2.07,18.67-3.39c2.75-0.59,5.24-0.33,7.54,1.28c0.55,2.41-0.33,4.32-1.4,6.25c-6.41,11.53-11.25,23.7-15.25,36.26
		c-3.54,11.12-8.1,21.86-14.66,31.58c-1.88,2.78-1.8,5.12-0.49,7.88c1.43,3,2.76,6.05,4.04,9.12c2,4.78,1.82,6.32-1.91,9.72
		c-6,5.47-11.65,11.32-18.9,15.38c-3.36,1.88-4.34,6.14-5.81,9.66c-1.72,4.12-2.87,8.58-7.1,11.35c1.99,5.58,5.08,10.57,6.24,16.31
		c0.44,2.17,2.56,1.72,4.2,1.48c9.22-1.34,18.43-2.73,27.66-4.05c3.46-0.49,6.93-0.94,10.41-1.17c3.65-0.25,4.64,0.98,3.72,4.41
		c-2.26,8.39-5.66,16.33-9.8,23.97c-1.29,2.38-3.57,3.41-5.85,4.43c-7.8,3.47-16.13,5.21-24.43,6.82c-3.41,0.66-4.88,2.1-5.19,5.47
		c-0.65,7.1-4.16,13.28-6.78,19.73c-1.02,2.51-2.86,3.51-5.74,3.91c-14.2,1.94-28.51,2.54-42.77,3.73c-3.22,0.27-6.08,1.2-8.77,3.16
		c-13.85,10.13-28.29,19.37-42.84,28.45c-1.5,0.93-3.17,1.63-4.4,4.16c6.36-0.32,12.09,0.02,17.76-0.95
		c7.71-1.32,7.69-1.4,9.79,6.19c0.22,0.78,0.66,1.5,1.26,2.83c6.82,0,13.79-0.01,20.77,0.01c3.17,0.01,6.34-0.03,9.49,0.14
		c2.8,0.15,3.83,1.7,2.9,4.42c-0.32,0.95-0.51,1.95-0.94,2.84c-4.57,9.59-8.53,19.5-15.24,27.94c-2.49,3.13-6.1,3.85-9.59,4.74
		c-4.69,1.19-9.51,1.59-14.34,1.9c-9.13,0.59-18.25,1.47-27.39,1.9c-5.13,0.24-6.49,4.45-9.63,7.59c4.79,2.37,9.47,1.12,14.17,1.44
		c3.13,9,1.95,18.1,1.33,27.15c-0.12,1.8-1.55,2.49-3.07,2.83c-2.6,0.58-5.2,1.2-7.84,1.52c-7.6,0.94-15.2,1.85-22.6,3.93
		c-1.2,0.34-2.72,0.05-3.69,1.83c3.12,2.27,6.91,2.7,10.43,3.64c7.5,2.01,7.59,2.07,5.5,9.34c-1.1,3.84-3.71,7.02-4.76,10.95
		c2.43,2.02,5.17,1.46,7.75,1.57c7.62,0.3,8.31,1.19,6.57,8.66c-0.06,0.25,0.22,0.58,0.49,1.26c3.36-3.41,6.47-1.75,9.66,0.35
		c3.42,2.25,7.67,3.34,10.09,7.13c-1.05,3.08-4.65,4.36-5.42,7.87c2.83,0.47,4.59-1.28,6.52-2.34c7.8-4.29,16.02-7.68,24.83-8.7
		c12.72-1.47,25.24-4.42,38.06-5.07c1.65-0.08,3.27-0.65,4.92-0.86c3-0.38,3.98,0.56,3.73,3.56c-0.14,1.69-0.88,3.19-1.62,4.69
		c-5.9,11.93-11.97,23.78-17.61,35.83c-3.07,6.56-8.46,11.05-12.94,16.37c-3.36,4-8.64,6.38-10.11,11.96
		c-4.55,1.24-6.65,5.23-9.37,8.47c-2.75,3.28-5.25,6.79-7.83,10.17c1.83,1.88,3.74,1.23,5.51,1.23c5.16,0.02,10.33,0.06,15.49-0.04
		c2.97-0.06,3.9,1.56,3.56,4.11c-0.57,4.29-1.22,8.58-2.04,12.83c-0.97,5.06-2.42,10.04-3.16,15.13c-0.49,3.39-2.25,4.63-5.27,4.73
		c-2.97,0.1-5.94,0.02-8.81,0.02c-0.7,1.84,0.48,2.26,1.47,2.89c5.49,3.47,10.98,6.93,16.42,10.47c4.35,2.84,7.02,5.89,6.3,12.16
		c-0.96,8.31-2.18,16.37-5.42,24.86c-5.33-2.33-9.41-6.3-14.27-8.91c-4.9-2.62-9.58-5.65-14.66-8.15
		c3.97,8.31,8.56,16.07,14.49,22.98c0.22,0.25,0.47,0.48,0.68,0.73c1.82,2.14,4.39,4.33,3.44,7.28c-1.01,3.13-4.49,2.15-7,2.57
		c-6.57,1.12-12.6,4.1-19.13,4.81c-0.77,3.18,1.28,4.91,2.32,6.78c6.08,10.95,10.44,22.62,15,34.23
		c4.74,12.09,8.47,24.52,12.93,36.67c2.87,7.83,8.46,14.64,13.39,21.55c7.34,10.31,14.59,20.67,19.35,32.51
		c0.3,0.75,0.47,1.56,0.78,2.58c-2.57,1.41-5.12,1.41-7.76,1.2c-15.45-1.2-30.65-4.16-45.87-6.86c-8.1-1.44-15.8-1.65-22.95,2.89
		c-0.76,2.11,0.13,3.96,0.82,5.45c3.48,7.47,4.19,15.68,6.62,23.41c1.29,4.11,0.03,5.59-4.27,5.39c-0.99-0.05-2.06-0.05-2.96-0.4
		c-16.69-6.45-33.59-12.39-49.13-21.46c-7.71-4.5-16.16-6.86-24.83-8.63c-2.46-0.5-4.6,0.64-6.75,1.43
		c-11.52,4.25-22.9,8.92-34.52,12.89c-13.22,4.52-26.72,8.1-40.55,10.31C535.71,761.52,534.53,761.9,533.07,760.81z"/>
</g>
</svg>
