<?xml version="1.0" encoding="utf-8"?>
<!-- Generator: Adobe Illustrator 24.0.2, SVG Export Plug-In . SVG Version: 6.00 Build 0)  -->
<svg version="1.1" id="Layer_1" xmlns="http://www.w3.org/2000/svg" xmlns:xlink="http://www.w3.org/1999/xlink" x="0px" y="0px"
	 viewBox="0 0 860.69 669.01" style="enable-background:new 0 0 860.69 669.01;" xml:space="preserve">
<g>
	<path d="M148.89,631.09c-0.56-3.95,0.87-7.5,2.51-10.86c2.2-4.5,4.05-9.13,5.78-13.81c1.44-3.88,0.05-5.22-4.14-5.25
		c-13.47-0.1-26.97,1.33-40.39-0.81c-2.83-0.45-4.51,0.11-5.98,2.87c-2.81,5.31-4.52,11.04-6.95,16.49
		c-4.85,10.92-9.85,21.81-13.78,33.16c-1.8,5.2-2.09,10.68-3.94,16.11c-8.77-11.65-15.52-23.88-19.5-37.7
		c-2.15-7.47-5.29-14.68-7.84-22.05c-1.81-5.21-3.21-10.45-4.12-15.87c-0.92-5.52-1.48-11.12-3.4-16.46
		c-1.13-3.12-2.86-5.45-6.15-6.61c-12.81-4.53-23.44-12.53-33.25-21.63c-6.56-6.09-8.06-13.96-7.7-22.78
		c0.58-14.34,4.22-28.29,4.64-42.62c0.11-3.77-0.21-7.53,1.13-11.34c2.3-6.56,6.99-10.94,12.38-14.54
		c5.05-3.37,7.37-7.75,8.93-13.52c3.24-12.03,7.34-23.79,12.25-35.33c7.16-16.84,17.31-31.84,27.06-47.1
		c3.85-6.03,8.67-11.42,13.77-16.45c14.11-13.95,27.16-28.72,38.33-45.21c6.44-9.51,12.49-19.25,18.79-28.84
		c2.09-3.18,3.1-6.9,5.63-9.95c3.22-3.88,7.42-6.09,11.66-8.31c2.82-1.47,3.47-3.21,2.78-6.43c-1.44-6.65-2.27-13.44-3.27-20.18
		c-0.7-4.74-1.26-9.51-1.92-14.25c-1.38-9.92,1.53-18.01,7.33-25.97c6.93-9.5,14.92-17.86,23.49-25.78
		c3.1-2.86,6.73-4.87,10.36-6.91c8.27-4.65,15.65-10.97,24.46-14.47c6.16-2.44,9.62-6.38,11.72-12.23c0.61-1.69,1.65-3.23,2.4-4.68
		c-19.52-12.98-38.88-26.1-58.72-38.49c-4.5-2.81-8.66-6.21-12.82-9.53c-3.28-2.61-3.07-4.79,0.49-6.94c1.7-1.03,3.54-1.82,5.57-2.1
		c8.07-1.12,16.08-3.11,24.27-2.56c7.6,0.51,14.89-0.83,22.22-2.46c12.88-2.86,26.07-3.15,39.15-4.32
		c6.12-0.55,12.24-1.24,18.37-1.6c5.11-0.3,10.24,0.31,15.38-0.53c1.9-0.31,3.48-0.55,4.84-2c4.01-4.29,8.62-7.76,13.78-10.61
		c3.33-1.84,6.32-4.26,9.3-6.71c6.47-5.31,13.7-9.04,21.82-11.68c17.43-5.67,34.96-10.65,53.15-13.21c7.73-1.09,14.97-4.86,22.9-4.7
		c5.45,0.11,10.67-2.35,16.25-0.97c1.38,0.34,3.13-0.9,4.73-1.31c7.81-1.99,15.7-2.34,23.76-1.88c11.3,0.64,22.65,0.28,33.9,1.86
		c11.03,1.55,22.05,2.86,32.79,6.26c18.86,5.97,36.93,13.65,54.15,23.35c8.69,4.9,16.9,10.61,25.48,15.72
		c5.99,3.56,11.4,8.51,14.75,15.16c1.56,3.11,4.54,5.25,6.51,8.18c7.53,11.2,14.08,23,21.09,34.51c1.18,1.94,2.56,2.43,4.5,3.2
		c8.35,3.29,15.12-1.81,22.26-4.05c7.74-2.43,15.4-5.49,22.77-8.81c8.5-3.84,17.34-6.63,25.88-10.24
		c17.14-7.24,34.29-14.43,52.23-19.52c3.19-0.91,6.26-0.29,9.37,0.22c2.1,0.34,2.43,1.99,2.64,3.71c0.39,3.17-1.03,5.91-2.35,8.56
		c-6.91,13.85-12.58,28.26-18.88,42.38c-1.52,3.42-3.17,6.87-4.04,10.91c3.93,0.51,6.86-1.23,9.79-2.49
		c17.71-7.65,35.52-15.04,53.69-21.53c4.22-1.51,8.53-2.77,12.7-4.44c2.81-1.13,5.51-0.68,7.95,1.31c2.71,2.23,1.48,4.77,0.8,7.32
		c-2.14,8.07-5.71,15.6-8.72,23.35c-2.15,5.55-1.72,5.79,2.17,10c7.39,7.99,12.96,17.28,17.84,26.98c0.6,1.19,1.04,2.45,1.67,3.62
		c3.71,6.92,4.02,14.07,2.6,21.74c-3.11,16.84-8.4,33.14-11.61,49.97c-1.72,9.04-4.14,18.15-7.45,26.89
		c-4.84,12.79-8.34,25.98-11.44,39.28c-2.77,11.87-3.46,24.03-4.43,36.13c-0.86,10.6,0.25,21.35-1.68,31.88
		c-1.13,6.17-2.34,12.28-5.6,17.97c-2.43,4.24-3.27,9.36-4.98,14.04c-4.69,12.81-8.38,25.96-12.39,38.97
		c-4.8,15.6-9.67,31.11-16.5,45.96c-0.99,2.15-0.78,4.75-0.07,6.88c1.86,5.62,1.2,11.55,2.65,17.23c0.64,2.51-0.62,5.22-1.42,7.77
		c-4.83,15.4-11.64,29.98-18.44,44.56c-2.88,6.17-8.02,10.41-12.84,14.96c-10.89,10.27-24.49,10.97-38.22,10.83
		c-4.66-0.05-8.06,0.89-11.45,4.42c-4.14,4.29-9.88,6.72-15.15,9.54c-15.12,8.07-30.65,15.38-46.89,20.87
		c-13.43,4.54-27.37,7.13-41.58,7.99c-0.99,0.06-2,0.04-2.98-0.06c-0.44-0.05-0.85-0.41-1.94-0.98c3.79-5.06,9.48-7.68,13.51-12.06
		c4.05-4.41,8.19-8.75,12.41-12.99c4.36-4.38,8.33-9.05,12.23-13.82c3.78-4.62,8.41-8.51,11.96-13.58
		c-2.74-3.89-6.76-5.31-10.89-6.57c-1.49-0.45-2.44,0.27-3.52,1.21c-7.73,6.79-15.35,13.73-23.36,20.19
		c-7.87,6.34-16.14,12.17-24.25,18.21c-1.22,0.91-2.54,1.79-4.13,1.11c-1.71-0.73-1.68-2.44-1.58-3.89
		c0.41-6.3,0.79-12.61,1.47-18.89c1.07-9.76,2.87-19.43,3.44-29.26c0.21-3.6,2.04-7.01,2.1-10.86c-7.41-4.35-14.87-8.72-22.92-13.45
		c-7.59,22.7-8.82,46.35-13.23,69.72c-4.74-1.74-6.57-5.26-8.47-8.4c-6.83-11.27-13.11-22.88-16.58-35.66
		c-4.7-17.36-8-34.96-5.87-53.11c0.62-5.26,0.03-10-3.06-14.71c-3.35-5.1-6.11-10.63-8.58-16.28c-3.4-7.75-2.78-15.46,0.47-22.77
		c7.09-15.95,14.74-31.64,22.52-47.27c4.46-8.96,11.74-13.02,20.89-15.25c5.22-1.28,10.43-2.07,15.77-1.95
		c2.23,0.05,3.62-0.47,4.35-2.98c3.63-12.37,9.73-23.69,15.49-35.12c5.65-11.22,10.94-22.67,18.14-33.22
		c-5.4,2.23-10.73,4.37-16,6.58c-6.14,2.57-12.5,4.49-18.65,7c-5.89,2.4-12.23,3.16-18.33,4.8c-8.5,2.28-17.2,3.81-25.73,5.97
		c-5.37,1.36-10.84,1.67-16.27,2.44c-23.77,3.36-47.63,5.24-71.66,4.67c-7.66-0.18-15.35,0.08-22.97-0.5
		c-14.39-1.09-28.84-1.69-43.08-4.44c-10.78-2.08-21.65-3.67-32.58-4.76c-3.99-0.4-7.78-1.82-11.68-2.53
		c-8.62-1.58-16.69-5.36-25.55-5.98c-2.64-0.18-4.97-1.85-7.35-3.03c-3.07-1.53-6.14-1.94-9.64-1.45
		c-13.56,1.87-26.66-0.39-38.79-6.5c-5.08-2.56-9.2-1.91-13.63,0.39c-7.39,3.84-14.41,8.23-20.74,14.11
		c2.39,4.69,6.52,8.24,9.06,12.91c2.64,4.86,4.94,9.94,5.64,15.33c1.24,9.45,4.66,18.37,6.11,27.74c0.84,5.42,1.86,10.82,2.52,16.27
		c0.94,7.78,2.78,15.39,3.85,23.14c1.03,7.44,0.43,14.96,0.55,22.44c0.07,4.34,1.48,7.54,4.57,10.51c3.47,3.34,6.48,7.16,9.66,10.8
		c5.02,5.76,4.19,12.65,3.51,19.41c-0.91,9.09-0.88,18.21-0.66,27.3c0.12,4.77-1.23,9.19-1.8,13.77c-0.67,5.29-3,10.18-3.87,15.48
		c-0.53,3.2-2.64,5.99-5.08,8.43c-9.4,9.4-19.94,17.11-32.13,22.51c-4.29,1.9-7.84,4.75-11.17,8.12
		c-7.88,7.97-17.04,14.23-27.03,19.38c-7.11,3.66-14.24,7.2-21.93,9.47C151.72,630.98,150.53,631.65,148.89,631.09z M799.02,190.64
		c-2.71,1.98-49.08,48.78-49.56,50.01C765.68,240.2,796.84,208.76,799.02,190.64z M195.15,317.66c6.5-5.87,14.77-8.46,19.09-16.39
		c-4.33-4.31-9.05-7.38-13.67-10.53c-2.28-1.56-3.82-0.71-3.87,2.17c-0.09,5.53-1.87,10.78-2.21,16.25
		C194.33,311.64,193.91,314.11,195.15,317.66z"/>
</g>
</svg>
