<?xml version="1.0" encoding="utf-8"?>
<!-- Generator: Adobe Illustrator 24.0.2, SVG Export Plug-In . SVG Version: 6.00 Build 0)  -->
<svg version="1.1" id="Layer_1" xmlns="http://www.w3.org/2000/svg" xmlns:xlink="http://www.w3.org/1999/xlink" x="0px" y="0px"
	 viewBox="0 0 860.69 727.24" style="enable-background:new 0 0 860.69 727.24;" xml:space="preserve">
<g>
	<path d="M39.48,618.45c-2.41-0.98-4.26-0.75-6.07-0.78c-6.4-0.11-9.16-3.19-9.07-9.69c0.15-11.21,5.91-19.93,12.39-28.27
		c6.28-8.08,14.63-13.46,24.03-17.34c5.07-2.09,9.61-6.01,12.89-10.99c2.52-3.84,6.47-5.14,10.58-5.93
		c16.14-3.12,31.08-0.39,44.6,9.29c4.85,3.48,9.52,7.16,13.73,11.81c3.37-3.43,5.13-7.25,7.23-10.7c5.37-8.83,11.18-17.29,18.3-24.8
		c3.12-3.28,6.78-5.96,10.61-8.28c4.64-2.82,10-2.7,15.1-1.86c16.27,2.69,32.3,6.44,48.03,11.43c5.44,1.73,10.12,4.98,15.24,7.34
		c2.06,0.95,3.8,1.19,5.37-0.67c6.7-7.95,15.5-13.61,22.73-20.97c11.5-11.71,21.3-24.64,28.52-39.45
		c4.51-9.26,9.04-18.51,13.8-27.64c3.54-6.78,4.2-6.91-0.44-16.95c-8.51,2.08-16.4,6.69-26.19,7.83
		c3.05-10.21,9.25-17.84,13.8-26.48c-2.91-1.06-5.12,0.08-7.3,0.58c-10.09,2.28-19.95,3.48-30.49,1.28
		c-10.49-2.19-19.94-5.84-28.93-11.48c-7.64-4.79-13-11.38-16.8-19.31c-2.07-4.32-4.52-8.53-5.17-13.46
		c-0.42-3.16-2.53-4.75-5.78-5.2c-16.82-2.31-29.63-11.76-39.99-24.31c-18.04-21.85-27.27-47.29-28.84-75.61
		c-0.43-7.81,0.02-15.59-0.18-23.38c-0.07-2.83,0.91-5.56,1.92-8.22c0.73-1.93,1-3.88-0.49-5.66c-6.6-7.9-11.65-17.04-19.31-24.12
		c-10.03-9.26-19.61-19.02-30.35-27.5c-4.78-3.78-10.55-5.59-15.99-8.05c-15.41-6.96-31.04-5.09-46.71-0.84
		c-3.69,1-7.45,1.8-11.22,2.44c-6.82,1.17-13.27-0.51-18.15-5.12c-6.77-6.39-8.74-18.71-0.01-26.02c6.81-5.7,14.79-7.38,23.19-7.15
		c3.35,0.09,6.63-0.3,9.92-0.45c5.79-0.26,11.51,1.29,17.35,0.11c4.53-0.91,7.08-4.6,5.38-8.93c-2.23-5.66-5.78-10.56-9.53-15.19
		c-8.25-10.2-15.49-21.21-24.79-30.56c-2.73-2.74-5.85-4.93-8.78-7.38c-5.9-4.93-11.11-10.55-16.15-16.31
		c-4.73-5.4-7.21-11.81-7.48-19.1C-0.1,33.46,1,31.44,2.96,29.38c5.66-5.95,21.12-7.07,28.49,0.01c6.53,6.27,12.32,13.13,17.48,20.5
		c4.88,6.95,9.41,14.14,14.04,21.26c1.11,1.7,2.5,3.12,3.98,4.46c2.97,2.69,5.33,2.74,9.49,0.28c-0.13-0.58-0.09-1.34-0.43-1.83
		c-4.32-6.31-7.46-13.32-12.01-19.53c-5.2-7.1-10.01-14.5-14.64-21.99c-3.09-5-4.71-10.64-4.43-16.59
		c0.28-5.88,3.38-8.45,9.07-10.11C60.36,4,65.29,5.98,70.24,9.54c6.11,4.4,10.39,10.27,14,16.68c5.3,9.44,10.15,19.12,14.07,29.22
		c1.01,2.61,1.32,5.49,2.09,8.2c0.6,2.14,1.52,4.46,4.31,3.73c2.58-0.67,3.75-2.89,3.12-5.49c-0.74-3.06-1.76-6.07-2.86-9.02
		c-3.9-10.42-8.02-20.77-11.76-31.24c-1.43-3.99-2.9-8.14-1.78-12.59c0.29-1.14,0.44-2.39,1.29-3.2c3.02-2.86,6.89-4.26,10.7-5.64
		c1.36-0.49,2.96-0.09,4.14,1.12c2.56,2.63,6.02,4.16,8.39,6.89c8.88-2.68,16.05-0.34,21.03,7.56c6.01,9.52,9.83,19.86,11.15,31.2
		c0.88,7.54,0.92,15.29,4.01,22.49c0.6,1.39,1.07,2.72,2.19,3.82c15.1,14.83,27,32.05,37.53,50.29c7.38,12.79,14.17,25.9,21.23,39.6
		c1.99-2.58,3.84-4.83,5.54-7.18c11.51-15.87,25.44-29.44,40.16-42.26c16.93-14.75,36.18-25.92,55.75-36.68
		c12.13-6.67,24.52-12.76,37.29-17.99c7.64-3.13,15.57-5.56,23.89-9.4c-1.23,3.61-3.54,5.55-5.19,7.81
		c-9.94,13.65-15.52,29-17.59,45.6c-0.74,5.96,0.65,12.02,2.48,17.7c1.93,5.99,7.49,8.43,12.92,10.08
		c8.59,2.61,15.81,7.69,23.57,11.84c6.35,3.4,12.02,7.74,17.96,11.71c9.35,6.25,17.19,14.09,23.88,23.1
		c2.49,3.36,3.65,3.21,7.09,0.26c7.78-6.67,15.1-13.7,25.82-16.31c7.91-1.93,13.45,0.67,18.24,5.72
		c13.05,13.75,19,30.59,20.16,49.29c1.48,23.79-1.77,46.82-11.22,68.83c-1.18,2.75-2.46,5.46-4.18,7.95
		c-0.81,1.17-1.85,2.31-1.59,4.13c5.06-0.09,9.48-2.14,13.93-3.67c18.87-6.47,37.73-12.91,57.18-17.52
		c14.88-3.53,29.58-7.84,44.52-11.07c9.7-2.09,19.68-2.85,29.54-4.22c7.24-1,14.49-1.94,21.72-3.07c1.57-0.24,3.36-0.37,4.74-1.99
		c-0.86-3.29-3.99-5.02-5.85-7.65c-2.64-3.74-2.43-7.3,1.86-8.68c12.93-4.14,18.98-14.84,25.76-25.17
		c4.92-7.49,3.72-14.52-0.14-21.61c-2.23-4.11-5.25-7.65-9.03-10.56c-4.09-3.15-8.16-6.41-10.8-10.96c-1.08-1.85-2.44-2-4.19-1.62
		c-6.69,1.47-11.84-0.38-14.68-7.17c-6.93,2.34-6.85,11.77-14.28,13.48c-1.7-1.55-3.37-3.11-5.08-4.63
		c-1.14-1.01-2.27-1.52-4.04-1.2c-3.84,0.71-6.13-0.84-6.83-4.58c-1.11-5.9-2.28-11.75-4.42-17.39c-0.96-2.53,0.56-4.59,1.98-6.38
		c4.75-6.01,9.72-11.84,15.36-17.04c2.57-2.37,5.2-4.64,7.28-7.52c2.99-4.14,4.83-8.44,5.04-13.76c0.35-9.25,4.27-17.73,6.85-26.5
		c3.74-12.72,10.66-23.96,16.49-35.71c0.12-0.24,0.55-0.32,0.92-0.52c2.28,0.73,1.58,2.98,2.19,4.55c0.48,1.22,0.52,2.73,2.01,3.23
		c1.71,0.57,2.31-0.93,3.09-1.94c7.59-9.93,17.14-17.64,27.52-24.42c0.79-0.52,1.58-1.33,3.27-0.19
		c-6.71,14.49-12.89,29.35-16.39,45.74c5.15-0.5,7.38-5.25,11.73-5.23c1.9,1.71,0.57,3.35,0.16,5.05c-2.09,8.56-6,16.52-8.02,25.15
		c-3.04,12.97-4.79,26.11-6.29,39.31c-0.37,3.29-0.97,6.55-1.08,9.9c-0.1,3.1,1.03,5.13,3.5,6.61c2.43,1.45,4.84,2.96,7.41,4.12
		c2.43,1.1,3.43,2.9,2.63,5.19c-2.16,6.15,2.13,8.75,6.09,11.45c1.61,1.1,3.59,1.87,5.51,2.28c7.84,1.67,15.08,5.07,22.61,7.65
		c8.55,2.93,11.97,12.39,7.8,21.19c-2.77,5.86-5.59,11.7-7.56,17.89c-1.71,5.36-3.58,10.68-4.67,16.22
		c-0.83,4.17-2.69,5.28-6.31,2.86c-4.83-3.22-10.06-3.79-15.26-4.24c-1.4,1.31-0.7,2.45-0.32,3.47c1.16,3.12,2.29,6.25,3.67,9.28
		c4.03,8.85,4.74,8.47,14.34,9.16c7.59,0.55,12.34-1.75,16.22-8.05c2.4-3.9,6.11-6.83,9.97-9.63c7.14-5.16,16.82-0.75,19.34,7.76
		c1.15,3.86,1.66,7.83,0.7,11.85c-0.27,1.11-0.83,2.22-0.03,3.36c1.47,0.46,2.09-0.59,2.69-1.59c2.14-3.56,4.68-6.85,6.34-10.72
		c2.08-4.83,5.59-8.72,9.51-12.09c4.6-3.96,10.17-5.33,15.89-3.11c6.25,2.43,9.32,7.53,10.12,14.19c0.65,5.35-0.56,10.21-2.78,15
		c-0.66,1.42-1.93,2.64-1.96,4.48c2.22,0.73,2.95-1.21,4.22-2.05c7.58-5,13.99-11.74,22.74-15.04c5.54-2.09,9.75-0.85,13.5,3.85
		c6.95,8.72,4.09,20.82-2.33,26.79c-5.97,5.54-11.89,11.2-18.81,15.61c-2.93,1.87-5.87,3.7-8.88,5.59c0.79,3.07,3.31,2.7,5.26,2.92
		c6.93,0.8,13.91,1.03,20.8,2.49c3.86,0.82,7.64,2.01,11.64,2.46c4.59,0.51,8.02,7.14,6.77,12.33c-1.65,6.85-6.04,11.3-12.83,13.36
		c-9.45,2.87-19.09,2.56-28.73,1.52c-8.32-0.9-16.27-3.42-24.14-6.12c-2.65-0.91-3.86-0.41-4.96,2.17
		c-5.25,12.31-14.44,20.82-26.06,27.17c-10.22,5.58-20.16,11.66-30.23,17.52c-4.75,2.77-9.51,5.26-15.18,5.95
		c-7.05,0.85-8.94,3.27-7.96,10.46c1.63,11.9-2.42,22.66-5.88,33.59c-0.1,0.32-0.23,0.63-0.39,0.92c-3.13,5.65-3.17,5.69,1.27,10.12
		c1.76,1.76,3.79,3.25,5.64,4.92c4.04,3.62,3.75,8.44-0.88,11.16c-3.43,2.02-7.12,3.6-10.69,5.38c-8.88,4.43-11.79,8.96-10.57,18.74
		c0.64,5.15-1,8.63-4.65,11.78c-3.46,2.98-5.6,6.7-7.21,11.11c-5.21,14.22-8.39,29.14-14.08,43.12c-6.24,15.34-13.28,30.4-24.72,43
		c-6.49,7.15-13.16,14.07-19.96,20.9c-7.05,7.09-15.05,13.06-22.46,19.72c-2.03,1.83-4.93,2.65-7.34,4.1
		c-5.7,3.44-11.36,6.95-17,10.5c-3.41,2.14-6.88,4.05-11.04,4.2c-0.66,0.02-1.43,0.04-1.94,0.37c-10.21,6.51-22.37,7.02-33.37,10.96
		c-9.52,3.4-19.32,4.74-29.09,6.36c-5.02,0.83-10.31,0.54-15.43,0.16c-3.01-0.22-5.93-0.46-8.92-0.03
		c-3.98,0.57-7.92,0.57-11.87-0.61c-2.68-0.79-5.54-1.31-8.22,0.03c-0.86,0.91-0.68,1.88-0.48,2.88c2.18,11.1,2.14,22.27-0.35,33.22
		c-2.56,11.27-8.81,19.94-20.35,23.79c-3.88,1.3-7.32,3.63-11.78,3.43c-11.44-0.51-21.67-4.03-29.31-12.61
		c-6.49-7.28-9.74-16.21-9.11-26.2c0.15-2.35-0.12-4.65-0.28-6.98c-0.17-2.49-1.23-4.4-3.14-5.99
		c-8.69-7.17-15.61-15.92-21.84-25.21c-1.67-2.5-3.34-3.83-6.49-3.08c-5.31,1.26-10.28-0.89-15.12-2.39
		c-8.71-2.7-17.32-5.84-25.73-9.38c-9.84-4.14-18.62-10.3-27.54-16.06c-13.21-8.53-27.37-15.08-41.61-21.55
		c-9.11-4.14-18.58-7.27-28.15-10.14c-6.73-2.02-8.73-1.17-11.98,5.09c-3.22,6.21-6.64,12.32-9.72,18.6
		c-2.43,4.96-2.16,5.23,2.24,8.61c4.86,3.72,9.86,7.32,13.27,13.02c-3.98,3.99-9.02,4.51-13.85,5.32c-5.16,0.86-5.96,1.32-6.24,6.42
		c-0.29,5.31-1.5,10.44-2.23,15.53c-1.8,0.58-2.49-1.36-4.16-1.1c-1.98,5.14-2.25,10.87-4.54,16.07
		c-4.92,11.17-13.68,16.08-25.49,16.67c-8.28,0.41-15-2.82-21.5-7.62c-9.75-7.19-14.84-17.45-19.06-28.12c-1.98-5-5.27-7.8-9.72-9.1
		c-8.26-2.4-15.51-6.76-23-10.65c-4.22-2.19-5.62-1.88-6.27,2.81c-1.25,8.98-5.06,16.81-10,24.26c-2.6,3.92-6.62,5.49-10.67,6.83
		c-2.33,0.77-4.49-0.95-6.25-2.51c-6.14-5.4-7.92-12.51-7.5-20.29C34.14,637.62,36.03,628.03,39.48,618.45z M429.14,444.14
		c0,1.85-0.17,3.67,0.03,5.45c1.66,14.92,0.75,29.86,0.05,44.77c-0.5,10.63-0.72,21.27-1.11,31.9c-0.12,3.29,0.68,6.34,2.59,8.95
		c4.87,6.65,8.13,13.98,10.7,21.82c3.97,12.13,5.94,24.53,6.92,37.17c0.69,8.99,0.5,17.96,0,26.94c-0.18,3.33,0.85,6.01,4.06,7.26
		c4.32,1.69,8.65,3.22,13.39,3.71c8.17,0.84,16.32,0.1,24.46,0.37c7.59,0.25,14.86-1.44,22.2-2.88c10.65-2.1,20.87-5.65,30.98-9.43
		c6.19-2.32,12.64-3.88,18.58-7.11c8.53-4.65,16.28-10.36,24.24-15.82c15.17-10.41,27.55-23.47,37.47-38.96
		c8.83-13.8,16.08-28.35,21.57-43.77c2.4-6.73,4.51-13.51,5.52-20.67c1.34-9.43-2.36-17.36-6.87-24.94
		c-2.27-3.81-5.89-6.65-11.02-6.63c-5.35,0.02-9.97-2.25-13.9-5.61c-5.61,3.04-9.95,1.94-13.15-3.4c-3.32-5.54-5.81-11.51-9.34-17
		c-2.67-4.14-3.73-9.41,1.12-13.59c0.73-0.63,1.05-1.74,1.77-2.4c4.61-4.2,5.1-9.4,4.02-15.14c-1.76-9.4,4.64-16.79,14.22-16.18
		c11.93,0.75,15.46-5.18,10.87-15.19c-0.13-0.28-0.43-0.49-0.77-0.88c-4-0.37-8.05-1.28-12.21-1.65c-9.8-0.85-19.64-0.45-29.44-1.19
		c-6.8-0.51-13.63-1.32-20.42-1.05c-11.3,0.44-22.62,0.56-33.92,1.35c-15.78,1.11-31.63,1.61-46.88,6.24
		c-8.1,2.46-16.14,5.01-24.43,6.73c-0.68,0.14-1.69,0.2-1.81,1.28c0.52,1.22,1.65,1.63,2.67,2.14c3.72,1.85,7.49,3.52,11.46,4.83
		c1.67,0.55,4.72,0.22,4.53,3.68c-0.56,0.3-1.1,0.75-1.71,0.87c-11.72,2.36-23.22,5.75-35.05,7.64c-5.15,0.82-5.36,1.06-4.41,5.91
		c1.83,9.31,2.92,18.72,3.8,28.16c0.5,5.32-0.74,6.6-6.08,6.21C432.53,443.95,431.26,443.31,429.14,444.14z"/>
</g>
</svg>
