<?xml version="1.0" encoding="utf-8"?>
<!-- Generator: Adobe Illustrator 24.0.2, SVG Export Plug-In . SVG Version: 6.00 Build 0)  -->
<svg version="1.1" id="Layer_1" xmlns="http://www.w3.org/2000/svg" xmlns:xlink="http://www.w3.org/1999/xlink" x="0px" y="0px"
	 width="775.04" height="861.02" viewBox="0 0 775.04 861.02" style="enable-background:new 0 0 775.04 861.02;" xml:space="preserve">
<g>
	<path d="M203.32,447.76c-0.26-4.43-1.69-8.58-1.66-13.27c5.41,0.24,9.92,2.27,14.2,5.13c6.1,4.08,7.63,3.27,8.29-4.01
		c0.56-6.13,1.4-12.23,1.88-18.36c0.46-5.89-4.23-10.28-10.07-8.73c-12.2,3.24-24.92,3.83-36.99,7.66
		c-9.05,2.86-18.39,4.38-27.82,5.24c-4.52,0.41-8.45-1.63-12.26-3.69c-5.11-2.77-9.48-6.69-14.7-9.41
		c-2.64-1.38-4.41-4.43-6.62-6.68c-0.45-0.45-1.1-0.71-1.98-1.26c-3.93,3.27-7.99,6.39-11.76,9.84
		c-6.38,5.85-12.2,12.38-18.94,17.77c-8.3,6.63-14.8,5.99-20.56-1.85c-0.69-0.94-1.45-1.86-1.93-2.91
		c-6.63-14.64-12.26-29.59-12.14-45.97c0.06-7.46,3.36-14.17,6.42-20.79c4.04-8.77,8.45-17.45,14.2-25.17
		c5.63-7.55,13.47-11.97,23.24-12.95c10.14-1.02,20.25-1.37,30.4-0.98c3.05,0.12,4.22-0.68,4.7-4.05c0.68-4.71,0.75-9.09-1.1-13.52
		c-2.03-4.88-2.22-10.1-1.83-15.25c0.28-3.73-1.15-6.23-4.25-7.7c-14.6-6.95-27.81-16.36-42.33-23.51
		c-8.45-4.16-16.14-9.94-23.95-15.33c-9.31-6.43-18.65-12.87-27.46-19.94c-9.63-7.72-19.88-14.82-27.77-24.54
		c-0.59-0.73-0.73-2.01-0.26-2.3c2.35-1.44,3.06-4.86,6.77-4.78c9.65,0.19,19.34-0.82,28.91,1.08c3.8,0.76,7.65,0.4,11.45,0.82
		c12.88,1.44,25.8,2.58,38.61,4.44c9.51,1.38,18.88,3.73,28.32,5.59c4.18,0.82,8.4,1.5,12.82,2.28c1.34-5.76,1.09-11.26,2.04-16.63
		c2.74-15.39,5.73-30.73,8.85-46.05c2.12-10.43,4.81-20.76,8.35-30.69c5.54-15.54,9.85-31.68,19.08-45.71
		c0.97-1.48,1.38-3.48,4.01-3.93c15.7,21.58,24.59,46.74,35,70.76c2.06,0.7,2.91-0.39,3.73-1.45c6.09-8,13.74-14.42,21.01-21.27
		c14.66-13.81,30.1-26.67,45.95-39.07c5.21-4.07,10.85-7.5,16.48-10.96c8.78-5.4,17.4-11.13,24.99-18.1
		c5.42-4.98,11.88-7.92,18.22-11.03c7.31-3.58,13.98-8.24,21.46-11.54c5.46-2.41,10.74-5.33,16.38-7.26
		c4.63-1.59,8.77-3.85,12.8-6.48c3.17-2.07,4.02-1.69,4.8,2.19c2.91,14.39,4.15,28.91,4.15,43.62c-0.01,19.49-0.89,38.93-2.51,58.31
		c-1.1,13.07-2.53,26.16-4.99,39.09c-1.17,6.14-1.74,12.39-2.68,19.22c8.02-2.39,15.28-4.58,22.55-6.73
		c9.51-2.8,18.9-6.22,28.59-8.18c9.87-1.99,19.69-4.41,29.71-5.71c1.7-0.22,3.15-1.06,4.76-1.43c4.21-0.98,6.69,1.28,6.37,5.52
		c-0.5,6.82-3.41,12.89-6.29,18.82c-8.08,16.61-16.92,32.82-26.75,48.48c-10.11,16.09-21.71,31.12-32.59,46.66
		c-6.58,9.4-13.79,18.37-19.3,28.52c-2.85,5.24-2.86,5.99,1.84,9.87c3.24,2.67,7.12,4.27,10.61,6.54
		c16.82,10.98,33.91,21.55,50.05,33.53c6.53,4.85,12.77,10.15,18.39,16.07c2.43,2.55,4.26,5.29,4.4,9.17c0.12,3.33-1.29,4.86-4.02,6
		c-4.88,2.03-10.07,2.22-15.2,2.43c-19.87,0.8-39.53-1.3-59.03-5.01c-16.18-3.08-32.38-6.07-48.52-9.35
		c-3.03-0.61-4.28,0.67-5.54,2.81c-8.27,14.04-20.08,24.79-32.85,34.46c-7.15,5.42-15.27,9.52-23.75,12.61
		c-6.88,2.5-13.55,5.6-20.68,7.37c-2.69,0.67-4.09,2.13-5.07,4.81c-1.39,3.8-1.85,7.7-2.87,11.98c6.3,2.35,11.18-3.93,17.04-2.2
		c1.62,2.84-0.56,4.99-1.37,7.4c-0.45,1.33-1.78,2.64-0.48,4.15c1.23,1.43,2.83,1.45,4.58,1.18c9.36-1.45,18.73-2.86,28.1-4.22
		c2.65-0.38,5.23-0.97,7.76-1.86c2.88-1.01,5.26-0.01,7.22,2.09c2.04,2.19,0.63,4.51-0.3,6.48c-2.14,4.57-5.83,8.09-9.01,11.92
		c-9.26,11.14-17.33,23.22-27.05,33.99c-0.65,0.72-1.34,1.51-1.47,3c2.96,3.49,7.25,5.77,11.08,8.54
		c10.55,7.62,19.82,16.82,30.48,24.28c16.15,11.29,30.43,24.85,45.28,37.71c6.94,6.02,13.34,12.55,19.01,19.8
		c0.88,1.13,1.33,2.79,3.6,2.96c10.63-32.06,27.12-61.51,45.19-89.81c18.07-28.31,37.22-56.19,61.59-79.68
		c3.46,1.97,2.83,4.57,2.48,7.01c-1.61,11.1-0.22,22.26-0.79,33.38c-0.01,0.2,0.42,0.42,1.02,1c14.19-16.8,30.43-31.72,44.93-48.58
		c2.4,1.45,1.41,3.83,1.41,5.77c0,2.31-0.49,4.62-0.74,6.94c-0.46,4.33,1.59,5.87,5.6,3.96c3.45-1.64,6.65-3.78,10.08-5.47
		c10.6-5.23,20.75-11.27,31.15-16.86c0.97-0.52,1.98-1.29,3.47-0.76c0.92,2.44-0.74,4.38-1.72,6.33
		c-4.76,9.51-8.73,19.38-13.12,29.05c-0.89,1.96-1.41,4.08-2.08,6.13c-0.43,1.32-0.62,2.69,0.58,3.69c1.3,1.09,2.8,0.87,4.23,0.17
		c5.08-2.49,10.17-4.94,15.51-6.84c14.89-5.3,29.06-12.36,43.95-17.71c6.69-2.4,13.32-5.18,19.98-7.77
		c2.66-1.03,5.43-2.77,8.77-0.95c-2.98,11.95-6.7,23.6-11.47,35.07c3.88,3.38,8.82,1.3,12.84,2.84c0.74,3.6-2.77,4.29-4.06,6.36
		c0.54,1.73,1.92,1.09,2.93,1.09c26.81-0.06,53.62-0.14,80.42-0.27c3.49-0.02,6.98-0.32,10.48-0.49c0.83-0.04,1.67-0.15,2.5-0.07
		c2.66,0.23,4.67,2.07,5.99,3.9c1.52,2.13-1.84,2.56-2.48,3.93c-2.87,6.14-8.03,10.58-11.53,16.25
		c-5.52,8.93-12.2,17.03-18.47,25.43c-9.85,13.19-19.63,26.43-28.39,40.4c-2.81,4.47-5.91,8.76-9.42,13.93
		c4.46,0.82,7.93,2.57,11.61,3.78c4.5,1.48,4.9,3.23,1.46,6.53c-3.75,3.6-8.25,6.09-12.6,8.85c-7.15,4.53-14.46,8.85-21.18,14.04
		c-2.48,1.92-2.16,3.63-0.57,5.91c4.32,6.18,9.55,11.59,14.9,16.79c7.98,7.77,16.2,15.31,23.58,23.66c2.52,2.85,5.6,5.16,7.75,8.4
		c1.53,2.3,1.17,3.67-1.21,4.67c-10.71,4.48-20.93,10.07-32.48,12.6c-5.44,1.19-10.83,3.17-16.15,5.05
		c-4.64,1.64-5.23,4.56-2.11,8.3c3.73,4.48,7.46,8.97,11.13,13.49c1.45,1.78,3.11,3.54,2.38,6.37c-4.73,0.86-9.56,0.24-14.68,0.87
		c0.93,4.56,3.12,8.45,4.73,12.53c1.29,3.25,2.83,6.41,3.91,9.73c0.86,2.66-0.36,3.97-3.05,3.29c-2.56-0.65-4.99-1.85-7.47-2.8
		c-11.02-4.21-22.39-7.32-33.57-11.03c-8.02-2.66-16.41-3.82-24.26-6.91c-1.08-0.42-2.1-1.03-3.71-0.14
		c0.54,4.19,2.45,7.98,4.18,11.82c1.03,2.27,2.39,4.42,3.18,6.77c0.94,2.8-0.82,4.86-3.12,3.65c-6.94-3.64-14.82-3.51-22.09-5.87
		c-6.71-2.18-13.75-3.34-21.47-5.14c2.2,7.77,6.34,14.09,8.01,20.95c-1.11,1.64-2.37,1.38-3.41,0.97
		c-4.76-1.89-9.94-2.71-14.27-5.72c-3.87-2.68-8.5-3.74-12.74-5.64c-14.55-6.54-29.56-12.08-43.88-19.06
		c-13.4-6.53-27.01-12.69-39.76-20.62c-14.99-9.31-29.89-18.71-43.89-29.42c-8.46-6.47-15.81-14.21-21.33-23.49
		c-0.76-1.28-1.63-2.5-3.38-3.31c-3.37,2.92-5.23,7.09-7.7,10.7c-12.7,18.65-28.33,34.33-46.78,47.25
		c-3.54,2.48-6.97,5.18-10.97,6.88c-2.07,0.88-2.68,2.23-2.63,4.26c0.28,12.62,0.47,25.21,3.85,37.55
		c1.95,7.13,1.56,14.43,0.37,21.71c-1.92,11.69-3.02,23.42-1.05,35.25c0.42,2.5,1.7,3.97,3.45,5.69
		c7.87,7.68,17.87,9.95,28.11,11.76c5.78,1.02,10.11,3.38,11.98,9.67c1.2,4.02,4.99,6.91,6.06,11.29c0.86,3.55,2.34,6.95,2.37,10.68
		c0.01,1.8,0.33,3.71-1.67,4.88c-2.19,1.28-4.17,0.75-6.07-0.55c-3.15-2.17-6.21-4.45-9.77-5.99c-2.07-0.89-3.89-1.59-6.14-0.47
		c-2.08,1.03-4.13,0.44-6.17-0.69c-2.56-1.42-5.17-2.82-8.97-3.83c2.15,4.4,4.56,7.81,4.8,11.98c0.07,1.32,0.39,2.66,0.28,3.96
		c-0.22,2.55-1.56,3.82-4.31,3.64c-4.09-0.26-7.85-1.5-11.38-3.44c-3.27-1.8-6.5-2.25-10.04-0.8c-5.46,2.24-10.67,1.47-15.87-1.21
		c-7.51-3.87-15.72-5.32-24.04-6.09c-2.49-0.23-5.01,0.3-7.39,1.06c-9.45,3.02-19.13,4.21-29.01,3.72
		c-6.17-0.31-12.03-2.67-18.17-3.06c-11.61-0.74-23.1-2.6-34.71-3.49c-8.81-0.68-17.56-1.3-26.38-0.48
		c-1.83,0.17-3.47,0.42-5.21,1.24c-5.09,2.38-10.46,2.71-16.03,1.58c-3.86-0.78-7.78-0.8-11.07,2.25c-1.57,1.46-3.41,2.7-5.3,3.73
		c-3.82,2.08-6.47,0.54-6.92-3.84c-0.16-1.52,0.18-2.93,0.7-4.38c2.08-5.83,5.77-10.49,10.42-14.4c1.7-1.43,3.25-2.58,3.17-5.2
		c-0.08-2.57,1.82-3.92,4.04-5.13c6.85-3.71,13.6-7.6,18.03-14.42c0.88-1.35,2.25-2.49,3.61-3.39c7.73-5.08,16.31-8.21,25.22-10.46
		c3.22-0.81,6.34,0.12,9.23,1.44c3.02,1.37,5.67,1.17,8.39-0.68c5.95-4.04,12.18-3.98,18.52-1c4.84,2.28,9.9,3.68,15.17,4.67
		c3.12,0.59,4.3-0.23,4.78-3.16c1.18-7.24,2.52-14.51,2.36-21.83c-0.17-8.13-0.71-16.32-1.95-24.35c-1.29-8.34-3.09-16.6-3.88-25.03
		c-0.11-1.14-0.38-2.31-0.8-3.38c-2.21-5.61-2.61-5.86-8.78-5.83c-3.88,0.01-7.41-1.19-11.09-2.37
		c-9.84-3.15-19.42-6.81-28.78-11.22c-12.31-5.8-23.5-13.14-33.31-22.5c-12.84-12.24-22.18-27.05-28.92-43.26
		c-6.13-14.75-8.52-30.15-5.9-46.39c2.21-13.73,4.57-27.24,11-39.7c6.09-11.79,12.44-23.25,22.11-32.82
		c6.82-6.75,13.58-13.62,20.36-20.45c1.77-1.79,3.88-3.13,5.88-4.63c5.17-3.86,5.33-7.58,1.19-12.53
		c-7.26-8.68-14.32-17.53-21.45-26.32c-0.52-0.64-1.01-1.34-1.35-2.09c-1.57-3.46-0.51-5.04,3.24-4.78
		c10.78,0.75,21.52,2.17,32.36,1.89C200.9,448.42,201.89,448.55,203.32,447.76z M296.93,713.72c-5.11-0.11-9.11,1.86-13.4,2.3
		c-2.26,0.23-3.1,2.24-3.04,4.5c0.26,9.91,0.46,19.79,2.87,29.53c1.34,5.42,3.37,10.95,2.15,16.68c-1.01,4.74-1.14,9.56-1.76,14.32
		c-0.52,4.01-0.45,8.09-0.66,12.66c3.83-1.26,6.94-0.63,10.17,0.34c5.89,1.77,6.22,1.39,7.18-4.81c0.15-0.98,0.47-1.94,0.62-2.92
		c1.85-12.34,3.75-24.7,2.38-37.21c-0.7-6.42-1.74-12.84-3.18-19.13C299.04,724.7,298.24,719.3,296.93,713.72z"/>
</g>
</svg>
