<?xml version="1.0" encoding="utf-8"?>
<!-- Generator: Adobe Illustrator 24.0.2, SVG Export Plug-In . SVG Version: 6.00 Build 0)  -->
<svg version="1.1" id="Layer_1" xmlns="http://www.w3.org/2000/svg" xmlns:xlink="http://www.w3.org/1999/xlink" x="0px" y="0px"
	 viewBox="0 0 950 877.25" style="enable-background:new 0 0 950 877.25;" xml:space="preserve">
<g>
	<path d="M950,213.18c0,0.67,0,1.33,0,2c-2.52,1.88-4.47,4.47-7.43,5.81c-17.92,8.13-35.82,16.3-53.73,24.45
		c-9.32,4.24-18.75,8.27-27.94,12.79c-8.31,4.09-16.35,8.72-24.52,13.08c-25.26,13.5-50.51,27-75.8,40.44
		c-3.29,1.75-4.83,4.07-4.74,7.94c0.22,8.99,0.02,18,0.1,26.99c0.02,2.59-0.44,4.88-2.02,7.02c-11.17,15.13-22.31,30.28-33.4,45.47
		c-2.22,3.04-4.82,4.4-8.8,4.42c-16.83,0.09-33.65,0.55-50.48,0.96c-4.28,0.11-8.61,0.01-13,1.14c1.26,7.67,0.01,15.15,0.15,22.62
		c0.22,12.46-1.87,24.53-5.46,36.37c-5.67,18.71-14.22,35.68-28.65,49.46c-20.22,19.3-43.62,25.49-70.73,19.12
		c-6.83-1.6-13.17-4.28-19.92-6.98c0.2,2.12,0.31,3.91,0.56,5.68c1.67,11.88,0.37,23.99,2.98,35.8
		c2.27,10.27,4.13,20.62,13.57,27.33c8.08,5.74,10.14,13.28,7.29,22.79c-1.51,5.06-1.27,10.43,0.4,15.73
		c1.74,5.53,2.82,11.24,2.81,17.17c-0.01,6.61-1.54,12.87-3.31,19.12c-2.09,7.38-2.77,14.49,0.61,21.89
		c3.86,8.46,6.43,17.43,8.08,26.64c1.64,9.17-1.33,16.35-8.85,21.73c-1.08,0.78-2.12,1.63-3.22,2.37c-2.19,1.47-3.39,3.22-3.55,6.11
		c-0.24,4.3-0.95,8.61-1.94,12.81c-0.95,4.05-1.12,8.55-5.14,12.18c-4.37-8.21-5.32-16.99-7.59-25.38c-3.54,0-6.84,0-10.13,0
		c-3.99,8.55-5.48,18.24-13.19,25.6c-4.29-9.55-1.4-19.23-3.26-28.8c-8.12,5.98-13.89,13.34-19.67,20.42
		c-2.14-1.06-1.92-2.52-2.04-3.78c-0.57-5.66-0.23-11.29,0.42-16.94c0.87-7.6,4.78-14.49,4.77-22.32c0-2.59,2.12-4.75,3.95-6.77
		c4.48-4.96,9.79-9.06,14.36-13.89c6.15-6.51,11.58-13.59,9.68-23.45c-1.15-6-4.16-11.25-8.09-15.81
		c-4.44-5.15-7.74-10.74-9.17-17.45c-0.97-4.55-0.36-9.25-1.39-13.78c-3.28-0.76-6.35-1.55-9.44-2.18
		c-6.69-1.36-12.68-3.79-17.16-9.36c-1.13-1.4-2.43-3.57-4.58-3.45c-2.88,0.16-5.09-1.34-7.53-2.26
		c-6.17-2.33-12.29-4.77-18.22-7.09c-1.13,1.04-0.61,1.87-0.64,2.65c-0.27,8.96-2.09,17.58-7.11,25.1
		c-2.19,3.27-4.04,6.44-4.46,10.37c-0.16,1.49-0.78,2.86-1.35,4.26c-2.49,6.05-6.33,11.24-10.41,16.11
		c3.28,5.96,7.91,11.02,8.4,18.15c-5.31,2.05-8.58-2.65-12.89-3.08c-0.61,3.56-0.78,6.93-0.18,10.19c1.59,8.63-0.43,16.7-4.26,24.19
		c-2.8,5.46-6.75,10.01-13.44,11.79c-6.17,1.64-12.46,2.09-18.66,3.2c-1.46,0.26-2.9,0.15-4.09,1.4
		c-6.23,6.53-13.83,11.27-21.53,15.96c0.62,2.75-0.59,5.47,0.48,8.55c2.43-3.54,3.76-7.01,6.75-9.05c1.39,0.51,1.55,1.45,1.73,2.48
		c3.27,18.35,6.53,36.71,9.93,55.03c0.46,2.51-0.43,4.03-2.08,5.66c-14.34,14.17-27.66,29.33-42.3,43.21
		c-1.03,0.98-1.78,2.54-4.41,1.79c0.15-6.03,2.03-12.04,2.54-18.52c-2.95-0.04-5.36,1.34-7.92,1.6c-2.87,0.29-4.23,1.79-5.42,4.31
		c-4.49,9.5-10.11,18.38-16.64,26.6c-2.36,2.97-4.1,6.94-9.29,8.36c-5.5-12.56-3.24-25.76-3.65-38.41
		c-2.28-1.21-3.79-0.83-5.02,1.04c-1.28,1.95-2.78,3.75-4.03,5.71c-4.54,7.19-9.66,13.95-15.74,19.88
		c-2.27,2.21-4.49,4.81-8.29,5.89c-4.61-11.24-2.07-22.49-0.64-34.67c-9.62,8.8-19.25,15.5-30.38,20.01
		c-1.13-2.11-0.84-3.8-0.85-5.44c-0.1-10.65,3.45-20.63,5.76-30.83c0.44-1.95,0.92-4.25,2.6-5.84c2.87-2.72,3.43-6.21,3.66-9.99
		c0.64-10.81,1.62-21.59,2.23-32.4c0.24-4.24,1.94-6.8,5.76-8.94c7.66-4.29,15.4-8.44,23.43-11.89c6.97-2.99,9.92-6.81,10.38-15
		c1.68-30.09,4.56-60.12,7.07-90.16c0.17-2.02-0.45-3.22-1.82-4.73c-5.58-6.2-13.1-9.62-19.68-14.37c-3.72-2.68-7.85-4.53-12.7-6.78
		c0.82,3.18,1.63,5.53,2,7.96c0.59,3.88,2.19,8-0.49,11.61c-5.44,7.34-10.81,14.76-16.75,21.69c-10.42,12.15-23.5,21.17-37.1,29.3
		c-5.46,3.26-10.67,6.8-15.69,10.61c-6.53,4.97-10.71,11.44-11.37,19.95c6.66,0.6,12.63-2.31,18.71-1.62
		c0.23,1.68-0.41,2.25-0.9,2.91c-12.21,16.21-24.51,32.36-36.52,48.71c-2.21,3.01-4.59,4.34-8.15,4.66
		c-20.74,1.86-41.46,3.87-62.2,5.81c-1.61,0.15-3.36,0.66-4.53-1c-0.26-1.66,2.19-2.69,0.89-4.66c-16.11-0.27-31.85,3.61-47.68,5.06
		c-1.26-3.56,2.5-5.03,2.08-8.47c-5.57,0.06-11.15-0.67-16.65-0.12c-1.37-3.26,3.09-3.91,2.55-6.57c-1.68,0-3.16,0-4.63,0
		c0-0.67,0-1.33,0-2c1.18-0.18,1.47-1.2,1.96-2.05c3.1-5.37,6.89-10.22,11.46-14.39c4.81-4.39,9.86-8.29,16.88-8.69
		c4.97-0.29,10.56-0.03,14.65-2.26c4.26-2.32,7.09-7.3,10.5-11.16c6.9-7.81,6.88-7.99,17.13-8.49c3.05-0.15,4.38-1.18,5.32-3.93
		c7.49-21.84,15.16-43.61,22.64-65.46c3.66-10.69,7.77-21.24,10.76-32.16c0.61-2.22,0.78-4.02-0.82-6.02
		c-8.36-10.48-14.79-22.19-19.76-34.53c-5.13-12.73-10.51-25.39-14.81-38.79c-5.26,5.09-7.2,12.6-13,17.34
		c-1.57-2.19-1.43-3.71-1.15-5.44c1.74-10.51,3.31-21.04,5-31.56c0.36-2.25,0.16-4.32-1.28-6.15c-2.42-3.08-3.55-6.72-4.64-10.4
		c-0.87-2.92-1.97-5.77-3.13-9.12c-5.4,4.01-10.23,7.81-15.28,11.29c-4.83,3.33-8.89,7.98-14.94,9.81
		c-0.41-1.95,0.43-2.89,0.91-3.89c8.88-18.41,17.81-36.8,26.71-55.21c3.13-6.48,1.86-12.05-3.7-16.59
		c-2.58-2.11-5.01-4.37-7.26-6.86c-4.98-5.52-10.15-10.88-13.62-16.89c-6.6-0.86-12.29,2.77-18.88,1.66
		c1.61-6.28,4.42-11.39,6.43-16.8c2.33-6.24,6.36-12.26,1.32-19.07c-0.66-0.89-0.27-2.59-0.27-3.91
		c0.2-74.82,0.41-149.65,0.61-224.47c0.01-4.69,0.74-9.32,1.73-13.85c5.03-22.92,10.2-45.81,15.41-68.68
		c2.62-11.5,4.64-23.15,8.08-34.46c0.44-1.45,0.14-3.96,2.42-3.7c2.72,0.31,1.42,2.86,1.61,4.49c0.12,0.98,0.01,2-0.04,3
		c-1.05,21.47-2.32,42.92-3.09,64.4c-0.77,21.47-2.85,42.9-2.42,64.39c1.06,52.64,1.95,105.28,2,157.94c0,0.66,0.04,1.35,1.05,1.69
		c1.45-3.98,3.65-7.56,5.96-11.13c5.46-8.4,12.11-15.86,18.13-23.82c1.41-1.87,1.96-3.4,0.3-5.26c-2.8-3.14-4.11-7.21-6.62-10.53
		c-1.43-1.89-1.57-3.47-0.28-5.8c6.94-12.49,13.56-25.17,20.39-37.73c1.55-2.86,2.37-5.78,2.47-9.02
		c0.19-6.16,0.55-12.32,0.91-18.47c0.22-3.79,1.49-6.92,4.74-9.4c4.75-3.63,9.32-7.54,13.62-11.69c1.99-1.92,3.52-1.9,5.7-0.84
		c4.77,2.31,9.62,4.45,14.41,6.72c4.61,2.19,5.1,2.24,8.63-1.5c5.72-6.06,11.39-12.16,16.89-18.42c2.02-2.31,3.72-2.67,6.41-1.14
		c7.21,4.11,14.49,8.09,21.88,11.86c2.83,1.45,4.6,3.4,6.05,6.2c1.21,2.32,1.04,5.62,4.08,7.05c2.34-2.17,2.17-5.04,2.6-7.53
		c0.41-2.33,1.31-3.96,3.2-5.31c6.89-4.93,13.76-9.9,20.55-14.98c2.25-1.69,3.98-1.66,6.11,0.23c9.51,8.41,20.07,15.6,29.08,24.9
		c1.26-1.91,2.49-3.87,3.81-5.75c12.07-17.14,24.2-34.24,36.22-51.41c2.12-3.02,4.05-6.07,8.02-6.94c-0.21-2.55-1.72-4.55,0.45-7.12
		c19.23-22.76,38.23-45.71,57.3-68.6c12.79-15.35,25.62-30.67,38.31-46.09c2.77-3.36,5.91-4.32,9.93-3.25
		c0.1,2.07-0.92,3.43-1.76,4.84c-5,8.44-9.8,16.99-14.8,25.44c-20.32,34.36-40.4,68.86-60.56,103.32c-1.32,2.25-2.49,4.64-5.86,4.51
		c1.01,3.48-0.38,5.86-1.98,8.29c-7.5,11.34-14.93,22.73-22.93,34.94c5.46-1.73,9.99-3.19,14.53-4.59
		c8.26-2.55,16.53-5.03,25.3-5.04c4.27-0.01,5.31,1,5.33,5.3c0,1.48-0.14,3.02-0.55,4.43c-5.44,18.91-14.57,36.03-25.34,52.36
		c-4.07,6.17-8.7,11.91-14,17.17c1.09,0.82,1.55,0.15,2.03-0.2c11.54-8.45,23.69-16.04,35.02-24.8c1.12-0.87,2.18-1.62,3.58-0.92
		c1.43,0.72,1.36,2.17,1.38,3.5c0.03,2.7-0.84,5.26-1.45,7.84c-0.79,3.32-1.75,6.6-1.77,10.25c2.85,0,5.17,0.11,7.47-0.04
		c1.65-0.11,3.31-0.44,4.9-0.88c20.59-5.68,41.83-7.91,62.76-11.75c8.98-1.65,18.04-3.07,27.15-4.08c9.3-1.03,18.61-1.29,27.93-1.58
		c1.65-0.05,3.44,0.08,4.19,2.01c0.7,1.82-0.04,3.29-1.41,4.43c-3.58,2.99-6.34,6.83-10.28,9.46c-8.16,5.45-15.72,11.8-24.38,16.54
		c-1.35,0.74-2.66,1.61-3.34,3.47c13.41-3.62,26.4-7.08,39.37-10.63c12.97-3.55,25.87-7.38,38.89-10.75
		c12.86-3.32,25.49-7.6,38.47-10.23c1.04,3.09-0.33,4.34-1.75,5.55c-4.32,3.65-8.65,7.29-12.97,10.94
		c-14.49,12.23-28.97,24.46-43.47,36.68c-12.08,10.19-24.19,20.34-36.26,30.54c-7.5,6.34-14.99,12.69-22.39,19.15
		c-1.09,0.95-3.16,1.62-2.23,4.24c6.53,0.06,13.18,0.26,19.77,1.11c3.13,0.4,5.38-0.7,7.69-2.56c11.89-9.62,23.83-19.19,35.8-28.7
		c27.2-21.6,54.43-43.15,81.64-64.73c3.54-2.8,7.17-5.22,11.85-5.88c3.46-0.49,6.94-0.88,10.38-1.46
		c19.85-3.33,39.66-6.91,59.55-10.06c4.83-0.76,7.28-3.12,8.72-7.47c2.56-7.73,5.61-15.31,7.9-23.11c1.19-4.04,3.66-6.59,6.76-8.91
		c7.83-5.89,15.59-11.87,23.55-17.57c2.88-2.06,5.16-5.07,8.5-6.19c1.84,1.05,1.26,2.53,1.33,3.78c0.53,8.98,0.98,17.97,1.58,26.94
		c0.19,2.86,0.12,5.6-0.67,8.39c-2.38,8.49-4.65,17.02-6.9,25.55c-0.53,2.02-1.74,4.02-0.31,6.79c4.37,0,9,0.02,13.62-0.01
		c1.24-0.01,2.1-0.86,3.02-1.59c14.44-11.48,29.04-22.77,43.29-34.48c8.95-7.36,18.11-13.98,29.85-16.01
		c1.14-0.2,2.31-0.48,3.34-0.99c3.09-1.55,6.38-1.57,9.73-1.67c13.83-0.41,27.64,0.43,41.46,0.46c1.3,0,2.3,0.28,2.64,1.88
		c-2.64,3.58-6.44,6.06-9.67,9.14c-3.25,3.11-6.57,6.15-9.74,9.34c-2.98,2.99-6.83,5.28-8.49,9.51c3.9-0.42,7.41-1.34,11.03-1.34
		c11.97,0.01,23.89-0.97,35.93-0.42c22.46,1.04,44.93,2.43,67.43,2.39C946.85,212.26,948.42,212.67,950,213.18z M531.82,505.6
		c5.63-0.25,8.86,3.05,12.97,4.42c8.62,2.87,17.38,2.58,26.19,2.01c14.55-0.95,25.83-7.99,34.62-19.24
		c7.56-9.67,12.78-20.56,16.14-32.38c5.06-17.82,6.6-35.8,2.89-54.49c-43.08,0.04-85.99,2.13-129.06,3.2
		c18.35,22.51,37.72,43.66,55.86,65.53C544.82,485.08,538.69,494.75,531.82,505.6z M114.65,684.56
		c14.57-10.09,20.29-25.28,28.55-38.75c-8.71-6.94-16.05-14.91-23.6-24.07C117.8,643.14,115.68,663.47,114.65,684.56z
		 M295.32,636.25c1.85-4.58,4.49-8.29,7.47-11.88c2.25-2.71,1.53-4.23-1.32-6.51c-3.96-3.18-8.77-2.16-13.6-3.78
		C290.49,621.89,292.9,629.07,295.32,636.25z M170.41,602.39c-3.23-2.74-6.28-5.33-9.31-7.9c1.03,5.33,1.3,10.89,0.03,17.59
		C164.42,608.58,167.63,606.59,170.41,602.39z M291.54,660.62c0.72,7.74,1.11,9.35,3.3,12.73
		C294.73,668.5,296.73,664.14,291.54,660.62z"/>
</g>
</svg>
