<?xml version="1.0" encoding="utf-8"?>
<!-- Generator: Adobe Illustrator 24.0.2, SVG Export Plug-In . SVG Version: 6.00 Build 0)  -->
<svg version="1.1" id="Layer_1" xmlns="http://www.w3.org/2000/svg" xmlns:xlink="http://www.w3.org/1999/xlink" x="0px" y="0px"
	 width="860.24" height="824.67" viewBox="0 0 860.24 824.67" style="enable-background:new 0 0 860.24 824.67;" xml:space="preserve">
<g>
	<path d="M364.23,796.09c-2.12-6.58-0.06-12.38,2.65-17.63c3.29-6.36,5.28-12.69,5.55-19.92c0.18-5.04,2.58-9.97,1-15.31
		c-1.16-1.27-2.96-1.64-4.47-1.62c-6.77,0.07-13.56-1.05-20.3,0.29c-2.02,0.4-4,0.52-5.88-0.35c-1.72-0.8-3.49-0.9-5.34-0.97
		c-6.62-0.27-9.43-5.09-6.16-10.81c4.14-7.26,9.35-13.76,14.92-19.98c3.05-3.4,2.27-6.4-2.04-7.07
		c-11.32-1.78-21.47-6.96-32.09-10.76c-13.46-4.82-25.02-13.06-36.87-20.77c-1.09-0.71-1.99-1.83-3.8-1.64
		c-3.17,6.73-6.37,13.61-9.66,20.45c-5.23,10.88-10.25,21.88-15.88,32.55c-2.99,5.67-6.3,11.25-10.33,16.36
		c-1.92,2.43-2.68,5.69-5.24,7.78c-4.41,3.61-9.26,6.3-14.76,7.93c-2.03,0.6-3.86,1.89-5.8,2.84c-2.68,1.33-4.64,1.22-6.83-1.52
		c-2.74-3.42-5.16-6.65-5.98-11.16c-0.78-4.32-2.44-5.19-6.4-3.53c-9.87,4.14-20.32,6.13-30.59,8.8
		c-7.88,2.05-15.83,3.74-24.05,3.47c-2.49-0.08-4.92-0.63-7.25-2.19c0.4-6.08,3.52-11.13,6.52-15.94
		c6.16-9.86,12.59-19.6,20.44-28.27c1.47-1.62,1.21-3.25,0.85-5.11c-0.71-3.66-3.18-6.6-4.02-10.2
		c-2.63-11.33-5.65-22.58-8.58-33.83c-4.57-17.54-6.71-35.53-11.09-53.09c-2.07-8.3-2-17.12-3.17-25.67
		c-1.94-14.19-2.33-28.47-2.57-42.75c-0.28-16.99,2.01-33.74,4.61-50.5c1.33-8.54,3.59-16.85,5.22-25.31
		c1.37-7.1,2.45-14.48,6.23-20.94c0.59-1.01,1.24-2.14,1.02-3.29c-1.2-6.3,1.18-12.64-0.33-18.96c-0.69-2.89-0.67-5.88-0.46-8.93
		c0.18-2.72-0.08-5.67-1.9-8.09c-0.39-0.52-0.93-1.19-0.88-1.74c0.46-5.32-3.11-8.18-6.37-11.57c-9.49-9.87-16.82-21.39-23.75-33.13
		c-5.38-9.12-10.57-18.35-16.02-27.85c-2.72,2.14-4.53,4.7-6.55,7.05c-7.47,8.71-14.94,17.41-23.59,25.01
		c-1.79,1.57-3.87,2.56-5.77,3.89c-1.64,1.15-3.56,1.08-5.21,0.07c-1.93-1.19-1.71-3.47-1.08-4.99c3.51-8.41,4.43-17.79,9.65-25.56
		c4.36-6.49,7.68-13.63,12.28-19.99c2.54-3.52,5.94-6.31,8.2-10.05c0.88-1.46,1.67-2.73,1.02-4.61c-3.1-8.98-4.3-18.43-6.84-27.55
		c-0.17-0.61-0.61-1.14-1.17-2.16c-4.01,3.21-7.91,6.21-11.67,9.37c-9.03,7.6-18.09,15.17-26.93,22.98c-2.8,2.47-6.13,3.97-9.04,6.2
		c-5.68,4.34-10.24,9.99-16.44,13.73c-1.71,1.03-3.32,2.2-5.18,2.96c-1.75,0.72-3.61,1.28-5.18-0.16c-1.45-1.34-0.77-3.14-0.31-4.7
		c1.26-4.21,3.91-7.74,6.36-11.24c4.86-6.95,9.58-14.01,14.62-20.81c7.02-9.46,14.36-18.73,22.46-27.35
		c7.74-8.24,14.59-17.31,23.12-24.82c1.27-1.12,1.13-2.63,1.14-4.16c0.05-7.62-0.93-15.28,1.14-22.84c0.61-2.21-0.26-4.51-1.05-6.78
		c-2.54-7.39-6.42-14.19-9.22-21.49c-2.57-6.71-2.35-13.39-1.88-20.11c0.29-4.24,0.93-8.7,2.27-12.69
		c3.05-9.1,5.17-18.58,9.98-27.06c1.58-2.78,3.47-5.35,5.52-7.68c5.9-6.71,9.5-14.14,9.78-23.24c0.29-9.65,3.56-18.73,7.79-27.16
		c3.71-7.4,10.76-11.75,18.88-13.6c6-1.37,12.03-1.77,18.3-0.62c6.51,1.19,13.29,0.27,19.91,1.22c12.66,1.82,25.62,0.64,38.14,3.57
		c13.82,3.24,27.94,4.32,41.93,6.32c11.66,1.66,23.48,2.24,35.23,3.3c1,0.09,2.1-0.11,2.98,0.25c7.49,3.03,11.56-0.9,15.25-6.81
		c6.95-11.15,14.38-22.06,19.48-34.19c1.71-4.06,3.15-8.29,5.1-12.29c0.74-1.52,1.87-2.71,2.89-4.03c3.42-4.44,7.79-3.65,12.13-2.26
		c10.85,3.49,15.74,11.58,15.2,22.42c-0.36,7.31,1.74,14.12,2.3,21.2c0.44,5.48,1.23,10.89,2.75,16.2c0.81,2.84,2.68,4.51,5.11,5.79
		c1.07,0.56,2.39,0.95,3.32,0.11c3.36-3.01,7.8-3.61,11.69-5.4c7.52-3.47,13.8-8.67,20.42-13.42c5.55-3.99,11.75-4.78,18.06-2.85
		c3.6,1.1,7.1,3.02,10.18,5.23c12.04,8.64,24.54,16.56,37.12,24.36c2.23,1.38,3.69,2.04,6.07,0.02c9.14-7.74,20.5-10.96,31.67-14.02
		c13.64-3.74,27.13-7.6,40.19-13.21c5.79-2.49,12.11-4.36,18.37-5.97c6.27-1.61,12.25-4.22,18.31-6.45
		c11.37-4.19,22.83-8.14,34.18-12.38c1.87-0.7,3.72-1.43,5.56-2.21c3.55-1.51,7.03-1.49,10.85,0.2c-0.88,3.44-0.5,6.59,0.35,9.8
		c0.68,2.56-1.3,4.31-2.98,5.95c-6,5.87-13.3,9.84-20.38,14.18c-4.34,2.66-9.25,4.37-13.89,8c2.76,1.07,4.48,0.12,6.21-0.56
		c12.28-4.88,25.07-7.65,38.2-8.71c4.98-0.4,9.5-2.66,14.67-2.59c2.96,0.04,5.48,0.53,8.1,1.52c17.75,6.69,33.46,17.08,49.13,27.44
		c11.37,7.52,21.61,16.62,32.79,24.46c13.49,9.46,26.88,19.05,40.69,28.04c6.27,4.08,12.66,8,18.83,12.24
		c13.31,9.17,28.33,14.5,43.28,20.18c8.66,3.3,17.7,5.54,26.11,9.57c3.51,1.68,5.57,3.79,4.79,7.54c-0.78,3.81-1.13,8-3.6,11.1
		c-2.53,3.17-6.55,3.64-10.46,3.84c-13.14,0.65-26.23,0.3-39.27-1.63c-3.56-0.53-6.53,1.1-7.18,4.59
		c-2.46,13.16-8.61,24.61-15.42,35.93c-4.94,8.22-8.74,17.11-13.28,25.58c-4.88,9.11-10.51,17.77-16.75,26.01
		c-5.63,7.43-10.93,15.08-16.12,22.82c-2.53,3.78-5.99,6.75-9.17,9.8c-6.92,6.64-13.48,13.82-22.17,18.47
		c-2.58,1.38-5.01,2.22-7.95,2.35c-7.61,0.32-15.22,1.5-22.81,1.35c-10.44-0.2-20.86-1.28-31.28-2.05
		c-7.11-0.53-14.2-1.26-21.31-1.72c-2.35-0.15-4.66-0.4-6.83-1.24c-2.8-1.07-4.5-0.32-5.08,2.28c9.48,10.5,19.95,19.75,29.3,30.04
		c4.7,5.17,9.84,5.21,15.21,4.18c9.46-1.8,18.67-4.83,27.8-7.91c14.47-4.89,28.84-10.1,43.31-15.01c11.58-3.93,21.91-1.8,30.79,6.85
		c4.89,4.77,6,13.16,1.99,19.29c-8.3,12.69-17.44,24.76-27.91,35.78c-9.31,9.79-17.36,20.63-24.5,32c-2.76,4.4-5.25,9.18-7.97,13.68
		c-4.04,6.71-3.17,13.22-0.7,19.87c0.7,1.89,1.15,3.78,1.43,5.38c7.8,6.14,16.6,5.55,25.36,4.5c6.22-0.75,11.76,1.8,17.56,3
		c2.46,0.51,2.9,3.12,3.24,5.63c1.54,11.25-4.73,18.32-12.95,24.07c-7.94,5.56-14.79,12.42-22.51,18.22
		c-1.69,1.27-1.85,2.76-1.93,4.74c-0.6,15.12-0.87,30.27-3.56,45.21c-3.1,17.18-7.41,34.02-14.1,50.22
		c-1.77,4.27-2.97,8.79-5.06,12.95c-2.3,4.59-6.05,8.22-8.41,12.81c-1.2,2.34-2.51,4.65-3.88,7.1c3.23,4.73,7.64,8.55,9.81,13.86
		c3.61,8.83,8.1,17.11,9.21,27.12c1.17,10.53-0.41,20.34-2.68,30.3c-1.13,4.95-5.01,8.09-8.54,11.24c-1.94,1.73-4.11,3.53-6.4,4.69
		c-8.14,4.11-15.16,10.4-24.29,12.58c-0.8,0.19-1.9,0.29-2.3,0.85c-5.45,7.54-14.39,8.49-22.16,10.97
		c-7.15,2.28-14.87,3.4-22.61,2.75c-5.88-0.49-8.16-2.96-7.8-8.96c0.09-1.47,0.22-2.94,0.35-4.62c-3.27-1.51-6.78-1.75-10.07-2.7
		c-2.88-0.84-5.97-1.3-8.49-2.86c-4.59-2.85-9.17-1.48-13.43-0.01c-11.77,4.06-23.51,8-36.05,8.94c-2.82,0.21-5.61,0.73-8.41,1.18
		c-4.59,0.75-8.11-1.79-8.72-6.45c-0.63-4.84,0.95-9.19,3.21-13.36c3.73-6.87,9.32-12.07,15.18-17.05c1.18-1.01,3.08-1.44,3.3-4.12
		c-5.14,0.61-10.12,1.2-15.09,1.79c-1.65,0.2-3.3,0.65-4.94,0.58c-8.64-0.37-17.16,2.01-25.82,1.1c-1.54-0.16-2.89,0.38-3.74,1.94
		c-4.64,8.52-8.36,17.48-9.73,27.04c-0.58,4.06-0.79,8.49-0.47,12.66c0.63,8.08-2.53,14.21-8.42,19.23
		c-6.59,5.61-13.14,11.27-18.91,17.75c-3.95,4.44-9.74,5.46-14.85,7.58c-2.72,1.13-5.14,3.19-8.76,2.75
		c-3.18-0.38-5.89-1.15-8.12-3.2c-4.88-4.5-9.65-9.12-13.82-14.33c-3.52-4.39-7.27-8.53-9-14.1c-1.01-3.27-3.34-2.47-5.59-1.11
		C379.23,795.8,372.28,797.74,364.23,796.09z"/>
</g>
</svg>
