<?xml version="1.0" encoding="utf-8"?>
<!-- Generator: Adobe Illustrator 24.0.2, SVG Export Plug-In . SVG Version: 6.00 Build 0)  -->
<svg version="1.1" id="Layer_1" xmlns="http://www.w3.org/2000/svg" xmlns:xlink="http://www.w3.org/1999/xlink" x="0px" y="0px"
	 viewBox="0 0 775.07 860.77" style="enable-background:new 0 0 775.07 860.77;" xml:space="preserve">
<g>
	<path d="M337.67,712.98c-3.21,3.03-4.49,6.54-6.52,9.54c-8.6,12.69-17.74,24.95-28.39,36.01c-2.9,3.01-6.42,5.35-10.3,6.97
		c-19.62,8.18-39.81,14.24-61.17,15.58c-2.15,0.13-3.78,1-5.45,2.16c-10.15,7.07-19.05,15.58-27.68,24.34
		c-2.68,2.72-5.52,4.43-9.01,4.66c-11.67,0.76-22.87-1-33.04-7.23c-2.94-1.8-4.77-4.37-6.18-7.57c-3.7-8.37-8.38-16.19-14.79-23.88
		c-5.24,7.02-9.52,14.23-17.22,18.67c-2.94-0.98-5.81-2.4-7.79-5.7c-1.69-2.82-4.03-5.33-6.4-7.65c-5.19-5.09-11.95-6.57-18.39-4.48
		c-10.07,3.26-19.65,7.99-29.54,11.85c-5.51,2.15-10.88,5.24-17.21,4.11c-3.99-0.72-4.57-1.67-2.98-5.31
		c3.94-9.05,9.22-17.32,14.84-25.39c1.23-1.77,2.71-3.38,3.46-5.76c-1.78-1.74-4.34-2.64-5.84-4.96c-1.34-2.07-1.39-3.66,0.28-5.31
		c4.84-4.77,9.57-9.67,14.64-14.18c2.78-2.48,5.2-4.91,6.56-8.52c4.93-13.05,11.23-25.51,16.51-38.41c1.89-4.6,3.7-9.24,5.65-13.82
		c0.45-1.04,0.67-2.26,0.66-3.4c-0.02-2.81-1.98-4.21-4.65-3.29c-2.36,0.81-4.78,1.62-6.91,2.87c-11.17,6.59-24.01,7.6-36.15,10.93
		c-1.75,0.48-3.55,0.67-5.31,1.27c-5.51,1.88-11.47-0.43-14.55-5.49c1.41-3.57,4.04-6.27,6.8-8.94
		c11.61-11.25,23.91-21.73,35.68-32.8c7.16-6.73,14.32-13.45,21.76-19.85c1.44-1.24,1.91-2.54,1.52-4.38
		c-1.57-7.47-1.52-15.3-4.22-22.48c-1.76-4.68-3.38-9.33-4.58-14.18c-1.29-5.2-1.6-10.52-2.43-15.77
		c-0.77-4.83,2.48-8.88,5.29-12.47c3.79-4.83,7.46-9.76,11.76-14.21c4.6-4.76,4.46-11.05,3.17-16.89c-1.99-9-6.82-16.94-10.86-25.13
		c-4.76-9.66-11.9-17.64-19.66-24.96c-5.81-5.48-12.7-9.62-19.44-13.92c-9.27-5.91-17.61-13.1-26.09-20.07
		c-3.72-3.06-5.58-7.24-5.99-12.19c-1.53-18.75-1.95-37.55-2.83-56.33c-0.36-7.62-0.85-15.25-1.63-22.87
		c-1.04-10.07-1.81-20.19-3.22-30.21c-1.72-12.17-2.34-24.47-4.75-36.58c-1.48-7.47-1.57-15.21-2.29-22.83
		c-0.06-0.61-0.16-1.22-0.25-1.85c-1.13,0.22-0.87,1.03-1.09,1.57c-1.59-4.19-2.12-8.81-0.4-12.71c1.2-2.71,3.01-5.27,3.48-8.25
		c1.81-11.51,5.46-22.55,8.18-33.83c3.27-13.55,6.09-27.17,8.28-40.96c1.55-9.78,3.21-19.6,5.27-29.33c1.2-5.68,1.8-11.5,2.32-17.3
		c1.28-14.26,4.4-28.22,6.58-42.32c1.52-9.87,3.92-19.5,5.74-29.26C43.13,18.5,47.6,8.03,58.74,1.7c1.61-0.91,2.85-2.49,4.85-1.24
		c1.74,1.09,3.04,2.49,3.04,4.81C66.62,11.1,67,16.93,66.72,22.74c-0.29,6.14-0.23,12.3-0.33,18.43
		c-0.13,8.09,1.01,16.21,1.71,24.31c1.19,13.75,2.96,27.42,5.43,41.01c0.87,4.77,2.72,9.26,3.36,14.05
		c0.15,1.12,0.77,1.77,1.91,1.97c1.41,0.25,2.1-0.61,2.8-1.61c3.12-4.4,5.3-9.27,6.85-14.38c3.67-12.11,8.54-23.8,12.48-35.81
		c0.81-2.46,6.04-3.58,9.13-1.84c3.05,1.71,5.09,4.13,4.93,8.03c-0.16,3.82-0.52,7.58-1.13,11.36c-2.54,15.67-2.05,31.46-1.98,47.25
		c0.05,10.48-0.24,20.92,1.54,31.33c1.8,10.53,4.59,20.8,8.74,30.55c5.65,13.29,11.1,26.68,18.2,39.34
		c4.75,8.48,10.92,15.87,16.48,23.72c5.99,8.45,13.32,15.67,20.7,22.87c2.36,2.31,4.63,4.76,6.87,7.21
		c4.68,5.12,5.46,11.11,3.73,17.67c-2.02,7.7-4.13,15.4-5.77,23.18c-2.91,13.78-6.94,27.41-7.93,41.5
		c-0.92,13.05-2.5,26.13-0.73,39.27c0.35,2.58,1.02,4.5,4.08,5.28c3.19-2.38,5.64-5.74,8.32-8.85c7.39-8.59,15.93-16.06,23.5-24.48
		c8.79-9.77,16.76-20.26,26.09-29.59c4.19-4.2,7.36-9.43,10.95-14.22c2.27-3.03,2.01-6.72,1.89-10.1
		c-0.38-10.36,0.87-20.61,1.69-30.88c1.1-13.78,1.32-27.58,1.73-41.38c0.39-13.3-0.46-26.61,0.64-39.89
		c0.27-3.3-0.05-6.66-0.08-9.99c-0.07-8.12,3.9-14.32,9.6-19.56c3.99-3.67,9.95-1.52,11.02,3.81c3.24,16.13,6.17,32.34,9.83,48.37
		c2.47,10.79,5.98,21.34,9.02,32.01c3.02-0.31,4.11-2.23,5.06-4.48c3.27-7.7,5.16-15.81,7.31-23.85
		c5.43-20.27,12.97-39.86,19.1-59.9c2.38-7.8,5.5-15.43,7.44-23.25c1.92-7.7,3.62-15.53,5.83-23.15
		c3.28-11.3,6.53-22.64,11.19-33.51c2.55-5.94,5.03-11.91,6.2-18.39c0.88-4.91,5.15-7.14,9.37-8.92c2.44-1.03,5.02-1.79,7.57-2.53
		c4.82-1.41,8.89,2.34,7.47,7.13c-1.95,6.58-2.33,13.38-3.33,20.09c-0.39,2.64-0.56,5.27-1.79,7.71c-2.31,4.61-1.78,9.78-2.45,14.66
		c-1.7,12.51-3.06,25.09-3.96,37.68c-1.13,15.73-2.48,31.49-0.84,47.29c0.69,6.61,2.35,13,3.3,19.51c2.64,0.43,3.78-1.14,4.91-2.46
		c10.64-12.38,22.2-23.89,33.53-35.61c5.55-5.74,10.94-11.63,16.49-17.37c6.96-7.2,11.63-6.1,15.17,3.27
		c0.94,2.5,1.06,4.83,0.39,7.3c-1.6,5.91-3.57,11.75-4.73,17.75c-1.69,8.78-2.8,17.66-4.2,26.74c3.01,0.96,5.08,0.03,7.07-2.15
		c19.09-20.91,38.24-41.76,57.39-62.62c14.06-15.31,28.35-30.42,42.13-45.98c6.94-7.83,12.66-16.74,19.5-24.66
		c8.79-10.18,17.73-20.28,30.21-26.4c4.64-2.28,9.31-2.29,14.08-1.95c3.54,0.25,5.5,3.57,4.79,7.39c-0.46,2.46-1.31,4.81-2.64,6.97
		c-8.76,14.15-17.43,28.33-27.86,41.4c-4.43,5.55-8.11,11.8-11.44,18.1c-2.64,5.01-5.97,9.57-8.47,14.68
		c-4.56,9.33-7.49,19.19-10.6,29.01c-0.51,1.6-0.71,3.26-0.42,4.94c0.85,4.82,3.81,6.11,8.64,5.46
		c17.45-2.35,31.71-12.49,47.45-18.97c6.05-2.49,12.85-0.15,15.32,5.91c0.42,1.03,0.18,2.39,1.78,3.26
		c6.68-3.46,13.55-7.08,20.48-10.58c5.92-2.99,11.5-6.7,18-8.49c4.45-1.23,8.6,2.42,8.06,7.01c-0.49,4.17-2.87,7.44-5.02,10.73
		c-12.99,19.92-26.07,39.75-37.58,60.61c-6.18,11.2-12.33,22.42-18.33,33.71c-2.53,4.76-4.08,10.04-6.01,14.9
		c1.71,1.67,3.47,1.63,5.08,1.6c8.67-0.2,17.29,0.86,25.93,1.22c3.64,0.15,7.37,0.47,10.87,1.4c6.93,1.83,10.97,7.36,5.13,14.04
		c-7.28,8.31-9.04,18.71-9.69,29.24c-0.42,6.95,0.23,13.9,1.18,20.87c1.11,8.1,5.89,13.33,11.84,17.7
		c9.38,6.9,19.17,13.07,30.01,17.72c7.81,3.35,14.06,8.6,16.37,18.07c3.97,16.25,10.99,31.23,22.32,43.94
		c2.62,2.94,4.44,6.64,6.35,10.14c5.95,10.93,11.82,21.86,16.55,33.45c4.2,10.29,9.19,20.28,13.05,30.74
		c0.23,0.62,0.71,1.22,0.75,1.84c0.72,11.94,7.63,20.99,14.33,30c3.13,4.21,3.27,9.76,7.41,13.4c-3.22,3.07-6.43,4.78-10.8,4.67
		c-10.3-0.25-20.68,0.68-30.54-3.43c-2.44-1.02-4.52,0.68-6.73,1.16c-9.6,2.09-19.29,3.43-29.12,3.52
		c-2.18,0.02-3.59,0.87-5.23,2.24c-5.08,4.26-10.42,8.21-15.69,12.25c-0.65,0.49-1.46,0.82-2.24,1.08
		c-5.58,1.92-7.58,0.95-8.85-4.71c-0.84-3.73-1.33-7.55-0.94-11.41c0.13-1.34,0.39-2.74-1.08-3.53c-8.38-4.5-14.54-12.14-23.2-16.3
		c-2.37-1.14-4.16-1.43-6.45-0.02c-5.39,3.32-11.36,5.35-17.36,7.26c-1.91,0.61-3.2,1.71-3.99,3.47
		c-3.72,8.37-8.13,16.38-13.17,23.99c-4.76,7.18-9.11,14.71-15.21,20.93c-1.61,1.65-2.59,3.48-1.86,5.85
		c1.77,5.78,1.63,11.84,2.53,17.74c0.12,0.81,0.42,1.9,0.04,2.44c-3.3,4.71-0.03,8.81,0.97,13.17c3.05,13.27,6.98,26.28,11.78,38.99
		c3.58,9.47,7.76,18.72,11.58,28.1c3.3,8.12,7.05,16.13,9.52,24.51c2.36,7.99,4.63,16.13,4,24.77c-0.32,4.41-0.36,9.5,2.53,12.96
		c2.98,3.56,5.53,7.46,8.73,10.86c3.75,3.98,7.29,8.13,9.69,13.21c1.34,2.84,1.23,4.06-1.91,5.09c-7.2,2.34-14.54,3.68-22.09,3.49
		c-3.3-0.08-5.7,1.04-7.88,3.38c-1.69,1.82-3.51,3.78-5.68,4.84c-6.27,3.07-7.87,8.93-9.51,14.8c-0.55,1.97-1.37,3.84-2.48,5.4
		c-2.78,3.92-5.77,7.72-8.97,11.31c-3.09,3.46-4.68,3.4-8.61,0.87c-6.26-4.03-11.18-9.43-15.64-15.27
		c-1.04-1.36-1.84-2.31-3.76-2.73c-7.75-1.69-15.62-3.18-22.64-7.16c-2.9-1.64-5.34-1.85-8.26,0.21
		c-5.47,3.87-12.24,5.09-18.11,8.29c-2.94,1.6-5.62-0.51-5.53-3.96c0.22-8.91,2.53-17.47,5.42-25.77
		c2.19-6.28,1.88-11.31-1.41-17.36c-4.64-8.5-9.19-17-15.16-24.58c-8.46-10.74-15.83-22.24-23.49-33.51
		c-5.52-8.12-10.73-16.4-17.4-23.68c-5.2-5.67-11.13-7.27-18.75-6c-12.88,2.15-25.85,1.83-38.66-1.22
		c-10.99-2.62-21.92-5.53-33.09-7.28c-5.8-0.91-7.13,0.28-7.47,6.06c-0.22,3.65-0.37,7.33-0.93,10.94
		c-0.79,5.09-3.91,6.34-8.17,3.52C341.42,717.88,339.71,715.62,337.67,712.98z"/>
</g>
</svg>
