<?xml version="1.0" encoding="utf-8"?>
<!-- Generator: Adobe Illustrator 24.0.2, SVG Export Plug-In . SVG Version: 6.00 Build 0)  -->
<svg version="1.1" id="Layer_1" xmlns="http://www.w3.org/2000/svg" xmlns:xlink="http://www.w3.org/1999/xlink" x="0px" y="0px"
	 width="779.08" height="860.82" viewBox="0 0 779.08 860.82" style="enable-background:new 0 0 779.08 860.82;" xml:space="preserve">
<g>
	<path d="M576.45,814.28c-1.43-1.73-3.44-1.58-5.12-2.19c-13.56-5-27.3-9.59-39.03-18.46c-0.63-0.48-1.48-0.84-2.26-0.91
		c-10.28-0.9-20.29-4.05-30.66-3.98c-6.67,0.05-13.32-1.51-19.9-0.85c-10.48,1.06-21-0.11-31.39,1.01
		c-6.7,0.72-13.18,3.24-19.84,4.59c-11.51,2.34-22.32,6.77-32.75,11.81c-13.92,6.73-28.81,11.02-42.58,18.14
		c-15.08,7.8-30.8,14.52-47.35,18.33c-10.24,2.36-20.48,6.24-31.35,5.03c-6.52-0.72-11.98,2.67-17.65,4.74
		c-4.56,1.67-9.26,2.55-13.84,3.97c-5.56,1.73-11.12,3.68-16.83,4.68c-10.8,1.89-11.7-0.34-10.2-10.3c0.45-3.01,2.79-5.25,3.17-9.08
		c-5.09,2.02-10.08,1.83-14.97,2.47c-7.23,0.94-10.73-3.91-8.11-10.74c2.44-6.35,4.14-13,7.97-18.77c2.45-3.69,6.44-13.6,6.57-18.28
		c0.28-10.64,6.5-16.63,15.47-20.33c14.76-6.1,27.46-15.5,40.31-24.66c2.96-2.11,5.91-4.47,7.31-8.03c0.9-2.3,2.02-4.81-0.01-7.06
		c-2.18-2.41-5.04-3.31-8.18-2.36c-2.38,0.72-4.71,1.67-6.92,2.81c-10.96,5.65-22.48,10.04-33.76,14.95
		c-11.88,5.17-23.69,10.49-35.36,16.12c-5.32,2.57-11.24,4.29-17.16,4.74c-5.08,0.39-10.18,1.22-15.39,0.55
		c-3.34-0.43-6.33-1.93-9.84-2.36c-3.1,3.86-2.96,8.64-3.63,13.13c-0.29,1.94,0.05,3.98,0.14,5.98c0.17,3.48-3.22,8.62-6.45,9.65
		c-1.94,0.62-3.59-0.25-5.2-1.15c-8.61-4.8-16.83-10.27-23.93-17.05c-3.88-3.7-7.7-3.89-12.15-2.66c-2.72,0.75-5.43,1.7-7.97,2.91
		c-3.53,1.69-7.06,2.87-11.04,2.29c-1.89-0.28-3.54,0.64-5.25,1.33c-7.85,3.2-15.82,6.08-23.36,10.04c-3.88,2.03-6.37,1.2-8.38-1.58
		c-1.32-1.84-0.53-3.88-0.57-5.81c-0.03-1.44,0.53-2.9,0.87-4.56c-3.18-1.34-5.91,0.35-8.64,1.05c-3.38,0.87-6.67,2.11-9.91,3.41
		c-3.49,1.4-6.44,0.75-9.41-1.8c3.58-9.81,5.57-20.26,13.38-27.99c1.09-1.08,1.1-2.3,0.96-3.68c-0.51-5.07,1.87-8.53,6.04-11.14
		c6.07-3.81,12-7.81,17.23-12.77c1.51-1.42,2.19-2.68,2.03-5.07c-0.34-5.07,1.61-9.74,4.34-14.05c7.3-11.52,8.47-23.53,2.86-36.12
		c-5.02-11.25-9.18-22.79-12.52-34.7c-2.96-10.57-5.76-21.15-8.31-31.82c-1.69-7.08-0.64-13.92,1.66-20.45
		c2.58-7.33,6.3-14.25,9.22-21.47c2.16-5.34,3.61-10.97,7.27-16.5c-19.18-2.05-38.05-2.84-56.1-9.32c0-1.53,0-2.68,0-3.83
		c0-1.16,0-2.32,0-3.77c1.74-0.63,3.68-1.24,3.85-3.66c0.11-1.54,1.39-2.24,2.6-2.78c5.76-2.56,11.04-6.22,17.36-7.51
		c1.11-0.23,2.26-0.73,3.17-1.41c8.15-6.03,18.05-8.24,27.07-12.37c5.58-2.56,11.3-4.76,16.78-7.62c4.53-2.37,9.56-3.81,14.42-5.52
		c2.14-0.75,3.66-1.94,4.99-3.84c3.14-4.49,7-8.41,10.18-12.93c2.34-3.32,2.39-6.66,1.36-9.91c-4.12-12.99-7.97-26.06-11.87-39.11
		c-3.05-10.18-5.75-20.45-9.34-30.48c-3.3-9.21-5.32-18.89-8.62-28.1c-3.71-10.36-7.03-20.78-9.11-31.58
		c-0.26-1.32-1.01-2.43-1.58-3.62c-1.31-2.73-0.32-5.15,1.5-7.34c1.74-2.09,3.69-2.37,6.22-1.35c5.02,2.04,10.36,3.4,13.97,7.95
		c0.83,1.04,2.15,1.58,3.63,1.1c1.58-1.75,0.44-3.35-0.22-5.05c-2.64-6.81-5.8-13.43-7.27-20.67c-0.37-1.84-0.9-3.56,0.42-5.39
		c7.24-2.1,14.68,2.36,22.41-0.49c0.8-4.2,0.83-8.86,1.27-13.42c1.59-16.37,2.96-32.76,4.02-49.17c0.71-10.95,0.88-21.94,1.06-32.91
		c0.13-8.02,1.54-15.9,2.18-23.85c1.05-12.93,2.18-25.86,2.45-38.84c0.05-2.39,0.48-4.59,1.7-6.64c2.27-0.72,4,0.12,5.29,1.83
		c4.58,6.09,9.79,11.74,11.57,19.58c0.99,4.38,4.14,7.82,6.2,11.93c3.12-1.13,4.27-3.52,5.54-5.48
		c12.3-19.04,28.35-34.79,44.09-50.84c12.01-12.24,23.42-25.04,34.14-38.42c8.85-11.04,18.26-21.58,27.66-32.13
		c4.26-4.77,7.53-10.17,10.84-15.54c5.16-8.36,10.92-16.28,16.92-24.03c2.11-2.72,5.33-3.26,8.65-2.3
		c7.1,2.04,12.55,8.88,12.48,16.34c-0.06,6.29-0.33,12.58-2.9,18.6c-1.77,4.15-0.41,8.99-1.95,13.24c-1.47,4.08-1.05,7.21,2.7,9.92
		c2.37,1.71,2.53,4.98,3.83,7.48c1.34,2.59,2.68,3.71,5.85,2.85c7.53-2.05,15.18-3.64,22.76-5.49c5.11-1.25,8.95,1.71,8.62,6.88
		c-0.48,7.52-4.36,13.89-7.35,20.51c-1.65,3.67-2.82,7.46-4.13,11.22c-0.57,1.63-0.34,3.28-0.12,4.94c1.29,9.7,5.3,18.52,9.12,27.34
		c6.99,16.16,15.6,31.56,22.89,47.58c3.49,7.66,5.6,15.91,8.65,23.79c1.31,3.39,2.51,6.81,3.7,9.88c5.84,2.09,8.73-1.94,10.93-5.3
		c12.79-19.49,29.93-35.28,44.47-53.25c8.84-10.94,19.13-20.4,28.84-30.44c4.71-4.87,10-9.29,15.17-13.71
		c3.77-3.22,5.99-7.54,9.47-10.88c3.3-3.17,8.98-4.41,13.33-2.66c4.67,1.88,5.92,5.7,6.37,10.34c0.57,5.82-2.17,10.95-2.93,16.36
		c1.41,1.33,2.65,0.65,3.84,0.1c2.58-1.18,5-2.59,7.26-4.35c16.97-13.2,34.59-25.46,53.12-36.39c15.62-9.22,31.66-17.68,47.58-26.38
		c7.01-3.83,13.95-7.75,21.36-10.74c4.43-1.79,8.53-0.93,11.21,2.2c3.17,3.69,4.15,8.77,2.01,12.5c-4.4,7.67-9.77,14.55-16.29,20.63
		c-2.98,2.77-6.13,5.56-8.11,9.35c-1.72,3.3-5.37,4.97-7.43,8.04c-0.46,0.68-0.83,1.42-1.18,2.02c0.32,1.28,1.29,1.72,2.13,2.2
		c7.54,4.3,11.28,11.49,14.66,18.99c2.32,5.14,4.91,10.12,5.99,15.8c0.63,3.32,4.39,4.23,7.12,4.6c7.5,1.01,14.57,3.21,21.59,5.87
		c7.6,2.88,9.81,12.09,3.37,17.07c-5.02,3.88-9.34,9.2-16.21,10.34c-1.36,0.23-2.07,1.61-3.1,2.42c-4.21,3.29-7.76,7.32-11.49,11.06
		c-5.11,5.14-7.07,12.31-9.17,19.15c-1.95,6.34-3.62,12.76-5.58,19.09c-2.61,8.45-3.65,17.13-3.85,25.9
		c-0.06,2.85-0.32,5.68-0.81,8.41c-1.24,6.8,1.04,13.25,1.99,19.72c1.49,10.13-3.04,17.05-9.92,23.08
		c-3.48,3.05-6.8,6.37-10.91,8.72c-2.31,1.32-2.82,4-3.84,6.26c-4.23,9.36-7.32,19.17-11.45,28.59c-2.91,6.63-5.35,13.66-7.12,20.63
		c-1.98,7.81-5.38,14.86-8.32,22.19c-0.37,0.91-0.52,1.91-0.81,3.03c3.09,1.7,4.88-0.74,6.48-2.2c4.45-4.05,9.36-7.49,14.06-11.2
		c9.54-7.53,19.07-15.05,28.73-22.42c10.34-7.89,19.51-17.13,29.41-25.53c8.75-7.43,18.2-14.02,26.59-21.86
		c7.67-7.16,15.49-14.17,23.99-20.3c6.89-4.97,13.17-10.69,19.91-15.84c3.7-2.83,7.78-3.47,11.9-4.56c0.31-0.08,0.66-0.04,0.99-0.02
		c6.49,0.35,12.91,11.37,9.78,17.05c-2.96,5.37-6.06,10.66-9.38,15.82c-6.94,10.79-13.27,21.91-19.26,33.25
		c-2.56,4.85-5.78,9.34-8.62,14.05c-7.02,11.64-15.23,22.52-22.31,34.1c-5,8.19-10.09,16.43-12.4,25.98
		c-1.25,5.17-4.48,9.64-5.75,14.95c2.37,2.08,4.85,1.91,7.45,0.75c10.38-4.64,21.68-6.15,32.43-9.54c7.6-2.39,15.05-5.26,22.74-7.36
		c9.31-2.54,18.4-5.77,27.59-8.65c6.02-1.88,12.26-3.06,18.41-4.53c2.21-0.53,3.76,0.79,5.43,1.91c3.33,2.22,3.8,6.58,7.16,9
		c1.88,1.35-0.13,6.92-2.04,9.17c-7.15,8.37-15.5,15.54-23.19,23.37c-6.16,6.28-12.5,12.41-18.43,18.91
		c-6.96,7.61-13.12,15.93-20.4,23.27c-5.28,5.33-10.02,11.03-13.72,17.67c-3.42,6.14-2.99,12.86-3.88,19.37
		c-0.34,2.47,2.14,3.97,4.13,5.23c5.7,3.63,12.07,5.41,18.55,7.1c4.5,1.18,9.18,1.27,13.62,2.84c3.26,1.15,5.9,2.8,6.28,6.26
		c0.39,3.51-1.52,6.53-4.3,8.49c-3.24,2.29-6.68,4.53-10.36,5.92c-7.33,2.77-12.66,7.91-17.47,13.67
		c-8.56,10.24-10.78,22.1-8.15,35.02c1.07,5.28,5.08,8.74,8.16,12.68c3.78,4.83,7.9,9.41,12.38,13.68
		c4.47,4.27,6.89,10.18,10.46,15.09c7,9.62,11.29,20.24,15.15,31.29c3.85,11.03,6.71,22.07,7.73,33.84
		c0.78,9.05,0.61,17.91-0.57,26.74c-0.73,5.51-2.92,10.85-4.55,16.23c-3.35,11.01-8.64,21.21-13.54,31.54
		c-3.64,7.67-9.92,13.23-16.6,18.32c-6.09,4.64-12.05,9.45-18.09,14.17c-2.93,2.29-6.46,3.42-9.76,4.99
		c-7.33,3.5-15.35,5.34-22.2,10.06c-3.58,2.47-8.26,2.35-12.47,3.25c-8.01,1.72-15.28,5.64-23.17,7.71
		c-3.44,0.9-6.78,1.51-10.33,0.66c-3.79-0.91-7.69-0.15-11.38,0.35c-4.32,0.58-8.62,0.58-12.93,0.89c-1.14,0.08-2.45,0.11-3.43-0.35
		c-4.13-1.96-8.01-4.18-12.96-4.02c-2.54,0.08-4.09-2.81-4.75-5.23c-1.9-6.96-2.32-13.99,0.01-20.98
		C576.37,815.48,576.37,814.81,576.45,814.28z"/>
</g>
</svg>
