<?xml version="1.0" encoding="utf-8"?>
<!-- Generator: Adobe Illustrator 24.0.2, SVG Export Plug-In . SVG Version: 6.00 Build 0)  -->
<svg version="1.1" id="Layer_1" xmlns="http://www.w3.org/2000/svg" xmlns:xlink="http://www.w3.org/1999/xlink" x="0px" y="0px"
	 width="821.48" height="860.51" viewBox="0 0 821.48 860.51" style="enable-background:new 0 0 821.48 860.51;" xml:space="preserve">
<g>
	<path d="M530.22,832.32c-2.53,0.57-3.66,2.36-5.16,3.6c-4.82,3.99-6.59,4.23-12.08,0.95c-3.29-1.97-6.48-4.12-10.24-5.11
		c-4.84-1.28-7.51-4.53-8.75-9.22c-0.33-1.27-0.91-2.47-1.32-3.57c-1.32-0.98-2.7-0.86-3.99-0.7c-10.2,1.29-17.29-4.64-24.4-10.49
		c-1.77-1.45-1.9-3.41-1.47-5.48c0.79-3.83-0.66-7.48-0.33-11.09c-2.61-0.72-4.24,0.36-5.63,1.43c-2.83,2.16-5.74,2-9,1.35
		c-7.84-1.58-14.71-5.44-21.31-9.51c-6.8-4.19-13.97-7.7-20.72-11.98c-4.88-3.09-8.21-6.67-9.87-12.44
		c-2.95-10.24-4.19-20.88-7.51-31.01c-0.64-1.96-0.38-4.01,0.82-5.76c8.38-12.22,13.1-26.08,18-39.88
		c1.93-5.42,5.6-8.95,11.15-11.26c5.95-2.47,11.54-5.91,16.86-9.67c1.74-1.23,2.2-2.54,1.84-4.65c-1.1-6.37-2.18-12.74-1.18-19.27
		c0.32-2.12,0.42-4.4-0.01-6.48c-1.4-6.76,1.13-11.86,5.77-16.58c6.44-6.56,11.24-14.44,16.29-22.08c2.04-3.08,4.36-5.89,6.83-8.52
		c2.26-2.4,5.12-4.11,8.91-3.31c7.07,1.5,14.27,0.36,21.4,0.56c2.16,0.06,4.3-0.1,6.17,0.86c1.66-1.34,1.07-2.96,0.95-4.34
		c-0.56-6.53,0.84-12.94,1.26-19.4c0.28-4.19,4.37-7.04,7.44-9.6c5.73-4.79,11.39-9.44,16.23-15.3c3.26-3.94,8.15-7.1,12.95-9.02
		c3.94-1.57,8.84-1.27,13.27-0.44c5.49,1.03,10.97,0.3,16.44,0.45c2.85,0.08,3.75-1.41,4.14-3.86c0.42-2.6,0.56-5.19,1.2-7.82
		c2.09-8.56,7.88-14.13,14.5-18.95c7.79-5.67,13.97-12.78,19.8-20.3c2.55-3.29,5.44-6.21,8.72-8.86c3.65-2.96,7.54-3.91,12.03-3.58
		c5.66,0.41,6.51-0.34,7.83-5.91c1.77-7.45,4.13-14.74,6.55-22c1.08-3.26,3.3-5.75,5.88-7.94c4.58-3.89,9.24-7.54,14.87-9.96
		c3.25-1.4,6.34-3.52,8.63-7.15c-8.24-2.94-16.12-5.89-24.1-8.55c-5.96-1.99-9.89-5.9-12.29-11.57c-0.78-1.84-1.71-3.61-2.48-5.45
		c-4.61-11.05-11.74-20.9-15.47-32.38c-0.1-0.31-0.23-0.66-0.45-0.89c-5.42-5.49-4.41-11.53-1.69-17.84
		c2.32-5.39,2.54-11.36,4.43-16.88c0.9-2.63-0.56-3.66-2.71-4.33c-7.17-2.22-14.44-4.26-21.95-4.42c-6.16-0.14-11.4-1.8-15.9-5.99
		c-7.66-7.13-15.16-14.44-23.14-21.19c-4.96-4.2-9.39-8.93-14.31-13.15c-2.68-2.3-4-4.99-4.18-8.64
		c-0.29-5.76-1.18-11.48-1.87-17.66c-4.63,1.1-8.69,2.38-12.66,4.03c-2.15,0.9-4.29,1.83-6.45,2.69c-4.23,1.69-7.94,1-11.66-1.81
		c-5.81-4.38-11.38-9.16-18.1-12.58c-5.23,6.8-12.7,9.93-20.22,12.46c-9.87,3.31-18.87,8.29-27.95,13.16
		c-2.25,1.21-3.98,1.43-6.47,0.63c-6.29-2.03-12.74-3.52-19.79-5.4c0.94,4.3,0.55,8.06,1.03,11.75c0.79,5.97-0.79,10.88-4.9,15.52
		c-7.64,8.61-16.39,16.07-24.23,24.47c-4.71,5.05-8.29,10.8-11.93,16.56c-4.53,7.16-8.49,14.68-13.95,21.26
		c-3.51,4.22-7.65,7.16-12.79,9.15c-11.14,4.31-22.82,6.83-34.08,10.73c-3.1,1.07-5.74-1.22-8.78-1.32
		c-3.95,4.58-3.15,10.44-3.75,15.7c-1.34,11.88-2.79,23.76-2.6,35.82c0.09,5.68,0.28,11.58-1.55,17.31
		c-1.58,4.94-4.51,8.4-8.67,11.04c-7.88,4.99-15.85,9.81-23.71,14.84c-1.66,1.06-3.54,0.76-5.35,1.51
		c-3.24,9.02-10.18,15.8-15.07,23.89c-3.46,5.73-8.45,10.31-12.19,15.71c-4.71,6.8-7.49,14.79-9.76,22.85
		c-1.79,6.35-2.97,12.92-7.11,18.45c-5.37,7.16-12.24,12.63-19.53,17.53c-11.87,7.97-24.19,15.28-35.6,23.94
		c-4.07,3.09-8.73,5.41-13.84,4.83c-5.55-0.63-11.18-0.5-16.62-1.52c-3.98-0.75-7.89-1.01-11.89-1.01
		c-6.48-0.01-12.97,0.05-19.45-0.06c-7.38-0.13-12.98-3.68-17.28-9.48c-1.09-1.47-1.93-3.13-3.07-4.55
		c-3.03-3.75-5.21-7.93-11.37-8.39c-4.32-0.32-8.36-3.29-11.52-7.23c-7.72-9.65-17.54-17.28-26.26-25.98
		c-2.94-2.93-6.17-5.59-9.11-8.49c-11.68-11.52-17.6-25.11-15.67-42.02c1.09-9.49,3.91-18.54,5.5-27.88
		c1.2-7.03,0.59-13.55-1.49-20.13c-1.55-4.9-3.17-9.79-5.04-14.58c-0.3-0.77,0.63-3.4-2.28-2.55c-0.5,0.15-1.29-2.74-0.06-3.82
		c4.93-4.32,6.42-10.63,9.54-15.99c1-1.72,1.64-3.64,2.58-5.39c2.36-4.4,2.53-7.65-1.49-10.54c-7.54-5.43-6.96-11.81-5.12-19.79
		c3.36-14.58,7.53-28.97,10.46-43.66c1.19-5.95,4.37-11.1,7.73-16.1c9.66-14.38,20.63-27.8,30.94-41.71
		c2.48-3.34,5.59-6.04,9.39-8.02c5.31-2.77,10.63-5.64,15.6-8.89c5.56-3.63,10.07-8.37,8.81-16.36c-0.69-4.35,0.79-8.89,1-13.39
		c0.92-19.44,2.32-38.85,3.14-58.29c0.55-12.97,1-25.94,2.08-38.88c1.13-13.6,1.46-27.25,2.7-40.85
		c1.15-12.61,0.51-25.31-0.03-37.95c-0.36-8.56,4.12-15.23,12.34-17.56c2.09-0.6,4.04-1.51,6-2.43c6.44-3.02,11.01-0.23,11.95,6.81
		c2.56,19.33,2.68,38.89,5.59,58.17c2.59,17.14,4.71,34.34,6.13,51.6c1.11,13.44,2.4,26.86,3.8,40.27c0.12,1.12,0.01,2.36,1.05,3.27
		c1.83,0.17,2.07-1.35,2.43-2.54c2.76-9.24,6.84-18.01,9.79-27.18c2.1-6.53,6.7-10.89,11.93-14.95c8.72-6.77,19.06-10.98,27.7-17.77
		c7.26-5.71,15.48-9.76,23.27-14.54c9.25-5.69,19.35-7.32,30.2-5.75c9.72,1.41,19.59,1.25,29.41,1.23c2.76-0.01,4.36-1.1,5.35-3.52
		c4.18-10.32,9.68-20.05,13.64-30.5c3.05-8.05,7.71-14.94,16.2-18.6c4.74-2.05,9.52-3.92,14.33-5.76
		c8.39-3.21,16.24-7.6,23.91-12.31c5.1-3.14,10.26-6.18,15.41-9.24c1.43-0.85,3.18-1.35,4.31-2.49c7.51-7.54,16.87-8.35,26.5-6.83
		c10.46,1.66,20.94,0.83,31.41,1.24c8.65,0.34,17.32,0.93,25.95,0.61c10.98-0.41,17.89,5.38,23.03,13.96
		c4.79,8.01,9.7,15.92,14.89,23.67c1.57,2.35,2.81,3.29,5.98,2.66c11.18-2.25,21.89-5.73,31.9-11.16c3.01-1.63,5.42-0.72,8.02,0.46
		c3.24,1.47,5.44,4.43,8.51,6.1c13.32,7.25,25.32,16.61,38.59,23.93c5.67,3.13,9.03,8.26,10.83,14.39c0.56,1.9,0.68,3.93,1.88,5.08
		c13.35,0.32,24.05-6.71,35.58-11.07c6.52-2.46,12.87-5.34,18.87-9.02c3.1-1.9,6.98-2.36,10.65-2.13c8.47,0.52,16.93,1.3,25.39,2.05
		c2.7,0.24,5.16,1.33,7.41,2.81c2.92,1.92,5.85,3.84,8.67,5.91c16.4,12.09,33.74,22.72,52.27,31.05
		c9.89,4.45,14.17,12.12,16.91,21.41c4.89,16.59,8.81,33.44,12.83,50.27c2.27,9.51,3.93,19.24,7.08,28.5
		c3.46,10.18,0.06,18.65-5.39,26.76c-5.1,7.6-9.59,15.62-15.39,22.75c-0.5,0.61-0.73,1.45-1.14,2.29
		c5.98,7.65,13.12,13.93,21.41,18.55c6.88,3.83,10.25,9.82,12.51,16.65c4.01,12.15,7.89,24.35,10.63,36.82
		c0.84,0.3,0.84-0.34,1.24-1.16c1.83,3.17,2.55,7.31,0.58,9.03c-5.43,4.74-5.86,11.61-8.94,17.28
		c-7.45,13.74-13.9,27.98-20.45,42.15c-2.87,6.2-4.8,12.76-10.58,17.05c10.69,11.94,18.61,25.59,29.47,36.9
		c0.35,0.36,0.59,0.83,0.97,1.14c7.7,6.21,6.63,14.37,4.57,22.42c-3.45,13.52-7.9,26.76-11.56,40.21
		c-1.61,5.9-3.95,10.74-8.61,14.63c-7.95,6.64-14.25,14.93-21.7,22.09c-2.96,2.85-4.33,7.03-6.9,10.34c-2.05,2.65-4.5,4.3-7.6,5.31
		c-3.83,1.24-7.74,2.34-11.72,2.36c-8.09,0.03-15.81,2.21-23.69,3.45c-2.97,0.47-4.41,2.08-5.17,4.64
		c-1.94,6.52-4.89,12.73-5.91,19.54c-1.14,7.61-7.09,10.25-13.22,12.73c-7.97,3.22-16.36,5.19-24.11,9.23
		c-8.07,4.21-16.79,7.16-26.3,5.92c-2.25-0.29-4.62-0.29-6.58,0.16c-1.26,1.24-1.29,2.58-0.94,3.57c3.34,9.31-2.42,16.31-6.26,23.57
		c-3.59,6.78-8.85,12.47-14.62,17.6c-2.75,2.44-5.77,3.79-9.53,3.54c-9.62-0.64-19.3,0.46-28.91-0.79c-2.4-0.31-3.79,0.95-4.32,3.18
		c-0.31,1.29-0.78,2.67-0.59,3.92c0.87,5.95-2.74,9.69-6.42,13.35c-7.9,7.85-15.98,15.51-23.78,23.46
		c-3.18,3.24-6.75,5.92-10.26,8.72c-2.96,2.35-6.33,1.61-9.61,1.61c-4.83,0.01-5.41,0.76-3.66,5.03c1.5,3.67-0.06,7.14-1.05,10.49
		c-3.45,11.64-8.69,22.57-14.01,33.77c2.2,3.61,7.78,4.25,9.04,8.62c1.18,4.1,1.39,8.48,2.11,13.27
		c7.67,1.25,16.49,0.93,19.07,10.97c3.86-0.58,6.45-2.8,9.28-4.34c2.15-1.17,4.2-1.73,6.6-1.77c12.16-0.2,24.32,0.2,36.47,0.14
		c10.3-0.05,16.84,6.16,23.46,12.52c1.54,1.48,2.71,3.35,4.14,5.16c3.81-2.91,5.08-6.2,6.53-9.24c1.61-3.37,3.26-5.53,7.66-5.67
		c4.04-0.13,8.07-1.9,12.01-3.24c3.09-1.05,5.81-0.81,8.59,0.84c3.72,2.21,7.53,4.26,11.29,6.39c1.24,0.7,2.2,1.75,2.1,3.18
		c-0.51,7.95,1.25,16-1.12,23.86c-0.19,0.64-0.23,1.5-0.67,1.85c-5.95,4.75-9.38,12.18-16.64,15.52c-1.91,0.88-3.84,1.18-5.79,0.36
		c-4.35-1.82-9.15-1.81-13.56-3.37c-1.88-0.66-3.82-0.66-4.84,1.29c-3.15,6.02-9.25,6.86-14.8,8.61
		c-10.77,3.4-21.92,4.37-33.09,3.77c-5.96-0.32-11.43-3.45-17.09-5.35c-6.77-2.27-13.29-5.24-19.97-7.79
		c-1.57-0.6-2.2-1.56-2.87-3.05C534.42,840.09,532.23,836.2,530.22,832.32z"/>
</g>
</svg>
