<?xml version="1.0" encoding="utf-8"?>
<!-- Generator: Adobe Illustrator 24.0.2, SVG Export Plug-In . SVG Version: 6.00 Build 0)  -->
<svg version="1.1" id="Layer_1" xmlns="http://www.w3.org/2000/svg" xmlns:xlink="http://www.w3.org/1999/xlink" x="0px" y="0px"
	 viewBox="0 0 722.63 759.01" style="enable-background:new 0 0 722.63 759.01;" xml:space="preserve">
<g>
	<path d="M220.25,690.9c-3.47-0.87-6.43-1.37-9.21-2.36c-4.17-1.48-5.09-4.58-2.56-8.21c1.53-2.19,3.45-4.04,5.76-5.48
		c6.12-3.8,12.69-6.55,19.82-8.52c3.27-13,5.74-26.27,12.41-38.41c-5.41-6.72-11.16-13.38-16.36-20.45
		c-10.07-13.69-17.67-28.53-19.44-45.8c-0.07-0.65-0.17-1.3-0.94-1.83c-7.98,5.32-16.56,9.51-26.15,11.4
		c-3.31,0.65-6.62,0.78-9.95,0.67c-4.03-0.12-5.94-2.66-5.26-6.53c1.89-10.76,6.64-20.13,13.63-28.43
		c3.41-4.05,6.2-8.66,11.62-11.96c-6.33-1.52-11.72-2.84-17.13-4.11c-9.21-2.16-17.46-6.37-25.12-11.77
		c-3.5-2.47-3.63-7.49-0.31-11.46c4.67-5.57,10.54-9.75,16.99-12.92c11.93-5.87,24.06-11.3,37.38-13.36
		c1.12-0.17,2.2-0.65,4.46-1.33c-8.94-1.45-16.12-4.31-22.57-8.95c-7.92-5.71-14.8-12.36-19.48-21.03
		c-1.91-3.54-1.14-6.09,2.07-8.51c7.07-5.32,15.36-6.93,23.84-7.9c2.4-0.27,4.86-0.04,8-0.04c-2.21-4.63-5.71-6.73-8.13-10.06
		c-6.76,4.01-13.95,5.52-21.58,5.21c-6.31-0.26-7.67-2.23-5.42-8.15c0.59-1.55,1.09-3.16,1.85-4.62c0.67-1.3,1.65-2.44,2.85-4.17
		c-5.02,0.15-9.55,0.8-14.09,0.21c-20.63-2.68-36.1-12.94-45.46-31.58c-2.51-5-3.43-10.87-1.95-16.54c0.86-3.3-0.17-5.25-2.58-7.31
		c-7.34-6.28-14.89-12.34-21.66-19.25c-13.45-13.74-24.75-29.16-35.49-45.07c-13.63-20.19-25.58-41.34-35.95-63.33
		c-5.8-12.29-10.72-25.05-13.64-38.43c-0.14-0.65-0.27-1.31-0.35-1.97c-0.92-7.99,1.76-10.4,9.74-8.82
		c10.06,1.99,19.28,6.23,28.44,10.6c21.42,10.22,41.2,23.2,60.33,37.11c17.51,12.73,34.35,26.36,49.43,42.02
		c8.23,8.56,15.13,18.17,22.09,27.71c2.8,3.83,5.81,5.87,10.79,5.64c8.82-0.41,16.2,3.94,22.65,9.2
		c7.82,6.37,13.68,14.49,16.69,24.35c1.12,3.68,1.32,7.49,1.58,11.29c0.13,1.97-0.34,3.98,0.52,6.21c2.9-1.11,4.34-4.84,7.95-4.45
		c0.29,0.03,0.8-0.58,0.98-1c4.26-9.46,12.78-14.56,20.69-20.33c-0.24-1.69-1.73-1.17-2.71-1.47c-9.76-3.01-18.69-7.79-27.52-12.78
		c-8.92-5.04-6.86-11.34-0.97-16.22c7.75-6.42,17.07-8.71,26.96-9.06c1.8-0.06,3.62,0.3,5.78-0.38c-1.48-1.98-3.69-2.27-5.49-3.21
		c-9.43-4.91-19.37-8.97-27.39-16.24c-8.25-7.48-7.74-12.44,1.87-18.17c18.93-11.29,39.33-15.78,61.29-13.39
		c3.91,0.42,7.81,1.1,11.88,1.4c-0.23-0.53-0.27-0.96-0.49-1.1c-15.29-9.69-22.23-25.07-28.16-41.16c-1.46-3.96-2.6-7.93-1.19-12.16
		c0.65-1.97-0.75-3.06-1.81-4.33c-4.98-6.04-10-12.01-12.61-19.63c-4.98-14.56-4.49-29.18-0.46-43.75c2.39-8.65,6.2-16.84,9.4-25.23
		c2.31-6.06,3.99-12.25,4.64-18.81c1.02-10.24-2.58-18.15-10.35-24.57c-5.26-4.34-10.34-8.89-15.51-13.35
		c-3.82-3.29-6.97-7.13-9.55-11.46c-3.87-6.49-1.95-10.67,5.54-12.25c7.01-1.48,13.91-0.55,20.8,0.65
		c16.69,2.92,32.57,8.2,47.26,16.74c11.01,6.39,16.85,15.42,17.03,28.84c0.17,12.63,0.05,25.33,1.13,37.93
		c1.29,15.18,8.37,27.12,21.79,34.87c2.99,1.73,5.23,4.68,8.99,5.47c8.14-8.91,18.24-15.28,28.69-21.65
		c0.22-7.11-0.64-14.39,0.33-21.66c1.05-7.89,6.01-10.37,13.02-6.39c2.89,1.64,5.24,4.12,8.69,5.39
		c5.56-4.62,10.29-10.24,15.96-14.86c19.35-15.76,40.74-27.7,65.1-33.56c8.96-2.16,18.06-3.89,27.62-2.2
		c12.75,2.26,23.86,11.95,27.78,24.3c4.35,13.72,4.6,27.8,5.37,41.9c0.11,1.94-0.5,3.99,0.83,6.28c4.13-3.38,8.17-6.67,12.19-9.99
		c3.98-3.28,7.96-6.58,12.42-9.18c7.69-4.49,10.82-2.85,12.11,5.81c0.99,6.63,0.85,13.29,0.98,19.95c0.12,5.66,0,11.33-0.08,17
		c-0.08,6.07-0.11,6.07,6.11,8.72c6.06-4.92,8.31-11.6,8.73-19.18c0.65-11.82,0.08-23.65,0.34-35.47
		c0.23-10.54,4.6-19.23,12.95-25.89c3.84-3.06,8.48-3.78,12.93-5.02c13.53-3.77,27.33-5.9,41.37-6.36c2.72-0.09,6.08-0.71,7.52,2.54
		c1.49,3.37,0.32,6.64-2.01,9.26c-4.65,5.22-9.38,10.38-14.32,15.33c-2.71,2.72-5.26,5.57-7.92,8.32c-4.06,4.19-4.47,8.91-2.82,14.3
		c4.86,15.92,9.56,31.89,13.47,48.07c2.32,9.6,2.95,19.55,2.13,29.3c-1.35,16.03-8.72,28.75-23.61,36.27
		c-0.89,0.45-1.79,0.88-2.69,1.29c-2.44,1.11-2.02,2.53-0.88,3.93c10.11-5.89,20.08-11.5,30.8-15.46c8.2-3.03,12.5,0.35,12.69,8.99
		c0.33,14.88-5.14,27.58-14.5,38.86c-1.34,1.62-3.34,2.81-3.77,5.45c8.87-1.08,17.65-1.76,26.4-0.39
		c13.09,2.06,24.97,6.76,34.64,16.21c2.29,2.23,2.38,3.58,0.65,6.92c-6.42,12.41-17.91,17.38-29.71,22.03
		c-9.34,3.68-19.09,5.78-29.22,5.65c-0.25,0-0.51,0.35-0.99,0.7c0.5,2.26,2.85,2.97,4.16,4.54c9.36,11.27,15.53,23.97,17.7,38.51
		c0.83,5.56-0.51,7.39-5.9,7.87c-9.84,0.88-19.13-1.56-28.21-5c-1.82-0.69-3.46-1.89-6.3-1.97c2.1,3.27,3.85,6.11,5.7,8.88
		c9.59,14.35,13.68,30.17,12.64,47.33c-0.3,4.93-3.41,6.89-8.49,5.01c-5.61-2.08-10.93-4.89-15.62-8.71
		c-2.7-2.2-5.34-4.46-8.45-6.33c1.05,4.29,4.92,6.61,7.14,10.04c2.46,3.79,4.6,7.73,6.64,11.72c1.95,3.82,3.4,7.9,5.07,11.85
		c1.96-0.55,2.38-2.11,3.18-3.33c1.74-2.67,3.88-4.98,6.43-6.89c5.87-4.39,9.03-3.52,10.45,3.79c1.96,10.11,1.61,20.25-2.74,29.86
		c-0.81,1.78-1.25,3.11-0.22,5.02c4.19,7.8,7.09,16.15,9.43,24.65c0.9,3.26,2.72,4.98,5.61,6.37c7.42,3.58,13.48,8.59,15.98,16.88
		c0.24,0.79,0.74,1.68,0.57,2.4c-1.28,5.37,2.18,9.08,4.19,13.45c8.89,19.37-2.22,36.59-18.68,42.91c-2.21,0.85-3.98,1.79-5.71,3.54
		c-4.98,5.05-11.61,7.08-18.37,8.15c-5.07,0.81-10.28,1.12-15.36-0.52c-5.08-1.64-10.23-1.92-15.6-1.82
		c-19.93,0.38-32.01-15.27-31.76-32.24c0.12-8.42,3.5-15.8,5.39-24.22c-2.36,0-4.6,0.08-6.84-0.02c-8.03-0.35-9.76-3.28-6.15-10.54
		c2.7-5.44,6.56-9.96,11.18-13.11c0.33-11.79-9.6-16.06-15.72-24.15c-1.52,11.36-3.2,21.64-7.21,31.32
		c-2.16,5.22-4.43,10.45-8.57,14.52c-3.53,3.48-5.29,3.33-8.76-0.08c-4.51-4.44-6.97-10.07-9.59-15.64c-0.47-1-0.38-2.34-2.19-3.16
		c0.82,9.41-1.08,18.25-3.5,26.97c-2.39,8.63-4.8,17.3-9.75,24.88c19.13,15.2,31.24,34.18,34.06,58.26
		c2.49,0.75,3.26-1.24,4.65-1.93c3.58-1.76,7.49-4.34,11.17-1.5c3.72,2.87,2.36,7.22,1.11,11.1c-0.97,3.01-2.02,5.98-3.85,8.62
		c-2.34,3.37-3.17,7.09-2.8,11.25c0.96,10.92-1.02,21.53-4.01,31.98c-0.42,1.48-0.19,2.52,0.73,3.66c3.03,3.75,6.35,7.28,8.91,11.41
		c1.27,2.04,3.64,2.37,5.77,2.43c13.28,0.36,26.57,1.57,39.83,0.11c10.95-1.21,19.99,2.72,27.63,10.08
		c5.86,5.65,6.14,16.88,3.35,22.48c-4.42,8.87-11.15,14.41-21.65,13.93c-1.42-0.07-2.59,0.45-3.72,1.19
		c-6.97,4.54-14.7,5.07-22.61,3.9c-2.32-0.34-4.15-0.1-6.12,1.09c-5.15,3.12-10.79,3.86-16.79,3.62
		c-21.36-0.85-42.42-3.91-63.24-8.47c-16.26-3.55-28.13-13.13-35.27-28.27c-1.36-2.89-1.57-6.28-4.67-8.33
		c-1.15-0.76-1.13-2.7-1.05-4.23c0.12-2.15,0.26-4.3,0.43-6.97c-5.88-0.35-11.74,0.31-17.39-1.18c-2.09-0.55-4.28-0.83-6.26-1.63
		c-6.93-2.76-8.15-8.87-2.62-13.97c3.03-2.8,6.42-5.27,10.23-7.09c4.52-2.15,9.3-3.52,13.95-4.64c2.97-10.39,7.16-19.95,12.38-29.3
		c-3.23-4.47-6.51-9.02-9.83-13.54c-1.6-2.18-2.76-4.59-3.51-7.13c-1.09-3.69,0.08-5.2,3.97-5.51c1.66-0.13,3.34,0.03,4.99-0.13
		c1.64-0.16,3.22,0.96,5.19,0.05c-2.34-5.21-5.69-9.25-11.39-11.51c-11.67,8.13-25.25,10.19-39.11,11.32
		c-6.8,0.56-13.57,1.64-20.43,1.23c-1.71-0.1-2.83,0.51-3.61,2.04c-4.11,8.06-9.97,14.89-16.06,21.41
		c-7.6,8.14-15.44,16.11-25.87,20.88c-8.97,4.1-18.19,7.36-27.93,8.94c-7.56,1.23-15.16,2.31-22.84,0.74
		c-0.6-0.12-1.29,0.15-2.42,0.3c-0.35,7.77,0.52,15.53-0.55,23.45c7.96,2.64,13.72,7.8,18.77,13.91c1.5,1.82,2.71,3.74,3.59,5.94
		c2.01,5.02,0.81,7.38-4.55,8.66c-4.59,1.1-9.27,0.4-14.33,0.56c1.9,4.96,3.99,9.54,4.21,14.81c0.27,6.64-1.89,12.14-6.13,16.88
		c-5.5,6.14-11.76,11.32-19.98,13.5c-1.31,0.35-2.39,1.09-3.44,1.95c-11.18,9.25-23.79,11.12-37.51,7.23
		c-0.96-0.27-2.18-0.35-2.8-0.99c-4.33-4.44-8.46-2.4-13.4-0.74c-8.08,2.72-16.53,1.65-24.48-1.37c-2.63-1-5.03-1.17-7.72-1.01
		c-11.78,0.7-21.94-2.92-30.03-11.75c-10.73-11.72-9.32-29.53,3.16-39.39c7.1-5.61,14.96-9.31,24.26-9.07
		C217.23,692.83,218.59,692.39,220.25,690.9z"/>
</g>
</svg>
