<?xml version="1.0" encoding="utf-8"?>
<!-- Generator: Adobe Illustrator 24.0.2, SVG Export Plug-In . SVG Version: 6.00 Build 0)  -->
<svg version="1.1" id="Layer_1" xmlns="http://www.w3.org/2000/svg" xmlns:xlink="http://www.w3.org/1999/xlink" x="0px" y="0px"
	 width="617.2" height="840.25" viewBox="0 0 617.2 840.25" style="enable-background:new 0 0 617.2 840.25;" xml:space="preserve">
<g>
	<path d="M290.01,840.25c-4.74-18.18-6.3-36.03-8.44-54.08c-1.98,1.05-2.72,2.5-3.24,4.01c-5.83,16.89-15.49,31.44-27.25,44.71
		c-1.1,1.24-2.31,2.33-3.03,3.91c-0.47,1.03-1.62,1.16-2.57,0.49c-1.02-0.72-0.9-1.66-0.2-2.59c0.4-0.53,0.75-1.1,1.16-1.63
		c13.65-17.63,21.76-37.83,27.97-59.04c2.32-7.94,4.9-15.81,6.91-23.84c0.39-1.56,1.38-3.04,0.78-5.63
		c-29.89,14.91-60.51,27.31-93.05,34.52c-32.4,7.18-65.06,11.89-98.3,12.14c-0.48-3.26,1.76-3.5,3.32-4
		c11.57-3.74,22.82-8.31,33.88-13.34c30.56-13.87,59.99-29.79,86.61-50.38c14.33-11.08,28.27-22.7,40.9-35.01
		c-2.99-3.33-5.66-6.71-8.74-9.67c-18.32-17.57-35.27-36.31-49.88-57.12c-14.32-20.4-26.23-41.97-34.6-65.56
		c-5.4-15.21-10.91-30.36-15.4-45.87c-6.96-24.04-11.66-48.53-13.98-73.42c-1.95-20.93-1.81-41.94-0.07-62.88
		c1.97-23.75,9.09-46.28,16.89-68.62c8.92-25.56,21.63-49.25,35.31-72.49c11.68-19.85,24.29-39.08,39.75-56.18
		c16.56-18.31,34.19-35.57,55.61-48.34c2.48-1.48,3.49-3.22,3.32-6.01c-0.16-2.65-0.18-5.34,0.01-7.99
		c0.19-2.55,0.42-5.09,0.36-7.71c2.97,5.38,3.01,11.45,4.64,17.5c21.2-9.74,42.21-9.22,63.43-0.87c2.31-4.46,1.08-10.06,4.47-15.22
		c2.15,5.06,1.16,9.37,0.5,13.38c-0.54,3.28,0.38,4.86,2.93,6.49c20.16,12.83,37.08,29.24,52.19,47.62
		c23.17,28.2,42.24,58.92,56.7,92.46c2.17,5.04,4.26,10.12,6.22,15.25c0.6,1.58,1.17,3.09,2.35,4.33c1.33,1.4,1.6,3,1.7,4.97
		c0.28,5.54,3.12,10.43,4.67,15.67c4.5,15.16,8.73,30.4,11.78,45.9c3.24,16.48,5.53,33.14,7.26,49.88
		c2.19,21.26,2.81,42.51,0.81,63.79c-1.04,11.11-3.25,22.03-5.88,32.88c-3.76,15.54-8.31,30.83-13.97,45.78
		c-7.87,20.8-18.24,40.29-30.95,58.52c-16.37,23.49-36.03,44.07-56.67,63.77c-6.75,6.44-13.66,12.71-21.05,18.42
		c-0.53,0.41-0.96,0.92-1.01,2.4c1.81,2.02,3.94,4.53,6.2,6.91c18.53,19.5,38.29,37.57,60.99,52.2
		c20.44,13.17,40.76,26.57,63.3,36.02c7.19,3.01,14.39,6.23,22.33,6.92c1.21,0.1,2.32,0.36,2.94,1.93
		c-1.81,2.58-4.79,2.28-7.43,2.46c-13.35,0.91-26.64-0.1-39.91-1.46c-30.34-3.1-59.44-11.25-88-21.59
		c-14.09-5.1-28.1-10.4-41.65-16.86c-0.88-0.42-1.79-0.94-3.62-0.33c0.69,24.15,3.91,48.4,4.8,73.35c-3.67-1.17-3.59-3.53-3.82-5.53
		c-1.32-11.25-4.75-22.14-5.64-33.47c-0.05-0.6-0.22-1.27-1.44-1.84c-4.77,16.8-11.38,32.63-23.58,45.62
		c-1.94-1.76-0.76-2.91-0.18-3.94c12.64-22.62,19.93-46.7,19.92-72.78c0-0.83-0.06-1.7,0.13-2.49c0.82-3.33-0.51-5.1-3.57-6.6
		c-10.14-4.98-20-10.52-29.38-16.8c-2.63,1.4-5.05,2.84-7.61,4c-2.13,0.97-2.74,2.89-3.3,4.74c-1.86,6.22-4.04,12.33-6.39,18.37
		c-0.89,2.27-0.96,4.52-0.84,6.86c1.15,21.78,2.34,43.57,3.36,65.36C291.92,834.86,293.3,837.54,290.01,840.25z"/>
	<path d="M598.71,720.44c4.3,3.6,3.92,8.52,4.2,13.36c0.8,13.79-1.65,26.84-8.32,39.02c-1.45,2.65-3.09,5.15-5.59,6.94
		c-2.74,1.97-4.94,1.63-6.76-1.19c-1.17-1.81-2.1-3.81-2.32-6.02c-1.5-15.36-0.27-30.22,7.75-43.94c2.26-3.87,5.47-6.61,9.05-9.06
		c-1.2-9.81,0.76-19.34,1.87-28.87c2.53-21.68,4.19-43.43,5.85-65.18c2.4-31.42,2.68-62.92,2.56-94.4
		c-0.12-31.31-1.34-62.58-4.11-93.82c-1.91-21.58-4.3-43.09-7.62-64.47c-3.39-21.84-7.27-43.62-12.58-65.14
		c-4.34-17.6-8.84-35.14-13.9-52.53c-4.63-15.94-9.74-31.75-15.59-47.3c-5.95-15.81-11.86-31.62-18.55-47.14
		c-13.4-31.12-28.02-61.63-45.64-90.61c-5.79-9.52-11.81-18.9-18.78-27.66c-9.24-11.62-20.66-20.2-34.26-26
		c-9.79-4.18-17.93-0.04-25.54,5.46c-9.83,7.11-17.37,16.45-24.4,26.24c-10.15,14.13-18.13,29.37-23.78,45.83
		c-1.08,3.14-0.99,6.89-4.39,9.34c-1.13-4.3,0.56-7.79,1.74-11.31c5.9-17.66,12.3-35.11,21.97-51.14
		c6.38-10.58,13.34-20.7,22.35-29.29c5.03-4.8,10.96-8.11,17.26-10.72c3.66-1.51,7.52-0.91,11.16,0.71
		c17.71,7.88,30.98,21.04,42.72,35.99C490.37,57,502.65,78.34,514.4,99.99c9.59,17.68,17.81,36.02,26.03,54.36
		c9.59,21.39,17.94,43.26,25.61,65.37c6.03,17.38,11.46,34.99,16.27,52.8c4.73,17.52,9.18,35.1,13.05,52.8
		c5.01,22.93,8.5,46.14,11.63,69.41c4.05,30.07,5.5,60.33,7.89,90.53c0.98,12.37,1.55,24.7,1.85,37.05
		c0.51,20.98,1.05,42.06-0.88,62.93c-2.77,29.91-3.05,60.03-7.55,89.76c-1.99,13.13-3.44,26.4-6.84,39.31
		C600.94,716.3,599.92,717.95,598.71,720.44z"/>
	<path d="M283.12,98.49c-3.51-5.73-4.11-12.18-6.75-17.9c-7-15.19-13.48-30.65-23.71-44.11c-3.95-5.2-8.37-9.95-13.46-14.03
		c-5.29-4.25-10.9-5.25-17.72-3.2c-13.28,4-23.42,12.6-33.11,21.68c-20.95,19.65-40.05,40.97-55.67,65.21
		c-13.44,20.86-24.39,43.02-34.73,65.53c-8.65,18.84-15.94,38.23-22.96,57.68c-6.09,16.85-10.75,34.22-16.13,51.33
		c-6.14,19.52-11.27,39.32-16.08,59.19c-5.32,21.98-10.31,44.06-14.57,66.29c-5.08,26.48-10.17,52.98-13.35,79.74
		c-2.75,23.14-4.41,46.4-5.51,69.72c-1.81,38.4,0.88,76.57,4.76,114.7c1.55,15.23,3.48,30.42,5.22,45.64
		c0.18,1.61,0.43,3.24-0.24,4.78c-2.45,0.13-2.71-1.52-3.38-3.1c-4.28-10.11-5.48-20.91-6.9-31.6c-3.3-24.94-4.46-50.09-7-75.09
		c-1.48-14.54-1.37-28.99-1.8-43.49c-0.26-8.94,1.43-17.73,2.14-26.59c1.9-23.56,3.27-47.18,6.6-70.59
		c2.06-14.48,4.57-28.91,7.14-43.32c5.47-30.65,11.91-61.09,19.38-91.29c8.74-35.32,18.93-70.25,30.64-104.73
		c13.1-38.59,28.79-76.05,48.92-111.48c15.76-27.73,34.96-53.08,56.79-76.39c9-9.61,18.02-19.19,28.77-26.94
		c5.04-3.63,10.45-6.65,16.3-8.59c8.33-2.76,15.99-1.03,23.07,4.26c12.69,9.49,21.84,21.85,29.22,35.61
		c8.1,15.1,11.67,31.65,14.74,48.32C283.89,96.53,284.13,97.38,283.12,98.49z"/>
	<path d="M13.17,739.26c-0.21-4.88,0.2-9.65,2.44-14.09c1.68-3.33,3.48-3.89,6.85-2.2c2,1,3.44,2.62,4.65,4.42
		c9,13.42,13.05,28.27,12.48,44.36c-0.12,3.28-0.52,6.65-2.4,9.58c-2.81,4.4-5.65,4.81-9.17,0.91c-4.62-5.13-7.53-11.37-10.14-17.65
		C14.52,756.52,13.35,747.96,13.17,739.26z"/>
</g>
</svg>
