<?xml version="1.0" encoding="utf-8"?>
<!-- Generator: Adobe Illustrator 24.0.2, SVG Export Plug-In . SVG Version: 6.00 Build 0)  -->
<svg version="1.1" id="Layer_1" xmlns="http://www.w3.org/2000/svg" xmlns:xlink="http://www.w3.org/1999/xlink" x="0px" y="0px"
	 viewBox="0 0 744.93 860.98" style="enable-background:new 0 0 744.93 860.98;" xml:space="preserve">
<g>
	<path d="M352.76,823.89c-3.37,3.56-3.06,8.67-5.58,13.15c-7.51-3.64-11.04-10.79-16.41-17.73c-1.29,6.89-0.45,13.14-1.84,20.01
		c-7.09-4.46-10.62-11.14-14.11-17.64c-3.51-6.55-5.9-13.63-7.18-21.07c-0.46-0.07-0.92-0.15-1.37-0.22
		c-2.09,4.42-3.75,9.11-6.38,13.18c-2.7,4.18-2.39,10.19-7.91,13.1c-7.55-8.08-9.04-18.64-12.61-29.57
		c-3.9,6.16-3.34,12.94-6.09,18.32c-2.27-0.51-2.75-1.93-3.2-3.4c-3.89-12.82-6.18-25.9-6.21-39.31
		c-0.02-10.99,0.04-21.99,0.46-32.97c0.48-12.64,2.06-25.11,4.92-37.52c4.38-18.99,11.87-36.99,16.45-56.15
		c-1.04-1.23-2.49,1.13-4.07,0.01c0.02-4.34,2.14-8.38,3.12-12.39c-0.81-1.22-1.79-1.45-2.77-1.65
		c-17.77-3.71-34.16-10.92-49.76-19.98c-2.7-1.57-4.35-1.94-6.87,0.47c-3.96,3.79-9.22,5.43-14.56,5.97
		c-10.39,1.03-20.65,0.43-30.37-3.97c-1.05-0.48-2.06-1.15-3.29-1.05c-0.31,0.02-0.6,0.24-1.15,0.47c-0.76,4.34,1.49,9.15-1.38,13.6
		c-2.99-0.28-2.95-3.87-5.52-4.98c-2.52,1.68-5.87,1.96-8.13,4.82c-1.77,2.24-4.53,1.38-7.01,0.78c-8.79-2.14-17.57-2.75-26.5-0.44
		c-4.02,1.04-6.42,4.03-9.44,6.27c-1.04,0.77-0.47,2.11-0.13,3.26c3.12,10.6,6.55,21.12,14.99,28.87
		c5.43,4.99,6.18,10.67,3.95,17.24c-2.03,5.97-4.14,11.9-7.99,17.02c-1.58,2.1-3.58,3.87-6.2,3.67c-7.02-0.56-13.93,0.76-20.9,0.8
		c-4.43,0.02-8.6-0.91-12.68-2.42c-2.05-0.76-4.27-1.62-4.4-4.21c-0.12-2.43,2.04-3.24,3.78-4.16c1.62-0.85,3.38-1.44,4.97-2.33
		c2.57-1.45,4.99-2.71,4.47-6.71c-0.33-2.52,1.69-4.83,3.72-6.78c3.55-3.39,3.43-5.21,0.23-8.9c-2.12-2.44-4.49-4.41-7.7-5.25
		c-1.6-0.42-3.1-1.3-4.71-1.66c-10.88-2.42-18.5-9.2-24.92-17.91c-6.36-8.62-14.25-15.82-22.54-22.52
		c-5.69-4.6-7.94-4.94-13.95,0.01c-3.01,2.48-6.04,4.82-10.14,5.98c-3.65,1.03-4.82,5.19-5.41,8.94c-0.68,4.33-1.83,5.01-5.83,3.29
		c-5.36-2.29-5.69-7.37-6.33-12.07c-0.28-2.07,0.44-4.28,0.77-6.42c0.31-1.99,0.24-3.85-0.31-5.88c-1.43-5.27-0.98-10.15,3.7-14.01
		c4.23-3.49,8.48-6.98,11.81-11.44c2.28-3.06,5.45-1.54,8.55-1.18c0.94-2.33-0.43-4.53-0.4-6.78c0.04-2.96,0.8-5,3.8-6.25
		c7.41-3.1,14.18-7.3,20.46-12.34c3.87-3.11,9.89-2.75,13.8,0.37c5.77,4.61,11.96,8.54,19.28,10.15c5.17,1.14,7.71,4.54,8.32,9.37
		c0.81,6.41,3.51,12.11,5.87,17.98c1.29,3.2,3.59,4.73,6.97,4.54c10.52-0.6,20.88-2.13,30.87-5.59c3.12-1.08,6.53-7.16,5.86-10.17
		c-2.25-10.1-1.53-20.22,0.61-30.11c2.18-10.09,6.2-19.62,11.89-28.36c3.99-6.12,9.74-10.46,15.18-15.05
		c3.01-2.54,4.87-5.05,4.81-9.14c-0.24-16.04,2.19-31.8,4.92-47.56c1.39-8.03,2.87-16.03,4.76-24.32c-3.83-2.04-7.72-4.19-9.99-8.18
		c-6.7,1.62-13.01,8.49-19.84,1.26c-4.36-4.62-8.86-9.5-3.69-17.01c-3.95,0.81-7.3,1.48-10.64,2.19c-12.93,2.73-22.31-8.36-23.97-18
		c-0.46-2.7,0.44-3.98,4.06-6.6c-1.82-0.99-3.65-0.51-5.33-0.74c-6.31-0.88-11.37-3.4-14.1-9.64c-1.27-2.9-2.85-5.66-3.52-8.78
		c-1.09-5.07,0.71-8.23,5.44-10.03c3.98-1.51,7.94-3.09,11.98-4.66c-0.62-2.11-2.29-1.92-3.66-2.11
		c-8.87-1.27-17.32-4.51-24.74-8.94c-10.2-6.09-17.36-15.52-20.47-27.32c-1.59-6.03,1.29-9.96,7.56-11.04
		c2.43-0.42,4.93-0.47,7.44-0.7c-0.11-2.08-1.76-2.41-2.95-3.17c-15-9.45-27.82-21.35-37.43-36.17
		c-6.87-10.6-11.79-22.35-13.77-35.02c-0.53-3.37-1.36-7.46,2.43-9.49c3.66-1.96,6.78,0.86,9.43,2.87
		c9.55,7.24,18.88,14.76,28.28,22.19c0.91,0.72,1.72,1.6,3.36,1.34c1.24-2.88-0.74-4.54-2.68-5.93
		c-11.08-7.89-20.07-17.79-28.7-28.25c-15.45-18.72-21.34-40.57-22.85-64.13c-0.2-3.05,0.32-5.99,0.77-8.94
		c0.44-2.9,2.31-4.21,5.38-3.73c3.11,0.48,5.58,2.06,7.88,4.06c2.25,1.96,4.5,3.9,7.41,6.43c-0.23-2.65-1.13-4.13-2.13-5.49
		c-9.81-13.32-13.33-28.71-15.38-44.75c-0.95-7.44-0.04-14.62,1.06-21.85c0.55-3.63,1.73-7.06,5.4-9.1c3.67-2.04,5.84-2.22,9.12,0.4
		c3.69,2.94,6.31,6.82,8.93,10.69c3.36,4.96,6.74,9.91,10.14,14.85c0.46,0.67,0.88,1.45,1.9,1.44c0.59-1.15,0.2-2.21-0.29-3.3
		c-5.33-11.77-8.36-24.24-10.55-36.87c-1.63-9.4-0.79-18.88,0.8-28.31c1.27-7.52,3.51-14.52,8.17-20.65
		c4.84-6.37,11.44-6.4,15.99,0.1c1.62,2.31,3.16,4.73,4.35,7.28c6.15,13.12,13.36,25.59,20.8,38.03
		c8.7,14.56,17.47,29.12,25.6,44.04c7.1,13,14.9,25.66,24.07,37.32c9.9,12.6,17.43,26.22,21.84,41.7c2.5,8.78,5.2,17.56,9.1,25.88
		c0.4,0.86,0.43,2,2.17,2.59c5.08-8.56,9.29-17.64,12.3-27.39c2.38,2.51,1.47,5.03,1.15,7.31c-0.91,6.59-2.1,13.15-3.25,19.71
		c-0.76,4.32-0.41,4.84,3.98,5.27c0.17,0.02,0.33,0.02,0.5,0.03c5.49,0.62,9.82-0.26,13.64-5.35c5.16-6.89,11.51-12.92,17.59-19.08
		c4.5-4.55,10.17-7.46,16-10.02c1.47-0.65,2.9-0.45,4.4-0.2c16.58,2.78,33.17,5.52,49.76,8.28c4.65,0.77,9.36,0.82,13.93-0.09
		c5.73-1.14,10.95,0.07,15.87,2.68c14.76,7.82,28.23,17.57,41.28,27.95c6.35,5.05,12.43,10.43,20.24,13.5
		c5.85,2.3,11.38,5.55,16.82,8.76c4.18,2.47,7.46,6.09,10.42,9.96c1.27,1.66,2.15,3.81,4.85,4.57c3.54-6.08,5.07-12.89,6.43-19.63
		c1.29-6.39,3.59-12.46,4.96-18.81c1.26-5.84,3.41-11.54,4.21-17.43c0.89-6.57,3.45-12.5,5.78-18.5c1.44-3.69,4.52-6.58,7.28-9.46
		c17.88-18.63,35.57-37.48,55.73-53.73c25.91-20.88,53.7-38.6,84.54-51.55c31.56-13.26,63.99-23.61,97.27-31.34
		c10.66-2.48,21.5-4.14,32.55-4.76c6.08-0.34,10.37,0.48,13.4,5.83c3.09,5.45,2.5,10.87-0.13,16.23
		c-2.54,5.19-7.48,7.94-11.84,11.23c-20.66,15.6-43.61,27.47-65.83,40.54c-2.24,1.32-5.04,1.71-6.82,3.98
		c1.56,0.77,2.74,0,3.94-0.52c17.43-7.49,35.02-14.56,53.16-20.15c12.83-3.95,25.98-5.77,39.43-4.98c3.85,0.23,5.75,2.55,5.46,6.69
		c-0.2,2.93-1.52,5.52-3.15,7.8c-12.38,17.33-26.1,33.23-45.25,43.64c-7.15,3.89-14.06,8.23-21.47,11.66
		c-1.73,0.8-3.21,2.12-5.16,3.44c2.5,0.74,4.17-0.14,5.9-0.63c13.91-3.96,27.78-8.1,42.08-10.51c9.5-1.6,14.21,3.21,11.85,12.59
		c-4.15,16.48-13.89,29.23-28.43,37.61c-19.92,11.48-40.9,20.9-62.49,28.89c-8.42,3.12-16.93,5.98-25.41,8.94
		c-1.82,0.63-3.8,0.98-4.95,3.06c2.1,1.36,3.77,0.41,5.4-0.23c14.74-5.79,30.08-9.74,45.11-14.6c11.48-3.71,23.26-7.16,35.56-7.6
		c6.66-0.24,9.55,2.17,10.19,8.77c0.69,7.25-2.38,13.39-6.42,18.97c-6.58,9.08-15.73,15.1-25.38,20.51
		c-22.17,12.42-45.73,21.4-69.78,29.4c-8.18,2.72-16.56,4.9-24.56,9.08c3.93-0.24,7.87-0.38,11.8-0.73
		c11.64-1.04,23.28-1.23,34.88,0.23c5.68,0.71,8.36,4.93,6.97,10.42c-2.36,9.33-7.63,16.99-14.51,23.46
		c-10.92,10.28-24.31,14.89-38.93,17.31c-11.79,1.95-23.56,3.18-36.27,3.08c1.8,2.2,3.62,2.3,5.34,2.64
		c6.7,1.34,13.23,2.95,19.33,6.38c8.16,4.58,9.43,8.08,2.98,15.06c-9.59,10.36-20.95,18.21-35.77,18.36
		c-6.95,0.07-13.92-1.13-20.87-1.81c-8.26-0.81-16.5-1.7-24.61-3.57c-0.76-0.17-1.63-0.18-2.54,0.69c2.39,2.34,5.6,2.93,8.49,3.75
		c6.96,1.98,13.24,5.42,19.65,8.57c5.67,2.79,6.48,6.2,2.55,11.2c-4.94,6.29-11.62,10.34-18.97,13.34
		c-7.74,3.16-15.63,2.65-23.58,1.05c-7.28-1.46-14.33-3.8-21.74-5.75c-0.93,2.91,1.25,3.86,2.66,4.88
		c5.8,4.2,11.72,8.23,17.59,12.33c0.82,0.57,1.63,1.16,2.42,1.77c4.23,3.31,4.28,5.7,0.28,9.14c-3.4,2.92-7.48,4.36-11.73,5.23
		c-4.71,0.96-9.49,1.64-14.25,2.36c-5.44,0.83-10.56-0.03-15.33-2.93c-1.65-1-3.51-1.66-6.42-3c2.51,4.59,4.02,8.33,4.89,12.51
		c-4.15,2.56-8.03,5.53-12.37,7.47c-5.98,2.68-12.25,3.17-18.14-0.75c-1.12-0.74-2.16-1.44-3.64-0.59
		c-3.04,1.76-6.51,2.35-10.12,3.07c-0.32,5.54,1.71,10.4,2.52,15.43c0.58,3.62,1.28,7.19,1.33,10.88c0.06,4.3,0.14,8.54,1.4,12.82
		c1.36,4.64,0.62,9.7,0.12,14.41c-0.82,7.62-0.22,15.27-1.51,22.89c-3.3,19.51-8.22,38.4-18.91,55.35
		c-4.32,6.86-3.78,14.63-4.13,22.22c-0.07,1.58,1.2,2.19,2.56,2.63c14.05,4.48,25.61,13.2,37.51,21.5
		c7.66,5.34,15.05,10.94,22.39,16.69c21.58,16.9,39.17,37.49,55.25,59.4c9.95,13.55,18.17,28.25,23.76,44.24
		c0.38,1.09,0.95,2.15,0.34,3.69c-10.38-0.6-20.84-1.51-32.09-3.42c2.03,9.42,7.11,17.22,8.94,26.97
		c-10.4-3.02-17.96-9.4-25.77-15.3c-7.91-5.97-14.93-12.99-22.65-19.35c9.82,20.78,17.33,42.08,20.29,65.47
		c-10.33-3.28-19.9-6.89-29.84-9.48c-3.4,8.48-0.39,16.98-1,25.88c-5.57-1.32-8.08-5.5-11.21-8.64c-3.12-3.13-5.67-6.82-9.09-11.03
		c-0.97,12.62,0.97,24.61-2.84,36.9c-8.6-5.23-16.46-10.29-24.45-16.2c-0.89,6.77,1.35,13.09,0.37,19.84
		c-4.54-0.97-6.83-3.81-9.06-6.93c-6.49-9.07-13.04-18.1-17.79-28.27C354.68,825.07,354.26,824.28,352.76,823.89z M394.6,283.5
		c-0.33-2.38-1.89-3.23-3.1-4.31c-14.03-12.5-28.08-25.04-43.3-36.06c-11.53-8.34-23.95-15.35-39.29-10.58
		c-1.55,0.48-3.53,0.1-4.26,1.99c-0.88,2.27,1.09,3.41,2.42,4.43c6.77,5.18,10.37,12.43,13.47,20.03
		c6.6,16.2,11.48,32.95,15.66,49.9c1.52,6.16,3.65,12.1,5.99,17.97c1.75,4.38,3.24,4.58,6.96,1.92
		c13.88-9.94,26.08-21.65,36.82-34.89C388.89,290.31,391.87,286.78,394.6,283.5z M59.31,594.76c-2.32,2.08-5.71,1.52-9.43,2.94
		c5.41,4.71,9.69,9.68,15.26,13.19c1.95,1.22,4.14,1.27,5.74-1C70.32,602.71,66.22,598.11,59.31,594.76z"/>
</g>
</svg>
