<?xml version="1.0" encoding="utf-8"?>
<!-- Generator: Adobe Illustrator 24.0.2, SVG Export Plug-In . SVG Version: 6.00 Build 0)  -->
<svg version="1.1" id="Layer_1" xmlns="http://www.w3.org/2000/svg" xmlns:xlink="http://www.w3.org/1999/xlink" x="0px" y="0px"
	 width="774" height="861.32" viewBox="0 0 774 861.32" style="enable-background:new 0 0 774 861.32;" xml:space="preserve">
<g>
	<path d="M116.65,808.39c-16.15-12.07-30.47-25.21-40.37-42.26c-5.54-9.54-10.72-19.44-12.16-30.89c-0.84-6.66,0.08-12.99,1.3-19.28
		c1.65-8.47,3.88-16.84,6.96-24.96c5.25-13.82,10.49-27.65,18.3-40.3c0.97-1.57,1.66-3.24,2.4-4.92c1.12-2.56,0.38-4.34-1.43-6.23
		c-8.61-8.97-15.14-19.28-20.71-30.41c-8.13-16.24-10.7-33.42-10.49-51.28c0.1-8.5,0.38-16.98,1.53-25.41
		c1.72-12.61,5.04-24.78,10.85-36.13c2.91-5.68,1.22-11.34,0.84-17.05c-0.06-0.86-0.8-1.42-1.46-1.95
		c-13.27-10.66-22.65-24.62-32.74-38.05C25.32,420.44,17.9,398.57,9.5,377.02c-3.92-10.06-6.08-20.28-7.22-30.88
		c-0.9,0.25-0.42,1.13-0.9,1.7c-1.7-7.21-1.82-14.58-0.4-21.53c3.3-16.16,5.82-32.68,12.73-47.79c5.73-12.54,10.2-25.79,17.64-37.42
		c6.33-9.9,12.86-19.79,20.78-28.59c2.78-3.09,5.35-6.46,8.3-9.3c6.26-6.04,13.36-10.88,22.79-10.07c1.09,0.09,1.87-0.48,2.74-1
		c7.88-4.71,16.18-6.43,25.32-4.28c11.03,2.61,14.46,6.33,15.44,17.68c0.34,3.94-0.14,7.71-2.43,10.98
		c-1.44,2.05-1.64,4.17-1.71,6.57c-0.59,18.65-0.55,37.3,0.99,55.91c0.74,8.97,1.98,17.88,4.46,26.57c0.5,1.76,0.87,3.58,2.08,5.04
		c4.55,5.49,9.34,10.79,13.04,16.57c1.45,0.07,2.11-0.49,2.42-1.26c6.12-15.06,15.38-28.32,23.77-42.1
		c7.33-12.04,16.38-22.76,26.26-32.57c6.64-6.59,13.16-13.58,21.49-18.52c5.09-3.02,9.21-7.6,14.18-11
		c2.91-1.99,5.99-3.63,9.05-5.23c11.01-5.74,21.44-12.65,33.59-16.17c5.7-1.65,10.66-5.44,16.56-6.85c2.58-0.62,5.17-1.24,7.7-2.04
		c0.93-0.3,1.5-1.28,1.89-2.47c-1.76-5.24-4.96-9.95-7.38-15.03c-12.4-26.05-18.21-53.5-17.32-82.27
		c0.58-18.87,4.67-37.19,9.71-55.37c3.07-11.07,8.67-20.85,13.74-30.94c3.19-6.35,8-6.45,13.28-1.47c1.79,1.69,3.28,3.82,4.47,5.98
		c5.77,10.46,12.04,20.65,15.99,32.06c2.33,6.73,5.63,13.13,8.18,19.8c4,10.45,5.67,21.52,8.11,32.38
		c3.72,16.57,2.88,33.36,2.07,50.12c-0.67,14.1-5.23,27.33-9.75,41.13c7.48,2.21,15.07-0.98,22.58,0.72
		c7.22,1.63,14.81,1.47,21.82,3.2c1.49-1.56,0.83-2.83,0.55-4.11c-2.9-12.94-3.39-25.94-2.34-39.2c1.96-24.9,8.92-48.36,18.76-71.1
		c9.14-21.12,21.97-39.85,37.06-57.14c4.61-5.28,9.48-10.29,14.5-15.16c3.92-3.8,6.18-3.33,8.95,1.32c1.34,2.24,1.5,4.72,2.13,7.12
		c5.19,19.75,7.62,39.91,7.91,60.25c0.31,21.81-0.5,43.67-6.34,64.87c-4.37,15.85-9.3,31.58-18.19,45.67
		c-5.31,8.42-10.81,16.72-17.92,24.03c43.61,30.09,75.81,69.43,99.58,116.39c3.41-2.19,6.66-4.96,9.82-7.83
		c2.07-1.88,2.11-4.18,0.71-6.35c-6.19-9.61-8.79-20.35-10.54-31.46c-0.92-5.84-0.95-11.68-0.32-17.43
		c0.72-6.49,0.79-12.87,0.09-19.34c-0.26-2.42,0.39-4.95,0.76-7.41c0.96-6.42,1.89-12.84,3.84-19.06
		c2.33-7.44,6.16-10.19,13.96-9.74c2.98,0.17,5.98,0.6,8.9,1.25c2.48,0.55,4.32,0.12,6.42-1.44c5.25-3.87,11.25-6.39,17.38-8.62
		c4.43-1.62,8.57-0.87,12.52,1.19c8.56,4.48,15.62,10.8,21.11,18.7c1.8,2.59,3.86,4.38,6.49,5.9c14.88,8.63,27.84,19.68,38.19,33.3
		c10.08,13.28,17.93,28,23.82,43.7c2.92,7.79,6.1,15.46,7.6,23.71c3.06,16.8-0.09,32.77-6.2,48.38
		c-7.62,19.47-17.28,37.87-29.63,54.73c-7.89,10.77-17.7,19.82-27.12,29.25c-12.54,12.56-26.74,22.99-40.89,33.52
		c-3.02,2.25-6.7,3.67-10.2,5.21c-2.49,1.1-3.41,2.72-3.42,5.41c-0.06,9.63-0.52,19.24-1.68,28.83c-0.62,5.11-0.68,10.3-0.72,15.46
		c-0.1,12.27-4.1,23.9-5.77,35.89c-2.07,14.83-8.06,28.37-12.34,42.48c-2.47,8.13-6.06,15.75-9.53,23.44
		c-0.55,1.21-0.36,2.25,0.1,3.34c3.07,7.25,4.49,14.96,6.27,22.57c0.31,1.33,0.48,2.96,2.21,4.02c2.07-4.48,2.38-9.32,3.77-13.84
		c4.81-15.62,13.9-28.83,23.92-41.18c8.42-10.38,19.36-18.06,32.56-22.28c8.68-2.77,17.24-4.83,26.4-4.05
		c6.38,0.55,11.49,3.16,15.24,8.33c6.06,8.34,8.13,17.67,7.11,27.87c-0.51,5.11-2.22,9.96-3.21,14.9c1.74,0.73,2.55-0.29,3.31-1.06
		c14.12-14.45,31.98-19.87,51.46-20.66c13.26-0.54,28.48,12.19,28.02,29.3c-0.21,7.74-3.23,14.55-7.2,21.02
		c-0.6,0.97-1.55,1.77-1.41,3.43c4.33,2.27,9.46,2.19,14.18,3.52c7.22,2.04,13.55,5.33,19.06,10.38c2.17,1.99,2.65,5.08,4.57,7.07
		c5.36,5.55,4.55,12.72,3.09,18.6c-1.24,5-3.93,10.41-7.62,14.68c-5.79,6.7-12.63,12.22-20.12,16.9c-1.85,1.16-2.8,2.07-1.95,4.29
		c3.7,9.72,0.6,18.55-3.38,27.41c-6.54,14.57-18.55,22.16-33.13,26.58c-4.71,1.43-9.7,1.04-14.41,0.55
		c-8.89-0.92-17.85-1.99-25.19-8.26c-4.05-3.46-4.09-2.79-8.36,0.17c-10.69,7.39-21.97,11.95-35.53,8.16
		c-6.3-1.76-12.49-2.91-17.71-7.32c-7.69-6.49-12.2-14.37-12.48-24.54c-0.06-2.32-0.33-4.63-0.52-7.19
		c-7.97-3.23-14.61-8.48-20.79-14.35c-1.98-1.88-3.53-2.4-6.05-0.76c-2.76,1.79-5.89,3.1-8.99,4.27c-3.6,1.36-5.56,3.38-6.04,7.53
		c-1.72,14.7-4.23,29.28-7.98,43.62c-2.41,9.2-5.7,18.08-10.29,26.44c-2.47,4.5-3.64,8.82,0,13.37c1.44,1.8,2.47,3.96,3.46,6.06
		c2.04,4.33,0.18,7.99-4.52,8.13c-12.47,0.35-24.94,0.74-37.43-0.09c-5.3-0.35-10.6-0.42-15.91-0.96
		c-10.09-1.04-19.52-4.17-28.46-8.6c-19.02-9.41-36.55-21.16-53.19-34.35c-10.35-8.2-19.63-17.48-28.86-26.83
		c-4.81-4.87-9.96-6.65-17.06-5.12c-8.23,1.76-16.75,1.92-25.28,0.81c-8.57-1.12-17.27-0.72-25.91-1.41
		c-10.81-0.86-21.46-2.15-31.83-5.48c-7.4-2.37-14.93-4.35-22.37-6.64c-1.53-0.47-2.55-0.08-3.6,0.86
		c-7.46,6.64-14.6,13.52-20.09,22.02c-5.32,8.24-11.01,16.26-16.78,24.2c-4.55,6.27-11.14,9.43-18.66,10.36
		c-15.25,1.88-30.53,1.66-45.82,0.16c-7.11-0.7-14.29-0.32-21.42-1.08c-4.36-0.47-8.48-1.61-12.52-3.23
		c-4.67-1.87-5.67-6.28-1.82-9.66C107.92,812.71,111.64,809.55,116.65,808.39z M576.8,700.36c2.01-0.48,2.44-1.45,2.94-2.27
		c6.1-9.83,14.98-15.72,26.08-18.51c1.95-0.49,3.71-1.14,4.86-3.11c5.64-9.63,10.93-19.44,15.12-29.79
		c1.49-3.69,3.09-7.45,2.51-11.58c-0.47-3.36,0.46-7.67-3.15-9.44c-4.04-1.99-7.67,0.67-10.95,2.98
		c-5.57,3.92-10.57,8.37-15.27,13.42c-4.72,5.08-8.91,10.24-11.81,16.48c-1.75,3.77-3.3,7.63-5.12,11.37
		C577.39,679.46,577.32,689.71,576.8,700.36z"/>
</g>
</svg>
