<?xml version="1.0" encoding="utf-8"?>
<!-- Generator: Adobe Illustrator 24.0.2, SVG Export Plug-In . SVG Version: 6.00 Build 0)  -->
<svg version="1.1" id="Layer_1" xmlns="http://www.w3.org/2000/svg" xmlns:xlink="http://www.w3.org/1999/xlink" x="0px" y="0px"
	 viewBox="0 0 826.18 860.81" style="enable-background:new 0 0 826.18 860.81;" xml:space="preserve">
<g>
	<path d="M495.89,243.13c-4.71-4.61-10.88-6.7-15.79-10.72c-6.56-5.37-6.52-7.47,0.59-12.1c4.9-3.19,10.19-5.65,15.24-8.55
		c1.66-0.95,2.97-1.93,2.93-4.18c-0.34-20.46,0.46-40.97-2.23-61.34c-2.42-18.35-7.07-36.15-13.35-53.56
		c-1.2-3.32-2.96-4.46-6.12-4.38c-5.16,0.13-10.28-1.1-15.46-0.6c-0.97,0.09-2.02-0.1-2.96-0.39c-3.51-1.09-4.28-3.38-2.14-6.35
		c3.89-5.4,7.73-10.83,11.75-16.14c1.46-1.92,1.93-3.37,0.64-5.76c-7.89-14.63-14.84-29.8-25.65-42.68
		c-1.49-1.78-2.66-3.8-3.58-5.97c-2.26-5.36-0.12-8.9,5.69-9.96c7.13-1.3,13.94,0.5,20.69,2.04c7.12,1.62,13.97,4.42,21.1,5.98
		c10.21,2.23,18.96,7.95,28.68,11.3c2.95,1.02,5.67,2.72,8.23,4.65c4.49,3.38,9.1,4.51,14.07,0.56c2.59-2.06,5.5-3.74,8.69-4.85
		c4-1.39,5.17-0.81,5.62,3.38c0.59,5.48-0.42,10.9-1,16.33c-0.21,1.98-0.99,3.88-0.79,6.34c5.3,3.57,10.49,7.79,14.6,13.02
		c7.28,9.27,14.26,18.76,20.8,28.59c6.1,9.16,10.59,19.17,16.11,28.63c0.42,0.72,0.96,1.41,1.18,2.19
		c1.81,6.35,5.54,11.24,11.08,14.78c2.37,1.52,3,3.42,1.46,5.9c-2.02,3.25-1.71,6.51-0.53,10.05c5.54,16.65,8.32,33.9,10.7,51.23
		c0.48,3.54-0.51,7.15,1.58,10.68c1.16,1.95,2.37,2.73,4.22,3.59c3.5,1.63,7.94,1.87,10.06,6.24c-2.5,4.21-6.09,7.37-10.3,9.73
		c-5.22,2.92-6.35,7.33-6.32,12.96c0.04,6.96-0.36,14.01-1.52,20.86c-1.62,9.51-3.13,19.04-5.2,28.49
		c-2.31,10.51-6.42,20.26-10.69,30.41c1.5,3.49,4.32,6.56,6.64,9.97c4.4,6.49,7.33,13.79,10.86,20.76
		c3.23,6.39,6.41,12.8,9.53,19.24c0.92,1.89,1.94,2.73,4.26,2.23c20.77-4.45,37.32,4.24,52.53,17.04c2.16,1.82,4.38,3.58,6.53,5.42
		c3.71,3.18,8.02,3.76,12.67,3.15c6.41-0.84,12.43-0.81,17.7,4.19c2.44,2.31,6.19,2.79,9.87,2.68c10.14-0.31,19.71-3.03,29.1-6.48
		c2.71-1,5.5-1.08,8.14-1.52c3.33-7.27,3.14-14.91,3.63-22.27c1.23-18.44,1.51-36.96,0.25-55.4c-1.36-19.92-2.62-39.87-5.46-59.66
		c-1.7-11.85-3.4-23.66-8.52-34.69c-1.41-3.02-2.22-6.34-0.33-9.72c-2.79-1.99-5.77-3-8.79-3.77c-5.81-1.48-11.88-2.18-17.46-4.24
		c-9.13-3.37-16.7-9.01-20.13-18.65c-0.88-2.46-0.67-5.4,0.51-7.8c4.31-8.79,9.62-16.75,18.89-21.17c2.83-1.35,4.85-3.89,8-5.34
		c-5.39-2.4-9.05-6.53-13.22-9.99c-6.64-5.51-9.25-12.32-6.91-20.89c1.76-6.44,3.83-12.75,6.94-18.65
		c2.32-4.41,6.31-7.25,10.72-9.36c4.47-2.13,8.57-0.48,12.15,2.14c5.09,3.71,10.16,7.53,14.81,11.76
		c6.21,5.64,13.87,7.63,21.61,7.97c9.73,0.43,15.73,6.24,21.97,12.22c0.7,0.67,1.34,1.6,1.58,2.52c2.66,10.08,6.29,19.93,6.53,30.57
		c0.17,7.75-2.22,14.82-5.44,21.56c-3.44,7.19-7.52,14.08-12.7,20.63c6.37,6.83,6.85,15.54,7.96,24.1
		c1.96,15.18,5.38,30.12,7.46,45.3c1.33,9.73,1.99,19.54,3.35,29.25c1.31,9.34,1.2,18.81,2.89,28.1c0.17,0.95,0.08,2-0.1,2.97
		c-2.43,12.91-2.45,26.09-4.51,39.07c-1.99,12.58-4.32,24.88-11.84,35.58c-2.5,3.56-5.11,6.98-8.47,9.78
		c-1.54,1.28-3.04,2.4-5.18,2.75c-2.66,0.44-5.13,2.08-6.82,3.9c-4.22,4.55-9.45,5.7-15.21,6.43c-10.72,1.36-21.38,3.18-32.08,4.77
		c-1.35,0.2-2.51,0.42-3.49,1.57c-2.87,3.36-6.61,5.54-10.7,7.05c-8.52,3.13-14.58,9.08-19.43,16.49
		c-2.92,4.45-5.29,9.23-8.41,13.58c-5.02,6.98-10.84,13.04-18.31,17.42c-2.31,1.36-4.73,2.42-7.37,2.99
		c-2.33,0.5-3.67,1.67-2.37,4.24c0.8,1.58,0.57,3.23,0.51,4.9c-0.18,4.59,1.16,6.89,5.43,8.33c12.85,4.33,23.33,12.11,33.78,20.63
		c14.73,12.02,21.18,27.8,24.44,45.49c3.5,18.98,4.26,38.11,0.1,57.1c-2.95,13.49-8.16,26.08-18,36.19
		c-2.12,2.18-1.61,3.33-0.25,5.82c4.44,8.09,9.33,15.96,8.77,26.02c-0.8,14.34-12.22,18.96-24.06,15.33
		c-5.27-1.62-9.38-5.06-12.84-9.19c-3.64-4.36-6.96-9.09-8.57-14.54c-1.11-3.75-3.01-4.39-6.44-4.35
		c-9.98,0.09-19.52-2.36-28.5-6.54c-7.49-3.49-15.42-6.36-21.07-12.73c-0.82,0.4-1.43,0.5-1.66,0.85
		c-10.31,15.46-22.8,29.02-36.97,40.93c-8.72,7.33-18.85,12.48-29.86,15.73c-4.67,1.38-9.54,1.27-14.28,1.51
		c-13.69,0.7-27.18-1.06-40.6-4.06c-12.68-2.84-25.26-5.94-37.24-10.98c-6.72-2.83-13.55-5.56-19.54-9.87
		c-2.3-1.66-5.16-2.06-7.07-3.78c-1.15,0.7-1.18,1.34-1.11,2.02c1.16,10.55,0.18,20.92-2.44,31.19
		c-2.95,11.59-4.86,23.48-9.88,34.48c-3.27,7.15-7.36,13.78-12.31,19.89c-2.91,3.59-6.38,6.3-10.86,7.63
		c-1.74,0.51-3.43,1.17-5.7,1.95c2.65,5.62,2.97,11.6,4.43,17.34c2.49,9.82,3.57,19.7-0.77,29.36c-2.6,5.78-6.92,9.9-13.3,10.76
		c-6.24,0.85-10.97-2.37-14.17-7.51c-4.14-6.63-8.01-13.43-11.88-20.22c-1.95-3.42-2.91-7.09-1.24-11.74
		c-3.45,0.93-6.4,1.31-8.97,2.5c-8.47,3.93-16.85,2.21-25.4,0.43c-12.43-2.59-21.11-10.94-29.89-19.05
		c-4.61-4.26-8.6-9.19-12.08-14.47c-2.02,0.77-2.27,2.59-3.03,3.96c-5.59,10.13-11.35,13.17-23.93,11.95
		c-6.98-0.68-13.6-3.21-20.44-4.66c-6.87-1.46-12.24-5.84-18.22-9.02c-5.58-2.97-5.65-9.83-3.35-15.01
		c4.14-9.32,12.25-14.36,21.58-17.19c10.55-3.19,21.36-5.13,32.43-3.49c1.09-1,0.83-2.13,0.61-3.3c-3.21-17.3-2.66-34.35,2.91-51.21
		c5.23-15.84,12.79-30.43,23.52-43.13c12.56-14.87,27.54-26.48,46.86-31.55c6.11-1.6,12.17-3.26,19.11-3.24
		c-1.53-4.95-3.84-8.9-6-12.92c-0.78-1.45-2.19-1.26-3.53-1.17c-3.82,0.24-7.68,0.22-11.47,0.75c-10.29,1.44-20.27-0.11-30.08-2.98
		c-6.32-1.85-11.51-5.98-16.6-9.87c-9.89-7.56-16.15-17.95-21.05-29.25c-1.45-3.35-2.96-6.65-4.17-10.12
		c-1.61-4.59-6.27-6.21-9.96-8.67c-3.46-2.3-7.17-4.22-10.71-6.41c-4.9-3.03-8.99-6.89-11.43-12.2c-0.89-1.93-2.19-3.37-3.99-4.31
		c-6.33-3.32-12.56-6.89-19.35-9.25c-6.75-2.35-13.55-4.59-20.28-7.01c-2.66-0.95-5.92-1.58-7.64-3.5
		c-4.5-5.02-10.75-6.15-16.33-8.86c-10.74-5.22-17.44-14.66-24.05-24.14c-16.85-24.18-30.85-50.16-47.23-74.65
		c-9.9-14.79-18.76-30.26-28.26-45.32c-3.73-5.91-8-11.48-10.5-18.1c-1.71-4.53-3.49-9.03-3.12-14c0.49-6.72-2.88-10.55-9.06-12.46
		c-8.08-2.49-13.5-8.35-18.06-15.02c-3.56-5.21-6.83-10.56-10.96-15.43c-7.11-8.38-10.84-18.61-14.04-28.99
		c-0.59-1.91-1.18-3.81-1.72-5.73c-0.97-3.45-1.11-6.94,0.16-10.32c1.73-4.6,3.16-4.87,7-1.67c5.76,4.8,11.65,9.43,17.32,14.33
		c2.72,2.35,4.98,2.52,7.87,0.27c3.66-2.85,7.74-5.07,10.68-8.9c1.45-1.89,3.9-3,5.79-4.38c-1.65-10.92-1.65-21.47,2.72-31.85
		c4.88-11.57,13.43-18.76,25.02-22.76c1.92-0.66,4.04-1.2,5.6,0.53c1.38,1.52,0.12,3.15-0.51,4.64c-1.62,3.84-0.92,8.27-3.22,11.98
		c-0.79,1.28,0.23,2.93,0.7,4.32c1.99,5.88,3.17,11.9,3.34,18.11c0.05,1.93,0.52,3.65,2.07,4.88c8.84,7.01,17.32,14.51,28.75,17.4
		c3.04,0.77,5,0.27,7.26-1.48c3.42-2.65,6.26-6.02,10.15-8.07c1.02-0.54,2.03-1.17,3.75-1.17c4.66,4.89,6.13,11.17,4.83,17.7
		c-2.22,11.18-7.06,21.13-16.45,28.25c-1.57,1.19-2.54,2.68-2.94,4.49c-2.43,10.98-8.74,19.26-17.68,25.76
		c-0.54,0.39-1.1,0.75-1.53,1.03c6.29,18.42,13.96,35.69,22.64,52.55c7.29,14.17,14.33,28.47,21.64,42.63
		c1.9,3.68,4.31,7.12,6.6,10.59c6.24,9.45,12.69,18.75,18.77,28.3c5.9,9.28,12.04,18.38,18.79,27.07c0.2,0.26,0.48,0.54,0.53,0.84
		c0.85,6.3,6.33,7.75,10.75,10.34c8.93,5.25,18.22,9.69,28.03,13.03c4.4,1.5,9.05,2.19,13.27,4.23c0.97,0.47,1.98,0.52,2.88-0.02
		c4.4-2.6,8.78-1.28,13.01,0.24c6.49,2.33,13.12,3.5,19.97,4.13c5.87,0.54,11.22-0.36,16.39-3.12c4.83-2.58,9.81-4.84,15.93-5.65
		c-3.17-20.49-5.3-40.75-7.23-61.26c-10.75-2.46-20.85-6.62-30.58-11.74c-10.76-5.66-21.13-11.92-30.54-19.67
		c-3.85-3.18-7.77-6.29-11.53-9.57c-1.83-1.6-3.7-1.92-5.99-1.42c-3.59,0.78-7.16,1.12-10.89,0.45c-2.92-0.53-3.93-2.06-4.19-4.64
		c-0.42-4.04,0.4-7.98,1.06-11.9c0.42-2.5-0.11-4.35-1.66-6.41c-7.08-9.45-15.17-18.24-20.32-28.98
		c-4.51-9.41-9.55-18.53-12.95-28.53c-3-8.81-5.86-17.6-8.4-26.56c-3.13-11.02-3.93-22.3-4.91-33.53
		c-0.64-7.31-2.94-13.05-8.47-17.84c-6.55-5.68-6.43-7.46,0.98-12.22c4.45-2.86,5.72-6.83,6.37-11.63
		c1.13-8.41,2.55-16.78,4.01-25.15c1.98-11.32,5.17-22.32,9.01-33.14c3.3-9.3,7.91-18.03,13.45-26.1c3.44-5.02,8.39-9,13.66-12.29
		c4.07-2.54,7.17-1.14,8.53,3.87c0.91,3.36,1.66,6.8,2.18,10.24c2.39,15.74,8.04,30.51,13.26,45.41c0.82,2.35,1.88,4.64,2.5,7.04
		c0.65,2.52,2.05,3.27,4.39,2.59c3.56-1.03,7.26-0.96,10.89-1.38c4.01-0.46,4.73,0.65,4.6,4.82c-0.15,4.74-2.22,8.65-4.79,12.38
		c-1.43,2.07-2.7,4.21-3.54,6.57c-0.63,1.78-0.68,3.52,0.04,5.35c5.55,14.27,12.78,27.68,20.26,41.01
		c2.68,4.77,6.68,6.07,11.23,7.13c6.08,1.41,7.26,2.55,5.59,8.42c-1.56,5.48-0.4,9.68,3.39,13.62c3,3.12,5.74,6.48,8.64,9.7
		c1.82,2.02,3.8,2.42,6.13,0.62c2.77-2.14,5.79-3.92,8.94-5.45c4.71-2.3,7.02-0.79,6.55,4.5c-0.53,5.96-1.2,11.9-2,17.83
		c-0.3,2.25,0.35,3.81,1.98,5.28c8.05,7.28,16.25,14.29,26.37,18.69c2.57,1.11,4.06,0.93,6.59-0.74c6.12-4.04,9.48-10.6,15.08-15.03
		c6.12-4.84,12-9.88,18.82-13.88c9.18-5.39,17.99-11.4,27.78-15.68c11.59-5.07,23.3-9.57,35.94-11.72
		c11.31-1.92,22.56-4.22,33.99-5.41c4.62-0.48,9.26-0.62,13.42-3.17c1.78-1.09,3.25-2.13,3.68-4.36
		C492.96,254.08,495.18,248.99,495.89,243.13z"/>
</g>
</svg>
