<?xml version="1.0" encoding="utf-8"?>
<!-- Generator: Adobe Illustrator 24.0.2, SVG Export Plug-In . SVG Version: 6.00 Build 0)  -->
<svg version="1.1" id="Layer_1" xmlns="http://www.w3.org/2000/svg" xmlns:xlink="http://www.w3.org/1999/xlink" x="0px" y="0px"
	 width="861.7" height="763.42" viewBox="0 0 861.7 763.42" style="enable-background:new 0 0 861.7 763.42;" xml:space="preserve">
<g>
	<path d="M251.51,113.14c1.35-7.28,2.71-14.44,3.99-21.62c2.17-12.17,6.26-23.81,9.65-35.65c1.51-5.26,2.42-10.68,4.37-15.84
		c3.59-9.51,7.74-18.75,13.48-27.15c3.61-5.28,6.86-5.57,12.16-1.79c8.59,6.13,14.61,14.57,20.16,23.27
		c11.3,17.71,20.52,36.53,29.27,55.62c8.88,19.38,16.82,39.1,24.37,59.03c5.63,14.86,8.7,30.36,13.22,45.48
		c2.09,7.01,4.47,13.93,6.55,20.94c3.26,10.99,6.43,22.01,9.55,33.04c2.12,7.5,4.1,15.05,6.15,22.58c0.81,2.98,3.24,4.77,5.49,6.27
		c8.73,5.83,18.45,9.57,29.24,13.1c0.62-15.46,4.19-29.88,10.05-44.71c7.5,9.6,7.1,22.16,15.99,30.32
		c10.65-26.69,26.61-48.5,49.83-64.62c1.88-1.31,3.95-3.2,7.38-2.04c-1.59,19.1-5.93,38.07-3.63,58.38
		c6.82-6.29,11.75-13.62,19.01-18.55c7.15-4.86,13.9-10.32,21.35-14.76c7.41-4.42,14.54-9.51,23.7-11.39
		c0.07,6.21-6.04,8.91-6.38,15.4c18.79-8.92,36.34-19.18,56.34-22.66c0.4,0.57,0.8,1.13,1.2,1.7
		c-18.72,22.22-35.04,46.18-52.65,69.56c2.46,1.21,3.31,0.12,4.24-0.35c9.14-4.67,19.15-6.41,29.02-8.65
		c20.27-4.6,40.77-3.54,61.14-1.55c14.36,1.4,28.79,3.21,42.68,7.6c2.02,0.64,4.29,0.88,5.85,3.62
		c-22.71,14.69-47.04,26.31-72.3,38.17c4.46,1.61,8.06,1.8,11.66,2.01c8.77,0.52,17.69,0.06,25.85,4.39
		c1.69,0.89,3.62,1.49,3.43,3.67c-0.18,2.06-2.18,2.16-3.81,2.55c-6.79,1.63-13.56,3.31-20.48,5.01c1.44,2.47,4.86,1.07,6.22,4.55
		c-8.33,3.56-17.82,3.19-26.72,6.61c6.38,6.47,12.12,12.88,17.47,19.63c8,10.09,13.86,21.51,20.47,32.49
		c9.59,15.95,18.16,32.47,28.93,47.76c11.16,15.84,23.47,30.61,37.03,44.39c0.12,0.12,0.21,0.26,0.34,0.37
		c18.9,15.74,36.82,32.8,58.87,44.32c5.15,2.69,10.27,5.43,15.39,8.18c1.12,0.6,2.73,0.7,2.65,2.51c-0.07,1.62-1.43,2.12-2.58,2.75
		c-0.84,0.46-1.9,0.57-2.42,1.54c11.85,4.01,24.19,3.43,37.44,4.49c-4.71,6.71-10.42,10.56-15.87,14.65
		c-5.43,4.08-12.35,5.07-18.77,8.33c3.02,2.38,6.49,0.24,9.47,2.65c-2.38,3.31-5.69,4.95-9.05,6.48
		c-14.61,6.63-30.22,9.12-45.99,10.68c-15.46,1.53-30.98,1.92-46.26-1.44c-7.12-1.57-14.18-3.61-20.87-6.71
		c-1.61-0.75-3.2-1.76-4.94-1.75c-0.43,0.39-0.87,0.6-0.88,0.83c-0.82,16.01-4.07,31.66-7.01,47.35
		c-3.02,16.09-10.12,30.2-22.18,41.48c-9.24,8.65-20.25,11.36-32.71,9.17c-3.89-0.68-7.96-0.23-11.95-0.44
		c-6.48-0.34-13.34,0.28-19.24-2.29c-7.68-3.35-16.02-3.83-23.73-7.01c-6.98-2.88-9.86-7.68-9.94-14.5
		c-0.08-6.46-0.17-12.97,1.45-19.36c1.98-7.82,6.05-13.51,13.56-17.36c7.17-3.68,12.75-9.09,13.97-18.17
		c1.34-9.96,1.92-19.9,1.58-29.88c-0.18-5.38-2.37-9.69-8.34-11.62c-7.29-2.36-13.45-7.22-20.43-10.37c-4.83-2.18-9.45-4.8-14.11-8
		c-21.47,24.4-49.05,39.44-78.2,52.38c1.72,3.73,2.89,7.24,4.83,10.25c3.45,5.34,4.32,11.42,5.78,17.34
		c1.26,5.1,0.17,9.86-2.26,14.46c-7.14,13.55-15.6,26.34-22.93,39.77c-5.58,10.22-10.62,20.74-16.15,30.98
		c-3.96,7.34-6.45,15.34-10.49,22.62c-1.36,2.45-1.46,5.34-3.32,7.72c-4.29,5.5-10.41,6.29-16.52,6.8
		c-9.11,0.77-18.23,1.72-27.4,0.36c-1.95-0.29-4.28-0.1-5.78,1.17c-6.66,5.64-14.17,3.69-21.24,2.03
		c-9.36-2.19-18.59-4.97-25.99-11.92c-3.12-2.93-7.95-3.06-11.8-5.07c-7.82-4.09-9.8-7.26-8.29-15.85
		c2.3-13.13,8.96-23.78,18.95-32.45c1.04-0.9,2.24-1.54,3.54-1.75c6.16-0.98,11.7-3.31,17.09-6.49c4.05-2.38,7.33-4.97,9.15-9.39
		c3.5-8.47,6.79-16.96,7.83-26.19c0.42-3.77,1.64-7.46,2.49-11.19c1.25-5.49,0.3-9.99-4.7-13.55c-4.32-3.08-7.7-7.58-12.2-10.25
		c-4.58-2.71-10.4-1.02-15.58-2.21c-19.2-4.41-38.11-9.8-55.31-19.55c-7.6-4.31-15.47-8.5-22.08-14.5
		c-3.69-3.36-5.72-2.96-8.96,1.08c-3.27,4.08-4.76,9.1-7.19,13.62c-7,13.06-14.7,25.72-22.11,38.53c-2.35,4.06-6.17,6.42-10.29,8.38
		c-6.45,3.06-12.88,6.17-19.3,9.29c-11.85,5.75-21.95,13.83-30.65,23.63c-4.99,5.62-10.27,10.9-15.77,16
		c-2.89,2.68-4.68,6.25-8.26,8.52c-9.47,6-19.85,7.43-30.64,7.06c-5.48-0.18-10.97,0.16-16.46-0.75c-3.94-0.65-7.5-1.22-11.09-3.64
		c-3.4-2.29-8.26-2-12.29-3.74c-4.13-1.79-8.39-3.24-11.56-6.65c-1.06-1.14-2.41-1.76-3.93-2.03c-10.32-1.8-16.36-8.84-21.23-17.33
		c-1.25-2.17-0.79-4.55-1.01-6.84c-0.61-6.31,0.97-12.32,3.35-18.01c2.36-5.62,7.89-7.95,12.94-10.41
		c5.23-2.55,10.65-4.75,16.13-6.72c7.29-2.61,12.92-7.66,18.27-12.78c16.11-15.41,31.71-31.36,47.74-46.85
		c6.03-5.83,10.19-12.49,12.79-20.42c7.7-23.54,14.36-47.4,22.11-70.94c3.11-9.45,6.78-18.75,9.02-28.49
		c0.26-1.12,0.97-2.16,0.46-3.37c-3.11-7.29-3.74-15.16-5.16-22.83c-1.18-6.37-5.4-9.03-10.95-10.82
		c-9.96-3.2-20.16-5.56-29.92-9.53c-13.37-5.44-25.76-12.48-37.53-20.65c-11.21-7.78-22.62-15.55-31.12-26.36
		c-7.15-9.09-15.7-17.23-20.53-28.07c-1.01-2.26-2.5-4.14-5.65-4.07c-16.82,0.37-28.1-8.19-36.23-22.27
		c-3.8-6.58-6.12-13.64-8.58-20.71c-1.15-3.29-2.32-6.58-3.34-9.92c-3.25-10.62-2.1-21.38,1.16-31.51
		c3.06-9.51,9.31-17.04,17.98-23.02c9.73-6.72,20.19-7.82,31.25-7.98c3.99-0.06,7.99-0.13,11.97-0.39c4.23-0.29,7.04-3.13,9-6.4
		c12.06-20.11,26.54-38.25,43.56-54.36c1.5-1.42,1.57-2.6,1.19-4.37c-4.33-20.04-7.57-40.29-8.31-60.77
		c-0.72-19.79-0.84-39.63,1.38-59.38c0.73-6.47,2.6-12.7,4.16-18.99c1.26-5.11,6.65-7.28,11.89-5.48
		c23.33,7.97,41.84,22.97,58.72,40.28c17.37,17.82,30.07,38.9,41.7,60.7c1.37,8.51,6.34,11.88,14.87,11.17
		C245.11,112.55,247.94,113.85,251.51,113.14z"/>
</g>
</svg>
