<?xml version="1.0" encoding="utf-8"?>
<!-- Generator: Adobe Illustrator 24.0.2, SVG Export Plug-In . SVG Version: 6.00 Build 0)  -->
<svg version="1.1" id="Layer_1" xmlns="http://www.w3.org/2000/svg" xmlns:xlink="http://www.w3.org/1999/xlink" x="0px" y="0px"
	 viewBox="0 0 784.39 860.38" style="enable-background:new 0 0 784.39 860.38;" xml:space="preserve">
<g>
	<path d="M26.79,731.09c-1.56-2.87-3.57-4.71-6.36-5.76c-1.64-0.62-3.08-0.95-4.7,0.15c-4.8,3.27-8.88-0.32-13.17-1.6
		c-1.05-0.31-1.01-1.63-1.22-2.59c-1.48-6.85-1.45-13.89-1.23-20.74c0.21-6.66,4.83-11.2,11.21-13.61c2.02-0.76,3.09,0.75,4.47,1.52
		c4.25,2.38,4.82,2.34,7.03-0.76c3.25-4.56,3.34-5.84-0.25-8.81c-3.04-2.51-3.44-5.66-4.43-9.28c-2.58-9.39,1.6-15.19,7.79-20.93
		c5.43-5.03,6.49-5.45,12.9-2.26c1.18,0.59,2.35,1.2,3.43,1.75c4.56-1.81,7.49-5.08,9.58-9.2c0.68-1.35,1.39-2.76,0.07-4.14
		c-3.12-3.26-3.76-7.65-5.49-11.48c3.5-3.73,6.55-7.7,11.18-9.38c0.29-3.15-2-4.17-3.4-5.65c-8.32-8.82-17.03-17.29-25.02-26.4
		c-6.01-6.85-7.21-13.99-1.63-22.24c6.53-9.64,15.42-16.94,23.36-25.19c2.03-2.11,4.68-3.67,6.03-6.69
		c-2.58-1.33-5.22-1.83-7.79-2.16c-8.86-1.12-17.07-4.38-25.34-7.46c-3.76-1.4-6.19-4.49-8.42-7.59c-1.66-2.31-0.44-4.47,1.21-6.29
		c2.35-2.59,4.79-5.1,7.2-7.63c7.94-8.29,15.9-16.57,23.83-24.87c11.04-11.55,21.75-23.45,33.2-34.58
		c9.3-9.04,18.31-18.39,28.03-26.98c5.37-4.74,7.82-11.13,10.86-17.17c3.02-5.99,6.82-11.41,10.69-16.84
		c2.95-4.15,7.59-4.94,11.87-5.57c6.38-0.94,12.69-2.26,19.24-2.51c8.75-0.32,16.99,1.37,24.86,4.47
		c6.81,2.68,11.76,1.51,16.19-4.12c4.83-6.14,11.82-10.04,16.75-16.22c7.39-9.24,17.29-16.11,24.96-25.11
		c4.86-5.7,10.91-10.3,15.13-16.55c2.62-3.88,7.35-4.94,10.46-8.2c1.56-1.64,2.22-2.82,1.51-5.16c-2.76-9.12-1.65-18.11,1.84-26.83
		c1.78-4.45,3.83-8.79,5.99-13.71c-4.74-1.56-9.42-1.82-13.91-2.15c-9.02-0.66-17.81-2.62-26.59-4.38
		c-8.79-1.76-17.64-3.35-26.3-5.81c-4.19-1.19-7.91-3.42-12.01-4.82c-2.79-0.95-3.88-4.24-5.11-7.02
		c-3.24-7.34-3.43-15.25-4.26-22.98c-1.2-11.22-2.29-22.43-2.5-33.78c-0.19-10.26-0.77-20.61-0.92-30.88
		c-0.19-12.82-1.84-25.58-1.3-38.38c0.21-4.95,0.79-10.02,2.12-14.77c1.8-6.4,6.36-10.65,12.58-13.27
		c13.73-5.78,28.39-8.27,42.59-12.37c13.46-3.89,27.38-5.4,41.02-8.33c2.18-0.47,3.23-1.47,3.09-3.7
		c-0.48-7.65,1.25-15.23,0.77-22.9c-0.33-5.42,5.27-12.94,10.54-14.4c2.76-0.77,5.26-1.96,7.77-3.3c6.54-3.48,13.65-5.12,21-5.85
		c3.64-0.36,7.31-0.67,10.87-1.44c10.26-2.2,20.71-2.75,31.1-3.78c5.81-0.58,11.62-0.18,17.44,0.12
		c12.59,0.66,25.15,0.83,37.62-1.82c6.06-1.29,12.32-0.59,18.42,0.14c12.23,1.46,24.38,3.65,36.63,4.88
		c9.46,0.95,18.75,2.8,28.07,4.42c15.02,2.62,29.81,6.28,44.1,11.79c3.8,1.46,6.92,3.92,10.36,5.88c2.08,1.19,3.02,3.81,2.23,6.16
		c-1.11,3.31-0.8,6.55-0.58,9.87c0.23,3.52-0.51,6.96-1.09,10.41c-1.11,6.68,1.08,10.31,7.62,11.69c10.12,2.13,20.2,4.48,29.73,8.43
		c11.64,4.83,23.74,8.73,34.25,16.02c3.97,2.75,6.29,6.07,5.96,11.22c-0.71,11.12-0.89,22.28-1.82,33.39
		c-0.51,6.13-0.34,12.32-0.82,18.46c-1.35,17.25-3.18,34.49-3.2,51.8c-0.02,11.7-0.26,23.28-3.46,34.63c-0.72,2.54,0,5.32-1.15,7.85
		c-1.9,4.16-5.12,6.89-9.14,8.79c-4.99,2.35-10.19,4.2-15.59,5.24c-13.56,2.63-27.12,5.3-40.89,6.55
		c-9.27,0.84-18.52,2.03-27.87,1.95c-5.4-0.05-6.93,0.15-6.6,5.89c0.19,3.28-1.02,6.53-0.43,9.93c0.53,3.08,0.56,6.25,0.84,9.64
		c9.2,2.41,17.61,6.64,26,10.98c8.54,4.42,12.96,11.85,15.11,20.67c0.98,4.01,2.95,5.15,6.64,6c8.16,1.88,16.49,2.15,24.67,3.44
		c8.09,1.28,16.1,3.79,23.4,8.04c5.35,3.12,7.33,8.53,9.59,13.59c4.26,9.54,4.03,9.62,14.03,8.97c11.47-0.75,22.91,0.33,34.35,0.78
		c4.79,0.19,9.49,1.64,13.84,3.89c7.3,3.77,10.46,10.31,12.16,17.91c3.07,13.69,7.28,26.8,16.4,38.03c4.05,4.98,6.69,11.1,9.97,16.7
		c5.79,9.87,11.72,19.67,17.32,29.64c7.97,14.18,16.33,28.17,22.71,43.18c2.08,4.89,3.95,9.87,6.24,14.69
		c3.19,6.7,1.45,9.5-5.76,11.44c-9.48,2.55-18.84,5.52-28.27,8.26c-1.22,0.36-2.1,1.01-2.6,2.13c-4.4,9.9-11.2,18.47-15.62,28.37
		c-3,6.7-6.88,12.92-10.86,19.07c-1.91,2.94-4.37,5.42-7.04,7.72c-5.04,4.35-11.09,2.54-16.67,2.67c-11.37,0.26-9.99-1.2-7.76,8.75
		c1.39,6.2,4.61,11.74,6.19,17.88c2.14,8.35,3.94,16.85,6.91,24.9c3.93,10.67,6.06,21.82,9.68,32.53
		c2.34,6.92,2.62,14.04,2.72,21.11c0.05,3.37-1.53,6.77-4.2,9.74c-5.33,5.94-8.95,13.18-13.43,19.79
		c-4.66,6.88-9.75,13.47-14.61,20.21c-6.61,9.16-13.31,18.26-19.72,27.56c-4.82,6.99-10.29,13.47-15.61,20.04
		c-1.81,2.24-4.75,4.27-8.24,4.01c-2.74-0.2-5.28,0.84-7.77,1.51c-13.45,3.58-27.47,2.79-40.99,5.53
		c-14.69,2.98-29.68,3.6-44.46,6.13c-10.23,1.76-20.78,2.47-31.25,2.95c-5.32,0.24-10.61,0.53-15.88,1.37
		c-2.13,0.34-4.32,0.53-6.47,0.41c-8.01-0.46-15.89,1.08-23.85,1.31c-7.82,0.23-15.64,0.26-23.47,0.27
		c-4.33,0.01-8.63,0.48-12.93,0.65c-6.12,0.23-12.27-0.2-18.4-0.52c-6.13-0.33-12.25-0.36-18.37-0.04
		c-8.15,0.43-16.19,0.21-24.3-1.28c-8.19-1.5-16.59-0.2-24.9-0.39c-3.31-0.08-6.63-0.01-8.95-0.01
		c-6.96,7.94-12.66,15.32-23.66,16.03c-5.1,0.33-9.13,0.52-11.93-4.29c-0.16-0.27-0.47-0.48-0.73-0.67c-5.4-3.89-5.4-3.88-7.41-9.02
		c-4.24-0.16-8.7,0.36-13.09-0.7c-1.91-0.46-3.2,1.21-4.11,3c-3.79,7.5-16.55,9.21-22.29,2.42c-3.89-4.6-12.45-3.18-15.45,2.16
		c-0.57,1.01-0.98,2.12-1.38,3.21c-1.38,3.78-3.45,6.04-8.09,5.71c-5.65-0.4-11.3,0.09-15.65,4.73c-0.82,0.88-2.39,1.42-3.64,1.47
		c-7.84,0.3-14.99-1.46-21.37-6.51c-3.87-3.06-4.83-6.13-3.24-10.73c1.25-3.62-0.18-5.52-3.84-6.82c-6.56-2.33-13.95,1.62-17.1,6.94
		c-2.03,3.45-4.45,5.17-8.09,5.74c-2.8,0.44-5.6,0.96-8.41,1.13c-2.63,0.16-5.17,0.03-7.26-2.34c-1.74-1.98-4.31-3.09-6.76-4.16
		c-4.68-2.05-5.19-2.52-4.6-7.45c0.36-3-0.38-4.97-3.15-5.88c-3.04-1.01-5.89-4.57-9.45-0.95c-0.69,0.7-1.68,1.09-2.42,1.75
		c-3.88,3.41-8.02,3.12-12.22,0.8c-1.79-0.99-3.6-1.51-5.61-1.84c-4.34-0.73-7.62-5.11-6.73-9.51c0.66-3.29-0.3-5.58-2.57-7.53
		c-4.79-4.13-9.72-7.83-16.57-4.24c-2.06,1.08-4.27,0.7-6.25-0.41c-4.8-2.7-9.42-5.65-13.09-9.85c-0.79-0.9-1.55-1.76-1.48-3.04
		c0.05-1.03,0.01-2.12-0.8-2.79c-6.34-5.25-3.59-11.68-2.44-17.93c0.26-1.41,1.2-1.88,2.41-2.14c1.52-0.32,2.74-1.23,3.92-2.13
		c4.33-3.28,4.73-5.51,2.17-10.12c-1.42-2.56-4.29-3.04-6.25-4.75c-2.35-2.04-4.22-1.38-6.74-0.32c-4.19,1.77-8.27,0.13-11.4-3.45
		c-2.66-3.04-4.12-6.84-6.74-9.9c-1.12-1.31-0.6-2.76,0.29-4.14C24.12,735.66,25.35,733.49,26.79,731.09z"/>
</g>
</svg>
