<?xml version="1.0" encoding="utf-8"?>
<!-- Generator: Adobe Illustrator 24.0.2, SVG Export Plug-In . SVG Version: 6.00 Build 0)  -->
<svg version="1.1" id="Layer_1" xmlns="http://www.w3.org/2000/svg" xmlns:xlink="http://www.w3.org/1999/xlink" x="0px" y="0px"
	 width="803.31" height="861.28" viewBox="0 0 803.31 861.28" style="enable-background:new 0 0 803.31 861.28;" xml:space="preserve">
<g>
	<path d="M292.19,814.62c-5.75,8.89-12.31,16.42-18.86,23.93c-3.2,3.67-6.16,8.48-11.95,7.76c-3.88-0.48-7.69-1.99-11.37-3.44
		c-7.12-2.81-13.99-6.13-20.21-10.72c-2.66-1.96-6.25-2.21-9-4.18C205,816.7,187.7,807.59,173.78,793.6
		c-5.46-5.48-11.92-10.17-17.22-15.85c-6.41-6.87-13.16-13.47-18.42-21.46c-4.01-6.09-8.67-11.78-12.41-18.1
		c-5.96-10.08-10.7-20.68-13.96-31.94c-0.37-1.28-0.67-2.6-1.23-3.8c-5.48-11.88-8.06-24.59-9.91-37.37
		c-1.28-8.85-2.97-17.73-2.7-26.77c0.59-19.87,2.91-39.45,9.89-58.23c0.05-0.14-0.04-0.33-0.16-1.1c-5.38-1.76-10.38-4.96-15.4-8.16
		c-7.33-4.67-14.43-9.61-20.5-15.84c-2.54-2.61-5.75-3.62-8.98-3.81c-4.69-0.28-8.7-2.1-12.72-4.08
		c-13.8-6.78-24.41-17.27-33.46-29.41c-3.58-4.79-6.04-10.35-7.83-16.07c-2.63-8.38-5.48-16.72-5.78-25.67
		c-0.11-3.4,0.15-6.61,1.27-9.81c1.48-4.19,2.74-5.02,7.07-3.58c4.42,1.47,8.72,3.28,13.09,4.91c1.52,0.57,3.01,1.44,5.66,0.82
		c-2.88-3.24-5.59-6.06-8.21-8.68c-5.22-5.21-7.68-11.96-11.42-17.96c-4.41-7.09-6.05-15.38-9.21-23.03
		c-1.68-4.06-1.25-8.88-1.02-13.37c0.17-3.34,0.18-6.64-0.07-9.97c-0.15-1.99-0.18-4.11,0.69-5.91c2.42-5.03,2.06-10.69,3.88-15.87
		c2.63-7.47,4.19-15.31,9.99-21.4c4.81-5.06,8.33-4.75,11.01,1.8c1.82,4.44,2.88,9.11,5.33,13.4c4.75,8.35,12.13,12.8,20.96,14.82
		c12.87,2.94,25.46,1.41,37.43-4.33c4.83-2.32,8.91-5.83,13.2-8.94c14.74-10.7,30.07-20.43,47.16-26.81
		c11.11-4.15,22.72-5.88,34.78-4.69c6.27,0.62,12.57,0.81,18.8,2.01c4.58,0.88,8.69,2.43,12.99,4.34c5.9,2.61,11.75,5.24,17.37,8.4
		c2.74,1.54,5.25,0.99,6.94-1.68c5.11-8.04,10.99-15.48,17.27-22.62c2.67-3.03,1.38-5.94-0.68-8.56
		c-4.54-5.78-8.69-11.8-11.75-18.52c-5.05-11.11-7.27-22.7-6.14-34.92c1.17-12.67,3.42-25.06,8.34-36.87
		c4.48-10.76,11.42-19.83,18.92-28.59c3.93-4.59,8.24-8.63,13.43-11.73c1.43-0.85,2.85-1.73,4.32-2.5c3.08-1.61,6.71-2.79,9.35-0.31
		c2.46,2.31,1.41,5.95,0.19,8.91c-3.98,9.65-2.4,19.07,1.74,28.03c4,8.65,10.84,15.12,18.7,20.39c3.59,2.4,7.47,4.36,11.22,6.52
		c1.16,0.67,2.32,1.41,3.73,0.37c0.58-1.8-0.98-2.62-1.84-3.7c-10.66-13.5-19.87-28-25.99-44.02c-7.65-20.02-11.03-40.97-11.14-62.5
		c-0.05-9.16,0.16-18.27,0.93-27.37c1.39-16.43,5.89-31.95,13.88-46.47c10.06-18.28,23.95-33.15,40.58-45.45
		c13.37-9.89,28.71-15.22,45.1-17.67c3.79-0.57,7.55-1.25,11.35-1.76c16.74-2.25,33.53-0.84,49.45,3.71
		c13.03,3.73,25.81,9.75,34.85,21.1c2.79,3.5,6.24,6.48,9.45,9.59c11.9,11.53,17.14,26.23,20.82,41.77c1.99,8.4,2.76,16.9,2.7,25.55
		c-0.04,5.6-1.18,10.91-2.45,16.24c-2.04,8.55-3.29,17.25-7.53,25.26c-5.46,10.32-12.49,19.2-21.51,26.51
		c-11.41,9.24-24.22,15.98-38.51,19.29c-7.92,1.83-16.21,1.49-24.36,1.68c-8.11,0.19-15.83-2.08-23.51-4.18
		c-3.19-0.87-4.97-0.53-6.49,2.39c-1.77,3.4-3.61,6.74-4.81,10.41c-5.09,15.5-7.61,31.39-6.78,47.67c0.25,4.94,1.71,9.83,2.75,14.71
		c0.52,2.42,1.91,3.66,4.62,4.42c9.35,2.65,18.84,1.96,28.28,1.69c12.16-0.36,24.24-2.03,36.13-4.47
		c10.47-2.16,20.06-6.6,29.1-12.52c5.64-3.7,10.45-8.02,15.21-12.72c6.83-6.76,10.01-15.63,14.99-23.43
		c1.69-2.66,2.7-5.66,3.51-8.76c0.98-3.76,2.58-4.47,6.33-3.24c4.5,1.47,8.47,4.08,12.03,7.01c7.1,5.85,13.65,12.73,17.51,20.91
		c5.49,11.65,9.97,23.88,9.1,37.37c-0.35,5.46-0.15,10.94-0.86,16.42c-2.13,16.43-9.66,30.15-20.18,42.64
		c-4.41,5.23-9.26,9.93-14.87,14.22c4.78,8.9,8.12,17.92,11.43,26.94c0.7,1.91,1.84,2.56,3.84,2.07c3.23-0.78,6.49-1.33,9.83-1.63
		c14.36-1.28,28.45-0.31,42.39,3.55c10.26,2.85,20.44,5.97,30.27,10c11.56,4.74,23.44,8.59,35.05,13.14
		c6.81,2.67,13.63,5.29,20.64,7.37c16.74,4.98,33.61,5.97,50.54,1.03c9.93-2.9,17.55-9.07,24-17.04c5.31-6.55,9.5-13.64,11.97-21.68
		c1.3-4.24,6.09-4.04,10.57-1.75c4.16,2.13,7.25,5.73,10.12,9.49c5.48,7.17,8.42,15.46,10.96,23.92c2.33,7.76,2.9,15.88,4.33,23.82
		c0.31,1.7,0.49,3.43-0.82,4.71c-1.12,1.11-0.96,2.22-0.95,3.6c0.01,2.47-0.13,5.05-0.81,7.41c-1.85,6.45-2.28,13.04-2.76,19.67
		c-0.3,4.18-1.8,8.26-3.58,11.88c-5.86,11.89-10.11,24.7-18.45,35.25c-6.11,7.72-13.11,14.56-21.35,20.12
		c-3.58,2.41-6.96,5.11-10.78,7.16c-1.86,1-2.78,2.86-3.71,4.61c-6.73,12.62-15.72,23.29-26.35,32.91
		c-11.79,10.66-25.41,18.02-39.68,24.45c-2.69,1.21-5.72,1.96-8.66,2.29c-5.97,0.67-11.5,3.32-17.56,3.52
		c-2.26,0.07-3.07,1.36-2.69,3.73c2.27,14.32,3.58,28.73,1.81,43.18c-1.17,9.52-2.02,19.04-4.55,28.47
		c-2.71,10.1-5.05,20.33-8.21,30.32c-5.37,16.97-12.51,32.97-22.38,48.04c-6.87,10.48-14.26,20.49-22.11,30.12
		c-9.02,11.05-18.69,21.64-30.29,30.24c-11.47,8.51-22.89,17.17-35.42,24c-15.45,8.42-31.01,17.02-48.58,20.37
		c-12.69,2.42-25.36,5.22-38.55,2.85c-4.98-0.9-8.32-3.14-10.72-7.14c-4.96-8.28-9.66-16.74-12.63-25.95
		c-1.04-3.22-2.44-4.12-5.66-3.86c-14.56,1.18-29.17,2.09-43.77,1.89c-15.99-0.23-31.95-1.69-47.67-4.57
		C308.25,819.28,300.26,817.49,292.19,814.62z"/>
</g>
</svg>
