<?xml version="1.0" encoding="utf-8"?>
<!-- Generator: Adobe Illustrator 24.0.2, SVG Export Plug-In . SVG Version: 6.00 Build 0)  -->
<svg version="1.1" id="Layer_1" xmlns="http://www.w3.org/2000/svg" xmlns:xlink="http://www.w3.org/1999/xlink" x="0px" y="0px"
	 viewBox="0 0 759.27 593.39" style="enable-background:new 0 0 759.27 593.39;" xml:space="preserve">
<g>
	<path d="M177.68,541.02c-3.21,1.34-5.68,3.91-8.36,6.05c-3.94,3.14-8.35,5.48-12.55,8.16c-2.89,1.84-4.63,1.21-6.56-1.74
		c-2.95-4.51-1.93-9.24-0.83-13.95c0.25-1.06,1.39-1.94,0.38-3.29c-1.65-0.91-3.18,0-4.54,0.83c-3.93,2.39-8.48,2.87-12.73,4.26
		c-2.74,0.9-4.12-1.21-4.39-3.44c-0.42-3.46-0.28-6.89,1.48-10.19c4.54-8.53,11.21-15.17,18.06-21.79
		c6.06-5.85,12.98-10.32,20.21-14.45c3.49-2,7.1-1.55,10.66-0.6c7.26,1.93,14.59,3.24,22.1,3.6c4.13,0.2,6.28-0.3,9.66-2.81
		c0.19-1.93-1.42-2.49-2.62-3.29c-13.77-9.11-26.77-19.17-37.96-31.38c-7.8-8.52-13.72-18.34-19.24-28.45
		c-2.86-5.24-5.38-10.58-7.74-16.07c-4.1-9.52-6.58-19.44-9.24-29.39c-1.83-6.82-2.19-14.08-5.25-20.93
		c-3.14,0.89-5.95,1.75-8.8,2.47c-3.95,1-6.97,0.55-10.01-3.15c-2.45-2.98-5.26-7.32-10.62-5.96c-0.62,0.16-1.2,0.5-1.54,0.65
		c-0.96,1.2-0.48,2.15-0.13,3.06c2.54,6.61,2.67,13.29,0.81,20.1c-0.96,3.51-2.46,4.51-6.03,3.24c-3.97-1.41-6.77-4.56-8.8-7.87
		c-3.28-5.34-6.15-10.99-7.72-17.21c-1.51-5.98-0.12-10.8,4.69-14.69c1.4-1.13,2.97-2.14,4.07-4.08c-3.8-4.35-4.39-9.71-3.99-15.29
		c0.65-8.97,8.02-14.32,16.77-12.02c6.09,1.61,12.33,2.91,17.73,6.93c2.17-2.38,4.57-4.24,6.28-7.57c-4.48-0.4-8.24-0.2-11.96-0.52
		c-6.57-0.56-12.19-3.35-17.7-6.35c-11.15-6.09-19.62-15-26.86-25.45c-8.93-12.89-14.77-27.16-16.34-42.36
		c-1.54-14.95-0.55-30.28,6.57-44.29c0.96-1.9,2.26-3.63,3.7-5.89c-8.66-5.93-17.72-11.25-23.67-20.33
		c3.63-4.76,8.37-3.3,12.84-2.58c5.51,0.89,10.88,2.44,16.21,4.51c-2.07-4.03-5.86-6.15-8.77-9.11
		c-13.16-13.43-27.29-25.92-39.12-40.64c-5.19-6.46-10.01-13.2-15.01-19.79c-0.78-1.02-1.15-2.17-0.4-3.22
		c1.03-1.44,2.64-2.19,4.35-1.8c2.42,0.55,4.77,1.35,7.07,2.41c12.66,5.82,23.8,13.93,34.64,22.53
		c11.21,8.89,22.19,18.06,32.73,27.73c2.94,2.69,5.58,5.7,8.29,8.64c1.16,1.26,2.27,2.56,4.14,2.39c6.6-0.59,13.19-1.39,19.99-0.34
		c1.64-6.05,4.54-11.12,5.86-16.98c-3.34-4.01-7.8-7.08-11.07-11.61c2.7-2.92,5.94-4.84,8.8-7c-0.34-2.33-2.22-3.13-3.36-4.5
		c-8.88-10.69-15.95-22.45-20.73-35.52c-1.78-4.86-0.75-6.91,4.17-8.66c3.45-1.23,6.94-2.29,10.6-2.81
		c6.36-0.91,6.37-1.29,4.94-7.33c-2.48-10.53-4.42-21.17-4.78-32.01c-0.18-5.32-1.13-10.6-0.78-15.95c0.19-2.91,0.57-5.6,3.11-7.49
		c32.22,11.97,51.95,36.4,66.79,66.33c6.38-4.2,13.08-7.45,19.69-10.88c3.64-1.89,5.77-5.91,8.29-9.2
		c8.62-11.24,19.43-20,31.14-27.75c1.1-0.73,2.39-1.17,3.57-1.78c1.33-0.69,2.52-0.6,3.69,0.39c1.25,1.06,1.01,2.23,0.62,3.61
		c-1.31,4.62-1.79,9.49-4.34,13.73c-0.33,0.55-0.32,1.29,0.4,2.09c3.79-2,6.57-5.35,9.66-8.2c9.89-9.12,21.69-15.39,32.84-22.64
		c2.65-1.72,5.4-3.29,8.16-4.83c1.3-0.72,2.67-1.42,4.1-1.76c3.2-0.75,4.29,0.41,3.8,3.59c-1.15,7.41-3.06,14.61-5.62,21.66
		c-1.16,3.21-2.48,6.47-2.29,10.26c2.84,0.4,4.78-0.91,6.67-2.13c13.39-8.64,28.49-12.59,43.8-15.93c2.02-0.44,3.97-0.13,6.15,1.53
		c-2.79,7.63-7,14.62-12.45,22.14c9-1.65,16.18-7.61,24.98-5.65c0.99,5.4-2.82,8.62-4.47,12.49c2.02,1.67,3.02-0.01,4-0.89
		c8.1-7.22,16.57-13.96,26.16-19.09c11.97-6.4,23.3-13.93,36.37-18.37c6.84-2.32,13.47-5.63,20.29-8.17
		c5.71-2.12,11.93-2.91,17.94-4.2c6.19-1.33,12.43-2.3,18.76-2.72c2.2-0.15,4.42-0.09,6.26,1.2c2.15,1.5,2.78,3.66,1.8,6.16
		c-4.25,10.84-8.82,21.52-15.06,31.4c-2.83,4.48-5.65,8.96-8.43,13.46c-1.74,2.81-1.34,5.11,1.42,5.39
		c5.73,0.57,10.22,3.96,15.22,6.05c5.77,2.42,11.15,5.9,16.46,9.28c4.02,2.55,3.73,2.76,1.29,7.17
		c-6.23,11.2-14.61,20.56-24.27,28.85c-2.27,1.95-4.55,3.91-6.75,5.94c-2.82,2.6-2.59,4.39,0.98,5.68
		c4.79,1.73,8.75,4.77,12.84,7.61c3.06,2.12,3.28,4.49,0.56,7.01c-3.12,2.89-6.54,5.44-9.69,9.16c4.52,0,9.03,0.01,13.55,0
		c6.34-0.02,12.68,0.24,18.81,2.01c4.15,1.2,4.27,2.16,2.49,6.01c-2.62,5.67-6.7,10.21-10.88,15.16c6.61,0.07,12.77,1.82,19.06,2.72
		c7.26,1.04,14.43,2.54,21.39,4.83c5.08,1.67,5.28,3.37,1.53,7.28c-5.59,5.82-12.31,10.1-19.1,14.28c-1.12,0.69-2.35,1.24-3.46,2.91
		c14.09,8.17,28.2,16.39,38.55,29.12c-1.11,2.41-2.95,2.45-4.43,3.01c-1.39,0.52-3.01,0.02-4.96,1.33
		c4.81,4.14,11.28,5.84,15.09,10.97c-0.86,2.9-4.69,1.99-5.62,4.57c18.47,9.47,36.82,24.48,39.54,32.47
		c-5.65,4.68-13.11,2.31-19.34,4.79c-0.2,1.4,0.79,2.23,1.71,2.82c8.37,5.42,14.02,13.63,20.97,20.5c3.18,3.14,2.45,5.44-1.89,6.86
		c-4.42,1.45-8.91,2.73-13.51,2.98c-0.45,2.48,3.56,17.99,6.32,24.68c3.8-0.67,5.57-4.47,8.78-5.95c3.04-1.4,5.63-4.34,9.5-3.04
		c1.64,6.77,0.99,9.35-6.23,24.96c2.1,0.92,3.93-0.22,5.69-0.92c6.85-2.72,14.04-2.69,21.18-2.69c5.08,0,6.09,1.45,3.93,6.17
		c-3.71,8.1-6.96,16.55-13.5,23.03c-0.58,0.58-1.08,1.27-0.83,2.31c0.95,1.28,2.37,0.67,3.61,0.67c11.36,0.02,21.98-3.36,32.29-7.63
		c12.33-5.12,23.95-11.57,33.86-20.68c7.43-6.82,12.89-15.05,17.52-24.05c7.02-13.64,10.78-28.23,13.39-43.12
		c1.57-8.94,2.56-18.12,1.69-27.21c-0.55-5.75-2.59-11.34-3.66-17.05c-2.22-11.91-7.47-22.68-13.14-33.1
		c-4.75-8.73-11.05-16.49-18.7-23.19c-9.32-8.15-19.43-15.05-29.92-21.5c-3.85-2.36-8.52-2.65-12.33-5.12
		c-2.1-1.36-4.31-2.56-6.09-4.34c-2.28-2.29-2.1-4.8,0.89-5.93c4.47-1.69,9.25-2.74,13.95-0.89c2.84,1.11,5.63,1.93,8.69,1.91
		c5.3-0.03,10.03,2.33,14.86,4c9.11,3.15,18.09,6.73,25.73,12.81c12.35,9.85,24.9,19.5,33.02,33.57c4.65,8.05,10.31,15.47,14.24,24
		c6.52,14.15,10.72,28.87,12.13,44.39c0.31,3.45,0.82,6.79,2.19,10.11c1.77,4.28,0.77,9.08-0.27,13.3
		c-1.75,7.13-2.13,14.42-3.4,21.59c-3.1,17.49-8.96,33.88-17.15,49.65c-7.74,14.91-19.07,26.83-30.72,38.41
		c-6.18,6.14-13.77,10.9-20.98,15.93c-12.86,8.98-26.97,15.77-41.53,21.37c-9.57,3.68-19.56,6.54-29.91,7.39
		c-3.94,0.32-7.54,2.25-12.98,1.59c4.47,5.32,6.39,10.58,8.49,15.76c1.75,4.32,1.13,5.57-3.62,5.13c-7.99-0.73-15.8-2.62-23.03-6.09
		c-4.51-2.16-7.78-1.71-11.6,1.63c-5.11,4.47-10.83,8.26-16.81,11.57c-1.3,0.72-2.7,1.35-3.27,2.93c-0.06,1.51,1.04,2.37,1.93,3.32
		c6.06,6.38,9.07,14.25,10.88,22.64c1.95,9.04-6.06,19.22-15.28,19.61c-0.5,0.02-1,0.02-1.5,0c-20.18-0.65-39.81,2.75-58.88,9.01
		c-13.62,4.47-24.37,12.89-32.25,25.22c-5.74,8.99-10.83,18.43-17.52,26.81c-1.39,1.74-4.34,1.77-4.74,0.62
		c-1.27-3.64-5-5.12-6.35-8.68c-3.2-8.47-2.98-16.85-0.6-25.38c0.7-2.49,1.88-4.96,0.62-8.16c-4.23,2.25-7.3,5.59-10.43,8.61
		c-6.2,5.97-12.02,12.36-16.89,19.52c-1.42,2.08-3.34,3.7-5.32,5.24c-3.55,2.76-4.9,2.55-7.83-0.97c-4.08-4.9-5.62-10.47-4.73-16.76
		c0.39-2.8,0.71-5.62,1-8.44c0.14-1.35,0.05-2.67-1.32-3.5c-1.53-0.93-2.39,0.2-3.51,0.92c-6.77,4.4-12.4,9.88-17.14,16.47
		c-3.54,4.92-5.54,4.53-8.65-0.81c-3.93-6.76-6.11-14.05-3.05-21.46c2.58-6.24,5.99-12.29,11.32-16.86c2.73-2.34,5.47-4.66,9.16-7.8
		c-5.37,0-9.57-0.15-13.76,0.03c-11.62,0.5-23.23-0.18-34.84-0.45c-1.98-0.05-3.94-0.71-5.91-0.72c-3.96-0.02-7.89-0.07-11.7,1.6
		c-5.4,2.37-11.31,2.44-17.08,3.09c-19.21,2.15-38.58,1.07-57.8,3c-5.16,0.52-9.32,2.71-13.12,6.32
		c-7.29,6.92-12.96,15.18-19.59,22.63c-2.77,3.11-5.89,5.89-9.28,8.28c-3.62,2.55-5.81,1.44-7.24-2.9
		c-2.2-6.65-2.34-13.4-1.45-20.24C178.9,543.68,179.3,542.24,177.68,541.02z"/>
</g>
</svg>
