<?xml version="1.0" encoding="utf-8"?>
<!-- Generator: Adobe Illustrator 24.0.2, SVG Export Plug-In . SVG Version: 6.00 Build 0)  -->
<svg version="1.1" id="Layer_1" xmlns="http://www.w3.org/2000/svg" xmlns:xlink="http://www.w3.org/1999/xlink" x="0px" y="0px"
	 viewBox="0 0 755.41 558.12" style="enable-background:new 0 0 755.41 558.12;" xml:space="preserve">
<g>
	<path d="M413.61,487.86c-8.91,2.85-16.06,7.22-22.07,13.45c-1.34,1.39-2.48,3.28-5,1.89c-2.35-1.3-2.59-3.22-2.1-5.54
		c0.71-3.41,1.98-6.63,3.92-10.69c-4.89,0.85-8.62,2.31-12.2,4.19c-1.71,0.9-3.19,2.69-5.33,0.85c-2.03-1.75-1.04-3.6-0.19-5.42
		c5.51-11.88,13.84-21.05,25.76-26.77c3.51-1.69,7.21-2.3,11.1-2.55c6.79-0.45,13.37-1.99,19.77-5.3
		c-9.58-5.3-20.62-6.78-30.23-12.05c-5.53,4.32-9.95,9.8-14.95,14.65c-6.12,5.93-12.89,11.05-19.22,16.7
		c-15,13.35-31.17,25.37-45.58,39.39c-9.3,9.04-14.35,20.31-15.25,33.26c-0.17,2.4,0.79,4.91,1.39,7.33
		c0.64,2.56-0.05,4.78-2.12,6.11c-2.02,1.3-3.7-0.25-5.32-1.54c-7.25-5.77-11.8-13-12.44-22.43c-0.04-0.63-0.2-1.31-0.52-1.84
		c-0.22-0.37-0.8-0.53-1.47-0.94c-8.26,7.33-10.85,18.67-18.47,27.53c-8.94-10.66-9.95-22.08-8.03-34.1
		c-1.34-0.81-1.97,0.17-2.64,0.81c-3.87,3.69-8.25,6.73-12.58,9.83c-1.22,0.88-2.36,1.93-4.02,0.9c-1.59-0.98-2.22-2.43-2.16-4.22
		c0.23-6.64,2.46-12.68,5.67-18.41c3.8-6.79,10.11-10.51,16.92-13.38c4.75-2,9.45-4.11,13.85-6.71c4.12-2.43,6.29-6.84,8.2-11.03
		c7.64-16.82,15.78-33.39,24.77-49.53c2.51-4.5,5.55-8.69,8.39-13c0.62-0.94,1.71-1.63,1.45-3.02c-1.23-0.96-2.21-0.07-3.12,0.54
		c-5.66,3.8-11.69,7-17.17,11.11c-9.17,6.89-19.27,12.3-29.32,17.81c-5.09,2.79-10.09,5.77-15.22,8.51
		c-8.21,4.4-16.53,8.52-25.76,10.44c-6.77,1.41-13.57,1.45-20.23-0.1c-9.21-2.15-15.27-9.38-15.08-19.54
		c0.07-3.59,1.12-7.03,0-10.83c-0.94-3.19-0.19-6.89-0.19-9.95c-1.96-1.69-3.72-1.37-5.26-1.03c-9.43,2.05-19.13,2.19-28.59,3.91
		c-10.96,1.99-21.9,4.1-32.77,6.48c-11.37,2.49-22.97,3.89-34.12,7.45c-13.05,4.17-25.52,9.48-36.89,17.23
		c-2.89,1.97-6.2,4.66-9.56,2.67c-3.36-1.98-1.32-6.01-1.12-9.11c-1.87-1.52-3.23-0.37-4.62,0.48c-5.68,3.45-11.33,6.95-17.05,10.32
		c-1.34,0.79-2.73,2.18-4.56,0.96c-2.14-1.43-0.84-3.31-0.56-4.99c1.7-10.05,6.4-18.45,14.01-25.23c0.73-0.65,1.61-1.21,1.72-2.56
		c-1.1-1.29-2.75-1.41-4.36-1.47c-6.04-0.24-11.77-2.18-17.69-3.14c-1.27-0.2-2.52-0.89-3.65-1.55c-2.05-1.2-2.4-2.86-0.42-4.34
		c7.43-5.54,15.63-9.37,24.8-11.09c9.56-1.79,19.16-2.61,28.8-0.9c2.47,0.44,3.81-0.92,5.19-2.26
		c13.94-13.47,30.91-22.43,47.54-31.86c5.35-3.03,5.15-2.69,2.42-8.54c-2.94-6.31-6.39-12.46-7.92-19.35
		c-0.42-1.88-1.17-3.34-2.7-4.57c-3.88-3.14-7.59-6.47-11.47-10.63c-3.07,4.11-6.72,7.25-10.94,9.89
		c-14.24,8.92-29.57,13.53-46.41,12.56c-2.67-0.15-5.33,0.17-7.97-0.07c-5.38-0.5-7.16-3.38-5.19-8.39
		c2.93-7.47,8.37-13.15,13.81-18.73c12.16-12.47,27.12-18.95,44.3-19.99c1.51-1.38,0.79-2.94,0.78-4.36
		c-0.02-9.68,4.47-16.34,13.33-20.28c9.26-4.12,18.41-8.48,27.64-12.68c2.71-1.23,5.02-3.05,5.96-5.76
		c2.3-6.63,6.7-11.87,10.96-17.14c4.31-5.32,7.55-11.39,12.2-16.43c1.18-1.28,1.14-2.53,0.26-4.06
		c-7.35-12.78-9.09-26.96-10.15-41.29c-0.07-0.99,0.19-2.05-0.06-2.99c-2.86-10.8-2.18-21.87-1.83-32.79
		c0.24-7.59-2.02-14.31-4.15-21.25c-2.67-8.72-2.61-17.75-2.62-26.73c0-4.87,1.84-5.75,6.41-4.02c4.07,1.55,6.62,4.95,9.73,7.66
		c0.86,0.75,1.4,1.91,2.88,2c2.26-0.93,1.6-3.35,2.29-5.07c6.02-14.85,14.87-27.84,25.81-39.46c0.91-0.97,1.91-1.87,2.97-2.68
		c4.94-3.82,10.27-1.69,10.76,4.6c1.04,13.3,0.53,26.58-1.48,39.78c-0.52,3.44-0.73,6.91-1.78,10.29c-0.7,2.24,0.25,4.26,1.61,6.44
		c9.91,15.94,20.55,31.51,26.67,49.49c0.37,1.1,0.83,2.17,2.04,3.25c3.16-0.89,6.47-1.92,9.83-2.75
		c14.76-3.65,29.65-6.21,44.95-4.95c11.65,0.96,22.41,4.63,32.33,10.76c3.68,2.27,7.3,4.63,10.9,6.93c2.03-0.54,2.96-2.25,4.1-3.6
		c10.52-12.42,22.75-22.89,36.23-31.94c7.37-4.95,15.66-8.05,23.8-11.4c2.5-1.02,3.94-2.44,5.07-4.96
		c7.42-16.52,16.84-31.74,30.04-44.36c1.63-1.55,3.21-4.06,5.78-3.2c2.68,0.9,3.55,3.51,4.24,6.29c1.96,7.9,1.22,15.93,1.34,23.88
		c0.13,8.3-0.31,16.63-1.61,24.89c-0.86,5.49,1.3,7.5,7.09,6.76c5.79-0.74,11.55-1.87,17.4-1.5c6.62,0.42,13.31,0.81,19.43,3.8
		c5.32,2.6,5.77,4.77,1.5,8.94c-8.13,7.93-17.24,14.61-27.25,20.2c9.7,35.75,9.51,70.56-8.73,103.78c2.23,1.15,3.62-0.14,5.08-0.68
		c9.19-3.44,17.8-8.3,27.22-11.17c9.84-3,19.72-5.32,30.09-6.46c9.82-1.08,19.48-1.6,29.29-1.11c3.55,0.18,6.87,1.13,10.24,2
		c18.64,4.8,35.84,12.31,49.05,26.92c3.54,3.91,6.02,8.71,9.67,12.62c1.92,2.06,3.81,3.41,6.73,3.68c12.04,1.12,23.85,0.02,35.76-2
		c11.45-1.94,21.67-6.55,31.23-12.6c7.01-4.44,13.62-9.75,18.45-16.63c4.96-7.06,10.21-14.03,13.64-22
		c7.4-17.21,10.77-35.09,9.29-53.96c-1.01-12.77-1.52-25.57-4.24-38.14c-1.6-7.37-5.52-13.81-8.56-20.59
		c-3.35-7.48-9.01-13.11-15.58-17.83c-3.44-2.48-4.31-2.03-6.56,1.37c-7.11,10.73-16.68,17.8-29.75,19.67
		c-9.93,1.42-19.58,0.24-28.97-2.88c-6.44-2.14-11.74-6.44-16.36-11.21c-6.32-6.52-10.32-14.39-12.38-23.43
		c-2.83-12.37,1.14-22.84,7.67-32.86c0.26-0.39,0.33-0.91,0.51-1.45c-1.55-2.39-4.1-1.84-6.29-2.18
		c-10.73-1.67-21.15-4.34-30.77-9.57c-0.87-0.48-1.71-1.02-2.54-1.57c-2.57-1.69-2.48-3.69-0.59-5.83c1.55-1.75,3.17-3.45,5.17-4.68
		c9.87-6.06,20.54-10.06,31.8-12.71c8.98-2.12,18.08-2.22,27.42-2.09c0.18-3.68-1.56-6.45-2.28-9.39
		c-1.47-6.05-1.91-12.17-2.27-18.31c-0.27-4.55,3.38-6.69,7.46-4.6c5.61,2.87,9.75,7.48,13.95,11.95
		c6.04,6.43,11.54,13.33,16.53,20.61c1.42,2.07,3.24,3.19,5.63,3.77c19.65,4.77,35.75,15.65,50.49,29.03
		c8.54,7.75,16.44,15.91,22.56,25.81c3.88,6.27,6.83,12.92,9.6,19.66c3.79,9.2,7.94,18.29,10.33,28.03
		c0.64,2.59,1.37,5.07,1.41,7.79c0.06,3.15,0.38,6.34,2.3,9.08c0.7,0.99,0.86,2.15,0.93,3.32c1.01,16.61,1.7,33.12-1.99,49.63
		c-4.04,18.09-9.93,35.26-18.36,51.89c-6.61,13.06-15.22,24.17-25.68,33.9c-10.19,9.48-20.16,19.56-33.24,25.2
		c-11.43,4.93-22.97,9.56-35.58,11.02c-9.59,1.11-19.18,0.64-29.02,0.91c-0.7,3.4,1.24,6.18,1.99,9.04
		c3.37,12.86,6.25,25.83,9.46,38.72c3.31,13.29,10.71,24.29,21.14,33.16c7.24,6.16,13.98,12.82,20.73,19.5
		c4.57,4.53,5.43,9.74,4.7,15.56c-1.95,15.51-4.1,30.99-5.99,46.5c-0.75,6.2-3.09,10.92-8.89,14.02c-5.14,2.74-9.8,6.38-13.58,10.89
		c-4.28,5.1-8.32,10.4-12.47,15.6c-4.09,5.14-6.6,11.06-9.02,17.12c-2.44,6.11-4.71,6.29-8.22,0.61c-3.9-6.3-6.19-13.22-4.6-20.86
		c0.33-1.57,1.38-3.12-0.18-5.1c-8.41,3.84-15.33,9.5-20.51,17.27c-2.22,3.32-4.23,6.76-6.03,10.34c-2.23,4.42-3.82,4.43-6.37,0.06
		c-4.09-7.01-7.17-14.26-5.45-22.74c0.67-3.29-0.77-4.36-3.94-3.01c-5.88,2.5-11.18,5.84-15.16,11.03c-1.67,2.18-3.36,5.2-6.75,3.91
		c-3.17-1.21-4.12-4.45-3.98-7.5c0.47-10.54,2.4-20.53,11.85-27.26c3.25-2.31,6.29-4.93,9.44-7.39c5.04-3.93,11.24-4.87,17.16-6.36
		c4.01-1.01,6.91-3.2,9.21-6.36c2.24-3.1,4.45-6.25,6.38-9.54c3.24-5.54,2.54-7.5-3.31-9.84c-7.11-2.84-14.35-5.35-21.29-8.6
		c-3.46-1.62-7.07-2.98-10.37-4.87c-2.86-1.64-5.52-1.7-8.59-0.88c-15.35,4.12-31.05,5.77-46.9,5.94c-2.18,0.02-3.45,1.03-4.52,2.55
		c-5.15,7.3-12.55,11.25-20.72,14.04c-11.45,3.91-23.16,7.13-33.81,13.09c-7.05,3.94-13.21,8.95-18.1,15.44
		c-0.8,1.06-1.59,2.15-2.52,3.09c-4.13,4.16-6.75,3.57-8.37-2.01c-1.65-5.67-2.6-11.4-0.05-17.12
		C413.35,489.87,413.35,489.19,413.61,487.86z"/>
</g>
</svg>
