<?xml version="1.0" encoding="utf-8"?>
<!-- Generator: Adobe Illustrator 24.0.2, SVG Export Plug-In . SVG Version: 6.00 Build 0)  -->
<svg version="1.1" id="Layer_1" xmlns="http://www.w3.org/2000/svg" xmlns:xlink="http://www.w3.org/1999/xlink" x="0px" y="0px"
	 viewBox="0 0 861.07 781.66" style="enable-background:new 0 0 861.07 781.66;" xml:space="preserve">
<g>
	<path d="M91.26,445.3c0.49-6.72,3.25-11.63,9.39-14.82c6.19-3.22,12.58-5.97,18.92-8.83c2.71-1.22,3.96-3.02,4.72-5.84
		c2.82-10.43,6.05-20.75,9.93-30.85c0.3-0.77,0.69-1.52,0.21-3.05c-4.98,1.49-10.24,1.46-15.46,2.09c-6.08,0.74-12.2,1.84-18.28-0.2
		c-0.74-0.25-1.63-0.1-2.45-0.05c-7.55,0.47-10.89-1.55-14.02-8.4c-1.39-3.05-2.52-6.12-2.86-9.51c-0.45-4.45-0.22-8.44,3.23-12
		c2.26-2.34,3.65-5.53,5.43-8.34c1.56-2.46,0.78-4.7-0.43-7.05c-3.91-7.6-3.85-7.66,4.64-10.28c0.61-0.19,1.19-0.47,1.87-0.74
		c0.93-4.85-3.31-8.45-2.77-13.32c2.28-1.93,5.47-1.55,8.29-2.18c6.19-1.38,9.98-5.62,10.45-12.3c-0.3-0.02-0.74-0.18-0.87-0.05
		c-4.99,5.27-4.99,5.27-11.78,2.2c-1.5-0.68-2.99-1.36-4.63-2.11c-1.8,2.13-3.52,4.16-5.23,6.19c-1.7,2-3.55,2.91-6.05,1.15
		c-1.35-0.95-3.07-1.41-4.35-2.42c-3.08-2.44-6.58-3.22-10.32-2.74c-6.75,0.86-13.48,1.81-19.74,4.84
		c-2.24,1.09-2.47,2.76-2.72,4.83c-0.35,3.01,0.92,6.36-1.72,9.09c-3.04-0.54-4.97-2.6-6.97-4.59c-3.67-3.65-4.34-3.68-9.12-1.26
		c-3.26,1.66-6.57,3.24-9.91,4.73c-2.49,1.11-3.99,0.27-4.82-2.44c-2.14-7.02-2.82-14.35-4.71-21.44
		c-1.02-3.84,0.99-7.54,3.52-10.57c4.27-5.11,8.65-10.13,13-15.16c11.54-13.33,19.78-28.73,27.86-44.24
		c3.46-6.64,6.98-13.24,10.35-19.93c2.01-3.99,4.97-5.23,9.37-4.64c8.05,1.08,15.98,2.83,24.27,2.65c9.54-0.21,17.23-4.33,24.8-9.23
		c2.64-1.71,2.34-4.41,1.53-6.75c-6.09-17.6-11.03-35.57-16.94-53.23c-4.43-13.24-8.24-26.71-12.92-39.87
		c-6.02-16.93-11.11-34.14-16.53-51.25c-3.36-10.62-6.73-21.23-10.73-31.63c-0.72-1.86-0.14-3.12,1.21-4.41
		c1.99-1.92,4.48-2.93,6.96-3.79c2.08-0.72,2.49-4.78,5.23-3.13c1.77,1.06,2.8,3.46,3.97,5.38c8.68,14.22,18.55,27.64,27.83,41.46
		c10.67,15.9,21.32,31.81,32.65,47.26c4.04,5.5,7.91,11.12,11.88,16.68c2.01,2.81,0.9,5.66-0.56,7.96
		c-5.32,8.33-7.96,17.54-9.4,27.14c-1.04,6.94-1.11,13.92,0.86,20.79c1.23,4.3,1.6,8.81,3.67,12.9c1.27,2.52,3.03,3.6,5.62,2.5
		c4.9-2.07,10.13-2.17,15.22-2.32c19.11-0.53,37.91,1.28,55.62,9.25c4.17,1.88,7.63,1.4,11.67-1c9.9-5.89,18.6-13.46,28.34-19.55
		c21.71-13.58,42.26-28.9,63.77-42.77c21.12-13.62,42.37-27.05,64.14-39.61c14.13-8.14,27.24-17.92,41.69-25.54
		c2.96-1.56,5.77-2.38,9.02-2.1c3.48,0.29,6.99,0.42,10.46,0.78c3.73,0.39,4.61,2.43,2.32,5.32c-6.7,8.48-13.71,16.74-20.4,25.22
		c-7.73,9.79-15.87,19.28-23.1,29.49c-3.64,5.15-8.05,9.74-11.9,14.75c-9.95,12.94-20.56,25.33-31.54,37.41
		c-1.11,1.22-2.33,1.55-3.92,1.71c-8.6,0.88-17.18,1.97-25.78,2.9c-14.34,1.54-27.21,7.22-39.75,13.89
		c-8.65,4.6-17.13,9.5-25.21,15.06c-1.06,0.73-2.3,1.33-3.36,3.38c11.33,6.07,23.62,9.65,34.8,15.63
		c11.31,6.04,22.56,12.1,33.18,19.31c10.59,7.19,21.43,14.02,32.27,20.84c10.86,6.82,20.08,15.77,29.38,24.14
		c2.6-0.7,3.04-2.64,3.98-4.14c3.62-5.77,6.99-11.72,10.97-17.23c3.58-4.96,7.2-4.35,9.36,1.39c2.47,6.57,3.02,13.61,4.34,20.46
		c0.54,2.77,0.99,5.6,1.04,8.42c0.19,10.35,6.82,17.72,11.65,25.94c1.19,2.02,3.09,2.33,5.15,2.4c20.97,0.66,41.8,3.82,62.85,3.11
		c4.43-0.15,8.91,0.85,13.41,1.01c4.51,0.16,6.53,2.58,6.88,7.58c0.59,8.48,0.47,16.96,0.3,25.46c-0.31,15.32-0.1,30.65-0.96,45.96
		c-0.25,4.5,2.56,8.16,6.21,9.5c12.23,4.49,23.15,11.51,34.83,17.04c15.54,7.36,29.56,17.28,43.83,26.78
		c22.81,15.19,43.24,33.32,63.47,51.64c10.61,9.6,21.81,18.59,31.47,29.22c1.23,1.35,2.58,2.62,3.67,4.07
		c2.2,2.91,4.94,4.88,8.56,5.5c2.24,0.39,4.38,1.37,5.47,3.2c4.86,8.19,12.72,12.04,20.91,15.99c8.51,4.11,16.3,9.69,23.81,15.44
		c10.84,8.31,22.52,15.43,33.23,23.9c15.29,12.08,30.53,24.22,45.75,36.38c1.94,1.55,3.63,3.43,5.49,5.09
		c1.16,1.04,2.29,2.05,1.71,3.79c-0.63,1.89-2.28,2.46-3.98,2.44c-5.22-0.06-10.15,1.59-15.2,2.49
		c-11.13,1.98-22.22,4.21-33.33,6.31c-1.33,0.25-2.63,0.46-3.81,1.86c1.86,4.71,3.74,9.61,5.74,14.46
		c2.73,6.64,4.74,13.49,6.06,20.54c0.15,0.82,0.32,1.65,0.3,2.47c-0.03,1.31,0.08,2.82-1.51,3.37c-1.34,0.46-2.1-0.58-2.93-1.42
		c-5.04-5.12-8.79-11.25-13.19-16.86c-1.95-2.48-3.69-5.13-5.61-7.63c-1.63-2.12-3.37-2.52-5.3-0.21
		c-3.21,3.83-6.67,7.45-9.72,11.39c-4.09,5.3-9.11,9.71-13.52,14.69c-0.63,0.72-1.39,1.46-2.7,1.49c-2.81-1.18-4.61-3.6-5.75-6.39
		c-3.89-9.55-7.83-19.06-11.3-28.78c-2.9-8.13-6.74-15.92-9.91-23.97c-7.01-17.78-13.92-35.59-20.72-53.45
		c-1.64-4.31-5.02-6.68-8.78-8.37c-5.21-2.35-8.57-6.21-10.71-11.25c-1.09-2.57-2.77-4.48-4.87-6.18
		c-15.55-12.54-31.32-24.77-47.73-36.16c-16.41-11.38-32.53-23.2-49.13-34.29c-9.67-6.46-20.22-11.49-30.69-16.61
		c-9.55-4.67-19.63-7.93-29.57-11.55c-2.63-0.96-5.52-1.22-8.28-1.84c-1.69-0.38-2.89,0.49-4.03,1.5c-4.88,4.29-9.74,8.59-14.6,12.9
		c-1.46,1.3-2.31,2.69-1.46,4.82c0.8,2,0.4,4.26,1.22,6.34c3.9,9.81,2.18,14.4-6.85,19.87c-11.12,6.73-22.77,12.4-34.58,17.76
		c-3.3,1.5-6.88,2.4-10.24,3.87c-3.68,1.61-6.5,3.88-7.95,7.71c-0.71,1.88-1.64,3.83-3.33,4.87c-4.77,2.94-6.21,7.9-8.45,12.52
		c-4.57,9.45-10.37,18.2-16.31,26.85c-4.8,7-9.71,13.92-14.43,20.97c-5.35,7.99-12.43,14.32-19.54,20.6
		c-6.6,5.84-13.24,11.66-20.13,17.16c-5.71,4.55-11.83,8.59-17.73,12.89c-4.98,3.62-9.85,7.38-14.88,10.93
		c-10.11,7.12-21.43,12-32.37,17.6c-10.24,5.24-20.66,9.92-31.87,12.69c-1.78,0.44-2.79,1.51-3.6,3.11
		c-1.81,3.56-5.25,5.31-8.28,7.66c-6.77,5.25-14.56,5.14-22.32,5.39c-4.62,0.15-7.01,2.12-8.9,6.4
		c-3.97,8.96-8.62,17.62-13.14,26.33c-3.45,6.64-7.29,13.08-10.6,19.78c-1.33,2.7-4.35,3.82-5.24,7c-0.53,1.86-8.09,1.07-9.19-1.02
		c-0.79-1.51-2.01-1.27-3.04-1.44c-12.15-2.02-24.27-4.22-36.14-7.54c-12.65-3.54-25.46-6.5-37.83-11.01
		c-7-2.55-14.16-4.62-21.2-7.06c-6.43-2.23-8.58-3.21-8.03-10.36c0.97-12.61,1.03-25.29,1.86-37.92c0.21-3.15,0.05-5.91-2.6-7.45
		c-9.61-5.59-15.54-15.41-24.86-21.29c-3.23-2.04-6.7-3.72-9.82-5.9c-14.67-10.25-25.21-23.97-33.04-39.89
		c-2.12-4.32-4.48-8.51-6.21-13.05c-4.91-12.9-5.27-26.32-4.93-39.81c0.55-21.98,7.35-41.95,18.94-60.63
		c9.04-14.56,20.22-27.16,32.03-39.42C62.93,464.51,76.2,454.11,91.26,445.3z M234.06,492.25c-0.88,1.32-2.56,1.94-3.82,1.97
		c-6.54,0.14-6.47,5.54-7.96,9.64c-0.5,1.37-0.26,2.99-0.61,4.44c-0.67,2.79-2.32,4.49-5.27,5.33c-8.92,2.52-17.79,5.22-26.63,8.03
		c-11.41,3.63-22.61,7.87-33.6,12.62c-1.8,0.78-3.81,1.11-4.76-1.04c-2.32-5.23-6.74-9-9.32-14.12
		c-2.52-5.02-4.61-11.34-12.39-10.52c-0.29,0.03-0.62-0.21-0.93-0.34c-2.83-1.23-5.35-0.78-8.02,0.85
		c-9.22,5.62-17.09,12.88-23.62,21.28c-7.6,9.77-11.7,21-11.74,33.74c-0.02,7.48,2.09,14.45,3.29,21.64
		c0.3,1.81,1.64,3.48,3.73,3.54c3.13,0.1,6.1-1.2,9.24-1.51c1.83-0.18,2.81-3.09,3.77-5.01c3.12-6.28,6.86-12.17,10.91-17.88
		c2.5-3.52,5.27-6.96,7.07-10.84c2.62-5.64,6.6-7.81,12.65-7.52c8.31,0.4,16.48,2.01,24.82,2.37c10.08,0.43,20.16,1.14,30.24,1.72
		c7.13,0.42,14.25,1.38,21.38,1.55c6.54,0.16,8.15,0.89,9.51,7.36c2.57,12.23,6.68,24,10.16,35.96c1.55,5.32,3.9,8.47,9.53,8.86
		c0.94,0.07,1.98,0.52,2.75,1.1c4.52,3.42,8.99,2.56,13.54,0.1c1.16-0.63,2.44-1.05,3.69-1.51c15.11-5.61,28.65-14.04,41.41-23.69
		c11.61-8.77,21.71-19.23,30.93-30.41c7.83-9.49,14.3-19.99,19.99-30.94c0.85-1.63,1.58-3.27,0.15-5.1
		c-2.8-3.59-2.11-7.51-0.7-11.38c4.78-13.12,9.48-26.28,11.8-40.11c0.81-4.82,2.21-9.61,2.11-14.31c-1.99-1.2-3.68-1.26-5.33-1.28
		c-12.44-0.1-10.92-3.04-15.72,10.41c-2.44,6.83-6.14,12.63-14.71,12.84c-0.94,6.09-5.28,8.5-10.37,9.64
		c-5.84,1.31-11.78,2.24-17.71,3.1c-4.71,0.68-9.02,1.67-11.53,6.37c-0.92,1.72-2.39,3.23-3.86,4.56c-2.31,2.11-4.66,4.15-7.91,4.95
		c-8.71,2.14-17.18,0.51-25.64-1.37c-3.88-0.86-7.88-1.43-11.32-3.67c-1.2-0.78-2.85-1.28-2.31-3.33c0.68-2.63-1.6-2.94-3.11-3.71
		c-1.8-0.91-3.52-0.87-4.58,1.09C233.05,489.41,234.61,490.59,234.06,492.25z M246.84,294.18c-0.55,1.41-0.39,2.05-0.04,2.63
		c5.01,8.44,9.03,17.4,13.64,26.06c10.86,20.4,22.48,40.36,33.77,60.51c1.7,3.03,3.87,3.95,6.81,3.85
		c12.78-0.44,25.57-1.21,38.34-0.05c5.86,0.53,11.22,0.9,12.01-6.98c0.02-0.15,0.14-0.31,0.25-0.43c2.47-2.58,1.5-4.88-0.19-7.52
		c-3.85-6-6.61-12.36-4.29-19.73c0.71-2.26-0.19-3.79-1.76-5.28c-3.51-3.32-6.89-6.77-10.4-10.08c-9.84-9.27-20.42-17.6-32.05-24.52
		c-13.69-8.15-28.7-13.01-43.99-16.99C255.05,294.63,250.96,293.45,246.84,294.18z M164.36,360.49c1.01,0.83,1.64,1.07,2.32,0.89
		c10.04-2.64,20.55-2.03,30.6-4.41c5.83-1.38,9.92,0.29,13.18,5.27c6.02,9.2,12.96,17.73,19.77,26.34c0.71,0.9,1.17,1.97,2.54,2.17
		c6.77,1.02,13.3,3.84,20.43,1.79c3.77-1.08,7.6-1.95,11.16-3.06c0.34-1.74-0.64-2.48-1.33-3.41c-6.43-8.7-12.8-17.44-19.23-26.15
		c-13.05-17.68-26.1-35.35-39.22-52.98c-2.65-3.56-3.4-3.46-7.46-1.29c-6.45,3.45-10.69,9.06-14.06,15.17
		C176.04,333.61,169.82,346.8,164.36,360.49z M271.64,455.03c2.33,5.99,3.66,6.88,9.02,6.86c9.17-0.04,18.28-0.84,27.09-3.33
		c6.5-1.84,13.59-3.24,16.78-10.57C306.8,449.42,289.03,450.56,271.64,455.03z"/>
</g>
</svg>
