<?xml version="1.0" encoding="utf-8"?>
<!-- Generator: Adobe Illustrator 24.0.2, SVG Export Plug-In . SVG Version: 6.00 Build 0)  -->
<svg version="1.1" id="Layer_1" xmlns="http://www.w3.org/2000/svg" xmlns:xlink="http://www.w3.org/1999/xlink" x="0px" y="0px"
	 width="860.16" height="632.05" viewBox="0 0 860.16 632.05" style="enable-background:new 0 0 860.16 632.05;" xml:space="preserve">
<g>
	<path d="M460.49,524.92c-8.23-2.94-14.51-7.6-20.37-12.71c-3.71-3.23-7.66-6.42-9.73-11.22c-1.09-2.52-3.41-3.64-6.14-3.48
		c-4.68,0.27-9.32-0.26-13.97-0.57c-2.17-0.15-3.71,0.42-5.08,2.31c-3.13,4.32-6.96,8.01-11.54,10.81c-1.54,0.94-2.13,2-2.46,3.89
		c-2.51,14.12-0.81,28.22,0,42.31c0.46,8.15,2.11,16.12,4.03,24.07c2.22,9.2,4.85,18.37,4.76,27.97
		c-0.1,10.15-4.74,15.71-14.56,17.98c-5.83,1.34-11.52,3.43-17.39,4.45c-13.74,2.38-27.5,1.15-41.25-0.54
		c-9.56-1.17-19.12-2.37-28.71-3.34c-12.84-1.29-25.79-3.72-37.58-9.46c-9.09-4.43-14.4-11.43-14.5-22.43
		c-0.18-20.13,4.04-39.2,10.78-58.04c4.37-12.19,9.78-24.05,12.76-36.73c0.88-3.76,3.45-6.34,6.23-8.93
		c-4.61-8.26-10.6-15.55-14.06-24.21c-3.08-7.72-8.8-14.07-10.87-22.3c-1.81-7.16-2.59-14.44-2.53-21.73
		c0.07-7.92,8.45-15.09,17.52-16.47c13.72-2.09,26.71-6.58,39-13.05c4.06-2.14,7.39-5.34,10.23-8.69c2.42-2.86,1.99-7.24,1.58-10.93
		c-1.16-10.23-5.73-18.21-14.79-24.04c-17.55-11.3-33.02-25.24-47.89-39.84c-2.16-2.12-3.92-4.5-5.49-7.08
		c-6.73-11.01-15.63-20.73-19.46-34.22c-5.86,3.36-11.6,3.65-17.42,3.35c-1-0.05-2.01-0.01-2.99-0.16c-6.8-1.03-7.9-0.54-9.53,5.9
		c-5.31,21-14.7,40.31-24.7,59.33c-7.03,13.36-11.86,27.52-15.53,42.03c-2.85,11.24-6.52,22.13-12.32,32.03
		c-4.75,8.09-9.32,16.59-16.89,22.67c-1.83,1.47-1.96,3.17-1.93,5.29c0.22,13.26,4,25.59,9.88,37.28
		c2.73,5.43,4.61,11.03,5.68,16.96c0.91,5.06-1.98,8.97-4.34,12.89c-6.1,10.15-22.61,7.42-29.42,1.7
		c-7.5-6.3-13.63-13.64-17.96-22.45c-0.43-0.88-0.76-1.89-2.27-2.15c-2.23,2.07-1.68,5.04-1.83,7.67
		c-0.93,15.77-2.16,31.53-2.37,47.34c-0.04,2.68-1,4.81-3.28,6.37c-2.05,1.41-4.05,2.93-5.99,4.5c-4.95,4.02-10.22,3.41-15.48,0.94
		c-10.81-5.06-17.04-13.52-18.39-25.46c-0.03-0.3-0.28-0.57-0.43-0.86c-1.05-0.26-1.62,0.46-1.91,1.19
		c-3.07,7.89-7.58,15.15-9.52,23.55c-2.56,11.11-7.93,13.24-17.76,7.64c-7.59-4.33-11.31-11.09-12.07-19.54
		c-0.79-8.88,0.47-17.64,2.86-26.16c1.75-6.22,3.35-12.56,6.53-18.29c0.62-1.11,0.69-2.21,0.43-3.37
		c-1.55-6.93-0.2-13.95-0.62-20.91c-0.27-4.45,1.96-8.38,3.31-12.46c4.29-13.02,11.59-24.67,17.23-37.09
		c3.52-7.75,9.94-13.72,15.37-20.23c9.75-11.7,20.75-22.02,33.31-30.75c7.37-5.12,14.14-11.08,21.34-16.45
		c8.53-6.37,17.77-11.71,26.25-18.21c6.1-4.67,10.89-10.21,14.91-16.55c5.29-8.34,8.6-17.63,12.53-26.62
		c4.51-10.31,6.97-21.57,14.09-30.69c0.26-0.33,0.17-0.94,0.22-1.28c-0.51-1.43-1.76-1.71-2.76-2.2
		c-10.69-5.2-18.31-13.67-24.88-23.26c-2.67-3.9-3.07-8.78-5.5-12.78c-3.15-5.2-4.6-10.96-5.78-16.87
		c-1.1-5.51-1.23-11.01,0.03-16.36c3.19-13.52,8.16-26.18,16.54-37.61c6.94-9.46,15.32-16.81,25.03-23.16
		c10.46-6.83,22.13-10.59,33.7-14.64c4.78-1.67,9.91-0.47,14.87-0.48c5.66-0.01,11.22,0.83,15.58,5.54c2.9-2.85,4-6.23,5.09-9.4
		c5.4-15.74,15-28.82,25.54-41.36c8.96-10.65,19.44-19.54,30.68-27.72c4.9-3.57,8.76-8.45,14.38-11.31
		c11.41-5.81,22.8-11.69,34.72-16.36c6.77-2.65,13.96-4.11,21.34-4.49c5.47-0.28,10.85-1.56,16.34-1.97
		c6.03-0.46,11.96-0.09,17.9,0.82c6.24,0.95,9.89,5.76,14.3,9.42c0.38,0.31,0.64,0.77,0.94,1.17c5.26,7.18,11.7,11.16,21.2,9.57
		c4.82-0.81,9.95-0.14,14.78,1.02c3.67-6.66,7.67-12.83,12.71-18c4.95-5.09,11.14-7.69,18.89-7.15c10.31,0.71,19.33,4.64,28.35,8.92
		c7.37,3.49,14.7,7.05,22.03,10.61c7.68,3.74,14.38,8.91,21.2,14.01c9.22,6.89,16.97,15.35,25.8,22.63c2.6,2.14,4.28,5.09,6.38,7.67
		c6.53,8,12.43,16.47,18.63,24.7c5.96,7.91,9.69,16.95,15.11,25.07c0.78,0.39,1.62,0.32,2.42,0.11c13.94-3.73,26.62-0.09,38.77,6.63
		c2.04,1.13,3.99,2.46,6.11,3.39c9.82,4.31,17.54,11.3,24.54,19.19c7.34,8.27,13.83,17.19,17.36,27.74
		c3.93,11.74,5.37,23.95,4.81,36.36c-0.43,9.56-2.17,18.82-5.9,27.69c-2.59,6.17-5.65,11.99-10.45,16.8
		c-1.87,1.87-3.36,4.11-5.24,6.45c6.89,8.78,14.45,16.87,22.68,24.39c11.54,10.56,23.72,20.35,35.77,30.29
		c1.96,1.62,4.27,2.44,6.25,4c7.56,5.95,14.1,13.01,21.98,18.67c11.01,7.9,19.95,18.15,27.98,29.04
		c7.6,10.31,15.93,20.09,22.9,30.86c6.78,10.48,13.96,20.82,18.14,32.64c3.65,10.32,6.35,20.89,5.13,32.22
		c-0.47,4.4,1.34,9.1,2.36,13.61c2.3,10.27,4.37,20.6,2.94,31.16c-0.77,5.72-1.78,11.43-4.08,16.91
		c-2.44,5.81-12.43,10.19-20.17,8.3c-5.01-1.23-10.12-8.65-10.17-15.19c-0.09-11.15-0.98-22.22-3.26-33.14
		c-0.72-3.47-1.36-7.03-3.67-9.97c-2.14,1.07-2.09,2.82-2.19,4.44c-0.79,12.95-4.7,25.16-8.93,37.27
		c-1.37,3.92-2.99,7.77-4.71,11.55c-3.31,7.25-8.71,9.57-16.28,7.2c-10.5-3.29-15.38-12.16-13.52-22.93
		c1.5-8.67,2.68-17.43,3.46-26.23c0.62-6.95,1.31-13.85,0.78-20.81c-2.07-0.35-2.42,1.03-2.77,2.31
		c-3.15,11.45-7.64,22.31-13.9,32.44c-4.2,6.79-8.97,13.16-14.19,19.15c-2.17,2.49-5.43,3.98-9.03,3.07
		c-2.86-0.72-6.39,0.46-8.26-3.33c-0.73-1.47-2.83-2.23-4.24-3.39c-5.54-4.57-7.44-11.24-4.76-17.86c2.8-6.94,5.99-13.72,8.84-20.64
		c4.56-11.1,8.74-22.31,9.72-34.44c0.26-3.19-0.61-5.65-2.48-8.27c-9.74-13.65-16.62-28.57-17.01-45.61
		c-0.14-6.27-0.16-12.61-0.03-18.92c0.15-7.43-0.98-14.86-2.41-22.27c-2.62-13.59-11.43-23.14-20.32-32.51
		c-9.28-9.78-18.26-19.84-27.62-29.54c-0.69-0.72-1.47-1.38-2.05-2.18c-2.54-3.49-5.8-3.99-9.61-2.47c-8,3.19-16.33,2.54-24.64,2.11
		c-0.99-0.05-1.99-0.19-2.95-0.44c-5.95-1.57-6.53-1.38-9.25,3.78c-3.8,7.23-7.73,14.38-12.87,20.77
		c-5.84,7.27-12.23,13.98-19.28,20.12c-10.55,9.19-21.9,17.38-32.36,26.69c-4.46,3.97-9.66,7.06-13.34,11.94
		c-5.51,7.32-7.8,15.68-8.11,24.68c-0.12,3.55,2.04,6.01,4.82,7.66c12.55,7.49,24.97,15.3,39.13,19.6c2.54,0.77,4.88,2.19,7.41,2.97
		c12.03,3.7,13.51,11.99,13.31,21.21c-0.17,7.99-3.93,14.98-8.1,21.64c-0.44,0.7-0.98,1.49-1.67,1.83
		c-5.25,2.62-6.4,7.55-7.55,12.65c-1.11,4.89-3.09,9.49-5.9,13.88c8.37,12.35,10.17,27.1,14.68,40.92
		c3.37,10.33,5.26,20.96,7.15,31.54c2.36,13.23,5.13,26.58,2.6,40.17c-1.07,5.77-4.15,9.72-9.91,11.91
		c-14.36,5.46-29.4,7.33-44.5,7.92c-10.9,0.43-21.88-0.89-32.78-2.35c-11.56-1.55-22.78-4.81-34.33-6.35
		c-2.26-0.3-4.47-1.35-6.58-2.31c-4.99-2.27-7.82-6.08-7.72-11.74c0.34-19.85-1.31-39.6-2.58-59.38
		C461.22,534.48,459.58,529.82,460.49,524.92z"/>
</g>
</svg>
