<?xml version="1.0" encoding="utf-8"?>
<!-- Generator: Adobe Illustrator 24.0.2, SVG Export Plug-In . SVG Version: 6.00 Build 0)  -->
<svg version="1.1" id="Layer_1" xmlns="http://www.w3.org/2000/svg" xmlns:xlink="http://www.w3.org/1999/xlink" x="0px" y="0px"
	 width="705.44" height="861.43" viewBox="0 0 705.44 861.43" style="enable-background:new 0 0 705.44 861.43;" xml:space="preserve">
<g>
	<path d="M456.05,268.77c2.63-5.98,6.74-10.82,9.04-16.77c4.37-11.34,11.23-21.51,15.64-32.86c5.38-13.83,12.26-27,19.91-39.6
		c8.37-13.79,15.27-28.42,24.49-41.73c9.41-13.58,18.28-27.62,29.55-39.67c8.6-9.19,17.31-18.36,26.4-27.16
		c12.29-11.89,26.57-21.1,39.15-32.48c3.65-3.3,8.53-5.06,12.63-7.96c14.9-10.52,31.36-18.06,48.45-24.26
		c6.1-2.21,12.53-3.37,18.61-5.7c1.61-0.62,3.75-1.22,4.96,0.81c1.01,1.69-0.22,3.16-1.13,4.55c-0.27,0.42-0.54,0.92-0.94,1.16
		c-5.54,3.36-9.39,8.76-14.85,12.21c-4.06,2.56-6.6,6.68-9.14,10.4c-10.01,14.68-18.96,30.01-26.16,46.33
		c-3.77,8.53-6.35,17.46-9.61,26.13c-4.04,10.74-7.3,21.66-10.59,32.62c-4.75,15.83-7.96,31.92-9.47,48.38
		c-0.81,8.79-1.85,17.55-2.83,26.32c-0.56,4.99-0.27,9.94,0.39,14.91c1.06,8.08,1.13,16.26,2.5,24.32c0.63,3.72-1.42,6.35-4.57,7.46
		c-8.77,3.08-14.6,9.78-20.36,16.36c-9.26,10.56-16.15,22.72-22.01,35.43c-1.8,3.91-3.15,8.03-4.6,12.09
		c-1.06,2.97-2.54,3.59-5.68,2.38c-7.64-2.93-14.92-6.53-21.86-10.8c-2.98-1.84-6.4-1.64-9.55-2.73c-7.09-2.45-14.43-3.95-21.86-5
		c-1.78-0.25-3.66-0.54-5.18,0.77c-0.81,1.34-0.07,2.28,0.68,3.2c6.71,8.28,13.25,16.68,19.02,25.67c3.97,6.18,6.5,13.08,9.89,19.55
		c7.07,13.49,11.18,28.11,14.53,42.78c2.27,9.92,1.77,20.39,1.46,30.68c-0.42,14.1-2.69,27.9-6.93,41.24
		c-4.21,13.26-9.65,26.06-16.44,38.35c-6.4,11.6-14.48,21.83-22.61,32.12c-0.3,0.37-0.41,0.89-0.59,1.3
		c0.63,1.76,2.16,1.43,3.39,1.5c10.87,0.63,21.59,0.33,31.98-3.73c5.19-2.03,9.74-5.04,14.41-7.89c11.78-7.2,22.9-15.43,35.24-21.77
		c13.64-7.01,27.95-11.26,43.16-13.03c7.19-0.83,14.26-0.71,21.4,0.02c1.85,0.19,3.61,0.65,5.29,1.39c4.02,1.77,5.37,4.51,4.53,8.84
		c-1.19,6.07-4.6,11.41-5.74,17.49c-1.23,6.5-2.19,12.94-1.63,19.71c0.64,7.76,0.93,15.52,1.95,23.29
		c0.86,6.56,2.55,12.63,5.39,18.54c4.17,8.68,8.42,17.3,11.72,26.4c4.71,13.03,5.2,26.2,4.1,39.84
		c-0.96,11.91-6.74,21.67-11.68,31.92c-4.69,9.71-10.37,19-13.88,29.21c-4.94,14.37-6.66,29.08-2.37,44.09
		c2,7.01,2.72,14.34,5.58,21.18c7.87,18.88,18.34,36.11,31.25,51.98c4.17,5.13,8.57,10.13,12.26,15.68c1.33,2,2.35,3.98,2.65,6.36
		c0.55,4.28-1.15,7.2-5.24,8.36c-11.67,3.31-23.06,3.85-34.5-1.68c-6.99-3.38-14.9-4.57-21.98-8.06
		c-14.16-6.98-28.49-13.72-41.72-22.31c-8.03-5.22-14.98-12.1-22.43-18.23c-13.85-11.39-25.49-24.87-35.39-39.67
		c-7.74-11.57-13.5-24.36-19.53-36.93c-7.18-14.97-13.5-30.29-19.3-45.85c-1.91-5.12-4.19-10.13-7.22-14.73
		c-3.59-5.45-5.53-11.69-8.34-17.52c-5.1-10.57-9.39-21.53-14.57-32.05c-3.83-7.79-9.47-14.47-15.08-21.08
		c-3.33-3.94-6.63-7.91-10.12-11.7c-2.54-2.75-4.16-2.74-6.73-0.14c-2.58,2.62-4.18,5.22-3.5,9.63c1.16,7.47,1.75,15.16-0.57,22.71
		c-0.97,3.15-3.31,4.57-5.95,5.48c-2.48,0.85-5.1,1.31-7.85,1.14c-15.71-0.96-30.84-4.37-45.34-10.49
		c-5.14-2.17-10.02-3.38-15.85-1.82c-10.57,2.83-21.73,3.02-32.19,6.54c-3.33,1.12-6.94,0.26-11.26,1.87
		c5.2,2.9,9.5,5.77,13.54,9.01c5.88,4.7,11.42,9.7,16.17,15.55c5.15,6.35,7.71,13.97,9.66,21.65c3.06,12.06,0.51,24.02-3.88,35.12
		c-5.79,14.67-19.64,22.89-36.98,20.43c-5.49-0.78-9.8-3.74-14.64-5.83c-5.16-2.23-9.62-5.28-13.76-8.87
		c-8.44-7.31-15.86-15.57-21.95-24.96c-4.52-6.96-10.22-13.29-13.38-20.98c-4.93-11.99-11.51-23.26-15.6-35.58
		c-1.17-3.53-3.12-4.65-6.55-4.59c-11.52,0.2-23.02-0.95-34.28-2.95c-7.82-1.39-15.59-3.26-23.47-4.46
		c-8.2-1.25-16.17-3.22-24.1-5.82c-8.02-2.62-16.43-4.13-24.45-6.92c-12.56-4.37-24.61-9.96-36.61-15.66
		c-5.38-2.55-10.48-5.76-16.29-7.4c-1.57-0.44-3.06-1.33-4.44-2.24c-14.32-9.38-28.39-19.12-40.58-31.24
		c-5.43-5.4-10.08-11.47-14.55-17.71c-5.48-7.64-9.83-15.85-12.39-24.79c-2.36-8.23-3.4-16.55,0.04-25.2
		c2.03-5.12,2.68-10.9,4.31-16.33c3.58-11.9,9.4-22.58,15.84-33.13c7.69-12.57,16.99-23.85,26.39-35.06
		c7.5-8.93,16.43-16.54,24.87-24.57c1.82-1.74,2.72-3.33,3.15-5.82c1.54-9.01,3-18.05,5.7-26.81c2.11-6.83,3.52-13.85,5.46-20.74
		c2.08-7.39,4.7-14.58,8.07-21.35c5.18-10.4,8.96-21.48,15.13-31.37c4.66-7.46,9.25-15.08,16.7-20.19c4.58-3.15,8.79-2.2,12.1,2.19
		c4.86,6.44,8.15,13.65,11.11,21.12c5.1,12.87,7.49,26.53,12.08,39.54c0.77,2.18,0.73,4.57,1.33,6.84
		c1.46,5.52,4.88,7.84,10.07,5.56c9.07-3.98,18.46-6.49,28.26-7.55c2.35-0.25,3.2-2.2,4.45-3.68c5.89-6.98,11.58-14.26,19.29-19.29
		c6.6-4.3,12.39-9.51,18.48-14.4c5.46-4.39,12.21-6.73,18.34-10.07c13.07-7.12,27.16-11.84,41.37-15.85
		c8.99-2.53,17.97-5.19,27.65-5.79c9.39-0.59,18.97,0.43,28.28-1.92c2.03-0.51,4.35-0.28,6.46,0.07
		c10.15,1.68,20.49,2.05,30.58,3.77c7.56,1.29,14.76,4.69,22.14,7.08c9.33,3.03,18.08,7.48,27.25,10.9
		C450.2,264.93,452.43,267.68,456.05,268.77z"/>
</g>
</svg>
