<?xml version="1.0" encoding="utf-8"?>
<!-- Generator: Adobe Illustrator 24.0.2, SVG Export Plug-In . SVG Version: 6.00 Build 0)  -->
<svg version="1.1" id="Layer_1" xmlns="http://www.w3.org/2000/svg" xmlns:xlink="http://www.w3.org/1999/xlink" x="0px" y="0px"
	 viewBox="0 0 605.81 860.8" style="enable-background:new 0 0 605.81 860.8;" xml:space="preserve">
<g>
	<path d="M605.14,632.09c-4.85,0.35-9.64,1.1-14.41,0.97c-8.8-0.24-17.64-0.23-26.4-1.34c-4.95-0.63-6.3-0.09-8.42,4.47
		c-4.83,10.41-11.57,19.31-20.25,26.8c-4.87,4.2-4.52,6.58-2.97,13.05c2.93,12.23,6.18,24.6-0.27,37.05
		c-2.02,3.9-3.49,8.25-5.6,12.13c-6.19,11.37-14.14,21.32-25.21,28.44c-16.72,10.77-33.97,11.26-51.73,2.8
		c-9.85-4.69-18.8-10.67-26.64-18.28c-2.24-2.17-4.82-2.25-7.22-0.7c-7.59,4.92-16.1,6.96-24.84,8.4
		c-4.01,0.66-7.99,0.28-11.91-0.38c-12.48-2.11-23.93-6.66-33.77-14.83c-0.36-0.3-0.91-0.36-1.4-0.54c-2.4,0.96-2.25,3.1-2.28,5.05
		c-0.06,4.51-0.52,8.92-1.67,13.33c-1,3.83-1,7.79-0.84,11.85c0.56,14.24,0.82,28.58-1.41,42.68c-1.52,9.63-4.31,19.09-8.54,28
		c-0.71,1.5-1.75,2.99-1.95,4.57c-0.56,4.52-3.97,6.06-7.47,6.72c-3.38,0.64-5.23-2.2-6.69-4.93c-0.32-0.59-0.85-1.02-2.21-1.09
		c-2.25,3.34-4.75,6.95-7.14,10.62c-3.01,4.62-6.4,8.75-11,12.05c-5.23,3.75-7.74,1.37-9.98-3.96c-0.55-1.32-0.81-3.1-0.4-4.42
		c2.11-6.73,0.7-13.57,0.9-20.34c0.32-10.65,0.45-21.33,0.14-31.98c-0.38-13.13-1.27-26.24-1.98-39.36
		c-0.24-4.35-2.98-7.72-4.92-11.32c-14.07-26.12-30.49-50.76-47.09-75.31c-8.11-11.99-16.11-24.2-21.04-37.89
		c-3.99-11.09-6.49-22.56-6.98-34.56c-0.51-12.48-1.55-24.94-0.07-37.36c1.22-10.26,4.07-20.09,8.39-29.61
		c6.94-15.28,14.02-30.49,21.61-45.46c1.03-2.04,2.85-3.72,3.14-6.13c-1.37-1.68-2.66-0.97-3.95-0.11
		c-21.73,14.51-43.43,29.07-64.26,44.86c-4.49,3.41-7.86,8.15-13.04,10.79c-3.63,1.85-7.51,2.26-11.4,2.81
		c-3.18,0.45-4.75-1.27-5.82-4.08c-5-13.19-10.21-26.3-15.03-39.57c-6.19-17.04-14.14-33.33-22.13-49.62
		c-4.33-8.84-8.74-17.52-14.38-25.6c-2.69-3.84-5.91-7.21-8.75-10.9c-1.56-2.03-3.49-2.05-5.81-1.57
		c-9.31,1.94-18.67,2.12-27.4-2.07c-11.18-5.36-21.2-12.36-28.13-23.04c-2.25-3.48-5.17-6.47-7.08-10.22
		c-3-5.86-4.72-12.1-5.68-18.52c-0.39-2.62-1.59-4.93-1.7-7.7c-0.71-16.84,6.56-30.2,17.04-42.65c5.11-6.08,11.56-9.98,18-13.95
		c6.01-3.7,13.05-4.66,20.05-5.31c9.86-0.91,19.04,1.09,27.48,6.37c2.74-1.53,4.21-4.02,6-6.14c5.7-6.74,13.31-10.17,21.37-13.19
		c6.74-2.52,13.64-2.58,20.59-2.78c4.49-0.13,8.84,1.37,13.37,1.22c2.26-0.08,3.84-0.49,4.41-2.97c0.66-2.84,3.15-4.1,6.55-6.07
		c-4.75-1.56-8.55-2.89-12.15-4.66c-9.83-4.84-20.65-7.59-29.67-14.19c-11.68-8.54-19.91-19.37-23.59-33.57
		c-3.92-15.12-1.94-30.01,1.13-44.91c2.15-10.42,5.52-20.49,8.51-30.68c3.58-12.17,3.04-23.95-4.94-34.65
		c-2.84-3.81-6.22-6.88-10.55-9.15c1.81-5.31,6-8.24,9.95-11.04c14.16-10.04,29.51-17.92,45.68-24.23
		c14.98-5.85,30.68-8.81,46.49-10.78c10.85-1.35,21.89-1.42,32.88-1.12c2.27,0.06,4.6,0.33,7.02-0.35
		c-0.31-4.24-3.54-6.84-5.21-10.17c-3.68-7.3-6.69-14.86-9.86-22.36c-1.15-2.71-2.34-6.3,0.22-8.44c2.57-2.15,5.73-0.23,8.31,1.32
		c13.85,8.28,27.28,17.18,40.13,26.94c1.02,0.78,1.99,1.78,3.43,1.95c1.02-1.27,0.05-2.21-0.59-3.04
		c-3.03-3.91-4.19-8.68-5.91-13.16c-1.47-3.82,0.15-5.37,4.19-4.28c1.76,0.47,3.5,1.15,5.1,2.03c17.21,9.46,34.85,18.16,51.05,29.35
		c1.63,1.12,3.21,1.46,5.11,1.46c6.73,0.01,12.83-2.34,18.49-5.48c10.8-5.99,20.71-13.23,28.82-22.72c1.78-2.08,2.47-5.18,5.84-6.32
		c1.78,3.87,4.39,7.22,5.28,11.58c0.48,2.35,0.1,5.57,3.53,6.5c0.21,0.06,0.34,0.54,0.45,0.84c5.23,14.67,15.32,26.2,24.57,38.31
		c10.49,13.73,24.67,23.81,35.78,36.87c6.35,7.47,12.73,14.95,18,23.28c2.33,3.68,3.84,7.73,5.5,11.71
		c1.17,2.82,2.74,3.42,5.81,2.93c11.66-1.87,23.15-4.55,34.69-6.98c2.96-0.62,5.71-1.7,8.19-2.98c2.78,1.11,2.89,3.24,3.04,5.46
		c0.32,4.81-1.16,9.32-2.76,13.62c-3.11,8.39-5.94,16.92-10.48,24.73c-1.16,2-3.16,3.45-3.79,5.85c1.21,2.18,3.41,3.17,5.41,4.22
		c4.65,2.43,8.47,5.88,12.21,9.45c3.88,3.7,3.63,6.07-1.5,8.03c-4.02,1.54-7.89,3.44-11.93,4.91c-6.9,2.5-6.56,2.51-7.38,9.67
		c-0.76,6.6-3,12.98-5.59,19.07c-4.19,9.82-9.99,18.72-17.33,26.56c-1.85,1.98-4.86,2.9-5.77,5.81c1.54,1.51,2.91,1.06,4.3,0.39
		c1.47-0.71,2.96-1.09,3.77,0.8c0.76,1.78-0.53,2.75-1.82,3.63c-2.48,1.68-4.95,3.38-7.43,5.05c-12.33,8.29-23.43,18.14-34.98,27.42
		c-6.1,4.9-11.97,10.08-18.56,14.35c-3.24,2.1-6.13,4.67-8.64,7.53c-2.22,2.53-4.83,4.55-7.24,6.82
		c-10.97,10.31-23.72,18.17-36.36,26.06c-7.3,4.55-14.71,9.05-22.34,13.14c-6.34,3.41-10.4,9.51-14.48,15.35
		c1.68,1.65,3.49,1,5.04,1.37c5.02,1.19,8.11,5.15,6.98,11.23c-0.89,4.8-0.42,9.58-1.21,14.33c-0.54,3.25-0.75,6.55-2.42,9.57
		c2.51,2.69,5.01,4.99,8.03,6.87c7.2,4.47,14.05,9.48,21.25,13.97c5.09,3.18,10.36,6.02,15.58,8.95
		c13.74,7.71,27.44,15.51,41.34,22.94c9.82,5.25,20.03,9.74,29.88,14.94c11.8,6.24,23.99,11.45,36.64,15.64
		c1.26,0.42,2.62,0.81,3.65,1.59c4.8,3.65,9.36,2.12,13.96-0.35c9.3-4.99,19.18-8.29,29.57-10.17c2.93-0.53,5.74-1.69,8.65-2.37
		c3.11-0.73,4.08,0,3.97,3.15c-0.17,4.83-1.8,9.39-3.02,14.02c-0.51,1.93-1.3,3.79-1.78,5.72c-1.29,5.17,0.45,8.1,5.7,8.59
		c7.94,0.74,15.9,1.28,23.89,1.43c6.42,0.12,13-0.62,19.23,1.81c4.06,1.58,4.38,2.55,1.74,6.13c-3.96,5.38-8.36,10.33-13.61,14.55
		c-3.23,2.6-6.02,5.74-9.06,8.58c-1.62,1.51-1.49,2.96-0.66,4.91c3.37,7.98,7.92,15.3,12.28,22.74c4.36,7.44,9.04,14.71,12.45,22.68
		c0.39,0.91,0.85,1.87,1.54,2.55c4.11,4.03,5.01,10.05,8.9,14.23C606.07,629.28,605.86,630.49,605.14,632.09z M163.92,492.24
		c5.39-1.33,9.41-3.74,13.29-6.11c10.78-6.59,21.63-13.05,32.13-20.11c15.75-10.58,31.75-20.78,46.42-32.89
		c2.34-1.93,3.23-3.76,3.16-6.7c-0.08-3.47,0.31-6.98,0.77-10.44c0.99-7.37,4.82-12.45,12-15.1c4.52-1.67,9.29-2.44,13.73-4.43
		c4.36-1.95,5.4-4.22,3.01-8.26c-2.84-4.81-6.85-7.73-12.53-8.63c-7.91-1.24-16.17,0-23.56-3.89c-0.89,2.14-0.05,3.5,0.3,4.93
		c1.19,4.94,1.31,10.07-0.09,14.8c-3.17,10.68-8.26,19.96-18.08,26.57c-14.58,9.81-30.09,13.68-47.28,10.15
		c-3.11-0.64-4.44,0.06-5.82,2.76c-5.08,9.96-9.5,20.11-11.75,31.16C167.89,474.47,165.58,482.78,163.92,492.24z M357.18,631.02
		c5.32-1.35,9.88-3.73,14.48-6.35c-1.99-10.67-2.93-21.27-6.88-31.47C363.04,605.91,361.04,618.52,357.18,631.02z"/>
</g>
</svg>
