<?xml version="1.0" encoding="utf-8"?>
<!-- Generator: Adobe Illustrator 24.0.2, SVG Export Plug-In . SVG Version: 6.00 Build 0)  -->
<svg version="1.1" id="Layer_1" xmlns="http://www.w3.org/2000/svg" xmlns:xlink="http://www.w3.org/1999/xlink" x="0px" y="0px"
	 width="627.27" height="779.15" viewBox="0 0 627.27 779.15" style="enable-background:new 0 0 627.27 779.15;" xml:space="preserve">
<g>
	<path d="M524.81,551.86c-0.23,1.75,1.12,2.39,2.04,3.28c6.98,6.68,13.85,13.49,20.98,20c9.18,8.38,16.71,18.06,23.36,28.49
		c2.38,3.73,2.91,8.11,4.28,12.19c0.39,1.15,0.13,2.31-1.04,3.06c-1.13,0.73-2.23,0.48-3.3-0.11c-2.5-1.39-4.81-3.19-6.55-5.34
		c-5.2-6.43-11.82-11.23-18.14-16.35c-11.42-9.26-21.59-19.81-31.99-30.14c-0.91-0.9-1.52-2.24-3.13-2.34
		c-1.28,1.77,0.42,2.74,1.15,3.8c6.39,9.33,12.43,18.87,16.94,29.27c1.84,4.24,3.26,8.69,4.62,13.12c0.62,2.02,1,4.23,0.05,6.32
		c-2.5,1.04-3.93-0.55-5.18-2.04c-11.85-14.18-25.02-27.25-35.45-42.62c-2.37-3.49-5.29-6.53-8.79-9.25
		c0.83,5.77-2.58,9.72-4.97,13.88c-3.01,5.25-4.57,10.64-3.83,16.68c0.42,3.42-0.41,6.51-2.39,9.44c-3.17,4.7-6.46,9.3-10.14,13.61
		c-0.97,1.14-1.95,2.3-3.33,2.98c-2.03,1-3.18,0.28-3.53-1.87c-0.27-1.7,0.15-3.35,0.61-4.93c1.26-4.31,2.53-8.63,4.12-12.83
		c2-5.29,2.78-10.5,1.25-16.1c-2.27-8.35-4.46-16.74-4.8-25.46c-0.03-0.64-0.32-1.29-1.14-1.61c-1.8,0-1.88,1.51-1.99,2.77
		c-0.67,7.65-2.5,15.09-3.96,22.59c-1.58,8.15-6.14,14.98-10.38,21.9c-1.91,3.12-4.01,6.15-6.36,8.94
		c-2.33,2.77-4.98,5.38-9.04,5.01c-1.37-1.68-1.05-3.29-0.42-4.88c1.45-3.71,2.28-7.71,4.64-11.01c6.24-8.72,7.99-18.93,9.49-29.13
		c0.7-4.75,2.59-9.25,2.94-14.45c-2.51,1.06-3.39,2.92-4.36,4.84c-5.39,10.76-13.93,19-22.23,27.41c-0.57,0.58-1.33,1.01-2.05,1.42
		c-1.67,0.96-3.4,2.89-5.33,1.03c-1.63-1.57-0.75-3.75-0.16-5.64c2.45-7.78,7.31-14.1,12.33-20.33
		c8.09-10.04,14.01-21.43,20.21-32.64c0.24-0.44,0.38-0.91-0.4-1.88c-11.48,2.87-23.34,4.5-34.67-2.4c1.34-3.27,4.12-3.23,6.36-3.78
		c13.04-3.15,25.35-8.07,36.95-14.81c3.77-2.19,6.59-4.87,7.44-9.41c1.47-7.83,3.19-15.62,4.85-23.63
		c-18.04-3.31-34.99-1.72-50.71,7.09c-17.07,9.57-34.5,18.01-53.87,21.92c-10.66,2.15-16.43,10.27-20.98,19.12
		c-5.94,11.56-12.13,22.9-20.44,32.96c-9.05,10.95-21.06,17.11-34.33,21.22c-1.49,0.46-3.43,0.04-4.26,2.44
		c1.87,1.39,4.27,1.48,6.37,2.21c20.02,6.94,36.53,18.42,47.17,37.14c6.31,11.1,9.92,22.77,5.98,35.81
		c-3,9.94-9.89,16.3-18.16,21.63c-15.02,9.68-31.83,13.24-49.35,14.05c-7.65,0.36-15.33,0.06-22.99,0.1
		c-1.42,0.01-3.01-0.56-4.35,1.1c4.19,2.89,9.98,2.9,13.52,7.83c-6.5,4.25-13.92,3.03-20.74,4.04c-6.78,1.01-13.71-0.3-20.85-1.1
		c0.7,2.39,2.18,2.83,3.55,3.34c16.85,6.28,33.83,12.18,51.17,16.96c6.75,1.86,13.31,4.13,19.37,7.77
		c5.3,3.18,9.31,7.37,11.98,12.82c-1.27,2.74-3.18,2.16-5.12,1.36c-17.27-7.05-35.78-9.14-53.81-13.03
		c-11.79-2.54-23.25-5.64-34.26-10.51c-3.53-1.56-6.7-3.7-9.94-5.73c-1.5-0.94-2.79-2.36-5.31-2.44c1.16,2.6,3.17,3.93,5,5.46
		c14.41,12.11,29.04,23.99,41.32,38.38c1.84,2.15,3.57,4.4,5.35,6.59c1.78,2.19,3.33,4.84,1.05,7.13c-2.22,2.24-4.72,0-6.69-1.26
		c-5.04-3.22-9.85-6.81-14.88-10.07c-15.52-10.07-30-21.6-45.14-32.21c-3.08-2.16-5.17-5.15-7.06-8.31
		c-0.69-1.14-1.31-2.34-3.13-2.61c-1.03,5.02-1.07,10.1-1.03,15.16c0.08,9.33,0.05,18.66-0.91,27.96
		c-0.57,5.47-1.9,10.73-3.63,15.71c-2.16,0.56-2.98-0.17-3.74-1.86c-6.36-14.24-8.73-29.21-8.52-44.69
		c0.07-5.17,0.21-10.33,0.29-15.49c0.02-1.29,0.37-2.64-0.47-3.95c-2.03-0.16-3.03,1.29-3.99,2.54c-2.02,2.63-3.81,5.38-5.3,8.39
		c-6.86,13.9-14.87,27.1-24.48,39.29c-3,3.81-6.26,7.38-10.29,10.13c-1.09,0.75-2.23,1.53-3.47,1.95c-3.85,1.32-6-0.34-5.35-4.34
		c0.89-5.46,3.18-10.49,5.55-15.45c6.84-14.27,15.16-27.69,23.69-40.97c3.85-6,6.64-12.22,8-19.16c0.76-3.89,1.59-7.77,2.33-11.39
		c-0.86-1.56-2.14-1.35-3.24-1.55c-14.41-2.72-28.46-6.91-42.66-10.47c-13.05-3.26-26.19-4.89-39.58-2.31
		c-0.82,0.16-1.65,0.26-2.45,0.5c-8.56,2.6-11.25,6.84-9.89,15.65c1.66,10.69,8.94,17.18,17.35,22.64
		c5.44,3.54,11.13,6.7,16.77,9.93c2.83,1.62,5.09,3.8,6.8,6.49c2.05,3.23,0.83,5.44-2.91,5.63c-3.19,0.16-6.26-0.37-9.33-1.29
		c-17.37-5.21-33.97-11.81-47.5-24.5c-8.79-8.24-13.99-18.51-17.29-29.84c-2.6-8.96,3.13-23.43,14.58-28.42
		c13.16-5.73,26.72-6.44,40.65-4.92c16.51,1.8,32.05,7.45,47.85,12.1c11.3,3.33,22.58,6.77,35.07,8.86
		c2.12-20.32,8.57-38.88,21.74-55.04c-15.18-4.68-27.07-12.94-37.84-23.04c-12.48-11.71-17.72-26.02-16.75-43.11
		c0.8-14.07,7.11-25.3,15.98-35.59c9.03-10.49,20.9-16.87,32.91-23.11c15.57-8.08,32.29-13.32,48.55-19.72
		c13.5-5.31,26.81-10.98,38.97-19.01c7.56-4.99,9.28-7,12.24-15.46c-6.46,3.37-12.81,4.97-19.13,6.69
		c-9.11,2.48-18.44,2.48-27.73,2.76c-16.11,0.48-31.81-2.35-47.43-6.03c-15.37-3.62-30.79-7.11-46.47-9.18
		c-5.77-0.76-11.51-1.74-17.32-2.34c-23.27-2.4-44.63,3.01-64.45,15.07c-3.69,2.25-7.21,4.78-10.81,7.18
		c-1.56,1.04-3.34,2.15-4.99,0.64c-1.56-1.44-0.8-3.33-0.08-5.08c3.82-9.23,11.01-15.35,19.12-20.49
		c18.18-11.53,38.25-16.73,59.63-17.81c14.98-0.75,29.94-1.69,44.94-1.2c10.67,0.35,21.22,1.95,31.82,3.09
		c22.33,2.4,44.59,6.2,67.2,4.1c8.99-0.84,17.76-2.76,26.27-5.8c1.13-0.4,2.17-0.85,2.73-2.33c-2.25-1.79-5.12-0.72-7.54-1.61
		c-12.09-4.45-22.74-11.11-31.43-20.66c-7.95-8.74-14.65-18.59-23.33-26.71c-9.89-9.26-20.3-17.75-33.02-22.95
		c-2.03-0.83-4.06-1.4-6.23-1.72c-1.57-0.23-3.4-0.09-4.61-2.01c0.53-2.81,2.88-3.1,5.18-3.34c8.53-0.89,16.84-0.16,25.19,2.12
		c17.4,4.75,32.45,13.53,46.15,25.02c9.7,8.13,19.8,15.78,30.08,23.16c7.94,5.7,16.67,9.64,26.21,11.91
		c2.3,0.55,4.15,0.47,6.15-0.71c14.81-8.77,30.68-15.27,46.61-21.6c1.96-0.78,2.39-1.91,2.65-3.65c1.03-6.96,0.6-13.97,0.68-20.95
		c0.06-4.58,0.01-9.16-0.59-14.01c-7.2,19.6-18.12,36.2-35.12,48.18c-3.14-2.06-1.74-4.03-1.22-5.8
		c2.38-8.05,6.59-15.27,10.63-22.53c3.98-7.14,7.49-14.43,9.49-22.38c0.2-0.8,0.52-1.59,0.65-2.4c0.91-5.56,0.14-6.5-5.45-7.85
		c-19.08-4.61-38.48-5.88-58.03-5.75c-3.82,0.03-7.65-0.38-11.47-0.55c-1.97-0.09-3.69-0.8-4.58-2.55
		c-1.05-2.08,0.67-3.46,1.85-4.75c4.6-5.03,10.67-7.92,16.56-11c17.76-9.27,36.49-16.19,55.49-22.44
		c18.57-6.11,36.28-14.12,53-24.31c6.83-4.17,13.9-7.9,21.65-10.13c1.13-0.33,2.23-0.67,3.15-1.95c-3.78-9.4-8.11-18.7-13.71-27.29
		c-16.89-25.93-33.06-52.29-48.21-79.28c-5.79-10.32-11.3-20.93-13.15-32.69c-2.43-15.47-1.69-30.87,4.48-45.64
		c7.51-18,21.26-29,39.41-34.8c21.76-6.95,42.68-4.96,62.52,6.78c11.73,6.94,19.82,17.1,26.16,28.88c2.69,5,5.74,9.76,8.99,14.4
		c8.67,12.36,20.4,20.28,34.92,24.37c8.48,2.39,16.94,4.95,25.14,8.23c10.54,4.22,18.04,11.37,20.34,22.8
		c2.03,10.12-4.64,23.24-13.91,27.22c-2.3-3.1-4.57-6.36-7.94-8.59c-3.32-2.2-6.55-4.55-10.02-6.98c-2.39,1.65-4.67,2.23-7.76,1.65
		c-15.06-2.84-29.82-7.03-44.89-9.73c-15.63-2.79-31.42-4.37-47.21-1.65c-11.06,1.9-13.01,8.11-10.32,18.41
		c1.36,5.21,5.01,9.38,8.31,13.54c9.15,11.54,19.58,21.74,31.46,30.53c13.55,10.01,26.14,21.26,37.92,33.25
		c11.95,12.17,19.81,27.04,24.25,43.59c1.33,4.96,3.11,9.82,3.18,15.04c0.28,19.83-6.06,37.57-17.2,53.72
		c-1.86,2.69-3.04,5.32-3.33,8.62c-1.1,12.6-2.44,25.18-3.68,37.77c-0.2,1.97-0.38,3.95,0.59,6.19c8.45,0.63,16.92,0.12,25.37,0.33
		c19.76,0.49,38.24,5.34,54.6,16.76c10.14,7.07,18.02,16.02,22.46,27.93c4.23,11.37,1.29,20.86-6.39,29.31
		c-7.37,8.11-17.32,12.26-27.08,16.54c-16.05,7.04-32.87,11.83-49.69,16.61c-5.47,1.56-10.69,3.83-15.24,7.28
		c-4.03,3.06-4.42,4.77-2.45,9.31c4.52,10.44,11.34,19.54,17.08,29.27c1.7,2.88,4.43,3.32,7.42,2.78
		c11.97-2.19,24.1-3.08,36.17-4.46c7.42-0.85,14.17,1.7,20.88,4.02c13.86,4.8,27.04,11.24,40.23,17.64
		c4.01,1.95,6.86,5.27,9.85,8.36c2.07,2.14,1.21,3.91-1.9,4.31c-2.35,0.31-4.6-0.27-6.84-1.01c-15.82-5.18-31.68-10.19-47.47-15.47
		c-6.96-2.33-13.44-3.03-20.56-1.32c0.96,2.33,3.26,2.05,4.99,2.68c17.56,6.4,35.04,12.92,49.34,25.6c3.51,3.11,6.62,6.57,9.43,10.3
		c1.4,1.86,3.02,3.89,1.08,6.27c-2.07,2.54-4.46,1.37-6.78,0.27c-16.54-7.85-33.13-15.6-49.91-22.91
		c-9.92-4.32-19.82-8.67-30.49-10.87C526.39,551.44,525.75,551.14,524.81,551.86z M200.69,670.04c11.36,0.78,22.61-0.08,33.76-2.25
		c8.19-1.59,16.19-3.84,23.64-7.66c8.4-4.31,10.19-12.18,4.77-19.81c-2.26-3.19-5.16-5.59-8.37-7.73
		c-7.14-4.77-15.09-7.67-23.25-10.01c-14.07-4.03-28.42-6.79-42.8-9.51c-5.13-0.97-8.67-0.15-11.78,3.72
		c-0.62,0.77-1.5,1.37-2.03,2.19c-3.23,5.02-6.81,9.91-5.42,16.49c2.05,9.72,4.11,19.42,7.15,28.92c1.11,3.48,2.78,4.46,5.89,4.61
		C188.41,669.29,194.55,669.68,200.69,670.04z M345.46,288.62c3.52,2.09,6.62,3.11,9.82,3.59c16.15,2.47,32.37,3.29,48.66,1.5
		c1.15-0.13,2.31-0.02,3.18-1.06c2.36-2.79,0.63-10.72-2.73-12.29c-4.54-2.12-9.42-1.89-14.2-1.65c-11.83,0.61-23.34,3.28-34.7,6.4
		C352.41,285.96,348.95,286.02,345.46,288.62z M379.8,340.86c-4.11-7.99-8.27-15.77-14.45-22.31c-0.32,10.7,0.74,21.2-1.29,32.52
		C370.07,348.01,374.92,344.77,379.8,340.86z M388.35,308.45c4.39,1.96,8.31,4.53,12.79,7.22c2.29-4.7,3.9-9.03,5.37-14.86
		C400.15,304.26,394.34,306.15,388.35,308.45z M219.13,555.72c2.7,0.75,7.98-1.24,9.95-3.62c1.28-1.55,2.07-9.43,0.88-11.72
		C225.97,545.38,219.89,548.56,219.13,555.72z M466.76,360.47c-0.36-0.12-0.72-0.23-1.08-0.35c-2.18,3.49-3.79,7.23-4.75,11.29
		c2.14,0.88,4.02,1.36,4.52-1.3C466.05,366.93,466.34,363.69,466.76,360.47z M393.47,326.39c-2.35-1.61-4.41-3.88-8.47-4.17
		c1.92,3.19,3.45,5.73,4.99,8.29C391.99,329.53,393.19,328.52,393.47,326.39z"/>
</g>
</svg>
