<?xml version="1.0" encoding="utf-8"?>
<!-- Generator: Adobe Illustrator 24.0.2, SVG Export Plug-In . SVG Version: 6.00 Build 0)  -->
<svg version="1.1" id="Layer_1" xmlns="http://www.w3.org/2000/svg" xmlns:xlink="http://www.w3.org/1999/xlink" x="0px" y="0px"
	 width="783.41" height="860.76" viewBox="0 0 783.41 860.76" style="enable-background:new 0 0 783.41 860.76;" xml:space="preserve">
<g>
	<path d="M75.96,687.74c-5.45-3.84-10.28-6.43-14.34-10.15c-6.18-5.67-12.02-11.51-15.03-19.59c-0.34-0.92-0.91-1.78-1.47-2.6
		c-3.52-5.12-6.39-10.55-7.6-16.71c-2.53-12.87-6.01-25.66-5.29-38.9c0.57-10.6,0.82-21.38,4.07-31.58
		c3.67-11.53,6.89-23.31,13.9-33.52c3.66-5.33,6.63-11.07,11-15.97c3.63-4.08,2.64-8.24-1.91-10.99
		c-11.18-6.75-22.02-14.13-29.52-24.97c-6.85-9.9-12.99-20.28-15.89-32.36c-2.29-9.52-5.93-18.76-6.03-28.67
		c-0.17-17.46-1.01-35.03,4.16-52.04c1.54-5.07,3.67-10.04,6.18-14.7c3.26-6.05,4.23-13.05,7.7-18.85
		c9.95-16.66,23.02-30.51,39.38-41.06c3.01-1.94,3.82-5.29,6.23-7.55c0.85-0.8,0.05-2.2-0.43-3.28c-0.76-1.74-2.11-3-3.54-4.14
		c-15.39-12.14-22.11-28.92-25.54-47.5c-2.91-15.79-0.91-31.04,5.05-45.82c1.03-2.57,1.25-5,1.19-7.73
		c-0.23-10.28-1.35-20.62,1.52-30.79c1.49-5.31,4.59-9.99,5.88-15.32c1.43-5.9,4.8-11.31,4.45-17.67c-0.07-1.33-0.02-2.62-0.46-3.92
		c-6.69-19.95-11.24-40.34-13.21-61.32c-0.7-7.44-1.94-14.82-2.38-22.31c-0.34-5.74,0.72-11.28,1.41-16.88
		c0.3-2.43,1.57-3.55,4.1-4.18c11.98-2.98,23.66-1.18,35.51,1.07c10.45,1.98,20.7,4.84,31.21,6.58c8.04,1.33,15.89,3.71,23.46,6.74
		c2.61,1.05,4.46,0.98,6.93-0.37c11.09-6.08,22.28-12.04,34.66-15.15c7.75-1.95,15.69-2.95,23.6-3.98
		c16.28-2.13,32.65-2.22,48.78,0.51c15.67,2.66,30.92,7.01,45.81,13.1c9.33,3.82,18.64,7.85,28.12,11.39
		c1.33,0.5,2.54,0.63,3.86,0.11c7.46-2.95,15.49-3.89,23.21-5.4c19.06-3.72,38.15-7.84,57.85-7.2c8.29,0.27,16.62-0.26,24.91,0.61
		c2.49,0.26,4.94,0.68,7.36,1.34c9.39,2.56,9.13,4.75,8.09,12.07c-2.33,16.44-6.81,32.41-12.09,48.19
		c-2.89,8.63-5.01,17.57-7.5,26.36c-2.9,10.25-6.3,20.33-9.75,30.38c-1.38,4.03-0.55,6.9,0.89,10.29
		c3.23,7.62,8.54,13.11,15.81,17.07c11.48,6.26,19.96,15.94,28.25,25.76c3,3.56,5.86,7.24,8.76,10.88
		c15.4,19.38,27.59,40.66,37.99,63.09c2.73,5.89,4.74,12.04,7.61,17.83c1.15,2.32,1.28,4.82,1.72,7.26
		c1.86,10.17,5.92,19.71,8.17,29.78c3.26,14.6,8.03,28.91,10.46,43.63c2.26,13.69,4.34,27.57,2.89,41.69
		c-0.84,8.24-0.6,16.61-0.59,24.92c0.01,9.67-1,19.24-2.43,28.78c-0.42,2.8-0.78,5.61-1.07,8.43c-0.58,5.74,1.61,8.9,7.33,9.79
		c6.24,0.98,12.54,1.65,18.83,2.24c8.47,0.79,16.9,0.1,25.37-0.7c5.27-0.5,10.58-0.79,15.88-1.23c6.74-0.55,12.9-3.14,19.27-4.91
		c23.07-6.39,44.38-16.76,65.09-28.68c13.6-7.83,26.57-16.54,39.17-25.8c7.21-5.3,13.78-11.45,20.67-17.19
		c4.72-3.93,7.05-9.65,10.7-14.38c2.83-3.66,6.18-4.13,10.16-3.38c3.93,0.74,5.74,3.57,6.91,7.08c1.91,5.74,2.23,11.46,1.86,17.59
		c-1.06,17.21-4.59,33.92-8.52,50.61c-1.07,4.53-2.08,9.08-2.96,13.66c-1.08,5.6-3.69,10.67-5.5,16.01c-1.12,3.31-2.37,6.53-2.97,10
		c-0.79,4.55-4.05,7.95-6.02,11.93c-3.3,6.66-6.42,13.44-10.25,19.91c-4.83,8.15-10.18,15.97-14.65,24.37
		c-5.56,10.44-12.87,19.77-21.38,28.08c-0.95,0.92-1.8,1.96-2.58,3.03c-6.17,8.51-13.6,15.97-20.16,24.12
		c-12.89,16-29.87,27.03-46.26,38.55c-15.23,10.7-32.24,18.72-49.87,25.04c-3.58,1.28-5.9,2.96-6.95,6.91
		c-3.04,11.45-8.81,21.88-13.09,32.87c-1.81,4.64-5.18,8.52-7.94,12.68c-0.91,1.37-2.27,2.47-2.57,4.22
		c3.29,5.35,7.21,10.41,9.72,16.1c3.45,7.8,7.97,15.28,8.21,24.35c0.13,4.85,2.11,9.49,2.37,14.56c0.47,8.92-2.15,16.3-7.88,22.73
		c-2.29,2.57-3.85,5.19-4.59,8.58c-1.48,6.77-3.68,13.14-7.69,19.12c-3.35,4.99-4.43,11.46-7.75,16.65
		c-3.3,5.16-7.17,9.98-12.76,12.9c-3.3,1.72-5.15,1-7.07-2.14c-1.62-2.64-3.15-5.34-4.64-7.89c-1.59,0.31-1.74,1.49-2.33,2.23
		c-2.09,2.63-4.42,3.3-7.37,1.36c-8.62-5.66-16.85-11.57-23.56-19.72c-7.12-8.64-12.87-18.09-19.1-27.29
		c-2.09-3.09-3.96-6.57-7.99-7.9c-1.43-0.47-2.35-1.91-3.05-3.21c-4.26-7.85-8.02-15.93-9.9-24.72c-0.95-4.45-0.21-8.94,0.35-13.4
		c0.66-5.3,0.02-6.31-4.79-8.32c-14.32-5.99-27.52-13.83-40.51-22.4c-13.51-8.91-22.4-21.56-32.6-34.18
		c-2.21,0.31-4.99,0.61-7.73,1.1c-12.57,2.27-25.19,4.39-37.96,4.68c-5.93,0.14-11.82-1.48-17.86-1.36
		c-11.49,0.24-22.82-1.48-34.12-3.57c-9.99-1.85-19.68-4.66-29.35-7.66c-2.43-0.75-4.54-2.04-6.82-3.03
		c-3.19-1.39-6.4-2.1-8.93,1.35c-0.29,0.39-0.74,0.68-1.16,0.94c-5.24,3.32-8.99,7.32-10.25,13.99c-1.21,6.39-5.03,11.8-10.69,15.67
		c-2.87,1.97-5.4,4.44-7.55,7.24c-0.92,1.19-2.02,2.19-3.33,2.98c-12.01,7.21-24.55,13.29-37.91,17.6
		c-19.52,6.3-39.45,10.82-59.67,14.18c-3.34,0.55-5.92,2.91-8.78,4.52c-2.21,1.24-4.46,1.96-6.83,2.74
		c-8.43,2.76-17.16,3.99-25.84,5.18c-6.23,0.86-12.46,2.01-18.77,2.35c-8.79,0.47-17.46,2.41-26.36,1.54
		c-5.58-0.54-5.87-0.57-5.96-6.12c-2.46,0-4.93,0.07-7.39-0.02c-4.6-0.17-6.35-2.37-4.89-6.76c1.2-3.61,2.61-7.3,4.71-10.42
		c8.63-12.85,17.25-25.92,29.77-35.31c10.11-7.58,20.08-15.4,30.56-22.48C68.35,689.7,71.63,688.96,75.96,687.74z"/>
</g>
</svg>
