<?xml version="1.0" encoding="utf-8"?>
<!-- Generator: Adobe Illustrator 24.0.2, SVG Export Plug-In . SVG Version: 6.00 Build 0)  -->
<svg version="1.1" id="Layer_1" xmlns="http://www.w3.org/2000/svg" xmlns:xlink="http://www.w3.org/1999/xlink" x="0px" y="0px"
	 width="861.09" height="590.5" viewBox="0 0 861.09 590.5" style="enable-background:new 0 0 861.09 590.5;" xml:space="preserve">
<g>
	<path d="M580.3,553.26c-4.65,3.78-8.77,7.09-12.84,10.45c-7.98,6.6-16.67,12.1-25.8,16.94c-2.37,1.26-4.81,2.29-8.24,1.59
		c0.79-14.09,5.22-27.01,13.08-39.53c-2.95,0.02-4.76,0.88-6.45,1.72c-6.13,3.04-12.56,5.33-18.92,7.75
		c-3.98,1.51-8.31,2.22-12.55,2.91c-3.14,0.51-4.24-0.81-4.09-3.92c0.09-1.88,0.56-3.57,1.77-5.08
		c6.16-7.69,13.09-14.58,20.56-21.01c14.37-12.36,30.3-22.94,42.93-37.28c5.5-6.24,10.71-12.75,16.03-19.14
		c0.54-0.65,0.97-1.36,0.62-2.28c-0.62-1.15-1.74-1.09-2.61-0.68c-7.48,3.53-15.86,3.61-23.58,6.19
		c-10.63,3.55-21.59,5.36-32.7,6.48c-4.29,0.43-8.62,1.21-12.75,2.19c-12.1,2.88-24.34,3.38-36.65,4.09
		c-14.31,0.82-28.5,1.15-42.78-0.8c-12.87-1.76-25.65-3.87-38.04-7.69c-8.4-2.59-16.88-5.15-24.88-8.91
		c-4.19-1.97-7.76-2.66-11.63,1.27c-7.82,7.94-16.04,15.5-24.23,23.06c-11.49,10.61-22.72,21.58-36.73,29
		c-1.85,0.98-3.71,2.9-5.88,1.08c-2.06-1.74-1.7-4.23-0.97-6.51c2.39-7.41,4.34-15,8.42-21.58c-1.19-1.3-1.82-0.47-2.39-0.01
		c-11.04,8.96-23.14,16.19-35.9,22.4c-1.9,0.93-3.7,1.79-5.52,0.15c-1.84-1.66-1.22-3.65-0.35-5.51c4.01-8.6,7.8-17.31,13.53-24.98
		c0.67-0.9,1.75-1.63,1.25-3.34c-2.96-1.09-5.13,1.31-7.55,2.23c-8.83,3.37-17.55,7.03-26.36,10.42c-2.41,0.93-4.91,0.46-7.54-1.01
		c0.06-2.91,1.79-5.23,3.4-7.39c7.85-10.58,16.37-20.58,26.14-29.48c3.18-2.9,6.22-5.93,9.24-10.15
		c-7.55,0.68-14.23,1.99-20.81,3.91c-19.36,5.66-38.2,12.58-55.83,22.54c-13.32,7.52-27.33,13.54-41.46,19.33
		c-5.99,2.46-12.35,2.54-18.62,3.11c-5.25,0.48-10.5,0.78-15.83-0.17c-3.28-0.59-6.44-1.53-9.65-2.15
		c-8.22-1.57-15.88-4.51-23.55-7.69c-6.15-2.55-12.13-5.25-17.67-9.04c-8.84-6.04-17.2-12.53-23.71-21.14
		c-0.4-0.53-1.11-0.95-1.26-1.53c-1.8-6.71-8.04-7.96-13.1-10.42c-7.83-3.8-13.5-10.07-17.45-17.22c-2.85-5.15-6.41-10.14-8.17-15.9
		c-3.05-10-3.41-19.87,1.75-29.4c0.95-1.76,2.2-3.45,2.69-5.34c2.24-8.54,9.4-12.58,15.69-17.36c2.5-1.9,5.34-3.47,8.25-4.66
		c10.02-4.1,20.47-4.18,30.17,0.04c10.09,4.39,19.12,4.3,28.37-1.51c9.86-6.19,20.33-11.39,29.89-18.09
		c0.8-0.56,1.81-0.89,2.36-2.14c-3.45-7.51-7.1-15.13-10.46-22.88c-5.58-12.88-3.96-25.25,2.93-37.23
		c3.08-5.35,6.21-10.59,10.39-15.21c2.19-2.41,2.51-5.46,1.78-8.87c-4.03-18.92-5.1-37.88,0.62-56.68
		c4.17-13.73,11.93-25.43,20.79-36.61c6.58-8.3,14.5-14.81,23.87-19.23c7.75-3.65,15.73-6.93,24.13-9.25
		c13.74-3.79,27.77-5.35,41.82-6.81c8.93-0.92,18.01-0.92,26.93-0.02c8.94,0.9,17.91,1.37,26.84,2.63
		c7.33,1.03,14.03,4.05,21.25,5.25c8.41,1.4,15.76,6.22,24.24,7.51c3.19,0.49,6.02,0.32,9.19-0.69c11.24-3.57,22.54-7.07,34.47-7.6
		c2.68-0.12,5.31,0.29,7.96,0.55c13.37,1.32,26.75,2.53,40.06,4.46c6.34,0.92,12.41,2.7,18.08,5.39
		c10.04,4.76,20.56,8.7,29.24,16.01c3.62,3.05,4.45,3.12,8.15,0.05c15.22-12.64,33.49-18.73,51.88-24.68
		c17.39-5.63,35.27-8.01,53.44-9.33c21.3-1.55,42.52-1.85,63.75,0.53c12.58,1.41,25.22,0.37,37.79,1.09
		c8.29,0.48,15.72-1.83,23.36-3.98c12.21-3.43,24.08-7.79,34.31-15.41c12.26-9.15,23.64-19.17,33.23-31.39
		c7.93-10.1,16.21-19.92,22.25-31.25c4.84-9.07,8.65-18.69,13.08-27.99c2.26-4.75,5.27-8.91,10.85-10.25c2.05-0.49,3.55,0,5.45,1.25
		c8.22,5.41,10.58,13.9,13.17,22.57c6.89,23.05,8.25,46.39,5.01,70.15c-0.76,5.55-0.56,11.18-1.59,16.8
		c-1.78,9.64-4.88,18.91-6.97,28.47c-3.65,16.71-8.32,33.27-14.33,49.27c-7.06,18.8-14.19,37.68-25.03,54.83
		c-3.11,4.91-6.04,9.99-8.17,15.43c-1.83,4.68-5.3,8.43-7.2,13.08c-0.72,1.76-1.25,3.43-0.88,5.3c1.87,9.47,4.2,18.75,9.41,27.09
		c8.53,13.65,19.46,24.74,33.17,33.3c8.3,5.19,16.27,10.91,23.58,17.56c8.31,7.57,10.06,24.46,5.04,33.64
		c-5.95,10.89-13.99,19.7-22.64,28.23c-2.48,2.45-4.64,5.23-7.05,7.76c-9.18,9.62-18.38,19.22-27.61,28.79
		c-3.12,3.24-5.34,7.19-8.73,10.24c-2.58,2.32-5.61,3.54-8.61,2.69c-2.9-0.81-3.59-4.06-4.12-6.94c-0.58-3.15-0.82-6.27-0.16-9.43
		c0.38-1.78,0.68-3.57,0.46-5.67c-2.39,0.36-3.35,2.26-4.62,3.58c-5.21,5.42-10.63,10.55-16.99,14.65
		c-1.88,1.21-3.77,2.02-6.38,2.02c-2.93-4.62-3.17-9.72-2.75-15.15c0.4-5.18,2.64-9.88,3.49-15.07c-1.94-0.82-2.91,0.49-4.07,1.26
		c-5.52,3.68-10.97,7.36-17.97,7.91c-6.81,0.54-9.21-2.25-6.65-8.48c2.54-6.19,5.89-11.9,9.86-17.29
		c8.05-10.9,16.84-21.03,28.09-28.8c1.77-1.22,3.34-2.73,4.95-4.18c0.31-0.28,0.33-0.88,0.56-1.58
		c-16.02-6.63-27.02-19.32-38.13-31.89c-23.61,28.33-49,54.24-77.44,77.53c6.55,11.7,11.18,24.2,16.63,36.32
		c5.79,12.86,4.67,20.88-5.94,31.27c-5.24,5.12-10.03,10.65-15.31,15.75c-14.87,14.39-28.21,30.15-39.78,47.34
		c-6.52,9.68-13.57,18.89-22.03,26.97c-0.84,0.8-1.66,1.66-2.61,2.32c-3.56,2.46-5.22,1.74-6.14-2.57
		c-2.03-9.47,0.33-18.46,2.9-27.44c0.32-1.12,0.75-2.2,1.02-3.33C580.67,555.31,580.48,554.79,580.3,553.26z"/>
</g>
</svg>
