<?xml version="1.0" encoding="utf-8"?>
<!-- Generator: Adobe Illustrator 24.0.2, SVG Export Plug-In . SVG Version: 6.00 Build 0)  -->
<svg version="1.1" id="Layer_1" xmlns="http://www.w3.org/2000/svg" xmlns:xlink="http://www.w3.org/1999/xlink" x="0px" y="0px"
	 width="714.7" height="860.51" viewBox="0 0 714.7 860.51" style="enable-background:new 0 0 714.7 860.51;" xml:space="preserve">
<g>
	<path d="M483.2,834.17c-0.37,3.07,0.65,6.17,0.15,9.28c-0.66,4.17-1.64,4.76-5.6,3.62c-3.23-0.94-5.94-2.91-9.75-4.71
		c0.8,6.32,4.47,11.17,4.6,16.87c-0.72,1.14-1.86,1.3-3.06,1.28c-12.16-0.13-24.27-0.99-36.34-2.5c-4.92-0.61-8.46-2.53-8.89-8.24
		c-0.15-2-0.91-4.17-2.42-6.21c-5.64,3-11.31,5.62-17.39,7.22c-1.46,0.39-2.89,0.72-4.4,0.77c-5.12,0.16-5.84-0.84-4.14-5.86
		c0.21-0.62,0.45-1.24,0.87-2.37c-4.32,0.26-7.43,2.94-11.09,3.98c-6.84,1.96-13.25,5.4-20.46,6.05c-5.68,0.51-6.48-0.32-6.36-5.95
		c0.06-3.17,0.29-6.32,0.96-9.43c0.64-2.96-0.22-4.91-3.57-5.08c-3.74,4.85-3.72,4.8-9.67,2.17c-4.26-1.88-8.18-4.35-13.04-7.69
		c0.59,6.01,4.19,10.63,1.86,16.14c-4.16,1.54-8.88,0.97-13.43,1.18c-8.63,0.4-17.25-0.12-25.75-1.94c-2.98-0.64-4.66-2.36-5.1-5.36
		c-0.38-2.61-0.79-5.21-1.16-7.66c-1.6-0.9-2.42,0.21-3.34,0.76c-4.92,2.95-10.36,4.39-15.9,5.5c-3.56,0.71-5.4-1.27-5.03-5.12
		c0.06-0.63,0.38-1.3-0.8-2.4c-4.61,2.28-10.04,2.64-15.43,3.21c-3.16,0.33-6.32,0.54-9.46-0.06c-5.48-1.03-7.55-5.55-4.68-10.41
		c4.45-7.54,11.19-12.67,18.41-17.27c1.26-0.8,2.52-1.77,3.92-2.17c6.16-1.76,6.27-5.76,5.84-11.44
		c-1.21-16.12-0.6-32.29,0.51-48.44c0.75-10.95,2.15-21.81,3.58-32.68c0.91-6.88,0.87-13.98-2.68-20.5
		c-3.31-6.09-2.71-12.1,0.6-18.1c3.86-7,7.29-14.21,10.57-21.51c1.81-4.03,1.91-7.46-1.07-11.07c-3.82-4.61-7.2-9.59-10.86-14.34
		c-7.14-9.28-12.23-19.76-17.77-29.97c-0.47-0.86-0.7-1.82-1.37-2.63c-4.02-4.88-4.94-5.03-9.11-0.22
		c-8.76,10.11-19.13,18.54-29.22,27.13c-8.41,7.16-17.83,13.24-27.68,18.56c-9.79,5.28-19.43,10.92-28.67,17.09
		c-6.06,4.05-10.62,9.41-12.85,17.09c-2.26,7.79-4.89,15.47-6.88,23.38c-2.59,10.29-2.47,20.57-0.48,30.72
		c1.74,8.85,2.8,17.76,3.77,26.68c1.01,9.26,3.12,18.39,3.16,27.77c0.02,3.83,0.28,7.69-0.28,11.48c-0.55,3.69,0.55,6.23,3.52,8.58
		c7.68,6.06,13.87,13.41,17.75,22.52c0.52,1.22,1.16,2.43,1.47,3.7c1.04,4.37-0.61,6.38-5.05,6.12c-5-0.28-9.95-0.86-14.75-2.44
		c-1.8-0.59-3.78-1.74-4.95,1.19c-0.61,1.54-2.26,1.15-3.54,0.94c-3.78-0.62-7.62-0.86-11.31-2c-1.08-0.34-2.16-1.01-3.46,0.03
		c0.67,3.34,2.16,6.46,3.51,9.63c2.79,6.56,1.63,8.97-5.89,9.81c-7.78,0.87-15.57,1.15-23.32-0.41c-4.24-0.85-8.6-0.76-12.8-2.06
		c-4.42-1.37-5.78-2.6-5.91-7.17c-0.07-2.62,0.21-5.26,0.32-7.69c-1.63-1.38-2.75-0.25-3.91,0.2c-7.13,2.81-14.29,5.5-21.99,6.41
		c-5.51,0.65-8.98,0.64-6.76-7.02c0.12-0.41-0.1-0.93-0.21-1.76c-7.69,2.28-15.48,2.18-23.24,2.49c-4.79,0.19-9.28-0.84-13.51-2.97
		c-3.3-1.66-3.37-2.59-1.7-5.82c5.83-11.29,15.4-18.59,26.11-24.69c3.33-1.89,6.76-3.6,10.12-5.44c2.18-1.19,3.35-3.03,3.78-5.54
		c2.99-17.28,9.03-33.64,15.2-49.97c5.85-15.49,14.32-29.62,22.25-44.05c4.25-7.74,8.72-15.3,14.03-22.37
		c1.52-2.02,2.17-4.46,3.04-6.8c2.73-7.27,4.08-15.09,9.04-21.46c2.29-2.94,5.01-5.32,7.82-7.66c9.34-7.77,18.99-15.15,27.56-23.84
		c4.12-4.17,5.97-8.94,6.78-14.57c1.26-8.78,0.82-17.62,1.43-26.41c1.15-16.58,2.49-33.14,3.76-49.71
		c0.26-3.41,3.05-6.41,1.52-10.35c-6.82-1.58-14.39-0.87-20.75-4.71c0.33-3.33,2.46-4.71,4.53-6.09c2.21-1.47,4.48-2.86,6.71-4.3
		c1.12-0.72,2.44-1.37,2.14-3.02c-0.32-1.75-1.87-1.6-3.15-1.83c-9.81-1.83-19.65-3.54-29.43-5.55c-4.38-0.9-8.64-2.41-12.94-3.69
		c-1.12-0.34-2.01-1.08-2.76-2.21c4.04-6.44,9.98-10.66,15.86-15c9.26-6.85,18.99-12.95,29.27-18.08
		c12.22-6.1,24.91-11.09,38.06-14.9c10.88-3.15,21.99-5.21,33.16-6.82c5.4-0.78,11.04,0.4,16.4-1.03
		c17.52-4.69,35.41-2.85,53.18-3.25c15.64-0.36,31.27,0.16,46.91,0.07c1.09-0.01,2.31,0.38,3.25-0.57c0.19-1.18-0.77-1.39-1.46-1.71
		c-10.59-4.92-19.62-12.01-27.3-20.66c-3.06-3.44-6.49-4.53-10.71-5.35c-9.31-1.82-18.5-4.11-26.08-10.51
		c-4.7-3.96-5.41-8.41-1.19-12.84c2.53-2.65,5.47-4.96,8.91-6.32c17.34-6.84,35.17-8.05,53.38-4.29c0.66,0.14,1.31,0.23,1.95-0.21
		c0.43-1.41-0.74-2.02-1.5-2.79c-7.19-7.31-13.15-15.43-16.99-25.03c-2.51-6.28-0.45-10.31,6.28-11.58
		c6.53-1.23,12.98-0.02,19.35,1.2c21.43,4.09,41.65,11.48,60.53,22.5c3.91,2.28,8.04,4.2,11.97,6.23c1.03-1.37,0.32-2.01-0.05-2.71
		c-2.59-4.97-0.71-8.84,4.89-9.58c6.81-0.9,13.64-0.63,20.4,0.56c8.5,1.5,16.91,3.43,25.09,7.03c2.78-5.65,4.8-11.15,5.85-16.77
		c-1.78-1.9-3.39-0.9-4.93-0.45c-3.69,1.07-7.54,1.38-11.22,2.22c-7.14,1.64-12.82-1.34-17.31-5.58
		c-4.93-4.67-10.72-7.8-16.14-11.56c-4.12-2.86-7.17-6.42-9.56-10.66c-3-5.31-2.18-8.89,2.9-12.41
		c10.67-7.39,21.35-14.79,32.69-21.14c2.82-1.58,4.38-3.47,4.68-6.97c0.7-8.21,3.4-15.86,8.88-23.49
		c-10.36-0.32-14.05-8.35-18.78-14.7c-7.15-9.59-13.7-19.64-18.37-30.78c-3.49-8.32-2.43-10.31,6.76-10.76
		c10.4-0.51,20.47,1.56,30.4,4.53c4.42,1.32,8.92,2.32,13.42,4.72c0.57-3.14-0.92-5.01-2.12-6.81c-1.57-2.35-3.24-4.72-5.28-6.64
		c-4.69-4.41-8.07-9.55-10.77-15.41c-2.85-6.19-8.47-9.18-15.06-10.32c-11.65-2.02-23.27-4.14-35.03-5.46
		c-3.25-0.36-6.04-1.88-8.86-3.21c-2.57-1.21-4.74-8.07-3.74-10.76c0.71-1.92,2.36-2.79,4.3-2.89c2.16-0.12,4.39-0.34,6.48,0.06
		c7.97,1.54,15.96-0.11,23.93,0.29c0.65,0.03,1.33-0.14,2.01-1.19c-2.51-3.5-5.3-7.18-5.9-11.88c-0.13-0.99-0.46-1.95-0.56-2.94
		c-0.65-6.68,2.18-8.76,8.43-6.12c0.76-1.39-0.49-2.12-1.04-2.96c-7.48-11.45-15.51-22.45-24.93-32.44
		c-6.62-7.02-11.25-15.66-17.66-22.91c-1.89-2.13-4.09-3.91-5.95-6.04c-2.11-2.42-3.82-5.05-4.57-8.21
		c-0.98-4.15,0.71-7.39,5.06-9.82c2.88-1.61,5.03-1.11,8.1,2.6c3.82,4.61,7.47,9.38,10.99,14.23c6.39,8.8,13.29,17.07,22.52,23.09
		c0.69,0.45,1.28,1.08,2.25,0.92c1.8-0.81,1.38-2.4,1.29-3.86c-0.83-13.62-1.62-27.25-2.56-40.86c-0.26-3.83,0.17-7.71-0.32-11.47
		c-0.89-6.91,7-9.69,12.33-6.57c2.85,1.67,4.67,4.09,5.11,7.56c1.12,8.75,1.76,17.57,3.58,26.22c1.62,7.71,0.68,15.59,2.08,23.35
		c1.83,10.15,3.89,20.24,6.42,30.23c2.61,10.31,5.1,20.62,8.59,30.73c4.43,12.82,11.26,23.81,21.68,32.28
		c6.72,5.46,10.2,12.36,12.7,20.33c3.48,11.11,8.27,21.73,13.3,32.23c1.01,2.12,2.21,3.14,4.58,2.85c6.98-0.87,13.89,0.27,21,0.82
		c1.96-4.58,4.31-9,5.21-13.96c0.94-5.21,3.1-9.77,6.68-13.71c1.56-1.72,2.81-3.72,4.19-5.6c2.36-3.23,2.94-6.69,2.65-10.79
		c-1.5-21.64-2.07-43.28,2.87-64.64c0.95-4.12,2.66-7.93,5.81-10.85c3.38-3.13,6.58-2.64,9.2,1.17c1.69,2.45,2.09,5.21,1.98,8.1
		c-0.61,15.5,0.81,30.94,1.48,46.4c0.04,0.99-0.03,2.01,0.72,2.91c1.81,1.17,2.93-0.25,4.31-1.16c6.72-4.43,11.53-10.59,15.42-17.43
		c6.27-11.01,14.9-20.01,23.73-28.84c8.96-8.96,14.67-19.58,17.56-31.89c4.88-20.78,11.59-40.99,19.66-60.74
		c2.69-6.59,5.64-8.27,11.34-6.91c3.64,0.87,5.38,3.22,4.57,6.96c-1.54,7.14-3.45,14.18-5.66,21.15c-2.44,7.7-5.52,15.32-5.14,23.67
		c0.04,0.83-0.11,1.66,0.49,2.41c1.69,0.69,2.29-0.82,3.14-1.71c10.34-10.86,20.51-21.89,32.15-31.42c2.19-1.79,4.42-3.56,6.79-5.09
		c3.53-2.27,5.87-1.5,9.8,2.85c3.15,3.5,3.46,5.5,0.82,8.75c-8.6,10.59-17.06,21.25-27.37,30.36c-8.47,7.49-16.06,15.93-22.66,25.19
		c-1.35,1.9-2.65,3.87-4.47,5.36c-5.81,4.77-9.8,10.84-12.45,17.79c-1.44,3.77-3.32,7.25-5.62,10.51c0.86,1.59,2.31,1.09,3.58,1.05
		c9.83-0.28,19.63,0.03,29.35,1.74c0.82,0.14,1.64,0.29,2.44,0.53c5.23,1.53,6.18,3.79,3.44,8.4c-4.17,7.03-10.57,10.7-18.56,10.85
		c-8.25,0.16-16.11,2.26-24.1,3.7c-6.54,1.18-13.1,2.35-19.53,4.13c-1.94,0.54-3.91,0.99-5.58,2.07
		c-5.31,3.42-10.63,6.84-15.77,10.51c-6.19,4.42-10.9,10.04-14.21,17.06c-3.39,7.2-7.65,13.99-11.47,20.99
		c-0.77,1.4-2.02,2.67-1.65,4.97c11.08-11.3,25.67-12.96,39.88-15.7c13.95-2.7,27.97-3.79,42.14-2.36c0.83,0.08,1.66,0.14,2.48,0.27
		c3.9,0.62,4.82,2.25,3.03,5.83c-1.04,2.08-2.32,4.06-3.73,5.91c-9.36,12.33-18.47,24.92-29.68,35.67
		c-5.61,5.38-11.51,10.68-19.31,12.93c-5.16,1.49-10.53,1.15-15.79,1.71c-2.28,0.24-4.63-0.35-7.01,0.45
		c-0.12,0.79-0.46,1.5-0.28,2.03c6.23,18.18,4.08,36.78,2.88,55.34c-0.65,10.11-0.42,20.27-1.94,30.32
		c-0.25,1.66-0.11,3.23,1.19,4.64c4.95,5.36,10.85,9.78,15.28,16.03c2.69-9.01,3.97-18.21,9.01-26.19
		c4.74,0.48,8.39,2.46,11.28,5.96c10.56,12.78,18.77,26.91,21.47,43.36c2.34,14.22,1.93,28.71-3.65,42.28
		c-4.08,9.91-10.48,18.24-21.55,21.41c-3.23,0.92-3.63,3.65-4.37,6.12c-1.49,4.93-2.94,9.88-5.31,14.46
		c-6.83,13.21-17.32,23.06-29.28,31.52c-1.77,1.25-3.62,2.38-5.4,3.61c-1.8,1.25-2.44,2.91-2.23,5.17
		c0.75,8.29,1.29,16.6,1.08,24.93c-0.11,4.13,1.67,7.32,4.68,10.04c15.58,14.08,30.46,28.83,43.99,44.93
		c4.81,5.72,10.27,10.87,13.87,17.57c1.49,2.78,2.33,5.27,1.3,8.49c-1.79,5.56-3.98,10.96-6.41,16.24
		c-5.76,12.54-11.77,24.97-17.65,37.46c-1.21,2.56-2.29,5.18-3.47,7.75c-3.28,7.09-3.25,14.21-1.85,21.9
		c3.59,19.61,8.16,39.1,9.15,59.12c0.16,3.32,0.41,6.69,0.05,9.98c-0.81,7.58,1.22,14.81,2.16,22.18
		c1.48,11.55,2.98,23.13,3.58,34.75c0.51,9.87-3.62,10.13-11.07,6.45c-5.32-2.62-8.98-7.35-12.88-11.69
		c-0.99-1.09-1.65-2.51-3.55-3.26c-1.36,2.14-1.01,4.67-1.47,6.98c-0.81,4.07-2.23,4.74-5.79,2.69c-2.15-1.23-4.22-2.59-6.41-3.94
		c-2.55,2-2.81,5.33-4.92,7.5c-1.89,1.95-3.4,2.79-6.42,1.67c-10-3.72-17.14-10.6-23-19.15c-0.83-1.21-1.15-2.81-2.91-3.62
		c-4.19,2.72-7.56,6.75-12.23,9.05c-6.72,3.31-9.46,1.87-10.12-5.61c-0.22-2.49-0.24-4.98-0.24-7.48c0-2.46,1.55-4.77,0.6-7.84
		c-9.28,3.54-18.53,6.63-28.99,6.51c1.48,3.42,3.63,5.48,5.5,7.72c6.46,7.74,11.46,16.31,14.82,25.82c0.22,0.63,0.37,1.28,0.51,1.93
		c0.62,2.73,2.07,5.97-0.3,8c-2.34,2.01-5.72,1.16-8.64,0.27c-4.95-1.51-9.7-3.51-14.14-6.2
		C485.36,834.62,484.55,833.99,483.2,834.17z M476.8,779.97c0.85-0.51,1.41-0.66,1.66-1.02c6.54-9.46,14.8-17.04,24.59-23.06
		c2.24-1.38,4.1-3.1,4.36-6.26c0.68-7.99,3.08-15.67,5.24-23.33c5.51-19.64,13.47-38.14,24.91-55.24
		c8.56-12.8,18.77-23.82,31.31-32.47c5.75-3.97,10.01-8.56,12.66-14.87c0.45-1.07,1.04-2.08,1.56-3.11
		c1.45-2.91,0.79-4.41-2.53-4.59c-5.48-0.31-10.84-0.9-16.26-2.01c-9.74-1.98-19.68-2.9-29.32-5.62
		c-19.58-5.52-38.81-11.91-56.62-21.95c-3.8-2.14-7.94-1.91-11.42-0.61c-4.33,1.62-8.61,3.52-12.94,5.22
		c-2.26,0.89-3.65,2.27-4.66,4.69c-7.54,18.08-17.37,35.13-24.05,53.62c-4.12,11.42-8.8,22.63-7.13,35.24
		c0.56,4.25,1.58,7.92,4.74,11.15c4.77,4.87,9.66,9.63,14.1,14.83c13.42,15.75,21.79,34.56,32.1,52.2
		C472.21,768.13,473.55,774.22,476.8,779.97z M302.24,690.47c-0.29,3.87,1.92,6.7,4.14,9.34c3.64,4.32,7.75,8.25,11.33,12.61
		c10.78,13.14,17.69,28.49,24.11,44c3.98,9.61,7.19,19.55,9.93,29.64c1.02,3.77,1.65,8.04,4.65,10.88c3.5,3.3,7.44,6.13,11.2,9.16
		c0.99,0.8,2.45,1.34,3.18,0.42c2.63-3.35,6.72-6.67,6.16-10.95c-0.6-4.61-0.73-9.26-1.4-13.85c-2.29-15.49-3.05-31.12-3.38-46.73
		c-0.35-16.61-1.03-33.28,1.91-49.81c0.62-3.51,0.93-7.35-1.18-10.7c-3.2-5.08-3.79-10.57-2.6-16.32c0.91-4.39,1.98-8.75,2.96-13.13
		c1.76-7.8,4.7-15.24,6.98-22.89c0.48-1.62,0.97-3.08,0.18-4.8c-2.98-6.49-5.82-13.05-8.78-19.55c-0.92-2.01-2.14-3.71-4.77-3.77
		c-5.82-0.12-11.65-0.38-17.47-0.57c-1.62-0.05-3.16,0.2-3.3,2.18c-0.39,5.59-3.14,10.46-4.84,15.62
		c-2.44,7.4-4.94,14.88-9.01,21.61c-7.92,13.09-16.16,25.99-23.11,39.63C306.22,678.21,303.08,683.92,302.24,690.47z"/>
</g>
</svg>
