<?xml version="1.0" encoding="utf-8"?>
<!-- Generator: Adobe Illustrator 24.0.2, SVG Export Plug-In . SVG Version: 6.00 Build 0)  -->
<svg version="1.1" id="Layer_1" xmlns="http://www.w3.org/2000/svg" xmlns:xlink="http://www.w3.org/1999/xlink" x="0px" y="0px"
	 width="862.69" height="950" viewBox="0 0 862.69 950" style="enable-background:new 0 0 862.69 950;" xml:space="preserve">
<g>
	<path d="M424.21,950c-6,0-12,0-18,0c-0.9-2.05-2.75-1.48-4.34-1.54c-5.32-0.21-10.68,0.08-15.9-1.32c-4.94-1.32-5.54-1.6-5.59-6.75
		c-0.08-8.2-1.71-16.22-2.23-24.35c-0.07-1.13,0-2.38-1.35-3.02c-7.29,2.84-12.55,9.99-21.42,10.88c0.36-10.2,2.03-19.51,3.28-28.88
		c1.64-12.2,3.72-24.37,3.41-36.76c-0.15-6.19-1.12-12.27-2.97-18.18c-2.73-8.73-6.5-17.05-9.99-25.5
		c-7.43-18.01-15-35.92-25.33-52.55c-2.72-4.38-4.66-9.31-3.47-14.73c1.24-5.68,2.1-11.43,3.6-17.07
		c1.97-7.41,4.52-14.62,6.79-21.93c0.54-1.74,1.13-3.4,0.24-5.3c-3.02-6.47-5.89-13.02-8.87-19.51c-0.68-1.48-1.23-3.26-3.19-3.54
		c-7.39-1.07-14.79-1.56-22.42-0.76c-0.69,7.45-3.75,13.81-6.1,20.35c-2.29,6.39-4.36,12.91-7.92,18.82
		c-8.07,13.4-16.52,26.59-23.56,40.57c-3.03,6.03-6.34,11.96-6.98,19.03c-0.62,6.91,1.58,13.12,3.41,19.48
		c2.86,9.96,7.79,19.08,11.74,28.6c5.48,13.2,10.51,26.6,17.95,38.9c3.5,5.8,3.11,9.38-1.29,14.56c-2.91,3.42-5.94,6.75-9.07,9.98
		c-1.53,1.58-2.22,2.96-1.36,5.26c1.45,3.89,2.53,7.88,4.48,11.61c2.84,5.44,5.44,11.02,7.94,16.63c1.58,3.56,3.22,7.2,2.35,11.58
		c-3.81-0.61-7.22,0.53-10.7,0.5c-9.81-0.07-19.55-1.2-29.3-2.2c-2.51-0.26-3.85-1.28-4.8-3.55c-0.94-2.24-0.99-4.5-1.1-6.83
		c-0.25-5.45,0.94-10.86,0.98-16.61c-4.98-0.22-7.72,5.62-12.61,3.92c-0.6-2.69,0.35-4.85,1.04-7.05
		c3.82-12.15,5.47-24.62,5.87-37.33c0.33-10.33-1.32-20.59-0.68-30.93c0.21-3.43-0.05-7.03-1.27-10.36
		c-4.18-11.41-8.24-22.87-14.2-33.51c-2.53-4.52-4.41-9.34-6.78-13.9c-3.77-7.27-2.97-13.98,0.84-20.89
		c3.69-6.7,7.09-13.57,10.09-20.62c1.62-3.79,1.77-7.28-0.95-10.75c-3.89-4.98-7.5-10.18-11.36-15.18
		c-7.25-9.42-12.52-19.99-17.89-30.51c-0.87-1.7-2.27-2.84-3.38-4.28c-1.73-2.24-3.48-2.21-5.36-0.13
		c-7.26,8.03-15.36,15.15-23.37,22.42c-10.65,9.67-22.21,17.86-34.6,25.01c-9.9,5.72-19.92,11.28-29.52,17.47
		c-5.4,3.48-10.64,7.81-12.51,14.35c-1.24,4.36-3.18,8.39-4.61,12.64c-0.53,1.55-1.48,2.91-1.71,4.64
		c-2,14.71-6.9,28.72-10.41,43.06c-3.61,14.74-7.35,29.45-1.87,44.54c1.15,3.16,0.36,5.82-1.35,8.48
		c-3.36,5.22-7.65,9.64-11.96,14.04c-1.21,1.23-2.45,2.33-1.5,4.28c2.22,4.52,2.89,9.54,4.61,14.22c3.67,9.99,6.05,20.4,10.37,30.19
		c2.04,4.63,0.31,7.07-4.72,8.03c-0.98,0.19-1.98,0.3-2.97,0.39c-11.37,1.02-22.6-0.12-33.74-2.33c-6.89-1.36-7.74-2.59-7.6-9.81
		c0.13-6.66,1.47-13.25,1.25-19.93c-0.13-4.08,0.33-8.26-1.46-12.01c-6.93-0.92-11.77,5.77-18.81,4.68
		c-0.18-5.67,2.31-10.03,4.52-14.45c7-13.99,13.93-27.99,18.66-42.98c2.36-7.47,4.11-15.09,6.28-22.6
		c6.64-22.91,10.81-46.33,14.72-69.79c1.89-11.36,6.44-20.63,15.61-27.8c9.82-7.68,19.56-15.49,28.26-24.5
		c3.89-4.03,5.78-8.75,6.46-14.22c1.02-8.26,1.13-16.57,1.58-24.86c0.53-9.62,1.42-19.22,1.87-28.85c0.45-9.64,1.19-19.23,3.19-28.7
		c0.35-1.67,1.38-3.51-0.14-5.47c-6.81-1.72-14.36-1.19-21.22-4.85c2.47-7.19,11.28-7.47,14.44-13.45
		c-1.39-1.81-3.16-1.72-4.75-2.04c-10.61-2.11-21.39-3.38-31.82-6.28c-4.31-1.2-8.97-1.91-12.86-5.16
		c3.53-4.49,6.91-8.32,11.06-11.47c15.86-12,32.79-22.08,51.26-29.57c14.39-5.83,29.24-9.83,44.46-12.78
		c11.46-2.22,23.26-1.24,34.63-4.08c4.7-1.17,9.51-1.51,14.35-1.84c13.79-0.94,27.58,0.41,41.39-0.42
		c9.88-0.59,19.85,0.04,29.78,0.39c6.83,0.24,13.59-0.91,20.44-0.43c5.6,0.39,11.43,0.81,16.78-1.43c6.43-2.69,12.7-5.76,18.96-8.81
		c8.96-4.37,17.34-9.87,26.73-13.43c10.08-3.82,19.95-8.17,30-12.05c6.23-2.4,10.78-6.2,13.54-12.43
		c2.68-6.07,5.48-12.18,9.02-17.76c4.43-6.98,7.22-14.58,10.02-22.22c0.75-2.06,2.75-4.56,1.04-6.52c-2.03-2.33-4.58,0.34-6.93,0.53
		c-0.16,0.01-0.31,0.12-0.47,0.17c-11.25,3.25-21.38,2.15-29.26-7.59c-1.2-1.48-2.96-2.1-4.5-3.07
		c-6.88-4.33-14.15-8.19-17.98-16.03c-2.97-6.07-2.32-9.31,3.31-13.13c10.6-7.2,21.03-14.64,32.27-20.86
		c2.31-1.28,4.92-2.61,5.05-5.73c0.43-9.96,3.64-18.85,10.13-26.5c-2.27-1.81-4.96-1.61-7.2-2.73c-4.82-2.4-7.1-6.79-9.48-11.22
		c-6.05-11.26-13.49-21.78-17.23-34.25c-2.04-6.81-1.52-8,5.63-8.45c0.99-0.06,2,0,2.99,0.09c12.97,1.25,26.15,1.32,38.72,7.6
		c-1.48-7.72-1.29-15.38-8.91-19.53c-10.76,6.49-22.31,5.84-36.1-2.2c-2.18,10.95-7.9,20.02-14.4,28.79
		c-8.29-9.63-16.85-18.78-18.22-31.96c-1.9-0.55-3.46-0.98-5.22,0.16c-0.15,4.75,0.75,9.59-0.34,14.33
		c-2.24,9.75-6.68,18.37-13.37,25.86c-1.36,1.52-3.38,2.8-3.45,5.21c1.36,1.38,3.14,1.17,4.71,1.59c9.84,2.64,18.14,7.3,22.82,16.97
		c3.52,7.29,7.3,14.46,10.95,21.63c-4.69,4.22-6.73,4.87-25.46,8.18c0.66,2.09,2.28,3.67,2.8,5.78c2.73,11.12,1.02,21.4-5.49,30.87
		c-1.65,2.41-3.06,4.99-4.55,7.44c0.55,0.44,0.78,0.73,1.06,0.82c17.84,5.5,29.98,16.63,34.81,35.07c0.62,2.36,0.44,3.86-2.19,4.51
		c-11.19,2.78-22.4,4.62-34.82,0.87c5.13,10.87,5.88,21.8,3.54,32.58c-2.31,10.65-4.36,21.56-9.52,31.27
		c-8.58-2.24-15.28-6.33-21.22-11.4c-9.13-7.8-12.8-18.38-13.8-30.08c-0.15-1.8,0.56-3.95-1.3-5.44
		c-8.15,8.18-19.9,15.97-30.22,19.94c-6.72-26.33,2.47-46.87,23.11-63.92c-5.99-2.05-11.13-4-15.33-7.58
		c-8.63-7.36-13.85-16.72-13.69-28.09c0.09-6.73,2.19-13.36,5.45-19.55c2.41-4.57,5.32-8.75,8.71-13.2
		c-4.46-2.27-8.56-4.35-12.65-6.45c-1.47-0.75-2.62-0.22-3.48,0.95c-3.14,4.25-7.76,6.76-11.78,9.96
		c-5.49,4.37-11.88,7.15-18.95,10.3c-1.23-8.56-3.37-16.61-1.8-24.79c2.5-12.99,11.35-21.47,21.77-28.37
		c-1.08-7.62-1.69-14.85,1.88-22.21c-15.96-7.1-22.76-19.49-21.69-36.73c-6.88,0.14-13.71,0.61-20.45-0.33
		c-6.7-0.94-13.26-2.6-19.29-5.73c1.74-8.77,6.46-15.72,12.12-21.76c7.53-8.04,16.4-14.21,28.23-13.94
		c1.66,0.04,3.34,0.17,4.98-0.02c2.85-0.34,3.48-1.65,2.55-4.43c-1.64-4.92-2.43-9.86-1.68-15.14c0.79-5.58,2.73-10.45,5.96-15.04
		c2.53-3.59,5.21-6.79,9.06-9.08c6.34-3.77,13.1-6.21,20.91-7.02c-4.34-12.33,1.7-20.85,9.64-28.91
		c-17.44-9.72-31.37-22.23-38.43-41.5c16.02-1.92,31.64-1.59,47.07,0.9c7.61,1.23,15.17,3.83,20.55,10.3
		c2.08,2.5,4.68,4.57,7.43,7.2c4.3-6.63,11.2-8.75,17.99-11.48c-4.19-6.3-6.76-12.87-7.37-19.83c-1.63-18.42,4.94-34.24,16.58-48.19
		c1.17-1.4,2.5-2.66,3.37-4.29c0.33,0,0.67,0,1,0c0.46,0.69,0.89,1.39,1.37,2.07c7.37,10.47,14.9,20.8,18.26,33.52
		c1.17,4.43,1.39,9.01,2.37,13.62c22.74-15.44,48.5-12.16,62.93,10.7c17.34-5.33,32.04,0.23,43.5,13.24
		c11.72,13.31,12.49,29.27,7.18,45.92c3.99,1.19,7.87,2.56,11.16,5.09c3.41-2.39,6.49-4.64,9.68-6.74c3.2-2.1,7.22-2.19,10.68-3.86
		c-5-16.54-0.72-30.65,10.31-43.09c11-12.41,24.73-17.74,41.79-15.31c-2.82-11.76,0.08-22.41,4.36-32.79
		c2.39-5.78,2.55-5.7,7.63-1.7c0.65,0.51,1.36,0.96,2.06,1.4c7.15,4.4,12.58,10.29,15.89,18.08c0.56,1.33,0.82,2.94,3.16,4.15
		c1.43-4.69,6.1-6.51,9.03-9.85c5.64-6.43,13.39-8.34,20.52-11.72c4.26-2.02,8.88-0.93,13.25-1.82c8.3-1.69,16.62-0.37,24.01,2.64
		c11.89,4.85,22.69,11.9,30.64,22.49c1.14,1.52,2,3.51,4.18,3.87c1.33-0.58,1.62-1.77,2-2.84c2.58-7.38,7.86-12.65,13.68-17.48
		c11.8-9.79,26.2-13.25,40.65-16.57c0.42-0.1,0.93,0.22,1.57,0.38c5.39,20.65,0.48,38.45-15.49,53.59
		c20.12-0.03,35,8.81,48.15,21.91c-9.74,13.06-23.3,16.98-37.96,19.44c2.24,3.25,5,4.9,7.18,7.1c13.71,13.86,14.91,30.18,9.63,47.51
		c-0.94,3.09-0.69,4.62,2.39,5.15c6.35,1.11,11.34,4.71,16.27,8.35c6.29,4.64,11.04,10.73,13.42,18.16
		c3.41,10.62,3.5,21.27-1.71,31.53c-0.57,1.13-1.59,2.26-0.11,3.78c20.14-11.92,39.7-6.69,59.54,1.91
		c-6.81,15.14-17.16,25.78-32.26,31.81c13.09,12.42,11.22,25.91,3.91,39.83c21.66,3.05,36.27,14.29,40.66,31.09
		c-5.97,4.7-12.84,7.69-20.29,8.92c-7.55,1.25-15.19,1-23.2-1.29c-0.34,3.16-2.44,5.19-3.77,8.17c8.88,5.55,13.84,13.67,14.67,23.79
		c0.84,10.26-3.77,19.01-9.82,27.18c1.35,0.88,2.35,1.45,3.27,2.14c6.44,4.88,11.85,10.34,14.79,18.32
		c3.66,9.93,4.48,20.37,6.92,30.5c0.18,0.76,0.17,1.67-1.1,2.93c-10-0.81-19.77-4.61-29.8-7.72c0,0.67-0.06,1,0.01,1.31
		c0.12,0.48,0.33,0.94,0.52,1.4c5.2,12.75,5.81,25.82,2.79,39.17c-2.6,11.48-8.34,21.67-13.18,32.22c-0.9,1.96-1.05,4.52-3.04,5.89
		c-23.35-15.64-34.51-37.1-31.5-66.19c-9.56,8.07-19.81,11.5-30.93,12.67c-6.8-23.05,0.62-44.86,24.24-58.52
		c-20.61-20.32-14.91-41.31-1.58-62.66c-8.13-3.11-13.87-8.87-16.56-17.24c-2.72-8.46-1.18-16.66,2.98-24.39
		c-2.96-1.12-2.96-1.12-6.03-0.88c0.33,24.88-11.65,41.56-34.56,51.42c-11.59-21.95-6.49-41.06,9.13-58.35
		c-1.78-1.59-3.3-0.71-4.73-0.79c-13.27-0.71-25.31-4.04-33.46-15.71c-5.52-7.9-9.33-16.47-10.54-26.11
		c-0.2-1.6-0.12-3.36-1.71-4.62c-5.61,1.41-11.24,0.93-17.18-1.1c0.95,6.35,2.99,12.01,1.62,17.85c-1.31,5.59-0.55,11.82-4.91,17.18
		c-1.72-3.15-4.19-4.42-6.69-5.79c-8.85-4.85-15.45-11.89-20.19-20.83c-2.13-4.01-2.71-8.44-4.11-12.8
		c-22.69,6.34-39.42-1.77-51.83-20.85c-3.45,1.91-6.76,3.78-10.44,4.87c-0.75,0.22-1.61,0.75-2.02,1.39
		c-4.21,6.56-11.1,10.52-15.87,16.53c-0.72,0.91-1.57,1.76-2.11,2.77c-5.03,9.38-10.03,18.78-14.35,28.52
		c-0.59,1.33-1.46,2.82-0.68,4.47c1.41-0.4,1.87-1.41,2.28-2.24c3.82-7.71,11.01-11.26,18.47-13.46
		c21.99-6.49,44.41-10.28,67.5-7.67c4.86,0.55,5.87,2.21,3.66,6.49c-0.38,0.74-0.88,1.41-1.3,2.13
		c-5.33,9.11-12.65,16.72-19.03,25.03c-6.5,8.46-13.86,16.16-22.6,22.44c-4.95,3.56-10.11,6.04-16.46,6.18
		c-4.79,0.11-9.59,0.97-14.42,0.81c-2.63-0.09-3.1,1.37-2.52,3.57c0.55,2.09,1.86,3.86,2.18,6.08c1.3,9.04,2.63,18.06,2.05,27.26
		c-0.76,12.08-1.38,24.17-1.91,36.26c-0.41,9.46-1.02,18.98-2.35,28.28c-1.7,11.89-2.46,23.75-2.91,35.7
		c-0.15,4.13-0.84,8.25-1.38,12.36c-0.78,5.9,2.7,10.33,5.17,15.09c0.36,0.69,1.34,0.95,2.22,0.93c9.67-0.17,18.55,3.59,27.78,5.61
		c2.41,0.53,4.78,1.4,6.53,3.82c-2.74,5.13-6.3,9.64-10.53,13.68c-4.3,4.11-9.18,7.42-15.35,10.5c6.08,1.73,10.62,4.15,15.39,6.03
		c6.07,2.41,6.45,4.84,1.57,9.19c-0.62,0.55-1.3,1.04-1.98,1.53c-7.53,5.46-16.04,8.68-24.98,10.95c-2.5,0.64-5.24,0.6-7.38,2.19
		c0.07,2.69,1.96,4.45,2.27,6.8c1.37,10.34,0.24,20.55-1.76,30.67c-0.6,3.04-1.73,6.35-6.36,4.85c0,4.92,0.1,9.4-0.03,13.88
		c-0.13,4.54,1.51,8.06,5.23,10.69c1.22,0.86,2.3,1.92,3.37,2.97c11.07,10.8,22.53,21.27,32.52,33.09
		c7.39,8.74,16.1,16.38,21.83,26.57c2.12,3.78,2.46,7.12,1.13,10.88c-3.78,10.67-8.65,20.9-13.64,31.01
		c-7.36,14.91-14.5,29.88-19.22,45.86c-0.92,3.13-1.61,6.38-1.85,9.76c-0.64,8.79-0.54,17.61-1.23,26.41
		c-0.73,9.25-0.14,18.63,1.95,27.74c1.2,5.24,0.96,7.01-3.67,10.04c-3.59,2.35-7.29,4.53-10.94,6.78c0,5.68-0.09,11.15,0.02,16.61
		c0.21,10.77-2.75,21.06-4.77,31.48c-0.69,3.55-2.34,6.91-3.53,10.37c-0.54,1.57-1.48,2.64-3.27,2.49c-2.8-0.24-5.58,0.08-8.41-0.71
		c-7.87-2.22-12.51-7.88-16.37-14.5c-6.16-10.57-5.75-14.89,2.39-23.96c3.97-4.42,6.19-9.71,8.38-15.54
		c-6.17,0.14-11.91,3.02-17.91,0.82c0.41-3.35,0.88-6.29,2.28-8.97c6.54-12.53,12.42-25.39,18.09-38.32
		c3.3-7.52,6.87-15.12,5.58-23.94c-1.54-10.53-2.45-21.15-4.99-31.53c-2.47-10.11-0.82-19.5,5.65-27.87
		c2.54-3.29,4.95-6.7,7.45-10.02c4.1-5.46,6.9-11.62,9.78-17.5c-1.22-1.7-2.59-2-4.16-2.17c-16.54-1.86-33.02-4-49.07-8.69
		c-17.45-5.09-34.68-10.78-50.62-19.6c-6.43-3.56-11.83-3.15-18.66-0.98c-9.69,3.08-14.7,8.97-18.37,18.1
		c-6.44,16-14.77,31.18-20.99,47.34c-5.05,13.13-8.3,26.32-5.13,40.36c2.3,10.21,4.59,20.42,7.08,30.59
		c5.08,20.69,14.57,39.2,26.44,56.62c3.82,5.61,5.62,11.47,5.73,18.18c0.09,5.39-0.71,10.61-1.74,15.83
		c-0.6,3.04-0.27,5.67,0.98,8.64c2.83,6.76,6.62,13.08,9.09,19.97C420.24,935.32,424.04,942.13,424.21,950z M479.3,222.33
		c-7.71,12.03-15.68,17.94-27.96,19.52c-3.15,0.41-3.03,2.49-2.62,4.79c2.28,13,6.5,25.35,12.41,37.15
		c1.08,2.16,2.63,3.47,5.04,3.34c4.51-0.25,8.97,0.23,13.42,0.81c2.45,0.32,3.73-0.65,5.1-2.83c4.75-7.6,9.39-15.26,14.7-22.51
		c3.96-5.4,6.77-11.42,4.43-18.44C492.03,241.18,484.54,233.43,479.3,222.33z"/>
</g>
</svg>
