<?xml version="1.0" encoding="utf-8"?>
<!-- Generator: Adobe Illustrator 24.0.2, SVG Export Plug-In . SVG Version: 6.00 Build 0)  -->
<svg version="1.1" id="Layer_1" xmlns="http://www.w3.org/2000/svg" xmlns:xlink="http://www.w3.org/1999/xlink" x="0px" y="0px"
	 viewBox="0 0 897.86 950" style="enable-background:new 0 0 897.86 950;" xml:space="preserve">
<g>
	<path d="M679.12,0c2.14,10.89,0.65,21.51-2.49,31.99c-1.04,3.46-2.22,6.88-3.04,10.81c19.47-17.11,41.88-26.55,68.26-27.81
		c-2.2,7.11-4.95,13.09-8.38,18.82c-3.41,5.71-6.78,11.43-11.29,16.57c28.4-12.8,57.87-18.08,89.82-15.23
		c-3.4,6.95-6.91,12.73-11.83,17.65c-4.9,4.9-10.11,9.44-15.65,13.8c37.63-9.35,75.01-12.16,113.34,1.03
		c-15.82,14.73-34.21,23.2-52.36,32.11c-18.19,8.94-37.61,13.96-57.25,18.6c15.89,3.86,32.14,6.34,46.14,15.82
		c-1.73,3.5-4.2,5.44-6.91,7.07c-15.48,9.29-31.86,16.58-49.15,21.77c-3.83,1.15-7.82,1.61-11.82,1.92
		c-1.97,0.15-4.02,0.08-6.22,1.6c8.87,4.06,17.33,8.32,24.66,14.71c-4.78,5.93-10.78,9.53-16.96,12.74
		c-6.64,3.45-13.47,6.49-20.77,8.43c-7.53,2.01-15.18,1.89-22.83,1.6c-3.01-0.12-5.31,0.58-7.81,2.29
		c-11.86,8.07-25.18,11.85-39.43,12.62c-1.78,0.1-3.65-0.39-6.06,1.16c7.68,5.05,15.7,8.91,22.57,14.42
		c6.84,5.49,13.15,11.58,18.39,18.92c-3.4,3.05-6.72,5.14-10.45,6.64c-10.3,4.14-20.97,6.05-32.09,6.64
		c-17.17,0.91-33.39-2.93-49.41-8.3c-4.68-1.57-9.31-3.25-14.44-4.47c5.75,9.05,11.84,17.78,14.89,28.68
		c-7.93,3.48-16.01,2.98-23.97,2.56c-9.24,14.65-20.02,27.95-31.73,40.47c-6.82,7.29-14.42,13.71-24.3,16.86
		c14.07,2.27,26.43-0.99,36.81-11.04c3.78,12.67-2.06,36.19-26.01,50.22c2.59,0.16,4.43-0.63,6.29-1.35
		c2.01-0.78,4.04-1.52,6.07-2.27c2-0.74,3.23-2.94,6.35-3.07c-1.46,10.3-5.77,18.94-12.22,26.65c-6.52,7.79-14.91,12.35-25.06,13.94
		c4.05,2.59,8.49,0.7,13.18,1.79c-4.61,5.08-10.58,6.72-15.97,9.32c-0.89,0.43-1.88,0.64-2.81,0.97c-5.96,2.1-6.12,2.09-6.32,8.45
		c-0.48,14.85-3.21,29.43-5.07,44.1c-2.23,17.66-4.35,35.28-4.16,53.18c0.09,8.42-1.32,16.94-2.9,25.25
		c-0.98,5.17-1.41,10.2-0.58,15.29c1.76,10.88,1.57,21.82,1.39,32.77c-0.06,3.65,0.21,7.31,0.35,10.97
		c0.27,7.13,4.24,12.3,8.75,17.39c10.7,12.08,23.15,22.45,33.45,34.92c4.76,5.77,10.05,11.11,15.25,16.5
		c5.62,5.84,6.47,12.01,3.26,19.58c-5.71,13.48-11.82,26.75-18.3,39.86c-5.69,11.5-10.46,23.38-13.49,35.85
		c-1.89,7.78-1.29,15.87-1.88,23.82c-0.79,10.65-0.85,21.25,0.72,31.83c0.05,0.33,0.09,0.66,0.15,0.99c1.7,9.21,1.26,11.02-7.33,15
		c-5.08,2.35-6.7,5.42-6.37,10.62c0.56,8.83-0.01,17.67-1.77,26.34c-1.61,7.94-2.69,16.04-6.05,23.57
		c-0.95,2.13-1.96,3.03-4.38,3.07c-7.28,0.1-13.28-2.38-18.09-7.87c-2.32-2.65-4.49-5.39-5.9-8.63
		c-5.21-12.02-5.56-11.66,3.25-22.05c3.75-4.43,5.63-9.57,8.24-15.25c-6.28,0.41-11.67,2.98-17.37,1.39
		c-0.71-3.74,0.67-6.83,2.18-9.73c6.06-11.66,11.32-23.7,16.89-35.59c2.25-4.8,3.74-9.96,5.54-14.97c0.63-1.76,0.64-3.57,0.52-5.43
		c-0.79-11.65-2.23-23.21-4.95-34.58c-2.58-10.78-0.5-20.42,6.45-29.1c6.24-7.79,11.99-15.91,15.59-25.45
		c-1.89-3.04-5.09-2.1-7.7-2.46c-12.36-1.72-24.78-3.08-36.88-6.23c-20.97-5.45-41.42-12.33-60.43-22.98
		c-3.53-1.98-7.39-1.33-11.02-0.15c-3.16,1.03-6.09,2.8-9.28,3.64c-4.65,1.23-7.25,4.05-8.95,8.43c-3.68,9.46-8.41,18.46-12.83,27.6
		c-6.36,13.15-11.58,26.81-15.9,40.74c-2.43,7.85-1.35,16.28,0.13,24.27c2.39,12.91,5.86,25.59,9.32,38.27
		c2.92,10.69,7.99,20.36,13.18,30.04c3.23,6.03,6.53,12.01,10.74,17.39c5.12,6.55,5.35,14.11,5.08,21.82
		c-0.07,2.16-0.03,4.48-0.81,6.42c-3.27,8.17,0.75,14.99,4.12,21.68c4.3,8.51,7.45,17.41,10.63,26.33c0.65,1.82,0.42,3.61,0.49,5.42
		c-5.67,0-11.33,0-17,0c-1.07-1.7-2.75-1.52-4.45-1.55c-4.66-0.1-9.34,0.03-13.95-0.86c-6.78-1.32-6.98-1.54-7.46-8.29
		c-0.14-1.99-0.03-4.01-0.25-5.99c-0.72-6.5-1.55-12.99-2.35-19.59c-7.96,2.67-12.9,10.18-21.08,10.62
		c-0.83-1.36-0.62-2.2-0.57-3.01c0.98-14.47,3.77-28.71,5.56-43.08c2.09-16.78,0.24-32.82-6.45-48.34
		c-4.87-11.31-9.56-22.69-14.42-34c-4.35-10.11-9.94-19.58-15.44-29.08c-3.3-5.69-4.48-11.48-3.07-18.15
		c2.37-11.27,5.51-22.27,9.23-33.14c0.7-2.04,1.74-4.15,0.78-6.29c-3.04-6.83-6.19-13.6-9.36-20.37c-0.55-1.17-1.07-2.59-2.68-2.68
		c-7.07-0.38-14.13-1.62-21.27-0.64c-0.27,0.9-0.47,1.52-0.66,2.15c-4.83,16.65-10.57,32.83-20.24,47.52
		c-8.03,12.21-15.28,24.94-20.97,38.5c-2.86,6.81-2.55,13.45-0.77,20.38c2.5,9.72,6.28,18.92,10.41,28.03
		c6.78,14.98,12.06,30.63,20.52,44.86c3.6,6.04,2.98,9.46-1.79,14.87c-2.64,3-5.33,5.96-8.07,8.86c-1.57,1.66-2.23,3.03-1.44,5.66
		c1.45,4.83,3.49,9.3,5.71,13.78c2.58,5.21,4.95,10.52,7.33,15.83c1.21,2.72,1.86,5.57,1.52,8.52c-13.71,1.86-26.89,0.2-40.08-1.33
		c-1.97-0.23-2.79-1.1-3.54-2.83c-1.6-3.7-1.18-7.51-1.16-11.32c0.02-3.95,1.2-7.88,0.3-11.92c-4.58-0.67-7.04,5.51-11.62,3.68
		c-0.72-1.07-0.57-1.91-0.4-2.71c0.27-1.3,0.56-2.6,0.97-3.86c4.04-12.28,5.74-24.92,5.94-37.82c0.15-10.33-1.17-20.62-0.71-30.96
		c0.16-3.67-0.65-7.3-2.03-10.74c-4.26-10.65-7.97-21.54-13.76-31.51c-2.43-4.19-3.95-8.82-6.19-13.07
		c-3.38-6.4-2.75-12.37,0.51-18.55c3.33-6.33,6.1-12.96,9.53-19.23c2.94-5.37,2.45-9.76-1.41-14.58
		c-8.32-10.39-16.22-21.11-22.38-33.02c-2.34-4.53-4.25-9.32-7.62-13.33c-2.16-2.58-3.78-2.78-6-0.29
		c-6.98,7.85-14.89,14.71-22.67,21.75c-10.78,9.74-22.5,18.01-35.13,25.13c-9.41,5.3-18.71,10.82-27.82,16.6
		c-4.62,2.93-9.37,6.62-11.02,11.83c-2.44,7.72-6.3,14.93-7.69,23.07c-2.55,14.93-7.79,29.24-11.04,44.01
		c-2.79,12.7-4.96,25.53,0.11,38.28c0.97,2.43-0.1,4.53-1.32,6.59c-3.16,5.38-7.6,9.67-11.89,14.08c-1.39,1.43-2.22,2.57-1.42,4.75
		c5.09,13.89,8.32,28.4,14.19,42.04c2.35,5.46,0.59,8.3-5.28,8.86c-12.02,1.14-23.95,0.43-35.73-2.17
		c-6.01-1.33-6.86-2.67-6.46-9.05c0.25-3.99,0.56-7.98,0.77-11.97c0.36-6.57,1.01-13.17-0.96-19.67c-6.71-0.58-11.51,5.56-18.39,4.7
		c-0.34-5.7,2.26-10.21,4.54-14.74c5.98-11.89,12.02-23.74,16.32-36.38c4.82-14.17,8.3-28.71,11.97-43.21
		c4.37-17.28,7.26-34.85,10.33-52.37c1.9-10.85,6.19-19.77,14.96-26.61c8.53-6.65,16.75-13.67,24.78-20.93
		c5.89-5.32,9.09-11.61,9.66-19.55c0.48-6.65,0.16-13.34,0.85-19.95c1.1-10.59,1.14-21.24,2.09-31.82c0.78-8.6,1.3-17.24,2.98-25.77
		c1.8-9.13,3.48-18.27,6.74-27.07c-0.76-0.3-1.2-0.57-1.66-0.64c-18.03-2.83-30.59-12.9-38.55-29.08c-1.02-2.07-2.01-4.14-0.73-6.65
		c5.43,1.95,9.22,7.32,15.46,6.91c0.26-1.78-0.63-2.4-1.37-3.01c-3.43-2.83-5.61-6.4-7.1-10.58c-6.51-18.28-6.47-35.7,5.52-52.11
		c2.98-4.07,6.27-7.81,9.84-11.21c3.26-3.1,7.28-5.58,12.44-5.05c-5.21,19.57-0.28,36.93,7.97,38.97
		c0.12-17.74,6.9-27.24,12.69-31.04c2.04,9.15,6.87,16.75,13.65,22.78c7.54,6.7,16.58,11.19,26.33,13.75
		c4.88,1.28,9.83,3.44,15.17,2c9.06-2.43,18.38-3.23,27.68-3.43c14.62-0.33,29.25-0.01,43.87-0.03c13.45-0.02,26.9-0.18,40.34-0.16
		c5.33,0.01,10.78,0.62,15.75-1.69c5.71-2.65,11.52-5.1,17.16-7.94c8.16-4.1,15.8-9.18,24.4-12.47c11.17-4.27,22.2-8.91,33.27-13.46
		c4.96-2.04,8.63-5.44,10.9-10.43c2.2-4.84,4.53-9.64,7.16-14.24c4.46-7.81,8.69-15.72,11.55-24.26c0.91-2.71,2.5-5.45,0.73-8.73
		c-4.17,0.93-8.21,1.78-12.22,2.75c-8.72,2.09-15.62-1.3-21.64-7.19c-1.79-1.75-3.74-3.13-5.87-4.49
		c-6.38-4.08-13.29-7.59-17.06-14.88c-3.15-6.09-2.62-9.67,3.07-13.57c10.7-7.32,21.4-14.66,32.67-21.08
		c2.28-1.3,3.37-2.91,3.58-5.49c0.66-8.09,2.86-15.68,7.73-22.33c0.4-0.55,0.63-1.16-0.2-2.18c-4.18,0.31-7.68-1.84-10.4-5.2
		c-3.03-3.75-5.87-7.65-8.73-11.54c-5.33-7.25-9.97-14.93-14.17-22.88c-1.33-2.51-3-3.47-6.07-2.8c-6.56,1.42-13.19,0.42-19.82-0.08
		c-0.54-2.58-0.05-4.92,0.53-7.08c2.53-9.41,5.66-18.62,10.31-27.46c-9.17,6.54-18.65,12.19-29.58,14.84
		c-10.6,2.57-21.16,5.54-32.63,5.49c5.18-12.43,11.48-23.03,20.31-32.29c-23.94,1.54-46.66-2.02-68.94-11.39
		c8.76-9.93,19.75-14.76,30.99-20.57c-30.34,0.45-54.31-13.14-77.57-29.14c13.16-10.92,26.93-19.04,43.62-21.5
		c-13.21-3.33-26.12-6.51-37.49-13.93c-11.19-7.3-19.65-17.45-29.41-27.55c6.4-2.21,12.03-4.16,18.19-6.29
		c-17.4-10.93-31.15-24.29-40.8-41.76c8.62-2.7,16.42-5.16,25.6-6c-7.07-6.37-12.36-12.63-17.21-19.4
		c-4.86-6.8-7.21-14.42-10.64-22.34c29.85-3.81,55.34,6.3,80.52,19.94c-3.57-8.97-10.41-15.68-11.69-25.27
		c4.12-0.64,7.88-1.13,11.67-0.74c24.48,2.53,45.98,12.6,66.04,26.27c1.36,0.93,2.52,2.45,4.66,2.27
		c-4.24-11.39-7.73-34.24-6.34-41.52c3.72-0.24,7.17,1.02,10.35,2.66c25.06,12.93,42.8,33.16,56.54,57.6
		c1.2-12.95,3.81-25.31,7.34-38.25c8.04,7.18,16.12,13.5,22.73,21.38c6.75,8.06,10.78,17.56,13.64,27.82
		c1.82-5.59,5.19-9.94,7.95-14.64c2.88-4.87,6.65-8.94,11.12-13.65c9.55,16.9,8.47,34.89,9.31,53.37c4.08-4.25,8.67-6.24,13.11-8.46
		c4.64-2.32,9.51-4.16,14.66-4.8c5.2-0.64,7.48-3.75,8.34-8.44c0.49-2.66,1.5-4.97,3.86-6.64c14.49,10.89,23.25,25.77,30.85,41.84
		c6.33-28.82,21.96-50.36,47.31-65.69c5.04,9.9,2.49,20.48,4.78,30.32c2.47-5.28,5.71-9.92,8.48-14.82
		c7.69-13.56,18-24.88,30.94-33.29c11.26-7.32,23.08-13.91,35.35-19.53c1.44-0.66,2.85-1.53,4.58-1.07
		c-0.41,7.6-2.14,14.78-2.52,22.27c2.66-1.98,5.1-3.99,7.05-6.39c2.55-3.14,5.3-5.92,8.76-8.07c6.49-4.03,13.38-7.3,20.11-10.88
		c4.75-2.52,10.25-2.93,14.72-5.98C678.45,0,678.79,0,679.12,0z M448.91,303.03c5.32,0,10.75-0.73,15.89,0.18
		c6.56,1.16,9.98-1.85,12.76-6.89c3.77-6.84,7.58-13.65,11.33-20.5c0.76-1.38,1.84-2.82,0.52-4.43c-6.94,2.17-13.22,6.68-21.11,5.56
		c0.47-6.19,2.65-11.27,4.59-16.72c-10.66,6.39-21.53,11.34-34.46,12.03C442.36,283,444.72,293.16,448.91,303.03z M507.77,300.5
		c2.82-3.42,5.67-6.59,9.72-8.49c5.28-2.48,10.7-4.54,16.39-5.77c10.22-2.21,20.34-5.05,30.93-5.13c3.69-0.03,7.38-0.43,11.08-0.67
		c-11.22-6-21.31-13.08-30.8-21.7c-1.47,5.85-2.11,11.29-5.7,15.63c-4.57-2.25-6.64-6.69-10-9.59
		C518.06,274.45,511.23,286.46,507.77,300.5z M392.49,278.35c12.94,4.59,15.08,5,17.84,3.45c-1.99-4.28-3.19-8.97-6.65-12.82
		C400.45,272.65,396.09,274.57,392.49,278.35z"/>
</g>
</svg>
