<?xml version="1.0" encoding="utf-8"?>
<!-- Generator: Adobe Illustrator 24.0.2, SVG Export Plug-In . SVG Version: 6.00 Build 0)  -->
<svg version="1.1" id="Layer_1" xmlns="http://www.w3.org/2000/svg" xmlns:xlink="http://www.w3.org/1999/xlink" x="0px" y="0px"
	 viewBox="0 0 724.93 950" style="enable-background:new 0 0 724.93 950;" xml:space="preserve">
<g>
	<path d="M673.2,0c7.31,3.7,6.46,9.62,4.76,16.13c-3.65,13.99-6.98,28.06-10.5,42.33c1.2,1.68,3.35,2.28,4.99,3.46
		c2.21-0.77,3.22-2.56,4.34-4.18c7.04-10.22,15.64-18.95,24.92-27.15c4.73-4.18,9.19-8.69,14.23-12.53
		c3.75-2.86,7.59-1.52,8.63,3.04c0.59,2.56,0.51,5.15-0.84,7.74c-8.81,16.87-20.97,31.12-34.38,44.43
		c-6.39,6.35-11.72,13.63-17.45,20.54c-3.29,3.97-5.98,8.52-7.52,13.46c-2.68,8.6-8.07,15.18-14.47,21.16
		c-0.67,0.63-1.88,0.94-1.6,2.49c2.93,0.44,5.89-0.13,8.75-0.6c9.52-1.59,18.89,0.63,28.33,0.87c4.02,0.1,5.69,3.27,4.69,7.15
		c-1.67,6.46-9.31,12.99-16.09,13.03c-9.98,0.05-19.28,3.49-28.89,5.33c-8.67,1.66-17.11,4.29-25.04,8.31
		c-2.08,1.05-4.08,2.12-5.74,3.89c-2.1,2.24-4.93,3.82-7.89,3.97c-6.24,0.3-10.58,3.59-14.3,8.01
		c-11.85,14.08-21.67,29.46-29.04,46.35c-0.33,0.76-0.6,1.56-0.8,2.36c-0.11,0.46-0.02,0.97-0.02,1.84
		c1.57-0.27,2.22-1.46,2.72-2.46c4.03-7.91,11.29-11.8,19.11-14.2c14.13-4.34,28.52-7.56,43.41-8.63
		c10.01-0.72,19.93-1.18,29.91-0.2c6.45,0.64,7.55,2.71,4.17,8.35c-2.39,4-4.88,7.95-7.87,11.55
		c-8.61,10.37-16.33,21.51-26.03,30.94c-6.67,6.48-13.46,12.94-22.66,15.82c-5.62,1.76-11.51,1.37-17.28,1.88
		c-2.78,0.24-5.6,0.07-8.1,0.52c-0.75,1.56-0.65,2.77-0.25,3.83c5.17,13.72,4.81,27.93,3.98,42.23c-0.85,14.58-0.93,29.23-2.3,43.76
		c-0.85,9.06-0.68,18.28-3.05,27.19c-0.3,1.11-0.41,2.29-0.48,3.44c-0.78,12.72-0.89,25.52-2.57,38.12
		c-0.87,6.52,1.21,11.6,3.49,17.02c0.78,1.86,1.83,3.51,4.3,3.59c8.03,0.29,15.67,2.54,23.32,4.76c3.97,1.16,8.23,1.36,11.85,3.66
		c0.69,0.44,1.32,0.96,2.29,1.68c-6.66,11.68-15.67,20.57-28.46,26.47c6.18,1.95,11.57,4.41,16.98,6.83
		c6.47,2.89,7.04,5.29,1.48,9.82c-8.79,7.17-19.13,11.29-30.14,13.79c-2.38,0.54-5.02,0.35-7.34,2.64c2.58,4.46,3.3,9.57,3.18,14.69
		c-0.21,8.94-0.37,17.91-2.77,26.63c-0.88,3.19-2.2,5.81-6.22,3.78c0,6.68-0.11,12.81,0.05,18.93c0.08,2.97,1.83,5.36,3.98,7.24
		c17.3,15.18,33.32,31.61,48.28,49.1c3.35,3.92,6.86,7.71,10.31,11.55c2.93,3.25,4.63,7.29,6.88,10.96c2,3.26,0.71,6.88-0.58,10.12
		c-6.32,15.89-13.93,31.19-21.2,46.65c-4.21,8.97-8.07,18.11-11.54,27.47c-5.01,13.53-4.68,27.33-5.5,41.21
		c-0.5,8.49-0.43,16.93,0.14,25.39c0.28,4.13,0.22,8.26,1.83,12.28c1.5,3.73,0.36,6.88-3.15,9.04c-2.81,1.73-5.3,3.97-8.51,5.16
		c-3.11,1.15-4.73,3.11-4.58,7.13c0.4,11.13,0.51,22.37-2.03,33.3c-1.99,8.54-2.87,17.39-6.69,25.48c-1.05,2.23-2.11,3.22-4.76,3.32
		c-8.67,0.33-15.46-2.97-20.97-9.51c-4.93-5.85-8.16-12.48-9.82-19.92c-0.36-1.6,0.05-2.88,0.86-4.24c1.97-3.3,4.09-6.45,6.77-9.25
		c4.34-4.53,6.54-10.21,8.8-16.61c-6.68,0.02-12.53,3.24-18.82,1.36c-1.26-4.08,0.63-7.54,2.32-10.84
		c6.98-13.61,13.2-27.59,19.63-41.46c2.43-5.25,4.03-10.92,5.65-16.51c1.19-4.08-0.23-8.24-0.55-12.36
		c-0.88-11.3-2.91-22.43-5.16-33.53c-2.11-10.41,0.38-19.73,6.85-28.17c6.37-8.31,12.8-16.6,16.86-26.43
		c1.62-3.91,1.53-4.73-2.65-5.1c-11.96-1.05-23.76-3.18-35.54-5.33c-15.39-2.81-30.27-7.61-44.92-13.1
		c-11.22-4.2-22.27-8.66-32.58-14.85c-3.79-2.27-8.21-1.46-11.92-0.11c-4.34,1.57-8.6,3.53-12.96,5.12
		c-3.17,1.15-5.17,2.9-6.51,6.19c-4.77,11.7-10.56,22.95-16,34.35c-5.78,12.13-10.26,24.81-14.98,37.39
		c-5.25,13.99-2.99,27.65-0.16,41.59c2.48,12.24,5.99,24.19,9.31,36.19c1.9,6.87,4.1,13.62,7.71,19.92
		c6.28,10.96,11.38,22.62,19.19,32.67c5.27,6.78,4.46,14.72,4.62,22.47c0.05,2.31,0.09,4.85-0.76,6.91
		c-4.15,10.02,1.46,17.95,5.39,26.16c4.55,9.48,8.19,19.27,11.29,29.29c0.47,1.52-0.13,2.98,0.35,4.42c-6.33,0-12.67,0-19,0
		c-1.31-2.14-3.44-1.55-5.39-1.69c-6.45-0.47-12.98,0.22-19.29-2.04c-2.59-0.93-3.84-2.14-3.89-4.92
		c-0.16-9.17-1.54-18.24-2.44-27.34c-0.15-1.47,0.08-3.04-1.32-4.41c-7.86,3.29-13.74,10.7-23.37,12.23
		c0.14-5.8,0.39-10.99,1.1-16.21c2.41-17.79,6-35.46,5.88-53.54c-0.06-8.39-1.54-16.41-4.26-24.4
		c-6.57-19.23-15.23-37.58-23.25-56.19c-3.54-8.21-8.33-15.93-12.95-23.63c-4.62-7.69-5.84-15.36-3.74-24.3
		c2.78-11.84,5.99-23.5,9.94-34.97c1.08-3.16,0.95-5.88-0.67-9.03c-3.19-6.19-5.77-12.71-8.48-19.15c-1.1-2.62-2.8-3.75-5.68-3.91
		c-7.09-0.39-14.16-1.34-21.44-0.72c-1.75,3.83-2.42,7.97-3.6,11.9c-5.48,18.35-14.16,35.01-24.45,51.1
		c-7.32,11.45-14.03,23.36-19.11,36.1c-2.73,6.84-2.45,13.64-0.83,20.51c2.71,11.54,7.45,22.35,12.31,33.12
		c6.35,14.07,11.33,28.76,18.79,42.34c1.36,2.48,2.75,4.94,4.12,7.42c3.2,5.8,2.97,9.53-1.3,14.65c-3.2,3.83-6.56,7.55-10.08,11.09
		c-1.99,2-2.42,3.65-1.6,6.54c2.81,9.85,8.37,18.4,12.32,27.7c1.98,4.67,4.61,9.17,3.77,14.74c-12.48,1.09-24.7,1.22-36.88-0.98
		c-1.47-0.26-2.99-0.17-4.48-0.31c-6.26-0.59-7.98-2.32-8.1-8.8c-0.1-4.99,0.18-9.99,0.28-14.99c0.04-1.82,0.43-3.65-0.27-5.64
		c-4.94-0.67-7.72,5.89-12.93,4.24c-1.3-1.99-0.35-3.75,0.18-5.41c3.81-11.96,6.22-24.18,6.87-36.71
		c0.46-8.98,0.11-17.98-0.47-26.96c-0.1-1.5-0.3-3.02-0.14-4.49c1.33-11.82-2.22-22.52-6.38-33.43c-5.3-13.9-13.39-26.38-18.8-40.18
		c-2.23-5.68-2.48-10.91,0.2-16.35c4.05-8.21,7.94-16.5,12.11-24.65c2.72-5.31,2.61-9.93-1.35-14.73
		c-11.47-13.91-21.33-28.89-29.49-44.99c-1.33-2.62-2.33-5.38-4.68-7.51c-2.96-2.68-3.64-3.04-6.31-0.22
		c-5.73,6.04-11.53,11.99-17.68,17.62c-10.67,9.76-21.72,19.1-33.75,27.06c-9.67,6.4-20.15,11.56-30.12,17.54
		c-5.97,3.58-12.34,6.61-17.6,11.3c-4.86,4.33-9.66,8.72-10.32,15.8c-0.03,0.33-0.07,0.68-0.22,0.97
		c-6.79,13.04-7.67,27.73-11.66,41.55c-2.62,9.09-5.44,18.14-7.44,27.37c-1.68,7.78-2.63,15.76-3.29,23.7
		c-0.43,5.15,1.05,10.39,2.85,15.1c2.52,6.57-0.5,10.99-4.19,15.34c-3.76,4.42-7.31,9.07-12,12.92c1.16,5.21,3.09,10.17,4.76,15.14
		c3.93,11.65,6.75,23.66,11.84,34.94c2.36,5.24,1.86,8.56-6.24,9.58c-13.67,1.72-27.22,0.32-40.6-2.77
		c-4.98-1.15-6.63-3.46-6.31-8.84c0.45-7.48,1.46-14.91,1.47-22.43c0.01-4.49-0.16-8.94-1.02-13.59
		c-7.66-0.84-13.16,5.58-20.24,5.62c-1.6-2.33-0.68-4.33,0.01-6.37c3.12-9.36,8.18-17.8,12.42-26.63
		c7.65-15.95,13.4-32.56,17.71-49.7c3.68-14.66,7.8-29.23,10.51-44.12c2.44-13.39,5.04-26.74,7.22-40.18
		c1.38-8.52,4.91-16.62,11.86-22.48c9.03-7.62,18.34-14.9,27.21-22.69c4.33-3.8,8.71-7.68,11.72-12.79c4.09-6.94,4-14.74,4.37-22.3
		c0.46-9.3,0.42-18.61,1.63-27.89c0.68-5.25,0.87-10.62,0.71-15.91c-0.26-8.72,2.05-17.18,2.14-25.86
		c0.05-4.42,2.28-8.61,2.27-13.63c-7.8-2.14-16.26-1.42-23.46-5.28c0.26-3.48,2.37-5.28,4.68-6.51c2.97-1.57,5.35-3.96,8.31-5.5
		c1.19-0.62,2.48-1.36,1.98-3.02c-0.45-1.53-1.88-1.68-3.22-1.89c-11.34-1.8-22.66-3.68-33.84-6.33
		c-5.45-1.29-10.78-2.97-16.35-5.55c2.73-5.15,6.52-8.83,10.64-12.07c4.83-3.8,9.9-7.31,14.98-10.77
		c19.95-13.61,41.66-23.62,64.78-30.36c16.1-4.69,32.51-8.22,49.48-8.12c2.95,0.02,5.99-0.53,8.86-1.29
		c18.84-4.93,38.07-2.78,57.15-3.31c8.63-0.24,17.25-0.53,25.86-0.13c13.12,0.6,26.27-0.84,39.32,0.03
		c10.76,0.72,19.87-3,29.05-7.34c12.44-5.87,24-13.47,36.86-18.53c9.55-3.76,18.96-7.89,28.57-11.48
		c8.35-3.12,15.24-7.16,19.09-16.05c3.94-9.09,8.84-17.8,13.75-26.46c3.44-6.08,5.49-12.82,7.43-19.53c1.18-4.09,0.42-4.79-3.6-3.84
		c-4.52,1.07-9.08,1.93-13.66,2.75c-7.83,1.4-14.22-1.56-19.08-6.51c-5.27-5.37-11.78-8.53-17.73-12.62
		c-4.89-3.37-8.26-7.73-10.85-12.78c-2.45-4.77-1.2-8.98,3.26-12.16c12.2-8.69,24.75-16.86,37.69-24.39
		c2.22-1.29,3.46-2.78,3.7-5.42c0.92-10.12,3.66-19.6,10.39-27.56c0.3-0.35,0.36-0.9,0.62-1.59c-1.6-1.36-3.61-1.45-5.49-1.86
		c-5.86-1.28-10.12-4.55-13.24-9.75c-5.48-9.11-11.27-18.03-15.6-27.79c-1.62-3.65-2.96-7.37-3.82-11.28
		c-0.4-1.82-0.14-3.55,1.34-4.5c2.9-1.87,4.64-4.72,6.76-7.25c2.35-2.81,5.67-3.95,9.18-5.52c-1.4-7.06-1.6-13.95,4.65-19.3
		c-2.51-2.29-5.37-2.68-8.05-3.29c-11.52-2.63-23.16-4.7-34.91-5.95c-5.76-0.62-10.45-2.83-13.85-7.71
		c-3.65-5.24-2.11-9.83,4.2-11.15c5.07-1.06,10.27-0.89,15.43-0.56c4.99,0.32,9.97,0.71,14.95,1.05c2.16,0.15,4.33,0.25,6.43-1.25
		c-0.71-2.88-2.22-5.45-3.89-7.85c-2.33-3.34-3.98-6.83-4.54-10.91c-0.56-4.14,0.73-5.89,4.94-5.8c1.63,0.04,3.24,0.4,5.28,0.66
		c-5.54-11.4-11.25-22.26-21.36-30.08c-1.62-1.25-3.26-2-5.37-2.31c-8.65-1.3-11.56-4.87-11.44-13.72c0.03-2.27-1.32-3.68-2.67-5.15
		c-6.67-7.26-12.62-15.02-17.21-23.81c-3.24-6.21-1.07-12.93,4.98-14.54c2.77-0.74,5.26-0.41,7.17,2.07
		c1.32,1.71,2.72,3.37,4.21,4.95c2.64,2.8,5.21,5.51,9.81,3.59c1.48-0.62,3.55,0.16,5.33,0.3c3.36-8.73,5.68-10.95,14.51-13.76
		c0.63-3.58-0.64-7.12-0.82-10.71c-0.04-0.83,0-1.67-0.06-2.5c-0.72-11.29,5.68-11.81,14.73-9.85c2.93,0.64,3.3,3.52,3.95,5.89
		c2.85,10.42,5.12,20.96,6.24,31.73c0.27,2.64,0.87,5.21,2.65,7.41c3.26,4.03,3.18,8.85,1.79,13.31c-0.88,2.83-0.97,5.35-0.81,8.19
		c1,17.53,6.47,33.89,12.73,50.06c0.17,0.44,0.55,0.81,0.84,1.22c2.26,0.65,4.61-0.24,6.89,0.8c7.08,3.24,9.34,11.73,4.02,18.01
		c-2.82,3.33-2.69,5.96-0.95,9.37c2.44,4.78,5.3,9.12,9.33,12.82c6.25,5.75,12.3,11.74,18.06,17.97c3.05,3.3,4.73,7.59,6,11.96
		c3.21,11.02,6.55,21.99,9.65,33.04c0.89,3.17,2.47,4.36,5.71,3.79c5.64-1,11.29-0.62,16.92,0.2c4.16,0.61,7.32-0.28,9.54-4.42
		c5.47-10.24,11.88-19.99,16.41-30.73c1.12-2.66,1.65-5.51,1.19-8.33c-1.73-10.65-0.47-21.29,0.24-31.88
		c0.73-10.95,2.23-21.86,3.68-32.74c0.72-5.42,1.58-10.88,3.96-15.92c0.57-1.2,1.03-2.48,1.81-3.53c1.55-2.1,2.9-4.9,6.13-4.33
		c3.38,0.6,5.38,3.06,6.47,6.23c1.44,4.14,1.99,8.41,1.88,12.78c-0.03,1.14-0.26,2.35,0.73,3.62c3.81-1.19,7.81-2.24,12.38-0.17
		c0.58-9.49,3.78-17.1,13.72-17.08c12.6,0.03,15,0.08,20.45,14.88c8.89-8.42,14.23-18.79,17.59-30.53
		c5.25-18.38,11.03-36.6,16.72-54.85c2.71-8.7,4.72-17.61,8.69-25.96c1.8-3.78,4.62-5.76,7.67-7.91C670.54,0,671.87,0,673.2,0z"/>
</g>
</svg>
