<?xml version="1.0" encoding="utf-8"?>
<!-- Generator: Adobe Illustrator 24.0.2, SVG Export Plug-In . SVG Version: 6.00 Build 0)  -->
<svg version="1.1" id="Layer_1" xmlns="http://www.w3.org/2000/svg" xmlns:xlink="http://www.w3.org/1999/xlink" x="0px" y="0px"
	 width="697.73" height="861.46" viewBox="0 0 697.73 861.46" style="enable-background:new 0 0 697.73 861.46;" xml:space="preserve">
<g>
	<path d="M169.76,543.19c-5.24,2.21-8.6,4.7-12.02,7.43c-5.93,4.75-12.49,8.74-18.96,12.79c-6.06,3.8-12.39,7.17-18.51,10.87
		c-5.82,3.52-6.04,4.39-3.74,10.75c7.59,20.96,11.17,42.7,12.55,64.86c0.91,14.68,0.19,29.32-2.19,43.8
		c-1.53,9.31-3.57,18.61-8.22,27.06c-1.44,2.62-1.61,5.75-3.25,8.34c-0.87,1.38,0.01,2.43,1.13,3.4c2.14,1.85,4.28,3.72,6.21,5.78
		c3.2,3.42,2.55,6.02-1.92,7.23c-5.14,1.4-10.32,3.18-15.56,3.48c-5.29,0.31-8.9,2.97-11.92,6.38c-6,6.77-13.93,10.64-21.2,15.57
		c-8.05,5.46-17.34,8.26-25.85,12.69c-1.44,0.75-2.49,2.19-3.85,3.13c-10.82,7.45-21.67,14.85-32.51,22.28
		c-2.29,1.57-4.34,2.1-6.62-0.29c-2.08-2.18-4.84-4.58-2.36-7.29c2.48-2.71,2.91-6.04,4.56-8.93c3.63-6.36,6.49-13.27,11.35-18.77
		c6.99-7.91,9.95-17.95,15.2-26.74c6.93-11.59,12.31-23.89,17.24-36.4c7.6-19.29,15.33-38.57,20.85-58.59
		c2.96-10.72,4.8-21.74,6.62-32.74c1.54-9.31,2.2-18.87,6.28-27.65c0.83-1.78,1.43-3.83,1.49-5.78c0.2-6,3.42-10.4,7.43-14.25
		c9.49-9.11,19.7-17.35,30.36-25.1c9.96-7.25,20.12-14.21,30.04-21.51c6.39-4.7,12.02-10.51,19.3-14.03
		c3.24-1.56,4.95-5.41,8.74-6.04c0.71-1.04,0.54-2.02,0.27-2.99c-4.39-15.98-1.9-31.35,4.35-46.3c1.96-4.68,6.31-6.29,10.93-6.82
		c14.69-1.71,29.25-1.2,43.5,3.23c1.43,0.44,2.94,0.7,4.31,1.28c11.2,4.76,19.89-0.96,28.16-7.15c4.12-3.08,5.35-8.26,6.46-13.18
		c0.28-1.24-0.1-2.26-0.99-3.17c-1.63-1.66-3.11-3.49-4.83-5.05c-7.95-7.19-14.4-15.58-19.37-25.01
		c-5.08-9.64-8.26-19.93-8.72-31.17c-8.82-3.02-16.18-8.34-23.27-14.2c-4.07-3.36-9.17-2.01-13.86-1.37
		c-8.95,1.23-17.22,4.93-25.72,7.7c-10.9,3.54-22.17,6.07-32.45,11.42c-1.02,0.53-2.2,0.71-2.96,1.7
		c-4.52,5.8-11.05,8.35-17.64,10.73c-4.19,1.51-7.36,4.52-10.8,7.1c-3.2,2.4-6.57,4.41-10.06,6.38
		c-10.19,5.73-20.97,10.24-31.89,14.06c-17.02,5.96-34.43,7.33-51.55-0.47c-4.07-1.86-6.94-4.7-9.44-8.47
		c-4.77-7.22-5.42-14.86-5.08-23.26c0.73-17.9,6.21-34.23,14.55-49.8c1.83-3.41,3.31-7.02,3.97-10.75
		c2.79-15.82,11.01-28.56,21.44-40.35c8.52-9.63,19.05-16.57,29.97-22.75c11.13-6.3,23.08-11.08,35.33-14.97
		c18.87-5.99,37.88-6.98,57.08-1.74c10.32,2.81,17.7,11.83,19.72,22.23c2.42,12.45,1.09,24.28-2.37,36.38
		c-4.17,14.56-9.23,28.67-16.97,43c5.67-0.8,10.51-1.01,14.82-3.68c4.12-2.56,8.52-4.53,12.99-6.38c6.54-2.71,7.67-4.54,6.55-11.29
		c-1.63-9.87-0.26-19.53,1.76-29.16c1.27-6.05,5.86-8.37,11.27-8.99c10.57-1.21,21.02-0.39,30.92,3.79
		c5.8,2.45,11.72,4.62,16.96,8.38c4.06,2.92,8.18,5.62,10.64,10.25c3.22-1.26,5.24-2.92,6.61-6.23c-4.2-1.92-8.14-3.96-12.25-5.56
		c-12.03-4.67-22.91-11.38-33.46-18.67c-5.27-3.64-8.53-8.99-10.06-15.08c-3.28-13.07-5.27-26.43-8.31-39.55
		c-1.85-8-4.39-15.83-11.17-21.74c-4.18-3.64-7.99-8.06-10.64-13.14c-1.89-3.62-5.19-6.02-7.59-9.23
		c-8.82-11.76-15.96-24.55-23.15-37.29c-2.58-4.57-4.65-9.57-5.59-14.8c-0.94-5.25,0.78-6.86,5.97-5.83
		c11.21,2.21,21.5,7.03,31.63,11.99c11.35,5.55,22.33,11.85,33.48,17.81c1.98,1.06,3.85,2.47,6.65,2.47
		c-8.92-29.18-19.3-57.54-24.3-87.38c-0.06-0.35,0.45-0.8,0.86-1.48c3.59,1.68,5.29,4.98,7.16,7.94
		c6.48,10.27,11.53,21.36,15.78,32.63c3.22,8.53,7.23,16.78,9.73,25.58c0.18,0.63,0.24,1.31,1.54,1.61
		c0.63-3.31,1.02-6.62,1.42-9.99c1.91-16.18,2.95-32.5,6.21-48.47c1.71-8.39,4.01-16.75,7.41-24.73c2.93-6.86,5.11-7.29,10.03-1.64
		c2.43,2.8,4.27,6.02,5.65,9.39c5.55,13.52,11.38,26.96,16.2,40.75c3.93,11.26,7.57,22.67,10.51,34.27
		c0.81,3.22,1.78,6.41,2.86,9.55c1.62,4.7,4.77,5.29,7.84,1.45c3.96-4.95,8.97-8.87,13.52-13.17c7.95-7.51,14.8-16.16,23.78-22.62
		c6.74-4.84,13.11-10.19,19.67-15.28c1.45-1.13,3.04-2.03,5.12-2.28c2.93,2.56,3.44,6,2.84,9.49c-2.1,12.15-5.05,24.06-8.78,35.85
		c-3.41,10.79-7.82,21.21-11,32.05c-1.09,3.7-2.57,7.25-4.51,10.53c-5.08,8.59-6.55,17.57-5.74,27.61
		c1.18,14.58,1.23,29.29-0.65,43.89c-0.92,7.14-4.26,13.27-8.57,18.87c-6.91,8.96-14.73,17.1-23.21,24.6
		c-0.87,0.77-1.8,1.48-2.14,2.66c5.65,3.71,8.43,3.26,11.39-2.33c4.44-8.4,11.21-14.74,18.04-21.05c1.63-1.51,2.83-3.23,3.44-5.39
		c2.99-10.67,6.48-21.09,11.14-31.26c3.17-6.92,6.67-13.69,9.81-20.63c3.29-7.27,8.02-13.78,12.33-20.5
		c9.05-14.11,20.73-26.03,32.05-38.21c5.06-5.45,11.32-9.8,17.65-13.85c1.57-1,3.3-1.89,5.1-1.92c4.49-0.06,7.21-2.81,9.82-5.86
		c7.4-8.63,15.62-16.39,24.61-23.34c1.26-0.98,1.98-2.22,2.55-3.61c2.32-5.65,4.35-11.38,7.72-16.62c2.49-3.87,3.46-8.71,5.89-12.63
		c5.75-9.31,11.93-18.28,19.14-26.65c8.65-10.02,18.02-19.26,28.51-27.11c12.04-9.01,24.23-18.33,40.21-19.55
		c12.58-0.96,25.01-0.49,36.86,4.37c7.82,3.21,15.73,6.19,22.94,10.85c3.26,2.11,5.95,4.78,8.94,7.11
		c12.36,9.66,23.81,20.37,31.67,34.12c8.22,14.4,13.98,29.76,15.27,46.52c0.03,0.33-0.12,0.76,0.04,0.99
		c5.22,7.66,1.66,15.88,1.55,23.97c-0.75-1.28-0.17-2.87-0.86-3.7c-3.16,15.3-6.58,30.67-16.35,43.73
		c-5.51,7.37-9.46,10.04-20.68,6.61c-3.28-1-6.47-2.31-10.09-3.62c-0.57,4.82-1.13,9.21-1.57,13.62c-0.19,1.85-0.57,3.62-1.41,5.27
		c-1.9,3.77-3.95,4.66-8.15,3.82c-2.57-0.52-4.94-2.07-7.96-1.61c-1.14,2.44-1.14,5.08-0.57,7.62c2.65,11.96,8.12,22.59,16.68,31.29
		c10.14,10.31,18.87,21.47,24.34,34.96c2.02,4.98,3.01,10.21,3.04,15.56c0.06,9.39-5.89,15.52-12.62,20.47
		c-8.06,5.94-17.1,9.9-27.32,11.44c-11.21,1.69-22.33,3.41-33.73,3.16c-16.01-0.34-31.89-1.27-47.3-6.15
		c-12.26-3.89-23.93-9.04-34.81-15.91c-2.07-1.31-3.69-3.32-5.61-4.89c-4.03-3.3-8.38-5.68-13.75-6.43
		c-3.56-0.5-7.07-1.97-10.2-3.94c-2.39-1.5-4.22-1.53-6.75,0.21c-10.82,7.43-21.69,14.83-32.87,21.7
		c-12.18,7.49-24.78,14.29-38.32,19.12c-3.93,1.4-7.06,3.17-7.66,8.03c-0.35,2.86-1.99,5.56-3.01,8.22
		c1.25,2.11,3.24,2.07,4.97,2.25c6.69,0.68,13.03,2.57,19.2,5.2c12.54,5.36,25.48,9.72,37.76,15.73
		c9.99,4.89,17.96,12.04,23.83,21.39c2.48,3.95,3.93,8.65,4.13,13.24c0.29,6.59,0.32,13.23-0.52,19.88
		c-0.98,7.76-1.88,15.45-3.93,23.06c-3.25,12.07-9.66,22.53-15.76,33.17c-3.55,6.18-7.03,12.36-11.89,17.75
		c-5.2,5.77-13.75,8-20.8,4.64c-8.19-3.9-14.28-10.38-20.08-16.97c-7.36-8.36-14.19-17.19-20.94-26.05
		c-8.08-10.6-14.81-22.06-21.02-33.86c-4.5-8.55-8.71-17.2-11.74-26.39c-0.26-0.8-0.52-1.59-1.58-1.99
		c-0.87-0.24-1.33,0.48-1.76,1.18c-5.31,8.73-11.9,16.42-19.07,23.65c-1.08,1.09-1.91,2.05-1.97,3.79
		c-0.53,15.12-1.07,30.25-5.87,44.54c1.21,1.37,2.16,0.74,3.02,0.36c12.91-5.78,26.68-6.09,40.24-4.79
		c8.19,0.78,16.95,2.78,21.72,11.28c0.82,1.46,1.67,2.84,1.83,4.58c0.75,8.4,0.06,16.46-3.2,24.46c-3.14,7.72-7.16,15-10.33,22.68
		c-0.85,2.05-1.23,3.96-0.64,6.26c2.24,8.72,5.06,17.06,10.24,24.66c5.8,8.5,10.21,17.91,16.27,26.27c3.91,5.4,7.49,11,10.86,16.75
		c2.7,4.6,6.97,7.96,11.53,10.04c7,3.2,13.17,7.69,19.96,11.2c11.23,5.8,22.62,11.32,33.42,17.94c10.37,6.37,20.67,12.83,29.6,21.18
		c8.15,7.61,15.42,15.98,22.57,24.56c5.79,6.94,10.22,14.68,15.19,22.06c5.18,7.67,8.48,16.58,12.98,24.73
		c5.26,9.51,9.03,19.68,12.37,29.87c2.62,7.97,4.69,16.27,6.27,24.6c2.2,11.64,3.12,23.47,2.58,35.22
		c-0.57,12.58,1.22,25.23-1.14,37.75c-1.54,8.14-7.46,10.93-14.63,6.81c-10.28-5.91-18.89-13.82-25.45-23.57
		c-5.41-8.03-11.57-15.14-18.41-21.99c-13.5-13.51-25.72-28.18-36.95-43.72c-8.47-11.72-16.89-23.48-25.04-35.42
		c-3.63-5.32-7.52-10.54-10.44-16.38c-2.53-5.06-6.8-8.98-9.23-14.21c-8.81-18.98-18.48-37.54-26.53-56.9
		c-3.63-8.74-6.98-17.54-9.83-26.51c-1.95-6.11-6.62-9.86-10.4-14.38c-11.4-13.66-22.97-27.18-34.56-40.68
		c-3.03-3.53-6.34-6.83-9.58-10.19c-1.29-1.34-2.9-2.24-4.68-2.8c-5.17-1.61-7.51-0.5-8.89,4.72c-2.08,7.83-3.97,15.7-6.08,23.53
		c-2.22,8.21-6.5,15.32-10.63,22.49c-7.22,12.55-16.48,23.7-25.06,35.32c-5.44,7.37-12.28,13.01-18.98,18.96
		c-7.48,6.65-15.21,12.88-24.17,17.5c-7.4,3.81-15.2,6.67-22.8,9.99c-6.55,2.86-13.33,4.9-20.51,6c-7.39,1.13-12.49-2-17.26-6.76
		c-9.14-9.12-16.27-19.79-22.08-31.15c-3.67-7.17-6.19-15.05-8.03-23c-5.05-21.83-5.94-43.83-2.07-65.92
		C166.1,557.69,166.71,550.74,169.76,543.19z"/>
</g>
</svg>
