<?xml version="1.0" encoding="utf-8"?>
<!-- Generator: Adobe Illustrator 24.0.2, SVG Export Plug-In . SVG Version: 6.00 Build 0)  -->
<svg version="1.1" id="Layer_1" xmlns="http://www.w3.org/2000/svg" xmlns:xlink="http://www.w3.org/1999/xlink" x="0px" y="0px"
	 width="762.97" height="861.2" viewBox="0 0 762.97 861.2" style="enable-background:new 0 0 762.97 861.2;" xml:space="preserve">
<g>
	<path d="M113.68,859.54c-4.21-6.67-3.91-13.89-3.63-20.95c0.23-5.88,0.14-6.34-5.84-5.68c-6.45,0.71-12.89,1.57-19.35,2.2
		c-2.97,0.29-6.23,0.93-8.93,0.07c-4.92-1.56-8.21,0.4-11.72,3.24c-6.61,5.36-14.1,9.45-21.29,13.96c-3.4,2.13-6.7,4.36-9.69,7.03
		c-1.44,1.28-2.92,2.49-4.86,1.34c-1.84-1.09-1.1-2.98-0.85-4.55c1.82-11.52,6.37-22.03,12.33-31.93c2.3-3.83,3.77-7.24,0.5-11.28
		c-0.97-1.2-1.5-2.89-1.9-4.56c-0.8-3.39-2.25-4.24-5.36-3.06c-9.3,3.53-19.31,5.28-27.76,11c-1.58,1.07-1.7,0.88-5.33-0.79
		c4.02-7.54,7.06-15.53,12.79-22.15c10.38-12,21.23-23.45,34.44-32.42c1.6-1.09,2.48-2.58,3.24-4.3
		c7.3-16.48,16.58-31.83,26.43-46.88c7.11-10.87,14.61-21.46,22.21-31.97c9.98-13.79,21.27-26.53,33.6-38.24
		c7.72-7.33,14.28-15.47,19.04-24.86c4.78-9.44,13.06-14.41,21.74-19.05c3.79-2.03,7.9-3.5,12.1-4.67c5.17-1.44,9.58-3.98,13.56-7.9
		c4.65-4.59,8.4-9.88,12.79-14.65c2.4-2.61,3.25-5.52,1.3-9.47c-7.14-14.42-9.91-30.08-10.32-45.95
		c-0.27-10.26,1.01-20.62,2.27-30.86c2.56-20.83,6.29-41.46,11.97-61.7c1.29-4.6,1.29-9.54,3.49-14.02
		c2.87-0.07,3.26,2.15,3.94,3.88c3.97,10.05,7.89,20.13,11.78,30.22c2.03,5.27,4.44,10.38,6.13,15.8c1.43,4.57,3.46,5,7.99,3.32
		c3.38-1.25,5.56-2.91,6.37-6.74c0.47-2.22,1.6-4.79,4.36-6.07c3.11,1.02,3.48,4.04,4.27,6.62c0.73,2.41,1.71,4.21,4.52,4.61
		c10.47,1.48,15.88,8.9,20.23,17.5c0.36,0.71,0.22,1.7,1.62,2.11c13.92-14.39,30.16-25.49,50.21-30.53c-1.2-2.87-4.02-3.7-5.65-5.81
		c-11.53-14.88-15.07-31.57-11.76-49.88c0.53-2.94,0.57-6.04,1.94-8.75c2.24-4.43,0.55-7.79-2.8-10.53
		c-10.56-8.64-13.36-20.37-12.8-33.11c0.42-9.59,4.8-17.89,10.56-25.45c0.7-0.92,1.35-1.89,1.98-2.87c0.17-0.26,0.15-0.64,0.27-1.26
		c-2.71-2.56-2.65-5.62-1.84-9.37c1.65-7.62,3.02-15.39,1.7-23.28c-0.19-1.13-0.15-2.35-1.21-3.25c-2.33-0.61-4.51,0.54-6.79,0.84
		c-2.89,0.38-4.72-0.49-5.52-3.59c-0.9-3.49-0.93-6.92-0.26-10.39c0.46-2.41,0.25-4.45-1.66-6.37c-2.21-2.23-2.42-5.44-2.88-8.35
		c-2.87-18.18-11.54-33.29-24.99-45.47c-8.78-7.95-20.12-9.85-31.61-10.38c-3.15-0.15-6.34,0.28-9.48,0.08
		c-6.2-0.4-7.31-1.73-6.54-7.79c1.17-9.24,2.28-18.51,3.83-27.69c2.68-15.86,4.22-31.82,1.48-47.71c-2-11.56-4.75-23.14-11.21-33.29
		c-1.9-2.99-2.68-6.41-4.47-9.45c-9.04-15.38-21.7-27.46-35.73-37.96c-9.54-7.14-19.98-13.25-31.8-16.34
		c-1.67-0.44-3.98-0.76-4.04-3.05c-0.06-2.15,1.99-2.96,3.67-3.61c5.51-2.12,11.37-2.46,17.16-2.85c18.54-1.23,36.31,2.6,54,7.84
		c19.82,5.88,38.44,14.08,55.4,25.85c16.35,11.35,30.96,24.47,43.5,40.18c9.24,11.58,10.47,23.68,6.95,37.03
		c-4.8,18.2-6.84,36.62-5.07,55.4c0.63,6.64,2.01,13.05,5.02,19.19c2.88,5.87,7.41,9.88,12.86,12.63c4.96,2.5,9.43,5.57,13.94,8.69
		c6.43,4.45,12.96,8.74,19.79,12.61c4.01,2.27,7.9,2.14,11.92,1.24c2.89-0.65,5.45-2.45,8.45-2.99c2.52-0.45,2.17-2.52,2.21-4.34
		c0.19-7.83,0.2-15.68,1.39-23.43c2.17-14.14,3.62-28.43,6.87-42.37c4.12-17.65,5.91-35.78,11.05-53.21
		c2.21-7.5,4.59-14.96,7.22-22.32c0.83-2.32,1.96-6.17,4.96-5.32c3.47,0.98,2.17,4.82,1.39,7.35c-1.69,5.45-1.35,10.92-0.55,16.34
		c2.48,16.71,2.73,33.51,2.65,50.34c-0.06,12.3-0.89,24.56-1.67,36.74c1.88,0.86,2.14-0.63,2.8-1.45c1.01-1.24,2.21-2.04,3.89-1.63
		c1.95,0.47,1.81,2.08,1.97,3.57c0.72,6.66,0.07,13.32,0.02,19.97c-0.06,8.52,0.67,16.96,1.12,25.43c0.11,2,1.17,3.4,2.29,4.86
		c3.16,4.08,6.41,8.09,9.39,12.29c2.14,3.01,5.21,3.48,8.36,3.42c6.65-0.13,13.3-0.62,19.95-0.84c7.83-0.27,15.65,0.28,23.47,0.73
		c1.99,0.11,4.03,0.34,5.12,2.76c-3.04,4.55-7.49,7.82-11.5,11.48c-8.48,7.75-17.1,15.36-26.32,22.24
		c-1.83,1.37-2.29,2.94-2.59,5.02c-1.27,8.62-1.04,17.22-0.07,25.83c0.67,5.97,0.88,11.95,0.6,17.96c-0.21,4.59-1.94,6.99-6.54,7.98
		c-9.18,1.99-17.63,5.97-26.34,9.25c-0.42,0.16-0.71,0.62-1.5,1.34c5.41,5.03,0.41,12.92,4.89,18.26c2.16,0.28,3.01-0.91,3.91-2.18
		c9.38-13.16,21.24-23.89,33.87-33.74c15.9-12.4,32.45-23.89,50.16-33.62c19.24-10.58,38.25-21.56,57.83-31.56
		c12.92-6.6,26.04-12.62,39.39-18.18c20.45-8.51,41.67-14.87,62.69-21.73c11.96-3.9,24.35-6.61,36.77-9
		c9.31-1.79,18.53-4.04,28.09-3.88c1.66,0.03,3.31,0.24,4.96,0.41c1.31,0.14,2.13,0.93,2.37,2.21c0.24,1.26-0.21,2.2-1.41,2.88
		c-8.92,5.03-15.13,12.71-21.2,20.78c-10.93,14.55-23.81,27.34-37.43,39.41c-12.09,10.71-23.98,21.67-35.76,32.73
		c-4.12,3.87-9.27,6.46-13.78,11.59c12.23,0.56,23.65-1.82,34.88-0.61c0.56,1.15,0.33,1.95-0.36,2.5
		c-11.7,9.38-22.13,20.16-33.19,30.24c-16.14,14.71-32.89,28.68-50.56,41.52c-8.08,5.87-16.18,11.67-24.8,16.8
		c-10.53,6.28-21.69,10.83-33.29,14.59c-17.38,5.63-35.13,7.28-53.27,5.8c-5.88-0.48-11.37-2.45-16.97-4.03
		c-1.92-0.54-3.8-1.26-5.75-1.65c-5.41-1.08-6.91,0.14-7.61,6.06c0.36,0.21,0.76,0.64,1.17,0.67c10.85,0.64,20.64,4.97,30.58,8.76
		c4.46,1.7,8.16,4.53,11.19,8.17c5.64,6.77,12.86,11.63,20.15,16.26c9.7,6.15,19.82,11.64,30.34,16.32
		c17.64,7.85,35.29,15.63,53.97,20.87c16.12,4.52,32.55,6.87,49.17,8.3c10.44,0.9,20.84,2.22,31.27,3.21
		c6.87,0.65,11.81,4.21,15.46,9.79c3.75,5.72,6.55,11.95,9.54,18.09c6.55,13.44,8.64,27.54,6.86,42.26
		c-0.74,6.11-1.61,12.23-2.93,18.23c-3.04,13.85-3.95,28.03-6.79,41.9c-3.57,17.44-7.15,34.86-13.25,51.65
		c-2.65,7.3-6.72,13.72-11.93,19.43c-5.84,6.39-11.98,12.51-16.81,19.76c-0.55,0.83-1.2,1.62-1.93,2.28
		c-17.87,16-32.92,34.87-51.45,50.22c-5.27,4.36-10.76,8.41-16.11,12.65c-2.11,1.67-3.44,3.55-3.42,6.29
		c0.01,1.62,0.51,3.46-1.44,4.4c-2.05,0.99-2.9-1.03-4.25-1.8c-0.29-0.16-0.61-0.27-0.83-0.36c-4.64-0.01-8.06,7.76-13.48,2.35
		c0.04-2.31,1.87-2.57,2.89-3.56c2.9-2.81,2.89-5.42-0.21-7.88c-2.99-2.39-6.03-4.52-10.24-4.54c-8.62-0.04-17.18-1.84-25.85-1.13
		c-1.14,0.09-2.36-0.16-3.63,1.04c1.84,6.51,2.25,13.38,1.86,20.14c-1.89,0.81-3.05,0.16-4.01-0.81
		c-5.81-5.9-12.66-10.92-15.75-19.09c-1.09-2.89-2.85-5.21-6.24-5.78c-0.94-0.16-1.75-1.06-2.7-1.27
		c-14.31-3.15-20.24-14.48-25.76-26.24c-5.17-11-10.12-22.06-12.13-34.2c-0.41-2.49-0.61-4.93-0.6-7.44
		c0.09-15.14,1.18-30.28-0.78-45.4c-1.76-13.61-5.69-26.37-14.09-37.37c-4.49-5.88-4.75-12.38-3.44-18.99
		c0.63-3.19-0.15-4.84-2.35-6.81c-2.85-2.56-5.83-4.93-9.25-7.51c-9.88,6.53-20.72,9.87-32.89,8.46
		c-12.01-1.39-22.42-5.98-31.48-14.5c-3.9,3.99-7.07,8.52-11.43,11.85c-12.88,9.86-26.38,18.74-42.15,23.2
		c-7.6,2.15-15.28,4.51-23.53,3.47c-7.26-0.92-12.36-5.11-16.34-10.42c-6.2-8.27-11.14-17.46-14.27-27.31
		c-2.3-7.24-4.42-14.7-4.07-22.51c0.04-0.84,0.03-1.67-0.75-2.39c-0.38,0-0.95-0.17-1.32,0.02c-8.79,4.6-18.31,4.34-27.8,4.25
		c-0.83-0.01-1.85-0.26-2.45,0.12c-7.19,4.64-15.25,8.29-19.29,16.64c0.05,1.15,1.09,1.59,1.77,2.26c7.16,7.15,8,11.33,4.05,20.56
		c-0.2,0.46-0.41,0.92-0.7,1.32c-9.52,13.23-12.38,28.95-16.24,44.23c-1.45,5.76-1.77,11.83-2.36,17.78
		c-1.37,13.75-3.4,27.41-5.25,41.09c-2.59,19.13-7.04,37.93-9.4,57.08c-0.97,7.84-4.63,14.93-7.06,22.35
		c-0.98,3.01-3.4,5.3-6.22,6.96c-3.74,2.19-7.53,4.37-11.66,5.64c-9.21,2.85-18.06,6.77-27.6,8.68c-3.56,0.71-5.38,4.19-7.01,7.21
		c-3.86,7.18-7.51,14.47-11.23,21.72C117.5,856.19,116.77,858.49,113.68,859.54z M589.59,728.09c1.59-4.1,0.54-8.17,0.38-12.19
		c-0.64-15.44-0.43-30.96-3.69-46.19c-1.32-6.18-2.85-12.33-3.82-18.57c-1.93-12.35-4.72-24.5-8.23-36.48
		c-2.14-7.32-4.28-14.61-8.26-21.3c-9.03-15.16-20.39-27.89-36.04-36.45c-13.46-7.35-28.07-11.27-43-14
		c-5.26-0.96-10.71-1.76-16.27-1.26c-0.13,1.04-0.35,1.7-0.28,2.32c1.31,11-0.81,21.72-4.38,31.87c-1.84,5.24-1.34,8.74,1.82,12.61
		c0.72,0.88,0.99,2.13,1.66,3.06c3.11,4.35,6.03,8.92,12.64,7.83c1.92-0.32,3.83,0.69,5.66,1.63c10.89,5.58,18.97,13.89,24.6,24.71
		c3.94,7.57,8.74,14.65,14.68,20.71c8.4,8.56,16.43,17.43,24.17,26.58c2.47,2.92,4.87,5.92,7.55,8.64
		c4.92,4.99,9.37,10.28,13.08,16.28C577.96,707.76,584.01,717.66,589.59,728.09z M439.64,510.37c2.02-0.52,2.48-1.92,2.94-3.4
		c1.63-5.23,3.28-10.46,4.99-15.67c0.71-2.14,0.61-4.04-0.26-6.23c-2.37-6.02-6.62-10.71-10.49-15.68
		c-0.79-1.01-1.81-1.99-3.43-1.59c-0.79,1.43-1.83,2.78-2.33,4.31c-1.7,5.21-5.93,7.08-10.66,7.73c-6.42,0.89-12.92,1.23-19.37-0.04
		c-1.14-0.22-2.27-0.65-3.5,0.59c0,3.71,2.82,6.89,3.01,10.73c0.16,3.33,2.06,4.62,5.23,4.6c3.69-0.03,7.24,0.63,10.74,1.91
		c6.31,2.3,12.01,5.42,15.54,10.76c2.22,0.18,2-2.33,3.3-2.08C437.7,506.97,437.69,509.44,439.64,510.37z M347.61,237.11
		c-1.67,4.32-3.18,7.95-4.48,11.66c-1.46,4.17,0.37,8.83,4.41,11.76C353.36,252.63,353.55,245.69,347.61,237.11z"/>
</g>
</svg>
