<?xml version="1.0" encoding="utf-8"?>
<!-- Generator: Adobe Illustrator 24.0.2, SVG Export Plug-In . SVG Version: 6.00 Build 0)  -->
<svg version="1.1" id="Layer_1" xmlns="http://www.w3.org/2000/svg" xmlns:xlink="http://www.w3.org/1999/xlink" x="0px" y="0px"
	 viewBox="0 0 861.34 803.73" style="enable-background:new 0 0 861.34 803.73;" xml:space="preserve">
<g>
	<path d="M191.56,603.48c-35.99-23.91-70.45-49.48-103.89-77.05c-2.44,3.03-5.11,5.96-7.37,9.19
		c-7.02,10.06-16.63,16.51-28.48,18.63c-11.08,1.98-21.81-0.21-31.39-6.66c-10.29-6.91-16.63-16.17-17.15-28.83
		c-0.38-9.22,1.31-17.75,6.32-25.94c3.78-6.18,7.96-11.33,14.23-14.87c1.71-0.96,3.1-2.48,4.06-3.27c0.01-2.87-1.42-3.61-2.58-4.47
		c-6.25-4.65-10.55-10.87-15.02-17.16c-6.32-8.92-9.04-18.68-10.16-29.29c-0.45-4.24,0.4-8.27,0.53-12.4
		c0.14-4.15,1.32-8.22,1.2-12.41c-0.03-0.96,0.33-1.98,0.7-2.9c6.64-16.57,16.19-30.94,31.7-40.5c10.59-6.52,22.02-11.29,34.6-11.31
		c4.96-0.01,10.53-0.65,15.12,2.1c4.97,2.97,10.05,6.19,13.24,11.13c3.68,5.68,6.62,11.72,8.49,18.44
		c3.29,11.77,2.62,23.52,0.8,35.17c-1.47,9.47-4.39,18.74-9.83,26.91c-3.16,4.74-2.45,8.45,2.62,11.53
		c5.84,3.55,12.05,6.37,18.5,8.66c20.91,7.4,42.11,13.61,64.2,16.38c5.45,0.68,10.93,1.13,16.33,2.09c4.48,0.8,7.07-1.41,8.86-4.85
		c3.15-6.05,6.03-12.23,9-18.38c2.03-4.19,4.02-8.4,7.27-12.07c-2.22-3.07-5.32-4.67-8.1-6.65c-5-3.58-10.65-6.52-14.89-10.84
		c-8.26-8.41-16.84-16.53-25.16-24.86c-8.56-8.58-16.32-17.86-24.73-26.55c-7.57-7.82-14.99-15.94-21.55-24.79
		c-10.49-14.16-21.49-27.94-33.16-41.18c-6.17-7.01-11.5-14.63-16.59-22.47c-8.14-12.54-16.75-24.78-25.14-37.16
		c-7.11-10.49-13.24-21.56-17.69-33.4c-3.8-10.11-7.08-20.55-8.12-31.34c-0.61-6.35-0.66-12.93,0.64-19.35
		c1.2-5.91,9.63-13.31,16.93-14.66c7.51-1.39,14.93-0.25,22.34,0.85c14,2.08,26.5,8.24,39.18,14.1c12.35,5.7,24.9,11.01,37.62,15.92
		c8.53,3.29,17.17,6.37,25.83,9.1c14.23,4.48,27.74,10.9,42.34,14.41c10.81,2.6,21.62,5.31,32.43,7.99
		c3.08,0.76,5.88,2.18,8.96,2.98c16.95,4.44,34.4,6.01,51.62,8.69c13.56,2.11,27.4,3.29,41.28,2.49c7.63-0.44,15.32-0.14,22.97,0.07
		c11.84,0.33,23.54-1.12,35.16-1.92c1.63-2.49,1.25-4.98,0.35-6.99c-2.45-5.47-1.79-11.23-1.31-16.71
		c0.71-8.08,0.82-16.33,2.89-24.22c3.37-12.82,5.99-25.81,10.72-38.34c3.98-10.54,8.97-20.33,14.9-29.79
		c2.92-4.67,6.49-8.85,9.73-13.26c5.5-7.48,10.21-15.56,16.97-22.09c8.48-8.19,16.73-16.57,26.29-23.61
		c11.69-8.61,23.78-16.46,37.22-21.99C537.57,19.94,552,14.9,566.9,11.32c2.1-0.5,4.2-1.08,6.25-1.76
		c10.12-3.36,20.66-4.79,31.09-6.64c3.89-0.69,7.85-1.28,11.78-1.81c12.11-1.61,24.41-1.36,36.39,0.06
		c19.87,2.36,39.46,6.69,57.78,15.33c20.76,9.79,40.02,21.71,56.59,37.87c7.96,7.76,17.13,14.27,24.13,23.07
		c13.39,16.82,25.95,34.17,35.51,53.55c7.14,14.48,13.96,29.07,18.18,44.72c3.5,12.98,8.13,25.69,10.33,38.99
		c2.06,12.47,3.5,25.03,5.41,37.53c1.78,11.63,0.71,23.58,0.43,35.36c-0.26,10.96,0.6,22-1.25,32.87
		c-1.79,10.51-1.92,21.26-3.99,31.63c-2.59,12.99-4.19,26.17-7.95,39.01c-3.08,10.52-6.02,21.1-9.48,31.51
		c-1.88,5.66-4.36,11.1-5.67,17c-1.15,5.2-3.69,9.96-5.99,14.77c-2.58,5.4-4.9,10.92-6.72,16.66c-2.58,8.13-7.33,15.24-11.41,22.63
		c-2.87,5.21-6.33,10-8.17,15.84c-1.11,3.53-3.78,6.64-5.96,9.71c-5.48,7.74-9.7,16.35-16.16,23.39c-3.15,3.43-6.54,6.68-9.31,10.4
		c-11.44,15.35-23.27,30.46-37.65,43.11c-11.08,9.75-22.35,19.33-34.03,28.44c-13.13,10.24-27.07,19.29-40.45,29.12
		c-5.37,3.94-9.24,9.54-11.9,15.73c-4.48,10.41-9.82,20.36-15.79,29.99c-2.98,4.81-5.55,9.89-8.67,14.6
		c-6.26,9.44-13.83,17.9-20.69,26.89c-9.11,11.94-19.6,22.73-30.61,32.86c-9.02,8.3-18.52,16.28-29.23,22.48
		c-3.85,2.23-7.72,4.6-11.64,6.47c-4.21,2.02-9.2,0.88-13.76-1.67c-12.72-7.12-19.06-19.5-26.67-30.94
		c-7.4-11.12-12.64-23.3-18.18-35.35c-0.48-1.05-0.89-2.15-1.27-3.25c-1.82-5.23-1.82-5.1-7.64-5.53
		c-23.79-1.74-47.49,1.35-71.25,1.13c-2.48-0.02-4.4,0.95-6.02,2.93c-8.19,9.97-18.37,17.76-28.43,25.67
		c-0.92,0.72-2.09,1.18-2.84,2.03c-6.42,7.25-14.08,4.56-20.65,0.18c-4.69-3.13-8.97-6.61-12.19-11.59
		c-3.3-5.12-8.19-9.17-11.08-14.69c-0.72-1.38-1.89-1.53-3.36-1.49c-11.98,0.33-24,0.05-35.93,0.95
		c-15.18,1.14-30.27-0.02-45.31-1.11c-12.41-0.9-24.93-1.1-37.25-3c-14.26-2.2-28.51-4.31-42.34-8.97
		c-11.82-3.99-23.71-7.66-34.9-13.25c-5.3-2.65-9.77-6.42-13.7-10.73c-4.7-5.16-4.04-15.33,1.26-22.25
		c4.48-5.86,10.11-10.62,15.77-15.25c18.45-15.11,38.67-27.7,58.88-40.25c5.47-3.4,11.8-5.35,16.95-9.43
		C189.28,605.9,190.68,605.28,191.56,603.48z"/>
</g>
</svg>
