<?xml version="1.0" encoding="utf-8"?>
<!-- Generator: Adobe Illustrator 24.0.2, SVG Export Plug-In . SVG Version: 6.00 Build 0)  -->
<svg version="1.1" id="Layer_1" xmlns="http://www.w3.org/2000/svg" xmlns:xlink="http://www.w3.org/1999/xlink" x="0px" y="0px"
	 width="454.24" height="880.21" viewBox="0 0 454.24 880.21" style="enable-background:new 0 0 454.24 880.21;" xml:space="preserve">
<g>
	<path d="M58.24,837.47c-7.83,15.94-7.34,23.5,1.53,28.75c4.11-3.19,8.43-6.29,14.98-7.08c-12.4-10.63-13.07-22.53-4.95-35.91
		c-8.41-2.94-15.2-7.66-17.91-16.52c-1.71-5.59-1.49-11.48,0.67-16.51c4.73,8.29,10.52,15.09,19.91,17.74
		c-3.46-2.91-7.04-5.64-9.45-9.61c-3.53-5.82-4.18-11.81-1.75-18.16c2.07-5.42,5.29-10.36,7.12-16.65
		c-13.88-6.08-16.69-17.65-14.28-31.43c-4.91-1.3-9.65-0.27-13.96-1.45c-0.49-1.25,0.32-1.75,0.73-2.42
		c3.3-5.32,2.81-9.58-1.59-13.93c-6.16-6.09-6.66-7-8.25-15.51c-2.05,5.21,0.12,8.87,2.4,12.45c1.16,1.82,2.75,3.37,3.81,5.23
		c2.37,4.14,1.41,9.09-2.09,12.27c-0.77,0.7-1.57,1.25-2.64,1.18c-8.44-0.6-16.96-0.43-25.46-2.67c0.56-2.26,2.59-2.62,3.89-3.67
		c3.57-2.89,3.99-4.05,1.73-8.01c-2.63-4.62-5.49-9.1-7.58-14.03c-2.64-6.2-4.15-12.66-4.88-19.29c-0.98-8.87,1.66-17.25,4.84-25.27
		c6.74-17.04,17.59-30.56,35.17-37.51c8.76-3.46,17.7-6.1,27.25-2.31c1.07-3.14,0.59-6.14,0.59-9.08
		c0.01-57.16-0.02-114.31-0.05-171.47c-0.02-61.66-0.13-123.32-0.03-184.97c0.03-21.83-0.13-43.65,0.23-65.48
		c0.24-14.8-0.43-29.61,0.34-44.42c0.72-13.84,2.67-27.49,5.48-41.03c3.63-17.44,7.39-34.86,12.93-51.82
		c4.5-13.77,10.21-27.08,16.51-40.13c1.57-3.26,3.62-6.29,6.7-8.75c2.38,2.24,1.97,5.07,2.35,7.55c1.71,11.07,1.57,22.26,1.77,33.41
		c0.31,16.99,0.51,33.98,0.56,50.98c0.03,12.32-0.15,24.65-0.43,36.96c-0.72,30.82-0.31,61.64-0.3,92.46
		c0.02,52.32,0.02,104.64,0.03,156.97c0,33.66,0.02,67.32-0.01,100.99c-0.03,41.83-0.11,83.66-0.17,125.48c0,2.65,0,5.29,0,8.25
		c3.76,0.89,7.53,0.14,11.25,1.99c5.27-9.62,13.9-13.1,24.35-13.6c1.49-30.37,18.06-49.49,45.64-60.73
		c-3.15-5.04-6.3-9.72-8.25-15.01c-1.09-2.96-2.17-5.93-3.26-8.9c-4.49-12.21-0.51-22.92,6.09-33.04
		c3.83-5.88,8.34-11.25,14.25-15.23c1.23-0.83,2.53-1.63,3.89-2.22c3.87-1.68,5.67-0.63,5.83,3.61c0.17,4.66,0,9.33-0.02,14
		c-0.01,2.25,0,4.5,0.58,6.8c1.73-1.72,1.64-3.91,2.03-5.87c1.83-9.34,4.54-18.41,8.17-27.2c1.33-3.23,2.66-7.22,6.43-7.66
		c3.68-0.43,5.38,3.37,7.18,6.12c7.76,11.83,12.61,24.91,16.4,38.43c1.02,3.63,0.09,7.26-1.48,11.15c3.74,0.1,4.84,2.28,5.28,5.38
		c0.58,4.13,1.12,8.25,1.26,12.41c0.24,6.64-2,12.39-6.48,17.32c-1.19,1.31-2.84,2.33-3.35,4.7c7.61,4.52,15.23,9.29,20.44,16.66
		c1.94,0.2,2.18-2.36,4.31-1.84c1.74,3.15,2.2,6.97,3.34,10.55c5.35,16.78,15.08,30.02,31.25,37.7c8.88,4.22,24.03,4.2,30.92-5.26
		c-15.61-44.95-17.97-91.3-7.8-138.26c0.81-3.76,1.13-7.91,3.98-11.35c2.28,1.52,2.71,3.89,3.53,5.91
		c12.21,29.93,21.22,60.92,30.37,91.87c2.88,9.73,6.3,19.31,9.2,29.04c1.59,5.33,4.95,9.36,8.57,13.29
		c1.61,1.74,3.67,2.84,5.86,3.71c7.08,2.8,11.79,0.84,14.08-6.32c2.65-8.29,3.78-16.88,4.11-25.57c0.06-1.65,0.01-3.31,0.01-5.08
		c3.1-0.74,4.39,1.38,5.78,3.11c5.97,7.44,9,16.33,11.37,25.31c3.37,12.77,5.31,25.77,2.77,39.04c-0.79,4.12-2.3,7.92-5.13,11.96
		c3.97-0.27,6.8-1.53,9.73-2.51c4.98-1.68,6.33-0.87,8.26,4.05c1.31,3.34,1.33,6.87,1.74,10.32c1.21,10.1,1.89,20.24,0.86,30.41
		c-0.53,5.26-1.35,5.82-6.31,4.21c-2.93-0.95-5.8-2.11-9.65-3.52c3.6,5.07,8,7.48,12.16,10.05c2.71,1.67,4.09,3.74,4.34,6.77
		c0.18,2.16,0.37,4.31,0.62,6.46c0.55,4.85-0.27,9.44,2.41,14.54c3.72,7.09,3.92,15.79,2.65,23.89c-1.39,8.86-2.14,17.88-5.1,26.45
		c-0.7,2.03-1.1,4.21-3.59,5.74c-6.08-6.75-10.57-14.66-15.89-22.17c2.5,18.02,5.91,35.98,4.95,54.21
		c-0.96,18.18-3.13,36.24-9.73,53.72c-5.42-2.24-9.04-5.42-12.59-8.66c-6.04-5.53-11.29-11.76-16.31-18.21
		c-2.95-3.79-4.38-8.17-5.34-12.77c-1.28-6.11-2.17-12.29-3.26-18.69c-1.06,2.14-2.09,4.3-3.19,6.42c-1.34,2.58-3.15,3.25-5.62,1.34
		c-2.89-2.23-5.89-4.29-9.46-5.9c-2.72,3.69-5.31,7.32-8.03,10.84c-2.98,3.87-3.68,4.13-7.78,1.36c-3.82-2.58-7.3-5.67-10.97-8.57
		c-1.86,1.86-0.72,4.8-3.34,6.66c-6.46-6.44-10.79-14.47-16.01-22.16c-3,0.61-6.05,1.28-9.18,1.51c-3.04,0.22-4.56-0.91-5.57-3.7
		c-2.16-5.97-3.8-12.05-4.45-19.02c-6.29,1.1-12.19,0.9-18.22-3.63c-2.71,3.09-5.01,6.42-7.99,8.97
		c-8.22,7.06-16.72,13.81-27.14,17.46c-1.86,0.65-2.62,1.74-2.6,3.69c0.06,8.5-0.03,17,0.08,25.5c0.05,3.77,1.89,6.65,5.13,8.62
		c6.11,3.73,12.25,7.42,18.3,11.24c2.06,1.3,4.24,2.61,5.13,4.99c-1.22,2.28-3.11,1.84-4.54,1.35c-5.94-2.03-10.93-0.11-15.2,3.77
		c-3.35,3.05-6.69,3.13-10.58,1.58c-10.12-4.04-20.44-5.91-31.24-2.86c-2.11,0.6-4.29,0.39-6.68-0.77
		c-0.39-6.28,6.1-7.54,8.79-11.47c-0.72-1.67-2.06-0.91-3.06-0.9c-13.26,0.14-26.06,3.16-38.84,6.34c-7.6,1.89-15.28,2.9-22.72,2.16
		c-1.59-1.81,0.34-2.87-0.06-4.23c-4.3-0.76-8.81,0.53-13.27-0.89c0.42-2.91,2.72-3.6,4.54-4.44c4.38-2.03,8.94-3.69,13.77-4.34
		c11.17-1.49,21.51-5.72,32.01-9.46c2-0.71,2.43-2.04,2.44-3.82c0.01-7.5,0.01-15,0.03-22.5c0-1.61-0.42-2.73-2.1-3.51
		c-13.36-6.2-20.21-17.77-25.2-30.85c-1.88-4.93-3.19-10.09-6.04-15.2c-11.86,6.55-24.26,11.04-37.76,12.04
		c-0.89,3.97,1.46,6.61,2.94,9.44c2.16,4.13,4.69,8.09,4.92,12.95c0.51,10.66-3.87,18.68-13.08,24.03
		c-2.25,1.31-4.62,2.41-6.97,3.62c0.71,1.72,2.23,2.26,3.42,3.05c15.77,10.46,14.47,33.27,0.44,43.63
		c-2.04,1.51-3.54,2.67-3.43,5.89c0.18,5.11-3.83,7.93-8.06,9.8c-6.38,2.81-13.22,3.63-20.07,2.63c-5.56-0.81-10.62-0.55-16.04,1.5
		c-11.44,4.33-23.12,0.59-29.64-7.94c-7.74-10.13-3.12-23.34,7.11-27.59C46.65,840.75,51.87,838.55,58.24,837.47z M209.15,801.64
		c0,4.84-0.06,9.14,0.01,13.43c0.29,17.99-2.22,13.06,12.28,22.05c0.23,0.14,0.63,0.02,0.88,0.02c4.21-2.22,5.66-5.59,5.41-10.29
		c-0.35-6.63-0.02-13.3-0.09-19.95c-0.02-1.76,0.55-3.66-0.96-5.61C221.14,802.07,215.36,801.16,209.15,801.64z M275.15,645.44
		c-1.11,5.73,0,6.92,9,9.61C280.94,651.63,278.22,648.72,275.15,645.44z M145.44,625.7c2.35,2.8,4.5,5.36,6.93,8.25
		C152.31,627.35,151.04,625.84,145.44,625.7z"/>
</g>
</svg>
