<?xml version="1.0" encoding="utf-8"?>
<!-- Generator: Adobe Illustrator 24.0.2, SVG Export Plug-In . SVG Version: 6.00 Build 0)  -->
<svg version="1.1" id="Layer_1" xmlns="http://www.w3.org/2000/svg" xmlns:xlink="http://www.w3.org/1999/xlink" x="0px" y="0px"
	 viewBox="0 0 860.94 620.09" style="enable-background:new 0 0 860.94 620.09;" xml:space="preserve">
<g>
	<path d="M499.62,553.8c3.1-5.45,8.71-6.74,13.01-10.46c-2.91-1.38-5.42-0.49-7.88-0.27c-2.41,0.22-4.81,1.47-7.42,0.11
		c-0.19-3.13,2.51-3.81,4.29-4.82c5.63-3.21,11.5-6.04,17.59-8.26c5.34-1.94,10.31-4.6,15.35-7.14c1.86-0.94,3.14-2.49,4.19-4.19
		c3.17-5.08,6.25-10.22,9.37-15.34c2.15-3.53,1.87-6.88-0.56-10.21c-2.75-3.76-6.07-7.07-8.41-11.16c-1-1.76-2.74-2.19-4.76-1.98
		c-24.57,2.59-49.2,2.38-73.83,1.34c-9.47-0.4-18.91-1.5-28.37-2.25c-2.16-0.17-4.32-0.21-6.48-0.37c-1.75-0.13-2.8,0.65-3.44,2.24
		c-2.9,7.23-6.44,14.27-8.61,21.7c-2.74,9.4-8.19,16.55-15.42,22.7c-13.7,11.66-22.2,26.68-28.14,43.4
		c-1.33,3.75-2.41,7.57-4.06,11.24c-1.11,2.45-2.69,3.62-5,4.34c-4.95,1.54-10.12,2.02-15.14,3.2c-7.58,1.78-14.85,3.92-21.91,7.76
		c-7.86,4.27-15.44,9.12-23.57,12.9c-0.86,0.4-1.78,0.66-3.21,1.18c0.55-5.22,3.8-8.49,5.98-12.25c2.2-3.79,5.74-6.67,7.42-11.05
		c-10.15,7.28-21.23,12.53-32.35,17.64c-1.76-2.75-1.19-4.89,0.28-6.91c2.25-3.1,4.58-6.14,6.8-9.26c1-1.41,2.49-2.6,2.7-5.09
		c-8.03,2.42-14.91,7.57-23.36,7.55c-0.39-2.99,1.33-4.05,2.53-5.31c6.93-7.23,14.64-13.59,22.56-19.69
		c1.5-1.16,2.45-2.68,3.67-4.03c3.45-3.84,6.98-7.6,10.51-11.37c2.05-2.18,4.12-4.34,4.91-7.47c-17.38,0.74-33.03,8.41-50.05,11.53
		c-0.03-3.92,3.87-4.99,4.46-8.12c-6.8-1.02-13.54,0.7-20.49-0.64c1.95-4.38,6.59-4.57,8.95-7.53c-0.96-1.91-3.42-0.53-4.47-2.83
		c3.25-3.13,7.6-4.75,11.78-6.35c4.65-1.77,9.05-4.31,14.07-5.06c1.43-0.21,2.27-1.21,3.15-2.26c9.02-10.7,17.72-21.65,25.44-33.32
		c3.18-4.8,3.93-9.94,1-15.5c-3.77-7.16-9.16-13.06-13.97-19.43c-0.9-1.19-2.19-1.35-3.47-1.72c-7.26-2.1-14.82-2.24-22.23-2.97
		c-4.11-0.4-8.36,1.3-11.59,4.81c-5.87,6.37-12.06,12.36-20.27,15.93c-5.17,2.25-10.45,3.39-15.97,3.57
		c-11.18,0.36-21.96-1.05-31.24-8.11c-1.08-0.82-2.07-1.35-3.62-0.95c-11.07,2.85-20.64-0.36-29.04-7.64
		c-2.87-2.49-5.77-4.95-7.61-8.49c-1.3-2.49-3.44-3.94-6.51-4.81c-9.8-2.78-18.07-7.86-21.4-18.29c-2.49-7.8-1.29-15.45,1.75-22.88
		c0.55-1.35,1.71-2.49,1.24-4.58c-37.22-2.35-68.05-19.46-95.7-43.27c-9.03-7.77-18.01-15.8-23.07-28.23
		c5.66,2.03,10.64,3.31,15.77,4.04c7.03,1,13.87,0.06,20.71-1.32c1.79-0.36,3.58-0.79,5.38-1.1c14.08-2.41,27.06-7.67,39.78-14.13
		c12.93-6.56,25.45-13.81,37.81-21.3c11.36-6.89,21.75-15.39,33.07-22.36c18.04-11.12,34.63-24.22,51.63-36.76
		c16.75-12.35,33.94-24.03,51.73-34.84c1.11-0.68,2.39-1.14,3.88-3.24c-21.34,4.69-41.95,8.85-63.05,6.98
		c-0.56-1.74,0.29-2.54,1.36-3.11c10.68-5.69,19.3-14.17,28.79-21.45c14.4-11.05,28.95-21.88,43.61-32.59
		c12.9-9.43,25.67-19.06,38.83-28.12c7.09-4.88,15.08-8.22,23.17-11.37c12.23-4.76,24.12-10.41,36.85-13.87
		c10.58-2.88,21.23-5.36,32.04-7.34c15.76-2.88,31.63-3.38,47.57-3.54c6.82-0.07,13.61,0.41,20.42,0.77
		c0.48-2.1-1.26-2.29-2.22-2.89c-13.49-8.38-25.6-18.56-37.53-28.96c-6.8-5.93-12.38-13.04-18.43-19.69
		c-0.96-1.05-2.15-2.18-1.36-4.3c2.93-0.38,5.1,1.83,7.6,2.77c11.3,4.26,23.12,6.22,34.92,8.27c10.65,1.85,21.29,3.73,31.84,6.1
		c15.08,3.39,30.19,6.67,45.27,10.1c7.63,1.74,15.08,4.16,22.64,6.17c25.46,6.76,48.56,18.72,71.28,31.57
		c11.82,6.69,22.14,15.4,31.82,24.85c7.38,7.2,15.1,14.05,21.89,21.88c3.49,4.03,7.23,7.79,9.94,12.45c1.05,1.82,2.32,3.64,4.8,4.69
		c1.36-2.58,0.78-5.24,0.36-7.71c-4.77-28.09-8.24-56.34-9.57-84.8c-0.95-20.34,0.13-40.6,4.98-60.93
		c13.78,20.19,24.49,41.6,34.95,63.2c9.46,19.53,17.06,39.73,23.84,60.28c3.28,9.95,5.73,20.14,8.86,30.14
		c1.91,6.1,1.93,12.78,2.9,19.19c0.23,1.55-0.21,3.33,1.31,4.75c2.23-0.55,1.87-2.48,2.02-3.97c1.24-12.09,2.33-24.2,4.68-36.14
		c2.08-10.6,4.28-21.17,7.93-31.41c3.86-10.8,7.33-21.73,11-32.59c0.62-1.83,1.4-3.6,2.11-5.42c2.2,0.92,2.32,2.43,2.6,3.88
		c4.94,26.14,8.93,52.45,13.2,78.7c3.07,18.9,5.82,37.82,7.52,56.87c1.22,13.6,0.64,27.25-1.06,40.85
		c-1.15,9.23-2.35,18.43-4.07,27.58c-0.36,1.91-1.88,3.5-1.67,5.44c1.91,1.36,2.67-0.04,3.43-1.02
		c11.88-15.4,25.8-28.67,41.38-40.29c3.81-2.84,7.15-6.28,12.44-7.75c-0.14,3.02-1.21,5.32-2.25,7.41
		c-8.35,16.69-14.29,34.39-21.64,51.5c-8.13,18.93-16.14,37.91-24.87,56.58c-13.83,29.57-32.23,55.87-56.02,78.3
		c-11.19,10.55-23.72,19.31-36.75,27.42c-6.77,4.21-13.01,9.31-20.66,11.98c-2.95,1.03-2.48,3.18-1.82,5.32
		c1.33,4.35,4.16,7.95,6.3,11.89c6.85,12.62,15.25,24.24,24.31,35.34c6.06,7.41,6.74,14.66,3.16,23.56
		c-4.33,10.77-8.02,21.83-12.4,32.6c-2.51,6.16-5.3,12.2-6.81,18.72c-0.52,2.25-1.8,3.98-4.11,4.62
		c-13.65,3.8-26.59,9.48-39.62,14.93c-3.51,1.47-7.29,2.25-10.88,3.53c-1.68,0.6-3.96,0.63-4.81,2.29c-0.93,1.82-2.16,2.27-3.46,1.3
		c-1.16-0.87-1.52-2.72-0.77-4.08c1.12-2.03,2.49-3.95,4-5.71c3.04-3.54,6.26-6.92,9.37-10.39c0.53-0.59,1.03-1.29,0.31-2.99
		c-5.45,3.09-11.35,5.03-17.06,7.51c-5.59,2.43-11.36,4.5-18.42,3.26c2.6-5.37,7.11-8.65,10.6-13.42
		c-9.09,0.24-16.68,7.21-25.43,4.22c-0.54-2.28,0.65-2.84,1.47-3.6c12.5-11.57,26.18-21.52,41.36-29.27
		c5.35-2.73,9.81-5.82,11.75-12.03c1.72-5.52,4.37-10.75,6.73-16.39c-3.46-3.75-8.27-5.08-12.61-6.72
		c-10.75-4.06-21.08-9.07-31.68-13.45c-4.29-1.77-8.85-2.89-13.04-4.95c-1.6-0.79-2.77-0.47-4.06,0.63
		c-8.66,7.42-16.44,15.57-21.82,25.77c-3.43,6.5-8.63,10.94-15.91,12.3c-14.08,2.65-27.72,6.99-41.6,10.38
		c-2.58,0.63-5.07,1.6-7.61,2.39c-2.41,0.75-4.83,1.3-7.52,0.2c0.14-3.16,2.48-4.94,4.36-6.87c1.82-1.87,3.98-3.41,6.35-5.41
		c-2.16-1.16-3.85-0.38-5.49-0.02c-4.88,1.07-9.75,2.21-14.62,3.33C504.99,554.82,502.73,555.13,499.62,553.8z"/>
</g>
</svg>
