<?xml version="1.0" encoding="utf-8"?>
<!-- Generator: Adobe Illustrator 24.0.2, SVG Export Plug-In . SVG Version: 6.00 Build 0)  -->
<svg version="1.1" id="Layer_1" xmlns="http://www.w3.org/2000/svg" xmlns:xlink="http://www.w3.org/1999/xlink" x="0px" y="0px"
	 viewBox="0 0 750.78 860.98" style="enable-background:new 0 0 750.78 860.98;" xml:space="preserve">
<g>
	<path d="M295.45,849.43c4.8-0.24,9.16-0.09,13.3-1.26c18.29-5.15,28.55-14.37,30.34-34.72c1.41-16.09,0.82-31.91-4.96-47.24
		c-1.23-3.26-2.5-6.59-4.02-9.62c-2.14-4.26-6.66-6.37-11.27-7.35c-7.32-1.55-14.64-2.99-21.75-5.43c-4.02-1.38-5.3-0.14-4.44,4.08
		c1.66,8.08,2.42,16.2,0.43,24.27c-3.26,13.21-11.89,22.55-22.99,29.59c-12.91,8.18-26.98,13.69-42.2,15.92
		c-5.6,0.82-11.26,1.4-16.9,0.51c-8.72-1.37-17.63-1.22-26.22-3.53c-2.08-0.56-4.22-0.98-5.8-2.57c-0.14-1.61,0.82-2.2,2.06-2.33
		c6.97-0.74,13.1-3.81,18.93-7.3c9.99-5.98,19.89-12.14,28.72-19.87c10-8.75,15.52-19.47,16.54-32.83
		c0.71-9.31,0.19-18.12-3.54-26.88c-1.82-4.27-5.5-6.13-8.45-8.77c-3.45-3.1-6.89-6.2-10.21-9.46c-4.39-4.32-9.13-8.29-13.45-12.67
		c-9.3-9.45-16.69-20.31-22.55-32.16c-8.6-17.4-14.78-35.61-18.02-54.8c-0.6-3.58-1.89-7.05-2.95-10.86
		c-2.56,2.34-2.82,6.58-6.95,7.53c-3.7-4.21-5.87-9.3-7.4-14.51c-1.63-0.6-2.31-0.06-2.86,1.29c-1.64,3.99-3.24,8.01-5.2,11.84
		c-2.88,5.62-6.5,5.79-9.83,0.31c-2.43-4-3.4-8.62-3.49-13.33c-0.08-4.09-0.02-8.18-0.02-12.63c-2.65,0.51-3.78,2.28-5.04,3.66
		c-1.83,2-3.94,3.55-6.27,4.88c-1.61,0.92-3.16,2.14-4.98,0.58c-1.71-1.46-1.25-3.41-0.64-5.1c1.69-4.69,3.39-9.39,5.42-13.94
		c12.38-27.79,27.82-53.74,46.45-77.82c10.39-13.43,20.4-27.16,30.57-40.77c3.58-4.79,7.87-9.02,11.05-14.16
		c1.01-1.63,1.7-3.12,1.64-5.06c-0.29-9.65,0.47-19.28,0.16-28.96c-0.47-14.52,1.41-28.93,5.67-42.89c2.4-7.87,7.01-14.67,12-21.09
		c6.87-8.84,14.81-16.61,24.4-22.6c2.14-1.34,2.59-3.28,1.75-6.04c-2.04-6.78-6.63-11.77-10.93-17.01
		c-8.04-9.81-19.85-13.35-30.7-18.56c-13.91-6.68-28.71-11.49-41.52-20.51c-4.72-3.32-10.11-5.75-15.35-8.27
		c-13.24-6.37-23.86-16.27-34.96-25.55c-0.51-0.43-0.88-1.06-1.44-1.38c-9.41-5.34-16.45-13.37-24.15-20.73
		c-5.97-5.71-11.22-11.82-15.22-18.98c-1.24-2.22-2.65-4.18-4.51-5.91c-4.04-3.77-6.93-8.45-9.97-13c-0.46-0.69-0.75-1.51-1.3-2.12
		c-11.39-12.71-19.88-27.45-29.05-41.71c-2.41-3.75-4.1-7.98-6.09-12c-4.72-9.52-8.89-19.27-13.17-28.98
		c-5.9-13.4-9.01-27.46-12.8-41.36C-0.67,21.9-0.02,13.99,0.71,6.42c0.61-6.36,3.12-7.48,9.36-5.6c4.78,1.44,9.53,2.99,14.22,4.71
		c15.17,5.55,30.68,10.02,46.14,14.62c10.34,3.08,20.9,5.38,31.69,6.81c7.88,1.05,15.86,1.32,23.67,3.16
		c3.99,0.94,8.28,0.67,12.44,0.83c7.31,0.28,14.63,0.5,21.95,0.69c5.86,0.15,11.56-1.26,17.34-1.92c1.32-0.15,2.63-0.61,3.94-0.57
		c14.51,0.43,28.38-3,42.06-7.22c5.48-1.7,11.16-0.98,16.7-2.61c10.84-3.19,21.85-5.81,32.74-8.88c13.42-3.77,26.93-7.27,40.93-7.96
		c7.61-0.37,15.26-0.11,22.88-0.2c6.64-0.08,13.25,0.51,19.89,0.53c9.4,0.03,18.45,2.54,27.15,5.86
		c8.34,3.18,16.47,6.93,23.89,12.07c3.81,2.64,8.21,4.31,11.99,7.13c2.56,1.92,4.93,3.89,6.94,6.37c1.04,1.28,2.14,2.76,3.56,3.44
		c5.31,2.56,8.85,6.97,12.49,11.31c0.43,0.51,0.78,1.12,1.29,1.52c8.22,6.52,12.83,15.49,17.27,24.68
		c1.71,3.54,4.09,6.78,6.03,10.26c7.01,12.62,10.2,26.34,11.91,40.39c0.91,7.51,1.65,15.15,0.28,22.84
		c-0.89,5.03-1.01,10.24-1.01,15.37c0,6.1-0.99,12.16-3.19,17.59c-2.98,7.33-5.07,15.09-8.99,21.98
		c-3.21,5.65-6.08,11.45-8.96,17.25c-4.26,8.59-10.04,16.08-16.42,23.13c-5.13,5.67-9.68,11.84-16.04,17.64
		c27.74,19.81,52.74,42.05,75.6,66.29c2.76-0.81,3.55-2.27,3.93-4.51c3.03-17.71,7.06-35.18,12.92-52.21
		c2.05-5.96,3.52-12.12,5.14-18.23c6.33-23.94,12.23-47.99,19.13-71.79c4.03-13.88,7.64-27.89,11.46-41.83
		c0.54-1.97,1.32-4.03,3.47-4.5c2.35-0.51,3.38,1.61,4.62,3.16c9.3,11.66,15.21,25.2,21.67,38.49c5.74,11.82,11.23,23.75,16.6,35.72
		c6.25,13.93,12.05,28.08,17.01,42.56c5.53,16.17,11.46,32.21,17.12,48.34c1.76,5,2.95,10.21,4.85,15.16
		c2.2,5.7,3.37,11.67,5.18,17.45c1.72,5.49,3.83,6.19,8.99,3.64c1.32-0.66,2.56-1.55,3.7-2.51c26.03-21.87,52.93-42.59,80.83-62.02
		c2.59-1.81,5.05-3.81,7.64-5.62c2.99-2.08,5.37-1.04,5.87,2.62c0.26,1.97,0.24,4,0.14,5.99c-0.6,11.46-0.88,22.93-0.91,34.42
		c-0.02,7.96-1.22,15.9-2.12,23.83c-1.41,12.39-3.08,24.75-4.39,37.15c-1.55,14.72-2.72,29.52-5.29,44.12
		c-1.62,9.16-2.7,18.55-5.66,27.28c-2.61,7.69-4.88,15.53-7.39,23.23c-2.77,8.47-6.21,16.42-10.54,24.1
		c-0.33,0.58-0.58,1.21-0.97,1.73c-7.72,10.13-15.26,20.32-24.88,28.94c-6.94,6.22-14.13,11.79-22.77,14.97
		c-14.63,5.39-29.34,8.53-45.28,4.31c-12.42-3.29-23.66-8.46-34.46-15.05c-3.19-1.94-5.42-0.92-5.76,2.92
		c-0.52,5.76-0.8,11.53-1.36,17.29c-1.26,13.1-4.25,25.77-7.74,38.35c-2.94,10.57-8.18,20.36-11.53,30.75
		c-3.78,11.73-10.16,22.03-16.34,32.36c-8.88,14.83-19.65,28.42-31.15,41.37c-3.13,3.52-7.18,5.9-10.72,8.91
		c-11.76,10.02-23.71,19.83-37.62,26.86c-6.78,3.43-12.68,8.36-19.99,10.98c-9.26,3.32-18.78,5.63-28.23,8.22
		c-9.63,2.64-19.43,4.59-29.41,5.5c-1.84,0.17-3.5,0.95-5.52,2.05c2.65,4.35,5.21,8.58,7.8,12.78c6.07,9.88,10.31,20.56,11.86,31.99
		c1.1,8.14-0.58,16.41-3.82,23.91c-5.16,11.95-12.62,22.42-24.13,29.14c-15.58,9.1-32.11,13.24-50.25,9.06
		c-7.78-1.79-15.67-3.05-22.89-6.67C297.94,852.03,296.39,851.67,295.45,849.43z M407.6,359.23c-5.08-0.66-10.1-0.62-14.91,0.61
		c-8.47,2.18-17.09,3.57-25.24,7.35c-8.05,3.74-15.75,7.89-23.15,12.71c-1.86,1.21-3.03,2.76-4.01,4.86
		c-6.96,14.88-6.18,30.28-3.43,45.84c1.27,7.19,2.92,14.32,4.08,21.53c1.92,12.01,4.34,23.81,10.72,34.42
		c1.62,2.7,2.92,5.59,4.43,8.35c3.57,6.54,6.6,13.47,10.88,19.5c8.19,11.51,16.91,22.67,28.38,31.27
		c4.52,3.39,8.72,7.33,13.57,10.15c9.03,5.27,18.28,10.16,28.49,13.06c9.46,2.68,18.87,5.5,28.79,5.35
		c5.97-0.09,11.93-1.08,17.9-1.05c7.5,0.04,13.96-2.73,20.18-6.35c10.86-6.33,18.86-15.78,26.65-25.32
		c3.55-4.34,6.24-9.38,9.32-14.1c-6.29,1.06-11.75,3.04-17.38,4.34c-17.06,3.95-33.45,1.01-49.19-5.91
		c-20.28-8.91-35.75-23.24-47.32-42.14c-3.26-5.31-5.46-10.91-7.94-16.51c-3.39-7.67-5.92-15.64-7.04-23.81
		c-2.02-14.74-7.07-29.2-4.76-44.42c0.12-0.8-0.16-1.66-0.14-2.49c0.15-7.63-0.75-15.26,0.94-22.89
		C408.44,368.98,409.08,364.11,407.6,359.23z M414.96,272.67c-15.89,9.73-27.56,24.11-42.38,34.88
		c13.36-5.01,25.81-12.38,40.84-12.29C414.55,287.67,413.87,280.2,414.96,272.67z"/>
</g>
</svg>
