<?xml version="1.0" encoding="utf-8"?>
<!-- Generator: Adobe Illustrator 24.0.2, SVG Export Plug-In . SVG Version: 6.00 Build 0)  -->
<svg version="1.1" id="Layer_1" xmlns="http://www.w3.org/2000/svg" xmlns:xlink="http://www.w3.org/1999/xlink" x="0px" y="0px"
	 viewBox="0 0 722.11 769.94" style="enable-background:new 0 0 722.11 769.94;" xml:space="preserve">
<g>
	<path d="M235.19,480.36c-0.63-0.41-1.15-0.84-1.75-1.12c-10.51-4.97-20.82-10.45-32.77-11.39c-3.79-0.3-7.56-1.18-11.27-2.08
		c-2.6-0.62-3.93,0.22-5.08,2.54c-7.5,15.14-16.98,29.01-27.63,42.09c-6.43,7.89-13.28,15.39-21.76,21.18
		c-2.82,1.93-4.86,4.41-6.53,7.4c-3,5.36-6.85,10.31-9.29,15.89c-2.4,5.47-4.75,11-6.97,16.56c-1.07,2.68-2.72,4.9-4.6,7.06
		c-11.16,12.78-20.08,26.89-25.52,43.08c-1.55,4.6-1.14,8.94,1.45,12.91c4.29,6.57,9.78,11.81,17.61,13.94
		c9.57,2.61,14.89,10.04,13.98,19.66c-0.23,2.48-0.4,5-0.27,7.49c0.44,8.28-4.13,12.65-11.33,15.3c-6.99,2.57-14.29,3.22-21.59,3.6
		c-7.48,0.39-15,0.69-22.48-0.04c-9.28-0.9-18.44-2.45-27.31-5.48c-4.83-1.65-7.81-4.46-8.46-9.89c-0.6-4.97-1.37-9.89-1.29-14.91
		c0.05-2.84-0.33-5.65-1.06-8.41c-2.4-9.14-1.17-17.85,3.27-26.12c4.88-9.09,9.59-18.27,14.08-27.57c1.05-2.17,1.59-4.33,1.26-6.74
		c-1.33-9.59-0.16-19.3-1.43-28.92c-0.85-6.4,2.14-12.23,6.44-16.25c7.27-6.79,7.63-15.49,8.88-24.12
		c0.55-3.79,0.81-7.62,1.22-11.42c0.48-4.38,2.99-7.73,5.8-10.82c2.8-3.08,5.69-6.13,8.85-8.81c2.4-2.04,3.28-4.17,3.13-7.33
		c-0.58-12.65-0.61-25.31,0.28-37.95c0.6-8.5,1.74-16.88,4.84-24.89c0.31-0.79,0.46-1.59-0.33-2.58
		c-6.88,2.79-14.09,4.63-21.53,5.36c-15.54,1.51-29.98-1.43-41.97-11.92C2.66,405.67-0.8,392.29,0.15,377.69
		c1.03-15.93,6.74-30.44,14.45-44.26c8.04-14.42,14.99-29.33,20.13-45.05c2.72-8.34,3.79-16.88,3.45-25.61
		c-0.11-2.85-0.77-5.57-1.66-8.29c-0.79-2.4-2.17-3.86-4.34-5.12c-11.08-6.43-20.25-14.9-24.84-27.1
		c-4.29-11.41-7.25-23.2-5.85-35.66c0.85-7.61,1.15-15.27,2.74-22.79c0.52-2.45,1.07-4.89,2.1-7.18c1.71-3.8,3.61-4.26,6.96-1.58
		c11.99,9.6,23.18,19.94,32.37,32.44c6.4,8.71,10.28,17.91,9.39,28.71c-0.39,4.79-1.58,9.49-1.24,14.38
		c0.3,4.35,0.73,8.66,2.25,12.75c9.05,24.41,6.34,48.08-4.12,71.37c-4.85,10.8-10.36,21.24-16.37,31.41
		c-6.31,10.66-8.6,22.21-8.46,34.45c0.07,5.93,3.06,10.09,7.26,13.58c5.96,4.95,12.92,6.62,20.58,5.65
		c13.2-1.67,25.14-6.31,35.5-14.77c4.26-3.48,8.54-6.93,12.7-10.52c5.02-4.32,8.38-9.95,11.21-15.77
		c8.84-18.2,23.41-29.04,42.71-33.92c7.7-1.95,15.56-2.2,23.26-0.32c3.67,0.89,6.67,0.28,10.08-0.95
		c11.74-4.23,23.3-8.79,34.41-14.53c9.4-4.86,17.58-11.43,26.17-17.42c3.41-2.38,6.5-5.22,10.36-6.91c0.59-0.26,0.96-0.9,0.79-1.91
		c-2.06-2.54-7.2-1.75-8.41-6.84c14.3,0.51,27.5-1.88,40.26-6.7c-0.42-2.29-1.91-2.19-3.17-2.32c-20.83-2.12-40.83-7.94-60.85-13.66
		c-16.5-4.71-32.66-10.32-48.28-17.45c-15.41-7.03-29.36-16.31-42.03-27.52c-1.06-0.94-2.45-1.84-2.2-3.64
		c1.45-1.18,2.85-0.37,4.25-0.02c16.8,4.17,33.98,4.71,51.13,4.76c7.62,0.02,15.02-2.77,22.52-4.28c23.1-4.65,46.43-7.02,69.99-7.07
		c0.82,0,1.67,0.18,2.95-0.87c-5.3-6.55-12.59-10.31-19.8-14.1c-7.16-3.76-14.6-6.87-22.89-8.19c6.46-4.48,13.75-5.74,21.07-6.6
		c7.46-0.88,14.99-0.3,22.48-0.53c7.46-0.23,14.66,1.87,21.97,2.64c0.38-2.03-0.69-2.22-1.63-2.51c-8.94-2.77-17.38-6.64-25.61-11.1
		c-8.07-4.37-16.91-6.97-25.55-9.94c-13.42-4.61-26.73-9.39-38.28-17.93c-2.27-1.68-4.5-3.47-6.51-5.44
		c-3.4-3.35-3.25-5.01,0.54-8.09c2.59-2.1,5.42-3.86,8.39-5.4c15.68-8.16,32.56-12.58,49.78-15.89c13.43-2.59,26.93-4.44,40.67-4.47
		c7.21-0.01,13.94-3.05,20.98-4.35c9.29-1.71,18.5-3.82,27.73-5.76c0.02-2.07-1.62-2.47-2.74-3.39
		C345.74,65.41,331.48,56,319.79,43.51c-9.64-10.31-17.38-21.81-22.74-34.94c-2.28-5.58,0.35-6.38,4.41-6.58
		c6.82-0.34,13.66-0.31,20.49-0.44c0.66-0.01,1.33-0.09,2.01-0.41c-2.57-0.2-5.15-0.39-7.72-0.59c7.09-0.49,14.17-0.79,21.41-0.3
		c-0.71,1.11-1.68,0.55-2.84,1.11c16.09,0.98,31.71,2.24,47.26,4.25c21.67,2.79,43,7.05,63.97,13.31
		c9.86,2.95,20.09,4.71,30.19,6.81c16.32,3.39,32.3,8.11,48.38,12.42c3.81,1.02,6.99,3.12,7.73,7.58c0.71,4.31,2.77,7.36,6.88,9.67
		c6.13,3.44,10.81,8.8,15.23,14.27c2.48,3.07,4.14,6.58,4.52,10.4c0.31,3.16,1.98,4.3,4.61,4.91c1.95,0.45,3.99,0.66,5.82,1.41
		c2.91,1.19,4.42,0.25,6.07-2.32c5.66-8.82,11.62-17.46,17.49-26.15c0.91-1.35,1.6-2.99,3.75-3.16c1.97,1.88,0.65,4.04,0.18,5.96
		c-2.48,10-5.92,19.74-7.92,30.09c0.6,1.3,2.09,1.72,3.43,2.33c4.7,2.14,9.36,4.35,13.73,7.12c2.98,1.89,6.22,3,9.72,3.72
		c6.56,1.35,12.69,3.98,18.53,7.26c2.46,1.38,3.29,2.93,2.56,6.07c-2.03,8.7-4.58,17.34-3.07,26.57c0.77,4.73-0.02,9.64-0.88,14.41
		c-0.86,4.76-2.18,9.39-4.59,14.57c9.8,1.33,19.19,2.59,28.66,3.87c-0.7,2.73-2.48,2.81-4.06,3.23
		c-10.76,2.92-21.52,5.87-32.29,8.78c-1.24,0.33-2.15,0.86-2.34,2.87c18.44,4.82,37.36,7.43,56.46,10.54
		c-8.06,7.79-19.09,9.38-29.07,14.49c9.4,4.52,14.9,11.93,19.38,20.68c-4.27,1.91-7.45-2.64-11.56-1.02c0.42,2.56,2.57,4.07,4,5.91
		c6.09,7.86,10.34,16.82,13.81,25.91c4.02,10.56,11.93,16.93,20.4,23.16c1.04,0.76,2.54,0.97,3.07,3.28
		c-18.34,8.87-37.85,6.62-57.49,5.32c2.86,11.78,4.99,23.2,5.41,34.88c0.05,1.33,0.41,2.71,0.18,3.98
		c-2.68,14.71-0.54,29.61-1.79,44.38c-1.49,17.57-4.91,34.59-13,50.44c-2.46,4.81-3.21,5.17-8.06,2.98
		c-7.16-3.23-13.95-7.07-20.04-12.08c-0.89-0.74-1.81-1.46-3.62-1.58c0.88,7.81-1.02,15.19-2,22.67
		c-1.44,10.96-3.81,21.6-9.47,31.29c-2.51,4.31-4.88,8.97-6.08,13.61c-1.71,6.59-2.69,13.84,2.79,19.8
		c1.35,1.46,2.38,3.06,2.52,5.27c1.1,17.66,6.71,34.18,12.81,50.6c7.07,19.04,17.74,36.14,28.23,53.35c2.29,3.76,5.3,6.74,9.55,8.44
		c4.85,1.94,9.24,4.89,12.65,8.76c3.82,4.33,8.66,5.98,13.92,7.04c3.76,0.76,7.5,1.59,11.14,2.78c4.01,1.31,8.1,1.62,12.31,1.64
		c8.64,0.04,17.29-0.09,25.51,3.59c9.07,4.06,13,10.5,11.45,20.28c-0.57,3.61-1.93,7.09-2.42,10.7
		c-1.46,10.85-9.15,14.08-18.4,14.97c-5.08,0.49-10.27,1.15-15.41-0.11c-2.52-0.62-4.86,0.78-7.38,0.82
		c-11.68,0.18-23.42,0.26-34.94-1.29c-9.87-1.33-19.72-2.6-29.64-3.49c-2.57-0.23-4.87-1.21-6.89-2.72
		c-9.6-7.17-20.01-13.21-29-21.24c-3.1-2.77-4.6-5.64-4.58-9.9c0.03-6.64-0.67-13.29-1.08-19.94c-0.25-4.01-2.73-7.12-4.46-10.49
		c-3.26-6.36-6.77-12.6-10.33-18.79c-3.61-6.28-9.3-10.31-15.43-13.85c-6.78-3.91-13.61-7.77-20.94-10.54
		c-8.68-3.28-14.71-9.07-15.63-18.36c-1.18-11.95-9.11-18.78-17.43-25.51c-4.27-3.45-8.67-6.74-13-10.14
		c-6.61-5.19-8.29-11.45-6.38-19.45c2.09-8.73,3.43-17.64,5.29-26.42c0.96-4.52-3.06-5.75-4.83-8.67c-2.93,1.39-4.15,4.1-6.07,6.04
		c-8.89,8.94-19.29,15.74-29.95,22.3c-15.89,9.78-31.16,20.5-46.12,31.65c-5.67,4.22-9.86,9.92-15.03,14.62
		c-1.2,1.09-2.06,2.7-4.53,2.71c-2.16-3.38-2.75-7.42-3.01-11.52c-1.05-17,1.57-33.53,6.45-49.78c1.5-5.01,2.86-10.08,5.09-15.88
		c-5.38,1.12-9.72,1.99-14.03,2.95c-1.84,0.41-2.67,1.78-3.06,3.56c-2.94,13.4-7.3,26.27-14.17,38.24
		c-1.86,3.24-1.49,7.14-2.1,10.72c-1.65,9.69-3.01,19.42-5.95,28.84c-0.81,2.6-0.54,5.31,0.06,7.93
		c2.53,11.03,5.13,22.05,8.35,32.92c1.54,5.2,3.68,9.28,9.77,10.63c4.17,0.93,7.72,3.84,10.83,6.92c1.96,1.94,4.19,3.12,6.89,3.77
		c4.2,1.01,8.38,2.21,12.28,4.14c2.3,1.13,4.76,1.37,7.26,1.65c12.62,1.44,16.15,5.33,16.5,17.95c0.08,3.02-0.29,5.93-1.16,8.86
		c-2.25,7.61-7.29,11.27-15.06,12.49c-13.11,2.06-26.17,1.58-39.36,1.13c-13.84-0.47-26.76-5.23-40.28-6.97
		c-4.77-0.62-7.97-3.54-10.21-7.9c-1.77-3.45-2.11-7.67-5.5-10.87c-1.76,3.7-1.43,7.42-2.28,10.86c-0.84,3.37-0.71,6.99-1.56,10.36
		c-1.62,6.45,0.61,11.77,4.25,16.77c2.64,3.64,5.43,7.17,8.07,10.81c1.33,1.83,3.02,3.06,5.15,3.74c3.85,1.24,7.25,3.38,10.61,5.53
		c6.6,4.23,9.67,10.66,11.42,18.07c1.99,8.45,1.3,16.93,0.57,25.36c-0.59,6.8-6.57,12.11-13.32,12.67c-1.18,0.1-2.24,0.03-3.27,0.76
		c-5.62,4.01-12.4,4.61-18.82,6.04c-4.52,1-9.26,1-13.9,1.44c-0.66,0.06-1.38,0.3-1.98,0.14c-4.43-1.19-8.89-2.69-12.15,2.28
		c-4.48,0.09-9.17,1.03-13.39-0.3c-4.35-1.36-8.67-2.12-13.13-2.65c-2.94-0.35-6-0.41-8.61-2.22c-0.98-0.68-2.11-0.82-3.34-0.59
		c-6.46,1.2-11.4-1.94-15.46-6.27c-4.52-4.83-7.36-10.66-7.6-17.49c-0.28-8.16-0.31-16.32,0.41-24.46
		c0.44-5.08,2.07-9.75,5.35-13.74c0.98-1.19,1.72-2.43,1.89-3.99c0.56-5.3,1.43-10.59,1.63-15.91c0.13-3.46,0.77-6.56,2.66-9.42
		c8.77-13.33,10.99-28.37,11.39-43.88c0.42-16.09-2.69-31.84-4.72-47.69c-1.11-8.64-0.83-17.3-0.36-25.95
		c0.26-4.9,2.1-9.42,4.27-13.76c1.25-2.5,1.57-4.93,1.19-7.71c-0.8-5.79-1.62-11.55-3.7-17.05c-4.03-10.67-2.01-20.61,3.66-30.1
		C232.8,484.52,233.85,482.66,235.19,480.36z"/>
</g>
</svg>
