<?xml version="1.0" encoding="utf-8"?>
<!-- Generator: Adobe Illustrator 24.0.2, SVG Export Plug-In . SVG Version: 6.00 Build 0)  -->
<svg version="1.1" id="Layer_1" xmlns="http://www.w3.org/2000/svg" xmlns:xlink="http://www.w3.org/1999/xlink" x="0px" y="0px"
	 viewBox="0 0 860.88 699.09" style="enable-background:new 0 0 860.88 699.09;" xml:space="preserve">
<g>
	<path d="M586.2,606.01c8.6,9.1,16.44,18.55,23.89,28.32c7.22,9.48,12.34,20.14,16.83,31.09c2.09,5.1-0.24,11.09-5.13,14.98
		c-10.25,8.14-21.5,13.77-34.83,14.71c-3.12,0.22-6.78-0.41-8.95,2.99c-7,0.67-13.95,2.57-20.73-1.72c-2.5-1.58-6.07-1.73-9.19-1.98
		c-15.83-1.25-30.46-6.66-45.02-12.47c-14.58-5.82-28.06-13.7-41.55-21.57c-3.44-2.01-7.35-3.12-10.48-5.76
		c-1.39-1.17-3.19-0.38-4.76,0.23c-12.82,4.93-26.41,6.85-39.79,9.13c-9.58,1.63-19.6,0.54-29.35,1.44
		c-9.15,0.85-18.28,1.05-27.42,0.81c-14.33-0.37-28.47-2.68-42.64-4.52c-7.88-1.02-15.92-1.71-23.5-3.87
		c-7.36-2.1-14.8-3.83-22.2-5.67c-16.79-4.15-33.46-8.73-49.8-14.36c-14.92-5.15-29.78-10.6-43.33-18.98
		c-2.81-1.74-5.88-3.09-8.91-4.45c-10.63-4.78-20.03-11.71-30.98-17.29c-3.92,2.27-9.1,3.36-13.84,5.8
		c-10.42,5.37-21.96,6.47-33.4,7.4c-9.28,0.75-18.61,1.53-27.93,0.89c-7.31-0.5-14.51-1.9-21.54-4.02
		c-1.78-0.54-3.25-1.68-4.71-2.78c-4.46-3.35-4.19-3.62-2.77-9.06c3.59-13.79,11.6-25.14,19.89-36.25
		c4.57-6.13,11.08-10.52,16.75-15.65c1.23-1.11,2.64-2.02,3.67-3.36c0.76-0.99,1.3-2.17,0.26-3.15c-3.78-3.55-4.57-8.94-8.61-12.61
		c-3.66-3.34-5.92-8.37-8.33-12.91c-6.15-11.58-13.32-22.61-18.67-34.61c-3.25-7.28-6.67-14.51-8.96-22.18
		c-1.33-4.46-4.18-8.37-4.82-13.05c-1.72-12.55-7.84-23.82-10.44-36.11c-0.31-1.46-0.9-2.85-0.45-4.39
		c0.83-2.86,0.16-5.67-0.86-8.26c-0.83-2.12-1.22-4.15-0.79-6.31c1.41-7.01,0.38-13.97-0.95-20.79c-2.48-12.71-2.07-25.38-0.7-38.12
		c0.64-5.95,0.6-11.86,0.4-17.86c-0.19-5.86,0.11-11.93,1.21-17.86c1.28-6.91,3.64-13.46,5.92-20.05
		c2.07-5.97,3.42-12.11,4.95-18.23c2.21-8.85,5.05-17.58,9-25.87c0.36-0.75,0.97-1.42,1.16-2.21c2.46-10.1,9.43-18.13,12.77-27.85
		c1.17-3.41,4.04-6.06,5.53-10.09c-3.19-5.8-6.64-12.04-8.58-18.86c-2.33-8.18-2.6-16.4,1.09-24.39c0.69-1.49,1.05-3.14,1.54-4.72
		c2.55-8.15,7.91-14.04,15.04-18.41c2.43-1.49,4.5-3.48,6.93-4.89c8.99-5.23,19.05-7.2,29.16-7.6c7.1-0.28,12.61-2.86,17.09-7.68
		c9.3-9.99,18.49-20.05,29.3-28.49c2.89-2.26,6.11-4.05,9.22-5.81c7.14-4.04,13.58-9.01,20.15-13.83c3.11-2.28,6.59-3.96,10.13-5.36
		c3.06-1.21,4.42-3.12,4.77-6.22c1.35-12.15,7.65-21.05,17.33-28.37c6.87-5.19,14.98-6.97,22.33-10.64
		c5.53-2.75,10.8-1.95,16.27-2.23c2.32-0.12,4.07,0.31,6.04,2.02c1.86,1.6,4.9,1.86,7.46,2.59c6.59,1.89,12.91,4.46,18.72,8.08
		c2.83,1.76,5.63,1.76,8.62,1.19c1.8-0.34,3.63-0.63,5.34-1.23c11.59-4.04,23.63-2.81,35.55-3.43c10.66-0.55,21.21,0.24,31.81,0.58
		c6.43,0.2,12.92-0.9,19.38,0.27c12.23,2.22,24.78,2.3,36.83,5.96c4.22,1.28,8.78,1.91,13.2,2.48c9.16,1.19,17.68,4.52,26.39,7.23
		c21.37,6.64,41.56,16.09,61.24,26.58c8.79,4.69,16.9,10.65,25.53,15.66c12.14,7.05,22.97,15.88,34.24,24.14
		c2.87,2.1,5.1,4.77,7.62,7.16c7.31,6.93,15.69,12.57,22.46,20.24c5.29,5.99,9.88,12.18,13.81,19.09
		c4.93,8.67,10.36,17.06,15.74,25.47c8.35,13.04,16.25,26.35,23.74,39.89c2.63,4.76,2.85,10.58,5.23,15.57
		c2.84,5.94,6.51,11.54,8.13,17.98c2.28,9.05,6.66,17.46,8.73,26.42c1.22,5.28,2.58,10.91,2.21,16.69
		c-0.22,3.34,1.31,6.81,2.1,10.21c3.77,16.26,5.35,32.7,5.66,49.41c0.21,11.03-0.75,22.02-0.13,33.08c0.5,8.9-0.79,17.91-1.31,26.86
		c-0.28,4.84,1.45,6.65,6.45,7.09c7.62,0.67,15.26,1.19,22.71,3.14c12.66,3.3,24.6,7.97,35.17,16.03c3.72,2.83,7.21,5.87,10.61,9
		c2.89,2.66,6.01,3.94,9.86,4.05c9.87,0.3,19.62,1.33,28.59,5.99c2.02,1.05,4.2,0.02,6.38,0.51c3.81,0.86,7,2.99,10.6,4.21
		c14.12,4.79,26.29,12.87,37.08,22.91c6.64,6.17,11.23,14.08,14.21,22.61c2.07,5.93,1.13,11.85-3.19,16.87
		c-0.85,0.99-1.93,1.76-2.39,3.13c-5.06,15.25-13.97,28.12-24.83,39.73c-3.87,4.13-7.91,8.11-11.91,12.12
		c-4.87,4.88-10.69,8.5-16.6,11.88c-9.52,5.44-18.64,11.67-28.72,16.04c-14.65,6.36-29.48,12.39-45.28,15.27
		c-12.26,2.23-24.76,2.62-37.15,3.78c-8.95,0.84-17.94,0.76-26.9,1.27c-9.08,0.52-18.25-0.73-27.36-1.07
		c-16.19-0.61-31.37-5.62-46.92-9.09C587.93,605.56,587.3,605.24,586.2,606.01z"/>
</g>
</svg>
