<?xml version="1.0" encoding="utf-8"?>
<!-- Generator: Adobe Illustrator 24.0.2, SVG Export Plug-In . SVG Version: 6.00 Build 0)  -->
<svg version="1.1" id="Layer_1" xmlns="http://www.w3.org/2000/svg" xmlns:xlink="http://www.w3.org/1999/xlink" x="0px" y="0px"
	 viewBox="0 0 950 932.66" style="enable-background:new 0 0 950 932.66;" xml:space="preserve">
<g>
	<path d="M950,906.14c0,3,0,6,0,9c-2.05,1.67-4.06,2.57-7.02,2.81c-10.16,0.83-20.33,0.16-30.44,0.79
		c-16.82,1.05-33.62,0.44-50.42,0.37c-6.07-0.03-7.63-2.31-5.94-8.16c1.43-4.94,2.61-9.92,3.07-15.08
		c0.94-10.62,1.96-21.23,3.04-31.83c0.45-4.41,1.5-5.5,5.81-6.01c3.8-0.45,7.64-0.62,11.45-0.92c1.38-0.11,2.75-0.22,2.49-2.44
		c-2.39-0.81-4.85-1.75-7.37-2.47c-4.02-1.14-5.56-2.51-5.46-6.5c0.17-6.98,0.31-14.02,1.27-20.92c1.56-11.19,2.66-22.39,2.85-33.57
		c-1.22-1.21-2.63-0.87-3.92-0.93c-11.92-0.57-11.84-0.56-12.69-12.83c-0.58-8.29-0.86-16.67-2.36-24.82
		c-1.35-7.31-1.85-14.51-1.37-21.85c0.37-5.64,0.74-6.01,6.01-7.43c1.06-0.29,2.41,0.06,3.43-1.96
		c-6.58-17.75-11.35-36.65-16.88-55.1c-2.2-0.65-3.76-0.11-5.31,0.53c-4.77,1.97-9.82,1.49-14.79,1.61
		c-2.75,0.07-4.48-1.1-5.56-3.93c-5.59-14.53-8.53-29.97-15.29-44.08c-1.22-2.54-0.55-5.59-2.13-8.14
		c-7.9-0.15-15.57,2.76-23.37,0.84c-17.41,2.92-35.13,3.22-52.55,6.18c-12.33,2.1-24.83,2.68-37.29,3.59
		c-4.46,0.32-4.78,0.67-4.31,5.18c0.07,0.66,0.12,1.33,0.25,1.98c2.09,10.26,3.79,20.63,6.46,30.74c1.37,5.2,2.18,10.11,1.55,15.46
		c-0.28,2.36-1.03,3.75-3.01,4.58c-2.91,1.22-5.85,2.38-8.83,3.4c-1.77,0.61-3.43,1.62-2.72,3.46c1.34,3.45,0.02,6.95,0.8,10.38
		c1.4,6.21,1.37,12.57,1.59,18.9c0.31,8.93,2.15,17.73,1.9,26.88c8.69,0.09,15.52,5.12,23.59,5.79c3.59,0.3,5.13,3.43,5.31,7.12
		c0.59,11.67-1.61,23.2-1.55,34.86c0.05,8.98-1.14,17.99-0.8,26.95c0.15,4.03-0.71,6.65-3.66,8.95c-1.18,0.92-2.21,2.07-3.48,2.82
		c-1.47,0.87-2.16,1.93-2.03,3.64c0.81,10.45,1.51,20.96,3.56,31.21c1.71,8.57,4.68,16.97,9.34,24.51
		c2.42,3.91,1.88,7.16-0.84,10.46c-2.54,3.08-4.84,6.33-6.66,9.89c-3.86,7.52-9.88,13.29-15.47,19.44
		c-2.13,2.34-4.94,3.59-7.54,3.07c-6.32-1.25-12.62-0.19-18.91-0.59c-14.09-0.91-28.23-1.19-42.32-2.11
		c-6.13-0.4-12.32-0.41-18.4-1.52c-3.73-0.68-6.06-2.58-6.01-6.17c0.09-5.53-1.16-10.92-1.15-16.43c0.01-6.67-1.24-13.24-2.19-19.83
		c-1.68-11.71-4.78-23.09-7.41-34.59c-0.39-1.72-0.91-3.58,0.41-5.27c2.85-3.66,5.06-7.91,9.11-10.47
		c5.37-3.4,9.65-8.14,14.77-11.86c2.35-1.71,3.75-4.32,3.53-7.71c-0.6-9.62-2.25-19.17-2.06-28.84c0-0.24-0.39-0.49-0.56-0.69
		c-10.65-0.72-21.24-1.51-31.84-2.11c-3.57-0.2-6.32-1.56-7.26-4.96c-2.11-7.66-4.65-15.19-5.62-23.17
		c-1.12-9.24-2.31-18.54-4.56-27.54c-1.54-6.15-1.14-12.2-1.57-18.3c-0.06-0.83,0.32-1.57,0.75-2.32
		c6.52-11.29,17.11-18.26,27.27-25.66c1.89-1.38,2.89-2.52,2.15-4.86c-0.74-2.37-1.26-4.82-1.95-7.21c-3-10.28-3.47-21-5.42-31.46
		c-0.28-1.52-0.19-3.16-2.16-3.39c-2.78-0.32-5.56-1.2-8.4-0.32c-5.11,1.59-10.46,1.88-15.66,2.97c-7.21,1.51-14.67,0.42-21.82,2.18
		c-2.65,0.65-5.21,0.63-7.89,0.5c-6.24-0.3-12.53-0.96-18.39,0.6c-0.72,1.17-0.72,1.98-0.67,2.83c0.47,7.49,0.21,14.97,0.03,22.47
		c-0.15,6.04-1.55,12.25,1.18,18.24c1.01,2.22-0.46,4.26-2.76,5.13c-1.7,0.64-3.51,1.01-5.3,1.34c-5.86,1.08-11.72,2.08-16.84,2.98
		c-0.08,19.61-3.28,38.42-5.55,57.1c1.06,0.94,2.05,1.15,3.05,1.04c6.53-0.72,12.89,0.05,19.32,1.42
		c6.79,1.44,14.25,10.48,12.94,17.35c-2.28,11.98-3.47,24.18-8.77,35.51c-3.53,7.56-3.42,8.04-11.87,8.34
		c-1.78,0.06-3.66-0.23-5.44,0.82c-1.25,14.32-0.35,28.68-0.99,43.36c6.6-0.78,12.84,0.82,19.15,0.56c1.7-0.07,2.64,0.4,3.74,1.72
		c2.15,2.58,2.4,5.36,1.84,8.41c-0.27,1.46-1.06,2.76-0.92,4.35c0.83,9.11-0.08,18.32,1.67,27.39c1.03,5.35-2.04,11.37-10.22,11.55
		c-13.64,0.3-27.27,0.3-40.91-0.07c-5.63-0.16-11.27-0.26-16.9-0.42c-4.87-0.14-7.63-2.56-6.78-6.45
		c2.06-9.46,2.66-19.05,3.42-28.66c0.3-3.78,0.02-7.12-1.47-10.62c-4.27-0.35-8.41-0.66-12.55-1.05c-3.05-0.29-6.9-3.43-7.45-6.34
		c-2.94-15.48-3-31.1-1.93-46.74c0.17-2.53,1.6-4.27,4.55-4.2c4.45,0.1,8.8-0.71,13.23-1.43c-2.88-4.42-3.06-4.46-1.93-10.13
		c2.53-12.68,3.1-25.65,5.74-38.26c-5.17-2.69-11.53-4.12-18.4-3.8c-7.9,0.37-11.49-1.78-10.32-10.74c1.54-11.88,2.9-23.79,4.2-35.7
		c0.59-5.41,0.91-10.84,2.71-16.06c1.77-5.11,2.04-5.23,7.38-5.5c3.78-0.19,7.49,1.41,11.63,0.47c-0.03-6.85-0.88-13.43-0.72-20.04
		c0.07-2.96-1.85-4.14-4.97-4.15c-5.31-0.02-10.63,0.24-15.92-0.82c-3.1-0.62-4.63-1.95-4.72-5.27c-0.13-5.12-0.62-10.23-0.95-15.16
		c-1.33-1.17-2.72-0.82-4.02-0.9c-6.83-0.38-13.65,0.18-20.46,0.25c-13.63,0.15-27.27-0.04-40.91,0.42
		c-5.46,0.18-10.96,0.75-16.42,0.03c-7.46-0.97-15.02-0.69-22.44-0.45c-15.83,0.51-31.57-1.19-47.41-0.85
		c-13.35,0.29-26.84,1.1-40.21-1.26c-4.63-0.82-9.16-0.99-12.1-5.1c-2.05,1.01-2.94,2.53-3.78,4.22c-1.16,2.36-2.55,4.62-3.97,6.85
		c-0.9,1.41-2.04,2.79-3.9,2.78c-5.54-0.04-10.99-0.21-16.34-2.37c-4.91-1.98-10.22-2.96-15.35-4.38c-0.18,0.35-0.36,0.7-0.55,1.05
		c2.65,2.92,5.25,5.89,7.96,8.75c6.44,6.8,6.45,6.78,2.49,15.31c-0.28,0.6-0.47,1.24-0.77,1.83c-7.58,15.25-15.22,30.48-22.73,45.76
		c-2.31,4.7-3.33,5.14-7.98,2.95c-3.53-1.66-6.88-3.85-10.47-4.52c-1.05,0.63-1.05,1.33-1.31,1.93c-2.3,5.28-1.63,11.11-3.04,16.53
		c-3.59,13.82-7.84,27.45-11.87,41.14c-0.76,2.57-2.29,3.39-4.45,4.02c-5.72,1.66-11.58,0.74-17.37,0.83
		c-1.84,0.03-3.67-0.64-4.97,1.03c-1.39,1.78-0.19,3.45,0.61,5.08c4.38,8.92,8.74,17.85,13.13,26.77c1.32,2.68,2.12,5.58,3.79,8.11
		c0.88,1.32,1.65,2.29,3.52,2.12c8.59-0.77,17.24,0.02,25.84-1c8.41-1,12.2,1.47,15.77,9.04c2.6,5.51,4.41,11.34,7.81,16.56
		c4.73,7.27,9.6,14.28,16.21,20.01c2.52,2.18,3.83,5.09,1.93,8.48c-5.74,10.23-9.17,21.64-16.37,31.17
		c-2.99,3.95-6.52,5.31-11.05,5.26c-0.83-0.01-1.67-0.22-2.49-0.16c-20.16,1.51-40.27-0.86-60.41-0.75
		c-2.82,0.01-5.58-2.28-8.13,0.15c-1.83-1.76-2.61-3.62-3.52-5.38c-4.95-9.58-8.74-19.69-13.63-29.31
		c-2.61-5.13-5.71-10.13-6.96-15.88c-0.94-4.31-0.85-4.25-4.9-3.19c-4.82,1.26-9.63,2.42-14.26,4.42c-3.78,1.63-4.8,0.87-6.34-3.1
		c-0.18-0.45-0.48-0.86-0.73-1.28c-8.88-15.02-15.76-30.97-22.13-47.17c-1.56-3.98-2.43-8.28-4.98-11.85c0-1,0-2,0-3
		c2.49-0.97,3.54-3.52,5.92-4.9c6.61-3.84,14.09-4.95,21.01-7.7c3.93-1.57,7.78-3.24,10.38-6.21c-0.51-1.89-1.58-2.03-2.48-2.43
		c-5.17-2.26-10.16-4.9-15.52-6.8c-5.98-2.11-6.17-3.53-4.69-9.32c1.69-6.62,4.36-12.88,6.36-19.38
		c4.33-14.11,8.55-28.26,12.91-42.36c2.32-7.51,4.32-8.95,12.03-7.65c5.18,0.87,10.29,0.64,15.44,0.52
		c6.66-0.15,13.32-0.44,19.94,0.54c1.01,0.15,2,0.28,2.62-0.93c-0.02-2.12-1.98-2.41-3.31-3.17c-2.62-1.49-5.06-3.2-7.23-5.28
		c-1.57-1.51-2.42-3.42-1.2-5.36c2.74-4.36,4.44-9.25,7.4-13.52c5.08-7.34,9.35-15.19,13.49-23.08c3.95-7.52,8.93-14.38,13.26-21.65
		c2.53-4.26,5.62-4.8,10.16-2.5c2.66,1.34,5.29,2.73,7.99,4.12c5.17-4.7,4.75-11.5,7.44-17.02c-4.44-3.11-9.41-3.15-14.06-4.18
		c-4.94-1.09-9.34-2.67-13.09-6.51c-5.59-5.71-9.59-12.74-15.59-18.06c-1.47-1.3-0.98-3.01-0.77-4.68c1.09-8.55,5.44-16,8.53-23.8
		c3.98-10.04,8.18-19.92,10.32-30.57c0.26-1.32,0.52-2.96,2.27-4.15c6.71,1.33,13.73,2.56,20.67,4.15
		c11.01,2.53,21.96,5.31,32.95,7.96c3.8,0.91,7.47,2.26,9.75,5.53c3.21,4.62,6.26,9.38,8.32,14.69c1.37,3.53,1.69,7.03,0.5,10.71
		c-1.16,3.56-2.08,7.2-3.15,10.96c7.47,2.05,14.64,4.03,21.82,5.97c1.8,0.49,3.44,1.21,4.83,2.47c3.66,3.29,7.25,6.49,12.9,4.92
		c2.09-0.58,4.62,0.41,6.3-1.69c-0.56-1.22-1.52-1.55-2.54-1.56c-3.9-0.07-7.49-1.46-11.14-2.6c-5.46-1.7-5.46-1.84-5.26-7.71
		c0.65-18.81,3.6-37.41,4.97-56.15c0.24-3.3,2.03-5.57,5.48-6.21c3.25-0.6,6.5-1.21,9.89-1.84c2.47-14.24,2.81-28.51,3.22-42.77
		c0.07-2.33,0.07-4.62,0.57-6.94c0.69-3.21,2.17-4.94,5.68-5.05c3.81-0.12,7.56-0.9,11.42-2.27c-2.76-1.21-5.29-2.42-8.16-2.54
		c-2.85-0.12-5.52-0.86-8.2-1.87c-4.97-1.88-5.38-2.19-5.33-7.46c0.18-16.79,0.45-33.59,0.56-50.38c0.03-4.56,1.16-6.66,5.19-8.64
		c1.31-0.65,3.01-0.53,3.93-1.92c0.82-9.14,1.29-18.27,1.14-27.45c-0.09-5.97-0.53-11.97,0.62-17.94c0.4-2.1,1.12-3.26,3.23-3.71
		c2.59-0.55,5.22-1.11,7.68-2.06c2.13-0.83,4.31-1.91,3.65-5.07c-0.59-2.81-2.88-3.32-4.89-3.29c-3.95,0.06-7.38-1.73-11.08-2.49
		c-3.48-0.71-5.19-2.79-5.19-6.71c0-10.99,1.04-21.93,1.44-32.89c0.11-2.99,0-5.99-0.02-8.99c-0.01-1.97-0.84-3.26-2.96-3.14
		c-6.54,0.39-12.83-1.59-19.31-1.95c-7.08-0.39-9.42-2.99-9.31-10.04c0.3-19.19-1.33-38.25-3.04-57.33
		c-0.73-8.14-2.58-16.11-3.03-24.25c-0.49-8.65-1.67-17.21-2.84-25.77c-0.58-4.24,0.2-6.44,4.22-8c8.8-3.42,17.94-5.79,26.73-9.35
		c10.44-4.23,21.5-6.87,31.55-12.2c9.3-4.93,19.7-7.09,29.3-11.27c10.79-4.69,21.46-9.65,32.35-14.1
		c6.76-2.76,13.58-5.38,20.32-8.21c21.89-9.21,43.43-19.22,65.66-27.63c24.82-9.38,49.5-19.14,74.15-28.96
		c10.18-4.06,20.63-7.36,30.84-11.34c5.42-2.11,11.6-5.2,16.92,0.92c0.37,0.43,1.24,0.41,1.85,0.65c4.65,1.83,9.21,3.8,13.58,6.25
		c7.54,4.22,14.91,8.88,22.81,12.27c11.61,4.98,22.95,10.53,34.21,16.15c11.86,5.92,23.28,12.75,35.1,18.85
		c16.23,8.37,32.42,16.86,48.15,26.19c9,5.34,18.52,9.81,27.51,15.16c8.99,5.35,17.54,11.44,26.74,16.44
		c3.12,1.7,4.46,4.21,5.23,7.26c1.1,4.4,1.3,8.93,0.81,13.41c-0.26,2.36-0.16,4.62,0.08,6.94c1.42,13.55,1.59,27.19,3.31,40.72
		c1,7.89,1.04,15.93,2.37,23.75c1.59,9.37,2.48,18.79,3.41,28.22c0.66,6.7-0.09,7.8-6.34,10.61c-4.82,2.17-9.67,4.27-14.84,6.54
		c0.84,9.1,1.51,18.04,2.57,26.94c0.45,3.82,2.48,6.77,6.69,7.78c3.72,0.89,5.05,3.37,5.23,7.31c0.21,4.65-0.43,9.33,0.21,13.9
		c2.11,15.18,3.69,30.41,5.13,45.66c0.25,2.64-0.67,4.01-2.94,5.04c-1.21,0.55-2.71,0.13-3.87,1.42
		c-0.11,6.86,1.59,13.69,2.71,20.51c1.92,11.62,4.81,23.07,7.91,34.44c1.28,4.71,2.87,9.17,8.77,10.18
		c3.22,0.55,5.08,2.92,5.63,6.24c0.7,4.3,2.37,8.39,4.36,12.12c5.18,9.7,8.9,19.97,12.81,30.17c3.13,8.18,3.11,8.19-4.89,11.22
		c2.58,8.74,6.82,16.72,11.67,24.35c2.85,4.48,5.63,8.96,7.83,13.81c3.49,7.7,8.32,13.85,17.69,14.39c3.41,0.2,5.4,2.12,6.45,5.28
		c3.34,10.08,7.07,20.02,11.2,29.8c2.63,6.22,5.55,12.32,8.41,18.65c2.39-0.71,4.59-1.34,6.78-2.01c3.59-1.09,3.59-1.7,1.82-5.21
		c-5.46-10.85-9.33-22.33-12.24-34.1c-1.23-4.99,0.98-8.67,5.31-10.56c10.2-4.45,20.38-8.96,30.64-13.27
		c7.99-3.35,16.04-6.4,25.06-5.16c3.26,0.45,6.69,0.36,9.95-0.43c2.43-0.59,3.58,0.63,4.91,2.35c2.48,3.21,1.95,7.41,3.72,10.71
		c3.95,7.36,6.26,15.33,9.07,23.11c2.36,6.56,4.83,13.04,8.17,19.2c2.28,4.21,1.2,7.56-3.41,9.19c-9.55,3.37-18.41,8.53-28.35,10.86
		c-4.6,1.08-8.63,3.39-12.66,5.75c-1.85,1.08-2.95,2.51-1.85,4.47c2.54,4.48,2.87,9.51,3.82,14.35c1.62,8.2,3.95,16.28,4.56,25.08
		c2.79-0.34,5.75-0.58,8.65-1.1c4.01-0.71,7.43,0.86,8.69,4.56c2.31,6.75,4.77,13.45,6.69,20.34c3.81,13.72,6.57,27.75,12.18,40.81
		c-3.61,3.08-8.35,3.53-11.98,6.38c1.39,0.87,2.57,0.81,3.7,0.87c9.42,0.51,9.1,0.02,11.32,10.79c0.1,0.48,0.02,1,0.09,1.5
		c1.37,9.4,0.79,18.92,1.58,28.35c0.56,6.63,1.19,13.23,1.24,19.9c0.03,3.69-0.78,6.17-4.93,6.58c-0.76,0.07-2.06,0.34-1.77,2.36
		c4.61,0.37,9.18,1.64,13.72,2.93c1.64,3.34,2.27,6.43,2.03,10.47c-0.75,12.98-3.54,25.65-4.75,38.53c-0.52,5.54-2.21,10.96-2,16.52
		c6.16,1.42,7.15,2.18,7.29,5.68c0.36,9.48,0.64,18.96,0.99,28.44C948.55,895.73,948.25,901.04,950,906.14z"/>
</g>
</svg>
