<?xml version="1.0" encoding="utf-8"?>
<!-- Generator: Adobe Illustrator 24.0.2, SVG Export Plug-In . SVG Version: 6.00 Build 0)  -->
<svg version="1.1" id="Layer_1" xmlns="http://www.w3.org/2000/svg" xmlns:xlink="http://www.w3.org/1999/xlink" x="0px" y="0px"
	 viewBox="0 0 661.28 860.94" style="enable-background:new 0 0 661.28 860.94;" xml:space="preserve">
<g>
	<path d="M111.56,256.25c-8.8,4.36-18.11,5.68-27.59,6.08c-13.99,0.59-26.07-4.3-36.59-13.22c-2.24-1.9-3.88-4.55-5.64-6.97
		c-0.92-1.27-0.94-3-0.38-4.35c2.27-5.5,5.06-10.62,11.77-11.63c2.8-0.42,5.62-0.92,8.44-0.92c19.86,0,39.48-2.47,59.05-5.55
		c3.45-0.54,6.98-0.55,10.42-1.1c4.34-0.7,5.15-3.06,2.57-6.65c-4.74-6.6-10.66-9.33-19.21-8.81c-13.65,0.83-27.33-0.2-39.99-6.49
		c-5.9-2.93-10.92-7.13-15.34-11.85c-6.35-6.78-14.01-10.03-23.1-9.86c-5.98,0.11-11.99,0.07-17.93,1.14
		c-1.47,0.27-2.98,0.42-4.47,0.48c-4,0.15-7-1.46-9.09-4.98c-1.07-1.81-1.13-4.29-3.75-5.21c-0.9-0.32-0.96-2.42-0.28-3.21
		c3.98-4.64,6.76-10.68,14.49-10.66c4.79,0.01,9.6-0.96,14.45-0.6c1.61,0.12,3.33,0.56,5.03-0.61c1.06-3.1-1.8-5.07-2.74-7.54
		c-4.71-12.36-6.84-24.99-5.27-38.16c0.97-8.1,2.23-16.14,4.74-23.97c2.46-7.66-0.24-14.05-7.16-18.35
		c-3.58-2.23-7.55-3.49-11.49-4.82C3.11,55.24,1.14,45.04,8.07,38.02c4.26-4.31,8.65-4.29,13.58-2.7C31.49,38.49,40,43.71,47,51.49
		c8.15,9.07,10.79,20.73,5.04,31.34c-6.5,12.01-6.84,24.71-5.27,37.41c1.11,8.98,5.14,17.48,8.72,25.89
		c3.62,8.51,8.42,16.23,15.27,22.53c4.59,4.22,10.02,6.91,16.65,8.71c-1.36-12.98,1.23-24.47,14.55-28.23
		c15.05-4.26,26.05,2.03,31.2,18.19c2.9-4.15,2.93-8.16,2.95-11.62c0.07-12.59-0.36-25.01-5.14-37.21
		c-5.99-15.27-14.37-28.38-27.67-37.97c-8.28-5.97-17.55-10-27.71-11.98c-11.73-2.29-20.73-13.17-21.08-25.16
		c-0.16-5.66-0.07-11.33,0.06-16.99c0.18-7.83,3.28-14.87,6.28-21.91c0.74-1.74,2.34-2.78,4.08-3.51
		c7.54-3.2,15.55,1.93,15.89,10.08c0.22,5.48-2.34,10.35-3.15,15.59c-1,6.47-2.05,12.89,2.84,18.53c1.37,1.58,2.81,2.59,4.73,3.4
		c6.74,2.87,14.27,3.46,20.7,7.17c13,7.5,25.79,15.27,34.07,28.43c0.34,0.55,0.85,1.03,1.98,1.03c2.42-5.58,5.15-11.21,8.36-16.58
		c2.46-4.12,6.33-6,9.83-5.11c5.86,1.49,10.51,5.87,11.09,10.34c0.21,1.59-0.28,2.99-0.99,4.31c-3.8,7.02-7.05,14.3-10.42,21.53
		c-2.13,4.57-3.59,9.32-4.69,14.17c-0.88,3.92-0.36,7.66,0.82,11.7c4.45,15.26,5.2,30.5-2.71,45.14c-2.37,4.4-4.68,8.84-6.79,13.36
		c-2.84,6.08,0.79,17.54,6.45,20.93c1.08,0.65,2.23,0.52,3.4,0.37c2.34-0.28,4.5-1.1,6.71-1.87c10.1-3.48,20.44-3.22,30.5-0.38
		c4.13,1.16,8.65,2.51,11.98,5.75c1.88,1.83,3.33,1.37,5.08-0.34c5-4.88,10.03-9.7,14.83-14.79c3.26-3.45,3.65-6.97,2.23-10.98
		c-5.42-15.33-4.55-30.71-0.59-46.14c1.24-4.84,3.14-9.47,4.59-14.23c2.64-8.66,1.3-17.49,0.32-26.26
		c-0.71-6.3-3.69-12.04-4.47-18.34c-1.3-10.59,5.95-17.72,14.91-15.78c3.65,0.79,6.24,2.98,7.82,6.36c2.71,5.8,4.08,11.95,4.7,18.29
		c0.14,1.43-0.5,3.05,1.05,4.15c2.54-0.26,2.97-2.93,4.72-4.15c11.41-7.91,23.22-14.5,37.25-17.06c10.93-2,21.74-2.39,32.63-1.2
		c9.98,1.09,14.95-3.51,17.64-12.31c1.65-5.41,3.06-10.91,5.08-16.18c2.63-6.89,10.92-11.23,16.81-9.27
		c7.32,2.43,10.95,10.14,8.32,18.4c-1.26,3.94-2.61,7.88-4.08,11.74c-2.41,6.36-5.16,12.66-8.39,18.64
		c-3.9,7.21-10.91,9.98-18.62,10.92c-5.47,0.66-10.96,0.14-16.43-0.71c-12.95-2-25.47,0.07-37.83,4.06
		c-13.38,4.32-23.59,12.92-31.73,23.9c-9.07,12.23-12.84,26.17-10.77,41.45c0.04,0.33,0.12,0.67,0.26,0.96
		c0.14,0.28,0.39,0.51,0.82,1.04c2.79-2.43,4.1-6.07,7.54-8.08c7.05-4.12,14.04-4.31,21.56-1.88c6.76,2.19,10.96,6.64,12.92,13.3
		c2.15,7.33,1.42,14.5-1.86,21.36c-1.05,2.19-2.48,4.2-3.89,6.54c2.69,1.51,5.15,0.26,7.51,0.29c9.23,0.11,17.61-2.64,25.57-7.27
		c7.23-4.21,12.08-10.8,17.73-16.61c10.79-11.1,14.83-24.78,15.75-39.87c0.49-8.12,2.4-16.04,5.12-23.78
		c3.45-9.82,10.9-13.77,20.54-14.68c12.47-1.17,24.9-0.72,37.24,1.37c5.74,0.97,10.09,7.08,9.38,12.88
		c-0.85,6.95-4.97,10.34-11.81,9.95c-6.47-0.37-12.95-0.49-19.44-0.94c-9.51-0.66-15.95,3.62-17.19,13.86
		c-1.34,11.07-3.47,22-7.59,32.48c-5.29,13.46-13.01,25.02-25.06,33.35c-1.03,0.71-1.87,1.34-1.94,2.61
		c0.63,1.87,2.28,1.64,3.72,1.97c5.52,1.25,11.05,2.55,16.16,5.07c5.89,2.9,8.12,8.15,6.24,14.12c-1.97,6.27-5.09,8.29-11.59,7.4
		c-6.87-0.94-12.92-4.28-19.24-6.8c-7.01-2.8-14.41-3.94-21.74-5.38c-2.09-0.41-4.33-0.07-6.38,0.79c-4.02,1.68-8.37,2.2-12.46,3.52
		c-8.21,2.64-16.46,1.56-24.74,1.05c-5.76-0.36-11.17-2.27-16.21-4.76c-8.63-4.26-16-2.93-22.66,3.68
		c-2.18,2.16-5.19,3.56-6.54,6.87c13.93,6.28,27.83,11.87,42.61,15.24c11.99,2.73,23.85,6.07,35.75,9.18
		c3.61,0.95,6.74,2.84,9.44,5.41c3.02,2.87,3.35,6.19,1.5,9.92c-5.12,10.31-14.24,14.77-24.86,16.18
		c-19.74,2.61-37.54-2.66-53.44-14.6c-1.4-1.05-2.4-2.79-4.3-3.04c-0.92,0.52-1.15,1.28-1.14,2.16c0.27,17.31,1.04,34.65,3.52,51.75
		c1.97,13.56,5.05,27.01,10.67,39.81c3.65,8.33,6.51,16.99,10.45,25.27c4.24,8.91,8.94,17.44,14.64,25.48
		c6.02,8.48,13.32,15.6,21.49,22.03c7.1,5.59,15.29,8.78,23.52,11.77c12,4.37,24.47,7.26,36.89,10.2c1.57,0.37,3.32,0.19,4.97,0.06
		c16.83-1.32,33.17-5.08,49.49-9.27c13.67-3.51,27.36-7.07,41.78-6.54c5.81,0.21,11.04-2.27,14.72-7.64
		c8.73-12.74,21.01-21.31,34.95-27.31c12.98-5.58,26.5-9.1,40.8-10.31c17.57-1.48,33.89,2.08,50.06,8.26
		c5.58,2.14,10.7,5.34,16.53,6.87c2.14,0.56,3.32,2.7,5.11,3.91c17.42,11.84,28.29,28.99,36.84,47.52
		c4.75,10.3,7.87,21.46,8.56,33.07c1.21-0.77-0.15-2.3,1.43-3.41c0.34,4.61,0.91,8.93,0.88,13.26c-0.02,2.67,0.95,5.97-2.5,7.69
		c-0.26,0.13-0.29,0.95-0.25,1.43c0.48,5.61-1.5,10.72-2.87,16.02c-1.3,4.99-2.54,9.96-4.27,14.83c-5,14.1-13.47,26.02-23.94,36.36
		c-9.48,9.36-20.23,17.29-32.82,22.21c-5.1,1.99-10.35,3.6-15.97,5.53c0.68,7.43,1.33,14.84,2.68,22.17
		c3.16,17.06,10.21,32.55,18.61,47.62c4.6,8.26,9.34,16.49,13.1,25.23c3.49,8.1,2.06,15.23-3.27,21.9
		c-5.53,6.9-10.52,14.15-14.15,22.26c-5.59,12.48-9.28,25.46-11.25,39.02c-0.86,5.91-1.75,11.83-2.73,17.73
		c-1.42,8.58-0.52,17.28-1.09,25.91c-0.37,5.65-0.59,11.31-0.73,16.97c-0.07,2.93-1.77,4.74-4.08,5.77c-2.7,1.2-3.74-1.42-5.01-3.03
		c-1.12-1.41-1.99-3.01-3.24-4.92c-4.12,4.1-3.49,9.81-5.91,14.07c-15.32,3.5-43.64,3.86-51.88,0.62c0.12-7.96,4.2-14.37,8.1-20.93
		c4.36-7.33,10.19-13.53,15.07-20.45c4.92-6.96,8.11-14.8,11.51-22.57c6.74-15.41,11.49-31.51,16.92-47.38
		c1.85-5.42,1.9-10.98,0.59-16.26c-1.06-4.3-5.06-6.94-8.95-8.95c-7.71-3.98-15.02-8.53-21.99-13.71c-3.6-2.68-6.16-6.46-10.62-9.38
		c1.14,5.36,1.86,10.16,4.16,14.34c2.03,3.68,1.15,6.66-0.72,9.81c-1.72,2.89-4.07,5.25-6.43,7.61
		c-10.14,10.06-17.92,21.6-22.7,35.17c-3.08,8.74-6.88,17.22-10.13,25.91c-3.91,10.43-6.89,21.18-9.76,31.92
		c-2.09,7.82-3.65,15.79-5.81,23.61c-0.72,2.6-2.14,3.23-4.38,1.81c-2.34-1.47-3.68-3.81-4.89-6.21c-1.26-2.5-2.65-4.89-5.03-6.96
		c-4.23,4.86-5.63,10.68-7.36,16.34c-0.53,1.75-0.9,3.55-1.48,5.28c-0.81,2.41-2.62,3.59-5.04,4.35
		c-16.15,5.08-32.55,3.66-48.96,1.99c-4.28-0.44-5-1.73-4.07-6.04c0.85-3.96,3.84-6.57,6.04-9.65c6.59-9.21,14.2-17.58,21.53-26.2
		c6.21-7.31,11.2-15.71,16.34-23.87c7.08-11.25,14.05-22.58,20.59-34.15c5.55-9.82,10.44-20.02,15.56-30.08
		c1.56-3.06,1.5-6.03-0.7-8.89c-3.96-5.14-7.48-10.58-10.52-16.33c-1.16-2.2-2.82-4.05-4.53-5.91
		c-9.62-10.41-18.48-21.47-26.74-32.96c-3.96-5.51-6.86-11.77-10.32-17.65c-4.13-7.01-8.36-13.96-11.12-21.67
		c-0.77-2.15-2.76-2.09-4.57-2.32c-7.95-1.03-15.95-1.02-23.94-0.83c-18.24,0.42-36.09,3.34-53.65,8.32
		c-4.3,1.22-7.4,3.14-9.12,7.44c-5.53,13.85-9.51,27.98-8.98,43.1c0.11,3.05,0.7,5.88,1.78,8.73c1.88,4.97,4.06,9.93,5.08,15.09
		c1.38,7-2.01,13.31-4.42,19.67c-0.18,0.46-0.51,0.86-0.74,1.3c-7.22,13.26-10.55,27.46-10.62,42.54
		c-0.06,13.66-0.04,27.33,0.86,40.95c0.31,4.67,0.94,9.19-0.34,13.81c-0.53,1.9-1.18,3.43-3.28,4.29c-2.8-1.77-6.04-3.21-6.21-7.51
		c-3.86,0.89-3.85,3.94-4.7,6.23c-0.57,1.53-0.52,3.28-0.87,4.9c-0.42,1.96-1.59,3.53-3.66,3.56c-4,0.05-7.83,1.77-11.87,1.13
		c-4.99-0.79-9.97,0.19-14.95,0.02c-2.24-0.07-4.44,0.84-5.07,3.25c-0.64,2.47-2.45,3.13-4.44,3.34c-15.7,1.7-31.36,4.2-47.25,3.05
		c-2.65-0.19-5.33-0.16-7.97-0.48c-4.27-0.51-5.16-2.91-2.82-6.47c6.3-9.57,12.63-19.11,19.91-27.99c2.64-3.22,5.89-5.83,8.23-9.36
		c6.67-10.08,9.22-21.66,12.22-33.02c4.25-16.08,8.59-32.13,13.1-48.15c1.81-6.43,3-12.98-1.4-19.15c-1.7-2.38-1.4-5.42-1.51-8.25
		c-0.24-6.31-0.05-12.64-1.51-18.89c-2.03-8.66-6.32-16.39-9.66-24.5c-2.67-6.49-4.98-13.1-6.55-19.86
		c-1.73-7.44-4.45-14.69-4.83-22.43c-0.09-1.81-0.95-3.1-2.43-4.12c-11.33-7.85-19.68-18.39-26.42-30.19
		c-3.11-5.44-4.88-11.57-6.9-17.57c-4.79-14.21-4.11-28.93-5.09-43.49c-0.39-5.78,0.42-11.63,0.39-17.45
		c-0.08-17.3-0.36-34.57-2.48-51.8c-0.95-7.75-1.59-15.55-2.66-23.3c-0.11-0.82-0.14-1.66-0.24-2.49
		c-1.14-9.61-1.9-10.6-11.37-12.87c-12.33-2.95-20.87-10.56-26.64-21.48c-1.64-3.1-3.92-4.42-7.13-5.51
		c-7.82-2.67-14.67-6.92-19.56-13.94c-4.65-6.68-5.06-14.12-3.59-21.58c1.58-7.99,4.6-15.52,9.29-22.38
		c3.55-5.2,6.61-10.75,9.28-16.51c2.27-4.9,1.38-9.73,0.45-14.63c-0.43-2.29-1.27-4.61-0.7-6.91c1.08-4.39,1.97-8.47-1.88-12.25
		c-1.71-1.68-1.11-4.38-0.71-6.72C111.92,260.57,112.92,258.83,111.56,256.25z"/>
</g>
</svg>
