<?xml version="1.0" encoding="utf-8"?>
<!-- Generator: Adobe Illustrator 24.0.2, SVG Export Plug-In . SVG Version: 6.00 Build 0)  -->
<svg version="1.1" id="Layer_1" xmlns="http://www.w3.org/2000/svg" xmlns:xlink="http://www.w3.org/1999/xlink" x="0px" y="0px"
	 width="860.62" height="790.21" viewBox="0 0 860.62 790.21" style="enable-background:new 0 0 860.62 790.21;" xml:space="preserve">
<g>
	<path d="M336.2,628.09c-4.66,4.89-1.43,11.17-3.45,16.49c-4.75-0.98-6.43-6.41-11.14-6.53c-1.96,4.45,1.51,8.68-0.19,13.26
		c-5.49-0.6-8.55-4.83-12.35-7.93c-1.87,0.62-0.94,2.77-2.85,4.12c-9.22-8.66-19.62-16.19-30.53-24.04
		c0.19,4.86,4.17,8.27,3.58,12.71c-1.55,1.03-2.41-0.04-3.24-0.71c-3.89-3.14-7.9-6.15-11.51-9.59c-2.78-2.65-5.3-2.51-8.56-1.11
		c-7.26,3.12-13.66,7.61-19.92,12.23c-9.91,7.32-19.54,15.01-27.92,24.12c-3.49,3.8-6.82,7.7-7.78,13.09
		c-0.66,3.72,0.36,7.32,0.74,10.87c0.54,4.93,1.13,9.91,1.74,14.84c0.98,8,5.16,14.71,7.67,22.07c0.57,1.66,2.35,2.32,3.7,3.24
		c4.15,2.83,8.05,5.93,11.04,10.02c1.53,2.09,2.17,4.1,1.44,6.93c-2.32,9.02-4.28,18.13-8.37,26.58c-5.46,11.29-19.37,13-26.98,3.07
		c-2.9-3.78-6.12-7.51-7.66-12.21c-0.55-1.66-1.65-2.81-3.29-3.54c-2.99-1.32-4.3-3.85-5.19-6.9c-1.42-4.85-1.46-9.88-2.12-14.81
		c-2.68-20.01-8.06-39.45-11.81-59.22c-1.4-7.4-3.43-14.51-5.59-21.64c-1.06-3.5-0.47-6.7,1.27-10.05
		c3.48-6.7,8.36-12.43,12.53-18.62c6.74-10.02,11.55-20.95,16.76-31.71c2.9-6,5.14-12.28,7.65-18.45c2.03-5,2.22-10.42,4.12-15.41
		c0.63-1.66-0.49-2.87-1.34-4.08c-7.37-10.56-13.24-21.95-18.65-33.6c-0.56-1.2-1.19-2.4-1.54-3.67c-0.82-2.91-1.48-5.82-4.52-7.41
		c-4.74-2.47-9.53-4.8-14.97-5.17c-1.71-0.11-2.61,1.27-3.47,2.52c-1.9,2.74-3.94,5.39-5.69,8.22
		c-10.95,17.75-27.05,24.29-47.25,21.52c-5.16-0.71-10.2,0.47-15.4-0.12c-5.72-0.65-10.57-2.89-15.39-5.39
		c-5.64-2.92-10.28-6.92-13.81-12.56c-6.13-9.8-6.65-19.44-1.74-29.77c5.92-12.46,9.79-25.49,9.32-39.46
		c-0.35-10.64-2.05-21.18-2.59-31.84c-0.26-5.1-2.99-10.13-4.94-15.06c-1.01-2.55-3.32-3.77-6.1-4.63
		c-12.05-3.73-23.2-9.36-32.3-18.23C7.1,370.3,1.13,357.72,0.13,342.94c-0.79-11.59,2.13-22.33,6.82-32.83
		c6.34-14.2,17.02-24.46,29.29-33.34c3.65-2.64,8.01-4.09,12.27-5.47c3.53-1.14,4.57-0.02,3.99,3.7c-0.61,3.92-2.74,7.12-4.89,10.29
		c-10,14.81-10.58,30.33-3.84,46.55c1.98,4.75,6.17,7.32,9.58,10.62c3.72,3.6,8.4,5.99,12.87,8.57c3.81,2.19,6.85,1.36,10.36-1.39
		c4.06-3.18,9.07-4.79,13.62-7.16c1.32-0.69,2.98-0.96,4.02-1.93c9.74-9.11,22.3-13.7,33.23-20.88c3.78-2.48,7.36-5.31,10.05-8.93
		c10.62-14.27,23.96-25.82,36.82-37.92c10.26-9.65,21.16-18.21,33.47-25.02c10.65-5.89,21.86-10.57,32.9-15.64
		c5.76-2.65,11.77-4.5,17.88-6.15c6.18-1.67,11.8-4.5,16.6-8.82c1.23-1.1,2.39-2.34,4.09-2.74c2.61,1.03,0.97,3.52,1.87,5.46
		c10.14-4.8,20.22-9.57,30.41-13.57c1.65,1.75,0.76,3.01,0.15,4.09c-1.62,2.85-1.54,6.11-2.37,9.14c-0.22,0.82-0.1,1.72,0.69,2.23
		c1,0.64,1.86,0.2,2.68-0.52c1.33-1.17,1.84-3.29,3.8-3.49c2.35,0.14,0.92,2.8,2.77,3.41c1.39-0.42,2.96-0.92,4.54-1.37
		c11.58-3.34,23.35-3.8,35.25-2.36c17.07,2.06,33.08,7.61,48.07,15.75c12.13,6.59,23.47,14.57,34.67,22.64
		c14.85,10.71,29.58,21.57,45.39,30.88c10.17,5.98,19.28,13.63,29.97,18.89c9.63,4.74,19.5,8.28,30.03,10.46
		c12.04,2.49,23.93,5.79,35.82,8.98c2.91,0.78,5.85,1.25,8.77,1.92c10.02,2.31,19.24,6.08,26.42,13.8c0.44,0.47,1.03,0.84,2.11,0.58
		c-0.13-6-0.36-12.08,0.43-18.14c1.56-11.92,4.79-23.47,7.58-35.12c2.79-11.65,7-22.9,9.13-34.73c2.74-15.23,6.09-30.36,6.05-45.94
		c-0.03-9.82-0.28-19.66-1.5-29.39c-0.64-5.09-3.27-9.75-5.56-14.35c-6.31-12.66-14.7-23.74-25.58-32.88
		c-15.55-13.06-32.71-22.41-53.28-25.1c-13.23-1.73-26.25-1.3-39.29,0.77c-4.49,0.71-8.27,3.45-11.67,6.29
		c-1.5,1.25-1.2,4.01-1.89,6.05c-2.5,7.4-7.59,12.45-13.98,16.36c-21.08,12.92-53.28,7.84-69.44-10.97
		c-5.67-6.6-9.66-14.11-14.2-21.31c-2.68-4.24-4.02-9.53-4.25-14.71c-0.22-4.89-1.55-9.48-2.65-14.15
		c-0.36-1.56-1.23-3.21,0.95-5.14c13.08,19.41,32.61,27.45,55.22,31.68c-1.41-4.22-6.29-3.51-7.2-6.91
		c1.42-2.21,3.56-0.43,5.77-1.56c-2.77-4.37-9.51-4.23-11.08-9.42c0.61-0.76,1.23-0.88,1.91-0.74c10.11,2.17,20.45,2.67,30.64,4.22
		c8.57,1.3,17.31,3.21,23.39,10.06c4.04,4.54,8.88,3.96,13.13,2.49c8.15-2.83,16.4-3.92,24.89-4.51c12.61-0.88,25-0.06,36.97,4.16
		c25.74,9.08,47.59,24.06,64.34,45.56c9.43,12.11,13.53,26.85,15.52,42.13c2.27,17.36,1.96,34.55-2.07,51.63
		c-0.22,0.94-0.57,1.91,0.14,2.9c1.8-0.47,2.51-2.1,3.34-3.43c13.08-20.89,29.68-38.85,46.81-56.39
		c15.01-15.37,30.87-29.85,48.09-42.64c10.41-7.73,20.41-16.05,31.38-23.03c1.82-1.16,3.5-2.55,5.24-3.84
		c3.34-2.48,5.88-4.54,4.83-10.01c-1.61-8.46,1.27-16.66,6.73-23.34c10.26-12.55,17.72-26.46,22.5-41.93
		c1.17-3.8,2.72-7.46,3.48-11.42c0.34-1.73,0.7-3.98,3.04-4.76c2.16,1.89,1.18,4.83,2.79,7.1c1.55-1.87,1.32-3.94,1.52-5.83
		c0.55-5.3,0.94-10.62,1.41-15.93c0.09-0.99,0.21-1.99,0.39-2.97c0.23-1.27,0.93-2.2,2.31-2.17c1.24,0.03,1.48,1.09,1.75,2.09
		c0.47,1.77,0.84,3.59,1.56,5.25c1.65,3.81,3.67,7.31,6.51,10.52c8.31,9.41,12.64,20.82,13.83,33.12c1.37,14.11-1,27.86-6.44,41.02
		c-1.23,2.97-3,5.55-5.47,8.25c2.29,1.56,1.25,5.79,6.58,4.75c-3.12,4.16-6.77,5.35-9.91,7.23c-9.21,5.52-19.59,6.2-29.87,6.86
		c-5.37,0.34-10.34-1.99-14.8-4.65c-1.29,0.12-2.06,0.79-2.8,1.44c-12.11,10.74-25.69,19.57-38.49,29.39
		c-18.63,14.29-37.03,28.86-52.89,46.37c-10.73,11.85-21.99,23.19-31.69,35.95c-12.47,16.4-22.47,34.16-30.33,53.19
		c-5.43,13.14-9.38,26.66-11.7,40.67c-0.19,1.14-0.26,2.31-0.3,3.46c-0.01,0.22,0.37,0.46,0.92,1.1c2.39-4.28,4.71-8.39,7-12.52
		c4.07-7.37,9.52-13.62,15.67-19.3c0.73-0.68,1.55-1.28,2.24-2c19.46-20.29,43.94-31.86,70.15-40.46
		c12.6-4.14,25.54-6.11,38.72-6.76c9.56-0.47,18.93,0.68,28.12,3.35c9.29,2.69,18.49,5.55,26.36,11.5
		c14.72,11.12,21.96,25.98,23.62,44.3c1.88,20.72-4.82,38.84-14.2,56.68c-7.89,15-19.46,26.9-30.36,39.47
		c-8.33,9.61-17.76,18.02-27.51,26.09c-1.82,1.51-3.03,2.98-2.48,5.48c1.9,8.55-2.52,15.09-7.11,21.47
		c-2.73,3.8-6.33,6.87-10.03,9.7c-5.07,3.89-9.08,8.81-13.48,13.34c-6.11,6.27-8.92,14.34-11.37,22.52
		c-0.92,3.08,0.74,6.14,0.9,9.59c-3.6-0.85-4.84-3.61-6.46-5.71c-1.44-1.86-3-3.5-4.7-5.1c-6.45-6.09-9.68-13.64-10.25-22.51
		c-0.32-4.96-1.28-9.79-0.41-14.87c1.79-10.45,6.53-19.11,14.32-26.19c0.86-0.78,1.93-1.36,2.17-2.7c-0.66-3.87-4.95-4.5-6.75-7
		c-0.13-2.22,2.06-1.68,2.75-3.06c-2.44-3.09-6.49-5.05-7.86-10.14c7.33,0.84,13.83,3.54,20.74,3.79c0.01-3.12-3.83-3.39-4.05-6.39
		c1.52-1.28,2.91-0.39,4.39,0.32c3.75,1.8,7.69,3.26,11.26,5.36c5.99,3.52,12.95,4.05,19.19,6.72c1.92,0.82,3.11-0.13,4.48-1.17
		c20.14-15.28,36.51-33.85,49.72-55.43c10.51-17.17,14.91-35.87,15.45-55.6c0.16-6.07-1.65-12.19-3.55-18.06
		c-1.23-3.79-2.97-7.42-4.27-11.2c-2.08-6.06-6.51-10-11.79-13.05c-16.36-9.46-34.16-12.03-52.61-9.77
		c-20.54,2.51-40.53,7.37-59.18,16.71c-9.72,4.86-18.55,11.17-27.34,17.47c-11.62,8.33-20.61,19.24-28.86,30.82
		c-6.4,8.98-9.4,19.4-12.98,29.58c-0.66,1.86,0.23,3.08,1.38,4.45c3,3.56,5.76,7.34,8.75,10.91c7.02,8.38,10.06,18.29,11.21,28.91
		c0.86,7.95,1.21,15.94,1.28,23.94c0.14,14.65,1.05,29.24,2.82,43.8c1.94,15.97,6.55,31.27,11.3,46.5
		c4.16,13.34,9.43,26.33,13.67,39.64c2.4,7.53,6.93,13.99,9.5,21.41c1.33,3.84,2.28,7.64,2.48,11.64
		c0.62,12.48,0.98,24.97,1.84,37.43c1.21,17.49,4.18,34.63,9.86,51.35c3.63,10.7,6.95,21.51,10.9,32.11
		c1.25,3.37,1.35,7.04,0.71,10.37c-1.32,6.94,0.37,13.57,1.06,20.31c0.66,6.46,0.99,12.9,0.69,19.67
		c-8.67,1.63-17.11,3.27-25.76,2.81c-8.95-0.48-17.93-0.09-26.87-1.48c-6.25-0.97-7.55-2.16-7.54-8.57
		c0.01-10.3,3.94-19.58,7.48-28.87c4.22-11.09,5.22-22.08,2.96-33.74c-2.62-13.54-3.5-27.37-7.03-40.78
		c-2.71-10.3-5.77-20.42-10.48-30.01c-2.09-4.26-5.39-7.66-8.49-11.06c-8.66-9.51-16.21-19.87-23.95-30.08
		c-10.25-13.53-20.29-27.21-30.17-41.01c-3-4.19-7-4.12-11.1-3.69c-5.29,0.55-10.53,1.62-15.77,2.54
		c-5.47,0.96-9.54,4.55-13.82,7.67c-1.39,1.01-1.56,2.9-1.54,4.6c0.07,5.83,0.34,11.58,1.95,17.3c1.75,6.23,3.62,12.43,5.03,18.78
		c1.6,7.19,6.02,13.29,9.01,19.95c1.69,3.77,3.86,7.25,3.61,11.75c-0.29,5.47-2.03,10.01-6.18,13.66c-4,3.52-7.91,7.14-11.8,10.77
		c-13.52,12.6-23.15,27.76-29.61,45.02c-2.74,7.32-3.99,15.1-7.19,22.31c-1.65,3.71-0.79,7.9-0.73,11.88
		c0.16,10.28-1.27,12.41-11.63,13.99c-11.18,1.7-22.5,1.95-33.81,1.82c-0.17,0-0.33-0.02-0.5-0.02c-3.27,0.1-4.26-1.53-4.14-4.69
		c0.29-7.1,2.36-13.73,4.73-20.32c0.28-0.78,0.96-1.56,0.91-2.3c-0.56-8.29,6.15-12.34,10.28-17.92
		c6.53-8.82,14.43-16.71,19.32-26.63c4.63-9.39,8.6-19.1,12.75-28.73c2.65-6.16-0.65-11.31-3.18-16.53
		c-7.13-14.75-16.95-27.74-26.24-41.13c-10.03-14.45-8.5-11.99-24.56-14.04c-6.98-0.89-13.91-1.23-20.86,0.3
		c-2.49,0.55-3.63,1.43-3.61,4.28c0.06,6.98-1.09,13.92-0.89,20.94c0.44,15.57-5.91,29.18-12.92,42.51
		c-4.1,7.81-8.56,15.42-12,23.57c-1.5,3.55-2.93,7.09-3.58,10.87c-2.63,15.18-2.59,30.5-2.04,45.83c0.15,4.18,1.58,8.16,2.77,12.15
		c3.61,12.08,1.15,23.05-6.28,32.95c-1.92,2.56-2.79,4.92-2.6,8.18c0.5,8.31,0.28,16.64,0.1,24.97c-0.07,3.26-1.36,5.06-4.57,5.36
		c-16.79,1.54-33.6,1.86-50.41,0.59c-3.92-0.3-5.11-2.15-3.83-6.26c2.43-7.79,5.25-15.46,10.02-22.2c1.23-1.73,2.12-3.28,1.22-5.48
		c-0.75-1.82-0.11-3.63,0.73-5.29c2.89-5.72,4.3-11.86,5.31-18.14c1.48-9.19,3.83-18.24,4.65-27.55c1.1-12.49,1.73-24.87-4.35-36.56
		c-2.09-4.02-2.24-8.71-2.73-13.16c-0.66-5.99-2.02-11.81-3.29-17.67c-0.21-0.97-0.13-2.28-1.12-2.65
		C342.18,633.09,340.08,629.41,336.2,628.09z"/>
</g>
</svg>
