<?xml version="1.0" encoding="utf-8"?>
<!-- Generator: Adobe Illustrator 24.0.2, SVG Export Plug-In . SVG Version: 6.00 Build 0)  -->
<svg version="1.1" id="Layer_1" xmlns="http://www.w3.org/2000/svg" xmlns:xlink="http://www.w3.org/1999/xlink" x="0px" y="0px"
	 width="861.3" height="734.05" viewBox="0 0 861.3 734.05" style="enable-background:new 0 0 861.3 734.05;" xml:space="preserve">
<g>
	<path d="M434.78,629.56c-4.97-1.03-5.22-4.24-5.33-8.29c-0.19-7.52,0.48-14.96,0.75-22.44c0.11-2.95,1.23-4.52,4.34-4.95
		c3.68-0.51,5.48-2.6,4.47-6.18c-2.13-7.53-3.17-15.29-5.22-22.81c-0.92-3.38-4.09-4.63-7.33-5.17c-5.74-0.96-11.53-1.59-17.27-2.58
		c-26.48-4.58-52.18-11.47-76.36-23.59c-7.25-3.63-15.14-5.98-22.68-9.04c-2.27-0.92-3.66-0.39-5.08,1.52
		c-2.79,3.76-4.8,7.97-7.14,11.98c-7.17,12.34-14.19,24.78-21.46,37.51c3.54,1.34,2.97,4.01,2.48,6.67
		c-1.06,5.76-3.11,11.19-5.28,16.6c-3.04,7.55-6.62,14.9-9,22.71c-1.03,3.36-3.73,3.32-6.67,3.35c-1.18,3.05-2.12,6.07-2.15,9.49
		c-0.07,7.4-2.35,14.43-4.54,21.41c-1.07,3.42-2.59,6.53,1.69,9.06c1.8,1.07,1.68,3.49,1.42,5.54c-1.37,10.9-2.72,21.8-4.12,32.69
		c-0.43,3.29-2.1,4.58-6.44,4.74c-5.99,0.22-11.99,0.23-17.98,0.36c-19.62,0.41-39.24,1.25-58.86,1.15
		c-22.63-0.12-45.19,2.2-67.83,1.58c-15.63-0.43-31.28,0.03-46.91-0.24c-5.8-0.1-11.62-0.92-17.36-1.85
		c-5.7-0.92-6.74-4.16-3.1-8.78c2.48-3.14,5.25-6,8.43-8.48c12.38-9.67,25.63-17.91,39.96-24.37c3.12-1.4,5.61-3.36,7.84-5.97
		c4.33-5.06,8.94-9.88,13.49-14.75c2.17-2.32,4.63-3.48,8.04-2.53c4.15,1.16,7.46-0.54,9.95-3.99c4.37-6.06,8.86-12.05,12.22-18.77
		c1.7-3.4,3.93-6.65,1.8-10.77c-0.6-1.16-0.15-2.68,0.46-3.88c6.18-12.13,10.67-25.15,19.14-36.07c3.02-3.89,5.34-4.78,10.24-3.55
		c6.14,1.54,8.45-0.38,7.62-6.81c-1.39-10.87-3-21.7-4.56-32.55c-1.5-10.4-2.07-20.88-2.67-31.35c-0.91-15.8-1.2-31.61-1.13-47.43
		c0.07-16.88,1.85-33.6,5.65-50c1.22-5.26,0.96-9.57-0.95-14.54c-3.14-8.14-3.4-16.43,0.65-24.71c2.25-4.61,4.07-9.44,6.43-14.04
		c2.77-5.41,7.08-8.25,13.01-8.57c2.2-0.12,3.61-0.7,4.82-2.71c5.12-8.46,7.71-18.03,12-26.84c0.79-1.61-0.17-2.93-1.32-3.97
		c-10.04-9.09-16.16-21.09-23.36-32.19c-5.01-7.72-9.89-15.72-11.97-25.08c-1.34-6-1.35-12.05-0.68-17.86
		c0.88-7.55,1.38-15.3,3.87-22.6c2.33-6.84,1.13-14.13,3.54-21.59c-13.13,2.69-25.72,3.48-37.84,7.32
		c-4.59,1.45-9.5,2.19-11.14,7.13c-1.03,3.11-2.29,6.21-3.03,9.43c-3.83,16.69-6.76,33.55-9.93,50.37c-2,10.62-4.25,21.2-6.37,31.8
		c-0.46,2.28-0.98,4.58-1.15,6.89c-0.88,12.11-3.36,24-4.63,36.05c-1.67,15.87-3.87,31.69-4.05,47.69
		c-0.05,4.82-0.57,9.65-1.23,14.43c-0.58,4.17-1.98,4.66-5.69,2.7c-8.2-4.34-13.6-11.66-19.35-18.49
		c-12.47-14.81-21.8-31.74-31.76-48.25c-6.29-10.42-12.09-21.13-16.54-32.39c-3.91-9.87-9.77-18.93-12.13-29.43
		c-1.31-5.84-3.11-11.58-4.17-17.46c-1.24-6.88-2.79-13.67-4.24-20.5c-1.28-6.05-1.15-12.28-1.07-18.38
		c0.04-3.12,2.61-5.98,4.72-8.58c3.38-4.16,7.24-7.78,11.44-11.11c10.3-8.16,19.83-17.33,31.08-24.28
		c8.34-5.15,16.64-10.41,25.21-15.16c5.2-2.87,10.9-4.82,16.36-7.24c3.5-1.55,6.83-0.59,10.21,0.44c6.09,1.86,11.53,5.12,16.98,8.24
		c10.19,5.84,21.1,8.79,32.78,9.09c6.44,0.17,12.86,1.06,19.43,0.74c0.61-3.91-1.49-6.8-2.38-9.86c-2.24-7.67-2.64-15.67-4.9-23.32
		c-2.27-7.69-2.82-15.68-3.35-23.66c-0.14-2.06-0.3-3.99,1.81-5.51c2.36,0.25,3.5,2.27,4.79,3.87c4.84,5.94,9.31,12.17,13.51,18.58
		c1.22,1.87,2.24,3.97,5.21,5.88c-3.27-29.26-4.24-57.6-1.87-86.25c8.73,5.23,14.63,13.01,21.22,19.99
		c6.76,7.15,12.08,15.48,18.12,23.23c6.02,7.72,11.78,15.62,17.09,23.62c1.54-0.26,2.22-1.06,2.65-1.92
		c8.05-16.16,19.02-30.44,29.03-45.35c1.13-1.68,2.48-3.12,3.85-4.57c2.68-2.84,5-2.53,6.19,1.07c1.3,3.94,2.38,7.98,3.26,12.03
		c2.15,9.91,4.14,19.85,6.53,29.83c2.97-8.56,7.11-16.57,9.64-25.26c3.85-13.26,8.92-26.09,14.7-38.63
		c4.04-8.76,8.4-17.38,12.21-26.23c1.94-4.51,5.21-8.01,7.84-12.62c3.53,2.19,5.46,5.5,6.93,8.84c3,6.84,5.59,13.87,8.26,20.86
		c6.54,17.08,12.8,34.24,18.33,51.69c1.34,4.24,2.77,8.54,5.05,12.47c2.48,4.27,2.69,4.49,7.36,2.34
		c5.11-2.36,10.11-4.95,15.48-6.69c15.16-4.93,29.58-11.77,44.73-16.84c10.46-3.5,20.73-7.93,30.99-12.17
		c11.2-4.62,22.53-8.92,33.65-13.71c5.5-2.36,10.99-4.83,16.72-6.39c11.51-3.15,21.89-9.69,34.05-10.88
		c5.04-0.49,7.05,0.15,9.99,4.47c7.98,11.74,14.56,24.27,20.35,37.17c4.15,9.24,7.31,18.92,11.07,28.34
		c3.64,9.13,5.34,18.81,8.34,28.11c0.64,1.98,0.13,3.66-0.74,5.24c-2.08,3.77-5.35,7.64-5.08,11.62c0.26,3.77,3.61,7.3,5.53,10.97
		c10.46,20.03,20.67,40.18,30.48,60.54c6.27,13.03,12.56,26.06,18.56,39.22c1.17,2.56,2.02,5.26,2.99,7.91
		c1.55,4.21,2.5,4.85,6.99,4.46c3.82-0.33,7.63-0.71,11.44-1.09c6.77-0.67,10.18,1.51,12.79,7.65c2.73,6.42,3.04,13.29,3.85,20.03
		c0.39,3.22-1.74,6.01-4.1,8.24c-3.51,3.31-6.95,6.74-10.73,9.72c-2.17,1.71-2.95,3.33-2.13,5.91c0.29,0.93,0.17,1.99,0.29,2.98
		c0.82,6.96,6.71,9.57,12.58,5.45c4.22-2.96,8.19-6.27,12.38-9.29c9.33-6.73,19.29-12.36,29.76-17.14c3.08-1.41,6.4-1.76,9.59-2.62
		c3.26-0.87,4.43,1.41,5.01,4.11c1.77,8.3,3.61,16.58,5.22,24.92c2.87,14.87,4.67,29.91,6.52,44.88c0.97,7.88,4.19,14.09,7.5,20.68
		c7.76,15.47,16.87,30.21,24.6,45.71c3.31,6.64,6.84,13.23,10.18,19.85c3.87,7.67,6.2,16.14,8.24,24.53
		c6.21,25.5,8.42,51.56,10.36,77.64c0.11,1.49,0.01,3.01,0.78,4.66c3.99,0.52,5.49,3.61,7.27,7c4.94,9.4,6.82,19.79,10.35,29.63
		c0.95,2.65,0.49,4.66-1.87,6.55c-4.59,3.68-4.63,3.87-2.17,9.1c4.34,9.24,7.14,18.94,9.49,28.83c0.99,4.14,2.11,8.3,8.02,8.54
		c4.26,0.17,5.91,4.32,6.85,7.73c1.27,4.59,2.46,9.26,2.87,14.1c0.59,6.96,1.46,13.9,2.43,20.82c0.79,5.66,0.49,11.31,0.24,16.96
		c-0.19,4.28-2.66,6.45-7.02,7.53c-10.76,2.66-21.7,2.39-32.66,3c-19.52,1.1-38.93-0.31-58.39-0.73c-6.66-0.14-13.31-0.4-19.97-0.34
		c-2.82,0.03-5.62-0.63-8.41-0.87c-8.55-0.74-10.33-4.13-9.66-13.94c0.35-5.12,1.62-10.19,2.66-15.24
		c1.28-6.23,0.81-12.61,1.77-18.87c0.38-2.48,0.96-4.57,2.99-5.99c2.21-1.53,2.71-3.57,2.48-6.08c-0.85-8.93-1.11-17.94-3.77-26.63
		c-0.82-2.68-0.29-5.63-1.63-8.28c-0.78-1.54-1.47-3.35-3.17-3.61c-6.7-1.02-8.39-6.37-9.3-11.52c-1.45-8.23-4.39-16.03-6.01-24.18
		c-0.45-2.28-0.89-4.56-0.72-6.63c0.62-1.93,3.11-1.08,3.45-3.42c-5.32-6.48-10.79-13.34-17.01-19.56
		c-6-6.01-12.05-11.98-18.14-17.9c-2.89-2.81-5.97-4.21-10.1-1.86c-2.98,1.7-6.42,2.58-10.02,3.97c0.37,5.22,2.03,10.08,3.2,15.03
		c1.52,6.47,2.99,12.96,4.92,19.31c1.85,6.12,0.73,11.57-2.84,16.55c-2.24,3.12-2.09,5.77-0.36,9.12
		c5.58,10.85,9.22,22.4,11.88,34.3c2.25,10.04,4.96,19.97,7.43,29.96c0.49,2,1.17,3.79,3.05,4.94c6.02,3.67,7.93,9.79,8.64,16.13
		c0.9,8.1,2.18,16.15,2.9,24.25c0.34,3.88-0.66,7.9-1.26,11.82c-0.26,1.74-1.33,3.19-3.38,3.03c-5.73-0.45-10.94,2.27-16.71,2.27
		c-11.96,0-23.92,0.89-35.88,1.28c-4.65,0.15-9.57-0.45-13.92,0.52c-20.39,4.54-40.98,1.91-61.45,2.24
		c-8.42,0.14-17.11,1.88-25.34-0.52c-11.82-3.44-24.12-3.07-36.04-5.42c-2.08-0.41-3.5-1.28-4.86-3.01
		c-2.32-2.94-4.9-5.87-9.33-5.52c-10.49,0.82-20.97-0.29-31.45-0.18c-18.15,0.19-36.29,0.11-54.43-0.65
		c-5.85-0.24-11.59-1.22-17.32-2.16c-5.05-0.83-6.25-3.57-3.78-8.2c2.35-4.39,4.66-9.04,9.38-11.35c5.28-2.58,6.81-7.84,9.5-12.26
		c2.85-4.68,5.83-9.29,7.74-14.51c1.2-3.3,3.36-6.12,5.67-8.77c1.2-1.38,2.6-3.02,4.62-2.4c3.54,1.08,5.14-1.24,6.18-3.6
		C428.69,646.76,432.57,638.87,434.78,629.56z"/>
</g>
</svg>
