<?xml version="1.0" encoding="utf-8"?>
<!-- Generator: Adobe Illustrator 24.0.2, SVG Export Plug-In . SVG Version: 6.00 Build 0)  -->
<svg version="1.1" id="Layer_1" xmlns="http://www.w3.org/2000/svg" xmlns:xlink="http://www.w3.org/1999/xlink" x="0px" y="0px"
	 viewBox="0 0 820.29 839.03" style="enable-background:new 0 0 820.29 839.03;" xml:space="preserve">
<g>
	<path d="M103.44,282.19c-0.04,2.16-1.28,3.69-2.6,5.22c-8.1,9.33-18.74,13.56-30.64,15.14c-2.32,0.31-4.73-0.02-6.76-1.3
		c-2.61-1.65-4.94-1.19-7.45,0.25c-3.61,2.07-7.36,3.9-11,5.9c-6.66,3.66-13.55,3.18-20.3,0.68c-6.15-2.28-8.82-7.8-7.7-14.46
		c0.14-0.81,0.2-1.64,0.32-2.68c-5.56-2.99-6.62-8.35-7.06-13.94c-0.61-7.7,0.41-15.27,2.14-22.77c0.12-0.54,0.43-0.86,1.41-1.08
		c0.44,3.86,0.89,7.69,1.32,11.52c0.39,3.51,1.27,6.87,3.12,9.92c0.7,1.14,1.45,2.45,2.97,2.33c1.62-0.12,2.61-1.24,3.17-2.8
		c1.84-5.17,3.97-10.25,5.52-15.51c1.07-3.63,3.29-6.92,3.54-10.9c-9.08-2.52-19.17,0.67-27.6-5.55c3.01-7.96,7.19-14.85,12.54-21.2
		c-7.18-5.62-9.74-13.59-11.96-21.63c-2.4-8.69-3.66-17.58-3.36-26.66c0.2-6.03-1.52-11.86-2.3-17.78
		c-1.54-11.77-0.74-23.27,2.58-34.61c0.97-3.32,2.18-6.65,5.24-8.83c3.16,0.8,3.59,3.42,4.19,5.75c2.29,8.9,5.57,17.43,9.36,25.78
		c2.48,5.47,5.56,10.55,9.31,15.06c1.84-0.12,1.8-1.57,2.31-2.51c2.19-4.08,3.49-8.7,7.2-11.83c1.6-1.35,1.06-2.95,0.75-4.6
		c-3.7-19.44-4.21-39.07-3.28-58.75c0.67-14.33,2.91-28.5,5.23-42.64c1.53-9.36,2.22-18.85,4.59-28.08
		c0.66-2.59,1.43-5.15,2.62-7.52c1.35-2.68,2.9-2.79,5.05-0.63c1.43,1.44,2.3,3.26,3.1,5.09c7.91,17.97,15.84,35.93,23.26,54.11
		c7.17,17.56,14.78,34.95,21.18,52.82c1,2.79,1.96,5.59,3.09,8.82c8.36-1.95,16.44-1.5,24.6,0.55c1.88-3.13,3.6-6.13,5.45-9.03
		c14.27-22.5,33.4-40.58,53.13-58.06c13.36-11.84,27.38-22.84,43.05-31.54c0.29-0.16,0.54-0.39,0.82-0.57
		c1.86-1.18,3.97-2.54,5.96-1.02c1.84,1.4,1.01,3.79,0.45,5.63c-3.09,10.23-5.05,20.72-7.11,31.17
		c-6.46,32.76-16.79,64.41-27.33,96.01c-2.1,6.3-3.64,12.79-5.57,19.16c-0.8,2.64,0.5,4.37,2.05,6.53
		c6.77-4.23,13.47-8.19,19.48-13.21c2.38-1.99,4.72-5.01,8.21-3.31c3.54,1.72,2.59,5.5,2.37,8.53c-0.59,8.44-4.52,15.71-9.23,22.37
		c-3.61,5.12-4.31,11.1-6.57,16.59c-0.59,1.42,0.1,2.91,0.63,4.35c6.09,16.55,11.72,33.27,17.44,49.95
		c4.23,12.32,10.55,23.7,19.33,33.52c3.2,3.59,7.67,5.27,11.89,7.18c8.54,3.87,16.95,8.02,23.81,14.45
		c4.68,4.39,9.7,8.05,15.34,11.01c2.83,1.48,5.7,2.76,8.87,3.22c26.4,3.83,52.89,6.48,79.63,5.63c7.72-0.25,15.25-1.64,22.6-3.79
		c15.51-4.55,31.33-4.17,47.1-2.81c17.15,1.47,33.79,5.71,49.89,11.77c9.86,3.72,18.65,9.61,27.37,15.42
		c30.67,20.42,62.61,38.62,95.38,55.4c17.04,8.73,34.16,17.3,50.93,26.54c17.6,9.7,32.92,22.57,48.71,34.79
		c14.26,11.03,28.07,22.54,39.62,36.49c14.08,17.01,26.31,35.23,35.17,55.54c4.97,11.4,7.09,23.57,8.81,35.79
		c3.9,27.69-0.15,54.39-10.12,80.36c-4.66,12.13-9.43,24.11-17.01,34.86c-26.15,37.09-62.14,60.18-104.78,73.52
		c-21.87,6.84-44.48,8.21-67.28,6.22c-5.95-0.52-11.89-1.13-18.08-1.72c-0.43,2.72-0.73,5.14-1.2,7.53
		c-0.92,4.7-2.39,5.79-7.27,5.18c-11.41-1.45-22.86-2.87-33.89-6.16c-9.28-2.77-17.64-2.71-26.82,1.51
		c-16.16,7.42-33,13.38-49.52,20.02c-5.88,2.36-11.46,5.3-16.81,8.74c-6.69,4.31-10.29,2.87-12.31-4.93
		c-2.68-10.38-1.56-20.84-0.2-31.27c0.21-1.63,0.98-3.2,0-5.32c-9.71,3.87-19.87,6.2-30.19,7.84c-11.37,1.81-22.8,2.94-34.32,3.15
		c-4.81,0.09-6.26-1.44-5.98-6.29c0.59-9.99,3.91-19.26,8.43-28.03c6.02-11.68,12-23.43,20.28-33.77c0.28-0.35,0.34-0.88,0.57-1.51
		c-6.8-4.15-13.55-8.28-20.82-12.71c-1.79,6.48-3.57,12.49-5.11,18.57c-2.08,8.22-3.98,16.5-4.94,24.94
		c-0.79,6.94-4.24,10.98-11.24,12.78c-10.02,2.58-20.02,5.17-30.39,5.6c-13.09,0.54-25.88-1.29-38.31-5.56
		c-3.31-1.14-4.06-3.69-4.17-6.64c-0.11-2.93,1.03-5.54,2.6-7.96c2.91-4.48,6.37-8.53,9.63-12.73c5.27-6.78,12.06-7.54,19.68-5.99
		c4.56,0.93,9.13,1.85,13.66,2.95c3.39,0.83,5.01-0.5,6.56-3.54c8.91-17.51,14.65-36,18.32-55.27c2.43-12.75,6.22-25.23,8.62-38.01
		c0.62-3.28,1.29-6.58,0.95-9.92c-0.51-5.05-1.91-9.76-5.66-13.53c-5.17-5.19-10.04-10.71-15.42-15.67
		c-6.07-5.61-9.82-12.51-12.41-20.13c-3.91-11.51-7.39-23.13-9.08-35.23c-1.57-11.26-2.08-22.52-0.89-33.86
		c0.45-4.27,0.63-8.6,0.11-13.39c-4.32,1.71-8.56,2.76-12.75,3.86c0.26,1.52,1.31,1.85,2.02,2.49c5.47,4.97,7.21,10.95,5.07,18.1
		c-4.51,15.08-16,22.67-29.75,27.84c-0.9,0.34-1.99,0.42-2.95,0.3c-2.39-0.3-3.09-1.94-1.59-3.85c1.02-1.3,2.3-2.4,3.55-3.5
		c3.2-2.81,5.38-6.25,7.01-10.18c2.09-5.05-0.89-9.49-6.41-8.87c-4.11,0.46-7.71,1.52-10.61,5.46c-3.09,4.2-7.54,7.51-11.73,10.77
		c-5.7,4.45-10.23,10-15.24,15.1c-1.53,1.56-1.92,3.35-1.52,5.5c3.06,16.53,5.79,33.13,9.53,49.53c0.85,3.75,1.85,7.32,5.7,9.45
		c1.98,1.1,3.44,3.12,5.15,4.7c8.61,7.95,10.87,17.54,7.63,28.67c-2.12,7.3-2.19,14.73-1.37,22.28c1.05,9.6,1.66,19.24,2.4,28.88
		c1.07,13.95,3.46,27.75,4.67,41.7c1.03,11.85-3.73,19.54-15.15,22.92c-13.12,3.88-26.55,4.46-40.07,4.06
		c-5.16-0.15-10.3-0.72-15.45-0.94c-6.63-0.28-12.2-2.97-17.17-7.18c-2.27-1.92-3-4.34-2.3-7.17c1.83-7.42,4.92-14.26,10.7-19.4
		c4.98-4.43,11.07-5.89,17.69-4.91c7.07,1.04,14.13,2.13,21.34,1.55c4.87-0.39,7.85-2.76,7.8-7.73
		c-0.16-16.58-2.46-32.75-9.18-48.16c-2.6-5.95-5.72-11.64-8.14-17.66c-3.97-9.89-10.26-18.22-17.24-26.12
		c-2.07-2.34-3.95-4.86-6.09-7.5c-2.02,2.84-1.87,5.55-1.02,8.32c0.49,1.59,1.08,3.14,1.65,4.7c4.2,11.38-0.76,20.88-6.52,29.99
		c-6.31,9.98-12.25,20.23-19.62,29.52c-9.63,12.14-15.33,25.98-17.87,41.24c-1.25,7.55-3.35,14.95-4.15,22.6
		c-0.76,7.3-4.45,12.88-11.06,16.14c-7.77,3.82-15.72,7.29-24.31,8.91c-6.1,1.15-12.15,1.34-18.34,0.03
		c-8.95-1.9-18.17-2.33-27.1-4.48c-3.58-0.86-7.03-2.05-10.35-3.63c-4.32-2.06-6.97-5.45-8.47-9.96c-1.14-3.44-0.7-6.53,1.14-9.54
		c3.53-5.77,8.35-10.36,13.46-14.66c2.82-2.38,6.42-2.66,9.88-2.99c10.45-1.01,20.67,0.28,30.44,4.04c3.44,1.32,4.83,0.45,6.66-2.49
		c11.05-17.71,18.35-36.9,23.27-57.09c1.61-6.63,3.24-13.26,4.98-19.86c4.03-15.27,2.86-30.73,2.05-46.22
		c-0.53-10.14-0.9-20.33,1.26-30.38c0.18-0.81,0.34-1.63,0.56-2.44c2.15-7.98,6.1-9.66,13.16-5.51c3.73,2.19,7.1,4.9,10.17,8.15
		c1.82-1.69,2.08-3.75,2.58-5.57c3.25-11.87,6.31-23.8,9.59-35.66c0.54-1.97,0.34-3.54-0.55-5.23c-3.98-7.55-8.47-14.72-14.62-20.75
		c-1.11-1.09-2.16-1.9-3.76-2.15c-22.93-3.66-42.67-14.6-61.62-27.26c-9.83-6.57-19.8-13.05-27.29-22.46
		c-8.93-11.2-17.8-22.53-24.97-34.91c-11.55-19.95-10.86-40.99-3.55-62.26c8.09-23.53,20.58-44.67,34.86-64.87
		c2.11-2.98,3.9-6.19,5.66-9.4c5.33-9.72,4.13-19.56,0.43-29.44c-0.57-1.52-1.71-2.39-2.91-3.28c-0.52-1.36-0.76-3.09-2.96-2.14
		c-6.55,2.82-13.34,5.13-19.34,9.17c4.75-0.13,9.04-1.71,13.31-3.52C97.32,284.56,99.98,282.38,103.44,282.19z M578.75,436.74
		c-0.03,2.94,1.4,4.87,2.11,7.02c2.93,8.98,6.66,17.7,6.58,27.48c-0.09,11.14-2.58,21.7-6.11,32.14
		c-5.69,16.86-13.33,32.98-19.02,49.84c-1.19,3.54-2.66,7.01-3.34,11.24c1.52-0.23,2.49-0.31,3.42-0.53
		c4.56-1.09,9.09-2.37,13.22,1.29c0.78,0.69,1.89,0.3,2.88,0.12c11.95-2.16,23.97-3.97,36.1-4.53c7-0.32,13.38-2.26,19.66-4.99
		c18.63-8.08,26.51-32.33,15.91-49.64c-6.37-10.4-14.23-19.6-23.33-27.82C611.19,464.25,592.73,453.44,578.75,436.74z
		 M432.96,567.87c-5.67,11.15-11.56,21.26-15.18,33.36c9.86-1.85,18.97-2.75,28.76-3.03C441.18,588.13,436.73,578.57,432.96,567.87z
		 M454.94,525.31c-4.51,9.06-7.8,17.33-13,25.42c9.87-0.6,18.2,2.9,27.63,4.68C463.69,545.55,459.46,536.03,454.94,525.31z
		 M410.18,670.7c0.34,0.23,0.68,0.45,1.02,0.68c4.05-3.77,9.1-6.31,13.09-10.56c-2.26-2.56-4.16-4.95-7.16-6.73
		C414.69,659.91,412.44,665.3,410.18,670.7z"/>
</g>
</svg>
