<?xml version="1.0" encoding="utf-8"?>
<!-- Generator: Adobe Illustrator 24.0.2, SVG Export Plug-In . SVG Version: 6.00 Build 0)  -->
<svg version="1.1" id="Layer_1" xmlns="http://www.w3.org/2000/svg" xmlns:xlink="http://www.w3.org/1999/xlink" x="0px" y="0px"
	 width="797.39" height="861.13" viewBox="0 0 797.39 861.13" style="enable-background:new 0 0 797.39 861.13;" xml:space="preserve">
<g>
	<path d="M158.76,725.75c-0.36-1.92-1.43-3.38-3.01-4.41c-10.51-6.87-18.86-16.31-28.66-23.99c-11.67-9.13-20.83-20.58-29.92-31.96
		c-6.08-7.61-10.76-16.42-15.4-25.05c-2.59-4.82-5.69-9.32-8.22-14.2c-3.46-6.67-6.23-13.51-8.95-20.47
		c-3.87-9.88-7.77-19.76-11.59-29.66c-2.29-5.92-3.21-12.12-4.46-18.3c-1.28-6.31-2.63-12.67-4.46-18.84
		c-1.69-5.69-2.06-11.57-1.98-17.21c0.12-9.33-0.25-18.65-1.3-27.83c-0.95-8.29,1.57-16.2,1.01-24.35
		c-0.59-8.56,1.15-16.89,3.44-25.09c0.74-2.65,0.18-5.31,0.45-7.94c0.86-8.39,2.31-16.68,4.16-24.91c0.6-2.69,0.38-4.97-1.67-7.35
		c-4.46-5.17-7.96-10.97-10.67-17.35c-3.71-8.71-7.94-17.2-11.5-25.99c-4.75-11.71-8.83-23.64-12.82-35.64
		c-2.74-8.25-4.32-16.71-6.42-25.07c-1.82-7.24-2.71-14.72-3.78-22.13c-0.39-2.66-0.82-5.3-1.75-7.77c-1.17-3.12-1.5-6.08-0.16-9.19
		c0.76-1.78,0.21-3.53-0.18-5.36c-0.97-4.56-1.44-9.12,0.06-13.76c1.77-5.51,1.5-11.44,3.95-16.93
		c5.02-11.22,14.52-16.78,26.45-14.01c7.91,1.84,15.84,3.96,23.28,7.28c13.92,6.22,26.13,15.11,37.65,25.03
		c5.43,4.67,10.28,9.91,15.43,14.85c3.37,3.22,6.12,3.6,10.05,1.33c4.92-2.84,9.14-6.09,12.05-11.35
		c3.11-5.64,7.69-10.38,12.18-15.08c2.52-2.65,4.74-5.58,7.08-8.39c2.59-3.12,3.58-6.17,2.15-10.53c-1.05-3.22-0.42-7.32,0.5-10.76
		c0.97-3.63,1.16-7.16,0.86-10.76c-0.63-7.59,2.03-14.78,2.51-22.23c0.43-6.62,1.15-13.24,2.6-19.7c1.97-8.75,1.63-17.9,4.1-26.44
		c3.23-11.19,4.4-22.75,7.22-34.02c2.74-10.95,6.63-21.39,10.31-31.98c1.48-4.25,2.71-8.47,5.23-12.2
		c3.09-4.56,6.94-7.03,12.94-6.03c11.17,1.85,22.13,4.63,33.17,7.07c6.81,1.5,13.39,3.79,19.94,6.06c7.21,2.5,14,6.19,21.21,8.7
		c11.04,3.85,21.02,10.12,31.96,13.92c10.57,3.67,20.63,8.34,30.8,12.85c2.74,1.22,5.78,1.56,8.39,3.15
		c1.76,1.08,3.08-0.19,4.41-1.28c6.94-5.7,14.1-11.13,20.83-17.06c10.54-9.28,22.6-16.44,33.72-24.89
		c6.47-4.92,13.33-9.39,19.73-14.31c14.24-10.93,29.65-19.86,45.99-26.65c9.04-3.75,18.61-7.93,29.1-7.59
		c3.38,0.11,6.19,0.76,8.65,3.04c3.7,3.43,6.8,7.31,9.08,11.82c5.39,10.68,11.3,21.09,15.73,32.24
		c5.89,14.84,12.05,29.56,17.8,44.45c2.45,6.33,4.3,12.91,6.15,19.45c1.41,4.98,3.8,8.74,9.12,10.19c1.56,0.42,2.95,1.52,4.35,2.41
		c1.33,0.85,2.62,1.27,4.23,0.77c15.83-4.99,31.94-8.94,48.19-12.22c10.08-2.03,20.42-2.7,30.58-4.38
		c5.22-0.86,10.49-1.37,15.7-2.44c4.16-0.86,8.58-0.81,12.87-0.67c8.83,0.28,17.54-1.45,26.32-1.36
		c11.12,0.11,22.23-0.64,33.36-0.07c4.61,0.24,9.21,0.45,13.81,0.91c4.3,0.43,8.27,2.06,12.6,2.56c4.51,0.51,7.51,6.14,7.6,11.03
		c0.26,13.17-3.11,25.78-6.26,38.34c-5.18,20.6-12.17,40.68-19.19,60.71c-3.29,9.38-8.63,18.08-11.58,27.54
		c-3.27,10.5-8.94,19.95-11.91,30.54c-1.41,5.04-4.17,9.78-6.76,14.41c-2.36,4.23-4.11,8.76-6.55,12.91
		c-1.78,3.03-2.01,6.01-0.92,9.09c2.29,6.46,1.97,13.43,4.21,19.92c0.85,2.46,1.24,5.11,2.23,7.6c1.41,3.55,2.21,7.25,2.61,11.12
		c0.45,4.46,3.21,9.27,9.42,8.24c14.67-2.43,29.2,0.02,43.57,2.75c7.4,1.4,14.12,5.49,19.83,10.04c4.74,3.77,7.31,9.36,4.87,16.83
		c-1.87,5.73-3.33,11.74-5.15,17.59c-2.13,6.85-5.64,13.09-8.35,19.68c-7.82,19.03-20.74,34.61-34.2,49.74
		c-6.93,7.79-13.92,15.58-22.6,21.61c-3.79,2.63-5.93,6.15-6.11,11.25c-0.24,6.91-1.5,13.76-2.87,20.62
		c-2,10.02-4.57,19.84-7.54,29.58c-1.93,6.33-3.07,12.82-5.38,19.13c-5.45,14.88-9.84,30.12-16.82,44.45
		c-2.54,5.22-5.74,10.3-7.6,15.61c-2.48,7.07-7.5,12.45-10.38,19.16c-2.07,4.81-5.02,9.48-8.54,13.35
		c-3.57,3.93-6.88,8.12-10.62,11.84c-5.11,5.09-8.17,11.74-13.28,16.71c-7.75,7.53-15.78,14.78-23.74,22.1
		c-4.16,3.83-8.45,7.52-12.57,11.38c-1.23,1.15-2.4,2.27-3.94,2.99c-1.67,0.79-3.2,1.83-4.4,3.25c-2.28,2.69-1.91,4.95,1.07,6.86
		c1.25,0.8,2.48,1.87,3.87,2.2c3.48,0.84,6.19,2.88,9.18,4.69c9.09,5.53,18.23,10.99,27.3,16.55c4.32,2.65,7.67,6.31,11.39,9.48
		c5.81,4.95,11.6,9.99,17.22,15.19c4.44,4.11,8.36,8.55,10.39,14.44c0.8,2.34,2.06,4.58,3.43,6.65c3.72,5.65,3.98,11.89,3.4,18.28
		c-0.32,3.49-2.21,6.29-4.79,8.51c-8.88,7.64-18.62,14.01-29.66,17.97c-5.11,1.83-10.76,1.96-16.2,2.06
		c-2.15,0.04-4.28,0.25-6.42,0.33c-9.03,0.34-17.94-0.38-26.67-2.8c-8.66-2.41-17.75-2.33-26.38-5.09
		c-11.29-3.61-22.05-8.36-32.7-13.47c-16.45-7.9-31.5-17.88-45.19-29.93c-4.76-4.19-9.31-8.58-13.7-13.14
		c-0.58-0.6-1.59-1.07-1.74-1.74c-1.4-6.32-5.69-5.51-10.45-4.76c-8.37,1.32-16.67,3.03-25.02,4.49c-6.39,1.12-12.85,1.44-19.33,1.8
		c-8.43,0.47-16.97-1.06-25.17,0.19c-10.51,1.6-20.73-0.59-31.05-0.76c-9.3-0.15-18.78-0.06-28.08-1.45
		c-11.29-1.69-22.51-3.68-33.63-6.4c-8.7-2.13-17.34-4.34-25.82-7.21c-1.88-0.64-3.64-1.04-4.98,0.74
		c-7.63,10.19-18.94,14.81-29.88,20.06c-7.94,3.81-15.98,7.37-23.38,12.32c-4.5,3.01-10.35,3.35-15.42,5.5
		c-14.44,6.13-29.72,9.54-44.98,12.6c-19.05,3.82-38.39,6.14-57.86,3.61c-7.33-0.95-14.76-2.47-21.2-6.52
		c-2.41-1.52-5.69-1.25-7.48-3.76c-4.1-5.75-8.98-10.72-9.86-18.62c-1.22-10.99,2.53-19.87,8.89-28.03
		c8.63-11.08,18.66-20.77,30.25-28.83c5.81-4.04,12.54-6.11,18.67-9.4c10.52-5.64,21.81-8.98,33.31-11.78
		C155.64,728.2,157.66,727.74,158.76,725.75z"/>
</g>
</svg>
