<?xml version="1.0" encoding="utf-8"?>
<!-- Generator: Adobe Illustrator 24.0.2, SVG Export Plug-In . SVG Version: 6.00 Build 0)  -->
<svg version="1.1" id="Layer_1" xmlns="http://www.w3.org/2000/svg" xmlns:xlink="http://www.w3.org/1999/xlink" x="0px" y="0px"
	 viewBox="0 0 860.57 784.47" style="enable-background:new 0 0 860.57 784.47;" xml:space="preserve">
<g>
	<path d="M316.47,693.86c-6.3-1.59-11.54-3-16.94-3.85c-13.85-2.17-27.12-6.25-40.28-11.13c-13.41-4.98-26.48-10.63-39.4-16.69
		c-1.88-0.88-3.61-1.01-4.57,1.25c-3.26,7.66-8.46,14.28-11.78,21.93c-1.37,3.16-2.11,6.14-1.28,9.63
		c2.1,8.75,0.91,17.59-0.31,26.28c-0.66,4.7-3.56,8.72-8.29,10.55c-2.67,1.03-4.67,2.52-5.87,5.05c-1.26,2.66-3.58,3.91-6.19,4.64
		c-11.49,3.24-22.97,3.78-34.3-0.67c-4.07-1.6-8.39-1.64-12.23-0.44c-10.72,3.34-21.65,3.13-32.6,2.88
		c-9.68-0.22-19.23-1.4-28.39-4.83c-4.05-1.52-7.54-3.55-8.9-8.01c-0.83-2.73-3.71-3.14-5.65-4.88c-0.32-6.27,1.7-12.05,4.26-17.67
		c2.97-6.51,5.85-13.07,9.65-19.16c2.18-3.5,2.95-7.28,2.95-11.41c0-6.66,0.27-13.32-0.26-19.97c-0.65-8.15,2.53-15.36,5.97-22.39
		c3-6.13,5.77-12.32,8.07-18.77c1.05-2.96,0.38-4.62-1.86-6.38c-5.75-4.54-11.37-9.25-16.03-14.98c-4.67-5.73-8.84-11.71-9.62-19.35
		c-0.19-1.85-1.23-2.49-2.8-2.97c-14.32-4.41-28.05-10.34-41.88-16.03c-5.4-2.22-10.61-4.78-15.39-8.16
		c-3.38-2.38-3.4-3.24-0.11-5.96c6.59-5.43,13.88-9.87,21.41-13.74c15.98-8.22,32.13-16.35,49.43-21.27
		c7.38-2.1,11.56-5.52,14.54-12.32c3.04-6.94,7.33-13.32,10.62-20.22c2.2-4.61,6.4-7.95,9.99-11.62c-2.56-3.5-5.88-5.48-9.52-7.21
		c-8.12-3.87-15.86-8.44-23.44-13.27c-1.53-0.98-2.96-2.19-4.25-3.48c-3.45-3.45-5.19-7.26-4.32-12.53
		c1.68-10.22,4-20.24,7.98-29.77c2.69-6.45,7.46-10.48,14.81-11.94c7.65-1.51,15.14-4.21,22.92-4.69c5.45-0.33,8.95-2.51,12.74-6.29
		c10.61-10.62,22.36-19.9,36.04-26.47c3.59-1.73,7-3.83,10.57-5.6c1.25-0.62,1.6-1.51,1.84-2.7c1.23-6.05,5.1-10.06,10.41-12.6
		c3.18-1.52,4.51-3.54,4.22-7.01c-0.35-4.23,1.29-8.2,2-12.29c2.47-14.11,5.65-28.04,10.71-41.48c0.41-1.09,0.76-2.22,1.32-3.23
		c2.38-4.34,3.61-4.77,7.89-2.35c9.89,5.59,19.12,12.02,27.15,20.21c6.05,6.17,12.88,11.58,18.15,18.53c1,1.32,2.18,1.54,3.91,1.34
		c6.12-0.7,12.03-2.44,18.1-3.42c3.18-0.52,6.29-0.9,9.36,0.11c2.82,0.93,5.01,1.18,6.57-2.15c1.22-2.6,4.37-3.58,5.47-6.84
		c0.96-2.84,0.95-4.91-0.88-6.75c-4.89-4.91-1.73-10.21-1.02-15.38c0.28-2.03,2.22-2.38,3.75-2.87c3.54-1.14,6.05-3.7,8.03-6.5
		c1.58-2.23,3.67-4.91,1.36-8.15c-1.08-1.52-0.2-3.26,0.3-4.82c4.58-14.41,9.58-28.71,13.66-43.26c1.9-6.77,4.01-13.33,7.22-19.56
		c2.56-4.97,3.3-5.21,7.84-2.28c6.02,3.88,11.89,7.99,17.29,12.71c1.33,1.16,2.74,1.77,4.46,1.97c3.86,0.44,6.3-2.12,4.93-5.66
		c-1.14-2.92-2.98-5.53-3.54-8.73c-0.57-3.22,2.15-5.45,2.63-8.63c-3.48-1.05-6.05-0.44-7.94,2.39c-0.74,1.11-1.49,2.23-2.01,3.45
		c-1.14,2.69-2.94,2.84-5.22,1.57c-0.29-0.16-0.57-0.46-0.87-0.48c-5.32-0.4-9.53-1.79-10.43-8.23c-0.36-2.55-3.52-2.4-5.92-2.5
		c-5.18-0.23-7.83-4.68-5.75-9.37c1.93-4.36-2.22-10.72-7.2-10.5c-4.38,0.19-7.73-1.47-10.77-4.29c-0.24-0.23-0.52-0.43-0.72-0.69
		c-1.66-2.09-5.68-2.35-5.81-5.02c-0.19-3.85,0.11-7.93,1.76-11.63c1.83-4.1,1.05-7.75-1.78-11.08c-0.65-0.76-1.38-1.46-1.96-2.27
		c-1.42-1.95-4.51-3.18-3.81-6.06c1.08-4.43,0.84-9.39,4.68-12.89c2.11-1.92,4.21-3.19,7.17-2c3.39,1.36,5.93,0.17,8.37-2.44
		c5.12-5.48,10.7-4.74,14.45,1.66c0.66,1.13,1.08,2.43,2.26,3.19c2.82-0.37,3.96-2.49,4.85-4.61c2.21-5.28,7.21-6.55,11.76-8.49
		c0.29-0.12,0.76-0.23,0.97-0.09c4.94,3.36,7.14-1.29,9.88-3.6c3.48-2.94,3.3-5.07-0.01-8.2c-0.85-0.8-1.82-1.47-2.12-2.71
		c1.91-6.53,7.14-8.02,13.05-8.73c5.79-0.7,6.12-1.07,7.09-6.94c0.31-1.87,1.12-2.9,2.77-3.74c3.87-1.97,8.04-2.53,12.13-1.8
		c6.6,1.18,12.47,4.45,18.26,7.72c1.86,1.05,2.35,3.09,3.11,4.96c0.99,2.41-0.5,3.51-1.81,5.11c-2.83,3.45-2.51,6.05,0.68,8.98
		c3.8-1.34,6.83-3.95,9.73-6.66c1.82-1.7,3.63-2.29,5.83-1.09c4.34,2.35,8.15-0.13,11.76-1.7c3.08-1.34,2.61-4.75-0.6-5.92
		c-2.05-0.75-4.6-0.9-4.59-3.68c0.01-2.91,1.99-4.84,4.49-6.11c1.18-0.6,2.46-1.07,3.74-1.39c5.23-1.34,7.07-5.31,7.48-10.04
		c0.58-6.65,3.15-9.41,9.74-9.7c0.5-0.02,1,0.07,1.5,0.06c6.51-0.16,12.83-0.31,16.84-7.02c2.15-3.59,6.59-3.71,10.35-4.12
		c3.62-0.39,7.33-0.25,10.98-0.05c3.62,0.21,6.75,3.35,7.83,7.34c1.31,4.88,1.31,4.83,6.43,4.25c2.64-0.3,5.3-0.44,7.95-0.49
		c5.29-0.1,6.18-0.79,7.21-6.03c0.13-0.65,0.24-1.3,0.37-2.01c4.61-2.89,9.43-4.07,14.75-2.33c1.1,0.36,2.26,0.67,3.41,0.74
		c7.56,0.48,12.46,4.17,14.16,11.87c-2.64,4.54-1.64,6.51,3.82,7c1.66,0.15,3.35,0.18,4.97,0.5c3.73,0.74,7.78,1.02,7.5,6.63
		c-0.09,1.76,1.48,3.26,3.69,3.9c2.12-1.93,4.31-4,6.99-5.35c3.63-1.83,3.88-6.26,6.57-8.55c2.49-2.12,6.81-1.67,8.46-5.4
		c-0.57-2.25-1.82-2.81-4.08-2.35c-5.04,1.01-7.04-0.67-7.26-5.66c-0.4-9.23,1.82-11.66,10.91-12.9c4.3-0.59,8.44-1.47,12.74,0.08
		c2.22,0.8,4.34-0.25,5.93-1.83c3.07-3.03,6.39-3.16,10.54-2.42c8.78,1.55,15.52,6.59,22.43,11.52c1.94,1.39,2.21,3.18,1.53,5.29
		c-0.89,2.77-1.75,5.62,1.42,7.53c3.72,2.25,7.58,1.95,10.2-0.95c1.63-1.81,3.3-2.02,5.35-1.22c2.67,1.04,5.21,2.39,6.99,4.67
		c2.97,3.8,6.72,6.28,11.56,5.71c6.02-0.71,8.15,4.32,11.48,7.3c5.95,5.33,5.08,12.3,3.41,19.24c-0.4,1.68-1.81,1.69-2.94,2.3
		c-2.98,1.6-3.18,3.63-0.17,4.77c4.6,1.74,6.46,6.04,9.39,9.25c2.91,3.19,0.93,7.32-3.81,8.95c-1.14,3.19,0.94,4.92,3.21,6.38
		c2.37,1.52,4.85,2.11,7.35-0.01c2.3-1.95,5.34-2.93,5.36-7.02c0.01-2.66,2.78-4.12,5.42-4.34c2.84-0.24,6.15-1.51,8.07,1.99
		c2.15,3.92,5.63,5.98,9.7,7.34c1.26,0.42,2.5,0.95,3.67,1.57c6.68,3.53,9.01,7.96,8.16,15.36c-0.12,1.02-0.4,1.99-1.12,2.72
		c-1.89,1.91-2.45,4.15-0.82,6.3c1.73,2.28,4.62,2.84,7.18,2.53c2.72-0.33,5.18-1.34,8.19-1.04c2.51,0.25,3.69-3,4.73-5.24
		c2.42-5.2,7.59-7.42,12.92-5.42c0.98,0.37,1.77,0.95,2.3,1.82c2.81,4.57,4.8,9.55,6.22,14.64c1.36,4.86,5.77,8,10.48,6.47
		c7.13-2.33,12.14,1.49,11.74,9c-0.22,4.14,1.97,7.37,4.13,10.46c2,2.86,2.74,5.61,1.34,8.86c-0.33,0.76-0.44,1.6-0.64,2.41
		c-2.4,9.88-2.39,9.93-12.47,11.42c-2.79,0.41-4.28,1.77-4.18,4.56c0.12,3.31,0,6.72,2.89,9.21c1.64,1.41,1.77,3.02,0.5,4.86
		c-1.04,1.5-1.83,3.17-2.79,4.73c-2.44,3.95-5.28,6.99-10.54,4.67c-0.75-0.33-1.65-0.18-2.38,0.44c-0.85,1.22-0.17,2.19,0.64,3.05
		c1.93,2.07,3.99,4.02,5.85,6.14c1.63,1.86,3.58,3.83,2.55,6.58c-1.01,2.7,0.19,4.08,2.28,5.26c0.87,0.49,1.72,1.03,2.54,1.59
		c5.83,3.93,5.88,3.99,10.82-0.72c1.48-1.41,2.84-1.63,4.88-1.49c9.53,0.68,13.67,7.65,17.07,14.92c1.53,3.27,0.41,7.39-2.44,10.09
		c-2.75,2.6-2.65,4.77-0.6,7.73c4.74,6.84,3.84,14.49-2.02,20.87c-2.68,2.92-4.19,6.77-7.48,9.28c-1.66,1.26-3.6,2.09-5,0.94
		c-4.1-3.38-7.01-0.84-10.04,1.17c-0.61,1.75-0.17,3.22,0.1,4.68c0.46,2.52-0.27,4.54-2.05,6.36c-1.15,1.18-2.22,2.51-3.04,3.93
		c-1.41,2.44-3.32,3.64-6.16,3.21c-1.71-0.26-3.46-0.04-4.79,1.01c-4.17,3.3-9.13,2.73-13.87,2.93c-3.03,0.12-6.08-1.64-6.56-4.43
		c-0.58-3.42-3.04-5.47-4.22-8.36c-1.16-2.83-4.04-3.99-6.94-2.82c-3.62,1.46-6.8,1.23-9.51-1.4c-4.4,2.94-4.74,4.13-1.53,7.3
		c2.49,2.46,2.03,4.58,0.32,7.05c-1.62,2.33-3.86,4.05-5.89,5.67c0.46,2.94,2.61,3.33,4.44,3.89c2.09,0.64,4.04,1.5,5.92,2.61
		c1.77,1.05,2.27,2.43,2.39,4.51c0.51,9.01-3.14,16.55-7.84,23.8c-0.36,0.55-0.7,1.14-0.93,1.75c-3.13,8.5-13.23,10.89-20.14,4.77
		c-2.83-2.51-8.09-1.21-10.59,2.6c-4.48,6.84-10.61,8.73-18.3,5.61c-3.51-1.42-9.37-0.19-11.79,2.89c-2.35,2.99-5.21,3.63-8.8,3.46
		c-6.45-0.3-12.09-1.98-16.06-7.49c-0.95-1.31-2.45-2.01-3.97-1.47c-4.25,1.52-9.2,1.87-10.74,7.63c-0.89,3.32-5.14,4.66-10.27,3.31
		c-4.16-1.1-8.12-2.91-12.29-4.1c-2.26-0.64-2.87-3.62-5.06-4.56c-2.63,0.8-3.44,3.22-4.92,4.92c-7.29,8.35-12.36,18.13-17.58,27.8
		c-0.54,1.01-0.85,2.16-1.13,3.28c-1.65,6.44-0.8,7.49,5.62,7.04c1.5-0.11,2.99-0.19,4.49-0.31c3.98-0.31,7.21,0.92,10.53,3.41
		c15.31,11.5,28.73,24.94,40.5,39.88c9.88,12.54,18.8,25.84,25.16,40.66c2.72,6.35,2.86,12.94,1.72,19.52
		c-1.23,7.09-0.24,9.14,6.7,11.27c1.11,0.34,2.13,1.05,3.26,1.25c9.35,1.66,13.86,7.46,15,16.64c0.63,5.1,2.25,10.06,2.84,15.21
		c0.57,4.98,1.56,9.95-2.01,15.02c4.55,1.68,7.63,4.87,12.39,5.32c5.79,0.54,11.14,3.18,16.81,4.54c10.56,2.53,21.23,4.1,32.05,4.42
		c13.28,0.4,26.59,0.62,39.78-1.64c10.32-1.77,20.7-3.24,30.8-6.12c5.01-1.43,7.98,1.57,7.91,6.84c-0.14,9.71-5.17,17.11-11.11,23.9
		c-8.89,10.15-18.54,19.51-29.64,27.37c-15.1,10.69-30.29,21.21-46.72,29.78c-5.44,2.84-11.16,5.17-16.82,7.6
		c-11.61,4.99-23.09,10.33-35.25,13.93c-6.05,1.79-12.06,3.73-18.34,4.66c-4.8,0.71-6.97,3.8-6.69,8.65
		c1.07,18.26,2.27,36.51,2.34,54.81c0.01,1.69,0.29,3.26,0.84,4.87c1.75,5.11-0.47,9.08-5.92,10.42
		c-7.07,1.74-14.17,1.67-21.27-0.11c-5.93-1.49-11.47-0.92-17.03,2.22c-5.53,3.12-12.01,3.81-18.19,5.07
		c-6.72,1.37-13.48,1.83-20.36,1c-3.76-0.45-6.83-2.59-10.42-3.3c-4.94-0.98-9.09-2.83-12.76-6.81c-2.65-2.87-7.5-3.57-11.53-4.1
		c-3.33-0.44-6.48-1.41-9.72-2.06c-4.04-0.8-5.79-3.46-5.63-7.58c0.22-5.69,1.34-11.25,3-16.68c2.14-7,2.28-14,0.54-21.39
		c-21.21,1.16-42.36,3.72-63.16,0.42c-0.62,0.66-1.04,0.9-1.05,1.14c-0.19,8.54-1.76,17.14,2.21,25.4
		c3.72,7.75,4.83,16.26,6.01,24.65c0.85,6.04-0.99,8.2-6.92,9.49c-6.11,1.33-12.41,1.31-18.35-0.21c-6.92-1.77-13.5-0.34-18.56,3.26
		c-7.46,5.31-15.72,6.94-24.16,8.64c-9.26,1.86-18.72,2.21-27.54-1.35c-6.86-2.77-14.14-4.91-20.15-9.61
		c-3.79-2.96-8.14-3.92-13.01-3.83c-6.11,0.12-12.3,0.26-18.29-1.52c-4.86-1.44-6.27-3.82-5.77-8.83
		c0.77-7.89,4.04-15.04,6.34-22.48c1.61-5.23,1.51-5.45-3.82-7.3c-0.31-0.11-0.69-0.15-0.93-0.35c-6.38-5.25-13.52-2.93-20.52-2.09
		c-9.17,1.1-18.29,0.64-27.28-1.4c-5.13-1.17-5.63-2.33-5.09-7.79C310.61,708.91,312.11,701.47,316.47,693.86z M424.3,266.26
		c5.69,3.45,7.22,9.15,8.81,15.25c1.34,5.14,4.79,9.51,11.08,9.98c2.1,0.16,3.66,1.48,5.1,2.9c1.77,1.75,3.37,3.74,5.34,5.22
		c3.91,2.95,5.01,6.78,4.39,11.41c-0.27,1.99,0.02,3.8,1.29,5.63c3.86,5.58,8.75,9.3,16.17,9.93c6.4-14.78,15.13-28.48,23.03-42.31
		c-0.17-1.27-0.9-1.78-1.59-2.17c-4.57-2.54-8.56-5.6-10.63-10.65c-0.41-1.01-1.42-1.39-2.5-1.26c-2.17,0.26-4.24,0.96-6.04,2.16
		c-1.41,0.94-0.38,2.44-0.4,3.7c-0.01,0.63-0.13,1.36-0.47,1.86c-5.15,7.65-13.25,9.52-20.33,3.76c-3.21-2.61-6.49-5.26-11.05-5.12
		c-1.79,0.05-2.72-1.44-3.26-2.73c-1.01-2.43-2.64-4.51-3.83-6.57c0.74-1.88,2.84-2.33,3.01-4.4c-2.97-6.33-8.95-1.37-13.19-3.63
		C427.83,261.71,425.47,263.19,424.3,266.26z M544.77,301.04c3.64,7.68,4.53,15.53,6.65,23.37
		C559.6,316.65,557.11,308.34,544.77,301.04z"/>
</g>
</svg>
