<?xml version="1.0" encoding="utf-8"?>
<!-- Generator: Adobe Illustrator 24.0.2, SVG Export Plug-In . SVG Version: 6.00 Build 0)  -->
<svg version="1.1" id="Layer_1" xmlns="http://www.w3.org/2000/svg" xmlns:xlink="http://www.w3.org/1999/xlink" x="0px" y="0px"
	 width="861.47" height="791.15" viewBox="0 0 861.47 791.15" style="enable-background:new 0 0 861.47 791.15;" xml:space="preserve">
<g>
	<path d="M312.33,549.09c6.78-11.69,12.3-24.28,15.93-37.65c3.97-14.62,7.01-29.44,9.33-44.41c0.38-2.46,1.11-3.96,3.38-4.91
		c4.59-1.93,6.88-5.24,6.88-10.47c-0.01-4.24,1.55-8.41,1.49-12.93c-3.79,0.36-6.1,4-10.06,3.62c-1.85-3.25-0.53-6.51,0.04-9.66
		c2.02-11.14,4.18-22.26,4.86-33.6c0.08-1.29,0.59-2.62-0.34-4.07c-6.52,1.46-8.24,8.31-12.8,11.31c-0.82,1.77,0.96,2.34,0.79,3.8
		c-0.3,0.32-0.67,0.89-1.2,1.24c-9.7,6.45-20.5,10.29-31.72,13.01c-9.9,2.4-19.95,3.84-30.15,4.1c-5.9,0.15-6.9-0.62-8.01-6.64
		c-7.04-1.03-14.23-2.09-21.43-3.14c-2.22-0.32-3.27,1.13-4.49,3.04c4.84,1.67,10.02-0.26,15.86,2.27
		c-7.85,5.86-15.8,10.25-20.91,17.87c2.3,2.62,4.82,4.85,6.54,7.7c2.04,3.38,1.68,4.8-1.46,7.09c-4.08,2.98-8.8,3.84-13.67,4.09
		c-2.78,0.14-5.57,0.03-8.57,0.03c0.13,2.66,2.57,3.62,3.36,5.52c1.12,2.68,3.54,5.31,1.84,8.35c-1.8,3.23-5.24,3.8-8.69,3.96
		c-1.47,0.07-2.92-0.79-4.38-0.05c-0.92,1.31,0.1,2.15,0.64,3.13c1.76,3.22,1.35,4.72-1.81,6.36c-2.55,1.33-5.39,1.59-9.01,1.86
		c2.04,4.2,3.83,8.02,5.15,12.05c3.1,9.48-1.41,12.61-9.38,12.83c-4.64,0.13-9.3-0.67-13.71-2.41c-1.38-0.55-2.68-1.36-4.48-1.24
		c-0.72,2.13,0.43,4.16,0.54,6.24c0.23,4.38-1,5.67-5.44,5.57c-5.33-0.12-10.04-1.92-14.86-5.72c-13.26,21.99-34.4,28.2-57.97,29.29
		c-9.79,0.45-10.08,0.27-13.8-2.39c-0.1-2.08,1.53-3.21,2.68-4.55c3.64-4.26,3.68-4.23,0.75-9.78c-1.48,0.39-1.87,1.76-2.63,2.82
		c-1.06,1.49-2.11,3.01-3.34,4.35c-1.92,2.1-4.1,4.51-7.2,3.49c-3.17-1.05-4.14-4.13-4.3-7.27c-0.25-5.14-0.37-10.3,0.95-15.74
		c-3.39-0.28-5.46,2.32-8.16,3.15c-5.46,1.69-5.48,1.84-4.87,7.52c0.61,5.66,1.62,11.22,4.84,16.12c0.62,0.94,1.39,1.93,0.75,3.71
		c-5.36,1.49-10.97,0.98-16.2-1.02c-14.17-5.42-25.7-14.12-34.19-27.06C3,509.63,0.35,498.7,0.74,486.76
		c0.03-0.83-0.01-1.68,0.19-2.48c4.05-16.19,9.93-31.42,22.82-42.93c0.97-0.87,2.01-1.79,2.23-3.24c-1.54-0.97-3.08-1.94-4.62-2.91
		c-2.69-1.69-2.36-3.67-0.59-5.83c2.05-2.5,5.25-3.4,8.34-5.75c-4.46-1.37-8.16-3.03-11.59-5.21c-2.11-1.34-4.33-2.56-6-4.45
		c-1.25-1.41-3.83-2.43-2.9-4.75c0.93-2.32,2.9-4.12,5.54-4.62c1.9-0.36,3.86-0.42,6.38-0.68c-2.35-3.12-5.46-4.48-7.89-6.59
		c-3.54-3.09-6.68-6.5-9.57-10.17c-1.25-1.59-2.05-3.37-2.7-5.3c-0.89-2.66-0.32-4.2,2.24-5.68c6.88-3.98,14.1-3.43,21.34-1.98
		c5.63,1.13,11.37,2.02,16.7,5.02c-1.6-6.3-2.34-12.33-2.25-18.48c0.09-6.07,1.26-11.95,3.24-17.59c1.81-5.14,4.79-5.8,9.26-2.73
		c1.52,1.04,2.98,2.17,3.91,3.8c0.9,1.56,1.71,3.18,2.91,5.43c2.17-4.61,1.8-9.11,2.84-13.27c3.07-12.28,7.79-23.7,17.05-32.68
		c4.85-4.7,8.99-3.78,12.16,2.37c2.95,5.72,3.86,12.01,4.9,18.25c0.54,3.21,1.01,6.44,1.59,10.15c2.13-1.91,3.1-3.87,4.04-5.73
		c3.7-7.28,9.32-12.92,15.3-18.25c0.98-0.87,2.15-1.57,3.33-2.16c3.43-1.7,5.19-0.89,6.19,2.88c0.34,1.27,0.5,2.61,0.6,3.93
		c0.09,1.27-0.74,2.59,0.21,3.84c1.44,0.33,2.07-0.71,2.82-1.6c4.15-4.89,9.3-8.61,14.82-11.7c7.36-4.12,12.66-0.87,13.14,7.61
		c0.47,8.36-1.81,16.14-4.65,23.84c-0.56,1.51-1.65,2.9-1.28,5.25c2.94-1.51,5.62-2.88,8.36-4.29c0.53-5.92,4.05-10.18,8.22-13.79
		c3.8-3.29,7.21-6.92,10.63-10.55c6.22-6.59,6.86-9.88,3.56-19.69c-7.6,5.56-15.84,5.48-24.13,2.29c-4.81-1.85-9.38-4.28-12.2-9
		c1.61-4.25,5.19-5.51,8.95-6.51c7.28-1.94,14.53-1.35,22.54,0.53c-1.75-12.72-7.74-24.5-5.95-38.37
		c10.91,6.35,15.06,16.61,20.05,26.25c2.27-1.26,1.74-3.61,2.61-5.29c3.45-6.71,8.3-12.05,15.08-15.45
		c4.49-2.25,7.51-0.38,7.37,4.79c-0.17,6.32-2.07,12.14-6.64,16.78c-3.28,3.33-6.7,6.54-10.76,8.89c-2.26,1.31-2.66,2.73-1.43,4.87
		c4.09,7.09,6.48,14.95,10.14,22.23c2.08,4.13,1.67,8.37,0.49,12.66c-1.95,7.09-5.65,13.5-8.01,20.43
		c-1.1,3.23-2.94,6.37-2.18,10.41c3.22,1.05,6.56,0.49,9.8,0.73c7.47,0.54,9.96,4.3,7.35,11.46c-0.79,2.16-1.99,4.16-3.05,6.34
		c1.45,2.53,4.03,3.33,6.41,4.44c7.18,3.35,15.04,4.15,22.59,6.12c2.46,0.64,5.28,0.37,7.41,2.44c-1.84,4.39-6.86,4.82-9.6,8.66
		c5.23,0.89,9.82,2.69,14.77,2.79c0.12-0.57,0.32-0.93,0.22-1.18c-2.05-5.18-1.2-6.47,4.85-6.78c11.15-0.57,22.24-1.67,33.3-3.1
		c0.63-0.08,1.34-0.02,1.89-1.01c-0.77-1.68-2.41-2.84-3.73-4.24c-5.75-6.12-7.13-15.07-3.83-22.73c1.34-3.12,3.35-3.34,6-2.38
		c2.11,0.76,3.67,2.27,4.91,4.1c3.73,5.49,6.12,11.44,6.07,18.19c-0.01,1.97,0,3.94,0,6.49c8.44-1.62,16.36-3.43,24.39-4.58
		c5.27-0.75,9.26-3.2,12.94-6.77c1.93-1.88,2.85-3.7,2.61-6.54c-0.85-10.01-3.11-19.73-5.7-29.37c-1.43-5.3-2.72-10.65-4.79-15.77
		c-0.49-1.22-1.03-2.48,0.03-4.09c4.78-0.65,9.1,1.64,14.09,3.41c0.66-10.33-0.75-20.05-2.58-29.57c-1.03-0.64-1.85-0.33-2.62-0.1
		c-3.3,0.96-4.45-0.44-4.76-3.66c-0.28-2.94-0.99-5.86-0.85-9.1c-6.74-0.73-12.04,4.25-18.2,3.99c-1.31-2.19-0.84-3.84,0.07-5.55
		c1.09-2.05,1.93-4.23,3.02-6.27c4.81-8.98,4.2-17.99,1.35-27.52c-2.98-9.94-9.29-14.71-19.24-16.16
		c-18.63-2.7-37.08-6.3-54.73-13.13c-7.23-2.79-13.74-6.82-19.49-11.93c-5.81-5.17-8.71-11.95-10-19.59
		c-2.01-11.88-0.69-23.41,2.34-34.98c1.25-4.78,1.98-9.73,3.2-14.57c1.12-4.4-0.54-8.48-4.01-11.68
		c-4.42-4.09-9.68-7.07-14.22-10.99c-1.75-1.52-3.35-0.46-5.09,0.18c-7.18,2.64-14.34,2.33-21.38-0.56
		c-0.91-0.37-1.8-0.91-2.57-1.52c-2.73-2.17-2.68-3.85,0.22-5.81c5.83-3.94,12.2-5.07,19.6-3.22c-1.52-9.81,0.77-18.91,3.43-27.64
		c-1.61-1.81-3.4-1.4-4.99-1.69c-9.29-1.71-16.15-6.91-20.74-14.98c-2.94-5.17-1.23-7.66,4.8-7.6c3.25,0.03,6.2,1.19,8.99,2.75
		c4.41,2.47,8.11,5.79,11.39,9.62c1.04,1.21,1.63,2.93,3.95,3.58c4.4-11.33-4.74-18.88-7.72-27.66c1.79-2.32,3.64-1.51,5.35-1.08
		c10.77,2.71,17.6,10.94,18.21,22.14c0.29,5.31,0.01,10.66,1.87,15.79c0.86,2.35,1.68,4.64,4.78,5.79
		c0.78-11.68,5.84-20.63,15.34-27.18c4.48,3.2,3.98,7.18,2.89,11.08c-1.96,6.98-5.12,13.36-10.32,18.57
		c-0.58,0.58-1.34,1.02-1.26,2.61c6.58,4.78,13.88,9.38,19.5,16.23c3.19-3.03,5.54-6.56,8.96-8.95c1.3-0.91,2.53-2.45,4.41-1.64
		c1.96,0.85,2.15,2.71,2.33,4.61c0.63,6.57-2.09,12.07-5.76,17.08c-2.17,2.96-3.46,5.46-2.39,9.44c1.23,4.61,1.08,9.56,0.76,14.41
		c-1.18,17.61,7.61,30.45,22.19,38.05c2.55,1.33,5.78,1.33,8.97,2c0.97-2.26,0.4-5.05,2.64-6.71c1.92-1.42,4.36-1.63,6.62-3.19
		c-2.39-2.72-4.79-5.33-7.04-8.05c-3.22-3.91-5.66-8.2-6.24-13.39c-0.68-6.16,2.88-9.24,8.77-7.33c2.34,0.76,4.57,1.88,7.39,3.06
		c-1.51-5.6-2.65-10.86-3.31-16.25c-0.55-4.55-0.4-8.96,0.27-13.4c0.7-4.61,3.98-6.07,7.9-3.43c5.11,3.45,8.72,8.17,10.84,13.98
		c0.66,1.82,1.23,3.67,2.5,5.64c1.77-6.13,7.62-10.14,7.28-17.36c-0.2-4.21,3.03-7.62,5.52-10.97c0.59-0.8,1.2-1.67,1.99-2.24
		c8.66-6.24,7.89-14.57,5.21-23.31c-0.54-1.75-1.26-3.44-1.28-5.31c-0.01-1.36,0-2.66,1.5-3.39c1.44-0.7,2.56-0.15,3.65,0.72
		c4.12,3.28,7.35,7.43,9.51,12.08c1.93,4.14,4.95,6.33,8.78,7.84c1.87-0.78,2.28-2.53,3.16-3.9c2.46-3.81,4.68-3.81,6.96,0.16
		c1.33,2.32,2.34,4.79,2.45,7.53c0.03,0.8-0.01,1.69,1.27,2.31c1.57-0.62,1.77-2.46,2.39-3.83c2.71-6,6.52-11.22,11.16-15.81
		c3.87-3.83,8.04-2.67,9.12,2.67c0.91,4.5,1.64,9.11,0.33,13.75c2.28,0.37,2.92-1.26,3.82-2.27c5.75-6.49,13.55-8.95,21.58-10.62
		c5.63-1.17,7.45,1.12,6.01,6.66c-1.35,5.21-3.63,10-6.67,14.44c-0.89,1.3-2.48,2.33-2.07,4.32c1.71,0.75,3.29,0.22,4.77-0.56
		c3.56-1.88,7.51-1.6,11.26-1.67c5.7-0.1,7.7,3.22,5.74,8.55c-2.19,5.95-6.15,10.58-11.11,14.48c0.84,1.55,1.99,0.85,3.03,0.52
		c3.67-1.16,7.29-0.47,10.84,0.45c3.31,0.86,4.12,2.44,2.7,5.54c-1.59,3.48-3.41,6.86-6.32,9.51c-0.94,0.86-2.34,1.37-2.56,2.86
		c0.62,1.56,2.05,1.59,3.32,1.86c1.81,0.38,3.78,0.7,5.05,2.01c3.68,3.81,7.48,2.7,11.76,1.15c5.14-1.85,10.5-3.08,15.8-4.46
		c4.81-1.25,7.66-6.18,6.63-12.3c-0.77-4.6-2.35-9.02-4.06-13.36c-2.69-6.83-5.39-13.64-5.79-21.07c-0.11-1.95-1.44-2.89-2.65-4.01
		c-5.23-4.88-8.9-10.75-11.12-17.53c-0.56-1.72-1.55-3.69,0.27-5.08c1.74-1.33,3.87-0.98,5.65,0.15c2.66,1.69,5.42,3.27,7.59,5.66
		c0.97,1.07,1.68,2.55,3.82,2.69c3.34-6.76,10.62-9.95,15.95-16.31c-5.7-1.01-10.13-3.44-13.9-6.99c-3.81-3.58-7.01-7.54-7.7-12.91
		c2.31-2.83,5.1-2.44,7.88-1.57c4.04,1.27,7.53,3.51,10.67,6.32c1.59,1.42,3.13,2.89,5.65,4.13c-0.7-3.05-2.23-5.17-3.49-7.39
		c-7.68-13.61-7.04-18.22,4.22-29.35c2.29-2.27,4.14-5.27,7.91-5.53c2,1.98,1.18,4.14,0.73,6.19c-0.85,3.91-1.79,7.79-1.57,11.84
		c0.18,3.44,1.13,6.44,4.8,9.07c0.94-6.96,4.24-12.15,8.67-16.73c1.87-1.94,3.92-3.64,6.22-4.98c3.64-2.11,5.8-0.84,5.63,3.4
		c-0.28,7.11-3.07,13.18-7.97,18.35c-1.7,1.8-4.1,2.84-5.59,5.22c1.68,2.6,4.33,4.09,6.91,5.34c6.43,3.11,10.14,12.21,8.02,19.26
		c-1.05,3.5-2.24,6.96-3.64,11.27c9.66-3.41,18.86-7.99,29.95-3.41c-8.84,12.97-21.18,13.94-34.61,13.69
		c-2.67,4.53-5.36,9.47-6.91,14.9c-0.91,3.19,0.3,6.24,1.43,9.22c3.34,8.87,7.55,17.42,9.89,26.64c3.02,11.89,3.19,23.88-1.38,35.35
		c-3.21,8.06-9.19,14.2-16.94,18.38c-12.37,6.67-26.02,10.15-38.85,15.66c-7.46,3.21-14.96,6.37-21.47,11.47
		c-3.43,2.68-5.1,6.34-5.65,10.21c-1.86,12.88-1.05,25.3,8.29,35.66c1.11,1.23,2.1,2.61,1.63,5.05c-5.43,2.02-11.16-1.3-17.17-0.18
		c0,4.13,0.13,8.1-0.03,12.05c-0.19,4.81-0.35,4.87-5.15,5.38c-0.07,6.54,2.2,12.66,3.4,19.65c3.51-2.05,6.71-3.9,9.89-5.78
		c0.86-0.51,1.63-1.2,2.55-1.56c3.41-1.35,5.48,0.36,4.8,4.01c-1.51,8-4.28,15.74-4.95,23.92c-0.35,4.27-0.78,8.56-0.14,12.79
		c3.38,1.02,5.94,0.13,8.49-1.21c-0.29-2.42-3.68-2.02-3.58-5.41c12-4.81,25.13-7.7,37.64-13.07c-2.15-5.11-2.77-10.5-2.5-16.03
		c0.5-10.63,5.37-19.07,13.04-26.09c3.78-3.46,6.07-2.89,7.29,2.18c2.64,10.95,0.01,21.09-5.43,30.67c-0.66,1.15-1.4,2.26-2.04,3.42
		c-0.12,0.21,0.07,0.6,0.12,0.94c1.2,0.68,2.36,0.04,3.3-0.43c9.85-4.84,20.04-9.22,28.57-16.25c4.1-3.38,6.66-1.45,7.6,2.37
		c0.47,1.93,1,3.84,1.72,6.56c8.02-4.08,16.06-7.3,23.14-13c-4.23-4.11-10.26-0.64-14.47-3.66c0.27-3.39,2.43-5.4,4.57-7.13
		c16.19-13.05,32.04-26.64,51.36-35.12c4.87-2.14,9.71-4.37,14.65-6.34c3.05-1.22,4.45-3.42,5.7-6.35
		c3.38-7.95,3.34-14.94-3.36-21.36c-3.46-3.31-6.26-7.32-8.7-11.54c-2.5-4.32-2.35-8.55-0.29-12.86c2.6-5.43,6-10.41,9.69-15.11
		c2.35-2.99,3.88-6.6,6.93-8.88c-0.35-2.31-2.1-2.58-3.6-3.21c-10.78-4.52-15.51-13.61-17.95-24.24c-0.87-3.8,1.6-5.98,5.6-5.31
		c3.54,0.6,6.48,2.56,9.23,4.76c5.08,4.06,8.66,9.17,10.54,15.44c0.37,1.23,0.39,2.69,2.22,3.81c3.07-2.8,5.23-6.4,7.25-10.12
		c5.24-9.65,9.33-19.89,14.82-29.41c1.02-1.76,1.81-3.77,4.43-3.02c2.27,0.65,2.29,2.69,2.39,4.48c0.5,8.47,0.27,16.92-1.37,26.13
		c3.61-1.96,6.58-3.55,9.53-5.17c6.14-3.37,12.69-4.97,19.69-4.52c1.49,0.1,3.01,0.21,4.44,0.61c4.5,1.26,5.05,2.96,2.22,6.66
		c-6.49,8.44-15.47,11.68-25.72,12.23c-3.97,0.21-7.9-0.41-11.99-0.89c-2.28,5.6-2.65,11.5-4.59,16.97
		c-1.39,3.9-2.16,8.02-3.39,11.99c-1.22,3.92-1.03,7.48,1.59,10.84c2.57,3.3,4.56,6.96,5.85,10.97c0.91,2.83,2.79,4.94,5.16,6.55
		c4.43,3.02,8.36,6.58,12.08,10.41c0.44,0.45,0.91,1,1.76,0.68c1.35-1.03,0.46-2.42,0.42-3.65c-0.25-8.07,1.77-15.47,6.26-22.21
		c1.55-2.33,3.26-4.3,6.41-3.88c3.31,0.44,4.71,3,5.61,5.7c0.98,2.96,1.52,6.06,2.26,9.13c2.17-0.67,2.14-2.44,2.7-3.71
		c3.01-6.87,7.88-12.32,13.18-17.41c1.33-1.28,2.82-3.19,5.16-2.26c2.44,0.97,2.38,3.39,2.74,5.5c0.19,1.09,0.28,2.2,0.94,3.65
		c3.94-6.51,10.3-10.34,15.51-15.37c3.76-3.63,7.93-6.61,12.84-8.45c4.64-1.75,6.71-0.87,8.64,3.7c1.92,4.57,2.03,9.37,1.69,14.25
		c-0.64,9.14-2.46,18.03-4.97,27.38c2.46-1.41,4.97-2.72,7.36-4.25c6.94-4.45,14.64-7.17,22.41-9.6c5.4-1.69,8.33,1.4,6.91,7
		c-0.57,2.24-1.55,4.39-2.54,6.49c-0.91,1.93-2.09,3.74-3.16,5.63c1.22,1.48,2.51,0.59,3.61,0.14c12.72-5.23,25.79-7.63,39.55-5.51
		c2.66,0.41,5.24,0.88,7.7,1.95c4.62,2,5.53,4.45,2.81,8.55c-3.8,5.75-8.42,10.71-14.68,13.91c-1.14,0.58-2.4,1.11-3.24,3
		c5.62,0.35,11.05,0.6,16.32,2.04c4.53,1.24,8.88,2.88,12.85,5.35c4.4,2.73,4.78,5.36,1.48,9.43c-3.53,4.36-8.12,7.43-13.11,9.8
		c-4.65,2.21-9.35,4.4-14.5,5.35c-0.95,0.18-1.83,0.7-3.24,1.25c3.19,2.09,6.03,3.94,8.85,5.82c0.83,0.55,1.61,1.19,2.35,1.86
		c5.52,4.96,5.08,7.58-1.74,10.6c-0.27,0.12-0.45,0.45-1.08,1.11c3.51,2.49,6.95,4.96,10.43,7.37c6.11,4.22,11.04,9.62,15.19,15.69
		c3.58,5.23,2.23,9.13-4.16,10.84c-8.99,2.41-18.13,1.94-27.17-0.27c-0.8-0.2-1.58-0.47-2.39-0.61c-0.27-0.05-0.6,0.2-0.89,0.31
		c-0.54,1.09,0.05,1.99,0.65,2.72c4.09,4.95,5.44,10.95,6.67,17.02c1.24,6.14-1.28,8.62-7.27,7.11c-2.61-0.66-4.99-1.8-7.24-3.26
		c-0.97-0.63-1.9-1.43-3.82-0.48c1.2,4.45-0.16,9.3,2.49,13.99c5.17,9.14,9.27,18.88,11.64,29.1c5.6,24.1,3.03,46.58-14.21,65.92
		c-8.21,9.21-17.37,16.94-29.01,21.4c-0.45,0.17-0.96,0.18-2.14,0.39c-0.73-5.33,2.88-9.45,3.49-14.19
		c0.62-4.9,1.72-9.76,1.13-14.73c-2.36-0.56-3.04,1.35-4.23,2.35c-16.72,14.09-35.44,21.58-57.64,17.28
		c-5.85-1.13-10.92-3.88-14.85-8.79c0.95-2.56,3.33-3,5.42-3.87c14.58-6.09,24.14-16.9,28.9-31.78c1.92-5.99,2.71-12.29,0.89-18.67
		c-0.71-2.49-1.29-4.37-4.32-4.4c-1.78-0.02-3.21-1.86-5.53-1.22c-0.36,3.01-0.76,6.09-1.1,9.17c-0.65,5.99-2.56,6.92-7.74,3.65
		c-6.69-4.22-10.39-10.58-12.62-17.94c-0.14-0.47-0.22-0.96-0.37-1.43c-0.03-0.11-0.24-0.16-0.62-0.39c-2.3,1.01-2.87,3.78-4.8,5.33
		c-4.78,3.82-7.42,3.32-10-2.12c-1.82-3.83-2.27-7.89-2.24-13.05c-16.95,15.16-23.19,33.53-21.43,54.72c-2.4,1.3-4.07,0.63-5.74-0.1
		c-2.78-1.22-5.17-3.05-7.41-5.04c-11.87-10.55-20.67-22.87-23.42-39.01c-1.15-6.75-2.59-13.36-1.75-20.28
		c0.4-3.35,1.65-6.43,2.38-9.66c0.32-1.43,1.16-2.78,0.23-4.62c-3.62,1.56-7.35,2.81-11.29,3.21c-3.89,0.4-5.69-1.38-5.1-5.22
		c0.3-1.96,0.82-3.9,2.26-5.46c0.86-0.93,1.9-1.88,1.39-3.74c-4.79,1.04-9.58,0.77-14.36,0.72c-2.74-0.03-5.28-0.78-7.7-1.89
		c-4.52-2.08-5.58-5.52-2.92-9.76c3.01-4.81,6.79-9.01,11.34-13c-4.22-1.97-7.92-3.11-12.56-2.14c-10.77,2.24-21.54,4.3-31.78,8.46
		c-1.48,0.6-3.12,1.38-4.79-0.32c0.49-3.04,3.18-4.8,4.6-7.61c-8.72,2.91-17.75,4.87-26.1,9.77c2.44,3.86,5.79,6.48,6.07,10.92
		c-2.84,2.24-6.45,2.49-9.78,3.11c-21.19,3.96-41.66,10.28-61.65,18.29c-3.12,1.25-5.85,3.17-8.94,4.42
		c-1.28,0.52-2.54,1.09-3.68-0.12c-1.18-1.25-0.3-2.52,0.23-3.69c0.79-1.76,2.66-3.1,2.05-5.42c-1.07-1.34-2.45-0.99-3.6-0.39
		c-2.95,1.53-5.86,3.06-8.47,5.23c-4.25,3.55-5.64,7.54-4.55,13.15c3.33,17.19,7.7,34.05,14.29,50.29
		c1.44,3.54,3.08,7.01,4.62,10.51c0.53,1.2,1.26,2.37,0.68,4c-3.66,2.65-6.43-2.68-10.27-1.42c1.8,7.79,2.63,15.69,5.88,23.29
		c3.31-1.29,3.33-5.78,6.94-6.35c1.96,1.43,1.88,3.77,2.24,5.81c5.12,28.62,13.41,56.31,24.16,83.29c0.49,1.24,1.01,2.47,1.52,3.69
		c2.33,5.53,4.87,10.29,11.31,12.84c10.03,3.97,16.07,12.05,18.18,22.92c2.22,1.03,4.57,1.22,6.82,0.87
		c11.84-1.85,23.79-3.27,35.42-6.02c8.27-1.96,14.77,0.45,20.92,5.05c10.85,8.11,19.75,18.26,28.98,28.1
		c10.49,11.17,19.88,23.3,30.59,34.25c4.08,4.17,7.52,8.89,11.49,13.17c3.24,3.49,4.04,8.03,3.24,13.06
		c-1.85,11.63-7.68,21.55-12.81,31.78c-5.45,10.86-10.46,21.92-15.57,32.94c-2.59,5.58-5.36,11.08-7.42,16.86
		c-2.77,7.77-3.31,15.93-3.55,24.11c-0.05,1.84,0.16,3.69-2.16,4.5c-2.02,0.7-3.54,0-5.01-1.28c-2.28-1.99-4.3-4.14-5.3-7.11
		c-1.42-4.24-3.96-8.05-4.62-12.61c-0.82-5.71,1.48-10.8,2.96-16.05c3.21-11.39,8.18-22.14,12.28-33.21
		c2.26-6.1,3.98-12.34,5.35-18.71c0.82-3.78-0.28-6.28-3.42-8.51c-11.4-8.11-22.35-16.8-32.4-26.58
		c-5.14-5.01-9.52-10.69-14.21-16.1c-3.5-4.03-7.05-8-10.84-11.76c-1.14-1.13-2.2-2.52-4.22-2.15c-0.9,1.96,0.57,2.87,1.56,3.79
		c3.02,2.8,3.59,6.02,2.69,9.99c-2.63,11.69-5.55,23.3-9.56,34.6c-0.99,2.79-1.03,4.98,0.68,7.84c2.85,4.79,5.63,9.88,5.04,15.93
		c-0.3,3.07-1.12,5.91-3.02,8.33c-13.96,17.81-27.68,35.81-42.55,52.89c-2.07,2.38-4.61,4.31-6.3,7.07
		c-1.79,2.92-2.35,5.82-0.9,8.99c1.42,3.08,1.78,6.42,2.17,9.72c0.51,4.29-2.24,6.23-6.21,4.24c-3.57-1.8-7.05-3.9-9.64-7.02
		c-2.34-2.81-4.57-5.76-6.45-8.88c-2.52-4.16-2.08-8.53-0.25-12.95c3.01-7.27,7.7-13.61,11.14-20.63c1.74-3.54,3.49-7.08,5.19-10.53
		c-1.81-1.46-2.96-0.32-4,0.29c-7.49,4.36-14.76,9.07-21.01,15.14c-3.66,3.55-3.85,8.73-5.75,13.1c-0.92,2.12-1.51,4.43-2.84,6.35
		c-1.93,2.79-3.75,2.9-6.08,0.43c-2.59-2.75-3.91-6.19-4.78-9.77c-1.5-6.15-2.69-12.32-2.78-18.72c-0.12-8.93,4.86-15.33,10-21.69
		c5.65-6.99,11.5-13.82,17.24-20.73c5.33-6.43,6.28-18.1,1.88-25.21c-4.13-6.68-7.25-13.86-10.88-20.79c-2-3.82-2.09-3.69-5.99-1.83
		c-7.6,3.63-14.63,7.96-19.88,14.68c-6.55,8.37-13.07,16.79-17.99,26.26c-1.42,2.73-3.19,5.06-5.43,7.06
		c-2.18,1.95-4.1,1.89-5.63-0.92c-2.01-3.68-2.82-7.78-4.26-11.67c-0.44-1.19-0.22-2.68-2.09-3.85c-2.37,4.12-4.99,8.11-7.02,12.37
		c-2.86,6-5.59,12.08-7.73,18.4c-1.24,3.67-3.65,6.65-6.02,10.01c-3.94-2.48-6.13-5.87-7.8-9.67c-3-6.86-5.55-13.9-9.01-20.57
		c-3.49-6.73-8.6-11.98-14.84-15.88c-9.96-6.22-19.49-12.78-26.44-22.48c-1.2-1.68-2.61-1.98-4.76-1.4
		c-6.98,1.9-12.3,5.98-15.95,12.01c-3.78,6.26-7.3,12.69-11.42,18.73c-2.73,4-3.05,7.74-0.85,12.13
		c3.94,7.87,7.85,15.73,10.17,24.35c3.02,11.22,0.18,21.13-5.93,30.32c-2.55,3.84-5.41,7.6-9.11,10.56
		c-2.2,1.76-4.37,4.42-7.36,2.67c-2.79-1.64-1.53-4.69-1.13-7.32c0.94-6.08,2.46-12.08,2.04-18.33c-0.28-4.08-1.47-7.72-3.45-11.32
		c-5.29-9.66-11.28-18.82-18.16-27.43c-3.3-4.14-4.85-8.94-4.27-14.45c0.59-5.59,0.39-11.25,1.9-17.49
		c-3.68,1.44-4.77,4.07-6.16,6.31c-0.78,1.25-1,2.84-1.77,4.1c-5.26,8.65-3.41,17.04,0.18,25.75c5.16,12.5,7.76,25.8,11.15,38.84
		c1.26,4.84-0.15,9.34-2.07,13.57c-2.6,5.75-5.48,11.42-9.23,16.56c-0.69,0.94-1.34,1.94-2.19,2.72c-2.44,2.26-5.54,3.62-8.65,2.77
		c-2.89-0.79-2.33-4.14-2.66-6.49c-0.4-2.79-0.54-5.68-0.29-8.48c0.78-8.6-2.85-15.1-9.12-20.54c-14-12.13-24.67-26.95-34.34-42.6
		c-3.21-5.2-3.21-10.16-0.78-15.63c2.34-5.27,4.81-10.47,8.35-16.35c-4.26,1.43-6.91,3.69-9.9,5.24
		c-10.16,5.28-20.25,10.71-30.44,15.96c-2.59,1.33-3.69,3.33-4.78,5.95c-3.9,9.38-4.41,19.48-6.01,29.25
		c-1.9,11.62-7.99,19.71-16.73,26.63c-5.12,4.05-10.51,7.63-16.55,10.14c-4.62,1.91-6.42,0.36-5.93-4.69
		c0.42-4.32,2.89-7.86,4.74-11.46c3.63-7.07,3.44-14.43,3.63-21.9c0.3-11.84-1.33-23.58-1.79-35.39c-0.2-5.03,0.28-10,1.05-14.92
		c0.77-4.92,3.09-9.1,7.34-12.04c4.27-2.94,7.99-6.52,11.76-10.06c7.28-6.84,15.7-12.33,22.77-19.46
		c9.85-9.92,19.93-19.62,29.93-29.39c3.57-3.49,7.11-7.02,10.81-10.38c4.19-3.81,9.57-4.62,14.88-4.94
		c6.31-0.38,12.66-0.16,18.99-0.21c2.17-0.02,4.33-0.04,6.5-0.1c4.67-0.14,7.74-2.3,9.25-6.87c1.62-4.89,3.6-9.65,5.35-14.5
		c2.55-7.05,7.81-10.9,14.79-12.9c8.68-2.5,17.28-3.68,25.76,0.69C310.64,549.22,311.24,549.51,312.33,549.09z"/>
</g>
</svg>
