<?xml version="1.0" encoding="utf-8"?>
<!-- Generator: Adobe Illustrator 24.0.2, SVG Export Plug-In . SVG Version: 6.00 Build 0)  -->
<svg version="1.1" id="Layer_1" xmlns="http://www.w3.org/2000/svg" xmlns:xlink="http://www.w3.org/1999/xlink" x="0px" y="0px"
	 viewBox="0 0 860.7 838.23" style="enable-background:new 0 0 860.7 838.23;" xml:space="preserve">
<g>
	<path d="M158.89,739.34c8.46-11.26,13.26-23.43,21.63-33.51c-1.66-0.27-2.45,0.78-3.35,1.57c-12.97,11.32-25.02,23.5-34.62,37.88
		c-2.22,3.33-4.81,4.89-8.99,4.96c-10.32,0.17-20.62,1.17-30.95,0.98c-3.29-0.06-6.56-0.75-9.86-1.16c-1.98-3.19-1.69-5.98-0.1-9.32
		c4.07-8.57,8.53-16.93,13.05-25.26c0.45-0.82,1.31-1.54,0.88-2.64c-1.35-0.72-1.88,0.45-2.52,1.04
		c-11.2,10.17-22.89,19.8-33.66,30.45c-2.71,2.68-5.89,2.33-8.72,0.9c-2.55-1.28-5.15-2.6-7.82-3.13
		c-5.92-1.17-9.79-5.54-14.48-8.57c-2.74-1.77-1.84-4.74-0.45-7.2c4.35-7.69,9.16-15.05,14.73-21.95
		c3.93-4.86,8.23-9.37,12.37-14.14c-2.63,0.16-4.69,1.58-6.6,2.95c-10.93,7.87-22.32,15.11-32.48,24.02
		c-3.5,3.06-7.74,5.14-11.27,8.26c-2.11,1.87-4.48,0.57-6.04-1.41c-3.73-4.72-6.39-10.1-9.16-15.41c-0.8-1.54-0.53-2.93,0.38-4.22
		c1.62-2.33,3.31-4.7,5.96-5.91c3.57-1.64,6.65-4.05,9.04-6.97c7.2-8.76,16.69-14.75,25.44-21.61
		c10.07-7.88,20.24-15.67,30.98-22.64c1.24-0.81,1.58-2.04,2.29-3.14c3.59-5.58,8.03-10.02,14.74-11.89
		c33.34-9.32,66.53-19.16,100.23-27.22c15.99-3.83,31.52-9.53,47.33-14.15c7.98-2.33,16.17-3.96,24.18-6.19
		c15.22-4.22,30.35-8.77,45.58-12.94c10.27-2.81,20.69-5.03,30.95-7.87c13.62-3.77,27.5-6.56,40.89-11.22
		c7.35-2.56,15-4.28,22.55-6.21c8.26-2.11,16.12-5.4,23.78-8.96c12.54-5.83,25.63-10.24,38.36-15.54c5.6-2.33,9.82-6.83,15.55-8.88
		c15.22-5.44,28.6-14.92,43.82-20.33c5.92-2.1,11.92-4.68,18.28-4.73c6.23-0.05,11.71-1.57,16.77-5.06
		c4.45-3.07,8.93-6.08,13.27-9.03c-1.02-2.35-2.54-1.98-3.73-1.79c-14.22,2.25-28.55,1.7-42.86,1.69
		c-12.15-0.01-24.33,0.54-36.46-0.43c-25.73-2.07-51.51-4.24-76.74-9.76c-17.55-3.84-35.31-6.63-52.75-11.04
		c-9.83-2.49-19.51-5.52-29.36-7.81c-19.6-4.55-38.87-10.32-58.22-15.72c-18.89-5.27-37.45-11.78-56.18-17.66
		c-19.58-6.14-38.47-13.94-57.46-21.54c-6-2.4-12.12-4.65-17.67-8.07c-4.02-2.48-7.41-5.25-5.45-10.81
		c0.37-1.05,0.43-2.31-0.39-3.66c-2.56,1.37-3.89,3.9-5.65,5.96c-2.07,2.44-3.95,2.86-6.81,0.86c-6.12-4.29-13.24-7.02-18.91-12.05
		c-1.23-1.09-2.79-1.84-3.57-3.94c3.28-5.6,6.7-11.42,10.12-17.25c-12.18,4.96-22.41,12.93-33.78,19.99
		c-8.68-7.46-18.17-14.2-26.35-22.52c-1.44-1.47-1.34-2.88-0.24-4.45c1.46-2.1,3.42-3.63,5.53-4.98c1.68-1.08,3.28-2.19,4.54-4.47
		c-4.81,0.1-7.82,3.18-11.19,5.16c-3.84,2.27-6.24,2.45-9.46-0.91c-4.04-4.2-7.87-8.6-11.78-12.93c-2.16-2.4-2.02-4.86,0.12-7.13
		c1.83-1.93,3.71-3.86,5.8-5.48c6.04-4.7,12.15-9.31,18.32-13.82c2.57-1.88,4.97-3.94,7.2-6.17c2.45-2.47,2.17-5.92-0.83-7.46
		c-13.46-6.93-25.62-16.12-39.75-22.49c1.51-5.5,4.04-10.48,7.01-15.24c1.46-2.34,3.76-2.53,6.19-1.58
		c5.12,2.01,10.28,3.9,15.32,6.08c8.38,3.63,17.44,5.48,25.52,9.86c0.43,0.23,0.95,0.27,1.76-0.42c0.21-2.87-2.26-4.54-3.97-6.54
		c-6.27-7.34-12.69-14.55-18.85-21.98c-3.32-4.01-3.08-4.87,1.36-7.75c3.63-2.35,7.34-4.61,11.14-6.67c3.87-2.09,5.16-1.67,8.11,1.7
		c6.9,7.89,13.22,16.3,21.04,23.37c1.76,1.59,1.7,1.66,4.64,2.71c0.64-3.08-1.31-5.5-2.26-7.95c-2.67-6.88-3.63-14.18-5.89-21.14
		c-0.84-2.59,0.42-3.83,2.49-4.57c3.44-1.24,6.97-2.21,10.31-3.74c2.53-1.16,4.03,0.27,5.3,2.31c2.53,4.05,5.27,7.94,8.35,11.45
		c1.75-0.84,1.16-1.98,1.13-2.84c-0.1-2.86,1.64-3.95,4.03-4.06c9.95-0.48,19.89-1.41,29.88-0.1c6.92,0.91,13.91,1.41,20.88,1.78
		c9.99,0.53,19.88,1.97,29.79,3.09c11.89,1.34,23.74,3.43,35.68,3.96c10.71,0.48,21.22,2.07,31.64,4.19
		c12.41,2.52,24.95,4.17,37.39,6.39c12.59,2.25,25.06,5.2,37.53,8.09c12.8,2.96,25.58,6.01,38.27,9.39c8.52,2.27,17,4.68,25.57,6.76
		c4.5,1.09,4.43,1.08,6.78-3.26c5.24-9.68,11.34-18.79,18.06-27.52c7.51-9.78,14.96-19.6,23.87-28.17
		c7.08-6.81,13.9-13.99,21.61-20.01c13.23-10.34,26.9-20.16,41.86-27.99c1.43-0.75,3.09-1.25,4.53-3.07
		c-2.4-3.52-4.86-7.19-7.39-10.8c-3.42-4.89-3.28-5.39,1.84-8.24c1.08-0.6,2.63-0.66,3.29-2.58c-2.61-0.78-5.24-0.57-7.74-0.23
		c-3.45,0.48-5.39-1-6.51-4c-0.64-1.71-1.27-3.44-1.75-5.2c-1.59-5.9-2.62-11.95-5.09-18.13c8.56-3.18,17.37-3.71,26.05-5.74
		c-1.72-2.28-4.07-2.15-6.03-2.68c-6.87-1.86-13.75-3.72-20.39-6.31c-4.4-1.71-5-2.74-4.82-7.55c0.24-6.82,0.56-13.61,2.09-20.31
		c0.56-2.46,1.76-3.07,4.13-3.21c5.1-0.31,9.82,1.58,14.77,2.08c8.1,0.81,16.33,0.38,24.14,2.71c2.21-1.5,2.46-3.77,2.74-5.84
		c1.71-12.75,5.28-25.05,8.88-37.34c0.6-2.06,1.15-4.15,2.35-6.15c3.11-0.49,6.17-0.16,9.32,0.39c4.42,0.77,8.72,2.09,13.25,2.38
		c3.93,0.25,4.47,1.13,3.77,5.22c-1.18,6.89-2.5,13.76-3.77,20.64c-0.27,1.45-0.92,2.88-0.14,4.39c2.18-0.1,3.05-1.81,4.07-3.29
		c5.38-7.82,10.76-15.63,16.11-23.47c3.61-5.28,4.3-5.61,10.24-3.18c9.78,4,17.25,11.08,24.29,18.69c1.55,1.67,0.51,2.94-0.28,4.45
		c-3.78,7.22-7.59,14.43-11.1,21.78c-0.79,1.66-2.69,3.67-0.29,6.3c3.8-2.82,7.54-5.66,11.36-8.39c4.06-2.9,8.23-5.65,12.28-8.57
		c1.87-1.34,3.47-0.69,5.07,0.33c3.47,2.22,5.94,5.41,7.72,9c2.82,5.7,6.29,10.98,9.94,16.14c1.87,2.65,2.13,4.77,0.25,7.67
		c-2.8,4.3-4.81,9.09-8.65,12.74c-1.33,1.26-2.64,2.95-2.49,5.1c1.53,1,2.2-0.3,3.07-0.93c4.6-3.3,9.31-6.44,14.54-8.67
		c4.33-1.85,6.64-1.39,9.72,2.12c3.2,3.65,5.7,7.82,7.69,12.23c1.48,3.28,3.6,4.48,7.3,4.62c16.8,0.65,33.57,1.66,49.7,7.14
		c6.91,2.35,13.6,5.26,20.52,7.61c4.15,1.41,7.6,4.78,11.65,6.64c13.7,6.28,25.29,15.62,35.45,26.32
		c10.85,11.42,21,23.62,28.02,38.05c6.3,12.97,10.32,26.56,12.32,40.81c0.6,4.26,1.81,8.41,2.55,12.67
		c3.87,22.27,4.31,44.6,2.88,67.12c-1.47,23.16-5.57,45.81-10.6,68.4c-3.41,15.32-7.66,30.39-13.43,44.9
		c-5.1,12.8-10.89,25.36-16.33,38.04c-4.52,10.53-8.45,21.32-13.15,31.77c-3.95,8.79-8.44,17.36-13.09,25.81
		c-1.85,3.36-2.72,6.33-2.2,10.27c1.89,14.25-0.09,28.52-0.58,42.78c-0.48,14.15-1.93,28.26-5.1,42.01
		c-3.65,15.84-6.95,31.89-14.19,46.74c0.11,1.62,1.45,2.46,2.41,3.58c10.97,12.75,21.79,25.61,30,40.41
		c7.7,13.87,13.01,28.42,13.3,44.51c0.07,3.89-0.66,7.65-1.43,11.38c-2.68,12.96-7.25,25.14-14.22,36.53
		c-3.46,5.64-7.14,11.21-9.97,17.27c-1.65,3.54-2.11,6.86-0.72,10.51c1.12,2.94,2.48,5.82,2.24,9.14c-0.13,1.82-0.66,2.99-2.42,3.91
		c-7.01,3.67-14.16,6.63-22.31,5.88c-6.15-0.57-12.39-1.78-17.75-4.45c-7.03-3.5-14.24-5.94-21.75-7.88
		c-6.72-1.74-12.26-5.83-17.84-9.7c-2.57-1.79-4.7-4.22-6.99-6.4c-3.23-3.07-4.11-6.87-2.73-10.99c1.97-5.9,2.7-11.99,3.2-18.13
		c0.71-8.77-1.22-16.82-6.67-24.15c-2.55,0.44-3.77,2.67-5.58,3.96c-10.83,7.73-21.7,15.35-33.15,22.2
		c-7.87,4.71-15.54,9.63-24.22,12.74c-2.64,0.95-3.57,3.47-4.67,5.62c-2.34,4.58-4.12,9.47-7.27,13.61
		c-1.41,1.85-0.2,3.57,0.19,5.24c1.62,6.84-1.08,12.46-7.73,14.99c-8.56,3.25-17.4,4.37-26.41,2.15c-6.6-1.63-13.19-3.27-19.63-5.6
		c-3.63-1.31-7.86-1.18-11.83-1.28c-5.71-0.15-11.21-1.63-16.76-2.56c-4.45-0.75-7.97-3.88-9.86-8.42
		c-2.55-6.11-5.25-12.17-6.97-18.69c-6.98-0.17-13.6,0.27-20.24,0c-21.86-0.87-43.44-3.28-64.5-9.5c-3.66-1.08-7.38-1.91-11.02-3.11
		c-4.34-1.43-6.2-0.42-6.44,4c-0.31,5.88-2.9,11.23-3.14,17.12c-0.15,3.55-2.57,6.03-6.12,7.13c-7.32,2.29-14.82,1.96-22.27,1.24
		c-3.6-0.35-7.19-1.19-10.61-2.66c-2.66-1.15-5.35-1.27-7.98,0.73c-2.63,2-5.97,2.06-9.12,1.85c-6.91-0.47-14.09,1.33-20.69-0.91
		c-5.32-1.81-10.7-3.02-16.12-4.26c-3.54-0.81-6.01-3.01-8.12-6.1c-5.68-8.36-7.97-17.97-10.09-27.48
		c-1.94-8.73-3.6-17.67-3.43-26.72c0.3-15.6,3.34-30.73,8.47-45.44c3.11-8.92,6.26-17.84,10.25-26.29c-0.86-1.15-1.61-0.6-2.28-0.18
		c-17.82,11.06-36.56,20.41-55.55,29.22c-7.84,3.64-16.02,6.55-24.01,9.87c-2.51,1.04-5.2,0.89-7.8,1.17
		c-1,2.95-2.29,5.54-2.12,8.42c0.21,3.46-1.66,4.25-4.61,4.26c-5.84,0.02-11.56-0.82-17.31-1.82c-1.83-6.02,0.54-12.24-0.92-17.83
		c-2.21-0.56-2.74,0.52-3.41,1.51c-6,8.83-13.32,16.65-19.47,25.36c-1.54,2.19-3.43,2.79-5.95,2.79
		C172.57,742.76,166.56,739.96,158.89,739.34z M720.9,185.05c-0.43,1.74,0.11,3.11,0.54,4.53c3.48,11.44,5.75,23.19,9.06,34.69
		c4.32,15.02,6.78,30.48,10.08,45.75c2.07,9.58,4.51,19.11,6.04,28.78c1.86,11.79,2.92,23.7,4.38,35.55
		c0.21,1.67-0.02,3.81,3.01,4.15c6.74-16.24,13.36-32.49,14.65-50.32c0.49-6.79,2.59-13.37,2.05-20.31
		c-1.07-13.65-3.14-26.94-8.28-39.86c-3.37-8.48-7.14-16.39-13.17-23.23C741.47,195.93,732.43,188.95,720.9,185.05z M619.94,350.19
		c-3.7,2.54-4.97,5.85-7.77,8.81c4.94,1.47,5.97,6.71,10.7,8.99c-0.05-4.19,4.33-5.44,5.02-9.58
		C622.28,359.11,620.68,355.54,619.94,350.19z M576.43,317.96c-2.83,0.17-4.63,1.47-6.02,3.79c1.78,2,3.39,3.75,5.96,4.94
		C576.9,323.55,576.84,320.85,576.43,317.96z"/>
</g>
</svg>
