<?xml version="1.0" encoding="utf-8"?>
<!-- Generator: Adobe Illustrator 24.0.2, SVG Export Plug-In . SVG Version: 6.00 Build 0)  -->
<svg version="1.1" id="Layer_1" xmlns="http://www.w3.org/2000/svg" xmlns:xlink="http://www.w3.org/1999/xlink" x="0px" y="0px"
	 width="861.54" height="723.15" viewBox="0 0 861.54 723.15" style="enable-background:new 0 0 861.54 723.15;" xml:space="preserve">
<g>
	<path d="M294.21,535.27c3.14-1.7,5.5,1.77,8.59,0.66c-2.01-4.46-4.02-8.77-5.9-13.13c-3.12-7.22-5.17-14.74-6.11-22.57
		c-0.69-5.73-0.09-6.38,5.76-5.7c0.81,0.09,1.65,0.01,2.64,0.01c1.22-2.03,1.36-4.38,1.46-6.64c0.45-10.19,1.51-20.25,5.33-29.84
		c0.76-1.91,0.66-3.85,0.17-5.88c-0.73-3.05-1.17-6.17-1.76-9.45c-3.26,0.44-4.1,4.56-7.73,4.63c-1.55-0.22-1.13-2.44-2.85-3.49
		c-0.3,0.45-0.73,0.97-1.02,1.57c-2.21,4.59-6.22,6.12-10.93,6.63c-6.62,0.72-13.1,2.21-19.56,3.78c-1.97,0.48-3.92,1.03-5.55,2.16
		c-4.94,3.41-9.95,6.61-15.87,8.15c-1.82,0.47-2.95,2.11-4.08,3.57c-5.02,6.47-9.2,13.45-12.46,20.96c-0.25,0.59-0.73,1.07-1.1,1.59
		c-3.36,0.02-3.59-3.09-5.37-5.15c-1.54,2.99-2.48,5.94-3.25,8.97c-0.66,2.6-2.23,2.59-4.1,1.24c-2-1.45-2.87-3.66-3.67-5.84
		c-3.73-10.24-4.09-20.85-3.12-31.54c0.42-4.62,2.46-8.47,6.24-11.52c4.13-3.33,8.39-6.53,11.87-10.66c2.06-2.45,5-3.63,8.35-4
		c8.26-0.92,16.58-1.26,24.72-3.22c6.81-1.64,13.32-4.2,20.02-6.14c1.68-0.49,2.75-1.88,3.47-3.42c3.8-8.14,7.55-16.29,11.32-24.45
		c0.49-1.06,1.13-2.16,0.49-3.32c-3.12-5.57-3.2-11.75-3.62-17.86c-0.27-3.95-0.72-7.87-1.76-12.28c-5.1,2.97-9.4,6.37-14.59,8.11
		c-1.97-1.85-0.05-3.97-0.85-6.09c-2.8-0.87-5.89-0.56-9.3-1.09c0.39,3.97,2.48,6.79,3.87,9.84c4.69,10.31,8.88,20.82,12.73,31.47
		c1.4,3.87-0.18,5.84-4.37,5.22c-4.78-0.71-9.31-2.47-13.8-4.26c-4.42-1.75-8.88-3.39-13.65-5.21c-0.9,5.09,1.93,8.86,2.45,13.07
		c0.41,3.26,1.68,6.42,2.62,9.62c1.37,4.7,0.34,6.2-4.29,5.17c-5.82-1.3-11.66-2.63-17.02-5.54c-4.63-2.51-9.47-4.62-14.82-7.2
		c-0.7,8.69,3.52,16.17,2.8,24.14c-3.76,0.85-6.08-1.5-8.54-2.9c-9.29-5.28-17.83-11.66-25.7-18.9c-3.97-3.65-8.73-4.9-13.95-5.87
		c-14.96-2.81-30.52-3.87-43.8-12.49c-8.99-5.84-14.79-14.17-18.08-24.37c-1.4-4.34-1.88-9.3-6.73-11.87
		c3.82-6.68,1.75-11.95-3.75-16.11c0.09-1.93,1.41-2.35,2.54-3.03c3.23-1.97,3.17-5.34-0.09-7.24c-2.41-1.4-5.29-1.93-7.43-3.78
		c-0.03-3.18,3.33-2.99,4.92-5.29c-7.88-5.58-14.06-13.23-22.87-18.53c-1.1,3.54-0.04,6.23,0.35,8.87
		c0.67,4.44,1.91,8.79,2.55,13.23c0.65,4.56-0.36,5.21-4.87,4.77c-6.86-0.68-12.19-4.21-17.03-8.69c-3.54-3.28-6.86-6.8-10.31-10.19
		c-0.91-0.9-1.7-2.15-3.63-1.61c-0.42,3.94,0.62,7.67,1.88,11.43c0.69,2.05,2.78,4.5,0.49,6.39c-1.97,1.62-4.13-0.3-5.93-1.36
		c-3.58-2.1-7.05-4.4-10.56-6.62c-6.47-4.08-9.36-10.65-11.75-17.41c-1.3-3.66-2.72-7.05-5.4-9.97c-3.39-3.68-5.61-8.22-8.12-12.52
		c-1.23-2.11-0.67-4.59-0.1-6.85c1.9-7.58,4.81-14.86,6.43-22.54c0.84-4.01,3.62-6.74,7.59-8.66c4.18-2.02,8.14-4.57,12.53-6.15
		c6.09-2.19,9.18-7.44,12.85-12.12c1.34-1.7,2.54-3.52,4.01-5.09c3.11-3.31,3.17-3.26,7.93-3.27c2.1-2.76,3.02-6.13,3.86-9.5
		c0.9-3.61,2.49-6.88,4.5-9.97c0.91-1.4,1.85-3.1,3.55-3.34c3.41-0.48,3.7-2.52,3.56-5.33c-0.65-13.19,1.8-26.16,2.92-39.23
		c0.1-1.16,0.36-2.32,0.32-3.48c-0.69-17.6,2.78-34.82,4.7-52.18c0.36-3.29-0.24-6.67,1.08-9.89c0.53-1.3,0.88-2.63,2.52-2.63
		c1.58,0.01,2.23,1.2,2.6,2.58c0.6,2.25,1.25,4.49,1.86,6.74c0.39,1.4,0.48,2.98,2.67,3.73c2.35-13.05,4.56-25.99,8.89-38.37
		c3.57,0.06,4.37,2.15,4.87,4.24c2.96,12.3,5.84,24.62,8.73,36.93c1.78,7.58,3.45,15.19,6.25,22.67c0.72-0.49,1.26-0.66,1.49-1.03
		c10.17-16.4,22.19-31.58,31.89-48.3c0.99-1.71,2.08-3.44,4.65-3.56c2.22,1.85,1.78,4.38,1.52,6.82
		c-0.86,8.11-1.76,16.22-2.66,24.33c-0.13,1.16-0.29,2.31,0.33,3.35c1.97,1.07,3.62,0.19,5.24-0.63
		c14.59-7.31,30.11-11.71,46.23-13.58c10.73-1.24,21.6-1.5,32.43-1.23c6.71,0.17,12.32,2.4,16.15,8.26c1.8,2.74,4.32,3.74,7.72,3.37
		c15.4-1.65,30.17,1.39,44.57,6.53c6.41,2.29,12.64,5.05,18.97,7.58c1.07,0.43,2.1,1.05,3.91,0.75c2.35-13.02,7.29-25.42,12.14-37.9
		c2.29,0.25,2.74,1.83,3.15,3.12c3.57,11.08,8.33,21.76,11.36,33.02c1.39,5.15,4.27,9.66,6.12,15.09
		c14.16-25.3,29.15-49.96,48.63-71.35C428.06,37.98,447.55,16.68,471.47,0c1.88,2.71,0.71,4.54,0.03,6.34
		c-7.74,20.56-15.12,41.27-21.79,62.19c-4.19,13.14-7.49,26.6-9.31,40.34c-0.13,0.98-0.14,1.99-0.1,2.99
		c0.03,0.82,0.13,1.67,1.41,2.93c13.59-14.08,29.25-25.74,45.23-36.94c15.93-11.17,32.44-21.47,50.59-30.02
		c0.65,3.22-0.66,4.83-1.47,6.55c-8.64,18.37-18.42,36.18-27.46,54.35c-7.26,14.6-13.56,29.67-19.4,44.91
		c-1.97,5.13-4.78,9.91-6.12,15.29c-0.28,1.11-0.92,2.17-0.24,4.3c14.7-2.06,29.68-3.14,44.65-4.11
		c14.75-0.95,29.62-1.43,44.46,2.11c-21.4,11.92-41.67,25.06-61.49,39.02c-19.75,13.91-38.68,28.75-57.14,44.72
		c2.6,2.97,5.68,4.1,8.85,4.97c11.89,3.26,23.35,7.86,35.17,11.35c5.23,1.55,8.53,5.03,10.42,9.96c1.38,3.61,3.68,6.19,7.11,8.01
		c2.02,1.07,3.95,1.56,6.19,1.19c9.15-1.51,18.26-0.58,27.37,0.54c3.69,0.45,6.71,2.14,8.97,4.93c3.45,4.26,7.21,8.31,9.81,13.22
		c0.54,1.01,0.98,2.14,2.33,2.6c0.37-0.15,0.99-0.2,1.24-0.54c4.53-6.19,10.73-5.41,17.11-4.3c4.59,0.8,9.23,1.27,13.82,2.03
		c2.16,0.36,3.69-0.22,5.41-1.63c9.1-7.46,17.31-15.64,22.41-26.46c3.18-6.75,9.2-9.01,15.86-9.44c5.52-0.36,8.07-2.85,10-7.88
		c3.59-9.34,5.37-19.24,9.23-28.47c0.77-1.84,1.34-3.77,2.15-5.59c2.01-4.51,5.09-7.75,10.28-8.44c2.48-0.33,5.01-1.32,7.39-1.03
		c5.02,0.61,7.31-2.11,9.01-6.07c5.63-13.08,14.3-23.99,24.5-33.71c4.45-4.24,9.3-8.06,14.1-11.92c1.5-1.21,2.51-2.36,2.93-4.35
		c2.6-12.23,3.48-24.72,5.72-37.01c0.68-3.75-0.76-7.66,0.81-11.39c0.64-1.52,0.92-3.21,2.44-4.62c3.62,0.44,6.37,1.78,8.29,5.63
		c2.62,5.26,7.05,9.63,7.41,16.33c2.87-3.23,5.99-6.19,6.32-9.98c1.34-15.57,9.79-28.52,15.14-42.59c1.42-3.74,2.82-7.47,4.15-11.24
		c0.77-2.17,1.83-4.46,4.72-4.45c3.02,0.01,5.76,2.72,6.79,5.38c1.51,3.9,0.8,7.86,1.06,11.79c0.76,11.65,2.39,23.18,4.27,34.7
		c1.26,7.66,5.45,14.29,7.11,21.78c0.44,2.01,2.05,2.42,3.88,2.32c9.03-0.5,17.96,0.38,26.86,1.84c6.29,1.03,12.23,3.03,17.94,5.84
		c2.31,1.13,3.84,2.75,3.68,5.39c-0.16,2.63-1.85,4.13-4.25,4.97c-7.99,2.82-16.12,5.29-23.88,8.77
		c-24.2,10.88-46.49,24.63-64.86,44.01c-5.36,5.66-10.17,11.88-14.4,18.5c-8.63,13.49-16.57,27.46-22.52,42.25
		c-5.19,12.9-9.89,26.06-12.87,39.84c-3.68,17.05-8.95,33.76-13.25,50.69c-4.8,18.91-10.82,37.41-18.96,55.11
		c-7.64,16.61-15.31,33.21-26.29,48.09c-14.28,19.35-29.62,37.72-47.42,53.9c-9.72,8.83-19.82,17.29-31.32,23.86
		c-3.89,2.22-3.92,4.1-0.09,6.42c3.56,2.16,7.32,4.17,11.36,5.07c3.17,0.7,4.47,2.29,5.13,5.18c1.82,7.99,2.47,16.1,2.74,24.26
		c0.54,15.83-0.51,31.63-1.58,47.4c-0.61,9.05,0.19,17.98,1.1,26.91c0.31,3.04-0.19,5.39-1.73,7.96c-3.3,5.48-8.81,8.5-13.26,12.39
		c-0.08,0.59-0.25,0.96-0.16,1.24c1.84,5.58,1.82,5.55-3.02,8.75c-4.28,2.83-9.27,3.66-14.08,4.89
		c-11.27,2.9-22.67,5.46-33.01,10.98c-7.65,4.09-14.61,9.29-20.7,15.54c-3.47,3.56-3.41,3.28-6.26-0.73
		c-3.13-4.41-2.94-9.08-2.33-13.87c1.09-8.52,3.66-16.57,8.53-23.77c0.46-0.68,0.95-1.36,0.75-3.07
		c-11.97,2.24-24.02,3.81-35.6,7.67c-11.65,3.89-21.64,10.85-31.34,17.89c-2.84-1.15-2.9-3.46-3.19-5.54
		c-1.55-10.72,1.25-20.44,6.99-29.45c0.69-1.08,2.02-1.84,1.59-4.07c-5.21-0.62-10.63-0.37-15.89,0.48
		c-11.16,1.79-22.28,3.95-32.71,8.61c-1.33,0.59-2.84,1.6-4.16,0.27c-1.29-1.31-1.08-3.11-0.56-4.73c1.17-3.62,2.44-7.21,3.72-10.96
		c-3.27-1.79-5,2.44-8.21,1.65c-2.68-7.63,5.53-11.96,6.4-18.99c-12.3,1.49-23.93,3.76-34.7,9.54c-2.51-3.27-2.07-6.55-0.55-9.59
		c4.27-8.54,10.31-15.5,18.91-19.97c1.92-1,3.85-1.99,5.84-2.84c7.87-3.37,15.5-6.93,19.88-15c3.29-6.06,8.95-5.3,14.43-4.4
		c3.57,0.59,7.08,1.56,10.66,2.38c1.66-3.88,3.19-7.34,4.61-10.85c1.04-2.56,0.56-4.9-1.45-6.87c-3.57-3.5-6.96-7.21-10.75-10.43
		c-4.35-3.7-10.06-4.16-15.36-5.47c-1.7-0.42-2.73,0.87-3.89,1.82c-5.02,4.13-10.17,8.08-15.41,11.92
		c-10.39,7.6-22.22,8.53-34.33,7.36c-9.64-0.93-18.73-3.9-27.52-8.28c-19.22-9.58-31-25.15-38.09-44.86
		C294.12,536.24,294.21,535.89,294.21,535.27z"/>
</g>
</svg>
