<?xml version="1.0" encoding="utf-8"?>
<!-- Generator: Adobe Illustrator 24.0.2, SVG Export Plug-In . SVG Version: 6.00 Build 0)  -->
<svg version="1.1" id="Layer_1" xmlns="http://www.w3.org/2000/svg" xmlns:xlink="http://www.w3.org/1999/xlink" x="0px" y="0px"
	 width="861.35" height="671.47" viewBox="0 0 861.35 671.47" style="enable-background:new 0 0 861.35 671.47;" xml:space="preserve">
<g>
	<path d="M345.52,496.58c-1.77,1.59-2.12,3.62-2.9,5.42c-0.67,1.54-1.33,3.06-2.46,4.32c-2.73,3.05-5.13,2.67-6.67-1.12
		c-2.69-6.63-5.6-13.18-8.17-19.83c-2.3-5.96-5.5-11.39-8.57-16.87c-2.78-4.95-5.75-9.71-6.44-15.21c-2.37-1.18-4.36-0.41-6.27-0.23
		c-17.36,1.64-34.54,1-51.37-3.99c-2.31-0.68-3.98-0.18-5.99,1.09c-12.18,7.71-25.49,12.68-39.44,16.2
		c-6.63,1.67-13.17,3.56-20.06,3.79c-0.6,0.02-1.19,0.49-2.04,0.86c2.87,9.62,6.84,18.78,8.73,28.57c0.23,1.19,1.14,2.01,2.04,2.77
		c1.41,1.17,2.7,2.54,4.26,3.47c15.02,8.92,29.15,19.23,44.41,27.79c19.57,10.99,39.85,20.76,58.75,32.89
		c13.98,8.98,27.95,18.01,41.41,27.8c5.37,3.91,11.04,7.4,15.97,11.92c1.32,1.21,3.38,2.09,2.6,4.31c-0.72,2.04-2.56,3.06-4.73,3.09
		c-8.97,0.14-17.91,0.4-26.83-1.2c-14.56-2.62-28.91-6.3-43.66-7.93c-4.95-0.55-9.81-1.86-14.72-2.8c-1.42-0.27-2.84-1.13-4.32-0.12
		c-0.74,2.09,0.96,2.98,2.02,4.16c8.39,9.28,15.74,19.35,23.1,29.44c5.9,8.08,11.46,16.34,16.39,25.04
		c1.08,1.91,1.91,3.89,2.59,5.93c1.22,3.64-0.06,5.49-3.91,5.34c-2.81-0.11-5.65-0.5-8.41-1.1c-22.2-4.89-43.1-13.58-63.86-22.47
		c-20.13-8.62-39.94-17.99-59.24-28.43c-8.31-4.5-17.24-7.85-25.87-11.76c-3.18-1.44-6.5-2.7-9.41-4.58
		c-3.23-2.08-6.2-1.84-9.27-0.2c-3.52,1.88-6.92,4-10.43,5.9c-20.32,10.99-40.4,22.48-61.91,31.09
		c-15.16,6.07-30.53,11.48-46.91,13.32c-3.15,0.36-6.28,0.71-9.44,0.04c-4.2-0.89-5.5-3.24-3.62-7.14c0.86-1.78,2.14-3.37,3.32-4.98
		c14.78-19.96,31.21-38.45,48.45-56.34c11.7-12.14,24.8-22.7,36.54-34.73c2.67-2.74,5.29-5.54,7.77-8.46
		c2.01-2.36,2.95-5.28,2.79-8.36c-0.54-10.61-0.8-21.24-2.66-31.76c-0.52-2.93-0.58-5.97-0.53-8.96c0.09-5.72-0.93-11.21-2.49-16.68
		c-1.83-6.41-1.54-13.17-3.19-19.65c-1.8-7.07-2.97-14.3-4.62-21.41c-1.81-7.82-5.15-15.11-8.85-22.17
		c-3.73-7.11-3.64-10.37,1.26-16.72c5.59-7.25,5.94-15.3,3.64-23.83c-3.74-13.88-5.4-28.05-5.69-42.42
		c-0.38-19.02,0.62-37.96,4.26-56.63c1.58-8.11,4.32-16.02,6.86-23.92c3.17-9.83,7.58-19.16,12.06-28.44
		c1.2-2.48,1.28-4.9-0.39-7.07c-3.71-4.8-5.78-10.49-8.54-15.78c-8.45-16.21-16.62-32.57-24.64-49.01
		c-8.31-17.05-16.04-34.4-22.37-52.27c-3.87-10.93-7.31-22.04-11.07-33.04c-1.33-3.88-0.38-8.21-1.84-12.26
		c-0.89-2.46,1.52-4.31,4.62-4.15c6.57,0.35,12.73,2.59,18.79,4.77c4.81,1.73,9.78,3.11,14.34,5.68c4.49,2.52,5.62,1.71,7.29-3.38
		c3.26-9.94,6.38-19.93,9.83-29.8c2.7-7.73,6.78-14.83,11.19-21.7c2.45-3.82,6.26-3.49,8.4,0.71c4.16,8.17,7.22,16.81,9.57,25.64
		c4.1,15.46,6.81,31.21,8.11,47.16c0.28,3.47,1.43,5.19,4.78,6.48c10.36,4.01,20.55,8.46,30.78,12.81
		c4.93,2.1,10.44,2.13,15.28,4.53c2.7,1.34,4.5-0.72,6.15-2.19c7.39-6.56,15.79-11.66,23.89-17.22
		c12.84-8.81,26.62-15.79,40.93-21.74c21.28-8.84,43.29-15.19,66.23-17.89c8.42-0.99,16.88-1.72,25.38-1.96
		c11.54-0.33,21.48,3.95,30.45,10.69c13.07,9.82,23.29,22.24,31.83,36.11c7.52,12.21,14.08,24.9,19.3,38.28
		c1,2.58,1.03,5.6,3.19,7.95c2.61-1.42,3.83-3.78,4.98-6.12c8.62-17.64,17.58-35.09,27.95-51.78c2.31-3.72,2.77-8.7,7.45-10.9
		c2.25,0.98,2.91,3.05,3.48,5.13c3.36,12.36,6.82,24.71,8.37,37.48c0.44,3.59,1.16,7.15,1.74,10.68c2.6,0.88,4.44-0.23,6.44-1.06
		c23.51-9.78,47.66-16.47,73.44-16.54c12.69-0.03,25.28,0.61,37.87,1.84c3.69,0.36,5.83-0.67,6.53-4.2
		c0.97-4.87,2.6-9.59,3.24-14.54c0.58-4.47,1.6-8.87,3.93-12.78c2.32-3.89,4.52-3.61,6.83,0.3c6.21,10.5,10.82,21.73,15.18,33.06
		c1.64,4.26,4.39,6.83,8.61,8.07c8.33,2.45,16.41,5.73,23.99,9.81c10.85,5.84,21.15,12.63,28.88,22.59
		c3.63,4.67,4.15,4.52,10.07,2.47c5.46-1.89,9.47-5.06,12.58-9.97c3.01-4.73,7.38-8.42,10.6-13.16c6.38-9.38,11.67-19.38,17.76-28.9
		c0.71-1.1,1.32-2.31,2.9-3.01c3.16,2.4,3.49,6.2,4.48,9.55c4.81,16.27,5.5,33.1,6.37,49.88c0.26,5,1.44,9.84,1.97,14.79
		c1.22,11.44,1.35,22.92,2.13,34.37c0.19,2.73,1,5.07,2.39,7.47c4.42,7.62,8.17,15.61,12.66,23.21
		c6.11,10.33,13.53,19.79,19.63,30.09c7.06,11.92,15.73,22.67,23.4,34.14c1.73,2.58,2.73,5.65,4.23,8.84
		c6.42-2.46,11.29-7.24,17.48-10.07c5.59,3.22,8.54,8.87,11.11,14.22c2.6,5.41,5.4,10.82,6.67,16.99
		c4.19,20.34,5.77,40.71,4.05,61.45c-1.2,14.46-2.32,28.93-6.15,42.92c-4.18,15.28-10.01,29.94-21.3,41.72
		c-15.14,15.79-31.75,29.65-50.36,41.34c-14.08,8.84-29.14,14.29-45.16,17.77c-2.15,0.47-4.3,0.56-6.46,0.4
		c-5.17-0.4-5.96-1.43-7.61-6.62c-2.14-6.71-5.92-12.67-10.04-18.3c-8.23-11.26-18.5-20.48-29.96-28.32
		c-3.38-2.31-5.74-5.95-10.1-7.82c-0.26,4.04-0.69,7.63-0.94,11.18c-0.62,8.62-2.77,16.81-6.79,24.35
		c-2.12,3.98-2.09,7.81-0.63,11.43c3.17,7.86,6.54,15.64,9.06,23.75c0.14,0.44,0.59,0.77,1.09,1.41c2.65-0.47,5.4-0.91,8.14-1.45
		c1.67-0.33,3.41-0.64,4.87,0.32c4.52,2.97,7.18,3.65,3.67,10.24c-2.81,5.29-6.15,10.28-11.05,13.96c-0.92,0.69-1.95,1.21-2.35,2.46
		c-4.04,12.5-12.65,21.39-22.6,29.5c-9.26,7.55-19.77,12.8-30.19,18.32c-6.06,3.21-12.84,3.48-19.34,4.64
		c-16.27,2.91-32.78,3.24-49.27,3.43c-16.23,0.19-32.3-1.57-48.13-4.74c-14.02-2.8-26.3-9.43-35.45-20.8
		c-2.67-3.32-5.71-5.17-9.88-5.94c-12.74-2.37-24.1-8.44-35.82-13.6c-13.7-6.03-27.04-12.78-40.42-19.46
		c-5.64-2.82-12.04-4.02-18.4-4.23c-14.81-0.48-29.63-0.81-44.44-1c-3.23-0.04-6.27-0.72-9.31-1.5c-2.64-0.68-3.22-2.66-1.56-4.83
		c0.5-0.65,1.13-1.25,1.8-1.72c7.84-5.37,14.02-12.72,21.91-18.05c5.21-3.53,8.31-9.03,11.98-13.96c0.71-0.95,1.38-2.2,0.93-3.26
		C348.71,504.92,348.48,500.26,345.52,496.58z M408.6,417.77c-5.41,2.83-9.8,6.71-14.76,9.71c-2.81,1.7-2.94,3.65-2.66,6.64
		c0.74,7.73,5.33,13.49,9.4,19.43c8.64,12.62,17.67,24.97,27.49,36.75c3.43,4.12,7.36,5.76,12.22,6.49
		C441.88,483.67,421.02,431.53,408.6,417.77z"/>
</g>
</svg>
