<?xml version="1.0" encoding="utf-8"?>
<!-- Generator: Adobe Illustrator 24.0.2, SVG Export Plug-In . SVG Version: 6.00 Build 0)  -->
<svg version="1.1" id="Layer_1" xmlns="http://www.w3.org/2000/svg" xmlns:xlink="http://www.w3.org/1999/xlink" x="0px" y="0px"
	 width="734.96" height="860.29" viewBox="0 0 734.96 860.29" style="enable-background:new 0 0 734.96 860.29;" xml:space="preserve">
<g>
	<path d="M516.68,774.37c-2.71,0.44-2.03,3.22-4.2,3.63c-1.5,0.19-2.11-1.13-2.58-2.34c-1.85-4.8-4.61-9.22-5.7-14.34
		c-0.76-3.6-2.38-6.6-6.71-7.13c-3.18,2.6-3.79,7.33-7.62,9.61c-4.17-2.16-2.72-6.88-4.58-10.16c-2.35,0.5-2.84,2.41-3.61,3.91
		c-4.4,8.6-8.72,17.23-13.07,25.85c-0.98,1.94-1.93,3.92-3.47,5.46c-2.05,2.05-3.72,1.74-4.94-0.97c-1.9-4.24-3.87-8.47-5.36-12.86
		c-1.26-3.73-3.38-6.41-7.16-8.17c-3.86,3.32-3.63,9.37-8.05,13.08c-5.02-7.72-9.89-15.2-14.75-22.67
		c-2.98,9.25-1.28,19.07-7.06,28.27c-5.91-8.57-12.56-15.05-19.26-21.65c-3.5,4.46-1.23,9.5-3.17,14.73
		c-6.06-5.67-9.93-12.21-14.11-18.58c-2.53,0.82-2.26,2.94-2.69,4.55c-3.1,11.76-6.94,23.21-12.86,33.92
		c-7.79,14.11-18.27,25.73-31.55,34.8c-10.88,7.43-22.14,14.23-34.23,19.51c-13.82,6.05-28.18,8.39-43.37,7.11
		c-10.37-0.87-19.84-4.34-29.09-8.26c-11.23-4.76-18.15-14.45-22.77-25.28c-2.75-6.46-0.77-13.54,2.16-19.83
		c4.37-9.39,11.4-16.46,19.62-22.79c8.78-6.76,18.69-11.47,27.91-17.34c13.44-8.56,26.82-17.45,37.53-29.57
		c3.25-3.68,3.08-5.83-1.1-12.69c-2.59,3.8-2.4,8.27-3.68,12.25c-0.5,1.54-0.06,3.47-2.46,3.62c-1.92,0.12-2.56-1.26-3.08-2.71
		c-1.82-5.1-7.29-7.82-8.63-13.22c-1.42-5.73-5.76-9.65-8.87-14.33c-0.57-0.86-1.33-1.49-2.79-1.24c-2.42,3.63-1.09,8.61-3.35,12.35
		c-2.95,0.23-3.77-1.9-4.53-3.6c-3.68-8.2-8.2-16.14-10.5-24.81c-1.79-6.73-3.88-13.35-6.04-19.94c-1.97-6.01-3-12.24-5.04-18.51
		c-1.9,0.21-2.86,1.84-4.18,2.93c-5,4.12-9.91,8.36-15.06,12.28c-3.6,2.74-5.24,1.86-5.36-2.67c-0.15-5.38-0.55-10.72-1.51-16.45
		c-5.65,2.99-7.89,10.11-15.06,11.52c-1.08-10.7,1.69-20.93-0.26-31.51c-4.31,2.22-9.18,2.23-12.18,5.84
		c-2.43-0.94-2.16-2.56-1.76-3.97c3.47-12.12,6.51-24.41,10.72-36.28c2.8-7.9,6.69-15.43,8.86-24.35
		c-6.36,2.52-12.04,5.01-17.49,8.02c-0.87,0.48-1.7,1.06-2.6,1.5c-1.21,0.59-2.51,1.17-3.69,0.01c-1.14-1.12-0.72-2.36-0.2-3.68
		c4.3-10.85,9.94-21.03,15.76-31.1c4.97-8.59,10.14-17.07,14.97-25.98c-10.45,4.29-19.02,12.14-30.44,16.65
		c0.07-13.62,6.77-25.02,7.61-38.43c-18.54,7.78-35.26,17.47-51.96,26.79c-1.65-0.51-2.05-1.37-1.53-2.74
		c7-18.61,18.09-35.02,27.95-52.1c6.99-12.11,14.94-23.57,23.13-34.87c0.58-0.8,1.32-1.55,0.97-2.59c-5.13,0-10.22-0.01-15.3,0
		c-1.76,0-3.94,0.92-4.87-1.28c-0.82-1.96,0.64-3.53,1.95-4.8c3.46-3.36,7.02-6.62,10.55-9.91c9.99-9.29,19.8-18.78,30.05-27.76
		c5.87-5.14,12.48-9.43,18.73-14.13c1.02-0.77,2.36-1.28,2.77-3.26c-6.99-0.82-13.84,1.06-20.71,0.63c-6.68-0.43-13.46,1-20.08-0.39
		c-0.05-0.36-0.1-0.73-0.15-1.09c9.65-6.29,19.3-12.58,29.33-19.11c-2.94-1.74-5.89-1.36-8.53-2.11c-1.21-0.35-2.91,0.09-3.27-1.66
		c-0.36-1.81,1.06-2.78,2.37-3.43c5.08-2.51,9.79-5.58,15.35-9.64c-12-3.11-23.38-5.68-33.87-10.08c-0.02-2.47,1.33-3.04,2.48-3.53
		c14.33-6.13,28.05-13.72,43.1-18.11c12.87-3.75,25.62-7.81,38.79-10.57c7.9-1.66,15.72-4.06,23.66-5.8
		c5.05-1.11,10.24-1.15,15.38-1.56c2.13-0.17,4.15-0.41,6.71-2.81c-5.92-0.82-10.82-1.11-15.62-1.96
		c-18.01-3.19-36.12-5.79-54.12-9.01c-12.27-2.19-24.74-3.63-36.8-6.61c-21.12-5.22-42.62-8.97-63.2-16.49
		c-7.61-2.78-15.66-4.3-22.88-9.3c4.32-3.26,8.86-5.76,14-6.68c11.29-2.02,22.5-4.51,33.99-5.4c20.58-1.59,41.16-3.29,61.82-2.48
		c13.14,0.51,26.26,1.12,39.42,1.2c8.16,0.05,16.18,1.87,24.27,2.84c9.57,1.14,19.07,2.78,28.62,4.09c4.96,0.68,9.8,1.88,14.61,3.22
		c1.09,0.3,2.15,0.94,3.74,0.07c-9.45-4.64-18.79-8.74-28.41-12.22c-9.02-3.26-18.16-6.24-27.27-9.18
		c-9.24-2.98-18.47-6.73-28.49-6.68c-0.49,0-1.01-0.05-1.48-0.2c-8.38-2.72-17.2-3.08-25.81-4.21c-5.08-0.67-10-1.95-14.92-2.97
		c-8.13-1.68-16.42-0.59-24.46-2.32c-13.74-2.95-27.77-2.48-41.67-3.27c-4.01-0.23-8.2-0.65-12.38,0.14
		c-4.74,0.89-8.71,2.55-12.99,5.03c-7.92,4.59-15.95,9.51-25.26,11.37c-3.06,0.61-5.9,2.25-8.91,3.2c-3.78,1.2-7.77,1.33-11.63,2.04
		c-12.97,2.38-25.96,3.53-39.04,1.41c-7.39-1.2-14.67-3.04-21.69-5.65c-6.72-2.5-11.61-7.57-15.8-13.11
		c-1.4-1.85-0.26-4.85-0.14-7.68c1.33,0.66,0.7,2.07,1.45,3.13c-0.49-8.28,4.74-13.02,9.83-17.5c10.23-9,23.02-12.24,35.95-14.87
		c10.63-2.16,21.4-3.38,32.24-2.77c10.59,0.6,21.37,0.27,31.51,4.19c5.58,2.16,11.31,4.21,16.27,7.53
		c5.59,3.74,12.09,4.57,18.07,4.75c16.79,0.51,33.52,2.01,50.31,2.52c12,0.36,23.83,2.63,35.63,4.69
		c12.26,2.14,24.44,4.83,36.56,7.68c5.97,1.4,11.7,3.77,17.58,5.57c7.63,2.33,15.31,4.46,22.95,6.77
		c8.45,2.56,16.51,6.12,24.49,9.88c6.01,2.83,12.01,5.6,18.36,7.72c8.55,2.85,16.18,7.76,23.92,12.34c1.78,1.05,3.51,2.64,6.47,1.28
		c-1.92-4.58-5.07-8.27-7.9-11.95c-5.94-7.74-9.81-16.59-14.58-24.95c-3.71-6.49-7.38-13.01-11.38-19.32
		c-1.97-3.11-3.51-6.38-5.18-9.63c-3.79-7.39-7.68-14.78-12.27-21.69c-5.08-7.65-9.05-15.88-13.69-23.76
		c-0.74-1.25-1.17-2.42-0.24-3.68c1.06-1.45,2.48-1.51,4.01-0.84c4.42,1.92,8.94,3.6,13.03,6.24c14.98,9.65,29.51,19.95,43.7,30.7
		c5.82,4.41,11.16,9.48,16.71,14.25c10.1,8.67,19.81,17.77,29.04,27.36c12.23,12.71,24.24,25.63,35.43,39.3
		c0.91,1.11,1.47,2.65,3.24,2.81c2.14-1.59,1.36-4.08,1.63-6.04c0.71-5.24,2.09-10.38,2.34-15.7c0.23-4.95,0.58-10.03,5.65-13.87
		c9.46,10.03,13.64,22.91,19.45,34.82c5.75-2.87,6.51-4.67,3.96-9.99c-6.11-12.75-13.48-24.74-21.01-36.71
		c-5.32-8.46-10.92-16.7-16.79-24.74c-5.48-7.51-11.33-14.74-17.41-21.82c-8.13-9.46-17.12-18.11-25.11-27.63
		c-8.07-9.62-17.16-18.05-26.51-26.3c-9.98-8.8-20.14-17.32-32.48-22.75c-5.45-2.4-10.83-4.26-16.64-0.75
		c-2.03,1.23-4.66,0.54-6.88,0.15c-7.52-1.33-14.77-3.54-22.03-6.04c-9.9-3.4-18.41-9.2-27.12-14.46
		c-8.76-5.29-16.64-12.11-21.38-21.84c-3.52-7.23-2.1-17.33,4.19-22.36c3.95-3.16,9-3.35,13.81-3.37
		c17.31-0.08,32.85,5.93,47.76,14.15c12.19,6.73,22.38,15.84,29.6,27.54c3.27,5.31,7.66,8.59,11.88,12.64
		c13.61,13.05,29.76,23,43.1,36.31c10.03,10,19.67,20.34,28.47,31.46c2.89,3.65,5.91,7.2,8.89,10.77
		c7.03,8.44,13.73,17.15,20.25,25.97c13.08,17.7,23.32,37.11,32.83,56.9c0.58,1.2,1.1,2.43,1.75,3.59c2.52,4.56,4.11,4.79,8.66,2.03
		c6.11-3.71,11.83-8.06,18.26-11.24c1.75-0.87,3.55-2.27,5.51-0.6c1.72,1.47,0.78,3.35,0.55,5.13c-1.24,9.69-3.53,19.29-2.8,29.48
		c4.18-1.16,6.07-6.03,10.92-6.05c2.18,3.33,1.03,6.5-0.77,9.6c-3.43,5.91-6.2,12.13-8.84,18.41c-0.51,1.22-0.95,2.5-1.24,3.79
		c-0.27,1.18-0.14,2.39,1.13,3.01c1.1,0.53,1.77-0.26,2.59-0.88c7.58-5.67,14.86-11.71,23.71-15.54c5.18-2.24,9.24-6.49,14.29-9.1
		c1.67-0.86,3.18-1.82,5.8-0.35c-0.91,6.34-4.43,12.15-5.91,19.42c7.22-0.74,13.9-3.37,21.35-2.09
		c-2.55,6.82-7.22,12.22-10.73,18.43c1.77,1.83,3.88,3.2,5.12,5.44c0.83,1.5,2.4,2.28,4.02,2.79c7.32,2.28,14.13,5.81,21.19,8.74
		c6.81,2.83,12.84,7.04,18.65,11.47c7.39,5.64,15.1,10.87,21.31,17.98c8.47,9.71,15.8,20.09,21.06,31.92
		c5.44,12.24,9.04,25.03,11.56,38.12c1.61,8.35,1.87,16.88,1.06,25.37c-0.3,3.13-2.56,5.77-2.7,8.69
		c8.61,7.79,19.83,11.71,27.52,20.14c-0.92,2.9-2.86,3.03-4.95,3.07c-2.32,0.04-4.68,0.05-6.96,0.46c-3.41,0.62-4.37,3.62-1.99,6.08
		c5.21,5.38,10.59,10.6,15.77,16c3.1,3.23,5.98,6.68,8.91,10.07c0.54,0.62,0.92,1.39,0.44,2.99c-6.95-0.14-13.94-1.45-21.46-3.18
		c1.71,4.87,6.76,7.06,7.29,12.27c-5.14,0.52-9.18-2.36-14.19-2.99c1.25,4.06,4.23,6.06,6.38,8.58c8.2,9.61,16.69,18.99,24.41,29.01
		c1.28,1.67,2.15,3.8,4.43,4.57c1.38,0.47,1.55,1.65,1.26,2.87c-0.37,1.53-1.7,1.43-2.84,1.37c-4.08-0.22-7.42-2.74-11.28-3.71
		c-3.34-0.84-6.23-3.02-9.55-3.64c-0.84,0.83-1.06,1.71-0.65,2.46c1.26,2.32,3.02,4.38,0.5,7.16c-0.9,0.99,0.72,2.38,1.36,3.48
		c2.09,3.59,4.69,6.9,5.99,10.91c3.8,11.71,2.33,22.88-3.21,33.76c-3.48,6.84-8.24,12.29-14.94,16.1c-1.68,0.96-3.53,1.92-4.86,4.1
		c3.69,8.16,7.17,16.68,8.48,26.55c-6.78-0.65-12.65-2.44-18.37-6.07c1.08,11.42,4.87,22.18,6.97,34.31
		c-7.16-2.36-10.59-8.05-15.63-11.64c-2.05,2.42-0.5,6.06-2.94,8.39c-3.76-1.85-7.3-3.89-10.83-6.41
		c1.82,13.71,4.47,27.08,5.67,40.92c-7.18-3.74-11.13-10.52-16.41-16.56c-0.39,4.59-2.55,8.49-3.41,12.69
		c-2.03,9.94-3.58,19.97-5.27,29.98c-0.22,1.3,0.05,2.84-1.71,3.17c-1.43,0.27-1.99-0.97-2.62-1.93c-2.15-3.28-5.11-6.09-5.6-10.15
		c-2.84-0.62-3.15,1.65-4.07,3.07c-2.81,4.33-4.67,4.47-7.77,0.27c-3.17-4.29-5.42-9.13-7.7-13.92c-0.77-1.62-1.3-3.34-2.8-4.81
		c-3.23,2.59-3.11,7.2-6.15,9.29c-2.25,0.26-2.82-1.94-4.33-2.47c-1.33,1.32-0.6,2.6-0.24,3.8c0.95,3.21,1.75,6.52,1.71,9.81
		c-0.05,4.18,1.99,6.32,5.46,7.9c9.72,4.43,19.54,8.29,30.39,9.09c5.6,0.42,11.19,1.5,16.58,3.27c1.77,0.58,3.57,0.72,5.4,0.9
		c11.02,1.06,19.84,6.52,27.26,14.29c7.32,7.67,7.8,17.12,6.57,27.12c-1.04,8.41-4.8,14.74-11.09,20.35
		c-5.51,4.92-10.47,10.53-18.14,11.64c-4.96,0.72-9.92,1.47-14.9,2.14c-0.98,0.13-2.02-0.06-2.95,0.19
		c-8.66,2.38-17.43,1.67-26.2,1.02c-5.6-0.42-11.25-0.7-16.82-1.17c-6.18-0.51-12.36-2.57-18.24-4.75
		c-9.49-3.53-19.11-6.76-28.33-11c-11.66-5.37-23.15-10.96-31.79-20.99C522.71,780.19,519.03,777.61,516.68,774.37z"/>
</g>
</svg>
