<?xml version="1.0" encoding="utf-8"?>
<!-- Generator: Adobe Illustrator 24.0.2, SVG Export Plug-In . SVG Version: 6.00 Build 0)  -->
<svg version="1.1" id="Layer_1" xmlns="http://www.w3.org/2000/svg" xmlns:xlink="http://www.w3.org/1999/xlink" x="0px" y="0px"
	 viewBox="0 0 860.19 668.84" style="enable-background:new 0 0 860.19 668.84;" xml:space="preserve">
<g>
	<path d="M183.66,551.22c-5.24-1.25-9.82,1.17-14.63,1.14c-1.56-0.01-2.09,1.44-2.99,2.38c-6.62,6.95-8.64,8.4-16.72-0.35
		c-2.44-2.64-4.79-4.34-8.43-4.36c-2.31-0.01-4.84,0.02-6.9-0.86c-8.49-3.62-16.85-1.43-25.25,0.07c-4.86,0.87-7-1.15-6.28-5.96
		c0.7-4.74,3.35-8.69,5.4-12.83c1.37-2.76,2.31-5.48,2.51-8.48c0.12-1.85,0.33-3.75,1.2-5.33c2.62-4.75,0.81-8.76-2.22-12.23
		c-9.59-10.99-15.32-24.07-20.79-37.32c-0.44-1.07-0.96-2.27-0.87-3.35c0.29-3.39-1.51-5.63-3.7-7.79c-2.9-2.85-4.16-6.77-2.18-9.99
		c3.45-5.6,3.37-11.68,4.1-17.69c2.01-16.46,6.19-32.32,12.88-47.5c2.82-6.4,6.81-12.11,11.46-17.8c-3.23-1.99-2.34-4.72-1.79-7.75
		c1.82-9.98,4.29-19.78,6.78-29.6c0.32-1.26,0.77-2.58-0.23-3.84c-2.35,0.15-2.72,2.22-3.44,3.78
		c-4.69,10.11-9.32,20.25-13.92,30.41c-4.76,10.53-7.36,12.06-18.69,10.6c-5.29-0.68-10.56-1.48-15.83-2.24
		c-2.46-0.36-4.87-0.88-6.88-2.35c2.66-8.7,7.96-15.88,11.23-24.22c-2.18-0.96-2.95,0.59-3.94,1.52
		c-7.2,6.75-12.83,14.87-19.49,22.1c-2.14,2.33-4.28,3.5-7.4,2.8c-6.77-1.53-13.43-3.42-20.51-6.08c3.98-4.37,8-8.18,10.33-13.5
		c-8.71,2.17-16.79,5.89-25.58,8.1c-1.75-4.31-0.35-8.45-0.55-12.49c-0.22-4.48,0.31-9,0.08-13.48c-0.19-3.76,1.29-6.03,4.73-7.16
		c13.32-4.37,25.49-11.42,38.46-16.59c1.6-0.64,1.59-0.67,3.03-3.21c-8-1.65-16.3-0.91-24.04-4.1c-0.22-3.6,2.59-5.64,4.34-8.04
		c8.64-11.84,9.52-12.08,23.85-10.66c6.95,0.69,13.94,1.06,20.91,1.55c0.44,0.03,0.89-0.22,1.56-0.4c-1.08-1.49-3.1-1.61-4.1-3.8
		c5.54-7.46,15.07-10.67,21.35-17.6c-1.01-2.14-3.05-2.2-4.63-2.93c-2.07-0.96-2.37-2.31-0.93-3.9c4.16-4.58,9.14-8.25,13.86-12.21
		c1.02-0.85,2.19-0.31,3.32,0.06c10.58,3.45,21.59,5.56,31.8,10.17c0.75,0.34,1.57,0.58,2.81-0.01c-0.71-2.52-3.17-3.44-4.8-5.03
		c-1.21-1.17-2.7-2.19-2.1-4.14c0.55-1.76,2.36-1.92,3.74-1.98c8.34-0.35,16.52-1.88,24.77-2.92c1.81-0.23,3.18,0.66,4.66,1.46
		c8.02,4.33,16.06,8.61,24.4,12.59c-2.76-6.82-10.58-9.59-13.46-16.81c3.88-1.27,7.53-2.52,11.52-2.75
		c5.96-0.33,11.99-0.02,17.87-1.36c2.36-0.54,3.72,1.2,5.21,2.38c2.85,2.26,5.56,4.71,9.48,6.62c-0.81-3.84-4.23-5.4-5.36-8.54
		c1.95-1.25,3.93-2.2,6.04-2.44c9.41-1.07,18.7-3.27,28.29-2.74c2.39,0.13,4.07,0.67,5.44,2.67c1.02,1.49,2.43,2.72,4.01,4.44
		c1.92-2.51,4.17-2.71,6.94-2.44c3.45,0.34,6.98,0.08,10.46,0.5c3.19,0.38,5.49-0.78,6.74-4.31c-5.3-3.14-11.27-4.56-17.03-6.36
		c-3.66-1.14-7.27-2.32-10.76-3.93c-4.47-2.07-5.41-3.49-4.72-8.4c0.18-1.27,0.86-2.57-0.56-3.91c-2.79,0.9-3.8,3.93-6.25,5.66
		c-11.15-3.82-22.6-7.2-33.79-11.43c-11.23-4.25-22.05-9.33-33.5-15.34c-0.61-0.59,0.15-2.55-0.8-3.93
		c-6.43,1.33-10.23-4.23-15.83-5.45c8.86-28.32,30.42-45.77,51.54-63.49c-1.48-1.62-2.55-0.67-3.46-0.18
		c-12.87,6.99-25.99,13.56-38.47,21.19c-13.61,8.32-26.93,17.2-38.72,28.13c-4.84,4.49-7.26,3.77-8.87-2.64
		c-3.34-13.36-2.13-26.78,0.03-40.16c0.37-2.3,2.3-3.65,3.85-5.08c1.79-1.65,2.92-3.39,3.4-5.85c2.11-10.75,9.26-17.67,18.05-23.35
		c17.1-11.04,34.99-20.5,54.07-27.62c8.44-3.15,17.21-5.04,26.07-6.53c3.92-0.66,7.62-2.45,11.73-2.12
		c1.31,0.11,2.33-0.59,2.82-1.71c1.75-4.01,5.59-5.75,8.91-7.74c12.41-7.46,25.23-14.23,38.89-19.1C297.69,10,308.74,8.31,319.7,6.3
		c10.3-1.89,20.91-1.43,30.98-4.44c-0.97-1.02-2.76,0.13-3.89-1.17c9.37-1.67,18.61,0.17,27.89,0.43c-2.96,0.14-5.92,0.28-8.89,0.42
		c23.59-0.07,39.91,13.35,54.74,29.5c3.43-1.67,4.31-4.89,5.97-7.45c4.05-6.26,5.55-6.49,10.89-1.3c2.25,2.19,4.22,4.68,6.74,6.33
		c0.57-0.1,1-0.04,1.18-0.23c14.44-14.56,32.73-19.55,52.39-21.18c2.32-0.19,4.6-0.72,6.91-1.03c9.03-1.22,17.71,0.04,26.62,2.09
		c18.59,4.27,36.36,10.67,53.72,18.3c11.12,4.89,20.36,12.57,28.41,21.57c2.88,3.22,6.29,4.85,10.24,5.41
		c21.62,3.09,42.05,10.23,61.84,19.01c15.06,6.68,27.96,16.33,36.9,30.9c4.38,7.14,8.44,14.29,11.32,22.11
		c0.97,2.63,3.29,5.82-2.14,7.43c8.25,8.35,3.87,16.8,1.28,25.08c-1.08,3.43-2.87,3.84-5.59,1.69
		c-10.26-8.08-21.59-14.39-33.24-20.17c-2.24-1.11-4.4-2.3-7.73-0.89c1.85,1.88,3.32,3.57,4.99,5.02
		c6.2,5.41,11.4,11.63,15.66,18.67c2.35,3.89,2.23,4.96-0.46,8.8c-2.52,3.6-6.04,6.2-8.8,9.51c-2.16,2.6-4.43,2.56-7.03,1.07
		c-1.9-1.09-3.77-2.1-5.82-0.91c-0.82,2.08,0.73,2.99,1.45,4.21c2.07,3.53,1.73,5.01-1.89,6.67c-18.26,8.39-36.05,17.83-55.23,24.15
		c-7.56,2.49-14.75,6.03-22.71,7.45c-3.91,0.7-6.74-0.15-9.31-3.07c-1.33-1.51-2.39-3.79-5.16-3.36c-2.83,2.83,4.13,8.09-2.87,9.66
		c1.52,1.83,2.73,3.29,4.26,5.12c2.52-4.77,6.41-4.63,10.79-4.12c5.44,0.63,10.97,0.56,16.46,0.76c1.82,0.07,3.65-0.05,5.25,0.48
		c1.39,1.99-0.27,3.66-0.26,5.34c0.46,0.18,0.83,0.46,1,0.37c8.93-4.86,18.27-3.87,27.54-1.62c4.23,1.03,8.57,0.94,12.48,1.74
		c1.67,1.44,0.37,3.13,0.72,3.87c0.66,1.15,1.22,1.02,1.64,0.86c6.13-2.38,12.19-2.18,18.58-0.63c9.51,2.31,19.19,3.92,28.81,5.82
		c0.71,0.14,1.2,0.52,1.68,1.23c-1.19,3.35-5.66,3.35-7.26,7.15c4.99-1.24,9.65-2.31,14.27-3.56c2.19-0.59,4.19-0.43,6.32,0.32
		c13.95,4.93,27.93,9.75,41.14,16.54c2.33,1.2,4.72,2.27,6.33,4.92c-4.6,2.29-9.53,2.57-15.02,4.8c8.29,4.64,17.29,4.29,24.91,8.04
		c7.61,3.74,15.9,5.86,23.7,9.22c7.94,3.43,16.08,6.41,24.15,9.53c7.84,3.03,15.46,6.65,23.54,8.38c0.52,3.22-1.48,4.59-2.96,5.96
		c-5.26,4.86-10.73,9.48-16.08,14.25c-2.19,1.95-4.15,2.49-7.1,0.97c-7.39-3.8-15.48-6.1-22.68-10.37
		c-0.56-0.33-1.21-0.56-2.66,0.38c12.7,9.85,25.17,19.52,37.56,29.13c-0.39,0.77-0.5,1.26-0.69,1.3
		c-8.18,1.61-15.64,5.48-23.71,7.52c-4.54,1.15-7.93,0.3-11.42-2.63c-4.71-3.96-9.74-7.54-14.66-11.25
		c-1.01-0.76-2.04-1.58-4.05-1.77c3.99,6.3,9.46,10.62,14.19,16.4c-4.3,1.43-7.86,0.8-11.08,0.6c-5.79-0.36-11.6-0.88-17.4-1.08
		c-3.03-0.1-5.41-1.05-7.57-3.14c-4.79-4.63-9.26-9.54-13.4-14.75c-2.7-3.39-5.51-6.64-9.24-9.13c2.18,6.98,8.19,11.94,10.59,18.98
		c-2.7,2.25-5.88,1.74-8.68,2.38c-4.23,0.97-4.73,1.53-1.92,4.91c9.66,11.63,16.67,24.89,23.48,38.21
		c7.52,14.7,10.79,30.24,10.48,47.11c-0.26,14.13-4.64,26.83-9.29,39.43c-2.91,7.9-9.02,14.67-14.02,21.73
		c-3.16,4.46-6.6,8.71-10.72,12.46c-2.96,2.69-4.02,6.81-4.9,10.76c-0.38,1.71,0.54,2.8,1.47,4.02c3.9,5.15,5.59,11.14,6.85,17.68
		c-3.65,1.17-7.03,1.07-10.45,0.18c-0.48-0.13-0.93-0.37-1.39-0.56c-5.47-2.17-10.53-2.96-16.65-0.64
		c-6.88,2.61-13.56,5.41-19.71,9.32c-5.41,3.44-10.31,2.55-15.27-0.66c-1.93-1.25-3.89-2.47-6.24-3.97
		c-2.59,5.61-5.91,10.54-9.86,15.04c-1,1.14-0.56,2.51-0.53,3.83c0.2,8.62-6.97,17.37-15.61,19.04c-0.84,0.16-1.6,0.36-2.19,1.02
		c-3.11,3.48-7,6.54-9.12,10.54c-2.47,4.68-6.39,7.87-9.52,11.82c-4.35,5.5-8.17,11.33-11.68,17.37c-1.76,3.02-3.27,6.17-5.64,8.8
		c-1.88,2.09-2.76,4.62-2.38,7.39c0.53,3.85-0.38,7.63-0.33,11.47c0.05,3.75-1.9,4.9-5.58,3.75c-6.12-1.91-11.58-5.01-16.29-9.34
		c-1.31-1.2-2.41-1.85-4.37-1.53c-8.38,1.4-16.86,1.74-25.34,1.74c-1.04,0-2.14-0.01-2.8,0.74c-3.59,4.07-8.6,6.13-12.88,9.22
		c-3.08,2.22-4.27,3.06-5.5,3.03c-0.88-3.17-2.85-5.73-4.81-8.27c-1.23-1.59-2.52-3.12-3.19-5.04c-1.03-2.96-3.16-4.52-6.12-5.3
		c-5.48-1.46-11.22-2.75-15.83-5.92c-4.74-3.25-8.37-3.41-13.33-0.52c-3.6,2.1-8.06,3.03-12.34,3.81c-4.09,0.75-5.72-0.52-4.94-4.57
		c0.75-3.92,2.1-7.73,3.96-11.28c1.7-3.24,3.28-6.61,5.48-9.5c4.93-6.5,5.57-14.26,6.14-21.77c0.53-6.86,1.85-13.51,3.12-20.2
		c0.55-2.9,0.74-5.54-1.19-8.2c-17.64,4.5-35.34,1-53.01,0.65c-12.33-0.24-24.63-0.09-36.92,1.07c-5.1,0.48-10.25,0.49-15.38,0.5
		c-8.14,0.01-16.27,0.12-24.4-0.94c-8.77-1.14-16.74-4-24.19-8.73c-3.59-2.28-7.57-3.95-11.1-5.75c-1.26,0.68-1.6,1.39-1.72,2.27
		c-1.83,12.84-6.6,24.69-12.37,36.16c-1.2,2.38-1.82,4.31-0.79,6.98c0.87,2.27,0.75,4.91,1.08,7.38c0.3,2.28-0.7,3.48-2.99,3.61
		c-1.5,0.09-3.16,0.4-4.42-0.41c-5.89-3.8-11.53-0.97-17.24,0.43c-4.33,1.07-8.43,2.97-12.89,3.51c-4.02,0.49-5.73,3.78-7.92,6.36
		c-4.04,4.76-5.01,5-10.32,1.57c-3-1.93-5.55-4.26-7.28-7.4c-1.78-3.22-4.6-4.81-8.15-4.88c-3.02-0.06-5.9-0.99-8.78-1.54
		c-6.93-1.32-13.4,0.05-19.99,1.64c-6.42,1.55-8.55-0.38-7.09-6.94c1.04-4.68,2.37-9.03,1.53-14.07c-0.76-4.56-2.38-8.26-5.5-11.41
		C198.98,572.76,191.43,562,183.66,551.22z M548.88,217.35c-2.11,2.69-5.18,2.48-6.8,5.09c4.84,1.42,9.51-3.74,13.89,1.08
		c-0.34-5.15-21.19-38.72-31.93-53.11c-12.28-16.45-25.21-32.22-41.28-45.21c0.09,3.95,3.73,6.19,4.18,9.94
		c-0.41,0.27-0.79,0.58-1.23,0.79c-0.61,0.3-1.19,0.59-1.36,1.74c10.06,20.93,15.12,43.21,12.55,66.79
		c2.27,0.61,3.04-2.01,5.17-1.34c0.97,0.75,2.11,1.73,3.35,2.56c9.71,6.57,6.62,6.69,16.57,1.55c2.69-1.39,5.92-3.27,8.94-1.84
		C537.37,208.45,542.76,213.17,548.88,217.35z M370.73,136.47c-1.32-2.89-3.36-2.44-6.01-0.54c-13.74,9.85-25.71,21.61-37.27,33.85
		c-10.99,11.64-17.87,26.02-26.63,39.14c-0.25,0.38-0.35,0.95,0.42,1.45c0.44,0.36,1.11,0.11,1.62-0.29
		c3.29-2.6,7.19-4.17,10.67-6.43c2.15-1.39,4.18-1.73,6.6-1.03c4.15,1.2,8.4,2.1,12.52,3.39c2.77,0.86,4.82,0.5,6.46-2.02
		c1.46-2.24,3.44-4.04,5.28-5.96c2.6-2.73,5.03-3.53,8.12-0.85c1.24,1.08,2.74,1.98,4.93,0.5
		C356.57,176.53,362.01,156.43,370.73,136.47z"/>
</g>
</svg>
