<?xml version="1.0" encoding="utf-8"?>
<!-- Generator: Adobe Illustrator 24.0.2, SVG Export Plug-In . SVG Version: 6.00 Build 0)  -->
<svg version="1.1" id="Layer_1" xmlns="http://www.w3.org/2000/svg" xmlns:xlink="http://www.w3.org/1999/xlink" x="0px" y="0px"
	 width="724.32" height="758.68" viewBox="0 0 724.32 758.68" style="enable-background:new 0 0 724.32 758.68;" xml:space="preserve">
<g>
	<path d="M474.84,551.6c-1.39,11.43-4.17,22.13-2.94,33.14c0.33,2.96,0.01,5.88,0.2,8.81c0.66,10.51,5.5,19.03,11.45,27.15
		c4.97,6.78,9.28,13.86,10.4,22.36c0.84,6.44,0.9,12.93,0.47,19.43c-0.86,13.17-4.01,25.96-8.28,38.28
		c-3.65,10.54-5.85,21.74-12.65,31.2c-2.43,3.38-3.4,7.87-7.14,10.47c-1.09,0.76-2.09,1.81-3.31,2.19
		c-8.64,2.74-17.44,4.54-26.51,2.68c-5.69-1.17-11.13-2.72-15.84-6.75c-4.09-3.5-5.19-7.53-4.78-12.34
		c0.41-4.75,2.18-9.21,5.11-12.85c7.12-8.83,8.62-19.35,9.34-30.01c0.54-7.96,0.13-15.99,0.29-23.98c0.05-2.4-1.03-4.21-2.4-5.85
		c-2.66-3.2-5.27-6.49-8.32-9.3c-7.18-6.64-14.6-13.03-21.71-19.33c-1,0.12-1.46,0.62-1.35,1.02c2.25,8.64,1.79,17.36,1.01,26.11
		c-1.15,12.94-3.84,25.61-6.69,38.23c-1.42,6.28-3.76,12.3-6.88,18.04c-2.58,4.74-6.14,7.84-10.83,10.53
		c-12.4,7.11-25.15,6.44-38.15,2.87c-4.39-1.21-8.17-3.57-10.54-7.83c-2.08-3.75-2.43-7.43-1.11-11.5
		c1.59-4.95,3.53-9.56,7.35-13.35c3.23-3.21,4.89-7.5,6.23-11.82c4.08-13.14,6.01-26.57,5.29-40.35
		c-0.42-8.02-2.35-15.37-8.04-21.45c-4.89-5.22-9.49-10.71-13.01-17c-1.59-2.84-3.68-3.73-7.07-2.78
		c-4.43,1.25-9.03,2.04-14.06,2.05c-0.42,4.87-0.15,9.68-0.77,14.43c-1.84,14.01-2.51,28.14-3.9,42.18
		c-1.03,10.39-1.77,20.81-2.9,31.17c-1.15,10.5-4.55,20.63-7.02,30.91c-1.99,8.29-5.08,16.07-9.66,23.29
		c-6.35,10.01-15.59,14.88-27.11,16.61c-6.36,0.95-12.6,0.03-18.89,0.11c-1.34,0.02-2.62-0.18-3.84-0.88
		c-6.16-3.6-12.66-6.79-15.69-13.94c-1.25-2.95-3.18-3.16-6.04-1.82c-6.78,3.16-13.88,4.08-21.37,2.7
		c-6.02-1.11-12.18-1.18-17.53-5.01c-5.47-3.91-7.95-8.62-6.61-15.38c0.76-3.81,2.06-7.38,3.72-10.83
		c5.09-10.58,4.61-21.57,2.92-32.77c-3.13-20.65-10.25-40.16-16.77-59.86c-2.93-8.85-4.86-17.94-6.68-27.07
		c-1.84-9.29-4.14-18.49-6.32-27.71c-3.41-14.47-5.85-29.08-5.23-43.99c0.6-14.47,1.29-28.94,2.52-43.37
		c0.62-7.24,2.1-14.47,3.93-21.51c2.56-9.84,4.88-19.66,5.59-29.83c0.18-2.65,0.78-5.27,1.12-7.91c1.13-8.79-0.87-12.95-8.79-17.09
		c-9.28-4.86-18.65-9.54-28.08-14.11c-13.01-6.31-25.61-13.34-37.85-21.01c-18.15-11.38-33.06-26.16-45.69-43.39
		c-4.15-5.66-8.31-11.31-11.22-17.66c-6.93-15.13-12.93-30.49-12.15-47.71c0.16-3.46,1.08-6.41,2.09-9.49
		c1.31-3.95,4.12-6.55,8.14-7.34c6.66-1.31,12.36-4.9,18.42-7.54c3.95-1.72,7.85-3.74,11.89-5.13c7.63-2.63,13.34-7.31,17.62-14.29
		c-2.34-5.3-4.83-10.73-4.65-16.89c0.04-1.45-1.16-2.34-1.95-3.39c-6.44-8.59-7.45-18.2-5.32-28.4c1.83-8.75,5.08-16.8,11.51-23.27
		c0.95-0.96,0.94-1.97,0.38-3.18c-4.15-9.02-4.92-18.84-6.64-28.43c-1.41-7.84-3.01-15.75-1.82-23.75c0.66-4.47-0.7-8.86,0.12-13.31
		c1.11-6.03,2.54-7.08,8.74-6.7c7.44,0.45,13.55,4.41,20.05,7.29c3.94,1.75,7.8,3.78,11.17,6.57c0.76,0.63,1.62,1.2,3,0.91
		c1.61-2.13,1.6-5.08,2.86-7.58c4.27-8.46,9.73-15.76,17.54-21.28c3.37-2.38,4.17-6.67,6.11-10.07
		c6.16-10.79,14.69-18.94,25.94-23.98c9.74-4.37,22.94-2.46,32.33,6.38c1.15,0.15,1.87-0.47,2.41-1.38
		c7.14-11.89,18.51-17.8,31.11-21.94c14.09-4.63,26.91-0.59,39.27,5.97c10.28,5.46,18.87,12.91,25.97,22.19
		c4.87,6.37,11.23,9.98,19.64,10.09c12.16,0.17,20.63,6.93,26.38,17.01c2.03,3.55,3.34,6.06,8.05,7.23
		c9.72,2.41,17.43,8.86,24.29,16.04c8.8,9.21,14.39,20.17,17.09,32.65c1.93,8.89,0.45,17.46-2.01,26.41
		c7.48,2.04,14.92,4.28,22.46,6.08c7.38,1.76,14.21,4.72,20.58,8.69c5.22,3.26,7.22,10.81,4.9,18.48c-1.93,6.36-4,12.72-6.62,18.81
		c-8.63,20.08-20.75,37.85-36.4,53.15c-10.48,10.25-21.16,20.3-32.61,29.49c-4.94,3.97-9.85,7.95-15.62,10.71
		c-3.63,1.74-5.99,4.62-7.45,8.35c-8.25,21.08-19.5,40.41-33.79,57.98c-6.41,7.88-12.61,15.93-19.19,23.69
		c-8.22,9.69-8.67,21.13-1.43,31.72c6.61,9.66,15.43,16.33,26.94,19.16c0.29,0.07,0.64-0.13,1.32-0.29
		c0.8-3.86,2.02-7.72,4.17-11.35c4.03-6.78,9.86-10.63,17.43-12.19c4.03-0.83,4.73-1.62,4.49-5.67c-0.22-3.64-1.17-7.12-2.15-10.67
		c-2.81-10.19-0.51-20.11,2.75-29.85c2.68-8,9.04-13.04,15-18.32c9.11-8.06,19.96-12.44,31.94-14.02c2.95-0.39,5.38-1.5,7.6-3.39
		c7.2-6.1,15.27-9.8,24.97-9.84c3.07-0.01,5.75,1.35,8.77,1.46c1.89-4.49,1.53-9.32,3.1-13.7c3.56-9.95,10.25-17.44,18.76-23.35
		c10.57-7.33,21.97-11.8,35.21-9.59c3.92,0.66,7.66-0.7,11.08-2.41c9.59-4.79,19.76-5.49,30.19-4.8c4.64,0.31,9.31,0.33,13.93,0.87
		c10.16,1.21,18.39,6.55,26.09,12.82c3.34,2.72,6.69,5.5,8.58,9.58c1.07,2.32,2.45,2.58,4.72,1.02
		c10.23-7.06,21.81-10.66,34.03-11.83c15.64-1.5,29.79,3.19,42.07,12.65c13.32,10.27,24.38,22.8,31.59,38.12
		c6.05,12.86,9.81,26.36,8.55,40.96c-0.47,5.44-0.13,10.96-1.42,16.33c-0.64,2.68,0.52,3.88,3.03,4.7
		c23.18,7.52,37.39,23.6,44.91,46.44c2.29,6.94,2.51,13.59,1.19,20.58c-1.68,8.85-3.37,17.66-7.67,25.72
		c-2.64,4.94-2.32,9.68,0.2,14.74c5.86,11.75,2.61,24.88-7.73,32.88c-4.57,3.54-4.7,3.62-1.68,8.48
		c10.47,16.91,12.1,34.73,6.45,53.65c-4.82,16.15-16.23,24.52-31.86,28.03c-9.07,2.04-16.27,6.16-20.92,14.56
		c-7.63,13.78-19.13,22.36-35.01,24.31c-4.22,0.52-7.32,2.38-10.33,5.33c-12.05,11.82-26.42,15.82-43.09,12.79
		c-8.13-1.48-15.68-4.13-23-7.75c-6.33-3.12-10.53-8.61-15.13-13.6c-6.78-7.36-9.08-16.46-9.35-26.19c-0.11-3.9-1.38-7.66-4.56-9.53
		c-10.44-6.12-13.32-16.04-14.64-26.93c-0.32-2.64-0.43-5.31-0.56-7.97c-0.41-8.26-4.16-14.63-11.02-19.13
		C488,555.89,481.63,554.08,474.84,551.6z"/>
</g>
</svg>
