<?xml version="1.0" encoding="utf-8"?>
<!-- Generator: Adobe Illustrator 24.0.2, SVG Export Plug-In . SVG Version: 6.00 Build 0)  -->
<svg version="1.1" id="Layer_1" xmlns="http://www.w3.org/2000/svg" xmlns:xlink="http://www.w3.org/1999/xlink" x="0px" y="0px"
	 width="860.99" height="655.38" viewBox="0 0 860.99 655.38" style="enable-background:new 0 0 860.99 655.38;" xml:space="preserve">
<g>
	<path d="M130.18,175.99c-0.46-2.84-2.11-4.58-3.31-6.55c-8.94-14.77-15.29-30.66-20.13-47.15c-1.54-5.25-2.83-10.72-3.1-16.15
		c-0.66-13.34,3.52-19.67,15.75-20.89c5.51-0.55,10.85-0.04,16.28,1.44c24.77,6.79,43.64,22.57,60.74,40.5
		c16.61,17.4,29.81,37.5,41.91,58.27c4.44,7.62,8.84,15.27,13.31,22.87c7.63,12.99,12.42,27.25,18.3,41.01
		c6.93,16.23,13.08,32.78,18.92,49.43c1.93,5.5,3.9,10.98,5.39,16.61c0.41,1.56,0.4,3.33,2.21,4.56c1.23-1.2,0.87-2.76,0.89-4.11
		c0.34-22.57,3.14-44.83,8.39-66.79c1.52-6.36,3.99-12.37,7.12-18.06c3.18-5.79,7.15-6.05,11.35-1.01c1.5,1.8,2.7,3.8,3.68,5.93
		c5.73,12.58,10.25,25.6,14.54,38.75c4.13,12.67,7.42,25.55,11.16,38.32c1.45,4.94,1.39,10.2,3.33,15.37
		c2.85,0.64,5.71,0.03,8.43-0.7c1.15-1.3,0.79-2.68,0.75-3.97c-0.67-19.52,0.14-39.02,2.6-58.36c1.93-15.18,4.62-30.31,9.5-44.92
		c1.44-4.3,3.52-8.27,5.86-12.11c2.17-3.57,5.41-4.28,8.95-2.08c2.44,1.52,4.19,3.7,5.81,6.08c7.79,11.47,11.89,24.46,15.98,37.5
		c3.38,10.77,6.41,21.62,8.26,32.39c2.1,0.97,3.13,0.3,3.91-0.96c8.12-13.15,17.37-25.69,23.49-39.95
		c5.55-12.94,11.41-25.76,16.89-38.74c6.51-15.41,10.47-31.51,15.21-47.38c2.98-9.97,3.92-20.55,5.73-30.87
		c0.11-0.6-0.19-1.27-0.34-2.19c-12.21,3.29-24.42,5.64-36.76,7.33c-17.85,2.45-35.75,4.4-53.77,2.48
		c-10.41-1.11-20.87-2.04-31.01-4.97c-9.34-2.71-18-6.82-25.92-12.44c-3.63-2.58-5.98-6.23-7.51-10.38
		c-2.49-6.76,0.63-13.79,8.19-17.76c7.1-3.74,14.66-6.39,22.56-7.88c12.64-2.38,25.33-3.07,38.21-1.92
		c6.77,0.61,13.57,1.03,20.36,1.62c8.74,0.77,16.8,4.02,25.27,5.72c13.87,2.78,27.46,6.74,40.74,11.7c0.74,0.28,1.56,0.62,2.75,0.04
		c-1.68-4.6-5.43-7.74-8.27-11.44c-5.26-6.85-10.79-13.41-14.85-21.16c-3.39-6.47-7.85-12.36-11.49-18.71
		c-5.05-8.79-9.95-17.69-11.78-27.86c-0.24-1.31-0.41-2.64-0.51-3.96c-0.38-5.12,1.9-7.33,6.97-7.23c5.55,0.1,10.36,2.27,15.01,4.93
		c11.02,6.3,21.3,13.67,31.21,21.59c0.78,0.62,1.44,1.4,2.45,1.5c1.79-0.49,1.57-1.95,1.78-3.24c1.22-7.65,3.54-14.91,8.02-21.31
		c1.38-1.97,2.74-4.8,5.61-4.34c3.01,0.48,3.17,3.7,3.59,6.01c2.13,11.63,4.44,23.34,3.72,35.19c-0.51,8.51,4.96,12.6,10.42,16.81
		c2.62,2.02,6.11,1.36,9.11,0.01c2.33-1.05,2.51-3.1,2.4-5.48c-0.75-16.35,0.42-32.57,3.54-48.66c0.55-2.85,2.37-5.07,2.86-7.79
		c1.63-0.77,2.96-0.65,4.19,0.59c7.45,7.47,12.07,16.51,15.05,26.55c6.43,21.68,9.6,43.85,10.44,66.4c0.02,0.47,0.18,0.94,0.37,1.87
		c4.65-2.05,9.21-3.91,13.65-6.04c12.54-6.01,26.16-8.7,39.25-13.04c12.76-4.23,25.76-7.69,38.55-11.85
		c8.04-2.61,16.45-4.13,24.84-5.47c5.09-0.81,10.16-2.06,15.23-2.67c14.27-1.7,28.6-1.34,42.39,3.13
		c5.79,1.88,11.06,5.22,15.68,9.54c8.32,7.78,6.64,16.21,2.95,23.16c-3.33,6.28-8.35,11.11-14.7,14.54
		c-13.77,7.45-28.43,11.75-43.92,14.15c-19.02,2.94-38.13,3.92-57.27,3.96c-19.15,0.04-38.25-1.88-57.36-3.12
		c-5.79-0.37-11.58-0.71-17.75-2.33c-0.84,4.99-1.99,9.5-1.83,14.12c0.64,19.31-2.82,38.19-6.5,56.94
		c-4.39,22.33-9.06,44.65-15.51,66.52c-3.2,10.85-7.05,21.49-11.02,32.08c-1.3,3.46-2.51,6.95-4.1,11.37
		c8.19-3.84,15-7.96,21.12-12.93c6.63-5.39,14.27-9.13,21.11-14.17c11.8-8.7,24.37-16.31,37.13-23.49
		c14.34-8.07,28.49-16.49,43.56-23.26c12.1-5.43,23.47-12.39,35.78-17.53c23.81-9.94,47.79-19.24,73-25.16
		c10.33-2.43,20.58-5.44,31.04-7.05c15.12-2.33,30.41-3.62,45.76-2.08c7.8,0.78,10.87,7.39,7.96,13.68
		c-1.55,3.35-3.36,6.48-5.63,9.4c-11.38,14.61-26.76,23.75-43.07,31.63c-0.74,0.36-1.47,0.72-2.15,1.06
		c0.07,1.35,0.96,1.41,1.76,1.35c5.81-0.44,11.18,1.69,16.63,3.05c6.42,1.6,7.85,5.2,6.21,11.72c-1.19,4.75-3.85,8.17-7.22,11.6
		c-13.58,13.82-30.5,22.49-47.52,30.86c-22.99,11.31-46.57,21.36-70.54,30.43c-15.22,5.76-30.52,11.31-45.96,16.47
		c-14.82,4.96-29.48,10.42-44.28,15.45c-11.8,4.01-23.74,7.62-35.56,11.56c-12.16,4.05-24.17,8.55-36.39,12.38
		c-11.09,3.48-22.37,6.34-33.29,9.39c-1.32,1.91-0.59,3.57-0.34,5.15c1.27,7.98-0.29,15.56-3.19,22.94
		c-0.62,1.57-0.98,3.16-1.33,4.79c-1.88,8.56-5.8,16.15-10.47,23.54c-4.72,7.46-9.73,14.71-14.76,21.95
		c-0.24,0.35-0.16,0.92-0.27,1.6c9.72-0.79,19.27-1.93,28.85-2.25c11.97-0.39,23.99-0.57,35.94,0.05c8.58,0.45,17.25,0.98,25.7,3.06
		c7.26,1.79,8.89,4.5,5.99,11.39c-6.32,15.02-13.79,29.47-21.31,43.93c-4.61,8.87-9.66,17.47-15.25,25.64
		c-7.11,10.42-14.86,20.47-23.62,29.64c-1.4,1.47-2.9,2.84-5.76,1.57c0-7.03,3.85-13.39,4.72-20.66c-1.75-1.72-3.99-3.01-6.77-4.21
		c-4.65,6.98-9.39,13.75-13.72,20.77c-1.49,2.41-2.93,4.9-4.71,7.02c-9.72,11.6-18.58,23.96-29.84,34.21
		c-2.95,2.69-6.02,5.24-9.1,7.79c-1.11,0.92-2.37,2.26-3.94,0.98c-1.62-1.32-1.69-3.1-0.86-4.98c2.33-5.32,4.72-10.63,6.9-16.01
		c2.8-6.92,3.5-5.39-2.69-10.55c-0.99-0.83-1.8-2.03-3.97-1.84c-20,27.05-46.49,47.24-75.46,64.5c-0.52,0.31-1.3-0.07-1.97-0.68
		c-0.91-2.31,0.11-4.29,1.4-6.32c4.29-6.75,8.59-13.51,13.55-19.78c1.84-2.32,1.66-3.78-0.13-6c-2.82-3.48-5.19-7.33-7.71-11.05
		c-0.64-0.95-1.29-1.97-0.87-3.51c6.43-1.27,12.83,1.58,19.89,1.04c-2-3.77-6.06-5.62-6.22-10.08c1.81-1.94,4.41-2.05,6.77-1.6
		c3,0.57,5.95-0.35,8.94,0.32c1.9,0.42,3.48-0.94,4.69-2.39c7.22-8.72,14.39-17.5,21.66-26.18c1.7-2.03,1.23-3.53-0.42-5.17
		c-10.92-10.84-19.44-23.67-29.15-35.5c-0.94-1.15-1.76-2.44-2.4-3.78c-2.34-4.92-5.85-7.02-11.55-6.35
		c-3.84,0.46-6.4,1.55-8.33,5.04c-6.22,11.25-15.2,20-25.1,28.12c-11.99,9.83-25.43,17.04-39.36,23.35
		c-11.88,5.38-24.61,8.04-37.71,8.49c-3.83,0.13-7.66,0.21-11.48,0.38c-3.3,0.15-5.21,1.73-5.51,5.12
		c-0.66,7.63-3.54,14.47-6.98,21.15c-0.94,1.82-1.94,3.75-4.25,3.7c-2.13-0.04-2.8-2.06-3.67-3.67c-1.44-2.67-2.27-5.54-2.93-8.47
		c-1.09-4.81-1.11-4.79-5.82-4.46c-10,0.7-19.57-0.73-28.5-5.58c-3.71-2.02-6.59-5.06-9.77-7.72c-0.76-0.64-1.36-1.5-2.87-1
		c-1.16,5,0.78,10.76-2.45,15.48c-1.99,0.08-2.94-1.16-3.9-2.25c-8.7-9.82-13.15-21.09-11.2-34.35c0.46-3.09-0.03-5.02-2.72-7.18
		c-13.98-11.22-23.77-25.49-28.63-42.79c-1.43-5.07-1.49-10.53-2.14-15.81c-0.1-0.8,0.16-1.67-0.75-2.18
		c-6.29,3.01-6.51,3.77-4.72,9.95c2.09,7.21,3.34,14.64,3.81,22.11c0.33,5.32,2.09,8.94,7.44,10.32c0.48,0.12,0.96,0.3,1.41,0.51
		c1.66,0.77,3.68,1.46,3.84,3.52c0.17,2.15-1.83,2.96-3.45,3.81c-0.88,0.47-1.87,0.8-2.64,1.4c-1.45,1.14-4.18,1.34-3.57,4.11
		c0.6,2.75,1.15,5.66,4.5,6.61c3.84,1.1,7.67,2.24,11.52,3.32c1.74,0.49,3.67,0.54,4.94,2.31c0.32,2.57-1.63,3.28-3.54,3.94
		c-3.14,1.09-6.25,2.39-9.49,3.1c-3.38,0.74-4.29,2.61-3.82,5.73c1.11,7.45,0.65,14.96,0.75,22.46c0.03,2.3,0.2,4.67-2.07,6.55
		c-3.08-1.91-5.19-4.63-6.91-7.61c-5.17-8.94-9.96-18.02-12.91-28.05c-1.54-5.23-3.88-10.24-5.51-15.5
		c-3.42-10.99-5.43-22.28-7.37-33.58c-1.21-7.05-3.09-13.96-4.02-21.08c-0.71-5.41,1.01-8.85,5.9-11.22
		c8.67-4.19,17.07-8.96,26.1-12.38c2.31-0.88,3.73-2.18,4.65-4.68c4.2-11.45,9.64-22.27,17.63-31.63
		c7.92-9.28,16.93-16.96,29.38-19.3c2.5-0.47,3.84-1.65,4.07-4.21c0.43-4.84,2.79-8.61,5.96-12.29
		c5.43-6.29,10.32-13.04,16.53-18.63c1.18-1.06,1.75-2.42,1.79-3.99c0.13-5.02,1.03-9.94,1.88-14.86c0.43-2.48-0.24-4.02-2.51-5.29
		c-11.61-6.46-23.02-13.32-34.75-19.54c-18.71-9.93-36.35-21.58-54.12-33.04c-5.87-3.79-12-7.41-17.11-12.09
		c-7.23-6.62-14.79-12.86-22.14-19.31c-13.67-12-26.05-25.23-38.45-38.44c-13.34-14.2-25.57-29.31-36.69-45.38
		c-5.42-7.84-10.35-15.85-14.56-24.36c-3.8-7.69-5.62-16.01-7.29-24.3c-1.23-6.09-0.36-12.44,4.87-16.42
		c3.85-2.92,8.55-4.89,13.68-5.43c11.66-1.24,22.52,1.82,33.04,6.2c23.5,9.79,45.47,22.21,65.02,38.67
		c3.95,3.32,7.78,6.78,11.68,10.15C128.98,175.96,129.39,175.89,130.18,175.99z M493.7,527.6c-0.97-0.57-1.49-1.01-2.09-1.22
		c-17.7-6-34.95-13-50.59-23.45c-1.41-0.94-2.71-1.15-4.13-0.13c-4.52,3.25-9.97,4.53-14.85,6.99c-3.3,1.66-7.16,2.09-10.57,4.49
		c7.56,7.48,15.93,13.18,23.79,19.52c11.89,9.59,23.16,19.79,33.04,32.19c0.14-0.01,1-0.25,1.78-0.09c4.01,0.84,6.1-1.02,7.51-4.62
		c1.52-3.86,3.71-7.45,5.27-11.3C485.92,542.42,490.43,535.58,493.7,527.6z M454.24,492.28c0.84,0.39,1.25,0.75,1.68,0.76
		c9.21,0.23,18.2,1.97,27.16,3.91c13.83,3,27.51,6.52,40.28,12.85c7.74,3.84,8.05,4.9,4.46,12.57c-0.21,0.44-0.51,0.88-0.03,1.67
		c2.51,0.92,4.38,0.51,5.57-2.53c4.19-10.69,8.38-21.38,13.38-31.73c0.18-0.38-0.03-0.95-0.08-1.92c-2.36,0-4.67,0.11-6.97-0.02
		c-22.01-1.26-43.62-5.25-65.1-10c-1.74-0.39-3.06-0.78-4.42,0.85C465.76,483.96,459.64,487.25,454.24,492.28z M458.63,580.64
		c2.87,0.38,5.54,1.81,9.15,0.93c-1.44-2.59-2.84-4.63-5.3-5.68C460.39,576.93,458.86,578.07,458.63,580.64z"/>
</g>
</svg>
