<?xml version="1.0" encoding="utf-8"?>
<!-- Generator: Adobe Illustrator 24.0.2, SVG Export Plug-In . SVG Version: 6.00 Build 0)  -->
<svg version="1.1" id="Layer_1" xmlns="http://www.w3.org/2000/svg" xmlns:xlink="http://www.w3.org/1999/xlink" x="0px" y="0px"
	 width="861.37" height="785.46" viewBox="0 0 861.37 785.46" style="enable-background:new 0 0 861.37 785.46;" xml:space="preserve">
<g>
	<path d="M799.06,490.05c-5.29-6.97-10.82-13.23-11.42-22.06c-0.19-2.86-2.54-4.53-3.22-7.19c-4.33-17.03-5.14-34.4-2.95-51.6
		c1.04-8.18,0.63-16.5,2.53-24.58c0.3-1.27,0.39-2.69,0.16-3.96c-0.51-2.9-2.76-3.83-5.12-2.02c-8.57,6.54-18.53,10.03-28.36,14.14
		c-13.97,5.84-28.46,9.1-43.1,12.2c-1.59,0.34-3.2,0.9-4.47,2.33c2.68,9,2.97,18.29,2.29,27.6c-0.96,13.3-6.68,23.55-19.39,29.08
		c-3.47,1.51-5.17,3.81-5.67,7.89c-1.23,9.99-4.96,18.93-13.12,25.56c-2.3,1.87-4,4.46-6.19,6.49c-5.44,5.02-9.01,4.17-12.19-2.61
		c-1.56-3.33-1.92-7.01-2.93-10.3c-1.61-0.91-2.78-0.21-4,0.32c-9.64,4.17-16.68,11.28-22.77,19.62
		c-6.51,8.93-11.22,18.87-16.45,28.52c-3.88,7.17-7.67,14.39-12.04,21.29c-3.57,5.64-8.17,9.95-14.11,13.06
		c-11.24,5.89-22.27,12.27-31.46,21.08c-12.02,11.52-23.69,23.44-32.72,37.61c-7.42,11.64-17.36,20.58-29.55,26.97
		c-4.54,2.38-7.99,5.64-10.84,9.97c-8.58,13.02-19.82,23.26-33.68,30.95c-5.93-3.05-10.45-7.57-13.76-13.26
		c-6.8-11.71-20.91-17.87-34.05-14.36c-5.58,1.49-9.5,6.01-14.24,9.04c-2.5,1.6-4.59,3.85-6.86,5.8
		c-5.98,5.15-9.59,11.66-12.07,19.14c-4.4,13.27-8.09,26.76-12.45,40.04c-2.12,6.47-5.3,12.46-8.23,18.59
		c-3.16,6.6-7.86,12.13-11.03,18.62c-0.9,1.83-3.14,1.75-3.67,0.73c-2.34-4.5-7.11-5.82-10.67-8.64
		c-13.72-10.87-25.47-23.6-34.94-38.17c-6.59-10.14-12.44-20.87-16.65-32.32c-0.87-2.36-2.19-3.85-4.43-5.01
		c-18.98-9.83-36.65-21.63-53.33-35.03c-9.24-7.42-18.53-14.72-26.15-23.86c-3.62-4.34-7.24-8.7-9.98-13.7
		c-0.95-1.73-2.61-3.37-1.41-5.46c1.3-2.27,3.75-1.9,5.87-1.77c8.51,0.54,16.88,2.01,25.05,4.46c18.68,5.6,36.99,12.21,54.42,21.01
		c5.79,2.92,11.41,6.19,17.1,9.31c4.31,2.36,4.68,2.3,7.57-1.91c6.35-9.23,11.23-19.26,15.87-29.42c0.69-1.51,1.49-3,1.98-4.58
		c1.99-6.3,6.27-9.52,12.81-10.07c1.93-0.16,4.01-0.26,5.76-1.75c0.32-2.99-0.85-5.82-1.42-8.71c-0.38-1.91-1.75-2.49-3.67-2.65
		c-7.33-0.61-14.64-0.18-21.97,0.14c-3.21,0.14-5.16,2.1-7.19,4.03c-7.13,6.77-13.65,14.08-19.84,21.71
		c-4.25,5.24-9.75,9.04-15.1,13.02c-2.32,1.72-4.45,1.45-6.98,0.37c-13.45-5.76-24.27-14.94-34.12-25.49
		c-1.91-2.05-4.53-3.44-6.38-5.53c-12.26-13.82-24.13-27.93-33.27-44.14c-3.78-6.7-7.16-13.55-9.84-20.72
		c-0.82-2.21-2.43-4.99-0.66-7.13c2.12-2.55,4.66,0.04,6.85,0.66c13.64,3.87,25.6,11.17,37.18,19.05
		c14.88,10.12,29.23,20.98,42.98,32.6c4.84,4.09,5.21,3.81,9.8-0.73c7.7-7.61,15.29-15.33,23.69-22.2c2.52-2.06,5.21-2.81,8.33-2.52
		c8.64,0.81,17.29,0.81,25.94,0.43c2.42-0.11,5.41,0.59,6.22-2.71c0.79-3.2-1.49-4.98-3.98-6.16
		c-12.01-5.66-22.59-13.51-32.79-21.82c-11.88-9.67-23.68-19.5-32.01-32.68c-0.85-1.35-2.55-2.57-1.53-4.41
		c1.06-1.93,3.16-1.39,4.94-1.63c4.63-0.61,8.79,1.58,13.19,2.3c13.95,2.26,27.63,5.57,40.82,11.05c8.44,3.5,17.08,6.52,25.27,10.61
		c5.5,2.74,10.96,5.56,16.36,8.47c1.92,1.03,3.68,1.21,5.7,0.41c12.17-4.79,24.75-5.95,37.76-4.96c13.49,1.02,26.48-1.93,39-6.82
		c5.51-2.15,11.03-3.4,17.02-3.22c17.2,0.51,34.14,3.25,51.13,5.58c6.94,0.95,13.9,1.89,20.88,2.01c8.53,0.14,15.87-3.37,22.02-9.2
		c5.45-5.17,11.14-10.03,17.22-14.45c7.08-5.15,13.08-11.34,17.83-18.7c5.32-8.25,10.48-16.61,15.42-25.1
		c1.46-2.51,1.75-4.91,0.99-7.63c-1.18-4.2-3.22-5.92-7.56-5.67c-6.31,0.35-12.37,2.16-17.05,6.34c-5.52,4.92-10.83,5.17-17.27,2.16
		c-5.85-2.74-12.02-4.85-18.49-5.87c-4.88-0.77-9.69-0.47-14.32,1.04c-4.13,1.35-7.2,4.14-8.64,8.38c-1.12,3.31-2.4,6.6-3.11,10.01
		c-0.94,4.53-3.8,7.22-7.54,9.37c-4.11,2.36-8.07,2.87-12.06-0.35c-2.33-1.88-4.88-3.48-7.33-5.21c-7.73-5.49-8.7-13.47-8.62-21.71
		c2.27-1.32,3.29-0.21,4.4,0.87c2.63,2.57,5.41,4.98,8.76,6.57c4.27,2.02,5.99,0.76,6.53-3.85c0.46-3.92-0.85-6.74-3.77-9.16
		c-5.26-4.37-10.99-8-16.65-11.42c-3.28,1.1-2.06,5.05-4.66,6.35c-3.49-0.96-2.77-5.12-5.44-6.99c-3.9,2.78-8.19,5.3-10.31,9.78
		c-2.01,4.25,0.38,9.17-1.13,13.87c-4.08-0.53-6.16-3.4-8.37-6.05c-5.48-6.56-6.78-13.88-3.97-21.97
		c3.74-10.79,10.51-18.34,22.05-20.84c1.25-0.27,2.03-0.96,2.66-2.03c3.3-5.67,8.95-8.24,14.54-10.87c2.64-1.24,5.22-0.85,7.57,0.81
		c4.08,2.87,8.2,5.7,12.16,8.72c2,1.52,3.33,3.7,4.35,6.02c1.07,2.44,2.3,4.81,3.26,7.3c1.57,4.1,4.04,6.02,8.81,6.41
		c9.15,0.76,17.66,4.67,26.55,6.85c5.96,1.46,11.78,3.67,18.23,3.37c1.73-1.76,0.92-4.32,1.61-6.48
		c3.28-10.39,8.21-19.99,13.87-29.24c4.59-7.49,9.68-9.27,19.82-5.69c4.33,1.53,7.91,4.22,11.34,7.16c0.85,0.73,1.59,1.69,2.67,1.75
		c1.41-1.01,0.69-1.97,0.32-2.81c-2.73-6.25-5.69-12.41-8.19-18.74c-2.44-6.16-6.97-10.11-12.67-12.8
		c-11.89-5.61-23.4-12.02-35.52-17.16c-3.93-1.67-7.05-4.42-9.25-8.1c-2.31-3.86-4.58-7.74-6.78-11.66
		c-5.98-10.64-8.32-12.8-20.07-18.31c-1.3,0.73-1.01,1.9-0.93,3.08c0.62,9.04-0.49,17.95-2.03,26.83c-0.09,0.49-0.22,0.98-0.37,1.45
		c-1.28,3.99-2.78,4.86-6.68,3.28c-5.11-2.07-9.8-4.94-13.98-8.56c-4.79-4.14-9.6-8.26-14.29-12.51c-2.22-2.01-4.51-2.62-7.31-1.52
		c-2.93,1.16-2.44,3.72-2.42,5.96c0.05,6.2-0.55,12.29-2.15,18.3c-0.79,2.98-2.24,3.68-5.09,2.62c-6.29-2.33-10.6-7.39-15.8-11.22
		c-0.93-0.69-1.83-1.5-2.51-2.43c-3.58-4.87-8.07-7.22-14.2-5.56c-0.77,0.21-1.66,0.05-2.49-0.05c-3.69-0.47-4.26-1.73-2.29-4.92
		c2.74-4.44,2.74-4.44-1.44-8.62c-2.45,5.93-2.48,12.1-3.99,17.89c-1.49,5.74-1.29,11.84-3.5,17.63c-3.15-0.84-4.76-2.97-6.61-4.83
		c-11.83-11.85-19.4-26.56-27.24-41.02c-2.3-4.23-4.99-5.98-9.73-5.98c-6.82,0-13.64-0.84-20.46-0.99
		c-11.05-0.25-21.16-3.56-30.98-8.42c-14.01-6.94-29.15-10.06-44.4-13.03c-20.67-4.03-41.13-1.93-61.66,0.61
		c-4.01,0.5-6.87,2.16-9.14,5.84c-10.93,17.74-25.7,31.78-42.88,43.38c-1.87,1.26-3.98,2.01-7.35,2.54
		c-0.93-4.61-0.41-9.2,0.35-13.72c2.97-17.78,9.19-34.35,18.8-49.64c2.86-4.55,2.74-4.48-1.89-7.61c-7.57-5.12-6.81-4.62-12.27,1.84
		c-4.19,4.96-8.42,9.89-12.52,14.92c-2.92,3.58-6.8,5.12-11.17,6.03c-7.49,1.57-14.93,3.41-22.43,4.98c-3.32,0.7-4.88,2.69-6.2,5.71
		c-6.06,13.91-12.94,27.4-21.75,39.8c-2.2,3.1-4.51,6.2-8.47,7.66c-1.91-1.74-1.38-4.03-1.38-6.05c0.01-14.02,0.99-27.94,3.95-41.7
		c1.76-8.16,4.21-16.1,6.91-23.96c1.26-3.68,3.87-6,7.94-7.54c8.97-3.4,18.42-4.35,27.59-6.63c6.86-1.71,11.19-6.23,14.24-12.29
		c0.9-1.78,1.42-3.83,2.61-5.38c4.29-5.58,1.46-10.07-1.92-15.12c-2.31,2.63-4.38,4.94-6.41,7.29c-2.63,3.03-5.84,4.77-9.92,5.13
		c-8.65,0.75-16.94,3.57-25.55,4.62c-3.49,0.42-5.7,2.39-7.72,5.5c-9.87,15.2-18.54,31.2-29.74,45.54
		c-4.42,5.66-9.04,11.11-14.64,15.66c-1.15,0.93-2.14,2.17-4.21,1.69c-1.44-1.85-1.08-4.25-0.94-6.48
		c1.9-31.32,10.27-60.56,27.73-86.96c3.47-5.24,7.71-8.07,14.13-8.74c11.75-1.23,23.46-3.05,35.12-4.97
		c5.42-0.89,9.24-5.11,13.69-7.97c3.73-2.4,6.47-5.69,7.95-9.95c1.56-4.51,3.86-8.7,6.15-12.92c-1.62-0.89-2.44,0.2-3.37,0.75
		c-3.3,1.94-6.61,3.87-9.85,5.91c-10.93,6.88-10.92,6.92-23,2.15c-4.35-1.72-8.83-2.92-13.34-4.11c-4.06-1.08-7.53-0.27-10.91,1.89
		c-8.41,5.37-16.93,10.59-25.23,16.12c-12.7,8.47-26.46,14.7-40.71,19.95c-2.07,0.76-4.45,1.57-6.97,0.24
		c-0.13-3.17,0.95-6.03,2.27-8.91c5.44-11.78,13.24-21.93,21.93-31.4c10.35-11.3,21.27-22.02,32.59-32.38
		c6.93-6.34,14.05-8.21,22.7-4.84c8.69,3.39,17.77,5.6,26.63,8.48c5.77,1.88,11.24,1.86,17.09-0.03c8.58-2.78,17.59-3.65,26.51-4.84
		c9.9-1.32,19.87-2.33,29.38-5.69c1.7-0.6,3.59-0.81,5.18-2.59c-4.89-5.51-9.49-11.25-13.27-17.67
		c-9.54-16.22-16.45-33.42-20.1-51.88c-0.49-2.5-1.72-5.78,0.54-7.61c2.61-2.11,5.41,0.22,7.77,1.6
		c9.12,5.36,16.61,12.75,24.36,19.82c13.73,12.53,25.86,26.43,35.9,42.09c3.38,5.28,7.73,9.01,14.05,10.26
		c6.67,1.33,12.67,4.5,17.87,8.62c16,12.67,34.62,18.77,54.14,23.06c7.32,1.61,14.76,2.6,22.02,4.44
		c18.49,4.67,21.08,6.24,36.26,21.26c8.52,8.44,16.8,17.09,24.77,26.05c7.83,8.8,18.13,12.48,29.48,14.54
		c5.87-10.65,11.46-21.23,18.4-31c1.74-2.44,3.32-5.01,5.22-7.31c2.65-3.19,5.61-2.8,7.33,1c1.52,3.35,2.25,6.97,2.76,10.6
		c1.51,10.59,0.84,21.27,1.2,31.91c0.05,1.58-0.77,3.5,1.45,4.24c2.19,0.74,3.54-0.71,4.49-2.31c3.32-5.62,5.4-11.76,7.04-18.05
		c4.51-17.25,11.51-33.31,22.38-47.58c2.02-2.65,3.83-5.44,5.74-8.17c0.81-1.15,1.75-2.18,3.28-1.36c1.24,0.66,1.27,1.99,0.89,3.09
		c-1.9,5.49-3.15,11.2-6.24,16.27c-5.37,8.83-10.04,18.01-13.58,27.75c-1.88,5.16-2.69,10.51-4,16.45c3.2-1.08,4.36-3.27,6.04-4.74
		c8.39-7.34,15.8-15.08,18.96-26.56c1.99-7.23,5.73-14.14,9.43-20.88c5.37-9.79,13.05-17.15,22.35-23.05
		c3.66-2.32,7.43-4.49,10.9-7.07c7.23-5.38,14.07-11.19,18.05-20.41c5.7,6.05,2.42,12.27,1.96,17.79c0.66,0.9,1.26,1.27,1.94,1.13
		c11.13-2.26,22.74-0.87,33.69-3.94c10.91-3.05,19-10.13,24.04-20.29c1.65-3.33,1.23-6.92-0.67-10.53
		c-2.24-4.27-5.57-7.85-7.15-12.54c-4.45-13.24,1.4-28.13,13.76-34.53c3.25-1.68,6.59-3.26,9.61-5.29
		c7.16-4.8,15.11-5.97,23.39-5.31c4.5,0.36,8.98,0.41,13.48,0.54c12.08,0.35,23.05-2.35,31.86-11.36c3.14-3.21,6.5-6.2,9.6-9.47
		c8.86-9.32,20.14-13.18,32.69-13.88c2.35-0.13,2.36,0.05,5.85,1.77c-3.36,3.39-7.44,5.63-11.28,8
		c-10.43,6.44-15.92,15.84-15.88,27.73c0.04,11.91-3.24,21.91-12.81,29.63c5.79,5.55,11.04,10.6,16.31,15.62
		c2.9,2.76,5.98,5.41,7.97,8.91c1.97,3.47,5.83,4.73,8.17,7.91c9.55,12.98,19.5,25.67,29.21,38.52c1.43,1.89,3.14,2.8,5.39,3.16
		c3.45,0.54,6.96,0.96,10.3,1.92c5.78,1.65,7.34,4.4,5.44,9.97c-1.09,3.21-0.34,5.31,1.96,7.48c5.85,5.5,10.7,11.88,15.37,18.37
		c8.49,11.78,15.01,24.7,20.77,37.93c7.49,17.19,15.23,34.33,20.38,52.42c2.18,7.64,4.94,15.23,4.26,23.42
		c-0.25,3.05,1.7,5.79,1.52,8.81c-0.51,8.74-0.1,17.49-2.11,26.2c-1.21,5.25-1.04,10.82-2.05,16.25
		c-3.71,19.92-13.79,36.15-28.01,50.08c-2.43,2.38-3.56,4.77-3.87,8.17c-0.51,5.61-1.26,11.25-3.45,16.55
		c-0.44,1.07-0.86,2.22-0.94,3.35c-1.58,21.87-8.61,42.21-17.37,62.07C802.69,486.28,801.21,487.86,799.06,490.05z M690.11,150.37
		c11.51-4.04,22.16-5.66,32.2-8.98c-0.06-0.95,0.02-1.34-0.12-1.6c-7.4-13.66-10.14-28.94-15.09-43.44
		c-0.37-1.09-0.42-2.29-0.67-3.43c-1.01-4.65-2.03-9.3-3.18-14.53c-8.13,5.96-15.8,11.49-21.46,19.21
		c-3.61,4.93-5.88,10.5-4.8,16.78c0.82,4.8,2.78,9.18,5.72,13.16C687.48,133.95,693.04,140.12,690.11,150.37z M697.73,317
		c-2.58-0.4-3.07,1.09-3.86,2.06c-3.74,4.68-7.44,9.39-11.14,14.09c-5.43,6.89-8.5,14.56-8.2,23.51c0.25,7.5,0.84,14.96,1.99,22.37
		c0.37,2.37,1.15,4.71,3.01,6.87c2.34-2.16,4.74-3.81,6.37-6.03c1.73-2.35,3.83-4.08,6.1-5.78c7.07-5.31,14.74-9.64,22.44-13.91
		c8.08-4.48,8.08-4.47,7.76-13.6c-0.04-1.16,0.11-2.32,0.16-3.48c0.28-5.87,0.57-11.73,0.85-17.6c-0.3-0.17-0.6-0.34-0.9-0.51
		c-6.32,6.23-12.12,13.11-20.36,17.45C697.89,334.19,698.71,325.4,697.73,317z M317.33,713.74c1.77-2.15,1.82-5.63,2.8-8.74
		c3.72-11.74,6.57-23.68,6.56-36.09c0-5.07,1.25-9.2,6.52-11.1c0.79-0.29,1.4-0.88,1.36-1.85c-3.6-4.43-8-5.45-13.21-3.14
		c-1.82,0.81-3.65,1.59-5.51,2.3c-2.67,1.03-4.08,3.03-5.24,5.61c-4.96,11-7.7,22.88-13.85,33.74
		C303.61,700.87,310.37,707.21,317.33,713.74z M665.95,195.69c-0.36,1.32-0.02,1.71,0.46,1.86c5.55,1.69,11,3.99,16.68,4.85
		c7.02,1.06,13.51-1.18,18.91-6.24C689.85,195.31,677.79,196.43,665.95,195.69z"/>
</g>
</svg>
