<?xml version="1.0" encoding="utf-8"?>
<!-- Generator: Adobe Illustrator 24.0.2, SVG Export Plug-In . SVG Version: 6.00 Build 0)  -->
<svg version="1.1" id="Layer_1" xmlns="http://www.w3.org/2000/svg" xmlns:xlink="http://www.w3.org/1999/xlink" x="0px" y="0px"
	 width="709.56" height="860.78" viewBox="0 0 709.56 860.78" style="enable-background:new 0 0 709.56 860.78;" xml:space="preserve">
<g>
	<path d="M201.88,596.79c-4.94-0.94-9.63-0.28-14.23-1.12c-6.8-1.24-13.17-3.5-19.2-6.77c-4.24-2.3-8.52-4.55-12.55-7.18
		c-6.98-4.57-13.78-2.05-20.46,0.37c-8.76,3.17-17.39,6.69-26.02,10.19c-10.49,4.27-21.27,7.66-32.08,10.96
		c-1.09,0.33-2.1,0.9-3.03,1.31c-0.33,1.22,0.34,1.76,1.01,2.24c6.73,4.76,10.2,11.7,12.69,19.22c1.36,4.11,3.56,7.88,5.5,11.63
		c6.11,11.81,12.08,23.7,18.91,35.16c6.48,10.87,15.75,18.33,26.17,24.82c1.12,0.7,2.55,1.27,3.2,2.31c2.58,4.15,5.9,3.99,9.94,2.5
		c2.95-1.09,5.87-2.31,9-2.95c3.84-0.78,6.91,0.26,9.4,3.15c8.59,9.95,13.26,21.41,13.23,34.67c-0.01,3.15,0.17,6.3,0.2,9.46
		c0.02,2.83-1.43,3.89-4.26,4.39c-10.53,1.85-20.34,0.13-29.89-4.6c-8.2-4.06-16.51-7.83-24.23-12.83
		c-6.54-4.24-11.88-9.71-16.8-15.58c-11.45-13.65-22.51-27.62-34.12-41.15c-15.18-17.69-30.15-35.56-45.03-53.51
		c-5.1-6.14-10.12-12.44-14.36-19.18c-6.18-9.84-7.33-20.05,0.04-30.18c8.55-11.76,18.07-22.64,28.82-32.43
		c15.43-14.05,32.35-26.14,49.77-37.58c5.58-3.67,8.92-8.48,8.52-15.74c-0.55-10.05,2.11-19.83,3.44-29.72
		c0.93-6.93,2.22-13.79,3.69-20.63c0.66-3.11,0.69-6.38-0.34-9.38c-3.61-10.51-4.36-21.53-5.9-32.39
		c-2.29-16.19-2.19-32.51-1.7-48.82c0.12-4.1-1.33-5.26-5.02-4.02c-11.97,4.02-24.37,6.61-36.12,11.34c-3.22,1.3-6.59,2.29-9.86,3.5
		c-15.24,5.63-29.74,3.15-43.54-4.7c-3.2-1.82-4.8-4.99-5.43-8.61c-3.11-18.03-0.83-34.7,11.35-49.33
		c5.85-7.02,11.09-14.58,16.32-22.09c3.93-5.64,4.79-12.45,5.44-19.02c1.4-14.18,5.23-27.62,10.54-40.78
		c2-4.95,4.14-9.73,6.88-14.32c3.88-6.49,2.75-11.16-2.85-16.16c-3.97-3.55-8.41-6.49-12.33-10.13c-2.77-2.58-3.56-6.39-6.58-8.84
		c-3.28,0.71-6.19,3-9.85,2.88c-0.81-2.63,0.18-4.89,0.98-6.94c3-7.73,2.92-15.24,0.63-23.27c-2.31-8.09-3.39-16.56-4.64-24.92
		c-0.94-6.3,2.13-8.45,7.82-5.93c1.52,0.68,3.06,1.31,4.6,1.95c1.34,0.56,2.36,1.93,3.95,1.66c0.77-0.28,1.21-0.79,1.39-1.45
		c3.37-11.98,6.78-23.95,10.93-35.7c3.86-10.93,7.75-21.83,12.31-32.51c5.09-11.92,12.1-22.96,16.05-35.39
		c0.1-0.31,0.29-0.6,0.46-0.89c1-1.66,1.61-4.18,4.08-3.71c2.63,0.5,2.14,3.08,2.06,4.98c-1.45,33.3-0.45,66.63-0.86,99.94
		c-0.13,10.83-0.09,21.66-0.06,32.49c0.01,4.77-1.42,9.54-0.2,14.41c3.64,0.71,5.91-0.59,6.86-4.09c1.75-6.41,4.71-12.38,6.93-18.62
		c2.71-7.62,6.4-14.95,9.6-22.43c3.39-7.93,6.91-15.82,10.3-23.75c5.83-13.61,12.38-26.86,19.45-39.86
		c6.43-11.82,12.87-23.61,20.26-34.89c1.71-2.61,2.47-5.62,6.23-6.69c1.89,3.85,0.81,7.69,0.18,11.25
		c-2.68,15.26-4.47,30.63-6.16,46.01c-1.27,11.58-2.52,23.2-4.42,34.65c-3.15,19.09-4.3,38.33-6.17,57.52
		c-0.01,0.13,0.16,0.27,0.33,0.53c1.69,0.71,3.53,0.43,5.19-0.24c3.37-1.36,6.8-1.21,10.28-0.82c3.95,0.44,6.09-0.62,7.43-4.27
		c3.68-10.03,10.83-16.85,19.72-22.25c8.96-5.45,17.9-10.96,27.73-14.71c4.02-1.53,8.27-2.5,12.47-3.51
		c5.26-1.27,8.27,1.61,6.78,6.8c-1.69,5.87-3.42,11.75-5.81,17.43c-3.54,8.4-6.68,16.97-10.21,26.02
		c9.28,2.11,17.58-3.64,27.38-2.68c-2.33,28.06-4.65,56.01-6.97,83.96c0.44,0.3,0.88,0.59,1.32,0.89
		c11.07-6.66,20.77-15.68,34.02-21.11c-1.61,12.67-3.22,24.27-4.52,35.91c-1.29,11.52-2.46,23.05-4.38,34.53
		c3.05,0.94,4.48-1.17,6.25-2.11c2.92-1.57,5.67-3.49,8.47-5.29c1.4-0.9,2.78-2.17,4.49-0.81c1.4,1.11,0.98,2.67,0.66,4.17
		c-2.17,10.25-3.18,20.69-4.93,31.02c-0.98,5.83-1.87,11.67-2.96,18.55c5.93-5.52,9.23-12.18,15.35-16.53
		c0.97,7.87-0.15,15.58,0.65,23.69c4.86-0.32,7.97-3.32,11.12-5.64c7.39-5.45,15.35-9.96,23.15-14.74c1.01-0.62,1.99-1.25,4.05-0.16
		c-1.1,8.17-4.85,15.91-6.91,24.08c1.95,1.28,3.23-0.13,4.51-1.03c9.39-6.62,18.67-13.38,28.12-19.91
		c6.28-4.34,12.78-8.36,19.39-12.67c1.88,2.24,1.25,4.18,0.34,6.18c-3.66,7.97-7.29,15.96-10.95,23.94
		c-0.31,0.67-0.31,1.25,0.03,1.96c1.02,0.88,1.77,0.04,2.52-0.55c14.6-11.32,29.58-22.06,45.22-31.98
		c12.94-8.21,25.94-16.26,39.31-23.74c1.87-1.05,3.63-2.57,6.53-0.46c-6.15,15.66-14.55,30.49-21.23,45.97
		c1.7,1.29,2.91,0.59,4.09,0.04c24.28-11.27,49.22-20.95,74.17-30.58c15.82-6.1,31.85-11.66,48.08-16.61
		c5.07-1.55,10.37-2.3,15.1-4.96c0.93-0.53,2.28-0.49,3.42-0.44c2.25,0.11,2.96,1.38,1.93,3.37c-0.61,1.17-1.39,2.3-2.29,3.27
		c-14.17,15.27-26.08,32.39-39.61,48.18c-7.9,9.22-16.04,18.24-24.08,27.34c-0.96,1.08-2.43,1.83-2.11,4.1
		c20.51,0.8,41.01,2.43,61.26,6.17c20.08,3.71,40.33,6.87,59.88,14.17c-1.37,3.3-3.51,4.37-5.47,5.43
		c-10.55,5.69-21.17,11.24-31.74,16.89c-8.06,4.31-16.07,8.69-24.1,13.05c-1.03,0.56-2,1.22-2.26,2.62
		c25.38,29.62,44.77,63.15,61.96,98.38c15.11-7.94,27.54-18.48,40.6-28.19c2.19,2.18,0.84,3.69,0.1,5.28
		c-3.56,7.68-7.73,15.06-10.92,22.95c-2.15,5.33-1.16,9.41,2.42,13.22c5.27,5.6,11.61,9.93,17.65,14.62
		c7.24,5.63,15.62,9.51,22.73,15.3c0.86,0.7,2.05,1.18,2.09,2.9c-1.93,0.97-4.07,0.63-6.16,0.6c-6.66-0.1-13.31-0.52-19.97,0.3
		c-2.37,0.29-4.61,0.94-6.69,1.89c-5.55,2.55-4.89,8-4.88,12.6c0.02,13.64,0.56,27.28,2.63,40.8c0.1,0.66,0.2,1.32-0.8,2.26
		c-9.51-12.34-15.72-26.99-26.37-38.65c-4.96,3.1-4.8,9.05-8.22,12.37c-2.81-0.16-2.38-2.28-2.68-3.74
		c-0.51-2.44-0.94-4.83-2.17-7.09c-2.14-3.94-5.11-5.73-9.69-5.56c-9.54,0.34-18.22,3.52-26.7,7.46c-2.15,1-4.18,1.75-6.47,1.34
		c-0.44-1.95,0.69-2.88,1.57-3.78c4.67-4.81,6.85-10.95,8.79-17.09c3.78-11.93-1.08-21.53-9.09-29.87
		c-3.44-3.58-7.59-6.47-11.44-9.66c-0.86-0.72-2.06-1.13-2.19-2.76c1.88-0.68,3.88-0.83,5.75-0.37c10.25,2.55,20.18-0.16,30.18-1.67
		c0.33-0.05,0.64-0.19,0.96-0.27c7.31-1.78,7.53-1.91,3.73-8.61c-11.71-20.61-24.77-40.24-41.86-56.92
		c-7.75-7.56-15.06-15.55-23.11-22.83c-4.35-3.94-8.96-7.43-13.93-10.5c-4.34-2.67-4.36-4.48,0.24-6.85
		c8.72-4.51,17-9.84,25.96-13.9c1.14-0.52,2.61-0.78,2.82-2.43c-5.67-1.67-53.11,2.94-58.01,5.74c2.47,3.35,4.05,7.18,6.06,10.77
		c4.24,7.57,6.7,15.8,9.74,23.85c3.39,8.96,5.05,18.21,6.64,27.49c0.89,5.19,0.83,10.6,0.73,15.89c-0.16,8.27,1.95,16.44,0.36,24.81
		c-1.09,5.71-2.88,11.24-3.66,17.05c-2.03,15.16-5.2,30.12-8.54,45.05c-1.53,6.87-0.24,13.83,0.38,20.77
		c0.84,9.46,4.34,18.12,7.68,26.74c4.03,10.4,5.16,20.79,3.51,31.75c-2.42,16.14-6,32.02-9.62,47.91
		c-2.61,11.47-6.37,22.69-7.22,34.56c-0.26,3.6-1.6,7.12-2.52,10.66c-3,11.57-5.6,23.17-5.95,35.22
		c-0.18,6.31-0.93,12.64-3.32,18.59c-2.99,7.46-2.07,15.36-2.59,23.07c-0.49,7.24-0.97,7.8-7.93,9.56
		c-6.54,1.66-13.23,2.01-19.78,2.38c-6.29,0.35-12.91-0.29-19.02-2.88c-1.82-0.77-2.43-2.04-2.79-3.76
		c-2.15-10.44-1.42-20.58,3.69-30.07c5.36-9.96,10.43-20.09,16.9-29.42c2.81-4.05,4.11-8.79,4.91-13.53
		c4.13-24.43,7.61-48.96,10.25-73.6c0.83-7.79,0.26-15.65,0.24-23.47c-0.01-2.45-1.4-4.41-2.03-6.63
		c-2.89-10.06-6.8-19.78-10.49-29.57c-3.05-8.1-9.78-12.82-16.12-17.93c-12.32-9.93-24.74-19.74-34.97-31.97
		c-4.95-5.91-8.94-12.46-12.54-19.19c-1.76-3.3-3.07-3.06-5.66-1.33c-2.38,1.59-4.35,3.61-6.61,5.31c-1.2,0.9-1.4,2.08-1.44,3.5
		c-0.47,14.29-0.94,28.56,0.36,42.86c0.79,8.71,3.26,16.85,6.26,24.93c2.31,6.24,3.81,12.72,5.46,19.14
		c1.36,5.29-0.04,10.61-0.79,15.84c-2.91,20.26-8,40.06-13.05,59.85c-3.96,15.49-7.08,31.11-9.4,46.93
		c-0.92,6.26-3.14,12.29-5.76,17.99c-3.01,6.54-3.5,13.39-3.94,20.28c-0.45,6.92-1.7,8.64-8.64,9.71
		c-7.58,1.16-15.17,2.3-22.87,1.88c-2.32-0.13-4.68-0.31-6.92-0.85c-4.66-1.14-6.48-3.74-6.72-8.56
		c-0.52-10.51,1.59-20.03,8.84-28.24c3.61-4.09,6.47-8.85,10.3-12.84c5.47-5.7,6.86-13.25,8.44-20.51
		c1.65-7.64,3.73-15.17,5.38-22.78c1.82-8.42,3.22-17,3.11-25.73c-0.2-16.16-0.41-32.33,0.19-48.49c0.21-5.6-1.65-9.65-6.44-13.09
		c-12.68-9.12-23.4-20.29-31.78-33.51c-3.68-5.8-7.89-7.66-14.93-6.21c-10.2,2.1-20.45,4.65-31.04,4.22
		c-1.88-0.08-3.12,0.88-3.69,2.72c-2.87,9.23-6.82,18.18-11.44,26.45c-7.95,14.25-11.4,29.16-12.15,45.19
		c-0.6,12.81-0.51,25.67-1.67,38.42c-1.66,18.37-0.85,36.99-5.26,55.1c-1.69,6.93-3.94,13.69-6.08,20.48
		c-1.69,5.37-3,10.77-3.8,16.4c-1.53,10.77-1.42,21.56-1.5,32.36c-0.01,1.82-0.26,3.7-0.81,5.42c-0.97,3.05-2.56,5.36-5.92,6.79
		c-14.82,6.33-30.36,6.71-46.04,6.19c-4.23-0.14-5.36-1.42-4.93-5.59c0.94-9.16,3.07-17.95,7.75-26.08
		c3.58-6.22,7.95-11.87,11.81-17.87c3.16-4.91,5.88-9.94,6.37-16.04c0.36-4.44,2.49-8.6,3.22-13.06c2.55-15.47,2.23-31.13,3.24-46.7
		c1.05-16.3,0.61-32.63,1.16-48.95c0.23-6.81-0.42-13.6,0.18-20.44c0.44-5.05-1.87-9.78-3.49-14.46
		c-2.68-7.74-4.18-15.75-6.04-23.68C204.62,617.58,202.38,607.38,201.88,596.79z"/>
</g>
</svg>
