<?xml version="1.0" encoding="utf-8"?>
<!-- Generator: Adobe Illustrator 24.0.2, SVG Export Plug-In . SVG Version: 6.00 Build 0)  -->
<svg version="1.1" id="Layer_1" xmlns="http://www.w3.org/2000/svg" xmlns:xlink="http://www.w3.org/1999/xlink" x="0px" y="0px"
	 viewBox="0 0 780.48 592.53" style="enable-background:new 0 0 780.48 592.53;" xml:space="preserve">
<g>
	<path d="M340.35,530.05c-3.47,6.08-4.68,12.74-7.68,19.34c-9.86-8.22-19.55-16.15-27.84-26.13c-3.8,5.28-6.65,10.51-10.84,14.83
		c-2.59,2.67-4.42,2.58-7.16,0.56c-7.6-5.59-13.6-12.7-19.59-19.87c-6.2-7.42-11.58-15.45-17.55-23.04
		c-2.38-3.02-4.91-5.88-8.78-7.12c-8.68,6.88-18.14,12.27-28.85,16.49c-9.4-11.62-16.86-24.46-22.88-38.58
		c-2.98,2.04-4.58,4.82-7.23,7.12c-4.61-3.71-8.5-8.15-12.1-12.86c-0.4-0.53-0.76-1.11-1.04-1.7c-2.56-5.36-5.89-7.14-12.49-6.09
		c-18.62,2.95-37.44,2.84-56.32,1.74c-13.87-0.81-27.57-1.85-40.88-6c-3.49-1.09-7.07-2.11-10.3-3.77
		c-6.16-3.18-12.69-3.5-19.34-3.38c-7.28,0.13-14.17-1.6-20.89-4.19c-4.66-1.8-4.94-3.3-1.43-7.1c0.88-0.95,2.24-1.46,2.82-3.19
		c-2.69-2.47-6.95-3.1-9-6.56c-0.51-0.86-1-1.71-0.99-2.96c2.51-2.86,5.95-4.57,9.17-6.42c0.07-0.45,0.26-0.84,0.14-1.06
		c-3.43-6.34-3.55-6.49,2.4-10.65c5.57-3.89,10.88-7.94,15.78-12.76c9.69-9.52,21.24-16.58,33.82-21.7
		c6.39-2.6,10.84-6.74,13.33-13.1c0.32-0.81,0.53-1.56,0.15-2.46c-1.28-0.99-2.46,0.03-3.67,0.36c-5.76,1.56-6.83,0.76-6.56-5.33
		c0.27-6.16,1.11-12.26,2.09-18.35c1.87-11.69,4.42-23.22,7.44-34.65c0.95-3.62,0.29-4.25-3.6-5.22
		c-5.81-1.45-11.59-2.99-17.49-4.12c-3.94-0.76-5.04-2.87-4.31-7.02c1.29-7.29,4.66-13.85,7.53-20.57
		c2.81-6.57,5.81-13.07,8.82-19.55c1.25-2.7,0.19-3.98-2.32-4.85c-3.23-1.13-6.6-2.03-9.4-4.04c3.59-8.38,8.47-15.54,13.22-22.74
		c3.83-5.8,6.01-12.03,7.35-18.87c4.59-23.34,12.97-45.17,29.13-63.08c5.04-5.59,6.05-11.18,4.94-17.97
		c-2.8-17.11-4.64-34.3-4.67-51.66c0-0.67-0.05-1.33-0.05-2c0-1.42,0.32-2.67,1.85-3.18c1.34-0.45,2.2,0.34,3.03,1.2
		c2.79,2.87,5.41,5.87,7.19,9.51c0.57,1.18,0.96,2.51,3.25,3c5.29-23.16,19.09-41.71,33.42-60.28c3.69,11.04,5.89,22.17,9.68,32.99
		c2.9-0.51,4-2.62,5.32-4.49c4.51-6.39,8.69-13.03,14.24-18.61c1.11-1.12,1.86-2.89,4.82-2.42c-1.01,19.84-5.15,39.55-4.87,59.95
		c6.61-1.9,12.55-4.54,19.11-5.52c3.95,3.84,0.87,8.95,2.38,13.62c12.31-5.26,24.32-10.96,37.17-14.24
		c12.67-3.23,25.28-7.06,39.12-7.04c0.45,11.18-2.69,21.88-2.36,33.23c6.93-1.99,13.41-4.37,19.94-4.23
		c9.44,0.19,14.67-4.71,19.23-11.92c8.03-12.7,18.11-23.86,27.67-35.38c9.05-10.9,19.74-20.27,30.34-29.65
		c1.16-1.03,2.5-2.23,4.65-2.01c0.96,2.77,1.51,5.57,1.21,8.61c-0.96,9.61-1.8,19.23-2.7,28.85c-0.11,1.15-0.45,2.31,0.48,3.53
		c23.22-11.26,47.93-17.66,73.19-22.53c1.17,3.29-0.71,4.99-1.26,6.95c-3.84,13.59-7.6,27.2-12.1,40.59
		c-1.63,4.86-2.44,9.99-3.97,14.92c-1.11,3.59-0.23,4.64,3.44,5.76c6.53,2.01,13.31,3.01,19.9,4.77c6.1,1.62,12.08,3.71,18.11,5.59
		c0.98,0.31,1.86,0.74,2.46,2.38c-3.28,3.19-7.56,5.26-11.83,7.26c-22.89,10.72-45.81,21.38-68.71,32.07
		c-0.44,0.2-0.8,0.57-1.92,1.37c18.86,10.86,36.08,23.25,49.74,40.28c-3.79,3.01-8.31,3.22-12.25,5.22
		c0.55,0.64,0.79,1.12,1.18,1.34c12.28,6.79,23.65,14.92,34.77,23.43c2.18,1.67,4.62,2.36,7.23,3.09c17.86,5,36.79,6.78,53.18,17.6
		c-7.79,9.02-16.54,17.34-24.11,27.32c4.76,3.71,9.04,7.07,13.34,10.4c0.82,0.64,1.84,0.64,2.84,0.75
		c13.71,1.56,27.41,3.17,41.11,4.76c1.01,0.12,1.98,0.3,2.62,1.02c-3.41,12.11-9.94,22.75-15.89,34.24
		c7.21,1.95,13.95,3.61,20.57,5.62c7,2.12,13.91,4.57,20.85,6.91c1.74,0.59,3.71,1.13,4.78,2.58c2.61,3.5,5.23,2.37,8.65,1.21
		c7.08-2.38,14.41-4.09,21.68-5.88c20.4-5.04,40.98-8.7,62.12-8.87c8.13-0.07,16.26-0.99,24.41-0.27c1.12,0.1,2.34-0.32,3.59,1.25
		c-7.79,13.18-17.24,25.53-26.54,39.34c16.52,1.99,31.91,3.03,47.02,6.23c15.12,3.2,30.06,6.89,44.89,12.25
		c-14.88,15.84-32.46,26.85-50.41,37.68c1.79,2.91,5.97,2.05,7.41,5.84c-6.37,3.94-13.33,6.76-20.91,8.96
		c1.28,2.52,3.32,4.01,5.22,5.38c6.52,4.71,11.91,10.65,17.83,16c11.75,10.62,22.37,22.33,32.75,34.26
		c1.77,2.04,3.19,4.28,4.39,6.66c1.52,3.03,1.04,4.08-2.14,5.2c-9.26,3.27-18.72,5.88-28.23,8.31
		c-15.32,3.92-30.63,7.84-45.94,11.77c-0.95,0.24-1.99,0.37-2.89,1.62c7.11,17.16,17.9,33.08,21.58,52.24
		c-22.43,1.11-43.32-5.43-65.32-10.38c4.11,11.41,6.65,22.46,10.31,34.35c-27.99-1.48-51.63-12.6-75.69-24.6
		c-2,8.33-0.37,16.48-1.36,24.58c-2.3,1.05-4.22,0.09-6.16-0.81c-8.85-4.07-16.59-9.73-24.06-15.93
		c-7.06-5.86-13.82-12.01-20.09-18.68c-5.35-5.69-10.39-11.68-15.38-17.69c-5.53-6.65-11.69-12.73-17.1-19.52
		c-1.85-2.31-1.49-5.92-4.92-7.36c-0.99,2.24,0.3,4.61-0.59,7.08c-5.21,1.4-9.15-2.74-14.42-3.92c-0.14,8.86,2.27,17.33,1.01,26.39
		c-15.8-3.14-30.54-8.1-45.07-13.96c-2.1,3.48-2.35,6.68-1.39,10.49c1.29,5.1,1.59,10.45,1.49,16.08c-3.18,0-6.12-0.07-9.06,0.02
		c-4.77,0.15-5.83,1.05-6.63,5.67c-0.37,2.12-0.55,4.29-0.69,6.44c-0.18,2.89-1.76,3.78-4.37,3.16c-2.78-0.65-5.3-1.98-7.84-3.21
		c-1.04-0.51-1.94-1.32-3-1.77c-1.67-0.71-3.42-1.22-5.2-1.84c-3.67,2.59-4.17,6.65-4.86,10.76c-6.41-0.91-10.81-4.98-15.62-7.98
		c-6.49-4.05-12.89-8.14-19.64-11.81c-8.57-4.66-14.99-12.05-20.4-20.19C342.35,532.39,341.94,531.07,340.35,530.05z"/>
</g>
</svg>
