<?xml version="1.0" encoding="utf-8"?>
<!-- Generator: Adobe Illustrator 24.0.2, SVG Export Plug-In . SVG Version: 6.00 Build 0)  -->
<svg version="1.1" id="Layer_1" xmlns="http://www.w3.org/2000/svg" xmlns:xlink="http://www.w3.org/1999/xlink" x="0px" y="0px"
	 width="861.66" height="811.65" viewBox="0 0 861.66 811.65" style="enable-background:new 0 0 861.66 811.65;" xml:space="preserve">
<g>
	<path d="M598.2,797.3c-1.03-5.73,0.3-10.18,1.6-14.62c2.95-10.04,8.43-18.81,13.96-27.53c4.61-7.25,6.97-15.01,6.26-23.65
		c-0.42-5.15-1.19-10.33-0.9-15.45c0.61-11.09-2.75-20.96-7.97-30.46c-2.63-4.78-6.27-5.71-10.21-1.77
		c-8.46,8.46-19.09,11.05-30.42,11.43c-6.88,0.23-13.42-2.14-19.7-4.78c-10.32-4.33-19.71-10.38-29.16-16.3
		c-6.48-4.06-11.15-10-15.73-15.9c-13.98-18-26.92-36.81-41.93-54.01c-1.3-1.49-2.41-3.2-3.38-4.93c-4.5-8-12.68-10.32-20.44-13.16
		c-8.28-3.03-16.9-5.15-24.94-8.79c-7.45-3.37-15.09-2.2-22.64-1.5c-9.43,0.88-18.8,2.37-28.18,3.73c-16.8,2.42-33.64,4.71-50,9.43
		c-6.67,1.92-13.22,4.26-19.43,6.83c-0.67,2.02,0.51,2.69,1.64,3.47c9.68,6.74,20.46,11.03,31.79,13.98
		c2.56,0.67,4.56,1.82,6.27,3.75c7.92,8.92,13.93,19.1,19.12,29.74c1.85,3.78,0.96,8.04-1.18,11.53
		c-6.96,11.35-12.77,23.35-19.97,34.57c-3.45,5.38-7.94,8.97-13.97,10.52c-10.06,2.6-19.15,7.3-28.39,11.88
		c-9.76,4.84-18.28,12.1-28.96,15.05c-10.07,2.78-19.2,8.49-29.83,9.52c-1.77,0.17-3.64,1.08-5.07-1.32
		c3-6.53,8.45-11.41,13.83-17.36c-3.66-0.23-6.14,0.49-8.63,1.14c-6.95,1.82-14,2.97-21.17,3.43c-2.25,0.14-4.41,0.11-5.09-3.09
		c4.78-5.27,9.95-10.34,15.95-14.91c-7.25,0.39-14.06,3.95-21.29,2.72c-0.97-3.44,1.23-5.15,2.86-6.86
		c5.57-5.81,12.19-10.26,19.11-14.32c5.19-3.04,10.7-5.3,16.29-7.51c6.22-2.46,11.12-7.24,16.75-10.79
		c1.83-1.15,3.57-2.45,5.36-3.67c3.87-2.61,6.6-6.02,7.71-10.64c1.32-5.5,2.72-10.98,4.01-16.49c0.87-3.73,0.13-6.92-2.13-10.3
		c-8.1-12.13-20.02-18.93-33.48-21.95c-13.98-3.14-22.85-10.96-29.42-23.06c-4.65-8.56-3.83-15.88,1.71-23.56
		c6.33-8.78,14.6-15.48,22.57-22.54c11.74-10.4,23.87-20.33,38.15-27.11c10.51-4.99,21.27-9.45,31.85-14.28
		c10.6-4.84,21.43-8.93,32.67-12.05c3.82-1.06,7.42-2.95,11.02-4.68c2.67-1.28,4.13-3.81,5.35-6.39c2.35-4.96,4.64-9.96,6.91-14.96
		c1.66-3.66,3.67-7.09,6.18-10.23c1.3-1.63,2.29-3.37,1.07-5.47c-5.94-10.19-12.32-20.08-19.43-29.73
		c-4.9,2.29-8.85,6.47-14.75,5.78c-0.98-3.97,1.45-7.23,1.48-11.16c-5.89,0.96-11.44,1.66-17.09,1.32
		c-11.5-0.71-22.85-2.15-33.69-6.29c-2.87-1.1-5.6-0.1-8.37,0.18c-9.24,0.96-18.33,0.34-26.83-3.57
		c-6.33-2.91-12.75-5.72-18.75-10.13c-11.82,10.01-19.94,23.03-30.09,36.04c10.08-2.36,19.35-3.7,28.96-3.66
		c-5.6,10.51-15.51,16.49-24.27,24.34c4.61,1.92,8.86,2.4,12.91,3.42c0.06,1.79-1.17,2.09-2.16,2.56
		c-5.46,2.61-11.28,3.9-17.23,4.82c-5.69,0.88-11.37,1.72-16.68,4.33c-11.06,5.43-22.29,10.55-32.6,17.34
		c-6.52,4.3-12.59,9.24-18.36,14.55c-9.91,9.13-20.99,16.35-34.09,20.12c-4.17,1.2-7.17,3.93-9.94,7.17
		c-5.74,6.71-12.04,12.86-19.55,17.64c-1.4,0.89-2.73,1.97-4.77,1.24c-2.79-6.59,0.55-13.23,0.75-19.99
		c-5.55-1.41-9.62,0.62-13.27,3.67c-7.42,6.22-15.12,12.01-23.57,16.76c-1.72,0.96-3.34,2.21-5.94,2.11
		c-1.02-2.64-0.63-5.32,0.19-8.01c2.82-9.3,7.39-17.82,11.87-26.38c0.45-0.85,1.33-1.52,0.76-2.96c-9.69,1.23-19.03,5.12-30.04,4.99
		c2.26-4.63,4.02-8.4,7.05-11.51c7.73-7.9,16.16-14.88,26-20.05c2.36-1.24,4.6-2.64,6.44-4.66c6.14-6.77,13.82-11.37,21.82-15.6
		c12.38-6.54,24.97-12.59,37.86-18.06c6-2.54,12.28-4.16,18.39-6.35c13.93-5,27.43-11.18,41.61-15.51c2.09-0.64,3.66-2.02,5.22-3.64
		c3.24-3.34,6.81-6.37,10.37-9.37c1.17-0.98,2.4-2.44,4.34-1.66c1.19,1.49-0.83,2.85,0.18,4.72c2.27-0.12,4.02-1.65,5.46-3.28
		c7.93-8.98,16.08-17.8,22.45-28.04c1.74-2.81,2.03-5.3-0.04-8.27c-7.03-10.09-8.85-21.74-9.22-33.68
		c-0.11-3.59,1.91-7.02,1.59-10.76c-2.16-0.64-3.68,0.62-5.32,1.21c-14.7,5.27-28.67,12.48-43.76,16.69
		c-14.46,4.04-29.08,7.26-44.24,6.91c-0.33-0.01-0.67,0.01-1-0.01c-10.81-0.83-11.6-5.11-7.31-12.69
		c5.92-10.45,9.64-21.91,14.15-33.01c0.92-2.28,0.68-4.45-0.17-6.78c-2.32-6.41-4.57-12.86-6.55-19.39
		c-4.43-14.6-3.53-29.05,0.34-43.76c4.88-18.57,13.54-35.38,22.59-52.03c7.76-14.27,12.43-29.4,14.28-45.41
		c1.51-13.05,2.71-26.16,2.1-39.34c-0.15-3.31-0.78-6.6-1.25-9.89c-0.21-1.44-0.93-2.9,0.96-4.69
		c12.6,17.08,16.52,37.53,22.69,56.82c2.22-0.16,2.79-1.5,3.58-2.5c9.22-11.8,20.4-21.48,32.73-29.86
		c12.03-8.17,22.92-17.65,33.49-27.6c7.93-7.47,15.01-15.56,21.13-24.53c4.23-6.2,7.92-12.7,10.63-19.74
		c1.88-4.9,3.93-9.74,6.64-14.5c2.47,16.22,0.76,32.39,0.16,49.38c15.34-7.81,25.51-20.2,36.5-31.63
		c10.98-11.42,19.84-24.39,28-38.09c1.67,18.05,0.16,35.69-5.82,52.99c2.8,1.3,5.38-0.04,7.77-0.71
		c10.55-2.99,21.37-3.39,32.17-3.66c24.76-0.62,49.2,1.94,73.08,8.68c4.89,1.38,8.95-0.29,12.93-2.1
		c19.82-9.02,39.69-17.94,58.85-28.36c8.74-4.75,17.27-9.84,26.57-15.75c-0.76,6.36-2.83,11.34-5.24,16.1
		c-8.53,16.89-19.17,32.35-32.11,46.19c-0.79,0.85-1.66,1.65-1.92,2.9c0.46,1.41,1.85,1.27,2.88,1.46c11.12,2,22.13,4.5,33.35,6.08
		c19.2,2.69,38.48,3.19,57.78,3.15c6.29-0.01,12.6-0.95,18.86-1.76c7.86-1.01,15.76-1.7,23.47-3.75c9.95-2.66,20.26-3.9,30-7.35
		c8.77-3.1,17.04-7.39,25.76-11.21c-7.75,16.12-19.43,29.07-32.45,41.12c-13.24,12.25-29.21,19.97-44.87,27.29
		c-0.09,2.7,1.06,3.76,2.26,4.6c25.83,18.15,47.84,40.91,72.62,60.31c15.2,11.91,30.71,23.43,47.16,33.62
		c6.27,3.89,13.06,6.58,19.74,9.57c1.64,0.73,3.51,1.07,4.66,2.67c-0.72,1.19-1.89,1.38-3.04,1.38c-6.33,0-12.66,0.26-18.99-0.22
		c-15.94-1.2-31.65-4.06-47.35-6.86c-11.46-2.05-22.87-4.49-34-8.03c-2.87-0.91-5.78-1.74-8.57,0.05c-0.86,1.21-0.41,2.33-0.03,3.42
		c4.05,11.59,4.82,23.76,6.56,35.78c1.88,12.97,1.79,25.82,0.19,38.81c-1.62,13.09-4.01,25.98-7.57,38.66
		c-6.34,22.6-13.44,44.95-21.55,66.98c-1.3,3.54-3.58,6.7-4.39,10.14c0.88,1.22,1.73,1,2.54,0.91c18.2-2.11,35.38,1.8,52.08,8.71
		c9.85,4.08,19.34,8.94,28.38,14.54c10.06,6.23,17.07,15.75,24.52,24.71c2.34,2.82,4.67,5.66,6.81,8.63
		c9.81,13.62,23.36,21.54,39.31,25.62c7.89,2.02,15.75,4.32,23.85,5.4c16.81,2.22,32.07-0.98,44.62-13.28
		c2.78-2.73,4.74-5.99,6.82-9.21c0.69-1.07,0.83-2.59,2.55-3.03c2.02,1.05,1.44,3.01,1.45,4.73c0.12,14.58-4.52,27.67-11.89,40.12
		c-6.47,10.92-13.64,21.27-22.24,30.57c-5.53,5.98-11.59,11.43-17.92,16.62c-11.88,9.74-24.34,18.52-38.1,25.4
		c-14.06,7.03-28.72,12.7-44.15,15.38c-11.59,2.02-23.35,4.17-35.16,4.03c-9.42-0.11-18.84-1.66-28.24-2.81
		c-12.41-1.52-24.7-4.05-36.51-7.97c-10.01-3.33-20.45-6.24-28.71-13.5c-0.72-0.63-1.53-1.34-2.64-1.1
		c-0.69,0.47-0.72,1.14-0.44,1.76c2.51,5.5,3.55,11.44,4.9,17.26c0.6,2.58,1.85,3.97,3.99,5.25c5.47,3.27,10.81,3.52,16.5,0.5
		c9.47-5.02,15.4-2.36,21.77,4.31c10.68,11.2,21.93,21.88,31.92,33.71c6.99,8.28,14.24,16.3,21.48,24.34
		c5.05,5.61,6.64,12.68,8.16,19.61c3.92,17.86,9.22,35.61,8.61,54.1c-0.51,15.24,0.15,30.63-3.59,45.64
		c-0.4,1.6-0.49,3.47-2.44,4.01c-1.89,0.52-2.49-1.27-3.48-2.29c-6.98-7.23-13.35-14.87-16.91-24.48c-1.34-3.61-4.65-5.06-7.94-6.34
		c-1.6-0.62-2.83,0.07-3.84,1.47c-1.95,2.69-4.31,5.11-5.98,7.94c-6.31,10.69-14.84,19.49-23.52,28.17
		c-0.08,0.08-0.31,0.01-0.89,0.01c-1.31-2.95-1.46-6.29-1.55-9.48c-0.23-8.82-0.79-17.67,0.27-26.46c0.39-3.21-0.39-5.13-3.62-6.01
		C625.67,778.44,614.41,791.19,598.2,797.3z M552.58,522.16c0.17-1.72,0.34-2.22,0.26-2.68c-3.89-22.29,2.78-42.13,14.59-60.56
		c2.29-3.57,3.86-6.74,3.5-10.96c-0.4-4.77,0.81-9.2,3.27-13.35c0.89-1.5,2.33-2.86,2.28-4.93c-0.29-0.37-0.54-0.8-0.89-1.13
		c-13.05-12.11-29.39-17.05-46.12-21.01c-11.18-2.64-22.54-3.98-34.05-4.53c-15.93-0.76-31.85-1.71-47.64-4.28
		c-10.49-1.71-21.17-2.46-30.97-7.09c-6.58-3.11-12.05,0.29-18.49,2.54c7.25,8.1,13.82,15.74,20.69,23.16
		c13.3,14.38,28.56,25.69,46.92,32.95c10.36,4.09,20.09,9.81,29.2,16.16c13.22,9.22,25.36,19.88,36.6,31.5
		C538.86,505.35,545.6,513.1,552.58,522.16z"/>
</g>
</svg>
