<?xml version="1.0" encoding="utf-8"?>
<!-- Generator: Adobe Illustrator 24.0.2, SVG Export Plug-In . SVG Version: 6.00 Build 0)  -->
<svg version="1.1" id="Layer_1" xmlns="http://www.w3.org/2000/svg" xmlns:xlink="http://www.w3.org/1999/xlink" x="0px" y="0px"
	 viewBox="0 0 860.72 816.11" style="enable-background:new 0 0 860.72 816.11;" xml:space="preserve">
<g>
	<path d="M426.64,816.11c-3.64-4.42-4.9-8.18-4.35-13.04c1.5-13.18,2.75-26.41,4.13-39.61c2.46-23.5,3.46-47.14,6.54-70.57
		c1.63-12.37,3.28-24.74,4.78-37.12c0.42-3.44,0.17-6.93,0.43-10.43c1.94-25.39,5.95-50.56,7.52-76c0.78-12.48,0.01-24.99,1.34-37.4
		c1.52-14.17-1.93-27.81-3.65-41.64c-0.45-3.58-0.1-7.26-2.37-10.54c-1.84-2.65-3.83-4.25-7.21-4.56
		c-13.07-1.2-24.71-6.42-35.63-13.39c-3.91-2.5-8.15-2.79-12.03-0.34c-1.13,0.71-2.26,1.44-3.27,2.3
		c-17.74,15.23-34.72,31.27-47.88,50.72c-12.02,17.77-23.13,36.14-33.76,54.81c-9.71,17.07-20.16,33.72-30.07,50.68
		c-11.08,18.98-23.11,37.37-34.92,55.87c-8.42,13.19-15.36,27.23-24.15,40.17c-1.31,1.93-2.58,3.9-4.02,5.72
		c-1.37,1.73-2.93,3.38-5.47,1.94c-2.29-1.3-1.9-3.32-1.24-5.27c0.95-2.83,1.69-5.78,3.41-8.28c8.03-11.67,14.03-24.54,21.66-36.47
		c9.49-14.86,18.29-30.17,27.69-45.1c5.84-9.29,10.88-19.08,16.51-28.5c4.1-6.84,8.54-13.48,12.92-20.15
		c5.67-8.63,9.5-18.24,14.52-27.23c4.7-8.42,9.81-16.59,14.59-24.96c7.36-12.86,14.01-26.09,20.92-39.18
		c5.12-9.71,10.72-19.16,16.03-28.77c6.26-11.31,10.02-23.5,12.38-36.15c0.32-1.72-0.3-3.27-0.77-4.87
		c-2.49-8.66-4.5-17.46-4.67-26.46c-0.12-6.3,0.78-12.62,1.43-18.91c0.22-2.13-0.18-3.83-1.28-5.64
		c-3.58-5.88-8.07-11.1-12.89-15.88c-8.49-8.44-17.29-16.53-28.07-22.27c-8.19-4.36-16.04-9.36-24.51-13.2
		c-12.51-5.67-25.68-8.96-39.25-10.91c-6.42-0.92-12.73-2.52-19.14-3.64c-15.44-2.71-30.92-1.82-46.31-0.4
		c-6.89,0.63-13,4.94-19.26,7.98c-2.16,1.05-2.95,3.95-3.6,6.39c-0.57,2.14-1.44,3.84-4.01,3.48c-2.62-0.37-3.92-2.2-3.38-4.63
		c1.58-7.2-2.33-13.01-4.9-18.98c-4.11-9.55-10.4-17.87-17.67-25.25c-7.04-7.14-15.39-12.59-24.91-16.03
		c-3.43-1.24-6.82-2.61-10.24-3.85c-10.05-3.65-20.34-2.97-30.61-2.38c-14.11,0.81-27.1,6.1-40.09,11.07
		c-3.79,1.45-7.09,4.3-10.43,6.76c-2.26,1.67-3.48,4-4.59,6.8c-1.79,4.53-4.77,8.61-6.25,13.36c-0.42,1.34-1.54,1.68-2.78,1.61
		c-1.7-0.1-2.78-1.15-3.3-2.65c-0.77-2.25-0.59-4.58-0.31-6.92c1.24-10.38,5.12-19.94,9.19-29.44
		c4.99-11.66,11.43-22.51,18.32-33.15c3.61-5.58,7.42-11.05,10.83-16.77c0.85-1.43,1.66-2.94,2.78-4.14
		c12.43-13.43,23.03-28.41,36.34-41.16c14.56-13.95,29.2-27.86,45.23-39.98c16.03-12.12,31.14-25.42,48.26-36.23
		c12.37-7.81,24.51-16.13,37.26-23.24c17.26-9.62,34.8-18.87,53.48-25.73c15.45-5.68,30.62-12.17,46.37-16.94
		c11.62-3.52,23.46-6.35,35.56-7.79c3.97-0.47,7.93-0.94,11.93-1.41c-0.54-1.09-1.78-0.37-2.54-1.05c7.33-1.93,14.74-0.9,22.07-0.83
		c5.16,0.05,8.78,7.5,6.51,13.1c-2.64,6.49-6.05,12.62-9.72,18.58c-5.82,9.45-9.49,19.7-12.46,30.37
		c-3.81,13.67-6.69,27.48-8.56,41.51c-1.27,9.59-1.12,19.27-1.61,28.91c-1.2,23.89,1.25,47.53,5.43,71.02
		c2.39,13.43,5.24,26.77,8.5,40.02c2.88,11.69,6.87,22.96,12.84,33.44c3.46,6.06,6.07,12.6,10.54,18.1c3.66,4.5,6.23,4.51,8.89-0.58
		c5.21-9.95,8.18-20.67,10.87-31.53c1.97-7.97-0.13-14.3-4.88-20.74c-9.55-12.97-15.93-27.38-19.6-43.25
		c-4.36-18.82-4.34-37.68-2.51-56.6c1.39-14.4,6.56-27.77,14.25-40.1c1.23-1.98,2.3-4.05,3.55-6.02c3.11-4.93,5.48-5.75,10.65-3.25
		c5.55,2.69,10.76,5.98,15.78,9.59c7.76,5.59,13.69,13.06,20.49,19.64c15.5,15,22.74,34.58,30.22,53.94
		c2.48,6.42,4.29,13.27,5.29,20.21c0.5,3.5,2.79,4.56,7.08,4.65c10.47,0.21,20.64,1.77,30.33,6.23
		c11.64,5.35,22.19,11.98,30.39,22.03c2.2,2.69,5.05,2.92,8.49,0.45c8.79-6.31,18.79-9.92,28.86-13.31
		c8.85-2.98,17.92-5.11,27.29-5.79c2.48-0.18,4.93-0.75,7.38-1.21c15.57-2.93,30.81,0.22,46.12,2.34c5.29,0.73,10.61,1.37,15.5,3.58
		c4.21,1.9,8.24,4.24,12.3,6.47c1.63,0.89,2.01,2.27,1.72,4.23c-2.71,18.4-10.44,34.6-21.33,49.45
		c-5.22,7.12-10.6,14.09-17.29,19.93c-12.75,11.13-27.9,17.08-44.12,21.09c-13.64,3.38-27.52,4.47-41.43,5.5
		c-1.97,0.15-3.98-0.19-5.97-0.14c-2.57,0.07-5.12-0.79-7.66,1.08c-3.96,2.92-8.11,6.11-9.37,10.68
		c-2.74,9.94-6.89,19.42-9.42,29.94c3.05,0.65,6.02,1.63,9.05,1.88c13.13,1.09,26.14,0.72,39.08-2.43c4.95-1.2,9.94-2.56,15.08-3.11
		c9.19-0.97,17.66-4.72,26.34-7.52c17.76-5.74,34.82-13.14,51.2-22.18c12.45-6.86,23.74-15.3,34.93-23.95
		c14.87-11.49,26.93-25.58,38.67-40.16c10.43-12.96,18-27.49,26.51-41.57c6.14-10.15,9.51-21.2,13.33-32.16
		c1.03-2.94,1.14-6.2,1.61-9.32c0.59-3.95,2.56-7.2,5.15-10.08c2.38-2.65,4.75-2.8,7.34-0.44c2.22,2.02,4.07,4.34,5.49,7.06
		c5.45,10.48,10.12,21.15,13.61,32.58c6.07,19.87,12.29,39.69,17.15,59.89c3.31,13.74,5.58,27.7,7.86,41.65
		c1.74,10.66,3.94,21.28,4.91,32.01c0.87,9.61,2.14,19.18,2.87,28.78c0.46,6.09-0.03,12.31,0.52,18.43
		c1.94,21.59,1.4,43.22,0.96,64.83c-0.38,18.6-1.82,37.17-3.48,55.7c-0.19,2.15-0.17,4.34,0,6.49c0.39,4.67-0.92,9.12-1.79,13.58
		c-3.35,17.28-5.25,34.83-9.96,51.88c-1.49,5.39-2.21,11.19-4.04,16.41c-3.01,8.59-5.82,17.27-9.04,25.79
		c-3.28,8.69-6.09,17.55-9.4,26.23c-2.13,5.58-5.52,10.51-9.57,14.93c-0.99,1.08-2.32,2.23-3.93,1.2c-1.5-0.97-2.19-2.58-1.83-4.36
		c0.66-3.25,1.13-6.6,2.29-9.68c2.85-7.52,3.25-14.81,0.85-22.69c-6.06-19.94-17.58-36.13-32.94-49.75
		c-13.86-12.29-29.58-21.32-48.45-22.37c-11.22-0.62-22.64,0.24-32.75,6.53c-2.77,1.72-5.19,3.52-6.15,6.86
		c-0.36,1.24-1.05,2.53-1.94,3.45c-1.7,1.73-3.45,3.96-6.39,2.14c-2.64-1.64-2.63-4.08-1.66-6.6c0.89-2.33,1.88-4.64,3.09-6.81
		c2.11-3.82,1.98-7.75,0.48-11.56c-4.1-10.39-9.79-19.98-15.34-29.64c-8.2-14.27-18.32-27.08-30.27-38.29
		c-14.08-13.21-28.24-26.55-44.32-37.25c-15.76-10.49-33.45-17.31-52.45-19.18c-9.05-0.89-18.24,0.46-26.91,3.94
		c-1.48,0.59-2.54,1.39-3.48,2.63c-7.42,9.67-16.01,18.03-25.69,25.58c-4.92,3.84-9.31,9.26-10.7,16.31
		c-1.79,9.13-5.51,17.82-6.73,27.11c-1.32,10.06-4.39,19.78-5.68,29.84c-2.31,17.98-5.33,35.85-7.99,53.77
		c-1.61,10.86-2.63,21.84-3.21,32.81c-0.55,10.34-3.07,20.38-3.62,30.71c-0.49,9.12-1.15,18.34-2.97,27.27
		c-3.44,16.89-3.07,34.14-5.71,51.08c-2.86,18.42-4.41,36.99-5.58,55.56c-0.39,6.15-1.97,12.12-1.79,18.33
		C431.38,809.83,427.41,811.81,426.64,816.11z"/>
</g>
</svg>
