<?xml version="1.0" encoding="utf-8"?>
<!-- Generator: Adobe Illustrator 24.0.2, SVG Export Plug-In . SVG Version: 6.00 Build 0)  -->
<svg version="1.1" id="Layer_1" xmlns="http://www.w3.org/2000/svg" xmlns:xlink="http://www.w3.org/1999/xlink" x="0px" y="0px"
	 viewBox="0 0 1009.79 1477.86" style="enable-background:new 0 0 1009.79 1477.86;" xml:space="preserve">
<style type="text/css">
	.st0{fill:#191919;}
</style>
<g>
	<path d="M644.94,166.85c0.57-0.26,1.22-0.42,1.68-0.8c2.94-2.46,5.88-4.94,8.74-7.49c1.46-1.3,3.13-2.14,4.85-3.01
		c3.9-1.97,7.93-2.28,12.12-1.5c0.16,0.03,0.3,0.46,0.34,0.71c0.05,0.3,0.09,0.71-0.07,0.9c-1.03,1.21-2.04,2.46-3.21,3.53
		c-2.14,1.96-4,4.13-5.61,6.53c-4.27,6.35-4.86,13.08-1.87,20.06c1.26,2.93,2.85,5.72,4.41,8.51c1.42,2.55,3.78,4.32,5.66,6.5
		c0.85,0.99,1.44,2.13,1.56,3.43c0.56,6.37,1.16,12.74,1.61,19.12c0.37,5.14-0.12,10.22-1.53,15.2c-0.44,1.54-1.01,3.07-1.22,4.64
		c-1.04,7.72-5.5,13.56-10.61,18.93c-3.97,4.17-8.44,7.81-13.47,10.73c-4.98,2.89-9.84,5.97-14.72,9.01
		c-0.5,0.31-0.84,0.94-1.16,1.47c-0.07,0.11,0.22,0.57,0.45,0.71c0.8,0.49,1.6,1.15,2.48,1.33c11.29,2.26,22.43,5.18,33.6,7.93
		c1.92,0.47,3.78,0.36,5.6-0.5c2.02-0.95,4.08-1.85,6.16-2.67c8.39-3.31,17.06-5.39,26.08-5.97c3.51-0.23,7.03-0.37,10.54-0.54
		c6.09-0.29,12.15,0.04,18.19,0.87c3.17,0.43,6.33,0.98,9.51,1.3c6.11,0.6,11.98,2.21,17.55,4.66c12.31,5.41,11.28,4.18,21.17,14.35
		c4.46,4.59,8.81,9.28,13.23,13.91c2.67,2.79,5.1,5.78,6.91,9.17c1.66,3.11,4.27,4.6,7.49,5.36c6.24,1.48,12.53,2.6,18.97,2.59
		c2.88,0,5.76-0.03,8.64-0.13c8.71-0.32,17.25,0.79,25.64,3.03c3.08,0.82,6.05,2.03,9.07,3.06c0.72,0.25,2.11-0.49,2.33-1.22
		c1.28-4.28,2.28-8.64,4.33-12.66c2.9-5.7,5.74-11.43,8.63-17.14c1.45-2.85,3.03-5.63,4.44-8.5c3.98-8.13,6.39-16.7,7.02-25.75
		c0.22-3.19,0.5-6.38,0.64-9.58c0.06-1.26-0.1-2.55-0.31-3.8c-0.28-1.68-1.2-2.99-2.86-3.52c-1.52-0.49-3.1-0.74-4.65-1.14
		c-3.73-0.96-7.3-2.2-10.46-4.57c-3.4-2.55-7.49-3.49-11.64-4.11c-4.46-0.66-8.92-0.54-13.4-0.41c-4.39,0.12-8.09-1.69-11.14-4.79
		c-1.8-1.83-3.26-3.93-4.26-6.33c-1.01-2.41-1.64-4.87-1.07-7.48c2.11-9.6,0.7-19.1-0.75-28.59c-0.29-1.88-1.05-3.68-1.6-5.51
		c-0.82-2.76-1.46-5.58-2.48-8.25c-2.44-6.38-0.1-11.95,2.9-17.3c1.55-2.76,3.75-5.15,5.71-7.67c1.45-1.86,3.44-2.79,5.75-3.11
		c1.11-0.15,2.84,0.74,3.12,1.75c0.34,1.22,0.44,2.52,0.87,3.7c0.31,0.85,0.83,1.88,1.56,2.28c1.69,0.93,3.13,1.98,4.38,3.51
		c1.85,2.27,4.68,3.3,7.19,4.68c2.01,1.11,3.62,2.63,4.97,4.44c0.76,1.02,1.51,2.1,1.99,3.27c1.33,3.25,2.54,6.55,3.75,9.86
		c0.66,1.82-0.22,3.83,0.65,5.63c0.1,0.21,0.4,0.48,0.58,0.46c0.29-0.03,0.71-0.21,0.82-0.44c1.77-3.74,2.88-7.76,5.13-11.32
		c0.81-1.28,1.08-2.99,1.32-4.55c0.67-4.51-0.02-8.93-1.24-13.28c-1.47-5.25-2.46-10.58-2.99-16.01c-0.31-3.23-0.14-6.35,1.29-9.37
		c1.41-2.98,1.59-6.11,0.94-9.37c-1-5.01-1.74-10.08-2.76-15.09c-0.91-4.47-3.92-7.19-8.03-8.79c-0.88-0.34-1.87-0.41-2.81-0.58
		c-1.08-0.2-1.7-1.05-1.9-1.92c-0.35-1.54-0.67-3.19-0.48-4.73c0.44-3.48,1.15-6.93,1.84-10.38c0.53-2.65,2.2-4.54,4.38-6.06
		c4.33-3.01,9.23-4.31,14.37-4.84c1.58-0.17,3.21,0.07,4.79-0.08c2.91-0.28,5.65-1.01,7.77-3.27c0.87-0.93,1.85-1.78,2.89-2.51
		c4.6-3.23,9.61-4.76,15.35-4.23c5.49,0.51,10.71,1.9,15.76,3.94c3.93,1.59,7.09,4.3,9.75,7.58c0.8,0.99,1.55,2.06,2.12,3.19
		c1.19,2.35,2.83,4.21,5.17,5.48c2.33,1.27,3.92,3.2,4.92,5.68c0.64,1.57,1.95,2.41,3.61,2.84c3.48,0.89,6.41,2.83,9.14,5.09
		c3.05,2.52,5.14,5.68,6.2,9.48c0.69,2.46,1.17,4.97,1.85,7.43c0.15,0.54,0.69,1.14,1.21,1.38c2.32,1.07,4.69,2.02,7.04,3
		c1.81,0.76,3.3,1.96,4.61,3.38c1.09,1.17,2.13,2.39,3.12,3.64c3.2,4.02,6.63,7.76,11,10.6c2.26,1.47,3.28,3.84,3.55,6.51
		c0.36,3.53,0.16,7.05-0.61,10.5c-1.81,8.11-3.71,16.2-5.58,24.29c-1.46,2.96-1.54,6.16-1.68,9.37c-0.41,9.3-1.87,18.41-4.76,27.31
		c-2.37,7.3-4.24,14.72-5.39,22.35c-0.95,6.35-1.5,12.71-1.52,19.11c-0.03,15.04,0.09,30.07,0.07,45.11c0,4.51,0.44,8.9,1.62,13.28
		c1.57,5.86,2.86,11.81,4.12,17.75c0.54,2.53,1.22,4.94,2.6,7.16c2.24,3.61,3.21,7.64,3.64,11.82c0.6,5.78,0.2,11.52-0.81,17.21
		c-0.79,4.41-1.66,8.8-1.91,13.28c-0.05,0.95-0.19,1.92-0.44,2.83c-1.47,5.24-2.46,10.58-3.56,15.9c-1.04,5-2.43,9.92-4.2,14.74
		c-1.32,3.59-2.41,7.27-3.24,11.03c-0.83,3.73-2.1,7.37-3.29,11.02c-0.99,3.04-1.94,6.06-2.26,9.29c-0.28,2.85-1.03,5.66-1.53,8.49
		c-0.46,2.58-1.54,4.86-3.16,6.9c-1.99,2.5-3.99,4.92-4.99,8.1c-0.79,2.51-2.97,4.11-5.02,5.67c-2.34,1.78-4.89,2.95-7.92,3
		c-7.36,0.12-14.66-0.17-21.98-1.32c-10.73-1.69-21.57-2.78-32.48-2.6c-2.87,0.05-5.77,0.2-8.61,0.61
		c-6.01,0.86-12.03,1.62-17.97,3.04c-9.35,2.23-18.88,3.47-28.51,3.72c-1.6,0.04-3.22,0.22-4.79,0.04
		c-8.56-0.97-17.2-1.4-25.57-3.72c-8.63-2.38-17.27-4.69-25.47-8.4c-2.02-0.91-4.25-1.38-6.38-2.03c-9.79-2.97-19.63-5.74-29.58-8.1
		c-0.99-0.23-1.86,0.21-2.57,0.92c-0.23,0.22-0.47,0.45-0.63,0.72c-5.33,8.74-10.57,17.52-14.64,26.94
		c-2.16,5-3.78,10.19-5.15,15.45c-1.38,5.26-2.89,10.49-3.99,15.8c-1.05,5.07-2.92,9.8-5.11,14.43c-3.15,6.64-6.32,13.27-9,20.13
		c-1.39,3.56-3.31,6.92-5.11,10.3c-1.65,3.1-3.42,6.15-5.23,9.17c-5.12,8.5-9.5,17.4-13.9,26.27c-4.69,9.45-8.72,19.19-10.49,29.75
		c-1,5.98-2.66,11.84-4.96,17.5c-1.2,2.95-2.15,6.03-2.95,9.12c-1.61,6.2-3.58,12.27-5.94,18.22c-0.24,0.59-0.44,1.2-0.68,1.79
		c-2.63,6.54-2.41,13.16-0.37,19.75c2.27,7.33,4.57,14.65,7.13,21.87c1.86,5.22,2.62,10.51,2.53,16.01
		c-0.17,9.92-0.25,19.83-0.39,29.75c-0.03,1.92-0.07,3.84-0.26,5.75c-0.68,7-1.47,13.99-2.11,21c-0.23,2.54-0.25,5.11-0.16,7.67
		c0.32,8.96,0.33,17.9-0.22,26.86c-0.37,6.06-0.19,12.15-0.25,18.23c-0.01,1.28,0.14,2.57,0.04,3.84c-0.78,9.67,0.98,19.1,2.45,28.6
		c1.42,9.14,3.19,18.28,2.91,27.62c-0.08,2.55,0.27,5.11,0.36,7.67c0.26,7.7-0.12,15.31-1.96,22.86
		c-1.96,8.07-3.44,16.25-5.66,24.28c-0.93,3.37-1.32,6.91-1.77,10.4c-0.65,5.1-1.97,10.04-3.12,15.03
		c-0.79,3.43-1.88,6.79-2.57,10.23c-1.64,8.2-4.36,16.03-7.6,23.71c-3.11,7.37-6.05,14.8-9.22,22.14
		c-2.42,5.6-4.15,11.41-5.84,17.24c-0.35,1.22-0.7,2.47-0.85,3.73c-0.73,6.36-1.42,12.72-2.08,19.08c-0.33,3.2-0.25,6.41,0.35,9.56
		c1.07,5.68,1.31,11.44,1.58,17.19c0.38,8,1.46,15.88,3.15,23.74c1.82,8.43,2.93,17.02,2.78,25.71c-0.05,2.9-0.57,5.65-1.52,8.43
		c-2.68,7.87-5.22,15.79-7.51,23.77c-1.41,4.93-3.01,9.77-4.69,14.6c-1.79,5.15-3.84,10.13-7.06,14.63
		c-1.65,2.31-2.81,5.03-3.84,7.7c-2.53,6.55-6.64,12.45-8.02,19.46c-0.74,3.76-2.29,7.32-2.53,11.21c-0.1,1.57-0.72,3.11-1.09,4.66
		c-1.19,4.98-2.17,9.99-2.41,15.13c-0.12,2.55-0.49,5.1-0.99,7.6c-1.01,5.08-0.94,10.18-0.57,15.29c0.14,1.91,0.48,3.81,0.66,5.72
		c0.42,4.47,0.41,8.88-0.62,13.34c-0.93,4.03-1.27,8.2-1.8,12.32c-0.33,2.57-0.09,5.09,0.89,7.54c0.83,2.08,1.47,4.23,2.27,6.32
		c2.09,5.47,5.2,10.24,9.78,13.99c2.23,1.82,4.34,3.79,6.56,5.62c5.78,4.79,10.19,10.57,12.81,17.65c0.22,0.6,0.46,1.2,0.76,1.76
		c0.63,1.17,1.56,1.98,2.86,2.35c1.23,0.35,2.44,0.77,3.68,1.08c4.44,1.1,8.41,3.03,11.68,6.29c0.96,0.96,2.24,1.24,3.53,1.14
		c1.91-0.15,3.81-0.46,5.72-0.65c6.9-0.68,11.33,3.04,13.69,8.34c0.9,2.02,1.46,4.24,1.86,6.42c0.46,2.51,0.93,5.01,1.56,7.5
		c1.09,4.36,1.57,8.8,0.68,13.31c-0.59,2.96-1.92,5.4-4.41,7.13c-1.04,0.72-2.19,1.3-3.31,1.9c-0.6,0.33-1.26,0.28-1.82-0.15
		c-1.51-1.16-2.98-2.38-4.48-3.54c-1.1-0.85-2.34-0.74-3.36,0.29c-0.67,0.68-1.31,1.4-1.96,2.11c-0.88,0.96-1.91,1.69-3.18,2.03
		c-1.54,0.41-3.07,0.9-4.63,1.25c-4.37,0.97-8.73,1.98-12.97,3.44c-2.47,0.85-5.03,0.9-7.59,0.66c-5.5-0.52-10.62-2.21-15.39-4.98
		c-3.59-2.09-7.18-4.19-10.43-6.8c-0.46-0.37-1.16-0.24-1.72,0.22c-0.98,0.8-2.26,1.49-2.81,2.54c-1.73,3.31-4.44,5.39-7.7,6.91
		c-0.85,0.4-1.78,0.9-2.67,0.89c-2.94-0.05-5.68,0.68-8.46,1.49c-8.3,2.42-16.87,3.61-25.26,5.63c-1.23,0.3-2.54,0.42-3.81,0.43
		c-7.35,0.06-14.71,0.13-22.06,0.03c-2.55-0.03-5.1-0.43-7.62-0.86c-3.47-0.59-6.92-1.26-10.47-1.1c-1.63,0.08-3.15-0.48-4.59-1.22
		c-3.43-1.77-6.55-4-9.32-6.68c-6.29-6.08-10.87-13.41-14.84-21.1c-1.44-2.79-2.14-6.02-2.83-9.12c-0.49-2.18-0.21-4.5,0.56-6.63
		c1.08-3,2.15-6.04,3.56-8.9c1.7-3.45,3.21-6.96,4.75-10.47c3.46-7.91,7.07-15.77,12.61-22.53c0.61-0.74,1.22-1.51,1.62-2.37
		c2.46-5.2,4.9-10.4,7.25-15.65c0.51-1.15,0.63-2.47,0.94-3.71c1.57-6.22,2.54-12.46,2.09-18.96c-0.38-5.41-0.23-10.86-0.79-16.29
		c-0.33-3.2-0.88-6.33-1.78-9.41c-0.99-3.38-1.93-6.77-2.8-10.17c-0.48-1.85-0.97-3.73-1.14-5.62c-0.38-4.17-1.35-8.24-2.52-12.2
		c-2.16-7.36-4.64-14.63-7.17-21.86c-1.59-4.55-4.25-8.58-6.76-12.67c-2.01-3.27-4.19-6.46-5.87-9.9
		c-2.94-6.03-5.81-12.12-8.24-18.37c-4.01-10.33-5.28-21.09-3.43-32.07c0.8-4.72,1.59-9.45,2.91-14.09c1.4-4.91,2.57-9.9,3.58-14.91
		c2.12-10.51,6.54-20.07,12.11-29.07c5.57-9.02,10.09-18.52,14.33-28.19c0.8-1.83,1.1-3.77,0.59-5.62
		c-1.54-5.59-1.58-11.4-2.78-17.04c-0.54-2.54-0.46-5.09-0.03-7.63c0.16-0.95,0.33-1.9,0.58-2.82c2.52-9.33,2.85-18.95,3.78-28.5
		c0.15-1.59,0.19-3.19,0.25-4.79c0.13-3.22-0.28-6.35-1.25-9.45c-2.69-8.55-4.78-17.25-6.62-26.02c-0.46-2.19-0.94-4.39-1.16-6.6
		c-1.02-10.51-2.19-21.01-2.12-31.59c0.01-1.6-0.15-3.19-0.22-4.79c-0.03-0.85-0.41-1.33-1.05-1.09c-0.54,0.2-1.14,0.59-1.41,1.07
		c-0.47,0.82-0.72,1.76-1.03,2.67c-1.94,5.75-4.03,11.44-6.49,17.01c-2.73,6.18-6.04,11.98-10.14,17.34
		c-1.16,1.52-2.26,3.1-3.31,4.7c-1.6,2.41-2.83,5-3.72,7.76c-0.5,1.55-0.72,3.09-0.47,4.71c0.93,6.03,2.19,12.01,4.72,17.55
		c3.11,6.82,4.41,13.99,5.25,21.32c0.33,2.87,0.3,5.75-0.3,8.6c-0.79,3.75-1.63,7.5-2.32,11.27c-1.54,8.38-5.36,15.7-10.36,22.46
		c-2.47,3.34-5.01,6.64-7.69,9.83c-3.2,3.81-4.97,8.12-5.52,13.04c-0.42,3.81-1.2,7.59-1.54,11.41c-0.47,5.15-1.82,10.06-3.55,14.89
		c-0.97,2.71-1.8,5.48-2.92,8.13c-4.5,10.61-7.75,21.66-11.69,32.47c-1,2.75-1.39,5.58-1.35,8.48c0.01,0.63,0.03,1.32,0.27,1.89
		c1.61,3.86,3.51,7.61,6.91,10.18c2.84,2.14,5.18,4.74,7.67,7.22c1.64,1.63,2.73,3.55,3.5,5.66c4.33,11.85,6.68,24.01,5.69,36.69
		c-0.25,3.19-0.5,6.38-0.89,9.55c-0.56,4.57-2.36,8.61-5.62,11.94c-1.12,1.14-2.19,2.33-3.3,3.48c-4.29,4.42-7.3,9.69-10.08,15.1
		c-0.42,0.82-0.57,1.85-0.59,2.78c-0.03,1.27,0.04,2.58,0.33,3.81c3.14,13.18,7.88,25.67,16.22,36.53
		c3.34,4.35,6.03,9.02,7.96,14.16c1.34,3.59,2.74,7.16,5.3,10.13c0.89,1.02,0.98,2.44,0.7,3.67c-1.33,5.93-2.8,11.82-4.18,17.74
		c-0.43,1.86-1.06,3.75-1.05,5.63c0.05,6.8-1.45,13.34-3.13,19.84c-0.74,2.87-0.92,5.6-0.07,8.48c0.91,3.06,1.5,6.21,2.25,9.32
		c0.92,3.78,1.07,7.6,0.62,11.44c-0.71,6.07-2.07,11.97-4.82,17.48c-1.14,2.29-2.29,4.58-3.48,6.84
		c-3.19,6.08-7.53,11.02-13.67,14.34c-2.8,1.51-5.62,3.19-7.96,5.31c-2.81,2.54-5.76,2.28-8.94,1.56c-0.3-0.07-0.56-0.31-0.84-0.46
		c-0.91-0.5-1.81-2.4-1.51-3.26c0.74-2.11,1.57-4.19,2.21-6.33c0.14-0.46-0.25-1.23-0.62-1.67c-1.47-1.76-3.55-1.75-4.81-0.02
		c-1.32,1.81-2.61,3.64-3.86,5.5c-0.89,1.32-1.67,2.73-2.56,4.05c-0.35,0.52-0.86,0.93-1.29,1.39c-0.94,1.01-3.54,0.53-4.12-0.81
		c-0.38-0.87-0.82-1.76-0.96-2.67c-0.37-2.53-0.53-5.09-0.9-7.62c-0.24-1.68-1.31-2.84-2.82-3.62c-0.81-0.42-2.13-0.3-2.55,0.41
		c-0.65,1.08-1.44,2.16-1.75,3.35c-0.66,2.47-0.97,5.02-1.56,7.51c-0.44,1.86-1.04,3.69-1.69,5.48c-0.96,2.67-2.57,2.44-4.56,1.45
		c-1.42-0.71-2.78-1.58-4.07-2.51c-1.57-1.13-2.88-2.53-3.63-4.37c-0.48-1.18-1.01-2.35-1.5-3.53c-0.64-1.53-1.7-2.79-3.11-3.54
		c-3.16-1.68-5.51-4.34-8.3-6.45c-3.69-2.78-6.48-6.12-8.14-10.43c-0.08-0.2-0.55-0.35-0.84-0.35c-0.18,0-0.48,0.34-0.5,0.54
		c-0.13,1.58-0.17,3.17-0.31,4.75c-0.22,2.46-1.44,3.79-4.14,4.6c-0.61,0.18-1.25,0.41-1.87,0.39c-0.6-0.01-1.35-0.14-1.77-0.51
		c-2.37-2.15-4.58-4.45-6.05-7.36c-1.04-2.08-2.7-3.54-4.68-4.68c-1.11-0.64-2.23-1.27-3.28-2c-2.95-2.05-5.3-4.72-6.73-7.98
		c-2.44-5.57-4.59-11.24-4.96-17.44c-0.16-2.57-0.21-5.1,0.02-7.66c0.51-5.75,0.32-11.51-0.08-17.26
		c-0.24-3.53-0.77-6.98-2.12-10.29c-0.84-2.07-1.52-4.21-2.13-6.37c-1.34-4.73-1.38-9.47,0.29-14.16c0.54-1.51,0.98-3.05,1.57-4.53
		c3.3-8.36,5.7-16.97,7.2-25.82c0.05-0.32,0.07-0.64,0.17-0.94c2.03-6.26,2.15-12.55,0.44-18.92c-0.41-1.53-0.46-3.16-0.63-4.75
		c-1.07-9.54-2.47-19.02-5.21-28.25c-2.98-10.02-3.36-20.12-1.29-30.37c2.34-11.59,4.47-23.23,6.91-34.8
		c0.74-3.49,1.37-6.89,0.71-10.42c-0.48-2.54-0.57-5.09-0.09-7.64c0.66-3.55,0.16-6.93-0.79-10.4c-2.01-7.4-3.57-14.91-4.31-22.57
		c-0.4-4.21-1.92-8.09-4.14-11.65c-2.03-3.25-4.19-6.43-6.43-9.55c-3.58-5.01-6.04-10.52-7.68-16.42c-0.26-0.92-0.49-1.86-0.66-2.8
		c-3.29-18-4.78-36.14-4.02-54.44c0.22-5.47,1.12-10.84,2.47-16.1c2.08-8.06,4.79-15.92,8.73-23.3c3.62-6.79,6.34-13.97,9.45-20.99
		c0.39-0.87,0.57-1.83,0.82-2.76c0.34-1.28,0.25-2.54-0.4-3.7c-0.47-0.83-1.01-1.63-1.52-2.43c-2.29-3.56-3.52-7.47-4.18-11.64
		c-1.47-9.21-1.75-18.45-1.09-27.75c0.54-7.66,0.95-15.33,1.42-22.99c0.47-7.69,0.13-15.35-1-22.98
		c-1.12-7.59-2.22-15.19-3.52-22.75c-0.59-3.46-1.62-6.84-2.46-10.26c-3.22-13.1-5.11-26.34-4.96-39.88
		c0.09-8.04,0.89-15.98,2.44-23.83c3.93-19.83,9.81-39.05,18.63-57.31c4.19-8.68,8.91-16.99,15.79-23.89
		c0.67-0.67,1.31-1.44,1.72-2.28c1.8-3.73,3.87-7.36,3.85-11.72c0-1.58,0.47-3.16,0.64-4.74c0.14-1.26,0.34-2.56,0.18-3.8
		c-1.15-9.3-0.08-18.52,0.97-27.74c0.18-1.58,0.53-3.16,0.96-4.69c2.11-7.39,3.69-14.89,4.93-22.47c0.1-0.63,0.15-1.28,0.3-1.9
		c0.81-3.42,1.95-6.78,1.87-10.35c-0.08-3.58-1.73-6.8-2.35-10.27c-0.45-2.51-1.34-4.93-1.9-7.43c-1.19-5.34-2.73-10.52-5.88-15.08
		c-2.45-5.96-6.65-10.9-9.7-16.5c-0.4-0.74-1.88-0.71-2.37-0.01c-0.18,0.26-0.5,0.44-0.63,0.71c-2.26,4.6-5.01,8.92-7.64,13.31
		c-3.12,5.21-6.04,10.54-8.51,16.11c-2.33,5.26-4.91,10.41-7.28,15.66c-1.05,2.32-1.92,4.74-2.8,7.13
		c-1.35,3.66-1.81,7.44-1.51,11.33c0.57,7.34,1.09,14.67,3.39,21.75c0.68,2.09,0.85,4.4,0.97,6.62c0.32,6.08,0.02,12.15-0.54,18.21
		c-0.26,2.89-0.84,5.74-1.96,8.38c-3.12,7.36-6.52,14.55-11.52,20.94c-6.32,8.06-12.89,15.9-19.73,23.51
		c-2.98,3.32-6.26,6.41-9.61,9.37c-9.12,8.05-18.03,16.3-26.06,25.47c-1.68,1.92-3.65,3.58-5.41,5.44
		c-4.19,4.43-7.91,9.21-10.58,14.75c-1.02,2.11-1.23,4.28-0.99,6.54c0.14,1.29,0.55,2.5,1.33,3.55c0.76,1.02,1.51,2.08,2.42,2.96
		c2.3,2.23,4.57,4.5,7.05,6.5c3.05,2.47,5.37,5.43,7.21,8.86c1.05,1.97,2.23,3.88,3.4,5.79c2.37,3.87,4.12,8.03,4.57,12.52
		c0.33,3.26,1.34,6.21,2.5,9.19c0.81,2.08,1.31,4.29,2.1,6.37c1.14,2.98,2.45,5.9,3.62,8.87c0.96,2.45,2.42,4.49,4.53,6.06
		c0.26,0.19,0.51,0.39,0.77,0.57c4.74,3.24,7.49,7.72,8.55,13.35c0.82,4.4,1.86,8.76,2.75,13.14c0.96,4.7,1.75,9.42,3.74,13.85
		c0.93,2.07,1.22,4.31,1.2,6.56c-0.01,0.93-0.2,1.95-0.61,2.77c-0.42,0.82-1.18,1.52-2.22,1.63c-0.63,0.07-1.35,0.24-1.88,0.02
		c-3.3-1.39-6.67-1.78-10.27-1.71c-8.33,0.17-15.74-2.33-21.59-8.6c-0.43-0.46-0.94-0.86-1.44-1.25c-0.92-0.72-2.09-0.61-2.35,0.33
		c-0.42,1.54-1.02,3.02-1.46,4.56c-0.83,2.91-0.56,5.72,1.13,8.28c3.92,5.94,5.79,12.79,8.59,19.22c0.63,1.44,0.9,3.06,1.21,4.62
		c0.49,2.51,0.82,5.05,1.32,7.56c0.32,1.61,0.24,3.17-0.15,4.74c-0.85,3.4-2.87,6.45-2.96,10.08c-0.08,3.52,0.17,7.01,0.62,10.5
		c0.1,0.78-0.73,1.68-1.13,2.52c-3,1-4.42,3.45-5.67,6.1c-0.57,1.19-1.69,1.91-2.89,2.41c-3.69,1.54-7.41,1.7-11.22,0.33
		c-2.74-0.99-5.2-2.41-7.52-4.15c-1.03-0.77-2.3-1.07-3.64-0.86c-0.63,0.1-1.27,0.13-1.91,0.2c-3.05,0.36-5.86-0.58-8.01-2.53
		c-4.33-3.91-9.33-6.71-14.28-9.64c-4.12-2.44-8.31-4.85-11.65-8.37c-1.72-1.82-3.76-2.31-6.09-2.04c-3.52,0.4-7.02,0.3-10.53-0.09
		c-3.94-0.44-7.64-1.72-10.4-4.49c-5.67-5.69-12.17-10.35-18.27-15.51c-2.72-2.3-5.06-4.9-6.67-8.09c-2.5-4.92-4-10.07-3.74-15.67
		c0.24-5.14,1.15-10.18,2.27-15.17c0.91-4.09,1.36-8.19,1.57-12.35c0.5-9.91,1.54-19.77,3.18-29.56c0.8-4.81,0.88-9.51-0.67-14.22
		c-0.69-2.11-0.84-4.4-1.38-6.57c-0.46-1.86-0.84-3.81-1.72-5.47c-3.67-6.89-3.53-14.15-2.38-21.53c1.23-7.91,3.24-15.65,5.51-23.32
		c0.38-1.28,1.14-2.25,2.16-3.07c3.33-2.68,5.54-6.11,6.99-10.12c0.87-2.39,1.58-4.88,3.02-7.04c0.35-0.52,0.65-1.12,0.8-1.73
		c1.86-7.44,4.87-14.58,5.8-22.25c1.01-8.27,1.73-16.55,0.7-24.88c-0.63-5.11-0.41-10.19-0.02-15.31c0.92-12.19,3.7-24,6.83-35.75
		c0.41-1.54,1.05-3.02,1.65-4.49c3.52-8.58,6.99-17.18,10.63-25.7c2.52-5.89,5.62-11.48,9.23-16.78c4.7-6.91,8.22-14.44,11.36-22.15
		c0.72-1.77,1.17-3.65,1.76-5.47c0.89-2.78,1.16-5.61,0.92-8.52c-0.55-6.37-1.03-12.75-1.51-19.13c-0.69-9.3-0.27-18.47,1.77-27.65
		c1.95-8.74,3.67-17.51,6.61-26c1.47-4.24,2.37-8.63,3.31-13.01c0.34-1.56,0.46-3.2,1.01-4.67c0.92-2.46,1.16-4.98,1.16-7.54
		c-0.01-7.04-0.05-14.08-0.15-21.12c-0.02-1.59-0.21-3.2-0.52-4.76c-1.24-6.27-2.42-12.56-3.9-18.77
		c-1.49-6.26-1.94-12.64-2.68-18.99c-0.26-2.2-0.16-4.49,0.09-6.7c0.43-3.81,1.21-7.56,1.12-11.44c-0.04-1.54,0.54-3.14,1.05-4.64
		c1.53-4.55,3.33-9.01,5.8-13.14c3.78-6.32,7-12.94,10.35-19.48c3.37-6.57,7.38-12.72,11.62-18.74c2.05-2.91,4.53-5.31,7.58-7.23
		c2.97-1.86,5.82-3.95,8.57-6.14c9.35-7.43,19.69-13.07,30.86-17.23c2.4-0.89,4.78-1.82,7.18-2.71c1.2-0.44,2.52-0.66,3.61-1.28
		c7.83-4.46,16.58-6.7,24.7-10.47c8.12-3.76,16.3-7.41,24.38-11.28c8.07-3.87,16.04-7.97,24.07-11.92c3.46-1.7,6.74-3.62,9.69-6.15
		c2.9-2.49,6.04-4.7,9-7.13c0.36-0.29,0.47-1.27,0.27-1.75c-0.34-0.86-0.88-1.74-1.57-2.34c-2.88-2.54-5.44-5.38-7.81-8.38
		c-0.15-0.19-0.16-0.64-0.03-0.85c0.32-0.51,0.66-1.19,1.16-1.39c1.89-0.75,3.76,0.1,5.65,0.25c0.89,0.07,1.82,0.25,2.51-0.58
		c-1.55-1.13-3.25-1.95-5.04-2.68c-5.02-2.05-9.98-4.23-14.94-6.4c-0.58-0.25-0.73-0.95-0.45-1.64c0.24-0.58,0.52-1.2,0.94-1.65
		c1.1-1.16,2.2-2.33,3.45-3.32c3.49-2.8,6.78-5.81,9.93-8.99c-0.25-0.17-0.55-0.53-0.75-0.48c-3.75,0.9-7.21,2.51-10.62,4.27
		c-2.56,1.32-5.09,2.69-7.7,3.9c-0.82,0.38-1.84,0.38-2.78,0.49c-1.13,0.14-2.47-1.53-2.2-2.57c0.89-3.5,2.67-6.5,5.21-9.03
		c5-4.97,10.14-9.77,16.34-13.27c1.13-0.64,2.07-1.44,2.62-2.87c-1.58-0.98-3.25-1.91-4.82-2.98c-6.58-4.49-9.69-10.86-9.89-18.72
		c-0.05-1.91,0.08-3.84,0.24-5.75c0.42-5.11,0.4-10.23,0.17-15.35c-0.22-4.8-0.56-9.58-1.97-14.22c-0.36-1.19-0.31-2.52-0.41-3.78
		c-0.08-1.11,1.43-2.56,2.51-2.38c1.25,0.2,2.55,0.3,3.73,0.72c4.23,1.51,8.62,2.38,12.96,3.46c1.22,0.3,2.53,0.27,3.8,0.33
		c0.29,0.01,0.58-0.23,0.88-0.36c-0.16-0.23-0.26-0.58-0.48-0.67c-4.11-1.73-8.26-3.4-12.36-5.15c-1.79-0.76-3.32-1.92-4.42-3.57
		c-0.16-0.24-0.23-0.56-0.26-0.85c-0.07-0.73,0.36-1.2,1.17-1.09c3.49,0.51,6.98,0.61,10.5,0.52c3.19-0.08,6.39,0.15,9.58,0.35
		c3.53,0.22,7.06,0.17,10.52-0.45c2.18-0.39,4.29-1.23,6.43-1.86c7.2-4.7,8.18-4.41,7.22-12.74c-0.15-1.27-0.23-2.55-0.43-3.81
		c-0.53-3.26-1.83-6.09-4.51-8.2c-4.03-3.18-7.74-6.7-10.91-10.76c-1.18-1.51-2.36-3.04-3.33-4.68c-0.8-1.36-1.51-2.86-1.86-4.4
		c-1.44-6.27-2.39-12.58-0.97-19.01c0.92-10.44,5.07-19.73,10.2-28.67c1.59-2.77,3.23-5.52,4.87-8.27
		c2.13-3.57,4.19-7.17,5.31-11.23c0.25-0.91,0.73-1.77,1.15-2.63c2.49-5.03,6.66-7.62,12.16-8.08c1.25-0.1,2.57,0.03,3.79,0.35
		c4.16,1.07,7.69,3.08,9.9,6.97c0.41,0.73,1.87,0.38,2.34-0.48c0.31-0.55,0.63-1.1,0.91-1.67c0.71-1.43,1.39-2.88,2.11-4.3
		c1.79-3.56,4.49-6.13,8.14-7.81c1.78-0.82,3.58-1.43,5.51-1.47c2.87-0.06,5.75,0.03,8.63,0.05c0.32,0,0.63-0.05,0.95-0.06
		c1.01-0.05,1.22-0.69,0.3-1.08c-3.87-1.64-7.9-2.49-12.14-1.63c-0.3,0.06-0.66,0-0.94-0.12c-0.58-0.24-1.37-0.42-1.61-0.87
		c-0.22-0.41,0.02-1.26,0.35-1.72c0.55-0.77,1.31-1.39,2.02-2.03c2.41-2.22,5.02-3.91,8.53-3.78c1.26,0.05,2.3-0.75,3.17-1.84
		c3.19-4,6.42-7.97,9.79-11.82c2.87-3.27,6.71-4.83,10.96-5.36c0.93-0.12,1.97-0.08,2.84,0.22c5.44,1.85,11.02,3.38,16,6.38
		c2.74,1.65,5.68,2.89,8.38,4.64c4.29,2.79,8.46,5.69,12.23,9.16c0.42,0.39,1.35,0.21,1.61-0.41c0.97-2.34,1.72-4.78,2.66-7.13
		c0.48-1.21,1.38-2.13,2.62-2.64c0.71-0.3,1.29-0.14,1.66,0.44c0.33,0.53,0.76,1.07,0.88,1.65c0.46,2.19,0.72,4.42,1.23,6.6
		c0.58,2.48,1.36,4.92,2.05,7.38c0.35,1.26,1.02,2.33,1.94,3.26c2.25,2.27,4.31,4.74,7.07,6.46c0.54,0.34,1.02,0.78,1.53,1.15
		c10.11,7.31,20.07,14.8,29.88,22.51c0.66,0.52,1.98,0.17,2.39-0.68c0.56-1.14,1.03-2.32,1.6-3.46c0.57-1.14,1.12-2.3,1.83-3.35
		c0.73-1.08,1.8-1.87,3.14-1.99c1.9-0.18,3.82-0.32,5.73-0.25c0.91,0.03,1.87,0.44,2.68,0.91c1.1,0.63,2.17,1.38,3.09,2.25
		c1.17,1.09,2.28,2.26,3.23,3.54c1.52,2.06,3.93,3.31,5.02,5.75c1.43,3.21,3.01,6.36,3.87,9.79c0.93,3.71,2.27,7.32,2.08,11.26
		c-0.15,2.92,0.78,5.7,1.69,8.43c1.52,4.55,3.21,9.04,4.19,13.75c0.12,0.57,0.58,1.19,1.06,1.52c1.05,0.72,2.24,1.23,3.33,1.9
		c1.89,1.19,3.85,2.31,5.6,3.68c4.27,3.36,6.38,7.95,6.69,13.29c0.23,3.82,0.11,7.66,0.17,11.49c0.01,0.85,0.46,1.2,1.22,1.03
		c0.29-0.06,0.66-0.1,0.82-0.29c1-1.24,2.12-2.43,2.87-3.82c1.36-2.52,2.64-5.11,3.13-8.01c0.1-0.58,0.58-1.1,0.86-1.65
		c0.32-0.62,1.77-0.96,2.58-0.71c1.66,0.52,2.8,1.66,3.36,3.18c0.99,2.7,1.79,5.47,2.6,8.23c0.45,1.53,0.72,3.11,1.14,4.66
		c0.7,2.59,0.3,5.05-0.62,7.51c-1.24,3.34-3.28,6.22-5.22,9.14c-1.6,2.4-3.19,4.8-4.33,7.45c-0.35,0.81-0.18,1.85-0.25,2.79
		L644.94,166.85z M925.61,113.23c-0.2-2.06-0.35-3.96-0.58-5.86c-0.12-1.01-0.88-1.65-1.51-2.37c-0.45-0.52-1.04-0.91-1.67-0.64
		c-0.5,0.21-1.14,0.78-1.19,1.25c-0.49,4.11-0.93,8.23-1.25,12.36c-0.15,1.9-0.11,3.83,0.06,5.72c0.18,1.95,1.06,3.65,2.56,4.96
		c0.16,0.14,0.53,0.16,0.74,0.09c0.29-0.1,0.68-0.3,0.76-0.54C925.18,123.29,924.8,118.11,925.61,113.23z"/>
	<path class="st0" d="M500.17,312.95c0.48-0.88,0.6-1.83,0.19-2.72c-0.52-1.16-1.29-2.22-1.77-3.39c-2.65-6.56-8.35-8.34-14.55-9.2
		c-2.52-0.35-5.13-0.4-7.6,0.43c-4.26,1.43-8.65,2.19-13.06,2.93c-1.87,0.31-3.67,1.04-5.5,1.56c-1.6,0.46-2.2-0.15-1.93-1.9
		c0.14-0.9,0.19-1.8,0.29-2.75c-1.79-0.21-3.38-0.37-4.95-0.59c-4.8-0.65-9.48-0.26-14.23,0.84c-8.09,1.88-16.35,2.77-24.68,2.7
		c-1.96-0.02-3.81-0.38-5.55-1.24c-2.57-1.27-5.23-2.42-7.63-3.97c-6.17-3.98-11.9-8.53-17.25-13.57c-0.18-0.17-0.18-0.61-0.14-0.9
		c0.03-0.24,0.21-0.61,0.4-0.66c2.44-0.62,5.04-0.51,7.31-1.96c0.71-0.45,1.85-0.28,2.8-0.29c1.91-0.02,3.83,0.13,5.74,0.05
		c4.79-0.19,9.55-0.25,14.29,0.82c2.87,0.65,5.72,0.05,8.39-1.17c0.22-0.1,0.4-0.46,0.45-0.73c0.1-0.56-0.33-0.92-1.16-0.91
		c-3.83,0.05-7.66,0.07-11.49,0.21c-8.04,0.3-15.89-1.18-23.71-2.69c-2.48-0.48-4.99-1.37-6.9-3.13c-2.18-2.02-4.89-2.96-7.46-4.2
		c-0.95-0.46-1.17-1.58-0.43-2.2c6.89-5.73,14.1-10.89,22.72-13.82c3.37-1.15,6.82-1.59,10.26-2.23c0.57-0.11,1.12-0.55,1.59-0.94
		c0.17-0.14,0.13-0.62,0.07-0.92c-0.05-0.24-0.25-0.59-0.46-0.64c-3.73-1.03-7.57-1.03-11.36-0.71c-4.43,0.38-8.88,0.87-13.12,2.39
		c0,0,0.19-0.23,0.19-0.23c-0.45,0.37-0.91,0.74-1.36,1.12c0.46,0.37,0.91,0.74,1.37,1.11c0,0-0.22-0.23-0.22-0.23
		c-0.36,0.49-0.64,1.29-1.1,1.42c-4.64,1.29-8.93,3.44-13.31,5.36c-2.92,1.28-5.89,2.46-8.85,3.64c-0.23,0.09-0.64-0.1-0.9-0.27
		c-0.55-0.37-0.76-0.95-0.58-1.61c0.25-0.91,0.51-1.83,0.86-2.71c0.22-0.56,0.46-1.32,0.92-1.55c2.91-1.45,5.16-3.74,7.64-5.74
		c7.02-5.65,14.77-10.05,22.97-13.74c3.56-1.6,7.39-1.85,11.1-2.71c0.79-0.18,1.05-0.75,0.73-1.5c-0.11-0.26-0.35-0.48-0.58-0.66
		c-0.25-0.19-0.53-0.37-0.83-0.43c-2.52-0.52-5.11-0.93-7.58-0.06c-1.97,0.7-3.67,0.32-5.55-0.24c-4.97-1.46-9.31-4.19-13.81-6.6
		c-1.17-0.63-1.9-1.73-2.32-2.95c-0.82-2.42-1.58-4.86-1.33-7.49c0.21-2.23,0.4-4.46,0.49-6.69c0.14-3.51,0.19-7.02,0.25-10.53
		c0.04-2.38-0.83-4.34-2.74-5.83c-1.33-1.04-1.9-2.5-2.2-4.12c-0.58-3.14-1.2-6.27-1.82-9.4c-0.5-2.53,0.62-3.46,3.27-2.51
		c3.93,1.41,7.96,2.26,12.05,3.02c5.41,0.99,10.81,1.02,16.24,0.76c0.87-0.04,1.73-0.67,2.55-1.11c0.23-0.12,0.32-0.53,0.45-0.81
		c0.26-0.57-0.01-1.18-0.83-1.24c-6.46-0.54-12.42-2.85-18.33-5.23c-1.78-0.72-3.57-1.34-5.39-1.9c-1.27-0.39-2.2-1.6-1.62-1.96
		c0.47-0.29,1.01-0.69,1.51-0.67c3.51,0.17,7.05,0.21,10.52,0.73c6.78,1.03,13.39-0.06,20.02-1.08c1.23-0.19,2.48-0.7,3.55-1.35
		c2.46-1.49,4.84-3.1,7.19-4.77c1.12-0.79,2.32-1.1,3.59-0.95c3.11,0.37,5.62-0.81,7.85-2.83c0.71-0.64,1.35-1.38,2.12-1.94
		c6.16-4.49,10.03-10.64,12.81-17.59c0.71-1.78,1.35-3.59,2.02-5.39c0.09-2.05-1.49-3.46-2.05-5.27c-0.39-1.26-0.73-2.51-0.11-3.7
		c0.76-1.48,0.72-3.04,0.86-4.62c0.07-0.83,0.77-1.05,1.44-0.59c0.78,0.54,1.54,1.12,2.26,1.75c0.75,0.66,1.61,1.12,2.57,1.09
		c2.23-0.07,4.49-0.05,6.67-0.47c5.6-1.07,6.53-0.75,8.54-7.39c0.28-0.92,0.65-1.81,0.89-2.73c0.42-1.57,0.45-3.18,0.13-4.75
		c-0.77-3.78-2.1-7.38-3.98-10.75c-2.03-3.63-4.33-7.09-6.95-10.33c-3.22-3.98-6.31-8.05-9.12-12.33c-1.95-2.98-3.21-6.24-4.23-9.61
		c-0.56-1.88-0.54-3.82,0.1-5.67c2.22-6.38,5.18-12.43,9.44-17.68c2.25-2.77,5.58-4.21,9.18-4.69c4.17-0.55,8.32-0.25,12.4,0.61
		c4.37,0.93,8.78,1.81,12.89,3.65c2.36,1.06,4.78,1.81,7.37,1.94c1.42,2.17,3.64,3.42,5.66,4.89c0.79,0.57,1.72,0.63,2.66,0.28
		c-0.96,0.81-1.92,1.62-2.88,2.44c-1.01,0.86-1.28,1.58-0.86,2.41c3.17,6.22,6.34,12.44,9.56,18.64c0.27,0.52,0.85,0.9,1.35,1.27
		c0.19,0.14,0.59,0.16,0.8,0.06c0.23-0.12,0.55-0.48,0.51-0.67c-0.53-2.6,0.29-5.01,0.85-7.48c0.51-2.24,0.24-4.48-1.05-6.42
		c-1.76-2.64-3.6-5.23-5.52-7.76c-0.75-0.99-1.7-1.9-2.98-2.27c-1.45-2.8-3.84-4.47-6.71-5.52c-0.44-0.16-1.1,0.26-1.66,0.41
		c0.48-0.93,0.35-1.8-0.37-2.52c-1.59-1.59-3.56-2.61-5.53-3.63c-1.96-1.02-3.98-1.93-5.88-3.05c-1.24-0.73-1.45-1.93-0.71-3.22
		l-0.17,0.17c1.94-0.17,3.81,0.16,5.65,0.76c11.54,3.76,21.16,10.27,28.62,19.9c0.53,0.68,1.07,0.74,1.42,0.18
		c0.15-0.24,0.3-0.61,0.23-0.85c-1.52-5.02-4.22-9.14-8.58-12.26c-7.08-5.07-14.78-8.78-23.1-11.27c-2.44-0.73-4.92-1.35-7.33-2.17
		c-0.47-0.16-0.87-0.95-1.02-1.53c-0.49-1.96-0.08-3.86,1.04-5.48c2.66-3.84,6.6-5.91,10.84-7.51c6.44-0.95,12.72-0.72,18.65,2.4
		c6.91,3.63,12.71,8.43,16.95,15.09c4.14,6.5,7.49,13.36,10,20.61c2.62,7.56,4.29,15.35,5.2,23.31c0.47,4.14,0.45,8.28-0.14,12.41
		c-0.13,0.93-0.25,1.89,0.29,2.76c0.16,0.25,0.34,0.59,0.59,0.67c0.74,0.24,1.31-0.01,1.53-0.64c2.27-6.48,2.27-13.13,1.55-19.85
		c-0.85-7.98-2.59-15.77-5.45-23.24c-1.57-4.1-1.73-8.03-0.94-12.18c0.18-0.97,0.67-1.73,1.49-2.32c0.65-0.46,1.27,0.09,1.71,1.57
		c0.09,0.31,0.15,0.62,0.22,0.93c0.07,0.31,0.14,0.62,0.22,0.93c2.03,7.83,5.64,14.94,10.44,21.37c4.39,5.88,8.62,11.86,12.63,18.01
		c0.26,0.4,1.09,0.42,1.65,0.62c0,0,0.12,0.43,0.12,0.43l-0.37-0.21c0.35-1.27,0.35-2.53-0.26-3.72c-2.34-4.56-4.92-8.97-8.18-12.94
		c-2.44-2.97-4.69-6.04-6.12-9.64c-0.3-0.76-0.17-0.98,0.58-0.72c0.56,0.19,1.25,0.23,1.66,0.6c6.93,6.16,14.32,11.72,21.85,17.13
		c3.63,2.6,6.83,5.75,10.58,8.24c2.39,1.59,3.73,4.33,4.91,6.98c2.62,5.88,4.45,11.99,5.32,18.37c0.22,1.58,0.28,3.19,0.45,4.78
		c0.29,2.61,0.68,3.04,3.39,3.78c0.31,0.08,0.64,0.07,0.94,0.16c1.29,0.39,2.29,1.14,2.66,2.48c0.35,1.23,0.53,2.51,0.92,3.72
		c0.49,1.51,1.08,3,1.73,4.45c0.21,0.46,0.71,0.82,1.13,1.16c0.43,0.35,1.03-1.28,0.82-2.56c-0.26-1.57-0.63-3.13-0.89-4.7
		c-0.04-0.23,0.16-0.6,0.36-0.77c0.48-0.41,1.13-0.41,1.66,0.09c2.15,2.04,4.67,3.25,7.58,3.85c3.1,0.63,6.12,2.16,9.31,0.4
		c0.93,0.18,1.9,0.24,2.77,0.55c3.06,1.11,5.64,3.02,7.89,5.32c1.1,1.13,2.05,2.47,2.77,3.88c2.24,4.38,3.06,9.07,2.46,13.96
		c-0.2,1.58-0.61,3.14-0.89,4.71c-0.3,1.65-0.96,2.97-2.68,3.63c-0.51,0.2-1.03,0.86-1.18,1.42c-0.76,2.77-1.4,5.57-2.05,8.37
		c-0.07,0.29,0.02,0.66,0.15,0.93c0.27,0.56,0.55,1.15,0.97,1.59c0.46,0.49,2.3,0.49,2.74,0.14c0.49-0.4,1.06-0.74,1.47-1.21
		c3.76-4.38,7.14-9.02,10.07-14c1.15-1.96,1.97-4,2.14-6.29c0.06-0.86,0.45-1.23,0.89-0.99c0.27,0.14,0.56,0.38,0.69,0.64
		c0.56,1.14,1.26,2.26,1.55,3.47c0.58,2.49,1,5.02,1.34,7.55c0.12,0.91-0.06,1.9-0.32,2.8c-0.7,2.49-2.1,4.65-3.39,6.86
		c-2.42,4.14-4.85,8.27-7.2,12.45c-1.9,3.37-3.09,7.02-3.69,10.84c-0.15,0.93-0.04,1.91-0.03,2.86c0.01,1.02,0.49,1.84,1.33,2.34
		c0.9,0.54,2.98,0.2,3.6-0.52c0.83-0.96,1.77-1.87,2.42-2.94c3.87-6.34,9.14-11.5,14.1-16.92c1.3-1.42,2.9-2.5,4.95-2.65
		c0.67-0.05,1.28,0.08,1.68,0.67c0.14,0.21,0.1,0.7-0.06,0.92c-0.71,1.05-1.45,2.08-2.27,3.05c-1.23,1.47-2.5,2.91-3.81,4.31
		c-2.76,2.96-3.8,6.59-4.29,10.47c-0.24,1.93-0.06,3.82,0.45,5.7c1.52,5.61,4.12,10.73,7.09,15.68c1.15,1.92,2.49,3.72,3.66,5.63
		c2.2,3.6,3.56,7.51,3.75,11.75c0.34,7.67,0.37,15.34,0.02,23.01c-0.03,0.64-0.29,1.28-0.23,1.9c0.44,4.63-1.09,8.78-2.87,12.93
		c-2.81,6.54-7.52,11.03-14.15,13.5c-2.99,1.12-6.05,2.06-9.05,3.18c-6.67,2.49-12.69,6.03-17.58,11.28
		c-0.9,0.96-1.97,1.54-3.05,2.2c-4.61,2.81-9.64,3.12-14.82,2.79c-0.3-0.02-0.57-0.3-0.87-0.38c-0.68-0.19-0.56-0.32-0.03-0.85
		c1.17-1.17,2.72-1.57,4.14-2.12c3.71-1.44,6.56-3.92,9.04-6.9c1.03-1.24,1.78-2.67,1.58-4.38c-0.03-0.28-0.24-0.59-0.46-0.79
		c-0.15-0.14-0.49-0.19-0.69-0.12c-0.29,0.1-0.59,0.29-0.77,0.54c-3.77,5.19-9.16,7.83-15.1,9.58c-2.12,0.62-4.18,1.68-6.51,1.09
		c-0.29-0.07-0.69-0.19-0.8-0.41c-0.12-0.24-0.03-0.65,0.1-0.93c0.27-0.57,0.54-1.17,0.95-1.62c0.86-0.94,1.75-1.88,2.75-2.67
		c6.88-5.47,11.84-12.53,16.33-19.93c4.71-7.76,7.53-16.21,8.47-25.26c0.33-3.2,0.35-6.37-0.82-9.44c-0.07-0.18-0.4-0.42-0.57-0.39
		c-0.29,0.06-0.77,0.27-0.8,0.47c-0.81,5.37-1.78,10.68-3.41,15.89c-3.92,12.51-10.43,23.29-20.58,31.73
		c-2.21,1.84-4.45,3.65-6.68,5.47c-4.74,3.88-9.96,6.93-15.72,9.05c-7.53,2.77-14.59,6.47-21.45,10.63
		c-6.44,3.9-11.25,9.4-15.83,15.19c-1.45,3.2-3.21,6.3-4.27,9.62c-1.78,5.54-2.42,11.26-0.64,16.98c0.15,0.48,0.71,0.82,1.09,1.23
		c0.17-0.27,0.45-0.52,0.51-0.81c0.65-3.13,1.14-6.3,1.91-9.4c0.69-2.78,1.43-5.6,2.56-8.22c3.4-7.9,8.64-14.17,16.79-17.56
		c2.36-0.98,4.73-1.99,7.17-2.71c8.34-2.45,16.23-5.84,23.41-10.78c0.26-0.18,0.55-0.32,0.84-0.47c1.19-0.61,2.42-0.79,3.68-0.3
		c0.59,0.23,1.17,0.53,1.7,0.88c1.65,1.07,3.47,1.61,5.42,1.7c6.73,0.32,13.44,0.3,19.98-1.65c0.92-0.27,1.85-0.55,2.8-0.68
		c0.93-0.13,1.91-0.22,2.82-0.06c2.83,0.51,5.65,1.08,8.45,1.75c9.33,2.22,18.64,4.48,27.97,6.72c1.88,0.45,2.11,0.89,1.4,3.57
		c-0.08,0.31-0.26,0.7-0.15,0.93c0.26,0.54,0.88,0.76,1.54,0.51c1.48-0.58,2.93-1.23,4.38-1.88c1.74-0.79,3.45-1.67,5.22-2.4
		c2.07-0.85,4.12-1.82,6.28-2.33c6.52-1.53,12.64-4.49,19.36-5.32c9.22-1.14,18.42-2.02,27.67-0.42c0.16,0.03,0.42,0.43,0.39,0.46
		c-0.2,0.24-0.44,0.59-0.71,0.62c-5.71,0.71-11.43,1.35-17.13,2.09c-1.25,0.16-2.68,0.33-3.64,1.03c-2.88,2.1-6.39,2.9-9.36,4.82
		c-6.17,3.99-12.46,7.81-18.64,11.8c-2.95,1.91-5.77,4.02-8.64,6.06c-4.47,3.17-9.36,5.49-14.52,7.28
		c-1.81,0.63-3.67,1.15-5.44,1.87c-5.78,2.35-11.79,2.7-17.91,2.22c-9.92-0.78-19.8-0.74-29.63,1.06c-1.88,0.34-3.81,0.4-5.72,0.59
		c-3.62,0.38-6.84,1.69-9.44,4.26c-3.18,3.15-6.35,6.32-9.35,9.63c-4.29,4.73-7.89,10.07-12.87,14.19
		c-0.95,0.79-1.61,1.98-2.24,3.09c-2.04,3.62-4.19,7.2-5.96,10.95c-4.77,10.12-9.4,20.31-14.02,30.49
		c-0.92,2.03-1.64,4.16-2.32,6.29c-1.88,5.91-2.05,11.95-1.16,18.04c0.93,6.33,2.29,12.58,4.15,18.7c0.56,1.83,1.03,3.7,1.67,5.5
		c0.57,1.59,0.51,3.12,0.05,4.69c-0.38,1.27-0.17,2.5,0.23,3.75c1.08,3.35,2.31,6.63,3.92,9.78c1.6,3.13,3.07,6.33,4.6,9.5
		c2.92,6.05,5.54,12.22,7.13,18.95c-3.33,9.19-6,18.72-7.97,28.43c-1.21,5.96-1.95,11.99-2.45,18.05
		c-0.53,6.49,0.79,12.73,2.91,18.82c0.52,1.5,1.09,3.03,1.87,4.41c4.11,7.25,7.15,14.97,10.17,22.72c2.56,6.56,6.27,12.57,9.53,18.8
		c0.73,1.39,1.82,2.67,1.7,4.39c-0.02,0.3-0.15,0.6-0.25,0.89c-0.25,0.74-0.75,0.87-1.49,0.42c-0.54-0.33-1.13-0.6-1.63-0.99
		c-0.76-0.59-1.56-1.16-2.16-1.9c-4.55-5.55-10.43-9.4-16.57-12.87c-1.76-0.99-3-2.29-4.08-3.9c-2.13-3.18-3.63-6.76-6.21-9.65
		c-0.19-0.21-0.58-0.33-0.88-0.32c-0.15,0-0.39,0.35-0.43,0.57c-0.39,1.96,0.55,3.75,0.79,5.64c1.4,11.11,2.79,22.22,3.67,33.38
		c0.4,5.1,0.46,10.22-0.47,15.31c-0.4,2.2-0.58,4.44-0.8,6.67c-0.19,1.95-0.83,3.73-1.81,5.41c-0.64,1.1-1.25,2.23-1.89,3.34
		c-4.37,7.52-7.37,15.61-9.56,23.98c-1.95,7.42-3.91,14.83-6.36,22.11c-0.61,1.8-1.06,3.71-1.21,5.6c-0.26,3.5-0.4,7.03-0.3,10.54
		c0.12,4.49,0.72,8.91,3.03,12.94c0.95,1.66,1.71,3.44,2.41,5.22c0.72,1.84,1.95,3.26,3.24,4.69c1.66,1.85,1.57,2.88-0.12,4.96
		c-2.22,2.73-4.45,5.45-6.68,8.17c-3.48,4.26-6.19,8.92-7.63,14.27c-0.33,1.24-0.67,2.48-1.6,3.43c-0.21,0.22-0.55,0.39-0.85,0.42
		c-0.25,0.02-0.64-0.12-0.76-0.32c-0.82-1.36-1.69-2.69-2.34-4.13c-2.52-5.61-5.7-10.72-10.47-14.72c-1.28-1.07-2.01-2.39-1.73-4.18
		c0.09-0.57-0.09-1.3-0.4-1.8c-1.34-2.17-2.78-4.29-4.25-6.51c0.49-0.83,0.83-1.73,1.44-2.37c2.2-2.32,4.55-4.5,6.74-6.83
		c3.76-3.98,6.92-8.37,8.95-13.52c0.7-1.78,1.63-3.47,2.4-5.23c0.38-0.87,0.9-1.81,0.88-2.71c-0.09-3.99,1.67-7.45,3.01-11.01
		c2.03-5.42,3.35-11,4.19-16.71c0.38-2.57,0.33-5.09-0.47-7.59c-1.97-6.08-3.57-12.27-5.29-18.42c-1.38-4.94-3.48-9.62-6.28-13.95
		c-1.39-2.15-2.65-4.4-4.22-6.41c-5.6-7.18-9.03-15.42-11.87-23.94c-1.92-5.77-3.44-11.64-4.23-17.69
		c-0.62-4.75-1.93-9.41-1.87-14.25c0.06-4.79,0.21-9.59,0.26-14.38c0.01-0.89-0.3-1.79-0.48-2.67c-0.15-0.72-0.51-0.73-0.95,0
		c-0.81,1.34-1.69,2.66-2.39,4.06c-3.56,7.16-7.24,14.25-11.78,20.86c-2.57,3.73-4.18,7.9-5.45,12.21
		c-0.81,2.76-1.49,5.56-2.27,8.32c-0.06,0.21-0.52,0.39-0.82,0.43c-0.18,0.03-0.49-0.19-0.58-0.37c-0.88-1.8-0.71-3.74-0.56-5.64
		c0.13-1.59,0.34-3.2,0.8-4.72c3.78-12.58,6.08-25.48,8.31-38.39c0.27-1.57,0.49-3.16,0.66-4.75c0.32-2.88,0.17-5.69-0.77-8.51
		c-1.93-5.78-2.8-11.81-3.78-17.81c-0.75-4.61,0.21-8.89,2.4-12.96c2.3-4.27,5.35-7.98,8.88-11.25c3.04-2.82,6.34-5.36,9.58-7.96
		c0.44-0.35,1.18-0.38,1.8-0.45c0.64-0.07,1.19,0.33,1.32,1.07c0.35,1.94-0.23,3.79-0.74,5.62c-0.52,1.85-1.15,3.67-1.01,5.63
		c0.06,0.8,0.44,1.22,1.02,1.16c0.31-0.03,0.65-0.1,0.9-0.27c1.64-1.09,2.68-2.7,3.69-4.34c1.69-2.75,2.72-5.78,3.74-8.81
		c1.64-4.84,3.24-9.7,4.75-14.59c3.35-10.86,4.43-21.92,2.59-33.18c-1.03-6.3-2.08-12.58-4.3-18.64c-1.53-4.18-2.45-8.57-3.21-13.01
		c-1.51-8.82-3.63-17.54-6.5-26.02c-2.87-8.47-6-16.86-9.09-25.27c-0.88-2.4-2.07-4.67-3-7.05c-2.15-5.54-6.5-8.52-11.83-10.39
		c-1.2-0.42-2.45-0.79-3.71-0.98c-6-0.89-11.99-2-18.11-1.33c-3.81,0.41-7.65,0.69-11.45,1.19c-3.2,0.43-6.34,0.45-9.53-0.18
		c-2.81-0.55-5.64-1.25-8.55-0.86c-0.82,0.11-1.16,0.58-0.99,1.16c0.08,0.3,0.17,0.68,0.38,0.84c4.59,3.31,9.71,4.92,15.34,4.28
		c3.61-0.4,6.98,0.15,10.38,1.22c2.13,0.67,4.35,1.04,6.53,1.57c9.37,2.3,17.03,7.19,22.6,15.13c2.38,3.4,4.44,7.03,6.8,10.45
		c3.84,5.59,6.59,11.62,8.23,18.22c0.61,2.46,1.69,4.83,2.71,7.17c3.08,7.05,5.22,14.41,7.41,21.75c0.07,0.25-0.07,0.63-0.22,0.87
		c-0.29,0.46-0.79,0.33-1.34-0.33c-0.41-0.49-0.86-0.95-1.19-1.49c-5.82-9.62-13.02-18.19-20.23-26.76
		c-1.23-1.46-2.61-2.84-4.1-4.03c-9.99-7.98-19.74-16.28-30.31-23.53c-3.7-2.54-7.45-4.97-11.47-6.95
		c-7.46-3.66-14.96-7.24-22.43-10.89c-1.77-0.87-3.64-1.34-5.57-1.15c-8.47,0.83-16.53-1.11-24.52-3.52
		c-4.59-1.38-9.13-2.92-13.66-4.49c-0.87-0.3-1.63-0.98-2.37-1.57c-0.2-0.15-0.25-0.61-0.2-0.91c0.03-0.18,0.38-0.44,0.58-0.44
		c1.59,0.01,3.18,0.05,4.76,0.11c1.96,0.08,3.84-0.34,5.6-1.12c1.14-0.51,2.34-1.2,3.14-2.13c1.87-2.17,3.55-4.51,5.2-6.86
		c0.26-0.37,0.12-1.22-0.12-1.7c-0.3-0.61-1.01-0.76-1.68-0.66c-1.58,0.23-3.25,0.21-4.72,0.76c-5.5,2.05-11.33,1.91-16.99,2.85
		c-0.93,0.16-1.93,0.18-2.87,0.03c-5.36-0.81-10.8-1.29-15.86-3.46c-0.22-0.09-0.49-0.4-0.48-0.6c0.01-0.29,0.17-0.7,0.4-0.84
		c1.07-0.68,2.12-1.44,3.29-1.91c2.98-1.19,5.85-2.58,8.53-4.34c1.2-0.78,1.66-2.01,1.02-3.29c-0.53-1.05-0.33-1.87,0.47-2.38
		c4.31-2.75,8.83-5.2,13.52-7.17c4.48-1.88,8.56-4.28,12.34-7.27c0.5-0.4,1.07-0.72,1.54-1.14c2.94-2.68,6.41-4.09,10.74-4.49
		c1.37,0.8,3.01,1.77,4.66,2.72c3.32,1.91,6.61,3.88,9.99,5.69c3.16,1.69,6.57,2.53,10.17,2.29c4.46-0.31,8.93-0.64,13.37-1.09
		c5.41-0.55,10.71-1.82,16.02-2.93c2.79-0.58,3.48-0.52,3.37,0.11c-0.18,1.03-0.96,1.56-1.73,2.15c-1.78,1.36-3.54,2.74-5.25,4.19
		c-0.46,0.39-0.76,1-1.07,1.55c-0.15,0.27-0.29,0.66-0.2,0.91c0.07,0.19,0.5,0.28,0.79,0.35c0.3,0.08,0.63,0.15,0.94,0.11
		c2.53-0.3,5.06-0.63,7.59-0.96c3.66,1.32,7.59,0.98,11.32,1.87c6.22,1.48,12.4,3.07,18.47,5.14c7.89,2.69,13.92,7.72,18.74,14.31
		c2.64,3.61,4.96,7.46,6.4,11.76c0.2,0.6,0.48,1.18,0.74,1.77c0.3,0.68,2.05,1.66,2.37,1.28c0.39-0.45,0.83-1.06,0.83-1.61
		c0.01-1.58,0.06-3.24-0.36-4.74c-0.96-3.4-2.53-6.59-4.61-9.44c-5.8-7.95-13.12-13.91-22.6-17.02c-5.77-1.89-11.55-3.71-17.5-4.95
		c-0.5-0.1-0.89-0.83-1.26-1.33c-0.1-0.13-0.01-0.62,0.12-0.68c3.24-1.58,6.78-2.04,10.26-1.79c4.13,0.3,8.24,1.11,12.29,2.01
		c4.07,0.9,7.98,2.32,11.24,5.12c1.25,1.07,2.79,1.51,4.36,1.85l0.4-0.05L500.17,312.95z M516.39,128.2
		c-0.52,0.3-0.61,0.22-0.23-0.21c0.02-0.02,0.31,0.21,0.47,0.32c0.16,0.26,0.25,0.62,0.48,0.78c3.06,2.04,6.41,3.54,9.83,4.85
		c0.8,0.3,1.8,0.07,2.71,0.08c0.63,2.12,2.17,2.24,3.97,1.82c0.31,0.51,0.5,1.26,0.95,1.5c4.49,2.36,9.23,4.03,14.33,4.44
		c0.91,0.07,1.84-0.13,2.76-0.28c0.24-0.04,0.64-0.39,0.61-0.52c-0.06-0.27-0.31-0.64-0.56-0.72c-5.07-1.68-10.4-2.4-15.45-4.21
		c-0.83-0.3-1.86-0.02-2.8-0.01c-1.08-2.21-1.08-2.21-3.97-1.8c-0.23-0.54-0.31-1.36-0.7-1.57
		C524.86,130.63,520.93,128.58,516.39,128.2z M590.82,300.63c-2.94,1.97-6.29,3.06-9.49,4.49c-6.11,2.72-12.23,5.44-18.34,8.18
		c-4.7,2.11-8.92,4.91-12.53,8.6c-0.22,0.22-0.51,0.6-0.45,0.81c0.17,0.57,0.8,0.92,1.41,0.64c7.54-3.44,15.08-6.86,22.56-10.41
		c5.79-2.74,11-6.42,15.98-10.41c0.4-0.32,0.43-1.09,0.63-1.65c0.47-0.52,0.68-0.48,0.62,0.12
		C591.09,300.87,590.95,300.75,590.82,300.63z M529.85,418.52c3.02-4.55,5.25-9.51,7.2-14.58c1.72-4.47,3.54-8.92,4.52-13.65
		c3.03-6.81,4.21-14.06,5.21-21.36c0.26-1.89,0.59-3.8,1.1-5.64c2.55-9.25,7.85-16.72,15.11-22.84c3.93-3.31,8.24-6.04,12.99-8.08
		c4.42-1.9,8.62-4.19,12.22-7.45c0.57-0.52,0.4-1.2-0.14-1.55c-0.25-0.16-0.61-0.39-0.82-0.31c-1.79,0.67-3.6,1.32-5.34,2.12
		c-6.68,3.05-13.23,6.44-20.05,9.15c-4.81,1.91-9.24,4.41-13.54,7.14c-6.12,3.89-9.12,9.69-9.24,16.92
		c-0.03,1.9,0.08,3.88,0.56,5.71c0.84,3.19,0.61,6.32,0.2,9.51c-0.45,3.51-1.2,6.91-2.29,10.28c-1.48,4.56-2.66,9.21-4.19,13.75
		c-1.64,4.89-1.77,10.08-3.25,14.98c-0.56,1.87-0.46,3.8-0.04,5.7c-0.13,0.14-0.26,0.29-0.38,0.43c-0.08-0.14-0.27-0.36-0.23-0.4
		C530.24,417.36,528.68,418.01,529.85,418.52z M501.77,117.49c-1.97-0.32-3.83-0.62-5.68-0.96c-0.15-0.03-0.38-0.41-0.33-0.55
		c0.09-0.28,0.31-0.68,0.54-0.73c3.11-0.64,6.24-1.16,9.33-1.84c6.05-1.34,11.27-4.21,15.44-8.83c0.36-0.4,0.6-1.16,0.49-1.66
		c-0.16-0.73-0.76-0.67-1.43-0.1c-5.97,5.15-12.91,7.89-20.77,8.55c-2.82,0.24-5.61,1.05-8.38,1.72c-0.53,0.13-1.05,0.73-1.35,1.24
		c-0.68,1.2,0.17,3.67,1.27,4.15c2.66,1.15,5.44,1.75,8.31,1.93c8.07,0.51,15.8-0.89,23.16-4.27c0.26-0.12,0.48-0.42,0.6-0.69
		c0.12-0.26,0.19-0.63,0.08-0.86c-0.11-0.25-0.49-0.59-0.69-0.55c-3.43,0.62-6.85,1.35-10.29,1.94
		C508.64,116.54,505.18,116.99,501.77,117.49z M643.54,309.8c0.33,0.21,0.57,0.48,0.85,0.52c2.85,0.39,5.5-0.29,7.97-1.7
		c0.23-0.13,0.42-0.5,0.45-0.78c0.07-0.52-0.3-1.02-0.98-1.17c-0.58-0.13-1.23-0.12-1.81,0
		C647.61,307.17,645.53,308.36,643.54,309.8z"/>
	<path class="st0" d="M476.3,24.28c-3.13-0.08-6.27-0.2-9.4-0.24c-3.08-0.04-6.16-0.07-9.24-0.19c6.66-0.76,12.67-0.84,16.85-0.3
		c0.57,0.07,1.08,0.59,1.61,0.9C476.13,24.45,476.3,24.28,476.3,24.28z"/>
	<path class="st0" d="M379.75,247.44c1.42-0.43,2.84-0.8,4.23,0.05c0.25,0.15,0.44,0.39,0.66,0.59c-0.21,0.2-0.4,0.43-0.64,0.58
		c-1.33,0.83-2.8,0.69-4.26,0.54l0.22,0.23c0-0.74-0.01-1.48-0.01-2.22L379.75,247.44z"/>
	<path class="st0" d="M344.33,317.88c-0.17,0.44-0.35,0.87-0.53,1.33c0.27-0.45,0.53-0.89,0.79-1.32
		C344.59,317.88,344.33,317.88,344.33,317.88z"/>
	<path class="st0" d="M344.59,317.88c0.55,0.4,1.09-0.35,1.64-0.02c-0.63,0.01-1.26,0.01-1.9,0.02
		C344.33,317.88,344.59,317.88,344.59,317.88z"/>
</g>
</svg>
