<?xml version="1.0" encoding="utf-8"?>
<!-- Generator: Adobe Illustrator 24.1.1, SVG Export Plug-In . SVG Version: 6.00 Build 0)  -->
<svg version="1.1" id="Layer_1" xmlns="http://www.w3.org/2000/svg" xmlns:xlink="http://www.w3.org/1999/xlink" x="0px" y="0px"
	 width="907.88" height="1212.09" viewBox="0 0 907.88 1212.09" style="enable-background:new 0 0 907.88 1212.09;" xml:space="preserve">
<style type="text/css">
	.st0{fill:#1A1A1A;}
</style>
<g>
	<path d="M225.89,1211.8c-0.12-0.3-0.19-0.64-0.37-0.91c-1.62-2.4,3.57-6.43-1.18-7.57c-5.99-1.43-12.72-5.03-17.84,2
		c-1.08,1.49-2.58,1.89-4.33,2.92c-0.66-1.58-2.1-2.48-1-4.75c1.05-2.17-0.52-3.42-2.79-3.37c-2.65,0.06-5.24-0.14-7.76-1.02
		c-3.95-1.38-6.82,0.86-9.65,3.03c-1.16,0.89-1.96,2.38-3.88,1.77c-0.97-1.09-0.59-2.32-0.25-3.62c0.85-3.31-0.28-4.95-3.66-5.18
		c-4.4-0.29-8.52,0.5-11.87,3.66c-1.23,1.16-2.59,1.96-4.46,2.2c-0.85-3.47,0.54-6.5,1.9-9.35c2.09-4.39,6.1-7.65,7.69-12.38
		c0.35-1.04,1.12-0.96,1.89-1.22c2.09-0.7,2.58-2.38,3.31-4.4c2.17-6.05,5.4-11.64,10.78-15.47c5.43-3.86,11.14-4.35,17.03,0.17
		c7.27-6.92,15.36-6.62,23.85-2.61c6.92-2.11,12.18-7.38,18.55-10.78c2.47-1.31,4.35-3.56,6.4-5.38
		c10.38-9.25,22.41-15.81,34.57-22.22c5.35-2.82,6.76-6.52,5.44-12.78c-0.95-4.48-1.6-9.03-1.78-13.63
		c-0.69-17.21-1.93-34.32-7.48-50.86c-5.14-15.28-5.57-31.2-4.31-46.99c1.14-14.28,3.71-28.45,8.73-42.03
		c2.11-5.71,5.14-10.95,7.88-16.34c1.35-2.65,2.06-5.47,3.02-8.23c1.05-3.01-1.03-5.38-1.85-7.97c-2.2-6.89-2.55-14.1-3.94-21.12
		c-0.66-3.36-2.13-6.49-2.43-9.98c-0.33-3.73-3.05-6.47-5.2-9.26c-7.77-10.12-12.81-21.51-16.42-33.64
		c-3.08-10.36-4.9-20.9-6.16-31.66c-1.13-9.64-0.79-19.23-0.71-28.82c0.09-9.33,1.71-18.59,3.43-27.77
		c0.38-2.01,0.48-3.95,0.42-5.91c-0.39-14.22,1.16-28.2,3.85-42.19c4.82-25.1,14.03-48.51,26.22-70.79
		c6.51-11.89,14.14-23.09,22.63-33.73c1.9-2.38,3.88-4.55,5.97-6.72c2.19-2.27,3.52-4.87,3.42-8.33
		c-0.29-9.64,3.52-18.33,7.18-26.93c2.88-6.77,6.86-13.01,10.97-19.1c1.61-2.38,1.74-4.63,0.6-6.74c-5.24-9.68-3.8-19.5-1.49-29.58
		c1.5-6.53,4.54-12.48,5.97-19.07c1.47-6.8,0.21-12.02-4-17.29c-6.67-8.35-11.18-17.96-15.43-27.73c-5.35-12.3-9.13-25.06-12.47-38
		c-0.55-2.12,0.34-4.73-1.89-6.28c-4.81,11.45-11.21,21.95-19.18,31.57c-3.89,4.69-7.32,9.79-11.95,13.79
		c-8.67,7.48-17.26,15.07-27.75,20.1c-3.81,1.83-7.25,4.42-10.94,6.51c-2.18,1.23-2.33,3.35-2.64,5.33
		c-2.41,15.35-8.13,29.49-16.03,42.73c-7.39,12.38-18.04,21.65-29.3,30.46c-8,6.26-16.73,11.66-23.87,18.93
		c-4.46,4.54-7.22,10.43-10.7,15.73c-4.12,6.26-7.91,12.76-12.36,18.8c-2.35,3.19-1.76,6.91-2.64,10.33
		c-2.49,9.78-5.6,19.15-13.05,26.43c-2.19,2.14-3.84,4.71-6.33,6.72c-2.31,1.88-3.4,4.77-3.16,8.84c0.34,5.78-0.58,11.82-0.55,17.76
		c0.01,1.96,0.23,3.87,0.65,5.85c1.21,5.72-0.56,11.19-3.93,15.68c-2.66,3.54-5.58,6.84-7.51,10.88c-0.32,0.67-1.15,1.1-1.92,1.8
		c-2.89-4.11-3.88-9.19-7.94-12.46c-0.94-0.76-0.73-3.61-0.29-5.29c1.82-6.9,0.76-13.67-0.46-20.71
		c-3.25,8.34-6.33,16.53-9.62,24.63c-2.2,5.4-4.5,10.78-7.12,15.99c-1.36,2.71-3.32,5.17-6.7,5.95c-1.56,0.36-3.14,1.06-4.18,2.45
		c-1.19,1.59-2.75,1.61-4.61,1.27c-0.92-2.48,0.44-5.72-2.6-7.61c-1.39-0.87-2.31-1.37-3.99-0.64c-3.3,1.44-6.41,3.16-9.2,5.4
		c-1.02,0.81-1.93,1.21-3.55,0.68c0.34-4.01-1.05-7.64-2.74-11.47c-1.91-4.31-0.16-9.27,1.03-13.81c1.78-6.76,3.59-13.52,5.77-20.16
		c1.62-4.96,5.04-9.19,6.4-14.28c0.69-2.56,2.29-4.92,2.17-8.29c-2.81,2.14-4.07,4.82-5.58,7.18c-6.14,9.62-11.99,19.42-18.12,29.04
		c-2.1,3.3-4.36,6.81-9.24,6.16c-1.36-0.18-2.04,0.88-2.91,1.64c-1.6,1.41-2.78,3.31-4.75,4.27c-1.59-0.44-2.07-1.51-2.08-2.99
		c-0.04-4.29-0.14-8.53-0.87-12.82c-0.88-5.19,1.97-9.83,3.71-14.54c2.66-7.22,6.43-13.9,10.06-20.67
		c3.77-7.03,7.88-13.88,11.48-20.97c2.55-5.03,5.2-10.07,7.02-15.51c0.75-2.24,0.42-3.59-1.22-4.67c-3.57-2.34-7.36-4.03-11.8-2.55
		c-7.39,2.46-14.83,2.21-22.09-0.31c-3.33-1.16-6.6-2.77-8.41-6.28c-1.48-2.87-4.73-3.25-7.3-4.4c-0.46-2.57,1.52-3.06,2.87-4
		c6.72-4.63,14.55-6.18,22.24-8.3c8.98-2.48,18.09-4.17,27.23-5.78c1.94-0.34,4-0.24,5.99-0.1c8.64,0.6,17-2.1,25.59-2.14
		c2.47-0.01,3.96-2.45,5.16-4.3c6.88-10.66,12.63-21.92,17.97-33.44c2.26-4.88,3.52-9.81,4.3-14.92
		c1.79-11.77,4.01-23.44,6.94-34.99c2.13-8.39,6.23-15.75,11.18-22.63c3.35-4.65,7.03-9.1,11.06-13.24
		c6.93-7.12,14.89-12.88,23.59-17.54c4.02-2.15,5.53-4.92,5.39-9.47c-0.4-13.2,0.69-26.31,3.93-39.15
		c4.85-19.24,13.52-36.4,27.78-50.48c3-2.96,5.81-6.07,8.44-9.37c3.43-4.3,7.78-7.82,12.2-10.85c5.74-3.94,7.35-8,5.78-14.93
		c-3.34-14.72,1.07-28.18,9.27-40.39c8.3-12.36,19.32-21.7,32.49-28.75c9.49-5.08,19.53-8.18,29.95-10.21
		c3.38-0.66,6.98-0.23,10.48-0.16c5.16,0.1,10.47-1.01,15.44,1.03c4.94,2.03,9.15-0.01,12.86-2.51
		c9.29-6.28,19.46-10.58,29.84-14.58c6.7-2.58,13.38-5.38,19.51-9.08c5.86-3.54,8.23-9.53,8.89-16.15c0.38-3.75-0.08-7.5,0.88-11.31
		c1.04-4.15-2.78-6.38-5.4-8.51c-7.01-5.7-11.29-12.85-13.31-21.46c1.82-1,2.24,1.37,4.02,0.85c-1.41-4.15-3.28-8.14-3.75-12.48
		c-0.26-2.46-1.69-5.1,1.07-7.19c0.89-0.68,0.73-1.99,0.38-2.8c-1.76-4.03-0.46-8.22-0.84-12.3c-0.15-1.57,0.15-2.99,2.32-3.47
		c0.83,1.46,0.99,3.33,2.49,4.99c1.61-2.96,0.38-5.98-0.19-8.42c-1.02-4.4-0.69-8.36,0.8-12.32c1.14-0.67,1.78,1,2.24,0.73
		c2.22-7.77-2.55-13.83-3.81-20.66c-1.71-9.3-1.36-18.41,1.65-27.24c2.87-8.43,7.3-16.07,14.03-22.21
		c4.65-4.24,9.96-7.31,16.14-10.16c0.18,6.1,1.16,11.68,2.37,17.19c1.79,8.15,4.92,15.88,10.02,22.49
		c3.68,4.77,12.7,5.74,18.88,4.28c6.35-1.49,12.98-2.61,19.59-1.39c4.95,0.92,9.82,2.23,14.72,3.37c0.47,0.11,1.23,0.4,1.39,0.22
		c2.69-3.19,7.44-3.32,10.01-6.35c6.47-7.62,9.39-16.81,11.5-26.48c0.91-4.16,0-8.5,1.53-12.95c5.84,2.43,10.73,5.29,15.27,9.19
		c9.63,8.26,14.78,19.01,16.75,31c1.6,9.8,0.96,19.92-3.61,29.19c-1.18,2.4-1.11,4.77-1.09,7.23c0.01,0.64,0.07,1.69,0.42,1.85
		c6.59,2.92,3.1,8.68,3.21,13.03c0.06,2.49-0.26,5.44-1.1,8.53c2.33-1.13,1.86-4.13,4.15-4.85c1.98,2.06,1.6,4.73,1.4,7.15
		c-0.24,2.92,0.51,5.99-1.04,8.78c-0.21,0.38-0.22,1.12,0.01,1.46c4.43,6.51,0.92,12.34-1.57,18.23c-0.34,0.81-0.6,1.49-0.23,2.61
		c1.23,0.09,1.81-1.82,3.69-1.15c-1.15,6.23-3.85,11.79-8.02,16.55c-2.55,2.92-5.62,5.37-8.45,8.05c-1.5,1.42-2.05,2.94-1.66,5.2
		c0.48,2.75,0.25,5.65,0.13,8.48c-0.5,11.19,5.74,18.03,15,22.3c11.34,5.23,23.17,9.35,34.26,15.12c4.34,2.26,8.6,4.72,12.62,7.49
		c2.02,1.39,3.8,1.77,5.96,1.01c5.32-1.86,10.83-2.68,16.42-2.56c10.89,0.24,21.23,2.83,31.4,6.78
		c10.26,3.99,19.18,9.98,27.14,17.26c10.59,9.7,19.08,20.98,23.36,35.09c2.12,6.99,2.1,14.04,1.7,21.07
		c-0.33,5.81,1.88,9.84,5.68,13.99c8.7,9.5,14.61,20.79,18.32,33.09c1.83,6.05,3.52,12.19,4.64,18.46c0.33,1.83,0.45,3.6,0.46,5.4
		c0.08,10.11-0.5,20.27,1.11,30.28c1.16,7.26,0.76,14.75,3.45,21.92c3.71-5.97,5.02-13.14,8.82-19.76c2.52,3.71,2.71,7.52,3.53,11
		c1.62,6.83,2.37,13.85,3.41,20.79c0.96,6.41-0.37,12.44-0.31,18.64c0.02,2.14,0.14,4.19,0.96,6.27
		c5.35,13.49,9.28,27.43,12.47,41.57c2.22,9.86,4.27,19.74,5.69,29.79c2.75,19.5,1.69,39.06,1.77,58.61c0.02,4.23-1.3,8.5-0.86,12.8
		c1.23,12,1.04,24.03,5.63,35.75c4.42,11.29,7.29,23.32,9.16,35.39c0.93,5.96,0.94,12.08,2.07,18.06c0.29,1.55-0.56,3.26-1.02,4.73
		c-2.4,7.67-2.43,15.76-4.67,23.48c-1.36,4.7-2.93,8.52-7.66,10.37c-4.2,1.64-7.92,4.78-12.87,4.06c-1.41-0.21-2.67,0.17-3.53,1.34
		c-4.58,6.22-10.95,4.88-17.2,4.13c-4.4-0.53-8.81-1.43-13.2-1.35c-4.52,0.08-8.82-1.26-13.3-1.23c-1.39,0.01-2.99-0.51-4.16-1.29
		c-3.94-2.65-8.2-4.74-12.24-7.19c-8.81-5.36-12.73-14.32-15.83-23.51c-1.12-3.31-1.88-6.9-2.62-10.41
		c-0.92-4.39-0.62-8.32,1.03-12.77c2.4,1.94,2.75,4.71,4.2,6.76c0.96,1.36,1.19,3.51,3.68,2.68c2.71-0.9,0.91-2.45,0.69-3.93
		c-0.63-4.12,0.03-8.08,1.79-11.8c1.76,0.01,1.87,1.35,2.32,2.32c1.37,3.01,3.49,5.2,6.82,5.8c5.21,0.93,8.04,5.03,11.23,8.48
		c1.82,1.97,3.66,3.55,6.37,4.6c0.62-5.26,1.63-10.3,5.32-14.4c-1.02-2.78-3.6-4.26-5.22-6.51c-6.6-9.2-7.01-19.11-4.41-29.57
		c0.08-0.31,0.45-0.55,0.48-0.85c0.47-4.02,3.97-7.56,3.24-11.39c-1.02-5.35-3.29-10.54-5.49-15.59
		c-6.24-14.35-15.17-27.03-24.95-39.16c-8.93-11.07-18.23-22.07-23.9-35.17c-4.48-10.36-9.15-20.8-8.99-32.79
		c0.17-12.11,1.45-23.89,4.84-35.48c0.6-2.03,0.72-4.17,1.22-6.24c0.9-3.73-1.07-7.5-4.59-9.37c-6.82-3.63-12.96-8.27-18.79-13.24
		c-5.79-4.93-10.08-11.18-13.53-17.99c-2.53-4.99-5.16-9.94-8.25-15.89c-3.06,13.28-6.9,25.22-12,36.52
		c-4.34,9.6-9.02,19.4-16.24,27.35c-4.19,4.61-4.03,9.31-2.64,14.63c2.3,8.81,5.83,17.27,7.56,26.26
		c1.31,6.79,1.05,13.51-1.72,19.79c-2.07,4.72-2.1,8.43,1.05,12.87c8.02,11.29,13.13,23.98,16.17,37.48c0.18,0.8,0.26,1.7,0.08,2.48
		c-1.28,5.54,1.78,9.43,5.08,13.13c14.05,15.74,25.22,33.42,34.23,52.38c8.47,17.82,15.15,36.31,18.85,55.84
		c1.93,10.17,3.33,20.32,4.1,30.66c0.48,6.45,0.35,12.89,0.81,19.31c0.42,5.88,1.78,11.66,2.28,17.56c0.17,2.06,0.64,4.21,0.65,6.33
		c0.06,7,0.17,14,0,21c-0.7,27.86-6.89,54.18-23.48,77.1c-5.16,7.13-6.86,15.25-8.14,23.22c-1.11,6.98-2.44,13.81-4.59,20.48
		c-0.61,1.88-0.62,3.25,0,5.13c1.92,5.91,4.64,11.49,7.54,16.87c4.66,8.65,6.47,18.07,8.61,27.4c2.19,9.56,3.47,19.39,3.8,29.13
		c0.4,11.79-0.54,23.61-4.18,35.08c-3.45,10.88-5.28,22.17-7.46,33.35c-0.25,1.29-0.09,2.66-0.07,3.99
		c0.25,13.16-2.24,26.13-2.43,39.47c2.32,4.31,7.33,5.32,11.43,7.51c11.61,6.2,22.23,13.68,32.27,22.2
		c6.33,5.37,13.31,10.07,21.29,12.99c8.04-3.57,15.94-4.75,23.33,2.61c4.65-3.22,9.86-4.72,15.03-1.61
		c6.36,3.83,10.58,9.65,12.94,16.66c0.48,1.44,1.11,2.29,2.08,3.42c6.64,7.77,12.82,15.88,15.73,26.45
		c-3.92-1.59-6.57-4.28-9.8-6.04c-2.8-1.53-5.4-2.16-8.41-2.07c-4.65,0.13-6.21,2.11-5.15,6.66c0.14,0.59,0.84,1.04,0.19,2.09
		c-1.98,0.89-3.84-0.53-4.88-1.84c-2.13-2.69-4.82-3.07-7.75-2.86c-2.94,0.21-5.82,0.88-8.78,1.13c-3.33,0.28-3.7,1.9-2.32,7.55
		c-2.94,0.81-4.89-1.36-6.17-2.94c-1.92-2.35-4.77-4.37-6.81-4.04c-3.53,0.57-7.31,1.17-10.67,2.78c-1.04,0.5-1.11,1.56-1.11,2.6
		c0.01,1.82,0,3.63,0,5.25c-1.28,0.8-2.29,0.83-3.02,0.03c-3.29-3.6-8-4.22-12.15-6.06c-2.51-1.12-4.56,0.43-6.7,0.84
		c-8.8,1.7-17.24,1.5-24.97-3.55c-3.41-2.23-7.51-2.6-10.98-2.37c-10.18,0.68-18.98-2.71-27.54-7.4c-1.43-0.78-2.8-0.84-4.28-0.85
		c-7.95-0.02-15.9,0.23-23.8-1c-4.41-0.69-8.36-2.8-12.33-4.54c-4.28-1.88-8.7-3.6-12.66-6.28c-3.37-2.29-4.29-5.54-4.54-9.16
		c-0.47-6.64,0.67-13.07,2.67-19.4c1.57-4.96,2.44-10.15,4.92-14.8c0.64-1.19,0.1-2.14-0.34-3.25c-3.02-7.64-3.56-15.62-3.37-23.75
		c0.05-2.22,0.76-4.2,1.16-6.27c1.71-8.83-2.32-15.49-7.18-22.31c-7.09-9.94-15.12-19.33-20.03-30.7
		c-2.32-5.37-6.23-9.51-11.21-12.11c-13.32-6.95-17.64-19.37-20.56-32.64c-1.23-5.58-2.38-11.3-2.03-17.07
		c0.96-16.04,4.94-31.06,13.53-44.97c6.42-10.39,13.52-20.39,18.9-31.46c3.34-6.87,4.1-13.3,1.7-20.71
		c-2.49-7.71-6.27-14.19-11.93-19.95c-4.78-4.87-8.7-10.56-12.63-16.57c-2.1,3.4-2.15,7.08-3.62,10.28
		c-6.92,15.1-14.18,30.11-18.88,46.09c-3.95,13.43-6.96,27.11-9.27,40.96c-1.34,8.06-3.02,16.13-3.57,24.21
		c-0.54,7.9-1.29,15.82-1.41,23.78c-0.18,12.47,0.81,24.88,1.4,37.29c0.49,10.36,1.99,20.77,4.6,30.99
		c3.18,12.45,5.35,25.16,8.13,37.73c2.67,12.08,5.5,24.13,9.97,35.72c1.16,3.01,1.23,6.08,0.88,9.41
		c-4.66,1.45-9.19,0.24-13.55-0.91c-15.26-4-28.53-11.68-40.41-22.08c-7.1-6.22-13.82-12.6-19.37-20.33
		c-8.95-12.46-15.56-26.02-20.46-40.48c-2.18-6.43-4.2-12.92-6.29-19.4c-3.47,1.4-3.22,4.97-4.73,7.39
		c-6.68,10.66-13.98,20.89-21.44,30.99c-4.05,5.48-4.19,11.49-3.33,17.45c1.09,7.63,1.92,15.37-0.52,22.52
		c-2.27,6.65-1.41,12.38,0.82,18.52c2.57,7.05,4.03,14.44,5.24,21.8c0.62,3.79-1.36,7.63-2.01,11.32
		c-6.67,4.61-13.86,7.98-21.4,10.57c-4.93,1.7-9.91,3.53-15.26,3.1c-6.83-0.55-13.49,1.45-20.3,1.09c-1.88-0.1-3.32,1.19-4.76,2.34
		c-4.42,3.55-9.65,4.52-15.15,4.62c-4.27,0.08-8.55-0.36-12.81,0.86c-1.59,0.46-2.98,0.85-4.43,1.76
		c-7.34,4.6-15.69,5.37-23.82,4.03c-7.26-1.19-13.62-0.88-19.56,3.64C228.16,1211.62,228.08,1211.51,225.89,1211.8z"/>
</g>
<g>
	<path class="st0" d="M459.97,260.86c2.21-4.14,3.87-8.37,6.22-12.31c3.78-6.35,9.07-10.82,15.25-14.26
		c12.22-6.79,25.32-11.06,39.18-13.15c7.61-1.15,15.2-2.87,22.89-2.79c6.36,0.06,12.78,0.91,19.05,2.08
		c4.72,0.88,8.4,4.36,11.87,7.44c9.93,8.8,17.12,19.75,22.92,31.58c4.3,8.77,7.14,18.11,8.92,27.67
		c1.88,10.11,1.71,20.28-0.96,30.32c-0.85,3.2-3.54,5.15-5.43,7.53c-5.33,6.7-10.34,13.81-17.06,19.23
		c-6.17,4.98-13.49,7.94-21.1,9.95c-9.1,2.4-18.52,3.46-27.84,2.92c-17.76-1.03-35.08-4.55-50.06-14.87
		c-11.68-8.05-19.92-19.17-22.03-33.3c-1.1-7.38-1.76-15.05-1.68-22.66c-1.03,3.13-0.55,6.34-0.66,9.5
		c-0.33,9.33-1.19,18.51-5.81,26.93c-6.45,11.75-15.44,20.7-28.13,25.43c-6.68,2.49-13.12,6.01-20.33,6.68
		c-10.07,0.93-19.94,3.59-30.36,1.69c-6.38-1.16-12.95-1.37-19.3-3.17c-13.27-3.76-23.18-11.91-31.03-22.93
		c-1.71-2.4-3.16-5.01-5.38-6.99c-3.82-3.41-5.26-8.11-5.5-12.74c-0.55-10.43-1.06-20.99,1.94-31.19
		c5.23-17.8,12.94-34.37,26.11-47.79c4.3-4.39,9.12-8.46,14.91-10.92c2.2-0.93,4.73-1.27,7.15-1.49c9.49-0.86,18.85-0.62,28.42,0.65
		c11.77,1.56,23.15,4.21,34.06,8.49c8.32,3.27,16.64,6.94,22.96,13.9C454.06,247.72,457.43,253.88,459.97,260.86z"/>
	<path class="st0" d="M459.49,452.12c1.37,1.5,2.73,2.99,4.42,4.84c1.17-0.53,2.15-1.7,4.29-1.09c8.04,2.32,16.47,3.58,24.76,3.09
		c6.67-0.39,13.5,0.09,20.07-1.74c3.81-1.06,7.4-0.12,10.8,1.61c0.25-0.33,0.59-0.57,0.59-0.81c0.02-4.37,2.73-6.61,6.21-8.63
		c5.19-3.02,8.95-7.61,12.52-13.02c2.46,9,1.02,16.72-4.86,23.4c-2.66,3.02-3.55,5.93-2.21,9.91c0.55,1.62,3.3,4.09-0.15,5.94
		c-0.09,0.05,0.32,1.1,0.54,1.66c4.54,11.72,1.31,22.39-4.44,32.71c-1.09,1.96-3.37,2.61-5.06,3.87c-1.19,0.88-2.43,1.62-3.32,2.86
		c0.91,0.91,1.47,2.26,2.97,2.34c1.67-0.77-0.08-3.01,2.03-3.84c-0.48,6.33,2.52,11.87,3.27,17.87c0.91,7.28,0.69,14.55,0.15,21.82
		c-0.53,7.09-3.72,13.42-5.95,20.03c-3.62,10.72-6.91,21.55-10.73,32.19c-1.42,3.95-1.71,8.4-4.75,11.77
		c-0.7,0.77,0.73,1.17,1.6,1.9c-1.77,1.11-2.65,2.78-3.55,4.57c-4.55,9.14-19.02,34.24-27.13,43.34
		c-3.18,3.56-6.01,7.33-10.04,10.07c-1.5,1.02-2.85,1.43-4.55,1.41c-4.16-0.05-8.34-0.21-12.49,0.04
		c-4.46,0.27-7.82-2.06-10.25-4.98c-4.69-5.65-9.77-10.99-13.72-17.3c-3.72-5.93-7.5-11.83-11.13-17.83
		c-3.58-5.93-7.12-12-9.89-18.21c-1.61-3.62-2.88-7.9-4.07-11.95c-2.29-7.79-4.46-15.68-7.25-23.24c-2.45-6.63-5.17-13.24-7.3-19.95
		c-3.93-12.34-5.01-25.07-1.74-37.85c0.34-1.34,0.14-2.64,0.32-3.94c0.84-6.12,4.46-8.32,10.8-6.88c5.24,1.19,10.54,2.2,15.85,3.02
		c1.65,0.26,3.58,0.64,5.38-0.73c-0.86-1.65-2.33-1.17-3.48-1.15c-7.13,0.12-13.96-1.83-20.79-3.32c-4.73-1.04-8.35-4.65-10.75-8.92
		c-2.57-4.58-4.34-9.47-4.08-14.94c0.12-2.59,0.55-5.27-0.8-7.81c-0.42-0.78-0.51-2.36-0.02-2.9c3.53-3.86,0.92-8.86,2.62-13.16
		c1.12-2.84,0.44-6.24-2.74-8.61c-3.52-2.63-4.03-7.11-4.82-10.98c-0.78-3.83-2.19-7.97,0.57-11.87c1.35,0.05,1.35,1.8,1.98,2.81
		c3.15,5.03,7.72,8.46,12.7,11.38c1.15,0.68,2.08,1.62,3.24,2.21c2.67,1.34,1.25,2.42-0.19,3.56c1.21,0.81,2.81,2.39,3.86,1.27
		c3.09-3.3,6.18-0.14,9.21-0.43c0.64-0.06,1.45,0.7,2.32,0.67c5.63-0.17,11.2,0.62,16.8,0.89c7.7,0.36,15.31-1.08,22.86-2.77
		c2.11-0.47,4.8-2.58,6.71,1.62c0.06-3.08,2.9-3.69,2.93-5.96L459.49,452.12z M455.28,514c3.32,3.81,6.26,4.6,9.35-0.21
		c-4.34-4.08-4-9.86-4.47-15.51C459.58,503.97,459.93,509.66,455.28,514z M453.97,514.71c-7.34,2.55-14.98,4.15-22.5,6.17
		C439.31,520.14,447.08,519.12,453.97,514.71z M466.73,514.83c6.61,4.27,14.11,5.51,21.79,6.04
		C481.4,518.47,473.72,518.05,466.73,514.83z M499.67,520.09c6.92,1.86,13.17-1.24,19.69-2.52
		C512.68,517.39,506.33,519.92,499.67,520.09z"/>
	<path class="st0" d="M491.08,1149.91c-6.5,0.97-12.15-1.66-17.78-3.52c-19.19-6.35-33.9-19.32-46.86-34.09
		c-9.51-10.84-15.73-24-20.92-37.46c-3.39-8.8-6.35-17.77-9.54-26.64c-1.17-3.26-0.56-5.38,2.64-7.63c3.07-2.16,6.24-4.17,9.34-6.27
		c5.04-3.41,7.93-8.37,10.05-13.55c4.18-10.18,6.85-20.92,6.34-32.01c-0.77-16.88-5.23-32.58-14.58-47.06
		c-5.82-9.01-12.42-17.62-16.86-27.51c-1.4-3.12-2.85-6.27-4.04-9.43c-1.5-3.96,0.44-8.02,1.33-12c1.88-8.43,6.49-15.05,12.3-21.37
		c8.29-9.02,14.89-19.41,21.23-29.9c5.43-8.97,9.99-18.42,14.49-27.86c8.91-18.71,15.43-38.31,20.19-58.48
		c0.48-2.05,1.64-3.95,1.32-6.24c3.45,12.26,6.38,24.55,10.68,36.44c6.89,19.05,14.75,37.65,25.52,54.9
		c0.91,1.46,1.07,2.87,0.75,4.9c-1.95,12.3-6.26,23.87-10.03,35.63c-2.03,6.35-3.66,12.83-4.34,19.53
		c-0.82,8.1-4.54,15.47-6.22,23.4c-2.73,12.91-5.93,25.71-7.75,38.81c-0.91,6.52-1.31,13.07-2.08,19.58
		c-1.48,12.62-1.12,25.25-0.6,37.8c0.47,11.12,0.9,22.31,2.51,33.43c1.5,10.38,4.37,20.4,6.3,30.65c1.86,9.92,3.66,19.89,6.3,29.62
		c2.72,10.02,4.98,20.22,9.22,29.81C490.82,1145.21,492.01,1147.23,491.08,1149.91z"/>
	<path class="st0" d="M459.63,451.96c-5.78,2.33-11.97,3.3-18.03,4c-4.37,0.51-8.8,1.9-13.26,1.2c-8.58-1.35-17.51-0.01-25.85-3.01
		c-10.73-3.86-20.36-9.26-24.44-20.9c-1.42-4.07-2.47-8.32,0.94-12.54c-2.01,0.25-1.63,2.38-3.43,1.87
		c0.43-1.37,0.93-2.86,1.38-4.37c1.3-4.27,0.86-5.52-2.95-8.18c-3.78-2.63-6-6.61-8.23-10.36c-5.38-9.01-8.22-19.1-11.26-29.06
		c-0.18-0.58,0.07-1.28,0.17-2.68c2.61,2.6,4.79,4.84,7.04,7c1.19,1.14,2.19,2.45,3.7,3.29c3.18,1.76,5.12,4,6.41,7.93
		c1.72,5.22,6.14,9.41,11.33,11.87c3.24,1.54,5.71,3.15,5.55,7.65c4-3.08,7.87-4.02,12.24-2.51c4.05,1.4,8.42,0.82,12.6,1.84
		c3.99,0.98,7.94-1.35,12.02-1.81c-2.97,0-5.94-0.03-8.91,0.01c-10.27,0.12-20.23-2.02-29.84-5.19c-7.23-2.39-12.47-7.6-14.45-15.46
		c-0.5-1.98-1.39-3.48-3.8-4.57c-6.06-2.74-10.11-8.06-14.18-13.15c-2.66-3.32-5.13-6.8-7.66-10.17c0.69-1.23,1.73-1.8,2.96-1.36
		c9.02,3.22,18.3,4.88,27.87,5c0.41,0.01,0.82,0.47,1.15,0.67c0.97,1.68-1.65,2.05-1.07,3.5c0.41,0.67,0.8,0.19,1.08-0.12
		c2.27-2.52,5.1-3.11,8.43-3.24c11.97-0.46,23.71-2.25,34.86-7.04c3.71-1.59,7.47-3.39,11.77-3.07c0.17-0.83-1.86-1.53-0.19-2.42
		c5.34-2.86,9.19-7.45,13.51-11.5c6.03-5.64,9.64-12.73,12.95-20.72c5.04,14.55,15.32,24.47,27.98,33.61
		c-3.02,0.18-4.9,0.28-6.78,0.39c11.39-0.91,20.54,6.45,31.1,8.26c5.96,1.02,11.96,2.04,17.98,2.47c4.81,0.35,9.83-0.61,12.44,6.08
		c1.05-3.52-1.89-3.96-1.93-6.58c11.25-0.44,22.42-2.03,33.38-6.63c-4.69,9.43-10.78,17.07-18.46,23.13
		c-4.16,3.28-7.34,6.44-9.65,11.51c-3.76,8.23-11.55,11.85-20.4,13.68c-10.36,2.14-20.74,3.38-31.32,3.14
		c7.19,1.67,14.29,1.6,21.53,0.11c4.97-1.02,10.26-2.71,15.36,1.36c-0.04-3.12,1.25-5,3.95-6.12c6.83-2.83,11.68-7.66,13.84-14.84
		c0.9-3.01,3.56-3.91,5.61-5.65c3.56-3.03,7.9-5.25,10.25-9.82c-0.11,9.07-3.89,16.79-6.98,24.7c-3.2,8.19-8.8,14.62-15.62,20.42
		c1.56,2.36,2.34,6.13,1.7,7.3c-1.86,3.4,0.08,6.77-1.29,10.15c-1.54,3.8-2.87,7.64-5.5,10.77c-2.55,3.02-5.61,5.47-9.1,7.49
		c-8.14,4.74-16.78,7.39-26.22,6.82c-3.06-0.18-5.77,1.17-8.8,1.13c-10.23-0.14-20.13-2.5-30.16-4.04
		c-2.24-0.35-1.38-2.86-3.14-3.32c-0.62,0.55-0.28,1.42-0.33,2.21L459.63,451.96z M459.8,359.88c-0.39-1.35-1.56-2.2-1.37-3.69
		c0.11-0.83,0.05-2.01-0.81-2.16c-4.84-0.86-8.28-4.83-13.06-5.74c-1.3-0.25-2.31,0.15-2.68,1.57c10.66,1.38,16.36,6.91,18.22,18.5
		c0.5-12.54,8.78-16.48,19-19.08C472.82,347.54,464.27,352.5,459.8,359.88z M460.56,411.52c1.05,0,1.02-0.83,1.3-1.27
		c2.79-4.35,5.43-8.62,11.92-6.17c1.67,0.63,3.91,0.45,5.95-0.25c-5.61-2.14-11.83-0.76-16.99-3.73c-1.14,2.18,1.86,2.62,1.59,4.52
		C462.83,406.68,460.16,408.26,460.56,411.52z M459.02,411.86c2.03-4.72-5.39-5.75-2.89-10.52c-6.02,0.58-11.26,1.29-16.37,2.91
		c3.42-1.02,7.1,1.04,10.46-0.9c0.67-0.39,1.66-0.23,2.28,0.46C454.78,406.32,457.91,408.12,459.02,411.86z"/>
	<path class="st0" d="M490.34,225.27c-4.37,3.99-9.53,6.83-14.55,9.84c-5.95,3.57-9.75,8.96-13.2,14.69
		c-0.83,1.37-1.01,3.14-2.67,4.19c-1.6-3.18-3.39-6.22-5.35-9.17c-2.97-4.46-6.77-7.94-11.48-10.48
		c-6.91-3.71-12.41-9.14-17.79-14.72c-1.82-1.88-3.41-4.06-5.81-5.33l0.15,0.16c-0.09-1.2-0.56-2.18-1.47-3.04
		c-7.17-6.72-7.55-15.5-6.44-24.23c0.58-4.6,0.92-8.98-0.13-13.8c7.46,5.25,11.06,13.34,16.75,19.64
		c5.53,6.12,12.97,9.91,17.9,16.65c0.33-0.33,0.65-0.65,0.98-0.98c-1.12-1.24-2.25-2.48-3.97-4.37c11.39,1.26,22.02,1.5,32.87-0.06
		c-2.07,4.32-6.48,5.57-9.07,8.77c16.28-10.25,29.25-23.99,40.64-39.59c-1.48,8.24,1.61,15.98,0.82,23.89
		c-0.45,4.46-1.37,8.55-4.54,11.87c-0.8,0.84-1.79,1.54-1.49,2.93C498.44,216.51,494.39,220.89,490.34,225.27z"/>
	<path class="st0" d="M424.2,39.77c-7.88-1.35-14.18,1.66-19.76,6.96c-6.21,5.9-11.73,12.26-14.69,20.78
		c-11.65-21.03,1.27-54.7,23.5-63.61C413.61,14.64,413.96,22.31,424.2,39.77z"/>
	<path class="st0" d="M530.69,67.33c-2.95-5.36-5.47-10.64-9.24-15.17c-5.36-6.44-11.49-11.59-20.12-12.86
		c-1.8-0.27-3.53,0.05-5.42,0.8c6.58-11.39,11.84-22.99,11.01-36.36C529.54,13.92,541.27,44.74,530.69,67.33z"/>
	<path class="st0" d="M243.52,1181.03c2.93,5.2,5.99,8.99,7.32,13.81c1.25,4.52-0.34,7.92-4.84,8.12
		c-6.15,0.27-11.68,2.22-17.62,5.07C230.94,1197.6,237.11,1189.91,243.52,1181.03z"/>
	<path class="st0" d="M676.5,1181.55c6.85,7.75,11.87,16.06,15.42,26.17c-6.3-2.26-11.69-4.81-17.92-4.77
		c-4.21,0.02-5.87-3.38-4.69-7.53C670.71,1190.52,673.31,1186.28,676.5,1181.55z"/>
	<path class="st0" d="M732.99,405.23c3.74,13.26,6.59,26.35,5.15,40.23c-1.98-1.66-2.23-4.04-3.17-6.09
		c-2.25-4.86-4.65-9.66-7.24-14.35c-1.23-2.23-1.29-4.18-0.32-6.43C729.33,414.17,731.14,409.69,732.99,405.23z"/>
	<path class="st0" d="M204.04,1203.28c3.93-9.87,7.68-18.44,16.02-23.94c2.83,2.43,2.85,5.92,3.3,9.02
		c0.59,4.05-1.46,6.55-5.45,7.98C213.34,1197.98,209.01,1200.13,204.04,1203.28z"/>
	<path class="st0" d="M700.15,1179.15c8.29,5.83,11.59,14.6,15.21,23.26c-4.93-2.46-9.55-5.22-14.77-6.71
		c-2.35-0.67-3.28-2.18-3.25-4.76C697.4,1186.96,697.49,1183.09,700.15,1179.15z"/>
	<path class="st0" d="M724.92,1177.71c8.72,5.81,13.73,12.61,15.78,22.6c-4.7-3.7-9.56-4.88-14.35-6.07
		c-2.27-0.56-2.82-1.64-2.98-3.75C723.04,1186.31,724.55,1182.54,724.92,1177.71z"/>
	<path class="st0" d="M179.67,1200.11c1.12-10.12,7.86-15.85,14.61-22.12c2,4.76,2.48,9.24,2.14,13.81
		c-0.14,1.88-1.7,1.97-3.18,2.45C188.66,1195.75,183.75,1196.47,179.67,1200.11z"/>
	<path class="st0" d="M759.03,1195.75c-4.6-1.93-9.01-4.36-14.1-4.68c-1.31-0.08-2.43-0.79-2.4-2.04c0.13-4.53-1.06-9.19,1.01-13.62
		C749.63,1178.18,758.66,1190.09,759.03,1195.75z"/>
	<path class="st0" d="M176.98,1174.86c0.86,5.3,0.56,9.86,0.31,14.38c-0.08,1.51-1.65,1.62-3.01,1.94
		c-4.55,1.09-9.18,2.02-13.55,4.42C164.58,1187.94,168.05,1180.06,176.98,1174.86z"/>
	<path class="st0" d="M490.34,225.27c4.05-4.38,8.1-8.77,12.16-13.15c0.61-0.15,1.61-0.6,1.76-0.39c4.26,5.45,10.29,5.49,16.35,5.5
		c0.98,0,1.97,0,3.01,0.36c-8.47,1.95-16.88,3.93-25.13,6.57c-2.31,0.74-4.63,1.45-6.87,2.38
		C490.09,227.18,490.66,225.79,490.34,225.27z"/>
	<path class="st0" d="M419.48,214.29c-0.19,2.44,1.98,3.3,3.27,4.67c2.14,2.27,4.5,4.33,6.45,6.96
		c-11.13-2.64-21.78-6.41-33.04-8.32c7.4,0.59,14.41,0.27,19.99-5.88c1.34,0.29,1.88,2.24,3.48,2.73L419.48,214.29z"/>
	<path class="st0" d="M390.78,104.79c-3.43-5.94-3.54-12.45-3.95-19c2.54,2.69,6.55,3.91,6.71,8.54
		C393.67,98.1,391.15,101.1,390.78,104.79z"/>
	<path class="st0" d="M529.99,105.1c-4.27-7.08-4.48-15.54,3.28-19.35C533.96,92.54,532.14,98.71,529.99,105.1z"/>
	<path class="st0" d="M531.45,122.16c0.08-4.45,0.13-8.06-1.65-11.27c3.15-2.46,5.97-4.91,7.97-9.01
		C538.14,108.61,536.15,114.92,531.45,122.16z"/>
	<path class="st0" d="M382.82,103.28c2.45,2.95,5.01,5.3,7.6,7.44c-0.97,3.46-2.66,6.48-1.71,10.7
		C384.28,116.53,382.21,109.89,382.82,103.28z"/>
	<path class="st0" d="M433.2,166.3c3.67,0.53,5.95,1.96,8.14,3.48c0.49,2.84-1.95,3.65-3.27,5.23
		C434.83,173.15,434.68,169.76,433.2,166.3z"/>
	<path class="st0" d="M481.97,174.99c-1.68-1.06-2.69-2.51-3.14-4.41c2.56-2.58,2.56-2.58,7.42-4.17
		C486.4,170.18,484.92,172.93,481.97,174.99z"/>
	<path class="st0" d="M672.71,696.08c-1.54-4.75-2.62-8.89-2.17-13.52C675.5,687.54,675.91,689.86,672.71,696.08z"/>
	<path class="st0" d="M710.64,716.16c-4.13-1.5-6.59-4.94-9.92-7.73C710.67,709.9,710.92,710.67,710.64,716.16z"/>
	<path class="st0" d="M388.55,125.94c-0.77,2.54-1.39,5.02-1.1,8.32c-2.8-3.84-4.19-7.45-5.33-11.96
		C384.67,123.74,386.53,124.79,388.55,125.94z"/>
	<path class="st0" d="M532.89,134.14c-0.84-7.55-0.84-7.55,5.37-12.81C537.59,126.11,535.09,129.7,532.89,134.14z"/>
	<path class="st0" d="M741.29,716.5c-2.99-4.65-2.17-7.65,2.63-11.37C745.34,709.53,741.54,712.24,741.29,716.5z"/>
	<path class="st0" d="M382.73,137.79c1.79,0.97,3.42,2.04,5.37,2.7c0.65,1.91,0.31,3.88,0.24,6.21
		C385.66,144.05,383.84,141.21,382.73,137.79z"/>
	<path class="st0" d="M690.16,711.27c-2.87-2.76-4.46-5.41-5.88-8.54C690.57,704.9,690.57,704.9,690.16,711.27z"/>
</g>
</svg>
