<?xml version="1.0" encoding="utf-8"?>
<!-- Generator: Adobe Illustrator 24.0.2, SVG Export Plug-In . SVG Version: 6.00 Build 0)  -->
<svg version="1.1" id="Layer_1" xmlns="http://www.w3.org/2000/svg" xmlns:xlink="http://www.w3.org/1999/xlink" x="0px" y="0px"
	 viewBox="0 0 123.73 278.21" style="enable-background:new 0 0 123.73 278.21;" xml:space="preserve">
<style type="text/css">
	.st0{fill:#1A1A1A;}
</style>
<g>
	<path d="M101.46,156.41c0.65,1.54,1.11,2.94,1.5,4.36c0.71,2.59,1.1,5.22,1.35,7.89c0.19,2.03,0.33,4.06,0.34,6.08
		c0.01,3.22-0.16,6.45-0.58,9.66c-0.22,1.7-0.36,3.41-0.55,5.11c-0.16,1.43-0.35,2.85-0.65,4.25c-0.07,0.35-0.1,0.71-0.1,1.07
		c0.02,3.19-0.85,6.14-2.39,8.91c-0.88,1.57-1.59,3.22-2.14,4.94c-0.19,0.58-0.22,1.15-0.1,1.76c0.34,1.72,0.63,3.45,0.94,5.18
		c0.01,0.08,0.06,0.15,0.06,0.23c0.05,2.51,0.44,5.02,0.24,7.53c-0.29,3.58-1.54,6.84-3.89,9.61c-0.5,0.59-0.84,1.24-1.14,1.95
		c-1.33,3.12-2.61,6.26-3.78,9.45c-0.94,2.55-1.6,5.18-2.34,7.8c-0.06,0.23-0.1,0.47-0.1,0.71c-0.06,2.16,0.14,4.3,0.57,6.42
		c0.21,1.06,0.73,1.86,1.45,2.62c1.13,1.19,2.37,2.25,3.69,3.21c0.87,0.63,1.75,1.26,2.61,1.91c0.34,0.26,0.66,0.35,1.1,0.26
		c0.78-0.16,1.59-0.25,2.33,0.19c0.3,0.17,0.53,0.02,0.8-0.03c1.18-0.21,2.32-0.21,3.26,0.69c0.26,0.25,0.57,0.25,0.89,0.26
		c0.95,0.03,1.71,0.39,2.07,1.33c0.12,0.32,0.41,0.48,0.63,0.7c0.57,0.55,1.23,1.01,1.64,1.73c0.37,0.66,0.53,1.32,0.27,2.05
		c-0.48,0.37-0.93,0.07-1.39-0.01c-0.32,0.13-0.4,0.47-0.6,0.71c-0.99,1.19-2.4,1.64-3.87,1.15c-0.78-0.26-1.49-0.39-2.3-0.1
		c-0.63,0.22-1.36,0.22-2.02,0.06c-0.7-0.17-1.33-0.02-1.98,0.21c-0.56,0.2-1.14,0.36-1.71,0.55c-1.03,0.35-2.05,0.12-3.07-0.05
		c-0.35-0.06-0.73-0.11-1.04-0.27c-1.22-0.61-2.48-0.43-3.74-0.26c-0.35,0.05-0.72,0.02-1.08,0.04c-1.59,0.1-3.18,0.16-4.64,0.96
		c-0.48,0.26-1.05,0.4-1.6,0.46c-1.94,0.24-3.87,0.19-5.82-0.08c-2.46-0.35-3.78-2.06-3.89-4.68c-0.05-1.29,0.23-2.54,0.62-3.76
		c0.28-0.88,0.55-1.76,0.9-2.6c0.43-1.01,0.36-2.02,0.22-3.06c-0.03-0.2-0.07-0.4-0.13-0.58c-0.71-2-0.35-3.93,0.37-5.84
		c0.25-0.67,0.54-1.33,0.82-1.99c0.94-2.26,1.59-4.61,1.94-7.02c0.15-1.06,0.08-2.16,0.06-3.23c-0.05-2.47-0.36-4.94-0.3-7.41
		c0.02-0.65-0.15-1.27-0.25-1.89c-0.27-1.62-0.48-3.23-0.48-4.88c0-0.63-0.16-1.27-0.14-1.9c0.14-3.78,0.19-7.58,0.94-11.31
		c0.54-2.71,1.45-5.31,2.57-7.84c0.86-1.95,1.89-3.79,3.19-5.47c0.8-1.03,1.02-2.24,1.19-3.46c0.28-2.12-0.14-4.19-0.61-6.25
		c-0.09-0.39-0.29-0.72-0.52-1.06c-2.04-3.07-3.85-6.26-5.02-9.77c-0.59-1.79-0.94-3.63-1.29-5.47c-0.74-3.88-1.22-7.8-2.15-11.64
		c-0.38-1.55-0.72-3.11-1.1-4.66c-0.13-0.54-0.31-1.08-0.55-1.58c-1.34-2.73-1.93-5.65-2.25-8.64c-0.07-0.63-0.16-1.26-0.25-1.97
		c-0.93,0.16-1.77,0.58-2.7,0.35c-0.9-0.22-1.7-0.66-2.54-1.13c-0.57,0.86-0.84,1.78-1.24,2.64c-0.59,1.27-1.08,2.58-1.81,3.77
		c-0.17,0.27-0.32,0.56-0.5,0.82c-2.08,3.04-6.34,10.53-7.79,13.87c-0.89,2.05-1.77,4.11-2.53,6.21c-0.96,2.65-2.26,5.1-3.89,7.4
		c-0.12,0.16-0.23,0.33-0.35,0.49c-1.53,2.03-1.53,4.3-1,6.63c0.07,0.3,0.28,0.57,0.42,0.86c1.45,3.01,2.44,6.16,2.64,9.51
		c0.18,2.98-0.29,5.9-1.14,8.75c-0.65,2.19-1.05,4.42-1.46,6.66c-0.16,0.84,0.14,1.66,0.31,2.48c0.32,1.57,0.82,3.08,1.44,4.56
		c0.15,0.37,0.37,0.77,0.34,1.13c-0.07,0.81,0.37,1.35,0.77,1.95c1.43,2.12,1.95,4.45,1.53,6.96c-0.75,4.44-0.35,8.74,1.5,12.88
		c0.67,1.49,1.26,3.01,2.21,4.37c0.94,1.35,1.28,2.92,1.2,4.55c-0.03,0.58,0.04,1.11,0.24,1.64c0.8,2.13,1.27,4.37,2.2,6.45
		c0.21,0.46,0.34,1,0.36,1.5c0.03,0.78,0.24,1.49,0.48,2.21c0.22,0.68,0.43,1.38,0.35,2.11c-0.02,0.24-0.01,0.49-0.09,0.71
		c-0.4,1.08-0.78,2.16-1.25,3.21c-0.26,0.58-0.67,1.09-1.26,1.41c-0.62,0.34-1.06,0.18-1.29-0.51c-0.15-0.45-0.24-0.92-0.37-1.41
		c-1.02-0.45-1.79-1.16-2.22-2.22c-0.28-0.69-0.36-1.4-0.31-2.12c0.05-0.62-0.04-1.18-0.29-1.74c-0.08-0.18-0.14-0.38-0.16-0.57
		c-0.1-0.94-0.62-1.6-1.38-2.23c0.18,1.05,0.34,2.02,0.51,2.99c0.04,0.23,0.16,0.5,0.1,0.7c-0.31,1.04-0.06,2.04,0.07,3.07
		c0.11,0.9,0.13,1.84-0.22,2.72c-0.15,0.37-0.32,0.73-0.48,1.09c-0.26,0.57-0.9,0.83-1.16,1.34c-0.27,0.52-0.38,1.12-0.75,1.61
		c-0.29,0.39-0.57,0.78-1.1,0.85c-0.54-0.22-0.72-0.7-0.92-1.19c-0.28-0.69-0.6-1.32-1.31-1.76c-1-0.63-1.47-1.66-1.45-2.86
		c0.01-0.8-0.17-1.59-0.04-2.39c0.06-0.37-0.21-0.69-0.23-1.04c-0.05-0.76-0.26-1.49-0.22-2.26c0.03-0.61-0.1-1.18-0.53-1.77
		c-0.44,0.39-0.74,0.81-0.88,1.35c-0.38,1.41-1.04,2.68-1.93,3.82c-0.21,0.27-0.31,0.53-0.33,0.86c-0.07,0.88-0.26,1.73-0.66,2.53
		c-0.55,1.09-1.35,1.87-2.55,2.19c-0.19,0.05-0.37,0.13-0.52,0.19c-0.28,0.67-0.5,1.32-0.8,1.92c-0.28,0.55-0.76,0.6-1.15,0.13
		c-0.55-0.65-0.87-1.43-1.02-2.27c-0.04-0.23-0.01-0.5-0.11-0.7c-0.41-0.83-0.35-1.69-0.34-2.58c0.02-1.34,0.58-2.47,1.14-3.62
		c0.28-0.58,0.49-1.16,0.6-1.8c0.14-0.82,0.35-1.65,0.66-2.42c0.25-0.64,0.28-1.28,0.32-1.96c-0.78,0.9-1.85,1.5-2.35,2.65
		c-0.35,0.8-1,1.44-1.71,2.06c0.23,1.14,0.17,2.27-0.44,3.32c-0.63,1.09-1.68,1.53-2.78,1.82c-0.28,0.37-0.14,0.75-0.21,1.09
		c-0.14,0.71-0.67,0.91-1.22,0.44c-0.59-0.51-0.91-1.21-1.15-1.93c-0.16-0.49-0.25-1-0.4-1.5c-0.09-0.32-0.13-0.64-0.06-0.95
		c0.33-1.56,0.54-3.15,1.13-4.64c0.31-0.78,0.65-1.54,1.25-2.16c0.37-0.38,0.58-0.86,0.72-1.36c0.27-1.01,0.71-1.95,1.26-2.83
		c0.72-1.16,1.22-2.42,1.7-3.7c0.15-0.41,0.31-0.85,0.3-1.27c-0.04-1.8,0.51-3.48,1.14-5.11c1.21-3.15,2.06-6.39,2.31-9.75
		c0.1-1.35,0.12-2.78-0.47-4.1c-0.18-0.4-0.31-0.82-0.46-1.24c-0.35-0.96-0.4-1.94-0.19-2.95c0.28-1.33,0.56-2.65,0.61-4.01
		c0.11-2.71-0.19-5.33-1.35-7.82c-0.52-1.12-1.02-2.25-1.52-3.39c-0.2-0.45-0.51-0.81-0.79-1.2c-1.66-2.27-3.1-4.65-3.91-7.37
		c-0.92-3.09-1.27-6.23-0.9-9.46c0.14-1.23,0.3-2.45,0.51-3.67c0.1-0.58,0.12-1.16,0.11-1.76c-0.03-2.35-0.21-4.72,0.2-7.06
		c0.21-1.18,0.5-2.34,0.77-3.5c0.23-0.97,0.34-1.94,0.2-2.94c-0.15-1.06-0.24-2.14-0.23-3.22c0.02-1.43,0.1-2.87,0.26-4.3
		c0.24-2.1,0.52-4.19,0.9-6.27c0.81-4.4,1.77-8.76,3.55-12.9c1.36-3.16,3.24-5.96,5.6-8.44c1.68-1.78,3.16-3.71,4.46-5.77
		c0.72-1.15,1.05-2.49,1.45-3.79c0.21-0.69,0.38-1.39,0.52-2.09c0.56-2.88,1.77-5.47,3.53-7.79c1.73-2.26,2.48-4.83,2.95-7.6
		c0.55-3.2,0.04-6.27-0.61-9.36c-0.32-1.52-0.84-2.97-1.54-4.39c-1.43-2.9-2.37-5.99-3-9.16c-0.37,0.01-0.38,0.31-0.48,0.51
		c-0.78,1.49-1.69,2.89-2.65,4.27c-1.09,1.58-2.22,3.13-3.06,4.87c-0.23,0.47-0.41,0.93-0.51,1.46c-0.18,0.99-0.6,1.86-1.23,2.68
		c-0.94,1.23-1.24,2.74-1.37,4.27c-0.1,1.19-0.17,2.39-0.32,3.57c-0.38,2.93-1.7,5.47-3.39,7.83c-2.11,2.96-4.27,5.88-6.39,8.84
		c-1.12,1.56-2.12,3.19-2.81,5c-0.26,0.7-0.3,1.29,0.2,1.89c0.18,0.21,0.29,0.48,0.44,0.71c0.99,1.53,1.15,3.23,0.95,4.96
		c-0.09,0.78,0,1.52,0.17,2.23c0.35,1.45,0.57,2.9,0.29,4.38c-0.03,0.16-0.05,0.3,0,0.46c0.26,0.77,0.06,1.51-0.22,2.22
		c-0.17,0.44-0.25,0.83-0.05,1.26c0.32,0.23,0.85-0.17,1.07,0.31c0.25,0.55-0.28,0.76-0.56,1.07c-0.28,0.3-0.11,0.59-0.05,0.89
		c0.27,0.34,0.72-0.04,1.05,0.31c0.19,0.38,0.01,0.7-0.33,0.97c-0.64,0.5-1.39,0.62-2.16,0.51c-0.9-0.12-1.81,0.19-2.7-0.13
		c-1.39,0.28-2.79,0.05-4.18,0.14c-1.42,0.09-2.42-0.55-2.92-1.83c-0.49-1.26-1.25-2.29-2.24-3.19c-0.89-0.81-1.27-1.87-0.91-3.05
		c0.23-0.76,0.01-1.5,0.05-2.24c0.11-2.36,0.8-4.55,1.57-6.74c0.25-0.71,0.47-1.44,0.7-2.16c0.26-0.86,0.25-1.74,0.11-2.61
		c-0.25-1.56-0.01-3.04,0.81-4.38c0.67-1.09,0.92-2.21,0.97-3.5c0.22-5.75,0.77-11.46,2.39-17.01c0.81-2.79,1.98-5.41,4.03-7.53
		c0.61-0.63,1.28-1.2,1.93-1.79c0.39-0.35,0.66-0.74,0.84-1.26c0.8-2.22,0.68-4.48,0.31-6.73c-0.94-5.83,0.27-11.17,3.51-16.08
		c0.07-0.1,0.12-0.21,0.2-0.3c0.69-0.77,0.76-1.65,0.72-2.66c-0.1-2.41,0.37-4.76,1.1-7.05c0.81-2.52,2.09-4.76,4.01-6.58
		c2.02-1.92,4.43-3.11,7.18-3.58c1.38-0.24,2.77-0.34,4.16-0.08c0.36,0.07,0.7-0.02,1.05-0.14c1.36-0.48,2.73-0.92,4.03-1.52
		c1.06-0.49,2.16-0.83,3.29-1.07c0.23-0.05,0.49,0,0.76-0.3c0.08-0.5,0.19-1.11,0.31-1.86c-2.74,0.61-5.42,0.22-8.07,0.43
		c-0.36,0.03-0.71,0.02-1.06,0.15c-2,0.79-3.82,0.45-5.44-0.93c-0.21,0.08-0.39,0.14-0.66,0.24c-1.26-1.25-2.13-2.7-2.35-4.54
		c-0.12-1.02-0.1-2.06-0.51-3.05c-0.35-0.84,0.11-1.86,0.97-2.19c1.61-0.62,2.94-1.78,4.57-2.34c0.37-0.13,0.66-0.44,1-0.65
		c0.81-0.5,1.68-0.9,2.65-1.19c-0.75-1.97-0.87-3.94-0.67-6c-0.57,0.02-0.66,0.57-1.02,0.77c-0.3-0.16-0.2-0.44-0.17-0.63
		c0.38-2.16,0.78-4.32,1.52-6.4c0.61-1.72,1.48-3.27,2.77-4.58c0.14-0.14,0.37-0.32,0.35-0.46c-0.07-0.84,0.58-1.16,1.08-1.57
		c1.06-0.86,2.31-1.35,3.55-1.9c-0.14-0.39-0.6-0.45-0.7-0.82c0.09-0.32,0.37-0.23,0.58-0.24c0.87-0.01,1.75-0.01,2.7-0.01
		c0.29-1.99,0.25-3.94,0.59-5.85c0.34-1.92,0.6-3.86,1-5.77c0.4-1.9,0.93-3.76,1.48-5.93c0.61,1.77,1.08,3.29,1.64,4.76
		c0.57,1.47,1.08,2.97,1.88,4.62c0.72-2.97,1.07-5.75,1.46-8.63c0.64,0.45,0.86,1.07,1.06,1.64c1.21,3.43,2.24,6.91,2.67,10.54
		c0.09,0.71,0.08,1.43,0.13,2.22c1.1,0.27,2.22,0.5,3.42,1.05c-0.1-0.5-0.39-0.72-0.54-1c-0.19-0.35-0.4-0.69-0.6-1.04
		c-0.17-0.3-0.33-0.62-0.3-1.08c1.02,0.32,1.74,1.04,2.57,1.53c0.82,0.48,1.68,0.93,2.44,1.66c0.26-0.32-0.07-0.75,0.28-1.02
		c0.81,0.62,1.38,1.5,2.11,2.21c0.1-0.13,0.2-0.26,0.28-0.36c1.21,0.74,1.34,0.97,1.27,2.29c0.78,0.36,1.5,0.84,2.09,1.53
		c0.27-0.23,0.5-0.47,0.76-0.63c0.4-0.25,0.82-0.09,0.95,0.36c0.18,0.61,0.31,1.24,0.28,1.88c-0.02,0.49,0.13,0.88,0.42,1.31
		c1.23,1.84,2.2,3.8,2.26,6.09c0,0.07-0.05,0.15-0.07,0.22c-0.13,0.07-0.2-0.06-0.29-0.09c-0.02,0.07-0.07,0.16-0.05,0.22
		c0.61,1.9,0.88,3.89,1.31,5.83c0.43,1.92,1.03,3.77,1.77,5.59c0.07,0.18,0.14,0.37,0.18,0.56c0.01,0.06-0.04,0.14-0.08,0.25
		c-0.71-0.2-0.84-1.04-1.51-1.37c0.16,1.21,0.27,2.39,0.49,3.55c0.24,1.26,0.21,2.54,0.36,3.8c0.05,0.44,0.09,0.86,0.27,1.28
		c0.36,0.8,0.66,1.63,1.04,2.42c0.77,1.62,1.58,3.23,2.4,4.92c0.73,0.27,1.52,0.56,2.3,0.85c0.23,0.09,0.45,0.12,0.7,0.09
		c4.57-0.57,8.61,0.73,12.17,3.58c2.5,2,4.13,4.63,5.15,7.65c0.82,2.4,1.29,4.86,1.17,7.4c-0.04,0.85,0.22,1.5,0.74,2.17
		c2.2,2.83,3.9,5.94,4.97,9.37c0.47,1.49,0.62,3.04,0.77,4.59c0.07,0.75,0.11,1.52,0.08,2.27c-0.03,0.76,0.16,1.41,0.59,2.02
		c0.93,1.31,1.34,2.79,1.49,4.36c0.04,0.37,0.15,0.69,0.34,1c1.83,2.88,2.8,6.08,3.24,9.44c0.19,1.46,0.13,2.94-0.08,4.42
		c-0.25,1.69-0.3,3.42-0.57,5.11c-0.43,2.69-0.4,5.4-0.52,8.11c-0.04,1,0.07,1.99,0.4,2.95c0.24,0.7,0.23,1.41-0.04,2.11
		c-0.22,0.56-0.3,1.15-0.28,1.76c0.08,2.44-0.08,4.86-0.67,7.25c-0.25,1-0.29,2.05-0.35,3.09c-0.04,0.61-0.17,1.18-0.34,1.75
		c-0.22,0.73-0.65,1.28-1.35,1.59c-0.49,0.22-0.89,0.5-1.12,1.02c-0.11,0.24-0.34,0.44-0.54,0.63c-0.5,0.48-0.88,1.03-1.11,1.68
		c-0.27,0.79-0.72,1.43-1.53,1.74c-0.29,0.11-0.4,0.36-0.56,0.59c-0.55,0.76-1.24,1.22-2.24,1.13c-0.31-0.03-0.63,0.04-0.95,0.07
		c-1.66,0.18-3.32,0.38-4.98,0.55c-0.65,0.07-1.27-0.13-1.86-0.37c-0.56-0.23-1.14-0.4-1.75-0.33
		C102.63,156.81,102.17,156.54,101.46,156.41z M99.09,148.61c-0.61-0.38-0.69-1-0.6-1.65c0.09-0.67,0.29-1.33,0.69-1.9
		c0.48-0.69,0.93-1.41,1.24-2.18c0.53-1.31,1.47-2.15,2.77-2.64c1.31-0.5,2.34-1.34,3.09-2.54c0.15-0.24,0.34-0.45,0.51-0.67
		c0.84-1.09,1.83-2,3.09-2.59c0.47-0.22,0.93-0.46,1.38-0.72c0.82-0.48,1.25-1.17,1.19-2.17c-0.09-1.48-0.38-2.92-0.69-4.37
		c-0.58-2.67-1.64-5.17-2.62-7.7c-0.14-0.37-0.35-0.72-0.58-1.04c-1.05-1.43-1.77-3.03-2.36-4.69c-0.92-2.61-1.19-5.27-0.81-8.01
		c0.12-0.89,0.33-1.8-0.08-2.7c-0.42-0.91-0.83-1.82-1.07-2.79c-0.05-0.18-0.18-0.35-0.32-0.49c-0.96-1.01-1.88-2.08-2.92-3.01
		c-1.82-1.6-3.37-3.4-4.49-5.56c-0.09-0.17-0.13-0.38-0.39-0.47c-0.08,0.47-0.19,0.93-0.23,1.4c-0.2,2.44-0.76,4.81-1.62,7.09
		c-0.65,1.76-1.4,3.48-2.1,5.22c-0.81,2-1.62,3.99-2.29,6.04c-1.14,3.5-1.49,7.1-1.18,10.76c0.08,0.94,0.19,1.87,0.65,2.76
		c0.78,1.53,1.44,3.11,2.14,4.68c1.2,2.69,2.01,5.46,1.7,8.47c-0.08,0.77-0.2,1.58,0.05,2.36c0.85,2.67,1.83,5.28,3.27,7.69
		c1.48,2.47,3,4.91,4.17,7.54c0.07,0.15,0.17,0.27,0.33,0.32c0.7-0.19,0.66-0.24,1.17-0.67c0.44-0.38,0.61-1.17,1.43-1.05
		c0.07,0.01,0.16-0.15,0.23-0.24c0.77-1.02,1.82-1.21,3-1.02c0.23,0.04,0.44,0.22,0.66-0.02c-0.15-0.49-0.32-0.98-0.02-1.42
		c0.44-0.21,0.63,0.23,1.01,0.22c0.34-0.69,1.12-0.69,1.74-0.89c-0.02-0.62-0.37-0.92-0.74-1.25c-0.83-0.74-1.12-1.67-0.87-2.83
		c0.62,0.26,1.07,0.11,1.49-0.31c-0.46-1.44-1.63-2.06-2.95-2.49c-0.14-0.05-0.34-0.04-0.47,0.02c-0.85,0.39-1.73,0.63-2.23,1.64
		c-0.87,1.77-2.23,3.02-4.33,2.98C99.74,148.02,99.68,148.59,99.09,148.61z"/>
	<path class="st0" d="M73.62,79.88c0.18,3.67,0.1,7.37,0.07,11.07c-0.36-2.08-0.73-4.15-0.93-6.25c-0.15-1.51-0.13-3.03-0.24-4.54
		c-0.05-0.67-0.19-1.33-0.29-1.99c-0.35-0.03-0.35,0.2-0.34,0.38c0.21,2.61-0.22,5.15-0.78,7.68c-0.34,1.55-0.68,3.11-1.03,4.68
		c-0.24-0.05-0.17-0.23-0.18-0.35c-0.1-2.03-0.24-4.06-0.19-6.1c0.03-1.48,0.04-2.96,0-4.44c-0.05-2.12,0.19-4.22,0.25-6.34
		c0.01-0.37,0.03-0.73,0.38-0.95c0.15-0.09,0.22-0.21,0.25-0.38c0.02-0.16,0.09-0.32,0.07-0.47c-0.12-0.87,0.35-1.7,0.21-2.59
		c-0.4,0.04-0.24,0.37-0.35,0.54c-0.29,0.47,0.01,1.07-0.21,1.51c-0.25,0.48-0.58,0.9-0.63,1.47c-0.04,0.52-0.14,1.03-0.2,1.54
		c-0.28,2.34-0.56,4.67-0.57,7.03c0,0.55-0.15,1.09-0.23,1.67c-0.32-0.21-0.22-0.48-0.22-0.71c0.01-0.8,0.07-1.6,0.06-2.4
		c-0.04-2.76,0.16-5.5,0.37-8.24c0.2-2.58,0.43-5.17,0.36-7.77c-0.04-1.48-0.26-2.94-0.59-4.38c-0.01-0.05-0.11-0.09-0.19-0.15
		c-0.11,0.4,0,0.78,0.05,1.16c0.31,2.34,0.22,4.68,0.05,7.04c-0.14,2.03-0.4,4.05-0.42,6.1c-0.84-2.93-1.68-5.85-2.7-8.73
		c-0.12,0.98,0.27,1.88,0.45,2.81c0.18,0.94,0.43,1.86,0.65,2.81c-0.36-0.04-0.39-0.32-0.52-0.52c-0.74-1.19-1.48-2.37-2.21-3.56
		c-0.46-0.75-0.81-1.53-0.94-2.43c-0.25-1.65-0.43-3.32-0.58-4.98c-0.02-0.19,0.03-0.4-0.24-0.61c-0.25,1.62,0.18,3.17,0.18,4.91
		c-0.69-0.93-0.87-1.87-1.14-2.77c-0.29-0.95-0.52-1.93-0.47-2.94c0.04-0.95,0.14-1.89,0.15-2.87c-1.1,1.78-2.03,3.67-3.63,5.25
		c-0.05-0.73,0.56-1.18,0.53-2.01c-0.41,0.66-0.71,1.15-1.01,1.63c-0.71,1.14-1.6,2.07-2.75,2.79c-0.73,0.46-1.4,1.03-2.24,1.66
		c0.65-1.59,1.66-2.76,2.53-4.02c0.85-1.23,1.69-2.48,2.44-3.78c-0.84,0.71-1.42,1.62-2.1,2.46c-0.67,0.84-1.32,1.69-1.99,2.55
		c-0.24-0.28,0.02-0.47,0.1-0.66c0.67-1.46,1.58-2.77,2.51-4.07c1.02-1.43,1.94-2.93,2.77-4.48c0.18-0.34,0.31-0.7,0.39-1.08
		c-1.52,2.07-2.68,4.41-4.79,6.02c-0.2-0.33,0.08-0.48,0.19-0.65c1.76-2.85,2.9-5.95,3.69-9.19c0.29-1.2,0.63-2.39,0.93-3.59
		c0.21-0.85,0.43-1.69,1.03-2.37c0.24-0.28,0.31-0.64,0.42-1c-0.18-0.08-0.36-0.15-0.59-0.25c-0.71,1.59-1.37,3.16-1.83,4.81
		c-0.73,2.61-1.42,5.24-2.51,7.74c-0.25,0.58-0.51,1.16-0.85,1.71c0.05-1.12,0.32-2.2,0.58-3.27c0.27-1.12,0.59-2.24,0.93-3.34
		c0.33-1.1,0.7-2.18,1.12-3.27c-0.46,0.33-0.66,0.83-0.85,1.3c-0.52,1.28-1.3,2.38-2.21,3.39c-0.21,0.23-0.43,0.47-0.84,0.91
		c0.09-0.71,0.33-1.04,0.52-1.39c0.75-1.32,1.49-2.64,2.28-3.94c0.5-0.82,0.78-1.74,1.24-2.58c0.21,0.1,0.11,0.43,0.48,0.39
		c0.4-0.67,0.43-1.46,0.46-2.24c0.07-2.05-0.27-4.05-0.86-6.02c-0.2-0.67-0.62-1.3-0.51-2.05c-0.52-0.56-0.58-1.34-0.94-1.98
		c-0.13,0.55-0.13,0.55,0,1.03c0.39,1.46,0.8,2.92,1.18,4.39c0.18,0.68,0.31,1.37,0.31,2.12c-0.12-0.08-0.22-0.1-0.25-0.16
		c-0.92-1.97-2.23-3.68-3.55-5.39c-0.81-1.05-1.46-2.18-1.97-3.41c-0.26-0.62-0.34-1.29-0.6-2.05c-0.31,0.36-0.28,0.67-0.21,0.96
		c0.39,1.57,0.39,3.16,0.36,4.76c-0.01,0.36,0.05,0.73-0.3,1.05c-0.77-1.84-0.65-3.85-1.15-5.77c-0.33,0.25-0.23,0.54-0.2,0.78
		c0.03,0.27,0.2,0.54,0.2,0.8c-0.04,1.79-0.1,3.59-1.19,5.14c-0.27,0.38-0.5,0.78-0.8,1.23c-0.31-0.61,0-1.2-0.33-1.8
		c-0.38,0.4-0.1,0.92-0.44,1.32c-0.68-2.21-0.63-4.4-0.28-6.65c-0.37,0.06-0.39,0.32-0.43,0.5c-0.2,0.89-0.43,1.78-0.38,2.72
		c0.04,0.78,0.15,1.59-0.37,2.29c-0.04,1.11-0.23,2.23,0.04,3.34c0.08,0.35,0.17,0.7,0.25,1.05c0.04,0.17-0.02,0.31-0.17,0.4
		c-0.45-0.51-0.59-1.1-0.71-2.85c-0.07-0.99-0.18-1.96-0.06-2.97c0.12-1.02,0.3-2.02,0.55-3.18c-0.67,0.32-0.52,1.04-1.09,1.27
		c-0.03-0.69,0.26-1.3,0.39-1.93c0.24-1.1,0.61-2.14,1.08-3.17c0.84-1.83,2.1-3.28,3.63-4.38c0.27-0.15,0.41-0.06,0.56-0.01
		c0.15,0.05,0.29,0.1,0.54,0.19c-0.51,0.73-1.27,1.19-1.62,1.96c-0.34,0.75-0.47,1.57-0.97,2.34c0.48,0.07,0.56-0.16,0.65-0.35
		c0.31-0.69,0.66-1.36,1.1-1.99c0.78-1.11,1.73-1.98,3.03-2.38c0.13-0.23,0.15-0.45,0.09-0.68c-0.53-0.17-1.09-0.07-1.67-0.18
		c0.61-0.24,0.68-0.99,1.24-1.24c0.33-0.14,0.68-0.25,1.03-0.31c0.5-0.08,1.01-0.09,1.59-0.13c0.08,0.47,0.19,0.93,0.25,1.4
		c0.37,2.95,1.27,5.68,3.28,7.96c0.76,0.86,1.16,1.91,1.58,2.94c0.42,1.03,0.76,2.1,1.12,3.16c0.04,0.1,0,0.23,0,0.38
		c-0.09-0.07-0.16-0.09-0.18-0.14c-1.25-2.74-3.08-5.13-4.56-7.74c-0.4-0.7-1-1.29-1.08-2.17c-0.24,0.68-0.1,1.32,0.41,1.75
		c0.23,0.19,0.37,0.39,0.48,0.65c0.71,1.61,1.56,3.15,2.49,4.64c1.03,1.63,1.75,3.4,2.44,5.2c0.18,0.47,0.18,1.02,0.67,1.36
		c0.22,0.15,0.09,0.45,0.07,0.68c-0.15,2.15-0.42,4.28-0.79,6.4c-0.26,1.45-0.53,2.89-0.81,4.39c0.38-0.24,0.41-0.57,0.49-0.89
		c0.72-2.53,1.33-5.09,1.56-7.72c0.09-1.07,0.02-2.16,0.02-3.24c0-0.08,0.01-0.17-0.02-0.24c-0.73-1.32-0.2-2.82-0.62-4.18
		c0.47,0.71,0.84,1.43,0.89,2.29c0.03,0.59,0.08,1.19,0.39,1.72c0.09-0.05,0.21-0.07,0.22-0.12c0.28-1.7,0.94-3.29,1.47-4.92
		c0.45-1.41,0.93-2.8,1.21-4.26c0.2-1.02,0.2-1.47-0.06-2.32c-0.21,3.1-1.41,5.9-2.6,8.71c-0.25-1.04-0.12-2.07-0.01-3.08
		c0.15-1.3,0.38-2.59,0.94-3.81c0.48-1.06,0.54-2.24,0.6-3.4c0.13-2.41-0.23-4.77-0.8-7.11c-0.05-0.19-0.07-0.39-0.13-0.67
		c1.05-0.05,1.97,0.37,2.85,0.72c0.89,0.35,1.65,1,2.51,1.54c-0.55-1.19-0.81-1.4-3.4-2.75c0.32-0.2,0.63-0.07,0.92-0.04
		c1.71,0.21,3.38,0.54,4.95,1.31c0.67,0.33,1.07,0.76,1.16,1.57c-0.79-0.28-1.48-0.8-2.38-0.69c0.62,0.37,1.25,0.71,1.85,1.1
		c0.59,0.38,1.14,0.81,1.7,1.21c0.25-0.22-0.13-0.38,0.13-0.62c0.35,0.24,0.72,0.64,1.26,0.55c0.08-0.05,0.09-0.13,0-0.18
		c-0.93-0.48-1.44-1.33-1.94-2.19c-0.26-0.44-0.54-0.88-0.77-1.26c-0.38-0.11-0.21,0.34-0.57,0.29c-0.56-0.55-1.12-1.2-1.63-1.97
		c1.29,0.39,3.77,1.94,4.73,2.93c0.22-0.01,0.15-0.24,0.31-0.37c0.51,0.27,0.74,0.77,0.96,1.26c0.18,0.42,0.42,0.69,0.86,0.92
		c0.74,0.38,1.43,0.87,2.01,1.47c-0.59,1.15-1.99,2.3-4.53,3.73c-0.29-0.45-0.57-0.91-0.89-1.35c-0.29-0.4-0.55-0.85-1.25-1.21
		c0.39,0.62,0.66,1.04,0.92,1.46c0.27,0.44,0.62,0.83,0.79,1.44c-1.98,1.47-4.2,2.58-6.26,3.93c-0.13-0.11-0.24-0.21-0.4-0.35
		c-2.04,2.83-2.94,5.81-1.52,9.21c0.59,1.41,1.35,2.71,2.22,3.96c0.47,0.68,0.98,1.33,1.49,2.02c0.08-0.14,0.16-0.22,0.14-0.26
		c-0.48-1.51-1.07-2.99-1.41-4.6c-0.46,0.38-0.02,0.83-0.33,1.23c-1.03-1.47-1.73-3.03-2.05-4.75c0.12-0.07,0.19-0.13,0.26-0.15
		c0.11-0.02,0.24-0.01,0.42-0.01c0.03,1.16,0.05,2.32,0.97,3.4c-0.17-1.18-0.65-2.15-0.4-3.24c0.64-0.19,1.3-0.2,2.08-0.18
		c0,0.55-0.01,1.06,0,1.57c0.01,0.48-0.07,0.96,0.07,1.44c0.46-0.81,0.53-1.58,0.26-3.08c0.88-0.45,1.9-0.47,2.81-0.85
		c0.92-0.38,1.84-0.73,2.85-1.13c0.72,2.45,1.09,4.92,1.35,7.4c0.43,0,0.35-0.31,0.33-0.51c-0.23-2.38-0.33-4.78-1.28-7.03
		c-0.01-0.03,0.01-0.07,0.03-0.19c1.07-0.79,2.18-1.65,3.11-2.81c0.57,0.98,0.58,2.03,0.73,3.01c0.15,1.02,0.39,2.04,0.26,3.14
		c-0.35-0.51-0.31-1.11-0.56-1.68c-0.19,0.53,0.1,4.03,0.5,6.46c0.53-0.73,0.36-1.51,0.54-2.2c0.2-0.77,0.08-1.59,0.25-2.37
		c0.17-0.75-0.08-1.51-0.16-2.26c-0.08-0.79-0.28-1.57-0.43-2.35c-0.15-0.75-0.45-1.44-0.75-2.1c1.54-2.43,1.75-3.11,2.23-5.52
		c0.53,0.39,0.66,0.96,0.89,1.48c-0.69,1.01,0.26,1.73,0.48,2.56c0.44,1.66,0.77,3.34,1.08,5.03c0.28,1.49,0.53,2.98,0.97,4.44
		c0.05,0.18,0.11,0.37-0.02,0.55c-0.45-0.34-0.34-0.99-0.86-1.39c0.06,1.03,0.56,1.86,0.69,2.79c0.13,0.95,0.32,1.89,0.45,2.83
		c0.13,0.94,0.2,1.89,0.23,2.85c-0.69-1.34-0.88-2.84-1.5-4.22c0.05,0.53,0.08,1.07,0.16,1.59c0.57,3.62,1.73,7.04,3.38,10.31
		c1.95,3.85,3.67,7.8,5.1,11.88c0.05,0.15,0.11,0.3,0.02,0.47c-0.31-0.04-0.39-0.33-0.55-0.53c-0.72-0.91-1.41-1.84-2.14-2.73
		c-0.69-0.84-1.18-1.8-1.74-2.72c-0.84-1.4-1.7-2.8-2.37-4.3c-0.52-1.17-0.96-2.36-1.11-3.65c-0.03-0.31-0.15-0.6-0.24-0.97
		c-0.22,0.78-0.23,0.84,0.11,2.4c0.18,0.81,0.44,1.59,0.57,2.41c-1.1-2.03-1.82-4.18-2.15-6.45c-0.33-0.03-0.35,0.17-0.32,0.37
		c0.31,1.97,0.67,3.93,1.43,5.79c0.4,0.98,0.2,1.98,0.11,2.96c-0.06,0.66-0.29,1.31-0.46,2.04c-0.37-0.44-0.2-0.86-0.23-1.25
		c-0.03-0.44-0.01-0.88,0-1.32c0.01-0.4,0.04-0.8,0.05-1.2c0.01-0.44,0.09-0.87-0.12-1.48c-0.41,1.46-0.39,2.84-0.79,4.14
		c-0.42,1.37-0.8,2.76-1.26,4.12c-0.44,1.32-1,2.59-1.73,3.93c-0.21-0.34-0.13-0.53-0.08-0.74c0.35-1.64,0.69-3.28,1.03-4.92
		c0.06-0.28,0.06-0.55-0.04-0.93c-0.61,1.73-1,3.43-1.37,5.13c-0.2,0.89-0.33,1.8-0.49,2.71c-0.04,0.23-0.07,0.48-0.17,0.69
		c-0.49,1.04-1,2.07-1.61,3.32c0-1.42,0.51-2.49,0.57-3.69c-0.32,0.22-0.39,0.49-0.46,0.76c-0.75,2.65-1.43,5.33-1.43,8.1
		c0,1.87-0.03,3.75,0.16,5.62c0.12,1.11,0.09,2.24,0.02,3.36c-0.08,1.39-0.26,2.77-0.41,4.16c-0.11,0.98-0.25,1.96-0.64,2.89
		C74.66,89.06,74.36,84.47,73.62,79.88z M73.43,50.7c-0.22,0.12-0.28,0.13-0.28,0.15c-0.44,3-0.6,6.02-0.78,9.04
		c-0.1,1.68,0.14,3.34,0.21,5.02c0.1,2.39,0.36,4.76,0.7,7.13c0.26,1.85,0.59,3.7,1.07,5.51c0.06,0.23,0.03,0.57,0.38,0.64
		c0.19-0.1,0.21-0.26,0.18-0.42c-0.29-1.85-0.42-3.72-0.38-5.6c0.05-2.11-0.05-4.22,0.14-6.34c0.2-2.34,0.24-4.7,0.33-7.05
		c0.02-0.47,0.13-0.97-0.18-1.41c-0.33,3.92-0.82,7.81-1,11.75c-0.42-2-0.54-4.04-0.64-6.07c-0.1-2.03-0.04-4.07-0.09-6.11
		C73.03,54.9,73.35,52.86,73.43,50.7z M72.23,73.46c0.29-0.12,0.3-0.28,0.28-0.43c-0.07-0.63-0.12-1.27-0.23-1.89
		c-0.55-3.38-1.13-6.75-1.81-10.1c-0.66-3.24-1.08-6.51-1.25-9.81c-0.06-1.2-0.03-2.39-0.07-3.59c-0.01-0.21,0.08-0.48-0.22-0.58
		c-0.27,0.17-0.17,0.43-0.17,0.65c-0.01,1.88-0.04,3.75,0.01,5.63c0.03,1.19,0.14,2.38,0.31,3.56
		C69.92,62.43,71.28,67.88,72.23,73.46z M71.1,56.55c0.08-0.86,0.19-1.72,0.22-2.58c0.06-1.68,0.04-3.36,0.1-5.03
		c0.03-0.9,0.15-1.79,0.02-2.69c-0.02-0.17,0-0.33,0.13-0.44c0.29-0.24,0.24-0.57,0.24-0.89c0-1.12,0.03-2.24-0.01-3.36
		c-0.02-0.7-0.15-1.4-0.23-2.15c-0.16,0.12-0.25,0.18-0.36,0.26c-0.09-0.3-0.19-0.61-0.26-0.91c-0.07-0.29,0.07-0.68-0.44-0.94
		c0.21,1.35,0.14,2.58,0.29,3.8c0.15,1.22,0.11,2.47,0.13,3.71c0.02,1.28,0,2.56,0,3.84c0,1.24-0.04,2.48,0.01,3.72
		C70.99,54.11,70.7,55.33,71.1,56.55z M56.3,58.29c0.57-0.13,0.95-0.51,1.34-0.88c1.07-1.02,2.03-2.14,2.91-3.33
		c0.88-1.2,1-2.75,1.89-3.94c0.19-1.04,0.35-2.08,0.25-3.42c-0.35,0.86-0.61,1.45-0.72,2.11c-0.36,2.12-1.12,4.07-2.5,5.75
		c-0.08,0.09-0.14,0.2-0.23,0.27c-0.06,0.05-0.15,0.24-0.28,0c0.32-0.93,0.95-1.78,1.02-2.83C58.78,54.1,57.76,56.31,56.3,58.29z
		 M80.97,43.6c0.01,0.77,0.15,1.45-0.14,2.08c0.47,0.66,0.03,1.37,0.08,2.06c0.1,1.35,0.02,2.7-0.11,4.05
		c-0.33,3.42-0.89,6.79-1.84,10.1c-0.04,0.16-0.21,0.34,0.07,0.48c0.08-0.1,0.17-0.18,0.21-0.29c1.3-3.83,2.07-7.77,2.18-11.82
		c0.03-1.03-0.16-2.07,0.21-3.08c0.09-0.25,0.04-0.56,0.02-0.83c-0.08-0.71-0.17-1.42-0.27-2.13C81.34,44.02,81.28,43.82,80.97,43.6
		z M79,47.06c0,1.56,0.09,3.14-0.01,4.71c-0.11,1.59-0.26,3.17-0.47,4.75c-0.21,1.62-0.47,3.23-0.85,4.82
		c-0.37,1.53-0.73,3.07-1.09,4.61C78.9,59.84,79.79,53.55,79,47.06z M66.62,64.16c0.2-0.45,0.2-0.83,0.13-1.17
		c-0.19-0.83-0.15-1.67-0.13-2.5c0.06-3.67-0.08-7.33-0.33-10.98c-0.01-0.18,0.02-0.42-0.29-0.39c-0.15,0.26-0.12,0.55-0.1,0.82
		c0.38,4.64,0.03,9.31,0.51,13.95C66.41,63.95,66.49,64,66.62,64.16z M65.7,21.09c0.2,1.05,0.44,2.09,0.6,3.14
		c0.15,1.02,0.23,2.06,0.34,3.19c0.34-0.4,0.03-0.89,0.28-1.09c0.77-0.61,0.31-1.3,0.33-2c-0.3,0.07-0.28,0.26-0.33,0.33
		C66.74,23.43,66.49,22.19,65.7,21.09z M65.94,48.79c0.21-0.31,0.24-0.57,0.17-0.78c-0.41-1.25-0.4-2.58-0.64-3.92
		c-0.15,0.1-0.26,0.15-0.26,0.19c0.14,1.41,0.15,2.83,0.43,4.23C65.66,48.6,65.8,48.66,65.94,48.79z M74.41,47.12
		c-0.43,1.07-0.47,1.44-0.23,2.3C74.32,48.63,74.62,47.94,74.41,47.12z M64.79,43.35c0.11-0.48,0.18-0.95-0.23-1.59
		C64.38,42.48,64.65,42.91,64.79,43.35z"/>
	<path class="st0" d="M89.64,63.52c-3.2-0.94-4.64-3.11-4.96-6.12c0.11,0.08-0.11-0.07,0.05-0.08c0.04,0,0.09,0.01,0.11,0.04
		C86.21,59.53,87.96,61.42,89.64,63.52z"/>
	<path class="st0" d="M62.28,30.13c-0.21,1.05,0.12,2.07-0.36,3.06c-0.33-0.86-0.63-1.67-0.96-2.52
		C61.43,30.56,61.91,30.54,62.28,30.13z"/>
	<path class="st0" d="M45.53,34.95c0.28,0.84,0.49,1.67,0.79,2.48c0.14,0.36,0.12,0.7-0.46,0.81
		C45.41,37.17,45.38,36.07,45.53,34.95z"/>
</g>
</svg>
