<?xml version="1.0" encoding="utf-8"?>
<!-- Generator: Adobe Illustrator 24.0.2, SVG Export Plug-In . SVG Version: 6.00 Build 0)  -->
<svg version="1.1" id="Layer_1" xmlns="http://www.w3.org/2000/svg" xmlns:xlink="http://www.w3.org/1999/xlink" x="0px" y="0px"
	 width="4154.24" height="4199.98" viewBox="0 0 4154.24 4199.98" style="enable-background:new 0 0 4154.24 4199.98;" xml:space="preserve">
<g>
	<path d="M2254.86,772.2c10.97-5.61,21.11-4.29,30.63,3.46c4.91,4,10.09,7.66,15.05,11.59c3.51,2.78,8.34,4.56,8.11,10.38
		c-0.03,0.74,1.07,1.61,1.78,2.28c8.28,7.87,17.63,14.02,28.24,18.39c5.8,2.39,11.37,5.42,16.79,8.59
		c9.94,5.81,10.52,17.38,5.73,25.35c-6.24,10.38-9.86,21.78-13.81,33.09c-2.4,6.89-1.27,12.22,5.1,16.39
		c7.18,4.71,14.11,9.8,21.06,14.66c6.26-4.54,11.84-8.58,18.24-13.21c4.21,9.81,6.54,18.97,6.84,28.32
		c6.84,7.54,15.66,10.27,24.74,12.6c3.28,0.84,5.79,0.21,8.17-2.11c3.1-3.02,6.54-5.7,9.51-8.84c4.69-4.95,10.09-8.58,16.83-10.69
		c4.49,5.07,1.88,11.56,3.65,17.11c1.81,5.67,2.68,11.64,4.06,17.94c8.53,4.23,17.97,5.95,26.88,8.06
		c4.86-4.16,9.41-7.98,13.86-11.91c4.42-3.89,8.74-7.89,14.1-12.75c1.85,6.94,3.41,12.54,4.84,18.18c1.46,5.75,2.8,11.54,4.48,18.5
		c4.17,1.86,9.26,4.12,14.35,6.37c0.29,0.13,0.77-0.01,0.95,0.17c8.65,9.13,21.16,14.19,27.39,25.79c1.35,2.51,2.41,5.58,2.36,8.36
		c-0.31,15.3-1.04,30.6-1.55,45.9c-0.36,10.99-0.5,21.99-0.93,32.97c-0.25,6.31-0.62,12.64-1.44,18.9
		c-1.71,13.08,2.42,25.8,2.07,38.78c-0.32,12.11,0.87,24.19,0.64,36.35c-0.19,9.94,0.22,20.31,4.4,30.28
		c3.66,8.73,4.7,18.58,6.57,28c0.58,2.93,0.13,6.16-3.26,7.64c-4.22,1.84-5.46,5.6-6.32,9.56c-0.78,3.57-1.63,7.17-1.94,10.79
		c-0.46,5.33-0.3,10.33,4.23,14.65c3.5,3.34,5.77,7.97,8.57,11.99c3.61-1.94,6.56-4.42,9.88-5.08c3.75-0.74,7.81,0.16,11.37,0.33
		c2.73,4,1.78,7.76,1.79,11.31c0.1,24.67-0.19,49.34,0.15,74c0.3,21.64,1.2,43.27,1.99,64.9c0.11,2.95,1.05,5.87,1.65,8.8
		c1.64,8.12-0.62,14.26-8.41,18.16c-5.03,2.52-9.74,5.69-14.83,8.72c-0.17,2.74-0.56,5.36-0.47,7.97
		c0.37,10.86,0.95,21.71,1.31,32.57c0.32,9.66-0.56,19.47,0.91,28.94c1.75,11.25-0.88,21.58-3.12,32.23
		c-2.18,10.38-3.24,21-5.58,31.33c-2.63,11.66-6.12,23.12-9.28,34.66c-0.43,1.58-0.84,3.3-1.78,4.58
		c-5.37,7.31-6.8,15.84-7.07,24.47c-0.63,20.34,0.6,40.53,7.61,60.66c3.85,0.83,6.61,3.42,9.09,7.25
		c18,27.74,31.55,57.85,46.62,87.12c10.03,19.5,18.24,39.96,26.91,60.14c4.99,11.61,9.37,23.48,13.87,35.29
		c7.23,18.97,12.99,38.39,17.3,58.79c3.46,0.72,6.89,1.43,10.01,2.08c1.53,3.04,0.26,4.73-1.44,6.58c-4.42,4.81-4.97,6.7-1.51,10.98
		c2.86,3.54,3.28,6.56,2.24,10.92c-1.66,6.98,0.43,13.88,2.85,20.46c1.86,5.06,3.52,9.98,2.49,15.53c-0.41,2.22,0.05,4.65,0.41,6.94
		c8.57,55.62,20.55,110.45,37.72,164.1c4.16,13.02,6.88,26.37,6.4,40.17c-0.06,1.66,0.57,3.81-0.24,4.92
		c-6.37,8.7-1.99,17.93-1.28,26.78c1.76,22.14,4.97,44.18,6.28,66.34c1.13,19.16,0.15,38.43,0.69,57.64
		c0.27,9.6,1.87,19.16,2.88,28.73c1.83,17.3,2.05,34.41-3.86,51.2c-5.88,16.67-8.28,34.12-10.63,51.55
		c-0.09,0.64-0.41,1.24-0.61,1.86c-1.94-0.73-3.88-1.45-6.47-2.42c-6.89,19.18-13.6,37.85-20.72,57.66
		c-1.27,1.74-5.73-0.03-7.32,4.01c-2.19,5.53-5.32,10.46-4.69,16.97c1.54,15.89,2.7,31.83,3.63,47.77
		c1.92,32.95,2.46,65.95,1.45,98.92c-0.65,21.23-3.03,42.33-8.09,63.23c-3.17,13.07-7.49,25.38-13.13,37.42
		c-3.58,7.64-5.47,15.65-5.07,24.19c0.23,4.99-0.04,10-0.07,15c-0.04,6.42-0.86,12.58-4.71,18.07c-1.3,1.86-1.94,4.21-2.74,6.39
		c-3.22,8.74-6.38,17.51-9.58,26.26c-0.46,1.25-1.56,2.59-1.36,3.71c2.25,12.16-5.75,20.77-10.88,30.07
		c-6.58,11.93-14.56,23.08-21.85,34.62c-10.66,16.89-22.67,32.91-31.57,50.91c-22.33,45.17-41.15,91.77-56.15,139.83
		c-8.92,28.58-16.64,57.54-24.68,86.39c-1.23,4.42-1.73,9.16-1.81,13.77c-0.23,14.33-0.02,28.67-0.12,43
		c-0.03,4.74,0.7,9.01,3,13.36c3.69,6.99,5.11,14.01-0.57,21.43c-4.58,5.98-1.8,12.07,5.5,14.56c8.23,2.8,16.69,4.77,25.41,4.81
		c28.99,0.1,58,0.7,86.96-0.15c30.95-0.9,61.55-5.61,92.11-10.67c38.72-6.41,74.97-20.58,111.57-33.77
		c16.29-5.87,32.02-13.06,47.29-21.31c15.81-8.54,32.36-15.77,47.8-24.9c12.27-7.25,25.49-12.69,37.35-20.57
		c5.23-3.48,10.04-7.62,14.88-11.65c5.62-4.69,11.42-9.25,16.52-14.46c16.54-16.89,32.9-33.96,49.11-51.18
		c4.07-4.32,6.89-9.57,9.71-14.95c4.28-8.2,10.02-15.71,15.71-23.08c26.27-34.07,49.83-69.97,72.23-106.65
		c7.29-11.93,14.66-23.82,22.04-35.7c0.87-1.4,1.82-3.39,3.13-3.77c6.55-1.92,8.84-7.75,12.02-12.64
		c14.16-21.75,28.14-43.62,42.23-65.42c1.07-1.65,2.1-3.64,3.68-4.59c9.65-5.82,13.84-15.55,18.46-25.01
		c1.6-3.27,2.76-6.86,4.86-9.77c7.96-11.06,15.72-22.34,24.48-32.75c17.77-21.13,35.56-42.3,56.4-60.63
		c3.97-3.49,7.53-7.56,10.81-11.73c16.44-20.85,36.74-37.6,57.56-53.67c28.2-21.78,56.84-42.99,85.32-64.41
		c3.67-2.76,7.05-5.86,12.54-4.86c2.14,0.39,5.06-1.42,7.11-2.93c28.01-20.5,58.41-37.2,87.67-55.72c1.4-0.89,3.21-1.56,4.05-2.84
		c4.25-6.46,11.06-9.48,17.37-13.02c21.78-12.2,43.53-24.47,65.61-36.12c16.18-8.54,32.8-16.24,49.31-24.14
		c8.4-4.02,16.85-7.99,25.54-11.33c15.82-6.09,31.83-11.68,47.74-17.53c1.79-0.66,3.46-1.65,5.52-2.65
		c-1.01-5.77-3.02-10.02-7.95-13.3c-11.07-7.36-21.76-15.3-32.59-23.02c-2.43-1.73-4.68-3.77-7.25-5.26
		c-4.86-2.8-9.74-5.86-15.42-4.18c-4.06-3.54-4.54-7.63-4.47-12.16c0.05-2.99-0.98-6.01-1.84-10.7c1.44-4.23,5.98-7.79,11.6-10.45
		c13.79-6.52,28.11-9.34,43.48-8.55c19.63,1.02,39.37,0.11,58.95,1.54c30.93,2.25,61.89,0.75,92.77,2.1
		c24.35,1.07,47.87,7.42,70.94,15.55c37.69,13.28,74.42,28.89,111.12,44.61c5.78,2.48,11.29,5.65,16.77,8.76
		c1.62,0.92,3.08,2.56,4.01,4.21c4.72,8.3,5.14,16.56,1.12,25.6c-3.56,8-9.48,11.86-17.21,14.87
		c-39.46,15.33-77.55,33.58-113.68,55.71c-22.43,13.74-44.54,27.99-66.86,41.9c-12.72,7.92-25.59,15.6-38.37,23.41
		c-3.93,2.4-7.5,4.29-11.14-0.88c-0.91-1.29-4.21-1.12-6.42-1.21c-6.93-0.26-13.97,0.9-20.34-1.27c-2.56-3.65-5.06-6.72-7.02-10.09
		c-5.12-8.79-7.52-18.5-7.41-28.55c0.17-15.09-2.22-29.8-5.05-44.5c-0.18-0.92-0.92-1.73-1.44-2.66c-6.07-2.11-11.81-0.55-17.48,1.5
		c-24.76,8.92-48.97,19.1-72.42,31.07c-16.6,8.48-33.32,16.74-49.74,25.54c-17.66,9.47-33.5,21.75-49.75,33.38
		c-30.89,22.08-61.85,44.09-90.82,68.67c-29.45,24.98-58.41,50.53-87.54,75.88c-3.26,2.84-6.12,6.14-9.33,9.04
		c-3.13,2.83-5.86,5.96-11.07,5.71c-2.31-0.11-5.08,2.76-7.13,4.78c-19.9,19.67-40.03,39.08-57.4,61.16
		c-18.51,23.53-38.15,46.19-56.1,70.13c-11.75,15.67-21.4,32.92-31.93,49.5c-15.91,25.05-30.24,50.98-42.75,77.87
		c-9.83,21.12-18.73,42.68-28.58,63.79c-12.52,26.83-23.17,54.58-38.06,80.26c-8.34,14.38-17.43,28.33-26.55,42.23
		c-5.65,8.62-11.51,17.06-15.06,26.84c-0.32,0.88-0.72,2.08-1.42,2.43c-6.35,3.14-8.77,9.83-13.37,14.52
		c-10.02,10.21-19.78,20.72-30.4,30.28c-32.46,29.23-67.83,54.77-103.27,80.2c-21.38,15.34-42.72,30.75-65.43,44.07
		c-15.21,8.92-30.7,17.38-46.23,25.71c-24.04,12.9-47.58,26.87-72.9,37.2c-40.71,16.6-82.03,31.45-125.37,39.79
		c-17.99,3.46-36.1,5.51-54.51,5.73c-21.27,0.25-42.53,1.88-63.79,2.84c-4.33,0.2-8.67,0.03-13,0.14
		c-3.26,0.09-6.52,0.36-10.45,0.58c0.62,2.71,0.73,4.7,1.52,6.37c9.82,20.77,19.74,41.49,29.66,62.21c1.27,2.65,2.32,5.39,6.14,5.62
		c0.94,0.06,1.94,2.46,2.55,3.93c7.15,17.26,15.78,33.76,25.27,49.84c2.14,3.62,2.84,8.07,4.75,11.86
		c3.89,7.73,8.02,15.35,12.27,22.89c11.92,21.18,23.84,42.36,36.01,63.4c5.15,8.9,10.13,17.94,17.66,25.31
		c9.99,9.79,19.19,20.4,29.46,29.87c5.29,4.88,12,8.32,18.34,11.92c3.23,1.83,7.22,1.96,10.47-0.29c6.48-4.5,13.36-2.69,20.19-1.72
		c1.95,0.28,3.91,0.96,5.69,1.82c13.76,6.64,27.54,13.24,41.17,20.13c7.99,4.03,16.09,8.02,23.49,12.99
		c11.38,7.63,21.92,16.52,28.84,28.61c3.39,5.92,7.75,10.75,12.43,15.48c1.17,1.18,2.31,2.56,3.74,3.28
		c12.22,6.2,17.82,17.44,22.52,29.36c3.32,8.41,3.7,16.31-3.97,21.66c-0.73,7.85-1.19,14.8-2.11,21.69
		c-0.34,2.55-1.61,5.04-2.76,7.41c-1.8,3.69-5.05,5.75-8.99,4.75c-8.59-2.2-15.11,1.48-20.55,7.15c-10.2,10.64-23.5,11.6-36.8,12.49
		c-2.71,0.18-5.55-1.55-8.67-2.5c-2.53,3.38-4.64,6.76-7.33,9.59c-1.95,2.06-4.46,3.91-7.08,4.97c-14.96,6.05-30.47,8.76-46.71,8.17
		c-7.23-0.26-14.53,1.34-22.4,2.16c-3.77,5.54-7.86,11.28-15.62,13.48c-1.03-1.55-2.19-3.31-3.67-5.54
		c-3.35,0.75-6.82,1.71-10.35,2.26c-5.49,0.86-10.69,1.68-16.62,0.45c-6.93-1.44-14.51,0.26-21.81,0.62
		c-16.03,0.79-31.92,0.44-47.28-5.18c-5.31-1.94-10.6-3.46-16.28-0.07c-1.79,1.07-5.03-0.17-7.59-0.54c-2.57-0.37-5.45-2-7.61-1.3
		c-8.21,2.65-16.54,1.25-24.8,1.63c-4.51,0.21-9.25-0.95-12.48,3.98c-0.68,1.03-3.84,1.14-5.55,0.64c-3.8-1.1-7.66-2.43-11.03-4.45
		c-8.57-5.12-16.83-10.76-25.35-15.98c-3.39-2.07-5.13-5.15-6.52-8.56c-1.9-4.64-4.11-9.03-7.77-12.5c-6.31,3.92-6.3,3.9-10.91-0.29
		c-7.13-6.48-14.43-12.77-21.35-19.46c-3.33-3.22-6.22-6.98-8.85-10.81c-3.49-5.09-6.54-10.49-10.08-16.26
		c-2.65,0-6.25-0.06-9.84,0.01c-6.6,0.14-9.54-3.93-10.84-9.59c-0.66-2.89-0.91-5.91-0.99-8.89c-0.43-14.92-0.49-29.84,0.14-44.75
		c0.23-5.54-0.92-10.33-4.05-15.03c-12.33-18.53-18.12-39.08-18.12-61.29c0-2.33,0.07-4.67-0.02-7c-0.26-6.98-0.36-7.06-8.96-8.78
		c-0.32-2.89-1-6.11-0.95-9.31c0.1-5.86-1.61-11.1-4.32-16.17c-7.24-13.5-14.58-26.94-21.52-40.59c-1.87-3.69-4.53-5.56-8.17-6.54
		c-18.59-5.02-15.04-5.4-15.38-21.14c-0.06-2.98-0.01-5.96-0.01-7.74c-5.87-6.17-11.02-11.29-15.85-16.7
		c-32.6-36.6-64.33-73.92-92.73-113.93c-7.13-10.04-13.82-20.41-20.31-30.88c-2.34-3.78-5.25-7.84-2.85-13.04
		c0.53-1.14-0.26-3.26-1.04-4.57c-1.53-2.56-3.3-5.03-5.31-7.23c-2.98-3.28-4.91-6.56-4.86-11.4c0.04-4.19-1.77-8.4-2.75-12.61
		c-3.12-13.4-4.3-26.72-0.68-40.37c2.03-7.65,2.36-15.73,3.61-23.6c0.76-4.82-1.22-8.18-4.72-11.29
		c-8.45-7.53-16.72-15.26-24.99-22.99c-19.38-18.11-34.51-39.61-49.18-61.5c-31.57-47.11-54.87-98.03-71.24-152.26
		c-6.94-23-11.22-46.54-15.47-70.09c-4.6-25.49-9-51.03-12.99-76.63c-1.58-10.14-1.92-20.49-2.62-30.76
		c-2.9-42.24-2.17-84.54-1.93-126.83c0.11-19.61,0.63-39.26,2.05-58.82c2.27-31.29,0.43-62.59,1.23-93.88
		c0.29-11.29,1.19-22.56,1.63-33.84c0.06-1.42-0.57-3.44-1.6-4.2c-1.98-1.46-3.81-0.04-4.94,1.73c-1.07,1.67-1.88,3.53-2.68,5.35
		c-8.71,19.92-19.88,38.42-32.51,56.05c-3.8,5.3-6.88,10.44-6.04,17.29c0.44,3.54-0.94,6.7-4.31,8.33
		c-5.58,2.7-10.25,5.97-14.31,11.08c-4.66,5.86-11.62,9.82-17.08,15.12c-13.63,13.24-26.87,26.86-40.45,40.16
		c-21.91,21.45-43.83,42.9-66.01,64.07c-15.75,15.04-28.94,32.15-41.84,49.55c-3.36,4.54-6.54,9.38-10.65,13.16
		c-7.23,6.63-10.58,14.31-9.25,24.03c0.22,1.65-0.1,3.42,0.38,4.97c4.91,15.84,2.17,31.69,0.22,47.54
		c-0.24,1.97-0.32,4.17-1.27,5.81c-3.55,6.13-3.43,12.77-3.32,19.45c0.09,5.35-0.39,10.5-2.1,15.71c-1.31,3.98-1.43,8.47-1.44,12.73
		c-0.01,4.86-0.01,9.01-5.49,11.57c-2.26,1.06-3.54,4.58-4.89,7.18c-7.87,15.05-15.29,30.34-23.53,45.18
		c-7.76,13.99-16.81,27.22-27.26,39.4c-3.87,4.52-7.25,10.3-12.22,12.81c-4.62,2.34-8.62,6.21-13.73,7.23
		c-3.22,0.64-5.49,2.13-7.64,4.23c-24.17,23.57-50.71,44.18-78.36,63.47c-5.4,3.77-9.52,9.35-14.78,13.37
		c-11.46,8.74-18.54,20.71-25.39,32.88c-3.42,6.08-6.3,12.46-9.49,18.67c-5.31,10.37-10.73,20.69-16,31.09
		c-5.41,10.68-10.63,21.46-16.07,32.13c-2.18,4.28-3.14,8.67-3,13.47c0.26,8.33-0.4,16.56-1.88,24.83
		c-1.16,6.48-0.71,13.28-0.69,19.93c0.01,3.76-0.72,7.14-2.38,10.55c-2.92,5.98-5.66,12.07-7.97,18.31
		c-1.48,3.98-2.09,8.28-3.02,12.46c-0.5,2.24-0.52,4.65-1.34,6.76c-10.98,28.26-19.53,57.26-27.01,86.61
		c-8.96,35.18-15.47,70.86-21.28,106.66c-1.54,9.5-1.96,19.17-3.1,28.74c-0.59,4.91-1.66,9.76-2.47,14.65
		c-0.49,2.94-1.09,5.88-1.3,8.85c-0.76,10.61-1.53,21.22-1.99,31.84c-0.34,7.94,0.45,15.56,3.24,23.37
		c3.36,9.42,6.19,18.92,11.81,27.33c3.53,5.28,2.89,11.37,3.6,17.31c2.34,19.41-2,37.73-8.76,55.52
		c-3.88,10.19-9.13,19.9-14.38,29.49c-2.64,4.83-3.98,9.86-4.85,15.07c-0.67,4.05,0.21,7.76,3.73,10.75
		c6.25,5.3,10.15,12.5,12.83,19.96c4.38,12.17,8.09,24.63,11.38,37.14c3.19,12.1,2.6,24.38-0.36,36.56
		c-2.27,9.33-7.42,16.15-16.14,20.39c-9.04,4.4-18.1,8.64-28.49,8.01c-3.94-0.24-7.84-1.04-11.48-1.54
		c-5.37,3.54-10.52,7.13-15.87,10.38c-1.93,1.17-4.29,1.85-6.54,2.23c-7.85,1.33-15.72,2.56-23.62,3.56
		c-5.6,0.71-11.25,1.28-16.89,1.36c-10.63,0.15-21.29,0.19-31.91-0.28c-6.67-0.29-13.1-2.32-18.93-5.73
		c-4.02-2.35-7.26-2.2-11.94-0.29c-13.81,5.63-27.97,10.83-43.32,10.35c-16.96-0.54-33.93-1-50.88-1.88
		c-9.24-0.48-17.36-4.28-24.36-10.36c-1-0.87-1.91-1.86-2.85-2.8c-3.75-3.73-6.89-8.95-11.4-10.76c-4.54-1.82-10.45-0.34-15.76-0.16
		c-9.64,0.32-19.27,0.68-28.9,1.14c-12.75,0.62-24.2-3.67-35.35-9.15c-8.52-4.19-11.15-11.82-11.78-20.53
		c-0.07-0.94,0.21-2.04,0.67-2.87c5.1-9.19,4.98-19.89,8.52-29.53c0.43-1.18,0.89-3.08,0.3-3.78c-3.98-4.79-0.99-9.4,0.01-14.06
		c0.35-1.62,0.75-3.26,1.36-4.8c4.21-10.59,6.07-21.69,7.31-32.94c0.18-1.63-0.03-3.71,0.87-4.79c5.81-6.98,6.49-15.93,9.64-23.92
		c10-25.4,20-50.81,30.08-76.18c2.92-7.35,7.32-14.13,7.39-22.49c0.02-2.17,1.43-4.4,2.46-6.48c10.9-21.8,18.88-44.78,27.39-67.55
		c0.47-1.25,1.13-2.49,1.27-3.78c1.58-14.48,8.2-27.35,13.03-40.77c17.04-47.41,29.48-96.08,39.92-145.29
		c3.93-18.55,7.52-37.18,10.75-55.87c2.26-13.11,3.76-26.35,5.4-39.56c1.12-9.01,3.49-17.2,8.77-25.03
		c8.36-12.4,15.31-25.75,22.81-38.72c0.83-1.43,2.1-3.12,1.91-4.52c-0.88-6.42,3.16-10.65,6.32-15.24
		c10.07-14.64,18.23-30.14,23.07-47.38c1.12-3.99,3.47-8.31,6.56-10.93c7.29-6.19,9.64-14.33,9.97-22.97
		c0.24-6.37,2.29-11.29,5.66-16.52c7.23-11.21,12.95-23.21,14.82-36.68c1.33-9.54,2.74-19.07,4.19-28.59
		c0.55-3.61,0.97-7.29,2.02-10.77c5.13-17.01,3.96-34.18,1.82-51.43c-0.85-6.92-1.59-13.9-1.62-20.86
		c-0.14-34.66-0.05-69.33,0-103.99c0.01-4.57-0.48-9.05,3.23-13.07c1.76-1.9,1.58-5.64,2.14-8.58c4.82-25.16,9.64-50.32,14.36-75.49
		c1.04-5.54,1.7-11.15,2.43-16.03c3.32-3.51,6.36-6.48,9.12-9.69c31.45-36.69,62.84-73.42,94.28-110.12
		c5.67-6.62,11.86-12.61,20.03-16.21c2.11-0.93,4.01-2.36,5.91-3.71c4.08-2.89,6.48-6.66,5.82-11.89
		c-0.81-6.46,1.04-11.59,6.59-15.55c5.02-3.58,7.81-8.96,9.9-14.7c9.66-26.59,18.76-53.36,25.93-80.75
		c0.84-3.19,2.08-6.28,3.28-9.84c-1.83-0.97-4.85-1.6-5.29-3.02c-1.05-3.38-3.59-3.58-6.04-4.27c-10.89-3.07-19.98-8.87-27.24-17.58
		c-2.13-2.55-4.38-5.01-6.61-7.48c-7.92-8.76-14.65-18.21-16.75-30.16c-1.42-8.12-8-12.75-12.43-18.81
		c-2.93-4.02-6.34-7.73-9.81-11.3c-10.62-10.93-15.85-24.52-18.68-39.03c-1.05-5.39-0.48-11.26,0.22-16.8
		c1.29-10.2,3.16-20.32,4.91-30.46c1.52-8.77-0.41-17.25-2.18-25.69c-5.44-26.01-11.15-51.97-16.7-77.96
		c-2.15-10.07-4.4-20.13-6.1-30.28c-0.58-3.46,0.3-7.19,0.64-10.79c0.22-2.29,0.78-4.55,0.99-6.84c0.51-5.61,0.72-11.26,1.4-16.85
		c0.72-5.89-4.62-9.24-5.5-14.54c-1.92-11.47-4.39-22.86-6.68-34.27c-0.32-1.59-0.89-3.13-1.52-5.26
		c-3.84-0.87-7.74-1.59-11.53-2.68c-3.82-1.1-7.71-2.21-11.25-3.96c-4.28-2.11-4.59-4.95-1.61-8.92c0.6-0.8,1.18-1.66,1.95-2.26
		c5.73-4.51,11.51-8.96,18.41-14.32c-0.76-5.12-1.71-11.53-2.73-18.36c-13.86,2.49-26.54,2.54-38.74-4.86
		c6.34-13.05,18.53-20.31,26.8-30.41c-1.02-9.42-2.12-18.56-2.94-27.73c-0.46-5.19,2.28-8.61,7.49-11.28
		c0.87,1.65,1.43,3.05,2.29,4.22c0.67,0.92,1.72,1.56,3.71,3.29c0.04-10.98-0.92-19.93-7.28-27.94
		c-5.37-6.76-10.32-13.96-14.49-21.5c-2.31-4.17-2.87-9.39-3.84-14.21c-2.09-10.41-3.92-20.88-5.92-31.32
		c-0.24-1.23-0.84-2.39-1.21-3.37c-3.97-0.88-5.24,1.71-6.23,4.14c-2.38,5.85-4.47,11.82-6.74,17.72c-0.54,1.41-1.32,2.73-3.45,3.91
		c-0.26-4.64-0.52-9.28-0.77-13.63c-3-1.88-4.87-0.98-6.2,1.35c-0.99,1.73-1.73,3.6-2.65,5.37c-1.54,2.97-3.89,3.02-7.2,1.85
		c0.81-2.72,1.49-5.19,2.29-7.62c2.55-7.78,2.96-15.51,0.63-23.52c-3.73-12.78-8.22-25.11-13.91-37.28
		c-6.72-14.38-10.13-30.17-13.12-45.91c-2.22-11.7-0.52-23.14,0.87-34.67c0.16-1.31,1.02-2.67,0.78-3.85
		c-0.29-1.43-1.39-2.69-2.15-4.03c-1.31,0.74-3.26,1.15-3.82,2.27c-5.19,10.41-10.27,20.89-15.09,31.47
		c-1.23,2.7-1.78,5.55-6.14,6.06c0.84-2.65,1.18-4.92,2.23-6.8c7.97-14.26,9.63-30.29,13.01-45.84c0.21-0.95,0.35-2.11-0.01-2.95
		c-0.47-1.11-1.29-2.28-2.28-2.88c-0.61-0.37-2.14-0.03-2.73,0.54c-1.66,1.6-3.1,3.45-4.53,5.27c-5.54,7.02-11.52,13.62-19.34,21.67
		c0.71-4.82,1.09-7.38,1.56-10.55c-6.64-0.8-10.65,4.34-16.02,5.32c-5.55,1.01-10.99,2.66-16.54,3.71
		c-5.5,1.04-11.08,1.68-18.37,2.75c2.47-2.39,3.6-3.79,5.01-4.78c2.99-2.1,6.08-4.09,9.23-5.96c12.18-7.22,18.74-18.54,23.09-31.47
		c0.63-1.86,1.05-3.88,1.08-5.84c0.13-7.66,0.09-15.33,0.03-23c-0.01-1.64,0.2-3.84-0.72-4.8c-3.81-3.97-1.96-7.96-0.76-12.1
		c1.74-6.05,3.55-12.1,4.98-18.23c2.21-9.47,5.57-18.45,10.27-26.98c2.04-3.7,3.55-7.68,5.71-12.45c-3.17-0.7-5.26-1.5-7.36-1.55
		c-7.66-0.19-15.33-0.05-23-0.21c-3.8-0.08-7.42-0.75-7.69-5.81c27.36-15.43,51.39-35.59,77.24-53.12
		c5.21-3.54,8.25-8.06,9.84-14.24c1.48-5.73,3.9-11.36,6.79-16.55c11.68-20.99,17.3-43.86,20.98-67.26
		c1.54-9.81,1.64-19.85,2.4-29.78c0.13-1.65-0.33-3.74,0.5-4.89c4.14-5.68,2.79-12.11,2.9-18.3c0.32-17.99,0.25-35.99,0.7-53.97
		c0.39-15.61,1.24-31.22,2-46.82c0.14-2.96,0.91-5.88,1.23-8.84c0.5-4.55-0.4-8.61-4.6-11.44c-4.34,1.28-8.77,2.14-13.78-0.58
		c-1.87-7.44-1.28-15.31-0.27-23.16c0.52-4.07,3.12-7.84,0.36-12.3c-0.85-1.37,0.75-4.4,1.5-6.58c5.12-14.77,10-29.61,11.97-45.21
		c0.42-3.29,0.52-6.61,0.8-9.92c0.22-2.54-0.25-5.03,2.67-6.96c1.39-0.92,1.59-4.1,1.78-6.31c0.83-9.72-0.97-19.32-3.14-28.61
		c-3.97-17.03-5.54-34.13-4.67-51.52c0.13-2.62,0.8-5.22,1.21-7.82c0.62-3.97,2.83-6.34,6.59-8c13.71-6.06,27.16-12.79,42.58-13.39
		c3.8-0.15,5.7-2.38,7.32-5.72c8.14-16.77,16.47-33.45,24.88-50.09c4.01-7.93,4.2-15.92,1.27-24.15c-0.78-2.19-1.41-4.46-2.37-6.56
		c-2.66-5.79-2.33-10.74,2.85-15.23c4.24-3.68,5.54-8.67,5.49-14.38c-0.19-23.33-1.16-46.73,0.23-69.98
		c1.8-29.95,1.35-59.9,2.11-89.84c0.15-5.93,1.74-11.71,1.31-17.81c-0.38-5.45,4.04-9.11,8.08-11.88c3.76-2.58,8.22-4.38,12.61-5.76
		c20.94-6.55,41.97-12.83,62.87-19.19c6.13-9.03,3.15-21.41,11.47-29.67c6.42,2.2,10.5,7.05,14.76,11.61
		c1.59,1.7,2.98,3.59,4.29,5.52c2.21,3.25,5.09,3.85,8.71,2.84c4.81-1.34,9.63-2.67,14.52-3.66c4.85-0.98,7.41-3.87,8.72-8.45
		c1.09-3.83,2.44-7.61,3.91-11.31c0.71-1.78,1.99-3.34,3.52-5.81c1.47,1.97,2.46,3.47,3.63,4.82c3.04,3.53,6.13,7.02,9.27,10.46
		c2.28,2.5,4.74,2.92,8.03,1.43c6.61-2.98,13.44-5.49,20.92-8.48c0.36-3.11,1.3-6.74,1.08-10.29c-0.34-5.71,2.12-8.67,8.33-10.05
		c1.97,2.7,4.25,5.48,6.17,8.49c5.16,8.12,11.62,12.74,21.73,9.15c1.81-0.64,3.95-0.56,5.93-0.54c15.29,0.15,28.61-5.06,40.41-14.57
		c4.12-3.31,8.31-6.53,13.04-10.24c-4.32-4.26-9.14-6.33-14.89-6.48c-1.99-0.05-4.04,0.14-5.94-0.31
		c-6.97-1.66-9.83-10.07-4.42-14.69c16.92-14.45,27.63-33.95,41.77-50.65c13.96-16.5,26.38-34.35,38.76-52.11
		c11.84-16.96,21.51-35.24,28.55-54.75c2.21-6.13,6.07-10.11,11.67-11.66c0.47-1.43,0.99-2.15,0.83-2.66
		c-4.03-12.93-6.7-26.33-14.51-37.9c-3.3-4.88-5.15-10.71-7.97-15.95c-5.36-9.95-10.96-19.79-16.44-29.68
		c-1.74-3.13-3.44-6.29-5.49-10.05c5.68-1.87,9.68,0.16,13.68,2.23c2.26,1.17,4.53,2.33,6.52,3.35c3.42-2.72,2.53-5.26,1.18-7.63
		c-5.31-9.3-11.45-17.97-19.45-25.2c-1.73-1.56-3.48-3.11-5.17-4.71c-15.95-15.13-19.07-19.5-29.29-40.83
		c-0.71-1.49-1.73-2.84-2.66-4.21c-10.63-15.73-21.25-31.46-31.93-47.16c-2.43-3.57-5.04-7.02-7.86-10.93
		c6.79-3.32,13.81-4.41,21.13-4.37c6.99,0.04,14.02,0.49,20.79-1.89c1.87-0.66,3.82-1.09,5.68-1.77c8.05-2.94,15.95-6.46,24.19-8.69
		c4.68-1.27,9.93-0.34,14.92-0.6c3.52-0.18,7.34,1.06,10.39-1.58c0.96-3.78-1.88-5.66-3.53-7.98c-8.09-11.41-16.33-22.7-24.4-34.12
		c-4.23-5.99-8.21-12.16-9.24-19.66c-0.17-1.23,0.13-2.53,0.2-3.71c10.6,0,20.8,0.21,31-0.06c10.23-0.27,18.84-4.45,24.41-13.11
		c5.94-9.22,10.91-19.06,16.65-28.43c4.37-7.14,5.23-14.92,5.44-22.94c0.08-3-0.13-6.01,0.12-8.99c0.13-1.53,0.56-3.9,1.55-4.35
		c5.34-2.4,4.66-6.73,3.92-11c-2.57-14.85-2.11-29.84-2.3-44.81c-0.14-11.24,2.81-21.68,7.16-31.85c1.57-3.67,2.95-7.49,5.04-10.86
		c5.11-8.25,4.32-17.21,3.78-26.18c-0.26-4.26-4.15-7.44-3.34-12.22c1.05-6.19,1-12.59,2.2-18.74c1.36-6.97,1.38-13.79,0.58-20.8
		c-0.67-5.93-0.93-11.98-0.6-17.93c0.78-14.25-2.14-27.94-6.7-41.15c-8.35-24.2-17.41-48.15-26.31-72.15
		c-2.53-6.83-5.73-13.41-8.24-20.25c-0.85-2.31-0.5-5.06-0.73-8.1c6.02-0.51,9.32,2.21,12.07,6.17c4.75,6.83,9.58,13.61,14.37,20.41
		c1.89,2.68,3.34,5.65,7.65,5.34c1.3-0.09,3.03,2.17,4.13,3.68c3.14,4.29,5.93,8.83,9.08,13.11c4.36,5.94,7.63,12.34,10.17,19.3
		c3.15,8.64,8.13,16.56,10.74,25.48c0.45,1.55,1.53,2.95,2.48,4.31c16.95,24.42,26.62,52.02,35.08,80.15
		c2.59,8.6,5.26,17.17,7.84,25.78c1.09,3.65,3.25,6.06,6.41,8.41c6.65,4.93,12.75,10.64,18.88,16.24
		c3.89,3.55,7.83,7.18,11.02,11.32c2.8,3.63,4.63,8.01,6.81,12.1c2.41,4.51,4.42,5.08,8.67,2.37c7-4.47,13.76-9.37,21.09-13.21
		c5.21-2.73,11.06-4.69,16.85-5.79c15.34-2.91,30.82-5.11,46.22-7.73c7.86-1.33,15.68-2.92,23.5-4.46c4.93-0.97,9.74-1.9,14.66,0.39
		c2.61,1.22,5.12,0.46,7.1-1.96c1.25-1.53,2.76-2.92,4.38-4.06c3.13-2.21,7.29-2.37,8.75,0.47c2.78,5.43,8.35,4.74,12.61,6.63
		c3.66,1.62,8.25-1.45,9.98-6.2c1.35-3.7,2.05-7.7,2.59-11.62c2.49-18.09,4.9-36.2,7.2-54.32c1.8-14.16,3.23-28.37,5.17-42.51
		c2.08-15.14,4.6-30.21,6.84-45.32c1.07-7.22,1.92-14.47,2.93-21.7c0.22-1.56,0.71-3.09,1.34-5.74c2.1,1.58,4.02,2.34,4.78,3.74
		c1.75,3.18,3.07,6.63,4.31,10.06c5.8,16.01,8.76,32.71,11.77,49.39c1.48,8.18,3.48,16.26,5.02,24.43
		c3.08,16.3,6.35,32.58,8.85,48.98c1.5,9.82,1.78,19.83,2.43,29.77c1.52,23.18,1.49,46.4,1.37,69.62c-0.01,2.62-0.86,5.22-1.16,7.84
		c-0.25,2.21-0.27,4.46-0.41,6.98c6.28,0.94,9.79-3.18,13.59-5.94c10.21-7.39,20.31-14.96,30.02-22.99
		c4.55-3.77,8.21-8.66,12.06-13.23c4.57-5.43,9.18-10.61,17.67-10.33c0.75,1.64,1.84,3.31,2.28,5.13
		c3.3,13.86,7.66,27.44,9.34,41.73c1.64,13.9,2.07,27.77,0.35,41.55c-0.84,6.78-3.49,13.51-6.3,19.82
		c-4.46,10.03-9.27,19.97-14.85,29.4c-4.02,6.8-9.34,12.87-14.43,18.97c-4.18,5.01-7.02,10.43-7.2,17.01
		c-0.17,6.19-0.08,12.4-0.24,18.59c-0.27,10.32-1.19,20.58-4.44,30.45c-1.22,3.72-2.36,7.69-4.57,10.82
		c-4.48,6.34-3.88,13.26-3.32,20.19c0.13,1.65,1.76,3.66,3.26,4.63c6.14,3.97,12.37,7.86,18.84,11.25c3.54,1.86,7.63,2.6,12.05-2.62
		c-0.55,3.6-0.24,6.08-1.3,7.65c-3.15,4.68-6.74,9.08-10.35,13.44c-1.78,2.15-3.46,4.11-1.98,7.66c2.79,0.3,5.89,0.63,9.38,1
		c-1.07,5.69-4.32,9.77-8.02,12.78c-9.91,8.04-9.52,18.9-9.31,29.81c0.15,7.84,1.6,15.76,0.81,23.48
		c-0.69,6.74,0.62,13.1,0.64,19.66c5.19,4.58,10.62,8.22,17.02,10.51c7.32,2.62,13.5,7.09,18.96,12.64c2.95,3,6.16,5.73,10,9.27
		c4.24,20.19-1.61,39.76-10.52,58.61c-4.4,9.3-10.03,18.02-15.12,27c-5.13,9.06-11.71,16.97-19.22,24.16
		c-3.35,3.21-6.89,6.37-7.56,11.39c-2.94,0.68-5.05,1.99-4.79,5.77C2252.89,776.74,2253.86,774.46,2254.86,772.2z M1730.85,2073.26
		c5.48-13.98,11.04-27.86,16.37-41.83c9.25-24.28,19.35-48.17,30.94-71.43c3.32-6.66,4.75-13.62,4.82-21.17
		c0.24-25.1-2.5-49.82-8.72-74.1c-7.31-28.57-10.39-57.51-9.62-86.98c0.28-10.6-0.92-21.25-1.68-31.86
		c-0.73-10.29-1.84-20.55-2.65-30.84c-0.8-10.27-1.23-20.58-2.23-30.83c-0.47-4.84-1.04-9.88-6.89-12.17
		c-1.88-0.74-3.04-3.41-4.46-5.24c-4.69-6.05-9.14-12.31-14.07-18.16c-20.97-24.86-38.12-52.06-51-81.95
		c-0.7-1.63-1.84-3.08-3.47-5.73c-7.5,12.94-15.05,24.22-19.18,37.39c-1.48,4.74-3.6,9.32-5.81,13.78
		c-3.89,7.83-7.53,8.72-16.03,4.22c-0.8,1-1.75,1.95-2.43,3.07c-10.78,17.98-21.57,35.95-32.24,54c-1.16,1.96-1.84,4.27-2.4,6.51
		c-3.39,13.53-6.46,27.15-10.13,40.6c-1.47,5.38-1.33,10.28-0.06,15.64c2.99,12.59,8.64,24.54,9.03,37.76
		c0.04,1.26,0.91,2.47,1.24,3.74c0.73,2.83,1.51,5.66,2.01,8.54c0.74,4.24,1.08,8.56,1.89,12.79c4.71,24.79,11.3,49.23,13.71,74.44
		c0.28,2.95,1.02,6.43-0.18,8.8c-1.82,3.62-1.37,7.09-1.39,10.68c-0.06,7.66-0.05,15.32-0.04,22.98c0,2.33-0.69,5.04,0.25,6.92
		c4.39,8.75,2.16,17.48,0.78,26.31c-1.02,6.56-2.51,13.24-2.15,19.78c0.34,6.11-0.63,11.84-1.57,17.69c-1,6.24-2.04,12.47-3.12,18.7
		c-3.67,21.28-7.22,42.58-11.09,63.82c-3.04,16.68-6.55,33.27-9.75,49.92c-1.95,10.1-1.82,28.8,0.02,36.32
		c5.51,0.83,10.95,1.65,16.73,2.53c0,2.66,0.31,4.64-0.05,6.49c-2.75,14.39-5.65,28.75-5.66,43.5c0,1.95,0.08,4.76-1.07,5.68
		c-4.29,3.43-3.05,7.83-2.76,11.98c1.62,22.98,9.28,44.79,12.39,67.31c6.86,0.3,9.51-3.56,11.18-8.68
		c7.92-24.17,19.25-46.74,31.96-68.69c1.65-2.85,2.65-6.09,3.88-9.17c2.47-6.16,4.63-12.47,7.42-18.47
		c3.91-8.39,8.28-16.56,12.7-25.31c-4.06-3.81-7.98-7.37-11.76-11.07c-2.37-2.32-4.97-4.57-6.72-7.33
		c-3.47-5.46-1.1-9.96,5.26-10.21c6.32-0.25,12.66,0.01,18.99-0.1c2.13-0.04,4.26-0.53,7.01-0.9c-3.44-15.9-13.15-28.21-17.63-42.84
		c0.81-8.86,7.23-10.08,14.99-9.87c5.29,0.14,10.7-0.07,15.9-0.97C1711.83,2077.62,1721.21,2075.33,1730.85,2073.26z
		 M2304.42,2894.66c-5.19-7.44-9.75-13.95-14.28-20.48c-9.1-13.14-19.34-25.67-26.91-39.64c-6.41-11.83-14.54-22.19-22.08-33.09
		c-0.95-1.37-1.97-2.69-2.86-4.09c-5.95-9.38-13.66-17.19-22.11-24.26c-2.87-2.41-5.71-5.67-10.09-5.06
		c-0.46,0.97-0.94,1.53-0.98,2.12c-0.75,11.96-1.96,23.92-2.06,35.89c-0.55,62.96-0.82,125.93-1.13,188.89
		c-0.01,2.63-0.15,5.62,0.98,7.81c2.45,4.75,2.07,9.7,2.24,14.64c0.43,12.65,0.67,25.3,1.14,37.95c0.08,2.13,0.92,4.23,1.3,5.87
		c3.84,1.23,5.12-0.82,6.37-2.82c9.49-15.24,18.24-30.88,25.22-47.46c0.63-1.49,1.62-2.84,2.58-4.16
		c6.26-8.61,12.51-17.23,18.86-25.78c3.16-4.26,7.48-7.95,9.6-12.65c5.16-11.42,12.97-20.97,20.65-30.51
		c4.15-5.15,5.59-10.15,5.32-16.36C2295.77,2912.07,2295.96,2902.69,2304.42,2894.66z"/>
</g>
</svg>
