<?xml version="1.0" encoding="utf-8"?>
<!-- Generator: Adobe Illustrator 24.1.1, SVG Export Plug-In . SVG Version: 6.00 Build 0)  -->
<svg version="1.1" id="Layer_1" xmlns="http://www.w3.org/2000/svg" xmlns:xlink="http://www.w3.org/1999/xlink" x="0px" y="0px"
	 viewBox="0 0 158.69 246.56" style="enable-background:new 0 0 158.69 246.56;" xml:space="preserve">
<style type="text/css">
	.st0{fill:#1A1A1A;}
</style>
<g>
	<path d="M148.53,75.51c0.7-0.3,1.2-0.6,1.55-1.12c0.44-0.64,1.08-0.78,1.8-0.61c0.08,0.02,0.15,0.05,0.23,0.08
		c0.51,0.17,1.17,0.09,1.37,0.78c0.26,0.9,0.45,1.8-0.21,2.62c-0.45,0.56-0.96,1.07-1.24,1.75c-0.28,0.67-0.05,1,0.67,0.98
		c0.49-0.01,0.96-0.13,1.39-0.32c0.86-0.38,1.62-0.28,2.35,0.29c0.31,0.24,0.72,0.38,1,0.65c0.59,0.56,0.79,1.36,1.11,2.08
		c0.16,0.35-0.09,0.7-0.33,0.98c-0.23,0.27-0.51,0.36-0.85,0.15c-0.07-0.05-0.26-0.02-0.33,0.04c-0.77,0.72-1.58,0.55-2.46,0.14
		c0.31,0.6,0.69,1.1,1.24,1.44c0.2,0.12,0.43,0.21,0.65,0.31c0.8,0.37,1.31,0.9,1.11,1.87c-0.05,0.23-0.04,0.48-0.01,0.72
		c0.1,0.8,0.16,1.58-0.33,2.23c0.18,0.45,0.6,0.5,0.85,0.76c0.44,0.46,0.69,0.92,0.53,1.6c-0.14,0.56-0.31,1.13-0.13,1.76
		c0.11,0.38-0.12,0.78-0.42,1.07c-0.5,0.47-0.89,1.02-1.32,1.54c-0.43,0.53-0.98,0.93-1.7,0.94c-0.43-0.23-0.32-0.7-0.59-1.02
		c-0.67-0.81-0.58-1.56,0.1-2.37c0.08-0.09,0.17-0.17,0.25-0.26c0.05-0.06,0.09-0.13,0.12-0.19c0.11-0.31-0.11-0.54-0.15-0.82
		c-0.04-0.27,0.06-0.57-0.16-0.82c-0.45-0.16-0.84,0.08-1.22,0.28c-0.67,0.34-1.35,0.4-2.09,0.28c-0.71-0.11-1.43-0.18-2.14-0.16
		c-0.97,0.03-1.91-0.11-2.86-0.23c-1.34-0.17-2.5-0.81-3.48-1.74c-0.67-0.64-1.39-1.18-2.21-1.62c-1.59-0.85-2.64-2.17-3.1-3.92
		c-0.1-0.39-0.21-0.77-0.31-1.16c-0.15-0.57-0.47-0.98-0.95-1.33c-1.63-1.2-2.7-2.81-3.32-4.73c-0.17-0.53-0.36-1.06-0.49-1.6
		c-0.24-1.02-0.86-1.81-1.6-2.47c-0.9-0.81-1.61-1.76-2.3-2.74c-0.11-0.16-0.23-0.33-0.32-0.51c-0.68-1.24-1.69-2.04-3.06-2.48
		c-1.95-0.63-3.72-1.64-5.34-2.91c-0.74-0.57-1.18-1.41-1.92-1.96c-0.15-0.04-0.25,0.07-0.27,0.16c-0.15,0.82-0.41,1.64-0.39,2.46
		c0.05,2.65-0.74,5.02-2.06,7.27c-0.71,1.21-1.4,2.42-1.83,3.76c-0.17,0.53-0.37,1.05-0.36,1.63c0.04,2.5-0.5,4.91-1.19,7.3
		c-0.3,1.03-0.64,2.05-0.48,3.16c0.18,1.26,0.26,2.54,0.5,3.79c0.26,1.34,0.03,2.62-0.19,3.91c-0.09,0.51-0.23,1.01-0.31,1.52
		c-0.15,0.84-0.14,1.67,0.22,2.55c0.74,0.04,1.27,0.54,1.65,1.14c0.97,1.57,1.62,3.23,0.82,5.09c-0.17,0.39-0.03,0.69,0.09,1.02
		c0.46,1.28,0.88,2.56,1.11,3.91c0.11,0.67,0.21,1.34,0.18,2.02c-0.04,0.81,0.1,1.58,0.35,2.35c1.15,3.5,2.6,6.86,4.32,10.12
		c2.28,4.32,4.08,8.84,4.84,13.71c0.07,0.47,0.12,0.95,0.14,1.43c0.09,1.49,0.64,2.87,0.99,4.3c0.49,1.94,0.84,3.89,0.81,5.91
		c-0.01,0.96,0.02,1.92,0.08,2.87c0.04,0.67,0.13,1.34,0.53,1.93c0.44,0.64,0.63,1.38,0.76,2.13c0.22,1.18-0.29,2.02-1.43,2.4
		c-0.45,0.15-0.92,0.24-1.46,0.38c-0.14,0.95-0.28,1.92-0.43,2.89c-0.23-0.02-0.11-0.27-0.25-0.36c-0.18-0.05-0.17,0.11-0.18,0.21
		c-0.23,1.67-0.73,3.26-1.37,4.82c-0.17,0.41-0.36,0.81-0.47,1.23c-0.19,0.75-0.28,1.5,0.32,2.14c0.1,0.11,0.23,0.23,0.18,0.43
		c-0.27,0.31-0.47-0.23-0.8-0.05c0.12,0.97,0.25,1.97,0.37,2.96c-0.22,0.08-0.29-0.1-0.5-0.25c-0.1,0.42-0.17,0.83-0.3,1.2
		c-0.13,0.37-0.37,0.71-0.5,1.08c-0.08,0.22-0.07,0.47-0.06,0.71c0.07,1.75,0.17,3.51,0.75,5.19c0.02,0.07,0,0.16,0,0.26
		c-0.12,0.07-0.26,0.15-0.39,0.22c0.12,1.83,0.23,3.65,0.35,5.49c-0.45,0.1-0.41-0.45-0.85-0.48c-0.02,0.4-0.07,0.82-0.05,1.22
		c0.07,1.49-0.29,2.84-1.14,4.08c-0.61,0.9-0.92,1.95-1.38,2.92c-1.24,2.64-2.52,5.26-3.67,7.93c-1.55,3.61-2.69,7.34-3.04,11.28
		c-0.11,1.23-0.22,2.46-0.15,3.7c0.03,0.53,0.15,1.02,0.38,1.49c0.53,1.12,1.05,2.25,0.77,3.56c-0.07,0.33,0.11,0.62,0.26,0.91
		c0.71,1.41,1.67,2.64,2.85,3.67c0.97,0.84,1.8,1.81,2.68,2.73c0.44,0.46,0.87,0.93,1.3,1.41c0.55,0.6,1.12,1.1,2.01,1.18
		c0.57,0.05,1.03,0.46,1.31,0.97c0.39,0.71,0.93,1.29,1.51,1.85c0.77,0.74,1.09,1.66,1.01,2.71c-0.06,0.79-0.46,1.35-1.23,1.6
		c-0.53,0.18-1.08,0.27-1.61,0.29c-0.79,1.48-3.21,2.04-5.16,1.23c-0.27,0.1-0.27,0.36-0.36,0.58c-0.31,0.72-0.93,1.09-1.64,1.27
		c-1.92,0.5-3.8,0.56-5.48-0.85c-0.57,0.54-1.2,0.96-1.99,1.02c-1.22,0.08-2.38-0.16-3.46-0.72c-0.39-0.2-0.66-0.57-0.71-1.06
		c-0.94-0.03-1.8-0.13-2.54-0.68c-0.47-0.34-0.8-0.75-1.03-1.29c-0.2-0.46-0.13-1.03-0.58-1.41c-0.17-0.14-0.02-0.45,0.05-0.68
		c0.12-0.42,0.28-0.83,0.36-1.26c0.15-0.85-0.04-1.13-0.87-1.42c-0.38-0.13-0.74-0.29-1.12-0.41c-0.91-0.3-1.45-0.96-1.81-1.8
		c-0.28-0.66-0.51-1.34-0.49-2.08c0.01-0.24-0.01-0.49-0.07-0.71c-0.37-1.31,0.01-2.52,0.48-3.72c0.28-0.71,0.58-1.4,0.87-2.1
		c0.12-0.3,0.06-0.57-0.01-0.89c-0.2-0.94-0.2-1.92,0.35-2.77c1.63-2.53,2.13-5.38,2.46-8.29c0.25-2.19,0.32-4.38,0.16-6.57
		c-0.01-0.12-0.01-0.24,0-0.36c0.2-1.29-0.01-2.55-0.29-3.8c-0.61-2.77-1.07-5.56-1.17-8.4c-0.02-0.47-0.11-0.95-0.23-1.41
		c-0.27-1.05-0.4-2.11-0.47-3.19c-0.01-0.16,0.02-0.33-0.03-0.48c-0.73-2.06-0.46-4.07,0.28-6.06c0.03-0.07,0-0.15,0-0.23
		c-0.09-0.14-0.2-0.08-0.3-0.03c-0.1,0.05-0.2,0.11-0.31,0.17c-0.04-0.07-0.12-0.15-0.1-0.19c0.71-1.38,1.24-2.85,2.15-4.18
		c-0.51-0.25-1.01,0.1-1.52-0.23c0.44-0.28,0.82-0.55,1.23-0.78c2.14-1.23,3.5-3.12,4.46-5.32c0.33-0.76,0.26-1.53-0.09-2.32
		c-0.5-1.14-1.4-1.8-2.46-2.32c-1.67-0.82-3.15-1.89-4.28-3.4c-0.09-0.12-0.17-0.28-0.42-0.27c-0.09,1.08,0.59,2.01,0.68,3.12
		c-0.98-0.35-1.7-0.92-2.26-1.64c-0.63-0.79-1.4-1.42-2.14-2.09c-1.16-1.04-2.3-2.1-3.41-3.19c-1.03-1.01-1.95-2.11-2.69-3.36
		c-0.1-0.17-0.22-0.32-0.43-0.61c-0.22,1.18,0.33,2.11,0.34,3.12c-2.01-1.4-4.96-6.86-6.83-12.57c-0.45,0.35-0.31,0.89-0.47,1.32
		c-0.17,0.44-0.26,0.92-0.38,1.38c-0.32-0.2-0.19-0.52-0.23-0.79c-0.05-0.27-0.13-0.55-0.14-0.82c-0.08-1.84-0.35-3.65-0.55-5.47
		c-0.08-0.76-0.23-1.49-0.49-2.21c-0.98-2.66-1.36-5.42-1.2-8.24c0.09-1.66,0.65-3.2,1.4-4.67c0.09-0.17,0.19-0.34,0.27-0.51
		c-0.28-0.23-0.48-0.03-0.7,0.02c-0.43,0.1-0.85,0.3-1.28,0.31c-1.58,0.02-2.69,0.93-3.73,1.93c-0.7,0.67-1.49,1.19-2.4,1.62
		c1.35,2.45,2.14,5.11,3.75,7.59c-0.77-0.2-0.98-0.83-1.53-1.18c0.05,0.84,0.47,1.51,0.64,2.24c0.16,0.72,0.4,1.42,0.53,2.21
		c-0.49-0.11-0.57-0.56-0.88-0.7c-0.22,0.19-0.15,0.39-0.13,0.58c0.16,1.27,0.21,2.54,0.31,3.81c0.16,1.95,0.19,3.91,0.2,5.86
		c0.01,1.92-0.19,3.82-0.41,5.72c-0.14,1.18-0.04,2.4-0.07,3.59c-0.05,1.72,0.11,3.43,0.46,5.11c0.31,1.5,0.78,2.91,1.93,4.03
		c0.92,0.9,1.18,2.14,1.45,3.35c0.16,0.74,0.31,1.48,0.42,2.23c0.28,1.88,0.95,3.62,1.94,5.25c0.23,0.38,0.43,0.77,0.63,1.16
		c0.8,1.55,1.01,3.18,0.6,4.88c-0.36,1.49-0.93,2.89-1.78,4.16c-0.99,1.47-2.36,2.2-4.15,2.19c-2.21-0.01-4.25-0.54-6.11-1.79
		c-1.06-0.71-2.19-1.32-3.36-1.83c-0.55-0.24-1.1-0.23-1.73-0.16c-1.11,0.12-2.17,0.46-3.26,0.56c-2.4,0.21-4.29-0.8-5.62-2.74
		c-0.72-1.06-1.57-1.5-2.81-1.28c-0.44,0.08-0.87-0.02-1.28-0.2c-1.4-0.6-2.34-1.64-2.92-3.03c-0.09-0.22-0.14-0.47-0.14-0.7
		c0.02-0.54-0.05-1.01-0.45-1.42c-0.36-0.37-0.06-0.73,0.13-1.12c-1.18-1.29-1.73-2.76-1.17-4.52c-0.29-0.25-0.56-0.48-0.8-0.69
		c-0.04-0.4,0.21-0.57,0.45-0.69c0.68-0.32,1.37-0.68,2.17-0.46c0.35,0.09,0.62-0.08,0.95-0.2c-0.03-0.62-0.08-1.25-0.09-1.89
		c-0.01-0.63,0.35-1.12,0.7-1.58c-0.83-0.87-0.74-1.19,0.33-1.57c0.81-0.29,1.58-0.08,2.35,0.13c0.42,0.12,0.82,0.33,1.29,0.1
		c0.21-0.29,0.07-0.77,0.52-0.98c0.66-0.31,1.33-0.67,2.05-0.55c0.61,0.1,1.17,0.04,1.77-0.02c1.08-0.11,2.15,0.03,3.21,0.26
		c0.15,0.03,0.3,0.12,0.44-0.01c0.15-0.21,0.01-0.38-0.06-0.55c-0.29-0.66-0.62-1.3-0.85-1.98c-0.84-2.54-2.38-4.69-3.92-6.82
		c-1.52-2.1-3.09-4.18-4.43-6.41c-1.34-2.23-2.43-4.57-3.23-7.06c-0.42-1.28-1.05-2.5-1.33-3.83c-0.08-0.37-0.68-0.49-0.53-1.05
		c0.1-0.38,0.08-0.79,0.09-1.19c0.01-0.96,0-1.92,0.01-2.88c0.01-0.88-0.02-1.75,0.13-2.63c0.07-0.44,0.25-0.93-0.11-1.38
		c-0.18-0.23-0.06-0.55-0.01-0.82c0.31-1.71,0.08-3.43,0.15-5.14c0.01-0.24-0.06-0.47-0.17-0.69c-0.84-1.59-1.02-3.34-1.27-5.08
		c-0.06-0.43-0.09-0.88-0.23-1.29c-0.39-1.12-0.28-2.2,0.15-3.28c0.04-0.11,0.08-0.22,0.11-0.34c0.01-0.03-0.02-0.07-0.04-0.14
		c-0.11-0.06-0.25-0.14-0.38-0.21c-0.02-0.39,0.28-0.64,0.46-0.99c-0.25-0.38-0.52-0.77-0.81-1.21c0.63-0.26,1.25-0.51,1.82-0.75
		c0.16-0.35-0.28-0.39-0.22-0.64c0.9-0.19,0.89-0.19,1.41-1.01c0.17-0.27,0.34-0.54,0.53-0.8c0.14-0.2,0.24-0.38,0.2-0.65
		c-0.23-1.53,0.55-2.69,1.46-3.79c0.48-0.58,1.04-1.11,1.71-1.48c1.43-0.79,2.69-1.89,4.31-2.31c0.19-0.05,0.38-0.13,0.57-0.18
		c1.34-0.36,2.68-0.66,3.95-1.3c1.39-0.69,2.97-0.91,4.52-1.1c2.44-0.31,4.84,0.05,7.24,0.44c0.32,0.05,0.62,0.12,0.95,0.07
		c0.51-0.08,0.9-0.28,1.08-0.81c0.13-0.38,0.3-0.74,0.45-1.11c0.52-1.27,1.37-2.23,2.59-2.85c0.23-0.12,0.58-0.16,0.35-0.58
		c-0.07-0.13,0.1-0.19,0.18-0.26c0.86-0.74,1.21-1.67,1.37-2.81c0.24-1.68,0.13-3.33-0.01-5c0-0.04-0.02-0.08-0.01-0.12
		c0.16-1.38-0.42-2.57-0.97-3.77c-0.28-0.62-0.62-1.2-1.04-1.74c-0.68-0.89-1.35-1.79-1.68-2.88c-0.08-0.28-0.22-0.52-0.4-0.73
		c-1.18-1.36-1.8-3-2.35-4.68c-0.26-0.78-0.45-1.59-0.95-2.26c-0.27,0.09-0.32,0.3-0.41,0.47c-1.43,2.71-3.37,4.94-5.97,6.58
		c-0.48,0.31-0.88,0.68-1.17,1.18c-0.64,1.06-1.3,2.11-1.92,3.18c-0.52,0.9-1.02,1.81-1.67,2.63c-0.33,0.41-0.51,0.9-0.68,1.39
		c-0.35,0.98-0.68,1.96-1.02,2.94c-0.06,0.19-0.08,0.4-0.39,0.45c-0.04-0.38-0.07-0.76-0.13-1.32c-0.93,0.9-1.74,1.7-2.67,2.6
		c-0.13-0.73,0.38-1.12,0.44-1.7c-0.73,0.12-1.42,0.47-2.17,0.51c-0.12,0.01-0.23,0.08-0.35,0.09c-0.64,0.01-1.27,0.01-1.91-0.07
		c-0.62-0.07-1.21,0.33-1.87,0.28c0-0.5,0.58-0.42,0.68-0.8c-0.49-0.08-0.94,0.12-1.41,0.2c-1.66,0.28-3.33,0.28-5,0.25
		c-1.32-0.02-2.64-0.02-3.95-0.09c-1.71-0.09-3.41-0.31-5.12-0.35c-1.64-0.05-3.27-0.15-4.91-0.1c-1.37,0.04-2.66,0.26-3.96,0.71
		c-1.75,0.61-3.55,0.39-5.3-0.16c-1.53-0.47-3.05-0.95-4.42-1.81c-0.31-0.19-0.61-0.17-0.92-0.08c-0.51,0.15-1.01,0.14-1.54,0.02
		c-0.59-0.14-1.18-0.26-1.66,0.3c-0.37,0.43-0.76,0.8-0.54,1.47c0.1,0.3-0.21,0.49-0.46,0.63c-0.54,0.28-1.12,0.21-1.63,0.01
		C8.87,89.16,8.34,88.65,7.98,88c-0.26-0.48-0.15-0.97,0.21-1.33c0.52-0.5,0.94-1.08,1.38-1.65c0.38-0.5,0.95-0.71,1.5-0.94
		c0.58-0.25,0.72-0.43,0.65-0.85c-0.08-0.47-0.29-0.81-0.81-0.91c-0.59-0.11-1.16-0.27-1.76-0.04c-0.33,0.12-0.72,0.23-1.05,0.18
		c-0.62-0.09-0.94,0.17-1.25,0.67c-0.31,0.5-0.83,0.72-1.44,0.7c-0.31-0.01-0.62-0.04-0.94,0.04c-0.72,0.19-1.39-0.31-1.33-1.04
		c0.03-0.4-0.01-0.77-0.06-1.16c-0.06-0.5,0.23-0.91,0.56-1.28c0.32-0.36,0.64-0.71,0.96-1.07c0.24-0.28,0.54-0.48,0.89-0.59
		c0.26-0.08,0.55-0.11,0.81-0.2c1.34-0.46,2.69-0.61,4.09-0.25c0.3,0.08,0.63,0.01,1.04,0.01c-0.21-0.67-0.68-0.98-1.17-1.2
		c-1.05-0.46-2.06-0.95-3.31-0.85c-0.67,0.05-1.28,0.07-1.92,0.35c-1.13,0.5-2.32,0.65-3.44-0.07c-0.34-0.22-0.6-0.03-0.91,0
		c-0.49,0.04-0.77-0.27-0.64-0.74c0.09-0.3,0.19-0.66,0.41-0.86c1.01-0.94,1.95-2,3.55-1.93c1.07,0.05,2.14-0.13,3.11-0.76
		c-0.9-0.22-0.9-0.23-1.69,0.01c-0.62,0.18-1.22,0.28-1.88,0.09c-1.18-0.34-1.44-0.5-2.14-1.56c-0.07-0.04-0.13-0.1-0.2-0.11
		c-0.34-0.07-0.78,0.01-0.92-0.41c-0.18-0.5,0.18-0.82,0.5-1.13c0.14-0.14,0.31-0.32,0.48-0.34c1.09-0.15,2.07-0.85,3.24-0.63
		c1.16,0.21,2.32,0.08,3.43-0.28c1.15-0.37,2.21-0.24,3.2,0.42c1.14,0.77,2.54,0.95,3.71,1.65c0.14,0.08,0.29,0.06,0.46,0.03
		c0.74-0.14,1.34,0.18,1.81,0.7c0.27,0.29,0.55,0.42,0.92,0.48c0.71,0.11,1.41,0.33,2.12,0.33c0.85,0.01,1.47,0.4,1.97,0.98
		c1.08,1.26,2.3,2.32,3.77,3.1c0.85,0.45,1.57,1.1,2.24,1.78c0.44,0.45,0.9,0.79,1.58,0.5c0.07-0.03,0.16-0.02,0.24-0.01
		c1.99,0.2,3.65-0.68,5.28-1.64c1.51-0.89,3.01-1.82,4.64-2.5c1.52-0.63,3.08-1.13,4.71-1.34c1.03-0.13,2.07-0.11,3.11-0.12
		c0.89-0.01,1.74-0.18,2.61-0.52c0.08-0.82,0.19-1.64,0.25-2.47c0.19-2.59,1.07-4.89,2.7-6.91c1.13-1.4,2.29-2.76,3.68-3.92
		c0.52-0.44,0.94-0.91,0.93-1.71c-0.01-0.67,0.31-1.31,0.61-1.93c0.17-0.36,0.35-0.71,0.52-1.06c-0.25-0.42-0.71,0.08-0.97-0.3
		c0.91-0.83,1.78-1.69,2.61-2.6c0.34-0.38,0.46-0.82,0.72-1.22c0.46-0.7,1.14-1.17,1.87-1.66c-0.26-0.1-0.44-0.17-0.61-0.23
		c-0.07-0.09-0.04-0.13,0.08-0.16c0.83-0.24,1.65-0.49,2.44-0.72c0.02-0.32-0.33-0.35-0.23-0.65c1.24-0.04,2.49-0.07,3.71,0.17
		c0.14-0.34-0.18-0.49-0.13-0.84c0.63,0.26,1.22,0.62,1.85,0.72c0.6,0.09,1.25-0.09,1.91-0.16c-0.03-0.7-0.59-0.96-0.93-1.38
		c-0.35-0.43-0.71-0.86-1.09-1.32c-0.18-0.11-0.19,0.18-0.42,0.2c-0.96-1.51-0.67-3.21-0.62-4.9c-0.49,0.21-0.61,0.88-1.21,0.92
		c-0.25-0.34,0.05-0.6,0.13-0.89c0.2-0.7,0.6-1.32,0.37-2.16c-0.16-0.56,0.14-1.25,0.25-1.87c0.16-0.88-0.02-1.65-0.71-2.28
		c-0.56-0.51-1.05-1.1-1.76-1.59c-1.03,0.35-1.9,1.19-3.23,1.45c0.58-1.21,1.45-2.12,1.72-3.33c-0.02-0.05-0.03-0.14-0.07-0.2
		c-0.39-0.49-0.98-0.91-1.16-1.47c-0.48-1.47-1.08-2.91-1.37-4.45c-0.39-2.05-0.56-4.12-0.43-6.19c0.08-1.3,0.15-2.63,0.6-3.89
		c0.1-0.26,0.17-0.54,0.29-0.78c0.39-0.76,0.87-0.94,1.67-0.62c0.26,0.1,0.53,0.21,0.75,0.37c1.28,0.9,2.68,1.58,4.2,2.15
		c0.33-0.05,0.68-0.21,1.01-0.51c-3.06-0.86-5.68-2.22-7.06-5.22c0.24-0.35,0.49-0.15,0.67-0.07c1.96,0.82,3.99,1.01,6.1,0.87
		c2.26-0.15,4.53-0.42,6.84-0.19c-0.4-0.71-1.93-1.96-3.17-2.66c-1.22-0.68-2.53-1.11-3.9-1.43c0.09-0.38,0.33-0.29,0.49-0.3
		c1.96-0.01,3.92-0.04,5.88,0c1.61,0.04,3.16,0.36,4.6,1.16c0.79,0.44,1.35,1.07,1.95,1.97c0.22-1.1,0.26-2.05,0.87-2.83
		c0,0.75,0,1.5,0,2.25c0.83-1.24,1.49-2.54,2.41-3.68c0.92-1.14,1.87-2.26,3.08-3.19c0.18,0.4,0.02,0.69-0.08,0.96
		c-0.64,1.81-1.18,3.64-1.48,5.54c-0.11,0.67-0.2,1.34-0.09,2.11c1.24-0.56,2.37-1.19,3.47-1.89c0.25-0.16,0.41-0.37,0.56-0.61
		c0.27-0.45,0.66-0.81,1.05-1.14c0.54-0.47,1.07-0.49,1.63-0.03c0.4,0.33,0.8,0.68,1.09,1.1c1.02,1.49,2.26,2.79,3.38,4.19
		c1.37,1.72,2.61,3.54,3.27,5.68c1,3.26,0.91,6.45-0.56,9.55c-0.05,0.11-0.08,0.22-0.15,0.39c0.66,0.11,1.06-0.51,1.64-0.52
		c-0.21,1.24-1.04,2.3-2.59,3.33c0.99,0.86,1.81,1.38,4.24,1.46c0.12,0.33-0.15,0.41-0.34,0.52c-0.89,0.52-1.87,0.67-2.87,0.64
		c-0.17,0.33,0.08,0.47,0.23,0.62c0.9,0.93,1.57,2.01,2.12,3.17c0.27,0.58,0.38,1.2,0.56,1.92c1.35-0.54,2.2-1.64,3.32-2.39
		c0.22,0.49-0.38,0.77-0.26,1.29c1.06-0.31,2.12-0.6,3.17-0.92c0.32-0.1,0.6-0.4,0.91,0.03c0.05,0.07,0.3,0.02,0.46,0.01
		c0.92-0.08,0.9-0.05,2.03,0.46c0.42,0.19,0.93,0.21,1.4,0.27c0.99,0.11,1.79,0.64,2.62,1.12c0.2,0.12,0.2,0.25,0.14,0.48
		c-0.05,0.19,0.23,0.27,0.41,0.34c0.96,0.42,1.83,0.95,2.6,1.69c0.65,0.62,1.16,1.31,1.5,2.14c0.14,0.33,0.29,0.66,0.49,0.95
		c0.9,1.3,1.45,2.76,1.8,4.28c0.12,0.53,0.37,0.85,0.79,1.11c0.99,0.6,2,1.17,2.97,1.8c3.22,2.06,5.83,4.72,7.75,8.02
		c0.22,0.38,0.47,0.76,0.61,1.17c0.55,1.7,1.66,3.09,2.54,4.6c0.51,0.87,1.2,1.58,2.11,2.07c3.11,1.67,5.07,4.32,6.3,7.56
		C148.01,73.87,148.25,74.66,148.53,75.51z"/>
	<path class="st0" d="M93.32,128.91c0.84,0.83,1.46,1.85,2.2,2.76c0.12,0.15,0.19,0.35,0.43,0.36c0.04,0.22,0.17,0.21,0.33,0.13
		c0,0.01,0,0.02-0.01,0.03c-0.1-0.07-0.19-0.19-0.34-0.14c-0.07-0.72-0.54-1.22-0.95-1.74c-0.61-0.79-1.23-1.57-1.71-2.45
		c-0.4-0.72-0.59-1.47-0.16-2.27c0.26-0.48,0.62-0.85,1.15-0.96c0.77-0.17,1.55-0.37,2.36-0.25c0.38,0.05,0.79,0.1,1.19-0.1
		c-1.33-0.52-2.64-0.43-3.96,0.09c-0.09-0.44,0.15-0.68,0.27-0.95c0.14-0.32,0.46-0.57,0.37-0.98c0.51-0.38,1.01-0.76,0.89-1.51
		c0.18,0.09,0.28,0.02,0.35-0.15c0.17-0.15,0.17-0.34,0.13-0.55c0.09-0.04,0.12,0.02,0.06,0.03c-0.16,0.02,0.04,0.09-0.03-0.06
		c-0.04,0.2-0.09,0.41-0.13,0.61c-0.16-0.06-0.26,0.03-0.35,0.14c-0.33,0.48-0.86,0.85-0.89,1.5c-0.49,0.09-0.43,0.73-0.87,0.87
		c-0.17-0.36,0.05-0.68,0.11-1.01c0.3-1.74,0.64-3.48,1.23-5.16c0.05-0.14,0.01-0.31,0.01-0.47c0.21-0.08,0.27-0.2,0.09-0.37
		c-0.11,0.12-0.13,0.26-0.07,0.4c-0.19-0.07-0.24,0.16-0.48,0.18c-0.06-0.91,0.43-1.72,0.49-2.59c-0.06-0.07-0.01-0.1,0.02-0.03
		c0.06,0.15,0.06-0.06-0.04,0.06c-0.76,1.25-0.99,2.67-1.13,4.08c-0.15,1.51-0.47,2.99-0.79,4.46c-0.33,1.56-0.66,3.11-0.8,4.64
		c-0.25,0.31-0.54,0.26-0.81,0.23c-0.63-0.07-1.26-0.25-1.89-0.25c-0.75,0-1.19-0.39-1.55-0.94c-0.96-1.49-1.59-3.11-1.93-4.85
		c-0.29-1.45-0.25-2.93-0.45-4.39c-0.11-0.86,0.19-1.72,0.21-2.6c0.03-1.79,0.42-3.54,0.84-5.28c0.1-0.39,0.15-0.78,0.14-1.18
		l-0.04,0.06c0.31-0.54,0.48-1.12,0.51-1.74l-0.03,0.05c0.37-0.24,0.49-0.6,0.52-1.01l-0.02,0.04c0.22-0.05,0.4-0.17,0.68-0.09
		c1.26,0.4,2.57,0.49,3.88,0.57c2.22,0.12,4.44,0.3,6.66,0.48c2.34,0.19,4.67,0.5,7.01,0.62c1.82,0.09,3.66,0.2,5.48-0.16
		c0.78-0.15,1.47-0.57,2.27-0.78c0.14,0.56-0.16,0.79-0.58,1c0.27,0.65,0.59,1.29,0.88,1.92c0.55,1.17,0.59,2.46,1.01,3.66
		c-0.36,0.91,0.36,1.85-0.1,2.79c-0.16,0.32-0.11,0.79,0.21,1.12l0.01-0.03c-0.04,0.07-0.04,0.13-0.01,0.2
		c-0.19,0.02-0.27,0.09-0.13,0.27c0.03-0.1,0.06-0.2,0.1-0.3c0.36,0.2,0.38,0.58,0.49,0.92c1.07,3.1,2.37,6.09,3.91,8.99
		c1.2,2.25,2.25,4.58,3.12,6.98c0.5,1.38,1,2.76,1.26,4.21c0.32,1.78,0.64,3.56,0.79,5.35c0.12,1.39-0.01,2.79-0.03,4.19
		c-0.01,0.56,0,1.11,0.07,1.67c0.34-0.54,0.2-1.15,0.29-1.73c0.08-0.58,0.14-1.16,0.2-1.75c0.36,0.07,0.39,0.33,0.44,0.56
		c0.48,1.98,0.95,3.96,0.69,6.02c-0.03,0.28-0.09,0.59,0,0.83c0.31,0.77,0.12,1.54,0.1,2.37c-0.64,0.09-1.09-0.55-1.77-0.37
		c0.25,0.34,0.61,0.49,0.95,0.59c0.91,0.26,1.2,1.12,1.74,1.73c0.37,0.41,0.31,1.05,0.25,1.61c-0.03,0.28-0.03,0.56-0.04,0.84
		c-0.03,0.95-0.13,1.06-1.04,1.29c-0.32,0.08-0.63,0.09-0.96,0.01c-0.39-0.6,0.11-1.12,0.1-1.7c0.71-0.16,1.13,0.27,1.61,0.56
		c0.14-0.32,0.04-0.55-0.24-0.71c-0.5-0.28-1.03-0.42-1.6-0.41c-1.35,0.04-2.71-0.05-4.07,0.11c-1.07,0.13-2.16,0.05-3.23,0.13
		c-2.5,0.18-5,0.35-7.5,0.61c-2.62,0.27-5.22,0.64-7.78,1.26c-1.01,0.24-1.99,0.56-2.92,1.04c0.15,0.25,0.41,0.43,0.24,0.74
		c-0.96-0.02-1.14-0.09-1.3-0.82c-0.18-0.82-0.3-1.65-0.38-2.48c-0.09-1.02,0.38-1.78,1.29-2.24c0.67-0.33,1.37-0.61,2.24-0.99
		c-1.5,0.07-2.73,0.31-3.69,1.38c-0.1-0.21-0.22-0.35-0.23-0.49c-0.17-2.14-0.89-4.12-1.69-6.08c-0.88-2.18-1.77-4.36-2.53-6.59
		c-1.21-3.58-1.87-7.25-1.6-11.06c0.08-1.17,0.17-2.34,0.31-3.52c0.37,0.11,0.34,0.38,0.4,0.6c0.41,1.76,1.1,3.41,1.97,5
		c0.31,0.56,0.62,1.12,1.13,1.53c0.08,0.15,0.21,0.19,0.37,0.16c0.07,0.07-0.11,0.18,0.04,0.24c-0.02-0.07-0.05-0.14-0.07-0.21
		c-0.12-0.05-0.25-0.1-0.37-0.15c0.11-0.31-0.08-0.55-0.22-0.77c-1.24-2.02-1.91-4.27-2.54-6.52c-0.09-0.31-0.14-0.62-0.01-0.94
		L93.32,128.91z M100.7,109.41c-0.08,0.1-0.15,0.21-0.23,0.31c-0.12,0.04-0.2,0.11-0.19,0.25c-0.18-0.02-0.25,0.06-0.24,0.23
		c-0.19,0.01-0.25,0.11-0.2,0.29c-0.09,0.08-0.18,0.16-0.27,0.25c-0.22-0.02-0.19,0.14-0.2,0.27c-0.1,0.06-0.2,0.13-0.3,0.19
		c-0.19,0.01-0.19,0.14-0.18,0.28c-0.14-0.03-0.26,0-0.32,0.15c-0.1,0.07-0.19,0.13-0.29,0.2c-0.07,0.09-0.15,0.19-0.22,0.28
		c-0.07,0.15-0.15,0.3-0.22,0.45c0.06,0.07,0.01,0.09-0.02,0.03c-0.05-0.15-0.06,0.07,0.04-0.06c0.23-0.08,0.21-0.25,0.17-0.44
		c0.07-0.09,0.15-0.19,0.22-0.28c0.15,0,0.29,0,0.29-0.21c0.14,0.02,0.24-0.06,0.31-0.16c0.06-0.09,0.13-0.18,0.19-0.27
		c0.1-0.07,0.2-0.13,0.3-0.2c0.07-0.09,0.13-0.18,0.2-0.27c0.09-0.08,0.17-0.17,0.26-0.25c0.13-0.04,0.24-0.11,0.21-0.28
		c0.17,0.02,0.25-0.06,0.24-0.23c0.14-0.02,0.23-0.08,0.19-0.24c0.08-0.09,0.15-0.17,0.23-0.26c0.08-0.06,0.1-0.05,0.08,0.03
		C100.73,109.44,100.71,109.43,100.7,109.41z M108.85,118.12c0.09,0.1,0.19,0.19,0.28,0.29c0.08,0.05,0.15,0.11,0.23,0.16
		c0.07,0.09,0.14,0.18,0.21,0.27c0.08,0.1,0.17,0.2,0.25,0.31c0.06,0,0.12,0,0.18-0.01c-0.06,0.01-0.13,0.03-0.19,0.04
		c-0.09-0.11-0.19-0.21-0.28-0.32c-0.07-0.09-0.14-0.18-0.2-0.27c-0.07-0.05-0.14-0.1-0.21-0.15c-0.1-0.1-0.2-0.2-0.3-0.3
		c-0.06-0.09-0.12-0.19-0.18-0.28c-0.06-0.09-0.12-0.19-0.18-0.28c-0.09-0.08-0.18-0.15-0.27-0.23c-0.14-0.15-0.32-0.15-0.5-0.11
		c-0.07-0.09-0.14-0.19-0.21-0.28c-0.08-0.11-0.16-0.22-0.24-0.33c-0.16-0.13-0.36-0.07-0.55-0.09c0.01-0.16-0.02-0.29-0.18-0.36
		c-0.16-0.2-0.37-0.12-0.57-0.1c0.03-0.16,0.01-0.3-0.15-0.38c-0.14-0.18-0.33-0.17-0.53-0.14c-0.04-0.14-0.08-0.27-0.11-0.41
		c-0.21-0.03-0.42-0.07-0.62-0.1c-0.13-0.12-0.26-0.23-0.39-0.35c-0.06,0.08-0.1,0.03-0.04-0.01c0.13-0.09-0.07-0.05,0.06,0.04
		c0.13,0.09,0.26,0.19,0.4,0.28c0.16,0.24,0.39,0.15,0.6,0.11c-0.04,0.16-0.01,0.3,0.13,0.39c0.15,0.14,0.34,0.16,0.53,0.14
		c0.04,0.13,0.09,0.26,0.13,0.39c0.2,0.03,0.39,0.06,0.59,0.09c0.05,0.12,0.11,0.25,0.16,0.37c0.18,0.03,0.37,0.06,0.55,0.09
		c0.08,0.11,0.17,0.23,0.25,0.34c0.07,0.09,0.13,0.18,0.2,0.27c0.15,0.13,0.31,0.17,0.5,0.12c0.09,0.08,0.19,0.15,0.28,0.23
		c0,0.14,0,0.27,0.18,0.29C108.72,117.93,108.78,118.03,108.85,118.12z M110.25,146.72c0.16,0.03,0.26,0.12,0.3,0.27
		c0.18,0.03,0.36,0.06,0.54,0.09c0.07,0.07,0.02,0.12-0.01,0.07c-0.09-0.13-0.07,0.07,0.04-0.04c-0.19-0.03-0.38-0.06-0.58-0.1
		c-0.11-0.1-0.22-0.2-0.32-0.3c0.05-0.13,0.04-0.25-0.1-0.32c-0.07-0.09-0.14-0.18-0.22-0.28c-0.17-0.14-0.34-0.28-0.5-0.44
		c-0.18-0.18-0.37-0.22-0.6-0.13c0.13-0.2,0.08-0.3-0.16-0.31c0.02-0.18-0.07-0.25-0.24-0.24c0.01-0.17-0.07-0.25-0.24-0.24
		c0.01-0.17-0.07-0.25-0.24-0.24c0.01-0.17-0.07-0.25-0.24-0.24c0.01-0.17-0.07-0.25-0.24-0.24c0.01-0.17-0.07-0.25-0.24-0.24
		c0.01-0.17-0.07-0.25-0.24-0.24c0.01-0.17-0.07-0.25-0.24-0.24c0.01-0.17-0.07-0.25-0.24-0.24c0.01-0.17-0.07-0.25-0.24-0.24
		c0.01-0.17-0.07-0.25-0.24-0.24c-0.23-0.77-0.85-1.21-1.44-1.68c0.01-0.17-0.07-0.25-0.24-0.24c0.01-0.17-0.06-0.26-0.24-0.24
		c-0.09-0.59-0.47-0.93-0.96-1.2c0.01-0.17-0.07-0.25-0.24-0.24c-0.03-0.48-0.39-0.71-0.72-0.95c0-0.16-0.06-0.26-0.24-0.25
		c-0.03-0.19-0.15-0.21-0.31-0.19c0.04-0.2,0.03-0.39-0.08-0.57c-0.11-0.08-0.22-0.16-0.33-0.24l-0.02-0.04c0,0,0.05,0.01,0.05,0.01
		c0.11,0.09,0.23,0.17,0.34,0.26c-0.06,0.2-0.05,0.38,0.08,0.55c0.1,0.07,0.2,0.13,0.3,0.2c-0.01,0.18,0.07,0.26,0.24,0.24
		c0.06,0.45,0.34,0.74,0.72,0.96c-0.02,0.17,0.05,0.26,0.24,0.25c0.09,0.59,0.5,0.91,0.96,1.2c-0.01,0.17,0.07,0.25,0.24,0.24
		c-0.01,0.17,0.06,0.26,0.24,0.24c0.26,0.75,0.75,1.3,1.44,1.68c-0.01,0.17,0.07,0.25,0.24,0.24c-0.01,0.17,0.07,0.25,0.24,0.24
		c-0.01,0.17,0.07,0.25,0.24,0.24c-0.01,0.17,0.06,0.26,0.24,0.24c-0.01,0.17,0.06,0.25,0.24,0.24c-0.01,0.17,0.07,0.25,0.24,0.24
		c-0.01,0.17,0.06,0.25,0.24,0.24c-0.01,0.17,0.07,0.25,0.24,0.24c-0.01,0.17,0.07,0.25,0.24,0.24c-0.01,0.17,0.07,0.25,0.24,0.24
		c-0.01,0.17,0.06,0.26,0.24,0.24c-0.05,0.16,0.06,0.23,0.16,0.31c0.36,0.19,0.56,0.69,1.08,0.57c0,0.15,0.02,0.29,0.22,0.28
		C110.18,146.49,110.21,146.6,110.25,146.72z M110.78,136.67c0.02-0.1,0.09-0.06,0.04-0.01c-0.1,0.12,0.08,0.03-0.08-0.02
		C110.91,136.49,110.78,136.66,110.78,136.67z M100.03,115.01c-0.17,0.01-0.23,0.11-0.23,0.27c-0.18-0.05-0.25,0.03-0.27,0.2
		c-0.18,0.05-0.18,0.19-0.17,0.34c-0.85,0.06-1.2,0.67-1.49,1.36c-0.17-0.02-0.25,0.06-0.25,0.24c-0.38,0.22-0.72,0.46-0.7,0.97
		c-0.16-0.02-0.23,0.11-0.31,0.2c-0.02,0.04-0.04,0.09-0.05,0.13c0.01-0.06,0.01-0.11,0.02-0.17c0.15,0.01,0.28-0.02,0.33-0.19
		c0.38-0.22,0.67-0.5,0.7-0.97c0.18,0.02,0.25-0.07,0.24-0.24c0.7-0.23,0.94-0.97,1.49-1.37c0.06-0.11,0.11-0.22,0.17-0.33
		c0.17,0.04,0.24-0.05,0.27-0.2c0.13-0.05,0.23-0.11,0.23-0.26c0.06-0.02,0.12-0.04,0.18-0.05c-0.03-0.03-0.06-0.06-0.09-0.09
		C100.07,114.89,100.05,114.95,100.03,115.01z M110.13,135.56c0.06,0.08,0,0.12-0.02,0.07c-0.07-0.14-0.08,0.06,0.05-0.04
		c-0.11-0.07-0.22-0.15-0.32-0.22l-0.03-0.04l0.05,0.01C109.95,135.41,110.04,135.48,110.13,135.56z M108.37,134.04
		c0.03-0.1,0.04-0.1,0.06-0.01c-0.03-0.01-0.06-0.02-0.09-0.02c-0.07-0.1-0.15-0.19-0.22-0.29c-0.1-0.07-0.2-0.13-0.29-0.2
		c-0.05-0.1-0.1-0.2-0.15-0.31c-0.11-0.05-0.23-0.11-0.34-0.16c-0.16-0.07-0.15-0.2-0.11-0.33c-0.12-0.05-0.24-0.1-0.35-0.15
		c-0.05-0.1-0.1-0.21-0.15-0.31c-0.12-0.05-0.23-0.11-0.35-0.16c-0.16-0.07-0.15-0.2-0.11-0.33c-0.13-0.05-0.25-0.09-0.38-0.14
		c-0.17-0.06-0.19-0.18-0.12-0.32l-0.03-0.04c0,0,0.04,0.02,0.04,0.02c0.04,0.12,0.09,0.24,0.13,0.36c0.12,0.04,0.24,0.07,0.36,0.11
		c0.04,0.12,0.08,0.24,0.13,0.36c0.11,0.05,0.22,0.09,0.34,0.14c0.06,0.11,0.11,0.21,0.17,0.32c0.11,0.05,0.22,0.09,0.32,0.14
		c0.04,0.12,0.08,0.24,0.13,0.36c0.11,0.05,0.22,0.09,0.34,0.14c0.05,0.11,0.11,0.22,0.16,0.32c0.1,0.06,0.19,0.12,0.29,0.19
		C108.22,133.81,108.3,133.92,108.37,134.04z M104.85,130.28c0.06,0.07,0.05,0.1-0.03,0.08c0.02-0.01,0.04-0.03,0.05-0.04
		c-0.11-0.08-0.21-0.15-0.32-0.23c-0.05-0.11-0.1-0.23-0.15-0.34c-0.1-0.05-0.2-0.11-0.3-0.16c-0.15-0.14-0.33-0.15-0.52-0.1
		c-0.09-0.1-0.18-0.21-0.27-0.31c-0.05-0.11-0.09-0.21-0.14-0.32c-0.11-0.06-0.22-0.12-0.32-0.19c-0.04-0.04-0.08-0.07-0.1-0.09
		c0.03,0.01,0.08,0.04,0.13,0.07c0.11,0.06,0.21,0.12,0.32,0.18c-0.01,0.14-0.01,0.27,0.15,0.32c0.09,0.1,0.17,0.2,0.26,0.3
		c0.16,0.13,0.33,0.17,0.53,0.1c0.04,0.13,0.14,0.17,0.27,0.18c0.07,0.1,0.02,0.27,0.18,0.32
		C104.67,130.13,104.76,130.2,104.85,130.28z M99.28,129.73c-0.01-0.1,0.01-0.11,0.06-0.02c-0.03,0-0.06,0-0.09,0
		c-0.09-0.09-0.18-0.19-0.27-0.28c-0.07-0.09-0.14-0.17-0.21-0.26c-0.08-0.08-0.15-0.16-0.23-0.23c0.06-0.18-0.03-0.24-0.2-0.25
		c0.01-0.17-0.07-0.24-0.23-0.25c-0.16-0.29-0.39-0.46-0.73-0.46c-0.08-0.41-0.35-0.52-0.73-0.47c-0.14-0.55-0.76-0.5-1.06-0.85
		c-0.12,0-0.24,0-0.39,0c0.16,0.14,0.28,0.02,0.41-0.01c-0.06,0.14-0.11,0.3,0.06,0.39c0.32,0.18,0.59,0.47,1,0.45
		c0.17,0.28,0.34,0.54,0.73,0.47c0.11,0.36,0.36,0.52,0.73,0.46c-0.04,0.19,0.05,0.26,0.23,0.26c-0.03,0.16,0.06,0.23,0.2,0.24
		c0.08,0.08,0.15,0.16,0.23,0.24c0.07,0.09,0.14,0.18,0.21,0.27C99.1,129.51,99.19,129.62,99.28,129.73z M108.22,128.31
		c0.1,0.1,0.2,0.21,0.3,0.31c0,0.05,0,0.1,0,0.16c-0.01-0.05-0.02-0.1-0.03-0.15c-0.15-0.05-0.25-0.14-0.27-0.3
		c-0.14-0.03-0.28-0.06-0.43-0.09c-0.18-0.07-0.19-0.18-0.1-0.33l-0.05-0.04l0.06,0.01c0.04,0.13,0.07,0.25,0.11,0.38
		C107.95,128.28,108.09,128.3,108.22,128.31z M107.25,127.15c0.06,0.08,0,0.12-0.02,0.07c-0.07-0.14-0.08,0.06,0.05-0.04
		c-0.1-0.09-0.19-0.17-0.29-0.26c-0.08-0.1-0.18-0.15-0.32-0.14c-0.08-0.09-0.16-0.18-0.25-0.27c-0.1-0.07-0.19-0.14-0.29-0.21
		c0.06-0.19,0.05-0.38-0.06-0.56c-0.1-0.09-0.19-0.18-0.29-0.27c-0.08-0.08-0.17-0.16-0.25-0.24c-0.07-0.09-0.15-0.17-0.22-0.26
		c-0.08-0.08-0.17-0.15-0.25-0.23c-0.08-0.11-0.18-0.16-0.31-0.14c-0.09-0.08-0.19-0.16-0.28-0.24c-0.06-0.1-0.11-0.19-0.17-0.29
		c-0.02-0.17-0.13-0.2-0.28-0.18c0.02-0.09,0.13-0.22-0.1-0.18c0.04,0.05,0.09,0.1,0.13,0.15c0.07,0.1,0.13,0.2,0.27,0.18
		c0.06,0.1,0.12,0.2,0.18,0.3c0.09,0.07,0.19,0.15,0.28,0.22c0.07,0.11,0.14,0.2,0.29,0.15c0.08,0.08,0.17,0.15,0.25,0.23
		c0.08,0.09,0.15,0.17,0.23,0.26c0.08,0.08,0.17,0.15,0.25,0.23c0.11,0.1,0.21,0.19,0.32,0.29c-0.07,0.2-0.04,0.38,0.05,0.57
		c0.1,0.06,0.19,0.13,0.29,0.19c0.08,0.08,0.17,0.17,0.25,0.25c0.07,0.11,0.15,0.2,0.29,0.15
		C107.09,126.98,107.17,127.07,107.25,127.15z M100.72,114.21c-0.03-0.01,0.1,0.13-0.03,0.03c0.06-0.07,0.12-0.02,0.07,0.01
		C100.63,114.35,100.83,114.33,100.72,114.21z M110.49,157.88c-0.29,0.22-0.78-0.04-0.99,0.4c-0.22-0.03-0.43-0.1-0.71,0.03
		c0.27,0.1,0.47,0.01,0.68-0.05c0.22-0.05,0.44-0.11,0.67-0.13c0.18-0.02,0.26-0.12,0.32-0.27c0.49,0.1,0.98,0.04,1.46-0.04
		c0.25-0.08,0.5-0.16,0.76-0.24c-0.27,0.03-0.65-0.22-0.75,0.25C111.44,157.67,110.96,157.73,110.49,157.88z M114.63,157.21
		c-0.38,0.03-0.76,0.05-1.14,0.08c0.38,0.06,0.79,0.32,1.11-0.11c0.41,0.08,0.82,0.04,1.22-0.12
		C115.42,157.11,115,156.88,114.63,157.21z M121.08,154.33c-2.49-0.65-5.02-0.73-7.56-0.51
		C116.04,153.99,118.56,154.16,121.08,154.33z M88.16,109.62c0-0.04,0.01-0.07,0-0.11c0-0.01-0.04-0.01-0.05-0.01
		c0,0.04,0,0.07,0,0.11C88.12,109.61,88.15,109.62,88.16,109.62z M107.67,158.53c0.08,0.03,0.15,0.12,0.22,0
		C107.82,158.53,107.75,158.53,107.67,158.53z M112.02,154.02l0.09-0.03l-0.09-0.03L112.02,154.02z M116.92,156.85
		c0,0.03,0,0.06,0.01,0.07c0.02,0.02,0.06,0.02,0.09,0.01c0.08-0.04,0.08-0.08-0.02-0.11C116.98,156.82,116.95,156.84,116.92,156.85
		z M87.87,108.62l0.05,0.04l0.01-0.06L87.87,108.62z"/>
	<path class="st0" d="M82.27,106.34c-0.09,0.31,0.12,0.53,0.23,0.78c0.38,0.88,0.71,1.77,1.02,2.67c0.55,1.6,0.53,3.2,0.33,4.83
		c-0.2,1.59-0.12,3.18-0.03,4.77c0.1,1.75,0.45,3.46,0.86,5.16l0.02-0.03c-0.27,0.1-0.34-0.14-0.45-0.28
		c-1.15-1.57-1.85-3.33-2.25-5.22c-0.26-1.22-0.13-2.46-0.23-3.66c-0.35-0.28-0.09,1.03-0.69-0.09c0.49,3.82,1.07,7.31,3.67,10.19
		c-0.87,0-1.4-0.46-1.94-0.87c-0.38-0.29-0.6-0.74-1.04-0.95c0.01-0.17-0.07-0.26-0.24-0.24c0.01-0.2-0.06-0.37-0.19-0.52
		c-0.07-0.14-0.16-0.23-0.33-0.16c0.06-0.48-0.03-0.9-0.53-1.12c0.1-0.32,0.08-0.63-0.08-0.93c-0.06-0.19-0.12-0.39-0.19-0.64
		c-0.11,0.32-0.09,0.53,0.21,0.61c-0.09,0.32-0.03,0.64,0.06,0.95c0.19,0.36,0.37,0.73,0.56,1.09c0.06,0.16,0.15,0.24,0.33,0.16
		c-0.02,0.21-0.1,0.43,0.18,0.53c-0.01,0.17,0.06,0.26,0.24,0.24c0.15,0.84,0.86,1.19,1.44,1.66c0.24,0.19,0.59,0.26,0.77,0.65
		c-0.89,0.47-1.87,0.57-2.81,0.82c-0.31,0.08-0.35-0.23-0.52-0.37c-1.41,0.85-2.66,2.07-4.55,2.03c0.03-0.44,0.41-0.59,0.57-0.87
		c0.16-0.27,0.42-0.51,0.2-0.86c0.06,0,0.13,0,0.19,0.01c-0.02-0.01-0.05-0.04-0.06-0.03c-0.04,0.01-0.07,0.04-0.1,0.06
		c-0.78,0.84-1.62,1.62-2.81,2.31c1.49-3.53,2.15-6.97,1.29-10.58c-0.29,0.89-0.09,1.8-0.11,2.7c-0.04,2.42-0.42,4.76-1.46,6.96
		c-0.52,1.11-1.15,2.18-2.12,2.99c-0.38,0.32-0.79,0.53-1.27,0.6c-0.27-0.22-0.04-0.44,0.01-0.65c0.29-1.16,0.63-2.3,0.82-3.49
		c0.28-1.71,0.29-3.42,0.09-5.13c-0.25-2.19-0.83-4.3-1.8-6.29c-1.18-2.43-2.71-4.58-4.8-6.34c-2.49-2.09-5.34-3.3-8.5-3.81
		c-1.26-0.21-2.59-0.24-3.79,0.25c-1.28,0.53-2.5,1.25-3.38,2.39c-0.09,0.12-0.19,0.24-0.28,0.35c-0.3-0.17-0.26-0.39-0.19-0.63
		c0.51-1.82,1.61-3.2,3.24-4.11c2.66-1.48,5.47-1.82,8.4-0.85c0.95,0.31,1.88,0.65,2.77,1.11c0.06-0.08,0.07-0.07,0.04,0.02
		c-0.02-0.02-0.04-0.03-0.06-0.05c-1.07-1.08-2.43-1.61-3.87-1.95c-0.92-0.22-1.87-0.35-2.83-0.24c-0.03-0.33,0.14-0.4,0.35-0.43
		c2.04-0.32,4.08-0.71,6.15-0.47c1.72,0.19,3.33,0.79,4.8,1.71c0.71,0.44,1.37,0.96,2.06,1.42c0.25,0.17,0.45,0.48,0.82,0.41
		c-0.02,0.18,0.07,0.25,0.24,0.24c-0.01,0.17,0.06,0.25,0.23,0.24c0.01,0.04,0.01,0.07,0.03,0.1c0.01,0.01,0.05,0.01,0.07,0.01
		c0.01-0.07-0.03-0.1-0.13-0.09c0.02-0.18-0.06-0.25-0.23-0.24c0.01-0.17-0.07-0.25-0.24-0.24c-0.09-0.48-0.49-0.72-0.81-0.98
		c-3.11-2.56-5.38-3.22-8.82-3.22c-0.02-0.26,0.19-0.31,0.35-0.35c1.26-0.37,2.55-0.57,3.84-0.79c2.03-0.34,3.94,0.12,5.86,0.63
		c0.07,0.02,0.13,0.04,0.2,0.05c0.03,0,0.09-0.01,0.09-0.02c0.01-0.08-0.04-0.12-0.13-0.1c-0.06,0.02-0.12,0.06-0.18,0.1
		c0.26-0.29,0.59-0.36,0.96-0.28c1.39,0.3,2.78,0.6,4.1,1.13c1.22,0.49,2.27,1.26,3.14,2.25c0.02-0.1,0.04-0.11,0.06-0.02
		c-0.03,0-0.06-0.01-0.09-0.01c0.12-0.63-0.36-0.95-0.73-1.26c-0.64-0.54-1.33-1.02-2.14-1.3c-0.52-0.18-1.02-0.42-1.6-0.67
		c0.94-0.19,1.52-0.07,2.45,0.46c0.38,0.21,0.7,0.55,1.17,0.56l-0.05-0.04c0.18,0.28,0.38,0.54,0.77,0.52l-0.05-0.04
		c0.12,0.37,0.41,0.49,0.77,0.52l-0.05-0.04c0.14,0.34,0.39,0.52,0.77,0.52l-0.05-0.04c0.27,0.5,0.71,0.71,1.25,0.76l-0.05-0.04
		c0.08,0.27,0.31,0.27,0.53,0.28L82,103.45c0.37,0.54,0.99,0.59,1.53,0.75c0.91,0.27,1.82,0.48,2.8,0.74
		c-0.23,1.12-0.88,2-1.16,3.02c-0.27,0.99-0.54,1.98-0.86,3.12c-0.4-1.16-0.72-2.18-1.1-3.18c-0.22-0.57-0.37-1.2-0.98-1.54
		c-0.06-0.59-0.09-0.62-0.59-0.59c0.02-0.07,0.05-0.13,0.07-0.2c0.03-0.09-0.03-0.16-0.09-0.11c-0.13,0.1,0-0.07,0.01,0.09
		c0,0.06,0.01,0.13,0.02,0.19C81.92,105.89,81.88,106.33,82.27,106.34z M79.65,105.62c-0.1-0.08-0.2-0.15-0.3-0.23
		c-0.02-0.2-0.17-0.19-0.31-0.18c-0.06-0.11-0.12-0.21-0.18-0.32c-0.11-0.06-0.22-0.11-0.33-0.17c-0.05-0.1-0.09-0.2-0.14-0.31
		c0.02-0.17-0.06-0.24-0.22-0.22c-0.06-0.11-0.12-0.22-0.18-0.33c-0.27-0.1-0.45-0.43-0.8-0.33c-0.06-0.07-0.01-0.12,0.02-0.07
		c0.07,0.14,0.08-0.06-0.05,0.04c0.27,0.16,0.47,0.47,0.85,0.34c-0.01,0.15-0.02,0.3,0.19,0.32c-0.02,0.17,0.06,0.24,0.22,0.23
		c0.05,0.11,0.1,0.22,0.14,0.33c0.11,0.05,0.22,0.1,0.33,0.15c0.06,0.1,0.13,0.21,0.19,0.31c0.1,0.06,0.2,0.12,0.3,0.18
		c0.03,0.18,0.15,0.23,0.31,0.22c0.08,0.09,0.15,0.19,0.23,0.28c0.04,0.17,0.08,0.34,0.11,0.51c0.11,0.08,0.22,0.16,0.33,0.24
		l0.02,0.04l-0.05-0.01c-0.11-0.09-0.23-0.17-0.34-0.26c0-0.17,0.04-0.36-0.11-0.5C79.81,105.8,79.73,105.71,79.65,105.62z
		 M70.57,103.37c-0.02,0.16-0.01,0.3,0.19,0.34c0,0.34,0.31,0.44,0.5,0.62c2.99,2.93,5.24,6.25,5.76,10.53
		c0.02,0.16,0.05,0.31,0.27,0.28c-0.01,0.01-0.01,0.02-0.02,0.03c-0.01-1.57-0.34-3.07-0.96-4.51c-1.17-2.73-3.06-4.9-5.24-6.85
		c-0.07-0.07-0.22-0.05-0.34-0.07c-0.06-0.11-0.12-0.23-0.18-0.34c-0.04-0.01-0.08-0.01-0.11-0.03c-0.11-0.06-0.15-0.04-0.08,0.02
		C70.4,103.42,70.5,103.38,70.57,103.37z M74.79,112.62c0.13-0.38-0.02-0.66-0.36-0.94c0,0.4,0.08,0.7,0.39,0.92
		c-0.03,0.24,0.03,0.47,0.1,0.7c0.38,1.26,0.77,2.51,0.94,3.83c0.06,0.51,0.15,1.03,0.31,1.52c0.16,0.49,0.04,1.03,0.27,1.5
		c0.07-0.24,0.08-0.48,0.06-0.72c-0.14-2.2-0.63-4.33-1.36-6.4C75.08,112.86,75.06,112.63,74.79,112.62z M68.76,112.68l0.02-0.08
		c0,0-0.02,0.05-0.02,0.05c0.18,0.31,0.37,0.61,0.55,0.92c1.02,1.67,1.91,3.42,2.36,5.32c0.76,3.22,0.75,6.45-0.09,9.66
		c0.01,0.25-0.21,0.51,0.03,0.77c0.13-0.28,0.06-0.54-0.04-0.79c0.17,0.01,0.31-0.03,0.34-0.23c0.1-0.62,0.21-1.24,0.29-1.87
		c0.31-2.37,0.39-4.74-0.04-7.1c-0.43-2.39-1.45-4.52-2.93-6.43C69.12,112.74,69.01,112.56,68.76,112.68z M78.02,124.92
		c0.67-1.7,0.35-3.45,0.29-5.2C78.14,121.44,78.33,123.19,78.02,124.92z M77.36,117c0-0.05,0.01-0.24,0-0.44
		c-0.01-0.18,0.17-0.39-0.11-0.59C77.29,116.4,77.33,116.78,77.36,117z M81.17,114.29c-0.01,0.03-0.02,0.07-0.02,0.1
		c0,0.12,0.03,0.13,0.05,0.05c0.01-0.03,0.01-0.07,0-0.1C81.2,114.32,81.18,114.3,81.17,114.29z M79.48,119.45c0.02,0,0.03,0,0.05,0
		c0-0.04,0-0.07,0-0.11c-0.02,0-0.04,0-0.06,0C79.47,119.38,79.47,119.41,79.48,119.45z M75.16,117.67
		c0.02-0.01,0.07-0.02,0.07-0.03c0-0.04,0-0.08-0.01-0.11c-0.01-0.03-0.03-0.05-0.04-0.08C75.17,117.52,75.17,117.6,75.16,117.67z
		 M79.26,118.56c0-0.07,0-0.15,0-0.22C79.26,118.41,79.26,118.48,79.26,118.56z M80.04,119.43c0-0.03,0.02-0.06,0.01-0.09
		c-0.04-0.08-0.08-0.07-0.11,0.02c-0.01,0.02,0.01,0.06,0.03,0.08C79.98,119.45,80.01,119.44,80.04,119.43z M81.9,114.35l-0.04,0.05
		l0.05,0.01L81.9,114.35z"/>
	<path class="st0" d="M90.76,159.56c-0.14,0.3,0.04,0.54,0.17,0.78c0.5,0.91,1.01,1.8,1.52,2.7c0.1,0.17,0.23,0.33,0.11,0.54
		c-0.13,0.08-0.23,0.01-0.31-0.06c-1.4-1.3-2.79-2.6-3.94-4.13c-0.75-0.99-1.25-2.13-1.83-3.21c-0.29-0.55-0.28-1.23-0.35-1.86
		c-0.11-0.9-0.21-1.8-0.75-2.58c-0.01-0.12,0.04-0.27-0.12-0.34c-0.07,0.17-0.05,0.28,0.15,0.31c-0.08,0.64,0.02,1.27,0.11,1.9
		c0.28,1.89,0.53,3.78,0.79,5.67c0,0.03-0.03,0.07-0.05,0.11c-0.77-0.46-2.37-3.27-4.1-6.99c-1.15-2.49-1.72-5.12-2.19-7.97
		c-0.31,1.29,0.28,2.53-0.51,3.66c-0.1-0.42-0.23-0.76-0.25-1.11c-0.09-1.39-0.35-2.77-0.48-4.15c-0.21-2.19-0.2-4.38,0.37-6.54
		c0.05-0.19,0.08-0.39,0.11-0.59c0.08-0.23,0.17-0.46,0.25-0.68c-0.02-0.03-0.05-0.06-0.05-0.09c0-0.02,0.02-0.05,0.04-0.08
		c0,0.06,0,0.12-0.01,0.18c-0.33,0.16-0.26,0.43-0.2,0.7c-0.28-0.05-0.33,0.17-0.39,0.34c-0.33,0.82-0.61,1.64-0.7,2.52
		c-0.02,0.19,0.01,0.4-0.2,0.54c-0.33-0.03-0.24-0.32-0.29-0.51c-0.8-3.34-0.57-6.55,1.09-9.62c0.45-0.83,1.02-1.36,1.97-1.53
		c0.7-0.12,1.39-0.35,2.08-0.53c0.4-0.1,0.78-0.14,1.11,0.19c0.12,0.25-0.03,0.45-0.11,0.67c-0.49,1.31-0.75,2.68-1.13,4.02
		c-0.45,1.57-0.97,3.12-1.48,4.67c-0.06,0.19-0.16,0.36-0.08,0.57c-0.04,0.02-0.09,0.04-0.13,0.05c0.02,0,0.05,0.01,0.06,0
		c0.02-0.02,0.03-0.05,0.04-0.08c0.65-0.24,0.89-0.87,1.28-1.36c0.31-0.4,0.57-0.82,0.84-1.21c0.22,0.1,0.23,0.22,0.22,0.33
		c-0.35,2.03-0.12,4.05,0.14,6.05c0.08,0.6,0.09,1.19,0.12,1.78c0.02,0.43-0.08,0.86,0.11,1.33c0.56-0.91,0.26-2,0.78-2.95
		c0.28,0.88,0.54,1.7,0.79,2.52c0.06,0.2,0.12,0.39,0.38,0.34c-0.06,0.16-0.14,0.32-0.02,0.5c0.19-0.16-0.03-0.32,0-0.48
		c-0.63-2.85-0.83-5.75-1.14-8.67c-0.63,0-0.13,0.74-0.63,0.86c-0.05-1.99,0.64-3.84,1.03-5.95c-1.08,0.92-0.86,2.36-1.82,3.13
		c-0.16-0.73,0.14-1.97,1.41-5.96c0.62-0.34,1.34-0.16,1.96-0.09c2.05,0.24,3.78,1.16,5.07,2.84c0.3,0.39,0.31,0.8,0.29,1.24
		c-0.08,1.15-0.18,2.3-0.22,3.46c-0.05,1.84,0.25,3.65,0.55,5.46c0.6,3.58,1.98,6.89,3.43,10.18c0.96,2.17,1.48,4.46,2.03,6.75
		c0.3,1.25,0.11,2.53,0.44,3.76c0.06,0.23,0.07,0.47,0.11,0.71c0.3,1.54,0.55,1.77,2.13,1.89c0.37,0.61,0.38,1.35,0.61,2.02
		c0.21,0.62,0.44,1.24,0.66,1.89c-0.46,0.05-0.54-0.27-0.73-0.45c-0.52-0.48-0.71-1.24-1.41-1.55c0.06-0.22-0.04-0.39-0.15-0.57
		c-0.03-0.02-0.07-0.04-0.1-0.05c-0.01,0-0.04,0.02-0.06,0.03c0.06,0,0.13,0,0.19,0c-0.04,0.21-0.1,0.43,0.14,0.57
		c0.17,0.9,0.73,1.57,1.27,2.25c0.16,0.21,0.45,0.34,0.44,0.68c-0.21,0.22-0.37,0.01-0.51-0.08c-2.19-1.38-3.75-3.26-4.58-5.74
		c-0.22-0.67-0.41-1.37-0.91-1.91c-0.05-0.07-0.09-0.13-0.14-0.2c0,0.03-0.02,0.08,0,0.08c0.06,0.03,0.12,0.05,0.18,0.08
		c-0.08,1.09,0.35,2.1,0.55,3.14c0.23,1.23,0.53,2.46,0.82,3.79c-0.62-0.14-0.87-0.55-1.15-0.89c-0.9-1.11-1.72-2.29-2.36-3.57
		c-0.64-1.29-1.4-2.48-2.39-3.52c-0.02,0.1-0.04,0.11-0.06,0.02C90.7,159.55,90.73,159.55,90.76,159.56z M88.34,149.66
		c0,0.1,0,0.2,0,0.04c0.01,0.17,0.01,0.08,0-0.01c-0.11-0.13-0.23-0.26-0.34-0.38c0.02-0.27,0.08-0.55-0.19-0.74
		c0.04-0.37-0.1-0.7-0.2-1.05c-0.57-1.99-1.06-4.01-1.42-6.05c-0.14-0.79-0.27-1.58-0.41-2.37c-0.16,0.37-0.22,0.73-0.19,1.09
		c0.06,0.71,0.13,1.43,0.25,2.13c0.32,1.89,0.74,3.76,1.47,5.54c0.11,0.26,0.11,0.65,0.52,0.69c-0.09,0.29-0.11,0.56,0.2,0.73
		C88.03,149.48,88.2,149.56,88.34,149.66z M90.15,149.56c0.03,0.02,0.05,0.05,0.08,0.07c0.01,0.01,0.04,0,0.06-0.01
		c-0.06-0.01-0.11-0.02-0.17-0.03c-0.03-0.21-0.05-0.42-0.08-0.64c-0.24-0.15-0.2-0.7-0.69-0.47c0.04-0.12,0.14-0.24,0.03-0.39
		c-0.14,0.12,0.05,0.25-0.01,0.36c0.25,0.13,0.2,0.7,0.7,0.47C89.97,149.16,89.96,149.38,90.15,149.56z M91.66,151.11
		c0.07,0.06,0.08,0.12,0.02,0.18c-0.02-0.02-0.05-0.05-0.05-0.07c0.01-0.03,0.03-0.06,0.05-0.09c-0.15-0.27-0.29-0.54-0.44-0.82
		c-0.2,0.11-0.43,0.18-0.26,0.44C91.13,151,91.33,151.2,91.66,151.11z"/>
	<path class="st0" d="M68.83,20.44c-0.83,0.22-1.4,0.82-2.02,1.35c-0.54,0.45-1.04,0.94-1.57,1.42c-0.2-0.15,0.07-0.4-0.01-0.61
		c0.25-0.13,0.19-0.34,0.13-0.54c0.12-0.08,0.24-0.15,0.37-0.23c0,0,0.06-0.04,0.06-0.04l-0.03,0.06c-0.12,0.07-0.24,0.14-0.36,0.21
		c-0.09,0.17-0.18,0.35-0.13,0.55c-0.49,0.14-0.55,0.63-0.8,0.96c-0.21,0.28-0.17,0.7-0.57,0.93c-0.23-0.23-0.15-0.51-0.13-0.76
		c0.23-3.41,1.72-6.17,4.33-8.35c1.02-0.86,2.22-1.39,3.39-2c0.24-0.12,0.56-0.15,0.6-0.5c0.07,0.01,0.14,0.01,0.21,0.03
		c0.1,0.02,0.14-0.01,0.11-0.09c0-0.01-0.06,0-0.1,0.01c-0.06,0.02-0.13,0.05-0.19,0.07c-2.71,0.03-4.93-1.12-6.88-2.89
		c-0.31-0.28-0.71-0.53-0.8-1c0.09-0.03,0.18-0.08,0.24-0.07c2.15,0.65,4.34,0.49,6.54,0.4c0.95-0.04,1.91-0.13,2.86-0.17
		c1.68-0.07,3.34,0.1,4.99,0.37c0.25,0.04,0.52,0.01,0.8,0.01c-0.05-0.09-0.07-0.15-0.09-0.15c-1.36-0.33-2.43-1.17-3.43-2.08
		c-1-0.92-2.15-1.62-3.32-2.29c0.07-0.34,0.31-0.25,0.48-0.25c1.4-0.01,2.78,0.03,4.17,0.23c1.88,0.27,3.35,1.24,4.65,2.52
		c0.47,0.46,0.74,1.14,0.82,1.78c0.09,0.74,0.09,1.5,0.21,2.23c0.15-3.8,1.76-6.97,4.46-9.64c-0.04,0.99-0.44,1.89-0.63,2.83
		c-0.21,1.02-0.29,2.05-0.47,3.07c-0.18,1.03,0.18,1.97,0.14,3.1c0.26-0.32,0.23-0.58,0.24-0.82c0.02-0.36,0.24-0.59,0.49-0.79
		c0.55-0.46,1.13-0.87,1.84-1.05c0.23,0.27,0.02,0.46-0.1,0.64c-0.54,0.79-1.08,1.59-1.64,2.36c-0.93,1.25-1.73,2.59-2.52,3.93
		c-0.16,0.27-0.23,0.6-0.51,0.79c-0.29,0.19-0.37,0.5-0.44,0.82c-0.19,0.9-0.44,1.78-0.59,2.69c-0.1,0.57,0.06,1.27-0.58,1.69
		c-0.08,0.05-0.03,0.29-0.06,0.57c-0.61-0.49-0.48-1.3-0.99-1.74c-0.34,0.47-0.01,0.94-0.04,1.57c-0.56-0.57-0.41-1.23-0.76-1.79
		c-0.16,1.06-0.13,2.07-0.48,3.01c-0.36,0.95-0.68,1.92-1.42,2.93c-0.11-0.92,0.12-1.59,0.14-2.28c0.02-0.67-0.06-1.34,0.15-2
		c-1.13,1.77-1.23,6.1-0.28,10.85c-0.13,0.06-0.27,0.13-0.4,0.19c0.03-0.22,0.02-0.42-0.23-0.52c-0.05-0.24,0.04-0.52-0.24-0.68
		c-0.05-0.21-0.09-0.42-0.14-0.64c-0.16-0.03,0,0.16-0.1,0.03c-0.06-0.08-0.05-0.12,0.05-0.13c0.16-0.02-0.08-0.01,0.05,0.09
		c0,0.22-0.18,0.49,0.17,0.62c0.01,0.25-0.08,0.54,0.24,0.68c0.01,0.2-0.04,0.43,0.22,0.53c-0.07,0.49,0.4,0.83,0.42,1.28
		c-0.3,0.19-0.41-0.03-0.54-0.15c-1.45-1.31-2.65-2.82-3.56-4.57c-0.35-0.68-0.59-1.45-1.2-1.98c0-0.13,0-0.27,0-0.43
		c-0.17,0.16,0.05,0.27,0.02,0.39c0.21,1.55,0.74,3.05,0.95,4.6c-1.36-2.31-1.71-4.84-1.65-7.51c-0.55,1.01-0.56,1.59-0.1,4.95
		c-0.29,0.1-0.31-0.13-0.38-0.3c-0.62-1.35-0.86-2.81-1.19-4.23c-0.36-0.09-0.42,0.19-0.53,0.38c-0.14,0.24-0.26,0.49-0.39,0.74
		c-1.04,2.06-2.59,3.61-4.66,4.65c-0.53,0.27-1.06,0.53-1.57,0.78c-0.31-0.25-0.08-0.41-0.01-0.55c0.94-1.72,1.68-3.52,2.24-5.4
		c0.37-1.22,0.81-2.42,1.5-3.51c0.23-0.36,0.37-0.78,0.55-1.18c0.16,0.03,0.23-0.08,0.29-0.2c0.08-0.09,0.16-0.18,0.24-0.27
		c0.04-0.06,0.09-0.12,0.12-0.18c0.01-0.01-0.04-0.07-0.05-0.07c-0.14,0.07-0.07,0.17-0.04,0.27c-0.08,0.09-0.16,0.19-0.25,0.28
		C68.96,20.2,68.83,20.23,68.83,20.44z M80.94,9.79c-0.06,0.04-0.11,0.09-0.17,0c0.06,0.01,0.13,0.01,0.19,0.02
		c-0.23,0.57-0.14,1.09,0.18,1.6c0.25,0.39,0.51,0.79,0.66,1.4c-1.43-0.32-2.77-0.53-4.16,0.11c0.33,0.15,0.57,0.07,0.8,0.06
		c1.13-0.07,2.23,0,3.31,0.39c0.34,0.12,0.69,0.2,1.03,0.29c0.05,0.01,0.11-0.04,0.17-0.07c-0.1-0.26-0.44-0.38-0.39-0.71
		c0.21-0.15,0.37-0.04,0.53,0.09c0.25,0.2,0.49,0.41,0.73,0.61c0.26,0.21,0.5,0.2,0.74-0.04c-0.05-0.6-0.22-1.16-0.51-1.69
		c-0.05-0.09-0.14-0.17-0.27-0.12c-0.2,0.26-0.02,0.63-0.39,0.99c-0.72-0.73-1.6-1.27-2.22-2.12C81.02,10.34,80.99,10.06,80.94,9.79
		z M81.92,19.55l-0.04,0.05l0.05,0.01L81.92,19.55z"/>
	<path class="st0" d="M62.81,186.73c0.23,0.04,0.46,0.08,0.69,0.12c0.17,0.5,0.02,0.94-0.2,1.38c-0.85,1.71-2.55,2.89-4.7,2.57
		c-2.14-0.31-3.69-1.41-4.6-3.38c-0.42-0.9-0.38-1.79,0.13-2.64c0.57-0.94,0.95-1.91,1.05-3.02c0.05-0.58,0.27-1.17,0.5-1.72
		c0.31-0.75,0.77-1.39,1.55-1.75c1.28-0.58,2.43-1.37,3.57-2.19c1.12-0.81,2.34-1.38,3.74-1.46c1.98-0.11,4.18,1.02,5.07,2.97
		c0.36,0.79,0.3,1.63,0.06,2.46c-0.57,1.92-2.34,3.64-4.58,3.53c-0.16-0.01-0.32,0.03-0.53,0.06c0.26,0.3,0.62,0.15,0.93,0.35
		c-0.61,0.76-1.19,1.54-2,2.12c-0.24,0.17-0.62,0.23-0.66,0.62c-0.09,0.01-0.11,0.03-0.05,0.06
		C62.8,186.79,62.81,186.76,62.81,186.73z M61.17,180.9c0.11,0.09,0.21,0.19,0.32,0.28c-0.05,0.14-0.14,0.29,0.05,0.4
		c0.14-0.17-0.05-0.26-0.09-0.39c-0.14-0.04-0.24-0.13-0.3-0.26l-0.06-0.04C61.1,180.89,61.17,180.9,61.17,180.9z"/>
	<path class="st0" d="M78.2,101.09c-0.98-1.02-1.88-1.48-3.69-1.85c0.41-1.29,0.6-2.7,2.19-3.36c0.56,1.41,1.78,1.94,2.95,2.53
		c3.31,1.67,6.81,2.68,10.48,3.13c2.22,0.28,4.44,0.44,6.68,0.55c2.27,0.11,4.55,0.09,6.82,0.24c2.07,0.14,4.15,0.15,6.22,0.2
		c0.79,0.02,1.61,0.02,2.21-0.63c1.15,0.75,1.75,2.11,1.65,3.77c-0.52,0.5-1.24,0.66-1.92,0.82c-0.81,0.19-1.64,0.29-2.49,0.31
		c-2.52,0.05-5.02-0.19-7.52-0.44c-2.46-0.24-4.92-0.48-7.38-0.68c-1.15-0.09-2.31-0.11-3.46-0.21c-1.36-0.12-2.65-0.54-3.99-0.77
		c-1.61-0.28-3.2-0.66-4.73-1.25c-0.07-0.03-0.16,0-0.24,0.01c0,0,0.04,0.03,0.04,0.03c-0.08-0.27-0.31-0.27-0.53-0.28l0.05,0.04
		c-0.3-0.45-0.74-0.66-1.25-0.76l0.05,0.04c-0.12-0.38-0.43-0.46-0.77-0.52c0,0,0.05,0.04,0.05,0.04c-0.19-0.28-0.38-0.55-0.77-0.52
		c0,0,0.05,0.04,0.05,0.04c-0.1-0.41-0.4-0.52-0.77-0.52L78.2,101.09z M96.5,105.03c0.35,0.06,0.59,0.16,0.6,0.02
		C97.1,104.91,96.85,104.98,96.5,105.03z M94.73,105.01c0.18,0.14,0.36,0.13,0.54,0.01C95.09,104.88,94.92,104.87,94.73,105.01z
		 M92.09,104.77l0.08,0.05l0.02-0.06L92.09,104.77z M93.2,104.82c0.03,0.01,0.08,0.04,0.1,0.03c0.08-0.05,0.05-0.09-0.06-0.1
		C93.23,104.75,93.21,104.79,93.2,104.82z"/>
	<path class="st0" d="M74.33,185.45c-0.11-0.35-0.18-0.56-0.26-0.8c0.33-0.08,0.63-0.16,1-0.25c0.39,0.27,0.81,0.57,1.2,0.84
		c0.39,0.07,0.39-0.41,0.81-0.42c0.55,0.36,0.9,0.98,1.16,1.64c0.8,2.11,0.73,4.12-0.71,5.98c-0.57,0.73-1.29,1.19-2.17,1.38
		c-2.07,0.42-3.96,0.04-5.6-1.34c-1.38-1.17-1.49-2.92-0.46-4.14c0.88-1.04,1.87-1.96,2.95-2.78c0.25-0.19,0.51-0.25,0.78-0.14
		C73.42,185.56,73.81,185.5,74.33,185.45z"/>
	<path class="st0" d="M17.52,77.5c-0.06,0.12-0.04,0.23,0.06,0.31c0.15,0.13,0.31,0.27,0.48,0.35c1.62,0.75,1.95,2.07,1.69,3.69
		c-0.61,0.45-1.33,0.2-1.97,0.34c0.07,0.31,0.31,0.38,0.55,0.34c1.51-0.26,2.6,0.28,3.4,1.58c0.26,0.42,0.77,0.68,1.12,1.07
		c0.57,0.62,0.47,1.25-0.24,1.71c-0.4,0.26-0.86,0.46-1.34,0.45c-2.16-0.05-4.19-0.45-5.79-2.09c-0.98-1-1.37-2.25-1.54-3.56
		c-0.32-2.44-0.14-4.85,0.64-7.2c0.06-0.19,0.13-0.38,0.41-0.52c1.01,1.28,2.39,1.71,3.99,1.44c0.52,0.97,0.58,1.64,0.25,2.85
		c-0.64-0.07-1.07-0.68-1.72-0.72l-0.05-0.01L17.52,77.5z"/>
	<path class="st0" d="M146.56,89.57c-0.18-0.9-0.18-0.9,0.36-1.61c0.69,0.18,1.32,0.7,2.17,0.57c-0.36-0.46-0.89-0.46-1.31-0.66
		c-1.48-0.68-2.4-1.78-2.69-3.41c-0.12-0.66,0-1.26,0.29-1.84c0.53-1.05,1.47-1.43,2.6-1.04c1.48,0.52,2.5,1.58,3.12,2.97
		c0.78,1.75,1.23,3.62,1.64,5.48c0.22,1.01-0.27,1.76-1.27,2.15c-1.06,0.42-2.16,0.55-3.28,0.52c-1.54-0.04-2.49-1.47-2.01-2.95
		c0.06-0.19,0.26-0.13,0.4-0.2c0.12,0.41,0.39,0.5,0.82,0.39C147.12,89.73,146.89,89.52,146.56,89.57z"/>
	<path class="st0" d="M58.83,174.97c-1.36-0.1-2.64-0.43-3.62-1.52c-0.49-0.55-0.77-1.19-0.84-1.94c-0.1-1.1,0.55-1.78,1.31-2.4
		c0.17-0.13,0.37-0.13,0.57-0.08c1.38,0.36,2.75,0.76,4.15,1.07c1.04,0.23,1.52,1.01,1.87,1.84c0.31,0.73,0.16,1.47-0.54,2.03
		C60.88,174.67,59.92,174.94,58.83,174.97z"/>
	<path class="st0" d="M56.53,61.09c0.65,0.85,0.99,1.82,1.6,2.66c0.18-0.21,0.1-0.41,0.04-0.59c-0.05-0.16-0.1-0.3,0.15-0.46
		c0.35,0.45,0.7,0.92,1.07,1.38c0.75,0.93,1.5,1.86,2.26,2.79c0.69,0.84,1.57,1.47,2.38,2.17c0.94,0.81,1.77,1.73,2.56,2.67
		c0.04,0.05,0.03,0.15,0.05,0.28c-1.35,0.17-2.38-1.1-3.71-0.88c-0.12,0.31,0.12,0.64-0.12,0.91c-0.31,0.11-0.54-0.04-0.75-0.23
		c-1.86-1.7-3.73-3.4-4.66-5.83C56.79,64.4,56.45,62.78,56.53,61.09z"/>
	<path class="st0" d="M53.68,171.5c0.1,0.28,0.17,0.46,0.23,0.65c0.22,0.78,0.6,1.46,1.19,2.03c0.7,0.66,0.72,1.45,0.14,2.2
		c-0.62,0.8-1.45,1.07-2.43,0.96c-1.85-0.21-4.26-2.53-4.13-4.61c0.07-1.21,0.56-1.96,1.74-2.21c0.53-0.11,1.06-0.29,1.58,0.31
		C52.36,171.22,53.08,171.28,53.68,171.5z"/>
	<path class="st0" d="M45.77,177.62c0-0.96,0.5-1.83,1.31-2.08c0.86-0.26,1.72-0.3,2.41,0.46c0.59,0.65,1.26,1.19,2.06,1.6
		c0.77,0.39,1.2,2.07,0.86,3.01c-0.32,0.89-1.23,1.35-2.33,1.21c-1.59-0.21-2.85-0.94-3.75-2.28
		C45.91,178.88,45.77,178.35,45.77,177.62z"/>
	<path class="st0" d="M127.02,60.76c-0.06-1.75,0.36-3.46,0.03-5.47c-0.67,1.21-0.02,2.42-0.71,3.37c-0.73-1.25-1.17-3.68-1.01-5.55
		c0.26-0.18,0.32,0.13,0.58,0.24c0.16-1.37,0.31-2.72,0.23-4.19c1.17,0.27,1.95,1.02,2.88,1.53c0.3,1,0.34,2.02,0.3,3.16
		c-0.98-0.26-1.82-0.91-3.06-0.68c1.27,0.36,2.31,0.72,2.97,1.74C129.01,57.01,128.4,59.02,127.02,60.76z"/>
	<path class="st0" d="M119.15,167.49c-2.95-1.55-5.1-3.89-7.21-6.28c0.25-0.24,0.48-0.11,0.69-0.03c1.12,0.43,2.19,0.98,3.14,1.71
		c0.58,0.45,1.26,0.68,1.88,1.03c0.1,0.06,0.24,0.14,0.33,0.12c0.93-0.25,1.56,0.41,2.28,0.76c0.21,0.1,0.42,0.22,0.6,0.32
		c0.39-0.14-0.09-0.44,0.16-0.59c1.05,0.45,1.8,1.13,2.49,2.27c-0.17,0.66-0.29,1.36-0.78,1.98c-1.04-0.49-2.1-0.85-3.01-1.51
		C119.38,167.01,119.4,167.49,119.15,167.49z M118.14,165.02C118.16,164.89,118.15,164.95,118.14,165.02
		C118.16,164.95,118.17,164.89,118.14,165.02z"/>
	<path class="st0" d="M86.84,108.24c-0.06,0.05-0.16,0.09-0.17,0.15c-0.53,2.04-0.93,4.09-1.11,6.21c-0.11,1.35-0.16,2.7-0.13,4.05
		c0.04,1.8,0.28,3.57,0.87,5.28c0.3,0.87,0.65,1.71,1.18,2.47c0.1,0.14,0.28,0.28,0.18,0.56c-0.8-0.11-1.37-0.56-1.8-1.2
		c-0.34-0.5-0.55-1.06-0.73-1.63c-0.71-2.3-0.92-4.67-0.96-7.07c-0.06-3.97,0.83-7.74,2.3-11.39c0.07-0.18,0.14-0.38,0.38-0.5
		c0.41-0.12,0.73,0.05,0.92,0.48c0,0,0.02-0.04,0.02-0.04c-0.41,0.22-0.51,0.59-0.52,1.01l0.03-0.05c-0.51,0.48-0.5,1.11-0.51,1.74
		L86.84,108.24z"/>
	<path class="st0" d="M120.24,40.1c0.01,0.37,0.32,0.53,0.52,0.77c0.22,0.27,0.56,0.45,0.68,0.86c-0.5,0.2-0.98,0.07-1.41-0.03
		c-1.07-0.26-2.2-0.4-3.05-1.22c-0.87-0.14-1.64-0.61-2.49-0.81c-0.27-0.07-0.57-0.07-0.74-0.53c-0.03-0.28,0.46-0.4,0.53-0.75
		c-0.06-0.03-0.13-0.09-0.18-0.08c-0.38,0.12-0.75,0.26-1.13,0.39c-0.85,0.29-1.68,0.63-2.63,0.45c-0.34-0.07-0.71,0.04-1.07,0.05
		c-0.46,0.01-0.93,0.1-1.41-0.28c0.55-0.45,1.16-0.71,1.78-0.93c1.78-0.65,3.59-0.86,5.5-0.58c1.88,0.27,3.51,0.97,5,2.09
		c0.16,0.12,0.34,0.23,0.33,0.46c-0.01,0.15-0.14,0.16-0.27,0.15c-0.07,0.04-0.09,0-0.03-0.02C120.34,40.02,120.12,40,120.24,40.1z"
		/>
	<path class="st0" d="M68.55,120c0.3-0.01,0.37-0.26,0.48-0.46c0.21-0.38,0.39-0.77,0.75-1.13c0.34,0.31,0.29,0.74,0.43,1.09
		c0.16,0.4,0.22,0.84,0.3,1.27c0.41,2.32,0.54,1.8-0.94,3.78c-0.21,0.28-0.47,0.54-0.72,0.79c-0.5,0.51-1.01,1.01-1.51,1.51
		c-0.84-0.42-1.35-1.07-1.84-1.78c0.77-1.95,1.5-3.91,2.82-5.57c0.3,0.11,0.19,0.35,0.27,0.52c-0.05,0.04-0.14,0.08-0.15,0.12
		c-0.01,0.1,0.07,0.13,0.11,0.06C68.57,120.16,68.55,120.07,68.55,120z"/>
	<path class="st0" d="M124.37,47.82c-3.44-0.34-6.64-0.78-9.92-1.82c0.83-0.48,1.5-0.91,2.28-1.1c0.89-0.22,1.8-0.33,2.69-0.55
		c1.09-0.26,2.12-0.02,3.18,0.25c0.81,0.2,1.28,0.68,1.34,1.46C123.97,46.61,124.08,47.12,124.37,47.82z"/>
	<path class="st0" d="M69.75,50.27c-1.04,0.73-1.71-0.04-2.43-0.42c-0.47,0.35,0.16,0.75-0.15,1.16c-0.97-0.17-1.9,0.02-2.69,0.74
		c-0.15,0.14-0.45,0.12-0.68,0.18c-1.11,0.28-2.23,0.57-3.31,0.85c-0.19-0.22-0.15-0.49-0.45-0.59c0.82-1.07,1.79-1.83,2.76-2.59
		c0.35-0.28,0.86-0.35,1.3-0.51c0.08-0.68,0.7-0.42,1.02-0.47c1.11-0.19,2.21-0.03,3.25,0.39c0.05,0.29-0.3,0.26-0.3,0.49
		C68.45,50.05,69.23,49.82,69.75,50.27z"/>
	<path class="st0" d="M53.22,63.38c0.5,0.74,0.58,1.46,0.67,2.15c0.09,0.69,0.22,1.36-0.13,2.08c-0.22,0.44-0.28,1.04-0.12,1.62
		c0.34,1.26,0.61,2.54,0.91,3.81c0.04,0.15,0.12,0.3-0.04,0.5c-0.55-0.14-0.91-0.55-1.25-0.97c-1.07-1.3-1.65-2.8-1.67-4.5
		c-0.01-0.51-0.26-1-0.04-1.52C51.99,65.5,52.34,64.39,53.22,63.38z"/>
	<path class="st0" d="M144.85,88.38c-0.3,0.31-0.55,0.43-0.91,0.35c-0.8-0.17-1.49-0.52-2.1-1.05c-0.82-0.72-1.5-1.54-1.82-2.6
		c-0.32-1.02,0.07-1.63,1.13-1.78c0.35-0.05,0.72-0.02,1.07,0.01c0.67,0.07,1.08,0.45,1.23,1.11c0.17,0.73,0.34,1.47,0.6,2.18
		C144.26,87.21,144.72,87.69,144.85,88.38z"/>
	<path class="st0" d="M129.99,64.6c-1.08,1.97-2.8,2.78-4.81,3.13c-0.19,0.03-0.42,0.08-0.59,0.01c-1.14-0.46-2.31-0.87-3.18-1.79
		c-0.04-0.04-0.02-0.15-0.04-0.31c2.05-0.07,4.01-0.74,6.06-0.86C128.25,64.73,129.06,64.54,129.99,64.6z"/>
	<path class="st0" d="M107.68,49.35c-1.01-0.19-1.99-0.32-2.93-0.66c1.8-2.54,6.34-4.77,9.04-4.39c-1.09,0.82-2.22,1.48-3.27,2.22
		C109.41,47.29,108.82,48.52,107.68,49.35z"/>
	<path class="st0" d="M48.06,181.87c1.05,0.33,2.05,0.55,2.93,1.15c0.84,0.57,1.38,1.25,1.33,2.35c-0.05,1.1-1.01,1.56-1.83,1.27
		c-1.52-0.54-2.53-1.62-2.99-3.17C47.32,182.87,47.37,182.28,48.06,181.87z"/>
	<path class="st0" d="M58.55,56.54c-0.17-0.63,0.19-1.01,0.33-1.54c1.67-0.12,3.26-0.7,4.94-0.69c0.2,0,0.4,0.01,0.5,0.23
		c-0.06,0.48-0.73,0.28-0.83,0.81c1.31,0.29,2.55,0.76,3.87,1.58C64.27,57.58,61.46,56.75,58.55,56.54z"/>
	<path class="st0" d="M133.75,61.2c-0.22-0.08-0.47,0.11-0.74-0.12c-0.28-1.38-0.11-2.82-0.16-4.42c0.65,0.42,0.55,1.06,0.9,1.42
		c0.39-0.2,0.3-0.61,0.36-0.94c0.06-0.31-0.02-0.65,0.34-0.92c0.7,0.64,1.12,1.49,1.54,2.33c0.1,0.19,0.08,0.47,0.04,0.7
		c-0.28,1.64-0.95,3.12-1.9,4.47c-0.04,0.06-0.12,0.11-0.19,0.14c-0.07,0.03-0.15,0.02-0.28,0.04
		C133.72,63.01,133.96,62.11,133.75,61.2z"/>
	<path class="st0" d="M68.93,61.91c-0.39,0.67-0.88,0.11-1.27,0.49c0.46,0.47,0.93,0.94,1.4,1.4c0.49,0.48,0.86,1.05,1.14,1.67
		c0.27,0.6,0.65,1.17,0.72,1.85c-0.3,0.17-0.47,0.03-0.61-0.18c-0.86-1.29-2.03-2.24-3.36-2.98c-0.26-0.14-0.43-0.34-0.59-0.56
		c-0.29-0.38-0.62-0.73-0.88-1.13c-0.35-0.51-0.8-0.87-1.36-1.12c-0.39-0.17-0.76-0.38-1.19-0.8c0.94-0.14,1.69-0.08,2.46,0.1
		C66.59,60.95,67.64,61.62,68.93,61.91z"/>
	<path class="st0" d="M58.86,111.83c0.59-0.58,1.12-0.53,1.6-0.84c-0.87-0.3-1.69,0.09-2.48-0.08c-0.07-0.32,0.21-0.31,0.35-0.35
		c2.04-0.54,4.09-0.57,6.14-0.12c0.15,0.03,0.31,0.08,0.43,0.17c0.53,0.38,2,2.21,2.43,3.02C64.57,112.83,61.98,111.65,58.86,111.83
		z"/>
	<path class="st0" d="M56.97,106.71c-0.06,0.45-0.49,0.38-0.59,0.64c-0.07,0.17,0.33,0.41-0.04,0.55c-0.22,0.08-0.47,0.08-0.7,0.14
		c-2.34,0.66-4.7,1.24-6.81,2.53c-0.13,0.08-0.29,0.13-0.44,0.18c-0.03,0.01-0.07-0.02-0.2-0.07c0.5-1.59,1.83-2.44,3.05-3.27
		C52.99,106.23,54.99,106.36,56.97,106.71z"/>
	<path class="st0" d="M106.12,166.59c1.07,0.01,1.95,0.26,2.82,0.52c0.95,0.29,1.87,0.67,2.79,1.05c0.26,0.1,0.5,0.16,0.77,0.22
		c0.99,0.2,1.9,0.56,2.19,1.77c-0.68,0.09-1.2-0.25-1.76-0.39c-0.41,0.28,0.27,0.55-0.04,0.83
		C111.03,170.58,107.79,168.72,106.12,166.59z"/>
	<path class="st0" d="M20.55,78.26c1.74,1.08,3.4,1.9,4.12,3.76c0.18,0.48,0.45,1.01,0.03,1.46c-0.41,0.44-0.95,0.26-1.46,0.1
		c-1.11-0.34-1.83-1.08-2.24-2.15C20.64,80.5,20.52,79.53,20.55,78.26z"/>
	<path class="st0" d="M124.4,61.35c-0.7,0.59-1.6,0.51-2.32,0.89c-0.1,0.2,0.26,0.28,0.14,0.5c-0.06,0.04-0.12,0.1-0.19,0.11
		c-1.08,0.09-2.13-0.04-3.17-0.37c-1.49-0.47-1.58-0.52-2.09-2.17C119.39,60,121.89,60.4,124.4,61.35z"/>
	<path class="st0" d="M113.66,242.91c0.51,0.32,0.74,0.76,1.04,1.12c0.28,0.33,0.45,0.76,0.92,0.98c0.59-0.1,0.56-0.65,0.73-1.09
		c0.31,0.05,0.49-0.42,0.86-0.28c0,1.3-0.44,1.86-1.73,2.19c-1.54,0.4-3,0.37-4.35-0.57c-0.52-0.37-0.6-0.6-0.42-1.1
		c0.04-0.11,0.17-0.29,0.18-0.28c0.72,0.34,1.06-0.77,1.83-0.46C112.93,243.5,113.33,243.1,113.66,242.91z"/>
	<path class="st0" d="M139.34,80.58c0.05,0.53-0.12,1.06-0.46,1.52c-0.47,0.64-1.3,0.73-1.87,0.19c-0.59-0.56-1.04-1.2-0.8-2.1
		c0.07-0.26,0.01-0.56,0.05-0.83c0.06-0.45,0.3-0.81,0.67-1.09c0.24-0.19,0.49-0.24,0.78-0.13
		C138.77,78.55,139.34,79.36,139.34,80.58z"/>
	<path class="st0" d="M1.75,70c0.85-0.12,1.71-0.25,2.57-0.37c0.53-0.07,1.03-0.02,1.51,0.22c0.58,0.29,0.7,0.72,0.33,1.25
		c-0.29,0.41-0.72,0.64-1.17,0.8c-0.89,0.34-2.36-0.05-2.97-0.79C1.78,70.81,1.56,70.46,1.75,70z"/>
	<path class="st0" d="M118.33,51.02c-0.63,0.27-0.63,0.27-0.96,0.79c-0.63-0.05-1.28-0.43-1.94-0.03c-0.08,0.05-0.24,0-0.34-0.04
		c-1.23-0.44-2.51-0.28-3.78-0.31c-0.27-0.01-0.55,0.07-0.8-0.1c0.04-0.3,0.32-0.32,0.52-0.41c1.72-0.76,3.54-0.86,5.39-0.76
		c0.2,0.01,0.46,0,0.57,0.12C117.36,50.66,117.97,50.6,118.33,51.02z"/>
	<path class="st0" d="M65.3,76.21c-0.64,1.01-2.07,1.68-5.32,2.47c-0.81-0.55-1.79-0.93-2.32-2.06c0.82,0.06,1.44,0.51,2.15,0.54
		c0.33,0.01,0.69,0.3,0.84-0.27c0.01-0.05,0.22-0.09,0.33-0.08c0.64,0.01,1.27-0.1,1.9-0.14c0.73-0.05,1.42-0.12,2.07-0.49
		C65.03,76.12,65.18,76.19,65.3,76.21z"/>
	<path class="st0" d="M122.95,55.26c0.05,0.31,0.09,0.61,0.14,0.92c-0.04,0.04-0.1,0.13-0.16,0.14c-0.93,0.18-1.86,0.5-2.79,0.49
		c-0.66,0-1.43,0.03-2.03-0.47c0.19-0.38,0.65-0.24,0.93-0.49c-0.22-0.3-0.71-0.06-0.85-0.38c-0.1-0.14-0.08-0.19,0.03-0.22
		c0.8-0.21,1.6-0.45,2.44-0.46C121.46,54.77,122.23,54.91,122.95,55.26z"/>
	<path class="st0" d="M105.36,50.8c-0.31-0.19-0.54,0.02-0.75,0.19c-0.72,0.56-1.43,1.14-2.14,1.72c-0.12,0.1-0.22,0.22-0.4,0.14
		c-0.18-0.27,0.07-0.46,0.16-0.64c0.47-0.88,0.97-1.74,1.58-2.53c0.38-0.49,0.74-0.63,1.22-0.4c0.32,0.15,0.61,0.37,0.98,0.41
		c0.36,0.04,0.71,0.07,1.14,0.1c-0.16,0.67-0.78,0.87-1.2,1.24c-0.39,0.35-0.76,0.8-1.5,0.86c0.25-0.53,0.54-0.86,0.91-1.13
		c0.02-0.17,0.1-0.27,0.27-0.3l0.01-0.07l0.01,0.08C105.56,50.58,105.46,50.69,105.36,50.8z"/>
	<path class="st0" d="M73.46,47.86c0.59,0.16,0.78,0.56,0.95,1.03c0.32,0.94,0.35,0.93,1.32,1.37c-0.37,0.61-0.37,0.61,0.12,1.08
		c0.3-0.09,0.12-0.44,0.31-0.59c0.99,0.14,1.25,0.96,1.62,1.72c-1.81,0.1-3.44-0.84-4.09-2.33c-0.14-0.32-0.34-0.63-0.11-1.01
		c0.14-0.23-0.01-0.45-0.14-0.66C73.33,48.3,73.33,48.1,73.46,47.86z"/>
	<path class="st0" d="M122.16,243.45c-1.38,1.05-2.79,0.96-4.25,0.35c0.01-0.44,0.03-0.79,0.23-1.19c0.65,0.21,1.05-0.25,1.39-0.64
		c0.66,0.14,0.95,0.62,1.35,0.93C121.26,243.19,121.64,243.44,122.16,243.45z"/>
	<path class="st0" d="M1.49,75.69c0.42-0.63,1.1-0.59,1.7-0.72c0.38-0.08,0.78-0.08,1.17-0.19c0.72-0.22,0.73-0.19,1.38,0.59
		c-0.44,1-1.42,1.05-2.28,1.15C2.73,76.59,1.93,76.51,1.49,75.69z"/>
	<path class="st0" d="M15.34,71.72c1.41,0.83,2.27,1.98,3.52,3.06c-1.42,0.3-2.39-0.01-3.15-0.86
		C15.21,73.35,14.98,72.65,15.34,71.72z"/>
	<path class="st0" d="M105.13,36.98c1.34-0.09,2.34-1.09,3.75-1.09c-0.29,0.53-0.7,0.89-1.16,1.07c-0.57,0.22-1.04,0.57-1.54,0.88
		c-0.68,0.42-1.37,0.81-2.06,1.2c-0.19,0.11-0.4,0.28-0.71,0.05C103.99,38.41,104.4,37.6,105.13,36.98z"/>
	<path class="st0" d="M152.62,76.5c-0.01,0.7-0.33,0.99-0.96,0.78c-0.74-0.23-1.37-0.64-1.61-1.44c-0.18-0.58,0.02-0.87,0.63-0.98
		C151.77,74.68,152.63,75.4,152.62,76.5z"/>
	<path class="st0" d="M60.61,73.64c-1.71-0.11-3.05-1.48-3.3-3.38c0.52-0.04,0.9,0.1,1.27,0.54c0.66,0.79,1.27,1.61,1.9,2.42
		C60.58,73.34,60.68,73.47,60.61,73.64z"/>
	<path class="st0" d="M72.41,53.74c-2-0.4-4.07-0.26-6.25-0.8c0.9-0.5,1.72-0.55,2.53-0.54C70.09,52.42,71.72,53,72.41,53.74z"/>
	<path class="st0" d="M105.8,244.6c0.34-0.19,0.68-0.39,1.06-0.6c0.67,0.48,1.12,1.15,1.58,2c-1.43-0.13-2.7-0.22-3.77-1.18
		c0.2-0.46,0.58-0.54,0.93-0.66c0.08,0.19,0.15,0.33,0.21,0.48l-0.06-0.04L105.8,244.6z"/>
	<path class="st0" d="M157.16,83c-0.53,0.77-0.92,0.97-1.56,0.81c-0.77-0.18-1.2-1.33-0.74-1.94c0.2-0.27,0.92-0.33,1.33-0.08
		C156.62,82.07,157,82.4,157.16,83z"/>
	<path class="st0" d="M4.54,83.12c0.14-1.14,0.96-1.75,1.54-2.52c0.86,0.78,0.94,1.32,0.38,2.19c-0.21,0.32-0.5,0.5-0.84,0.63
		C5.41,83.5,5.4,83.49,4.54,83.12z"/>
	<path class="st0" d="M50.55,74.47c-0.74-0.58-1.43-0.98-1.8-1.82c0.62-0.12,1.09-0.42,1.6-0.38c0.08,0.07,0.13,0.1,0.14,0.13
		c0.05,0.23,0.12,0.48-0.07,0.67c-0.24,0.24-0.09,0.39,0.07,0.59C50.65,73.85,50.61,74.09,50.55,74.47z"/>
	<path class="st0" d="M155.16,89.1c-0.12,0.36-0.49,0.7-0.07,1.04c-0.22,0.32-0.37,0.65-0.69,0.84c-0.63-0.82-0.68-1.17-0.25-1.81
		C154.39,88.81,154.69,88.72,155.16,89.1z"/>
	<path class="st0" d="M155.27,96.98c-0.55,0.16-0.72-0.15-0.87-0.49c-0.27-0.66,0.03-1.14,0.5-1.62c0.46,0.11,0.57,0.62,0.45,0.8
		C155.05,96.11,155.38,96.52,155.27,96.98z"/>
	<path class="st0" d="M100.5,40.33c0.42-1.03,0.92-1.98,1.96-2.63C102.36,38.7,101.56,39.81,100.5,40.33z"/>
	<path class="st0" d="M62.74,79.45c-0.65-0.26-1.34-0.11-1.96-0.62c0.49-0.12,0.9-0.23,1.3-0.31c0.41-0.07,0.79-0.39,1.27-0.23
		C63.3,78.75,63,79.03,62.74,79.45z"/>
	<path class="st0" d="M9.88,87.07c0.19-0.21,0.36-0.35,0.55-0.3c0.3,0.08,0.59,0.21,0.79,0.48c0.21,0.29,0.19,0.45-0.21,1.02
		C10.46,88.05,9.93,87.83,9.88,87.07z"/>
	<path class="st0" d="M113.79,52.33c1.31-0.53,2.46,0.3,3.61-0.11C116.56,52.78,115.3,52.82,113.79,52.33z"/>
	<path class="st0" d="M109.97,244.96c-0.27,0.34-0.49,0.66-1.04,0.67c0.1-0.41,0.19-0.76,0.27-1.11
		C109.55,244.53,109.78,244.64,109.97,244.96z"/>
	<path class="st0" d="M124.19,242.35c-0.05,0.23-0.17,0.25-0.29,0.26c-0.23,0.01-0.47,0.09-0.7-0.05c-0.17-0.28-0.06-0.51,0.19-0.81
		C123.71,241.89,123.97,242.11,124.19,242.35z"/>
	<path class="st0" d="M99.1,43.62c-0.15-0.68,0.13-1.03,0.71-1.4C99.86,42.9,99.57,43.25,99.1,43.62z"/>
	<path class="st0" d="M66.02,75.51c-0.31,0.56-0.82,0.27-1.4,0.45C65.27,75.4,65.27,75.4,66.02,75.51z"/>
	<path class="st0" d="M77.34,53.23c0.55-0.2,0.89-0.15,1.06,0.49C77.94,53.76,77.64,53.61,77.34,53.23z"/>
	<path class="st0" d="M71.4,26.34c-0.11-0.04-0.14-0.14-0.1-0.26c0.03-0.12,0.14-0.19,0.26-0.15c0.04,0.01,0.08,0.13,0.08,0.19
		C71.63,26.26,71.56,26.35,71.4,26.34z"/>
	<path class="st0" d="M113.32,39.99c0.24-0.21,0.48-0.21,0.79,0.01C113.81,40.19,113.57,40.2,113.32,39.99z"/>
	<path class="st0" d="M122.44,242.28c-0.15-0.27-0.19-0.44,0.02-0.56c0.04-0.03,0.18,0.01,0.2,0.05
		C122.76,241.97,122.63,242.1,122.44,242.28z"/>
	<path class="st0" d="M66.51,75.46c-0.02-0.07-0.08-0.15-0.06-0.21c0.01-0.04,0.13-0.08,0.19-0.08c0.11,0.01,0.14,0.1,0.07,0.18
		C66.66,75.4,66.57,75.42,66.51,75.46z"/>
	<path class="st0" d="M131.3,67.23c0.07,0.02,0.17,0.02,0.19,0.06c0.07,0.15-0.07,0.17-0.16,0.18c-0.06,0-0.12-0.07-0.18-0.1
		C131.2,67.32,131.25,67.28,131.3,67.23z"/>
	<polygon class="st0" points="84.68,124.56 84.68,124.59 84.7,124.53 	"/>
	<polygon class="st0" points="115.19,116.76 115.16,116.67 115.2,116.73 	"/>
	<path class="st0" d="M93.34,128.88c-0.04-0.01-0.09-0.03-0.13-0.04c0.02,0,0.04-0.01,0.05,0c0.02,0.02,0.03,0.05,0.05,0.07
		L93.34,128.88z"/>
</g>
</svg>
