<?xml version="1.0" encoding="utf-8"?>
<!-- Generator: Adobe Illustrator 24.0.2, SVG Export Plug-In . SVG Version: 6.00 Build 0)  -->
<svg version="1.1" id="Layer_1" xmlns="http://www.w3.org/2000/svg" xmlns:xlink="http://www.w3.org/1999/xlink" x="0px" y="0px"
	 viewBox="0 0 1158.54 1589.26" style="enable-background:new 0 0 1158.54 1589.26;" xml:space="preserve">
<g>
	<path d="M629.09,14.15c5.78,0.28,8.71,5.04,11.26,8.01c5.49,6.39,11.07,12.75,16.48,19.23c6.82,8.16,10.28,18.38,15.1,27.76
		c2.1,4.09,4.48,7.97,5.1,12.62c0.39,2.95,1.78,3.46,4.49,2.27c9.72-4.26,19.64-3.87,29.78-1.38c6.25,1.53,10.12,6.71,15.74,9.17
		c11.81,5.15,18.86,15.93,27.95,24.3c7.55,6.95,16.27,11.83,26.51,13.6c5.14,0.89,6.44,3.75,3.91,8.28
		c-3.11,5.55-6.03,11.2-9.27,17.26c4.12,1.92,8.33,2.52,12.43,3.51c2.29,0.55,4.56,1.49,5.34,3.89c0.71,2.19-1.49,3.16-2.72,4.37
		c-4.29,4.23-5.7,10.2-9.17,14.91c-0.97,1.31-1.88,2.68-2.73,4.06c-2.11,3.41-3.2,6.92,0.51,9.91c4.33,3.49,6.77,8.48,10.29,12.61
		c2.08,2.44,3.17,5.82,1.62,8.68c7.65,16.73,19.1,30.97,28.81,46.09c-4.78,6.76-11.87,6.33-17.98,7.78
		c-2.24,0.53-3.06-0.07-3.15,2.96c-0.28,10.14-1.69,20.05-7.27,29.05c-2.16,3.49-2.71,7.82-2.27,12.31
		c0.42,4.32,1.22,8.95-1.13,13.16c-0.28,0.5-0.55,1.32-0.34,1.74c5.84,11.37,13.62,21.21,23.49,29.37
		c3.67,3.03,7.54,5.83,11.01,9.08c3.18,2.97-0.88,5.14-2.08,5.39c-7.33,1.52-13.91,5.12-21.16,7.03
		c-8.73,2.29-17.88,2.56-26.26,5.71c-4.4,1.65-7.32,2.51-10.45-2.01c-1.35-1.95-4.81-0.89-7.32-1.15
		c-6.13-0.63-12.3-0.95-19.76-2.86c0.49,15.12-5.85,28.78-6.39,44.36c-0.25-0.16,0.61,0.7,1.64,1.02
		c9.06,2.83,12.65,10.64,16.85,18.03c1.96,3.44,1.15,7.14,1.49,10.6c0.7,7.12,4.54,13.02,6.17,19.75
		c4.01,16.59,10.4,32.39,16.16,48.42c1.83,5.1,7.18,7.68,7.71,12.18c0.62,5.31,3.04,9.62,4.63,14.36
		c2.85,8.51,7.29,16.3,11.56,24.14c5.27,9.67,6.68,20.52,10.02,30.77c2.25,6.89,1.71,14.23,6.74,20.82
		c5.68,7.44,9,16.72,10.63,26.29c0.69,4.06,3.99,6.94,6.46,9.55c6.71,7.09,8.8,15.2,7.37,24.28c-0.99,6.3,3.98,9.48,6.09,14.12
		c0.59,1.31,2.52,2.01,4.19,3.26c4.32-10.3,8.95-20.35,10.8-31.4c0.93-5.55,4.43-10.03,6.27-15.24c1.86-5.27,2.21-10.87,4.54-16.04
		c1.04-2.31,1.84-4.38,4.2-4.77c2.24-0.38,4.54,0.85,5.75,2.76c4.84,7.71,11.91,13.81,15.94,22.02c1.13,2.29,3.1,3.1,4.56,2.87
		c1.24-0.19,2.81-1.67,3.71-3.66c4.5-9.94,7.31-20.45,11.03-30.64c3.55-9.7,7.56-19.24,10.89-29.02c3.03-8.89,4.09-18.3,7.93-27.08
		c5.38-12.31,9.62-25.11,14.54-37.62c3.22-8.19,8.36-15.71,11.01-23.91c2.29-7.08,7.64-11.52,10.76-17.67
		c1.26-2.49,0.41-5.98,3.81-7.76c1.05,1.17,2.17,2.43,3.51,3.92c5.3-7.39,10.78-14.38,14.54-22.86c-4.48-1-3.44-3.87-1.37-5.96
		c6.39-6.47,12.2-13.5,22.19-15.43c4.18-0.81,8.36-4.2,12.12-0.87c3.13,2.78,6.89,4.9,9.39,8.61c2.09,3.11,4.34,6.39,7.87,8.36
		c2.08,1.16,2.95,3.38,3.51,5.8c1.66,0.02,2.86-1.99,4.65,0.13c9.21,10.9,19.12,21.22,27.09,33.14
		c5.36,8.01,10.98,15.85,16.47,23.77c2.49,3.59,2.24,8.13,4.11,11.93c0.93,1.89,1.6,3.98,2.82,5.66c2.05,2.81,0.86,4.33-2.45,5.94
		c4.78,0.69,4.71,4.61,5.26,7.31c0.99,4.83,3.05,9.56,2.44,14.7c-0.19,1.58,0.54,2.55,2.38,3.31c3.08,1.27,4.27,4.76,3,7.31
		c-3.1,6.2,0.69,5.3,5.15,4.85c-3.18,11.86-0.91,23.43,1.68,34.69c1.86,8.11,2.87,16.43,5.29,24.34c0.94,3.08-1.65,5.13-0.73,7.88
		c5.61-1.72,9.18-5.81,12.78-9.72c3.47-3.77,7.95-5.17,12.67-5.73c4.68-0.56,7.66,1.73,7.67,6.71c0.01,2.71,0.54,4.98,1.99,7.38
		c3.2,5.29,0.62,10.85,0.03,16.29c-0.19,1.75-3.45-0.19-3.25,3.2c0.18,3.1,0.64,5.41,1.93,8.36c2.1,4.79,1.39,10.56-0.75,15.63
		c-1.72,4.08-1.26,8.23-0.37,12.17c0.81,3.6,0.01,5.6-3.5,6.76c0.43,1.49,2.98,2.29,1.91,4.02c-2.63,4.25-1.55,9.58-4.49,13.84
		c-1.53,2.22-2.65,5.55-2.25,8.12c1.24,7.97-4.71,13.33-6.41,20.13c-0.89,3.56-3.01,6.13-5.53,8.46c-1.47,1.37,0.26,1.62,0.47,2.43
		c0.72,2.75,0.18,4.96-3.41,4.83c1.79,4.2-1.17,13.83-5.04,15.79c3.08,4.11,2.17,6.89-2.9,8.1c3.1,6.73,2.67,7.61-4.41,9.26
		c0.72,4.08-3.16,11.23-7.29,12.65c2.55,1.41,0.82,2.98,0.15,4.1c-2.08,3.47-4.92,6.46-6.31,10.4c-0.32,0.91-1.84,2.21-2.55,2.07
		c-9.67-2.03-13.15,5.98-18.39,11.11c-0.35,0.35-0.67,0.73-0.99,1.09c1.46,6.02,7.3,6.47,11.43,7.6c6.77,1.85,12.71,4.97,18.67,8.3
		c3.49,1.95,4.34,5,2.52,8.29c-3.35,6.02-6.59,12.21-10.77,17.65c-10.48,13.66-22.99,25.19-37.04,35.3
		c-5.93,4.27-12.63,7.23-18.26,12.27c-4.48,4.02-11.52,5.66-17.51,7.91c-3.34,1.25-5.02,3.81-7.7,5.43
		c-9.45,5.72-19.02,11.21-28.94,16.02c-5.41,2.63-8.84,8.12-15.2,9.34c-6.63,1.27-12.53,4.49-18.63,7.5
		c-12.35,6.08-25.68,8.53-39.76,7.86c-4.6-0.22-9.35-0.65-14.04-0.53c-3.31,0.08-8.28-1.13-9.62,0.54
		c-3.81,4.77-10.08,7.46-11.82,14.07c-1.21,4.59-3.49,8.46-9.35,8.52c-2.23,0.02-3.17,2.73-4.23,4.35
		c-4.67,7.15-10.45,13.07-17.68,17.61c-1.25,0.79-1.95,2.19-2.89,3.28c-2.7,3.12-5.97,4.76-10.25,6.18
		c-6.15,2.04-13.7,4.24-16.66,11.77c-0.46,1.17-1.47,2.12-2.03,2.9c-2.26-0.92-0.23-1.69-1.79-2.7c-1.32,3.27-5.79,2.06-7.79,6.05
		c-2.29,4.58-8.09,4.2-11.03-0.13c-2.04-3.01-3.57-6.21-3.23-10.03c0.11-1.27,0.13-2.54-0.72-3.8c-3.84-5.68-2.97-11.64-0.75-17.62
		c0.17-0.46,0.54-1,0.43-1.38c-3.37-11.77,3.19-22.75,2.61-34.32c-3.17-0.49-4.94,2.33-6.9,3.84c-6.42,4.96-14.45,7.93-18.95,15.38
		c-1.88,3.12-5.82,2.3-7.3-1.98c-2.64-7.66-8.81-14.4-6.2-23.67c0.39-1.39,0.34-5.64-3.83-6.14c-1.89-0.23-2.74-2.41-3.57-4.23
		c-1.39-3.07-3.58-5.49-6.7-6.97c-4.31-2.04-6.69-5.33-6.05-10.24c0.36-2.72-1.87-5.76-0.83-7.65c3.39-6.19-3.69-8.88-3.9-13.72
		c-0.03-0.67-1.2-1.07-2.67-0.68c-2.37,5.11-4.43,10.71-9.71,14.73c-4.24,3.23-1.7,9.34-2.73,14.1c-6.62,30.74-13,61.54-18.82,92.44
		c-2.07,10.98-5.45,21.64-6.74,32.87c-1.05,9.18-5.65,17.89-7.72,27.02c-2.89,12.74-9.72,24.58-8.88,38.15
		c0.48,7.83-2.98,15.02-3.23,22.84c-0.32,10.02,4.9,17.06,10.42,24.19c2.93,3.77,6.73,6.74,10.8,9.17c2.76,1.64,4.36,3.82,3.76,6.76
		c-1.67,8.21,0.45,16.65-1.76,24.79c-0.09,0.32-0.02,0.72-0.19,0.97c-6.91,9.78-2.04,19.28,0.8,28.75
		c1.74,5.81,5.25,10.8,8.34,15.99c4.63,7.76,6.3,16.67,8.8,25.18c2.01,6.83,4.12,13.64,6.58,20.29c3.94,10.68,6,21.88,9.57,32.66
		c0.88,2.64-0.87,5.13-0.94,7.77c-0.17,6.14,1.34,12.04,2.59,17.95c0.64,3.01,1.39,6.62,0.18,8.79c-2.96,5.33-0.28,10.06,0.14,15.01
		c1.68,19.78,4.08,39.44-3.66,58.82c-3.35,8.38-4.49,17.6-10.9,24.68c-2.56,2.83-4.97,5.58-9.12,5.76
		c-0.33,0.01-0.93-0.05-0.96,0.05c-1.27,4.12-3.86,6.66-7.58,9.13c-2.26,1.5-1.27,3.27-4.76,2.18c-2.85-0.89-4.91-0.09-5.27,2.63
		c-0.59,4.48-1.18,8.87-0.07,13.63c1.58,6.76,3.66,13.43,0.93,20.98c-4.48,12.39-13.63,17.26-25.32,20.65
		c-10.58,3.07-21.52,4.68-32.15,6.03c-8.64,1.09-17.94,4.38-27.01,0.82c-2.17-0.85-4.73,1.74-6.14,0.73
		c-4.53-3.24-9.47,0.02-14.11-1.71c-6.95-2.6-13.76,1.2-20.72,1.46c-7.95,0.3-15.91,0.78-23.67-0.96c-3.38-0.76-5.59-3.73-6.38-7.5
		c-3.36-16.11-3.86-32,4.54-46.84c1.53-2.71-1.33-5.73,1.45-7.65c6.68-4.62,11.72-11.36,19.41-14.7c2.41-1.05,3.04-3.65,2.61-6.13
		c-1.82-10.54,0.8-20.83,2.29-31.07c0.69-4.75-0.35-9.63,0.97-13.93c1.59-5.17-0.32-10.07,0.58-15.11
		c0.75-4.23-0.47-8.38-2.06-12.76c-6.45-17.81-13.17-35.59-14.89-54.78c-0.91-10.14-0.62-20.89-4.75-30.13
		c-3.08-6.89-2.64-14.47-6.92-21.38c-2.74-4.41-4.2-11.91-3.98-18.63c0.1-3.14-2.04-6.58-2.84-10.04
		c-2.11-9.04-4.03-18.01-5.1-27.32c-0.79-6.84-3.31-14.24-7.27-20.5c-4.75-7.51-3.08-15.71-2.56-23.66
		c0.3-4.56,0.54-8.59-1.97-12.75c-2.16-3.58-3.64-7.66-4.87-11.69c-2.2-7.2-7.35-13-9.3-20.27c-0.93-3.46-4.73-4.02-6.51-7.04
		c-3.15-5.34-1.9-11.73-5.61-16.93c-6.12-8.56-6.18-19.37-9.39-29.03c-2.29-6.89-6.95-13.19-8.22-20.18
		c-2.61-14.39-7.92-28.02-10.41-42.45c-1.25-7.24-6.54-13.59-7.31-21.41c-0.85-8.72-3.91-16.93-6.59-25.21
		c-0.25-0.76-0.42-1.72-0.2-2.45c4.43-14.46-3.57-28.01-3.07-42.18c0.08-2.15-1.51-2.4-3.18-3.01c-3.81-1.39-6.74-3.86-5.75-8.5
		c1.1-5.13-2.78-9.37-2.12-14.5c0.98-7.66,1.3-15.4,2.15-23.08c0.42-3.79,0.03-7.45-1.2-10.94c-2.97-8.42-4.73-16.88-1.93-25.7
		c0.86-2.71-2.11-3.95-2.26-7.25c-0.54,1.91-0.81,2.89-1.09,3.86c-2.14-0.81-2.03-2.96-2.24-4.25c-1.16-7.07-8.49-9.24-11.31-14.88
		c-9.02,2.47-7.53-4.92-9.06-9.56c-0.46-1.39-0.71-2.56-0.61-4.14c0.16-2.6-0.74-5.28-4.65-4.51c-0.82,0.16-2.21-0.65-2.77-1.42
		c-6.39-8.76-12.77-17.51-19.73-25.86c-3.75-4.5-9.26-7.49-11.48-13.4c-0.51-1.35-2.64-0.8-4,0.02c-4.85,2.96-9.56,0.48-14.18-0.63
		c-3.24-0.78-4.27-3.64-4.58-6.88c-0.71-7.49-1.5-14.98-2.53-22.43c-0.93-6.73-3.84-7.89-10.46-8.02
		c-7.25-0.14-13.8,3.62-21.14,2.47c-6.27-0.98-12.56-2.82-19.35-1.31c3.94,8.5,1.89,17.85,4.3,26.73
		c4.21,15.54,7.13,31.43,10.61,47.17c6.54,29.57,13.05,59.15,19.65,88.7c4.58,20.5,9.35,40.95,13.94,61.44
		c6.05,27.01,12.06,54.03,18,81.06c4.08,18.6,7.44,37.39,12.14,55.83c8.36,32.81,15.08,65.99,22.62,98.98
		c7.44,32.52,14.54,65.13,21.95,97.66c9.04,39.69,17.53,79.5,26.37,119.23c5.09,22.88,10.39,45.71,15.62,68.56
		c1.13,4.95-1.34,9.28-2.33,13.85c-1.75,8.06-6.37,14.97-9.29,22.57c-0.41,1.06-1,2.15-1.01,3.23c-0.04,7.07-6.26,8.52-11.28,4.04
		c-6.17-5.52-12.94-10.97-13.9-20.24c-0.05-0.44-0.48-0.85-0.76-1.26c-10.05-14.25-11.09-31.4-15.01-47.55
		c-7.63-31.48-14.93-63.04-21.9-94.67c-7.43-33.7-15.32-67.3-22.95-100.96c-9.32-41.12-18.75-82.22-28.04-123.34
		c-6.28-27.79-12.44-55.6-18.91-83.35c-4.47-19.18-8.9-38.38-13.21-57.6c-6.17-27.55-11.73-55.22-18.46-82.67
		c-3.32-13.51-5.62-27.49-9.14-40.96c-2.28-8.73-4.06-17.65-6.04-26.38c-5.01-22.05-10.97-43.89-15.49-66.06
		c-3.74-18.36-7.95-36.63-11.83-54.97c-0.43-2.05-0.06-4.27-0.06-7.89c-7.18,4.09-15.54,2.43-20.58,9.76
		c-1.89,2.75-5.99,3.71-8.95,3.9c-4.34,0.28-8.33,1.58-12.48,2.32c-0.64,0.11-1.65,0.06-1.86,0.44c-4.3,7.66-12.61,1.87-18.25,6.78
		c0.15-5.69-3.26-6.87-7.08-8.32c2.48-2.26,2.17-4.44,1.28-7.13c-2.12-6.47,1.6-13.25,8.13-15.39c2.19-0.72,4.5-1.25,5.58-3.37
		c3.11-6.08,10.08-3.82,14.59-7.01c4.83-3.42,10.45-5.3,16.39-6c3.13-0.37,6.27-0.66,9.41-0.97c1.89-0.18,4.51,0.53,4.62-2.39
		c0.09-2.39,1.45-5.44-2.22-6.82c-1.69-0.64-2.16-2.46-2.59-4c-3.08-11.05-5.81-22.2-9.16-33.17c-2.33-7.63-4.91-15.11-6.24-23.05
		c-1.04-6.19-1.04-12.25,0.5-18.09c2.04-7.69-0.03-15.1-0.31-22.62c-0.32-8.43-0.52-16.93-1.85-25.23
		c-1.6-10.07,0.39-19.86,1.3-29.98c-4.76-1.56-8.97-3.37-12.68-6.42c-11.18-9.2-10.36-29.18,1.73-36.95
		c0.41-0.26,0.9-0.49,1.38-0.54c9.46-0.85,18.87-3.29,28.41-1.56c3.7,0.67,12.58,10.16,11.68,12.51c-2.32,6.03,0.62,12.5-2.32,18.42
		c-4.87,9.79,0.51,17.15,6.32,24.28c0.41,0.5,0.97,1.01,1.09,1.59c1.98,10.16,8.55,18.81,9.72,29.21c0.35,3.07,3.22,4.03,4.46,6.47
		c7.22,14.11,13.29,28.6,16.92,44.07c2.36,10.08,4.62,20.19,8.57,29.86c5.17-3.25,10.46-6.41,17.29-5.86
		c1.91,0.15,4.2-1.76,5.98-3.16c6.77-5.33,14.17-5.86,22.55-4.96c4.68,0.51,9.72-2.33,14.59-3.68c1.14-0.31,0.49-0.83,0.12-1.34
		c-1.78-2.51,0.95-4.02,1.95-4.45c7.19-3.15,14.48-6.59,22.46-2.05c1.93,1.1,3.63,2.07,3.82,4.62c0.34,4.59,4.41,8.12,3.63,13.06
		c6.22-1.59,12.07-0.79,16.85,3.01c6.75,5.36,13.21,10.98,20.56,15.63c4.03,2.55,6.6,7.38,10.53,10.66
		c0.58-3.41,4.85-6.05,0.31-9.16c-1.37-0.94,0.62-3.68,0.67-5.59c0.35-11.7-1.12-23.21-3.46-34.68c-0.69-3.36-1.93-6.58-2.39-9.93
		c-1.12-8.22-1-8.24-9.26-7.91c2.12-5.54-0.33-11.69,2.47-16.62c2.06-3.64,1.24-6.52,0.45-9.73c-2.06-8.34-5.59-16.54-6.15-24.96
		c-0.69-10.42-4.09-20.37-1.25-31.64c2.94-11.65,4.18-24.09,5.68-36.26c0.5-4.04,1.74-7.85,5.22-10.17
		c3.08-2.05,2.35-4.27,0.48-6.04c-8.36-7.9-8.69-12.58-5.04-24.06c3.05-9.59,9.74-16.55,17.47-19.92
		c6.06-2.64,6.29-8.36,10.82-10.92c5.1-2.88,6.43-8.12,8.49-13.13c2.47-6,8.06-8.86,14.16-10.27c3.94-0.92,7.22-2.48,10.26-5.29
		c5.15-4.76,12.4-4.46,18.59-6.78c7.07-2.65,14.19-2.11,21.49-1.15c3.49,0.46,7.18-0.52,10.77-0.92c1.57-0.18,2.24-1.25,2.26-2.78
		c0.01-1-0.12-2.03,0.08-2.99c1.59-7.52,1.27-8.05-6.34-9.1c-1.64-0.23-3.33-0.07-4.99-0.06c-13.07,0.11-26.12-0.43-39.11-1.99
		c-7.34-0.88-14.38,1.17-21.46,2.49c-1.95,0.36-3.91,0.72-6.14,0.84c0.36,2.06,2.37,4.33-1.19,5.6c-4.24-3.04-5.12-7.94-6.21-12.7
		c-5.33,0.81-6.69-2.45-6.56-6.62c0.31-9.76-1-19.4,2.38-29.3c1.78-5.2-0.27-12.08,2.52-17.88c0.19-0.4,0.19-1.28-0.05-1.44
		c-5.48-3.68-5.3-10.92-9.67-15.31c-1.6-1.61-3.6-2.72-5.14-1.03c-1.68,1.84-5,0.59-5,0.59l-17.24-1.81c0,0-3.04-3.1-2.67-4.52
		c2.5-9.67-3.24-20.49,4-29.4c2.13-2.63,0.68-8.61,7.09-7.55c0.97,0.16,0.42-2.04,0.09-3.37c-1.2-4.75-3.7-8.96-4.55-13.96
		c-1.64-9.67,0.07-11.72,9.87-9.09c-3.35-11.59-4.1-23.38-4.86-35.25c-0.78-12.23,0.99-24.05,3.3-35.88
		c0.5-2.56,2.27-4.72,5.91-3.99c-0.41-13.24,4.31-25.59,7.21-38.34c2.27-9.95,7.22-18.74,10.23-28.28c1.9-6,2.68-12.4,3.4-18.69
		c0.34-3,1.4-5.68,2.07-8.53c2.94-12.46,4.75-25.16,8.66-37.44c1.32-4.16,1.32-9,2.42-13.44c0.64-2.58,1.48-5.24,4.67-5.65
		c3.68-0.47,2.65,2.85,3.68,4.65c3.23,5.59,6.83,11.45,11.24,15.63c6.1,5.79,9.99,13.56,17.17,18.21c3.93,2.55,8.23,4.83,8.31,10.47
		c0,0.33,0.54,0.77,0.93,0.96c5.55,2.65,9.08,7.26,11.74,12.54c0.73,1.44,1.86,2.11,2.88,1.9c0.79-0.16,1.55-1.61,1.9-2.63
		c2.74-7.95,5.25-15.97,8.08-23.89c1.85-5.17,7.54-6.92,11.36-7.22c3.69-0.29,7.95,3.49,11.1,7.18c4.55,5.33,7.81,11.39,11.38,17.27
		c1.33,2.19,2.57,2.62,4.08,0.73c4.47-5.59,9.65-10.87,9.44-18.82c-0.01-0.33-0.08-0.9,0.06-0.96c6.59-2.92,3.73-12.46,11.01-15.3
		c3.16-1.23,2.68-5.84,3.4-8.95c0.67-2.9,8.74-15.03,11.57-15.65c0.37-0.08,0.93,0.75,1.97,1.64c-1.88-4.51,2.78-4.15,3.8-6.38
		c2.56-5.59,7.22-8.64,12.42-11.31c1.34-0.69,2.33-1.43,3.38-0.15c3.07,3.77,6.05,7.62,8.96,11.51
		C629.89,12.5,629.34,13.37,629.09,14.15z M752.65,844.39c1.27-0.33,1.06-1.87,1.49-3.29c1.67-5.41-1.09-10.86,0.1-16.04
		c1.07-4.64-0.31-8.59-1.06-12.89c-1.44-8.28-6.38-16.3-2.2-25.12c0.5-1.06-0.14-1.99-1.45-2.66c-9.78-4.98-12.67-13.44-12.64-23.89
		c0.02-5.19,0.84-10.83-2.74-15.58c-2.06-2.73-3.13-5.62-2.25-9.39c0.71-3.06,0.71-6.42-2.31-9.11c-1.84-1.64-2.17-4.29-0.56-6.78
		c2-3.08,1.2-6.03-1.1-8.55c-7.2-7.87-13.71-16.19-18.99-25.54c-5.25-9.29-11.21-18.17-17.21-27.78c-1.71,5.04,0.46,8.96,0.33,12.99
		c-0.6,19.33,3.42,38.14,7.2,56.87c2.49,12.36,6.43,24.43,11.06,36.3c2.1,5.38,6.44,8.75,8.51,13.9c2.57,6.39,6.38,12.26,8.71,18.81
		c1.27,3.57,5.21,7.44,4.9,9.81c-0.66,5.01,2.45,7.52,4.1,10.96c0.83,1.73,1.8,3.41,2.66,5.15
		C742.97,830.16,742.87,840.08,752.65,844.39z"/>
</g>
</svg>
