<?xml version="1.0" encoding="utf-8"?>
<!-- Generator: Adobe Illustrator 24.0.2, SVG Export Plug-In . SVG Version: 6.00 Build 0)  -->
<svg version="1.1" id="Layer_1" xmlns="http://www.w3.org/2000/svg" xmlns:xlink="http://www.w3.org/1999/xlink" x="0px" y="0px"
	 viewBox="0 0 993.46 2450.77" style="enable-background:new 0 0 993.46 2450.77;" xml:space="preserve">
<style type="text/css">
	.st0{fill:#1A1A1A;}
</style>
<g>
	<path d="M882.61,2269.3c-5.85-4.02-7.95-9.97-11.76-14.02c-3.39,0.16-3.63,2.24-3.21,4.22c3.11,14.5-3.13,26.45-12.26,36.15
		c-6.25,6.63-15.82,9.78-25.58,9.08c-6.61-0.47-13.21-1.48-19.74-2.65c-4.55-0.81-8.97-2.14-12.9-4.97
		c-5.77-4.16-12.08-6.46-19.4-4.34c-2.93,0.85-6.01,0.53-8.85-0.58c-4.31-1.69-8.18-1.19-12.3,0.93
		c-12.31,6.33-25.28,7.66-38.75,4.42c-1.59-0.38-3.31-0.35-4.97-0.37c-19.58-0.25-39.16-0.4-58.74-0.78
		c-4.95-0.1-9.95-0.6-14.81-1.52c-3.36-0.64-4.82-4.76-8.7-5.36c-3.52-0.55-6.96-1.77-9.83-4.41c-6.36-5.84-14.56-8.14-22.66-9.55
		c-6.4-1.12-12.61,2.37-17.4,6.24c-9.44,7.63-20.72,10.08-31.84,13.08c-10.71,2.89-21.7,2.81-32.71,1.73
		c-3.62-0.36-7.32-0.07-10.98,0.07c-1.77,0.07-3.18,1.02-3.61,2.87c-0.42,1.79,0.17,3.41,1.79,4.26c4.54,2.38,7.64,6.37,11.29,9.75
		c10.21,9.45,17.31,21.02,23.02,33.54c2.5,5.49,3.96,11.18,4.14,17.33c0.22,7.57,1.83,15.02-0.57,22.66
		c-1.92,6.14-4.09,12-8.46,16.73c-2.53,2.73-4.85,5.54-6.11,9.03c-2.09,5.76-4.78,10.95-10.77,13.59c-2.02,0.89-2.54,2.96-3.62,4.61
		c-2.72,4.19-5.61,8.23-9.55,11.43c-3.12,2.54-6.66,3.68-10.44,5.06c-15.38,5.62-30.13,3.19-44.93-1.59
		c-7.33-2.37-14.69-4-22.51-3.54c-7.14,0.42-12.38-4.33-18.09-7.61c-2.27-1.3-4.22-3.18-6.49-4.92c-5.8,3.71-12.22,4.69-18.93,4.63
		c-6.35-0.05-11.74-2-15.58-7.24c-2.43-3.31-5.07-4.82-9.34-3c-3.73,1.59-7.89,1.1-11.86,0.6c-4.78-0.6-8.77-2.54-11.75-6.68
		c-3.49-4.87-7.39-9.38-8.72-15.51c-0.47-2.17-1.83-4.22-3.09-6.12c-7.94-12.01-6.88-24.58,0.35-35.72
		c6.31-9.73,8.28-20.96,13.58-30.9c0.87-1.63,0.85-3.91,0.71-5.85c-0.75-10.45,1.4-20.27,5.2-30.01c1.89-4.86,4.98-8.51,8.17-12.31
		c5.08-6.05,11.04-11.32,13.99-19.13c1.56-4.14,6.45-6.59,7.29-11.63c0.38-2.27,1.84-4.6,0.8-6.78c-2.65-5.56-0.13-11.13-0.48-16.67
		c-0.17-2.69,0.96-5.16,2.32-7.52c9.23-15.95,15.94-32.94,19.2-51.06c2.22-12.35,3.46-24.88,4.9-37.36
		c1.72-14.86,1.84-29.86,3.01-44.74c1.19-15.16-2.01-29.65-3.61-44.4c-0.25-2.31-1.03-4.63-0.9-6.9c1.21-20.61-3.24-40.3-9.35-59.76
		c-3.09-9.83-5.61-19.85-8.96-29.59c-1.55-4.52-0.02-8.98-1.49-13.59c-3.36-10.47-7.05-20.78-11.08-30.99
		c-2.68-6.79-4.83-13.59-5.94-20.98c-1.53-10.13-5.16-19.93-7.72-29.92c-5.03-19.66-7.98-39.73-10.94-59.76
		c-1.1-7.42-0.93-15.23,0.6-22.87c0.84-4.19,0.58-8.61,0.8-12.93c0.55-10.61,1.13-21.22,1.65-31.83
		c0.75-15.35,3.78-30.32,7.81-45.09c2.91-10.64,5.4-21.28,4.88-32.41c-0.08-1.66-0.11-3.38,0.24-4.98
		c2.45-11.36,4.42-22.86,7.69-33.98c2.76-9.41,3.47-18.9,4.01-28.51c0.13-2.32,0.33-4.74-0.13-6.98
		c-2.46-11.82-2.43-23.79-2.51-35.76c-0.01-1.98,0.14-4.03-1.43-5.63c-1.94-1.7-3.73-0.21-5.57,0.26
		c-11.43,2.97-22.99,2.99-34.63,1.53c-5.27-0.66-10.58-1.02-15.85-1.7c-30.61-3.95-59.19-14.56-87.62-26.04
		c-26.59-10.74-49.39-27.36-72.3-43.91c-8.89-6.42-17.7-13.08-25.74-20.51c-9.3-8.6-16.63-18.94-22.93-30.03
		c-12.69-22.34-19.29-46.61-23.12-71.73c-1.3-8.51-1.05-17.24-2.15-25.78c-2.26-17.59,1.5-34.91,1.92-52.37
		c0.34-13.98,2.24-27.79,5.62-41.39c2.42-9.74,5.7-19.1,11.38-27.5c1.85-2.74,3.64-5.64,4.8-8.72c2.78-7.37,7.5-13.32,13.04-18.66
		c11-10.61,21.17-22.11,33.26-31.56c2.86-2.23,4-5.03,4.08-8.64c0.24-11.25,0.14-22.49-0.07-33.73c-0.06-3.4-1.26-6.48-2.4-9.63
		c-2.04-5.61-3.88-11.28-6-17.53c11.27-15.41,16.46-33.88,24.93-50.8c9.82-19.62,18.76-39.68,28.49-59.34
		c4.83-9.76,5.97-20.36,8.42-30.67c2.91-12.27,5.1-24.72,8.13-36.96c1.42-5.74,4.05-11.18,6.19-16.74c1.9-4.96,4.03-9.84,5.78-14.86
		c2.85-8.19,6.1-16.13,10.88-23.46c6.35-9.74,10.18-20.94,17.23-30.32c3.6-4.79,6.64-10.02,10.47-14.6
		c11.19-13.36,19.42-28.63,28.43-43.39c2.73-4.48,4.29-9.71,6.08-14.71c1.25-3.5,1.3-7.32,0.28-10.85
		c-4.49-15.49-5.47-31.36-5.55-47.35c0-0.67,0.12-1.36-0.03-1.99c-3.44-14.17-3.96-29.02-9.99-42.59c-0.94-2.13-1.91-4.26-2.66-6.46
		c-7.03-20.79-16.73-40.6-22.85-61.69c-4.53-15.62-8.84-31.32-11.69-47.38c-2.67-15.02,1-29.11,6.28-42.86
		c2.85-7.43,6.78-14.45,10.19-21.67c2.14-4.55,4.71-8.81,8.16-12.49c10.22-10.92,20.21-22.09,33.07-30.1
		c12.09-7.52,25.65-10.78,39.35-13.71c13.91-2.97,27.8-2.16,41.55,0.44c5.23,0.99,9.79,0.64,14.5-1.4
		c3.34-1.45,6.79-2.64,10.66-4.12c3.15-8.49,5-17.49,5.44-26.76c0.97-20.62,1.22-41.28-0.16-61.87c-0.73-10.88-2-21.75-4.81-32.46
		c-3.97-15.11-6.91-30.57-12.55-45.11c-4.85-12.48-7.69-25.32-10.64-38.24c-1.41-6.15-3.36-12.17-4.93-18.28
		c-0.97-3.78-3.28-5.55-7.71-5.51c-2.5,7.22,1.31,14.14,1.24,21.18c-0.08,7.29,3.02,14.26,2.44,21.53
		c-6.1,2.12-8.95,1.26-10.03-3.59c-1.8-8.1-3.26-16.29-4.59-24.49c-0.9-5.54-1.36-11.16-1.97-16.38c-2.29-2.76-5.21-3.76-7.91-4.9
		c-12.07-5.09-21.38-13.37-28.12-24.45c-5.52-9.08-11.04-18.16-12.62-29.07c-1.07-7.42,1.51-13.88,4.97-19.74
		c2.33-3.96,7.19-5.58,12.26-5.42c14.92,0.47,29.86,0.05,44.52,3.93c6.79,1.8,13.86,1.03,21.18-0.58c2.24-3.83,5.27-7.58,6.78-11.86
		c3.16-8.96,10.59-12.32,18.35-15.44c2.43-0.98,5.16-1.22,7.72-1.9c2.24-0.6,5.09-0.69,6.55-2.14c4.96-4.9,11.18-5.28,17.79-5.51
		c4.94-9.12,14.78-13.09,20.65-20.97c8.1-0.76,12.66,5.58,18.72,8.46c4.21-1.5,7.73-3.94,11.24-7.12c5.49,1.08,9.57,5.5,14.54,7.31
		c4.15-0.27,7.22-2.47,10.47-4.03c10.9-5.23,21.28-4.08,31.28,2.18c1.74,1.09,3.06,1.95,5.38,1.49c9.94-1.96,18.83,1.46,25.1,8.6
		c4.17,4.74,8.38,5.78,14.49,5.82c11.46-10.88,25.64-19.08,38.14-29.57c9.75-8.18,8.75-8.81,24.6-5.69
		c4.89,5.35,8.35,11.4,8.16,19.07c-0.03,0.99-0.1,2.08,0.25,2.97c4.1,10.58,0.06,20.23-3.45,29.88c-1.13,3.11-2.72,6.04-3.18,9.85
		c4.95,7.52,9.53,15.6,13.62,23.95c1.48,3.02,2.59,6.1,2.83,9.5c0.23,3.29-0.7,6.1-3.71,7.56c-2.88,1.4-5.28-0.35-6.98-2.45
		c-5.01-6.21-9.83-12.57-14.71-18.89c-0.98-1.27-1.28-3.13-3.62-3.77c-9.14,7.06-2.77,15.3-1.27,23.52
		c-1.4,2.31-2.76,4.99-4.54,7.36c-2.11,2.82-2.4,5.62-2.32,9.18c0.16,6.91-0.54,13.93-1.77,20.74c-1.02,5.65-1.19,11.26-0.99,16.88
		c0.55,15.67-1.66,31.19-2.34,46.8c-0.61,13.99,0.86,27.88,1.16,41.8c0.34,15.41,3.1,30.4,5.08,45.52
		c1.76,13.47,2.93,27.09,7.19,40.16c1.43,4.38,2.83,8.85,2.52,13.64c-0.35,5.48,3.78,8.91,5.58,13.5
		c11.33-0.85,21.75-2.54,31.95-5.48c6.38-1.84,12.7-3.52,19.49-2.41c2.2,0.36,4.61-0.27,6.88-0.7c17.54-3.36,33.73,1.04,49.06,9.06
		c7.54,3.95,12.16,11.29,16.68,18.18c5.46,8.34,8.87,17.54,11.45,27.4c3.1,11.86,5.06,23.99,8.58,35.71
		c2.86,9.53,6.2,18.94,9.84,28.2c3.05,7.73,4.41,15.62,4.07,23.52c0.83,0.8,1.22,1.47,1.78,1.69c23.38,9.08,44.18,23.07,66.13,34.86
		c3.49,1.87,6.84,3.88,10.82,4.99c7.32,2.05,14.31,4.75,20.77,9.32c5.32,3.76,11.93,5.76,17.16,10c4.66,3.78,9.16,7.68,12.78,12.56
		c2.17,2.93,4.47,5.9,7.27,8.18c7.06,5.73,9.78,13.3,9.88,21.95c0.07,5.99,0.78,11.9,1.21,17.84c0.89,12.48-1.9,24.54-7.72,35.62
		c-4.22,8.04-7.53,16.05-8.33,25.31c-0.99,11.5-5.71,21.98-13.13,30.78c-3.95,4.68-6.78,9.73-9.24,15.16
		c0.57,2.25,0.63,4.79,2.42,6.46c4.59,4.28,6.36,10.02,8.6,15.57c1.74,4.3,3.81,8.47,5.75,12.69c2.37,5.14,4.6,10.28,4.7,16.13
		c0.03,1.91,0.93,3.81,1.64,6.52c-1.73,2.83-3.32,6.61-5.92,9.49c-7.52,8.34-11.35,18.72-16.51,28.37c-1.08,2.03-1.94,4.3-2.34,6.55
		c-2.35,13.05-10.22,23.57-15.95,35.06c-0.73,1.46-1.78,2.86-2.98,3.98c-7.78,7.26-15.61,14.47-23.47,21.64
		c-5.21,4.75-11.09,8.62-17.55,11.32c-16.15,6.74-27.46,18.27-35.08,33.81c-3.21,6.55-6.74,12.94-10.04,19.26
		c0.08,0.84-0.08,1.64,0.24,2.1c8.08,11.7,7.62,24.11,1.41,35.96c-4.79,9.14-5.1,17.58-0.97,26.62c6.85-2.31,6.85-2.31,10.92-7.53
		c5.03,2.14,8.41,5.67,10.31,11.01c3.11,8.75,3.88,18.12,7.72,26.73c1.79,4.02,0.13,8.89-3.41,11.83
		c-7.56,6.27-10.46,15.18-14.32,23.58c-0.54,1.18-1.13,2.2-0.94,3.71c0.91,7.3-3.83,12.4-7.38,17.92c-1.53,2.39-3.9,3.58-6.76,3.61
		c-2.68,0.03-5.39,1.18-7.81,1.01c-3.74-0.26-6.34,0.47-8.53,3.43c-0.77,1.03-2.05,2.4-3.1,2.39c-6.93-0.04-9.78,6.17-15.22,9.22
		c0.75,6.92,1.26,13.83,2.28,20.66c2.59,17.41,4.3,34.9,5.89,52.43c1.55,16.99,1.56,33.96,0.82,50.86
		c-0.89,20.21-3.97,40.28-8.13,60.15c-9.57,45.7-26.19,88.58-50.64,128.4c-1.22,1.98-2.33,4.03-3.39,6.1
		c-0.27,0.52-0.12,1.25-0.16,1.91c0.64,1.58,2.15,1.44,3.37,1.39c20.75-0.96,40.08,5.58,59.36,11.74
		c14.56,4.65,28.83,10.31,42.63,16.94c28.63,13.77,55.17,30.55,78.32,52.69c11.58,11.06,22.2,22.93,32.94,34.7
		c13.63,14.94,21.07,33.71,29.83,51.63c8.61,17.59,13.08,36.22,14.49,55.61c1.44,19.89,2.83,39.82,1.54,59.75
		c-1.22,18.89-3.33,37.65-9.18,55.87c-6.57,20.45-18.8,37.38-32.2,53.56c-7.82,9.44-15.57,19.04-25.44,26.66
		c-11.37,8.78-23.16,16.72-36.43,22.44c-7.01,3.03-13.81,6.59-20.55,10.21c-15.55,8.35-32.29,11.94-49.73,12.86
		c-3.32,0.18-6.59,0.59-9.88,0.97c-15.97,1.84-31.87,2.12-47.07-4.54c-2.13-0.93-4.35-2-6.6-2.22c-5.86-0.56-9.92-4.21-13.2-8.23
		c-7.62-9.31-13.89-19.53-17.38-31.21c-0.57-1.9-1.68-4.01-1.3-5.75c1.76-8.11,0.59-16.55,3.52-24.57
		c2.25-6.15,5.13-11.74,10.36-15.53c8.61-6.23,17.48-12.11,26.45-17.79c8.55-5.42,18.37-7.44,28.07-9.87
		c18.37-4.59,36.62-9.69,53.99-17.43c5.48-2.44,10.75-5.17,15.57-8.88c5.43-4.18,9.4-9.19,11.91-15.61
		c7.45-19.05,12.98-38.48,11.16-59.19c-1.55-17.53-3.33-35.06-9.53-51.75c-2.2-5.94-4.55-11.75-8.14-17.07
		c-5.21-7.73-10.23-15.59-15.14-23.51c-5.43-8.75-13.32-14.63-21.99-19.73c-23.97-14.1-49.38-25.09-76.44-31.05
		c-21-4.62-42.17-9.42-63.94-9.74c-4.92-0.07-9.82-1.24-14.8-1.92c-3.28,3.01-5.04,6.45-5.71,10.49c-1.2,7.2-2.38,14.4-3.51,21.62
		c-0.75,4.77,0.76,9.33,2.04,13.73c2.3,7.92,0.84,15.24-2.65,22.2c-2.16,4.31-2.88,9.59-7.77,12.39c-2.33,1.33-1.87,4.21-1.57,6.44
		c0.91,6.89,0.07,13.8,0.69,20.76c0.88,9.91-2.44,19.73-5.72,29.1c-2.25,6.44-3.35,12.78-3.09,19.51
		c0.82,21.07-1.17,41.99-6.49,62.3c-6.47,24.74-13.37,49.38-24.77,72.58c-6.88,13.99-12.48,28.67-17.71,43.38
		c-2.64,7.42-3.3,15.56-4.69,23.4c-3.19,17.99-6.19,36.01-9.49,53.97c-0.61,3.32-0.81,6.59-0.82,9.91
		c-0.02,7.33-0.42,14.6-1.71,21.84c-0.75,4.23-0.94,8.62-0.91,12.93c0.13,18.65-0.87,37.33,0.7,55.94
		c0.64,7.58,1.89,15.17,3.61,22.58c1.36,5.88,5.84,10.34,8.94,15.43c2.97,4.86,7.11,8.39,11.5,12.08
		c18.32,15.37,37.19,30.23,52.83,48.54c4.1,4.8,7.11,10.77,11.86,14.71c8.62,7.12,14.24,16.58,21.47,24.75
		c6.52,7.35,13.88,12.29,24.02,14.5c18.81,4.1,37.5,9.4,54.79,18.15c7.05,3.57,13.71,3.94,19.86,0.33c6.44-3.78,13.64-2,20.09-4.64
		c2.26-0.93,4.54,0.93,6.2,2.53c5.26,5.07,10.55,10.13,15.48,15.51c5.63,6.15,11.63,9.03,20.28,6.22
		c10.31-3.34,21.01,1.01,26.75,10.2C884.22,2251.45,887.35,2259.4,882.61,2269.3z M334.98,1437.58c0.97-2.92-0.44-4.16-1.22-5.54
		c-4.07-7.25-8.27-14.42-12.32-21.68c-11.5-20.61-21.38-42.08-33.66-62.31c-4.62-7.6-10.19-11.84-18.37-13.36
		c-2.76-0.51-4.88-1.72-7.05-3.36c-8.08-6.12-14.65-13.39-18.44-22.94c-3.11-7.84-8.58-14.21-13.56-20.81
		c-2.95-3.91-6.78-6.81-11.77-8.76c-8.94-3.49-17.39-8.25-25.98-12.61c-8.37-4.25-13.23-10.89-13.5-20.53
		c-0.05-1.63-0.05-3.38-2.27-4.3c-0.65,0.28-1.85,0.42-2.29,1.06c-5.31,7.71-8.76,16.38-12.6,24.83c-0.94,2.06-1.51,4.57-1.34,6.81
		c0.54,7.27,1.1,14.58,2.36,21.74c3.25,18.37,7.55,36.46,17.06,52.85c0.66,1.14,0.96,2.48,1.5,3.69
		c7.15,16.22,17.64,29.64,32.76,39.23c3.09,1.96,5.96,4.25,8.96,6.34c14.8,10.29,29.96,19.84,47.81,24.08
		c2.58,0.61,5.05,1.68,7.55,2.56C296.79,1431.01,315.43,1435.42,334.98,1437.58z M731.51,880.58c2.68-3.66,6.08-5.69,9.69-7.33
		c7.28-3.32,14.35-6.85,19.17-13.64c0.73-1.03,1.95-2.07,3.13-2.34c3.89-0.91,6.12-3.9,8.62-6.49c8.77-9.09,17.14-18.57,26.25-27.3
		c4.98-4.76,8.44-10.16,11.06-16.32c3.12-7.32,5.01-15.22,8.35-22.3c3.26-6.92,2.12-11.9-1.93-17.3c-2.16-2.89-4.26-5.83-6.29-8.62
		c-16.13-1.29-31.38-3.83-45.24-12.04c-5.22-3.09-8.41-1.46-10.55,4.69c-3.61,10.34-9.59,18.78-18.04,25.73
		c-8.16,6.72-13.3,15.65-16.92,25.46c-1.84,4.98-3.44,10.05-5.21,15.05c-4.01,11.35-2.73,22.96-1.7,34.54
		c0.14,1.6,0.74,3.34,1.65,4.66C718.96,864.88,723.88,873.13,731.51,880.58z"/>
	<path class="st0" d="M675.38,1528.22c2.01-13.7,9.46-23.34,15.79-33.36c3.9-6.17,7.98-12.25,11.89-18.43
		c3.18-5.03,6.53-9.97,11.2-13.85c2.86-2.37,4.9-5.37,6.53-8.72c1.73-3.56,3.08-7.37,6.2-10.71c8.64-0.9,17.58-1.18,26.44,0.66
		c25.49,5.29,49.84,13.9,73.79,24.08c21.29,9.05,40.68,21.11,59.76,33.9c7.22,4.84,13.61,10.69,20.07,16.41
		c14.22,12.58,26.8,26.78,39.37,40.97c12.1,13.66,18.9,30.42,26.86,46.46c5.47,11.01,10.2,22.43,12.44,34.63
		c1.32,7.17,2.67,14.38,3.3,21.63c1.76,20.2,3.19,40.46,1.92,60.72c-1.44,22.92-4.22,45.59-13.48,67.06
		c-5.22,12.1-12.59,22.69-20.52,32.95c-10.78,13.93-21.72,27.78-36.11,38.38c-9.67,7.13-19.69,13.58-30.71,18.48
		c-7.28,3.24-14.46,6.78-21.45,10.59c-15.51,8.46-32.26,12.06-49.68,13.09c-3.65,0.21-7.25,0.59-10.88,1.04
		c-14.99,1.87-29.86,1.65-44.14-4.33c-2.44-1.02-4.96-2.1-7.54-2.53c-5.68-0.95-9.61-4.38-12.94-8.61
		c-5.37-6.82-9.91-14.2-13.45-22.15c-6.6-14.83-3.37-29.17,2.65-43.16c1.25-2.91,3.82-5.62,6.45-7.5
		c8.64-6.18,17.45-12.15,26.46-17.79c8.57-5.36,18.41-7.32,28.11-9.75c18.37-4.6,36.61-9.71,53.96-17.52
		c2.73-1.23,5.45-2.5,8.07-3.94c9.94-5.49,17.58-13.06,21.41-24.02c7.74-22.15,12.89-44.47,8.91-68.34
		c-2.13-12.77-3.16-25.71-7.21-38.09c-2.7-8.24-6.01-16.17-11.04-23.38c-4.95-7.09-9.38-14.55-14.12-21.79
		c-5.75-8.78-13.68-15.03-22.71-20.23c-23.5-13.54-48.2-24.4-74.58-30.41c-21.31-4.85-42.82-9.43-64.87-10.17
		C686.27,1530.31,681.06,1529.05,675.38,1528.22z"/>
	<path class="st0" d="M337.92,1441.67c12.43,26.4,24.29,53.04,26.96,83.27c-5.54,3.72-12.17,4.74-18.57,5.34
		c-7.22,0.68-14.58,0.89-21.88-0.46c-5.86-1.09-11.84-1.55-17.77-2.25c-26.65-3.14-51.71-11.75-76.37-21.87
		c-15.4-6.32-30.78-12.63-44.69-21.9c-18.27-12.17-36.53-24.35-53.31-38.58c-5.82-4.94-11.81-9.56-16.78-15.54
		c-8.85-10.66-15.47-22.38-19.76-35.48c-1.45-4.44-3.17-8.68-5.62-12.73c-2.92-4.83-5.02-10.16-6.31-15.68
		c-3.33-14.23-7.09-28.39-6.74-43.22c0.09-3.94-0.77-7.9-1.24-11.84c-2.03-16.92,1.38-33.64,1.9-50.47
		c0.42-13.64,2.18-27.12,5.46-40.38c2.49-10.07,5.7-19.81,11.8-28.37c0.38-0.54,0.65-1.17,0.9-1.78c9.64-23,29.35-37.29,46.5-53.78
		c0.38-0.37,1.22-0.26,2.53-0.5c1.8,4.53,0.64,9.59,1.99,14.28c2.74,9.55,4.86,19.3,9.77,28.06c9.03,16.13,14.48,33.36,16.72,51.7
		c0.68,5.53,0.27,10.55-2.89,15.25c-1.48,2.2-2.84,4.52-4.01,6.9c-9.22,18.73-9.35,23.64-5.75,44.99
		c3.86,22.92,11.92,44.18,22.64,64.6c5.98,11.39,14.21,20.99,24.51,28.54c12.33,9.04,24.75,18.01,38.35,25.16
		c1.77,0.93,3.46,2.07,5.32,2.73c24.71,8.82,49.39,17.81,75.67,20.95C330.92,1439.04,334.27,1440.36,337.92,1441.67z"/>
	<path class="st0" d="M407.74,379.43c-0.23-0.96-0.44-1.33-0.35-1.6c1.54-4.61,4.46-9.26,4.3-13.81c-0.16-4.62-0.01-9.21,0.04-13.82
		c0.09-9.63-0.13-19.28,0.14-28.9c0.3-10.87-0.85-21.79,1.05-32.62c0.23-1.29,0.35-2.72,0.05-3.97c-2.43-10-3.93-20.18-6.36-30.2
		c-5.17-21.33-13.13-41.84-17.94-63.25c-0.72-3.22-1.84-6.36-0.87-10.43c2.51,1.88,3.04,4.38,3.82,6.61
		c6.33,18.16,15.09,35.5,18.35,54.7c1.71,10.06,8.37,18.01,12.15,27.21c1.12,2.72,3.88,3.34,7.24,2.23c0,5.24,0,9.85,0,14.24
		c2.77,1.29,3.5-2.42,5.87-1.28c6.11,2.53,6.73,9.83,11.62,14.27c0.18-5.81-3.33-10.02-4.91-14.96
		c7.45,6.02,13.98,12.81,19.44,20.35c2.33,3.22,4.51,6.62,7.48,9.09c4.54,3.78,4.87,8.34,3.81,13.4
		c-2.74,13.04-7.38,25.43-12.82,37.56c-1.16,2.58-2.66,4.44-5.01,5.92c-5.42,3.43-11.12,6.22-17.55,6.63
		c-7.99,0.51-15.82,1.67-23.58,3.59C411.81,380.88,409.75,381.11,407.74,379.43z M439.2,374c-1.46-8.64-2.81-16.39-4.05-24.17
		c-0.28-1.78-0.76-3.16-2.97-3.45c-1.1,7.18,0.1,14.33,0.75,21.42C433.14,370.04,434.75,372.79,439.2,374z"/>
	<path class="st0" d="M623.75,261.68c1.57,5.13,4.11,9.77,7.02,15.94c0-7.31,0.81-13.35-0.17-19.09
		c-2.05-12.02-0.28-23.83,0.78-35.68c0.46-5.19,4.1-9.63,5.34-14.94c0.33,5.68,0.66,11.37,0.98,17.05
		c1.16,20.87,3.78,41.56,6.84,62.22c1.9,12.78,2.82,25.71,4.68,38.49c1.18,8.15,1.49,16.56,5.38,24.14c0.6,1.17,1.15,2.43,0.29,3.76
		c-9.04-1.17-13.18-4.67-14.8-13.65c-1.36-7.5-2.25-15.11-2.9-22.7c-0.4-4.7-1.66-9.13-2.86-13.6c-0.25-0.93-1.06-1.65-2.88-1.59
		c0.29,15.69,3.76,31.35,1.81,47.15c-10.62-1.6-18.4-8.01-19.31-16.18c-0.26-2.3-1.05-4.78,1.86-7.03c2.77-2.15,1.48-6.23,0.9-9.39
		c-0.84-4.54-2.53-8.89,1.89-12.77c0.85-0.75,0.3-3.15,0.32-4.79c0.08-7.66,0.1-15.31,0.21-22.97c0.03-1.91-0.4-4.02,1.45-5.45
		c0.16-0.12,0.66,0.07,0.91,0.24c0.25,0.17,0.38,0.51,0.73,1.01C622.75,268.34,623.25,265.01,623.75,261.68z"/>
	<path class="st0" d="M499.54,43.39c0.55,7.88-0.77,15.83,1.13,23.68c0.35,1.42-0.76,3.15-0.96,4.77c-0.6,4.87-1.74,9.73,1.52,14.34
		c1.09,1.54,0.63,3.84-0.17,6.37c-4.82-2.15-6.39-6.2-7.61-10.58c-2.59-9.24-7.62-16.75-15.72-22.11c-1.62-1.07-2.71-1.49-5.03-1.11
		c-5.04,0.83-9.56-2.09-13.5-5.09c-7.22-5.51-15.23-7.75-24.18-6.93l0.36,0.32c-0.42-2.43-3.91-1.03-4.3-3.99
		c4.1-8.42,12.01-6.5,20.21-6.9c4.29-7.09,10.86-13.54,18.12-20.03c10.12,4.41,19.92,8.89,25.85,18.87
		C497.77,37.24,498.98,40.15,499.54,43.39z"/>
	<path class="st0" d="M499.54,43.39c-0.56-3.24-1.77-6.15-4.29-8.39c1.19-4.71-3.36-6.88-4.88-10.66c2.63-3.76,6.79-4.97,10.31-6.83
		c5.78,1.49,8.91,6.23,13.83,9.49c8.17-5.93,16.76-11.66,27.74-10.02c3.71,0.55,6.63,2.64,9.05,6.19
		c-10.94,10.97-24.36,18.47-35.52,30.69c0.19-9.25,3.39-16.57,4.11-24.36c-3.09,11.25-9.5,20.89-13.43,32.44
		C502.29,55.89,503.87,48.49,499.54,43.39z"/>
	<path class="st0" d="M435,46.74c1.46,3.09,4.62,3.39,7.3,4.51c2.43,1.02,4.81,2.17,7.15,3.39c0.43,0.22,0.56,1.02,0.89,1.69
		c-1.84,1.93-4.24,1.02-6.35,1.06c-12.46,0.22-24.3,2.49-34.96,9.42c-3.06,1.99-3.18,1.81-8.4,1.28c-1.77-3.43,1.17-6.86,0.43-10.42
		c-0.25-1.22,1.04-3.25,2.2-4.19c6.24-5.08,13.18-8.77,21.32-9.81c1.87-0.24,1.68,1.3,2.46,2.11c2.3,2.39,5.49,1.08,8.32,1.28
		L435,46.74z"/>
	<path class="st0" d="M365.06,132.09c-2.18,5.89-0.26,11.07,0.86,16.04c3.49,15.51,4.97,31.24,6.57,47.23
		c-3.2,2.34-5.68,1.32-7.03-1.92c-1.13-2.71-1.54-5.73-2.13-8.64c-2.35-11.66-4.98-23.26-3.95-35.34c0.39-4.57-2.17-8.89-1.85-13.6
		C357.81,131.55,358,131.28,365.06,132.09z"/>
	<path class="st0" d="M652.55,57.44c2.65-1.65,3.92-0.48,5.15,0.59c6.32,5.56,11.24,12.2,14.95,19.74
		c2.05,4.16,4.07,8.35,5.89,12.61c1.19,2.79,1.44,5.81,1.02,8.82c-0.52,3.73-3.51,5.09-6.4,2.85c-2.91-2.25-5.18-5.09-6.97-8.12
		c0.38-1.97,2.29-0.67,3.29-2.17c-1.77-6.13-5.77-11.49-9-17.2C657.32,68.99,652.63,64.08,652.55,57.44z"/>
	<path class="st0" d="M566.75,22.84c-6.11,10.49-15.42,10.82-24.44,14.63C548.05,28.31,555.7,25.1,566.75,22.84z"/>
	<path class="st0" d="M657.67,81.13c4.47,1.24,4.43,4.02,5.83,6.51C659.23,86.94,659.78,83.85,657.67,81.13z"/>
</g>
</svg>
