<?xml version="1.0" encoding="utf-8"?>
<!-- Generator: Adobe Illustrator 23.1.0, SVG Export Plug-In . SVG Version: 6.00 Build 0)  -->
<svg version="1.1" id="Layer_1" xmlns="http://www.w3.org/2000/svg" xmlns:xlink="http://www.w3.org/1999/xlink" x="0px" y="0px"
	 width="2520.08" height="2530.22" viewBox="0 0 2520.08 2530.22" style="enable-background:new 0 0 2520.08 2530.22;" xml:space="preserve">
<g>
	<path d="M1221.22,2478.62c-0.21,1.94-0.58,3.88-0.61,5.83c-0.18,14.08-5.56,26.67-11.57,38.96c-3.77,7.69-8.95,9.05-15.11,3.16
		c-7.16-6.85-13.89-14.46-19.36-22.7c-10.26-15.45-16.48-32.64-18.15-51.29c-0.53-5.94-1.2-11.87-1.86-18.43
		c-1.54-1.06-4.02-2.13-5.56-3.98c-1.64-1.98-2.72-4.61-3.48-7.12c-2-6.65-3.69-13.39-5.76-21.01c-3-1.42-6.86-3.29-10.76-5.07
		c-41.17-18.88-77.94-44.41-111.99-74.06c-9.02-7.86-18.55-15.2-27-23.63c-10.84-10.82-21.23-22.16-31.07-33.89
		c-17.99-21.44-35.43-43.34-53.11-65.04c-6.1-7.49-12.36-14.86-18.32-22.47c-12.95-16.52-25.91-33.04-38.56-49.79
		c-6.09-8.07-13.46-14.77-21.07-21.22c-6.03-5.12-12.44-4.72-17.63,1.29c-3.42,3.96-6.62,8.63-8.23,13.53
		c-2.68,8.17-4.81,16.69-5.73,25.22c-1.8,16.68-0.52,33.27,3.93,49.56c0.77,2.83,1.15,5.83,1.23,8.77c0.02,0.86-1.49,2.05-2.55,2.53
		c-0.62,0.28-2.18-0.29-2.57-0.94c-1.72-2.83-3.55-5.69-4.64-8.79c-5.64-16.02-11.58-31.96-16.43-48.22
		c-7.65-25.64-11.57-52.02-13.41-78.69c-0.81-11.69-0.59-23.33,4.36-34.35c0.53-1.17,0.66-2.56,0.77-3.87
		c1.53-17.91,2.62-35.86,4.61-53.71c3.44-30.79,6.84-61.61,11.35-92.25c5.39-36.64,14.77-72.47,25.24-107.96
		c7.35-24.92,15.44-49.63,23.06-74.47c3.71-12.1,6.61-24.46,10.75-36.4c11.84-34.16,28.68-65.93,47.56-96.67
		c28.35-46.17,61.05-89.01,98.33-128.34c3.19-3.36,6.19-6.78,10.84-8.56c2.64-1,4.73-3.57,6.93-5.57
		c37.3-34.05,78.14-63.33,121.04-89.81c5.05-3.12,10.44-5.7,16-8.71c-0.76-9.41-1.34-19.19,9.7-23.51
		c8.96-3.51,18.36,0.4,25.49,9.48c4.93,0,9.59-0.5,14.1,0.14c4.48,0.64,8.8,2.44,14.06,3.99c-3.09-10.28,1.95-16.54,9.44-21.77
		c3.89-2.72,8.2-2.52,12.5-2.39c3.78,0.12,6.81-0.66,10.02-3.17c8.34-6.54,13.29-5.02,18.7,4.81c0.14,0.25,0.55,0.36,1.32,0.85
		c1.16-0.44,2.72-0.89,4.13-1.61c2.03-1.04,3.96-2.29,6.33-3.68c-5.97-9.04-7.23-18.82-6.8-28.97c0.13-3.08-0.83-5.57-2.73-8.22
		c-5.99-8.37-11.68-16.98-17.09-25.74c-4.9-7.93-9.02-16.33-13.97-24.22c-2.99-4.76-6.59-9.23-10.45-13.33
		c-8.23-8.75-16.21-17.66-22.4-28.02c-0.49-0.82-0.68-1.81-2.02-2.21c0.19,21.09,1.5,41.63-6.1,61.28c-0.55,1.42-1.95,2.5-3.56,4.48
		c-10.53-12.87-11.08-28.6-16.42-43.12c-0.73,3.44-1.43,6.89-2.18,10.32c-5.48,24.82-15.49,47.5-32.54,66.6
		c-5.29,5.93-11.54,11.02-17.53,16.29c-2.7,2.38-5.73,4.53-10.67,4.4c-0.45-3.08-0.89-6.08-1.45-9.9c-3.45,2.25-4.81,5.69-6.67,8.52
		c-9.05,13.8-20.08,25.75-33.74,34.96c-7.13,4.81-15.03,8.51-22.72,12.43c-2.88,1.47-6.12,2.83-9.67,0.61
		c-3.39-5.04,3.67-9.54,0.96-15.75c-1.77,1.79-3.18,2.94-4.24,4.36c-6.66,8.89-14.76,16.22-23.77,22.64
		c-5.87,4.19-10.23,10.49-17.62,12.57c-0.95,0.27-1.8,0.86-2.72,1.26c-10.4,4.49-11.36,4.31-18.88-3.71
		c-1.35,1.47-2.65,2.96-4.03,4.37c-8.9,9.15-15.95,9.74-26.36,2.18c-7.38-5.36-13.12-12.25-18.16-19.78
		c-1.26-1.88-2.5-3.76-4.76-7.16c-0.93,3.84-1.39,6.24-2.11,8.56c-1.38,4.43-4,6.03-8.35,4.42c-3.38-1.25-6.59-3.18-9.58-5.24
		c-12.82-8.82-22.7-20.57-31.68-33.04c-11.51-15.99-21.42-32.95-28.81-51.3c-0.85-2.11-1.77-4.4-3.3-6
		c-14.43-15.1-24.72-33-34.6-51.14c-10.07-18.49-18.02-37.9-23.86-58.14c-1.12-3.87-2.91-7.18-5.39-10.48
		c-9.5-12.62-16.04-26.93-21.07-41.78c-4.05-11.95-7.07-24.28-9.95-36.59c-1.45-6.17-3.1-11.93-6.28-17.6
		c-11.84-21.12-19.68-43.81-22.61-67.87c-1.86-15.25-5.02-30.21-8.06-45.19c-3.81-18.74-5.63-37.58-4.7-56.63
		c0.42-8.61,1.93-17.17,2.88-25.76c0.33-2.95,0.9-5.97,0.63-8.88c-2.83-30.51,2.77-59.68,13.2-88.23
		c7.9-21.63,17.43-42.52,27.52-63.19c13.14-26.94,26.33-53.86,39.34-80.86c2.01-4.17,3.33-8.7,4.72-13.14
		c4.66-14.95,9.23-29.92,13.77-44.9c0.77-2.53,1.39-5.14,1.76-7.75c4.72-33.32,9.48-66.63,14.02-99.97
		c3.96-29.06,7.63-58.15,11.51-87.22c0.62-4.62,1.52-9.21,2.55-13.75c0.33-1.44,1.5-2.69,2.43-4.28c4.59,1.79,5.43,5.59,6.07,8.98
		c2.29,12.09,5.11,24.19,6,36.41c0.97,13.24,0.02,26.61-0.13,39.93c-0.02,1.94-0.22,3.88-0.47,8.09c2.39-3.04,3.67-4.24,4.44-5.72
		c43.48-82.58,95.53-159.41,154.88-231.36c1.48-1.8,2.87-3.72,4.59-5.24c0.86-0.76,2.88-1.43,3.53-0.96
		c1.12,0.81,2.34,2.63,2.18,3.85c-1.18,8.91-2.44,17.82-4.16,26.64c-2.69,13.82-8.05,26.77-13.68,39.6
		c-1.41,3.22-2.57,6.55-3.23,10.16c9.36-6.28,15.94-15.14,23.85-22.6c8-7.55,15.8-15.31,23.78-22.88
		c7.98-7.57,16.07-15.02,24.12-22.51c8.05-7.49,16.09-14.99,24.18-22.45c8.09-7.45,16.2-14.88,24.34-22.27
		c8.14-7.4,16.29-14.78,24.51-22.09c8.22-7.3,16.5-14.55,24.83-21.72c8.33-7.18,16.7-14.32,25.18-21.33
		c8.47-7.01,17.02-13.94,25.68-20.71c8.58-6.71,17.02-13.64,25.86-19.46c4.35,3.02,3.49,6.39,2.64,9.61
		c-3.12,11.91-5.71,24.01-9.64,35.66c-11.53,34.24-27.84,66.3-45.66,97.62c-18.15,31.88-37.22,63.19-59.67,92.26
		c-6.26,8.1-13.73,15.25-20.52,22.95c-1.38,1.57-2.19,3.65-2.22,6.69c1.3-0.63,2.74-1.07,3.89-1.92
		c5.62-4.16,11.16-8.42,16.73-12.66c0.53-0.4,1.12-0.77,1.54-1.28c10.92-13.35,25.84-21.83,39.43-31.8
		c35.19-25.82,70.86-50.98,106.38-76.35c2.69-1.92,5.57-3.71,8.58-5.04c3.21-1.42,6.03,0.99,5.63,4.57c-0.18,1.64-0.8,3.23-1.2,4.85
		c-8.14,33.36-21.06,64.7-41.23,92.58c-10.9,15.06-23.06,29.22-35.07,43.44c-7.72,9.14-15.77,18.09-24.4,26.36
		c-25,23.94-50.72,47.07-78.69,67.57c-9.38,6.88-18.61,13.96-28.03,21.03c1.64,3.41,4,1.72,5.86,0.89
		c11.55-5.16,23.02-10.48,34.54-15.7c36.65-16.62,73.28-33.26,109.99-49.73c2.8-1.26,5.91-4.41,9.21-1.81
		c3.65,2.87,1.32,6.71,0.56,10.18c-2.38,10.84-7.07,20.79-12.3,30.44c-10.95,20.18-21.9,40.41-37.49,57.57
		c-3.55,3.91-7.67,7.3-11.54,10.92c-2.35,2.2-4.72,4.38-7.43,6.89c3.89,2.71,6.88,0.49,9.92,0.07c2.91-0.4,5.86-0.58,8.97-0.87
		c5.19,9.8-0.98,17.47-4.25,26.12c2.71,3.21,5.23,6.71,8.26,9.7c16.71,16.49,29.85,35.73,42.07,55.56c3.79,6.15,8.24,9.57,15.2,8.9
		c7.01-0.68,12.83-3.49,14.87-11.18c0.49-1.84,1.51-3.53,2.22-5.12c3.92-0.31,4.62,2.78,6.19,4.75c2.28,2.86,4.19,6.06,6.76,8.6
		c1.2,1.18,3.86,1.98,5.34,1.46c1.39-0.49,2.89-2.9,2.96-4.53c0.27-6.26,0.74-12.56-4.23-17.84c-1.89-2-3.13-5.31-3.27-8.09
		c-0.2-3.81,2.03-6.91,5.82-8.49c4.3-1.79,9.3-0.56,12.67,3.15c2.85,3.13,3.28,5.23,0.58,9.78c-1.86,3.14-2.37,6.27-1.72,9.55
		c1.1,5.52,2.55,10.98,4.01,16.42c0.62,2.29,1.7,4.62,4.62,4.39c2.68-0.21,3.87-2.37,4.63-4.67c0.84-2.52,1.86-5.05,2.25-7.65
		c1.85-12.19,2.94-24.48,1.95-36.77c-0.33-4.1-2.54-8.11-4.22-12.02c-2.53-5.88-1.09-10.73,4.31-13.42
		c5.07-2.52,11.28-0.74,13.53,4.5c0.94,2.18,1.18,5.5,0.16,7.5c-1.87,3.67-1.25,7.05-0.72,10.66c1.77,12.15,3.98,24.26,5.06,36.47
		c1,11.24-0.24,22.49-2.83,33.53c-0.51,2.18-0.63,4.45-1.08,7.78c7.47-2.66,10.18-8.01,12.3-13.8c1-2.73,1.62-5.6,2.73-9.5
		c2.25,1.84,4.17,2.69,4.92,4.14c3.83,7.44,2.52,15.82-3.22,22.17c-1.1,1.22-2.43,2.24-4.08,3.73c7.58,7.51,16.66,13.84,18.19,25.34
		c0.19,1.4-0.12,2.87-0.29,5.79c-10.33-8.3-19.48-15.87-30.68-21.1c-2.95,2.01-5.88,4-9.71,6.61c3.43,3.22,6.26,5.82,9.03,8.48
		c5.51,5.27,11.48,10.14,16.4,15.92c16.74,19.67,30.6,41,37.2,66.46c2.62,10.12,3.93,20.27,3.14,30.61
		c-0.39,5.15-0.74,10.71-5.67,13.77c-5.99,0.52-7.48-5.75-12.53-6.99c-1.09,1.68-1.86,4.21-3.51,5.05
		c-1.86,0.95-4.72,1.06-6.77,0.39c-24.91-8.13-51.1-12.5-74.5-25.08c-5.86-3.15-11.64-6.44-17.5-9.6
		c-6.26-3.37-12.72-5.22-20.04-4.03c-3.79,0.61-6.01,2.3-7.58,5.5c-3.52,7.19-3.93,14.72-2.42,22.41
		c2.79,14.18,9.82,26.08,20.04,36.12c15.63,15.36,34.22,26.29,53.87,35.61c3.3,1.56,6.63,3.1,9.79,4.93
		c8.21,4.76,17.01,5.8,25.98,3.45c4.65-1.22,11.65,1.25,11.77-8.76c8.9,8.61,7.35,17.75,7.94,26.78
		c11.16,5.3,22.46,10.91,32.19,19.05c10.67,8.93,19.31,19.17,21.3,33.7c0.65,4.76,4.39,7.22,8.55,5.34
		c9.26-4.18,17.51-1.56,23.87,4.68c8.33,8.17,17.75,10.99,28.86,10.25c2.65-0.18,5.33-0.09,8-0.02c4.48,0.12,8.45-0.96,12.06-3.86
		c3.62-2.91,7.97-4.98,11.36-8.11c9.44-8.73,20.62-14.61,32.03-20.02c10.78-5.11,19.96-12.02,26.81-21.76
		c5.94-8.44,14.38-13.78,22.88-19.01c5.7-3.51,9.56-2.56,13.71,3.04c4.74,6.4,9.71,12.66,12.31,20.45c1.13,3.38,3.47,6.36,5.18,9.38
		c3.65,0.75,6.86,1.42,9.95,2.05c3.56,2.92,2.33,6.81,2.13,10.34c-0.51,9.26,1.64,17.69,6.25,25.8c1.81,3.18,3.98,4.98,7.06,6.48
		c8.56,4.19,17.28,8.15,25.44,13.04c9.92,5.94,19.07,12.97,24.02,24.06c0.49,1.11,1.74,1.93,2.73,2.76
		c13.29,11.14,23.95,24.52,34.2,38.45c11.17,15.19,21.85,30.79,34.4,44.97c4.35,4.91,7.33,11.07,10.67,16.81
		c4.64,7.97,9.03,16.09,13.44,23.97c1,0.04,1.79,0.33,2.24,0.06c8-4.81,17.59-5.42,25.76-9.78c4.08-2.18,8.24-4.23,12.43-6.22
		c3.3-1.56,6.57-3.68,10.07-4.24c8.44-1.37,15.43-6.04,23.09-9.15c13.15-5.34,23.95-14.31,34.82-23.12
		c6.98-5.65,14-11.24,20.81-17.08c4-3.43,7.2-7.92,11.51-10.82c8.54-5.75,15.24-13.73,23.55-19.46
		c9.68-6.68,17.98-14.67,26.42-22.61c8.69-8.17,17.16-16.58,25.44-25.17c6.42-6.66,12.38-13.76,18.57-20.65
		c1.11-1.24,2.13-2.67,3.5-3.56c9.93-6.43,15.71-16.8,23.81-24.96c7.97-8.02,15.58-16.39,23.37-24.58
		c5.97-6.28,12.21-12.32,17.94-18.82c27.17-30.82,52.15-63.28,72.11-99.32c15.38-27.77,28.08-56.72,36.27-87.51
		c6.75-25.36,6.6-25.66-0.27-50.69c-4.89-17.81-12.59-34.47-21.12-50.63c-10.41-19.72-22.04-38.8-33.35-58.04
		c-11.11-18.89-25.86-34.55-43.17-47.92c-4.73-3.65-9.17-7.73-13.35-11.99c-3.41-3.47-3.15-3.72-1.32-10.47
		c-7.16-4.31-14.34-9.03-21.86-13.11c-24.28-13.15-48.99-25.55-72.94-39.27c-14.39-8.24-27.74-18.3-41.4-27.78
		c-2.65-1.84-4.82-4.55-6.75-7.19c-1.94-2.64-0.96-5.49,2.08-6.34c2.85-0.8,5.89-1.42,8.83-1.34c9.62,0.28,19.15-1.43,28.85-0.23
		c11.85,1.47,23.86,1.68,35.77,2.73c20.32,1.8,39.91,6.98,59.28,13.14c1.19,0.38,2.44,0.53,5.29,1.12
		c-1.96-2.39-2.73-3.73-3.86-4.63c-14.22-11.5-28.32-23.19-42.81-34.34c-16.35-12.59-32.71-25.23-49.73-36.88
		c-31.89-21.82-64.02-43.31-96.5-64.23c-24.08-15.5-48.91-29.85-73.36-44.78c-3.86-2.36-8.31-4.28-9.68-9.29
		c2.83-4.22,6.69-3.19,10.14-2.74c9.58,1.25,19.13,2.72,28.67,4.2c52.9,8.24,104.1,22.56,153.45,43.37
		c2.76,1.16,5.58,2.17,8.42,3.13c0.51,0.17,1.22-0.23,2.57-0.52c-0.89-1.45-1.49-2.83-2.44-3.91
		c-47.29-53.75-99.28-102.29-157.63-143.98c-22.21-15.87-43.46-33.1-65.07-49.81c-5.28-4.08-9.88-8.85-12.73-15.93
		c1.9-0.77,3.56-1.99,5.26-2.04c8.67-0.24,17.27,0.13,25.73,2.59c44.24,12.83,87.01,29.47,128.69,49.02
		c25.96,12.17,51.41,25.3,76.09,39.89c40.61,24.02,77.82,52.57,112.77,84.17c17.81,16.11,35,32.82,51.1,50.65
		c2.61,2.89,5.98,5.23,9.3,7.35c27.78,17.78,56.3,34.41,82.44,54.68c26.66,20.67,52.09,42.62,73.75,68.67
		c23.43,28.18,40.42,59.46,46.52,95.98c0.77,4.58,3.21,7.9,5.79,11.37c11.73,15.77,23.74,31.36,35.02,47.44
		c11.68,16.65,22.57,33.88,30.16,52.86c3.08,7.69,5.46,15.74,7.32,23.83c3.96,17.14,0.68,33.82-4.57,50.16
		c-12.15,37.81-30.78,72.24-54.67,103.89c-1.78,2.36-3.56,4.73-6.6,8.77c3.4-1.04,5.13-1.23,6.5-2.03
		c36.26-21.28,74.29-39.02,112.46-56.51c1.41-0.65,2.96-0.99,4.28-1.43c3.26,3.2,2.24,6.68,2.12,9.86
		c-0.55,15.2-4.7,29.61-10.47,43.51c-14.14,34.07-36.27,61.97-66.29,83.42c-20.99,15-44.69,23.62-70.03,27.59
		c-10.47,1.64-21.12,2.09-32.06,3.12c0.63,3.6,3.9,4.25,6.16,5.83c14.21,9.89,28.81,19.27,42.56,29.76
		c8.14,6.21,15.45,13.72,22.21,21.45c4.52,5.17,7.61,11.65,10.95,17.76c1.22,2.24,1.64,5.08,1.81,7.69c0.23,3.45-1.7,5.68-5.17,6.25
		c-2.28,0.37-4.66,0.4-6.97,0.23c-24.62-1.84-49.16-4.11-72.34-13.63c-0.88-0.36-1.93-0.36-2.91-0.43
		c-0.25-0.02-0.52,0.33-1.39,0.93c0.82,2.19,1.62,4.58,2.6,6.9c9.41,22.16,13.95,45.13,11.55,69.25c-0.33,3.29-0.92,6.64-1.97,9.76
		c-1.46,4.4-4.69,5.45-8.64,2.79c-3.3-2.22-6.41-4.81-9.3-7.56c-6.04-5.73-11.89-11.66-17.81-17.52c-2.07-2.05-4.12-4.13-7.2-7.22
		c-0.5,3-1.09,4.75-1.04,6.47c0.87,29.28-3.89,57.78-11.81,85.83c-4.56,16.18-11.33,31.32-22.11,44.43
		c-0.85,1.03-1.58,2.16-2.48,3.13c-5.35,5.77-7.81,6.24-16.19,2.75c-1.58,3.57-3.22,7.16-4.75,10.79
		c-8.54,20.34-22.03,37.21-37.43,52.6c-7.53,7.53-15.91,14.19-23.79,21.38c-2.9,2.64-5.96,4.13-10.22,2.73
		c-2.38,4.69-4.67,9.1-6.86,13.55c-10.83,21.95-24.18,42.21-40.77,60.24c-10.01,10.88-21.66,19.74-35.04,26.15
		c-7.97,3.81-8.76,3.69-16.64-0.62c-4.65,4.66-9.2,9.47-14.01,14.01c-15.46,14.6-31,29.1-46.53,43.62c-0.97,0.9-2.05,1.69-3.13,2.47
		c-8.24,5.99-9.13,6-17.18,0.17c-2.94,6.36-5.59,12.82-8.87,18.94c-2.82,5.26-5.95,10.46-9.69,15.08
		c-5.44,6.72-12.7,10.61-21.57,10.98c-2.31,0.1-4.62,0.23-7.24,0.36c-1.01,1.31-2.19,2.5-2.97,3.91
		c-5.45,9.87-14.51,14.21-24.94,16.51c-13.38,2.95-27.02,3.41-40.63,3.97c-6.29,0.26-12.61-0.19-18.9,0.11
		c-4.93,0.24-9.89,0.79-14.72,1.79c-17.3,3.61-34.81,5.35-52.43,6.1c-18.58,0.78-37.23,0.8-55.6-2.16
		c-10.08-1.63-19.45-0.9-29.36,1.22c-26.53,5.66-52.19,1.2-77.03-8.99c-3.07-1.26-6.13-2.54-9.3-3.85
		c-8.89,5.44-18.07,3.44-26.99,0.55c-26.64-8.62-52.71-18.68-77.02-32.8c-1.05-0.61-2.23-1-3.36-1.49
		c-0.63,5.31-0.73,10.22-1.89,14.87c-1.13,4.55-3.79,8.29-8.43,10.49c-4.82,2.29-9.33,3.48-14.04-0.03
		c-4.95-3.7-7.04-8.67-6.55-14.71c0.21-2.61,0.88-5.19,1.45-8.4c-4.51-1.58-8.96-2.77-13.06-4.68c-3.78-1.76-7.19-4.31-12.63-7.66
		c1.11,3.28,1.31,4.75,2.04,5.88c8.57,13.3,11.7,28.23,12.5,43.65c0.34,6.56-0.33,13.33-1.69,19.76c-0.93,4.39,0.27,7.81,1.86,11.4
		c6.91,15.61,15.96,29.98,26.39,43.41c20.73,26.71,45.04,49.83,72.45,69.56c29.29,21.09,62.18,32.5,98.12,36.06
		c35.54,3.52,68.86-4.14,100.86-18.64c16.65-7.54,32.7-16.42,49.04-24.66c2.22-1.12,4.55-2.01,7.71-3.4c0.29,5-2.31,6.91-4.86,8.88
		c-19.23,14.87-38.76,29.27-59.96,41.33c-24.16,13.74-49.33,24.76-76.42,31.3c-29.14,7.04-58.03,6.99-86.42-3.16
		c-8.4-3-16.24-7.59-24.34-11.44c-1.93-0.92-3.88-1.83-6.94-3.27c1.39,8.25,5.36,14.02,7.93,20.29
		c5.93,14.46,12.98,28.5,18.16,43.21c3.49,9.91,4.94,20.61,6.58,31.08c1.2,7.69-0.81,15.12-5.98,22.23c3.32,2.4,5.87,4.41,8.58,6.18
		c35.63,23.27,73.69,41.19,114.65,53.05c31.07,8.99,62.73,15.13,94.49,20.85c36.68,6.6,73.35,13.27,109.09,24.05
		c31.94,9.63,63.03,21.42,92.31,37.61c18.05,9.98,36.2,19.79,54.2,29.87c9.31,5.21,18.12,11.12,26.14,18.29
		c5.69,5.08,12.35,9.06,18.43,13.72c18.7,14.33,33.91,31.99,47.53,51.03c18.88,26.41,35.07,54.29,45.11,85.39
		c1.08,3.33,2.96,6.65,1.79,10.21c-3.9,1.62-5.21-1.4-7.01-3.05c-9.79-9.04-19.21-18.51-29.28-27.22
		c-27.32-23.62-57.18-43.54-88.83-60.98c-24.94-13.74-50.78-24.98-78.48-31.53c-41.2-9.74-81.78-8.62-121.31,8.13
		c-17.76,7.52-20.3,9.34-29.13,26.35c-8.61,16.58-15.12,34.05-20.98,51.77c-6.68,20.23-13.21,40.49-17.42,61.42
		c-6.01,29.91-7.92,59.94-3.19,90.21c1.76,11.3,6,21.76,11.07,31.92c0.89,1.78,1.93,3.49,2.82,5.27c1.93,3.85,0.14,6.26-3.67,8.56
		c-52.83-35.56-106.95-69.23-163.03-99.75c-52.15-28.38-101.62-60.97-147.69-98.51c-15.47-12.6-30.54-25.7-45.42-38.99
		c-17.07-15.26-34.01-30.69-50.46-46.61c-10.03-9.7-19.05-20.46-28.55-30.72c-0.83-0.9-1.9-1.57-4.04-3.32
		c-0.32,4-0.88,6.81-0.72,9.57c1.22,20.56,2.26,41.13,3.97,61.65c2.31,27.79,2.87,55.83,9.72,83.05c3.24,12.88,6.4,26.06,12,37.98
		c7.36,15.67,12.19,32.24,19.38,47.93c5.9,12.87,8.54,26.51,6.3,40.8c-1.01,6.45,0.53,12.28,3.66,18.13
		c6.45,12.05,11.76,24.61,13.41,38.4c0.04,0.33,0.3,0.65,0.27,0.96c-0.95,10.76,2.97,20.81,4.45,31.22
		c2.26,15.84-0.4,31.15-5.68,46.01c-3.69,10.38-8.98,20.02-15.27,29.11c-4.92,7.1-7.38,9.11-16.95,13.17
		c-5.65-1.9-4.09-8.56-7.97-12.27c-2.06,3.81-3.84,7.58-6.05,11.1c-3.45,5.49-6.1,5.57-9.55,0.36c-3.12-4.72-5.89-9.67-8.97-14.41
		c-9.96-15.36-20.3-30.48-29.86-46.09c-4.13-6.74-6.86-14.37-9.89-21.74c-2.58-6.29-3.56-12.99-1.17-19.5
		c2.02-5.52-0.73-8.57-4.41-12.31c-3.92,6.73-5.63,13.92-10.68,20.11c-1.41-1.84-2.71-2.92-3.23-4.3
		c-7.9-20.73-9.07-41.28,1.09-61.82c2.15-4.34,2.66-9.55,3.65-14.41c4.34-21.22,7.75-42.6,6.52-64.33
		c-1.01-17.9-2.32-35.82-4.51-53.61c-3.82-30.98-8.14-61.9-12.8-92.77c-2.32-15.41-5.59-30.7-8.98-45.92
		c-0.98-4.4-3.47-8.63-5.95-12.51c-7-10.93-14.35-21.63-21.56-32.42c-0.92-1.38-1.77-2.82-2.73-4.18
		c-7.01-9.85-10.62-20.61-8.86-32.83c0.09-0.62-0.15-1.31-0.35-1.94c-0.07-0.22-0.47-0.33-1.37-0.91c-0.94,0.95-2.22,1.87-3.02,3.11
		c-12.88,19.88-28.55,37.67-42.66,56.61c-17.11,22.95-34.04,46.08-46.74,71.93c-5.62,11.44-9,23.61-11.94,35.92
		c-1.07,4.51-1.14,9-0.38,13.76c1.31,8.18,1.84,16.51,2.18,24.8c1.03,25.05,5.97,49.45,11.19,73.87
		c8.59,40.13,24.47,77.34,44.65,112.8c8.65,15.19,15.47,30.85,18.34,48.17c0.4,2.44,1.88,4.85,3.36,6.92
		c4.65,6.49,9.74,12.67,14.26,19.24c2.43,3.53,4.39,7.5,5.91,11.52c1.9,5.04-0.33,7.14-5.85,6.09c-0.88-0.17-1.78-0.23-3.49-0.45
		c0.35,1.71,0.32,2.99,0.86,3.96c12.07,21.95,17.28,45.91,20.76,70.38c1.59,11.21,3.48,22.41,1.97,33.79
		c-0.75,5.61-1.48,11.25-2.74,16.76c-1.78,7.79-3.71,8.87-11.15,6.29c-15.27-5.28-27.3-15-37.02-27.73
		c-2.17-2.84-4.2-5.79-6.29-8.68C1222.58,2478.15,1221.9,2478.38,1221.22,2478.62z M1026.16,966.68c3.93-0.58,7.12-1.44,10.31-1.46
		c18.35-0.13,35.77,3.09,50.85,14.54c1.59,1.21,3.6,1.87,5.42,2.78c0.37-0.42,0.75-0.84,1.12-1.26c-1.88-3.6-3.75-7.21-6.26-12.01
		c18.2-0.23,34.67,1.85,50.48,9.56c0.58-6.98,0.55-13.27,1.72-19.34c2.23-11.54,6.95-22.17,13.23-32.13
		c3.34-5.29,6.29-10.83,9.52-16.44c1.86,0.77,3.8,2.89,7.28,0.84c5.76-3.39,11.79-6.9,19.11-5.36c0.44,0.09,1.19-1.26,1.93-2.11
		c-2.74-3.98-7.06-5.2-10.68-7.36c-14.58-8.68-29.59-16.7-43.74-26.03c-13.98-9.21-25.95-20.83-34.32-35.65
		c-17.62-31.19-21.32-64.71-16.21-99.56c2.33-15.88,7.99-30.88,13.41-45.91c0.7-1.95,2.48-4.03-0.43-6.62
		c-4.84,4.45-7.8,10.05-10.77,15.46c-4.77,8.7-10.35,17.3-10.94,27.52c-0.33,5.65-2.82,9.37-6.89,12.56
		c-4.72,3.69-9.42,7.42-14.28,10.92c-3.12,2.24-6.51,4.1-10.53,6.58c-0.79-5.89,1.57-9.69,3.72-13.23
		c8.98-14.79,17.58-29.88,27.61-43.93c9.65-13.52,20.94-25.86,31.41-38.81c2.82-3.48,6.68-6.36,7.81-11.72
		c-11.5,0.31-21.46-2.84-30.13-9.81c-13.92,7.51-25.36,17.45-35.52,29.1c-5.58,6.4-6.79,13.46-5.28,21.37
		c0.35,1.83,0.94,3.61,1.47,5.59c-4.09,1.96-7.65,3.71-11.26,5.38c-3.63,1.68-7.34,3.17-10.93,4.93c-3.58,1.76-7.01,3.84-10.58,5.62
		c-3.34,1.66-6.12,4.57-11.68,5.81c19.52-36.19,46.49-63.26,78.3-86.68c-8.97-5.34-16.15-11.24-22.38-18.98
		c6.54-2.96,13.33-1.08,18.94-3.89c-4.16-4.01-7.88-7.61-12.46-12.03c-6.25,3.42-13.54,7.28-20.72,11.35
		c-12.15,6.87-24.88,13.04-31.8,26.19c-5.51-0.28-10.56-1.36-15.27-0.55c-5.13,0.89-9.92,3.65-14.92,5.4
		c-3.14,1.1-6.38,1.9-9.61,2.72c-4.42,1.13-8.87,2.15-13.3,3.21c-0.03,0.69-0.06,1.38-0.1,2.07c11.35,1.57,22.92,1.66,34.25,3.4
		c11.68,1.79,23.28,4.08,36.13,6.36c-2.83,3.01-4.56,5.47-6.86,7.18c-5.59,4.17-11.26,8.28-17.23,11.87
		c-6.87,4.14-12.92,8.67-16.85,16.07c-2.1,3.97-5.87,7.19-9.3,10.29c-3.45,3.11-7.32,5.78-11.16,8.42
		c-14.55,10-29.26,19.77-43.72,29.9c-26.26,18.41-50.89,38.73-72.17,62.87c-7.95,9.02-15.16,18.55-20.61,29.36
		c-5.88,11.65-5.02,23.92-3.59,36.19c0.28,2.42,2.15,4.83,3.74,6.89c28.49,36.91,62.6,67.19,104.61,87.99
		c6.18,3.06,12.68,5.46,19.38,7.59c14.86,4.7,30.9,4.95,45.01,12.25c0.85,0.44,1.96,0.32,2.92,0.58c5.45,1.49,10.88,3.06,16.34,4.51
		c1.45,0.39,2.97,0.47,4.79,0.75c-0.32-3.04-0.55-5.27-0.8-7.64c4.43,0.55,6.13,6.81,11.73,3.14
		C1032.43,977.93,1029.56,972.78,1026.16,966.68z M1135.18,2351.56c0.84-0.61,1.68-1.22,2.53-1.83c0.18-1.26,0.33-2.53,0.54-3.79
		c1.54-9.41,0.04-19.26,4.16-28.31c0.34-0.75-0.15-1.9-0.28-2.86c-1.78-12.48-3.32-25.01-5.41-37.44
		c-2.75-16.38-5.1-32.89-9.15-48.97c-4.71-18.69-10.96-37-16.77-55.4c-3.2-10.15-6.06-20.54-10.55-30.12
		c-6.2-13.24-13.5-26-20.91-38.61c-4.48-7.63-7.56-15.45-8.48-24.24c-1.1-10.59-3.2-21-5.8-31.35c-1.76-7.04-2.57-14.41-2.94-21.68
		c-0.37-7.35,2.02-10.08,8.99-12.44c2.2-0.74,4.54-1.04,6.74-1.79c5.97-2.04,11.96-4.04,17.81-6.41c4.46-1.8,7.22-5.23,9.45-9.69
		c3.59-7.21,4.21-14.41,3.43-22.27c-2.05-20.65,0.39-40.54,11.73-58.59c4.07-6.48,8.09-12.99,12.06-19.53
		c5.15-8.5,7.88-17.06,5.07-27.48c-3.91-14.5-7.84-28.89-14.88-42.24c-5.74-10.89-11.57-21.74-17.32-32.62
		c-12.95-24.5-22.98-50.18-31.49-76.55c-7.07-21.91-12.91-44.05-16.13-66.85c-0.3-2.14,0.26-4.47,0.76-6.63
		c0.89-3.9,1.16-7.6-1.9-12.21c-1.3,3.13-2.38,5.06-2.92,7.13c-4.87,18.68-10.24,37.25-14.33,56.09
		c-13.27,61.19-21.1,123.21-27.33,185.45c-1.08,10.83-0.69,21.97-5.75,32.12c-0.57,1.14-0.68,2.58-0.71,3.89
		c-0.28,9.64-0.66,19.29-0.67,28.94c-0.02,25.96,0.25,51.9,1.83,77.86c1.47,24.22,3.3,48.37,5.82,72.5
		c0.81,7.69,3.73,15.55,0.57,23.47c-0.43,1.07,0.21,2.62,0.51,3.91c2.73,11.65,4.92,23.46,8.35,34.9
		c10.69,35.64,27.25,68.56,47.08,99.95c19.58,31,41.74,60.14,63.87,89.3C1133.77,2348.48,1134.38,2350.09,1135.18,2351.56z
		 M1608.99,1110.24c-0.48-1.72-0.75-3.01-1.18-4.24c-4.8-13.62-7.17-27.57-6.88-42.08c0.35-17.99,0.26-35.99-0.02-53.99
		c-0.26-16.97-0.82-33.97-6.05-50.35c-2.92-9.14-6.72-17.86-12.92-25.32c-8.59,5.78-8.81,5.68-10.57,9.67
		c-3.42,7.75-8.72,14.04-14.38,20.2c-5.81,6.32-11.16,13.06-16.83,19.74c1.34,2.28,2.48,4.3,3.68,6.27
		c4.7,7.75,8.21,16.05,10.08,24.88c4,18.83,0.92,36.3-10.6,52.09c-5.54,7.59-12.03,14.14-19.4,19.9c-1.78,1.39-3.32,3.08-4.96,4.62
		c2.39,5.88,7.29,6.91,12.24,7.83c21.89,4.07,43.76,8.28,65.71,12.05C1600.49,1112.11,1604.68,1114.19,1608.99,1110.24z"/>
</g>
</svg>
