<?xml version="1.0" encoding="utf-8"?>
<!-- Generator: Adobe Illustrator 23.1.0, SVG Export Plug-In . SVG Version: 6.00 Build 0)  -->
<svg version="1.1" id="Layer_1" xmlns="http://www.w3.org/2000/svg" xmlns:xlink="http://www.w3.org/1999/xlink" x="0px" y="0px"
	 viewBox="0 0 399.3 220.8" style="enable-background:new 0 0 399.3 220.8;" xml:space="preserve">
<g>
	<path d="M180.02,202.72c-0.56-0.76-0.95-1.38-1.44-1.93c-0.35-0.39-0.78-0.75-1.25-0.98c-0.62-0.31-1.15-0.28-1.55,0.51
		c-0.68,1.36-1.5,2.66-2.24,3.99c-0.83,1.47-2.24,2.24-3.71,2.73c-1.91,0.64-3.91,1.09-5.9,1.43c-1.2,0.21-2.51,0.22-3.44-0.94
		c-0.16-0.2-0.54-0.22-0.9-0.35c-0.06-1.56,0.77-2.82,1.65-3.99c0.73-0.96,1.76-1.68,2.53-2.62c0.91-1.12,1.74-2.32,2.5-3.55
		c1.52-2.46,2.95-4.97,4.47-7.44c1.72-2.81,3.1-5.75,4.04-8.94c0.72-2.46,1.91-4.78,2.93-7.15c1.43-3.31,2.63-6.7,3.16-10.27
		c0.15-1.01-0.24-2.1-0.29-3.15c-0.13-2.56-2.22-3.46-3.88-4.78c-2.71-2.16-5.52-4.23-7.96-6.67c-1.72-1.72-2.48-4.19-2.65-6.64
		c-0.27-3.92,0.35-7.81,1.22-11.61c0.96-4.18,2.07-8.34,3.42-12.4c1.84-5.52,4.63-10.58,8.31-15.14c0.42-0.52,0.64-1.23,0.87-1.88
		c0.3-0.84,0.33-1.84,0.8-2.55c1.57-2.35,1.31-5.04,1.63-7.62c0.05-0.41-0.05-0.86-0.17-1.27c-0.7-2.19-1.42-4.37-2.18-6.68
		c-0.57,0.35-1.17,0.73-1.77,1.1c0.54,0.78,0.97,1.41,1.52,2.19c-0.67,0.09-1.04,0.13-1.41,0.18c0.48,0.97,0.92,1.88,1.37,2.78
		c-0.1,0.11-0.21,0.21-0.31,0.32c-0.74-0.11-1.48-0.22-2.27-0.34c0.22,1.8,0.49,3.66,0.66,5.53c0.03,0.38-0.41,1.17-0.48,1.15
		c-0.62-0.15-1.23-0.38-1.77-0.71c-0.3-0.18-0.44-0.61-0.76-1.1c-0.44,2.86-0.83,5.55-1.3,8.22c-0.08,0.45-0.51,0.85-0.78,1.27
		c-0.33-0.3-0.79-0.53-0.98-0.9c-0.65-1.31-1.2-2.67-1.74-3.89c-0.49,2.09-1.3,4.19-2.77,6.1c-0.89,1.16-1.25,2.74-1.86,4.12
		c-0.24,0.56-0.51,1.1-0.77,1.65c-0.14,0.01-0.28,0.01-0.43,0.02c-0.24-0.61-0.64-1.2-0.69-1.83c-0.19-2.51-0.47-5.02,0.14-7.54
		c0.26-1.08,0.28-2.21,0.39-3.19c-2.1,1.52-2.76,4.03-3.77,6.35c-0.26,0.6-0.92,1.04-1.4,1.55c-0.23-0.67-0.62-1.33-0.66-2.01
		c-0.35-5.16,1.07-10.07,2.27-15.01c0.23-0.93,0.5-1.85,0.67-2.47c-0.92,0.66-2.06,1.39-3.1,2.25c-0.8,0.66-1.44,1.5-2.21,2.19
		c-0.35,0.31-0.85,0.44-1.29,0.66c-0.09-0.49-0.32-1.01-0.25-1.48c0.47-3.38,2.55-5.91,4.61-8.43c0.61-0.75,1.32-1.44,1.86-2.23
		c0.24-0.35,0.33-0.92,0.25-1.34c-0.67-3.69-1.37-7.38-2.12-11.05c-0.35-1.72-0.9-3.4-1.24-5.11c-0.16-0.79-0.15-1.65-0.05-2.45
		c0.21-1.66,0.42-3.35,0.87-4.95c0.25-0.89,0.98-1.65,1.49-2.46c0.19-0.3,0.53-0.58,0.55-0.89c0.24-2.8,1.94-4.84,3.63-6.82
		c0.6-0.7,1.69-1,2.6-1.4c0.17-0.07,0.67,0.2,0.72,0.4c0.06,0.22-0.16,0.56-0.34,0.8c-0.57,0.76-1.18,1.48-1.74,2.25
		c-0.11,0.16-0.03,0.45-0.04,0.68c0.2-0.03,0.43,0,0.6-0.08c1.43-0.68,2.82-1.48,4.29-2.04c0.7-0.27,1.65-0.47,2.32,0.59
		c-2.28,1.54-4.56,3.07-6.83,4.6c0.06,0.1,0.11,0.19,0.17,0.29c1.23-0.29,2.45-0.58,3.68-0.88c1.19-0.29,4.88,0.99,5.47,1.95
		c0.23,0.38,0.34,0.82,0.55,1.34c-0.41,0.06-0.64,0.16-0.85,0.12c-1.49-0.28-2.97-0.58-4.45-0.9c-1.22-0.26-2.34,0.34-2.39,1.34
		c2.43-0.39,4.21,0.4,5.36,2.72c0.41,0.83,0.56,1.73-0.27,2.27c-1.02-0.79-1.96-1.5-2.87-2.23c-0.66-0.53-1.26-0.48-1.75,0.17
		c-1.16,1.53-2.17,3.19-3.45,4.6c-1.24,1.37-0.83,2.54-0.33,4.04c1.18,3.52,3.41,6.32,5.7,9.12c0.29,0.36,0.51,0.77,0.74,1.12
		c1.85-2.5,3.74-4.97,5.55-7.5c0.62-0.86,0.95-1.93,1.53-2.82c0.87-1.31,2-2.47,2.72-3.85c0.49-0.95,1.57-0.55,2.05-1.37
		c-0.28-0.76-0.51-1.58,0.98-1.42c-0.19-0.48-0.33-0.86-0.52-1.34c1.94-0.51,2.85-1.96,3.53-3.7c1.37-3.51,4.09-5.89,6.92-8.22
		c1.66-1.36,3.2-2.9,4.57-4.54c1.34-1.61,1.29-3.54,0.25-4.71c-1.35-1.51-3.41-1.87-5.27-0.94c-1.46,0.73-2.9,1.5-4.39,2.16
		c-0.51,0.22-1.16,0.15-1.74,0.21c-0.7,0.07-1.44-0.23-2.04,0.56c-0.14,0.19-1.2-0.08-1.67-0.39c-2.88-1.9-3.01-6.37-1.2-8.51
		c0.61-0.72,1.68-1.04,2.36-1.72c0.93-0.93,1.91-1.92,2.45-3.07c0.75-1.59,1.62-2.94,3.09-3.98c1.34-0.94,1.82-2.51,2.27-4.02
		c0.72-2.42,1.17-4.94,2.98-7.05c0.1,1.22,0.43,2.48,0.24,3.65c-0.18,1.17-0.88,2.25-1.34,3.38c0.12,0.05,0.24,0.11,0.36,0.16
		c1.25-1.35,2.43-2.76,3.76-4.02c0.99-0.94,2.21-1.63,3.23-2.55c0.77-0.69,1.44-1.52,2.03-2.38c1.63-2.35,3.36-4.59,5.7-6.28
		c0.51-0.37,1.16-0.56,1.81-0.86c-0.74,1.84-1.3,3.55-2.12,5.14c-0.32,0.62-1.22,0.95-1.84,1.42c-0.43,0.33-0.85,0.67-1.28,1
		c0.11,0.14,0.14,0.22,0.19,0.23c0.54,0.15,1.08,0.29,1.62,0.44c-0.33,0.4-0.69,0.77-0.97,1.2c-0.64,0.97-1.27,1.95-1.86,2.95
		c-0.37,0.63-0.64,1.31-0.87,1.78c1.45-0.41,3.06-0.75,4.57-1.34c0.99-0.39,1.85-1.14,2.75-1.76c3.87-2.69,7.83-5.2,12.37-6.63
		c2.19-0.69,4.39-1.37,7.03-1.07c-1.43,0.95-2.66,1.72-3.83,2.57c-0.53,0.39-1.01,0.89-1.41,1.43c-0.66,0.9-1.29,1.28-2.57,1.08
		c-1.15-0.18-2.43,0.43-3.54,0.66c1.63,0.29,3.44,0.21,4.81,0.96c1.84,1,3.42,0.31,5.1,0.04c3.19-0.52,6.35-0.57,9.48,0.38
		c0.4,0.12,0.76,0.4,1.19,0.64c-2.83,0.76-5.48,1.56-8.16,2.13c-1,0.22-2.11-0.09-3.17-0.15c-3.16-0.16-6.16,0.58-9.13,1.55
		c-0.24,0.08-0.47,0.19-0.4,0.16c1.23,0.27,2.7,0.54,4.12,0.95c0.34,0.1,0.55,0.65,0.83,1c-0.34,0.23-0.66,0.52-1.03,0.68
		c-0.96,0.41-1.94,0.76-3.07,1.19c2.53,0.34,4.91,0.49,7.2,1.01c2.31,0.53,4.53,1.47,6.5,3.25c-0.51,0.11-0.91,0.24-1.33,0.28
		c-1.92,0.18-3.85,0.35-5.78,0.47c-0.4,0.02-0.94-0.04-1.2-0.29c-1.8-1.72-4.1-1.98-6.39-2.32c-0.44-0.07-0.88-0.1-1.37-0.16
		c0.6,0.7,1.17,1.33,1.68,1.99c0.14,0.18,0.23,0.61,0.13,0.71c-0.19,0.19-0.54,0.3-0.82,0.31c-1.95,0.02-3.9,0.01-5.85,0.01
		c-0.05,0.11-0.09,0.23-0.14,0.34c0.73,0.46,1.44,0.97,2.21,1.36c2.36,1.2,4.51,2.61,5.61,5.15c0.32,0.74,0.55,1.52,0.86,2.39
		c-1.43-0.79-2.85-1.36-4-2.27c-1.15-0.91-2.03-2.15-2.98-3.18c-1.97,0.49-3.43-1.06-5.16-1.03c0.8,1.02,1.69,2.05,2.45,3.17
		c0.41,0.6,0.6,1.34,0.85,2.03c0.05,0.14-0.01,0.45-0.1,0.49c-0.17,0.07-0.43,0.06-0.59-0.03c-0.44-0.26-0.84-0.58-1.52-0.71
		c0.4,0.7,0.8,1.39,1.24,2.15c-0.85,1.36-0.84,1.45,0.38,2.83c-0.15,0.19-0.27,0.51-0.48,0.59c-1.31,0.47-1.11,1.42-0.8,2.39
		c0.21,0.66,0.46,1.29-0.44,1.64c-0.09,0.03-0.2,0.17-0.19,0.25c0.12,1.45-0.81,1.22-1.88,1.01c0.03,0.55,0.06,1.01,0.08,1.56
		c-2.38-0.46-2.53,1.79-3.45,3.04c-2.1,2.83-1.99,6.06-1.49,9.32c0.1,0.05,0.21,0.1,0.31,0.15c0.62-1.01,1.29-2,1.83-3.06
		c0.34-0.68,0.58-1.08,1.38-0.53c0.44,0.31,1.02,0.42,1.54,0.62c0,0.14-0.01,0.29-0.01,0.43c1.08-0.6,2.21-1.14,3.24-1.83
		c1.12-0.75,1.2-0.79,1.7,0.53c1.14-0.79,1.14,0.28,1.35,0.72c3.77-0.41,7.46-0.81,11.16-1.21c3.84-0.41,7.68-0.74,11.51-1.21
		c6.21-0.77,12.04-2.65,17.42-5.91c4.85-2.94,9.74-5.8,14.6-8.73c0.51-0.31,0.94-0.8,1.34-1.27c0.92-1.08,2.03-1.97,2.94-3.08
		c1-1.23,0.93,0.38,1.48,0.88c1.02-0.79,2.01-1.67,3.11-2.4c0.8-0.53,1.74-1.24,2.59-1.2c1.85,0.09,3.19-1.05,4.78-1.53
		c0.33-0.1,0.69-0.26,1.02-0.23c2.37,0.22,4.61-0.42,6.84-1.06c2.24-0.64,4.43-0.52,6.51,0.56c1.28,0.66,2.38-0.1,3.49-0.45
		c3.19-1.03,6.33-2.25,9.53-3.26c2.19-0.69,4.38-1.38,6.79-0.97c0.8,0.14,1.76-0.52,2.61-0.88c6.44-2.67,13.07-4.73,19.88-6.16
		c3.45-0.72,6.94-1.26,10.44-1.68c2.36-0.28,4.76-0.2,7.14-0.27c0.3-0.01,0.63,0.07,0.91,0.19c0.54,0.23,1.05,0.53,1.58,0.8
		c-0.5,0.44-0.93,1.07-1.51,1.29c-1.47,0.56-3,0.93-4.46,1.57c1.47-0.34,2.93-0.75,4.41-1.01c2.93-0.51,5.86-1.13,8.82-1.37
		c4.15-0.34,8.33-0.46,12.49-0.48c1.86-0.01,3.74,0.4,5.58,0.78c0.57,0.12,1.34,0.67,1.48,1.17c0.29,1.03-0.82,1.14-1.45,1.32
		c-2.92,0.86-5.86,1.63-8.8,2.43c-4.4,1.19-8.81,2.36-13.15,4.79c1.87-0.3,3.4-0.58,4.93-0.79c2.3-0.32,4.59-0.72,6.9-0.85
		c3.5-0.2,7.01-0.37,10.5-0.22c3.35,0.15,6.69,0.74,9.81,2.14c0.48,0.22,0.85,0.7,1.53,1.29c-0.99,0.45-1.65,0.9-2.37,1.04
		c-2.76,0.54-5.54,1.02-8.33,1.46c-3.85,0.61-7.54,1.68-11.01,3.48c-0.43,0.22-0.89,0.41-1.31,0.6c2.13,0,4.23,0,6.33,0
		c2.97,0.01,5.88,0.41,8.67,1.44c1.71,0.63,3.35,1.39,4.57,2.82c0.28,0.33,0.66,0.89,0.55,1.17c-0.14,0.36-0.7,0.7-1.13,0.79
		c-0.92,0.18-1.88,0.28-2.81,0.25c-4.1-0.1-8.03,0.69-11.94,1.87c-3.06,0.93-6.22,1.49-9.34,2.23c-0.21,0.05-0.4,0.19-0.64,0.31
		c2.43,0.22,4.78,0.36,7.11,0.65c4.98,0.62,9.8,1.76,13.85,4.95c0.49,0.39,0.78,1.03,1.17,1.55c-0.64,0.3-1.26,0.79-1.93,0.87
		c-1.22,0.14-2.48,0.08-3.71,0.03c-4.65-0.18-9.18,0.48-13.67,1.7c-1.99,0.54-4.1,0.65-6.15,0.95c-0.29,0.04-0.58,0.07-0.77,0.09
		c2.35,1.01,4.76,1.94,7.08,3.06c1.75,0.84,3.29,2.05,4.32,3.75c0.28,0.46,0.55,1.3,0.32,1.6c-0.33,0.45-1.12,0.84-1.68,0.8
		c-1.44-0.09-2.86-0.41-4.29-0.68c-3.38-0.62-6.78-1.08-10.24-0.96c-1.82,0.06-3.65,0.01-5.53,0.19c1.34,0.58,2.68,1.16,4.02,1.74
		c2.76,1.19,5.3,2.73,7.53,4.73c0.71,0.63,1.17,1.56,1.65,2.41c0.51,0.91,0.13,1.52-0.96,1.47c-0.97-0.05-1.94-0.26-2.89-0.45
		c-4.32-0.86-8.59-1.9-13.07-1.74c-2.23,0.08-4.48-0.47-6.66-0.73c2.06,1.69,4.23,3.3,6.2,5.13c1.24,1.16,2.27,2.59,2.6,4.38
		c0.22,1.17-0.09,1.78-1.24,1.54c-1.78-0.37-3.51-1-5.22-1.63c-2.36-0.88-4.76-1.48-7.28-1.71c-1.81-0.16-3.58-0.67-5.25-0.99
		c1.01,0.92,2.2,1.86,3.22,2.96c1.43,1.56,2.64,3.29,3.1,5.43c0.24,1.13-0.4,1.89-1.48,1.49c-1.82-0.67-3.59-1.49-5.36-2.3
		c-2.29-1.04-4.56-2.14-6.85-3.21c-0.09,0.13-0.17,0.27-0.26,0.4c0.56,0.56,1.14,1.11,1.68,1.7c1.83,1.96,2.71,4.37,3.04,6.97
		c0.16,1.29-0.78,1.89-1.99,1.26c-1.73-0.91-3.35-2.02-5.1-2.9c-2.64-1.32-5.34-2.5-8.01-3.75c-0.04,0.1-0.08,0.2-0.12,0.3
		c1.02,1.45,2.12,2.86,3.05,4.37c0.87,1.4,1.47,2.94,1.41,4.66c-0.05,1.46-0.95,2.11-2.24,1.4c-1.4-0.77-2.64-1.83-4.02-2.64
		c-2.25-1.33-4.56-2.56-6.85-3.83c-0.44-0.24-0.88-0.47-1.34-0.72c0.96,1.79,1.91,3.57,2.87,5.35c1.06,1.96,1.19,4.08,0.97,6.21
		c-0.07,0.71-0.67,1.36-1.03,2.04c-0.67-0.43-1.43-0.78-2-1.33c-0.76-0.73-1.43-1.58-2.04-2.44c-1.43-2.01-3.38-3.38-5.47-4.59
		c-0.25-0.15-0.49-0.32-0.98-0.64c1.89,2.54,3.31,4.99,3.75,7.85c0.17,1.14,0.04,2.35-0.13,3.51c-0.12,0.85-0.74,1.37-1.62,0.8
		c-1.87-1.2-3.75-2.4-5.52-3.73c-1.6-1.21-3.06-2.6-4.42-3.77c0.43,1.57,1.05,3.29,1.33,5.06c0.25,1.56,0.22,3.19,0.14,4.77
		c-0.06,1.1-0.96,1.45-1.92,0.84c-0.49-0.32-0.94-0.72-1.37-1.12c-2.58-2.37-5.15-4.75-7.67-7.09c0.76,2.26,1.67,4.45,2.19,6.73
		c0.26,1.14-0.1,2.47-0.39,3.67c-0.17,0.72-0.97,0.85-1.59,0.49c-1.37-0.81-2.78-1.6-4.01-2.6c-1.66-1.35-3.17-2.88-4.64-4.24
		c0.23,1.91,0.57,3.93,0.69,5.96c0.05,0.89-0.25,1.86-0.6,2.71c-0.48,1.17-1.07,1.28-1.95,0.36c-1.19-1.26-2.27-2.62-3.4-3.95
		c-0.4-0.47-0.77-0.96-1.24-1.54c0.12,2.12-0.12,4.06-1.07,5.86c-0.76,1.45-1.89,1.66-3.03,0.48c-1.67-1.73-3.26-3.53-5.03-5.46
		c0.16,0.76,0.37,1.42,0.42,2.09c0.16,2.31-0.75,4.31-2.01,6.16c-0.11,0.17-0.97,0.05-1.29-0.19c-0.57-0.44-1-1.07-1.5-1.63
		c-0.14,1.2,0.19,2.48-1.17,3.42c-0.79-1.45-0.54-3.55-2.65-4.07c-0.34,1.06-0.7,2.24-1.11,3.39c-0.16,0.45-0.37,0.96-0.71,1.27
		c-1.58,1.47-2.13,1.35-3.1-0.62c-0.66-1.36-1.25-2.75-2.18-4.14c-0.15,1.25-0.29,2.5-0.46,3.98c-0.44-0.36-0.85-0.7-1.17-0.96
		c-0.93,1.47-1.89,3.01-2.85,4.54c-0.17-0.01-0.34-0.03-0.52-0.04c-0.9-2.36-1.8-4.72-2.81-7.38c-0.22,2.37-0.72,4.33-2,6
		c-0.19,0.25-0.36,0.51-0.56,0.75c-2.06,2.37-2.57,1.18-3.42-0.68c-0.31-0.67-0.56-1.38-0.83-2.06c-0.28-0.68-0.55-1.36-0.82-2.02
		c-0.44,1.56-0.84,3.14-1.36,4.68c-0.17,0.5-0.67,1.26-1,1.25c-0.48-0.02-1.08-0.53-1.39-0.99c-1.56-2.33-3.03-4.71-4.42-6.89
		c-0.1,1.18-0.24,2.66-0.37,4.14c-0.17,0.04-0.34,0.08-0.51,0.11c-0.74-0.87-1.48-1.75-2.01-2.38c0.12,3.23,0.39,6.7,0.34,10.17
		c-0.06,3.51-0.45,7.02-0.67,10.53c-0.06,0.99,0.07,1.66,1.14,2.39c2.21,1.52,3.41,3.95,3.61,6.62c0.26,3.33,0.38,6.69,0.23,10.02
		c-0.12,2.57,0.78,4.57,2.59,6.14c2.4,2.08,2.55,4.58,2.07,7.43c-0.53,3.13-0.87,6.3-1.24,9.46c-0.28,2.39-0.52,4.78-0.72,7.17
		c-0.26,3.12,0.49,6.08,1.37,9.04c0.3,1.01,0.06,2.16,0.13,3.24c0.04,0.69,0.18,1.38,0.3,2.06c0.19,1.11,0.48,2.21,0.55,3.33
		c0.03,0.49-0.4,1.01-0.63,1.51c-0.11-0.03-0.21-0.06-0.32-0.08c0.57,1.78,1.07,3.59,1.75,5.33c0.72,1.84,0.5,3.58-0.41,5.2
		c-0.82,1.46-1.81,2.86-2.91,4.11c-1.26,1.43-1.71,1.31-2.59-0.28c-0.4,1.38-1.14,1.67-2.15,0.77c-2.14-1.91-3.98-4.05-4.58-6.98
		c-0.08-0.4-0.05-0.86,0.07-1.25c0.75-2.4,1.06-4.75,0.41-7.28c-0.35-1.35,0.07-2.9,0.11-4.36c0.03-0.93-0.05-1.86,0.02-2.78
		c0.13-1.68,0.25-3.38,0.54-5.04c0.54-3.05,0.86-6.07,0.44-9.17c-0.32-2.34-0.29-4.74-0.53-7.09c-0.44-4.25-1.23-8.43-3.08-12.35
		c-0.78-1.65-1.33-3.42-2.22-5c-0.46-0.82-1.36-1.44-2.17-1.99c-2.97-1.99-5.85-4.11-7.56-7.32c-0.96-1.8-1.75-3.79-2.12-5.78
		c-0.87-4.64-2.6-8.91-4.77-13.06c-0.84-1.62-1.48-3.35-2.23-5.08c-1.24,4.82-3.95,8.79-7.34,12.45c1.86,1.13,3.07,2.66,3.33,4.72
		c0.18,1.46,0.12,2.95,0.1,4.42c-0.04,2.42,0.29,4.75,0.91,7.11c0.64,2.43,2.15,4.02,4.05,5.39c2.24,1.62,2.51,2.61,0.91,4.82
		c-1.63,2.26-3.53,4.33-5.11,6.61c-3.71,5.34-5.95,11.3-7.26,17.66c-0.46,2.24-0.31,4.63-1.52,6.72c-0.12,0.2,0.03,0.58,0.12,0.86
		c0.33,1.03,0.67,2.07,1.05,3.09C181.19,200.73,180.69,201.63,180.02,202.72z"/>
</g>
</svg>
