<?xml version="1.0" encoding="utf-8"?>
<!-- Generator: Adobe Illustrator 24.0.2, SVG Export Plug-In . SVG Version: 6.00 Build 0)  -->
<svg version="1.1" id="Layer_1" xmlns="http://www.w3.org/2000/svg" xmlns:xlink="http://www.w3.org/1999/xlink" x="0px" y="0px"
	 viewBox="0 0 498.54 382.28" style="enable-background:new 0 0 498.54 382.28;" xml:space="preserve">
<g id="N-TEXT">
</g>
<g id="AG-OUTLINE">
	<g id="POLYLINE_3_">
		<path d="M469.45,174.44c5.92,2.8,12.65,4.41,19.16,5.07c2.75,0.28,5.62,0.22,8.23-0.79c0.59-0.23,1.54-0.61,1.68-1.34
			c0.14-0.73-0.63-1.33-1.13-1.7c-2.47-1.82-5.59-2.93-8.41-4.06c-3.27-1.31-6.56-2.58-9.89-3.75c-1.69-0.6-3.38-1.17-5.09-1.7
			c-0.82-0.26-1.64-0.5-2.47-0.74c-0.27-0.08-1.04-0.16-1.2-0.38c-0.13-0.19,0.05-0.97,0.06-1.24c0.3-6.99-0.09-14-1.34-20.88
			c-1.09-6.01-2.73-11.92-4.55-17.74c-2.8-8.9-5.59-17.8-8.39-26.7c-1.82-5.8-3.9-11.61-4.99-17.6c-1.11-6.09-0.43-12.66-3.26-18.33
			c-1.28-2.57-3.2-4.83-4.17-7.55c-0.86-2.42-0.94-5.03-2.01-7.39c-1.33-2.93-3.4-5.51-5.37-8.02c-1.89-2.41-3.86-4.76-5.8-7.12
			c-3.06-3.71-6.11-7.41-9.17-11.12c-1.77-2.15-3.55-4.29-5.52-6.26c-2.51-2.51-5.34-4.59-8.6-6.01c-3.05-1.33-6.29-2.16-9.53-2.86
			c-6.9-1.48-14-2.88-21.08-2.99c-3.17-0.05-6.3,0.33-9.38,1.09c-2.35,0.58-4.42,1.15-6.83,0.76c-3.64-0.58-7.24-1.37-10.88-1.96
			c-3.53-0.58-7.07-1.07-10.62-1.54c-6.85-0.9-13.9-1.84-20.82-1.52C315,0.2,312,0.73,309.17,1.92c-3.1,1.31-6.01,3.14-8.86,4.91
			c-3.08,1.9-6.12,3.88-9.1,5.94c-1.21,0.84-2.47,2-3.78,2.64c-0.76,0.37-1.64,0.59-2.44,0.87c-9.11,3.26-18.23,6.52-27.34,9.79
			c-5.86,2.1-11.73,4.16-17.55,6.39c-3.46,1.33-6.88,2.72-10.27,4.21c-3.11,1.36-6.18,2.96-9.43,3.99
			c-6.31,1.98-13.45,1.13-19.92,0.59c-6.85-0.57-13.67-1.49-20.48-2.38c-7.48-0.98-14.96-2.07-22.48-2.79
			c-6.73-0.64-13.6-1.19-20.31-0.07c-6.38,1.06-12.35,3.68-18.09,6.57c-6.34,3.19-12.49,6.78-18.32,10.82
			c-5.87,4.06-11.43,8.55-16.56,13.51c-5.19,5.01-9.84,10.5-14.13,16.29c-4.37,5.89-8.32,12.09-12.04,18.4
			c-3.55,6.03-6.83,12.22-9.87,18.51c-3.08,6.38-6.08,12.91-7.66,19.85c-1.51,6.63-1.69,13.51-1.86,20.29
			c-0.19,7.64-0.25,15.29-0.44,22.93c-0.18,6.95-0.26,14.09-1.78,20.9c-0.75,3.35-1.96,6.57-2.85,9.88
			c-0.89,3.32-1.48,6.71-1.92,10.12c-0.87,6.88-1.43,13.83-1.82,20.75c-0.4,7.32-0.86,14.65-1.06,21.98
			c-0.06,2.41-0.13,4.82-0.19,7.22c-0.03,0.97,0.08,2.07-0.15,3.03c-0.19,0.82-0.78,1.52-1.15,2.26c-0.47,0.92-0.86,1.89-1.09,2.89
			c-0.59,2.57,0.02,5.21,0.23,7.79c0.16,1.95-0.06,3.74-0.8,5.56c-1.22,3.03-2.87,5.85-3.44,9.1c-0.55,3.12-0.76,6.17-1.71,9.22
			c-2.14,6.88-5.39,13.42-8.16,20.06c-1.14,2.74-2.4,5.61-2.73,8.59c-0.27,2.47,0.5,4.91,0.32,7.38c-0.19,2.62-1.34,5.1-2.47,7.43
			c-1.6,3.3-3.29,6.55-4.6,9.98c-1.07,2.8-2.3,5.81-2.79,8.77c-0.17,1.01-0.12,2.07,0.49,2.92c0.75,1.04,2.05,1.56,3.23,1.9
			c2.91,0.86,6.06,0.99,9.07,1.13c7.14,0.33,14.29,0.17,21.44,0.13c4.64-0.02,9.28-0.05,13.92-0.07c2.68-0.01,5.39-0.01,8.06-0.36
			c1.34-0.18,3.12-0.43,3.98-1.63c0.74-1.02,0.52-2.46,0.28-3.61c-0.47-2.17-1.37-4.44-2.75-6.2c-1.13-1.44-2.46-1.53-4.04-2.23
			c-1.59-0.7-2.46-2.26-3.18-3.76c-1.3-2.72-2.22-5.7-2.79-8.65c-0.47-2.43-0.39-4.64,0.11-7.06c0.67-3.24,0.93-6.53,0.88-9.84
			c-0.05-3.23-0.06-6.33,0.45-9.54c0.56-3.55,1.35-7.05,2.21-10.54c1.68-6.83,3.7-13.61,6.36-20.13c2.48-6.08,5.57-12,10.44-16.52
			c5.07-4.7,11.5-7.12,17.41-10.5c2.9-1.66,5.7-3.49,8.42-5.42c0.91-0.64,1.81-1.3,2.71-1.95c0.25-0.18,0.35-0.32,0.56-0.27
			c0.33,0.08,0.95,1.07,1.17,1.32c0.89,1,1.81,1.97,2.86,2.82c2.48,2.01,5.48,3.31,8.4,4.52c3.2,1.33,6.46,2.56,9.75,3.68
			c1.6,0.55,3.27,1,4.98,0.8c2.17-0.25,4.2-1.39,6-2.57c0.31-0.2,0.62-0.42,0.93-0.63c0.45-0.32,0.5-0.44,1.03-0.21
			c0.38,0.16,0.76,0.34,1.11,0.57c0.4,0.25,0.81,0.57,1.05,0.99c0.57,1.02-0.05,2.29,0.33,3.39c0.66,1.89,3.02,3.03,4.46,4.21
			c1.41,1.16,2.48,2.43,3.04,4.19c0.73,2.31,1,4.45,2.37,6.49c1.86,2.77,3.89,5.36,5.46,8.32c3.12,5.88,5.15,12.33,6.38,18.85
			c1.33,7.04,1.82,14.2,2.74,21.3c0.45,3.45,1.01,6.89,2.06,10.21c1.01,3.17,2.53,6.01,4.21,8.86c1.46,2.48,2.17,4.85,2.41,7.71
			c0.23,2.77,0.24,5.77,1.33,8.38c1.85,4.44,7.76,4.5,11.82,4.77c6.7,0.44,13.65,0.37,20.27-0.84c2.89-0.53,5.86-1.3,8.39-2.84
			c2.13-1.29,3.63-3.19,4.99-5.24c1.89-2.86,4.11-5.47,6-8.32c0.91-1.37,1.73-2.91,1.63-4.61c-0.25-4.27-4.8-6.5-8.37-7.47
			c-2.64-0.71-5.45-1.03-7.77-2.58c-2.38-1.6-4.01-4.08-5.4-6.54c-3.56-6.28-6.07-13.12-8.73-19.81c-1.27-3.2-2.47-6.44-3.92-9.57
			c-1.37-2.95-3.29-5.59-4.57-8.57c-1.36-3.16-2.35-6.51-3.24-9.83c-0.88-3.23-1.67-6.51-2.13-9.84c-0.44-3.23-0.4-6.47-0.39-9.72
			c0.01-3.75-0.04-7.5,0.15-11.24c0.16-3.26,0.67-6.52,2.03-9.53c0.24-0.52,0.27-0.41,0.87-0.46c0.84-0.06,1.67-0.12,2.51-0.19
			c2.64-0.2,5.28-0.39,7.92-0.59c6.74-0.5,13.73-0.65,20.32-2.29c3.39-0.84,6.63-2.18,9.85-3.51c3.21-1.33,6.4-2.72,9.57-4.15
			c6.6-2.98,13.18-6.01,19.58-9.4c5.83-3.09,11.27-6.69,16.73-10.36c1.07,4.62,2.91,9.12,4.44,13.6c1.32,3.86,2.49,7.78,3.5,11.73
			c1.12,4.37,2.04,8.78,2.74,13.23c0.68,4.29,1.1,8.63,1.37,12.96c0.29,4.69,0.44,9.38,0.5,14.07c0.06,4.59-0.01,9.19-0.08,13.78
			c-0.07,4.42-0.22,8.83-0.35,13.25c-0.13,4.54-0.34,9.09-0.35,13.63c-0.01,4.14,0.37,8.01,1.91,11.88
			c1.29,3.25,2.55,6.35,2.42,9.91c-0.09,2.4-0.62,5.01-2.08,6.96c-1.53,2.05-4.1,2.9-5.76,4.8c-2.03,2.32-2.25,5.86-2.69,8.75
			c-0.28,1.87-1.07,4.46,0.32,6.1c1.35,1.59,3.96,1.91,5.85,2.19c4.28,0.63,8.64,0.71,12.95,0.81c4.5,0.1,9.01,0.18,13.51,0.21
			c4.59,0.03,9.18,0.04,13.76-0.11c3.65-0.12,7.9,0,11.34-1.44c1.5-0.63,2.61-1.77,2.39-3.48c-0.18-1.44-1.04-2.72-2.04-3.73
			c-0.31-0.32-0.64-0.62-0.99-0.9c-0.52-0.42-0.39-0.49-0.2-1.14c0.33-1.14,0.68-2.28,0.97-3.44c0.55-2.18,0.71-4.34,0.81-6.58
			c0.16-3.38,0.96-6.3,2.64-9.24c2.28-3.98,5.15-7.64,7.81-11.36c1.88-2.64,3.76-5.68,6.42-7.61c1.44-1.04,3.26-1.38,4.26-2.94
			c0.89-1.38,1.34-3,2.02-4.48c0.51-1.11,1.21-2.15,1.56-3.33c0.69-2.36-0.05-4.9,0.53-7.31c0.47-1.93,1.34-3.75,1.98-5.63
			c0.63-1.88,1.09-3.8,1.35-5.76c0.52-3.83,0.54-7.84-0.2-11.64c-0.78-4.04-2.91-7.65-4.76-11.27c-1.67-3.26-3.22-6.58-4.72-9.92
			c-2.53-5.62-5.06-11.25-7.6-16.87c-0.63-1.4-1.26-2.79-1.9-4.18c-0.71-1.53-1.63-3.04-2.15-4.65c-0.47-1.45-0.21-3.14-0.25-4.64
			c-0.06-2-0.25-4-0.68-5.96c-0.91-4.08-2.63-7.93-3.56-12.02c-0.83-3.69-1.03-7.48-0.8-11.25c0.25-4.11,0.94-8.19,1.72-12.22
			c0.48-2.5,1.01-4.99,1.45-7.5c0.18-1.03,0.28-2.06,0.4-3.1c0.11-0.99,0.83-1.84,1.32-2.7c2.1-3.74,3.7-7.72,4.82-11.86
			c1.1-4.07,1.74-8.25,1.96-12.46c0.39,0,1.16,0.56,1.53,0.72c0.46,0.21,0.93,0.41,1.41,0.6c1.02,0.4,2.07,0.75,3.14,0.98
			c1.05,0.22,2.13,0.33,3.2,0.19c1.99-0.25,4.02-1.33,5.3-2.88c1.03-1.25,1.62-2.8,2.05-4.34c0.72,1.46,1.54,2.91,2.82,3.96
			c1.58,1.29,3.66,1.79,5.56,2.4c1.04,0.33,2.27,0.7,2.98,1.6c0.78,0.98,0.6,2.33,0.56,3.5c-0.02,0.57-0.19,1.79,0.58,2
			c0.52,0.14,1.15-0.31,1.48-0.65c0.81-0.84,0.61-1.95,0.59-3.02c-0.05-2.68,0.57-5.27,1.23-7.85c0.8-3.12,1.69-6.24,2.25-9.41
			c0.49-2.79,0.54-5.57,0.29-8.39c-0.07-0.83-0.16-1.65-0.23-2.48c1.39,0,2.93-0.06,4.21,0.59c1.52,0.77,2.67,2.22,3.9,3.34
			c0.9,0.82,1.85,1.55,2.98,2.03c1.8,0.78,3.79,1.02,5.67,1.54c4.71,1.29,9.41,3.09,13.8,5.22c1.38,0.67,2.89,1.38,3.99,2.48
			c0.76,0.76,0.94,1.66,1.44,2.58c0.36,0.65,0.94,1.04,1.61,1.34c1.53,0.71,3.31,1.12,4.99,1.22c0.56,0.04,1.51-0.3,1.85,0.25
			c0.17,0.27,0.12,0.81,0.14,1.1c0.09,1.35,0.15,2.7,0.25,4.04c0.13,1.63,0.2,3.37,0.76,4.93c0.29,0.79,0.88,1.45,1.05,2.28
			c0.28,1.36-0.18,2.93-0.34,4.27c-0.17,1.38-0.25,2.78,0.01,4.15c0.22,1.15,0.63,2.29,1.28,3.27c0.48,0.72,0.72,1.26,0.82,2.13
			c0.2,1.72,0.13,3.47,0.08,5.2c-0.09,3.45-0.17,6.89-0.26,10.34c-0.13,5.04-0.23,10.07-0.21,15.12c0.03,5.15,0.19,10.3,0.46,15.44
			c0.26,4.87,0.56,9.74,0.99,14.59c0.51,5.77,1.05,11.52,1.64,17.28c0.5,4.86,1.05,9.72,1.68,14.56c0.68,5.24,1.47,10.46,2.47,15.65
			c1.01,5.21,2.25,10.37,3.39,15.55c1.03,4.66,2.02,9.42,2.11,14.22c0.05,2.6-0.12,5.67-1.78,7.82c-0.85,1.1-2.14,1.8-3.54,1.42
			c-1.42-0.39-1.83-1.42-1.7-2.8c0.23-2.43,1.75-5.66,0.26-7.99c-1.33-2.08-4.41-1.99-6.56-1.8c-2.31,0.21-4.62,0.69-6.85,1.33
			c-1.23,0.35-2.61,0.71-3.65,1.49c-1.46,1.08-0.71,2.9-0.47,4.4c0.27,1.7,1.21,3.22,2,4.72c1.11,2.1,2.27,4.18,3.52,6.19
			c2.31,3.71,4.94,7.66,8.58,10.2c1.98,1.38,4.29,2.22,6.71,2.26c3.91,0.08,7.68-1.72,10.82-3.9c3.09-2.15,5.81-4.89,7.89-8.03
			c2.2-3.32,3.53-7.09,4.19-11.01c0.83-4.89,0.71-9.89,0.37-14.83c-0.35-5.11-0.89-10.21-1.25-15.32c-0.37-5.3-0.66-10.6-0.83-15.91
			c-0.16-5.05-0.28-10.1-0.29-15.15c-0.02-5.54,0.04-11.07,0.17-16.6c0.11-4.93,0.35-9.86,0.72-14.77
			c0.39-5.2,0.95-10.37,1.67-15.53c0.72-5.13,1.67-10.23,2.71-15.3c1.11-5.41,2.33-10.8,3.48-16.2
			C468.03,183.42,468.82,178.94,469.45,174.44z"/>
	</g>
</g>
</svg>
