<?xml version="1.0" encoding="utf-8"?>
<!-- Generator: Adobe Illustrator 24.0.2, SVG Export Plug-In . SVG Version: 6.00 Build 0)  -->
<svg version="1.1" id="Layer_1" xmlns="http://www.w3.org/2000/svg" xmlns:xlink="http://www.w3.org/1999/xlink" x="0px" y="0px"
	 viewBox="0 0 446.25 295.85" style="enable-background:new 0 0 446.25 295.85;" xml:space="preserve">
<g id="N-TEXT">
</g>
<g id="AG-OUTLINE">
	<g id="POLYLINE_309_">
		<path d="M288.04,191.24c3.13,1.03,7.05,0.49,10-0.85c1.87-0.85,3.68-2.11,4.97-3.71c1.48-1.83,2.49-4.09,3.82-6.04
			c1.61-2.37,3.29-4.69,5.08-6.92c1.74-2.18,3.79-4.05,5.6-6.17c3.35-3.92,4.96-9.16,6.55-13.98c1.89-5.7,3.4-11.54,5.48-17.18
			c0.77-2.08,1.86-3.38,3.26-5.1c1.81-2.21,3.55-4.48,5.28-6.75c3.69-4.83,7.3-9.72,10.76-14.71c3.34-4.82,6.37-9.82,9.34-14.87
			c1.5-2.55,2.92-5.17,4.65-7.58c0.71-0.99,1.48-1.94,2.31-2.85c0.53-0.58,1.08-1.15,1.62-1.72c0.18-0.19,0.36-0.38,0.54-0.57
			c0.39-0.42,0.47-0.37,1.05-0.36c2.52,0.03,5.07-0.03,7.52-0.66c1.17-0.3,2.44-0.81,3.67-0.58c1.35,0.25,2.53,1.09,3.86,1.42
			c1.81,0.45,3.71,0.32,5.55,0.17c5.82-0.49,11.57-1.09,17.43-0.88c2.77,0.1,5.56,0.31,8.27,0.88c2.76,0.58,5.34,1.7,8.04,2.46
			c4.86,1.38,10.74,1.65,15.59,0.09c2.04-0.66,3.68-1.88,4.59-3.85c0.64-1.39,0.78-2.95,1.43-4.32c0.6-1.26,1.41-2.26,1.66-3.66
			c0.43-2.35,0.67-5.48-1.59-6.92c-2.26-1.45-4.55-2.77-6.67-4.42c-2.19-1.7-4.17-3.63-6.11-5.6c-2.08-2.11-4.23-4.18-6.07-6.5
			c-1.66-2.1-3.1-4.34-4.57-6.57c-1.72-2.63-3.48-5.25-5.17-7.91c-0.72-1.13-1.48-2.35-1.7-3.69c-0.22-1.37,0.21-2.74,0.06-4.1
			c4.16-0.12,8.42-1.42,12.01-3.53c1.69-1,3.13-2.33,4.4-3.83c0.82-0.96,1.61-1.95,2.41-2.93c0.2-0.25,0.46-0.54,0.52-0.86
			c0.14-0.68-0.45-1.23-0.9-1.65c-1.52-1.42-3.39-2.58-5.23-3.56c-1.09-0.57-2.26-1.14-3.51-1.22c-0.65-0.04-1.29,0.08-1.92,0.19
			c-0.46,0.08-0.6,0.18-0.88-0.12c-0.26-0.28-0.42-0.72-0.64-1.04c-2.75-3.85-7.84-5.47-12.22-6.6c-4.7-1.2-9.55-1.79-14.39-1.52
			c-1.19,0.07-2.37,0.18-3.55,0.34c-1.3,0.17-2.67-0.46-3.98-0.64c-2.4-0.33-4.86-0.3-7.27-0.06c-2.53,0.24-5.05,0.73-7.47,1.5
			c-1.21,0.38-2.39,0.83-3.54,1.36c-0.7,0.32-1.14,0.59-1.92,0.57c-0.64-0.01-1.28-0.02-1.92-0.01c-2.76,0.03-6.93,0-8.66,2.66
			c-1.04,1.61-1.04,3.93-0.36,5.68c0.16,0.42,0.37,0.82,0.64,1.19c-1.22,0.74-2.63,1.24-3.72,2.19c-0.72,0.63-1.14,1.53-1.82,2.2
			c-1.33,1.29-3.06,2.18-4.7,3c-2.16,1.07-4.38,2-6.62,2.89c-3.6,1.43-7.22,2.78-10.86,4.1c-6.49,2.36-12.98,4.71-19.46,7.07
			c-4.83,1.76-9.66,3.53-14.5,5.27c-1.71,0.61-3.43,1.24-5.22,1.59c-1.95,0.38-3.94,0.37-5.92,0.29c-5.67-0.23-11.34-0.85-17-1.31
			c-4.59-0.37-9.18-0.66-13.78-0.73c-4.43-0.07-8.77,0.31-13.13,1.09c-5.36,0.96-10.71,1.91-16.12,2.55
			c-5.25,0.62-10.53,0.97-15.81,1.34c-5.16,0.36-10.33,0.56-15.49,0.78c-4.79,0.21-9.58,0.34-14.37,0.43
			c-5.18,0.1-10.36,0.2-15.54,0.2c-5.03,0.01-10.07-0.02-15.1-0.12c-5.22-0.1-10.43-0.21-15.65-0.4c-4.44-0.16-8.89-0.38-13.33-0.57
			c-7.39-0.31-14.79-0.63-22.18-0.94c-3.97-0.17-7.94-0.34-11.92-0.44c-4.98-0.12-9.95-0.04-14.92,0.05
			c-2.54,0.05-5.09,0.15-7.63,0.09c-2.42-0.05-4.84-0.29-7.26-0.46c-4.84-0.35-9.64-0.44-14.42,0.51c-4.52,0.9-8.9,2.56-12.81,5.01
			c-3.66,2.29-6.87,5.24-9.48,8.67c-2.83,3.73-4.93,7.96-6.46,12.37c-1.53,4.41-2.53,9.01-3.16,13.63
			c-0.68,4.95-0.96,9.94-1.03,14.94c-0.07,4.99,0.02,9.99,0.25,14.98c0.25,5.46,0.6,10.91,0.99,16.36
			c0.39,5.37,0.89,10.73,1.33,16.09c0.39,4.65,0.81,9.31,1.1,13.97c0.3,4.93,0.55,9.9,0.11,14.84c-0.43,4.93-1.75,9.63-3.46,14.26
			c-1.71,4.62-3.74,9.14-5.08,13.88c-1.26,4.49-1.8,9.22-1.49,13.88c0.13,2,0.41,4.02,1.04,5.94c0.54,1.66,1.47,3.01,2.33,4.52
			c0.38,0.67,0.6,1.37,0.69,2.13c0.23,1.95,0.07,3.88,0.49,5.82c0.49,2.28,1.29,4.49,2.11,6.67c0.69,1.82,1.35,3.81,2.44,5.44
			c0.22,0.34,0.62,0.99,1.01,0.54c0.16-0.19,0.14-0.65,0.15-0.86c0.05-1.02-0.08-2.06-0.15-3.08c-0.14-2.09-0.28-4.18,0.13-6.25
			c0.42-2.14,1.42-4.06,2.23-6.06c1.77-4.36,2.59-9.03,3.25-13.67c0.68-4.81,1.21-9.7,1.15-14.57c-0.06-4.67-0.88-9.24-0.71-13.92
			c0.09-2.44,0.32-4.89,0.2-7.33c-0.14-2.73-0.35-5.46-0.53-8.19c-0.33-5.13-0.62-10.26-0.86-15.39c-0.22-4.8-0.42-9.61-0.56-14.42
			c-0.15-5.38-0.27-10.76-0.28-16.15c-0.01-4.98,0.04-9.97,0.32-14.94c0.28-5.12,0.75-10.23,1.49-15.3c0.36-2.47,0.8-4.93,1.31-7.38
			c0.24-1.16,0.49-2.32,0.76-3.48c0.09-0.39,0.19-1.81,0.55-2.07c0.39-0.28,0.68,0.6,0.74,0.93c0.4,2.03,0.17,4.23,0.32,6.29
			c0.35,4.91,1.3,9.75,2.43,14.53c1.14,4.8,2.38,9.63,4.13,14.25c0.81,2.14,1.92,4.15,2.76,6.27c0.79,1.98,1.17,4.06,1.47,6.16
			c0.7,4.83,0.99,9.82,2.28,14.54c0.87,3.19,3.07,5.88,3.38,9.22c0.42,4.5-1.04,9.21-2.14,13.52c-1.35,5.3-2.89,10.55-4.35,15.81
			c-0.54,1.93-1.03,3.9-1.34,5.88c-0.21,1.33,0.1,2.01-1.11,2.54c-2.14,0.94-3.86,2.56-4.93,4.65c-1.61,3.16-1.73,6.97-1.73,10.44
			c0,4.93,0.76,9.73,1.18,14.62c0.41,4.81-0.59,9.77-1.27,14.52c-0.74,5.18-1.59,10.34-2.46,15.5c-0.79,4.69-1.59,9.43-2.82,14.03
			c-0.65,2.45-1.79,5.39-0.72,7.91c0.76,1.81,2.78,1.66,4.07,2.86c0.64,0.6,0.91,1.51,1.18,2.32c0.76,2.26,1.56,4.48,2.68,6.59
			c1.27,2.39,2.92,4.93,5.42,6.17c1.17,0.58,2.47,0.85,3.76,1c2.57,0.29,5.2,0.28,7.79,0.38c2.4,0.1,4.82,0.23,7.22,0.23
			c1.36,0,3.13,0.13,4.4-0.48c1.15-0.55,0.68-1.66,0.18-2.55c-1.21-2.17-2.7-4.22-4.03-6.32c-1.17-1.84-2.37-3.69-3.83-5.31
			c-0.94-1.04-2.02-1.9-3.3-2.5c-1.28-0.6-2.78-0.88-3.89-1.82c-0.9-0.77-1.38-1.9-1.7-3.02c-0.58-2.02-0.75-4.16-0.89-6.25
			c-0.35-4.98-0.37-10.01-0.22-15c0.15-4.93,0.44-9.9,1.3-14.77c0.8-4.53,2.06-9.15,4.38-13.16c0.51-0.89,1.09-1.74,1.76-2.51
			c0.47-0.54,1.07-1,1.48-1.6c0.53-0.78,0.44-1.8,0.6-2.69c0.21-1.13,0.65-2.17,1.21-3.18c0.65-1.17,1.39-2.28,2.1-3.41
			c0.25-0.39,0.66-0.89,0.75-1.36c0.07-0.37-0.14-0.62-0.05-0.99c0.09-0.37,0.4-0.75,0.61-1.05c0.63-0.91,1.33-1.77,2.04-2.62
			c2.84-3.4,5.95-6.58,9.36-9.4c-1.6,3.89-2.69,7.88-2.08,12.11c0.59,4.11,2.32,8.3,4.57,11.77c1.21,1.86,3.18,2.86,4.34,4.73
			c2.32,3.72,3.66,8.22,4.98,12.37c1.44,4.52,2.64,9.12,3.59,13.77c0.98,4.77,1.71,9.58,2.32,14.4c0.58,4.65,0.66,9.35,1.25,13.99
			c0.09,0.68,0.17,1.55,0.7,2.06c0.59,0.57,1.55,0.52,2.29,0.69c2.29,0.53,3.55,2.96,4.66,4.81c1.72,2.87,3.3,5.82,6.48,7.27
			c3.66,1.67,8.16,1.54,12.1,1.48c2.38-0.04,4.76-0.11,7.14-0.24c1.04-0.06,2.47-0.01,3.42-0.56c1.32-0.76-0.27-2.75-0.77-3.51
			c-2.25-3.45-4.96-6.77-8.13-9.42c-1.69-1.42-3.55-2.64-5.54-3.6c-1.41-0.68-2.92-0.93-4.34-1.51c-1.92-0.79-2.52-3.74-3.04-5.45
			c-1.31-4.27-2.34-8.65-3.32-13c-1.12-4.92-2.23-9.85-3.27-14.79c-1.05-4.96-2.08-9.93-3.03-14.91c-0.87-4.59-1.66-9.2-2.05-13.86
			c-0.19-2.29-0.31-4.59-0.48-6.89c1.71,0.43,3.38,0.38,5.13,0.18c0.7-0.08,3.46-0.7,3.85-0.2c0.26,0.33,0.3,1.29,0.39,1.71
			c0.13,0.63,0.26,1.26,0.42,1.89c0.16,0.64,1.01,4.3,2.4,3.32c0.34-0.24,0.54-0.76,0.71-1.12c0.58-1.25,1.2-2.51,1.7-3.8
			c1.65,2.6,1.39,5.94,2.91,8.55c0.36,0.63,1.06,1.32,1.71,0.62c0.5-0.54,0.63-1.52,0.75-2.2c0.42-2.2,0.6-4.45,1.27-6.59
			c0.55-1.78,1.38-4.2,3.37-4.78c3.85-1.12,7.29-3.08,10.3-5.75c3.44-3.04,6.18-6.8,9.26-10.19c0.35-0.39,0.71-0.78,1.08-1.15
			c0.3-0.31,0.79-1.04,1.19-1.19c0.34-0.13,1.06,0.05,1.42,0.07c0.88,0.04,1.75,0.09,2.63,0.13c2.14,0.11,4.27,0.26,6.39,0.62
			c4.5,0.77,8.5,2.73,12.59,4.65c4.03,1.89,8.17,3.58,12.6,4.25c4.11,0.62,8.32,0.31,12.42-0.27c4.56-0.65,9.03-1.79,13.58-2.5
			c2.24-0.35,4.48-0.42,6.73-0.55c2.13-0.13,4.19-0.55,6.23-1.15c4.8-1.4,9.45-3.27,14.14-4.98c1.63-0.59,3.29-1.27,5-1.58
			c1.87-0.34,3.76-0.45,5.64-0.82c2.35-0.45,4.69-0.93,7.06-1.28c1.19-0.17,2.39-0.32,3.59-0.43c0.6-0.05,1.21-0.1,1.82-0.12
			c0.29-0.01,0.41-0.08,0.53,0.11c0.14,0.23,0.05,0.86,0.07,1.13c0.27,4.42,0.39,8.85,0.51,13.28c0.15,5.37,0.28,10.74,0.49,16.1
			c0.17,4.31,0.45,8.64,1.52,12.83c0.51,1.99,0.87,3.9,0.88,5.97c0.01,2.16-0.15,4.32-0.34,6.47c-0.44,5.02-1.04,10.03-1.69,15.03
			c-0.6,4.65-1.29,9.28-1.99,13.91c-0.36,2.4-0.74,4.79-1.09,7.19c-0.26,1.76-0.59,3.6-0.44,5.38c0.11,1.39,0.67,2.08,2.1,2.08
			c1.91,0.01,3.44-0.05,4.92,1.32c1.89,1.76,2.26,4.22,3.28,6.48c0.66,1.45,1.68,2.63,3.08,3.41c2.91,1.6,6.66,1.7,9.9,1.8
			c2.25,0.07,4.5,0.02,6.74-0.11c1.77-0.1,3.67-0.14,5.38-0.66c0.57-0.17,0.85-0.43,1.29-0.77c0.05-0.04,0.08-0.23,0.13-0.25
			c0.22-0.08,1.13,0.37,1.37,0.44c1.05,0.29,2.12,0.49,3.2,0.65c4.47,0.69,9.08,0.88,13.61,0.75c1.36-0.04,4.05,0.18,4.34-1.66
			c0.29-1.84-0.63-3.73-1.66-5.19c-2.29-3.25-5.77-6.12-9.25-8.01c-2.32-1.26-5.23-1.67-6.62-4.15c-1.77-3.17-1.95-7.35-2.26-10.88
			c-0.43-4.9-0.67-9.81-0.86-14.73c-0.1-2.45-0.18-4.89-0.24-7.34c-0.04-1.88-0.14-3.81,0.13-5.68c0.23-1.59,0.86-3.09,1.43-4.59
			c0.84-2.23,1.69-4.46,2.41-6.74c1.31-4.13,2.07-8.29,2.24-12.62c0.07-1.81-0.07-3.7,0.27-5.49c0.28-1.46,1.19-2.76,1.71-4.14
			C285.6,200.04,286.74,195.59,288.04,191.24z"/>
	</g>
</g>
</svg>
