<?xml version="1.0" encoding="utf-8"?>
<!-- Generator: Adobe Illustrator 23.1.0, SVG Export Plug-In . SVG Version: 6.00 Build 0)  -->
<svg version="1.1" id="Layer_1" xmlns="http://www.w3.org/2000/svg" xmlns:xlink="http://www.w3.org/1999/xlink" x="0px" y="0px"
	 viewBox="0 0 120.76 449" style="enable-background:new 0 0 120.76 449;" xml:space="preserve">
<path id="path4385" d="M58.47,0v67.87c0,0-0.06,0-0.75,0c-0.69,0-1.74,0.91-1.74,1.75c0,0.84,0,23.49,0,24.44
	c0,0.95-1.05,0.76-1.05,1.77c0,1.02,0,21.31,0,22.06c0,0.75-0.83,0.92-0.83,1.69c0,0.88,0,7.96,0,7.96l-6.09,16.5c0,0-2.54,0-3.38,0
	s-1.74,0.87-1.74,1.69c0,0.82,0,4.26,0,4.26s-1.68,0-2.55,0c-0.87,0-1.74,0.85-1.74,1.69s0,23.7,0,23.7s-1.66,0-2.52,0
	c-0.86,0-1.74,0.81-1.74,1.69c0,0.89,0,27.54,0,28.75c0,1.21-2.57,1.75-2.57,2.57c0,0.81,0,137.96,0,137.96s-3.39,0-4.27,0
	s-1.74,0.84-1.74,1.69c0,0.85,0,30.47,0,30.47s-8.53,0-9.42,0c-0.88,0-1.74,0.85-1.74,1.72c0,0.87,0,45.68,0,45.68s-12.01,0-12.88,0
	c-0.86,0-1.72,0.84-1.72,1.69c0,0.85,0,20.84,0,20.84L60.11,449h0.54l60.11-0.56c0,0,0-19.99,0-20.84c0-0.86-0.85-1.69-1.72-1.69
	c-0.86,0-12.87,0-12.87,0s0-44.81,0-45.68c0-0.87-0.86-1.72-1.74-1.72c-0.88,0-9.42,0-9.42,0s0-29.61,0-30.47
	c0-0.86-0.87-1.69-1.74-1.69c-0.88,0-4.27,0-4.27,0s0-137.14,0-137.96c0-0.81-2.6-1.35-2.6-2.57c0-1.22,0-27.86,0-28.75
	c0-0.89-0.85-1.69-1.72-1.69c-0.86,0-2.52,0-2.52,0s0-22.85,0-23.7S81.28,150,80.41,150c-0.87,0-2.58,0-2.58,0s0-3.43,0-4.26
	c0-0.82-0.88-1.69-1.72-1.69c-0.84,0-3.41,0-3.41,0l-6.09-16.5c0,0,0-7,0-7.96c0-0.78-0.81-0.95-0.81-1.69c0-0.75,0-21.04,0-22.06
	c0-1.02-1.05-0.83-1.05-1.77c0-0.95,0-23.6,0-24.44s-1.05-1.75-1.74-1.75s-0.75,0-0.75,0V0h-1.64h-0.54H58.47L58.47,0z"/>
</svg>
