<?xml version="1.0" encoding="utf-8"?>
<!-- Generator: Adobe Illustrator 24.0.2, SVG Export Plug-In . SVG Version: 6.00 Build 0)  -->
<svg version="1.1" id="Layer_1" xmlns="http://www.w3.org/2000/svg" xmlns:xlink="http://www.w3.org/1999/xlink" x="0px" y="0px"
	 viewBox="0 0 2971.38 3610.04" style="enable-background:new 0 0 2971.38 3610.04;" xml:space="preserve">
<style type="text/css">
	.st0{fill:#191919;}
</style>
<g>
	<path d="M2926.8,2549.35c-0.27,6.94,3.43,12.8,5.4,19.11c3.37,10.8,7.38,21.4,10.89,32.15c5.09,15.57,5.5,31.42,2.06,47.38
		c-3.5,16.27-6.36,32.73-10.91,48.71c-8.94,31.37-18.83,62.47-28.41,93.66c-0.94,3.06-2.44,5.96-3.35,8.14
		c-2.5,1.21-3.65,0.69-3.77-1.11c-0.35-5.3-0.7-10.61-0.71-15.92c-0.1-36.09-3.76-71.83-11.1-107.15
		c-5.29-25.45-13.02-50.25-21.17-74.91c-0.67-2.02-1.52-4.81-4.77-4.45c-1.8,2.82,0,5.18,0.73,7.63
		c5.13,17.32,8.09,35.03,9.45,53.01c1.4,18.59,3.16,37.14,2.89,55.85c-0.77,54.19-7.39,107.61-20.24,160.25
		c-9.17,37.58-20.58,74.48-34.79,110.46c-16.97,42.98-38.36,83.53-67.64,119.56c-2.9,3.56-6.37,6.68-9.76,9.81
		c-1.93,1.78-5.88,0.28-6.22-2.33c-1.05-7.91-2.57-15.83-2.81-23.78c-2.5-84.31-30.68-160.33-74.83-231.06
		c-41.6-66.64-95.46-121.21-162.46-162.53c-31.33-19.32-64.75-34.2-99.66-45.78c-2.5-0.83-5.19-1.09-7.81-1.54
		c-2.59-0.45-4.88,2.61-3.9,5.25c1.16,3.12,2.3,6.26,3.73,9.26c13.76,29.02,9.97,27.11,39.02,42.6
		c21.79,11.62,42.78,24.37,63.08,38.41c43.14,29.84,76.54,67.97,99.26,115.32c14.55,30.33,23.15,62.34,26.6,95.76
		c2.12,20.56,3.81,41.12,0.95,61.76c-0.57,4.15,0.84,7.89,3.18,11.29c1.13,1.65,2.2,3.37,3.56,4.82
		c17.15,18.34,27.55,40.72,37.83,63.15c12.51,27.3,27.29,53.34,42.72,79.08c7.99,13.32,18.39,24.5,28.98,35.53
		c40.18,41.86,77.6,86.11,114.35,130.96c1.68,2.05,3.61,3.89,5.9,6.34c4.19,0.4,8.79,0.8,13.38,1.29
		c16.53,1.79,30.62,8.58,42.28,20.48c9.85,10.06,18.02,21.39,25.6,33.18c18.26,28.4,30.66,59.02,35.26,92.63
		c2.47,18.05,1.41,35.9-2.56,53.62c-0.58,2.58-1.68,5.04-2.54,7.56c-3.14,9.17-9.61,14.17-19.2,15c-8.63,0.75-17.28,1.22-25.91,1.94
		c-7.99,0.67-15.6,2.43-23.13,5.6c-32.75,13.81-67.01,21.98-102.31,25.76c-13.9,1.49-27.84,2.68-41.75,4.01
		c-2.65,0.25-5.38,0.2-7.93,0.86c-13.75,3.54-27.74,3.11-41.74,2.98c-9.99-0.09-19.98-0.28-29.96,0.07
		c-33.31,1.17-66.62,1.44-99.93,0.05c-17.37-0.73-34.48-3.17-51.29-7.66c-37.03-9.9-62.08-32.78-73.27-69.54
		c-5.22-17.17-8.96-34.84-12.43-52.47c-6.04-30.75-12.53-61.42-22.29-91.17c-9.53-29.07-20.15-57.82-31.51-86.22
		c-6.16-15.39-14.82-29.78-22.41-44.59c-5.46-10.66-11.41-21.1-16.41-31.98c-5.6-12.15-8.97-25.1-10.74-38.36
		c-0.83-6.18-3.29-11.44-6.69-16.45c-9.48-13.94-21.27-25.54-35.05-35.23c-7.83-5.51-16.8-7.99-25.88-10.14
		c-18.14-4.31-36.4-8.14-54.48-12.67c-21.98-5.52-43.48-12.59-64.49-21.16c-49.41-20.14-86.43-54.19-113.35-99.9
		c-14.28-24.26-24.33-50.3-33.91-76.61c-5.92-16.26-12.92-32.13-18.77-48.41c-3.53-9.81-10.26-14.73-19.77-17.83
		c-13.91-4.54-27.6-9.79-41.22-15.15c-56.06-22.06-104.25-55.9-146.78-98.24c-43.97-43.77-77.62-94.68-104.28-150.4
		c-7.76-16.21-14.38-32.96-21.91-49.29c-7.52-16.3-15.5-32.4-23.32-48.56c-1.42-2.93-3.02-5.77-5.13-9.78
		c-1.91,3.42-3.62,5.49-4.31,7.86c-3.9,13.43-7.56,26.92-11.3,40.4c-6.64,23.91-3.42,46,11.4,66.37
		c16.84,23.14,32.2,47.38,51.56,68.64c1.77,1.94,3.04,4.35,4.46,6.59c5.7,9,11.32,18.06,17.07,27.04
		c19.63,30.64,20.66,36.25,26.66,72.06c4.78,28.52-0.2,55.78-10.66,82.18c-12.82,32.34-33.95,59.21-60.74,80.59
		c-23.46,18.72-50.04,33.07-80.67,37.44c-5.26,0.75-10.62,1.59-15.89,1.34c-21.9-1.05-43.86-1.79-64.96-8.89
		c-3.13-1.05-6.45-1.58-9.71-2.15c-2.26-0.4-5.33,2.48-5.28,4.96c0.07,3.3,0.05,6.66,0.65,9.89c3.66,19.64,7.49,39.25,11.25,58.87
		c0.37,1.91,1.35,3.86-0.42,5.64c-6.71-1.87-10.85-5-18.36-15.66c-4.84-6.87-8.9-14.29-13.26-21.36c-4.48,2.05-4.31,5.68-4.98,8.84
		c-6.19,29.15-18.59,55.44-36.31,79.32c-6.81,9.18-14.61,17.3-23.87,23.99c-1.59,1.15-3.51,1.84-5.31,2.66
		c-2.06,0.94-5.68-1.84-5.44-4.2c2.73-26.44,5.48-52.88,8.19-78.9c-2.68-2.14-4.12-0.75-5.22,0.72c-4.78,6.4-9.29,13-14.18,19.31
		c-7.45,9.63-17.08,16.71-27.59,22.66c-1.13,0.64-2.52,0.81-3.78,1.22c-2.36,0.78-5.54-1.8-5.26-4.34
		c1.46-13.28,4.5-26.23,8.06-39.07c0.69-2.49,2.25-4.96,0.05-7.46c-37.03,17.28-37.03,17.28-49.53,15.08
		c-0.86-5.41,3.41-8.31,5.85-12.14c2.07-3.24,5.95-5.53,5.58-9.66c-0.45-2.95-2.57-3.29-4.4-3.8c-12.69-3.53-12.7-3.51-19.66-15.32
		c-2.69-0.5-5.91-1.08-9.12-1.71c-47.07-9.19-80.55-36.1-102.44-78.29c-14.59-28.12-23.41-58.04-27.69-89.28
		c-2.53-18.47-4.25-37-4.35-55.75c-0.31-59.75,12.49-116.3,39.37-169.66c7.48-14.84,14.67-29.84,24.58-43.34
		c3.91-5.32,6.97-11.27,10.31-16.75c-1.6-2.15-3.47-2.66-5.32-2c-40.98,14.68-83.43,22.63-126.47,28.11
		c-29.11,3.71-58.29,6-87.62,6.35c-1.94,0.02-3.87,0.6-5.57,0.88c-1.46,2.45-0.49,3.7,1.46,4.61c18.17,8.57,35.08,19.03,50.32,32.24
		c30.24,26.22,49.97,58.71,58.18,97.83c7.85,37.38,10.21,75.17,6.41,113.28c-1.46,14.58-2.27,29.23-3.9,43.79
		c-0.54,4.84,0.35,9.28,1.32,13.79c6.53,30.16,17.16,58.81,32.81,85.42c6.74,11.46,14.48,22.36,22.1,33.28
		c6.12,8.77,13.32,16.5,22,23.01c6.36,4.77,11.92,10.65,17.57,16.3c16.89,16.89,24.62,37.54,25.1,61.25
		c0.61,29.63-3.84,58.47-13.57,86.4c-5.03,14.44-10.99,28.58-16.94,42.68c-3.64,8.62-7.43,16.93-7.5,26.66
		c-0.07,9.41-3.47,18.31-7.11,26.9c-5.46,12.87-11.35,25.56-16.93,38.38c-5.05,11.6-9.92,23.28-14.89,34.91
		c-6.6,15.45-9.84,31.37-10.78,48.34c-1.07,19.2-5.2,38.24-8.19,57.32c-0.39,2.52-1.56,5.11-3,7.23
		c-23.86,35.16-56.8,55.39-99.2,59.75c-14.56,1.5-29.14,3.02-43.75,3.81c-27.22,1.47-43.43-0.65-67.46-7.88
		c-18.85,6.32-38.71,7.39-58.77,8.25c-45.24,1.95-90.56,2.28-135.69,6.43c-3.3,0.3-6.68,0.71-9.81,1.71
		c-30.92,9.95-62.83,11.03-94.88,10.77c-11.35-0.09-22.57-1.46-33.72-3.77c-29.09-6.01-48.45-23.73-60.92-49.92
		c-3.53-7.41-4.25-15.45-4.29-23.43c-0.03-5.94,1.24-11.88,1.92-17.83c0.31-1.22,0.68-2.42,0.87-3.65c0.04-0.24-0.6-0.59-0.93-0.9
		c-1.6,1.82-0.53,3.39,0.46,4.96c-1.97-0.93-4.07-0.79-5.37,0.8c-2.51,3.09-4.49,6.61-6.96,9.74c-2.87,3.65-5.75,7.36-9.11,10.54
		c-7.11,6.75-14.62,5.67-19.98-2.84c-5.46-8.68-7.3-18.45-7.91-28.55c-0.94-15.42,0.84-30.62,3.93-45.67
		c6.93-33.74,19.65-64.93,41.48-91.98c7.16-8.87,15.31-16.67,24.77-23.07c0.55-0.37,1.06-0.81,1.6-1.19
		c7.77-5.37,16.37-8.48,25.5-10.98c9.17-2.51,16.94,0.92,23.86,3.34c13.49-5.55,25.69-10.89,38.13-15.57
		c9.65-3.63,17.63-9.04,23.74-17.43c3.91-5.37,8.32-10.4,12.76-15.37c9.5-10.65,21.6-15.46,35.72-14.41
		c7.93,0.59,15.91,1.71,23.64,3.55c20.25,4.83,40.71,6.22,61.47,5.8c15.11-0.3,28.91-3.99,41.59-12.13
		c3.36-2.16,6.7-4.41,10.29-6.13c18.96-9.07,28.75-25.64,33.91-44.58c3.68-13.47,2.35-27.73-1.21-41.55
		c-3.88-15.03-10.86-28.67-18.84-41.74c-8.32-13.63-17.21-26.97-26.63-39.86c-18.49-25.29-38.9-49.04-59.62-72.53
		c-6.71-7.61-14.33-13.6-23.38-18.3c-36.05-18.69-72.03-37.54-107.8-56.76c-25.81-13.86-51.73-27.61-75.3-45.21
		c-4.8-3.58-9.62-7.15-14.36-10.81c-35.37-27.35-59.05-62.78-72.68-105.17c-7.15-22.25-12.18-44.96-15.04-68.16
		c-0.33-2.64-0.51-5.31-0.85-7.95c-1.96-15.22-5.62-29.58-13.45-43.33c-14.76-25.93-16.8-54.38-11.83-83.41
		c4.07-23.75,12.11-46.34,21.05-68.61c4.71-11.74,9.22-23.61,14.76-34.95c4.76-9.73,7.67-19.82,9.36-30.37
		c4.97-30.95,11.69-61.57,21.26-91.36c21.5-66.95,50.07-130.48,94.74-185.7c26.55-32.81,56.98-61.63,90.8-86.74
		c69.45-51.57,147.12-85.35,231.02-105.35c5.83-1.39,11.63-3.04,17.54-3.94c6.54-0.99,10.84-4.06,13.54-10.21
		c12.06-27.5,26.79-53.54,43.6-77.49c0.59-5.41-2.76-8.17-5-11.26c-19.21-26.57-28.7-56.88-34.12-88.68
		c-4.04-23.71-4.83-47.69-4.65-71.7c0.16-21.31-0.19-42.65,0.83-63.92c0.98-20.6,2.84-41.2,5.38-61.67
		c3.12-25.1,6.93-50.14,12.88-74.77c1.79-7.41,1.31-14.24-2.44-21.2c-4.08-7.57-7.05-15.73-10.46-23.54
		c-12.55-5.4-24.55-10.94-35.68-18.39c-26.54-17.78-47.64-40.38-62.68-68.59c-1.88-3.53-4.03-6.92-5.77-10.51
		c-3.85-7.94-10.61-11.63-18.83-13.23c-1.94-0.38-3.98-0.36-5.97-0.4c-6.24-0.12-12.02-1.39-15.77-6.96
		c-4.92-7.3-8.79-15.05-7.48-24.23c1.25-8.77,4.39-17.29,10.59-23.31c11.33-11.02,12.98-23.73,10.44-38.29
		c-2.88-16.51-1.45-33.21-1.1-49.85c0.04-1.87-0.3-3.75-0.43-5.18c-4.43-3.73-8.3-0.87-11.76,0.25
		c-15.86,5.15-31.92,9.36-48.29,12.52c-44.85,8.67-89.85,9.74-135.16,4.01c-29.84-3.77-58.85-10.65-87.68-19.12
		c-12.86-3.77-24.81-9.02-36.8-14.56c-32.1-14.82-63.09-31.63-92.63-51.08c-3.88-2.55-8.81-4.62-11.13-8.26
		c-10.86-17.03-29.27-27.13-39.87-44.31c-1.71-2.77-4.55-4.84-6.81-7.29c-3.73-4.04-8.11-6.91-13.68-7.57
		c-10.72-1.26-20.67-5.1-30.45-9.35c-7.62-3.31-15.47-4.17-23.47-2.65c-13.73,2.6-27.55,4.99-41.04,8.57
		c-11.61,3.08-22.17,8.91-32.13,15.79c-4.21,2.91-7.69,7.42-13.32,7.59c-3.71-2.04,0.64-6.88-4.16-8.95
		c-12.98,4.43-25.74,12.42-41.09,11.71c-0.85-7.21,7.5-7.41,8.48-12.98c-4.72-2.49-8.42,2.68-12.96,1.83
		c-5.19-2.34,2.69-5.87-1.66-8.59c-6.68-0.9-11.04,8.17-19.48,6.68c0.37-8.4,10.45-11.25,11.31-19.13
		c-1.25-0.58-2.34-1.56-3.36-1.49c-9.29,0.64-18.55,2.01-27.84,2.11c-14.09,0.15-27.91,2.38-41.62,4.96
		c-15.16,2.86-29.24,8.93-41.5,18.16c-2.21-1.67-2.79-3.53-1.84-5.38c9.49-18.43,20.45-35.74,35.41-50.45
		c17.15-16.87,35.36-32.36,55.1-46.08c2.1-1.46,4.6-2.78,3.59-6.11c1.82,1.06,3.48,1.32,4.49-1.01c0.04-0.09-1.1-0.96-1.29-0.84
		c-1.02,0.66-1.92,1.51-2.86,2.3c-5.94,0-11.88,0-17.56,0c-1.97-4.44,1.4-4.93,3.22-5.93c2.31-1.26,4.97-1.86,7.48-2.74
		c20.88-7.3,36.96-20.73,49.64-38.62c3.16-4.46,5.3-9.13,6.27-14.5c2.37-13.1,4.87-26.17,7.48-39.22
		c1.08-5.39,0.56-10.62-0.83-15.81c-6.06-22.55-10.54-45.41-13.43-68.58c-4.49-36.06-3.61-71.82,6.28-107.03
		c7.68-27.35,21.37-51.56,38.81-73.81c16.52-21.09,35.73-39.54,56.11-56.79c6.13-5.19,12.06-10.46,17.23-16.6
		c15.51-18.42,34.29-33.5,51.48-50.2c21.06-20.45,43.82-38.91,66.78-57.19c19.8-15.77,39.01-32.28,58.3-48.68
		c19.81-16.85,39.82-33.35,61.83-47.37c7.21-4.59,13.49-10.82,19.64-16.86c28.05-27.56,56.72-54.44,86.43-80.22
		c24.59-21.34,52.45-36.28,83.81-44.8c45.02-12.22,90.45-22.57,136.71-28.91c3.29-0.45,6.63-0.69,9.95-0.67
		c51.3,0.23,102.57-3.31,153.88-0.89c5.98,0.28,12.06,0.24,17.9,1.38c9.23,1.8,18.4,2.49,27.79,2.05
		c20.42-0.95,34.95,8.69,42.05,27.31c4.49,11.78,12.16,18.62,23.05,23.18c2.46,1.03,4.88,2.15,7.22,3.42
		c18.58,10.08,27.04,27.72,22.57,48.48c-1.42,6.6-2.19,13.08-2.11,19.77c0.28,21.96-0.24,43.92,3.79,65.73
		c3.07,16.63,1.74,33.18-4.27,49.2c-1.4,3.72-2.07,7.71-3.29,11.52c-3.63,11.37-10.31,19.98-22.02,24
		c-7.55,2.59-15.14,5.13-22.59,7.98c-10.55,4.04-21.64,6.62-31.62,12.26c-11.99,6.78-24.62,10.11-37.84,4.34
		c-5.52,2-10.47,4-15.54,5.59c-13.49,4.23-27.32,5.85-41.44,5.11c-12.11-0.64-23.89,0.4-35.1,5.71c-4.18,1.98-8.82,3-13.27,4.37
		c-13.78,4.25-27.46,4.16-41.25-0.34c-15.81-5.16-31.8-9.79-47.66-14.8c-11.78-3.72-23.92-3.07-35.58-1.12
		c-13.82,2.3-26.66,7.97-37.74,17.25c-9.78,8.19-18.82,17.05-26.09,27.45c-18.01,25.78-31.81,53.83-43.23,83.07
		c-0.7,1.8-1.06,3.96-0.8,5.85c0.25,1.79,1.16,3.82,2.45,5.04c1.37,1.31,3.46,1.94,5.33,2.62c46.36,16.96,83.71,45.98,113.79,84.8
		c0.8,1.04,1.91,1.84,3.8,3.63c2.13,0.27,5.37,0.8,8.62,1.05c9.95,0.78,18.33-2.55,25.04-9.96c15.4-17.03,34.16-29.65,53.97-40.81
		c24.63-13.87,50.83-22.69,79.06-26.29c38.51-4.9,75.63,1.48,112.48,11.44c7.71,2.08,15.47,4.2,22.87,7.15
		c13.15,5.23,27.01,6.64,40.79,8.57c0.95,0.13,2.09-1.1,3.56-1.94c-1.75-6.78-8.49-9.91-11.81-15.58
		c-3.3-5.63-7.56-10.69-10.73-15.07c0.17-4.03,2.3-4.42,4.16-4.91c4.39-1.15,9.31,0.46,13.34-2.36c0.27-4.09-2.13-6.77-5.08-8.08
		c-13.88-6.14-20.15-18.72-27.06-30.86c-4.42-7.76-3.94-15.11,0.89-22.55c4.79-7.38,10.92-13.38,17.71-18.85
		c11.37-9.16,22.68-18.41,33.33-27.07c0-7.67,0.73-14.38-0.16-20.88c-1.5-10.91-0.31-21.17,4.31-31.13
		c0.83-1.79,1.21-3.82-0.93-5.93c-9.83,6.1-17.11,16.21-28.14,21.12c-2.3-1.54-1.26-3.42-0.19-4.86
		c11.34-15.22,17.94-32.53,22.96-50.64c3.38-12.19,7.03-24.32,11.16-36.27c9.44-27.37,27.77-46.56,54.49-57.69
		c3.05-1.27,6.45-1.83,8.3-4.99c0.33-0.56,0.37-1.27,0.68-2.37c-16.96-1.99-32.29,5.83-49.86,8.55
		c5.47-11.05,13.61-18.04,20.73-25.7c6.79-7.3,14.07-14.22,21.63-20.73c7.97-6.87,16.52-13.06,24.6-19.37
		c0.34-7.14-4.5-11.65-6.09-17.33c-1.43-5.11-3.62-10.01-5.45-15.02c-2.06-5.62-3.79-11.4-6.21-16.86
		c-4.37-9.82-7.08-20.14-9.12-30.57c-2.07-10.59-1.95-21.22,3.37-31.18c2.01-3.75,5.79-5.81,9.95-4.59
		c7.02,2.06,13.95,4.43,20.95,6.59c28.62,8.83,57.24,17.65,85.89,26.42c2.47,0.76,5.09,1.06,7.97,1.64
		c0.82-2.26,2.31-4.22,1.97-5.78c-1.56-7.14-3.8-14.13-5.5-21.25c-5.76-24.13-8.53-48.54-5.95-73.32c0.48-4.57,1.71-9.14,3.2-13.51
		c1.58-4.64,8.89-7.5,13.43-5.65c1.84,0.75,3.57,1.77,5.29,2.77c26.08,15.22,54.23,25.3,83.07,33.78
		c23,6.76,45.89,13.86,68.83,20.81c1.91,0.58,3.84,1.92,5.67,1.76c18.61-1.59,34.67,7.69,51.9,11.89c1.91,0.47,3.89,0.66,5.69,0.95
		c2.93-3.07-0.51-8.16,4.25-10.65c-8.1-11.52-21.05-18.22-29.55-29.27c1.37-1.08,2.5-2.51,3.04-2.31
		c21.33,7.72,41.83,17.27,61.61,28.35c8.76,4.9,16.88,10.7,23.14,18.78c1.58,2.04,3.71,3.65,5.75,5.62
		c4.69-7.37-3.28-14.27,0.48-21.32c1.61,1.31,3.06,2.61,4.64,3.73c0.48,0.34,1.29,0.23,1.95,0.32c0.73-0.98,1.99-1.9,2.1-2.95
		c1.36-12.07-1.39-23.87-2.46-35.79c-0.29-3.23-0.13-6.54,0.23-9.76c0.07-0.62,2.19-1.66,3.07-1.42c1.86,0.5,3.85,1.37,5.23,2.68
		c14.29,13.56,25.98,28.69,28.27,49.13c0.41,3.65,1.98,5.36,5.35,7.13c2.21,1.16,2.73,5.54,4.14,8.8c1.89-1.19,3.8-1.92,5.07-3.26
		c14.07-14.76,31.07-25.02,49.87-32.43c19.17-7.56,38.42-14.92,57.38-22.26c3.8,2.11,2.05,4.74,0.95,6.8
		c-10.04,18.79-20.26,37.48-30.34,56.24c-1.89,3.51-3.6,7.15-5.03,10.87c-1.28,3.33-0.45,6.63,1.76,9.35
		c0.64,0.79,2.58,1.43,3.35,1.03c2.31-1.21,4.58-2.71,6.42-4.55c15.12-15.1,31.81-28.36,48.38-41.77c2.12-1.71,4.39-2.79,7.66-1.27
		c2.67,17.98-6.22,34.69-8.1,52.2c1.42,0.32,2.23,0.72,2.44,0.52c19.85-19.72,32.18-45.25,49.92-65.8c4.08-0.59,5.82,1.61,6.94,3.85
		c3.27,6.53,6.65,13.07,9.19,19.9c12.81,34.58,15.83,69.97,8.12,106.15c-0.97,4.55-1.89,9.1-2.74,13.68
		c-0.1,0.57,0.41,1.25,0.93,2.72c8.2-1.64,11.2-10.73,18.49-13.36c0.76,0.83,1.91,1.54,2.21,2.51c0.71,2.26-3.4,4.76-0.17,6.7
		c1.16,0.7,3.85-0.18,5.32-1.13c11.28-7.34,23.74-11.98,36.39-16.2c1.87-0.62,3.89-0.98,5.85-1.03c1.19-0.03,2.77,0.46,3.49,1.3
		c0.66,0.77,0.89,2.56,0.45,3.49c-4.83,10.25-10.41,20.08-17.78,29.43c6.6,3.79,8.75-5.26,14.24-3.67c0,2.27,0,4.65,0,7.3
		c13.51-2.41,25.65-11.43,41.33-7.94c-9.66,26.57-22.22,50.35-40.42,71.76c7.71,3.09,11.01-5.46,19.51-3.46
		c-0.81-0.31-0.39,0.77-1.51,2.06c-3.46,4.03-7.11,7.91-10.4,12.08c-1.13,1.43-1.4,3.54-2.07,5.37
		c18.82,5.51,18.82,5.51,28.92,16.18c-1.97,1.48-3.92,2.95-6.22,4.67c4.01,4.48,7.52,9.53,12.11,13.23
		c5.12,4.13,4.13,9.34,4.49,15.19c12.52,9.26,25.1,19.14,38.28,28.14c13.18,9.01,26.63,17.76,40.58,25.49
		c13.73,7.61,28.25,13.79,43.53,21.13c-12.46,9.59-25.73,13.8-39.33,16.83c-13.75,3.06-27.84,1.09-42.38,1.05
		c0.41,2.51,0.17,4.68,1.09,6.09c2.91,4.42,6.26,8.54,9.09,12.32c-0.17,4.99-5.44,8.1-2.03,13.33c3.59,5.52,6.89,11.33,6.94,18.43
		c0.03,3.47,2.9,5.88,5.44,8.07c15.49,13.32,33.61,21.25,53.2,26.41c5.53,1.46,11.8,0.9,17.15,5.28
		c-10.91,6.57-22.24,3.57-32.97,2.93c-0.95,2.31-1.63,3.99-2.32,5.67c-5.99,1.59-11.44-3.98-17.5-1.32
		c4.07,9.96,14.91,22.58,27.43,32.07c11.22,8.51,24.34,12.77,40.25,16.71c-19.36,8.52-36.78,10.68-55.02,6.48
		c-0.57,2.64-0.4,5.22-1.48,5.96c-1.28,0.86-3.64,0.12-5.53,0.09c-1.21-0.02-2.43,0-3.9,0c-0.91,6.28,4.11,10.89,5.19,16.62
		c0.97,5.14,1.49,10.37,2.28,16.14c-4.59-2.21-5.03-2.74-9.84-10.98c-1.68-0.26-2.87,0.32-2.86,1.73c0.06,13.3,0.32,26.6,0.26,39.89
		c-0.03,5.99,0.22,12.18-1.17,17.91c-2.49,10.25-0.56,19.56,2.81,29.22c8.09,23.22,21,42.97,40.01,58.65
		c2.37,1.96,5.47,3.3,6.03,7.63c-9.53-0.99-18.21-4.07-26.81-7.36c-8.58-3.28-17.06-6.8-25.95-10.36
		c0.18,8.34,10.67,7.7,11.17,15.63c-4.69-1.15-9-2.21-13.3-3.26c-1.03,1.2-0.98,2.43,0.25,3.53c20,17.85,42.23,32.39,66.21,44.29
		c1.79,0.89,3.63,1.68,5.49,2.41c1.82,0.71,3.54,1.4,3.75,3.74c0.15,1.67-3.17,3.23-6.59,3.06c-9.4-0.46-18.3-3.01-27.2-5.93
		c-3.49-1.15-6.52-5.02-10.93-2.74c23.72,36.04,21.42,44.96,22.53,55.94c0.64,6.35,1.79,13.32-2.63,18.94
		c-2.94,0.37-3.41-1.54-4.24-3.17c-6.13-11.96-14.15-22.54-23.64-32.02c-1.48-1.48-3.43-1.72-5.38-0.68
		c1.23-1.34,1.94-2.71,0.06-4.07c-0.1-0.08-1.01,0.62-0.96,0.72c0.41,1.01,0.95,1.97,1.44,2.95c2.51,5.43,5.15,10.8,7.46,16.31
		c1,2.39,1.87,5.06-0.1,7.98c-5.92-2.9-6.51-11.18-12.97-13.56c-0.41,0.87-1.08,1.59-0.93,2.06c4.75,15.26,9.02,30.63,8.83,46.8
		c-0.08,6.66,3.55,11.24,7.7,15.69c11.79,12.65,23.79,25.12,35.34,37.99c28.92,32.24,48.92,69.59,61.84,110.73
		c7.82,24.89,11.41,50.67,12.96,76.62c0.54,9.11,3.1,16.76,8.14,24.06c6.86,9.92,14.78,18.7,24.06,26.52
		c72.33,60.94,118.57,137.47,137.14,230.46c4.05,20.28,7.11,40.67,7.24,61.39c0.05,8.14,1.44,15.84,5.62,22.94
		c11.48,19.52,22.87,39.08,34.36,58.59c1.79,3.04,4.83,5.3,8.18,4.88c13.17-1.62,26.65-1.58,39.26-6.59
		c7.44-2.95,14.74-6.12,21.12-11.12c3.07-2.4,6.35-4.53,10.3-7.33c3,10.68-6.06,16.3-8.26,23.57c1.5,3.94,4.51,3.18,6.84,3.35
		c16.64,1.23,33.01,4.16,49.16,8.21c4.44,1.11,8.65,3.28,12.84,5.24c2.62,1.22,4.43,5.29,3.1,6.39c-1.44,1.18-3.13,2.34-4.89,2.79
		c-2.55,0.64-5.27,0.86-7.92,0.85c-20.16-0.09-37.44,7.98-53.67,18.95c-1.01,0.68-1.47,2.16-2.94,4.43
		c7.88-1.57,14.94-2.67,21.83-4.42c10.52-2.67,21.12-2.54,31.77-1.74c3.43,0.26,6.45,1.56,7.68,5.24c-1.86,2.23-4.48,2.22-7.02,2.23
		c-15.07,0.02-28.61,5.5-41.97,11.66c-4.03,1.86-5.74,5.27-6.97,9.58c1.69,1.07,3.14,2.51,4.86,2.99
		c12.7,3.56,22.1,11.39,30.6,21.29c11.79,13.73,22.05,28.38,30.86,44.12c4.21,7.52,8.44,15.04,12.58,22.6
		c0.25,0.45-0.2,1.28-0.39,2.25c-21.37,3.27-43.53-2.66-64.66,4.7c-0.44,0.15-0.6,1.09-1.06,2c3.04,3.28,6.4,6.48,9.23,10.1
		c1.58,2.01,2.39,4.67,3.38,7.1c0.92,2.28-1.63,5.87-3.87,5.45c-9.8-1.86-19.58-3.82-29.37-5.72c-6.53-1.27-13.14-2.23-19.6-3.81
		c-11.6-2.84-22.43-0.14-33.14,3.95c-7.96,3.04-12.97,8.01-14.98,17.02c-2.89,12.96-7.25,25.61-11.31,38.28
		c-4.89,15.26-11.56,29.76-19.18,43.85c-20.01,36.99-51.05,60.62-89.97,74.86c-4.81,1.76-10.35,2.03-14.92,7.04
		c9.1,1.95,17.58,2.74,26.14,3.25c29.91,1.77,59.84,3.21,89.7,5.64c27.2,2.22,54.33,5.39,81.45,8.52
		c5.87,0.68,11.54,3.03,17.34,4.46c74.95,18.48,141.06,54.88,203.07,99.74c67.11,48.55,123.71,107.21,169.17,176.43
		c28.32,43.12,50.62,89.04,62.83,139.54c8.99,37.19,13.06,74.75,10.29,112.92c-0.67,9.21-2.85,18.3-4.35,27.54
		c-4.74-1.12-5.52-4.45-6.11-7.58c-4.53-24.31-11.78-47.84-20.73-70.82c-5.79-14.87-12.57-29.36-19.09-43.94
		c-1.34-2.99-3.28-5.77-5.29-8.39c-1.25-1.63-3.32-1.91-5.35-1.12c1.42-3.95,1.35-7.55-2.45-10.26c-0.55-0.89-1.09-1.79-1.98-3.23
		c1.13,1.2,1.82,1.94,2.52,2.68c0.72,3.5,1.43,7,2.15,10.5c5.29,15.7,10.49,31.42,15.89,47.08c14.7,42.68,25.99,86.29,35.52,130.37
		c3.23,14.92,5.73,29.99,6.09,45.31c0.09,3.93-0.28,7.86-0.43,11.68c-2.94,0.31-4.34-1.05-5.09-2.91c-2.23-5.52-4.35-11.1-6.4-16.69
		c-6.85-18.68-14.52-37.01-23.59-54.74c-1.18-2.31-2.07-4.91-5.45-4.57c0.6-3.67,0.34-7.09-2.8-9.67c-0.42-0.37-0.84-0.73-1.25-1.1
		c0.34-0.29,0.68-0.58,1.02-0.87c0.25,0.48,0.51,0.96,0.76,1.44C2923.29,2543.29,2923.58,2546.72,2926.8,2549.35z M1884.51,1592.68
		c-14.19,12.26-27.75,23.93-41.25,35.68c-3.01,2.62-5.81,5.48-8.69,8.25c-3.98,3.83-6.08,8.63-7.24,13.95
		c-3.83,17.54-7.85,35.05-11.53,52.62c-1.65,7.89-1.42,15.98,0.05,23.85c2.1,11.22,6.44,21.66,12.77,31.19
		c18.78,28.23,36.97,56.85,58.18,83.41c6.37,7.98,13.51,14.62,22.3,19.57c1.38,0.78,3.2,2.53,5.07-0.4
		c-0.08-1.54,0.25-3.63-0.34-5.41c-2.85-8.53-2.09-16.93-0.37-25.59c3.29-16.56,9.82-31.76,18.38-46.13
		c10.95-18.38,24.32-34.94,39.18-50.29c6.95-7.17,14.2-14.04,21.18-21.19c3.71-3.8,7.43-7.72,8.12-13.79
		c-3.97-12.53-12.5-20.86-24.61-26.73c-14.94-7.25-29.6-15.22-43.81-23.81c-20.37-12.31-37.11-28.16-44.76-51.68
		C1886.93,1595.58,1886.35,1595.11,1884.51,1592.68z"/>
	<path class="st0" d="M1817.98,2408.94c0.54,10.76,4.22,20.8,7.15,31.01c9.73,33.92,19.62,67.79,29.22,101.74
		c4.89,17.29,12.58,33.65,16.49,51.28c0.96,4.34,4.09,8.2,5.95,11.77c-1.46,3.92-4.17,4.28-6.69,3.58
		c-9.61-2.66-19.35-5.09-28.67-8.58c-23.07-8.64-45.84-18.09-68.94-26.65c-12.23-4.53-20.1-12.46-23.99-24.79
		c-3.21-10.15-7.33-20.05-10.04-30.32c-4.06-15.39-5.49-31.43-11.95-46.26c-1.52-3.48-1.28-7.72-2.57-11.58
		c-3.06,16.05-2.42,32.22-1.3,48.3c1.1,15.83,3.24,31.58,4.91,47.28c-2.82,0.64-4.28-0.71-5-2.49c-3.74-9.26-7.89-18.4-10.81-27.92
		c-6.25-20.36-12.12-40.85-17.57-61.44c-2.37-8.97-3.41-18.29-4.9-27.48c-1.04-6.4-1.51-12.94-5.32-18.65
		c-1.51,1.11-3.16,1.69-3.41,2.62c-0.84,3.17-1.91,6.54-1.59,9.7c2.56,25.18,4.92,50.4,8.46,75.44c1.38,9.75,5.59,19.11,8.58,28.62
		c1.55,4.95,4.38,9.62,3.51,15.09c-3.28,0.72-5.11-1.27-6.81-3.12c-9.9-10.8-20.04-21.41-29.5-32.59
		c-20.25-23.92-38.55-49.33-55.85-75.44c-5.88-8.88-11.17-18.15-16.71-27.25c-16.4-26.92-23.66-56.33-23.18-87.65
		c0.36-23.96,1.41-47.91,2.02-71.87c0.28-11.2,1.38-22.43-0.18-35.31c-7.32,24.75-9.05,37.71-12.31,90.21
		c-4.25-0.06-5.11-3.59-5.66-6.41c-4.47-22.89-8-45.9-7.97-69.33c0.02-11.95-0.16-23.9,1.07-35.92
		c-13.12,22.58-14.42,48.14-18.09,72.97c-5.2-0.19-5.46-4.15-6.47-6.77c-8.37-21.85-13.72-44.53-17.54-67.55
		c-5.46-32.91-8.62-66-7.98-99.46c0.32-16.62-0.54-33.32-1.86-49.9c-1.16-14.67-1.49-29.2,0.03-43.85
		c0.89-8.6,2.05-17.44,1.01-25.91c-2.45-19.97-0.27-39.87-0.47-59.79c-0.12-11.97,0.3-23.9,4-35.58c1.56-4.93,1.4-10.52,1.38-15.81
		c-0.05-16.82,3.21-33.09,7.55-49.23c2.11-7.84,5.87-14.83,10.51-21.39c1.22-1.72,3.12-2.27,5.76-1.51
		c2.12,12.53-1.94,25.74,0.16,37.64c4.08,1.91,5.72,0.5,6.7-1.16c6.4-10.81,16.23-17.14,27.25-22.54
		c16.15-7.91,31.81-16.81,49.29-21.65c7.04-1.95,14.05-4,20.37-5.8c3.68,1.96,4.21,4.31,3.07,7.07c-2.52,6.15-5.13,12.27-8.06,19.25
		c7.72-2.48,14.96-5.34,22.46-7.09c8.4-1.96,17-3.35,25.59-4.17c7.75-0.73,15.64-1.02,25.21,1.01c-12.61,8.12-26.7,8.36-37.4,15.88
		c0.29,3.49,2.75,2.38,4.19,2.29c13.36-0.84,26.54-0.42,39.7,2.77c5.94,1.44,11.54,3.04,16.58,6.4c8.31,5.54,16.61,11.1,24.82,16.8
		c23.53,16.34,47.03,32.72,70.5,49.15c2.07,1.45,4.81,2.55,4.75,6.78c-4.74,1.81-9.86-0.59-14.79,0.04
		c-5.93,0.76-11.92,1.13-17.88,1.63c-5.31,0.44-10.65,0.68-15.94,1.28c-5.29,0.6-10.54,1.52-15.81,2.34
		c-5.92,0.92-11.88,1.71-17.75,2.9c-5.11,1.04-10.13,2.56-15.09,3.84c-0.36,3.62,2.28,2.8,3.64,2.84c8.66,0.25,17.33,0.5,25.98,0.32
		c24.77-0.5,49.16,2.91,73.5,6.87c1.9,0.31,3.71,1.18,6.07,1.96c-2.72,4.21-6.91,2.64-10.17,3.53c-3.85,1.06-7.79,1.8-11.71,2.58
		c-3.92,0.78-7.88,1.37-11.79,2.16c-3.91,0.79-7.81,1.67-11.7,2.6c-3.88,0.93-7.74,1.98-11.61,2.97c-3.87,0.99-7.92,1.54-11.55,3.08
		c-3.46,1.47-8.16,0.41-10.36,4.76c1.04,0.57,2.05,1.59,3.06,1.6c23.96,0.33,47.92,0.55,71.88,0.78c8.66,0.08,17.33,0.1,25.99,0.21
		c2.45,0.03,4.97,2.15,4.11,3.28c-0.76,1-1.53,2.33-2.59,2.72c-8.12,3.01-16.39,5.61-24.45,8.75c-7.36,2.87-15.28,4.57-21.72,9.71
		c2.24,2.24,4.79,1.34,7.06,0.8c22.72-5.4,44.95-3.77,66.8,4.31c6.87,2.54,13.85,4.79,20.77,7.2c27.93,9.7,56.53,15.34,86.25,14.15
		c3.28-0.13,6.58-0.02,10.19-0.02c-3.82,7.39-3.84,7.34-22.99,17.76c-8.77,4.78-17.42,9.78-26.11,14.72
		c-8.41,4.78-18.32,6.7-26.74,13.42c7.23,1.65,12.76-1.61,18.12-3.41c19.54-6.58,38.95-13.64,58.04-21.42
		c10.39-4.23,20.6-9.34,28.78-17.51c1.4-1.39,3.31-2.25,4.8-3.57c10.08-8.88,21.34-15.14,34.09-20.02
		c14.42-5.51,29.04-9.53,43.98-12.84c2.5-0.55,5.1-1.44,8.04,1.48c-1.58,5.06-6.85,7.33-10.25,11.08
		c-3.58,3.95-7.5,7.58-11.27,11.35c-3.77,3.77-7.6,7.49-11.29,11.33c-3.69,3.84-7.3,7.77-10.84,11.75
		c-3.51,3.96-6.87,8.04-10.91,12.79c7.94-1.09,12.09-6.78,17.26-10.61c6.43-4.75,12.48-10,18.72-15.01
		c5.7-4.58,11.4-9.19,17.16-13.7c6.3-4.93,12.6-9.85,19.02-14.61c5.84-4.33,11.84-8.45,17.28-12.31c2.54,0.94,3.2,2.02,2.34,3.13
		c-4.87,6.32-9.92,12.51-14.74,18.86c-3.13,4.12-7.51,7.44-8.68,12.74c0.91,1.87,1.77,1.77,3.21,0.51
		c9.52-8.33,19.15-16.52,28.67-24.84c13.4-11.7,29.17-15.58,46.48-13.87c25.9,2.56,51.89,2.18,77.85,2.75
		c16.65,0.37,33.28,0.45,49.88,2.25c9.91,1.07,19.95,0.81,29.91,1.48c31.89,2.15,63.77,4.39,95.64,6.72
		c11.29,0.82,22.63,1.46,33.82,3.09c27.18,3.97,53.07,12.67,78.55,22.63c36.73,14.36,71.58,32.43,104.74,53.72
		c38.2,24.52,74.64,51.42,107.94,82.33c58.19,54.03,106.26,115.78,140.56,187.68c21.14,44.31,34.01,91,37.71,140.07
		c0.9,11.94,1.69,23.9,2.24,35.86c0.42,9.35-1.04,18.51-4.04,28.58c-4.2-4.74-4.5-10.06-5.61-14.77
		c-6.14-26.01-14.76-51.18-24.97-75.83c-11.25-27.17-25.39-52.8-41.72-77.23c-2.19-3.28-4.88-6.24-7.42-9.46
		c-3.83,3.43-1.27,6.39,0.1,8.81c10.18,18.06,18.19,37.1,24.62,56.73c9.53,29.1,18.81,58.31,27.38,87.71
		c6.71,23,12.57,46.27,18.04,69.6c3.19,13.58,4.94,27.49,7.18,41.28c0.41,2.52,0.06,5.17,0.06,7.5c-3.1,1.02-3.96-0.46-4.7-2.26
		c-6.56-16.01-12.34-32.4-19.94-47.91c-9.06-18.5-19.66-36.24-29.7-54.26c-0.45-0.81-1.93-1.04-3.25-1.69
		c6.42,16.94,12.89,33.52,19,50.24c4.8,13.13,9.1,26.44,13.73,39.64c6.34,18.11,7.02,36.57,3.08,55.18
		c-3.58,16.94-7.01,33.95-11.7,50.6c-7.4,26.27-15.79,52.27-23.77,78.38c-0.62,2.03-1.79,3.45-4.09,3.57
		c-0.42-0.28-1.23-0.56-1.25-0.88c-0.52-9.3-1.09-18.6-1.41-27.91c-1.78-52.45-12.8-102.96-31.77-151.8
		c-1.19-3.07-2.76-6.03-4.46-8.85c-0.42-0.69-2.05-0.8-3.14-0.85c-0.33-0.02-0.88,0.98-1.04,1.59c-0.16,0.61-0.08,1.35,0.1,1.98
		c11.44,40.21,12.65,81.39,11.78,122.78c-1.95,92.38-23.04,180.78-56.66,266.32c-15.14,38.53-34.8,74.91-60.19,107.91
		c-2.44,3.17-4.83,6.38-7.36,9.47c-3.53,4.31-6.28,5.7-7.98,4.36c-3.14-2.46-2.17-5.95-2.35-9.1c-0.15-2.65-0.11-5.36,0.27-7.98
		c3.3-23.11,0.67-46.29-0.18-69.52c-0.48,5.76-0.96,11.52-1.38,16.55c-1.86,1.37-2.77,0.87-3.04-0.95
		c-6.43-43.15-19.71-84.27-37.98-123.71c-32.98-71.16-79.2-132.42-139.28-183.06c-43.79-36.91-92.79-64.72-146.87-83.42
		c-25.8-8.92-51.92-16.91-77.82-25.55c-8.84-2.95-17.51-6.42-26.15-9.9c-30.04-12.13-56.32-29.91-79.17-52.84
		c-1.84-1.84-3.9-3.46-6.25-5.53c-0.21,8.52,1.22,11.52,17.41,31.7c8.33,10.38,16.92,20.64,26.31,30.05
		c8.86,8.87,18.92,16.54,29.6,25.72c-11.68,1.81-20.23-4.47-29.5-6.76c-9.61-2.37-18.74-6.81-27.92-10.74
		c-9.18-3.93-18.22-8.19-27.19-12.57c-8.98-4.38-17.91-8.87-26.65-13.7c-8.74-4.83-17.13-10.28-25.81-15.23
		c-8.47-4.82-15.88-11.44-24.92-16.09c-2.49,5.9,1.63,8.23,3.43,11.24c2.04,3.41,4.74,6.43,7.17,9.6c2.43,3.17,4.85,6.36,7.36,9.47
		c2.52,3.11,5.09,6.17,7.76,9.15c2.66,2.98,5.41,5.89,8.23,8.71c2.35,2.36,4.81,4.61,7.32,6.81c3.01,2.63,6.03,5.27,9.2,7.69
		c3.17,2.43,6.47,4.7,9.84,6.85c3.37,2.14,6.87,4.08,10.35,6.03c3.33,1.87,7.38,2.72,9.34,6.69c-1,0.58-1.97,1.67-2.92,1.64
		c-10.65-0.33-21.4-0.02-31.9-1.47c-19.12-2.64-38.25-4.78-57.47-6.62c-27.08-2.59-54.02-6.87-80.38-14.3
		c-8.71-2.45-14-6.99-16.86-15.17c-1.98-5.65-4.09-11.26-6.22-16.86c-0.73-1.93-2.01-3.36-4.92-3.48
		c-4.72,9.22,2.33,20.36-3.89,29.47c-0.61-0.4-1.54-0.67-1.66-1.13c-1.48-5.81-2.95-11.62-4.22-17.48
		c-6.4-29.5-17.15-57.37-31.4-83.93c-1.23-2.29-2.25-4.85-5.67-4.15c1.02-3.83,1.27-7.33-3.64-8.67c-0.09-0.6-0.11-1.23-0.31-1.78
		c-0.16-0.43-0.56-0.77-0.86-1.15c0.58,0.81,1.16,1.62,1.74,2.43c0.11,3.35-0.06,6.82,3.5,8.79c-0.47,5.52,1.85,10.38,3.47,15.45
		c6.07,19.03,11.13,38.33,14.9,57.97c2.28,11.88,2.57,23.81,1.98,35.8c-0.38,7.81-6.03,12.34-13.67,10.03
		c-9.64-2.92-19.45-4.3-29.33-5.63c-3.61-0.49-5.88-2.85-7.42-5.95c-0.59-1.18-0.92-2.5-1.32-3.76
		c-8.34-25.97-17.03-51.83-24.86-77.94c-4.04-13.49-9.91-26.09-15.66-38.81c-0.87-1.92-2.31-3.03-4.57-2.63
		c0.12-1.93,0.35-3.86,0.33-5.78c-0.02-1.94-0.99-2.5-2.32-1.42c-0.36,0.29-0.47,1.33-0.25,1.82c0.79,1.71,1.78,3.33,2.7,4.98
		c-1.02,12.85,2.23,25.12,5.57,37.26c6.17,22.42,10.43,45.19,14,68.32c-4.56,0.48-5.13-3.3-5.87-5.43
		c-13.09-37.66-29.99-73.74-45.71-110.3c-10.48-24.36-21.58-48.46-32.51-72.62c-0.78-1.71-2.49-3-3.77-4.49
		c-0.24-2.31-0.48-4.62-0.78-7.5C1814.04,2405.46,1817.36,2406.84,1817.98,2408.94z M1692.21,2366.06
		c-1.25,6.86-1.85,9.79-0.29,12.64C1694.11,2375.89,1692.77,2372.86,1692.21,2366.06z M2732.4,2993.71
		c-0.21,0.53-0.52,1.04-0.61,1.59c-0.09,0.59,0.01,1.21,0.04,1.81c0.27-0.57,0.67-1.12,0.78-1.72
		C2732.7,2994.87,2732.48,2994.28,2732.4,2993.71z M1632.82,2297.38c-0.4-0.21-1.15-0.75-1.26-0.64c-0.43,0.43-0.98,1.1-0.91,1.61
		c0.25,1.95,1.16,2.32,2.13,0.95C1633.08,2298.88,1632.82,2298.05,1632.82,2297.38z M1639.72,1814.05c-0.51-0.14-1.03-0.4-1.52-0.37
		c-0.22,0.01-0.39,0.63-0.59,0.97c0.51,0.16,1.03,0.44,1.54,0.43C1639.34,1815.08,1639.53,1814.42,1639.72,1814.05z M1639.68,2316.3
		l0.54,1.41l0.41-1.47L1639.68,2316.3z"/>
	<path class="st0" d="M1212.15,814.04c-0.64-1.74-0.77-4.38-1.99-5.07c-17.41-9.73-34.77-19.6-52.58-28.56
		c-8.21-4.13-17.37-6.36-25.72-9.31c-1.65-4.94,0.71-8.46,2.51-11.81c7.39-13.79,17.96-24.71,31.25-32.95
		c3.39-2.1,6.85-4.17,10.5-5.76c4.96-2.17,7.16-5.25,5.72-10.83c-0.21-0.81,2.38-2.35,4.91-4.69c-7.41-0.17-13.33-0.37-19.25-0.44
		c-6-0.07-11.99-0.01-17.99-0.02c-6,0-11.99,0-17.99-0.01c-5.8-0.01-11.62,0.03-17.41-1.84c6.18-12.83,6.45-12.74,26.37-26.84
		c10.44-7.39,21.74-12.78,33.63-17c-0.41-3.35-2.9-4.33-5.23-5.16c-14.06-5.03-25.72-13.82-36.94-23.32
		c-1.52-1.29-3.46-2.43-4.32-4.09c-5.45-10.53-15.1-16.52-24.23-23.13c-0.93-0.68-1.32-2.1-1.96-3.18
		c-0.18-1.69,0.55-2.53,2.17-2.78c10.15-1.56,19.97-0.28,29.26,3.94c3.87,1.76,7.44,2.71,12.13,0.33
		c-0.19-5.66-5.62-8.21-8.34-12.26c-2.56-3.82-6.4-6.77-9.3-10.4c-3.24-4.04-7.98-7.03-9.25-12.12c0.5-2.93,2.52-3.27,4.44-3.4
		c20.77-1.41,41.21,1.48,61.48,5.45c5.78,1.13,11.4,3.69,16.75,6.3c8.39,4.09,17.2,6.59,25.81,8.91c3.02-2.15,0.99-3.53-0.13-4.75
		c-1.35-1.46-3.06-2.57-4.45-3.99c-1.31-1.35-3.24-2.48-2.39-4.93c19.78-3.11,36.86-2.96,56.74,0.66c4.61,0.84,9.09,1.82,13.67-0.41
		c2.45-1.19,4.11-4.65,2.32-6.3c-3.41-3.16-6.99-6.12-10.44-9.23c-1.46-1.31-3.12-2.61-2.32-5.76c18.02-2.25,35.17,2.5,52.08,8.36
		c5.63,1.95,10.88,5.01,16.37,7.4c5.66,2.46,9.94-0.74,10.14-7.02c0.12-3.82-1.07-5.26-4.82-7.07c-10.19-4.92-9.95-5.4-15.16-5.49
		c-7.13-0.13-14.33,0.5-21.53-0.89c0.63-2.46,0.53-4.15,1.28-4.73c11.6-8.93,23.61-17.38,32.93-28.91c0.42-0.51,0.94-0.94,1.43-1.39
		c6.38-5.79,11.59-8.33,22.48-10.69c-3.94-0.77-6.99-1.26-9.99-1.99c-3.36-0.81-3.63-1.83-2.28-7.15
		c-12.52-3.62-25.76-4.61-38.94-8.72c1.69-2.5,2.1-3.88,2.89-4.15c9.42-3.21,18.88-6.29,28.36-9.33c5.68-1.82,11.32-4.56,17.14-5.06
		c12.64-1.08,24.18-6.39,37.62-7.69c-6.76-10.66-19.76-5.32-27.26-13.42c9.59-1.37,18.66-3.14,27.82-3.84
		c8.52-0.64,17.12-0.14,26.47-0.14c4.64-12.45,9.24-24.8,14.05-37.7c5.79,0.81,5.98,7.48,11.3,8.58
		c13.17-8.02,19.8-20.29,20.43-35.98c0.27-6.61,0.04-13.25,0.04-20.97c12.88-9.43,27.01-18.44,37.28-31.74
		c4.47-5.79,8.84-11.72,12.6-17.98c3.4-5.65,5.9-11.84,8.56-17.33c-2.75-5.24-7.38-3.29-10.81-4.6c-3.63-1.39-7.55-2.17-10.06-5.54
		c0.57-1.2,0.81-2.9,1.75-3.49c10.48-6.57,17.47-16.2,23.65-26.57c3.78-6.33,8.16-12.15,13.63-15.92c1.57-3.72-1.42-5.91-1.12-8.24
		c0.26-2.05,2.43-3.86,4.21-6.43c-18.88-4.27-32.96-14.58-43.75-28.25c-0.18-2.95,0.55-3.85,2.11-3.96
		c17.33-1.27,34.59-1.89,51,5.13c3.11-1.72,1-3.5-0.09-4.7c-2.23-2.45-4.91-4.49-7.26-6.85c-4.07-4.07-6.92-8.44-1.52-13.13
		c-8.53-11.77-16.12-22.58-20.72-35.36c-2.42-6.72-7.82-12.32-10.58-18.96c-2.78-6.69-3.63-14.16-5.92-21.09
		c-2.07-6.26-4.95-12.25-7.47-18.37c7.46-2.68,12.16-3.23,18.88-1.43c17.36,4.65,34.86,8.98,50.13,19.16
		c1.62,1.08,3.46,2.18,5.8,0.34c-2.55-3.48-5.22-7.13-7.81-10.66c0.67-2.88,3.13-2.1,4.85-2.73c1.93,1.67,3.71,3.58,5.85,4.93
		c1.79,1.13,2.78,3.93,5.74,3.22c-0.37-0.7-0.53-1.4-0.97-1.77c-3.23-2.79-5.24-7.88-11.02-5.94c1.14-1.91,0.95-3.86-0.56-5.3
		c-4.33-4.11-8.8-8.06-13.25-12.04c-5.88-5.27-11.8-10.5-17.41-15.5c0.91-2.41,1.92-2.84,3.36-2.17
		c11.43,5.3,22.88,10.56,34.28,15.92c17.69,8.32,33.25,19.28,43.59,36.23c3.5-1.53,3.24-4.49,3.63-6.99c0.6-3.81,4.08-1.59,6-3.21
		c4.06-18.8,1.17-38.01,0.8-56.75c3.37-1.99,5.55-0.54,7.52,1.2c11.39,10.07,17.36,23.23,21.03,37.6c1.15,4.49,2.27,9.13,2.34,13.71
		c0.11,7.59,2.85,14.22,5.9,20.86c-2.03-0.45-3.64,0.23-4.97,1.79c-1.6,1.88-1.73,4.71-0.23,4.61c1.1-0.08,2.64-0.67,3.11-1.52
		c0.88-1.59,1.13-3.54,1.63-5.34c5.56-1.66,7.91-6.86,11.42-10.67c10.49-11.4,22.36-20.85,36.24-27.81
		c20.26-10.16,41.29-18.37,62.9-25.14c0.48-0.15,1.18,0.37,2.05,0.67c0.24,0.27,1.1,0.95,1,1.16
		c-12.37,25.02-26.93,48.96-37.21,75.27c0.11,3.92,1.85,7.33,5.05,10.26c6.31-1.04,9.55-6.47,13.94-10.24
		c4.55-3.9,8.84-8.1,13.29-12.11c3.96-3.56,7.96-7.09,12-10.56c4.54-3.91,9.12-7.78,13.73-11.62c4.48-3.74,8.38-8.33,14.18-10.82
		c1.86,9.12,0.74,16.44-4.94,37.2c-3.11,11.38-8.32,22.15-11.03,35.76c7.6-5.15,11.07-11.39,15.26-16.95
		c4.4-5.85,8.77-11.74,13.08-17.66c3.91-5.38,7.79-10.79,11.56-16.28c4.15-6.04,8.16-12.16,12.21-18.26
		c4-6.04,7.21-12.65,11.62-17.86c4.89,0.66,6.11,3.81,7.4,6.7c12.68,28.45,18.47,58.26,17.28,89.4
		c-0.64,16.71-3.16,33.11-7.87,49.18c-0.85,2.91-2.43,6.16,0.66,8.92c7.27-1.01,8.05-10.61,15.36-11.49
		c1.48,4.22-3.17,6.52-3.2,10.86c5.49,1.13,7.6-3.94,11.12-6.15c3.95-2.48,7.77-5.16,11.78-7.54c3.43-2.04,6.96-3.93,10.57-5.63
		c4.21-1.98,8.57-3.64,12.84-5.5c4.2-1.83,8.29-4.07,13.13-3.48c0.41,1.13,1.48,2.57,1.12,3.3c-6.32,12.58-14.54,23.84-24.03,34.21
		c-2.19,2.39-4.26,4.88-6.45,7.42c1.64,1.09,2.77,2.39,3.48,2.19c1.88-0.51,3.57-1.7,5.35-2.57c3.85-1.89,7.19-6.47,12.25-1.45
		c0.84,0.83,4.87-1.04,7.11-2.25c9.41-5.07,19.02-9.62,29.54-11.85c3.21-0.68,6.55-1.44,9.52,0.94
		c-7.46,28.51-24.14,53.17-57.22,84.48c6.06,2.45,9.97-2.16,14.46-4.19c4.84-2.18,9.39-5.01,14.06-7.55
		c1.61,0.78,1.73,1.83,0.32,3.1c-4.4,4-8.81,8-14.17,12.86c19.57-0.36,19.57-0.36,33.76,7.18c0.74,5.56-7.56,2.41-7.24,8.04
		c4.73,3.88,9.79,7.93,14.71,12.13c1.49,1.27,2.59,2.99,3.79,4.4c0.03,4.48-3.68,2.49-5.58,3.57c0.06,1.04-0.32,2.69,0.26,3.15
		c26.51,21.19,52.87,42.62,82.39,59.62c12.12,6.98,24.48,13.52,38.1,17.31c3.13,0.87,6.05,2.52,10.15,4.27
		c-14.73,9.56-29.88,13.54-45.95,15.01c-15.45,1.41-30.49-0.78-44.54-4.65c-4.17,2.22-0.45,5.09-2.05,7.22
		c-4.99,6.65-5.64,12.5-2.19,17.22c5.1,6.99,10.35,13.89,15.14,21.08c13.74,20.64,32.33,35.03,55.24,44.26
		c5.73,2.31,12.48,2.73,17.95,9.29c-14.3-2.88-27.17-5.3-38.3-13.16c-1.04,0.26-2.08,0.52-3.11,0.78c1.09-0.21,2.19-0.42,3.28-0.63
		c-0.16,1.88-0.92,3.98-0.32,5.57c0.82,2.17,2.68,3.94,4.07,5.86c-2.24,1.72-3.76,2.88-5.28,4.04c-0.57,3.17,1.49,6.59,14.38,20.62
		c6.28,6.84,12.86,13.62,20.25,19.17c6.77,5.09,14.8,8.48,22.33,12.66c-2.9,4.13-6.97,4.44-10.8,4.98
		c-12.9,1.81-25.14-0.87-37.02-5.8c-4.55-1.89-7.57,0.54-10.31,4.15c-1.71,5.54,5,8.91,4.33,14.4l0.47-0.36
		c-5.66,1.53-6.35-6.2-12.17-6c0.41,11.78,8.97,22.15,6.92,34.49c-6.14-1.91-4.22-9.54-9.51-11.74c-0.65,0.85-1.9,1.74-1.89,2.61
		c0.34,28.05,4.61,55.55,12.8,82.34c5.67,18.54,14.06,35.8,27.09,50.51c2.12,2.4,4.81,4.71,3.91,8.56l0.4-0.44
		c-4.1,1.7-7.83,0.11-11.48-1.45c-15.93-6.8-31.25-14.71-45.06-25.28c-4.73-3.62-9.38-7.34-14.03-10.97
		c-2.96,1.04-1.77,3.07-0.7,4.19c6.4,6.71,13,13.24,19.51,19.86c1.85,1.88,3.66,3.84,2.47,6.85l0.49-0.52
		c-2.46,0.96-2.74,3.3-1.51,4.73c4.32,5.02,8.77,10,13.68,14.43c15.4,13.88,32.46,25.5,50.29,36.03c5.08,3,11.15,4.68,14.65,10.09
		c-8.91,1.58-13.24-0.88-48.75-15.72c0.45,5.57,4.94,7.7,7.61,10.95c2.96,3.6,6.33,6.88,9.09,10.62c3.16,4.27,6.07,8.76,8.68,13.39
		c2.28,4.05,4.25,8.32,5.87,12.68c1.62,4.36,2.9,8.89,3.84,13.44c0.93,4.5,2.18,9.12,0.01,13.95c-6.52-1.95-7.83-8.63-11.74-12.85
		c-4.07-4.39-7.69-9.21-11.69-13.68c-3.55-3.97-7.01-8.13-11.12-11.46c-4.36-3.54-7.51-8.99-13.75-10.43
		c-1.99,5.25,1.93,7.7,3.63,10.87c1.82,3.4,4.77,6.29,4.74,11.54c-4.21-2.63-7.49-4.68-10.96-6.85c-2.09,4.55,1.47,7.31,2.82,10.58
		c1.78,4.3,4.01,8.42,5.79,12.73c1.52,3.68,2.79,7.48,3.96,11.29c1.17,3.82,2.29,7.67,3.05,11.58c0.76,3.92,1.08,7.92,1.55,11.89
		c0.55,4.63,1.26,9.24,1.55,13.89c0.25,3.98,0.07,8-0.07,11.99c-0.14,4.02-1.69,7.66-2.53,11.97c-9.09-4.31-11.01-14.05-18.66-18.41
		c-7.46-4.25-14.31-9.58-21.82-14.7c-5.73,2.31-11.16,4.51-16.6,6.71c-18.75,21.59-44.89,24.05-70.7,26.87
		c-7.17,0.78-14.58-0.54-21.87-1.14c-3.91-0.32-7.77-1.55-12.57-0.51c1.5,7.17,6.24,12.11,8.65,18.06c2.42,5.95,6.9,11.16,7,18.26
		c-6.23,0.46-7.45-4.95-10.04-8.24c-4.29-5.45-9.29-9.16-16.45-9.67c-2.77,4.4,1.42,7.18,2.45,10.63c1.14,3.81,2.68,7.51,3.78,11.34
		c1.09,3.83,1.98,7.74,2.71,11.66c0.71,3.82,1.12,7.69,1.69,11.73c-6.62-0.97-6.36-6.93-9.22-10.24c-2.58-2.99-4.27-6.74-6.64-9.95
		c-2.77-3.75-5.76-7.34-8.8-10.87c-2.5-2.91-3.92-6.88-7.93-8.37c-0.91,0.85-2.62,1.73-2.58,2.51c0.41,7.26-0.02,14.56,3.07,21.59
		c3.29,7.47,3.31,15.7,2.48,23.65c-4.51,43.24-12.37,85.71-30.89,125.51c-1.31,2.81-1.85,6.54-5.81,7.07
		c-1.72,0.02-2.13-0.86-2.18-2.61c-0.32-12.65-0.78-25.3-1.11-37.96c-0.27-10.1-2.41-19.84-5.78-29.29
		c-0.81-2.29-1.98-4.91-5.75-5.18c-1.7,7.75,1.18,15.97-1.97,23.75c-4.25-3.94-2.61-10.14-5.39-14.77
		c-3.08-5.11-5.3-10.73-7.96-16.1c-0.9-1.82-2.4-2.91-5.34-2.77c-0.35,26.37-9.28,50.63-19.62,74.57
		c-6.57,15.22-14.51,29.6-23.87,43.23c-0.24,0.35-1.27,0.16-1.87,0.21c-11.38-20.16-18.91-42.6-35.33-59.62
		c-4.32,1.34-2.34,4.14-2.14,6.26c0.36,3.87,3.23,7.41,1.48,11.8c-3.96,0.7-5.13-2.83-6.91-5.02c-6.39-7.88-13.26-14.77-23.66-17.39
		c-4.35-1.1-8.25-3.95-12.44-6.04c1.05-1.43,1.63-3.08,2.53-3.28c1.93-0.43,2.36-2.48,1.44-2.4c-7.33,0.58-12.75-2.93-17.93-7.28
		c-3.6-3.02-7.42-5.38-12.08-6.74c-14.99-4.37-26.19-15.47-39.49-22.89c-2.75-1.54-4.67-4.69-6.74-7.29
		c-11.37-14.29-25.69-25.07-41.07-34.58c-0.95-0.59-2.42-0.32-3.66-0.45c-0.44,0.41-1.33,1-1.25,1.19
		c1.53,3.63,3.18,7.21,4.95,11.13c-6.66,1.32-11.2-3.4-16.56-5.45c-5.52-2.11-10.98-4.37-17.37-6.93
		c-0.27,6.69,8.78,6.74,7.36,13.55c-17.2-2.91-33.01-9.57-48.37-17.46c-5.33-2.74-10.4-5.99-15.73-8.71
		c-2.26-1.15-5.11-2.55-7.33-2.09c-5.98,1.23-10.48-1.67-14.86-4.49c-6.71-4.32-13.02-9.26-19.48-13.95
		c-3.75-2.73-7.18-6.1-11.27-8.13c-14.76-7.35-22.84-19.67-27.09-34.99c-1.23-4.45-2.06-9.01-3.04-13.38
		c-6.89-1.48-5.2,7.48-11.37,6.8c0.48,0.26-0.36,0.09-0.46-0.28c-2.48-9.23,2.01-18.11,3.37-31.47
		c-14.83,21.05-15.74,40.68-14.33,60.64c-2.01,0-3.63,0.51-4.39-0.08c-11.16-8.7-19.84-19.73-27.8-31.21
		c-6.52-9.4-10.54-20.03-9.85-31.91c0.19-3.31,0.03-6.65,0.03-10.1c-3.18,0.98-3.18,0.98-5.78,5.85c-1.19-2.41-2.32-4.7-3.95-8
		c-5.54,8.9-8.34,18.25-9.45,27.76c-1.06,9.12-0.23,18.46-0.23,27.51c-1.53,1.12-2.61,0.97-3.54-0.23
		c-4.05-5.28-8.03-10.63-12.2-15.82c-4.68-5.81-8.24-12.26-9.86-19.45c-3.05-13.58-6.85-27.09-4.01-41.36
		c1.37-6.92,0.86-7.02-7.87-11.44c-9.78,2.59-16.75,12.82-29.4,11.78c3.47-11.69,11.93-19.53,17.22-28.84
		c-3.1-5-3.14-5.18-2.91-10.71c-1.06-0.29-2.32-1.11-3.15-0.8c-14.62,5.59-29.76,7.1-45.19,5.52c-10.77-1.1-20.78-4.59-29.1-11.85
		c-1.43-1.25-2.87-3.01-3.31-4.79c-0.81-3.28,1.73-2.59,3.64-2.33c5.21,1.92,10.45,3.05,15.85,0.69c1.42,3.91,3.9,6.01,8.3,4.97
		c1.19-0.28,2.4-0.46,3.59-0.68c1.36,4.03,3.66,6.24,8.53,4.01c-3.15-1.35-6.06-2.58-8.96-3.82c-4.21-0.67-8.6-0.84-11.83-4.24
		C1222.9,813.99,1217.6,811.27,1212.15,814.04z M1467.63,432.31c2.97-5.39,5.04-8.69,6.62-12.2c0.74-1.66,0.62-3.73,0.72-5.63
		c0.03-0.55-0.4-1.49-0.83-1.63c-0.94-0.32-2.44-0.72-2.96-0.25c-1.39,1.24-2.12,3.25-3.57,4.36c-5.02,3.86-5.21,3.8-3.83,8.29
		C1464.31,426.98,1465.51,428.49,1467.63,432.31z M1874.72,757.6c-0.38,0.33-1.12,0.79-1.06,0.96c0.2,0.56,0.6,1.24,1.1,1.46
		c1.49,0.64,2.15-0.05,1.55-1.66C1876.17,757.96,1875.27,757.85,1874.72,757.6z M1805.03,930.1c-0.29-1.02-0.58-2.04-0.88-3.07
		c-0.54,0.17-1.46,0.22-1.56,0.54c-0.31,0.95-0.76,2.32-0.32,2.95C1803.09,931.69,1804.29,931.36,1805.03,930.1z M1856.06,1048.66
		c0.38-0.36,0.91-0.65,1.09-1.09c0.22-0.54,0.36-1.33,0.12-1.78c-0.41-0.77-1.15-1.37-1.75-2.05c-0.22,0.54-0.72,1.15-0.62,1.62
		C1855.14,1046.49,1855.66,1047.57,1856.06,1048.66z M1468.12,621.95l0.7-1.37l-1.17-0.19L1468.12,621.95z M1307.27,659.13
		l0.07-1.24l-1.53,0.5L1307.27,659.13z M1833.01,714.51c0.51,0.15,1.01,0.4,1.51,0.39c0.19,0,0.36-0.62,0.54-0.96
		c-0.51-0.16-1.01-0.42-1.52-0.41C1833.36,713.52,1833.18,714.16,1833.01,714.51z M1850.54,745.77l-1.68,0.61l1.72,0.67
		L1850.54,745.77z M1836.26,782.66l-0.7,1.37l1.17,0.2L1836.26,782.66z"/>
	<path class="st0" d="M1220.85,391.81c-5.42,0.45-8.22-4.23-12.81-2.51c-3.09,2.97,0.49,5.98,0.27,8.99
		c-0.24,3.31-0.72,6.6-0.93,9.91c-0.4,6.41-3.32,11.44-8.4,15.18c-1.54,1.13-3.54,2.3-5.31,2.28c-1.76-0.02-3.5-1.52-5.29-2.39
		c-4.36,0.82-5.84,5-8.64,7.63c-6.55,6.15-13.72,10.13-23.99,7.68c-3.71-16.68-0.75-32.3,8.87-46.78
		c4.03-6.07,8.07-12.14,11.95-17.96c-1.28-3.48-3.1-1.87-4.25-0.8c-5.36,4.98-10.49,10.21-15.84,15.2
		c-5.31,4.95-10.79,9.72-16.05,14.44c-2.61-1.94-2.26-3.86-1.34-5.54c7.08-12.97,11.24-26.99,15.09-41.15
		c2.61-9.63,5.24-19.27,8.39-28.74c9.53-28.6,26.92-50.19,55.62-61.6c4.11-1.63,9.03-2.66,10.46-8.3
		c-16.21-2.71-31.48,2.91-47.56,5.9c0.88-2.39,1-3.87,1.8-4.72c15.49-16.54,31.51-32.54,49.93-45.86
		c4.83-3.49,10.06-6.49,15.33-9.27c12.56-6.62,25.17-7.64,38.07-0.37c3.11,1.75,5.91,5.73,11.3,3.28
		c-9.95-13.41-24.64-19.21-38.21-24.86c-0.96-3.87,0.77-4.68,2.73-4.94c2.63-0.34,5.31-0.33,7.96-0.55
		c21.49-1.83,39.26,5.1,52.81,22.2c0.77,0.97,2.13,1.49,3.21,2.21c2.79-1.02,1.43-2.93,0.8-4.45
		c-4.46-10.74-11.82-19.22-20.91-26.25c-10.09-7.81-21.16-13.82-33.44-17.48c-3.13-0.93-6.49-1.48-8.02-5.16
		c0.82-0.68,1.61-1.9,2.51-1.98c17.89-1.66,35.79-3.27,53.7-4.7c10.12-0.81,19.97,0.63,29.2,5.03c4.88,2.32,9.04,5.45,11.35,10.71
		c4.54,10.32,9.32,20.54,13.67,30.08c-9.71,24.16-24.81,46.88-40.73,61.85c-2.39,2.25-4.53,4.43-7.93,5.58
		c-11.16,3.78-19.45,10.99-24.28,22c-1.02,2.33-3.11,4.2-4.52,6.04c-4.64,0.46-6.13-2.82-7.68-5.41c-2.03-3.4-3.2-7.31-5.13-10.77
		c-2.6-4.65-8.4-6.76-13.85-5.65c-5.41,1.1-9.81,3.97-13.88,7.5c-12.64,10.97-19.67,25.16-22.44,41.31
		c-1.79,10.45-2.34,21.14-3.01,31.75c-0.62,9.96-0.94,19.96-0.87,29.94C1230.62,378.89,1227.57,385.79,1220.85,391.81z
		 M1331.65,211.34l0.48,1.33l0.5-1.31L1331.65,211.34z"/>
	<path class="st0" d="M2073.06,749.28c3.92-1.09,7.17-0.94,7.87,5.38c-2.93-2.35-5.15-4.12-7.38-5.9L2073.06,749.28z"/>
	<path class="st0" d="M2094.33,596.12c0.93,0.59,2.23,0.99,2.67,1.83c0.33,0.64-0.44,1.85-0.72,2.8c-0.73-0.6-1.92-1.09-2.08-1.81
		c-0.22-0.97,0.36-2.11,0.6-3.18L2094.33,596.12z"/>
	<path class="st0" d="M2121.95,756.52c1.15,0.17,2.71-0.06,3.34,0.6c0.98,1.02,0.13,2.11-1.56,1.86c-1.63-0.24-2.06-1.39-1.38-2.9
		L2121.95,756.52z"/>
</g>
</svg>
