<?xml version="1.0"?>
<svg xmlns="http://www.w3.org/2000/svg" version="1.2" baseProfile="tiny" width="800" height="1268" viewBox="0 0 800 1268" stroke-linecap="round" stroke-linejoin="round">
<g id="ne_50m_admin_1_states_provinces">
<path d="M 222.3503 1229.6383 216.9273 1232.1178 191.916 1259.1384 104.3556 1267.161 109.1822 1261.0433 127.6681 1260.0175 153.6555 1251.6806 148.528 1237.1284 138.675 1221.094 129.4649 1219.2191 123.4796 1209.8021 124.0333 1180.3307 118.3086 1163.0424 104.2932 1145.1535 99.468 1148.5091 88.7269 1178.6857 79.6331 1218.3068 75.2002 1231.0769 49.2864 1231.6148 26.3931 1228.563 15.0825 1229.0839 12.7785 1174.8563 11.0395 1125.3597 9.323 1075.8387 7.6218 1026.2987 5.9384 976.7393 4.2733 927.1486 2.6263 877.5436 1 827.93 7.1867 779.2099 13.3609 730.4806 19.5172 681.7442 25.6675 632.992 31.804 584.235 37.9189 535.4842 44.024 486.7308 50.1165 437.9771 56.1863 389.2256 62.2472 340.4904 68.2895 291.7623 74.3102 243.041 80.3186 194.3376 86.3117 145.6547 92.2819 96.9945 98.2363 48.3482 99.7399 36.011 100.0701 31.7929 100.8995 25.4698 81.9976 7.891 78.259 4.411 75.6368 1.1785 78.3872 1 113.0617 1.7838 147.7378 2.5248 182.4288 3.2145 217.1243 3.8528 251.8279 4.4397 286.5363 4.9809 321.2462 5.4706 355.9612 5.9204 390.6781 6.3186 425.3935 6.6654 460.1111 6.9606 494.8276 7.2101 529.5395 7.4081 564.2509 7.5718 598.9509 7.6755 633.653 7.7275 639.8136 41.3397 645.983 74.9658 652.1703 108.5993 658.373 142.2421 664.5884 175.8819 670.8261 209.5409 677.0785 243.2067 683.3408 276.8787 689.615 310.5588 695.9057 344.2403 702.2079 377.9254 708.531 411.6072 714.8676 445.2909 721.2128 478.9815 727.5686 512.6753 733.9397 546.3654 739.6437 561.614 744.4247 586.3769 777.0737 659.3649 786.7588 690.0907 784.2879 702.9129 788.3682 713.7131 799 722.4876 797.3594 732.9136 783.4321 744.9861 774.3648 759.5391 768.0805 785.1059 768.1171 785.2417 755.4419 830.3763 755.7023 857.7875 769.2128 894.9043 769.2482 894.9588 772.2376 911.4136 764.857 984.6667 771.2363 1031.5629 785.295 1061.8852 712.3025 1063.2547 639.1156 1064.2506 565.8968 1065.0118 492.6573 1065.5354 419.4008 1065.8213 346.1435 1065.8664 272.8919 1065.6766 199.6446 1065.2491 196.4094 1084.0619 197.7395 1102.1996 205.5403 1119.389 238.1816 1152.3099 241.1845 1160.2674 235.2574 1185.404 236.1775 1203.3452 232.6201 1212.6207 224.5398 1220.6931 222.3503 1229.6383 Z M 89.4989 1261.3386 69.3853 1266.7104 39.6652 1265.7521 33.6416 1263.6834 45.6076 1260.1106 80.8863 1255.5977 89.4989 1261.3386 Z"/>
</g>
</svg>