<?xml version="1.0"?>
<svg xmlns="http://www.w3.org/2000/svg" version="1.2" baseProfile="tiny" width="800" height="510" viewBox="0 0 800 510" stroke-linecap="round" stroke-linejoin="round">
<g id="ne_50m_admin_1_states_provinces">
<path d="M 635.7166 320.9703 635.9512 321.1679 638.7222 321.9554 641.3152 322.6835 643.0823 325.9796 646.2024 328.0914 648.5836 329.6904 650.8669 331.2134 654.1423 333.3808 656.4423 334.8898 659.5132 336.8901 661.3404 338.0708 662.7141 340.9318 664.365 344.36 664.2975 346.6606 665.5688 346.6941 667.3776 343.652 669.2358 341.5642 671.5168 338.9797 673.0471 337.2342 676.3963 336.2378 677.1601 332.1622 675.9818 327.0684 677.6833 326.6812 678.511 325.7098 678.5946 324.091 677.056 322.3451 679.9972 320.4877 682.1168 319.1381 684.9127 316.3096 687.6248 313.5406 689.4853 314.5061 691.3216 315.4236 695.0802 317.8215 695.4816 318.5496 695.6754 320.1538 695.7797 321.784 698.6647 325.551 699.3002 325.8722 700.9254 326.0107 703.0495 326.8841 704.1442 327.8747 707.1997 329.0275 707.8414 329.7056 708.4264 330.9477 709.1374 331.9469 709.8265 332.6055 710.5879 333.6101 712.0501 334.6103 714.5551 335.4404 716.2918 336.0109 718.7275 336.8039 721.6017 339.113 724.102 341.1062 726.8491 342.9742 727.0991 345.124 730.0426 347.566 733.3317 350.8087 735.9937 353.7633 737.7405 355.3186 739.9717 357.6702 742.7061 360.5349 745.8211 363.7796 748.0732 365.7607 751.081 368.5737 752.6692 370.3215 752.3942 372.0191 752.0491 374.1215 754.8907 374.0036 756.8596 373.915 756.9649 376.0677 757.0999 378.907 759.4342 379.1672 761.0202 379.3394 761.1197 380.8178 762.319 382.0734 763.1654 384.5807 765.6165 383.4588 766.6983 382.9595 768.5095 383.5132 770.8981 384.2367 773.2645 384.857 775.2855 385.38 777.686 385.2032 780.6892 385.119 782.6237 386.6345 785.3512 386.5045 787.1204 388.9961 790.28 388.8654 791.7421 387.4641 792.6924 388.3778 793.5697 389.5195 794.2048 391.1564 794.5415 392.8685 794.2425 394.5461 794.1484 396.2557 794.2613 398.0007 794.6329 399.7679 795.2634 401.5591 796.0251 403.0314 797.7801 405.602 798.6066 407.2795 799 408.4597 798.2683 413.5073 798.1722 415.8023 798.4984 416.6733 797.661 419.37 795.8407 423.4025 795.1084 425.5907 794.3524 425.2844 790.7662 426.274 788.4548 423.0468 786.9696 420.4088 785.2488 418.2783 785.1154 417.6895 785.5509 415.6245 788.5867 412.831 788.46 412.2641 787.0804 412.4142 786.6005 411.9316 785.4649 409.3198 784.8664 406.8612 784.3151 405.2931 782.8042 402.2355 781.3747 400.5639 778.0543 397.5032 777.5853 396.582 778.1907 394.9495 778.4534 393.546 775.3334 397.0433 770.857 401.1613 769.0857 403.4934 768.791 404.2664 768.7726 404.8302 769.558 406.0787 769.6197 406.5529 769.401 407.5527 769.5142 410.0946 769.0718 413.0011 768.6409 413.7279 766.3779 413.5678 765.6229 412.9788 763.7398 410.1157 763.7419 409.1624 764.278 408.1568 764.8443 406.2061 765.4348 403.309 766.1091 396.2423 767.6457 395.6187 770.0228 393.3455 765.5844 394.3793 764.8578 394.3011 764.0493 393.6781 763.1604 392.5101 761.8712 391.3235 760.1007 391.4038 759.235 391.1103 757.6547 389.6653 756.7067 389.1037 756.0313 388.2228 755.6287 387.0262 755.1543 386.5231 753.9752 386.7142 753.2559 386.5162 752.2301 383.4136 749.7922 383.4097 748.6936 383.0382 746.6997 381.5846 746.0369 380.7639 745.69 380.0062 745.4541 377.6853 745.1929 377.3278 743.9658 378.0164 735.0266 377.435 734.2631 372.773 731.207 367.3128 728.9826 365.4279 729.0483 364.3773 729.2563 363.7613 729.9618 363.5078 733.4804 364.2174 736.9108 365.3024 737.1995 364.8688 731.4331 362.041 729.9348 361.1102 729.2278 359.6122 728.9834 358.7654 729.2272 358.1926 733.6143 357.1101 733.778 356.6909 729.096 356.8954 728.2102 357.2049 727.7521 359.3929 727.416 359.9887 726.457 360.2159 726.0681 360.0358 724.3648 358.1499 722.9024 356.9273 720.3714 355.3939 719.5981 353.9556 718.9059 351.6911 718.5978 349.4329 718.8831 343.9396 719.296 342.8671 719.3198 342.2707 718.8537 342.515 718.5145 343.141 717.81 345.8834 717.4418 350.1142 716.6655 351.7685 715.8857 351.6847 714.4316 350.4877 711.744 349.3167 709.0677 349.6459 706.9674 348.2258 703.2346 343.5869 702.243 340.9972 701.7738 340.4334 700.2682 339.9584 699.1565 338.9071 696.3046 332.703 693.568 328.6075 692.5693 326.3039 692.1049 323.8573 691.8321 323.6552 691.7507 325.6957 691.8492 326.7173 690.9102 327.2959 692.327 328.9088 692.7988 329.7857 692.3042 329.8501 691.3919 330.3788 693.8354 333.1215 695.8116 337.9109 697.825 341.2847 699.2797 344.0683 700.1643 346.2457 701.1693 348.2766 703.6467 352.6723 704.0601 353.571 704.0969 354.398 703.8949 355.4563 703.239 356.0342 700.7554 356.1216 699.5903 355.2045 697.8067 353.4045 695.8022 352.9292 691.5519 354.7321 691.1628 354.6669 690.7583 352.8726 690.5057 349.5388 689.7993 348.3707 686.4442 344.3354 686.2623 343.4079 688.8601 340.3429 687.3126 340.6227 686.2941 341.8186 685.6955 341.4121 684.2493 338.6096 683.5113 337.6231 683.2208 337.4491 683.7589 340.3541 684.6293 341.7133 684.9076 342.564 685.1095 343.8027 684.9875 344.7671 684.5416 345.4572 684.0027 345.755 682.8066 345.4515 681.3707 344.6435 680.2239 344.3945 679.7372 344.0445 678.9634 342.918 677.9511 342.1833 673.8587 342.0263 671.2567 341.2111 671.1519 341.6418 672.2074 342.988 672.4794 343.8791 671.9652 344.3138 671.2599 346.0544 671.6033 346.1741 672.588 345.397 673.8161 345.121 676.0257 345.4543 678.1132 346.1052 678.9224 346.5693 679.4145 347.4537 679.7217 347.7327 681.7641 348.3468 681.9858 348.9126 681.2342 350.9947 683.566 350.126 685.0913 350.3572 687.4841 352.5527 688.4371 353.887 688.9672 355.7927 688.7306 356.4618 688.1168 357.0547 683.4071 359.0808 682.1744 361.9111 681.8184 362.048 680.3344 361.7913 677.484 360.6085 674.0574 359.6677 665.9941 356.252 665.7515 356.0526 665.4213 355.0619 664.835 354.6656 663.8023 354.4643 662.2171 353.4623 660.0831 351.6567 658.6895 350.1725 658.0343 349.0139 656.7705 347.8189 653.0307 345.5915 651.1647 344.8381 649.5913 344.5403 648.3108 344.7027 647.892 344.3819 648.3364 343.5793 648.3417 343.1677 645.4589 343.2147 642.5525 342.4247 635.1218 339.982 631.211 338.257 628.9818 337.5045 628.0001 337.0195 627.5224 336.5543 627.8971 335.8755 629.1223 334.9808 629.902 334.0995 630.8508 331.2421 630.8038 330.4023 629.6888 328.7265 629.0287 327.1214 628.8668 326.1854 628.8646 325.2254 628.9655 324.5701 629.4547 323.85 629.8189 323.4595 630.3759 323.5432 632.486 325.4761 632.8834 326.2638 633.4153 329.4371 634.6081 333.017 634.7072 332.7109 634.6256 331.4557 634.2738 329.1024 634.2444 327.9397 634.3908 326.7659 634.8813 326.0495 636.8232 325.9509 637.6495 325.5538 633.6687 324.7301 630.767 322.1219 630.2894 321.8895 629.0081 322.0303 627.9178 323.5923 625.2561 328.4849 624.4261 329.4203 620.4959 332.6443 617.6243 333.7272 614.2322 334.0529 611.2643 333.8822 603.5286 331.6472 602.2768 331.0138 603.5615 328.4454 603.5131 327.7283 602.5595 325.5432 601.9789 324.9775 601.245 324.7446 601.0993 325.0383 601.2041 325.721 601.5913 326.9487 601.1575 327.7185 600.0657 328.6664 598.1447 329.7755 591.5279 329.0701 584.8105 328.6614 578.9623 329.3113 570.9159 331.8483 566.6813 333.7543 564.1264 334.2546 561.6252 334.3888 561.3157 333.5512 562.3819 332.8824 562.2411 332.2638 560.5723 330.5122 558.2645 329.6305 555.3141 329.6116 553.5862 329.2637 553.0806 328.594 551.9747 328.0382 550.2685 327.5921 549.4157 326.5007 549.5663 322.7594 549.8685 320.4855 550.2459 318.9035 551.3408 316.2193 550.8795 316.4686 549.0764 318.5679 547.5302 320.6895 546.1699 323.3619 545.3189 324.6184 544.1783 325.8179 542.193 325.8094 539.3693 324.5855 537.0103 324.0565 535.1094 324.2258 534.3326 324.0458 535.488 322.5195 536.1192 321.3276 536.9542 319.4302 537.0883 318.5395 530.1423 319.0347 529.7984 318.1237 529.7223 317.4337 529.4454 316.8875 528.4038 316.5696 527.0331 317.0432 524.8621 318.3894 523.8005 317.6466 524.109 317.1361 524.8193 316.7129 526.1792 314.9487 524.0669 314.3259 522.9392 313.4766 522.3621 312.743 522.1428 309.9045 522.5139 308.0334 526.8864 305.8037 525.3872 305.2633 522.5501 305.7953 520.7621 307.4865 518.663 309.8742 517.1931 310.8287 516.3616 310.3551 515.3072 310.262 514.029 310.5502 513.2049 311.1817 512.8344 312.1618 512.3691 312.8416 511.8088 313.2217 511.376 313.1536 510.6775 312.2466 509.3251 311.7612 508.6303 311.0818 508.2974 311.5754 507.9552 312.9973 507.5359 313.7381 505.3746 314.6399 504.1473 314.6035 502.5729 312.9748 502.3217 312.385 502.7103 310.8391 505.4579 304.6153 505.1438 304.6752 504.1861 305.6967 502.3072 308.2451 501.4426 309.0272 499.8743 309.2362 499.1209 309.0347 498.2436 309.2932 497.242 310.0081 496.6052 310.758 496.3343 311.5419 496.5594 311.6562 498.0806 310.6726 498.9588 310.374 499.2369 310.7776 498.1849 313.5627 497.6027 316.1887 496.9293 316.8862 495.7853 316.8586 494.5561 317.1993 494.5819 317.9194 497.0358 319.8124 497.8964 320.041 499.0208 320.6969 499.2322 321.4121 498.9555 323.4091 498.7001 324.2061 498.2333 324.6439 496.3226 324.7133 495.7187 324.9597 494.5094 326.2835 493.9281 327.3512 494.1676 327.4244 495.2269 326.5033 496.813 325.9379 498.9259 325.7243 500.4731 325.1596 501.4529 324.2457 502.4778 324.4054 503.5502 325.6359 503.9234 326.7573 503.5944 327.7715 502.8289 328.5361 501.6264 329.0496 500.891 329.738 500.6224 330.5996 500.5214 331.8564 500.5878 333.5088 501.0951 336.456 500.8807 336.8756 500.4291 337.1314 499.7402 337.2222 499.1615 337.9652 497.9489 342.0176 497.4597 342.4832 496.8193 342.1029 496.2774 342.1869 495.8332 342.7339 494.8133 343.1979 493.2182 343.5757 491.8323 343.5628 489.3601 342.8612 488.3395 342.3196 487.5157 341.3768 485.3934 342.5519 484.7952 342.1277 483.3078 339.4645 483.0224 339.6434 482.9026 342.6087 482.5383 343.6652 481.2913 345.8749 480.72 349.5929 480.5006 349.7118 480.2239 349.1957 479.2485 345.9511 478.7772 345.2511 477.6384 347.2067 477.5331 347.8993 477.9567 350.331 477.687 350.7126 475.1563 349.5127 474.5442 349.4774 474.3918 349.7056 475.3113 351.5657 475.2415 352.2528 471.8627 356.0723 470.9386 355.9795 470.3471 355.638 469.7153 355.7211 467.5193 357.1733 466.8976 357.1362 466.0262 356.3575 465.6338 356.4066 465.4493 357.2543 465.4723 358.8998 464.6848 360.4899 462.0715 363.0998 461.3884 364.2821 460.8887 365.8854 460.4891 366.0486 458.8844 365.0749 457.0398 364.4609 456.7939 364.7964 457.3716 365.751 457.2664 366.3478 456.4781 366.5899 455.4733 366.529 454.2529 366.164 452.5597 366.6461 450.3898 367.9698 448.559 367.9654 445.9829 365.8944 445.2793 365.7466 445.0492 365.1555 445.5269 363.4417 446.2335 362.1388 446.7573 361.538 449.1422 359.8436 451.8814 359.1837 453.5905 358.1496 455.6451 356.044 456.7185 354.4705 458.7961 350.4275 458.6243 350.1242 458.1333 349.9216 453.4463 353.8182 452.7469 354.1849 451.7961 354.1785 447.956 352.7995 447.1415 352.1916 446.568 350.3808 447.5686 346.2276 448.2789 344.2157 450.0764 341.0942 452.4244 337.7496 453.2138 335.5902 454.3403 329.8322 454.2148 327.231 453.5953 324.0667 453.5365 322.18 454.0354 321.5719 459.38 318.4898 461.8766 316.2088 466.7213 312.7814 468.0667 312.758 469.0943 313.8389 470.2774 314.689 471.6153 315.3051 473.3021 315.1614 475.3341 314.255 478.6177 314.4027 485.4423 316.1757 486.8786 316.211 486.9192 315.9352 485.8029 314.4978 481.1318 313.8887 479.1441 313.1214 473.5114 309.5563 472.2091 308.1334 472.6857 307.4178 473.9941 306.7881 474.4273 306.2144 474.5795 305.2469 475.2879 303.8977 476.5482 302.1608 478.5067 300.4422 482.2295 297.8362 480.7239 297.8156 477.9875 298.4029 477.0045 298.9117 475.2302 300.7214 474.5616 301.9655 473.6267 304.3736 473.2037 304.8398 471.2885 305.2675 466.0398 305.7146 465.1105 304.5397 464.6115 304.3605 463.9653 304.5529 459.2214 307.7927 457.5239 309.4152 456.3262 311.2432 454.4335 312.6055 451.8461 313.4978 449.9139 314.5686 447.8889 316.6686 447.2114 318.2599 447.1811 319.0032 447.7136 321.3376 447.2092 321.7838 446.0169 321.9855 444.1164 323.5612 440.0938 328.2088 439.5721 329.8826 439.5983 330.4567 440.2724 331.7529 439.8132 332.6017 438.6684 333.9461 436.1072 336.0745 434.4187 336.8828 433.3209 336.9245 432.2651 336.6224 430.3924 335.2553 428.8745 335.1659 428.7803 335.3569 430.8433 336.8225 432.9453 338.7014 434.2598 340.2581 434.7817 341.4943 434.8068 342.766 434.3334 344.0735 432.8359 346.3469 431.3633 347.0233 427.5962 347.6935 426.3788 348.2265 426 348.6446 428.5847 349.6196 428.8167 350.1119 428.4517 352.0114 427.7583 352.6296 425.5853 353.749 423.6392 354.0593 423.345 353.8381 423.7211 352.3475 423.6209 351.9793 422.8961 351.6657 421.8551 352.2232 419.247 354.3848 418.9655 354.7428 419.8913 355.345 419.6888 355.8331 418.2645 357.3917 417.6655 358.4326 416.7093 359.488 412.4567 362.6776 412.7607 363.4825 411.6101 366.308 410.9509 368.7966 411.6778 369.8718 415.21 371.1845 416.9298 371.5161 418.9511 372.4147 422.611 374.791 423.8275 376.3234 424.006 377.0411 423.8854 377.8205 423.4327 378.8694 422.2512 380.844 419.4135 383.7591 418.1329 384.5753 416.2008 385.1969 415.5606 385.6643 413.0385 388.4073 412.343 389.8995 412.4243 391.2132 411.9327 392.1233 408.6967 393.8517 408.8039 394.1748 409.9637 394.3412 409.5035 395.9205 409.2695 398.1228 408.7035 398.4793 406.6951 398.4092 404.1203 399.1914 403.9341 399.428 403.8464 401.0123 397.1207 401.9402 395.5567 404.8891 394.7609 405.7793 392.0517 407.8511 390.4055 408.6578 388.5404 409.1019 387.5443 409.7938 387.4175 410.7387 386.8604 411.53 385.202 412.8047 384.3464 414.466 383.7628 414.7041 380.7557 414.9527 380.136 415.4565 379.7427 417.7371 379.1848 417.7785 378.148 417.1831 376.7443 417.5157 373.5038 419.9187 372.7721 420.8073 372.8225 421.3103 373.2828 421.836 373.9466 423.4227 373.8487 424.457 372.497 427.2682 372.0506 427.6872 370.5446 428.3068 369.8623 429.8622 368.5151 429.5953 367.4087 429.8226 366.637 430.8369 365.8264 431.3949 364.9777 431.4959 363.8743 432.2618 362.5149 433.6912 361.2796 434.5739 360.1705 434.9096 359.1099 434.9313 358.0982 434.638 357.1657 434.7402 356.3116 435.2362 355.4567 436.0533 354.6606 438.4937 353.7784 439.5415 353.2538 439.6928 352.2178 439.4395 350.6731 438.7798 349.0564 438.8257 346.3601 440.1197 345.4549 441.197 347.0711 441.6001 347.8581 442.0021 347.8146 442.3223 346.9394 442.5587 345.4896 442.4047 344.5974 442.591 343.487 443.1489 340.7673 443.602 339.7167 444.01 337.4835 446.687 337.1915 447.3126 337.4392 447.4828 338.5946 447.2918 339.8903 447.9002 340.537 448.575 340.9245 449.3672 341.2386 450.8511 341.4823 451.0873 338.7304 453.2605 337.9234 454.2147 337.4231 454.5499 337.1379 454.2244 337.0261 451.4984 336.8675 451.0212 336.2674 450.9127 335.6161 451.7049 334.0799 454.7567 332.5511 456.2127 321.6472 459.148 320.0154 459.8963 319.561 461.6058 318.9907 463.0644 318.1798 464.1815 317.2891 464.8446 317.1621 464.2821 317.6289 460.0456 317.4886 459.1753 316.4731 458.5041 315.9985 458.5226 315.3324 458.6819 314.1915 459.4716 313.5235 459.6205 312.7261 459.4437 311.2642 460.176 307.7104 462.6525 305.5005 463.0895 304.8749 463.6157 303.8017 465.0748 303.1369 465.5718 302.2349 465.5007 301.0968 464.8624 300.1083 465.0676 299.2674 466.1168 298.4866 466.4685 296.493 465.3273 295.5145 465.7757 294.1639 467.085 292.8119 467.8807 291.4608 468.1635 288.0315 468.1537 286.7119 467.6329 286.4852 467.1614 286.7625 465.286 287.4597 464.007 288.0347 463.4405 288.7681 462.9741 289.7548 463.0559 291.5414 463.7533 291.3839 463.2655 290.7777 462.6255 289.1968 461.4379 287.584 460.7085 286.5926 460.8645 285.1644 461.3777 284.1545 462.0654 283.5637 462.9301 282.5989 465.9041 282.1522 466.6797 277.568 471.4422 275.8185 472.8481 274.3 472.4713 273.4801 472.9745 272.2695 474.1426 271.2246 474.6216 270.3465 474.4127 269.6902 474.0406 269.2568 473.5055 269.3943 473.0984 270.1025 472.8187 270.0006 471.7027 269.0917 469.7492 268.4436 468.6601 266.9992 468.2981 266.6697 469.0589 266.6405 473.2322 266.4474 474.1389 265.3809 475.1444 262.8095 476.0173 262.0729 475.7569 260.2451 472.8115 258.2709 471.933 258.0244 472.7404 258.2532 474.5233 257.5309 476.0157 255.8534 477.2185 254.6306 477.7246 253.8644 477.5359 253.9618 476.4964 254.9227 474.6031 255.3272 472.9495 255.1768 471.5374 255.356 470.5066 255.863 469.8603 258.8376 468.3495 260.015 468.256 260.5593 468.8642 261.3094 469.0866 262.2647 468.9229 262.9251 468.3827 263.289 467.4647 264.6159 466.4399 266.9022 465.3055 269.6495 462.9407 272.8515 459.336 276.4337 456.3526 280.3976 453.9858 284.5845 452.2601 292.8188 450.2205 293.4013 450.506 292.566 451.4496 292.9845 452.1768 293.7496 452.3742 296.6934 452.2739 297.9121 451.7559 298.1824 452.4603 297.6917 453.2309 295.8644 453.8199 295.8383 454.5228 298.0169 458.1437 298.7618 458.7495 299.4307 458.781 299.7559 458.3992 299.7914 456.0171 300.6932 455.6881 302.4553 455.819 303.5651 456.2816 304.0229 457.0779 304.9653 457.8128 306.3929 458.4837 307.3233 458.4587 307.7551 457.7365 307.2139 456.7392 304.601 454.3526 303.9061 453.4076 303.8361 452.212 304.3887 450.7662 305.4977 448.657 307.1591 445.8795 308.5973 443.9712 311.3168 441.9475 313.1062 440.999 317.6892 437.9616 326.1621 435.2749 328.3752 433.1586 331.3235 430.8687 332.5464 430.357 332.4633 431.356 332.7634 432.2878 334.5414 433.0734 335.7117 433.4024 336.2718 433.2768 336.4975 432.3412 336.3904 430.5945 336.4598 428.9609 336.7048 427.4416 337.0668 426.256 338.4489 424.2227 340.4401 421.945 343.1118 419.3236 344.7546 418.1738 346.2623 417.6202 347.7596 416.5009 350.3902 413.7597 351.1997 413.3429 352.9733 412.908 353.5909 413.22 353.9138 413.9946 354.3382 414.4942 356.0737 415.0561 357.2902 414.491 357.1211 414.127 356.1833 413.8264 355.6023 413.3468 355.1455 411.5333 354.0521 410.3707 353.8705 409.1461 354.2083 407.287 355.5025 402.9614 355.9711 398.4344 357.0252 395.902 358.8546 395.1025 362.8112 394.7622 360.5958 393.4062 359.7451 393.3312 358.2931 392.6603 357.9166 389.7734 358.0675 387.7063 359.2051 385.3901 363.0787 381.6223 367.1982 379.1068 366.6784 378.8386 366.2412 377.9687 368.3904 372.4693 370.4438 367.5597 367.8157 371.6841 364.8592 374.7605 356.5098 377.9241 350.7618 380.6303 348.0828 381.1541 346.4141 380.1856 345.3068 377.0108 344.626 375.853 343.8016 373.769 344.4254 371.2231 345.3475 369.5067 347.0763 369.3729 348.9325 370.4152 350.5973 370.6402 348.5817 368.6777 345.6047 366.8471 344.1615 367.2123 342.8826 369.6085 341.3 371.183 340.0874 370.4462 339.3969 369.6724 339.7388 371.8202 338.5096 374.9101 337.9557 377.0777 338.8428 383.0323 338.3903 385.3287 335.7778 386.1317 333.8934 384.0074 330.2993 376.181 329.0184 373.9169 326.0361 370.0706 324.8979 370.4364 323.3372 371.9799 321.9404 372.2887 318.6413 369.3317 317.1915 367.2016 315.8826 364.67 313.3569 365.6453 311.1054 366.8991 308.385 369.0063 306.7525 368.7605 302.0599 370.2207 301.5829 370.1969 300.8222 371.2293 300.1473 371.6435 299.3784 373.7306 293.1441 374.5034 287.3183 372.6378 289.5504 371.7814 291.9907 371.2095 294.2883 369.2701 293.8165 366.1347 293.8644 364.5795 294.1364 362.6454 296.6628 360.2523 294.397 359.9149 292.8182 360.6662 291.7237 358.4093 291.6179 354.2841 293.4772 352.142 294.4338 350.4154 295.3678 347.9831 295.6949 345.8184 294.9884 341.9562 292.6418 333.6255 291.9083 327.5586 289.732 324.0346 292.384 319.2599 295.1802 314.9617 298.2386 313.3124 298.0584 312.9681 296.5246 312.7453 295.4815 312.8639 294.3806 314.2346 293.2808 315.238 289.5034 320.6678 287.1921 323.2281 285.8334 323.8462 287.6715 325.2896 287.841 326.2773 287.9255 328.471 287.0448 330.9738 286.328 332.317 283.9715 331.8073 281.5404 333.5244 276.1946 334.9133 269.2374 334.9811 265.9464 334.2091 262.9285 330.9304 263.2039 329.4151 263.5609 328.1201 259.409 322.6404 257.423 317.5839 255.4649 317.0858 253.9612 315.5333 252.2743 313.2489 252.7222 311.7784 253.2295 310.7821 252.1286 309.7847 250.5342 309.5272 248.7924 308.6249 254.6361 303.8265 256.976 300.2724 258.409 299.9897 260.0351 300.9379 262.1623 302.9501 264.0697 304.0236 264.6779 304.887 265.1972 306.3972 264.0165 308.5284 263.018 309.9901 263.9856 309.729 266.9381 307.7342 269.1841 305.9054 270.0492 306.3019 270.5728 306.7966 271.2536 309.2467 272.1894 311.7843 275.4199 310.1207 277.3894 307.6693 276.2808 306.2409 274.8102 305.2475 270.9307 303.5789 272.0412 302.9801 274.6097 303.5408 275.7031 302.9681 274.8472 301.747 273.72 300.5881 269.7336 303.0248 263.4298 301.6562 259.3343 298.9857 254.8924 298.4036 254.2652 297.9056 253.5895 296.768 256.4674 294.9965 258.4378 294.0905 258.6614 293.3777 257.6671 293.0809 255.6561 293.2958 255.0009 292.0699 255.4747 290.275 255.1341 290.374 254.2013 291.214 253.232 290.5005 252.4785 289.4894 253.1162 288.714 254.2701 287.7054 253.8903 287.4407 253.0087 287.5212 251.9023 288.924 251.8412 290.2344 251.4783 292.0557 250.0248 292.094 248.8752 291.6203 248.3658 289.6003 248.2356 285.4743 246.052 283.9097 245.8575 281.7924 247.8597 279.5687 247.4545 278.1073 245.9472 277.33 243.8716 278.2149 243.2956 276.89 243.4 275.6003 243.7004 273.7816 244.2426 273.7045 244.5896 274.1558 248.4224 273.9542 248.8688 273.5426 246.2911 271.3842 245.8101 269.604 247.1803 268.9581 249.3376 269.3515 252.5317 269.0491 251.5986 267.0749 251.5175 266.0824 251.5648 264.4949 252.5707 262.0011 257.2298 256.7761 261.5801 252.4971 262.8544 251.5619 264.5224 251.2545 265.8781 252.0226 267.1918 253.3965 267.5623 252.9943 267.1298 252.4535 266.8593 250.2805 269.0996 249.8918 270.7455 247.819 270.9583 247.1686 269.4546 247.87 267.7797 249.1755 267.7254 247.52 268.0454 243.7968 269.292 240.4648 270.0495 239.0074 271.4646 237.7611 274.8653 237.8077 275.3924 238.2131 275.638 237.5415 274.0503 234.9871 275.1734 233.4422 276.0456 232.6962 280.2528 232.0604 282.3448 232.8886 284.7928 234.9916 286.0405 237.2783 285.6367 238.2673 285.1413 238.7923 284.2041 239.3124 283.8081 239.7737 283.8862 240.2125 285.2624 239.2271 287.4286 238.1119 288.4013 238.9329 289.0677 240.2305 290.015 240.3734 293.1751 239.8955 294.8638 239.1021 297.1479 236.6879 299.8888 235.3269 304.1868 230.3154 305.54 228.1912 306.7695 228.0208 307.8038 228.3852 308.2738 230.3706 309.2812 231.0809 315.5408 231.5277 318.8251 231.1093 321.2633 229.5875 323.9415 226.8236 325.5216 224.9388 326.4884 222.3395 326.1151 218.7647 325.6536 215.7762 325.4185 209.0493 322.9983 204.3037 321.0521 202.7169 319.6827 202.7147 321.0358 200.0828 323.8237 200.7664 325.7378 200.4732 327.4038 199.3334 328.0222 198.3856 329.0227 196.4144 329.0537 194.177 328.8146 192.9306 327.9676 191.4815 327.0132 189.3947 326.2555 188.6415 325.5362 188.5878 321.4855 191.9684 319.3593 191.7428 317.8794 190.8075 316.1881 192.8054 312.064 194.1641 309.7168 195.7963 305.1523 200.0269 303.8508 202.0576 302.6128 201.9596 302.4063 197.5848 298.9298 192.8706 297.4552 194.0313 297.9316 195.4135 298.7195 196.4723 300.2024 197.1228 299.3342 198.2352 298.5616 199.7795 297.2586 197.9918 294.8627 195.3025 292.2012 193.6636 284.7587 192.4496 279.4739 193.7921 279.1159 193.237 278.6826 192.9586 277.7703 193.3413 277.2464 194.1918 276.6054 194.6681 275.5711 194.6795 273.64 193.9412 270.0692 191.756 261.8358 187.8707 259.8511 186.117 258.5793 182.6861 259.0662 180.6567 260.106 179.9818 260.6643 177.041 259.1809 175.8979 256.7672 170.9488 255.9473 168.8831 256.258 168.7456 256.7464 169.3663 257.8028 169.9873 260.7316 170.0332 262.2911 167.5285 264.5359 167.2062 266.3625 168.0031 266.0923 167.1729 265.731 166.4879 261.0805 164.0156 260.3135 164.2897 252.0531 159.8067 246.1773 153.8934 245.8157 152.9446 245.6392 150.9809 247.0061 149.4211 248.1416 148.8031 247.9403 149.7983 247.8498 150.8003 252.3212 149.4986 255.0769 147.0349 259.077 147.418 260.1693 146.8091 261.7402 145.4959 264.0791 143.1706 266.8259 142.2783 268.7631 141.3558 271.0784 141.0616 272.6368 142.7156 273.1662 143.0083 276.452 143.9635 277.6675 143.6409 278.2216 143.3275 278.706 142.7527 275.9202 139.7879 276.5245 138.5817 277.1323 137.7693 281.4931 135.8732 284.5917 135.5699 286.1404 135.937 291.3561 133.3504 294.026 132.8254 298.8195 133.0118 302.6935 133.517 303.5126 134.9321 301.4917 134.3147 300.5394 134.3801 301.1111 134.9169 301.6789 135.9452 301.2592 137.0465 299.3645 140.2031 298.9743 142.9274 297.9771 143.6562 296.9384 144.7471 300.2379 149.3501 306.4326 150.6506 309.9503 150.4957 311.7259 151.9792 313.2974 152.497 317.8553 152.5743 321.0952 153.9071 322.5529 153.7893 326.5167 148.3566 327.859 147.602 329.0317 148.802 330.6383 149.8615 331.8203 149.405 332.5121 151.0361 332.5191 147.8217 332.0754 146.5582 327.3369 143.7121 323.8128 144.3192 322.9435 142.9476 323.6535 140.5792 320.9971 134.1102 319.7084 132.6851 317.972 132.3645 317.4178 130.1668 317.1088 127.4043 318.7773 126.5524 320.2049 126.2658 321.3202 127.3038 322.194 130.9967 323.4404 131.7019 322.5217 135.1199 323.6918 138.5619 327.0109 142.0719 330.1866 141.3853 332.3143 141.7003 333.5039 142.4951 336.2776 145.5775 337.83 146.1131 343.0015 145.303 343.3775 142.671 343.1948 140.7111 342.1803 139.3763 338.8083 139.1976 336.4704 136.907 334.1914 137.1639 329.6869 139.6323 327.8099 138.1686 326.761 136.3849 324.9428 134.4637 325.1489 131.3451 327.393 128.0523 328.9067 126.547 327.9571 125.1635 325.2529 123.9008 320.2035 124.0602 320.1647 122.8266 320.3976 121.535 317.9901 123.7666 316.0269 122.9178 313.2207 122.7522 307.5402 119.5282 305.8881 116.4172 305.3986 114.0361 304.9217 107.6648 303.6026 103.5039 292.352 88.0446 286.8647 83.5808 284.7113 79.4118 283.0671 78.1493 281.3915 77.4164 279.415 75.7871 281.258 74.7096 282.4073 74.459 280.9805 75.6934 281.7144 76.2405 283.222 75.673 284.1635 74.8094 286.1939 70.725 288.7558 64.4453 289.0663 61.8299 296.2357 63.8193 301.1955 64.3248 302.9323 64.0451 309.2867 64.1715 311.0243 63.7315 314.4076 62.0348 318.6123 58.7146 322.5146 54.0703 323.2332 52.7674 323.3562 53.149 323.6608 52.972 324.3245 51.081 325.5309 46.5753 327.7415 42.4979 335.5066 33.6072 338.9399 30.1258 340.1545 28.4929 341.3249 27.3408 341.8081 28.6549 342.0751 29.0625 342.1716 29.663 341.558 29.8546 340.4246 30.9788 338.9862 31.6391 338.6015 32.023 339.3815 32.0346 341.8186 31.4358 343.2824 30.5011 349.9997 29.2792 353.9478 26.3106 354.187 25.5721 359.8647 21.9253 360.5486 22.1654 361.2968 22.7638 359.5206 25.4028 360.4269 26.2441 359.1057 29.4898 360.9723 29.746 361.1978 31.3321 361.4685 30.0151 361.6838 28.1078 362.0653 26.2575 362.5006 24.9968 363.735 25.7163 366.8424 24.6281 363.3028 24.0929 361.5553 20.8397 360.3804 20.6886 364.8676 16.6712 368.7607 14.3531 369.5607 14.4825 369.8931 15.0191 369.8841 15.8357 369.0516 16.2905 368.1821 17.1681 368.434 18.0413 368.9395 18.2108 370.7433 17.6855 371.6106 16.8947 375.2765 17.3002 376.4179 16.7765 376.7391 16.1867 381.5039 16.4504 382.4156 16.0837 385.5924 13.9303 388.5649 11.2443 389.9449 9.7595 392.3942 5.9024 394.4084 3.4176 397.5769 1 398.2703 1.3599 397.2688 1.8206 396.5209 2.8782 397.3535 4.3888 403.5077 7.7203 405.0971 7.9556 405.6445 9.7883 405.0205 11.5079 403.2654 13.373 399.8093 15.1949 400.7889 15.9955 401.3578 17.7954 402.3413 18.0576 403.991 17.466 405.3096 16.4334 408.0802 12.9992 408.9829 11.0596 409.6151 10.5839 411.7612 11.1317 412.9508 12.1837 414.2891 14.0254 413.7135 15.751 413.1007 16.7156 414.8874 18.129 416.9105 18.4658 418.8219 19.6036 421.6026 17.4175 423.7427 16.9735 425.7422 17.0734 428.3547 15.8791 432.7455 17.5577 433.8668 17.1265 435.6328 17.4096 437.5164 18.4039 438.1904 19.4701 436.1858 21.7491 435.8663 24.094 436.5822 25.0668 437.8744 25.2275 438.0484 26.5961 438.8555 26.9318 442.892 26.784 442.5937 27.4398 442.4093 28.2298 441.1801 29.9906 448.4407 30.8515 449.3877 29.8603 450.8725 29.4379 454.0007 28.0159 455.2157 28.5606 456.6773 29.8754 457.991 30.1126 459.1956 29.7901 461.9337 27.7344 465.1895 27.4928 466.5603 28.0613 467.9562 27.715 472.3527 29.7067 473.9402 29.876 476.254 32.6426 477.3496 32.6596 478.4864 31.3502 479.5556 31.3163 480.6941 32.4196 482.4321 32.6588 483.3876 34.4573 484.3081 35.0689 490.9368 35.929 494.0889 35.0222 498.7878 34.7523 501.1456 35.4101 503.4997 35.0579 507.7696 37.8494 509.8934 38.1196 510.3903 38.8152 516.3597 38.9069 518.1675 36.9886 521.6611 36.0938 524.6409 34.2726 526.4495 34.0411 528.6062 34.0963 529.3866 33.8148 529.8673 33.1216 535.3915 34.7723 538.7492 37.0795 540.3767 38.9096 546.9547 40.8272 549.0164 42.1517 550.5669 43.7309 551.3078 43.8021 551.7008 43.1947 553.8474 42.9767 554.6951 43.0861 556.4244 51.5818 558.1481 60.0947 559.866 68.624 561.5779 77.1684 563.2838 85.728 564.9828 94.2988 566.6755 102.883 568.3612 111.4779 570.0399 120.0827 571.7112 128.6964 573.375 137.318 575.0311 145.9463 576.6792 154.5803 578.3192 163.2189 579.9509 171.8611 581.574 180.5057 583.1883 189.1517 584.7937 197.7983 586.3901 206.4444 587.9768 215.0874 589.5543 223.7288 591.1217 232.3649 592.6794 240.9965 594.2269 249.622 595.7641 258.2403 597.2908 266.8503 598.8069 275.4509 600.3121 284.0411 601.8064 292.6202 603.2894 301.1865 604.7611 309.7392 606.2213 318.2773 609.8684 318.7921 613.4862 319.2865 614.1059 316.7012 618.0976 317.747 621.5904 318.6433 623.2526 316.1757 625.0393 313.5019 627.9716 312.6877 631.248 311.7646 633.4292 311.1434 633.7992 313.0049 633.5907 316.2852 633.4113 319.0232 635.7166 320.9703 Z M 272.6674 139.6445 272.1796 139.7138 272.3038 139.269 273.8895 138.3606 276.6541 137.3929 276.4958 137.6961 274.9418 138.5673 272.6674 139.6445 Z M 189.3345 197.8832 189.3161 198.6373 190.6286 198.9239 192.3368 199.7816 194.1329 201.07 196.1751 201.4268 199.2708 200.0286 200.9151 199.9073 202.4944 200.0509 203.9663 201.0501 205.2367 202.6533 205.6659 203.505 205.8355 204.8229 205.7741 206.342 205.9827 207.5029 208.6408 209.6186 210.4271 210.6643 210.7084 211.4857 210.8679 212.5563 212.2749 213.7282 214.0129 213.9232 214.879 214.4377 217.7109 215.2474 220.9903 217.2583 219.7171 219.9136 218.2518 220.8371 215.0889 219.56 211.7444 219.0688 210.0271 220.1355 208.4324 221.6413 207.8185 223.3716 206.9504 224.0007 206.176 224.1677 205.8802 223.0306 205.9312 219.8337 205.633 218.8624 205.2045 218.1808 203.8787 216.7849 202.4418 215.7257 201.5284 215.3827 201.1376 214.1529 201.1737 212.549 200.7489 211.5903 199.7932 210.1238 198.749 208.8809 195.2833 205.816 194.0457 205.1727 192.6629 204.9694 191.0009 205.3826 189.2622 206.2164 187.5817 206.7177 186.0644 206.4662 184.8357 205.4778 183.8934 203.8348 183.4994 202.7562 183.5976 201.1462 184.0632 199.6533 184.671 198.2641 186.4123 194.9898 187.8313 194.6937 189.3345 197.8832 Z M 503.7037 316.5497 501.8687 316.939 500.995 316.6261 500.8449 316.225 501.0949 314.6918 501.0227 314.0586 501.9385 313.7482 503.0571 314.3806 503.4194 315.0957 503.7037 316.5497 Z M 146.4671 282.6531 148.8084 285.4932 150.7134 285.9409 151.7427 287.9835 151.9952 289.4414 150.0392 287.7874 146.8307 286.7495 143.6424 281.4944 142.3651 280.0996 143.3426 278.1228 145.2994 277.6212 145.3002 280.7512 146.4671 282.6531 Z M 443.853 333.1422 443.1343 333.2599 444.0805 331.7765 444.7149 328.8904 445.6152 329.2784 445.8015 329.804 444.3536 332.7709 443.853 333.1422 Z M 508.5112 327.4152 508.5628 328.1991 508.1543 328.9883 508.7005 330.3311 508.1024 332.7656 507.913 334.2965 507.5677 335.2764 507.1786 335.6757 506.7464 335.4949 506.6225 334.9801 506.8071 334.1312 505.8269 334.2367 505.3833 332.1899 505.8791 331.4918 506.012 330.5894 506.0302 329.9882 506.4789 327.3016 506.693 327.0986 506.8114 327.72 507.0308 327.8874 507.3512 327.603 507.7722 326.3892 507.9744 326.2349 508.5112 327.4152 Z M 527.1436 325.6839 527.5462 326.4656 530.3539 325.9675 531.1806 326.023 531.5406 326.3645 531.2106 326.9596 530.1889 327.806 527.1112 329.4201 524.6596 331.3667 524.3057 331.2455 523.6686 329.4554 523.1225 328.7597 522.7387 327.7535 522.7096 327.3682 523.123 326.6055 523.9769 325.4653 524.6141 325.0197 527.1436 325.6839 Z M 546.2221 326.8528 545.8328 327.6348 544.5238 327.5384 543.7892 327.1648 545.8719 324.9766 546.2908 325.3096 546.2221 326.8528 Z M 236.8369 310.777 237.8591 312.5105 238.5354 312.7469 240.8084 312.7962 241.5529 313.2828 242.2144 314.0759 242.5179 315.1305 242.296 316.8179 241.6578 318.2276 241.3698 320.3492 241.1221 321.2377 242.0731 322.6834 242.1404 324.3747 242.0094 326.1469 239.3429 326.1634 236.7707 325.6858 234.3436 326.3576 233.7254 327.1185 233.8319 328.4795 233.1627 328.6685 232.657 328.2606 231.8214 326.8292 230.7619 325.995 226.8503 324.1664 222.445 319.5051 220.4044 318.2605 218.7154 315.202 217.3983 311.508 218.8058 311.3188 220.1678 311.3808 225.9407 313.286 227.1459 311.1659 228.0185 310.7718 230.0165 310.5619 232.0161 309.6941 232.792 309.9072 233.4937 310.5832 235.3005 310.1974 236.2107 310.2341 236.8369 310.777 Z M 508.7295 346.4304 507.0985 346.9941 506.644 346.1498 507.3642 343.8976 507.9697 342.6028 508.4644 342.2673 510.1841 339.6446 512.1521 337.6728 513.8747 334.8806 515.5266 330.9654 515.775 329.538 516.6631 329.3114 518.2187 330.089 519.2428 331.2893 518.9009 332.3545 514.3984 338.1225 514.0365 338.8525 513.7252 340.6948 513.3656 341.3598 512.7327 341.7044 512.3158 342.5335 512.1148 343.8491 511.5515 344.5744 510.6274 344.7106 510.0098 345.1204 509.6995 345.8042 508.7295 346.4304 Z M 503.9226 339.2987 503.2006 340.2685 500.2071 339.9407 500.7069 338.1043 502.8863 336.8013 505.4739 338.3695 503.9226 339.2987 Z M 556.1321 341.0828 555.4391 341.3502 556.2829 339.274 557.4617 336.9422 558.6457 335.4157 560.3234 334.6099 560.2473 335.6116 558.1829 337.7285 556.1321 341.0828 Z M 305.8433 377.3896 304.6616 377.7 303.4929 377.2963 302.8915 374.2766 303.6207 374.2887 305.3472 372.6003 308.8522 371.5166 309.6894 371.4519 305.8433 377.3896 Z M 437.1089 388.8532 436.6475 389.0435 435.4981 388.145 434.7437 387.1909 435.2398 386.4623 437.4541 384.9206 438.5121 384.8894 438.9451 385.1306 439.1209 385.6044 439.0397 386.316 438.5654 387.2014 437.1089 388.8532 Z M 438.2103 392.5191 438.7811 392.7546 439.3663 391.0004 439.7866 390.9429 441.6586 392.4098 442.8007 392.0707 443.5522 393.8826 444.2145 394.0421 444.8251 393.8133 445.1951 393.9368 445.0871 395.8625 443.7402 397.829 443.1084 398.3278 442.2125 397.8347 441.8775 397.6498 441.2857 396.7933 440.8341 395.7075 440.5704 395.6928 439.5352 396.981 439.5657 397.6133 440.0053 398.5627 439.945 399.1559 438.8076 399.4453 437.6903 399.3042 436.3293 400.1387 436.002 399.6229 435.7908 398.1677 435.3658 398.3342 434.7263 400.1184 434.0249 401.248 432.7418 402.1843 432.4612 402.6368 431.5206 402.6986 430.1251 403.2831 429.2649 403.1823 424.1475 401.2116 422.9501 400.4915 427.1846 396.088 429.3972 394.3816 430.6711 394.4786 431.9456 395.0171 432.6193 394.9314 432.6701 392.9617 431.4875 391.4894 431.5327 390.8784 434.1496 389.8732 435.1299 390.0163 436.2108 390.5285 437.2374 391.363 438.2103 392.5191 Z M 710.3969 355.9432 714.2184 355.4029 716.8553 354.3886 720.3688 357.7324 722.7429 360.5763 724.2363 362.6199 725.3261 364.7074 726.5655 366.6565 726.5847 366.9833 724.7833 365.9919 722.9932 363.3571 722.1702 362.3656 721.5206 362.01 720.6957 361.089 718.9118 358.5859 718.6654 357.7955 718.0086 357.2041 717.3913 357.069 716.8128 357.3918 716.6765 357.7475 717.2738 359.6866 718.3143 361.7182 722.1906 365.6132 724.6645 367.73 725.2468 368.5127 726.1194 370.9052 725.6382 372.2817 727.1696 374.2408 727.2503 374.6973 727.1556 375.2012 724.8614 377.0639 723.5802 382.0632 721.6168 385.383 720.5227 386.1689 719.8479 385.9426 719.0713 385.171 718.4403 384.0063 717.954 382.4493 718.3503 381.2419 718.3302 375.6264 717.9384 373.9051 715.7666 372.0425 714.3313 370.4011 713.1418 367.8494 710.4922 360.924 709.5203 358.7432 708.482 356.9958 707.3784 355.6837 706.4133 354.1601 705.5864 352.4266 705.5462 351.6646 707.0312 352.2373 709.1905 354.4196 710.3969 355.9432 Z M 715.2058 352.3678 715.2808 353.0913 713.3054 353.6589 711.0665 353.2766 709.758 352.2542 709.8022 351.592 711.4961 350.4426 713.5542 351.1466 715.2058 352.3678 Z M 694.626 358.3262 697.3547 360.4344 697.5213 361.0555 697.5431 363.0566 696.534 363.9282 697.0311 364.5765 698.0103 364.8829 698.5016 364.2345 700.0726 360.9437 700.615 360.1849 701.0103 360.005 703.8709 359.9732 706.5098 360.4961 707.4434 361.2774 708.261 362.8984 708.5681 366.8656 706.8025 368.1249 705.8769 368.3395 704.7726 368.0923 703.5186 369.8894 705.0638 370.4935 709.0813 369.4862 710.8035 371.2281 711.5481 372.7509 711.4245 376.0186 708.9687 375.8992 706.5582 374.7801 701.8851 373.5695 700.8805 373.7508 700.3304 374.3855 700.5047 375.9385 701.3086 379.1714 700.6036 381.1855 697.1839 381.4155 695.3431 379.3312 693.2645 375.7797 687.7505 372.444 686.3342 371.8615 684.1045 369.5355 684.2517 367.1503 684.1528 365.8193 684.9278 365.2395 685.9502 363.8984 686.1605 361.5657 687.6729 362.9701 689.5476 364.1946 689.2086 362.6318 689.623 361.1851 691.094 360.8037 691.7188 360.3419 692.4041 358.8991 693.6407 357.8917 694.626 358.3262 Z M 430.5966 408.2555 430.7085 409.8621 431.3591 409.6674 433.8184 408.0143 435.0984 407.5274 436.765 407.4472 438.0889 408.1958 438.3604 408.7718 438.2478 409.4631 437.1936 410.8682 437.2413 411.7771 438.3877 413.4424 441.1999 414.3333 441.5443 414.8328 441.5331 415.4369 439.6133 418.2153 438.9045 418.8643 438.4007 419.0225 434.8752 418.5386 431.652 417.6331 430.3482 417.4756 429.8867 417.7678 428.9715 418.6136 429.6246 418.8664 432.4519 419.0764 433.4488 420.3158 433.8844 421.2261 434.1028 422.2293 433.5372 422.6417 432.3243 422.9421 430.8702 422.9341 429.0675 424.0577 428.0697 425.3421 424.459 425.6439 421.6987 427.333 420.719 428.1688 420.3691 429.1782 419.3227 429.9002 416.967 430.599 418.3585 431.2815 418.5713 431.8425 418.588 432.6159 418.3861 433.2778 416.4878 436.2136 412.9262 438.5794 412.0333 438.4507 411.655 438.1387 411.3488 437.6671 411.3436 437.2002 415.9548 432.404 415.779 432.1603 414.5514 431.9714 412.6259 430.5843 411.2376 431.4196 410.9253 431.3795 411.313 430.2333 412.232 428.877 412.0827 428.4858 411.5972 428.1312 410.4721 427.8992 408.7066 427.7893 407.3907 428.081 406.5243 428.776 406.4479 429.0794 408.2619 429.0428 408.7471 429.4216 409.2222 430.116 409.5041 430.9121 409.5924 431.8092 409.1878 433.0023 408.2893 434.4872 407.0224 434.1884 404.4953 430.7623 403.4703 425.8128 401.3584 421.9786 401.2816 421.0762 401.972 418.7733 404.2736 415.5417 406.6744 414.7063 408.3994 413.3631 410.0442 412.9853 411.0559 413.0458 412.4288 413.6759 412.965 414.9549 412.6203 415.5428 412.7426 415.8577 413.703 416.6394 414.714 419.3138 415.9112 421.6905 416.7189 422.6607 417.7919 423.2676 416.6982 421.4534 416.0703 419.2161 415.8052 414.7685 415.5053 413.5879 416.1306 413.2841 417.8806 413.4877 417.8413 412.8245 416.015 411.2939 414.899 410.0315 414.4885 409.0412 414.5291 408.1911 415.5521 406.9544 416.1268 406.6068 416.716 406.4614 417.882 406.749 418.4026 407.1505 419.8705 410.0017 420.5661 410.8896 421.1507 410.8995 421.6978 410.4366 422.2076 409.5033 422.7289 408.9471 423.2621 408.7685 424.9322 409.2004 425.4914 409.051 425.7701 408.3429 425.7668 407.0774 426.1817 406.6254 426.2886 405.6952 425.3884 404.3135 426.4326 403.9008 429.8843 404.9723 431.3609 406.1254 430.5966 408.2555 Z M 425.1323 407.4586 424.6807 408.2654 424.2607 408.0539 423.3771 407.0946 421.5697 405.6854 420.7511 404.7234 420.7078 404.3171 421.3332 403.8773 423.4565 405.0218 424.3549 406.052 425.1323 407.4586 Z M 711.7355 379.7898 713.7257 382.4292 715.2101 384.4906 716.7075 387.056 719.4905 392.4523 720.6633 394.4484 721.156 395.5868 722.0746 398.688 722.0333 399.4319 721.7744 400.1866 721.9114 401.1107 722.8724 403.3846 723.7766 407.0174 723.9084 409.1821 723.5621 409.6276 722.3695 409.2905 721.2577 408.4571 720.3563 407.5042 717.9487 404.3461 717.0867 402.7882 716.7671 401.5703 716.7911 400.6029 717.1605 399.888 717.6743 398.1247 717.4928 397.9273 716.9116 398.4705 715.6051 399.0874 714.1368 398.2893 713.0625 397.9613 712.7473 395.7836 712.3575 395.2603 710.6905 396.4848 709.8651 396.1051 709.5273 395.354 709.2811 394.1502 709.3827 392.9981 710.4824 389.8238 710.1932 389.3911 709.3317 389.5426 708.0156 388.9799 706.8124 386.1774 705.2306 384.8509 704.5682 385.2196 704.09 390.4846 703.5408 391.77 701.4418 393.1201 701.5961 391.652 701.5314 390.4005 699.9023 387.0309 699.5583 385.648 699.8519 384.4648 701.3332 383.5642 702.0293 382.7048 702.4491 381.517 702.385 380.504 703.0017 377.5802 703.4536 376.9087 704.9719 376.4798 708.8259 378.3123 709.8902 378.4244 711.7355 379.7898 Z M 158.5925 385.945 156.7458 386.7728 155.4657 385.854 155.2803 384.7745 155.3654 384.3708 159.6313 384.5468 158.5925 385.945 Z M 428.7786 428.6234 426.7085 429.5475 426.3413 429.506 425.0507 431.3909 424.0681 432.1995 422.791 430.6928 423.1402 428.3746 424.2742 426.8427 429.9454 427.3946 430.3833 427.8281 430.3934 428.1967 429.9755 428.5006 428.7786 428.6234 Z M 737.6915 381.5454 738.888 382.0617 739.1799 380.981 740.1757 380.676 742.212 380.8276 743.6173 381.6365 744.5956 382.7836 744.8647 383.5766 745.172 385.4898 745.8121 387.3302 745.997 388.3359 745.9678 389.2332 745.7228 390.0198 745.2924 390.2626 743.4131 389.0718 740.969 386.585 739.479 386.0895 739.5113 386.4229 740.0839 387.182 741.5341 388.474 741.9774 389.401 743.0117 390.357 743.5737 391.1588 744.0721 392.2961 744.3403 393.3482 744.378 394.3163 744.1949 395.0093 743.7912 395.4294 741.2134 396.0616 739.8679 397.1875 738.0245 397.4614 737.4624 397.0648 736.9686 396.2647 736.2807 394.1457 735.045 391.1955 734.5375 388.7701 732.8547 386.9916 731.5564 386.0146 729.8717 385.3146 728.6604 384.4567 728.6755 383.4435 729.9132 382.2728 732.274 381.6456 737.6915 381.5454 Z M 729.656 389.0192 731.0932 390.5913 732.4412 389.9683 733.5851 391.135 734.7194 393.0755 734.6416 394.5946 733.9459 394.5 733.4623 395.5286 733.7084 398.3077 734.5687 400.879 735.0182 403.577 734.8827 406.5269 735.162 408.3753 734.9797 409.0201 734.6769 409.3226 734.1058 408.9899 733.3596 408.8297 732.9072 410.6183 731.8999 410.9696 730.2221 407.8138 729.5514 401.8367 730.9185 400.1129 729.5448 398.8835 727.0115 397.7595 726.9368 396.6861 724.6354 394.2795 724.3709 393.612 724.0169 391.0836 724.9432 388.416 726.7832 387.3841 728.3683 387.8668 729.3256 388.4101 729.656 389.0192 Z M 750.2037 391.3196 750.1526 391.7743 748.2773 392.4089 747.514 392.3276 746.9528 391.258 746.8401 390.1221 747.0546 389.1354 747.1524 387.3459 746.8467 384.5255 750.3746 386.5272 751.5687 387.5505 752.4561 389.0079 751.6513 389.9679 750.556 390.6909 750.2037 391.3196 Z M 161.1316 402.9773 162.9916 404.1264 164.1835 404.102 165.1002 404.6821 165.1256 405.3872 163.0986 406.3008 162.4258 406.0022 160.7952 403.6745 161.1316 402.9773 Z M 408.9157 445.9758 408.105 446.0189 406.8969 445.2264 407.0795 444.3203 408.8357 443.2658 410.5809 443.4763 410.703 444.0932 410.6096 444.7799 410.4576 445.1773 409.8927 445.5767 408.9157 445.9758 Z M 401.0488 448.0254 399.9021 448.6676 399.5337 448.4203 399.4958 447.8532 399.7877 446.9638 400.3317 446.0886 402.1142 444.4409 403.8877 443.3646 404.7765 443.4583 405.0636 444.1888 403.938 445.6485 401.0488 448.0254 Z M 762.5518 399.0973 763.4655 403.6659 762.8123 403.6352 762.2546 403.8353 761.2892 404.8935 760.0141 405.0648 759.3193 404.779 758.9583 404.2829 758.8165 402.8778 757.9522 402.3863 755.6382 402.9439 754.712 402.9357 753.8748 401.7085 753.273 399.9141 753.4412 399.0992 754.438 398.2011 754.7175 395.652 755.1219 395.1743 755.7701 390.0785 756.7783 390.0402 759.1328 392.1209 762.2236 395.225 762.5518 399.0973 Z M 751.7273 399.0238 750.996 399.3807 749.994 399.292 747.2925 397.8499 747.0833 397.216 747.193 396.3714 748.0391 394.5928 748.4452 394.0909 751.3621 393.1915 752.3794 393.2164 752.7572 393.7684 752.8824 394.4235 752.7539 395.1804 752.8656 395.8827 753.2162 396.528 753.0676 397.3497 751.7273 399.0238 Z M 739.4376 400.6672 742.4 400.2679 744.9583 399.3043 746.1275 400.11 747.0157 401.0796 747.6416 402.0652 748.0058 403.0679 748.1277 403.8257 748.0179 404.7191 748.1547 404.9575 753.8596 405.7026 756.9444 407.5207 758.2667 408.5813 759.1299 409.5694 760.9156 412.1755 763.9369 414.8325 765.3203 415.4646 766.2198 416.2467 765.8783 416.4185 764.1938 416.2223 760.3695 415.113 760.1316 415.3028 760.1713 416.6606 759.9613 417.9417 759.4273 419.0028 760.0831 419.0187 762.5491 417.5587 765.3237 418.9883 766.2778 419.0705 767.5302 420.3702 767.7226 420.9748 767.5619 422.3471 767.3252 422.9694 767.5348 423.2513 768.1897 423.1903 770.5045 421.9389 771.0897 422.3592 771.974 427.1235 772.7714 428.6944 772.973 429.4689 772.9671 430.6013 773.1882 431.4703 773.6428 432.2755 773.8823 433.0584 773.8172 435.3634 773.2598 435.9604 772.2133 436.3776 771.2284 436.1066 769.5956 434.768 767.7349 432.423 767.195 432.1906 765.6004 432.3322 765.2447 432.103 764.2793 432.3994 763.3095 431.5052 763 429.9724 762.0208 428.6547 761.9135 427.939 761.1884 427.8924 760.7513 428.5267 761.4265 429.9262 761.4065 431.2105 760.0983 431.157 757.1694 428.1502 754.1652 425.9599 753.1075 425.5602 753.1194 424.6045 754.1012 423.7452 755.003 423.4598 755.0487 422.8758 752.4422 420.6416 752.2912 419.7944 752.5889 418.0824 751.5869 417.7717 749.3889 419.0603 748.4906 419.0436 747.52 418.1001 746.8652 417.2137 744.8064 417.7348 744.0773 418.1277 742.3729 417.0322 741.5291 416.2581 741.6401 415.6724 742.626 414.3695 743.3622 414.2479 744.9549 414.7161 745.4747 414.4937 746.4995 412.773 746.4153 411.5731 747.1781 410.292 746.7674 409.3705 745.7863 407.903 744.4434 407.8694 742.1948 409.7358 740.3991 412.0207 739.3738 411.726 738.9487 410.8544 740.6406 407.4976 741.3025 405.7337 740.8922 404.9665 739.8667 404.1469 739.1136 401.4578 739.4376 400.6672 Z M 783.7864 409.1253 784.1001 412.2339 783.925 415.6099 782.8208 417.8286 781.6273 417.9099 780.4637 416.9437 779.7363 417.3114 778.8655 417.3605 778.1217 416.4693 778.1616 414.9229 777.4922 414.0012 777.3538 415.0932 776.8909 416.2264 775.4275 418.0349 774.7873 420.6461 774.5869 422.2602 773.4528 421.024 772.0142 417.608 771.5375 416.1034 772.1906 413.3009 773.2407 410.4672 771.7558 403.7853 776.0302 398.4483 776.5601 398.4282 778.9427 400.2158 781.7125 402.9217 782.6178 404.2754 783.3989 406.9566 783.7864 409.1253 Z M 385.8313 465.0445 385.1477 465.9154 383.8845 465.787 383.1845 465.4555 382.979 464.6548 385.0184 462.3747 385.475 462.0748 385.8169 462.1847 385.9353 463.1761 385.8313 465.0445 Z M 748.8191 420.7757 749.3407 421.4131 749.4845 421.882 747.7489 424.4378 747.8022 424.8204 747.564 426.1022 747.2042 426.666 746.6844 428.1445 745.4414 429.9763 744.7127 426.032 742.6056 424.3227 743.8803 422.6435 744.9827 422.611 746.7071 422.1498 748.1044 420.5798 748.8191 420.7757 Z M 299.4188 471.4157 299.6696 471.4668 300.2055 471.3212 301.4447 469.8845 301.8036 469.8627 301.7592 470.3528 301.0897 471.8509 301.7433 474.0611 302.4508 475.1762 302.3344 475.5179 300.2338 475.9664 298.7413 475.2302 297.9088 475.2962 297.0919 475.9211 296.6697 475.0424 296.7234 471.1365 296.9085 470.4774 297.8865 469.2539 299.0321 468.7992 299.4826 469.0419 299.8174 469.629 299.8565 470.2044 299.4188 471.4157 Z M 305.3978 471.5735 304.9456 473.7626 302.7973 472.0447 302.2566 471.2629 302.717 470.7976 304.902 470.9581 305.3978 471.5735 Z M 759.9362 435.6936 760.4006 435.9146 760.7131 435.5241 761.0864 434.3529 762.2205 434.139 763.0867 434.1657 763.6666 434.3763 763.7677 435.8465 764.1468 438.1519 763.8991 439.1105 763.7406 440.3873 762.0266 440.2974 760.4117 439.34 757.9733 437.5579 756.5137 436.1577 756.2464 435.439 755.4682 435.1283 753.4511 432.5214 752.1341 430.3555 750.9458 430.4768 749.3624 430.3046 748.4857 429.169 748.57 427.8726 750.4291 426.5745 754.2028 428.4888 754.9852 429.592 756.4433 430.6833 757.1757 432.6739 757.9311 433.2842 759.9362 435.6936 Z M 312.4552 478.4287 311.377 478.9163 310.984 479.6589 310.1764 479.8906 309.4631 480.4447 306.9892 483.0428 305.9733 483.4486 307.2741 481.1296 307.516 480.3689 307.5856 479.851 307.4341 477.952 308.0677 478.1165 308.6319 477.7986 309.8489 476.2863 310.8171 476.2607 312.0222 474.4267 312.5891 474.3415 312.8367 474.6416 312.2726 475.7747 313.1555 476.9912 312.8123 478.0198 312.4552 478.4287 Z M 781.4988 422.0594 783.968 424.8831 784.3817 426.0526 783.0463 427.0535 781.8561 427.3362 781.1583 427.1742 780.8499 426.6778 780.7426 424.7956 779.7114 424.0711 778.7477 424.0645 778.1342 424.9711 777.6219 423.2712 777.8667 421.8107 777.0823 420.2626 776.7243 418.9982 776.806 418.5165 777.599 418.246 779.5612 418.92 781.4988 422.0594 Z M 318.5095 478.5065 318.2252 480.7374 317.9492 481.0599 317.5566 480.4088 316.5542 480.9591 316.0807 480.4121 316.3694 479.6592 316.3525 479.042 317.056 479.0772 317.3208 477.9833 317.2412 477.499 317.6736 476.5352 318.1905 476.3617 318.5095 478.5065 Z M 320.6468 483.8501 320.0878 483.9288 319.6614 483.573 319.1743 481.9053 319.1746 481.2279 320.3327 481.8719 320.6915 483.087 320.6468 483.8501 Z M 252.0776 473.1724 253.0526 478.056 253.6275 479.0813 254.5952 479.7623 255.9791 480.5249 256.7527 481.362 257.377 482.5315 257.4144 483.0215 253.0979 480.3313 249.8648 482.4799 248.9505 482.6634 240.8098 481.1952 239.118 481.3634 237.943 482.0221 235.7295 484.0869 234.6484 484.8417 233.5713 485.1979 231.3691 485.3863 228.851 484.7623 227.5832 484.162 227.0551 482.8505 226.7858 480.4282 226.8882 479.7922 227.3216 478.7552 229.7948 477.7223 230.6621 477.0813 234.3505 472.4862 235.298 471.9431 236.2156 471.9523 238.6335 472.8235 240.9701 471.7285 245.8574 470.3075 246.8958 470.2265 250.1843 470.813 251.0298 471.3462 251.6323 472.1317 252.0776 473.1724 Z M 271.1062 480.377 270.6946 480.4396 269.6543 479.3951 269.3174 478.6876 269.1395 477.644 271.6446 476.6093 272.129 476.6715 272.467 477.5464 272.4663 478.191 271.6005 479.8879 271.1062 480.377 Z M 265.2999 491.9935 263.7702 492.3422 262.3073 491.442 261.1387 490.0474 261.168 488.6357 263.9847 490.0514 264.5584 490.5865 265.2999 491.9935 Z M 214.1804 489.1591 213.4258 489.1984 213.2974 488.8755 213.4063 487.6587 213.161 485.631 214.3244 485.1826 215.0051 485.1724 215.2358 485.5263 215.7676 487.1176 216.4655 487.6684 216.9764 488.0996 215.92 488.3089 214.1804 489.1591 Z M 209.2566 489.8773 208.5532 490.2085 208.033 490.195 207.6975 489.8337 205.9355 489.7519 205.6342 489.4788 205.1448 487.679 205.2363 486.8295 205.645 486.2401 206.5098 485.8226 207.8312 485.5777 209.0228 485.9741 210.8924 487.9629 211.7428 489.0697 211.842 489.6562 211.0146 489.9947 209.2566 489.8773 Z M 195.7231 491.3754 196.2123 492.8345 197.5834 492.329 198.6767 491.4378 199.6271 490.1705 200.1802 489.7177 200.6549 490.6248 202.2064 492.0823 200.4828 493.318 197.2734 495.0091 196.061 496.3653 195.8835 497.0377 198.6944 497.1851 199.4418 497.4492 199.8357 498.1114 198.98 498.5738 197.3955 498.7917 195.9129 499.6054 192.591 500.8158 191.1791 502.1556 189.7358 502.435 187.8927 502.1151 184.5137 502.3426 182.3988 502.8281 181.8122 503.2348 181.1578 503.3271 180.435 503.1059 179.5715 503.3319 178.5656 504.0036 177.7844 504.2335 176.6156 504.0163 175.9493 504.2066 175.2781 504.0099 173.6375 502.4362 173.2936 501.6848 175.1509 500.875 176.4038 500.7777 178.2272 501.0707 180.1975 500.3797 184.0959 499.7955 185.3684 499.247 186.6128 496.5011 187.5249 496.2142 188.173 495.1528 190.1707 495.7015 190.8599 497.2553 191.1524 497.5169 191.3356 497.4301 191.6079 496.3973 192.767 495.918 192.2681 495.2242 190.5367 494.0688 189.2221 493.3946 188.3215 493.2028 187.6627 492.6312 187.2466 491.6799 187.135 490.813 187.3268 490.0317 187.9407 489.2604 188.9761 488.4984 190.059 488.1921 192.253 488.3311 194.2492 488.1519 195.2647 488.3008 195.9699 488.7677 195.7231 491.3754 Z M 201.6047 497.8194 201.3584 497.84 201.0463 497.07 201.1272 496.4544 201.4729 496.0775 202.4182 495.2314 203.029 494.995 203.7358 494.9706 203.8724 495.2925 203.0724 496.3744 202.1874 497.0173 201.6047 497.8194 Z M 170.8394 500.4103 165.2682 501.8397 163.2379 503.4472 161.6087 505.0811 160.4185 505.8872 159.6687 505.8673 158.7714 506.164 156.8396 507.0659 156.1077 507.0337 150.1352 508.6768 149.7481 508.6135 150.1746 507.8487 152.04 507.1415 153.317 506.3673 154.8708 504.9186 155.6609 504.4498 156.0495 503.6045 156.4949 501.7976 156.929 501.1917 158.3417 500.1468 159.3205 499.6347 160.4654 499.6912 162.641 500.5626 163.6982 500.1235 164.0867 499.6716 163.6186 499.0244 163.6499 498.1409 164.0774 496.7227 164.969 495.6095 166.3233 494.7997 168.0398 494.3533 170.1188 494.2718 171.5578 494.639 173.8893 496.6918 174.1591 497.4105 173.2776 498.5802 172.6805 499.7391 170.8394 500.4103 Z M 139.9617 505.1811 139.4819 506.151 139.1628 506.4618 136.7586 505.1074 135.036 504.7745 134.9825 504.0944 135.2493 503.5894 138.06 503.5805 139.1317 503.9107 139.7561 504.5773 139.9617 505.1811 Z M 121.5663 506.6099 120.3517 507.0827 120.1146 506.676 120.1583 505.6029 120.9112 505.0076 123.0503 503.8805 124.1785 504.6033 124.4602 505.1834 124.2867 505.825 123.6591 506.528 122.9953 506.7648 122.2973 506.5361 121.5663 506.6099 Z M 55.5246 496.8615 46.9267 494.3297 45.8524 493.0779 47.2171 493.2232 48.7689 493.6465 52.2056 493.8099 56.3279 494.421 59.6606 494.4488 62.4905 494.7276 63.5723 493.6989 61.446 492.071 61.1331 491.3487 62.3853 491.1775 63.5322 490.645 65.9565 490.4589 67.5365 492.5807 67.7341 493.6498 67.2797 494.6362 66.6101 495.583 64.77 495.4627 64.3685 495.9395 64.8696 497.9548 61.0117 497.9642 55.5246 496.8615 Z M 91.9134 504.7044 90.6379 504.6391 89.4435 503.7659 90.3632 502.6454 91.1474 502.1566 92.5218 501.719 93.8224 502.6206 94.6719 504.1379 91.9134 504.7044 Z M 73.798 501.5166 76.6441 503.7655 80.542 505.1514 81.8958 505.947 81.8489 506.2436 79.268 505.7061 78.4551 505.2386 76.1572 504.9593 74.6659 504.4851 71.4543 502.6263 68.7903 501.9595 68.1456 501.548 67.4562 500.7571 66.723 499.5878 66.803 499.0722 67.695 499.2127 69.8008 500.8099 70.1276 500.5509 72.2117 500.6802 73.798 501.5166 Z M 34.5631 488.621 34.0016 489.1876 32.723 487.7349 32.37 486.8619 32.4445 486.1643 33.1835 485.2893 34.3804 485.8162 34.9636 486.5736 35.3973 487.6854 35.4522 488.2829 34.5631 488.621 Z M 24.9132 487.9784 24.7624 488.8413 26.534 489.5472 26.9618 490.2259 26.5112 491.8463 26.1544 492.1979 25.8576 492.1867 25.3283 491.5395 24.3879 492.0355 20.5731 492.5285 19.8859 490.93 17.4952 491.8016 20.1181 487.8523 21.8428 487.878 22.5547 487.6219 22.8047 486.2138 24.1528 484.2939 25.6615 485.1164 26.1104 486.378 25.914 486.9702 24.9132 487.9784 Z M 15.4611 487.6895 14.9351 487.7995 14.0649 487.6647 11.8476 486.2788 10.4345 485.6913 8.8386 485.1093 7.5541 484.9702 7.4989 484.2607 7.6817 483.7901 13.0704 484.8821 14.4389 484.7408 15.4119 484.1952 16.5478 482.8365 17.2173 482.5876 17.5333 482.7673 18.0511 483.765 17.5527 484.5144 16.7043 484.9679 16.2933 485.5762 15.4611 487.6895 Z M 4.0073 483.9663 3.4362 484.6109 3.083 484.4078 1.4889 482.0716 1.3322 481.4725 2.6898 481.4205 3.1761 481.0961 3.2321 480.3834 2.6248 479.0514 1.3595 477.0965 1 475.964 1.5419 475.6528 2.4009 475.7245 4.8362 476.8685 5.7231 478.9342 6.5632 479.9198 8.781 481.3959 7.4012 481.4056 6.5476 481.6488 5.0449 483.4731 4.0073 483.9663 Z M 33.4601 493.4111 32.0177 493.3651 30.6198 491.4968 31.1369 490.301 32.7099 492.2122 33.4601 493.4111 Z M 29.0693 491.9778 27.7059 492.9814 27.1784 492.0009 27.4649 489.8881 28.1419 489.6288 29.2427 491.7556 29.0693 491.9778 Z"/>
</g>
</svg>