<?xml version="1.0"?>
<svg xmlns="http://www.w3.org/2000/svg" version="1.2" baseProfile="tiny" width="800" height="431" viewBox="0 0 800 431" stroke-linecap="round" stroke-linejoin="round">
<g id="ne_50m_admin_1_states_provinces">
<path d="M 1.5802 1.8037 1 1.927 1.1592 1.4472 1.7905 1 2.2253 1.194 1.9232 1.5657 1.5802 1.8037 Z M 610.5124 296.2537 606.8496 298.67 604.79 297.5561 600.8419 297.0705 599.3676 295.1721 595.2748 293.4018 593.6702 291.0687 596.3553 286.7757 602.4711 283.2352 611.7224 283.5728 613.5668 286.5047 613.6742 288.6645 612.4003 291.0542 611.7507 294.4506 610.5124 296.2537 Z M 577.4649 299.5797 576.5749 301.5126 575.1821 301.179 574.8865 299.4302 575.8857 297.0574 578.2772 295.0463 580.9557 291.9611 583.0512 292.4771 581.8436 294.5078 581.6329 296.7423 578.6047 297.9397 577.4649 299.5797 Z M 674.6752 318.345 676.0895 318.6152 677.9149 318.336 678.4939 321.8774 680.5866 323.862 681.3446 325.0369 679.0327 326.2499 674.565 326.6911 672.4923 325.679 670.3631 323.4455 668.012 324.0214 667.635 322.2409 667.2258 321.7222 665.6147 322.1781 667.0736 324.4888 663.0168 324.6073 661.7346 324.3075 660.6477 321.6941 656.567 316.659 656.6215 314.7205 655.2485 312.3859 661.4382 311.8059 665.7441 307.8022 668.1336 307.4086 672.5946 314.0283 672.4467 315.8658 673.4384 317.6734 674.6752 318.345 Z M 698.7427 329.3095 707.4826 330.6021 709.5574 330.0968 711.004 331.1021 718.2535 331.766 719.4963 332.1485 717.9951 334.4283 713.332 336.4959 706.6712 334.6028 695.5104 333.8476 695.9804 332.0849 697.0593 330.8414 697.2461 328.6575 698.7427 329.3095 Z M 728.7768 342.0943 729.8518 342.8927 734.2816 341.726 737.4782 341.3031 742.8345 344.2489 744.6905 346.2638 748.2139 348.4211 749.4066 349.9784 748.4131 351.8584 744.5058 354.9621 739.1873 355.6623 736.0477 356.9758 731.9326 356.6726 730.7103 356.1019 730.2911 352.1687 729.0202 347.936 726.3649 348.4214 723.3966 346.9887 720.3384 343.4307 720.0192 341.3101 721.744 337.9668 724.7132 337.5478 726.9058 339.4117 728.7768 342.0943 Z M 713.6442 349.1119 711.1686 350.3457 708.4907 349.7434 707.8953 346.7077 705.3543 342.8295 709.8786 342.0842 712.4109 343.2248 713.7406 344.4362 715.3381 346.5224 713.6442 349.1119 Z M 766.3784 427.6941 764.5128 429.8347 762.191 429.6649 753.7557 425.0727 752.7391 422.6087 753.3885 411.1796 750.2593 401.8991 746.8063 394.8016 749.3425 391.1735 752.6802 388.3726 756.3987 383.0605 753.3837 376.2333 754.1653 372.1213 755.9484 371.4117 764.6967 376.4262 782.4033 383.942 787.1325 389.2194 787.9915 394.8913 791.2159 395.6048 792.7565 399.4886 797.4335 402.8775 799 404.8176 797.0779 407.9571 788.5639 413.9928 777.8046 416.6417 768.3196 423.3739 766.3784 427.6941 Z"/>
</g>
</svg>