<?xml version="1.0"?>
<svg xmlns="http://www.w3.org/2000/svg" version="1.2" baseProfile="tiny" width="800" height="1244" viewBox="0 0 800 1244" stroke-linecap="round" stroke-linejoin="round">
<g id="ne_50m_admin_1_states_provinces">
<path d="M 47.2758 1 84.6215 1.9103 134.1011 2.9134 162.2158 3.3804 161.3574 46.5541 160.4653 89.9497 159.5799 133.4101 158.7002 176.9219 171.1379 194.8365 180.3792 205.8418 186.2489 217.6379 195.3001 230.0302 197.0706 234.4379 200.167 247.6794 197.6361 257.1907 202.4319 266.9131 201.5001 271.7217 197.7304 274.1083 196.947 274.9022 197.0693 275.8759 198.3478 277.5077 211.3277 286.9609 224.0773 300.0385 240.4236 309.1003 245.5318 314.4439 267.0699 340.5053 278.2443 357.1315 290.049 369.2322 295.9201 383.0493 308.1541 395.1374 311.2294 401.2458 312.0829 402.6149 313.7127 402.7821 321.296 399.8584 323.2932 400.6781 327.0654 405.4553 327.877 412.7107 330.6164 415.7712 335.3193 417.5213 340.7273 417.9912 357.5148 414.4268 361.1747 414.4147 362.8914 415.8996 363.7303 419.7195 363.5211 426.1446 361.88 435.1536 356.8727 444.1456 357.7371 452.4612 353.8159 471.872 349.9871 484.8149 349.7324 497.4802 344.9802 504.7847 347.6828 513.3765 345.8978 526.5455 347.5736 529.9447 353.6271 536.0103 356.0419 552.1959 355.0189 555.164 344.2104 561.4968 340.5055 565.6936 339.1314 571.578 343.8649 588.6499 339.3062 598.0405 338.7301 606.1469 339.7428 608.2203 349.8096 612.5476 362.032 622.1247 365.9503 624.1382 368.635 623.8012 373.7909 620.565 379.4747 613.9994 391.0865 607.4185 404.6848 593.2261 405.3582 589.2827 406.4304 587.0732 408.1828 587.1784 412.5668 589.0685 421.3118 597.5118 428.8321 602.1568 430.1542 603.1897 430.8805 605.5693 430.6028 614.0062 434.8445 620.6558 436.2218 631.6006 440.6109 642.4938 443.8705 655.6601 455.4137 672.5636 461.7387 684.6922 468.5659 690.1352 472.7387 696.5533 475.862 704.29 477.0863 710.5148 473.3385 721.9471 474.4773 726.617 478.1642 731.8005 490.099 743.3701 492.4443 744.3172 503.2828 742.832 509.2561 744.7361 515.2236 750.5127 521.3792 759.3163 525.4129 768.1771 526.6872 778.8019 532.9827 790.4233 534.0415 800.8544 537.8892 805.3753 545.5889 811.4683 552.8422 815.0471 555.7045 815.2866 557.6766 813.58 558.2266 807.8433 561.0444 803.3486 569.9214 796.9262 578.4975 796.8864 610.9718 801.2253 613.1728 800.7971 614.5845 799.062 619.8599 789.3838 624.1735 785.5623 630.9342 784.1657 650.8589 785.8839 673.8252 783.8381 685.9132 786.0969 703.1848 781.9771 723.4052 783.8433 725.9328 782.1695 726.4671 780.2111 724.5239 776.7428 723.9694 769.7087 727.6667 761.2466 728.771 754.0743 732.704 749.932 738.0249 747.4656 742.4425 747.5427 746.7961 751.1891 751.96 757.3355 761.1878 774.1906 766.0676 780.1623 771.8115 785.3364 780.3123 789.6716 781.5401 817.3732 782.7601 845.0745 783.9695 872.7726 785.1743 900.476 786.3712 928.1742 787.5566 955.8644 788.7376 983.5491 789.9115 1011.2313 791.0768 1038.9064 792.2339 1066.5692 793.3794 1094.223 794.5205 1121.8703 795.6534 1149.5064 796.7752 1177.1265 797.8916 1204.7333 799 1232.3298 774.4507 1233.4374 749.8864 1234.4899 725.3089 1235.4796 700.7178 1236.4083 676.1155 1237.2837 651.5017 1238.0962 626.8767 1238.8495 602.2428 1239.5475 577.5992 1240.1863 552.948 1240.7599 528.2896 1241.2762 503.6239 1241.7371 478.9532 1242.1386 454.2767 1242.4768 429.5967 1242.7537 404.9098 1242.9771 355.8357 1243.2543 306.7576 1243.3005 257.6816 1243.1118 208.6141 1242.6845 159.5612 1242.0263 110.53 1241.1335 61.5252 1240.0024 12.5538 1238.641 13.5307 1199.1306 14.5154 1159.5978 15.5152 1120.038 16.5263 1080.4578 17.5487 1040.8581 18.5824 1001.2419 19.6244 961.6099 20.7922 918.0039 20.783 917.1579 29.5692 890.5765 31.6742 877.5602 29.7469 870.1372 31.333 863.0891 36.4191 856.404 36.4823 848.9256 31.5235 840.6365 22.0502 834.9886 8.0591 831.9537 1.0458 822.2179 1 805.7851 12.2462 780.8599 34.6883 747.4052 47.0757 723.6284 49.5101 709.5731 63.1937 677.2728 87.9733 626.6986 97.7172 594.1631 92.6163 579.6953 81.0785 565.7138 63.1386 552.1883 50.6712 536.6785 47.5325 528.8543 43.6619 519.1932 41.853 507.0126 45.223 500.1265 43.0263 487.9216 35.2911 470.4158 32.1629 458.4614 33.0912 454.3734 34.0497 452.7326 34.845 424.3424 35.6423 395.9687 36.4459 367.6089 37.2544 339.2659 38.0689 310.9408 38.8881 282.6347 39.7134 254.3486 40.5434 226.0835 41.3794 197.8405 42.2199 169.6207 43.0663 141.4271 43.9206 113.2568 44.78 85.1129 45.642 56.9962 46.5084 28.9078 47.2758 1 Z"/>
</g>
</svg>