<?xml version="1.0"?>
<svg xmlns="http://www.w3.org/2000/svg" version="1.2" baseProfile="tiny" width="800" height="1316" viewBox="0 0 800 1316" stroke-linecap="round" stroke-linejoin="round">
<g id="ne_50m_admin_1_states_provinces">
<path d="M 13.5822 505.0692 22.9496 501.0979 25.1068 489.1463 23.1834 467.8869 33.5409 452.1152 56.1526 441.7979 77.0644 418.4043 96.225 381.9378 105.0672 355.7235 103.6439 339.7636 97.2515 324.5417 85.9086 310.0473 83.5231 292.2959 90.0694 271.3154 109.8619 258.2765 142.8949 253.1208 172.9033 242.9374 199.8773 227.7283 215.9889 210.9034 221.2784 192.5198 229.1506 178.2709 239.6156 168.1516 247.1212 151.4762 251.6856 128.2734 252.4273 111.1351 249.3713 100.0378 237.9471 87.1571 218.1751 72.4796 207.1302 58.7503 204.7718 46.0038 194.5052 32.1956 176.3494 17.3305 165.9627 1 246.4713 2.7121 325.3967 3.9828 404.3528 4.8737 483.3221 5.3951 562.2875 5.5415 641.2334 5.3079 720.1388 4.7049 799 3.7299 792.1441 47.291 785.2343 90.8765 778.2675 134.4895 771.2438 178.12 744.629 178.6443 718.0912 179.132 719.2315 250.3772 720.3476 321.6594 721.4433 392.9742 722.5227 464.3174 723.5836 535.6744 724.6217 607.0306 725.639 678.3817 726.5625 745.8026 726.5481 746.8227 718.1806 754.3266 712.5152 766.9528 714.2412 780.5364 712.1779 790.2962 706.3187 796.2394 709.4339 810.9473 721.5345 834.4086 728.9612 857.6498 731.6917 880.6858 729.7923 897.2564 719.966 912.3993 710.7944 945.0744 702.6796 958.1989 692.5866 962.6676 683.666 974.8853 675.9075 994.8565 667.4931 1004.616 658.439 1004.1603 651.7949 1007.8881 647.5679 1015.7914 648.213 1024.0356 653.7264 1032.6095 652.0476 1040.6396 643.1628 1048.1266 643.3685 1051.6555 646.1798 1053.7767 645.1378 1057.3251 639.547 1060.9216 636.227 1071.955 636.8097 1090.1358 633.7946 1099.2602 627.7921 1099.7439 627.0578 1104.7552 637.2957 1125.1927 631.4689 1129.5213 621.1714 1146.5849 619.2101 1165.3043 625.6111 1185.6777 610.1236 1202.4015 572.7001 1215.4147 552.8798 1226.7103 550.6862 1236.3634 553.3934 1251.0294 561.0018 1270.7069 562.4266 1284.3515 557.6585 1291.9698 530.6824 1287.0371 481.5755 1269.4288 448.694 1270.1115 431.9538 1289.1719 426.1759 1303.5782 428.2165 1315.2713 414.8233 1300.943 405.8226 1294.4754 404.1009 1294.9899 402.163 1296.6758 401.3712 1301.1722 401.8546 1304.3558 403.2466 1308.0187 402.4596 1310.3633 400.4075 1310.5312 390.728 1304.9616 378.9917 1289.1067 365.2414 1262.9532 362.2793 1242.165 370.0723 1226.7645 370.1215 1210.5536 362.4462 1193.5423 358.6416 1176.9023 358.7013 1160.647 340.0081 1136.1934 302.6729 1103.4806 275.2679 1083.2006 257.7044 1075.4273 237.3122 1058.9284 214.1217 1033.7119 201.8748 1014.4813 200.5055 1001.2778 211.6384 966.2572 243.3321 889.9357 246.8677 880.9124 247.908 877.6005 246.564 874.2431 243.6856 871.0638 230.7878 861.9222 206.0227 853.8578 183.206 849.2633 164.734 858.1283 149.0325 839.3346 136.1935 792.8745 103.5519 743.4331 51.3341 690.8988 21.2806 655.2662 13.1359 636.6294 6.3768 608.8256 1 571.8613 2.1473 541.2991 13.5822 505.0692 Z"/>
</g>
</svg>