<?xml version="1.0"?>
<svg xmlns="http://www.w3.org/2000/svg" version="1.2" baseProfile="tiny" width="800" height="489" viewBox="0 0 800 489" stroke-linecap="round" stroke-linejoin="round">
<g id="ne_50m_admin_1_states_provinces">
<path d="M 380.9507 262.9933 380.7711 259.7688 354.1294 259.3311 327.4892 258.8525 300.8508 258.3396 274.2121 257.7891 247.5785 257.1977 220.9478 256.572 194.3252 255.9089 167.699 255.2049 166.3536 262.0443 156.7287 262.8975 156.5415 255.0783 137.8139 254.0465 119.0847 252.9928 100.3612 251.9239 81.6435 250.8331 62.9295 249.7239 44.2166 248.5994 25.5051 247.4531 6.8023 246.2916 1 238.8418 8.5491 213.773 16.0768 188.7035 23.5952 163.6306 31.0944 138.5542 38.5718 113.4748 46.0397 88.3894 53.4879 63.3048 60.9141 38.218 82.5473 39.3859 104.1852 40.5324 125.8202 41.651 147.4667 42.745 169.1172 43.8144 190.7642 44.8624 212.4221 45.8825 234.0835 46.8779 265.4117 48.125 296.7431 49.3304 328.082 50.4807 359.4205 51.5761 390.7605 52.6231 422.111 53.6216 453.4642 54.5584 484.8195 55.45 504.0113 47.214 526.5292 23.4654 540.3764 18.2644 562.6989 4.0787 573.7899 1 599.608 2.1546 594.7499 17.6377 601.2689 32.9592 605.6366 48.7469 615.9006 64.2099 624.4797 65.5106 633.7109 62.5754 640.5228 63.1411 644.9941 69.6914 643.1649 77.6558 632.4906 79.7877 612.7126 93.9408 595.2526 99.485 586.6656 116.3671 573.6967 135.9098 548.3466 166.428 559.4052 175.6683 599.1989 185.7489 617.0254 196.3644 644.5961 252.543 638.5386 258.289 636.248 268.6795 660.3648 282.8605 668.6157 323.3386 688.5065 336.8244 717.9996 344.8162 753.655 331.8627 783.1623 314.3477 781.8229 300.5318 762.4512 268.7187 757.6496 253.6814 743.5816 244.1595 738.4774 252.5694 729.3046 241.9661 728.181 235.9242 736.4885 232.83 746.2159 233.8121 757.6505 239.2285 787.5495 273.7226 796.6373 319.5496 799 348.73 795.9041 358.7828 787.3325 356.9255 771.0898 359.2579 694.065 375.8566 677.08 389.4681 637.8459 404.5206 635.2972 397.3382 637.9513 382.3578 635.0567 351.7933 627.2754 350.478 566.603 401.0897 542.9325 404.4457 523.1108 419.2147 518.586 411.1519 514.7589 373.761 526.9722 342.2858 520.3476 342.8322 508.015 354.1799 500.2866 340.9444 491.9953 333.8503 483.9024 326.9193 484.1181 315.739 484.4389 298.8511 475.1649 295.6117 473.9749 274.8144 473.1909 261.2743 456.3814 261.6235 442.6476 261.8945 420.5504 262.322 397.6777 262.7113 380.9507 262.9933 Z M 671.5974 451.3812 609.7939 466.9155 599.8078 457.5739 615.2203 453.0047 634.4564 430.2762 647.3955 427.4904 667.9508 439.9053 671.5974 451.3812 Z M 791.924 482.3088 774.6445 487.5205 734.3496 477.2783 767.1463 467.2595 772.4639 463.873 776.4842 450.0089 776.8863 443.0876 789.9956 472.4486 791.924 482.3088 Z"/>
</g>
</svg>