<?xml version="1.0"?>
<svg xmlns="http://www.w3.org/2000/svg" version="1.2" baseProfile="tiny" width="800" height="398" viewBox="0 0 800 398" stroke-linecap="round" stroke-linejoin="round">
<g id="ne_50m_admin_1_states_provinces">
<path d="M 776.7678 68.3588 779.3374 84.3614 781.9109 100.364 784.488 116.3662 787.0694 132.3726 789.6538 148.3789 792.2416 164.3809 794.8352 180.3831 797.4296 196.3851 797.5504 208.9366 797.6707 221.4874 797.7853 234.0376 797.8974 246.5867 798.0058 259.1347 798.1112 271.6812 798.2135 284.2261 798.3133 296.7691 798.4094 309.3088 798.5024 321.8474 798.593 334.3835 798.6799 346.9169 798.7637 359.4474 798.845 371.9747 798.9254 384.4985 799 397.0189 777.307 391.8408 771.8025 388.2803 761.7818 384.3538 752.6784 375.9367 734.8741 365.6568 728.1487 363.2381 726.0359 363.5849 722.514 368.9589 713.2348 373.3687 708.1438 373.6549 698.8891 372.2678 697.1092 370.9674 695.7232 367.7752 691.9754 365.6528 689.2961 367.427 675.933 372.1604 673.9955 375.3073 666.4133 375.5825 658.8596 373.4596 639.9988 380.7782 633.5503 386.3951 626.7306 388.3834 623.287 393.791 621.1945 393.0576 613.984 386.5159 606.6646 384.6278 596.5906 378.161 596.1799 372.3819 595.1212 371.6735 593.3148 371.0203 591.0757 371.6256 586.7527 376.5771 584.2492 377.8685 581.7472 377.7284 572.0098 374.4582 567.9071 368.5517 565.8834 366.7395 563.6725 366.4022 559.4986 368.2094 557.1838 374.7337 555.328 376.4839 551.2795 377.6246 551.5434 380.888 547.9569 389.908 546.0373 391.7243 543.5314 391.3975 540.9005 389.194 538.9599 386 538.1335 383.2885 539.5361 376.1409 538.706 373.7748 536.7687 373.032 532.0057 376.4301 527.8334 376.2728 522.5181 379.6339 519.1715 380.66 516.1302 379.8344 511.196 374.3924 502.5951 370.9027 499.2752 364.4714 497.7568 362.6099 495.923 362.1575 494.0611 362.3424 491.0324 364.4036 481.1057 372.8102 476.5772 375.4812 472.6964 376.0053 468.9838 375.1532 466.6281 372.984 466.1992 364.4279 464.0168 361.8185 454.9034 356.3943 452.9961 351.3285 452.1688 344.2902 441.1218 345.3331 427.5577 344.509 421.3441 350.6218 418.1526 351.7354 414.32 350.4675 403.4491 341.9791 391.7976 343.5328 385.2307 342.5032 369.0843 336.0503 356.3534 335.2828 351.101 334.0603 348.3492 332.6041 347.2293 323.021 342.3138 314.8771 340.6898 312.636 332.2145 306.832 330.8338 306.5995 329.8871 307.861 327.8389 314.1392 325.233 314.4153 315.3807 312.418 306.2223 314.0939 301.1889 310.8241 284.2687 295.6943 277.3651 291.7137 271.8297 290.3721 272.1403 276.5633 272.4559 262.7536 272.7739 248.9422 273.0924 235.1265 273.4127 221.3083 273.7379 207.4931 274.0655 193.6771 274.393 179.8606 274.7233 166.0441 275.058 152.2278 275.3951 138.4119 275.732 124.5968 276.0717 110.7827 276.4159 96.97 276.7623 83.159 277.1087 69.346 259.7587 68.9002 242.4199 68.425 225.0917 67.9154 207.7716 67.3725 190.462 66.8014 173.1676 66.1936 155.8851 65.5552 138.6136 64.8862 121.356 64.1843 104.1148 63.4519 86.8891 62.6906 69.6761 61.8949 52.48 61.0665 35.3031 60.2105 18.1435 59.3205 1 58.399 1.8283 44.0449 2.6625 29.6935 3.4991 15.345 4.3441 1 26.7974 2.1778 49.2821 3.3022 71.7959 4.3732 94.3381 5.3906 115.4493 6.2937 136.5851 7.1499 157.7418 7.9589 178.9184 8.7206 200.113 9.435 221.3236 10.102 242.5498 10.7215 263.7936 11.2936 285.0512 11.8181 306.3189 12.295 327.5981 12.7242 348.89 13.1057 370.191 13.4395 391.4972 13.7255 412.81 13.9637 434.1308 14.1541 455.4558 14.2967 476.7818 14.3914 498.1091 14.4382 519.4394 14.4372 540.7692 14.3883 562.0945 14.2916 583.4168 14.147 604.7374 13.9545 626.0525 13.7143 647.3585 13.4262 668.6565 13.0904 689.948 12.7068 711.2292 12.2756 732.4965 11.7967 753.7515 11.2702 774.9947 10.6961 775.4419 25.1092 775.8867 39.5207 776.3286 53.9365 776.7678 68.3588 Z"/>
</g>
</svg>