<?xml version="1.0"?>
<svg xmlns="http://www.w3.org/2000/svg" version="1.2" baseProfile="tiny" width="800" height="1200" viewBox="0 0 800 1200" stroke-linecap="round" stroke-linejoin="round">
<g id="ne_50m_admin_1_states_provinces">
<path d="M 1 1190.8685 17.6328 1090.9704 50.9409 1049.132 58.13 940.1251 62.7926 868.9102 62.1217 748.56 61.3931 611.0537 60.5959 461.6691 59.9042 329.9964 59.3579 234.764 58.6856 103.4023 58.2401 9.5747 155.5876 8.1882 288.7031 6.2736 417.3089 4.1287 497.2411 2.7671 595.0751 1 599.435 79.811 606.0497 200.8693 659.9767 219.8704 657.8585 318.1585 656.4375 383.2304 703.4374 423.703 751.5912 465.1303 796.3793 542.2993 747.8999 586.7226 695.9141 519.4021 669.8195 445.4756 632.5051 403.6961 592.0915 387.9121 627.006 549.563 545.2717 671.026 523.2943 984.7557 419.9163 1115.3865 96.8062 1199.1424 1 1190.8685 Z M 787.9918 917.1199 723.3264 965.1663 650.9349 957.0164 687.4774 892.4515 701.1289 797.7705 736.3976 693.6261 756.7874 661.7923 799 633.5486 787.9918 917.1199 Z M 625.8297 929.3799 589.6393 961.8225 575.9648 877.504 601.1004 780.525 626.7905 778.2325 639.7966 829.7361 625.8297 929.3799 Z"/>
</g>
</svg>