<?xml version="1.0" encoding="utf-8"?>
<!-- Generator: Adobe Illustrator 24.0.2, SVG Export Plug-In . SVG Version: 6.00 Build 0)  -->
<svg version="1.1" id="Layer_1" xmlns="http://www.w3.org/2000/svg" xmlns:xlink="http://www.w3.org/1999/xlink" x="0px" y="0px"
	 width="170.3" height="201.75" viewBox="0 0 170.3 201.75" style="enable-background:new 0 0 170.3 201.75;" xml:space="preserve">
<style type="text/css">
	.st0{fill:#1A1A1A;}
</style>
<g>
	<path d="M136.03,197.04c-1.53,1.86-5.05,2.11-6.76,0.94c-0.44-0.31-0.82-0.34-1.33-0.18c-0.56,0.18-1.17,0.27-1.76,0.28
		c-2.75,0.04-4.64-1.62-4.82-4.4c-0.13-2.02,0.41-3.88,1.93-5.35c0.62-0.59,1.32-1.11,2.22-1.02c0.77,0.07,1.02-0.36,1.29-0.94
		c1.52-3.25,2.29-6.71,2.83-10.23c0.58-3.76,0.81-7.55,0.73-11.35c-0.07-3.14-0.68-6.17-2.08-9.01c-0.99-1.99-2.27-3.73-4.01-5.14
		c-3.09-2.51-5.76-5.43-8.17-8.59c-0.6-0.78-1.21-1.15-2.2-1.06c-1.02,0.09-2.06,0.02-3.14,0.02c-0.42,4.03-0.89,7.95-0.51,11.91
		c0.11,1.19,0.36,2.36,0.59,3.53c0.21,1.06,0.19,2.06-0.43,2.99c-0.44,0.65-0.55,1.37-0.63,2.14c-0.45,4.44-1.01,8.87-1.81,13.27
		c-0.75,4.12-1.33,8.27-1.35,12.48c-0.01,1.28-0.2,2.55-0.7,3.74c-0.54,1.27-1.28,2.28-2.87,2.33c-0.58,0.02-1.14,0.33-1.71,0.48
		c-1.59,0.41-3.17,0.48-4.63-0.37c-0.51-0.3-0.86-0.07-1.22,0.08c-1.87,0.78-3.73,0.75-5.55-0.11c-0.64-0.3-1.26-0.13-1.88-0.15
		c-2.01-0.04-3.51-1.71-3.21-3.72c0.24-1.61,0.89-3.06,2.08-4.22c0.47-0.46,0.96-0.87,1.68-0.74c0.37,0.07,0.62-0.1,0.82-0.37
		c0.31-0.41,0.64-0.82,0.92-1.26c2.95-4.6,4.68-9.66,5.75-14.98c0.64-3.16,0.91-6.31,0.5-9.52c-0.33-2.54-1.35-4.75-2.97-6.68
		c-1.08-1.29-2.27-2.48-3.39-3.73c-0.3-0.34-0.56-0.44-1.03-0.29c-3.76,1.17-7.99-0.38-10.3-3.56c-1.14-1.56-1.94-3.3-2.67-5.07
		c-0.11-0.26-0.17-0.53-0.41-0.76c-1.98,0.26-3.99,0.52-6,0.79c-1.15,0.16-2.32,0.08-3.47,0.13c-0.94,0.05-1.72,0.61-1.97,1.53
		c-1.22,4.54-2.69,9.01-3.69,13.6c-0.2,0.93-0.33,1.88-0.33,2.85c0.01,4.08,0.06,8.15,0.4,12.22c0.04,0.48,0.05,0.98-0.16,1.42
		c-0.41,0.9-0.41,1.85-0.45,2.81c-0.33,6.51-0.86,13.01-0.82,19.53c0.01,1.12,0.02,2.24,0.04,3.36c0.02,2-0.86,3.52-2.68,4.28
		c-1.86,0.78-3.78,1-5.52-0.62c-1.39,1.28-3.01,1.72-4.85,1.16c-0.08-0.02-0.18-0.01-0.23-0.05c-1.31-1.05-2.82-0.71-4.3-0.7
		c-2.39,0.02-3.92-1.85-3.49-4.22c0.25-1.35,0.83-2.58,1.61-3.7c0.23-0.33,0.5-0.69,0.88-0.78c0.87-0.21,1.15-0.87,1.43-1.59
		c2.26-5.74,3.89-11.66,4.56-17.79c0.37-3.41,0.19-6.87-0.18-10.3c-0.63-5.9-2.6-11.47-4.12-17.21c-1.74,0.16-3.32-0.08-4.62-1.5
		c-0.85,1.91-1.43,3.8-1.97,5.7c-0.93,3.31-1.55,6.65-1.29,10.15c0.21,2.78,0.05,5.6,0.04,8.4c0,0.32,0.01,0.64-0.11,0.94
		c-1.41,3.54-1.9,7.31-2.69,11c-0.74,3.47-1.19,7-1.49,10.53c-0.09,1.07,0.01,2.16,0.03,3.24c0.02,1.09-0.09,2.15-0.73,3.09
		c-0.7,1.01-1.62,1.62-2.88,1.68c-1.8,0.09-2.69-0.08-4.47-0.93c-1.33,1.01-2.9,1.3-4.58,1.16c-0.44-0.04-0.94-0.01-1.28-0.26
		c-1-0.75-2.04-0.74-3.21-0.51c-1.1,0.22-2.13-0.19-3.02-0.88c-0.98-0.77-1.51-1.75-1.27-3.03c0.43-2.27,1.09-4.38,3.63-5.16
		c0.47-0.14,0.66-0.57,0.91-0.92c1.97-2.7,3.34-5.71,4.57-8.79c1.44-3.64,2.55-7.4,3.26-11.22c0.5-2.65,0.43-5.4,0.3-8.13
		c-0.18-3.81-1.33-7.33-2.72-10.83c-2.13-5.4-3.62-10.98-4.36-16.74c-0.21-1.62-0.36-3.26-0.37-4.89c-0.01-1.17-1.18-1.4-1.53-2.24
		c-1.13,0.16-1.09-0.84-1.38-1.46c-0.26-0.56-0.27-1.2-0.96-1.54c-0.28-0.14-0.47-0.6-0.37-0.96c0.28-1.01-0.72-1.59-0.77-2.48
		c-1.32-0.73-0.94-2.05-1.18-3.18c-0.18-0.84-0.58-1.64-0.45-2.57c-0.53,0.08-0.62,0.53-0.82,0.84c-2.04,3.29-3.97,6.64-5.4,10.26
		c-0.21,0.52-0.48,0.99-1.14,1.26c-0.31-1.21-0.08-2.32,0.16-3.43c1.03-4.8,2.76-9.32,5.5-13.42c0.31-0.46,0.66-0.91,1.03-1.33
		c0.59-0.68,0.8-1.34,0.81-2.33c0.02-1.58,0.16-3.24,0.92-4.82c-0.65-0.23-0.69-0.79-0.51-1.37C8.21,98,8.32,97.42,8.72,97.1
		c0.63-0.5-0.03-1.08,0.22-1.59c0.27-0.53,0.97-0.93,0.89-1.5c-0.15-1.03,0.48-1.62,0.98-2.32c-0.14-0.74-0.54-1.34-0.91-1.98
		c-1.18-2.03-0.97-4.04,0.25-5.98c0.25-0.4,0.57-0.77,0.9-1.22c-2.48-2.66-2.48-5.48-0.28-8.43c-0.55-0.76-1.29-1.41-1.6-2.32
		C9.12,71.6,9,71.5,8.83,71.47c-0.75-0.1-0.78-0.7-0.83-1.25c-0.04-0.44,0.02-0.88-0.02-1.32c-0.09-0.91-0.42-1.66-1.37-2.05
		c-1.71-0.7-2.9-1.92-3.49-3.7c-0.3-0.9-0.7-1.76-1.18-2.59c-0.98-1.68-1.19-3.53-0.99-5.44c0.11-1.04,0.88-1.57,1.67-1.85
		c1.33-0.46,2.5-1.15,3.6-2.01c-0.12-1.01-1.14-1.29-1.76-1.91c1.31-0.74,1.11-2.47,2.54-3.1c-1.65-1.4-3.11-2.63-4.56-3.88
		c-0.57-0.5-1.1-1.05-1.66-1.57c-0.58-0.53-0.7-1.24-0.71-1.95c-0.01-0.61,0.3-0.85,0.94-0.61c0.69,0.26,1.26,0.69,1.82,1.13
		c0.68,0.54,1.4,1.02,2.25,1.51c-0.62-3.35,0.36-6.24,1.93-9c0.67-1.18,1.33-2.39,2.23-3.4c1.59-1.76,2.01-4.03,2.78-6.14
		c1.11-3.06,2.12-6.16,3.13-9.26c0.12-0.37,0.31-0.64,0.56-0.88c4.46-4.31,9.12-8.38,14.37-11.74C30.54,0.18,31,0,31.65,0
		c2.24,3.81,4.23,7.78,5.73,12.06c2.88,0.59,5.77,1.3,8.52,2.47c6.46,2.75,11.24,7.07,13.32,13.98c0.3,0.99,0.73,1.92,0.99,2.93
		c0.96,3.67,3.72,4.84,7.27,4.36c2.02-0.27,3.92-1.02,5.9-1.44c2.65-0.56,5.33-0.65,7.99-0.31c3.33,0.43,5.9,2.21,7.95,4.88
		c1.99,2.59,3.49,5.43,4.68,8.44c1.28,3.25,4.17,4.69,7.51,3.73c1.3-0.37,2.39-1.04,3.41-1.92c4.48-3.87,10.86-5.13,16.43-1.68
		c2.45,1.52,4.12,3.74,5.4,6.28c0.25,0.5,0.48,1,0.71,1.51c1.04,2.29,3.39,3.07,5.51,1.7c2.16-1.4,3.36-3.48,3.65-6.04
		c0.28-2.49-0.66-4.61-2.14-6.53c-0.12-0.15-0.3-0.29-0.05-0.58c0.62,0.22,1.04,0.78,1.51,1.19c3.43,2.99,6.12,6.52,7.41,10.95
		c2.37,8.13,0.46,15.44-4.42,22.14c-0.7,0.97-1.54,1.82-2.44,2.93c1.65-0.32,3.05-0.69,4.51-0.8c4.05-0.29,7.96,0.25,11.74,1.71
		c4.3,1.66,8.17,4,11.37,7.36c4.52,4.75,6.43,10.46,6.18,16.95c-0.05,1.2-0.14,2.39-0.48,3.55c-0.84,2.94-2.66,4.4-5.71,4.54
		c-5.7,0.27-10.78-1.39-15.22-4.97c-1.09-0.88-2.02-1.94-2.95-2.98c-2.11-2.36-4.33-4.6-7.06-6.26c-0.37-0.22-0.71-0.49-1.23-0.58
		c0.19,0.82,0.6,1.5,0.98,2.16c2.16,3.73,3.07,7.83,3.79,12.02c1.15,6.67,1.06,13.38,0.87,20.09c-0.09,3.26-0.4,6.53-1.09,9.74
		c-0.08,0.38-0.09,0.81,0.01,1.19c0.75,2.97,1.27,6,2.25,8.91c0.52,1.54,0.88,3.17,0.17,4.8c-0.08,0.18-0.09,0.39-0.08,0.59
		c0.37,5.39,0,10.79,0.26,16.18c0.15,3.19,0.36,6.39,0.36,9.59c0,2.88-0.12,5.76-0.16,8.64c-0.01,1.11-0.38,2.13-0.83,3.09
		c-0.65,1.39-1.99,1.95-3.38,2.21C138.96,199.13,137.2,198.96,136.03,197.04z M131.35,91.2c2.08,2.15,3.93,4.39,5.35,6.96
		c0.25,0.45,0.67,0.51,1.11,0.6c2.47,0.52,4.8,1.44,7,2.67c2.78,1.54,5.11,3.68,7.55,5.67c2.08,1.69,4.18,3.35,6.62,4.5
		c1.52,0.72,3.5,0.67,4.85-0.77c1.12-1.21,1.84-2.55,2.12-4.19c0.56-3.38,0.59-6.75-0.01-10.12c-0.81-4.55-2.89-8.31-6.93-10.8
		c-1.63-1-3.23-2.1-5.19-2.35c-5.05-0.65-9.74,0.13-13.88,3.36C137.39,88.72,134.63,90.38,131.35,91.2z M71.23,87.76
		c0.61,0.48,1.17,0.59,1.67,0.79c2.36,0.94,4.72,1.93,7.2,2.52c4.64,1.11,8.54-0.79,12.43-3.17c-1.24-0.88-2.42-1.68-3.57-2.53
		c-2.63-1.97-5.34-2.34-8.31-0.58C77.84,86.46,74.88,87.87,71.23,87.76z M88.96,146.75c-2.54-3.14-4.97-6.16-6.28-9.82
		c-0.7-0.06-1.18,0.23-1.82,0.4c0.54,1.25,1.05,2.45,1.59,3.63c0.72,1.57,1.69,2.97,2.94,4.17
		C86.34,146.04,87.44,146.61,88.96,146.75z M111,139.85c1.03-0.13,1.99-0.15,2.98-0.59c-1.1-1.55-2-3.14-2.98-4.67
		C111,136.3,111,138,111,139.85z M28.98,12.07c-0.43-0.72-0.38-1.52-0.99-2.12c-0.98,0.86-1.93,1.69-2.87,2.52
		c0.04,0.07,0.09,0.14,0.13,0.21C26.42,12.38,27.6,12.11,28.98,12.07z"/>
</g>
<g>
	<path class="st0" d="M40.37,54.85c-1.96-2.21-3.35-4.72-3.91-7.64c-0.09-0.46-0.54-0.35-0.75-0.54c-0.64-0.59-1.28-1.17-2.01-1.66
		c-0.55-0.37-0.23-0.71,0.2-0.94c1.41-0.78,2.76-1.63,4.05-2.61c0.38-0.29,0.69-0.65,1.07-0.94c0.49-0.38,0.54-0.9,0.33-1.39
		c-0.26-0.62-0.88-0.72-1.43-0.56c-0.82,0.24-1.6,0.61-2.39,0.95c-2.67,1.16-5.22,2.54-7.84,3.81c-0.6,0.29-1.06,0.81-1.82,0.97
		c0.29-1,1.05-1.65,1.66-2.31c1.24-1.34,2.5-2.67,3.72-4.03c1.03-1.15,2.07-2.29,3-3.51c0.65-0.85,0.72-1.98,1.01-2.98
		c0.93-3.14,1.79-6.31,2.59-9.49c0.38-1.52,0.64-3.07,0.83-4.62c0.15-1.22-0.49-2.37-0.62-3.57c-0.04-0.33-0.14-0.65-0.24-1.11
		c1.39,0.21,2.6,0.56,3.81,0.9c3.27,0.91,6.31,2.27,9.12,4.21c3.61,2.5,6.17,5.73,7.65,9.86c0.5,1.4,0.99,2.8,1.41,4.22
		c1.22,4.11,4.5,4.96,7.87,4.41c1.8-0.29,3.56-0.88,5.34-1.33c1.82-0.46,3.67-0.47,5.54-0.5c1.76-0.03,3.45,0.23,5.11,0.77
		c1.96,0.64,3.43,1.96,4.7,3.47c1.57,1.86,2.94,3.87,3.96,6.1c0.66,1.46,1.33,2.92,1.81,4.45c0.15,0.48,0.16,0.46,0.88,0.68
		c0.14,0.04,0.24,0.2,0.36,0.31c1.64,1.56,3.52,2.08,5.75,1.53c1.49-0.37,2.72-1.04,3.89-2.07c2.18-1.92,4.77-3.02,7.69-3.51
		c2.81-0.47,5.29,0.22,7.71,1.45c2.56,1.3,4.18,3.5,5.66,5.86c0.95,1.53,1.49,3.23,2.23,4.85c0.44-0.35-0.19-0.64-0.03-0.92
		c0.12-0.17,0.24-0.15,0.35-0.1c2.85,1.34,4.7,0.82,6.5-1.78c1.19-1.71,2.1-3.49,2-5.66c-0.07-1.48-0.42-2.86-1.27-4.09
		c-0.09-0.13-0.22-0.24-0.07-0.46c1.87,1.54,3.33,3.42,4.68,5.4c1.8,2.64,2.87,5.53,3.16,8.73c0.1,1.09,0.47,2.15,0.46,3.26
		c-0.04,2.7-0.68,5.27-1.59,7.8c-1,2.79-2.45,5.33-4.2,7.7c-1.66,2.25-3.75,4.02-6.11,5.51c-1.87,1.19-3.92,1.81-6.06,2.04
		c-1.68,0.17-3.36-0.19-4.98-0.74c-2.66-0.9-5.39-1.43-8.21-1.38c-1.36,0.02-2.72,0.03-4.08,0c-1.91-0.05-3.76,0.38-5.69,0.58
		c-0.16-0.34-0.3-0.86-0.94-0.39c-0.18,0.14-0.39,0.16-0.73-0.05c-0.76-0.47-1.16,0.28-1.46,0.79c-0.4,0.03-0.28-0.45-0.78-0.36
		c-0.1,0.03-0.16,0.32-0.2,0.5c-0.11,0.46-0.27,0.81-0.76,0.95c-1.62,0.46-3.11,1.27-4.67,1.88c-0.49,0.19-0.75,0.15-1.16-0.16
		c-1.4-1.07-2.8-2.16-4.3-3.08c-1.29-0.79-2.72-1.37-4.32-0.91c-0.34,0.1-0.65,0.03-0.66-0.47c-2.54,1.53-5.09,3-7.91,3.84
		c-3.31,0.99-6.49,0.7-9.53-1.11c-1.82-1.09-3.44-2.33-4.72-4.04c-0.57-0.76-1.33-1.38-2.02-2.05c-0.41-0.4-0.79-0.74-0.39-1.42
		c0.16-0.28,0.19-0.79-0.23-1.1c-0.44,0.07-0.89,0.15-1.26,0.53c-0.37-0.62-0.27-1.49-1.06-1.81c-0.33-0.05-0.24,0.55-0.76,0.33
		c0-0.61,0-1.27,0-1.94c0-0.59-0.16-0.96-0.87-0.67c-0.21-0.71-0.13-1.64-1.3-1.63c-0.31,0-0.32-0.41-0.45-0.64
		c-0.37-0.64-0.58-1.37-1.05-1.91c-0.39-0.13-0.38,0.23-0.54,0.35c-0.6-0.33-0.65-0.95-0.82-1.5c-0.23-0.69-0.45-1.32-1.04-1.88
		c-0.72-0.68-1.19-1.64-1.69-2.52c-1.08-1.92-2.29-3.74-3.58-5.52c-0.21-0.28-0.79-0.71-0.05-1.13c-1.03-0.52-1.92-1.24-2.81-1.95
		c-0.23-0.18-0.45-0.32-0.73-0.35L40.37,54.85z"/>
	<path class="st0" d="M20.9,52.12c-1.2-1.46-2.75-2.17-4.56-2.29c-0.94-0.06-1.9-0.09-2.84,0.08c-0.07,0.01-0.19-0.09-0.21-0.07
		c-1.07,0.96-1.59-0.04-2.18-0.64c-2.32-2.33-4.79-4.49-7.42-6.47c-0.92-0.69-1.57-1.67-2.52-2.36c-0.35-0.25-0.36-0.97-0.55-1.55
		c0.85,0.02,1.28,0.67,1.81,1.05c1.97,1.42,3.98,2.78,6.1,3.96c0.89,0.5,1.75,1.05,2.68,1.47c0.45,0.2,0.8,0.3,1.2-0.04
		c0.39-0.33,0.4-0.7,0.28-1.17c-0.99-3.78-1.96-7.56-2.93-11.34c-0.14-0.55-0.07-1.05,0.1-1.61c1.71-5.69,3.85-11.24,5.58-16.92
		c0.28-0.91,0.71-1.6,1.44-2.29c2.27-2.16,4.67-4.18,7.05-6.19c2.09-1.77,4.41-3.27,6.64-4.87c0.14-0.1,0.31-0.27,0.59-0.21
		c0.42,0.41,0.73,0.96,1.01,1.51c1.41,2.75,2.83,5.5,3.93,8.39c0.7,1.85,1.39,3.72,1.85,5.64c0.25,1.05-0.14,2.11-0.34,3.16
		c-0.71,3.65-1.86,7.18-2.85,10.75c-0.26,0.94-0.63,1.86-0.8,2.81c-0.17,0.94-0.65,1.7-1.26,2.34c-1.01,1.07-1.95,2.2-2.95,3.27
		c-1.99,2.13-4.08,4.2-5.68,6.71c0.17,0.3,0.27,0.61,0.78,0.35c0.38-0.19,0.8-0.3,1.19-0.49c2.98-1.49,5.97-2.97,8.95-4.45
		c0.91-0.45,1.85-0.86,2.76-1.3c0.27-0.13,0.53-0.13,0.81-0.04c-0.04,0.73-0.45,1.12-1.04,1.53c-1.55,1.07-3.19,1.99-4.79,2.98
		c-1.08,0.67-2.04,1.54-3.16,2.15c-1.92,1.05-3.81,2.13-5.56,3.48C22.93,50.3,21.85,51.16,20.9,52.12z M28.22,9.17
		c-0.61,0.48-1.13,0.9-1.66,1.3c-1.45,1.09-2.73,2.37-4.16,3.5c-1.19,0.94-2.31,2.02-2.66,3.65c-0.29,1.37-0.67,2.73-1.07,4.08
		c-0.69,2.32-1.46,4.61-2.13,6.94c-0.39,1.37-1,2.67-0.45,4.25c0.74,2.13,1.3,4.33,2.03,6.47c0.16,0.47,0.3,1.08,0.87,1.34
		c2.26-1.81,4.33-3.8,6.22-5.93c0.67-0.76,1.55-1.41,1.89-2.52c1.17-3.89,2.42-7.75,3.62-11.62c0.58-1.88,0.71-3.75-0.17-5.6
		c-0.33-0.7-0.51-1.48-0.74-2.22C29.45,11.58,29.09,10.34,28.22,9.17z"/>
	<path class="st0" d="M110.68,140.54c1.83-0.42,3.65-0.77,5.43-1.37c4.34-1.46,6.85-4.55,8.01-8.82c0.7-2.58,0.58-5.21,0.33-7.88
		c-0.28-2.91-1.16-5.67-1.68-8.51c-0.45-2.45-0.46-4.93,0.42-7.34c0.38-1.04,1.02-1.94,1.69-2.79c1.87-2.39,4.19-4.14,7.22-4.78
		c0.3-0.06,0.63-0.01,1.19-0.01c-1.13,0.72-2.18,1.18-2.96,2.06c-1.43,1.62-2.28,3.44-2.33,5.61c-0.03,1.44-0.06,2.88,0.01,4.31
		c0.07,1.61,0.5,3.17,0.81,4.74c0.31,1.62,0.7,3.23,0.62,4.9c-0.03,0.71,0.25,1.47,0.18,2.1c-0.25,2.07-0.06,4.16-0.6,6.22
		c-0.69,2.58-1.78,4.9-3.4,7.01c-0.77,1.01-1.76,1.71-2.8,2.32c-2.48,1.45-5.17,2.24-8.07,2.22
		C113.38,140.53,112.03,140.54,110.68,140.54z"/>
	<path class="st0" d="M103.32,138.82c-3.45-1.13-6.71-2.47-8.68-5.8c-0.8-1.35-1.15-2.83-1.42-4.3c-0.61-3.35-0.34-6.67,0.54-9.96
		c0.87-3.26,1.68-6.54,1.6-9.96c-0.04-1.91-0.45-3.72-1.12-5.49c-0.04-0.11-0.08-0.22,0.01-0.37c1.72,1.3,2.77,3.06,3.48,5.03
		c0.7,1.94,0.96,3.97,0.95,6.02c-0.01,1.33-0.23,2.66-0.47,3.97c-0.48,2.71-0.49,5.44-0.46,8.17c0.02,1.9,0.32,3.76,0.88,5.56
		C99.49,134.51,100.78,137.07,103.32,138.82z"/>
	<path class="st0" d="M48.9,107.48c1.92-0.97,11.4,0.31,16.43,3.44c-0.25,0.82-0.85,1.43-1.36,2.11c-1.88,2.5-3.89,4.87-6.37,6.81
		c-0.34,0.27-0.66,0.59-0.93,0.93c-0.57,0.7-0.8,0.05-1.1-0.26c-0.07-0.07-0.03-0.24-0.08-0.34
		C53.41,115.93,51.13,111.78,48.9,107.48z M56.1,119.95c0.93-3.08,2.28-6.01,2.7-9.22C57.92,113.81,56.69,116.8,56.1,119.95z"/>
	<path class="st0" d="M65.79,107.31c-5-2.76-10.33-3.96-16.05-3.72c0.26-1.18,1.02-1.91,1.64-2.68c1.99-2.51,4.03-4.99,6.4-7.16
		c1.41-1.29,2.2-1.15,3.39,0.32c0.19,0.23,0.38,0.5,0.53,0.77c1.66,2.96,2.71,6.14,3.38,9.45
		C65.29,105.27,65.56,106.24,65.79,107.31z"/>
	<path class="st0" d="M124.24,86.06c3.73,0.81,6.81-0.46,9.5-2.79c1.39-1.21,3.02-1.81,4.73-2.22c1.72-0.41,3.5-0.66,5.29-0.51
		c3.08,0.26,6.13,0.67,8.99,2.15c-0.36,0-0.72,0-1.08,0c-0.4,0-0.8,0-1.2,0c-4.22-0.06-7.87,1.42-11.2,3.93
		c-2.06,1.55-4.23,2.95-6.72,3.77c-1.1,0.36-1.97,0.32-2.89-0.58c-1.23-1.2-2.76-2.04-4.27-2.89
		C124.98,86.71,124.62,86.46,124.24,86.06z"/>
	<path class="st0" d="M66.63,119.02c-0.43-1.56,0.3-2.91,0.91-4.23c1.82-3.93,4.21-7.48,7.45-10.38c2.45-2.2,5.27-3.69,8.61-4.24
		c2.55-0.42,4.86,0.18,7.23,0.89c-2.96,0.07-5.7,0.87-8.25,2.3c-1.98,1.12-3.87,2.41-5.52,3.99c-1.57,1.5-3.11,3.04-4.62,4.61
		c-2.02,2.1-3.82,4.38-5.44,6.8C66.93,118.89,66.86,119.05,66.63,119.02z"/>
	<path class="st0" d="M160.62,112.51c3.16,0.2,5.38-3.04,5.73-5.42c0.31-2.15,0.61-4.32,0.49-6.5c-0.17-3.06-0.53-6.1-1.94-8.9
		c-0.28-0.55-0.79-0.97-0.93-1.89c1.12,1.16,1.9,2.29,2.64,3.43c1.73,2.67,2.74,5.66,3.08,8.78c0.3,2.76,0.43,5.6-0.46,8.29
		c-0.8,2.44-2.83,3.86-5.62,3.19C162.63,113.25,161.65,113.09,160.62,112.51z"/>
	<path class="st0" d="M162.84,113.84c-3.77,0.07-7.28-0.75-10.58-2.63c-3.14-1.79-5.32-4.55-7.81-7.03
		c-1.54-1.55-3.16-3.08-5.1-4.17c-0.17-0.1-0.36-0.14-0.48-0.44c0.7-0.16,1.28,0.25,1.82,0.46c3.37,1.27,6.34,3.19,9.08,5.53
		c3.07,2.61,6.2,5.18,9.84,7C160.66,113.06,161.73,113.48,162.84,113.84z"/>
	<path class="st0" d="M10.09,28.16c-0.05,0.5-0.19,0.97-0.39,1.43c-0.64,1.48-0.69,2.99-0.2,4.53c1.02,3.24,1.46,6.64,2.54,9.86
		c0.07,0.21,0.1,0.47-0.05,0.68c-0.47,0.3-0.89,0.05-1.22-0.19c-1.08-0.79-2.28-1.38-3.39-2.12c-1.86-1.24-2.37-2.86-1.92-5.06
		C6.17,33.83,7.97,30.94,10.09,28.16z"/>
	<path class="st0" d="M88.87,147.43c-3.97,0.74-7.26-0.35-9.73-3.74c-1.21-1.67-1.95-3.54-2.82-5.41c1.4-0.3,2.68-0.58,4.03-0.86
		c0.68,1.54,1.29,3.11,2.06,4.58c0.9,1.72,2.09,3.22,3.73,4.34C86.98,146.92,87.99,146.92,88.87,147.43z"/>
	<path class="st0" d="M7.15,107.24c0.12,0.86,0.44,1.41,0.13,2.03c-0.06,0.11,0,0.33,0.08,0.45c0.54,0.84,0.5,1.55-0.13,2.42
		c-2.33,3.21-4.24,6.65-5.8,10.3c-0.2,0.48-0.38,1.02-0.91,1.33C1.43,117.83,3.52,112.38,7.15,107.24z"/>
	<path class="st0" d="M14.97,75.6c2.65,2.43,1.82,5.44,1.58,8.46c-1-0.94-2.29-1.48-3-2.7c-0.66-1.13-0.65-2.31-0.14-3.48
		C13.78,77.02,14.27,76.21,14.97,75.6z"/>
	<path class="st0" d="M42.56,97.81c-0.61-1.82-2.42-2.9-2.73-4.98c-0.2-1.39,0.08-2.5,0.71-3.68c0.76,0.77,1.37,1.58,2.26,2.12
		c0.58,0.35,0.6,1.07,0.75,1.67c0.35,1.33,0.33,2.64-0.17,3.93C43.24,97.24,43.02,97.56,42.56,97.81z"/>
	<path class="st0" d="M43.7,90.78c-3.3-1.56-4.56-5.44-2.81-8.44c1.09,1.15,2.46,2.13,2.81,3.77C44.04,87.63,44.28,89.22,43.7,90.78
		z"/>
	<path class="st0" d="M38.5,106.32c-0.06-1.03-0.06-1.95,0.39-2.85c0.26-0.52,0.48-0.81,1.14-0.65c0.52,0.13,1.1,0.1,1.64-0.24
		c1.09,1.48,0.88,3.15,0.86,4.78c-1.31,0.45-1.23,1.8-1.8,2.76c-0.3-0.62,0.18-1.36-0.39-1.9c-0.69,0.1-0.24,0.99-0.84,1.12
		c-0.32-0.91-0.44-1.88-0.21-2.88C39.1,106.15,38.78,106.27,38.5,106.32z"/>
	<path class="st0" d="M43.44,77.14c-2.78-2.25-4.31-5.85-2.62-8.32c1.42,0.64,2.47,1.61,2.86,3.17
		C44.11,73.71,44.08,75.4,43.44,77.14z"/>
	<path class="st0" d="M12.67,73.16c0.44,0.84,1.26,1.27,1.74,1.99c-1.34,1.47-2.34,3.08-2.09,5.18c0.09,0.74-0.25,1.21-0.84,1.57
		C9.31,80.08,8.95,76.05,12.67,73.16z"/>
	<path class="st0" d="M42.97,69.16c-0.83-0.39-1.61-0.77-2.08-1.69c-0.76-1.46-0.56-2.89-0.19-4.35c0.19-0.76,0.48-1.5,0.4-2.32
		C43.69,62.29,44.65,66.81,42.97,69.16z"/>
	<path class="st0" d="M43.68,83.83c-3.53-2.73-4.41-6.7-2.87-8.07C43.62,77.77,44.62,80.4,43.68,83.83z"/>
	<path class="st0" d="M12.67,81.82c0.94,0.55,0.71,1.48,0.5,2.2c-0.41,1.42-0.95,2.75-0.8,4.3c0.06,0.66-0.74,1.25-1.33,1.72
		C9.19,88.26,9.27,84.38,12.67,81.82z"/>
	<path class="st0" d="M38.63,66.39c0.94,0.21,1.3,0.91,1.7,1.62c-0.78,1.04-0.83,2.33-1.13,3.54c-0.02,0.08-0.03,0.17,0,0.24
		c0.58,1.18-0.3,1.65-1.07,2.16C36.38,71.96,36.6,68.26,38.63,66.39z"/>
	<path class="st0" d="M39.53,87.61c-0.38,0.27-0.7,0.62-1.22,0.77c-1.25-1.15-1.37-2.67-1.3-4.29c0.08-1.81,1.27-2.74,2.69-3.58
		c0.64,0.58,0.84,1.06,0.25,1.89C39.17,83.51,39.13,85.43,39.53,87.61z"/>
	<path class="st0" d="M42.33,144.55c-1.54,0.2-2.79,0.09-3.88-0.97c-0.36-0.35-0.54-0.58-0.39-1.05c0.22-0.7,0.45-1.4,0.44-2.07
		c0.12-0.08,0.15-0.13,0.18-0.13c0.75,0,1.59-0.19,2.24,0.07c0.74,0.3,0.52,1.29,0.73,1.97C41.87,143.07,42.09,143.77,42.33,144.55z
		"/>
	<path class="st0" d="M13.14,68.18c1.82,1.85,3.25,5.17,3.19,7.52c-1.42-1.2-2.86-2.29-3.55-4.04
		C12.32,70.48,12.47,69.37,13.14,68.18z"/>
	<path class="st0" d="M39.8,73.87c0.2,0.38,0.39,0.76,0.6,1.17c-1.03,1.16-1.56,2.43-1.01,4c0.15,0.42,0.06,0.85-0.5,1.05
		c-0.52,0.19-0.96,0.53-1.32,1C36.21,78.57,37.32,75.09,39.8,73.87z"/>
	<path class="st0" d="M39.42,66.14c-2.27-2.52-1.97-6.11-0.2-7.77c1.96,1.55,1.06,3.46,0.58,5.29
		C39.59,64.43,39.38,65.17,39.42,66.14z"/>
	<path class="st0" d="M40.33,54.81c0.3,0.56,0.66,0.99,1.21,1.38c1.56,1.11,2.21,2.85,1.41,5.08c-2.03-1.67-3.65-3.48-3.22-6.38
		c0.24-0.02,0.44-0.03,0.64-0.05C40.37,54.85,40.33,54.81,40.33,54.81z"/>
	<path class="st0" d="M39.21,96.93c0.83-0.18,1.44,0.32,2.12,0.2c0.11-0.02,0.34,0.13,0.37,0.24c0.24,0.94,0.61,1.89,0.22,2.87
		c-0.33,0.83-0.82,1.08-1.68,0.93c-0.78-0.14-1.45-0.87-1.54-1.56C38.57,98.65,39.26,97.9,39.21,96.93z"/>
	<path class="st0" d="M40.41,96.15c-2.1-0.43-2.95-1.26-3.14-2.87c-0.26-2.23,0.67-4.04,2.72-4.77
		C38.47,91.16,38.56,93.66,40.41,96.15z"/>
	<path class="st0" d="M10.68,68.1c0.59,0,1.06,0,1.64,0c-0.69,1.48-0.67,2.92-0.13,4.36c-0.35,0.3-0.7,0.6-1.05,0.89
		c-1.48-1.15-1.74-1.9-1.19-3.47C10.16,69.29,10.42,68.72,10.68,68.1z"/>
	<path class="st0" d="M39.41,54.18c-0.59,0.71-0.57,1.52-0.82,2.31c-1.53-1.45-1.44-3.26-1.16-5.23
		C37.96,52.33,38.36,53.43,39.41,54.18z"/>
	<path class="st0" d="M14.29,83.26c0.56,0.68,1.55,0.82,1.78,1.73c-0.21,0.08-0.58,0.13-0.61,0.25c-0.26,1.12-1.36,1.13-2.16,1.74
		C13.2,85.58,13.97,84.5,14.29,83.26z"/>
	<path class="st0" d="M19.07,39.69c-0.58-1.08-0.84-2.26-1.22-3.39c-0.51-1.51-1.01-3.03-1.32-4.61c-0.08-0.43-0.03-0.74,0.09-1.11
		c1.17-3.88,2.46-7.73,3.42-11.67c0.19-0.78,0.42-1.59,0.75-2.33c0.51-1.16,1.62-1.84,2.61-2.48c1.63-1.06,3.51-1.53,5.56-1.48
		c0.56,0.97,0.68,2.13,1.16,3.12c0.77,1.61,0.55,3.11,0.01,4.72c-1.14,3.4-2.26,6.81-3.16,10.28c-0.42,1.64-1.28,2.8-2.45,3.89
		C22.71,36.31,21.13,38.22,19.07,39.69z"/>
</g>
</svg>
