<?xml version="1.0" encoding="utf-8"?>
<!-- Generator: Adobe Illustrator 23.1.0, SVG Export Plug-In . SVG Version: 6.00 Build 0)  -->
<svg version="1.1" id="Layer_1" xmlns="http://www.w3.org/2000/svg" xmlns:xlink="http://www.w3.org/1999/xlink" x="0px" y="0px"
	 width="281.24" height="530.55" viewBox="0 0 281.24 530.55" style="enable-background:new 0 0 281.24 530.55;" xml:space="preserve">
<path d="M201.88,487.91c-0.19,0.73-0.4,1.07-0.34,1.36c0.14,0.63,0.43,1.23,0.62,1.86c0.32,1.11,0.92,2.26,0.84,3.36
	c-0.13,1.79,1.02,2.96,1.61,4.38c0.16,0.38,0.76,0.64,1.2,0.83c1.12,0.5,1.85,1.32,2.42,2.39c2.31,4.37,4.37,8.86,6.04,13.52
	c0.79,2.22,0.29,4.44-1.66,5.54c-0.76,0.43-1.16,1.05-1.45,1.82c-0.17,0.46-0.44,0.87-0.75,1.46c-0.49-0.53-0.87-0.94-1.24-1.33
	c-0.16-0.02-0.32-0.1-0.44-0.05c-1.65,0.61-3.34,0.43-4.93-0.05c-1.15-0.35-2.27-0.4-3.43-0.4c-1.26-0.01-1.54,0.16-1.92,1.32
	c-0.32,0.99-0.61,1.94-1.79,2.49c-0.39-1.37-1.51-1.61-2.7-1.69c-1.37-0.09-2.74-0.15-4.11-0.23c-0.72-0.04-1.44-0.13-2.16-0.13
	c-0.57,0-1.19-0.03-1.7,0.17c-2.13,0.84-4.33,1.2-6.59,1.35c-0.28,0.02-0.56,0.13-0.91,0.22c-1.04,1.3-0.8,3.5-2.95,4.46
	c-0.2-1.63-0.38-3.02-0.55-4.4c-2.61-0.94-5.42,0.18-7.74-1.36c-1.8,1.46-3.99,1.33-6.21,1.56c-0.24,0.39-0.51,0.81-0.74,1.24
	c-0.24,0.45-0.42,0.93-0.65,1.38c-0.28,0.52-0.6,1.06-1.31,0.91c-0.69-0.14-0.86-0.69-0.89-1.32c-0.02-0.43-0.08-0.86-0.15-1.46
	c-1.21-0.36-2.44-0.72-3.68-1.08c-1.79-0.53-3.3-1.46-4.39-3.02c-0.44-0.64-0.62-1.33-0.45-2.07c0.7-2.96,1.3-5.96,2.2-8.87
	c0.71-2.28,1.73-4.46,3.52-6.19c0.88-0.85,1.04-2.06,1.02-3.24c-0.07-2.97,0.64-5.71,2.02-8.36c0.93-1.79,1.55-3.75,2.27-5.65
	c0.19-0.51,0.48-1.08-0.14-1.71c-0.85,1.5-2.41,1.6-3.82,1.88c-5.29,1.06-10.63,1.3-16.03,1.16c-11.2-0.29-21.79-3.2-32.2-7.01
	c-5.45-2-10.84-4.2-16.27-6.24c-2.1-0.79-4.28-1.4-6.41-2.11c-0.44-0.15-0.86-0.4-1.56-0.73c1.75-1.04,3.44-0.76,5.38-1.06
	c-0.62-0.41-0.92-0.75-1.26-0.8c-2.27-0.32-4.31-1.24-6.37-2.16c-1.87-0.84-3.51-0.33-4.56,1.52c-1.73,3.03-3.45,6.07-4.99,9.19
	c-2.16,4.36-4.15,8.8-6.24,13.2c-0.84,1.78-1.55,3.59-1.92,5.54c-0.22,1.14-0.56,2.25-0.85,3.38c-0.53,2.05-0.75,4.12-0.77,6.25
	c-0.02,2.17-0.27,4.34-0.39,6.52c-0.07,1.31-0.79,2.09-1.92,2.67c-3.8,1.94-7.8,3.12-12.08,3.38c-3.48,0.21-6.96,0.52-10.43,0.75
	c-0.93,0.06-1.87,0.01-2.91,0.01c-1.12,1.89-1.67,4.07-2.6,6.4c-0.44-0.54-0.89-0.86-0.98-1.26c-0.4-1.69-0.7-3.4-1.02-5.11
	c-0.08-0.42-0.08-0.85-0.12-1.4c-2.9-0.54-5.68,0.69-8.48,0.05c-0.94,1.53-1.8,2.92-2.62,4.26c-1.04-0.04-1.29-0.59-1.35-1.29
	c-0.08-1.08-0.14-2.16-0.22-3.34c-2.53-1.21-5.43-1.03-7.83-2.46c-0.9,0.86-1.67,1.59-2.45,2.33c-0.69-0.46-0.53-1.05-0.51-1.6
	c0.05-1.3,0.2-2.63-0.63-3.79c0.03-2.51-1.45-4.89-0.66-7.47c0.19-0.62,0.31-1.26,0.47-1.89c0.13-0.54,0.28-1.08,0.44-1.72
	c-2.14-0.49-3.46,1.53-5.45,1.54c-0.02-0.37-0.13-0.67-0.04-0.9c1.19-3.1,2.96-5.83,5.51-7.98c1.48-1.25,3.19-2.02,5.19-1.93
	c0.77,0.04,1.41-0.2,2.01-0.66c1.06-0.8,2.24-1.38,3.57-1.52c0.82-0.09,1.36-0.49,1.72-1.16c0.79-1.48,2.08-2.19,3.69-2.34
	c0.95-0.09,1.67-0.53,2.25-1.2c0.65-0.75,1.43-1.16,2.37-1.44c4.1-1.26,7.64-3.51,10.76-6.41c0.68-0.63,1.34-1.36,1.78-2.17
	c2.52-4.67,4.97-9.37,7.43-14.07c0.12-0.24,0.16-0.52,0.29-0.98c-0.55,0-0.94,0.06-1.31-0.01c-0.63-0.13-1.27-0.27-1.86-0.52
	c-3.75-1.56-6.87-4-9.82-6.75c-5.96-5.56-12.16-10.82-19.11-15.14c-2.41-1.5-4.88-2.88-7.66-3.58c-0.25-0.06-0.47-0.22-0.98-0.46
	c2.67-1.01,5.2-0.96,7.7-1.22c2.55-0.26,5.04,0.03,7.94,0.49c-1.3-2.4-3.54-3.53-4.5-5.82c0.74,0,1.35,0,2.07,0
	c1.62,1.56,2.84,3.71,5.06,4.79c0.48-0.82,0.11-1.39-0.21-1.95c-4.79-8.6-10.81-16.17-18.51-22.37c-0.79-0.64-1.6-1.26-2.39-1.9
	c-0.67-0.55-1.49-1.01-1.95-1.71c-0.41-0.61-0.42-1.49-0.64-2.4c0.45-0.06,0.87-0.23,1.23-0.14c1.13,0.27,2.24,0.61,3.34,0.97
	c1.37,0.45,2.67,1.13,4.2,0.69c0.28-0.08,0.65,0.16,1.27,0.34c-0.22-0.69-0.29-1.16-0.5-1.56c-1.08-2.06-2.27-4.08-2.81-6.36
	c-0.47-1.97-0.94-3.96-1.17-5.96c-0.26-2.3-0.2-4.64-0.39-6.95c-0.12-1.51-0.48-3.01-0.64-4.52c-0.25-2.31-0.53-4.62-0.61-6.93
	c-0.08-2.05,0.48-4,1.24-5.93c0.98-2.5,1.78-5.06,2.59-7.62c0.97-3.08,2.42-5.86,4.47-8.4c2.34-2.9,4.96-5.48,7.81-7.87
	c2.44-2.06,4.76-4.28,6.96-6.59c1.19-1.24,2.03-2.82,3.04-4.24c1.05-1.48,2.11-2.95,3.19-4.41c0.2-0.26,0.52-0.44,0.93-0.78
	c0.83,2-0.22,4.05,0.74,6.05c0.34-0.37,0.64-0.56,0.74-0.83c0.39-1.09,0.68-2.22,1.07-3.31c1.15-3.14,2.34-6.26,3.5-9.39
	c0.5-1.36,0.96-2.74,1.45-4.11c0.34-0.94,0.19-1.68-0.69-2.26c-0.78-0.53-1.52-1.12-2.25-1.72c-0.25-0.21-0.43-0.51-0.77-0.95
	c0.5-0.17,0.84-0.41,1.12-0.35c1.13,0.24,2.33,0.38,3.33,0.89c6.3,3.22,11.31,7.79,14.79,14.04c1.91,3.43,3.02,7.06,3.77,10.85
	c0.13,0.68,0.12,1.42,0.9,2.06c0.62-2.13,1.08-4.15,1.82-6.07c0.71-1.87,1.37-3.82,2.81-5.52c1.18,1.51,1.21,3.48,2.51,5.02
	c0.26-0.39,0.56-0.64,0.58-0.91c0.09-1.01,0.07-2.03,0.11-3.05c0.19-5.3,0.43-10.6,0.57-15.9c0.18-6.76,0.3-13.51,0.42-20.27
	c0.15-8.46,1.21-16.79,3.26-25c0.84-3.38,1.77-6.74,2.49-10.14c0.45-2.11,0.58-4.29,0.87-6.58c-1.05-0.56-1.95-1.19-2.95-1.51
	c-1.1-0.35-1.73-1.01-2.04-2.05c-0.17-0.55-0.41-1.13-0.38-1.69c0.08-1.62-0.58-2.98-1.39-4.28c-2-3.2-4.08-6.36-6.07-9.57
	c-2.84-4.57-5.69-9.13-8.4-13.76c-1.05-1.8-1.78-3.8-2.61-5.73c-0.3-0.68-0.57-1.27-1.35-1.59c-0.49-0.2-0.94-0.67-1.24-1.14
	c-0.67-1.04-1.25-2.13-1.82-3.22c-0.62-1.17-0.7-2.41-0.78-3.75c-0.16-2.53,0.81-4.46,2.09-6.45c1.49-2.32,2.89-4.71,3.7-7.37
	c0.18-0.6,0.18-1.26,0.22-1.89c0.03-0.57-0.1-1.17,0.02-1.71c0.55-2.5,1.34-4.98,3.06-6.9c1.43-1.6,2.13-3.44,2.63-5.4
	c2.27-8.79,5.97-16.98,10.34-24.88c0.6-1.08,1.32-2.08,2.03-3.09c0.44-0.62,0.69-1.24,0.68-2.01c-0.01-0.8,0.13-1.59,0.15-2.39
	c0.02-0.9,0.36-1.87-0.57-2.61c-0.2-0.16-0.18-0.67-0.18-1.02c0.02-2.11,0.01-4.22,0.13-6.32c0.07-1.29,0.34-2.57,0.55-4.01
	c-0.55-0.08-1.06-0.15-1.72-0.25c0.34-0.77,0.66-1.48,1.02-2.27c-0.99-0.66-1.99-1.33-3.06-2.04c1.42-1.94,3.24-3.14,5.16-4.57
	c-0.69-0.25-1.24-0.44-1.92-0.68c0.76-1.69,2.41-2.19,3.97-3.05c-0.36-0.48-0.73-0.89-0.98-1.35c-0.27-0.48-0.44-1.02-0.72-1.71
	c0.69-0.24,1.21-0.55,1.74-0.57c1.85-0.08,3.56-0.68,5.3-1.19c0.84-0.25,1.7-0.39,2.53-0.67c1.84-0.62,3.7-1.24,5.49-1.98
	c1.16-0.48,2.04-1.38,2.55-2.57c0.54-1.27,1.1-2.53,1.62-3.81c1.14-2.8,1.6-5.71,1.62-8.73c0.03-4.26-0.58-8.4-1.8-12.46
	c-0.78-2.6-1.23-5.23-1.13-7.95c0.02-0.58,0-1.16-0.04-1.74c-0.51-7.6,1.45-14.69,4.47-21.55c1.19-2.7,3.16-4.87,5.16-6.98
	c1.39-1.47,2.73-3.04,4.8-3.78c0.29,0.21,0.59,0.44,1.05,0.79c0.25-1.65,0.51-3.13,0.69-4.63c0.33-2.74,0.56-5.49,0.92-8.23
	c0.19-1.43,0.48-2.86,0.87-4.25c1.59-5.61,3.65-11.03,6.96-15.9c1.5-2.19,2.37-2.95,4.81-3.99c1.17,0.73,1.9,1.91,2.65,3.05
	c2.93,4.44,5.4,9.13,7.34,14.08c0.66,1.69,1.29,3.4,1.78,5.14c0.58,2.07,1.54,3.91,2.84,5.59c1.15,1.49,2.29,2.98,3.57,4.26
	c4.16-1.32,8.02-0.8,11.79,0.87c0.99,0.44,2.01,0.85,3.02,1.23c3.08,1.17,5.75,3.09,8.5,4.84c1.02,0.65,1.81,1.67,2.72,2.51
	c0.69,0.63,0.88,1.93,2.23,1.69c0.29,0.56,0.57,1.12,0.96,1.87c4.41-0.08,8.97-0.14,13.53-0.24c1.58-0.03,2.92-0.82,4.27-1.53
	c2.48-1.3,4.08-1.73,7.16-1.88c0.44,0.97,0.66,2.02,0.43,3.11c-0.58,2.77-0.94,5.63-1.89,8.27c-1.2,3.33-2.8,6.54-4.44,9.69
	c-1.35,2.6-3.57,4.57-5.66,6.59c-0.68,0.66-1.37,1.29-2.08,1.92c-0.69,0.61-0.83,1.34-0.47,2.16c0.6,1.39,1.23,2.76,1.93,4.33
	c-1.13-0.12-1.91-0.77-2.73-1.26c-0.83-0.5-1.5-0.44-2.09,0.35c-0.25-0.39-0.44-0.68-0.7-1.08c-0.24,0.18-0.54,0.29-0.65,0.49
	c-0.71,1.33-1.88,2.2-3.01,3.11c-1.16,0.93-2.37,1.54-3.97,1.44c-1.12-0.07-2.29,0.29-3.42,0.55c-0.67,0.15-0.88,0.68-0.66,1.36
	c0.11,0.34,0.26,0.68,0.44,1c0.68,1.16,1.02,2.44,0.98,3.75c-0.05,1.21,0.48,2.07,1.23,2.9c1.02,1.13,2.03,2.28,3.04,3.42
	c0.34,0.38,0.67,0.77,0.99,1.16c1.76,2.17,1.73,2.94-0.17,5.07c-0.19,0.21-0.38,0.43-0.69,0.79c1.44,1.01,2.82,2,4.24,2.94
	c0.26,0.17,0.68,0.15,1.03,0.14c0.2,0,0.41-0.12,0.61-0.21c3.08-1.4,6.36-1,9.55-0.86c1.27,0.05,2.6,0.91,3.73,1.65
	c1.26,0.83,2.42,1.86,3.47,2.96c0.67,0.7,1.32,1,2.26,0.98c2.47-0.04,4.94,0.09,7.38-0.47c0.42-0.1,0.87-0.12,1.3-0.12
	c4.33,0.03,8.28-1.3,12.06-3.29c0.96-0.5,1.99-0.88,3.01-1.25c1.67-0.61,3.14-1.47,4.35-2.8c0.54-0.58,1.17-1.08,1.78-1.59
	c2.95-2.47,3.46-5.81,2.37-9.06c-0.7-2.09-1.6-4.06-3.39-5.48c-0.06-0.04-0.12-0.09-0.15-0.15c-1.59-2.71-4.12-4.43-6.71-5.98
	c-1.79-1.07-3.79-1.79-5.72-2.59c-0.66-0.27-1.33-0.45-2.09-1.21c3.01-0.16,5.75-0.29,8.43,0.04c1.46,0.18,2.84,1.05,4.24,1.63
	c0.26,0.11,0.46,0.4,0.73,0.47c2.6,0.69,4.63,2.29,6.55,4.06c2.78,2.54,5.14,5.39,5.54,9.28c0.15,1.46-0.35,2.99-0.61,4.48
	c-0.1,0.56-0.39,1.09-0.51,1.66c-0.62,2.9-2.62,4.74-4.8,6.5c-1.01,0.81-1.88,1.79-2.83,2.66c-0.52,0.48-1.04,1-1.65,1.35
	c-1.69,0.97-3.44,1.86-5.44,2.93c4.91,2.09,9.74,3.67,14.2,6.45c-1.41,0.71-2.53-0.37-3.88-0.05c1.01,1.21,2.37,1.66,3.44,2.49
	c1.02,0.79,2.06,1.57,3.23,2.45c-0.52,0.31-0.84,0.5-1.31,0.78c0.59,0.47,1.05,0.92,1.59,1.25c5.15,3.11,8.87,7.66,12.39,12.39
	c0.85,1.14,1.3,2.58,1.88,3.9c0.85,1.92,1.7,3.85,2.46,5.8c0.39,1,0.67,2.06,0.85,3.12c0.37,2.28,1.01,4.54,0.8,6.88
	c-0.15,1.66-0.37,3.31-0.62,4.95c-0.1,0.65-0.41,1.21-1.09,1.52c-0.45,0.21-0.83,0.56-1.44,1c-0.14-0.72-0.37-1.32-0.36-1.91
	c0.08-3.52-0.35-6.94-1.92-10.15c-0.15-0.31-0.16-0.69-0.25-1.04c-0.34-1.41-0.7-2.81-1.53-4.04c-0.28-0.42-0.47-0.9-0.65-1.37
	c-0.61-1.59-1.52-2.99-2.85-4.05c-2.08-1.66-3.94-3.58-6.17-5.09c-1.86-1.26-3.5-2.84-5.32-4.15c-5.92-4.26-12.6-6.52-19.79-7.39
	c-0.61-0.07-1.23,0.01-2.33,0.03c0.6,0.55,0.8,0.82,1.07,0.97c2.03,1.13,4.1,2.19,6.11,3.36c1.7,0.98,3.36,2.02,4.98,3.12
	c0.51,0.35,0.85,0.96,1.23,1.49c1.4,1.94,2.78,3.9,4.18,5.84c0.3,0.41,0.62,0.82,1.02,1.13c3.07,2.39,5.43,5.41,7.57,8.61
	c0.6,0.9,1.04,1.91,1.51,2.88c0.41,0.85,0.73,1.74,1.16,2.58c2.44,4.78,2.76,9.83,1.93,15.03c-0.08,0.48-0.36,0.92-0.58,1.45
	c-1.71-3.48-3.36-6.86-5.01-10.23c-0.13-0.26-0.24-0.55-0.43-0.75c-2.47-2.63-4.87-5.35-7.47-7.85c-2.57-2.46-5.36-4.68-8.69-6.7
	c0.5,1.42,0.71,2.59,2.07,3.23c1.07,0.51,1.75,1.5,2.16,2.64c1.24,3.48,2.7,6.88,3.14,10.61c0.14,1.2,0.59,2.39,1.04,3.53
	c0.62,1.54,0.79,3.07,0.24,4.65c-0.84,2.46-1.26,5.08-2.86,7.25c-0.54,0.74-1.09,1.3-2.26,1.3c0-0.47-0.11-0.91,0.02-1.25
	c1.09-2.85,0.62-5.72-0.03-8.52c-0.56-2.39-1.46-4.7-2.23-7.03c-0.47-1.4-1.24-2.59-2.44-3.51c-0.5-0.38-0.93-0.86-1.56-1.47
	c0.28,2.59,0.67,4.93,0.75,7.27c0.07,2.38-0.02,4.79-0.31,7.16c-0.3,2.36-0.94,4.67-1.5,7.32c-0.22-0.66-0.34-1.04-0.47-1.44
	c-0.09,0.08-0.2,0.15-0.25,0.24c-0.75,1.39-1.62,2.7-1.98,4.31c-0.21,0.96-0.11,1.7,0.34,2.47c0.84,1.43,1.65,2.89,2.58,4.27
	c0.69,1.03,0.7,2.04,0.65,3.26c-0.09,2.05-0.83,3.74-1.79,5.47c-0.98,1.77-1.78,3.64-1.58,5.78c0.05,0.55-0.19,1.14-0.37,1.68
	c-1.96,5.79-4.45,11.36-6.96,16.93c-1.04,2.31-2.3,4.52-3.4,6.81c-0.38,0.78-0.69,1.61-0.89,2.45c-0.23,1-0.67,1.75-1.68,1.98
	c0.01,0.93,0.54,1.22,1.24,1.37c0.98,0.21,1.95,0.46,2.91,0.69c0.02,1.41-1.33,1.87-1.58,3.08c1.21,0.31,2.44,0.56,3.62,0.94
	c1.16,0.38,2.28,0.89,3.47,1.36c-0.41,1.7-2,2.35-3.01,3.66c1.63,0.45,3.05,0.85,4.48,1.25c0.76,0.21,1.57,0.33,2.28,0.66
	c2.71,1.22,5.41,2.48,8.09,3.78c2.29,1.11,4.53,2.32,6.81,3.43c2.04,0.99,3.9,2.23,5.6,3.73c2.12,1.87,4.36,3.62,6.48,5.49
	c1.25,1.1,2.37,2.35,3.56,3.53c1.04,1.03,2,2.07,2.3,3.61c0.11,0.59,0.62,1.14,1.05,1.62c1.21,1.35,2.48,2.66,3.71,3.99
	c1.83,1.97,3.69,3.91,5.45,5.94c0.8,0.92,1.44,1.99,2.12,3.02c3.52,5.37,6.24,11.13,8.32,17.2c1.01,2.95,1.93,5.95,3.15,8.82
	c0.86,2.02,1.56,4.04,2,6.18c0.28,1.39,0.27,2.74-0.37,4.01c-0.36,0.72-0.03,1.27,0.2,1.86c0.95,2.43,1.96,4.85,2.87,7.3
	c0.3,0.8,0.38,1.68,0.55,2.53c0.11,0.57,0.19,1.14,0.33,1.7c0.62,2.39,1.31,4.76,1.86,7.17c0.86,3.74,1.62,7.51,2.41,11.27
	c0.1,0.49,0.25,1.05,0.12,1.51c-0.33,1.23-0.26,2.44,0.02,3.65c0.25,1.08-0.59,1.52-1.28,2.08c0.31,1.69,0.56,3.34,0.93,4.96
	c1.03,4.52,0.75,9.1,0.77,13.67c0,0.51,0.02,0.99-0.48,1.36c-0.62,0.45-0.5,1.14-0.46,1.8c0.21,3.55,0.42,7.11,0.61,10.67
	c0.04,0.72-0.05,1.44-0.08,2.17c-0.05,1.08-0.1,2.15-0.16,3.23c-0.02,0.42-0.05,0.85-0.07,1.3c-0.51,0.21-0.96,0.4-1.49,0.61
	c-0.04,0.43-0.13,0.86-0.1,1.28c0.08,1,0.32,1.96-0.6,2.82c-0.33,0.31-0.25,1.09-0.28,1.67c-0.12,2.17-0.2,4.35-0.33,6.53
	c-0.06,1.01-0.07,2.02-1.26,2.55c-0.34,0.15-0.54,0.82-0.63,1.29c-0.29,1.5-0.6,3-0.71,4.52c-0.24,3.3-1.05,6.44-2.34,9.47
	c-0.91,2.14-1.88,4.25-2.84,6.37c-0.33,0.74-0.65,1.46-0.45,2.3c0.19,0.78-0.18,1.42-0.58,2.03c-1.91,2.92-3.8,5.85-5.75,8.73
	c-0.29,0.43-0.84,0.86-1.34,0.96c-1.2,0.26-1.83,1.06-2.45,1.99c-1.77,2.66-3.48,5.37-5.39,7.93c-3,4.02-6.2,7.88-10,11.2
	c-1.86,1.62-3.54,3.45-5.44,5c-3.23,2.63-6.88,4.59-10.66,6.3c-2.52,1.13-5.06,2.19-7.61,3.25c-0.7,0.29-1.36,0.6-2.18-0.11
	c-0.64-0.56-1.68-0.31-2.5,0.04c-1.53,0.66-3.06,1.34-4.57,2.05c-1.71,0.81-3.37,1.71-5.09,2.48
	C204.66,488.77,203.31,489.64,201.88,487.91z M111.45,359.22c1.6,0.2,3.17,0.41,4.73,0.6c7.59,0.94,13.98,4.18,19.09,9.91
	c0.61,0.69,1.39,1.28,2.19,1.75c2.45,1.44,5.06,2.1,8.11,1.13c0.13-0.69,0.29-1.53,0.45-2.37c0.52-2.78,0.95-5.58,1.58-8.34
	c0.42-1.83,1.15-3.59,1.68-5.4c0.29-0.96,0.5-1.91,0.22-2.98c-1.51-5.83-2.93-11.69-4.41-17.53c-0.43-1.69-0.69-3.48-1.47-5
	c-1.06-2.06-1.47-4.24-1.91-6.44c-0.83-4.2-1.54-8.43-2.32-12.64c-0.08-0.45-0.32-0.88-0.51-1.38c-1.03,0.52-1.15,1.45-1.47,2.23
	c-3.33,8.14-6.93,16.16-11.43,23.73c-4.12,6.93-8.22,13.88-13.31,20.18C112.09,357.37,111.38,358.07,111.45,359.22z M190.59,362.32
	c2-1.07,3.52-2.04,4.69-3.46c1.88-2.3,3.6-4.75,5.59-6.95c2.15-2.38,3.49-5.15,4.55-8.1c0.73-2.05,1.39-4.13,1.94-6.23
	c1.14-4.37,1.77-8.82,1.6-13.36c-0.07-1.79-0.24-3.56-0.76-5.29c-0.56,0.1-0.94,0.17-1.42,0.26c-0.22-1.02-0.37-1.95-0.62-2.85
	c-0.1-0.35-0.41-0.65-0.62-0.97c-0.84,0.4-0.91,1.07-1.09,1.68c-0.71,2.36-1.38,4.74-2.17,7.07c-1.31,3.85-2.5,7.75-4.11,11.47
	c-1.24,2.87-2.44,5.73-3.33,8.72c-1.2,4.03-2.35,8.07-3.5,12.11c-0.39,1.39-0.75,2.8-1.03,4.22
	C190.22,361.06,190.45,361.54,190.59,362.32z M88.24,209.23c0.87-0.61,1.73-0.36,2.64-0.04c1.15,0.41,2.32,0.84,3.52,1.01
	c1.38,0.2,1.94-0.32,1.82-1.71c-0.11-1.2-0.43-2.42-0.86-3.56c-1.36-3.59-2.73-7.18-3.2-11.03c-0.17-1.37-0.29-2.74-0.41-4.11
	c-0.04-0.53-0.09-1.04-0.66-1.24c-0.65-0.23-1.13,0.1-1.52,0.56c-0.28,0.33-0.52,0.7-0.74,1.07c-1.4,2.27-2.8,4.54-4.19,6.81
	C85.78,200.92,86.97,204.93,88.24,209.23z M191.31,107.92c-2.32-2.49-5.63-3.29-9.32-2.5c0.17,0.32,0.25,0.76,0.48,0.87
	C185.14,107.53,187.95,107.89,191.31,107.92z M174.19,197.86c0.72,0.32,0.99-0.19,1.23-0.59c0.91-1.51,1.71-3.06,1.49-5.19
	C175.93,194.17,175.06,196.01,174.19,197.86z"/>
</svg>
