<?xml version="1.0" encoding="utf-8"?>
<!-- Generator: Adobe Illustrator 24.0.2, SVG Export Plug-In . SVG Version: 6.00 Build 0)  -->
<svg version="1.1" id="Layer_1" xmlns="http://www.w3.org/2000/svg" xmlns:xlink="http://www.w3.org/1999/xlink" x="0px" y="0px"
	 viewBox="0 0 167.37 387.21" style="enable-background:new 0 0 167.37 387.21;" xml:space="preserve">
<path d="M67.64,9.89c-1.02-3.1-2.39-6.26-1.08-9.89c0.7,0.72,0.93,1.44,1.24,2.11c0.96,2.11,1.91,4.22,2.89,6.32
	c0.29,0.62,0.67,1.19,1.02,1.78c0.36,0.59,0.89,0.81,1.69,0.69c0.71-1.39,1.91-1.94,3.52-1.65c0.68,0.12,1.13-0.36,1.67-0.66
	c0.79-0.43,1.3-0.34,1.72,0.45c0.42,0.79,0.98,1.29,1.88,1.64c1.81-0.73,3.8-0.64,5.78-0.58c1.69,0.05,2.96,1.02,3.36,2.56
	c0.32,1.25,1.07,2.17,1.61,3.24c0.18,0.36,0.53,0.65,0.67,1.02c0.29,0.76,0.84,1.22,1.52,1.59c1.32,0.7,2.31,1.76,2.85,3.13
	c0.36,0.92,1.11,1.53,1.52,2.41c1.33,2.88,1.74,5.94,1.38,9.01c-0.21,1.79,0.1,3.46,0.11,5.09c0.39,0.43,0.84,0.49,1.21,0.5
	c1.95,0.05,1.95,0.03,3.92,0.92c-0.62,0.75-1.84,1.06-1.61,2.42c0.54-0.35,1.1-0.72,1.63-1.07c0.42,0.22,0.53,0.5,0.49,0.88
	c-0.13,1.15-0.22,2.31-0.39,3.46c-0.29,2.02-1.42,3.69-2.46,5.36c-0.63,1.01-0.78,1.96-0.68,3.09c0.29,3.37,1.41,6.54,2.25,9.78
	c0.22,0.84,0.36,1.7,0.85,2.5c0.55,0.89,1.21,1.45,2.2,1.67c0.33,0.08,0.66,0.19,1,0.24c1.02,0.16,1.71,0.74,2.24,1.62
	c0.89,1.47,1.64,3,2.27,4.6c0.12,0.31,0.28,0.65,0.29,0.97c0.07,5.13,0.61,10.24,0.5,15.38c-0.02,0.91-0.27,1.75-0.43,2.62
	c-0.19,0.99-0.21,1.93,0.81,2.53c0.44,0.26,0.57,0.75,0.84,1.14c0.47,0.67,0.87,1.41,1.42,2.01c3.21,3.46,3.23,7.38,1.59,11.46
	c-1.12,2.77-2.1,3.87-4.6,5.82c0.21,3.02,0.2,6.13,0.57,9.24c0.18,1.5,0.13,3.01,0.9,4.37c0.08,2.95,1.26,5.72,1.49,8.65
	c0.05,0.7-0.12,1.35-0.15,2.02c-0.15,3.21-0.3,6.42-0.55,9.62c-0.3,3.67-0.75,7.33-1.05,11c-0.25,3-0.37,6-0.57,9.01
	c-0.11,1.56-0.28,3.13-0.39,4.69c-0.11,1.45,0.09,2.81,0.76,4.17c1.38,2.83,2.54,5.75,3.52,8.75c0.17,0.52,0.38,0.93,0.11,1.54
	c-0.32,0.72,0.24,1.42,0.48,2.1c1.41,4.07,2.75,8.17,3.99,12.3c2.3,7.66,4.4,15.38,6.06,23.2c1.67,7.84,4.13,15.45,6.33,23.14
	c0.62,2.18,1.36,4.28,2.26,6.35c0.56,1.31,0.75,2.63,0.58,4.16c-0.32,2.98-0.3,6.03-0.19,9.03c0.15,3.98,0,7.91-0.62,11.86
	c-0.7,4.45-1.41,8.9-2.15,13.35c-0.98,5.93-2.37,11.79-3.58,17.68c-0.4,1.94-0.63,3.91-0.96,5.86c-0.91,5.32-2.15,10.56-3.4,15.81
	c-0.24,1-0.96,1.82-1.08,2.86c-0.12,1.02-0.26,2.04-0.34,3.06c-0.18,2.45-0.66,4.87-0.57,7.35c0.04,0.98,0.16,1.92,0.6,2.76
	c0.64,1.23,0.98,2.55,1.33,3.86c0.36,1.37,0.9,2.56,2.23,3.29c0.8,0.44,1.22,1.27,1.74,1.99c2.14,3.01,4.4,5.93,7.09,8.54
	c1.58,0.14,2.67-0.89,3.9-1.56c0.36-0.19,0.64-0.51,0.97-0.75c1.32-0.98,1.58-0.97,2.93,0.11c0.79,0.63,1.3,0.64,2.22,0.07
	c0.75-0.47,1.5-0.94,2.28-1.37c0.78-0.43,1.6-0.42,2.32,0.13c1.42,1.1,3.28,1.34,4.69,2.45c0.23,0.18,0.52,0.13,0.79,0.07
	c1.21-0.27,2.16,0.25,2.94,1.08c2.02,2.13,3.91,4.38,5.4,6.93c0.1,0.17,0.12,0.39,0.17,0.57c-0.06,0.56-0.64,0.45-0.9,0.76
	c-0.56,0.67-0.78,1.6-0.21,2.24c1.27,1.43,0.63,2.98,0.39,4.46c-0.14,0.84-0.86,1.45-1.81,1.4c-2.5-0.14-4.87,0.71-7.32,0.89
	c-0.75,0.05-1.5,0.14-2.25,0.14c-4.04-0.02-8.09,0.13-12.13-0.17c-3.21-0.24-6.4-0.55-9.58-1.07c-3.31-0.54-6.61-1.11-9.93-1.59
	c-2.17-0.31-4.31-0.74-6.44-1.29c-3.77-0.98-7.58-1.81-11.41-2.52c-2.35-0.43-4.65-1.15-7.05-1.34c-0.43-0.03-0.76-0.25-1.2-0.55
	c0.22-0.79,0.27-1.59,0.29-2.39c0.07-2.36,0.92-3.35,3.29-3.9c0.26-0.06,0.51-0.17,0.79-0.26c0.56-0.96,0.58-1.99,0.26-2.96
	c-0.46-1.37-0.13-2.56,0.55-3.72c1.38-2.37,2.48-4.87,3.56-7.39c0.65-1.52,1.11-3.07,1.44-4.69c0.52-2.55,1.24-5.05,2.36-7.41
	c0.21-0.45,0.35-0.87,0.37-1.36c0.03-0.96,0.09-1.91,0.12-2.87c0.04-1.36-0.05-2.72,0.23-4.09c0.16-0.79,0.08-1.64,0.02-2.46
	c-0.25-3.33-0.52-6.66-0.8-10c-0.11-1.36-0.19-2.73-0.41-4.08c-0.3-1.81,0.04-3.64-0.27-5.45c-0.78-4.58-1.13-9.21-1.59-13.83
	c-0.19-1.97-0.2-3.95-0.48-5.92c-0.1-0.68-0.16-1.36-0.32-2.02c-0.89-3.78-0.63-7.63-0.59-11.45c0.03-2.87,0.52-5.72,0.35-8.6
	c-0.11-1.84,0.24-3.62,1.08-5.16c1.29-2.37,0.55-4.41-0.72-6.32c-1.67-2.5-3.5-4.9-5.55-7.11c-1.21-1.3-2.43-2.58-3.73-3.8
	c-1.99-1.88-3.54-4.17-5.15-6.38c-3.02-4.17-5.45-8.68-7.15-13.56c-0.54-1.55-1.12-3.1-1.88-4.55c-1.71-3.29-2.35-6.84-2.77-10.45
	c-0.15-1.31-0.54-2.53-0.96-3.76c-0.09-0.27-0.28-0.47-0.57-0.56c-0.47,0.07-0.41,0.45-0.43,0.77c-0.05,0.89-0.14,1.78-0.14,2.67
	c0.01,4.86-0.29,9.7-0.7,14.54c-0.41,4.83-0.91,9.65-1.65,14.44c-0.26,1.65-0.07,3.29,0.11,4.91c0.15,1.43,0.24,2.85,0.33,4.29
	c0.19,2.8,0.04,5.65,0.5,8.38c0.45,2.65,0.57,5.27,0.77,7.92c0.13,1.77,0.53,3.51,0.63,5.28c0.04,0.72,0.87,0.8,0.83,1.5
	c-0.04,0.88,0.19,1.76,0.08,2.66c-0.16,1.22-0.21,2.45-0.38,3.67c-0.33,2.46,0.02,4.92-0.08,7.38c-0.14,3.42-0.43,6.81-0.73,10.22
	c-0.5,5.72-0.89,11.45-1.41,17.16c-0.31,3.4-0.62,6.8-0.82,10.21c-0.15,2.52-0.37,5.04-0.68,7.55c-0.36,2.9,0.2,5.73,0.49,8.58
	c0.33,3.26,0.94,6.49,0.77,9.79c-0.11,2.07,0.23,4.07,1.13,5.98c0.52,1.11,0.89,2.29,1.31,3.45c0.51,1.38,1.31,2.52,2.5,3.43
	c0.87,0.66,1.64,1.46,2.43,2.21c1.33,1.27,1.95,2.87,2.52,4.6c0.74,2.26,1.26,4.54,1.53,6.9c0.05,0.4,0.03,0.84,0.33,1.16
	c0.91,0.96,0.45,2.02-0.06,2.83c-0.64,1.02-1.56,1.84-2.87,2.12c-4.41,0.96-8.88,1.52-13.37,1.99c-3.62,0.38-7.25,0.39-10.88,0.31
	c-1.43-0.03-2.86-0.22-4.27-0.48c-2.21-0.41-3.44-2.16-3.24-4.42c0.02-0.27-0.02-0.57,0.08-0.81c0.39-1.01,0.3-2.06,0.03-3.03
	c-0.24-0.87-0.1-1.63,0.25-2.36c0.51-1.06,0.78-2.18,1.04-3.31c0.28-1.2,0.62-2.39,1.72-3.17c0.48-0.34,0.66-0.83,0.76-1.4
	c0.87-4.98,1.87-9.94,2.18-15c0.02-0.34,0.06-0.68,0.15-1.01c0.41-1.53,0.24-2.97-0.53-4.37c-0.68-1.23-0.55-2.66-0.9-3.98
	c-0.18-0.67,0.25-1.37,0.64-1.89c1.95-2.6,2.29-5.69,2.51-8.74c0.25-3.42-0.2-6.79-1.25-10.1c-0.76-2.4-1.27-4.9-1.78-7.37
	c-0.48-2.29-1.16-4.52-2.03-6.67c-1.08-2.67-2.01-5.38-2.85-8.12c-0.94-3.08-2.07-6.08-3.28-9.06c-0.88-2.15-1.53-4.39-2.23-6.61
	c-0.31-0.98-0.52-1.99-1.25-2.78c-0.5-0.54-0.47-1.28-0.64-1.92c-0.67-2.5-1.3-5-1.42-7.63c-0.09-2.13,0.44-4.04,1.15-5.97
	c0.95-2.58,2.32-4.95,3.61-7.36c0.32-0.61,0.65-1.21,0.63-1.93c-0.01-0.41,0.05-0.91-0.38-1.1c-0.81-0.36-0.93-1.13-1.2-1.82
	c-2.65-6.69-4.85-13.53-6.88-20.42c-1.97-6.69-3.86-13.4-5.19-20.26c-0.33-1.68-0.78-3.33-1.24-4.98c-0.42-1.52-0.92-3.01-1.79-4.35
	c-0.38-0.58-0.66-1.21-0.67-1.91c-0.04-2.81-0.64-5.58-0.47-8.39c0.3-4.95,0.28-9.92,0.57-14.87c0.1-1.67,0.29-3.38,1.42-4.84
	c0.53-0.68,0.72-1.62,1.11-2.42c0.84-1.72,1.68-3.44,2.58-5.13c0.55-1.03,0.7-2.19,1.37-3.19c1.32-1.96,3.06-3.51,4.74-5.11
	c1.24-1.17,2.57-2.25,3.84-3.35c-0.11-0.63-0.38-1.1-0.09-1.78c0.76-1.82,1.22-3.76,2.07-5.56c0.33-0.7,0.79-1.07,1.66-0.97
	c0.32-0.81,0.64-1.63,0.98-2.45c1.08-2.63,2.59-5.03,4.63-6.96c2.15-2.04,2.09-4.62,2.34-7.17c0.02-0.19-0.02-0.46-0.14-0.58
	c-1.15-1.16-0.88-2.52-0.51-3.85c0.17-0.61,0.04-1.08-0.26-1.54c-2.1-3.18-3.52-6.64-4.43-10.33c-0.03-0.1-0.15-0.18-0.32-0.35
	c-1.88,4.3-3.72,8.56-5.61,12.8c-1.34,3-2.66,6.01-4.14,8.95c-1.45,2.88-2.78,5.8-3.73,8.88c-0.84,2.75-2.06,5.36-3.08,8.04
	c-0.85,2.24-1.51,4.55-2.37,6.79c-0.75,1.96-1.4,3.96-2.27,5.89c-0.84,1.86-1.37,3.87-1.85,5.86c-0.84,3.42-2.48,6.51-3.9,9.68
	c-0.33,0.73-0.77,1.24-1.58,1.46c-1.25,0.34-1.86,1.18-2.09,2.5c-0.26,1.55-0.91,2.99-1.68,4.38c-0.54,0.97-1.26,1.39-2.28,1.47
	c-0.67,0.06-1.34,0.08-2.12,0.12c0,2.22-0.93,3.98-2.06,5.74c-0.78,1.21-1.28,2.57-0.88,4.23c0.75,3.15,0.65,6.38,0.03,9.56
	c-0.21,1.06-0.58,2.11-0.98,3.12c-0.56,1.42-0.79,1.52-2.57,1.56c-0.15,0.79-0.05,1.57,0.06,2.39c0.21,1.56,0.35,3.13-0.36,4.63
	c-0.3,0.65-0.75,1.15-1.32,1.54c-0.78,0.54-1.18,0.42-2.16-0.65c-0.16,0.87-0.29,1.62-0.45,2.36c-0.1,0.47-0.19,0.96-0.41,1.37
	c-0.77,1.43-2.58,1.62-3.77,0.48c-0.61-0.59-1.1-1.22-1.14-2.1c-0.06-1.5-0.22-3.02-0.11-4.51c0.13-1.88-0.1-3.65-0.68-5.44
	c-0.94-2.92-0.96-2.95-0.43-6c0.64-3.7,0.97-7.45,1.44-11.17c0.17-1.39,0.92-2.55,1.07-3.94c0.14-1.34,0.63-2.65,0.94-3.98
	c0.26-1.09,0.81-2.02,1.5-2.89c0.94-1.19,1.8-2.41,1.5-4.09c-0.1-0.55,0.24-1.05,0.46-1.56c1.11-2.58,2.41-5.07,3.75-7.54
	c0.3-0.56,0.75-0.97,1.14-1.43c0.99-1.17,1.65-2.47,1.98-3.99c0.87-3.94,1.85-7.85,2.74-11.79c0.97-4.27,2.38-8.41,3.65-12.59
	c0.28-0.91,0.54-1.76,0.41-2.76c-0.12-0.95,0.4-1.85,0.84-2.7c2.1-4.15,4.24-8.29,5.92-12.64c1.3-3.38,2.62-6.76,3.78-10.19
	c1.58-4.67,3.52-9.2,5.39-13.75c0.78-1.91,1.38-3.87,1.94-5.84c0.69-2.45,1.73-4.75,2.73-7.08c1.58-3.68,3.92-6.87,6.3-10.04
	c0.43-0.57,0.93-0.98,1.6-1.24c0.77-0.29,1.53-0.6,2.26-0.97c1.58-0.82,1.9-1.69,1.17-3.32c-0.73-1.61-1.54-3.18-2.33-4.76
	c-0.78-1.56-0.62-2.25,0.8-3.27c1.39-0.99,2.78-1.98,4.17-2.98c0.78-0.56,1.28-1.17,0.9-2.25c-0.2-0.56-0.14-1.21-0.21-1.95
	c-0.98,0.44-1.54,1.23-2.16,1.91c-1.74,1.94-3.42,3.92-5.14,5.87c-0.31,0.35-0.72,0.62-1.09,0.93c-0.42,0.35-0.95,0.63-1.23,1.07
	c-1.3,1.99-3.19,3.38-4.95,4.89c-3.64,3.11-7.4,6.09-11.45,8.66c-2.78,1.76-5.67,3.32-8.68,4.64c-2.01,0.88-4.12,1.41-6.34,1.56
	c-1.56,0.1-3.09,0.47-4.69,0.22C8.66,87.82,8.05,86.8,9,85.27c0.44-0.71,0.91-1.59,2.03-1.46c0.53,0.06,0.89-0.25,1.27-0.56
	c2.73-2.28,5.46-4.54,7.67-7.37c0.75-0.97,1.62-1.89,2.58-2.64c3.26-2.56,5.97-5.62,8.52-8.85c2.54-3.22,5.05-6.47,7.59-9.7
	c2.84-3.6,5.41-7.39,8-11.17c2.05-3,4-6.05,5.84-9.18c0.49-0.84,0.76-1.61,0.53-2.68c-0.45-2.06,0.07-4.1,0.78-6.03
	c0.88-2.37,1.93-4.68,3.42-6.76c0.34-0.47,0.62-0.9,1.22-0.98c1.01-0.13,1.48-0.89,1.98-1.63c0.49-0.74,0.98-1.47,1.49-2.2
	c1.21-1.75,2.8-2.99,4.88-3.54C67.13,10.42,67.45,10.34,67.64,9.89z"/>
</svg>
