<?xml version="1.0" encoding="utf-8"?>
<!-- Generator: Adobe Illustrator 24.1.2, SVG Export Plug-In . SVG Version: 6.00 Build 0)  -->
<svg version="1.1" id="Layer_1" xmlns="http://www.w3.org/2000/svg" xmlns:xlink="http://www.w3.org/1999/xlink" x="0px" y="0px"
	 width="1483.09" height="1396.95" viewBox="0 0 1483.09 1396.95" enable-background="new 0 0 1483.09 1396.95" xml:space="preserve">
<g>
	<path d="M475.79,1192.07c2.56-8.29,4.6-16.34-1.27-23.97c-1.01-1.32-1.74-2.27-0.65-3.86c0.32-0.47,0.17-1.3,0.17-1.96
		c0.01-21.82,0.01-43.64,0.01-65.71c-4.84-2.57-10.25-3.2-15.37-4.42c-15.57-3.71-30.43-9.39-45.35-15
		c-17.05-6.42-34.29-12.33-51.86-17.27c-10.66-2.99-21.34-5.85-32.15-8.24c-9.42-2.08-19.06-3-28.46-4.92
		c-6.96-1.42-9.96,0.65-12.54,6.54c-4.72,10.78-13.11,18.31-23.14,24.1c-3.11,1.79-6.52,2.96-9.94,4.01
		c-2.22,0.68-3.62-0.53-3.01-2.62c0.39-1.36,1.24-2.59,2.02-4.17c-3.58,0.05-5.24,2.83-7.41,4.38
		c-12.02,8.58-24.78,15.65-38.5,21.18c-8.83,3.56-17.93,6.21-27.2,7.61c-12.42,1.88-25,2.11-37.58,0.41
		c-2.75-0.37-5.48-0.92-8.25-1.2c-1.14-0.12-1.63-0.95-2.44-2.19c6.96-2.95,14.77-2.6,21.86-6.8c-4.09-1.66-7.8-1.38-11.11-0.78
		c-6.11,1.11-12.33,1.21-18.44,2.64c-7.15,1.67-13.79,4.3-19.58,8.52c-6.77,4.94-13.11,10.45-17.41,17.99
		c-3.94,6.91-5.13,21.98,1.07,28.9c2.8,3.13,6.46,5.5,9.79,8.14c0.99,0.78,2.61,1.07,1.94,2.87c-0.54,1.45-1.76,1.78-3.21,1.77
		c-4.13-0.04-8.26-0.02-12.55-0.02c3.84,6.4,9.27,11.41,15.88,15.18c-0.98,1.31-1.5,1.78-3.06,1.37
		c-15.58-4.06-30.49-9.91-43.94-18.69c-15.01-9.8-27.03-22.36-32.18-40.3c-3-10.45-3.63-20.92-2.02-31.68
		c0.45-3.01,1.87-6.03,0.9-9.76c-7.79,7.29-15.99,13.84-18.03,25.33c-2.98-2.22-2.97-4.76-2.56-7.13
		c3.47-20.28,12.13-38.01,25.6-53.64c11.6-13.45,24.9-24.74,39.47-34.79c10.92-7.53,22.6-13.7,33.86-20.61
		c14.66-9.01,30.85-13.01,47.3-16.04c13.41-2.47,27.23-2.03,40.74-0.98c21.02,1.64,41.51,6.66,61.37,13.81
		c10.57,3.8,21.02,7.94,31.2,12.76c4.12,1.95,8.22,4.04,12.47,5.65c3.99,1.51,8.32,0.51,12.5,0.19c0.8-0.06,1.6-0.67,2.36-0.6
		c6.82,0.6,13.53-0.83,20.3-1.2c15.77-0.87,31.54-1.19,47.3-0.73c12.87,0.38,25.8,0.84,38.58,2.1c16.72,1.64,33.4,4,49.88,7.6
		c7.65,1.67,15.54,2.27,23.35,3.13c4.38,0.48,6.77-2.97,5-7.02c-0.58-1.33-0.41-2.6-0.42-3.88c-0.05-7-0.04-14-0.02-21
		c0.02-4.94,1.36-9.5,5.24-12.71c10.89-9.01,9.58-20.76,7.73-32.71c-0.1-0.63-0.08-1.26-0.88-1.59c-3.79-1.57-3.42-5.31-4.03-8.36
		c-1.48-7.35-1.01-14.84-1.07-22.28c-0.09-11.39,1.39-22.62,2.81-33.91c2.18-17.38,6.22-34.31,10-51.35
		c4.04-18.2,10.26-35.6,17.09-52.87c6.65-16.83,13.84-33.44,21.59-49.76c3.95-8.32,7.34-17,12.17-24.99
		c-0.1-0.16-0.21-0.52-0.45-0.68c-7.18-4.7-7.86-7.65-3.24-16.41c2.2-4.17,4.79-8.15,7.39-12.09c1.95-2.95,3.35-3.03,5.9-0.46
		c1.63,1.64,3,3.55,4.87,5.81c4.38-11.54,9.48-21.47,15.45-31.19c-1.65-0.83-2.97,0.05-4.46,0.4c-6.05,1.43-8.94-1.88-7.22-7.79
		c3.7-12.66,6.31-25.59,9.14-38.47c2.38-10.81,5.32-21.49,7.37-32.38c1.36-7.22,2.9-14.41,3.53-21.75c0.19-2.27,1.87-4.34,0.72-6.95
		c-3.63-1.99-7.44-4.08-11.27-6.19c-2.36,7.18-10.81,22.21-16.16,28.73c-2.27-1.42-4.58-2.85-6.81-4.24
		c-5.89,5.75-10.45,12.21-16.56,17.85c2.56,0.29,4.11,1.31,5.18,3.31c-0.96,1.84-2.13,3.64-2.89,5.61
		c-2.44,6.32-7.18,9.73-13.52,11.57c-8.81,2.56-17.65,4.77-26.91,4.9c-4.13,0.06-7.2-2.23-8.55-5.36c-1.55-3.57-3.82-5.41-7.42-6.63
		c-1.66,0.99-3.11,2.58-4.89,3.74c-3.91,2.57-3.67,2.62-7.17-0.54c-10.01-9.05-16.84-20.47-23.83-31.76
		c-4.81-7.77-9.28-15.73-12.91-24.17c-2-4.66-2.4-9.46-2.91-14.31c-0.29-2.8-0.09-5.66-0.05-8.49c0.18-12.25-1.66-24.38-2.19-36.59
		c-0.34-7.69-1.13-15.42-1.91-23.1c-1.19-11.68-3.59-23.16-6.68-34.53c-2-7.35-4.91-14.36-7.16-21.34c1.38-3.14,4.85-3.12,7.13-5.82
		c-3.7-3.51-7.22-7.3-11.2-10.53c-7.37-5.99-10.23-14.25-11.83-23.01c-0.76-4.16-1.41-8.41-1.27-12.77
		c0.13-3.94,0.07-7.58,3.83-10.07c1.7-1.13,0.97-2.61,0.57-4.36c-0.79-3.51-3.53-6.64-1.58-10.8c2.3-4.91,5.36-8.52,10.86-9.57
		c0.69-0.13,1.27-0.3,1.82-1.03c-0.13-1.41-0.17-3-0.44-4.56c-1.12-6.53-1.28-6.75,4.08-9.77c3.1-1.74,5.79-4.32,9.45-4.96
		c-0.16-0.83-0.65-1.72-0.41-2.3c2.58-6.17-0.15-12.02-0.84-18.01c-0.46-4.05-0.86-8.1,1.57-11.99c1.78-2.84,3.94-4.66,7.1-4.25
		c3.43,0.44,6.63,1.88,7.95,5.58c1.8,5.04,3.54,10.09,5.32,15.16c1.14,0.06,1.97,0.21,2.78,0.12c5.97-0.67,10.44,0.75,14.36,6.18
		c3.31,4.58,8.97,7.52,14.78,8.62c2.59,0.49,3.55,1.7,4.72,3.59c3.25,5.26,6.24,10.69,11.18,14.75c2.25,1.85,2.52,5.04,1.89,7.71
		c-1.69,7.08-1.04,14.24-0.77,21.31c0.28,7.27-2.85,13.37-5.19,19.75c-4.18,11.44-8.03,22.88-6.79,35.34
		c1.71,0.66,2.81-1.63,4.76-0.9c1.31,2.21,0.94,4.79,1.11,7.29c0.35,5.09-0.72,10.2,0.84,15.29c2.6,8.49,6.9,15.98,12.36,23.65
		c3.92-10.6,7.76-20.52,13.16-29.61c-2.53-1.92-5.73,0.39-7.42-2.91c12.77-27.59,24.7-55.87,39.33-83.39
		c-3.41-0.79-3.84-3.31-3.21-5.78c1.02-4.06,1.85-8.1,4.19-11.87c5.28-8.49,11.46-16.16,18.98-22.64
		c7.31-6.31,15.45-11.64,24.86-14.17c4.64-1.25,7.93-3.83,10.36-7.41c2.47-3.65,5.93-6.23,8.72-9.49c1.01-1.18,2.46-2.1,3.79-2.12
		c5.42-0.07,10.88-0.85,17.08,0.79c-3.99-4.42-7.85-8.37-6.76-15.28c4.69,5.63,9.43,9.9,16.84,8.33c2.56-0.54,4.49-1.75,6.21-4.36
		c-6.64-2.66-11.79-6.91-16.22-12.03c-10.42-12.03-14.58-25.88-11.03-41.53c1.93-8.51,8.85-11.7,17.45-9.27
		c4.96,1.4,9.68,3.77,15.15,4.1c-9.59-11.86-9.74-21.46-11.97-33.34c-1.63-1.1-3.51-0.42-5.29-0.56c-1.18-0.09-2.1-0.06-2.71-1.51
		c-0.68-1.6,0.3-2.41,0.97-3.41c0.23-0.35,0.84-0.47,1.3-0.65c4.51-1.77,5.24-5.86,5.92-9.87c2.06-12.05,4.92-23.89,8.98-35.43
		c5.13-14.58,14.33-24.34,30.47-26.27c2.42-0.29,4.82-0.98,7.3-0.86c1.27,0.06,2.17-0.43,3.09-1.26
		c6.37-5.72,14.12-9.38,21.12-14.17c2.52-1.73,5.19-3.24,7.62-4.74c2.86,1.73,2.28,4.41,2.67,6.74c6.03-3.13,8.81-8.73,11.92-14.04
		c2.39-4.09,4.81-8.15,7.18-12.25c2.81-4.83,7.05-8.26,11.59-11.22c11.83-7.69,24.68-12.03,39-11.08c1.5,0.1,3.28-0.19,3.82,1.59
		c0.52,1.7,0.74,3.56-0.86,5.08c-2.15,2.04-4.29,3.94-6.94,5.46c-7.46,4.28-15.78,7.14-22.08,13.41c-3.01,2.99-5.99,5.96-7.87,9.77
		c-3.6,7.29-7.03,14.67-10.59,22.14c3.97,1.46,6.99,0.34,10-2.26c4.94-4.26,10.16-8.19,16.17-10.91c1.93,1.33,2.09,3.6,2.93,5.48
		c2.97-0.24,4.74-1.79,6.6-4.14c6.42-8.11,13.2-15.95,20-23.76c2.29-2.63,5.94-3.25,8.95-4.67c8.91-4.19,18.52-6.03,28.28-7.26
		c5.97-0.76,11.84-2.27,17.75-3.46c0.31-0.06,0.59-0.33,0.9-0.37c2.05-0.28,3.94-0.17,5.35,1.74c1.63,2.21,0.06,3.97-1.08,5.28
		c-5.02,5.75-10.67,10.7-18.23,12.99c-3.11,0.94-6.09,2.29-9.12,3.49c-6.65,2.62-11.44,6.97-14.64,13.59
		c-4.96,10.27-9.63,20.73-15.58,30.49c-1.4,2.29-1.23,3.96,0.45,6.02c5.52,6.77,8.85,14.82,12.95,22.44
		c3.41,6.35,4.53,13.72,8.49,19.62c3.73,5.54,7.57,11.04,11.26,16.62c2.7,4.07,5.11,8.34,7.62,12.54
		c3.92,6.56,4.45,13.49,2.76,20.89c-0.94,4.1,0.29,8.5-1.79,12.62c-0.82,1.62-1.54,2.52-3.2,2.97c-3.29,0.88-6.54,1.9-9.99,2.91
		c-1.26,7.77-2.52,15.49-3.31,23.31c-0.85,8.43-8.54,17.41-19.82,13.61c-4.71-1.58-8.58-3.83-12.07-7.65
		c-8.28,9.83-16.29,19.48-28.27,26.05c5.01,0.65,9.04,1.6,13.02,2.58c3.37,0.83,7.51,1.9,7.37,7.2c-0.06,2.02,2.26,2.32,4.09,2.58
		c5.98,0.84,11.96,1.53,17.87,2.9c8.73,2.02,17.61,3.36,26.4,5.11c7.27,1.44,13.31,4.45,14.83,12.69c0.12,0.63,0.52,1.21,0.65,1.84
		c1.75,8.47,5.7,14.62,14.97,16.71c3.24,0.73,5.9,3.99,8.7,6.19c11.6,9.11,21.86,19.59,29.26,32.49c3.96,6.9,5.14,14.36,3.48,22.3
		c-0.83,3.99,1.66,7.54,2.86,11.14c6.94,20.86,16.15,40.84,24.08,61.32c0.59,1.52,1.76,2.84,2.17,4.39
		c0.74,2.85,1.66,5.95-2.21,7.37c5.22,16.9,9.44,33.77,11.77,51.11c1.7,12.65,4.77,25.11,4.98,37.97c0.04,2.76,1.07,5.44,0.98,8.3
		c-0.18,5.55-0.8,6.68-5.95,8.87c0,1.78-0.05,3.6,0.03,5.41c0.02,0.42,0.48,0.81,0.89,1.47c2.63-0.5,4.49-2.37,6.58-3.74
		c4.05-2.65,6.25-2.48,9.66,0.88c7.19,7.09,12.38,15.68,17.61,24.15c9.15,14.84,15.06,31.13,17.85,48.26
		c1.44,8.85,2.15,17.91,3.4,26.83c2.04,14.52,4.66,28.95,8.37,43.19c2.97,11.38,6.74,22.42,11.13,33.41
		c-1.36,2.63-4.21,0.59-6.23,1.78c3.11,4.82,5.06,10.17,7.09,15.5c1.79,4.71,1.32,8.79-2.68,12.11c-0.8,0.66-0.76,1.35-0.67,2.52
		c3.68,0.57,7.22,1.78,8.58,5.86c0.73,2.17,0.6,4.54,0.99,6.79c0.47,2.7,0.76,5.61,1.45,8.2c1.09,4.1,0.01,6.9-3.31,9.22
		c0.98,1.25,0.62,3,2.62,3.43c3.36,0.73,4.64,3.59,5.23,6.48c1,4.96,1.52,10.02,2.31,15.02c0.42,2.63-0.72,4.34-3.59,5.32
		c5.43,4.37,6.67,10.19,5.34,15.52c-2.02,8.07-2.79,16.68-7.4,23.68c-1.53,1.63-2.43-2.22-3.79-0.02c-0.03,0.24-0.2,0.62-0.08,0.8
		c2.43,3.44,6.12,5.52,9.22,8.21c2.73,2.38,3.68,5.36,4.23,8.55c2.09,12.23,4.38,24.45,5.9,36.75c1.12,9.11,2.44,18.2,3.32,27.35
		c0.7,7.27,1.82,14.57,3.58,21.72c1.03,4.16-0.06,4.91-4.24,5.66c-6.42,1.15-13.16-0.2-19.31,2.35c1.45,6.55,0.89,13.23,3.25,19.25
		c1.26,0.48,2.08-0.18,3.02-0.42c4.17-1.07,5.12-0.11,5.59,4.21c0.54,5.03,1.28,10.06,2.26,15.03c1.36,6.93,1.81,13.96,2.68,20.94
		c0.08,0.66,0.08,1.34,0,2c-0.28,2.23,2.41,4.48,0.32,6.54c-1.99,1.96-4.76,3.01-7.44,3.49c-5.23,0.92-10.62,1.13-15.8-0.05
		c-5.76-1.32-7.05-2.72-6.93-8.84c0.12-6.5-0.94-12.86-1.21-19.3c-0.23-5.55-1.19-11.13-2.33-16.52c-0.71-3.32,0.61-4.59,2.38-6.17
		c0.96-0.85,2.51-1.2,1.99-2.91c-1.6-5.31-1.33-11-3.49-16.74c-6.52,1.48-13.24,0.96-19.96,1c-6.33,0.03-6.64-0.23-7.5-6.35
		c-0.98-6.96-3.52-13.55-4.94-20.39c-1.92-9.26-3.13-18.67-5.14-27.9c-2.44-11.17-2.58-22.71-5.73-33.75
		c-0.28-0.99-0.09-1.84,0.47-2.79c3.75-6.31,7.29-12.75,11.16-18.98c0.86-1.4,1.34-2.65,1.14-4.13c-0.82-5.99-1.66-11.98-2.64-17.94
		c-0.48-2.9-0.95-5.9-1.08-8.73c-0.14-3.09-1.64-4.57-3.67-5.7c-3.69-2.06-5.61-5.53-7.34-8.95c-2.46-4.86-4.22-6.5-9.34-6.33
		c-2.55,0.08-3.94-1.07-4.97-3.26c-3.21-6.82-5.42-13.96-6.89-21.32c-0.75-3.75-2.56-7.61,0.76-11.25c0.55-0.6,0.67-2.29-0.97-3.33
		c-2.57-1.63-2.74-4.01-2.32-7.23c1.27-9.7,2.98-19.33,4.7-28.85c-2.3-1.3-4.34-0.74-6.28-0.76c-3.34-0.05-5.05-1.87-5.93-4.85
		c-1.38-4.7-1.5-9.6-2.82-14.36c-3.49-12.55-9.84-23.34-18.07-33.28c-8.89-10.74-18.65-20.64-28.49-30.48
		c-2.12-2.12-4.24-4.32-6.87-5.59c-3.76-1.82-4.64-4.97-4.69-8.46c-0.15-10-0.68-20.05,0.13-29.98c0.76-9.28,0.56-18.75,3.25-27.8
		c0.44-1.47-0.06-1.99-0.64-2.98c-2.47-4.24-5.15-8.36-7.12-12.93c-2.09-0.6-4.3-0.48-6.41-0.24c-3.28,0.38-5.48-1.04-7.08-3.57
		c-8.22-13-15.29-26.6-21.29-40.76c-2.71-6.4-5.61-12.71-8.7-19.69c-0.78,9.07-1.54,17.41-2.17,25.76
		c-0.13,1.71-0.95,2.43-2.31,3.38c-9.1,6.33-18.07,12.86-27.03,19.29c0.49,8.32,2.09,16.55,3.69,24.64
		c1.91,9.69,4.6,19.29,7.08,28.9c3.5,13.54,6.34,27.25,10.54,40.62c1.43,4.55,3.59,8.72,6.08,12.75
		c6.63,10.74,11.42,22.41,16.99,33.69c10.82,21.91,18.22,44.87,23.13,68.8c2.12,10.35,4.88,20.62,6.53,31.05
		c1.07,6.77,1.68,13.69,2.43,20.54c0.97,8.97,1.74,17.97,2.58,26.94c0.65,7.04,1.8,14.01,2.41,21.06
		c1.25,14.53,1.7,29.05,1.98,43.61c0.15,7.68-1.91,15.01-2.37,22.57c-0.2,3.37-2.18,6.81-6.7,7.39c-2.79,0.36-3.52,2.3-2.53,5.03
		c2.99,8.25,6.05,16.47,9.37,24.6c2.84,6.95,5.56,13.92,10,20.06c0.99,1.38,1.18,3,1.12,4.71c-0.25,6.24-1.58,12.34-2.53,18.48
		c-0.6,3.86-1.78,7.66-2.28,11.48c-0.59,4.5,1.97,8.67,4.83,11.89c10.41,11.71,16.39,25.28,19.06,40.62
		c1.4,8.05,2.44,16.16,3.62,24.22c0.66,4.49,1.58,9.11,1.29,13.76c-0.58,9.3,0.81,18.53,1.23,27.79
		c0.46,10.07,3.14,19.94,8.08,28.96c2.09,3.82,3.3,4.04-2.27,7.98c0.61,1.7,1.29,3.47,1.88,5.28c0.24,0.75,0,1.88,1.1,1.93
		c4.3,0.21,4.67,3.71,5.93,6.65c2.24,5.26,4.6,10.47,7.11,15.6c2.44,4.99,4.01,10.31,6,15.45c6.77,17.42,15.86,33.7,23.95,50.47
		c5.53,11.46,11.2,22.86,16.71,34.32c1.07,2.22,2.13,4.39,4.12,5.9c-0.65,0.9-1.13,1.57-1.69,2.34c1.7,1.33,2.71,3.23,3.89,5
		c4.95-0.88,9.85-0.78,14.71-0.59c6.98,0.26,13.81-1.6,20.81-1.13c2.44,0.17,3.56,1.06,5.01,3c6.15,8.26,11.81,16.83,17.25,25.55
		c2.74,4.39,5.54,8.8,7.36,13.76c0.86,2.33,1.2,4.69,0.66,6.77c-1.13,4.28-0.71,8.55-0.86,12.83c-0.15,4.28-0.59,4.63-5.01,3.7
		c-0.57-0.12-0.89-0.06-1.23,0.27c-3.07,2.89-5.04,0.35-7.18-1.59c-3.95,2.16-7.79,4.23-12.28,1.01c-1.58-1.13-3.53,0.24-5.06,1.17
		c-3.23,1.96-6.54,2.45-9.75,0.34c-2.55-1.67-4.64,0-6.42,0.91c-3.11,1.58-5.98,1.74-8.93,0.28c-2.61-1.29-5.03-1.04-7.57,0.06
		c-1.8,0.77-3.47,1.2-5.59,0.19c-3.16-1.51-6.74-1.39-9.97-0.02c-1.86,0.79-3.33,0.79-5.09-0.07c-3.44-1.67-6.95-2.14-10.57-0.3
		c-0.81,0.41-2.16,0.55-2.92,0.15c-4.41-2.32-8.71-1.16-13.08,0.03c-0.77,0.21-1.82,0.27-2.46-0.09c-4.22-2.45-8.26-2.58-12.6-0.07
		c-1.84,1.07-3.9-0.32-5.43-1.54c-1.89-1.51-3.53-2.12-6.14-1.42c-4.11,1.1-6.27-0.13-6.34-4.47c-0.1-6.62-2.81-12.37-4.37-18.51
		c-1.67-6.58-2.29-13.28-2-20.07c0.09-2.23-0.26-3.79-2.62-5.22c-3.57-2.17-5.95-5.99-6.17-10.12c-0.17-2.99-1.9-4.09-3.69-5.17
		c-6.88-4.12-13.31-8.84-19.64-13.77c-7.36-5.73-13.86-12.33-19.43-19.73c-7.61-10.12-13.2-21.36-15.95-33.81
		c-1.22-5.55-0.78-11.3-0.28-16.89c0.35-3.96,3.87-5.79,7.65-6.45c-0.44-6.26-3.45-11.39-5.54-16.81c-0.66-1.69-1.11-3.37-1.51-5.14
		c-1.52-6.71,0-9.02,6.86-9.65c3.14-0.29,6.14-1.22,8.18-2.55c-0.52-3.25-2.19-5.03-5.71-4.45c-0.16,0.03-0.33,0-0.5,0
		c-11.56-0.08-11.54-0.09-15.59-10.86c-3.66-9.73-9.03-18.37-15.68-26.42c-7.9-9.57-15.19-19.67-22-30.05
		c-4.94-7.53-11.19-14.06-16.02-21.66c-0.85-1.34-1.46-2.5-1.36-4.06c0.44-6.93-0.37-13.84,0.8-20.83
		c0.98-5.88,2.16-11.76,2.89-17.87c-7.43,5.94-14.2,12.43-21.58,18.21c-19.34,15.12-40.35,27.09-64.03,33.95
		c-8.15,2.36-16.49,3.83-24.99,4.74c-6.97,0.75-14,1.32-20.93,2.65c-4.5,0.86-9.21,0.76-13.79,0.99
		c-16.91,0.86-33.85,1.91-50.78,1.09c-4.92-0.24-9.81-1.23-14.96-0.71c-8.38,14.81-18.05,28.93-26.28,43.94
		c-4.38,7.98-5.17,16.15-2.86,24.63c0.95,3.48-0.23,4.46-3.16,4.18c-2.12-0.2-3.76,1.15-5.78,1.15c-1.73,0-1.59,1.26-1.08,2.93
		c2.84,0,5.82,0.04,8.79-0.01c2.74-0.05,4.09,1.19,4.87,3.87c1.04,3.59,1.03,7.18,0.89,10.79c-0.31,8.26,0.96,16.58-0.92,24.79
		c-0.37,1.61-0.11,3.24,1.36,4.51c9.21,7.98,9.06,17.93,5.81,28.45c-3.9,12.62-10.62,23.74-18.41,34.27
		c-5.77,7.79-13.13,14.07-19.96,20.83c-4.04,4-9.63,4.54-15.81,4.58c0.47,6.05,3.11,12.7-3.14,16.41
		c-0.19,5.88,0.24,11.02-0.59,16.35c-0.94,6.02-0.47,12.3-0.22,18.46c0.14,3.38-0.82,6.54-1.33,9.75c-0.33,2.06-1.34,5.3-5.01,3.24
		c-1.2-0.68-1.75,0.4-2.53,0.92c-3.48,2.34-6.95,2.79-10.52-0.63c-2.58,4.43-6.6,4.94-10.87,4.34c-3.22-0.45-5.58,1.73-8.43,2.39
		c-2.48,0.58-4.75,1.32-6.99-0.46c-1.67-1.32-3.26-1.26-4.93,0.1c-0.87,0.72-2.15,1.88-2.9,1.66c-6.84-2.02-13.58,2.93-20.48,0.05
		c-2.12-0.88-4.67,0.1-6.85,1.23c-2.62,1.35-5.17,1.34-8.05,0.25c-3.18-1.21-6.51-1.92-10.07-0.38c-2.05,0.88-4.83,0.58-6.65-0.89
		c-4.04-3.27-8.1-1.55-12.13-0.5c-1.32,0.34-2.73,1.05-3.78,0.3c-3.62-2.57-7.53-2.22-11.56-1.74c-2.67,0.32-5.43,0.16-7.37-1.97
		c-1.86-2.03-3.49-0.12-4.95,0.22c-4.87,1.17-6.29,0.24-6.68-4.55c-0.82-10,2.19-19.08,6.09-28.03c3.73-8.57,8.84-16.33,14.13-23.94
		c2.25-3.23,5.53-5.74,8.25-8.66c1.23-1.31,2.72-1.02,4.17-1.03c7.33-0.02,14.66,0.03,22-0.04c2.13-0.02,4.24,0.11,6.42-0.39
		c6.96-1.59,11.24-5.43,14.41-12.12c8.06-16.97,15.48-34.15,20.82-52.16c3.75-12.63,7.17-25.33,10.01-38.23
		c2.02-9.18,4.85-18.22,6.7-27.48C470.73,1191.01,473.06,1191.49,475.79,1192.07z M594.23,1009.75c4.93-0.35,8.87-2.49,12.98-3.93
		c6.75-2.36,13.48-5.02,19.75-8.42c12.44-6.74,24.19-14.58,35.04-23.76c8.87-7.49,16.91-15.69,24.09-24.81
		c8.17-10.38,14.3-21.89,18.92-34.16c5.86-15.58,10.05-31.51,9.1-48.48c-0.41-7.4-1.28-14.73-1.95-22.09
		c-1.08-11.77-3.24-23.3-6.27-34.65c-1.86-6.99-3.87-14.04-7.47-20.32c-3.42-0.24-6.6,0.4-10.32-1.7c0.05,5.73-6.27,9.22-3.14,15.29
		c0.33,0.65,0.13,1.67-0.05,2.47c-1.27,5.72-2.57,11.43-3.91,17.12c-2.93,12.42-7.39,24.37-13.16,35.64
		c-5.13,10-9.67,20.28-14.67,30.33c-7.04,14.15-13,28.85-19.95,43.05c-7.39,15.1-16.24,29.38-26.1,43.01
		c-0.13,0.17-0.48,0.18-0.62,0.23c-0.79-0.45-0.06-1.69-1.28-1.92c-0.66,4.99-5.81,8.93-3.35,14.68c0.1,0.24-0.55,0.77-0.81,1.19
		c-2.86,4.61-4.45,9.73-6.22,14.82C594.07,1005.5,594.06,1007.44,594.23,1009.75z"/>
	<path fill="#1A1A1A" d="M773.95,302.94c12.45-3.33,25.05-5.22,33.4-15.88c4.93,1.78,9.38,4.21,14.29,5.32
		c5.33,1.2,5.94,5.57,6.27,9.73c0.56,7.09-0.18,14.15-1.45,21.17c-0.9,4.97-1.3,10.12-3.58,14.62c-1.12,2.22-1.37,4.14-0.43,5.99
		c2.8,5.47,4.4,11.47,6.15,17.18c3.13,10.2,8.58,19.27,12.18,29.2c4.65,12.8,9.47,25.49,12.22,38.87c0.82,3.99,1.9,7.94,2.38,11.97
		c0.33,2.81,0.01,5.81-1.53,8.34c-10.26,16.85-20.4,33.79-35.61,46.87c-2.46,2.12-3.23,4.51-3.36,7.76
		c-0.24,5.88-1.1,11.75-1.97,17.58c-0.37,2.48-1.47,4.24-4.77,4.58c-7.48,0.77-14.96,1.66-22.42,2.68
		c-5.28,0.72-10.74,0.18-16.13,0.19c-10,0.01-20-0.11-29.99,0.06c-3.68,0.06-7.06-1.94-10.86-0.85c-2.32-4.73-2.28-9.73-3.53-14.39
		c-0.72-2.67-1.54-5.33-2.37-7.95c-1.08-3.41-3.17-5.67-7.12-7.22c-11.26-4.41-22.84-6.18-34.7-5.47
		c-5.26,0.32-10.53,0.63-15.81,0.85c-3.92,0.17-6.73,2-8.2,5.88c-2.25,5.93-4.53,11.87-6.68,17.82c-1.09,3.02-2.59,3.18-5.05,3.29
		c-9.96,0.47-19.61-1.49-29.26-3.55c-5.24-1.12-10.61-1.68-15.87-4.05c-0.15-3.13,0.98-6.23,1.38-9.41c0.1-0.81,0.38-1.6,0.47-2.41
		c0.73-6.37-0.45-11.6-5.85-16.24c-10.44-8.97-17.07-21.01-24.25-32.57c-3.82-6.16-6.47-12.77-9.19-19.41
		c-0.89-2.18-1.07-4.39-0.54-6.3c2.97-10.62,5.87-21.24,10.39-31.42c4.56-10.26,9.85-20.2,13.87-30.67
		c5.55-14.45,11.19-28.84,18.42-42.56c0.86-1.63,1.13-3.34,1.23-5.2c0.18-3.43,1.37-6.07,5.2-7.38c7.43-2.55,14.15-6.63,20.78-10.84
		c8.02-5.1,14.85-11.45,20.5-19.06c2.4-3.24,11.75-5.62,15.15-3.63c0.53,0.31,0.93,0.94,1.23,1.5c4.92,9.26,14.01,12.8,23.09,16.92
		c-1.27,5.26-6.28,8.56-7.55,13.88c4.28,10.35,8.77,20.84,13.85,31.06c1.6,3.22-0.14,5.84-1.01,8.44
		c-4.35,12.95-8.63,25.92-12.26,39.09c-2.42,8.78-4.76,17.58-7.01,26.41c-1.49,5.86-3.18,7.43-9,7.35
		c-13.43-0.2-26.84-1.6-40.29-0.95c-1.53,0.07-4.08-0.99-3.53,2.57c3.89,0.81,7.87,0.38,11.82,0.38
		c15.11-0.03,30.18,1.09,45.29,1.27c9.33,0.11,18.79,0.68,28.09,1.89c11.06,1.44,22.17,2.35,33.23,3.64
		c10.74,1.25,21.44,2.77,32.14,4.27c2.9,0.4,5.75,1.13,8.63,1.69c2.12,0.41,4.24,0.51,6.27-0.08c0.58-1.84-0.02-2.42-1.79-2.69
		c-5.64-0.86-11.23-2.07-16.87-2.92c-9.53-1.43-19.08-2.77-28.65-3.96c-2.92-0.36-2.8-1.25-2.66-4.08
		c0.55-10.53,2.81-20.79,4.42-31.13c1.07-6.91,2.34-13.82,3.59-20.72c1.02-5.6,1.65-11.38,2.01-17.06c0.22-3.45,2.02-5.56,3.68-7.74
		c3.98-5.23,8.51-10.04,12.77-15.05c3.51-4.13,7.08-8.22,10.38-12.51c1.54-2,2.02-4.35,0.44-6.88
		C776.56,308.64,775.5,306.04,773.95,302.94z"/>
	<path fill="#1A1A1A" d="M488.23,1022.19c-4.04,3.46-3.69,8.76-5.97,12.84c-2.03,3.63-3.05,7.87-5.09,11.61
		c-2.24,4.1-3.12,8.57-3.12,13.22c0,9.33,0.02,18.66-0.02,27.99c-0.01,1.63,0.36,3.32-0.49,5.04c-14.5-3.62-29.16-6.9-43.08-12.33
		c-15.47-6.04-31.02-11.84-46.74-17.13c-16.49-5.55-33.27-10.31-50.25-14.09c-10.82-2.41-21.81-4.1-32.85-5.56
		c-6.55-0.87-13.12-0.16-19.66-1.57c-5.43-1.17-11,1.49-16.46,0.82c-0.55,1.82-0.49,2.89,1.21,2.93c2.16,0.05,4.51,0.57,6.46-0.07
		c5.32-1.74,10.39-0.51,15.53,0.51c-1.2,11.02-19.5,29.36-30.4,30.26c0.17-3.19,2.86-6.01,1.38-9.41c-4.1,0.02-6.12,3.62-8.79,5.69
		c-16.05,12.45-33.64,21.91-52.99,27.95c-10.33,3.22-20.92,5.37-31.88,5.13c-6.43-0.14-12.86-0.03-19.71-0.03
		c1.3-2.6,3.61-2.36,5.27-2.91c5.32-1.74,10.35-4.09,14.87-7.3c2.72-1.93,5.33-4.49,4.34-8.71c-3.09,0.17-3.27,3.17-4.75,4.7
		c-2.42,2.5-4.96,3.95-8.31,3.17c-5.9-1.38-11.68-0.78-17.62-0.11c-4.89,0.55-9.71,1.31-14.56,2.07
		c-10.43,1.63-18.57,7.27-26.62,13.6c-7.22,5.68-12.99,12.39-14.92,21.24c-2.52,11.55-1.64,24.06,9.05,29.81
		c1.18,0.64,1.88,2.17,2.79,3.28c-8.45,0.93-16.47-1.45-23.79-6.17c-1.1,1.52-1.42,2.48,0,3.31c1.41,0.82,2.69,2.28,4.16,2.5
		c4.95,0.73,7.56,4.17,9.6,8.01c1.29,2.43,3.77,3.71,5.28,6.64c-4.69-1.69-9.02-2.98-13.11-4.79c-8.64-3.83-17.26-7.8-24.93-13.4
		c-15.23-11.11-25.91-25.15-29.06-44.36c-1.8-10.97-0.53-21.6,1.38-32.33c0.44-2.5,3.51-4.07,2.16-7.65
		c-7.97,5.16-15.35,10.53-21.11,18.02c1.25-8.1,4.06-15.44,7.95-22.44c3.34-6.01,6.88-11.84,11.21-17.22
		c6.1-7.58,12.5-14.76,19.97-21.13c9.5-8.1,19.24-15.77,29.74-22.5c9.2-5.9,18.9-10.97,28.27-16.58
		c11.97-7.17,25.14-10.69,38.5-13.57c12.51-2.7,25.31-2.26,38.05-2.21c11.56,0.05,22.9,1.89,34.14,4.2
		c13.56,2.79,26.73,7.02,39.75,11.75c10.73,3.9,21.17,8.46,31.52,13.27c0.85,0.4,2.33,0.54,2.5,2.46
		c-10.76,1.04-21.15,3.56-31.82,5.7c0.22,2.24,1.53,3.04,3.35,2.5c9.73-2.87,19.79-4.2,29.74-5.58c8.93-1.24,18.02-1.77,27.05-2.45
		c19.03-1.44,38.05-2.15,57.1-1.74c13.21,0.28,26.46,0.7,39.58,2.08c16.72,1.76,33.41,3.83,49.9,7.51
		c6.13,1.37,12.58,2.51,19.02,2.31C483.44,1020.91,485.6,1022.71,488.23,1022.19z"/>
	<path fill="#1A1A1A" d="M720.62,807.21c11.52-12.65,18.52-27.64,23.31-43.78c0.44-1.49,0.66-2.57,2.19-3.46
		c17.99-10.57,36.01-21.11,53.83-31.97c10.19-6.21,19.65-13.51,28.84-21.16c4.99-4.16,10.21-8.07,15.88-11.48
		c3.46,6.3,7.14,12.48,10.32,18.91c6.87,13.87,13.09,28,18.03,42.71c5.61,16.68,9.91,33.7,13.71,50.83
		c1.84,8.28,1.96,16.92,3.34,25.31c1.09,6.62,1.25,13.34,2.75,19.92c0.76,3.33,0.77,6.89,0.97,10.28c0.86,14.4,1.87,28.83,1.1,43.26
		c-0.35,6.63-2.15,13.13-2.13,19.37c-1.77,1.02-2.68,0.17-3.36-0.23c-15.84-9.5-32.31-10.3-49.33-3.72
		c-17.06,6.6-28.3,19.41-37.45,34.66c-4.68,7.8-7.59,16.16-9.91,24.99c-1.82-0.98-2.72-2.68-3.99-4.12
		c-15.79-17.88-26.04-39.11-36.63-60.14c-4.78-9.48-8.22-19.49-11.7-29.49c-6.48-18.61-11.29-37.68-16.16-56.73
		C722.23,823.35,721.77,815.13,720.62,807.21z M788.18,768.28c-0.22,2.8-0.22,5.27,0.71,7.89c2.57,7.18,4.43,14.6,7.1,21.77
		c4.82,12.94,8.81,26.17,12.67,39.43c5.42,18.62,13.32,36.29,20.57,54.22c0.91,2.24,2.36,3.3,4.97,1.62
		c-1.48-3.64-2.8-7.12-4.31-10.52c-5-11.3-9.91-22.65-13.86-34.36c-4.2-12.46-7.75-25.13-11.81-37.64
		c-4.46-13.75-9.88-27.19-13.26-41.28C790.64,767.97,789.79,768.05,788.18,768.28z M859.47,860.88c3.61,0.41,2.58-2.21,2.46-3.64
		c-0.5-5.87-1.71-11.65-2.2-17.55c-0.52-6.17-2.14-12.24-2.65-18.41c-0.77-9.32-2.24-18.56-3.28-27.84
		c-1.35-11.98-3.63-23.87-5.88-35.72c-1.66-8.78-3.99-17.42-6.82-25.93c-0.73-2.19-1.59-3-3.69-2.52c-0.59,1.58-0.26,2.73,0.19,4.05
		c2.71,8.02,4.83,16.18,6.57,24.49c1.77,8.46,3.34,16.96,4.63,25.47c1.23,8.08,2.59,16.15,3.3,24.33
		c0.51,5.86,1.23,11.75,2.12,17.56c1.04,6.79,1.67,13.62,2.71,20.41C857.72,850.71,858.1,855.9,859.47,860.88z"/>
	<path fill="#1A1A1A" d="M800.39,984.45c0.85,1.75,1.71,3.5,2.55,5.25c1.66,3.49,2.84,6.8,2.26,11.04
		c-0.84,6.17,0.83,12.41,1.49,18.62c0.25,2.34,1.09,4.41-1.63,6.5c-1.76,1.35-2.53,4.57-2.86,7.06c-0.43,3.3-2.01,6.19-2.46,9.48
		c-0.54,4-3.62,6.76-6.66,8.84c-4.96,3.38-8.73,8-13.33,11.75c-17.87,14.54-36.94,26.93-58.65,34.95
		c-9.79,3.62-19.86,6.58-30.17,7.79c-7.32,0.86-14.71,1.6-22.04,2.45c-11.79,1.37-23.63,1.56-35.43,2.63
		c-9.59,0.86-19.31,0.04-28.97,0.27c-5.47,0.13-10.7-1.7-17.01-1.05c6-9.48,11.35-18.38,17.17-26.95c3.2-4.72,3.67-9.21,2.7-14.82
		c-1.64-9.5-3.91-18.8-6.14-28.16c-0.92-3.88-4.01-5.97-5.54-9.35c-1.94-4.28-2.15-8.52-2.63-12.9c-0.31-2.85,0.52-4.31,3.66-5.26
		c12.83-3.87,25.08-9.16,36.98-15.39c8.32-4.35,15.43-10.36,23.17-15.48c6.75-4.47,12.74-10.01,18.31-15.69
		c7.87-8.03,15.24-16.65,21.1-26.46c5.3-8.88,9.79-18.13,13.29-27.78c3.05-8.4,4.98-17.18,6.52-26.02
		c0.81-4.68,1.59-9.51,1.59-14.08c0-5.02,0.22-10.34-0.89-15.23c-1.03-4.56-0.91-9.14-1.53-13.67
		c-2.48-18.14-5.59-36.05-13.28-53.43c5.17-0.38,10.3-0.14,14.82-3.18c0.82,6.09-0.98,12.06,2.09,17.42
		c-1.92,3.91,0.03,7.78,0.01,11.65c-0.06,10.02,3.05,19.43,5.44,28.84c4.04,15.9,8.26,31.82,13.86,47.28
		c5.95,16.43,13.18,32.27,21.7,47.58c7.72,13.89,15.66,27.54,26.11,39.59c0.52,0.6,0.82,1.4,1.26,2.08
		C790.53,985.67,795.13,986.24,800.39,984.45z"/>
	<path fill="#1A1A1A" d="M563.6,698.69c4.84,1.72,7.7,5.03,11.01,7.57c9.59,7.37,19.17,14.75,28.83,22.03
		c7.44,5.62,14.64,11.56,22.28,16.93c4,2.81,8.07,5.52,12.14,8.22c2.4,1.6,3.88,3.66,4.2,6.62c0.42,3.9,1.75,7.6,3.06,11.27
		c3.52,9.83,10.53,16.8,18.83,22.72c5.47,3.89,11.32,6.99,18.04,8.84c-3.24,17.19-7.46,33.59-14.87,49.13
		c-6.61,13.86-13.28,27.69-19.8,41.59c-6.37,13.59-12.45,27.32-19.09,40.78c-5.42,10.98-12.12,21.23-18.67,31.56
		c-0.43,0.67-1.17,1.15-1.79,1.74c-5.82-10.08-11.38-20.15-19.23-28.68c-2.98-3.24-5.86-6.5-9.21-9.47
		c-8.04-7.16-17.38-10.53-27.67-12.62c-11.76-2.38-22.42,0.1-32.64,5.68c-3.01,1.64-5.81,3.68-8.22,6.18
		c-2.3,2.38-4.6,4.75-7.16,7.39c-2.42-4.57-2.1-9.12-2.42-13.33c-0.59-7.78-0.76-15.7-0.01-23.46c0.76-7.8,1.58-15.63,2.58-23.43
		c2.29-17.85,6.32-35.31,10.29-52.79c4.01-17.65,10.24-34.59,16.94-51.39c6.64-16.65,14-32.98,21.39-49.29
		C555.96,714.61,559.86,706.88,563.6,698.69z M587.57,731.88c-2.56-1.15-3.84-1.18-5.01,1.06c-5.88,11.29-11.31,22.79-15.51,34.81
		c-8.11,23.17-15.6,46.53-21.54,70.36c-3.18,12.75-6.35,25.5-9.5,38.13c1.23,1.06,2.34,0.87,3.52,0.52
		C552.22,827.38,563.09,777.41,587.57,731.88z M596.43,861.37c3.81,1.37,4.44-0.86,5.21-2.55c2.78-6.06,5.63-12.1,8.14-18.27
		c6.43-15.79,13.38-31.37,19.28-47.38c0.89-2.41,1.37-4.6,0.48-7.01c-0.71,0-1.58-0.15-1.65,0.02
		C618.14,811.42,607.33,836.24,596.43,861.37z"/>
	<path fill="#1A1A1A" d="M938.65,1166.52c-0.87,0.48-1.81,1-3.11,1.71c-1.53-3.78-3.56-7.24-4.29-10.95
		c-1.05-5.37-3.74-10.06-5.36-15.16c-0.93-2.93-3.34-3.77-7.45-3.08c-7.55,1.28-15.09,2.65-22.63,3.96
		c-2.81,0.49-4.42,2.77-4.8,7.09c-0.79,9.01-1.54,18.03-2.34,27.47c-5.92,2.03-12.39,2.63-18.8,3.35
		c-3.62,0.41-7.34-0.16-10.97,0.14c-3.24,0.27-4.74-1.17-5.88-3.95c-2.33-5.72-4.83-11.33-7.74-16.82
		c-3.33-6.29-7.7-11.78-11.99-17.24c-6.76-8.63-13.24-17.42-19.29-26.55c-4.07-6.15-9.04-11.61-13.45-17.5
		c-2.74-3.65-4.74-7.4-4.68-12.47c0.23-19.22,3.67-37.7,11.07-55.44c0.24-0.57-0.03-1.32,0.97-2.09c5.37,0.43,11.1,0.74,16.78,1.47
		c1.44,0.19,2.91,0.62,4.37,0.52c9.46-0.62,18.86,0.65,28.27,1.18c5.76,0.32,12.01,0.75,15.58,6.53c11-2.92,22.1-3.89,32.85-8.38
		c5.07,5.05,8.19,11.57,11.31,18.21c5.17,11,6.36,22.8,8.05,34.6c1.57,10.93,2.34,21.86,3.14,32.86c0.73,10.11,0.06,20.38,2.65,30.4
		C932.71,1153.39,935.6,1159.88,938.65,1166.52z"/>
	<path fill="#1A1A1A" d="M482.78,1140.14c-2.08,10.16-1.35,20.08-3.08,29.58c-2.6-2.2-2.65-2.2-2.65-5.43
		c-0.01-34.81-0.01-69.63-0.01-104.44c0-5.72,2.39-10.78,4.56-15.85c2.36-5.52,5.05-10.89,7.7-16.55c1.19,0.29,2.36,0.56,3.21,1.56
		c3.24,3.82,7.46,6.38,11.62,9.03c0.28,0.18,0.82,0.3,0.83,0.47c0.54,7.04,6.94,4.98,10.72,6.61c6.8,2.94,14.34,2.91,21.61,3.91
		c3.69,0.51,6.08-0.8,6.87-4.7c3.18-0.53,6.31,0.55,9.21,0.37c4.58-0.28,9.26-0.14,13.78-0.86c9-1.42,18.1-2.37,26.95-4.72
		c1.93-0.51,3.17,0.24,4.03,2.52c3.03,8,3.64,16.54,5.98,24.65c2.13,7.41-0.34,13.42-4.3,19.26
		c-11.35,16.75-21.36,34.34-32.09,51.46c-3.36,5.37-6.72,10.78-9.78,16.36c-3.41,6.24-6.18,12.67-5.87,19.95
		c0.12,2.93,1.59,5.75,0.67,9.14c-2.83,1-5.91,1.72-9.25,1.57c-3.49-0.16-6.99-0.03-10.49-0.04c-6.46,0-7.57-0.42-9.53-6.22
		c-3.29-9.7-7.79-18.96-10.48-28.86c-0.83-3.08-2.21-5-5.79-5.41c-6.16-0.72-12.22-2.26-18.46-2.49
		C486.84,1140.94,484.91,1141.23,482.78,1140.14z"/>
	<path fill="#1A1A1A" d="M857.34,429.09c9.49,0,18.8-0.03,28.11,0.01c4.24,0.02,8.56,0.53,12.02-2.98c1.92,4.67,3.86,8.97,5.46,13.4
		c0.93,2.59,2.44,3.62,5.14,3.59c8.66-0.09,17.35,0.31,25.99-0.17c4.42-0.25,8.81-1.14,13.79-0.65
		c11.12,33.08,15.39,67.46,18.53,101.8c-2.41,1.46-4.28,0.88-6.05,0.96c-9.93,0.47-19.84,1.53-29.8,1c-1.8-0.1-3.21,0.75-4.59,1.58
		c-12.11,7.23-25.95,9.41-39.19,13.26c-3.6,1.05-7.08,0.45-9.53-3.89c-7.07-12.5-13.79-25.11-19.54-38.32
		c-5.08-11.66-9.76-23.44-14.11-35.38c-1.83-5.01-1.84-9.13,1.93-13.51c4.13-4.81,6.38-10.97,9.78-16.34
		c4.3-6.8,4.53-13.93,2.19-21.34C857.21,431.3,856.97,430.56,857.34,429.09z"/>
	<path fill="#1A1A1A" d="M725.39,530.32c10.62,2.35,21.46,1.83,32.26,1.72c10.85-0.11,21.78,1.03,32.6-1.68
		c-0.32,12.63-3.28,24.85-5.3,37.21c-1.49,9.13-6.83,13.88-17.34,15.44c-10.2,1.51-20.42,2.94-30.67,3.97
		c-5.28,0.53-10.65,0.1-15.98,0.1c-6.5,0-13,0.13-19.49-0.03c-9.37-0.22-18.61-1.7-27.9-2.83c-16.41-1.98-32.43-5.58-48.3-10.04
		c-5.48-1.54-6.82-3.31-7.28-9.1c-0.46-5.68,1.3-11.17,1.04-16.8c-0.37-8.12,1.74-16.02,2.1-24.08c0.04-0.9,0.8-1.77,1.18-2.56
		c9.85,2.84,19.81,3.22,29.68,2.29c2.14-9.55,6.16-18.32,9.97-26.96c5.96-0.19,11.63-0.03,17.4-0.61
		c12.36-1.23,24.51,0.71,36.11,5.53c3.55,1.48,4.5,4.65,5.49,7.69C723.17,516.4,724.05,523.55,725.39,530.32z"/>
	<path fill="#1A1A1A" d="M859.76,1194.7c1.24,8.29,6.84,8.55,13.3,8.42c6.63-0.13,13.05-1.43,19.56-2.22
		c1.94-0.24,3.43-1.65,3.3-3.72c-0.19-3.05,0.86-5.8,1.42-8.85c14.93-1.66,29.61-5.56,45.06-5.4
		c10.97,20.13,16.99,42.39,27.71,62.54c10.66,20.04,20.18,40.66,30.25,61.31c-7.83,3.89-16.59,6.14-25.4,8.17
		c-5.11,1.17-10.28,1.97-15.56,2.09c-2.67,0.06-4.92-0.39-6.51-2.65c-3.16-4.49-7.39-6.35-12.85-5.41c-2.27,0.39-4.19-0.2-5.71-2.12
		c-3.27-4.1-7.66-6.01-13.25-5.99c1.38-10.01-5.91-16.09-10.37-23.21c-8.93-14.25-20.02-27.03-29.65-40.83
		c-2.3-3.29-4.87-6.67-8.07-9.35c-0.25-0.21-0.47-0.47-0.72-0.7c-3.83-3.57-7.85-8.98-9.59-13.58c-1.79-4.7-4.25-9.13-5.26-14.17
		C857.02,1197.04,857.07,1195.91,859.76,1194.7z"/>
	<path fill="#1A1A1A" d="M736.25,425.29c-18.47-1.47-36.83-2.93-55.58-4.43c-0.83-6.89,2.34-13.18,3.91-19.65
		c4.53-18.65,10.35-36.94,16.57-55.09c1.11-3.24,1.05-6.01-0.53-8.93c-4.2-7.75-7.34-16-11.11-23.95c-1.78-3.76-1.17-6.94,0.96-9.99
		c8.77-12.58,17.66-25.07,26.48-37.62c0.93-1.33,1.69-2.78,2.57-4.25c4.22-1.27,8.38,0.63,12.6,0.98c5.52,0.46,11,1.79,16.59,1.7
		c2.65-0.04,4.26,0.89,5.4,3.34c6.01,12.86,12.55,25.46,17.95,38.6c0.37,0.9,0.6,1.95,1.22,2.66c4.08,4.7,1.86,8.39-1.52,12.26
		c-7.56,8.66-14.96,17.46-22.32,26.28c-2.46,2.95-1.96,6.82-2.33,10.29c-0.88,8.3-2.14,16.51-3.61,24.72
		c-1.67,9.32-2.68,18.76-4.61,28.01C737.88,415.03,739.02,420.13,736.25,425.29z"/>
	<path fill="#1A1A1A" d="M431.51,1319.97c22.58-38.83,31.25-82.05,41.83-124.79c9.71-0.51,19.19-0.13,28.66,1.63
		c2.86,0.53,5.85,0.92,8.77,1.07c2.52,0.13,3.95,0.9,4.88,3.2c0.85,2.12,2.11,4.07,3.03,6.16c1.61,3.64,3.01,4.62,6.59,3.61
		c9.4-2.66,18.25-6.87,27.41-10.22c1.92-0.7,2.78-3.19,5.39-4.33c-0.29,11.71,0.77,23.06-1.1,34.36c-0.29,1.78-1.32,3.3-2.68,4.6
		c-12.76,12.21-23.71,25.92-33.71,40.46c-3.04,4.42-6.88,8.28-9.83,12.85c-4.01,6.22-6.62,12.63-4.75,20.19
		c0.23,0.92,0.22,2-0.36,2.93c-5.48-0.95-9.94,1.03-13.03,5.42c-1.55,2.2-2.43,3.68-5.35,2.05c-1.49-0.83-3.47-0.16-4.3,1.51
		c-1.14,2.31-3.63,3.59-4.57,5.77c-1.67,3.88-4.53,4.22-7.89,3.52c-9.72-2.03-19.65-3.06-29.16-6.05
		C438.26,1322.94,435.01,1322.3,431.51,1319.97z"/>
	<path fill="#1A1A1A" d="M624.03,577.12c49.69,13.79,99.26,17.5,150.14,7.59c-0.94,6.3-1.74,11.72-2.56,17.15
		c-1.19,7.91-2.73,15.78-3.5,23.73c-0.66,6.83-3.72,11.87-10.1,13.36c-10.62,2.48-21.24,4.91-32.12,6.28
		c-8.19,1.03-16.4,1.29-24.56,2.07c-7.13,0.68-14.13-0.02-21.06-0.48c-13-0.87-25.77-3.69-37.93-8.7c-3.16-1.3-6.24-2.81-9.45-3.99
		c-3.72-1.37-6-3.96-6.45-7.78c-0.67-5.67-0.76-11.41-1.47-17.08c-1.11-8.91-0.91-17.84-0.95-26.77
		C624.02,580.86,624.03,579.21,624.03,577.12z"/>
	<path fill="#1A1A1A" d="M656.18,688.18c8.32,1.52,13.6,7.57,20.67,10.5c10.93,4.53,21.6,5.81,32.93,2.08
		c5.73-1.89,11.44-3.68,16.78-6.56c3.56-1.92,5.89-1.17,8.13,2.12c4.59,6.74,9.18,13.48,13.81,20.27
		c-4.18,8.31-11.92,14.43-16.67,22.51c-5.58,9.49-10.28,19.64-12.77,30.54c-0.98,4.28-1.61,8.65-2.4,12.99
		c-3.35,2.6-7.24,3.36-11.41,3.45c-7.44,0.16-14.8-0.25-22.05-2.02c-13.07-3.19-21.05-10.9-24.4-24.36
		c-2.58-10.36-4.52-20.96-8.62-30.98c-1.48-3.61-4.04-5.94-6.53-8.51c-4.35-4.49-4.54-4.53-1.46-9.64
		C646.73,703.05,651.5,695.65,656.18,688.18z"/>
	<path fill="#1A1A1A" d="M553.54,559.28c-12.43-1.91-25.05-0.45-37.65-3.8c3.24-3.54,1.25-7.07-0.34-10.25
		c-4.6-9.2-8.24-18.8-12.45-28.15c1.43-3.29,5.08-4.14,7.16-6.68c1.06-1.29,2.11-2.17,1.38-4.27
		c-6.52-18.75-11.51-37.98-17.69-56.84c-1.2-3.67-3.13-7.1-4.74-10.64c-1.2-2.66-2.6-4.63-6.02-2.71c-1,0.56-2.54,0.14-3.85,0.81
		c-2.47-11.63-3.79-23.31-4.4-34.97c7.47-4.15,14.86-7.53,23.09-10.3c0,2.62,0.18,5.05-0.03,7.45c-1.1,12.31,4.87,22.16,11.21,31.76
		c6.49,9.83,14.86,18.09,23.22,26.33c9.42,9.29,18.64,18.78,28.12,28.01c4.23,4.11,5.09,8.64,4.74,14.47
		c-0.48,7.92-1.77,15.64-3.31,23.34c-2.17,10.85-4.59,21.65-6.95,32.46C554.77,556.54,554.15,557.7,553.54,559.28z"/>
	<path fill="#1A1A1A" d="M826.93,99.39c-14.02-0.44-27.9-2.19-41.78-1.14c-11.2,0.85-22.45,0.76-33.59,1.98
		c-11.73,1.29-23.5,2.22-35.22,3.71c-9.1,1.16-18.26,2.04-27.33,3.35c-7.73,1.12-15.58,1.71-23.2,3.7
		c-1.69,0.44-3.63,0.41-5.58-0.28c1.75-9.61,4.15-18.92,8.72-27.68c5.3-10.17,13.57-15.18,24.69-17.04
		c10.36-1.73,20.82-2.52,31.21-3.69c16.51-1.85,33.17-1.48,49.76-1.03c7.14,0.19,14.29,1.67,21.36,2.98
		c8.05,1.49,12.9,7.79,17.86,13.41C819.45,84.03,823.73,91.39,826.93,99.39z"/>
	<path fill="#1A1A1A" d="M1050.89,947.21c-3.26,1.87-26.45,5.05-32.55,4.47c-2.78-11.48-4.82-23.15-6.5-34.93
		c-1.85-12.97-3.45-25.96-4.98-38.97c-1.51-12.81-4.28-25.47-5.71-38.28c-1.04-9.29-2.3-18.55-3.27-27.86
		c-0.95-9.09-2.58-18.12-4.21-27.12c-1.13-6.26-2.23-12.52-3.13-19.12c10.28-2.6,21.16-1.55,31.67-3.33
		c3.21,8.11,9.1,46.93,8.55,56.57c-2.22,0.5-4.34,1.63-6.74,2.97c-0.11,6.42,1.34,12.88,2.16,19.32c0.79,6.24,1.84,12.54,3.07,18.54
		c0.37,0.27,0.5,0.44,0.64,0.45c7.93,0.61,7.77,0.63,9.12,8.42c2.17,12.53,4.76,24.99,6.81,37.53c1.37,8.4,2.17,16.9,3.13,25.36
		C1049.56,936.58,1051.37,941.79,1050.89,947.21z M1042.97,928.37c0.9-4.03-1.08-8.66-1.02-13.44c0.03-2.12-1.22-2.84-3.19-2.91
		c-5.12-0.17-10.07,0.67-15.01,1.93c-3.35,0.85-4.25,3.06-3.72,5.92c1.17,6.3,1.21,12.7,1.95,19.03c0.35,3.01,2.14,4.5,4.88,3.6
		c1.67-0.55,3.26-0.4,4.89-0.46c9.69-0.39,11.22-1.92,11.22-11.37C1042.97,930.17,1042.97,929.67,1042.97,928.37z M1011.78,818.91
		c2.28-0.46,4.4-1.79,6.91-1.95c1.85-0.12,2.49-1.49,2.17-3.22c-2.07-11.24-3.83-22.52-4.88-33.9c-0.2-2.13-1.37-2.86-3.32-2.78
		c-3.62,0.15-7.08,0.85-10.36,3.06c1.92,10.6,3.67,21.18,5.84,31.67C1008.66,814.28,1008.45,817.59,1011.78,818.91z"/>
	<path fill="#1A1A1A" d="M572.71,553.06c-3.06-1.93-5.75-4.14-8.82-5.45c-3.14-1.33-3.26-3.63-2.77-6.06
		c1.79-8.77,3.74-17.51,5.45-26.31c1.19-6.13,1.53-12.34,2.23-18.49c0.38-3.39-0.72-7.04-3.57-10.24
		c-5.39-6.07-11.26-11.53-17.17-17.06c-9.25-8.66-17.98-17.87-26.47-27.3c-1.76-1.95-2.77-4.52-5.31-6.15
		c4-11.23,8.44-22.19,14.37-32.91c4.77,0,9.76-0.1,14.73,0.04c2.8,0.08,4.63-0.77,5.84-3.46c1.94-4.3,4.34-8.38,6.31-12.66
		c0.96-2.08,2.14-3.02,4.5-2.96c3.91,0.09,7.83-0.1,11.53,1.58c-2.91,7-5.85,14.06-8.79,21.13c-2.45,5.91-2.86,12.37-4.84,18.36
		c-2.33,7.07,1.98,12.59,3.53,18.72c1.32,5.25,5.87,9.18,6.57,14.78c6.02,3.13,7.27,10.03,11.54,14.58
		c4.38,4.68,7.92,10.08,12.55,14.59c3.67,3.57,4.38,7.88,2.68,12.96c-3.92,11.75-8.21,23.36-13.58,34.49
		C580.28,541.34,577.24,547.56,572.71,553.06z"/>
	<path fill="#1A1A1A" d="M944.12,603.9c-4.38,2.04-8.2,3.83-12.03,5.59c-2.29,1.05-3.5,1.95-2.43,5.2
		c3.83,11.57,7.74,23.11,11.94,34.54c3.08,8.39,6.21,16.76,9.37,25.13c3.56,9.43,8.22,18.41,11.24,28.06
		c0.35,1.1,1.19,2.22,2.92,2.01c4.7-0.55,9.45-0.62,14.07-1.96c4.27-1.23,4.76-0.54,5.85,3.79c1.92,7.61,2.78,15.35,3.94,23.36
		c-5.14,0.76-9.99,2.25-15.05,2.4c-5.13,0.15-10.27,0.03-15.69,0.03c-1.45-8.76-2.81-17.21-5.88-25.33
		c-2.81-7.44-6.89-14.1-11.65-20.25c-9.81-12.69-20.93-24.24-32.29-35.56c-2.48-2.47-5.3-4.45-7.95-6.65
		c-2.53-2.09-3.51-4.43-3.5-7.49c0.01-9.49-0.36-18.99,0.12-28.46c0.38-7.53,1.65-15.02,1.88-22.58c0.05-1.56,1.59-2.55,1-4.25
		c10.2,2.19,19.97,4.52,29.96,5.58c3.12,0.33,4.51,2.72,6.02,4.66C938.87,595.45,941.26,599.56,944.12,603.9z"/>
	<path fill="#1A1A1A" d="M359.88,1377.32c3.39-13.1,8.47-23.96,15.16-34.06c3.07-4.63,6.07-9.34,10.28-13.13
		c1.56-1.41,3.01-2.25,5.21-2.2c6.32,0.15,12.65,0,18.97,0.07c4.11,0.04,7.58,2.53,11.64,3.08c5.16,0.69,9.9,3.05,14.79,4.79
		c4.19,1.5,6.15,4.34,7.09,8.4c1.84,7.92,2.9,8.91,10.93,8.62c3.71-0.13,7.12,1.29,10.78,1.2c1.19-0.03,2.73,0.61,3.17,1.89
		c2.29,6.62,3.95,13.38,4.11,20.66C434.56,1383.58,397.45,1383.21,359.88,1377.32z"/>
	<path fill="#1A1A1A" d="M791.04,133.37c12.26-2.78,24.43-2.85,36.23-5.41c6.56,11.15,12.36,22.27,17.95,33.54
		c1.67,3.37,2.22,6.66,1.68,10.02c-2.21,13.89-4.04,27.83-6,41.75c-1.19,8.48-7.34,14.09-16.89,11.05
		c-5.57-1.77-9.24-5.4-12.57-9.57c-1.33-1.67-2.6-3.42-4.17-4.83c-6.43-5.79-11.43-12.92-17.77-18.77c-1.23-1.13-1.5-2.41-1.51-3.98
		c-0.08-11.58,0.9-23.08,1.79-34.61C790.26,146.32,791.4,140.11,791.04,133.37z"/>
	<path fill="#1A1A1A" d="M437.68,414.35c7.64-1,14.58,1.85,21.82,0.57c2.24,10.88,3.99,21.44,5.65,32.05
		c2.09,13.35,4.86,26.59,8.68,39.57c2.34,7.98,3.3,16.31,5.67,24.24c3.07,10.27,6.07,20.66,11.54,30.02
		c1.29,2.21,0.98,4.08-0.3,5.91c-5.49,7.88-10.89,15.82-15.24,24.26c-3.86,0.37-4.66-2.91-5.75-4.91
		c-5.79-10.6-12.99-20.35-17.97-31.45c-2.95-6.58-4.91-13.24-4.63-20.33c0.39-9.98-0.85-19.86-1.27-29.79
		c-0.37-8.69-1.12-17.42-1.98-26.09c-1.21-12.17-2.13-24.45-5.34-36.35C437.87,419.6,439.44,417.08,437.68,414.35z"/>
	<path fill="#1A1A1A" d="M745.28,644.96c1.88,3.4-0.02,6.07-0.44,8.68c-1.21,7.52-2.44,15.04-4.6,22.43
		c-1.7,5.82-4.98,10.04-9.86,12.74c-10.03,5.53-20.51,9.47-32.27,10.52c-8.84,0.79-16.31-1.67-23.76-5.27
		c-7.41-3.58-13.63-8.48-19.16-14.9c-6.11-7.1-7.1-15.26-8-23.6c-0.43-3.99-1.11-8.07-1.26-12.67
		C679.29,653.65,712.38,651.85,745.28,644.96z"/>
	<path fill="#1A1A1A" d="M1004.14,710.66c-2.53-10.98-4.59-21.98-7.99-32.72c-4.82-15.18-9.16-30.5-15.22-45.27
		c-4.07-9.93-8.05-19.89-11.86-29.92c-1.23-3.23-2.98-6.17-4.35-9.31c-0.81-1.84-1.14-3.34,0.35-4.96
		c5.73-6.24,12.16-11.72,18.54-17.23c2.97-2.56,6.2-1.77,8.32,1.57c9.95,15.7,17.03,32.5,20.21,50.96
		c1.25,7.27,1.59,14.63,2.91,21.86c1.7,9.3,2.86,18.68,4.58,27.99c1.93,10.43,4.37,20.67,7.29,30.85c1.38,4.82,0.61,5.47-4.47,5.59
		C1016.52,710.21,1010.67,711.92,1004.14,710.66z"/>
	<path fill="#1A1A1A" d="M911.1,327.15c3.68,4.09,6.12,8.58,4.96,14.37c-0.26,1.3,0.66,2.12,1.92,2.48c1.82-0.45,0.33-2.49,1.57-3.2
		c1.69,3.77,2.53,7.64,2.57,11.86c0.03,3.49-1.7,4.9-4.51,5.36c-18.89,3.1-36.22-0.29-52.48-11.01
		c-12.18-8.04-21.41-18.31-28.02-30.99c-3.65-7.01-6.92-14.33-7.78-22.62c1.43-1.8,3.85-2.11,6.02-2.2
		c5.49-0.24,11.03-0.49,16.48,0.01c9.82,0.89,19.17,3.73,27.95,8.28c2.03,1.05,3.83,2.56,5.9,3.49c2.07,0.94,3.14,2.21,1.71,4.15
		c-1.13,1.53,2.44,3.65-1.05,4.57c-0.24-2.68-1.75-4.04-4.93-4.12c0.35,3.18,2.28,5.28,3.19,7.89c-0.05,0.16-0.08,0.48-0.24,0.7
		c-2.61,3.55-2.59,3.52-5.41-0.29c-1.61-2.18-2.76-4.78-5.48-6c-2.26,2.01-0.69,4.47,0.76,5.42c1.78,1.17,2.06,3.07,3.28,4.43
		c1.37,1.52,2.46,4.36-0.39,6.24c-5.19-1.59-5.27-9.49-12.34-9.92c2.11,5.76,7.02,8.62,9.56,13.44c-1.55,1.59-1.8,4.14-3.08,6.16
		c3.15,4.14,3.64-1.32,5.86-1.41c1.46,0.63,1.35,2.63,2.66,3.9c3.02-1.31,2.3-4.28,1.03-5.48c-3.3-3.08-1.01-4.58,1.32-6.69
		c1.86,2.96,1.39,7.41,5.71,8.76c1.59-2.07,0.98-3.84-0.59-6.01c-1.77-2.43-4.58-5.01-1.5-8.7c4.9,2.36,4.44,8.21,7.99,11.59
		c2.59-1.49,2.45-3.52,0.56-5.92c-2.31-2.92-2.57-6.95-5.2-9.73c-0.36-0.38-0.12-1.29,1.13-2.01c3.78,4.22,5.25,10.48,10.28,13.89
		c1.23-0.83,1.46-1.45,0.75-3.16c-1.8-4.38-5.83-7.27-7.36-11.78c-0.43-1.28-1.57-2.33,0.85-3.56c4.89,4.93,9.99,10.04,15.04,15.2
		c0.27,0.27,0.12,0.95,0.16,1.44c-1.17-0.35-2.24-1.49-3.71-0.44c-0.07,0.39-0.36,0.95-0.2,1.32c2.21,5.14,3.91,10.46,5.5,15.82
		c0.19,0.64,1.41,0.51,2.31-0.21c0.25-3.28,0.57-6.56-1.82-9.59C910.79,331.33,910.04,329.28,911.1,327.15z"/>
	<path fill="#1A1A1A" d="M1001.26,714.09c6.52-0.5,12.78,0.88,19.02-0.9c1.85-0.53,3.98-0.03,5.97-0.13
		c2.88-0.15,2.32,2.71,3.58,3.98c2.63,2.62,3.03,6.2,4.3,9.52c-14.23,2.12-28,4.35-41.16,7.67c-8.11-54.5-25.48-104.61-58.42-149.14
		c4.07-4.97,9.39-9.5,14.85-13.84c6.52-5.18,13-10.44,19.95-15.05c6.15-4.08,7.8-3.91,12.06,1.9c1.6,2.19,3.1,4.54,3.01,7.49
		c-7.72,5.98-15,12.53-22.01,19.42c-2.62,2.57-3.14,4.93-1.47,8.86c9.84,23.23,19.53,46.5,27.24,70.56
		C993.38,680.67,997.96,697.05,1001.26,714.09z"/>
	<path fill="#1A1A1A" d="M980.07,1364.58c1.98-7.09,4.01-14.1,5.89-21.15c0.83-3.1,2.28-4.85,5.87-4.52c3.1,0.29,6.05-1.4,9.29-1.01
		c2.06,0.25,3.25-1.33,3.83-3.21c1.87-6.05,3.71-12.11,5.63-18.4c1.29-0.65,2.99-0.31,4.62-0.27c7.96,0.18,15.9-0.02,23.78-1.09
		c3.91-0.53,6.57,1.23,8.38,4.07c7.1,11.13,15.01,21.74,20.93,33.61c1.49,2.99,2,5.78,1.47,8.53
		C1039.94,1367.68,1010.12,1366.47,980.07,1364.58z"/>
	<path fill="#1A1A1A" d="M574.79,316.1c-3.1,0-5.6,0.03-8.09-0.01c-5.37-0.08-8.27-4.09-6.17-8.94
		c8.55-19.68,22.51-34.03,42.74-41.61c11.38-4.26,23.38-5.3,35.45-4.35c5.96,0.47,10.85,3.33,13.72,8.89
		c1.4,2.71,0.37,5.08-1.24,7.3c-5.69,7.81-12.71,14.28-20.76,19.51c-7.67,4.98-16.1,8.58-24.5,12.16
		c-6.74,2.88-13.68,5.04-20.85,6.58C581.43,316.44,577.81,315.78,574.79,316.1z"/>
	<path fill="#1A1A1A" d="M422.83,344.73c1.05,4.23-1.38,7.96-1.83,11.99c-0.59,5.31,0.66,8.16,5.49,10.43
		c5.02,2.36,10.37,3.8,15.79,4.94c6.55,1.38,13.18,0.84,19.79,1.07c2.56,0.09,5.01-0.57,7.19-1.36c3.94-1.42,4.15-5.49,4.76-9.02
		c1.73-10.14,3.4-20.28,5.08-30.43c0.09-0.54,0.38-0.86,0.86-1.03c2.34,5.28,1.15,15.68-3.94,33.99c1.73,1.21,3.41,2.67,5.76,3.56
		c4.07-3.91,4.65-9.5,6.17-14.54c3.23-10.7,3.39-21.76,3.1-32.83c-0.07-2.78-0.36-5.61,1.4-8.57c-7.36-3.35-8.87-10.58-11.74-16.85
		c-0.7-1.52,0.85-2.84,1.86-4.09c1.61-1.99,1.88-5.75,5.74-4.69c2.63,0.72,4.28,2.71,5.59,5.21c2.2,4.21,4.93,8.18,8.49,11.35
		c2.25,2,3.27,4.28,2.58,7.02c-1.77,7.06-0.87,14.21-0.84,21.3c0.02,4.58-0.89,8.83-2.63,12.89c-4.14,9.61-7.34,19.52-9.19,29.78
		c-0.57,3.18-1.4,6.55-0.4,10.06c0.92,3.24,0.04,5.97-3.89,7.32c-2.86,0.98-5.8,2.1-8.35,3.93c-3.18,2.28-6.2,2.65-10.32,1.35
		c-6.81-2.15-14.01-3.24-21.26-3.41c-0.98-0.02-2.26,0.35-2.87-0.45c-3.71-4.87-9.91-6.6-13.77-11.44
		c-3.72-4.66-8.73-8.28-12.5-12.91c-3.89-4.78-4.72-11.03-5.8-16.93c-0.52-2.87-1.04-5.78-1.26-8.76
		c-0.38-5.13,1.16-8.86,5.09-12.11c2.09-1.73,3.64-2.93,6.44-1.49c2.27,1.17,4.87,1.68,7.26,2.46c0.61,1.4,0.35,2.75,0.34,4.06
		c-0.04,4.98-2.01,6.39-6.99,5.08c-4.04-1.07-4.72-1.09-6.63-0.17C419.56,343.91,419.56,343.91,422.83,344.73z"/>
	<path fill="#1A1A1A" d="M925.06,1330.4c9.57-1.39,16.36-10.21,13-18c4.75-0.84,9.13-1.22,12.32,3.44
		c3.81,5.56,9.77,4.73,14.98,3.95c9.15-1.37,18.31-3.04,27.04-6.45c2.58-1.01,5.01-2.32,7.64-3.31c3.33,1.62,4.22,5.4,6.98,7.53
		c-1.79,5.88-3.52,11.58-5.28,17.36c-5.11-0.02-9.76,0.67-14.38,1.88c-2.03,0.53-2.85,1.25-3.56,3.33
		c-2.74,8.03-4.11,16.44-7.39,24.81c-4.9-0.36-10.07,0.49-15.41-0.71c-3.97-0.89-8.29-0.29-12.46-0.23
		c-5.46,0.07-10.75-0.94-16.08-1.92c-2.11-0.39-2.88-1.08-3.65-3.16C925.45,1349.78,924.72,1340.39,925.06,1330.4z"/>
	<path fill="#1A1A1A" d="M514.84,551.59c-8.62,12.29-14.84,26.15-27.83,35.59c-2.47-2.68-5.02-5.52-7.67-8.27
		c-1.78-1.84-1.83-3.94-0.66-5.88c5.14-8.51,9.96-17.24,16.08-25.11c1.68-2.15,1.38-3.98,0.48-6.37c-2.81-7.47-6.8-14.43-9.28-22.06
		c-3.33-10.24-5.3-20.79-7.96-31.18c-2.53-9.93-5.29-19.8-7.25-29.87c-1.24-6.39-2.77-12.76-3.54-19.21
		c-1.07-8.93-3.05-17.7-4.53-27.12c-8.75,0.21-17.53-0.7-26.23-2.23c-1.22-5.06-4.56-8.95-6.18-13.92
		c13.95,0.12,27.78,1.43,41.74,5.5c-0.43,7.95,1.39,15.84,2.13,23.84c0.54,5.82,2.11,11.54,3.12,17.32
		c3.02,17.2,8.98,33.6,13.98,50.24c3.55,11.81,8.44,23.23,13.03,34.7C507.49,535.58,511.21,543.39,514.84,551.59z"/>
	<path fill="#1A1A1A" d="M835.08,116.74c-0.9,0.16-1.57,0.47-2.15,0.35c-12.86-2.76-25.75-0.21-38.55,0.31
		c-10.61,0.44-21.35,0.71-31.91,2.6c-4.18,0.75-8.54,0.65-12.79,0.91c-9.05,0.56-18.07,1.48-27.05,2.39
		c-10.74,1.09-21.49,2.26-32.22,3.59c-7.47,0.93-14.98,2-22.55,2.31c-3.73,0.15-7.41,1.55-11.71,0.51
		c0.3-5.26,1.73-10.29,3.25-15.24c9.78-1.07,19.25-3.11,28.81-4.13c9.46-1,18.86-2.49,28.33-3.43c7.63-0.76,15.33-1.22,22.92-2.66
		c3.84-0.73,7.91-0.78,11.78-0.9c7.78-0.24,15.46-1.67,23.28-1.32c7.26,0.32,14.48-0.98,21.78-1.06c9.14-0.1,18.16,1.45,27.29,1.27
		c2.9-0.06,5.58,0.73,7.08,4.6C831.91,110.08,833.75,113.2,835.08,116.74z"/>
	<path fill="#1A1A1A" d="M825.23,625.25c-12.68-2.47-25.27-4.93-37.75-7.36c-1.83-9.37-3.78-18.44-5.3-27.57
		c-0.71-4.29-0.81-8.73,1.9-12.65c4.14-6.01,4.38-13.24,5.74-20.01c1.7-8.47,3.55-17.01,3.24-25.68c4.19-2.64,9.05-1.12,13.43-2.87
		c3.14,12.6,5.91,25.08,7.79,37.85c2.2,14.92,6.56,29.48,10.15,44.17C825.5,615.49,828.36,619.88,825.23,625.25z"/>
	<path fill="#1A1A1A" d="M744.01,757.68c0-4.13-0.01-7.11,0-10.09c0.01-2.06,0.95-3.39,2.54-4.88c7.93-7.47,16.27-14.49,24.32-21.83
		c9.46-8.63,19.15-17.04,28.91-25.36c6-5.12,11.94-10.35,17.88-15.57c6.89-6.06,14.03-11.82,21.34-17.36
		c0.57-0.43,1.19-0.55,2.32-0.39c3.39,5.09,4.68,11.27,6.79,17.18c2.6,7.3-0.84,11-6.48,14.53c-8.73,5.46-16.48,12.3-24.59,18.63
		c-10.57,8.25-22.17,14.87-33.57,21.84c-10.85,6.63-22.3,12.25-32.74,19.54C748.82,755.25,746.7,755.9,744.01,757.68z"/>
	<path fill="#1A1A1A" d="M734,193.71c6.62-7.14,14.39-11.49,23.6-13.78c-0.1,2.39-2.58,1.87-3.14,4c9.32-0.28,17.46,2.85,25.18,8.25
		c-3.08,11.03-7.89,21.15-15.88,29.93c-12.09-3.77-24.02-1.61-35.95,0.61c-11.14,2.08-21.57,6.12-31.56,11.37
		c-3.02,1.59-6.18,1.18-9.24,0.96c-12.43-0.9-24.58-2.89-35.31-10.94c1.81-1.43,2.1-3.77,3.96-4.9c1.31-0.06,1.92,0.86,2.5,1.6
		c4.67,5.96,10.86,7.91,18.16,5.56c5.54-1.78,10.89-3.84,15.32-7.95c2.19-2.03,5.58-1.82,8.4-2.19c9.7-1.27,18.67-4.61,27.12-9.27
		c2.95-1.63,5.31-4.32,7.12-7.43C735.52,197.42,734.72,195.8,734,193.71z"/>
	<path fill="#1A1A1A" d="M558.69,1234.22c6.53,6.72,8.66,14.28,6.58,23.75c-3.07,13.99-10.79,25.39-18.61,36.8
		c-5.38,7.84-12.75,13.94-19.56,20.46c-3.64,3.48-8.81,4-13.82,3.68c-1.57-0.1-1.79-1.46-2.34-2.75
		c-4.88-11.29-2.1-21.44,5.07-30.48c7.72-9.74,14.97-19.81,22.57-29.64c2.61-3.38,5.47-6.63,8.58-9.56
		C551.23,1242.62,553.87,1237.44,558.69,1234.22z"/>
	<path fill="#1A1A1A" d="M914.73,1313.31c-11.63-7.12-22.09-14.4-31.59-22.9c-3.87-3.46-6.78-8-10.07-12.09
		c-5.15-6.4-8.9-13.63-12.01-21.18c-3.63-8.82-4.8-18.05-4.01-27.52c0.17-2.02,1.57-3.7,3.49-3.49c3.61,0.4,7.38,0.17,10.45,3.2
		c4.49,4.44,7.82,9.69,11.53,14.7c7.78,10.5,16.15,20.56,23.42,31.44c3.71,5.55,7.12,11.32,10.94,16.8c1.98,2.84,0.9,5.78,1.05,8.65
		C918.16,1305.22,916.6,1309.15,914.73,1313.31z"/>
	<path fill="#1A1A1A" d="M835.93,120.14c3.93,5.84,7.57,11.2,11.15,16.59c3.8,5.71,7.29,11.59,10.66,17.57
		c2.91,5.17,2.5,10.56,1.99,15.9c-0.19,2.06-0.71,4.18-0.73,6.32c-0.06,6.73-0.59,7.52-6.7,9.5c-1.22,0.4-2.5,0.63-3.81,0.96
		c-1.77-4.2-0.16-8.48,0.79-12.13c2.25-8.66-1.13-15.44-5.31-22.16c-4.88-7.86-7.85-16.79-13.69-24.12
		c-0.58-0.72-0.81-2.23-0.71-3.57c0.28-3.51-0.86-4.72-4.32-4.84c-5.96-0.21-11.69,1.58-17.53,2.34
		c-5.29,0.69-10.65,1.42-15.92,2.56c-3.64,0.79-3.71,0.48-6.56,3.54c-0.77,2.62,2.61,3.09,2.7,5.21c0.09,2.16,0.35,4.39-0.02,6.49
		c-2.13,11.87-1.3,23.98-3.31,35.92c-1.6-0.5-1.79-2.34-2.38-3.61c-6.17-13.31-12.25-26.67-18.2-40.08
		c-1.12-2.52-2.66-3.68-5.29-3.37c-9,1.06-18.13,0.3-27.1,1.92c-0.81,0.15-1.66,0.08-2.49,0.06c-11.75-0.25-23.36,1.71-35.08,2.2
		c-7.52,0.31-15.1,0.99-22.58,1.96c-6.86,0.89-13.77,0.64-20.77,2.18c1.49-3.85,4.9-3.55,7.44-4.12c2.98-0.68,6.17-0.77,9.27-1.09
		c11.74-1.24,23.45-2.71,35.18-3.93c8.16-0.85,16.39-1.53,24.55-2.38c8.8-0.91,17.68-1.11,26.42-2.69
		c4.01-0.73,8.23-0.66,12.29-0.85c6.27-0.29,12.5-1.13,18.78-1.35c12.2-0.42,24.37-1.65,36.59-1.99
		C826.27,118.91,831.05,120.66,835.93,120.14z"/>
	<path fill="#1A1A1A" d="M512.04,942.61c0-1.69,0.21-3.05-0.04-4.32c-1.18-6.03,1.81-9.63,6.8-12.23
		c8.69-4.52,17.63-7.88,27.69-7.07c5.24,0.42,10.12,2.24,15.54,3.44c0,8.34,0.28,16.65-0.06,24.94
		c-0.56,13.85,5.06,24.83,15.94,32.64c4.83,3.47,4.54,7.26,3.77,11.53c-1.75,9.76-5.09,19.18-6.67,29c-0.25,1.56-1.16,2.06-2.59,2.5
		c-12.64,3.94-23.48,10.62-31.46,21.41c-1.22,1.65-2.78,1.78-4.39,1.51c-7.38-1.25-14.87-1.88-22.13-3.92
		c-3.82-1.07-5.66-2.91-6.69-7.13c-2.05-8.38-4.89-16.71-11.92-22.61c-1.41-1.18-1.84-2.55-1.82-4.35
		c0.08-6.99-0.01-13.99,0.05-20.98c0.03-3.35,1.17-5.42,3.98-7.54c0,8.03,0.03,15.81-0.01,23.58c-0.02,3.76,0.66,6.86,3.3,10.13
		c4.71,5.83,7.89,12.84,9.5,20.2c0.64,2.94,2.26,4.5,4.32,4.45c5.17-0.14,10.15,1.45,15.29,1.24c1.86-0.07,2.96-0.59,3.79-2.43
		c5.51-12.22,16.19-17.88,28.23-21.5c3.76-1.13,6.41-2.11,6.79-6.87c0.38-4.8,2.2-9.47,3.27-14.23c0.68-3.01,1.82-5.89-2.82-7.47
		c-2.01-0.68-3.29-3.87-4.65-6.07c-4.1-6.62-8.88-12.93-10.15-20.93c-1.04-6.59-3.17-13.13-0.92-19.87c0.1-0.3,0.05-0.66,0.05-0.99
		c0.1-10.21,0.32-8.62-7.94-8.66c-8.49-0.03-16.99,0.05-25.48-0.04c-3.3-0.03-5.1,0.98-5.73,4.6
		C514.42,937.17,514.23,940.08,512.04,942.61z"/>
	<path fill="#1A1A1A" d="M475.33,1377.05c-0.75-7.65-1.68-14.39-4.1-20.91c-0.93-2.5-2.07-3.61-4.59-4.38
		c-4.8-1.45-9.62-2.1-14.56-1.74c-3.14,0.23-5.17-0.68-5.48-3.99c-0.81-8.59-6.42-12.45-13.93-14.91c-3.95-1.3-7.92-2.46-12.7-3.64
		c3.35-1.35,6.03-2.43,8.72-3.51c1.21-0.49,2.29-0.58,3.63,0.02c8.53,3.86,17.74,5.27,26.84,6.93c4.17,0.76,8.34,1.59,12.51,2.31
		c3.11,0.54,5.29-0.01,6.74-2.25c2.08-3.2,5.24-5.44,7.27-8.93c1.3,0.42,2.63,0.86,3.74,1.22c-0.07,11.73,3.08,20.09,17.58,18.42
		c0.34,9.54-0.87,19.28-2.12,28.87C495.13,1373.88,485.49,1375.92,475.33,1377.05z"/>
	<path fill="#1A1A1A" d="M605.99,518.88c4.63,0.91,8.7,1.06,12.66,2.6c-1.08,9.86-2.89,19.66-2.7,29.67
		c0.08,4.25-1.31,8.45-0.95,12.8c0.34,4.17-0.2,8.46,4.34,11.15c1.38,0.82,1.61,3.02,1.75,4.94c0.83,11.5-1.42,22.5-4.69,33.44
		c-0.73,2.45-1.96,3.87-4.03,4.37c-8.34,2.03-16.54,4.58-25,7.15c-0.5-7.28,1.47-13.99,3.06-20.78c3.24-13.78,6.68-27.52,9.45-41.39
		c2.33-11.67,3.48-23.56,6.03-35.21C606.46,525.09,605.99,522.35,605.99,518.88z"/>
	<path fill="#1A1A1A" d="M965.53,700.9c-12.85-28.6-23.04-58.03-33.37-87.63c4.48-2.71,8.89-5.04,13.77-6.26
		c13.1,19.07,33.13,68.8,36.91,91.7C977.17,699.26,971.78,701.71,965.53,700.9z"/>
	<path fill="#1A1A1A" d="M899.06,371.19c0.21-3.02-2.12-5.48-1.95-8.88c7.67-0.7,15.53,0.79,23.66-2.44
		c7.64,22.99,16.52,45.43,26.39,67.93c-10.36,0-20.27,0-30.65,0c-2.14-2.93-2.47-6.89-3.47-10.58c-0.5-1.84-0.72-3.74-2.12-5.19
		l0.14,0.14c-0.05-2.59-0.29-5.12-2.13-7.19l0.13,0.19c-0.3-3.94-0.88-7.79-3.13-11.18l0.13,0.19c-0.05-2.59-0.29-5.12-2.13-7.19
		l0.13,0.19c-0.63-4.63-1-9.34-4.13-13.18l0.13,0.18c-0.3-1.09,0.51-2.57-1.13-3.18L899.06,371.19z"/>
	<path fill="#1A1A1A" d="M535.65,989.16c-10.65-0.61-21.12-0.81-31.57-2.42c0.1-2.72,1.46-4.7,1.89-6.91
		c1.93-9.88,5.03-19.48,7.38-29.26c1.37-5.7,3.1-11.49,5.24-17.29c10.58,0,21.31,0,32.28,0c0.15,3.78,0.08,6.86-2.18,10.23
		c-2.16,3.21-2.47,7.65-3.66,11.52C541.59,966.19,538.47,977.43,535.65,989.16z"/>
	<path fill="#1A1A1A" d="M995.75,823.45c-2.84-1.57-4.41-3.2-5.25-5.41c-1.34-3.53-3.75-6.3-6.67-8.42
		c-1.46-1.06-1.97-1.97-1.85-3.54c0.45-5.58-1.66-10.63-3.41-15.7c-0.85-2.45-1.98-4.8-2.67-7.33c-1.05-3.83-2.46-7.46-6.76-8.45
		c9.81-11.88,11.51-25.5,10.35-40.16c2.71-0.43,5.73-0.9,8.7-1.37c2.02,4.79,2.69,5.4,7.22,3.78c4.95-1.77,10.24-1.8,15.15-3.63
		c1.42-0.53,2.76,0.1,3.27,1.53c2.81,7.78,5.54,15.6,8.31,23.43c-2.84,1.85-5.72,1.95-8.69,1.91c-7.58-0.12-15.09,0.76-22.56,1.99
		c-3.04,0.5-3.75,2.35-3.25,5.22c2.16,12.38,4.93,24.72,5.95,37.21c0.41,4.97,0.85,9.68,2.32,14.4
		C996.27,820.05,995.84,821.46,995.75,823.45z"/>
	<path fill="#1A1A1A" d="M784.61,187.69c0.02,2.57,1.74,4.04,3.19,5.81c6.81,8.32,15.21,15.19,21.65,23.88
		c-19.64,30.94-48.84,38.1-75.01,27.46c0.3-1.72,1.6-1.65,2.9-1.74c7.34-0.46,13.41-3.75,18.76-8.58
		c8.24-7.46,15.13-16.05,20.5-25.73C780.24,202.24,782.45,195.04,784.61,187.69z"/>
	<path fill="#1A1A1A" d="M568.54,668.12c6.87,6.85,13.35,13.7,19.81,20.57c11.05,11.75,22.7,22.94,34.14,34.31
		c6.22,6.18,13.01,11.76,19.17,18.02c3.02,3.07,4.5,5.91,2.46,9.99c-0.34,0.69-0.19,1.63-0.3,2.89
		c-11.45-7.32-22.48-14.74-32.78-23.25c-5.78-4.78-12-9.02-17.95-13.6c-8.41-6.48-16.76-13.05-25.14-19.57
		c-1.42-1.1-2.89-2.14-4.27-3.29c-1.84-1.54-5.16-2.29-5.06-4.94c0.14-3.65,0.28-7.75,2.74-10.69
		C564.01,675.41,565.47,671.52,568.54,668.12z"/>
	<path fill="#1A1A1A" d="M910.92,412.04c0.67,5.84,2.14,11.46,4.5,17.05c10.78,0,21.41,0,31.83,0c2.01,2.69,2.82,5.49,3.17,8.61
		c-14.3,3.13-28.94,2.31-43.86,2.37c-3.85-7.34-6.25-15.23-8.57-23.15c-5.61-19.14-9.74-38.7-16.54-57.72
		c4.22-0.23,7.93,1.96,12,2.24c1.24,0.08,2.11,1.71,2.65,3.28c0.76,2.22,0.7,4.92,2.96,6.47c0,0-0.14-0.18-0.14-0.18
		c0.3,1.09-0.51,2.57,1.13,3.18l-0.13-0.18c1.1,4.48,1.72,9.11,4.13,13.18l-0.13-0.19c0.05,2.59,0.29,5.12,2.13,7.19l-0.13-0.19
		c0.3,3.94,0.88,7.79,3.13,11.18l-0.13-0.19c0.05,2.59,0.29,5.12,2.13,7.19L910.92,412.04z"/>
	<path fill="#1A1A1A" d="M845.9,928.26c11.16-1.32,21.43-4.48,32.19-4.24c5.26,0.11,6.14,1.14,5.41,6.69
		c-8.35,1.49-16.9,1.6-25.26,3.29c-4.21,0.85-4.09,1.09-3.62,5.42c1.29,11.73,3.4,23.54-1.59,35.03
		c-2.62,6.02-5.94,11.62-9.87,16.82c-1.99,2.63-2.58,5-1.23,8.15c1.73,4.03,3.36,8.17,4.34,12.42c0.78,3.4,3,4.73,5.74,5.03
		c6.85,0.73,12.88,3.3,18.54,7.04c2.07,1.37,4.33,1.57,6.91,1.34c7.35-0.64,14.44-2.67,22-3.62c1.52,1.54,2.19,3.89,3.46,6.43
		c-6.01,2.3-12.2,3.52-18.32,4.92c-0.95,0.22-1.9,0.34-2.87,0.61c-4.62,1.31-8.53,1.18-13.1-1.97c-8.06-5.56-17.54-8.49-27.2-9.84
		c-3.14-8.82-4.49-17.89-8.13-26.13c7.41-9.61,12.23-20.01,13.83-32.06C848.68,951.85,848.05,940.32,845.9,928.26z"/>
	<path fill="#1A1A1A" d="M502.65,990.4c10.64,0.41,20.26,1.73,29.96,1.58c2.74-0.04,3.99,0.76,4.81,3.62
		c1.9,6.55,4.44,12.92,6.65,19.39c1.44,4.24,1.19,5.58-2.55,7.8c-5.11,3.04-7.22,8.18-10.45,13.17c-4.64,0.6-9.61-1.61-14.75-1.04
		c-1.51,0.17-1.75-1.44-2.38-2.65c-4.24-8.19-4.66-17.35-6.87-26.05C505.75,1001.02,504.63,995.8,502.65,990.4z"/>
	<path fill="#1A1A1A" d="M804.9,261.37c4.9-0.78,9.32,0.14,13.21,1.08c11.58,2.81,23.42,4.08,35.01,6.68
		c6.08,1.36,10.21,5.11,11.71,11.08c0.87,3.47,2.17,6.79,3.24,10.8c-4.89-0.61-9.35-2.07-13.97-2.37
		c-9.02-0.59-18.08-1.9-26.78,1.81c-1.14,0.49-2.12,0.91-3.25,0.22c-4.48-2.76-9.85-3.44-14.34-6.19c-1.11-0.68-2.63-0.97-2.67-2.57
		C806.89,275.17,805.56,268.55,804.9,261.37z"/>
	<path fill="#1A1A1A" d="M761.58,224.41c-10.78,14.41-23.79,18.66-33.2,14c-2.03,1.79-1.83,3.58-0.09,5.5
		c4.08,4.49,9.52,5.96,15.17,7.26c6,1.37,12.12,0.57,18.38,1.18c0.66,6.71-1.03,12.87-1.52,19.46c-0.81-0.49-1.19-0.58-1.24-0.76
		c-2.01-7.06-6.16-10.07-13.98-10.26c-6.72-0.16-13.68-0.83-20.38-2.57c-3.23-0.84-5.03,0.04-9.22,3.36
		c-0.15-0.23-0.35-0.43-0.43-0.68c-2.64-7.83-0.95-15.85-1.06-23.8c0-0.33-0.08-0.69,0.01-0.99c0.66-2.08-2.32-4.13-0.31-6.03
		c1.8-1.7,4.46-2.06,6.75-2.6c10.85-2.53,21.78-4.86,33.03-4.31C756.17,223.29,758.81,223.97,761.58,224.41z"/>
	<path fill="#1A1A1A" d="M819.76,39.34c-1.59-4.36-6.2-4.55-9.3-6.61c6.11-8.94,15.01-13.42,25.3-16.09
		c1.59,0.68,2.35,2.88,4.31,3.56l-0.14-0.14c0.12,1.69,0.75,3.13,2.13,4.18l-0.14-0.18c-0.41,1.88,1.25,3.37,0.97,5.43
		c-11.05,6.14-13.26,18.49-19.46,28.35c-3.61-2.99-5.3-8.18-10.32-9.76c-0.97-1.17-1.65-2.72-3.82-2.88
		c0.94,1.9,1.78,3.32,3.96,2.74c1.51,3.94,5.79,5.64,7.6,9.42c0.58,1.22,1.62,2.4,1.04,3.59c-2.19,4.46-3.61,9.39-7.25,13.05
		c-4.8-3.55-7.78-8.76-13.28-11.33c-1.87-0.87-3.49-1.55-5.47-1.52c-2.03,0.03-4.17-0.21-4.76-2.42c-0.67-2.5-0.24-5.14,2.41-6.36
		c1.23-0.57,1.98-1.74,3.28-2.08c5.39,2.96,10.9,5.73,15.72,9.69c-0.66-1.38-1.43-2.54-2.51-3.26c-4.12-2.78-7.84-6.46-13.35-6.3
		c0.1-2.39,2.14-3.62,3.4-5.21c3.01-3.8,5.76-7.86,9.41-10.94c4.32,0.17,6.65,4.03,10.41,4.93c0.48,0.67,0.71,1.74,1.96,1.23
		C821.81,38.64,820.65,39.28,819.76,39.34z M805.12,62.06c-0.69-0.95-1.19-2.32-2.78-1.51c0.64,1.52,1.66,1.75,2.92,1.37
		c0.91,2.59,2.82,4.02,5.19,4.9C808.87,65,807.95,62.35,805.12,62.06z M824.12,27.07c-0.69-0.95-1.19-2.32-2.78-1.51
		c0.64,1.52,1.66,1.75,2.92,1.37c1.91,3.34,4.43,6.19,7.15,8.87C829.44,32.5,828.63,28.24,824.12,27.07z M832.31,26.96
		c0.33-0.32,0.66-0.65,0.99-0.97c-1.53-1.25-2.35-3.21-5.05-3.28C829.6,24.12,830.96,25.54,832.31,26.96z M823.27,42.7
		c0.44,2.04,1.81,3.04,3.39,3.81C826.32,44.46,824.83,43.51,823.27,42.7z M794.09,56.34c0.96,1.54,1.85,2.23,3.98,1.13
		C796.45,57.4,796.02,56.11,794.09,56.34z"/>
	<path fill="#1A1A1A" d="M839.25,479.27c1.22,6.64,5.3,12.2,4.09,19.93c-1.26,8.02-2.11,16.27-2.28,24.47
		c-0.05,2.43-1.54,3.7-3.06,4.78c-7.81,5.55-15.74,10.93-23.93,16.58c-2.12-5.01-2.53-10.21-4.3-15.48c5.19-0.7,5.81-4.42,6.39-8.59
		c0.79-5.66,1.86-11.3,1.79-17.03c-0.03-2.72,0.92-4.27,3.17-6.04c6.21-4.9,11.61-10.7,16.04-17.32c0.37-0.55,0.61-1.18,0.92-1.77
		C838.47,478.98,838.86,479.12,839.25,479.27z"/>
	<path fill="#1A1A1A" d="M563.96,329.16c2.69-2.34,2.69-6.11,4.7-9.02c3.6,0.28,7.12-0.36,11.5-1.47
		c-3.63,7.79-5.7,15.15-8.94,22.16c-1.9,4.11-2.79,8.99-4.14,13.52c-3.67,12.36-8.63,24.21-14.09,35.85
		c-1.53,3.26-3.96,6.02-5.34,9.93c-7.72-0.51-15.64,1.04-23.85-1.33c1.92-3.95,3.68-7.59,5.49-11.31c1.88-0.74,3.87-0.29,5.84-0.32
		l-0.19-0.14c2.11,2.02,4.5,0.8,6.79,0.85c0.33-2.17,1.62-3.83,1.37-5.87l-0.13,0.18c1.81-1.27,2.1-3.18,2.13-5.18l-0.13,0.18
		c1.6-0.61,0.93-1.94,0.96-3.04c0.38-0.72,0.76-1.44,1.15-2.16c1.61-0.55,0.74-1.84,0.85-2.84c0.38-0.72,0.76-1.44,1.15-2.16
		c1.61-0.55,0.74-1.84,0.85-2.84c0.38-0.72,0.76-1.44,1.15-2.16c1.61-0.55,0.74-1.84,0.85-2.84c0.38-0.72,0.76-1.44,1.15-2.16
		c1.61-0.55,0.74-1.84,0.85-2.84c0.38-0.72,0.76-1.44,1.15-2.16c1.61-0.55,0.74-1.84,0.85-2.84c0.38-0.72,0.76-1.44,1.15-2.16
		c1.61-0.55,0.74-1.84,0.85-2.84c0.38-0.72,0.77-1.44,1.15-2.16c1.61-0.55,0.74-1.84,0.85-2.84c0.38-0.72,0.76-1.44,1.15-2.16
		c1.65-0.54,0.65-2,1.02-2.98l-0.13,0.18c1.81-1.27,2.1-3.18,2.13-5.18L563.96,329.16z"/>
	<path fill="#1A1A1A" d="M360.53,1388.81c-0.72-1.4-0.42-2.76-0.46-4.07c-0.05-1.47-0.01-2.95-0.01-4.2
		c24.68,3.76,49.22,6.04,73.64,3.77c23.98-2.23,48.34-2.88,71.6-10.64c1.77,3.59-1.38,6.44-0.18,9.42
		c-1.62,0.83-1.94-1.24-3.65-0.89c-1.3,0.37-2.04,2.29-3.86,2.99c-1.66,0.64-3.32,1.44-4.57,0.14c-2.35-2.45-4.16-0.79-6.11,0.32
		c-0.56,0.32-1.01,1.33-1.45,1.3c-7.44-0.63-14.12,5.56-21.84,2.35c-1.95-0.81-3.87-0.32-5.67,0.7c-2.6,1.48-5.22,2.95-8.25,1.03
		c-0.12-0.08-0.35,0.02-0.49-0.04c-4.11-1.74-7.43,3.88-11.78,1.13c-3.88-2.44-7.5,0.42-11.14,1.3c-2.02,0.49-3.79,0.87-5.69-0.2
		c-3.06-1.72-6.34-1.73-9.57-0.71c-2.7,0.86-5.22,0.66-7.56-0.8c-3.51-2.19-7.1-2.36-10.8-0.73c-2.24,0.99-4.29,1.09-6.44-0.34
		c-2.41-1.6-4.84-1.95-7.9-1.02c-2.78,0.84-6.26,1.45-8.73-1.56c-0.95-1.16-2.06-1.25-3.54-0.66
		C364.31,1388.1,362.36,1388.37,360.53,1388.81z"/>
	<path fill="#1A1A1A" d="M931.14,1364.77c7.66,2.05,14.9,1.84,22.12,2.34c13.27,0.92,26.6,0.01,39.79,1.08
		c13.63,1.11,27.22,0.58,40.81,0.68c9.34,0.06,18.64-1.43,27.78-3.35c2.36-0.5,4.52-0.26,7.05-0.59c0,3.68,0,6.95,0,10.67
		c-2.07-2.16-3.99-1.69-5.41,0.38c-1.89-0.47-2.47-2.12-4.1-2.92c-1.28,0.45-3.09,0.61-4.2,1.58c-2.02,1.76-3.73,1.38-5.89,0.45
		c-3.3-1.43-6.57-1.66-9.78,0.71c-1.73,1.28-4.18,2.06-6.06,0.73c-3.64-2.56-6.9-1.24-10.11,0.45c-2.3,1.22-4.38,1.23-6.52-0.1
		c-2.48-1.54-5.27-1.48-7.6-0.33c-4.19,2.07-7.9-1.1-11.81-0.53c-3.76,0.55-7.35,2.28-11.23,0.06c-2.51-1.44-5.32-0.5-7.88,0.37
		c-1.98,0.68-4.21,1.11-5.78,0.08c-3.24-2.13-6.2-1.51-9.28-0.09c-1.66,0.77-3.26,0.85-4.61-0.41c-2.51-2.33-5.63-1.77-8.09-0.88
		c-3.98,1.44-7.36,1.72-10.67-1.22c-1-0.89-2.13-1.03-3.63-0.59c-3.67,1.06-4.68,0.22-5.04-3.47c-0.06-0.66-0.03-1.33-0.01-2
		C931.02,1367.07,931.07,1366.26,931.14,1364.77z"/>
	<path fill="#1A1A1A" d="M1033.4,993.88c7.72,1.72,14.89,0.88,22.18-0.7c2.57,14.65,4.73,29.32,6.16,44.26
		c-6.46,3.36-13.29,3.2-20.36,1.76c-3.56-0.73-4.56-2.65-4.42-5.93C1037.48,1020.43,1034.87,1007.86,1033.4,993.88z"/>
	<path fill="#1A1A1A" d="M860.47,938.83c5.87-3.77,12.44-3.3,18.58-4.73c2.44-0.57,3.64,0.79,4.44,2.89
		c1.45,3.79,3.13,7.5,4.45,11.34c3.28,9.55,6.94,18.91,11.64,27.87c2.66,5.06,2.24,5.57-3.34,7.28c-1.5,0.46-2.91,0.48-4.37,0.53
		c-1.28,0.04-2.56-0.02-3.61,0.79C880.04,968.43,867.74,955.01,860.47,938.83z"/>
	<path fill="#1A1A1A" d="M778.86,587.66c0.35,7.89,2.11,15.05,3.7,22.21c0.49,2.23,0.83,4.63,1.01,6.73
		c0.38,4.47,3.28,4.84,6.28,5.43c11.35,2.22,22.71,4.43,34.1,6.42c3.49,0.61,5.4,2.67,6.5,5.62c1.11,2.98,1.8,6.12,2.8,9.63
		c-14.24-2.82-27.52-7.04-41.08-10.05c-4.6-1.02-9.17-2.16-13.7-3.48c-2.69-0.79-3.78-2.56-4.18-4.69
		c-1.39-7.3-2.14-14.71,0.09-21.95c0.72-2.33,0.19-4.61,0.8-6.84C776.02,593.64,776.37,590.4,778.86,587.66z"/>
	<path fill="#1A1A1A" d="M810.98,1018.07c0.39-6.69-0.2-12.74-1.28-18.7c-0.34-1.9,0.82-2.35,1.71-3.08
		c11.21-9.21,21.34-19.46,29.94-31.17c0.75-1.02,1.3-2.2,2.28-3.26c0.28,2.45,0.35,4.73-0.5,7.27c-2.9,8.68-5.44,17.47-12.04,24.32
		c-1.42,1.47-0.61,3.21-0.02,4.77c2.78,7.25,4.7,14.74,6.49,22.41C828.89,1019.56,820.45,1017.58,810.98,1018.07z"/>
	<path fill="#1A1A1A" d="M614.76,259.74c1.91-2.76,3.03-4.35,4.11-5.96c5.42-8.09,13.3-8.87,21.88-7.21
		c1.3,0.25,2.56,0.58,3.87,0.53c9.6-0.35,19.1,1.7,28.71,1.06c0.46-0.03,0.95,0.22,1.67,0.4c-1.39,8.07-4.61,15.51-7.28,23.12
		c-0.42,1.21-1.67,1.45-2.92,1.43c-2.65-0.05-5.3-0.01-8.37-0.01c-0.13-5.39-3.85-8.62-7.55-11.4c-3.67-2.76-8.25-3.81-12.97-3.59
		C629.2,258.42,622.41,257.21,614.76,259.74z"/>
	<path fill="#1A1A1A" d="M802.47,267.45c0.75,6.31,1.46,12.25,2.21,18.53c-8.39,8.89-19.85,11.37-31.3,13.73
		c-5.09-6.12-5.3-11.87-1.83-19.25c3.59-7.65,7.33-11.81,16.41-10.6C792.38,270.45,797.14,268.42,802.47,267.45z"/>
	<path fill="#1A1A1A" d="M759.75,21.35c1.89-5.41,7.31-6.93,11.23-10.09c0.73-0.59,1.77,0.47,2.67,0.74
		c1.83,0.55,3.17,2.37,5.31,2.04c0.51,0.92,1.23,1.64,2.16,2.15c-0.7,1.13,1.36,2.22-0.09,3.49c-6.12,5.37-11.14,11.7-15.82,18.31
		c-3.75-2.53-7.79-3.49-12.27-2.06c4.48-1.34,8.03,2.72,12.41,1.92c-1.23,4.94-3.36,9.5-5.76,14.04c-1.99-1.27-3.31-3.74-6.53-3.5
		c1.72,2.14,4.46,2.68,5.58,5.29c-0.57,1.23-1.24,2.67-1.89,4.05c-2.45,1.33-4.44-1.06-6.73-0.68l0.09,0.15
		c-2.06-1.83-4.6-2.07-7.19-2.13l0.14,0.14c-2.49-2.41-5.67-0.17-8.48-1.46c0.53-2.68,3.55-2.91,5.14-4.63
		c1.48-1.61,3.44-2.6,4.75-4.65c1.69-2.64,4.81-1.04,7.33-1.16c1.77,0.86,3.49,1.91,5.84,1.57c-1.9-1.87-3.85-2.06-5.98-1.43
		c-0.93-2.74-3.39-0.44-5.21-1.9c3.79-6.34,7.71-12.82,11.51-19.37c0.54-0.93,1.11-1.01,1.93-0.98c1.29,1.66,2.92,0.87,4.47,0.62
		c1.34,2.36,3.54,2.92,6.63,3.18c-2.47-1.67-4.38-2.91-6.76-3.05C762.89,20.62,761.29,21.21,759.75,21.35z"/>
	<path fill="#1A1A1A" d="M670.06,274.05c2.84-6.14,3.27-13.47,8.02-18.65c4.9,1.58,8.95,4.1,13.7,4.78c2.1,0.3,3.41,1.72,4.15,3.67
		c1.73,4.54,3.47,9.07,5.19,13.62c0.97,2.57,1.28,4.91-1.04,7.19c-2.18,2.14-2.97,5.46-5.64,7.33
		C683.86,289.39,675.53,283.8,670.06,274.05z"/>
	<path fill="#1A1A1A" d="M516.81,569.42c12.19,1.08,23.5,2.51,34.64,5.05c-2.48,6.88-6.43,12.27-14.31,14.13
		c-8.26,1.94-16.38,4.4-24.97,4.5c-2.3,0.03-4.15-0.77-5.81-2.23c-1.26-1.11-1.87-2.33-0.71-3.88c3.44-4.58,5.89-9.75,8.78-14.67
		C515.17,571.05,516.31,570.02,516.81,569.42z"/>
	<path fill="#1A1A1A" d="M872.46,1016.52c-2.72-4.02-2.4-8.77-3.34-13.13c-2.43-11.3-4.3-22.72-6.79-34.03
		c-0.88-3.99-1.72-7.93-3.05-11.79c-1.07-3.09,0.42-5.94,1.16-9.25c4.05,6.29,7.9,12.31,11.78,18.3c3.2,4.93,6.39,9.89,9.79,14.63
		c2.9,4.05,3.57,7.55,0.98,11.56C878.26,1000.14,876.08,1008.57,872.46,1016.52z"/>
	<path fill="#1A1A1A" d="M641.89,665.89c2.31,1.47,3.93,3.11,4.72,5.34c1.54,4.35,6.09,7.06,6.47,12.03
		c0.05,0.7,0.82,1.12,0.17,2.12c-5.25,8.2-10.37,16.48-15.5,24.7c-5.53-2.16-9.38-6.28-13.99-9.31
		C624.88,694.86,636.37,672.61,641.89,665.89z"/>
	<path fill="#1A1A1A" d="M745.4,667.56c7.03,11.44,15.39,20.64,21.57,31.79c-4.57,4.78-8.81,10.26-15.82,13.32
		c-5.82-6.69-10-15.03-15.9-22.07C739.43,687.57,744.18,676.23,745.4,667.56z"/>
	<path fill="#1A1A1A" d="M479.72,439.89c2.17-1.27,4.14-0.17,5.21-2.2c5.39,7.62,7.42,16.11,9.87,24.25
		c3.51,11.66,7.1,23.31,10.63,34.97c1.08,3.55,2.14,7.11,3.22,10.71c-1.56,2.66-4.3,3.84-6.87,5.56
		C492.9,489.09,485.31,464.85,479.72,439.89z"/>
	<path fill="#1A1A1A" d="M898.29,1018.83c-7.44,0.83-14.77,3.6-22.86,1.83c2.42-8.47,6.06-16.48,10.01-24.34
		c0.74-1.48,1.45-2.76,1.7-4.45c0.37-2.53,1.93-4.42,4.62-4.67c3.54-0.32,7.13-0.1,10.87-1.62
		C903.32,997.43,900.73,1008.12,898.29,1018.83z"/>
	<path fill="#1A1A1A" d="M551.08,361.99c-0.38,0.72-0.76,1.44-1.15,2.16c-1.45,0.6-0.7,1.85-0.85,2.84
		c-0.38,0.72-0.77,1.44-1.15,2.16c-1.45,0.6-0.7,1.85-0.85,2.84c-0.38,0.72-0.76,1.44-1.15,2.16c-1.49,0.64-0.63,2.03-0.96,3.04
		l0.13-0.18c-1.81,1.27-2.1,3.18-2.13,5.18l0.13-0.18c-1.84,1.1-1.68,3.32-2.65,5.03c-1.89,0-3.7,0-5.51,0l0.19,0.14
		c-1.08-2.24-3.52-0.13-4.98-1.84c10.1-22.25,19.81-44.93,31.6-66.74c1.16,1.14,3.36-0.25,4.61,1.4c0.47,3.42-2.69,5.83-2.39,9.16
		l0.14-0.14c-1.81,1.27-2.1,3.18-2.13,5.18c0,0,0.13-0.18,0.13-0.18c-1.6,0.56-0.9,1.91-1.02,2.98c-0.38,0.72-0.76,1.44-1.15,2.16
		c-1.45,0.6-0.7,1.85-0.85,2.84c-0.38,0.72-0.76,1.44-1.15,2.16c-1.45,0.6-0.7,1.85-0.85,2.84c-0.38,0.72-0.76,1.44-1.15,2.16
		c-1.45,0.6-0.7,1.85-0.85,2.84c-0.38,0.72-0.76,1.44-1.15,2.16c-1.45,0.6-0.7,1.85-0.85,2.84c-0.38,0.72-0.76,1.44-1.15,2.16
		C550.48,359.74,551.23,361,551.08,361.99z"/>
	<path fill="#1A1A1A" d="M869.22,1019.4c-5.97-2.7-11.09-5.08-16.79-5.73c-1.33-0.15-2.5-1.29-3.06-2.83
		c-1.62-4.41-3.37-8.78-5.06-13.17c-0.75-1.95,0.12-3.28,1.3-4.88c4.82-6.53,9.19-13.36,11.91-21.45c0.8,0.76,2.18,0.35,2.5,2.16
		c2.27,12.96,4.62,25.91,7.04,38.85C867.43,1014.38,868.25,1016.33,869.22,1019.4z"/>
	<path fill="#1A1A1A" d="M588.74,1022.77c-3.79,0-7.4,0-11.3,0c2-8.22,3.92-16.4,6-24.53c1.24-4.83,1.78-9.68,1.62-14.66
		c-0.06-1.88-0.79-2.8-2.43-3.81c-6.21-3.79-11.72-8.4-14.48-15.44c-1.85-4.72-2.69-9.67-3.25-15.24c3.42,2.17,4.07,5.64,5.65,8.26
		c6.27,10.39,15.13,18.25,24.24,25.87c2.05,1.72,1.78,3.53,1.06,5.07c-3.06,6.55-4.57,13.53-6.27,20.48
		C588.46,1013.36,589.65,1018.01,588.74,1022.77z"/>
	<path fill="#1A1A1A" d="M548.87,1015.21c1.45-13.96,3.53-27.9,5.76-41.87c6.12,4.2,8.27,11.13,13.57,15.39
		c1.5,1.2,2.03,2.39,1.27,4.66c-1.54,4.6-2.77,9.4-3.27,14.21c-0.34,3.28-1.83,3.81-4.47,4.54
		C557.58,1013.28,553.51,1014.69,548.87,1015.21z"/>
	<path fill="#1A1A1A" d="M767.53,281.78c-4.72-0.51-4.92-4.14-6.52-6.67c4.08-5.19,4.32-11.76,6.64-18.03c10.25,0,20.66,0,30.9,0
		c0.84-2.17,0.04-3.2-1.23-3.87c-2.61,3.67-5.65,0.08-8.39,0.74c-2.96,0.72-6.23,0.16-9.59,0.16c-0.45-2.38-0.57-4.37,0.3-6.63
		c5.82,2.39,11.83,2.45,17.4,4.51c3.22,1.19,4.78,3,4.84,6.98c0.04,2.89-2.18,5.56-5.3,6.09c-6.29,1.07-12.54,2.76-19.01,2.03
		c-2.73-0.31-4.32,0.73-5.29,3.29C770.84,274.17,768.22,277.42,767.53,281.78z"/>
	<path fill="#1A1A1A" d="M846.89,693.61c3.21-2.87,6.73-5.7,5.15-11c16.21,29.35,24.92,60.92,30.45,93.54
		c-3.14-9.33-6.23-18.68-9.44-27.99c-3.22-9.35-7.27-18.35-11.57-27.26C857.08,711.81,852.14,703.04,846.89,693.61z"/>
	<path fill="#1A1A1A" d="M704.38,274.85c-1.79-4.38-3.89-8.64-5.22-13.12c-0.78-2.64-2.39-3.61-4.55-4.35
		c-3.68-1.26-7.47-2.15-10.97-3.99c-6.05-3.18-6.62-5.23-2.45-11.53c8.11,4.25,17.28,4.99,26.06,7.2c1.71,0.43,2.35,1.15,2.83,2.83
		c1.15,4.01,1.01,8.39,3.26,12.08c0.31,0.52,0.29,0.86,0.02,1.27C710.95,268.93,709.43,273.43,704.38,274.85z"/>
	<path fill="#1A1A1A" d="M1030.38,783.65c1.76,5.64,5.88,7.98,12.72,7.98c-6.72,4.81-3.34,9.93-2.92,14.54
		c0.26,2.84,1.48,5.62,1.92,8.56c0.46,3.08,2.42,5.31,5.89,5.8c-4.19,4.34-4.52,15.25-0.07,18.73c3.32,2.59,3.53,4.98,2.09,8.33
		c-0.3,0.7,0.14,1.67-0.74,2.28c-1.53,0.11-1.1-1.19-1.39-2.04c-0.98-2.81-2.87-4.79-5.71-5.73c-3.75-1.24-4.95-3.59-5.43-7.68
		c-0.72-6.13-1.69-12.31-2.5-18.44c-0.78-5.84-1.59-11.7-2.18-17.57C1031.57,793.54,1030.35,788.78,1030.38,783.65z"/>
	<path fill="#1A1A1A" d="M732.69,144.29c0.85,3.88,0.01,7.68,1.2,11.41c1.66,5.22,6.05,10.08,10.5,10.41
		c5.06,0.38,10.51-3.39,12.48-8.72c1.52-4.1,1.69-9.8,0.27-14.58c1.22-0.76,2.13-1.33,2.9,0.73c1.16,3.08,0.99,5.92,0.05,9.06
		c-3.63,12.11-9.3,18.02-23.05,18.45c-3.23,0.1-6.49-0.1-9.8-0.57c-4.23-0.61-5.79-2.93-5.97-6.17c-0.27-5-1.38-10.14,1.63-14.96
		C725.24,145.58,728.31,144.03,732.69,144.29z"/>
	<path fill="#1A1A1A" d="M845.68,334.44c-4.73,7.81-9.9,15.05-14.62,23.93c-2.12-5.54-3.1-10.16-5.52-14.14
		c-0.68-1.12,0-1.78,0.23-2.69c2.48-9.79,4.05-19.76,5.52-30.52C835.67,319.51,839.95,327.35,845.68,334.44z"/>
	<path fill="#1A1A1A" d="M582.23,637.47c1.11-5.55,4.04-8.17,9.22-9.79c8.05-2.51,16.21-4.74,24.26-7.21
		c3.58-1.1,4.69-2.25,4.34-5.57c-0.08-0.77,0.11-1.58,0.24-3.09c4.14,5.76,1.9,11.86,3.3,17.72c-9.35,2.21-18.47,4.43-27.63,6.5
		c-2.7,0.61-5.32,1.54-7.96,2.29C585.61,639,583.96,638.87,582.23,637.47z"/>
	<path fill="#1A1A1A" d="M718.56,142.88c1.89,1.25,1.29,2.19,0.92,3.33c-2.26,7.07-1.76,14.18-0.61,21.42
		c0.53,3.34,2.59,4.72,5.03,5.32c8.45,2.07,16.96,2.05,25.11-1.37c7.91-3.32,11.61-10.14,13.98-17.91
		c0.92-3.01,1.04-6.12,1.27-10.14c4.56,3.45,5.52,8.45,6.39,12.46c0.99,4.58-2.82,8.44-6.38,11.28c0.34,2.03,2.68,1.52,3.13,3.11
		c0.06,0.44-0.1,0.69-0.49,0.66c-7.25-0.51-13.63,3.07-20.49,4.41c-5.95,1.17-11.91,0.94-17.77,0.3c-3.07-0.33-6.43-0.44-9.39-2.42
		c-1.55-1.04-2.9-2.42-2.87-3.66c0.08-3.87-1.72-7.37-0.75-11.6C716.75,153.22,716.92,148.1,718.56,142.88z"/>
	<path fill="#1A1A1A" d="M504.38,1314.73c4.65,5.06,8.07,10.88,5.65,18.51c-1.11,3.51-4.12,5.71-7.66,5.71
		c-3.63,0-6.65-1.29-8.27-4.79c-1.98-4.27-2.11-8.79-0.53-13.08C495.18,1316.69,498.86,1314.65,504.38,1314.73z"/>
	<path fill="#1A1A1A" d="M1017.15,732.23c1.62-0.11,2.8-0.04,3.9-0.28c7.19-1.58,8.14-1.12,11.55,5.23c1.78,3.31,2.9,6.86,4.1,10.38
		c0.91,2.69,0.3,5.5-2.06,7.05c-2.5,1.64-5.29,3.61-8.63,1.92c-0.77-0.39-1.67-0.6-2.06-1.82c-2.2-6.76-4.62-13.45-6.91-20.19
		C1016.84,733.96,1017.09,733.25,1017.15,732.23z"/>
	<path fill="#1A1A1A" d="M422.07,323.2c1.43,1.97,4.76,1.06,5.14,4.44c-3.75-0.44-7.02-3.18-10.56-0.2
		c-0.63-2.49-0.8-4.71-1.74-6.52c-2.26-4.39,0.53-6.92,3.22-9.31c2.54-2.25,5.38-3.98,9.19-2.52c3.32,1.28,6.82,2.09,10.2,3.21
		c2.54,0.84,4.89,1.98,4.5,5.33c-0.25,2.1-3.95,5.22-6.32,5.46c-3.51,0.36-6.96-0.22-10.18-1.36
		C423.55,321.05,422.83,321.48,422.07,323.2z"/>
	<path fill="#1A1A1A" d="M546.35,1006.92c-3.39-5.15-5.15-10.85-6.85-16.44c-0.74-2.43,0.79-5.63,1.56-8.4
		c2.64-9.49,5.41-18.95,8.43-28.39c0.7,2.54,0.41,5.11,2.33,7.35c0.83,0.97,0.83,2.98,0.48,4.95c-1.79,9.95-2.68,20.05-4.41,30.01
		C547.27,999.6,547.29,1003.3,546.35,1006.92z"/>
	<path fill="#1A1A1A" d="M924.23,1326.99c-3.01,0.64-5.04-1.42-6.15-4.1c-1.01-2.45-3.55-4.84-0.69-8.02
		c1.69-1.88,2.14-4.67,2.65-7.26c0.7-3.5,2.41-4.51,5.56-3.33c5.45,2.03,9.29,5.89,10.2,11.62
		C936.78,1322.03,930.81,1326.78,924.23,1326.99z"/>
	<path fill="#1A1A1A" d="M664.27,138.64c4.96,2.84,0.73,10.48,7.41,10.82c0.48,1.52,0.58,2.89,0.1,4.11
		c-1.1,2.75-1.08,5.33,0.05,8.11c1.79,4.41,1.8,9.04,0.89,13.98c-5.79-3.09-8.6-8.36-10.88-14.06c-2.79-7-3.91-14.36-4.92-21.74
		c1.95-1.18,3.73-0.68,5.78-0.54c0.47,6.2,0.7,12.4,2.47,18.34C665.4,151.53,663.42,145.54,664.27,138.64z"/>
	<path fill="#1A1A1A" d="M431.87,302.26c0.56,2.06,2.84,3.41,0.97,5.12c-1.05,0.96-4.43-1-5.11-3.13c-0.74-2.29-1.17-4.69-1.65-7.06
		c-0.26-1.28,0.32-2.44,1.45-2.89c3.05-1.21,5.7-3.11,8.52-4.71c1.23-0.7,2.54-0.75,3.78-0.1c1.84,0.97,3.91,1.07,5.83,2.22
		c2.71,1.63,6.43,2.4,4.74,6.37c-2.81,6.59-5.89,7.91-10.66,6.46C437.35,303.83,435.28,301.81,431.87,302.26z"/>
	<path fill="#1A1A1A" d="M847.56,338.91c12.27,28.65,24.44,57.04,36.67,85.61c-2.65,1.09-3.62-0.03-4.44-1.97
		c-4.21-9.89-8.52-19.73-12.75-29.61c-4.55-10.62-9.07-21.26-13.57-31.91c-2.6-6.14-5.01-12.37-7.76-18.45
		C844.84,340.69,845.29,339.9,847.56,338.91z"/>
	<path fill="#1A1A1A" d="M892.6,424.82c-0.71,1.09-1.66,1.58-3.08,1.02c-11.83-27.61-23.71-55.35-35.77-83.5
		c6.14,2.44,7.11,8.01,9.02,12.52c5.65,13.33,11.37,26.64,17.13,39.92C884.18,404.64,888.28,414.57,892.6,424.82z"/>
	<path fill="#1A1A1A" d="M876.43,425.62c-2.64,0.74-3.8,0.12-4.33-1.26c-3.66-9.57-7.95-18.87-12.03-28.26
		c-4.6-10.58-9.01-21.24-13.49-31.87c-1.9-4.49-3.57-9.09-5.77-13.43c-1.12-2.2-0.11-3.24,1.41-4.98
		C853.65,372.48,864.98,398.9,876.43,425.62z"/>
	<path fill="#1A1A1A" d="M653.45,188c-2.73,0.32-3.47-1.75-4.86-2.8c-2.35-1.78-3.93-1.25-4.55,1.58c-0.78,3.56-2.67,5.57-4.96,5.28
		c-2.7-0.34-4.5-3.2-4-6.87c0.51-3.73,1.7-7.29,3.74-10.51c1.77-2.79,6.63-3.59,10.59-1.74C655.1,175.6,656.69,181.49,653.45,188z"
		/>
	<path fill="#1A1A1A" d="M969.51,769.91c-2.2,0.3-3.22-0.85-4.37-1.55c1.31-11.06,2.92-21.95,5.36-32.76
		c5.78-1.04,6.5-0.55,6.47,5.35C976.91,751.2,974.49,760.86,969.51,769.91z"/>
	<path fill="#1A1A1A" d="M455.15,270.75c-7.13,0.65-7.13,0.65-9.85,5.29c-2.61,0.1-4.11-1.15-4.64-3.75
		c-0.93-4.64-1.98-9.27-1.59-14.05c0.23-2.77,2.97-6,5.38-6.05c3.02-0.07,5.08,1.06,5.94,4.49
		C451.57,261.35,453.45,265.85,455.15,270.75z"/>
	<path fill="#1A1A1A" d="M868.12,425.57c-3.69,1.39-4.21-1.4-4.94-3.1c-3.33-7.76-6.65-15.53-10.07-23.26
		c-4.67-10.54-8.97-21.24-13.45-31.86c-1.2-2.84-2.19-5.82-3.79-8.43c-1.44-2.36-0.17-3.25,1.73-4.58
		C847.76,378.04,857.87,401.65,868.12,425.57z"/>
	<path fill="#1A1A1A" d="M1044.5,786.08c-1.48,0.93-2.63,1.82-4.18,1.96c-2.42,0.22-4.17-0.12-5.41-2.8
		c-2.05-4.43-3.19-9.15-5.03-13.64c-1.1-2.68,2.13-6.63,5.75-7.42c2.56-0.56,5.92,2,6.34,4.83
		C1042.79,774.59,1043.62,780.17,1044.5,786.08z"/>
	<path fill="#1A1A1A" d="M663.71,234.14c4.89,1.66,9.72,2.33,14.64,3.28c0.45,0.57-0.37,0.92-0.55,1.46
		c-2.08,6.23-2.09,5.95-8.63,6.31c-6.5,0.36-12.82-1.27-19.28-1.15c-2.83,0.05-3.86-2.72-5.81-4.57
		C652.48,240.43,656.59,241.76,663.71,234.14z"/>
	<path fill="#1A1A1A" d="M560.86,381.25c7.71-21.81,17.07-41.99,25.57-62.69c1.85,2.24,1.97,4.33,0.89,6.87
		c-7.05,16.6-13.97,33.26-20.96,49.88c-0.7,1.65-1.61,3.21-2.35,4.85C563.41,381.48,562.42,380.85,560.86,381.25z"/>
	<path fill="#1A1A1A" d="M849.04,15.06c1.67-2.84,4.79-1.52,7.15-2.36c1.28-0.46,2.03,1.27,2.8,2.32c1.44,1.95,0.55,4.51,2.1,6.3
		c-2.6,2.11-5.88,1.88-7.84,3.87c-2.82-0.94-2.51-4.71-6.16-4.93c1.07,2.06,3.41,3,3.24,5.57c-1.54,0.63-3.56,1.06-5.07,2.33
		c-2.02-0.83-1.6-3.32-3.34-4.1c0,0,0.14,0.18,0.14,0.18c-0.01-1.75-0.04-3.49-2.13-4.18l0.14,0.14c0.24-1.62-1.23-2.49-1.97-4
		c3.75-1.42,7.18-3.06,11.08-1.27c-0.16,1.12-0.5,2.37,1.48,1.92C850.39,15.93,849.85,15.36,849.04,15.06z"/>
	<path fill="#1A1A1A" d="M893.26,412.79c-3.81-2.93-4.25-7.72-6.08-11.65c-4.86-10.44-9.05-21.19-13.55-31.8
		c-2.47-5.81-5.03-11.58-7.67-17.65c3.15,0.17,4.56,2.17,5.57,4.5c3.52,8.04,6.99,16.09,10.42,24.16c2.41,5.68,4.74,11.39,7.1,17.09
		c2.07,4.98,3.27,10.18,4.06,15.49L893.26,412.79z"/>
	<path fill="#1A1A1A" d="M614.98,711.06c-1.94-1.22-2.19-2.29-1.62-3.77c8.54-21.93,17.04-43.86,25.56-65.8
		c0.15-0.39,0.11-0.97,0.77-0.97c0.58,0.29,1.16,0.57,2.04,1.02C632.85,664.61,623.97,687.69,614.98,711.06z"/>
	<path fill="#1A1A1A" d="M571.19,382.31c-1.57-1.09-2.27-1.62-1.62-3.45c1.9-5.37,4.33-10.51,6.5-15.76
		c5.02-12.15,10.22-24.22,15.38-36.4c1.91,1.86,2.09,4.06,1.17,6.25c-6.55,15.56-13.16,31.1-19.78,46.63
		C572.46,380.46,571.86,381.23,571.19,382.31z"/>
	<path fill="#1A1A1A" d="M633.75,638.01c3.05,1.09,1.52,3.12,1.11,4.2c-5.84,15.32-11.86,30.56-17.83,45.83
		c-2.29,5.87-4.53,11.75-6.74,17.49c-1.41,0.26-1.8-0.48-2.1-1.19c-0.3-0.7,0.39-1.18,0.61-1.77c3.45-9.28,6.72-18.62,10.37-27.82
		c4.55-11.47,9.16-22.92,13.26-34.56C632.69,639.47,633.24,638.85,633.75,638.01z"/>
	<path fill="#1A1A1A" d="M628.44,635.26c1.39,0.84,1.59,1.61,0.92,3.25c-2.76,6.76-5.18,13.66-7.79,20.48
		c-4.82,12.58-9.7,25.14-14.55,37.72c-0.58,1.52-0.96,3.15-2.46,4.11c-1.33-0.8-1.52-1.57-0.85-3.21
		c2.76-6.76,5.18-13.66,7.79-20.48c4.82-12.58,9.7-25.14,14.55-37.72C626.62,637.89,627.07,636.3,628.44,635.26z"/>
	<path fill="#1A1A1A" d="M449.42,274.12c7.11,0.5,13.86-2.88,20.58,0.08c-0.25,2.3-1.57,3.67-2.25,5.66
		c-6.04,0.08-11.82,1.23-15.4,7.14c-1.49-0.49-2.99-0.99-4.84-1.61C448.12,281.74,448.73,278.16,449.42,274.12z"/>
	<path fill="#1A1A1A" d="M478.81,365.53c3.32-9.76,5.42-18.75,5.19-28.08c-0.22-9.22,0.92-18.47-0.79-27.43
		c5.08,2.41,4.8,6.93,4.93,11.76c0.37,13.91-0.82,27.49-6.04,40.53c-0.3,0.75-0.27,1.64-1.01,2.16
		C480.72,364.72,480.26,364.86,478.81,365.53z"/>
	<path fill="#1A1A1A" d="M624.99,631.95c-8.3,21.64-16.41,42.76-24.6,64.1c-1.65-0.59-2.63-1-1.69-3.4
		c7.26-18.61,14.31-37.3,21.51-55.93C620.94,634.83,621.81,632.76,624.99,631.95z"/>
	<path fill="#1A1A1A" d="M769.06,635.27c5.3,22.9,10.6,45.79,15.86,68.7c0.15,0.63-0.4,1.24-1.54,1.67
		c-2.14-4.2-2.14-9.04-3.52-13.48c-1.46-4.68-2.01-9.53-3.37-14.22c-1.35-4.67-2.36-9.45-3.44-14.2c-1.08-4.75-2.11-9.52-3.06-14.3
		c-0.91-4.57-2.95-8.99-2.58-13.73C767.96,635.56,768.51,635.41,769.06,635.27z"/>
	<path fill="#1A1A1A" d="M711.32,194.67c-4.28-5.67-8.75-10.11-15.46-12.49c2.57-3.41,6.05-5.01,8.55-7.67
		c1.26-1.35,2.67,0.19,3.76,1.25C712.51,179.97,713.8,186.84,711.32,194.67z"/>
	<path fill="#1A1A1A" d="M978.99,807.6c-2.33,0.7-4.2,0.79-4.9-1.45c-2.61-8.35-5.79-16.55-7.07-25.27
		c-0.11-0.77-0.23-1.66,0.4-2.42c2.39-1.25,3.78,0.12,4.34,2.15c1.83,6.73,5.12,12.96,6.56,19.86
		C978.84,802.99,978.61,805.26,978.99,807.6z"/>
	<path fill="#1A1A1A" d="M761.21,641.55c2.12-1.01,2.47-0.1,2.88,1.78c1.85,8.58,3.93,17.11,5.92,25.65
		c2.92,12.5,5.85,24.99,8.76,37.49c0.34,1.45,0.69,2.96-1.49,4.4C771.88,687.61,766.55,664.6,761.21,641.55z"/>
	<path fill="#1A1A1A" d="M788.76,701.17c-5.34-23.17-10.59-45.95-15.88-68.89c2.37-0.08,2.81,0.96,3.13,2.4
		c2.82,12.51,5.74,24.99,8.55,37.5c1.99,8.86,3.71,17.78,6.27,26.5C791.12,699.65,790.4,700.18,788.76,701.17z"/>
	<path fill="#1A1A1A" d="M617.21,634.64c-7.27,18.92-14.46,37.63-21.74,56.57c-3.56-1.49-1.31-3.7-0.8-5.2
		c2-5.84,4.29-11.58,6.5-17.35c3.78-9.87,7.5-19.76,11.42-29.57C613.32,637.24,613.71,634.62,617.21,634.64z"/>
	<path fill="#1A1A1A" d="M781.11,16.19c-0.93-0.51-1.64-1.23-2.16-2.15c-0.77-2.33-3.62-1.98-4.99-3.96
		c3.26-2.89,7.48-3.63,11.39-4.82c3.25-0.99,5.21,1.29,6.58,3.93c0.51,0.98,0.66,2.15,1.01,3.35c-2.39,2.76-6.49,2.87-8.75,5.79
		C782.97,17.48,782.04,16.83,781.11,16.19z"/>
	<path fill="#1A1A1A" d="M683.24,238.56c9.1,0.84,18.16-1.21,27.53-0.19c0.36,2.54,0.35,4.93,0.03,7.29
		C705.17,246.28,687.31,241.99,683.24,238.56z"/>
	<path fill="#1A1A1A" d="M794.4,695.93c-4.77-20.64-9.45-40.9-14.16-61.28c1.12-0.61,2.24-1.31,2.74,0.87
		c2.32,10.14,4.68,20.28,7.01,30.42c1.86,8.08,3.71,16.16,5.58,24.24C796.03,692.1,796.7,694.02,794.4,695.93z"/>
	<path fill="#1A1A1A" d="M709.41,60.09c7.34-4.63,14.69-9.27,22.64-14.28c-0.3,5.07-1.62,9.03-2.41,13.07
		c-6.87,0.75-13.48,1.48-20.09,2.2C709.5,60.74,709.46,60.42,709.41,60.09z"/>
	<path fill="#1A1A1A" d="M590.59,686.28c-2.02-0.85-2.26-1.49-1.71-2.93c4.29-11.06,8.42-22.17,12.63-33.26
		c1.44-3.8,3.15-7.5,4.43-11.35c0.62-1.88,1.3-2.96,3.86-2.37C603.4,652.99,597.04,669.52,590.59,686.28z"/>
	<path fill="#1A1A1A" d="M686.26,200.15c-1.82-7.63-6.8-12.3-12.63-16.99c4.32,0,8.65-0.04,12.97,0.02
		c1.57,0.02,2.05,1.26,2.63,2.53C691.18,189.95,690.12,196.16,686.26,200.15z"/>
	<path fill="#1A1A1A" d="M499.39,1145.47c3.43,0.62,1.88,2.85,1.45,3.8c-1.99,4.46-3.5,9.08-5.29,13.6
		c-3.29,8.29-6.55,16.59-9.59,24.99c-0.57,1.59-0.99,3.51-3.07,4.16C482.31,1189.08,493.31,1158.21,499.39,1145.47z"/>
	<path fill="#1A1A1A" d="M488.24,1191.68c4.63-11.96,9.22-23.75,13.76-35.56c0.82-2.12,1.27-4.4,2.24-6.44
		c0.58-1.23,0.81-3.64,3.95-2c-5.66,14.51-11.34,29.1-17.1,43.66C490.77,1192.15,489.68,1192.05,488.24,1191.68z"/>
	<path fill="#1A1A1A" d="M800.94,690.51c-5.11-14.08-13.02-50.9-12.06-55.01c3.17,6.18,3.4,12.54,5.05,18.47
		c1.69,6.09,2.74,12.37,4.11,18.55C799.35,678.47,801.9,684.23,800.94,690.51z"/>
	<path fill="#1A1A1A" d="M768.57,695.74c-2.56-1.64-2.96-4.51-3.4-6.85c-2.92-15.58-7.73-30.79-9.69-46.56
		C758.07,646.08,768.88,691.71,768.57,695.74z"/>
	<path fill="#1A1A1A" d="M585.62,681.68c-1.08-1.62-1.9-2.72-1.11-4.7c4.97-12.51,9.75-25.1,14.54-37.69
		c0.63-1.67,1.56-1.31,3.04-0.6C596.66,652.87,591.23,667.04,585.62,681.68z"/>
	<path fill="#1A1A1A" d="M466.88,282.67c-5.05,1.48-9.59,2.77-11.19,8.17c-0.97,3.27,0.56,8.8,3.57,10.9
		c3.21,2.24,9.08,2.13,11.76-0.06c2.98-2.44,4.22-5.76,4.97-9.32c0.24-1.17,0.2-2.32,1.5-2.87c2.69,4.09,1.2,7.96-1.53,10.99
		c-3.01,3.34-7.15,5.32-11.88,4.52c-7.09-1.2-9.57-3.96-11-11C452.02,288.85,457.55,281.12,466.88,282.67z"/>
	<path fill="#1A1A1A" d="M597.49,330.17c-2.73-4.21-5.83-7.77-7.52-12.64c4.76-0.78,8.98-2.83,13.59-3.99
		C603.71,319.7,600.11,324.55,597.49,330.17z"/>
	<path fill="#1A1A1A" d="M1051.18,816.73c-5.37,0.28-5.32,0.27-6.26-4.34c-1-4.9-2.11-9.78-3.17-14.66c5.4-0.99,5.32-0.97,6.77,3.32
		C1050.21,806.05,1049.78,811.33,1051.18,816.73z"/>
	<path fill="#1A1A1A" d="M494.91,1192.35c5.09-13.29,10.18-26.57,15.33-40.02c1.34,1.43,1.8,2.42,1.04,4.34
		c-4.58,11.63-8.91,23.37-13.26,35.09C497.4,1193.42,496.48,1193.09,494.91,1192.35z"/>
	<path fill="#1A1A1A" d="M805.77,685.98c-3.68-16.04-7.29-31.79-10.9-47.55c0.59-0.14,1.17-0.28,1.76-0.43
		c4.67,15.17,7.15,30.91,11.21,46.24C808,684.81,807.24,685.36,805.77,685.98z"/>
	<path fill="#1A1A1A" d="M721.79,142.7c5.47-3.18,10.65-8.17,16.47-9.07c7.23-1.12,14.91-2.14,22.88-1.31
		c-1.52,3.21-4.45,2.6-6.76,3.91c0.23-0.99,0.36-1.56,0.71-3.03c-10.91,4.62-22.82,4.09-32.77,10.45
		C722.14,143.33,721.96,143.01,721.79,142.7z"/>
	<path fill="#1A1A1A" d="M934.64,580.7c-0.73,0.98-1.32,1.77-2.66,2.12c-3.93-9.15-7.88-18.33-11.9-27.69
		c0.18-1.31,1.29-1.99,2.4-2.67C926.51,561.83,930.53,571.15,934.64,580.7z"/>
	<path fill="#1A1A1A" d="M771.69,57.76c5.13-3.48,9.03-7.1,13.98-9.33c1.5,3.64,2.81,7.25,2.2,10.97
		C782.56,59.38,777.63,58.6,771.69,57.76z"/>
	<path fill="#1A1A1A" d="M801.74,638.67c1.58,1.48,2.95,1.11,3.28,2.9c2.22,11.79,5.19,23.41,7.87,35.1c0.29,1.24,1.99,3.5-1.4,4.42
		C808.31,667.23,805.15,653.48,801.74,638.67z"/>
	<path fill="#1A1A1A" d="M938.06,577.58c-4.09-9.47-7.83-18.09-11.71-27.07c1.01-0.32,1.7-1.44,3.21-1.26
		c2.93,8.87,8.22,16.85,10.22,26.13C939.87,575.78,939.04,576.37,938.06,577.58z"/>
	<path fill="#1A1A1A" d="M676.24,174.92c-0.13-1.31-0.48-2.29,0.23-3.22c5.19,1.18,10.32,0.21,15.41-0.66
		c2.58-0.45,4.35-3.64,4.48-7.14c0.21-5.3-0.93-10.58,0.03-16.74c3.03,8.02,0.88,15.59,1.83,23.44
		C691.12,172.98,684.32,175.94,676.24,174.92z"/>
	<path fill="#1A1A1A" d="M915.67,555.93c3.96,9.21,7.67,17.84,11.43,26.59c-2.61,1.13-3.54-0.14-4.35-2.04
		c-3.06-7.19-6.16-14.37-9.35-21.51C912.35,556.65,914.73,557.3,915.67,555.93z"/>
	<path fill="#1A1A1A" d="M906.14,1144.1c4.28,12.52,6.56,25.51,9.84,38.62c-1.89,0.33-2.62-0.54-2.93-1.92
		c-1.62-7.14-3.26-14.27-4.91-21.39c-0.88-3.8-1.85-7.59-2.71-11.39C905.12,1146.66,904.82,1145.48,906.14,1144.1z"/>
	<path fill="#1A1A1A" d="M927.3,1180.98c-3.94-12.69-6.09-25.8-9.39-38.72c1.7-0.24,2.55,0.33,2.71,1.06
		c2.87,12.44,5.66,24.9,8.47,37.36C928.49,1180.78,927.9,1180.88,927.3,1180.98z"/>
	<path fill="#1A1A1A" d="M911.4,1143.37c2.21-0.81,2.31,0.29,2.65,1.81c2.23,9.99,4.61,19.94,6.94,29.9
		c0.51,2.16,1.03,4.32,1.54,6.47c-1.3,0.62-2.16,0.7-2.55-1.02c-1.61-7.13-3.33-14.23-4.98-21.34
		C913.79,1153.98,912.62,1148.75,911.4,1143.37z"/>
	<path fill="#1A1A1A" d="M493.41,1144.18c1.58,0.97,1.92,2.06,1.33,3.53c-4.18,10.53-8.33,21.06-12.5,31.59
		c-0.16,0.41-0.54,0.74-0.89,1.21C481.05,1175.78,488.62,1153.02,493.41,1144.18z"/>
	<path fill="#1A1A1A" d="M900.57,1145.54c2.89,12.68,5.79,25.35,8.68,38.03c-0.46,0.13-0.92,0.26-1.37,0.39
		c-3-3.62-2.35-8.57-3.77-12.75c-1.45-4.27-2.34-8.78-3.04-13.26C900.43,1153.87,897.62,1149.79,900.57,1145.54z"/>
	<path fill="#1A1A1A" d="M825.32,978.66c-2.62-12.32-6.03-24.43-8.17-36.83c-0.12-0.69,0.72-1.04,1.57-1.61
		c2.93,12.2,6.09,24.22,8.22,36.48C827.1,977.61,826.4,978.21,825.32,978.66z"/>
	<path fill="#1A1A1A" d="M813.6,947.09c2.76,12.06,5.53,24.12,8.21,36.19c0.09,0.39-0.74,0.98-1.18,1.53
		C818,979.86,811.86,950.86,813.6,947.09z"/>
	<path fill="#1A1A1A" d="M513.39,1161.31c1.83,0.94,1.95,2.28,1.57,3.29c-3.67,9.89-7.05,19.91-12.29,29.2
		C504.38,1182.33,510.15,1172.23,513.39,1161.31z"/>
	<path fill="#1A1A1A" d="M1044.1,860.03c-7.2-3.2-3.94-10.31-5.88-15.49C1045.6,845.73,1048.82,854.15,1044.1,860.03z"/>
	<path fill="#1A1A1A" d="M831.28,973.6c-3.56-13.06-6.07-25.2-8.7-37.32c-0.12-0.56,0.72-1.03,1.43-1.11
		C827.31,943.04,832.62,968.88,831.28,973.6z"/>
	<path fill="#1A1A1A" d="M918.43,581.67c-2.96,0.67-3.73-0.22-4.56-2.34c-2.6-6.66-5.63-13.15-8.53-19.8c0.46-1.1,1.36-1.6,3.06-1.3
		C911.64,565.8,914.96,573.57,918.43,581.67z"/>
	<path fill="#1A1A1A" d="M758.05,681.56c-5.29-10.43-5.56-22.32-8.99-33.3c-0.36-1.14,0.06-1.72,1.54-3.91
		c2.84,12.37,5.65,24.65,8.47,36.93C758.73,681.37,758.39,681.47,758.05,681.56z"/>
	<path fill="#1A1A1A" d="M828.12,931.48c1.59-0.56,2.55-0.73,2.86,1.03c1.79,10.06,4.44,19.94,6.75,29.89
		c0.38,1.64,0.77,3.31-1.42,4.31C833.6,955.01,830.89,943.36,828.12,931.48z"/>
	<path fill="#1A1A1A" d="M809.13,641.42c1.46-0.43,2.29,0.21,2.46,0.88c2.52,10.24,4.97,20.49,7.38,30.76
		c0.24,1.02-0.13,1.98-1.74,2.74C814.53,664.35,811.86,653.02,809.13,641.42z"/>
	<path fill="#1A1A1A" d="M815.22,989.8c-3.42-11.61-6.98-23.16-7.78-35.29C811.16,966.04,814.21,977.72,815.22,989.8z"/>
	<path fill="#1A1A1A" d="M894.71,1149.94c2.65,11.51,5.29,23.02,7.93,34.52c-1.05,0.62-2.3,0.94-2.51-0.35
		c-1.74-10.94-6.3-21.36-6.13-32.66c0.01-0.49,0.11-0.98,0.16-1.47C894.35,1149.96,894.53,1149.95,894.71,1149.94z"/>
	<path fill="#1A1A1A" d="M840.53,658.29c-2.34,0.8-3.41,2.31-5.15,3.62c-2.26-5.12-4.46-10.11-6.9-15.64
		C836.59,646.85,836.64,653.85,840.53,658.29z"/>
	<path fill="#1A1A1A" d="M934.25,549.49c2.07-0.75,3.35-0.56,4.2,1.47c2.33,5.55,4.9,11,7.24,16.54c0.65,1.55,0.7,3.25-1.75,4.57
		C940.74,564.6,937.55,557.18,934.25,549.49z"/>
	<path fill="#1A1A1A" d="M836.66,927.35c1.59,9.78,4.96,19.19,6.11,29.06c0.07,0.61-0.83,1.34-1.44,2.25
		c-2.25-10.58-5.48-20.72-6.78-31.18C835.25,927.44,835.96,927.4,836.66,927.35z"/>
	<path fill="#1A1A1A" d="M802.7,962.36c4.46,11,7.74,28.55,6.17,32.05C805.5,985.52,801.82,967.34,802.7,962.36z"/>
	<path fill="#1A1A1A" d="M792.59,127.9c11.25-1.68,22.51-3.36,34.86-5.21C823.43,126.25,801.74,129.64,792.59,127.9z"/>
	<path fill="#1A1A1A" d="M677.4,168.89c-2.9-6.23-4.6-12.52-0.9-19.3c0.45,7.83,0.08,16.01,9.64,19.3
		C683.45,168.89,680.75,168.89,677.4,168.89z"/>
	<path fill="#1A1A1A" d="M870.04,16.69c-2.79,0.99-4.84,2.59-6.88,4.63c-3.02-2.26-1.6-6.34-3.98-8.66
		C867.87,9.41,867.53,9.2,870.04,16.69z"/>
	<path fill="#1A1A1A" d="M897.9,561.73c1.02-0.53,1.85-0.95,3.03-1.56c2.74,6.4,5.46,12.73,8.24,19.22
		c-3.58,1.75-4.3-1.17-4.95-2.95C902.45,571.57,900.24,566.92,897.9,561.73z"/>
	<path fill="#1A1A1A" d="M817.67,643.28c3.69,8.38,5.14,17.27,7.15,26.02c0.09,0.39-0.73,0.99-1.51,1.99
		C820.57,661.78,818.34,652.69,817.67,643.28z"/>
	<path fill="#1A1A1A" d="M517.74,1170.64c-0.02,9.02-5.12,16.35-8.13,24.44C508.17,1192.01,512.59,1179.01,517.74,1170.64z"/>
	<path fill="#1A1A1A" d="M848.46,399.04c3.92,9.14,7.61,17.76,11.35,26.48c-2.05,0.99-3.6,0.89-4.26-1.37
		c-2.28-7.76-4.77-15.45-7.51-23.06C847.9,400.7,848.22,400.16,848.46,399.04z"/>
	<path fill="#1A1A1A" d="M578.67,963.83c-1.58-0.95-1.91-2.05-1.35-3.51c2.55-6.62,5.06-13.26,7.64-20.06
		c1.81,0.49,2.44,1.63,1.94,2.92C584.24,950.08,581.44,956.93,578.67,963.83z"/>
	<path fill="#1A1A1A" d="M727.34,755.73c3.31,7.69,4.17,15.97,6.63,23.85c0.48,1.53-0.48,2.77-1.71,4.12
		C730.75,774.14,727.05,765.3,727.34,755.73z"/>
	<path fill="#1A1A1A" d="M732.7,744.5c1.36,9.57,5.24,18.43,4.78,28.11c-3.06-7.73-4.25-15.97-6.42-23.93
		C730.63,747.12,731.47,745.85,732.7,744.5z"/>
	<path fill="#1A1A1A" d="M581.07,675.89c-1.96-0.69-2.45-1.97-1.86-3.26c3.17-6.94,5.51-14.27,9.63-20.76
		c0.14-0.22,0.54-0.28,1.7-0.83C587.22,659.76,584.15,667.82,581.07,675.89z"/>
	<path fill="#1A1A1A" d="M589.57,946.07c1.75,0.37,2.29,0.89,1.7,2.44c-2.56,6.75-4.98,13.54-7.52,20.48
		c-2.38-1.88-1.73-3.53-0.89-5.54C585.22,957.77,587.31,951.98,589.57,946.07z"/>
	<path fill="#1A1A1A" d="M580.56,934.15c1.8,3.32-2.16,16.54-6.52,22.71c-1.3-3.35-1.25-3.33,2.02-11.05
		C577.62,942.11,578.96,938.31,580.56,934.15z"/>
	<path fill="#1A1A1A" d="M942.4,549.19c5.91-0.09,4.86,4.58,6.45,6.9c1.7,2.49,2.49,5.6,3.73,8.56c-0.47,0.86-1.11,1.79-2.64,2.1
		C947.54,561.17,945.13,555.55,942.4,549.19z"/>
	<path fill="#1A1A1A" d="M533.36,1186.66c-1.99,7.69-5.13,14.19-7.72,20.87c-0.3,0.78-1.43,0.52-2.2,0.09
		C525.09,1199.68,529.93,1188.8,533.36,1186.66z"/>
	<path fill="#1A1A1A" d="M723.79,765.51c1.35,8.94,4.99,17.27,4.56,26.33c-2.94-5.98-3.35-12.62-5.39-18.79
		C722.11,770.44,721.81,768.07,723.79,765.51z"/>
	<path fill="#1A1A1A" d="M594.53,951.39c0.89,1.64,2.12,2.76,1.15,4.39c-0.17,0.28-0.41,0.53-0.53,0.83
		c-2.25,5.79-4.48,11.59-6.87,17.77C586.6,970.31,588.7,962.95,594.53,951.39z"/>
	<path fill="#1A1A1A" d="M800.82,6.93c-0.98,2.62-1.55,3.1-6.16,5.12c-2.04-2.1-1.25-5.82-5.17-7.2c4.95-1.22,9.02-2.88,11.47,2.24
		L800.82,6.93z"/>
	<path fill="#1A1A1A" d="M540.32,1187.41c-3.15,6.57-3.79,13.77-9.2,18.5C537.01,1187.65,537.01,1187.65,540.32,1187.41z"/>
	<path fill="#1A1A1A" d="M599.6,958.69c0.41,7.09-4.19,12.79-5.86,19.33c-2.03-0.38-2.58-0.94-1.86-2.71
		c2.3-5.61,4.39-11.3,6.56-16.97C598.83,958.46,599.22,958.57,599.6,958.69z"/>
	<path fill="#1A1A1A" d="M1051.03,838.4c-3.94-3.88-2.88-8.35-3.05-12.49c1.13-1.29,2.24-1.03,3.09-0.17
		C1053.09,827.8,1053.21,835.24,1051.03,838.4z"/>
	<path fill="#1A1A1A" d="M576.03,930.57c0.81,7.26-3.78,12.92-5.62,19.99C568.71,946.69,570.28,940.98,576.03,930.57z"/>
	<path fill="#1A1A1A" d="M870.73,1199.71c-5.77,0.43-5.77,0.43-7.59-4.98c2.05-2.39,5.09-1.29,7.61-2.34
		C871.11,1194.86,871.12,1197.12,870.73,1199.71z"/>
	<path fill="#1A1A1A" d="M693.26,147.97c-5.21-1.61-10.43-3.2-15.63-4.85c-2.22-0.7-4.34-1.56-2.47-4.83
		c6.37,3.04,12.42,6.29,18.86,8.71C693.77,147.32,693.52,147.65,693.26,147.97z"/>
	<path fill="#1A1A1A" d="M740.65,759.82c-0.87-7.8-5.27-15.03-3.68-23.14C739.28,744.24,741.86,751.74,740.65,759.82z"/>
	<path fill="#1A1A1A" d="M652.63,748.63c1.12,6.84-3.19,12.11-5.48,17.97C646.13,759.79,650.12,754.42,652.63,748.63z"/>
	<path fill="#1A1A1A" d="M524.98,1185.71c1.57,2.37-0.01,8-4.38,16.92C518.76,1200.06,520.21,1194.32,524.98,1185.71z"/>
	<path fill="#1A1A1A" d="M830.57,666.33c-4.08-2.5-3.21-6.76-4.18-9.92c-1.02-3.31-1.64-6.89-2.53-10.76
		C827.76,650.15,828.64,652.91,830.57,666.33z"/>
	<path fill="#1A1A1A" d="M643.39,648.44c0.89,6.41-1.55,12.45-7.27,18.9C638.12,661.23,640.06,655.09,643.39,648.44z"/>
	<path fill="#1A1A1A" d="M516.85,1196.02c-3.3-0.59-2.22-2.29-1.78-3.47c1.64-4.38,3.43-8.7,5.56-14
		C522.76,1185.86,517.58,1190.34,516.85,1196.02z"/>
	<path fill="#1A1A1A" d="M650.56,775.56c-2.03-6.33,3.38-10.74,4.45-16.36C656.6,765.41,652.82,770.23,650.56,775.56z"/>
	<path fill="#1A1A1A" d="M956.33,561.71c-5.7-11.13-5.7-11.13-3.33-13.51C958.24,555.73,959.1,559.19,956.33,561.71z"/>
	<path fill="#1A1A1A" d="M572.29,926.48c-1.5,6.28-3.92,11.26-5.83,16.59C564.21,939.48,567.15,930.3,572.29,926.48z"/>
	<path fill="#1A1A1A" d="M750.01,57.05c-0.07,0.15-0.11,0.41-0.21,0.43c-5.47,1.4-11.12-0.05-16.51,1.86
		c-0.49-3.16,0.59-4.22,2.86-4.2c2.3,0.01,4.61,0.04,6.91,0.06l-0.14-0.14c2.06,1.83,4.6,2.07,7.19,2.13
		C750.1,57.2,750.01,57.05,750.01,57.05z"/>
	<path fill="#1A1A1A" d="M881.56,1181.61c1.21,5.8,2.31,10.98,3.35,16.17c0.08,0.42-0.18,0.93-0.77,1.04
		C881.22,1195.06,879.21,1184.18,881.56,1181.61z"/>
	<path fill="#1A1A1A" d="M886.59,1181.26c3.82,4.89,3.54,10.9,4.72,16.53C887.33,1192.99,887.54,1186.95,886.59,1181.26z"/>
	<path fill="#1A1A1A" d="M581.17,1026.2c-1.81,4.74-1.78,10.45-6.6,13.55C576.27,1034.96,576.42,1029.41,581.17,1026.2z"/>
	<path fill="#1A1A1A" d="M597.26,981.4c0.6-5.68,3.48-10.64,5.14-16.06C604.6,968.33,602.58,975.06,597.26,981.4z"/>
	<path fill="#1A1A1A" d="M873.76,1184.16c3.26,4.68,3.56,10.14,4.78,15.34c-0.71,0.54-1.94,0.76-2.11,0.07
		C875.19,1194.5,873.58,1189.48,873.76,1184.16z"/>
	<path fill="#1A1A1A" d="M574.18,1027.18c-2.22,4.47-1.41,10.59-7.54,14.2C569.13,1035.8,569.1,1030.19,574.18,1027.18z"/>
	<path fill="#1A1A1A" d="M658.46,768.08c1.51,2.69,1.51,2.69-3.24,13.82C653.05,779.88,653.72,776.9,658.46,768.08z"/>
	<path fill="#1A1A1A" d="M722.67,800.17c-1.37-6.06-3.77-11.96-2.09-18.31C720.66,788.06,725.67,793.65,722.67,800.17z"/>
	<path fill="#1A1A1A" d="M768.98,699.37c3.55,5.77,4.84,14.54,2.42,17C771.26,710.68,768,705.88,768.98,699.37z"/>
	<path fill="#1A1A1A" d="M559.74,1040.37c3.2-3.58,1.74-9.53,7.07-12.22C565.76,1036.2,563.32,1040.58,559.74,1040.37z"/>
	<path fill="#1A1A1A" d="M764.61,705.19c0.96,5.24,3.09,9.99,2.83,15.77C763.93,716.77,762.52,708.61,764.61,705.19z"/>
	<path fill="#1A1A1A" d="M624.53,720.68c-1.57-3.24-0.58-6.94,3.43-13.96C629.95,712.62,625.46,716.28,624.53,720.68z"/>
	<path fill="#1A1A1A" d="M629.38,725.56c-2.8-5.14,2.14-8.63,2.29-13.63c2.18,2.28,1.88,2.2,0.58,6.84
		C631.59,721.15,629.67,722.97,629.38,725.56z"/>
	<path fill="#1A1A1A" d="M588.24,1026.2c-2.42,4.01-1.19,10.21-7.87,12.99C583.5,1034.3,583.47,1028.92,588.24,1026.2z"/>
	<path fill="#1A1A1A" d="M619.19,716.43c-2.4-5.69,2.41-8.81,2.33-13.72C624.14,705.54,623.57,708.17,619.19,716.43z"/>
	<path fill="#1A1A1A" d="M676.65,797.62c-0.88-0.58-2.78-0.12-1.77-2.43c1.42-3.25,1.44-7.29,5.8-9.73
		C679.86,790.36,677.82,793.84,676.65,797.62z"/>
	<path fill="#1A1A1A" d="M543.56,1190.34c1.5,5.47-0.67,10.73-5.31,12.52C540.25,1198.71,540.88,1194.37,543.56,1190.34z"/>
	<path fill="#1A1A1A" d="M761.1,725.89c-2.39-4.06-3.1-8.5-3.51-13.24C760.29,714.09,762.23,721.04,761.1,725.89z"/>
	<path fill="#1A1A1A" d="M894.35,1185.67c-2.34-4.1-2.65-6.19-2.14-14.63C895.04,1177.84,895.88,1183.57,894.35,1185.67z"/>
	<path fill="#1A1A1A" d="M662.96,775.55c1.7,4.41-2.06,7.52-2.38,11.65C657.74,784.81,657.92,783.9,662.96,775.55z"/>
	<path fill="#1A1A1A" d="M639.08,734.56c-1.45-4.33,1.12-7.73,2.41-11.55C643.98,725.09,643.77,726.2,639.08,734.56z"/>
	<path fill="#1A1A1A" d="M637.24,718.16c1.91,4.47-1.21,7.79-2.81,12.4C631.78,724.98,636.02,721.92,637.24,718.16z"/>
	<path fill="#1A1A1A" d="M754.98,730.79c-0.66-4.45-4.07-8.66-1.68-13.28C753.87,721.97,757.27,726.12,754.98,730.79z"/>
	<path fill="#1A1A1A" d="M670.08,795.53c-2.29-5.33,2.22-8.26,2.09-12.22C675.06,785.14,674.76,786.98,670.08,795.53z"/>
	<path fill="#1A1A1A" d="M750.05,736.56c-3.5-5.54-3.96-10.59-1.29-12.52C748.54,728.39,751.34,732.16,750.05,736.56z"/>
	<path fill="#1A1A1A" d="M664.8,790.85c-1.91-4.2,1.47-7.08,2.75-10.53C669.29,784.4,666.8,787.56,664.8,790.85z"/>
	<path fill="#1A1A1A" d="M930.71,1167.31c3.47,3.35,4.11,7.82,5.05,12.26c-2.8-0.27-4-3.39-4.91-12.4L930.71,1167.31z"/>
	<path fill="#1A1A1A" d="M489.05,1144.64c-1.49,3.59-2.96,7.13-4.6,11.08C483.6,1147.94,485.11,1144.37,489.05,1144.64z"/>
	<path fill="#1A1A1A" d="M551.28,1198.09c-2.33-0.98-2.43-2.86-3.48-4.64c2.93-0.79,5.43-0.3,9.18-0.51
		C554.53,1195.15,552.98,1196.55,551.28,1198.09z"/>
	<path fill="#1A1A1A" d="M644.23,739.61c-2.73-4.52,1.87-7.28,1.79-11.85C649.19,732.95,645.11,736.04,644.23,739.61z"/>
	<path fill="#1A1A1A" d="M492.96,1025.84c-1.21-3.74,0.21-6.78,2.83-10.2C497.71,1020.18,494.71,1022.85,492.96,1025.84z"/>
	<path fill="#1A1A1A" d="M867.94,9.44c2.51-0.41,4.46-0.37,6.54-0.11c-0.45,2.09-1.26,3.91-2.85,5.66
		C869.42,13.68,870.18,10.8,867.94,9.44z"/>
	<path fill="#1A1A1A" d="M742.72,729.57c0.36,4.23,2.98,7.24,1.65,11.33C741.73,737.68,740.95,733.28,742.72,729.57z"/>
	<path fill="#1A1A1A" d="M558.55,1032.64c-0.64,4.02-1.75,7.09-4.81,9.18C553.89,1038.27,554.59,1034.98,558.55,1032.64z"/>
	<path fill="#1A1A1A" d="M439.78,283.77c1.2-1.95,1.21-3.75,1.69-5.69c1.94,0.66,4.01,0.89,3.53,3.64
		C444.52,284.51,442.55,284.23,439.78,283.77z"/>
	<path fill="#1A1A1A" d="M542.78,560.31c2.14,3.47,3.79,6.13,2.51,10.52C543.15,567.36,541.51,564.71,542.78,560.31z"/>
	<path fill="#1A1A1A" d="M539.86,569.28c-4.72-1.29-2.77-5.52-4.9-8.07C538.19,562.02,538.19,562.02,539.86,569.28z"/>
	<path fill="#1A1A1A" d="M709.39,230.94c0.63,1.3,1.12,2.3,1.84,3.78c-3.01,0.69-5.7,0.33-8.87,0.31
		C704.63,232.89,707.16,232.31,709.39,230.94z"/>
	<path fill="#1A1A1A" d="M842.94,923.99c-0.58,4.75,1.77,8.71,0.86,13.13C840.35,928.27,840.29,927.67,842.94,923.99z"/>
	<path fill="#1A1A1A" d="M698.46,142.3c-4.06,2.59-7.42,0.32-10.79-1.95C691.04,142.05,694.93,140.35,698.46,142.3z"/>
	<path fill="#1A1A1A" d="M504.41,584.06c-1.11-3.45-2.99-6.19-1.53-9.86C506.16,578.85,506.34,579.86,504.41,584.06z"/>
	<path fill="#1A1A1A" d="M740.99,149.5c-0.09,1.55-0.85,2.51-2.39,2.57c-1.53,0.06-2.47-0.82-2.53-2.34
		c-0.06-1.53,0.82-2.46,2.34-2.53C739.97,147.12,740.77,148.04,740.99,149.5z"/>
	<path fill="#1A1A1A" d="M685.03,154.54c-0.26,1.67-1.06,2.59-2.61,2.52c-1.53-0.07-2.41-1-2.34-2.53c0.06-1.53,1-2.38,2.53-2.35
		C684.21,152.21,684.82,153.29,685.03,154.54z"/>
	<path fill="#1A1A1A" d="M498.27,1030.8c-2.98-3.43,1.19-5.93,0.71-9.48C501.27,1025.74,501.27,1025.74,498.27,1030.8z"/>
	<path fill="#1A1A1A" d="M507.87,568.25c1.45,2.7,3.6,5.38,0.56,8.24C507.48,573.69,506.18,571,507.87,568.25z"/>
	<path fill="#1A1A1A" d="M434.33,389.46c2.23,0.42,3.45,1.93,5.32,3.4c-2.92,0-5.41,0-8.05,0
		C431.87,391.03,433.58,390.46,434.33,389.46z"/>
	<path fill="#1A1A1A" d="M503.86,1010.75c-4.36-2.15-2.27-5.81-2.51-8.84C503.35,1004.32,504.38,1007.04,503.86,1010.75z"/>
	<path fill="#1A1A1A" d="M463.3,289.99c-1.11-0.36-2.46-0.79-3.82-1.23c0.81-3.06,3.88-2.27,5.86-3.53
		C464.89,286.91,465.51,288.86,463.3,289.99z"/>
	<path fill="#1A1A1A" d="M472.36,291.97c-2.2,0.33-3.15-1.56-4.82-0.79c-0.02-1.48,1-2.36-0.13-4.6c2.63,1.92,4.16,3.64,6.43,1.51
		C473.82,290.11,473.08,291.09,472.36,291.97z"/>
	<path fill="#1A1A1A" d="M512.84,560.88c-0.89,2.77,3.47,5.3-0.09,8.73C511.8,566.3,509.6,563.71,512.84,560.88z"/>
	<path fill="#1A1A1A" d="M591.57,1029.7c2.42,1.78,0.92,3.93,0.44,6.05c-0.32,1.4-1.31,1.39-2.21,1.09
		c-0.93-0.31-0.93-1.37-0.63-2.09C589.88,1033.02,590.78,1031.34,591.57,1029.7z"/>
	<path fill="#1A1A1A" d="M532.56,568.26c-3.62-1.43-1.89-4.74-3.78-6.7C532.2,561.67,532.99,563.18,532.56,568.26z"/>
	<path fill="#1A1A1A" d="M516.72,559.38c3.58,0.79,2.12,4.08,3.61,6.54C517.71,564.85,517.71,564.85,516.72,559.38z"/>
	<path fill="#1A1A1A" d="M648.5,746.53c-1.61-3.23-0.59-6.07,1.1-8.83C651.37,740.9,650.47,743.76,648.5,746.53z"/>
	<path fill="#1A1A1A" d="M523.59,559.63c2.48,2.21,2.48,4.72,3.47,6.92C523.86,566.52,523.03,564.92,523.59,559.63z"/>
	<path fill="#1A1A1A" d="M800.97,7.08c-0.13-1.22-0.25-2.44-0.38-3.71c1.4-0.29,2.81-0.49,4.33,0.27c-0.11,2.69-0.49,4.92-4.1,3.29
		C800.82,6.93,800.97,7.08,800.97,7.08z"/>
	<path fill="#1A1A1A" d="M1028.19,764.11c-1.6-0.86-1.49-2.28-2.57-3.43c2.33-0.91,4.18-0.65,6.28-0.34
		C1031.47,762.75,1029.07,762.68,1028.19,764.11z"/>
	<path fill="#1A1A1A" d="M723.15,137.38c-2.3,1.96-4.57,3.99-7.29,0.24C718.46,136.67,720.86,137.42,723.15,137.38z"/>
	<path fill="#1A1A1A" d="M482.78,285.43c-0.77,1.43-0.84,2.91-2.32,3.41c-1.43-0.97-1.84-2.53-2.34-4.05
		C479.9,283.14,481.11,284.99,482.78,285.43z"/>
	<path fill="#1A1A1A" d="M817.32,1027.45c-2.11-3.18-2.11-3.18-1.9-6.1C817.99,1023.2,817.99,1023.2,817.32,1027.45z"/>
	<path fill="#1A1A1A" d="M470.24,283.5c2.11-0.74,3.41-0.16,3.63,1.87c0.08,0.71-0.86,1.66-1.6,1.57
		C470.21,286.69,469.86,285.28,470.24,283.5z"/>
	<path fill="#1A1A1A" d="M823.31,1022.12c0.74,1.52,2.52,2.76,1.11,4.8C821.62,1024.84,821.62,1024.84,823.31,1022.12z"/>
	<path fill="#1A1A1A" d="M829.36,1021.91c1.76,2,2.98,3.52,2.28,6.27C829.2,1026.7,828.68,1024.91,829.36,1021.91z"/>
	<path fill="#1A1A1A" d="M471.32,279.78c1.71,0.51,4.73-0.87,4.63,3.38C474.35,281.49,472.46,281.32,471.32,279.78z"/>
	<path fill="#1A1A1A" d="M838.41,1028.01c-2.07-0.57-2.78-1.67-2.11-3.55c1.27-0.81,1.83,0.17,2.36,0.89
		C839.17,1026.04,839.09,1026.85,838.41,1028.01z"/>
	<path fill="#1A1A1A" d="M843.36,1025.07c1.89,0.28,2.41,1.15,2.62,2.49C843.46,1028.43,842.67,1027.7,843.36,1025.07z"/>
	<path fill="#1A1A1A" d="M894.53,566.86c-1.92-1.41-1.69-2.79-1.16-4.32C894.37,563.86,895.61,565.02,894.53,566.86z"/>
	<path fill="#1A1A1A" d="M796.13,979.2c2.39-0.11,1.64,1.8,2.95,2.35C795.73,982.61,796.03,981.06,796.13,979.2z"/>
	<path fill="#1A1A1A" d="M852.99,921.16c3.37-0.21,3.26,1,2.52,2.76C853.59,923.86,854.08,922.17,852.99,921.16z"/>
	<path fill="#1A1A1A" d="M862.83,922.42c-1.01,0.96-1.88,0.63-2.74-0.03c0.16-1.41,1.01-1.32,1.79-1.27
		C862.68,921.17,862.9,921.7,862.83,922.42z"/>
	<path fill="#1A1A1A" d="M502.71,1030.69c1.68,1.35,1.55,2.24,0.53,3.3C501.46,1033.3,502.12,1032.24,502.71,1030.69z"/>
	<path fill="#1A1A1A" d="M553.63,562.36c-0.31,1.2-1.1,1.9-2.28,2.34C550.64,562.44,551.36,561.68,553.63,562.36z"/>
	<path fill="#1A1A1A" d="M508.56,945.97c0.42,1.59,0.85,3.01-0.06,4.4C507.67,948.77,508.11,947.28,508.56,945.97z"/>
	<path fill="#1A1A1A" d="M688.75,162.63c-0.8-1.18-1.43-1.71-1.37-2.12c0.07-0.42,0.82-0.74,1.27-1.11
		c0.36,0.45,0.99,0.89,1.02,1.36C689.7,161.27,689.18,161.82,688.75,162.63z"/>
	<path fill="#1A1A1A" d="M748.74,158.63c-0.8-1.18-1.43-1.71-1.37-2.12c0.07-0.42,0.82-0.74,1.27-1.11
		c0.36,0.45,0.99,0.89,1.02,1.36C749.69,157.27,749.17,157.82,748.74,158.63z"/>
	<path fill="#1A1A1A" d="M848.59,922.34c0.48,0.89,0.69,1.81-0.22,2.51c-0.2,0.15-1.11-0.15-1.18-0.4
		C846.87,923.31,847.72,922.79,848.59,922.34z"/>
	<path fill="#1A1A1A" d="M747.63,661.04c0.46,1.75,0.49,2.7,0.06,3.65C745.15,663.76,747.02,662.65,747.63,661.04z"/>
	<path fill="#1A1A1A" d="M690.79,167.99c-0.1-1.43,0.86-1.99,1.81-2.63C693.52,167.28,691.8,167.4,690.79,167.99z"/>
	<path fill="#1A1A1A" d="M566.96,923.38c-0.64,1.99-0.95,2.96-1.45,4.54C564.99,926.11,564.52,924.95,566.96,923.38z"/>
	<path fill="#1A1A1A" d="M891.84,307.96c-1.95-0.02-2.66-0.76-2.72-2.73C890.44,305.94,891.17,306.66,891.84,307.96z"/>
	<path fill="#1A1A1A" d="M850.13,1027.5c1.77-0.88,1.94,0.39,2.74,1.04C851.1,1029.42,850.93,1028.15,850.13,1027.5z"/>
	<path fill="#1A1A1A" d="M499.67,580.34c0.45,0.98,0.53,1.71-0.1,2.4C498.25,582.08,497.74,581.37,499.67,580.34z"/>
	<path fill="#1A1A1A" d="M844.32,939.39c1,1.1,0.52,2,0.71,3.91C843.74,941.43,844.08,940.53,844.32,939.39z"/>
	<path fill="#1A1A1A" d="M808.87,1026.25c0.81-1.38,1.21-2.07,1.65-2.83C811.21,1024.65,811.32,1025.57,808.87,1026.25z"/>
	<path fill="#1A1A1A" d="M846.29,394.56c0.99,0.65,0.65,1.32,0.41,2.1C845.71,396.01,846.06,395.33,846.29,394.56z"/>
	<path fill="#1A1A1A" d="M893.12,412.92c0.94,0.61,1.06,1.42,0.57,2.4c-1.18-0.69-0.61-1.65-0.43-2.54L893.12,412.92z"/>
	<path fill="#1A1A1A" d="M883.53,778.5c0.59,0.73,0.66,1.42-0.06,2.11C882.87,779.88,882.81,779.19,883.53,778.5z"/>
	<path fill="#1A1A1A" d="M684.53,789.66c-0.6-0.83-0.6-1.4-0.14-2.04C685.3,788.1,685.09,788.73,684.53,789.66z"/>
	<path fill="#1A1A1A" d="M644.62,664.53c-0.82-0.59-0.73-1.24-0.19-1.96C645.25,663.16,645.15,663.8,644.62,664.53z"/>
	<path fill="#1A1A1A" d="M930.85,1167.17c-1-0.6-0.88-1.47-0.7-2.48c1.31,0.76,0.74,1.72,0.56,2.62L930.85,1167.17z"/>
</g>
</svg>
