<?xml version="1.0" encoding="utf-8"?>
<!-- Generator: Adobe Illustrator 23.1.0, SVG Export Plug-In . SVG Version: 6.00 Build 0)  -->
<svg version="1.1" id="Layer_1" xmlns="http://www.w3.org/2000/svg" xmlns:xlink="http://www.w3.org/1999/xlink" x="0px" y="0px"
	 width="2762.85" height="3104.1" viewBox="0 0 2762.85 3104.1" style="enable-background:new 0 0 2762.85 3104.1;" xml:space="preserve">
<path d="M1592.75,164.3c10.44,13.25,19.99,25.19,29.31,37.3c2.83,3.68,5.72,7.55,7.47,11.79c9.92,24,23.92,45.98,34.24,69.77
	c2.98,6.87,4.86,13.85,4.13,21.33c-0.32,3.25-0.37,7.06-2.09,9.54c-5.23,7.51-4.36,15.1-1.66,22.9c3.26,9.43,6.42,18.92,10.21,28.14
	c5.81,14.15,12.15,28.08,18.2,42.13c6.71,15.56,6.84,30.99-0.92,46.32c-4.81,9.5-9.34,19.15-14.05,28.7
	c-4.94,10.03-12.12,17.28-23.48,20.02c-2.98,0.72-6.5,2.74-8.04,5.23c-6,9.73-15.57,14.26-25.29,18.61
	c-4.83,2.16-9.97,3.67-14.78,5.41c-1.45,3.45,0.92,4.88,2.86,6.44c1.56,1.25,3.13,2.57,4.9,3.45c19.3,9.52,35.7,22.98,51.97,36.87
	c10.02,8.56,20.23,17.54,33.58,21.08c6.4,1.7,12.76,3.86,19.29,4.65c21.98,2.67,43.09,8.38,63.4,17.07
	c14.68,6.28,29.38,12.56,43.84,19.33c17.12,8.03,31.43,19.52,43.49,34.35c21.38,26.3,36.41,55.57,44.73,88.36
	c1.8,7.1,3.7,14.18,5.55,21.26c8.36,32,9.23,64.47,6.19,97.19c-0.43,4.64-0.75,9.3-1.08,13.95c-0.53,7.45,0.81,14.38,4.12,21.25
	c3.75,7.76,7.04,15.86,9.48,24.12c7.75,26.15,15.4,52.31,22.13,78.78c10.88,42.79,10.87,85.63,5.55,128.92
	c-2.52,20.46-4.56,40.98-7.33,61.41c-2.9,21.39,2.65,41.08,12.04,59.7c3.57,7.09,7.5,13.99,10.64,21.33
	c2.88,6.72,6.36,13.19,9.54,19.79c6.64,13.8,13.3,27.59,19.84,41.44c1.42,3,2.67,6.14,3.48,9.34c5.49,21.91,11.52,43.71,14.56,66.17
	c3.95,29.21,2.56,58.57,2.06,87.84c-0.3,17.36,0.73,34.57,2.08,51.78c1.3,16.59,2.47,33.32,5.71,49.59
	c4.41,22.16,8.85,44.37,15.6,66.05c6.46,20.76,7.01,41.83,0.13,62.86c-6.88,21.01-9.83,42.84-11.76,64.75
	c-0.57,6.5,0.89,13.2,1.66,19.78c1.31,11.2,3.3,22.17,0.91,33.67c-2.2,10.63,1.18,21.37,4.32,31.43
	c5.02,16.09,7.16,32.25,7.52,49.07c0.27,12.52,2.75,25.13,5.5,37.43c2.21,9.89,3.63,19.63,2.55,29.67
	c-0.28,2.56-1.35,5.04-1.93,7.13c-3.4,1.42-5.48,0.15-7.94-1.11c-2.83-1.44-6.2-2.1-9.4-2.43c-4.31-0.45-8.07,3.07-7.88,7.1
	c0.16,3.3,0.56,6.62,1.21,9.87c3.27,16.32,6.39,32.68,10.05,48.92c4.44,19.71,5.48,39.71,3.96,59.64
	c-1.12,14.79-0.21,29.24,1.58,43.8c2.28,18.5,4.81,36.99,6.32,55.56c0.92,11.25,0.03,22.63,0.09,33.95
	c0.08,15-4.35,28.87-10.39,42.36c-1.09,2.43-2.29,4.81-3.48,7.2c-11.98,24.05-18.71,49.59-23.41,76
	c-9.76,54.86-32.19,104.09-68.61,146.6c-4.77,5.56-9.57,11.14-14.77,16.29c-18.16,17.99-31.65,39.41-44.97,60.94
	c-12.34,19.93-21.89,41.2-27.82,63.86c-3.02,11.54-4.51,23.5-6.37,35.32c-0.51,3.22-0.22,6.66,0.28,9.92
	c2.22,14.47,4.52,28.92,7.07,43.33c0.92,5.22,2.4,10.38,3.98,15.45c11.34,36.45,28.5,70.32,46.9,103.55
	c5.44,9.82,12.92,18.52,19.53,27.69c2.49,3.46,6.05,5.2,10.27,5.28c10.71,0.2,21.13,1.02,30.97,6.24c3.2,1.7,7.85,0.65,11.83,0.93
	c6.63,0.47,13.53-0.02,19.82,1.72c12.83,3.55,25.44,7.51,38.99,6.02c16.27,3.55,29.51,11.82,39.12,25.52
	c1.89,2.69,2.78,6.06,4.54,8.86c5.31,8.39,12.45,13.79,22.97,13.27c1.99-0.1,4.02,0.18,6-0.02c18.93-1.89,35.56,5.1,51.01,14.53
	c21.27,12.99,33.66,31.85,33.4,57.66c-0.05,4.66-0.13,9.33-0.4,13.98c-0.18,3.2-5.06,5.11-7.71,3.04c-2.61-2.04-5.06-4.28-7.57-6.44
	c-6.06-5.21-12.05-10.5-18.2-15.58c-1.48-1.23-3.43-2.02-5.28-2.64c-5.85-1.93-12.63,3.09-12.37,9.15
	c0.23,5.32,0.95,10.62,0.96,15.93c0.01,8.75-3.33,13.67-12.12,15.92c-10.29,2.63-20.78,4.96-31.32,6.03
	c-13.9,1.4-27.93,1.69-41.91,2c-13.32,0.29-26.55,0.15-38.5-7.58c-5.13-3.32-11.51-3.23-17.53-2.11
	c-5.88,1.09-11.71,2.46-17.54,3.84c-23.65,5.6-47.66,5.31-71.6,3.46c-16.56-1.27-33.19-2.54-49.49-6.41
	c-9.79-2.32-19.58-4.67-28.1-9.97c-11.43-7.11-23.6-8.44-36.51-6.97c-16.59,1.89-33.23,2.8-49.85,0.5
	c-21.89-3.04-43.18-8.03-62.42-19.64c-7.54-4.55-14.15-9.97-19.07-17.29c-6.1-9.06-9.59-18.93-9.41-30.02
	c0.33-19.99,0.47-39.98,0.71-59.97c0.02-1.33,0.05-2.67,0.2-3.99c2.81-24.2-0.68-47.82-6.96-71.09
	c-5.03-18.61-10.07-37.25-16.17-55.52c-4-12-9.69-23.47-22.68-28.88c-1.73-0.72-3.25-2.35-4.44-3.9
	c-8.91-11.62-18.26-22.96-26.39-35.1c-7.06-10.53-12.24-22.07-11.88-35.42c0.18-6.62-0.69-13.29-1.27-19.92
	c-1.26-14.4,2.99-27.71,8.15-40.77c1.43-3.61,3.67-7.12,6.3-9.98c6.75-7.35,13.76-14.49,20.96-21.4
	c17.32-16.64,33.8-33.98,48.52-53.03c8.64-11.18,14.54-23.84,21.67-35.84c1.34-2.26,2.57-4.83,2.93-7.38
	c2.01-14.47,6.08-28.54,6.1-43.42c0.03-20.62,0.98-41.28,2.54-61.85c1.87-24.73,7.69-48.65,18.67-71.04
	c4.39-8.95,6.31-18.43,8.9-29.72c-3.6,2.08-5.96,2.97-7.71,4.54c-5.45,4.88-11.55,9.36-15.79,15.17
	c-9.4,12.86-20.77,24.32-27.66,39.04c-1.57,3.35-5.03,6.21-8.25,8.34c-16.04,10.61-33.9,11.07-52.01,7.96
	c-4.37-0.75-9.11-3.12-12.3-6.19c-5.19-5-11.26-6.73-17.88-7.84c-1.31-0.22-2.57-0.73-3.88-0.95
	c-20.01-3.24-32.04-15.17-37.11-34.42c-2.03-7.71-3.75-15.52-5.19-23.37c-2.42-13.24-6.62-25.34-15.08-36.39
	c-14.61-19.09-15.21-54-2.52-73.98c1.76-2.77,4.14-5.22,6.5-7.53c3.32-3.25,6.91-6.24,10.04-9.04c3.98-26.56,7.89-52.21,11.64-77.88
	c1.48-10.15-0.64-19.93-4.29-29.34c-3.02-7.79-9.62-11.09-17.64-9.34c-1.95,0.42-3.89,0.94-5.76,1.64
	c-25.94,9.61-52.52,8.71-78.76,2.84c-35.85-8.01-65.24-26.44-84.51-58.69c-7.83-13.11-16.46-25.93-19.42-41.39
	c-0.22-1.16-1.47-2.13-2.8-3.96c-2.09,0.58-4.69,0.89-6.84,2.05c-1.65,0.89-2.88,2.72-4.04,4.33
	c-30.37,42.36-65.66,80.54-100.98,118.67c-8.14,8.78-16.87,17.01-25.32,25.51c-2.82,2.83-5.96,5.44-8.35,8.6
	c-14.66,19.35-33.89,33.76-52.17,49.28c-15.73,13.36-31.13,27.18-45.81,41.67c-18.19,17.95-28.72,39.76-29.32,65.84
	c-0.28,11.99-1.26,23.96-1.47,35.94c-0.8,45.67-13.71,88.02-35.88,127.51c-9.09,16.19-20.29,31.08-34.86,43.34
	c-11.71,9.85-21.75,21.56-30.24,34.46c-4.03,6.12-8.69,11.82-12.73,17.93c-9.22,13.93-17.5,28.24-21.08,44.95
	c-1.52,7.08-5.1,13.7-7.64,20.57c-3.28,8.86-4.27,17.6-2.81,27.33c1.76,11.74,1.33,23.93,0.69,35.87
	c-0.35,6.5-2.42,13.14-4.88,19.24c-5.25,13.07-8.31,26.7-11.42,40.33c-1.32,5.81-2.19,11.86-2.22,17.8
	c-0.2,39.3,0,78.61-0.21,117.92c-0.04,7.64,3.35,14.17,5.12,21.22c1.77,7.06,5.36,11.93,13.63,12.04
	c7.27,0.1,12.59,4.21,16.06,10.34c6.6,11.66,15.09,21.9,23.19,32.47c4.41,5.76,7.69,12.39,11.45,18.65
	c5.16,8.57,4.63,17.84,3.23,27.18c-0.75,4.97-3.74,8.4-7.98,10.84c-7.02,4.04-14.62,6.5-22.62,7.45
	c-5.28,0.63-10.64,0.81-15.96,0.88c-12.62,0.16-25.38-0.95-37.16,5.31c-1.69,0.9-3.85,1.14-5.83,1.28
	c-25.26,1.73-50.53,3.6-75.64-1.78c-15.62-3.35-31.18-6.8-47.34-6.9c-5.35-0.03-10.54,0.3-15.83,0.83
	c-28.5,2.86-57.03,5.93-85.7,2.2c-14.53-1.89-29.13-3.72-42.47-10.37c-4.39-2.19-8.88-2.51-13.57-2.53c-8-0.04-16-0.13-23.99-0.26
	c-9.42-0.16-18.57-2.09-27.38-5.22c-11.52-4.09-16.09-10.45-15.82-22.5c0.15-6.6,0.46-13.56,2.64-19.67
	c5.59-15.65,11.95-31.05,18.66-46.26c2.65-6,6.79-11.41,10.72-16.75c5.72-7.77,13.38-12.94,23-14.68c5.04-0.91,8.18-3.85,10.75-8.05
	c17.06-27.83,34.49-55.41,46.01-86.23c7.46-19.96,15.77-39.6,23.55-59.44c2.43-6.19,4.25-12.62,6.58-18.85
	c2.88-7.71,3.64-15.55,1.84-23.57c-3.24-14.44-2.68-29.11-3.2-43.75c-0.43-11.86,2.96-22.27,8.79-32.23
	c4.04-6.89,7.67-14.04,12.08-20.68c12.63-19.05,20.3-40.39,28.98-61.29c3.31-7.97,7.3-15.66,10.43-23.69
	c3.37-8.67,6.45-17.49,8.98-26.43c1.99-7.05,1.73-14.28,1-21.73c-3.12-31.86-3.57-63.82-2.3-95.84
	c1.36-34.11,11.95-65.27,28.15-94.87c11.26-20.57,25-39.45,40.85-56.6c11.28-12.2,18.05-26.26,21.61-42.09
	c2.04-9.08,3.81-18.3,4.64-27.55c1.2-13.29,3.03-26.43,5.25-39.58c2.76-16.41,4.85-32.94,6.79-49.47
	c3.64-31.09,6.92-62.22,10.48-93.32c0.68-5.93,1.78-11.83,2.93-17.7c7.29-37.28,15.41-74.37,30.63-109.4
	c7.69-17.7,16.15-35.06,24.28-52.57c2.24-4.82,4.38-9.69,6.82-14.41c4.28-8.27,8.08-16.89,13.28-24.56
	c14.64-21.59,25.27-45.36,38.15-67.9c0.65-1.15,1.2-2.4,1.54-3.67c1.26-4.82,0.84-9.27-3.22-12.75
	c-6.59-5.63-13.01-11.46-19.83-16.8c-19.45-15.24-36.4-33.1-54.02-50.32c-23.02-22.5-41.72-48.34-60.49-74.21
	c-21.18-29.18-44.25-56.75-71.26-80.79c-15.48-13.78-32.18-25.73-50.95-34.8c-26.7-12.91-54.91-15.33-83.82-12.78
	c-54.31,4.79-103.1,25.3-149.12,53.31c-27.88,16.97-54.81,35.38-80.89,55c-7.03,5.29-14.58,9.26-22.83,12.05
	c-14.51,4.92-29.05,9.5-44.4,11.45c-19.81,2.51-39.51,5.96-59.29,8.72c-24.56,3.43-49.26,2.97-73.81,0.65
	c-29.62-2.81-57.07-12.96-82.5-28.29c-18.29-11.03-36.15-22.72-49.79-39.64c-1.67-2.07-3.55-3.99-5.07-6.16
	c-22.29-31.79-41.57-65.1-51.97-102.89c-3.53-12.84-7.31-25.61-10.69-38.49c-2.88-10.97-5.09-22.11-5.11-33.51
	c-0.04-28.64-1.13-57.3,2.83-85.84c2.19-15.81,3.55-31.75,4.94-47.67c2.11-24.07,8.38-47.14,16.53-69.74
	c6.32-17.53,13.05-34.93,19.87-52.27c19.4-49.34,46.47-94.27,78.3-136.53c16.9-22.43,35.16-43.44,56.58-61.77
	c18.22-15.59,35.46-32.31,53.43-48.19c35.73-31.57,75.9-56.31,119.26-75.84c42.09-18.95,86.01-32.13,131.57-39.66
	c17.08-2.82,34.22-5.22,51.33-7.88c3.94-0.61,7.9-1.25,11.74-2.32c4-1.11,7.6-3.59,8.6-7.65c1.5-6.07,5.86-10.39,8.3-15.72
	c3-6.57,3.61-14.26,6.82-20.69c3.23-6.45,9.88-11.38,12.37-17.98c5.15-13.65,9.45-27.81,8.44-42.81c-0.22-3.32-0.66-6.63-1.17-9.92
	c-1.8-11.69,0.36-21.05,13.11-25.54c6.5-2.29,10.95-7.46,13.71-13.85c2.66-6.17,6.56-11.4,10.86-16.58
	c4.18-5.05,7.04-11.2,10.99-17.71c1.75-0.53,4.25-1.26,6.75-2.03c6.19-1.92,8.31-6.98,3.94-12.21
	c-4.79-5.74-10.53-10.36-17.19-13.47c-17.01-7.94-34.62-13.79-53.74-13.68c-7.36,0.04-14.47,1.07-21.71,2.64
	c-33.35,7.23-61.86,24.02-88.88,43.89c-15.63,11.5-30.11,24.29-42.06,39.65c-4.89,6.28-8.86,13.28-13.6,19.69
	c-0.93,1.27-3.56,2.03-5.23,1.79c-1.66-0.23-3.85-1.71-4.47-3.2c-1.25-2.99-1.96-6.33-2.24-9.58c-2.89-34.61,6.77-66.05,25.49-94.69
	c9.09-13.89,19.96-26.62,30.04-39.86c0.8-1.05,1.55-2.26,2.6-2.96c20.41-13.69,40.1-28.5,62.49-39.08
	c20.62-9.74,42.38-16.33,64.53-20.67c36.23-7.11,73.1-8.35,109.3-0.56c48.46,10.42,89.28,33.98,117.81,75.95
	c14.02,20.62,23.48,43.34,29.51,67.37c11.7,46.6,13.42,93.65,2.19,140.48c-8.61,35.92-23.8,69.22-46.04,98.98
	c-4.36,5.83-9.51,11.14-14.7,16.27c-27.26,26.94-58.74,47.92-92.76,65.29c-2.37,1.21-4.78,2.35-7.12,3.62
	c-7.64,4.14-9.94,8.09-7.31,16.19c5.15,15.82,11.03,31.4,16.63,47.07c0.21,0.6,0.75,1.07,1.08,1.64c1.44,2.49,6.87,2.86,8.87,0.49
	c1.71-2.02,3.41-4.08,4.82-6.31c14.76-23.41,36.91-37.99,60.6-50.7c1.75-0.94,3.76-1.37,5.57-2.2
	c14.09-6.48,23.48-16.74,27.59-32.11c4.65-17.39,11.32-34.09,19.29-50.28c10.38-21.09,23.39-40.42,39.53-57.41
	c16.66-17.53,36.78-30.76,57.88-42.29c21.69-11.85,44.41-21.64,68.73-26.48c20.11-4,35.13-15.21,48.26-29.94
	c4.43-4.97,9.03-9.82,13.19-15.01c19.12-23.78,43.41-41.14,69.5-56.28c15.55-9.02,31.36-17.62,46.71-26.97
	c8.47-5.16,16.74-10.66,23.18-18.73c5.99-7.51,10.04-15.55,12-24.84c4.95-23.45,10.53-46.78,14.77-70.35
	c4.04-22.5,11.86-43.62,20.59-64.53c5.89-14.11,12.33-28.01,16.31-43.27c-12.09-26.03-25.77-51.04-44.64-72.9
	c-3.04-3.52-6.26-6.95-9.74-10.03c-9.34-8.29-19.12-8.89-28.92-1.5c-5.29,3.99-10.54,8.27-14.91,13.22
	c-10.57,11.99-20.9,24.23-30.79,36.79c-10.75,13.65-19.54,28.56-26.47,44.54c-2.38,5.49-5.18,10.81-7.82,16.19
	c-1.25,2.54-3.47,4.82-6.07,3.94c-2.14-0.72-4.1-3.21-5.27-5.38c-3.87-7.21-5.15-15.23-5.17-23.22c-0.05-21.98-0.75-44.05,0.9-65.93
	c3.2-42.54,20.21-79.72,47.77-112.06c10.46-12.27,23.45-21.9,37.08-30.22c10.53-6.42,22.96-8,34.76-3.71
	c21.88,7.95,43.76,16.18,62.87,29.97c11.35,8.19,22.53,16.61,33.64,25.11c14.39,11.02,26.51,24.26,36.97,39.02
	c6.29,8.88,12.37,11.33,19.42-0.25c4.84-7.95,10.49-15.41,15.57-23.23c15.74-24.21,34.49-45.72,57.18-63.64
	c14.73-11.63,30.63-21.2,48.58-27.17c8.94-2.97,18-4.46,27.43-4.68c9.82-0.23,18.19,2.8,25.97,8.62
	c10.8,8.08,19.68,17.97,27.62,28.69c15.65,21.13,26.29,44.77,33.03,70.09c3.59,13.49,6.12,27.27,9.09,40.93
	C1590.67,154.2,1591.86,160.07,1592.75,164.3z M1740.08,2302.39c1.73-0.63,3.98-0.77,5.09-1.97c5.44-5.85,11.25-11.53,15.63-18.13
	c5.11-7.71,9.62-16.02,13.05-24.6c5.21-13.02,1.23-24.39-10.31-33.51c-3.09-2.44-8.9-1.1-10.05,2.68
	c-3.12,10.24-6.97,20.06-13.26,28.88c-2.74,3.84-3.68,8.51-3.18,13.35c1.17,11.22,2.31,22.44,3.45,33.66
	c-0.99,0.55-2.5,0.9-2.81,1.71c-0.27,0.71,0.8,1.94,1.27,2.94c0.39-0.48,1.06-0.93,1.13-1.45
	C1740.25,2304.79,1740.1,2303.58,1740.08,2302.39z M328.06,1072.78c0.06,14.98,4,29.15,8.11,43.21
	c3.33,11.39,17.04,14.31,25.46,5.82c2.81-2.84,6.1-5.42,8.16-8.74c6.26-10.11,16.52-15.29,25.82-21.54
	c8.25-5.54,17.47-9.64,25.75-15.14c12.17-8.09,24.98-15.09,36.86-23.78c11.12-8.13,24.16-13.73,36.63-19.9
	c10.08-4.99,18.3-10.65,18.25-23.57c-0.02-4.5,2.35-8.95,3.06-13.51c1.74-11.17,2.99-22.43,4.72-33.6c4.68-30.27,9.3-60.55,18.21-90
	c2.31-7.62,3.41-15.61,4.86-23.47c0.48-2.58,0.38-5.29,0.39-7.93c0.01-3.39-3.4-6.57-6.59-5.68c-8.94,2.51-17.95,4.91-26.65,8.14
	c-32.02,11.9-62.24,27.08-88.68,49.14c-49.44,41.25-81.6,92.56-91.65,156.78C329.53,1056.88,328.94,1064.85,328.06,1072.78z
	 M1054.94,1118.56c-1.34-12.37-3.93-23.58-11.85-33.52c-14.89-18.69-28.97-38.02-43.4-57.08c-0.8-1.05-1.67-2.06-2.55-3.05
	c-2.02-2.28-7.5-2.66-8.94-0.32c-5.59,9.11-12.23,17.26-20.31,24.3c-2.15,1.87-2.15,4.88-0.49,7.29c1.49,2.15,3.15,4.38,5.23,5.89
	c6.96,5.08,14.06,9.99,21.28,14.71c3.32,2.17,6.77,3.85,9.08,7.43c10.67,16.58,27.78,26.07,42.63,38.02
	c1.21,0.97,3.92,0.95,5.5,0.32C1052.68,1121.93,1053.7,1119.94,1054.94,1118.56z M1736.05,1373.41c0.88-15.82,2.23-31.5-2.77-46.88
	c-0.28-0.87-1.95-1.28-2.98-1.91c-7.11,22.71-7.23,25.23-1.63,42.17C1729.73,1369.98,1731.28,1372.83,1736.05,1373.41z"/>
</svg>
