<?xml version="1.0" encoding="utf-8"?>
<!-- Generator: Adobe Illustrator 23.1.0, SVG Export Plug-In . SVG Version: 6.00 Build 0)  -->
<svg version="1.1" id="Layer_1" xmlns="http://www.w3.org/2000/svg" xmlns:xlink="http://www.w3.org/1999/xlink" x="0px" y="0px"
	 width="2169.86" height="3007.68" viewBox="0 0 2169.86 3007.68" style="enable-background:new 0 0 2169.86 3007.68;" xml:space="preserve">
<path d="M1701.18,2910.98c-37.9,11.17-74.51,16.13-112.13,10.73c-6.41-0.92-9.74,1.98-10.8,8.71c-1.14,7.2-2.1,14.43-3.4,21.59
	c-0.17,0.93-1.88,2.18-2.9,2.21c-1.82,0.05-4.25-0.15-5.35-1.29c-1.77-1.82-2.73-4.45-3.91-6.8c-2.37-4.7-4.66-9.43-6.58-13.34
	c-7.45-3.45-14.25-2.57-20.81-2.28c-22.09,0.99-43.82-3.19-65.75-4.32c-5.18-0.27-10.58-1.86-15.3-4.06
	c-10.52-4.9-21.36-6.42-32.88-6.58c-10.59-0.15-21.22-1.71-31.72-3.37c-27.43-4.32-45.35-20.66-56.29-45.53
	c-5.94-13.51-8.62-27.96-12.23-42.13c-5.59-21.93-10.16-44.15-16.5-65.85c-5.21-17.82-11.69-35.28-19.15-52.4
	c-10.46-24.02-24.17-45.83-40.41-66.29c-7.84-9.88-14.65-20.64-21.42-31.31c-9.14-14.41-12.42-30.72-14.22-47.42
	c-1.82-16.87,0.56-33.27,6.33-49.07c2.25-6.16,5.52-12.16,9.38-17.47c7.44-10.24,16.06-19.5,25.65-27.89
	c28.66-25.07,44.93-57.33,53.08-93.96c1.42-6.39,0.91-13.25,0.96-19.9c0.16-21.98-0.45-43.99,0.42-65.95
	c0.92-23.4,6.18-46.15,14.02-68.21c10.96-30.85,30.46-55.97,53.67-78.48c11-10.67,22.12-21.21,33.24-31.75
	c6.49-6.15,7.78-13.79,6.11-22.04c-0.92-4.54-2.24-9.15-4.29-13.28c-6.49-13.12-12.6-26.54-20.37-38.89
	c-9.04-14.39-14.39-29.9-18.25-46.15c-0.92-3.88-1.52-7.84-2.55-11.69c-1-3.73-5.79-5.93-9.71-4.73c-1.27,0.39-2.6,0.67-3.76,1.28
	c-15.89,8.29-32.99,10.19-50.46,8.72c-5.62-0.48-10.63,0.38-15.57,2.24c-21.13,7.96-43.14,8.45-65.11,6.79
	c-16.73-1.26-32.53-6.74-46.74-16.15c-9.62-6.37-17.46-14.44-23.33-24.32c-10.34-17.42-16.5-36.3-19.04-56.36
	c-0.67-5.27-0.4-10.45,0.74-15.82c1.36-6.4,1.22-13.15,1.36-19.76c0.04-1.83-0.82-4.01-1.99-5.43c-1.15-1.39-3.2-2.7-4.9-2.76
	c-1.68-0.06-4.23,1.03-4.98,2.39c-3.51,6.39-7.08,12.85-9.61,19.66c-7.13,19.26-16.35,37.61-20.76,58.06
	c-6.32,29.26-15.38,57.91-20.44,87.5c-0.34,1.96-0.56,4.09-1.51,5.76c-7.22,12.89-10.37,27.35-15.92,40.87
	c-8.36,20.38-18.51,39.67-32.02,57.34c-15.41,20.16-31.38,39.72-49.46,57.54c-2.84,2.8-5.75,5.68-7.86,9.02
	c-10.68,16.88-21.41,33.78-28.64,52.53c-6.47,16.76-12.35,33.64-16.02,51.37c-3.36,16.25-7.83,32.38-13.28,48.06
	c-8.89,25.61-23.33,47.79-44.94,64.73c-14.76,11.58-27.6,25.04-39.61,39.39c-7.66,9.16-15.5,18.13-22.51,27.84
	c-10.04,13.89-16.05,28.83-15.77,46.25c0.25,15.32-0.4,30.65-0.31,45.98c0.07,10.98-2.6,21.24-8.15,30.49
	c-7.31,12.17-11.02,25.64-15.42,38.89c-4.26,12.82-5.05,26.11-4.57,39.5c0.28,7.74,2.91,10.23,11.41,10.38
	c10.66,0.19,21.33,0.12,31.99,0.09c29.32-0.09,58.6,0.44,87.84,3.01c38.53,3.38,76.68,8.85,114.36,17.85
	c55.97,13.37,109.44,33.4,160.93,58.88c20.94,10.36,40.98,22.2,59.26,36.91c10.44,8.41,19.8,17.87,28.33,28.11
	c6.86,8.23,12.39,17.3,13.99,28.3c2.14,14.73-2.3,27.67-10.67,39.46c-5.04,7.1-11.16,13.23-18.48,18.09
	c-16.71,11.11-34.27,20.33-53.72,25.92c-23.05,6.63-45.87,14.2-69.85,16.71c-22.58,2.36-45.18,2.66-67.65-1.4
	c-5.59-1.01-7.95-7.31-4.59-12.24c1.1-1.61,2.39-3.33,4.01-4.3c2.83-1.69,5.93-2.98,9.01-4.2c26.1-10.32,46.99-27.41,64.17-49.31
	c1.64-2.09,3.08-4.35,4.44-6.63c4.92-8.26,3.79-14.83-4.02-20.99c-7.34-5.79-15.31-10.67-24.09-14
	c-11.2-4.25-22.36-8.68-33.78-12.28c-30.48-9.61-61.18-18.48-92.44-25.28c-40.12-8.73-80.47-10.29-121.12-4.69
	c-4.62,0.64-9.25,1.24-13.88,1.77c-6.26,0.72-11.14,4.04-15.63,8.13c-1.79,1.63-2.1,5.44-0.62,7.32c0.81,1.04,1.4,2.43,2.45,3.08
	c6.94,4.35,11.92,10.45,16.11,17.33c0.69,1.13,1.61,2.12,2.46,3.15c3.96,4.76,8.75,6.3,14.15,4.27c3.73-1.4,7.25-3.41,11.01-4.71
	c11.33-3.94,22.25-3.47,32.25,3.89c7.51,5.52,15.09,10.89,20.78,18.55c7.53,10.14,14.98,20.43,23.35,29.86
	c16.06,18.1,20.81,39.71,21.16,62.9c0.07,4.62-0.3,9.31-1.1,13.85c-0.27,1.53-2.32,3.43-3.91,3.86c-1.64,0.44-4.1-0.17-5.53-1.23
	c-4.71-3.5-6.03-11.35-12.76-11.84c-5.83-0.42-11.85,1.02-17.72,2.03c-20.59,3.55-41.05,3.33-61.56-0.91
	c-10.76-2.23-20.43-5.89-27.62-14.62c-1.24-1.51-2.84-2.76-4.38-4c-1.55-1.24-6-0.72-7.52,0.73c-0.48,0.46-1.14,0.79-1.46,1.33
	c-6.13,10.25-12.83,20.24-12.4,33.01c0.3,8.7-0.37,17.36-4.11,25.37c-0.66,1.42-3.08,2.77-4.7,2.79c-1.69,0.01-4.2-1.22-4.94-2.64
	c-3.05-5.89-5.31-12.18-8.36-18.07c-2.68-5.18-7.31-7.54-13.26-6.97c-1.32,0.13-2.69,0.07-3.97,0.37
	c-16.65,3.95-33.17,0.86-49.63-1.19c-11.39-1.42-21.66-6.19-30.44-13.81c-2.51-2.18-4.89-4.54-7.51-6.57
	c-9.83-7.59-19.95-6.26-27.72,3.75c-2.44,3.15-4.29,6.74-6.6,10c-3.06,4.31-6.32,8.5-9.35,12.56c-3.94,2.03-6.32-1.29-9.35-2.05
	c-3.78-0.95-7.89-2.02-11.63-1.47c-16.78,2.48-33.26-0.87-49.76-2.44c-9.86-0.94-19.5-4.1-26.32-12.62c-1.99-2.49-5.24-4.02-8-5.86
	c-22.01-14.62-34.01-34.98-35.4-61.47c-0.24-4.63-0.12-9.38-1.17-13.83c-0.49-2.08-3.13-4.55-5.26-5.13
	c-3.76-1.02-7.89-0.96-11.85-0.94c-18.66,0.11-37.41-0.71-55.95,0.86c-19.86,1.68-39.88,1.71-59.6,5.52
	c-10.41,2.01-21.16,2.74-31.79,3.05c-60.17,1.77-119.79-2.66-178.82-15.19c-22.82-4.85-45.3-10.73-67.75-16.97
	c-18.33-5.1-33.87-15.27-49.91-24.66c-1.65-0.97-3.04-2.65-4.11-4.28c-4.73-7.22-9.46-14.45-13.87-21.87
	c-6.96-11.72-8.7-25.02-11.1-38.13c-3.08-16.85-0.05-33.2,4.14-49.35c1.48-5.69,3.86-11.55,7.32-16.24
	c8.28-11.24,17.26-21.87,28.27-30.82c39.99-32.5,85.48-53.66,134.86-67.27c20.61-5.68,41.59-9.25,62.66-12.31
	c21.74-3.16,43.56-5.75,65.37-8.31c6.72-0.79,11.25-4.3,13.9-9.98c3.93-8.43,7.66-17.02,10.71-25.8
	c11.94-34.37,16.53-70.01,15.62-106.17c-0.43-17.21-3.44-34.43-6.18-51.5c-3.05-19.06-7.28-37.92-10.68-56.93
	c-1.76-9.82-3.04-19.74-4.21-29.65c-2.64-22.47-4.52-45-8.78-67.3c-2.1-11.01-1.74-22.57-1.74-33.89c0-40.65,0.28-81.31,0.54-121.96
	c0.24-36.81,6.43-72.85,13.56-108.85c12.21-61.69,32.35-120.89,55.11-179.25c13.56-34.77,29.98-68.25,48.39-100.78
	c22.05-38.96,47.72-75.35,75.66-110.23c3.75-4.68,7.32-9.52,11.2-14.08c4.33-5.08,4.51-10.88,3.52-16.97
	c-0.21-1.31-0.61-2.6-1.06-3.85c-4.97-13.77-9.52-27.72-15.06-41.26c-8.56-20.91-17.83-41.54-26.74-62.31
	c-1.58-3.67-2.82-7.48-4.34-11.18c-6.34-15.38-12.38-30.89-19.17-46.07c-10.17-22.75-15.6-46.5-17.92-71.27
	c-1.75-18.62-2.29-37.21-2.33-55.87c-0.03-14.14-4.66-27.54-7.58-41.17c-3.22-15-6.39-29.99-7.7-45.26
	c-1.73-20.17,0.04-39.76,9.64-58.25c6.47-12.45,10.16-26.04,12.37-39.88c2.42-15.19,6.17-30,11.33-44.46
	c6.29-17.62,10.77-35.65,13.19-54.22c0.86-6.59,2.53-13.08,3.74-19.63c1.33-7.19,1.98-14.29,1.48-21.75
	c-1.2-18.17,2.28-35.92,8.81-52.81c10.56-27.31,21.38-54.66,37.92-79c10.97-16.14,14.27-33.95,16.18-52.63
	c1.42-13.9,3.83-27.69,5.76-41.54c2.8-20.15,10.85-38.54,20.83-55.83c9.95-17.25,21.11-33.77,35.77-47.83
	c15.1-14.48,31.82-26.04,50.61-35.07c16.8-8.07,33.11-17.19,51.38-21.76c6.14-1.54,10.42-5.82,14.34-10.39
	c9.54-11.11,18.67-22.58,28.47-33.46c15.18-16.85,31.37-32.65,50.47-45.19c9.47-6.21,18.75-12.71,28.1-19.1
	c8.87-6.05,16.25-13.58,23.33-21.68c10.83-12.37,17.07-26.85,22.03-42.13c0.61-1.89,0.77-3.92,1.13-5.89
	c7.33-39.45,24.62-74.32,48.19-106.48c7.85-10.7,14.93-22.05,21.52-33.58c18.88-33.03,43.48-60.49,76.07-80.47
	c3.97-2.44,8.02-4.77,11.87-7.39c5.09-3.46,4.36-9.51-1.27-12.72c-6.56-3.75-13.49-5.35-21.08-4.71
	c-39.28,3.28-78.16,8.71-115,23.62c-20.35,8.24-40.34,17.37-60.48,26.11c-3.66,1.59-7.24,3.4-10.97,4.8c-1,0.37-3.04-0.02-3.53-0.76
	c-0.99-1.51-1.95-3.63-1.65-5.26c0.47-2.51,1.62-5.13,3.17-7.18c9.7-12.77,20.28-24.72,33.49-34.06c3.8-2.69,7.64-5.34,11.43-8.05
	c4.08-2.92,6.61-7.87,4.86-9.76c-3.18-3.43-7.31-2.9-11.18-1.8c-5.11,1.46-10.16,3.23-15.11,5.17
	c-30.46,11.98-59.34,27.03-86.61,45.14c-3.88,2.58-7.67,5.34-11.74,7.57c-1.55,0.85-4.16,1.24-5.61,0.5
	c-2.54-1.29-3.23-4.43-2.42-6.92c1.62-5.01,3.38-10.11,6.01-14.63c10.76-18.48,23.33-35.67,38.15-51.15
	c27.55-28.78,59.96-50.53,96.13-67C906.49,13.5,945.09,4.48,985.21,0.52c19.33-1.91,36.99,1.45,54.04,10.19
	c16.68,8.55,32.1,18.93,46.63,30.74c4.61,3.75,9.56,7.12,14.49,10.45c20.44,13.82,40.53,28.12,57.8,45.87
	c6.94,7.13,12.97,15.15,19.42,22.76c4.77,5.63,9.96,10.27,17.41,12.71c10.09,3.31,19.84,7.75,29.53,12.13
	c15.23,6.89,29.63,15.13,42.21,26.37c6.44,5.76,13.56,10.77,20.08,16.45c2.95,2.57,5.98,5.56,7.65,9
	c5.71,11.75,15.21,20.09,24.54,28.64c4.41,4.04,9.43,7.53,13.32,12.01c18.97,21.87,42.02,38.78,65.81,54.82
	c2.76,1.86,5.37,3.99,8.26,5.62c15.33,8.63,21.96,22.81,24.2,39.23c2.46,18.05,0.74,35.79-5.85,53.05
	c-4.32,11.33-11.3,20.04-23.02,23.07c-11.11,2.87-16.98,9.46-19.69,20.05c-2.53,9.89-9.32,17.43-15.1,25.41
	c-3.69,5.1-9.95,6.82-15.88,7.52c-13.36,1.57-26.12,1.28-38.1-7.36c-17.27-12.44-37.12-17.54-58.55-15.87
	c-7.41,0.58-14.46,2.35-21.17,5.43c-5.91,2.71-7.15,10.95-1.98,14.92c10,7.7,20.05,14.94,33.34,16.85
	c36.3,5.21,68.32,21.43,99.15,40.33c20.64,12.65,34.68,30.51,43.14,53.24c8.2,22.01,13.42,44.58,14.94,67.96
	c0.36,5.47,1.73,10.39,3.86,15.33c7.17,16.68,11.32,34.01,11.7,52.29c0.3,14.63,1.82,29.24,2.06,43.87
	c0.69,42.4-13.78,79.54-39.96,112.45c-2.07,2.6-4.28,5.11-6.19,7.83c-3.61,5.16-4.46,10.6-3.04,17c4.78,21.53,6.84,43.44,5.89,65.44
	c-0.48,11.23-2.71,22.48-5.22,33.48c-2,8.75-1.54,16.83,0.56,25.51c6.56,27.2,11.84,54.62,12.26,82.82
	c0.21,14.01,3.34,27.79,7.57,41.14c4.82,15.23,9.84,30.44,15.71,45.29c14.72,37.24,26.08,75.47,35.22,114.41
	c8.06,34.35,16.11,68.7,23.98,103.09c2.23,9.73,4.08,19.57,5.55,29.44c1.02,6.86,3.94,12.38,8.16,17.8
	c22.52,28.89,44.49,58.21,67.16,86.98c24.88,31.57,44.77,66.14,63.08,101.75c23.04,44.82,37.39,92.53,46.47,141.85
	c5.54,30.11,9.88,60.45,14.65,90.7c0.72,4.59,0.88,9.28,1.22,13.93c1.01,13.94,2.29,27.88,2.88,41.84
	c0.6,14.1,3.55,27.32,8.42,40.73c8.16,22.49,14.31,45.74,20.54,68.88c2.4,8.92,2.95,18.39,3.92,27.65
	c1.14,10.84-2.34,21.18-4.99,31.37c-7.14,27.39-21.2,51.63-36.55,75.12c-2.16,3.31-4.94,6.32-7.83,9.05
	c-16.8,15.95-27.68,35.81-36.37,56.78c-17.05,41.17-40.84,77.66-72.02,109.49c-20.98,21.41-41.33,43.44-62.21,64.95
	c-8.02,8.26-14.47,17.34-18.75,28.01c-9.41,23.45-20.76,46.18-25.85,71.22c-0.79,3.87-2.75,7.49-4.01,11.28
	c-5.25,15.88-4.56,31.31,2.83,46.54c11.92,24.54,22.88,49.56,35.41,73.77c10.07,19.47,19.5,39.34,32.16,57.45
	c4.53,6.47,7.39,14.13,10.86,21.31c4.13,8.54,9.01,16.03,18.3,20.21c6.67,3,11.87,8.33,16.71,14.01
	c4.73,5.53,9.82,11.01,15.67,15.26c12.49,9.07,25.81,16.37,42.3,14.52c5.92-0.66,12,0.11,17.98-0.15
	c6.98-0.31,13.27,1.35,18.54,5.92c4.66,4.05,10.07,6.22,15.92,7.89c10.33,2.93,19.71,7.81,28.53,14.02
	c14.11,9.94,23.39,23.4,30.25,38.92c4.16,9.43,4.47,19.37,4.58,29.38c0.01,1.32,0.14,3.05-0.59,3.89
	c-6.44,7.38-4.12,16.39-5.01,24.82c-0.19,1.77-0.9,4.07-2.18,5c-2.48,1.81-5.16,0.28-7.26-1.36c-4.21-3.27-8.19-6.83-12.35-10.14
	c-2.6-2.07-5.28-4.05-8.09-5.82c-4.59-2.89-9.09-1.04-10.5,4.2C1702.89,2903.71,1702.17,2906.91,1701.18,2910.98z M856.27,1315.35
	c0-12.07,0.29-23.36-0.07-34.64c-0.59-18.61-2.15-37.14,3.24-55.5c2.6-8.87,3.51-18.26,4.99-27.45c2.1-13.09-0.44-25.01-8.68-35.75
	c-6.13-7.99-12.8-15.23-21.12-21.02c-11.47-7.98-22.67-16.34-34.06-24.42c-15.93-11.3-30.16-24.02-38.04-42.59
	c-1.51-3.56-4.26-6.71-6.85-9.69c-4.56-5.25-9.37-5.03-13.19,0.25c-0.39,0.54-0.83,1.05-1.16,1.62
	c-11.94,20.22-27.72,37.35-43.81,54.21c-8.27,8.67-16.72,17.17-24.77,26.04c-12.46,13.73-17.1,29.69-12.31,47.89
	c1.69,6.41,3.63,12.77,5.82,19.02c8.14,23.34,14.49,47.09,15.5,71.9c0.54,13.29,0.59,26.65-0.06,39.94
	c-0.74,15.26-1.42,30.5-4.17,45.67c-2.85,15.67-3.96,31.65-5.56,47.53c-0.46,4.6-0.15,9.3,0.1,13.93c0.24,4.37,4.83,6.39,8.92,4.03
	c2.3-1.33,4.53-2.78,6.69-4.32c17.9-12.76,36.67-24.14,55.76-35c13.87-7.9,27.92-15.49,41.76-23.45
	c12.68-7.3,25.51-14.43,35.63-25.37c1.33-1.44,2.91-3.28,4.64-3.64c7.98-1.65,11.92-7.93,16.62-13.49
	C846.35,1326.02,850.94,1321.23,856.27,1315.35z"/>
</svg>
