<?xml version="1.0" encoding="utf-8"?>
<!-- Generator: Adobe Illustrator 24.0.2, SVG Export Plug-In . SVG Version: 6.00 Build 0)  -->
<svg version="1.1" id="Layer_1" xmlns="http://www.w3.org/2000/svg" xmlns:xlink="http://www.w3.org/1999/xlink" x="0px" y="0px"
	 width="1656.1" height="1890.22" viewBox="0 0 1656.1 1890.22" style="enable-background:new 0 0 1656.1 1890.22;" xml:space="preserve">
<style type="text/css">
	.st0{fill:#1A1A1A;}
</style>
<path d="M1227.55,1268.48c-1.51,3.7-2.59,6.82-4.03,9.77c-2.21,4.56-3.07,9.35-3.81,14.35c-3.87,26.15-1.95,52.44-2.14,78.67
	c-0.02,3.33,0.03,6.63-0.55,9.91c-2.7,15.41-2.28,30.66,0.3,46.18c2.12,12.75,1.33,25.88-0.86,38.76
	c-1.73,10.13-5.02,19.99-5.2,30.4c-0.02,1.29-0.55,2.6-0.95,3.86c-1.44,4.48-4.28,7.06-7.51,6.66c-3.88-0.47-5.52-3.49-6.72-6.64
	c-0.57-1.49-0.47-3.26-0.5-4.91c-0.09-6-0.37-12.01-0.08-17.99c0.26-5.45-0.53-10.67-2.56-15.61c-7.45-18.18-11.56-37.4-17.63-56
	c-1.55-4.74-3.57-9.2-6.69-13.27c-5.47-7.12-10.47-14.59-15.64-21.95c-2.45-3.5-5.56-6.67-5.06-11.56c0.12-1.18-0.44-2.88-1.31-3.64
	c-6.18-5.49-12.37-11.06-21.3-12.83c-4.92,7.5-10.22,14.23-9.31,23.72c0.46,4.77-2.04,9.04-3.53,13.43
	c-2.13,6.27-4.23,12.47-5.58,19.04c-1.59,7.73-4.77,15.19-7.8,22.55c-1.06,2.57-3.87,4.39-5.69,6.7
	c-4.11,5.21-8.04,10.57-12.17,15.77c-4.16,5.23-7.87,12.84-9.14,18.76c-0.34,1.6-1.37,3.03-1.86,4.61c-1.42,4.6-0.46,7.67,4.05,8.45
	c5.77,0.99,8.8,4.85,11.06,9.06c5.82,10.83,11.63,21.71,15.05,33.66c0.87,3.02,1.55,5.82-0.17,8.62
	c-3.45,5.61-4.36,12.64-9.65,17.23c-1.69,1.47-1.47,3.46-1.63,5.48c-0.47,6.23-2.72,11.54-8.53,14.79c-4.26,2.39-7,7.05-12.39,7.94
	c-1.39,0.23-1.85,2.59-1.91,4.87c4.06-1.73,8.01-0.87,10.13,2.5c2.38,3.78,5.39,4.35,9.21,4.31c12.58-0.16,25.22,1.33,37.69-1.5
	c1.38-0.31,2.52,0.12,3.81,0.47c4.65,1.25,9.29,2.69,14.27,1.67c1.88-0.39,1.94-0.09,5.65,3.68c-4.08,5.42-11.85,7.39-14.71,14.87
	c2.89,1.59,5.64,0.92,8.31-0.08c12.1-4.53,25.08-6.25,36.95-11.53c3.08-1.37,5.8-1.24,7.93,2.21c-0.81,8.6-11.52,10.96-12.3,21.12
	c0.23,0.79,2.44,0.5,4.34,0.76c4.61,0.65,9.24,1.1,13.81,1.94c8.1,1.48,15.07,0,20.79-6.42c3.08-3.46,6.58-6.6,10.16-9.56
	c3.01-2.5,6.2-4.97,10.25-5.41c2.7,4.4,0.79,7.93-1.02,11.54c-1.83,3.64-1.76,3.68-1.06,8.79c10.01,0.46,19.08-2.03,25.45-10.11
	c5.1-6.48,11.44-12.04,14.96-19.81c1.52-3.35,3.21-3.83,13.31-8.07c2.14,1.01,3.74,2.65,5.05,4.55c-0.35,6.78-8.35,10.63-6.72,18.11
	c1.86,0.85,4.02,0.9,5.53-0.19c4.14-2.99,9.01-4.43,13.62-6.04c6.18-2.16,9.41-6.4,12.77-11.54c5.26-8.04,11.42-15.49,17.35-23.07
	c1.19-1.52,2.96-2.74,5.71-2.15c3.6,3,1.46,7.94,3.31,12.34c9.52-3.06,17.85-8.59,24.27-15.82c3.93-4.43,5.81-11.21,6.66-17.53
	c0.64-4.79,2.95-8.79,4.91-12.97c1.56-3.35,4.31-4.96,8.23-4.28c4.23,3.93,1.95,10.24,5.33,15.15c6.57-2.3,11.4-7.25,16.71-11.38
	c2.15-1.68,2.58-4.56,3.29-7.14c2.03-7.37,4.21-14.7,7.68-21.56c3.07-6.07,3.11-6.04,10.84-4.06c1.8,2.74-0.13,5.7-0.14,8.03
	c1.45,1.11,2.35,1.48,3.24,0.66c3.64-3.4,6.22-7.72,10.08-11c2.88-2.44,3.42-6.4,3.99-10.02c1.34-8.51,2.42-17.07,3.84-25.56
	c0.49-2.92,1.38-5.85,2.59-8.55c1.68-3.75,5.01-5.6,7.82-4.75c3.24,0.98,4.79,3.46,5.25,6.63c0.24,1.64,0.04,3.33,0.17,4.99
	c0.13,1.59,0.43,3.16,0.76,5.46c7.07-4.9,9.2-12.7,14.49-18.15c-1.73-9.8,0.07-19.34,1.05-28.9c0.34-3.27,1.34-6.55,2.56-9.62
	c1.22-3.07,2.93-6.07,6.77-6.5c2.5,0.66,2.97,2.57,2.93,4.66c-0.08,3.94,0.69,7.65,2.29,11.2c3.02-0.97,3.85-3.25,4.73-5.36
	c2.97-7.08,6.91-13.66,11.24-19.92c3.39-4.91,5.06-10.18,5.01-15.84c-0.1-11.57,3.61-22.22,7.31-32.86c1.29-3.72,3.11-7.4,6.95-9.45
	c3.56-1.9,6.75-0.58,7.57,3.29c0.27,1.28,0.12,2.65,0.31,3.96c0.13,0.92,0.51,1.81,0.79,2.75c1.9-0.64,2.78-2.22,3.25-3.68
	c3.68-11.17,11.83-20.08,15.71-31.08c1.41-4,1.48-8.47,2.24-12.72c1.35-7.51,2.75-15.01,4.14-22.51c0.18-0.98,0.36-1.98,0.73-2.9
	c2.44-6.1,5.12-11.92,13.68-9.52c4.4-11.7,7.82-23.01,8.24-35.09c0.17-4.98,0.77-9.94,1.29-14.9c0.85-8.08,2.97-15.19,13.23-15.26
	c2.31-13.53,3.94-26.68,6.91-39.52c2.85-12.29,4.92-24.7,7.11-37.09c1.21-6.85,2.36-13.77,2.67-20.7c0.39-8.78,3.17-16.92,5.46-25.2
	c1.5-5.42,3.17-10.69,0.88-17.03c2.16,1.77,3.28,3.28,4.73,3.76c2.9,0.96,4.48,2.83,4.98,5.63c1.06,5.97,3.9,11.22,6.2,16.72
	c4.07,9.77,7.02,19.95,10.34,30c4.74,14.38,4.14,28.77,3.55,43.38c-0.24,5.96,0.32,11.96,0.5,17.94c0.46,15.65-1.17,31.2-2.12,46.79
	c-0.42,6.97-0.42,13.97-0.54,20.95c-0.13,7.97,0.42,15.97-1.36,23.86c-0.43,1.93-0.91,4.07-0.5,5.92
	c2.56,11.47-0.37,22.5-3.04,33.36c-4.6,18.71-9.8,37.34-17.25,55.13c-6.29,15.03-12.53,30.07-18.42,45.25
	c-2.25,5.8-4.46,11.55-6.13,17.58c-1.29,4.69-4.56,8.81-6.66,13.32c-8.71,18.66-16.6,37.71-26.83,55.65
	c-9.22,16.17-18.08,32.54-27.48,48.6c-5.03,8.59-10.77,16.78-16.41,25c-8.46,12.34-15.7,25.48-24.76,37.43
	c-3.63,4.79-7.33,9.47-11.65,13.66c-5.23,5.08-9.76,10.79-14.51,16.3c-6.03,6.99-13.44,12.91-20.76,18.64
	c-33.86,26.46-69.32,50.59-106.48,72.2c-10.69,6.22-22.13,10.72-33.64,15.04c-23.35,8.76-47.41,15.06-71.57,21.19
	c-13.98,3.55-27.93,5.3-42.23,5.84c-5.57,0.21-11.09,1.86-16.61,2.98c-10.54,2.13-21.17,0.82-32.58,0.77
	c2.55,5.03,6.57,7.91,10.72,9.9c9.25,4.44,17.52,10.74,27.31,14.12c3.49,1.21,6.69,2.91,8.86,6.16c0.71,1.05,1.8,2.04,2.94,2.58
	c8.64,4.06,12.41,11.61,14.79,20.22c1.24,4.49,2.42,8.99,3.76,13.45c0.42,1.4,0.35,2.63-0.39,3.78c-0.52,0.82-1.27,1.5-1.85,2.15
	c-3.13,0.37-3.99-1.9-5.28-3.87c-1.63-2.5-3.4-4.95-5.41-7.15c-1.97-2.15-5.18-1.79-6.87,0.55c-0.57,0.79-0.9,1.77-1.25,2.7
	c-1.86,4.92-5.89,5.93-10.49,5.71c-1.63-0.08-3.23-0.69-4.85-1.05c-4.74-1.05-7.01,0.5-6.91,5.22c0.07,3.29,0.7,6.59,1.31,9.84
	c0.5,2.66,1.09,5.22-1.72,8.15c-3.17-3.52-6.35-7.4-12.62-7.82c-6.62,5.88-14.9,1.68-22.91,1.2c-3.92-0.24-5.88-4.07-8.94-6.74
	c-2.77,0.74-5.11,3.9-8.77,2.55c-2.73-1-4.78-3.89-8.57-2.93c-2.88,5.02-4.21,10.54-4.02,16.65c0.22,7.02-0.04,7.03-4.53,14.57
	c-2.83-5.54-5.97-10.44-11.21-13.68c-0.93,0.41-1.84,0.73-2.67,1.2c-6.68,3.74-10.52,4.04-14.95-1.45
	c-5.79-7.17-12.9-8.63-21.24-7.95c-1.99,0.16-4,0.1-6,0.01c-5.92-0.25-10.7,0.94-14.73,6.27c-3.31,4.37-8.13,7.8-13.41,10.6
	c-1.08,6.59,0.05,13.84-4.22,20.49c-7.74-2.95-4.98-11.82-9.96-16.3c-6.72,1.01-13.47,0.57-18.76-5.04
	c-2.87,0.85-4.76,4.22-8.12,2.67c-3.2-1.47-5.03-3.89-6.07-7.39c-2.58-8.66-6.82-16.63-13.43-22.78
	c-4.93-4.59-7.45-10.96-12.54-15.31c-1.68-1.43-1.32-3.66-1.33-5.63c-0.05-9.31-0.36-18.63,0.01-27.93
	c0.27-6.85-0.84-13.6-0.32-20.52c0.49-6.52-1.04-13.2-1.77-19.8c-0.21-1.89,0.3-4.23-1.86-5.32c-4.04-2.05-4.29-5.66-4.05-9.41
	c0.62-9.73-1.13-19.21-2.85-28.7c-0.18-0.98-0.87-1.94-0.78-2.87c1.05-12.04-6.77-19.46-13.94-27.29
	c-4.26-4.66-8.19-9.63-12.45-14.29c-8.52-9.33-17.73-18.1-25.66-27.9c-15.45-19.1-30.35-38.65-43.27-59.63
	c-6.67-10.83-12.21-22.11-16.25-34.17c-0.79-2.37-0.69-5.43-3.74-6.84c-3.58,3.41-3.93,7.39-2.06,11.63
	c1.07,2.42,2.43,4.75,3.91,6.95c4.16,6.2,6.46,13.03,7.72,20.35c0.83,4.81,1.57,9.39-3.37,12.41c-3.58,2.19-7.07,5.49-12.27,0.97
	c0.33,5.29-0.27,9.15-3.76,11.61c-3.13,2.21-6.69,2.82-10.48,1.84c-5.8-1.51-11.94,0.07-17.32-1.87c-7.11,3.13-8.81,8.58-7.81,15.53
	c0.37,2.59,0.13,5.31-0.14,7.93c-2.53,24.21-2.06,48.51-2.15,72.79c-0.09,23.99,0.7,48.01-0.35,71.95
	c-0.5,11.47,1.75,21.64,6.9,31.33c5.06,9.52,3.65,19.51,2.88,29.34c-0.41,5.21-1.28,10.44-1.13,16.06
	c-5.6,3.25-11.09,6.56-16.7,9.65c-2.88,1.59-4.2,4.12-5.12,7c-1.11,3.49-2.01,7.04-3.18,10.51c-0.63,1.87-1.51,3.69-2.48,5.42
	c-0.79,1.41-1.54,3-3.55,3.55c-4.28-3.34-4.76-8.39-5.14-13.25c-0.34-4.35-0.53-8.62-3.38-13.04c-5.6,2.65-11.9-1.22-17.74,2
	c-1.27,0.7-2.44-0.51-3.63-1.02c-2.54-1.08-5.46-1.5-7.8-0.38c-4.46,2.12-9.16,1.11-14.18,2.02c-1.64,1.95-3.3,4.44-5.47,6.38
	c-1.87,1.66-3.91,3.69-7,2.61c-4.24-1.49-5.77,1.47-7.6,4.43c-2.57,4.18-2.69,8.83-3.28,13.42c-0.29,2.3-0.17,4.67-0.7,6.9
	c-0.56,2.38-4.15,3.03-5.61,1.04c-1.35-1.86-2.43-3.96-3.35-6.07c-1.46-3.33-2.85-6.71-3.99-10.17c-1.59-4.83-3.56-9.21-8.59-11.49
	c-1.14-0.52-2.22-1.65-2.81-2.77c-2.28-4.34-6.24-5.83-10.63-6.38c-5.09-0.63-9.99,0.4-14.25,3.31c-3.55,2.43-7.13,4.96-10.15,7.99
	c-6.63,6.67-8.91,7.33-17.39,2.05c-4.63,2.34-5.76,6.7-6.57,11.39c-0.8,4.64-0.96,4.61-6.69,5.72c-4.42-10.02-3.35-21.12-5.87-31.89
	c-1.13-1.91-3.8-1.84-5.71-3.12c-3.72-2.49-7.5-2.21-10.95,0.8c-5.51,4.81-11.14,5.83-16.54,0.44c-6.42,1.42-4.25,9.01-8.97,11.53
	c-3.98-1.24-4.95-4.39-5.16-7.75c-0.66-10.49,0.84-20.67,6.15-29.85c3.81-6.58,7.72-13,11.01-19.94
	c4.45-9.37,12.13-16.6,21.74-21.25c7.87-3.81,14.66-9.04,20.95-15.07c3.92-3.76,6.74-7.94,8.69-13.12
	c7.03-18.66,13.87-37.43,22.05-55.58c4.17-9.25,6.72-18.52,8.27-28.38c2.07-13.18,7.6-25.44,11.06-38.27
	c2.34-8.7,3.09-17.62,4.51-26.46c0.58-3.65-1.47-6.23-3.44-8.83c-4.32-1.6-8.55,0.1-12.87,0.36c-2.79-1.99-4.76-4.68-6.44-7.49
	c-2.23-3.74-3.95-7.6-2.09-12.24c0.84-2.09,0.35-4.68,1.01-6.88c2.39-7.99-1.12-14.5-5.12-20.8c-1.67-2.64-1.62-4.83-0.33-7.42
	c3.07-6.15,7.92-10.64,13.44-14.5c1.9-1.33,3.91-2.56,5.98-3.6c3.64-1.83,4.89-5.12,3.38-8.34c-4.28-9.13-3.57-18.79-3.94-28.36
	c-0.22-5.71-1.69-11.12-3.15-16.6c-4.08-15.29-6.8-30.88-9.32-46.49c-0.21-1.3-0.32-2.44-1-3.63c-8.25-14.45-11.33-30.32-12.7-46.66
	c-1.67-19.85,1.92-38.97,8.65-57.48c1.87-5.16,5.59-9.68,8.74-14.31c1.11-1.63,2.45-2.58,1.73-5.08c-0.78-2.71,1.61-4.81,3.09-6.94
	c2.64-3.81,5.36-7.56,8.29-11.66c-6.89-7.35-13.58-14.62-19.02-23.26c-0.11,6,0.57,11.96-2.52,16.97c-1.82,0.77-3.32,0.39-4.08-0.6
	c-3.44-4.43-7.82-8.27-9.24-14.04c-0.24-0.96-0.76-1.84-1.09-2.78c-1.99-5.59-9.01-9.3-6.24-16.68c-1.89-5.67-3.95-11.29-5.63-17.01
	c-1.77-6.04-3.25-12.18-4.74-18.3c-1.41-5.8-2.75-11.62-3.97-17.46c-1.29-6.17-2.44-12.36-3.61-18.55c-0.31-1.63-0.12-3.45-0.77-4.9
	c-5.31-11.87-3.7-24.03-1.82-36.24c0.14-0.93-0.23-1.94-0.41-3.26c-8.25-5.13-18.59,0.79-25.83-5.03c-2.71,1.01-3.15,2.72-3.88,4.17
	c-4.96,9.8-9.88,19.61-14.83,29.42c-3,5.95-4.8,12.37-7.26,18.49c-5.19,12.88-11.69,25.23-17.4,37.91c-1.6,3.56-4.14,4.71-8.34,4.46
	c-4.58,21.23-12.4,41.49-15.62,62.89c-2.28,15.19-7.17,29.64-11.22,44.34c-1.57,5.72-5.46,10.34-7.07,16.22
	c-1.29,4.69-0.01,9.81-3.22,14.2c-6.06,8.32-11.44,17.13-17.49,25.46c-2.54,3.5-5.2,6.77-6.91,10.85
	c-6.67,15.88-13.75,31.6-20.25,47.55c-1.81,4.44-5.01,4.71-8.86,4.68c-1.67,16.29-1.44,32.24-0.82,48.15
	c0.19,4.97-0.19,8.92-4.81,11.73c5.26,2.69,6.87,5.35,3.95,8.22c-5.86,5.78-4.64,12.66-4.79,19.47c-0.1,4.62,0.52,9.34-2.93,13.31
	c-1.37,1.58-1.15,3.66-0.55,5.69c1.42,4.76,0.85,9.82,2.77,14.62c1.9,4.76-0.02,9.76-0.5,14.26c-3.19,1.99-5.15,0.45-6.59-1.35
	c-2.52-3.15-3.64-6.98-4.73-10.87c-5.92-20.97-8.22-42.37-8.13-64.09c0.03-7.33-0.14-14.67,0.05-21.99
	c0.18-7.09-1.68-13.82-3.11-20.64c-0.27-1.27-0.17-2.85-1.53-3.44c-5.04-2.2-4.63-6.49-4.82-10.93c-0.37-8.61-1.24-17.19-1.97-25.78
	c-0.11-1.29-0.18-2.98-0.98-3.75c-4.75-4.58-1.9-10.83-3.74-16.06c-0.98-2.8,2.26-4.55,3.77-7.39c-2.38-2.43-3.96-5.56-2.87-9.31
	c-3.1-0.93-5.38-1.81-6.88,1.87c-1.21,2.97-4.36,5.08-3.88,8.86c0.08,0.61-0.09,1.43-0.47,1.88c-8.69,10.18-7.89,23.57-11.76,35.36
	c-2.35,7.17-3.22,14.86-4.46,22.37c-1.24,7.52-1.79,15.17-3.27,22.64c-1.01,5.08-1.3,10.66-5.79,14.48
	c-1.69,1.44-1.57,3.57-1.61,5.57c-0.23,11.32-0.38,22.69,2.97,33.64c1.72,5.64-0.79,9.31-4.18,13.57
	c-5.71-5.26-6.14-12.5-9.27-20.35c-2.13,5.23-2.6,9.06-2.1,12.83c1.31,9.92-0.54,20,1.78,29.84c0.08,0.32,0.05,0.66,0.06,1
	c0.04,2.16-0.64,4.15-2.71,4.89c-2.73,0.98-4.39-0.96-5.52-3.07c-0.77-1.43-1.24-3.08-1.53-4.69c-1.26-6.84-2.79-13.67-3.49-20.57
	c-1-9.9-1.27-19.88-2.03-29.81c-0.75-9.89-1.82-19.73-2.24-29.67c-0.52-12.32,0.59-24.61-0.38-36.89
	c-0.75-9.54-1.33-19.09-1.97-28.48c-4.36-1.56-6.18,0.91-6.95,3.97c-1.29,5.15-2.62,10.39-2.97,15.65
	c-0.9,13.55-0.53,27.14,0.25,40.69c0.14,2.38,0.05,4.55-0.54,6.84c-2.05,7.87-1.58,15.93-0.84,23.85
	c1.17,12.54,3.08,25.02,4.58,37.53c0.1,0.82-0.65,1.75-1.22,3.15c-5.85-1.51-9.16-5.12-10.35-10.75c-1.92-9.1-3.82-18.21-5.52-27.35
	c-0.85-4.55-1.4-9.18-1.81-13.8c-0.24-2.78-1.42-5.11-2.64-7.47c-3.69-7.11-4.39-14.49-2.33-22.22c0.51-1.91,0.93-3.92,0.89-5.88
	c-0.23-10.3-0.62-20.6-0.95-30.78c-7.12-4.84-7.71-5.71-6.92-13.8c1.62-16.49,3.75-32.94,5.08-49.46
	c1.33-16.55,1.88-33.16,2.87-49.74c1.03-17.23,2.27-34.44,3.2-51.67c0.36-6.65,0.1-13.33,0.12-19.99
	c0.05-22.61,1.87-45.11,3.86-67.62c1.2-13.56,1.77-27.18,2.84-40.75c0.81-10.25,1.98-20.47,2.95-30.71
	c0.19-1.98,0.24-3.98,0.35-5.98c0.76-13.9,1.4-27.75,5.54-41.27c1.81-5.93,2.07-12.44,2.37-18.72c0.91-18.64,5.62-36.76,7.28-55.29
	c0.8-8.91,1.68-17.81,2.89-26.67c1.08-7.88,2.78-15.67,3.95-23.54c0.53-3.6,0.65-7.29,0.6-10.93c-0.18-12.03,0.91-23.74,4.81-35.32
	c2.63-7.8,3.76-16.19,4.85-24.41c2.74-20.74,7.7-41.07,11.05-61.69c0.48-2.94,0.91-5.91,1.05-8.89c0.62-13.29,2.74-26.21,7.04-38.93
	c2.96-8.75,3.93-18.16,5.97-27.24c3.85-17.16,8.29-34.2,11.63-51.45c3.78-19.51,9-38.7,12.05-58.41
	c1.74-11.28,4.17-22.74,8.32-33.72c2.65-7.02,3.34-14.83,4.6-22.33c1.11-6.57,2.83-12.92,4.75-19.31
	c3.73-12.42,9.71-23.84,14.52-35.77c5.34-13.24,9.22-27.11,15.11-40.09c9.25-20.38,14.37-42.09,21.84-63.04
	c3.46-9.71,7.18-19.3,11.13-28.8c6.75-16.25,11.82-33.06,17.2-49.78c4.67-14.53,9.81-28.91,14.86-43.31
	c4.84-13.78,9.62-27.6,14.83-41.24c7.93-20.76,16.38-41.33,24.28-62.11c3.55-9.33,7.67-18.28,12.26-27.15
	c3.76-7.26,5.55-15.55,8.73-23.24c2.33-5.63,5.09-10.74,8.89-15.37c3.12-3.8,5.75-7.89,7.02-12.64c1.4-5.22,3.59-9.8,7.29-13.9
	c1.9-2.1,2.34-5.15,6.21-5.36c2.2-0.12,4.62-2.09,4.94-4.45c0.85-6.28,4.23-11.91,4.44-18.31c0.26-8.31,0.91-16.64,0.68-24.93
	c-0.14-4.95-2.47-9.53-4.97-13.89c-2.46-4.29-4.57-8.77-7.03-13.55c3.72-1.98,7-0.37,10.11-0.64c2.97-0.26,5.99-0.04,8.99,0.01
	c1.78,0.03,3.14,0.97,4.35,2.16c1.19,1.16,2.26,2.48,3.57,3.49c6.98,5.37,10.59,14.48,19.55,17.65c4.75,6.01,9.18,12.24,12.86,18.97
	c2.09,3.82,3.79,7.72,4.15,12.17c0.18,2.29,0.73,4.62,1.54,6.78c4.43,11.79,5.19,24.02,4.43,36.41c-0.59,9.64-0.73,19.24-0.07,28.9
	c0.41,5.95-0.48,11.97-0.44,17.95c0.1,13.99-0.16,28.01,0.84,41.94c0.56,7.82,3.24,15.51,5.12,23.21c1.43,5.85,1.9,11.44,0.94,17.64
	c-1.81,11.71-2.46,23.65-2.89,35.52c-0.93,25.59-0.71,51.25-2.25,76.8c-2.59,42.93-1.85,85.86-1.22,128.79
	c0.19,13.07-0.94,25.89-3.16,38.73c-1.93,11.14-3.81,22.35-3.17,33.75c0.09,1.63,0.25,3.26,0.36,4.75c3.24,1.11,3.66-1.28,4.44-2.97
	c5.42-11.8,11-23.54,16.11-35.47c4.51-10.54,11.47-19.39,17.46-28.07c2.45-1.17,4.03-0.59,5.54,0.12c8.28,3.9,16.68,3.73,25.13,0.68
	c18.72-6.76,18.71-6.77,26.89-24.71c1.8-3.94,3.62-7.86,5.41-11.81c1.23-2.73,2.01-5.78,3.74-8.13c1.73-2.34,4.4-3.99,6.4-6.2
	c2.34-2.06,4.55,2.89,7.23-0.11c1.41-1.84,1.27-4.18,0.51-6.4c-0.79-2.31-0.61-4.43-0.22-6.81c0.96-5.84-0.27-7.49-5.54-9.9
	c-4.04-1.85-8.36-2.11-12.61-2.71c-3.34-0.47-6.56-0.93-8.23-4.77c2.2-4.54,7.92-5,10.76-10.06c0.85-4.8,2.43-10.61,3.38-16.42
	c1.37-8.36,1.82-17.08,0.18-25.48c-0.74-3.78-0.8-7.13,0.2-10.69c2.69-9.55,5.84-18.95,7.74-28.76c0.96-4.96,3.88-9.22,8.05-13.21
	c5.69-5.43,11.03-11.41,16.57-17.11c8.95-9.22,19.11-16.2,31.3-20.39c5.58-1.92,10.86-4.69,16.26-7.11
	c12.91-5.79,26.44-8.28,40.57-7.61c1.97,0.09,3.98,0.07,5.93-0.19c18.01-2.38,35.82,0.31,53.41,3.22
	c10.01,1.65,19.97,5.21,28.73,10.93c3.44,2.25,6.99,3.52,11.82,3.73c-1.93-9.51-1-18.74-1.38-27.94
	c-0.49-11.62-2.56-23.17-1.76-34.83c0.7-10.26,1.5-20.52,2.46-30.76c0.8-8.59,1.93-17.14,2.86-25.72
	c2.14-19.78,2.82-39.8,8.02-59.12c3.86-14.37,6.55-29.11,13.55-42.57c3.44-6.61,7.49-12.58,13.02-17.43
	c6.24-5.48,12.76-10.66,19.26-15.84c6.07-4.83,6.13-4.75,15.41-3.05c1.47,2.54-0.79,4.28-1.57,6.26c-1.95,4.94-4.11,9.8-6.24,14.68
	c-1.24,2.84-1.78,5.43-0.05,8.5c3.11,5.52,3.34,11.38,0.54,17.22c-2.21,4.6-1.99,9.74-3,14.6c-1.16,5.56-1.15,11.32,4.13,15.4
	c5.17,11.69,16.24,18.9,22.55,29.72c1.2,2.06,2.86,3.8,4.97,4.77c6.56,2.99,9.6,8.83,12.7,14.77c7.98,15.27,14.87,31.03,21.14,47.06
	c1.59,4.07,3.14,7.89,6.53,10.88c1.4,1.24,2.3,3.27,2.95,5.11c10.97,30.69,22.2,61.29,32.64,92.17c4.46,13.18,9.35,26.21,13.7,39.43
	c3.55,10.77,5.47,21.76,6.14,33.11c0.36,6.05,2.45,12,3.91,17.96c0.19,0.79,1.15,1.48,1.89,2.03c3.72,2.73,5.17,7.01,5.81,10.98
	c2,12.41,7.23,24.18,7.19,36.96c4.2,8.1,3.75,17.38,6.4,25.82c12.32,39.3,24,78.8,32.95,119c6.12,27.51,12.61,54.93,18.99,82.38
	c0.45,1.93,0.42,3.97,0.74,5.93c1.2,7.4,1,14.95,5.42,21.81c2.38,3.7,2.53,8.86,3.58,13.39c4.38,18.74,8.99,37.43,12.99,56.25
	c2.47,11.66,3.99,23.51,5.94,35.28c0.98,5.9,2.07,11.78,2.89,17.7c0.95,6.91,2.39,13.49,5.87,19.8c3.89,7.05,3.86,15.36,4.95,23.22
	c4.29,30.89,8.46,61.8,12.65,92.71c2.37,17.42,4.13,34.94,7.24,52.22c2.48,13.8,1.94,27.79,4.1,41.57
	c2.26,14.41,3.9,28.94,6.58,43.27c2.2,11.75,3.97,23.55,5.45,35.39c3.82,30.61,8.09,61.16,12.97,91.62
	c1.47,9.16,2.24,18.44,3.13,27.68c1.42,14.86,3.28,29.7,3.86,44.6c0.98,25.25,2.3,50.48,3.01,75.74
	c0.34,11.92-0.72,24.05,1.06,35.72c2.19,14.42,0.06,28.44-1.94,42.25c-1.77,12.24-5.07,24.79-11.83,35.68
	c-3.08,4.95-4.64,11.02-10.11,15.03c-3.6-4.48-3.85-8.89-2.49-14.05c3.55-13.49,6.76-27.06,9.96-40.64
	c1.69-7.18,1.63-14.44,0.26-21.69c-0.19-1.02-0.71-1.77-1.74-2.08c-0.88-0.12-1.31,0.25-1.28,1.08c0.5,13.41-3.88,26.24-4.69,39.5
	c-0.12,2.02-0.38,4.2-2,5.49c-3.06,2.43-4.28,5.68-5.26,9.25c-0.42,1.53-1.46,2.95-2.44,4.24c-0.85,1.12-2.28,1.41-3.61,1.08
	c-1.37-0.33-2.22-1.4-2.5-2.8c-0.54-2.65-0.17-5.26,0.08-7.93c1.72-18.52,4.52-36.87,7.71-55.18c1.03-5.91,3.87-11.34,4.19-17.41
	c0.19-3.55,4.9-3.08,6.24-6.57c-7.84-4.1-11.85-10.11-9.11-19.23c0.32-1.06-0.79-2.49-1.07-3.78c-0.84-3.89-1.23-7.92-2.44-11.69
	c-3.98-12.38-5.59-25.23-7.91-37.94c-0.37-2.02-0.49-4.01-2.73-5.03c-2.31,1.67-3.1,4.42-2.49,6.94
	c2.46,10.19,0.84,20.55,1.58,30.81c0.62,8.6,1.05,17.25,1.61,25.88c0.11,1.66-0.03,3.46,0.57,4.93c4.27,10.45,2.93,21.56,4.25,32.36
	c0.94,7.74,0.94,15.08-1.67,22.45c-0.76,2.14-0.75,4.59-0.9,6.91c-0.14,2.15,0.6,3.84-2.43,5.5c-2.59,1.42-1.69,6-1.86,9.3
	c-0.58,11.67-4.5,22.74-6.32,34.2c-0.42,2.67-2.17,5.02-5.6,4.34c-3.31-0.66-3.88-3.27-3.9-6.08c-0.01-0.98,0.19-1.99,0.41-2.96
	c2.5-10.84,1.29-21.85,1.47-32.79c0.08-4.65,0.17-9.34,0.74-13.95c0.63-5.06,0.29-10.25-1.86-14.48c-3.6-7.11-4.47-14.47-4.44-21.93
	c-2.2-1.11-4.92-0.66-5.48-3.53c-0.76-3.89-2.18-7.78-2.19-11.67c-0.02-14.03-2.52-27.74-4.49-41.53c-0.28-1.96-0.46-4.08-1.34-5.79
	c-6.05-11.75-4.85-24.42-4.97-36.94c-0.03-3.65,0.11-7.28-1.14-10.86C1236.11,1267.51,1235.81,1267.25,1227.55,1268.48z
	 M707.3,899.92c-3.76,3.11-4.72,7.51-6.87,11.12c-1.76,2.95-3.75,4.51-7.24,5.82c-6.04,2.26-11.4,6.39-16.97,9.86
	c-2.13,1.33-2.44,3.85-3.24,6.02c-1.99,5.37-1.11,11.76-6.05,16.16c-0.88,0.79-0.21,3.19-0.49,4.8c-1.11,6.34,1.39,12.51,0.96,18.76
	c-0.7,10.17,2.05,20.17,0.68,30.48c-0.72,5.46-0.53,11.07-1.95,16.55c-0.99,3.79-1.43,7.76,0.56,11.41c2.95-0.18,5.67-0.56,6.56,3.4
	c2.6-3.95,3.77-7.97,4.34-12.28c0.48-3.66,1.51-7.57,4.86-9.35c3.08-1.64,3.74-4.29,5.12-6.85c5.17-9.6,6.82-20.81,14.13-29.86
	c-2.32-3.12-2.6-6.8-2.42-10.36c0.29-5.49-0.62-10.49-3.68-15.11c-0.69-1.05-1.61-2.7-1.24-3.57c2.34-5.52,0.63-11.95,4.24-17.56
	c5.35-1.84,11.13-3.9,11.52-11.32C710.45,911.94,711.72,905.69,707.3,899.92z"/>
</svg>
