<?xml version="1.0" encoding="utf-8"?>
<!-- Generator: Adobe Illustrator 24.0.2, SVG Export Plug-In . SVG Version: 6.00 Build 0)  -->
<svg version="1.1" id="Layer_1" xmlns="http://www.w3.org/2000/svg" xmlns:xlink="http://www.w3.org/1999/xlink" x="0px" y="0px"
	 width="453.9" height="1103.08" viewBox="0 0 453.9 1103.08" style="enable-background:new 0 0 453.9 1103.08;" xml:space="preserve">
<path d="M217.89,0c2.35,5.72,3.42,11.8,4.91,17.74c2.96,11.75,8.08,22.51,14.51,32.69c0.77,1.22,1.5,2.64,2.99,3.2
	c3.25-0.01,4.91-3.28,7.97-3.89c0.66,1.62-1.01,2.42-1.03,3.68c0.34,0.44,0.82,0.46,1.26,0.29c3.74-1.4,7.49-2.77,11.2-4.24
	c12.96-5.12,26.45-6.24,40.2-5.26c1.57,0.11,3.12,0.66,5.42,1.17c-4.79,2.53-9.51,2.95-13.75,4.69c-4.24,1.74-8.8,2.69-12.86,4.92
	c0.44,1.1,1.21,0.9,1.72,0.81c4.81-0.81,9.56,0.25,14.33,0.43c1.46,0.05,3,0.44,4.34,1.04c3.5,1.58,7.11,2.7,10.89,3.2
	c2.55,0.34,4.64,1.93,7.37,2.08c2.34,0.13,4.64,1.69,6.88,2.76c4.21,2.02,8.29,4.25,11.53,7.76c0.89,0.96,2.09,1.63,3.53,2.73
	c5.87-2.91,12.27-5.09,17.8-9.19c4.27-3.16,8.9-5.79,13.98-7.49c0.6-0.2,1.29-0.11,2.48-0.2c-0.74,5.21-1.22,10.23-2.19,15.15
	c-2.84,14.47-8.23,28.04-15.2,41c-1.79,3.33-2.93,6.65-1.75,10.48c0.48,1.56,0.53,3.25-0.24,5.08c-2.39-0.46-2-3.37-3.81-4.25
	c-1.46,0.89-2.45,2.17-2.56,3.91c-0.39,6.06-2.63,11.66-4.33,17.37c-1.17,3.9-0.88,7.55,0.48,11.23c0.64,1.71,1.45,3.36,2.22,5.02
	c1.07,2.31,2.61,4.16,4.9,5.46c1.16,0.66,2.66,1.23,3.31,3.42c-6.25-2.24-11.11-5.98-16.28-8.81c-1.26,0.71-0.7,1.5-0.6,2.27
	c0.54,4.47,0.63,8.96,0.4,13.46c-0.09,1.69-0.46,3.28-0.94,4.88c-0.45,1.54-1.64,1.25-2.94,1.23c-1.93,7.28-6.58,12.86-11.78,18.1
	c-2.67,2.69-5.7,5.09-7.56,8.79c11.61,3.53,22.94,7.26,31.81,15.29c0.15,2.56-1.51,3.38-2.76,4.37c-4.81,3.82-6.25,8.64-4.89,14.57
	c1.92,8.36,5.02,16.19,9.88,23.28c0.28,0.41,0.47,0.93,0.83,1.24c4.84,4.01,7.69,9.57,11.33,14.51c1.38,1.87,2.79,3.7,4.39,5.41
	c1.68,1.81,3.21,3.88,4.34,6.08c4.42,8.57,9.06,17.04,12.33,26.15c1.46,4.07,3.05,8.09,4.61,12.12c1.15,2.98,0.74,5.73-0.68,8.59
	c-2.76,5.55-6.84,9.85-12.07,12.96c-2.19,1.31-3.43,2.92-4.3,5.18c-4.17,10.91-7.36,22.04-8.6,33.7
	c-0.83,7.75-1.94,15.48-2.78,23.23c-0.27,2.47-0.08,4.99-0.12,7.49c-0.11,7.49-0.04,15-0.41,22.48c-0.34,6.96-1.17,13.89-1.75,20.83
	c-0.41,4.96-0.74,9.93-1.12,14.9c-0.2,2.68,0.28,5.19,1.04,7.8c2.14,7.34,3.94,14.78,5.81,22.19c1.43,5.64,2.8,11.3,4.94,16.73
	c0.55,1.38,0.84,2.87,1.18,4.33c1.16,5,0.76,6.66-2.78,11.2c1.3,2.31,2.72,4.72,4.02,7.19c8.87,16.78,16.87,33.91,23.28,51.85
	c3.13,8.76,6.46,17.43,8.9,26.41c4.49,16.53,8.02,33.27,10.48,50.23c0.26,1.81,0.31,3.65,0.38,5.48c0.89,21.3,0.95,42.62,0.55,63.93
	c-0.18,9.46-0.79,18.93-0.91,28.41c-0.03,2.48-0.09,5.07-0.83,7.4c-1.73,5.46-1.57,11.16-2.63,16.69c-0.28,1.46-0.48,3.01-0.31,4.47
	c0.82,7.23-1.96,13.72-3.96,20.37c-0.45,1.51-1.45,2.21-2.86,3c-3.73,2.1-7.19,4.7-10.7,7.07c0.45,1.63,1.63,1.23,2.47,1.45
	c7.43,1.96,14.62,4.37,21.16,8.61c4.12,2.67,7.74,5.76,10.61,9.68c0.72,0.98,1.55,1.72,2.46,2.4c9.9,7.4,17.4,16.86,23.75,27.34
	c1.94,3.2,2.57,6.66,3.04,10.27c-2.57,1.18-5.13,0.53-7.57,0.82c-6.49,0.76-11.9,4.08-17.57,6.82
	c-10.17,4.92-19.89,10.8-30.54,14.72c-9.98,3.67-20.04,7.09-30.49,9.24c-2.23,0.46-4.49,0.9-6.94,2.42
	c5.54,0.82,10.41-0.51,15.33-0.62c2.14-0.05,4.31,0.04,6.44-0.58c0.84-0.24,1.53,0.4,1.33,1.86c-5.03,1.57-10.18,3.29-15.4,4.78
	c-7.52,2.15-15.24,3.47-22.96,4.56c-6.4,0.9-12.9,1.14-19.37,1.56c-2.81,0.18-5.63-0.07-8.44,0.6c-1.42,0.34-2.95,0.05-4.44-0.31
	c-2.47-0.6-4.92-0.38-7.26,0.94c-0.71,2.5-0.18,4.97,0.25,7.4c1.63,9.35,4.33,18.44,6.91,27.55c0.99,3.48,2.83,6.74,4.95,9.75
	c4.79,6.8,9.56,13.62,14.37,20.41c0.96,1.35,2.04,2.62,3.1,3.91c1.03,1.25,1.81,2.25,1.71,4.28c-0.1,2.08,1.57,4.25,2.52,6.49
	c-1.63,1.26-3.75,0.79-5.37,2.31c1.59,2.5,3.95,4.14,6.67,5.26c1.53,0.63,3.17,0.98,4.75,1.47c0.94,0.29,1.83,0.73,2.87,0.21
	c3.68-1.83,7.15-0.92,10.31,1.19c1.89,1.27,3.6,1.46,5.59,0.54c0.59-0.27,1.37-0.18,1.92-0.5c3.67-2.15,6.81-0.58,9.63,1.6
	c2.35,1.82,4.39,3.99,5.72,6.82c2.33,4.96,4.97,9.77,7.44,14.66c2.69,5.33,3.65,11,3.36,16.93c-0.08,1.52-0.54,2.87-1.27,4.5
	c-3.5,0-6.97,0-9.92,0c-2.22,1.48-1.83,4.19-4.05,5.05c-3.03-0.01-3.66-2.9-5.34-4.68c-1.58-0.65-3.16-0.33-4.77,0.25
	c-9.8,3.53-19.55,3.31-29.25-0.57c-2.07,1.74-4.21,2.85-6.76,1.1c-1.25-0.86-2.55-0.5-3.84-0.14c-7.96,2.21-15.77,1.29-23.41-1.35
	c-4.39-1.52-8.73-3.13-12.88-5.33c-2.07-1.1-4.81-1.09-7.28-1.27c-5.79-0.42-11.07-2.35-15.93-5.34c-4.46-2.74-7.88-6.46-9.84-11.49
	c-2.23-5.72-4.41-11.5-8.04-16.55c-1.09-1.52-1.61-3.27-2.24-4.99c-1.21-3.29-2.52-6.51-5.77-8.43c-0.52-0.31-0.88-0.95-1.2-1.5
	c-7.39-13.03-14.25-26.32-19.93-40.21c-1.45-3.54-3.08-7-4.63-10.5c-1.76-3.97-2.99-8.07-3.73-12.38c-0.78-4.58-2.74-8.83-4.6-13.46
	c-8.03,1.88-15.81,4.12-23.97,5.16c-0.35,3.05-0.89,5.75-2.2,8.63c-3.59-1.16-4.38-4.89-6.68-6.9c-2.76,0-5.4,0-7.84,0
	c-1.65,1.55-1.64,3.53-2.2,5.22c-1.26,3.78-2.19,7.67-3.33,11.5c-0.82,2.77-1.06,5.49-0.18,8.33c1.23,3.97,2.25,8,3.38,12
	c0.66,2.35,1.54,4.5,1.38,7.19c-0.14,2.46,1.41,5.06,2.4,7.52c1.49,3.7,3.16,7.33,4.71,11.01c0.45,1.07,0.88,2.17,1.14,3.3
	c1.01,4.34-0.09,6.23-4.29,7.48c-1.26,0.38-2.67,0.33-3.85,1.63c2.83,4.03,6.05,7.75,10.45,10.19c8.67,4.8,14.59,11.96,18.54,20.89
	c0.95,2.15,1.54,4.37,1.55,6.76c0,2.67-0.69,5-2.94,6.54c-1.57,1.08-2.56,2.57-3.3,3.79c-1.26,0.95-2.18-0.47-3.24,0.33
	c-1.68,4.82-4.31,9.15-8.61,12.31c-1.11,0.82-1.69,2.03-2.18,3.29c-0.47,1.22-0.76,2.56-2.03,3.34c-2.39,0.17-2.51-2.34-4.09-3.52
	c-2.59-0.24-5.44-0.43-7.52-2.2c-5.68,1.43-7.47,6.73-10.9,9.84c-2.57-0.42-2.23-2.47-2.99-4.19c-2.33,0-4.79-0.08-7.25,0.02
	c-7.38,0.29-14.09-1.68-20.38-5.51c-1.88-1.14-3.15-2.96-5-3.94c-3.92,0.3-3.89,4.91-7.21,6.18c-2.03-0.98-2.14-3.31-3.08-5.31
	c-2.03-0.97-4.55,0.06-6.68-1.13c-2.03-1.14-4.04-2.35-6.18-3.2c-2.42-0.96-3.6-2.78-4.47-5.02c-2.64-6.78-3.74-13.64-2.66-20.98
	c0.59-4.03,0.12-8.29-0.42-12.38c-0.54-4.13-0.94-8.24-0.93-12.18c-0.35-0.48-0.49-0.83-0.75-0.99c-5.31-3.29-5.62-4.13-4.62-10.1
	c0.85-5.07,1.87-10.11,1.18-15.35c-0.36-2.77,0.25-5.62,0.63-8.43c1.28-9.38,2.47-18.77,3.59-28.16c1.04-8.73,1.97-17.48,2.85-26.23
	c0.21-2.13,0.03-4.29,0.03-6.69c-7.36-3.32-13.69-8.22-20.37-12.55c-1.82-1.18-3.52-2.5-5.06-4.05
	c-5.52-5.55-11.09-11.07-16.66-16.57c-8.97-8.86-15.79-19.27-21.81-30.25c-5.63-10.26-9.23-21.34-13.35-32.24
	c-2.92-7.72-3.89-15.78-5.47-23.72c-1.61-8.15-3.27-16.34-3.7-24.67c-0.66-12.81-1.27-25.63-1.46-38.46
	c-0.19-13.34,3.09-25.95,7.43-38.41c2.41-6.9,4.98-13.83,6.41-20.97c1.63-8.12,5.6-15.14,8.55-22.65
	c3.39-8.64,9.16-15.67,14.06-23.29c4.95-7.71,10.76-14.81,16.79-21.69c2.52-2.88,5.13-5.69,7.86-8.37c1.44-1.41,2.01-2.88,1.97-4.86
	c-0.1-4.32-0.09-8.64-0.02-12.96c0.08-4.81-0.43-9.65,0.61-14.43c0.17-0.8,0.09-1.67,0.03-2.49c-0.5-6.96-0.03-13.9,0.49-20.82
	c0.1-1.39-0.09-2.66-0.47-3.9c-3.8-12.44-5.81-25.25-7.72-38.07c-0.96-6.41-2.31-12.61-4.81-18.72c-4.04-9.87-6.55-20.24-6.14-31.09
	c0.08-2.13,0.32-4.25,0.51-6.67c-2.41,0.99-3.42,3.96-6.25,3.76c-0.71-0.78-0.32-1.49,0.1-2.24c7.28-12.72,13.88-25.79,20.47-38.87
	c5.46-10.84,11.07-21.61,17.04-32.18c2.6-4.61,4.23-9.33,4.71-14.48c0.27-2.85,1.12-5.51,1.93-8.22
	c3.5-11.68,8.68-22.66,14.06-33.55c1.75-3.55,2.29-7.03,1.62-11.06c-0.92-5.45,0.25-10.98,1.65-16.26
	c2.91-11.01,7.36-21.38,14.24-30.58c0.29-0.39,0.46-0.87,0.82-1.58c-3.37-0.64-4.77,2.82-7.7,3.36c-0.55-3.41,2.34-4.52,4-6.14
	c1.88-1.83,4.26-3.13,6.69-4.85c-0.98-1.06-3.02,0.17-3.62-1.85c1.07-1.24,2.77-1.35,4.3-1.71c9.75-2.3,19.16-5.55,28.09-10.12
	c2.05-1.05,4.36-1.72,5.61-3.93c0.22-0.4,0.71-0.82,1.14-0.9c4.69-0.85,7.56-4.57,11.53-6.98c-0.86-3.07-2.64-5.41-4.75-7.49
	c-2.96-2.92-5.68-6.1-9.02-8.63c-1.35-1.03-2-2.26-0.42-3.75c-2.99-4.02-5.68-8.19-8.32-12.4c-2.46-3.91-4.46-7.81-5.41-12.49
	c-1.49-7.33-3.53-14.53-3.41-22.05c-1.68-0.53-2.23,0.76-2.9,1.56c-2.25,2.67-4.37,5.45-6.58,8.15c-0.94,1.15-1.93,2.34-4.07,1.44
	c3.16-8.4,7.72-16.09,11.25-24.24c2.62-6.05,7.85-21.97,8.08-25.41c-6.4,6.73-9.8,14.45-10.85,23.19c-1.84-0.26-1.89-1.34-1.87-2.32
	c0.06-2.99,0.12-5.99,0.31-8.98c0.77-11.64,2.48-23.08,6.51-34.14c3.27-8.98,8.5-16.48,15.64-22.72c0.37-0.32,0.64-0.75,1.18-1.39
	c-1.89-1.21-4-1.2-6.44-1.7c1.61-0.68,2.78-1.23,3.99-1.69c7.89-2.98,14.18-7.87,18.46-15.24c2.6-4.47,5.65-8.63,8.92-12.63
	c1.69-2.07,3.28-4.16,6.14-4.55c2.16-11.41,5.78-22.12,9.64-32.72c3.34-9.17,8.53-17.25,15.87-23.9c1.93-1.75,4.63-2.59,5.91-5.06
	C215.22,0,216.55,0,217.89,0z M144.78,667.72c-2.57,0.57-4.25,2.27-5.97,3.75c-7.96,6.81-15.97,13.57-23.67,20.66
	c-10.19,9.38-19.69,19.39-26.31,31.79c-1.57,2.94-3.26,5.78-4.33,8.96c-1.12,3.3-2.38,6.56-3.62,9.83
	c-2.62,6.89-4.24,14.08-4.71,21.34c-0.91,13.94-1.14,27.91,1.85,41.73c1.41,6.49,2.17,13.12,4.83,19.29
	c4.05,9.4,9.42,17.97,16.36,25.5c2.73,2.97,5.78,5.64,8.65,8.42c1.07-0.78,0.83-1.67,0.85-2.44c0.33-15.05,5.12-28.36,15.48-39.45
	c1.37-1.47,1.89-2.9,1.81-4.89c-0.35-9.14-0.8-18.28,0.65-27.39c0.26-1.62,0.21-3.37-0.13-4.97c-0.8-3.77-0.29-7.52-0.44-11.71
	c1.41,1.19,0.06,2.99,1.96,3.88c-0.62-3.12,0.67-5.82,0.64-8.63c-0.06-6.01,0.68-11.94,1.31-17.89c1.36-12.91,3.48-25.71,7.03-38.18
	c2.74-9.62,4.66-19.38,6.58-29.15C144.24,674.82,145.34,671.41,144.78,667.72z M135.08,568.73c1.53,0.28,2.45-0.12,3.33-0.61
	c5.52-3.07,11.02-6.17,16.54-9.24c1.49-0.83,1.78-2.22,2.13-3.72c0.75-3.23,0.61-6.6,1.75-9.78c1.86-5.17,3.86-10.28,6.62-15.04
	c2.83-4.89,5.72-9.74,8.69-14.55c4.12-6.64,8.15-13.39,13.22-19.33c6.46-7.57,9.69-16.58,12.5-25.81c1.4-4.59,2.13-9.36,2.26-14.22
	c0.08-3.05-0.84-5.32-2.9-7.57c-7.66-8.35-14.63-17.23-19.97-27.29c-1.6-3-3.19-6.01-5.01-9.43c-2.29,4.07-4.39,7.63-6.33,11.27
	c-5.34,10.04-9.33,20.56-11.22,31.82c-1.37,8.18-2.74,16.37-4.17,24.54c-2.55,14.54-6.04,28.91-7.75,43.6
	c-0.38,3.29-0.51,6.69-1.51,9.81c-0.93,2.9-1.51,5.71-1.58,8.73c-0.11,5.29-3.51,9.7-8.53,11.46c-2.51,0.88-5.02,1.76-7.49,2.75
	c-1.03,0.41-2.25,0.67-2.88,2.23C126.29,562.62,130.88,565.79,135.08,568.73z M332.01,79.37c1.92-0.37,3.06-1.03,4.14-1.8
	c0.07-0.05,0.01-0.29,0.01-0.45c-4.95-4.33-17.29-8.45-26.06-8.44C317.98,72.1,325.48,74.76,332.01,79.37z"/>
</svg>
