<?xml version="1.0" encoding="utf-8"?>
<!-- Generator: Adobe Illustrator 24.0.2, SVG Export Plug-In . SVG Version: 6.00 Build 0)  -->
<svg version="1.1" id="Layer_1" xmlns="http://www.w3.org/2000/svg" xmlns:xlink="http://www.w3.org/1999/xlink" x="0px" y="0px"
	 viewBox="0 0 585.45 836" style="enable-background:new 0 0 585.45 836;" xml:space="preserve">
<path d="M430.99,421.18c-2.57,5.47-0.32,10.61-0.75,16.8c1.73-2.77,0.33-5.05,1.7-7.04c3.3,1.62,6.84,2.76,10.47,3.58
	c0.8,0.18,1.76,0.63,2.39,0.36c3.41-1.47,6.74,0.03,10.09,0.06c4.84,0.04,9.18,0.02,13.9-1.42c4.92-1.5,9.68-3.63,14.79-4.44
	c3.31-0.53,6.69-0.47,10.04-0.41c2.89,0.05,5.78,0.11,8.67,0.16c2.09,0.04,4.2,0.08,6.22,0.64c2.73,0.75,5.12,2.41,7.75,3.45
	c2.44,0.97,5.06,1.4,7.59,2.09c5.25,1.44,10.12,3.99,14.66,6.94c2.3,1.49,4.54,3.08,6.73,4.73c2.01,1.51,4.27,2.84,5.7,4.98
	c0.94,1.41,0.94,3.31,2.24,4.49c1.72,1.56,3.76,2.89,5.55,4.41c3.5,2.97,6.85,6.11,9.92,9.53c2.44,2.73,4.73,5.62,6.79,8.65
	c1.09,1.6,2.11,3.25,3.05,4.94c0.68,1.23,2.45,3.62,2.45,5.03c2.59,6.09,4.06,12.61,4.49,19.21c-12.1-0.71-23.61-3.94-35.34-1.51
	c-0.11,0.91,1.07,0.25,1.46,1.16c-3.83,1.23-7.6,2.69-11.32,4.26c-10.79,4.55-19.93,11.65-29.58,18.01
	c-5.01,3.31-9.71,7.19-15.33,9.6c-2.79,1.19-5.78,2.26-7.36,5.25c-0.49,0.92-1.52,1.4-2.47,1.51c-8.66,1.06-16.45,5.66-25.08,6.49
	c-5.73,0.55-11.59,0.89-17.35-0.36c-3.1-0.67-6.44-0.17-9.34-2.35c1.21,1.89,3.62,2.82,2.05,5.81c-6.95,0.61-14.01-0.5-20.91-2.65
	c-6.89-2.15-13.04-5.75-18.82-10.42c-0.38,2.16,0.82,3.23,1.84,4.38c0.56,0.63,0.31,1.23-0.09,1.79c-0.58,0.8-1.19,0.65-2.05,0.24
	c-2.54-1.23-4.19-3.69-7.19-4.71c2.06,12.19,4.12,24.35,3.71,36.74c-0.05,1.41,0.44,2.56,1.01,3.75c0.35,0.74,1.06,1.61,0.9,2.24
	c-2.04,8.08,2.17,15.85,1.13,23.87c-0.04,0.33,0.07,0.69-0.02,1c-2.14,7.77,0.36,14.31,3.73,21.46
	c5.67,12.04,8.35,25.28,12.19,38.04c2.03,6.72,3.99,13.48,7.24,19.67c3.46,6.59,4.67,13.35,5.06,20.75
	c0.48,8.97,0.41,18.08,2.66,26.92c0.77,3.03,0.37,6.25,0.58,9.36c0.46,6.74,2.81,13.22,2.53,20c-0.22,5.46,0.37,10.84,1.6,16.13
	c0.77,3.32-0.9,5.65-3.52,6.32c-2.99,0.77-3.1,2.41-3.07,4.68c0.04,4-0.24,8.02,0.11,11.99c0.2,2.3,1.21,4.28,0.12,6.86
	c-0.81,1.93,2.5,5.02-0.88,6.73c-2.57,1.3-4.51,3.38-6.49,5.19c-2.36,2.15-5.02,1.18-7.43,2.12c-1.1,1.67,0.65,4.54-2.28,5.55
	c-1.09-0.04-1.93-0.79-2.01-1.77c-0.15-1.79-1.46-3.65-2.39-3.86c-2.13-0.49-4.75-1.07-6.75,0.38c-4.48,3.23-9.35,5.11-14.87,5.48
	c-0.99,0.07-1.92,1.14-3.2,1.95c-1.42-1.8-3.78-2.43-5.76-3.64c-1.81-1.1-4.82-0.23-7.46-0.23c-1.1,0.4-0.39,1.74-1,2.48
	c-1.55,1.87-3.53,1.97-4.33-0.19c-1.37-3.71-4.39-5.34-7.42-7c-3.31-1.81-5.22-4.72-6.64-7.95c-1.34-3.05-2.47-5.88-1.62-9.76
	c0.93-4.28,0.88-8.78,3.36-12.62c0.9-1.39,0.52-4.12,3.64-3.7c0.46,0.06,1.48-2.34,1.57-4c2.67,0.32,4.05,2.17,5.43,4.29
	c2.33-2.41-1.35-2.75-1.26-4.29c3.85-2.27-0.77-3.06-0.76-4.31c-0.48-1.11,0.56-0.97,0.55-1.21c-0.23-5.16,3.41-8.95,4.73-13.51
	c1.98-6.85,3.12-13.96,5.18-20.78c1.37-4.56-0.9-8.15-1.9-12.11c-1.32-5.21-2.82-10.38-3.44-16.24c-3.41,5.04-5.6,10.55-10.15,14.42
	c-3.59-6.56-0.29-12.56,0.9-18.61c1.22-6.22,3.08-12.31,4.4-18.51c0.6-2.81,0.46-5.66-1.83-8.02c-3.57-3.67-7.36-7.1-10.47-11.26
	c-1.74-2.33-4.94-3.24-7.68-4.17c-5.72-1.96-11.31-4.07-16.48-7.27c-4.58-2.83-9.56-4.7-16.02-6.33c3.28,7.08,5.61,13.43,9.05,19.11
	c2.47,4.08,3.72,8.61,6.11,12.69c3.92,6.71,7.21,13.79,10.93,20.63c2.71,4.99,0.51,9.46-1.04,14.07
	c-4.24,12.66-9.29,25.01-14.65,37.21c-2.63,5.97-6.02,11.61-9.1,17.37c-0.83,1.56-1.74,3.06-2.03,4.86c-0.5-0.41-0.95-0.78-1.6-1.31
	c-1.38,3.37-5.25,5.49-4.2,9.83c-3.62,2.45-3.41,8.24-8.64,9.54c-1.64,0.41-3.19,2.49-4.1,4.18c-0.93,1.73-2.43,2.64-3.54,4.14
	c-0.85-1.43-1.58-2.65-2.37-3.98c-2.98,3.27-6.27,5.62-10.3,7.11c-6.73,2.49-13.85,3.71-20.47,6.63c-3.42,1.51-7.06-0.35-10.58-1.16
	c-2.56-0.59-5.34-1.64-7.45,1.02c-1.83-0.57-2.09-2.54-3.63-3.66c-5.6,3.29-11.75-0.92-17.98,1.14c-1.82-2.39-3.29-5.22-7.43-5.47
	c-2.93-0.18-6.24-7.57-5.22-10.72c0.76-2.34,1.19-4.73,1.88-7.07c1.66-5.67,6.88-8.03,10.82-11.44c0.97-0.84,0.34-1.95,1.29-2.21
	c1.62-0.45,3.1,1.4,3.98,1.21c2.48-0.55,5.17,0.55,7.5-1.36c10.31-8.42,19.02-18.27,24.33-30.46c4.82-11.07,8.96-22.54,8.01-35.04
	c-0.06-0.83,0.18-1.78-0.14-2.47c-3.24-6.87-5.37-14.17-9.78-20.6c-4.61-6.74-9.79-13.05-14.39-19.79c-2.21-3.25-5.49-5.78-8.31-8.6
	c-1.39-1.39-2.9-1.07-4.55-0.33c-3.95,1.78-7.34,4.28-10.37,7.37c-1.3,1.33-2.26,3.51-5.04,2.81c-1.29-6.35-2.25-12.71-0.56-19.32
	c0.68-2.66,0.12-5.64,0.14-8.47c0.01-2.17-1.53-3.02-3.1-4.05c-5.83-3.8-12.01-7.08-17.27-11.59c-1.28,0.76,0.33,1.77-0.61,3.5
	c-3.19-6.61-6.77-12.07-8.61-18.43c2.29-0.91,0.99,1.76,2.22,1.81c0.12-0.23,0.36-0.48,0.34-0.7c-0.64-6.69-0.61-13.69-2.35-19.96
	c-2.03-7.33-0.83-14.45-1.64-21.6c-1.2-10.58-1.79-21.29-0.71-31.78c1.05-10.21,0.45-20.4,1.5-30.61
	c1.68-16.4,5.29-32.31,10.4-47.81c4.42-13.42,8.97-26.85,15.61-39.5c3.17-6.04,5.72-12.43,9.6-18.11c0.63-0.92,1.02-2.04,0.3-2.73
	c-4.32-4.13-1.66-8.74-0.38-12.7c3.23-9.94,5.31-20.14,8.01-30.2c1.03-3.84,0.98-7.66,0.44-11.31c-0.41-2.79-0.72-5.54-0.72-8.33
	c0.01-6.77-0.85-13.44-1.91-20.11c-0.36-2.28-0.56-4.77-0.02-6.97c1.35-5.44,1.03-10.73-0.51-16.12c-0.97-0.25-0.11,1.67-1.27,1.46
	c-1.1-4.48-0.02-8.99-0.19-13.49c-0.37-9.83-3.27-18.93-6.83-27.9c-2.5-6.3-2.6-13.08-4.28-19.52c-0.04-0.16-0.07-0.37,0-0.49
	c3.63-5.85,1.86-12.55,2.79-18.81c0.98-6.56,4.71-11.73,7.1-17.56c1.21-2.96,2.89-4.76,5.03-6.98c6.77-7.01,10.92-15.85,13.74-25.09
	c1.34-4.41,0.77-9.07-3.42-12.66c-3.5-2.99-3.07-3.8,0.84-6.68c3.89-2.85,8.39-4.32,12.67-6.32c3.78-1.77,3.87-2.27,2.11-5.98
	c-0.66-1.39-1.65-2.5-1.1-4.39c0.59-2.02-2.47-0.41-2.59-2.45c0.9-4.39,0.3-5.83-4.04-8.14c-2.4-1.28-4.04-3.09-5.59-5.34
	c-2.64-3.85-7.58-6.34-6.62-12.15c-1.4-0.18-2.3-0.58-2-2.38c0.26-1.6,0.06-3.28,0.06-4.79c1-0.58,1.1,0.66,1.89,0.43
	c0.42-3.27-3.87-6.07-1.11-9.65c2.47-3.21,5.76-4.74,9.87-4.89c0.97-5.11-0.57-10.32,1.57-15.56c-1.7,1.02-2.07,2.75-4.12,3.29
	c-0.33-5.08,3.01-8.75,4.52-13.29c-3.14-0.67-6.67,1.93-9.68-1.51c7.94-3.18,11.01-11.63,18.12-16.29
	c-3.15-1.31-5.36,1.05-9.02,0.95c5.69-3.88,10.49-7.16,15.4-10.51c0.58-1.09-0.91-1.47-1.03-2.37c4.24-5.73,10.44-7.57,17.06-8.57
	c0.49-0.07,1.39,0.06,1.44-0.11c1.5-4.77,4.78-2.13,7.53-1.92c2.78,0.21,4.44-1.64,5.83-3.68c4.2-6.14,10.04-10.92,14.15-17.13
	c0.61-0.92,1.53-1.16,2.59-1.15c3.47,0.02,6.94,0.01,11.09,0.01c-1.52,8.04-1.12,15.73-1.08,23.6c4.43,1.47,9.36,0.39,13.38,3.39
	c0.82,1.08-0.94,1.45-0.9,2.43c3.12,1.85,6.88,2.67,9.61,5.26c1.43,1.36,2.59,1.11,4.41,0.64c3.77-0.98,6.82-3.94,11.16-3.53
	c1.63,0.15,2.53-2.47,4.33-3.45c8.6-4.69,16.98-9.76,24.57-16.05c1.4-1.16,3.26-2.21,5.36-2.28c4.77,4.05,2.38,9.22,1.55,13.62
	c-1.15,6.08-3.54,11.95-5.55,17.85c-0.9,2.65-3.61,4.19-4.16,7.32c-0.41,2.3-1.22,4.34,0.54,6.76c-5.31,1.43-3.82,6.72-6.29,9.85
	c-3.44,4.35,1.07,8.62,1.47,12.98c0.43,4.81,5.93,7.34,10.55,10c-3.75,1.56-6.35-0.85-9.63-1.19c1.36,5.75,3.19,11.31,2.63,17.26
	c-0.26,2.78-0.07,5.57-1.03,8.29c-1.9,5.37-0.83,10.6,0.78,15.86c0.65,2.12,1.95,4.3,0.94,6.75c-1.03,0.48-1.45-1.17-2.48-0.81
	c1.7,6.08,0.26,11.66-2.4,17.51c-1.53-1.9-0.21-3.76-1.96-5.94c0.58,9.11-0.91,17.4,1.02,25.66c0.29,1.25,0.73,1.84,1.77,2.57
	c7.61,5.34,15.75,9.9,23.15,15.56c4.25,3.25,7.78,7,10.4,11.68c6.42,11.47,10.84,23.61,13.86,36.42c2.72,11.54,5.7,23.1,9.8,34.2
	c4.58,12.39,10.29,24.4,16.8,35.94c4.18,7.4,7.83,15.07,12.02,22.48c3.58,6.31,5.52,12.86,4.68,20.94
	c-1.49,14.36-5.14,28.32-6.5,42.66c-0.61,6.48-2.38,12.8-4.09,19.09C440.52,419.15,435.7,420.55,430.99,421.18z M383.77,424.61
	c2.83-3.72,6.74-6.27,10.43-8.93c-1.06-1.74-2.6-2.46-3.9-2.58c-3.99-0.37-5.66-3.23-7.43-6.11c-1.14-1.85-0.08-3.98-0.68-5.82
	c-3.25-9.99-3.39-20.54-5.69-30.74c-3.47-15.39-4.73-31.25-9.2-46.47c-2.65-9.01-7.89-16.66-12.34-25.21
	c-2.64,6.8-4.63,13.3-9.29,18.26c-5.48,5.82-8.95,12.85-12.61,19.76c-1.78,3.35-2,6.85,0.7,10.33c3.39,4.36,3.2,9.65,2.03,14.69
	c-0.51,2.22-0.22,3.56,1.01,5.36c5.43,7.93,10.92,15.84,14.18,25.02c2.34,6.57,6.81,12.2,12.65,15.15
	c7.71,3.9,14.07,9.96,22.32,12.38C385.73,421.94,383.37,422.32,383.77,424.61z"/>
</svg>
