<?xml version="1.0" encoding="utf-8"?>
<!-- Generator: Adobe Illustrator 24.1.1, SVG Export Plug-In . SVG Version: 6.00 Build 0)  -->
<svg version="1.1" id="Layer_1" xmlns="http://www.w3.org/2000/svg" xmlns:xlink="http://www.w3.org/1999/xlink" x="0px" y="0px"
	 viewBox="0 0 179.33 157.64" style="enable-background:new 0 0 179.33 157.64;" xml:space="preserve">
<style type="text/css">
	.st0{fill:#1A1A1A;}
</style>
<g>
	<path d="M9.34,147c-0.75-0.25-1.39-0.45-2.03-0.68c-1.55-0.55-2.62-1.65-3.39-3.06c-0.51-0.92-0.52-1.93-0.34-2.92
		c0.25-1.34,0.74-2.6,1.54-3.74c0.81-1.15,1.84-1.96,3.15-2.48c2.89-1.14,5.82-1.23,8.8-0.41c0.3,0.08,0.59,0.27,1.02,0.18
		c0.94-1.83,2.43-3.23,4.33-4.3c-0.97-1.71-2.38-2.68-4.33-3.02c-0.86,0.45-1.68,1.04-2.36,1.86c-1.22,1.49-2.91,2.1-4.76,2.16
		c-1.92,0.07-3.84,0.02-5.75-0.08c-0.91-0.05-1.83-0.24-2.69-0.53c-2.59-0.88-3.16-3.51-1.85-5.42c1.24-1.81,3.02-2.8,5.2-3.06
		c1.37-0.16,2.71-0.11,4,0.45c0.37,0.16,0.75,0.13,1.16,0.03c1.45-0.35,2.8-0.95,4.07-1.72c2.67-1.62,5.25-3.35,7.59-5.43
		c1.29-1.15,2.42-2.44,3.48-3.79c1.46-1.86,2.76-3.82,4.01-5.82c0.8-1.28,1.13-2.74,1.15-4.23c0.03-2.28,0.07-4.56-0.1-6.83
		c-0.12-1.63-0.18-3.26-0.32-4.89c-0.1-1.25,0.12-2.54,0.26-3.81c0.1-0.86,0.3-1.71,0.45-2.59c-1.02-0.14-2.01-0.24-2.98-0.43
		c-2.3-0.45-4.23-1.61-6.01-3.09c-1.45-1.21-2.8-2.52-3.57-4.29c-0.82-1.89-1.22-3.89-1.2-5.94c0.06-4.79,1.37-9.29,3.39-13.59
		c0.22-0.47,0.44-0.94,0.65-1.41c0.83-1.84,2.03-3.42,3.33-4.96c1.79-2.11,3.75-4.04,6.02-5.63c2.82-1.99,5.94-3.21,9.36-3.76
		c1.42-0.23,2.79-0.07,4.16,0.14c1.96,0.3,3.26,1.57,4.27,3.2c0.96,1.54,1.09,3.24,0.9,4.98c-0.39,3.51-2.14,6.3-4.79,8.56
		c-1.41,1.2-3.1,1.81-4.87,2.18c-1.94,0.4-3.76,1.04-5.43,2.12c-0.85,0.55-1.42,1.26-1.7,2.22c-0.37,1.28-0.54,2.57-0.37,3.9
		c0.06,0.48,0.19,0.93,0.43,1.36c0.33,0.56,0.78,0.86,1.45,0.9c3.34,0.2,6.62-0.07,9.8-1.17c1.83-0.63,3.49-1.56,5.11-2.6
		c3.24-2.07,6.2-4.51,9.07-7.05c3.08-2.73,6.26-5.33,9.55-7.81c2.57-1.94,5.45-3.13,8.68-3.44c0.03,0,0.06-0.04,0.12-0.08
		c0.28-0.41-0.03-0.83-0.05-1.25c-0.09-2.28-0.55-4.5-1.13-6.71c-0.31-1.2-0.41-2.43-0.11-3.67c0.39-1.59,1.19-2.92,2.67-3.65
		c1.27-0.62,1.77-1.78,2.47-2.83c0.15-0.22,0.1-0.46,0.12-0.7c0.14-1.64,0.08-3.28,0.05-4.92c-0.02-1.24,0.25-2.46,0.18-3.7
		c-0.01-0.24,0.06-0.47,0.21-0.67c2-2.7,3.79-5.54,5.87-8.17c0.35-0.44,0.73-0.84,1.13-1.24c2.17-2.18,4.34-4.37,6.53-6.52
		c0.97-0.95,1.99-1.84,3-2.76c0.12-0.11,0.24-0.21,0.38-0.29c0.55-0.32,1.05-0.06,1.1,0.58c0.06,0.78-0.21,1.5-0.48,2.21
		c-0.38,1.01-0.84,1.99-1.23,2.99c-0.35,0.89-0.72,1.78-0.99,2.7c-0.79,2.65-2,5.13-2.88,7.74c-0.07,0.22-0.24,0.43,0.01,0.74
		c2.96-1.75,5.76-3.81,8.82-5.33c0.72,0.33,0.87,0.75,0.76,1.48c-0.41,2.53-1.07,4.99-2.07,7.36c-0.43,1.03-0.83,2.08-1.25,3.11
		c-0.1,0.26-0.24,0.51-0.2,0.9c0.57,0.28,1.19,0.14,1.8,0.15c0.29-0.3,0.27-0.68,0.37-1.01c0.4-1.3,1.12-2.4,2.14-3.27
		c2.22-1.91,4.64-3.51,7.23-4.89c3.67-1.95,7.21-4.12,10.52-6.66c0.57-0.44,1.12-0.9,1.72-1.29c0.64-0.42,1.16-0.14,1.26,0.64
		c0.08,0.61-0.06,1.19-0.25,1.77c-0.39,1.22-1,2.35-1.5,3.52c-1.72,4.02-3.97,7.75-6.52,11.29c-2.29,3.18-4.65,6.29-6.98,9.44
		c-0.17,0.22-0.31,0.47-0.47,0.7c-0.17,0.25-0.24,0.53-0.13,0.8c0.73,1.69,0.48,3.45,0.44,5.2c0,0.11,0.04,0.22,0.08,0.41
		c1.07-0.77,2-1.66,3.18-2.16c0.14-0.06,0.3-0.07,0.49-0.11c0.84,0.75,1.54,1.59,2.18,2.56c0.1-0.93,0.18-1.86,0.31-2.78
		c0.28-2.05,0.29-2.01,2.05-2.66c2.59-0.95,5.28-1.19,8.02-0.86c0.95,0.11,1.89,0.27,2.84,0.34c1.49,0.11,2.87,0.68,4.3,1.04
		c0.33,0.08,0.54,0.33,0.71,0.61c0.03,0.31-0.19,0.51-0.35,0.74c-0.81,1.14-1.62,2.28-2.43,3.42c-0.65,0.92-1.5,1.66-2.27,2.47
		c-0.34,0.35-0.7,0.48-1.17,0.46c-1.08-0.03-2.15-0.02-3.22,0.16c-0.5,0.09-1.03,0.08-1.61,0.45c1.44,0.19,2.86,0.07,3.92,1.07
		c0.03,0.38-0.23,0.54-0.43,0.72c-1.15,1.07-2.16,2.25-3.04,3.54c-0.62,0.92-1.41,1.43-2.58,1.45c-1.03,0.02-2.04,0.35-3.04,0.64
		c-0.34,0.1-0.59,0.27-0.43,0.75c1.49,0.29,3.18-0.15,4.57,1.04c0.29-0.22,0.61-0.45,0.91-0.69c2.04-1.63,4.33-2.69,6.9-3.14
		c1.81-0.32,3.63-0.55,5.47-0.47c2.87,0.13,5.73,0.35,8.54,1.01c2.35,0.55,4.49,1.64,6.62,2.75c1.13,0.59,2.27,1.18,3.41,1.74
		c0.88,0.44,1.81,0.6,2.79,0.46c0.55-0.08,1.12-0.15,1.57,0.34c0.22,0.24,0.41,0.42,0.27,0.82c-0.12,0.34,0.29,0.73-0.06,1.09
		c0.41,0.16,0.71,0.07,1.03,0c0.49-0.12,0.98,0.08,1.08,0.52c0.11,0.49,0.57,0.66,0.68,1.04c0.04,0.32-0.28,0.53-0.16,0.83
		c0.26,0.6,1,0.16,1.34,0.61c0.31,0.41,0.59,0.84,0.99,1.13c0.01,0.52-0.37,0.83-0.52,1.23c-0.15,0.39-0.54,0.71-0.24,1.21
		c0.07,0.12-0.07,0.38-0.16,0.55c-0.29,0.61-0.51,1.2-0.56,1.91c-0.05,0.73-0.43,1.45-0.7,2.15c-0.6,1.56-1.24,3.11-1.84,4.68
		c-0.92,2.39-1.54,4.87-2.18,7.34c-0.56,2.15-1.54,4.11-2.7,5.98c-0.83,1.34-1.96,2.42-3.41,3.1c-0.22,0.1-0.43,0.21-0.73,0.36
		c0.28,0.46,0.52,0.91,0.8,1.32c2.68,3.83,4.25,8.1,5.12,12.67c0.66,3.53,1.41,7.04,2.09,10.56c0.21,1.09,0.38,2.2,0.46,3.31
		c0.13,1.71,0.46,3.41,0.36,5.13c-0.05,0.81,0.25,1.6,0.14,2.38c-0.12,0.87-0.07,1.75-0.19,2.62c-0.35,2.46-0.95,4.86-2.13,7.07
		c-0.4,0.74-0.83,1.46-1.52,1.95c-0.2,0.03-0.35-0.05-0.42-0.19c-0.42-0.77-0.91-1.51-1.22-2.32c-0.88-2.33-2.07-4.5-3.33-6.63
		c-0.65-1.09-0.59-2.11-0.19-3.2c0.15-0.41,0.46-0.75,0.5-1.2c-0.19-0.28-0.42-0.16-0.64-0.08c-0.93,0.35-1.87,0.7-2.82,1.06
		c-0.52-0.26-0.83-0.71-1.08-1.22c-0.42-0.86-0.85-1.72-1.28-2.58c-0.6-1.18-1.32-2.28-2.26-3.21c-0.33-0.33-0.41-0.69-0.28-1.09
		c0.14-0.42,0.33-0.81,0.51-1.21c0.28-0.61,0.58-1.21,0.93-1.94c-1.22,0.16-2.2,0.55-3.17,1.01c-0.22,0.1-0.41,0.26-0.63,0.35
		c-0.49,0.19-0.95,0.14-1.29-0.31c-0.17-0.22-0.35-0.44-0.48-0.69c-1.29-2.45-2.84-4.72-4.58-6.87c-0.73-0.91-0.91-1.78-0.34-2.86
		c0.4-0.76,0.78-1.55,0.98-2.43c-0.92,0.17-3.03,1.16-4.58,2.14c-0.66-0.09-1.02-0.83-1.82-0.95c0.07,0.39,0.28,0.6,0.47,0.83
		c1.15,1.38,2.31,2.75,3.42,4.16c2.39,3.02,4.36,6.3,5.86,9.85c1.08,2.56,1.68,5.24,2.21,7.94c0.41,2.08,0.51,4.2,0.51,6.31
		c0,1.96,0.07,3.92-0.05,5.88c-0.17,2.68-0.66,5.3-1.33,7.89c-0.36,1.39-0.75,2.77-1.14,4.16c-0.28,0.96-0.68,1.88-1.11,2.78
		c-0.18,0.38-0.4,0.68-0.88,0.89c-1.95-2.65-4.25-5.02-6.64-7.36c0.67-1.17,1.4-2.26,1.54-3.65c-0.51,0.1-0.78,0.43-1.14,0.6
		c-0.32,0.15-0.64,0.33-0.97,0.46c-0.53,0.21-0.99,0.14-1.4-0.33c-0.6-0.69-1.28-1.32-1.88-2.02c-1.04-1.21-2.21-2.3-3.31-3.45
		c-0.05-0.06-0.08-0.14-0.16-0.29c0.52-1.22,1.32-2.38,1.68-3.74c0.34-1.31,0.57-2.62,0.69-4.2c-0.66,0.66-1.18,1.15-1.66,1.67
		c-0.94,0.99-2.02,1.82-3.07,2.68c-0.06,0.05-0.13,0.1-0.19,0.14c-0.67,0.46-0.9,0.46-1.47-0.06c-0.35-0.32-0.7-0.66-1.01-1.03
		c-1.34-1.63-2.67-3.28-4-4.93c-0.15-0.19-0.28-0.39-0.44-0.57c-0.62-0.7-0.69-1.4-0.29-2.29c0.48-1.08,0.71-2.26,0.49-3.45
		c-0.34-0.08-0.47,0.17-0.65,0.3c-0.61,0.45-1.15,1.05-1.83,1.34c-0.78,0.33-1.01,0.92-1.25,1.61c-1.12,3.1-2.63,5.97-4.89,8.43
		c-3.06,3.33-6.6,6.03-10.57,8.16c-2.79,1.49-5.71,2.68-8.82,3.34c-0.86,0.18-1.71,0.36-2.59,0.44c-0.47,0.04-0.95,0.16-1.4,0.31
		c-1.6,0.53-3.25,0.45-4.87,0.35c-1.7-0.11-3.41-0.33-5.1-0.59c-2.87-0.45-5.76-0.85-8.62-1.36c-2.98-0.53-5.97-1.01-8.98-1.35
		c-1.35-0.15-2.69-0.32-4.03-0.47c-2-0.22-3.89,0.21-5.74,0.92c-2.61,1.02-5.09,2.31-7.49,3.76c-2.56,1.55-5.09,3.17-7.64,4.73
		c-4.13,2.52-8.53,4.33-13.32,5.16c-1.5,0.26-2.99,0.35-4.52,0.12c-2.22-0.34-3.69-1.82-3.87-4.06c-0.15-1.97,0.38-3.71,1.83-5.11
		C8.4,147.92,8.83,147.5,9.34,147z M69.54,125.55c-0.74-0.35-1.38-0.49-2.08-0.46c-0.72,0.03-1.44,0.07-2.15-0.08
		c-3.92-0.83-7.56-2.27-10.66-4.89c-1.66-1.4-3.1-2.97-4.17-4.89c-2.24-3.99-3.77-8.27-5.19-12.59c-0.64-1.94-1.37-3.83-2.11-5.72
		c-0.1-0.25-0.17-0.54-0.48-0.64c-0.07,0.03-0.16,0.05-0.21,0.1c-1.32,1.5-1.94,3.28-2,5.25c-0.03,0.83,0.19,1.58,1.17,1.82
		c0.3,0.08,0.58,0.27,0.86,0.41c1.48,0.72,2.47,1.87,2.89,3.46c0.57,2.19-1.03,4.19-3.46,3.87c-0.47-0.06-0.94-0.16-1.41-0.23
		c-0.74-0.12-1.32,0.06-1.72,0.76c-0.46,0.79-0.99,1.55-1.48,2.32c-0.66,1.05-1.17,2.18-1.45,3.4c-0.24,1.05-0.51,2.09-0.68,3.15
		c-0.5,3.11-1,6.21-1.4,9.33c-0.1,0.8-0.28,1.65,0,2.48c0.56,0.19,1.06-0.06,1.55-0.14c2.33-0.38,4.59-0.96,6.73-2.03
		c1.56-0.78,2.61-1.93,3.18-3.55c0.25-0.71,0.45-1.45,0.71-2.16c0.59-1.63,1.89-2.35,3.49-1.64c1.29,0.56,2.27,1.46,2.74,2.84
		c0.69,2.03,0.73,4.06,0.11,6.11c-0.08,0.26-0.14,0.52-0.21,0.78c0.31,0.2,0.61,0.31,0.93,0.31c1.4,0.03,2.79,0.02,4.15-0.35
		c1.36-0.37,2.61-0.99,3.82-1.69c2.52-1.47,5.08-2.84,7.93-3.6c0.11-0.03,0.21-0.1,0.31-0.15
		C69.52,126.65,69.42,126.12,69.54,125.55z M68.24,68.09c-4.9,2.77-9.66,5.45-14.52,8.19c1.04,0.62,1.99,1.19,2.96,1.77
		c0.89-0.32,1.75-0.75,2.67-0.82c1.67-2.56,4.09-3.76,6.93-4.34c0.69-0.14,1.42,0.05,2.12-0.26C67.93,71.16,68.03,69.71,68.24,68.09
		z"/>
	<path class="st0" d="M58.57,84.37c0.23-0.06,0.28-0.24,0.33-0.44c0.27-1.17,0.29-2.37,0.46-3.55c0.1-0.67,0.28-1.32,0.47-1.97
		c0.58-1.99,2.13-3.01,3.84-3.86c1.27-0.63,2.62-0.83,4.04-0.92c2.38-0.16,4.38,0.56,6.16,2.1c0.6,0.52,1.31,0.91,2.07,1.18
		c0.23,0.08,0.45,0.16,0.69,0.05c-0.17-0.43-0.75-0.26-0.99-0.77c1.16,0.2,2.26,0.19,3.37,0.19c1.34,0,2.6-0.39,3.83-0.83
		c0.4-0.14,0.83-0.31,1.09-0.7l-0.04,0.04c0.74,0.88,1.35,1.87,2.21,2.66c0.44,0.41,0.9,0.77,1.42,1.08
		c2.45,1.48,5.09,2.18,7.96,2.08c1.18-0.04,2.26-0.44,3.34-0.82c0.37-0.13,0.73-0.29,1.25-0.5c-0.34,1.24-0.37,2.36,0.07,3.44
		c-0.25,0.19-0.46-0.13-0.67,0.01c0-0.11,0.01-0.25-0.14-0.09c-0.03,0.03,0.08,0.1,0.16,0.07c-0.05,0.17,0.01,0.3,0.12,0.44
		c0.65,0.81,1.3,1.62,1.93,2.44c0.17,0.22,0.33,0.46,0.45,0.71c0.12,0.25,0.17,0.53,0.27,0.86c-0.94,0.61-1.96,1.03-3,1.41
		c-1.27,0.47-2.55,0.89-3.93,0.97c-0.45,0.03-0.87,0.04-1.28-0.09c-0.76-0.24-1.52-0.48-2.26-0.77c-0.49-0.19-0.87-0.55-1.25-0.91
		c-1.17-1.1-2.12-2.38-3.09-3.65c-0.68-0.89-1.34-1.79-2.15-2.57c-0.55-0.53-1.16-0.79-1.93-0.79c-1.01,0-1.95,0.09-2.88,0.62
		c-1.21,0.69-2.01,2.86-1.32,4.2c0.06,0.12,0.15,0.24,0.22,0.36c-0.28,0.16-0.44-0.02-0.62-0.07c-2.5-0.62-5.16,0.62-6.32,2.75
		c-0.29,0.53-0.45,1.11-0.52,1.7c-0.13,1.12,0.32,1.97,1.32,2.45c0.94,0.45,1.92,0.79,2.98,0.78c0.92-0.01,1.84,0.01,2.75-0.09
		c0.74-0.08,1.1,0.22,1.36,0.85c0.35,0.85,0.74,1.67,0.65,2.64c-0.06,0.62-0.21,1.07-0.88,1.25c-0.38,0.1-0.75,0.27-1.11,0.44
		c-1.65,0.76-2.84,2.65-2.75,4.44c0.05,1.04,0.69,2.47,2.16,2.88c2.05,0.57,4.02,0.45,5.83-0.84c0.73-0.52,1.27-1.19,1.72-1.96
		c0.32-0.55,0.58-1.18,1.09-1.56c1.22-0.9,2.34-1.91,3.52-2.84c0.24-0.19,0.57-0.28,0.88-0.36c1.05-0.27,2.06-0.64,3.05-1.07
		c2.64-1.14,5.44-1.48,8.25-1.85c0.15-0.02,0.32-0.07,0.53,0.11c-0.04,0.66-0.24,1.34-0.49,1.98c-0.79,2.01-1.8,3.91-3.11,5.64
		c-0.09,0.12-0.23,0.21-0.35,0.32c-0.02,0.01-0.04,0.02-0.06,0.02c0.03-0.01,0.06-0.02,0.09-0.03c-0.31,0.24-0.65,0.44-0.87,0.79
		c-0.3,0.48-0.72,0.85-1.15,1.2l0.02,0.04c-0.09-0.2-0.19-0.13-0.29-0.01l0.04-0.03c-0.7-0.01-1.22,0.4-1.79,0.72
		c0.1,0,0.08,0.07,0.02,0.04c-0.14-0.07-0.02,0.08,0.01-0.08c0.34,0.02,0.67,0.03,1.01,0.05c0.4,0.37,0.56,0.01,0.76-0.25
		l-0.03,0.04c0.37,0.14,0.6-0.08,0.84-0.31c2.91-2.75,5.03-5.97,5.86-9.94c0.01-0.04,0.01-0.08,0.02-0.12
		c0.04-0.17,0.17-0.28,0.33-0.3c0.17-0.02,0.31,0.1,0.34,0.26c0.1,0.63,0.24,1.26,0.26,1.89c0.06,2.03,0.02,4.06-0.42,6.07
		c-0.47,2.11-0.97,4.19-1.88,6.17c-0.37,0.8-0.77,1.58-1.27,2.3c-1.66,2.46-3.51,4.75-5.99,6.45c-0.69,0.48-1.4,0.9-2.18,1.23
		c-2.14,0.88-4.26,1.82-6.39,2.71c-2.66,1.11-5.39,2-8.24,2.42c-5.81,0.85-11.19-0.22-15.94-3.81c-1.55-1.17-2.74-2.67-3.63-4.4
		c-0.31-0.6-0.52-1.23-0.51-2.07c0.74,0.31,1.38,0.58,2.03,0.86c0.18,0.07,0.37,0.15,0.55,0.22c0.06-0.08,0.07-0.07,0.04,0.02
		c-0.02-0.02-0.04-0.03-0.07-0.05c-0.13-0.27-0.35-0.22-0.56-0.16c0.13-0.24-0.02-0.37-0.2-0.47c-0.56-0.31-1.13-0.6-1.69-0.91
		c-1.01-0.56-2.02-1.12-2.76-2.06c-1.38-1.75-1.67-3.75-1.36-5.88c0.17-1.18,0.4-2.36,0.55-3.54c0.13-1-0.07-1.96-0.51-2.89
		c-0.34,0.35,0,0.75-0.19,1.08c-1.09-1.65-1.6-6.96-0.85-9.05c1.46-0.42,2.27-1.47,2.69-2.9c0.2-0.69,0.44-1.37,0.42-2.1
		c-0.02-0.65,0.18-1.13,0.8-1.46c0.41-0.22,0.72-0.62,1.08-0.93c0.11-0.1,0.24-0.25,0.39-0.04c0.01,0.18-0.2,0.37,0.12,0.69
		C58.64,84.74,58.61,84.55,58.57,84.37z M76.64,81.54c0.2-0.02,0.41-0.03,0.61-0.05c-0.01-0.05-0.02-0.11-0.02-0.09
		c0-0.01,0.01,0.05,0.02,0.11c-0.2-0.01-0.41-0.12-0.58,0.07c-0.08,0.1-0.17,0.2-0.25,0.3c-0.47,0.25-0.99,0.47-1.18,1.09
		c0.96-0.47,0.96-0.47,1.15-1.12C76.47,81.75,76.56,81.64,76.64,81.54z M69.11,95.93c-0.07-0.01-0.14-0.04-0.2-0.02
		c-0.04,0.02-0.07,0.15-0.06,0.16c0.14,0.07-0.06,0.03,0.08-0.04C69,96,69.05,95.95,69.1,95.91c0.05-0.21,0.09-0.42,0.14-0.62
		c0.29-0.12,0.19-0.63,0.67-0.6c0.04,1.87-0.16,3.7-0.87,5.45c-0.2,0.49-0.49,0.87-0.96,1.28c-0.16-0.73-0.1-1.34,0.03-1.95
		c0.08-0.35,0.22-0.68,0.09-1.05l0.08-0.03l-0.05,0.02c-0.16,0.12-0.36,0.22-0.39,0.43c-0.11,0.74-0.4,1.48-0.24,2.22
		c0.16,0.74-0.11,1.27-0.47,1.85c-0.47,0.76-0.98,1.53-1,2.49c-0.06,0.03-0.12,0.05-0.17,0.09c-0.01,0.01,0.01,0.05,0.01,0.08
		c0.04-0.07,0.09-0.14,0.13-0.2c0.07-0.09,0.15-0.17,0.21-0.27c0.74-1.17,1.33-2.44,2.26-3.49c0.73-0.83,1.15-1.79,1.39-2.85
		c0.28-1.2,0.4-2.42,0.41-3.65c0.01-1.11,0.04-2.22,0.38-3.29c0-0.09-0.01-0.17-0.01-0.26c-0.09,0.1,0,0.19,0.03,0.28
		c-0.12-0.04-0.27-0.03-0.3,0.09c-0.28,1.07-0.74,2.07-1.23,3.05c-0.04,0.09,0.01,0.23,0.03,0.35
		C68.89,95.43,69.08,95.7,69.11,95.93z"/>
	<path class="st0" d="M28.96,69.11c0.78,0.54,1.72,0.54,2.6,0.7c2.53,0.46,5.1,0.44,7.65,0.28c3.79-0.23,7.23-1.54,10.4-3.6
		c3.32-2.16,6.38-4.66,9.35-7.28c3.23-2.85,6.53-5.64,10.01-8.18c2.06-1.5,4.39-2.44,6.9-2.92c0.55-0.1,1.1-0.12,1.69,0.05
		c0.09,0.44,0.19,0.86,0.27,1.28c0.07,0.38-0.1,0.69-0.3,1c-0.48,0.74-0.84,1.52-0.95,2.43c-0.07,0.56-0.14,1.1,0,1.65
		c0.06,0.23,0.06,0.47,0.09,0.7c-1.65,1.38-2.58,3.17-3.06,5.19c-0.12,0.51-0.35,0.88-0.74,1.18c-1.54,1.21-2.71,2.71-3.45,4.52
		c-0.27,0.66-0.74,1.04-1.4,1.37c-1.85,0.93-3.63,2.01-5.46,3c-2.95,1.6-5.81,3.36-8.8,4.88c-0.88,0.45-1.67,0.59-2.62,0.22
		c-1.64-0.62-3.37-0.98-5.09-1.31c-1.99-0.38-3.99-0.19-5.91,0.46c-1.62,0.55-3.2,1.24-4.68,2.13c-0.97,0.58-1.66,1.34-1.92,2.47
		c-0.21,0.91-0.91,1.58-1.18,2.46c-1.94,0.29-3.72-0.05-5.46-0.71c-1.59-0.6-2.94-1.6-4.23-2.69c-0.39-0.33-0.77-0.69-1.14-1.06
		c-1.84-1.87-2.45-4.24-2.73-6.75c-0.26-2.4,0.12-4.75,0.6-7.1c0.56-2.71,1.47-5.3,2.69-7.79c0.35-0.72,0.69-1.44,1.03-2.16
		c0.66-1.43,1.66-2.63,2.66-3.82c1.8-2.16,3.78-4.12,6.11-5.7c2.58-1.75,5.45-2.85,8.5-3.39c1.49-0.27,3.03-0.19,4.52,0.15
		c2.33,0.54,4.13,2.82,4.2,5.22c0.06,1.9-0.11,3.75-0.93,5.5c-1.66,3.58-4.35,5.86-8.28,6.57c-1.8,0.33-3.42,1.04-4.99,1.94
		c-1.61,0.92-2.54,2.27-2.82,4.08c-0.15,0.99-0.16,1.99-0.07,2.99c0.07,0.86,0.46,1.6,1.11,2.36c-1.52,0.04-2.85-0.39-4.21-0.32
		c-0.11-0.22-0.24-0.25-0.49-0.03C28.66,69.11,28.81,69.11,28.96,69.11z"/>
	<path class="st0" d="M124.16,88.37c-0.12-0.36-0.49-0.36-0.76-0.46c-0.48-0.18-0.99-0.29-1.51-0.44c-0.38-1.13-0.28-2.28-0.37-3.51
		c0.96,0.13,1.66,0.67,2.39,0.99c0.35-0.04,0.44-0.27,0.57-0.47c0.56-0.92,1.13-1.84,1.71-2.74c0.16-0.25,0.29-0.56,0.65-0.64
		c0.3,0.24,0.24,0.58,0.27,0.88c0.08,0.75,0.14,1.51,0.21,2.26c0.07,0.74,0.4,1.24,1.14,1.52c2.41,0.93,4.47,2.45,6.47,4.06
		c0.7,0.56,1.16,1.32,1.62,2.06c0.16,0.27,0.24,0.6,0.67,0.73c0.97-0.6,1.95-1.28,3-1.83c1.01-0.54,1.99-1.17,3.16-1.38
		c0.18,0.36,0,0.64-0.15,0.91c-0.54,0.93-1.09,1.86-1.64,2.79c-0.18,0.31-0.36,0.62-0.52,0.94c-0.37,0.72-0.4,1.46-0.06,2.19
		c0.6,1.26,1.15,2.55,1.85,3.76c1.18,2.05,2.13,4.2,2.9,6.43c0.28,0.79,0.53,1.59,0.8,2.38c0.05,0.15,0.11,0.3,0.18,0.44
		c0.29,0.58,0.62,0.65,1.13,0.22c0.21-0.18,0.37-0.42,0.56-0.62c0.58-0.6,1.23-1.1,2.1-1.27c-0.07,0.92-0.6,2.09-1.9,4.23
		c0.02,0.24,0.11,0.46,0.24,0.67c1.65,2.74,3.2,5.53,4.25,8.56c0.44,1.28,0.78,1.45,1.94,0.47c0.45-0.38,0.9-0.77,1.46-1.25
		c0.22,0.9-0.03,1.6-0.22,2.3c-0.07,0.27-0.2,0.53-0.36,0.76c-0.83,1.19-0.86,2.52-0.8,3.9c0.12,2.87,0.2,5.75-0.25,8.6
		c-0.02,0.11,0.02,0.24-0.14,0.29c-0.47-0.19-0.53-0.67-0.67-1.05c-0.81-2.18-1.84-4.26-3.09-6.21c-0.77-1.21-0.74-2.3-0.18-3.5
		c0.2-0.43,0.4-0.87,0.59-1.31c0.06-0.14,0.12-0.3-0.07-0.54c-0.71-0.36-1.46-0.01-2.2,0.22c-0.72,0.23-1.41,0.54-2.07,0.8
		c-0.34-0.16-0.39-0.45-0.5-0.7c-0.92-1.99-1.85-3.99-3.32-5.66c-0.42-0.48-0.42-0.91-0.18-1.42c0.33-0.68,0.68-1.35,1.02-2.04
		c0.21-0.43,0.45-0.86,0.24-1.41c-0.43-0.29-0.87-0.14-1.33,0c-1.29,0.41-2.59,0.79-3.67,1.49c-0.33-0.06-0.44-0.23-0.54-0.4
		c-1.32-2.52-2.9-4.87-4.69-7.07c-0.67-0.83-0.69-1.62-0.24-2.54c0.45-0.93,0.82-1.91,1.22-2.86c0.1-0.23,0.13-0.46-0.06-0.66
		c-0.19-0.21-0.44-0.21-0.66-0.11c-0.74,0.3-1.48,0.6-2.2,0.94c-0.94,0.44-1.86,0.93-2.81,1.4c-2.35-1.26-4.31-3.12-6.58-4.55
		c-0.1-0.72,0.21-1.36,0.26-2.02c0.04-0.64,0.48-1.3,0.03-1.9c-0.33-0.17-0.53,0-0.72,0.13c-0.66,0.45-1.32,0.9-1.95,1.39
		c-0.44,0.34-0.9,0.38-1.34,0.11c-1.12-0.67-2.22-1.39-3.45-2.17c1.69-0.48,3.19-1.03,4.37-2.24c1.16-1.2,1.63-2.7,1.88-4.26
		c0.92-0.26,1.59,0.41,2.38,0.4c1.5,0.93,3.12,1.63,4.7,2.4c0.03,0.01,0.08-0.01,0.12-0.02c0.51,0.61,1.15,1.01,1.92,1.2
		c0.4,0.62,0.99,0.98,1.68,1.2c0.12,0.35,0.36,0.52,0.73,0.47c0.15,0.46,0.49,0.68,0.96,0.72c-0.05,0.16,0.07,0.23,0.17,0.31
		c0.25,0.15,0.44,0.45,0.8,0.4c-0.04,0.16,0.06,0.24,0.19,0.3c0.22,0.19,0.41,0.45,0.76,0.42c0.05,0.12,0.1,0.24,0.15,0.36
		c0.21,0.07,0.42,0.14,0.64,0.04c-0.04,0.16-0.02,0.3,0.17,0.35c0.06,0.1,0.12,0.21,0.18,0.31c0.19,0.09,0.38,0.13,0.58,0.05
		c0.09,0.11,0.19,0.21,0.28,0.32c0.04,0.12,0.07,0.24,0.11,0.35c0.07-0.03,0.11,0.01,0.06,0.05c-0.12,0.1,0.09,0.04-0.06-0.02
		c-0.05-0.12-0.09-0.24-0.14-0.37c-0.08-0.1-0.17-0.2-0.25-0.31c-0.19-0.11-0.39-0.1-0.59-0.06c0.01-0.14,0.02-0.3-0.19-0.31
		c-0.06-0.12-0.11-0.23-0.17-0.35c-0.2-0.14-0.41-0.14-0.63-0.05c0.03-0.16,0.04-0.31-0.17-0.35c-0.17-0.29-0.36-0.54-0.76-0.42
		c0.08-0.18,0.01-0.29-0.18-0.31c-0.19-0.29-0.4-0.53-0.8-0.39c0.09-0.19,0.04-0.3-0.17-0.32c-0.17-0.43-0.52-0.63-0.96-0.72
		c-0.12-0.35-0.35-0.52-0.73-0.47c-0.39-0.63-0.95-1.04-1.67-1.21c-0.48-0.65-1.13-1.03-1.92-1.2c0.01-0.19-0.12-0.28-0.26-0.35
		c-1.18-0.61-2.36-1.23-3.56-1.82C124.86,88.44,124.54,88.22,124.16,88.37z"/>
	<path class="st0" d="M134.11,60.15c-0.53-0.29-1.03,0-1.5,0.14c-1.19,0.34-2.28,0.11-3.37-0.35c-1.26-0.53-2.27-1.91-1.68-3.62
		c0.33-0.96,0.82-1.82,1.48-2.58c1.24-1.4,2.7-2.48,4.57-2.91c0.23-0.05,0.48-0.14,0.7-0.1c1.66,0.28,3.34,0.15,5,0.36
		c3.15,0.4,6.19,1.09,9.01,2.64c1.61,0.88,3.28,1.65,4.92,2.47c1.1,0.55,2.26,0.71,3.6,0.45c-0.75,0.88-1.71,0.85-2.58,1.05
		c0.12,0.44,0.45,0.34,0.7,0.34c0.77,0.02,1.5,0.2,2.16,0.6c0.37,0.23,0.38,0.25,0.64,0.98c-0.94,0.36-2,0.3-2.96,0.72
		c0.48,0.35,1.13,0.32,1.47,0.87c-0.25,0.31-0.59,0.19-0.87,0.18c-3.81-0.11-7.32,1-10.71,2.62c-1.82,0.87-3.37,2.13-4.86,3.46
		c-0.78,0.7-1.39,1.54-1.91,2.44c-0.73,1.29-1.52,2.53-2.4,3.72c-0.48,0.65-1,1.27-1.62,1.76c-2.17,1.72-4.59,2.3-7.29,1.5
		c-0.42-0.12-0.83-0.27-1.34-0.44c0.88-0.88,2.03-1.4,2.74-2.48c-0.62-0.76-1.44-1.09-2.37-1.22c-0.79-0.11-1.57-0.21-2.36-0.31
		c0.01-0.46,0.26-0.79,0.45-1.14c0.56-1.03,0.78-2.17,1.09-3.29c0.05-0.2,0.05-0.41-0.15-0.53c-0.19-0.11-0.39-0.08-0.57,0.04
		c-0.84,0.55-1.66,1.1-2.5,1.65c-0.33,0.22-0.6,0.53-1.05,0.65c-0.3-0.33-0.17-0.75-0.16-1.11c0.06-1.3-0.4-2.43-1.04-3.51
		c-0.24-0.41-0.52-0.8-1.04-0.82c-0.51,0.24-0.2,0.79-0.51,1.05c-0.09-0.22-0.39-0.16-0.55-0.36c-0.14-0.54-0.02-1.09,0-1.65
		c0.02-0.56,0.27-0.89,0.81-1.03c0.19-0.05,0.35-0.18,0.45-0.23c0.53-1.54,1.02-3.02,1.55-4.48c0.35-0.95,0.94-1.79,1.66-2.47
		c1.88-1.77,4.02-3.14,6.58-3.75c0.11-0.03,0.22,0,0.4,0c-0.15,0.5-0.54,0.72-0.83,1.03c-1.09,1.16-1.84,2.49-2.12,4.08
		c-0.41,2.26,0.87,3.86,2.6,4.57c1.34,0.55,2.63,0.45,3.94-0.03c0.37-0.13,0.73-0.29,1.05-0.41c0.44,0.15,0.34,0.57,0.52,0.81
		c0.45-0.42,0.18-0.95,0.24-1.43c-0.02-0.02-0.04-0.04-0.06-0.05c0.01,0,0.04,0,0.04,0C134.11,60.09,134.11,60.12,134.11,60.15z"/>
	<path class="st0" d="M114.58,107.07c0.42,1.03,1.24,1.78,1.9,2.64c0.08,0.09,0.13,0.22,0.28,0.21c0.03,0.18,0.15,0.22,0.31,0.22
		c-0.02,0.19-0.02,0.37,0.11,0.53c0.07,0.09,0.15,0.18,0.22,0.27c0.12,0.04,0.23,0.09,0.35,0.13c0.06,0.08,0,0.12-0.02,0.07
		c-0.07-0.14-0.08,0.06,0.05-0.04c-0.14-0.05-0.28-0.1-0.42-0.15c-0.07-0.09-0.14-0.18-0.21-0.27c0.06-0.19,0.03-0.37-0.12-0.51
		c-0.1-0.08-0.2-0.15-0.3-0.23c-0.01-0.18-0.14-0.2-0.29-0.2c0.07-0.14,0.1-0.36,0.21-0.41c1.24-0.59,1.84-1.74,2.49-2.83
		c0.76-1.27,1.43-2.58,2.14-3.88c0.09-0.17,0.15-0.37,0.43-0.53c0.17,0.27,0.1,0.58,0.14,0.86c0.26,1.75,0.23,3.49-0.21,5.22
		c-0.32,1.24-0.61,2.48-0.78,3.75c-0.11,0.78-0.02,1.45,0.45,2.15c1.61,2.43,2.9,5.06,4.19,7.67c0.15,0.31,0.42,0.6,0.25,1
		c-0.03,0.08,0.04,0.23,0.11,0.32c0.48,0.63,0.75,1.41,1.34,2.04c0.63-0.24,0.88-0.79,1.14-1.31c0.89-1.83,1.9-3.6,2.53-5.55
		c0.06-0.18,0.08-0.4,0.35-0.55c0.23,0.38,0.19,0.82,0.22,1.22c0.2,3.02-0.25,5.97-1.03,8.88c-0.04,0.15-0.09,0.31-0.15,0.46
		c-0.52,1.33-0.37,2.6,0.04,3.95c0.55,1.83,0.96,3.71,0.91,5.65c-0.02,0.57,0.12,1.11,0.26,1.65c0.2,0.76,0.51,0.85,1.22,0.44
		c0.14-0.08,0.27-0.17,0.41-0.25c0.16,0.27-0.07,0.62,0.2,0.94c-0.01-0.38,0.07-0.7-0.23-0.92c0.66-0.68,1.33-1.36,2.07-2.11
		c0.25,0.74-0.03,1.28-0.26,1.79c-0.44,1.02-0.96,2.02-1.45,3.02c-0.11,0.21-0.21,0.43-0.35,0.63c-0.52,0.73-0.46,1.43-0.12,2.25
		c0.69,1.66,1.22,3.38,1.65,5.12c0.1,0.39,0.19,0.77,0.1,1.32c-1.68-1.68-3.11-3.47-4.86-5c0.8-1.3,1.4-2.59,1.57-4.04
		c0.04-0.31,0.11-0.64-0.19-0.99c-1.22,0.4-2.06,1.6-3.55,1.79c-1.68-1.8-3.42-3.66-5.2-5.58c1.92-2.93,2.49-6.15,2.23-9.51
		c-0.41-0.18-0.58,0.03-0.68,0.23c-0.73,1.48-2.09,2.4-3.18,3.56c-0.71,0.75-1.54,1.38-2.44,1.92c-0.47-0.1-0.78-0.41-1.06-0.75
		c-1.36-1.67-2.73-3.33-4.08-5.01c-0.37-0.46-0.69-0.97-1.04-1.46c1.06-1.96,1.09-4,0.89-6.15c-0.9,0.19-1.32,0.95-1.97,1.36
		c-0.66,0.41-1.19,1.04-1.96,1.29c-0.21-0.32-0.09-0.59-0.01-0.85c0.7-2.48,1.01-5,0.9-7.57c-0.05-1.24,0.04-2.48-0.04-3.72
		c-0.1-1.47-0.35-2.92-0.25-4.41c0.07-1.03-0.21-2.07-0.57-3.04c-0.48-1.3-0.4-2.67-0.58-4.01c-0.03-0.22-0.06-0.49,0.21-0.63
		l-0.03-0.03c0.09,0.09,0.18,0.18,0.28,0.27l-0.03-0.03c0.03,0.2,0.1,0.39,0.27,0.53l-0.03-0.04c0.03,0.16,0.1,0.27,0.28,0.27
		l-0.04-0.04c0.04,0.34,0.15,0.64,0.52,0.77l-0.04-0.05c0.12,0.44,0.29,0.84,0.76,1.01l-0.04-0.05c0.19,0.74,0.65,1.28,1.24,1.73
		l-0.04-0.05c0.08,0.47,0.3,0.82,0.76,1.01l-0.04-0.05c0.2,0.73,0.62,1.3,1.24,1.73l-0.04-0.05c0.08,0.47,0.31,0.82,0.76,1.01
		L114.58,107.07z M127.78,126.06c0.08-0.05,0.09-0.04,0.03,0.04c-0.02-0.02-0.03-0.04-0.05-0.07
		C127.77,126.04,127.77,126.05,127.78,126.06z"/>
	<path class="st0" d="M108.31,95.14c0.43-0.18,0.8-0.12,1.15-0.12c1.4,0.01,2.79-0.12,4.16-0.38c0.74-0.14,1.37,0.03,2.04,0.4
		c3.13,1.74,5.85,4.02,8.55,6.33c1.1,0.94,2.12,1.94,3.04,3.05c1.98,2.4,4.05,4.73,5.76,7.35c2.02,3.09,3.7,6.35,4.7,9.92
		c0.71,2.53,1.25,5.1,1.43,7.75c0.2,3.03,0.3,6.06,0.11,9.09c-0.2,3.15-0.87,6.23-1.74,9.27c-0.4,1.38-0.69,2.79-1.26,4.12
		c-0.11,0.26-0.17,0.53-0.45,0.68c-0.82-2.34-1.29-4.77-2.22-7.06c-0.06-0.15-0.12-0.3-0.18-0.44c-0.29-0.74-0.29-1.44,0.16-2.15
		c0.67-1.05,1.17-2.18,1.64-3.33c0.35-0.85,0.53-1.73,0.5-2.63c-0.55-0.23-0.77,0.15-0.96,0.4c-0.61,0.8-1.49,1.32-2.15,2.06
		c-0.12,0.13-0.29,0.28-0.59,0.21c-0.4-0.5-0.41-1.14-0.41-1.76c0.01-2.14-0.44-4.21-1.05-6.23c-0.31-1.05-0.35-2.02-0.01-3.04
		c0.62-1.86,0.98-3.79,1.23-5.72c0.24-1.86,0.2-3.74-0.15-5.6c-0.05-0.27-0.07-0.57-0.51-0.64c-0.64,0.71-0.69,1.71-1.06,2.57
		c-0.4,0.92-0.82,1.82-1.27,2.71c-0.43,0.84-0.78,1.72-1.41,2.62c-0.13-0.2-0.21-0.29-0.26-0.39c-1.26-2.85-2.71-5.61-4.21-8.34
		c-0.35-0.63-0.72-1.24-1.13-1.84c-0.43-0.63-0.58-1.27-0.46-2.03c0.16-1.03,0.33-2.05,0.62-3.05c0.55-1.91,0.7-3.83,0.4-5.8
		c-0.08-0.55-0.08-1.12-0.11-1.67c-0.01-0.29-0.07-0.55-0.39-0.71c-0.41,0.18-0.45,0.62-0.61,0.96c-1,2.05-2.08,4.05-3.38,5.92
		c-0.32,0.46-0.68,0.88-1.15,1.15c-0.47-0.09-0.54-0.48-0.71-0.79c-1.64-3.11-3.43-6.13-5.34-9.09c-0.52-0.8-1.12-1.56-1.69-2.32
		C108.52,95.97,108.47,95.89,108.31,95.14z"/>
	<path class="st0" d="M141.71,66.75c-0.34,0.58-0.68,1.16-1.01,1.75c-0.89,1.6-1.44,3.28-1.36,5.14c0.07,1.53,0.74,2.66,2.06,3.42
		c0.84,0.48,1.76,0.75,2.69,0.98c0.54,0.13,1.09,0.26,1.6,0.47c0.84,0.35,1.01,0.77,0.93,1.69c-0.06,0.69-0.01,1.39-0.01,2.27
		c0.31-0.88,0.58-1.58,0.81-2.29c0.2-0.62,0.06-1.18-0.37-1.67c-0.37-0.43-0.81-0.78-1.35-0.96c-0.49-0.16-0.99-0.31-1.48-0.46
		c-0.49-0.16-1-0.28-1.48-0.47c-1.99-0.78-2.74-2.17-2.35-4.26c0.42-2.22,1.48-4.12,2.93-5.81c0.41-0.48,0.85-0.94,1.32-1.38
		c0.97-0.9,2.11-1.42,3.36-1.77c0.49-0.14,1.01-0.2,1.4-0.61c0.12-0.13,0.36-0.15,0.56-0.19c1.47-0.36,2.95-0.7,4.48-0.69
		c1.52,0.01,3.04,0.01,4.56,0c0.67,0,1.35,0.08,2.1-0.21c-0.34,0.84-1.26,0.67-1.68,1.34c0.93,0.19,1.7-0.48,2.59-0.3
		c-0.36,1.21-1.27,2.07-1.89,3.12c0.45,0.15,0.58-0.31,0.9-0.31c0.01,0.07,0.06,0.16,0.03,0.22c-0.14,0.33-0.31,0.65-0.45,0.98
		c-0.12,0.29-0.37,0.64-0.3,0.89c0.27,0.96-0.34,1.68-0.59,2.49c-0.18,0.57-0.43,1.12-0.67,1.67c-1.33,3.05-2.19,6.25-3.02,9.45
		c-0.57,2.19-1.56,4.18-2.75,6.09c-0.72,1.15-1.73,1.97-2.98,2.52c-0.37,0.16-0.74,0.27-1.17,0.27c-1.67-2.09-3.57-3.97-5.68-5.63
		c-2.6-2.05-5.43-3.64-8.65-4.5c-1.93-0.51-3.84-1.11-5.84-1.25c-0.65-0.05-0.77-0.65-1.23-0.87l-0.02,0.03
		c0.37-0.2,0.78-0.12,1.18-0.14c0.32-0.02,0.64-0.02,0.95-0.07c2.7-0.37,4.74-1.75,6.27-3.97c0.77-1.12,1.51-2.26,2.18-3.44
		c0.76-1.35,1.83-2.41,3-3.38c0.13-0.11,0.27-0.16,0.44-0.1C141.73,66.77,141.71,66.75,141.71,66.75z"/>
	<path class="st0" d="M155.34,136.28c-0.04-1,0.18-1.98,0.25-2.98c0.16-2.32,0.09-4.63-0.01-6.95c-0.04-0.95,0.13-1.8,0.66-2.61
		c0.55-0.85,0.77-1.83,0.85-2.84c0.03-0.36,0.06-0.72-0.15-1.05c-0.33-0.22-0.6-0.08-0.86,0.13c-0.43,0.35-0.86,0.71-1.28,1.07
		c-0.24,0.2-0.46,0.43-0.86,0.55c-0.79-1.62-1.24-3.37-2.11-4.93c-0.87-1.57-1.74-3.14-2.62-4.75c0.4-1.2,1.07-2.3,1.62-3.45
		c0.23-0.48,0.43-0.94,0.16-1.5c-1.52,0.21-2.58,1.14-3.52,2.29c-0.53-0.26-0.51-0.76-0.64-1.14c-0.9-2.6-1.79-5.2-3.18-7.61
		c-0.79-1.38-1.5-2.82-2.17-4.27c-0.37-0.81-0.36-1.53,0.08-2.27c0.63-1.07,1.24-2.14,1.88-3.2c0.27-0.45,0.5-0.91,0.61-1.44
		c-0.14-0.41-0.41-0.52-0.83-0.41c-1.09,0.29-2.08,0.81-3.05,1.35c-0.98,0.54-1.91,1.16-2.88,1.75c-0.31-0.07-0.36-0.39-0.5-0.61
		c-0.62-1.04-1.44-1.9-2.41-2.63c-1.79-1.36-3.63-2.61-5.72-3.46c-0.59-0.24-0.84-0.65-0.91-1.27c-0.11-1.07-0.09-2.15-0.38-3.2
		c-0.06-0.24-0.11-0.47-0.42-0.58c-0.8,0.41-1.16,1.24-1.64,1.96c-0.46,0.69-0.88,1.41-1.34,2.15c-0.73-0.29-1.42-0.57-2.12-0.85
		c-0.27-0.11-0.49-0.25-0.57-0.56c-0.33-1.3-0.68-2.6-1.03-3.95c1.67-0.28,3.29-0.36,4.92-0.12c0.59,0.09,1.2,0.03,1.8,0.07
		c2.76,0.19,5.42,0.82,8.08,1.59c3.94,1.14,7.2,3.35,10.19,6.07c3.7,3.38,6.25,7.54,8.13,12.13c0.99,2.41,1.49,4.96,2,7.51
		c0.4,1.99,0.74,4,1.08,6c0.26,1.57,0.75,3.1,0.94,4.69c0.14,1.11,0.25,2.21,0.4,3.32c0.33,2.38,0.34,4.78,0.27,7.17
		c-0.09,2.83-0.83,5.51-2.05,8.06c-0.14,0.28-0.21,0.69-0.65,0.74L155.34,136.28z"/>
	<path class="st0" d="M88.17,63.2c4.89,1.29,9.89,2.11,15.11,1.48c0.02,1.29,0.46,2.45,0.67,3.66c0.58,3.25-0.19,6.22-2.16,8.81
		c-0.72,0.95-1.68,1.59-2.75,2.06c-1.94,0.85-3.93,1.13-6.06,0.82c-1.71-0.24-3.22-0.87-4.73-1.6c-1.52-0.74-2.59-1.98-3.52-3.34
		c-0.5-0.74-0.79-1.58-0.87-2.46c-0.31-3.57,0.73-6.61,3.51-8.98C87.6,63.47,87.82,63.3,88.17,63.2z"/>
	<path class="st0" d="M93.65,52.86c1.45-0.41,2.81-0.84,4.14-1.38c0.46-0.19,0.94-0.14,1.42-0.14c2.55-0.01,4.85-0.81,6.97-2.19
		c0.81-0.53,1.5-1.19,1.82-2.16c0.03-0.11,0.02-0.23,0.03-0.43c-0.79,0.85-1.37,1.79-2.66,2.4c1.35-1.97,2.83-3.56,3.36-5.65
		c0.5-0.06,0.9,0.06,1.24,0.23c1.79,0.92,3.43,2.01,4.46,3.85c1.07,1.92,1.7,3.96,1.78,6.14c0.06,1.5-0.43,2.89-1.19,4.2
		c-1.47,2.49-3.72,3.18-6.44,2.9c-2.73-0.29-5.13-1.46-7.42-2.85c-2.25-1.37-4.44-2.83-6.65-4.27
		C94.24,53.35,93.91,53.28,93.65,52.86z"/>
	<path class="st0" d="M109.58,61.2c-0.46,0.96-1.13,1.39-1.88,1.66c-3.03,1.08-6.13,1.69-9.38,1.52c-3.53-0.18-6.96-0.88-10.35-1.78
		c-1.96-0.52-3.85-1.31-5.76-2.02c-1-0.37-1.76-1.12-2.5-1.82c-0.66-0.63-1.28-1.32-1.77-2.1c-1.12-1.8-1.29-3.65-0.25-5.55
		c0.04-0.07,0.1-0.12,0.16-0.17c0.03-0.02,0.07-0.02,0.16-0.04c0.11,0.53,0.25,1.05,0.31,1.59c0.06,0.58,0.4,0.94,0.82,1.26
		c0.38,0.3,0.82,0.5,1.27,0.66c1.28,0.46,2.62,0.7,3.94,0.98c0.5,0.1,0.95-0.09,1.41-0.22c1.96-0.55,3.93-1.07,5.86-1.7
		c0.93-0.3,1.69-0.18,2.48,0.34c2.13,1.41,4.27,2.81,6.44,4.17c1.73,1.09,3.54,2.02,5.49,2.65C107.13,60.99,108.26,61.2,109.58,61.2
		z"/>
	<path class="st0" d="M83.92,74.85c-1.27,0.15-2.46,0.64-3.72,0.87c-1.81,0.33-3.57,0.15-5.32-0.29c-0.67-0.17-1.27-0.47-1.82-0.88
		c-0.68-0.51-1.43-0.86-2.23-1.11c-1.44-0.46-2-1.31-2.05-2.84c-0.05-1.86,0.62-3.51,1.46-5.1c1.56-2.95,4-4.78,7.25-5.55
		c0.69-0.16,1.38-0.37,2.16-0.59c1.33,1.46,3.18,2.08,5.05,2.67c0.83,0.26,1.65,0.59,2.52,0.91c-0.24,0.47-0.63,0.75-0.96,1.08
		c-1.94,1.93-2.84,4.27-2.93,6.98c-0.05,1.34,0.17,2.61,0.55,3.88L83.92,74.85z"/>
	<path class="st0" d="M114.64,46.65c-0.81-0.93-1.7-1.78-2.73-2.48c-0.79-0.54-1.61-1.03-2.57-1.24c0.5-0.9,2.24-2.28,3.75-2.98
		c1.28,0.9,1.54,2.51,2.3,3.71c0.38,0.07,0.48-0.18,0.57-0.39c0.26-0.59,0.27-1.24,0.34-1.87c0.14-1.3,0.17-2.62,0.56-3.93
		c1.35-0.7,2.82-1.02,4.33-1.23c1.67-0.23,3.32-0.23,5,0.01c1.93,0.27,3.89,0.37,5.75,1.02c0.26,0.09,0.52,0.18,0.79,0.27
		c-0.05,0.14-0.08,0.26-0.14,0.36c-1.2,1.74-2.38,3.5-3.82,5.05c-0.53,0.57-1.1,0.79-1.9,0.75c-2.39-0.12-4.67,0.42-6.83,1.45
		c-0.28,0.13-0.62,0.23-0.65,0.64c0.23,0.41,0.62,0.28,0.95,0.23c1.47-0.22,2.94-0.18,4.4,0.08c0.27,0.05,0.55,0.08,0.72,0.41
		c-1.24,1.06-2.2,2.38-3.15,3.7c-0.32,0.44-0.67,0.72-1.26,0.77c-1.51,0.11-2.98,0.48-4.4,0.97c-0.23-0.18-0.22-0.44-0.27-0.66
		c-0.35-1.44-0.82-2.83-1.58-4.11c-0.1-0.17-0.13-0.37-0.2-0.56c0.09-0.08,0.19-0.17,0.28-0.25c0.07-0.09,0.14-0.19,0.21-0.28
		c0.12-0.03,0.21-0.1,0.2-0.24c0.17,0.01,0.25-0.07,0.24-0.24c0.17,0.01,0.25-0.07,0.24-0.24c0.2-0.04,0.19-0.18,0.16-0.34
		c0.58,0.21,0.73-0.35,1.06-0.59c0.14-0.04,0.24-0.11,0.23-0.27c0.2-0.05,0.18-0.19,0.15-0.34c0.4,0.19,0.59-0.12,0.82-0.35
		c0.14-0.04,0.24-0.11,0.23-0.27c0.34,0,0.54-0.22,0.73-0.45c0.14-0.04,0.24-0.11,0.22-0.28c0.34-0.01,0.58-0.16,0.71-0.48
		c0.21,0,0.27-0.1,0.2-0.29c0.21,0.07,0.41,0.05,0.55-0.14c0.15-0.08,0.19-0.21,0.16-0.37c0.22,0.05,0.43,0.1,0.61-0.09
		c0.15-0.08,0.3-0.16,0.45-0.24c0.1-0.1,0.19-0.21,0.16-0.37c0.21,0.04,0.43,0.09,0.56-0.16c0.18-0.07,0.35-0.13,0.53-0.2
		c0.12-0.13,0.36-0.09,0.42-0.3c0.07,0,0.14-0.01,0.21-0.01c0.03,0,0.09-0.03,0.09-0.04c0-0.1-0.06-0.13-0.15-0.08
		c-0.05,0.04-0.09,0.11-0.13,0.16c-0.2,0.01-0.31,0.15-0.41,0.29c-0.2,0.02-0.43-0.05-0.53,0.21c-0.21-0.01-0.39,0.03-0.56,0.16
		c-0.12,0.09-0.18,0.21-0.15,0.37c-0.2-0.01-0.44-0.13-0.46,0.22c-0.23-0.1-0.42,0.01-0.61,0.1c-0.05,0.13-0.1,0.25-0.14,0.38
		c-0.21-0.07-0.4-0.03-0.55,0.14c-0.12,0.06-0.22,0.13-0.21,0.29c-0.33,0.03-0.57,0.17-0.71,0.48c-0.19,0.01-0.27,0.09-0.21,0.29
		c-0.39-0.1-0.58,0.15-0.74,0.44c-0.2-0.01-0.27,0.09-0.22,0.28c-0.35-0.07-0.56,0.22-0.83,0.34c-0.05,0.11-0.1,0.23-0.15,0.34
		c-0.2-0.01-0.27,0.09-0.22,0.28c-0.5-0.07-0.7,0.42-1.07,0.58c-0.05,0.11-0.11,0.22-0.16,0.34c-0.18-0.02-0.26,0.06-0.24,0.24
		c-0.17-0.01-0.26,0.06-0.24,0.24c-0.14,0.01-0.23,0.07-0.2,0.23c-0.07,0.09-0.13,0.19-0.2,0.28
		C114.8,46.43,114.64,46.46,114.64,46.65z M124.91,39.41c-0.02,0-0.05,0.01-0.07,0.01c0.03-0.01,0.06-0.02,0.09-0.02
		c-0.02-0.09,0-0.1,0.06-0.02C124.96,39.38,124.94,39.39,124.91,39.41z"/>
	<path class="st0" d="M92.8,136.61c-0.15-0.45-0.04-0.72,0.02-0.99c0.42-1.79,0.65-3.6,0.62-5.45c-0.02-1.04,0-2.08,0-3.12
		c0-0.28,0.01-0.56-0.05-0.83c-0.11-0.54-0.38-0.86-1-1c-0.87-0.2-1.67,0.01-2.47,0.18c-2.18,0.48-4.33,1.07-6.46,1.75
		c-0.21,0.07-0.43,0.22-0.71-0.01c1.39-1.6,2.78-3.19,4.63-4.27c1.63-0.95,3.37-1.64,5.2-2.1c0.43-0.11,0.87-0.14,1.12-0.59
		c0.07-0.13,0.22-0.23,0.36-0.3c1.51-0.78,2.76-1.89,3.99-3.04c0.06-0.05,0.14-0.07,0.27-0.14c0.5,1.1-0.05,2.37,0.54,3.42
		c0.34,0.28,0.74,0.31,1.12,0.42c2.23,0.69,4.14,1.86,5.58,3.72c0.42,0.53,0.71,1.12,0.84,1.93c-2.69-0.44-5.26-1.18-7.88-0.96
		C97.23,129.37,95.44,133.12,92.8,136.61z"/>
	<path class="st0" d="M29.38,114.53c0.33,0.68,0.23,1.31,0.13,1.93c-0.32,1.98-0.97,3.86-1.77,5.69c-0.58,1.31-1.19,2.61-1.82,3.9
		c-0.62,1.26-1.47,2.36-2.37,3.41c-0.33,0.03-0.41-0.22-0.54-0.41c-1.63-2.44-3.89-3.57-6.84-3.26c-0.47,0.05-0.95,0.09-1.42-0.04
		C16.9,121.3,25.44,115.35,29.38,114.53z"/>
	<path class="st0" d="M36.73,140.6c-0.88,0.96-1.84,1.66-2.9,2.18c-3.22,1.61-6.45,3.18-9.7,4.72c-1.3,0.61-2.51,1.4-3.87,1.9
		c-0.48,0.18-0.96,0.38-1.41,0.57c-0.28-0.21-0.13-0.39-0.04-0.55c0.84-1.44,0.77-2.97,0.48-4.53c-0.08-0.42-0.4-0.67-0.6-1.05
		c0.29-0.49,0.82-0.6,1.28-0.81c1.4-0.62,2.89-0.9,4.35-1.31c3.2-0.9,6.47-1.34,9.79-1.54C34.98,140.14,35.82,140.22,36.73,140.6z"
		/>
	<path class="st0" d="M115.04,63.15c-0.46-1.01-0.8-2.05-1.72-2.79c1.86-1.68,3.15-3.63,3.31-6.23c1.4-0.18,2.7,0.11,4.09,0.38
		c-0.89,2.49-1.74,4.88-2.62,7.34C117.12,62.26,116.11,62.69,115.04,63.15z"/>
	<path class="st0" d="M81.44,97.74c0.11-2.52-0.81-4.47-2.63-6.22c0.87,0.17,1.54,0.32,2.22,0.44c2.08,0.36,4.17,0.67,6.2,1.26
		c0.42,0.12,1.07,0.1,1.11,0.72c0.03,0.5-0.53,0.66-0.86,0.91c-0.52,0.37-1.07,0.71-1.64,0.99c-1.22,0.6-2.45,1.16-3.69,1.73
		C81.98,97.64,81.78,97.66,81.44,97.74z"/>
	<path class="st0" d="M107.71,81.23c0.28,0.46,0.57,0.75,0.64,1.18c-0.44,0.32-0.96,0.07-1.42,0.32c0.71,0.28,1.59-0.32,2.2,0.53
		c-0.47,0.56-1.17,0.69-1.71,1.06c-0.52,0.35-1.1,0.62-1.71,0.95c-0.56-0.87-0.74-1.78-0.81-2.83
		C105.71,81.87,106.71,81.62,107.71,81.23z M106.18,82.89c-0.03,0.01-0.07,0.02-0.1,0.03c0.04,0.02,0.08,0.05,0.13,0.06
		c0.02,0,0.05-0.04,0.07-0.06C106.24,82.91,106.21,82.9,106.18,82.89z"/>
	<path class="st0" d="M108.85,99.15c-0.17-0.65-0.39-1.3-0.24-1.99c0.33-0.04,0.41,0.22,0.54,0.41c0.55,0.79,1.12,1.56,1.62,2.37
		c1.17,1.91,2.3,3.83,3.45,5.76c0.16,0.27,0.36,0.54,0.35,0.88l0.03-0.02c-0.21,0.03-0.32-0.12-0.42-0.26
		c-0.09-0.12-0.17-0.22-0.33-0.22l0.04,0.05c-0.25-0.69-0.62-1.3-1.24-1.73l0.04,0.05c-0.08-0.47-0.3-0.82-0.76-1.01l0.04,0.05
		c-0.19-0.74-0.65-1.27-1.24-1.73l0.04,0.05c-0.09-0.46-0.37-0.78-0.76-1.01c0,0,0.04,0.05,0.04,0.05
		c-0.01-0.37-0.27-0.56-0.52-0.77c0,0,0.04,0.04,0.04,0.04c-0.03-0.16-0.1-0.27-0.28-0.27c0,0,0.03,0.04,0.03,0.04
		c-0.06-0.19-0.1-0.39-0.27-0.53l0.03,0.03c-0.09-0.09-0.18-0.18-0.28-0.27L108.85,99.15z"/>
	<path class="st0" d="M83,87.98c-0.04-0.48-0.06-0.83-0.1-1.29c1.09,0.06,1.98,0.56,2.87,1.01c0.9,0.46,1.86,0.83,2.64,1.53
		C86.5,89.31,84.8,88.55,83,87.98z"/>
	<path class="st0" d="M115.61,65.41c0.56,0.16,1.08,0.15,1.65,0.46c-0.04,1.1-0.27,2.2-0.85,3.32
		C115.9,67.93,115.64,66.73,115.61,65.41z"/>
	<path class="st0" d="M114.58,106.58c0.26,0.16,0.13,0.33,0,0.49l0.03,0.01c0-0.17,0-0.35,0-0.52L114.58,106.58z"/>
	<path class="st0" d="M97.06,105.86c0,0.09,0.01,0.17,0.01,0.26c0,0,0.03-0.04,0.03-0.04c-0.17,0.01-0.35,0.02-0.52,0.03
		c0.13-0.18,0.3-0.24,0.51-0.23L97.06,105.86z"/>
	<path class="st0" d="M97.32,105.6c-0.09,0.09-0.18,0.17-0.27,0.26c0,0,0.04,0.02,0.04,0.02c0-0.09,0-0.18-0.01-0.28
		c0,0-0.04,0.03-0.04,0.03c0.1,0,0.2,0,0.29,0.01L97.32,105.6z"/>
	<polygon class="st0" points="155.36,136.25 155.36,136.34 155.34,136.28 	"/>
	<path class="st0" d="M142.06,66.57c0.08-0.14,0.11,0.08,0.03-0.06c-0.03-0.07-0.09-0.03-0.06,0.05L142.06,66.57z"/>
	<path class="st0" d="M141.73,66.77c0.02-0.22,0.17-0.21,0.33-0.2l-0.02-0.02c-0.11,0.06-0.22,0.13-0.33,0.19L141.73,66.77z"/>
	<path class="st0" d="M127.73,77.85c-0.01,0.01-0.01,0.02-0.02,0.03L127.73,77.85z"/>
	<path class="st0" d="M96.61,106.08c-0.09,0.09-0.19,0.19-0.28,0.28C96.42,106.27,96.51,106.18,96.61,106.08z"/>
</g>
</svg>
