<?xml version="1.0" encoding="utf-8"?>
<!-- Generator: Adobe Illustrator 24.0.2, SVG Export Plug-In . SVG Version: 6.00 Build 0)  -->
<svg version="1.1" id="Layer_1" xmlns="http://www.w3.org/2000/svg" xmlns:xlink="http://www.w3.org/1999/xlink" x="0px" y="0px"
	 width="209.85" height="433.99" viewBox="0 0 209.85 433.99" style="enable-background:new 0 0 209.85 433.99;" xml:space="preserve">
<style type="text/css">
	.st0{fill:#1A1A1A;}
</style>
<path d="M69.04,80.3c-2.97-1.06-3.99-3.47-4.33-6.31c-0.18-1.53,0.19-3.02,0.61-4.48c0.66-2.33,1.73-4.47,3.1-6.46
	c0.36-0.52,0.71-1.04,1.19-1.75c-0.95-0.38-1.81-0.23-2.63-0.22c-0.92,0.01-1.74-0.16-2.46-0.74c-0.97-0.77-2.11-1.05-3.33-1.21
	c-2.61-0.34-5.21-0.75-7.84-1.14c0.37-0.73,1.08-0.71,1.7-0.75c1.51-0.08,3.03-0.06,4.55-0.13c3.66-0.18,7.05-1.2,10.02-3.38
	c-0.47-1.32-1.58-1.45-2.62-1.62c-1.42-0.23-2.85-0.38-4.27-0.55c-2.83-0.33-5.27-1.69-7.91-2.76c0.73-0.74,1.54-0.68,2.33-0.72
	c4.82-0.22,9.24-1.71,13.36-4.17c1.17-0.7,2.31-1.43,3.45-2.17c1.42-0.92,2.62-2.09,3.63-3.45c0.81-1.09,1.53-2.29,2.52-3.19
	c1.11-1.02,1.52-2.09,1.4-3.58c-0.26-3.43-0.02-6.85,0.26-10.28c0.3-3.73,0.25-7.5,0.2-11.26c-0.03-2.44,0.54-4.77,1.1-7.07
	c0.73-3.02,4.24-3.88,6.43-1.7c1.78,1.78,3,3.93,3.91,6.26c1.37,3.5,2.36,7.12,3.41,10.73c0.69,2.37,1.41,4.73,2.07,6.94
	c0.84,0.57,1.42,0.11,1.99-0.09c2.77-1.01,5.51-0.84,8.2,0.22c1.93,0.76,3.82,1.61,5.72,2.46c1.84,0.82,3.46,1.97,4.9,3.39
	c0.73,0.72,1.55,1.36,2.31,2.02c0.99-0.5,1.67-1.18,2.25-1.93c1.14-1.46,2.49-2.69,3.9-3.88c2.47-2.08,4.53-4.5,6.12-7.32
	c1.18-2.09,2.44-4.13,3.88-6.05c1.06-1.41,1.89-2.96,2.69-4.53c0.44-0.86,0.9-1.71,1.62-2.36c1.57-1.43,3.45-1,4.2,0.97
	c0.73,1.92,0.58,3.95,0.56,5.93c-0.04,4.47-0.01,8.96-0.53,13.38c-0.43,3.66-0.33,7.33-0.81,10.97c-0.15,1.15-0.19,2.35,0.28,3.54
	c0.44,1.14,0.1,2.38-0.1,3.55c-0.41,2.44-0.71,4.92-1.36,7.29c-0.66,2.43-1.1,5.01-2.76,7.06c-0.4,0.5-0.51,0.98-0.37,1.54
	c0.18,0.69,0.37,1.39,0.65,2.05c1.04,2.51,1.23,5.1,0.93,7.76c-0.04,0.32-0.09,0.63-0.13,0.95c-0.29,2.2,0.84,4.38,3.58,4.3
	c0.15,0,0.29,0.09,0.55,0.18c-0.12,0.88-0.82,1.05-1.48,1.15c-1.01,0.15-2.03,0.01-2.95-0.26c-0.44,0.66-0.37,1.01,0.25,1.23
	c0.73,0.25,1.63-0.07,2.24,0.61c-0.58,2.32-1.45,3.04-6.42,5.23c0.2,1,1.1,1.49,1.71,2.16c1.71,1.88,2.42,4.08,2.33,6.59
	c-0.02,0.67-0.2,1.25-0.64,1.72c-0.66,0.18-0.85-0.33-1.13-0.7c-1.07-1.36-2.4-2.3-4.11-2.71c-0.51-0.12-0.94-0.05-1.39,0.22
	c-0.4,0.48-0.25,1.03-0.05,1.55c0.11,0.29,0.38,0.53,0.47,0.83c0.87,2.76-1.03,4.85-3.87,4.26c-0.37-0.08-0.73-0.26-1.16-0.42
	c-0.67,0.74-1.12,1.57-1.37,2.5c-0.33,1.24,0.5,2.08,1.74,1.74c0.59-0.16,1.14-0.5,1.7-0.75c0.54,0.63,0.24,1.11-0.16,1.53
	c-1.07,1.12-2.44,1.44-3.92,1.34c-0.38-0.02-0.76-0.24-1.24,0.03c0,1.88-0.69,3.51-2.37,4.55c0.08,0.99,0.62,1.71,0.95,2.52
	c1.82,0.5,3.15,1.83,4.73,2.73c1.6,0.92,3.2,1.8,4.94,2.43c1.43,0.52,2.87,0.86,4.42,0.9c1.91,0.05,3.82,0.36,5.71,0.64
	c1.37,0.2,2.54,0.96,3.65,1.73c3.14,2.18,5.74,4.82,7.05,8.54c0.82,2.33,2.02,4.5,2.65,6.92c0.74,2.85,2.9,4.93,4.54,7.27
	c0.87,1.24,1.91,2.37,2.73,3.64c1.8,2.79,4.19,5,6.65,7.19c2.41,2.14,5.17,3.72,7.9,5.37c1.72,1.04,3.08,2.48,4.1,4.24
	c0.56,0.97,0.62,1.94,0.2,2.98c-0.78,1.93-1.59,3.84-2.78,5.57c-3.2,4.66-7.13,8.59-11.76,11.84c-2.42,1.7-4.84,3.4-6.92,5.52
	c-0.06,0.06-0.14,0.08-0.19,0.15c-1.7,2.47-4.17,4.11-6.4,6.01c-0.9,0.77-1.83,1.25-3.04,1.09c-1.81-0.24-3.67-0.12-5.42-0.85
	c-1.29-0.53-2.68-0.43-4.03-0.3c-1.63,0.15-1.8,0.38-2.02,2.51c1.79,0.84,3.63,1.77,5.52,2.56c1.55,0.64,3.15,1.14,4.76,1.61
	c7.4,2.2,14,5.79,19.59,11.18c1.86,1.79,3.32,3.9,4.8,5.97c3.33,4.69,6.5,9.51,8.73,14.86c1.26,3.02,2.17,6.17,3.12,9.3
	c1.05,3.43,1.81,6.94,3.13,10.3c0.85,2.16,2.14,3.91,3.83,5.41c1.01,0.9,2.08,1.75,3.15,2.58c4.29,3.35,7.23,7.78,9.02,12.78
	c1.82,5.1,1.74,10.38-1.05,15.3c-0.71,1.26-1.59,2.39-3.04,2.94c-1.18,0.45-2.19,0.27-3.06-0.61c-0.91-0.91-1.7-1.94-2-3.22
	c-0.33-1.37-1.05-2.48-1.98-3.5c-0.75-0.83-1.46-1.7-2.21-2.52c-1.7-1.87-3.65-3.32-6.25-3.68c-1.04-0.15-2.02-0.52-2.9-1.1
	c-0.69-0.45-1.43-0.68-2.22-0.84c-2.97-0.6-5.93-1.3-8.91-1.83c-2.75-0.49-5.19-1.59-7.28-3.42c-1.44-1.26-2.9-2.5-4.13-4
	c-1.86-2.26-3.39-4.65-3.51-7.63c-0.68-0.19-0.79,0.22-0.88,0.59c-1.6,6.21-4.42,11.98-6.52,18.01c-1.5,4.29-3.34,8.44-4.51,12.87
	c-1.2,4.54-2.94,8.95-4.9,13.25c-0.53,1.17-0.99,2.35-1.29,3.6c-0.29,1.19-0.12,2.2,0.88,3.02c0.74,0.6,1.39,1.33,2.16,1.9
	c4.29,3.18,7.85,7.08,10.71,11.55c2.16,3.36,3.82,7.03,4.92,10.89c1.49,5.23,2.57,10.55,3.26,15.94c0.16,1.27,0.36,2.53,0.64,3.78
	c1.95,8.73,3.58,17.52,5.23,26.31c0.31,1.65,0.78,3.26,1.47,4.8c0.47,1.04,1.11,1.82,2.23,2.36c3.32,1.59,5.39,4.28,5.85,7.94
	c0.39,3.12,0.24,6.28-1.35,9.1c-1.1,1.95-1.43,3.97-1.62,6.16c-0.29,3.35-0.27,6.71-0.45,10.05c-0.17,3.09-0.46,6.21-1.71,9.13
	c-0.99,2.3-3.12,3.31-5.45,2.32c-1.18-0.5-2.19-0.7-3.42-0.22c-1.04,0.4-1.46,0.19-3.53-0.72c-2.63,1.31-5.15,0.98-7.54-1.14
	c-1.21,1.03-2.77,1.41-4.19,1.2c-1.35-0.2-2.65-1.05-3.62-2.26c-0.91,0.42-1.83,0.84-2.75,1.27c-3.36,1.54-6.31-1.25-6.55-4.12
	c-0.15-1.74,0.15-3.12,1.96-3.93c1.16-0.52,2.19-1.29,3.57-1.18c0.75,0.06,1.41-0.25,1.91-0.84c0.15-0.18,0.29-0.48,0.47-0.53
	c1.77-0.4,2.18-1.9,2.79-3.28c2.14-4.83,3.59-9.91,5.32-14.88c0.77-2.22,0.9-4.54,0.81-6.87c-0.02-0.55-0.15-1.1-0.31-1.64
	c-1.9-6.64-4.87-12.83-7.87-19.02c-1.43-2.94-2.72-5.96-3.92-9c-2.75-6.96-6.6-13.32-10.68-19.53c-3.15-4.8-6.59-9.43-10.32-13.81
	c-1.89-2.22-3.36-4.65-4.34-7.4c-0.26-0.74-0.64-1.44-0.98-2.19c-0.69,0.29-0.53,0.89-0.48,1.22c0.27,1.67-0.32,3.25-0.42,4.87
	c-0.1,1.6-0.26,3.18-0.5,4.76c-0.95,6.47-1.96,12.93-3.16,19.37c-1.13,6.04-2.07,12.12-3.25,18.15c-0.79,4.08-1.6,8.14-2.08,12.27
	c-0.23,1.98-0.44,3.96-0.65,5.95c-0.28,2.61-0.39,5.24-1.01,7.82c-0.64,2.66-0.65,5.36-0.14,8.08c0.63,3.39,1.46,6.71,3.04,9.81
	c0.73,1.43,1.62,2.75,2.74,3.92c0.62,0.64,1.19,1.26,2.22,1.17c0.36-0.03,0.87,0.11,1.1,0.37c1.2,1.32,2.81,1.41,4.4,1.53
	c0.98,0.07,1.95,0.17,2.66,0.91c1.39,1.47,2.07,3.2,1.59,5.25c-0.35,1.49-1.43,2.46-2.53,3.39c-0.45,0.38-1.01,0.46-1.59,0.41
	c-0.72-0.06-1.45-0.05-2.15-0.21c-1.58-0.36-3.12-0.52-4.68,0.17c-1,0.44-2.06,0.05-3.08-0.09c-0.81-0.11-1.56-0.22-2.3,0.28
	c-0.47,0.31-1.05,0.44-1.61,0.33c-1.72-0.32-3.42-0.37-5.17-0.16c-1.67,0.2-3.28-0.61-4.99-0.48c-0.52,0.04-1.09-0.22-1.59-0.46
	c-1.3-0.63-2.61-1.21-4.06-1.41c-0.48-0.06-0.96-0.2-1.3-0.55c-1.57-1.62-3.65-2.29-5.7-2.91c-4.25-1.28-4.15-2.89-3.62-6.25
	c0.22-1.4,0.85-2.71,1.71-3.92c2.85-3.99,5.2-8.24,6.47-13.02c0.33-1.23,0.55-2.49,0.87-3.73c0.31-1.21,0.13-2.39-0.2-3.54
	c-1.03-3.53-1.71-7.14-2.22-10.76c-0.29-2.11-0.06-4.29-0.53-6.41c-0.84-3.74-1.23-7.56-2.46-11.22c-0.69-2.05-0.84-4.23-1-6.38
	c-0.08-1.12-0.21-2.22-0.47-3.31c-0.88-3.67-1.1-7.42-1.47-11.16c-0.54-5.54,0.14-11.01,0.83-16.47c0.47-3.74,1.58-7.34,2.8-10.89
	c0.78-2.27,1.52-4.55,2.42-6.77c1.57-3.84,1.25-7.72,0.2-11.53c-1.18-4.31-2.17-8.67-3.32-12.98c-1.23-4.63-2.43-9.27-4.18-13.75
	c-0.52-1.34-0.86-2.73-1.14-4.15c-0.5-2.5-1.22-4.96-1.77-7.45c-0.9-4.06-1.04-8.23-1.58-12.34c-0.47-3.59-0.43-7.19-0.25-10.77
	c0.19-3.9,0.78-7.77,1.4-11.64c1.14-7.13,3.17-13.99,5.51-20.8c1.89-5.5,3.85-11.01,4.68-16.82c0.24-1.69,0.17-4.94-0.18-6.31
	c-0.48-0.07-0.72,0.25-0.94,0.58c-1.3,1.92-2.6,3.84-3.89,5.76c-0.78,1.17-1.01,2.49-1.01,3.88c0.01,4.02-0.73,7.95-1.66,11.84
	c-0.7,2.9-1.83,5.62-3.78,7.93c-0.1,0.12-0.2,0.25-0.29,0.38c-2.57,4.18-5.85,7.77-9.18,11.34c-3.72,3.98-6.23,8.67-7.78,13.89
	c-0.53,1.78-0.41,3.42,0.34,5.12c0.91,2.06,1.99,3.97,3.41,5.73c1.54,1.9,2.26,4.03,1.91,6.66c-0.49,3.65-0.22,7.33,0.99,10.89
	c0.31,0.9,0.48,1.85,0.66,2.79c0.12,0.63,0.3,1.2,0.68,1.75c1.07,1.58,1.03,1.87-0.06,3.4c-0.23,0.32-0.47,0.62-0.74,0.97
	c0.19,0.32,0.35,0.59,0.5,0.86c0.16,0.28,0.32,0.55,0.48,0.83c-0.33,2.17-2.75,1.29-3.61,2.45c-0.38,0.64-0.08,1.2-0.12,1.75
	c-0.13,1.65-0.9,2.38-2.58,2.44c-0.55,0.02-1.11,0.06-1.66,0.15c-0.22,0.04-0.42,0.22-0.67,0.35c-0.38,0.77-0.23,1.7-0.67,2.5
	c-0.68,1.26-1.42,1.64-2.73,1.14c-1.19-0.46-2.38-0.99-3.35-1.84c-1.02-0.9-2.04-1.79-3.18-2.55c-0.77-0.51-1.14-1.3-1.52-2.1
	c-2.01-4.26-3.96-8.56-6.13-12.74c-0.74-1.43-0.91-2.66-0.72-4.26c0.65-5.71,1.72-11.37,2.11-17.11c0.02-0.32,0.1-0.64,0.07-0.96
	c-0.3-3.18,0.56-6.15,1.48-9.15c2.13-6.95,4.62-13.79,7.24-20.56c1.99-5.12,3.88-10.3,6.41-15.22c1.34-2.61,2.25-5.46,3.25-8.24
	c0.87-2.41,1.81-4.78,2.98-7.06c1.14-2.22,1.71-4.59,2.29-7.02c1.44-5.97,2.75-11.98,4.89-17.77c1.83-4.94,3.49-9.95,4.27-15.2
	c0.35-2.36,0.83-4.68,0.72-7.11c-0.15-3.36,0.45-6.69,1.13-9.97c0.49-2.39,2.12-4.09,4.05-5.46c1.17-0.83,2.5-1.4,3.92-1.75
	c2.68-0.65,5.05-1.96,7.31-3.5c2.77-1.88,5.58-3.72,8.36-5.59c1.78-1.2,3.51-2.48,4.81-4.03c0-2.11-1.35-3.52-2.03-5.2
	c-0.27-0.66-0.94-0.82-1.64-0.69c-0.94,0.18-1.88,0.33-2.81,0.56c-3.33,0.84-6.4,0.53-9.37-1.45c-3.81-2.54-7.5-5.17-10.42-8.73
	c-0.4-0.49-0.77-1.03-1.09-1.58c-1.3-2.26-1.48-4.51,0.15-6.71c0.55-0.74,0.94-1.49,0.41-2.59c-2.47,1.05-4.93,2.32-8.12,2.14
	c0.77-0.8,1.33-1.33,1.83-1.92c0.46-0.54,0.84-1.15,1.31-1.8c-0.71-0.48-1.44,0.25-2.11-0.18c0.24-1.1,1.22-1.72,1.52-2.7
	c1.37-0.9,1.76-2.34,2.22-3.69c-0.8-1.41-1.24-2.8-1.48-4.26c-0.25,0.06-0.34,0.06-0.39,0.11c-0.11,0.11-0.23,0.22-0.3,0.36
	C67.66,75.28,67.96,77.79,69.04,80.3z M135.75,176.04c1.05,0.09,2,0.21,2.89,0.56c4.36,1.75,8.99,2.11,13.6,2.52
	c2.1,0.19,2.38-0.06,3.27-2.02c1.25-2.77,2.03-5.72,3.51-8.39c0.4-0.72,0.25-1.39-0.36-1.95c-0.23-0.22-0.49-0.41-0.72-0.64
	c-4.62-4.65-9.61-8.91-14.45-13.33c-0.23-0.21-0.48-0.43-0.83-0.28c-0.07,0.14-0.17,0.27-0.21,0.42c-1.34,4.35-2.93,8.61-4.35,12.93
	c-0.85,2.58-1.34,5.26-2.36,7.78C135.48,174.31,135.51,175.06,135.75,176.04z"/>
</svg>
