<?xml version="1.0" encoding="utf-8"?>
<!-- Generator: Adobe Illustrator 24.1.3, SVG Export Plug-In . SVG Version: 6.00 Build 0)  -->
<svg version="1.1" id="Layer_1" xmlns="http://www.w3.org/2000/svg" xmlns:xlink="http://www.w3.org/1999/xlink" x="0px" y="0px"
	 width="259.91" height="510.92" viewBox="0 0 259.91 510.92" enable-background="new 0 0 259.91 510.92" xml:space="preserve">
<g>
	<path d="M81.36,173.66c-2.98-5.76-5.17-11.64-6.31-17.8c-0.71-0.31-0.98,0.19-1.3,0.5c-2.22,2.11-4.04,4.54-5.57,7.18
		c-4.53,7.82-9.49,15.36-14.49,22.88c-0.66,1-1.28,2.02-1.93,3.03c-1.51,2.35-2.12,4.99-2.29,7.72c-0.19,3.02-0.18,6.05,0.24,9.07
		c0.31,2.23-0.21,4.46-0.5,6.66c-0.59,4.48-2.32,8.6-4.43,12.57c-2.18,4.09-4.4,8.15-6.49,12.29c-2.79,5.51-4.74,11.32-5.9,17.41
		c-0.36,1.87-0.23,3.57,0.56,5.34c3.43,7.74,6.54,15.61,9.27,23.63c1.11,3.27,1.68,6.69,1.43,10.13c-0.19,2.67,0.1,5.27,0.59,7.85
		c0.24,1.23,0.21,2.35-0.09,3.53c-0.23,0.92-0.33,1.88-0.46,2.83c-0.1,0.73-0.28,1.41-0.75,1.99c-0.52,0.64-1.13,0.83-1.97,0.35
		c-0.04-0.26-0.15-0.57-0.13-0.87c0.12-1.49-0.33-2.53-1.74-3.34c-1.07-0.61-1.78-1.7-1.96-3.1c-0.16-1.24-0.87-2.39-0.92-3.69
		c-0.01-0.18-0.29-0.35-0.5-0.59c-2.88,0.69-4.4,2.8-5.26,5.36c-0.86,2.55-1.59,5.2,0.09,7.89c0.97-0.12,1.85-0.67,2.78-0.02
		c0.8,0.55,1.53,1.14,2.22,1.82c0.73,0.71,0.89,1.66,1.09,2.57c0.64,0.18,1.17,0.34,1.7,0.49c1.06,0.29,1.73,0.81,1.66,1.4
		c-0.09,0.84-0.79,1.14-1.43,1.47c-2.24,1.15-4.59,1.24-7,0.76c-1.17-0.23-2.31-0.58-3.62-0.91c0.08,1.93,0.3,3.66,2.55,4.26
		c0.55,0.15,1.03,0.47,1.11,1.12c0.1,0.78-0.49,1.11-1.01,1.49c-0.47,0.34-1,0.43-1.57,0.51c-2.46,0.36-4.76-0.07-6.94-1.26
		c-0.47-0.25-0.83-0.76-1.44-0.74c-0.43,0.24-0.58,0.57-0.22,0.95c0.38,0.4,0.85,0.71,1.11,1.24c0.41,0.85,0.08,1.64-0.84,1.81
		c-1.25,0.23-2.38-0.1-3.41-0.8c-1.4-0.95-2.49-2.25-3.65-3.46c-0.27-0.28-0.51-0.61-0.83-1c-2.02,1.47-3.89,1.01-5.57-0.53
		c-2.43-2.22-4.47-4.78-6.09-7.64c-0.83-1.46-1.15-3.13-1.14-4.84c0.02-2.56,0-5.12,0.01-7.68c0-1.74,0.43-3.44,0.2-5.22
		c-0.13-1.03,0.26-2.17,0.73-3.22c2.83-6.35,5.31-12.83,7.27-19.5c0.36-1.22,0.82-2.42,1.31-3.59c0.54-1.3,0.81-2.67,0.36-3.98
		c-0.81-2.34-0.36-4.66,0.2-6.85c0.47-1.81,0.51-3.62,0.75-5.41c0.54-4.03,0.77-8.09,1.24-12.13c0.51-4.43,1.16-8.84,1.72-13.27
		c0.82-6.49,1.98-12.92,3.12-19.36c0.89-5.02,1.76-10.05,2.63-15.08c0.07-0.39,0.17-0.8,0.12-1.19c-0.45-3.51,0.64-6.8,1.47-10.12
		c0.99-3.96,2.68-7.68,3.95-11.55c2.36-7.22,5.35-14.19,8.85-20.93c2.69-5.18,5.67-10.19,8.75-15.14c0.8-1.29,1.51-2.6,2.08-4.02
		c0.82-2.07,2.11-3.93,2.99-6c0.53-1.25,1.07-2.5,1.37-3.82c0.9-3.99,2.37-7.78,3.96-11.53c0.97-2.28,2.38-4.33,3.25-6.66
		c0.24-0.63,0.89-1.1,1.41-1.72c0.21-0.55-0.62-0.82-0.54-1.41c0.07-0.56,0.5-0.76,0.97-0.91c4.13-1.33,7.89-3.46,11.76-5.36
		c1.8-0.88,3.68-1.53,5.66-1.86c0.62-0.1,1.23-0.3,1.85-0.45c0.14-0.73-0.48-0.97-0.81-1.35c-3.26-3.83-5.34-8.31-7.27-12.89
		c-0.52-1.23-0.49-2.48-0.13-3.76c0.6-2.09,1.62-3.99,2.5-5.95c0.75-1.67,1.52-3.34,2.27-5.02c0.16-0.36,0.39-0.71,0.04-1.2
		c-1.57,1.6-2.58,3.8-5.1,4.85c0.49-1.51,0.81-2.79,1.31-4.01c0.91-2.22,1.66-4.49,2.4-6.77c0.26-0.79,0.29-1.55,0.13-2.36
		c-0.98-4.8-0.64-9.54,0.74-14.2c0.98-3.29,2.09-6.54,4.04-9.43c0.67-1,1.34-1.98,2.12-2.89c0.51-0.6,1-1.22,1.62-1.99
		c-0.86-0.26-1.53-0.09-2.19,0.01c-1.74,0.28-3.48,0.39-5.24,0.21c-3.31-0.33-5.76-2.03-7.72-4.55c0.38-0.76,0.85-0.33,1.28-0.3
		c9.76,0.78,18.54-1.69,26.02-8.15c6.36-5.49,13.67-9.01,21.76-11.1c3.09-0.8,6.2-1.49,9.34-2.06c2.22-0.4,4.47-0.31,6.7-0.23
		c4.46,0.16,8.93,0.37,13.39,0.62c3.21,0.18,6.28,0.99,9.26,2.2c1.59,0.64,2.38,1.74,2.53,3.4c0.08,0.95,0.21,1.9,0.38,2.84
		c0.3,1.64,0.98,2.25,2.61,2.06c3.43-0.39,5.86,1.14,7.67,3.85c2.43,3.65,3.7,7.76,4.6,12c0.08,0.39,0.08,0.81,0.22,1.18
		c1.52,3.95,0.95,8.01,0.59,12.04c-0.09,0.99-0.08,1.88,0.24,2.79c0.85,2.41,1.69,4.83,2.86,7.1c3.59,6.95,5.75,14.35,7.21,21.99
		c0.39,2.04,0.78,4.07,0.87,6.15c0.08,1.93-0.13,3.85-0.53,5.7c-0.88,4.06-1.35,8.17-1.73,12.3c-0.04,0.4-0.04,0.8-0.45,1.07
		c-0.73,0.15-0.91-0.4-1.07-0.94c-0.77-2.66-2.12-5.15-2.06-8.29c-0.73,1.01-1.21,1.82-1.16,2.69c0.09,1.91-0.71,3.37-1.95,4.7
		c-0.26,0.28-0.41,0.66-0.64,1.03c1.57,0.63,2.52,1.86,3.49,3.08c2.61,3.26,3.83,7.15,5.1,11.02c0.42,1.29,0.79,2.6,1.15,3.9
		c0.39,1.41,1.07,2.67,1.93,3.83c5.37,7.19,9.75,14.99,14.11,22.81c0.39,0.7,0.77,1.41,1.21,2.07c1.33,2,2.4,4.1,3.27,6.37
		c1.11,2.9,2.56,5.67,3.87,8.5c1.05,2.24,1.91,4.55,2.92,6.81c1.51,3.38,1.32,6.97,0.74,10.55c-0.28,1.73-0.68,3.44-1.28,5.1
		c-1.05,2.92-2.93,5.1-5.76,6.42c-0.5,0.23-1.04,0.5-1.58,0.53c-1.93,0.09-3.74,0.71-5.61,1.09c-5.86,1.19-11.72,2.39-17.58,3.56
		c-3.6,0.72-7.24,1.06-10.93,0.9c-0.33,0.75,0.25,1.21,0.43,1.78c1.02,3.2,2.66,5.96,5.49,7.89c6.91,7.14,13.24,14.73,18.43,23.23
		c7.08,11.6,12.13,24.07,16.17,37c2.91,9.31,5,18.81,6.58,28.42c0.75,4.56,1.22,9.16,1.71,13.76c0.93,8.68,1.02,17.38,0.87,26.07
		c-0.12,6.93-0.83,13.83-1.84,20.7c-0.98,6.64-2.21,13.22-4.07,19.67c-3.31,11.53-8.44,22.22-14.98,32.25
		c-4.51,6.91-9.7,13.25-15.36,19.27c-7.86,8.36-16.58,15.68-25.94,22.28c-2.68,1.89-5.38,3.73-8.05,5.63
		c-2.88,2.04-6.05,3.57-9.22,5.09c-0.79,0.38-1.58,0.73-2.33,1.08c-0.93,2.51-0.4,4.98-0.19,7.39c0.26,3.01,0.75,6.01,1.35,8.98
		c0.78,3.91,1.6,7.82,3.12,11.53c0.79,1.92,1.63,3.82,2.55,5.67c0.52,1.06,1.54,1.59,2.7,1.7c0.87,0.08,1.74,0.07,2.62-0.15
		c1.53-0.38,3-0.14,4.37,0.7c1.08,0.67,2.13,1.4,3.39,1.75c0.44,0.12,0.98,0.37,1.21,0.73c1.17,1.79,2.93,2.83,4.66,3.94
		c0.45,0.29,0.79,0.8,1.08,1.26c0.81,1.32,0.74,1.8-0.27,2.98c-0.42,0.48-0.82,0.99-1.27,1.44c-0.68,0.68-1.44,1.42-2.42,1.4
		c-1.14-0.02-1.97,0.41-2.79,1.08c-0.89,0.72-1.93,1.14-3.07,1.23c-1.36,0.12-2.65,0.52-3.96,0.89c-4.36,1.24-8.81,1.42-13.29,0.91
		c-2.77-0.32-5.52-0.81-8.28-1.13c-1.02-0.12-2.07,0-3.1,0.08c-2.7,0.2-5.37,0.76-8.09,0.67c-5.47-0.18-10.3-2.07-14.35-5.75
		c-0.81-0.74-1.79-1.22-2.58-2.04c-0.7-0.73-2.06-0.66-3.18-0.69c-1.36-0.04-2.71-0.1-4.07-0.15c-1.43-0.05-2.86-0.01-4.29-0.28
		c-0.91-0.17-1.92-0.04-2.85,0.11c-0.88,0.14-1.72,0.18-2.6-0.01c-0.69-0.15-1.43-0.16-2.14-0.14c-1.61,0.05-3.16-0.34-4.74-0.53
		c-3.26-0.39-5.51-2.21-7.52-4.56c-0.69-0.81-1.13-1.71-1.37-2.75c-0.87-3.71-0.79-7.45-0.35-11.19c0.69-5.78,1.89-11.47,3.07-17.17
		c0.06-0.31,0.06-0.63,0.09-0.93c-0.47-0.78-1.27-1-2-1.27c-6.16-2.22-11.62-5.63-16.72-9.68c-1.31-1.04-2.71-2.09-3.75-3.32
		c-2-2.36-3.7-4.99-5.15-7.74c-0.37-0.69-0.53-1.5-0.73-2.27c-0.66-2.46,0.73-4.14,3.26-3.97c0.97,0.07,1.9,0.29,2.74,0.79
		c0.96,0.57,2,1.06,2.84,1.78c2.13,1.84,4.62,2.84,7.31,3.36c1.28,0.25,2.38,0.93,3.62,1.19c2.57,0.54,5.2,0.75,7.74,1.47
		c0.52,0.15,1.1,0.25,1.74-0.33c-0.33-2.1-0.68-4.28-1.03-6.47c-0.13-0.79-0.45-1.59-0.36-2.35c0.31-2.4-0.85-4.74-0.18-7.14
		c-0.87-3.01,0.6-5.62,1.45-8.31c0.53-1.68,0.82-3.38,1.11-5.11c0.33-2.02,0.02-3.91-0.39-5.84c-1.03-4.83-1.59-9.78-3.41-14.42
		c-0.38-0.96-0.94-1.94-0.99-2.94c-0.21-4.63-2.42-8.68-3.64-13.01c-0.19-0.68-0.44-1.41-0.87-1.95c-0.57-0.72-0.84-1.54-1.1-2.37
		c-1.35-4.18-2.86-8.3-4.73-12.29c-1.1-2.35-1.5-4.86-1.56-7.43c-0.02-1.12,0.01-2.24-0.01-3.36c-0.01-0.48,0.07-1.01-0.12-1.42
		c-1.23-2.67-0.82-5.43-0.6-8.21c0.36-4.45,0.93-8.9,0.71-13.38c-0.05-1.11-0.3-2.21-0.42-3.32c-0.55-4.83-1.15-9.65-1.62-14.49
		c-0.55-5.63-0.72-11.3-1.05-16.95c-0.32-5.44-0.26-10.86-0.2-16.29c0.05-4.46,0.32-8.91,0.69-13.37c0.2-2.38,0.34-4.77,0.58-7.15
		c0.19-1.95-0.23-3.96-0.36-5.95c-0.49-7.51,0.66-14.8,2.94-21.93c3.51-10.97,8.64-21.13,15.51-30.37c0.97-1.3,1.72-2.65,2.33-4.14
		c0.89-2.15,1.98-4.22,3.5-5.98c1.93-2.25,2.73-4.82,2.59-7.72C80.05,178.22,80.43,175.97,81.36,173.66z M136.74,417.59
		c0.89-0.06,1.35-0.63,1.84-1.13c2.93-2.94,5.95-5.8,8.68-8.95c8.27-9.55,15.12-19.98,19.36-31.97c1.81-5.12,3.47-10.28,4.34-15.66
		c0.79-4.96,1.54-9.91,1.93-14.93c0.24-3.11,0.36-6.22,0.32-9.32c-0.06-5.5-0.69-10.97-1.5-16.41c-0.13-0.87-0.27-1.73-0.41-2.6
		c-0.14-0.87-0.3-1.73-0.76-2.82c-2.39,5.88-4.88,11.32-7.99,16.44c-0.4,0.66-0.46,1.33-0.37,2.07c0.19,1.58,0.26,3.18,0.49,4.75
		c0.53,3.59,0.26,7.14-0.26,10.7c-0.87,5.9-2.98,11.42-5.32,16.85c-4.14,9.61-8.88,18.94-13.33,28.4c-1.7,3.61-3.4,7.22-4.8,10.97
		c-0.31,0.83-0.65,1.64-0.7,2.52c-0.1,1.92-0.63,3.78-0.82,5.68C137.26,413.97,136.61,415.72,136.74,417.59z M117.97,297.86
		c-0.14,0-0.27,0.01-0.41,0.01c-0.35,0.97-0.76,1.92-1.04,2.9c-0.5,1.77-0.88,3.56-1.38,5.33c-1.78,6.39-3.76,12.72-6.87,18.61
		c-1.07,2.03-1.47,4.2-1.7,6.43c-0.11,1.11-0.15,2.23-0.16,3.35c-0.03,2.15,0.07,4.23,0.82,6.36c0.83,2.38,1.3,4.96,1.51,7.48
		c0.33,3.9-0.06,7.82-0.61,11.69c-0.61,4.26-1.38,8.5-2.1,12.74c-0.83,4.95-1.51,9.94-2.55,14.85c-1.16,5.48-1.84,11-2.28,16.56
		c-0.12,1.51-0.24,3.02-0.33,4.52c-0.12,2.02-0.46,4.13,0.52,6.16c1.31-1.01,2.57-1.96,3.8-2.94c1.88-1.47,3.68-2.97,5.12-4.96
		c0.94-1.3,1.12-2.55,1.12-3.98c-0.01-3.75-0.31-7.5,0.22-11.24c0.13-0.94,0.06-1.92,0.01-2.88c-0.25-5.17-0.68-10.35-0.74-15.52
		c-0.06-5.59-0.16-11.17,0.21-16.77c0.32-4.7,0.6-9.39,1.21-14.05c0.35-2.68,0.95-5.32,2.07-7.84c1.6-3.61,3.59-6.96,6.21-9.91
		c1.2-1.35,1.48-2.64,0.87-4.35c-0.62-1.72-1-3.53-1.41-5.32c-1.23-5.36-2.64-10.71-2.01-16.31
		C118.11,298.49,118.01,298.17,117.97,297.86z M159.99,145.7c-0.81,1.25-8.53,19-8.84,20.26c1.58,2.12,2.91,4.37,3.53,6.97
		c0.38,1.62,1.3,2.83,2.55,3.86c2.12-1.52,3.76-3.38,5.61-5c2.15-1.89,4.33-3.74,6.55-5.54c1.77-1.44,3.1-3.4,5.55-4.43
		c-2.75-2.64-5.94-4.41-8.28-7.12C164.25,151.92,162.29,148.8,159.99,145.7z M87.97,81.85c-0.33,3.14-0.54,6.26,0.74,9.29
		c0.89,0,1.64-0.08,2.33-0.43C91.46,87.21,89.63,84.58,87.97,81.85z"/>
	<path fill="#1A1A1A" d="M105.26,213.97c0.62-0.16,0.98,0.57,1.78,0.64c-0.28-1.36-1.19-2.12-2.06-2.64
		c-1.65-0.99-1.77-2.77-2.53-4.21c-0.47-0.9-0.18-2,0.03-3.05c0.96-4.89,3.67-8.8,6.89-12.41c1.7-1.91,3.57-3.66,5.4-5.45
		c2.35-2.29,5.27-3.48,8.4-4.52c1.56,2.32,4.14,3.04,6.14,4.58c0.82,0.63,1.9,0.77,2.95,0.85c2.47,0.2,4.94,0.12,7.55,0.05
		c-0.12-1.17-0.92-1.69-1.71-2.13c-1.48-0.83-3.08-1.32-4.8-1.32c-0.88,0-1.77,0.06-2.58-0.71c-0.32-0.94-0.17-1.9,0.55-2.94
		c4.01-0.66,8.09-1.27,12.17,0.25c0.98,0.37,1.91,0.81,2.8,1.34c8.09,4.87,15.76,10.33,22.9,16.52c0.6,0.52,1.25,1.03,1.61,1.75
		c0.23,0.46,0.62,0.72,0.98,1.03c6.86,5.82,12.5,12.75,17.59,20.1c6.49,9.37,11.5,19.56,15.23,30.31c1.44,4.13,3.11,8.18,4.34,12.39
		c1.36,4.67,2.51,9.39,3.59,14.14c1.31,5.76,2.4,11.55,3.25,17.38c0.52,3.55,0.88,7.12,1.2,10.69c0.69,7.64,1.05,15.29,0.81,22.96
		c-0.18,5.49-0.55,10.97-1.16,16.45c-0.77,6.83-2.26,13.52-3.56,20.25c-1.03,5.33-2.78,10.48-4.94,15.49
		c-1.33,3.08-2.52,6.21-4.03,9.21c-2.89,5.72-6.16,11.2-9.92,16.39c-1.17,1.61-2.65,2.99-3.91,4.53c-2.27,2.79-4.41,5.68-6.74,8.42
		c-2.48,2.93-5.29,5.54-8.1,8.16c-1.68,1.57-3.28,3.24-5.04,4.74c-4.21,3.56-8.44,7.08-12.95,10.26c-6.8,4.8-13.86,9.16-21.35,12.81
		c-10.05,4.9-20.56,8.3-31.65,9.79c-4.6,0.62-9.24,0.73-13.87,0.48c-2.05-0.11-4.13-0.25-6.16-0.79c-2.85-0.75-5.75-1.36-8.63-1.98
		c-3.48-0.75-6.57-2.44-9.77-3.87c-1.53-0.68-3.04-1.42-4.55-2.15c-0.91-0.44-1.82-0.81-2.4-1.81c-0.48-0.82-1.53-1.12-2.39-1.53
		c-3.6-1.73-6.55-4.24-9.01-7.36c-1.9-2.42-3.03-5.24-4.23-8.02c-0.45-1.05,0.3-1.92,1.48-1.7c1.58,0.29,3.1,0.87,4.43,1.72
		c3.75,2.4,7.91,3.83,12.14,4.98c5.25,1.43,10.63,2.14,16.1,1.92c3.82-0.15,7.62-0.57,11.39-1.27c7.67-1.43,14.87-4.28,22-7.3
		c4.15-1.76,7.62-4.66,11.43-7.01c4.97-3.07,9.49-6.78,14.08-10.36c2.44-1.9,4.7-4.06,6.78-6.41c2.17-2.45,4.49-4.77,6.6-7.27
		c3.52-4.16,6.51-8.69,9.56-13.19c1.07-1.59,2.22-3.12,3.29-4.71c0.53-0.79,0.99-1.59,1.12-2.6c0.1-0.85,0.51-1.68,0.88-2.47
		c2.97-6.48,5.16-13.24,6.96-20.12c0.74-2.84,1.03-5.8,1.5-8.71c0.99-6.15,1.67-12.34,1.44-18.58c-0.37-9.82-1.4-19.53-3.95-29.08
		c-2.16-8.07-5.23-15.74-8.8-23.25c-0.82-1.72-1.38-3.56-2.15-5.31c-0.24-0.54-0.3-1.31-1.31-1.31c-0.52,0-0.66-0.83-0.95-1.3
		c-3.65-6.02-7.55-11.85-12.01-17.32c-3.49-4.27-7.24-8.31-11.01-12.32c-0.88-0.93-1.55-2.05-2.42-2.93
		c-2.02-2.04-4.16-3.97-6.4-5.76c-3.69-2.94-7.29-5.97-10.6-9.34c-4-4.07-7.4-8.57-9.75-13.81
		C105.17,214.18,105.23,214.09,105.26,213.97z M196.35,382.85c0.74-0.16,1.02-0.63,0.93-1.36c-0.12-0.9-0.29-1.76-1.61-2.22
		c0.28,1.41,0.51,2.53,0.73,3.66c-0.36-0.26-0.55-0.83-1.28-0.58c-0.26,0.83-0.04,1.52,0.6,2.12
		C196.47,383.99,195.98,383.29,196.35,382.85z M180.6,407.87c4.51-2.26,12.38-13.68,12.76-18.44c-1.79,2.04-2.52,4.41-3.77,6.47
		c-1.29,2.12-2.69,4.15-4.19,6.12C183.96,403.92,182.01,405.44,180.6,407.87z M152.8,197.15c0.75,0.13,1.31-0.49,1.95-0.13
		c1.45,1.91,3.25,2.97,4.93,2.91c-0.03-0.15-0.03-0.32-0.11-0.43c-0.45-0.59-1.19-0.75-1.77-1.15c-0.69-0.49-1.49-0.78-1.96-1.63
		c-0.84-1.53-2.18-1.54-3.25-0.11C152.55,196.67,152.69,196.88,152.8,197.15z M151.43,261.05c-0.61-2.08-2.63-2.91-3.82-4.48
		c-0.31,0.28-0.29,0.53-0.18,0.73c0.95,1.71,1.49,3.66,2.88,5.12c0.13,0.14,0.4,0.15,0.67,0.25
		C151.15,262.08,151.29,261.57,151.43,261.05z M153.44,194.68c-0.38-0.72-0.82-0.79-1.12-0.53c-0.82,0.7-2.12,0.94-2.48,2.43
		C151.55,196.63,152.27,195.36,153.44,194.68z M153.18,218.79c0.76-0.85,0.86-0.93,0.65-1.38c-0.32-0.66-0.09-1.77-1.53-1.95
		C152.62,216.67,152.89,217.69,153.18,218.79z M113.69,223.06c0.23,0.73,0.77,1.16,1.44,1.47
		C114.89,223.81,114.35,223.37,113.69,223.06z M157.15,272.47c-0.13-0.67-0.26-1.35-1.18-1.98
		C156.33,271.42,156.46,272.07,157.15,272.47z M130.8,235.83c-0.14-0.95-0.7-0.96-1.52-0.81
		C129.82,235.4,130.04,236.03,130.8,235.83z"/>
	<path fill="#1A1A1A" d="M155.34,10.29c-1.35-1.39-2.14-2.8-3.49-3.7c-0.58,0.92,0.05,1.51,0.49,1.97c1.16,1.21,1.95,2.51,1.75,4.27
		c-0.06,0.5,0.14,0.97,0.59,1.23c1.84,1.08,3.89,1.59,5.91,2.18c-0.99-1.73-2.98-1.64-4.37-2.51c-0.11-0.65,0.13-0.98,0.7-1.07
		c0.47-0.07,0.96-0.1,1.42-0.2c4.02-0.91,6.29,0.42,8.35,3.89c2.07,3.47,2.99,7.38,4.01,11.24c0.04,0.15,0.03,0.32,0.09,0.47
		c1.16,3.22,1.36,6.47,0.55,9.83c-0.39,1.63-0.19,3.34-0.03,5.02c0.07,0.73,0.24,1.41,0.51,2.08c0.37,0.88,0.72,1.77,1.08,2.66
		c0.65,1.61,1.26,3.19,2.32,4.66c1.34,1.86,1.98,4.16,2.79,6.34c1.88,5.11,3.15,10.4,4.16,15.72c0.69,3.6,0.41,7.34-0.49,10.94
		c-0.51,2.02-0.86,4.06-0.89,6.14c-0.01,0.88-0.26,1.68-0.54,2.55c-0.64-0.61-0.7-1.34-0.85-2.03c-0.92-4.25-1.08-8.52-0.36-12.83
		c0.5-3.04-0.1-5.97-1.24-8.99c-0.41,0.67-0.29,1.24-0.16,1.69c0.6,2.12,0.42,4.28,0.43,6.44c0,1.11-0.03,2.16-0.87,3.12
		c-0.48,0.54-0.58,1.46-0.56,2.28c0.06,2.02-0.42,3.96-0.83,5.91c-0.03,0.16-0.12,0.32-0.11,0.46c0.32,2.5-1.27,4.13-2.64,5.89
		c-2.65,3.41-5.68,6.48-8.55,9.7c-2.89,3.23-5.4,6.73-7.41,10.57c-0.93,1.77-1.73,3.6-2.7,5.35c-1.02,1.86-1.2,3.79-0.68,5.8
		c0.71,2.71,0.93,5.5,1.25,8.27c0.05,0.39,0.01,0.79,0.01,1.2c-0.76-0.1-0.65-0.72-0.77-1.08c-0.78-2.29-1.89-4.42-3.31-6.35
		c-0.68-0.92-0.94-1.82-0.79-2.89c0.27-1.97,0.53-3.95,0.81-5.92c0.06-0.4,0.15-0.78-0.1-1.15c-0.59-0.13-0.61,0.36-0.68,0.7
		c-0.22,1.01-0.37,2.04-0.58,3.05c-0.27,1.27-0.19,2.7-1.53,3.51c-0.12,0.07-0.18,0.26-0.24,0.41c-1.26,3.37-3.71,5.93-5.94,8.64
		c-0.36,0.43-0.69,0.88-1.04,1.31c-2.15,2.55-2.46,5.49-1.95,8.66c0.39,2.44,0.39,4.9,0.28,7.38c-1.03-0.16-0.82-1.47-1.77-1.55
		c-0.55,0.75,0.06,1.37,0.3,1.97c0.73,1.87,1.29,3.78,1.46,5.78c0.12,1.36,0.06,2.69-0.38,4.02c-1.08,3.33-2.07,6.69-3.11,10.06
		c-0.69-0.4-0.78-0.91-0.77-1.49c0.01-1.2-0.02-2.4,0.01-3.6c0.03-1.14-0.21-2.22-0.57-3.29c-0.26-0.76-0.64-1.44-1.44-1.78
		c-0.09,0.19-0.23,0.36-0.19,0.43c1.01,2.06,1.34,4.25,1.23,6.52c-0.04,0.8-0.1,1.61,0.02,2.4c0.22,1.47-0.25,2.44-1.34,3.54
		c-1.62,1.63-2.73,3.73-3.02,6.12c-0.26,2.2,0.27,2.87,2.46,3.12c1.72,0.2,3.48,0.25,5.25,1.31c-2.34,0.31-4.42,0-6.47-0.38
		c-1.57-0.3-2.71-1.37-3.47-2.74c-2.35-4.28-4.15-8.82-5.8-13.4c-0.68-1.9-0.35-3.98,0-5.94c0.64-3.61,1.41-7.2,2.11-10.8
		c0.06-0.3,0.01-0.61,0.01-0.94c-0.72,0.05-0.78,0.57-0.89,1c-1.01,4.18-1.96,8.38-2.5,12.66c-0.31,2.41,0.18,4.57,1.11,6.71
		c1.4,3.22,2.5,6.57,4.2,9.66c0.22,0.4,0.54,0.81,0.42,1.34c-2.68-3.08-6.17-8.76-7.94-12.93c-0.37-0.88-0.66-1.81-1.11-2.65
		c-1.28-2.38-1.6-4.99-1.89-7.61c-0.28-2.54-0.78-5.05-1.47-7.51c-0.45-1.62-0.61-1.75-1.88-2.7c0.18,2.03,1.28,3.71,1.32,5.81
		c-0.78-0.59-1.02-1.38-1.34-2.08c-2.06-4.56-5.44-7.85-9.84-10.11c-2.43-1.25-4.31-3-5.56-5.42c-0.22-0.43-0.41-0.88-0.71-1.25
		c-2.13-2.54-1.99-5.48-1.35-8.41c0.87-3.97,1.66-7.97,2.96-11.84c0.13-0.38,0.27-0.76,0.02-1.15c-0.63-0.02-0.69,0.5-0.88,0.9
		c-0.93,1.97-1.31,4.1-1.85,6.18c-0.54,2.07-1.05,4.14-1.68,6.19c-0.34-2.39,0.15-4.73,0.47-7.05c0.85-6.06,2.98-11.75,5.25-17.38
		c0.81-2,1.44-4.05,2-6.12c0.36-1.34,0.28-2.67,0.19-3.98c-0.68-0.18-0.86,0.22-0.85,0.6c0.04,2.63-0.9,5-1.94,7.46
		c-1.94-0.33-3.22-1.66-4.51-2.91c-0.28-0.28-0.31-0.89-0.34-1.35c-0.08-1.2-0.2-2.33-0.84-3.44c-0.41-0.71-0.52-1.7-0.47-2.54
		c0.2-3.37-0.6-6.65-0.85-9.97c-0.25-3.33-0.89-6.63-1.29-9.95c-0.12-1.01-0.32-1.98-0.71-2.92c-0.6,2.47,0.17,4.86,0.33,7.28
		c0.16,2.42,0.88,4.78,0.99,7.64c-1.2-1.18-1.36-2.46-2.13-3.35c-1.1,1.88-1.1,2.17,0,9.55c-0.62-0.11-0.66-0.66-0.86-1.1
		c-1.26-2.74-1.45-5.7-1.81-8.62c-0.42-3.41-0.06-6.84-0.58-10.27c-0.59-3.95,0.68-7.75,1.85-11.5c2.16-6.94,4.68-13.75,7.29-20.53
		c0.28-0.73,0.54-1.47,0.87-2.37c-1.13,0.42-1.47,1.32-1.77,2.11c-3.3,8.65-6.75,17.25-8.9,26.29c-0.56,2.37-0.56,4.79-0.23,7.15
		c0.25,1.84,0.37,3.65,0.33,5.49c-0.07,3.29,0.28,6.56,1.07,9.73c1.17,4.7,3.34,8.97,6.52,12.66c1.05,1.22,2.29,2.23,3.68,3.05
		c0.61,0.36,1.19,0.78,1.89,1.24c-0.45,1.23-0.89,2.39-1.31,3.52c-0.8-0.05-0.64-0.57-0.69-0.88c-0.31-1.84-1.34-3.17-2.79-4.29
		c-2.97-2.31-5.76-4.84-8.04-7.85c-2.39-3.14-4.31-6.53-5.2-10.43c-0.27-1.18-0.37-2.36-0.39-3.56c-0.09-5.11,0.08-10.22,0.58-15.31
		c0.16-1.66,0.25-3.32,0.39-5.12c-1.12,0.87-1.13,2.11-1.2,3.12c-0.35,5.17-1.11,10.3-1.08,15.51c0.03,4.52,1.14,8.67,3.37,12.56
		c0.91,1.59,1.89,3.15,3.06,4.58c0.19,0.23,0.47,0.44,0.18,0.93c-2.65-1.67-4.86-3.82-6.92-6.12c-3.25-3.63-5.13-8.05-7.03-12.45
		c-0.36-0.84-0.32-1.67-0.1-2.57c0.46-1.8,1.3-3.43,2.04-5.11c0.94-2.12,1.93-4.21,2.89-6.32c1.37-3.01,1.84-6.23,2.27-9.5
		c-1.84,2.28-2.95,5.03-4.8,7.3c-0.51-0.52-0.15-0.93-0.01-1.34c1.44-4,2.31-8.13,2.98-12.31c0.55-3.41,1.56-6.68,2.84-9.87
		c0.38-0.95,0.69-1.92,1.1-3.08c-0.71,0.21-0.84,0.64-1.03,1.01c-1.97,3.94-3.6,8-4.29,12.4c-0.13,0.85-0.41,1.67-0.71,2.48
		c-0.35-5.08,0.59-9.92,2.47-14.63c1.87-4.68,4.49-8.79,8.68-11.56c-0.15-0.76-0.58-0.79-0.96-0.76c-1.03,0.07-2.07,0.14-3.09,0.31
		c-2.3,0.37-4.61,0.39-6.92,0.3c-1.8-0.07-3.3-0.86-5.03-2.27c1.88-0.04,3.28-0.01,4.66-0.05c7.15-0.22,13.35-2.8,19.01-7.01
		c2.69-2,5.43-3.94,8.19-5.83c4.4-3.01,9.26-5,14.4-6.34c3.79-0.99,7.63-1.71,11.48-2.38c0.54-0.09,1.23-0.22,1.64,0.03
		c0.92,0.54,1.83,0.39,2.76,0.32c3.67-0.25,7.34-0.15,10.99,0.29c0.87,0.11,1.76,0.07,2.64,0.06c3.26-0.04,6.31,0.85,9.28,2.08
		c1,0.41,1.51,1.17,1.55,2.21C155.38,7.45,155.34,8.65,155.34,10.29z M120.92,53.47c-0.18-0.16-0.37-0.31-0.53-0.48
		c-2.71-2.78-5.95-4.49-9.84-5c-0.95-0.13-1.89-0.23-2.85-0.29c-2.52-0.16-4.66-0.94-5.86-3.44c-0.66-1.36-1.52-2.62-2.32-3.91
		c-0.18-0.29-0.26-0.79-0.79-0.64c-0.18,0.12-0.18,0.25-0.1,0.43c0.95,2.2,2.09,4.3,3.57,6.2c0.75,0.97,1.75,1.55,3.01,1.79
		c1.26,0.23,2.51,0.43,3.78,0.54c3.96,0.36,7.41,1.77,10.15,4.77c1.29,1.42,2.7,2.73,4.07,4.07c0.38,0.37,0.69,0.89,1.35,0.8
		c0.33-0.39,0.07-0.76-0.01-1.13c0.85,0.06,1.41,0.67,2.07,1.1c0.92,0.61,1.85,1.23,2.93,1.57c0.34,0.11,0.6,0.1,0.79-0.26
		c0.06-0.4-0.29-0.56-0.54-0.67c-3.46-1.63-6.07-4.27-8.53-7.12c-1.05-1.22-1.94-2.68-3.58-3.33c-0.4,0.75,0.23,1.04,0.54,1.45
		C119.14,51.09,120.45,51.96,120.92,53.47z M136.75,93.22c0.03,0.99-0.49,1.84-0.75,2.75c-0.2,0.69-0.5,1.34-0.1,2.04
		c0.39-0.06,0.6-0.35,0.68-0.64c0.96-3.44,2.87-6.41,4.69-9.4c2.5-4.13,4.23-8.59,5.84-13.1c0.13-0.36,0.4-0.85-0.12-1.2
		c-0.18,0.13-0.35,0.2-0.41,0.32c-0.35,0.72-0.75,1.42-0.99,2.18c-1.85,5.84-5.18,10.95-8.08,16.27c-0.18,0.33-0.53,0.56-0.81,0.84
		c1.29-3.09,2.55-6.19,3.87-9.27c1.68-3.88,3.22-7.8,4.17-11.95c0.63-2.74,0.69-5.53,1.02-8.29c0.16-1.34,0.71-2.65,0.44-4.02
		c-0.65-3.3-0.52-6.66-0.72-10c-0.35-5.72-1.52-11.21-4.16-16.33c-0.19-0.37-0.22-0.98-0.89-0.95c-0.42,0.62,0.13,1.06,0.33,1.52
		c1.57,3.6,2.82,7.3,3.33,11.2c0.38,2.92,0.5,5.87,0.71,8.8c0.08,1.11-0.06,2.26,0.12,3.35c0.34,2.06,0.4,4.08,0.06,6.15
		c-0.37,2.28-0.49,4.59-0.86,6.87c-0.56,3.48-1.64,6.81-3.06,10.04c-2.25,5.11-4.11,10.38-6.86,15.26
		c-0.25,0.45-0.27,0.91-0.27,1.38c-0.03,4.49-1.4,8.62-3.32,12.62c-2.8,5.82-5.66,11.61-6.21,18.23c-0.31,3.81-0.88,7.6-0.07,11.41
		c0.21,1.01,0.16,2.27,0.99,2.87c0.98,0.72,0.92,1.56,0.93,2.49c0.02,1.19-0.1,2.4,0.33,3.55c0.11,0.3,0.17,0.61,0.6,0.52
		c0.09-0.13,0.28-0.27,0.26-0.37c-0.43-2.21-0.01-4.46-0.36-6.67c-0.35-2.24-0.11-4.42,0.39-6.6c0.59-2.56,1.2-5.12,1.83-7.68
		c0.22-0.9,0.4-1.79,0.42-2.69c-0.49-0.06-0.56,0.19-0.62,0.41c-1.23,4.29-2.75,8.5-3.02,13.01c-0.03,0.45-0.04,0.94-0.72,0.96
		c-0.36-2.08-0.24-4.16-0.22-6.23c0.05-5.31,0.87-10.48,3.04-15.37c0.65-1.46,1.31-2.91,2-4.35c1.31-2.74,2.61-5.48,3.46-8.4
		c0.53-1.83,1.32-3.66,1.18-5.59C134.66,96.88,135.39,94.97,136.75,93.22z M113.6,39.72c0.39-0.32,0.54-0.52,0.75-0.62
		c3.05-1.52,4.8-4.07,5.86-7.23c0.76-2.25,0.74-4.54,0.78-6.86c0.04-2.24-0.63-4.25-1.73-6.14c-1.5-2.57-4.5-3.71-7.41-3
		c-2.63,0.64-4.3,2.31-5.39,4.68c-0.19,0.41-0.32,1.19-0.71,1.06c-0.8-0.25-0.77,0.31-0.92,0.68c-0.36,0.87-0.21,1.75,0.2,2.55
		c0.47,0.9,0.46,1.76,0.23,2.75c-0.46,2.02-0.83,4.07,1.18,5.62c0.3,0.23,0.45,0.66,0.64,1c0.72,1.26,1.62,2.36,2.64,3.39
		c2.69,2.7,5.67,5.14,7.68,8.47c0.03,0.05,0.27-0.02,0.63-0.06C117.29,43.41,115.5,41.63,113.6,39.72z M106.18,141.87
		c-2.12-2.17-3.61-4.68-4.51-7.54c-0.97-3.1-1.4-6.2-0.51-9.42c0.49-1.76,0.75-3.59,1.11-5.39c1.01-5.09,1.99-10.18,4.13-14.96
		c0.4-0.9,0.89-1.86,0.61-2.95c-0.1,0.02-0.22,0.01-0.24,0.05c-1.4,3.12-2.91,6.21-3.67,9.57c-1.04,4.59-1.95,9.21-2.94,13.81
		c-1.23,5.76,0.37,10.9,3.55,15.64c1.28,1.92,2.82,3.67,4.26,5.48c0.29,0.37,0.65,0.72,1.06,0.95c2.44,1.39,4.36,3.37,5.42,5.71
		c0.43,0.94,0.8,1.91,1.23,2.86c0.16,0.36,0.38,0.69,0.86,0.71c0.35-0.57,0.05-1.09-0.14-1.59c-0.97-2.55-2.23-4.87-4.36-6.75
		c-2.8-2.47-4.76-5.53-5.64-9.26c-0.51-2.18-0.93-4.36-1.3-6.56c-0.12-0.74,0.01-1.59-0.85-2.14
		C104.34,134.14,105.19,138,106.18,141.87z M118.04,140.1c-0.04-1.95-0.58-3.53-1.17-5.07c-1.62-4.25-3.33-8.46-5-12.68
		c-2.37-5.98-2.88-12.06-1.04-18.27c0.32-1.09,0.39-2.19,0.39-3.31c-0.01-2.15-0.08-4.3,0.45-6.43c0.8-3.25,1.55-6.51,2.23-9.79
		c0.36-1.73,0.72-3.48,0.56-5.61c-0.33,0.56-0.6,0.82-0.62,1.1c-0.32,4.08-1.57,7.97-2.51,11.92c-0.68,2.88-1.18,5.77-0.94,8.76
		c0.1,1.27-0.04,2.52-0.4,3.78c-1.44,5.1-1.56,10.22,0.13,15.29c0.91,2.72,1.92,5.41,2.93,8.1c1.35,3.58,2.99,7.05,3.98,10.76
		C117.14,139.11,117.26,139.58,118.04,140.1z M158.31,81.46c2.55-7.95,3.04-23.83-0.85-31.78c-0.33,1.02-0.06,1.93,0.21,2.85
		c1.97,6.86,2.07,13.83,1.28,20.87C158.65,76.08,158.52,78.77,158.31,81.46z M138.33,114.29c2.99-1.83,15.76-19.93,17.02-24.19
		C149.55,98.51,144.14,106.53,138.33,114.29z M163.71,18.88c0.96,1.97,2.12,3.76,2.84,5.79c0.99,2.8,1.33,5.7,1.79,8.6
		c0.13,0.82-0.05,1.77,0.83,2.38C170.19,30.34,167.21,21,163.71,18.88z M138.11,11.33c2.02-0.1,4.02-0.17,6.01-0.53
		c2.1-0.39,4.18,0.52,6.65,0.26c-2.12-1.34-4.15-0.9-6.08-0.92C142.44,10.11,140.19,10.27,138.11,11.33z M117.93,130.44
		c0.49-1.87-0.57-7.03-1.92-9.22C116.47,124.66,117.3,127.51,117.93,130.44z"/>
	<path fill="#1A1A1A" d="M62.7,251.47c-0.28-0.18-0.36,0.15-0.56,0.23c-0.55-0.21-0.53-0.8-0.48-1.16c0.29-2.1,0.65-4.19,0.29-6.32
		c-0.05-0.28,0.15-0.61,0.26-0.91c0.38-1.02,1.1-1.99,0.34-3.16c-0.09-0.14,0.05-0.46,0.13-0.68c0.82-2.55,1.01-5.33,2.8-7.52
		c0.46-0.56,0.86-1.2,0.71-1.97c-0.28-1.39,0.49-2.3,1.37-3.14c0.87-0.83,1.67-1.71,2.35-2.7c0.15-0.71-0.43-1.08-0.72-1.58
		c0.08-0.13,0.13-0.29,0.24-0.39c2.27-2.22,4.69-4.27,7.29-6.11c0.06-0.05,0.18-0.08,0.19-0.13c0.64-2.71,3.24-2.89,5.15-3.74
		c2.75-1.22,5.69-2.1,8.69-2.59c3.29-0.54,6.52-0.46,9.53,1.29c1.78,1.03,3.24,2.29,4.1,4.21c1.29,2.85,2.98,5.45,5.02,7.84
		c2.02,2.36,3.68,5,5.77,7.34c2.69,3.01,5.79,5.5,9.11,7.72c3.92,2.61,4.21,2.82,4.69,7.61c0.42,4.22,0.36,8.45-0.6,12.63
		c-0.18,0.78-0.76,1.65,0.29,2.36c0.15,0.1,0,0.76-0.13,1.11c-1.21,3.22-2.7,6.3-4.76,9.09c-1.04,1.4-2.3,2.4-3.93,3
		c-4.74,1.73-9.55,3.2-14.59,3.63c-3.01,0.26-6.07,0.26-9.06-0.4c-4.13-0.91-8.32-1.48-12.4-2.63c-3.2-0.9-6.16-2.24-8.79-4.23
		c-1.35-1.02-2.81-1.81-4.21-2.73c-0.13-0.09-0.26-0.25-0.39-0.26c-2.1-0.14-2.81-1.83-3.69-3.32c-0.04-0.07-0.05-0.16-0.1-0.22
		c-1.43-1.57-2.32-3.38-2.43-5.53c0-0.08,0-0.2-0.04-0.23c-1.98-1.47-1.27-3.55-1.23-5.47c0-0.24-0.03-0.48-0.06-0.71
		C62.81,251.6,62.74,251.54,62.7,251.47z"/>
	<path fill="#1A1A1A" d="M16.79,218.54c2.06-0.29,3.96-0.33,5.78-0.91c0.29-0.09,0.54-0.39,0.87-0.19c1.2,0.72,2.74,0.37,3.88,1.23
		c0.58,0.44,1.04,0.77,1.93,0.58c1.14-0.24,2.38,0.41,3.31,0.95c2.41,1.4,4.33,3.28,5.37,6.08c0.58,1.56,1.1,3.09,1.53,4.7
		c0.26,0.96,0.16,1.73-0.29,2.5c-2.9,5-4.97,10.35-6.68,15.85c-0.83,2.68-1.28,5.43-1.75,8.18c-0.22,1.26,0.01,2.58,0.46,4
		c0.75-0.21,1.11,0.13,1.39,0.83c0.88,2.23,1.84,4.42,2.75,6.64c2.02,4.95,3.82,9.99,5.55,15.05c1.25,3.65,1.99,7.38,1.67,11.27
		c-0.18,2.17,0.18,4.3,0.62,6.42c0.33,1.62,0.13,3.14-0.79,4.7c-1.96-0.02-3.18-1.2-3.91-2.85c-0.62-1.38-0.87-2.9-1.06-4.41
		c-0.1-0.79-0.24-1.58-0.42-2.35c-0.53-2.23-1.15-2.71-3.98-3.05c0.65,1.57,3.03,1.86,2.56,4.16c-1.11,0.69-2.67,1.18-3.79,2.33
		c-1.08,1.11-1.9,2.37-2.35,3.85c-0.46,1.5-0.96,3-0.79,4.86c-1.09-0.66-1.19-1.51-1.25-2.24c-0.09-1.02-0.16-2.07,0.18-3.09
		c0.25-0.75,0.46-1.54,0.55-2.33c0.29-2.39,1.01-4.52,3.14-5.92c0.28-0.18,0.41-0.47,0.22-0.84c-0.38-0.34-0.71-0.05-1.03,0.16
		c-2,1.32-3.96,2.71-6.01,3.95c-2.49,1.51-5.22,2.25-8.16,2.23c-0.74,0-1.48,0.32-2.27,0.5c0.88,1.38,0.91,1.38,0.6,2.47
		c-0.79,2.8-0.94,5.65-0.71,8.53c0.15,1.91,0.63,3.63,2.6,4.5c0.21,0.09,0.35,0.36,0.56,0.44c2.26,0.88,2.81,2.66,2.58,4.85
		c-0.09,0.87-0.1,1.78-0.38,2.59c-0.41,1.19-0.18,2.14,0.97,3.15c-1.73,0.16-2.75-0.6-3.67-1.43c-1.37-1.23-2.63-2.57-3.7-4.08
		c-0.45-0.64-0.86-1.35-1.89-1.23c-0.05-0.92-0.08-1.69,0.55-2.28c1.32-0.16,1.82,1.2,2.82,1.47c0.35-0.24,0.26-0.47,0.11-0.66
		c-0.54-0.7-1.11-1.43-1.99-1.67c-1.25-0.35-2.07-1.09-2.63-2.23c-0.39-0.8-1.02-1.37-1.78-1.89c-1.4-0.95-1.5-1.34-1.03-3.02
		c0.43-1.54,0.91-3.06,1.42-4.57c0.41-1.24,1.19-2.23,2.12-3.14c0.79-0.78,1.83-1.29,2.43-2.25c-0.33-0.52-0.72-0.37-1.04-0.19
		c-2.39,1.35-4.09,3.27-4.86,5.95c-0.11,0.38-0.14,0.81-0.34,1.14c-0.94,1.64-1.28,3.42-1.36,5.42c0.43,0.79,1.21,1.49,2.14,1.96
		c1.12,0.57,1.56,1.55,1.85,2.65c0.14,0.54,0.02,1.18,0.26,1.64c0.42,0.8-0.18,1.55,0.09,2.34c0.24,0.7,1.28,0.81,1.1,1.9
		c-0.82,0.07-1.56-0.08-2.24-0.69c-2.84-2.52-4.96-5.62-7.06-8.74c-0.34-0.5-0.29-1.07-0.28-1.63c0.05-5.04,0.11-10.07,0.16-15.11
		c0.01-0.57,0.12-1.09,0.36-1.62c3.57-7.86,6.11-16.11,9.16-24.17c0.46-1.21,0.65-2.4,0.15-3.72c-0.45-1.2-0.38-2.56-0.16-3.8
		c1.03-5.65,1.37-11.39,1.99-17.08c0.96-8.87,1.95-17.74,3.38-26.55C16.44,219.97,16.63,219.28,16.79,218.54z M21.88,277.3
		c0.22,2.83,0.08,5.65-0.27,8.48c-0.36,2.86-1.95,5.27-3.08,8.33C22.45,290.03,23.98,282.23,21.88,277.3z M34.59,281.15
		c-1.63,2.81-3.21,9.22-2.98,11.75c0.02,0.23,0.22,0.4,0.51,0.31C32.88,290.96,34.7,282.48,34.59,281.15z M24.64,260.09
		c0.77-0.5,0.62-1.25,0.64-1.93c0.02-0.72-0.02-1.44,0.01-2.15c0.03-0.72,0.12-1.43,0.16-2.14c0.04-0.7,0.59-1.34,0.23-2.08
		C24.38,253.49,23.93,256.93,24.64,260.09z M29.67,271.24c0.53,1.62,1.16,3.2,2.12,4.64C31.65,274.08,31.1,272.47,29.67,271.24z
		 M14.45,269.06c1.34-0.47,2.67,0.13,3.98,0C17.1,268.19,15.75,268.05,14.45,269.06z M12.52,314.53c0.17-1.13-0.66-2.02-0.7-3.08
		c-0.01-0.23-0.16-0.26-0.25-0.09C11.66,313.09,11.66,313.09,12.52,314.53z"/>
	<path fill="#1A1A1A" d="M98.7,441c-8.23,2.87-16.66,4.09-25.42,3.97c-0.76-1.83-1.06-3.7-1.27-5.58c-0.31-2.77-0.61-5.54-0.85-8.32
		c-0.2-2.31-0.27-4.62,0.02-6.93c0.07-0.55,0.21-1.12,0.16-1.66c-0.16-1.5,0.26-2.84,0.94-4.14c0.63-1.2,1.24-2.41,1.85-3.59
		c-0.26-0.51-0.81-0.81-0.66-1.46c0.51-2.26-0.02-4.5-0.74-6.55c-1.13-3.19-1.7-6.46-2.18-9.78c-0.37-2.53-1.04-4.98-1.88-7.41
		c-1.42-4.15-2.72-8.35-4.04-12.45c0.07-0.89,1.43-0.9,1.15-1.96c-0.1-0.37,0.4-0.41,0.61-0.62c0.7-0.71,1.68-0.39,2.48-0.72
		c0.72-0.29,1.13-1.13,2.06-1.06c0.55,0.04,1.05-0.23,1.57-0.45c1.46-0.63,2.92-1.24,4.09-2.36c0.3-0.28,0.61-0.62,1.02-0.55
		c1.54,0.3,3.13-0.48,4.56,0.06c0.58,0.22,1.32,0.45,1.93,1.02c1.18,1.11,2.69,1.91,4.16,2.64c1.13,0.56,2.27,1.1,3.42,1.75
		c0,0.42,0,0.87,0,1.31c1.02,0.87,2.29,0.53,3.5,0.8c0.22,0.36,0.57,0.74,0.7,1.18c0.36,1.22,1.29,1.6,2.37,1.61
		c1.26,0.01,2.55,0.22,3.79-0.29c0.35-0.15,0.77-0.25,1.26,0.1c0.33,0.3,0.11,0.75,0.01,1.22c-1.35,6.64-2.39,13.34-3.04,20.09
		c-0.46,4.77-0.85,9.54-0.43,14.34c0.05,0.55,0.06,1.12,0.2,1.65c0.18,0.67,0.09,1.29-0.26,1.84c-1.4,2.17-1.53,4.66-1.88,7.1
		c-0.16,1.17-0.35,2.3-0.78,3.44c-0.46,1.22-0.21,2.68-0.04,4.03c0.24,1.99,0.86,3.89,1.39,5.81C98.61,439.65,98.91,440.15,98.7,441
		z M85.72,409.17c-0.54-1.24-1.43-1.04-2.16-0.91c-2.65,0.46-5,1.56-6.93,3.47c-0.15,0.15-0.34,0.31-0.01,0.89
		C79.35,410.81,82.03,408.69,85.72,409.17z"/>
	<path fill="#1A1A1A" d="M112.79,404.35c-0.25-1.46-0.1-2.79-0.13-4.11c-0.03-1.28-0.03-2.56,0-3.84c0.03-1.36,0.13-2.71,0.14-4.07
		c0.01-1.36-0.08-2.71-0.11-4.07c-0.03-1.36,0.09-2.73-0.08-4.07c-0.16-1.27-0.36-2.53-0.26-3.81c0.1-1.34-0.38-2.69,0.06-4.22
		c2.27,0.05,4.38-1.22,6.74-0.68c0.15,0.03,0.33,0.04,0.48-0.01c1.79-0.54,3.58-1.08,5.36-1.67c0.43-0.14,0.27-0.74,0.48-1
		c0.2-0.25,0.88-0.1,1.07-0.35c1.46-1.87,3.56-3.03,5.16-4.75c2.38-2.56,5.16-3.75,8.74-3.73c1.16,0.01,2.35-0.13,3.48-0.24
		c1.22-0.12,2.36,0.13,3.53,0.11c2.18-0.03,4.02,0.81,5.71,2.03c0.47,0.34,1.16,0.04,1.55,0.89c0.04,0.77-0.5,1.61-0.89,2.44
		c-2.54,5.42-5.15,10.81-7.72,16.22c-2.02,4.26-3.84,8.62-6.09,12.75c-1.97,3.61-2.54,7.5-3.21,11.41c-0.5,2.91-0.99,5.81-1.47,8.73
		c-0.12,0.74-0.36,1.39-0.95,1.87c-2.72,2.21-5.43,4.45-8.52,6.48c-1.02-2.58-1.28-5.34-3.26-7.4c-1.92-2.01-4.23-3.29-6.71-4.41
		c-0.36,0.54,0.08,0.63,0.26,0.79c0.17,0.15,0.43,0.21,0.64,0.33c2.01,1.14,3.98,2.31,5.47,4.19c1.51,1.9,2.01,4.14,2.5,6.4
		c0.13,0.59-0.15,1.05-0.68,1.4c-1.61,1.04-3.15,2.18-4.79,3.18c-5.52,3.39-11.22,6.45-17.31,8.71c-0.37,0.14-0.74,0.28-1.13,0.39
		c-0.14,0.04-0.3-0.02-0.47-0.04c-0.63-0.39-0.55-1.1-0.7-1.7c-1.6-6.13-1.12-12.19,0.81-18.16c0.9-2.8,2.5-5.19,4.86-6.98
		c1.32-1,2.53-2.15,4.03-2.96c0.85-0.46,1.38-1.5,2.06-2.28c2-2.28,4.09-4.49,5.52-7.21c0.9-1.71,1.56-3.47,1.56-5.44
		c-0.81-0.12-0.78,0.49-0.89,0.87c-0.66,2.25-1.75,4.28-3.05,6.21C114.12,403.19,113.69,403.85,112.79,404.35z M125.15,394.7
		c-0.99,0.2-1.16,0.64-1.33,1.08c-0.9,2.39-1.84,4.76-2.67,7.17c-0.31,0.89-0.69,1.79-0.66,2.78c0.01,0.39-0.01,0.82,0.74,0.85
		C122.08,402.6,123.87,398.88,125.15,394.7z"/>
	<path fill="#1A1A1A" d="M159.33,505.36c-0.47-0.83,0.52-1.88-0.32-2.62c-0.86,0.18-0.71,0.87-0.87,1.36
		c-1.01,2.96-1.88,3.64-4.97,3.9c-1.1,0.09-2.25,0.17-3.28,0.53c-2.29,0.81-4.69,0.96-7.05,1.21c-2.78,0.29-5.56-0.29-8.33-0.57
		c-1.82-0.19-3.63-0.53-5.45-0.72c-1.51-0.16-3,0.01-4.52,0.21c-5.76,0.74-11.48,0.79-16.8-2.15c-1.25-0.69-2.63-1.12-3.86-1.9
		c-1.35-0.85-2.24-1.93-2.76-3.46c-0.93-2.75-1.42-5.52-1.47-8.44c-0.12-6.42,0.9-12.71,1.75-19.03c0.25-1.89,0.55-3.78,0.82-5.63
		c1.38-0.63,7.63-1.72,9.6-1.68c0.55,0.98,0.57,2.12,0.84,3.19c0.26,1.06,0.45,2.15,0.8,3.2c0.7-2.31-0.63-4.43-0.61-6.8
		c2.5-0.71,5.04-1.35,7.53-2.15c2.43-0.78,4.82-1.69,7.21-2.58c2.43-0.92,4.85-1.89,7.31-2.85c0.15,0.43,0.28,0.64,0.29,0.85
		c0.28,5.99,1.18,11.89,2.46,17.73c0.98,4.46,2.5,8.74,4.4,12.88c0.65,1.41,1.93,2.31,2.81,3.55c1.2,1.7,2.66,3.18,4.16,4.62
		c0.34,0.33,0.63,0.72,1.33,0.86c0.55-0.69,0.75-1.8,1.87-2.1c0.91-0.25,1.78-0.69,2.66-1.04c0.56-0.22,1.08-0.21,1.58,0.17
		c2.19,1.68,3.71,3.91,5.14,6.21c0.4,0.64,0.24,1.41-0.29,2C160.76,504.71,160.2,505.28,159.33,505.36z M119.78,486.98
		c0.01,3.39,1.33,9.43,2.4,11.04C121.72,494,120.92,490.45,119.78,486.98z"/>
	<path fill="#1A1A1A" d="M99.94,501.63c-1.88,0-3.55,0.09-5.21-0.04c-0.87-0.07-1.86-0.03-2.43-1.09c-0.26-0.48-1.03-0.29-1.58-0.3
		c-2.71-0.01-5.43,0.07-8.14-0.02c-2.87-0.1-5.7-0.61-8.48-1.31c-2.68-0.67-4.97-3.81-5.51-6.59c-1.07-5.56,0.12-10.94,1.04-16.35
		c0.55-3.22,1.23-6.41,1.83-9.62c0.12-0.63,0.2-1.26,0.78-1.9c9.15,2.89,18.61,4.11,28.3,3.31c0.43,1.14,0.18,2.11,0.03,3.01
		c-0.92,5.42-1.55,10.87-2.11,16.33c-0.46,4.53-0.43,9.08,1.24,13.45C99.83,500.81,99.85,501.14,99.94,501.63z"/>
	<path fill="#1A1A1A" d="M191.88,188.57c-6.52,1.49-12.68,2.78-18.95,3.43c-0.48,0.05-0.97-0.03-1.44,0.04
		c-2.14,0.3-3.53-0.43-4.57-2.47c-1.85-3.65-4.7-6.63-7.32-9.74c-0.51-0.6-1.07-1.17-1.48-2.08c3.39-2.71,6.26-6.07,10.08-8.44
		c4.42,2.07,9.24,2.93,13.69,4.89c4.83,2.13,7.76,5.67,8.66,10.88c0.07,0.39,0.03,0.84,0.22,1.16
		C191.19,186.94,191.01,187.84,191.88,188.57z"/>
	<path fill="#1A1A1A" d="M153.88,272.62c-3.81-1.47-7.72-1.41-11.59-1.18c-5.08,0.3-10.14,0.88-15.12,2.04
		c-1.07,0.25-2.18,0.5-3.24,0.15c-0.52-1.14,0.33-1.73,0.83-2.37c1.94-2.48,3.35-5.24,4.27-8.24c0.58-1.88,1.28-3.79,0.59-5.82
		c-0.1-0.29-0.05-0.64,0-0.95c0.67-3.86,0.87-7.75,0.79-11.66c-0.01-0.3-0.06-0.63,0.34-1.01c2.28,2.04,4.18,4.47,6.31,6.67
		c2.16,2.23,4.11,4.65,6.12,7.03c2.01,2.38,3.94,4.81,5.72,7.36C150.68,267.18,152.45,269.73,153.88,272.62z"/>
	<path fill="#1A1A1A" d="M25.78,317.34c-3.45-1.08-4.38-3.64-4.32-6.77c0.03-1.52,0.12-3.03,0.22-4.54c0.1-1.64,0.47-3.28,0.03-5.03
		c2.25-0.39,3.87-1.75,5.65-2.71c0.63,0.46,0.14,0.9,0.05,1.3c-0.28,1.25-0.63,2.48-0.9,3.72c-0.51,2.33-0.48,4.62,0.88,6.69
		c1.03,1.58,1.62,3.48,3.19,4.63c0.84,0.07,0.41-0.79,0.85-0.99c0.71-0.25,1.43-0.27,2.02,0.24c0.78,0.67,1.59,1.33,1.89,2.41
		c0.51,1.82,0.53,1.81,2.25,2c0.23,0.03,0.46,0.09,0.92,0.18c-1.06,1.03-2.27,1.28-3.46,1.33c-1.67,0.06-3.37-0.1-4.93-0.75
		c-0.89-0.37-1.81-0.58-2.63-0.81c-0.38-0.44,0.11-0.81-0.07-1.16c-0.29-0.27-0.6-0.18-0.9-0.06
		C26.22,317.14,25.94,317.27,25.78,317.34z"/>
	<path fill="#1A1A1A" d="M16.36,302.22c1.59-0.38,2.94-0.8,4.48-0.74c0.17,1.17,0.05,2.25-0.02,3.36c-0.14,2.36-0.86,4.66-0.39,7.09
		c0.31,1.6,0.59,3.15,1.66,4.4c0.57,0.66,0.18,1.16-0.04,1.76c0.71,0.91,1.84,0.84,2.8,1.11c1.03,0.29,1.7,0.81,1.9,1.88
		c0.03,0.16,0.09,0.31,0.11,0.47c0.28,1.78,1.11,3.13,2.99,3.65c-2.21,2.01-6.19,1.32-8.89-1.42c0-1.03,0.07-2.06-0.02-3.08
		c-0.14-1.67-0.79-3.07-2.37-3.88c-0.07-0.04-0.13-0.09-0.2-0.12c-2.27-0.92-2.92-2.7-3.25-5.03
		C14.64,308.38,15.25,305.37,16.36,302.22z"/>
	<path fill="#1A1A1A" d="M120.61,287.36c-0.01-4.56,1.64-8.28,2.73-12.04c6.39-0.9,12.61-2.62,19.1-2.53
		c-0.16,0.81-0.73,0.95-1.25,1.13c-3.61,1.21-6.65,3.43-9.77,5.5c-1.93,1.28-3.71,2.76-5.39,4.37
		C124.52,285.23,122.44,285.76,120.61,287.36z"/>
	<path fill="#1A1A1A" d="M119.13,287.31c-1.91-2-3.64-3.72-5.77-4.99c-2.14-1.27-4.61-0.99-6.89-1.65c-0.04-0.33-0.07-0.63-0.1-0.95
		c-1.56-0.72-3.47,0.18-5.08-1.03c8.46-0.45,11.91-1.18,19.86-4.2C121.7,277.3,121.46,278.87,119.13,287.31z"/>
	<path fill="#1A1A1A" d="M153.35,494.75c-1.33,0.68-2.58,1.32-3.84,1.98c-0.83-0.66-1.6-1.3-2.25-2.46
		c1.42-0.22,2.78-0.15,3.67-1.09C151.91,493.47,152.74,493.72,153.35,494.75z"/>
	<path fill="#1A1A1A" d="M133.94,177.63c-0.12-1.46,0.58-2.19,1.09-3.24C135.68,175.9,134.69,176.51,133.94,177.63z"/>
	<path fill="#1A1A1A" d="M106.07,29.33c0.39-0.19,0.66-0.34,0.94-0.45c0.93-0.37,1.34-1.03,1.32-2.04
		c-0.01-0.96,0.03-1.93,0.18-2.87c0.27-1.63,0.95-3,2.57-3.77c0.64-0.3,1.17-0.3,1.82-0.11c2.85,0.82,4.15,2.91,4.46,5.63
		c0.3,2.72-0.07,5.42-1.19,7.96c-0.63,1.43-1.55,2.62-3.05,3.22c-1.39,0.56-2.32,0.27-3.34-0.89
		C108.13,34.11,106.97,31.95,106.07,29.33z"/>
</g>
</svg>
