<?xml version="1.0" encoding="utf-8"?>
<!-- Generator: Adobe Illustrator 24.1.1, SVG Export Plug-In . SVG Version: 6.00 Build 0)  -->
<svg version="1.1" id="Layer_1" xmlns="http://www.w3.org/2000/svg" xmlns:xlink="http://www.w3.org/1999/xlink" x="0px" y="0px"
	 viewBox="0 0 401.42 670.74" style="enable-background:new 0 0 401.42 670.74;" xml:space="preserve">
<style type="text/css">
	.st0{fill:#1A1A1A;}
</style>
<g>
	<path d="M398.45,649.94c-0.64-0.78-1.26-1.53-2.12-2.56c-12.96,7.4-27.34,9.17-41.68,11.32c-4.64,0.7-9.22,0.81-13.85,0.87
		c-13.97,0.17-25.32-5.25-34.29-15.93c-4.54-5.41-10.03-9.85-15.66-14.02c-19.28-14.27-35.82-30.84-46.46-52.74
		c-1.4-2.88-0.55-6.33-2.87-8.79c3.71-1.08,3.72-1.08,2.1-3.75c-2.27-3.76-0.76-7.73-0.28-11.5c0.27-2.11,0.47-4.24,0.67-6.4
		c4.77-3.22,9.95-5.43,15.81-6.18c0.09-3.57-3.49-4.73-4.61-7.71c2.65,0.15,4.94,1.77,7.67,0.19c2.99-1.73,4.22-2.91,2.43-5.52
		c-3.06-4.46-4.57-10.04-9.88-12.96c-5.55-3.05-8.84-9.33-14.59-11.81c-4.99-2.15-6.02-6.04-7.45-10.4
		c-1.84-0.93-5.49,0.38-5.33-3.54c0.09-2.23,1.56-4.4,0.35-6.83c-3.1,0.19-3.09,3.57-5.37,5.13c0-2.7,0-5.12,0-7.59
		c-1.55-0.59-2.54-1.93-4.69-1.2c-0.13,2.77-0.38,5.71-0.39,8.65c-0.04,9.95-2.05,19.62-4.05,29.29c-0.71,3.45-2.66,6.48-4.59,9.31
		c-2.2,3.21-3.96,6.57-4.72,10.3c-0.81,3.98-2.88,5.61-6.84,5.04c-0.47-0.07-0.97,0.13-1.5,0.21c-0.18,0.83-0.35,1.63-0.53,2.43
		c-0.13,0.04-0.31,0.17-0.36,0.12c-5.49-4.67-5.89,2.39-8.34,3.99c-3.58,2.34-6.89,5.08-10.81,6.96
		c-8.81,4.22-16.13,10.39-22.37,17.83c-2.41,2.87-3.42,6.65-3.67,10.13c-1.24,17.03,1.06,33.47,11.06,47.83
		c2.21,3.18,4.65,7.33,10.63,6.11c3.34-0.68,5.02,3.87,6.55,6.67c1.31,2.39,1.98,5.23,2.44,7.96c1.03,6.1-2.71,10.22-6.58,14.08
		c-1.58,1.58-3.98,0.61-5.81,0.99c-6.6,1.36-13.23,2.77-19.89,3.22c-9.26,0.61-18.56,2.37-27.81,1.22
		c-5.68-0.71-11.42-1.15-17.1-2.52c-13.37-3.22-21.08-17.17-20.81-28.03c0.36-14.12-1.18-28.2-2.06-42.28
		c-0.58-9.2-2.6-18.27-3.01-27.54c-0.22-5,1.11-8.79,4.48-12.3c4.47-4.66,4.64-7.51,1.35-13.15c-0.24-0.41-0.37-0.88-0.53-1.27
		c0.96-1.28,2.76-0.08,3.63-1.53c-1.73-12.77-5.04-25.32-7.54-38.02c-2.16-11.02-3.26-22.39-2.06-33.61
		c1.04-9.75,0.27-19.66,2.71-29.26c0.56-2.19-0.46-3.83-2.52-5.37c-9.22,4.02-18.83,5.53-28.83,1.52
		c5.71-5.36,10.58-11.09,12.93-19.81c-7.22,2.2-13.54,3.53-20.2,3.57c-7.54,0.04-11.09-6.45-18.25-9.3c6.05-0.07,6.92-3.71,6.9-7.41
		c-0.02-4.15,0.52-8.13,2.11-12.08c-4.31-0.95-8.55,0.39-12.52-1.3c-0.9-0.38-2.12-0.66-2.59-1.28
		C12.04,383.06,6.48,377,6.11,368.43c-0.14-3.14-1.7-6.05-1.17-9.26c2.95-0.57,3.94,2.92,7.27,3.6c-1.96-8.71-4.13-16.87-5.57-25.14
		c-1.45-8.38-2.92-16.69-6.63-24.58c2.78,1.26,4.73,3.44,8.05,4.95c-1.42-8.3-3.43-15.86-4.11-23.61c2.21-0.58,2.81,1.29,3.94,2.07
		c0.63-0.09,1.01-0.43,1.01-0.96c-0.13-14.49,4.24-28.2,6.78-42.25c2.35-13,8.47-24.05,14.27-36.4c0.78,4.94,1.1,9.18,1.23,13.37
		c0.82,0.28,1.53,0.39,1.86-0.35c3.05-6.82,7.14-13.11,11.3-19.2c3.46-5.07,8.31-10.02,13.97-12.11c3.75-1.39,8.21-2.9,12.55-2.87
		c7.29,0.05,14.59-0.74,21.88,0.68c4.99,0.97,10.2-0.31,15.27,1.1c1.86,0.52,3.46-1.4,4.37-2.89c1.52-2.5,2.86-5.22,2.43-8.9
		c-6.11,1.92-11.58,0.45-17.18-2.82c2.51-2.07,2.47-5.01,3.24-7.6c1.41-4.74,3.56-8.83,7.65-11.82c2.2-1.61,3.52-3.03,0.64-5.86
		c-2.33-2.29-3.99-5.71-4.08-9.23c-0.05-1.94-1.18-2.9-2.62-4.58c4.04,0,7.58,0,11.12,0c0.29-0.29,0.57-0.59,0.86-0.88
		c-3.82-3.9-7.56-7.92-8.34-13.36c-0.78-5.37-1.06-10.81-1.58-16.38c6.33-1.49,12.14-4.25,16.13-10.99
		c-5.98-1.13-11.53,0.46-16.5-2.04c2.7-4.6,4.84-9.51,8.16-13.91c3.18-4.22,7.01-7.44,11.1-10.49c3.44-2.57,3.61-3.36-0.01-5.17
		c-2.92-1.46-4.79-3.85-6.82-6.49c9.29-1.36,14.39-9.57,23.22-13.34c-4.37-4.25-9.43-7.11-12.86-12.63
		c6.95,2.83,12.92,1.12,18.91-0.99c2.94-1.04,2.49-2.38,0.86-4.02c2.7-1.92,5.97-1.28,9.17-1.55c-0.06-3.84-3.56-6.42-2.76-10.16
		c3.18-2.2,6.87-1.87,10.43-1.66c3.98,0.24,7.57-0.61,10.74-2.96c1.91-1.41,4.23-1.57,6.39-2.49c0.8-2.85-0.11-5.87,0.62-9.22
		c7.44,8.33,18.52,5.22,27.42,10.01c0.2-5.49,0.9-10.27,2.58-15.05c3.89,5,8.76,8.38,14.14,10.99c5.47,2.66,10.42,5.9,13.4,11.37
		c0.8,1.48,1.63,1.29,2.87,0.93c0-5.74,0-11.49,0-17.59c1.6,0.2,2.85,0.36,3.21,2.6c0.36,2.23,1.4,4.34,2.04,6.53
		c0.24,0.83,0.34,1.66,1.4,1.73c3.45,0.22,3.52,2.73,3.62,5.26c0.06,1.49-0.07,3.05,0.33,4.45c0.76,2.64,3.34,3.93,5.69,2.76
		c3.18-1.59,6.15-2.81,9.61-0.59c3.82,2.46,5.47,6.41,6.16,10.33c0.83,4.65,0.16,9.53,1.14,14.29c0.92,4.46-0.88,8.7-1.96,13.05
		c4.06,1.61,7.64-2.06,11.43-0.31c0.25,1.5-2.11,2.21-1.03,4.38c4.22,0.17,8.4,2.07,12.92,2.7c-0.54,1.54-2.54,1.23-3.22,2.57
		c-0.07,1.01,11.32,9.95,18.09,14.15c-2.43,2.31-5.2,3.36-8.26,3.16c-1.26,1.64-1.34,3.07,0.02,4.19
		c5.13,4.2,7.65,10.56,12.86,14.93c-1.52,1.4-3.48,0.09-4.87,1.57c0.49,3.12,4.38,3.54,5.48,6.55c-1.57,0.84-3.57,1.82-2.03,4.3
		c1.71,2.75,1.15,6.11,2.42,9c0.35,0.81,0.31,2.13-0.13,2.89c-3.26,5.73-0.73,10.36,2.74,14.99c-1.23,1.01-2.89-0.06-4.09,0.89
		c-1.51,8.06,2,16.08,0.36,24.21c-3.66,0.52-5.61-3.73-9.25-3.52c-0.61,1.68-0.42,2.92,0.63,4.27c3.4,4.4,3.6,9.46,2.38,14.6
		c-1.04,4.38-1.28,9.14-0.9,13.2c0.36,3.76,0.9,9.15,5.72,11.73c3.05,1.63,3.99,4.67,4.93,8.1c2.11,7.68,5.91,14.71,10.98,20.97
		c6.46,7.97,13.58,15.61,17.34,25.28c3.76,9.65,8.04,19.29,7.5,30.08c-0.15,2.97-0.77,5.86-1.67,8.6c-1.02,3.12-0.25,7.32,2.61,9.41
		c-2.81,1.76-4.75,4.3-6.91,6.6c0.75,1.89,2.97,0.21,3.8,1.8c-1.6,5.61-10.08,2.99-11.45,9.93c-3.44-4.14-7.98-1.99-12.1-2.59
		c-2.08,4.16-6.2,1.04-9.06,2.52c-1.21,0.62-2.73,0.72-3.85-0.05c-5.12-3.56-11.66-3.81-17.4-8.33c0,3.72,0.01,6.47,0,9.23
		c-0.01,1.99-0.01,3.92-0.72,5.89c-0.55,1.54-0.35,3.55,1.36,4.42c1.64,0.84,2.69-0.7,3.78-1.71c0.34-0.32,0.84-0.45,1.43-0.75
		c0.11,1.45,0.21,2.75,0.3,3.97c0.93,1.19,2.33,0.31,3.35,1c0.02,1.43-2.14,2.18-1.1,4.25c3.09,1,6.42,2.29,9.94,2.77
		c0.22,2.09-1.15,2.83-2.33,3.73c-4.38,3.33-4.63,5.17-1.52,10.85c1.67,3.05,3.59,3.41,8.49,1.56c0.14-0.05,0.28-0.08,0.53-0.15
		c0.73,1.7-1.7,2.32-1.21,4.27c2.54,1.15,5.62-0.25,8.37,0.76c0.02,0.32,0.18,0.75,0.04,0.95c-3.19,4.44-3.15,4.39,0.47,8.96
		c1.43,1.8,2.56,3.84,3.81,5.75c-0.89,1.64-2.63,0.46-3.83,1.67c0.54,3.17,2.82,5.73,4.7,8.18c2.48,3.23,4.36,6.75,5.73,10.39
		c7.61,20.21,16.69,39.87,22.77,60.65c2.35,8.04,4.44,16.15,6.6,24.24c0.25,0.93-0.17,2.05,0.72,2.79
		c5.82,4.82,6.51,12.21,8.13,18.64c1.91,7.57-0.4,15.27-4.93,21.95c-0.27,0.4-0.85,1.06-1,0.99c-4.35-2.05-4.46,2.45-5.76,4.16
		c-5.55,7.28-12.65,12.57-20.31,17.29c-0.85,0.52-1.83,0.88-2.54,1.54c-2.42,2.25-6.84,2.3-7.26,6.76
		c-0.53,5.55,0.45,10.64,4.44,14.75c4.27,4.41,8.1,9.07,11.54,14.21c3.37,5.04,9.22,7.52,14.85,9.61c3.08,1.14,6.03,2.96,9.85,1.33
		c2.03-0.86,4.33,1.22,5.95,2.96c1.38,1.48,2.7,2.61,4.96,2.91c7.69,1.03,11.12,5.61,10.5,13.5c-0.14,1.76,0.83,3.18,1.34,4.72
		C401.82,642.12,402.24,646.16,398.45,649.94z"/>
	<path class="st0" d="M86.07,356.57c0.31-1.19,0.46-1.8,0.64-2.51c-2.03-0.44-2.06,1.97-3.51,2.27c-0.67-1.57-0.11-3.1,0.26-4.74
		c-2.42,1.86-3.35,4.82-5.67,6.71c-0.85-0.49-1.64-0.94-2.42-1.4c-1.04,1.8,0.21,3.81-1.01,5.38c-2.42-1.06-2.42-1.06-2.55-10.61
		c-2.8,5.48-2.11,10.77,2.05,15.86c0.31-0.09,0.81-0.09,0.89-0.27c3.3-7.63,11.32-7.6,17.43-10.53c3.13-1.5,6.62-2.23,9.09-4.88
		c1.75-1.87,3.16-0.98,4.73,0.47c-0.91,1.96-2.96,2.55-4.43,3.79c-2.61,2.2-5.95,3.8-5.85,8.08c0.02,0.77-0.73,1.78-2.23,2.13
		c-2.02,0.47-4.09,1.02-6.99,1.6c4.39,2.35,8.33,4.11,10.21,8.77c-2.57,1.53-5.2,3.09-7.96,4.73c1.04,2.07,3.37,1.74,4.9,2.78
		c-0.37,6.77-6.48,14.85-12.63,16.71c1.04,11.03,6.65,15.25,12.67,14.24c0.5,1.16,0.1,1.92-1.05,2.29
		c-4.46,1.44-6.91,4.28-6.74,9.19c0.11,3.24-2.71,3.81-4.94,4.5c-1.68,0.52-3.58,0.33-5.35,0.45c-0.45,1.47,1.68,1.74,0.9,3.47
		c-4.01,1.5-8.38,2.89-12.98,3.35c-3.51,0.35-4.45-0.04-11.85-3.97c7.09-5.7,10.15-14.05,15.1-21.16
		c-9.46,7.85-20.31,6.76-30.72,5.91c-1.05-1.4-1.03-2.23-1.04-3.07c-0.01-0.65,0-1.3,0-1.93c-2.13-1.16-4.42-0.22-7.17-1.24
		c3.45-6.56,0.8-14.17,4.22-20.94c-4.3-1.17-8.56,0.4-12.52-1.33c-1.06-0.46-2.41-0.76-2.99-1.57c-4.87-6.7-10.27-13.16-10.43-22.14
		c-0.05-2.59-1.79-5-0.93-7.78c3.14-0.15,4.33,3.17,7.13,4.43c-4.14-15.74-4.95-32.05-10.49-47.53c3.38,0.11,3.38,0.11,7.34,5.14
		c-1.88-9.49-3.53-17.89-5.39-27.27c4.91,2.05,5.96,5.9,7.96,9.14c0.15-7.91-0.4-15.79,0.4-23.57c0.79-7.63,2.28-15.2,4.53-22.55
		c0.37,0.01,0.74,0.02,1.12,0.02c0,3.47,0,6.95,0,10.42c0.51,0.06,1.01,0.11,1.52,0.17c-1.53-16.04,2.61-30.69,10.01-44.61
		c0.39,7.09,1.26,14.1-0.56,21.86c2.51-2.58,1.78-5.14,2.51-7.24c4.99-14.23,12.95-26.34,25.5-35.1c7-4.89,15.12-5.44,23.18-5.42
		c7.27,0.02,14.45,2.13,21.5,1.5c3.03,6.99,9.98,5.21,15.05,7.62c-0.96,2.07-3.93,2.26-4.83,4.54c4.46,6.66,10.85,8.2,17,4.07
		c1.45-0.97,1.45-0.97,4.6-0.86c1.06,1.33,0.44,2.88,0.47,4.32c0.03,1.31,0.29,2.67-0.46,3.9c-3.66,1.45-3.75-1.88-4.92-4.18
		c-0.92,4.85-0.39,9.31-0.75,14.22c-4.23-0.34-4.29,2.49-4.89,5.68c-0.64,3.4-0.26,6.84-0.97,10.26c-0.3,1.42,0.92,4.09,1.46,6.78
		c1.71-2.09,2.42-4.74,5.57-4.36c0.67,0.08,1.62-1.92,2.39-3c2.5-3.52,4.84-7.16,8.27-9.9c3.35,3.66,6.02,3.82,9.08,0.56
		c1.78-1.89,2.74-3.78-0.83-5.68c0.45,3.5-0.26,5.89-4.2,5.78c-0.62-1.93-0.89-3.53,1.26-5.06c4.58-3.27,7.52-7.77,8.96-13.25
		c1.23-4.68,4.3-7.55,8.99-8.99c0.6,2.65-1.97,4.59-1.42,7.57c2.47-3.11,3.05-6.47,3.8-9.78c1.09-4.82,2.04-9.35,7.65-11.77
		c2.58-1.12,4.23-4.7,8.12-5.46c0.03,3.71-3.59,2.79-4.8,4.79c1.33,3.5,8.29,1.2,7.2,7.87c2.92-3.13,5.45-5.23,8.83-6.4
		c1.69,3.74,5.23,0.53,8.07,1.88c-1.77,3.2-4.12,3.19-6.79,1.99c-0.67,1.88,0.16,2.43,1.82,2.68c6.98,1.02,9.45,4.21,8.8,11.02
		c-0.17,1.81-0.03,3.65-0.03,5.41c0.66,1.73,3.2,0.34,3.32,1.43c0.9,2.75-1.32,4.07-0.94,5.71c1.7,1.72,2.98,0.15,4.89-0.09
		c1.65,4.34,4.11,7.93,3.07,13.73c-1.07,5.95-3.39,10.16-7.63,13.83c-7.78,6.71-11.81,15.69-15.79,24.89
		c-3.82,8.82-9.16,17.27-17.03,22.64c-6.35,4.34-13,8.79-20.37,11.61c-2.3,0.88-5.83-1.12-6.15-3.54c-2.01-0.56-3.81,0.83-5.84,0.66
		c-1.86-0.16-3.22-1.64-5.08-1.2c-0.09-1.89,1.92-2.08,2.11-3.77c-3.34-0.5-6.47,0.14-9.67,1.25c1.91,1.8,3.95-0.68,6.12,0.3
		c-0.9,2.3-3.06,0.63-4.12,1.71c2.17,5.49-1.92,8.68-4.84,12.38c-3.19,4.04-7.12,4.11-11.56,2.12c-0.99,4.03,0.9,6.84,2.92,9.88
		c-3.24,0.66-5.53,3.25-8.84,3.28c-1.27,0.01-1.59,1.01-2.11,1.82c-2.08,3.26-2.62,7.56-6.5,9.6c0.72,2.85-1.81,2.66-3.24,3.29
		C93.36,353.79,89.97,355.03,86.07,356.57z M159.53,256.82c-5.35,11.7-5.35,11.69-16.6,17.14c-0.58,0.28-0.97,1.05-1.56,1.21
		c-1.27,0.33-2.5,0.38-3.75-0.52c-1.41-1.02-0.73-3.13-2.31-4.1c-0.98,4.93-0.46,7.15,2.46,7.55c6.42,0.88,12.88,1.53,18.24-3.72
		C162.02,268.47,163.19,263.78,159.53,256.82z M59.6,254c-4.8,1.77-8.18,4.93-10.95,9.2c-3.63,5.61-4.75,12.41-9.31,17.64
		c-3.18,3.66-3.73,8.74-3.5,13.66c0.11,2.32,0.25,4.65,0.2,6.97c-0.04,2.08-0.52,4.18,0.51,6.18c0.16-8.4-0.52-16.87,3.67-24.63
		c0.8,5.16,0.63,10.44,3.52,15.02c1.28-0.46,1.32-1.42,1.03-2.14c-1.14-2.87-0.97-5.92-1.11-8.86c-0.19-4.11-0.73-8.93,2.04-11.99
		c2.73-3.02,4.31-6.44,6.08-9.82C53.93,261.18,55.29,256.66,59.6,254z M112.91,294.98c1.75-6.32,3.11-11.74,1.43-17.47
		c-2.98,6.34-0.5,13.91-5.62,19.7c4.24-1.17,6.93,1.68,10.14,2.61c3.06,0.89,5.62,0.64,8.65-2.18c-7.13,0.99-7.62,0.92-11.84-1.38
		c0.54-1.45,2.68-1.57,3.16-3.74C116.93,293.31,115.45,293.93,112.91,294.98z M136.22,259.21c3.79-4.49,8.72-5.11,13.96-4.02
		c2.31,0.48,2.94-0.48,3.33-2.28C146.04,247.62,137.21,250.59,136.22,259.21z M40.41,318.98c-0.29,0.89-0.32,1.76-0.78,2.25
		c-1.01,1.09-0.94,1.9,0.33,2.8c2.39,1.71,5.11,2.47,7.9,3.14C44.99,324.83,42.69,322.04,40.41,318.98z"/>
	<path class="st0" d="M348.69,291.96c0.19-3.97,0.33-6.91,0.5-10.5c1.71,1.18,3.34,0.68,3.28,3.74c-0.07,3.57,1.87,7.14,2.24,10.89
		c0.5,4.96,0.32,9.79-2.05,14.3c-0.31,0.58-0.64,0.99-0.49,1.76c1.15,6.01,1.12,6.02-4.03,8.71c-0.12,0.06-0.18,0.22-0.27,0.33
		c0.79,0.83,2.71-0.29,2.84,2c0.11,1.95-1.88,0.94-2.12,2.05c0.32,0.84,0.86,1.34,1.83,1.39c0.8,0.04,1.68-0.16,2.34,0.55
		c-2.87,4.99-7.88,5.42-20.48,1.76c-1.38,0.82-0.27,2.14-0.61,3.14c-4.74,2.31-7.05-1.7-10.43-4.31c0.73,3.94,3.94,5.24,5.85,7.54
		c-3.34,2.39-4.85,1.77-13.86-1.33c-5.64-1.94-6.83-7.05-10.13-11c-0.29,2.93,1.3,5.26,1.59,7.86c-1.3,1.23-2.39,0.72-3.33-0.46
		c-0.51-0.64-0.82-1.44-1.38-2.03c-2.94-3.14-4.45-7.24-8.37-9.94c-3.41-2.35-4.3-7.39-5.24-11.52c-2.13-9.33-3.53-18.81-4.39-28.35
		c-0.39-4.35-1.54-8.5-3.89-12.15c-2.69-4.18-5.42-8.7-9.66-11.21c-4.16-2.47-4.62-6.47-5.03-9.95c-0.26-2.15-1.98-3.41-1.79-5.69
		c0.34-4.02,2.49-7.06,4.26-10.38c1.31-2.46,3.07-4.52,5.69-5.47c1.72-0.62,0.24-1.61,0.61-2.27c1.5-2.73,0.09-5.92,2.21-8.91
		c1.84-2.58,4.06-4.09,6.54-5.64c-0.21-1.57-3.41-2.47-1.41-3.9c1.39-0.99,2.26-3.62,4.96-2.53c3.6,1.45,6.45,3.83,9.03,6.78
		c0.52-5.4,7.1-2.57,8.1-6.78c6.25,4.07,10.55,8.7,8.13,16.53c1.03-0.09,0.18,0.44,0.54,0.33c4.4-1.4,6.63,1.66,7.14,4.73
		c2.38,14.22,11.74,24.17,20.31,34.64c4.03,4.92,7.03,10.45,9.69,16.14c1.7,3.64-0.2,7.62,0.27,11.46
		C347.99,286.55,347.17,288.93,348.69,291.96z M339.8,274.11c-5.1,0.97-7.28,4.57-8.5,8.98c-1.01,3.66-0.63,5.21,1.75,7.41
		C332.57,283.75,334.4,278.19,339.8,274.11z"/>
	<path class="st0" d="M104.41,419.47c-3.28-0.09-3.99-2.73-4.18-5.08c-0.63-7.81,0.4-15.64,1.2-23.34c0.44-4.3,4.11-8.61,8-11.3
		c3.44-2.38,7.6-1.32,11.5-0.1c7.48,2.33,14.47,5.62,21.14,9.71c1.67,1.02,2.75,2.38,3.69,3.9c5.19,8.4,4.49,23.29-5.4,29.97
		c-3.76,2.54-8.21,3.91-11.48,7.42c-1.79,1.92-4.8,1.06-7.21,0.82c-6.24-0.61-10.77-4.22-15.49-9.05c2.59-1.06,4.37-0.28,6.05-0.47
		c2.72-0.3,5.43-2.82,4.73-5.24c-1.41-4.91-2.1-10.09-4.89-14.54c-1.12-1.79-2.45-3.22-4.81-2.77c-2.43,0.46-3.1,2.49-3.28,4.46
		c-0.37,4.2-1.52,8.47,0.54,12.61C104.96,417.31,105.17,418.4,104.41,419.47z"/>
	<path class="st0" d="M345.04,433.89c-8.52,2.24-13.78-1.73-18.06-7.48c-1.53-2.05-2.96-3.98-5.37-4.95
		c-2.74-1.1-4.25-3.41-4.82-5.97c-0.93-4.18-2.33-8.27-2.6-12.59c-0.24-4.01,1.5-8.04,3.93-9c2.98-1.18,6.47,0.01,9.62,3.28
		c0.15,1.35-1.63,0.96-1.83,2.21c4.51,4.74,8.27,10.22,11.52,16.02C340.65,421.16,344.29,426.76,345.04,433.89z"/>
	<path class="st0" d="M121.63,178.79c3.39,1.45,6.37,3.4,10.17,2.69c-2.99-1.24-4.89-3.61-6.7-6.02c-2.9-3.87-3.55-8.11-1.75-12.68
		c1.45-3.7,4.73-4.89,8.01-2.66c2.01,1.37,4.73,1.86,4.88,5.46c0.07,1.71,3.13,2.55,4.5,4.33c2.75,3.58,4.69,7.74,6.37,11.66
		c1.58,3.69,1.99,8.73-1.05,12.78c-2.93,3.9-4.89,4.21-8.57,1.18c-1.27-1.05-2.44-2.24-3.76-3.23c-0.91-0.68-2.06-1.68-3.01-1.59
		c-6.72,0.67-7.6-4.48-9.23-8.94c-0.17-0.46-0.2-0.98-0.22-1.47C121.27,179.99,121.42,179.67,121.63,178.79z"/>
	<path class="st0" d="M105.01,494.77c-0.71-6.29,4.1-9.02,10.62-7.97c4.97,0.8,9.76,5.9,10.66,10.9c0.74,4.11-0.97,7.26-4.15,9.36
		c-3.03,2.01-6.38,2.16-9.81,0.12C107.53,504.32,104.7,500.53,105.01,494.77z"/>
	<path class="st0" d="M273.27,361.39c1.15-1.87,1.63-3.22,2.57-4.05c1.73-1.52,4.89-0.4,5.72,1.83c1.52,4.09-3.28,13.14-7.56,14.26
		c-0.82,0.21-1.97,0.35-2.25-0.48c-1.36-3.94-5.3-5.36-7.77-8.19c-1.26-1.44-2.52-2.92-1.16-4.83c1.31-1.84,3.19-1.57,4.87-0.57
		C269.44,360.4,271.71,359.42,273.27,361.39z"/>
	<path class="st0" d="M137.95,461.84c-0.03,3.13,0.31,5.19-1.99,6.34c-2.41,1.2-4.82,1.16-7.1-0.07c-3.55-1.91-5.67-9.27-3.91-13.04
		c1.67-3.57,4.85-4.54,8.09-2.3C136.59,455.22,138.39,458.6,137.95,461.84z"/>
	<path class="st0" d="M347.54,469.58c-4.09,0-7.57-3.64-7.56-7.92c0.01-4.7,2.51-8.02,6.02-8.02c4.96,0,8.65,4.09,8.5,9.41
		C354.38,467.33,351.99,469.58,347.54,469.58z"/>
	<path class="st0" d="M156.43,116.68c0.32,4.61-1.79,7.53-4.47,10.03c-2.63,2.45-6.17,1.33-6.72-2.13
		c-0.63-3.98-0.06-7.91,1.44-11.67c0.72-1.79,2.13-2.49,3.98-2.07c2.43,0.55,4.92,1.16,5.74,3.99
		C156.61,115.59,156.43,116.47,156.43,116.68z"/>
	<path class="st0" d="M176.22,138.03c6.79,2.47,9.72,5.88,9.67,10.88c-0.02,2.68-0.96,4.53-3.61,5.16
		c-2.81,0.66-5.28,0.02-6.91-2.55C173.31,148.28,173.75,141.69,176.22,138.03z"/>
	<path class="st0" d="M293.06,140.12c1.77,3.5,3.97,6.81,1.58,11.05c-1.79,3.16-4.21,4.36-7.75,3.02c-3.07-1.16-4.26-3.89-3.16-7.27
		C285.3,142.08,288.27,139.92,293.06,140.12z"/>
	<path class="st0" d="M138.04,359.58c-4.02,0.01-5.93-1.79-5.92-5.58c0.01-3.24,2.02-5.21,5.27-5.15c3.21,0.06,7.49,2.95,7.52,5.06
		C144.95,356.8,141.6,359.57,138.04,359.58z"/>
	<path class="st0" d="M79.3,460.15c-0.44-4.32,0.02-8.23,0.25-12.14c5.21-0.08,7.52,2.13,7.28,6.66
		C86.58,459.32,84.84,460.68,79.3,460.15z"/>
	<path class="st0" d="M237.46,38.41c2.44-1.37,4.02-0.39,5.34,1.34c1.45,1.89,2.59,3.96,1.9,6.43c-0.64,2.3-2.29,2.64-4.28,1.64
		C237.49,46.33,236.75,44.01,237.46,38.41z"/>
	<path class="st0" d="M137.64,227.46c0.18,2.85-0.38,4.57-1.67,5.95c-1.84,1.97-4.41,1.44-5.49-1.04c-1.02-2.34,2.9-7.77,5.44-7.45
		C138.1,225.19,137.59,226.98,137.64,227.46z"/>
	<path class="st0" d="M186.95,64.9c1.13,2.28,0.77,3.88-0.63,5.38c-1.56,1.68-3.28,2.87-5.68,2.09c-1.64-0.53-1.8-2.03-1.36-3.28
		c0.76-2.13,1.45-4.58,4.52-4.43C184.8,64.7,185.78,64.81,186.95,64.9z"/>
	<path class="st0" d="M159.26,169.26c0.04-2.84,1.86-5.61,3.72-5.57c1.84,0.04,2.55,1.18,2.61,2.87c0.09,2.55-2.3,5.96-4.14,5.86
		C159.4,172.31,159.29,170.8,159.26,169.26z"/>
	<path class="st0" d="M147.9,214.41c-0.33,1.99-0.95,3.59-2.96,3.6c-2.2,0.02-3.89-1.08-3.86-3.5c0.02-2.23,0.69-4.54,3.4-4.58
		C147.48,209.89,146.62,213.1,147.9,214.41z"/>
	<path class="st0" d="M298.86,114.46c-0.23,2.59-0.08,5.04-3.18,5.04c-1.94,0-2.6-1.65-2.24-3.1c0.5-2.04,0.02-5.21,2.96-5.48
		C298.6,110.73,298.91,113.02,298.86,114.46z"/>
	<path class="st0" d="M225.09,58.87c-4.47,0.53-6.02-0.28-6.05-3.28c-0.02-1.71,0.11-3.47,2.49-3.45
		C224.23,52.16,225.47,54.55,225.09,58.87z"/>
</g>
</svg>
