<?xml version="1.0" encoding="utf-8"?>
<!-- Generator: Adobe Illustrator 24.1.1, SVG Export Plug-In . SVG Version: 6.00 Build 0)  -->
<svg version="1.1" id="Layer_1" xmlns="http://www.w3.org/2000/svg" xmlns:xlink="http://www.w3.org/1999/xlink" x="0px" y="0px"
	 viewBox="0 0 628.81 525.81" style="enable-background:new 0 0 628.81 525.81;" xml:space="preserve">
<style type="text/css">
	.st0{fill:#1A1A1A;}
</style>
<path d="M322.81,284.86c-3.92,0.56-7.16,1.22-10.42,1.45c-5.04,0.36-8.02-0.99-5.66-7.2c0.71-1.89,2.17-3.23,3.44-5.41
	c-4.7-0.17-8.79,0-12.88,0.44c-3.67,0.4-5.99-1.96-5.47-5.45c0.42-2.79,0.69-5.62,1.32-8.36c1.05-4.63,3.77-6.32,8.55-5.78
	c2.81,0.31,5.67,0.27,8.46,0.68c4.08,0.6,5.61,2.31,6.32,6.4c0.14,0.82,0.22,1.67,0.49,2.44c1.27,3.57,1.91,6.98-3.24,9.71
	c5.14,0.32,8.48,1.88,10.92,5.75c0.91-1.8,2.62-3.29,0.98-4.65c-4.68-3.87-1.62-7.72,0.11-11.1c1.62-3.17,4.16-6.25,8.94-4.99
	c2.15-3.54,4.8-6.73,5.52-10.89c-0.83-1.64-2.98-0.34-3.86-1.98c3.01-0.86,7.11,0.78,8.54-3.97c-2.34-1.05-5.17-0.21-8.24-1.97
	c2.98-0.87,5.34-0.91,7.65-0.64c2.64,0.3,4.57-0.63,6.02-2.69c4.48-6.42,9.86-12.05,15.89-17.71c-3.23-0.59-5.74-1.72-7.33-4.28
	c2.49-9.8,10.75-12.46,19.2-5.61c14.96-12.27,32.26-21.03,50.05-29.67c2.9,1.92,2.9,1.92,3.74,6.79c2.37,0.52,4.39,1.81,5.61,4.11
	c0.23,2.38-2.32,3.11-2.91,4.97c5.32,6.66,5.32,6.66,2.04,10.88c4.47,7.3,3.82,15.85,5.28,24.04c2.23,1.21,4.97,0.75,6.91,2.74
	c3.66-4.28,6.95-8.43,10.95-12c8.53-7.62,19.35-9.16,29.74-11.9c1.36-0.36,2.89,0.13,3.64,1.2c2.15,3.09,5.13,2.53,8.11,2.23
	c2.16-0.21,4.31-0.57,6.47-0.64c5.62-0.16,13.26,5.15,13.02,10.28c-0.26,5.49,1.4,10.77,0.72,16.2c-0.12,0.97-0.02,1.97-0.02,3.07
	c2.56,1.59,6.1,0.84,8,3.7c1.99-0.38,3.51-2.3,5.67-1.08c2.53,1.43,3.26-0.36,3.61-2.35c1.66-9.58,2.43-19.35-0.55-28.62
	c-2.69-8.38-7.51-15.94-13.43-22.6c-12.14-13.66-25.84-25.46-41.66-34.73c-0.14-0.08-0.32-0.13-0.44-0.24
	c-6.81-6.29-14.55-7.94-23.34-4.88c-1.35,0.47-2.93,0.68-4.73-0.3c3.47-1.92,7.64-0.99,10.63-3.84c-5.99-1.76-11.95,0.94-18.74,0.62
	c3.34-2.23,6.7-1.98,9.78-3.53c-7.34-5.11-15.37-1.25-22.89-2.53c0.72-1.76,2.09-1.39,3.08-1.79c0.87-0.35,2.04,0.02,2.7-1.46
	c-4.23-1.86-8.84-1.25-13.17-1.97c-13.82-2.3-27.75-3.3-41.78-2.09c-4.43,0.38-8.9,0.23-12.49,3.81c-1.3,1.29-3.6,1.6-5.46,2.31
	c-2.59,0.97-3.35-1.56-4.87-2.62c-0.76-0.53-1.48-0.67-2.59-0.01c0.09,3.81,0.78,7.64,2.51,11.33c-1.43,2.47-3.3,3.95-6.21,4.45
	c-4.09,0.71-8.09,1.87-12.14,2.8c-4.87,1.11-9.84,1.94-13.79,5.47c-8.08-4.69-2.13-12.28-4.01-18.43
	c-13.75,2.16-27.31,1.37-40.7-1.49c-10.88-2.33-21.63-5.29-32.44-7.96c-1.45-0.36-2.91-0.66-4.38-0.95
	c-7.48-1.44-7.46-1.42-10.65,5.81c-1.46,3.31-2.51,6.94-6.53,8.66c-2.45-1.42-3.68-3.27-4.25-6.48c-1.67-9.3,1.14-17.78,3.65-26.39
	c2.97-10.2,6.78-20.18,12.65-28.97c5.06-7.57,12.06-13.7,19.39-19.2c4.39-3.29,9-6.3,14.22-8.24c0.84-0.31,2.03-0.51,2.03-2.3
	c-5.23-1.85-10.94-2.51-16.3-4.44c-1.74-0.63-3.71-1.12-5.71-1.35c-4.72-0.52-7.82-3.75-10.66-7.62c4.72-1.92,8.87-4.8,14.37-4.26
	c6.26,0.61,12.48-1.08,18.79-1.16c3.19-0.04,6.33-2.44,9.68-3.37c6.72-1.87,13.2-4.48,19.71-6.96c1.93-0.73,3.77-1.37,3.99-3.81
	c-1.31-1.03-3,0.02-4.44-1c4.65-4.3,9.24-8.18,15.73-9.86c13.01-3.37,25.75-7.73,38.78-11.08c3.37-0.86,5.42-0.26,7.03,2.65
	c-1.77,4.43-6.92,4.16-10.04,7.26c1.01,2.57,2.57,3.33,5.61,2.94c10.39-1.35,20.88-3.65,31.31-2.01
	c28.73,4.52,57.2,10.22,83.52,23.45c1.47,0.74,3.02,1.3,5.1,2.19c-0.86-4.92,1.51-6.94,5.49-8.59c4.6-1.92,9.18-3.8,14.09-5.34
	c6.05,2.86,5.4,8.25,5.15,13.64c-0.26,5.62-5.14,5.18-8.47,6.71c-0.11,1.91,0.95,2.84,2.35,3.58c1.32,0.7,2.72,1.33,3.88,2.24
	c7.07,5.57,14.63,7.98,23.43,4.32c1.26-0.52,2.9-0.88,4.66,0.6c-1.58,1.7-3.66,1.88-5.62,2.43c-2.02,0.57-4.27,0.4-6.78,2.12
	c5.99,3.88,10.3,9.91,18.59,8.32c-1.01,1.54-2.31,2.55-0.59,4.27c0.92,0.92,1.82,1.85,2.83,2.68c16.4,13.48,31.68,28.08,43.75,45.67
	c14.1,20.54,23.87,42.94,27.61,67.73c0.42,2.79,0.35,5.65,0.56,8.48c0.4,5.43,0.32,10.93,2.85,16.02c1.47,2.96,1.07,6.17,0.5,9.33
	c-0.32,1.75-1.13,3.46-0.5,5.31c3.37-0.55,5.92-6.59,10.48-1.01c-7.82,12.83-14.22,26.34-14.42,42.04
	c6.87-2.81,7.05-2.78,11.26,2.04c-3.11,5.7-8.14,10.2-11.66,15.76c-3.46,5.47-7.08,10.85-8.74,17.13c0.16,0.42,0.19,0.84,0.42,1.01
	c9.48,7.02,11.21,16.44,9.07,27.42c-2.82,14.45-8.75,27.6-16.74,39.72c-9.97,15.14-19.03,30.85-29.46,45.69
	c-3.16,4.5-6.25,9.07-10.18,12.93c-2.31,2.27-2.99,5.62-5.31,7.72c-4.54,4.12-8.61,8.56-12.23,13.55
	c-3.54,4.87-5.3,10.78-9.24,14.73c-0.59,2.15,1.35,2.64,1.44,4.67c-11.43,13.31-26.59,22.69-41.52,32.83
	c0.41,2.08,0.84,4.3,1.27,6.5c-5.08,5.79-8.73,5.93-14.56,0.51c-5.12,1.69-10.29,3.41-15.46,5.12c-0.31,0.1-0.72,0.18-0.9,0.41
	c-4.55,5.97-11.55,5.16-17.76,6.24c-4.77,0.84-9.47,1.73-14.02,3.37c-5.24,1.89-6.05,1.52-8.75-4.35c-5.72,0-11.7-0.02-17.68,0
	c-8.34,0.03-16.64-0.39-24.88-1.74c-1.45-0.24-3.2-0.74-4.33,0.41c-3.29,3.35-7,2.43-10.73,1.36c-2.13-0.61-4-1.26-5.91,0.78
	c-1.6,1.69-3.34,0.52-4.82-0.67c-1.97-1.59-3.29-3.67-4.23-6.06c-2.22,0.14-2.82,2.62-4.56,2.76c-4.55-2.55-8.58-5.44-14.41-4
	c-3.4,0.84-6.87-1.11-8.95-4.32c-0.97-1.5-2.05-2.08-3.88-2.49c-5.38-1.21-11.11-2.19-13.71-8.19c-0.51-1.18-1.66-0.87-2.58-1.04
	c-4.68-0.84-9.01-2.36-12.19-6.14c-0.94-1.11-2.18-1.33-3.48-1.69c-8.03-2.16-15.91-4.78-23.25-8.78c-2.48-1.35-5.16-1.22-7.77-1.49
	c-5.89-0.59-10.42,3.84-10.17,9.72c0.26,5.86-0.4,6.45-5.97,7.13c-5.91,0.72-12-0.19-17.73,2.29c-2.39,1.03-3.36-1.45-4.76-2.94
	c0.27-3.32,2.4-6.21,1.63-10.02c-0.39-1.91,2.74-4.12,5.65-4.75c3.43-0.74,6.95-0.6,10.75-1.3c-0.51-3.99,2.54-6.88,3.13-10.63
	c0.31-1.98,0.36-3.43-1.42-4.78c-12.52-9.52-22.89-21.34-34.17-32.18c-6.56-6.31-13.64-11.55-22.36-14.53
	c-5.71-1.95-10.61,0.04-13.99,3.9c-15.28,17.44-34.49,28.39-56.18,35.57c-3.94,1.31-7.91,2.5-12,3.31
	c-1.38,0.27-3.05,0.31-3.93,1.85c-2.09,3.68-5.82,4.18-9.44,4.56c-3.66,0.38-7.21,1.13-10.74,2.14c-5.18,1.48-7.06,0.34-8.54-5
	c-0.13-0.47-0.28-0.94-0.49-1.64c-4.07,0.61-8.18,1.02-12.2,1.88c-5.6,1.2-9.85-1.45-14.14-4.3c-2.08-1.38-1.11-3.62-1.68-5.58
	c-2.66,0.13-4.51,2.19-6.95,2.5c-4.4-3.18-6.52-9.3-4.85-14.33c0.66-1.97,2.05-3.84,4.15-3.78c8.78,0.24,10.35-6.69,12.06-12.6
	c3.26-11.32,6.31-22.81,7.67-34.5c0.9-7.75,4.26-15.06,4-22.82c-0.13-3.89,2.44-6.55,2.7-10c-0.39-1.45-2.55-1.02-2.79-3.31
	c-0.18-1.43,2.53-0.81,2.87-2.48c-0.97-1.9-4.11,0.08-4.72-2.57c0.68-1.63,2.43-1.75,3.73-1.98c4.3-0.76,6.02-3.76,8.05-7.23
	c3.99-6.81,4.07-15.04,8.65-21.65c11.91-2.12,19.94-12.48,32.15-15.17c-2.86-5.74-7.56-8.72-11.43-12.35
	c-1.77-1.66-3.69-3.03-5.06-5.16c-1.16-1.81-3.18-2.91-5.2-3.7c-2.94-1.15-4.85-3.21-6.37-5.91c-2.21-3.94-4.65-7.77-10.15-7.13
	c-4.41-4.22-10.77-2.42-15.59-5.05c-2.33-1.26-4.93-0.52-7.27-2.56c-5.47-4.78-7.04-10.64-6.42-17.33c0.29-3.14,0.15-6.16-0.33-9.22
	c-6.85-1.87-11.86-14.14-17.13-25.98c-1.41,0.32-2.7-0.04-3.8-1.24c-0.01-0.02-0.13-0.17-0.12-0.3c0.34-5.16,0.35-5.16-1.08-7.92
	c-1.36-2.65-2.9-5.34-2.6-8.38c0.54-5.4-0.68-10.47-2.35-15.48c-1.05-3.16-0.26-7.1-3.74-9.28c0.22-4.94-1.69-10.01,0.93-14.82
	c1.51-2.77,1.49-5.56,0.18-8.51c-1.79-4.04-2.15-8.53-4.05-12.62c-1.77-3.81,3.37-13.92,7.35-15.69c1.64-0.73,3.01-0.16,4.25,0.57
	c7.2,4.22,15.23,6.16,23.03,8.82c10.55,3.59,20.64,1.54,30.88-1.14c8.97-2.35,18-4.49,27.2-5.9c5.16-0.79,9.69-3.69,14.46-5.73
	c1.69-0.73,2.17-2.81,2.86-4.48c3.04-7.37,5.92-14.81,9.16-22.09c2.66-5.97,7.74-9.5,13.62-11.9c1.74-0.71,5.97,1.86,7.11,4.09
	c1.37,2.67-1.03,4.25-2.04,6.14c-0.37,0.7-1.61,1.02-1.82,2.19c0.89,2.18,2.64,2.17,4.5,1.58c0.93-0.29,1.73-0.95,2.64-1.32
	c6.09-2.49,10.1-0.07,10.73,6.63c0.24,2.47,0.04,4.98,0.04,7.23c-1.67,1.51-4.04,1.48-5.03,3.85c2.32,3.2,5.26,6.16,8.02,9.07
	c3.37,3.56,5.34,7.34,6.02,12c0.51,3.47,2.12,5.86,5.61,7.16c3.25,1.21,5.87,3.43,7.08,6.92c0.74,2.14,2.36,3.5,4.24,4.77
	c6.24-3.69,11.01-9.27,17.05-13.06c5.26,4.34,5.49,5.26,2.72,10.74c-1.25,2.47-2.5,4.94-3.9,7.69c3.38,1.93,6.52,3.67,10.48,3.64
	c7.77-0.06,12.67,4.69,16.4,10.72c1.9,3.07,3.68,6.54,4.24,10.04c1.16,7.29,4.31,15.1-3.22,21.26c-2.13,1.74-3.25,4.53-4.66,6.8
	c-3.45,5.58-10.16,5-14.49,8.77c-1.6,1.39-3.22,2.64-5.54,5.18c17.89-0.44,25.65,11.39,32.6,24.37c3.21-1.54,6.29-1.45,9.87-0.91
	c1.77,5.42,3.79,10.98,5.4,16.65c1.66,5.85,5.49,8.6,11.32,9.14c1.81,0.17,3.65,0.45,5.38,0.99c2.29,0.72,3.97,2.13,4.41,4.76
	c1.06,6.4-0.42,10.34-5.86,14.42c17.78,8.8,33.77,20.46,52.34,28.49C317.2,303.96,319.42,294.51,322.81,284.86z"/>
<path class="st0" d="M239.08,474.11c2.93-8.74,3.78-17.49,4.54-26.01c16.96,0.42,33.61,3.07,50.56,0.31
	c0.11,4.49-1.95,8.04-1.55,11.65c0.4,3.65,1.84,7.19,2.91,11.1c-4.15,0.75-8.16,1.27-11.88,1.25c-9.79-0.06-19.47,1.6-29.26,1.3
	C249.52,473.56,244.67,475.52,239.08,474.11z"/>
<path class="st0" d="M531.16,267.29c-4.02-7.22,1.18-13.01,1.15-19.55c14.43,1.09,26.35-6,38.98-10.58c0.46-0.17,0.92-0.34,1.4-0.41
	c0.31-0.05,0.65,0.07,1.24,0.15c1.04,6.53,0.08,12.9-2.09,19.78C558.04,258.06,544.11,260.26,531.16,267.29z"/>
<path class="st0" d="M328.29,159.07c-4-6.46-0.28-12.05,0.23-17.73c0.07-0.82,0.89-1.42,1.75-1.59c8.76-1.75,17.52-3.47,27.22-5.38
	c-1.46,5.63-0.33,10.59,1.32,15.93C348.12,152.45,338,154.69,328.29,159.07z"/>
<path class="st0" d="M86.24,446.08c-0.63,5.69,2.68,11.01,1.96,17.14c-6.66,2.14-13.56,2.46-20.65,3.48
	c-0.5-4.43-0.12-8.36-1.06-12.27c-0.92-3.79,0.24-4.85,4.13-4.75c4.07,0.1,7.75-0.84,11.29-2.82
	C82.95,446.28,84.07,445.18,86.24,446.08z"/>
<path class="st0" d="M293.33,272.32c-0.05-5.51,2.06-10.19,3.2-15.05c0.4-1.72,2.25-1.51,3.76-1.65c4.48-0.42,8.71,1.75,13.44,0.97
	c1.36,4.79,2.21,9.5,2.7,15.02C308.69,271.02,301.39,273.56,293.33,272.32z"/>
<path class="st0" d="M323.24,271.89c0.28-4.8,4.17-7.47,6.59-10.97c0.19-0.28,1.01-0.37,1.41-0.22c2.85,1.06,5.8,0.93,8.75,0.97
	c2.97,0.04,5.96-0.32,8.99,0.27c0.91,2.64-1.13,4.38-2.01,6.32c-1.11,2.45-1.04,4.1,1.61,5.05c2.21,0.79,2.09,2.42,1.35,3.96
	c-0.77,1.62-2.2,1.05-3.78,0.96c-2.94-0.16-3.67-3.15-6.41-3.78C334.46,273.23,328.91,274.32,323.24,271.89z"/>
<path class="st0" d="M453.41,503.08c-0.56,4.47,0.58,7.61,0.89,11.17c-8.48,2.01-16.83,3.98-25.46,6.61
	c-1.13-4.78,1.52-8.67,1.67-12.93C438.14,506.89,445.41,505.24,453.41,503.08z"/>
<path class="st0" d="M132.59,91.88c6.03-2.19,11.95-4.34,18.33-6.65c0.17,4.58,1.99,8.4,1.27,12.78c-3.82,2.88-8.76,3.79-12.96,6.21
	c-1.82,1.05-3.15,0.28-3.89-1.6c-1.07-2.72-3.71-5.01-2.22-8.46C133.26,93.8,132.32,93.15,132.59,91.88z"/>
<path class="st0" d="M247.23,264.14c6.86,1.73,12.82,3.23,18.61,4.7c1.65,4.48-1.32,8.3-0.33,12.91
	c-7.07-1.25-12.76-4.44-18.72-6.22C245.21,271.72,247.92,268.59,247.23,264.14z"/>
<path class="st0" d="M480.77,60.77c-1.63-0.54-1.71-1.52-1.97-2.17c-1-2.54-1.76-5.18-2.67-7.97c3.35-2.48,7.08-4.05,10.73-5.61
	c2.41-1.03,5.12-0.75,7.11,1.77c1,1.26,2.49,2.13,4.66,3.91C491.4,53.44,485.09,55.55,480.77,60.77z"/>
<path class="st0" d="M220.05,483.87c6.97-0.64,13.51,0.46,20.14-1.45c0.11,3.48-1.78,5.94-0.57,9.01c-6.8,0.33-12.87,1.01-19,3.49
	C220.47,490.97,222.58,487.46,220.05,483.87z"/>
<path class="st0" d="M503.43,27.57c0.32,0.39,0.49,0.51,0.52,0.65c1.9,8.2,1.9,8.2-5.69,11.98c-1.17,0.58-2.34,1.15-3.54,1.66
	c-2.58,1.1-5.1,0.3-5.23-2.18c-0.13-2.49-1.68-4.7-1.03-7.36C493.45,30.73,498.5,29.13,503.43,27.57z"/>
<path class="st0" d="M27.9,452.91c-0.83-4.19-1.58-7.97-2.38-11.98c5.36-0.19,10.56-2.11,16.34-1.04c0.98,1.71,2.14,3.58,2.79,6.18
	C38.97,448.39,33.53,450.61,27.9,452.91z"/>
<path class="st0" d="M372.23,108.62c-0.42,3.84,2.04,6.98,0.69,10.76c-4.24,1.09-8.6,2.2-13.17,3.37
	c-0.83-3.98-0.32-7.74-0.36-11.85C364.16,113.56,367.38,108.95,372.23,108.62z"/>
<path class="st0" d="M306.4,285.3c0.22-4,2.99-6.81,4.28-10.68c3.29,1.64,6.75,0.7,10.27,1.22c0.97,2.82,3.31,5.1,3.22,8.66
	C318.19,284.22,312.48,286.68,306.4,285.3z"/>
<path class="st0" d="M563.17,216.02c4.82-1.24,9.16-2.35,13.62-3.5c0.78,2.73,0.44,5.16,0.38,7.79c-4.5,1.19-8.83,2.17-13.47,2.33
	C562.95,220.41,563.5,218.44,563.17,216.02z"/>
<path class="st0" d="M470.81,365.94c0.37,0.59,0.8,1.27,1.23,1.94c2.02,3.14,1.43,4.8-2.1,4.66c-3.52-0.14-6.75,1.41-10.24,1.14
	c-1.86-0.15-3.15-0.54-3.41-2.7c-0.28-2.35,1.54-2.89,2.97-3.19C463.03,366.98,466.88,366.54,470.81,365.94z"/>
<path class="st0" d="M437.17,295.15c-3.25,0.81-6.48,1.71-9.76,2.4c-3.46,0.72-6.01-1.87-5.04-4.96c0.1-0.3,0.2-0.76,0.42-0.85
	c3.5-1.42,7.31-1.5,10.94-1.69C435.88,289.94,437.48,292.33,437.17,295.15z"/>
<path class="st0" d="M295.21,481.61c-1.58-1.67-2.87-3.8-1.45-5.69c2.61-3.48,6.28-5.16,10.81-4.08c1.2,4.75,1.18,4.75-3.26,6.85
	C299.29,479.65,297.75,481.63,295.21,481.61z"/>
<path class="st0" d="M447.19,235.05c0.06,3.57-2.94,3.31-4.73,3.45c-2.41,0.18-4.24,1.51-6.37,2.1c-2.74-3.52-2.23-5.48,1.77-5.83
	C440.91,234.5,444.06,234.27,447.19,235.05z"/>
<path class="st0" d="M480.41,507.18c2.17-0.99,4.02-2.71,6.69-2.58c1.68,0.09,2.92,0.53,3.15,2.38c0.2,1.6-0.19,2.83-1.85,3.6
	C484.05,512.6,482.35,511.94,480.41,507.18z"/>
<path class="st0" d="M463.32,499.2c-7.49,3.58-8.72,3.43-9.95-1.27c3.55,0.21,5.49-3.91,9.21-3.26
	C463.78,496.1,463.03,497.59,463.32,499.2z"/>
<path class="st0" d="M136.35,80.07c-2.78,2.38-5.55,4.44-9.66,2.17c-0.7-1.06-0.35-2.51-0.18-3.86
	C127.57,76.87,133.96,77.97,136.35,80.07z"/>
</svg>
