<?xml version="1.0" encoding="utf-8"?>
<!-- Generator: Adobe Illustrator 24.1.2, SVG Export Plug-In . SVG Version: 6.00 Build 0)  -->
<svg version="1.1" id="Layer_1" xmlns="http://www.w3.org/2000/svg" xmlns:xlink="http://www.w3.org/1999/xlink" x="0px" y="0px"
	 width="70.9" height="104.39" viewBox="0 0 70.9 104.39" enable-background="new 0 0 70.9 104.39" xml:space="preserve">
<g>
	<path d="M53.11,22.71c0.92-0.81,1.65-1.77,2.31-2.81c1.98-3.1,4.7-5.12,8.47-5.46c1.28-0.12,2.54-0.36,3.86-0.24
		c1.19,0.12,1.72,0.73,2.07,1.66c0.69,1.8,1.02,3.68,1.05,5.61c0.02,1.1-0.01,2.19,0.01,3.29c0.04,2.49-0.69,4.73-2.24,6.67
		c-0.48,0.6-0.83,1.24-1.12,1.83c0.05,0.44,0.41,0.43,0.64,0.68c-0.17,0.77-0.5,1.54-1.23,1.96c-1.09,0.62-1.86,1.6-2.89,2.27
		c-2.59,1.71-3.82,4.41-5.05,7.08c-0.32,0.69-0.22,1.49-0.16,2.24c0.22,3.1-0.41,5.98-2.09,8.62c-0.32,0.51-0.51,1.12-0.66,1.71
		c-1.77,6.6-3.17,13.28-4.08,20.06c-0.42,3.11-0.65,6.25-1,9.37c-0.23,2.1-0.37,4.23-0.82,6.28c-0.61,2.78-1.75,5.33-4.28,6.99
		c-1.03,0.68-1.95,1.51-3,2.16c-1.08,0.68-2.16,1.52-3.59,1.11c-1.63,0.81-3.27,0.72-4.91,0.01c-0.91,0.73-1.51-0.02-2.16-0.47
		c-1.12-0.78-2.25-1.55-3.33-2.39c-3.57-2.77-5.41-6.61-6.63-10.83c-1.6-5.54-2.44-11.2-2.96-16.92
		c-0.56-6.29-1.84-12.42-3.94-18.37c-0.09-0.25-0.15-0.53-0.31-0.74c-1.69-2.16-2.17-4.67-2.21-7.32c-0.01-0.48-0.03-0.97-0.28-1.39
		c-1.76-2.95-3.54-5.87-6.73-7.56c-0.93-0.49-1.5-1.24-1.82-2.33c-0.3-1-0.61-2.09-1.34-2.92c-2.18-2.46-2.8-5.42-2.69-8.58
		c0.08-2.11,0.24-4.22,0.47-6.32c0.23-2.08,0.57-2.81,3.04-2.38c3.24,0.57,6.46,1.17,9.34,2.91c0.82,0.5,1.69,1.03,2.21,1.81
		c1.17,1.75,2.81,3.12,3.86,4.97c0.42,0.74,0.94,1.49,1.97,1.85c-0.34-1.66-1.45-2.67-2.5-3.67c-0.85-0.81-1.51-1.59-1.71-2.86
		c-0.28-1.88-0.98-3.69-1.3-5.57c-0.71-4.08,0.66-7.68,2.84-11.05c0.56-0.86,1.11-1.73,1.9-2.42c0.98-0.86,2.05-1.05,3.23-0.52
		c0.56,0.25,1.1,0.56,1.61,0.9c2.34,1.56,4.49,3.34,6.08,5.72c0.61,0.92,1.23,1.89,1.4,2.95c0.28,1.71,1.32,3.17,1.38,4.92
		c0.02,0.67,1.05,0.64,0.89,1.46c-0.11,0.59-0.12,1.24,0.02,1.82c0.11,0.45,0.06,0.85-0.1,1.18c-0.76,1.53,0.03,2.75,0.72,4.2
		c0.69-0.72,0.94-1.45,0.98-2.26c0.03-0.55,0.03-1.1,0.01-1.64c-0.13-3.86,0.46-7.63,1.76-11.24c1.35-3.76,3.87-6.54,7.52-8.29
		c1.51-0.72,2.73-0.55,3.92,0.6c2.53,2.47,4.02,5.48,4.8,8.89c0.53,2.3,0.78,4.59-0.13,6.86c-0.05,0.13-0.1,0.26-0.12,0.39
		c-0.17,1.48-0.2,2.97-0.85,4.37c-0.16,0.34-0.06,0.81-0.07,1.21c-1.49,0.9-2.39,2.54-2.15,4.13
		C52.05,25.57,52.84,24.28,53.11,22.71z"/>
	<path fill="#1A1A1A" d="M47,42.41c0.24-0.74,0.33-0.98,0.4-1.19c0.23-0.23,0.43-0.09,0.58,0.02c2.16,1.71,3.69,3.83,4.24,6.58
		c0.64,3.21-1.84,5.53-4.97,4.62c-0.26-0.08-0.52-0.18-0.79-0.23c-1.39-0.27-2.63-0.76-3.16-2.05c-0.64-0.3-1.06,0.18-1.53,0.06
		c-0.49-0.38,0.19-0.92-0.14-1.31c-0.68-0.14-1.09,0.62-1.74,0.45c-0.56-0.36,0.03-1.08-0.43-1.46c-0.72-0.19-0.99,0.75-1.67,0.61
		c-0.48-0.44,0.26-0.88-0.05-1.45c-0.76-0.14-1.25,0.54-1.87,0.85c-0.65,0.33-1.13,0.97-1.94,1.09c-0.15-0.32-0.28-0.61-0.47-1.02
		c-1.78,0.83-2.97,2.16-3.68,3.89c-0.42,0.35-0.62-0.21-1.12-0.14c-0.4,0.77-0.77,1.77-2.01,1.83c-1.72,0.08-3.44,0.21-4.9-0.97
		c-1.85-1.48-2.39-3.29-1.47-5.46c0.72-1.7,1.72-3.22,3.32-4.22c0.62,0.47,0.25,1.12,0.54,1.61c0.05-0.09,0.13-0.17,0.13-0.26
		c0.12-1.8,0.53-3.5,1.38-5.1c0.93-1.75,1.69-3.58,2.38-5.45c0.97-2.61,3.04-4.03,5.7-4.42c1.89-0.28,3.8-0.08,5.67,0.56
		c2.29,0.78,3.9,2.21,4.93,4.35C45.51,36.67,46.58,39.17,47,42.41z"/>
	<path fill="#1A1A1A" d="M16.02,13.24c-0.08-4.84,1.83-8.06,4.23-11.02c1.23-1.51,1.87-1.53,3.57-0.58c3.06,1.7,5.55,4.04,7.2,7.13
		c2.12,3.96,1.52,8.24-1.23,11.75c-1.19,1.53-2.87,2.16-4.85,2.28c-2.85,0.17-4.92-0.84-6.71-3.09
		C16.49,17.48,15.92,15.1,16.02,13.24z"/>
	<path fill="#1A1A1A" d="M54.03,13.61c0.07,1.07-0.22,2.06-0.71,2.97c-1.82,3.41-4.44,5.66-7.99,5.32
		c-2.92-0.28-5.43-1.35-6.83-4.19c-0.75-1.52-1.03-3.15-0.74-4.78c0.58-3.27,1.67-6.33,4.07-8.81c1.36-1.41,2.88-2.51,4.69-3.22
		c1.43-0.57,1.76-0.5,2.81,0.7c0.82,0.93,1.55,1.92,2.14,3C52.99,7.42,53.78,10.45,54.03,13.61z"/>
	<path fill="#1A1A1A" d="M68.77,15.47c0.85,1.61,1.11,3.32,1.26,5.02c0.14,1.63,0.15,3.29,0.03,4.92c-0.27,3.63-1.81,6.42-5.45,7.68
		c-3.77,2.47-9.07-1.29-10.17-4.8c-0.21-0.67-0.2-1.37-0.08-2.04c0.23-1.28,0.45-2.57,0.85-3.8c1.34-4.19,4.28-6.52,8.59-7.23
		C65.44,14.94,67.05,14.74,68.77,15.47z"/>
	<path fill="#1A1A1A" d="M13.93,32.13c-0.66,0.23-1.16,0.47-1.7,0.57c-0.73,0.13-0.16,1.23-0.85,1.18
		c-0.87-0.06-0.65,0.66-0.93,1.03c-0.6-0.05-1.21-0.08-1.82-0.15c-3.74-0.42-6.66-3.15-7.42-6.87c-0.64-3.13-0.43-6.26-0.13-9.4
		c0.05-0.54,0.09-1.09,0.17-1.63c0.14-0.91,0.53-1.31,1.35-1.13c3.46,0.77,7.02,1.31,10.07,3.3c2.28,1.49,3.79,3.54,4.02,6.34
		c0.08,0.96-0.04,1.92-0.52,2.78C15.46,29.47,14.71,30.76,13.93,32.13z"/>
	<path fill="#1A1A1A" d="M45.5,63.62c0.57,0,0.95,0.63,1.39,0.07c0.5-0.62,0.95-0.18,1.4,0.06c0.68-0.13,0.56-1.13,1.29-1.19
		c1.53,1.41,1.43,2.92,0.37,4.54c-0.71,1.08-1.37,2.2-2.59,2.9c-1.72-0.58-2.82-1.9-3.92-3.19c-0.35-0.41-0.31-0.96,0.18-1.25
		C44.42,65.1,44.95,64.41,45.5,63.62z"/>
	<path fill="#1A1A1A" d="M23.71,62.37c0.79,1.26,1.94,1.86,2.94,2.59c0.62-0.02,0.4-0.7,0.79-0.88c1.08,0.43,2.1,0.94,2.72,2.12
		c-0.64,1.56-1.62,2.88-3.23,3.75c-1.16-0.3-2.1-0.97-2.87-1.85c-0.82-0.94-1.51-1.91-0.85-3.3C23.5,64.16,23.02,63.31,23.71,62.37z
		"/>
</g>
</svg>
