<?xml version="1.0" encoding="utf-8"?>
<!-- Generator: Adobe Illustrator 24.1.2, SVG Export Plug-In . SVG Version: 6.00 Build 0)  -->
<svg version="1.1" id="Layer_1" xmlns="http://www.w3.org/2000/svg" xmlns:xlink="http://www.w3.org/1999/xlink" x="0px" y="0px"
	 width="52.66" height="70.12" viewBox="0 0 52.66 70.12" enable-background="new 0 0 52.66 70.12" xml:space="preserve">
<g>
	<path d="M1.18,15.27c0.73,0.35,0.87,1,1.53,1.05c1.72,0.11,2.64,1.37,3.41,2.67c0.83,1.41,1.53,2.92,1.85,4.55
		c0.41,2.07,1.78,3.46,3.25,4.83c1.25-0.38,1.39-1.31,1.21-2.3c-0.55-2.95-1.1-5.91-1.77-8.84c-0.5-2.21-0.54-4.47-1.04-6.67
		c-0.06-0.26-0.06-0.56,0-0.82c0.5-2.13,1.16-4.2,2.71-5.84c0.07-0.08,0.25-0.06,0.48-0.1c0.14,0.63,0.29,1.26,0.46,2.01
		c2.08,0.3,2.78,1.85,3.22,3.68c0.42,1.73,0.59,3.5,0.76,5.26c0.32,3.3,1.5,6.37,2.36,9.53c0.14,0.49,0.34,1.08,1.22,1.08
		c0.75-1.54,0.93-3.27,1.08-5c0.07-0.74-0.04-1.5-0.05-2.26c-0.01-0.61-0.13-1.27,0.03-1.84c0.69-2.43,0.39-4.9,0.44-7.35
		c0.02-1.16,0.07-2.31,0.26-3.46c0.15-0.96,0.53-1.77,1.29-2.23c0.9-0.55,1.35-1.28,1.54-2.27c0.06-0.32,0.25-0.62,0.36-0.88
		c0.73-0.27,0.99,0.18,1.13,0.64c0.32,1.08,0.9,1.92,1.78,2.66c0.92,0.78,1.3,1.91,1.32,3.13c0.03,2.45-0.09,4.89-0.37,7.32
		c-0.39,3.41-0.29,6.83-0.3,10.25c0,0.47-0.06,0.96,0.16,1.41c0.24,0.51,0.96,0.7,1.37,0.31c0.19-0.18,0.32-0.43,0.46-0.67
		c0.38-0.65,0.68-1.33,0.91-2.05c0.96-2.99,1.97-5.97,2.93-8.96c0.21-0.65,0.37-1.31,0.48-1.98c0.35-2.05,1.4-3.38,3.57-3.64
		c0.13-0.02,0.26-0.08,0.45-0.15C40.19,7.8,40.34,6.91,41,6.42c0.36,0.18,0.53,0.46,0.63,0.81c0.38,1.31,0.86,2.6,1.13,3.93
		c0.31,1.58-0.16,3.14-0.61,4.62c-1.28,4.18-2.06,8.51-3.73,12.57c-0.67,1.62-0.69,3.38-0.68,5.05c0.01,1.45,0.76,2.86,0.95,4.55
		c1.67-1.08,2.84-2.28,3.48-3.99c0.48-1.29,1.13-2.47,2.29-3.33c1.96-1.46,3.64-1.52,5.62-0.09c0.16,0.12,0.31,0.27,0.44,0.38
		c0.77,0.23,1.2-0.71,2.02-0.49c0.31,1.33,0.04,2.51-1,3.51c-1.03,0.99-2.09,1.97-3.03,3.06c-1.17,1.35-2.1,2.82-2.48,4.65
		c-0.49,2.34-1.94,4.21-3.39,6.03c-0.77,0.97-1.45,1.94-1.95,3.1c-0.81,1.89-2.1,3.51-3.56,4.98c-0.43,0.43-0.94,0.83-0.75,1.57
		c0.27,0.35,0.6-0.27,0.87,0.04c0.18,1.47-0.15,3.94-0.67,5.1c0,0,0.02,1.29,0.02,1.39c-2.06,1.38-4.34,2.47-6.64,3.5
		c-1.94,0.87-3.91,1.65-5.85,2.5c-0.74,0.33-1.41,0.37-2.16,0.03c-4.1-1.88-8.22-3.72-12.29-5.88c-0.07-1.2-0.33-2.38-1-3.45
		c-0.44-0.7-0.62-1.47-0.16-2.33c0.24-0.44,0.18-1.05,0.24-1.51c0.41-0.38,0.68,0.11,1.02,0c0.28-0.62,0.01-1.19-0.21-1.76
		c-1.24-3.22-1.7-6.59-2.02-9.99c-0.16-1.7-0.31-3.4-0.56-5.09c-0.48-3.33-1.78-6.31-4.01-8.84c-0.76-0.86-1.19-1.79-1.33-2.93
		c-0.22-1.69-0.57-3.37-0.78-5.06c-0.1-0.83-0.4-1.59-0.62-2.38C-0.31,18.76,0.16,17.05,1.18,15.27z"/>
	<path fill="#1A1A1A" d="M24.01,36.93c-1.2,0.72-2.59,0.55-3.89,0.8c-1.17,0.22-2.24,0.57-3.21,1.13c-1.25,0.72-2.61,0.76-3.94,0.97
		c-1,0.16-2.14-0.93-2.38-2.17c-0.21-1.09-0.16-2.19,0.44-3.18c0.21-0.35,0.48-0.67,0.67-1.03c0.91-1.72,2.31-2.22,4.12-1.62
		c0.91,0.3,1.6,0,2.22-0.63c0.34-0.34,0.64-0.72,0.98-1.05c1.18-1.16,2.85-1.46,4.08-0.42c1.57,1.34,3.07,1.24,4.72,0.34
		c0.3-0.16,0.61-0.34,0.94-0.41c0.97-0.22,1.88-0.2,2.62,0.65c0.99,1.14,2,2.26,2.72,3.59c1.16,2.14-0.18,4.42-2.63,4.48
		c-1.5,0.04-3.01-0.08-4.51-0.1C25.8,38.27,24.88,37.73,24.01,36.93z"/>
	<path fill="#1A1A1A" d="M22.84,6.19c0.07-1.2,0.37-2.31,1.67-2.95C25.8,2.6,27,2.71,28.16,3.49c1.15,0.77,1.47,1.93,1.37,3.2
		c-0.1,1.41-0.9,2.59-1.72,3.63c-1.21,1.53-3.25,1.12-3.85-0.7c-0.23-0.7-0.27-1.42-0.9-1.97C22.72,7.34,22.83,6.74,22.84,6.19z"/>
	<path fill="#1A1A1A" d="M12.18,4.72c0.65,0.66,0.37,1.21,0.3,1.71c2.04,0.24,3.17,1.29,3.42,3.18c0.13,1.01,0.16,2.05-0.1,3.05
		c-0.47,1.87-2.1,2.32-3.54,1.04c-1.37-1.22-1.57-2.92-1.98-4.55c-0.05-0.19-0.06-0.46,0.04-0.6C11.16,7.42,11.23,5.92,12.18,4.72z"
		/>
	<path fill="#1A1A1A" d="M36.21,13.23c-0.07-1.07,0.06-1.99,0.59-2.84c0.41-0.67,0.99-1.12,1.73-1.34c1.28-0.38,2.29,0.15,2.76,1.39
		c0.72,1.89-0.15,4.64-2.46,5.5c-1.16,0.43-2.75-0.25-2.62-1.58C36.24,13.95,36.21,13.54,36.21,13.23z"/>
	<path fill="#1A1A1A" d="M50.51,33.97c-0.23-0.47-0.37-0.76-0.54-1.09c-1.31,0.76-2.57,1.54-3.89,2.22c-1.08,0.55-2.2,0.74-3.2-0.22
		c-0.11-1.72,0.78-2.89,2-3.85c1.95-1.54,3.63-1.32,5.34,0.65c0.38,0.14,0.56-0.31,0.9-0.34c0.26-0.02,0.53-0.14,0.88,0.17
		C52.08,32.54,51.74,33.38,50.51,33.97z"/>
	<path fill="#1A1A1A" d="M6.45,21.59c-0.02,0.59-0.15,1.24-0.7,1.74c-0.42,0.39-0.87,0.59-1.47,0.47c-1.83-0.37-3.5-2.35-3.49-4.22
		c0-1.02,0.37-1.88,1.28-2.38c0.98-0.53,1.86-0.06,2.64,0.51C5.68,18.41,6.43,20.13,6.45,21.59z"/>
	<path fill="#1A1A1A" d="M26.19,0.76c0.42,0.35,0.6,0.69,0.59,1.12c0,0.42-0.29,0.58-0.65,0.59c-0.41,0.01-0.59-0.25-0.56-0.64
		C25.61,1.42,25.69,1.02,26.19,0.76z"/>
	<path fill="#1A1A1A" d="M41.09,7.28c0.51,0.59,0.72,1.23,0.59,2.01C40.05,8.73,40,8.53,41.09,7.28z"/>
</g>
</svg>
