<?xml version="1.0" encoding="utf-8"?>
<!-- Generator: Adobe Illustrator 24.1.1, SVG Export Plug-In . SVG Version: 6.00 Build 0)  -->
<svg version="1.1" id="Layer_1" xmlns="http://www.w3.org/2000/svg" xmlns:xlink="http://www.w3.org/1999/xlink" x="0px" y="0px"
	 width="156.41" height="368.41" viewBox="0 0 156.41 368.41" style="enable-background:new 0 0 156.41 368.41;" xml:space="preserve">
<style type="text/css">
	.st0{fill:#1A1A1A;}
</style>
<g>
	<path d="M74.62,34.61c0.71-0.06,1.04-0.7,1.5-1.09c1.01-0.86,2.03-1.57,3.38-1.21c0.75-0.55,1.06-1.31,1.56-1.92
		c0.25-0.3,0.55-0.57,0.86-0.81c0.22-0.17,0.49-0.08,0.63,0.12c0.31,0.45,0.56,0.94,0.84,1.41c2.48-1.7,2.48-1.7,4.66-2.37
		c0.43-0.34,0.36-0.83,0.41-1.3c0.09-0.89,0.85-1.39,1.7-1.16c0.46,0.12,0.9,0.31,1.34,0.5c0.88,0.39,1.77,0.74,2.61,1.21
		c0.76,0.42,1.51,0.45,2.31,0.28c3.23-0.68,5.36-2.76,6.82-5.55c1.64-3.12,2.77-6.45,3.46-9.92c0.17-0.86,0.35-1.72,0.6-2.57
		c0.38-1.27,1.13-2.27,2.27-2.98c0.87-0.54,1.8-0.65,2.76-0.52c0.36,0.05,0.74,0.3,1.03,0.56c0.6,0.54,0.94,1.27,1.27,2.01
		c0.59,1.33,0.61,2.8,1.05,4.17c-0.19,1.1-0.27,2.23-0.59,3.29c-0.67,2.22-1.49,4.39-2.87,6.29c-0.07,0.09-0.07,0.33,0,0.41
		c0.08,0.1,0.29,0.18,0.41,0.14c0.62-0.16,1.26-0.29,1.82-0.56c2.98-1.44,5.73-3.16,7.42-6.18c0.94-1.68,1.82-3.38,2.55-5.15
		c0.3-0.74,0.58-1.51,0.69-2.29c0.23-1.61,0.91-3.06,1.49-4.54c0.23-0.58,0.63-1.12,1.08-1.56c1.47-1.41,3.75-1.13,4.67,0.69
		c0.67,1.32,1.14,2.72,0.99,4.34c-0.38,4.04-1.49,7.83-3.25,11.46c-0.8,1.65-1.45,3.38-2.61,4.83c-0.6,0.75-1.19,1.5-1.83,2.22
		c-0.54,0.6-1.17,1.1-1.91,1.43c-1.24,0.56-2.46,1.18-3.74,1.61c-3.11,1.02-6.16,2.22-9.37,2.92c-1.64,0.36-3.25,0.83-4.88,1.22
		c-0.94,0.22-1.85,0.51-2.67,1.03c-0.27,0.17-0.52,0.38-0.59,0.73c0.48,0.43,1.11,0.51,1.68,0.75c0.88,0.37,1.75,0.77,2.61,1.19
		c0.41,0.2,0.43,0.58,0.14,1.22c-0.03,0.07-0.07,0.14-0.12,0.24c0.08,0.75,0.7,1.21,1.11,1.77c0.77,1.04,1.5,2.05,1.4,3.46
		c-0.03,0.44,0.21,0.93,0.4,1.36c0.26,0.6,0.55,1.16,0.03,1.79c-0.12,0.14-0.1,0.49-0.02,0.68c0.39,0.9,0.34,1.87,0.36,2.73
		c2.06,1.6,3.92,3.21,6.19,4.26c0.81,0.38,1.61,0.7,2.5,0.74c1.76,0.08,3.51,0.17,5.27,0.21c3.28,0.07,6.52,0.47,9.77,0.88
		c2.49,0.31,4.76,1.32,7.08,2.17c0.44,0.16,0.84,0.47,1.21,0.76c1,0.79,2,1.59,2.96,2.44c1.93,1.71,4,3.18,6.41,4.13
		c0.67,0.26,1.31,0.6,1.96,0.91c0.8,0.39,1.43,0.98,2.07,1.6c0.79,0.77,1.07,1.65,0.75,2.61c-0.51,1.48-0.43,2.99-0.56,4.5
		c-0.15,1.66-0.3,3.33-0.57,4.98c-0.32,1.99-1.07,3.86-1.94,5.65c-1.82,3.74-3.79,7.39-6.45,10.62c-2.29,2.78-4.78,5.38-7.48,7.76
		c-1.79,1.58-3.61,3.14-5.41,4.72c-0.6,0.53-1.18,1.08-1.74,1.65c-1.52,1.57-2.61,3.43-3.5,5.4c-0.74,1.62-0.9,3.39-1.03,5.14
		c-0.17,2.15-0.25,4.3-0.4,6.46c-0.09,1.28-0.22,2.54-0.62,3.77c-0.52,1.6-0.97,3.21-1.45,4.82c-0.16,0.54-0.41,1.06-0.48,1.61
		c-0.19,1.51-0.12,3.06-0.48,4.52c-0.37,1.49-0.58,2.97-0.59,4.49c-0.02,2.24-0.01,4.48-0.1,6.71c-0.11,2.95,0.04,5.9,0.03,8.85
		c-0.01,1.52,0.02,3.03,0.44,4.51c0.09,0.3,0.1,0.63,0.1,0.95c-0.02,1.86,0.41,3.63,1.02,5.37c0.39,1.13,0.68,2.3,1.09,3.43
		c0.37,1.05,0.79,2.1,1.27,3.1c1.79,3.75,3.62,7.48,5.42,11.22c2.16,4.47,3.65,9.19,5.16,13.91c0.34,1.06,0.73,2.11,1.04,3.18
		c1.06,3.61,2.02,7.24,2.37,10.99c0.04,0.4,0.11,0.79,0.18,1.18c0.38,2.13,0.66,4.26,0.72,6.43c0.06,1.91,0.27,3.82,0.35,5.74
		c0.15,3.52,0.22,7.03-0.13,10.54c-0.3,3.1-0.53,6.21-0.78,9.32c-0.04,0.56-0.08,1.12-0.03,1.68c0.11,1.28-0.04,2.55-0.16,3.82
		c-0.32,3.58-0.45,7.18-0.25,10.78c0.11,1.99,0.31,4,0.22,5.98c-0.12,2.88-0.57,5.75-1.99,8.33c-1.7,3.08-3.23,6.23-4.6,9.48
		c-0.72,1.69-1.47,3.36-2.03,5.11c-0.91,2.83-2.16,5.49-3.76,8c-0.73,1.14-1.33,2.37-1.91,3.59c-1.05,2.24-1.97,4.54-3.06,6.76
		c-1.14,2.29-1.12,4.61-0.52,7c0.2,0.77,0.44,1.54,0.59,2.32c0.32,1.58,0.35,3.17,0.06,4.77c-0.03,0.16-0.05,0.32-0.1,0.47
		c-0.72,2.35-0.28,4.58,0.64,6.77c0.28,0.66,0.55,1.33,0.86,1.98c1.37,2.88,2.75,5.77,4.15,8.64c0.28,0.56,0.51,1.18,1.08,1.56
		c0.62,0.21,1.26,0.15,1.89,0.1c0.72-0.05,1.27,0.07,1.3,0.97c0.01,0.19,0.23,0.43,0.41,0.53c0.94,0.52,1.75,1.1,1.87,2.3
		c0.03,0.26,0.36,0.51,0.59,0.72c1,0.91,2.03,1.8,3.04,2.71c1.57,1.41,2.65,3.19,3.68,5c0.58,1.02,0.66,2.12,0.3,3.25
		c-0.27,0.83-0.79,1.4-1.67,1.54c-2.29,0.36-4.58,0.7-6.87,1.04c-2.04-0.33-4.1-0.02-6.15-0.13c-2.87-0.15-5.74-0.18-8.61-0.22
		c-0.84-0.01-1.54-0.22-2.21-0.74c-1.22-0.96-2.21-2.06-2.68-3.58c-0.3-0.99-0.67-1.96-1.36-2.78c-0.24-0.29-0.38-0.71-0.44-1.1
		c-0.13-0.8-0.24-1.56-1.07-2.02c-0.34-0.19-0.39-0.68-0.38-1.09c0.02-0.62-0.24-1.03-0.8-1.33c-0.37-0.2-0.49-0.62-0.42-1.04
		c0.14-0.87,0.28-1.74,0.45-2.6c0.13-0.63,0.26-1.25,0.12-1.89c-0.11-0.12-0.19-0.27-0.32-0.34c-1.66-0.89-1.76-1.09-1.07-2.77
		c0.33-0.81,0.71-1.6,1.11-2.49c-0.64-2.74-1.37-5.52-2.83-8.03c-0.92-1.58-1.76-3.22-2.92-4.66c-0.37-0.46-0.56-0.99-0.54-1.56
		c0.04-1.12,0.05-2.24,0.22-3.34c0.28-1.74,0.7-3.45,1.31-5.1c0.93-2.55,1.12-5.13,0.37-7.76c-0.9-3.15-1.41-6.39-2.03-9.61
		c-0.23-1.17-0.31-2.38-0.41-3.57c-0.16-1.91-0.34-3.81-0.73-5.7c-0.21-1-0.17-2.08-0.03-3.1c0.2-1.5,0.59-2.97,0.9-4.46
		c0.51-2.39,1.58-4.51,3.1-6.42c0.54-0.68,1.03-1.43,1.46-2.19c0.61-1.08,0.77-2.25,0.5-3.48c-0.33-1.48-0.67-2.93-1.38-4.3
		c-1.36-2.62-2.58-5.32-3.95-7.94c-1.41-2.69-3.16-5.18-4.98-7.61c-1.77-2.37-3.49-4.77-5.23-7.16c-0.47-0.64-0.95-1.27-1.37-1.83
		c-0.41-0.07-0.59,0.09-0.68,0.31c-0.27,0.66-0.52,1.34-0.79,2.01c-0.88,2.15-2.02,4.17-3.36,6.06c-1.07,1.51-2.05,3.07-2.84,4.72
		c-1.14,2.39-2.55,4.61-3.96,6.84c-1.41,2.23-2.71,4.52-3.79,6.94c-0.56,1.25-0.94,2.52-1.19,3.87c-0.29,1.57-0.48,3.15-0.71,4.73
		c-0.15,1.05-0.15,2.05,0.04,3.09c0.31,1.73,0.46,3.48,0.89,5.2c0.17,0.68,0.12,1.43,0.06,2.14c-0.17,1.83-0.53,3.63-1.16,5.37
		c-0.78,2.18-1.44,4.4-2.77,6.34c-0.58,0.86-0.94,1.84-1.21,2.86c-0.33,1.24-0.85,2.4-1.42,3.55c-0.85,1.71-1.55,3.5-2.37,5.24
		c-0.43,0.91-0.5,1.81-0.32,2.79c0.19,1.02,0.25,2.06,0.38,3.09c0.06,0.47,0.03,0.98,0.19,1.42c0.41,1.12,0.26,2.2-0.03,3.3
		c-0.3,1.16-0.47,2.36-0.86,3.49c-1.12,3.23-1.37,6.59-1.25,9.94c0.09,2.62,0.56,5.23,1.72,7.65c0.45,0.93,0.78,1.92,1.1,2.9
		c0.26,0.79,0.24,1.55-0.39,2.24c-0.71,0.78-0.55,1.63,0.04,2.41c0.67,0.89,1.39,1.75,2.09,2.63c1.42,1.79,2.35,3.79,2.65,6.07
		c0.06,0.47,0.08,0.95,0.07,1.43c-0.01,0.41-0.18,0.78-0.53,1.03c-1.17,0.86-2.41,1.57-3.93,1.55c-0.8-0.01-1.6,0.03-2.4-0.02
		c-0.63-0.04-1.26-0.25-1.88-0.25c-0.62,0-1.24,0.16-1.86,0.25c-0.08,0.01-0.16,0.01-0.24-0.01c-1.81-0.54-3.64-0.09-5.45-0.04
		c-2.56,0.08-5.09-0.33-7.64-0.37c-0.74-0.01-1.42-0.23-2.08-0.52c-0.58-0.25-1.1-0.63-1.77-0.64c-0.39-1.07-0.19-2.01,0.1-2.91
		c0.29-0.91,0.71-1.78,1.04-2.68c0.16-0.43,0.55-0.79,0.43-1.4c-0.38-0.17-0.82-0.34-1.22-0.57c-0.62-0.34-0.89-1-0.62-1.62
		c0.25-0.58,0.58-1.13,0.88-1.69c0.15-0.27,0.35-0.52,0.26-0.85c-0.16-0.26-0.41-0.2-0.64-0.24c-1.23-0.19-1.59-0.79-1.01-1.74
		c0.33-0.54,0.71-1.07,1.11-1.56c1.32-1.62,1.81-3.53,1.92-5.56c0.01-0.24,0.06-0.53-0.05-0.71c-0.62-1.05-0.07-1.81,0.54-2.6
		c0.5-0.65,0.77-1.42,0.85-2.21c0.2-1.83,0.35-3.66,0.47-5.49c0.1-1.53-0.18-3.02-0.55-4.5c-0.93-3.69-0.93-3.69,0.29-7.18
		c0.21-0.6,0.43-1.2,0.64-1.81c0.88-2.58,0.92-5.17,0.1-7.76c-0.7-2.21-1.46-4.4-2.1-6.62c-0.93-3.24-1.57-6.53-1.2-9.93
		c0.2-1.91,0.35-3.82,0.53-5.73c0.03-0.32,0.08-0.64,0.18-0.94c0.71-2.2,1.42-4.4,2.14-6.6c0.2-0.61,0.38-1.23,0.69-1.78
		c1.15-2.03,0.99-4.15,0.47-6.28c-0.26-1.08-0.65-2.14-1-3.2c-0.8-2.43-1.68-4.83-2.4-7.28c-1.67-5.7-2.67-11.5-2.59-17.48
		c0.03-2.31-0.14-4.63-0.23-6.94c-0.13-3.44,0.12-6.87,0.39-10.3c0.25-3.19,0.55-6.37,0.97-9.54c0.14-1.05,0.2-2.05-0.03-3.07
		c-0.67-2.99-0.59-6.04-0.59-9.07c0.01-5.98,1.86-11.47,4.61-16.69c1.79-3.39,3.61-6.76,5.41-10.14c0.37-0.69,0.82-1.36,0.86-2.16
		c-0.41-0.28-0.8-0.24-1.2-0.22c-4.32,0.2-8.38-0.99-12.39-2.38c-0.98-0.34-1.89-0.86-2.71-1.52c-0.5-0.4-1.02-0.77-1.52-1.17
		c-1.12-0.9-2.15-1.97-3.38-2.66c-1.18-0.67-2.32-1.38-3.5-2.06c-1.83-1.05-2.93-2.55-3.48-4.61c-0.49-1.83-0.59-3.58-0.17-5.43
		c0.6-2.65,1.07-5.32,1.53-7.99c0.24-1.42,0.42-2.85,0.47-4.29c0.14-3.53,0.59-7,1.46-10.42c0.22-0.85,0.35-1.72,0.48-2.59
		c0.33-2.23,1-4.36,1.87-6.42c1.06-2.5,2.02-5.05,3.38-7.41c0.2-0.35,0.33-0.75,0.58-1.05c1.13-1.34,1.61-2.89,1.77-4.61
		c0.18-1.86,0.96-3.51,1.81-5.16c1.53-2.98,3.67-5.41,6.29-7.44c0.25-0.2,0.56-0.35,0.74-0.6c0.95-1.31,2.38-1.83,3.81-2.35
		c1.2-0.43,2.41-0.84,3.6-1.3c0.82-0.31,1.63-0.65,2.4-1.06c0.49-0.26,0.95-0.61,1.32-1.02c0.7-0.76,1.29-1.62,2-2.38
		c1.58-1.69,2.21-3.86,3.04-5.92c0.12-0.29,0.15-0.63,0.15-0.94c0.01-2.15,0.01-4.31,0.01-6.53c-0.24-0.2-0.46-0.43-0.72-0.59
		c-0.81-0.51-1.22-1.22-1.28-2.17c-0.04-0.63-0.09-1.27-0.48-1.81c-0.45-0.22-0.74,0.17-1.1,0.25c-0.8,0.16-1.2-0.2-1.12-1.04
		c0.09-0.86,0.55-1.68,0.33-2.49c-0.4-0.62-1.03-0.59-1.51-0.83c-1.49-0.75-1.82-2.32-0.74-3.57c0.36-0.42,0.77-0.81,1.13-1.19
		c-0.17-0.6-0.77-0.51-1.1-0.83c-0.62-0.59-0.82-1.49-0.33-2.16c0.32-0.45,0.74-0.83,1.14-1.21c0.22-0.22,0.56-0.33,0.52-0.74
		c-0.23-0.29-0.55-0.18-0.84-0.15c-1.27,0.1-2.55,0.22-3.82,0.33c-1.07,0.09-2.06-0.17-2.99-0.7c-0.61-0.35-0.83-1.03-0.44-1.64
		c0.25-0.4,0.56-0.78,0.9-1.11c1.6-1.57,3.19-3.14,4.83-4.66c1.23-1.13,2.35-2.4,3.85-3.22c0.39-0.21,0.6-0.73,0.92-1.08
		c0.92-0.98,1.26-2.39,2.51-3.14c0.58-0.35,0.58-1.36,0.1-1.94c-0.47-0.56-0.88-1.13-1.03-1.86c0.96-0.98,0.96-0.98,2.42-1.29
		c0.06-2.07-0.72-3.81-1.95-5.44c-2.63-3.49-2.1-3.46-2.18-6.85c-0.01-0.54-0.14-1.13,0.35-1.69c0.89,0.02,1.8,0.26,2.7,0.58
		c0.37,0.14,0.74,0.3,1.12,0.39c0.8,0.19,1.66-0.59,1.51-1.39c-0.52-2.99-1.11-5.97-2.38-8.76c-0.65-1.42-0.84-2.9-0.87-4.43
		c-0.03-1.51,0.46-2.65,2.01-3.15c0.38-0.12,0.73-0.31,1.13-0.49c1.84,0.9,3.39,2.04,4.36,3.92c1.06,2.07,2.05,4.15,2.31,6.5
		c0.06,0.53,0.07,0.53,0.64,1.18c0.47-0.88,0.53-1.82,0.59-2.79c0.26-4.48,0.04-8.94-0.35-13.41c-0.06-0.63-0.04-1.28-0.01-1.91
		c0.08-1.54,0.94-2.49,2.36-2.97c0.73-0.25,1.43-0.17,2.01,0.39c1.11,1.07,1.95,2.31,2.4,3.81c0.44,1.46,0.77,2.94,0.93,4.45
		c0.25,2.3,0.51,4.61,0.72,6.91c0.14,1.51,0.01,3.03-0.22,4.53c-0.2,1.36-0.75,2.6-1.53,3.74c-1.58,2.31-3.13,4.64-4.69,6.96
		c-0.62,0.93-1.23,1.87-1.8,2.83c-0.15,0.25-0.13,0.6-0.19,0.9c-0.45-0.09-0.46,0.33-0.64,0.55c-0.15,0.18-0.11,0.31,0.1,0.34
		c0.07,0.01,0.16-0.04,0.21-0.09C74.59,35.22,74.72,34.95,74.62,34.61z M112.97,75.78c-1.28,1.27-1.31,1.26-1.66,2.44
		c-0.91,3.04-3.06,4.53-6.09,4.89c-1.82,0.22-3.65,0.3-5.46,0.53c-1.1,0.14-2.19,0.4-3.26,0.68c-1.16,0.31-1.48,1.04-0.95,2.19
		c0.43,0.94,0.96,1.83,1.47,2.73c0.41,0.72,1.11,1.12,1.82,1.49c0.52,0.27,1.07,0.27,1.61,0c1.35-0.67,2.75-1.27,4.05-2.02
		c2.15-1.23,4.43-2.18,6.75-3.02c0.91-0.33,1.75-0.72,2.51-1.32c2.09-1.64,4.42-2.83,6.93-3.68c0.59-0.2,1.2-0.35,1.88-0.95
		c-1-0.64-2.06-0.92-3.06-1.33c-1.1-0.46-2.24-0.83-3.35-1.27C115.12,76.74,114.11,76.27,112.97,75.78z"/>
	<path class="st0" d="M62.1,58.52c0.02-0.56,0.13-1.09,0.34-1.63c1.03-2.61,2.31-5.09,3.7-7.51c0.23-0.41,0.48-0.8,0.73-1.23
		c-0.3-0.26-0.52-0.46-0.75-0.65c0.03-0.14,0.01-0.32,0.09-0.4c0.62-0.63,1.31-1.17,2.1-1.57c0.27-0.14,0.57-0.27,0.65-0.62
		c-0.52-0.61-1.62-0.24-1.95-1.17c-0.02-0.06,0.03-0.15,0.06-0.29c1.09-0.07,2.19-0.13,3.29-0.21c0.97-0.07,1.19-0.26,1.44-1.25
		c0.08-0.3,0.13-0.61,0.2-0.9c0.69,0.01,1.28,0.43,2,0.05c0.11-0.56,0.19-1.19,0.35-1.8c0.14-0.54,0.25-1.1,0.66-1.52
		c0.15-0.15,0.29-0.35,0.57-0.1c0.42,0.38,0.91,0.31,1.29-0.04c0.94-0.86,1.91-1.69,2.65-2.75c0.45-0.64,0.82-1.38,1.55-1.78
		c0.51,0.34,0.16,0.88,0.35,1.3c0.14,0.3,0.55,0.49,0.77,0.29c0.35-0.32,0.71-0.64,1.03-1c1.14-1.26,2.54-2.14,3.98-2.92
		c0.39,0.37,0.19,0.65,0.09,0.94c-0.13,0.38-0.17,0.77,0.02,1.16c0.1,0.2,0.43,0.35,0.6,0.19c0.29-0.27,0.55-0.56,0.83-0.86
		c0.41,0,0.4,0.39,0.5,0.63c0.22,0.51,0.37,1.05,0.55,1.58c0.48,1.42,1.58,2.56,1.68,4.17c0.09,1.5,0.41,3,0.67,4.49
		c0.2,1.11,0.32,2.2-0.16,3.28c-0.12,0.27-0.07,0.61-0.1,0.88c0.48,0.36,1.04,0.5,1.2,1.13c0.21,0.77,0.5,1.51,0.76,2.27
		c-0.02,0.56-0.69,0.64-0.82,1.09c-0.14,0.62,0.22,1.1,0.43,1.6c0.24,0.6,0.38,1.21,0.35,1.86c-0.03,0.59-0.33,0.92-0.87,0.85
		c-1.5-0.19-3-0.42-4.51-0.59c-2.62-0.29-5.25-0.5-7.89-0.25c-1.35,0.13-2.7,0.32-3.97,0.78c-0.55,0.2-1.08,0.23-1.64,0.23
		c-0.79,0-1.26-0.2-1.2-0.49c0.1-0.49,0.57-0.48,0.88-0.68c0.4-0.25,0.89-0.39,1.12-0.86c0.02-0.05,0-0.11,0-0.17
		c-0.15-0.03-0.31-0.1-0.44-0.07c-1.3,0.38-2.59,0.77-3.88,1.16c-0.56,0.17-1.12,0.07-1.66-0.07c-1.52-0.39-3.02-0.16-4.51,0.15
		c-0.46,0.1-0.91,0.29-1.32,0.52c-0.62,0.35-0.9,0.88-0.67,1.61c0.04,0.14,0.02,0.31,0.03,0.47c-0.27,0.48-0.79,0.46-1.24,0.61
		L62.1,58.52z"/>
	<path class="st0" d="M108.38,25.8c0.25,0.25,0.57,0.25,0.87,0.18c0.93-0.22,1.87-0.43,2.78-0.73c1.82-0.6,3.61-1.29,5.43-1.89
		c2.17-0.72,3.67-2.28,4.86-4.09c1-1.52,1.78-3.21,2.52-4.88c0.67-1.53,1.13-3.15,1.71-4.72c0.44-1.2,0.9-2.39,1.39-3.57
		c0.18-0.44,0.44-0.85,0.73-1.23c0.56-0.75,1.51-0.69,1.98,0.08c0.38,0.63,0.6,1.3,0.65,2.03c0.13,2.16,0.07,4.29-0.58,6.4
		c-0.92,3-2.1,5.86-3.86,8.47c-0.58,0.86-1.09,1.77-1.61,2.66c-0.7,1.22-1.71,2.04-3,2.63c-2.26,1.03-4.6,1.82-6.94,2.63
		c-2.87,0.99-5.78,1.81-8.74,2.49c-1.72,0.4-3.34,1.11-4.9,1.91c-1.24,0.64-2.02,1.79-2.57,3.05c-1.11,2.51-1.28,5.09-0.36,7.7
		c0.13,0.37,0.31,0.74,0.37,1.13c0.03,0.18-0.13,0.54-0.27,0.58c-1.23,0.32-2.48,0.61-3.73,0.86c-0.31,0.06-0.6-0.16-0.81-0.42
		c-0.32-0.39-0.39-0.86-0.48-1.33c-0.57-2.9-1.19-5.79-1.68-8.7c-0.23-1.36-0.57-2.65-1.25-3.85c-0.6-1.07-0.81-2.25-0.93-3.44
		c-0.03-0.31,0.03-0.63,0.07-0.95c0.06-0.46,0.67-0.81,1.1-0.6c0.64,0.32,1.29,0.65,1.89,1.04c1.64,1.07,3.33,0.99,5.01,0.17
		c1.08-0.52,2.11-1.14,3.13-1.75c0.34-0.2,0.65-0.48,0.89-0.79c1.7-2.12,3.35-4.25,4.39-6.82c0.93-2.3,1.71-4.65,2.45-7.01
		c0.16-0.53,0.21-1.09,0.28-1.64c0.1-0.73,0.35-1.39,0.79-1.98c0.62-0.83,1.59-0.87,2.24-0.1c0.47,0.56,0.78,1.18,0.98,1.9
		c0.73,2.57,0.42,5.06-0.47,7.52c-0.83,2.28-1.97,4.37-3.76,6.05c-0.23,0.21-0.38,0.5-0.55,0.76
		C108.34,25.62,108.38,25.72,108.38,25.8z"/>
	<path class="st0" d="M71.84,35.28c0.15,0.74,0.26,1.28,0.35,1.76C72,37.65,71.32,37.58,71.1,38c-0.22,0.41-0.22,0.94-0.47,1.33
		c-0.43,0.69-0.23,1.6-0.84,2.21c-0.19,0.19-0.64,0.26-0.87,0.11c-0.43-0.28-0.61-0.73-0.81-1.16c-0.58-1.22-1.08-2.49-1.73-3.67
		c-0.57-1.04-1.29-2.01-1.96-3c-0.58-0.87-1.15-1.73-1.29-2.8c-0.1-0.76,0.03-1.44,0.83-1.84c1.25,0.11,2.38,0.86,3.69,0.83
		c0.23-0.01,0.47-0.02,0.7-0.03c0.2-0.01,0.45-0.38,0.32-0.51c-0.57-0.57-0.77-1.19-0.35-1.93c-0.13-1.91-0.11-3.83-0.78-5.66
		c-0.44-1.2-0.93-2.38-1.36-3.58c-0.35-0.97-0.71-1.95-0.98-2.95c-0.32-1.2-0.18-2.37,0.37-3.5c0.31-0.63,0.91-0.88,1.6-0.62
		c1.07,0.41,1.94,1.07,2.6,2.02c0.87,1.25,1.58,2.59,2.04,4.05c1.04,3.32,1.23,6.73,0.92,10.18c-0.03,0.38-0.39,0.72-0.18,1.15
		c0.13-0.01,0.31,0.03,0.39-0.03c0.49-0.44,0.83-0.97,0.88-1.65c0.06-0.81,0.32-1.53,0.79-2.22c1.63-2.42,2.2-5.1,1.83-7.98
		c-0.1-0.79-0.04-1.56,0.01-2.36c0.09-1.59-0.05-3.19-0.12-4.78c-0.08-1.83-0.19-3.67-0.27-5.5c-0.03-0.72,0.05-1.43,0.4-2.09
		c0.3-0.56,1.05-0.75,1.37-0.26c0.94,1.46,2.07,2.81,2.5,4.58c0.42,1.71,0.79,3.43,0.89,5.18c0.14,2.23,0.21,4.46,0.29,6.7
		c0.06,1.88-0.37,3.64-1.41,5.23c-0.43,0.67-0.84,1.36-1.28,2.02c-1.02,1.53-2.03,3.06-3.08,4.57c-0.77,1.11-1.59,2.19-2.4,3.28
		C72.87,33.96,72.38,34.58,71.84,35.28z"/>
	<path class="st0" d="M105.22,46.7c-0.15,0.17-0.22,0.22-0.24,0.28c-0.18,0.5-0.45,0.84-1.05,0.65c-0.83-0.26-1.66-0.53-2.69-0.86
		c-0.95-1.22-1.59-2.72-1.59-4.46c0-1.35-0.27-2.72,0.3-4.02c0.03-0.07,0.05-0.15,0.07-0.23c0.15-0.43,0.49-0.72,0.88-0.66
		c0.78,0.1,1.6,0.05,2.23,0.49c0.45,0.44-0.06,0.8,0.03,1.18c0.08,0.13,0.13,0.3,0.25,0.39c0.63,0.49,1.29,0.94,1.91,1.44
		c0.3,0.25,0.57,0.56,0.8,0.88c0.19,0.26,0.27,0.6,0.03,0.88c-0.29,0.34-0.36,0.65-0.15,1.07c0.39,0.77,0.53,1.65,1.12,2.36
		c0.35,0.42,0.54,0.97,0.79,1.47c0.33,0.67,0.33,0.86,0.02,1.04c-0.41,0.24-0.7,0.14-1.2-0.41c-0.27-0.3-0.51-0.61-0.79-0.9
		C105.77,47.1,105.56,46.97,105.22,46.7z"/>
	<path class="st0" d="M130.62,364.85c1.33-0.08,2.61-0.58,4-0.23c0.6,0.15,1.06-0.39,0.97-1.03c-0.04-0.31-0.1-0.63-0.18-0.94
		c-0.18-0.61-0.38-1.21-0.58-1.83c0.5-0.56,1.02,0.11,1.54-0.01c0.4-0.08,0.75-0.49,0.58-0.85c-0.24-0.5-0.5-0.99-0.77-1.48
		c-0.19-0.34-0.51-0.62-0.48-1.17c0.73-0.24,1.4-0.37,2.12,0.24c2.01,1.71,3.23,3.92,4.15,6.33c0.34,0.88-0.66,2.12-1.56,1.83
		c-1.07-0.34-2.08-0.18-3.05,0.1c-1.9,0.55-3.81,0.24-5.71,0.2C131.07,366.01,130.65,365.64,130.62,364.85z"/>
	<path class="st0" d="M73.83,77.83c-0.56,0.05-0.99,0.21-1.32,0.09c-0.75-0.27-1.45-0.61-2.25,0.41c-0.17-1.33-0.07-2.18,0.04-3.1
		c1.53-1.25,3.21-2,5.24-1.85c0.95,0.07,1.91,0.04,2.85,0.15c0.71,0.09,1.51,0.32,1.67,1.13c0.12,0.63-0.33,1.21-0.81,1.65
		c-0.29,0.27-0.69,0.44-0.93,0.74c-0.39,0.49-0.86,0.23-1.3,0.28c-0.35,0.24-0.1,0.58-0.14,0.87c-0.08,0.56-0.18,1.21-0.7,1.43
		c-0.7,0.3-1.16-0.31-1.58-0.77C74.33,78.57,74.12,78.23,73.83,77.83z"/>
	<path class="st0" d="M67.45,359.82c0.56-0.41,0.96-0.33,1.34-0.24c0.43,0.09,0.64,0.48,0.8,0.83c0.57,1.23,1.01,2.51,1.27,3.84
		c0.1,0.48-0.22,0.91-0.75,1.03c-0.54,0.12-1.07,0.31-1.71,0.15c-0.41-0.85-0.07-1.85-0.35-2.77
		C67.79,361.75,67.65,360.8,67.45,359.82z"/>
	<path class="st0" d="M93.21,74.97c-0.78,0.2-1.07-0.34-1.41-0.75c-0.34-0.41-0.26-0.92-0.17-1.36c0.05-0.25,0.4-0.46,0.66-0.65
		c0.29-0.21,0.7-0.08,0.77,0.22C93.27,73.27,93.37,74.13,93.21,74.97z"/>
	<path class="st0" d="M69.19,68.91c-0.01,0.08,0.01,0.2-0.03,0.23c-0.81,0.64-1.63,1.27-2.46,1.89c-0.1,0.07-0.33,0.08-0.42,0.01
		c-0.09-0.08-0.15-0.29-0.12-0.42c0.34-1.49,1-1.97,2.74-2.02C68.99,68.61,69.09,68.81,69.19,68.91z"/>
	<path class="st0" d="M64.49,73.37c-0.86-0.86-0.9-1.78-0.95-2.69c-0.01-0.12,0.13-0.3,0.25-0.36c0.34-0.16,0.7-0.28,1.16-0.45
		C65.01,71.08,64.58,72.1,64.49,73.37z"/>
	<path class="st0" d="M48.05,363.08c0.55,0.32,0.62,0.9,0.81,1.41c0.16,0.44,0.1,0.76-0.15,0.77c-0.23,0.01-0.49,0.01-0.69-0.09
		c-0.5-0.24-0.68-0.65-0.55-1.17C47.56,363.64,47.63,363.24,48.05,363.08z"/>
	<path class="st0" d="M62.05,58.47c-0.01,0.63,0.57,0.88,0.85,1.32c-0.01,0.37-0.26,0.52-0.55,0.61c-0.4,0.13-0.66-0.01-0.68-0.35
		c-0.04-0.56,0.11-1.07,0.44-1.52L62.05,58.47z"/>
	<path class="st0" d="M99.89,72.27c-0.5,0.02-0.88-0.21-1.17-0.59c-0.08-0.1-0.13-0.31-0.07-0.4c0.06-0.1,0.26-0.17,0.4-0.18
		c0.31-0.01,0.65,0,0.84,0.29C100.06,71.65,100.04,71.97,99.89,72.27z"/>
</g>
</svg>
