<?xml version="1.0" encoding="utf-8"?>
<!-- Generator: Adobe Illustrator 24.0.2, SVG Export Plug-In . SVG Version: 6.00 Build 0)  -->
<svg version="1.1" id="Layer_1" xmlns="http://www.w3.org/2000/svg" xmlns:xlink="http://www.w3.org/1999/xlink" x="0px" y="0px"
	 viewBox="0 0 1590.76 2244.06" style="enable-background:new 0 0 1590.76 2244.06;" xml:space="preserve">
<style type="text/css">
	.st0{fill:#1A1A1A;}
</style>
<g>
	<g>
		<path d="M781.94,1880.73c-7.18,2.74-15.73,0.04-24.01,2.04c-1.42,0.34-2.98,0.19-4.47,0.19c-13.16,0.01-26.34-0.26-39.49,0.09
			c-9.98,0.27-19.84-1.58-29.8-1.09c-0.17,0.01-0.33,0.01-0.5-0.01c-6.96-0.74-6.78-0.7-8.04,6.15c-1.74,9.45-3.89,18.83-5.63,28.28
			c-1.01,5.47-1.49,11.03-2.35,16.53c-1.27,8.1-1.46,16.32-2.85,24.41c-0.72,4.19-0.78,8.59-0.87,12.79
			c-0.16,7.63-1.4,15.16-1.35,22.8c0.05,7.1,0.48,14.19-0.71,21.33c-0.68,4.08-0.93,8.55,0.64,12.81c0.6,1.62,0.24,3.64,0.15,5.46
			c-0.68,13.96,0.61,27.89,1.32,41.78c0.57,11.11,1.57,22.29,2.63,33.42c0.36,3.77,3.42,5.48,5.11,8.21
			c1.25,2.03,3.33,0.91,4.99,0.97c18.02,0.6,32.57,7.64,43.2,22.52c2.76,3.86,5.71,7.55,7.86,11.82c1.32,2.63,3.97,4.03,6.33,5.39
			c14.21,8.19,27.26,18,39.94,28.3c9.81,7.96,18.76,16.94,27.17,26.32c5.8,6.46,11.57,13.02,17.06,20.11
			c-0.91,2.13-2.62,2.63-4.97,2.62c-18.33-0.08-36.7,0.72-54.98-0.21c-32.27-1.65-64.54-0.38-96.8-0.71
			c-7.15-0.07-13.33-3.01-19.85-4.9c-3.15-0.91-6.19-2.77-9.37-3.94c-3.76-1.39-6.63-4.17-10.66-6.39
			c2.35,8.78,6.59,16.31,8.92,24.48c-2.72,1.55-5.62,1.66-8.61,1.64c-11-0.06-22.01-0.3-32.99,0.06
			c-9.32,0.31-18.55-0.76-27.79-1.26c-10.93-0.6-21.82-2.35-32.68-3.92c-3.16-0.46-6.38-1.62-9.2-3.14
			c-6.03-3.25-12.63-5.66-17.71-10.41c-7.02-6.56-11.08-14.89-11.78-24.43c-0.71-9.73,1.59-19.27,3.38-28.77
			c2.66-14.09,5.65-28.11,8.53-42.16c2.46-11.97,5.11-23.9,7.38-35.9c1.25-6.59,2.21-13.21,2.75-19.95
			c1.47-18.27,1.02-36.55,0.65-54.8c-0.21-10.46-0.82-21.02-2.66-31.42c-0.65-3.7-0.64-7.55-0.91-11.3
			c-0.41-5.75-0.87-11.57-1.5-17.25c-0.82-7.48-0.44-14.89-0.68-22.33c-0.1-3.11,0.02-6.18,0.74-9.34
			c0.75-3.27,0.23-6.67-1.38-10.06c-3.44-7.23-5.29-15.01-6.43-22.97c-1.7-11.91-2.49-23.87-3.24-35.88
			c-0.58-9.29-0.33-18.55-0.72-27.82c-0.04-1-0.32-2.15,0.06-2.97c2.41-5.21-0.27-7.99-4.32-10.82
			c-16.89-11.76-31.65-25.96-45.82-40.78c-9.43-9.85-17.85-20.55-26-31.5c-16.67-22.38-30.32-46.51-42.19-71.67
			c-6.32-13.4-11.92-27.13-16.65-41.19c-4.31-12.8-8.4-25.66-11.44-38.82c-2.6-11.28-5.05-22.59-6.66-34.07
			c-2.04-14.5-3.75-28.99-4.22-43.68c-0.21-6.41-1.05-12.92-0.6-19.3c0.79-11.14,0.88-22.33,2.6-33.44
			c0.86-5.59,2.08-11.25,2.29-17.02c-4.96,0.51-6.97-1.76-5.73-6.22c0.48-1.72,1.1-3.4,1.74-5.07c0.58-1.51,1.27-2.98,1.92-4.5
			c-1.23-1.56-3.86-0.05-4.66-2.23c-0.73-2.01-0.02-3.81,0.62-5.72c2.34-6.99,5.93-13.4,9.07-19.87c-0.96-1.63-2.67-0.51-3.55-1.28
			c-1.65-3.96,0.74-6.82,2.79-9.05c9.24-10.05,12.47-22.62,15.8-35.27c3.93-14.96,9.03-29.56,14.27-44.11
			c4.57-12.71,9.57-25.26,14.73-37.75c3.73-9.03,7.74-17.96,11.73-26.88c7.15-15.99,15.4-31.44,22.98-47.21
			c5.16-10.74,9.7-21.79,15.27-32.33c8.77-16.59,17.67-33.12,28.1-48.77c2.16-3.23,4.07-6.65,5.87-10.1
			c3.29-6.33,2.54-12.83,0.45-19.33c-4.04-12.54-7.91-25.15-10.89-37.98c-3.24-13.96-6.54-27.91-8.72-42.13
			c-1.61-10.49-3.17-21.01-4.64-31.51c-0.65-4.67-0.82-9.57-1.4-14.25c-1.32-10.47-0.78-20.9-0.66-31.32
			c0.12-10.67,1.17-21.31,2.68-31.92c0.75-5.3,1.37-10.65,2.14-16.42c-2.74,1.05-5.03,0.9-6.96-1.36c-2.01-2.35-0.53-4.6,0.34-6.44
			c2.36-4.98,4.53-10.08,7.89-14.93c-2.7,0.01-4.34,1.83-6.32,2.37c-3.95-2.16-3.27-5.6-2.45-8.78c1.38-5.35,2.75-10.73,5.36-15.67
			c0.3-0.56,0.31-1.28-0.12-1.87c-5.58,0.9-6.65-0.25-4.6-5.5c3.63-9.3,8.33-18.11,13.82-26.4c8.63-13.02,13.9-27.12,16.17-42.54
			c1.84-12.47,3.47-24.96,5.08-37.45c1.67-12.99,3.41-25.97,4.97-38.98c0.69-5.78,2.67-11.4,3.87-17.14
			c2.4-11.47,4.84-22.93,8.01-34.22c1.45-5.17,3.01-10.3,4.54-15.44c0.41-1.4,0.96-2.61-0.47-3.96c-3.65-3.44-3.59-4.66-0.35-8.21
			c0.8-0.88,2.3-0.68,2.75-1.93c0.35-0.33,0.25-0.51-0.19-0.72c-8.45-3.89-5.42-6.08-0.42-10.09c2.03-1.63,4.21-3.09,6.27-4.69
			c0.64-0.5,1.11-1.22,1.67-1.85c-0.68-0.38-1.24-0.69-1.8-1.01c-4.09-2.34-4.1-3.16-0.13-5.9c2.42-1.67,4.61-3.8,7.23-5.03
			c9.21-4.35,14.47-12.67,20.61-20.07c1.14-1.37,2.22-2.84,3.48-4.12c9.31-9.43,18.45-19.06,29.08-27.05
			c6.79-5.09,13.76-9.94,21.18-14.11c11.85-6.65,24.15-12.41,36.27-18.51c7.38-3.71,13.17-9.25,17.09-16.41
			c3.97-7.25,3.15-18.59-2.97-26.98c-3.27-4.49-7.52-7.63-12.21-10.31c-1.78-1.02-3.14-2.19-3.65-4.16c3.7-5.6,9.87-5.42,15.27-7.12
			c-4.36-4.47-9.2-8.6-12.96-13.77c-0.97-1.34-1.85-2.73-1.1-4.02c0.93-1.62,2.92-2.4,4.73-1.77c2.78,0.97,5.68,0.92,9.03,2.1
			c-13.97-13.48-27.2-26.71-45-33.91c0.32-3.07,2.45-4.2,4.59-5.52c4.88-3.02,10.44-4.01,15.85-4.58
			c6.76-0.71,13.71-0.72,20.46,0.02c5.56,0.61,11.17,1.78,16.77,3.86c-6.76-13.54-17.01-24.2-24.55-36.69
			c-0.28-0.46,0.04-1.28,0.09-1.91c7.35-2.12,13.72,1.6,21.02,3.65c-3.17-9.17-8.75-16.99-7.06-26.65
			c-6.17-2.75-11.77-5.72-16.05-10.8c-1.54-1.83-2.46-3.49-1.97-5.76c0.35-1.61,2-2.53,6.02-3.36c-8.63-3.57-14.9-9.19-20.48-15.53
			c-4.3-4.88-8.36-9.94-10.82-16.18c-1.12-2.85-0.54-4.2,1.99-5.43c-9.96-7.85-18.34-17.05-26.53-26.51
			c-14.14-16.34-25.3-34.54-34.63-53.88c-5.73-11.87-10.4-24.27-15.89-36.25c-7.27-15.88-14.94-31.65-26.49-45.14
			c-7.68-8.97-15.34-17.96-22.52-27.35c-2.71-3.54-4.56-7.49-6.3-11.51c-0.79-1.83-0.74-3.71,0.78-5.55
			c1.59-1.93,2.96-0.17,4.4-0.26c2.22-0.14,3.79,1.73,6.65,2.12c-5.01-5.5-9.26-10.63-12.1-16.72c-0.95-2.05-1.97-4.13-2.12-6.46
			c-0.09-1.33-0.2-2.81,1.28-3.49c1.41-0.65,2.69-0.5,4.13,0.5c15.56,10.85,32.21,19.95,49,28.63
			c14.15,7.31,29.16,12.92,44.11,18.55c10.51,3.96,20.87,8.32,31.19,12.78c14.13,6.11,27.71,13.25,40.91,21.11
			c13.61,8.1,26.76,16.92,39.33,26.56c7.29,5.59,14.74,10.98,21.39,17.36c1.11,1.07,2.51,1.47,3.78,2.04
			c6.94-5.5,14.61-9.48,23.01-11.83c4.42-1.24,6.89-2.75,7.04-8.19c0.26-9.31,1.18-18.72,3-27.85c2.29-11.46,5.19-22.85,9.18-33.9
			c0.17-0.46,0.44-0.89,0.55-1.36c1.38-5.61,4.9-10.81,4.43-16.71c-0.46-5.83-3.79-11.06-4.77-16.87c-0.68-4.03-1.82-8-1.62-12.16
			c0.22-4.46,2.01-5.67,6.42-4.29c0.78,0.24,1.62,0.31,2.38,0.6c0.92,0.35,1.78,0.84,2.94,1.4c0.1-3.87-1.74-7.24-1.96-10.91
			c-0.12-2.07-0.2-4.08,1.31-5.26c1.86-1.44,4.14-0.7,6.03,0.46c1.99,1.22,3.49,2.97,4.88,4.86c3.69,5.03,7.59,9.88,11.82,14.5
			c16.07,17.55,30.95,36.02,43.19,56.52c4.35,7.29,8.67,14.59,12.58,22.14c3.31,6.4,6.21,12.98,8.21,19.86
			c0.81,2.8,2.25,4.27,4.69,4.77c15.26,3.12,29.59,8.9,43.84,14.96c4.71,2,4.67,1.85,8.21-2.68c8.18-10.47,14.47-22.11,20.77-33.73
			c10.41-19.22,19.26-39.16,27.26-59.47c4.53-11.51,7.81-23.45,11.31-35.31c0.52-1.76,1.05-3.41,1.95-4.98
			c1.9-3.33,4.88-3.57,6.72-0.18c1.53,2.83,2.9,5.99,3.29,9.13c1.51,12.13,3.32,24.36,2.01,36.56c-1.51,14.12-3.18,28.23-6.34,42.15
			c-4.34,19.12-10.7,37.55-17.68,55.79c-1.97,5.14-4.05,10.32-7.22,15.59c10.57,7.43,21.92,13.14,33.27,18.81
			c11.42,5.7,23.24,10.31,36.65,9.77c-0.18,2.34-0.34,3.46-2.51,3.99c-5.07,1.24-10.03,2.85-15.34,2.88
			c-10.84,0.08-21.69,0.43-33.07-3.59c4.98,6.89,9.51,12.49,11.63,19.87c3.86,13.39,1.6,25.55-5.29,37.2
			c-1.33,2.24-2.65,4.62-4.51,6.37c-3.46,3.25-3,7.68-4.8,11.62c9.25,1.62,18,2.51,26.5,5.01c14.77,4.35,25.58,13.56,33.81,26.24
			c8.38,12.92,11.54,27.25,9.82,42.29c-0.96,8.42-5.25,16.02-10.29,22.99c-8.43,11.66-19.35,20.23-32.43,26.45
			c0.35,5.66-2.02,10.3-4.76,15.13c-4.1,7.24-8.35,14.44-11.98,21.91c-2.92,6.01-7.64,9.03-13.51,10.25
			c-4.77,0.99-9.58,2.24-14.54,2.2c-1.01-0.01-2.17-0.07-2.64,0.99c-2.47,5.46-6.61,9.67-11.37,14.22c2.84,1.04,4.81,1.06,6.83,0.22
			c2.09-0.86,4.31-0.59,6.41-0.35c4.78,0.54,6.45,3.28,5.06,7.86c-1.68,5.55-4.15,10.63-8.56,14.58c-0.58,0.52-1.05,1.17-2.19,2.46
			c3.94,0,7.03-0.18,10.09,0.03c18.14,1.22,36.25,2.79,53.53,9c16.79,6.04,33,13.36,47.23,24.33c6.42,4.95,12.11,10.8,17.85,16.56
			c10.39,10.43,19.9,21.64,29.74,32.56c6.86,7.61,14.03,15.03,22.13,21.49c8.86,7.07,17.25,14.72,26.05,21.87
			c13.39,10.86,25.96,22.6,37.87,35.03c8.88,9.26,17.16,19.08,25.31,29.01c5.31,6.47,10.76,12.85,16.14,19.27
			c9,10.72,17.44,21.93,27.53,31.72c3.35,3.24,7,5.96,11.04,8.14c11.36,6.13,22.92,11.9,34.17,18.23
			c13.09,7.36,25.66,15.52,37.89,24.31c7.73,5.56,14.73,11.71,21.12,18.59c6.58,7.09,12.31,14.98,18.78,22.13
			c6.61,7.31,12.73,15.12,20.58,21.42c6.27,5.03,12.18,10.44,18.96,14.85c2.85,1.85,5.11,2.53,8.57,1.59
			c9.13-2.48,18.63-3.3,27.87-5.25c8.34-1.76,16.76-2.82,25.18-3.81c6.02-0.71,11.59,1.63,16.95,4.08
			c15.03,6.87,29.74,14.41,44.53,21.78c3.79,1.89,8.02,3.05,11.53,5.34c10.27,6.7,17.98,15.19,17.49,28.59
			c-0.06,1.53,0.1,3.13-1.54,3.9c-1.58,0.74-3.13-0.31-4.07-1.17c-2.56-2.36-4.78-5.09-7.3-7.86c-5.83,4.94-11.47,8.56-18.72,9.77
			c-4.35,0.72-8.29-0.16-12.07-1.06c-7.66-1.84-14.51-5.85-20.37-11.16c-2.71-2.46-5.7-3.9-9.15-4.22c-2.1-0.19-3.69-1.21-5.61-2.03
			c-1.65,0.21-2.35,2.16-4.31,2.46c6.15,10.98,12.76,21.49,17.77,32.82c3.25,7.34,6.69,14.5,11.11,21.22
			c1.54,2.34,3.31,4.06,5.7,5.2c8.31,3.97,16.47,8.15,22.84,15.05c1.2,1.3,2.66,1.43,4.11,1.03c8.76-2.39,16.13,1.01,22.75,6.02
			c2.85,2.15,4.96,2.38,8.02,1.14c6.25-2.54,12-5.85,17.33-9.97c2.51-1.94,4.11-1.08,4.5,2.17c1.13,9.45-2.4,17.32-8.18,24.45
			c-3,3.7-6.11,7.16-9.91,10.21c-3.71,2.97-7.48,5.79-11.62,8.21c2.14,1.93,2.13,1.9,4.28,1c4.76-2,8.38-5.66,12.4-8.7
			c2.41-1.82,5.26-3.34,6.48-6.51c3.73,1.13,3.11,4.61,3.33,6.64c1.36,12.84-2.73,24.03-11.96,33.05
			c-6.01,5.87-13.8,8.76-21.85,10.31c-9.78,1.88-19.69,1.72-29.57,0.19c-2.74-0.42-5.48-0.14-8.18,1.21
			c-8.99,4.47-18.55,6.52-28.6,5.68c-6.38-0.53-11.79-3.73-17.03-7.02c-2.92-1.84-5.39-2.91-8.78-1.04
			c-7.8,4.3-15.72,1.24-23.48-0.32c-11.68-2.35-22.95-6.21-33.85-10.93c-10.75-4.65-17.03-13.5-21.52-24.11
			c-8.51-20.13-15.23-40.86-22.02-61.59c-1.52-4.64-3.63-9.07-5.2-13.69c-2.03-5.97-6.91-8.47-12.32-9.1
			c-22.58-2.63-43.83-9.8-64.71-18.25c-27.37-11.08-52.56-26.15-76.96-42.64c-14.33-9.69-29.04-18.76-44.46-26.67
			c-11.64-5.97-22.17-13.74-32.69-21.5c-8.8-6.49-17.88-12.61-26.66-19.13c-8.57-6.36-16.89-13.02-24.82-20.22
			c-5.15-4.68-10.24-9.41-15.15-14.34c-0.97-0.97-1.94-1.87-3.63-0.95c-0.36,2.7,2.08,4.17,3.08,6.24c2.42,5.01,2.25,5.77-2.99,7.86
			c2.76,4.03,5.6,8.02,6.51,13.01c-2.52,2.76-5.43,1.16-8.4,0.66c0.53,2.99,1.99,5.64,1.53,8.6c-0.2,1.28,0.55,2.12,1.29,3.07
			c10.81,13.79,20.03,28.56,28.24,44.05c11.54,21.8,20.68,44.56,27.9,68.09c4.64,15.1,8.48,30.42,10.67,46.14
			c1.1,7.96,2.07,15.91,2.96,23.89c1.27,11.34,2.37,22.71,1.84,34.1c-0.57,12.11-1.95,24.14-4.44,36.06
			c-2.91,13.92-7.19,27.37-12.49,40.53c-0.12,0.3-0.11,0.7-0.3,0.93c-4.46,5.26-2.5,10.07,0.24,15.49
			c8.71,17.2,14.62,35.52,19.97,53.98c4.35,15,7.96,30.2,11.31,45.48c2.79,12.74,5.39,25.52,7.59,38.35
			c1.68,9.82,3.02,19.73,4.38,29.62c1.41,10.23,2.13,20.52,3.67,30.73c0.68,4.52,0.61,9.18,1.08,13.79
			c1.56,15.39,1.06,30.85,1.09,46.29c0.02,7.67-0.26,15.34,0.07,22.99c0.38,8.82-0.84,17.54-1.29,26.29
			c-0.52,10.14-1.69,20.29-2.91,30.4c-1.12,9.29-1.7,18.65-3,27.89c-2.46,17.47-4.45,35.01-7.72,52.38
			c-2.3,12.17-4.79,24.32-6.94,36.51c-3.35,18.99-8.73,37.4-14.53,55.72c-4.09,12.92-11.34,24.25-19.18,35.07
			c-6.63,9.15-11.98,19.06-18.43,28.3c-12.9,18.48-24.34,37.88-35.02,57.73c-3.68,6.85-7.49,13.62-11.7,21.25
			c4.19-0.71,6.98-2.42,9.77-3.71c18.65-8.63,37.46-16.88,56.55-24.44c21.77-8.62,43.56-17.15,66.32-23.11
			c13.37-3.51,26.69-7.25,40.18-10.27c10.02-2.25,20.19-3.86,30.33-5.56c10.03-1.68,20.21-2.02,30.2-3.89
			c0.32-0.06,0.67-0.04,1-0.02c10.79,0.44,21.51-1.82,32.3-0.98c11.8,0.93,23.63,1.37,35.42,2.79c21.51,2.58,42.28,7.78,62.59,15.13
			c14.77,5.34,28.74,12.23,42.11,20.52c13.91,8.63,26.82,18.47,38,30.33c10.57,11.21,19.7,23.55,26.96,37.29
			c7.43,14.06,13.08,28.75,16.44,44.22c1.63,7.48,2.7,15.11,3.61,22.76c1.5,12.62,1.02,25.24,0.62,37.81
			c-0.34,10.92-1.47,21.88-3.48,32.74c-2.2,11.87-4.97,23.62-7.07,35.48c-1.57,8.87-2.12,17.95-0.45,27.09
			c0.99,5.44,1.07,11,2.97,16.34c1.12,3.15-2.28,5.96-5.66,4.96c-7.23-2.12-12.64-6.71-17.12-12.61c-2.75-3.61-4.69-7.72-7.64-12.45
			c-1.23,11.3-4.87,20.8-10.4,29.4c-5.98,9.31-13.94,16.73-23.56,22.43c-10.92,6.47-22.72,10.94-35,13.17
			c-7.82,1.43-14.48,4.63-21.29,8c-14.85,7.34-30.45,12.43-46.7,15.44c-10.84,2.01-21.84,3.39-32.87,2.94
			c-8.82-0.35-17.62-1.41-26.42-2.62c-21.6-2.97-42.13-9.93-62.97-15.74c-16.31-4.54-32.6-9.24-49.24-12.29
			c-13.34-2.45-26.79-4.38-40.41-5.47c-15.88-1.26-31.73-1.89-47.62-1.68c-5.03,0.07-10.05,0.98-14.86,1.48
			c9-11.01,66.94-49.94,98.61-54.93c-6.87-3.09-13.91-4.98-20.3-8.5c-10.77-5.93-21.22-12.26-30.36-20.6
			c-2.3-2.1-4.9-3.87-7.08-6.15c-0.93-0.97-1.63-2.02-2.26-3.2c-0.44-0.84-0.61-1.43,0.02-2.21c0.73-0.88,1.36-0.36,2.1-0.05
			c2.55,1.06,5.08,2.18,7.69,3.08c10.94,3.77,22.11,7.29,33.5,8.61c10.02,1.17,20.28,2.92,30.59,0.59c4.43-1,9.17-0.53,13.78-0.99
			c9.82-0.98,19.34-3.16,28.77-5.75c19.02-5.22,36.37-14.17,53.37-24.02c9.03-5.23,18.1-10.43,27.32-15.36
			c6.46-3.45,12.94-6.89,20.36-10.84c-8.33-0.33-15.57-1.55-22.49-4.21c-6.34-2.43-12.04-5.89-16.85-10.73
			c-1.07-1.08-2.26-2.07-1.41-3.97c4.59-1,9.37,0.17,14.13-1.17c15.73-4.45,29.25-11.89,36.81-27.07
			c5.31-10.66,5.37-21.74,0.41-32.73c-5.63-12.46-15.63-20.78-26.53-28.26c-12.6-8.64-26.8-13.08-41.62-16.13
			c-15.76-3.24-31.64-4.75-47.67-3.82c-7.99,0.46-15.97,1.67-23.87,3.05c-8.67,1.51-17.34,3.02-25.98,4.75
			c-14.23,2.85-28.29,6.38-42.22,10.29c-27.26,7.65-54.09,16.68-81.05,25.32c-17.02,5.46-34.43,9.74-51.69,14.42
			c-1.62,0.44-2.49,0.89-3.09,2.58c-5.19,14.73-10.75,29.35-14.42,44.56c-1.34,5.54-2.29,11.31-2.36,16.99
			c-0.09,6.8-1.58,13.47-1.2,20.3c1.12,19.75,4.71,38.83,13.57,56.76c8.85,17.89,18.92,35.02,29.73,51.79
			c11.41,17.69,23.32,35.04,34.82,52.67c2.84,4.36,5.55,8.81,8.38,13.33c3.7-0.14,6.23-2.9,9.69-3.83c1.4,0.55,2.37,1.84,3.14,3.24
			c6.73-1.02,7.04-0.82,8.64,5.63c5.63,0,11.29-0.11,16.95,0.03c8.14,0.2,15.87,1.89,22.64,6.8c3.8,2.76,8.38,3.27,12.79,4.38
			c9.82,2.47,18.97,6.82,28.28,10.69c11.02,4.58,21.87,9.54,32.38,15.16c17.85,9.53,35.49,19.49,51.8,31.54
			c2.75,2.04,6.18,3.69,7.76,7.38c1.93,4.51,0.89,7.42-3.85,8.7c-0.94,0.26-1.97,0.32-2.95,0.32c-19.1-0.01-38.21,0.71-57.28,1.32
			c-16.92,0.55-33.85,0.12-52.03,0.88c10.2,7.78,18.84,15.83,26.59,24.54c-1.03,2.77-3.05,2.24-4.79,2.25
			c-6.67,0.03-13.34,0.25-20-0.02c-54.74-2.22-109.5-0.07-164.23-1.24c-8.12-0.17-16.47,0.35-24.59-1.58
			c-9.31-2.21-15.97-8.08-21.44-15.45c-7.36-9.94-11.87-21.43-16.8-32.63c-2.69-6.1-5.29-12.26-7.96-18.37
			c-9.95-22.8-21.99-44.46-35.38-65.42c-12.03-18.83-24.13-37.63-35.54-56.84c-8.57-14.42-17.1-29.01-21.3-45.51
			c-1.97-7.72-6.29-14.22-9.97-21.09c-5.57-10.37-10.76-20.95-15.42-31.76c-5.16-11.96-9.84-24.1-13.87-36.5
			C784.67,1885.4,785.22,1882.75,781.94,1880.73z M867.02,1304.18c-2.27,7.27-2.61,14.41-4.2,21.31
			c-4.95,21.41-9.97,42.78-16.78,63.69c-4.39,13.46-9.19,26.78-14.02,40.08c-4.78,13.16-10.09,26.11-15.42,39.05
			c-4.14,10.07-8.86,19.9-11.48,30.59c-2.56,10.43-5.87,20.64-7.71,31.28c-1.47,8.54-2.85,17.06-3.95,25.66
			c-0.92,7.13-1.95,14.29-2.63,21.43c-0.91,9.48-1.93,18.97-3.41,28.33c-2.21,13.97-5.03,27.85-8.58,41.61
			c-6.55,25.34-15.81,49.61-26.98,73.2c-4.2,8.87-8.99,17.42-13.93,25.89c-6.48,11.13-13.18,22.15-19.41,33.42
			c-4.7,8.5-9.7,16.88-13.81,26.59c45.02,7.65,89.66,8.98,134.69,2.36c0.87-3.78-0.58-7.32-1.02-10.77
			c-1.33-10.23-2.61-20.45-3.81-30.7c-0.54-4.6-0.44-9.26-1.09-13.79c-1.71-11.93-2.28-23.97-2.61-35.92
			c-0.42-15.23-0.95-30.52,0.59-45.8c0.73-7.19,1.18-14.49,2.44-21.53c2.23-12.47,4.99-24.85,8.51-37.1
			c5.64-19.6,13.76-37.94,24.71-55.08c7.14-11.19,15.59-21.42,23.9-31.71c11.05-13.69,13.67-29.07,10.59-45.82
			c-1.44-7.84-3.37-15.6-4.97-23.42c-2.02-9.9-4.05-19.79-5.86-29.73c-1.55-8.52-2.8-17.09-4.14-25.64
			c-1.2-7.6-2.13-15.24-3.24-22.85c-1.13-7.79-1.89-15.6-2.87-23.4c-0.89-7.11-0.35-14.25-1.08-21.29
			c-0.41-3.93-0.6-8.11-2.72-11.83C873.43,1316.5,870.41,1310.54,867.02,1304.18z M527.25,1695.38c0.21-14.12,0.48-28.11,2.34-42.05
			c1.19-8.92,2.66-17.77,4.71-26.5c4.25-18.09,10.38-35.57,17.22-52.85c8.74-22.09,17.18-44.31,26.1-66.33
			c4.13-10.19,7.65-20.61,6.18-32.16c-1.29-10.09-2.07-20.26-3.02-30.39c-1.23-13.15-1.29-26.4-1.97-39.6
			c-0.73-14.2,0.78-28.41,1.67-42.6c0.34-5.43,0.85-10.87,1.33-16.27c0.39-4.37,0.53-8.81,1.56-13.16c0.7-2.96,2.02-7.02,0.68-8.96
			c-2.37-3.46-5.24-6.98-9.79-8.69c-9.28-3.49-18.86-6.22-27.86-10.87c-2.93,2.73-5.44,5.73-8.04,8.71
			c-6.8,7.79-12.94,16.07-18.7,24.62c-10.62,15.74-19.46,32.47-26.62,50.04c-5.7,14.02-10.58,28.34-14.39,43
			c-4.48,17.23-8.21,34.56-10.24,52.31c-1.12,9.8-2.07,19.64-2.55,29.43c-0.89,18-0.03,35.99,2.69,53.9
			c2.03,13.42,4.88,26.59,8.93,39.51c7.13,22.74,17.8,43.79,30.86,63.66C514.1,1678.85,520.11,1687.38,527.25,1695.38z
			 M615.72,952.31c3.08-0.48,5.38-0.1,7.72,1.06c4.54,2.25,9.41,3.65,14.36,4.59c3.2,0.61,7.79-0.86,7.86-4.57
			c0.13-7.24,1.87-14.27,2.97-21.38c2.14-13.88,4.83-27.69,9.69-40.82c4.38-11.87,5.93-24.32,9.26-36.38
			c0.33-1.19,0.57-2.79-0.57-3.78c-1.61-1.38-3.41-2.52-3.33-5.01c0.07-2.25,1.7-3.74,2.69-5.54c-1.53-2.24-4.88-3.55-3.36-7.13
			c1.09-2.57,3.05-4.39,5.31-5.85c-1.36-2.27-4.06-3.25-4.61-5.92c-0.64-3.09,1.37-4.68,3.7-6.11
			c-17.08-15.81-27.02-35.83-34.82-57.54c-0.74,1.12-1.27,1.7-1.55,2.39c-4.29,10.56-8.78,21.04-12.76,31.72
			c-6.89,18.48-11.92,37.34-11.66,57.36c0.28,21.33-0.12,42.66,0.16,63.99c0.11,8.21,0.96,16.31,0.17,24.63
			c-0.9,9.49-1.13,19.06-2.15,28.58c-0.94,8.74-2.69,17.35-3.89,26.86c4.51-5.83,8.89-10.86,14.7-14.04
			c-0.28-2.25-2.23-2.17-3.25-3.16c-1.56-1.52-3.5-2.98-2.52-5.46c0.89-2.25,2.88-2.95,5.3-2.77c2.33,0.17,4.68,0.04,7.61,0.04
			C618.61,962.86,613.49,959.12,615.72,952.31z M820.18,1877.3c6.37,8,12.8,15.01,20.07,21.48c3.76-7.95,3.97-16.23,5.43-24.95
			C837.09,1875.25,829,1876.49,820.18,1877.3z"/>
		<path d="M1011.59,2218.13c13.35,0,26.7,0,40.05,0c0,0.17,0,0.33,0,0.5c-13.29,0-26.57,0-39.86,0
			C1011.72,2218.47,1011.66,2218.3,1011.59,2218.13z"/>
	</g>
	<g>
		<path class="st0" d="M1518.22,1950.41c-2.45-2.3-1.17-5.72-4.23-8.63c1.95,7.83,2.12,14.83,1.4,21.66
			c-0.77,7.36-0.97,14.78-1.37,22.12c-0.26,4.87-0.01,10.16,0.91,15.19c0.6,3.31,1.57,6.58,1.41,10.23
			c-4.63-0.4-7.65-3.31-10.09-6.08c-8.19-9.3-13.61-20.29-17.58-31.97c-0.64-1.88-1.34-3.61-2.92-5.65
			c-0.15,2.82,0.01,4.95,0.54,7.36c2.48,11.31,1.83,22.45-2.69,33.31c-3.71,8.92-8.8,16.92-15.98,23.28
			c-9.67,8.57-21.17,14.02-33.51,17.68c-2.93,0.87-5.69,2.75-9.65,1.63c20.32-14.4,35.95-32.1,43.89-55.72
			c-2.47,2.65-4.21,5.79-5.75,9.04c-1.55,3.26-3.52,6.24-5.55,9.22c-8.55,12.51-19.13,22.97-31.36,31.87
			c-8.47,6.17-17.4,11.57-26.77,16.18c-14.69,7.24-30.2,12.07-46.36,14.86c-7.16,1.23-14.43,1.27-21.56,2.2
			c-7.84,1.03-15.43-0.43-23.12-0.49c-6.5-0.05-13.15-1.19-20.24-3.44c26.64-1.98,48.3-12.84,66.31-31.34
			c-2.87,1.93-5.83,3.73-8.6,5.8c-11.65,8.72-24.58,14.51-38.64,18.34c-12.04,3.28-24.19,3.07-36.38,2.77
			c-6.35-0.16-12.49-2.28-18.6-3.99c-8.46-2.36-16.84-4.95-25.23-7.56c-0.66-0.2-1.73,0.02-2.11-1.17
			c31.49,0.85,57.98-12.06,82.76-29.6c-5.77,2.37-11.27,5.44-16.66,8.59c-5.41,3.16-11.16,5.4-16.88,7.67
			c-11.06,4.4-22.61,7.38-34.39,9.04c-15.45,2.18-30.72,1.27-45.81-3.35c-8.41-2.57-17.27-3.42-26.01-4.65
			c-7.63-1.07-15.29-2.02-22.93-2.66c-8.21-0.68-16.48-2.04-24.78-1.17c-4.37,0.46-8.48-1.11-12.8-1.14
			c-4.15-0.03-8.09,2.04-12.65,0.78c4.72-4.07,9.87-7.26,14.85-10.67c11.86-8.12,24.18-15.49,36.95-22.07
			c12.52-6.45,25.68-11.2,39.53-13.76c3.54-0.66,7.39-0.58,10.96-0.01c14.67,2.35,28.64-0.45,42.45-5.01
			c0.29-0.09,0.52-0.36,1.68-1.21c-10.37,1.04-19.7,2.98-29.19,3.1c-9.77,0.12-19.28-1.72-28.78-3.54
			c-9.54-1.83-18.1-6.41-26.69-10.73c-8.63-4.34-16.23-10.25-24.06-15.95c1.9-2,3.58-0.03,4.79,0.42
			c9.45,3.51,19.27,4.69,29.19,5.95c8.64,1.1,17.25,1.1,25.81,0.7c21.33-0.99,42.16-4.96,62.05-12.95
			c16.55-6.65,31.87-15.69,47.27-24.59c11.59-6.7,23.07-13.65,35.27-19.24c7.7-3.53,15.65-6.51,23.28-10.17
			c7.21-3.45,13.22-8.56,17.62-15.32c0.51-0.78,1.68-1.73,0.81-3.58c-12.21,12.74-26.6,20.55-44.56,19.95
			c-11.23-0.37-22.34-4.46-29.45-10.53c10.56-1.68,20.81-4.21,29.32-10.81c10.48-8.12,19.52-17.62,26.43-29.1
			c4.59-7.62,8.27-15.54,10.08-24.24c1.26-6.04,2.32-12.15,0.05-18.83c-0.77,8.51-1.24,16.56-4.52,24.06
			c-3.2,7.3-6.42,14.59-11.66,21.92c0.72-4.13,1.71-7.34,1.76-10.55c0.13-8.68-2.07-16.78-6.73-24.21
			c-12.2-19.43-30.06-31.05-51.6-37.65c-10.78-3.3-21.79-5.43-32.94-7.07c-8.17-1.2-16.36-2.35-24.59-1.86
			c-8.66,0.52-17.3,1.47-25.92,2.67c-9.56,1.33-19.13,2.59-28.63,4.29c-10.9,1.95-21.64,4.69-32.37,7.39
			c-31.91,8.03-62.83,19.26-94.26,28.85c-14.1,4.3-28.22,8.91-42.76,11.82c-2.82,0.56-5.49,1.86-8.91,3.06
			c3.27-8.1,6.11-15.75,9.41-23.19c5.3-11.93,10.42-23.94,16.18-35.67c1.84-3.74,4.33-5.96,7.84-7.08c11.4-3.6,21.81-9.48,32.8-14
			c16.11-6.63,32.14-13.43,48.42-19.65c14.75-5.64,29.56-11.07,44.63-15.81c11.99-3.77,24.26-6.22,36.53-8.77
			c10.36-2.16,20.69-4.49,31.08-6.49c5.78-1.11,11.69-1.5,17.48-2.54c8.42-1.51,17.01-1.24,25.41-2.85c1.29-0.25,2.66-0.1,3.99-0.1
			c12.05-0.01,24.09,0.01,36.14-0.01c11.71-0.02,23.16,2.09,34.7,3.8c16.05,2.38,31.52,6.69,46.76,12.07
			c21.69,7.66,41.76,18.25,60.15,32.19c9.85,7.47,18.63,16.06,26.72,25.18c12.41,14,21.81,30.02,28.68,47.58
			c5.14,13.15,8.24,26.77,10.62,40.55c0.8,4.61,1.19,9.46,1.4,14.26c0.25,5.59,1.34,11.21,0.76,16.8
			c-1.01,9.8-1.72,19.63-2.59,29.43C1522.89,1928.16,1520.15,1939.07,1518.22,1950.41z M1455,1837.54
			c0.34,7.66,3.65,14.37,6.98,21.06C1461.39,1851.03,1459.34,1843.94,1455,1837.54z M1185.98,1748.65
			c-3.19-1.37-5.43-0.25-7.01,1.59c-1.94,2.26-5.76,3.47-4.89,8.84C1177.57,1754.35,1182.8,1753.07,1185.98,1748.65z
			 M1161.8,1760.25c5.57-2.22,9.01-5.23,12.05-10.34C1167.01,1750.7,1164.66,1755.79,1161.8,1760.25z M1451.36,1868.23
			c0.39-6.47,0.45-11.82-2.2-16.77C1448.05,1856.97,1449.03,1862.16,1451.36,1868.23z M1132.06,1771.57c3.06-2.5,5.4-4.55,7.29-7.39
			C1133.52,1764.33,1132.07,1765.7,1132.06,1771.57z"/>
		<path class="st0" d="M496.78,1814.76c-5.91-4.48-11.04-7.95-15.69-11.98c-7.49-6.49-15.04-12.89-22.1-19.89
			c-18.28-18.14-34.24-38.13-48.25-59.69c-10.42-16.04-19.81-32.71-27.92-50.02c-8.36-17.84-15.71-36.14-21.51-55
			c-5.12-16.66-9.51-33.54-12.45-50.71c-1.85-10.79-3.24-21.69-4.43-32.62c-1.89-17.38-2.23-34.77-1.5-52.11
			c0.45-10.73,1.32-21.58,3.6-32.23c0.71-3.32,0.35-6.86,2.84-9.91c-2.43-2.08-4.96-0.02-7.69-0.19
			c1.59-7.66,4.69-14.34,11.26-18.86c-2-4.07-3.9-1.57-5.75-0.69c-2.01,0.96-4.03,1.88-6.69,3.13c3.83-10.36,7.6-20.02,14.78-28.07
			c-0.31-0.28-0.62-0.56-0.93-0.85c-2.44,0.46-4.88,0.93-7.69,1.46c2.5-5.81,7.22-9.67,10-14.94c5.23-9.93,7.86-20.68,11.01-31.28
			c3.85-12.96,8.17-25.76,12.73-38.47c4.12-11.48,8.73-22.8,13.3-34.11c3.35-8.31,6.92-16.53,10.53-24.73
			c11.74-26.66,25.73-52.24,38.12-78.58c7.04-14.97,15.26-29.19,23.38-43.52c0.63-1.12,1.55-2.07,2.6-3.45
			c1.05,3.03-0.57,5.54-0.97,8c-1.51,9.37-2.87,18.73-3.84,28.2c-1.52,14.95-0.42,29.88-0.82,44.81c-0.22,8.11,1.44,16.14,1.11,24.3
			c-0.13,3.34,1.48,6.69,3.08,9.68c2,3.74,4.26,7.34,6.07,11.2c2.14,4.57,6.32,7.1,10.51,9.24c4.23,2.16,8.16,4.85,12.48,6.79
			c4.23,1.89,7.03,5.14,9.87,8.64c3.77,4.63,8.23,8.66,12.64,12.72c6.05,5.55,13.26,8.83,20.91,11.37c0.53,0.18,0.89,0.89,1.49,1.53
			c-2.9,3.96-6.49,7.14-9.55,10.77c-8.79,10.42-16.51,21.56-23.54,33.17c-12.46,20.59-21.92,42.56-29.22,65.5
			c-5.64,17.73-10.05,35.71-12.93,54.1c-1.83,11.68-3.12,23.38-4.16,35.17c-1.22,13.81-1.21,27.61-0.53,41.3
			c0.95,19.08,3.96,37.96,9.33,56.46c5.22,17.96,12.13,35.16,20.98,51.54c7.76,14.37,16.79,27.99,26.81,40.91
			c2.81,3.63,5.95,7.02,8.59,10.76c1.69,2.41,2.11,5.42,2.03,8.4c-0.28,11.09,1.28,22.08,2.16,33.09
			c0.91,11.42,2.22,22.87,4.02,34.17c2.2,13.83,4.44,27.68,7.49,41.39c1.47,6.62,0.25,13.43-2.05,20.01
			c-5.93-3.12-11.91-6.12-17.73-9.42c-1.73-0.98-3.02-2.58-4.07-4.58c-4.04-7.65-8.52-15.06-12.77-22.59
			c-1.05-1.85-2.2-3.34-4.57-3.05c-2.53,0.31-2.97,2.53-3.35,4.33C497.22,1808.04,496.2,1810.7,496.78,1814.76z M407.5,1402.2
			c-5.45-0.79-7.21,4.07-10.02,6.78c-2.31,2.22-5.12,4.86-4.37,9.16C398.22,1414.69,407,1405.03,407.5,1402.2z M395.63,1432.97
			c2.24-4.92,8.07-7.64,8.46-13.68C399.22,1422.55,395.03,1426.23,395.63,1432.97z M392.22,1504.3c1.42-5.76,3.95-11.18,5.68-17.35
			C392.84,1488.51,391.22,1493.83,392.22,1504.3z"/>
		<path class="st0" d="M741.93,334.29c-0.74-11.26-2.46-21.25-4.01-31.29c-1.74-11.21-3.44-22.62-2.18-34.04
			c1-9.08,3.23-17.94,6.83-26.4c1.58-3.71,2.37-7.7,3.93-11.44c-8.58,11.74-12.45,25.32-15.28,40.29
			c-2.07-10.19-3.98-19.32-3.6-28.78c0.47-11.55,2.77-22.72,7.09-33.38c4.33-10.7,8.92-21.31,14.74-31.46
			c-1.71,0.52-3.1,1.65-3.66,3.13c-0.74,1.95-2.56,2.92-3.49,4.74c-0.76,1.49-1.51,3.32-3.33,4.39
			c-8.76-14.98-21.16-26.76-34.39-38.26c3.83-3.05,8.02-4.88,12.14-6.5c7.1-2.79,14.1-5.85,21.26-8.52
			c7.48-2.79,14.88-3.78,22.66-3.59c1.66,0.04,3.33,0.01,5.1-0.38c-2.76-2.02-6.12-2.32-9.85-2.96c5.9-2.69,11.81-3.17,17.48-4.4
			c9.3-2.01,18.86-2.93,28.34-3.09c10.81-0.19,21.54,1.74,32.16,3.86c10.85,2.17,21.75,4.17,32.19,7.98
			c8.52,3.11,17.01,6.31,25.98,9.64c-8.78,12.22-17.4,24.08-27.2,36.01c-6.76-8.1-13.23-15.97-23.04-20.02
			c2.03,2.04,4.05,4.09,6.1,6.11c12.41,12.24,20.85,26.9,25.29,43.63c2.13,8.02,3.66,16.32,3.47,24.77
			c-0.14,6.16,0.14,12.33-0.06,18.49c-0.4,12.15-2.57,24.04-5.73,35.75c-1.18,4.39-2.45,8.76-3.67,13.14
			c-1.69-0.52-1.62-1.88-1.55-3.17c0.71-12.79-1.55-25.5-1.02-38.29c0.57-13.72-1.45-27.1-5.64-40.2
			c0.73,12.09,2.95,24.09,2.18,36.35c-6.9-25.53-19.29-49.25-24.07-76.1c-3.58,33.58-23.33,61.92-51.84,84.57
			c3.97-7.6,8.09-15.24,10.13-23.52c2.03-8.21,4.81-16.61,1.84-25.31c-0.33,6.62-1.55,12.97-3.39,19.36
			c-2.62,9.05-6.75,17.29-11.32,25.39c-8.12,14.38-15.47,29.16-18.64,45.46c-1.65,8.51-2.48,17.27-2.26,26.05
			c0.16,6.32,0.03,12.65,0.03,19.64c-4.85-6.16-6.32-13.02-7.92-19.7c-3.71-15.48-4.84-31.26-4.04-47.13
			c0.7-13.91,2.86-27.64,6.54-41.09c3.01-11.02,6.76-21.77,12.02-31.94c0.45-0.87,0.32-1.55,0.07-2.59
			c-5.05,6.42-7.56,13.88-10.58,21.03c-3.68,8.7-6.54,17.7-8.26,27.04c-1.72,9.34-3.86,18.6-3.83,28.18
			c0.03,10.33-0.06,20.66,0.03,30.99C745.72,322.53,744.39,327.98,741.93,334.29z M776.5,176.23c-4.51,3.88-7.63,10.34-7.14,14.76
			C772.68,186.58,775.5,182.2,776.5,176.23z M790.47,180.95c2.98-4.66,2.27-9.6,1.21-14.58
			C790.78,171.19,788.82,175.88,790.47,180.95z M785.29,170.19c-3.44,5.77-3.94,8-3.32,14.11
			C784.43,179.91,786.48,175.72,785.29,170.19z"/>
		<path class="st0" d="M702.66,1811c23.24,4.97,46.05,6.62,68.85,6.76c22.87,0.14,45.8-0.65,68.7-4.96
			c0.7,6.28,1.52,12.27,2.57,18.18c1.83,10.26,1.03,20.69,2.8,30.92c0.28,1.62,0.03,3.33,0.04,4.99c0.02,2.06-1.02,2.85-3.05,3.09
			c-7.47,0.89-14.95,1.78-22.36,3c-4.56,0.75-6.96-2.24-8.93-5.07c-3.42-4.92-7.91-8.85-11.81-13.27
			c-5.03-5.69-9.88-11.62-15.46-16.82c-1.98-1.84-4.2-3.9-6.92-2.46c-2.57,1.36-2.85,4.38-2.39,7.06
			c1.89,11.06,3.71,22.15,7.05,33.65c-34.44,2.53-68.57,2.85-102.79-0.08C685.25,1853.48,692.35,1831.71,702.66,1811z"/>
		<path class="st0" d="M670.84,2192.23c17.99-1.32,35.46,0.36,52.85,3.6c-16.43-5.88-33.42-7.7-51.22-6.8
			c2.84-7.54,6.78-13.66,11.14-19.53c4.73-6.37,9.92-12.33,15.72-17.77c3.23-3.03,6.42-3.63,10.7-2.01
			c10.75,4.07,20.6,9.78,30.11,16.17c13.63,9.15,26.51,19.19,38.59,30.37c5.47,5.06,11.15,9.96,16.05,15.52
			c5.15,5.85,11.32,10.99,14.78,17.94c-0.3,1.24-1.12,1.29-1.65,1.14c-6.02-1.69-12.17-0.87-18.26-0.9
			c-12.93-0.08-25.87-0.6-38.75-1.28c-27.76-1.47-55.49-0.17-83.22-0.76c-1.8-0.04-3.61,0-5.95,0
			C661.19,2214.77,666.18,2203.49,670.84,2192.23z"/>
		<path class="st0" d="M1054.25,2178.4c-10.06-3.39-20.1-4.86-30.83-4.53c1.98-5.23,4.89-9.2,7.15-13.49
			c3.12-5.91,6.92-11.44,10.96-16.74c5.97-7.85,11.23-8.88,21.27-6.21c9.81,2.61,18.25,7.89,26.67,13.07
			c11.23,6.91,22.36,14.05,33.04,21.81c10.32,7.49,20.74,14.83,30.4,23.22c5.15,4.48,10.46,8.79,16.16,13.49
			c-2.89,1.5-5.7,1.32-7.97,0.7c-3.47-0.95-6.89-0.77-10.33-0.79c-10.49-0.06-21.01,0.54-31.46-0.13
			c-26.07-1.67-52.16-0.1-78.21-1.1c-8.26-0.32-16.52-0.64-24.78-0.75c-2.86-0.04-3.81-1.25-3.72-3.95
			c0.2-6.38,3.05-11.93,5.28-17.68c0.47-1.21,1.31-2.3,1.67-3.54c2.12-7.27,4.74-6.44,10.03-5.6c5.37,0.85,10.77,0.86,16.13,1.57
			C1048.37,2178.1,1051.02,2179.92,1054.25,2178.4z"/>
		<path class="st0" d="M632.28,971.07c-4.39-4.55-9.46-8.03-12.61-14.47c8.31,3.09,15.92,6.76,24.98,5.31
			c-1.48,8.72,0.09,16.7,0.9,24.76c0.83,8.21,3.74,15.83,5.58,24.11c-1.63,0.96-5.23-0.86-5.43,2.88c-0.12,2.27-0.32,4.58,0.94,6.58
			c-6.72,5.16-9.46,8.3-3.11,12.54c-15.77,28.66-23.89,59.85-30.09,91.84c-1.95-1.77-1.9-4.09-2.87-5.95
			c-4.17-7.96-9.43-14.9-16.88-20.21c-5.73-4.09-10.71-9.16-15.38-14.41c-3.38-3.79-2.26-8.56-1.16-12.94
			c3.34-13.27,8.75-25.87,12.96-38.86c3.11-9.6,5.95-19.26,8.44-29.02c0.41-1.6,1.13-2.63,2.15-3.72
			c6.48-6.94,13.07-13.73,21.39-18.56c1.04-0.6,1.79-1.51,1.36-3.32c-2.91-0.94-5.77-2.56-9.02-5.3
			C620.85,971.66,626.56,972.59,632.28,971.07z"/>
		<path class="st0" d="M519.82,2230.01c3.44-11.05,7.81-21.03,12.81-30.73c0.96-1.86,2.21-3.58,3.26-5.25
			c10.23,2.86,18.77,8.64,28.53,13.19c-1.18-3.26-3.84-3.91-5.8-5.25c-2.27-1.56-4.92-2.57-7.17-4.16
			c-2.16-1.52-4.57-2.56-6.77-3.94c-2.2-1.39-5.1-1.34-7.16-3.77c6.44-9.7,12.29-19.82,20.01-28.79c3.4-3.96,7.01-7.14,11.56-9.53
			c2.29-1.2,3.74-0.83,5.74,0.69c11.15,8.45,17.85,20.3,24.66,32.02c7.37,12.71,13.59,26.02,19.18,39.6c1.91,4.64,3.38,9.47,4.97,14
			c-0.96,1.88-2.45,1.84-3.98,1.83c-10.32-0.02-20.7,0.72-30.94-0.2c-11.29-1.01-22.63-1.05-33.9-2.61
			c-6.62-0.92-13.46-0.68-20-2.27C529.82,2233.63,525,2231.71,519.82,2230.01z"/>
		<path class="st0" d="M1262.71,2179.19c-4.05,1.93-7.98,1.74-11.91,1.74c-12.32-0.02-24.69-0.7-36.96,0.16
			c-16.77,1.17-33.53,0.21-50.27,1.01c-5.23,0.25-10.42,0.85-16.08,0.75c4.34-8.64,5.5-17.45,5.13-26.19
			c5.39-0.06,10.19,1.73,16.38,2.38c-4.72-2.95-8.95-4.05-13.07-4.94c-2.93-0.64-3.39-1.97-3.35-4.4
			c0.2-13.08-4.22-24.66-11.59-35.25C1167.43,2119.03,1249.2,2162.48,1262.71,2179.19z"/>
		<path class="st0" d="M931.55,265.93c-4.03,0.49-7.28-1.24-10.63-2.21c-1.09-0.32-1.96-1.55-2.33-3.01
			c-3.22-12.87-10.46-23.8-17.15-34.98c-0.74-1.24-1.89-2.25-3.16-3.72c8.67-7.86,15.69-17,22.08-26.5
			c6.26-9.31,12.1-18.98,16.88-29.67c17.68,11.14,35.94,20.57,55.84,26.59c-18.95,1.83-37.16,0.12-53.88-10.18
			c0.9,2.06,2.45,3.12,4.07,4.33c1.7,1.27,3.41,2.56,5.12,3.82c13.75,10.13,20.96,23.5,19.07,40.73
			c-0.77,7.04-3.08,13.97-8.63,20.19c0.91-9.02-0.42-17.17-2.74-25.07c-2.36-8.04-6.25-15.42-12.15-21.66
			c11.14,20.35,15.31,41.36,6.83,64.1c-2.1-0.73-4.35-0.4-6.77-0.7c-2.62-18.78-10.56-34.96-23.56-48.69
			c3.31,7.23,7.21,14.15,9.29,21.94C931.9,249.37,931.65,257.51,931.55,265.93z"/>
		<path class="st0" d="M780.02,1841.49c6.14,5.57,11.44,11.64,16.68,17.77c0.54,0.63,1.02,1.32,1.63,1.87
			c6.56,5.89,11.82,12.99,18.04,19.21c4.88,4.87,8.85,10.61,13.67,15.59c2.54,2.62,6.09,4.05,8.22,7.46
			c-3.3,8.11-8.39,15.49-12.3,23.81c-4.69-4.46-6.63-10.53-10.99-14.82c1.9,6.08,5.3,11.39,8.46,16.81c0.58,0.99,1.2,1.49,0.64,2.98
			c-2.35,6.16-2.05,12.85-3.4,19.23c-0.38,1.78,0.36,3.46,0.52,5.26C801.35,1920.44,785.83,1882.71,780.02,1841.49z"/>
		<path class="st0" d="M501.3,1805.7c4.3,4.57,6.06,9.4,8.43,13.79c7.15,13.21,14.1,26.52,21.9,39.36c0.85,1.4,1.29,2.69,0.34,4.55
			c-2.73,5.36-5.86,10.45-9.26,16.3c-2.42-5.26-3.36-10.41-7.06-14.28c1.18,5.18,2.22,10.4,3.59,15.52
			c0.65,2.42,0.87,4.36-0.42,6.79c-4.41,8.37-7.42,17.31-9.79,26.57C499.59,1878.87,499.19,1842.84,501.3,1805.7z"/>
		<path class="st0" d="M1497.8,1046.52c-0.27-1.06,0.45-1.45,0.62-2.06c1.82-6.43,5.69-10.52,12.62-11.23
			c2.85-0.29,5.03-1.96,7.19-3.82c-4.42,0.79-8.7,1.97-13.54,2.71c0.38-5.6,2.38-9.72,7.39-11.82c3.61-1.51,6.91-3.49,10.27-5.45
			c5.84-3.41,8.37-9.38,12.39-15.37c2.23,5.29,4.36,9.85,3.47,15.49c-1.39,8.78-6.85,14.87-13.26,20.01
			C1517.08,1041.27,1507.98,1045.33,1497.8,1046.52z"/>
		<path class="st0" d="M1459.81,1038.94c0.12-4.16-2.01-7.97-1.06-12.12c1.05-1.53,3.35-1.29,4.41-3.2
			c-1.16-1.07-2.77-0.1-4.34-1.09c-0.33-0.21,0.52-0.51,0.55-0.9c0.32-5.36,3.37-8.74,7.6-11.81c5.48-3.98,9.43-9.59,13.61-14.88
			c0.81-1.03,1.38-2.21,2.85-2.42C1487.7,1011.14,1481.75,1030.07,1459.81,1038.94z"/>
		<path class="st0" d="M612.35,1333.87c-6.18,0.67-10.95-2.63-15.52-5.42c-7.3-4.46-12.4-11.49-18.33-17.55
			c-3.6-3.68-3.93-7.9-4.8-12.62c9.17-0.63,17,1.24,22.69,8.94c4.36,5.9,9.04,11.58,13.37,17.51
			C611.57,1327.2,613.35,1329.9,612.35,1333.87z"/>
		<path class="st0" d="M1557.8,1037.67c3.21-3.56,5.15-6.79,7.16-9.87c1.4-2.15,1.06-5.68,0.14-8.49c-0.38-1.15-0.52-2.21-0.47-3.58
			c7.05-2.58,12.33-7.93,18.05-13C1586.21,1017.51,1574.77,1033.83,1557.8,1037.67z"/>
		<path class="st0" d="M1586.74,969.34c-1.57,16.09-13.53,23.56-24.07,32.28c5.54-6.5,5.94-13.83,3.76-22.05
			C1573.33,976.85,1578.99,971.7,1586.74,969.34z"/>
		<path class="st0" d="M610.19,1292.61c-2.61-6.93-7.86-11.95-12.19-18.9c6.37,2.82,11.24,0.14,16.62-1.38
			C613.15,1279.16,613.9,1286.26,610.19,1292.61z"/>
		<path class="st0" d="M1540.12,877.18c9.4,5.62,13.93,12.48,15.23,22.69c-3.05-2.14-5.17-5.22-8.69-6.33
			c-0.47-0.15-1.04-1.04-1.01-1.56C1545.92,886.57,1543.17,882.18,1540.12,877.18z"/>
	</g>
</g>
</svg>
