<?xml version="1.0" encoding="utf-8"?>
<!-- Generator: Adobe Illustrator 23.1.0, SVG Export Plug-In . SVG Version: 6.00 Build 0)  -->
<svg version="1.1" id="Layer_1" xmlns="http://www.w3.org/2000/svg" xmlns:xlink="http://www.w3.org/1999/xlink" x="0px" y="0px"
	 viewBox="0 0 848.26 1741.83" style="enable-background:new 0 0 848.26 1741.83;" xml:space="preserve">
<g>
	<path d="M359,0c2.26,0.68,4.5,1.4,6.77,2.03c7.22,2.02,11.88,6.74,11.28,14.41c-0.3,3.83,0.01,7.7-0.09,11.56
		c-0.02,0.92-0.42,1.94-0.93,2.73c-5.9,9.18-8.18,19.82-12.14,29.78c-0.41,1.04-0.83,2.16-0.86,3.26
		c-0.39,15.27-1.19,30.54-0.87,45.8c0.22,10.77,0.72,21.76,4.01,32.12c3.95,12.45,9.19,24.37,17.6,34.73
		c5.45,6.71,10.01,14.12,15.12,21.11c0.82,1.13,2.33,1.99,3.7,2.44c6.16,2.01,12.44,3.5,18.18,6.86c4.6,2.69,9.9,4.17,14.76,6.46
		c5.07,2.39,9.48,5.5,12.86,10.31c4.28,6.09,9.58,11.46,14.04,17.44c3.42,4.58,5.85,9.68,6.75,15.56c0.44,2.91,2.54,5.55,3.8,8.36
		c3.83,8.55,6.2,17.41,7.15,26.81c1.11,10.88,3.64,21.61,4.65,32.49c0.65,7.03-0.23,14.21-0.59,21.32
		c-0.24,4.6-0.55,9.21-1.23,13.75c-1.3,8.72-3.22,17.34-7.24,25.25c-3.33,6.55-6.5,13.32-10.83,19.18
		c-5.83,7.88-12.7,14.98-19.73,23.11c0.44,1.21,0.83,3.78,2.18,5.66c5.33,7.43,6.86,16.11,8.67,24.72c0.2,0.96,0.19,2.01,0.59,2.87
		c4.84,10.18,4.09,21.12,3.09,31.67c-0.69,7.26-4.5,14.19-6.62,21.36c-0.71,2.42-1.53,5.62-0.55,7.58
		c3.99,7.99,6.37,16.33,7.57,25.12c0.16,1.18,1.29,2.45,2.31,3.25c7.16,5.61,10.75,13.09,11.56,21.97c0.29,3.16,0.02,6.37,0.05,9.56
		c0.05,4.76-2.71,7.54-6.68,9.38c-4.95,2.31-4.79,2.6-3.12,7.72c2.3,7.07,7.24,10.52,14.24,11.85c2.33-1.85,4.74-3.82,7.21-5.71
		c3.44-2.63,5.06-6.21,6.18-10.31c2.63-9.65,4.82-19.37,5.1-29.39c0.09-3.08-0.2-6.33-1.09-9.26c-2.68-8.77-2.02-17.5-1.02-26.41
		c0.56-4.94,1.37-9.65,3.06-14.31c1.83-5.04,4.67-9.28,8.42-13.08c1.85-1.88,3.31-4.21,4.65-6.51c2.05-3.51,3.39-7.53,5.88-10.66
		c2.12-2.67,2.93-5.5,3.1-8.52c0.52-9.09,0.68-18.2,1.1-27.29c0.14-3.11,0.95-6.21,0.9-9.3c-0.09-5.6-0.52-11.21-0.94-16.8
		c-0.53-7.11,1.32-13.78,4.54-19.88c4.03-7.62,8.81-14.83,13.32-22.31c-3.55-6.69-4.96-13.98-4.87-21.64
		c0.08-6.67,0.02-13.33,0.02-20c0-4.2,0.15-8.4-0.03-12.59c-0.51-11.76,3.19-22.67,7.2-33.35c4.64-12.34,10.07-24.4,15.54-36.41
		c3.03-6.64,6.75-12.85,12.49-17.83c3.12-2.7,5.35-6.62,7.4-10.31c5.5-9.93,14.2-16.68,22.62-23.78c11.45-9.64,24.49-16.84,37.47-24
		c6.45-3.55,13.85-5.41,20.87-7.88c3.36-1.19,6.78-2.38,10.28-2.96c7.57-1.27,14.79,0.52,21.52,3.87c2.21,1.1,4.2,3.18,5.6,5.28
		c5.14,7.74,2.7,13.46-2.6,19.88c-2.77,3.36-5.84,6.48-8.69,9.77c-3.77,4.35-7.18,9.04-11.26,13.07c-4.18,4.13-7.57,8.6-9.9,13.99
		c-4.14,9.58-8.64,19.01-12.67,28.63c-5.08,12.11-4.02,24.96-3.67,37.62c0.11,4.12,1.89,8.22,3.08,12.28
		c0.47,1.6,1.53,2.37,3.53,2.66c4.63,0.68,9.38,1.48,13.7,3.2c6.78,2.7,12.18,7.39,16.71,13.24c5.02,6.49,10.71,12.47,15.75,18.95
		c8.1,10.43,11.45,22.74,14.26,35.47c3.04,13.76,3.16,27.57,2.67,41.41c-0.35,9.96-2.98,19.63-6.61,28.97
		c-2.23,5.75-4.2,11.62-6.63,17.29c-1.92,4.48-4.18,8.84-6.62,13.05c-4.23,7.3-8.25,14.8-13.27,21.55
		c-3.49,4.7-8.33,8.48-12.88,12.29c-5.52,4.61-11.3,8.93-17.12,13.15c-2.62,1.89-5.63,3.24-8.46,4.83
		c-1.11,13.75-4.44,27.02-9.54,39.78c-1.67,4.17-4.28,8.19-7.28,11.55c-4.71,5.27-10.12,9.92-15.82,15.39
		c0.96,2.49,1.77,6.21,3.67,9.23c4.6,7.31,4.72,15.12,2.41,22.79c-3.16,10.46-7.19,20.7-14.61,29.09c-2.06,2.34-2.03,5.03-2.17,7.86
		c-0.16,3.1,1.71,4.31,3.7,6.26c9.05,8.9,14.54,19.41,11.76,32.66c-0.99,4.72-0.7,8.51,3.27,12.25c6.71,6.34,9.73,15.04,12.17,23.67
		c1.94,6.87,2.67,14.07,4.21,21.06c2.9,13.24,2.35,26.35,0.23,39.7c-1.81,11.44-5.9,21.91-9.74,32.67
		c-3.49,9.78-7.67,18.99-13.17,27.7c-0.17,0.27-0.18,0.7-0.4,0.88c-5.56,4.64-4.01,10.41-1.81,15.66
		c3.01,7.19,3.15,14.28,0.77,21.41c-2.3,6.91-3.62,14.15-7.77,20.44c-9.5,14.42-17.55,29.59-23.08,46.04
		c-6.27,18.67-13.02,37.17-19.18,55.88c-3,9.11-6.06,18.22-6.05,28.14c0.01,9.03-0.9,18.1-1.92,27.1
		c-1.7,15.01-2.51,30.06-1.78,45.11c0.51,10.61,2.31,21.16,3.68,31.72c0.92,7.13,2.02,14.25,3.18,21.35
		c1.65,10.15,2.89,20.41,5.28,30.39c3.06,12.8,6.54,25.55,10.84,37.98c5.29,15.27,11.89,30.03,21.1,43.48
		c5.25,7.67,10.62,15.29,15.23,23.34c3.6,6.28,6.2,13.13,9.07,19.8c4.87,11.3,9.59,22.66,14.42,33.98c3.32,7.8,7,15.46,10,23.38
		c3.3,8.7,6.08,17.6,8.95,26.46c1.85,5.69,3.45,11.47,5.17,17.2c1.62,5.41,1.56,9.94-3.35,14.33c-6.58,5.88-8.65,14.03-5.91,22.43
		c1.76,5.41-0.24,9.01-2.86,13.12c-3.73,5.84-7.06,11.94-10.56,17.93c3.2,2.47,5.68,4.38,8.15,6.28c0.34-0.02,0.76,0.09,0.98-0.07
		c9.81-7.36,21.25-9.72,33.08-11.17c2.91-0.36,24.02-4.22,32.03-3.02c13.35,1.99,24.6,9.78,37.08,14.18
		c8.33,2.93,14.63,8.64,20.5,14.59c3.19,3.23,4.17,8.54,6.52,12.71c7.79,13.81,11.12,29.06,14.18,44.33
		c3.04,15.18,0.88,30.01-4.31,44.49c-2.19,6.13-4.63,12.11-8.68,17.26c-1.75,2.23-1.86,4.44,0.06,6.21
		c3.15,2.91,6.36,5.96,10.07,8.02c8.07,4.49,15.79,2.92,22-3.93c3.24-3.58,6.18-7.42,9.43-10.99c1.78-1.95,3.7-3.95,5.97-5.2
		c1.71-0.94,4.33-1.5,6.06-0.89c5.04,1.78,9.54,4.43,12.21,9.6c0.9,1.74,0.5,5.51,4.53,4.69c0.22-0.05,1.23,2.26,1.36,3.52
		c1.63,15.76,0.8,31.18-9.84,43.99c-5.27,6.34-11.43,12.13-17.91,17.25c-15.92,12.56-35.04,16.9-54.6,19.31
		c-10.38,1.27-20.9,2.04-31.34,1.91c-8.41-0.1-16.77-2.34-25.2-2.75c-4.47-0.22-7.55-2.55-11.25-4.14
		c-15.93-6.83-30.05-16.39-43.28-27.43c-1.36-1.13-3.06-1.86-4.62-2.74c-0.42-0.24-19.4-7.46-21.31-8.98
		c-5.97-4.74-11.91-9.52-17.79-14.38c-1.13-0.93-1.72-2.52-2.86-3.43c-3.3-2.67-6.74-5.16-10.15-7.7c-0.93-0.69-2.25-1.05-2.87-1.93
		c-5-7.03-13.01-7.48-20.31-9.28c-3.84-0.95-7.8-0.91-11.25-3.5c-2.25-1.68-16.06-7.74-17.04-7.96c-4.28-0.99-6.93-4.35-10.36-6.56
		c-9.95-6.43-11.97-17.08-15.44-26.96c-2.44-6.96-4.6-14.15-9.8-19.48c-5.08-5.21-10.82-9.83-16.63-14.24
		c-4.22-3.21-8.76-5.79-11.86-10.43c-3.73-5.57-9.44-8.84-15.76-10.9c-18.93-6.17-37.95-8.14-57.46-2.21
		c-7.87,2.4-15.68,4.36-21.99,10.09c-1.21,1.1-3.36,1.41-5.13,1.58c-4.81,0.48-9.64,0.87-14.46,0.92c-1.89,0.02-4-0.62-5.64-1.58
		c-13.79-8.09-27.51-16.3-41.22-24.54c-1.1-0.66-2.3-1.6-2.82-2.71c-3.73-7.97-7.52-15.93-10.85-24.07
		c-2.45-6-4.29-12.25-6.27-18.43c-3.62-11.25-4.49-22.82-3.91-34.56c0.59-11.97,0.89-23.97,1.73-35.92
		c0.31-4.42,1.73-8.78,2.76-13.14c0.99-4.19,2.08-8.36,3.25-12.5c0.29-1.03,0.83-2.19,1.62-2.85c7.44-6.26,12.72-14.14,16.1-23.08
		c3.33-8.81,6.18-17.86,8.53-26.99c3.16-12.29,5.65-24.76,8.34-36.77c0.07,0.2,0.35,1.01,0.62,1.82c0.25,0.03,0.5,0.07,0.74,0.1
		c0.64-5.48,1.6-10.95,1.87-16.44c0.55-11.42,1.21-22.88,0.92-34.3c-0.23-9.15-1.8-18.27-2.77-27.4
		c-0.69-6.53-1.94-13.06-1.94-19.59c0-8.66-1.82-16.97-3.62-25.27c-3.27-15.11-6.74-30.18-10.69-45.12
		c-2.03-7.67-5.06-15.11-8.01-22.5c-4.42-11.04-8.91-22.06-13.86-32.86c-5.53-12.04-11.46-23.9-17.52-35.69
		c-3.87-7.54-8.14-14.89-12.49-22.18c-7.36-12.32-14.97-24.49-22.37-36.78c-4.63-7.68-9.06-15.49-13.6-23.22
		c-1.24-2.11-2.2-4.57-3.93-6.17c-5.61-5.17-8.77-11.87-11.92-18.51c-3.55-7.49-9.09-13.89-11.55-21.98
		c-1.93-6.37-4.27-12.62-6.62-18.85c-3.46-9.15-4.75-18.64-4.99-28.36c-0.13-5.29-0.74-10.57-0.93-15.86
		c-0.41-11.1-0.61-22.2-1.12-33.3c-0.07-1.49-1.38-2.93-2.26-4.67c3.42-1.76,2.33-5.27,2.18-8.59c-0.13-3.05-0.06-6.1-0.05-9.16
		c0.04-8.15,0.32-16.32,0.05-24.46c-0.15-4.55-1.23-9.07-1.82-13.61c-1.04-7.95-1.09-16.19-3.31-23.79
		c-2.06-7.05-4.77-14.31-10.38-19.76c-12.16-11.81-24.2-23.75-36.49-35.42c-10.62-10.07-17.94-22.05-21.77-36.11
		c-1.11-4.06-1.74-8.32-1.98-12.53c-0.56-9.59-0.59-19.21-1.12-28.8c-0.46-8.38-0.97-16.78-2.06-25.09
		c-1.18-9.01-5.07-17.16-9.55-24.99c-1.86-3.26-3.69-6.54-5.76-9.66c-1.25-1.88-2.64-3.9-4.46-5.11
		c-14.17-9.42-24.52-22.01-32.2-37.11c-4.32-8.49-8.4-17.07-9.55-26.54c-0.72-5.93-0.55-12.08,0.08-18.03
		c0.43-4.07,1.12-7.5-2.16-10.91c-4.07-4.24-8.03-8.75-11.2-13.68c-4.75-7.4-8.27-15.61-13.25-22.84
		c-5.67-8.23-8.74-17.42-12.12-26.59c-3.21-8.69-6.75-17.26-9.91-25.97c-3.26-9-4.94-18.31-4.86-27.92c0.01-1.5-0.62-3.01-0.95-4.51
		c0-3.67,0-7.33,0-11c0.48-2.31,1.01-4.61,1.44-6.92c0.88-4.65,1.71-9.3,2.55-13.96c1.7-9.47,2.91-19.06,5.23-28.38
		c2.34-9.44,6.02-18.54,8.67-27.92c4.65-16.41,11.09-31.48,24.56-43.07c8.47-7.29,17.75-10.23,28.41-9.65
		c5.2,0.28,10.02,2.31,11.64,7.97c1.46,5.09,2.78,10.29,3.35,15.53c0.36,3.31-0.37,6.9-1.3,10.16c-3.46,12.18-4.49,24.27-1.77,36.87
		c1.48,6.85,1.6,14.22,0.95,21.22c-0.41,4.39-0.52,8.36,0.92,12.45c0.59,1.68,0.88,3.47,1.38,5.19c2.59,8.9,4.58,18.09,10.09,25.79
		c4.57,6.39,9.33,12.67,14.43,18.64c3.93,4.6,8.41,8.74,12.83,12.89c4.35,4.09,9.01,7.52,15.3,3.39c0.49-0.32,1.31-0.08,1.95-0.21
		c9.6-2.03,19.34-2.3,29.08-1.91c3.7,0.15,7.48,0.82,11.02,1.9c14.58,4.46,27.02,12.93,39.3,21.6c7.12,5.03,12.91,11.36,18.53,18.13
		c8.19,9.88,14.69,20.49,18.42,32.64c2.52,8.21,4.04,16.74,6.02,25.12c0.97,4.11,2.6,8.17,2.89,12.33
		c1.17,16.81-1.33,33.06-8.55,48.42c-1.94,4.12-4.13,8.12-6.09,12.23c-1.93,4.07-3.71,8.22-5.83,12.95c0.72,0.6,1.98,1.46,2.99,2.55
		c1.11,1.19,1.9,2.66,2.97,3.89c10.08,11.71,15.8,25.07,15.66,40.72c-0.02,1.61,0.54,3.22,0.67,4.85
		c0.49,5.83,2.61,11.58,0.43,17.53c-0.68,1.85,0.34,3.11,2.25,4.29c7.4,4.57,14.49,9.62,18.85,17.5c2.48,4.48,6.17,6.36,11.26,7.54
		c5.7,1.31,9.65,1.43,14.42-3c5.01-4.64,10.15-8.55,11.3-15.77c0.32-2.01,1.12-3.94,1.65-5.74c-2.3-0.29-4.32-0.87-6.28-0.73
		c-5.44,0.39-8.71-2.54-10.94-6.91c-5.05-9.9-3.06-19.36,2.22-28.49c1.14-1.97,2.76-3.71,3.66-5.77c0.81-1.84,1.43-4.02,1.28-5.99
		c-0.33-4.39-1.2-8.73-1.82-13.09c-0.97-6.77-1.86-13.43-5.27-19.7c-6.02-11.07-11.37-22.5-16.98-33.79
		c-0.65-1.31-1.45-2.63-1.69-4.04c-1.99-11.35-1.47-22.53,1.98-33.61c2.62-8.42,4.66-16.99,4.99-25.89
		c0.16-4.27,0.41-8.57,1.02-12.79c1.73-11.76,0.63-23.58,0.99-35.37c0.31-10.07-2.6-19.39-6.14-28.57
		c-2.09-5.43-4.55-10.73-6.92-16.05c-1.59-3.55-3.5-6.96-4.95-10.56c-3.02-7.48-3.82-15.46-5.25-23.32
		c-1.53-8.42-0.66-16.26,2.62-24.01c1.38-3.27,2.55-6.63,3.98-9.88c2.27-5.18,4.66-10.31,7.13-15.73
		c-2.28-3.79-5.18-7.96-7.44-12.46c-8.73-17.35-16.54-34.96-20.85-54.14c-3.51-15.6-6.94-31.06-6.19-47.14
		c0.15-3.11,0.66-6.2,0.97-9.3c0.71-7.19,0.92-14.47,2.18-21.56c2.75-15.51,8.57-30.06,15.57-44.07
		c4.22-8.45,9.36-16.44,14.22-24.56c6.84-11.42,14.7-22.12,24.01-31.62c4.83-4.92,10.2-9.36,15.62-13.64
		c5.18-4.09,10.9-7.17,17.88-7.07c2.17,0.03,4.35-0.61,6.52-0.94C355.67,0,357.33,0,359,0z"/>
</g>
</svg>
