<?xml version="1.0" encoding="utf-8"?>
<!-- Generator: Adobe Illustrator 23.1.0, SVG Export Plug-In . SVG Version: 6.00 Build 0)  -->
<svg version="1.1" id="Layer_1" xmlns="http://www.w3.org/2000/svg" xmlns:xlink="http://www.w3.org/1999/xlink" x="0px" y="0px"
	 viewBox="0 0 245.4 466.15" style="enable-background:new 0 0 245.4 466.15;" xml:space="preserve">
<g>
	<path d="M92.5,441.38c-1.33,0.14-2.43,0.28-3.53,0.37c-1.59,0.13-3.19,0.22-4.78,0.36c-0.91,0.08-1.06,0.25-1.21,1.17
		c-0.17,1.02-0.31,2.05-0.47,3.08c-0.18,1.17-0.64,2.22-1.42,3.12c-2.04,2.34-4.52,3.94-7.65,4.29c-2.02,0.22-4.06,0.3-6.09,0.48
		c-0.59,0.05-1.16,0.21-1.74,0.31c-1.37,0.23-2.75,0.47-4.12,0.67c-0.47,0.07-0.96,0.05-1.44,0.03c-1.01-0.05-1.9,0.06-2.81,0.7
		c-1.33,0.93-2.96,1.16-4.54,1.4c-0.84,0.13-1.42,0.35-1.71,1.33c-0.19,0.65-0.89,1.21-1.48,1.66c-1.57,1.21-3.46,1.61-5.38,1.81
		c-3.81,0.41-7.57,0.04-11.28-0.92c-0.5-0.13-0.99-0.32-1.63-0.52c-0.23,0.32-0.55,0.67-0.74,1.07c-0.51,1.08-0.95,2.2-1.43,3.29
		c-0.17,0.38-0.38,0.74-0.57,1.09c-0.61-0.17-0.71-0.55-0.69-0.97c0.09-1.67,0.12-3.35,0.33-5.01c0.09-0.72,0.48-1.45,0.88-2.08
		c0.74-1.18,1.59-2.29,2.4-3.43c0.16-0.22,0.34-0.43,0.56-0.71c-0.74-0.62-1.42-1.2-1.99-1.68c-0.97,0.16-1.82,0.35-2.67,0.43
		c-1.99,0.18-3.99,0.27-5.97,0.48c-2.06,0.21-4.07-0.01-6.07-0.44c-1.78-0.38-2.88-1.44-3.16-3.3c-0.2-1.33-0.21-2.6,0.44-3.85
		c0.5-0.97,0.04-1.79-1.04-1.86c-0.87-0.05-1.77-0.03-2.61,0.16c-3.06,0.72-5.62,2.23-7.29,5.01c-0.53,0.88-0.55,0.86-1.19,1.29
		c-0.55-0.22-0.41-0.69-0.38-1.11c0.19-3.09,1.6-5.52,3.94-7.52c2.57-2.2,5.49-3.33,8.86-3.39c1.88-0.03,3.76,0.02,5.6,0.45
		c0.7,0.16,1.37,0.42,2.02,0.62c0.54-0.21,1.07-0.46,1.63-0.62c0.66-0.18,1.13,0.24,1.59,0.7c0.39-0.23,0.8-0.41,1.14-0.68
		c1.12-0.88,2.24-1.28,3.4-0.07c0.26-0.15,0.46-0.27,0.67-0.38c1.7-0.97,3.4-1.92,5.09-2.91c0.54-0.32,1.12-0.63,1.55-1.08
		c0.87-0.91,1.95-1.23,3.14-1.25c1.28-0.02,2.15,0.72,2.82,1.75c0.35,0.53,0.71,1.06,1.13,1.54c0.8,0.92,1.72,1.03,2.73,0.35
		c0.59-0.4,1.13-0.87,1.91-0.93c0.23-0.02,0.46-0.3,0.64-0.49c1.11-1.16,2.21-2.32,3.83-2.78c0.21-0.06,0.47-0.37,0.5-0.59
		c0.1-0.77,0.59-1.2,1.16-1.59c0.79-0.53,1.6-1.06,2.42-1.55c0.65-0.39,1.32-0.75,1.99-1.1c1.88-0.98,3.41-2.32,4.64-4.06
		c0.66-0.94,1.44-1.82,2.25-2.64c0.52-0.53,1.17-0.96,1.81-1.36c0.37-0.23,0.66-0.39,0.63-0.89c-0.05-0.61,0.34-1.05,0.72-1.46
		c0.65-0.7,1.34-1.37,1.95-2.11c0.93-1.14,1.83-2.32,2.69-3.51c0.75-1.03,1.45-2.1,2.17-3.15c0.09-0.13,0.26-0.28,0.24-0.39
		c-0.15-0.97,0.59-1.52,1.02-2.21c1.04-1.7,2.08-3.4,3.09-5.12c0.79-1.34,1.55-2.69,2.32-4.04c0.04-0.07,0.11-0.13,0.12-0.2
		c0.46-2.65,2.02-4.8,3.25-7.1c0.54-1.02,0.97-2.1,1.48-3.14c0.26-0.53,0.58-1.03,0.87-1.55c0.07-0.13,0.21-0.3,0.17-0.4
		c-0.31-0.85,0.27-1.45,0.57-2.12c0.64-1.42,1.36-2.8,1.94-4.24c0.44-1.08,0.84-2.16,1.97-2.84c-0.62-0.98-0.42-1.94-0.16-2.91
		c0.26-0.97,0.04-1.93-0.27-2.83c-0.85-2.53-1.77-5.04-2.71-7.55c-1.75-4.68-3.98-9.15-6.23-13.6c-0.16-0.31-0.38-0.59-0.68-1.04
		c-0.17,0.42-0.25,0.67-0.37,0.9c-0.25,0.51-0.69,0.57-1.01,0.12c-0.18-0.26-0.28-0.57-0.39-0.87c-0.51-1.3-1.05-2.59-1.52-3.9
		c-1.95-5.44-5.18-10.15-8.58-14.74c-3.55-4.78-6.9-9.69-9.87-14.86c-0.85-1.48-1.61-3.03-2.35-4.57c-1.18-2.47-2.62-4.74-4.55-6.7
		c-1.81-1.83-2.67-4.17-3.26-6.58c-1.02-4.19-1.22-8.48-0.73-12.74c0.3-2.64,1.06-5.24,1.73-7.82c0.8-3.09,1.72-6.15,2.62-9.21
		c0.2-0.7,0.19-1.32-0.15-1.96c-0.76-1.45-1.4-2.97-2.25-4.36c-0.61-1.01-1.42-1.93-2.24-2.79c-1.06-1.1-2.01-2.25-2.76-3.6
		c-0.83-1.51-0.99-3.07-0.83-4.75c0.22-2.3,0.32-4.62,0.47-6.93c0.01-0.19-0.02-0.4-0.08-0.59c-0.64-1.81-0.48-3.63-0.02-5.43
		c1.93-7.54,3.3-15.2,4.88-22.82c0.13-0.62,0.31-1.24,0.44-1.86c0.17-0.77,0.34-1.5,0.13-2.35c-0.17-0.69,0.06-1.51,0.22-2.24
		c1.08-4.84,1.66-9.75,2.1-14.69c0.39-4.34,0.8-8.67,1.19-13c0.22-2.47,0.44-4.93,0.63-7.4c0.07-0.88,0.13-1.76,0.07-2.63
		c-0.2-3.36,0.2-6.63,1.54-9.73c0.41-0.94,0.31-1.66-0.35-2.39c-0.5-0.56-0.99-1.13-1.44-1.73c-0.21-0.28-0.34-0.63-0.43-0.97
		c-1.04-3.86-1.71-7.79-2.23-11.75c-0.49-3.72-1.03-7.43-1.63-11.14c-0.15-0.92-0.52-1.85-0.99-2.66c-0.89-1.52-1.45-3.11-1.46-4.87
		c-0.01-0.71-0.16-1.32-0.78-1.77c-0.2-0.15-0.39-0.45-0.41-0.7c-0.07-1.08-0.98-1.37-1.68-1.82c-0.17-0.11-0.53,0.02-0.77,0.11
		c-0.63,0.24-1.24,0.53-1.82,0.78c-0.62-0.33-0.55-0.69-0.19-1.09c0.6-0.69,1.2-1.39,1.78-2.1c0.28-0.34,0.55-0.69,0.76-1.08
		c0.12-0.22,0.21-0.59,0.1-0.77c-1.16-1.95-1.56-4.16-2.25-6.28c-0.01-0.03-0.06-0.05-0.08-0.07c-0.42,0.94-0.2,2.14-1.24,2.96
		c-0.2-0.31-0.51-0.58-0.55-0.87c-0.29-2.7-0.75-5.41-0.31-8.12c0.19-1.2,0.59-2.41,1.09-3.52c0.63-1.41,1.46-2.73,2.21-4.09
		c0.05-0.09,0.06-0.2-0.05-0.41c-1.04,1.07-2.08,2.13-3.11,3.22c-0.52,0.55-0.99,1.15-1.49,1.72c-0.13,0.15-0.25,0.37-0.42,0.41
		c-0.24,0.07-0.55,0.08-0.75-0.03c-0.13-0.07-0.21-0.44-0.14-0.61c1.16-2.93,2.17-5.94,4.32-8.36c0.31-0.35,0.56-0.77,0.78-1.19
		c0.82-1.54,1.96-2.82,3.27-3.94c1.64-1.4,3.33-2.74,5-4.11c0.18-0.14,0.34-0.3,0.55-0.48c-0.54-0.37-1.02-0.71-1.52-1.05
		c0.23-0.52,0.58-0.7,1.03-0.76c0.35-0.05,0.7-0.15,1.06-0.21c1.31-0.21,2.39-0.81,3.32-1.77c1.05-1.08,2.18-2.09,3.43-3.28
		c-0.56-0.07-1-0.2-1.43-0.18c-1.62,0.11-3.19-0.13-4.73-0.59c-0.34-0.1-0.72-0.21-0.96-0.44c-0.39-0.37-0.83-0.42-1.31-0.46
		c-0.52-0.04-1.04-0.1-1.54-0.23c-0.28-0.07-0.52-0.3-0.76-0.44c0.22-0.74,0.77-0.9,1.29-1.09c2.26-0.8,4.46-1.74,6.52-2.99
		c0.64-0.39,1.25-0.83,1.94-1.29c-0.89-1.17-2.59-0.58-3.34-1.83c0.22-0.59,0.72-0.58,1.25-0.63c0.91-0.08,1.82-0.21,2.71-0.39
		c0.36-0.07,0.68-0.33,1.05-0.52c-0.68-0.99-1.98,0.07-2.51-1.06c0.16-0.21,0.35-0.45,0.61-0.79c-0.22-0.16-0.41-0.42-0.63-0.45
		c-1.45-0.19-2.77-0.75-4.08-1.33c-0.46-0.2-0.85-0.54-1.37-0.87c0.43-0.46,0.76-0.81,1.23-1.32c-0.51,0-0.89-0.07-1.24,0.01
		c-5.4,1.26-10.79,2.53-16.09,4.19c-1.06,0.33-2.18,0.48-3.28,0.65c-1.42,0.22-2.78-0.16-4.14-0.49c-1-0.24-1.97-0.67-3-0.1
		c-0.35,0.19-0.67-0.05-0.73-0.39c-0.09-0.45-0.16-0.96-0.05-1.4c0.61-2.35,1.71-4.44,3.43-6.21c1.4-1.44,2.88-2.76,4.54-3.89
		c2.21-1.5,4.39-3.06,6.63-4.52c2.7-1.77,4.78-4.11,6.48-6.8c1.07-1.69,1.66-3.61,1.69-5.64c0.04-2.17,0.78-4.03,2.1-5.73
		c1.85-2.37,3.89-4.55,6.11-6.58c0.14-0.13,0.32-0.24,0.52-0.39c0.46,0.36,0.88,0.62,1.43,0.06c4.25-4.3,9.54-6.91,15.05-9.13
		c4.03-1.63,8.11-3.15,12.38-4.03c2.22-0.46,4.49-0.73,6.74-1.06c3.2-0.47,6.4-0.92,9.6-1.37c0.86-0.12,0.91-0.07,0.87,0.93
		c0,0.06,0.09,0.13,0.2,0.28c0.33-0.05,0.71-0.08,1.08-0.18c3.59-0.91,7.16-1.88,10.66-3.17c1.68-0.62,3.08-1.65,4.65-2.43
		c0.41,0.13,0.43,0.43,0.25,0.75c-1.04,1.79-1.97,3.67-3.19,5.33c-1.08,1.46-2.48,2.71-3.8,3.98c-0.73,0.7-1.41,1.39-1.87,2.3
		c-0.31,0.6-0.74,1.14-1.11,1.7c-0.23,0.36-0.23,0.36,0.17,0.98c1.1-0.78,2.19-1.56,3.29-2.34c0.62,0.32,0.29,0.72,0.08,1.09
		c-1.23,2.2-2.44,4.4-3.7,6.57c-0.58,1-1.25,1.95-1.91,2.96c0.11,0.19,0.24,0.42,0.4,0.7c-0.95,1.75-1.89,3.5-2.85,5.27
		c0.17,0.15,0.3,0.3,0.46,0.41c0.51,0.37,0.56,0.79,0.29,1.35c-1.2,2.47-2.38,4.97-3.57,7.45c-0.25,0.52-0.27,0.51,0.12,1.01
		c0.35-0.24,0.71-0.47,1.06-0.71c0.76,0.55,0.8,0.6,0.3,1.15c-1.23,1.36-2.5,2.69-3.76,4.02c-0.22,0.23-0.47,0.42-0.67,0.6
		c0.14,0.56,0.49,0.55,0.87,0.54c1.68-0.02,3.35,0.14,4.97,0.62c0.46,0.14,0.94,0.24,1.14,0.82c-0.23,0.24-0.46,0.49-0.77,0.81
		c1.27,0.79,2.64,1.02,4.01,1.24c1.32,0.21,2.65-0.41,4.12-0.03c-0.66,1.7-2.36,2.15-3.38,3.47c0.3,0.11,0.53,0.19,0.75,0.27
		c0.59,0.21,0.76,0.64,0.33,1.07c-1.74,1.77-3.47,3.56-5.65,4.79c-0.68,0.38-1.5,0.51-2.26,0.74c-0.29,0.09-0.58,0.17-1,0.29
		c0.25,0.33,0.38,0.57,0.56,0.75c1.47,1.48,2.82,3.06,3.66,5c0.23,0.53,0.6,0.67,1.13,0.66c1.36-0.02,2.72,0,4.08-0.01
		c0.48,0,0.98-0.06,1.25,0.62c-0.19,0.19-0.37,0.45-0.62,0.61c-2.12,1.34-4.39,2.26-6.88,2.64c-0.35,0.05-0.69,0.21-1.18,0.37
		c0.45,0.5,0.77,0.84,1.05,1.15c-0.36,1.07-1.68,0.16-2.14,1.19c1.04,1.01,1.39,2.42,1.88,3.75c0.31,0.83,0.81,1.46,1.57,1.89
		c0.66,0.38,1.31,0.76,1.97,1.14c0.21,0.12,0.47,0.18,0.62,0.35c0.19,0.22,0.44,0.54,0.4,0.77c-0.08,0.43-0.52,0.43-0.89,0.37
		c-0.75-0.12-1.49-0.26-2.24-0.38c-0.38-0.06-0.8-0.25-1.04,0.22c1.59,3.1,3.15,6.2,5.43,8.82c-0.75,0.69-0.76,0.71-1.33,0.18
		c-0.97-0.9-1.91-1.82-2.87-2.73c-0.28-0.26-0.58-0.5-1.07-0.91c0,0.52-0.05,0.78,0.01,1.01c0.57,2.41,1.15,4.81,1.76,7.21
		c0.26,1,0.69,1.95,0.91,2.96c0.25,1.12,0.29,2.26,0.22,3.43c-0.08,1.26,0.18,2.54,0.3,3.82c0.23,2.35,0.32,4.71-0.03,7.05
		c-0.19,1.26-0.1,2.41,0.69,3.51c0.7,0.97,1.21,2.06,1.84,3.09c3.04,4.98,5.31,10.28,6.46,16.02c0.36,1.82,1.16,3.07,2.79,4
		c2.86,1.63,5.2,3.98,7.68,6.1c3.83,3.28,7.77,6.39,12.01,9.13c2.87,1.86,5.97,3.19,9.22,4.22c1.67,0.53,3.31,1.15,4.96,1.76
		c0.28,0.1,0.52,0.33,0.8,0.51c-0.34,0.76-0.78,0.91-1.55,0.75c-2.88-0.61-5.79-1.15-8.69-1.69c-0.65-0.12-1.32-0.11-2.16-0.17
		c0.54,0.38,0.93,0.66,1.32,0.92c4.04,2.76,7.07,6.54,10.33,10.11c4.52,4.96,7.93,10.7,11.69,16.19c0.09,0.13,0.19,0.26,0.27,0.4
		c0.21,0.35,0.23,0.68-0.13,0.95c-0.33,0.25-0.6,0.1-0.84-0.15c-0.23-0.22-0.45-0.46-0.67-0.69c-3.52-3.71-7.03-7.43-10.58-11.12
		c-2.55-2.64-5.15-5.23-7.73-7.83c-0.3-0.3-0.62-0.58-1.07-0.74c1.06,1.41,2.11,2.84,3.2,4.23c3.39,4.34,6.69,8.75,9.52,13.49
		c2.4,4.02,4.34,8.26,6.5,12.39c0.32,0.61,0.28,1.06-0.46,1.48c-0.31-0.37-0.64-0.75-0.94-1.15c-1.99-2.75-3.98-5.5-5.96-8.25
		c-0.05-0.06-0.1-0.13-0.15-0.19c-1.75-1.86-3.49-3.72-5.26-5.56c-0.44-0.45-0.98-0.81-1.59-1.14c0.1,0.19,0.2,0.37,0.3,0.56
		c1.4,2.74,2.71,5.52,4.21,8.2c3,5.35,5.29,10.98,6.89,16.89c0.45,1.66,0.87,3.32,1.34,4.97c0.16,0.56,0.2,1.02-0.42,1.32
		c-0.67-0.08-0.84-0.67-1.1-1.14c-1.27-2.31-2.44-4.67-3.82-6.91c-2.9-4.7-6.17-9.13-9.66-13.4c-0.02-0.03-0.07-0.03-0.25-0.08
		c0.1,0.54,0.14,1.03,0.29,1.49c1.98,6.43,3.92,12.88,5.99,19.29c1.91,5.89,4.37,11.57,7.47,16.93c1.17,2.02,2.73,3.82,4.2,5.66
		c1.07,1.34,2.28,2.57,3.42,3.86c0.1,0.12,0.17,0.26,0.25,0.38c-0.61,0.79-0.66,0.82-1.28,0.36c-5.11-3.74-9.98-7.74-13.6-13.04
		c-0.6-0.87-1.34-1.52-2.28-2.03c-2.87-1.53-5.04-3.9-7.21-6.25c-0.35-0.38-0.68-0.79-1.03-1.17c-0.28-0.32-0.5-0.64-1.09-0.47
		c-0.24,0.07-0.73-0.4-0.97-0.72c-1.49-2.02-2.96-4.07-4.41-6.12c-0.78-1.11-1.55-2.23-2.27-3.38c-1.19-1.9-2.52-3.68-3.93-5.42
		c-1.25-1.54-2.26-3.27-3.38-4.92c-0.13-0.19-0.25-0.38-0.53-0.81c0.01,2.06,0.51,3.73,1.22,5.31c0.69,1.53,1.55,2.97,2.33,4.45
		c0.09,0.18,0.21,0.35,0.26,0.54c0.12,0.51-0.29,0.89-0.77,0.68c-0.31-0.14-0.58-0.41-0.84-0.65c-2.72-2.47-4.86-5.38-6.65-8.58
		c-1.55-2.79-2.97-5.64-4.16-8.6c-0.1-0.24-0.29-0.44-0.52-0.8c-1.88,2.52-3.67,4.93-5.51,7.4c0.68,0.77,1.35,1.5,1.99,2.26
		c3.57,4.23,7.65,7.94,11.74,11.63c5.08,4.58,10.17,9.13,15.15,13.82c7.65,7.21,15.19,14.53,22.8,21.79
		c5.38,5.13,10.79,10.23,16.68,14.79c5.66,4.37,11.53,8.46,17.51,12.37c6.68,4.37,13.32,8.8,20.16,12.9
		c8.45,5.06,17.08,9.82,25.64,14.7c0.48,0.27,1.03,0.45,1.27,1.09c-0.13,0.15-0.28,0.33-0.46,0.53c-0.42-0.2-0.82-0.38-1.2-0.58
		c-4.61-2.29-9.24-4.51-14.06-6.34c-2.63-1-5.36-1.56-8.13-1.9c-3.09-0.39-6.19-0.62-9.29-0.93c-0.35-0.04-0.72-0.11-1.02-0.28
		c-1.36-0.75-2.86-0.58-4.32-0.71c-0.13-0.01-0.27,0.13-0.53,0.26c0.27,0.27,0.45,0.5,0.68,0.67c1.18,0.89,2.38,1.75,3.56,2.64
		c0.4,0.3,0.75,0.67,1.11,1c-0.45,0.67-1,0.48-1.49,0.39c-2.51-0.48-5.01-0.99-7.51-1.49c-3.92-0.78-7.88-1.23-11.88-1.36
		c-4.63-0.15-9.25-0.43-13.83-1.19c-0.94-0.16-1.86-0.42-2.85-0.64c-0.17,0.44-0.35,0.89-0.56,1.42c-1.26-0.79-2.42-1.51-3.58-2.24
		c-0.07,0.06-0.14,0.13-0.21,0.19c0.32,0.56,0.66,1.11,0.93,1.69c0.11,0.25,0.06,0.57,0.08,0.86c-0.29,0.02-0.61,0.1-0.88,0.03
		c-0.42-0.11-0.81-0.34-1.21-0.52c-1.45-0.66-2.97-0.88-4.62-0.67c-0.21,0.36-0.45,0.75-0.71,1.19c-1.1-0.59-1.8-1.78-3.19-1.58
		c-0.3,0.36,0.09,0.64,0.13,0.96c0.03,0.21-0.03,0.52-0.16,0.63c-0.14,0.11-0.44,0.08-0.65,0.04c-0.18-0.04-0.35-0.19-0.51-0.3
		c-1.76-1.27-3.73-1.97-5.87-2.19c-1.73-0.18-3.33-0.79-4.87-1.54c-0.79-0.38-1.6-0.74-2.34-1.21c-1.79-1.16-3.8-1.82-5.76-2.6
		c-0.45-0.18-0.84-0.25-1.07,0.08c-1.81-0.79-3.56-1.53-5.29-2.32c-0.76-0.35-1.49-0.76-2.21-1.19c-0.51-0.31-0.87-0.91-1.64-0.68
		c-0.16,0.05-0.41-0.2-0.62-0.32c-5.02-2.95-9.61-6.46-13.63-10.68c-1.51-1.59-2.86-3.33-4.28-5c-0.15-0.18-0.29-0.39-0.37-0.61
		c-0.41-1.05-0.4-1.06-1.6-1.79c-0.13,0.23-0.31,0.43-0.38,0.67c-0.47,1.8-0.48,3.64-0.47,5.48c0,0.42,0.21,0.85,0.33,1.26
		c1.26,4.24,2.55,8.47,3.78,12.71c0.28,0.95,0.44,1.94,0.56,2.93c0.3,2.45,1.55,4.4,3.11,6.21c1.59,1.83,3.58,3.03,5.84,3.8
		c0.37,0.13,0.77,0.27,1.06,0.52c0.32,0.27,0.46,0.75,0.99,0.76c0.72,0.01,1.44,0.05,2.09-0.35c0.34-0.21,0.66-0.43,0.98-0.64
		c0.62,0.39,0.47,0.82,0.13,1.22c-0.65,0.75-1.32,1.5-2.01,2.22c-0.24,0.25-0.56,0.44-0.85,0.66c0.21,0.28,0.28,0.43,0.39,0.52
		c1.65,1.34,2.72,3.11,3.73,4.94c2.26,4.11,3.91,8.47,5.49,12.87c1.85,5.14,3.65,10.3,5.59,15.41c1.64,4.34,4.07,8.24,7.34,11.54
		c1.09,1.09,2.4,1.97,3.67,2.87c1.55,1.09,3.4,1.32,5.21,1.63c1.06,0.18,2.13,0.34,3.19,0.53c1.58,0.29,2.24,1.46,2.51,2.85
		c0.17,0.87,0.59,1.55,1.05,2.25c1.29,1.98,3.21,2.53,5.4,2.36c0.91-0.07,1.8-0.35,2.69-0.58c0.7-0.17,1.37-0.44,2.07-0.59
		c1.3-0.28,2.46-0.1,3.28,1.11c0.19,0.28,0.51,0.52,0.82,0.66c1.48,0.66,2.55,1.78,3.45,3.07c0.97,1.39,1.64,2.94,1.88,4.62
		c0.12,0.84-0.02,1.75-0.19,2.6c-0.52,2.71-2.13,4.58-4.62,5.73c-0.38-0.21-0.5-0.48-0.22-0.87c0.19-0.26,0.38-0.51,0.57-0.77
		c1.73-2.33,1.43-4.78,0.43-7.27c-0.1-0.25-0.31-0.45-0.52-0.74c-0.21,0.17-0.4,0.28-0.55,0.45c-0.55,0.63-1.27,0.97-2.06,1.15
		c-1.13,0.26-2.26,0.5-3.4,0.69c-0.96,0.17-1.91,0.02-2.82-0.32c-0.9-0.33-1.59-0.89-2.05-1.74c-0.15-0.27-0.32-0.52-0.49-0.8
		c-0.99,0.35-1.86,0.76-2.78,0.95c-0.96,0.2-1.97,0.25-2.96,0.25c-0.56,0-0.97,0.13-1.4,0.49c-0.96,0.83-1.69,1.81-2.16,2.98
		c-1.18,2.92-2.3,5.87-3.5,8.78c-2.09,5.05-3.21,10.35-4.25,15.68c-1.05,5.36-2.19,10.71-3.23,16.08c-0.65,3.33-1.2,6.67-1.75,10.02
		c-0.11,0.7-0.03,1.44,0,2.15c0.11,2.63,0.26,5.27,0.36,7.9c0.07,1.93-0.62,3.55-1.93,4.99c-2.05,2.27-4.67,3.42-7.56,4.09
		c-1.24,0.29-2.5,0.53-3.75,0.78c-0.63,0.13-1.18,0.3-1.55,0.94c-0.42,0.74-1.21,1.05-2.02,1.13c-1.86,0.19-3.73,0.34-5.61,0.45
		c-0.57,0.03-1.06,0.08-1.57,0.41c-1.19,0.75-2.55,1.11-3.94,1.33c-0.35,0.06-0.71,0.16-1.06,0.17c-0.84,0.04-1.29,0.4-1.66,1.22
		c-0.31,0.67-1.03,1.21-1.67,1.65c-1.5,1-3.24,1.31-4.99,1.52c-3.77,0.44-7.49,0.06-11.18-0.76c-0.66-0.15-1.29-0.38-1.97-0.59
		c-1.29,1.5-1.6,3.54-2.73,5.12c-0.53-0.29-0.68-0.67-0.65-1.14c0.08-1.32,0.1-2.64,0.25-3.95c0.14-1.18,0.77-2.17,1.44-3.12
		c0.3-0.42,0.6-0.83,0.93-1.28C93.13,442.04,92.73,441.62,92.5,441.38z M102.76,325.45c-0.54,0.36-0.37,0.8-0.34,1.17
		c0.17,1.83,0.36,3.66,0.56,5.48c0.44,4.05,0.94,8.09,1.32,12.14c0.37,3.88,1.16,7.65,2.48,11.31c1.05,2.91,2.37,5.67,4.32,8.1
		c1.17,1.46,2.53,2.65,4.28,3.37c1.22,0.5,2.38,1.15,3.61,1.59c1.86,0.66,2.68,1.95,2.56,3.84c-0.08,1.32,0.32,2.5,0.73,3.72
		c0.58,1.76,1.79,2.81,3.48,3.34c0.75,0.23,1.56,0.3,2.35,0.33c1.85,0.07,1.87,0.04,2.3-1.71c0.29-1.2,0.63-2.4,0.73-3.63
		c0.1-1.24,0.72-2.43,0.32-3.73c-0.09-0.3,0.12-0.7,0.18-1.05c0.19-1.1,0.33-2.2,0.56-3.3c0.24-1.16,0.06-2.39,0.59-3.52
		c0.13-0.28,0.02-0.85-0.19-1.1c-0.48-0.53-0.54-1.14-0.58-1.78c-0.12-1.67-0.63-3.19-1.52-4.61c-3.51-5.61-7.55-10.8-12.01-15.68
		c-0.23-0.25-0.5-0.46-0.84-0.77c-0.26,0.59-0.45,1.03-0.72,1.65c-0.39-0.4-0.73-0.67-0.98-1c-0.86-1.15-1.71-2.31-2.54-3.49
		C110.49,331.97,106.75,328.62,102.76,325.45z M90.45,428.54c0.86-0.48,1.65-0.95,2.47-1.36c0.82-0.41,1.66-0.79,2.5-1.15
		c0.63-0.27,1.18-0.61,1.69-1.09c1.76-1.65,4.47-1.29,5.81,0.68c0.31,0.46,0.73,0.85,1.04,1.3c0.49,0.69,1.2,0.88,1.9,0.63
		c1.14-0.41,2.28-0.88,3.31-1.51c0.87-0.54,1.59-1.33,2.35-2.03c0.18-0.17,0.4-0.49,0.36-0.68c-0.16-0.76,0.28-1.23,0.71-1.68
		c1.04-1.11,2.09-2.21,3.19-3.25c1.54-1.45,2.72-3.11,3.45-5.11c0.72-1.96,1.57-3.85,3.27-5.13c-0.31-1.24-0.29-1.36,0.31-2.44
		c1.23-2.2,2.4-4.42,2.95-6.91c0.1-0.47,0.28-0.91,0.43-1.37c0.24-0.73,0.76-1.38,0.44-2.24c-0.08-0.21,0.14-0.52,0.22-0.79
		c0.36-1.06,0.71-2.12,1.09-3.17c0.19-0.53,0.03-0.85-0.5-0.99c-0.11-0.03-0.24-0.03-0.35-0.07c-1.73-0.61-3.19-1.49-3.49-3.53
		c-0.04-0.25-0.24-0.47-0.35-0.67c-2.77,0.46-3.5,0.52-4.94,0.04c-0.79-0.26-1.37-0.11-1.98,0.37c-2.45,1.94-4.69,4.11-6.73,6.47
		c-3.54,4.09-6.56,8.55-9.13,13.31c-3.68,6.81-7.06,13.78-10.32,20.8c-0.15,0.32-0.29,0.64-0.45,1.01
		C89.98,428.19,90.22,428.37,90.45,428.54z M104.82,155.99c-1.32-1.41-2.57-2.73-3.98-4.24c-0.2,0.59-0.39,0.93-0.43,1.29
		c-0.3,3.01-0.6,6.03-0.82,9.05c-0.07,0.91,0.1,1.83,0.15,2.74c0.03,0.53,0.25,0.89,0.91,1.08c0.54-1.72,0.96-3.45,1.64-5.07
		C102.97,159.2,103.93,157.67,104.82,155.99z M55.62,256.07c0.53-0.49,0.51-0.5,0.87-1.84c0.16-0.58,0.18-1.05-0.31-1.51
		c-0.28-0.26-0.45-0.65-0.61-1.01c-0.61-1.38-1.2-2.77-1.78-4.16c-0.22-0.52-0.47-1-1.16-1.29c-0.18,0.3-0.48,0.57-0.51,0.86
		c-0.15,1.51-0.22,3.02,0.22,4.5C52.6,252.49,54.82,255.47,55.62,256.07z"/>
</g>
</svg>
