<?xml version="1.0" encoding="utf-8"?>
<!-- Generator: Adobe Illustrator 24.0.2, SVG Export Plug-In . SVG Version: 6.00 Build 0)  -->
<svg version="1.1" id="Layer_1" xmlns="http://www.w3.org/2000/svg" xmlns:xlink="http://www.w3.org/1999/xlink" x="0px" y="0px"
	 width="3223.77" height="5001.52" viewBox="0 0 3223.77 5001.52" style="enable-background:new 0 0 3223.77 5001.52;" xml:space="preserve">
<path d="M2479.81,4965.76c-2.02-0.75-3.55-0.88-4.39-1.7c-2.92-2.87-5.79-5.33-10.38-4.68c-5.91,0.83-11.87,1.31-18.38,2.01
	c-10.37,13.04-25.1,18.83-40.91,22.45c-12.32,2.82-24.67,5.59-37.09,7.93c-8.56,1.61-17.11,2.88-24.01,9.76
	c-6.99-2.19-12.58-7.91-20.41-7.05c-2.38,0.26-5.37-1.03-7.41-2.53c-7.84-5.73-15.96-5.55-24.66-2.45
	c-10.66,3.8-22.48,2.97-32.06,8.23c-11.44-3.99-22.09-7.68-32.73-11.41c-13.89-4.87-27.2-10.87-39.22-19.53
	c-4.31-3.11-8.96-5.76-13.52-8.5c-5.91-3.55-12.36-4.69-19.21-4.16c-5.5,0.42-10.04,1.78-13.77,6.61c-3.21,4.16-9.44,3.77-11.74-0.6
	c-5.95-11.32-15.66-17.59-26.88-22.42c-3-1.29-5.57-3.62-8.3-5.53c-11.22-7.86-16.45-18.23-16.03-32.32
	c0.69-22.92,6.08-44.77,12.75-66.44c1.17-3.81,3.46-7.36,4.17-11.22c2.16-11.7,8.76-20.67,16.61-29.03
	c9.58-10.21,18.96-20.59,28.63-30.71c20.11-21.05,31.07-45.96,33.58-75.03c1.49-17.27,2.34-34.54,3.2-51.83
	c1.98-39.9,4.46-79.78,6.77-119.67c1.65-28.59,3.25-57.19,5.06-85.77c0.63-9.97,1.9-19.89,2.71-29.85
	c2.97-36.65,3.46-73.25-3.63-109.55c-5.91-30.26-3.35-59.62,8.11-88.26c4.7-11.76,8.28-23.85,11.03-36.27
	c2.78-12.58,2.68-25.11,1.65-37.75c-0.1-1.22-1.09-2.37-1.75-3.73c-5.71-3.36-12.35-4.17-18.72-5.94
	c-13.46-3.75-26.92-7.59-40.1-12.19c-10.08-3.52-19.36-8.83-27.29-16.27c-7.64-7.18-12.2-15.84-12.77-26.29
	c-0.55-9.98,0.06-19.69,3.46-29.5c7.49-21.63,9.64-43.84,6.9-66.88c-4.05-33.99-13.27-66.53-24.03-98.81
	c-12.87-38.58-29.57-75.66-44.03-113.61c-25.14-65.98-53.26-130.74-79.18-196.4c-17.13-43.38-32.81-87.29-45.62-132.16
	c-9.16-32.07-16.46-64.6-19.91-97.79c-1.56-15.05-6.45-28.27-14.6-40.86c-28.22-43.64-56.1-87.49-84.08-131.29
	c-19.38-30.34-37.9-61.14-52.23-94.3c-12.18-28.18-22.07-57.13-30.55-86.61c-2.17-7.53-3.24-15.58-7.38-21.79
	c-3.94-0.92-3.98,1.62-4.23,3.1c-2.31,13.79-4.64,27.58-6.56,41.43c-1.01,7.31-2.79,14.33-5.13,21.31
	c-12.29,36.66-22.71,73.84-29.69,111.91c-6.01,32.83-10.43,65.84-8.91,99.31c1.47,32.6,3.53,65.15,7.9,97.55
	c7.39,54.81,16.63,109.31,26.51,163.72c5.84,32.11,10.86,64.41,17.95,96.25c6.08,27.33,11.74,54.69,16.22,82.3
	c4.59,28.28,8.51,56.62,10.69,85.23c2.07,27.25,4.07,54.49,3.74,81.82c-0.67,56.14-6.6,111.69-20.24,166.26
	c-6,24.02-14.17,47.26-27.93,68.07c-16.21,24.52-34.35,47.51-56.26,67.29c-10.01,9.04-21.5,15.66-34.33,19.93
	c-5.04,1.67-9.99,3.59-14.24,5.13c-2.98,3.28-3.47,6.56-3.51,9.92c-0.08,6.67-0.14,13.33-0.05,20c0.15,10.76,1.99,21.16,6.17,31.17
	c10.02,23.96,19.3,48.25,29.91,71.94c8.58,19.15,13.4,39.18,15.33,59.71c2.64,28.04-4.18,54.03-20.54,77.5
	c-15.22,21.83-31.71,42.71-45.62,65.54c-36.76,60.34-62.5,124.88-77.63,193.82c-7.87,35.85-13.86,71.93-16.12,108.6
	c-0.37,5.96-1.85,11.84-2.6,17.79c-1.7,13.41-8.71,23.56-19.34,31.34c-10.88,7.97-22.65,13.98-36.4,15.34
	c-5.96,0.59-11.84,1.97-17.81,2.49c-4.73,0.41-8.96,1.52-13.25,3.75c-11.95,6.19-24.87,8.91-38.25,10.61
	c-21.9,2.77-43.79,3.86-65.81,2.99c-8.06-0.32-15.82,0.72-23.68,2.73c-27.25,6.95-55.03,9.92-83.16,9.57
	c-9.31-0.12-18.59-0.62-27.34,3.88c-2.92,1.5-5.98-0.6-7.69-4.31c-0.83-1.81-1.23-3.82-2.1-5.6c-2.26-4.65-4.66-6.13-9.41-5.45
	c-9.22,1.31-18.41,2.82-27.83,4.28c-2.99,3.4-5.99,6.82-9.19,10.46c-2.04-1.39-4.23-2.1-5.06-3.58c-3.13-5.58-7.65-9.04-13.69-10.9
	c-8.96-2.76-14.87-8.53-17.11-17.84c-0.29-1.19-1.42-2.18-2.16-3.26c-0.55-0.37-1.07-1.01-1.66-1.08
	c-12.86-1.65-19.56-10.26-24.26-21.24c-4.81-11.25-6.76-22.47-4.33-34.96c3.99-20.46,10.19-39.93,20.02-58.3
	c7.14-13.33,16.61-23.7,31.19-29.49c12.37-4.91,24.25-11.01,37.22-14.39c2.57-0.67,5.42-1.08,7.54-2.51
	c14.33-9.66,29.66-18.17,41.25-31.26c7.62-8.61,11.02-19.59,13.57-30.75c9.38-40.96,22.57-80.8,35.96-120.56
	c13.17-39.13,26.8-78.11,40.23-117.15c20.83-60.51,37.33-122.25,51.86-184.51c5.6-23.97,9.21-48.41,13.35-72.7
	c1.22-7.15,2.2-14.48,1.27-20.76c-2.73-6.25-7.68-8.79-11.66-12.19c-14.07-12.05-23.48-27.09-29.32-44.51
	c-4.03-12.03-6.5-24.35-8.14-36.99c-4.6-35.39-0.81-70.52,2.64-105.62c2.28-23.18,6.39-46.18,9.17-69.32
	c1.19-9.9,0.7-19.98,1.65-29.92c2.35-24.6,1.73-49.25,1.92-73.89c0.48-60.87-5.68-121.09-18.71-180.49
	c-6.27-28.58-14.3-56.79-21.9-85.07c-13.13-48.89-26.97-97.59-39.73-146.57c-16.13-61.88-30.51-124.16-42.33-187.04
	c-9.97-53.05-16.87-106.55-24.69-159.93c-0.67-4.61-1.35-9.28-2.72-13.7c-2.29-7.41-7.25-12.72-14.71-15.12
	c-8.87-2.85-17.82-5.5-26.82-7.91c-7.84-2.1-14.84-5.64-21.52-10.22c-9.33-6.4-18.92-12.44-28.54-18.41
	c-11.37-7.07-21.59-15.57-31.64-24.35c-10.21-8.92-15.1-19.84-14.82-33.46c0.33-15.99,0.19-32,0-47.99
	c-0.4-33.3-0.76-66.6-1.58-99.89c-0.33-13.5,1.75-26.11,6.12-39.05c8.3-24.61,12.85-50.28,17.05-75.93
	c2.58-15.77,5.23-31.52,8.04-47.25c5.02-28.19,10.43-56.31,11.66-85.03c0.76-17.74,7.49-33.63,15.65-49.05
	c2.79-5.28,5.59-10.6,7.82-16.12c1.95-4.83,0.28-9.51-3.87-12.32c-3.85-2.61-7.71-5.4-11.93-7.25c-7.18-3.14-9.4-9.06-10.09-15.98
	c-0.46-4.63-0.45-9.32-0.68-13.97c-2.18-45.28-3.21-90.56-0.95-135.87c1.7-34.03,7.28-67.52,14.19-100.82
	c10.31-49.63,24.58-98.21,38.83-146.78c20.81-70.95,40.03-142.33,58.48-213.92c1-3.87,1.92-7.76,3.13-11.56
	c2.04-6.44,2.64-12.92,2.25-19.7c-1.49-25.93-2.8-51.87-3.9-77.82c-1.87-43.96-2.22-87.95,0.39-131.89
	c2.34-39.29,8.11-78.13,16.49-116.61c11.79-54.1,28.56-106.75,45.63-159.32c1.83-5.65,4.42-11.15,7.34-16.33
	c23.54-41.79,46.7-83.81,71.05-125.12c23.71-40.23,50.35-78.5,81.73-113.3c33.02-36.63,71.87-65.37,116.43-86.35
	c31.39-14.77,63.76-27.06,97.09-36.76c26.85-7.81,53.69-15.61,80.54-23.44c3.19-0.93,6.37-1.88,9.5-2.99
	c3.77-1.34,5.33-4.77,3.69-7.71c-1.31-2.35-4.18-3.48-6.73-2.38c-6.11,2.63-12.19,5.36-18.26,8.1
	c-26.97,12.16-55.12,19.63-84.71,21.6c-10.91,0.73-21.28-0.86-31.09-5.59c-4.92-2.37-8.69-5.8-10.21-11.52
	c-3.56-13.38-12.2-23.81-22.09-32.65c-6.74-6.03-11.22-12.96-15.27-21.67c-17.47-5.91-31.93-17.59-46.3-29.55
	c-15.06-12.54-27.23-27.36-36.67-44.42c-5.52-9.97-8.89-20.78-10.75-32.05c-1.97-11.88,2.2-21,12.63-26.94
	c7.52-4.28,15.02-8.77,23-11.98c18.62-7.5,31.07-22.15,43.86-34.33c0.61-6.09-2.58-7.79-5.07-9.77
	c-11.49-9.13-22.68-18.49-32.2-29.83c-17.64-21.02-28.14-44.98-31.62-72.17c-0.47-3.65,1.13-8.19-3.18-10.82
	c-1.11,0.45-2.87,0.61-3.21,1.39c-7.24,16.51-12.61,33.63-16.6,51.21c-1.61,7.08-3.58,14.07-5.69,22.29
	c-2.17-2.37-4.2-3.55-4.38-4.96c-0.89-7.24-1.67-14.54-1.82-21.82c-0.31-15.28-0.2-30.56-0.27-45.78c-3.3-0.17-3.73,1.66-4.13,3.42
	c-1.93,8.43-3.73,16.9-5.79,25.3c-0.61,2.48-1.81,4.95-5.98,4.39c-0.42-4.38-1.21-8.98-1.23-13.58
	c-0.23-36.09,2.65-71.86,11.33-107.02c4.51-18.28,11.26-35.52,22.51-50.81c1.12-1.52,1.68-3.45,2.47-5.11
	c-2.65-2.38-4.99-1.17-7.43-0.05c-17.04,7.8-34.66,13.64-53.31,16.29c-10.85,1.54-21.27,0.27-31.48-3.28
	c-2.84-0.99-5.82-2.21-7.61-6.11c23.78,3.48,43.12-5.98,60.81-19.57c7.89-6.06,15.34-12.87,22.15-20.12
	c15.99-17.02,32.47-33.44,52.03-47.21c2.5-9.43,5.6-18.9,11.24-26.95c-2.12-5.65-7.41-5.54-11.34-7.52
	c-31.63-15.94-46.2-42.72-48.95-77c-0.14-1.78-0.05-1.79,4.99-5.27c0.55,4.14,1.03,8.1,1.59,12.05
	c3.73,26.03,19.27,41.53,43.75,49.05c2.4,0.74,5-1.89,4.6-4.84c-0.62-4.61-1.2-9.24-2.23-13.77c-6.83-29.85-13.83-59.66-20.68-89.51
	c-2.55-11.12-4.27-22.28,0.84-33.58c8.78-2.01,15.39,2.47,21.1,8.21c6.57,6.6,12.65,13.71,18.7,20.8
	c6.48,7.61,12.67,15.46,19.01,23.19c1.66,2.02,3.31,4.12,7.23,4.27c4.24-4.11,2.9-10.8,5.29-16.04c2.21-4.84,3.85-9.98,6.41-14.62
	c2.89-5.23,6.27-10.24,9.9-14.99c3.22-4.22,6.91-8.12,10.72-11.84c4.07-3.97,8.44-7.69,14.01-9.83c1.61,4.86-1.66,7.08-3.05,9.83
	c-4.54,9.02-7.2,18.55-9.41,28.34c-2.07,9.19,0.11,17.26,5.36,24.55c8.87,12.33,21.16,20.1,35.41,24.79
	c2.4,0.79,5.33,0.78,7.84,0.27c7.17-1.47,14.57-2.56,21.29-5.28c20.74-8.38,42.62-10.12,64.46-12.3c5.27-0.53,10.59-0.56,15.74-0.81
	c0.74-3.74-1.3-5.29-3.77-6.25c-21.98-8.47-44.12-9.01-66.39-1.13c-2.4,0.85-4.42,3.1-7.43,1.99c-1.58-2.13,0.44-3.53,1.55-4.34
	c34.57-25.4,72.23-39.63,115.95-31.84c3.23,0.58,6.91,1.73,9.78,0.79c11.72-3.84,23.74-2.83,35.69-3.28
	c1.94-0.07,3.87-0.67,5.25-0.92c4.23-2.51,5.52-6.43,7.28-9.97c5.64-11.33,11.21-22.69,16.79-34.05
	c5.9-12.02,12.65-23.42,22.73-32.56c2.89-2.62,5.16-5.92,7.92-9.16c6.32,0.94,11.01,4.55,14.43,9.45
	c5.33,7.63,10.53,15.42,14.99,23.58c8.63,15.8,15.74,32.31,21.47,49.42c2.52,7.52,4.44,15.38,10.03,22.99
	c8.45,3.11,17.86,6.37,27.1,10.06c8.02,3.2,16.21,6.23,23.68,10.48c19.85,11.29,34.17,27.39,39.79,50.13
	c5.42-1.88,5.51-6.05,5.45-9.75c-0.27-17.12-5.3-32.69-15.33-46.71c-2.09-2.93-7.03-4.44-5.59-9.52c9.72,2.44,12.39,3.52,21.32,12
	c6.24,5.94,12.25,12.32,17.29,19.28c5.04,6.96,9.5,14.57,12.84,22.48c3.06,7.27,5.14,15.21,6.09,23.05
	c1.03,8.52,1.47,17.39-0.93,25.84c-2.36,8.3-5.19,16.49-8.31,24.53c-3.07,7.89-9.23,14.2-13.62,21.63
	c6.16,2.65,10.7,0.43,15.27,0.25c12-0.47,23.98-1.12,35.8,1.83c32.79,8.18,54.74,29.04,68.7,59.04c3.35,7.2,5.89,14.77,8.65,21.77
	c4.78,3.37,9.16-0.74,13.35-0.1c0.66,1.57,1.78,2.88,1.56,3.88c-5.42,23.98-9.4,48.35-18.82,71.29c-0.66,1.6-0.09,3.7-0.09,5.48
	c7.53,1.76,11.12-7.55,18.26-5.41c0.15,1.21,0.86,2.81,0.35,3.57c-6.09,9.08-8.36,19.53-10.92,29.86
	c-3.52,14.22-6.22,28.68-10.46,42.67c-3.45,11.41-8.66,22.29-13.04,33.43c-0.94,2.39-2.45,4.86,0.33,7.8
	c5.77-2.64,11.87-5.16,17.7-8.19c5.78-3.01,11.3-6.54,17.35-10.1c2.44,6.98-0.06,12.68-1.82,18.11
	c-4.55,14.01-7.29,28.39-9.49,42.88c-1.8,11.85-3.35,23.76-4.38,35.7c-1.5,17.28-4.2,34.36-7.39,51.39
	c-0.22,1.15,0.53,2.49,1.06,4.69c13.09-2.65,23.33-11.47,34.94-16.74c0.77,0.99,1.34,1.46,1.55,2.05c0.19,0.54,0.17,1.28-0.05,1.81
	c-7.74,18.39-15.51,36.76-22.86,55.31c-0.54,4.7,4.59,6.98,4.52,11.04c-0.06,3.31-0.46,6.68-1.23,9.89
	c-4.53,18.79-0.87,37.05,3.35,55.28c1.46,6.28,4.79,10.22,11.39,12.43c55.69,18.71,108.59,44.03,161.51,69.2
	c43.92,20.9,87.12,43.23,129.19,67.67c19.02,11.05,37.42,23.05,55.27,35.96c28.89,20.89,53.82,45.69,74.66,74.56
	c6.67,9.23,14.04,17.68,22.31,25.51c19.44,18.41,36,39.22,50.44,61.79c21.98,34.35,40.12,70.72,56.36,107.98
	c52.21,119.77,97.75,242.06,136.96,366.69c4,12.7,7.92,25.44,11.33,38.31c2.23,8.4,6.89,13.77,14.8,17.48
	c12.05,5.65,23.81,11.96,35.4,18.53c22.1,12.52,42.8,27.05,61.31,44.56c1.89,1.79,4.03,3.32,5.9,4.85c4.03-1.87,2.52-4.57,1.42-6.56
	c-10.98-19.81-22.12-39.53-33.21-59.28c-3.91-6.97-7.87-13.92-11.67-20.95c-0.55-1.02-0.3-2.47-0.42-3.77
	c1.97-2.84,3.57-0.14,4.5,0.76c26.85,25.91,54.17,51.35,78.77,79.5c26.76,30.64,52.59,62.01,75.99,95.32
	c13.04,18.56,25.05,37.76,35.65,57.81c31.85,60.23,47.09,124.24,43.72,192.5c-1.62,32.73-6.43,64.92-14.97,96.57
	c-0.94,3.49-3.22,7.32,0.4,11.18c7.81-7.52,12.74-16.86,17.37-26.34c21.07-43.1,40.62-86.87,57.23-131.92
	c2.29-6.22,5.14-12.24,7.94-18.25c0.42-0.89,2.1-1.83,3.03-1.68c1.04,0.16,2.48,1.41,2.69,2.41c0.55,2.55,0.92,5.27,0.66,7.85
	c-2.32,23.19-4.76,46.38-7.24,69.56c-2.06,19.21-4.25,38.4-6.31,57.6c-3.13,29.14-5.76,58.34-9.4,87.41
	c-4.38,35.07-11.29,69.62-22.92,103.17c-7.45,21.5-16.4,42.18-28.01,61.73c-1.34,2.25-2.35,4.71-3.37,7.13
	c-0.17,0.39,0.32,1.19,0.69,1.64c0.35,0.42,1.15,0.99,1.42,0.85c3.53-1.83,7.29-3.39,10.43-5.75
	c20.31-15.27,43.18-26.42,64.39-40.22c1.48-0.97,3.8-1.04,5.66-0.87c0.85,0.08,2.4,2.18,2.17,2.69c-1.06,2.29-2.26,4.78-4.1,6.41
	c-12.16,10.73-20.96,23.96-29.32,37.68c-15.95,26.17-32.16,52.2-48.7,78c-22,34.31-47.02,66.19-75.63,95.37
	c-38.27,39.02-82.14,69.74-131.72,92.56c-28.32,13.03-46.63,19.38-87.01,29.19c-0.47,3.73,2.85,3.59,4.78,4.06
	c12.28,2.95,24.24,7.38,37.02,8.1c2.63,0.15,6.17,0.53,5.82,3.75c-0.21,1.87-3.22,4.27-5.42,4.92c-6.35,1.86-12.93,2.92-19.4,4.35
	c-26.89,5.94-54.14,7.16-81.51,5.57c-7.92-0.46-15.73-2.72-23.65-3.63c-3.61-0.41-7.26-3.58-11.07-0.46
	c0.02,4.05,3.57,5.39,5.86,7.57c19.27,18.41,38.95,36.41,57.83,55.22c10.35,10.32,19.41,21.93,28.98,33.02
	c1.28,1.48,2.37,3.26,3.03,5.08c0.37,1.03,0.06,2.74-0.63,3.6c-0.71,0.89-2.35,1.72-3.41,1.53c-3.91-0.69-7.82-1.59-11.6-2.79
	c-38.36-12.14-77.73-18.07-117.84-20.25c-27.3-1.49-54.59-1.34-81.9-1.64c-34.04-0.37-67.88-2.89-101.02-11.45
	c-27.24-7.03-53.42-16.57-77.17-32.03c-1.66-1.08-3.55-1.81-5.38-2.58c-0.57-0.24-1.31-0.09-1.96-0.12
	c-1.95,1.11-2.46,2.97-2.03,4.89c4.59,20.35,4.5,41.02,4.23,61.68c-0.4,30.45-8.34,59.2-20.04,87.07c-0.97,2.31-1.49,2.57-7.45,5.34
	c-3.27-2.82-3.97-6.73-4.71-10.7c-5.07-27.13-16.25-52.02-28.44-76.5c-1.72-3.45-4.28-7.17-7.46-9.1
	c-20.09-12.18-37.12-28.01-53.91-44.16c-0.4-0.39-1.28-0.27-2.48-0.49c-3.59,8.64-4.44,17.84-4.82,27.11
	c-0.28,6.94,3.11,12.88,5.67,18.99c10.56,25.18,21.25,50.31,31.89,75.46c5.96,14.1,12.38,28.04,17.72,42.37
	c5.11,13.71,8.87,27.9,13.6,41.76c25.22,73.86,44.4,149.29,60.02,225.72c11.34,55.49,21.37,111.22,30.02,167.16
	c8.14,52.65,14.95,105.51,22,158.32c5.02,37.64,9.61,75.34,14.13,113.04c2.06,17.19,3.55,34.45,5.19,51.69
	c3.58,37.79,7.15,75.58,10.59,113.39c1.63,17.91,3.09,35.84,4.38,53.78c1.9,26.58,3.49,53.17,5.38,79.75
	c1.61,22.59,3.57,45.15,5.19,67.74c1.09,15.28,2.68,30.58,2.59,45.86c-0.16,25.99-9.78,47.93-30.99,63.97
	c-0.53,0.4-1.11,0.74-1.65,1.13c-13.21,9.57-13.48,9.66-8.62,23.97c4.92,14.49,9.07,29.48,16.01,42.99
	c10.72,20.88,10.74,42.18,7.05,64.22c-0.99,5.9-2.41,11.75-3.84,17.56c-6.55,26.59-10.77,53.41-10.7,80.96
	c0.05,19.28-1.87,38.57-2.5,57.86c-0.78,23.97-0.24,47.93,1.4,71.86c0.23,3.32,0.38,6.65,0.42,9.98
	c0.54,44.65,0.57,89.3,1.74,133.93c0.72,27.27,2.46,54.56,5.07,81.71c2.29,23.83,6.37,47.48,9.84,71.19
	c0.57,3.91,1.99,7.71,3.11,11.54c3.18,10.85,6.39,21.7,9.61,32.54c7.84,26.4,9.71,53.61,11.46,80.9c1.06,16.53-5.99,28.35-19,37.06
	c-6.03,4.04-12.67,7.66-19.54,9.85C2504.74,4951.96,2491.14,4957,2479.81,4965.76z M2232.38,1954.11c2.21-1.5,5.07-3.11,7.56-5.18
	c9.22-7.65,18.28-15.47,27.45-23.18c23.98-20.18,50.3-37.12,76.01-54.91c30.72-21.25,59.47-44.76,84.93-72.28
	c10.51-11.35,16.51-24.44,17.31-39.3c1.23-22.8,1.39-21.31-14.19-34c-35.12-28.59-69.54-57.96-96.25-95.11
	c-1.54-2.14-3.33-4.19-6.42-4.47c-2.77,0.23-4.55,2.21-6.13,4.29c-22.15,29.19-42.99,59.26-59.32,92.17
	c-17.28,34.81-28.39,71.51-34.24,110c-4.63,30.49-3.79,61.03-3.41,91.62c0.1,7.97,0.89,15.93,1.49,23.89
	C2227.39,1950.39,2228.77,1952.56,2232.38,1954.11z M2649.31,2097.5c-4.43,1.04-7.13,1.31-9.54,2.29
	c-48.09,19.53-97.16,36.31-146.66,51.83c-44.4,13.92-89.04,27.09-133.54,40.72c-5.26,1.61-10.2,2.92-15.25-0.38
	c-4.56-2.99-8.89-1.52-13.03,1.07c-3.95,2.46-7.87,4.98-11.78,7.5c-11.87,7.63-24.34,13.37-38.67,15.05
	c-10.15,1.19-12.04,4.94-10.97,14.95c0.88,8.18,4.85,13.56,12.49,16.37c3.12,1.15,6.18,2.49,9.32,3.55
	c60.76,20.46,123.04,27.38,186.81,20.84c28.18-2.89,54.62-10.91,78.82-26.15c47.35-29.83,77.87-71.59,90.72-126.14
	C2649.55,2112.56,2650.7,2106.1,2649.31,2097.5z"/>
</svg>
