<?xml version="1.0" encoding="utf-8"?>
<!-- Generator: Adobe Illustrator 24.0.2, SVG Export Plug-In . SVG Version: 6.00 Build 0)  -->
<svg version="1.1" id="Layer_1" xmlns="http://www.w3.org/2000/svg" xmlns:xlink="http://www.w3.org/1999/xlink" x="0px" y="0px"
	 viewBox="0 0 3112.32 4999.64" style="enable-background:new 0 0 3112.32 4999.64;" xml:space="preserve">
<path d="M1184.21,355.76c16.78,2.94,31.53-2.86,45.66-10.9c12.84-7.31,24.1-16.73,34.13-27.51c15.44-16.61,31.06-32.99,49.75-46.08
	c2.78-1.95,4.85-4.64,5.35-8.12c1.15-8.02,5.6-14.78,8.87-21.71c-3.09-6.2-9.49-5.44-13.62-8.44c-4.83-3.51-10.25-6.26-14.88-9.99
	c-4.11-3.31-7.82-7.27-11.14-11.4c-3.32-4.13-6.23-8.67-8.79-13.32c-2.56-4.65-4.88-9.52-6.57-14.54
	c-1.91-5.66-3.33-11.54-4.36-17.42c-0.91-5.21-1.46-10.59,0.92-16.21c4.53,4.05,4.74,9.44,5.36,14.51
	c2.88,23.79,17.2,38.16,38.36,46.94c1.79,0.74,3.89,0.76,5.84,1.1c1.49,0.26,4.31-1.9,4.17-3.3c-0.33-3.3-0.47-6.66-1.21-9.88
	c-6.85-29.86-13.83-59.68-20.73-89.53c-1.05-4.54-1.48-9.24-2.79-13.7c-2.6-8.82-1.49-17.01,3.19-24.97
	c8.67-1.04,15.37,3.11,20.92,9.02c8.2,8.74,15.94,17.91,23.82,26.95c6.07,6.96,11.31,14.67,17.64,20.44
	c3.41-0.52,4.29-2.1,4.87-4.02c1.53-5.1,2.96-10.25,4.69-15.28c3.52-10.19,9.05-19.31,15.84-27.61
	c6.31-7.72,13.11-15.01,22.38-19.64c0.51,1.61,1.47,3.03,1.1,3.71c-5.86,10.6-9.75,21.86-12.2,33.7c-1.87,9.05-0.08,17.27,5.2,24.65
	c8.44,11.79,20.34,19.11,33.49,24.34c3.47,1.38,7.95,1.07,11.8,0.46c6.56-1.04,13.33-2.1,19.4-4.62
	c22.61-9.38,46.35-11.57,70.4-12.19c3.3-0.09,6.61-0.01,9.5-0.01c2.12-3.69,0.94-5.58-1.85-6.78c-22.46-9.74-45.15-10.33-68.07-1.72
	c-2.39,0.9-4.6,2.96-7.37,0.98c-0.15-3.14,2.34-4.61,4.35-6.01c25.66-17.8,53.77-29.21,85.12-31.63c5.24-0.4,10.63,0.27,15.87,1.03
	c11.94,1.72,23.66,2.51,35.69-0.36c6.99-1.67,14.56-1.01,21.88-1.18c5.21-0.12,8.84-2.36,11.07-7.03
	c3.75-7.81,7.51-15.61,11.3-23.39c2.33-4.79,4.93-9.46,7.09-14.33c7.16-16.12,18.31-29.13,31.25-40.7c5.43-0.47,9.11,2.72,11.78,6.4
	c5.87,8.05,11.62,16.27,16.51,24.94c8.84,15.69,15.72,32.31,21.79,49.28c9.7,27.11,3.89,21.74,32.67,32.28
	c10.61,3.89,21.28,7.52,30.98,13.69c16.27,10.35,28.92,23.39,35.04,42.1c0.75,2.28,0.86,5.33,3.96,6.28
	c7.34-18.63,1.98-37.37-18.49-64.74c1.4-1.92,3.56-2.2,5.25-1.21c24.62,14.37,41.81,35.1,50.35,62.21
	c7.6,24.11,3.8,47.47-8.34,69.47c-3.17,5.75-6.89,11.2-10.21,16.55c3.07,3.97,6.46,2.38,9.4,1.84c11.28-2.08,22.4-1.72,33.76-0.04
	c25.92,3.82,45.86,17.24,61.74,37.26c7.89,9.95,14.01,21.1,18.03,33.23c0.99,2.99,2.35,6.29-0.01,9.73
	c-5.83-1.32-7.39-7.17-11.13-10.63c-4.39-4.07-8.38-8.58-12.88-12.51c-4-3.5-8.33-6.67-12.74-9.65c-4.13-2.79-8.08-6.57-15.52-5.7
	c5.93,8.23,11.41,14.75,15.63,22c4.33,7.42,7.43,15.56,11.36,23.99c4.86,4.2,10.99,1.94,16.66,0.85c7.13-1.38,14.04-3.86,21.06-5.79
	c1.81-0.5,3.72-0.68,5.82-1.05c3.85,6.47-1.61,11.58-2.05,17.24c-0.41,5.26-2.06,10.44-3.26,15.63c-1.34,5.84-2.66,11.69-4.23,17.47
	c-1.4,5.14-3.14,10.18-4.7,15.27c-1.68,5.47-5.04,10.53-5.2,16.8c8.03-0.26,11.98-7.85,19.16-7.1c1.56,0.71,2.08,1.87,1.19,3.27
	c-5.44,8.56-8.24,18.07-10.56,27.83c-3.54,14.9-6.78,29.9-11.22,44.54c-4.04,13.31-9.51,26.19-14.45,39.52
	c0.73,1.99,2.65,2.24,4.43,1.32c8.87-4.55,17.63-9.33,26.5-13.89c1.63-0.84,3.57-1.07,5.26-1.54c2.88,4.16,1.25,8.08,0.32,11.86
	c-2.39,9.68-5.6,19.2-7.44,28.98c-2.71,14.39-5.07,28.89-6.55,43.45c-2.03,19.9-4.64,39.68-8.26,59.34
	c-0.34,1.85,0.25,3.86,0.48,6.63c7.22,0.1,12.51-4.05,18.18-6.86c5.85-2.91,11.51-6.21,16.64-8.99c2.63,1.16,2.84,2.19,2.18,3.75
	c-7.29,17.14-14.61,34.28-21.72,51.49c-1.55,3.75-1.82,7.41,2.01,10.73c2.73,2.37,1.79,6.31,0.87,9.42
	c-6.33,21.4-2.27,42.23,3.2,62.99c6.19,23.48,20.98,39.75,42.76,49.72c26.1,11.95,51.26,25.62,75.43,41.04
	c35.53,22.67,68.62,48.57,97.24,79.55c12.44,13.46,26.49,21.01,44.34,24.34c28.17,5.25,55.69,13.38,82.32,24.13
	c11.72,4.73,23.21,10.1,34.61,15.56c28.67,13.73,52.99,33.27,73.93,56.98c5.68,6.43,10.3,13.93,14.62,21.38
	c18.24,31.46,29.07,65.68,36.32,101.09c2.8,13.68,4.74,27.56,6.52,41.43c1.04,8.15,3.67,15.55,7.95,22.39
	c6.37,10.14,12.19,20.77,19.64,30.07c34.01,42.41,60.77,89.05,82.64,138.66c14.82,33.6,27.3,67.91,34.57,104.05
	c3.68,18.27,8.07,36.44,13.1,54.38c4.12,14.72,9.66,29.05,14.57,43.56c1.59,4.71,4.79,7.77,9.35,9.74
	c9.17,3.97,18.3,8.02,27.35,12.24c37.6,17.57,73.29,38.12,103.73,66.82c1.42,1.34,3.28,2.24,5,3.22c0.33,0.19,0.97-0.18,1.88-0.38
	c0.46-7.05-4.36-12.08-7.22-17.78c-2.99-5.94-6.49-11.63-9.73-17.45c-3.57-6.4-7-12.88-10.68-19.21
	c-3.34-5.76-7.13-11.28-10.34-17.11c-3.09-5.61-7.29-10.86-8.17-18.07c2.12,0.25,3.56-0.04,4.21,0.55
	c53.18,48.8,101.56,101.93,144.45,160.02c18.23,24.7,34.83,50.42,48.93,77.74c17.85,34.6,30.77,70.96,36.96,109.36
	c5.32,32.96,6.55,66.17,2.88,99.58c-3.14,28.56-7.86,56.71-15.76,84.33c-0.3,1.05,0.42,2.39,0.77,4.08
	c1.66-1.27,3.48-2.14,4.56-3.57c9.69-12.86,16.6-27.33,23.28-41.84c18.11-39.32,36.19-78.66,50.38-119.65
	c1.3-3.76,2.9-7.47,4.82-10.95c0.83-1.5,2.72-3.13,4.3-3.33c2.39-0.3,2.88,2.16,2.87,4.09c-0.02,3.99-0.08,8-0.48,11.96
	c-2.29,22.53-4.74,45.05-7.01,67.59c-1.87,18.56-3.49,37.14-5.37,55.69c-4.84,47.71-8.89,95.52-19.48,142.45
	c-8.71,38.59-21.62,75.51-42.03,109.58c-0.67,1.12-1.2,2.34-1.65,3.57c-0.2,0.55-0.03,1.24-0.03,1.73c0.7,1.74,1.79,2.31,3.11,1.5
	c5.09-3.13,10.12-6.36,15.19-9.52c19.22-11.99,38.43-23.98,57.69-35.91c1.08-0.67,2.52-1.1,3.77-1.07c1.2,0.03,2.76,0.48,3.48,1.32
	c0.64,0.75,0.89,2.67,0.37,3.42c-1.89,2.69-3.93,5.38-6.36,7.57c-10.02,9.04-17.39,19.99-24.4,31.43
	c-17.39,28.41-35.18,56.59-53.08,84.69c-24.82,38.98-54.05,74.34-87.65,106.09c-23.85,22.53-49.91,42.14-78.46,58.27
	c-34.31,19.39-69.85,36.02-108.52,45c-5.73,1.33-11.45,2.67-18.42,4.3c7.37,7.83,16.93,6.16,24.74,8.91
	c7.94,2.8,16.48,3.93,24.94,5.83c-2.3,4.95-5.91,6.61-9.88,7.5c-31.36,7.05-63.08,10.5-95.24,8.68c-8.64-0.49-17.27-1.2-25.65-3.83
	c-3.08-0.96-6.38-2.05-9.73-0.58c-1.95,3.22,0.89,4.61,2.55,6.2c20.7,19.81,41.63,39.37,62.14,59.38
	c10.96,10.7,21.11,22.22,29.26,35.3c0.58,0.93,0.54,2.78-0.02,3.72c-0.56,0.93-2.19,1.82-3.27,1.73c-2.6-0.23-5.19-0.9-7.71-1.65
	c-18.52-5.56-37.21-10.3-56.21-13.97c-19.02-3.67-38.18-6.2-57.48-6.87c-28.63-1-57.3-0.75-85.93-1.7
	c-32.61-1.08-65.22-2.64-97.22-10.05c-30.04-6.95-58.92-16.74-85.01-33.66c-1.66-1.07-3.55-1.79-5.35-2.63
	c-1.53-0.7-4.31,1.23-4.14,2.99c0.44,4.62,0.89,9.24,1.55,13.83c6.75,47.3,1.2,92.96-18.08,136.81c-0.27,0.61-0.44,1.39-0.91,1.76
	c-1.52,1.17-3.19,3.08-4.76,3.05c-2.77-0.06-4.61-2.33-5.15-5.13c-0.63-3.26-0.75-6.64-1.53-9.86c-6.08-25.43-16.57-49.2-28.12-72.5
	c-1.7-3.42-4.58-6.81-7.78-8.84c-19.29-12.2-36.59-26.68-51.99-43.5c-0.69-0.75-2.51-1.11-3.49-0.77c-1.01,0.36-2.16,1.71-2.35,2.78
	c-1.76,9.82-2.92,19.77-5.06,29.5c-2.58,11.69-5.12,23.51-9.23,34.7c-3.37,9.17-4.21,18.09-2.75,27.43
	c5.65,36.27,7.64,72.88,9.63,109.44c1.19,21.91,2.15,43.91,0.79,65.93c-1.23,19.93-1.35,39.93-2.37,59.87
	c-1.39,27.27-2.78,54.55-4.91,81.77c-2.03,26.1-0.84,51.82,4.79,77.44c8.72,39.72,13.81,80.06,19.47,120.29
	c1.98,14.09,6.9,27.06,13.85,39.3c7.6,13.37,16.77,25.63,27.2,36.95c14.45,15.68,28.75,31.5,43.19,47.18
	c20.4,22.15,37.51,46.76,53.5,72.15c4.22,6.7,7.19,14.26,10.19,21.65c10.55,26.01,17.58,53.08,23.61,80.43
	c4.74,21.5,7.78,43.19,9.24,65.21c1.32,20.01,0.64,39.89-1,59.75c-0.76,9.22-2.82,18.46-5.42,27.37
	c-8.97,30.79-15.4,62.07-18.12,93.99c-2.14,25.21-3.32,50.5-4.58,75.78c-1.2,24.05,0.43,48.16,4.69,71.69
	c4.73,26.13,10.67,52.18,19.59,77.34c4.45,12.55,8.51,25.37,14.45,37.22c9.78,19.51,10.75,39.53,6.82,60.32
	c-1.23,6.54-2.65,13.06-4.2,19.53c-6.4,26.64-10.57,53.5-10.55,81.04c0.01,18.62-1.97,37.24-2.25,55.87
	c-0.34,23.31,0.11,46.63,0.3,69.95c0.06,7.33,0.36,14.65,0.54,21.98c0.76,31.29,1.54,62.58,2.24,93.87
	c0.21,9.33-0.06,18.67,0.28,27.99c0.48,13.31,1.31,26.61,2.01,39.91c0.64,11.97,1.27,23.93,1.99,35.89
	c0.4,6.65,0.35,13.42,1.63,19.91c3.88,19.62,7.06,39.32,9.09,59.22c0.53,5.22,2.09,10.45,3.94,15.4
	c13.65,36.59,19.43,74.57,21.07,113.41c0.63,14.91-6.24,25.56-17.24,34.07c-7.93,6.14-16.88,11.07-26.63,13.44
	c-12.56,3.05-23.65,8.67-33.94,16.42c-2.05-0.78-4-1.22-5.61-2.2c-1.67-1.02-3.02-2.56-5.12-4.41c-7.38,0.88-15.22,1.82-23.68,2.83
	c-9.84,12.48-23.97,18.07-39.09,21.61c-12.96,3.04-26,5.78-39.05,8.38c-8.51,1.7-16.9,3.47-23.55,9.45
	c-6.85-1.74-11.66-7.36-18.8-6.99c-5.59,0.29-10.11-3.02-14.73-5.65c-3.74-2.12-7.61-2.17-11.6-1.19
	c-13.52,3.31-27.03,6.65-41.27,10.16c-9.59-5.06-20.39-8.32-31.13-11.79c-13.39-4.32-25.96-10.31-37.46-18.54
	c-4.86-3.48-10.16-6.34-15.31-9.4c-5.3-3.14-11.02-4.48-17.22-4.16c-6.2,0.32-11.94,1.04-15.31,7.42c-0.77,1.46-3.13,2.09-4.48,2.93
	c-3.88-0.83-7.12-2.56-8.46-5.57c-4.41-9.88-12.41-15.04-21.92-19.09c-8.02-3.41-14.68-8.98-20.57-15.55
	c-4.22-4.71-6.73-9.78-6.81-16.11c-0.16-12.66,0.17-25.16,2.82-37.74c4-18.97,9.66-37.35,15.91-55.63
	c2.45-7.16,6.78-12.98,11.7-18.41c9.84-10.86,19.6-21.83,29.96-32.19c22.28-22.29,33.5-49.33,35.31-80.44
	c1.9-32.58,3.27-65.19,5.13-97.78c1.6-27.92,3.58-55.81,5.37-83.72c0.38-5.98,0.83-11.97,0.95-17.96
	c0.65-32.67,4.28-65.12,7.03-97.64c2.59-30.67,1.41-61.25-4.34-91.58c-2.62-13.8-3.54-27.73-3.15-41.77
	c0.5-17.51,4.42-34.23,10.73-50.56c3.83-9.91,7.04-20.12,9.76-30.4c6.24-23.58,4.85-47.62,2.82-71.53
	c-1.52-17.89-2.63-35.85-4.62-53.65c-2.28-20.44-6.88-40.7-11.56-60.78c-5.44-23.35-12.51-46.25-21.61-68.52
	c-9.09-22.26-19.66-43.76-32.54-64.03c-12.51-19.68-25.59-38.99-38.6-58.35c-38.11-56.7-69.03-116.95-89.94-182.14
	c-1.02-3.17-1.96-6.41-3.41-9.39c-12.16-24.81-16.77-51.87-23.36-78.33c-1.61-6.46-3.22-12.95-4.3-19.51
	c-3.55-21.5-12.88-40.55-24.85-58.39c-29.3-43.67-48.79-91.47-61.15-142.44c-4.56-18.8-11.92-36.64-22.44-53.05
	c-25.52-39.83-50.75-79.86-76.48-119.56c-36.71-56.63-59.7-118.81-75.24-184.03c-3.7-15.52-6.57-31.24-9.95-47.48
	c-1.62,1.29-3.88,2.16-4.25,3.54c-4.17,15.41-8.71,30.77-11.87,46.4c-8.87,43.83-21.29,86.64-35.74,128.9
	c-5.6,16.38-11.67,32.6-17.28,48.98c-4.32,12.61-7.51,25.51-10.38,38.56c-2.61,11.87-3.55,23.72-3.16,35.72
	c0.88,26.62,2.03,53.23,2.97,79.85c0.21,5.99,0.39,12.03-0.08,17.99c-2.32,29.21-4.95,58.37-11.34,87.08
	c-2.6,11.67-4.74,23.57-5.6,35.47c-1.37,19.07,4.02,36.97,12.85,53.7c4.34,8.23,9.63,15.97,14.79,23.74
	c13.67,20.55,26.52,41.54,36.73,64.08c7.72,17.04,13.38,34.77,18.92,52.6c16.59,53.43,21.94,108.14,19.66,163.82
	c-1.31,32.05-6.21,63.6-12.6,94.97c-2.95,14.48-7.83,28.09-15.79,40.72c-12.08,19.15-23.37,38.81-35.33,58.03
	c-14.1,22.66-26.61,46.15-37.93,70.31c-14.05,29.96-22.07,61.33-22.84,94.48c-0.37,15.98-0.98,31.96-1.3,47.95
	c-0.32,15.49,2.24,30.28,8.67,44.67c9.79,21.88,18.11,44.41,27.76,66.35c8.72,19.8,13.74,40.56,15.1,61.84
	c1.69,26.55-4.59,51.62-20.41,73.62c-9.71,13.51-20.38,26.38-29.47,40.29c-16.4,25.09-31.89,50.73-45.06,77.75
	c-26.75,54.88-44.65,112.53-55.33,172.54c-4.09,22.97-7.64,46-9.15,69.32c-0.52,7.96-2.18,15.85-2.73,23.82
	c-0.83,12.05-6.4,21.79-14.82,29.7c-9.32,8.74-20.32,15.05-32.94,18.04c-2.59,0.61-5.26,0.86-7.9,1.22
	c-7.9,1.09-15.98,1.45-23.65,3.42c-6.98,1.79-13.48,5.43-20.26,8.05c-12.59,4.86-25.9,6.41-39.17,7.21
	c-17.27,1.03-34.61,1.22-51.92,1.24c-6.72,0.01-13.26,0.23-19.77,1.97c-30.48,8.14-61.59,11.09-93.04,10.37
	c-8.88-0.2-16.99,1.88-24.23,5.5c-1.91-1.28-3.22-1.79-4-2.75c-3.32-4.04-2.25-10.86-7.93-13.31c-4.54-1.96-9.16,0.46-13.75,0.75
	c-3.32,0.21-6.62,0.92-9.94,1.03c-7.31,0.24-12.7,3.28-16.11,9.89c-0.46,0.88-2.18,1.11-3.64,1.8c-1.39-1.14-3.33-2.1-4.31-3.67
	c-2.94-4.71-6.49-8.37-12.13-9.62c-1.27-0.28-2.38-1.35-3.65-1.57c-13.88-2.41-11.13-23.64-26.95-23.79
	c-12.52-6.56-15.73-19.03-19.79-31.01c-1.98-5.86-2.29-11.76-1.2-17.75c3.84-21.07,9.53-41.56,19.69-60.55
	c2.82-5.27,6.18-10.27,9.6-15.17c4.25-6.11,9.76-10.61,16.67-13.85c13.89-6.51,27.73-13.09,42.57-17.14
	c7.23-1.97,13.59-5.24,19.47-9.78c5.27-4.07,10.56-8.17,16.17-11.73c13.67-8.69,22.61-21.24,26.04-36.53
	c14.78-65.84,38.38-128.89,60.01-192.55c14.99-44.14,30.46-88.13,43.09-133c14.62-51.92,28.58-104.08,36.92-157.45
	c5.65-36.17,10.56-72.46,13.66-109.02c2.6-30.61,3.35-61.18,3.32-91.82c-0.05-48.66-0.35-97.31-0.65-145.97
	c-0.15-24.65,0.1-49.34-0.98-73.96c-2.08-47.24-4.84-94.44-7.62-141.64c-0.71-11.95-2.58-23.84-3.91-35.76
	c-2.17-19.47-8.7-37.54-17.87-54.7c-9.77-18.28-17.47-37.38-23.57-57.18c-5.13-16.64-8.73-33.7-9.15-51
	c-1.08-44.02-12.82-85.43-28.89-125.89c-9.11-22.93-19.65-45.13-32.78-66.15c-6.31-10.1-11.35-21.14-15.9-32.19
	c-17.81-43.27-30.13-88.19-38.74-134.12c-3.19-17.01-5.59-34.18-8.26-51.29c-2.16-13.81-12.58-26.06-25.74-29.99
	c-2.54-0.76-5.13-1.41-7.7-2.06c-18.26-4.62-35.33-11.59-50.16-23.65c-5.12-4.16-11.32-7-16.98-10.51
	c-11.95-7.4-22.65-16.37-32.91-25.95c-8.85-8.26-12.97-18.52-13.23-30.26c-0.61-27.3-1.76-54.61-0.23-81.93
	c0.55-9.97,0.19-19.99,0.07-29.99c-0.14-11.32-0.33-22.65-0.77-33.96c-0.6-15.42,1.52-30.03,6.64-44.94
	c8.65-25.19,12.97-51.62,17.07-77.97c2.05-13.15,4.33-26.27,6.77-39.36c5.25-28.16,10.63-56.33,11.95-84.98
	c0.89-19.24,6.99-36.62,16.49-52.85c5.51-9.42,9.39-19.25,10.89-29.81c2.9-20.41,6.61-40.72,6.33-61.54
	c-0.8-59.97-1.29-119.95-1.55-179.93c-0.08-19.31,0.08-38.69,1.58-57.93c3.22-41.23,8.58-82.07,23.1-121.3
	c7.95-21.47,18.89-41.12,31.42-60.02c10.67-16.1,21.26-32.31,32.87-47.73c20.84-27.7,29.82-59.25,31.66-93.16
	c1.51-27.98,1.15-56.02-3.73-83.7c-4.95-28.08-0.96-55.82,2.21-83.56c6.52-57.24,21.7-112.42,41.86-166.2
	c9.34-24.92,20.51-49.15,30.88-73.67c1.3-3.06,2.91-5.99,4.23-9.05c2.98-6.83,4.33-13.78,3.16-21.39
	c-3.36-21.84-1.17-43.92-2.17-65.87c-0.24-5.23,0.68-10.68,2.02-15.79c5.39-20.61,11.07-41.15,16.8-61.67
	c6.87-24.58,18.59-47,31.07-69.07c6.63-11.74,15.42-21.51,25.66-30.34c37.68-32.5,81.56-52.52,129.27-64.77
	c10.91-2.8,22.29-3.97,33.53-5.32c17.09-2.04,31.87-8.12,44.18-20.71c26.7-27.29,57.03-50.08,89.6-69.93
	c10.24-6.24,20.59-12.31,30.7-18.75c7.92-5.05,14.88-10.96,19.03-19.94c2.4-5.2,3.33-10.17,1.8-15.42
	c-4.11-14.06-8.43-28.06-12.84-42.02c-1.43-4.52-4.8-5.68-9.52-3.62c-3.66,1.6-7.27,3.33-10.87,5.07
	c-27.91,13.46-57.46,20.89-88.13,24.49c-11.69,1.37-22.55-1.14-33.05-5.66c-5-2.16-8.73-5.8-10.36-11.45
	c-4.02-13.92-13-24.65-23.38-34.17c-4.51-4.14-8.83-8.27-10.89-14.02c-2.03-5.66-6.41-7.85-11.37-10.27
	c-32.71-15.93-57.89-40.11-75.6-71.71c-6.51-11.62-10.43-24.47-9.92-38.28c0.24-6.53,2.55-12.03,7.71-15.47
	c7.73-5.15,15.68-10.35,24.22-13.85c19.77-8.09,34.5-22.09,47.84-36.88c0.35-4.04-1.4-5.89-3.48-7.63
	c-7.67-6.4-15.69-12.45-22.89-19.35c-22.28-21.38-36.85-47.04-41.66-77.85c-0.82-5.26-1.82-10.49-2.81-15.73
	c-0.11-0.59-0.64-1.11-0.99-1.69c-2.49-1.39-3.28,0.5-4,2.22c-6.63,16.02-12.25,32.36-15.87,49.37c-1.51,7.11-3.75,14.07-5.74,21.08
	c-0.15,0.53-1.06,1.31-1.45,1.23c-1.1-0.25-2.95-0.8-3.02-1.39c-0.78-7.26-1.68-14.53-1.78-21.82c-0.25-16.63-0.08-33.26-0.08-52.08
	c-9.2,12.41-6.57,26.68-12.79,37.57c-2.99,0.3-3.26-1.64-3.72-3.34c-1.95-7.15-2.52-14.5-1.83-21.81c2.26-23.86,2-47.98,6.96-71.55
	c2.74-13.02,5.62-26.05,9.34-38.81c4.51-15.47,12.49-29.33,22.2-41.65c-1.18-3.31-3.01-2.56-4.7-1.74
	c-13.83,6.69-28.11,12.17-43.09,15.68c-11.78,2.76-23.68,3.51-35.72,2.05c-5.41-0.66-10.4-2.37-14.71-5.69
	c-0.69-0.53-0.39-2.35-0.54-3.57L1184.21,355.76z M2361.57,1758.38c-1.96-8.54-6.67-15.09-10.71-21.95
	c-5.5-9.33-12.78-16.76-22.45-22.11c-13.38-7.41-26.21-15.82-39.54-23.32c-13.55-7.63-24.78-17.78-35-29.34
	c-20.76-23.47-40.37-47.78-56.74-74.57c-1.02-1.67-2.47-3.07-3.64-4.49c-3.22,0.41-4.71,2.37-5.7,4.99
	c-7.57,20.16-19.54,37.73-32.36,54.8c-33.37,44.44-72.47,83.25-115.79,117.91c-10.39,8.31-21.19,16.13-31.5,24.54
	c-13.24,10.8-22.72,23.91-25.33,41.46c-3.76,25.21-12.06,49.24-23.34,71.85c-7.51,15.07-9.84,30.03-8.09,46.22
	c0.21,1.98,0.3,3.98,0.45,5.97c0.26,3.3,0.31,6.67,3.65,9.27c1.46,0.42,3.34,1.33,5.28,1.46c14.5,1,26.84,6.48,37.71,16.26
	c6.39,5.75,13.77,10.47,20.98,15.24c9.89,6.55,20.49,9.39,32.15,4.68c8.62-3.48,17.58-6.2,25.94-10.22
	c20.38-9.81,40.74-19.71,60.64-30.44c23.99-12.94,48.48-25.02,71.4-39.9c7.86-5.11,15.18-10.71,21.41-17.78
	c3.5-3.98,7.57-7.46,11.45-11.11c11.66-10.96,22.57-22.58,31.92-35.63c8.53-11.89,16.97-23.86,25.97-35.39
	c13.19-16.88,28.67-31.44,46.34-43.65C2352.08,1769.4,2358.26,1766.4,2361.57,1758.38z M2537.98,2080.78
	c-2.09,0-4.76-0.55-7.12,0.08c-44.96,12.01-90.16,23.18-134.39,37.78c-22.1,7.3-43.97,15.28-66.15,22.31
	c-21.58,6.84-42.73,14.79-63.49,23.75c-9.12,3.94-17.91,8.76-26.47,13.83c-12.01,7.12-23.6,14.96-35.5,22.28
	c-9.67,5.95-19.68,11.02-31.35,12.07c-10.27,0.92-18.9,6.01-26.8,12.29c-1.35,1.08-1.85,3.23-3.1,5.53
	c2.98,1.99,5.54,4.08,8.41,5.55c12.44,6.4,25.36,11.69,38.69,15.94c35.07,11.17,71.14,16.67,107.78,19.01
	c27.31,1.74,54.49,1.11,81.57-3.41c17.19-2.87,33.78-7.35,49.38-15.18c22.82-11.46,43.22-26.31,60.43-45.17
	c29.65-32.52,46.68-70.77,50.5-114.74C2540.71,2088.78,2541.42,2084.71,2537.98,2080.78z M1205.92,2214.78
	c-5.69,1.75-6.35,5.35-7.87,8.21c-13.72,25.86-27.46,51.72-40.98,77.69c-3.68,7.06-7.23,14.29-9.79,21.8
	c-6.22,18.25-12.11,36.63-17.56,55.13c-3.39,11.5-5.43,23.35-4.74,35.45c0.1,1.71,0.96,4.01,2.25,4.86
	c1.94,1.28,3.65-0.58,4.69-2.24c8.49-13.54,16.86-27.14,25.36-40.67c2.83-4.5,5.29-9.47,9-13.14
	c12.98-12.84,18.44-28.88,21.26-46.28c2.34-14.44,4.68-28.89,7.32-43.27C1198.33,2253.43,1202.1,2234.59,1205.92,2214.78z
	 M1025.74,2839.08c4.05-1.51,4.1-5.18,4.36-8.28c1.07-12.59,1.18-25.29,2.84-37.79c2.62-19.74,6.28-39.34,9.3-59.03
	c0.49-3.19,0.14-6.56-0.25-9.8c-0.11-0.9-1.74-2.31-2.68-2.31c-6.99-0.05-14.71,6.23-15.71,12.62c-0.41,2.62-0.7,5.29-0.69,7.94
	c0.08,27.94,0.16,55.87,0.42,83.8C1023.36,2830.54,1022.31,2835.25,1025.74,2839.08z"/>
<path d="M344.43,75.14c-1.51,1.02-3,1.68-4.19-0.39c-0.06-0.11,0.81-0.98,0.93-0.91c0.98,0.54,1.89,1.21,2.82,1.85L344.43,75.14z"/>
</svg>
