<?xml version="1.0" encoding="utf-8"?>
<!-- Generator: Adobe Illustrator 24.1.1, SVG Export Plug-In . SVG Version: 6.00 Build 0)  -->
<svg version="1.1" id="Layer_1" xmlns="http://www.w3.org/2000/svg" xmlns:xlink="http://www.w3.org/1999/xlink" x="0px" y="0px"
	 viewBox="0 0 918.14 1064.12" style="enable-background:new 0 0 918.14 1064.12;" xml:space="preserve">
<style type="text/css">
	.st0{fill:#1A1A1A;}
</style>
<g>
	<path d="M313.93,157.31c-4.28-7.62-4.01-15.46-3.96-23.28c0.04-6.12,1.05-6.84,7.62-4.8c-1.73-3.99,0.3-6.3,3.32-7.95
		c1.07-0.59,1.89-1.35,2.65-2.19c5.52-6.1,12.69-9.72,20.02-12.93c3.6-1.57,7.65-1.97,11.93-1.27c-2.33-7.97-2.02-15.78,0.37-23.62
		c0.54-1.76,1.23-3.38,2.11-4.92c0.66-1.15,0.52-3.2,2.62-3.07c2.4,0.15,0.65,2.64,1.89,3.5c2.07-0.82,1.48-2.68,1.44-4.2
		c-0.19-8.64,2.52-16.35,7.05-23.59c6.73-10.76,12.38-22.19,19.9-32.48c4.14-5.67,9.19-10.42,15.02-14.19
		c4.11-2.66,10.69-1.66,14.03,3.98c2.25,3.8,3.44,7.96,4.41,12.35c1.72,7.77,4.24,15.36,5.9,23.17c1.03,4.82,2.11,9.62,1.65,14.75
		c5.7,2.3,11.75,2.93,17.1,5.53c0.46-6.59-0.07-13.34,5.01-19.72c6.1,11.43,11.97,22.39,22.52,29.53c2.61-1.62,1.84-4.55,2.03-6.43
		c0.79-8.06,3.74-15.53,5.47-23.32c1.95-8.76,3.53-17.58,4.91-26.44c0.6-3.88,1.75-7.62,3.1-11.28c1.04-2.83,3.14-4.07,6.43-4.35
		c9.1-0.76,16.54,2.13,23.5,7.99c8.02,6.76,16.06,13.43,20.43,23.18c3.72,8.3,7.78,16.67,9.17,25.67c0.95,6.12,3,12.46,0.28,19.11
		c2.47-0.97,2.34-4.74,5.28-3.71c2.58,0.91,2.56,3.33,2.97,5.71c0.76,4.31,2.17,8.48,2.98,12.83c0.87,4.69,0.01,8.97-1.05,13.38
		c-0.19,0.77-0.24,1.65,0.51,2.77c3.97-1.72,8.49-0.03,12.69-1.76c0.99-0.41,2.34-0.22,3.47,0.01c2.54,0.51,3.52,2.67,2.58,5.17
		c-0.88,2.33-2.21,4.36-4.02,6.08c16.56,4.75,28.88,17.08,45.01,23.16c-2.15,6.3-8.66,6.62-12.63,10.04
		c0.81,0.99,2.19,0.03,3.11,0.99c1.27,5.49-3.82,8.97-5.01,14.61c3.19-2.31,5.3-4.81,8.27-5.99c2.8,4.36,3.82,17.52,2.15,28.4
		c6.58-3.85,13.43-4.44,20.69-2.67c6.62,1.61,6.52,1.54,3.86,7.87c-2.9,6.91-5.78,13.79-9.57,20.3c-1.12,1.93-2.51,3.67-3.81,6.05
		c4.16-1.01,8.03-1.95,11.93-2.9c2.87,2.67,2.87,3.55,0.75,7.25c-3.33,5.82-7.83,10.47-14.18,14.17
		c10.51,2.54,18.41,8.01,24.93,15.66c1.82,2.13,3.25,4.34,4.37,6.96c1.36,3.19,2.53,6.85,6.75,7.89c1.78,0.44,0.88,2.11,0.79,3.55
		c-5.71,1.22-11.43,2.44-17.56,3.74c7.01,8.48,15.13,15.62,23.48,22.49c9.12,7.5,18.73,14.36,27.45,22.41
		c5.87,5.41,9.35,11.99,12.88,18.74c1.38,2.63,2.36,5.43,1.99,8.48c-0.29,2.39,0.44,4.54,1.39,6.77c2.4-5.47,4.77-10.88,7.17-16.38
		c6.3,1.02,6.02,7.84,9.86,10.85c0.84-0.99,0.05-1.57-0.19-2.3c-0.69-2.09,0.01-3.99,1.52-5.35c1.68-1.52,3.3-0.3,4.78,0.72
		c7.54,5.24,12.37,12.51,15.38,21.02c0.52,1.47,1.27,2.91,1.43,4.4c4.48-4.32,5.26-10.63,8.42-15.72c2.86-4.6,4.19-4.77,7.29-0.44
		c2,2.78,4.3,5.31,6.13,8.26c4.17,6.74,5.52,13.97,4.68,22.13c2.71-2.17,3.8-4.9,5.51-7.17c1.65-2.2,2.7-4.99,5.94-6.46
		c6.51,5.66,8.53,13.8,10.63,21.7c2.13,8,4.79,16.09,2.15,24.71c1.35-1.66,3.19-2.63,4.02-4.6c0.92-2.19,3.01-1.96,4.74-1.58
		c1.88,0.41,3.05,1.74,3.18,3.9c0.21,3.52-0.49,6.86-1.67,10.11c-0.36,1.01-0.37,1.91-0.19,2.79c0.17,0.41,0.52,0.44,0.69,0.01
		c0.81-2.06,0.94-5.13,3.94-4.74c2.63,0.34,2.71,3.14,3.3,5.4c2.23,8.66,4.54,17.31,7.16,25.85c1.95,6.36,1.9,12.41-1.13,18.38
		c-0.19,0.37,0.03,0.96,0.06,1.55c1.22-0.57,1.42-2.26,3.11-2.28c1.2,0.86,2.36,1.73,2.75,3.62c1.69,8.15,3.02,16.36,4.24,24.53
		c2.71-2.73,4.34-0.62,5.63,1.58c2.61,4.44,3.62,9.41,4.05,14.48c0.82,9.63-0.77,19.2-1.21,28.79c-0.37,7.95-4.23,15.28-8.05,22.26
		c-1,1.82-1.08,3.31-0.59,4.86c3.04,9.61,6.38,19.13,9.3,28.78c1.8,5.95,5.67,9.32,11.4,11.04c7.88,2.36,15.9,3.98,24.12,3.89
		c9.06-0.1,11.8,3.78,11.92,11.91c0.13,8.49,1.78,16.56,4.27,24.57c1.33,4.28,3.82,7.62,8.04,9.14c7.05,2.54,8.84,8.94,9.56,14.82
		c1.31,10.65-0.05,21.34-3.28,31.7c-2.04,6.55-5.64,12.16-10.25,17.08c-2.52,2.69-4.71,5.3-5.44,9.09
		c-0.26,1.32-0.81,3.31-3.18,3.64c-1.05-1.22-0.57-2.77-0.58-4.13c-0.05-8.3,0.69-16.58-0.88-24.88c-0.5-2.66-1.81-4.88-2.55-7.37
		c-0.55-1.86-2.86-2.65-4.98-2.5c-4.54,0.32-8.67-1.64-13-2.39c-3.52-0.61-6.83-3.02-8.45-6.38c-3.39-7.02-6.42-14.21-8.66-22.05
		c-5.9-0.04-11.32-2.53-17.21-5.29c2.01,7.3,3.26,14.38,5.95,20.86c2.12,5.08,4.27,10.54,9.66,13.75c4.28,2.54,4.18,4.06,3.46,8.92
		c-0.82,5.5-1.82,10.9-3.16,16.31c-2,8.08-6.11,15.12-9.91,22.31c-2.74,5.19-6.16,10.12-10.29,14.27
		c-6.2,6.24-13.03,11.74-21.58,14.69c-7.67,2.64-15.43,5-23.19,7.39c-2.66,0.82-5.2,0.5-7.77,0.42c-0.52-1.33-0.72-2.19,0.76-2.94
		c4.95-2.51,7.18-7.35,9.77-11.85c1.22-2.12,2.23-4.33,3.62-6.39c2.8-4.13,3.71-9.06,4.26-13.88c0.31-2.77,1.58-5.37,1.18-8.28
		c-0.35-2.57,0.79-5.49-2.36-7.37c-1.55,1.23-0.57,3.27-1.08,4.87c-4.72,14.88-13.72,26.58-26.1,35.81
		c-6.47,4.82-12.25,10.44-18.41,15.61c-1.34,1.13-2.34,3.32-4.49,2.4c-2.36-1.01-1.63-3.43-1.55-5.32
		c0.16-4.13,2.35-7.75,3.18-11.77c2.41-11.64,5.5-23.15,6.82-35.01c0.11-0.95,0.78-1.85,0.86-2.8c0.2-2.72,0.14-4.89-2.46-7.24
		c-8.93-8.09-11.68-18.29-7.76-29.85c1.17-3.45,1.23-7.04,2.22-10.51c1.16-4.02-2.67-4.81-5.04-6.14c-1.2-0.68-2.68-1.12-3.98-1.79
		c-7.21-3.72-8.11-11.04-9.81-17.73c-1.98-7.74-3.48-15.29-9.27-21.69c-5.24-5.8-7.92-13.42-9.02-21.59
		c-6.8-1.84-13.52-3.6-20.69-1.51c-1.85,0.54-2.72,1.42-3.51,2.98c-2.27,4.53-4.58,9.03-7.8,13.01c-1.48,1.84-0.96,4.06-0.32,6.15
		c3.12,10.15,4.8,20.61,6.57,31.05c1.52,8.98,2.31,18,1.93,27.09c-0.31,7.38-0.59,14.78-1.9,22.09c-0.72,4.02,1.87,9,5.58,11.03
		c0.43,0.24,0.85,0.5,1.29,0.73c2,1.06,4.81,1.63,4.91,4.31c0.1,2.75-2.48,4.48-4.53,5.45c-3.93,1.87-7.61,5.37-13.5,3.07
		c3.31,11.21,4.03,21.77,0.23,32.81c-3.74,10.86-10.03,19.01-18.87,25.99c-2.03-3.18-2.33-5.9-2.59-8.99
		c-5.71,13.78-14.18,25.21-27.24,33.94c-0.64-7.8-0.67-14.95-2.87-22.8c-1.12,7.61-0.07,14.72-5.17,20.7
		c-4.07-3.89-8.46-6.8-10.77-11.98c0.1,6.3-1.73,12.26-1.56,18.44c0.16,5.66-0.02,11.33,0.05,17c0.1,9.39,2.22,18.54,3.35,27.81
		c2.08,17.09,8.07,33.19,12.91,49.55c2.85,9.64,7.02,18.89,10.63,28.3c1.56,4.06,2.18,8.51,5.01,12.06
		c4.08,5.12,8.1,10.29,12.13,15.44c1.19,1.52,2.53,0.74,3.97,0.43c2.87-0.61,5.19-2.73,8.37-2.58c6.99,0.32,13.34,2.74,18.26,7.39
		c10.69,10.13,19.34,21.7,22.82,36.49c1.89,8.02,1.85,15.78-1.2,23.53c-1.02,2.59-2.66,4.3-4.9,5.81
		c-6.49,4.37-13.23,7.99-21.39,6.75c-3.6-0.55-7.16-0.98-10.81-0.96c-6.27,0.04-12.29,2.4-18.59,2.01
		c-14.23-0.88-28.35-2.42-42.03-6.75c-3.57-1.13-7.2-3.05-10.76-2.97c-5.76,0.13-11.79-0.06-17.03,3.47
		c-9.05,6.09-19.36,9.24-29.73,12.17c-0.92,0.26-1.98,0.01-2.98-0.01c0.29-3.4-2.29-1.89-3.44-1.7
		c-13.67,2.38-26.64,0.08-37.96-7.61c-6.4-4.35-11.15-10.73-15.02-17.96c-6.67-12.47-4.97-25.06-2.89-37.9
		c0.32-2,0.63-4.08,0.21-5.93c-1.68-7.32-0.56-14.75-1.16-22.1c-0.87-10.82-0.95-21.74-2.04-32.5c-0.81-8.04,0.21-16.13-1.58-24.14
		c-1.45-6.46-4.22-12.29-6.91-18.19c-0.47-1.03-1.16-1.85-1.25-3.1c-0.36-4.78,0.05-5.21,4.95-4.77c0.48,0.04,0.97-0.12,1.78-0.23
		c-7.12-4.89-8.86-12.52-10.49-19.91c-0.91-4.12-1.75-8.32-2.64-12.45c-0.83-3.82,1.23-2.95,3.46-3.02
		c-3.96-6.67-7.06-13.57-9.24-20.87c-0.14-0.47-0.61-0.85-0.68-1.31c-0.22-1.52-0.3-3.1,1.35-3.92c1.45-0.72,2.53,0.11,3.46,1.16
		c1.52,1.71,3.23,3.07,6.11,3.68c-4.44-5.79-7.26-11.84-11.06-17.28c-0.28-0.4-0.65-0.83-0.71-1.27c-0.17-1.37-0.94-2.76,1.11-3.73
		c1.86-0.87,2.6,0.41,3.13,1.33c2.06,3.6,4.92,6.4,8.08,9c0.91,0.74,1.97,0.98,3.43,1.33c-7.36-9.33-11.47-19.07-10.41-31.62
		c1.1-13.1,9.76-20.21,17.6-28.73c2.49,1.29,3.85,3.13,1.74,6.1c-0.88,1.24-0.53,2.19-0.13,3.57c1,3.49,2.92,6.4,4.79,9.47
		c-0.03-8.02,1.05-16.05,4.13-23.03c3.52-8.01,2.83-17.18,7.87-24.61c0.89-1.32,0.46-3.53,0.67-5.57c4.1,0.96,3.22,5.6,6.23,7.61
		c1.43-3.71,1.55-7.74,3.39-11.23c1.91-3.61,3.3-7.49,5.8-10.88c-11.05-6.57-20.47-14.89-27.79-25.61
		c-3.31-4.85-6.85-9.54-10.06-14.48c-3.03-4.66-3.61-10.43-7.38-14.8c-1.56-1.81-2.81-3.32-5.18-3.99
		c-6.2-1.76-11.6-5.07-16.25-9.06c-3.1,0.57-4.15,6.07-8.83,3.19c-4.89,1.35-6.81,5.91-9.35,10.35
		c-5.43,9.47-11.4,18.66-19.05,26.58c-1.83,1.89-3.07,4.14-4.52,6.26c-3.27,4.78-7.68,8.66-12.41,12.07
		c-2.23,1.61-4.52,3.13-6.99,4.83c5.02,6.99,7.8,14.97,11.19,23.1c2.47-2.84,3.95-6.28,8.18-7.08c2.47,4.34,4.07,9.22,5.31,13.83
		c1.24,4.63,3.49,8.53,6.05,12.07c4.64,6.41,6.84,12.89,4.47,20.63c-0.17,0.57,0.09,1.27,0.2,2.42c1.88-3.96,2.39-8.35,6.88-9.82
		c11,13.86,18.38,41.17,5.13,59.6c2.55,0.69,2.87,2.59,2.75,4.85c-0.38,7.53-5.61,23.19-9.96,29.49c0.43,1.46,2.68,1.29,2.88,2.99
		c0.2,1.73-0.68,3.27-1.31,4.66c-4.53,10.11-8.02,20.63-11.28,31.15c-2.19,7.06-4.23,14.38-4.44,22.01
		c-0.11,4.05-1.33,8.07-2.18,12.03c-0.79,3.71-1.12,7.51-1.51,11.16c-1.02,9.53-1.93,19.16-1.17,28.77
		c0.99,12.56,2.56,25.05,5.5,37.34c1.67,6.99,1.96,14.14,1.27,21.19c-0.43,4.39-3.32,8.16-6.18,11.52
		c-11.71,13.72-26.68,17.95-43.96,14.12c-8.73-1.94-17.49-3.69-26.36-5.45c-5.68,5.56-12.75,7.7-20.55,7.48
		c-3.36-0.09-6.53,0.93-9.8,1.01c-7.76,0.2-15.43-0.86-23.11-1.82c-3.45-0.43-7.03,0.21-10.48-0.2c-8.72-1.01-17.13,1.01-25.69,1.85
		c-9.12,0.9-18.38,2.83-27.54,0.19c-6.57-1.9-11.67-6.35-16.99-10.37c-1.93-1.46-1.49-3.83-1-5.57c2.97-10.64,4.36-21.71,8.87-31.93
		c5.38-12.16,12.3-23.12,23.35-30.99c3.58-2.55,7.88-2.91,11.9-4.08c3.54-1.03,6.98-3.06,11.23-1.5
		c5.72-8.27,11.6-16.66,17.35-25.14c2.92-4.31,5.58-8.8,8.4-13.18c1.86-2.88,1.49-6.29,2.29-9.42c2.54-9.93,5.44-19.76,7.56-29.8
		c2.69-12.73,7.15-25.23,8.45-38.07c1.49-14.71-1.56-28.88-15.23-38.23c-2.16-1.48-3.95-3.27-6.71-3.86
		c-4.12-0.89-6.35,0.99-5.17,5.05c0.49,1.7,0.92,3.13-0.39,4.54c-5.19-1.07-7.29-2.75-12.39-9.89c-1.23-0.21-1.54,1.51-3.47,1.34
		c-20.24-19.91-34.24-42.75-29.17-73.77c-4.94,3.34-9.7,5.76-15.49,4.98c-1.57-0.21-2.8-0.37-3.57-2.02
		c-0.73-1.56-0.42-2.96,0.57-3.97c7.28-7.45,9.59-16.64,10.69-26.72c1.05-9.63,2.32-19.2,2.96-28.9c0.56-8.36,0.27-16.87,1.96-25.09
		c2.07-10.04,2.69-20.33,5.49-30.04c-3.79-4.36-8.02-7.81-12.17-11.35c-1.7-1.45-3.82-2.34-5.73-2.52
		c-8.02-0.75-16.18-1.71-23.32,3.61c-1.03,0.77-2.21,1.62-3.42,1.83c-2.29,0.39-3.29,1.81-4.2,3.7c-2.8,5.81-4.78,12.08-4.6,18.34
		c0.37,12.7-4.29,22.46-14.91,29.1c-3.79,2.37-4.48,5.82-4.12,9.14c0.87,8.09,1.14,16.47,4.13,24.06c2.1,5.33,1,9.97-0.78,14.53
		c-1.64,4.18-5.14,7.28-9.32,9.16c-6.18,2.78-5.86,3.87-4.99,9.7c1.44,9.65,4.29,19.01,8.03,28.08c2.28,5.55,3.93,11.36,6.15,16.94
		c0.75,1.9,0.73,3.12-1.41,4.52c-5.69-3.64-11.6-7.35-17.44-11.18c-5.32-3.49-10.43-7.31-15.85-10.62
		c-3.35-2.05-6.09-4.77-8.34-7.71c-6.13-8.01-12.74-15.96-12.32-27c0.08-2.17-1.48-3.93-1.1-6.17c-4.41,1.34-3.31,4.48-2.57,7.2
		c1.58,5.8,3.89,11.44,5.04,17.31c1.67,8.6,4.63,16.62,8.66,24.32c0.9,1.71,0.8,1.76,0.23,5.17c-3.95-3.31-8.61-1.39-12.99-2.26
		c-7.69-1.54-14.06-5.11-19.67-10.19c-6.6-5.97-11.13-13.57-16.28-20.77c-8.59-12-12.24-25.83-17.39-39.16
		c-1.28-3.31-1.46-6.03,1.25-9.02c2.13-2.34,3.26-5.59,4.16-8.78c2.04-7.21,5.2-14.18,4.63-21.92c-0.14-1.96,1.93-3.61,0.77-5.46
		c-4.16,0-8.2,0-12.66,0c0.49,5.46-1.68,9.98-2.37,14.84c-0.51,3.61-2.61,7.28-6.24,9.49c-2.54,1.55-3.94,4.45-6.72,5.84
		c-4.95,2.48-10.05,2.41-15.7,1.05c0.41,8.05-1.56,15.74-2.25,23.6c-0.56,6.39-1.27,12.59,1.35,19.1c-4.31,0.25-6.13-2.83-7.66-5.09
		c-8.2-12.12-14.42-25.13-16.56-39.84c-0.75-5.19-1.82-10.33-1.94-15.59c-0.17-7.47,1.91-14.56,6.63-20.04
		c3.6-4.17,8.34-7.51,12.16-11.63c4.54-4.9,6.82-11,8.18-17.43c0.81-3.82,1.34-7.71,2.05-11.55c0.41-2.18,1.65-3.83,4-3.6
		c9.91,0.96,19.06-2.7,28.56-4.33c2.74-8.63,7.72-16.23,10.5-24.77c0.71-2.18,0.82-3.63-0.3-5.89c-3.32-6.7-7.33-13.05-9.95-20.13
		c-1.34-3.64-3.75-6.87-5.6-10.33c-1.45-2.72-2.83-5.47-4.16-8.25c-1.69-3.53,0.44-6.79,4.29-6.23c2,0.29,4.09,0.84,5.74,2.44
		c3.79,3.69,8.2,6.7,11.67,10.74c1.01,1.17,2.23,1.96,3.87,2.22c1.16-1.88-0.58-3.24-1.32-4.69c-5.2-10.03-8.52-20.64-8.16-31.93
		c0.2-6.1,0.78-12.42,3.54-18.13c1.65-3.42,3.32-3.84,6.04-1.4c1.57,1.4,4,1.77,4.76,4.67c0.96-2.79-1.03-4.13-1.4-5.9
		c-1.56-7.49-1.74-15-0.12-22.53c0.4-1.84,1.43-3.02,3.09-3.49c1.78-0.5,2.89,0.97,3.54,2.21c1.2,2.29,2.98,3.85,5.98,6.23
		c-4.28-14.5-5.7-27.93-0.73-41.68c4.33,2.82,5.58,7.76,10.51,9.98c-4.29-8.43-2.56-16.4,0.22-24.61c0.84-0.64,1.87-0.07,2.99,0.46
		c4.03-15.29,6.35-31.07,12.93-47.17c6.18,8.55,14,12.28,22.76,14.23c4.25-5.59,6.38-12.4,8.75-19.08c0.58,0.05,1.15,0.11,1.73,0.16
		c1.54,5.43,3.09,10.86,4.91,17.28c3.5-20.87,15.37-34.79,32.94-44.97c4.86,5.99,2.77,14.38,5.81,21.8
		c1.71-9.5,6.02-17.39,8.93-25.78c4.14-11.96,14.08-18.64,23.26-25.99c5.99-4.79,12.3-9.17,18.45-13.76
		c1.51-1.13,2.12-2.87,2.97-4.47c2.46-4.6,4.65-9.38,9.21-13.76c-5.34,0.29-9.62-1.38-14.17-1.19c-5.45,0.23-10.74-1.01-16.07-1.93
		c-1.45-0.25-2.69-0.55-2.9-2.13c-0.25-1.83,0.91-2.4,2.54-2.99c10.24-3.71,19.58-9,27.51-16.58c3.72-3.56,6.05-8.14,8.74-12.41
		c1.18-1.88,2.58-3.66,4.31-6.41c-5.32,1.92-9.9,2.77-14.7,2.57c-2.47-0.1-4.42-1.07-6.45-2.11c-1.25-0.64-1.67-1.77-1.38-3.11
		c0.27-1.26,0.97-1.77,2.39-1.93c4.56-0.5,8.2-2.85,11.52-5.98c5.18-4.88,9.57-10.58,15.51-14.7c1.95-1.35,3.94-2.22,6.93-2.66
		c-7.12-2.39-13.94-4.18-18.82-9.09c-4.69-4.72-11.12-8.38-12.47-16.13c5.2-0.89,10.06,0.24,14.69-1.52
		c6.98-2.65,12.65-7.39,18.62-11.57C293.63,158.49,302.49,154.29,313.93,157.31z M613.43,405.97c-0.07,16.36-2.51,31.46-17.36,41.5
		c-1.52-1.24-2.6-2.13-3.73-3.05c-4.97,10.04-10.8,19.11-19.47,26.11c6.21,4.48,12.03,3.6,15.35-2.13c0.84-1.46,1.73-2.89,3.47-2.76
		c1.84,0.13,2.72,1.84,3.1,3.38c1.11,4.43,2.42,8.84,2.18,13.55c4.04-1.82,5.52-1.4,7.72,2.07c2.85,4.51,2.53,11.87-0.88,16.06
		c-1.25,1.53-2.53,2.95-2.78,5.16c2.62,0.58,4.95-0.63,7.25-1.03c2.85-0.49,5.67-1.76,7.66,1.03c1.82,2.55,1.28,5.62,0.29,8.48
		c-0.26,0.77-0.88,1.42-1.08,2.2c-0.71,2.73-3.22,4.5-3.86,7.54c5.25,0.2,10.38,0.67,15.52-0.78c2.38-0.67,5.27-2.76,7.37-0.15
		c2.27,2.82-0.11,5.62-1.38,8.17c-0.64,1.28-1.97,2.21-2.91,3.37c-1,1.24-2.77,1.93-2.9,4.1c6.65,1.04,10.95,6.14,15.01,10.46
		c6.06,6.45,11.52,13.64,15.95,21.52c1.94,3.46,4.01,6.97,6.29,10.26c0.97-0.68,1.4-1.26,1.67-2.14c2.52-8.23,5.57-16.3,7.14-24.83
		c0.42-2.26,1.22-4.6,4.07-5.61c8.83-3.12,16.84-7.69,23.68-14.23c-6.26-10.43-12.98-20.47-22.05-28.77
		c-2.23-2.04-4.18-4.43-6.01-6.84c-5.58-7.38-9.23-15.73-11.41-24.66c-1.51-6.2-3.14-12.52-2.24-18.95c0.69-4.9,2.16-9.7,3.26-14.47
		c-3.68-2.45-7.28-4.69-10.72-7.15c-6.1-4.37-12.23-8.7-18.08-13.39c-2.75-2.21-5.61-4.33-7.86-7.27c-1.56-2.03-2.11-4.77-4.51-6.48
		c-1.19,2.12-2.44,4.69-4.81,4.48C614.62,410.57,613.5,408.33,613.43,405.97z M320.86,477.31c0.16-4.5,0-8.12,1.09-11.67
		c1.14-3.7,3.06-4.59,6.49-2.45c4.33,2.7,8.96,3.32,14.42,2.73c-7.9-10.64-10.23-22.44-9.96-35.83c-3.28,7.07-5.82,13.42-9.12,19.34
		c-2,3.59-3.54,6.84-1.96,10.9c0.05,0.13-0.38,0.44-0.71,0.81c-15.1-9.26-19.68-24.34-22.55-40.79c-3.43,0.44-3.75-2.67-5.16-5.17
		c-8.56,9.98-20.33,15.28-31.2,22.29c3.25,9.05,4.18,18.21,0.56,28.26c3.08-1.53,5.09-2.59,7.16-3.54c1.28-0.59,2.58-1.77,4.08-0.46
		c1.45,1.26,0.64,2.47,0.22,3.99c-2.18,7.9-8.46,12.62-14.07,17.5c-10.63,9.26-22.63,16.84-32.76,26.8
		c-4.73,4.65-8.72,9.54-11.54,15.51c-1.2,2.54-0.79,4.35,0.58,6.8c4.16,7.43,10.49,11.2,18.58,12.95
		c5.67,1.23,10.11,4.04,11.34,10.55c1.46,7.68,4.85,14.82,6.91,22.37c0.84,3.07,1.09,6.6,3.23,9.6
		c7.66-13.67,15.96-26.6,26.38-38.32c-4.42-1.57-7.77-3.99-10.27-7.34c-1.04-1.4-2.72-3.16-0.85-5.29c1.5-1.71,3.05-1.99,5.28-1.22
		c3.77,1.3,7.34,0.43,10.74-1.71c3.13-1.97,6.47-3.58,9.86-5.43c-0.96-1.01-2-2.08-2.99-3.18c-2.83-3.12-2.27-4.55,1.59-6.35
		c2.46-1.15,5.54-0.94,7.44-3.19c-0.92-2.72-1.57-5.44-2.73-7.91c-1.98-4.24-0.02-8.86-1.65-13.14c-0.69-1.8-1.1-4.22,1.17-5.3
		c2.63-1.25,3.14,1.5,4.33,2.89c0.16,0.19,0.6,0.13,1.31,0.25c-1.02-8.05,1.59-15.02,5.76-21.71
		C315.49,472.23,317.79,474.58,320.86,477.31z"/>
	<path class="st0" d="M254.99,345.32c0.33-10.82,3.55-20.8,7.67-30.63c-7,5.95-8.15,14.99-12.32,22.6
		c0.14-6.61-0.86-13.11,0.3-19.79c0.89-5.13,1.4-10.36,2.3-15.53c1.66-9.62,5.28-18.46,10.5-26.61c2.5-3.9,7.47-4.58,10.92-7.31
		c1.01-0.8,2.64-0.74,3.47-3.21c-3.7,2.19-7.7-0.39-10.76,2.69c-0.82,0.82-1.85,0.63-2.82,0.63c-8.15,0.02-16.3,0.01-24.54-0.22
		c8.22-3.19,15.05-8.29,21.33-14.29c4.62-4.41,7.13-10.05,10.04-15.53c2.56-4.83,5.97-8.96,11.29-11.16
		c1.6-0.66,3.47-1.29,4.29-3.83c-9.75,2.35-19.22,4.63-28.69,6.91c4.19-2.56,8.01-5.62,10.98-9.48c2.43-3.17,5.29-5.89,7.92-8.85
		c4.66-5.23,10.78-7.7,17.24-9.63c0.66-0.2,1.17-0.61,1.29-1.42c-13.15-1.92-25.38-5.79-34.71-16.68c4.18-0.8,8.06-1.28,11.7-2.89
		c4.4-1.96,8.3-4.7,11.81-7.83c3.22-2.87,7.11-4.67,10.39-7.36c6.11-5.02,13.39-4.74,20.64-4.73c1.8,0,2.59,1.36,3.59,2.39
		c3.01,3.08,6.61,5.07,10.85,6.32c-9.96-9.04-13.17-20.61-13.67-33.06c9.88,0.43,16.1,7.32,23.46,12.31
		c-3.59-8.09-10.17-13.96-14.26-21.8c8.93-8.59,19.32-14.86,31.27-19.27c-0.77,12.34,4.47,23.93,2.37,36.11
		c2.16-3.16,3.44-21.38,2.37-29.46c7.49-1.29,9.34-0.78,19.62,5.66c0.17-6.41-3.98-11.59-3.79-17.62c2.97,0.1,4.1,2.63,6.03,3.99
		c5.11,3.59,8.12,7.46,8.46,14.61c0.31,6.65,4.18,13.2,9.04,18.55c-2.95-10.2-5.68-20.38-5.63-31.4c5.74,3.66,12.19,3.13,18.16,4.43
		c4.75,1.03,9,2.62,13.71,5.82c1.79-7.35,2.13-14.36,2.29-22.32c4.66,4.29,7.41,8.82,11.42,13.48c-0.73-4.98-2.56-8.46-5.02-11.62
		c-1.3-1.68-3.04-2.96-4.06-4.95c-0.77-1.5-2.2-2.51-4.14-2.1c-1.85,0.39-1.83,2.08-2.31,3.4c-1.34,3.66-1.02,7.48-1.03,11.27
		c-0.01,1.83,0,3.66,0,6.05c-4.36-2.05-8.14-4.48-12.68-5.26c-1.86-0.32-3.93-0.82-5.74-1.02c-4.89-0.55-8.98-1.71-11.25-6.54
		c-0.48-1.03-1.7-1.14-2.65-0.78c-0.93,0.35-1.64,1.12-1.64,2.26c-0.01,2.5,0,4.99,0,7.68c-4.61-4.58-7.57-10.46-13.55-13.35
		c-1.87-0.9-2.26-2.32-1.74-4.82c0.93-4.46,0.6-9.16,1.06-13.77c0.6-6.09,1.63-12.02,3.56-17.73c2.33-6.91,3.75-14.13,7.11-20.73
		c0.43-0.84,0.95-1.62,1.45-2.42c3.23-5.13,6.65-10.15,9.61-15.43c2.71-4.84,7.43-7.37,11.4-10.73c1.84-1.56,5.39-0.16,5.99,1.99
		c2.41,8.61,4.99,17.19,7,25.9c2.01,8.73,3.31,17.61,5.1,26.39c2.25,11.01,4.44,22.05,10.93,31.62c0.57,0.84,1.16,1.6,1.88,2.27
		c0.33,0.31,0.81,0.46,1.57,0.88c-2.61-12.45-6.85-24.17-8.28-36.88c5.34,0.35,9.88,3.2,14.96,3.83c1,0.12,1.36,1.28,2,1.98
		c1.41,1.52,1.55,4.11,4.82,5.13c-1.32-7.69-0.86-15-0.62-22.41c4.78,11.27,12.45,19.94,22.88,26.28c-5.59-0.14-5.7-0.17-7.38,5.5
		c-2.23,7.51-4.38,15.06-3.68,22.96c1.87,0.72,2.54,0.33,2.92-1.49c1.35-6.33,2.94-12.61,4.68-19.92
		c6.06,11.98,9.38,24.13,14.75,36.57c3.47-7.65,3.45-15.23,5.91-22.34c3.62,5.72,7.37,11.14,9.82,18.44
		c1.71-6.79,6.49-9.65,10.76-14.19c-1.1,9.63-4.3,18.2-2.4,28.12c3.71-4.85,4.56-10.74,9.91-13.88c0.53,3.17,1.13,6.11,1.48,9.09
		c0.19,1.67-0.07,3.44,2.08,3.98c1.85,0.46,3.14-0.44,4.33-1.78c4.2-4.76,7.25-10.26,10.17-16.1c3.28,3.93,4.12,8.76,6.34,12.91
		c1.31,2.45,1.08,5.4,2.79,8.1c1.58,2.48,1.47,6.24,1.43,9.59c-0.05,4.5-1.29,8.61-3.05,12.69c2.26,0.14,2.22-1.81,2.68-2.84
		c3.46-7.89,5.79-15.96,2.73-24.6c-0.77-2.16-0.38-3.91,0.9-5.98c1.7-2.75,3.76-5.35,4.84-8.49c0.67-1.95,2.14-3.12,4.15-2.35
		c3.71,1.41,7.35,1.04,11.3-0.24c-2.41,6.21-9.85,6.26-12.9,11.28c2.47,2.51,4.6,3.4,7.73,1.85c4.84-2.39,9.71-1.02,14.12,1.35
		c7.3,3.93,14.37,8.26,21.59,12.35c3.53,2,7.16,3.8,11.85,4.85c-7.74,3.16-15.33,4.65-22.8,6.66c-7.8,2.1-15.66,1.63-23.87,1.87
		c2.21,4.68,6.39,4.87,10.12,4.84c8.26-0.07,16.58,1.05,24.78-0.85c0.76-0.18,1.63,0.1,3.28,0.24
		c-6.25,8.29-10.62,17.14-16.31,25.36c8.38-2.96,13.67-10.44,21.43-14.64c-0.65,9.97-0.87,19.75-5.08,28.83
		c-1.03,2.22-2.19,4.34-3.97,6.17c-1.62,1.66-4.15,2.18-5.5,4.94c3.66-1.06,6.74-2.52,9.65-4.23c4.49-2.65,8.82-5.57,13.3-8.23
		c5.56-3.31,11.62-2.63,18.38-2.16c-10.79,17.8-20.47,35.75-42.91,41.04c8.95,1.38,13.05,0.96,20.23-3.25
		c2.98-1.75,6.61-1.44,9.85-2.75c2.43-0.98,5.22-1.46,8.9-2.77c-5.44,6.23-10.22,11.24-17.23,13.49c-1.26,0.4-3.23,0.43-3.19,2.45
		c0.04,2.24,1.9,2.05,3.51,2.59c5.09,1.71,10.62,1.71,15.46,4.37c7.81,4.29,14.05,10.07,18.16,18.05c0.81,1.57,1.83,3.04,2.82,4.67
		c-11.34,4.43-21.33-0.56-31.87-3.14c-0.51,2.55,1.54,4.6,3.72,6.15c2.92,2.07,6.28,3.95,9.93,3.66c3.84-0.3,5.95,1.84,7.78,4.35
		c5.52,7.6,9.5,15.98,11.29,25.23c0.3,1.57,1.56,2.97,0.72,5.53c-2.76-3.63-7.1-4.52-9.8-7.74c-2.05-2.44-4.83-3.98-7.1-6.13
		c-1.27-1.2-2.84-1.69-4.01-0.8c-1.14,0.86-1.67,2.22-1,4.23c1.89,5.69,4,11.32,4.88,17.36c1.44,9.85,2.94,22.75-1.51,35.38
		c-2.58-4.48-6.95-6.48-10.56-9.42c-0.84-0.68-1.9-0.89-2.6-2.06c-3.76-6.34-9.16-11.21-14.57-16.13
		c-6.03-5.49-11.58-11.51-17.41-17.23c-0.94-0.93-1.58-2.62-4.13-2.11c6.99,5.76,11.86,12.88,16.42,19.86
		c4.13,6.31,8.8,12.3,12.6,18.89c4.71,8.15,6.65,17.02,7.98,25.95c1.01,6.78-1.36,13.6-3.5,20.13c-1.47,4.45-3.34,8.8-6.48,13.46
		c-2.91-12.54-6.23-24.24-16.23-32.53c5.78,10.91,6.93,22.68,6.34,34.58c-0.59,11.83-1.84,23.66-9.41,33.67
		c-0.26-3.4-0.65-6.6,0.27-10.07c4.26-16.05,0.88-30.63-9.56-43.51c-0.92-1.13-1.07-2.86-3.69-3.85c8.6,15.07,7.11,30.36,3.17,45.44
		c-3.93,15.02-9.72,29.32-22.69,40.99c0.43-5.03-0.8-9.03-0.62-13.12c0.06-1.33-0.31-1.87-1.23-2.1c-0.9-0.23-1.67,0.61-1.86,1.31
		c-0.31,1.09-0.21,2.3-0.27,3.46c-0.23,4.27,0.5,8.57-0.89,12.82c-0.45,1.39-0.73,3.41,0.88,4.63c1.74,1.32,3.45,0.5,5.05-0.41
		c0.85-0.48,1.61-1.1,2.41-1.66c5.55,7.81,9.1,8.34,21.92,3.27c1.34,6.77,1.25,7.1-4.32,15.54c0.24,0.37,0.46,0.82,0.78,1.17
		c0.56,0.6,1.2,1.13,1.87,1.76c4.5-1.49,5.88-6.4,9.76-8.59c2.94,4.84-0.36,9.19-1.09,13.71c-0.54,3.34-2.94,6.28-2.18,10.19
		c5.39-1.11,10.92,0.65,16.91-1.5c-3.36,9.41-9.34,16.42-14.85,23.77c5.73,1.67,8.06-3.08,11.61-5.76
		c5.44,3.53,11.43,2.91,17.98,1.89c-2.7,5.03-9.74,4.92-11.18,11.41c9.14-2.45,11.26,5.4,15.46,9.7c3.83,3.92,7.29,8.4,9.65,13.65
		c-1.49,1.79-4.18,2.37-5.08,5.02c-0.53,1.55-2.05,1.58-3.78,0.97c-3.52-1.24-6.8-3.14-10.61-3.75c-0.38-5.79-3.14-10.55-5.29-15.96
		c-1.96,2.32-0.22,3.88-0.22,6.14c-1.41-1.29-2.53-2.3-3.65-3.32c-3.34-3.05-7.81-3.8-11.72-1.43c-2.14,1.29-3.97,0.89-5.48-0.3
		c-4.61-3.63-10.07-3.45-15.42-3.89c-1.49-0.12-3.11,0.29-4.46-0.17c-1.59-0.54-3.38-0.94-4.07-3.12
		c-2.89-9.09-7.93-12.21-17.6-10.57c-2.22,0.38-4.01,0.44-5.87-0.7c1.25-3.65,0.14-6.33-2.56-9.17c-6.11-6.42-13.09-9.07-21.84-6.61
		c-2.78-3.3-5.66-6.37-10.63-4.01c-2.83-9.03-11-16.32-7.92-27.48c4.35,5.54,3.94,12.4,6.23,18.3c6.48-1.76,11.02-6,14.86-10.79
		c3.84-4.8,6.61-10.37,8.9-16.17c0.27,4.89-1.34,9.34-2.76,13.78c-0.45,1.4-1.01,2.44,0.49,3.33c1.16,0.7,2.15,0.34,3.13-0.55
		c6.17-5.56,13.17-10.11,19.16-15.95c4.22-4.11,5.53-8.99,5.29-14.23c-0.3-6.66-1.81-13.21-4.69-19.35
		c-0.43-0.92-0.69-1.82-2.38-2.45c8.07,20.15,0.67,34.53-16.66,45.45c0.94-3.36,1.51-6.79,0.76-9.93
		c-1.78-7.47,0.14-15.17-1.8-22.61c-0.53-2.01-1.4-3.19-3.81-4.2c-0.25,18.41-7.57,33.77-19.15,48.44
		c0.2-8.73-2.31-15.53-8.25-20.85c-2.33,1.81-2.33,1.81-3.31,10.11c-4.39-5.58-8-11.38-12.49-16.54
		c-7.15-8.2-14.32-16.17-25.39-19.25c-1.26-0.35-2.16,0.8-3.2-0.06c-0.26-1.06,1.27-1.33,1.1-2.36c-0.46-0.27-0.9-0.16-1.38,0.03
		c-11.1,4.36-19.37,12.53-26.94,21.21c-4.55,5.22-8.02,11.47-11.31,17.67c-1.29,2.43-2.84,4.71-4.71,7.79
		c-1.4-13.38-4.24-25.75-7.22-38.17c0,3.1-0.24,6.22,0.05,9.29c0.53,5.54-1.04,10.93-0.24,16.61c1.7,12.03,0.34,24.59,7.05,35.74
		c-3.68-2.86-6.57-6.07-9.24-9.83c-3.7-5.21-7-10.64-10.46-15.97c-5-7.7-8.21-16.27-12.23-24.45c-1.95-3.97-2.93-8.65-7.5-11.08
		c5.86,14.96,8.15,30.79,12.48,46.21c-4.31-7.83-10.41-14.02-16.91-19.71c-7.05-6.17-14.78-11.62-21.2-18.46
		c-9.37-9.98-14.82-21.8-14.72-35.72c0.03-3.64-1.26-7.56,1.38-10.91c-0.64-1.17-1.51,0.42-2.55-0.71c1.28-9.5,1.02-19.6,3.02-30.42
		c-2.64,2-2.58,4.46-2.72,6.07c-0.7,8.26-3.41,15.97-6.38,23.51c-2.82,7.16-3.64,14.84-6.67,21.92c-2.08,4.87-4.37,9.83-3.5,15.62
		c-7.93-11.29-11.75-23.76-13.76-37.1c-2.06-13.63,1.74-26.33,4.82-39.31c-4.57,2.21-5.93,6.51-7.44,10.48
		c-1.54,4.05-2.38,8.37-3.89,12.52c0.25-10.53,1.68-20.96,2.79-31.34c-1.6-0.41-2.45,0.64-2.63,1.33
		c-1.45,5.49-4.09,10.57-4.69,16.4c-0.56,5.44-3.11,10.55-3.7,16.37c-3.54-1.7-4.3-4.98-6.08-7.39
		c-4.84-6.58-9.35-13.49-11.42-21.43c-3.55-13.61-4.96-27.41-2.82-41.53c0.66-4.33,2.22-7.61,4.9-10.92
		c3.76-4.64,6.94-9.76,10.06-14.93c-5.32,3.2-7.92,8.99-12.47,13.27c-0.23-1.39-0.42-2.51-0.6-3.63
		C265.79,327.25,262.45,337.42,254.99,345.32z M467.01,242.43c2.24,3.29,5.33,4.7,8.66,5.81c3.69,1.23,7.33,2.62,11,3.9
		c8.09,2.83,15.51,7.02,21.99,12.51c5.64,4.77,11.11,9.9,14.39,16.82c0.74,1.55,1.43,2.94,0.38,4.44c-1.88,0.78-3.3-0.23-4.83-0.79
		c-6.08-2.24-11.93-5.17-18.48-6.04c-1.52-0.2-3.04-0.55-3.84,0.74c-0.81,1.29-0.47,2.84,0.79,4.05c0.56,0.54,0.74,1.46,1.25,2.08
		c9.88,12.27,13.28,26.61,13.66,41.99c0.16,6.44,1.47,12.81,1.64,19.22c0.24-21.91,2.04-44.11-11.63-63.87
		c2.14,0.04,3.66-0.14,5.34,0.54c3.92,1.58,7.95,2.89,12.02,4.03c2.37,0.66,4.88,0.99,6.83-1.37c1.8-2.17,0-3.75-0.82-5.36
		c-8.05-15.67-20.97-25.72-37.19-31.83c-5.37-2.02-10.84-3.77-17.33-6.02c6.24-2.84,11.43-5.45,15.46-9.35
		c3.98-3.85,9.42-6.46,11.96-11.81c-1.67-1.27-3.18-1.22-4.28-0.77c-4.05,1.64-8.25,0.97-12.3,0.72c-4.44-0.27-8.2-2.32-10.25-6.8
		c-1.16-2.54-2.15-5.25-4.3-7.27c1.18,5.27,3.15,10.05,7.08,14.07c4.29,4.39,9.91,3.91,15.57,4.48
		C483.59,234.52,474.67,237.57,467.01,242.43z M354.68,381.65c-1.52-3.15-2.12-6.51-3.33-9.66c-6-15.62-9.87-31.49-5.55-48.31
		c0.63-2.44-0.93-3.96-3.38-3.23c-5.84,1.75-12.06,2.48-17.17,6.48c-0.96-3.46,0.83-6.19,1.92-8.72c2.53-5.87,6.03-11.29,12.41-13.8
		c1.56-0.61,3.38-0.58,3.34-2.85c-0.04-2.18-2.11-2.85-3.43-3.02c-8.31-1.05-14.64-5.99-21.35-10.27c-1.98-1.26-3.53-2.75-5.15-5.28
		c8.24,0.77,16.06,2.5,22.6-3.36c-8.98,3.01-17.68,2.05-26.17-1.7c-0.95-0.42-1.64-0.95-2.63-0.04c-1.24,1.14-0.5,2.04,0.14,3.01
		c2.66,4.06,6.22,7.28,9.98,10.24c6.37,5.01,13.71,8.16,21.76,10.35c-4.19,3-8.69,4.95-10.93,9.46c-2.44,4.94-5.94,9.5-5.75,15.4
		c0.12,3.89,2.09,4.97,5.41,2.84c3.48-2.22,7.5-3.11,11.2-4.79c0.99-0.45,2.27-0.56,3.35,0.64
		C337.92,345.69,344.31,364.2,354.68,381.65z M543.85,500.02c1.37,2.53,3.3,4.2,5.67,4.88c2.29,0.65,4.07,1.96,6.06,3.09
		c5.34,3.04,10.82,5.82,16.3,8.59c2.5,1.26,4.87,0.95,6.56-1.5c1-1.46-0.52-5.04-2.46-6.38c-1.08-0.74-2.29-0.27-3.36-0.59
		c-1.84-0.54-4.12-0.78-4.65-3.08c-1.11-4.81-5.08-6.39-8.85-8.26C550.99,492.75,550.32,492.88,543.85,500.02z M545.11,272.95
		c5.2,4.26,11.6,6,18.04,8.02c-3.81,3.47-7.28,6.57-12.05,9.01c9.31,8.45,16.92,17.07,16.85,30.01c-5.2-0.64-8.63-5.42-14.53-4.52
		c3.01,7.35,7.15,13.3,11.21,19.35c-2.52-5.41-4-11.22-7.99-17.22c2.95,1.47,4.81,2.38,6.66,3.32c2.06,1.06,4.12,1.92,6.57,0.71
		c0.63-12.76-3.2-23.41-13.66-31.22c5.96-3.27,10.76-7.13,13.44-14.9C560.35,278.68,553.13,274.06,545.11,272.95z M551.7,188.57
		c-7.3-10.04-17.92-15.08-29.22-19.2c3.96-3.49,9.03-5.07,13.26-7.7c0.62-2.53-0.43-3.67-2.47-4.84c-7.2-4.11-15.58-4.43-23.14-7.39
		c-1.48-0.58-2.84-3-5.72-1.31c7.99,6.92,18.88,6.2,27.28,11.75c-5.5,2.04-10.48,4.39-13.8,9.37c1.02,1.94,2.25,3.29,4.48,4.03
		c4.93,1.63,9.77,3.54,14.59,5.47C542.55,180.98,547.08,184.86,551.7,188.57z M417.75,162.65c-6.04-1.27-11.81-1.09-17.42-2.4
		c-5.47-1.27-9.85-4.87-15.49-7.57c5.87,15.56,5.37,17.86,16.49,26.18c-7.02,1.4-26.82,13.59-30.87,19.01
		c0.14,0.07,0.35,0.25,0.42,0.21c7.71-4.83,15.18-9.98,23.37-14.09c4.71-2.36,9.12-4.64,14.76-3.77
		c-8.63-4.27-15.88-9.53-17.94-19.86C407.75,164.87,413.13,165.36,417.75,162.65z M461.27,399.95c3.77,10.05,6.18,19.3,9.4,28.32
		c-0.71-8.4-2.88-16.47-5.64-24.45c5.4-0.08,9.02,5.63,14.84,4.02c0-3.42,0.73-6.77-0.13-9.66c-3.6-12.15-7.42-24.27-14.4-35.06
		c-3.81-5.89-6.07-8.11-11.51-11.02c7.78,6.91,12.83,15.81,16.37,25.17c3.47,9.16,8.1,18.33,7.58,28.81
		C471.88,405.22,467.82,401.02,461.27,399.95z M390.35,210.43c-0.77-0.7-1-1.09-1.23-1.09c-0.64-0.01-1.34-0.01-1.91,0.24
		c-9.2,4.12-15.17,11.62-20.17,19.93c-4.62,7.66-8.11,15.87-10.52,24.53c-0.51,1.82-2.24,3.33-1.2,5.55
		c0.84-0.8,1.27-1.75,1.69-2.81c1.44-3.6,2.56-7.35,4.13-10.87c3.79-8.49,8.25-16.74,14.49-23.67
		C379.73,217.7,383.44,212.38,390.35,210.43z"/>
	<path class="st0" d="M408.35,518.58c-4.35,3.28-8.19,5.75-13.36,5.64c-7.06-0.15-14.22-0.73-21.04,1.9
		c-5.55,2.14-11.54,3.48-15.46,8.64c-0.56,0.74-1.89,1.13-3.04,1.44c-10.61,2.91-21.13,6.2-31.8,8.83
		c-8.03,1.98-15.01,5.42-20.82,11.82c-1.78-1.29-3.93-0.46-6.02-1.21c-5.28-1.9-5.34-1.75-4.16-7.08c-3.12-0.79-2.04,2.62-3.49,3.6
		c-0.91-0.44-1.78-0.86-2.73-1.31c0.96-2.97,3.95-3.41,6.29-4.79c-1.57-2.47-4.71-1.22-6.88-3.41c7.34-1.34,10.98-7.22,16.03-11.11
		c3.65-2.81,2.77-4.87-2.55-7.92c3.24-1.69,6.39-3.33,9.91-5.17c-2.41-6.38-6.02-12.46-5.11-19.66c1.82,0.02,2.69,1.48,3.4,2.6
		c0.81,1.27,1.46,2.31,2.98,1.51c1.55-0.82,1.41-2.06,1.04-3.78c-1.55-7.08,0.06-13.87,2.28-20.9c2.47,1.54,4.62,2.61,6.24,4.52
		c1.8,2.12,4.44,2.02,6.34,0.95c1.58-0.88,1.69-2.96,0.94-5.23c-0.78-2.37-0.17-5.19-0.17-8.21c6.21,0.65,12.19,1.89,18.44,0
		c6.68,7.61,15.04,13.6,22.63,20.46c6.5,5.88,13.23,11.44,17.78,19.05c1.91,3.19,3.91,6.36,5.25,9.88c0.32,0.85,0.41,2.45,2.32,2.33
		c-1.15-6.35-0.41-12.72-0.65-19.9C398.32,507.86,402.34,513.88,408.35,518.58z M342.58,509.12c-2.06-1.78-3.92-3.84-7.05-3.99
		c-5.19-0.25-7.9,1.31-11.71,8.68c-2.33,4.51,0.12,8.38,5.24,8.32c5.41-0.06,10.07-2.56,13.01-6.81c3.24-4.68,8.81-6.51,11.35-11.18
		c2.42,0.81,4.22,1.41,6.24,2.09c1.63-3.55,3.6-6.7,3.34-10.69c-0.25-3.8-2.42-6.42-6.85-7.75c-2.55-0.77-6.33,0.88-8.21,3.57
		c-2.64,3.79-2.62,5.85,0.04,9.31c0.68,0.88,1.92,1.39,1.9,2.93C347.86,505.81,345.97,508.34,342.58,509.12z"/>
	<path class="st0" d="M487.65,101.46c-3.38-5.08-4.52-11.08-7.23-16.41c-2.39-4.7,0.14-9.15,1.84-13.41
		c6.03-15.02,9.35-30.76,12.69-46.5c1.05-4.93,2.15-9.86,2.93-14.84c0.36-2.34,1.42-2.99,3.59-3.1c3.93-0.2,7.46,1.18,10.71,2.93
		c5.24,2.82,9.59,6.98,13.57,11.29c1.64,1.77,1.62,5.15,2.16,7.83c1.28,6.38,2.89,12.75,3.51,19.2c0.54,5.61,3.02,11.25,0.61,17
		c-0.24,0.57-0.04,1.32-0.09,1.98c-1.13,15.56-1.03,31.15-1.03,46.74c0,1.53,0.75,3.4-1.42,4.59c-1.24-2.04-0.2-4.36-0.89-6.45
		c-1.77-5.38-4.25-6.06-8.21-2.03c-0.42,0.42-0.4,1.27-1.65,1.27c2.08-3.31,0.52-7.1,2.05-10.53c0.83-1.87,0.12-3.99-1.83-5.21
		c-1.78-1.11-3.21-0.4-4.94,0.67c-3.68,2.28-6.22,5.64-9.6,9.09c-0.45-6.57-5.43-10.04-8.66-14.57c-2.27-3.19-5.39-1.99-7.1,1.76
		C487.35,95.65,488.65,98.61,487.65,101.46z"/>
	<path class="st0" d="M137.32,659.7c1.31-1.16,4.3,0.27,4.52-3.01c-4.83,0.46-9.93,3.27-13.78-1.65c-2.15,1.51,0.27,1.96,0.18,2.97
		c-4.38,0.72-8.49-0.82-12.45-2.01c-5.57-1.66-10.88-4.06-15.52-7.94c-6.17-5.17-6.79-15.99-2.9-22.63c2.44-4.17,5.9-7.46,10.01-10
		c6.9-4.25,16.27-3.11,22.05,2.65c2.53,2.52,5.2,4.93,7.55,7.61c3.72,4.23,8.61,5.5,13.86,6.54c5.99,1.19,12.12,0.47,18.08,1.86
		c4.09,0.96,4.48,1.77,5.17,5.75c1.86,10.67-12.66,21.59-20.79,21.32c-3.99-0.14-7.99-0.01-11.98-0.03
		C139.86,661.13,138.25,661.51,137.32,659.7z"/>
	<path class="st0" d="M822.5,621.61c-3.68,10.05-12.18,15.77-19.5,22.49c-3.01,2.76-6.36,5.11-10.21,6.65
		c-2.18,0.87-4.71,1.11-6.64,1.85c-2.35,0.91-4.01,1.87-6.44,0.65c-1.17-0.59-2.3,0.52-3.15,1.08c-7.33,4.82-15.4,2.63-23.18,2.45
		c-4.23-0.1-8.08-2.22-11.8-4.33c-5.7-3.23-8.39-10.42-5.99-16.51c2.58-6.54,8.24-9.5,16.2-7.65c10.77,2.51,20.36,0.39,29.34-5.81
		c3.32-2.29,6.74-4.65,10.46-6.09c7.5-2.9,15.35-3.42,23.09-0.82C817.79,616.61,820.57,618.5,822.5,621.61z"/>
	<path class="st0" d="M807.71,730.45c5.76-1.81,10.76-3.76,13.49-9.05c0.45-0.87,1.44-1.19,2.54-1.29c4.2-0.39,8.15-2.04,12.47-2.2
		c1.63-0.06,3.97-0.52,5.55-2.06c1.61-1.57,3.72-2.37,6.23-3.42c-9.17,28.44-24.99,50.16-54.92,58.79
		c2.07-4.33,7.11-6.57,9.05-11.39c1.82-4.52,4.5-8.79,4.7-13.74C807.02,740.97,808.76,736.01,807.71,730.45z"/>
	<path class="st0" d="M118.62,721.77c5.03,4.53,10.24,6.58,14.5,10.21c3.58,3.05,8.41,4.05,13.3,2.43c2.02-0.67,4.23,0.13,6.25-0.82
		c1.07,4.97-0.32,9.95,0.94,14.89c2.46,9.7,6.22,18.82,10.82,27.66c0.74,1.42,2.46,2.88,0.72,5.16
		c-6.37-4.86-12.49-10.01-19.08-14.46c-12.6-8.51-21.12-19.87-25.35-34.43C119.84,729.34,119.46,726.1,118.62,721.77z"/>
	<path class="st0" d="M120,697.32c0.54,5.54-1.21,11.37-3.21,17.05c-1.3,3.7-4.04,6.82-6.93,9.34c-1.06,0.92-2.22,2.22-3.74,2.93
		c-2.23,1.04-4.49,1.98-6.86,2.41c-2.24,0.41-4.51,0.01-6.76-0.83c-1.65-0.62-2.48-1.37-2.52-3.12c-0.14-5.28,0.29-10.35,2.63-15.3
		c2.83-6,5.43-12.02,9.23-17.57c2.8-4.09,6.58-6.24,10.84-7.88c2.88-1.11,5.05,0.21,6.3,3.09
		C120.28,690.43,119.96,693.56,120,697.32z"/>
	<path class="st0" d="M119.97,775.28c-15.59-4.26-24.76-15.13-32.84-27.03c-5.12-7.55-9.88-15.39-13.46-23.86
		c-0.25-0.59-0.8-1.06-0.29-1.87c2.22-1.26,3.22,0.74,4.41,1.93c3.14,3.16,6.13,6.44,10.67,7.71c5.17,1.44,10.3,1.51,15.46,0.05
		c1.09-0.31,2.19-0.59,4.24-1.13C105.25,747.54,110.94,761.55,119.97,775.28z"/>
	<path class="st0" d="M792.86,735.21c-9.11,19.18-25.66,31.16-39.63,45.55c7.77-15.47,8.36-32.11,8.87-49.23
		c4.82,2.56,10,3.38,15.01,4.8C782.52,737.85,787.34,736.16,792.86,735.21z"/>
	<path class="st0" d="M775.41,729.98c-9.33-1.82-15.31-8.4-20.83-15.02c-2.84-3.41-3.2-8.6-2.38-13.15c0.7-3.95,3.79-6.79,7.56-7.4
		c3.4-0.55,6.63,1.63,8.91,4.23c6.34,7.22,8.58,15.86,8.29,25.34C776.89,726.18,776.08,728.03,775.41,729.98z"/>
	<path class="st0" d="M164.92,697.1c-0.18,3.5,0.76,6.28,1.6,9.06c3.05,10.08-0.16,16.36-10.36,20.01
		c-2.93,1.05-5.76,3.78-8.99,0.64c-3.58-3.48-5.05-8-3.95-12.57c1.28-5.3,2.96-10.66,7.56-14.49c2.89-2.41,5.53-4.37,9.54-2.72
		C161.44,697.5,162.92,697.1,164.92,697.1z"/>
	<path class="st0" d="M807.91,727.62c0.45-4.49-1.7-5.76-4.83-6.99c-10.27-4.03-12.36-17.76-4.05-25.11
		c3.84-3.4,10.15-3.35,13.27,0.68c5.66,7.3,7.19,15.62,4.56,24.53C815.69,724.7,811.87,725.53,807.91,727.62z"/>
	<path class="st0" d="M884.18,690c-4.83-1.7-10.56-0.45-14.59-4.65c-3.78-3.95-3.9-9.58-6.6-13.97c1.95-5.22,5.98-8.44,11.15-7.92
		c6.33,0.63,12.07,3.97,14.6,10.17C891.18,679.62,890.63,685.59,884.18,690z"/>
	<path class="st0" d="M19.71,686.08c1.14-4.12,2.53-7.02,5.58-9.07c1.76-1.18,3.21-2.86,4.72-4.41c3.43-3.52,7.96-5.06,12.42-6.28
		c3.49-0.95,6.99,0.23,10.16,2.51c1.7,1.23,1.73,2.54,1.14,3.7c-3.56,7.02-7.75,13.52-15.57,16.57c-3.35,1.3-6.56,2.04-9.62-0.75
		C26.25,686.29,23.37,685.77,19.71,686.08z"/>
	<path class="st0" d="M19.81,721.32c-9.3-11.83-11.54-24.99-13.02-39.39c5.84,4.86,11.71,7.74,18.38,9.18
		C20.73,700.83,20.23,710.67,19.81,721.32z"/>
	<path class="st0" d="M901.09,716.79c-0.05-6.13-2.5-11.49-4.41-16.92c-1.03-2.91-0.89-4.96,1.49-6.4
		c8.44-5.09,10.29-13.33,11.03-22.29C911.45,685.26,909.28,708.28,901.09,716.79z"/>
	<path class="st0" d="M245.47,1050.33c-10.94,2.93-19.66-1.9-28.42-8.04c-0.45-4.23,1.76-8.3,2.79-13.86
		c3.58,5.87,6.36,11.63,11.85,13.52C237.11,1043.82,239.65,1049.59,245.47,1050.33z"/>
	<path class="st0" d="M677.2,1051.58c9.78-5.39,16.57-14.58,26.05-20.51c0.97,1.89,0.64,3.21,0.65,4.47
		c0.06,10.01,0.06,10.05-9.53,13.53c-3.52,1.28-7.13,2.4-10.96,2C681.34,1050.86,679.38,1051.44,677.2,1051.58z"/>
</g>
</svg>
