<?xml version="1.0" encoding="utf-8"?>
<!-- Generator: Adobe Illustrator 24.1.1, SVG Export Plug-In . SVG Version: 6.00 Build 0)  -->
<svg version="1.1" id="Layer_1" xmlns="http://www.w3.org/2000/svg" xmlns:xlink="http://www.w3.org/1999/xlink" x="0px" y="0px"
	 width="1490.9" height="1198.88" viewBox="0 0 1490.9 1198.88" style="enable-background:new 0 0 1490.9 1198.88;" xml:space="preserve">
<style type="text/css">
	.st0{fill:#1A1A1A;}
</style>
<g>
	<path d="M1051.87,1160.8c0.01,2.27,1.18,2.9,1.78,3.86c1.46,2.31,1.05,4.38-0.72,6.26c-1.99,2.12-4.34,2.3-6.71,0.78
		c-1.81-1.16-3.52-2.49-5.14-3.91c-1.3-1.15-2.84-1.78-4.39-2.27c-3.81-1.19-6.64,1.1-6.25,5.04c0.24,2.47,1.26,4.75,2.09,7.08
		c3.11,8.75-1.21,15-10.6,15.41c-7.08,0.31-12.9-2.52-17.64-7.62c-2.03-2.19-3.76-4.65-5.74-6.9c-3.9-4.45-8.29-7.97-14.58-8.5
		c-5.85-0.5-8.04,2.11-9.18,7.33c-1.56,7.14-5.45,10.82-12.5,11.24c-5.2,0.31-9.15-2.46-12.51-6.13
		c-3.72-4.07-7.44-8.28-12.64-10.32c-14.14-5.54-28.15-6.9-41.47,2.49c-3.46,2.44-7.24,3.92-11.65,3.46
		c-4.34-0.45-6.66-3.02-6.18-7.26c0.04-0.33,0.06-0.67,0.12-0.99c1.52-7.56,0.37-9.47-7.58-9.62c-19.57-0.38-38.54,2.57-56.28,11.45
		c-9.34,4.67-18,10.52-27.15,15.5c-8.2,4.46-16.69,7.95-26.29,7.95c-2.56,0-4.95-0.56-7.29-1.26c-4.58-1.37-5.95-5.18-3.53-9.37
		c3.08-5.34,8.19-8.64,12.84-12.37c4.51-3.63,9.55-6.62,13.12-11.37c1.7-2.26,3.03-4.68,1.82-7.33c-1.24-2.72-4.16-3.09-6.84-3.16
		c-5.33-0.15-10.68,0.11-15.99-0.23c-25.75-1.68-51.26-4.54-75.38-14.74c-12.98-5.49-25.22-12.24-36.92-20.06
		c-1.65-1.1-3.37-2.09-5.77-3.58c-4.92,13.15-4.46,25.65,0.57,38.44c8.4,0,16.55,0.01,24.7-0.01c3.67-0.01,7.18,0.82,10.67,1.86
		c1.84,0.55,3.41,1.3,4.02,3.28c-0.72,2.26-2.74,2.67-4.61,3.25c0.83,2.24,3.36,0.98,4.74,2.45c-0.18,3.93-3.25,3.9-5.94,4.13
		c-6.79,0.58-13.59,0.28-20.54-0.08c2.16,4.81,1.61,6.27-3.24,6.86c-5.45,0.66-10.98,0.67-16.31-1.02
		c-1.37-0.44-3.14-0.88-3.78-2.26c-1.7-3.64-4.75-3.55-8.01-3.5c-7.16,0.09-14.34,0.32-21.49-0.04c-9.39-0.48-18.75-1.48-27.88-3.93
		c-2.06-0.55-4.11-1.15-5.83-2.97c1.62-3.16,4.98-3.15,7.6-3.68c5.67-1.15,11.5-1.48,17.23-2.37c7.77-1.21,15.58-0.83,23.38-1.03
		c2.44-0.06,4.9-0.66,7.29-1.26c1.84-0.46,3.18-1.75,3.51-3.71c3.1-18.6,0.02-36.14-9.26-52.54c-1.04-1.84-2.66-3.42-4.22-4.91
		c-10.86-10.35-20.89-21.43-29.93-33.41c-0.49-0.65-0.83-1.41-1.24-2.12c-0.36,0.2-0.73,0.41-1.09,0.61c0,5.37-0.47,10.79,0.09,16.1
		c1.33,12.52,3.37,24.97,2.75,37.64c-0.19,3.94-0.93,7.51-4.72,9.75c-2.75-1.03-3.7-3.31-4.25-5.74c-1.78-7.75-2.4-15.66-3.09-23.57
		c-1.56-17.93-0.84-36.12-5.9-53.68c-0.41-1.41-0.99-2.7-2.06-4.04c0,6.84-0.06,13.69,0.03,20.53c0.03,2.2-0.3,4.26-1.04,6.31
		c-0.43,1.2-1.1,2.01-2.46,2.06c-1.34,0.05-1.54-1.14-1.96-1.94c-1.65-3.14-2.06-6.71-2.34-10.08c-0.43-5.12-1.12-10.22-1.35-15.38
		c-0.62-13.71-2.87-27.03-8.45-39.89c-8.26-19.02-14.54-38.75-18.61-59.19c-1.92-9.68-4.58-19.28-5.52-29.06
		c-1.62-16.84-3.51-33.72-1.66-50.72c0.77-7.08,0.56-14.28,1.48-21.33c1.28-9.8,2.85-19.55,4.65-29.29
		c3.01-16.39,7.09-32.46,12.27-48.24c13.52-41.15,33.2-79.12,60.08-113.16c15.08-19.1,31.68-36.79,51.71-50.93
		c1.45-1.03,2.17-2.42,2.88-3.89c7.58-15.61,18.64-28.5,31.08-40.4c9.4-8.99,19.75-16.72,30.28-24.27c1.74-1.25,3.21-2.88,4.97-4.5
		c-3.05-3.92-7.08-6.56-10.65-9.63c-11.71-10.05-19.22-23.08-26.32-36.42c-13.52-25.4-24.54-51.85-33.28-79.24
		c-3.51-10.98-5.74-22.21-7.03-33.74c-1.52-13.57-0.77-26.77,3.33-39.66c6.52-20.47,20.91-30.85,42.87-31.91
		c5.37-0.26,9.08-5.63,7.94-12.23c-0.7-4.05-1.31-8.13-2.08-12.16c-1.8-9.43-3.03-18.9-3.94-28.46c-0.75-7.91-1.5-15.81-2.02-23.74
		c-1.17-17.79-1.6-35.6-1.74-53.42c-0.13-16.66,0.22-33.34-0.25-49.99c-0.26-9.21-0.91-18.43-2.87-27.55
		c-4.37-20.24-0.61-39.18,11.03-56.25c5.97-8.77,13.72-15.74,24.42-18.55c0.48-0.13,0.94-0.5,1.4-0.48
		c11.67,0.58,22.88-4.62,34.56-3.03c11.75,1.6,23.71,1.47,35.25,4.77c6.59,1.88,11.35,6,15.47,11.09c1.99,2.46,3.2,5.37,2.96,8.41
		c2.07,1.52,3.69-0.26,5.54-0.13c-0.91,2.23-3.96,2.29-4.42,4.44c-0.44,2.08-0.32,4.31-0.21,6.47c0.13,2.61-1.28,4.77-1.76,7.45
		c2.02,2.25,5.19,2.93,7.94,4.32c2.21,1.11,4.53,2,6.82,2.95c4.8,2,7.12,5.36,7.05,10.79c-0.12,9.13-2.92,17.18-8.55,24.25
		c-1.76,2.21-2.54,4.56-2.53,7.29c0.02,3,0.16,6.01-0.04,9c-0.21,3.09-0.6,6.25-3.91,7.86c-1.98-1.51-2.06-3.46-2.05-5.46
		c0.02-3.17,0.07-6.33-0.01-9.5c-0.11-4.31-1.36-5.73-5.49-6.01c-2.13-0.15-4.31-0.35-6.65,0.25c-1.92,4-2.5,8.35-2.86,12.79
		c-0.89,11,1.13,21.9,1.04,32.87c-0.08,8.7-0.26,9.37-5.92,15.66c5.22,8.26,13.03,15.62,10.4,27.2c-2.8-0.42-3.07-2.58-3.88-4.27
		c-1.56-3.26-2-6.98-4.01-10.04c-2.27-3.44-4.4-3.36-6.1,0.32c-0.96,2.08-1.64,4.27-1.56,6.69c0.13,3.81-0.16,7.59-0.8,11.41
		c-0.55,3.26-1.43,6.03-4.26,7.95c4.57,10.1,10.55,19.03,16.54,27.95c5.63,8.38,11.27,16.72,16.47,25.39
		c4.18,6.98,11.12,10.67,18.45,13.57c1.82,0.72,3.55-0.01,5.2-0.96c16.5-9.47,36.16-3.98,48.08,7.26
		c10.83,10.21,17.68,23.14,23.94,36.25c17.23,36.06,30.91,73.49,40.09,112.4c3.13,13.26,6.46,26.51,8.9,39.93
		c1.71,9.42,2.14,18.74-2.48,27.64c-2.28,4.39-2.19,9.27-2.33,14.07c-0.18,6.14,0.54,12.32-0.75,18.43c-0.2,0.96-0.04,1.99-0.59,2.9
		c-0.57,0.95-0.74,2.34-2.34,2.14c-1.37-0.17-1.85-1.08-2.11-2.36c-0.58-2.91-1.24-5.79-1.02-8.81c0.16-2.26,0.25-4.58-1.84-6.68
		c-3.79,4.85-7.48,9.7-11.32,14.42c-1.65,2.03-0.56,3.73,0.18,5.53c6.01,14.67,10.94,29.67,14.37,45.16
		c2.25,10.16,3.63,20.43,4.79,30.78c0.93,8.33,0.78,16.62,0.79,24.93c0.01,7.47-1.03,14.88-2.61,22.18
		c-1.23,5.68,0.19,11.11,1.16,16.6c0.98,5.52,1.89,11.06,2.93,17.14c4.34-3.24,8.66-6.38,12.87-9.64
		c34.37-26.6,72.22-46.27,114.46-56.92c10.69-2.7,21.62-4.32,32.67-5.43c12.65-1.26,25.34-1.57,37.86-0.62
		c32.54,2.47,63.47,10.58,90.25,30.39c15.33,11.34,24.7,26.5,27.42,45.5c2.01,14.1,3.42,28.25,4.17,42.49
		c0.41,7.66,0.88,15.23-0.13,22.86c-0.46,3.47-1.27,6.77-2.83,9.91c-0.92,1.85-1.92,3.91-4.26,3.45c-2.25-0.44-2.88-2.73-2.87-4.73
		c0.03-6.99-0.04-13.97,0.4-20.97c0.92-14.89,1.99-29.93-2.53-44.48c-4.39-14.12-13.08-24.22-28.15-27.68
		c-5.87-1.35-8.9,1.47-9.92,7.39c-1.76,10.19,0.01,20.23,0.19,30.33c0.06,3.55-0.93,6.89-1.37,10.32c-0.26,1.99-1.31,4.18-3.93,4.75
		c-2.14-0.73-2.7-2.31-2.82-4.55c-0.43-8.18,0.6-16.26,1.44-24.35c0.69-6.65,0.92-13.19-0.17-19.85c-0.63-3.86-2.27-6.4-5.71-8.03
		c-5.35-2.53-11.03-2.46-16.61-1.65c-4.62,0.68-6.28,3.3-6.83,9.04c-0.32,3.31-0.53,6.6-3.87,8.67c-3.38-1.4-3.6-4.57-4.08-7.4
		c-0.36-2.15-0.9-4.16-1.9-6.06c-1.57-2.99-3.53-4.21-7.4-3.9c-9.26,0.75-18.3,2.58-27.38,4.28c-2.65,0.5-3.94,1.59-4.49,4.34
		c-0.96,4.79-1.03,9.45-0.29,14.3c1.04,6.77,0.58,13.56-1.62,20.14c-0.74,2.2-1.66,4.31-4.18,5.24c-2.37-1.61-2.83-3.94-2.82-6.51
		c0.02-6.67-0.01-13.33,0.01-20c0.01-3.55-0.97-6.85-2.56-9.96c-1.15-2.25-2.58-3.03-5.2-1.57c-4.33,2.42-7.85,5.52-10.21,9.88
		c-4.15,7.66-5.81,16.02-7.05,24.53c-2.5,17.21-1.32,34.56-2.07,51.83c-0.31,7.05-0.37,14.23-2.91,21c-0.69,1.84-1.37,3.75-2.41,5.4
		c-2.8,4.44-6.58,4.45-9.33-0.05c-2.67-4.38-3.06-9.38-3.24-14.36c-0.25-6.79,0.51-13.61-0.98-20.38
		c-1.15-5.23-3.55-9.62-7.77-12.87c-6.53-5.03-13.88-2.7-16.24,5.26c-1.85,6.24-2.32,12.69-1.87,19.21
		c0.36,5.15,0.53,10.31,0.85,15.47c0.13,2.08-0.36,4.01-1.36,5.73c-1.87,3.22-5.25,3.22-7.13,0.03c-1.19-2.02-1.55-4.27-1.57-6.67
		c-0.1-11.48,0.55-22.98-0.87-34.45c-0.47-3.82-1.27-7.44-2.91-10.87c-3.6-7.53-7.86-9.02-15.62-5.8
		c-4.06,1.68-7.52,4.23-10.72,7.09c-22.78,20.34-43.31,42.71-60.28,68.16c-5.75,8.62-9.73,18.1-8.56,28.94
		c0.51,4.77,1.92,6.03,6.47,7.12c3.47,0.83,6.91,0.79,10.39,0.87c25.49,0.57,50.96-0.73,76.42-1.37c42.64-1.08,85.27-1.93,127.92-1
		c9.14,0.2,18.32-0.27,27.45,0.43c10.22,0.78,20.45,1.47,30.65,2.75c19.2,2.41,38.01,6.39,56.41,12.23
		c26.72,8.47,52.38,19.5,74.72,36.63c23.83,18.28,45.03,39.28,59.61,66.05c8.73,16.04,14.58,33.05,18.09,51.04
		c2.91,14.97,3.74,30.05,2.64,45.06c-2.26,30.66-10.31,59.72-27.8,85.53c-1.78,2.62-0.58,4,1.11,5.42
		c3.13,2.63,7.03,3.51,10.92,4.16c8.46,1.42,16.95,2.62,25.4,4.07c4.06,0.69,8.04,1.79,11.61,4.02c1.8,1.12,3.34,2.53,2.84,4.8
		c-0.49,2.21-2.35,2.84-4.51,3.18c-7.49,1.17-14.88-0.06-22.31-0.67c-12.52-1.04-24.74-4.56-37.4-4.37c-0.94,0.01-1.88,0-3.82,0
		c3.74,1.82,7.53,1.61,9.09,5.43c-1.82,2.25-3.9,3.08-6.86,2.06c-2.32-0.8-4.71-1.31-6.97-2.39c-1.74-0.83-3.65-1.74-5.75-0.75
		c0.22,1.91,2.05,1.95,3.26,2.61c1.34,0.73,2.61,1.42,3.48,3.12c-1.68,2.28-3.69,3.11-6.64,2.04c-6.18-2.22-12.27-4.69-18.65-6.36
		c-1.47-0.38-2.77-0.97-4.51-0.44c1.63,2.44,4.24,2.97,6.62,3.9c1.69,0.66,3.38,1.33,5.01,2.14c1.62,0.81,3.36,1.6,3.14,3.96
		c-0.25,2.61-2.45,3.08-4.24,3.52c-4.76,1.16-9.66,0.76-14.37-0.12c-10.51-1.98-20.93-4.43-31.42-6.54
		c-2.56-0.51-5.29-0.66-7.59,2.25c3.02,3.78,7.3,4.63,11.56,5.58c8.34,1.85,16.92,0.41,25.31,1.88c3.42,0.6,6.83,1.22,10.06,2.39
		c2.53,0.92,4.57,2.63,4.72,5.78c0.15,2.99-1.79,4.69-3.92,5.89c-4.26,2.41-9.07,3.33-13.86,2.71c-7.87-1.02-15.79-1.52-23.67-2.54
		c-8.27-1.07-16.24-2.84-23.73-6.48c-10.72-5.21-21.74-9.55-33.42-12.05c-3.63-0.78-7.32-2.15-11.11-0.31
		c-1.02,2.51,0.05,4.39,1.58,6.33c3.65,4.6,8.62,7.83,12.46,12.21c0.88,1,1.96,1.84,2.71,2.92c2.13,3.07,1.13,6.06-2.3,7.56
		c-1.11,0.49-2.22,0.57-3.38,0.68c-15.57,1.39-29.39-3.19-42.01-12.08c-7.3-5.14-14.54-10.37-22.39-14.69
		c-12.69-6.97-26.2-10.64-40.75-10.3c-4.16,0.1-8.34,0.16-12.5,0.01c-2.09-0.08-3.87,0.6-5.69,1.36c-3.01,1.26-3.85,3.13-2.36,6.3
		c1.4,2.99,2.78,5.99,4.22,8.96c4.17,8.6,2.53,13.9-5.6,17.88c-11.91,5.83-26.26,3.78-36.9-5.41c-7.54-6.51-14.03-14.26-22.58-19.59
		c-5.46-3.4-10.81-7.08-17.15-8.77C1062.43,1156.14,1056.93,1157.47,1051.87,1160.8z M1081.79,694.28c0-0.67,0.03-1.33,0-2
		c-0.25-5.53-2.66-7.13-7.66-4.94c-2.27,0.99-4.45,2.22-6.62,3.43c-4.75,2.66-8.54,6.19-10.27,11.56c-1.93,6.03,1.58,14,7.18,16.23
		c5.25,2.1,10.56-0.84,13.62-7.53C1080.49,705.71,1081.5,700.08,1081.79,694.28z M766.7,152.57c1.47,9.22,4.54,17.75,7.79,27.02
		c3.58-7.46,3.95-14.67,2.96-22.05c-0.46-3.41-1.23-6.52-6.04-4.79C770.33,153.15,768.91,152.01,766.7,152.57z"/>
	<path d="M1197.68,1178.61c-8.21,5.82-16.82,5.02-25.52,2.12c-1.67-0.56-3.16-1.77-3.36-3.9c-0.24-2.53,1.59-3.71,3.35-4.39
		c4.94-1.91,10.1-1.37,14.83,0.45c2.05,0.78,3.77,2.19,6.21,2.44C1194.85,1175.49,1196.7,1176.37,1197.68,1178.61z"/>
	<path d="M1315.22,1187.14c4.56-0.6,8.45,0.92,11.77,3.91c1.36,1.22,2.55,2.82,1.83,4.8c-0.64,1.76-2.43,1.87-4.05,2.26
		c-5.62,1.34-11.16,0.84-16.58-0.81c-5-1.52-5.46-4.16-1.66-7.7C1309.02,1187.27,1311.98,1186.71,1315.22,1187.14z"/>
	<path d="M1181.57,698.85c1.91,9.17,4.48,18.21,2.02,27.69c-0.25,0.95-0.62,1.9-1.07,2.77c-0.87,1.69-1.98,3.2-4.2,2.78
		c-2.22-0.42-3.43-1.85-3.54-4.13c-0.14-2.98,0.24-5.88,0.9-8.82c1.25-5.6,2.16-11.27,3.03-16.95
		C1178.97,700.52,1179.42,699.35,1181.57,698.85z"/>
	<path d="M697.72,1169.06c2.2-3.25,5.71-3.05,8.58-3.52c5.35-0.88,10.88-1.5,16.16,0.67c1.15,0.47,2.57,0.89,2.47,2.69
		c-0.1,1.88-1.53,2.85-2.87,2.95c-6.74,0.49-13.47,2.29-20.29,0.3C700.06,1171.65,698.72,1171,697.72,1169.06z"/>
	<path d="M1475.92,1165.24c-2.18,1.98-4.4,2.84-7,2.84c-4.94,0.01-9.95,0.7-14.7-1.31c-1.17-0.49-2.44-1.03-2.56-2.7
		c-0.12-1.62,0.87-2.38,2.04-3.09C1458.51,1158.06,1471.85,1160.44,1475.92,1165.24z"/>
	<path d="M1390.21,1186c-2.96,0.54-5.56-0.72-8.23-1.39c-0.93-0.23-2.24-0.63-2.38-2.14c-0.14-1.52,0.56-2.5,1.72-3.3
		c4.23-2.92,13.3-2.34,17.09,1.08c2.17,1.96,1.86,3.85-1.08,4.57C1394.99,1185.41,1392.7,1186.66,1390.21,1186z"/>
	<path d="M734.88,1179.22c-3.92,3.08-11.92,3.84-15.54,1.65c-2-1.2-1.97-2.8,0.12-3.99
		C723.43,1174.61,729.63,1173.94,734.88,1179.22z"/>
	<path d="M1463.61,1182.31c3.7-4.17,10.85-4.55,14.9-1.05C1474.66,1185.84,1469.64,1186.27,1463.61,1182.31z"/>
	<path d="M1490.9,1159.86c-3.91,3.67-7.47,3.8-11.93,0.72C1482.55,1157.41,1485.89,1157.14,1490.9,1159.86z"/>
	<path d="M746.91,1167.8c-3.15,1.81-6.05,1.94-9.1-0.11C740.61,1163.9,743.43,1163.94,746.91,1167.8z"/>
	<path d="M1398,1174.14c-5.09,1.47-5.59,1.4-8.12-0.99C1393.23,1170,1395.43,1170.18,1398,1174.14z"/>
</g>
<g>
	<path class="st0" d="M949.2,826.71c-1.73,0.32-2.67,0.5-3.68,0.69c0.19,0.3,0.28,0.61,0.47,0.7c2.52,1.18,5.17,2.01,7.97,2.02
		c25.21,0.02,50.45,0.74,75.62-0.26c14.79-0.59,29.55-0.03,44.3-0.76c39.43-1.96,78.89-0.8,118.33-0.73
		c9.41,0.02,18.98,0.64,28.44,2.42c6.2,1.16,12.67,1.72,19.02,2.47c8.07,0.96,16.01,2.91,23.94,4.83c18.89,4.58,37.25,10.63,54.8,19
		c11.77,5.61,23.46,11.42,34.14,19.01c6.67,4.74,13.59,9.17,18.8,15.88c-10.02-7.51-21.9-9.92-33.88-12.92
		c0.81,2.1,2.78,2.09,4.07,2.96c1.47,1,3.29,1.47,4.83,2.38c5.17,3.04,10.52,5.52,14.35,10.78c2.29,3.14,3.46,5.89,2.94,9.4
		c-0.58,3.92-3.59,6.44-6.6,8.29c-4.73,2.91-10.17,4.53-15.67,5.15c-7.32,0.83-13.63,2.75-17.76,9.57c-2.2,3.63-5.62,6.27-9.68,7.89
		c-1.55,0.62-2.78,1.68-3.97,2.87c-6.54,6.51-14.42,9.69-23.66,8.71c-5.63-0.6-9.85-4.35-13.85-7.85
		c-10.4-9.08-16.6-21.1-21.62-33.62c-5.05-12.6-9.81-25.23-19.94-34.91c-1.61-1.54-2.58-3.75-3.8-5.68
		c-2.8-4.42-6.97-7.26-11.34-9.85c-3.73-2.2-6.85-5.04-10.13-8.91c18.34,1.65,35.78,4.14,53.12,7.78
		c17.2,3.6,33.61,9.67,50.24,15.11c-2.74-2.62-6.31-3.35-9.56-4.54c-16.2-5.95-32.73-11.03-49.68-14.19
		c-10.42-1.94-21-3.35-31.61-4.42c-15.45-1.56-30.87-2.74-46.41-3.04c-4.72-0.09-9.62-1.41-14.28-0.67
		c-9.95,1.58-19.9,0.93-29.81,0.68c-6.72-0.17-13.39,0.15-20.08,0.2c-14.94,0.12-29.86,0.93-44.79,1.26
		c-7.57,0.17-15.28-0.14-22.79,0.87c-9.13,1.23-18.29-0.06-27.3,0.99c-13.78,1.6-27.57,1-41.31,0.65
		c-10.05-0.26-20.24-1.25-29.92-4.75c-7.02-2.54-8.43-6.69-7.79-12.48c1.18-10.79,4.84-20.94,7.61-31.3
		c4.43-16.52,8.61-33.05,11.73-49.9c3.19-17.26,3.07-34.58,2.52-51.9c-0.14-4.41-0.17-9.12-1.52-13.65
		c-1.17-3.93,0.28-6.98,4.09-9.96c9.3-7.25,18.78-14.23,28.58-20.73c12.66-8.39,25.88-15.85,39.66-22.34
		c18.13-8.54,36.71-15.98,56.23-20.46c12.07-2.77,24.36-4.82,36.88-5.56c6.61-0.39,13.21-0.55,19.81-0.71
		c13.05-0.32,25.9,1.8,38.65,4.16c12.01,2.23,23.71,5.85,34.91,10.8c11.81,5.22,23,11.27,32.81,20.08
		c10.5,9.44,17.13,20.81,20.67,34.13c1.38,5.18,1.83,10.63,2.43,15.99c0.93,8.31,2.03,16.61,2.8,24.91
		c0.8,8.59,0.15,17.31,0.27,25.98c0.04,3.16-0.16,6.26-1.08,9.26c-0.86,2.79-1.74,5.66-4.71,7.48c-2.33-3.92-2.98-8.25-2.04-12.3
		c1-4.33,0.54-8.57,0.8-12.84c0.25-4.1,0.85-8.35,0.72-12.28c-0.55-16.62-0.08-33.75-11.02-47.96c-4.4-5.71-10.73-8.97-17.42-11.52
		c-3.38-1.29-6.49-3.03-10.27-0.99c-4.91,2.65-5.8,7.27-5.91,11.98c-0.25,10.66-0.11,21.33-0.06,31.99
		c0.02,3.03-0.66,5.72-2.71,8.49c-3.46-3.29-2.62-7.19-2.17-10.48c1.34-9.84,2.08-19.69,1.87-29.62c-0.03-1.5,0.08-3.01-0.02-4.5
		c-0.6-8.7-2.26-10.32-9.9-13.16c-5.94-2.21-12.05-2.17-17.97,0.67c-3.06,1.47-4.18,3.84-4.16,7.13c0.02,3.06-0.67,6-2.39,8.72
		c-3.28-1.7-2.76-4.83-3.35-7.09c-2.32-8.91-6.4-11.98-15.28-9.93c-7.17,1.66-14.51,2.22-21.68,3.8c-4.73,1.04-7.2,3.46-7.24,8.4
		c-0.07,8.33,0.12,16.67-0.08,24.99c-0.09,3.83-0.57,7.76-3.57,10.65c-1.93-0.66-1.32-2.04-1.33-3.05
		c-0.06-6.16-0.05-12.33-0.03-18.5c0.02-4.15-1.01-8.13-2.32-11.98c-1.68-4.92-5.18-5.78-9.69-3.04
		c-8.02,4.87-11.63,12.65-13.92,21.16c-3.09,11.48-4.42,23.25-4.01,35.12c0.46,13.47-0.9,26.86-1.14,40.3
		c-0.09,4.89-1.68,9.61-3.57,14.14c-0.83,2.01-1.86,3.94-4.56,3.83c-2.68-0.11-3.78-2.24-4.32-4.17c-0.78-2.8-1.62-5.62-1.53-8.68
		c0.24-8.74,0.29-17.48-1.92-26.07c-1.74-6.78-6.29-11.12-12.4-13.71c-5.12-2.18-11.49,1.07-13.49,6.69c-1.25,3.5-2.25,7.12-2.18,11
		c0.17,8.83,0.06,17.66,0.05,26.49c0,1.16,0.09,2.36-0.12,3.49c-0.24,1.26-1.17,1.92-2.52,1.96c-1.25,0.04-1.98-0.31-2.67-1.58
		c-1.15-2.13-1.71-5.05-1.36-6.57c2.15-9.48-1.4-18.76-0.37-28.14c0.55-4.97-0.78-9.79-2.35-14.46
		c-3.93-11.72-12.21-12.66-21.75-7.49c-6.12,3.31-11.08,8.2-16.04,12.99c-5.15,4.98-10.18,10.09-15.21,15.18
		c-14.25,14.41-26.97,30.11-37.89,47.14c-4.99,7.78-9.04,16.33-8.78,26.16C946.81,821.25,947.42,823.83,949.2,826.71z
		 M1082.77,695.96c0-2.19,0.19-4.2-0.04-6.17c-0.52-4.31-3.45-6.12-7.54-4.61c-4.44,1.64-8.66,3.81-12.47,6.6
		c-5.57,4.07-9.93,12.74-5.91,21.13c2.18,4.55,5.36,8.01,10.61,8.13c5.19,0.12,8.91-2.74,11.19-7.4
		C1081.37,708,1083.31,702.17,1082.77,695.96z M978.17,725.9c-1.1,11.57,0.14,21.16,3.78,25.74c3.08-10.44,1.87-20.79,3.64-30.73
		c-3.8,8.79-1.47,18.51-4.54,27.5C979.08,741.11,980.38,733.45,978.17,725.9z M1288.34,893.07c-0.95,10.39,0.1,20.85-0.78,31.24
		C1289.56,913.95,1288.42,903.49,1288.34,893.07z M1075.21,645.19c-0.34-0.11-0.68-0.21-1.02-0.32c-0.45,1.2-1.26,2.39-1.29,3.6
		c-0.15,4.94-0.06,9.89-0.06,15.57c1.7-2.55,2.38-4.71,1.92-6.95C1073.91,653.11,1073.21,649.19,1075.21,645.19z"/>
	<path class="st0" d="M850.68,552.3c-5.11-1.41-7.89-5.06-10.63-8.02c-11.67-12.55-23.62-24.89-36.34-36.28
		c-8.25-7.38-15.18-15.47-18.34-25.59c-2.33-7.45-6.11-13.49-10.36-19.62c-3.56-5.13-5.12-11.03-6.33-17.47
		c8.21,0.13,15.2-2.53,22.3-4.99c2.64-0.92,4.54-2.53,6.59-4.11c14.56-11.23,23.29-25.4,23.32-44.39
		c0.03-15.6-4.8-29.54-13.05-42.51c-1.58-2.48-1.62-2.45-4.82-3.97c-0.35,2.21,1.48,3.41,2.34,4.64
		c6.68,9.54,10.27,20.13,12.61,31.48c3.03,14.69-0.6,28.02-8.45,39.78c-6.49,9.72-15.65,17.58-27.87,19.68
		c-3.96,0.68-8.22,0.7-12.24,1.35c-7.13,1.16-10.23-4.01-14.01-8.11c-8.62-9.36-12.64-21-14.3-33.18
		c-1.28-9.38-1.86-18.9-0.54-28.59c1.32-9.72,2.79-19.42,4.33-29.11c1.08-6.75,2.79-13.41,3.89-20.16
		c1.58-9.64,1.91-19.25-2.17-28.5c-1.94-4.41-1.27-9.34-2.69-13.89c-0.77-2.46,1.51-3.29,3.16-3.42c10.36-0.82,19.2-5.72,28.39-9.86
		c6.26-2.82,12.49-5.61,18.32-9.25c2.23-1.39,3.92-3.5,6.82-4.56c4.55,3.35,7.21,8.79,9.68,13.91c3.62,7.47,9.36,12.87,15.6,17.51
		c15.98,11.86,32.69,22.74,48.64,34.63c9,6.71,16.73,14.94,24.04,23.58c6.71,7.93,11.55,16.68,13.57,26.76
		c3.01,15.08,3.75,30.15-4.81,43.92c-2.79,4.48-6.73,8.25-10.17,12.33c-0.86,1.03-1.89,0.99-3.13,0.57
		c-12.34-4.12-24.63-8.28-36.1-14.59c-5.7-3.13-11.69-5.75-17.2-9.17c-1.14,1.21-1.41,2.34-0.03,2.99c1.5,0.72,2.64,1.9,4.11,2.68
		c12.96,6.91,26.4,12.71,40.11,17.93c2.56,0.98,5.3,1.59,7.96,2.31c1.86,0.51,2.45,1.75,2.78,3c1.72,6.64,1.61,13.28-0.75,19.78
		c-0.46,1.28-0.3,2.41-0.17,3.72c0.66,7.17-0.52,13.74-4.85,19.97c-10.48,15.06-18.41,31.51-25.5,48.43
		C860.35,533.5,855.35,542.69,850.68,552.3z"/>
	<path class="st0" d="M864.61,821.08c-1.24,8.83-4.29,21.69-12.23,32.95c-4.27,6.05-9.06,11.65-14.01,17.17
		c-6.78,7.57-14.3,14.91-19.14,23.66c-3.49,6.3-7.82,12.34-10.31,19.21c-2.5,6.87-4.93,13.79-6.95,20.81
		c-2.69,9.36-4.8,18.92-6.83,28.42c-2.11,9.89-3.94,19.78-7.3,29.34c-0.55,1.57-1.19,3.01-2.31,4.27
		c-3.68,4.16-6.72,4.36-10.18,0.09c-5.6-6.9-11.49-13.53-17.29-20.25c-6.22-7.19-11.93-14.82-18.17-21.99
		c-8.61-9.9-16.36-20.4-23.45-31.43c-11.54-17.95-20.91-36.93-26.19-57.64c-2.37-9.3-4.34-18.78-4.59-28.55
		c-0.1-4.06-1.06-8.18-0.79-12.3c1-15.23,2.97-30.24,10.05-44.11c2.93-5.75,7.57-10.07,12.01-14.5c2.12-2.11,5.36-2.73,8.36-2.01
		c4.79,1.15,9.45,3.05,13.17,6.21c6.45,5.45,11.52,12.04,15.45,19.66c6.6,12.81,11.15,26.4,15.91,39.91c1.38,3.92,3.85,6.79,7.66,8
		c2.63,0.84,4.83-0.22,6.5-3.06c2.47-4.2,4.79-8.49,7.71-12.5c4.09-5.62,9.71-9.4,14.6-14c6.4-6.02,13.54-11.28,21.7-15
		c6.63-3.02,13.66-5.32,20.72-5.04C856.16,789.1,865.53,801.26,864.61,821.08z"/>
	<path class="st0" d="M929.84,1143.07c-23.02-0.87-45.3-5.31-66.67-14.2c-12.72-5.3-24.66-12.08-35.75-20.09
		c-12.79-9.24-22.24-21.4-25.25-37.3c-1.62-8.57-0.2-17.06,5.2-24.36c2.47-3.34,5.83-4.96,10.15-5.09
		c6.85-0.2,13.13,0.71,19.51,3.89c8.33,4.16,17.59,5.96,27,6.17c12.56,0.28,25-0.97,37.38-2.96c0.16-0.03,0.33-0.02,0.5-0.02
		c15.57,0.28,30.98-3.08,46.57-2.01c16.02,1.1,29.49,7.25,37.09,21.88c5.79,11.14,6.96,23.43,3.87,35.89
		c-4.15,16.75-15.58,26.74-30.79,33.13c-3.88,1.63-7.91,3.19-12.02,3.91C941.13,1142.87,935.54,1143.83,929.84,1143.07z"/>
	<path class="st0" d="M931.87,836.36c3.41,7.7,10.63,8.23,17.16,9.7c7.24,1.63,14.69,1.63,22.04,2.31
		c7.14,0.66,14.28,1.19,21.31,0.59c11.28-0.97,22.58-0.15,33.8-0.97c15.69-1.14,31.41-1.27,47.09-2.13
		c11.12-0.61,22.22-0.2,33.31-0.82c3.76-0.21,7.57-0.59,11.29-1.07c5.68-0.74,9.35,2.01,12.1,6.01c3.36,4.89,8.06,8.32,12.48,11.82
		c7.93,6.28,12.35,13.86,12.31,23.93c-0.02,7.27,0.51,14.56-0.89,21.8c-0.32,1.67-0.65,3.33-1.65,4.54
		c-8.23,9.93-18.14,16.56-31.72,16.11c-2.71-0.09-5.14-0.82-7.66-1.52c-16.98-4.7-32.25-13.3-47.94-20.95
		c-9.91-4.83-20.6-6.93-31.42-8.7c-6.95-1.14-13.97-1.64-20.93-2.68c-4.31-0.64-8.84-0.07-13.33,0.37
		c-13.01,1.27-25.98,1.11-37.99-5.48c-6.26-3.43-10.47-9.08-14.75-14.3c-7.04-8.57-12.38-18.35-15.46-29.2
		C930.09,842.47,930.69,839.53,931.87,836.36z M1084.34,898.61c-1.8-7.06-0.7-14.54-3.4-21.47
		C1082.9,884.18,1080.64,891.83,1084.34,898.61z"/>
	<path class="st0" d="M621.54,614.49c-2.66,9.63-2.54,19.5-3.46,29.2c-0.63,6.66-0.92,13.51,0.57,20.29
		c1.11,5.04-0.32,10.16-1.32,15.15c-3.48,17.44-10.53,33.57-19.11,48.99c-4.68,8.41-9.05,17.42-17.2,23.13
		c-6.81,4.77-12.72,10.71-20.24,14.61c-8.7,4.5-15.92,11.32-24.25,16.49c-2.86,1.78-4.88,2.27-7.66,0.01
		C545.17,718.44,574.28,661.53,621.54,614.49z"/>
	<path class="st0" d="M591.89,842.41c-0.6,9.63-2.14,19.11-4.34,28.54c-1.4,6.03-2.3,12.17-2.8,18.41
		c-0.93,11.69,1.5,23.18,1.31,34.84c-0.2,12.08-10.59,17.51-19.79,11.88c-9.86-6.03-19.18-13.16-23.39-24.49
		c-3.72-10.02-7.28-20.13-9.18-30.78c-1.24-6.98,0.56-13.21,2.62-19.5c1.21-3.7,2.9-7.29,4.78-10.7c2.91-5.28,4.17-11.19,4.52-16.86
		c0.63-10.16,4.09-18.96,10.74-26.16c3.4-3.69,7.81-6.92,12.65-9.06c1.55-0.69,3.24-0.7,4.82,0.07c4.58,2.26,8.76,4.96,10.82,9.97
		c3.25,7.88,5.49,16.01,6.2,24.53C591.11,836.21,592.51,839.19,591.89,842.41z"/>
	<path class="st0" d="M559.47,1024.16c-3.58,5.99-0.41,12.01-0.71,17.84c-3.77,0.02-5.38-1.63-5.93-4.91
		c-1.15-6.82-1.07-13.74-1.96-20.58c-0.09-0.66,0.15-1.4-0.08-1.98c-1.7-4.37-1.83-9.11-3.13-13.52c-1.37-4.65-3.82-8.98-5.66-13.5
		c-3.54-8.7-6.58-17.59-9.37-26.53c1.43-0.7,1.86,0.21,2.29,0.72c6.28,7.41,14.54,12.32,22.65,17.22
		c10.79,6.51,20.85,13.98,31.02,21.34c13.53,9.8,24.07,22.3,32.99,36.19c5.41,8.42,9.75,17.4,9.36,27.94
		c-0.09,2.37-1.12,4.43-1.16,6.79c-0.1,6.53,1.72,12.59,4,18.57c2.53,6.65,2.95,13.4,0.99,20.24c-0.5,1.74-1.46,3.27-2.84,4.54
		c-3.25,2.97-7.79,1.54-9.13-2.63c-3.38-10.49-7.45-20.56-15.88-28.34c-11.24-10.37-20.98-22.11-30.47-35.28
		c-3.67,13.78,0.39,26.4,1.22,39.09c-5.39,1.27-8.76-1.3-8.82-6.68c-0.15-14.16-1.32-28.26-4.19-42.11
		C563.68,1033.83,562.95,1028.65,559.47,1024.16z"/>
	<path class="st0" d="M877.82,986.45c0.53,10.81-1.23,22.53-4.92,34.07c-2.65,8.29-11.26,14.07-18.98,13.56
		c-4.09-0.27-8.17-0.23-12.29-0.71c-8.31-0.96-13.28-5.57-16.79-12.41c-4.4-8.56-9.34-16.92-12.5-26.02
		c-4.74-13.66-5.75-27.74-0.12-41.33c4.1-9.9,11.69-17.35,20.48-23.44c2.66-1.84,6.04-1.72,8.66-0.89
		c13.48,4.31,25.76,10.52,31.72,24.56c3.02,7.1,4.66,14.59,4.75,22.35C877.85,979.19,877.82,982.18,877.82,986.45z"/>
	<path class="st0" d="M684.74,983.68c-1.12-6.89,2.37-12.48,5.41-18.06c1.61-2.96,4.47-4.47,8.22-4.59
		c13.74-0.41,25.24,4.32,34.93,13.99c14.58,14.56,27.39,30.58,39.31,47.34c5.94,8.35,9.57,17.76,12.07,27.59
		c1.66,6.51-1.07,12.16-6.18,13.83c-3.37,1.1-6.64-0.32-9.6-1.29c-15.41-5.02-29.8-12.28-43.78-20.47
		c-6.03-3.53-11.34-7.93-16.24-12.63c-11.24-10.77-19.72-23.5-23.72-38.79C684.58,988.42,684.86,986,684.74,983.68z"/>
	<path class="st0" d="M1012.8,1022.94c0.97,5.19-1.18,10.42-5.21,14.44c-4.32,4.31-10.1,2.92-15.58,2.4
		c-11.21-1.07-21.64-6.98-33.16-5.58c-5.69,0.69-11.45,0.43-17.11,1.75c-4.39,1.03-8.88-0.19-13.24-0.91
		c-9.18-1.52-18.17-3.84-26.05-9.08c-7.07-4.7-8.3-10.16-4.66-17.83c5.65-11.89,15.19-19.77,26.3-26.14
		c1.21-0.69,2.42-0.91,3.76-0.9c8.36,0.07,16.58-1.35,25.1-0.28c8.97,1.12,17.9,2.09,26.26,5.4c10.53,4.17,20.32,9.63,27.36,19.07
		C1012.23,1012.84,1012.8,1013.77,1012.8,1022.94z"/>
	<path class="st0" d="M1193.77,951.51c-2.17-2.59-9.09-3.34-17.02-1.87c0.47-6.81,0.59-13.56,1.53-20.2c0.43-3,0.44-5.93,0.46-8.88
		c0.05-6.92,3.09-12.65,7.08-17.89c2.64-3.46,9.65-3.27,14.18-0.94c7.79,4.01,11.51,11.15,14.24,18.61
		c4.32,11.79,10.95,22.21,17.59,32.64c5.35,8.41,7.76,17.87,11.04,27.05c2.85,7.96,2.32,15.76-0.14,23.59
		c-1.7,5.41-5.73,7.96-11.29,8.54c-11.18,1.16-19.55-4.24-27.23-11.19c-8.25-7.46-15.16-16.24-23-24.13
		c-6.17-6.22-7.42-14.3-5.33-22.76c0.58-2.35,2.62-2.28,4.47-1.71C1184.94,953.78,1189.34,953.43,1193.77,951.51z"/>
	<path class="st0" d="M1364.77,950.16c6.19-0.5,11.66,1.53,17.34,1.03c2.22-0.2,4.11-0.67,5.97-1.88c4.36-2.84,8.51-6,13.16-8.45
		c2.38-1.25,4.9-1.76,7.35-2.55c2.33-0.76,4.26,0.41,5.64,2.68c4.93,8.12,9.04,16.63,12.48,25.46c3.97,10.16,6.76,20.69,8.85,31.38
		c0.47,2.42,1.16,5.28-2.45,6.61c-7.16,2.64-13.97,6.04-21.47,7.98c-4.56,1.18-8.62,0.34-12.52-0.77
		c-16.16-4.59-30.79-12.22-43.67-23.2c-3.15-2.68-6.34-5.3-9.13-8.33c-6.64-7.2-5.13-22.24,4.83-26.82
		C1355.7,951.2,1360.18,949.33,1364.77,950.16z"/>
	<path class="st0" d="M666.67,291.46c4.57,5.99,7.97,12.25,10.29,19.12c3.63,10.71,3.86,21.56,1.42,32.51
		c-4.22,18.99-3.88,37.86,1.71,56.5c1.6,5.33,2.69,10.76,3.63,16.18c1.39,8.08-9,18.66-17.31,18.47c-3.49-0.08-4.51-2.54-5.46-4.89
		c-3.55-8.74-7.22-17.44-10.08-26.44c-1.11-3.5-3.56-6.85-4.07-10.09c-0.92-5.87-3.13-11.36-3.99-17.2
		c-1.25-8.43-2.74-16.76-3.13-25.36c-0.69-15.33,1.04-29.94,8.92-43.35C652.76,299.83,658.58,294.48,666.67,291.46z"/>
	<path class="st0" d="M774.76,145.12c0.35,2.52-1.5,2.22-2.89,2.05c-8.65-1.09-16.78-3.47-22.33-10.82
		c-2.42-3.21-5.11-6.38-5.74-10.62c-0.25-1.66-1.12-3.03-2.24-4.29c-2.68-3.01-4.56-6.64-4.54-10.57c0.01-2.25-2.98-1.94-2.33-4.42
		c0.49-1.86,2.02-3.54,1-5.65c4.2-0.25,2.37,2.5,2.3,4.73c6.06-6.87,12.74-7.99,20.41-4.44c1.93,0.89,4.16,0.7,6.12,0.08
		c10.52-3.33,18.82,1.55,22.24,13.05c0.22,0.75-0.17,1.69,0.95,2.47c0.27-4.07-1.51-7.74-0.94-11.68c-1.45,0.27-0.61,1.62-1.5,1.95
		c-1.7-1.07-1.84-3.58-3.78-4.4c-1.76-0.74-3.04-1.89-3.99-3.77c-3.46,1.34-7.09-0.61-10.74,0.35c-1.28,0.34-3.07-1.69-4,0.98
		c-0.11,0.31-2.2,0.47-2.82-0.01c-3.85-3.02-8.27-1.62-12.47-1.85c-1.58-0.09-3.25-0.13-3.51-1.97c-0.4-2.76-2.28-4.57-4.47-7.43
		c7.62,3.12,14.88,3.81,21.87,3.91c6.16,0.08,12.84-0.08,18.64-3.19c4.6-2.47,9.38-2.63,14.69-2.16c-0.17,4.22-1.46,8.12-2.11,12.01
		c-0.97,5.83-0.64,11.57-0.67,17.33c-0.02,4.31-0.12,8.6,0.56,13.02c0.73,4.76-0.18,10.29-5.79,13.57c-0.91-2.38-2.7-4.02-4.91-5.2
		l0.14,0.14c-0.71-2.46-3.07-1.82-4.55-2.61c-2.95,4.14-6.49,6.97-12.56,6.73c2.41,1.19,4.11,0.96,5.64,0.74
		c2.13-0.3,3.28,0.81,4.44,2.17L774.76,145.12z M767.29,122.76c2.76-1.04,6.55,0.38,7.48-3.93c-1.81-1.91-4.04-3.62-6.7-2.15
		C765.82,117.92,766.04,120.36,767.29,122.76z"/>
	<path class="st0" d="M1300.64,985.1c3.31-0.15,5.68,0.77,7.78,3.88c2.65,3.93,7.33,5.95,10.99,8.98
		c11.88,9.83,23.95,19.44,32.42,32.66c3.08,4.81,4.81,9.95,4.92,15.62c0.08,4.31-2.8,7.33-7.07,7.86
		c-12.31,1.53-23.56-1.54-33.62-8.47c-4.3-2.96-7.73-7.16-10.09-12c-4.59-9.42-7.22-19.48-9.13-29.71
		c-0.81-4.31-2.28-8.53-2.09-13.03C1294.94,986.1,1295.82,985.13,1300.64,985.1z"/>
	<path class="st0" d="M806.71,556.57c-1.96,2.66-4.49,3.87-7.74,3.59c-5.24-0.46-10.55,0.84-15.79-0.74
		c-1.46-0.44-2.96,1.17-5.2,0.97c-0.76-6.02-6.3-7.88-11.07-10.76c-16.2-9.78-31.87-20.38-46.84-31.95
		c-2.57-1.99-5.34-3.85-7.59-6.3c-1.07-1.17-1.83-2.25-1.62-3.93c0.89-7.09,7.95-15.01,14.75-15.12c8.41-0.14,16.01,2.19,21.3,9.78
		c4.02,5.75,6.69,12.38,11.67,17.49c4.88,5.01,9.91,9.62,16.37,12.73c9.69,4.67,19.66,9.01,27.46,16.86
		C804.43,551.2,806.22,553.23,806.71,556.57z"/>
	<path class="st0" d="M943.11,495.42c-13.59,18.97-30.19,35.24-45.93,52.24c-5.12-7.71-4.5-14.87,1.9-21.27
		c4.83-4.83,9.61-9.7,14.5-14.46c2.26-2.21,3.41-4.65,3.28-7.9c-0.19-4.65-0.19-9.33-0.02-13.98c0.46-12.49,6.04-18.8,16.09-22.81
		c5.39-2.15,10.97-3.22,16.75-1.17c5.57,1.98,6.35,2.82,4.11,8.04c-4.74,11.02-3.94,22.56-3.96,34.06c0,2.32,0.26,4.67-1.61,6.73
		c-2.7-3.6-2.88-7.65-2.21-11.9c1,0.03,0.7,0.8,0.81,1.32c0.1,0.47,0.2,0.94,0.33,1.49c2.4-3.11,2.35-4.47-0.68-5.95
		C944.54,498.92,944.71,496.9,943.11,495.42z"/>
	<path class="st0" d="M1047.85,1090.42c-0.16,4.2,0.08,7.09-0.97,10.03c-2.93,8.19-9.36,11.26-17.34,7.93
		c-8.33-3.48-15.61-8.52-21.33-15.48c-5.66-6.89-7.95-17.32-3.81-24.96c3.56-6.58,11.02-9.54,18.13-7.56
		c8.9,2.48,15.93,7.38,21.05,15.02C1046.88,1080.31,1048.29,1085.76,1047.85,1090.42z"/>
	<path class="st0" d="M760.38,1076.13c8.86-0.29,15.1,2.2,20.04,6.42c8,6.83,15.66,14.23,20.19,24.06c1.29,2.79,2.57,5.76,1.97,8.9
		c-0.96,4.96-7.14,8.71-12.57,7.47c-8.41-1.93-16.66-4.11-23.73-9.67c-9.18-7.22-15.94-15.89-18.96-27.28
		c-0.74-2.78,0.24-4.76,2.52-6.55C753.6,1076.53,757.95,1076.31,760.38,1076.13z"/>
	<path class="st0" d="M860.04,252.67c14.07,2.35,24.15,10.22,31.71,21.45c9.12,13.55,16.6,28,22.21,43.38
		c0.49,1.34,1.24,2.58,2.04,4.21c-7.8-4.75-12.73-9.61-17.17-17.76c-4.55-8.33-11.32-14.14-20.07-17.15
		c-7.76-2.67-11.08-8.72-13.91-15.39C862.36,265.56,861.35,259.28,860.04,252.67z"/>
	<path class="st0" d="M711.39,522.84c-1.24,10.51-2,20.49-11.66,25.6c-5.68,3-10.85,6.48-16.01,10.19
		c-1.79,1.29-4.18,1.75-6.32,2.52c-3.93,1.41-7.88,2.75-12.71,4.44C678.07,548.53,693.76,535.48,711.39,522.84z"/>
	<path class="st0" d="M781.78,138.13c3.25,7.63,7.41,14.74,12.01,21.64c2.97,4.44,5.73,9.15,4.83,15.44
		c-2.8-2.86-2.54-6.67-4.5-9.41c-0.26-0.36-0.11-1.01-0.34-1.42c-1.43-2.54-2.74-5.55-6.33-5.1c-3.49,0.44-4.25,4-4.37,6.34
		c-0.21,4.29-1.74,8.44-1.25,12.77c0.29,2.55-0.93,4.76-1.66,7.09c-0.51,1.63-1.64,1.88-3.06,1.67c-1.57-0.24-2.25-1.23-2.26-2.77
		c-0.01-1.32,0.2-2.5,0.83-3.78c1.73-3.5,2.63-7.23,3.39-11.14c1.72-8.84-1-16.57-4.31-24.35l0.14,0.18
		c-0.71-5.87,1.86-8.44,7.02-7.02L781.78,138.13z"/>
	<path class="st0" d="M701.86,187.26c-0.05,2.96,0.15,5.24-0.99,7.42c-1.13,2.16-3.39,2.82-4.83,0.91
		c-3.71-4.94-7.43-9.92-9.84-15.66c-1.4-3.34,2.49-12.72,5.82-14.32c2.64-1.27,4.57,0.09,5.71,2.36c1.24,2.46,1.95,5.13,2.42,7.87
		C700.85,179.85,702.09,183.78,701.86,187.26z"/>
	<path class="st0" d="M685.99,211.15c2.75,4.63,3.89,9.2,5.83,13.41c0.27,0.59,0.33,1.3,0.67,1.82c5.09,7.64,5.76,16.14,5.47,25.02
		c-0.17,5.11-0.3,9.86-5.33,13.51C688.97,247.35,687.49,229.62,685.99,211.15z"/>
	<path class="st0" d="M768.38,4.4c-0.27,3.63-0.27,3.63-3.51,6.62c0.73,2.8,3.38,4.75,3.58,7.98c-2.37,2.81-4.83,0.42-6.84-0.59
		c-5.26-2.66-11.12-4.7-12.99-11.51c-0.62-2.24-3.12-3.62-6.22-4.86c5.22-1.99,9.24,0.61,13.34,0.18
		C760.1,1.76,763.99,4.02,768.38,4.4z"/>
	<path class="st0" d="M690.85,487.26c-5.6-7.79-10.15-15.78-13.97-24.24c10.8,2.96,14.7,7.28,14,16.32
		C690.67,481.97,690.85,484.62,690.85,487.26z"/>
	<path class="st0" d="M733.62,105.3c-3.34-6.21-6.11-11.54-9.06-16.77c-1.28-2.26-0.46-4.51-0.65-6.82
		C731.79,84.13,734.71,89.22,733.62,105.3z"/>
	<path class="st0" d="M1179.95,704.22c3.18,2.19,1.97,5.32,2.38,7.62c0.81,4.55,1.47,9.46-0.84,14c-0.85,1.67-1.94,2.92-4.46,3.16
		C1175.87,720.6,1179.26,712.81,1179.95,704.22z"/>
	<path class="st0" d="M684.85,120.24c6.36,15.02,7.03,16.6,0,28.34c0-4.62,0-9.25,0-13.87
		C684.85,130.16,684.85,125.62,684.85,120.24z"/>
	<path class="st0" d="M946.3,412.07c1.9,8.54,3.69,16.54,5.55,24.91C945.89,431.2,943.05,418.97,946.3,412.07z"/>
	<path class="st0" d="M683.18,42.76c0.77,5.85,1.67,11.73-3.03,16.82C678.87,53.38,681.12,48.09,683.18,42.76z"/>
</g>
</svg>
