<?xml version="1.0" encoding="utf-8"?>
<!-- Generator: Adobe Illustrator 24.0.2, SVG Export Plug-In . SVG Version: 6.00 Build 0)  -->
<svg version="1.1" id="Layer_1" xmlns="http://www.w3.org/2000/svg" xmlns:xlink="http://www.w3.org/1999/xlink" x="0px" y="0px"
	 viewBox="0 0 781.1 1004.59" style="enable-background:new 0 0 781.1 1004.59;" xml:space="preserve">
<g>
	<path d="M187.35,963.32c-7.76-0.47-15.62-1.6-23.26-0.8c-5.33,0.56-10.63,2.09-16.08,1.63c-2.87-0.24-5.99-0.58-8.47-1.88
		c-4.53-2.37-9.14-2.06-13.73-2.01c-0.85,1.49-1.58,2.79-2.32,4.1c-0.37-0.07-0.75-0.13-1.12-0.2c-1.26-5.06-3.6-9.95-1.76-15.86
		c-6.69,0.69-9.05,8.09-14.67,10.26c-0.4-0.24-0.79-0.48-1.19-0.72c0.89-3.17,1.08-6.79,2.8-9.41c5.1-7.78,11.73-13.67,21.74-14.29
		c1.36-0.08,3.1-0.76,3.91-1.77c4.04-5.04,9.36-4.21,14.28-2.79c9.37,2.72,18.89,3.04,28.43,2.56c11.28-0.57,21.01-4.59,28.61-13.59
		c2.86-3.39,7.15-5.67,11.01-8.12c8.42-5.36,14.18-13.28,20.62-20.6c7.62-8.66,13.46-18.48,19.13-28.42
		c3.45-6.06,4.64-12.72,3.46-19.5c-0.96-5.48-5.39-8.86-9.77-11.61c-8.64-5.41-18.06-9-28.29-10.07c-4.91-0.51-9.86-0.73-14.79-1.02
		c-6.49-0.37-11.72-3.72-16.62-7.45c-3.51-2.67-7.26-4.67-11.1-6.78c-4.44-2.44-8.12-6.43-11.79-10.09
		c-7.1-7.07-6.87-15.71-5.63-24.96c0.8-5.94-0.13-12.19-0.78-18.24c-1.11-10.25-2.92-20.42-3.86-30.68
		c-0.79-8.56-1.42-17.23-0.96-25.79c1.01-18.62,3-37.08,8.65-55.12c5.91-18.87,14.9-36.07,25.46-52.55
		c6.86-10.71,13.83-21.4,21.6-31.46c9.39-12.16,19.67-23.63,30.85-34.25c2.26-2.14,3.57-5.36,5.03-8.22
		c0.44-0.86,0.22-2.34-0.2-3.32c-1.54-3.59-3.29-7.08-4.9-10.49c-2.89,3.65-5.85,7.38-8.8,11.11c-0.29-0.12-0.58-0.24-0.86-0.35
		c0-2.5,0-4.99,0-7.49c-0.26,0-0.51-0.01-0.77-0.01c-0.12,1.56-0.24,3.11-0.36,4.67c-0.29,0.09-0.58,0.18-0.87,0.27
		c-1.16-2.75-2.33-5.5-3.66-8.64c-4.19,4.38-8.44,8.83-12.99,13.58c0-2.38,0-4.48,0-6.92c-0.9,0.38-1.63,0.59-2.24,0.97
		c-4.07,2.55-8.12,5.13-12.18,7.7c-3.15-2.31-3.63,1.4-5.22,2.42c-2.33,1.5-4.46,3.31-6.6,5.09c-1.11,0.92-2.34,1.87-3.02,3.09
		c-4.46,7.88-7.63,16.2-8.3,26.05c-0.98-1.43-1.64-2.39-2.45-3.57c-0.26,2.44-0.5,4.7-0.75,6.95c-0.37,0.01-0.73,0.01-1.1,0.02
		c-0.34-1.51-0.68-3.01-1.02-4.52c-3.75,8.82-6.12,17.7-5.42,26.51c-1.17-1-2.82-1.93-3.73-3.34c-0.62-0.96-0.15-2.59-0.29-3.91
		c-0.17-1.66-0.47-3.31-1.51-4.89c-0.62,2.81-1.23,5.63-1.85,8.44c-0.3,0.06-0.6,0.12-0.9,0.18c-0.36-1.36-0.73-2.71-1.33-4.97
		c-1.51,9.43-2.89,18.02-4.27,26.62c-0.23-0.04-0.46-0.09-0.69-0.13c-0.55-3.68-1.1-7.37-1.65-11.05c-0.28-0.06-0.57-0.11-0.85-0.17
		c-0.49,2.16-0.97,4.32-1.77,7.83c-2.33-3.91-4.11-6.92-5.91-9.95c-0.61,2.55-1.3,5.44-1.99,8.33c-0.29-0.02-0.57-0.04-0.86-0.05
		c-0.22-1.59-0.44-3.18-0.73-5.26c-1.16,2.32-0.21,6-4.45,5.17c-0.5-1.84-1.05-3.83-1.69-6.16c-2.21,3.23-4.09,6.57-6.54,9.43
		c-2.86,3.35-6.04,6.47-9.37,9.35c-7.35,6.36-13.88,13.23-16.19,23.08c-0.34,1.43-0.35,2.95-0.42,4.43
		c-0.36,7.1-0.65,14.2-1.05,21.3c-0.06,1.1-0.49,2.22-0.93,3.25c-1.91,4.42-3.62,8.96-5.94,13.16c-1.59,2.88-4.08,5.27-6.17,7.88
		c-0.4-0.11-0.79-0.23-1.19-0.34c-0.15-1.16-0.65-2.42-0.36-3.46c0.58-2.02,1.67-3.88,2.43-5.86c1.29-3.34,2.81-6.58-1.13-9.56
		c-1.15-0.87-1.46-3.23-1.6-4.96c-0.25-2.98,0.02-6-0.09-8.99c-0.28-7.6-0.63-15.2-1.02-22.8c-0.05-0.93-0.53-1.85-0.84-2.77
		c-1.47-4.39-3.75-5.21-6.86-2.05c-3.93,3.99-7.79,8.12-11.16,12.58c-3.72,4.93-6.68,10.42-10.28,15.44
		c-2.09,2.93-4.55,5.69-8.78,5.69c-2.64,0-3.39,2.45-3.94,4.3c-1.21,4.04-1.93,8.22-2.88,12.51c-2.47,0.79-2.73-1.56-3.13-3.1
		c-1.26-4.8-1.43-9.56-0.21-14.56c2.27-9.35,4-18.78,10.17-26.66c3.32-4.23,6.47-8.65,9.17-13.29c2.52-4.33,4.53-8.99,6.37-13.67
		c0.46-1.17-0.21-3.26-1.09-4.32c-0.56-0.67-2.75-0.74-3.71-0.2c-4.66,2.62-9.27,5.39-13.68,8.4c-4.26,2.91-8.37,6.06-12.35,9.34
		c-4.71,3.89-10.15,3.89-15.48,2.7c-2.31-0.51-3.63-0.12-4.6,1.41c-1.45,2.3-2.53,4.85-3.65,7.34c-0.55,1.21-0.83,2.54-1.24,3.81
		c-0.44,0.03-0.88,0.06-1.33,0.09c-0.49-1.2-1.31-2.38-1.41-3.61c-0.62-8.01,3.01-14.43,7.48-20.74c3.58-5.06,8.55-7.48,13.82-10.22
		c5.87-3.06,10.92-7.71,16.28-11.74c11.38-8.56,20.06-20.3,32.53-27.59c0.79-0.46,1.31-1.4,1.79-1.93
		c-3.98-8.18-11.49-8.9-18.91-10.49c-6.78-1.45-11.91-5.48-14.45-12.55c-1.53-4.26,0.64-7.28,2.37-11.67
		c-5.08-0.33-9.86-0.65-15.88-1.04c1.51-1.6,2.29-3.18,3.41-3.49c7.91-2.18,15.27-1.48,22.51,3.19
		c9.67,6.24,19.46,12.56,31.15,14.62c1.13,0.2,2.33,0.12,3.49,0.03c3.27-0.27,6.59-1.18,9.79-0.84c11.1,1.16,19.06-5.4,26.9-11.26
		c7.58-5.66,12.98-13.66,17.7-21.93c4.56-8.01,9.3-15.93,13.55-24.1c6.19-11.92,13.47-23.03,22.83-32.7
		c5.32-5.49,10.54-11.14,16.32-16.11c3.37-2.9,7.76-4.62,12.45-7.3c-0.65-3.38-1.5-7.49-2.2-11.62c-0.44-2.57-0.85-5.18-0.92-7.79
		c-0.14-5.19-0.47-10.44,0.06-15.58c0.79-7.62,2.31-15.16,3.41-22.75c0.3-2.1,0.57-4.31,0.25-6.37c-1.39-8.91-1.4-17.79,0.74-26.52
		c2.67-10.91,8.44-20.36,15.42-29.99c-3.1,0-5.72,0-8.34,0c-0.02-0.25-0.04-0.49-0.06-0.74c8.86-5.59,17.73-11.18,26.98-17.01
		c-3.8-1.36-7.51-2.7-11.22-4.03c0.07-0.32,0.15-0.64,0.22-0.96c2.06-0.32,4.13-0.65,6.85-1.08c-3.31-2.4-5.88-4.27-8.44-6.13
		c0.11-0.29,0.22-0.57,0.34-0.86c2.67,0.6,5.43,0.95,8,1.86c6.21,2.2,11.94,0.18,17.7-1.66c0.81-0.26,1.07-1.06,1.39-2.19
		c1.01-3.52,2.98-6.83,4.94-10c1.65-2.65,3.8-4.99,5.41-7.81c-3.14,1.9-6.54,3.48-9.34,5.78c-2.94,2.42-5.3,5.53-8.38,8.85
		c1.04-3.91,1.94-7.25,2.88-10.8c-0.98,0.48-1.77,0.87-2.56,1.26c-0.26-0.16-0.52-0.31-0.77-0.47c1.66-3.05,3.08-6.26,5.04-9.1
		c3.07-4.43,6.67-8.5,9.75-12.93c3.81-5.49,7.56-11.07,8.97-17.79c1.55-7.42,2.25-14.73-3.47-21.85c-1.8,1.22-3.96,2.16-5.39,3.75
		c-4.62,5.13-8.88,10.57-13.45,15.75c-4.03,4.56-8.62,8.39-14.81,9.71c-1.81,0.38-3.22-0.11-4.06-2.69c-1.03-3.15-3.82-3.8-5.81-5.6
		c-5.66-5.11-13.53-5.41-19.28-10.22c-5.61-4.7-7.77-8.18-4.85-14.78c4.01-9.07,8.52-18,13.68-26.46
		c5.17-8.48,11.39-16.33,17.19-24.43c4.29-5.99,3.64-11.29-2.23-18.18c-1.69-1.98-3.27-4.05-4.82-5.98
		c0.71-0.81,1.73-1.46,1.67-1.99c-0.42-3.7-1.25-7.36-1.54-11.07c-0.1-1.25-2.49-4.2,1.67-3.83c0.03-0.98,0.19-1.98,0.06-2.93
		c-0.27-2.04-0.69-4.06-0.63-6.32c2.99,2.39,4.87,5.67,9.18,6.11c3.63,0.37,7.14,1.99,11.05,3.16c0.37-1.65,0.63-2.81,0.87-3.87
		c2.84,1.42,5.58,2.78,8.27,4.12c0.48-3.23,0.91-6.13,1.37-9.25c1.47,0.38,2.64,0.68,3.92,1.01c-0.14-15.55,4.86-29.61,11.06-43.44
		c5.22-11.65,12.8-21.49,21.91-30.23c2.07-1.99,4.77-3.45,7.39-4.71c1.23-0.59,2.96-0.1,5.3-0.1c-0.88,3.6-1.76,6.53-2.28,9.52
		c-0.87,4.98-1.57,10-2.23,15.01c-0.43,3.25-0.75,6.53-0.95,9.8c-0.42,6.94,0.08,13.84,2.02,20.53c1.31,4.53,3.12,5.36,7.26,2.9
		c4.9-2.91,9.42-6.44,14.11-9.71c0.51-0.36,1.01-0.74,1.51-1.12c0.3,0.26,0.61,0.52,0.91,0.78c-2.13,2.59-4.26,5.19-6.43,7.82
		c6.5-1.37,13.02-2.74,20.14-4.24c-0.53,1.44-0.72,1.97-1.18,3.21c2.4-0.69,4.71-0.8,6.29-1.92c5.87-4.16,11.47-8.7,17.24-13
		c9.68-7.23,19.41-14.4,29.13-21.58c4.21-3.11,8.39-6.25,12.7-9.21c1.84-1.26,3.9-2.32,6-3.08c3.25-1.17,3.91-0.52,4.23,3
		c0.73,7.92-1.67,15.32-4.2,22.55c-2.85,8.13-6.65,15.93-9.8,23.97c-1.65,4.2-2.81,8.59-4.37,13.46
		c13.78,7.13,28.36,10.59,43.43,12.49c-0.03,0.35-0.05,0.7-0.08,1.05c-12.27,0-24.53,0-36.53,0c4.31,2.63,9.01,5.36,13.57,8.31
		c9.9,6.42,18.27,14.53,23.6,25.06c2.44,4.82,3.39,10.52,4.29,15.94c1.52,9.16,1.52,18.68,5.28,27.28
		c2.52,5.78,5.72,11.5,9.74,16.31c4.61,5.52,9.54,11.05,16.15,14.53c0.67,0.35,1.09,1.18,1.36,2.21
		c-8.33-1.93-15.45-6.13-22.64-11.04c0.95,1.11,1.92,2.2,2.84,3.33c7.48,9.14,15.35,18,22.28,27.54c4.14,5.71,7.53,12.21,8.23,20.77
		c-9.84-11.86-22.08-18.73-34.62-25.17c7.58,9,17.32,15.32,26.92,21.87c-3.64,1.1-4.11,1.13-13.08-2.22
		c-4.13-1.54-8.07-3.59-12.56-5.62c4.7,6.1,9.19,11.67,13.39,17.44c4.42,6.06,8.84,12.15,12.78,18.52
		c6.28,10.17,11.08,21.04,13.52,32.8c0.86,4.16,1.09,8.45,1.43,12.7c0.08,0.97-0.61,2-0.81,2.63c-4.7-11.2-9.4-22.39-14.09-33.58
		c-0.43,0.11-0.85,0.22-1.28,0.33c0.12,1.09,0.02,2.26,0.4,3.26c3.81,9.97,5.75,20.28,7.05,30.89c1.51,12.33,0.44,24.19-3.2,35.92
		c-0.99,3.2-2.46,6.25-3.72,9.38c-0.36-0.08-0.72-0.17-1.08-0.25c0.6-5.62,1.57-11.22,1.7-16.85c0.13-5.76-0.3-11.56-0.97-17.29
		c-0.67-5.79-1.93-11.51-2.93-17.25c-0.33,0.02-0.66,0.03-0.99,0.05c0,6.45,0.46,12.94-0.12,19.34c-0.69,7.62-2.02,15.22-3.57,22.72
		c-0.58,2.83-2.57,5.36-4.6,7.76c-1.11-10.62-2.22-21.24-3.33-31.86c-0.38,0-0.76,0.01-1.14,0.01c-0.08,0.62-0.24,1.23-0.23,1.85
		c0.25,12.57-2.37,24.82-4.03,37.18c-0.94,6.99-1.47,14.05-1.93,21.09c-0.28,4.26-0.05,8.56-0.05,13.17
		c3.95,2.13,8.36,4.5,12.78,6.88c-0.29,0.24-0.58,0.48-0.87,0.71c0.78,1.63,1.37,3.39,2.38,4.86c3.54,5.15,7.22,10.21,10.3,16.14
		c-3.1-1.26-6.2-2.52-9.42-3.83c2.65,8.27,8.2,15.3,13.35,22.88c-1.6-0.7-3.2-1.39-4.79-2.09c-0.3,0.29-0.6,0.58-0.9,0.87
		c1.2,1.96,2.39,3.92,4.03,6.59c-2.09-0.84-3.67-1.48-5.62-2.26c1.82,5.48,3.56,10.74,5.3,15.99c-0.26,0.11-0.52,0.22-0.78,0.33
		c-0.73-0.67-1.45-1.34-3.08-2.84c1.06,5.18,2,9.22,2.7,13.3c1.29,7.57,2.23,15.19,3.69,22.73c1.89,9.75,3.54,19.63,6.52,29.06
		c1.22,3.87,5.56,6.8,8.64,10.01c1.58,1.64,3.6,2.85,5.26,4.43c7.28,6.88,14.85,13.51,21.67,20.82
		c10.51,11.26,20.24,23.25,30.8,34.47c13.89,14.76,24.66,31.83,36.66,47.99c6.22,8.38,11.63,17.37,17.96,25.66
		c6.53,8.53,13.26,17.02,20.77,24.67c11.26,11.46,22.89,22.65,35.12,33.06c9.64,8.2,19.67,16.25,32.36,19.76
		c7.3,2.01,14.63,2.55,21.88,0.46c6.58-1.9,9.96-7.08,11.24-13.53c2.12-10.68-0.36-20.4-6.89-29.04
		c-5.78-7.65-12.03-14.85-19.76-20.65c-5.89-4.42-11.35-9.54-17.62-13.3c-9.35-5.6-19.23-10.31-28.91-15.34
		c-13.43-6.97-27.63-12.38-40.34-20.83c-12.18-8.1-23.52-17.23-32.82-28.37c-13.22-15.84-22.55-33.88-26.66-54.38
		c-1.8-9-3.15-18-4.12-27.15c-2.12-20.01,0.47-39.21,7.03-58.08c0.63-1.8,0.4-4.04,0.08-6c-0.8-4.8-2.48-9.53-2.72-14.34
		c-0.48-9.34-0.31-18.73-0.2-28.09c0.04-3.6,0.88-7.19,0.96-10.8c0.22-9.6,3.14-18.64,5.46-27.81c1.31-5.17,2.79-10.29,4.34-15.96
		c1.82,6.62-1.59,12.73-0.54,19.34c9.51-20.12,26.47-32.62,43.73-45.05c-0.64,1.27-1.28,2.53-1.93,3.8
		c0.22,0.16,0.44,0.32,0.65,0.48c1.94-2.19,3.87-4.38,5.81-6.57c0.29,0.16,0.58,0.32,0.87,0.47c-1.43,3.16-2.86,6.32-4.67,10.32
		c5.04-2.99,9.34-5.62,13.71-8.11c6.21-3.55,12.55-6.89,18.71-10.53c7.02-4.15,14.04-8.31,20.77-12.89c3.52-2.4,6.42-5.71,9.85-8.83
		c0.07,0.43,0.32,1.09,0.22,1.7c-0.14,0.78-0.56,1.51-0.86,2.26c-3.6,9.14-8.46,17.6-14.58,25.24c-5.41,6.76-8.36,14.32-10.78,22.62
		c-2.53,8.68-3.23,17.62-5.53,26.29c-1.76,6.62-4.94,12.35-9,18.08c10.18-3.78,20.09-7.47,30-11.15c0.18,0.27,0.36,0.54,0.55,0.81
		c-1.04,1.72-1.79,3.73-3.17,5.1c-6.62,6.58-13.48,12.92-20.09,19.5c-3.27,3.26-6.3,6.77-9.21,10.35c-2.16,2.65-3.96,5.6-6.09,8.65
		c3.22,1.93,1.67,3.57-0.54,5.72c-7.85,7.63-17.53,12.04-27.25,16.64c-6.14,2.91-11.82,6.79-18.47,8.71
		c-0.81,0.23-1.53,1.7-1.8,2.73c-2.12,7.86-4.35,15.59-5.35,23.81c-2.03,16.69,0.51,32.82,4.62,48.69
		c3.56,13.72,10.86,25.85,20.18,36.57c5.21,6,10.64,11.85,16.36,17.36c12.11,11.67,26.29,19.58,42.72,23.79
		c17.09,4.39,33.66,10.29,48.44,20.37c9.42,6.43,19.32,12.19,28.53,18.89c10.47,7.62,18.7,17.44,25.4,28.57
		c8.08,13.43,13.37,27.75,16.17,43.24c2.09,11.56,2.11,23.09,1.66,34.61c-0.51,12.91-6.71,23.44-17.23,30.79
		c-14.06,9.84-29.7,15.94-46.82,18.49c-17.43,2.6-33.94-0.21-50.03-6.76c-10.07-4.1-20.54-7.52-30.05-12.67
		c-17.17-9.3-34.55-18.42-50-30.55c-7.89-6.2-15.36-12.92-23.28-19.63c-0.3,0.73-0.66,1.6-1.35,3.29c-1.63-2.35-2.95-4.11-4.12-5.97
		c-2.31-3.7-4.41-6.88-9.37-8.36c-4.43-1.32-8.02-5.44-11.99-8.31c-0.6-0.44-1.26-0.8-1.89-1.2c-0.28,0.24-0.57,0.48-0.85,0.73
		c1.25,1.64,2.49,3.27,3.74,4.91c-0.1,0.16-0.2,0.33-0.31,0.49c-2.92-1.88-5.85-3.75-9.29-5.96c0.81,5.83,6.5,8.51,8.47,14.27
		c-14.64-5.85-28-11.71-38.55-22.74c1.34,2.86,2.69,5.72,4.2,8.93c-5.48-2.3-7.79-7.63-12.8-11.17c1.6,6.57,3.01,12.3,4.4,18.04
		c1.1,4.58,2.27,9.16,3.23,13.77c1.33,6.34,7.34,11.93,13.96,11.69c8.16-0.29,15.39,1.91,21.25,7.29c3.51,3.23,6.85,7.28,8.66,11.63
		c7.14,17.11,13.24,34.67,20.6,51.69c2.93,6.77,8.13,12.56,12.34,18.77c0.69,1.02,1.55,1.92,2.61,3.22
		c-1.02,0.17-1.46,0.32-1.89,0.3c-0.39-0.02-0.77-0.24-1.07-0.34c1.57,7.35,3.11,14.59,4.65,21.83c-0.31,0.16-0.62,0.32-0.93,0.48
		c-1.18-2.03-2.36-4.07-3.54-6.1c-0.27,11.05-1.7,21.94,1.22,32.72c-3.08-2.65-3.65-4.19-4-10.58c-2.51,0.5-2.51,0.5-3.52-4.32
		c-0.53,12.47-1.05,24.53-1.57,36.59c-0.21,0.01-0.42,0.01-0.63,0.02c-0.51-5.35-1.03-10.71-1.54-16.06
		c-0.15-0.02-0.29-0.04-0.44-0.06c-0.51,5.74-1.02,11.47-1.58,17.69c-0.8-2.2-1.49-4.07-2.32-6.35c0,3.35,0,6.22,0,9.09
		c-0.32,0.05-0.64,0.11-0.95,0.16c-0.92-3.87-1.83-7.75-2.82-11.93c-0.84,6.52-1.66,12.75-2.42,18.97
		c-0.08,0.63,0.08,1.32,0.22,1.95c0.69,3,2.7,5.48,2.26,9.06c-0.22,1.8,2.55,3.97,3.8,6.21c-4.22-2.29-9.58-3.19-10.37-9.8
		c-0.37,0.27-0.74,0.55-1.12,0.82c1.27,3.7,2.54,7.39,3.91,11.38c-0.65,3.04-4.36,2.31-6.48,4.36c3.79,5.17,7.56,10.41,11.42,15.57
		c2.7,3.6,3.84,7.25,1.98,11.74c-1.04,2.5-1.47,5.38-1.59,8.12c-0.16,3.76-2.28,5.96-5.2,8.26c-2.44-3.45-0.4-6.64-0.09-10.28
		c-1.83,0-3.64-0.17-5.4,0.04c-3.9,0.46-6.28-1.4-7.7-4.78c-1-2.4-1.9-4.84-2.75-7.3c-1.45-4.21-3.18-5.46-8.89-5.85
		c0,2.28-0.1,4.53,0.02,6.78c0.23,4.27,0.61,8.53,0.9,12.8c0.03,0.49,0.06,1.05-0.13,1.48c-2.16,5.05-4.24,10.14-6.64,15.07
		c-0.5,1.02-2.23,1.44-3.39,2.13c-0.3-0.28-0.59-0.56-0.89-0.84c0.33-2.64,0.66-5.28,0.99-7.91c-16.77-3.68-13.73-7.72-13.87-19.03
		c-0.02-1.93,0.83-3.85,0.89-5.79c0.1-2.99-1.98-4.31-4.84-3.4c-4.02,1.28-5.27,4.91-7.12,8.08c-2.54,4.35-4.96,8.82-8.01,12.79
		c-1.18,1.54-3.89,2.18-6.03,2.63c-2.05,0.43-4.26,0.09-7.22,0.09c0,3.74,0,7.12,0,11.45c-4.63-5.49-6.73-10.53-6.47-14.06
		c0.37-4.93-0.46-10.3,1.24-14.7c1.75-4.5,5.94-8.05,9.91-13.09c-4.43,0.58-7.84,0.6-11,1.53c-6.09,1.78-11.79,2.75-16.29-3.7
		c-0.34,0.19-0.69,0.37-1.03,0.56c-0.53,3.24-1.05,6.47-1.58,9.67c-3.96-1.75-5.67-5.21-4.33-9.9c1.67-5.85,4.96-10.84,9.55-14.76
		c1.45-1.24,3.84-1.66,5.87-1.92c4.06-0.52,8.3-0.15,12.22-1.14c3.33-0.84,6.57-2.71,9.4-4.74c12.26-8.81,18.78-21.43,22.76-35.58
		c2.38-8.46,5.47-16.83,6.7-25.46c1.65-11.64-1.58-29.32-15.05-38.37c-9.94-6.68-20.49-11.17-31.79-14.3
		c-9.29-2.57-15.74-8.93-21.47-15.96c-3.16-3.87-5.58-7.59-11.28-8.06c-8.5-0.7-13.71-7.16-18.73-12.94
		c-6.96-8.01-12.95-16.85-19.61-25.13c-2.74-3.41-6.24-6.2-9.25-9.4c-15.34-16.3-28.42-34.33-38.86-54.07
		c-7.36-13.92-14.3-28.15-18.52-43.47c-0.25-0.89-0.24-1.86-0.25-1.96c-3.22,3.27-6.75,6.78-10.18,10.4c-1,1.05-1.76,2.36-2.5,3.62
		c-7.07,12.12-13.93,24.36-21.23,36.33c-4.84,7.93-10.14,15.59-15.55,23.14c-3.86,5.39-5.07,11.6-6.32,17.8
		c-0.79,3.91,3.56,10.11,7.32,11.2c8,2.31,14,7.23,17.4,14.7c3.43,7.54,6.27,15.37,9.08,23.18c3.86,10.7,6.81,21.79,11.35,32.18
		c4.44,10.17,10.75,19.35,21.62,24.43c-0.64,0-1.29,0.06-1.93-0.02c-0.77-0.09-1.52-0.3-2.57-0.52c3.24,7.02,9.12,13.02,5.39,21.11
		c-1.26-3.12-2.55-6.34-3.85-9.56c1.64,11.45-4.3,21.75-4,32.77c-0.38,0.02-0.76,0.03-1.13,0.04c-0.38-4.48-0.77-8.95-1.11-12.97
		c-2.04,7.15-4.2,14.7-6.36,22.25c-0.45-0.08-0.89-0.16-1.34-0.23c0.27-3.17,0.54-6.33,0.81-9.5c-0.11-0.03-0.22-0.06-0.32-0.09
		c-2.16,5.95-4.32,11.9-6.49,17.85c-0.39-0.12-0.78-0.23-1.17-0.35c0.79-4.07,1.58-8.15,2.37-12.22c-0.37-0.12-0.73-0.23-1.1-0.35
		c-3.22,8.57-6.44,17.14-9.67,25.72c-0.2-0.04-0.4-0.09-0.59-0.13c0.36-3.2,0.72-6.4,1.07-9.6c-0.27-0.07-0.53-0.15-0.8-0.22
		c-2.02,6.38-4.05,12.76-6.07,19.13c-0.28-0.01-0.55-0.02-0.83-0.03c-0.55-3.55-1.09-7.11-1.64-10.66
		c-0.13-0.02-0.26-0.04-0.39-0.06c-0.63,4.99-1.26,9.99-1.9,14.98c-3.2-9.01-2.53-17.97-1.55-26.99
		c-3.61,9.07-7.32,18.06-6.81,28.22c-0.5-0.07-0.99-0.13-1.49-0.2c0-4.31,0-8.62,0-12.93c-0.33-0.05-0.66-0.09-0.99-0.14
		c-2.01,5.89-4.02,11.78-6.04,17.67c-0.52-0.11-1.04-0.21-1.55-0.32c0.26-5.13,0.52-10.26,0.77-15.39c-0.13-0.06-0.26-0.12-0.4-0.18
		c-2.13,5.28-4.27,10.57-6.45,15.95c-0.17-0.23-0.72-0.99-1.16-1.59c-3.41,1.48-6.95,3.36-10.71,4.53c-3.31,1.04-5.3,3.08-6.7,6
		c-1.22,2.53-2.65,4.42-5.85,5c-2.53,0.46-5.34,1.13-6.88,4.1c-0.52,0.99-2.93,1.4-4.47,1.38c-6.62-0.05-34.3,1.16-37.49,1.73
		C192.37,963.07,188.24,963.37,187.35,963.32z M385.26,470.49c-0.14-1.44-0.33-2.06-0.23-2.63c0.66-3.79-1.25-5.53-4.56-6.97
		c-3.6-1.57-6.85-3.93-9.86-5.71c0.75,3.54,1.51,7.48,2.46,11.37c0.25,1.03,0.87,2.28,1.71,2.83c6.74,4.35,12.2,11.05,21.17,11.38
		c3.07,0.11,6.12,0.95,9.18,1.46c2.12,0.35,4.25,0.69,6.6,1.07c-6.22-18.8-8.67-37.51-8.75-56.91c-1.97-1.44-4.32-3.15-6.69-4.88
		c-1.29,2.56-2.62,9.42-1.05,14.59c1.31,4.32-0.59,8.66,0.98,13.11c-2.92-2.52-5.85-5.04-9.36-8.06
		C389.37,451.37,392.51,460.83,385.26,470.49z"/>
</g>
</svg>
