<?xml version="1.0" encoding="utf-8"?>
<!-- Generator: Adobe Illustrator 24.1.3, SVG Export Plug-In . SVG Version: 6.00 Build 0)  -->
<svg version="1.1" id="Layer_1" xmlns="http://www.w3.org/2000/svg" xmlns:xlink="http://www.w3.org/1999/xlink" x="0px" y="0px"
	 viewBox="0 0 41.88 32.96" enable-background="new 0 0 41.88 32.96" xml:space="preserve">
<g>
	<path d="M15.53,32.92c-4.12-0.06-7.71-0.47-11.25-1.33c-2.56-0.62-3.86-2.09-4.17-4.7c-0.24-2.12-0.11-4.22,0.39-6.29
		c0.41-1.73,0.85-3.45,1.26-5.18C2.7,11.47,4.91,8.3,7.93,5.7c2.44-2.1,5.05-4.02,8.23-4.9c6.01-1.67,11.64-0.64,16.96,2.47
		c3.16,1.84,5.53,4.45,7.38,7.55c1.45,2.43,1.73,5.07,0.98,7.73c-1.57,5.49-5.1,9.26-10.4,11.39c-2.87,1.16-5.8,2.02-8.88,2.42
		C19.82,32.68,17.46,33.08,15.53,32.92z"/>
	<path fill="#1A1A1A" d="M12.75,14.68c0,1.03-0.03,1.78,0.01,2.52c0.23,4.34,2.96,7.43,6.89,7.95c4.45,0.59,8.25-1.86,9.48-6.05
		c0.49-1.68,0.55-3.36,0.15-5.07c-0.14-0.58-0.4-1.14-0.25-1.84c2.32,0.78,3.81,2.48,5.23,4.22c0.76,0.93,0.78,2,0.13,3.07
		c-0.54,0.88-1.1,1.74-1.84,2.46c-4.29,4.18-9.36,6.02-15.35,5.19c-2.3-0.32-4.6-0.72-6.91-0.88c-1.34-0.09-2.05-0.77-2.39-1.86
		c-0.41-1.32-0.46-2.68,0.16-4C8.9,18.58,10.69,16.32,12.75,14.68z"/>
	<path fill="#1A1A1A" d="M19.08,10.47c1.16-0.27,2.26-0.73,3.42-0.21c1.28,3.25,0.75,7.89-1.23,10.38c-1.41-1.06-2.4-2.32-2.56-4.19
		c-0.13-1.43-0.39-2.84-0.2-4.28C18.58,11.63,18.61,11.08,19.08,10.47z"/>
</g>
</svg>
