<?xml version="1.0" encoding="utf-8"?>
<!-- Generator: Adobe Illustrator 24.1.3, SVG Export Plug-In . SVG Version: 6.00 Build 0)  -->
<svg version="1.1" id="Layer_1" xmlns="http://www.w3.org/2000/svg" xmlns:xlink="http://www.w3.org/1999/xlink" x="0px" y="0px"
	 viewBox="0 0 230.43 190.53" enable-background="new 0 0 230.43 190.53" xml:space="preserve">
<g>
	<path d="M135.91,21.48c0.16-0.31,0.34-0.59,0.79-0.64c0.57,0.6,0.19,1.23-0.03,1.82c-0.49,1.32-1.3,2.39-2.8,3.1
		c2.01,1.21,4,2.03,6.38,2.28c-0.8,1.17-2.08,1.03-2.95,1.66c0.38,0.68,1.23,0.4,1.71,0.87c-0.88,1-2.12,1.03-3.56,1.22
		c1.97,1.46,3.92,1.06,5.85,0.79c-0.09,0.96-1.19,0.92-1.53,1.73c0.97,0.07,1.8-0.43,2.7-0.53c-0.24,1.75-3.44,5.23-6.51,7.06
		c0.46,0.48,0.93,0.93,1.34,1.42c1.11,1.32,2.17,2.67,1.79,4.58l0.04-0.04c-0.81-0.08-0.97-0.89-1.45-1.33
		c-1.08-0.98-1.33-1.15-3.07-1.36c2.42,1.71,3.77,3.97,4.61,6.49c0.55,0.34,1.12,0.28,1.65,0.4c0.93,0.2,1.92,0.26,2.51,1.18
		c0.07,0.11,0.2,0.21,0.32,0.24c1.76,0.45,2.12,2.15,3.04,3.35c0.12,0.15,0.09,0.47,0.22,0.55c1.82,1.13,2.47,3.18,3.75,4.74
		c0.45,0.55,0.82,1.11,0.94,1.95c0.14,0.94,0.98,1.79,1.85,2.32c1.45,0.88,2.93,1.75,4.75,2.47c-0.27-1.63-0.5-3.08-0.76-4.51
		c-0.39-2.15-0.58-4.33-0.78-6.51c-0.57-6.25-0.88-12.54-1.96-18.74c-0.27-1.53-0.67-3.04-1.05-4.69c0.54,0.18,0.92,0.3,1.3,0.42
		c0.53-0.97,0.56-2.14,1.02-2.66c0.68-0.73,0.94,0.11,1.4-0.27c0.71-0.59,1.38-1.34,2.49-1.21c0.2,0.02,0.45-0.28,0.65-0.47
		c3.35-3.21,7.31-5.55,11.34-7.72c9.63-5.19,19.81-8.96,30.44-11.49c4.99-1.19,10.07-1.89,15.19-2.29c2.66-0.21,5.32-0.35,7.99-0.42
		c1.22-0.03,2.44-0.34,3.67-0.25c0.33,0.02,0.69-0.05,0.98,0.23c0.12,0.56-0.36,0.68-0.7,0.79c-0.52,0.16-1.07,0.21-1.62,0.28
		c-4.09,0.56-6.78,3.04-8.69,6.49c-2.09,3.77-3.05,7.89-3.61,12.12c-1.14,8.73,1.2,16.67,5.5,24.15c2.29,3.99,4.95,7.73,8.33,10.9
		c0.4,0.37,0.79,0.76,1.04,1.51c-0.57-0.09-0.99-0.19-1.43-0.48c-4.76-3.06-9.92-3.7-15.35-2.41c-1.79,0.42-3.54,1.01-5.22,1.83
		c-3.13,1.53-5.49,3.81-7.15,6.85c-2.29,4.2-3.57,8.71-4.25,13.43c-0.43,3-0.49,6-0.25,9.01c0.07,0.87,0.28,1.72,0.42,2.57
		c-0.5,0.14-0.74-0.08-1-0.31c-3.12-2.82-6.97-4-10.97-4.75c-5.61-1.06-11.02-0.09-16.31,1.83c-2.96,1.08-5.85,2.33-8.89,3.24
		c-1.56,3.46-3.37,6.76-5.62,9.79c-1.02,1.37-2.03,2.76-3.11,4.08c-0.7,0.86-1.25,1.8-1.78,2.75c-0.74,1.32-0.65,1.92,0.49,2.86
		c1.53,1.26,3.1,2.49,4.89,3.37c0.92,0.45,1.85,0.9,2.76,1.37c0.35,0.18,0.77,0.31,0.91,0.76c-1.44,1.12-1.68,1.19-5.77,1.76
		c0.19,1.08,0.83,1.98,1.17,2.98c1.29,3.82,4.28,5.91,7.71,7.49c2.24,1.03,4.57,1.84,7.03,2.2c0.33,0.05,0.7,0.04,0.89,0.41
		c-1.06,1.91-3.01,3.22-6.48,4.38c0.01,0.56,0.47,0.8,0.79,1.13c0.96,0.98,1.96,1.92,2.9,2.92c1.15,1.22,2.49,1.83,4.2,1.75
		c1.43-0.07,2.87,0,4.28-0.34c1.39-0.34,2.79-0.66,4.27-1.01c0.61,0.99-0.29,1.92-0.19,3.01c3.01-0.64,5.01-2.42,6.23-5.1
		c1.5-3.28,1.03-6.55-0.31-9.76c-0.92-2.21-2.07-4.32-2.7-6.65c-0.47-1.72-0.78-3.41-0.43-5.24c0.58-2.99,2.02-5.41,4.51-7.06
		c2.05-1.36,4.15-2.62,5.99-4.27c0.48-0.43,1.05-0.84,1.8-0.8c0.19,0.67-0.58,1.11-0.32,1.84c1.51-0.12,3.07-0.26,4.62-0.37
		c2.54-0.18,5.07-0.1,7.5,0.78c0.45,0.16,0.92,0.31,1.33,0.54c0.9,0.51,0.89,1.31,0.02,1.93c-0.46,0.33-0.98,0.46-1.53,0.55
		c-2.09,0.36-4.18,0.68-6.25,1.13c-2.1,0.46-4.1,1.17-5.34,3.13c-0.8,1.25-1.23,2.56-0.87,4.07c0.25,1.08,0.59,2.09,1.12,3.06
		c1.08,1.99,2.43,3.81,3.64,5.72c1.54,2.43,3.05,4.85,3.66,7.75c0.69,3.22,0.63,6.38-0.16,9.55c-1.64,6.54-5.8,11.03-11.51,14.28
		c-2.09,1.19-4.25,2.25-6.55,2.91c-4.3,1.23-8.66,1.66-13.18,1.23c-5.26-0.5-10.1-2.32-15-4.03c-0.57-0.2-1.09-0.55-1.64-0.83
		c-0.67-0.34-1.34-0.69-2.02-1.01c-0.17-0.08-0.39-0.07-0.55-0.1c-0.45,0.31-0.31,0.75-0.34,1.13c-0.33,4.5-0.6,9-0.99,13.49
		c-0.32,3.68-0.69,7.35-0.63,11.04c0.02,1.49-0.53,2.54-1.73,3.24c-2.7,1.59-5.54,2.65-8.76,1.97c-0.49-0.11-0.94,0.01-1.41,0.12
		c-2.12,0.53-4.21,0.54-6.16-0.61c-0.37-0.22-0.75-0.33-1.17-0.32c-1.53,0.03-2.53-0.85-3.46-1.92c-0.39-0.45-0.54-0.92-0.45-1.51
		c0.24-1.65,0.8-3.19,1.72-4.57c0.66-0.99,1.59-1.67,2.82-1.89c2.54-0.46,4.18-1.93,4.85-4.43c1.02-3.83,2.08-7.66,2.79-11.56
		c0.23-1.24-0.1-2.46-1.13-3.35c-0.41-0.36-0.84-0.73-1.32-0.97c-2.08-1.02-4.16-2.05-6.33-2.73c-0.58,0.2-0.45,0.7-0.57,1.05
		c-0.43,1.28-1.24,2.31-2.28,3.1c-2.61,1.98-5.49,3.29-8.82,3.53c-2.15,0.15-4.23-0.03-6.25-0.77c-0.31-0.11-0.64-0.16-1.01-0.26
		c-0.58,0.59-0.62,1.38-0.82,2.07c-1.45,5.06-3.03,10.08-4.16,15.22c-0.37,1.69-1.57,2.69-3.08,3.34c-0.94,0.41-1.96,0.57-2.97,0.77
		c-2.91,0.56-5.82,0.58-8.74,0.18c-0.07-0.01-0.14-0.02-0.2-0.03c-0.89-0.18-1.58-0.78-2.36-1.14c-0.74-0.34-1.74,0.04-2.56-0.43
		c-2.44-1.39-3.11-2.85-1.93-5.58c1.03-2.4,3.04-3.61,5.5-4.18c1.33-0.31,2.66-0.62,4.14-0.96c1.41-3.19,3.05-6.33,3.99-9.9
		c-0.97-0.29-1.88-0.51-2.75-0.82c-4.49-1.63-7.55-4.57-8.59-9.37c-0.03-0.13-0.1-0.26-0.11-0.4c-0.06-1.16,0.12-2.4-0.22-3.46
		c-0.32-0.99-1.26-1.75-1.73-2.76c-0.5-1.06-0.94-2.13-1.11-3.3c-0.4-2.83-0.66-5.64-0.51-8.54c0.31-6.14,1.64-12.04,3.39-17.89
		c0.61-2.03,1.49-3.97,1.91-6.06c0.14-0.71,0.66-1.34,1.08-2.15c-1.04-2.42-0.4-4.7,1.11-6.83c0.27-0.38,0.56-0.74,0.47-1.3
		c-0.47-2.77,0.83-4.74,2.91-6.35c0.11-0.08,0.2-0.18,0.37-0.34c0.15-1,0.04-2.1,0.5-3.21c-1.96-0.59-3.79-1.1-5.51-1.92
		c-0.32-0.15-0.66-0.22-0.99-0.06c-1.3,0.61-2.42,0.07-3.46-0.6c-3.35-2.17-7.03-3.17-10.96-3.7c-4.51-0.61-8.7,0.33-12.83,1.88
		c-1.54,0.58-2.91,1.52-4.1,2.67c-0.26,0.25-0.46,0.5-0.98,0.36c0.36-2.19,0.51-4.41,0.45-6.65c-0.17-6.58-1.48-12.89-4.54-18.78
		c-1.84-3.55-4.58-6.12-8.32-7.56c-2.23-0.86-4.48-1.66-6.91-1.83c-3.87-0.27-7.49,0.44-10.77,2.58c-0.46,0.3-0.9,0.54-1.47,0.45
		c-0.05-0.64,0.44-0.87,0.76-1.19c4.94-5.08,8.63-10.95,11.13-17.56c1.16-3.07,1.83-6.28,2.2-9.57c0.68-6.13-0.4-11.99-2.45-17.7
		c-1.1-3.07-2.79-5.79-5.64-7.61c-1-0.64-2.01-1.11-3.22-1.21c-0.98-0.08-2.09-0.11-2.56-1.24c0.12-0.45,0.45-0.35,0.67-0.33
		c6.81,0.46,13.63,0.95,20.33,2.34c6.18,1.28,12.15,3.22,18.01,5.57c6.89,2.76,13.49,6.06,19.71,10.09
		c2.58,1.67,5.05,3.53,7.29,5.65c0.29,0.28,0.55,0.62,1.01,0.65c0.68,0.03,1.12,0.46,1.56,0.9c0.15,0.14,0.28,0.34,0.46,0.4
		c0.56,0.19,1.34-0.22,1.62,0.66c0.19,0.58,0.42,1.15,0.63,1.73c0.07,0.19,0.15,0.37,0.24,0.58c0.35-0.05,0.68-0.09,1.13-0.16
		c-0.01,1.9-1.14,3.64-0.74,5.58c1.13,0,2.21-0.07,3.29,0.02c1.46,0.12,2.08-0.97,2.67-1.89c0.51-0.81,0.12-1.76-0.46-2.53
		c-0.12-0.16-0.33-0.23-0.26-0.48l-0.04,0.04c0.27-0.04,0.54-0.07,0.88-0.12c-0.11-1.31,0.24-2.46,0.99-3.61
		c0.56-0.86,0.54-2.07,0.56-3.16c0.03-1.85,0.07-3.69,0.14-5.54c0.05-1.51,0.43-2.97,0.84-4.42c0.26-0.92,0.57-1.28,1.56-2.13
		c0.96,0.41,1.14,1.44,1.68,2.19c0.52,0.72,0.69,1.65,1.51,2.34c2.01-1.15,4.28-0.82,6.51-0.87c0.95-0.02,1.89-0.14,2.86-0.22
		c0.95-1.32,0.72-3.29,2.38-4.28c1.49,0.55,1.52,2.19,2.45,3.25c0.88,0.28,1.66-0.17,2.38-0.67c1.29-0.9,2.55-1.84,3.8-2.8
		c0.48-0.37,0.87-0.86,1.65-0.93c0.06,1.25-0.59,2.22-1.11,3.2c-0.53,1.02-1.18,1.98-1.84,3.07c1.13,0.41,2.15,0.21,3.16-0.17
		c1.61-0.62,3.04-1.57,4.39-2.61c0.92-0.71,1.87-1.35,2.9-1.85c0.46,0.46,0.15,0.8-0.03,1.15c-1.24,2.46-2.97,4.58-4.69,6.71
		c-0.29,0.36-0.72,0.64-0.77,1.25c0.94,0.71,1.92-0.28,2.9-0.01c0.3,0.9-0.8,1.59-0.37,2.48c-0.16,0.06-0.19,0.04-0.11-0.07
		C135.88,21.4,135.9,21.44,135.91,21.48z M108.97,46.36c-1.62,0-2.91,0.03-4.2-0.01c-2.16-0.07-4.34-0.34-5.68-2.25
		c-1.13-1.6-3.04-2.4-4.03-4.17c-0.49,5.68-0.98,11.37-1.47,17.05c0.21-0.63,0.66-1.05,1.19-1.42c0.62-0.42,1.22-0.87,1.85-1.29
		c0.4-0.27,0.67-0.59,0.89-1.06c0.83-1.82,2.24-2.83,4.32-2.73c1.23,0.06,2.46,0.13,3.68,0.11c1.15-0.02,2.27-0.23,3.26-0.84
		C108.79,48.65,108.35,47.63,108.97,46.36z M143.35,102.35c1.77-2.54,2.01-5.45,2.65-8.38c-1.37-0.31-2.55-0.83-3.73-1.34
		c-1.26-0.55-2.44-1.23-3.6-1.95c-1.04-0.65-2.05-1.33-3.27-2.13C136.2,91.19,140.66,98.9,143.35,102.35z"/>
	<path d="M101.27,29.13c-0.16,0.06-0.37-0.09-0.31-0.14c0.28-0.28,0.29-0.05,0.27,0.18C101.23,29.17,101.27,29.13,101.27,29.13z"/>
	<path d="M139.08,46.85c0.09,0.05,0.18,0.09,0.27,0.14c-0.3,0.22-0.21-0.05-0.23-0.18C139.12,46.81,139.08,46.85,139.08,46.85z"/>
	<path fill="#1A1A1A" d="M35.86,47.26c0.72-0.98,1.84-1.4,2.82-2c5.14-3.16,10.48-5.92,16.09-8.15c7.91-3.16,16.09-5.35,24.58-6.26
		c2.45-0.26,4.9-0.46,7.34-0.69c0.33-0.03,0.69,0.02,0.98-0.43c-1.28-0.42-2.57-0.32-3.8-0.18c-4.96,0.56-9.91,1.13-14.79,2.24
		c-4.21,0.95-8.32,2.22-12.36,3.74c-8.43,3.18-16.32,7.38-23.7,12.55c-0.83,0.58-1.46,1.46-2.55,1.63c0,0,0.03,0.03,0.03,0.03
		c1-1.71,2.03-3.4,2.99-5.12c2.81-5.08,4.86-10.44,5.35-16.27c0.54-6.51-0.28-12.85-2.85-18.91c-0.9-2.11-2.06-4.01-3.74-5.59
		c-0.34-0.31-0.78-0.57-0.9-1.08c4.68-0.06,18.75,3.79,30.19,9.11c9.62,4.47,18.75,9.74,26.99,16.52c-0.13-0.91-0.79-1.4-1.39-1.88
		c-1.65-1.33-3.3-2.67-5.05-3.87C73.07,16.44,63.46,11.39,53.2,7.57c-5.79-2.16-11.7-3.85-17.73-5.13
		c-2.61-0.55-5.25-0.92-7.88-1.38c-0.52-0.09-1.04-0.22-1.56-0.34c0,0-0.03-0.01-0.03-0.01c3.94,0.44,7.87,0.88,11.81,1.33
		C44.48,2.82,51,4.31,57.36,6.5c7.14,2.46,14.03,5.46,20.55,9.26c4.56,2.65,9.01,5.48,12.74,9.27c0.24,0.24,0.51,0.62,0.78,0.63
		c1.11,0.05,1.53,1,2.28,1.51C94.86,27.95,95,29,95.08,30.1c0.35,0.2,0.58-0.04,0.84-0.07L95.9,30c-0.31,1.68-0.64,3.36-0.92,5.05
		c-0.67,4.05-1.04,8.14-1.35,12.24c-0.22,2.86-0.48,5.73-0.73,8.59c-0.11,1.3-0.52,2.54-0.87,3.79c-0.14,0.49-0.48,0.82-0.79,1.18
		c-0.41,0.46-0.83,0.91-1.05,1.52c0.01,0.63,0.44,0.9,0.96,1.19c0.06-2.39,0.72-2.46,2.38-2.81c-0.27-0.39-0.53-0.77-0.77-1.14
		c0.61-1.06,0.61-1.06,1.64-1.73c0.82,0.15,1.37,1.17,2.48,0.76c-0.53-0.85-1.67-0.84-2.04-1.71c0.65-1.17,0.65-1.17,2.33-2.12
		c0.76,0.39,1.55,0.79,2.32,1.21c0.91,0.49,1.79,0.55,2.74,0.09c0.8-0.38,1.65-0.65,2.49-0.94c0.81-0.28,1.63-0.3,2.37,0.17
		c2.84,1.8,6.01,1.65,9.16,1.54c1.51-0.05,2.97-0.32,4.42-0.82c1.09-0.38,2.25-0.55,3.4-0.74c1.25-0.2,2.46,0.03,3.57,0.66
		c1.73,0.98,3.39,2.07,4.89,3.39c0.89,0.78,1.53,1.75,1.94,2.86c1.32,3.55,2.28,7.16,2.1,11.02c-0.18,3.76-1.29,7.18-3.7,10.01
		c-2.16,2.53-5.14,3.85-8.47,4.18c-4.34,0.43-8.32-0.64-11.74-3.38c-2.75-2.2-4.21-5.15-4.37-8.71c-0.26-5.49,2.12-9.92,5.59-13.92
		c0.38-0.44,1-0.73,1-1.46c-1.02,0.42-1.02,0.42-2.23,1.85c-0.61,0.72-1.21,1.44-1.84,2.2c-0.54-0.64-0.3-1.41-0.77-2.14
		c-0.25,1.55-0.38,3-0.75,4.38c-0.37,1.38-0.98,2.7-1.49,4.04c-0.15-0.3-0.42-0.44-0.71-0.54c-0.37-0.39-0.85-0.33-1.32-0.32
		c-0.36-0.32-0.72-0.7-1.18-0.09c0.37,0.23,0.74,0.23,1.13,0.15c0.25,0.46,0.73,0.4,1.15,0.51c0.28,0.26,0.63,0.21,0.96,0.26
		c-0.5,2.35-0.72,4.7-0.18,7.1c0.31,1.34,0.82,2.59,1.43,3.81c0.53,1.06,0.45,1.32-0.48,2.08c-5.32,4.38-13.74,4.05-18.79-1.25
		c-0.5-0.53-1.04-1.05-1.17-1.85c0.69,0,1.29,0,1.88,0c1.23,1.07,2.67,1.02,4.15,0.8c0.22,0.15,0.42,0.4,0.65,0.42
		c1.01,0.11,2.02,0.17,3.03,0.21c1.32,0.05,2.64-0.05,3.92-0.48c-2.55-0.2-5.09-0.21-7.63-0.12c-1.02-0.48-2.78-0.82-4.15-0.8
		c0.31-0.47,0.78-0.75,1.22-1.07c2.73-1.93,2.98-6.18,0.78-8.77c-0.54-0.64-1.25-1.07-2.13-1.09c-0.61-0.01-1.22,0-1.97,0
		c0.23-1.37-0.11-2.68-0.48-3.97c-0.67-2.28-0.66-4.59-0.42-6.92c0.63-6.34,1.48-12.64,2.94-18.85c0.21-0.91,0.28-1.85,0.48-3.16
		c-1.12,1.7-1.58,3.39-2.81,11.01c-0.58,3.58-0.95,7.18-1.5,10.79c-0.5-3-1.78-5.85-1.64-8.97c0.04-0.83-0.21-1.62-0.59-2.37
		c-0.27-0.55-0.5-1.12-0.73-1.7c-0.3-0.77-0.2-1.43,0.43-2.05c1.12-1.11,2.17-2.28,3.25-3.43c0.56-0.59,1.11-1.18,1.57-1.89
		c-1.22,0.31-1.96,1.26-2.8,2.07c-0.83,0.8-1.64,1.63-2.63,2.61c-0.3-1.78-0.1-3.12,1.15-4.22c1.13-1,2.2-2.05,3.31-3.08
		c0.24-0.22,0.6-0.35,0.55-0.99c-1.92,1.03-3.23,2.67-4.82,3.9c-0.16-0.03-0.32-0.02-0.41-0.09c-0.68-0.54-1.38-0.85-2.27-0.45
		c-0.99,0.44-1.77,1.04-2.06,2.13c-0.25,0.93-0.49,1.86-0.33,2.83c0.09,0.55,0.2,1.09-0.32,1.65c-2.53-0.05-4.29-1.55-5.97-3.21
		c1.58-2.85,1.56-3.38-0.08-5.23c-1.04,0.23-1.37,1.28-2.17,1.88c-0.48,0.02-0.91-0.76-1.54-0.14c-0.63,0.62-1.38,1.11-2.04,1.71
		c-0.59,0.53-0.83,1.21-0.84,2.02c-0.04,2.86,0.54,5.56,1.9,8.09c0.34,0.63,0.89,1.03,1.47,1.4c1.03,0.67,2.06,1.33,3.24,2.09
		c-3,4.67-5.86,9.31-8.44,14.13c-2.55,4.76-4.6,9.74-6.68,14.96c-0.67-0.75-0.46-1.45-0.5-2.07c-0.36-5.72-1.56-11.21-4.08-16.42
		c-2.53-5.24-6.68-8.39-12.15-9.95c-3.35-0.95-6.72-1.27-10.12-0.23c-0.46,0.14-0.94,0.18-1.41,0.26c0,0,0.03,0.03,0.03,0.03
		c0.21-0.83,0.98-1.09,1.57-1.52c5.86-4.23,12.31-7.39,18.86-10.35c6.32-2.85,12.89-4.98,19.68-6.32c3.55-0.7,7.13-1.25,10.75-1.57
		c2.8-0.25,5.59-0.39,8.4-0.38c0.38,0,0.83,0.11,1.1-0.32c-0.36-0.45-0.87-0.32-1.33-0.34c-5.01-0.2-9.98,0.28-14.92,1.05
		c-8.08,1.25-15.87,3.57-23.37,6.82c-4.15,1.8-8.19,3.81-12.14,6.01c-0.54,0.3-1.04,0.67-1.69,0.7L35.86,47.26z M107.4,64.1
		c0.1,0.06,0.06,0.38,0.3,0.14c-0.11-0.03-0.22-0.07-0.33-0.1c-0.35-0.39-0.8-0.41-1.27-0.37c-0.19-0.19-0.33-0.56-0.77-0.16
		c0.32,0.05,0.56,0.09,0.81,0.12C106.51,64.01,106.94,64.11,107.4,64.1z M106.59,58.79c0.17,0.21,0.35,0.4,0.66,0.22
		c-0.07-0.37-0.38-0.25-0.61-0.29c-0.3-0.47-0.79-0.38-1.23-0.41c-0.21-0.37-0.47-0.43-0.8-0.14c0.22,0.22,0.48,0.25,0.75,0.2
		C105.68,58.76,106.12,58.83,106.59,58.79z M119.09,76.21c0.18,0.72,0.35,1.31,0.46,1.91c0.28,1.54,1.28,2.53,2.55,3.3
		c1.05,0.64,2.22,0.6,3.39,0.58c2.15-0.05,3.56-1.17,4.48-3.05c0.89-1.83,0.81-3.53-0.35-5.23c-2.83-4.12-8.06-2.85-9.66,0.41
		c-0.21,0.43-0.43,0.85-0.56,1.12c-0.6,0.57-1.31,0.19-1.93,0.64C118.04,76.01,118.5,76.1,119.09,76.21z M122.63,82.46
		c2.22,0.18,4.44,0.25,6.66-0.08C127.06,82.4,124.85,81.69,122.63,82.46z M118.88,58.98c1.92,0.34,4.79,0.33,6.14-0.07
		C122.99,58.82,120.96,58.19,118.88,58.98z M120.83,69.27c-1.87-0.47-4.42-0.4-5.43,0.14C117.68,69.82,119.57,69.77,120.83,69.27z
		 M135.02,76.67c-0.91-0.12-1.82-0.49-3.21,0.06C133.2,76.98,134.11,76.88,135.02,76.67z M96.28,62.38c0.81,0,1.62,0,2.44,0
		C97.91,62.02,97.1,62,96.28,62.38z M96,74.55c0.74,0.29,1.47,0.49,2.57,0.05C97.49,74.28,96.74,74.43,96,74.55z M100.27,74.89
		c0.62,0.36,1.27,0.4,1.91,0C101.54,74.89,100.91,74.89,100.27,74.89z M124.25,69.6c1,0.24,1,0.24,1.81-0.04
		C125.47,69.46,124.91,69.36,124.25,69.6z M103.43,57.71c-0.63-0.27-1.14-0.53-1.86,0.06C102.25,58,102.76,58.16,103.43,57.71z
		 M103.11,68.88c-0.81-0.31-0.81-0.31-1.38,0.11C102.25,69.1,102.69,69.19,103.11,68.88z M113.1,69.64
		c-0.46-0.33-0.89-0.26-1.31,0.05C112.24,69.93,112.67,70.04,113.1,69.64z M119.03,81.75c-0.59,0.25-1.05-0.25-1.47,0.52
		C118.05,82.05,118.5,82.46,119.03,81.75z M128.16,70.08c0.36,0.29,0.72,0.32,1.08,0.02C128.89,69.79,128.53,69.8,128.16,70.08z
		 M127.43,59.4c-0.35-0.35-0.68-0.38-1.11-0.07C126.76,59.73,127.09,59.65,127.43,59.4z M100.8,62.6c0.13,0.27,0.34,0.29,0.54,0.26
		c0.18-0.02,0.36-0.11,0.54-0.17c-0.11-0.22-0.32-0.22-0.52-0.21C101.17,62.49,100.99,62.56,100.8,62.6z M104,80.93
		c0.6,0,0.91,0.17,1.16-0.2C104.85,80.57,104.57,80.51,104,80.93z M103.41,63.06c0.24,0.31,0.47,0.28,0.71-0.01
		C103.88,62.88,103.64,62.83,103.41,63.06z M117.64,63.96c-0.08-0.08-0.15-0.19-0.23-0.2c-0.12-0.01-0.28,0.02-0.35,0.1
		c-0.08,0.09,0.03,0.21,0.2,0.2C117.38,64.06,117.5,64,117.64,63.96z M124.67,64.01c0.3,0.03,0.5,0.16,0.83-0.19
		C125.19,63.78,125,63.66,124.67,64.01z M93.85,67.55c-0.11-0.08-0.2-0.2-0.32-0.22c-0.34-0.08-0.64,0.19-0.45,0.36
		C93.36,67.91,93.65,67.93,93.85,67.55z M130.84,70.67c0.09-0.06,0.18-0.13,0.27-0.19c-0.11-0.06-0.22-0.16-0.32-0.15
		c-0.09,0-0.18,0.12-0.27,0.18C130.63,70.56,130.73,70.61,130.84,70.67z M129.28,59.82c-0.03-0.04-0.07-0.12-0.1-0.12
		c-0.1,0.01-0.2,0.05-0.29,0.08c0.03,0.04,0.07,0.12,0.1,0.12C129.08,59.89,129.18,59.85,129.28,59.82z M114.71,64.35
		c-0.02-0.05-0.05-0.14-0.06-0.14c-0.11,0.02-0.22,0.05-0.33,0.08c0.02,0.05,0.05,0.13,0.06,0.13
		C114.5,64.41,114.61,64.38,114.71,64.35z M97.83,67.89c-0.17,0.01-0.24,0.09-0.17,0.21c0.02,0.04,0.11,0.07,0.16,0.07
		c0.17-0.01,0.24-0.09,0.17-0.2C97.97,67.92,97.88,67.91,97.83,67.89z M105.74,75.41c-0.1-0.06-0.2-0.17-0.31-0.17
		c-0.1,0-0.2,0.11-0.3,0.17c0.1,0.06,0.2,0.17,0.31,0.16C105.54,75.58,105.64,75.47,105.74,75.41z M114.77,81.66
		c-0.01-0.05-0.01-0.14-0.04-0.15c-0.05-0.03-0.14-0.04-0.19-0.01c-0.17,0.09-0.14,0.19,0.06,0.23
		C114.65,81.74,114.71,81.68,114.77,81.66z M133.38,70.85l-0.13,0.06l0.13,0.06L133.38,70.85z"/>
	<path fill="#1A1A1A" d="M160.92,41.89c-0.14-0.24-0.3-0.44-0.71-0.51c-0.34,0.54-0.19,1.15-0.07,1.72
		c0.32,1.54,0.71,3.07,1.02,4.61c1.63,8.06,2.76,16.18,2.55,24.44c-0.01,0.48-0.05,0.95-0.1,1.43c-0.01,0.13-0.11,0.24-0.18,0.37
		c-0.42,0.48-1,0.38-1.53,0.37c-0.82-0.01-1.65-0.02-2.45-0.15c-3.83-0.63-3.82-0.65-5.43-4.24c-0.25-0.56-0.56-1.1-0.83-1.65
		c-0.29-0.58-0.99-1.2-0.33-1.83c0.63-0.6,1.27,0.1,1.87,0.35c0.88,0.38,1.72,0.84,2.58,1.27c0.48,0.24,0.97,0.45,1.59,0.42
		c0.21-1.11-0.21-2.09-0.36-3.08c-0.8-5.21-1.2-10.46-1.65-15.71c-0.37-4.3-0.94-8.56-1.79-12.79c-0.13-0.67-0.24-1.35-0.35-2.02
		l0.02,0.03c0.25,0.07,0.36,0.42,0.71,0.33c0.33-0.45,0.1-1.05,0.33-1.54c0.18-0.38,0.14-0.84,0.84-0.93
		c0.39-0.05,0.69-0.79,1.02-1.21c0.25-0.32,0.5-0.71,0.99-0.55c0.6,0.2,0.89-0.23,1.22-0.54c3.83-3.59,8.28-6.3,12.87-8.76
		c8.98-4.8,18.44-8.39,28.34-10.76c4.73-1.13,9.53-1.91,14.37-2.33c4.08-0.36,8.16-0.72,12.25-1.01c-1.78,0.67-3.71,0.62-5.51,1.05
		c-0.01,0.58,0.59,0.35,0.67,0.73c-0.04,0.09-0.07,0.25-0.16,0.31c-2.82,1.96-4.48,4.74-5.64,7.89c-3.55,9.63-3.37,19.17,0.7,28.62
		c1.5,3.48,3.41,6.71,5.59,9.79c0.19,0.26,0.51,0.47,0.46,0.98c-13.8-10.09-28.88-17.24-45.7-20.41
		c-5.55-1.04-11.14-2.07-16.87-1.42c1.82,0.2,3.63,0.45,5.46,0.6c13.75,1.11,26.73,4.92,39.06,11.07c3.99,1.99,7.85,4.19,11.66,6.49
		c0.81,0.49,1.67,0.95,2.31,1.69l0.03-0.04c-0.76,0.09-1.27-0.43-1.86-0.77c-7.99-4.56-16.24-8.54-25.01-11.37
		c-6.66-2.15-13.48-3.56-20.43-4.42c-1.77-0.22-3.55-0.26-5.32-0.39c-0.66-0.05-1.35-0.12-1.98,0.19c0.11,0.42,0.39,0.42,0.65,0.44
		c7.69,0.35,15.22,1.69,22.64,3.71c6.63,1.81,12.99,4.3,19.17,7.28c5.62,2.71,11.12,5.63,16.19,9.3c0.6,0.43,1.33,0.73,1.62,1.5
		l0.03-0.03c-2.77-0.84-5.61-1.24-8.5-1.03c-5.28,0.39-10.04,2.08-13.79,5.98c-2.37,2.47-3.73,5.55-4.85,8.72
		c-1.43,4.09-2.32,8.29-2.28,12.66c0,0.46,0.1,0.96-0.25,1.37c-0.51-0.08-0.58-0.5-0.72-0.88c-3.66-9.8-8.81-18.81-14.67-27.43
		c-3.31-4.87-6.8-9.61-10.77-13.96c-2.34-2.57-4.75-5.11-7.78-6.94c-0.07-0.27-0.2-0.48-0.52-0.45c-0.05,0.01-0.13,0.08-0.14,0.13
		c-0.05,0.33,0.18,0.45,0.43,0.55c0.87,0.76,1.76,1.51,2.62,2.29c3.77,3.4,7.05,7.25,10.12,11.28c5.32,6.98,10.09,14.32,14.26,22.05
		c1.76,3.25,3.28,6.62,4.75,10.01c0.22,0.5,0.46,1,0.44,1.57l0.03-0.02c-0.43-0.28-0.57-0.75-0.8-1.17
		c-1.48-2.78-2.91-5.58-4.45-8.33c-3.6-6.39-7.67-12.48-12.03-18.37c-4.08-5.51-8.52-10.71-13.65-15.28
		c-0.61-0.54-1.18-1.15-2.03-1.3L160.92,41.89z M219,9.51c1.07,0,1.06-0.01,2.1-0.54c-0.92-0.03-1.64-0.18-2.29,0.29
		c-0.85,0.03-1.72-0.06-2.5,0.4c-0.68,0.07-1.37,0.08-2.04,0.21c-6.73,1.32-13.29,3.26-19.71,5.65
		c-8.24,3.06-16.07,6.95-23.62,11.45c-2.83,1.69-5.55,3.52-8.01,5.72c-0.23,0.21-0.63,0.37-0.3,0.79c0.39-0.01,0.62-0.26,0.9-0.47
		c1.48-1.11,2.92-2.27,4.47-3.28c5.23-3.4,10.66-6.45,16.31-9.08c8.78-4.09,17.84-7.33,27.29-9.49c1.66-0.38,3.32-0.77,4.97-1.16
		C217.39,9.86,218.26,10.01,219,9.51z"/>
	<path fill="#1A1A1A" d="M120.63,150.93c1.77,1.57,3.64,3.01,5.75,4.12c-1.18,0.37-2.03,1.24-2.99,1.94
		c-0.29,0.12-0.58,0.24-0.87,0.36c-1.38,0.35-2.76,0.71-4.07,1.27c-1.86,0-3.73,0-5.59-0.01c-1.78-0.48-3.55-0.95-5.33-1.44
		c-0.67-0.18-1.34-0.29-2.03-0.26c-2.5-0.67-5.53-0.62-7.13,0.19c2.4,0.05,4.63,0.1,6.86,0.14c1.74,0.48,3.48,0.99,5.23,1.44
		c0.72,0.19,1.46,0.26,2.2,0.16c1.99,0.57,3.98,0.7,5.97,0.01c1.48-0.07,2.87-0.4,4.11-1.25c0.31-0.07,0.61-0.15,0.8-0.43
		c1.17-0.42,2.21-0.99,2.79-2.17c0.69,0.29,1.37,0.57,1.91,0.79c0.43,0.62,0.27,1.08,0.07,1.52c-0.52,1.14-1.34,2.06-2.33,2.8
		c-4.39,3.24-9.17,3.96-14.31,2.13c-1.73-0.61-3.41-1.38-5.15-1.97c-1.35-0.46-2.76-0.73-4.13,0.02c-0.17,0.3-0.06,0.31,0.19,0.19
		c0.38,0.15,0.83-0.05,1.24,0.34c-0.89,0.66-1.93,0.57-2.9,0.62c-4.64,0.23-8.6-1.25-11.71-4.79c-0.32-0.37-0.6-0.75-0.72-1.23
		l0-0.01c0.47,0.27,0.94,0.54,1.4,0.82c1.42,0.86,2.92,1.44,4.63,1.25c0.84-0.09,1.73,0.19,2.64-0.13
		c-0.39-0.55-0.81-0.46-1.21-0.41c-2.91,0.37-5.3-0.87-7.57-2.45c-0.76-0.54-1.07-1.41-1.24-2.28c-0.26-1.34-0.42-2.69-0.04-4.04
		c2.29,2.04,4.94,3.03,8.03,2.93c3.81-0.13,7.63-0.15,11.44-0.22c0.43,0.53,1,0.55,1.61,0.47c0.63,0.43,1.22,0.99,2.2,0.6
		c-0.73-0.47-1.39-0.71-2.15-0.67c-0.48-0.51-1.06-0.55-1.69-0.36c-0.93-0.76-2.05-0.63-3.12-0.63c-3.01,0-6.02,0.06-9.03,0.12
		c-1.55,0.03-2.99-0.33-4.35-1.03c-0.91-0.47-1.77-1.03-2.65-1.55c-0.17-2.31,0.58-4.27,2.22-5.89c0.21,0.27,0.51,0.35,0.83,0.4
		c0.95,0.74,1.96,1.36,3.24,1.3c0.85,0.41,1.7,0.6,2.81,0.07c-0.96-0.42-1.77-0.29-2.54-0.4c-1.09-0.47-2.15-1.02-3.35-1.16
		c-0.19-0.29-0.5-0.36-0.8-0.43c0.03-0.91,0.66-1.49,1.21-2.08c1.03-1.09,2.14-2.11,3.22-3.17c0.28,0.35,0.67,0.51,1.1,0.58
		c0.73,0.47,1.56,0.44,2.37,0.44c1.43,0.01,2.86,0.01,4.29,0c2.52-0.01,5.01,0.05,7.51,0.56c1.62,0.33,3.37,0.57,5.02-0.18
		c0.58-0.02,1.16-0.05,1.65-0.42c0.12-0.13,0.35-0.35,0.33-0.37c-0.21-0.26-0.42-0.16-0.61,0.05c-0.55,0.13-1.17-0.01-1.64,0.41
		c-2.05,0.12-4.06-0.14-6.06-0.52c-1.14-0.22-2.28-0.4-3.43-0.33c-3.05,0.17-6.1,0.13-9.15,0.03c-0.42-0.36-0.9-0.3-1.39-0.23
		c1.46-1.33,3.1-2.41,4.73-3.52c0.95-0.65,1.88-1.05,3.03-0.61c0.24,0.09,0.54,0.05,0.79-0.31c-1.25-0.92-2.96-1.02-4.05-2.19
		c0.72,0.03,1.51,0.35,2.07-0.42c0.78,0.29,1.52,0.17,2.23-0.22c2.7-0.96,4.26-2.16,4.68-3.8c-1.47,1.64-3.1,2.74-4.96,3.48
		c-0.64,0.2-1.43-0.08-1.93,0.58c-0.76-0.22-1.51-0.37-2.07,0.41c-2.4-1.26-4.39-2.96-5.74-5.35l0-0.01
		c0.41,0.12,0.83,0.19,1.25,0.03l-0.04-0.03c0.25,0.51,0.75,0.55,1.21,0.58c2.97,0.21,5.6-0.62,7.86-2.57
		c0.4-0.35,0.84-0.7,0.85-1.31l-0.04,0.05c0.6-0.22,0.83-0.68,0.86-1.28l-0.04,0.05c0.42-0.15,0.46-0.5,0.44-0.88l-0.03,0.05
		c1.46-2.21,1.41-4.42,0-6.64l0.02,0.06c0.75-0.36,1.15,0.17,1.55,0.63c2.63,3.05,4.59,6.43,5.13,10.5
		c0.09,0.67,0.21,1.34,0.32,2.02c-0.61,0.56-0.57,1.36-0.77,2.07l-0.03-0.03c0.67-0.53,1.04-1.18,0.78-2.07
		c0.68-0.4,0.54-1.08,0.46-1.66c-0.14-1.01-0.39-2.01-0.59-3.01c-0.14-0.71-0.45-1.35-0.37-2.16c0.05-0.5-0.85-0.96-1.14-1.61
		c-0.3-0.68-0.74-1.31-1.15-1.94c-0.37-0.57-0.76-1.14-1.17-1.68c-0.32-0.43-0.75-0.8-0.86-1.36c0.36-0.46,0.88-0.32,1.34-0.33
		c1.98-0.06,3.97-0.1,5.95-0.15c0.48-0.01,0.97,0.02,1.36-0.33c0.98,0.03,1.97,0.07,2.88-0.41c0.7-0.06,1.44,0.04,2.06-0.42
		c0.57-0.06,1.16,0,1.65-0.41c0.32-0.06,0.75,0.1,0.88-0.41c-0.44-0.28-0.75-0.05-1.07,0.16c-0.57,0.04-1.16,0.04-1.65,0.41
		c-0.71,0.01-1.43-0.02-2.06,0.41c-0.97,0.08-1.98-0.17-2.88,0.41c-2.45,0.01-4.91,0.01-7.36,0.04c-1.45,0.02-2.81-0.19-4.15-0.86
		c-1.74-0.88-3.66-1.18-5.57-0.76c-1.34,0.3-2.55,0.07-3.79-0.34c-0.77-0.26-1.52-0.63-2.37-0.6c-0.41-0.33-0.88-0.3-1.36-0.24
		c-0.05-0.02-0.1-0.04-0.15-0.06c0.06,0.01,0.12,0.02,0.17,0.02c0.16,0.55,0.68,0.45,1.07,0.6c1.01,0.7,2.36,0.6,3.52,1.42
		c-1.47,1.25-2.94,2.34-3.84,4c-0.88,1.64-1.48,3.35-1.64,5.24c-1.07-1.41-0.91-3.01-0.92-4.67c-1.82-1.84-1.68-3.99-0.61-6.18
		c0.38-0.77,0.56-1.51,0.44-2.36c-0.3-2.05,0.11-3.94,1.41-5.6c0.39-0.5,0.72-1.04,0.51-1.7c-0.56-1.74,0.37-3.04,1.28-4.33
		c0.31-0.44,0.73-0.82,1.14-1.17c0.45-0.38,0.68-0.81,0.72-1.4c0.05-0.75,0.28-1.47,0.51-2.19c0.64-1.95,2.04-2.79,4-2.95
		c1.49-0.12,2.99-0.21,4.46-0.48c1.98-0.36,3.71-1.33,5.32-2.54c1.25-0.94,1.62-0.96,2.69-0.07c3.29,2.71,7.02,4.17,11.32,4.04
		c0.32-0.01,0.75-0.08,0.59,0.5c-0.71,0.02-1.43-0.01-2.05,0.42c-0.96-0.01-1.9,0.08-2.86,0.2c-2.86,0.36-5.73,0.23-8.61,0
		c-3.01-0.24-5.96-0.78-8.84-1.72c-0.3-0.1-0.78-0.34-1.04,0.29c0.84,0.5,1.76,0.73,2.67,0.99c3.86,1.07,7.81,1.37,11.79,1.36
		c2.39-0.01,4.77-0.12,7.07-0.87c0.7-0.06,1.44,0.05,2.05-0.43c0.84,0.06,1.63-0.13,2.39-0.45c1.09-0.46,2.26-0.51,3.4-0.64
		c0.85-0.1,1.27,0.39,1.16,1.25c-0.16,1.25-0.64,2.36-1.51,3.3c-0.91,0.99-1.87,1.93-3.04,2.62c-0.47-0.01-0.94-0.04-1.29,0.36
		c-0.47-0.04-0.91,0.06-1.3,0.33c-0.57,0.09-1.19-0.07-1.66,0.39c-1.3,0.04-2.58,0.1-3.88,0.25c-3.2,0.36-6.42,0.37-9.62,0.03
		c-4.02-0.43-7.96-1.22-11.81-2.5c-0.31-0.1-0.64-0.25-0.88,0.15c0.13,0.36,0.44,0.51,0.77,0.61c1.37,0.42,2.73,0.87,4.11,1.24
		c4.93,1.35,9.97,1.6,15.04,1.34c2.17-0.11,4.37-0.09,6.45-0.89c0.58-0.01,1.18,0.02,1.67-0.39c0.41-0.12,0.9-0.03,1.16-0.5
		c0.47,0.02,0.88-0.12,1.21-0.46c0.9,0.15,1.77-0.09,2.65-0.15c0.89-0.06,1.25,0.27,1.35,1.16c0.19,1.66-0.23,3.11-1.42,4.32
		c-0.42,0.43-1.01,0.72-1.26,1.36c0.56,0.71,1.34-0.13,2.11,0.5c0.61,0.8,0.37,1.87-0.11,2.86c-0.42,0.85-0.93,1.69-1.55,2.41
		c-5.24,6.12-8.89,14.19-9.7,22.85c-0.05,0.52-0.05,1.1-0.58,1.51c-0.85-0.08-1.26-1.02-2.26-1.19c0.09,0.73,0.61,1.08,1.07,1.39
		c1.26,0.86,1.72,2,1.66,3.51c-0.07,1.71,0.14,3.41,0.37,5.11c0.11,0.8,0.34,1.62,0.01,2.48c-1.2,0.93-2.69,1.12-4.57,1.43
		c1.94,0.75,3.22-0.3,4.7-0.5c0.77,1.02,0.74,2.31,1.15,3.43c0.42,1.16,0.74,2.35,1.1,3.53c-0.36,0.01-0.71,0.02-0.91,0.39
		c-0.46-0.04-0.94-0.14-1.26,0.35c-0.73-0.07-1.46-0.09-2.11,0.35c-1.5,0.23-3.05-0.17-4.53,0.37c1.59,0.46,3.16,0.36,4.72-0.12
		c0.69-0.03,1.41,0.02,1.97-0.53c0.46,0.03,0.89-0.02,1.18-0.44C120.07,151.29,120.4,151.22,120.63,150.93z M114.43,129.47
		l-0.02,0.04L114.43,129.47z M108.64,124.57c0.37-0.2,0.33-0.57,0.36-0.9c0.36-0.15,0.39-0.48,0.44-0.8
		c0.16-0.14,0.43-0.24,0.26-0.55c-0.3,0.11-0.17,0.38-0.23,0.58c-0.15,0.27-0.29,0.53-0.44,0.8c-0.12,0.3-0.24,0.6-0.36,0.9
		c-0.05,0.02-0.1,0.02-0.14,0.05c-0.02,0.02-0.01,0.07-0.02,0.11C108.55,124.7,108.6,124.63,108.64,124.57z M93.06,101.1
		c-0.06-0.22-0.2-0.32-0.42-0.27c-0.05,0.01-0.13,0.11-0.11,0.14c0.1,0.2,0.28,0.23,0.48,0.2c0.28,0.38,0.7,0.46,1.13,0.54
		c3.62,1.76,7.53,2.42,11.48,2.76c4.71,0.41,9.42,0.24,14.1-0.41c2.01-0.28,4.08-0.45,5.84-1.67c0.16-0.02,0.24-0.12,0.15-0.21
		c-0.09-0.09-0.19-0.01-0.22,0.14c-0.27,0-0.56-0.06-0.82,0.01c-2.72,0.69-5.48,1.06-8.27,1.27c-4.71,0.36-9.4,0.32-14.08-0.34
		c-2.71-0.39-5.32-1.18-7.96-1.84C94,101.04,93.52,101.09,93.06,101.1z M112.79,131.24c-0.45-0.04-0.91-0.09-1.23,0.35
		c-0.08,0.08-0.38-0.08-0.23,0.23c0.07-0.09,0.14-0.18,0.2-0.27c0.47,0.09,0.88-0.01,1.22-0.36L112.79,131.24z M109.58,144.22
		c-0.46-0.44-1.08-0.27-1.61-0.45c-2.36-0.94-4.77-1.14-7.22-0.36c-0.65-0.06-1.29-0.01-1.86,0.4c0.7,0.11,1.4,0.35,2.05-0.17
		c2.27-0.11,4.52-0.03,6.75,0.45c0.51,0.38,1.12,0.27,1.69,0.36c0.82,0.41,1.66,0.58,2.92,0.05
		C111.15,144.26,110.38,144.1,109.58,144.22z M116.78,118.82c-0.01-0.14-0.01-0.29-0.02-0.43c-0.85,0-1.71-0.01-2.56,0.01
		c-0.16,0-0.32,0.16-0.62,0.32C114.76,119.31,115.77,118.73,116.78,118.82z M113.65,125.25c0.36,0.34,0.68,0.22,1.01-0.05
		C114.31,124.99,113.97,124.84,113.65,125.25z M109.11,132.22c0.14,0.18,0.33,0.19,0.51,0.11c0.15-0.07,0.12-0.21-0.05-0.25
		C109.4,132.03,109.21,131.99,109.11,132.22z M118.43,118.25c0.28,0.26,0.54,0.24,0.79-0.03
		C118.94,117.97,118.68,117.95,118.43,118.25z"/>
	<path fill="#1A1A1A" d="M194.2,88.39c-0.1,0.81,0.38,1.43,0.67,2.12c0.23,0.54,0.71,1.01,0.52,1.83c-1.85-1.2-3.75-2.11-5.76-2.76
		c-6.92-2.22-13.77-1.84-20.55,0.59c-2.19,0.79-4.32,1.73-6.5,2.56c-0.55,0.21-1.08,0.63-1.74,0.37c-0.35-0.4-0.08-0.79-0.02-1.17
		c0.54-3.32,0.36-6.53-1.17-9.62c-1-2.02-1.88-4.11-2.82-6.16c-0.22-0.49-0.5-0.96-0.43-1.68c1.38,0.24,2.71,0.46,4.04,0.71
		c0.89,0.17,1.76,0.19,2.63-0.12c1.12-0.39,1.6-0.97,1.54-2.13c-0.29-5.8-0.43-11.61-1.39-17.38c-0.68-4.12-1.47-8.21-2.36-12.29
		c-0.1-0.47-0.33-0.92,0.05-1.36l-0.04-0.01c0.46,1.04,1.37,1.69,2.15,2.45c4.57,4.45,8.84,9.16,12.66,14.28
		c6.44,8.64,12.16,17.72,17.01,27.35c0.3,0.59,0.43,1.32,1.14,1.64l-0.03-0.05c-0.02,0.38,0.02,0.72,0.45,0.88L194.2,88.39z"/>
	<path fill="#1A1A1A" d="M143.28,149.65c1.37,1.11,2.89,1.51,4.45,1.74c1.53,0.23,2.19,1.14,2.42,2.61
		c0.31,1.98,0.32,3.97,0.19,5.94c-0.27,4.02-0.67,8.04-0.99,12.06c-0.1,1.3-0.14,2.6-0.18,3.9c-0.1,2.87-0.25,5.74-0.24,8.61
		c0,1.4-0.49,2.36-1.67,3.04c-2.11,1.22-4.32,2.08-6.8,1.96c-1.49-0.07-1.85-0.53-1.57-1.94c0.23-1.15,0.61-2.25,1.26-3.23
		c0.66-0.99,1.44-1.83,2.68-2.08c0.41-0.08,0.8-0.21,1.03-0.77c-2.1-0.17-3.43,0.91-4.61,2.41c-1.22,1.56-1.08,3.47-1.34,5.16
		c-2.44,1.1-3.7,1.07-6.03-0.12c-0.35-1.78,0.65-3.27,1.3-4.8c0.64-1.5,1.4-2.98,3.02-3.7c-0.32-0.66-0.75-0.44-1.05-0.24
		c-0.93,0.62-1.62,1.47-2.15,2.45c-0.74,1.39-1.4,2.82-1.85,4.34c-0.13,0.45-0.32,0.89-0.44,1.24c-0.55,0.36-1.02,0.26-1.48,0.11
		c-1.15-0.38-1.39-0.78-1.24-1.97c0.22-1.74,1.03-3.26,1.88-4.74c0.57-0.98,1.59-1.53,2.6-1.92c1.88-0.73,2.99-2.09,3.61-3.94
		c1.31-3.9,2.36-7.86,3.02-11.92c0.36-2.25-0.35-4.03-2.38-5.23c-0.39-0.23-0.93-0.31-1.13-0.81c1.17-0.97,2.73-1.44,3.58-2.8
		c0.04-0.06,0.06-0.14,0.12-0.16c1.38-0.56,1.91-1.75,2.3-3.06c0.05-0.18,0.21-0.45,0.34-0.46
		C142.87,151.27,142.72,150.34,143.28,149.65z"/>
	<path fill="#1A1A1A" d="M94.12,174.64c-1.63,0.18-2.74,1.09-3.56,2.47c-0.67,1.13-1.15,2.33-1.62,3.54
		c-0.22,0.57-0.42,1.15-0.59,1.63c-0.43,0.36-0.85,0.42-1.25,0.38c-1.56-0.15-2.01-0.86-1.55-2.34c0.49-1.58,1.29-3.01,2.19-4.4
		c0.78-1.22,1.85-2.08,3.27-2.26c2.41-0.3,3.68-1.73,4.56-3.86c0.73-1.77,1.41-3.56,2.11-5.34c0.22-0.57,0.45-1.14,0.72-1.85
		c2.51-0.09,5.07-0.12,7.17-1.72c1.49,0.56,3.07,0.61,4.25,1.89c-0.6,2.09-1.15,4.2-1.81,6.27c-1.1,3.46-1.84,7.01-2.67,10.54
		c-0.35,1.47-0.99,2.45-2.37,3.09c-1.39,0.65-2.86,0.9-4.33,1.21c-2.17,0.46-4.37,0.3-6.55,0.25c-0.95-0.02-1.89-0.27-2.64-0.87
		c-0.26-0.69-0.01-1.27,0.2-1.84c0.25-0.71,0.51-1.42,0.77-2.12c0.73-1.99,1.81-3.67,3.95-4.4c0.19-0.11,0.58,0,0.47-0.41
		c-0.01-0.05-0.36-0.01-0.55,0.01C94.22,174.51,94.17,174.59,94.12,174.64z"/>
	<path fill="#1A1A1A" d="M80.22,83.87c-2.21-0.43-4.34-1.23-6.62-1.38c-4.29-0.29-8.47,0.06-12.5,1.68
		c-1.31,0.52-2.53,1.22-3.86,2.03c1.42-5.92,15.01-29.55,18.1-31.61c0.49,0.17,0.52,0.6,0.54,1c0.16,2.87,0.38,5.74,0.43,8.61
		c0.07,4.05,0.39,8.06,1.04,12.05c0.3,1.82,0.9,3.58,1.76,5.23c0.41,0.77,1,1.47,1.09,2.4L80.22,83.87z"/>
	<path fill="#1A1A1A" d="M135.75,22.57c-0.08,0.9-0.67,1.44-1.32,1.96c-0.47,0.38-1.1,0.58-1.46,1.27c1.26,1.53,3.32,1.65,4.93,2.63
		c-1.06,0.85-2.36,0.47-3.47,0.81c-0.12,0.47,0.11,0.68,0.44,0.83c0.48,0.21,0.96,0.42,1.66,0.72c-1.36,0.67-2.42-0.2-3.7-0.13
		c0.48,1.14,1.48,1.45,2.3,1.93c0.89,0.52,1.91,0.69,2.93,0.9c-0.08,0.64-0.58,0.48-0.92,0.5c-0.91,0.05-1.74-0.3-2.56-0.64
		c-0.69-0.29-1.29-0.79-2.06-0.88l0.03-0.02c0.98,1.72,2.7,2.18,4.44,2.54c1.34,0.28,2.71,0.12,4.29,0.02
		c-1.05,1.7-2.52,2.52-4.15,3.18c-1.68,0.68-3.49,0.08-5.29,0.58c1.65,1.2,3.34,0.49,5.12,0.43c-0.61,0.92-1.59,1.05-2.24,1.7
		c1.14,1.21,2.8,2.02,3.08,3.9l0.01-0.01c-1.32-1.09-2.74-1.77-4.48-1.26c-0.17,0.61,0.29,0.76,0.6,0.97
		c1.67,1.15,2.89,2.7,3.89,4.43c0.26,0.46,0.63,0.9,0.5,1.62c-2.1-0.05-4.2-0.01-6.26-0.51c-0.07-0.02-0.14-0.02-0.2-0.04
		c-1.7-0.54-3.14-1.33-3.19-3.41c2-2.3,1.69-4.36,0.15-6.77c0.3-0.5,0.73,0.41,1.05-0.12c0.14-0.57-0.25-1-0.49-1.47
		c-0.18-0.35-0.55-0.66-0.36-1.12c0.25-0.6-0.17-0.84-0.55-1.16c-0.81-0.68-1.02-1.24-0.52-2.05c0.47-0.75,0.63-1.45,0.47-2.31
		c-0.11-0.59-0.02-1.23,0.02-1.84c0.19-2.9-0.18-5.73-1.13-8.48c-0.11-0.31-0.25-0.65,0.02-1.15c1.16-0.49,2.53-0.26,3.85-0.33
		c1.28-0.07,2.58,0.08,4,0.14c-0.12,1.54-1.55,2.08-2.17,3.25c1.14,0.42,1.9-0.3,2.76-0.59L135.75,22.57z"/>
	<path fill="#1A1A1A" d="M137.52,69.95c2.89,5.91,5.51,11.58,10.13,15.98c-0.6,2.47-1.17,4.85-1.74,7.2c-1.1,0.1-1.88-0.37-2.69-0.7
		c-2.76-1.12-5.19-2.77-7.46-4.67c-1.35-1.13-1.93-4.05-1.08-5.45c2.06-3.37,2.98-7.03,2.84-10.96
		C137.51,71.01,137.52,70.67,137.52,69.95z"/>
	<path fill="#1A1A1A" d="M94.27,124.62c-0.06-0.29-0.26-0.49-0.53-0.56c-1.44-0.37-1.8-1.52-1.99-2.77
		c-0.71-4.57,2.04-10.38,8.48-10.82c1.98-0.13,3.97,0.25,5.14,2.23l-0.02-0.06c0.43,2.01,0.53,4.02-0.03,6.03
		c-0.05,0.18,0.02,0.4,0.03,0.6c0,0,0.03-0.05,0.03-0.05c-0.43,0.15-0.46,0.5-0.44,0.88c0,0,0.04-0.05,0.04-0.05
		c-0.6,0.22-0.83,0.68-0.86,1.28l0.04-0.05c-0.51,0.09-0.78,0.52-1.14,0.82c-2.08,1.73-4.41,2.68-7.16,2.43
		c-0.54-0.05-1.09-0.15-1.62,0.06L94.27,124.62z M95.76,119.37c0.52-2.24,1.65-4.22,2.99-6.42
		C96.58,114.19,95.44,116.66,95.76,119.37z"/>
	<path fill="#1A1A1A" d="M164.98,163.29c-1.26-0.31-2.57-0.49-3.76-0.97c-1.63-0.66-3.22-1.4-4.95-1.76
		c-0.26-0.05-0.5-0.21-0.76-0.32c-0.65-0.27-1-0.94-1.53-1.27c-0.44-0.27-1.19-0.11-1.77-0.35c-0.33-0.13-0.66-0.31-0.73-0.66
		c-0.26-1.28-0.61-2.64,0.46-3.68c1.61-1.57,3.24-3.14,5.09-4.4c1.01,0.28,1.61,0.9,1.85,1.82c0.27,1.04,0.09,2.04-0.42,2.98
		c-0.6,1.1-1.5,1.95-2.4,2.8c-0.38,0.36-0.94,0.56-1.08,1.4c2.56-1.21,4.01-3.59,6.19-4.94c2.24,0.96,2.65,2.13,1.41,3.94
		c-0.38,0.56-0.87,1.05-1.35,1.53c-0.43,0.43-0.98,0.75-1.13,1.41l-0.04-0.03c0.95,0.02,1.43-0.7,2.01-1.26
		c0.93-0.89,1.8-1.87,3-2.41c2.16,0.76,2.53,1.72,1.59,3.69c-0.45,0.94-1.5,1.44-1.7,2.52L164.98,163.29z"/>
	<path fill="#1A1A1A" d="M123.6,50.41c0.26,2.37-0.77,4.24-2.9,4.88c-3.45,1.04-6.98,1.34-10.53,0.48
		c-0.33-0.08-0.65-0.21-0.97-0.33c-0.79-0.29-1.56-0.64-1.67-1.6c-0.12-1.1,0.39-1.99,1.17-2.72c0.33-0.31,0.75-0.24,1.16-0.09
		c4.05,1.49,8.05,1.06,12.02-0.32c0.39-0.13,0.78-0.24,1.18-0.34C123.19,50.33,123.33,50.38,123.6,50.41z"/>
	<path fill="#1A1A1A" d="M177.76,149.25c-1.72,0.37-3.38,0.01-5.02-0.37c-4.62-1.08-8.64-3.4-12.46-6.11
		c-2.46-1.75-4.73-3.73-6.67-6.05c-0.26-0.31-0.52-0.63-0.77-0.96c-1.33-1.78-1.33-2.39,0.14-4.14c0.78-0.93,1.43-2.01,2.59-2.54
		c0.62,0.25,0.79,0.77,1.02,1.33c-0.51,1.18-1.93,1.71-2.34,2.97c0.15,0.83,0.73,1.36,1.22,1.9c3.93,4.26,8.32,7.94,13.52,10.56
		c0.24,0.12,0.5,0.23,0.73,0.37C172.21,147.69,174.81,148.86,177.76,149.25z"/>
	<path fill="#1A1A1A" d="M187.26,118.73c1.15,0.74,1.8,1.8,2.52,2.76c3.76,5.03,6.22,10.59,6.8,16.91c0.27,2.94-0.44,5.7-1.48,8.41
		c-0.26,0.69-0.67,1.21-1.51,1.09c-1.83-0.26-3.67-0.45-5.43-1.03c-0.25-0.08-0.51-0.2-0.63-0.67c0.69-0.94,1.73-1.05,2.83-0.86
		c0.94,0.16,1.86,0.45,2.75,0.17c0.49-0.34,0.63-0.8,0.78-1.26c1.17-3.62,1.26-7.24,0.09-10.89c-1.3-4.07-3.25-7.83-5.55-11.41
		C187.82,121.02,187.09,120.11,187.26,118.73z"/>
	<path fill="#1A1A1A" d="M123.3,45.32c0.26,2.81-0.78,4.49-3.11,5.12c-2.86,0.78-5.76,1.15-8.69,0.38c-1.99-0.52-2.46-1.57-1.73-3.8
		c2.27,0,4.57-0.02,6.87,0.01C119,47.07,121.14,46.24,123.3,45.32z"/>
	<path fill="#1A1A1A" d="M145.68,149.67c-1.56-0.34-2.32-1.19-2.16-2.65c0.2-1.94,0.92-3.77,2.01-5.34c0.98-1.41,2.64-2.15,4.2-2.85
		c1.06-0.47,1.9,0.07,2,1.29c0.2,2.25-0.65,4.16-2.18,5.77c-0.71,0.74-1.52,1.37-2.3,2.04c-0.46,0.4-1,0.73-1.18,1.37l0.04-0.04
		c-0.27,0.04-0.43,0.18-0.46,0.46L145.68,149.67z"/>
	<path fill="#1A1A1A" d="M118.31,14.32c0.27,1.07-0.27,1.66-0.74,2.21c-1.38,1.62-2.6,3.34-3.65,5.18c-0.73,1.28-1.99,1.81-3.15,2.5
		c-0.15,0.09-0.44,0.14-0.58,0.06c-0.81-0.46-1.41,0.22-2.18,0.45c-0.7-1.5-0.16-2.8,0.33-4.21c0.47,0.59-0.04,1.37,0.57,1.86
		c0.84-0.83,0.62-2.06,1.14-3c0.57-1.03,1.24-1.94,2.21-2.65c0.88-0.64,1.75-1.3,2.79-1.69C116.08,14.67,117.1,14.31,118.31,14.32z"
		/>
	<path fill="#1A1A1A" d="M89.14,72.73c-0.61-0.76-1.26-0.78-1.83-0.96c1.01-2.02,2.61-2.41,4.21-1.02c2.49,2.15,2.01,6.55-0.88,8.07
		c-1.17,0.61-2.11,0.28-3.3-1.22c0.55-0.48,1.78-0.06,1.78-1.24c-0.32-0.29-0.64-0.02-0.95,0.01c-1.06,0.1-1.79-0.37-2.01-1.28
		c-0.2-0.86,0.31-1.83,1.21-2.11C87.87,72.82,88.43,72.82,89.14,72.73z"/>
	<path fill="#1A1A1A" d="M146.07,149.3c1.54-0.37,2.51-1.59,3.65-2.53c0.84-0.7,1.66-1.42,2.68-1.85c1.21-0.51,1.91-0.17,2.37,1.09
		c0.24,0.66,0.29,1.32,0.14,2.01c-0.41,1.87-1.98,4.19-3.71,5.42c-0.37-0.14-0.45-0.48-0.56-0.8c-0.52-1.44-1.6-2.13-3.08-2.33
		c-0.65-0.09-1.37-0.07-1.88-0.63c0,0-0.02,0.05-0.02,0.05c0.24-0.07,0.42-0.19,0.46-0.46L146.07,149.3z"/>
	<path fill="#1A1A1A" d="M137.89,11.5c-1.36,2.23-2.98,4.26-4.69,6.23c-0.7,0.8-1.49,1.16-2.46,1.28c-0.47,0.06-0.96,0.05-1.44,0.05
		c-3.07,0.03-3.81-0.67-4.32-4.01c0.37-0.32,0.79-0.16,1.17-0.06c3.53,0.92,6.61-0.06,9.45-2.18c0.7-0.52,1.31-1.24,2.27-1.3
		L137.89,11.5z"/>
	<path fill="#1A1A1A" d="M59.28,78.9c0.49-2.3,1.69-4.33,2.65-6.43c3.03-6.61,6.79-12.82,10.8-18.88c0.07-0.11,0.21-0.18,0.31-0.26
		c1.11,0.42,1.19,0.53,0.74,1.3c-0.34,0.59-0.73,1.16-1.12,1.72c-4.65,6.78-8.9,13.81-12.47,21.23c-0.23,0.48-0.43,1.01-0.95,1.29
		L59.28,78.9z"/>
	<path fill="#1A1A1A" d="M198.1,109.66c2.38-0.93,6.97-0.37,9.2,1.08c0.05,0.44-0.25,0.57-0.58,0.68c-1.36,0.45-6.11,1.18-7.91,1.19
		C198.25,111.71,197.98,110.72,198.1,109.66z"/>
	<path fill="#1A1A1A" d="M116.87,40.22c0.02,0.54,0.04,1.09,0.07,1.63c0.05,0.92-0.24,1.74-0.7,2.52c-0.26,0.43-0.6,0.72-1.14,0.74
		c-0.94,0.03-1.88,0.09-2.8,0.14c-0.5-0.71-0.05-1.4-0.18-2.05c-0.13-0.62-0.21-1.23-1.01-1.31l0.03,0.02
		c0.68-0.83,1.6-1.44,2.14-2.42c0.3-0.54,0.85-0.89,1.54-0.85l-0.03-0.05c0.7,0.56,1.41,1.12,2.11,1.68
		C116.9,40.28,116.87,40.22,116.87,40.22z"/>
	<path fill="#1A1A1A" d="M186.87,126.17c0.82,0.18,1.02,0.77,1.07,1.39c0.3,3.39,0.54,6.77,0.05,10.17
		c-0.19,1.29-0.6,2.52-1.03,3.74c-0.24,0.7-0.67,1.35-0.59,2.25c0.34,0.3,0.74,0.65,1.15,1.02c-0.1,0.22-0.13,0.46-0.26,0.57
		c-0.95,0.74-1.35,0.77-2.19,0.27c-0.56-0.33-0.76-0.79-0.49-1.37c0.23-0.49,0.52-0.96,0.81-1.42c1.6-2.52,2.3-5.22,1.65-8.19
		c-0.09-0.4-0.14-0.81-0.13-1.22c0.04-1.98-0.06-3.95-0.36-5.91C186.49,127.06,186.46,126.64,186.87,126.17z"/>
	<path fill="#1A1A1A" d="M121.75,42.82c-0.8,0.82-1.75,1.4-2.86,1.73c-0.42,0.13-0.98,0.07-1.17,0.63l0.04-0.03
		c-0.22-0.15-0.45-0.31-0.73-0.51c0.17-1.47,1.04-3-0.16-4.43l0.03,0.06c-0.2-1.19-0.96-1.68-2.11-1.68l0.03,0.05
		c0.1-0.84,0.66-1.3,1.44-1.74c0.61,0.74,0.64,1.88,1.77,2.29c0.99,0.36,1.86,0.15,2.74-0.07c0.99,0.51,1.22,1.31,1.13,2.26
		c-0.05,0.48-0.13,0.95-0.2,1.42L121.75,42.82z"/>
	<path fill="#1A1A1A" d="M82.09,69.91c-0.85-3.25-0.58-10.2,0.44-12.18c1.87,0.57,3.51,2.52,3.84,4.74
		c-0.77-0.4-1.15-0.99-1.59-1.53c-0.43-0.52-0.9-0.99-1.39-1.53c-0.59,1.4-0.68,6.28-0.18,8.65c0.77-0.01,1.35-0.47,1.98-0.84
		c0.58-0.34,1.19-0.63,1.74-0.92c0.58,0.35,0.54,0.68,0.17,1.03C86.15,68.21,83.93,69.37,82.09,69.91z"/>
	<path fill="#1A1A1A" d="M146.53,64.51c-0.46-0.11-0.92-0.25-1.39-0.31c-1.69-0.22-2.41-1.47-3.31-2.97
		c1.38,0.06,2.51,0.39,3.63,0.1c1.11-0.29,2.21-0.62,3.22-0.9c0.63,0.1,0.91,0.51,1.22,0.85c0.27,0.29,0.47,0.65,0.68,0.96
		c-0.23,1.18-1.54,1.11-2.04,1.91l0.05-0.04c-0.73,0.04-1.54-0.34-2.12,0.44L146.53,64.51z"/>
	<path fill="#1A1A1A" d="M148.64,59.03c-2.61,2.19-5.29,2.09-7.78-0.15c1.11-1.37,2.67-1.97,4.25-2.54c0.5-0.18,0.94,0.09,1.3,0.43
		C147.13,57.48,147.83,58.21,148.64,59.03z"/>
	<path fill="#1A1A1A" d="M104.3,24.14c-0.03-0.28-0.09-0.43-0.05-0.54c1.13-3.31,3.05-6.06,5.78-8.26c0.97-0.78,2.12-0.83,3.56-0.88
		c-1.4,1.36-3.02,2.19-3.78,3.71c-0.47,0.28-0.64-0.34-1.11-0.11c-0.93,1.18-1.45,2.63-1.76,4.18
		C106.62,23.86,106.24,24.11,104.3,24.14z"/>
	<path fill="#1A1A1A" d="M79.53,44.73c0-1.3-0.04-2.66,0.01-4.01c0.04-1.12,0.61-1.95,1.68-2.36c0.77-0.3,1.34,0.11,1.35,0.94
		c0.03,1.89-0.31,3.78,0.05,5.69C81.53,45.55,80.59,45.5,79.53,44.73z"/>
	<path fill="#1A1A1A" d="M164.96,163.32c1.1-0.48,1.9-1.26,2.47-2.32c0.28-0.53,0.69-1,1.07-1.48c0.44-0.56,1.02-0.6,1.66-0.37
		c0.57,0.21,0.87,0.63,0.94,1.22c0.15,1.34-0.28,2.53-1.04,3.78c-1.74,0.24-3.41-0.23-5.07-0.85L164.96,163.32z"/>
	<path fill="#1A1A1A" d="M148.55,64.14c0.79,0.31,1.43-0.39,2.27-0.34c0.67,0.37,1.21,0.94,1.55,1.71c-0.88,1.61-2.3,1.9-3.87,1.82
		c-1.83-0.09-3.47-0.57-4.54-2.48c0.95-0.14,1.91,0.56,2.58-0.34l-0.06,0.03c0.78,0.21,1.52,0.22,2.12-0.44L148.55,64.14z"/>
	<path fill="#1A1A1A" d="M175.03,164.2c-1.32,0.78-2.59,0.57-3.94,0.02c0.33-1.27,0.92-2.34,1.47-3.43c0.34-0.68,0.92-1,1.68-0.91
		c0.6,0.07,1.01,0.62,1.16,1.51C175.56,162.36,175.35,163.28,175.03,164.2z"/>
	<path fill="#1A1A1A" d="M89.13,87.21c0.8-1.13,1.63-1.69,2.58-2.25c1.48,0.64,2.96,1.27,4.51,1.93c-0.58,0.63-1.09,1.18-1.69,1.83
		C92.76,88.52,91.07,87.87,89.13,87.21z"/>
	<path fill="#1A1A1A" d="M114.13,23.4c0.71-2.08,1.61-3.46,3.37-5.2c0.24,1.22-0.37,2.3-0.29,3.43c0.08,1.08,0.02,2.17,0.02,3.36
		C115.86,24.96,114.81,24.52,114.13,23.4z"/>
	<path fill="#1A1A1A" d="M68.32,48.75c0.28-0.42,0.43-0.74,0.66-0.96c0.74-0.7,1.52-1.36,2.34-2.08c1.28,0.4,2.28,1.18,3.39,2.01
		c-1.4,1.31-2.97-0.3-4.44,0.5c0.55,0.63,1.45,1.24,0.38,2.2C69.75,50.21,69.03,49.67,68.32,48.75z"/>
	<path fill="#1A1A1A" d="M179.77,163.87c-1.68,0.63-1.68,0.63-3.53,0.34c-0.05-1.24,0.47-2.36,0.86-3.5
		c0.18-0.52,0.65-0.66,1.17-0.64c0.93,0.04,1.6,0.67,1.77,1.68C180.15,162.44,180.03,163.11,179.77,163.87z"/>
	<path fill="#1A1A1A" d="M98.96,42.63c0.14-0.08,0.3-0.22,0.48-0.26c0.18-0.04,0.43-0.03,0.58,0.06c1.73,1.07,3.58,1.56,5.63,1.3
		c0.47-0.06,0.77,0.22,0.82,0.7c0.04,0.43-0.16,0.78-0.54,1c-0.06,0.03-0.13,0.04-0.19,0.06C103.12,46.15,100.61,45.13,98.96,42.63z
		"/>
	<path fill="#1A1A1A" d="M139.97,114.59c-0.24,1.53,0.17,3.06-0.71,4.38c-1.52,0.15-1.94-0.11-2.1-1.4
		c-0.16-1.28,0.03-2.55,0.35-3.86C138.45,113.67,139.15,114,139.97,114.59z"/>
	<path fill="#1A1A1A" d="M111.11,41.89c0.28,0.76,0.65,1.5,0.39,2.37c-0.17,0.59-0.47,0.97-1.08,1.09
		c-1.01,0.21-2.02,0.27-3.08,0.06c-0.37-0.6-0.2-1.2-0.11-1.87c1.21-0.71,2.56-1.18,3.91-1.63L111.11,41.89z"/>
	<path fill="#1A1A1A" d="M68.1,47.46c-0.59-1.89-0.14-3.35,0.32-4.9c1.17-0.11,2.23-0.77,3.49-0.12c-0.29,1.46-1.39,1.7-2.6,1.87
		C70.2,45.73,69.24,46.44,68.1,47.46z"/>
	<path fill="#1A1A1A" d="M184.05,162.88c-0.93,0.62-1.94,1.05-3.21,0.72c-0.04-0.92,0.01-1.79,0.26-2.63
		c0.23-0.77,0.7-1.12,1.46-1.13c0.75-0.01,1.19,0.33,1.42,1.18C184.14,161.6,184.29,162.2,184.05,162.88z"/>
	<path fill="#1A1A1A" d="M141.03,115.03c0.17-0.04,0.31-0.12,0.42-0.09c0.46,0.11,0.9,0.26,1.42,0.41c0.24,1.15,0.29,2.28,0.27,3.43
		c-0.01,0.59-0.12,1.1-0.84,1.17c-0.74,0.07-1.35-0.37-1.43-1.12c-0.08-0.74-0.05-1.49-0.05-2.24
		C140.82,116.06,140.73,115.5,141.03,115.03z"/>
	<path fill="#1A1A1A" d="M134.85,112c0.63,0.08,1.08,0.48,1.62,0.98c0.07,1.42-0.09,2.88-0.55,4.27c-0.85,0.4-1.43,0.23-1.71-0.58
		c-0.4-1.14,0.14-2.3,0.05-3.45C134.22,112.76,134.32,112.28,134.85,112z"/>
	<path fill="#1A1A1A" d="M196.46,113.78c-0.67,0.42-1.16,0.74-1.7,1.08c-0.79-0.85-1.18-1.77-1.36-2.78
		c-0.27-1.5,0.05-1.85,1.95-2.09C195.91,111.11,195.98,112.42,196.46,113.78z"/>
	<path fill="#1A1A1A" d="M147.31,117.6c-0.11,0.94-0.63,1.65-1.39,2.17c-0.65,0.45-1.38,0.18-1.62-0.58
		c-0.36-1.15-0.29-2.27,0.35-3.33c0.54-0.4,1.15-0.18,1.71-0.3c0.38,0.73-0.19,1.45,0.25,2.09c0.22,0.2,0.48-0.01,0.73-0.01
		L147.31,117.6z"/>
	<path fill="#1A1A1A" d="M130.44,9.41c-0.61,1.84-1.41,3.1-3.01,4.76c-2.09,0.17-2.09,0.17-3.32-0.65c2.41-0.99,4.4-2.49,6.33-4.08
		L130.44,9.41z"/>
	<path fill="#1A1A1A" d="M68.88,38.48c0.63,1.01,0.52,2.12-0.28,2.8c-1,0.84-1.23,1.89-1.48,3.01c-0.04,0.18-0.03,0.41-0.28,0.48
		c-0.4-0.68-0.34-1.45-0.41-2.19C66.19,40.34,66.63,39.65,68.88,38.48z"/>
	<path fill="#1A1A1A" d="M117.72,45.19c1.15,0.36,2.13-0.22,3.16-0.55c0.57-0.18,1.02-0.69,1.7-0.63c0.19,0.61-0.21,0.88-0.64,1.09
		c-1.62,0.81-3.35,1.16-5.14,1.23c-1.43,0.06-2.86,0.01-4.51,0.01c1.16-0.5,2.2-0.46,3.21-0.6c0.76-0.1,1.68,0.21,2.27-0.59
		L117.72,45.19z"/>
	<path fill="#1A1A1A" d="M191.68,159.05c-0.71,0.9-1.52,1.21-2.44,1.61c-0.39-0.86-0.68-1.66-0.69-2.55
		c-0.01-0.62,0.25-1.04,0.84-1.23c0.6-0.19,1.09,0,1.41,0.51C191.12,157.9,191.37,158.45,191.68,159.05z"/>
	<path fill="#1A1A1A" d="M146.46,139.34c0.95-2.45,1.91-4.91,2.87-7.36c0.01-0.04,0.12-0.04,0.18-0.06
		c0.59,3.31-0.46,5.88-3.03,7.39L146.46,139.34z"/>
	<path fill="#1A1A1A" d="M185.23,162.33c-0.33-0.95-0.27-1.83-0.14-2.69c0.12-0.75,0.78-1.12,1.52-0.94
		c0.88,0.21,1.08,0.97,1.31,1.67c0.21,0.62-0.16,1.03-0.66,1.34C186.71,162.06,186.16,162.49,185.23,162.33z"/>
	<path fill="#1A1A1A" d="M122.35,42.81c0.28-1.34,0.33-2.67-0.47-3.88c0.8-0.71,1.55-1.11,2.52-1.23c0.69,1.02,0.49,1.96-0.03,2.89
		c-0.5,0.91-1.26,1.6-2.06,2.24L122.35,42.81z"/>
	<path fill="#1A1A1A" d="M69.92,41.54c0.29-3.14,0.3-3.16,2.09-4.59c0.62,0.37,0.7,0.86,0.5,1.54
		C72.12,39.77,71.04,40.38,69.92,41.54z"/>
	<path fill="#1A1A1A" d="M114.31,33.83c0.65-0.86,0.69-1.88,0.91-2.87c0.29,0,0.52-0.06,0.68,0.01c0.6,0.28,1.42,0.43,1.38,1.31
		c-0.04,0.82-0.77,1.07-1.42,1.3C115.42,33.74,114.98,33.97,114.31,33.83z"/>
	<path fill="#1A1A1A" d="M194.12,157.21c-0.33,0.76-0.85,1.13-1.53,1.33c-0.56-0.46-0.73-1.13-1.02-1.71
		c-0.19-0.39-0.17-0.8,0.22-1.07c0.36-0.25,0.77-0.26,1.13,0C193.41,156.1,193.85,156.52,194.12,157.21z"/>
	<path fill="#1A1A1A" d="M86.9,175.65c-0.81,1.63-1.62,3.26-2.58,5.21c-0.47-1.46,0.36-2.23,0.78-3.04
		c0.43-0.83,0.88-1.71,1.71-2.27L86.9,175.65z"/>
	<path fill="#1A1A1A" d="M193.79,154.7c0.9-0.3,1.42-0.1,1.74,0.54c0.31,0.62-0.03,1.01-0.56,1.4
		C194.34,156.18,193.97,155.59,193.79,154.7z"/>
	<path fill="#1A1A1A" d="M196.6,155.05c-0.51-0.27-0.71-0.7-0.94-1.08c-0.15-0.24-0.12-0.52,0.13-0.7c0.23-0.18,0.51-0.18,0.73,0
		c0.25,0.21,0.56,0.43,0.65,0.7C197.28,154.35,197.09,154.74,196.6,155.05z"/>
	<path fill="#1A1A1A" d="M122.45,26.56c-0.58-0.84-1.67-0.93-1.85-2.07c0.66,0.3,1.23,0.57,1.8,0.83
		C122.59,25.65,122.54,25.98,122.45,26.56z"/>
	<path fill="#1A1A1A" d="M121.74,23.89c-1.32-0.45-1.22-1.48-1.3-2.42C121.15,22.07,122.05,22.57,121.74,23.89z"/>
	<path fill="#1A1A1A" d="M111.02,33.35c-0.05-0.52,0.23-0.88,0.62-1.45c0.33,0.68,0.58,1.19,0.94,1.92
		C111.92,33.72,111.44,33.67,111.02,33.35z"/>
	<path fill="#1A1A1A" d="M147.35,117.63c0.16-0.83-0.23-1.78,0.53-2.51c0.7,0.94,0.7,0.94-0.57,2.48L147.35,117.63z"/>
	<path fill="#1A1A1A" d="M198.06,153.22c-0.66-0.12-0.98-0.5-1.15-1.03c0.22-0.41,0.58-0.42,0.89-0.27
		C198.45,152.22,198.49,152.67,198.06,153.22z"/>
	<path fill="#1A1A1A" d="M121.88,21.32c-0.74-0.85-0.8-1.47-0.79-2.18C122.07,19.59,121.6,20.35,121.88,21.32z"/>
	<path fill="#1A1A1A" d="M197.89,151.1c0.54-0.82,0.98-0.8,1.4-0.5c0.24,0.17,0.17,0.5-0.03,0.7
		C198.72,151.83,198.48,151.15,197.89,151.1z"/>
	<path fill="#1A1A1A" d="M200.23,149.17c-0.03,0.29-0.17,0.52-0.47,0.52c-0.28,0-0.49-0.17-0.51-0.47c-0.01-0.29,0.08-0.54,0.43-0.5
		C199.94,148.74,200.16,148.87,200.23,149.17z"/>
	<path fill="#1A1A1A" d="M59.25,78.87c-0.02,0.77-0.36,1.41-0.84,1.98l0.02,0.05c0.22-0.69,0.37-1.42,0.85-2L59.25,78.87z"/>
	<path fill="#1A1A1A" d="M193.8,86.34c0.52,0.57,0.75,1.27,0.81,2.03l0.04-0.04c-0.15,0.02-0.3,0.04-0.45,0.06
		c0,0,0.05,0.03,0.05,0.03c0.01-0.38-0.01-0.73-0.45-0.88c0,0,0.03,0.05,0.03,0.05c0-0.42,0-0.85,0-1.27L193.8,86.34z"/>
	<path fill="#1A1A1A" d="M200.93,145.72c0.1,0.13,0.23,0.21,0.23,0.3c0.01,0.19-0.04,0.41-0.27,0.46c-0.24,0.04-0.39-0.13-0.32-0.34
		C200.62,145.98,200.8,145.86,200.93,145.72z"/>
	<path fill="#1A1A1A" d="M136.11,108.06c0.04,0.47-0.18,0.72-0.66,0.76c-0.05-0.53,0.43-0.53,0.7-0.73L136.11,108.06z"/>
	<path fill="#1A1A1A" d="M200.65,147.69c-0.08,0.2-0.25,0.27-0.44,0.23c-0.22-0.05-0.29-0.21-0.18-0.41
		c0.11-0.19,0.3-0.24,0.48-0.14C200.59,147.43,200.6,147.59,200.65,147.69z"/>
	<path fill="#1A1A1A" d="M71.43,44.99c-0.06,0-0.13,0.01-0.19,0.01c-0.02,0-0.03-0.03-0.05-0.05c0.06,0,0.15-0.02,0.19,0.02
		C71.59,45.15,71.55,44.75,71.43,44.99z"/>
	<path fill="#1A1A1A" d="M125.43,36.96c0.01,0.18-0.06,0.27-0.22,0.24c-0.05-0.01-0.12-0.1-0.11-0.15c0.02-0.12,0.05-0.3,0.13-0.34
		C125.36,36.65,125.45,36.78,125.43,36.96z"/>
	<path fill="#1A1A1A" d="M201.53,144.35c-0.03,0.11-0.06,0.22-0.09,0.34c-0.09-0.06-0.23-0.11-0.25-0.18
		c-0.02-0.1,0.04-0.25,0.11-0.31C201.42,144.11,201.52,144.19,201.53,144.35z"/>
	<path fill="#1A1A1A" d="M35.83,47.23c-0.24,0.51-0.72,0.68-1.2,0.84l0.03,0.03c0.27-0.48,0.67-0.75,1.21-0.84
		C35.86,47.26,35.83,47.23,35.83,47.23z"/>
	<path fill="#1A1A1A" d="M102.89,32.85c0.22-0.18,0.31-0.38,0.07-0.6c-0.04-0.04-0.15-0.07-0.17-0.05
		C102.63,32.44,102.72,32.65,102.89,32.85L102.89,32.85z"/>
	<path fill="#1A1A1A" d="M127.99,183.04c-0.03,0.41-0.11,0.8-0.46,1.08l-0.01,0.04c0.18-0.36,0.04-0.86,0.5-1.1L127.99,183.04z"/>
	<path fill="#1A1A1A" d="M26.03,0.73c-0.11-0.2-0.27-0.17-0.43-0.07c-0.03,0.02-0.03,0.13-0.01,0.15c0.18,0.17,0.3,0.08,0.41-0.09
		L26.03,0.73z"/>
	<path fill="#1A1A1A" d="M58.06,81.86c-0.17,0.01-0.2,0.1-0.08,0.25c0.03,0.04,0.14,0.07,0.17,0.04c0.14-0.11,0.11-0.2-0.06-0.26
		L58.06,81.86z"/>
	<path fill="#1A1A1A" d="M104.96,19.25c-0.08-0.07-0.16-0.13-0.23-0.2c0.3-0.13,0.16,0.13,0.2,0.23L104.96,19.25z"/>
	<path fill="#1A1A1A" d="M225.43,60.45c0.05,0,0.1,0,0.15,0c-0.04-0.01-0.08-0.02-0.12-0.03L225.43,60.45z"/>
	<path fill="#1A1A1A" d="M136.14,108.09c0.26-0.21,0.55-0.32,0.89-0.32l-0.04-0.04c-0.21,0.35-0.54,0.36-0.89,0.32L136.14,108.09z"
		/>
	<path fill="#1A1A1A" d="M194.61,88.37c0.07,0.07,0.15,0.15,0.22,0.22c-0.04-0.03-0.09-0.05-0.12-0.08
		c-0.03-0.05-0.05-0.12-0.07-0.18L194.61,88.37z"/>
	<path fill="#1A1A1A" d="M137.03,107.77c0.06-0.08,0.13-0.16,0.19-0.23c-0.02,0.04-0.04,0.09-0.07,0.11
		c-0.05,0.04-0.1,0.06-0.16,0.08L137.03,107.77z"/>
	<path fill="#1A1A1A" d="M58.08,81.89c0.12-0.33,0.24-0.66,0.36-0.99c0,0-0.02-0.05-0.02-0.05c-0.12,0.33-0.23,0.67-0.35,1
		C58.06,81.86,58.08,81.89,58.08,81.89z"/>
	<path fill="#1A1A1A" d="M220.96,55.82c-0.31,0.02-0.6-0.03-0.8-0.3l-0.04,0.04c0.33-0.05,0.61,0,0.81,0.3L220.96,55.82z"/>
	<path fill="#1A1A1A" d="M28.87,53.43c-0.05,0.04-0.1,0.07-0.15,0.11c0.06-0.03,0.12-0.05,0.17-0.08
		C28.9,53.46,28.87,53.43,28.87,53.43z"/>
	<path fill="#1A1A1A" d="M34.62,48.07c-0.22,0.28-0.53,0.31-0.85,0.34c0,0,0.04,0.04,0.04,0.04c0.28-0.12,0.56-0.23,0.84-0.35
		L34.62,48.07z"/>
	<path fill="#1A1A1A" d="M128.74,181.38c0.01,0.32-0.04,0.61-0.37,0.76l0.03,0.03c0.04-0.29,0.09-0.58,0.37-0.76L128.74,181.38z"/>
	<path fill="#1A1A1A" d="M128.02,183.07c0.01-0.35,0.08-0.67,0.39-0.9l-0.03-0.03c-0.01,0.35-0.08,0.67-0.39,0.9L128.02,183.07z"/>
	<path fill="#1A1A1A" d="M127.53,184.12c0,0.01-0.01,0.03-0.01,0.04L127.53,184.12z"/>
	<path fill="#1A1A1A" d="M102.88,32.85c0.08,0.26-0.24,0.08,0.03,0.1C103.03,32.95,103.03,32.84,102.88,32.85
		C102.89,32.85,102.88,32.85,102.88,32.85z"/>
	<path fill="#1A1A1A" d="M154.73,34.9c0.01,0.01,0.01,0.02,0.02,0.03L154.73,34.9z"/>
	<polygon fill="#1A1A1A" points="80.2,83.87 80.27,83.97 80.22,83.87 	"/>
	<path fill="#1A1A1A" d="M222.62,57.12c0.03,0.27-0.24,0.08,0.02,0.12C222.79,57.26,222.79,57.14,222.62,57.12L222.62,57.12z"/>
	<path fill="#1A1A1A" d="M222.63,57.12c-0.01-0.04-0.02-0.07-0.03-0.11C222.47,57.1,222.48,57.13,222.63,57.12
		C222.62,57.12,222.63,57.12,222.63,57.12z"/>
	<polygon fill="#1A1A1A" points="221.4,56.36 221.46,56.43 221.44,56.33 	"/>
	<path fill="#1A1A1A" d="M220.92,55.86c0.16,0.17,0.32,0.33,0.48,0.5l0.04-0.03c-0.16-0.17-0.32-0.34-0.48-0.5L220.92,55.86z"/>
	<path fill="#1A1A1A" d="M220.15,55.52c-0.13-0.18-0.25-0.36-0.38-0.54l-0.03,0.04c0.13,0.18,0.25,0.36,0.38,0.54L220.15,55.52z"/>
	<polygon fill="#1A1A1A" points="30,50.13 29.95,50.18 30.04,50.16 	"/>
	<polygon fill="#1A1A1A" points="32.13,49.73 32.04,49.78 32.12,49.73 	"/>
	<path fill="#1A1A1A" d="M30.04,50.16c0.15-0.15,0.31-0.29,0.46-0.44c0,0-0.03-0.03-0.03-0.03c-0.16,0.14-0.32,0.29-0.48,0.43
		C30,50.13,30.04,50.16,30.04,50.16z"/>
	<polygon fill="#1A1A1A" points="32.12,49.73 32.19,49.66 32.13,49.73 	"/>
	<path fill="#1A1A1A" d="M33.34,48.93l0.03,0.04L33.34,48.93z"/>
	<path fill="#1A1A1A" d="M93.02,124.59c-0.01-0.04-0.02-0.09-0.03-0.13C92.85,124.56,92.86,124.6,93.02,124.59
		C93.03,124.59,93.02,124.59,93.02,124.59z"/>
	<path fill="#1A1A1A" d="M33.77,48.41c-0.15,0.17-0.29,0.35-0.44,0.52c0,0,0.03,0.04,0.03,0.04c0.15-0.17,0.29-0.35,0.44-0.52
		C33.81,48.45,33.77,48.41,33.77,48.41z"/>
	<polygon fill="#1A1A1A" points="137.81,44.78 137.86,44.87 137.83,44.78 	"/>
	<polygon fill="#1A1A1A" points="146.48,139.31 146.41,139.39 146.46,139.34 	"/>
	<polygon fill="#1A1A1A" points="72.45,44 72.32,44.08 72.46,44.02 	"/>
	<polygon fill="#1A1A1A" points="72.46,44.02 72.56,43.96 72.45,44 	"/>
	<polygon fill="#1A1A1A" points="130.44,9.43 130.47,9.33 130.44,9.41 	"/>
	<path fill="#1A1A1A" d="M121.71,42.81c0.21,0,0.43,0,0.64,0c0,0-0.03,0.01-0.03,0.01c-0.19-0.3-0.38-0.37-0.57,0
		C121.75,42.82,121.71,42.81,121.71,42.81z"/>
	<polygon fill="#1A1A1A" points="137.88,11.52 137.99,11.46 137.89,11.5 	"/>
	<path fill="#1A1A1A" d="M88.51,155.45c-0.01-0.04-0.02-0.08-0.03-0.12C88.34,155.41,88.35,155.45,88.51,155.45
		C88.5,155.45,88.51,155.45,88.51,155.45z"/>
	<polygon fill="#1A1A1A" points="104.93,19.29 105.01,19.32 104.96,19.25 	"/>
	<path fill="#1A1A1A" d="M88.13,174.36c0.26-0.1,0.09,0.23,0.1-0.04c0-0.13-0.1-0.13-0.13,0.01L88.13,174.36z"/>
	<path fill="#1A1A1A" d="M87.75,174.8c0.13-0.15,0.26-0.29,0.38-0.44l-0.03-0.03c-0.13,0.15-0.26,0.29-0.39,0.44L87.75,174.8z"/>
	<path fill="#1A1A1A" d="M87.71,174.76c-0.14,0.15-0.27,0.29-0.41,0.44c0,0,0.04,0.04,0.04,0.04c0.14-0.15,0.27-0.3,0.41-0.44
		C87.75,174.8,87.71,174.76,87.71,174.76z"/>
	<path fill="#1A1A1A" d="M87.3,175.2c-0.13,0.15-0.27,0.3-0.4,0.45l-0.1-0.09c0.11-0.22,0.3-0.31,0.54-0.32L87.3,175.2z"/>
	<polygon fill="#1A1A1A" points="135.77,22.58 135.8,22.51 135.75,22.57 	"/>
	<polygon fill="#1A1A1A" points="129.27,180.94 129.33,180.85 129.24,180.91 	"/>
	<path fill="#1A1A1A" d="M129.24,180.91c-0.17,0.16-0.33,0.32-0.5,0.48c0,0,0.03,0.03,0.03,0.03c0.16-0.16,0.33-0.32,0.49-0.48
		C129.27,180.94,129.24,180.91,129.24,180.91z"/>
	<path fill="#1A1A1A" d="M95.92,30.03L95.9,30L95.92,30.03z"/>
	<path fill="#1A1A1A" d="M129.59,76.93c-0.03,2.46-2.19,4.53-4.73,4.34c-3.13-0.23-4.68-2.01-4.61-4.88c0.06-2.57,2-4.39,4.68-4.38
		C127.59,72.02,129.63,74.17,129.59,76.93z M126.56,76.66c-0.92,1.87-1.09,1.92-3.68,1.07c0.55,1.29,1.63,1.85,2.77,1.42
		c1.25-0.47,1.95-2.11,1.42-3.42c-0.23-0.58-0.65-1.06-1.24-1.3c-0.65-0.27-1.3-0.25-1.95,0.22
		C125.72,75.14,125.72,75.14,126.56,76.66z"/>
</g>
</svg>
