<?xml version="1.0" encoding="utf-8"?>
<!-- Generator: Adobe Illustrator 24.0.2, SVG Export Plug-In . SVG Version: 6.00 Build 0)  -->
<svg version="1.1" id="Layer_1" xmlns="http://www.w3.org/2000/svg" xmlns:xlink="http://www.w3.org/1999/xlink" x="0px" y="0px"
	 viewBox="0 0 155.14 327.71" style="enable-background:new 0 0 155.14 327.71;" xml:space="preserve">
<style type="text/css">
	.st0{fill:#1A1A1A;}
</style>
<g>
	<path d="M67.58,312.94c1.1-0.08,2.19-0.24,3.28-0.21c1.77,0.04,3.55,0.14,4.94,1.49c0.31,0.3,0.73,0.56,0.82,0.98
		c0.17,0.75,0.76,1.03,1.3,1.4c0.85,0.58,1.48,1.36,1.96,2.25c0.16,0.3,0.28,0.61,0.02,0.98c-0.64,0.17-0.88-0.67-1.48-0.65
		c-0.27,0.3-0.1,0.63-0.02,0.93c0.09,0.32,0.28,0.61,0.4,0.92c0.42,1.17,0.11,1.93-1.01,2.45c-0.88,0.41-1.81,0.61-2.76,0.75
		c-0.99,0.15-1.97,0.34-2.93,0.65c-2.19,0.7-4.44,1.02-6.76,1.19c-2.94,0.22-5.94,0.16-8.82,0.99c-0.22,0.06-0.54-0.02-0.62,0.25
		c-0.14,0.52-0.55,0.37-0.81,0.29c-1.87-0.6-3.81-1.01-5.55-1.95c-1.1-0.59-2.15-1.25-2.82-2.38c-0.3-0.52-0.46-1.02-0.45-1.63
		c0.02-1.33,0.19-2.67,0.01-4.01c-0.03-0.24,0.01-0.5-0.07-0.71c-0.55-1.43-1.2-2.82-2.04-4.11c-0.07-0.11-0.22-0.17-0.34-0.24
		c-0.53-0.28-0.8-0.71-0.94-1.3c-0.28-1.19-0.97-2.1-1.91-2.94c-1.06-0.95-2.17-1.65-3.52-2.09c-0.98-0.32-1.63-1.15-2.24-1.96
		c-0.23-0.31-0.45-0.63-0.61-0.98c-0.67-1.52-1.54-2.96-1.97-4.59c-0.17-0.64-0.17-1.24,0.02-1.83c0.35-1.04,0.68-2.09,1.24-3.05
		c0.54-0.94,1.15-1.85,1.19-3.02c0.02-0.49,0.45-0.82,0.79-1.16c0.36-0.37,0.81-0.69,0.73-1.32c-0.03-0.26,0.17-0.44,0.34-0.61
		c0.65-0.64,1.26-1.32,1.95-1.91c2.5-2.16,4.19-4.82,5.12-7.98c0.2-0.68,0.29-1.41,0.87-1.94c0.23-0.21,0.21-0.52,0.21-0.81
		c0.03-1.39,0.32-2.75,0.5-4.13c0.04-0.33,0.12-0.68,0.06-1c-0.55-2.85-0.45-5.72-0.46-8.59c0-0.86-0.02-1.73,0-2.59
		c0.09-2.78,0.11-5.56,0.31-8.33c0.27-3.67,0.62-7.34,1.39-10.95c0.14-0.65,0.22-1.32,0.51-1.94c0.06-0.13,0.13-0.28,0.12-0.41
		c-0.2-1.61,0.8-2.76,1.52-4.03c-0.14-0.12-0.28-0.23-0.45-0.37c0.39-0.74,0.97-1.28,1.63-1.76c1.86-1.35,3.65-2.79,5.41-4.27
		c0.42-0.35,0.62-0.69,0.7-1.28c0.09-0.68,0.49-1.34,0.83-1.96c0.45-0.84,0.78-1.74,1.18-2.6c1.05-2.26,1.49-4.63,1.54-7.09
		c0.04-1.73,0.36-3.42,0.6-5.13c0.42-2.98,0.91-5.96,1.59-8.9c0.16-0.69,0.47-1.36,0.46-2.11c-0.89-1.78-1.86-3.54-3.06-5.17
		c-0.92-1.25-1.47-2.68-2.01-4.12c-0.29-0.78-0.31-1.71-1.12-2.25c-0.07-0.05-0.13-0.17-0.13-0.25c0-0.98-0.66-1.36-1.43-1.74
		c-0.72-0.36-1.37-0.88-2.01-1.38c-0.59-0.46-1.25-0.79-1.82-1.32c-0.73-0.68-1.17-1.49-1.65-2.3c-0.19-0.33-0.32-0.69-0.52-1.12
		c-0.47,0.54-1.17,0.15-1.67,0.58c-0.87,0.76-1.71,1.54-2.44,2.43c-1.88,2.29-3.13,4.93-4.15,7.68c-0.38,1.02-0.66,2.12-0.75,3.2
		c-0.08,1.03,0.14,2.08,0.23,3.17c-0.19,0.3-0.58,0.1-0.84,0.16c-0.03,0.17-0.1,0.28-0.06,0.34c0.59,1.18,0.05,2.35-0.09,3.5
		c-0.05,0.44-0.08,0.84,0.03,1.24c0.72,2.53,0.87,5.08,0.37,7.67c-0.15,0.8-0.27,1.61-0.28,2.42c-0.04,1.57-0.14,3.14,0.68,4.62
		c0.45,0.82,0.57,1.83,0.92,2.71c0.64,1.6,1.34,3.18,2.8,4.38c-0.58,0.47-0.86,1.08-1.48,1.39c-0.56,0.28-1.24,0.18-1.76,0.59
		c-0.08,0.39,0.23,0.6,0.39,0.87c1.07,1.79,1.74,3.74,2.03,5.79c0.28,1.93-0.22,3.71-1.21,5.36c-0.49,0.82-0.99,1.64-1.53,2.43
		c-0.42,0.6-0.68,1.25-0.83,1.96c-0.47,2.09-1.34,3.98-2.65,5.68c-0.38,0.5-0.78,0.97-1.24,1.4c-1.09,1.01-1.97,2.21-2.94,3.32
		c-0.39,0.45-0.53,1.01-0.5,1.61c0.02,0.33,0.17,0.67-0.14,1c-0.6,0.15-1.02-0.22-1.48-0.58c-2.64-2.07-4.96-4.5-7.56-6.63
		c-1.75-1.43-3.55-2.77-5.47-3.95c-1.27-0.78-2.49-1.62-3.72-2.45c-2.04-1.38-3.32-3.43-4.59-5.46c-2.17-3.46-3.03-7.31-3.24-11.33
		c-0.24-4.62-1.17-9.11-2.61-13.49c-0.37-1.13-0.76-2.26-1.13-3.42c-0.22,0.14-0.41,0.26-0.68,0.43c-0.95-1.34-0.58-2.79-0.43-4.15
		c-0.19-0.36-0.47-0.01-0.63-0.16c-0.25-0.2-0.21-0.45-0.16-0.67c0.25-1.17,0.53-2.33,1.2-3.36c0.37-0.56,0.65-1.17,0.94-1.78
		c0.54-1.13,0.9-2.28,0.97-3.56c0.1-1.76,0.47-3.51,0.69-5.26c0.19-1.55,0.3-3.12,0.76-4.61c-0.43-0.24-0.65,0.28-1.06,0.09
		c-0.49-0.79,0.41-1.32,0.49-2c-0.3-0.31-0.78,0.37-1-0.25c0.01-0.05,0.01-0.2,0.06-0.22c3.28-1.35,6-3.54,8.69-5.78
		c1.65-1.38,3.32-2.75,5.04-4.05c2.56-1.94,4.97-4.07,7.3-6.27c0.73-0.69,1.41-1.47,2.23-2.03c1.44-0.98,2.33-2.35,3.14-3.83
		c-0.45-0.24-0.92,0.34-1.45-0.08c-0.09-0.53,0.26-0.91,0.69-1.2c0.56-0.38,1.17-0.65,1.83-0.83c2.82-0.75,5.63-1.56,8.51-2.08
		c0.33-0.06,0.67-0.09,0.95-0.48c-0.32-0.83-0.64-1.72-1.02-2.59c-0.79-1.85-1.63-3.68-2.42-5.53c-0.23-0.54-0.56-1-0.94-1.44
		c-0.7-0.8-1.27-1.69-1.76-2.62c-1.27-2.41-1.48-4.89-0.3-7.44c0.35-0.75,0.72-1.51,0.52-2.47c-0.11-0.52,0.12-1.21,0.4-1.79
		c0.72-1.46,1.12-3.03,1.56-4.6c0.84-2.99,1.84-5.95,2.84-8.89c0.71-2.08,1.48-4.15,2.46-6.13c0.86-1.73,1.9-3.33,3.07-4.85
		c0.52-0.68,1.06-1.36,1.57-2.05c0.34-0.47,0.58-0.99,0.63-1.58c0.08-1,0.2-2,0.23-3c0.05-1.84,0.38-3.64,0.98-5.35
		c0.61-1.73,1.76-3.19,3.32-4.23c1.08-0.71,2.19-1.38,3.3-2.04c3.14-1.87,6.14-3.92,8.91-6.29c0.77-0.66,1.33-1.5,2.06-2.2
		c0.37-0.36,0.42-0.94,0.44-1.48c0.04-1.11-0.17-2.19-0.33-3.28c-0.21-1.37-0.52-2.73-0.77-4.09c-0.14-0.78-0.08-1.66-1.09-1.96
		c-0.45-1.33-1.75-1.86-2.66-2.75c-1.01-1-1.62-2.1-1.69-3.51c-0.15-2.97-0.19-5.95,0.01-8.92c0.16-2.4,0.76-4.72,1.55-6.99
		c0.25-0.73,0.63-1.4,1.06-2.04c0.35-0.51,0.68-1.04,1.01-1.54c-0.38-0.73-0.7-1.42-0.85-2.19c-0.11-0.57-0.11-1.1-0.05-1.68
		c0.25-2.12,1.09-4.07,1.67-6.08c0.34-1.16,1.15-2.09,1.89-3.04c2.31-2.94,4.78-5.74,7.42-8.39c1.05-1.06,1.72-2.22,2.18-3.62
		c0.88-2.68,1.97-5.3,3.22-7.84c0.68-1.38,1.37-2.74,2.03-4.12c1.01-2.11,2.59-3.74,4.1-5.45c0.3-0.03,0.59-0.04,0.87-0.08
		c0.6-0.08,1,0.16,1.3,0.68c0.32,0.53,0.68,1.04,1.04,1.55c0.51,0.71,0.46,1.56,0.51,2.34c0.19,3.25,0.16,6.51,0.05,9.77
		c-0.05,1.39,0.03,2.78,0.08,4.17c0.03,0.64-0.08,1.25-0.41,1.78c-0.61,0.97-0.72,2.2-1.7,2.94c0.69,2.09,0.25,4.02-0.53,5.9
		c0.52,0.15,0.64-0.3,0.9-0.49c0.31-0.23,0.61-0.47,0.88-0.73c3.28-3.16,6.72-6.14,10.16-9.12c2.17-1.88,4.4-3.69,6.6-5.54
		c0.29-0.25,0.57-0.52,0.84-0.78c1.65-1.6,3.25-3.26,4.97-4.78c1.72-1.53,3.64-2.8,5.89-3.46c1.05-0.31,1.82-0.01,2.19,1
		c0.25,0.67,0.4,1.37,0.46,2.1c0.19,2.64-0.32,5.16-1.33,7.57c-0.71,1.69-1.16,3.45-1.6,5.21c-0.2,0.79-0.51,1.51-0.82,2.26
		c-1.27,3-2.9,5.84-4.1,8.86c-0.88,2.22-1.7,4.46-2.5,6.7c-0.29,0.82-1.03,1.49-1.58,2.21c-0.23,0.3-0.52,0.56-0.84,0.91
		c0.42,1.54-0.14,2.71-1.49,3.6c-0.28,0.18-0.35,0.64-0.85,0.59c-0.58-0.06-0.84,0.37-1.04,0.83c-0.13,0.31-0.24,0.63-0.33,0.95
		c-0.34,1.24-1.13,2.2-2,3.1c-0.59,0.61-1.34,0.7-2.11,0.29c-0.24-0.13-0.46-0.32-0.72-0.5c-0.41,2.73-1.95,4.85-3.44,7.08
		c0.64,1.52,1.43,2.96,2.81,4.02c0.41,0.32,0.72,0.76,1.05,1.17c0.39,0.49,0.82,0.9,1.39,1.21c1.3,0.69,1.66,2.06,1.01,3.44
		c-0.51,1.06-1.38,1.73-2.44,2.11c-0.62,0.22-1.08,0.55-1.48,1.06c-0.72,0.94-1.77,1.26-2.89,1.41c-0.45,0.06-0.81-0.11-1.21-0.33
		c-1.19-0.65-2.47-1.04-3.85-0.88c-1.68,0.19-1.86,0.83-1.77,2.18c0.15,2.07,1.01,3.74,2.97,4.75c1.28,0.66,2.5,1.42,3.72,2.19
		c1.13,0.72,2.33,1.02,3.68,0.96c1.58-0.07,3.16-0.06,4.72,0.28c1.46,0.31,2.85,0.83,4.25,1.31c0.71,0.24,1.31,0.78,1.96,1.19
		c0.08,0.05,0.19,0.14,0.19,0.21c-0.1,0.88,0.72,1.12,1.12,1.66c0.17,0.23,0.47,0.56,0.4,0.72c-0.29,0.69,0.22,1.09,0.49,1.56
		c0.89,1.58,1.8,3.15,2.72,4.76c-0.19,0.1-0.35,0.18-0.51,0.26c-0.08,0.07-0.06,0.14,0,0.25c0.3,0.48,0.64,0.9,0.7,1.54
		c0.26,2.8,1.27,5.37,2.51,7.86c0.81,1.63,1.66,3.24,2.56,4.82c1.19,2.09,2.08,4.32,3.12,6.47c0.23,0.47,0.4,0.98,0.68,1.43
		c0.67,1.08,0.83,2.31,1.11,3.51c0.13,0.56,0.14,1.17,0.39,1.67c0.44,0.9,0.43,1.85,0.52,2.8c0.16,1.66,0.34,3.33,0.48,4.99
		c0.06,0.71,0.31,1.22,0.91,1.68c1.4,1.08,2.77,2.21,4.06,3.43c2.64,2.49,4.84,5.34,6.55,8.52c1.06,1.97,2.45,3.65,3.85,5.35
		c0.34,0.4,0.73,0.78,0.99,1.23c0.92,1.58,2.41,2.58,3.72,3.76c0.1,0.09,0.23,0.2,0.36,0.23c0.77,0.13,1.31,0.64,1.73,1.2
		c0.88,1.16,2.04,1.99,3.16,2.87c1.25,0.97,2.11,2.23,2.62,3.7c1.12,3.27,1.86,6.63,2.39,10.05c0.31,2.02,0.45,4.05,0.45,6.09
		c0,0.91-0.1,1.81-0.2,2.72c-0.06,0.55-0.48,0.94-0.84,1.31c-0.47,0.49-0.87,1.01-1.18,1.61c-0.15,0.3-0.32,0.6-0.55,0.83
		c-1.47,1.45-2.73,3.07-3.99,4.7c-0.11,0.15-0.27,0.27-0.43,0.37c-0.41,0.25-0.88,0.38-1.21,0.76c-0.31,0.36-0.64,0.7-0.92,1
		c-0.24,0.14-0.43,0.01-0.61,0.03c-1.54,0.14-2.91-0.28-4.17-1.15c-0.3-0.21-0.64-0.31-0.89-0.65c-0.31-0.42-0.81-0.63-1.34-0.73
		c-1.3-0.24-1.79-0.84-1.78-2.12c0-0.33-0.06-0.7,0.15-0.98c0.18-0.24,0.4-0.2,0.59,0.16c0.38-0.28,0.51-0.79,0.93-0.97
		c0.31-0.08,0.41,0.18,0.64,0.37c0.57-0.39,1.27-0.58,1.94-0.86c0.03-0.22,0.11-0.42,0.07-0.59c-0.33-1.24-0.07-2.47,0.04-3.7
		c0.06-0.66-0.02-1.34,0.05-2c0.11-1.11,0.62-2.11,1.08-3.11c0.24-0.52,0.51-1.03,0.76-1.55c0.25-0.52,0.48-1.06,0.46-1.65
		c-0.06-1.49,0.18-2.96,0.29-4.42c-0.33-0.57-0.88-0.77-1.41-0.98c-1.2-0.5-2.33-1.12-3.32-1.98c-0.47-0.41-1.04-0.68-1.58-0.99
		c-2.04-1.15-4.23-1.98-6.39-2.87c-2.61-1.07-5.12-2.36-7.63-3.64c-1.92-0.98-3.8-2.03-5.47-3.43c-0.26-0.22-0.51-0.42-0.71-0.7
		c-1.09-1.46-2.17-2.94-2.92-4.61c-0.48-1.08-1.2-1.95-2.08-2.71c-1.5-1.3-2.79-2.77-3.48-4.66c-0.39-1.08-0.67-2.2-1-3.3
		c-0.22-0.73-0.42-1.47-0.67-2.2c-0.12-0.35-0.24-0.73-0.64-0.91c-0.14,0.79-0.04,1.71,0.32,2.97c0.13,0.46,0.24,0.93,0.38,1.38
		c0.15,0.47,0.21,0.91-0.08,1.37c-0.12,0.19-0.17,0.45-0.18,0.68c-0.06,1.92-0.53,3.79-0.77,5.68c-0.15,1.18-0.26,2.35-0.69,3.5
		c-0.52,1.41-0.29,2.92-0.13,4.39c0.07,0.61,0.51,1.11,0.65,1.74c0.32,1.47,0.25,2.96,0.35,4.43c0.02,0.24-0.01,0.48,0,0.72
		c0.11,2.36-0.09,4.69-0.61,6.99c-0.56,2.49-0.18,4.95,0.06,7.42c0.19,1.9,0.42,3.8,0.53,5.71c0.14,2.47,0.13,4.93,0.74,7.37
		c0.53,2.11-0.24,4.03-1.21,5.91c-2.19,4.23-5.02,8.05-7.62,12.01c-0.26,0.4-0.52,0.8-0.8,1.24c0.62,1.51,1.23,3.02,1.85,4.52
		c0.45,1.08,0.71,2.18,0.63,3.36c-0.02,0.24,0.05,0.54-0.07,0.71c-0.75,1.03-0.66,2.28-0.95,3.43c-0.31,1.21-0.24,2.48,0.13,3.7
		c1.06,3.49,1.66,7.08,2.46,10.63c0.45,2,0.69,4.05,1.02,6.08c0.58,3.64,1.04,7.29,1.56,10.94c0.51,3.6,1.43,7.13,2.3,10.66
		c1,4.05,2.07,8.07,3.43,12.01c0.17,0.5,0.31,1.01,0.66,1.43c0.31,0.37,0.5,0.81,0.55,1.28c0.44,0.12,0.8-0.08,1.11-0.25
		c1.59-0.88,3.23-1.68,4.64-2.86c0.66-0.55,1.38-0.9,2.27-1.05c1.06-0.17,1.94-0.83,2.69-1.58c1.08-1.06,2.31-1.86,3.72-2.4
		c0.58-0.22,1.11-0.56,1.59-0.96c0.95-0.79,2.07-1.18,3.28-1.35c0.82-0.12,1.1,0.05,1.52,0.89c1.57-0.12,3.18-0.35,4.11,1.38
		c-0.17,0.37-0.54,0.2-0.78,0.41c-0.04,0.54,0.11,0.88,0.77,0.89c0.66,0.01,1.19,0.33,1.57,0.88c0.22,0.31,0.12,0.72-0.23,0.83
		c-0.4,0.12-0.83,0.17-1.24,0.24c-0.12,0.42,0.2,0.64,0.36,0.92c0.63,1.13,0.65,2.28,0.18,3.46c-0.47,1.19-1.27,2.12-2.26,2.92
		c-0.4,0.33-0.87,0.34-1.34,0.41c-0.78,0.12-1.31,0.44-1.73,1.25c-1.07,2.05-2.42,3.92-4.59,4.99c-1.13,0.55-1.58,1.66-2.1,2.66
		c-0.74,1.42-1.9,2.51-2.76,3.82c-1.58,0.9-2.13,2.61-3.11,3.98c-0.5,0.7-1,1.4-1.6,2.02c-0.79,0.83-1.59,1.66-2.33,2.54
		c-1.48,1.76-3.44,2.56-5.65,2.77c-1.54,0.15-3.05-0.05-4.47-0.77c-1.64-0.84-2.57-2.25-3.2-3.9c-0.53-1.39-0.78-2.86-1.14-4.3
		c-0.48-1.95-0.39-3.89-0.12-5.84c0.01-0.09,0.02-0.19,0.02-0.29c-0.05-3.91-0.34-7.77-2.7-11.12c-1.35-1.92-2.72-3.83-4.16-5.69
		c-3.52-4.56-6.71-9.33-9.59-14.32c-0.74-1.28-1.69-2.45-2.42-3.74c-1.19-2.08-2.39-4.17-2.65-6.62c-0.01-0.13-0.06-0.3-0.16-0.39
		c-0.54-0.54-0.51-1.2-0.42-1.88c0.03-0.23,0.07-0.57-0.06-0.7c-0.3-0.3-0.66-0.5-0.6-1.02c0.05-0.38,0.01-0.76,0.01-1.14
		c-0.17-0.1-0.25,0.01-0.33,0.12c-2.6,3.75-4.98,7.63-7.28,11.56c-2.44,4.18-4.52,8.55-6.48,12.98c-2.08,4.69-3.79,9.52-5.29,14.42
		c-0.34,1.1-0.6,2.22-0.86,3.34c-0.09,0.37-0.1,0.76-0.11,1.14c-0.01,1.87-0.06,3.74,0.19,5.59c0.04,0.28,0.1,0.56,0.17,0.84
		c0.43,1.72,0.83,3.44,1.05,5.2c0.1,0.81,0.34,1.57,0.84,2.26c0.72,1.02,1.45,2.04,2.01,3.14c0.78,1.53,1.43,3.14,2.1,4.72
		c0.56,1.32,0.99,2.7,1.61,4C65.98,310.18,66.8,311.53,67.58,312.94z M54.16,146.69c0.35-0.04,0.49-0.32,0.68-0.52
		c0.67-0.75,1.27-1.57,2.01-2.24c0.8-0.72,0.99-1.5,0.83-2.53c-0.18-1.13-0.34-2.28-0.29-3.41c0.06-1.28,0.35-2.55,0.6-3.82
		c0.47-2.41,0.38-4.73-0.96-6.88c-1.44,0.44-2.13,1.58-2.76,2.78c-0.18,0.34-0.37,0.67-0.56,1c-0.62,1.13-1.23,2.27-1.87,3.39
		c-0.38,0.67-0.56,1.31-0.04,1.99c0.14,0.19,0.29,0.42,0.2,0.66c-0.23,0.61,0.11,1.11,0.26,1.65c0.33,1.19,0.68,2.39,0.97,3.59
		C53.57,143.8,53.85,145.25,54.16,146.69z"/>
	<path class="st0" d="M1.18,205.23c0.02-0.91,0.01-1.71,0.12-2.53c0.1-0.8,0.37-1.55,0.62-2.28c-0.46-0.22-0.66,0.25-1.08,0.12
		c0.24-0.83,0.64-1.59,1.08-2.31c1.42-2.32,1.89-4.89,2.13-7.53c0.17-1.81,0.33-3.62,0.55-5.42c0.14-1.1,0.5-2.14,1.03-3.11
		c-0.4-0.39-0.83,0.03-1.24-0.09c0.09-1.01,0.79-1.65,1.53-2.09c3.67-2.22,6.73-5.22,10.15-7.76c3.4-2.52,6.5-5.36,9.59-8.24
		c1.61-1.5,3.27-2.95,5.19-4.07c0.2-0.12,0.44-0.2,0.57-0.63c-0.69,0.32-1.28,0.59-2.09,0.97c0.59-1.17,1.35-1.82,2.46-2.32
		c-0.98-0.22-1.7,0.31-2.57,0.09c0.32-0.48,0.81-0.64,1.26-0.77c2.35-0.67,4.72-1.25,7.09-1.82c2.89-0.69,5.84-0.97,8.78-1.3
		c2.28-0.25,4.58-0.28,6.88-0.42c1.38-0.09,2.77-0.17,4.15-0.31c1.51-0.15,2.87-0.77,4.14-1.54c0.92-0.56,1.79-0.58,2.73-0.21
		c0.49,0.19,0.98,0.39,1.46,0.61c3.19,1.47,4.22,4.19,3.34,7.49c-0.5,1.86-1.51,3.39-2.84,4.74c-0.05,0.05-0.16,0.05-0.32,0.09
		c-0.38-0.83-0.12-1.91-1.04-2.7c-0.16,1.16,0.05,2.29-0.53,3.34c-0.16-0.68,0.06-1.32-0.27-2.09c-0.14,0.56-0.32,0.98-0.35,1.4
		c-0.16,2.18-1.57,3.53-3.15,4.75c-0.4,0.31-0.82,0.66-1.41,0.76c-0.25-0.87,0.04-1.89-0.88-2.53c-0.37,1.11-0.37,2.36-1.36,3.34
		c-0.2-0.39-0.16-0.74-0.11-1.08c0.05-0.32,0.25-0.63,0.08-1.01c-0.5,0.23-0.57,0.75-0.66,1.15c-0.3,1.24-1.03,2.17-1.98,2.92
		c-1.68,1.34-3.41,2.62-5.16,3.95c-0.32-0.7,0.5-1.21,0.1-1.9c-0.37,0.35-0.62,0.77-0.86,1.21c-0.46,0.85-1.05,1.63-1.79,2.23
		c-1.67,1.35-2.85,3.1-4.06,4.82c-0.32,0.46-0.57,0.98-1.02,1.34c-0.19,1.84-1.48,3.32-1.7,5.16c-0.04,0.33-0.15,0.65-0.24,0.98
		c-0.3,1.06-0.56,2.13-0.32,3.19c-0.25,0.28-0.48-0.06-0.74,0.14c0.06,1.09,0.1,2.23,0.2,3.36c0.02,0.3-0.05,0.56-0.07,0.84
		c-0.08,0.96-0.05,1.89,0.22,2.84c0.61,2.14,0.81,4.32,0.31,6.52c-0.46,2.04-0.25,4.11-0.27,6.16c0,0.28,0.06,0.58,0.17,0.84
		c0.83,1.93,1.41,3.97,2.46,5.81c0.28,0.5,0.64,0.95,0.98,1.45c-0.42,0.43-0.88-0.29-1.28,0.01c0.18,0.57,0.88,0.32,1.16,0.86
		c-0.55,0.87-1.64,0.26-2.19,0.81c-0.68-0.12-0.81-0.79-1.33-0.95c-0.12,0.05-0.16,0.13-0.08,0.23c0.34,0.4,0.82,0.73,1.01,1.19
		c0.69,1.73,1.8,3.26,2.25,5.1c0.57,2.33,0.55,4.55-0.73,6.65c-0.57,0.94-1.16,1.88-1.75,2.81c-0.29,0.45-0.53,0.9-0.62,1.44
		c-0.47,2.68-1.79,4.94-3.63,6.89c-0.68,0.72-1.19,1.6-2.18,2.23c0.29-1.77,0.72-3.43-0.14-5.05c0.17,1.2,0.07,2.39-0.17,3.56
		c-0.24,1.16-0.58,2.3-1.16,3.47c-0.36-0.43-0.25-1.01-0.73-1.3c-0.17,1.12,0.52,2.07,0.43,3.27c-0.97-0.7-1.81-1.36-2.61-2.09
		c-1.94-1.78-3.84-3.61-5.84-5.33c-1.89-1.62-3.98-2.99-6.13-4.24c-1.67-0.97-3.14-2.21-4.57-3.47c-0.95-0.83-1.59-2.03-2.34-3.08
		c-2.31-3.23-3.03-6.98-3.53-10.8c-0.28-2.18-0.35-4.38-0.77-6.55c-0.58-3.01-1.19-6-2.28-8.88c-0.37-0.98-0.6-2.01-0.92-3.01
		C2.15,205.11,2.07,205.11,1.18,205.23z"/>
</g>
</svg>
