<?xml version="1.0" encoding="utf-8"?>
<!-- Generator: Adobe Illustrator 24.0.2, SVG Export Plug-In . SVG Version: 6.00 Build 0)  -->
<svg version="1.1" id="Layer_1" xmlns="http://www.w3.org/2000/svg" xmlns:xlink="http://www.w3.org/1999/xlink" x="0px" y="0px"
	 viewBox="0 0 170.32 326.01" style="enable-background:new 0 0 170.32 326.01;" xml:space="preserve">
<style type="text/css">
	.st0{fill:#1A1A1A;}
</style>
<g>
	<path d="M22.8,217.38c-0.13,0.79,0.52,1.56,0.06,2.38c-0.38,0.67-0.7,1.36-1.05,2.04c-0.02,0.04-0.01,0.09-0.02,0.16
		c0.27,0.96,1.26,0.64,1.91,1.03c-0.21,0.52-0.67,0.63-1.14,0.67c-0.59,0.06-1.16-0.01-1.61-0.44c-0.31-0.29-0.59-0.62-0.86-0.96
		c-0.21-0.26-0.34-0.58-0.55-0.83c-0.24-0.29-0.52-0.55-0.76-0.81c-0.38,0.01-0.56,0.21-0.61,0.52c-0.06,0.35,0.04,0.64,0.33,0.89
		c0.28,0.24,0.72,0.32,0.79,0.77c-1.04,0.64-2.04,0.5-2.76-0.38c-0.34-0.41-0.57-0.9-0.67-1.42c-0.13-0.65-0.4-1.16-1-1.49
		c-0.66-0.37-1.04-0.98-1.31-1.66c-0.4-1.03-0.78-2.06-1.2-3.08c-0.38-0.93-0.75-1.87-1.43-2.64c-0.38-0.42-0.5-0.91-0.54-1.45
		c-0.03-0.43-0.03-0.87-0.1-1.29c-0.13-0.78-0.2-0.82-1.22-1.19c-0.38,0.58,0.07,1.33-0.34,1.9c-0.39,0.19-0.64-0.01-0.85-0.3
		c-0.6-0.83-0.75-1.75-0.49-2.73c0.33-1.23,0.94-2.32,1.91-3.15c0.83-0.72,1.21-1.58,1.15-2.66c-0.05-1.05,0.13-2.11-0.11-3.15
		c-0.1-0.42,0.08-0.73,0.27-1.07c0.76-1.33,1.7-2.55,2.28-3.98c0.14-0.35,0.31-0.7,0.46-1.05c0.73-1.62,1.48-3.23,2.95-4.34
		c0.63-0.47,0.88-1.13,0.94-1.86c0.04-0.49,0.13-0.94,0.41-1.35c1.6-2.37,2.23-5.07,2.55-7.85c0.43-3.71,1.04-7.39,1.74-11.05
		c0.53-2.74,1.51-5.33,2.98-7.72c1-1.64,1.96-3.29,2.92-4.95c1.32-2.28,1.77-4.72,1.42-7.33c-0.11-0.8-0.08-1.62-0.15-2.44
		c-0.05-0.59,0.26-1.23-0.31-1.75c-0.11-0.1,0-0.46,0.04-0.69c0.29-2.04,0.8-4.03,1.32-6.02c0.66-2.56,1.7-4.98,2.48-7.49
		c0.34-1.1,0.69-2.19,0.86-3.33c0.07-0.47,0.19-0.95,0.36-1.39c0.43-1.09,0.43-2.25,0.65-3.37c0.03-0.14,0.03-0.3-0.01-0.43
		c-0.4-1.09-0.4-2.26-0.7-3.37c-0.57-2.12-0.52-4.28-0.24-6.42c0.18-1.37,0.49-2.73,0.73-4.09c0.08-0.44,0.23-0.83,0.47-1.2
		c0.82-1.24,1.31-2.68,2.34-3.78c0.34-0.36-0.11-0.75,0.21-1.05c0.42-0.39,0.68-0.91,1.17-1.26c1.07-0.77,2.24-1.29,3.5-1.61
		c0.6-0.15,1.22-0.26,1.82-0.42c0.32-0.09,0.72-0.15,0.92-0.37c0.76-0.84,1.77-1.07,2.8-1.31c0.27-0.07,0.54-0.21,0.78-0.35
		c0.99-0.58,1.99-1.16,2.95-1.78c0.64-0.41,1.25-0.87,1.71-1.51c0.36-0.5,0.82-0.92,1.36-1.23c-0.21-1.53-0.84-2.89-1.13-4.34
		c-0.09-0.43-0.35-0.78-0.68-1.08c-1.03-0.93-2.07-1.84-3.07-2.8c-0.45-0.44-0.92-0.48-1.44-0.25c-0.92,0.41-1.85,0.8-2.73,1.29
		c-1.93,1.09-4.56,0.62-5.74-1.26c-0.2-0.32-0.45-0.43-0.8-0.51c-1.53-0.36-2.7-1.2-3.29-2.72c-0.16-0.41-0.47-0.72-0.73-1.06
		c-1.15-1.48-0.6-2.97,0.44-3.82c0.68-0.55,1.41-0.99,2.22-1.3c3.13-1.2,5.27-3.57,7.21-6.17c0.35-0.48,0.4-0.96,0.09-1.47
		c-0.4-0.65-0.78-1.32-1.2-1.96c-0.35-0.54-0.43-1.05-0.36-1.74c0.17-1.62,1.17-2.8,1.84-4.16c0.21-0.43,0.5-0.82,0.78-1.28
		c-0.31-0.79-0.87-1.35-1.67-1.63c-1.05-0.36-1.99-0.94-2.97-1.45c-1.73-0.9-3.02-2.17-3.62-4.08c-0.23-0.72-0.56-1.39-1.03-2.03
		c-0.41-0.56-0.57-1.31-0.8-1.99c-0.91-2.68-1.83-5.35-2.99-7.93c-0.61-1.36-1.34-2.65-2.04-3.96c-0.74-1.37-1.27-2.79-1.45-4.32
		c-0.43-3.58-0.48-7.16,0.22-10.72c0.16-0.79,0.41-1.57,1.07-2.19c1.07,0.26,1.83,1.01,2.61,1.69c1.41,1.24,2.52,2.76,3.58,4.3
		c1.37,1.97,2.62,4.01,3.75,6.13c0.43,0.81,0.97,1.51,1.64,2.16c4.08,3.99,8.25,7.87,12.59,11.57c0.33,0.28,0.63,0.59,0.92,0.91
		c0.53,0.57,1.15,0.97,1.9,1.24c0.64,0.23,1.32,0.45,1.75,1.14c0.28,0.45,0.88,0.27,0.93-0.27c0.11-1.49,0.86-2.73,1.48-4.02
		c0.87-1.81,1.74-3.63,2.58-5.46c0.5-1.09,0.78-2.25,0.98-3.44c0.75-4.48,1.53-8.97,2.87-13.32c1.08-3.5,2.68-6.79,4.77-9.79
		c1.62-2.33,3.75-4.21,6.19-5.71c0.49-0.3,0.97-0.62,1.49-0.87c0.87-0.43,1.71-0.23,2.3,0.53c0.2,0.26,0.37,0.56,0.53,0.86
		c0.65,1.18,1.03,2.47,1.6,3.67c0.56,1.17,0.91,2.37,1.25,3.6c0.5,1.85,1.1,3.67,1.69,5.49c1.41,4.35,2.32,8.8,2.58,13.35
		c0.19,3.3,0.2,6.62-0.29,9.9c-0.17,1.13-0.4,2.27-1.08,3.24c-0.55,0.79-0.72,1.69-0.54,2.61c0.15,0.78-0.19,1.63,0.45,2.34
		c-0.4,0.63-0.91,1.16-0.98,1.91c0,0.05-0.02,0.11-0.06,0.13c-1.04,0.67-0.67,1.67-0.57,2.57c0.06,0.53,0.08,1.02-0.01,1.55
		c-0.24,1.36-0.39,2.75-0.62,4.11c-0.28,1.67-1.17,3.01-2.38,4.17c-0.37,0.35-0.8,0.53-1.26,0.66c-0.55,0.16-1.12,0.25-1.68,0.38
		c-0.4,0.09-0.7,0.28-0.81,0.71c-0.69,2.69-1.96,5.19-2.57,7.9c-0.13,0.57-0.49,0.92-0.94,1.21c-1.55,1-2.06,2.38-1.73,4.19
		c0.23,1.26,0.25,2.57,0.34,3.86c0.11,1.64,0.6,3.2,1.02,4.77c0.11,0.41,0.33,0.77,0.76,1c1.56,0.85,3.11,1.7,4.64,2.6
		c1.95,1.15,4.06,1.94,6.11,2.87c1.35,0.62,2.72,1.19,4.05,1.87c0.93,0.47,1.86,0.72,2.9,0.64c1.02-0.07,2-0.03,2.8,0.78
		c0.29,0.3,0.77,0.37,1.2,0.44c2.86,0.49,5.5,1.63,8.14,2.76c1.36,0.58,2.24,1.74,3.32,2.66c0.14,0.12,0.31,0.33,0.22,0.5
		c-0.31,0.59,0.18,0.88,0.44,1.24c0.71,0.97,1.65,1.83,2.1,2.9c0.43,1.05,0.98,2.07,1.27,3.19c0.34,1.3,0.71,2.58,1.07,3.87
		c0.22,0.78,0.39,1.58,0.64,2.35c0.13,0.41,0.31,0.82,0.3,1.25c-0.02,0.97,0.36,1.75,0.93,2.5c1.22,1.61,2.22,3.36,3.12,5.16
		c2.02,4.03,4.11,8.02,6.08,12.08c1.26,2.58,2.46,5.19,3.85,7.71c0.88,1.59,1.46,3.33,1.88,5.11c0.18,0.79,0.23,1.61,0.69,2.33
		c0.16,0.26,0.17,0.65,0.17,0.98c0.04,2.35,0.32,4.68,0.2,7.04c-0.02,0.34,0.01,0.67,0,1.01c-0.09,2.26,0.23,4.49,0.54,6.72
		c0.27,1.9,0.39,3.81,0.33,5.73c-0.08,2.69,0.25,5.35,0.55,8.01c0.06,0.57,0.1,1.15,0.12,1.72c0.02,0.78,0.33,1.32,1.01,1.76
		c1.97,1.28,3.91,2.61,5.74,4.09c2.53,2.05,5,4.17,7.4,6.37c4.01,3.66,7.01,8.1,10.03,12.54c0.8,1.18,1.46,2.48,2.08,3.78
		c2.1,4.42,4,8.91,5.14,13.7c0.12,0.5,0.25,1,0.61,1.43c0.43,0.52,0.56,1.21,0.73,1.86c0.61,2.32,1.09,4.66,1.47,7.02
		c0.1,0.61,0.22,1.23,0.4,1.82c0.61,2.06,0.72,4.13,0.29,6.24c-0.09,0.46-0.1,0.97-0.01,1.43c0.39,1.94,0.03,3.82-0.47,5.67
		c-0.31,1.15-0.78,2.26-1.22,3.38c-0.91,2.31-2.7,3.94-4.46,5.56c-0.54,0.5-1.01,1.02-1.4,1.62c-1.05,1.62-2.28,3.08-3.7,4.39
		c-0.28,0.26-0.57,0.52-0.88,0.74c-0.86,0.6-1.75,1.17-2.23,2.12c-0.43-0.11-0.35-0.38-0.37-0.6c-0.13-1.34-0.73-2.48-1.54-3.5
		c-1.17-1.47-2.59-2.67-4.06-3.84c-2.64-2.09-5.65-3.61-8.44-5.47c-1.44-0.96-2.87-1.92-3.82-3.43c-0.6-0.94-1-1.93-1.26-3.03
		c-0.45-1.86-0.46-3.8-1.05-5.64c-0.18-0.56,0.02-1.14,0.07-1.71c0.12-1.24,0.3-2.46,0.43-3.7c0.19-1.82,0.06-3.64,0.1-5.47
		c0.04-2-0.4-3.9-1.14-5.74c-0.82-2.03-2-3.81-3.82-5.11c-0.23-0.17-0.46-0.35-0.65-0.56c-0.93-1.07-2.11-1.81-3.32-2.49
		c-2.15-1.21-4.02-2.76-5.73-4.52c-0.29-0.3-0.47-0.82-1.1-0.72c-0.13,0.02-0.34-0.4-0.51-0.63c-0.75-1.04-1.34-2.2-2.3-3.1
		c-0.39,0.34,0.11,0.93-0.56,1.17c-1.13-0.5-1.67-1.63-2.19-2.71c-0.43-0.06-0.21,0.54-0.74,0.44c-1.11-1.35-1.35-3.17-1.95-4.87
		c-0.25,1.06-0.92,1.89-1.3,2.85c-0.25,0.62-0.46,1.25-0.61,1.88c-1.11,4.64-3.17,8.82-6.14,12.55c-0.92,1.16-1.79,2.35-2.7,3.55
		c0.41,0.51,0.78,0.94,1.13,1.39c0.8,1.04,1.39,2.18,1.79,3.42c0.4,1.22,0.9,2.4,1.49,3.54c0.22,0.43,0.35,0.87,0.43,1.35
		c0.24,1.56,0.78,3.06,0.91,4.65c0.04,0.52,0.13,1.04,0.12,1.57c-0.01,0.73,0.05,1.44,0.39,2.1c0.26,0.49,0.29,1.01,0.28,1.54
		c-0.1,3.55,0.8,6.91,1.91,10.25c0.84,2.52,1.94,4.9,3.23,7.2c0.83,1.47,1.77,2.85,3.01,4.01c0.77,0.72,1.37,1.6,2.23,2.23
		c1.12,0.83,2.21,1.65,3.5,2.23c1.17,0.52,2.32,1.17,3.05,2.32c0.35,0.56,0.75,1.09,0.8,1.79c0.02,0.23,0.09,0.48,0.21,0.68
		c0.9,1.69,1.14,3.54,1.32,5.4c0.08,0.77,0.01,1.52-0.32,2.25c-0.22,0.47-0.31,1-0.46,1.5c-0.23,0.74-0.6,1.41-1.08,2.02
		c-0.91,1.17-1.83,2.34-2.78,3.48c-0.43,0.52-0.91,1-1.54,1.28c-1.02,0.46-1.66,1.35-2.13,2.26c-0.4,0.78-0.92,1.55-1,2.48
		c-0.03,0.34-0.18,0.64-0.42,0.9c-0.1,0.1-0.26,0.22-0.26,0.33c-0.01,1.25-1.06,1.99-1.45,3.06c-0.4,1.08-0.98,2.09-1.61,3.04
		c-0.74,1.11-1.62,2.13-2.45,3.18c-0.35,0.44-0.94,0.45-1.44,0.78c-0.14,0.76-0.71,1.23-1.41,1.63c-0.58,0.33-1.11,0.75-1.64,1.16
		c-0.85,0.65-1.8,1.09-2.84,1.32c-2.11,0.45-4.22,0.84-6.39,0.78c-0.19-0.01-0.39-0.09-0.54,0.05c-0.66,0.65-1.51,0.51-2.31,0.57
		c-1.39,0.12-2.78,0.08-4.17-0.02c-0.49-0.04-0.98-0.12-1.36-0.4c-0.46-0.35-0.96-0.39-1.49-0.38c-0.38,0.01-0.77,0.02-1.15-0.02
		c-1.7-0.15-2.23-0.65-2.54-2.43c-0.61-0.24-0.97-0.7-1.13-1.44c-0.47-2.18,0.33-4.13,2.36-5.38c1.38-0.85,2.88-1.33,4.51-1.16
		c0.76,0.08,1.31-0.15,1.78-0.68c0.63-0.72,1.3-1.41,1.84-2.2c1.43-2.1,2.9-4.17,4.87-5.82c0.65-0.55,0.87-1.37,1.11-2.14
		c0.17-0.55,0.28-1.11,0.43-1.67c0.91-3.49,2.16-6.85,3.65-10.12c0.2-0.43,0.36-0.88,0.52-1.27c-0.11-0.56-0.47-0.9-0.75-1.29
		c-1.78-2.5-3.92-4.71-5.81-7.12c-1.75-2.22-3.48-4.46-5.2-6.7c-0.93-1.21-2.02-2.3-2.69-3.71c-0.48,0.35-0.43,0.89-0.59,1.32
		c-1.93,4.95-4.49,9.51-7.92,13.6c-1.57,1.88-3.33,3.57-4.92,5.43c-2.41,2.81-4.52,5.81-6.39,9.02c-2.12,3.64-3.43,7.58-4.55,11.6
		c-0.5,1.8-0.59,3.67-0.81,5.53c-0.31,2.57-0.45,5.14-0.7,7.71c-0.25,2.57-0.79,5.11-2.05,7.42c-0.4,0.74-0.57,1.51-0.49,2.38
		c-0.85,0.14-1.17,0.83-1.59,1.35c-0.42,0.52-0.77,1.05-1.5,1.16c-0.15,0.02-0.27,0.24-0.42,0.37c-0.13-0.18-0.23-0.33-0.35-0.51
		c-0.41,0.33-0.82,0.66-1.22,0.99c-2.9,2.44-6.21,3.31-9.91,2.48c-1.08-0.24-2.08-0.7-3.01-1.32c-1.49-0.99-2.87-2.1-3.95-3.53
		c-0.82-1.09-1.9-1.73-3.14-2.18c-2.03-0.73-4.05-1.46-6.09-2.16c-0.45-0.15-0.93-0.28-1.4-0.27c-0.84,0.02-1.56-0.25-2.33-0.56
		c-0.69-0.27-1.49-0.27-2.25-0.34c-2.12-0.21-4.19-0.75-6.05-1.71c-1.34-0.69-2.63-1.13-4.13-1.32c-2.19-0.28-3.81-1.72-5.18-3.37
		c-0.41-0.49-0.83-0.86-1.41-1.14c-0.97-0.47-1.67-1.29-2.17-2.23c-0.83-1.58-1.06-3.25-0.65-5.01c0.13-0.53,0.3-1,0.7-1.38
		c0.18-0.17,0.31-0.36,0.25-0.71c-1.96-0.52-3.3,0.63-4.57,1.76c-0.51-0.05-0.64-0.34-0.67-0.7c-0.08-0.98,0.34-1.81,0.96-2.48
		c0.9-0.96,2.01-1.6,3.4-1.66c1.09-0.05,2.14-0.36,3.26-0.35c1.13,0.01,2.18,0.19,3.19,0.64c0.49,0.21,0.9,0.45,1.48,0.17
		c0.47-0.23,1.01-0.06,1.51,0.16c0.86,0.37,0.95,0.32,1.62-0.57c1.66,0.44,2.94,1.49,4.19,2.75c2.03-0.44,4.05,0.07,6.09,0.2
		c0.32,0.02,0.62,0.21,0.94-0.08c0.21-0.19,0.5-0.05,0.66,0.1c0.43,0.41,0.93,0.43,1.47,0.42c1.11-0.03,2.17,0.3,3.28,0.32
		c1.06,0.01,2.11,0.02,3.13-0.27c2.31-0.64,4.69-0.91,7.04-1.33c0.89-0.16,1.82-0.23,2.72-0.16c1.54,0.12,2.37-0.77,3.07-1.92
		c0.1-0.16,0.15-0.35,0.22-0.53c0.75-2.12,1.45-4.26,1.98-6.45c0.88-3.63,2.03-7.18,3.21-10.73c0.47-1.41,0.84-2.84,1.32-4.24
		c0.45-1.31,0.74-2.65,1.28-3.94c0.51-1.22,0.69-2.58,1.09-3.86c0.97-3.06,1.31-6.27,2.29-9.33c1.43-4.46,2.88-8.93,4.24-13.41
		c0.67-2.2,1.22-4.43,1.71-6.68c0.37-1.71,0.07-3.43-0.33-5.11c-0.04-0.18-0.15-0.35-0.1-0.54c0.47-2.02,0.49-4.14,1.25-6.1
		c0.17-0.44,0.42-0.87,0.69-1.25c0.39-0.54,0.84-1.05,1.27-1.55c1.44-1.67,1.4-2.8-0.16-4.35c-0.2-0.2-0.39-0.44-0.64-0.58
		c-0.65-0.37-1.09-0.94-1.51-1.51c-1.56-2.13-3.06-4.29-4.61-6.43c-1.84-2.55-3.07-5.41-4.16-8.34c-0.52-1.39-0.95-2.81-1.6-4.15
		c-0.44-0.91-0.47-1.95-0.64-2.94c-0.5-2.92-0.97-5.85-1.46-8.78c-0.17-1.04-0.36-2.07-0.57-3.1c-0.12-0.56-0.28-1.12-0.5-1.64
		c-0.78-1.91-1.41-3.87-1.93-5.86c-0.79-3-1.04-6.01-0.57-9.1c0.22-1.47,0.51-2.92,0.77-4.38c0.24-1.39,0.21-2.77,0.24-4.15
		c0.01-0.55-0.15-1.05-0.46-1.48c-1.69-2.33-2.58-5.01-3.35-7.74c-0.09-0.32-0.16-0.65-0.49-0.89c-0.64,0.63-1.14,1.38-1.33,2.24
		c-0.38,1.78-1.13,3.45-1.44,5.26c-0.42,2.42-0.56,4.83-0.28,7.28c0.1,0.84,0.01,1.65-0.27,2.52c-1.54,4.76-4.47,8.74-7.12,12.88
		c-0.67,1.05-1.44,2.03-1.99,3.15c-0.51,1.05-1.38,1.83-2.06,2.76c-0.78,1.07-1.28,2.22-1.48,3.54c-0.3,1.95-0.77,3.85-2.01,5.45
		c-0.27,0.34-0.29,0.69-0.2,1.08c0.14,0.56,0.3,1.11,0.44,1.67c0.67,2.63,0.27,5.12-1.02,7.48c-0.18,0.34-0.42,0.65-0.48,1.03
		c-0.13,0.87-0.43,1.63-1.01,2.33c-0.48,0.58-0.27,1.28,0.05,1.89c0.58,1.1,1.17,2.2,1.8,3.28c0.48,0.82,0.87,1.68,1.53,2.42
		c0.65,0.72,0.55,1.7,0.19,2.58c-0.12,0.3-0.37,0.54-0.56,0.8c0.15,0.86,0.84,1.4,1.19,2.11c-0.12,0.44-0.43,0.51-0.79,0.44
		c-0.64-0.12-1.17-0.41-1.49-1.01c-0.15-0.3-0.38-0.58-0.45-0.89c-0.19-0.83-0.6-1.49-1.19-2.08c-0.53-0.53-0.85-1.22-1.31-1.82
		c-0.09,0.58,0.23,0.98,0.53,1.4c0.36,0.51,0.72,1.02,1.03,1.55c0.44,0.74,0.48,1.54,0.27,2.36c-0.32,1.2-0.24,1.38,0.82,2.09
		c0.16,0.1,0.3,0.23,0.44,0.36c0.03,0.03,0.04,0.09,0.06,0.14c-0.04,0.35-0.27,0.46-0.58,0.45c-0.14,0-0.27-0.08-0.41-0.1
		c-0.96-0.12-1.52-0.98-2.35-1.29c-0.95-0.35-1.43-1.07-1.86-1.89c-0.09-0.17-0.15-0.36-0.38-0.37c-0.18-1-0.75-1.79-1.36-2.56
		C21.34,215.99,22.03,216.7,22.8,217.38z M99.45,128.86c-0.67,3.36-1.84,6.39-3.25,9.33c-0.17,0.35-0.31,0.69-0.3,1.09
		c0.01,1.63-0.1,3.26,0.36,4.86c0.2,0.69,0.39,1.39,0.48,2.1c0.07,0.61,0.35,1.1,0.71,1.54c0.7,0.85,1.43,1.67,2.16,2.5
		c1.02,1.16,1.89,2.42,2.53,3.82c1.43,3.09,2.74,6.23,3.51,9.56c0.2,0.86,0.64,1.56,1.19,2.25c1.12,1.41,2.55,2.46,3.9,3.59
		c1.11,0.93,2.28,1.74,3.57,2.4c2.09,1.08,4.24,2.01,6.43,2.86c0.24,0.09,0.46,0.36,0.83,0.11c0.04-0.52-0.24-0.97-0.42-1.45
		c-0.94-2.52-2.28-4.85-3.42-7.28c-0.69-1.47-1.37-2.95-1.91-4.49c-0.7-2-1-4.09-1.49-6.14c-0.35-1.49-0.17-3.05-0.55-4.55
		c-0.16-0.65-0.28-1.32-0.31-1.98c-0.08-1.85-0.86-3.26-2.39-4.34c-2.53-1.78-4.71-3.93-6.42-6.51c-1.67-2.52-3.22-5.11-4.41-7.89
		C100.08,129.8,100,129.3,99.45,128.86z"/>
	<path class="st0" d="M131.63,218.55c-0.34-0.7-1.07-0.89-1.66-1.25c-1.03-0.62-2.1-1.15-3.15-1.73c-0.7-0.39-1.42-0.75-1.9-1.44
		c0.26-0.27,0.59,0.17,0.88-0.23c0.17-1.25-1.24-2.2-0.97-3.55c0.29-0.09,0.5,0.06,0.65,0.21c0.57,0.57,1.21,0.52,1.85,0.21
		c0.82-0.39,1.56-0.87,1.9-1.81c0.26-0.73,0.54-1.46,0.47-2.23c-0.1-1.08,0.13-2.08,0.43-3.1c0.16-0.54,0.4-1.07,0.35-1.8
		c0.77,0.27,1.3,0.61,1.6,1.22c0.32,0.65,0.7,1.23,1.31,1.67c0.83,0.6,1.29,1.5,1.88,2.31c1.04,1.42,0.99,3.05,1.24,4.63
		c0.06,0.38-0.17,0.63-0.31,0.93c-0.5,1.1-0.76,2.26-0.77,3.47c-0.01,0.92,0.24,1.7,1.02,2.21c-0.02,0.55-0.55,0.81-0.63,1.29
		c0.23,0.25,0.44,0.11,0.63-0.02c0.23-0.17,0.41-0.41,0.73-0.43c0.61-0.03,0.92-0.47,1.25-0.88c0.33-0.41,0.69-0.82,0.91-1.29
		c0.49-1.07,1.44-1.62,2.33-2.24c0.55-0.38,1.12-0.74,1.7-1.08c0.8-0.47,1.29-1.17,1.42-2.05c0.1-0.65,0.34-1.21,0.71-1.7
		c0.92-1.22,0.92-2.59,0.72-3.98c-0.16-1.14-0.42-2.25-0.42-3.41c0-0.85-0.38-1.57-0.91-2.21c-0.41-0.48-0.7-1-0.86-1.63
		c-0.19-0.75-0.63-1.4-1.11-2c-1.91-2.34-3.44-4.96-5.25-7.37c-0.53-0.7-1.89-4.99-1.94-5.95c0-0.04,0.05-0.08,0.07-0.12
		c0.55,0.09,0.9,0.53,1.33,0.82c3.81,2.5,7.32,5.41,10.7,8.45c3.04,2.72,5.76,5.76,8.06,9.15c1.03,1.51,2.1,2.98,3.08,4.51
		c1.54,2.43,2.68,5.07,3.84,7.71c1.43,3.25,2.59,6.59,3.43,10.05c0.03,0.14,0.05,0.29,0.13,0.41c1.39,2.26,1.68,4.85,2.2,7.37
		c0.31,1.55,0.6,3.09,0.98,4.63c0.36,1.47,0.56,3,0.18,4.55c-0.19,0.78-0.22,1.58-0.14,2.41c0.21,2.07-0.02,4.11-0.81,6.06
		c-0.13,0.31-0.21,0.63-0.31,0.95c-0.87,2.67-2.43,4.86-4.87,6.77c0.76-2.29,1.19-4.38,0.89-6.55c-0.07-0.47-0.2-0.93-0.32-1.4
		c-0.06-0.23-0.18-0.42-0.49-0.58c1.26,6.49-1.48,11.3-6.22,15.29c0.08-1.13,0.68-2.17,0.33-3.48c-0.69,1.39-0.66,2.93-1.63,3.97
		c-0.52,0.04-0.68-0.26-0.83-0.57c-0.86-1.81-2.2-3.23-3.72-4.5c-1.84-1.54-3.75-2.96-5.86-4.13c-1.93-1.06-3.79-2.25-5.57-3.56
		c-1.97-1.45-3.24-3.31-3.65-5.79c-0.28-1.65-0.44-3.32-0.84-4.95c-0.14-0.58-0.02-1.24,0.07-1.85c0.52-3.28,0.66-6.59,0.45-9.88
		c-0.26-4.1-1.71-7.75-5.15-10.33c-0.14-0.11-0.31-0.19-0.31-0.41c0.35-0.22,0.58,0.33,0.92,0.15c0.28,0.51,0.75,0.67,1.28,0.71
		C132.54,218.93,132.23,218.46,131.63,218.55z"/>
	<path class="st0" d="M124.32,213.69c-2.1-1.37-3.6-2.87-4.19-5.11c-0.32-1.2-0.57-2.42-0.52-3.68c0.02-0.52,0-1.03-0.06-1.55
		c-0.51,1.14-0.41,3.11,0.26,6.24c-0.7-0.55-0.94-1.27-1.42-1.8c-0.51-0.56-0.85-1.28-1.56-1.55c-0.27-1.33-0.43-2.59-0.46-4.16
		c-0.87,1.92-0.26,3.54-0.02,5.19c-0.92-0.52-1.19-1.1-1.86-3.01c-0.43-1.23,0.19-2.47-0.2-3.76c-1.1,1.07-0.55,2.48-0.88,3.92
		c-0.59-1.05-0.79-1.98-1-2.89c-0.23-1.02-0.5-2.06-0.52-3.1c-0.03-1.17,0.08-2.39,0.73-3.44c0.13-0.21,0.23-0.39,0.26-0.62
		c0.66-4.54,0.51-9.05-0.47-13.55c-0.72-3.3-1.96-6.4-3.44-9.41c-0.69-1.41-1.39-2.81-2.11-4.27c0.48-0.04,0.56,0.27,0.73,0.44
		c2.74,2.67,5.9,4.71,9.43,6.19c1.41,0.59,2.8,1.24,4.22,1.82c0.59,0.24,0.94,0.62,1.08,1.22c0.31,1.3,0.72,2.59,0.91,3.91
		c0.19,1.34,0.75,2.57,0.99,3.89c0.1,0.56,0.6,1,0.97,1.35c0.88,0.85,0.81,1.77,0.57,2.78c-0.56,2.42-1.13,4.84-1.71,7.26
		c-0.27,1.15-0.28,2.26,0.24,3.36c0.65,1.36,0.42,2.81,0.33,4.23c-0.1,1.48-0.54,2.85-1.1,4.25c-0.63,1.55-0.5,3.29,0.29,4.88
		C123.95,212.97,124.07,213.21,124.32,213.69z"/>
</g>
</svg>
