<?xml version="1.0" encoding="utf-8"?>
<!-- Generator: Adobe Illustrator 24.0.2, SVG Export Plug-In . SVG Version: 6.00 Build 0)  -->
<svg version="1.1" id="Layer_1" xmlns="http://www.w3.org/2000/svg" xmlns:xlink="http://www.w3.org/1999/xlink" x="0px" y="0px"
	 viewBox="0 0 226.76 705.32" style="enable-background:new 0 0 226.76 705.32;" xml:space="preserve">
<path d="M122.77,434.51c-3.8,1.6-7.36,3.57-11.18,4.53c-2.2,0.55-3.2,1.51-3.55,3.31c-2.19,11.17-6.5,21.52-11.96,31.43
	c-5.07,9.19-1.43,17.73,3.57,23.68c6.55,7.8,12.21,16.05,14.56,26.28c1.53,6.68,0.63,13.05-1.26,19.35
	c-1.01,3.36-0.83,6.29,0.67,9.39c4.24,8.74,9.2,16.87,17.03,22.99c8.73,6.83,8.17,16.49,2.27,26.1
	c-8.58,13.98-15.51,28.66-21.01,44.05c-1.03,2.88-1.71,6-1.88,9.04c-0.43,8.1-3.29,12.48-10.63,15.36
	c-6.48,2.54-9.58,8.5-7.97,15.14c1.98,8.17-1.08,15.13-11.83,15.05c-2.53-0.02-4.85-0.34-6.91,2.34c-1.24,1.61-4.38,2.43-6.68,2.45
	c-8.54,0.08-17.17,1.31-25.54-1.77c-6.39-2.35-8.31-5.2-5.29-11.15c3.24-6.36,7.41-12.3,11.67-18.05c1.42-1.92,4.32-2.81,6.64-3.99
	c5-2.55,7.77-6.38,7.48-12.18c-0.1-1.99-0.44-4.12,0.08-5.97c0.87-3.06,1.55-6.92,3.74-8.72c10.61-8.78,14.7-21.1,19.08-33.27
	c2.76-7.68,5.74-15.5,4.97-23.83c-0.68-7.38-0.71-15.16-5.91-21.3c-3.52-4.16-7.39-8.02-11-12.11c-5.74-6.5-11.55-12.99-13.14-21.96
	c-1-5.61-2.38-11.22-2.68-16.88c-0.24-4.56-0.93-8.8-3.2-12.7c-3.07-5.28-4.61-10.92-3.92-16.97c1.28-11.23-2.12-21.82-4.11-32.6
	c-1.83-9.89-3.17-19.81-2.92-29.89c0.18-7.34,0.44-14.69,0.68-22.73c-4.03,1.53-8.41,3.35-12.9,4.84c-2.08,0.69-4.35,0.97-6.55,1.06
	c-4.89,0.2-9.82,0.49-14.68,0.08c-2.16-0.18-4.47-1.66-6.16-3.17c-1.02-0.91-1.26-3-1.34-4.59c-0.44-9.43-0.75-18.86-1.02-28.3
	c-0.04-1.28,0.17-2.66,0.65-3.84c2.41-5.97,1.85-12.31,2.25-18.49c0.88-13.69,1.18-27.41,2.15-41.09
	c0.78-10.99,3.62-21.52,8.92-31.3c1.64-3.02,3.25-6.07,4.66-9.21c2.02-4.49,3.62-9.05,3.4-14.17c-0.27-5.99-0.03-12-0.07-17.99
	c-0.09-12.01,4.44-22.62,9.97-32.92c1.38-2.58,3.16-4.94,4.05-7.42c0.33-3.31,0.3-6.71,1.04-9.93c2.12-9.24,5.22-18.1,10.34-26.22
	c2.9-4.6,7-7.26,11.88-8.94c2.75-0.95,5.77-1.15,8.47-2.2c2.07-0.81,3.8-2.47,5.73-3.68c6.07-3.82,12.11-7.68,18.27-11.35
	c1.98-1.18,2.99-2.32,3.45-4.82c1.23-6.68,1.22-9.59-1.63-15.68c-4.2-1.24-7.41,0.44-9.98,3.62c-2.43,3-5.76,4.26-9.32,5.01
	c-4.4,0.93-8.13-0.9-11.32-3.62c-2.97-2.53-5.63-5.43-8.3-8.29c-0.75-0.8-1.33-1.96-1.52-3.04c-1.04-5.76-2.22-11.52-2.7-17.34
	c-0.14-1.7,1.43-4.01,2.87-5.3c6.01-5.35,12.19-10.51,18.49-15.52c2.4-1.91,5.27-3.23,8.17-4.96c-0.31-1-0.67-1.86-0.83-2.75
	c-0.98-5.44,1.08-8.85,6.55-11.01c2.39-0.94,4.76-1.93,7.48-3.04c-1.93-2.68-3.52-4.88-5.3-7.34c3.29-1.17,3.3-3.16,2.26-6.14
	c-2.32-6.69-3.51-13.66-3.08-20.8c0.12-1.9,0.67-3.77,1.27-6.99c7.76,8.21,14.74,15.59,21.75,23c2.21-0.37,4.26-0.72,6.66-1.12
	c-0.04-7.5-2.74-15.39,2.02-23.97c3.19,4.07,5.99,7.19,8.27,10.65c3.93,5.99,7.52,12.21,11.31,18.3c0.52,0.83,1.34,1.47,2.04,2.18
	c3.79,3.84,7.58,7.69,11.39,11.51c0.81,0.81,1.74,1.51,2.75,2.37c-0.31,0.45-0.78,1.12-1.22,1.75c1.59,1.9,3.25,3.72,4.73,5.68
	c4.66,6.17,6.44,13.54,7.85,20.86c1.27,6.58,0.8,13.52,2.3,20.02c2.13,9.25-0.9,18.23-0.41,27.37c0.18,3.44-2,7.04-3.23,10.52
	c-0.81,2.29-0.6,3.67,1.72,5.31c3.35,2.38,5.94,5.8,9.1,8.48c1.67,1.42,3.76,2.71,5.86,3.2c14.34,3.31,22.88,11.87,24.82,26.64
	c0.7,5.35,1.33,10.72,1.97,16.08c0.08,0.66,0.23,1.44-0.03,1.98c-3.35,6.82,0.62,12.4,3.01,18.25c1.93,4.73,3.28,9.56,3.07,14.78
	c-0.2,4.82-0.28,9.68,0.04,14.49c0.23,3.54,0.92,7.1,1.89,10.51c1.44,5.02,3.01,9.85,3.3,15.25c0.25,4.52,3.26,8.82,4.29,13.39
	c1.5,6.67,2.97,13.46,3.23,20.25c0.22,5.64-1.28,11.36-2.11,17.03c-0.47,3.23-1.39,6.41-1.63,9.65c-0.52,7.09-0.48,14.22-1.12,21.29
	c-0.95,10.4-0.95,20.97-4.94,30.89c-0.55,1.36-1.43,2.64-1.72,4.04c-0.4,1.95-0.45,3.98-0.51,5.98c-0.04,1.32,0.21,2.64,0.22,3.96
	c0.03,5-0.05,10,0.02,15c0.31,21.1,0.41,42.2,1.1,63.29c0.3,9.16,1.76,18.28,2.84,27.4c1.16,9.72,2.5,19.41,3.25,29.43
	c-2.74-5.13-5.47-10.26-8.62-16.16c0.48,7.68,0.94,14.8,1.35,21.92c0.11,1.83,0.41,3.76-0.02,5.47c-0.63,2.47-3,4.37-1.35,7.52
	c1.5,2.84,2.24,6.08,3.25,9.17c0.13,0.39-0.16,0.91-0.33,1.68c-4.93-2.5-6.15-7.6-9.56-11.29c0.86,2.63,1.73,5.27,2.59,7.9
	c-9.85-11.22-14.67-24.64-18.71-38.7c0.4,3.9,0.69,7.81,1.22,11.69c0.52,3.88,1.25,7.73,1.94,11.58c0.71,3.99,1.49,7.97,2.23,11.96
	c-0.31,0.15-0.61,0.3-0.92,0.44c-2.92-4.32-5.84-8.63-8.76-12.95c-0.31,0.07-0.61,0.15-0.92,0.22c0.76,2.78,1.06,5.79,2.36,8.28
	c2.71,5.16,4.72,9.97,3.33,16.25c-0.99,4.47,0.05,9.53,0.84,14.22c1.35,8.03,2.84,16.07,4.97,23.91c1.94,7.17,4.88,14.06,7.21,21.14
	c0.55,1.66,1.16,3.92,0.48,5.27c-3.5,7.01,0.06,12.72,3.43,18.09c1.95,3.11,3.82,5.94,4.23,9.66c0.45,4.2,1.17,8.37,1.87,13.22
	c-4.13,0.7-7.76,1.71-11.42,1.86c-6.99,0.29-14-0.03-20.99,0.13c-3.77,0.08-7.53,0.82-11.3,0.91c-4.92,0.11-7.66-1.77-8.27-6.53
	c-0.6-4.62-1.47-9.44,2.17-13.72c1.71-2.02,2.61-4.91,3.29-7.56c0.41-1.61,0.38-4.1-0.58-5.17c-6.27-6.95-5.7-14.81-4.36-23.22
	c0.83-5.23,0.08-10.7,0.22-16.06c0.19-7.67-2.02-14.88-4.12-22.09c-0.66-2.26-2.01-4.35-3.27-6.39c-3.15-5.11-4.51-10.01-1.48-16.01
	c4.04-8,0.96-15.61-3.25-22.65c-2.34-3.92-5.42-7.39-7.84-11.26c-4.8-7.66-6.11-15.89-4.41-24.9c1.19-6.34,1.57-12.65-0.43-19.36
	c-2.12-7.12-5.37-13.47-8.68-19.94C125.94,449.27,123.49,441.86,122.77,434.51z M46.66,378.64c0.55-3.05,0.75-6.22,1.73-9.12
	c4.81-14.32,9.89-28.56,14.75-42.87c1.26-3.72,3.41-7.02,2.06-11.63c-2.3-7.84-1.33-15.9,0.28-23.9c1.46-7.24,2.46-14.52,0.64-21.99
	c-1.61-6.63-2.54-13.42-3.85-20.6c-3.22,3.13-5.48,7.18-6.07,11.27c-1.2,8.43-2.92,16.84-2.31,25.53
	c0.93,13.29-4.45,24.95-10.73,36.14c-5.97,10.63-12.4,20.99-13.9,34.04C41.78,358.01,43.49,368.77,46.66,378.64z M161.38,303.58
	c9.28-1.8,17.23,0.55,25.68,4.12c-0.81-4.33-1.82-7.76-2.04-11.24c-0.52-8.25-0.01-16.46,2.59-24.39c0.75-2.27,0.21-3.98-1.61-5.18
	c-7.75-5.06-11.2-12.47-12.13-21.38c-0.07-0.7-0.79-1.33-1.27-2.07c-3.03,9.31-6.36,18.3-8.82,27.53c-1.54,5.76-2.63,11.91-2.3,17.8
	C161.73,293.38,163.88,297.89,161.38,303.58z"/>
</svg>
