<?xml version="1.0" encoding="utf-8"?>
<!-- Generator: Adobe Illustrator 24.0.2, SVG Export Plug-In . SVG Version: 6.00 Build 0)  -->
<svg version="1.1" id="Layer_1" xmlns="http://www.w3.org/2000/svg" xmlns:xlink="http://www.w3.org/1999/xlink" x="0px" y="0px"
	 viewBox="0 0 777.35 964.85" style="enable-background:new 0 0 777.35 964.85;" xml:space="preserve">
<style type="text/css">
	.st0{fill:#1A1A1A;}
</style>
<g>
	<path d="M315.88,325.39c-5.87,8.8-11.73,17.6-17.6,26.41c-1.72,2.58-3.42,5.16-5.56,7.46c-2.75,2.95-4.34,6.66-4.49,10.61
		c-0.1,2.86-0.99,5.61-2.67,7.22c-5.29,5.08-9.55,11.19-16.65,14.54c-5.07,2.39-9.26,6.66-13.78,10.19
		c-6.19,4.83-12.45,9.55-19.4,13.26c-10.52,5.6-20.77,11.66-30.85,18c-5.39,3.39-11.16,6.13-16.25,10.02
		c-4.15,3.16-9.04,5.63-12.58,9.23c-3.83,3.89-7.29,8.35-10.77,12.67c-9.68,12.05-21.48,20.93-36.18,25.93
		c-2.2,0.75-4.16,0.24-5.63-0.73c-5.56-3.71-12.34-3.72-18.25-6.32c-0.68-0.3-1.66-0.34-1.85-1.04c-0.72-2.56-2.63-2.49-4.71-2.56
		c-3.76-0.13-6.91-2.33-9.77-4.25c-2.37-1.58-4.77-2.7-7.34-3.58c-5.51-1.89-8.36-6.83-12.06-10.69c-1.18-1.23-3.02-2.6-3.3-4.68
		c0.33-0.28,0.65-0.7,0.79-0.64c4.02,1.53,8.16,1.24,12.33,0.92c1.28-0.1,2.73-0.43,3.86,0.52c4.14,3.5,7.73,1.98,11.05-1.24
		c1-0.96,2.29-1.96,3.33-1.96c5.97,0,9.52-3.35,12.73-7.87c1.97-2.77,4.54-5.3,8.88-5.84c-5.42-2.57-9.57-7.19-15.73-5.5
		c-2.47,0.68-4.87,0.67-7.32,0.89c-3.21,0.29-6.22-0.84-8.1-2.91c-3.09-3.41-6.67-3.5-10.61-3.22c-0.58,0.04-0.89-0.26-1.35-1.07
		c5.12-3.31,9.9-7.12,16.63-6.93c2.2,0.06,4.48-0.81,6.63-1.54c4.81-1.63,9.58-1.98,14.53-0.57c1.55,0.44,3.31,0.26,4.96,0.19
		c3.19-0.12,6.23,0.3,9.03,1.94c0.7,0.41,1.52,1.01,2.23,0.95c4.71-0.43,9.05,1.33,13.56,2.05c4.65,0.73,8.7-0.52,12.85-3.4
		c7.34-5.09,14.58-10.22,20.46-16.94c6.87-7.85,13.38-16.02,20.01-24.09c3.95-4.81,7.65-9.84,11.77-14.49
		c3.05-3.45,4.81-7.83,8.28-10.46c0.01-2.01-1.36-0.34-1.83-1.58c3.11-3.2,4.76-7.61,8.31-10.97c4.56-4.31,9.47-8.15,14.24-12.18
		c1.33-1.12,2.07-2.6,2.34-4.22c2.3-13.64,7.14-26.37,13.51-38.6c1.76-3.38,3.62-6.86,6.46-9.15c4.61-3.73,5.47-8.59,6.11-13.85
		c1.1-9,1.19-18.11,2.19-27.07c1.51-13.46,4.08-26.83,12.37-38.32c1.65-2.29,3.69-3.68,5.74-5.18c3.05-2.23,6.21-4.28,8.83-7.04
		c4.62-4.84,8.42-6.65,14.79-6.45c-0.21-1.19-0.65-2.23,1.12-2.93c4.3-1.69,8.88-1.91,13.31-2.89c10.2-2.26,19.06-7.49,28.27-12.04
		c4.33-2.14,5.15-5.45,6.81-9.38c2.55-6.03,1-11.77,1.24-17.65c-1.36,1.89-0.13,4.24-1.28,6.6c-1.99-5.99-2.63-11.79-2.45-17.93
		c-3.16,1.64-1.21,4.81-2.43,6.92c-2.52-1.23-1.61-3.86-2.32-5.72c-0.79-2.04,0.32-4.82-0.46-6.87c-0.79-2.07-0.09-4.39-1.41-6.19
		c-0.95-1.29,0.67-3.52-2.36-4.34c-1.95-0.52-0.59-3.93-1.26-6.06c-2.26,0.56-1.95,3.86-5.16,4.21c4.44-4.18,2.45-9.23,1.94-13.41
		c-0.52-4.27,0.32-7.9,1.44-11.97c-1.71,0.94-3.09,1.71-4.83,2.67c0.4-3.91,3.77-6.08,4.96-9.53c-2.14,0.21-2.49,2.57-4.86,2.47
		c0.76-1.66,2.2-2.81,2.34-4.5c-16.56-8.13-42.77-45.49-42.22-63.15c4.8-0.82,7.82,2.8,11.15,4.96
		c10.47,6.8,21.42,12.58,33.37,16.15c6.33,1.89,12.29,4.36,17.81,7.89c1.85,1.19,3.26,0.57,5.06-0.06
		c5.5-1.92,10.96-4.36,17.53-2.58c-3.28-5.84-4.15-11.92-6.1-17.64c-1.98-5.82-4.08-11.81-2.97-18.28c1.78,0.04,2.46,1.58,3.44,2.57
		c5.37,5.38,10.63,10.89,17.1,14.98c3.68,2.33,7.73,4.11,11.34,6.55c2.92,1.98,6.09,3.53,8.99,5.59c2.84,2.02,5.87,4.09,9.53,4.97
		c2.98,0.72,5.27,3.64,6.92,5.61c3.91,4.67,8.58,8.31,13.11,12.15c5.8,4.92,7.37,11.29,7.38,18.44c0,1.93-0.54,3.34-1.79,4.9
		c-3.34,4.14-3.18,7.59,0.86,11.08c5.91,5.1,11.44,10.57,16.96,16.07c1.78,1.77,4.14,2.56,6.42,3.46c2.79,1.11,4.66,2.81,4.56,6.21
		c-0.13,4.45,0.14,8.92-1.07,13.27c-0.13,0.47-0.13,1.12-0.44,1.37c-4.69,3.75-4.91,9.85-7.77,14.54c-1.37,2.25-3.29,4.07-6.43,2.78
		c-0.73-0.3-1.76-0.43-2.44-0.14c-3.07,1.31-6.04,0.83-9.08-0.02c-0.7-0.19-1.52,0.07-3.33,0.21c5.26,3.46,10.26,5.49,14.52,8.71
		c2.99,2.26,6.21,4.21,9.58,5.92c3.86,1.96,7.98,2.65,12.22,3.19c4.15,0.53,8.51,0.63,12.1,3.29c1.5,1.11,3.22,0.46,4.83,0.63
		c2.48,0.26,5.33-0.3,5.8,3.54c0.07,0.59,1.83,1.11,2.88,1.43c3.8,1.18,7.21,3.19,10.31,5.52c1.62,1.22,4.68,2.28,3.43,5.61
		c-0.11,0.28,0.37,0.87,0.69,1.21c5.07,5.4,5.28,12.8,7.89,19.21c1.13,2.78-0.95,6.29,1.68,8.71c3.57-6.83,5.86-14.22,8.53-21.42
		c1-2.7,1.9-5.92,2-9.01c0.16-4.95,0.81-9.83,2.12-14.56c1.07-3.85,0.11-7.33-1.11-10.78c-2.95-8.33,0.23-15.2,6.83-19.24
		c5.55-3.4,9.41-7.41,12.05-13.51c-1.32-1.14-1.85-3.21-2.55-5.16c-0.56-1.56-0.72-3-2.7-3.72c-2.54-0.92-1.03-3.9-2.22-6.04
		c-5.56,2.62-10.11,0.72-14.38-2.88c1.25-1.5,2.43-0.75,3.52-0.21c1.16-1.64-0.11-3.21,0.14-5.12c1.55-0.06,2.46,2.45,4.42,1.01
		c1.41-1.04,2.63-2.26,3.82-3.46c1.23-1.25,2-2.97,2.88-4.53c0.87-1.55,1.19-3.44,2.81-4.44c2.25-0.41,1.93,2.5,4,2.86
		c0.31-3.93,3.66-6.52,3.96-10.64c0.12-1.63,2.53-3.32,4.49-4.37c5.44-2.93,10.9-5.88,16.76-7.86c4.27-1.44,6.87-5.38,12.27-6.87
		c-3.64-1.33-5.75,1.68-9.09,0.05c3.82-0.92,6.44-4.15,10.01-0.86c0.83,0.76,2.26,0.93,2.79,0.45c3.22-2.9,6.33-0.39,10.45-0.23
		c-2.57,1.91,1.14,4.37-2.06,6.22c-2.28,1.31-0.15,4.95-2.66,6.95c6.21,0,7.07-6.19,11.39-8.8c-0.64,2.92-2.29,4.73-3.99,6.59
		c-5.43,5.94-11.39,11.25-17.94,15.93c-3.26,2.33-6.3,4.77-8.92,8.05c-1.51,1.9-4.74,3.43-7.51,4.7c-4.06,1.86-8.5,2.04-12.61,3.59
		c-1.23,0.46-2.37,1.01-3.58,1.56c2.1,5.49,5.43,0.51,8.44,1.36c0.89,1.35-0.34,3.45,0.99,5.7c-0.85-10.53,8.08-10.63,13.89-14.23
		c0.73,3.08,0.6,5.96,0.33,8.89c3.05-1.07,2.31-3.46,2.41-5.2c3.01-2.61,5.4-6.17,9.83-6.1c0.64-1.57,0.35-3.38,1.88-5.46
		c0.32,2.26-0.19,5.14,2.68,4.43c2.07-0.52,4.05-1.93,2.82-4.74c-0.59-1.35,0.63-1.69,1.17-2.36c1.14-1.4,2.75-2.4,3.55-4.13
		c1.16,0.21,0.3,1.43,1,1.88c4.16-0.08,0.03-4.82,3.06-5.53c-2.52-2.03-0.61-4.12-0.03-6.45c0.94,1.38,0.99,3.1,2.08,3.91
		c4.78-0.63,9.5-1.22,9.89-7.44c3.84,2.63,4.64,3.97,2.51,7.62c-2.41,4.14-3,8.54-4,13.02c-1.91,8.51-6.45,15.38-13.54,20.89
		c-4.64,3.6-8.83,7.96-12.45,12.79c-3.46,4.62-8.3,8.07-11.6,12.9c-4.21,6.15-9.86,11.35-11.44,19.15
		c-0.74,3.68-1.77,7.3-1.81,11.07c-0.07,7.33-0.56,14.72,0.13,21.98c0.71,7.45-0.16,15.03,1.1,22.27c1.51,8.68,1.64,17.3,1.76,25.99
		c0.06,4.46,0.2,8.95-1.45,13.19c-1.38,3.57-2.2,7.42-3.12,11c-2.49,9.68-6.95,18.66-9.12,28.48c-0.96,4.37-4.61,8.8-10.06,10.85
		c-3.98,1.5-7.97,3.19-12.08,3.55c-6.41,0.56-11.95-2.16-17.11-6.06c-4.42-3.34-8.71-7.15-14.57-8.04
		c-2.01-0.31-2.36-3.73-5.09-2.97c-4.75-5.2-10.97-9.01-14.9-14.89c-4.46-6.67-7.35-14.09-8.51-22.14c-1-6.92-2.59-13.75-3.26-20.98
		c-1.11,1.22-0.72,2.4-0.69,3.45c0.55,16.45-2.71,32.21-8.32,47.61c-3.41,9.35-7.02,18.52-12.51,26.93
		c-2.76,4.24-3.7,9.19-4.37,14.36c-1.6,12.45-0.6,24.88-0.77,37.31c-0.25,17.3,4.24,33.63,11.24,49.32
		c5.51,12.35,11.37,24.51,15.93,37.3c2.62,7.35,6.15,14.38,7.32,22.18c0.97,6.48,2.34,12.89,2.49,19.5
		c0.26,11.62-0.11,23.24-1.18,34.79c-0.69,7.43-2.63,14.76-4.13,22.11c-2.74,13.45-7.94,26.15-12.15,39.14
		c-2.61,8.05-4.56,16.29-6.33,24.49c-1.94,9.05,3.11,17.08,5.86,25.44c3.12,9.47,10.42,16.98,12.2,27.01
		c0.13,0.74,0.78,1.48,0.66,2.32c-0.82,6.05,2.35,11.11,4.25,16.44c0.43,1.2,1,2.5,1.24,3.68c1.72,8.45,5.7,15.85,10.11,23.1
		c0.78,1.28,1.47,2.6,2.65,3.51c3.74,2.86,4.95,7.11,6.33,11.28c0.25,0.76,0.68,1.48,1.12,2.16c6.51,10.14,12.75,20.48,19.66,30.34
		c3.63,5.18,6.92,10.57,10.61,15.24c-0.39,1.55-1.83-0.26-1.78,1.93c6.61,6.63,15.19,12.22,20.04,21.34
		c-1.98,1.07-2.95-1.2-4.87-0.74c0.22,1.13,1.15,1.76,1.86,2.42c6.59,6,11.96,13.2,18.85,18.9c5.18,4.28,10.95,7.77,15.91,12.36
		c1.86,1.73,3.98,3.08,5.82,4.97c2.7,2.78,6.91,3.5,10.79,4c1.76,0.23,3.41,0.33,4.96,1.59c-0.71,0.34-1.25,0.61-1.9,0.92
		c4.88,3.11,10.54,2.89,15.79,3.39c8.04,0.76,16.2,0.01,24.29,1.15c8.43,1.19,16.91,2.05,25.36,3.17c1.02,0.14,1.95,0.99,2.76,1.42
		c0.02,1.89-1.62,2.15-2.78,3.52c9.87,1.81,19.45,2.68,28.86,4.69c9.41,2.01,18.43,5.01,27.9,7.85c-3.01,2.5-3.05,2.13-6.68,2.51
		c-2.27,0.24-4.59-2.93-6.67,0.02c18.85,6.19,35.59,16.42,51.8,27.38c-1.02,0.83-1.02,0.83-8.11-1.07
		c-0.76,3.65,2.41,3.66,5.04,4.75c-9.59,6.55-18.93,12.46-27.01,20.02c-1.01,0.95-2.17,0.56-3.27,0.76
		c-3.7,0.67-7.34-2.45-11.05-0.14c-3.08-3.21-7.22-1.49-10.83-2.22c-11.08-2.26-21.29-7.08-31.98-10.39
		c-11.15-3.45-21.8-7.78-32-13.29c-7.91-4.27-14.76-10.22-22.49-14.75c-4.89-2.87-8.86-7.35-14.59-8.73
		c-10.13-2.43-20.13-5.27-30.08-8.38c-8.4-2.62-16.58-5.8-24.7-9.1c-17.96-7.31-34.16-17.63-49.81-28.99
		c-9.43-6.84-18.44-14.15-27.51-21.43c-4.64-3.72-8.29-8.49-13.38-11.69c-2.93-1.84-4.32-5.32-7.08-7.75
		c-3.04,10.23-7.4,19.67-10.74,29.49c-2.91,8.55-3.83,17.49-5.73,26.23c-1.09,4.98-1.28,9.68,0.97,14.38
		c0.39,0.82,0.28,2.02,0.06,2.96c-2.5,10.35,1.92,19.37,6.28,27.97c5.52,10.88,12.29,21.12,18.71,31.94c4.12-4.09,6.92,0.1,10,1.93
		c2.44-2.24,8.3-2.11,11.35-0.31c5.03,2.99,8.35,7.81,12.33,11.8c3.21,3.22,3.54,13.39-1.63,17.92c-3.11,2.72-6.83,4.45-10.49,6.26
		c-0.42,0.21-1.01,0.07-1.45,0.25c-2.22,0.92-4.2-1.86-5.97-0.81c-1.91,1.13-3.53,1.73-5.8,1.73c-1.67,0-3.15,2.16-4.74,2.67
		c-4.93,1.58-10.02,2.72-15.19,0.52c-6.27-2.68-13.12-3.13-19.46-1.81c-5.77,1.2-11.42,1.54-17.19,1.73
		c-2.91,0.1-5.52-0.91-7.94-2.18c-4.1-2.16-6.08-7.54-4.51-13.06c0.61-2.17,0.67-4.22,0.75-6.34c0.08-2.16-0.41-4.48,0.21-6.46
		c0.67-2.13,0.94-4.12,0.58-6.53c-3.33,3.69-3.69,9.51-8.77,11.86c0-3.62-0.11-6.73,0.04-9.82c0.1-2.1-0.44-3.94-1.64-5.56
		c-5.04-6.79-6.44-14.02-2.03-21.55c1.46-2.5,0.14-5.07-0.76-5.72c-4.25-3.07-3.19-7.48-3.41-11.41c-0.08-1.52,0.07-2.83-0.58-4.4
		c-4.04-9.8-4.18-19.47,2.53-28.24c3.4-4.44,3.92-9.68,4.64-14.71c1.8-12.45,1.58-25.02-3.02-36.86c-3.11-8.01-5.76-16.21-9.6-23.98
		c-2.77-5.61-4.01-11.84-3.23-18.29c0.27-2.28,0.04-4.62,0.04-7.23c-1.68,1.66-1.6,3.78-2.61,5.31c-0.92,0.07-1.48-0.44-1.29-1.13
		c1.37-5.03,2.1-10.3,2.62-15.35c1.28-12.27,6.64-23.1,10.19-34.57c1.46-4.7,2.11-9.09-0.73-14.22c-4.7-8.49-8.44-17.54-11.41-26.93
		c-2.15-6.79-3.77-13.4-3.84-20.51c-0.05-4.38,2.43-8.02,2.75-12.26c0.11-1.47,0.56-2.96,0.07-4.37c-2.85-8.11-5.3-16.38-9.16-24.11
		c-4.1,3.39-10.2,17.68-15.46,36.36c6.56,5.45,11.42,12.4,15.33,20.1c1.41,2.79,2.25,5.43,0.91,8.45c-0.7,1.58-0.46,3.31-0.32,4.93
		c0.97,11.19-2.02,21.84-4.49,32.52c-2.12,9.19-7.17,17.34-10.17,26.27c-3.92,11.66-6.25,23.44-5.44,35.79
		c0.13,1.99,0.65,3.42,2.1,4.75c2.21,2.02,4.1,4.42,6.41,6.3c6.87,5.58,7.42,12.37,5,20.36c-1.83,6.05-2.83,12.3-1.63,18.83
		c0.71,3.84,3.85,5.08,6.04,7.06c6.3,5.69,8.73,12.63,8.07,20.77c-0.39,4.8,0.91,8.95,3.87,12.61c-6.31,1.99-9.73-1.68-13.22-5.4
		c-2.87-3.06-5.93-5.94-9.08-9.06c-1.21,3.71-0.39,6.27,2.32,8.29c1.64,1.22,2.33,3.12,3.26,4.86c1.07,2,2.02,4.5,3.77,5.59
		c3.52,2.2,4.22,5.36,4.08,8.84c-0.18,4.5,1.47,9.01,0.8,13.25c-0.6,3.75,0.48,6.28,2.25,9.04c2.5,3.9-0.83,5.96-2.69,8.48
		c7.98,5.02,8.32,12.1,7.39,19.29c-0.6,4.64-2.6,8.77-4.88,12.69c-2.18,3.73-3.13,7.5-2.84,11.76c0.21,3.14,0.04,6.31,0.04,9.67
		c-2.44-0.15-3.29-1.49-4.04-3.28c-1.37-3.28-3.75-6.11-4.53-9.66c-0.5-2.29-3.43-0.41-3.93-2.85c-1.69,5.99-5.2,10.68-7.59,15.93
		c-2.39,5.25-2.06,11.1-3.67,16.61c-5.56-3.35-10.72-13.35-9.45-17.91c-4.52-0.25-4.64-4.41-6.36-7.14c-1,3.37-2.99,6.5-5.39,8.59
		c-4.59,3.99-5.31,9.18-6.27,14.39c-1.57,0.94-2.57,0.16-3.56-0.81c-3.15-3.09-5.52-7.16-5.9-11.1c-0.64-6.53-3.8-11.91-5.75-18.36
		c-1.05,3.84-1.97,7.18-2.97,10.85c-4.09-0.5-5.95-3.97-6.33-6.57c-1.32-8.94-4.67-17.29-6.61-26.03c-0.69-3.13-1.46-6.37-2.74-9.35
		c-1.43-3.35-1.03-6.27,0.69-9.38c2.19-3.97,4.13-7.74,2.62-12.92c-1.57-5.39,1.07-10.73,3.91-15.36c5.04-8.23,7.17-17.61,7.3-26.65
		c0.13-9.35-0.4-19.01-2.37-28.37c-0.3-1.43-0.32-3.07,0.04-4.48c3.33-13.11,2.46-26.33,0.84-39.49
		c-1.71-13.88-4.36-27.5-9.34-40.78c-3.91-10.44-7.75-21.08-9.8-32.17c-0.72-3.87-1.33-7.78-1.73-11.7
		c-0.49-4.91-1.13-9.8-1.2-14.78c-0.1-7.85,1.94-15.17,3.82-22.66c2.09-8.35,5.27-16.59,4.33-25.5c-0.21-1.95,0.18-3.83,0.8-5.8
		c2.12-6.78-0.65-13.15-2.63-19.38c-4.38-13.79-9.6-27.33-12.61-41.54c-1.83-8.65-4.04-17.3-3.52-26.24
		c0.21-3.55-1.15-6.81-1.11-10.3c0.11-9.38-0.53-18.81,0.19-28.14c0.77-10.06,2.6-19.95,7.11-29.31
		c6.99-14.52,13.78-29.17,18.77-44.56c2.66-8.21,6.84-15.8,10.44-23.63c6.52-14.19,8.47-29.25,7.45-44.72
		c-0.16-2.43-3.16-4.61-2.1-6.97c1.9-4.21-1.47-7.32-0.95-11.09C316.62,325.43,316.25,325.41,315.88,325.39z"/>
</g>
</svg>
