<?xml version="1.0" encoding="utf-8"?>
<!-- Generator: Adobe Illustrator 24.0.2, SVG Export Plug-In . SVG Version: 6.00 Build 0)  -->
<svg version="1.1" id="Layer_1" xmlns="http://www.w3.org/2000/svg" xmlns:xlink="http://www.w3.org/1999/xlink" x="0px" y="0px"
	 width="2476.85" height="2493.28" viewBox="0 0 2476.85 2493.28" style="enable-background:new 0 0 2476.85 2493.28;" xml:space="preserve">
<g>
	<path d="M1104.35,1125.76c1.75-1.47,3.76-1.6,5.66-2.14c5.97-1.68,7.32-3.84,7.7-10.05c0.86-13.94,2.27-27.85,1.76-41.84
		c-0.17-4.74-0.41-9.48-0.48-14.22c-0.03-2.08-0.77-3.86-2.07-6.38c-3.91,20.41-5.81,40.43-8.14,60.53
		c-4.28,0.83-8.35-0.15-11.86,2.36c-3.38,2.43-2.99,6.65-5.05,10.19c-5.49-3.48-10.46-6.74-15.54-9.82
		c-7.05-4.27-14.1-8.52-21.29-12.53c-4.6-2.57-9.42-4.52-14.97-2.66c-1.58,0.53-3.47,0.16-5.22,0.13
		c-9.56-0.18-17.39,3.44-23.84,10.47c-2.66,2.9-5.75,5.39-8.67,8.09c-1.32-0.85-1.24-2.38-1.37-3.88
		c-0.86-10.23-0.83-20.49-0.26-30.71c1.68-29.8,7.81-58.71,17.57-86.92c7.99-23.1,15.03-46.55,23.52-69.47
		c6.35-17.15,11.56-34.5,15.05-52.4c1.48-7.58,2.44-15.24,2.66-22.99c0.13-4.47,0.68-8.92,0.92-13.39c0.08-1.42,0.35-3.07-1.84-4.27
		c-1.5,2.49-1.61,5.37-2.23,8.06c-2.06,8.99-4.24,17.95-6.06,26.99c-0.98,4.85-3.71,7.81-7.86,10.23
		c-15.32,8.93-30.24,18.48-44.67,28.8c-10.37,7.42-19.71,16.07-29.49,24.21c-9.15,7.62-18.75,14.76-26.26,24.13
		c-3.05,3.81-6.95,4.36-11.38,4.08c-2.8-0.18-5.48-0.85-7.94-2.01c-20.57-9.65-40.9-19.77-59.77-32.55
		c-8.92-6.04-16.74-13.34-23.99-21.28c-2.53-2.76-5.14-5.46-7.79-8.11c-9.86-9.85-16.32-21.96-22.71-34.12
		c-9.99-19-20.23-37.87-29.94-57.01c-17.06-33.62-33.82-67.38-50.64-101.12c-2.45-4.91-4.39-10.07-6.8-14.99
		c-1.43-2.92-0.88-5.11,1.16-7.47c4.26-4.92,7.64-10.47,11.04-16.01c2.79-4.55,2.77-8.94,0.43-13.49c-1.14-2.22-2.32-4.43-3.71-6.49
		c-3.21-4.76-6.58-9.41-9.84-14.14c-1.56-2.26-3.23-4.16-5.83-5.54c-4.4-2.33-8.1-5.66-11.39-9.55
		c-8.87-10.48-17.54-21.1-25.48-32.32c-5.61-7.92-8.29-16.15-5.58-26c2.1-7.65,3.2-15.54,3.42-23.59
		c0.22-8.03,2.45-15.77,6.52-22.82c0.98-1.71,1.95-3.8,3.51-4.73c3.67-2.19,4.69-5.32,5.16-9.26c0.93-7.84,4.32-14.87,8.75-21.26
		c3.29-4.75,5.81-9.77,7.98-15.08c2.17-5.32,4.99-10.32,9.82-13.88c12.97,1.42,23.91,7.27,33.18,15.78
		c4.44,4.07,8.22,9.24,10.82,14.98c0.88,1.94,1.56,4.21,4.53,4.63c1.32-2.02,1.36-4.22,1.48-6.43c0.31-5.54,2.28-9.9,7.53-12.8
		c4.73-2.61,8.51-6.95,13.93-7.8c2.05,0.42,3.07,1.8,3.2,3.19c0.3,3.32,2.65,6.35,2.65,9.17c0,9.65,5.12,18.16,5.3,27.7
		c0.05,2.92,0.98,5.91,1.92,8.73c3.31,9.94,6.86,19.8,8.62,30.18c6.07,11.47,2.11,22.93-0.17,34.32
		c-1.82,9.05-4.01,18.05-7.58,26.59c-2.07,4.95-1.68,9.17,1.68,13.24c1.26,1.53,2.44,3.14,3.67,4.74c1.32-0.16,2.5-0.3,3.64-0.43
		c0.42,0.34,0.95,0.57,1.16,0.97c0.56,1.11,0.96,2.3,1.47,3.43c2.07,4.56,5.49,6.96,10.63,6.67c2.24-0.13,4.49-0.08,6.73-0.24
		c2.48-0.17,4.96-0.58,8.01,0.46c0.89,2.11,2.06,4.54,2.96,7.08c7.16,20.31,16.56,39.54,27.49,58.07c4.31,7.3,8.29,14.81,12.27,22.3
		c7.18,13.49,15.6,26.13,25.02,38.15c4.46,5.7,8.76,11.53,13.02,17.38c1.86,2.56,4.08,4.29,7.19,4.57c2.27-1.09,0.96-3.9,3.05-5.32
		c6.53,0.68,12.37,6.29,20.15,4.01c1.9-4.6,2.41-9.83,3.64-14.85c0.78-3.15,1.2-6.39,2.17-9.47c1.84-5.88,5.01-6.6,9.91-2.42
		c0.56,0.47,0.96,1.13,1.25,1.49c0.83,0,1.44,0.19,1.74-0.03c6.93-5.09,14.42-9.53,19.12-17.18c13.96-22.77,28.86-44.95,42.27-68.07
		c3.2-5.51,4.93-11.3,5.83-17.96c-4.92-2.45-9.99-4.94-14.21-8.95c-8-7.6-12.89-17.08-17.23-26.93
		c-4.95-11.22-8.14-23.04-11.34-34.83c-0.91-3.37-2.1-6.57-3.52-10.01c-2.77,7.61-2.93,16.16-0.77,33.38
		c-0.51,0.69-1.42,0.97-1.89,0.46c-4.82-5.32-10.24-10.06-14.49-15.95c-7.64-10.57-12.07-22.35-13.96-35.12
		c-2.15-14.53-4.06-29.09-5.97-43.66c-0.36-2.71-0.2-5.49-0.33-8.23c-0.4-8.21-1.46-16.44-1.13-24.62
		c0.71-17.64,0.37-28.85,5.29-48.22c-1.14-1.82-2.13-3.82-4.16-5.06c-3.73,0.55-5.53,3.41-6.88,6.28
		c-6.82,14.43-15.35,27.99-21.61,42.71c-2.32,5.46-5.14,10.7-8.12,16.86c-2.58-5.01-3.37-9.6-3.54-14.15
		c-0.21-5.7,0.01-11.4,0.71-17.15c2.82-23.19,10.3-44.65,22.83-64.31c8.45-13.26,16.35-26.9,26.17-39.23
		c10.25-12.88,20.6-25.69,31.1-38.36c2.32-2.79,3.79-5.67,4.68-9.15c2.72-10.63,5.12-21.36,9.51-31.49
		c0.29-0.68,0.55-1.41,0.61-2.14c0.11-1.32-0.32-2.45-1.59-3.1c-0.99-0.51-1.98-0.28-2.81,0.31c-0.81,0.57-1.48,1.33-2.21,2.02
		c-4.02,3.79-7.42,8.08-10.53,12.63c-0.8,1.18-1.13,2.9-3.43,3.05c0.48-8.54,2.62-16.57,6.16-24.24
		c4.76-10.3,11.54-19.25,18.89-27.78c8.15-9.46,16.13-19.01,21.53-30.42c0.29-0.62,1.03-1.03,1.66-1.63
		c4.44,3.94,6.81,10.12,13.19,11.89c1.38-2.03-0.53-3.2-0.99-4.65c-0.53-1.65-1.24-3.27-2.05-4.81
		c-6.96-13.18-10.74-27.48-13.22-41.95c-2.68-15.63,0.5-30.52,8.18-44.75c5.17-9.58,12.27-16.12,21.99-20.31
		c4.15-1.79,8.03-4.05,11.37-7.13c7.39-6.8,15.98-11.47,25.55-14.34c5.87-1.76,10.88-4.88,15.27-9.1c1.41-1.35,2.85-2.41,4.82-3.16
		c1.89-0.72,4.51-1.49,4.62-4.99c0.05-1.63,2.74-3.4,4.51-4.73c19.89-14.98,41.86-26.25,64.91-35.33
		c9.26-3.64,18.63-7.11,28.06-10.35c9.32-3.2,11.27-2.1,15.42,7.2c5.42,12.14,8.65,24.96,12.06,37.73
		c2.44,9.12,4.85,18.24,5.89,27.03c1.92,1.5,3.46,1.42,4.94,1.37c10.35-0.4,20.32,1.78,30.26,4.28c4.59,1.16,9.22,2.17,13.83,3.27
		c4.15,0.99,7.8,2.89,11.5,6.06c-4.65,3.63-8.99,6.89-13.18,10.33c-4.05,3.32-7.95,6.81-11.98,10.28c-3.1-0.09-4.71-3.48-7.76-3.6
		c-4.13,6.57-4.79,10.23-2.55,13.97c1.68-0.52,2.09-1.91,2.48-3.4c0.31-1.18,0.87-2.29,1.6-4.15c1.4,1.93,2.47,3.41,3.47,4.79
		c4.25,0.21,7.01-2.3,9.44-4.56c13.11-12.14,28.21-21.42,43.34-30.65c13.2-8.06,26.09-16.66,39.87-23.75
		c2.46-1.27,4.78-2.81,6.33-5.16c3.18-4.81,8.4-5.99,13.37-7.5c2.45-0.74,4.54,0.49,5.5,2.8c1.14,2.75,2.16,5.61,2.76,8.51
		c3.36,16.23,4.11,32.56,1.95,49.05c-0.77,5.91-0.87,11.9-1.56,17.85c-0.39,3.34,0.45,6.89,1.15,10.26c0.37,1.81,1.97,2.97,4.03,2.2
		c2.08-0.78,3.92-0.25,5.77,0.61c10.44,4.87,20.62,10.16,28.87,18.43c4.43,4.44,7.97,9.4,10.31,15.38
		c2.35,6.02,5.35,11.75,7.09,18.07c3.72,13.51,2.32,26.68-1.85,39.72c-2.29,7.16-5.74,13.74-10.16,19.91
		c-2,2.78-4.14,4.89-7.23,6.15c-10.39,4.23-20.79,8.42-30.05,14.35c-6.07-2.52-11.89-3.87-17.81-4.15
		c-1.03,2.74,0.17,4.33,1.72,4.95c6.1,2.45,10.85,7.01,16.53,10.14c5.97,3.29,12.21,5.62,18.74,7.34
		c12.03,3.18,24.11,6.16,36.08,9.55c7.25,2.05,13.86,5.65,19.97,10.07c8.7,6.28,17.25,12.79,26.66,18.01
		c4.19,2.33,6.33,6.28,8.27,10.34c2.49,5.22,3.84,10.8,4.52,16.53c0.41,3.41,0.63,6.83,0.93,10.29c-2.47,0.89-4.02-0.68-5.45-1.8
		c-9.97-7.83-21.64-11.03-33.88-12.84c-6.91-1.02-13.76-2.29-20.82-2.03c-3.97,0.14-7.9-0.85-11.73-1.96
		c-1.47-0.42-2.91-0.66-4.97,0.19c0.39,4.2,2.52,7.64,5.4,10.66c14.61,15.39,31.59,27.51,50.84,36.42
		c15.03,6.96,30.96,11.15,47.08,14.52c4.16,0.87,7.65,3.26,11.87,3.95c1.61,0.26,3.66,0.55,5.61,1.34
		c-7.35,5.59-17.11,9.3-24.64,10.55c-5.96,0.99-11.93,0.8-17.88,1.29c-8.51,0.7-16.92-0.3-25.24-2.34
		c-4.84-1.18-9.84-2.04-14.72,0.05c-2.78,1.19-5.33-0.93-8.46-0.53c0.71,2.77,2.84,4.07,4.57,5.58
		c6.58,5.74,13.15,11.48,19.85,17.07c12.97,10.82,23.31,23.91,33.08,37.54c13.71,19.13,20.86,40.58,23.39,63.88
		c1.3,11.99,0.69,23.94,0.76,35.9c0.03,4.93-0.84,9.92-2.63,14.64c-3.2,8.39-6.35,16.8-9.57,25.18c-0.62,1.61-1.13,3.39-3.57,3.95
		c-3.54-1.49-5.1-4.84-5.96-8.51c-1.33-5.64-4.05-10.72-6.13-16.06c-1.16-2.99-2.98-5.6-6.06-9c-1.16,14.91-2.23,28.59-3.28,42.05
		c-3.22,1.19-4.54-0.92-6.15-2.41c-7.49-6.97-14.96-13.95-22.47-20.9c-0.47-0.44-1.19-0.62-1.8-0.92c-1.04,1.7,0.49,2.36,1.11,3.25
		c6.1,8.86,13.97,16.27,20.5,24.78c13.72,17.86,29.49,33.83,45.22,49.86c9.09,9.27,18.06,18.67,27.23,27.87
		c6.68,6.71,13.62,13.16,20.4,19.76c6.27,6.1,12.06,12.68,17.23,19.72c9.6,13.08,18.85,26.41,28.25,39.64
		c2.68,3.77,4.21,7.98,4.24,12.59c0.09,11.94,0,23.89,0.07,35.83c0.02,2.92-1.28,5.28-2.64,7.67c-6.89,12.12-16.3,22.05-27.1,30.69
		c-8.97,7.17-18.23,13.96-27.86,20.24c-2.07,1.35-3.93,2.93-6.69,3c-2.99,0.08-4.49,2.8-7.13,4.24
		c5.31,13.09,10.5,25.73,15.55,38.42c2.86,7.18,6,14.31,8.09,21.73c3.4,12.08,10.24,22.07,17.51,31.93
		c11.71,15.89,22.55,32.37,32.32,49.52c11.15,19.56,19.87,40.25,27.72,61.32c4.7,12.62,9.67,25.13,12.61,38.35
		c1.35,6.1,2.46,12.22,3.19,18.39c1.41,11.9,4.38,23.51,6.11,35.34c1.23,8.37,2.39,16.72,4.35,24.99
		c1.19,5.01,0.86,10.42,0.89,15.66c0.09,17.25,0.19,34.5-0.05,51.74c-0.08,6.2,0.08,12.46-1.24,18.63
		c-0.51,2.41-0.91,5.14-0.28,7.43c1.14,4.1,0.2,7.97-0.48,11.8c-4.05,22.8-6.46,45.89-12.36,68.35c-0.18,0.7-0.22,1.43-0.44,2.98
		c3.06-3.23,4.23-6.67,5.67-9.88c8.63-19.23,13.91-39.47,17.72-60.13c0.27-1.47,0.54-2.95,0.91-4.39c0.11-0.44,0.55-0.81,1.2-1.71
		c2.08,0.52,4.41,1.13,6.75,1.66c9.88,2.25,19.27,1.41,28.06-4.14c8.94-5.65,16.43-12.98,24.01-20.21
		c3.92-3.75,8.21-7.22,9.46-13.08c0.51-2.37,2.45-4.32,4.52-5.83c0.83-0.61,1.74-0.91,2.78-0.42c1.02,0.48,1.75,1.45,1.5,2.36
		c-2.31,8.26-0.74,16.88-2.51,25.22c-2.1,9.88-5.62,19.12-10.77,27.77c-2.43,4.08-6.85,6.52-9.12,10.74
		c1.42,1.61,2.71,0.37,4.01,0.03c10.84-2.88,21.64-6.02,32.81-7.35c13.06-1.56,26.11-2.61,39.36-1.32
		c8.17,0.8,16.33,2.09,24.56,2.24c2.3,0.04,4.45,0.51,6.56,1.29c1.26,0.47,2.1,1.42,2.06,2.79c-0.04,1.36-1,2.33-2.19,2.77
		c-1.14,0.42-2.42,0.49-3.64,0.72c-15.85,2.91-30.83,8.21-44.69,16.48c-2.03,1.21-4.46,2.16-5.76,4.8c3.1,1.37,5.68-0.24,8.25-0.42
		c18.3-1.33,36.35,0.43,54.34,3.62c26.39,4.69,51.76,12.85,76.72,22.37c26.57,10.13,53.1,20.37,79.64,30.59
		c9.09,3.5,17.72,8.07,26.67,11.83c7.2,3.03,13.37,7.54,20.68,11.47c-1.74,1.67-3.57,0.38-5.33,1.22c-0.64,5.38-5.04,5.65-9.38,5.95
		c-8.93,0.62-17.86,1.2-26.8,1.8c-0.04,2.31,3.68-1.87,3.15,2.42c-0.53,4.29,168.47,57.29,168.47,67.29s-64,11-62,19
		s146.93,49.93,151,61c4.75,12.94-65.74,5.95-64,21c0.7,6.09,151.06,61.43,152,68c1.94,13.52-65.07-1.29-68,12
		c-0.68,3.1,122.68,71.82,122,75c-1.23,5.79-22.42,15.69-25,21c-1.17,2.41,29.36,32.69,28,35c-1.36,2.31-17.38,21.86-19,24
		c-2.34,3.08,28.72,34.36,26,37c-11.43,11.12-104,15-107,21s29,19,27,26s-100-10-102-6s32,22,30,28s-117-15-119-8s45,40,42,45
		s-104-13-106-8s36,22,34,26s-41.48-3.43-41.48-2.91c-20.08-8.53-57.26-25.77-59.89-20.93c-2.63,4.84,22.53,14.52,21.45,17.18
		c-1.08,2.66-10.25,1.6-14.84,1.78c-11.21,0.45-22.43,0.99-33.59-1.11c-5.74-1.08-10.94-3.48-16.15-5.82
		c-9.79-4.39-19.3-9.4-29.16-13.63c-6.86-2.94-12.54-8.01-19.74-10.25c-1.07-0.33-1.97-1.52-2.73-2.48
		c-6.09-7.68-21.31-19.96-21.31-19.96s-0.19,2.63,0.42,3.73c1.83,3.27,3.74,6.49,5.62,9.74c-0.2,1.85-1.64,3-2.35,4.1
		c-6.21,0-12.19-0.15-18.15,0.03c-13.59,0.42-26.22-2.94-37.99-9.53c-17.72-9.92-34.04-21.76-48.57-36.02
		c-2.7-2.65-4.95-5.56-6.85-8.84c-4.51-7.78-9.23-15.45-14.86-22.48c-1.66-2.07-2.27-5.59-6.43-5.04c-0.85,0.11-2.18-2.5-3.11-3.96
		c-10.1-15.77-20.22-31.53-30.24-47.35c-10.55-16.67-21.85-32.78-34.91-47.64c-1.59,1.29-0.46,2.3,0.06,3.22
		c14.92,26.25,29.69,52.59,44.9,78.67c6.16,10.56,13.05,20.71,20.01,30.77c10.65,15.42,20.42,31.4,30.63,47.09
		c9.68,14.86,20.31,29.05,31.01,43.19c0.91,1.21,1.98,2.21,3.38,2.88c18.43,8.86,36.84,17.74,55.26,26.6
		c3.37,1.62,6.86,2.91,10.49,3.93c6.57,1.84,12.14,5.53,17.71,10.21c-14.32,15.63-26.15,32.91-41.92,46.93
		c-12.5,11.11-23.84,23.52-35.65,35.38c-9.36,9.39-19.43,17.85-30.57,25.12c-26.34,17.21-52.51,34.67-78.37,52.61
		c-8.2,5.69-16.72,10.92-25.14,16.3c-6.08,3.88-11.96,7.9-17.47,12.68c-9.83,8.53-21.03,15.06-33.37,19.58
		c-6.3,2.31-12.41,5.19-18.45,8.15c-7.64,3.73-15.23,7.47-23.66,9.12c-0.93,0.18-1.81,0.68-2.66,1.02
		c-0.27,2.61,1.11,4.51,1.89,6.53c9.51,24.41,19.1,48.78,28.68,73.16c0.73,1.86,1.38,3.77,2.31,5.52
		c6.82,12.88,10.99,26.71,14.63,40.73c0.81,3.13,1.68,6.28,2.92,9.26c3.7,8.86,3.86,17.92,1.93,27.15
		c-0.61,2.91-1.29,5.81-1.91,8.57c-3.15,0.59-29.77,42-105.77,42c-73,0-94.27-41.3-97.71-41.82c-2.15-2.75-3.31-6.13-3.37-9.59
		c-0.17-10.21-0.93-20.46,1.31-30.6c0.87-3.94,1.91-7.81,4.32-11.06c1.4-1.9,2-3.99,2.52-6.16c5.59-23.09,13.3-45.47,22.39-67.39
		c3.49-8.41,4.22-17.34,5.9-25.94c-2.59-2.31-5.28-1.24-7.48-0.85c-7.69,1.36-15.4,1.35-23.13,1.31
		c-12.99-0.07-25.98-0.2-38.98-0.31c-0.5,0-1.11-0.21-1.48,0.01c-5.13,2.97-10.12,0.44-15.08-0.5c-2.23-0.42-4.42-0.66-6.66-0.7
		c-8.74-0.16-17.51,0.11-26.2-0.64c-6.48-0.56-12.93-1.07-19.4-0.81c-17.2,0.7-34.38,1.46-51.6,1.7c-7.18,0.1-14.45,1.11-21.64,0.67
		c-18.94-1.18-37.93-0.54-56.85-1.59c-11.71-0.65-23.47-0.28-35.1-1.47c-12.41-1.27-24.9-0.46-37.28-2.22
		c-5.16-0.73-10.47-0.39-15.7-0.56c-15.7-0.52-31.42-0.71-47.1-1.65c-21.94-1.31-43.93-0.67-65.85-1.66
		c-18.71-0.85-37.45,0.09-56.11-1.38c-10.67-0.84-21.37-1.28-32.04-1.99c-14.67-0.99-29.12-4.39-43.91-3.87
		c-2.19,0.08-4.5-0.54-6.5,0.84c-1.88,11.59-4.58,38.26-1.15,45.38c-3.18,3.72-7.3,6.54-11.57,8.93
		c-8.49,4.74-17.23,9.01-25.87,13.48c-4.44,2.3-9,4.31-13.79,5.79c-1.19,0.37-2.5,0.58-3.53,1.22c-9.55,5.96-20.4,7.11-31.16,8.99
		c-8.39,1.47-16.93,0.7-25.25,2.53c-7.44,1.64-15.03,2.4-21.21,7.81c-3.76,3.29-8.93,4.03-13.7,5.39
		c-12.73,3.62-25.51,7.05-38.77,7.78c-8.7,0.48-17.36,1.74-26.12,1.36c-31.63-1.37-62.44-6.58-91.63-19.36
		c-9.62-4.22-18.93-9.02-26.2-17.01c-2.5-2.75-4.34-5.19-2.81-9.24c0.75-1.99,0.35-4.45,0.35-6.69
		c-0.08-19.13,6.98-35.55,19.32-49.77c4.23-4.88,8.9-9.43,14.06-13.44c8.9-6.91,18.67-8.69,29.58-6.13
		c19.87,4.67,13.99,4.13,32.76-0.96c19.09-5.17,37.31-12.58,55.39-20.47c7.29-3.18,14.56-6.34,22.59-10.85
		c-9.9-1.04-18.54-2.69-27.06-4.92c-14.28-3.74-28.04-8.87-41.25-15.5c-7.18-3.6-11.48-9.33-12.87-17.1
		c-9.58-5.85-18.33-12.47-26.95-19.26c-4.51-3.55-9.27-6.78-13.99-10.04c-4.72-3.27-9.35-6.63-13.76-10.34
		c-4.76-4.01-9.69-7.83-15.1-11.02c-9.64-5.69-19.71-8.18-30.76-5.14c-0.16,0.04-0.4-0.2-0.6-0.31c-0.92-0.74-1.07-1.95-0.66-2.72
		c3.63-6.87,3.24-14.55,4.13-21.87c2.95-24.36,8.93-48,15.83-71.47c9.52-32.36,21.42-63.88,34.87-94.75
		c8.37-19.2,17.99-37.91,27.83-56.41c11.83-22.24,24.59-43.99,36.77-66.06c4.1-7.43,7.42-15.28,11.52-22.72
		c8.17-14.84,16.54-29.58,25.6-43.92c4.66-7.37,8.69-15.14,13.09-22.68c3.9-6.67,7.95-13.25,11.87-19.91
		c5.06-8.59,10.13-17.18,15.08-25.84c7.3-12.77,14.33-25.68,22.22-38.11c5.21-8.2,10.1-16.63,14.7-25.19
		c4.03-7.48,8.55-14.63,12.95-21.87c4.92-8.1,9.83-16.23,14.35-24.56c4.29-7.9,9-15.51,13.66-23.18
		c5.56-9.16,10.67-18.6,16.13-27.82c8.26-13.96,16.48-27.96,25.02-41.74c15.26-24.61,30.93-48.97,46.07-73.65
		c7.31-11.9,14.19-24.1,20.62-36.5c15.74-30.37,32.76-60.01,49.65-89.74c6.54-11.51,13.09-22.97,20.41-34.02
		c9.97-15.04,16.78-31.74,24.38-48.01c5.06-10.84,10.02-21.73,15.44-32.42c5.64-11.11,10.44-22.65,15.6-34.01
		c0.87-1.91,0.63-3.74,0.15-5.8C1103.98,1136.1,1103.38,1130.9,1104.35,1125.76z M1427.32,732.78c-2.86,7.74-5.16,14.59-7.94,21.23
		c-2.03,4.85-2.21,9.68-1.12,14.62c2.63,11.92,5.42,23.8,8.06,35.72c1.82,8.26,4.27,16.3,7.44,24.79
		c19.06-6.28,38.32-11.12,56.19-20.52c-5.81-10.68-9.82-21.41-14.06-32.06c-3.68-9.23-7.31-17.63-17.65-22.81
		c-1.33-0.67-2.5-1.65-3.73-2.49C1445.65,745.25,1436.81,739.23,1427.32,732.78z M1532.33,1018.47c-2.21,3.23-3.89,5.41-5.28,7.77
		c-1.9,3.22-3.86,6.44-5.29,9.88c-1.7,4.06-0.74,5.78,4.13,9c0.93-0.59,2.19-1.04,2.96-1.92c5.26-5.99,10.58-11.94,15.53-18.18
		c2.44-3.09,4.83-6.56,5.97-10.26c1.93-6.26,4.91-11.97,7.72-17.8c1.62-3.37,3.29-6.72,4.83-10.13c0.82-1.82,1.13-3.61,0.25-5.71
		c-4.73-11.29-7.68-23.19-11.72-34.72c-1.23-3.51-2.53-6.97-4.82-9.76c-0.85,0.13-1.37,0.09-1.76,0.3
		c-18.23,9.9-36.94,18.68-56.62,25.35c-1.74,0.59-3.93,1.14-4.21,3.28C1499.45,983.8,1513.99,1002.49,1532.33,1018.47z"/>
</g>
</svg>
