<?xml version="1.0" encoding="utf-8"?>
<!-- Generator: Adobe Illustrator 24.1.1, SVG Export Plug-In . SVG Version: 6.00 Build 0)  -->
<svg version="1.1" id="Layer_1" xmlns="http://www.w3.org/2000/svg" xmlns:xlink="http://www.w3.org/1999/xlink" x="0px" y="0px"
	 width="552.78" height="771.75" viewBox="0 0 552.78 771.75" style="enable-background:new 0 0 552.78 771.75;" xml:space="preserve">
<style type="text/css">
	.st0{fill:#1A1A1A;}
</style>
<g>
	<path d="M388.78,759.66c-0.27,0.25-0.47,0.4-0.61,0.58c-2.76,3.52-6.68,4.78-10.84,5.52c-6.51,1.15-12.88,0.41-19.07-1.83
		c-2.98-1.07-5.58-2.82-7.68-5.16c-0.96-1.06-1.9-1.62-3.29-1.47c-0.63,0.07-1.27,0.09-1.9,0.15c-0.39,0.04-0.8,0.2-1.18,0.14
		c-5.18-0.82-10.5-0.73-15.58-2.27c-1.22-0.37-2.43-0.79-3.64-1.2c-0.53-0.18-1.04-0.54-1.57-0.56c-2.71-0.14-4.28-1.91-5.73-3.87
		c-0.19-0.26-0.36-0.53-0.58-0.86c-1.29-0.33-2.65-0.19-3.99-0.14c-1.91,0.08-3.82,0.28-5.71,0.51c-4.48,0.53-8.91,0.42-13.31-0.65
		c-3.25-0.79-6.14-2.22-8.46-4.7c-2.55-2.73-3.68-5.95-3.33-9.65c0.28-2.97,2.01-4.96,4.89-5.82c1.53-0.46,3.09-0.79,4.69-0.83
		c3.28-0.08,6.32-1.02,9.05-2.78c3.05-1.97,6.24-3.53,10-4.09c-0.48-3.22-0.94-6.35-1.42-9.48c-0.9-5.83-1.82-11.66-2.73-17.48
		c-0.86-5.51-1.68-11.03-2.61-16.53c-1.47-8.73-2.99-17.44-4.51-26.16c-0.48-2.75-1.06-5.48-1.53-8.23
		c-0.12-0.73-0.52-1.12-1.08-1.46c-5.09-3.12-7.31-8.04-8.5-13.58c-0.67-3.11-0.35-6.18,0.61-9.2c0.46-1.46,1.15-2.81,2.07-4.04
		c0.57-0.76,0.63-1.51,0.39-2.46c-1.36-5.5-2.62-11.02-3.93-16.54c-0.79-3.34-0.68-6.65,0.39-9.9c1.62-4.93,3.27-9.85,4.98-14.75
		c0.97-2.78,2.59-5.04,5.29-6.52c2.81-1.54,5.7-2.87,8.8-3.93c2.6-7.82,6.23-15.05,12.19-20.85c-1.24-2.14-2.94-3.73-4.46-5.47
		c-6.6-7.57-12.09-15.89-16.55-24.87c-1.85-3.72-3.41-7.57-5.58-11.13c-0.83-1.36-1.65-2.74-2.51-4.09
		c-1.71-2.7-3.32-5.46-4.68-8.36c-0.23-0.48-0.35-1.07-0.92-1.36c-0.54,0.15-0.42,0.63-0.43,0.97c-0.26,8.68-2.13,17.06-4.65,25.33
		c-1.66,5.43-3.6,10.75-5.7,16.02c-0.83,2.1-1.14,4.31-1.51,6.51c-0.68,4.09-1.18,8.21-2,12.27c-0.79,3.91-1.65,7.83-2.93,11.59
		c-0.81,2.37-1.27,4.7-1.52,7.17c-0.49,5.01-1.42,9.95-3.19,14.69c-3.57,9.53-8.47,18.23-15.73,25.49
		c-2.21,2.21-4.57,4.23-6.89,6.31c-1,0.9-2.19,1.58-3.42,2.46c0,1.68-0.11,3.45,0.02,5.19c0.35,4.4,0.18,8.8-0.09,13.18
		c-0.82,13.17-2.9,26.14-6.59,38.83c-1.83,6.29-3.97,12.48-6.73,18.43c-0.58,1.25-0.73,2.45-0.62,3.89
		c0.5,6.52,1.3,13.01,2.18,19.48c0.67,4.97,1.24,9.97,2.37,14.87c0.9,3.88,2.02,7.72,3.01,11.58c0.43,1.7,0.9,3.41,1.13,5.14
		c0.36,2.63,1.45,4.9,3.08,6.9c3.97,4.92,3.65,10.16,1.17,15.51c-1.19,2.57-3.61,3.76-6.21,4.51c-2.23,0.65-4.54,0.93-6.85,1.05
		c-4.17,0.22-8.29,0.13-12.23-1.62c-2.22-0.99-4.2-2.26-5.9-4.08c-8.79,0.13-17.51-0.68-26.25-1.87c-2.98,3.15-6.82,4.47-10.99,5.25
		c-3.06,0.57-6.04,0.1-9.03-0.29c-1.58-0.21-3.14-0.51-4.69-0.93c-4.62-1.25-7.1-4.34-7.84-8.95c-0.29-1.83-0.25-3.67,0.01-5.5
		c0.35-2.39,1.66-4.29,3.17-6.05c0.69-0.8,1.37-1.55,1.51-2.62c-0.35-0.41-0.73-0.26-1.1-0.12c-4.82,1.8-9.84,2.6-14.91,3.35
		c-6.6,0.98-13.23,0.91-19.84,0.7c-5.97-0.19-11.92-0.89-17.81-1.96c-7.47-1.35-14.8-3.26-21.97-5.78
		c-10.07-3.54-19.61-8.15-28.53-14.01c-6.29-4.13-12.18-8.76-17.7-13.88c-3.53-3.27-6.73-6.81-9.9-10.41
		c-1.49-1.69-2.69-3.57-3.91-5.44c-4.2-6.46-7.59-13.33-10.1-20.6c-2.01-5.82-3.38-11.8-4.09-17.93
		c-0.63-5.42-0.57-10.84-0.28-16.27c0.11-2.06,0.47-4.11,0.79-6.16c0.44-2.75,0.88-5.51,1.48-8.24c0.86-3.87,2.52-7.39,5.03-10.49
		c0.83-1.02,1.87-1.74,3.06-2.25c1.41-0.62,2.28-0.24,2.75,1.24c0.19,0.6,0.26,1.25,0.3,1.89c0.17,2.78,0.4,5.57,0.45,8.36
		c0.09,4.38,1.19,8.53,2.65,12.59c1.44,3.99,3.06,7.89,5.71,11.29c0.55,0.71,1.07,1.35,1.94,1.67c1.48,0.54,2.5,1.64,3.45,2.86
		c2.12,2.69,3.95,5.6,6.19,8.22c1.9,2.21,4.17,3.95,6.47,5.67c2.3,1.72,4.72,3.28,7.11,4.88c0.8,0.54,1.65,0.87,2.64,1.02
		c2.3,0.35,4.41,1.22,6.47,2.38c3.55,1.99,7.18,3.86,10.9,5.5c3.29,1.45,6.89,1.98,10.43,2.59c1.02,0.18,2.05,0.33,3.07,0.44
		c0.63,0.07,1.32,0.21,1.9,0.03c2.75-0.87,5.55-0.51,8.33-0.44c5.19,0.13,10.39,0.27,15.54-0.49c4.28-0.62,8.36-2.06,12.44-3.45
		c0.46-0.16,0.89-0.38,1.18-0.79c1.34-1.84,3.31-2.74,5.36-3.44c3.22-1.11,6.06-2.84,8.69-4.96c0.87-0.7,1.72-1.44,2.64-2.07
		c2.33-1.6,4.15-3.7,6.01-5.8c2.48-2.79,3.62-6.17,4.73-9.59c0.34-1.06,0.57-2.16,0.78-3.26c0.32-1.65,0.49-3.23-0.51-4.83
		c-0.8-1.29-0.84-2.9-0.75-4.43c0.32-5.2-0.16-10.35-0.81-15.51c-0.47-3.73-2.03-7.04-3.59-10.36c-2.65-5.64-5.38-11.24-8.07-16.86
		c-0.29-0.6-0.6-1.14-1.24-1.4c-1.53-0.62-2.24-1.94-3-3.28c-1.08-1.88-1.7-3.95-2.6-5.91c-3.1-6.76-5.92-13.63-7.85-20.82
		c-2-7.47-3.87-14.98-4.47-22.74c-0.13-1.74-0.4-3.49-1.71-4.86c-0.77-0.81-0.75-1.91-0.89-2.93c-0.42-3.08-0.92-6.15-1.19-9.24
		c-0.68-7.73-0.62-15.49-0.43-23.23c0.12-4.86,0.96-9.67,1.97-14.43c1-4.68,1.95-9.37,2.94-14.05c0.1-0.48,0.16-0.94,0-1.41
		c-0.61-1.76-0.29-3.49,0.22-5.18c0.89-2.9,1.75-5.81,3.27-8.6c-1.97-4.55-4.22-9.04-5.54-13.76c-0.71-0.15-0.98,0.2-1.32,0.35
		c-2.51,1.05-4.83,0.18-5.92-2.33c-1.28-2.95-1.38-6.07-0.9-9.18c0.72-4.71,0.52-9.38-0.36-14.05c-0.74-3.93-1.96-7.73-3.2-11.52
		c-2.49-7.6-4.23-15.38-5.67-23.23c-1.13-6.2-1.92-12.44-2.46-18.72c-0.32-3.74-0.45-7.48-0.61-11.23
		c-0.16-3.73-0.34-7.48-0.78-11.2c-0.35-3-0.41-6.05-0.68-9.06c-0.2-2.18,0.15-4.28,0.08-6.42c-0.12-3.26-0.1-6.53,0.19-9.78
		c0.77-8.63,2.24-17.1,6.17-24.94c3.14-6.27,7.18-11.9,12.64-16.38c0.98-0.81,1.29-1.65,1.35-2.85c0.57-10.31,2-20.46,5.3-30.3
		c0.91-2.71,1.46-5.55,2.13-8.34c1.68-6.95,4.17-13.57,7.91-19.7c1.7-2.79,3.45-5.56,4.82-8.56c0.71-1.56,1.06-3.18,1.23-4.83
		c0.93-9.08,4.2-17.33,8.9-25.06c5.98-9.84,13.75-18.01,23.26-24.49c5.04-3.43,10.45-6.2,16.25-8.1c6.22-2.04,12.51-3.86,18.73-5.89
		c2.58-0.84,5.06-1.95,7.58-2.96c0.75-0.3,1.37-0.75,1.83-1.47c1.05-1.66,2.56-2.86,4.24-3.82c2.93-1.67,5.62-3.66,8.09-5.94
		c0.76-0.7,1.59-1.36,2.11-2.28c1.37-2.42,3.4-4.21,5.52-5.93c2.17-1.76,4.44-3.39,6.49-5.3c2.36-2.21,4.4-4.54,5.29-7.79
		c0.52-1.91,1.44-3.73,2.34-5.5c0.71-1.4,0.77-2.58,0-4.03c-1.39-2.6-2.66-5.27-3.64-8.07c-1.01-2.88-1.58-5.84-1.85-8.88
		c-0.22-2.46-0.61-4.9-0.98-7.34c-0.52-3.41-0.46-6.84-0.38-10.27c0.22-8.65,2.59-16.83,5.43-24.91c1.25-3.55,2.98-6.88,4.39-10.35
		c2.58-6.36,5.25-12.69,7.92-19.01c1.02-2.43,2.11-4.83,3.24-7.21c0.63-1.32,2.24-1.58,3.12-0.58c0.53,0.59,0.54,1.32,0.36,2.04
		c-0.29,1.16-0.6,2.32-0.92,3.47c-0.76,2.74-0.84,5.51-0.19,8.27c0.11,0.45-0.33,0.95,0.26,1.38c10.91-3.69,21.52-2.74,32.04,2.51
		c0.87-0.48,1.77-1.36,2.67-2.24c4.22-4.15,8.44-8.29,12.66-12.44c0.23-0.22,0.45-0.46,0.69-0.67c1.96-1.67,4.38-0.99,5.24,1.49
		c0.34,0.99,0.36,2.04,0.53,3.06c0.66,4.02,0.29,7.95-0.84,11.83c-0.42,1.46-0.87,2.91-1.36,4.34c-0.33,0.96-0.51,2.06-1.78,2.34
		c-0.2,0.04-0.46,0.27-0.52,0.46c-0.49,1.51-0.97,3.02-1.39,4.55c-0.07,0.25,0.13,0.62,0.31,0.86c0.37,0.52,0.76,1.04,1.23,1.47
		c4.24,3.85,6.4,8.88,8.09,14.19c1.07,3.37,1.44,6.85,1.82,10.34c0.04,0.4,0.03,0.82,0.16,1.18c1.4,3.66,1.63,7.5,1.38,11.33
		c-0.17,2.75,0.17,5.4,0.64,8.07c0.59,3.41,0.62,6.88,0.05,10.26c-0.45,2.67-0.08,5.06,0.95,7.45c1.01,2.35,2.06,4.68,3.02,7.04
		c0.42,1.03,0.89,2.12,0.93,3.2c0.09,2.64,1.56,4.51,3.22,6.23c2.05,2.13,4.25,4.11,6.42,6.12c1.89,1.76,3.51,3.71,4.46,6.13
		c0.33,0.84,0.85,1.53,1.4,2.21c2.37,2.93,5,5.59,7.95,7.93c1.95,1.55,3.88,3.1,4.94,5.44c0.31,0.69,0.97,0.77,1.55,1
		c3.79,1.51,7.67,2.72,11.6,3.82c5.23,1.46,10.44,2.99,15.42,5.19c7.96,3.53,15.06,8.34,21.32,14.42
		c5.54,5.38,10.34,11.31,14.17,18.03c4.03,7.08,6.88,14.61,7.81,22.71c0.57,4.91,0.6,9.88-0.1,14.82c-0.37,2.6-0.73,5.21-1.11,7.81
		c-0.14,0.97-0.05,1.89,0.23,2.84c1.46,4.99,2.25,10.11,3.04,15.24c0.52,3.39,1.24,6.78,1.36,10.18c0.19,5.15,1.56,10.08,2.27,15.13
		c0.5,3.55,0.96,7.1,1.38,10.67c0.49,4.2,0.27,8.45,0.91,12.78c2.81,2.42,5.37,5.24,7.61,8.38c1.44,2.03,2.68,4.17,3.84,6.35
		c5.09,9.55,9.13,19.52,11.71,30.06c1.23,5.04,2.18,10.13,2.78,15.29c0.39,3.32,0.93,6.63,1.45,9.94c0.48,3.07,0.65,6.18,0.94,9.27
		c0.43,4.7,0.16,9.43,0.53,14.11c0.35,4.37,0.29,8.76,0.66,13.13c0.31,3.73,0.45,7.48,0.73,11.22c0.2,2.7,0.58,5.39,0.73,8.09
		c0.12,2.23,0.37,4.45,0.49,6.68c0.11,1.97-0.22,3.97-0.86,5.88c-0.63,1.88-1.64,3.31-3.92,3.26c-0.47,0.8-0.66,1.62-0.77,2.5
		c-0.76,6.03-2.04,11.95-3.76,17.77c-0.36,1.22-0.94,2.38-1.39,3.57c-2.44,6.43-4.21,13.06-5.48,19.82
		c-0.65,3.45-1.38,6.89-1.76,10.37c-0.27,2.47-1.47,4.16-3.26,5.61c-0.8,0.65-1.68,1.2-2.59,1.85c-0.64,3.26-1.28,6.54-1.92,9.82
		c-0.06,0.31-0.11,0.63-0.17,0.94c-0.66,3.22-2.31,5.41-5.66,6.42c-3.06,0.91-6.03,2.08-9.24,2.36c-1.55,0.14-2.87,0.6-3.85,2.03
		c-0.86,1.24-2.28,2.05-3.64,2.66c-1.52,0.69-2.2,1.72-2.39,3.27c-0.47,3.71-0.87,7.44-1.46,11.14c-0.54,3.39-0.95,6.79-1.27,10.19
		c-0.35,3.65-0.61,7.31-0.74,10.98c-0.06,1.84-0.29,3.65-0.35,5.48c-0.09,2.72,0.26,5.42,0.36,8.12c0.28,7.83-1.55,14.98-6.87,21.08
		c-4.79,5.5-10.78,8.9-17.65,10.96c-2.52,0.76-5.07,1.43-7.75,1.33c-0.67-0.03-1.23,0.19-1.77,0.57c-4.71,3.32-9.79,6.02-14.88,8.7
		c-6.08,3.2-12.31,6.08-18.56,8.93c-0.43,0.2-0.83,0.44-1.38,0.73c1.79,3.13,2.01,6.55,2.17,9.95c0.15,2.95-0.21,5.78-2.93,7.81
		c0.71,2.74,1.37,5.44,2.11,8.12c3.67,13.26,8.34,26.16,13.97,38.71c5.24,11.67,11.16,22.99,17.77,33.95
		c0.74,1.23,1.49,2.45,2.56,3.36c0.66,0.22,1.18-0.09,1.67-0.3c3.14-1.33,6.52-1.54,9.83-1.73c2.62-0.15,5.17,0.85,7.53,2.08
		c1.79,0.93,3.42,2.06,4.78,3.56c2.54,2.8,5.52,5.08,8.66,7.16c1,0.66,2.04,1.2,3.16,1.67c2.3,0.96,4.4,2.26,5.92,4.33
		c0.88,1.2,1.38,2.51,1.37,4c-0.01,1.04,0.06,2.09-0.07,3.12c-0.51,4.1-2.67,7.13-6.25,9.11c-3.62,2-7.61,2.85-11.69,3.25
		C399.82,762.66,394.3,761.7,388.78,759.66z M402.34,421.42c-5.15-9.7-10.91-18.61-17.74-26.78c-3.95-4.72-7.93-9.39-11.16-14.65
		c-2.42-3.95-4.71-7.97-6.14-12.42c-2.45-7.6-3.19-15.43-3.25-23.35c-0.01-1.11,0.24-2.21,0.29-3.32c0.09-1.83,0.2-3.65,0.4-5.48
		c0.16-1.46,0.52-2.94-0.13-4.48c-2.16-5.07-3.81-10.32-5.11-15.68c-0.15-0.6-0.14-1.34-0.77-2.08c-0.81,1.68-1.67,3.02-2.05,4.56
		c-1.31,5.24-1.71,10.48-0.67,15.86c1.1,5.63,1.59,11.36,1.64,17.11c0.01,1.21-0.36,2.37-0.34,3.56c0.11,5.71,1.37,11.09,4.92,15.71
		c3.94,5.13,7.7,10.38,11.24,15.8c7.85,11.99,14.48,24.63,20.46,37.63c0.76,1.65,1.28,3.42,2.39,4.99
		C398.63,426.28,400.19,423.67,402.34,421.42z M181.02,373.63c1.45-1.02,2.28-2.04,2.97-3.23c1.22-2.07,2.61-4.03,4.45-5.6
		c2.92-2.48,5.97-4.8,9.19-6.87c1.63-1.05,3.02-2.32,4.44-3.61c1.11-1,1.38-2.05,0.95-3.41c-0.85-2.66-1.69-5.32-2.49-7.99
		c-0.42-1.4-1.11-2.63-1.93-3.82c-3.88-5.58-7.2-11.42-8.21-18.27c-0.15,0-0.26-0.03-0.3,0c-2.84,2.68-5.66,5.38-8.5,8.06
		c-0.53,0.5-0.61,1.06-0.48,1.74c0.39,1.95,0.7,3.92,1.12,5.86c0.67,3.12,0.95,6.3,1.14,9.47c0.23,3.82,0.26,7.65,0.03,11.48
		c-0.21,3.58-0.62,7.13-1.25,10.66C181.84,369.82,181.04,371.43,181.02,373.63z M156.33,520.43c-0.98,1.4-1.19,2.82-1.15,4.39
		c0.08,3.82,1.8,7.24,2.5,10.9c0.1,0.55,0.51,0.93,1.08,1.18c2.35,1.04,4.37,2.61,6.5,4.01c2.05,1.35,3.33,3.15,4.12,5.39
		c0.4,1.12,0.82,2.23,1.28,3.5c0.89-1.16,1.31-2.37,1.9-3.49c0.32-0.6,0.31-1.23,0.19-1.87c-0.45-2.35-0.65-4.72-0.79-7.11
		c-0.21-3.66-0.66-7.3-0.56-10.98c0.05-1.81,0.2-3.61,0.32-5.66c-2.61-0.14-5.1,0.6-7.63,0.48
		C161.53,521.07,159.03,520.56,156.33,520.43z"/>
</g>
<g>
	<path class="st0" d="M345.15,389.36c13.41,9.06,26.89,18.14,38.86,29.52c-1.4,3.23-0.72,6.37,0.45,9.5
		c0.4,1.06,0.83,2.13,1.68,2.87c0.86,0.75,0.94,1.57,0.75,2.58c-1.24,6.43-2.8,12.78-4.73,19.04c-0.89,2.9-1.84,5.78-2.83,8.65
		c-0.63,1.82-1.01,3.69-1.39,5.56c-0.32,1.58-0.24,3.19,0.21,4.75c0.85,2.99,1.77,5.97,2.62,8.96c1.85,6.53,3.16,13.18,4.23,19.88
		c1.53,9.52,2.96,19.06,4.45,28.58c0.88,5.59,1.8,11.17,2.7,16.75c0.02,0.15-0.04,0.31-0.06,0.47c-0.25,0.51-0.76,0.49-1.22,0.62
		c-0.76,0.22-1.56,0.4-2.26,0.76c-2.26,1.18-4.63,2.23-6.7,3.7c-6.38,4.53-12.87,8.91-18.98,13.82c-2.74,2.2-5.39,4.47-7.8,7.09
		c-1.48-0.32-2.05-1.55-2.72-2.57c-0.92-1.41-1.96-2.72-3.03-4c-3.42-4.07-7.6-7.28-11.81-10.45c-2.99-2.25-6.15-4.33-8.65-7.16
		c-1.74-1.97-3.27-4.13-4.99-6.12c-3.39-3.93-6.76-7.86-9.94-11.97c-4.61-5.95-8.75-12.19-12.42-18.76
		c-1.64-2.93-3.23-5.86-4.59-8.94c-0.9-2.04-2.02-3.99-3.18-5.9c-1.34-2.2-2.44-4.47-3.02-6.99c-0.06-0.27-0.29-0.5-0.49-0.82
		c-0.14,0.43-0.26,0.78-0.47,1.44c-0.98-1.77-1.89-3.31-2.7-4.91c-0.8-1.56-1.44-3.21-2.26-4.76c-0.82-1.56-0.74-3.27-0.9-4.9
		c-0.27-2.79-0.78-5.52-1.36-8.25c-0.33-1.54-0.11-1.8,1.48-1.92c8.46-0.66,15.67-4.12,21.83-9.85c3.84-3.58,6.87-7.79,9.1-12.53
		c1.64-3.48,3.89-6.6,5.45-10.11c1.01-2.26,2.07-4.5,3.14-6.73c0.37-0.78,0.62-1.66,1.45-2.14c0.13-0.08,0.33-0.2,0.33-0.31
		c0.05-2.56,1.74-4.41,2.94-6.4c2.98-4.91,5.96-9.83,9.39-14.45c1.43-1.93,2.39-4.15,3.51-6.26c1.05-1.97,1.96-4.02,2.93-6.03
		C344.36,390.23,344.52,389.77,345.15,389.36z M289.91,486.51c-0.4-1.11-0.23-2.4-1.55-3.77
		C288.88,484.38,288.99,485.59,289.91,486.51z"/>
	<path class="st0" d="M335.55,373.35c-1.08,3.66-2.09,7.34-3.65,10.86c-1.33,3-3.42,5.15-6.38,6.5c-5.55,2.52-11.42,4.06-17.32,5.49
		c-2.96,0.71-5.96,1.02-9.01,0.98c-2-0.03-3.99,0.09-5.99,0.14c-1.69,0.04-3.33-0.3-4.98-0.59c-6.76-1.17-13.49-2.46-19.98-4.78
		c-2.26-0.81-4.45-1.76-6.6-2.83c-1.32-0.66-2.4-1.53-3.2-2.79c-1.64-2.56-3.06-5.25-4.31-8.01c-2.64-5.82-4.9-11.78-6.55-17.97
		c-1.54-5.76-1.45-11.5-0.56-17.31c0.33-2.14,1-4.18,1.54-6.26c0.51-1.98,0.19-3.59-1.23-5.28c-3.51-4.16-5.51-9.14-6.73-14.41
		c-0.67-2.88-1.05-5.8-1.06-8.77c0-1.42-0.06-2.83-0.03-4.25c0.03-1.94,0.96-3.17,2.51-4.04c0.9-0.5,1.87-0.91,2.86-1.22
		c11.67-3.59,23.45-6.77,35.45-9.09c5.17-1,10.34-1.93,15.55-2.66c1.89-0.26,3.82-0.21,5.74-0.29c8.92-0.35,17.69,0.86,26.31,3.02
		c4.32,1.09,8.73,1.94,12.87,3.69c2.06,0.87,4.14,1.67,5.87,3.14c0.31,0.26,0.72,0.34,1.04,0.52c1.26,0.73,2.12,1.68,2.39,3.29
		c1.24,7.43,0.29,14.63-2.03,21.71c-0.32,0.98-0.75,1.94-1.23,2.86c-1.3,2.47-2.59,4.96-4,7.37c-2.04,3.51-2.88,7.23-2.3,11.27
		c0.5,3.49,0.3,6.98,0.05,10.49c-0.26,3.7-1.11,7.25-2.13,10.78c-0.83,2.88-1.62,5.78-2.93,8.5c-0.04-0.64-0.08-1.28-0.12-1.92
		c-0.02,0-0.03,0-0.05,0.01C335.42,372.11,335.48,372.73,335.55,373.35z M300.23,371.6c1.18-1.18,0.57-2.4,0.04-3.95
		c-0.45,1.53,0.07,2.73,0,3.92c0.59,2.1,0.29,4.35,1.18,6.82c0.11-2.33,0.25-4.25-0.36-6.15
		C300.94,371.78,300.63,371.67,300.23,371.6z M299.37,341.88c0.31-1.2,0.28-2.63,0.04-3.87C299,339.25,299.08,340.67,299.37,341.88z
		 M299.78,390.77c0.33-0.89,0.38-1.71,0-2.51C299.78,389.09,299.78,389.93,299.78,390.77z M303.17,305.78
		c0.05,0.01,0.09,0.03,0.14,0.04c-0.02-0.22-0.04-0.43-0.05-0.65c-0.01-0.1-0.02-0.19-0.03-0.29c-0.01,0.15-0.02,0.3-0.03,0.45
		C303.19,305.49,303.18,305.63,303.17,305.78z"/>
	<path class="st0" d="M272.09,521.75c0.52,1.61-0.12,3.16-0.29,4.72c-0.17,1.58-0.61,3.13-0.76,4.71c-0.53,5.41-1.96,10.66-2.88,16
		c-0.26,1.49-0.62,2.97-0.91,4.45c-1.17,5.93-4.04,11.05-7.64,15.81c-2.71,3.57-5.72,6.87-8.98,9.94c-0.91,0.86-1.96,1.56-3.15,2.5
		c-0.24-1.3-0.4-2.3-0.61-3.28c-0.38-1.82-0.98-3.54-2.15-5.01c-2.19-2.75-4.4-5.48-6.57-8.23c-1.59-2.01-3.42-3.82-5.34-5.49
		c-2.06-1.78-3.68-3.98-5.81-5.68c-1.25-0.99-2.67-1.7-4.05-2.57c0.5-2.69,0.99-5.26,1.46-7.83c1.38-7.52,2.81-15.04,4.13-22.58
		c1.32-7.54,2.63-15.07,3.74-22.64c0.85-5.83,1.77-11.66,2.2-17.55c0.13-1.82,0.41-3.62,0.33-5.47c-0.11-2.46-0.86-4.66-2.16-6.74
		c-4.65-7.47-8.77-15.21-11.98-23.42c-1.25-3.19-2.37-6.43-2.99-9.99c2.46-1.78,3.96-4.08,3.85-7.38c-0.12-3.33-2.03-5.42-4.54-7.4
		c0.5-3.68,1.54-7.28,2.39-10.91c0.87-3.73,1.81-7.44,2.68-11.17c0.85-3.66,2.42-7.07,3.56-10.7c1.25-0.12,2.16,0.52,3.09,1.1
		c1.72,1.06,3.04,2.58,4.55,3.88c2.29,1.98,4.46,4.09,6.64,6.19c4.17,4.02,7.38,8.79,11.17,13.1c0.74,0.84,1.43,1.71,2.16,2.56
		c2.89,3.34,5.09,7.13,7.04,11.07c4.13,8.37,8.11,16.83,12.7,24.97c3.14,5.57,5.99,11.27,7.61,17.51c1.11,4.26,1.73,8.57,1.9,12.98
		c0.11,2.87,0.04,5.72-0.15,8.56c-0.42,6.31-1.73,12.47-3.43,18.55c-1.46,5.23-3.2,10.37-5.14,15.44c-0.17,0.45-0.3,0.9-0.86,1.29
		c-0.2-1.15,0.65-2.21,0-3.35c-0.31,0.74-0.02,1.69-0.86,2.1c0.32-0.85,0.23-1.7,0.02-2.55
		C271.83,520.09,271.7,520.93,272.09,521.75z M227.7,395.84c-0.88,0.11-1.6-0.8-2.63-0.38c-0.54,0.78-1.05,1.65-0.98,2.8
		c1.71,1.19,3.39,2.34,5.36,2.88c1.57-2.05,1.51-2.62-0.24-4.02c-0.55-0.44-1.28-0.66-1.6-1.37c1.25,0.21,2.16,1.38,3.47,1.31
		c0.6-0.28,0.81-0.8,1.06-1.31c0.28-0.57,0.25-1.1-0.22-1.53c-1.51-1.37-3.12-2.61-5.08-3.28c-1.65,3.02-1.1,3,0.43,4.34
		C227.45,395.44,227.56,395.65,227.7,395.84z M228,405.12c1.44-1.62,1.45-2.21-0.01-3.26c-0.77-0.55-1.62-1-2.49-1.39
		c-1.14-0.52-1.68-0.32-2.18,0.62c-0.65,1.25-0.54,2.05,0.48,2.65C225.11,404.51,226.5,405.06,228,405.12z"/>
	<path class="st0" d="M125.28,304.96c-0.25-4.19,0.59-8.27,1.2-12.37c0.92-6.16,2.24-12.23,4.16-18.17
		c3.26-10.09,7.67-19.61,13.87-28.26c1.33-1.85,2.91-3.37,4.84-4.56c6.48-4.02,13.33-7.21,20.67-9.29c5.41-1.54,10.94-2.32,16.55-2
		c6.91,0.39,13.53,2.08,19.81,5.04c0.9,0.43,1.59,1.02,2.16,1.81c0.8,1.1,1.61,2.19,2.49,3.22c2.59,3.05,3.69,6.64,4.04,10.54
		c0.55,6.11-0.33,12.11-1.63,18.04c-2.23,10.17-5.58,19.98-10.12,29.35c-3.89,8.01-8.65,15.46-15.04,21.77
		c-0.57,0.56-1.03,1.22-1.59,1.79c-5.33,5.41-10.95,10.48-17.25,14.78c-4.37,2.99-9.11,4.98-14.34,5.63
		c-3.81,0.48-7.66,0.31-11.35-0.97c-2.56-0.89-4.61-2.6-6.38-4.54c-4.15-4.55-6.94-9.91-8.85-15.74c-0.55-1.67-1.16-3.31-1.66-4.99
		c-0.54-1.83-1.1-3.66-1.19-5.6C125.6,308.62,125.41,306.79,125.28,304.96z"/>
	<path class="st0" d="M196.65,201.17c3.57-0.57,6.94-1.11,10.32-1.64c1.1-0.17,2.21-0.39,3.31-0.44c1.48-0.06,2.54-0.67,3.45-1.82
		c2.03-2.57,4.21-5.02,6.19-7.62c1.19-1.56,2.56-2.62,4.4-3.44c3.79-1.69,7.56-3.43,11.36-5.11c2.19-0.97,4.34-2.03,6.52-3.02
		c3.58-1.62,5.93-4.24,6.75-8.14c0.11-0.54,0.33-1.06,0.5-1.59c0.02-0.07,0.09-0.13,0.18-0.23c0.44-0.49,1.15-0.52,1.74-0.57
		c3.4-0.27,6.76-0.8,10.24-0.44c3.33,0.35,6.66,0.65,9.98,1.11c5.54,0.77,10.98,2.03,16.36,3.53c0.98,0.27,1.68,0.72,2.07,1.75
		c2.9,7.61,5.82,15.2,7.41,23.24c1.34,6.79,1.75,13.64,1.12,20.49c-0.59,6.32-2.48,12.31-5.5,17.96c-2.36,4.42-6.03,7.09-10.53,8.93
		c-3.65,1.49-7.47,2.31-11.27,3.21c-7.99,1.91-16.05,3.54-24.14,4.98c-6.31,1.12-12.53,0.49-18.72-1.14
		c-5.91-1.56-10.37-5.22-14.34-9.56c-7.69-8.4-12.73-18.3-16.19-29.08c-0.4-1.24-0.5-2.5-0.66-3.76c-0.25-1.97-0.46-3.95-0.65-5.93
		C196.48,202.38,196.59,201.9,196.65,201.17z"/>
	<path class="st0" d="M298.35,226.59c2.49,6.89,6.73,12.43,12.58,16.78c1.37,1.02,2.87,1.69,4.52,2.1
		c7.59,1.87,15.26,3.28,23.06,4.07c4.37,0.44,8.71,0.93,13.11,0.92c2.18-0.01,4.3-0.18,6.39-0.8c0.45-0.14,0.9-0.31,1.52-0.13
		c0.26,1.16,0.56,2.39,0.82,3.62c1.08,5.23,2.24,10.44,2.54,15.79c0.18,3.3-0.29,6.52-1.31,9.67c-1.74,5.36-4.17,10.36-7.77,14.73
		c-0.56,0.68-1.15,1.33-1.79,1.93c-1.54,1.44-2.17,1.49-4.01,0.43c-2.08-1.19-4.21-2.29-6.45-3.15c-6.21-2.36-12.64-3.93-19.15-5.19
		c-6.11-1.19-12.26-2.05-18.51-2.07c-1.62,0-3.16,0.4-4.73,0.58c-3.8,0.44-7.59,0.91-11.38,1.36c-8.02,0.94-15.89,2.63-23.69,4.64
		c-7.96,2.04-15.88,4.25-23.58,7.17c-0.29,0.11-0.61,0.13-0.98,0.21c-2.7-2.93-4.73-6.24-6.13-9.93c-1.64-4.3-2.21-8.78-2.35-13.36
		c-0.15-4.68,0.72-9.21,1.52-13.76c0.46-2.58,0.75-5.18,0.84-7.9c1.75-0.06,3.42-0.26,5.05-0.14c3.63,0.27,7.15-0.24,10.68-0.95
		c3.51-0.71,7.06-1.23,10.59-1.87c6.2-1.13,12.33-2.58,18.42-4.2c0.46-0.12,0.92-0.3,1.39-0.36c4.35-0.55,7.61-3.23,10.8-5.85
		c1.95-1.6,3.38-3.8,4.53-6.12c1.14-2.3,2.11-4.65,2.79-7.12C297.76,227.31,297.81,226.9,298.35,226.59z M302.71,271.42
		c-0.34,0.72-0.14,1.35,0.05,2.17C303.07,272.75,303.1,272.11,302.71,271.42z M359.31,270.49c-0.23,0.39-0.09,0.79-0.01,1.16
		c0.05,0.23,0.31,0.37,0.55,0.27c0.25-0.11,0.28-0.38,0.21-0.61C359.96,270.93,359.72,270.64,359.31,270.49z"/>
	<path class="st0" d="M426.29,280.86c-0.31,14.82-3.13,28.38-8.89,41.31c-1.55,3.48-3.53,6.67-6.17,9.34
		c-3.14,3.18-6.64,5.99-10.57,8.19c-3.02,1.69-6.16,2.9-9.62,3.44c-4.4,0.68-8.39-0.25-12.17-2.42
		c-6.16-3.53-10.42-8.82-13.75-14.97c-2.42-4.47-3.7-9.33-4.94-14.21c-0.26-1.02,0.05-1.89,0.45-2.77
		c2.93-6.48,5.34-13.17,7.5-19.93c2.77-8.67,5.03-17.48,6.26-26.51c0.64-4.66,0.96-9.36,0.55-14.09c-0.19-2.23-0.39-4.48-1.09-6.59
		c-0.45-1.36-0.14-2.26,0.7-3.25c0.82-0.97,1.58-2.02,2.25-3.1c0.71-1.15,1.69-1.82,2.91-2.35c3.12-1.35,6.41-1.97,9.75-2.18
		c3.44-0.22,6.9,0.06,10.1,1.45c3.3,1.44,6.38,3.3,9.16,5.62c4.47,3.75,7.83,8.39,10.62,13.46c3.35,6.09,5.22,12.65,6.14,19.52
		C425.94,274.41,426.06,277.99,426.29,280.86z"/>
	<path class="st0" d="M290.56,171.79c3.09-1.2,6.17-1.71,9.19-2.42c3.88-0.91,7.77-1.79,11.74-2.28c3.55-0.44,7.1-0.86,10.7-0.3
		c1.21,0.19,2.1,0.64,2.71,1.7c0.36,0.62,0.79,1.2,1.18,1.81c1.84,2.85,4.43,4.75,7.58,5.94c5.23,1.97,10.47,3.89,15.66,5.96
		c2.52,1,5,2.1,7.61,2.88c0.59,0.18,0.99,0.45,1.3,0.95c2.23,3.62,4.94,6.86,7.69,10.08c0.83,0.97,1.73,1.89,2.63,2.78
		c1.21,1.19,2.57,1.64,4.35,1.3c2.8-0.54,5.66-0.78,8.49-1.15c1,1.13,1.06,2.48,1.17,3.69c0.74,8.3,0.16,16.45-3.28,24.18
		c-2.55,5.72-5.75,11.02-10.27,15.46c-1.86,1.83-3.96,3.2-6.33,4.22c-4.02,1.72-8.2,2.44-12.59,2.29
		c-5.75-0.19-11.42-0.96-17.11-1.73c-5.21-0.71-10.4-1.55-15.59-2.39c-1.97-0.32-3.69-1.15-5.2-2.3c-4.3-3.26-7.97-7.08-10.53-11.94
		c-1.91-3.63-2.44-7.4-1.88-11.37c0.62-4.43,0.85-8.83,0.54-13.33c-0.58-8.37-2.62-16.37-5.52-24.17
		C293.53,178.36,292.01,175.19,290.56,171.79z"/>
	<path class="st0" d="M217.26,154.35c-1.66,0.16-3.08,0.29-4.51,0.44c-0.81,0.08-1.61,0.23-2.13,0.93
		c-1.62,2.17-3.32,4.29-4.39,6.79c0.42,1.64,1.54,2.85,2.18,4.28c-0.65,1.55-1.59,2.85-2.57,4.1c-5,6.4-8.37,13.56-10.05,21.51
		c-1.13,5.38-1.3,10.78-0.23,16.17c0.46,2.32,0.5,4.62,0.26,6.91c-0.29,2.77-0.59,5.55-1.46,8.23c-0.37,1.13-0.53,2.33-0.77,3.5
		c-0.13,0.63-0.22,1.26-0.71,1.74c-0.35,0.27-0.76,0.26-1.15,0.19c-3.97-0.71-7.97-0.62-11.95-0.32c-7,0.52-13.66,2.44-19.97,5.48
		c-4.9,2.36-9.51,5.24-14.1,8.13c-0.61,0.39-1.23,0.69-1.96,0.85c-2.03,0.45-2.53,0.29-3.33-1.64c-0.58-1.4-1.07-2.85-1.42-4.32
		c-1.08-4.5-2.02-9.02-2.61-13.61c-0.43-3.32-0.84-6.65-0.84-10c0-7,1.22-13.79,3.68-20.37c3.08-8.27,7.71-15.6,13.45-22.22
		c5.74-6.62,12.34-12.26,19.93-16.71c4.64-2.72,9.54-4.81,14.68-6.37c5.04-1.52,10.16-2.79,15.09-4.66c2.53-0.96,5.04-1.98,7.6-3.37
		c0.39,1.02,0.29,2.14,0.94,2.93c0.66,0.79,1.4,1.51,2.18,2.33c-2.04,0.32-4-0.79-5.96-0.32c-1.92,0.46-4.01-0.13-6.04,1.04
		c2.23,0.34,4.21,0.1,6.16-0.39c0.55-0.14,1-0.28,1.59-0.1c2.91,0.9,5.92,1.27,8.92,1.66c1.24,0.16,2.47,0.45,3.98,0.73
		C220.22,150.12,218.77,152.2,217.26,154.35z"/>
	<path class="st0" d="M115.28,446.82c1.17-1.69,2.56-2.76,4-3.78c7.17-5.08,14.67-9.67,21.97-14.56c3.19-2.14,6.23-4.49,9.13-6.98
		c3.42-2.93,6.15-6.48,8.29-10.51c2.38-0.81,4.6-0.22,6.7,0.81c2.15,1.06,4.09,2.45,5.8,4.19c3.37,3.44,7.18,6.32,11.24,8.89
		c2.22,1.41,4.34,2.99,6.5,4.5c0.45,0.32,0.96,0.6,1.13,1.19c-0.42,0.56-0.83,0.17-1.22-0.01c-1.52-0.72-3.1-1.24-4.68-1.81
		c-4.32-1.56-10.36,1.45-12.06,6.2c-0.89,2.49-1.14,5.05-0.83,7.76c0.6,5.16,2.35,9.92,4.55,14.55c1.14,2.39,2.74,4.49,4.69,6.28
		c1.82,1.68,2.49,3.89,2.86,6.18c0.51,3.18,1.52,6.19,2.85,9.09c0.49,1.07,0.7,2.14,0.54,3.25c-0.66,4.48-1.94,8.69-5,12.23
		c-3.66,4.23-7.94,7.38-13.58,8.35c-1.27,0.22-2.56,0.2-3.82,0.06c-1.16-0.13-2.29-0.47-3.09-1.54c-0.23,0.6-0.13,1.1-0.81,1.2
		c-1.74,0.28-3.38,0.91-4.99,1.61c-4.36,1.9-8.26,0.58-12-1.78c-0.56-0.35-0.9-0.91-1.16-1.49c-0.39-0.87-0.77-1.75-1.12-2.64
		c-3.56-8.92-7.8-17.5-12.85-25.67c-1.63-2.64-3.6-5.07-5.04-7.85C120.26,458.8,117.64,452.9,115.28,446.82z M159.12,496.63
		c0.01,1.34,0.01,1.34,0.64,1.78C159.96,497.81,159.52,497.43,159.12,496.63z"/>
	<path class="st0" d="M282.5,464.22c-0.61-0.25-0.69-0.86-0.88-1.36c-1.54-4.13-3.59-8.02-5.7-11.86c-4.3-7.84-8.38-15.8-12.39-23.8
		c-1.5-2.99-2.84-6.08-4.67-8.9c-2.75-4.22-5.68-8.3-9.09-12.02c-0.38-0.41-0.74-0.84-1.08-1.28c-0.14-0.18-0.2-0.41-0.34-0.71
		c4.6-4.28,8.59-8.99,10.38-15.35c3.26,2.03,6.4,3.53,9.72,4.67c6.06,2.09,12.25,3.53,18.63,4.19c2.06,0.21,4.11,0.51,6.16,0.74
		c0.63,0.07,1.28,0.06,1.92,0.05c7.68-0.08,15.2-1.23,22.54-3.44c2.98-0.9,5.88-2.05,8.65-3.49c1.09-0.57,2.25-0.68,3.22-1.2
		c0.88,0.67,1.25,1.48,1.59,2.27c1.15,2.63,2.26,5.28,3.37,7.92c0.19,0.44,0.36,0.89,0.49,1.35c0.31,1.14,0.15,2.11-0.62,3.12
		c-2.97,3.88-5.45,8.07-7.74,12.38c-2.96,5.57-5.74,11.23-8.79,16.76c-2.46,4.47-4.75,9.05-7.6,13.3
		c-6.22,9.26-14.93,14.64-25.89,16.46c-0.31,0.05-0.64,0.08-0.94,0.17C283.11,464.28,282.81,464.37,282.5,464.22z"/>
	<path class="st0" d="M397.9,431.79c-0.62-0.48-0.85-0.96-0.81-1.67c1.17-1.29,2.42-2.64,3.63-4.01c2.58-2.94,5.04-5.97,7.07-9.34
		c1.2-2,2.75-3.73,4.47-5.29c0.29-0.27,0.59-0.56,0.94-0.74c2.5-1.28,5.08-2.28,7.98-2.52c6.4,7.06,14.64,11.54,22.61,16.4
		c3.41,2.08,6.82,4.16,10.16,6.36c2.33,1.53,4.35,3.51,6.74,4.8c0.6,1.78,0.31,3.46,0.03,5.1c-0.81,4.72-1.81,9.4-3.14,14
		c-0.18,0.61-0.29,1.26-0.55,1.83c-3.29,7.17-4.82,14.85-6.57,22.47c-0.85,3.73-1.5,7.51-1.91,11.31c-0.2,1.89-1.03,3.34-2.46,4.48
		c-1.37,1.1-2.78,2.12-4.48,2.73c-1.5,0.54-2.92,0.55-4.44,0.03c-1.49,1.53-3.49,2.07-5.57,2.29c-5.41,0.56-10.28-1.01-14.7-4.05
		c-1.54-1.06-2.1-2.75-2.44-4.52c-0.47-2.43-0.95-4.85-1.39-7.28c-0.92-5.19-2.37-10.26-3.56-15.38c-0.19-0.82-0.25-1.55,0.06-2.3
		c0.39-0.96,0.7-1.97,1.21-2.86c1.52-2.68,2.35-5.57,2.85-8.58c0.73-4.43,0.99-8.87,0.32-13.33c-0.26-1.74-0.78-3.42-1.61-4.99
		c-2.58-4.84-7.72-7-12.98-5.43C398.88,431.42,398.43,431.6,397.9,431.79z M438.1,494.41c1.04-0.71,0.5-1.69,0.58-2.54
		C438.41,492.68,437.85,493.43,438.1,494.41z"/>
	<path class="st0" d="M388.53,229.31c-1.2-4.81-2.29-9.39-3.49-13.94c-0.46-1.73-0.5-3.43-0.45-5.2c0.12-3.91-0.3-7.8-1.08-11.64
		c-0.69-3.37-1.68-6.64-2.93-9.85c-0.52-1.33-0.92-2.72-1.36-4.08c-1.95-5.94-4.57-11.58-7.67-17c-0.31-0.55-0.62-1.1-0.97-1.71
		c0.51-0.93,0.99-1.85,1.52-2.73c0.73-1.21,0.67-2.37,0.03-3.62c-0.98-1.9-2.53-3.27-4.02-4.71c-0.45-0.44-1.02-0.39-1.58-0.39
		c-1.27,0-2.55,0-3.76,0c-2.16-2.54-4.23-4.96-6.32-7.41c0.17-0.18,0.32-0.34,0.49-0.51c-0.06-0.64-0.94-0.47-1.11-1.33
		c0.2-0.76,1.05-1.48,1.15-2.62c1.66,0.17,2.95,1.04,4.38,1.45c1.69,0.48,3.32,1.13,5,1.65c0.99,0.31,1.97,0.57,2.86,1.17
		c0.57,0.38,1.33,0.58,2.02,0.66c4.6,0.5,8.81,2.23,12.95,4.09c9.55,4.29,17.64,10.61,24.65,18.3c7.01,7.69,12.54,16.32,15.73,26.32
		c2.11,6.6,3.12,13.34,2.66,20.27c-0.47,7.17-1.29,14.29-3.71,21.12c-0.56,1.58-1.1,3.17-1.94,4.63c-0.56,0.97-1.16,1.91-2.18,2.48
		c-1.2,0.68-1.72,0.61-2.67-0.44c-0.96-1.07-1.92-2.13-2.88-3.21c-4.74-5.31-10.5-9.01-17.31-11.09c-2.1-0.64-4.24-0.72-6.4-0.66
		C389.66,229.32,389.19,229.31,388.53,229.31z M357.93,145.88c1.8,0.63,3.58,0.2,5.36,0.14
		C361.49,145.96,359.75,144.65,357.93,145.88z"/>
	<path class="st0" d="M221.15,549.33c-5.12-0.43-9.6,1.58-14.03,3.58c-4.74,2.14-9.21,4.77-13.19,8.19
		c-4.4,3.78-7.78,8.2-9.43,13.84c-0.07,0.23-0.15,0.45-0.23,0.68c-0.02,0.04-0.1,0.06-0.19,0.1c-0.15-0.17-0.36-0.33-0.44-0.53
		c-2.63-7.36-5.51-14.65-7.55-22.21c-0.89-3.31-1.75-6.64-2.44-9.99c-0.4-1.94-0.57-3.95-0.63-5.93
		c-0.15-5.19-0.41-10.38,0.03-15.57c0.01-0.14,0.13-0.28,0.2-0.43c0.45-0.46,0.99-0.38,1.55-0.25c2.02,0.47,4.05,0.9,6.06,1.4
		c0.63,0.16,1.26,0.32,1.89,0.23c1.81-0.25,3.45,0.3,5.13,0.87c2.72,0.93,5.48,1.73,8.22,2.6c1.6,0.51,3.12,1.16,4.53,2.12
		c2.65,1.8,5.67,2.11,8.74,1.65c1.77-0.27,3.3-1.27,4.45-2.65c2.07-2.48,3.2-5.28,2.83-8.62c-0.53-4.74-2.25-8.96-5.24-12.65
		c-3.07-3.79-6.92-6.6-11.37-8.58c-1.17-0.52-2.35-1-3.65-1.12c-0.81-0.07-1.53-0.42-2.25-0.88c-0.57-2.72-1.45-5.35-2.49-8.51
		c1.69,1.4,2.98,2.49,4.29,3.56c2.57,2.09,5.45,3.56,8.64,4.5c2.51,0.73,4.86,0.37,7.26-0.46c2.13-0.74,3.49-2.21,4.3-4.22
		c0.85-2.11,1.05-4.3,0.69-6.57c-0.47-2.92-1.2-5.78-2.09-8.59c-1.28-4.03-2.59-8.06-3.85-12.09c-0.48-1.52-0.88-3.07-1.3-4.61
		c-0.38-1.38-0.49-2.74-0.33-4.21c0.5-4.85-0.86-9.15-4.39-12.65c-1.41-1.39-2.77-2.83-4.52-4.13c2.68-2.81,5.42-5.21,8.35-7.54
		c2.05,2.37,4.09,4.65,7.56,4.42c0.46,0.28,0.54,0.8,0.65,1.23c2.96,11.85,8.42,22.55,15.04,32.71c1.06,1.63,1.46,3.3,1.54,5.16
		c0.14,2.97-0.33,5.9-0.72,8.82c-0.8,6-1.72,11.99-2.7,17.96c-1.35,8.26-2.8,16.5-4.22,24.75c-1.29,7.46-2.62,14.92-3.93,22.38
		C221.79,547.78,221.74,548.51,221.15,549.33z"/>
	<path class="st0" d="M393.32,546.49c-0.67-5.12-1.27-10.02-1.95-14.9c-0.83-5.92-1.68-11.84-2.61-17.74
		c-0.99-6.22-2.05-12.42-3.15-18.62c-1.1-6.21-2.55-12.34-4.57-18.33c-0.53-1.59-1.02-3.19-1.45-4.81c-0.61-2.3-0.52-4.57,0.31-6.82
		c3.14-8.47,5.66-17.12,7.35-26c0.34-1.79,0.62-3.59,0.93-5.45c0.39-0.06,0.72-0.2,0.99-0.13c1.72,0.46,2.75-0.28,3.37-1.83
		c0.12-0.29,0.31-0.55,0.52-0.92c1.91,0.67,2.85,2.14,3.6,3.86c2.16,4.99,3.73,10.18,5.45,15.33c2.54,7.57,4.61,15.27,6.55,23.02
		c2.39,9.52,4.22,19.15,5.56,28.87c0.38,2.76,0.36,5.57,0.69,8.34c0.49,4.06,0.57,8.13,0.26,12.18c-0.23,3.01-0.15,6.05-0.68,9.05
		c-0.11,0.62-0.04,1.28-0.09,1.91c-0.04,0.56,0.05,1.23-0.22,1.65c-1.03,1.59-0.76,3.3-0.79,5.04c-0.04,2.3-0.34,4.61-0.6,6.9
		c-0.57,4.99-0.91,10-0.94,15.03c0,0.38-0.04,0.75-0.06,1.12c-0.79,0.07-0.82-0.54-1-0.92c-1.56-3.36-3.63-6.38-6.08-9.15
		c-1.98-2.24-4.35-4.01-6.92-5.48C396.5,546.94,395.01,546.59,393.32,546.49z"/>
	<path class="st0" d="M331.03,553.24c0.56,0.32,0.99-0.33,1.6,0.15c4.89,3.85,10.02,7.42,14.3,11.99c1.85,1.98,3.67,4,5.17,6.28
		c0.49,0.75,0.83,1.51,0.97,2.41c0.09,0.59,0.09,1.07-0.23,1.57c-0.26,0.4-0.43,0.86-0.67,1.27c-1.14,1.91-1.14,3.89-0.48,5.95
		c1.13,3.5,2.39,6.93,4.62,9.93c-0.29,0.87-0.81,1.55-1.45,2.16c-2.47,2.38-5.02,4.68-7.14,7.42c-0.82,1.06-1.93,1.91-2.97,2.78
		c-2.08,1.74-4.17,3.48-6.32,5.13c-1.98,1.51-4.16,2.66-6.55,3.4c-4.1,1.27-7.88,0.17-11.6-1.46c-1.55-0.68-2.88-1.69-4.19-2.75
		c-2.32-1.87-4.26-4.11-6.04-6.46c-1.51-1.99-2.15-4.44-2.55-6.9c-0.53-3.22-1.06-6.44-1.28-9.71c-0.14-2.07-0.3-4.14-0.25-6.21
		c0.19-9.03,1.89-17.73,5.61-26.01c1.94-4.33,4.4-8.32,7.44-11.95c0.41-0.49,0.82-0.97,1.28-1.51c1.82,1.51,3.01,3.3,4.28,4.99
		c0.38,0.51,0.67,1.14,1.15,1.52C327.89,548.93,329.56,551.05,331.03,553.24z"/>
	<path class="st0" d="M214.02,275.3c4.81,2.99,10.22,4.33,15.75,5.27c0.6,2.54,0.91,4.99,1.67,7.34c1.18,3.62,2.96,6.88,5.35,9.83
		c0.4,0.5,0.83,0.98,1.17,1.51c0.49,0.75,0.62,1.55,0.51,2.49c-0.72,6.65-0.32,13.22,1.9,19.59c1.48,4.26,3.44,8.26,6.7,11.48
		c0.84,0.84,1.13,1.71,0.85,3c-0.52,2.42-1.32,4.76-1.78,7.2c-0.34,1.82-0.31,3.65-0.55,5.46c-0.22,1.59-0.99,2.21-2.38,2.49
		c-2.99,0.6-6.03,0.8-9.05,0.55c-5.33-0.44-10.59-1.36-15.65-3.21c-0.07-0.03-0.15-0.05-0.23-0.06c-2.3-0.57-3.79-1.99-5.03-4.02
		c-5.79-9.45-9.44-19.68-11.53-30.52c-0.3-1.57-0.58-3.14-0.9-4.7c-0.25-1.23-0.08-2.33,0.58-3.44c5.24-8.86,8.8-18.41,11.73-28.23
		C213.34,276.65,213.44,275.94,214.02,275.3z"/>
	<path class="st0" d="M117.97,543.82c0.52-0.39,1.18-0.26,1.8-0.26c11.02-0.01,21.7-2.12,32.21-5.24c0.92-0.27,1.82-0.51,2.8-0.55
		c1.81-0.07,3.43,0.28,4.97,1.34c1.97,1.35,4.08,2.48,5.94,4.02c0.83,0.69,1.47,1.47,1.84,2.45c0.67,1.79,1.27,3.61,1.87,5.43
		c0.33,1.02,0.18,2-0.16,3.04c-1.67,5.01-2.73,10.16-3.04,15.44c-0.28,4.63-0.07,9.25,0.72,13.83c0.18,1.03,0.33,2.05,0.32,3.09
		c-0.01,1.89-0.72,2.94-2.5,3.59c-0.6,0.22-1.22,0.4-1.84,0.53c-5.23,1.15-10.3,2.83-15.4,4.42c-1.67,0.52-3.38,0.95-5.05,1.46
		c-2.58,0.79-5.22,0.54-7.85,0.58c-0.82,0.01-1.4-0.39-1.76-1.04c-0.5-0.9-0.94-1.85-1.33-2.81c-3.3-7.96-6.26-16.05-8.93-24.24
		c-1.16-3.57-2.07-7.17-2.5-10.92c-0.5-4.42-1.37-8.81-2.09-13.21C117.93,544.47,117.78,544.17,117.97,543.82z"/>
	<path class="st0" d="M300.2,81.3c-0.94-0.04-1.19-0.88-1.83-1.24c-0.79,0.06-1.18,0.73-1.62,1.25c-1.14,1.33-2.38,2.55-3.71,3.69
		c-0.18,0.15-0.38,0.31-0.51,0.5c-1.79,2.48-4.35,3.92-6.96,5.32c-0.49,0.26-0.94,0.6-1.43,0.88c-0.97,0.55-1.49,1.39-1.72,2.47
		c-0.3,1.4-0.65,2.8-0.98,4.19c-0.09,0.39-0.16,0.79-0.44,0.99c-0.34,0.29-0.53,0.08-0.65-0.1c-1.17-1.57-2.78-2.13-4.66-2.58
		c-4.19-0.99-8.37-2.03-12.58-2.96c-1.35-0.3-2.67-0.31-4.03-0.06c-2.28,0.42-4.54,0.86-6.7,1.73c-1.19,0.48-2,1.18-2.32,2.5
		c-0.21,0.91-0.43,1.87-1.13,2.77c-1.24-1.07-2.1-2.43-2.79-3.83c-2.27-4.66-4.66-9.32-5.27-14.56c-0.93-8.06,0.8-15.37,7.3-20.74
		c6.45-5.33,14.53-6,21.78-0.33c2.68,2.09,4.78,4.7,6.67,7.48c1.76,2.57,3.27,5.3,4.78,8.02c1.21,2.18,3.33,3.41,5.5,4.41
		c0.92,0.42,2.03-0.14,2.84-0.82c0.73-0.61,1.41-1.3,2.06-2.01c1.01-1.12,2.34-2.15,2.85-3.48c0.52-1.33,0.2-2.98,0.26-4.49
		c0.03-0.79-0.01-1.61,0.17-2.38c0.23-1.01,0.67-1.95,1.41-2.74c0.6-0.64,1.13-1.34,1.7-2.01c2.39-2.78,2.77-6,2.09-9.45
		c-1.5-7.62-4.89-14.3-10.09-20.07c-3.43-3.81-7.42-6.82-12.31-8.42c-10.24-3.35-19.52-1.43-27.78,5.45
		c-0.34,0.28-0.52,0.79-1.27,0.77c1.92-2.71,4.35-4.71,7-6.41c5.14-3.28,10.8-4.65,16.9-4.08c5.34,0.5,10,2.65,14.1,6.02
		c4.58,3.76,7.96,8.47,10.49,13.8c0.99,2.09,2.02,4.17,2.59,6.43c0.15,0.61,0.39,1.3,1.5,0.85c0.76-2.89,1.39-5.86,0.13-8.93
		c-1.43-3.49-2.92-6.98-5.32-9.88c-3.13-3.77-6.86-6.9-11.26-9.19c-4.05-2.1-8.3-3.28-12.89-3.1c-1.68,0.07-3.36,0.03-5.03,0.17
		c-2.65,0.22-5.16,0.95-7.47,2.33c-0.87,0.52-1.79,0.97-2.74,1.48c-0.11-0.8,0.45-1.01,0.81-1.3c2.63-2.08,5.71-3.13,8.93-3.86
		c2.81-0.64,5.69-0.95,8.53-0.98c4.25-0.04,8.4,0.84,12.12,3.13c1.43,0.88,2.85,1.77,4.29,2.63c1.06,0.64,1.37,0.59,2.32-0.25
		c0.12-0.11,0.22-0.23,0.34-0.34c3.77-3.69,7.54-7.38,11.32-11.06c1.89-1.84,3.8-3.65,5.72-5.47c0.17-0.16,0.41-0.23,0.62-0.35
		c1.21,0.21,1.72,1.08,2.05,2.11c1.11,3.49,1.29,7.04,0.67,10.63c-0.07,0.39-0.25,0.75-0.39,1.13c-0.63,1.73-1.24,3.46-1.89,5.17
		c-0.41,1.08-0.55,2.34-1.88,2.86c-0.24,0.09-0.43,0.48-0.52,0.78c-0.7,2.26-1.63,4.4-1.28,6.94c0.42,3.09-0.18,6.2-0.6,9.28
		c-0.18,1.35-0.32,2.68-0.3,4.05c0.07,3.83,0.03,7.66-0.3,11.48c-0.14,1.57-0.73,2.93-1.58,4.21c-0.8,1.19-1.58,2.41-2.51,3.5
		c-1.71,2-2.39,4.33-2.28,6.88c0.1,2.49-0.31,4.93-0.4,7.4C300.59,80.14,300.62,80.81,300.2,81.3z M302.69,14.23
		c-0.98,0.5-1.38,1.14-1.52,2.18c1.5,1.77,2.68,3.96,4.74,5.4c0.83-0.62,1.7-1.23,1.17-2.22C305.99,17.57,304.87,15.51,302.69,14.23
		z M299.9,17.32c-1.35,1.29-1.56,1.58-1.05,2.31c1.31,1.86,2.56,3.78,4.46,5.12c1.33-1.19,1.53-1.66,0.83-2.84
		c-0.72-1.23-1.58-2.38-2.44-3.52C301.27,17.82,300.63,17.46,299.9,17.32z M295.92,22.21c1.38,1.84,2.74,3.88,4.56,5.52
		c1.75-1.35,1.83-1.54,0.94-3.11c-0.83-1.45-1.8-2.82-3.11-3.9c-0.56-0.46-1.16-0.53-1.66,0.1
		C296.35,21.18,295.96,21.5,295.92,22.21z M279.26,78.19c-1.07-2.44-2.61-4.5-4.46-6.33c-0.9,0.24-1.65,0.44-2.72,0.73
		c1.98,2.05,3.37,4.25,4.85,6.26C277.86,78.86,278.51,78.61,279.26,78.19z M275.59,80.61c-1.21-2.26-2.56-4.28-4.32-5.94
		c-1.44,0.04-1.44,0.04-2.5,0.73c1.47,1.98,2.93,3.95,4.4,5.93C274.01,81.51,274.76,81.41,275.59,80.61z M244.51,74.68
		c-1.08,1.77-1.2,3.77-1.39,5.72c-0.06,0.59,0.37,1.03,1.19,0.73c0.31-1.99,0.73-4,1.54-5.76C245.6,74.8,245.26,74.66,244.51,74.68z
		 M242.21,78.93c0.53-2.21,0.87-4.09,1.69-5.82c0.24-0.52-0.09-0.9-0.77-1.04c-1.13,1.29-1.32,2.96-1.56,4.59
		C241.47,77.32,241.24,78.05,242.21,78.93z"/>
	<path class="st0" d="M412.03,573.82c0.16,6.13-1.78,11.07-4.4,15.81c-0.31,0.55-0.68,1.1-1.13,1.54c-2.96,2.93-6.11,5.61-9.82,7.58
		c-2.19,1.16-4.35,2.34-6.71,3.15c-5,1.72-10.02,1.71-15.08,0.45c-5.29-1.31-10.01-3.73-13.98-7.5c-3.91-3.72-6.42-8.31-7.9-13.47
		c-0.5-1.74,0.04-3.34,1.01-4.77c1.29-1.92,2.74-3.72,4.51-5.25c4.11-3.56,8.46-6.81,12.85-9.99c4.72-3.42,9.46-6.82,14.21-10.19
		c1.57-1.11,3.32-1.86,5.19-2.4c3.18-0.91,6.03-0.24,8.59,1.68c3.63,2.72,6.41,6.22,8.63,10.15c0.82,1.45,1.5,2.99,2.18,4.52
		C411.48,568.08,412.43,571.12,412.03,573.82z"/>
	<path class="st0" d="M216.52,603.24c-4.07,0.06-7.64-0.95-11.11-2.48c-5.11-2.25-9.53-5.5-13.54-9.32
		c-2.74-2.62-4.77-5.78-5.9-9.44c-0.65-2.1-0.68-4.21-0.09-6.36c1.13-4.12,3.41-7.52,6.29-10.58c2.93-3.11,6.34-5.58,10.04-7.68
		c4.18-2.36,8.47-4.47,13.13-5.72c1.07-0.29,2.16-0.6,3.26-0.69c2.31-0.18,4.41,0.44,6.26,1.89c4.97,3.9,9.61,8.15,13.59,13.08
		c1.55,1.92,3.06,3.88,4.64,5.79c1.54,1.85,2.15,4.07,2.64,6.34c0.13,0.62,0.08,1.26-0.09,1.9c-3.32,12.48-11.35,20-23.91,22.75
		C219.94,603.09,218.12,603.32,216.52,603.24z"/>
	<path class="st0" d="M417.46,403.74c-0.28,0.15-0.61,0.37-0.98,0.5c-5.44,1.94-9.03,5.84-11.5,10.91c-0.38,0.78-0.84,1.59-0.5,2.51
		c0.4,1.08-0.19,1.63-1.06,2.15c-0.82-0.61-1.04-1.59-1.48-2.41c-4.48-8.43-9.73-16.35-16.06-23.48
		c-4.8-5.41-8.93-11.26-12.65-17.42c-3.02-4.99-4.66-10.47-5.88-16.12c-1.39-6.37-1.52-12.83-1.36-19.3
		c0.04-1.87,0.34-3.73,0.56-5.91c0.77,1.01,1.34,1.74,1.91,2.49c2.28,3,5.02,5.33,8.74,6.35c1.09,0.3,1.99,1.03,2.83,1.76
		c2.24,1.95,4.73,3.54,7.14,5.25c3.16,2.24,6.76,3.69,10.45,4.66c4.28,1.13,8.22-0.05,11.54-3.06c0.64-0.58,1.28-1.17,2.05-1.87
		c-0.05,1.38-0.02,2.67-0.16,3.94c-0.29,2.54-0.18,5.1-0.37,7.64c-0.22,2.92,0.11,5.89,0.29,8.84c0.42,6.94,1.42,13.79,2.93,20.57
		c0.82,3.67,1.96,7.23,3.28,10.75C417.31,402.87,417.59,403.2,417.46,403.74z"/>
	<path class="st0" d="M225.29,622.38c1.44-0.88,2.06-2.31,3.15-3.39c0.91,2.04,1.15,4.11,1.4,6.15c0.48,3.91,0.39,7.8-1.04,11.56
		c-0.85,2.23-2.26,4.06-4.12,5.48c-1.93,1.48-2.32,1.54-4.53,0.32c-1.48-0.81-2.65-2.04-3.92-3.12c-1.83-1.55-3.73-2.98-5.8-4.22
		c-4.85-2.91-10.13-3.09-15.53-2.55c-1.5,0.15-2.99,0.48-4.47,0.76c-3.16,0.6-5.85,2.06-8.08,4.37c-1.61,1.67-3.38,3.14-5.33,4.43
		c-1.52,1.01-2.85,0.78-4.22-0.11c-1.08-0.7-1.95-1.65-2.68-2.71c-2.04-2.97-3.01-6.33-3.4-9.86c-0.33-3.03-0.18-6.05,0.47-9.05
		c0.58-2.67,1.8-4.96,3.76-6.8c1.7-1.6,2.75-3.48,2.95-5.91c0.8,0.21,1.18,0.84,1.65,1.32c1.93,1.96,4.19,2.13,6.62,1.25
		c1.28-0.46,2.48-1.17,3.48-2.08c1.3-1.18,2.53-2.43,3.67-3.78c2.12-2.51,2.92-5.64,4.17-8.56c0.06-0.14,0.14-0.28,0.21-0.43
		c0.63,0,0.91,0.54,1.32,0.89c5.68,4.89,12.39,7.56,19.71,8.57c4.48,0.62,8.9-0.35,13.14-1.96c0.6-0.23,1.19-0.45,1.79-0.66
		c0.05-0.02,0.13,0.06,0.23,0.12c0.3,0.6-0.2,1.03-0.43,1.48c-0.75,1.43-1.23,2.95-1.6,4.5c-0.43,1.83-0.48,3.68,0.38,5.38
		c0.41,0.82,0.4,1.46-0.02,2.23c-0.92,1.68-1.51,3.53-2.61,5.11C225.39,621.44,225.21,621.78,225.29,622.38z"/>
	<path class="st0" d="M150.59,649.33c3.46,0.55,6.67,1.11,9.9,1.55c2.2,0.31,4.43,0.52,6.65,0.66c2.71,0.16,5.33,0.81,7.94,1.08
		c1.22,3.71-4.11,34.92-5.7,40.18c-2.8-0.11-5.6,0.45-8.4,1.01c-0.78,0.16-1.56,0.36-2.35,0.46c-1.65,0.21-2.99,0.96-4.27,2
		c-4.3,3.49-8.96,6.39-14.06,8.59c-2.87,1.24-5.86,2.08-8.89,2.78c-0.53,0.12-1.1,0.11-1.66,0.16c-1.04-1.09-1.61-2.44-2.26-3.69
		c-2.76-5.24-5.07-10.65-6.11-16.55c-0.26-1.44-0.24-2.86-0.18-4.29c0.06-1.51,1.12-2.42,2.39-3.04c0.71-0.35,1.5-0.53,2.25-0.81
		c5.24-1.96,9.65-5.23,13.86-8.82c1.89-1.61,3.56-3.42,5.15-5.33c1.66-2,2.81-4.23,3.58-6.7
		C149.34,655.61,150.07,652.59,150.59,649.33z"/>
	<path class="st0" d="M118.18,479.84c0.57-0.12,0.89,0.11,1.21,0.35c4.48,3.26,9.34,5.85,14.42,8.02c1.22,0.52,1.97,1.25,2.46,2.41
		c1.3,3.09,2.72,6.13,3.87,9.28c0.93,2.55,2.65,4.1,5.09,5.03c0.82,0.31,1.62,0.66,2.48,1.02c1.03,2.32,2.04,4.66,3.1,6.98
		c0.89,1.96,1.77,3.94,3.15,5.63c0.5,0.61,0.81,1.23,0.51,1.97c-1.6,3.93-0.18,7.69,0.57,11.5c0.21,1.08,0.87,2.09,0.53,3.31
		c-0.63,0.72-1.52,1.05-2.43,1.34c-4.34,1.38-8.76,2.37-13.23,3.21c-3.45,0.65-6.9,1.27-10.38,1.68c-3.48,0.41-6.99,0.47-10.5-0.17
		c-1.85-0.34-2.85-1.28-3.21-3.04c-0.32-1.56-0.74-3.12-0.88-4.69c-0.37-4.37-0.88-8.72-1.23-13.09c-0.39-4.88-0.43-9.76-0.17-14.6
		c0.4-7.72,1.25-15.41,3.6-22.85C117.5,482,117.44,480.74,118.18,479.84z"/>
	<path class="st0" d="M111.19,722.88c2.91-0.59,5.61-1.26,8.3-1.99c0.83-0.22,1.4-0.6,1.97-1.21c2.59-2.84,4.93-5.86,6.9-9.17
		c0.32-0.54,0.54-1.17,1.14-1.53c9.83-0.49,18.04-4.94,25.5-10.91c2.19-1.75,4.39-2.67,7.1-2.85c1.9-0.13,3.78-0.53,5.67-0.78
		c0.37-0.05,0.77-0.25,1.13,0.04c0.41,0.52,0.17,1.09,0.06,1.61c-1.88,8.81-3.75,17.62-5.7,26.41c-0.76,3.43-1.99,6.73-3.12,10.05
		c-0.22,0.64-0.54,1.1-1.11,1.48c-2.7,1.81-4.8,4.18-6.28,7.08c-0.47,0.92-1.12,1.47-2.11,1.78c-3.97,1.23-8,2.17-12.11,2.77
		c-3.47,0.51-6.95,0.83-10.45,1.1c-1.66,0.13-3.09-0.22-4.49-1.2c-6.04-4.23-9.65-10.08-11.58-17.07
		C111.52,726.73,110.95,724.97,111.19,722.88z"/>
	<path class="st0" d="M377.43,605c-6.12,3.78-12.35,7.16-18.72,10.3c-6.25,3.09-12.68,5.81-18.68,9.55
		c1.19-0.06,2.39-0.12,3.57-0.17c2.48,4.02,2.74,12.44,0.36,15.69c-0.21-0.97-0.55-1.79-0.53-2.61c0.07-3.55-2.06-5.65-4.88-7.07
		c-2.5-1.26-5.18-1.8-8.1-1.62c-4.16,0.26-7.97,1.38-11.68,3.19c-3.76,1.84-7.14,4.18-10.37,6.82c-3.78,3.09-7.87,3.37-11.78,0.17
		c-3.21-2.63-5.06-6.1-6.06-10.08c-0.9-3.58-0.87-7.15,0.54-10.58c1.41-3.44,3.66-6.24,7.33-7.43c3.5-1.13,5.86-3.45,7.68-6.48
		c0.45-0.75,0.87-1.52,1.39-2.43c0.94,1.22,1.86,2.28,2.63,3.44c1.26,1.9,2.94,3.36,4.7,4.74c2.15,1.68,4.49,3.05,7,4.11
		c4.79,2.02,9.51,1.7,14.01-0.82c3.43-1.92,6.4-4.5,9.34-7.08c3.9-3.43,7.58-7.1,10.93-11.09c0.41-0.48,0.81-1.01,1.8-1.06
		c2.38,2.82,5.47,5.07,8.87,6.84C370.11,603.07,373.66,604.23,377.43,605z"/>
	<path class="st0" d="M51.76,715.69c2,0.58,3.88,0.99,5.65,1.68c3.44,1.33,6.65,0.89,9.93-0.63c2.9-1.34,5.7-2.87,8.46-4.43
		c4.27,1.14,8.58,1.83,12.94,2.28c1.5,0.16,3,0.36,4.51,0.47c0.7,0.05,1.17,0.31,1.61,0.85c1.78,2.18,4.01,3.88,6.13,5.7
		c1.38,1.19,2.94,1.79,4.84,1.67c1.16-0.08,2.36-0.42,3.62-0.01c0.7,9.47,4.65,17.24,12.17,23.08c-0.34,0.62-0.87,0.4-1.29,0.41
		c-13.51,0.17-26.66-2.04-39.56-5.94c-7.58-2.29-14.88-5.27-21.92-8.89c-1.77-0.91-3.46-2-5.27-2.83c-1.57-0.72-2.19-1.96-2.55-3.51
		C50.26,722.29,50.54,719.1,51.76,715.69z"/>
	<path class="st0" d="M119.38,683.92c0.23,1.64,0.35,3.21,0.67,4.74c1.22,5.8,2.83,11.46,6.15,16.47c0.31,0.46,0.55,0.97,0.79,1.47
		c0.58,1.19,0.45,2.22-0.4,3.32c-1.91,2.46-3.71,4.99-5.52,7.52c-0.98,1.36-2.2,2.11-3.89,2.49c-3.5,0.81-7,1.5-10.58,1.82
		c-1.6,0.14-2.96-0.17-4.23-1.18c-1.88-1.49-3.8-2.89-5.07-5.01c-0.72-1.21-1.91-1.89-3.33-2.1c-2.99-0.44-5.98-0.92-8.97-1.31
		c-2.44-0.32-4.85-0.88-7.33-0.98c-1.6-0.06-2.26-0.88-2.07-2.3c0.78-5.77,1.81-11.49,4.11-16.89c0.31-0.73,0.54-1.5,1.08-2.12
		c1.33-1.52,2.91-2.37,5.01-2.35c4.79,0.06,9.58-0.1,14.36,0.05c5.03,0.16,9.81-0.93,14.57-2.3
		C116.24,684.85,117.76,684.4,119.38,683.92z"/>
	<path class="st0" d="M168.81,410.88c-0.1-1.64-0.28-2.87-1.42-3.34c-1.37-0.57-2.79-1.19-4.35-0.97c-0.77,0.11-1.52,0.31-2.49,0.51
		c0.5-2.37,0.96-4.51,0.96-6.74c0-3.29-0.51-6.51-1.04-9.73c-0.85-5.19-1.64-10.4-2.95-15.49c-1.8-6.98-4.3-13.69-7.86-19.99
		c-0.11-0.19-0.14-0.43-0.18-0.54c0.06-0.46,0.36-0.46,0.57-0.44c3.68,0.26,6.65-1.46,9.43-3.52c4.21-3.1,7.76-6.89,10.76-11.15
		c1.31-1.85,2.78-3.46,4.6-4.81c1.53-1.13,2.92-2.44,4.3-3.6c0.54,0.02,0.7,0.34,0.76,0.62c0.92,4.53,1.75,9.07,1.76,13.73
		c0,0.95,0.28,1.89,0.29,2.84c0.08,6.79-0.19,13.57-1.52,20.23c-1.25,6.25-2.73,12.45-5.04,18.42c-1.15,2.97-2.2,5.99-3.16,9.03
		c-1.11,3.51-1.71,7.13-1.75,10.81C170.43,408.18,170.1,409.39,168.81,410.88z"/>
	<path class="st0" d="M176.07,644.42c-0.46,2.28,0.12,4.38-0.52,6.54c-3.15-0.39-6.29-0.61-9.42-0.92
		c-4.43-0.44-8.83-1.16-13.25-1.77c-0.63-0.09-1.25-0.14-1.85-0.44c-0.92-0.46-1.53-1.08-1.72-2.13c-0.2-1.1-0.32-2.2-0.34-3.32
		c-0.05-4.15,0.31-8.32-0.18-12.45c-0.47-3.95-1.26-7.81-3.05-11.47c-2.94-6.02-5.62-12.16-8.41-18.25
		c-0.06-0.14-0.05-0.31-0.09-0.63c10.34-2.66,20.54-5.84,30.58-9.51c0.26,0.39,0.46,0.57,0.5,0.78c1,4.6,2.48,9.07,3.9,13.55
		c0.86,2.7,0.13,4.81-1.37,6.89c-0.37,0.51-0.77,1.03-1.24,1.46c-2.95,2.68-4.12,6.26-4.68,9.99c-0.88,5.93,0.1,11.6,3.17,16.83
		c0.87,1.48,2.07,2.63,3.4,3.66C172.78,644.18,174.26,644.45,176.07,644.42z"/>
	<path class="st0" d="M79.79,688.23c-3.08,6.63-4.53,13.46-5.39,20.45c-0.09,0.71-0.2,1.42-0.36,2.11
		c-0.23,0.98-0.75,1.72-1.74,2.11c-2.81,1.12-5.57,2.38-8.46,3.31c-1.89,0.6-3.68,0.69-5.59-0.01c-3.22-1.17-6.5-2.18-9.76-3.26
		c-0.68-0.23-1.34-0.53-2.01-0.78c-1.29-0.49-2.09-1.41-2.42-2.75c-0.31-1.24-0.65-2.46-0.69-3.75c-0.06-1.75-0.88-2.99-2.45-3.81
		c-3.05-1.6-5.73-3.76-8.54-5.72c-1.1-0.77-2.2-1.57-2.94-2.75c3.58-6.03,8.47-10.76,14.14-14.72c2.5-1.75,5.36-1.94,8.27-1.49
		c1.98,0.31,3.85,1.03,5.52,2.19c4.15,2.91,8.67,5.02,13.46,6.65c2.27,0.77,4.54,1.46,6.93,1.72
		C78.37,687.8,78.98,688.03,79.79,688.23z"/>
	<path class="st0" d="M345.58,742.36c0.06-5.73,2.55-9.22,5.88-12.28c0.22-0.21,0.55-0.33,0.85-0.41c3-0.84,5.97-1.51,9.17-0.85
		c5.14,1.06,9.37,3.44,12.54,7.69c2.21,2.96,4.82,5.51,7.97,7.5c1.41,0.89,2.74,1.91,4.15,2.82c3.04,1.95,4.11,5.01,3.1,8.56
		c-0.97,3.39-2.83,5.95-6.32,7.28c-3.02,1.15-6.14,1.95-9.3,2.03c-5.72,0.16-11.43-0.25-16.78-2.64c-0.75-0.34-1.35-0.74-1.88-1.4
		c-3-3.76-5.61-7.78-7.73-12.08C346.12,746.34,345.46,743.95,345.58,742.36z"/>
	<path class="st0" d="M377.91,738.8c-0.54-3.16,0.95-5.49,2.2-7.88c0.48-0.91,1.16-1.71,1.8-2.53c0.39-0.5,0.85-0.98,1.47-1.19
		c3.56-1.24,7.05-2.11,10.97-1.3c4.59,0.95,8.28,3.05,11.39,6.48c2.47,2.72,5.32,5,8.62,6.72c1.47,0.77,2.89,1.65,4.36,2.43
		c3.05,1.62,4.29,4.38,3.75,7.84c-0.63,4.1-2.75,7.05-6.68,8.63c-3.65,1.48-7.38,2.49-11.34,2.64c-4.65,0.18-9.25,0.03-13.71-1.48
		c-0.45-0.15-0.93-0.23-1.3-0.76c0.32-1.22,0.68-2.5,1.01-3.8c0.78-3.03,0.05-5.65-2.13-7.9c-1.52-1.57-3.17-2.92-5.2-3.75
		c-1.3-0.53-2.18-1.59-3.23-2.42C379.22,739.98,378.58,739.38,377.91,738.8z"/>
	<path class="st0" d="M219.57,770.29c-2.59,0.07-5.1-0.41-7.54-1.18c-2.48-0.79-4.52-2.23-6.27-4.22c-3.5-3.99-5-8.65-5.09-13.85
		c-0.03-2,0.04-3.98,0.46-5.95c0.62-2.88,2.04-5.1,4.57-6.71c6.36-4.03,12.7-3.6,19,0.03c2.07,1.19,3.15,3.36,4.36,5.33
		c0.58,0.95,1.02,1.99,1.47,3.01c0.87,1.98,1.81,3.92,3.24,5.58c1.21,1.41,1.4,3.16,1.76,4.88c0.44,2.11,0.04,4.18-0.45,6.14
		c-0.55,2.2-1.93,3.92-4.3,4.78C227.15,769.44,223.43,770.2,219.57,770.29z"/>
	<path class="st0" d="M163.68,767.87c-4.24,0.16-8.2-0.92-12.09-2.5c-2.23-0.91-3.49-2.63-3.98-4.76c-0.69-2.97-0.61-6,0.4-8.94
		c0.23-0.69,0.5-1.35,1.03-1.87c1.63-1.6,2.63-3.59,3.59-5.62c0.79-1.66,1.79-3.19,2.79-4.74c2.15-3.36,5.4-4.83,9.08-5.67
		c4.55-1.03,8.72,0.22,12.6,2.43c2.89,1.65,4.67,4.13,5.12,7.63c0.72,5.56,0.14,10.82-2.71,15.71c-3.31,5.69-8.29,8.44-14.87,8.33
		C164.32,767.87,164,767.87,163.68,767.87z"/>
	<path class="st0" d="M187.96,462.61c-2,0.02-3.97-0.22-5.96-0.44c-1.18-0.13-1.96-0.66-2.6-1.49c-0.88-1.13-1.68-2.32-2.34-3.61
		c-2.33-4.6-3.81-9.46-4.49-14.56c-0.29-2.15-0.04-4.31,0.63-6.38c1.56-4.82,7.42-8.01,12.64-5.47c2.01,0.98,3.97,2.04,5.95,3.08
		c3.19,1.67,6.27,3.49,9.04,5.81c2.49,2.08,4.44,4.61,5.86,7.49c1.2,2.43,1.61,4.98,0.25,7.57c-0.59,1.13-0.99,2.35-1.58,3.48
		c-0.73,1.4-1.84,2.28-3.47,2.66C197.31,461.81,192.67,462.45,187.96,462.61z"/>
	<path class="st0" d="M192.36,594.06c-1.13,6.09-4.03,10.84-9.19,14.13c-0.69,0.44-1.39,0.8-2.16,1.01
		c-1.65,0.45-3.14,0.16-4.43-1.05c-1.13-1.06-2-2.3-2.55-3.72c-0.49-1.26-0.94-2.55-1.27-3.86c-1.4-5.73-3.06-11.4-4.03-17.23
		c-0.51-3.07-0.65-6.18-0.73-9.3c-0.22-8.02,1.4-15.7,3.94-23.24c0.33-0.97,0.72-1.92,1.1-2.93c0.58,0.47,0.66,1.03,0.75,1.54
		c1.2,6.88,3.66,13.38,6.05,19.89c1.16,3.14,2.4,6.25,3.85,9.28c0.68,1.41,1,3.02,1.31,4.57c0.46,2.28,1.79,4.06,3.15,5.82
		C189.47,590.68,190.89,592.3,192.36,594.06z"/>
	<path class="st0" d="M184.68,466.12c4.26-0.91,8.54-2.1,12.97-2.61c1.5-0.17,2.97-0.6,4.43-0.96c2.04-0.51,3.59-1.64,4.49-3.61
		c0.24-0.53,0.32-1.28,1.24-1.41c0.36,1.62,0.63,3.25,1.1,4.83c1.23,4.12,2.6,8.2,4.13,12.23c1.24,3.28,1.94,6.73,2.16,10.25
		c0.05,0.79,0.01,1.6-0.1,2.39c-0.54,3.87-3.64,6.35-7.55,6.04c-2.83-0.23-5.45-1.22-7.91-2.56c-8.1-4.44-13.15-11.18-14.93-20.28
		c-0.2-1.01-0.26-2.05-0.36-3.08C184.34,466.96,184.32,466.54,184.68,466.12z"/>
	<path class="st0" d="M45.24,675.34c-0.15,0.2-0.22,0.37-0.34,0.43c-6.92,3.36-11.89,8.71-15.6,15.33
		c-1.09,1.94-2.58,2.43-4.58,1.42c-1.15-0.58-2.16-1.37-2.85-2.48c-1.38-2.24-2.77-4.48-4.11-6.74c-0.53-0.9-0.73-1.95-0.83-2.98
		c-0.17-1.72-0.6-3.44-0.11-5.2c0.43-1.55-0.14-3-0.76-4.39c-1.06-2.41-2.15-4.8-3.23-7.2c-0.2-0.44-0.4-0.87-0.61-1.3
		c-0.86-1.76-0.39-3.28,0.94-4.54c2.05-1.95,4.36-3.47,7.23-3.95c2.24-0.37,4.14,0.24,5.5,2.09c1.41,1.93,2.91,3.79,4.23,5.79
		c2.94,4.44,6.83,7.98,11.21,10.99C42.64,673.49,43.94,674.42,45.24,675.34z"/>
	<path class="st0" d="M363.64,276.87c2.17-0.59,4.18-1.57,6.22-2.52c0.54,0.5,0.23,1.01,0.1,1.51c-2.99,11.53-6.8,22.79-11.58,33.71
		c-0.67,1.54-1.41,3.05-2.04,4.6c-1.81,4.49-2.73,9.1-2.5,14.01c0.27,5.74,0.23,11.51-0.05,17.26c-0.06,1.14-0.52,1.88-1.58,2.43
		c-2.95,1.5-6.93,2.48-9.63,2.24c-0.27-0.23-0.31-0.56-0.29-0.87c0.11-1.84-0.16-3.66-0.36-5.48c-0.45-4.13,0.73-7.91,2.48-11.54
		c1.11-2.3,2.42-4.5,3.56-6.79c3.32-6.67,4.5-13.77,3.86-21.15c-0.19-2.12-0.8-4.21-1.2-6.22c0.11-0.44,0.4-0.59,0.68-0.74
		c2.76-1.47,4.8-3.7,6.4-6.33c2.37-3.9,4.34-8,5.41-12.47C363.23,277.96,363.45,277.45,363.64,276.87z"/>
	<path class="st0" d="M342.75,127.78c0.23,0.04,0.33,0.03,0.36,0.07c2.69,3.95,6.38,6.87,10,9.88c0.54,0.45,1,1.02,1.43,1.59
		c2.15,2.82,0.78,4.62-1.17,5.74c-1.9,1.09-3.95,1.64-6.15,1.7c-2.63,0.07-5.26,0.14-7.87,0.41c-5.07,0.52-10.08,1.38-15.03,2.69
		c-4.45,1.18-8.94,2.2-13.64,2.23c-3.81,0.02-4.45-2.65-3.24-5.26c0.5-1.09,1.26-1.79,2.46-2.06c1.24-0.29,2.47-0.65,3.68-1.03
		c1.46-0.46,2.84-1.05,3.56-2.58c0.32-0.66,0.95-1.06,1.62-1.36c1.24-0.55,2.43-1.24,3.71-1.66c3.41-1.11,6.71-2.54,10.18-3.49
		c2.16-0.6,4.16-1.64,6.11-2.72C340.52,130.95,341.99,129.65,342.75,127.78z"/>
	<path class="st0" d="M195.16,497.09c1.45,0.02,2.8,0.51,4.04,1.13c4.86,2.42,9.06,5.65,12.07,10.26c2.42,3.7,3.77,7.72,3.48,12.2
		c-0.23,3.68-3.27,7.92-7.84,7.74c-2.87-0.11-5.33-1.01-7.55-2.59c-2-1.43-4.2-2.22-6.5-2.91c-3.59-1.06-7.19-2.1-10.58-3.74
		c-0.29-0.14-0.59-0.23-0.71-0.57c-0.09-0.21-0.01-0.31,0.22-0.31c3.65,0.03,6.16-1.97,8.1-4.75c1.46-2.08,2.7-4.33,3.81-6.63
		c0.98-2.04,1.29-4.25,1.68-6.44C195.59,499.37,194.79,498.35,195.16,497.09z"/>
	<path class="st0" d="M254.02,96.14c0.68,1.55,1.24,2.77,1.76,4c0.57,1.34,1.56,2.13,2.93,2.61c2.4,0.83,4.81,1.04,7.3,0.47
		c3.57-0.82,6.81-2.23,9.31-5.03c1.58,0.08,2.77,0.71,3.7,1.94c0.6,0.8,1.15,1.75,2.41,1.82c0.93-0.91,1.04-2.15,1.38-3.26
		c0.39-1.29,0.74-2.62,0.88-3.96c0.14-1.3,0.85-2.02,1.92-2.5c3.2-1.43,5.74-3.72,8.12-6.23c1.31-1.39,2.71-2.69,3.99-3.96
		c0.33,0.05,0.52,0.02,0.62,0.11c1.77,1.51,2.45,1.35,3.17-0.75c0.03-0.08,0.05-0.15,0.06-0.23c0.13-3.19,2.23-5.36,3.99-7.7
		c0.43-0.57,0.91-1.09,1.38-1.64c0.66,0.31,0.31,0.82,0.32,1.23c0.01,2.55-0.08,5.1-0.32,7.64c-0.08,0.81-0.21,1.56-0.59,2.29
		c-1.89,3.7-4.16,7.18-6.33,10.72c-0.57,0.93-1.4,1.4-2.52,1.62c-5.81,1.14-10.46,4.12-13.94,8.95c-1.45,2.02-2.87,4.04-3.96,6.27
		c-1.21,2.5-3.32,3.65-5.87,3.96c-6.04,0.73-11.11-1.46-15.49-5.49c-0.54-0.5-0.94-1.07-1.2-1.76c-1.06-2.84-2.14-5.67-3.19-8.51
		C253.59,98.01,253.22,97.27,254.02,96.14z"/>
	<path class="st0" d="M224.76,127.8c1.09,3.96,3.91,5.59,6.97,6.88c1.68,0.71,3.43,1.24,5.24,1.59c2.65,0.52,5.29,1.17,7.9,1.9
		c1.67,0.47,3.3,1.08,4.12,2.91c0.47,1.06,1.56,1.57,2.64,1.93c1.36,0.46,2.71,0.94,4.09,1.35c1.42,0.42,2.09,1.37,2.18,2.79
		c0.02,0.24,0.05,0.48,0.06,0.71c0.09,2.44-0.9,3.56-3.33,3.67c-2.49,0.12-4.96-0.12-7.34-0.8c-6.14-1.76-12.44-2.67-18.73-3.64
		c-3.3-0.51-6.62-0.89-9.93-1.34c-1.69-0.23-3.22-0.85-4.64-1.8c-0.74-0.5-1.37-1.09-1.85-1.84c-1.01-1.56-0.97-2.66,0.11-4.18
		c0.61-0.86,1.43-1.5,2.28-2.08c0.99-0.67,1.99-1.33,3.01-1.95C220.15,132.35,222.39,130.33,224.76,127.8z"/>
	<path class="st0" d="M310.75,722.33c0.51,0.26,0.68,0.54,0.73,0.86c0.24,1.49,0.47,2.99,0.67,4.49c0.11,0.81-0.04,1.54-0.55,2.25
		c-1.42,1.97-2.21,4.22-2.9,6.53c-1.02,3.44-0.17,6.44,2.02,9.16c0.35,0.43,0.72,0.84,1.06,1.27c0.04,0.04,0,0.14,0,0.28
		c-0.16,0.1-0.35,0.33-0.54,0.33c-3.27-0.02-6.5,0.71-9.78,0.53c-3.83-0.21-7.6-0.72-11.17-2.27c-4.07-1.77-6.8-6.08-6.57-10.5
		c0.18-3.41,1.85-5.24,5.25-5.77c2.28-0.36,4.57-0.69,6.84-1.08c1.74-0.3,3.37-0.93,4.9-1.83c1.65-0.97,3.31-1.93,5.02-2.8
		C307.35,722.94,309.1,722.43,310.75,722.33z"/>
	<path class="st0" d="M264.15,564.86c-0.11,2.67-0.66,4.9-1.22,7.13c-0.45,1.78-0.95,3.54-1.44,5.31
		c-1.18,4.27-3.21,8.15-5.32,12.01c-1.38,2.53-3.01,4.9-4.83,7.13c-2.27,2.78-4.21,5.84-6.9,8.26c-3.32,2.99-6.66,5.97-10.48,8.33
		c-0.61,0.37-1.26,0.7-1.94,0.91c-1.43,0.44-2.51-0.22-2.87-1.71c-0.34-1.43-0.16-2.88,0.08-4.29c0.43-2.48,1.69-4.63,2.97-6.76
		c0.34-0.57,0.95-0.83,1.5-1.16c2.65-1.56,4.99-3.55,6.86-5.93c2.52-3.2,4.64-6.71,5.8-10.67c0.35-1.21,0.85-2.08,1.95-2.81
		c3.4-2.26,6.45-4.93,9-8.17c1.87-2.38,4.12-4.45,5.92-6.9C263.35,565.37,263.59,565.27,264.15,564.86z"/>
	<path class="st0" d="M203.96,355.16c0.24,0.66,0.51,1.04,0.49,1.39c-0.24,3.58-0.8,7.09-2.28,10.43c-2.02,4.53-4.51,8.8-6.86,13.14
		c-4.22,7.79-8.3,15.63-11.07,24.09c-0.12,0.35-0.31,0.68-0.47,1.03c-0.7-0.4-0.86-1.06-1.08-1.63c-3.56-8.99-3.76-18.06-0.12-27.03
		c1.81-4.48,4.77-8.27,8.65-11.25c1.64-1.26,3.34-2.45,5.08-3.59C199.03,359.94,201.59,357.94,203.96,355.16z"/>
	<path class="st0" d="M222.13,685.68c-1.12-13.53-1.18-26.97-1.73-40.43c0.8-0.52,1.72-0.28,2.54-0.35
		c1.01-0.08,1.84-0.42,2.64-0.98c3.47-2.46,5.16-5.97,5.95-10.02c0.82-4.26,0.09-8.4-0.83-12.54c-0.17-0.78-0.42-1.54-0.56-2.33
		c-0.3-1.71,0.49-3.18,2.06-3.89c0.43-0.2,0.9-0.34,1.36-0.47c0.37-0.1,0.75-0.29,1.24-0.09c0.89,18.93-1.6,37.49-6.79,55.71
		C225.59,678.72,223.58,683.99,222.13,685.68z"/>
	<path class="st0" d="M18.95,688.27c0.73,1.03,1.37,1.92,1.98,2.82c0.64,0.93,1.43,1.73,2.29,2.43c1.18,0.96,2.73,1.27,4.76,1.09
		c2.15,1.73,4.32,3.48,6.49,5.23c2.18,1.76,4.93,2.56,7.25,4.08c-0.01,2.2,0.43,4.21,1.04,6.2c0.38,1.24,1.06,2.1,2.23,2.64
		c1.8,0.83,3.59,1.7,5.38,2.55c-1.2,4.34-1.76,4.1-1.02,11.23c-2.19-1.47-4.25-2.82-6.27-4.22c-7.37-5.11-13.91-11.18-20.04-17.7
		c-2.07-2.2-4.03-4.52-5.88-6.92c-0.74-0.96-0.96-1.84-0.85-3.04C16.54,692.31,17.33,690.24,18.95,688.27z"/>
	<path class="st0" d="M167.43,504.09c11.98-1.88,18.21-9.65,20.94-20.88c0.91,0.34,1,1.15,1.23,1.79c0.85,2.41,1.65,4.83,2.36,7.28
		c0.28,0.98,0.35,2.04,0.4,3.07c0.24,4.38,0.52,8.76-1.15,12.99c-1.03,2.59-2.6,4.84-4.68,6.56c-3.41,2.81-7.02,2.77-10.66-1.42
		c-1.52-1.74-2.94-3.57-4.56-5.22C170.03,506.95,168.81,505.58,167.43,504.09z"/>
	<path class="st0" d="M11.56,617.71c0.17,1.96,0.44,3.77,0.45,5.58c0.04,6.88,1.62,13.42,4.18,19.76c1.02,2.52,2.34,4.89,3.77,7.2
		c0.29,0.47,0.7,0.88,0.74,1.43c-0.07,0.4-0.35,0.62-0.64,0.66c-2.91,0.43-5.09,2.16-7.23,3.98c-0.06,0.05-0.12,0.11-0.17,0.17
		c-2.33,2.43-3.49,1.43-4.84-0.73c-1.24-1.98-1.95-4.21-2.32-6.5c-0.46-2.91-0.96-5.8-1.78-8.64C2.95,638,3,635.28,3.52,632.6
		c0.7-3.6,1.62-7.15,3.25-10.48c0.6-1.22,1.26-2.4,2.1-3.48C9.49,617.86,10.2,617.28,11.56,617.71z"/>
	<path class="st0" d="M323.75,136.18c-0.85-3.19-1.65-6.17-2.45-9.16c-0.35-1.31-0.61-2.65-1.1-3.9c-0.61-1.55-0.18-2.98,0.18-4.44
		c0.16-0.63,0.64-1.05,1.2-1.42c2.55-1.67,4.79-3.67,6.48-6.47c0.95,1.17,1.77,2.29,2.71,3.3c1.62,1.76,3.38,3.38,5.24,4.89
		c1.56,1.27,2.88,2.78,3.94,4.46c1.61,2.54,1.89,3.93-1.09,6.31c-1.07,0.85-2.28,1.48-3.53,2c-3.46,1.42-6.95,2.78-10.44,4.15
		C324.61,136,324.29,136.05,323.75,136.18z"/>
	<path class="st0" d="M241.98,111.34c0.89,1.97,1.81,3.45,3.34,4.43c0.33,0.21,0.63,0.52,0.99,0.64c0.77,0.25,1.65,0.49,1.9,1.29
		c0.35,1.12,0.7,2.3,0.34,3.51c-0.12,0.38-0.25,0.76-0.41,1.12c-1.77,4.27-3.46,8.57-4.96,12.94c-0.07,0.21-0.25,0.39-0.4,0.63
		c-4.4-0.52-8.57-1.72-12.42-3.91c-1.25-0.71-2.44-1.49-3.22-2.79c-0.74-1.23-0.75-2.41,0.01-3.6c0.82-1.29,1.85-2.4,3.02-3.38
		c1.41-1.17,2.86-2.3,4.28-3.45C237.12,116.63,239.73,114.41,241.98,111.34z"/>
	<path class="st0" d="M5.24,654.85c1.29,2.19,2.39,4.28,4.88,5c1.05,3.88,2.77,7.48,4.41,11.12c0.63,1.41,1.05,2.81,0.88,4.39
		c-0.11,1.03,0.04,2.08-0.03,3.12c-0.18,2.58,0.55,4.89,1.95,7.02c0.26,0.4,0.46,0.84,0.73,1.34c-1.3,2.04-2.71,4.04-3.52,6.71
		c-1.86-2.65-3.03-5.18-4.19-7.68c-2.94-6.31-5.22-12.87-6.62-19.7c-0.42-2.03-0.82-4.07-1.09-6.12
		C2.35,657.93,3.58,656.44,5.24,654.85z"/>
	<path class="st0" d="M408.8,464.6c-0.21-0.09-0.34-0.1-0.35-0.15c-3.02-10.47-6.53-20.78-10.26-30.97
		c4.09-2.31,9.66-0.92,12.21,2.88c1.51,2.25,2.14,4.79,2.41,7.42c0.55,5.29-0.16,10.49-1.33,15.64
		C411.03,461.38,409.71,462.9,408.8,464.6z"/>
	<path class="st0" d="M179.2,381.46c-0.03,2.08-0.54,4.1-0.69,6.18c-0.19,2.57,0.06,5.08,0.37,7.59c0.49,3.91,1.79,7.6,3.58,11.11
		c0.46,0.89,0.67,1.74,0.39,2.75c-1.08,3.86-1.76,7.78-1.74,11.8c0,0.13-0.14,0.26-0.21,0.39c-2.89-1.26-9.7-6.6-11.33-8.89
		c0.04-0.46,0.4-0.65,0.71-0.9c0.85-0.71,1.23-1.62,1.29-2.73c0.09-1.59,0.27-3.17,0.4-4.76c0.17-2.16,0.59-4.24,1.38-6.28
		c2-5.13,3.8-10.34,5.33-15.63c0.09-0.32,0.18-0.6,0.59-0.59L179.2,381.46z"/>
	<path class="st0" d="M173.65,513.55c-3.68,1.38-6.87,3.05-10.41,3.84c-2.47,0.55-4.89,0.45-7.34-0.08
		c-0.85-0.18-1.38-0.6-1.84-1.35c-1.25-2.06-2.14-4.28-3.12-6.47c-0.44-1-1.2-1.9-1.23-3.18c2.66,0.09,5.07-0.73,7.44-1.68
		c0.74-0.3,1.5-0.55,2.26-0.79c2.57-0.82,4.85-0.33,6.78,1.56C168.76,507.89,171.31,510.4,173.65,513.55z"/>
	<path class="st0" d="M432.45,501.48c-2.53,3.61-4.66,7.06-6.25,10.82c-0.56,1.32-1.45,2.49-2.57,3.43
		c-1.56,1.3-3.31,1.91-5.34,1.36c-0.15-0.04-0.27-0.16-0.52-0.32c-0.36-3.22-0.71-6.54-1.1-9.85c-0.38-3.22-0.79-6.44-1.2-9.74
		C424.57,502.24,425.71,501.42,432.45,501.48z"/>
	<path class="st0" d="M313.99,69.91c-2.67-1.81-4.54-3.67-4.39-6.92c0.06-1.33-0.19-2.7-0.43-4.02c-0.17-0.9,0.13-1.56,0.63-2.21
		c0.44-0.57,0.92-1.1,1.37-1.66c2.5-3.11,4.12-6.61,4.72-10.57c0.03-0.22,0.14-0.42,0.26-0.8c1.35,2.56,1.85,5.23,2.58,7.82
		c0.24,0.84,0.34,1.72,0.57,2.57c0.7,2.48,0.44,4.9-0.49,7.26C317.64,64.34,316,67.05,313.99,69.91z"/>
	<path class="st0" d="M181.98,759.02c0.48-1.44,0.98-2.7,1.31-4c1.09-4.21,1.3-8.44,0.21-12.71c-0.86-3.36-2.9-5.8-5.6-7.78
		c-0.76-0.56-1.62-0.99-2.43-1.48c1.38-0.76,2.85-0.9,4.63-0.51c3.54,0.79,5.94,3.01,7.46,6.17c1.22,2.53,2.06,5.18,1.63,8.08
		c-0.13,0.86-0.1,1.76-0.03,2.63c0.19,2.49-0.74,4.71-1.73,6.87C186.36,758.6,184.84,759.3,181.98,759.02z"/>
	<path class="st0" d="M349.18,730.15c-0.73,1.04-1.45,2.08-2.2,3.11c-3.47,4.73-3.58,9.7-1.13,14.88c1.02,2.15,1.99,4.31,3.01,6.5
		c-0.74,0.25-1.02-0.37-1.46-0.63c-1.37-0.81-2.66-1.82-4.13-2.39c-2.35-0.91-3.58-2.67-4.1-4.93c-0.77-3.36-0.95-6.77-0.13-10.18
		c0.74-3.07,3.79-5.74,6.92-6.1C346.97,730.3,348.01,730.33,349.18,730.15z"/>
	<path class="st0" d="M121.62,465.52c0.59,0.28,0.83,0.89,1.11,1.43c2.15,4.12,4.66,8,7.38,11.76c1.41,1.94,2.4,4.14,3.44,6.3
		c0.1,0.21,0.17,0.45-0.16,0.79c-2.04-0.81-4.06-1.89-6.07-2.97c-2.18-1.17-4.26-2.52-6.41-3.74c-2.62-1.5-3.33-3.84-2.65-6.56
		c0.54-2.15,1.4-4.24,2.48-6.21C120.93,466,121.12,465.6,121.62,465.52z"/>
	<path class="st0" d="M427.75,512.72c2.05-4.05,4.08-7.74,6.5-11.19c0.91-1.31,2.32-1.91,3.89-1.95c1.35-0.04,2.68-0.11,3.92-0.41
		c0.34,0.2,0.28,0.45,0.24,0.68c-0.53,3.22-1.17,6.42-1.98,9.58c-0.21,0.82-0.57,1.41-1.38,1.8
		C435.47,512.91,431.85,513.4,427.75,512.72z"/>
	<path class="st0" d="M321.63,114.99c-0.93-0.32-1.3-1.11-1.57-1.96c-0.84-2.58-1.51-5.22-1.75-7.93c-0.19-2.03,0.05-3.95,1.55-5.58
		c1.02-1.11,1.6-2.53,2.11-3.88c0.88,0.05,0.81,0.67,0.96,1.04c1.06,2.58,2.15,5.16,3.07,7.79
		C327.52,108.84,326.53,112.32,321.63,114.99z"/>
	<path class="st0" d="M246.9,100.64c0.37,0.25,0.56,0.38,0.75,0.52c1.35,1.02,2.2,0.8,2.92-0.72c0.26-0.55,0.04-1.32,0.74-1.67
		c0.07-0.03,0.14-0.04,0.36-0.1c0.78,0.91,1.06,1.94,0.88,3.21c-0.45,3.24-1.24,6.38-2.59,9.37c-0.39,0.87-0.77,1.74-1.21,2.59
		c-0.55,1.07-1.38,1.29-2.35,0.7c-2.01-1.23-3.09-3.85-2.6-6.17C244.39,105.64,245.57,103.15,246.9,100.64z"/>
	<path class="st0" d="M308.87,56.01c-0.45-4.33-0.04-8.29,0.01-12.24c0.01-0.78,0.25-1.57,0.47-2.33c0.52-1.84,0.88-3.68,0.47-5.61
		c-0.11-0.53-0.02-1.1-0.02-1.6c0.73-0.28,1,0.17,1.28,0.53c0.53,0.69,0.99,1.45,1.57,2.1c2.17,2.45,2.38,5.34,1.69,8.3
		C313.42,49.06,311.9,52.7,308.87,56.01z"/>
	<path class="st0" d="M317.55,83.29c-0.89-0.94-0.83-2.2-1-3.32c-0.41-2.58-0.68-5.19-0.97-7.78c-0.14-1.21,0.01-2.37,0.75-3.41
		c1.53-2.14,2.83-4.41,3.74-6.89c0.04-0.11,0.25-0.16,0.39-0.23C322.54,66.79,320.84,80.5,317.55,83.29z"/>
	<path class="st0" d="M317.65,99.6c-0.67-0.62-0.77-1.26-0.8-1.9c-0.19-3.24-0.02-6.49,0.02-9.73c0.01-0.72,0.13-1.49,0.67-1.99
		c2.19-2.03,3.12-4.73,4.04-7.44c0.12-0.35,0.05-0.79,0.56-1.02c0.88,5.54,0.19,10.94-1.19,16.27
		C320.39,95.93,319.55,98,317.65,99.6z"/>
	<path class="st0" d="M380.26,728.01c-1.6,2.98-3.6,5.61-3.95,9.26c-1.92-1.67-3.05-3.6-4.62-5.13c-1.56-1.52-3.4-2.58-5.22-3.7
		c0.98-1.4,0.99-1.43,2.16-1.09c2.53,0.74,5.07,1.29,7.74,1.2C377.65,728.5,378.84,728.04,380.26,728.01z"/>
	<path class="st0" d="M123.68,322.34c2.09,2.68,4.06,5.28,6.1,7.82c2.44,3.05,4.99,6.02,7.78,8.77c2.36,2.33,5.08,4.12,8.45,4.67
		c0.31,0.05,0.61,0.2,0.89,0.33c0.14,0.06,0.25,0.19,0.37,0.29c-0.14,0.36-0.11,0.8-0.65,1.14c-2.26-0.42-4.41-1.45-6.45-2.66
		c-3.94-2.34-7.46-5.15-10.14-8.98c-2.06-2.95-4.15-5.86-5.81-9.06C123.88,324.01,123.3,323.36,123.68,322.34z"/>
	<path class="st0" d="M316.15,746.95c-1.14,0.48-1.74,0-2.31-0.38c-3.27-2.22-5.2-6.12-3.81-10.68c0.42-1.37,1-2.69,1.53-4.02
		c0.14-0.36,0.28-0.76,0.93-0.91C313.26,736.36,314.04,741.76,316.15,746.95z"/>
	<path class="st0" d="M250.2,25.38c0.82-2.05,1.58-4.12,2.47-6.14c2.37-5.39,4.63-10.82,6.62-16.37c0.13-0.37,0.28-0.75,0.48-1.08
		c0.28-0.47,0.31-0.46,1.81-0.38c-0.64,1.73-1.23,3.44-1.9,5.11c-1.48,3.7-2.62,7.5-3.79,11.31c-0.37,1.21-0.7,2.49-1.62,3.41
		c-0.69,0.69-0.18,1.89-1.34,2.42c-0.91,0.41-1.61,1.27-2.41,1.92C250.42,25.52,250.31,25.45,250.2,25.38z"/>
	<path class="st0" d="M167.52,340.56c-1.41,1.41-2.77,2.88-4.24,4.22c-1.1,1-2.62,1.14-4,1.46c-3.23,0.75-6.49,0.46-9.74,0
		c-0.31-0.04-0.62-0.17-0.91-0.29c-0.21-0.08-0.4-0.22-0.58-0.32c-0.04-0.55,0.02-1.01,0.51-1.4c6.62,0.68,12.78-1.26,18.73-4.17
		C167.37,340.22,167.45,340.39,167.52,340.56z"/>
	<path class="st0" d="M400.67,344.73c0.23,0.3,0.46,0.53,0.6,0.79c0.22,0.41,0.4,0.86,0.64,1.39c-1.54,1.25-3.42,1.73-5.09,2.57
		c-1.34,0.67-2.83,1.06-4.19,1.71c-1.05,0.51-1.95,0.49-2.9-0.16c-1.1-0.75-2.39-1.24-3.58-2.46c2.68-0.43,5.17-0.55,7.56-1.26
		C396.08,346.62,398.3,345.55,400.67,344.73z"/>
	<path class="st0" d="M180.76,520.62c-2.27-0.47-3.97-0.81-5.67-1.18c-1.42-0.31-2.83-0.28-4.26,0.03
		c-1.79,0.38-6.83,0.34-9.29-0.09c4.86-0.87,8.9-2.66,12.58-4.94c0.7,0.12,1.03,0.51,1.3,0.88
		C176.8,517.22,178.64,518.7,180.76,520.62z"/>
	<path class="st0" d="M415.79,335.06c-0.07,0.74-0.06,0.91-0.11,1.05c-1.5,3.81-1.49,3.83-5,5.99c-1.96,1.21-3.98,2.34-5.97,3.49
		c-0.48,0.27-0.98,0.49-1.45,0.73c-0.7-0.61-0.93-1.37-1.29-2.27C406.77,341.58,411.34,338.76,415.79,335.06z"/>
	<path class="st0" d="M307.9,60.65c0.35,2.29,0.45,4.55-0.17,6.77c-0.08,0.3-0.16,0.64-0.34,0.88c-1.59,2.14-3.21,4.26-4.95,6.57
		c0-1.34,0.07-2.37-0.02-3.38c-0.17-2.01,0.49-3.71,1.57-5.36C305.21,64.28,306.7,62.62,307.9,60.65z"/>
	<path class="st0" d="M146.63,349.76c0.32-1.11,0.37-1.93,1.1-2.63c2.18,0.18,4.43,0.67,6.74,0.62c2.22-0.06,4.36-0.53,6.99-0.96
		c-2.19,2.17-4,4.01-6.93,3.93C151.91,350.64,149.32,350.46,146.63,349.76z"/>
	<path class="st0" d="M411.8,347.23c-2.06,1.27-4.26,2.18-6.47,3.11c-0.85-0.58-0.99-1.45-1.38-2.32c2.98-1.84,5.87-3.63,8.95-5.53
		C412.75,344.25,412.26,345.73,411.8,347.23z"/>
	<path class="st0" d="M215.11,733.42c-1,0.53-1.83,0.69-2.72,0.7c-3.1,0.05-5.71,1.29-8.01,3.29c-0.78,0.68-1.58,1.32-2.66,2.21
		c0.44-3.24,2.19-5.2,4.59-6.52C209.17,731.54,212.1,731.87,215.11,733.42z"/>
	<path class="st0" d="M400.08,342.64c-1.74,1.12-3.46,1.68-5.15,2.3c-3.07,1.12-6.26,1.77-9.5,2.22c-0.57,0.08-1.09,0.09-1.59-0.26
		c-1.02-0.72-2.06-1.42-3.28-2.26c1.12-0.49,2.09-0.22,2.92-0.05c5.28,1.1,10.27,0.08,15.16-1.85
		C398.99,342.6,399.31,342.3,400.08,342.64z"/>
	<path class="st0" d="M393.58,352.75c0.03-0.1,0.03-0.23,0.08-0.24c2.99-1.21,6-2.36,8.81-3.85c0.79,0.61,1.19,1.27,1.47,2.05
		c-0.27,0.67-0.94,0.79-1.48,1.04c-1.08,0.5-2.25,0.83-3.25,1.44C397.17,354.42,395.36,354.09,393.58,352.75z"/>
	<path class="st0" d="M4.68,653.29c-0.79,0.69-1.45,1.26-2.29,1.99c-0.61-2.29-0.44-4.46-0.43-6.62c0.01-2.12,0.12-4.24,0.2-6.56
		c1.12,1.32,1.39,1.73,1.36,3.05C3.47,647.88,4,650.53,4.68,653.29z"/>
	<path class="st0" d="M418.37,405.18c0.51,0.25,0.94,0.59,1.04,1.11c0.03,0.29-0.07,0.36-0.27,0.41c-2.24,0.57-4.52,1.05-6.4,2.53
		c-1.84,1.44-3.34,3.19-4.7,5.08c-0.41,0.57-0.65,1.3-1.39,1.6C406.89,412.38,413.31,406.56,418.37,405.18z"/>
	<path class="st0" d="M146.34,346.84c-0.31,0.85-0.31,1.67-0.9,2.3c-0.69,0.33-1.23,0.02-1.7-0.44c-1.47-1.45-2.92-2.92-4.37-4.37
		c0.4-0.56,0.74-0.25,1.07-0.11C142.31,345.05,144.19,345.89,146.34,346.84z"/>
	<path class="st0" d="M433.34,514.55c-2.37,1.3-4.95,1.76-7.9,2.28c0.51-1,0.87-1.71,1.23-2.41
		C428.97,514.22,431.13,515.08,433.34,514.55z"/>
	<path class="st0" d="M167.57,411.12c-2.35-0.94-4.29-2.06-6.7-2c0.4-0.72,0.97-0.86,1.56-0.89c0.71-0.03,1.43-0.01,2.15-0.01
		C166.27,408.21,167.22,409.05,167.57,411.12z"/>
	<path class="st0" d="M259.78,11.13c-0.02,2,0.67,3.79-0.22,5.66c-0.46,0.58-1.23,0.81-1.96,1.14
		C257.53,16.36,258.46,13.4,259.78,11.13z"/>
	<path class="st0" d="M146.23,350.83c2.79,0.37,5.25,0.85,7.78,0.92c-1.79,1.23-3.78,0.97-5.75,0.77
		C147.36,352.44,147.37,352.37,146.23,350.83z"/>
	<path class="st0" d="M421.58,518.86c-1.54,1.73-1.91,2.01-3.76,2.8c-0.28-0.92-0.27-1.8,0.03-2.8
		C419.1,518.86,420.3,518.86,421.58,518.86z"/>
	<path class="st0" d="M404.87,352.14c0.57,0.31,0.88,0.53,0.95,0.97c-0.04,0.85-3.19,1.59-5.43,1.23
		C401.81,353.35,403.39,352.9,404.87,352.14z"/>
	<path class="st0" d="M409.48,350.29c-0.57,1.13-1.37,1.68-2.18,2.17c-0.54,0.33-0.89,0.01-1.05-0.54
		C407.46,350.85,407.46,350.85,409.48,350.29z"/>
	<path class="st0" d="M414.79,333.36c-0.71,1.51-2.26,1.98-3.42,2.92c0.79-1.34,1.65-2.02,3.46-2.87L414.79,333.36z"/>
	<path class="st0" d="M404.84,340.24c-1.21,0.92-2.31,1.52-3.75,1.88C402.24,340.76,402.46,340.65,404.84,340.24z"/>
	<path class="st0" d="M394.28,429.59c-1.55-0.54-1.34-1.82-1.41-3.16C393.79,427.38,393.98,428.5,394.28,429.59z"/>
	<path class="st0" d="M414.83,333.41c0.31-0.94,1.17-1.24,1.91-1.67c-0.5,0.73-0.88,1.6-1.96,1.62L414.83,333.41z"/>
	<path class="st0" d="M179.26,381.51c-0.32-1,0.07-1.86,0.64-2.92c0.19,1.21-0.29,2.04-0.69,2.87L179.26,381.51z"/>
</g>
</svg>
