<?xml version="1.0" encoding="utf-8"?>
<!-- Generator: Adobe Illustrator 24.1.1, SVG Export Plug-In . SVG Version: 6.00 Build 0)  -->
<svg version="1.1" id="Layer_1" xmlns="http://www.w3.org/2000/svg" xmlns:xlink="http://www.w3.org/1999/xlink" x="0px" y="0px"
	 width="653.58" height="931" viewBox="0 0 653.58 931" style="enable-background:new 0 0 653.58 931;" xml:space="preserve">
<style type="text/css">
	.st0{fill:#1A1A1A;}
</style>
<g>
	<path d="M356.67,918.75c-1.08,1.09-2.22,2.06-3.29,3.13c-2.38,2.37-5.05,4.39-8.31,5.5c-2.19,0.74-4.35,1.54-6.61,2.09
		c-1.19,0.29-2.38,0.55-3.54,0.26c-1.78-0.45-3.53-0.2-5.16,0.31c-2.8,0.88-5.55,1.17-8.47,0.8c-2.21-0.28-4.44-0.39-6.63-0.86
		c-2.54-0.54-4.81-1.67-6.96-3.08c-0.33-0.22-0.65-0.46-1-0.67c-1.15-0.67-1.85-0.7-2.8,0.18c-1.27,1.19-2.55,1.5-4.34,1.16
		c-1.8-0.34-3.67-0.36-5.28-1.33c-3.74-2.25-7.02-5-9.23-8.86c-1.03-1.8-2.16-3.55-2.94-5.49c-0.9-2.24-1.31-4.56-1.61-6.95
		c-0.53-4.21-1.09-8.39-0.67-12.63c0.32-3.26,0.96-6.46,1.5-9.69c1.1-6.7,2.58-13.31,4.23-19.89c1.9-7.58,3.85-15.15,5.83-22.72
		c0.32-1.22,0.75-2.42,1.5-3.5c0.49-0.71,0.85-1.56,1.07-2.39c1.31-4.85,2.63-9.7,3.82-14.59c0.64-2.63,1.02-5.32,1.47-7.99
		c0.38-2.25-0.03-4.46-0.52-6.64c-0.77-3.43-1.89-6.75-3.41-9.94c-1.92-4.03-3.92-8.03-5.6-12.16c-2.52-6.21-5.84-12.13-7.65-18.58
		c-2.72-9.69-6.35-19.08-8.85-28.83c-1.82-7.11-2.66-14.29-1.98-21.58c0.5-5.33,1.57-10.59,3.36-15.64
		c2.44-6.85,3.98-13.98,6.43-20.82c0.37-1.04,0.54-2.15,0.59-3.29c0.09-2.07,0.5-4.14,0.39-6.19c-0.15-2.61-0.58-5.23-1.09-7.8
		c-1.29-6.47-3.92-12.47-6.77-18.37c-2.58-5.32-5.33-10.55-7.77-15.94c-1.35-2.98-2.99-5.83-4.55-8.71
		c-2.67-4.93-4.84-10.08-6.36-15.47c-1.11-3.92-2.51-7.74-3.84-11.58c-2.42-7.03-4.35-14.18-5.58-21.52
		c-0.92-5.5-2.04-10.98-2.96-16.48c-0.65-3.85-1.16-7.72-1.66-11.59c-0.51-3.87-1.05-7.74-1.35-11.63c-0.2-2.53-0.3-5.11,0.14-7.65
		c0.04-0.24,0.09-0.47,0.09-0.71c-0.04-4.82,0.74-9.54,1.69-14.23c0.05-0.23,0.14-0.46-0.11-0.69c-0.72-0.01-1.25,0.55-1.9,0.78
		c-1.23,0.43-2.03-0.1-2.12-1.43c-0.05-0.79-0.01-1.59-0.01-2.52c-2.9-0.84-5.44-2.47-7.73-4.47c-1.22-1.06-2.22-2.3-2.75-3.86
		c-0.15-0.44-0.34-0.87-0.27-1.39c0.22-1.75,1.33-2.57,3.38-2.42c0.31,0.02,0.61,0.19,0.93,0.23c0.31,0.04,0.62,0.01,1.08,0.01
		c-0.81-1.95-1.57-3.76-2.31-5.57c-0.52-1.27-0.85-2.58-0.73-3.97c0.08-1.01,0.52-1.42,1.52-1.46c0.83-0.03,1.58,0.21,2.25,0.69
		c0.84,0.6,1.67,1.2,2.51,1.81c1.37-2.45,2.15-2.62,4.49-1.04c0.26,0.18,0.53,0.34,0.88,0.57c0.98-1.14,1.49-2.35,1.75-3.82
		c1.15-6.59,1.78-13.28,3.71-19.73c1.5-5.01,3.68-9.69,6.38-14.14c0.33-0.54,0.67-1.11,1.14-1.54c0.95-0.87,1.45-1.83,1.31-3.15
		c-0.12-1.11,0.66-1.92,1.24-2.81c-0.36-1.65-0.44-3.29,0.03-4.95c0.48-1.7,1.23-2.25,2.91-1.95c0.7,0.13,1.41,0.27,2.07,0.39
		c0.9-0.45,0.52-1.64,1.12-2.04c1.08-0.71,1.19-1.67,1.36-2.8c0.3-2.04,1.21-2.8,3.3-3.17c0.54-0.1,1.08-0.23,1.62-0.34
		c0.15-0.24,0.36-0.42,0.39-0.63c0.28-1.59,0.92-3.02,1.73-4.42c1.2-2.07,1.13-2.09-0.03-4.09c-2.64-4.56-5.27-9.12-6.72-14.12
		c-0.79-0.6-1.59-0.65-2.38-0.78c-2.4-0.41-2.63-0.71-2.47-3.16c0.02-0.31,0.08-0.63,0.15-1.11c-0.85-0.86-1.75-1.75-2.64-2.66
		c-2.32-2.4-2.2-4.81,0.35-6.97c0.3-0.25,0.68-0.43,0.78-1.08c-1.75-1.76-2.95-4.15-5.08-5.77c-0.94-0.72-1.41-1.71-1.16-2.96
		c0.08-0.39-0.02-0.86,0.16-1.18c1.11-1.94,0.27-3.66-0.43-5.47c-2.04-5.22-4.62-10.18-7.21-15.13c-1.96-3.75-3.9-7.5-5.75-11.31
		c-1.96-4.03-4.67-7.63-6.91-11.5c-3.06-5.3-5.44-10.85-6.12-17c-0.23-2.06-0.31-4.15-0.24-6.22c0.09-2.63,0.38-5.25,0.63-7.87
		c0.08-0.87,0.21-1.77,0.53-2.57c1.54-3.94,2.36-8.13,4.21-11.95c2.75-5.69,5.71-11.25,9.8-16.13c1.6-1.91,2.83-4.04,3.94-6.27
		c1.7-3.43,3.45-6.84,5.23-10.23c0.53-1,0.52-1.87,0.09-2.93c-2.07-5.08-4.86-9.67-8.65-13.67c-2.25-2.38-4.12-5.09-6.05-7.73
		c-6.18-8.44-12.4-16.85-18.55-25.32c-3.24-4.46-6.52-8.91-9.07-13.81c-2.57-4.95-5.15-9.91-7.33-15.06
		c-1.03-2.43-1.83-5.03-3.29-7.17c-2.8-4.1-4-8.82-5.84-13.29c-1.83-4.45-2.83-9.14-3.92-13.8c-1.24-5.28-2.44-10.57-3.17-15.95
		c-0.38-2.84-0.78-5.69-0.83-8.56c-0.03-1.36-0.01-2.7-0.23-4.06c-0.16-1-0.01-2.06,0.07-3.09c0.17-2.39,0.25-4.76-0.08-7.16
		c-0.6-4.34-0.27-8.63,1.37-12.73c1.32-3.33,3.44-6.12,6.24-8.36c1.79-1.43,3.83-2.29,6.15-2.43c0.64-0.04,1.28-0.09,1.45-0.21
		c0.99-0.77,0.7-1.67,1.38-2.31c1.23-0.39,2.65-0.71,4.07-0.64c2.4,0.12,4.78-0.01,7.16-0.21c2.52-0.21,4.93,0.25,7.29,1.02
		c2.3,0.75,4.71,0.75,7.08,1.07c0.2,0.03,0.43-0.16,0.7-0.27c-0.14-1.43-0.16-2.86-0.43-4.25c-0.28-1.43-0.34-2.86-0.26-4.29
		c0.18-3.23-0.49-6.36-1.14-9.48c-0.45-2.14-1.57-4.01-2.61-5.89c-1.06-1.9-1.83-3.89-2.2-6.04c-0.44-2.6-0.84-5.18-0.99-7.82
		c-0.12-2.14-0.57-4.26-0.81-6.4c-0.19-1.74-0.34-3.49-0.43-5.24c-0.27-5.4,0.84-10.63,2.1-15.84c0.28-1.17,0.75-2.25,1.4-3.28
		c0.55-0.87,0.96-1.84,1.4-2.77c1.26-2.68,4.48-3.69,7.05-2.17c1.82,1.08,3.28,2.55,4.34,4.39c0.59,1.04,1.17,2.1,1.62,3.21
		c1.78,4.28,4.58,7.82,7.82,11.07c2.83,2.85,5.24,6.03,7.4,9.4c0.34,0.53,0.59,1.13,1.08,1.56c2.21,1.93,3.64,4.43,5.04,6.95
		c0.9,1.62,2.09,2.98,3.29,4.31c0.71-0.32,0.47-0.86,0.48-1.29c0.06-2.25,0.45-4.44,1.02-6.61c0.74-2.83,2.33-4.73,5.34-5.51
		c3.56-0.92,6.92-2.34,9.92-4.6c1.27-0.96,2.23-1.93,2.61-3.52c0.41-1.71,1.56-2.73,3.36-2.95c0.55-0.07,1.1-0.18,1.64-0.26
		c0.24-0.04,0.47-0.05,0.8-0.09c1.14-1.16,2.19-2.46,2.68-4.09c0.76-2.52,2.84-4.02,4.49-5.82c0.96-1.05,2.54-0.91,3.86-0.85
		c4.75,0.2,9.33,1.19,13.66,3.22c2.42,1.14,4.9,1.81,7.62,1.76c2.52-0.05,3.49,0.89,4.48,3.75c0.67,0.35,1.4,0.22,2.11,0.2
		c2.43-0.09,4.77,0.38,7.08,1.01c1.39,0.38,2.78,0.69,4.21,0.87c1.5,0.19,2.9,0.3,4.43-0.23c1.43-0.5,3.01,0.03,4.36,0.74
		c1.96,1.04,4.07,1.92,5.25,4.07c1.65-0.29,2.63-1.38,3.64-2.34c1.79-1.71,3.5-3.5,5.25-5.26c0.68-0.68,1.33-1.38,2.06-2
		c0.73-0.61,1.5-1.18,2.51-1.32c1.59-0.22,2.38,0.13,3.15,1.55c1.32,2.45,1.22,5.08,0.87,7.71c-0.12,0.93-0.2,1.9-0.77,2.71
		c0.71,0.75,1.59,0.67,2.31,0.85c3.36,0.86,5.91,2.78,7.64,5.74c1.21,2.06,2.29,4.2,3.4,6.32c0.33,0.63,0.58,1.31,1.28,1.93
		c2.64,0.17,5.42,0.38,8.2,0.52c1.91,0.1,3.84,0.07,5.75,0.14c1.15,0.04,2.18-0.45,3.29-0.58c3.26-0.37,6.43-1.15,9.47-2.41
		c0.73-0.31,1.5-0.55,2.06-1.06c-0.1-6.5,2.2-12.19,5.74-17.4c1.74-2.56,3.75-5,6.96-5.96c0.27-0.08,0.49-0.38,0.7-0.61
		c0.32-0.35,0.62-0.73,0.92-1.1c2.6-3.13,5.84-2.84,7.91,0.73c0.97,1.67,1.58,3.5,1.98,5.38c0.31,1.47,0.61,2.97,0.54,4.5
		c-0.11,2.17,0.55,4.27,0.74,6.42c0.09,1.03,0.21,2.06,0.22,3.09c0.04,3.83,0.11,7.66,0.39,11.49c0.14,1.97-0.16,3.98-0.26,5.97
		c-0.02,0.31,0,0.62,0,1.33c1.2-1.92,2.33-3.44,3.18-5.11c1.46-2.9,3.65-5.21,5.77-7.6c0.48-0.54,1-1.04,1.41-1.62
		c0.83-1.16,1.94-1.86,3.28-2.26c3.71-1.12,7.37-1.12,11.04,0.54c0.99,2.48,0.59,4.95-0.44,7.33c-3.4,7.84-6.56,15.77-9.49,23.79
		c-0.87,2.38-2.45,4.29-4.03,6.19c-1.83,2.22-3.66,4.44-5.63,6.53c-1.52,1.62-3.26,3.04-4.93,4.58c0.26,1.02,0.5,2.01,0.75,3
		c0.52,2.08-0.13,3.76-1.73,5.11c-0.48,0.41-1.01,0.81-1.59,1.06c-4.69,2.08-8.84,5.14-13.45,7.36c-1.95,0.94-3.72,2.17-5.52,3.35
		c-2.69,1.76-5.69,2.55-8.84,2.61c-5.44,0.11-10.89,0.21-16.32-0.04c-3.44-0.16-6.85,0.07-10.27,0.08c-0.39,0-0.8-0.07-1.31,0.36
		c0,1.1,0,2.35,0,3.75c0.55,0.51,1.4,0.7,2.26,0.78c5.46,0.54,9.25,3.6,12.12,8.03c2.75,4.24,3.94,9.03,4.8,13.93
		c0.63,3.57,0.68,7.12,0.13,10.72c-0.37,2.44-0.49,4.91-1.33,7.27c-2.33,6.54-6.6,11.2-13.11,13.72c-0.29,0.11-0.59,0.22-1.02,0.39
		c0.78,1.79,1.86,3.36,2.8,5.02c2.45,4.3,5.08,8.5,7.26,12.95c0.74,1.52,1.21,3.12,1.72,4.71c1.65,5.09,3.12,10.22,4.22,15.47
		c0.52,2.47,0.07,4.58-1.31,6.57c-0.5,0.72-1.08,1.39-1.68,2.03c-0.6,0.64-1.13,1.32-1.59,2.09c-0.99,1.66-2.39,2.98-3.87,4.21
		c-0.3,0.25-0.58,0.52-0.92,0.84c0.58,0.47,0.94-0.02,1.28-0.16c2.52-1.01,5.09-1.89,7.74-2.49c2.37-0.55,4.79-0.34,7.16-0.05
		c3.08,0.38,6.15,0.94,9.13,1.86c2.6,0.8,5.06,1.94,7.48,3.19c2.96,1.54,5.28,3.75,7.44,6.26c5.23,6.09,9.76,12.64,13.33,19.83
		c3.03,6.11,5.35,12.46,6.26,19.26c0.36,2.68,0.46,5.41,0.9,8.08c0.53,3.22,1.23,6.42,1.98,9.61c0.86,3.65,1.52,7.34,2.54,10.96
		c0.46,1.63,1.01,3.19,1.78,4.69c3.29,6.39,6.7,12.72,9.8,19.21c3.16,6.63,6.5,13.18,9.36,19.95c1.37,3.25,3.56,6.05,5.75,8.8
		c0.8,1.01,1.74,1.45,3.11,1.25c1.5-0.22,3.04-0.13,4.34,0.91c0.24,0.19,0.56,0.31,0.87,0.38c6.4,1.51,11.95,4.78,17.32,8.4
		c0.33,0.22,0.63,0.58,0.99,0.66c1.56,0.36,2.54,1.56,3.75,2.42c4.1,2.91,8.19,5.85,12.36,8.67c1.12,0.76,2.16,1.58,3.21,2.42
		c3.06,2.44,6.34,4.54,10.09,5.81c0.6,0.2,1.1,0.61,1.53,1.11c0.41,0.47,0.92,0.88,1.44,1.24c5.36,3.74,10.84,7.32,16.06,11.27
		c0.13,0.1,0.25,0.21,0.4,0.27c2.51,1.03,4.49,2.95,6.89,4.17c2.35,1.19,4.56,2.67,6.94,3.77c3.2,1.48,6.57,2.34,10.17,1.8
		c1.02-0.15,2.07-0.15,3.11-0.2c0.56-0.03,1.14-0.03,1.61-0.38c0.69-0.52,1.45-0.45,2.27-0.49c2.4-0.1,4.7-0.79,7.04-1.31
		c4.59-1.03,9.08-2.5,13.72-3.3c3.33-0.57,6.63-0.72,9.93,0.27c4.08,1.22,8.33,1.34,12.53,1.82c2.16,0.25,4.29-0.28,6.44-0.36
		c3.6-0.13,7.18-0.27,10.75,0.33c0.47,0.08,0.96,0.03,1.44,0.04c0.97,0.02,1.9,0.23,2.8,0.6c2.19,0.88,2.97,2.02,2.85,4.4
		c-0.14,2.62-0.8,4.93-3.23,6.56c-2.13,1.42-4.24,2.83-6.54,3.96c-0.66,0.33-1.35,0.53-2.07,0.57c-3.82,0.25-7.53,1.3-11.35,1.59
		c-1.67,0.13-3.35,0.11-5.02,0.15c-0.71,0.02-1.43,0-2.19,0c-0.01,0.75,0.65,0.66,0.97,0.76c2.77,0.81,5.34,2.11,8.04,3.08
		c1.47,0.53,2.6,1.56,3.73,2.57c3.89,3.47,8.28,6.25,12.54,9.2c0.53,0.36,1.08,0.69,1.62,1.03c2.6,1.64,3.55,4.25,3.95,7.08
		c0.28,1.96-2.14,4.69-4.4,4.99c-1.2,0.16-2.29,0.66-3.42,0.67c-0.73,0.9-1.19,1.82-2.06,2.47c-1.59,1.18-3.29,1.82-5.27,2.03
		c-3.83,0.4-7.49,0.2-10.85-1.94c-0.8-0.51-1.72-0.85-2.6-1.22c-3.09-1.3-6.2-2.55-9.28-3.88c-1.33-0.58-2.62-1.18-4.12-1.08
		c-0.3,0.02-0.65-0.09-0.9-0.26c-0.81-0.55-1.64-0.55-2.51-0.24c-0.8,0.28-1.71,0.03-2.62,0.65c2.66,1.68,3.81,4.45,5.32,6.94
		c1.45,2.4,3.03,4.7,4.74,6.92c1.18,1.53,2.18,3.16,3.16,4.8c1.39,2.33,0.94,5.16-1.05,7.02c-0.83,0.77-1.8,1.31-3,1.32
		c-2.79,0.02-5.37-0.58-7.61-2.36c-0.88-0.7-1.76-1.38-2.24-2.45c-0.1-0.22-0.2-0.44-0.34-0.62c-2.93-3.78-5.85-7.57-9.03-11.15
		c-0.38-0.43-0.84-0.69-1.37-0.91c-1.48-0.61-3.02-1.03-4.6-1.22c-1.48-0.18-2.83-0.54-3.58-1.85c-2.09-0.08-4-0.19-5.92-0.22
		c-2.23-0.03-4.41-0.5-6.58-0.85c-1.83-0.29-3.54-1.37-5.25-2.22c-1-0.49-2-0.95-3.05-1.33c-3.17-1.15-6.07-2.79-8.41-5.29
		c-0.22-0.23-0.44-0.47-0.7-0.66c-2.22-1.65-3.91-3.77-5.28-6.14c-0.48-0.83-1.07-1.34-1.95-1.62c-3.13-0.97-6.08-2.37-9.11-3.59
		c-2.13-0.86-4.37-1.47-6.56-2.2c-0.45-0.15-0.93-0.25-1.36-0.45c-4.8-2.19-9.89-3.49-14.92-4.97c-3.67-1.09-7.32-2.23-11.09-2.96
		c-0.31-0.06-0.62-0.17-0.91-0.31c-3.09-1.59-6.49-2.17-9.84-2.84c-1.07-0.22-1.78-1-2.75-1.38c-3.94-1.54-7.84-3.19-11.76-4.76
		c-0.9-0.36-1.71-0.84-2.5-1.38c-1.98-1.35-3.92-2.76-6.13-3.73c-0.15-0.06-0.3-0.13-0.42-0.23c-3.03-2.54-6.82-3.81-10.03-6.04
		c-3.21-2.23-6.51-4.34-9.77-6.5c-0.13-0.09-0.34-0.11-0.42-0.23c-1.27-1.86-3.37-2.6-5.11-3.82c-2.07-1.45-3.65-3.39-4.91-5.51
		c-3.68-6.19-7.8-12.08-11.88-18c-2.31-3.35-4.58-6.77-6.1-10.56c-1.78-4.42-4.6-8.2-6.98-12.26c-1.98-3.37-4.02-6.69-5.52-10.34
		c-0.66-1.61-1.76-3.03-2.69-4.53c-1.64-2.63-3.31-5.25-5.03-7.97c-0.61,0.78-0.73,1.54-0.8,2.3c-0.52,5.24-1.43,10.42-2.48,15.58
		c-0.11,0.56-0.15,1.05-0.03,1.62c0.31,1.5,0.44,3.02-0.46,4.41c-0.3,0.47-0.09,0.89,0.03,1.36c0.25,0.96,0.25,1.92-0.39,2.75
		c-1.8,2.34-2.01,5.15-2.35,7.91c-0.25,2.06-0.48,4.12-0.61,6.19c-0.2,3.28-0.78,6.48-1.7,9.63c-0.06,0.21-0.01,0.46-0.01,0.64
		c0.28,0.58,0.79,0.51,1.25,0.61c0.46,0.1,0.95,0.22,1.35,0.45c2.68,1.49,3.26,3.42,2.13,5.54c-1.01,1.89-0.99,3.37,0.35,5
		c0.6,0.73,0.95,1.66,1.43,2.49c0.29,0.49,0.56,1,0.51,1.57c-0.1,1.06-0.06,2.01,0.75,2.88c0.48,0.52,0.15,1.16-0.23,1.74
		c-0.47,0.72-1.36,0.83-1.85,1.46c0.92,3.36,3.17,6.64,5.77,8.8c3.19,2.65,6.3,5.41,9.44,8.13c2.05,1.78,4.13,3.53,6.12,5.37
		c2.17,2,4.14,4.21,5.91,6.58c1.2,1.61,2.23,3.32,2.61,5.46c2.66,0.59,3.86,2.5,4.19,5.07c0.1,0.79,0.48,1.29,1.06,1.78
		c1.03,0.88,2.11,1.74,2.97,2.78c1.43,1.73,2.55,3.67,2.64,6.06c1.27,0.25,2.57-0.34,3.54,0.61c0.82,0.81,1.42,1.71,0.92,2.98
		c1.39,0.22,2.67-0.02,3.82,0.85c1.74,1.32,2.08,2.41,1.06,4.28c-0.46,0.85-0.99,1.65-1.89,2.15c0.5,2.1-0.68,3.76-1.22,5.65
		c0.61,1.08,1.21,2.2,1.85,3.31c3.05,5.27,5.37,10.89,7.59,16.53c1.43,3.64,2.09,7.53,2.58,11.42c0.12,0.97,0.11,1.93,1.27,2.53
		c2.06-0.7,4.28-1.26,6.37-2.26c1.29-0.62,2.65-1.1,4.15-0.99c1.94,0.15,2.8,1.35,2.25,3.27c-0.85,2.99-2.57,5.47-4.62,7.75
		c-0.53,0.58-1.08,1.14-1.55,1.64c0.08,0.59,0.45,0.54,0.74,0.62c2.18,0.67,2.55,2.09,0.84,3.62c-1.12,1-2.39,1.86-3.68,2.65
		c-1.29,0.79-2.66,1.45-4.02,2.12c-1.05,0.52-2.09,0.86-2.6,2.18c-0.36,0.94-1.47,1.41-2.39,1.7c-0.5,0.59-0.16,1.16-0.18,1.7
		c-0.18,5.67-0.17,11.35-0.55,17.01c-0.36,5.32-1.25,10.58-2.57,15.78c-1.17,4.64-2.64,9.2-3.77,13.85
		c-0.99,4.03-2.09,8.03-3.18,12.03c-1.26,4.63-3.22,9.02-4.86,13.52c-1.97,5.41-4.45,10.59-6.88,15.8
		c-2.16,4.62-3.97,9.4-5.93,14.12c-3.34,8.05-7.16,15.87-11.43,23.47c-2.04,3.63-3.53,7.52-5.31,11.27
		c-1.54,3.25-3.17,6.44-4.91,9.58c-1.59,2.87-2.58,6.01-3.9,9c-2.89,6.55-3.86,13.45-3.84,20.53c0.01,5.2-0.01,10.4,0.21,15.58
		c0.1,2.31,0.32,4.62,0.25,6.93c-0.16,5.5-0.68,10.97-1.54,16.42c-1.18,7.54-3.66,14.69-6.09,21.87
		c-3.09,9.16-6.81,18.07-10.38,27.04c-1.01,2.52-2.27,4.91-3.8,7.17c-1.35,1.99-2.09,4.31-3.06,6.49
		c-2.97,6.64-6.15,13.16-10.16,19.25c-2.25,3.42-3.9,7.15-5.75,10.78c-0.43,0.84-0.47,1.65-0.24,2.54c0.8,3.13,2.28,5.96,3.83,8.75
		c3.45,6.21,7.27,12.21,10.53,18.53c0.55,1.06,1.05,2.13,1.79,3.1c0.93,1.23,1.14,2.82,1.31,4.31c0.31,2.69,0.71,5.38,0.54,8.11
		c-0.18,2.88-0.53,5.74-1.6,8.42c-0.89,2.21-1.98,4.37-3.42,6.3c-0.67,0.89-0.68,1.65-0.37,2.65c0.56,1.83,0.99,3.69,1.3,5.59
		c0.41,2.52,1.3,4.93,2.08,7.37c0.8,2.51,1.53,5.04,1.65,7.7c0.06,1.36,0.1,2.71-0.35,4.03c-0.13,0.37-0.31,0.8-0.24,1.16
		c0.35,1.9-0.66,3.3-1.84,4.46c-2.56,2.51-5.22,4.93-8.44,6.64C361.91,919.67,359.39,920.19,356.67,918.75z"/>
</g>
<g>
	<path class="st0" d="M391.76,365.04c-0.93,0.12-1.63,0.2-2.44,0.3c0.11,1.13,0.62,1.7,1.61,2.11c1.19,0.49,2.42,0.82,3.63,1.22
		c1.36,0.44,1.53,0.67,1.45,2.05c-0.04,0.63-0.17,1.26-0.32,1.88c-0.44,1.81-0.16,3.48,0.93,5.01c0.46,0.65,0.8,1.41,1.35,1.98
		c1.15,1.21,1.45,2.6,1.15,4.19c-0.5,0.47-1.05,0.19-1.56,0.06c-4.26-1.07-8.61-1.62-12.95-2.2c-5.22-0.71-10.5-0.78-15.71-1.51
		c-4.27-0.6-8.56-0.94-12.84-1.23c-4.2-0.29-8.46-0.37-12.68,0.13c-1.5,0.18-3.03,0.21-4.54,0.24c-4.14,0.08-8.29,0.15-12.43-0.11
		c-2.63-0.16-5.27-0.07-7.89,0.33c-0.78,0.12-1.59,0.09-2.56,0.13c-0.36-0.71-0.8-1.15-1.91-1.08c-3.45,0.2-6.8,0.85-10.15,1.61
		c-2.02,0.46-4.05,0.9-6.07,1.35c-7.98,1.75-15.71,4.22-23.03,7.89c-2.71,1.36-5.48,2.61-7.98,4.36c-0.58,0.41-1.32,0.59-1.92,0.96
		c-0.79,0.49-1.51,0.3-2.22,0.04c-0.61-1.09,0.69-1.59,0.6-2.65c-0.16-0.57-0.77-0.94-1.34-1.38c-1.07-0.83-2.1-1.71-3.08-2.64
		c-0.7-0.67-0.73-1.4-0.04-2.11c0.77-0.8,1.69-1.46,2.52-2.2c0.72-0.65,0.87-1.57,0.08-2.04c-1.63-0.97-2.21-2.67-3.22-4.06
		c-0.76-1.05-1.66-1.94-2.59-2.82c-0.71-0.68-0.98-1.38-0.7-2.35c0.22-0.76,0.33-1.56,0.42-2.34c0.05-0.38,0.07-0.87-0.12-1.16
		c-1.36-2.03-1.76-4.43-2.64-6.63c-1.78-4.46-4.34-8.55-6.12-12.99c-2.81-7.02-6.95-13.29-10.79-19.73
		c-1.8-3.02-3.53-6.07-4.92-9.31c-1.33-3.12-1.82-6.43-2.35-9.74c-0.79-4.97-0.04-9.87,0.73-14.75c0.5-3.17,1.89-6.09,3.06-9.06
		c2.18-5.54,5.27-10.57,8.67-15.42c4.36-6.21,8.49-12.56,11.99-19.3c3.53-6.81,6.92-13.68,10.28-20.57
		c3.22-6.61,6.64-13.11,10.41-19.42c2.49-4.18,4.47-8.65,7.2-12.69c0.3-0.45,0.46-1.02,1.19-1.27c0.55,0.8,0.25,1.61,0.04,2.42
		c-0.82,3.08-1.67,6.16-2.43,9.25c-1,4.04-1.59,8.14-1.71,12.3c-0.04,1.2-0.35,2.35-0.36,3.56c-0.07,5.63,0.95,11.11,2.09,16.58
		c0.52,2.5,1.08,4.99,1.76,7.45c1.17,4.28,3.45,8.05,5.67,11.84c1.5,2.55,3.02,5.08,4.86,7.41c1.1,1.39,2.33,2.63,3.75,3.67
		c0.58,0.43,1.16,0.85,1.72,1.3c3.99,3.21,8.59,4.78,13.66,5.09c1.67,0.1,3.33,0.31,5,0.43c2.65,0.19,5.27-0.06,7.84-0.68
		c1.79-0.43,3.44-1.2,5.01-2.21c3.08-1.99,6.29-3.8,9.38-5.77c7.06-4.5,13.34-9.86,18.23-16.73c0.97-1.36,1.84-2.81,2.74-4.22
		c0.73-1.14,1.36-2.35,2.29-3.36c0.37-0.4,0.64-0.92,0.89-1.42c2.46-4.92,5.37-9.62,7.13-14.88c0.38-1.13,0.74-2.28,1-3.44
		c0.22-1.03,0.73-1.75,1.69-2.16c1.22-0.52,2.44-1.05,3.7-1.23c0.49,0.62,0.11,1.08-0.04,1.46c-1.35,3.45-1.84,7.09-2.31,10.73
		c-0.89,6.74-1.27,13.52-0.92,20.3c0.24,4.68,0.53,9.37,1.12,14.05c0.79,6.26,1.85,12.46,3.04,18.65c0.87,4.47,2.04,8.85,3.26,13.24
		c0.43,1.53,0.7,3.11,1.09,4.65c1.43,5.63,3.68,10.86,7.11,15.59c1.69,2.33,3.35,4.66,5.2,6.87c1.22,1.46,2.3,3.05,3.39,4.62
		c0.77,1.11,0.68,1.74-0.24,2.77c-0.36,0.4-0.97,0.58-1.09,1.22c-0.12,0.68,0.43,0.97,0.76,1.4c0.47,0.6,0.26,1.23-0.05,1.8
		c-1.75,3.23-2.36,6.75-2.68,10.34c-0.31,3.41-0.54,6.83-0.82,10.24C392.52,362.47,392.21,363.7,391.76,365.04z M312.5,331.49
		c-0.05,0.19-0.17,0.13-0.09,0.03c0.19-0.24-0.15-0.05,0.16,0.03c0.11,0.22,0.22,0.44,0.34,0.67c0.2,0.11,0.41,0.23,0.61,0.34
		c-0.01,0.23-0.11,0.53,0,0.67c1.17,1.52,2.54,2.83,4.23,3.77c0.11,0.06,0.3-0.04,0.46-0.07c-0.1,0.58,0.04,0.93,0.84,0.72
		c-0.3-0.31-0.37-0.74-0.89-0.67c-1.21-1.84-3.04-3.01-4.71-4.35c-0.2-0.11-0.39-0.22-0.59-0.33
		C312.74,332.02,312.62,331.76,312.5,331.49z M311.48,337.26c-0.05,0.2-0.08,0.2-0.11,0c0.06,0.02,0.11,0.04,0.17,0.06
		c0.37,0.01,0.52,0.22,0.51,0.57c-0.09,0.35,0.11,0.44,0.4,0.47c0.01,0.07,0.01,0.14,0.05,0.2c0.02,0.03,0.09,0.03,0.14,0.04
		c-0.08-0.06-0.16-0.12-0.25-0.18c0.02-0.28-0.15-0.41-0.38-0.5C311.77,337.75,311.5,337.61,311.48,337.26z M372.57,373.19
		c0.38,0.1,0.75,0.25,1.14,0.29c2.37,0.27,4.75,0.61,7.13,0.73c3.35,0.17,6.7,0.19,10.05,0.24c0.71,0.01,1.46-0.02,1.86-0.8
		c-0.1-0.31-0.24-0.6-0.6-0.67c-0.78-0.15-1.57-0.4-2.35-0.4c-4.46-0.03-8.9-0.66-13.37-0.46
		C375.11,372.18,373.81,372.32,372.57,373.19z M313.56,339.41l0.1,0.01l-0.04-0.15L313.56,339.41z M380.42,366.37
		c-0.06-0.03-0.12-0.08-0.17-0.07c-0.22,0.04-0.24,0.14-0.05,0.25c0.04,0.03,0.14,0.01,0.19-0.03
		C380.42,366.5,380.41,366.42,380.42,366.37z M382.93,366.49c0.06,0.02,0.12,0.05,0.18,0.05c0.02,0,0.04-0.08,0.05-0.13
		c-0.06-0.01-0.12-0.04-0.17-0.04C382.96,366.38,382.95,366.45,382.93,366.49z"/>
	<path class="st0" d="M439.91,448.05c2.66,0.09,4.86-0.92,6.71-2.79l-0.05-0.02c0.03,0.15,0.13,0.34,0.09,0.46
		c-0.35,0.89-2.37,2.87-3.24,3.15c-2.66,0.84-5.2,1.98-7.73,3.14c-0.43,0.2-0.9,0.34-1.3,1.02c1.95-0.24,3.47-1.19,5.1-1.8
		c1.7-0.64,3.38-1.34,4.95-1.97c0.7,0.28,0.84,0.7,0.74,1.22c-0.03,0.15-0.13,0.29-0.17,0.45c-1.03,4.02-1.03,4.02,0.93,7.62
		c-0.66,1.32-1.7,0.12-2.53,0.4c-0.11-0.23-0.23-0.46-0.34-0.69c-0.2-0.14-0.4-0.27-0.61-0.41c0.19-0.89,1.49-0.03,1.62-1.02
		c-2.33-1.29-3.22-1.52-5.87-1.13c-3.66,0.53-7.3,0.11-10.95-0.11c-0.45-0.03-0.69-0.33-0.96-0.62c-0.65-0.68-1.41-0.97-2.37-0.68
		c-0.67,0.2-1.35,0.03-1.52-0.69c-0.41-1.79-1.92-2.44-3.2-3.37c-0.78-0.57-1.63-0.63-2.51-0.36c-2,0.61-3.49,1.78-4.29,3.7
		c0.37,0.49,0.78,0.43,1.17,0.44l-0.05-0.06c0.11,0.9-0.57,1.75-0.2,2.67c-0.17-0.08-0.34-0.17-0.43,0.1
		c-0.01,0.02,0.06,0.07,0.09,0.11c0.09-0.09,0.18-0.18,0.27-0.27c0.41-0.39,0.58-1.01,0.92-1.34c0.68-0.66,0.83-1.69,1.77-2.16
		c1.79-0.9,3.35-0.33,4.62,0.84c3.6,3.33,7.83,4.56,12.66,4.54c3.11-0.02,6.16-0.59,9.26-0.62c0.26,0.05,0.5,0.13,0.6,0.41
		c-0.03,0.31-0.02,0.59,0.35,0.69c0.44,0.87,1.23,1.15,2.12,1.13c0.45-0.01,0.77,0.15,1.04,0.45c0.42,0.49,1.42,3.01,1.59,4.07
		c-2.02,0.02-2.99,2.09-4.88,2.49c-0.22,0.05-0.33,0.32-0.26,0.59c-4,0.04-7.9,0.87-11.75,1.77c-2.46,0.58-4.9,0.56-7.36,0.6
		c-0.7,0.01-1.22-0.25-1.68-0.74c-1.74-1.87-3.64-3.61-5.19-5.62c-0.92-1.19-1.81-2.26-3.18-2.91c-0.1-0.05-0.11-0.27-0.17-0.44
		c0.39-0.93,1.42-0.91,2.14-1.35c0.68-0.41,1.46-0.64,2.16-1.03c0.65-0.36,1.59-0.36,2.01-1.53c-2.51,0.88-4.7,1.78-6.79,2.94
		c-0.31-0.33-0.33-0.9-0.91-1.06c-0.14,0.8-0.02,1.3,0.96,1c-3.5,2.08-7.24,3.8-10.62,6.65c1.55,0.13,2.51-0.36,3.28-1.22
		c1.47-1.66,3.36-2.6,5.38-3.41c0.79,0.75,1.41,1.75,2.27,2.02c0.73,0.23,1.32,0.46,1.71,1.05c0.84,1.29,2.03,2.22,3.16,3.21
		c0.15-0.22,0.34-0.1,0.52-0.06c0.41,0.35,0.62,0.86,1.19,1.11c0.8,0.36,1.47,0.98,1.74,1.86c0.46,1.51,1.64,1.84,2.98,1.88
		c2.95,0.09,5.92-0.04,8.77-0.74c2.78-0.69,5.58-1.2,8.4-1.65c0.89-0.14,1.85-0.2,2.58-0.82c-0.27-0.99-1.73-0.44-1.66-1.59
		c1.27-0.12,2.39-0.39,3.4-1.38c0.62-0.6,1.81-0.63,2.9-0.97c0.81,1.11,1.31,2.44,1.93,3.7c1.87,3.87,3.57,7.81,4.42,12.05
		c0.08,0.39,0.15,0.78,0.26,1.16c0.8,2.76,0.31,4.96-2.09,6.92c-2.28,1.86-3.7,4.54-5.07,7.15c-0.3,0.56-0.92,1.19-0.17,1.89
		l-0.05-0.04c0.42,1.15-0.52,1.42-1.22,2.08c-0.13-1.08-0.05-1.92,0.04-2.77c0.14-1.33-0.38-2.12-1.55-2.67
		c-1.05-0.5-2.1-0.44-2.88,0.41c-1.11,1.19-2.18,2.48-2.06,4.27c0.02,0.35-0.02,0.58-0.22,0.85c-0.47,0.65-0.99,1.23-1.79,1.55
		c-0.45-2.78-1.71-3.65-4.41-3.12c-2.46,0.48-4.05,2.09-5.25,4.16c-0.2,0.35-0.18,0.77-0.01,1.16l-0.06-0.05
		c-0.82,0.09-1.63-0.12-2.28-0.54c-0.9-0.58-1.72-0.44-2.45,0.1c-2.11,1.57-4.27,3.13-4.98,5.88c-0.13,0.49-0.29,0.88-0.77,1.12
		c-0.4,0.21-0.94,0.28-1.03-0.11c-0.31-1.26-1.04-0.94-1.83-0.63c-1.68,0.65-2.03,1.05-2.8,3.2c-1.4,0.58-3,0.33-4.34,1.13
		c-0.13,0.08-0.35,0.18-0.45,0.13c-1.7-0.82-3.16,0.33-4.71,0.59c-1.64,0.28-3.24,0.85-4.85,1.28c-3.79,1.02-7.38,2.58-10.91,4.25
		c-4.47,2.12-8.95,4.24-13.35,6.49c-4.61,2.37-9.18,4.83-13.51,7.7c-0.53,0.35-1.1,0.63-1.75,1c-1.4-1.63-1.69-3.55-1.58-5.57
		c0.07-1.28-0.06-2.51-0.34-3.78c-0.28-1.23-1.01-2.14-1.56-3.19c-0.19-0.36-0.53-0.66-0.94-0.67c-1.58-0.05-2.58-1.09-3.65-2.04
		c-0.42-0.37-0.85-0.73-1.33-1.01c-6.23-3.57-12.44-7.18-19.23-9.64c-0.45-0.16-0.86-0.46-1.4-0.1c1.38,1.14,2.99,1.85,4.55,2.62
		c4.29,2.13,8.29,4.77,12.51,7c2.18,1.16,4.31,2.4,6.51,3.52c0.7,0.36,1.15,0.8,1.41,1.51c0.86,2.32,1.76,4.59,1.52,7.18
		c-0.14,1.58,0.37,3.16,0.75,4.71c0.19,0.77,0.39,1.55,0.52,2.33c0.08,0.49,0,0.96-0.69,1.18c-0.73-0.71-1.75-1.15-2.17-2.28
		c-0.28-0.77-1.03-1.2-1.63-1.73c-7.18-6.25-14.9-11.79-22.88-16.96c-1.86-1.21-3.98-2.07-5.84-3.25
		c-3.27-2.06-6.76-3.62-10.23-5.21c-7.25-3.3-14.54-6.54-22.25-8.67c-2.15-0.59-4.28-1.3-6.52-1.45c-0.04-0.17-0.03-0.34-0.11-0.43
		c-1.76-2.24-1.93-5.28-3.92-7.47c-1.41-1.56-2.78-2.3-4.81-1.57c-0.59,0.21-1.22,0.32-1.84,0.48c-0.63-0.17-0.72-0.79-1.02-1.24
		c-0.68-1-1.5-1.86-2.59-2.44c-1.85-0.98-3.06-0.62-4.13,1.22c-0.12,0.2-0.18,0.46-0.64,0.46c-0.62-0.17-0.96-0.89-1.32-1.43
		c-0.78-1.15-1.77-2.01-2.87-2.82c-2.2-1.62-3.89-1.27-5.24,1.18c-0.15,0.28-0.28,0.57-0.48,0.97c-1.11-0.93-2.17-1.81-3.23-2.7
		c-1.36-1.13-2.9-1.97-4.53-2.64c-0.62-0.25-1.26-0.3-1.88-0.16c-0.98,0.23-1.55,0.8-1.31,1.9c0.02,0.16-0.1,0.17-0.09,0.03
		c0.01-0.32-0.18,0.07,0.11-0.06c0.33,0.06,0.59,0.22,0.78,0.55c-0.2,0.52-0.24,1.17-0.93,1.42c-0.4,0.15-0.35,0.44-0.2,0.75
		l0.02-0.06c-1.05-1.19-1.5-2.37-0.64-3.97c1.18-2.19,1.4-4.71,1.93-7.11c0.36-1.63,0.67-3.26,1.02-4.89
		c0.07-0.31,0.27-0.6,0.28-0.9c0.11-3.55,1.31-6.85,2.2-10.23c0.89-3.41,1.96-6.74,3.61-9.85c1.27-2.39,2.64-4.74,4.04-7.05
		c0.46-0.76,0.9-1.49,0.86-2.42c0.65-0.15,1.18-0.27,1.68-0.38c0.57-0.77,0.37-1.55,0.18-2.33c-0.24-1-0.52-2-0.73-3.01
		c-0.19-0.91,0.03-1.55,0.86-1.69c1.01-0.16,1.84-0.92,2.97-0.68c0.89,0.19,1.64-0.25,1.74-1.19c0.07-0.69,0.51-1.09,0.95-1.27
		c1.34-0.55,1.46-1.55,1.24-2.74c-0.22-1.22,0.19-2,1.41-2.24c0.53,0.17,0.87,0.53,1.14,0.92c1.81,2.71,4.36,4.64,6.85,6.63
		c2.81,2.26,5.97,3.99,9.09,5.75c2.05,1.16,4.34,1.95,6.62,2.71c5.38,1.8,10.86,3.17,16.43,4.2c4.93,0.91,9.83,2,14.75,2.97
		c1.71,0.34,3.49,0.5,5.23,0.47c4.08-0.05,8.12,0.56,12.19,0.56c4.47,0.01,8.91-0.43,13.36-0.73c3.83-0.26,7.59-0.93,11.39-1.3
		c1.71-0.17,2.54,0.25,2.97,1.94c0.4,1.54,0.65,3.12,0.91,4.69c0.29,1.73,0.51,3.46,0.77,5.24c0.48,0,0.95,0,1.4,0
		c0.42,0.72,0.08,1.69,1,2.22c0.7,0.23,1.48-0.03,2.26-0.14c0.39-0.05,0.89-0.34,1.14-0.19c1.34,0.8,2.42-0.03,3.61-0.41
		c3.19-1.02,6.44-1.78,9.74-2.33c-0.01,0.14-0.03,0.28-0.05,0.42c-0.03,0.21,0.04,0.29,0.2,0.19c0.03-0.02,0.04-0.14,0.01-0.19
		c-0.06-0.12-0.14-0.24-0.22-0.35c-0.08-0.11-0.1-0.23-0.06-0.36c0,0-0.07,0.04-0.07,0.04c0.71-0.06,1.44-0.05,2.13-0.21
		c3.08-0.72,6.13-1.62,9.36-1.25c0.31,0.04,0.63-0.05,0.95-0.1c3.06-0.46,6.07-1.16,9-2.16c0.35-0.12,0.97,0.08,1.04-0.82
		c-1.81,0.25-3.52,0.49-5.23,0.73c-1.68,0.23-3.25,1.11-5.33,0.92c0.86-0.83,1.67-1.11,2.46-1.39c0.74-0.26,1.52-0.4,2.04-1.07
		l-0.11,0.06c0.55-0.06,1.14-0.03,1.53-0.53l-0.08,0.04c0.5-0.21,1.2,0.15,1.53-0.53l-0.11,0.06c0.56-0.05,1.14-0.04,1.55-0.54
		l-0.1,0.06c0.53-0.11,1.14-0.01,1.52-0.53l-0.08,0.04c1.96,0.16,3.68-0.65,5.44-1.32c1.23-0.48,2.46-1.16,3.74-1.29
		c1.3-0.13,1.99-0.66,2.43-1.76l-0.1,0.07c0.48,0.06,0.94,0.09,1.06-0.55l-0.1,0.07c0.49,0.07,0.94,0.08,1.06-0.55l-0.1,0.07
		c0.49,0.08,0.93,0.06,1.06-0.55l-0.1,0.07c0.44-0.01,0.9,0,1.06-0.55l-0.1,0.07c0.44-0.01,0.9,0,1.06-0.55l-0.1,0.07
		c1.31-0.39,2.58-0.85,3.46-1.99l-0.1,0.08c0.45-0.01,0.89-0.02,1.06-0.55l-0.1,0.07c0.68-0.1,1.18-0.45,1.53-1.04l-0.09,0.07
		c0.68-0.08,1.27-0.3,1.52-1.02l-0.09,0.06c0.39-0.11,0.78-0.2,1.06-0.54l-0.07,0.06c0.25-0.12,0.49-0.25,0.55-0.56l-0.09,0.08
		c0.43-0.04,0.8-0.2,1.07-0.55l-0.08,0.06c0.71,0.04,0.97-0.6,1.43-0.94c0,0-0.06-0.06-0.06-0.06c0.01,0.16-0.02,0.33,0.03,0.47
		c0.94,2.82,0.94,2.82,3.7,3.63c0.18,0.72-0.23,1.36-0.36,2.03c-0.23,1.23-0.27,1.23,1.03,1.68c0.15,0.05,0.26,0.08,0.37,0.16
		c0.7,0.48,0.7,0.47,0.9-0.45c0.78-0.41,1.65-0.46,2.51-0.52c0.54-0.04,0.9,0.15,0.95,0.74l0.06-0.06c-1.98,0.62-3.68,1.75-5.3,2.99
		c-0.64,0.48-1.26,0.92-2.04,1.12c0-0.34-0.01-0.68-0.01-1.02c0.19-0.06,0.26,0.07,0.1,0.13c-0.29,0.11,0.11,0.12-0.12-0.11
		C440.1,447.4,439.99,447.73,439.91,448.05z M312.38,465.54c0.08-0.24,0.16-0.47,0.24-0.71c-0.63-0.06-1.07-0.93-1.84-0.45
		c0.07-0.32,0.08-0.61-0.31-0.73c-0.79-1.24-2.04-1.37-3.34-1.39c-0.2-0.57-0.64-0.42-1.05-0.34c-0.1-0.16,0.01-0.24,0.04-0.14
		c0.1,0.3,0.16-0.11-0.1,0.08c0.39,0.11,0.78,0.23,1.17,0.34c1.01,0.7,1.89,1.72,3.33,1.4c0.09,0.25,0.18,0.5,0.28,0.75
		c0.47,0.65,1,1.06,1.8,0.46c-0.05,0.26-0.11,0.53-0.16,0.79c-0.07,0.02-0.15,0.02-0.21,0.06c-0.03,0.02-0.02,0.1-0.03,0.15
		C312.34,465.84,312.4,465.75,312.38,465.54z M292.25,461.24c0.02,0.07,0.03,0.16,0.07,0.22c0.02,0.03,0.1,0.02,0.16,0.03
		c0.02-0.15-0.07-0.21-0.28-0.19c0.08-0.33-0.12-0.47-0.39-0.55c-0.13-0.75-0.93-0.79-1.34-1.26c-2.17-2.53-4.78-4.61-7.26-6.8
		c-4.58-4.04-9.33-7.88-13.77-12.08c-0.64-0.6-1.36-1.12-2.44-2c0.63,1.56,1.15,2.51,1.93,3.31c0.45,0.46,0.84,0.96,0.81,1.66
		c-1.83-1.4-3.38-3.12-4.77-4.91c-1.48-1.9-3.74-2.78-5.18-4.8c-0.56,1.34,0.14,2.04,0.8,2.73c0.49,0.51,1.14,0.86,1.45,1.56
		c1.8,4.06,4.94,6.92,8.49,9.4c0.28,0.19,0.61,0.74,1.21,0.28c-0.73-0.81-1.41-1.57-2.1-2.33l0.05,0.05c1.12-0.04,1.8,0.74,2.5,1.42
		c0.55,0.53,1,1.17,1.84,1.28c0.05,0.05,0.1,0.11,0.15,0.16c-0.07-0.03-0.14-0.07-0.22-0.1c-0.15-0.33-0.3-0.65-0.45-0.98
		c0.23,0.05,0.52,0.02,0.68,0.15c2.26,1.87,4.51,3.76,6.75,5.66c0.08,0.07,0.05,0.28,0.1,0.57c-1.16,0.18-1.86,1.02-2.48,1.95
		c-0.57,0.86-1.36,1.29-2.41,1.26c-2.07-0.06-4.12,0.26-6.16,0.52c-3.3,0.42-6.61,0.79-9.86,1.53c-1.18,0.27-2.28,0.7-3.23,1.47
		c-0.32,0.26-0.56,0.56-0.44,1.02c0.48,0.42,1,0.39,1.55,0.15l-0.05,0.03c0.38,0.5,0.72,1.03,0.75,1.7
		c-0.58,0.75-1.39,0.94-2.22,1.06c-0.69-1.2-1.99-1.34-2.97-1.96c-0.23-0.14-0.67-0.15-0.92-0.02c-1.09,0.56-2.14,0.27-3.39-0.26
		c0.1,1.34-0.68,2.26-0.98,3.26c0.91,0.55,1.49-0.43,2.23-0.1c0.31,0.81-1,1.04-0.66,1.85c0.43,0.39,0.88,0.18,1.33,0.03
		c0.29-0.1,0.61-0.2,0.82,0.18c0.74,1.28,1.73,0.75,2.65,0.31c1.51-0.71,2.99-1.47,4.48-2.22c0.42-0.21,0.83-0.51,1.32-0.14
		c0.12,1.74,0.14,1.67,1.49,2.2c1.78,0.69,3.61,0.44,5.44,0.45c0.23,0.66,0.63,0.76,1.2,0.36c-0.38-0.41-0.83-0.32-1.26-0.29
		c-0.36-0.62-0.98-0.37-1.5-0.45c-1.63-0.23-3.26-0.47-4.5-1.38c-0.28-0.85,0.64-1.26,0.36-1.87c-0.73-0.31-1.4,0.12-2.03-0.28
		c-0.13-0.42,0.44-0.72,0.37-1.01c-0.3-1.17,0.41-1.55,1.28-1.84c0.53-0.18,1.05-0.4,1.6-0.47c2.35-0.32,4.7-0.67,7.07-0.88
		c2.93-0.26,5.87-0.38,8.86-0.57c0.73-1.03,1.44-2.07,2.03-3.21c0.75-1.46,1.27-1.59,2.58-0.69c1.38,0.95,2.67,2.03,4.07,2.93
		c1.1,0.71,1.86,1.65,2.46,2.65c-0.08,0.64-0.39,1.04-0.75,1.33c-2.51,2.09-5.02,4.17-7.57,6.21c-1.11,0.88-2.37,1.14-3.82,0.88
		c-2.19-0.38-4.42-0.6-6.63-0.85c-1.31-0.14-2.58,0.08-3.75,0.58c0.03,0.66,0.32,0.95,0.71,1.06c0.84,0.24,1.7,0.61,2.55,0.59
		c2.42-0.07,4.72,0.52,7.05,1c2.2,0.45,4.03-0.06,5.6-1.78c1.98-2.17,3.98-4.35,6.4-6.07c0.44-0.32,0.88-0.7,1.13-1.47
		c-0.28-0.51-0.86-1.2-0.3-2c0.46,0.03,0.83,0.53,1.35,0.24C291.73,461.07,291.88,461.23,292.25,461.24z M273.14,436.61
		c-0.05,0.19-0.17,0.13-0.09,0.03c0.19-0.24-0.15-0.05,0.16,0.03C272.92,436.94,273.12,436.68,273.14,436.61z M289,449.57
		c-0.02,0.35,0.08,0.6,0.49,0.58c0.13,0.89-0.5,1.83,0.16,2.69c0.38,0.19,0.76,0.39,1.41,0.72c-0.43-0.84-0.76-1.16-1.44-0.67
		c0.81-0.96,0-1.79-0.2-2.67c-0.16-0.19-0.32-0.38-0.47-0.57c-0.15,0.01-0.19-0.1-0.05-0.14C289.19,449.4,288.74,449.38,289,449.57z
		 M278.67,441.79c0.04-0.31-0.03-0.58-0.34-0.74l-0.05-0.09l0.11,0.02c0.1,0.25,0.21,0.5,0.31,0.75c0.15-0.05,0.21,0.05,0.08,0.11
		C278.5,442,278.94,441.96,278.67,441.79z M284.92,447.06c0.06-0.19,0.18-0.13,0.1-0.03c-0.2,0.24,0.15,0.04-0.16-0.03
		c0.05-0.28,0.02-0.53-0.29-0.64c-0.01-0.31-0.2-0.43-0.48-0.47c-0.15-0.19-0.29-0.39-0.44-0.58c-0.12,0.03-0.23-0.29-0.35-0.01
		c0.13-0.02,0.26-0.04,0.39-0.06c0.16,0.19,0.32,0.39,0.47,0.58c-0.06,0.37,0.05,0.57,0.46,0.49
		C284.72,446.56,284.82,446.81,284.92,447.06z M276.85,440.33c0.02-0.2,0.05-0.21,0.11-0.02c-0.06-0.01-0.12-0.03-0.18-0.04
		C277.09,439.94,276.81,440.33,276.85,440.33z M280.34,442.37c-0.05,0.19-0.09,0.2-0.11,0.02c0.06,0.01,0.12,0.03,0.18,0.04
		c0.07,0.26,0.15,0.52,0.22,0.77c0.05-0.19,0.09-0.2,0.11-0.02c-0.06-0.02-0.12-0.03-0.18-0.05
		C280.49,442.89,280.42,442.63,280.34,442.37z M434.23,443.84c0.47,0.25,0.83,0.14,1.08-0.33c0.79,0.11,1.18-0.33,1.39-1.02
		c0.7,0.05,1.19-0.24,1.43-0.92c0.19-0.06,0.37-0.13,0.59-0.21c-0.22-0.1-0.4-0.17-0.58-0.25c0-0.62,0.92-0.61,0.85-1.26
		c-2.54,0.72-5.9,2.61-6.82,3.87c0.72,0.23,1.19-0.28,1.71-0.54c1.12-0.56,2.12-1.35,3.37-1.64c0.13,0.48-0.4,0.64-0.48,1.02
		c-0.68,0.03-1.28,0.18-1.41,1c-0.41-0.04-0.79-0.01-1.07,0.35c-0.14,0.21-0.28,0.42-0.42,0.63c-0.44-0.17-0.77,0.09-1.12,0.28
		c-0.53,0.25-1.05,0.5-1.25,1.11c-0.07,0.02-0.15,0.02-0.21,0.05c-0.03,0.02-0.03,0.09-0.05,0.14c0.07-0.09,0.14-0.17,0.2-0.26
		c0.59-0.17,1.5,0.02,1.27-1.1c0.44,0.16,0.87,0.31,1.11-0.29C434.07,444.35,434.26,444.17,434.23,443.84z M274.43,438.36
		c-0.13-0.14-0.04-0.24,0.03-0.15c0.17,0.26,0.14-0.13-0.09,0.09c0.37,0.09,0.75,0.19,1.12,0.28c0.13,0.14,0.12,0.19-0.04,0.16
		c0.03-0.03,0.07-0.07,0.1-0.1C275.18,438.55,274.81,438.45,274.43,438.36z M267.18,433.19c-0.12-0.27-0.25-0.54-0.37-0.81
		c-0.32-0.31-0.7-0.29-1.1-0.23c0-0.12,0-0.25,0-0.37c-0.02,0.04-0.06,0.09-0.05,0.12c0.02,0.07,0.07,0.13,0.11,0.19
		c0.33,0.24,0.69,0.31,1.08,0.22c0.11,0.28,0.22,0.56,0.33,0.84c0.3,0.14,0.61,0.29,0.91,0.43c0.03,0,0.06-0.01,0.1-0.01
		c-0.05-0.01-0.1-0.02-0.16-0.03C268,432.78,267.52,433.15,267.18,433.19z M320.4,481.58l0.14-0.08l-0.2,0.06
		c0.04-0.97-0.59-0.32-0.92-0.37c0.02-0.13,0.04-0.25,0.04-0.21c0.01-0.06-0.01,0.06-0.02,0.17
		C319.76,481.29,320.08,481.43,320.4,481.58z M315.46,466.33c-0.02,0.13-0.03,0.26-0.03,0.22c0,0.06,0-0.06,0-0.17
		c-0.07,0-0.15-0.01-0.22-0.01c0.01-0.03,0.03-0.08,0.04-0.08C315.32,466.29,315.39,466.31,315.46,466.33z M315.21,477.71
		c-0.08-0.1,0.19-0.43-0.21-0.32c0.09,0.08,0.18,0.17,0.27,0.25c0.45,0.35,0.69,0.99,1.46,1.09
		C316.59,477.71,315.9,477.71,315.21,477.71z M316.6,467.67c0-0.12-0.01-0.25-0.01-0.37c-0.02,0.04-0.06,0.09-0.05,0.12
		c0.03,0.07,0.08,0.13,0.12,0.19c3.06,1.36,3.06,1.36,4.6,1.09c-0.84-0.29-1.74-0.56-2.6-0.91
		C317.97,467.5,317.3,467.41,316.6,467.67z M432.53,451.31c2-0.33,3.78-1.16,5.39-2.38c-1.94,0.29-3.72,1.01-5.38,2.02
		c-0.05,0.03,0.03,0.27,0.04,0.42c-1.64-0.06-1.64-0.06-2.6,1.22C430.99,452.08,431.76,451.69,432.53,451.31z M268.82,449.21
		c-0.14,0.03-0.24-0.33-0.41-0.05c0.15,0,0.31,0,0.46,0c-0.28,0.27-0.15,0.79-0.77,1c-1.68-0.63-3.32-1.62-4.81-2.79
		c-1.44-1.13-2.6-2.64-4.62-3.53c0.77,1.34,1.52,2.23,2.53,2.9c0.52,0.35,1.04,0.78,1.41,1.28c1.58,2.12,3.78,3.39,6.13,4.33
		c1.01,0.4,2.23,0.99,3.4,0.19c0.21,0.57,0.45,1.07,1.17,0.43c-0.31-0.55-0.81-0.32-1.24-0.35c-0.46-0.43-1.2-0.8-1.31-1.31
		C270.52,450.14,269.72,449.67,268.82,449.21z M374.93,498.87c-1.22-0.15-1.86,0.76-2.56,1.47c-3.74,3.79-7.51,7.56-11.15,11.44
		c-1.79,1.91-3.63,3.81-4.93,6.13c-0.58,1.04-1.03,2.11-0.71,3.48c1.33-0.21,1.94-1.16,2.55-2.05c1.93-2.84,4.23-5.38,6.39-8.02
		c3.02-3.69,6.16-7.29,9.23-10.94c0.41-0.49,0.74-1.04,1.11-1.56c0.03-0.06,0.08-0.12,0.1-0.18c0.01-0.03-0.03-0.07-0.04-0.1
		C374.93,498.64,374.93,498.75,374.93,498.87z M313.15,476.37c0.14,0.02,0.29,0.04,0.43,0.06c0.08,0.01,0.21,0.05,0.22,0.03
		c0.08-0.19-0.01-0.28-0.23-0.23c-0.15,0.03-0.29,0.09-0.43,0.13c0.25-0.73-0.16-1.15-0.62-1.65c-3.2-3.45-6.82-6.45-10.25-9.66
		c-3.26-3.05-6.65-5.95-9.99-8.91c-3.87-3.44-7.73-6.89-11.62-10.3c-0.61-0.53-1.36-0.89-2.46-1.6c0.49,1.31,1.34,1.56,1.77,2.19
		c1.54,2.22,3.5,4.09,5.45,5.88c4.75,4.36,9.58,8.65,14.64,12.66c1.68,1.33,3.52,2.51,4.99,4.05
		C307.58,471.67,310.51,473.85,313.15,476.37z M353.59,493.07c0.77,0.39,0.46,1.12,0.48,1.7c0.09,2.79,0.12,5.58,0.2,8.37
		c0.02,0.51-0.05,1.15,0.7,1.29c0.7-0.23,0.62-0.87,0.78-1.38c0.19-0.62,1.11-0.21,1.24-0.88c0.61-3.16,0.49-6.35,0.44-9.54
		c-0.03-1.58-0.05-3.23-0.5-4.72c-1.14-3.74-1.49-7.63-2.43-11.42c-0.97-3.89-0.27-4.16,2.52-5.45c0.75-0.35,1.61-0.64,1.97-1.63
		c-0.83-0.74-1.73-1.14-2.67-0.68c-2.33,1.15-4.86,0.73-7.28,1.06c-2.76,0.37-5.56,0.24-8.34,0.44c-3.97,0.29-7.96-0.15-11.91-0.62
		c-1.43-0.17-2.85-0.32-4.29-0.24c-0.38,0.02-0.81,0-0.94,0.39c-0.04,0.68,0.42,0.71,0.79,0.78c2.27,0.45,4.55,0.81,6.87,0.78
		c2.87-0.04,5.74-0.03,8.61,0.07c3.17,0.1,6.35,0.43,9.54,0.06c0.87-0.1,1.8-0.16,2.85,0.16c-0.39,0.42-0.65,0.62-0.81,0.89
		c-0.75,1.25-1.94,2.48-0.26,3.91c0.25,0.21,0.16,0.59,0.06,0.9c-0.1,0.3-0.35,0.64-0.13,0.9c1,1.21,0.7,2.5,0.35,3.82
		c-0.08,0.3-0.09,0.65-0.01,0.95c0.49,1.8,0.21,3.66,0.48,5.47c0.31,2.09,0.14,4.27,1.08,6.28c0.72-0.43,0.32-1.24,0.71-1.73
		L353.59,493.07z M353.71,463.59c1.06,0.19,2.23-0.21,3.29-0.73c1.84-0.89,3.39-2.17,3.82-4.32c0.56-2.84-1.25-6.04-3.92-6.91
		c-3.3-1.07-6.7-0.04-8.04,2.79c-0.72,1.53-0.68,3.05-0.45,4.64C348.85,462.12,350.49,463.57,353.71,463.59z M357.14,524.46
		c0.83,0.69,0.85,0.71,1.2,0.56c1.17-0.52,2.34-1.02,3.48-1.59c4.99-2.49,9.96-4.99,15.28-6.74c2.95-0.97,5.86-2.07,8.77-3.15
		c1.69-0.63,3.34-1.33,5.43-2.18c-0.73-0.11-0.97-0.2-1.19-0.17c-0.39,0.06-0.79,0.15-1.14,0.32c-4.34,2.06-8.99,3.19-13.54,4.63
		c-1.14,0.36-2.34,0.33-3.47,0.82c-2.92,1.29-5.91,2.41-8.81,3.74C361.01,521.69,358.9,522.79,357.14,524.46z M369.87,461.24
		c0.5,2.56-0.86,3.48-2.76,3.98c-0.38,0.1-0.76,0.25-1.12,0.39c-1.47,0.6-2.93,1.24-4.42,1.79c-1.02,0.38-1.49,1.02-1.5,2.06
		c0.82,0.43,1.5,0.04,2.14-0.16c1.97-0.61,3.89-1.35,5.85-1.98c3.15-1.01,4.37-2.82,4.15-6.31
		C371.52,460.94,370.95,461.57,369.87,461.24z M312.81,466.22c0.74,2.21,2.2,3.19,3.46,4.32c1.31,1.18,2.65,2.34,4.31,3.81
		C319.37,471.82,315.49,467.78,312.81,466.22z M416.93,461.4c3.48-1.12,6.04-2.51,7.17-3.89
		C420.84,457.4,419.24,460.06,416.93,461.4z M295.53,456.58c0.39,1.06,0.82,0.92,1.6,0.57
		C296.49,456.92,296.14,456.79,295.53,456.58z M386.96,458.6c0.24-0.38,1.07,0.24,1.07-0.61
		C387.54,457.86,387.12,457.91,386.96,458.6z M318.44,479.8c-0.04-0.05-0.06-0.14-0.11-0.15c-0.06-0.02-0.16-0.02-0.21,0.02
		c-0.13,0.1-0.07,0.2,0.14,0.22C318.31,479.9,318.38,479.84,318.44,479.8z M313.72,465.88l-0.15-0.1l-0.02,0.16L313.72,465.88z
		 M325.05,484.96l0.15,0.11l0.03-0.16L325.05,484.96z M392.81,510.37l-0.09,0.14l0.16,0.01L392.81,510.37z M391.85,511.08
		c0.05-0.04,0.1-0.08,0.15-0.13c-0.04-0.05-0.08-0.13-0.13-0.14c-0.05,0-0.1,0.07-0.15,0.12
		C391.76,510.98,391.8,511.03,391.85,511.08z"/>
	<path class="st0" d="M354.32,885.6c-0.35,0.89-0.03,1.55,0.15,2.24c0.63,2.31,1.26,4.62,1.82,6.95c0.27,1.14,0.52,2.29-0.09,3.49
		c-0.4,0.77-0.16,1.72-0.12,2.6c0.19,4.07,0.37,8.13-0.08,12.2c-0.26,2.38-1.01,4.48-3.02,6c-2.55,1.92-5,3.98-7.78,5.59
		c-3.56,2.06-7.39,2.82-11.67,2.56c-0.03-2.74,1.03-5.21,0.97-7.84c-0.07-2.64-0.25-5.26-0.48-7.88c-0.31-3.51-0.85-6.2-1.78-7.79
		c-0.07,2.39-0.16,4.51-0.17,6.62c-0.01,2.72,0.13,5.44,0.05,8.15c-0.05,1.67-0.06,3.46-0.69,4.95c-0.9,2.13-1.98,4.25-4.75,4.85
		c-2.66,0.58-5.24,0.46-7.83-0.06c-4.31-0.87-8.46-2.19-12.38-4.48c1.34-2.03,1.28-4.43,1.97-6.62c0.25-0.81,0.23-1.76,0.09-2.61
		c-0.41-2.53-0.32-5.07-0.37-7.61c-0.03-1.44-0.13-2.86-0.61-4.24c-0.69,0.08-0.79,0.55-0.8,1c0,0.88,0.01,1.76,0.11,2.63
		c0.26,2.31,0.33,4.6-0.05,6.91c-0.18,1.1-0.27,2.24-0.2,3.34c0.11,1.62-0.5,2.97-1.24,4.3c-0.19,0.34-0.41,0.75-0.73,0.93
		c-1.81,0.98-3.53,2.27-5.61,2.59c-1.96,0.3-3.74-0.41-5.47-1.37c-1.64-0.92-3.05-2.06-4.15-3.55c-1.52-2.06-3.06-4.13-4.04-6.5
		c-1.13-2.71-2.33-5.43-3.04-8.26c-1.38-5.47-1.3-11.02-0.45-16.63c0.36-2.36,1.4-3.97,3.19-5.27c3.84-2.77,7.1-6.17,10.49-9.44
		c2.87-2.76,5.89-5.36,8.77-8.12c4.14-3.97,8.12-8.08,11.47-12.78c2.17-3.05,4.32-6.12,6.25-9.33c2.69-4.47,4.42-9.38,6.31-14.21
		c1.6-4.09,3.2-8.18,4.74-12.29c1.54-4.11,2.81-8.31,3.82-12.59c0.87-3.65,2.01-7.22,3.49-10.68c0.15-0.35,0.31-0.74,0.81-0.79
		c0.47,0.19,0.36,0.63,0.38,1c0.23,3.9,0.48,7.8,0.7,11.71c0.22,3.99,0.1,7.99,0.49,11.95c0.28,2.94,0.21,5.89,0.7,8.82
		c0.24,1.41,0.22,2.87,0.18,4.31c-0.13,4.7,0.92,9.2,2.31,13.61c1.36,4.33,2.8,8.65,4.35,12.91c1.46,4.04,2.77,8.16,4.75,12
		c0.11,0.22,0.2,0.42,0.47,0.45c0.48-0.08,0.34-0.42,0.29-0.72c-0.92-5.77-2.72-11.32-4.24-16.93c-0.79-2.94-1.47-5.9-1.62-8.92
		c-0.15-3.2,0.64-6.33,1.29-9.45c0.13-0.63,0.35-1.22,0.85-1.72c0.99-0.44,2.05-0.35,3.01,0.02c1.71,0.66,3.37,1.46,5.04,2.23
		c0.7,0.32,1.02,1,1.37,1.63c2.61,4.67,5.37,9.26,8.2,13.8c2.2,3.54,3.18,7.45,3.24,11.62c0.08,4.51-0.47,8.92-2.04,13.17
		c-0.43,1.17-0.91,2.33-1.88,3.52c-0.52-1.04-0.97-1.86-1.35-2.71c-1.64-3.57-4.47-5.51-8.32-6.04c-0.47-0.07-0.96-0.07-1.43-0.06
		c-1.08,0.02-1.6,0.59-1.55,1.74c1.17,0.71,2.58,0.68,3.87,1.03c1.83,0.49,3.16,1.51,4.15,3.02c2.06,3.17,3.59,6.63,4.49,10.28
		c1.05,4.26,2.21,8.49,3.4,12.72c0.62,2.19,0.71,4.4,0.69,6.64c-0.01,1.07-0.31,2.06-0.76,2.99c-0.77,1.58-1.39,3.3-2.47,4.64
		c-1.96,2.44-4.35,4.43-7.58,5.08c-1.48,0.29-2.96,0.61-4.36,0.37c-0.53-0.53-0.31-1.02-0.21-1.44c0.89-3.69,0.98-7.4,0.52-11.15
		c-0.12-0.94-0.11-1.91,0.1-2.86c0.47-2.14,0.29-4.25-0.16-6.4c-0.58-2.82-1.43-5.55-2.38-8.25
		C355.48,886.52,355.45,885.67,354.32,885.6z M331.79,877.07c-0.54-0.21-0.53-0.54-0.65-0.83c-1.25-3.09-3.23-5.47-6.51-6.55
		c-0.92-0.31-1.81-0.3-2.8-0.12c-2.45,0.46-4.33,1.96-6.4,3.14c-2.65,1.5-4.23,3.8-5.2,6.6c-0.14,0.39-0.35,0.82,0.05,1.19
		c0.49-0.19,0.68-0.56,0.84-0.91c1.04-2.27,2.72-3.89,4.96-4.97c0.36-0.17,0.67-0.43,1-0.65c1.27-0.84,2.67-1.42,4.1-1.94
		c1.95-0.7,3.77-0.57,5.32,0.93c2.14,2.07,3.95,4.32,4.56,7.36c0.24,1.19,0.46,2.45,1.3,3.62c0.25-1.09,0.47-2.02,0.67-2.95
		c0.77-3.62,2.69-6.55,5.36-9.06c1.32-1.24,2.79-1.48,4.41-0.91c1.12,0.4,2.24,0.88,3.16,1.65c2,1.68,4.33,2.98,6.01,5.04
		c0.06,0.08,0.27,0.04,0.45,0.06c-0.08-0.98-0.51-1.79-1.14-2.51c-0.57-0.66-1.09-1.38-1.72-1.99c-1.96-1.93-4.2-3.4-6.87-4.19
		c-0.8-0.24-1.52-0.24-2.32,0.08c-2.33,0.95-4.19,2.59-6.13,4.09c-0.82,0.64-1.36,1.56-1.72,2.55
		C332.36,876.25,332.21,876.7,331.79,877.07z M307.8,900.92c0.4-3.68,1.23-7.35,0-11.37C306.82,893.59,307.81,897.26,307.8,900.92z
		 M332.1,891.56c-0.35,0.14-0.41,0.44-0.42,0.76c-0.06,1.82-0.12,3.65-0.14,5.47c0,0.32-0.2,0.82,0.45,0.83
		C332.59,896.58,332.65,892.91,332.1,891.56z"/>
	<path class="st0" d="M382.57,62.86c0.69,1.2,1.95,1.83,2.84,2.85c1.78,2.05,3.28,4.31,4.96,6.43c1.44,1.82,3.19,3.34,5.13,4.5
		c1.81,1.08,3.5,2.52,5.71,2.89c0.56,0.09,0.95,0.52,1.18,1.07c-0.29,0.57-0.82,0.37-1.25,0.35c-0.95-0.03-1.89-0.27-2.85,0.04
		c-0.28,0.09-0.63,0.01-0.94-0.05c-5.24-1.09-10.27-2.8-15.16-5c-3.12-1.4-5.55-3.73-8.26-5.69c-1.23-0.89-2.42-1.83-3.55-2.84
		c-3.69-3.3-8.54-5.32-14.12-6.09c0.31-0.95,1.31-0.79,1.9-1.22c0.62-0.46,1.52-0.43,2.04-1.06c-0.04-0.47-0.37-0.57-0.67-0.57
		c-2.64-0.01-5.25,0.05-7.76,1.08c-2.42,0.99-4.94,1.76-7.16,3.24c-0.4-0.64,0.06-0.96,0.31-1.3c2.04-2.71,4.72-4.74,7.39-6.78
		c1.27-0.97,2.58-1.88,3.87-2.82c0.45-0.33,0.96-0.59,1.16-1.27c-0.52-0.52-0.99,0.06-1.43,0.16c-3.89,0.85-12.15,6.95-13.96,10.39
		c-1.71,3.23-2.68,6.51-1.64,10.09c0.42,1.44,0.07,2.85,0.52,4.64c-1.7-1.51-1.83-3.63-3.19-4.93c-0.76,0.71-0.37,1.59-0.73,2.36
		c-1.45-1.77-2.21-3.61-1.96-5.79c0.04-0.31,0.08-0.64,0.04-0.95c-0.07-0.57-0.77-0.86-1.29-0.51c-0.31,0.21-0.41,0.7-0.91,0.77
		c0.22-3.91,1.21-7.65,2.31-11.37c0.18-0.6,0.56-1.14,0.91-1.67c4.36-6.64,10.66-10.88,17.66-14.24c1.07-0.51,2.26-0.78,3.4-1.15
		c0.45-0.14,0.97-0.13,1.24-0.66c-0.24-0.68-0.75-0.57-1.33-0.51c-3.74,0.4-7.05,1.97-10.27,3.74c-5.28,2.92-9.58,6.88-12.46,12.25
		c-2.12,3.97-3.62,8.13-3.9,12.69c-0.05,0.87,0.48,1.7,0.02,2.67c-1.12-1.66-0.67-3.81-1.86-5.19c-0.47-0.46-0.83,0.26-1.42-0.32
		c-0.5-0.42-0.01-1.74-1.08-2.2c-0.78,0.04-0.92,0.63-0.97,1.17c-0.25,2.5,0.72,4.72,1.87,6.81c0.41,0.74,1.52,1.08,2.29,1.64
		c0.65,0.48,1.6,0.59,1.92,1.5l0.04-0.05c-0.23,0.04-0.47,0.14-0.7,0.11c-1.09-0.13-1.7-1.97-3.13-0.88
		c-1.15-0.16-2.31-0.22-3.48-0.14c-0.55,0.04-1.09-0.11-1.44,0.53c-0.35,0.63-0.83,0.04-1.35,0.01c-0.59,0.01-0.54,0.8-1.04,1.09
		c-0.61,0.35-1.06-0.21-1.6-0.07c-0.69,0.18-1.4,0.31-2.09,0.46c-0.59,0.13-0.87-0.22-1.13-0.85c-1.64,1.44-3.5,1.63-5.5,1.28
		c-1.81-0.32-3.87,0.58-5.7,1.58c-1.05,0.56-1.69,1.56-2.68,2c-0.62-0.09-0.84-0.55-1.14-0.9c-0.26-0.3-0.52-0.6-0.71-0.82
		c-1.55,0.07-2.88,0.27-4.03,1.2c-0.77,0.62-1.6,0.7-2.66,0.34c-1-0.34-2.21-0.92-3.31-0.05c-0.91-0.31-1.57-0.07-2.32,0.59
		c-0.36,0.31-1.17,0.02-1.1,0.99c0.04,0.51-0.51,0.98-0.93,0.94c-0.91-0.09-1.4,0.67-2.15,0.85c-0.87-0.41,0.27-1.26-0.45-1.7
		c-0.37-0.34-0.64-0.07-0.94,0.23c-0.44,0.45-0.03,1.36-0.89,1.6c-0.7-0.04-0.4-0.99-1.04-1.17c-0.32,0.09-0.68,0.2-1.04,0.31
		c-0.09-0.15-0.2-0.27-0.23-0.41c-0.24-1.16,0.36-2.38-0.27-3.52c-0.05-0.1,0.18-0.45,0.36-0.56c0.16-0.1,0.43-0.02,0.69-0.02
		c0.2-0.97,0.49-1.97,0.59-2.99c0.22-2.23,0.27-4.45-0.52-6.62c-0.62-1.72-1.2-3.46-1.77-5.2c-0.89-2.74-2.39-5-4.82-6.63
		c-2.18-1.46-4.28-3.05-6.45-4.53c-1.19-0.82-2.28-1.74-3.41-2.87c0.28-1.51-0.32-3.02-0.41-4.6c-0.18-3.28,0.74-6.27,2.37-9.08
		c0.38-0.67,0.97-1.03,1.69-1.23c3.88-1.05,7.46-2.73,10.79-5.29c0.42,0.65,0.19,1.29,0.11,1.84c-0.4,3.01-0.48,6.03-0.31,9.06
		c0.32,5.62,1.93,10.79,5.25,15.38c0.09,0.13,0.24,0.24,0.28,0.38c0.79,2.94,3.29,4.11,5.62,5.47c0.41,0.24,0.79,0.53,1.27,0.85
		c0.8-1.71,2.1,0.14,3.12-0.51c0.79-0.85,0.42-2.52,1.93-2.96c-0.08,0.15-0.45,0.28-0.03,0.47c-0.01-0.14-0.02-0.29-0.03-0.43
		c-0.46-0.13-0.92-0.26-1.46-0.41c-0.99-2.25-1.75-4.64-2.37-7.46c-1,0.96-1.21,1.68-0.95,2.59c0.33,1.15,0.6,2.31,0.93,3.46
		c0.11,0.37,0.4,0.71,0.04,1.18c-1.19-0.9-1.59-2.34-2.43-3.47c-0.85-1.15-1.56-2.4-2.32-3.58c-0.76,0.1-0.76,0.65-0.65,1.08
		c0.26,1,0.5,2.04,0.99,2.93c0.74,1.33,1.15,2.74,1.52,4.41c-2.92-2.65-4.99-5.71-6.84-8.93c-1.7-2.96-2.4-6.13-2.51-9.59
		c-0.15-4.64,0.5-9.03,2.34-13.28c0.44-1.02,0.69-2.12,1.02-3.19c0.22-0.72,0.57-1.3,1.64-1.53c-0.99,4.72-2.21,9.3-1.61,14.36
		c0.7-0.63,0.86-1.17,0.98-1.76c0.49-2.5,1-5,1.47-7.51c0.19-1.01,0.31-2.04,0.99-2.87c-0.34,1.08,0.01,2.14,0.04,3.21
		c0.24-0.66,0.39-1.33,0.49-2.01c0.07-0.5-0.09-0.92-0.59-1.15c0.81-0.61,1.07-1.58,1.38-2.44c0.92-2.56,2.31-4.88,3.54-7.28
		c0.33-0.63,0.71-1.25,1.15-1.81c1.36-1.71,3.02-2.68,5.35-2.44c4.32,0.44,8.43,1.54,12.32,3.42c1.98,0.96,3.98,1.55,6.19,1.4
		c0.87-0.06,1.76-0.07,2.62,0.05c0.8,0.1,1.59,0.38,1.48,1.47l0.06-0.04c-3.78,1.03-6.4,3.51-8.26,6.81
		c-2.19,3.89-4.3,7.82-6.05,11.95c-3.05,7.18-3.44,14.49-1.45,21.97c0.14,0.52,0.28,1.08,0.83,1.41c0.57-0.12,0.47-0.59,0.38-0.91
		c-0.78-2.69-1.18-5.44-1.55-8.21c-0.34-2.52-0.18-4.9,0.64-7.28c0.59-1.73,1.33-3.41,1.71-5.22c0.31-1.5,1.17-2.8,2.02-4.02
		c2.12-3,4.06-6.11,5.91-9.27c1.46-2.5,3.74-3.63,6.37-4.22c2.57-0.58,5.14-0.78,7.82-0.35c2.92,0.46,5.82,0.94,8.59,1.98
		c0.89,0.34,1.62,0.21,2.47-0.29c1.25-0.73,2.4-0.6,4.07,0.09c-0.04,0.78-0.51,1.37-1.1,1.73c-1.69,1.03-2.17,2.62-2.32,4.42
		l0.07-0.04c-0.19,0.19-0.38,0.37-0.57,0.56c0,0,0.05-0.07,0.05-0.07c-0.18,0.18-0.36,0.36-0.54,0.54c0,0,0.05-0.06,0.05-0.06
		c-0.38,0.23-0.76,0.45-1.14,0.68c0,0,0.06,0.05,0.06,0.05c-0.95-0.43-1.69-0.07-2.31,0.65c-0.57,0.66-1.1,1.36-1.65,2.03
		c-1.78,2.16-4.02,3.83-6.15,5.6c-0.92,0.76-1.79,1.49-2.54,2.45c-1.02,1.31-2.2,2.49-3.31,3.72c0.01,0.03,0.02,0.07,0.03,0.1
		c0-0.05,0.01-0.1,0.01-0.15c0.37,0.29,0.74,0.25,1.07-0.05c1.78-1.58,3.56-3.18,5.35-4.75c2.4-2.11,4.82-4.18,7.61-5.78
		c1.38-0.79,2.66-1.75,4.04-2.54c2.13-1.22,4.31-2.36,6.56-3.42c-1.29,1.61-3.19,2.63-4.12,4.53c0.61,0.52,1.1,0.2,1.57-0.09
		c2.37-1.47,4.77-2.9,7.09-4.45c1.11-0.74,2.1-1.09,3.45-0.12c-1.37,1.2-3.17,1.34-4.62,2.17c-1.59,0.91-3.15,1.87-4.71,2.84
		c-1.49,0.93-2.98,1.86-4.42,2.86c-1.51,1.05-2.97,2.16-4.43,3.28c-1.37,1.05-2.72,2.14-4.18,3.3c0.89,0.62,1.4,0.05,1.83-0.26
		c4.23-3.01,8.62-5.76,13.05-8.45c1.97-1.2,4.05-2.28,6.2-3.12c3.93-1.53,8.11-1.93,12.25-1.49c3.04,0.33,5.75,1.74,7.82,4.2
		c1.75,2.09,3.26,4.31,4.52,6.72c0.06,0.12,0.01,0.29,0.01,0.44c-0.55,0.35-1.1,0.12-1.64,0.02c-3.31-0.57-6.63-0.96-9.99-0.95
		c-0.97,0.01-1.93,0-2.61,0.88c0.05,0.56,0.49,0.56,0.87,0.55c4.83-0.13,9.56,0.76,14.22,1.78c2.78,0.61,5.51,0.76,8.3,0.8
		c2.15,0.03,4.29,0.29,6.45,0.32c3.08,0.04,6.03-0.36,8.86-1.59c0.29-0.13,0.59-0.24,1.07-0.02c-1.22,1.26-2.59,2.23-3.99,3.17
		c-0.8,0.53-1.62,1.03-2.39,1.59c-0.43,0.32-0.97,0.6-0.97,1.26c-0.16,0.03-0.5,0-0.13,0.25c0.09,0.06,0.19-0.15,0.08-0.3
		c0.81,0.38,1.67-0.08,2.49,0.13l0.06-0.05c-1.38,0.8-2.71,1.69-4.14,2.39c-2.09,1.03-4.11,1.19-6.38,0.04
		c-5.79-2.92-11.9-3.38-18.15-1.58c-1,0.29-1.9,0.71-2.49,1.5c0.11,0.52,0.41,0.74,0.72,0.68c0.54-0.11,1.07-0.32,1.58-0.54
		c5.16-2.2,10.24-1.78,15.26,0.49c1.53,0.69,3.1,1.31,4.46,2.31c1.25,0.92,2.55,1.79,3.83,2.66c2.23,1.53,4.68,2.76,7.21,3.76
		c3.49,1.38,7,2.69,10.49,4.06c2.92,1.14,5.92,1.84,9.08,1.75c0.38-0.01,0.77,0.16,1.42,0.31c-0.78,0.52-1.07,1.16-2.13,0.85
		c-0.84-0.24-1.88,0.1-2.81,0.28c-3.29,0.64-6.6,1.05-9.95,1.3c-2.96,0.22-5.88,0.33-8.83-0.02c-0.6-0.07-1.26-0.22-1.93,0.45
		c1.81,1.5,3.97,1.54,6.01,1.71c2.03,0.17,4.08,0.04,6.33,0.04c-0.82,1.01-1.81,1.21-2.67,1.33c-1.35,0.18-2.65,0.54-3.95,0.89
		c-1.09,0.3-2.19,0.42-3.32,0.35c-1.36-0.09-2.72-0.16-4.07-0.16c-1.54,0-2.74-0.58-3.8-1.68c-1.56-1.61-3.37-2.93-5.24-4.17
		c-0.6-0.4-1.21-0.78-1.95-0.87c-0.14,0.1-0.18-0.01-0.05-0.05C382.77,62.68,382.35,62.62,382.57,62.86z M298.51,56.12
		c0.03,0.2-0.04,0.58,0.31,0.21c0.05-0.05-0.19-0.21-0.37-0.15c-0.08-0.12,0.15-0.49-0.27-0.33
		C298.29,55.94,298.4,56.03,298.51,56.12z M296.14,51.83l-0.09-0.06l0.15,0.01c0.02,1.6,0.02,1.6,0.81,3.22
		c0.53-0.12,0.59-0.55,0.42-0.91C297.06,53.31,296.58,52.58,296.14,51.83z M318.27,50.32c-0.83,1.07-1.6,2.15-1.93,3.47
		c-0.22,0.85-0.28,1.82-0.75,2.49c-0.5,0.7-0.05,1.57-0.75,2.42c0.01-1.74-0.12-3.2-0.1-4.68c0.02-1.64,0.74-3.09,1.05-4.64
		c0.29-1.43,1.36-2.65,1.24-4.61c-3.14,3.04-3.78,6.82-4.76,10.48c-0.62-0.57-1-0.31-1.16,0.21c-0.35,1.18-0.17,2.34,0.2,3.51
		c0.42,1.32,1.69,1.57,2.37,2.27c0.99,0.07,0.96-0.94,1.76-1.1c0.43,1.43,1.29,2.65,2.02,3.94c0.47,0.84,1.13,1.56,2.28,1.21
		c0.38-0.46-0.36-1.11,0.39-1.56c0.44,0.35,0.53,0.93,0.73,1.41c0.31,0.73,0.5,1.51,0.84,2.23c0.73,1.54,1.46,1.77,3.3,1.16
		c-0.01-0.16,0.02-0.33-0.04-0.46c-1.69-3.72-2.29-7.57-1.5-11.63c0.16-0.83,0.35-1.79-0.09-2.73c-1.33,0.99-1.53,2.39-2.08,3.6
		c-0.85-0.47-0.11-1.57-0.86-2.07c-0.76-0.22-0.95,0.35-1.17,0.87c-0.2,0.46,0.01,1.19-0.82,1.22c-0.53-0.62,0.07-1.7-0.45-2.01
		c-1.07-0.63-0.45-1.35-0.44-2.07C317.58,52.21,318.19,51.35,318.27,50.32z M309.79,60.09c-0.71-2.01-1.75-3.83-2.44-6.09
		C306.76,56.36,307.44,58.02,309.79,60.09z M375.75,59.31c-1.74-0.82-3.58-1.19-5.47-1.26c-0.47-0.02-0.95,0.06-0.96,0.82
		c1.06,0.13,2.07,0.67,3.19,0.32C373.61,58.85,374.64,59.62,375.75,59.31z M301.3,76.23c0.68-1.46,0.67-1.52-0.86-2.72
		C300.37,74.62,300.09,75.6,301.3,76.23z M307.38,72.26c0.58,0.26,1.01,0.41,1.23-0.22c0.09-0.27-0.07-0.47-0.27-0.53
		C307.78,71.33,307.5,71.63,307.38,72.26z M300.89,53.39c-0.07,0.01-0.14,0.03-0.2,0.04c0.02,0.06,0.03,0.16,0.05,0.16
		c0.07,0.01,0.14-0.03,0.21-0.04C300.93,53.5,300.91,53.45,300.89,53.39z M310.79,72.74c-0.12-0.22-0.31-0.27-0.53-0.18
		c-0.21,0.08-0.22,0.2-0.02,0.31C310.46,72.97,310.65,72.91,310.79,72.74z"/>
	<path class="st0" d="M219.7,23.34c-0.39-4.77,0.86-9.75,1.68-14.77c0.29-1.75,1.45-3.19,2.37-4.67c0.75-1.2,2.61-1.36,3.85-0.51
		c1.4,0.96,2.53,2.2,3.32,3.71c0.74,1.41,1.48,2.83,2.21,4.25c1.17,2.28,2.83,4.24,4.18,6.4c0.81,1.3,1.99,2.27,3,3.39
		c3.15,3.51,6.16,7.11,8.33,11.36c0.84,1.65,1.53,3.34,2.12,5.07c0.72,2.11,1.48,4.19,2.28,6.27c1.03,2.66,1.55,5.51,1.84,8.38
		c0.36,3.58,0.35,7.17,0.3,10.76c-0.04,2.71-0.22,5.41-0.38,8.11c-0.2,3.3,0.68,6.31,2.28,9.15c0.2,0.35,0.49,0.64,0.65,1.01
		c1.16,2.65,3.33,3.94,6.03,4.49c1.07,0.22,1.79,0.94,1.9,1.92c0.28,2.48,1.56,4.65,2.08,7.06c0.3,1.41,0.88,2.74,0.09,4.16
		c-0.11,0.19-0.12,0.47-0.1,0.71c0.17,2.3-1.07,3.91-2.6,5.4c-0.92,0.89-1.74,1.88-2.7,2.72c-0.95,0.83-1.34,2.1-2.43,2.8
		c-0.6,0.38-1.07,0.98-1.68,1.33c-0.91,0.52-1.87,0.86-2.96,0.35c-1.22-0.56-2.44-0.49-3.7,0.08c-2.4,1.1-4.93,0.98-7.15-0.24
		c-3.21-1.75-6.34-3.69-8.63-6.72c-0.79-1.05-1.38-2.12-1.76-3.35c-0.64-2.07-1.01-4.19-1.25-6.33c-0.68-6.11-1.95-12.1-3.26-18.09
		c-0.92-4.19-1.81-8.41-1.69-12.77c0.08-2.71-0.39-5.39-0.86-8.07c-0.46-2.65-1.49-5.05-2.83-7.32c-1.83-3.09-2.74-6.42-3.11-9.95
		c-0.31-3.01-0.63-6.03-1.04-9.02C219.78,28.2,219.65,25.97,219.7,23.34z M244.23,84.64c-0.87,0.06-1.49,0.01-2.13,0.15
		c-0.7,0.16-1.37,0.38-2.06,0.56c-3.57,0.9-4.57,3.85-4.72,6.95c-0.09,1.84,0.31,3.79,0.83,5.64c1.11,3.94,5.31,6.97,9.4,6.59
		c3.88-0.36,6.6-2.45,8.45-5.84c1.17-2.13,1.21-4.21,0.24-6.4c-0.65-1.47-1.61-2.73-2.58-4C249.71,85.73,247.11,84.66,244.23,84.64z
		"/>
	<path class="st0" d="M461.65,389.85c-3.24-2.3-6.76-4.21-9.89-6.75c0.7-2.92,2.08-5.43,3.41-7.95c2.73-5.16,5.95-10,9.88-14.35
		c0.53-0.59,0.93-1.29,1.38-1.95c1.92-2.8,4.33-5.08,7.17-6.95c1.4-0.92,2.7-1.98,4-3.03c0.84-0.68,1.69-1.19,2.83-0.98
		c0.31,0.06,0.66,0.08,0.95,0c1.55-0.42,2.97-0.24,4.27,0.78c0.45,0.36,1.1,0.22,1.6,0.4c0.87,0.33,1.94,0.14,2.73,1.02
		c-1.24,1.12-2.81,1.86-3.78,3.48c1.22,3.27,1.75,6.83,3.18,10.35c2.5-1.11,4.86-2.2,7.26-3.21c2.42-1.02,4.89-1.95,7.48-2.97
		c0.86,0.69,2.15,0.66,2.97,1.65c0.49,0.6,1.29,0.95,1.26,1.91c-0.01,0.2,0.18,0.44,0.33,0.62c1.85,2.25,2.91,4.93,3.98,7.59
		c0.09,0.22,0.18,0.44,0.29,0.66c0.9,1.92,1.18,2.02,3.08,1.11c0.93-0.45,1.84-0.97,2.79-1.37c0.67-0.28,0.92-0.82,1.15-1.41
		l-0.08,0.06c0.97,0.66,1.94,1.32,2.92,1.98l-0.06-0.06c-3.16,0.25-5.53,2.17-8.32,3.55c2.29,6.34,3.8,12.58,4.81,18.74
		c0.51,0.39,0.82,0.28,1.06,0.08c4.27-3.47,8.82-6.56,13.32-9.71c1.19-0.83,2.02-1.74,2.12-3.21c-0.8-1.01-2.01-1.64-2.7-2.78
		l-0.03-0.03c0.8,0.06,1.49,0.32,2.09,0.91c0.83,0.82,1.74,1.56,2.62,2.33c-0.21-0.08-0.41-0.2-0.62-0.24
		c-0.21-0.04-0.3,0.08-0.22,0.26c0.02,0.05,0.11,0.12,0.15,0.11c0.22-0.05,0.43-0.12,0.65-0.19c0.81,0.39,1.63,0.78,2.44,1.16
		c0,0-0.06-0.07-0.06-0.07c-0.45,0.15-0.94,0.23-1.35,0.46c-0.92,0.52-1.2,1.15-0.91,2.19c1.25,4.55,1.98,9.2,2.78,13.83
		c0.1,0.55,0.17,1.11,0.33,1.64c0.24,0.84,0.88,1.08,1.67,0.64c0.42-0.23,0.81-0.52,1.19-0.8c3.07-2.31,6.35-4.27,9.9-5.76
		c0.65-0.27,0.72-0.36,1.52-1.51c0.89,0.4,1.67,0.8,1.54,2.04c-0.05,0.45,0.02,1.01,0.26,1.39c1.66,2.65,1.98,5.7,2.72,8.63
		c0.08,0.31,0.16,0.62,0.53,0.83c0.5,0.21,0.81-0.27,1.21-0.48c2.25-1.21,4.52-2.39,7-3.07c0.64-0.17,1.13-0.54,1.66-0.9
		c0.86-0.58,1.8-0.2,2.04,0.78c0.49,2.01,0.93,4.03,1.38,6.05c0.18,0.79,0.2,1.57-0.01,2.37c-0.25,0.98-0.42,1.98-0.74,3.53
		c-0.45-4.36-1.55-8.02-2.27-12c-2.94,1.63-5.74,3.16-8.51,4.71c-1.17,0.66-1.54,1.72-1.51,3.03c0.06,2.55,0,5.11,0.08,7.67
		c0.12,3.9-0.04,7.8-0.21,11.69c0,0.06,0.08,0.13,0.12,0.2c0.8-0.24,9.46-5.68,10.8-6.79c0.27-1.12-1.91-1.33-1.09-2.72
		c2.76,0.94,3.76,1.61,4.66,3.1c-0.56,0.58-0.87,1.21-0.65,2.11c0.76,3.2,0.95,6.44,0.77,9.74c-0.15,2.77,0.11,5.57,0.18,8.34
		c-1.58,0.14-1.71,0.07-1.68-1.11c0.02-1.04,0-2.09,0.18-3.11c0.72-4.12-0.3-8.08-0.91-12.09c-0.12-0.78-0.26-1.55-0.42-2.54
		c-1.44,0.45-2.49,1.33-3.59,2c-2.32,1.41-4.52,3.01-6.75,4.56c-1.55,1.08-2.12,2.29-2.23,4.42c0.47,0.73,1.5,0.91,1.77,1.83
		l0.05-0.04c-1.74-0.34-2.8-1.63-3.9-2.84l0.06,0.06c-0.46-0.53-1.36-0.64-1.45-1.52c0,0-0.04,0.04-0.04,0.04
		c0.47-0.31,0.93-0.62,1.4-0.92c0.73-0.45,1.02-1.08,1.13-1.96c0.32-2.46,0.36-4.92,0.34-7.39c-0.03-3.91-0.01-7.82-0.4-11.71
		c-0.02-0.22-0.14-0.43-0.22-0.65c-2.55,1.1-8.54,6.66-13.3,12.36c1.97,0.89,3.75,2.05,5.41,3.39l0.04-0.06
		c-1.82,0.53-3.21-0.68-4.73-1.24c-2.09-0.76-4.06-1.92-6.19-2.51c-2-0.55-3.9-1.36-5.9-1.92c-0.55-0.15-1.3-0.14-1.49-0.94
		l-0.05,0.06c1.16-0.16,2.19,0.34,3.26,0.63c1.68,0.46,3.29,1.19,5.05,1.34c0.59-2.13,0.09-12.26-0.79-16.06
		c-2.72,1.46-4.78,3.66-6.89,5.73c-2.14,2.1-3.99,4.5-5.94,6.73c-0.42-0.05-0.68-0.21-0.86-0.48c0.91-1.09,1.95-2.1,2.7-3.28
		c2.36-3.71,5.59-6.56,8.96-9.25c1.45-1.16,1.9-2.35,1.66-4.12c-0.71-5.06-1.74-10.04-3.12-14.96c-0.08-0.29-0.13-0.63-0.55-0.78
		c-0.75,0.13-1.38,0.68-1.98,1.17c-3.81,3.04-8.01,5.53-11.97,8.35c-1.81,1.29-2.15,2.72-1.89,4.7c0.47,3.55,0.88,7.13,0.71,10.72
		c-0.09,1.87-0.38,3.74-0.58,5.58c-0.74,0.01-0.85-0.37-0.85-0.78c-0.01-1.2,0.01-2.4,0.02-3.6c0.02-4.3-0.46-8.56-0.89-12.78
		c-0.72-0.21-1.03,0.22-1.34,0.56c-1.81,2.02-3.63,4.03-5.39,6.1c-1.45,1.71-2.96,3.34-4.72,4.75c-0.32,0.25-0.58,0.55-0.6,1.09
		c0.35,0.88,1.63,0.44,2.09,1.27c-0.81,0.35-1.6,0.09-2.26-0.28c-2.78-1.52-5.88-1.99-8.89-2.7c-2.37-0.56-4.34-1.86-6.48-2.85
		c-0.06-0.03-0.02-0.28-0.02-0.43c0,0-0.07,0.06-0.07,0.06c1.14,0.32,2.28,0.65,3.66,1.04c0.39-5.59-1.16-10.82-1.39-16.02
		c-0.87-0.38-1.18,0.07-1.49,0.4c-2.45,2.63-4.88,5.27-7.32,7.9c-0.92,0.99-1.86,1.98-2.78,2.97c-0.41,0.44-0.68,0.05-0.97-0.05
		c-0.25-0.44,0.02-0.69,0.21-0.91c3.09-3.55,5.98-7.29,9.5-10.43c1.73-1.55,2.07-3.33,1.75-5.38c-0.47-2.99-0.99-5.97-1.58-8.94
		c-0.5-2.5-1.14-4.97-1.72-7.45c-0.11-0.47-0.2-0.95-0.93-1.28c-4.88,2.33-9.49,5.44-14.15,8.34c-0.46,3.43-0.02,6.73-0.03,10.03
		c-0.01,2.77-0.02,5.57-0.17,8.36c-0.06,1.11-0.3,2.2-0.82,3.21l0.03,0c-0.48-0.65-0.71-1.32-0.66-2.18
		c0.19-3.16,0.12-6.33-0.13-9.49c-0.15-1.9-0.31-3.8-0.52-5.69c-0.07-0.61-0.31-1.2-0.49-1.87c-1.05,0.35-1.66,1.12-2.4,1.69
		c-0.7,0.52-1.28,1.22-2.01,1.67c-2.55,1.58-3.83,3.93-4.32,6.8c-0.12,0.7-0.23,1.41-0.34,2.11L461.65,389.85z M504.89,409.7
		c1.92-2.91,3.88-5.31,6.01-7.56c1.91-2.02,3.84-4.04,5.75-6.07c0.85-0.9,1.37-1.9,1.07-3.23c-1.14-5.04-2.05-10.14-3.65-15.07
		c-0.31-0.97-0.51-2.01-1.35-2.69c-0.21,0.03-0.39,0.01-0.51,0.08c-4.63,2.66-9.21,5.4-13.54,8.55c-0.9,0.65-1.77,1.35-2.62,2.06
		c-1.48,1.24-1.79,3.12-1.55,4.72c0.57,3.7,0.7,7.44,1.16,11.15c0.14,1.09,0.22,2.25-0.14,3.33c-0.3,0.88,0.01,1.4,0.79,1.69
		C499.14,407.67,501.98,408.67,504.89,409.7z M505.46,359.11c-0.7-0.26-1.27,0.02-1.86,0.28c-1.82,0.8-3.65,1.59-5.48,2.37
		c-1.98,0.84-4,1.6-5.93,2.53c-1.88,0.91-2.22,1.76-1.82,3.82c0.92,4.76,1.81,9.53,2.78,14.28c0.2,0.98,0.04,2.06,0.58,2.86
		c0.61,0.2,0.91-0.07,1.21-0.33c3.03-2.6,6.28-4.92,9.63-7.07c1.88-1.2,3.83-2.29,5.74-3.44c1.88-1.13,1.91-1.33,1.11-3.44
		c-1.23-3.2-2.63-6.32-4.39-9.27C506.5,360.84,506.33,359.75,505.46,359.11z M555.22,394.66c-0.71-0.13-1.08,0.24-1.49,0.46
		c-2.95,1.59-5.65,3.59-8.54,5.26c-2.75,1.58-4.48,3.25-3.43,6.6c-0.03,4.29,0.74,8.57,0.13,12.87c-0.04,0.3-0.01,0.62-0.01,0.89
		c0.78,0.48,1.47,0.86,2.26,0.48c1.44-1.77,2.85-3.5,4.27-5.22c1.47-1.79,3.13-3.39,4.88-4.9c1.02-0.89,2-1.86,3.11-2.61
		c1.42-0.96,1.71-2.24,1.34-3.75C556.92,401.34,556.05,397.97,555.22,394.66z M472.48,373.89c1.25-0.49,13.58-7.6,15.07-8.71
		c-0.37-3.62-2.05-7.05-2.37-10.87c-1.27,0.56-2.06,1.44-2.89,2.29c-3.06,3.14-5.34,6.94-8.45,10.02
		C471.69,368.76,471.28,371.05,472.48,373.89z M470.12,372.04c-1.67,2.01-3.75,6.1-3.86,7.39c0.95-0.84,1.89-1.68,2.84-2.52
		c0.93-0.84,1.55-1.78,1.2-3.13C470.19,373.35,470.2,372.87,470.12,372.04z"/>
	<path class="st0" d="M388.75,456.94c-0.22-0.07-0.47-0.25-0.67-0.21c-2.5,0.49-4.99,1.01-7.48,1.53c-2.26,0.47-4.52,0.96-6.78,1.42
		c-0.37,0.08-0.78,0.01-1.29,0.01c-0.69-4.33-1.03-8.69-2.27-12.94c0.89-0.42,1.71-0.65,2.57-0.82c6.11-1.16,12.22-2.31,18.23-3.92
		c4.22-1.13,8.47-2.17,12.39-4.27c2.38-1.27,4.96-2.18,7.48-3.17c6.41-2.53,12.55-5.55,18.01-9.81c0.18-0.14,0.42-0.21,0.67-0.33
		c1.01,0.29,1.21,1.2,1.43,2.01c0.62,2.23,1.75,4.06,3.69,5.42c0.9,0.63,1.47,1.65,2.08,2.6c0.65,1.01,0.55,1.93-0.11,2.85
		c0,0,0.08-0.06,0.08-0.06c-0.4,0.09-0.88,0.03-1.07,0.55c0,0,0.09-0.08,0.09-0.08c-0.31,0.06-0.51,0.23-0.55,0.56
		c0,0,0.07-0.06,0.07-0.06c-0.41,0.07-0.79,0.19-1.06,0.54l0.09-0.06c-0.7,0.06-1.15,0.49-1.52,1.02c0,0,0.09-0.07,0.09-0.07
		c-0.65,0.15-1.2,0.42-1.53,1.04c0,0,0.1-0.07,0.1-0.07c-0.44,0.01-0.9,0-1.06,0.55l0.1-0.08c-1.3,0.42-2.58,0.86-3.46,1.99
		c0,0,0.1-0.07,0.1-0.07c-0.44,0.01-0.9,0-1.06,0.55c0,0,0.1-0.07,0.1-0.07c-0.44,0.01-0.9,0-1.06,0.55c0,0,0.1-0.07,0.1-0.07
		c-0.44,0.01-0.89,0-1.06,0.55c0,0,0.1-0.07,0.1-0.07c-0.44,0.01-0.89,0.01-1.06,0.55c0,0,0.1-0.07,0.1-0.07
		c-0.44,0.01-0.89,0.01-1.06,0.55l0.1-0.07c-0.24,0.01-0.5-0.05-0.7,0.04c-3.55,1.66-7.17,3.13-10.9,4.33c0,0,0.08-0.04,0.08-0.04
		c-0.51,0.18-1.19-0.16-1.52,0.53c0,0,0.1-0.06,0.1-0.06c-0.53,0.13-1.2-0.13-1.55,0.54c0,0,0.11-0.06,0.11-0.06
		c-0.56,0.03-1.14,0.02-1.53,0.53c0,0,0.08-0.04,0.08-0.04c-0.51,0.18-1.2-0.16-1.53,0.53l0.11-0.06c-0.99-0.06-1.85,0.43-2.75,0.72
		c-3.86,1.25-7.73,2.48-11.55,3.83c-0.7,0.25-1.67-0.1-2.13,0.79L388.75,456.94z"/>
	<path class="st0" d="M359.53,582.7c-0.55-3.21-0.49-6.32-0.63-9.42c-0.21-4.46-0.27-8.92-0.51-13.38
		c-0.25-4.62-0.61-9.23-0.96-13.84c-0.09-1.18-0.61-2.33-0.13-3.77c0.91-0.84,2.3-1.65,2.14-3.48c-0.05-0.59,0.54-0.94,1.02-1.23
		c1.02-0.63,2.02-1.29,3.06-1.88c5.9-3.36,11.8-6.69,17.96-9.56c1.01-0.47,2.05-0.86,3.01-1.26c0.66,0.41,0.46,0.92,0.3,1.32
		c-0.68,1.66-0.74,3.51-1.98,5.01c-1.1,1.34-1.87,2.95-2.75,4.47c-1.6,2.76-2.96,5.62-4.09,8.61c-1.38,3.63-2.88,7.22-4.55,10.75
		c-1.34,2.85-2.92,5.6-3.94,8.61c-0.69,2.03-1.66,3.97-2.64,5.89c-1.94,3.78-3.19,7.81-4.47,11.83
		C360.23,581.83,360.2,582.32,359.53,582.7z"/>
	<path class="st0" d="M396.74,386.24c0.32,1.16,0.65,2.38,0.99,3.61c-1.09,1.25-2.53,1.89-3.87,2.74c-2.43,1.53-4.88,2.99-7.4,4.36
		c-4.18,2.29-8.35,4.61-12.51,6.94c-2.56,1.44-5.08,2.94-7.65,4.37c-2.25,1.26-4.63,0.92-6.97,0.37c-0.9-0.21-0.89-0.35-1.62-1.84
		c0.34-1,0.72-1.96,0.99-2.96c1-3.67,3.29-6.67,5.08-9.93c1.31-0.9,2.12-2.38,3.59-3.09c3.66-1.76,7.21-3.74,10.83-5.58
		c2.8-1.43,5.59-1.54,8.53-1.16c2.29,0.3,4.58,0.62,6.86,0.96C394.68,385.22,395.78,385.44,396.74,386.24z"/>
	<path class="st0" d="M472.49,339.16c-0.44,0-0.74,0.1-0.88-0.01c-2.71-2.07-5.81-3.57-8.19-6.15c-1.65-1.8-3.76-3.2-5.78-4.62
		c-2.45-1.72-4.43-3.86-6.24-6.21c-3.03-3.92-5.79-8-7.99-12.44c-1.38-2.79-2.5-5.67-3.41-8.65c-0.94-3.11-2.16-6.14-2.95-9.29
		c-0.93-3.7-1.58-7.48-2.27-11.24c-0.76-4.15-1.24-8.35-1.69-12.55c-0.09-0.79-0.18-1.59-0.17-2.39c0.05-3.27-0.75-6.5-0.45-9.78
		c0.45-4.92,1.03-9.82,2.8-14.49c0.14-0.37,0.18-0.79,0.73-1.03c1.56,1.78,2.58,3.91,3.55,6.06c0.3,0.67,0.09,1.42-0.02,2.13
		c-0.78,4.88-1.11,9.79-0.99,14.74c0.08,3.11,0.12,6.23,0,9.34c-0.18,4.68,0.63,9.24,1.77,13.72c1.99,7.81,4.58,15.44,7.85,22.82
		c2.41,5.42,5.39,10.52,9.67,14.72c2.17,2.13,4.7,3.83,7.16,5.59c1.1,0.79,2.28,1.48,3.35,2.31c1.16,0.9,1.83,2.19,2.45,3.48
		C471.39,336.44,471.87,337.71,472.49,339.16z"/>
	<path class="st0" d="M419.99,413.23c-3.24,2.18-6.73,3.93-10.16,5.8c-2.86,1.56-5.89,2.8-8.56,4.73c-1.15,0.83-2.49,1.36-3.71,2.11
		c-2.38,1.48-4.56,3.2-6.66,5.04c-2.01,1.77-4.5,2.7-6.85,3.87c-0.27,0.14-0.62,0.11-0.94,0.17c-1.71,0.32-3.06-1-2.68-2.72
		c0.41-1.87,1.16-3.65,2.01-5.35c1.51-3.01,3.51-5.66,6.01-7.95c3.52-3.23,7.02-6.48,10.76-9.45c3.11-2.47,6.4-4.7,9.95-6.69
		c1.19,0.95,2.36,1.91,3.56,2.83c1.64,1.26,3.3,2.5,4.96,3.74c0.91,0.68,1.59,1.57,2.26,2.45c0.34,0.45,0.54,1-0.03,1.48
		c-0.06-0.14-0.11-0.29-0.17-0.43c-0.04,0.05-0.08,0.11-0.12,0.16C419.76,413.08,419.88,413.16,419.99,413.23z"/>
	<path class="st0" d="M266.74,396c1.06-1.37,2.68-1.56,3.96-2.33c0.36-0.21,0.78-0.09,1.15,0.1c2.89,1.47,6.06,1.95,9.17,2.61
		c4.91,1.03,9.79,2.16,14.56,3.73c3.42,1.13,6.5,2.98,9.35,5.19c0.9,0.7,1.63,1.58,1.7,2.78c0.06,1.06,0.98,1.83,0.98,2.97
		c-1.51,1.19-3.25,1.59-5.09,1.64c-4.46,0.11-8.88-0.13-13.3-0.84c-2.81-0.45-5.67-0.69-8.51-0.89c-2.03-0.14-3.89-0.8-5.78-1.43
		c-1.19-0.4-2.09-1.08-2.66-2.22c-1.4-2.78-2.87-5.52-4.21-8.33C267.62,398.05,266.92,397.23,266.74,396z"/>
	<path class="st0" d="M236.59,493.46c0.83,0.03,1.01-0.51,0.74-1.09c-0.33-0.71-0.82-1.37-1.31-1.99c-1.67-2.1-2.72-4.48-3.29-7.09
		c-0.03-0.13,0.07-0.29,0.14-0.56c1.71,0.7,3.31,1.46,4.02,3.16c0.68,0.21,1.07-0.09,1.57-0.35c0.06-0.64,0.13-1.34,0.2-2.05
		c0.93,0.02,1.29,0.71,1.72,1.24c1.45,1.8,2.86,3.64,4.29,5.45c0.8,1.01,0.81,1,2.46,0.99c0.07-1.13-0.24-2.26,0.28-3.44
		c0.31-0.71-0.24-1.79-0.4-2.67c0.84-0.5,1.33,0.04,1.83,0.38c2.45,1.66,4.67,3.6,6.82,5.62c0.66,0.62,1.29,1.21,2.37,1.01
		c0.44-0.64,0.12-1.46,0.24-2.22c0.12-0.76,0.44-1.39,1.22-1.62c0.76-0.23,1.39,0.01,1.92,0.62c0.93,1.08,1.88,2.14,2.87,3.17
		c0.53,0.55,0.95,1.32,2.06,1.35c0.56-1.01,1.1-2.17,2.31-2.85c2.38-0.14,2.5,2.66,4.46,3.44c1.6-0.51,3.37,0.41,5.2,0.18
		c0.63-0.08,1.22,0.32,1.58,0.91c0.33,0.55,0.7,1.08,0.95,1.66c0.41,0.93,0.96,1.64,2.09,1.63c-0.24,0.86-0.76,0.89-1.35,0.8
		c-2.28-0.35-4.58-0.63-6.86-1.03c-5.35-0.94-10.74-1.29-16.17-1.25c-1.28,0.01-2.56,0.01-3.83-0.13c-1.72-0.19-3.32,0.32-4.92,0.75
		c-1.1,0.29-2.02,0.9-2.32,2.17c-0.16,0.7-0.63,1.23-1.25,1.6c-0.89-0.71-0.1-1.81-0.9-2.58c-1.4-0.05-2.17,0.98-2.73,2.09
		c-0.44,0.86-0.84,1.71-1.53,2.39c-0.23,0.23-0.5,0.39-0.96,0.32c-0.59-1.35,1.14-2.56,0.37-4.14c-1.45,1.39-2.59,0.88-3.9-0.23
		c-1.27-1.07-2.82-1.8-4.07-2.92c-0.88-0.79-1.79-1.57-2.21-2.97c2.03,0.05,3.89,0.45,5.76,0.26l-0.04-0.07
		c0.2,0.45,0.39,0.44,0.57-0.01L236.59,493.46z"/>
	<path class="st0" d="M470.22,486.97c-1.6,4.64-4.99,8.11-8.24,11.91c1.59,0.67,2.98-0.09,4.24,0.39c0.27,0.45,0,0.71-0.31,0.98
		c-0.97,0.83-2.01,1.46-3.28,1.88c-1.49,0.5-2.88,1.37-4.23,2.2c-0.89,0.54-1.65,0.89-2.63,0.24c-0.48-0.32-1.07-0.23-1.55,0.08
		c-0.34,0.56-0.07,1.14-0.21,1.68c-0.14,0.06-0.28,0.19-0.4,0.17c-1.1-0.16-2.19-0.4-3.3-0.52c-0.86-0.09-1.75-0.24-2.61,0.18
		c-0.93,1.11-0.24,2.04,0.45,2.94c-0.77,0.48-1.47,0.21-2.15,0.08c-3.65-0.7-7.29-0.69-10.93,0c-1.88,0.36-3.78,0.59-5.69,0.68
		c-1.34,0.07-2.7,0.23-3.99,0.57c-1.72,0.46-3.5,0.28-5.21,0.65c-0.11,0.02-0.25-0.12-0.49-0.24c0.72-1.21,1.97-1.85,2.87-2.83
		c0.7-0.75,1.55-1.38,2.4-1.96c0.82-0.56,1.7-1.14,2.74-0.37c0.48,0.35,0.91,0.01,1.32-0.21c1.29-0.7,2.18-1.86,3.2-2.87
		c0.89-0.88,1.86-1.49,3.17-1.4c0.57,0.04,1.11,0.06,1.4,0.68c0.5,1.05,1.53,1.01,2.53,1.21c1.07-0.83,1.96-1.8,2.59-3.04
		c0.32-0.64,0.74-1.24,1.2-1.79c0.81-0.96,1.95-0.8,2.47,0.35c0.39,0.87,0.66,1.79,1.01,2.78c1.61-0.68,2.58-2.05,3.68-3.28
		c1.16-1.3,2.06-2.8,3.16-4.15c1.06-1.3,2.27-2.43,3.39-3.82c0.64,1.12-0.72,2.22,0.23,3.22c1.24-0.21,1.91-1.12,2.19-2.21
		c0.34-1.38,1.06-1.98,2.48-2.05c2.12-0.1,3.91-1.32,5.85-2.03C468.41,486.74,469.18,486.36,470.22,486.97z"/>
	<path class="st0" d="M263.21,160.64c-1.24-1.46-2.04-2.91-2.71-4.43c-0.4-0.91-0.44-1.82,0-2.77c1.61-3.49,3.28-6.95,6.53-9.25
		c1.96-1.39,4.17-2.34,6.58-2.67c1.42-0.19,2.85-0.3,4.27-0.39c2.84-0.16,5.48,0.47,8.06,1.74c2.83,1.39,5.45,2.96,7.44,5.45
		c1.71,2.15,3.03,4.45,3.33,7.28c0.18,1.72,0.84,3.36,0.8,5.17c-0.05,1.88-0.35,3.64-1.13,5.32c-0.84,1.8-1.55,3.65-2.51,5.41
		c-1.1,2.02-2.61,3.57-4.49,4.85c-1.46,0.99-3.12,1.58-4.67,2.4c-1.04,0.55-1.97,0.44-2.86-0.35c-0.65-0.58-1.41-1.04-1.79-1.85
		c0.14-0.58,0.63-0.72,1.05-0.87c2.54-0.88,4.65-2.46,6.68-4.13c2.42-1.98,3.65-4.78,4.84-7.58c0.12-0.28,0.15-0.64,0.11-0.94
		c-0.33-2.52-0.62-5.08-1.58-7.45c-1.33-3.3-3.99-5.41-7.09-6.79c-2.6-1.16-5.42-1.9-8.38-1.4c-4.29,0.71-7.84,2.46-10.02,6.5
		c-0.77,1.42-1.42,2.84-1.65,4.42C263.94,159.06,263.62,159.68,263.21,160.64z"/>
	<path class="st0" d="M285.19,199.87c-0.37-2.54-0.67-4.99-1.1-7.42c-0.42-2.41-0.97-4.79-1.51-7.38c2.07,0.9,3.88,1.69,5.68,2.48
		c0.58,0.26,1.15,0.54,1.82,0.52c2.15-0.07,3.78,1.07,5.31,2.39c4.04,3.5,8.06,7.01,12.08,10.54c1.37,1.2,2.7,2.46,4.09,3.72
		c-0.6,1.35-1.87,1.4-2.86,1.49c-4.22,0.4-8.45,0.34-12.59-0.75C291.85,204.35,290.02,203.36,285.19,199.87z"/>
	<path class="st0" d="M355.95,570.72c-0.42-0.1-0.5-0.45-0.6-0.72c-0.17-0.44-0.23-0.93-0.31-1.4c-0.58-3.3-1.56-6.45-2.91-9.53
		c-1.6-3.64-2.81-7.44-4.47-11.07c-1.3-2.84-2.74-5.58-4.55-8.1c-2.04-2.84-4.2-5.6-6.51-8.24c-2.62-2.98-5.11-6.07-7.83-8.96
		c-0.63-0.67-1.15-1.45-1.86-2.36c1.27,0.04,2.03,0.63,2.81,1.16c3.67,2.54,7.27,5.2,11.02,7.62c3.17,2.05,5.95,4.55,8.68,7.1
		c1.68,1.57,3.14,3.39,4.74,5.06c0.5,0.52,0.6,1.1,0.57,1.75c-0.14,3.92,0.44,7.8,0.52,11.71c0.06,2.78,0.55,5.54,0.68,8.32
		C356.04,565.6,355.95,568.15,355.95,570.72z"/>
	<path class="st0" d="M271.13,423.55c0.86-2.55,2.15-4.61,3.83-6.53c1.62,0.84,3.14,1.69,4.72,2.43c4.17,1.96,8.38,3.84,12.55,5.81
		c1.51,0.71,2.91,1.64,4.41,2.37c1.36,0.66,2.18,1.81,2.95,3.01c0.52,0.8,0.48,1.85-0.2,2.42c-1.84,1.54-3.91,2.76-6.37,2.74
		c-2.54-0.02-4.96-0.48-7.27-1.87c-4.1-2.46-8.39-4.6-12.04-7.75C272.81,425.39,271.94,424.58,271.13,423.55z"/>
	<path class="st0" d="M353.29,754.78c-0.02,3.15-0.03,5.55-1.79,7.49c-1.48,1.63-3.07,3-5.49,2.82c-0.79-0.06-1.59,0.03-2.39,0.03
		c-4.37,0-7.44-2.61-8.27-6.94c-0.35-1.81-0.52-3.59-0.08-5.42c0.44-1.81,1.39-3.19,2.93-4.18c0.47-0.3,0.88-0.66,1.32-0.99
		c3.56-2.71,10.54-1.29,12.66,2.62C353.07,751.83,353.41,753.65,353.29,754.78z M350.85,756.13c-0.04-0.52-0.13-1.16-0.12-1.79
		c0.03-1.1-0.38-2.02-1.01-2.87c-0.82-1.09-1.75-2.06-2.83-2.9c-0.83-0.64-1.72-0.82-2.7-0.56c-0.61,0.16-1.26,0.31-1.8,0.63
		c-3.77,2.24-4.86,3.42-4.58,7.75c0.02,0.32,0.04,0.64,0.12,0.95c0.6,2.57,1.99,4.9,5.77,4.98c1.03,0.02,2.08-0.16,3.09,0.2
		c1.38,0.49,2.25-0.23,3.02-1.26C350.94,759.74,351.04,758.03,350.85,756.13z"/>
	<path class="st0" d="M348.72,774.09c-0.31,1.36-0.26,2.62-0.24,3.88c0.02,1.79-0.72,3.41-1.13,5.09c-0.26,1.1-1.49,1.62-2.45,1.6
		c-2.09-0.05-4.29,0.19-6.14-1.25c-0.54-0.42-0.99-0.82-0.98-1.52c0.05-2.47,0.12-4.94,0.23-7.4c0.02-0.36,0.28-0.72,0.41-1.02
		C341.37,772.96,344.78,773.16,348.72,774.09z"/>
	<path class="st0" d="M357.18,64.69c2.48,0.3,4.79,1.2,7.09,2.1c1.45,0.57,2.45,1.69,2.63,3.16c0.3,2.42,0.68,4.82,1.71,7.48
		c-2.17-1.22-3.98-2.14-5.41-3.7c-1.96-2.14-4.4-3.68-6.95-5.04c-1.28-0.68-2.66-1.06-4.13-1.16c0.89-1.41,2.3-1.84,5.19-1.61
		c0.64-0.44-0.44-0.78-0.07-1.21L357.18,64.69z"/>
	<path class="st0" d="M588.27,444.64c-0.65-0.53-1-0.97-0.94-1.72c0.35-4.31,0.24-8.62,0.07-12.94c-0.01-0.15,0.09-0.3,0.18-0.6
		c1.29,0.59,1.85,1.51,1.87,2.91C589.53,436.37,589.25,440.41,588.27,444.64z"/>
	<path class="st0" d="M349.8,65.23c-0.08,0.21-0.09,0.49-0.24,0.61c-2.17,1.78-4.07,3.78-5.22,6.63c-1-1.23-0.75-2.38-0.3-3.43
		c0.27-0.63,0.77-1.26,1.34-1.65c1.36-0.94,2.78-1.81,4.46-2.11L349.8,65.23z"/>
	<path class="st0" d="M577.14,442.57c2.7,0.3,4.92,0.54,6.46,0.71C582.05,443.32,579.77,443.79,577.14,442.57z"/>
	<path class="st0" d="M348.22,70.54c1.94-1.31,4.06-1.13,6.22-0.67c-2.03,0.44-4.14,0.1-6.16,0.6L348.22,70.54z"/>
	<path class="st0" d="M331.09,72.02c2.59-0.04,3.05,0.25,3.8,2.41l0.05-0.06c-1.27-0.8-2.54-1.6-3.81-2.4L331.09,72.02z"/>
	<path class="st0" d="M319.11,14.4c0.47,0.13,0.6,0.48,0.52,0.91c-0.02,0.12-0.17,0.28-0.29,0.31c-0.26,0.05-0.5-0.1-0.47-0.37
		c0.04-0.3,0.19-0.58,0.3-0.87L319.11,14.4z"/>
	<path class="st0" d="M515.04,365.19c0.5,0.27,1.08,0.43,1.34,1.02l0.07-0.07c-0.74,0.14-1.16-0.21-1.35-0.9L515.04,365.19z"/>
	<path class="st0" d="M518.36,367.69c0.61,0.11,1.03,0.54,1.51,0.87l0.08-0.06c-0.75,0.13-1.2-0.25-1.52-0.87L518.36,367.69z"/>
	<path class="st0" d="M489.03,404.69c0.58-0.14,1.1,0.05,1.61,0.27l0.07-0.06c-0.59,0.21-1.18,0.38-1.63-0.28L489.03,404.69z"/>
	<path class="st0" d="M510.66,411.78c-0.34-0.03-0.72,0.15-1.02-0.2c0.43-0.24,0.73-0.11,0.96,0.27L510.66,411.78z"/>
	<path class="st0" d="M339.27,24.94c0.52,0.73,0.52,0.73-0.48,0.94l0.04,0.05c0-0.18,0-0.36-0.01-0.54c0,0-0.05,0.07-0.05,0.07
		c0.19-0.19,0.38-0.37,0.57-0.56L339.27,24.94z"/>
	<path class="st0" d="M414.56,511.61c0,0.5,0.18,1.15-0.75,0.91c-0.02-0.58,0.61-0.59,0.8-0.97L414.56,511.61z"/>
	<path class="st0" d="M487.83,404c0.27,0.46,1.07-0.02,1.2,0.69l0.06-0.07c-0.46-0.07-1,0-1.22-0.58L487.83,404z"/>
	<path class="st0" d="M244.4,486.03c0.11,0.38,0.21,0.76,0.32,1.15l0.06-0.06c-0.69-0.2-0.33-0.74-0.36-1.15L244.4,486.03z"/>
	<path class="st0" d="M349.85,65.28c0-0.26,0.31-0.44,0.36-0.33c0.2,0.47-0.18,0.3-0.4,0.28L349.85,65.28z"/>
	<path class="st0" d="M533.03,377.15c-0.46-0.12-0.92-0.24-1.38-0.36l0.06,0.05c0.41,0.17,0.79,0.48,1.29,0.29L533.03,377.15z"/>
	<path class="st0" d="M517.94,367.01c-0.39,0.06-0.8,0.21-1.06-0.26l-0.05,0.06c0.42-0.15,0.75,0.05,1.07,0.27L517.94,367.01z"/>
	<path class="st0" d="M464.11,391.06c-0.36-0.1-0.71-0.19-1.07-0.29l0.05,0.06c0.36,0.1,0.71,0.19,1.07,0.29L464.11,391.06z"/>
	<path class="st0" d="M465.5,392.27c0.32,0.14,0.63,0.28,0.95,0.41l0.03,0.07c-0.35-0.18-0.69-0.36-1.04-0.54L465.5,392.27z"/>
	<path class="st0" d="M472.45,396.75c0.19-0.05,0.33-0.32,0.58-0.12c-0.18,0.04-0.37,0.07-0.55,0.11L472.45,396.75z"/>
	<path class="st0" d="M487.87,404.04c-0.12,0-0.24-0.01-0.36-0.01c0.05,0.03,0.1,0.08,0.15,0.08c0.06-0.01,0.12-0.07,0.17-0.11
		L487.87,404.04z"/>
	<path class="st0" d="M510.6,411.85c0.14,0.03,0.32,0.02,0.42,0.1c0.12,0.1,0.02,0.24-0.16,0.18c-0.09-0.03-0.13-0.23-0.19-0.35
		L510.6,411.85z"/>
	<path class="st0" d="M532.32,418.48c-0.2-0.01-0.41-0.02-0.61-0.03c0.04-0.09,0.07-0.24,0.11-0.25c0.23-0.02,0.4,0.08,0.45,0.33
		L532.32,418.48z"/>
	<path class="st0" d="M561.85,436.96c0.49-0.19,0.89-0.03,1.26,0.3l-0.06-0.06c-0.43,0.09-0.8-0.03-1.14-0.29L561.85,436.96z"/>
	<path class="st0" d="M608.18,461.15c-0.15-0.02-0.3-0.03-0.17-0.02c-0.1-0.04,0.06,0.02,0.22,0.09L608.18,461.15z"/>
	<path class="st0" d="M338.79,25.88c-0.08,0.12-0.16,0.32-0.25,0.33c-0.18,0.01-0.26-0.15-0.2-0.34c0,0-0.05,0.06-0.05,0.06
		c0.18,0,0.36,0,0.55,0L338.79,25.88z"/>
	<path class="st0" d="M337.2,26.55c0.06,0,0.12,0,0.19,0c-0.08-0.17-0.12-0.16-0.12,0.05L337.2,26.55z"/>
	<path class="st0" d="M397.9,44.73c0.14-0.12,0.04-0.22-0.02-0.13c-0.18,0.26,0.4,0.08,0.08,0.08L397.9,44.73z"/>
	<polygon class="st0" points="357.24,64.72 357.04,64.72 357.18,64.69 	"/>
	<path class="st0" d="M446.62,445.26c0.12,0.01,0.23,0.02,0.19,0.01c0.03,0-0.11-0.02-0.24-0.03L446.62,445.26z"/>
	<path class="st0" d="M563.11,437.25c-0.04,0.02-0.08,0.04-0.12,0.06c0.17,0.06,0.19,0.02,0.06-0.12L563.11,437.25z"/>
	<path class="st0" d="M561.5,436.32c0.43,0.04,0.51,0.27,0.34,0.63l0.05-0.05c-0.2-0.16-0.44-0.3-0.35-0.62L561.5,436.32z"/>
	<path class="st0" d="M438.14,436.36c0.22-0.11,0.44-0.23,0.66-0.34c0,0,0.06-0.06,0.06-0.06c-0.26,0.11-0.52,0.23-0.77,0.34
		L438.14,436.36z"/>
	<path class="st0" d="M438.79,436.02c0.01-0.06,0.01-0.12,0.02-0.18c-0.17,0.04-0.16,0.08,0.04,0.12L438.79,436.02z"/>
	<path class="st0" d="M555.74,431.53c0.34-0.02,0.52,0.12,0.48,0.48c0,0,0.04-0.04,0.04-0.04c-0.34,0.02-0.5-0.14-0.47-0.49
		L555.74,431.53z"/>
	<path class="st0" d="M555.79,431.49c-0.34,0.02-0.51-0.13-0.48-0.48l-0.05,0.05c0.35-0.02,0.5,0.14,0.48,0.48
		C555.74,431.53,555.79,431.49,555.79,431.49z"/>
	<path class="st0" d="M555.31,431c-0.32,0.05-0.45-0.12-0.48-0.41l-0.05,0.06c0.37-0.11,0.49,0.07,0.48,0.4
		C555.27,431.05,555.31,431,555.31,431z"/>
	<path class="st0" d="M554.83,430.59c-0.21-0.16-0.41-0.33-0.62-0.49l0.06,0.06c0.17,0.16,0.34,0.33,0.52,0.49L554.83,430.59z"/>
	<path class="st0" d="M554.21,430.11c0.25-0.2,0.27,0.18,0.09-0.08c-0.07-0.11-0.17,0-0.03,0.13L554.21,430.11z"/>
	<path class="st0" d="M550.59,425.14c0.01-0.02,0.03-0.04,0.04-0.06L550.59,425.14z"/>
	<path class="st0" d="M608.24,461.22c-0.3,0.12-0.18-0.26-0.11,0.05c0.02,0.11,0.15,0.05,0.05-0.12L608.24,461.22z"/>
	<path class="st0" d="M447.2,444.04c0.1,0.05,0.2,0.1,0.29,0.15c-0.05-0.01-0.11,0.01-0.13-0.02c-0.04-0.05-0.07-0.13-0.1-0.19
		C447.27,443.97,447.2,444.04,447.2,444.04z"/>
	<path class="st0" d="M466.45,392.69c0.2,0.25-0.17,0.26,0.1,0.11c0.15-0.08,0.07-0.2-0.07-0.04L466.45,392.69z"/>
	<path class="st0" d="M465.45,392.22c0.02,0.02,0.04,0.04,0.05,0.06L465.45,392.22z"/>
	<path class="st0" d="M464.17,391.12c-0.02-0.02-0.04-0.04-0.05-0.06L464.17,391.12z"/>
	<path class="st0" d="M463.04,390.78c0.03-0.04,0.05-0.08,0.08-0.12c-0.16,0-0.17,0.06-0.02,0.17L463.04,390.78z"/>
	<path class="st0" d="M461.6,389.79c0.25,0.2-0.17,0.22,0.11,0.08c0.12-0.06,0.05-0.16-0.06-0.02L461.6,389.79z"/>
	<path class="st0" d="M540.1,381.47c-0.29,0.13-0.14-0.25-0.12,0.06c0.01,0.1,0.13,0.05,0.06-0.13L540.1,381.47z"/>
	<path class="st0" d="M531.64,376.79c0.03-0.03,0.07-0.06,0.1-0.09c-0.18-0.02-0.2,0.03-0.04,0.14L531.64,376.79z"/>
	<path class="st0" d="M522.79,370.54c-0.29,0.13-0.21-0.25-0.1,0.05c0.04,0.11,0.16,0.04,0.04-0.11L522.79,370.54z"/>
	<path class="st0" d="M244.72,487.18c0.07,0.03,0.14,0.05,0.19,0.09c0.02,0.02,0,0.1,0,0.15c-0.15-0.01-0.19-0.1-0.14-0.29
		L244.72,487.18z"/>
	<path class="st0" d="M236.08,493.47c0.17-0.26,0.34-0.15,0.51-0.01c0,0,0.02-0.06,0.02-0.06c-0.19,0-0.38,0-0.57,0.01
		C236.04,493.4,236.08,493.47,236.08,493.47z"/>
	<path class="st0" d="M517.89,367.08c0.16,0.2,0.31,0.41,0.47,0.61l0.07-0.06c-0.36-0.05-0.46-0.31-0.49-0.62L517.89,367.08z"/>
	<path class="st0" d="M516.37,366.21c0.28,0.1,0.49,0.25,0.45,0.59l0.05-0.06c-0.3-0.09-0.42-0.31-0.44-0.6L516.37,366.21z"/>
	<path class="st0" d="M515.09,365.24c-0.04-0.03-0.09-0.07-0.13-0.1c-0.09,0.15-0.06,0.17,0.07,0.05L515.09,365.24z"/>
	<path class="st0" d="M448.58,498.09c0.06,0,0.14-0.02,0.18,0c0.27,0.16,0.24-0.24,0.07,0.03c-0.02,0.03-0.2-0.05-0.31-0.08
		L448.58,498.09z"/>
	<path class="st0" d="M429.16,503.95c-0.03,0.03-0.06,0.06-0.09,0.09c0.16,0.02,0.17-0.03,0.03-0.14L429.16,503.95z"/>
	<path class="st0" d="M414.62,511.55c0.2,0.25-0.18,0.27,0.07,0.09c0.1-0.07-0.01-0.17-0.13-0.03L414.62,511.55z"/>
	<path class="st0" d="M334.89,74.43l0.05-0.06L334.89,74.43z"/>
	<path class="st0" d="M348.27,70.46c-0.01,0.06-0.01,0.12-0.02,0.18c0.18-0.09,0.17-0.12-0.04-0.11L348.27,70.46z"/>
	<path class="st0" d="M273.08,446.91c-0.56-0.13-1.05-0.34-1.03-1.04C272.7,445.91,273.05,446.25,273.08,446.91z"/>
	<path class="st0" d="M270.69,444.52c-0.57-0.13-0.95-0.44-1.05-1.05C270.35,443.46,270.65,443.85,270.69,444.52z"/>
	<path class="st0" d="M271.65,445.47c-0.36-0.02-0.55-0.21-0.57-0.57C271.47,444.89,271.64,445.1,271.65,445.47z"/>
	<path class="st0" d="M272.13,445.95c-0.37-0.01-0.54-0.22-0.57-0.57C271.92,445.4,272.1,445.61,272.13,445.95z"/>
	<path class="st0" d="M273.57,447.4c-0.19-0.19-0.38-0.38-0.57-0.57C273.3,446.9,273.52,447.07,273.57,447.4z"/>
	<polygon class="st0" points="257.99,461.59 258.11,461.67 257.94,461.62 	"/>
	<path class="st0" d="M271.17,444.99c-0.36-0.02-0.55-0.21-0.57-0.57C270.97,444.43,271.18,444.6,271.17,444.99z"/>
	<path class="st0" d="M353.65,493.01c-0.1-0.12-0.28-0.23-0.29-0.35c-0.21-1.88-0.4-3.77-0.49-5.67c0.36,2.01,1.13,3.97,0.72,6.08
		L353.65,493.01z"/>
	<path class="st0" d="M356.3,496.14c0.34,1.64,0.2,3.21,0.18,4.84c-0.54-0.14-0.38-0.49-0.39-0.72
		C356.04,498.91,355.99,497.56,356.3,496.14z"/>
	<path class="st0" d="M351.76,474.22c0.07-0.34,0.3-0.54,0.68-0.73c0.78,0.37,0.69,1.04,0.56,2c-0.22-0.9-0.56-1.35-1.3-1.32
		L351.76,474.22z"/>
	<path class="st0" d="M353.42,477.72c-0.03-0.16-0.07-0.33-0.09-0.5c0-0.03,0.08-0.06,0.12-0.09c0.02,0.19,0.05,0.38,0.07,0.57
		C353.49,477.71,353.45,477.71,353.42,477.72z"/>
	<path class="st0" d="M351.7,474.17c0.11,0.21,0.07,0.41-0.09,0.57c-0.01,0.01-0.23-0.1-0.23-0.16c-0.02-0.26,0.13-0.37,0.38-0.36
		L351.7,474.17z"/>
	<path class="st0" d="M419.01,467.53c-0.19,0-0.37,0-0.56,0.01c0.05-0.13,0.08-0.34,0.16-0.37
		C418.88,467.09,418.95,467.33,419.01,467.53z"/>
	<path class="st0" d="M413.59,453.99c-0.02-0.02-0.03-0.04-0.05-0.06L413.59,453.99z"/>
	<path class="st0" d="M269.62,445.49c0.08-0.31,0.29,0.07,0.03-0.12c-0.01-0.01-0.06,0.04-0.09,0.07c0.03,0.03,0.07,0.06,0.1,0.1
		L269.62,445.49z"/>
	<path class="st0" d="M438.2,441.07c0,0.19,0,0.37,0,0.56c-0.35,0-0.7,0-1.04,0C437.31,441.08,437.77,441.09,438.2,441.07z"/>
</g>
</svg>
