<?xml version="1.0" encoding="utf-8"?>
<!-- Generator: Adobe Illustrator 24.1.2, SVG Export Plug-In . SVG Version: 6.00 Build 0)  -->
<svg version="1.1" id="Layer_1" xmlns="http://www.w3.org/2000/svg" xmlns:xlink="http://www.w3.org/1999/xlink" x="0px" y="0px"
	 viewBox="0 0 830.64 702.89" style="enable-background:new 0 0 830.64 702.89;" xml:space="preserve">
<style type="text/css">
	.st0{fill:#1A1A1A;}
</style>
<g>
	<path d="M443.98,576.36c-0.45,0.98-0.78,1.74-1.64,2.07c-0.33,0.2-0.46,0.02-0.66-0.38c-1.73-3.51-3.64-6.89-5.96-10.1
		c-4.94-6.84-7.68-14.64-8.54-23.04c-0.05-0.5-0.06-0.88-0.38-1.23c-0.11-0.12-0.23-0.24-0.38-0.41
		c-8.25,1.97-16.18-0.47-23.94-2.63c-3.51-0.98-5.54-0.27-7.14,2.23c-1.36,2.14-3.17,3.78-4.76,5.67c-2.59,3.09-2.01,4.88-0.31,8.39
		c3.01,6.19,6.82,12.09,8.3,18.93c1.09,4.99,1.73,9.82,0.44,15.18c-0.94,3.9-2.87,6.41-5.51,8.31c-7.8,5.58-13.44,13.26-19.57,20.3
		c-10.83,12.43-19.43,26.67-29.92,39.43c-1.54,1.88-2.34,5.03-4.23,5.82c-4.43,1.86-5.19,5.95-7.29,9.28
		c-0.77,1.21,0.01,1.64,0.52,2.35c-6.87,3.21-14.57,2.37-21.63,4.45c-5.81,1.72-11.87-0.18-17.56,1.9c-1.4,0.51-2.68-0.51-3.7-1.07
		c-3.22-1.77-6.74-1.46-10.12-1.79c-2.98-0.29-5.69-0.44-8.33-2.35c-2.34-1.69-5.48-0.14-8.3-0.42c-4.04-0.4-7.69-0.42-9.49-4.78
		c-1.59-3.86-0.19-10.08,2.69-13.04c0.97-0.99,2.11-1.73,3.27-2.14c6.51-2.36,10.39-8.96,17.35-10.6c2.36-0.56,4.61-1.68,7.08-1.74
		c3.16-0.08,6.54,0.67,8.56-3.9c0.59,2.41-1.61,2.87-0.98,4.22c0.52,0.74,0.92,0.02,1.1-0.23c3.82-5.44,7.92-10.59,9.91-17.25
		c1.91-6.36,3.71-12.84,6.71-18.86c2.58-5.18-0.15-10.34-0.18-15.51c-0.04-7.19-5.74-11.07-10.06-15.36
		c-4.03-3.99-7.22-8.52-10.56-12.94c-6.2-8.19-10.36-17.56-14.11-27.08c-1.51-3.84-1.78-7.98-2.81-11.92
		c-0.64-2.45-0.55-5.13-1.84-7.37c-1.16-2.02,0.62-3.73,0.26-5.64c-1.74-9.27-2.64-18.56-0.7-27.94c0.36-1.74,0.05-3.61-0.5-5.46
		c-0.61,2.81-1.22,5.63-1.84,8.44c-0.58-6.74,1.64-13.02,2.92-20.13c-14.61-7.23-19.27-19.54-14.97-35.8
		c-0.38,0.03-0.75,0.06-1.13,0.08c-1.29,1.21-3.18,2.19-3.75,3.68c-1.15,3.02-3.58,1.56-5.15,1.59c-1.61,0.03-1.5-2.17-1.52-3.68
		c-0.04-3.85,1.06-7.52,2.59-10.88c2.5-5.48,4.98-11.01,8.39-16.1c-1.18-1.52-3.01-1.96-4.53-2.76
		c-15.73-8.28-26.95-20.38-34.73-36.59c-4.76-9.91-9.24-19.82-12.68-30.22c-0.92-2.77-1.46-5.67-2.16-8.5
		c-0.87-3.52-1.95-7.1-5.09-9.7c-4.61-3.8-8.19-8.72-10.69-13.99c-1.47-3.08-4.4-7.29-0.19-10.97c-1.54-3.96,0.82-7.54,1.21-11.31
		c0.5-4.83,1.05-10.08,3.83-13.94c2.3-3.2,4.43-6.55,6.76-9.8c1.64,0.05,2.03,1.13,2.34,2.56c0.55,2.53,1.37,5,2.01,7.52
		c1.21,4.76,4.08,7.86,8.14,10.8c5.15,3.73,8.21,9.61,11.37,15.37c5.02,0.34,7.37-5.11,11.96-6.33c2.14-0.57,4.28-1.35,6.16-2.86
		c1.99-1.59,4.47-1.94,6.6,0.04c0.99-1.8,0.83-3.16,0.61-4.44c-1.67-9.43,1.09-17.65,6.85-25c2.06-2.63,4.71-4.44,8.09-5.31
		c1.52-0.39,3.77-0.09,3.82-2.75c4.05,2.54,4.52,5.62,4.51,9.61c-0.02,8.49,0.27,17.18,5.38,24.56c2.79,4.03,5.33,8.13,6.77,12.82
		c0.67,2.17,1.67,4.43,1.58,6.6c-0.32,7.7,4.73,11.28,10.09,14.78c2.61-1.78,3.28-3.38,2.49-6.46c-1.81-7.09,0.33-14.14,2.82-20.64
		c1.48-3.88,1.2-7.5,0.43-10.82c-1.21-5.29-0.08-10.11,1.28-14.87c1.87-6.52,3.61-12.93,3.04-19.82c-0.3-3.68-0.04-7.28,2.75-10.39
		c1.42-1.58-0.38-4.2,0.33-6.03c2.54-6.54,1.84-13.64,3.83-20.26c0.98-3.27,0.61-7.42-0.41-10.74c-3.59-11.65-4.1-23.14,1.47-34.44
		c1.78-3.61,5.03-5.88,7.26-9.4c-2.42,0.52-2.14-2.47-4.04-3.11c-6.31,1.83-12.86,2.06-19.45,1.88c-1.55-0.04-3.05-0.06-3.68-1.81
		c-0.5-1.38,0.26-2.22,3.14-3.63c-0.87-1.29-2.5,0.05-3.56-1.17c7.23-1.8,14.22-4.03,21.03-6.68c0.34-2.04,0.94-4.19-0.21-5.53
		c-1.87-2.18,3.09-2.45,0.89-4.33c1.6-5.11,0.46-10.67,2.62-15.68c0.65-1.5,1.15-3.09,2.47-4.17c1.47-1.2,3.21-0.49,3.69,1.45
		c0.07,0.29,0.05,0.6,0.07,0.9c2.57-1.02,3.13,1.36,4.15,2.65c1.08,1.37,1.75,3.07,2.79,4.97c1.81-2.2,1.96-4.69,3.09-6.72
		c3.53-6.36,6.77-12.75,11.47-18.53c3.68-4.52,6.91-9.48,10.71-14.02c2.07-2.47,4.6-2.93,7.09-3.6c2.46-0.66,4.04,1.11,4.39,3.57
		c0.21,1.47,0.04,2.99,0.04,5.56c6.01-8.6,12.53-15.48,19.33-22.14c8.73-8.54,18.88-15.28,28.25-23
		c9.47-7.8,18.76-15.76,25.44-26.25c2.28-3.58,5.24-6.68,7.25-10.46c0.8-1.5,2.31-2.3,3.83-2.99c1.91-0.86,3.54-0.34,3.75,1.7
		c0.23,2.31,0.97,4.42,0.43,7.09c-1.26,6.23-2.06,12.61-2.38,19.03c-0.2,4.04-0.71,8.28-2.17,12.01
		c-3.21,8.17-3.95,17.01-7.56,25.09c-1.94,4.35-5.01,7.93-6.97,12.38c3.18,2.35,4.6,5.91,6.4,9.32c3.9-1.17,3.92-6.85,8.47-7.05
		c3.11,3.12,1.91,6.61,0.74,10.34c3.78-0.16,6.12-2.72,8.35-4.54c5.45-4.44,12.18-5.61,18.43-7.3c4.08-1.1,8.07-2.69,12.25-3.57
		c9.88-2.08,19.85-3.9,29.61-6.37c10.08-2.55,19.7-6.84,29.3-10.94c5.99-2.56,12.12-4.9,17.29-9.08c1.39-1.13,3.59-0.14,5.01-1.73
		c3.18,9.65-1.56,17.13-5.93,24.42c-8.32,13.86-20.4,23.73-34.41,31.55c-7.39,4.13-15.21,7.22-22.94,10.79
		c4.67,0.66,9.18-0.73,13.75-1.01c1.72-0.11,3.58-0.66,5.35-0.52c7.65,0.59,15.32-0.44,22.75-1.44c5.17-0.7,10.52-3.47,15.48-6.1
		c2.23-1.18,4.36-3.15,7.49-2.23c1.42,4.16-1.18,7.5-2.63,11.01c-3.47,8.39-5.6,17.31-11.34,24.77
		c-5.31,6.9-10.38,13.79-18.99,16.88c-1.04,0.37-1.96,1.16-2.86,1.84c-0.51,0.38-0.89,0.95-1.35,1.47
		c5.35,2.27,6.69,1.84,11.03,0.79c4-0.97,6.65-3.42,9.42-6.35c1.5,7.89-2.81,15.36-14.73,22.86c13.16,10.47,16.34,24.62,14.62,40.28
		c0.46,0.2,0.6,0.32,0.72,0.31c0.81-0.09,0.17-1.26,1.37-1.32c-0.88,7.11-1.48,14.22-4.09,21.04c-0.63,1.65-2.05,1.39-2.92,2.36
		c-2.52,2.83-0.79,5.87-0.82,8.8c-0.02,1.95,1.21,3.71,1.06,5.78c-0.13,1.79,1.96,0.74,2.74,2.05c-2.67,2.01-0.95,4.24-0.03,6.7
		c1.12,2.98,2.81,5.19,5.79,6.27c2.56,0.93,5.19,1.7,7.68,3.02c-1.94,0.11-3.88,0.22-5.92,0.34c0.7,1.63,1.56,2.79,3.32,2.81
		c5.61,0.07,10.35,3.97,16.17,3.53c1.68-0.13,3.91,0.76,4.81,3.07c-1.49,2.61-4.33,3.46-6.98,3.32c-11.1-0.59-22.34-0.57-32.73-5.44
		c-0.47-0.22-0.86-0.44-1.43-0.1c1.67,3.23,3.43,6.44,5.01,9.73c2.52,5.24,3.91,10.61,3.37,16.62c-0.42,4.65,2.23,8.98,3.03,13.55
		c1.49,8.47,2.25,16.91-0.74,25.31c-1.02,2.87-3.97,4.61-3.84,8.08c-1.61-0.37-2.81-0.64-4.18-0.95c0.08-2.49-1.26-4.56-1.6-7.5
		c-1.1,2.67-0.03,4.94-0.98,7.07c-2.09-5.18-0.82-11.36-5.45-16.47c0.1,4.84-0.52,9.31-3,12.13c-2.48,2.82-3.67,6.07-5.61,9.02
		c-2.28,3.46-5.09,6.44-7.78,8.68c-5.85-1.73-8.09,3.47-12.11,4.39c0.08,0.33,0.16,0.67,0.23,1c4.08,0,8.21-0.38,12.24,0.08
		c7.55,0.87,14.8-0.5,22.2-1.61c4.8-0.72,9.06-2.9,13.82-3.56c4.82-0.67,9.64-1.75,14.27-3.24c2.07-0.67,3.71-2.43,5.36-4.43
		c6.21-7.54,12.52-16.01,22.37-18.47c7.39-1.85,14.41-5.57,22.42-5.29c2.36,0.08,4.7-2.04,7.19-2.89
		c6.89-2.34,13.93-3.29,21.19-3.68c10.98-0.58,21.91-2.14,32.89-2.61c3.13-0.13,6.48,0.72,9.77,0.71
		c23.86-0.08,46.82,4.71,68.94,13.39c5.18,2.03,10.78,4.27,13.17,10.24c-2.31,2.68-5.47,0.53-8.12,1.72
		c3.37,3.29,7.38,5.52,10.88,8.43c9.76,8.13,16.17,18.68,23.04,29.06c9.51,14.37,13.81,30.86,19.93,46.59
		c1.94,4.99,3.55,10.58,3.42,16.19c-0.05,2.28,1.73,3.4,2.25,5.35c0.93,3.52,1.64,7.28,1.57,10.61c-0.25,11.8,2.84,23.33,2.27,35.1
		c-0.04,0.82,0.14,1.67-0.69,2.77c-0.32-6.03-1.93-11.59-1.92-17.47c-1.46,6.42-3.04,12.82-4.35,19.27
		c-2.72,13.42-6.2,26.54-12.49,38.87c-3.4,6.66-5.86,13.8-9.39,20.45c-3.83,7.21-7.56,14.49-11.36,21.71
		c-3.63,6.9-4.98,14.47-7.54,21.66c-1.1,3.08-0.74,6.82,1.93,9.79c2.17,2.42,3.93,5.22,5.92,7.81c1.13,1.47,2.1,2.91,0.7,4.73
		c-4.93-1.65-8.34-5.84-9.86-11.42c-0.78-2.87-0.14-6.84-4.8-7.43c-1.02-0.13-1.25-1.49-1.12-2.53c0.25-1.93-0.86-3.41-1.61-5.62
		c-1.26,8.17-2.44,15.77-7.23,22.29c-3.18,4.33-6.75,8.3-11.33,10.84c-5.81,3.21-11.51,6.85-18.07,8.52c-1.98,0.5-3.91,2-6.09,0.36
		c-1.04-0.78-1.86,0.35-2.67,0.73c-8.2,3.89-16.88,5.79-25.83,7.06c-5.77,0.82-11.59,1.86-16.99,4.29
		c-1.48,0.66-3.04,1.36-3.94,3.33c3.25-0.26,5.76-2.69,9.81-2.66c-7.13,4.71-15.65,6.45-18.55,15.19c-5.18-1.07-4.23-6.38-7-9.16
		c-6.07,6.4-13.17,11.27-21.04,15.13c-4.58,2.25-9.06,3.46-13.93,1.17c-3.75,7.09,0.58,15.44-2.81,22.61
		c-1.79-0.3-2.33-1.05-2.74-2.02c-2.94-7.04-6.61-13.82-7.96-21.44c-0.43-2.43-1.52-4.54-2.49-6.77c-1.58-3.61-2.3-7.53-1.72-11.7
		c0.72-5.21-0.18-10.54,1.07-15.79c0.43-1.8,1.98-3.61,0.7-5.89c-9.54-2.61-16.64-8.75-22.73-16.9c1.13-0.32,1.74-0.5,2.68-0.76
		c-0.62-0.9-1.96-1.09-2.09-2.24c0.84-0.99,2.23-0.01,3.14-0.86c-0.4-1.39-1.23-2.49-2.08-3.69c-4.98-7.07-9.65-14.34-12.34-22.65
		c-0.39-1.19-1.21-2.54-0.26-4.14c0.87-1.47,2.23-1.52,2.74-0.67c1.74,2.9,4.74,4.09,7.23,5.95c5.84,4.35,12.42,4.96,19.45,3.97
		c13.17-1.85,24.93-7.4,36.56-13.37c6.86-3.52,12.6-8.64,18.76-13.23c-2.51-3.27-6.21-1.5-9.2-2.39c-3.56-1.05-5.18-3.98-7.8-5.81
		c-2.35-1.64-3.5-5-5.15-7.62c-2.33-3.68-2.4-6.13-0.26-8.44c4.59,5.92,10.09,10.39,17.99,11.02c-2.05-1-4.28-1.76-6.11-3.06
		c-1.96-1.39-3.61-3.26-4.23-6.74c3.94,3.19,6.58,6.67,11.09,7.86c8.95,2.37,14.89,1.37,19.17-4.33c2.52-3.35,4.06-7.39,5.22-11.27
		c2.31-7.74,4.92-15.43,5.95-23.54c0.74-5.83,1.62-11.64,2.23-17.5c0.95,10.96-1.21,21.59-3.85,32.89
		c4.81-4.27,4.17-9.78,5.06-14.38c1.64-8.53,2.47-17.25,2.34-26.04c-0.15-10.9-2.54-21.2-7.35-30.87
		c-2.01-4.04-3.08-8.63-6.36-12.02c-0.25-0.26,0.77-1.34-0.33-1.42c-7.72-0.6-14.33-4.93-22.35-5.47
		c-12.14-0.82-23.32,1.93-34.44,5.51c-8.85,2.85-18.01,5.24-25.86,10.58c-7.24,4.93-14.29,10.14-21.61,14.93
		c-5.02,3.29-9.37,7.51-14.88,10.16c-1.95,0.94-3.45,3.11-4.78,4.98c-2.54,3.58-5.66,6.55-9.28,8.91c-1.2,0.78-0.75,1.55-0.76,2.27
		c-0.08,4.5,0.14,9.01-0.08,13.49c-0.59,12.37-3.57,23.92-9.48,35.08c-4.37,8.25-9.11,16.12-14.3,23.82
		c-2.16,3.21-1.66,6.87-0.22,10.33c0.78,1.85,1.43,3.5,0.42,5.63c-1.35,2.87,0.44,5.83,0.81,8.66c2.15,16.53,6.68,32.51,12.96,47.95
		c1.2,2.94,4.24,4.82,7.28,5.98c8.98,3.43,16.77,7.93,18.79,18.47c1.09,5.71-2.34,10.02-8.12,9.46c-2.04-0.2-3.62,0.13-5.37,1.09
		c-5.51,3.03-11.63,3.95-17.73,5.08c-5.27,0.97-10.57,1.32-15.8,0.81c-9.62-0.94-18.8,1.12-28.06,2.99
		c-5.31,1.07-9.58-1.38-13.35-4.75c-1.56-1.39-1.35-3.97-0.58-5.15c4.09-6.26,2.04-12.77,0.59-18.86
		c-2.87-12.01-5.21-24.26-9.92-35.71c-4.4-10.7-9.18-21.29-15.15-31.28C450.23,586.86,448.18,581.08,443.98,576.36z"/>
</g>
<g>
	<path class="st0" d="M589.77,599.92c0.91-2.01-2.55-1.59-1.68-4.31c6.87,5.39,14.13,9.53,23.09,10.33
		c-1.42-2.53-4.32-1.49-6.03-4.04c3.81,0,7.29,0.05,10.77-0.01c3.37-0.06,6.88,0.68,9.99-1.63c-3.2-1.39-6.11,1.82-9.9,0.06
		c10.1-2.16,19.02-5.92,27.66-10.42c9.9-5.15,18.76-11.88,27.71-18.41c14.32-10.45,21.04-25.92,26.11-42.19
		c1.11-3.56,2.15-7.19,3.31-10.73c3.98-12.1,3.61-24.29,1.33-36.55c-1.25-6.71-2.68-13.41-5.38-19.74
		c-0.29-0.68-0.36-1.64,0.82-2.38c4.2,2.6,6.89,6.79,9.85,10.65c1.01,1.32,1.75,2.72,3.36,3.4c0.96,0.4,1.47,1.17,1.9,2.15
		c3.34,7.63,7.6,14.97,7.11,23.77c1.42-5.16,1.31-10.3-2.36-18.11c-7.53-15.99-17.64-29.92-34.17-37.9
		c-6.06-2.93-12.24-5.36-19.25-5.03c-3.41,0.16-6.8-0.91-10.29-1.01c-11.56-0.32-22.32,2.64-32.85,7.02
		c-12.25,5.09-24.06,11.06-35.22,18.18c-6.32,4.03-12.03,9.01-18.1,13.46c-5.66,4.15-11.42,8.15-17.51,12.48
		c-3.48-9.38-6.29-18.66-10.22-27.58c1.82-2.23,4.76-1.86,7.07-2.97c10.34-4.96,19.82-11.37,29.7-17.1
		c6.67-3.87,13.55-7.27,20.65-10.12c5.44-2.18,10.6-5,16.25-6.7c11.51-3.47,22.52-8.52,34.73-9.69c6.37-0.61,12.69-2.16,19.1-1.8
		c12.84,0.74,25.39,3.16,36.47,10.06c10.79,6.72,18.91,16.14,24.66,27.46c2.66,5.23,5.46,10.42,7.39,16
		c1.87,5.42,2.04,10.89,2.01,16.62c-0.05,12.79-6.89,22.61-12.89,32.84c-6,10.23-10.17,21.09-12.34,32.73
		c-0.94,5.06-2.29,10.1-1.6,15.34c0.8-5.51,2.4-10.78,3.98-16.08c4.82-16.12,13.4-33.74,22.47-48.37c3.54-5.7,6.76-11.57,9.57-17.65
		c1.02-2.21,1.85-4.54,1.52-7.65c2.02,3.85,2.94,10.13,3.07,17.35c0.1,5.91-1.83,11.59-1.97,17.89c1.8-2.28,1.71-4.56,2.09-6.79
		c1.09-6.44,1.83-12.68,1.17-19.42c-1.15-11.71-4.92-22.54-8.14-33.65c-3.11-10.74-9.32-19.61-15.37-29.18
		c4.54,0.28,7.29,3.11,9.89,5.71c8.3,8.3,14.81,17.82,18.48,29.11c0.32,1,0.89,1.92,1.57,3.38c0.64-4.01-1.17-6.94-2.39-9.82
		c-4.44-10.52-10.96-19.75-18.89-27.92c-7.51-7.73-14.94-15.6-23.38-22.35c-3.5-2.8-6.81-5.73-9.66-9.31
		c9.03,3.06,17.76,6.75,26.08,11.48c-4.34-3.82-9.35-6.41-14.45-8.8c-2.15-1.01-4.14-2.04-4.86-4.49c-0.29-1-0.79-1.82-1.68-2.36
		c-9.5-5.76-19.16-11.19-30.29-13.16c-2.61-0.46-4.93-1.16-6.63-3.88c11.84-0.82,23.36,1.36,34.79,1.83c1-1.84,0.38-2.53-1.03-3.32
		c-4.5-2.52-9.51-3.45-14.39-4.59c-14.34-3.34-28.9-4.68-43.64-4.15c-3.42,0.12-6.76-1.54-10.3-0.87c-2.43-6.24,5.05-2.61,5.52-6.57
		c-17.38-1.9-34.31,0.95-51.24,5.04c10.73-10.02,23.35-16.42,37.53-20c-2.74,2.85-6.45,4.52-8.72,8.04
		c12.6-5.99,25.39-11.14,39.53-13.88c-3.99-2-7.38,1.14-11.59-0.15c7.95-1.99,15.21-3.63,22.72-3.49c4.16,0.08,8.09-1.49,12.31-1.09
		c13.89,1.31,28.07,0.69,41.62,4.26c11.76,3.1,24.04,4.45,35.18,9.81c4.02,1.93,7.58,4.34,10.46,8.23
		c-2.99,1.66-5.72-1.77-8.59,0.66c11.52,6.24,20.6,14.9,28.1,25.38c-19.82-17.26-41.12-31.16-69.12-32.86
		c0.6,1.63,0.76,2.17,0.8,2.16c7.37-1.72,14.16,0.75,20.79,3.24c12.59,4.73,24.34,11.14,35.05,19.31
		c8.84,6.74,15.55,15.42,21.56,24.67c4.16,6.41,7.68,13.13,9.99,20.65c-3.22-2.09-3.35-2.01-5.86-6.17
		c-4.34-7.19-9.09-14.12-15.26-19.79c-4.39-4.04-8.73-8.44-14.88-10.1c-1.19-0.32-2.22-0.44-3.7-0.04
		c6.13,3.66,11.64,7.73,16.42,12.75c3.41,3.59,6.79,7.35,9.15,11.54c2.22,3.93,5.31,7.16,7.37,11.24c2.2,4.36,4.27,8.78,6.36,13.19
		c2.1,4.43,3.49,9.14,4.82,13.82c2.6,9.14,4.36,18.41,4.74,27.99c0.23,5.71,1.7,11.37-1,16.86c1.07,22.41-6.62,42.56-16.58,61.94
		c-5.74,11.18-13.59,21.12-20.96,31.3c-2.06,2.84-4.62,5.29-6.32,8.39c14.95-15.12,27.86-31.73,37.45-50.84
		c-1.01,5.98-3.55,11.36-6.38,16.61c-1.32,2.46-2,4.96-2.62,7.71c-0.88,3.88-3.25,7.47-5.22,11.05
		c-5.98,10.87-12.14,21.64-15.82,33.62c-0.79,2.58-0.26,5.51-2.3,7.9c-4.12-5.84-5.99-12.84-9.83-19.04
		c1.1,11.34,1.77,22.5-5.62,32.1c-6.8,8.84-14.76,16.32-25.8,19.95c-1.33-0.78-1.49-1.87-0.08-2.99c2.37-1.89,3.62-4.67,5.64-6.86
		c4.17-4.51,5.31-10.64,8.08-16.04c-5.81,4.68-10.23,10.92-17.13,14.15c-6.94,3.25-14.13,5.68-21.77,6.75
		c5.14,1.21,10.03-0.17,14.68-1.85c4.49-1.62,8.66-4.15,13.13-5.93c-11.15,16.03-28.93,18.27-46.49,22.65
		c1.64-2.38,3.99-2.34,5.2-3.95c-9.84,0.7-17.22,5.12-28.27,16.96c-0.67-13.27,8.81-21.34,15.62-30.76
		c-2.55-1.89-4.77,1.64-8.11-0.7c7.2,0.62,8.17-6.22,12.61-8.28c-1.81-6.94-10-8.17-12.92-14.8c3.69,1.96,8.2-1.26,10.94,2.99
		c0.97-0.79,0.58-1.37,0.07-2.4c1.87-0.77,5.39-0.08,4.5-3.87c-1.42-1.1-3.23-0.13-4.89-0.79c1.17-1.61,3.02-0.07,4.46-1.26
		c-6.27-2.53-12.89-3.86-18.65-7.58c0.51,3.15,2.49,5.25,4.06,7.85c-6.77,0.63-11.81,4.04-16.09,9.07c-0.67-3.56,0.5-8.8,2.97-14.04
		c2.1-4.45,6.51-7.33,8.33-11.84c-1.37-2.72-3.25-3.09-5.7-1.94c-6.76,3.16-13.93,5.68-20.25,9.42c-3.5,2.07-7.24,5.05-10.05,8.79
		c-3.64,4.85-8.79,8.51-12.01,13.81c-0.95,1.56-2.39,1.18-3.46,0.71c-8.97-3.93-18.11-7.57-25.58-14.24
		c-1.82-1.62-3.89-2.97-5.84-4.44C591.06,600.61,590.42,600.27,589.77,599.92z M714.14,628.5c18.06-6.28,34.93-14.5,47.22-29.83
		c-4.82,1.79-7.45,6.26-11.43,9.07c-3.97,2.8-7.54,6.28-12.15,8.09c-3.88,1.53-7.37,3.6-10.84,5.94
		C722.98,624.46,717.92,625.25,714.14,628.5z"/>
	<path class="st0" d="M406.74,287.99c-0.23,0.59-0.78,1.63-0.66,1.71c3.41,2.35,6.89,4.61,12.15,3.86
		c-2.39-2.69-4.62-4.54-6.45-7.58c13.58,3.58,24.82-0.41,34.82-8.89c-0.51-1.34-1.43-1.04-2.19-1.14c-0.76-0.1-1.6,0.2-2.5-0.58
		c3.77-2.86,6.93-6.31,10.36-9.45c5.18-4.75,7.37-11.16,10.27-17.18c2.1-4.36,6.02-7.28,8.43-11.37c0.53-0.9,7.84-0.55,8.68,0.2
		c1.42,1.27,0.93,2.47,0.09,3.94c-6.36,11.12-8.65,23.16-8.24,35.88c0.05,1.56,1.76,4.13-1.49,5.06c-0.66,0.19-0.06,1.08,0.24,1.68
		c4.37,8.64,5.96,18.18,5.88,27.49c-0.07,7.92-2.1,16.16-7.51,22.8c-3.11,3.81-5.88,7.96-10.31,10.37
		c-0.99,1.36,1.07,0.94,0.88,2.04c-4.89,2.4-5.5,6.54-3.93,11.45c0.25,0.77,0.39,1.64,0.32,2.44c-0.8,9.54,2.47,18.47,4.25,27.6
		c1.42,7.29,1.19,14.63,0.4,21.76c-0.54,4.85-0.45,9.77-1.43,14.67c-2.32,11.69-4.07,23.45-11.26,33.44
		c-4.21,5.86-7.16,12.47-11.04,18.47c-4.25,6.56-6.27,13.86-8.67,21.03c-2.12,6.34-2.96,13.12-3.09,19.8
		c-0.1,5.1-2.32,7.83-6.5,10.3c-9.03,5.34-16.92,2.3-24.71-2.52c-2.2-1.36-2.66-4.08-3.85-6.21c-0.43-0.76-0.76-1.43-1.65-1.66
		c-0.48,4.22-0.48,4.22,7.17,14.3c-11.23-0.58-21.44-2.85-29.73-11.27c-9.07-9.2-16-19.88-22.83-30.68
		c-2.85-4.52-6.73-8.17-9.67-12.66c-3.34-5.11-7.01-9.7-8-16.05c-0.51-3.26-2.95-6.17-3.96-9.42c-2.38-7.65-3.35-15.41-2.57-23.54
		c0.58-6.04,0.49-12.15,2.19-18.04c2.92-10.15,5.51-20.43,10.03-30.01c4.41-9.34,9.95-18.03,16.48-25.21
		c-0.09-6.37-2.95-11.09-5.94-15.9c-4.34-6.98-6.68-14.95-8.31-22.87c-1.79-8.7,2.06-16.7,5.66-24.43
		c1.65-3.54,4.02-6.73,5.86-10.18c1.39-2.6,2.56-3.96,6.12-2.75c3.51,1.19,6.92,2.67,11.06,3.46c-1.74,1-3.54,0.88-3.95,3.36
		c9.69,3.73,19.48,4.31,30,0.25c-0.84,3.7-2.35,6.2-4.64,8.32c-5.25,4.85-8.77,10.98-12.4,17.01c-0.67,1.11-1.33,2.17-0.65,3.67
		c4.84,10.56,11.15,20.26,17.61,31.22c6.48-13.27,18.13-20.03,28.92-27.73c0.23-1.04-0.03-1.86-0.77-2.71
		c-6.89-7.87-9.36-17.75-12.42-27.37c-0.49-1.56,0.71-1.02,1.27-1.31C405.3,287.23,406.02,287.61,406.74,287.99z M371.84,351.75
		c5.94,0.8,10.84-2.57,16.12-1.74c5.09,0.79,9.79,3.31,15.73,4.16C393.32,345.97,383.17,344.88,371.84,351.75z"/>
	<path class="st0" d="M406.74,287.99c-0.72-0.38-1.44-0.76-2.16-1.14c-2.36-3.19-6.33-4.92-7.73-9.29
		c-1.34,3.29-2.09,6.32-5.44,7.35c-1.93-1.72,1.13-2.31,0.49-4.33c-4.11,4.09-9.74,2.51-14.51,4.79c-4.01,1.91-8.73,0.52-13.35-0.82
		c3.12-1.35,6.01-2.61,8.9-3.86c-7.45-0.25-13.83-3.48-20.44-6.39c3.65-0.46,7.5,0.4,11.54-1.07c-7.55-3.85-14.48-7.48-21.74-10.53
		c-7.7-3.24-12.64-9.78-16.63-16.91c-1.34-2.38-3.48-4.44-3.44-7.74c6.74-0.68,13.05,3.1,19.84,2.81c0.04-1.28-0.7-1.88-1.34-2.27
		c-7.73-4.75-10.21-12.81-13.15-20.61c-2.91-7.7-5.02-15.56-4.89-23.86c0.03-1.65-1.74-2.95-0.58-5c3.21-0.67,4.58,2.2,5.95,4.02
		c1.4,1.85,2.76,3.75,4.53,5.18c4.7,3.81,7,9.52,11.31,13.71c2.59,2.51,5.85,4.03,8.19,6.79c3.92,4.64,8.93,8.2,13.19,12.47
		c7.49,7.48,13.35,16.11,14.54,27.51c3.67-3.21,3.79-7.11,3.89-11.21c0.1-4.1-0.78-8.09-1.35-13.16c5.42,4.54,10.96,4.44,16.6,4.72
		c2.88,0.14,4.38-0.84,5.5-2.82c3.86-6.78,8.92-12.54,14.33-18.09c4.04-4.14,9.44-5.73,14.41-8.13c1.06-0.51,1.74,0.64,2.5,1.7
		c-2.24,3.25-4.04,6.85-7.07,9.78c-2.82,2.73-6.63,4.37-9.15,8.65c5.29-2.69,9.71-5.52,15.68-7.62c-2.91,3.21-5.09,5.57-6.24,9.02
		c11.42-12.49,26.23-15.37,42.04-14.93c-1.63,2.25-3.52,4.86-5.41,7.47c0.2,0.17,0.41,0.34,0.61,0.51c2.66-2.5,5.32-5.01,8.28-7.79
		c-1.57,13.18-10.9,25.88-30.23,41.62c2.62-0.14,2.62-0.14,5.38-1.52c1.47,0.54,1.39,2.48,2.67,3.17
		c0.11,4.45-17.47,16.07-25.63,17.01c2.22,1.74,2.22,1.75,5.25,1.76c1.96,0.01,3.92,0,6.12,0c-6.15,6.57-15.66,8.34-32.52,2.57
		c1.5,2.94,3.77,5.09,4.82,7.87C407.92,291.54,408.6,286.85,406.74,287.99z M379.77,274.26c3.56-0.54,6.81-0.86,9.78-2.64
		c-6.27,0.03-11.63-3.28-17.8-4.5c1.91,3.27,6.03,2.18,7.92,4.79c-0.95,1.62-3.24,0.55-3.7,2.44c7.27,6.39,13.36,7.39,18.95,2.33
		C389.19,278.39,384.28,278.83,379.77,274.26z M378.21,260.62c-4.33-3.12-7.31-7.8-12.2-10.2c-0.24,4.34,1.34,7.23,5.43,9.9
		c0.32-2.22-3-2.53-2.5-5.33C371.86,257.5,374.59,259.84,378.21,260.62z"/>
	<path class="st0" d="M572.03,278.5c-4.9,2.32-10.07,1.78-15.03,1.03c-5.11-0.77-10.15-2.39-14.76-4.82c-1.9-1-1.74,0.33-2.66,0.99
		c-1,0.72-1.84-2.19-3.95-1.4c0.51,2.86,4.08,4.02,3.68,7.2c-1.71-0.17-2.09-2.48-4.07-2.45c1.83,6.87,7.45,11.56,9.97,17.95
		c2.76,7.01,4.97,14.05,5.59,21.7c0.44,5.44,0.73,10.86,0.84,16.31c0.06,3.05-0.8,5.75-2.64,8.69
		c-2.14-13.55-7.29-24.98-18.15-33.31c1.82,3.84,4.34,7.42,4.76,12.02c-4.71-2.82-3.77-8.65-7.13-12.02
		c-1.83,3.97-1.67,3.93-0.28,9.73c2.69,11.22,2.9,22.21-4.63,31.92c-4.22,5.44-9.52,9.81-15.03,13.91
		c-4.45,3.31-9.15,1.95-13.66,0.54c-3.39-1.06-6.61-2.78-9.74-4.52c-3.01-1.67-4.79-4.72-6.82-7.37c-0.68-0.88-1.23-1.96-2.17-2.43
		c-4.73-2.39-6.56-6.57-7.6-11.52c3.97-2.06,5.79-5.55,7.16-9.55c2.11-6.17,4.72-12.17,4.96-18.82c0.05-1.52,1.24-2.44,2.34-3.03
		c6.17-3.36,10.29-8.68,14.16-14.3c2.39-3.47,4.55-6.96,8.07-9.73c2.77-2.18,4.02-6.11,4.45-10.04c0.68-6.22,1.67-12.41-0.09-18.58
		c-1.32-4.63,2.12-6.44,4.92-8.66c-0.03-1.53-1.82-0.5-2.21-1.55c0.94-1.02,2.62-0.01,3.71-1.65c0.47-0.71,3.65,0,5.4,0.63
		c3.15,1.14,6.12,2.78,9.22,4.08c2.86,1.2,3.45,4.23,5.09,6.34c7.48,9.63,17.05,16.09,28.4,20.13
		C566.71,276.84,569.22,278.03,572.03,278.5z"/>
	<path class="st0" d="M539.78,243.97c-0.52-1.07,1.25-2.62-1.53-3.43c-2.3-0.67-2.26-4.4-3.93-6.56
		c-7.56-9.77-14.02-14.34-27.14-18.33c-0.64-2.68-4.72-0.86-5.12-3.96c-0.15-1.2-1.32-0.62-2.03-0.7c-2.65-0.28-5.06,0.42-7.51,1.85
		c17.49,6.14,33.21,14.19,42.13,31.44c-6.86,0.51-12.47-3.4-18.82-4.39c-6.45-1.01-12.92-1.39-20.31-2.16
		c2.58,2.28,4.94,2.58,7.14,3.34c2.13,0.73,4.25,1.73,4.95,4.19c-2.02,1.69-3.84-0.19-6.53-0.06c4.05,5.19,5.36,10.65,6.13,16.54
		c0.79,6.08-0.32,11.63-1.63,17.96c-1.93-5.58-1.16-5.6-1.32-11.4c-0.12-4.24,0.1-8.89-1.94-12.98
		c-3.27-6.55-5.47-13.77-11.48-18.62c-1.1-0.89-1.17-2.27-1.68-3.63c-5.24,3.04-10.26,1.35-15.32,0.18c2.06-8.61,8-16.52,5.48-26.23
		c-0.76,0.15-1.26,0.12-1.36,0.29c-2.56,4.84-6.55,6.06-11.87,5.77c-6.04-0.33-12,1.56-17.99,2.37c-3,0.41-6.28-0.79-9.2,1.36
		c3.58-7.06,8.68-12.27,15.29-16.07c4.35-2.5,8.67-5.04,13.41-6.82c3.74-1.4,6.86-3.76,9.88-6.63c0.15,5.26-2.88,8.88-6.67,13
		c9.99-3.69,19.66-6.1,29.86-4.84c9.93,1.23,19.84,2.49,29.38,7.69c-7.41,3.34-15.27,2.43-21.29,7.07
		c6.39,1.21,12.34-0.36,18.29-2.07c2.9-0.83,5.67-2.08,8.77-2.27c1.83-0.11,1.81-0.37,2.71-3.33c-11.53-6.44-24.34-8.52-37.88-10.87
		c7.96-4.11,14.4-9.23,20.08-15.44c0.18-1.42-0.8-2.78-2.09-3.7c-8.62,2.5-16.92,1.73-25.22-0.92c9.92-0.73,18.85-3.88,27.35-8.93
		c2.35-1.4,5.63-1.88,8.41-2.98c0.61-0.24,0.97-0.48,1.68-0.03c2.31,1.46,4.82,1.48,7.57,1.65c3.78,0.23,7.18,0.69,10.42-1.67
		c0.15-0.11,1.07-0.8,1.76,0.27c-4.55,8.65-10.41,15.71-21.63,15.96c1.04,1.56,2.33,0.63,3.07,1.4c-0.23,0.99-1.59,0.3-1.81,1.15
		c11.51,5.71,18.89,14.43,21.48,27.34c1.91,9.52,0.39,18.17-4.17,26.51c-1.8,3.3-3.61,6.57-4.02,10.44
		c-0.13,1.22-0.74,2.48-1.86,3.31C541.03,245.36,540.4,244.66,539.78,243.97z"/>
	<path class="st0" d="M416.28,119.51c-0.22,2.77-2.51,4.6-3.9,6.51c-1.57,2.17-1.99,4.42-2.68,6.64
		c-3.23,10.47-6.97,20.68-12.97,29.95c-2.57,3.97-6.03,7.1-9.6,9.98c-2.26,1.83-4.27,3.79-6.59,5.75c0.74-5.6,6.04-9.29,6.87-15.31
		c-2.79,2.08-4.1,4.86-5.85,7.29c-4.5,6.26-9.29,12.37-15.24,17.21c-3.9,3.17-7.02,6.85-10.31,10.5c-1.07,1.19-1.61,2.17-0.94,3.93
		c2.6,6.92,5.03,13.89,10.94,18.88c0.76,0.64,1.38,1.55,2.24,1.95c10.51,4.94,11.52,14.53,12.16,24.31
		c-0.93-2.01-2.19-3.86-2.93-6.01c-0.59-1.73-0.69-4.53-4.05-4.01c-0.69,0.11-1.66-1.48-2.48-2.31
		c-7.78-7.77-15.44-15.67-23.36-23.3c-8.4-8.09-10.45-17.62-8.11-28.8c1.51-7.2,3.8-14.13,5.95-21.12
		c3.11-10.07,8.91-18.67,15.11-27.07c6.81-9.24,15.91-14.66,26.84-17.74c2.67-0.75,6.03-0.36,8.12-3.52
		c1.07-1.61,4.9,0.17,6.64,2.36c0.73,0.92,2.3,1.04,3.34,2.53c-18.05,3.09-30.11,13.86-38.64,29.22
		c11.49-14.44,24.38-26.54,44.41-27.35c0.26,1.23,0.46,2.15,0.8,3.73c0.85-2.26,0.46-3.97,0.54-5.65c-2.11,0.12-4.77,0.93-4.06-2.72
		c0.56-2.88-1.1-3.57-3.28-4.41c-11.56-4.43-23.2-3.98-34.73-0.32c-6.25,1.98-12.82,3.23-18.3,7.5c-1.11,0.86-3.88,1.17-6.13,1.46
		c2.57-1.31,3.72-4.61,6.41-5.1c3.13-0.57,5.48-2.48,8.29-3.53c5.85-2.19,11.68-4.23,18.05-4c1.56,0.06,2.66-1.11,4.22-1.5
		c-1.87-0.97-3.77-0.11-5.6-0.69c0.2-1.53,2.18-0.11,2.43-1.44c-3.66-1.72-7.46,2.83-12.14,0.12c-2.83,1.25-5.38,5.07-10.79,6.34
		c3.87-5.12,7.7-9.1,12.38-11.79c4.82-2.77,10.28-0.65,15.72,0.01c-1.3-2.32-3.43-1.93-5.35-2.75c3.95-3.45,8.86-5.81,13.65-5.02
		c7.77,1.29,13.06,6.66,16.79,15.1c-6.6-3.8-12.14-7.62-18.87-7.06c-0.11,0.38-0.22,0.76-0.33,1.14c1.13,0.5,2.27,0.98,3.39,1.51
		c1.18,0.56,2.35,1.13,3.5,1.74c2.18,1.16,0.61-1.67,1.69-1.56c0.45,0.05,0.89,0.33,1.3,0.56c4.94,2.76,9.5,5.88,11.27,11.86
		c0.76-1.97,1.62-3.69,1.73-5.73c2.34,2.53,1,5.3,0.72,7.91c-0.2,1.83-0.43,3.39,1.83,3.95L416.28,119.51z"/>
	<path class="st0" d="M470.08,130.24c-6.45-9.53-14.08-17.73-24.21-23.46c0.51-0.88,0.95-1.65,1.42-2.47
		c-1.5-0.76-2.41,1.41-3.71,0.55c-0.51-0.06-0.52-0.26-0.32-0.7c1.43-3.23,4.05-5.23,6.83-7.27c4.74-3.48,9.3-7.2,14.55-9.92
		c7.48-3.88,15.81-4.94,23.83-6.92c14.68-3.62,29.47-6.75,43.74-11.9c11.55-4.16,22.74-8.98,32.79-16.13
		c1.04-0.74,2.04-1.34,3.89-1.72c-4.34,11.4-9.06,21.84-18.32,29.89c-3.18,2.77-5.41,6.65-8.92,9.5c-7.4,6.01-15.14,11.5-23.5,15.9
		c-8.5,4.48-16.92,9.24-26,12.59c-2.5,0.92-5.08,1.07-7.59,1.73C478.3,121.57,474.1,125.7,470.08,130.24z"/>
	<path class="st0" d="M547.24,130.45c-8.26,4.42-15.94,9.53-23.04,15.46c-9.43,7.88-18.91,15.54-31.31,18.45
		c-3.83,0.9-7.59,0.71-11.32,0.4c-3.29-0.27-4.96-2.75-4.92-6.25c0.05-4.64-1.08-9-2.24-13.46c-0.89-3.43-1.68-6.97-2.29-10.6
		c2.28-1.31,3.78-3.57,5.84-5.2c5.51-4.35,12.18-5.88,18.8-7.2c10.1-2.02,20.43-2.64,30.65-3.83c10.8-1.26,21.14-3.65,31.36-7.13
		c2.43-0.83,4.46-2.57,7.07-2.89c0.5,3.48-1.71,5.82-3.12,8.59c-5.22,10.25-11.22,19.96-19.21,28.26
		c-3.38,3.51-6.96,7.22-11.19,9.46c-9.29,4.94-18.93,9.4-30.3,9.49C519,154.82,531.64,140.59,547.24,130.45z"/>
	<path class="st0" d="M430.17,74.7c-1.93-1.11-3.76-1.9-6.36,0.91c3.46-0.74,5.44,2.27,8.22,0.48c0.42,1.14-0.78,1.37-0.95,2.24
		c5.25,3.5,6.92,9.29,9.26,14.98c-1.42-5.61,3.81-6.42,6.18-9.55c1.5,4.06-0.06,8.62-5.24,15.93c-1.25,1.76-2.79,2.84-5.54,1.89
		c0.02-11.12-7.22-19.23-13.1-27.63c0.87-1.43,2.79-0.37,2.86-2.53c-2.85,0-5.69,0-8.75,0c-0.24,6.18,6.42,7.64,8.71,12.52
		c-3.26-1.18-6.51-0.73-9.18-2.62c-0.48-0.34-1.57-0.56-1.87-0.28c-4.09,3.72-9.35,1.21-13.97,2.67c-4.45,1.4-8.86,3.26-13.66,3.72
		c-3.08,0.29-5.63,2.38-8.1,4.13c-3.78,2.68-8.87,1.99-12.41,5.3c1.67-6.26,6.17-10.62,9.71-15.48
		c7.33-10.04,15.56-19.61,25.31-27.18c11.71-9.09,22.14-19.39,32.37-29.94c5.26-5.43,9.67-11.69,14.84-18.05
		C445.56,30.13,442.25,53.37,430.17,74.7z"/>
	<path class="st0" d="M416.38,119.64c5.79-5.34,10.61-5.17,17.94-2.88c5.03,1.58,8.12,4.1,10.81,8.12
		c2.66,3.97,4.63,8.25,6.49,12.61c1.13,2.65,1.45,5.63,3.41,7.96c-0.8-7.47-4.56-13.94-7.06-20.9c4.71,5.24,8.4,11.17,10.31,17.9
		c2.28,8.05,4.13,16.3,3.3,24.77c-1.28,13.25-3.88,23.76-15.77,32.47c0.01-2.75,0.31-5.46,1.01-7.57c1.79-5.35-1.56-10.17-0.7-15.27
		c0.11-0.62-0.32-0.85-0.79-0.91c-4.89-0.65-7.33-5.53-12.01-6.78c-4.54-1.21-8.11-4.46-10.79-8.1c-1.57-2.13-1.59-5.4-2.32-8.15
		c-2.61-9.83-2.82-19.86-2.6-29.93c0.03-1.31,0.22-2.74-1.33-3.46L416.38,119.64z"/>
	<path class="st0" d="M383.93,113.01c-1.16,3.29-4.21,2.84-6.38,3.98c-4.93,2.59-10,4.7-13.26,9.68c-1.5,2.29-4.43,3.57-6.16,5.58
		c-3.27,3.79-5.8,8.26-8.4,12.59c-3.36,5.6-4.85,12.15-8.77,17.49c2.27,2.64-1.5,3.43-1.66,5.4c-0.2,2.49-0.64,5.64-1.5,7.22
		c-1.51,2.77-0.58,4.7-0.08,7.02c-2.09,0.1-2.09,0.1-2.09,6.35c0,2.7,0,5.4,0,8.1c-2.31-1.59,0.03-3.73-1.58-5.28
		c-1.92-0.35-1.09,1.58-1.93,2.41c-2.68-4.49-6.25-8.04-11.31-11.1c-1.21,4.57-4.26,8.13-2.27,12.9c0.41,0.99,0.44,2.51-0.03,3.43
		c-1.25,2.4,0.44,4.23,0.57,6.16c0.15,2.24,3.54,4.54,0.32,7.38c-5.93-10.79-8.17-21.8-6.12-33.72c0.64-3.71,1.38-7.39,2.59-10.91
		c0.47-1.35,0.12-3.89,2.93-3.9c0.94,0,0.85-1.28,0.81-2.06c-0.32-5.78,4.6-8.77,6.94-13.13c3.8,0.6,5.21-3.9,8.88-4.01
		c3.38-0.1,6.31-2.24,8.81-4.24c1.52-1.22,3.08-2.1,4.74-3.22c-10.39,2.79-20.67,5.9-31.55,6.54c10.19-6.97,19.76-14.78,31.45-19.47
		C360.31,119.59,372.16,116.47,383.93,113.01z"/>
	<path class="st0" d="M289.13,418.22c-4.5-2.62-2.72-8.32-5.58-11.85c-1.46,1.06-1.11,2.32-0.51,3.32c0.66,1.11,0.35,2.27,0.64,3.36
		c2.16,8.12,1.25,15.97-2.37,23.42c-1.47,3.04-2.22,6.37-4.52,9.18c-1.07,1.31-0.01,4.31-1.06,6.55c-1.34,2.87-1.72,6.17-3.8,9.56
		c-1.02-8.58,0.7-15.69,6.09-22.21c-7.27,3.33-11.21,14.69-8.6,23.61c-3.59-2.09-3.67-2.31-5.84-6.38
		c-2.48-4.66-3.06-9.97-5.08-14.7c-2.7-6.35-0.01-11.25,2.77-16.39c0.53-0.99,0.91-2.06,1.52-3.46c-3.12-0.09-5.47,1.5-8.03,2.14
		c-2.58,0.65-1.8,4.65-4.81,5.14c0.84-6.94,4-12.87,7.66-18.63c1.65-2.59,3.83-3.87,6.88-3.99c6.59-0.26,13.24-0.25,19.53-2.73
		c0.98-0.39,1.9-0.29,2.76,0.44C290.91,408.09,291.82,413.4,289.13,418.22z"/>
	<path class="st0" d="M252.58,320.51c-1.28,6.93-0.04,14.31-6.94,18.97c2.78,0.21,4.25-1.44,5.75-2.51c4.27,1.25,5.47,4.13,5.28,8
		c-0.19,3.83-1.9,6.61-5.51,7.93c-2.17,0.79-4.16,1.91-6.19,2.96c-7.31,3.77-17.02,0.19-19.39-7.13c-1.74-5.37-4.21-10.16-1.37-16.4
		c2.21-4.86,6.04-6.87,9.92-7.83c4.59-1.14,8.64-3.84,13.48-4.14C249.22,320.26,250.76,319.7,252.58,320.51z"/>
	<path class="st0" d="M276.08,306.86c-6-0.13-10.97-2.68-15.41-6.41c-4.32-3.64-7.49-8.29-10.69-12.88c-0.7-1-1.49-2.18-1.35-3.64
		c0.67-6.96,0.89-14.03,5.03-20.11c2.45-3.59,5.83-5.94,9.89-7.65c2.32,3.56,1.38,7.47,1.69,10.83c0.6,6.55,3.16,11.92,6.46,17.2
		C275.96,291.01,278.7,298.09,276.08,306.86z"/>
	<path class="st0" d="M219.18,332.86c-4.1,0.32-4.4-3.46-6.16-5.29c-5.29-5.49-5.33-14.17-0.43-19.98
		c5.26-6.25,12.14-10.19,19.61-13.32c2.62-1.1,4.69-3.38,7.65-4.27c2.9,3.18-2.96,5.4-0.74,8.44c4.01,1.11,5.27,3.46,3.85,7.78
		c-2.28,6.95-6.08,12.55-13.08,15.77C225.03,324.21,220.17,326.82,219.18,332.86z"/>
	<path class="st0" d="M203.78,320.49c-4.54-4.86-9.35-9.51-13.52-14.67c-2.12-2.62-3.09-6.33-2.51-9.77
		c1.47-8.65,2.61-17.42,6.63-25.41c0.28-0.56,0.36-1.29,1.54-1.69c1.29,3.69,1.48,7.72,3.06,11.33c1.94-0.51,3.66,0.23,5.04,1.59
		c4.33,4.29,8.97,8.29,11.93,13.8c1.04,1.94,0.55,2.94-0.89,4.21C208.9,305.29,203.8,311.3,203.78,320.49z"/>
	<path class="st0" d="M514,681.24c2.57-7.3-0.74-13.08-1.4-19.24c-1.09-0.23-1.44,1.52-2.67,1.46c-0.95-1.8,0.42-2.7,1.41-3.8
		c3.55-3.96,8.24-5.77,13.24-6.68c3.99-0.72,7.62,0.28,11.06,2.84c5.54,4.13,8.16,9.71,8.88,16.22c0.53,4.77-1.64,5.66-6.36,7.39
		C530.46,682.25,522.84,679.92,514,681.24z"/>
	<path class="st0" d="M462.07,188.5c2.22-6.69,3.99-13.3,3.49-20.24c-0.36-4.87-0.54-9.98-2.23-14.45
		c-1.01-2.69-1.44-5.51-1.76-8.04c-0.37-2.94-2.25-5.22-2.32-8.3c-0.05-2.13-2.95-4.06-4.09-6.17c-2.97-5.51-7.28-9.73-11.69-13.89
		c-1.64-1.55-3.55-3.39-6.29-2.59c-2,0.58-0.69-1.39-1.59-1.98c-3.14-2.06-6.56-1.95-10.01-1.91c0.13-3.91,5.01-0.12,5.44-3.76
		c2.17,1.64,4.85,1.58,7.13,1.6c6.64,0.06,11.19,4.09,16.18,7.4c6.42,4.25,10.53,10.7,14.2,17.04c2.27,3.91,4.05,8.77,4.08,13.72
		c0.04,6.35,0.57,12.76-0.13,19.04C471.53,174.52,468.06,182.22,462.07,188.5z"/>
	<path class="st0" d="M328.05,676.41c-12.88,2.52-25.15,1.25-37.36,1.42c-6.27,0.09-9.72-5.99-6.2-11.06
		c1.68-2.43,2.09-5.34,4.21-7.64c3.5-3.83,9.27-5.91,14.72-3.08C312.82,660.93,321.07,667.44,328.05,676.41z"/>
	<path class="st0" d="M361.58,77.6c1.16,4.63,3.14,8.36,0.29,12.9c-3.49,5.55-7.14,11.01-9.98,17.05c-1.47,3.13-6.22,5.26-8.05,8.9
		c-1.53,3.03-3.65,5.35-5.88,7.72c-1.4,1.49-3.07,2.2-4.93,2.8C330.69,116.75,348.45,85.79,361.58,77.6z"/>
	<path class="st0" d="M490.99,683.89c-1.57,0-2.74,0.07-3.9-0.01c-4.28-0.29-5.45-1.94-4.51-6.25c1.87-8.6,9.1-15.48,17.55-16.71
		c1.7-0.25,3.25,0.17,4.71,1.04c3.4,2.01,6.56,9.54,5.68,13.54c-1.59,7.19-1.81,7.5-9.17,7.34
		C497.68,682.76,494.28,684.71,490.99,683.89z"/>
	<path class="st0" d="M302.2,280.73c-1.83-1.94-0.46-4.1-0.51-6.11c-0.21-8.22,2.67-15.58,6.95-22.4c1.72-2.75,3.86-5.27,6.02-7.71
		c1.75-1.97,3.84-1.6,5.6,0.49c1.37,1.64,2.43,3.48,3.84,5.11c1.16,1.35,1.45,3.08,0.97,5.38c-1.15,5.48-3.15,9.24-8.71,11.79
		C310.4,270.02,306.19,275.48,302.2,280.73z"/>
	<path class="st0" d="M280.72,676.44c-3.35-0.29-5.94-1.22-8.32-2.63c-1.55-0.92-3.93-2.48-3.51-3.82
		c1.35-4.37-0.98-8.91,1.25-13.19c2.07-3.96,5.41-5.49,9.47-5.87c4.6-0.42,9.16,0.19,13.7,1.31c0.49,1.7-0.78,2.04-1.92,2.75
		c-5.54,3.47-9.77,7.8-11.3,14.62C279.53,672.09,280.68,674,280.72,676.44z"/>
	<path class="st0" d="M330.6,233.72c-2.31,1.38-5.21,1.5-8.2,1.08c0.26-1.45,1.77-0.37,2.47-1.53c-3.45,0-6.76,0-10.23,0
		c0.86,1.59,1.78,3.3,2.7,5c-4.22,3.18-7.54,7.23-11.3,10.82c-1-8.53,3.13-20.02,11.74-32.64c1.38-0.86,2.32,2.38,4.07,0.36
		c0.44-0.51,2.32,1.21,2.31,1.9C324.08,224.81,328.95,228.56,330.6,233.72z"/>
	<path class="st0" d="M589.77,599.92c0.65,0.35,1.29,0.69,1.94,1.04c-0.45,1.65,0.8,2.44,1.76,3.27
		c8.87,7.62,18.72,13.56,29.95,17.06c0.27,0.08,0.44,0.48,0.73,0.81c-2.34,4.53-4.7,9.08-7.15,13.83
		c-6.39-1.37-11.61-4.97-16.9-8.34c-1-0.63-0.59-2.12-0.25-2.98c5.63,0.4,10.17,5.8,16.44,3.03c-3.07-1.32-4.95-4.36-8.53-4.92
		c-1.75-0.28-3.65-1.69-4.84-3.12c-4.55-5.53-9.37-10.9-12.65-17.38C589.89,601.45,589.53,600.78,589.77,599.92z"/>
	<path class="st0" d="M547.65,677.25c2.58-9.24-1-16.52-7.86-22.75c3.37-2.29,6.81-2.3,9.95-0.88c6.46,2.93,11.17,7.5,13.2,14.71
		c0.8,2.82-0.52,5.45-1.78,5.94C556.94,675.94,552.98,679.72,547.65,677.25z"/>
	<path class="st0" d="M424.28,527.38c0.97,3.73,1.87,7.1,0.43,10.74c-0.62,1.56-1.06,2.88-2.84,2.74
		c-7.23-0.55-14.36-1.56-20.82-5.45c4.39,0.16,7.87-2.43,11.79-3.57C416.72,530.74,420.4,528.93,424.28,527.38z"/>
	<path class="st0" d="M433.41,101.68c-2.8,2.53-6.36,2.36-9.69,5.12c0.2-7.35-0.28-13.62-4.3-18.81c3.09-2.44,5.94-2.4,8.8,0.13
		c2.65,2.35,4.29,5.29,4.41,8.95C432.68,98.67,432.28,100.31,433.41,101.68z"/>
	<path class="st0" d="M319.33,113.31c1.85,4.41,3.73,8.38,5.18,12.51c1.43,4.07,0.04,6.79-3.16,7.85c-2.16,0.72-3.94,2.36-6.41,2.69
		C313.85,128.3,314.47,120.58,319.33,113.31z"/>
	<path class="st0" d="M416.42,114.27c0.91-11.58-1.57-20.79-11.53-26.57c5.41-3.06,7.77-1.97,11.91,2.04
		c3.11,3.01,2.89,6.05,2.84,9.5C419.55,104.04,420.55,109.02,416.42,114.27z"/>
	<path class="st0" d="M316.15,271.82c-8.54,13.33-15.23,27.1-19.69,42c2.29-5.85,1.29-12.15,3.08-18
		c2.62-8.57,7.88-15.41,13.17-22.29C313.37,272.66,314.87,272.43,316.15,271.82z"/>
	<path class="st0" d="M653.23,559.69c8.59,2.97,16.06,3.3,22.93,0.32c1.08,0.1,1.16,0.31,0.86,0.73c-5.44,7.77-5.23,9.16-16.29,4.17
		c-1.92-0.87-3.76-1.94-5.58-3.02C654.63,561.59,654.29,560.93,653.23,559.69z"/>
	<path class="st0" d="M381.88,228.56c2.91,0.83,5.72,1.64,8.9,1.6c3.31-0.04,6.67,1.07,9.94,1.95c1.47,0.4,0.81,1.88,0.71,2.97
		C382.05,233.52,382,233.5,381.88,228.56z"/>
	<path class="st0" d="M539.78,243.97c0.63,0.7,1.25,1.39,1.88,2.09c0.41,1.89,0.79,3.79,1.25,5.68c0.26,1.06,0.16,1.88,1.88,2.49
		c3.05,1.08,2.63,4.7,3.06,7.85c-3.68-2.74-7.36-5.49-11.2-8.35c1.48-1.56,3.8,1.89,4.57-1.51
		C537.94,250.2,538.23,247.19,539.78,243.97z"/>
	<path class="st0" d="M268.58,674.7c-2.3,0.2-3.96,0.48-5.55-0.09c-2.63-0.94-4.22-2.38-3.02-5.55c0.96-2.54,1.05-5.43,3.13-7.5
		C265.52,665.55,264.97,670.68,268.58,674.7z"/>
	<path class="st0" d="M532.68,322.82c5.81,6.39,5.47,10.54-2.01,22.63C532.42,337.37,534.22,330.27,532.68,322.82z"/>
	<path class="st0" d="M580.28,358.89c4.26-5.96,9.97-9.87,16.14-13.33c-1.78,1.79-3.56,3.57-5.32,5.38
		c-0.8,0.83-2.04,1.62-2.23,2.59c-0.65,3.44-2.62,4.65-5.93,4.49C582.07,357.97,581.17,358.58,580.28,358.89z"/>
	<path class="st0" d="M312.91,207.28c1.76,1.99,3.55,3.69,4.37,6.34c-1.91,2.04-4.01,4.28-6.25,6.67
		C308.71,215.59,313.13,211.79,312.91,207.28z"/>
	<path class="st0" d="M536.55,319.55c4.89,4.99,6.42,8.16,8.87,17.22c-3.47-1.82-4.09-5.52-6.13-8.02
		C537.4,326.43,539.35,322.29,536.55,319.55z"/>
	<path class="st0" d="M258.34,673.09c-3.05-5.17-2.44-8.23,2.59-12.2C259,665.19,258.23,669.08,258.34,673.09z"/>
</g>
</svg>
