<?xml version="1.0" encoding="utf-8"?>
<!-- Generator: Adobe Illustrator 24.0.2, SVG Export Plug-In . SVG Version: 6.00 Build 0)  -->
<svg version="1.1" id="Layer_1" xmlns="http://www.w3.org/2000/svg" xmlns:xlink="http://www.w3.org/1999/xlink" x="0px" y="0px"
	 width="1188.77" height="497.29" viewBox="0 0 1188.77 497.29" style="enable-background:new 0 0 1188.77 497.29;" xml:space="preserve">
<g>
	<path d="M1085.86,394.83c6.14,5.65,11.36,11,17.19,15.57c2.6,2.04,6.16,2.87,8.41,5.68c2.11,2.64,1.96,4.36-1.25,5.58
		c-4.2,1.6-8.57,2.89-12.79-0.37c-0.79-0.61-2.96-1.28-1.12,1.2c-1.3,0.07-2.6,0.14-4.46,0.24c0.78,1.34,1.37,2.34,2.23,3.8
		c-9.26,7.15-19.55,3.86-29.45,3.4c-0.05,3.19-2.57,3.43-4.61,3.95c-9.02,2.31-17.84,1-26.65-1.95c-0.23,1.27-0.05,2.88-0.69,3.34
		c-1.26,0.89-2.95,1.49-4.5,1.59c-10.83,0.69-20.81-2.21-29.84-8.01c-3.1-1.99-6.27-2.44-9.43-1.78c-12.2,2.54-24.58,3.61-36.9,2.68
		c-16.43-1.24-32.83-3.43-48.01-10.73c-1.64-0.79-3.67-0.97-5.06-2.03c-2.55-1.94-4.89-1.23-7.22-0.03
		c-10.78,5.54-22.01,9.88-33.88,12.4c-10.99,2.33-22.04,4.42-33.07,6.56c-6.88,1.33-13.79,2.56-20.69,3.82
		c-0.65,0.12-1.32,0.15-1.98,0.17c-18.54,0.67-37.07,1.41-55.61,1.94c-3.76,0.11-7.53-0.85-11.3-0.84c-4.1,0.01-8.2,0.89-12.3,0.85
		c-18.44-0.21-36.87-0.52-55.3-0.99c-7.37-0.19-14.72-0.89-22.09-1.36c-0.17,0.41-0.34,0.82-0.52,1.22
		c7.18,7.77,14.35,15.54,21.42,23.19c-1.58,5.54-1.54,5.43-6.43,3.83c-1.38-0.45-3.04-0.07-4.68-0.07c0.32-0.5,0.62-0.97,1.31-2.03
		c-1.5,0.5-2.46,0.97-3.46,1.11c-1.13,0.16-3.08,0.95-2.07-1.68c-0.64,0.04-1.74-0.1-1.83,0.15c-0.26,0.68-0.41,1.73-0.05,2.26
		c1.45,2.09,3.25,3.95,4.64,6.08c0.79,1.21,1.84,3.43,1.34,4.04c-0.98,1.19-3.04,2.35-4.48,2.16c-6.3-0.83-12.52-2.17-18.78-3.28
		c-2.89-0.51-5.8-1.02-8.72-1.34c-4.69-0.52-9.4-0.89-13.83-1.3c0.5,5.88,0.99,11.23,1.37,16.59c0.08,1.12-0.07,2.33-0.45,3.38
		c-1.28,3.55-3.37,4.38-6.68,2.43c-6.88-4.06-13.75-8.16-20.45-12.5c-7.18-4.66-14.97-7.29-23.36-5.62
		c-4.12,0.82-7.93,3.64-11.63,5.96c-5.62,3.52-11.03,7.39-16.28,10.95c-7.91-5.58-7.03-10.88-5.4-21.71
		c-7.35-1.65-14.33,0.68-21.41,1.93c-2.72,0.48-5.41,1.27-8.14,1.59c-3.09,0.36-5.36-0.85-5.91-3.61c1.07-1.26,2.56-2.21,2.52-3.11
		c-0.11-3,2.01-4.38,3.66-6.17c3.58-3.9,7.41-7.6,10.6-11.79c1.85-2.42,2.89-5.56,3.86-8.51c0.8-2.42-1.15-4.16-3.98-4.15
		c-45.47,0.14-90.94,0.57-136.41,0.21c-13.24-0.1-26.46-2.54-39.7-3.73c-12.14-1.08-23.75-4.33-34.98-8.78
		c-11.56-4.59-22.54-10.19-32.37-18.13c-9.71-7.84-16.88-17.41-22.06-28.52c-2.39-5.12-3.82-10.7-5.55-16.11
		c-0.4-1.23-0.27-2.63-0.4-4.2c-3.42-2.19-7.51-0.49-10.31,1.01c-3.84,2.06-8.2,2.48-11.92,5.3c-4.39,3.33-7.97,7.14-11.71,11.07
		c-7.77,8.17-16.05,15.87-24.29,23.58c-4.93,4.61-10.02,9.08-15.33,13.22c-9.42,7.35-17.91,15.96-28.26,22.01
		c-3.52,2.05-8.02,2.53-12.14,3.4c-8.45,1.78-16.95,3.36-25.44,4.97c-1.13,0.21-2.33,0.13-3.49,0.09
		c-6.79-0.27-13.57-0.63-20.36-0.81c-1.42-0.04-2.86,0.81-4.28,0.77c-4.53-0.12-8.9,0.11-13.5-1.65c-4.9-1.88-10.6-1.81-15.97-2.26
		c-9.99-0.84-20.01-1.16-29.92-2.94c-3.16-0.57-6.71,0.6-9.29-2.52c3.46-4.94,8.9-7.24,14.05-9.41c9.79-4.13,19.93-7.44,29.9-11.16
		c1.17-0.44,2.36-1.13,3.25-2.01c6.83-6.7,13.25-13.69,18.93-21.5c8.72-11.98,17.98-23.6,29.14-33.51
		c6.84-6.07,13.78-12.05,20.33-18.42c6.35-6.18,12.07-13,18.44-19.16c2.99-2.89,6.76-5,10.31-7.27c5.9-3.77,11.76-7.64,17.9-10.98
		c7.18-3.92,13.25-9.75,21.27-12.22c1.67-0.51,3.06-1.83,4.66-2.63c5.03-2.51,10.09-4.95,16.21-7.93c-3.32-2.62-5.88-5.19-8.92-6.93
		c-7.23-4.15-13.52-9.36-19.99-14.57c-6.77-5.45-12.64-11.65-18.78-17.62c-3.5-3.4-6.01-7.82-8.94-11.8
		c-1.49-2.03-3.04-4.02-4.31-6.18c-3.17-5.41-6.18-10.92-9.28-16.37c-3.9-6.88-7.73-13.8-11.78-20.59c-2.94-4.93-7.95-3.8-12.1-2.9
		c-8.24,1.79-16.27,4.56-24.47,6.6c-5.45,1.36-11.19,1.7-16.51,3.38c-2.53,0.8-5.96-0.65-7.74,2.54c-0.13,0.23-0.95,0.11-1.45,0.08
		c-6.77-0.36-13.57-0.49-20.31-1.16c-7.07-0.7-12.69-9.87-10.56-16.79c0.52-1.7,1.41-3.29,1.92-4.99c0.39-1.28,0.4-2.66,0.66-3.98
		c0.28-1.42,0.39-2.96,1.03-4.2c1.28-2.47,2.82-2.52,4.64-0.52c1.25,1.37,2.58,2.66,3.66,3.78c3.9-1.35,3.3-3.59,2.59-6.12
		c-2.46-8.75-2.85-7.69,0.31-11.46c1.62,2.16,3.31,4.08,4.61,6.23c1.25,2.05,2.55,3.91,5.18,3.55c2.54-0.34,5.31-0.46,5.99-3.99
		c0.46-2.38,2.19-3.48,4.75-3.33c3.89,0.22,6.08-1.63,6.1-5.34c0.01-2.09-0.62-4.17-0.95-6.26c-0.51-3.22-0.5-3.22,3.19-5.46
		c1.16,1.63,2.42,3.41,3.4,4.79c6.26-1.03,4.56-6.73,6.93-9.53c6.9-0.43,8.23-1.89,8.54-8.78c0.08-1.73,0.68-3.44,0.82-4.13
		c3.41-1.21,5.92-2.44,8.56-2.96c3.36-0.66,3.35-3.27,3.5-5.52c0.39-5.78,0.37-11.58-3.77-16.73c-0.85,0.51-1.9,1.14-3.58,2.15
		c-1.11-1.58-2.77-3.1-3.34-4.95c-0.9-2.93-2.1-3.44-4.96-2.47c-5.54,1.87-7.7,0.59-10.28-4.85c-0.7-1.48-2.1-2.63-3.38-4.17
		c-1.73,2.59-3.25,4.86-5.33,7.98c-2.03-3.4-3.8-6.1-5.27-8.94c-1.04-2-2.32-4.03-4.58-3.63c-1.4,0.25-2.68,2.1-3.66,3.49
		c-1.41,1.99-2.13,4.41-5.37,4.36c-3.24-0.05-3.93-2.53-5.26-4.54c-0.8-1.21-1.65-2.37-2.64-3.79c-2.45,1.11-4.86,1.79-6.77,3.17
		c-2.51,1.8-3.83,1.3-4.88-1.36c-0.54-1.36-1.11-2.74-1.88-3.97c-0.89-1.41-2.02-2.68-3.04-4c-0.48,0.07-0.96,0.14-1.44,0.21
		c-0.5,1.88-0.81,3.83-1.57,5.6c-0.57,1.33-1.6,3.22-2.64,3.38c-1.04,0.15-2.55-1.38-3.51-2.47c-0.83-0.95-1.27-2.28-1.71-3.5
		c-1.47-4.12-2.58-8.4-4.35-12.38c-3.12-7.04-1.77-12.24,3.07-15.59c6-4.15,12.22-7.99,18.41-11.86c5.29-3.3,10.77-1.6,16.12-0.18
		c4.55,1.21,9.04,2.68,13.45,4.32c2.78,1.03,5.26,2.9,8.07,3.8c2.45,0.79,5.16,0.86,7.77,1.06c5.26,0.41,10.53,0.65,15.79,1.07
		c1.93,0.15,3.86,0.95,5.75,0.83c1.37-0.09,2.62-1.41,4.02-1.8c1.87-0.52,3.84-0.79,5.78-0.95c2.15-0.17,4.33-0.09,6.5-0.1
		c2-0.01,4.01-0.12,6,0.03c2.11,0.16,4.19,0.73,6.3,0.82c1.78,0.08,3.71,0.11,5.34-0.49c8.99-3.3,17.81-4.19,26.91-0.07
		c2.52,1.14,5.97,1.13,8.78,0.58c8.18-1.59,15.87-1.48,23.31,3.01c5.39,3.25,11.5,2.84,17.18,0.88c4.69-1.61,7.98-0.37,11.01,3
		c0.89,0.99,1.93,1.85,2.8,2.85c1.64,1.88,3.18,2.07,5.92,1.73c5.09-0.62,9.97-1.36,14.82-3.13c2.66-0.97,5.57-0.27,7.8,1.9
		c0.95,0.93,1.9,1.87,2.93,2.71c5.42,4.45,11.47,5.16,17.98,2.92c0.46-0.16,0.93-0.7,1.31-0.62c3.24,0.63,6.48,2.01,9.68,1.9
		c3.97-0.13,6.34,1.11,8.55,4.35c1.99,2.93,5.36,2.03,8.16,0.9c2.79-1.13,5.25-1.01,7.7,0.7c2.86,2,6.12,2.38,9.46,2
		c4.08-0.46,6.85,1.45,9.44,4.34c1.15,1.28,3.09,1.89,4.74,2.66c2.29,1.08,4.99,1.61,6.89,3.15c2.48,2.02,4.93,3.22,8.09,2.87
		c3.88-0.43,7.02,0.71,9.79,3.63c1.21,1.28,3.43,1.61,5.19,2.37c2.93,1.27,6.2,2.08,8.7,3.93c2.51,1.85,4.78,3.4,8,3.1
		c0.81-0.08,1.92-0.16,2.42,0.29c6.37,5.64,15.38,4.82,22.07,9.05c2.15,1.36,3.09,0.8,4.8,0.74c1.75-0.05,3.51,0.72,5.28,0.85
		c5.76,0.42,11.52,0.9,17.29,0.99c5.35,0.08,10.43,0.58,14.87,4c2.75,2.13,6.23,2.85,9.41,1.94c8.75-2.52,16.45,0.08,24.11,3.86
		c2.61,1.29,5.39,2.47,8.21,2.96c1.49,0.26,4.35,2.21,5.03-1.5c0.03-0.15,0.93-0.18,1.42-0.19c7.73-0.1,15.31-0.29,22.3,4.46
		c2.52,1.71,6.63,1.36,10.03,1.41c3.43,0.05,6.87-0.54,10.3-0.89c2.77-0.28,5.52-0.71,8.29-0.91c5.05-0.36,9,2.54,13.2,4.66
		c2.76,1.39,5.51,2.79,8.34,4c0.83,0.35,2.05,0.33,2.89-0.02c8.06-3.35,15.66-2.41,23.04,2.07c2.48,1.51,5.18,2.67,7.82,3.9
		c0.54,0.25,1.37,0.32,1.89,0.09c8.18-3.71,14.65-3.91,21.41-0.52c2.35,1.17,4.56,2.73,7.03,3.5c2.43,0.76,5.15,1.22,7.65,0.95
		c3.36-0.36,6.59-1.81,9.94-2.27c1.79-0.25,3.82,0.33,5.57,1c2.59,0.99,4.94,2.61,7.54,3.56c1.78,0.65,3.85,1.03,5.71,0.83
		c3.22-0.34,6.57-0.77,9.52-1.99c4.45-1.85,7.95,0.1,11.64,1.82c1.34,0.62,2.76,1.14,3.94,1.99c5.33,3.83,11.49,3.08,17.05,1.98
		c7.97-1.57,15.04-0.54,21.6,3.87c2.21,1.49,4.21,1.75,6.75,1.59c4.98-0.31,10.05-0.53,14.97,0.07c2.71,0.33,5.3,2.24,7.76,3.74
		c1.94,1.19,3.52,2.96,5.42,4.24c2.59,1.75,5.3,3.27,8.68,2.86c5.96-0.73,11.43,0.79,16.43,3.98c2.26,1.44,4.35,3.15,6.54,4.75
		c4.97,0.38,10.33,0.78,15.69,1.18c0.5,0.04,1.02,0.15,1.49,0.05c6.49-1.28,11.76,1.6,16.88,4.96c0.54,0.35,1.27,1.09,1.63,0.95
		c5.76-2.31,8.63,3.25,13,4.67c1.84,0.6,3.73,1.19,5.64,1.4c5.79,0.65,11.88-0.15,16.62,4.6c0.78,0.78,2.73,0.79,4.05,0.57
		c4.51-0.75,7.98,1.02,11.18,3.91c4.18,3.78,8.48,6.25,14.68,4.2c3.31-1.09,7.29-0.46,10.92-0.11c1.4,0.14,3.25,1.37,3.86,2.61
		c1.15,2.37,2.92,2.37,4.91,2.24c4.09-0.27,8.21-1.08,12.26-0.78c2.57,0.19,5.34,1.56,7.45,3.15c2.31,1.73,4.1,1.86,6.76,0.97
		c2.42-0.81,5.29-0.16,7.82-0.74c2.26-0.52,4.52-1.57,6.44-2.89c1.89-1.29,3.17-3.49,5.07-4.78c3.1-2.11,3.24-4.39,0.83-6.83
		c-3.78-3.81-7.34-8.06-11.76-10.98c-11.88-7.88-22.99-16.63-32.36-27.35c-3.47-3.97-6.07-8.86-8.4-13.65
		c-3.32-6.82-7.02-12.96-13.55-17.45c-7.42-5.1-11.47-12.98-14.33-21.34c-1.05-3.07,0.88-4.9,5.41-4.65c-1.03-2.38-2-4.35-2.76-6.4
		c-1.34-3.64-2.82-7.26-3.73-11.01c-0.72-2.99-0.82-6.16-0.9-9.26c-0.03-0.99,0.89-2.01,1.62-3.52c1.72,1.08,3.18,1.99,5.18,3.25
		c0-5.08,0.04-9.83-0.01-14.58c-0.07-7.75,2.44-14.66,6.96-22.34c3.48,6.02,6.47,11.2,9.47,16.39c0.37-0.04,0.73-0.08,1.1-0.11
		c2.59-11.27,4.07-22.91,10.15-33.52c4.6,3.91,3.84,9.87,6.74,14c2.38-0.64,3.1-2.41,4.28-4.44c2.77-4.77,6.58-8.94,10.01-13.31
		c1.74-2.22,3.59-4.35,5.55-6.72c6.62,5.38,2.03,12.04,4.39,17.57c6.94-5.65,12.01-13.97,22.76-15.79
		c-1.89,7.15-3.64,13.78-5.43,20.53c4.18-2.41,8.13-4.74,12.14-6.97c3.92-2.19,7.76-4.7,12.37-4.77c0.28,0.42,0.56,0.85,0.85,1.27
		c-1.18,1.16-2.63,2.15-3.47,3.51c-0.79,1.28-0.93,2.96-1.36,4.46c1.39,0.21,2.96,0.94,4.14,0.53c2.06-0.71,3.92-2.06,5.81-3.23
		c2.94-1.83,5.58-1.5,8.53,1.36c-3.28,2.98-6.52,5.92-9.76,8.87c0.11,0.12,0.21,0.24,0.32,0.36c5.91-3.28,12.17-6.07,17.62-9.98
		c5.17-3.72,10.37-2.2,15.56-1.57c1.54,0.19,2.8,2.65,4.48,4.37c1.79,0.5,4.19,1.16,7.18,1.99c-1.39,1.77-2.17,2.76-3.06,3.89
		c3.52,1.13,7.49,1.41,8.84,6.32c-1.77,1.05-3.49,2.24-5.36,3.14c-6.46,3.11-12.78,6.62-19.5,9.03c-7,2.51-10.79,7.72-14.67,13.43
		c-0.99,1.46-1.67,2.57-1.61,4.16c0.11,2.93,0.35,5.86,0.53,8.7c0.26-0.15,0.72-0.43,1.21-0.72c0.08,0.26,0.15,0.41,0.18,0.58
		c1.75,9.13,4.19,12.86,13.36,20.36c0.73-2.07,1.48-4.17,2.54-7.15c8.09,8.76,13.48,18.15,19.61,27.73
		c1.64-5.65-1.13-11.3,2.11-16.37c6.14,4.22,9.81,9.91,13.4,15.55c3.58,5.61,6.6,11.57,10.09,17.77c3.05-5.33,0.63-12.11,6.24-16.64
		c3.95,4.47,7.91,8.45,11.26,12.9c3.21,4.27,5.77,9.02,8.99,14.16c1.19-2.53,2.1-4.48,3.53-7.5c2.6,4.26,4.9,7.71,6.86,11.34
		c2.01,3.73,2.94,8.37,5.75,11.23c2.4,2.45,4,5.01,5.39,7.92c0.77,1.61,1.24,3.37,2.1,4.93c1.47,2.67,2.77,5.19,5.58,7.2
		c12.7,9.06,23.2,20.41,32.44,32.95c5.14,6.98,10.78,13.62,15.5,20.87c5.52,8.45,10.67,17.22,13.31,27.13
		c1.51,5.65,3.5,11.28,4.06,17.04c0.82,8.54,1.35,17.26,0.57,25.77c-0.99,10.79-4.77,21.02-10.59,30.24
		c-4.78,7.57-10.21,14.74-15.21,22.18c-3.22,4.8-7.52,8.55-11.58,12.55c-9.14,8.97-19.86,15.46-31.87,19.69
		c-9.49,3.34-19.17,6.13-28.73,9.26C1089.07,392.57,1087.93,393.57,1085.86,394.83z"/>
</g>
</svg>
