<?xml version="1.0" encoding="utf-8"?>
<!-- Generator: Adobe Illustrator 24.1.1, SVG Export Plug-In . SVG Version: 6.00 Build 0)  -->
<svg version="1.1" id="Layer_1" xmlns="http://www.w3.org/2000/svg" xmlns:xlink="http://www.w3.org/1999/xlink" x="0px" y="0px"
	 viewBox="0 0 1381.73 2113.63" style="enable-background:new 0 0 1381.73 2113.63;" xml:space="preserve">
<style type="text/css">
	.st0{fill:#1A1A1A;}
</style>
<g>
	<path d="M667.66,1323.68c-22.86,13.75-44.25,27.19-65.04,41.3c-1.29-1.12-1.14-2.07-0.55-2.96c17.12-25.85,36.4-50,57.48-72.73
		c11.75-12.67,25.55-22.22,41.6-28.6c3.08-1.22,6.06-2.67,9.06-4c-0.14-2.78-2.51-2.83-4.22-3.63
		c-17.83-8.35-35.23-17.42-50.23-30.42c-3.98-3.45-7.87-7.01-12.37-10.13c2.34,8.87,9.04,15.5,12.63,25.16
		c-7.75-3.6-10.88-10.38-15.88-15.07c-5.57-5.22-10.57-11.05-15.75-16.69c-4.95-5.39-9.78-10.88-14.71-16.29
		c-5.16-5.65-10.38-11.24-15.55-16.89c-4.94-5.4-9.92-10.76-14.75-16.25c-5.05-5.74-9.99-11.58-14.92-17.43
		c-4.71-5.59-9.34-11.26-14.03-16.87c-4.9-5.88-9.78-11.76-14.74-17.59c-4.72-5.55-9.17-11.37-15.38-16.46
		c-7.96,4.63-15.92,9.26-24.19,14.07c-1.79,6.61-1.02,13.66-1.81,20.52c-5.09,44.3-13.13,88.04-23.58,131.37
		c-2.73,11.3-5.6,22.57-8.59,33.81c-1.23,4.64-1.24,9.73-5.39,13.42c-1.16,1.03-0.83,3.75-1.18,5.69
		c-6.26,34.31-11.07,68.97-19.18,102.84c-8.66,36.17-16.34,72.66-28.11,108.07c-5.14,15.47-10.27,30.93-16.41,46.04
		c-5.63,13.87-11.22,27.75-16.81,41.64c-9.97,24.76-22.77,48.08-36.12,71.12c-16.52,28.51-32.54,57.29-44.96,87.91
		c-9.13,22.51-17.17,45.42-24.46,68.59c-2.3,7.29-4.45,14.64-6.81,21.91c-1.97,6.06-3.17,12.31-3.18,18.61
		c-0.03,15.31-1.51,30.56-2.47,45.79c-1.14,17.99-0.4,35.92-1.04,53.87c-0.33,9.35,0.67,18.59,1.63,27.83
		c0.69,6.68,2.37,13.15,6.94,18.39c2.5,2.87,3.84,6.14,3.79,10.01c7.33,2.56,14.26,4.94,19.92,9.8c1.95,1.68,4.13,1.51,6.56,0.76
		c7.51-2.3,13.63,0.02,18.74,5.85c5.93,6.76,12.82,12.29,20.41,17.23c9.63,6.26,14.61,15.15,16.6,26.87
		c-7.16-1.92-12.48-7.96-19.48-7.89c-2.09,1.15-2.61,2.68-3.1,4.31c-1.58,5.23-5.34,8.25-10.34,9.93c-5.04,1.7-10.12,3.3-15.15,5.06
		c-7.67,2.68-15.16,2.31-22.03-2.01c-3.96-2.5-7.48-2.16-11.27-0.27c-15.05,7.5-31.19,11.49-47.69,13.69
		c-8.5,1.13-17.22,1.31-25.44-2.77c-4.52-2.24-9.62-2.26-14.66-2.24c-9.96,0.05-19.91,0.42-29.78-2.09
		c-8.62-2.2-16.5-4.94-21.4-13.12c-5.36-8.94-7.19-18.37-5.54-28.69c2.33-14.53,6.72-28.44,11.64-42.25
		c5.91-16.6,12.01-33.2,14.37-50.78c2.13-15.82,3.4-31.76,2.55-47.73c-0.39-7.31-2.74-14.32-5.29-21.22
		c-10.27-27.82-2.27-52.48,14.52-74.77c4.95-6.57,8.48-12.79,10.26-20.76c5.51-24.69,8.86-49.66,11.3-74.81
		c1.38-14.25,1.29-28.55,2.08-42.81c2.46-44.22,7.96-87.98,20.94-130.52c0.87-2.86,1.56-5.77,2.26-8.68c0.14-0.61-0.07-1.3-0.2-2.93
		c-17.77,3.74-35.65,6.38-53.72,6.52c-17.78,0.14-35.78,1.52-53.77-5.22c20.23-58.9,43.36-115.73,65.37-173.08
		c-6.67,7.92-11.12,17.2-16.61,25.79c-5.74,8.97-11.22,18.11-16.88,27.12c-5.67,9.02-11.43,17.98-17.14,26.97
		c-5.53,8.71-11.11,17.39-16.54,26.17c-5.6,9.06-11.05,18.21-16.57,27.32c-5.5,9.09-11,18.19-16.29,26.93
		c-4.09,1.64-7.11-0.17-9.92-1.75c-25.38-14.23-44.13-33.88-51.89-62.82c-3.54-13.21-3.38-26.35,0.01-39.27
		c3.01-11.49,3.7-21.94-0.54-33.72c-8.89-24.73-3.96-49.28,5.85-72.82c9.01-21.63,21.15-41.27,37.09-58.78
		c20.81-22.85,40.46-46.77,60.81-70.05c21.23-24.28,42.7-48.35,64.05-72.52c18.93-21.43,37.85-42.87,56.79-64.29
		c9.9-11.2,19.84-22.36,29.76-33.53c-5.77-20.79-10.7-41.41-13.56-62.48c-0.63-4.65-2.14-9-4.57-13.08
		c-21.84-36.59-43.81-73.09-67.38-108.6c-1.08-1.63-2.37-3.13-4.11-5.4c-4.83,6.41-3.22,13.64-4.48,20.05
		c-1.33,6.74-1.49,13.7-2.23,21.34c-3.53-1.07-4.11-3.7-5.05-5.96c-9.38-22.4-18.72-44.81-28.12-67.2
		c-6.05-14.42-12-28.88-18.28-43.19c-5.4-12.3-8.54-25.23-10.44-38.38c-1.08-7.49,0.79-15.14,2.02-22.64
		c1.34-8.11,2.94-16.18,3.22-24.97c-5.4,6.01-11.02,11.85-16.15,18.08c-5.29,6.43-11.28,12.09-18.34,19.05
		c0.42-6.16,2.61-10.15,4.73-13.92c7.21-12.78,12.92-26.26,19.26-39.45c19.55-40.65,42.83-78.94,72.61-113.06
		c19.95-22.87,41.46-44.13,64.49-63.87c9.13-7.83,16.01-17.52,24.93-28.58c-10.98,2-18.19,7.71-26.49,9.69
		c-1.05-2.13,0.04-3.05,0.85-3.99c11.08-12.88,21.27-26.46,31.22-40.2c10.32-14.26,23.33-25.47,38.16-34.72
		c3.59-2.24,7.18-4.48,12.22-7.62c-5.68-1.74-9.88-0.98-13.96-1.11c-3.96-0.13-7.93-0.03-11.97-0.03c-0.49-0.81-0.41-1.8,0.53-2.31
		c12.86-6.96,25.42-14.46,38.85-20.39c10.49-4.63,21.49-7.42,32.71-8.35c16.52-1.38,33.02-4.1,49.73-2.52
		c2.25,0.21,4.74-0.05,6.86-0.8c15.04-5.28,30.01-10.74,45.19-16.21c-4.16-4.23-8.17-6.02-22.87-10.25
		c11.27-6.2,23.26-6.91,34.96-9.01c1.08-2.76-1.8-3.06-2.92-4.23c-5.96-6.26-12.56-11.96-17.03-19.53c-1.6-2.71-4.19-4.25-6.8-5.72
		c-7.28-4.1-13.89-9.16-20.33-14.43c-1.92-1.57-4.53-2.9-4.2-6.84c29.48-3.53,59.31-3.6,88.92-7.94
		c-14.69-4.66-29.98-7.39-42.71-14.73c-1.21-1.48-1.01-1.89-0.03-2.1c12.6-2.61,23.83-8.14,34.18-15.72
		c8.05-5.9,16.61-10.98,28.51-14.35c-11.89-4.22-22.35-6.55-33.56-13.08c15.58-1.79,29.29-2.08,43.14-6.22
		c-2.85-4.34-8.36-4.3-10.84-8.12c3.46-1.6,6.33,2.56,9.81,0.64c-0.45-2.61-3.02-3.11-4.61-4.48c-2.02-1.72-4.04-3.33-5.71-5.49
		c-4.11-5.3-23.08-36.86-25.34-42.82c-0.2-0.53,0.07-1.24,0.17-2.46c8.16,1.78,16.43,1.46,24.68,1.47c7.86,0.01,15.72,0,25.1,0
		c-8.02-7.11-15.39-13.03-19.82-21.8c-4.3-8.49-9.74-16.4-15.74-26.32c21.99,7.98,43.04,9.03,64.92,7.82
		c-3.36-8.4-7.04-16.55-6.84-26.69c7.31,5.73,12.11,13.48,19.98,17.64c2.42-1.12,1.4-3.38,1.46-5.12
		c0.26-7.19,2.36-13.78,6.55-19.57c7.04-9.71,14.9-18.74,23.36-27.25c0.87-0.88,1.73-1.94,3.71-1.43c-0.7,7.42-5.4,14-5.75,21.79
		c3.04-0.66,4.3-2.77,5.94-4.35c5.59-5.37,12.1-9.15,19.11-12.45C673.41,11.24,697.36,6,721.73,2.12c4.26-0.68,8.51-1.46,12.77-2.11
		c0.54-0.08,1.15,0.35,2.59,0.83c-13.3,11.52-27.93,20.65-42.45,33.09c9.1-1.74,16.16-3.25,23.27-4.42
		c12.41-2.04,24.77-3.08,37.51-2.26c14.29,0.92,28.52,1.84,42.56,4.54c8.48,1.63,16.83,3.91,25.24,5.93
		c14.87,3.57,29.73,7.14,44.59,10.77c1.58,0.39,3.04,1.21,5.42,2.18c-6.56,3.48-13.05,4.06-19.31,5.19
		c-26.39,4.76-52.98,8.05-81.65,10.93c5.74,1.24,9.52,2.37,13.38,2.84c16.89,2.07,30.94,9.47,42.63,21.74
		c20.03,21.02,38.01,43.65,53.59,68.16c0.51,0.81,1.21,1.55,0.44,3.44c-8.38-2.67-15.6-7.98-23.45-11.82
		c-7.8-3.81-15.88-6.82-23.91-10.01c-8.18-3.25-16.17-6.99-25.24-9.34c5.06,7.23,10.11,14.46,15.19,21.68
		c0.57,0.82,1.19,1.61,1.88,2.34c5.64,5.93,7.56,12.25,5.27,20.74c-2.56,9.51-1,19.13,4.95,27.61c3.82,5.44,7.13,11.24,11.03,16.62
		c14.62,20.19,25.55,42.01,30.62,66.59c2.91,14.11,3.95,28.18,0.68,42.28c-3.11,1.22-4.46-1.11-5.92-2.68
		c-1.97-2.11-4.22-2.86-7.05-3.02c-20.38-1.21-39.96-6.51-59.5-11.96c-7.05-1.96-14.09-3.97-21.03-6.26
		c-4.56-1.51-8.99-1.84-13.72-0.95c-4.19,0.79-8.5,0.9-13.79,1.41c4.51,3.27,9.88,1.13,13.48,5.01c-6.73,2.2-13.17,4.68-18.57,10.2
		c7.5,1.51,14.1-2.6,21.76-1.1c-6.04,7.84-15.01,11.39-22.24,18.36c9.42,5.16,19.93,5.46,29.71,9.81c-4.12,3.6-8.69,4.28-12.95,5.75
		c-4.3,1.48-8.8,1.79-13.42,2.98c21.92,9.81,43.63,19.64,63.61,32.79c19.65,12.93,38.6,26.83,56.86,42.28
		c-13.03-1.61-26.16-2.66-39.06-4.99c-12.64-2.29-25.04-5.88-37.77-8.96c0.24,1.16,0.15,2.01,0.52,2.31
		c18.71,15.21,29.59,35.63,38.22,57.51c6.96,17.63,12.95,35.64,20.78,52.93c0.39,0.86,0.34,1.91,0.71,4.18
		c-6.24-3.55-10.16-8.67-16.02-12.72c1.4,7.81,4.93,13.93,6.1,20.79c2.7,15.78,4.36,31.46,2.22,47.54
		c-1.48,11.11-1.44,22.42-2.09,33.83c7.45,4.31,15.24,7.34,21.98,12.26c15.67,11.46,28.36,25.13,34.08,44.24
		c1.63,5.46,4.55,10.32,7.4,15.22c10.4,17.88,18.01,37.09,26.41,55.92c12.67,28.42,27.93,55.19,49.03,78.35
		c5.83,6.4,11.41,12.91,18.65,17.9c3.47,2.4,6.15,6,9.02,9.2c18.46,20.54,37.77,40.25,59.81,56.97
		c9.54,7.23,19.71,13.56,28.02,22.38c3.72,3.95,6.82,8.12,8.99,13.05c1.74,3.96,3.84,7.77,5.33,11.82
		c3.4,9.26,8.49,17.31,16.08,23.68c7.23,6.06,9.25,14.61,10.05,23.2c0.67,7.21,0.23,14.54-0.6,21.88
		c-1.42,12.52-3.02,25.12-2.41,37.76c0.56,11.65-4.22,20.07-12.84,27.71c-8.27,7.33-17.45,11.98-27.86,14.8
		c-1.61,0.44-3.21,0.89-4.91-0.13c-0.32-4.52,4.57-5.06,6.88-9.21c0-2.13,0.04-5.44-0.01-8.74c-0.07-5.42,0.89-10.54,3.65-15.33
		c5.06-8.78,4.93-18.25,3.96-27.65c-3.48-1.33-3.94,1.31-4.97,2.66c-11.31,14.69-27.29,20.33-44.94,15.23
		c-5.31-1.53-9.99-2.78-14.92,1.1c-2.35,1.85-5.78,1.17-8.78,1.15c-8.04-0.05-15.85-1.69-23.62-3.51
		c-5.07-1.19-9.72-4.06-15.37-2.92c-1.62,0.33-3.76-1.13-5.46-2.12c-8.72-5.06-16.46-11.31-22.36-19.58
		c-3.4-4.76-4.56-9.87-3.63-15.92c1.12-7.25,2.7-14.36,4.31-21.49c1.12-4.97,1.49-9.74-1.94-14.26
		c-13.45-17.7-21.96-37.9-29.2-58.71c-2.51-7.22-5.45-14.34-7.39-21.72c-2.33-8.83-7.61-15.01-14.48-20.7
		c-27.91-23.13-55.36-46.8-82.01-71.38c-9.26-8.54-18.67-16.92-28.61-25.91c-1.69,8.69,3.86,15.85,3.77,24.45
		c-6.24-3.49-10.45-8.23-15.23-12.23c-12.24-10.24-24.35-20.64-36.53-30.95c-14.87-12.58-25.27-28.07-31.08-49.3
		c-4.1,18.74-9.6,34.59-20.24,50.26c-3.6-35.25-0.68-68.51,1.3-101.64c-1.29-0.91-1.76-0.11-2.29,0.63
		c-7.56,10.54-15.34,20.94-22.64,31.66c-5.46,8.03-8.68,16.7-9.68,26.79c-1.5,15.16-4.87,30.16-7.83,45.14
		c-3.86,19.55-7,39.27-13.09,58.33c-1.36,4.25-0.53,8.36,1.25,12.58c4.79,11.33,9.41,22.75,13.61,34.31
		c6.6,18.14,11.91,36.63,12.94,55.98c31.28,20.88,59.48,45.18,87.39,69.84c16.47,14.55,32.57,29.46,48.07,45.04
		c34.63,34.83,62.55,74.23,81.77,119.56c12.07,28.47,24.19,56.94,33.14,86.61c2.78,9.23,4.94,18.58,6.57,28.11
		c1.25,7.31,0.09,13.92-3.18,20.26c-14.51,28.19-32,54.49-51.11,79.73c-0.36,0.47-1.15,0.62-2.84,1.48
		c2.8-9.54,5.38-18.28,8.44-28.71c-5.49,4.54-8.29,9.14-12.61,12.18c-6.29,4.43-12.74,8.62-19.89,11.4
		c-7.25,2.82-13.46,6.91-19.46,11.84c-36.56,30.07-75.49,56.87-115.07,82.75c-19.5,12.75-38.74,25.9-57.5,39.73
		c-2.94,2.17-5.85,4.4-8.7,6.69c-6.1,4.9-8.77,11.2-8.92,19.14c-0.2,10.37,1.07,20.62,2.37,30.79c2.52,19.75,5.07,39.52,9.16,59.04
		c2.18,10.41,4.23,20.84,6.38,31.25c0.95,4.58,2.58,8.94,4.63,13.14c1.31,2.69,3.11,5.33,3.61,8.18
		c2.22,12.8,11.14,20.77,21.32,26.2c9.95,5.31,13.77,12.54,13.99,22.91c0.13,6.16,2.34,11.7,5.29,16.99
		c0.81,1.45,1.69,2.87,2.57,4.29c8.8,14.19,9.18,28.18-1.15,41.81c-2.47,3.27-3.73,6.83-4.69,10.82
		c-2.93,12.22-10.25,21.84-20.07,32.66c0-10.75,0-19.2,0-27.53c-1.89-0.89-3.01-1.7-4.26-1.97c-14.29-3.13-22.12-13.2-26.57-26
		c-3.63-10.43-5.59-21.3-0.08-32.01c1.98-3.84-0.39-7.07-2.1-10.2c-1.63-2.99-4.06-5.23-7.55-5.78c-1.73,0.87-2.52,2.21-2.67,3.99
		c-1.27,15.51-0.13,30.62,8.04,44.37c1.85,3.12,2.27,6.31,1.66,9.59c-1.58,8.49-3.45,16.93-5.22,25.38
		c-0.14,0.64-0.38,1.3-0.72,1.86c-7.03,11.59-11.53,24.64-20.64,35.04c-6.13,7-8.65,9.2-16.67,12.23
		c1.54-9.56,6.47-18.43,4.24-28.31c-10.87-3.33-20.78-7.74-25.28-20.45c-3.53,3.31-6.35,6.33-9.55,8.86
		c-3.33,2.63-6.34,5.93-11.56,7.02c-0.25-5.1,3.43-8.64,4.09-13.03c0.64-4.25,1.73-8.43,2.73-13.19
		c-12.64-8.02-16.31-20.95-17.77-34.82c-0.97-9.26,2.52-16.85,9.76-22.86c6.17-5.12,6.3-7.9,1.18-13.95
		c-2.58-3.05-5.45-5.84-7.94-8.96c-11.7-14.7-16.15-31.18-11.14-49.57c4.7-17.28,1.54-33.6-5.76-49.31
		c-6.31-13.58-13.66-26.56-23.78-37.88c-7.33-8.21-13.03-17.63-17.91-27.55c-5.28-10.73-5.89-21.73-2.52-32.99
		c6.77-22.64,20.35-40.15,40.39-52.61c5.08-3.16,10.3-6.12,15.61-8.88c7.2-3.74,13.33-8.7,18.37-15.01
		c10.81-13.53,21.09-27.46,30.84-41.76c18.74-27.52,38.08-54.63,55.55-83C665.44,1330.17,667.15,1328.12,667.66,1323.68z
		 M229.37,678.79c0.18,1.89,1.53,3.06,2.83,3.97c7.77,5.46,13.21,13.06,19.1,20.27c5.01,6.12,7.53,13.22,8.52,20.97
		c1.09,8.55,2.85,17.08,3.16,25.66c0.55,15.51,5.23,30.73,3.1,46.41c-0.17,1.22,0.53,2.56,0.85,3.84
		c4.67,19.06,8.08,38.38,10.6,57.82c3.05,23.59,12.18,44.8,23.82,65.16c0.92,1.61,1.6,3.59,3.98,4c0.57-0.75,1.42-1.45,1.73-2.33
		c4.74-13.56,11.77-26.05,17.97-38.93c1.72-3.58,3.47-7.27,4.35-11.11c4.12-17.98,5.37-36.04,1.01-54.24
		c-2.95-12.28-5.8-24.6-8.32-36.97c-8.43-41.43-12.33-83.4-14.71-125.55c-0.1-1.82,0.69-3.97-1.58-5.44
		c-0.81,0.24-1.85,0.32-2.62,0.82c-14.78,9.59-31.24,14.69-48.38,17.75C245.93,672.48,237.18,674.07,229.37,678.79z"/>
	<path class="st0" d="M179.88,1345.01c-12.88,20.41-23.55,42.15-36.77,62.37c-13.48,20.63-26.27,41.7-39.23,62.67
		c-12.76,20.64-25.36,41.39-38,62.02c-5.24,0.39-9.24-1.46-13.34-3.99c-22.82-14.1-38.92-33.3-45.1-59.75
		c-2.82-12.07-3.18-24.4,0.69-36.51c0.51-1.58,1.19-3.22,1.2-4.83c0.09-8.92,4.75-15.65,9.93-22.35
		c26.72-34.53,51.55-70.39,75.44-106.92c5.28-8.08,10.9-15.94,16.31-23.93c1.46-2.16,3.35-4.15,3.32-7.44
		c-3.01-0.16-3.72,2.41-4.86,4.09c-14.28,20.9-28.27,42.01-42.76,62.75c-16.03,22.93-32.48,45.57-48.81,68.29
		c-1.52,2.12-2.83,4.56-5.45,5.7c-2.63-0.01-3.23-2.15-3.83-3.93c-6.73-20.16-7.23-40.47-1.31-60.92
		c6.76-23.34,18.11-44.39,32.93-63.46c8.77-11.28,18.59-21.75,27.98-32.54c13.76-15.83,27.06-32.11,41.52-47.27
		c10.79-11.31,19.24-24.7,31.35-34.78c8.99-14.14,21.53-25.25,32.4-37.77c25.09-28.9,50.81-57.27,76.18-85.92
		c11.48-12.96,22.73-26.12,34.13-39.14c32.68-37.32,65.39-74.61,98.06-111.93c5.92-6.76,12.04-13.35,16.59-21.2
		c4.68-8.08,12.48-11.7,21.01-13.99c6.14-1.65,12.44-1.99,18.81-2.08c11.31-0.17,19.68,5.13,26.73,13.27
		c9.04,10.44,15.24,21.76,11.07,36.25c-2.23,34.54-4.46,69.09-6.7,103.63c-2.09,32.22-3.98,64.45-6.33,96.65
		c-2.16,29.55-4.79,59.06-7.29,88.59c-3.51,41.46-6.9,82.93-10.75,124.36c-1.41,15.22-3.57,30.41-5.21,45.59
		c-3.88,35.93-21.25,64.68-44.93,90.4c-14.88,16.17-33.8,24.46-55.6,26.14c-9.28,0.71-18.59,1.8-27.91,0.32
		c-1.97-0.31-3.98-0.44-5.9-0.94c-7.16-1.87-8.4-3.71-6.19-10.59c9.5-29.53,15.32-59.98,22.74-90.02
		c9.9-40.11,21.13-79.82,33.6-119.2c4.92-15.55,9.8-31.11,14.68-46.68c0.48-1.53,1.37-3.05,0.32-5.3
		c-3.21,2.99-3.66,7.03-4.82,10.52c-9.4,28.1-18.66,56.25-27.02,84.69c-6.67,22.71-16.2,44.41-24.31,66.61
		c-15.08,41.29-32.23,81.78-48.46,122.62c-3.94,9.9-7.99,19.76-11.62,29.77c-1.84,5.06-5.05,8.2-9.74,10.68
		c-20.3,10.72-41.91,17.12-64.65,19.38c-13.57,1.34-27.2,2.73-40.87,2.17c-10.27-0.42-20.65-0.55-30.57-3.92
		c-0.89-0.3-1.69-0.88-2.39-1.26c-0.84-2.67,0.25-4.81,1.07-6.97c10.87-28.62,21.65-57.28,32.65-85.85
		c8.83-22.92,17.93-45.74,26.92-68.61c0.37-0.93,0.59-1.99,1.19-2.74c7.82-9.96,8.16-22.9,13.53-33.84
		c0.25-0.51,0.03-1.25,0.03-1.88C180.97,1345.71,180.43,1345.36,179.88,1345.01z"/>
	<path class="st0" d="M243.74,1969.64c-2.69,1.89-3.41,4.69-3.89,7.76c-0.72,4.59-1.45,9.23-2.75,13.68
		c-3.16,10.85-2.48,21.72-0.84,32.64c0.45,2.97,1.23,5.89,3.03,8.39c5.16,7.15,12.74,8.21,19.83,2.74c1.55-1.2,2.67-3.03,5.68-3.3
		c3.96,5.69,6.65,13.51,14.72,14.61c1.57,1.9,1.77,3.54,1.79,5.23c0.04,3.09-0.13,6.25-3.53,7.55c-3.09,1.18-6.08,0.05-8.35-2.01
		c-3.08-2.8-5.79-6.02-10.08-10.59c2.69,9.21,7.25,13.98,14.14,16.6c4.54,1.73,7.75,0.3,9.52-4.29c0.58-1.51,1-3.27,0.86-4.86
		c-0.54-6.26,2.63-9,8.39-10.19c3.9-0.81,7.64-2.3,11.99-0.49c2.71,6.89,2.62,13.49-2.43,19.41c-4.26,4.99-5.79,5.14-15.83,2.7
		c0.22,2.96,2.93,3.88,4.76,4.37c5.29,1.41,9.48,4.51,13.91,7.4c6.83,4.46,10.17,3.95,15.6-1.9c0.88-0.95,1.66-1.99,2.89-3.48
		c4.09,3.72,2.93,8.06,2.62,12.14c-0.27,3.52-1.79,6.66-5,8.17c-10.27,4.81-20.66,9.41-32.5,7.64c-2.31-0.35-4.69-0.65-6.57-2.17
		c-4.68-3.77-9.24-2.27-14-0.1c-14.34,6.54-29.4,10.41-44.94,13.02c-15.03,2.53-27.72-0.55-37.98-12.16
		c-0.83-0.94-1.54-2.21-3.44-2.18c-0.13,3.21,3.96,4.34,3.72,8.14c-3.02,1.91-6.76,0.79-10.22,1.07
		c-8.36,0.67-16.53-0.59-24.77-2.13c-13.54-2.54-19.38-11.78-22.37-23.82c-1.12-4.51-1.11-9.12-0.51-13.85
		c2.04-16.01,7.31-31.07,12.72-46.12c5.64-15.69,10.75-31.56,13.19-48.09c2.14-14.49,3.13-29.15,2.99-43.8
		c-0.09-8.99-2.32-17.81-5.75-26.16c-4.86-11.84-5.44-23.88-2.65-36.25c1.54-6.84,3.7-13.47,6.39-19.94
		c4.19-10.08,10.74-18.54,19.38-24.98c12.42-9.27,18.78-22.24,23.67-36.2c3.73-10.65,6.04-21.65,7.1-34.54
		c-3.18,2.49-2.89,4.89-3.48,6.74c-0.61,1.89-0.93,3.88-1.29,5.85c-2.49,13.52-6.99,26.37-13.03,38.67
		c-2.49,5.07-5.7,9.62-10.87,12.61c-2.11-3.08-0.38-5.58,0.16-8c6.91-30.97,10.57-62.41,12.26-94.01
		c1.17-21.95,2.16-43.89,4.3-65.76c2.79-28.58,8.91-56.54,16.47-84.2c0.43-1.57,1.19-3.04,1.74-4.41c3.38-0.14,3.2,2.52,3.75,4.11
		c6.56,19.22,12.89,38.52,19.48,57.73c1.56,4.55,1.67,9.11,1.8,13.78c0.12,4.56-0.58,9.22,0.78,14.25c2.46-2.81,1.65-5.57,1.65-8.08
		c-0.04-20.65,0.98-41.31-0.62-61.94c-0.77-9.94-1.84-19.87-2.85-29.79c-0.7-6.87-0.39-7.58,5.82-11.03
		c1.75-0.97,3.49-1.97,5.34-2.73c6.34-2.6,9.82-7.6,12.23-13.75c6.68-17.05,13.55-34.04,20.29-51.07
		c12.75-32.2,25.45-64.41,38.2-96.6c0.34-0.87,1.04-1.6,2.57-3.9c-0.08,10.47-3.36,18.65-5.18,27.06c-1.91,8.79-4,17.54-6.09,26.29
		c-2.09,8.74-4.14,17.5-6.44,26.19c-2.29,8.66-4.87,17.24-7.31,25.85c2.98,5.21,8.08,5.93,12.88,6.92
		c9.54,1.96,19.24,1.56,28.88,1.11c4.97-0.23,9.94-1.01,14.84-1.93c21.53-4.06,38.65-15.37,52.7-31.92
		c12.6-14.84,23.1-30.92,30.53-48.96c0.49-1.19,0.78-2.57,2.3-3.15c1.92,1.2,0.64,2.82,0.35,4.21
		c-2.99,14.35-7.65,28.28-10.99,42.52c-3.34,14.26-6.43,28.58-10.11,42.75c-9.9,38.14-23.01,75.12-40.23,110.59
		c-1.55,3.2-3.38,6.28-5.62,10.4c-0.35-11.93,3.79-28,10.12-36.57c10.13-13.71,15.8-29.19,19.64-45.54
		c0.37-1.59,1.06-3.17-0.14-5.36c-3.22,4.05-4.37,8.73-5.61,13.21c-7.05,25.53-21.71,46.12-40.84,63.91
		c-1.93,1.79-3.5,3.97-5.24,5.97c-3.63,1.1-6.28,3.67-9.08,6.02c-6.38,5.34-12.75,10.69-19.2,15.95c-1.43,1.17-2.76,2.94-5.46,2.07
		c-0.49-2.59,0.57-5.06,1.22-7.58c3.34-12.88,6.94-25.7,9.94-38.66c2.4-10.36,4.14-20.87,6.03-31.34c0.39-2.13,1.1-4.7-2.58-6.08
		c-2.92,7.43-6.13,14.69-8.65,22.19c-5.89,17.48-16.35,31.74-29.3,44.63c-12.54,12.48-26.28,23.53-39.59,35.1
		c-4.67,4.06-9.13,8.23-13.28,13.16c2.81,1.3,3.96-0.12,5.14-1.16c2.99-2.64,5.89-5.39,8.87-8.05
		c14.4-12.85,29.49-24.91,43.07-38.69c10.88-11.04,20.27-22.94,25.8-37.58c0.32-0.84,1.13-1.49,1.73-2.25
		c1.91,1.45,1.1,3.13,0.72,4.59c-3.54,13.86-7.15,27.71-10.73,41.56c-1,3.86-2.03,7.72-2.91,11.61c-0.43,1.92-0.92,4,1.52,5.49
		c3.58,0.21,5.72-2.67,8.21-4.67c8.05-6.46,16.03-13,23.92-19.65c2-1.69,3.57-3.9,5.34-5.87c7.14-2.98,11.73-9.42,17.77-14.3
		c2.25,3.71,0.93,6.48,0.43,9.35c-1.22,7.12-4.18,14.1-1.21,21.57c1.02,2.56-0.75,5.21-1.96,7.56
		c-5.76,11.25-11.41,22.57-17.49,33.65c-12.17,22.19-24.92,44.07-36.81,66.41c-11.28,21.19-20.13,43.51-27.99,66.18
		c-6.43,18.57-12.34,37.31-18.62,55.93c-2.97,8.82-5.14,17.77-5.07,27.89c-1.13-1.26-1.57-1.75-2.02-2.25
		c-4.59,8.91-7.84,26.04-6.05,34.18c1.4-7.48,2.54-15.04,6.16-24.46c1.77,10.67-0.01,19.09-0.25,27.38
		c-0.24,8.63-0.78,17.29-1.05,25.94c-0.27,8.63-0.77,17.26-1.15,25.44c-1.79,2.71-4.16,2.96-6.49,2.74
		c-3.87-0.36-6.11-2.94-5.57-6.78c0.64-4.62,2.03-9.09,4-13.36c3.79-8.22,5.55-16.88,5.79-25.97c-2.94-0.18-2.73,1.9-2.91,3.28
		c-1.12,8.3-2.88,16.37-6.76,23.9c-1.05,2.04-1.4,4.44-2.17,6.64c-2.37,6.79-0.99,12.42,5.04,16.65L243.74,1969.64z M243.37,1761.19
		c-6.49,9.79-11.87,34.41-10.11,44.44C236.85,1789.84,240.11,1775.51,243.37,1761.19z M182.52,2045.72
		c3.35-20.84,3.36-29.17,0.21-35.29C181.75,2022.8,180.86,2034.26,182.52,2045.72z M171.7,1922.41c7.28,1.7,7.28,1.7,12.02-0.56
		C179.48,1921.29,175.64,1921.22,171.7,1922.41z"/>
	<path class="st0" d="M697.98,1725.51c-10.42,1.02-15.33-5.98-19.76-15.01c-0.29,7.64,1.11,12.39,6.53,14.86
		c9.82,4.49,12.02,12.59,12.54,21.91c0.26,4.56,1.59,8.67,5.1,11.51c3.74,3.03,4.95,6.93,5.36,11.35c0.19,1.99,0.29,3.99,0.48,5.98
		c0.43,4.48,1.58,8.54,6.11,10.69c1.22,0.58,2.39,1.23,3.43,1.77c-3.15,7.99-6.89,13.84-12.44,18.17
		c-3.94,3.08-8.46,4.71-13.95,3.65c-17.4-3.36-28.91-15.79-31.1-34.27c-0.12-0.99,0.03-2.02-0.15-2.99
		c-2.29-12.72,2.83-21.29,14.56-26.25c1.14-0.48,2.56-0.81,3.17-2.86c-5.4-1.74-8.93,3.59-14.42,3.56
		c-4.02-9.66-11.51-14.16-22.67-12.44c4.86,6,4.95,6.01,4.46,14.21c-0.74,12.62,2.04,24.48,7.37,35.82
		c2.53,5.38,2.55,5.37,1.93,11.19c-6.6,0.75-7.76,0.2-8.36-4.59c-0.33-2.63-0.22-5.32-0.26-7.99c-0.07-4.32-0.18-8.45-2.71-12.44
		c-2.79-4.4-1.96-9.67-1.55-14.65c0.32-3.84,0.84-7.67,0.47-11.55c-4.22,8.89-6.11,18.22-2.05,27.43c2.38,5.4,3.55,10.64,3.35,16.37
		c-0.02,0.67-0.14,1.38,0.05,1.99c2.41,7.96,1.28,15.58-1.53,23.27c-1.8,4.93,0.11,9.79,2.38,14.07
		c-7.05,8.68-18.33,12.98-28.59,10.38c-10.87-2.75-17.83-9.43-20.32-20.9c-2.42-11.14-0.5-21.88,1.78-32.58
		c1.78-8.4,7.56-13.78,16.04-16.35c-4.24-3.82-4.25-3.82-5.14-8.95c-0.69-3.96-1.66-7.75-5.14-10.04c-1.67,0.48-1.62,1.43-1.21,2.34
		c3.58,8,2.98,14.99-2.97,22.13c-5.42,6.5-7.11,14.92-7.58,23.39c-0.18,3.29,0.46,6.65-0.89,10.33c-6.32,3.39-11.96,0.57-15.81-3.85
		c-8.99-10.31-12.47-22.77-9.69-36.27c1.89-9.17,7.69-13.26,17.06-13.72c1.66-0.08,3.32-0.15,4.98-0.28c0.3-0.02,0.58-0.31,0.9-0.49
		c0.73-1.87-0.87-2.23-1.94-2.5c-3.84-0.95-6.39-3-7.86-6.85c-1.43-3.75-4.34-6.58-7.1-9.52c-5.25-5.58-9.9-11.7-12.87-18.88
		c-4.49-10.83-5.33-22.07-2.35-33.29c5.29-19.89,0.73-38.14-8.06-55.91c-6.67-13.5-14.86-25.99-24.69-37.4
		c-5.03-5.84-8.72-12.59-12.61-19.18c-7.23-12.24-8.03-25.09-3.6-38.46c7.99-24.06,23.99-41.44,46.18-52.68
		c14.74-7.47,25.92-17.94,35.66-31.06c24.83-33.46,47.79-68.17,70.87-102.82c0.52-0.78,1.25-1.42,2.1-2.38
		c1.49,2.67-0.23,4.7-0.81,6.67c-3.53,11.89-5.53,23.96-5.55,36.4c-0.01,10.31,0.68,20.65-0.73,30.95
		c-0.41,3.01-0.02,6.02,2.59,8.13c3.69,0.57,6.5-1.5,9.42-2.95c5.07-2.51,10.06-5.19,15-7.95c4.47-2.5,9.16-3.35,14.3-3.62
		c17.31-0.9,34.36-4.09,51.48-6.62c17.78-2.63,35.16-7.08,52.76-11.32c0.9,3.37-1.93,3.38-3.26,4.09
		c-5.21,2.78-10.54,5.33-14.87,9.78c16.78-1.63,32.58-7.16,49.34-11.58c-0.01,4.15-2.83,5.54-5,7.19
		c-12.99,9.85-25.93,19.78-39.11,29.39c-10.49,7.64-21.27,14.9-31.99,22.22c-2.41,1.65-5.12,2.88-8.14,4.55
		c-2.65-4.48-5.19-8.37-7.33-12.46c-2.78-5.32-2.25-8.35,1.98-12.54c4.82-4.77,10.96-7.51,16.93-10.44
		c4.78-2.34,9.76-4.26,14.64-6.38c2.71-1.18,5.59-2.09,7.57-4.34c-0.5-1.61-1.55-1.31-2.36-0.97c-8.91,3.72-17.86,7.34-26.65,11.31
		c-4.86,2.19-9.32,5.19-13.06,9.08c-5.06,5.26-5.54,9.96-1.77,16.18c8.03,13.22,7.96,13.13-4.35,21.22
		c-13.34,8.77-26.53,17.77-39.82,26.62c-3.85,2.56-7.8,4.97-11.48,7.3c-8.94-6.53-9.86-14.02-3.15-21.15
		c3.51-3.73,7.96-6.04,12.5-8.11c11.9-5.42,22.67-12.65,33.17-20.32c1.59-1.16,3.36-2.16,4.09-4.23c-1.82-1.71-3.11,0.01-4.25,0.84
		c-11.89,8.65-24.59,15.91-37.72,22.48c-2.95,1.48-5.83,3.29-8.34,5.43c-8.17,6.94-9.26,14.82-3.59,23.94
		c0.69,1.11,1.56,2.12,2.2,2.97c-0.19,3.06-2.34,4.2-4.19,5.57c-2.95,2.17-5.85,4.42-8.88,6.46c-8.47,5.71-15.6,12.49-18.23,22.64
		c-8.5,0.22-10.93-1.94-10.77-8.98c0.12-5.42,2.89-9.51,6.56-13.03c3.61-3.46,7.8-6.22,12.14-8.73c3.7-2.14,7.27-4.5,10.97-6.81
		c-1.84-2.57-3.18-0.91-4.39-0.23c-4.94,2.77-9.89,5.53-14.7,8.51c-4.88,3.02-8.98,6.84-11.6,12.11c-1.51,3.05-2.7,6.16-2.36,9.56
		c1.02,10.21-1.25,19.85-5.18,29.09c-3.35,7.89-2.53,15.1,2.85,21.49c4.73,5.62,5.77,12.03,4.67,18.72
		c-1.41,8.63-0.68,17.3-1.32,25.93c-0.26,3.53,0.71,7.32,1.87,10.74c1.85,5.48,5.53,8.98,11.9,8.68c3.96-0.19,7.94-0.03,11.78-0.03
		c5.45,7.8,5.32,16.44,7.4,24.31c2.1,7.94,8.74,14.32,8.13,23.12c-5.96,1.73-8,1.27-11.23-3c-3.07-4.06-4.53-8.82-5.54-13.77
		c-1.66-8.14-3.99-16.07-7.6-23.76c-2.78,1.08-1.24,2.83-0.95,4.01c1.92,7.75,3.89,15.5,6.07,23.18c0.9,3.18,2.13,6.33,3.66,9.26
		c2.94,5.65,7.18,9.68,14.16,9.11c2.51-0.21,4.58,0.29,6.32,2.15c7.08,7.56,15.41,13.61,23.71,19.7
		C700.23,1721.99,699.1,1723.75,697.98,1725.51z M589.71,1725.61c0.94,2.27,1.82,4.62,5.53,4.64c-0.95-3.31-3.3-3.92-5.67-4.49
		c-0.59-1.54-0.98-3.2-1.79-4.62c-7.82-13.68-11.73-28.12-8.94-43.95c0.09-0.49-0.53-1.11-0.82-1.67c-0.51,0.31-1.41,0.55-1.49,0.94
		c-3.03,15.23-0.79,29.67,6.69,43.28C584.68,1722.42,586.65,1724.65,589.71,1725.61z M796.27,1418.02
		c-1.14-2.79-2.28-5.58-4.02-9.83C791.81,1414.84,791.81,1414.84,796.27,1418.02z"/>
	<path class="st0" d="M1009.58,1055.77c-0.44,0.49-0.8,1.11-1.34,1.45c-9.28,5.79-11.15,5.52-19.83-3c0.7-2.67,1.45-5.52,2.15-8.21
		c-1.86-4.11-3.58-8.04-5.41-11.91c-1.28-2.71-1.06-5.13,0.95-7.36c0.25,1.34,0.6,2.6,2.92,2.4c1.61-2.81,3.39-5.89,5.16-8.97
		c1.17-1.05,1.28-2.38,0.45-3.54c-1.16-1.62-2.48-3.14-3.89-4.53c-22.49-22.26-37.43-49.01-47.45-78.83
		c-4.87-14.49-9.3-29.18-16.37-43.48c-5.12,0.25-8.89-3-12.64-6.29c-26.78-23.47-53.62-46.88-80.31-70.46
		c-7.48-6.61-14.54-13.7-21.77-20.59c-2.18-2.08-4.28-4.23-4.69-7.45c-1.44-11.47-2.69-22.97-5.31-33.94
		c3.12-2.38,5.07-0.42,6.93,0.65c5.46,3.15,11.12,3.2,16.15-0.11c6.82-4.48,13.11-3.26,19.79-0.09c6.31,2.99,12.8,5.62,19.15,8.53
		c2.99,1.37,6.13,2.65,8.01,5.62c0.54,2.47-1.22,3.65-2.67,4.98c-3.92,3.61-7.67,7.42-11.8,10.76c-7.54,6.1-11.99,5.8-19.32-0.74
		c-2.26-2.01-4.07-4.35-5.66-6.93c-2.42-3.92-5.04-7.72-8.14-12.43c2.44,12,9.41,21.82,17.97,26.68c3.55,2.02,6.79,2.16,10.34,0.22
		c5.63-3.07,10.34-7.23,14.85-11.7c3.04-3,5.62-6.68,10.26-7.69c4.3,1.11,7.4,4.26,10.99,6.62c3.24,2.13,6.56,4.12,9.54,5.97
		c2.29-1.66,2.06-3.38,2.01-5.01c-0.13-4.66-0.06-9.34-0.51-13.96c-0.64-6.49,2.77-9.86,8.27-12c7.4-2.89,14.97-2.73,22.6-1.34
		c3.11,0.57,5.41,2.25,6.9,5.18c6.34,12.45,12.78,24.85,19.14,37.28c0.28,0.55,0.17,1.29,0.34,2.75c-4.72,0.66-9.6,0.47-14.32,0.86
		c-15.72,1.31-28.51,8.45-40.01,18.53c-2.76,2.42-5.39,4.94-8.6,6.78c-5.71,3.27-11.29,3.3-16.98-0.2c-3.74-2.3-6.76-5.37-9.93-8.32
		c-1.79-1.67-3.14-4.21-7.35-4.17c5.65,8.14,12,14.19,20.21,17.85c3.98,1.78,8.48,1.17,12.61-0.76c4.27-2,7.97-4.73,11.43-7.93
		c8.93-8.27,19.1-14.19,31.08-17.26c7.32-1.88,14.56-1.01,21.83-1.37c2.54-0.13,4.51,1.11,5.77,3.28
		c6.71,11.57,16.12,21.09,24.07,31.33c-0.65,2.69-2.49,2.56-4.06,2.56c-15.57,0.06-29.2,5.79-41.93,14.2
		c-2.78,1.84-5.39,3.93-8.23,5.67c-7.04,4.3-14.5,3.32-19.64-3.09c-3.31-4.13-5.88-8.87-8.67-13.4c-2.08-3.37-3.83-6.98-9.18-10.55
		c5.5,11.22,10.17,20.54,17.37,28.15c4.61,4.87,13.78,8.12,21.81,2c7.17-5.47,14.71-10.37,23.09-13.82c9.28-3.82,18.77-6.79,29-6.54
		c3.11,0.08,5.71,0.87,8.24,2.87c12.07,9.53,22.99,20.12,31.75,32.85c-0.49,2.21-2.37,2.3-3.92,2.23
		c-16.29-0.78-30.54,5.76-44.79,12.31c-4.23,1.95-8.34,4.23-12.69,5.85c-6.07,2.25-9.23,1.2-12.91-4.03
		c-2.1-2.98-3.82-6.25-5.56-9.47c-2.89-5.34-6.67-9.84-11.81-13.46c-1.52,2.74,1.19,3.53,2.04,4.93c2.41,3.97,5.53,7.55,7.65,11.65
		c2.95,5.7,5.9,11.22,11.74,14.49c2.25,1.26,3.03,3.45,3.71,5.69c1.17,3.82,2.24,7.66,3.41,11.48c1.65,5.41,2.96,10.97,5.72,15.96
		c3.36,6.07,8.48,9.52,15.56,8.48c11.47-1.7,22.95-2.89,33.99-7.42c13.21-5.42,27.01-9.39,41.41-10.81
		c6.89-0.68,11.89,1.17,16.61,6.57c9.86,11.26,20.49,21.85,30.78,32.73c0.89,0.95,1.63,2.04,2.68,3.38
		c-2.58,5.87-7.83,8.04-13.19,9.48c-7.06,1.88-14.25,3.49-21.48,4.45c-19.45,2.58-38.82,5.9-58.55,5.9
		c-9.32,0-16.82-3.21-22.48-10.73c-2.83-3.75-5.24-7.68-6.9-12.09c-1.74-4.62-3.58-9.24-9.06-14.19
		c4.71,12.99,8.2,24.21,17.23,32.55c4.75,4.4,10.3,7.06,16.94,7.7c7.34,0.71,14.58,0.79,21.9-0.21c13.51-1.85,27.08-3.35,40.59-5.23
		c13.57-1.89,27.12-3.99,37.3-13.05c3.63-0.04,5.15,1.9,6.71,3.54c5.28,5.55,10.57,11.09,15.6,16.86c3.8,4.35,6.27,9.39,6.12,15.42
		c-0.14,5.4-1.82,7.78-6.92,9.66c-4.29,1.58-8.46,1.08-12.69-0.4c-3.58-1.25-5.53-3.49-5.49-7.36c0.03-2.33,0.16-4.69-0.1-6.99
		c-0.6-5.24-1.54-10.41-6.06-13.99c-1.92,1.62-0.78,2.84-0.27,3.92c5.02,10.83,4.28,22.01,2.16,33.3c-0.46,2.46-1.84,4.13-3.68,5.7
		c-9.7,8.31-19.23,8.81-32.53,1.32c-0.26-9.42,5.09-18.73,2.69-29.07c-3.32,2.24-2.81,5.05-3,7.58c-0.57,7.69-2.28,15.13-4.97,22.34
		c-2.55,6.85-10.54,12.94-17.61,12.38c-6.54-0.52-13.21-1.71-17.82-6.47c-1.55-3.85,1.03-7,0.1-11.06c-3.32,2-5.31,5.77-9.98,5.02
		c-3.45-0.55-7.14,0.58-10.82-0.47c-3.96-1.13-7.55-2.56-9.55-6.53c-9.04,9.89-9.1,19.78-0.44,28.19c1.65,1.6,3.76,2.73,5.65,4.08
		L1009.58,1055.77z M1043.33,1024.35c11.01,2.74,14.66,2.01,21.89-4.65C1057.34,1022.05,1050.44,1023.7,1043.33,1024.35z
		 M1081.64,1014.62c3.72,1.68,6.22,1.77,9.24,0.24C1087.95,1013.07,1085.54,1013.43,1081.64,1014.62z"/>
	<path class="st0" d="M189.24,748.87c3.38,8.1,4.16,15.62,9.59,21.79c5.11-6.5-0.69-13.5,2.6-20.21
		c6.3,7.34,10.49,15.62,15.72,23.14c5.51,7.92,10.62,16.12,15.71,24.33c4.8,7.76,7.27,16.86,13.88,25.56
		c3.77-16.85,4.56-32.6,7.78-49.68c5.01,7.75,6.4,14.98,8.35,21.81c3.93,13.75,6.82,27.75,8.87,41.97
		c2.65,18.43,5.08,37.04,11.84,54.53c4.52,11.7,8.54,23.79,16.79,33.69c2.55,3.07,3.12,6.31,1.93,10.21
		c-4.38,14.37-6.91,29.13-8.7,44.02c-0.41,3.41-1.39,6.43-3.7,9.04c-8.6,9.71-17.13,19.48-25.76,29.17
		c-0.59,0.66-1.69,0.87-2.55,1.29c-3.17-1.81-3.06-5.03-3.85-7.81c-4.18-14.76-7.01-29.81-9.24-44.96
		c-1.18-8.06-3.73-15.42-7.96-22.37c-21.11-34.69-41.76-69.67-64.6-103.27c-2.91-4.28-5.08-8.42-3.03-13.88
		c9.19-24.53,12.75-50.23,15.45-76.09C188.38,750.83,188.58,750.53,189.24,748.87z"/>
	<path class="st0" d="M771.36,247.5c-2.65-2.15-5.87-2.91-9.02-4.01c-4.38-1.52-8.57-3.62-12.81-5.53
		c-1.46-0.66-3.21-0.98-4.05-2.98c29.05-9.28,57.69-19.45,81.11-38.15c3.15,0.19,4.22,1.43,5.13,2.86
		c8.02,12.61,16.04,25.22,24.05,37.84c12.88,20.31,20.33,42.41,22.72,66.39c0.71,7.13-1.07,13.76-0.82,22.54
		c-4.13-3.43-7-5.46-9.46-7.9c-27.14-26.89-57.93-48.82-91.28-67.28c-1.74-0.96-3.38-2.1-5.06-3.15c2.41-0.32,5.11,0.77,7.89-1.95
		C776.32,245.6,773.7,245.13,771.36,247.5z M794.05,227.3c0.55,0.59,0.8,1.05,0.97,1.02c6.48-1.22,12.95-2.46,19.41-3.74
		c1.29-0.26,2.61-0.53,3.81-1.03c3.42-1.45,4.78-4.13,3.7-7.02c-1.04-2.79-3.16-3.18-7.43-1.23c-0.52,0.24-0.79,1-1.17,1.5
		c0.17,2.08,3.41,0.43,3.34,3.59C809.56,223.1,800.58,221.55,794.05,227.3z"/>
	<path class="st0" d="M962.49,899.49c22.66-10.58,43.97-23.82,71.04-19.1c9.47,10.61,19.43,21.75,29.32,32.95
		c0.57,0.64,0.52,1.83,0.75,2.73c-2.19,2.84-5.42,2.75-8.22,3.13c-13.27,1.79-26.06,5.33-38.4,10.38
		c-9.69,3.96-19.8,5.68-30.11,6.38c-10.43,0.71-13.61-1.38-17-11.42C967.22,916.69,965.16,908.65,962.49,899.49z"/>
	<path class="st0" d="M863.56,320.57c-20.29,0.35-96.52-20.59-112.79-30.79c0.16-8.11,3.61-16.29,1.92-24.48
		c-1.64-7.98-4.59-15.69-7.04-23.79C769.67,246.04,848.31,298.21,863.56,320.57z"/>
	<path class="st0" d="M875.28,156.44c-4.78-0.48-7.98-3.76-11.29-6.9c-13.04-12.41-26.45-24.43-41.99-33.63
		c-16.6-9.82-33.6-18.96-50.42-28.4c-1.71-0.96-3.4-1.93-7.22-4.08c7.83-0.27,12.77,1.96,17.79,3.51
		c5.08,1.57,10.09,3.37,15.14,5.02c5.21,1.7,9.75,5.23,15.51,5.63c-11.85-11.98-27.41-17.86-42.1-25.49
		c0.91-0.79,1.36-1.5,1.78-1.48c21.34,0.96,40.42,7.11,55.42,23.36c16.97,18.38,32.62,37.76,46.72,58.41
		C875.32,153.41,876.29,154.48,875.28,156.44z"/>
	<path class="st0" d="M745.62,66.56c12.98-5.64,26.78-8.92,41.46-15.32c-8.12-3.94-14.79-2.58-21.21-2.97
		c-6.48-0.39-12.95-0.75-19.46-1.6c15.64-3.15,31.26-6.09,47.17-7.11c4.97-0.32,9.95-0.58,14.92-0.94c4-0.28,7.94-0.19,11.88,0.78
		c13.88,3.43,27.78,6.74,41.67,10.15c0.54,0.13,0.94,0.81,2.08,1.83C824.67,59.51,785.17,63.02,745.62,66.56z"/>
	<path class="st0" d="M243.7,1969.68c2.6-0.3,5.14-1.45,8.01-0.57c2.87,2.43,2.18,5.93,2.31,9.15c0.27,6.97,0.06,13.93,0.84,20.91
		c0.87,7.76,2.61,15.02,7.29,21.41c0.77,1.05,1.15,2.38,1.67,3.5c-0.36,3.42-2.77,5.4-4.92,7.32c-7.67,6.86-16.72,4.34-18.99-5.65
		c-2.29-10.08-3.12-20.39-0.39-30.6c2.24-8.37,3.49-16.89,4.2-25.51L243.7,1969.68z"/>
	<path class="st0" d="M648.5,1585.56c3.26,17.82,6.37,35.93,8.8,53.4c-1.28,1.31-1.65,2-2.2,2.21
		c-13.41,5.01-19.51,0.96-19.66-13.51c-0.12-11.57,0.24-23.16,0.61-34.73C636.3,1584.94,638.54,1583.63,648.5,1585.56z"/>
	<path class="st0" d="M1093.83,1059.93c-1.85-3.37-5.03-2.68-7.92-2.41c-4.95,0.47-9.87,0.8-14.82-0.06
		c-2.35-0.41-4.55-0.89-6.36-3.59c1.79-6.54,5.31-12.75,9.08-19.72c12.16,4.07,24.38,7.55,36.75-3.09
		c-1.4,13.51-6.5,22.65-16.86,28.72L1093.83,1059.93z"/>
	<path class="st0" d="M902.86,747.29c-2.13-3.93-1.23-7.37-1.76-10.59c-1.08-6.55-0.7-13.26-2.51-19.74
		c-0.64-2.29-0.55-4.73,3.14-5.64c6.78,4.33,10.61,12.05,16.7,17.55c3.04-1.51,1.82-4.04,1.51-6.14c-0.58-3.87-2.88-7.37-2.63-12.4
		c3.69,2.97,4.06,7.07,5.8,10.29c2.05,3.79,3.92,7.71,5.54,11.7c1.47,3.63,3.34,7.2,3.65,11.34c-4.87,3.73-9.86,0.55-14.59,0.89
		C912.73,744.9,908.27,747.83,902.86,747.29z"/>
	<path class="st0" d="M232.93,1601.44c-2.53-4.58-18.23-48.21-19.37-54.07c4.72-3.39,10.11-5.21,15.99-5.7
		C233.22,1552.79,235.23,1589.38,232.93,1601.44z"/>
	<path class="st0" d="M647.19,1579.13c-4.03,2.8-7.09,2.16-10.01,2.02c-7.11-0.34-12.33-6.72-10.4-13.6
		c2.05-7.31,4.77-14.43,6.33-21.91c0.24-1.15,1.46-2.09,2.01-2.83c3.71-1.01,6.2,0.75,9.38,2.37
		C645.29,1556.45,647.87,1567.74,647.19,1579.13z"/>
	<path class="st0" d="M1142.66,1015.71c1.38,7.48-0.79,13.88-1.8,20.36c-0.65,4.21-2.76,5.67-6.98,5.11
		c-4.23-0.56-8.41-1.55-12.55-2.62c-2.27-0.59-4.82-1.96-4.84-4.42c-0.03-5.45-1.57-11.03,0.49-16.69
		c4.84,0.21,9.44-0.02,13.86,0.73C1135.17,1018.89,1138.6,1015.18,1142.66,1015.71z"/>
	<path class="st0" d="M1021.1,1053.88c2.57-5.87,7.83-8.31,9.91-13.64c5.68,2.03,10.54,4.09,15.58,5.46
		c5.05,1.38,10.35-0.37,15.68-0.09c-2.2,7.66-2.2,7.66-8.03,13.88C1043.17,1060.09,1031.89,1061.29,1021.1,1053.88z"/>
	<path class="st0" d="M827.99,744.93c-8.08,8.53-14.29,6.24-20.18,2.29c-8.75-5.86-15.03-13.65-17.26-24.1
		c0.85-1.17,2.01-1.37,2.76-0.77C803.9,730.83,815.34,738.02,827.99,744.93z"/>
	<path class="st0" d="M1009.75,1055.89c-0.84-3.77-3.79-6.15-5.9-9.09c-3.96-5.52-3.92-7.99-0.12-15.91
		c3.99,0.99,8.08,2.13,12.23,2.98c3.81,0.79,7.91-0.54,11.64,1.19c-1.45,8.77-7.23,15.35-18.01,20.71L1009.75,1055.89z"/>
	<path class="st0" d="M300.17,2069.39c6.3-6.3,9.55-12.99,9.65-21.29c11.81,6.84,14.34,16.57,7.56,25.9
		c-2.26,3.11-5.13,3.84-8.66,2.07c-1.17-0.59-2.24-1.41-3.27-2.22C303.92,2072.64,302.47,2071.35,300.17,2069.39z"/>
	<path class="st0" d="M1113.23,1040.23c8.14,1.84,14.27,3.07,20.31,4.64c5.09,1.32,6.48,3.38,5.89,7.62
		c-0.63,4.55-3.31,7.09-7.95,7.33c-3,0.16-5.96-0.28-8.75-1.47c-2.91-1.25-5.08-3.13-5.32-6.55
		C1117.17,1048.14,1116.3,1044.66,1113.23,1040.23z"/>
	<path class="st0" d="M1115.25,1060.04c7.68,1.41,14.88,5.48,22.65,3.84c2.53,3.03,2.14,6.07,1.56,8.94c-1,5.02-4.64,6.84-9.57,5.02
		c-1.86-0.69-3.63-1.61-5.51-2.26C1115.03,1072.34,1114.32,1071.21,1115.25,1060.04z"/>
	<path class="st0" d="M1134.08,1085.28c-4.82,8.25-11.47,10.89-18.49,7.34c-5.93-2.99-6.8-8.04-2.73-15.83
		C1123.92,1078.32,1127.17,1079.61,1134.08,1085.28z"/>
	<path class="st0" d="M697.98,1725.51c1.12-1.76,2.24-3.52,3.36-5.28c2.85,1.71,3.69,4.51,4.2,7.56c1.26,7.52,1.86,15.18,5.09,22.28
		c1.11,2.44,0.19,4.57-2.51,5.59c-2.66,1.01-4.63-0.06-5.77-2.39c-0.87-1.77-1.62-3.73-1.82-5.67c-0.55-5.32-1.34-10.54-3.68-15.42
		C695.67,1729.73,697.51,1727.72,697.98,1725.51z"/>
	<path class="st0" d="M974.63,1001.23c4.4,2.73,6.31,5.67,8.52,8.37c-2.2,2.76-6.42-0.88-7.69,3.13c0.14,0.26,0.23,0.69,0.43,0.74
		c10.64,3.02,10.72,3.22,4.78,12.77c-3.06,0.54-6.2,1.69-9.99-0.03C968.9,1017.94,972.89,1010.47,974.63,1001.23z"/>
	<path class="st0" d="M721.12,1775.79c-0.28,2.57,0.76,6.02-3.19,7.16c-2.95,0.85-5.18-1.44-6.01-6.18
		c-0.85-4.86-1.56-9.75-2.28-14.63c-0.21-1.41,0.27-2.62,1.6-3.29c1.75-0.88,3.13-0.25,4.32,1.15
		C718.48,1763.46,721.06,1770.66,721.12,1775.79z"/>
	<path class="st0" d="M984.22,1051.95c-5.44-4.24-9.42-8.52-12.72-13.43c-1.37-2.04-2.01-4.32,0.24-6.17
		c2.12-1.75,5.18-3.13,7.15-0.98c4.39,4.79,8.31,10.14,7.42,17.3C986.2,1049.53,985.32,1050.28,984.22,1051.95z"/>
	<path class="st0" d="M1044.52,1065.33c-11.82,3.65-22.98,0.86-34.26-2.27c0.54-4.54,4.42-4.26,6.24-6.8
		C1025.46,1061.29,1035.1,1062.78,1044.52,1065.33z"/>
	<path class="st0" d="M1071.05,915.85c4.85,1.29,6.77,5.27,9.63,6.46c3.69,1.54,7.19,3.11,10.15,5.67c2.65,2.3,6.41,3.69,7.18,7.87
		c-1.62,3.34-4.21,4.45-7.05,1.93c-4.18-3.72-8.17-7.72-11.78-11.99C1076.63,922.8,1072.87,920.56,1071.05,915.85z"/>
	<path class="st0" d="M345.43,2083.79c-8.62-4.25-18.07-7.85-18.31-20.14C335.95,2065.82,341.67,2071.79,345.43,2083.79z"/>
	<path class="st0" d="M1093.71,1059.79c-10.96,8.29-22.76,9.61-35.83,4.45c0.18-3.8,1.67-6.25,5.44-5.02
		c10.16,3.32,20.32,1.6,30.51,0.71L1093.71,1059.79z"/>
	<path class="st0" d="M639.17,1839.45c-2.28,9.33-10.91,20.41-20.73,25.93c1.43-4.22,0.58-8.4,6.12-9.31
		c2.42-0.4,3.19-3.14,4.25-5.19c1.37-2.64,2.68-5.32,4.12-7.93C634.26,1840.55,635.98,1838.68,639.17,1839.45z"/>
	<path class="st0" d="M1095.76,943.94c2.01-2.59,3.63-3.68,6.14-4.53c5.06,2.05,7.53,6.54,8.79,11.81c0.43,1.81-1.02,2.98-2.88,3.35
		c-1.79-0.17-2.96-1.4-4.12-2.55C1101.12,949.46,1098.62,946.85,1095.76,943.94z"/>
	<path class="st0" d="M648.26,1823.61c-3.63-0.6-4.42-2.94-3.99-5.21c1.04-5.57,1.91-11.36,7.56-16.5
		C653.76,1810.66,651.58,1817.23,648.26,1823.61z"/>
	<path class="st0" d="M694.97,1832.72c-1.79-1.95-1.75-4.01-0.73-5.09c4.94-5.2,5.17-13.94,14.02-17.73
		C705.79,1819.51,701.56,1826.68,694.97,1832.72z"/>
	<path class="st0" d="M591.31,1817.49c-1.91,6.07-6.54,9.37-11.77,13.22c-1.9-4.25-1.18-7.75,1.73-8.48
		c3.73-0.93,5.09-4.13,7.94-5.64C589.54,1816.41,590.29,1817.03,591.31,1817.49z"/>
	<path class="st0" d="M1112.48,1096.95c-2.1,1.25-3.48,2.11-5.37,1.18c-2.34-2.39-0.78-5.29-0.71-9.13
		C1109.15,1091.85,1111.57,1093.8,1112.48,1096.95z"/>
	<path class="st0" d="M1105.05,1106.42c2.34-3.72,5.74-4.84,11.54-5.35C1112.36,1105.14,1109,1106.44,1105.05,1106.42z"/>
	<path class="st0" d="M277.11,2037.82c0,1.05-0.42,2.14-1.44,2.14c-2.31-0.01-3.46-1.52-3.56-3.73c-0.02-0.5,0.46-1.28,0.92-1.5
		C274.58,2033.95,276.79,2035.69,277.11,2037.82z"/>
	<path class="st0" d="M1112.03,957.63c3.37,0.85,3.4,2.98,4.04,4.73C1113.22,961.49,1113.22,961.49,1112.03,957.63z"/>
	<path class="st0" d="M992.95,1019.47c-1.72,1.3-3.45,2.6-5.17,3.9c0.67-2.08,0.31-4.54,2.21-6.16
		C991.48,1017.36,992.21,1018.42,992.95,1019.47z"/>
</g>
</svg>
