<?xml version="1.0"?>
<svg xmlns="http://www.w3.org/2000/svg" version="1.2" baseProfile="tiny" width="800" height="584" viewBox="0 0 800 584" stroke-linecap="round" stroke-linejoin="round">
<g id="ne_10m_lakes">
<path d="M 662.749 327.9808 655.8422 324.6185 624.3634 320.219 621.2972 321.3724 615.6512 325.037 612.8393 325.8743 577.9616 324.4739 575.5502 326.738 572.0994 324.8219 570.5065 325.006 569.879 326.5455 568.6366 331.1513 567.7628 332.1609 566.5184 332.6428 565.6456 333.7283 564.1965 337.5735 565.7954 339.2234 571.5415 341.098 570.8394 342.1045 570.5174 342.4926 570.0512 342.7307 573.2968 344.9575 580.4421 342.0619 583.3549 346.1999 576.7553 351.3782 569.5811 354.1938 554.9858 355.6063 556.0232 358.3372 556.5737 359.2439 555.5501 360.1016 555.2958 360.8695 555.5303 361.7054 555.9118 362.8441 550.342 363.9309 547.7164 366.1116 545.6676 370.0383 547.9774 373.59 532.4892 367.2557 529.9521 367.1375 528.1191 370.2923 537.3762 376.3485 537.7598 377.7936 538.4617 381.6008 538.9 382.4342 545.2535 386.0022 550.7012 393.7021 555.0526 395.7667 556.5029 398.2612 558.4109 404.2593 560.1132 405.6033 568.5181 408.6544 579.8759 408.4276 581.387 409.4648 588.8595 419.9924 591.6001 426.1917 593.3075 429.3596 592.0525 432.9764 593.518 438.0582 595.8788 443.1954 597.3422 447.2839 582.1333 440.9035 572.0357 442.4066 570.5711 441.5954 569.1908 440.1715 567.8759 439.6622 565.3343 443.4505 563.9296 444.1635 562.532 443.502 561.3041 441.6158 560.0213 440.1883 558.8156 441.3547 557.6717 443.3595 556.5275 444.4481 553.265 443.664 552.3158 444.0615 552.8299 446.2667 551.2238 449.4231 546.2388 455.9153 542.531 458.7205 540.2531 462.3421 538.906 466.4074 539.7968 469.4474 536.2893 480.4888 535.1747 482.1074 526.993 482.2937 525.1288 483.0805 521.182 486.6396 512.7846 491.2376 508.8267 494.7894 503.5247 502.7776 499.8817 505.0237 496.0007 509.9405 493.3129 511.7171 492.6501 513.401 492.1967 515.1596 491.7392 516.3839 489.6284 518.3073 483.114 521.7852 481.5151 523.779 481.3412 527.0609 468.6124 536.1293 456.5419 536.7794 453.9795 538.7688 452.6582 540.2209 448.7671 540.761 447.2343 542.2123 446.1375 544.0444 442.8914 547.7084 441.5821 548.3954 431.9621 548.8484 426.507 552.1201 428.1037 554.8694 428.75 555.4808 428.7469 557.388 423.5668 557.3774 424.2431 558.9809 423.3205 558.8262 420.4867 558.9712 421.6653 566.4501 418.2665 570.0252 413.5055 572.5255 410.6487 576.7853 413.4187 578.3222 414.408 578.6311 412.2732 580.6058 409.7333 582.0442 407.1155 582.566 404.6995 581.6386 400.5399 578.9462 399.2484 577.642 397.9682 577.2528 395.2412 579.7525 393.9224 580.2777 391.8535 578.8142 388.8225 573.6053 376.7535 562.4432 378.2754 560.7026 376.638 555.5 376.4522 550.9973 377.5542 547.1166 379.8951 543.7046 383.8678 539.9238 385.2439 539.4773 386.6239 538.4964 387.6575 536.2919 388.8179 534.317 390.5459 534.101 389.7255 536.0023 392.129 538.5375 400.9836 543.0191 400.9938 541.1882 400.2033 541.031 397.9349 539.5677 398.515 537.0536 399.5018 536.6781 402.1757 537.6853 403.3423 536.8525 405.7975 533.2031 407.0275 532.3699 410.1222 532.9184 413.0692 534.2278 413.6472 534.993 413.8161 537.2825 414.5247 537.743 415.3165 537.517 416.6924 536.3775 423.2133 536.1679 424.281 535.026 426.3401 530.0713 427.7128 528.9294 429.8099 528.0937 437.0991 521.8442 434.9602 517.4175 432.4364 514.5155 430.9283 511.2326 431.8194 505.7397 434.5546 501.3166 441.4112 498.4953 444.5559 496.1283 451.0439 489.2528 457.9891 484.5066 463.0966 483.6517 464.6791 482.7303 465.672 478.3766 466.1479 477.23 467.0733 476.5395 467.8574 476.5363 468.6242 476.2279 470.8313 472.4022 473.5994 469.4126 476.0739 465.7364 479.2765 464.1921 480.5906 462.2 481.2161 459.9828 481.9089 455.7806 482.7552 453.3329 495.9972 434.3826 498.2027 430.0129 500.1252 424.4999 501.4277 419.2209 503.5585 407.7502 502.7345 406.0021 503.2141 404.7762 504.2211 400.7205 502.119 399.2898 498.1416 394.8975 496.0286 393.694 498.3855 391.9943 499.4805 390.6869 500.3773 388.4649 498.9984 387.9427 498.1173 386.4999 497.7977 384.2123 498.1195 381.232 462.8207 372.4361 450.7239 376.6652 445.7753 380.2594 442.2581 384.155 437.0794 385.4524 423.6793 396.1972 418.7755 396.5651 416.5357 399.3822 417.2471 399.5373 418.7299 400.9927 415.7896 404.4943 403.0179 411.9934 394.2422 420.489 381.2073 426.4943 374.9181 431.3217 370.4766 439.7503 373.8833 439.7083 375.5341 440.1824 377.1146 441.4186 375.7722 447.0544 374.0126 451.0829 369.4976 457.6014 366.7222 460.4722 365.3237 462.823 365.3107 465.4942 365.5658 467.0235 365.3457 468.166 365.0161 469.0782 364.9287 469.7642 365.7291 471.1468 366.941 471.4654 368.045 471.4009 368.6006 471.7884 368.6978 474.766 368.1372 476.3628 367.4196 477.6526 367.0306 479.6327 367.5268 482.6909 367.7584 485.0592 367.6992 487.6534 366.1847 492.9029 361.2836 496.5107 359.2994 500.1505 361.6227 502.0093 365.6158 507.0908 368.2164 508.9503 365.1496 514.5639 354.7074 513.2197 351.6637 516.0041 352.3888 515.9372 353.1422 516.1758 353.7121 516.9462 353.9337 518.5514 353.5691 520.6834 352.7479 520.6729 350.8645 519.3512 349.2286 520.0925 346.4526 522.9545 344.8419 522.9321 344.8148 524.9156 345.2364 525.9135 345.382 527.0601 345.0322 527.8945 343.4441 528.4826 343.1304 529.0122 342.864 529.6188 342.4395 529.9943 341.8322 529.604 340.7566 526.9941 340.313 526.4534 329.4152 530.6341 325.741 534.3885 323.6137 535.1917 316.4151 535.2173 314.566 536.6332 315.8339 538.8692 317.3273 540.2698 320.5266 542.0816 317.3429 545.8399 312.8365 544.7653 304.364 539.9473 300.3689 533.7621 298.2462 531.8105 257.7932 520.925 217.4686 509.7998 177.2751 498.4363 165.2689 490.477 161.0799 484.1206 162.1707 478.5148 168.1771 474.8647 205.1721 471.5945 206.3887 471.1023 208.8463 468.8963 210.0833 468.2514 211.8967 468.5419 215.4843 470.3419 217.4226 470.2534 219.8531 468.2716 224.4225 462.7693 231.8302 459.2608 245.1746 440.8776 243.0609 432.4172 242.6706 427.748 243.3467 423.0337 239.3652 414.7455 234.572 408.4916 229.1523 404.3524 223.3562 402.793 223.4169 400.8858 227.3968 400.7077 232.1408 402.4602 236.5937 402.3677 239.6985 396.4284 236.8372 396.3423 241.3191 385.9382 243.6739 383.1822 259.2754 381.4073 263.1075 379.1425 266.6923 374.731 274.4667 370.8809 279.4242 369.8565 286.8534 365.3729 289.9012 362.1586 291.1092 360.2003 294.4868 353.1733 295.0953 352.652 296.8191 352.1547 297.4934 351.4819 297.8003 350.343 298.3173 346.6887 298.6601 345.3215 301.2107 341.1752 306.978 335.184 309.5617 330.5008 310.611 318.3797 305.2025 310.5593 272.6708 296.1483 269.663 292.4821 268.2907 288.3225 270.5547 285.0205 268.4939 281.0724 264.7403 279.5228 247.1823 281.2491 243.9621 279.1686 247.3954 276.5963 263.6085 275.9032 265.4279 275.2641 266.9354 273.4708 268.6495 272.0643 275.1975 272.9183 285.3706 268.2765 302.8983 269.5036 305.9861 272.6216 307.3589 274.6349 309.1621 275.3581 319.1394 275.1663 325.3068 276.9562 343.9961 291.1516 390.9053 285.5575 402.8415 276.5491 404.0002 274.8757 404.7776 271.8257 405.2445 265.7198 405.8004 263.203 407.9572 256.4946 407.8388 252.2182 405.935 249.2308 398.3577 243.766 394.0054 242.7443 393.2774 242.9683 391.3186 244.4812 389.5861 246.6061 388.3835 246.1386 387.202 244.9839 386.1099 244.2878 374.887 248.8441 371.6824 246.0628 371.359 244.4559 370.3401 237.0386 369.318 234.4316 366.9004 231.1218 363.3927 224.9733 337.9937 207.829 298.4054 206.8138 258.8306 205.5598 219.2721 204.0673 217.4977 205.1531 219.4957 210.6439 227.6224 217.71 229.811 223.4327 221.3351 233.9263 218.8694 238.3507 217.7962 240.8353 216.8796 242.332 215.8782 242.2216 214.582 239.8857 213.8698 239.0211 212.8305 238.6797 211.7701 238.9486 210.969 239.761 210.094 241.793 210.1493 242.8644 210.6527 243.9514 211.1372 246.0307 212.3759 249.5875 212.9977 252.2061 212.9185 254.9534 211.2571 258.1807 209.1466 257.8016 205.3511 254.6884 204.459 253.2052 204.3953 250.2237 204.5354 247.1731 204.2291 245.7871 203.5385 244.7692 201.3036 238.5773 197.9225 231.3493 197.3093 228.7294 196.9627 226.4248 196.2548 224.718 194.6141 224.0458 168.2588 229.1206 141.8635 234.0893 132.0329 238.7562 113.2127 236.2433 109.8657 234.5477 106.6172 230.9445 101.5532 219.527 99.3522 217.961 56.0159 222.6777 54.716 223.5189 53.6998 225.8293 53.1551 228.7788 53.3476 231.5425 54.4507 233.2893 58.0931 235.2603 59.533 237.1021 55.9126 243.4664 55.2515 246.5623 55.7878 251.1808 56.4342 252.5946 57.3834 253.873 58.1785 255.6775 58.2981 258.4366 57.536 261.1446 56.2404 262.5983 50.959 264.2002 47.9519 263.5634 45.1913 261.4108 43.1722 257.5432 42.3496 252.1415 44.1597 251.1801 49.9521 252.5961 48.3898 249.1394 46.4576 247.4951 41.9875 246.844 39.8971 248.0935 35.9722 253.9707 34.2806 255.243 31.9248 258.4619 31.5623 266.0858 31.8975 274.5175 31.648 280.0838 32.0631 281.9445 31.9167 283.3118 31.2568 283.6533 28.6043 281.1948 25.188 279.5284 23.835 277.761 23.0268 275.2631 21.9076 267.8513 20.8408 265.7954 17.8435 263.0807 8.7612 246.3563 1.8335 227.0842 1.1243 223.1362 1 217.6212 1.1788 214.9564 1.5163 212.2256 2.0175 209.8117 2.7332 207.8711 5.9816 201.2041 6.5169 199.1746 6.4596 197.0294 6.224 195.2548 6.2846 193.4234 7.054 191.1036 8.1451 190.1815 13.385 188.0785 15.8191 186.3251 17.9985 182.5662 20.3921 179.9675 23.4362 181.5388 22.2408 184.1389 21.7893 184.9511 27.9277 191.5348 34.6324 189.7365 41.3606 185.4862 47.5492 184.9433 51.8753 189.8652 53.6299 190.5807 58.3161 191.0853 62.8164 192.9517 69.4546 197.5354 72.264 195.7064 73.8328 187.233 74.6513 184.1447 76.2339 183.01 79.426 183.2633 81.0424 182.0529 82.3378 179.1429 83.4936 175.6901 84.7066 172.8517 88.0554 169.288 91.6161 168.2562 95.0803 169.5866 101.448 175.7284 108.6302 179.0773 115.3997 184.3844 119.0444 183.5709 134.0484 173.0577 139.5024 167.0455 142.03 165.6332 150.6524 164.646 158.6031 160.4098 168.6003 159.5348 173.585 153.8581 186.0707 151.8357 192.1518 148.4034 197.842 147.0898 200.4368 145.3526 205.5979 140.0411 206.2299 138.1544 206.4458 135.5653 206.7597 133.2088 207.649 132.1714 209.0984 131.612 210.4702 130.6677 211.7689 130.4843 212.9338 132.3581 211.0347 133.5899 209.2871 135.6667 211.2781 136.5771 211.7124 139.342 210.8559 142.4433 208.9719 144.4389 211.6964 147.5138 214.656 148.3043 220.915 146.6848 221.3923 146.0898 222.2461 143.8272 222.8271 143.312 223.1412 143.9335 223.3532 146.2318 223.7309 146.7789 226.9326 146.7317 228.5078 146.0957 229.9198 144.3848 230.2435 142.8678 231.2296 135.4916 234.6657 128.4223 237.6245 126.1478 244.7931 129.6508 247.6895 127.8281 247.63 129.8118 251.7281 126.8772 265.7602 130.3231 273.8807 128.9321 281.781 125.2352 279.3839 123.3438 273.847 124.9607 271.2623 123.367 273.308 120.5946 275.0177 116.6678 276.8403 113.5834 279.2054 112.9553 278.2519 115.2985 277.974 117.8876 278.4447 120.2663 279.7408 121.8255 281.3578 121.4835 284.4761 117.4359 287.945 115.6856 291.0307 112.0924 292.6989 111.367 294.1217 112.0863 295.1857 113.9425 296.842 118.4839 295.6982 122.1234 294.0054 123.1545 292.0771 123.1872 290.2558 123.8326 290.2183 125.4352 292.7869 126.6392 296.0271 125.7192 299.1532 123.0391 301.3548 119.4981 303.802 116.4196 330.2754 110.9665 356.0668 92.8784 385.3402 85.4064 388.1394 82.5291 384.9566 79.2207 383.5434 77.1476 383.6405 74.7061 385.5569 72.5091 387.8908 72.4521 392.3662 73.8605 394.0564 73.3385 396.0538 71.9023 400.8729 66.6672 401.9555 64.2314 402.6939 63.9304 405.3639 65.0138 406.4761 65.096 406.4854 63.3407 405.8699 60.4374 406.781 58.6105 410.0074 56.1079 414.6632 48.3437 416.3468 47.2818 435.2208 50.9105 439.6315 49.7677 447.6201 44.7266 453.8362 43.0375 457.7851 40.6622 468.6337 38.4103 469.2616 34.9736 475.1202 30.9763 480.0684 25.9875 490.9319 27.8184 499.5784 25.3787 504.7674 25.7865 507.3865 24.7676 514.1019 19.047 516.1524 15.8182 518.6548 13.1174 528.9591 13.0593 540.6203 3.7306 546.8754 2.027 547.4501 2.5516 547.6349 3.7693 547.6218 5.6009 548.5358 5.0513 549.6286 2.8199 550.3283 1.9686 553.3627 1 555.9604 1.4114 558.3657 3.4277 560.8496 7.1204 559.3221 9.0567 553.2421 10.7693 556.8387 18.9464 562.9557 17.2297 569.6018 13.1308 574.7535 14.0931 569.2907 17.5632 571.8018 20.5648 575.1304 20.4957 592.124 13.7051 586.9093 15.8871 585.3435 17.2201 584.7654 18.6832 584.3055 20.7541 583.7127 22.9043 582.7338 24.5288 586.6645 27.1116 607.8748 29.1879 609.7909 28.1454 611.6917 26.5683 613.6126 25.7535 615.5224 27.2282 612.879 34.3984 613.9982 35.8949 614.9515 35.7164 615.9453 34.8496 617.097 34.2837 618.1719 34.712 620.2525 36.7914 621.307 37.5251 623.8239 38.0644 632.2362 36.9027 634.2034 35.6222 635.2632 35.5138 636.4167 36.0131 636.9319 36.6843 637.3072 37.6653 638.0986 39.015 640.2381 39.8649 641.068 40.9842 640.6943 43.3624 639.7817 44.8413 638.6397 45.7164 606.1211 55.7206 602.3579 59.4806 602.0196 62.6953 598.8167 65.6757 592.0613 68.739 591.2933 69.9784 590.4992 72.6688 589.3227 75.1389 587.3415 76.1004 581.2165 73.0309 578.917 72.5463 578.2279 73.4008 579.5175 75.2052 581.5911 76.9922 583.2516 77.7954 583.9578 77.7034 584.368 77.8469 584.5661 78.6059 584.6328 80.2075 584.3029 82.2761 583.3701 82.3732 581.1573 81.2004 575.2865 80.944 573.4918 82.3554 572.0408 84.3699 570.5356 86.0035 568.9462 86.4934 567.2609 85.229 567.8575 83.3851 565.5447 83.8884 562.5461 86.3886 559.6995 89.877 557.8614 93.3459 555.4595 96.6717 538.5635 100.6146 535.5612 103.1023 534.1322 103.6575 524.6649 99.3604 521.6958 100.0854 521.7203 101.9935 526.2284 104.3016 528.4343 106.2567 530.3171 108.8263 528.4456 111.4476 526.6207 113.1516 524.7089 114.0929 522.5917 114.4255 521.5334 115.813 518.1847 125.8546 516.6316 128.0107 514.7023 129.2545 510.7493 130.2911 505.5649 129.8873 502.8998 130.7533 500.9872 134.1305 501.6741 134.4294 503.1186 136.0187 501.6911 137.7883 500.1658 138.9477 498.5286 139.5733 496.809 139.5121 496.8245 141.2679 503.204 144.7211 501.9261 146.4129 500.5113 146.5788 497.4949 144.7738 499.6888 149.8692 503.5496 150.4436 510.9459 148.1534 509.2752 151.4542 507.5081 152.9996 499.0229 155.3721 497.8904 154.9242 496.3316 152.8001 495.5019 152.0438 493.3789 151.527 491.2782 151.8492 489.3372 153.162 487.6162 155.4651 486.9019 157.9133 486.3277 160.8185 485.3533 163.3448 483.4372 164.503 484.2655 165.0319 486.2863 165.705 486.9934 166.3108 487.2761 167.3776 487.7926 171.1149 488.1238 172.4867 489.7133 174.3835 491.4703 174.1409 498.7094 169.5755 500.6852 170.0156 504.2153 174.5629 506.1447 174.7727 509.8747 173.1307 513.8207 173.1637 515.7708 172.5307 518.6374 168.0685 520.2437 166.9801 522.0616 166.9576 536.1193 174.2487 540.4696 174.6415 537.0013 180.0386 538.9034 183.2934 542.1683 185.3813 548.5664 186.8056 551.3779 186.3003 553.915 185.0349 562.0692 177.0233 565.1863 175.9718 573.0973 175.9684 576.7794 177.8779 577.667 179.3101 577.5601 182.2141 576.7583 184.1399 575.6055 184.6984 571.941 181.5661 568.1398 181.4124 561.3237 182.993 558.4797 184.954 557.386 188.028 558.3109 190.8367 561.5241 192.076 583.1399 193.5489 586.9942 192.3182 589.9668 189.5018 588.658 187.928 587.2394 186.8909 585.7379 186.2372 584.2026 186.1184 587.0137 183.6887 601.7368 182.4253 620.0681 188.2857 651.9529 186.0333 653.6857 186.5117 657.0192 188.999 658.4953 189.561 669.2691 183.6168 674.2309 177.5594 677.8805 178.1152 683.9004 181.4074 687.3732 180.0548 693.3114 174.0219 696.4637 172.0656 696.2548 174.1364 698.5137 173.9711 701.5148 172.8586 710.9124 166.2877 716.9565 157.4777 726.8575 150.403 730.8039 143.8869 729.8365 142.7076 729.5589 141.9559 729.8029 138.5835 729.0476 137.7003 727.8435 136.9897 726.7632 137.343 726.3823 139.7281 726.1195 143.4067 725.1427 145.4359 723.8797 146.8662 721.7353 150.4736 720.1169 151.8421 718.4051 152.8322 715.2119 153.8081 714.6755 153.7543 718.9615 143.488 719.345 141.7909 719.344 138.9643 719.6264 136.3548 720.3028 134.4158 722.8882 133.0052 724.4334 131.4863 725.8479 129.438 727.9626 125.0665 730.4628 121.8994 736.3386 111.7023 742.9571 106.7364 759.5388 101.9673 765.0083 94.8952 767.8853 92.3051 779.2572 88.0512 781.0437 88.1101 780.2267 89.2229 778.4305 90.6925 777.6729 91.8018 777.426 93.4193 777.5984 95.2442 777.5635 97.1563 776.7285 99.11 774.4394 99.9163 769.726 97.4837 767.4881 99.5838 768.4491 100.6049 769.1922 102.0953 769.5514 104.0637 769.3185 106.5971 781.0041 100.6439 783.2042 102.1324 776.348 106.5418 773.2062 110.5247 770.0408 116.1882 769.2506 118.8263 771.0447 120.3398 771.1984 123.3121 770.3102 126.7195 769.0295 129.6119 767.0485 131.9278 760.7578 133.6166 759.6799 134.8922 756.3018 140.4825 755.5743 142.7337 756.0921 146.4527 757.5435 148.6745 761.0164 151.3317 756.5736 153.1536 754.5383 155.2389 753.5277 158.9553 755.7557 159.8412 758.4388 159.4052 765.8137 155.0673 771.0561 154.2683 772.4179 153.4348 775.0467 148.7914 780.4424 144.0791 782.5496 143.2808 784.8838 141.3233 787.1867 137.6854 789.5875 135.3404 792.168 137.4176 791.0502 139.5415 788.659 142.6507 787.5541 144.7733 791.9305 146.4489 793.9086 145.8067 797.0417 142.3492 797.9645 142.2221 798.6774 143.2528 799 145.7573 798.7354 148.6763 797.9183 150.1735 795.7908 152.2772 793.5771 153.3913 788.2756 151.9189 785.9757 153.7228 785.6381 155.1164 785.0031 159.812 784.5977 161.6677 783.8891 163.0044 781.8254 165.3291 780.9857 166.5194 783.3021 168.0794 787.8762 168.9073 789.7712 171.4047 783.1844 172.2127 780.0729 173.904 777.2303 177.2611 775.5713 181.6263 775.2606 186.3042 776.4403 189.53 779.2808 189.5362 778.615 187.66 778.2692 186.9136 777.69 186.1028 779.44 184.9423 781.696 186.1241 783.9715 188.5271 785.7737 190.9543 785.875 192.8598 784.9059 192.8344 784.0876 193.3361 782.4786 194.8726 782.8066 195.849 783.3069 198.345 782.6024 198.6876 781.2783 199.8267 780.5542 200.0937 781.4585 203.5624 778.9692 206.2901 772.4695 209.527 774.2025 206.3819 774.7384 204.826 774.8855 202.2964 766.0644 209.8484 766.8505 212.9427 766.5881 215.4013 765.0892 220.596 767.1589 219.729 768.2129 218.9122 769.8396 216.3087 770.8505 216.1814 772.838 216.7688 776.4995 214.8243 778.3246 214.6541 780.0336 216.4001 776.3541 219.4939 775.5169 220.9124 774.9831 222.2389 774.1375 223.8105 773.2452 225.0787 772.4948 225.4988 771.2668 224.4144 769.6932 221.0544 768.674 220.4176 767.3468 221.0189 766.4996 222.5895 766.294 224.9689 766.9543 227.6873 765.3711 228.4537 763.9474 227.454 762.5365 225.7657 760.991 224.4657 759.1175 224.022 757.416 224.2572 755.7131 225.1034 751.1051 229.144 748.6553 232.5453 744.5232 241.0671 747.2056 240.8661 748.4654 241.3421 749.6759 242.7373 748.8227 246.9802 751.5877 248.1492 758.5224 247.4356 764.0562 250.3756 765.8755 250.8209 770.5598 248.7535 772.3096 248.7419 772.1159 250.7387 772.1544 251.5011 772.3435 252.1794 772.5749 254.002 772.4472 254.5434 772.273 255.0872 772.0987 255.9366 772.0168 257.3928 761.7257 252.7824 759.4934 253.7316 755.0531 257.1548 753.2174 256.7073 755.6925 252.6919 756.1841 250.9871 754.9709 249.5932 753.3672 249.7461 748.9017 252.6314 747.6501 254.371 744.7846 257.1022 736.9387 258.1476 734.7317 262.9076 739.1962 266.2218 735.6276 268.3692 735.9907 269.1935 736.2797 270.0974 736.6584 270.921 737.2819 271.6571 736.176 274.3811 733.5095 277.7092 732.2064 279.9064 732.0154 282.2835 732.7267 285.0028 734.4747 289.6627 729.1528 288.7511 727.2585 289.9796 726.7381 290.919 726.7399 291.683 726.8538 292.5186 726.6198 293.5984 724.2532 298.0554 722.5099 304.7771 724.224 306.1556 727.3938 305.4079 729.9892 305.8298 729.6604 306.5318 728.7534 309.3984 730.6554 312.5244 733.2504 315.0082 738.6229 317.978 741.9562 317.9801 759.8368 309.6544 763.9503 303.2649 767.0942 300.8179 770.5015 300.2668 773.4816 302.1046 772.0777 303.7036 767.146 306.0121 761.7047 313.3851 761.4927 312.5548 756.6465 315.233 756.9553 316.1352 757.6091 318.7022 753.9943 318.7211 752.4007 319.7896 751.185 322.5976 755.8476 329.4842 761.0454 329.0061 766.6359 325.9828 772.5147 325.08 771.8664 327.1758 771.0698 328.8203 770.1371 329.9366 769.0721 330.6007 769.7282 332.7843 770.6527 334.0376 771.7515 334.365 769.892 334.8395 765.6816 333.4422 762.2274 333.3811 761.44 338.2333 759.777 336.9379 754.0047 334.9967 752.2731 336.2244 751.7539 337.5477 751.5134 339.4692 750.6446 342.4134 748.031 346.7372 744.6699 349.566 741.0896 350.7219 737.8005 349.9527 734.4901 347.9605 732.9898 347.7974 713.9005 357.2415 711.0168 356.3661 713.5859 352.5943 714.5572 350.1862 713.6349 349.1546 706.3291 346.853 701.3961 351.3261 692.9654 351.6511 690.5446 357.1659 698.5985 362.4352 701.0899 365.7757 698.8942 365.632 694.8417 363.0379 684.7662 360.9704 677.3344 355.128 677.6815 351.1437 678.8671 349.1154 682.0706 346.8611 680.6224 345.4622 679.1937 344.597 676.1262 343.5606 673.2562 343.6616 672.485 343.1539 671.4913 340.7442 670.9164 340.0003 661.2527 340.099 658.355 338.8197 660.5706 336.5317 663.5431 335.3633 669.2789 334.7864 666.2736 330.7645 662.749 327.9808 Z M 694.2254 342.9712 693.7143 344.824 699.6781 349.1779 720.4302 339.0932 722.7477 334.4876 723.9417 332.6796 725.1615 331.8634 729.0125 330.6276 730.368 329.3462 731.2414 328.1619 732.2528 327.2771 733.9441 326.8969 736.4509 327.2441 737.229 326.0633 737.3758 322.3128 735.8433 319.172 728.9355 312.5231 726.6293 311.2477 720.4444 311.741 717.399 312.9386 707.4897 323.9643 703.5724 331.0726 698.4357 336.0868 696.4918 341.051 695.5855 341.1622 694.822 341.7262 694.2254 342.9712 Z M 591.0112 54.4126 591.0532 56.1673 600.1809 55.4128 609.1918 52.053 614.4991 47.4841 623.0441 44.7279 625 42.9163 617.0186 38.4078 608.757 36.4161 600.7777 38.2232 593.6465 45.4959 592.1021 47.9751 591.6499 49.1308 593.4026 47.7917 596.9551 47.0955 598.5166 45.378 597.4281 49.2213 595.3535 50.8745 592.9482 50.703 590.8852 49.1487 590.9272 50.9033 592.5751 50.7882 597.3563 52.3527 595.8919 53.8385 594.2995 54.4112 591.0112 54.4126 Z M 289.5703 194.6022 293.0029 188.7237 290.2634 181.8652 283.6771 181.8638 276.6197 185.3569 272.3705 189.0678 271.8836 191.8809 270.8266 192.9992 269.4479 193.4981 267.9648 194.4521 281.9541 196.0265 289.5703 194.6022 Z"/>
</g>
</svg>