<?xml version="1.0"?>
<svg xmlns="http://www.w3.org/2000/svg" version="1.2" baseProfile="tiny" width="800" height="1953" viewBox="0 0 800 1953" stroke-linecap="round" stroke-linejoin="round">
<g id="ne_10m_lakes">
<path d="M 771.4009 1541.0894 769.3159 1549.0622 760.9262 1563.2545 753.2605 1568.9734 744.7074 1567.0044 713.8507 1538.0443 702.7045 1531.9818 693.4079 1537.1861 684.8155 1546.486 672.5348 1551.9629 661.6811 1548.7047 656.9677 1531.8085 657.3233 1524.1115 659.6664 1510.2452 660.151 1501.7776 659.8177 1492.2895 652.7412 1442.5751 649.2138 1439.5199 642.3868 1448.2844 636.9527 1464.9905 636.8613 1495.258 631.6802 1510.9349 622.3823 1516.8872 602.9931 1506.729 594.0896 1511.1318 598.0289 1514.9607 602.1203 1522.1227 604.5986 1531.0876 603.5632 1540.8391 598.3145 1547.2766 590.4694 1548.8518 575.0298 1547.3786 587.5374 1559.6371 590.8125 1565.265 592.0544 1570.3889 593.059 1582.9515 594.4421 1589.1004 601.4089 1600.352 610.2592 1607.4888 651.5021 1630.3305 656.5707 1637.478 657.6919 1642.8561 657.3178 1647.9877 657.7653 1654.1396 661.5568 1672.8347 661.6231 1682.8356 657.4599 1690.8134 648.5543 1702.1548 639.4365 1701.6988 624.8689 1699.7326 610.3236 1701.8623 594.9773 1707.8353 595.0038 1713.7331 611.4711 1713.6523 619.374 1715.4054 626.6141 1720.2374 616.7902 1742.0876 614.1064 1750.0508 633.2488 1737.8924 642.6294 1735.0151 650.5665 1741.1191 654.8921 1757.2454 650.3209 1767.2753 633.2171 1780.2011 640.0557 1783.4934 654.7942 1784.682 661.9104 1788.224 667.6831 1794.5942 672.9317 1803.7875 673.9442 1811.9849 667.0062 1815.6236 660.1847 1816.4396 653.6505 1819.5598 648.4996 1825.7464 646.515 1836.2709 650.3673 1840.6049 658.9655 1839.0101 673.4109 1833.5256 680.9371 1835.2654 683.7102 1840.8851 684.6923 1863.1828 687.5326 1877.518 687.9883 1883.6674 686.2321 1886.7572 677.8726 1885.0249 675.4186 1886.3246 675.5187 1900.6802 687.9376 1932.6317 692.0588 1952.3381 685.9755 1945.4637 670.8183 1914.0444 658.3822 1896.9542 656.3045 1893.1226 656.9282 1883.633 659.648 1881.0511 664.0191 1879.9959 668.9146 1875.6036 675.533 1863.5069 676.1771 1857.862 670.9734 1856.6175 660.7205 1856.6886 652.2672 1860.3339 644.511 1866.5362 636.4487 1867.6109 627.364 1856.8962 628.8182 1847.9146 627.6826 1840.2297 627.0911 1832.0287 630.5826 1821.2404 635.7436 1816.3386 649.9193 1812.405 655.7698 1809.2901 645.9151 1804.9949 621.3545 1806.4216 612.7258 1800.5706 611.1607 1787.7586 617.1018 1775.9327 625.2263 1765.3753 630.2168 1755.8595 606.4047 1763.424 598.0758 1760.3876 603.0287 1741.3888 600.9531 1734.4755 591.8018 1728.3642 583.0486 1718.9148 582.0287 1702.5075 590.0008 1689.9075 603.1565 1682.409 643.3596 1675.5178 649.5723 1669.0674 647.0692 1659.8512 635.5929 1648.8944 610.3954 1634.673 599.2195 1625.2395 581.4538 1595.3131 573.0123 1586.1145 502.3103 1533.9892 474.5644 1526.5834 452.2414 1547.6228 449.3974 1557.1123 447.635 1568.397 446.6821 1592.2487 444.7814 1602.5069 440.3027 1610.9687 430.2538 1625.5812 432.7067 1609.9388 433.6698 1587.8833 432.7339 1567.6214 428.8121 1558.8984 424.7589 1548.1228 431.6799 1523.7625 446.7027 1487.6039 443.7394 1455.5408 391.4168 1430.3428 383.0066 1391.8478 398.818 1362.6368 455.6095 1363.4541 477.5307 1344.205 475.7621 1317.0146 456.9458 1291.6264 403.5792 1246.6932 395.1313 1247.4479 387.4716 1255.6416 378.9888 1269.7317 375.8958 1272.5459 373.3536 1269.7175 371.7584 1264.0695 371.2388 1257.6547 372.0577 1252.2696 374.2098 1249.7099 376.7618 1247.9206 383.3484 1240.4967 387.914 1236.6587 391.543 1231.5355 393.0356 1222.0464 387.1692 1208.9507 373.9224 1205.0711 359.1876 1207.3381 349.2609 1212.6933 340.3675 1227.5411 332.1177 1247.0065 323.0678 1262.8746 311.7824 1266.6724 320.3549 1238.7483 320.6826 1224.8965 312.1354 1218.9576 301.2818 1219.6751 291.6212 1222.7039 282.8752 1229.5829 274.4946 1242.1054 278.6063 1226.2237 286.8471 1213.6992 292.5363 1201.4156 285.2153 1169.3078 291.5683 1156.5149 300.1915 1142.9624 303.3614 1123.2238 297.5751 1105.7493 287.2965 1106.2081 276.1544 1117.4335 262.1227 1140.9512 259.4571 1139.9081 255.1414 1125.5135 249.6938 1121.3727 243.4096 1122.6127 231.8857 1128.1751 155.9694 1147.7952 131.7495 1163.455 129.3077 1166.7643 127.9025 1173.1631 125.4705 1175.4459 121.3216 1175.6575 118.4016 1173.573 115.7551 1170.9782 112.8303 1169.4063 86.6217 1169.1015 75.8644 1173.8445 54.859 1194.8705 41.4387 1197.5139 11.5482 1181.7009 1 1180.263 14.5866 1175.0744 47.2263 1185.0205 58.5599 1177.7296 67.6957 1163.9928 79.0262 1155.9246 129.2523 1146.7525 270.0007 1075.0659 325.2479 1030.9652 336.177 1027.674 353.6583 1014.3956 356.3235 1013.1215 353.7037 1000.5419 347.0603 998.7236 331.7466 1003.7973 319.2554 1001.1792 307.3131 995.48 285.33 979.2035 285.3627 973.3029 306.2595 965.9713 327.2172 973.5056 365.6634 1003.9139 382.3301 986.5118 386.8845 970.6158 380.946 953.6699 341.4328 902.2401 334.9867 889.6447 334.0875 882.4578 338.4767 877.8569 347.6348 872.5027 339.7132 866.0604 292.477 860.2025 230.752 829.539 134.6855 835.0931 104.7383 817.0605 230.929 805.6815 251.867 816.3465 300.6149 821.7627 318.383 839.5486 333.0315 848.3329 356.589 847.1344 379.2367 838.4756 391.0376 824.9052 367.0989 781.2347 360.4323 759.6658 347.6884 744.4885 344.8126 737.5519 345.2535 724.9834 347.0031 714.7283 350.7154 707.8148 357.3087 705.2712 367.4709 697.6058 372.3929 678.893 375.9318 633.4981 379.4035 610.9335 385.0841 595.2997 392.9797 583.7737 446.8914 542.536 475.8274 532.2679 488.2487 518.6617 510.5585 484.2579 500.8646 471.1944 476.8165 460.9642 467.7953 442.5039 475.2426 452.2453 504.112 460.417 527.6734 481.1423 536.1773 484.1977 554.2113 483.1162 574.706 476.8844 591.3607 461.6798 598.1439 433.692 588.6682 416.2966 569.7185 406.118 554.9395 392.3233 558.6194 365.1265 583.9972 334.7657 587.7362 327.8252 581.8175 312.4653 567.2919 286.6253 572.7265 282.2448 578.6908 280.6818 591.4133 281.1384 591.3851 275.2409 566.8775 247.3954 558.2543 229.2225 554.9144 200.7743 552.6784 190.5263 542.2839 176.7147 539.9288 167.7485 540.8126 160.8238 542.7339 155.1779 544.9177 151.0693 545.8181 149.7847 545.4114 143.8895 543.3106 133.1288 542.7812 129.0286 537.042 109.3061 523.7159 94.7291 497.5012 72.2222 469.635 17.9113 455.6147 7.4075 455.6141 1 477.8597 10.2164 487.5128 17.8958 491.5211 33.5258 495.2698 44.7986 504.1758 57.6007 514.3727 67.8345 539.5504 85.4589 570.9982 145.85 587.8677 161.6733 583.5706 183.2282 585.9702 198.6008 588.8781 211.4072 583.9689 242.4536 593.2333 254.9755 618.4735 269.2054 607.2704 309.5239 606.3069 323.8892 615.8858 316.6583 602.925 373.9129 600.9315 391.6182 604.5387 408.783 617.1868 432.3113 616.6263 448.7286 609.3828 461.3346 587.7934 481.1886 583.2728 493.2633 587.387 506.5825 613.9133 549.2866 589.6231 537.3516 581.2416 537.1321 510.7112 561.9747 502.7156 561.2196 487.1133 555.0854 479.908 556.1188 475.4573 561.7655 472.4485 569.9756 468.9129 576.9033 463.1446 579.9839 437.0486 580.238 425.5053 583.8208 400.6922 598.1525 395.1692 604.2986 391.4699 616.0908 391.3146 627.6336 393.5295 636.6161 396.1439 643.5472 397.5799 648.6802 403.4862 653.8209 431.3526 658.9841 440.1598 664.376 447.9148 688.748 441.1995 695.9289 428.1654 696.9471 417.0993 702.8362 411.8307 703.8556 399.8708 690.754 395.7909 690.49 387.8625 704.583 384.5521 712.5281 382.0237 723.2965 379.9769 752.0233 387.6258 752.5539 400.1731 743.0867 412.5705 741.0535 415.4661 745.1618 417.1736 750.8076 418.4854 756.966 420.0631 761.8419 424.0144 769.029 426.6536 769.2879 429.4271 766.7249 461.7557 759.0365 448.8253 769.299 444.9968 774.1725 440.5059 781.3541 439.1835 785.9712 438.6528 791.3583 437.0631 800.5929 437.7239 800.0802 435.0693 820.8586 434.1433 821.8842 432.1556 828.553 427.7853 836.246 423.4114 845.4777 421.4138 857.7898 424.1758 876.2639 431.1899 883.9662 450.797 885.0001 461.1294 879.6115 480.1816 855.2284 489.4379 848.2918 493.4087 849.0564 497.1195 852.8994 500.4366 858.2818 503.2258 863.9213 509.0602 868.7854 516.3396 867.2317 529.2985 860.5314 568.8 874.2592 588.3634 865.9682 592.3413 867.2329 594.3491 871.8414 594.2469 878.2556 591.3424 880.3214 585.4189 888.8141 581.2173 897.8115 583.4894 902.1631 587.2148 905.2254 588.9707 912.4009 590.0666 920.0925 591.4189 925.7304 595.0274 931.3578 599.1631 935.956 609.9551 944.1116 597.9051 950.329 586.4357 938.837 576.2828 922.7174 568.0271 914.5404 563.1081 911.2235 553.9045 895.0931 548.1903 890.2372 540.5056 890.517 520.7885 902.369 479.038 909.874 466.315 923.4794 463.0011 930.6641 455.7057 956.3207 448.2665 972.4832 444.9424 981.4618 443.0782 992.2365 467.9455 1000.957 477.1303 1010.9566 480.3439 1033.7869 449.9906 1007.1179 440.0152 1004.0367 432.1633 1010.4461 421.4908 1038.9142 412.1602 1045.83 409.0838 1054.805 412.4044 1062.5061 420.1283 1067.6465 430.6567 1069.4519 430.6524 1075.3525 423.3152 1079.9642 399.5664 1087.8848 391.1528 1093.2564 384.6018 1099.6562 371.6114 1117.5826 346.6936 1142.1344 341.1695 1154.6854 349.4014 1171.1336 365.2798 1184.0108 398.967 1201.0211 414.7492 1212.8459 438.441 1240.0597 449.6999 1246.4764 464.7144 1242.6261 462.7131 1272.3851 476.146 1291.6178 492.4164 1310.3278 499.4448 1338.2793 495.9696 1353.4194 489.2552 1363.9455 474.1934 1380.6336 471.7731 1386.2786 471.1024 1390.8963 469.7575 1394.7448 464.7744 1398.3383 459.9239 1397.8268 442.9516 1386.5393 432.3133 1384.2254 418.9809 1384.2135 409.1424 1389.5878 408.5834 1403.6953 413.0202 1411.6534 418.6788 1413.9688 424.6098 1414.2314 430.4047 1416.2883 435.3904 1420.3957 437.9515 1421.6797 441.457 1422.1942 443.0745 1423.7338 442.9385 1427.3249 442.3978 1431.1723 442.9364 1433.9941 458.8557 1447.3334 463.177 1456.8229 464.8042 1475.8034 463.7298 1493.502 460.0838 1506.0712 449.2651 1529.6688 455.4889 1528.13 474.2879 1517.8631 492.0054 1517.589 509.0569 1523.2051 534.8254 1548.5388 548.3934 1558.2456 559.6169 1553.3354 551.6095 1547.4632 543.0563 1539.0258 538.8325 1528.7785 543.9416 1517.7348 554.7523 1514.8793 579.2809 1527.3555 590.6543 1529.3582 584.2316 1514.2537 576.8821 1502.4858 572.6461 1490.704 574.749 1475.5623 585.2186 1460.1286 597.3696 1460.33 608.4998 1472.3309 615.9011 1493.0686 620.602 1487.6567 622.4532 1480.208 622.2092 1460.2023 623.3764 1451.4746 626.3097 1445.0454 634.3382 1433.4558 663.9842 1409.4094 675.2872 1388.038 687.3242 1394.6173 694.7045 1408.1551 678.2267 1421.8766 674.2934 1437.5527 672.8143 1457.3145 672.5203 1492.2008 674.3717 1505.5252 679.3111 1515.4922 688.8298 1522.3455 695.4716 1524.0889 716.9642 1522.1152 722.2637 1524.8903 732.5192 1537.1097 737.6872 1539.8833 744.1928 1540.8479 747.4506 1541.8427 750.1453 1540.5341 755.0883 1533.8169 758.6738 1526.856 765.7782 1506.7774 775.5489 1497.1853 785.0556 1501.4439 793.2998 1513.665 799 1527.7082 788.0759 1518.3397 781.955 1515.0718 776.8271 1516.1526 772.5758 1523.6357 771.718 1532.3654 771.4009 1541.0894 Z"/>
</g>
</svg>