<?xml version="1.0"?>
<svg xmlns="http://www.w3.org/2000/svg" version="1.2" baseProfile="tiny" width="800" height="1375" viewBox="0 0 800 1375" stroke-linecap="round" stroke-linejoin="round">
<g id="ne_10m_lakes">
<path d="M 466.5343 1374.3711 464.915 1321.5182 462.2383 1310.8464 452.0769 1303.2245 415.2092 1251.8849 421.8966 1232.0675 419.5007 1216.3113 413.369 1201.0611 409.645 1181.2377 409.6687 1144.6446 413.1424 1132.9572 419.5456 1124.3206 422.4818 1115.6819 415.8245 1103.9889 402.5078 1093.3069 339.6885 1058.1563 300.0127 1057.0547 279.5267 1050.3933 258.5762 1023.3932 252.0427 986.2693 254.7065 901.9059 252.4643 856.1542 223.8393 703.0621 191.6714 610.4254 135.6848 498.845 114.7389 469.7598 31.0229 410.7824 8.5907 380.1248 1 338.8975 6.1063 289.1237 18.0203 241.4323 31.125 208.4872 59.7947 160.9028 89.9245 124.4959 122.847 97.7464 306.2163 26.2933 528.4231 1 703.6367 39.6475 706.867 59.9638 700.4332 86.9287 690.5876 114.4151 698.1831 175.3757 758.2214 265.5689 765.1814 339.233 761.8403 354.4989 750.6681 383.5281 746.7963 399.3041 746.0892 416.081 747.5861 452.1617 747.1471 469.9539 734.3683 555.916 731.1538 602.6935 738.9162 622.988 750.6255 638.1792 793.1342 765.5309 797.8498 802.1 799 909.8479 797.0462 939.8471 790.5612 968.3471 777.6799 995.8648 754.6837 1025.4645 751.9441 1009.7222 756.8201 974.1192 756.1347 943.6267 685.7682 1030.3478 671.2929 1075.6373 641.8872 1127.071 635.2377 1132.1743 617.3784 1133.7513 613.9273 1139.3514 616.1075 1156.6256 621.1967 1164.235 627.3469 1169.2995 632.4506 1180.9738 638.385 1201.7931 640.293 1214.4929 633.643 1222.6452 614.1661 1228.2919 595.465 1224.7823 565.2407 1197.9115 549.4833 1191.8408 535.6155 1198.9774 528.9665 1217.2828 527.3968 1242.6962 527.431 1269.632 524.5152 1288.9479 517.5879 1309.2847 502.6461 1346.3989 466.5343 1374.3711 Z M 468.8519 1086.2064 465.3913 1097.3889 493.1157 1113.6391 506.7111 1115.6607 521.6318 1110.5623 514.421 1096.8478 506.4185 1087.7074 488.2944 1076.5403 485.3637 1075.5257 479.2368 1075.0207 473.3782 1079.0893 468.8519 1086.2064 Z"/>
</g>
</svg>