<?xml version="1.0"?>
<svg xmlns="http://www.w3.org/2000/svg" version="1.2" baseProfile="tiny" width="800" height="1320" viewBox="0 0 800 1320" stroke-linecap="round" stroke-linejoin="round">
<g id="ne_10m_lakes">
<path d="M 468.9177 1318.7345 457.809 1318.1392 433.313 1306.1975 409.3085 1285.5965 398.4245 1260.2079 402.7039 1243.1726 459.0252 1146.624 462.8149 1126.3026 446.3627 1109.5727 447.1133 1088.056 450.146 1075.2046 457.231 1064.444 503.0674 1012.7411 516.4973 1001.9859 540.0651 991.8358 545.8969 985.8622 549.4515 976.0022 548.4423 969.7254 546.1652 964.0454 545.4176 945.2163 543.6464 940.1344 543.3964 934.7546 548.4732 926.0907 554.3083 921.9107 580.1819 912.9674 567.061 840.0289 554.6526 804.1527 534.3539 780.8265 519.8796 777.5321 491.9428 782.0087 476.7052 777.8241 466.2908 767.9621 444.685 728.2161 439.8537 721.0448 435.7855 716.5634 382.8937 686.4166 355.1735 678.38 350.5673 657.1649 366.7721 600.6526 366.474 565.3834 352.9358 530.7294 330.4815 501.7705 303.1956 484.7818 278.4841 484.5334 274.4488 503.0736 275.7811 529.9709 266.9243 554.2012 244.2917 563.5214 215.7669 557.6202 189.7548 542.1551 174.4143 522.1785 171.525 495.2879 176.7739 464.1862 186.8711 433.6674 197.7586 409.4239 215.5438 387.553 235.6692 379.7268 257.8503 376.981 282.574 369.7517 301.1598 352.0798 300.8673 332.3542 286.7946 313.2544 265.3221 297.7603 247.4358 290.0328 230.8358 287.0874 214.2465 288.329 196.1394 294.0613 175.2519 307.577 164.0394 312.6953 152.8077 311.8376 134.3718 294.8686 141.4583 277.8069 156.7222 261.9124 161.7821 247.8481 154.6126 242.1946 117.5418 231.573 111.6537 228.0098 101.1453 218.7875 94.2365 215.8274 88.1083 216.4508 76.1226 221.2839 71.2708 221.604 59.7597 217.7702 53.8623 212.7166 28.1082 168.0104 19.0626 146.8368 16.4008 124.7357 21.1344 98.4144 26.4548 87.6302 31.5469 82.5252 33.8161 75.3423 30.6762 60.1172 18.5514 38.9604 4.3915 21.4018 1 8.2714 20.6764 1 35.2763 2.7214 52.198 8.6178 68.3612 17.21 112.7666 49.8933 119.7119 59.7273 121.0231 68.3883 117.7685 87.5264 118.8272 97.085 137.617 130.7827 161.7046 147.1332 218.7797 172.0578 232.7926 154.9845 249.4244 161.815 266.3283 177.0158 281.1691 185.6494 377.2528 183.6979 397.1816 178.5968 426.8168 160.0451 435.762 157.0515 471.294 157.0402 478.4517 161.2235 497.8749 185.4321 529.8158 191.7186 568.1512 185.7683 599.5805 188.4918 611.0382 220.1863 606.9288 237.515 591.305 276.6478 587.7125 293.3808 573.8922 331.6228 572.3424 351.9453 587.6416 358.8354 595.8108 353.4649 605.5291 334.3486 610.8918 331.0681 616.4984 336.1568 618.2706 346.0225 617.2172 369.6327 620.2438 393.5479 627.6058 415.3777 677.366 517.3888 685.2421 526.0732 707.3866 530.0089 720.8526 541.6986 727.6804 559.6496 734.5366 756.039 739.0629 772.7887 754.9694 804.8135 758.491 815.8823 761.0143 820.9706 778.9869 836.5666 785.0448 846.7475 799 921.511 790.5559 944.496 752.1575 985.6229 743.4661 1012.4959 753.4154 1074.3852 751.789 1110.8389 747.9691 1119.1956 736.2789 1137.6914 733.4724 1146.3501 734.7072 1157.111 738.4857 1162.4998 743.03 1165.2014 745.0479 1166.9999 746.7711 1183.1408 744.964 1195.9849 737.3507 1206.4229 722.1607 1215.3482 701.1668 1221.872 646.8186 1227.7402 625.3408 1225.6143 628.1328 1218.1483 650.4517 1176.3504 641.6256 1162.5896 639.8811 1147.6454 642.4383 1131.8117 647.0212 1115.6824 653.119 1102.2454 657.6885 1094.7827 656.1791 1089.9985 644.5454 1084.8979 633.9165 1083.6852 573.6733 1083.9081 558.4817 1088.9752 545.0581 1102.1146 482.5498 1192.9385 442.1163 1231.4942 433.2783 1243.7494 430.5078 1258.9898 438.0941 1273.627 451.7379 1284.3781 464.6214 1297.5215 468.9177 1318.7345 Z"/>
</g>
</svg>