<?xml version="1.0"?>
<svg xmlns="http://www.w3.org/2000/svg" version="1.2" baseProfile="tiny" width="800" height="481" viewBox="0 0 800 481" stroke-linecap="round" stroke-linejoin="round">
<g id="ne_10m_lakes">
<path d="M 19.0745 268.0784 12.9117 259.5915 1 254.0566 43.4685 217.1356 57.4607 181.7418 74.1297 175.5612 108.7282 177.9374 117.7414 176.1969 135.1341 163.6761 143.801 161.3256 162.6669 160.2403 171.5063 157.584 178.8065 151.6063 183.8613 144.712 189.9454 139.0266 199.8176 136.0688 209.3188 137.9227 218.122 141.2759 226.9375 142.2195 235.9562 136.2394 235.9264 143.1619 251.5172 136.6041 267.0626 141.4776 274.1155 152.6382 264.2131 164.3422 252.4563 161.8904 238.9886 155.2143 232.4122 155.788 242.0189 175.3929 252.3545 188.0757 275.1398 208.6248 286.177 224.6122 302.2068 256.8635 311.8855 270.4325 323.8421 276.7806 327.3512 257.826 346.6328 238.2972 344.0486 228.6615 353.0795 215.4322 360.724 198.2864 372.5389 158.2686 343.4577 167.5607 336.3683 164.5384 335.3476 155.206 340.6054 116.3887 340.597 121.2044 353.5946 97.7484 376.2494 70.6863 400.5981 48.4281 418.8866 38.798 487.5183 24.8851 502.5079 18.8355 517.479 7.3629 532.9738 1 549.3778 10.2789 542.9958 9.0958 539.7253 10.6109 538.1886 15.4312 537.3552 24.764 570.3887 5.0871 581.7594 3.838 581.0962 10.1612 579.5595 13.7792 573.8859 17.7145 585.8118 24.5885 569.828 38.4976 612.8131 44.9324 633.92 55.6596 650.0739 73.6284 660.0018 59.4238 669.1261 55.7561 694.1713 58.9032 698.4669 56.1648 708.3778 42.5506 713.8627 37.6951 721.4477 37.0369 734.4316 42.9571 763.1326 50.2472 783.467 66.3221 796.8137 90.5795 799 120.9586 787.9009 154.7719 769.6881 169.0802 705.8566 172.5938 692.5596 176.9001 666.8656 192.417 643.9454 211.8151 631.8594 219.4059 619.2174 220.6751 621.7659 210.7297 625.0231 204.0914 634.6603 192.6031 627.7218 190.232 617.3335 190.285 606.613 193.3467 598.5034 199.7048 593.3622 212.0681 590.5225 236.4602 586.7599 248.5157 573.8183 264.5206 522.1985 290.8758 508.6828 300.541 494.9955 314.4159 488.7668 327.0692 498.1606 333.3714 513.4361 327.6182 538.1838 296.5489 554.6323 284.1552 555.3669 295.891 554.8835 306.7281 553.5293 316.9662 550.4342 326.3071 558.9546 328.6856 572.9083 343.0809 583.1775 346.9525 586.467 343.9289 589.9144 337.2926 593.8871 331.8577 599.1046 333.0383 599.9964 338.151 599.911 357.7152 604.6938 376.956 604.0674 392.0079 600.1228 404.6672 589.0213 413.4445 589.2234 420.0651 592.5496 424.2644 597.5844 420.9314 602.9473 413.3826 608.4993 409.4439 614.249 410.6201 620.2002 417.2122 616.7331 420.2392 615.0067 423.2575 613.8039 426.5741 611.7345 430.7978 626.5138 426.2092 633.3016 425.5716 639.9462 430.6521 622.9559 445.791 613.2262 451.2569 597.5145 444.4079 558.8418 444.864 549.8058 451.8174 531.2291 475.3508 524.7924 480.4853 515.3718 478.4031 500.3632 471.5154 490.2553 473.0405 496.8597 463.0955 496.8433 454.9693 491.4335 450.7663 481.8526 451.9874 509.1642 432.9711 518.5642 431.1422 518.5482 424.8217 508.5854 408.5934 495.6967 404.4077 480.9106 408.9495 465.6044 417.7004 449.5767 405.6788 429.2114 401.1775 412.8526 392.7535 408.679 368.374 402.5918 372.5867 396.1564 374.6916 382.4164 375.2858 374.5788 387.6195 369.0102 389.119 364.3288 375.2687 358.7393 393.9226 350.9062 396.0185 342.5676 387.8788 335.9799 375.226 357.2176 360.5118 401.2042 359.0423 421.1962 354.2272 405.2052 345.1981 384.5247 343.6844 307.3297 356.8033 289.2529 355.8504 291.9059 340.2072 243.2306 344.8521 220.2195 360.1015 208.7895 351.0173 198.9611 335.6175 191.0201 325.9443 177.6413 326.4723 165.0714 336.9334 141.7861 363.8758 135.6788 367.1461 108.2021 367.5549 102.1029 369.3154 95.9827 373.7837 88.7918 381.5535 87.2852 374.0171 86.2654 370.9993 86.4629 367.991 88.9581 360.185 77.8515 357.6887 66.9989 366.6288 56.1107 379.1777 44.9054 387.507 31.5081 387.6866 21.4782 381.2723 3.9508 359.4317 7.5126 350.7382 8.814 342.0224 7.6858 332.9817 4.2943 324.5207 13.656 326.4181 19.8351 334.303 23.1912 346.9762 24.0847 362.9368 27.5478 364.4741 45.3824 353.1991 52.3401 352.6584 34.828 328.7241 29.0444 315.4273 24.7097 296.1236 22.4329 279.8488 19.0745 268.0784 Z"/>
</g>
</svg>