<?xml version="1.0"?>
<svg xmlns="http://www.w3.org/2000/svg" version="1.2" baseProfile="tiny" width="800" height="1014" viewBox="0 0 800 1014" stroke-linecap="round" stroke-linejoin="round">
<g id="ne_10m_lakes">
<path d="M 779.3275 652.6281 796.4596 665.4666 799 677.273 791.9059 689.5001 779.5735 701.0148 769.7401 717.317 766.0053 742.0835 771.9284 825.1613 769.4898 834.0383 763.9838 836.2818 755.4394 837.801 720.4678 852.3674 655.0977 858.5377 633.3181 864.5224 614.0411 877.8807 602.2194 894.1677 592.0718 918.5741 581.053 928.946 565.333 938.2199 549.0504 944.5371 531.0953 944.5755 492.9506 928.3921 481.3586 933.9495 469.2217 946.8929 451.0048 962.0569 432.7751 969.4604 421.1671 965.406 410.6621 954.701 395.187 942.1495 377.5082 939.5678 363.1439 951.3872 332.4594 994.9618 315.0353 1010.8335 299.2749 1013.4066 283.8004 1006.0047 195.5171 922.3885 190.2961 910.5576 185.9265 889.125 183.4927 866.9578 185.4563 852.9266 188.5202 840.0059 191.0404 823.0208 186.9447 804.5433 175.3965 790.4801 121.7569 750.0706 112.7054 736.7446 98.2542 691.6334 88.9071 687.1686 80.3448 694.5256 74.512 708.1712 70.33 721.8224 43.8992 786.7283 44.1571 791.1617 45.5017 799.6626 44.5651 826.9918 39.2164 853.564 32.3078 856.1206 24.0773 845.0046 12.0474 820.2044 1 762.9025 3.275 747.3994 18.5827 712.3778 24.4583 690.9797 34.5296 521.1091 38.1782 502.6554 155.9288 134.7947 185.876 74.6651 194.3689 64.7118 218.7264 42.9701 258.3624 20.8745 311.6217 3.5718 335.1007 1 350.9332 5.0679 362.1254 15.0416 382.3352 44.5878 393.8104 54.9267 404.7406 61.9401 414.3046 65.2594 453.6522 69.6599 502.6064 96.9252 525.0547 114.9829 543.1438 135.6295 556.3303 161.0853 564.6144 192.461 573.0011 261.1417 572.5102 283.305 567.0456 289.2285 545.1224 287.4327 534.7242 293.734 529.265 304.0875 526.8257 317.759 525.7614 334.0135 528.5332 349.1523 537.6075 361.3232 551.0663 370.5282 591.422 384.0935 645.3114 419.7556 648.8985 425.2838 650.3124 437.0989 650.0821 449.6586 646.2642 457.0594 622.694 470.435 609.268 480.4495 604.0877 493.3931 601.465 536.2487 605.9268 558.0291 619.9749 566.8514 668.0976 568.9026 682.6927 574.7569 697.577 583.5623 756.6917 638.7046 779.3275 652.6281 Z"/>
</g>
</svg>