<?xml version="1.0"?>
<svg xmlns="http://www.w3.org/2000/svg" version="1.2" baseProfile="tiny" width="800" height="774" viewBox="0 0 800 774" stroke-linecap="round" stroke-linejoin="round">
<g id="ne_10m_lakes">
<path d="M 408.3016 582.052 391.4817 575.5399 377.7037 572.7014 366.168 566.8608 356.232 551.0087 361.1995 548.672 363.3627 545.1675 362.8816 540.662 359.9964 535.6559 353.4264 542.3317 348.6183 540.8306 343.8895 536.6597 337.6388 535.66 313.0465 553.0243 309.5214 553.5267 304.1522 551.8609 298.702 548.8604 294.6132 545.3586 290.5224 539.5208 290.5197 535.6827 302.8503 519.3211 338.9058 482.4256 342.271 474.2476 339.8634 466.071 333.605 453.8904 331.9989 447.3825 332.5586 442.5427 331.7553 438.7046 326.1393 434.5345 321.1663 434.2027 301.8386 438.2178 290.8491 436.2222 272.7946 426.7237 262.925 423.061 216.4785 420.9442 195.693 414.2986 188.1225 395.6195 187.3205 395.7877 185.6354 395.6235 184.1893 394.4577 184.0245 391.7878 185.5459 389.9496 188.1917 388.7772 191.801 387.9371 193.003 386.934 195.1686 386.43 197.4124 384.5909 198.9304 380.2496 189.6894 371.9197 183.4256 369.0927 175.3499 386.2951 163.7104 383.3116 152.0524 370.984 146.7249 354.9737 145.9087 347.9663 143.6449 339.6267 140.6611 332.6237 137.3639 329.6265 130.7761 326.9701 127.6997 314.6275 120.6256 310.304 109.4725 313.1661 101.4704 324.3656 90.8644 353.2612 99.0663 360.0834 119.1413 365.8783 128.143 372.5341 133.6994 382.0346 130.6568 385.0448 111.6392 383.918 97.0523 390.2933 87.747 390.6496 83.5538 382.1493 82.1624 371.3057 78.0502 363.4728 70.981 360.4873 60.8013 364.6864 49.3797 354.8722 15.6628 350.2996 8.6548 341.8111 18.2328 324.7599 20.932 314.906 13.9351 310.5891 7.4237 307.606 3.5474 300.2761 1.5108 290.9379 1 281.7617 1.691 271.7472 4.5625 265.5637 10.0926 262.0416 19.243 260.5109 25.1907 262.1612 28.8142 265.4876 32.4328 267.1454 38.2062 264.1246 39.7217 260.449 41.5199 242.9222 43.9974 238.4095 56.0917 225.1923 60.4098 217.5043 62.2265 205.4848 59.1584 199.8198 54.8873 195.1595 53.1772 186.6543 56.6328 186.6445 63.0764 192.3 71.8506 198.2834 79.7435 205.6048 83.1424 215.6082 85.9621 218.7716 92.238 222.5939 98.5969 227.7513 101.4251 234.92 100.6293 238.2594 99.0296 241.2669 97.832 244.4404 98.0822 248.4448 99.8567 251.6111 104.6067 256.4392 105.5746 258.2725 110.406 263.7682 121.8268 271.2519 135.4126 277.731 146.5791 279.544 156.5281 274.5184 137.2979 256.5337 135.3461 244.5227 139.2863 246.517 144.5087 247.0071 147.9594 245.1646 146.5052 240.8287 143.1283 239.3336 127.8555 234.8599 125.3516 228.3572 50.4516 97.8939 49.6247 89.2202 54.6659 79.1949 58.843 77.014 65.0352 76.4961 77.0219 77.1309 82.8888 74.9464 92.1164 64.7451 97.661 61.8949 102.7308 62.5498 107.0006 65.3759 110.4662 68.3709 112.9628 69.6998 118.3486 67.6851 124.4544 63.5002 127.9059 59.4882 125.4887 57.6583 116.3142 56.3444 89.3427 47.7343 82.7332 42.5794 85.4544 36.2324 95.5853 32.703 118.1122 30.4799 123.6671 31.6351 127.776 34.1285 131.1611 36.9573 134.9463 38.6175 139.8558 39.1076 153.6084 34.7417 158.3548 33.8982 170.588 34.7095 176.6207 32.8634 179.994 28.5196 180.4706 24.3478 178.0531 22.35 168.2314 20.5325 161.0602 15.5409 159.1184 9.5386 164.7425 3.355 175.2835 1 183.1778 4.8233 196.6419 20.4837 210.018 32.6426 213.6468 38.4768 214.8601 43.4804 216.4062 57.3265 217.7794 61.6627 224.8643 65.4906 235.2442 66.3116 253.2657 65.4567 259.4631 67.7862 268.64 73.6172 278.1392 81.2841 283.936 87.62 311.4585 109.1267 322 121.8031 326.0282 141.1578 329.4876 146.1625 337.688 142.155 347.5771 134.9772 356.1811 131.3048 367.3591 134.6412 370.3345 141.4827 366.2337 146.1551 356.1824 143.1523 361.4903 154.8325 384.5635 171.3533 391.3144 182.368 395.0116 184.2044 399.3519 185.5404 408.9971 187.2121 410.2823 189.7157 409.2366 192.2184 408.4324 193.5531 407.5462 200.061 405.2932 209.0716 405.1301 217.0816 410.2719 220.5878 414.2081 224.2606 421.6723 244.2893 441.7569 245.1347 456.9424 243.3097 477.5086 244.3287 483.29 247.5051 483.2035 253.8465 477.8975 258.3471 468.019 255.8348 464.6387 263.6753 470.8999 268.6872 479.7319 272.3668 489.9303 274.5467 500.2102 275.2256 512.5757 277.9106 520.0357 285.0962 526.3669 294.9507 535.3446 306.3115 552.3475 318.5199 559.0782 326.5413 561.706 339.3956 562.2584 345.0705 564.8881 356.2561 565.4391 362.5986 563.9838 368.9377 558.2624 383.28 557.9338 387.9522 565.0675 392.1362 590.8186 393.6848 606.1289 400.0567 610.145 397.7288 614.1644 393.899 619.3835 391.9077 626.6819 392.925 643.513 399.6391 679.5248 401.9 685.1291 405.7534 686.8046 408.9287 690.4814 413.4445 694.2351 418.9619 695.9015 425.141 693.0024 429.3047 686.3384 432.1231 673.1792 434.9246 666.11 439.5787 658.7934 447.0696 653.0779 455.8998 650.8123 464.0712 646.6396 465.563 625.8721 466.6834 617.367 469.6687 642.017 519.6188 648.9618 530.148 650.7121 534.9914 649.5614 546.3355 650.59 551.344 657.1449 556.6995 662.767 551.2069 668.8803 542.0448 676.9886 536.0587 686.7605 536.9191 714.4342 551.5144 724.7585 554.2151 735.0066 555.5814 751.5061 555.634 766.4962 552.1798 772.0245 551.6981 776.8251 553.0496 779.6164 556.2296 781.7643 560.0748 784.955 563.4231 797.1019 569.9741 799 575.9877 795.994 586.9889 792.2114 591.9808 788.5273 592.3013 785.8814 593.293 784.813 600.4638 785.9145 605.4731 788.6987 609.9878 795.8732 617.5215 772.1698 620.2748 764.969 619.4163 744.1948 608.5034 736.267 609.1459 714.2249 617.2552 714.212 621.2596 724.9921 629.3002 729.4908 624.4752 734.1379 623.1547 738.9349 624.838 743.5617 629.3574 740.3544 631.0158 732.3311 636.6637 720.8765 639.4656 717.5101 640.9573 711.0827 648.6135 704.8083 658.773 696.9378 667.9274 686.0439 671.7353 677.0055 670.5437 659.1773 664.6595 648.6176 663.2996 629.2437 666.2589 609.4651 671.5565 591.9953 683.2017 599.9783 691.7257 620.5281 696.9391 640.8439 698.8187 646.4958 709.5091 647.9523 733.3692 646.3663 758.389 642.5707 772.7267 626.7572 766.5197 589.9069 763.1104 574.0117 754.9082 565.2268 749.0547 550.2787 745.528 542.4481 741.5126 516.2571 712.1151 517.3932 700.6046 520.6033 693.7681 540.0801 672.7719 544.9739 665.4376 548.1084 657.6004 550.0457 647.9259 551.6849 625.403 548.7498 609.0464 539.9621 596.0182 523.8044 582.1463 530.0591 577.3155 536.8668 577.8256 543.5895 581.3395 550.149 586.3553 555.4428 581.8582 560.4928 579.5301 565.1363 580.7058 568.7301 586.3852 575.63 580.0562 582.778 570.0571 588.4059 559.7217 590.7422 553.2182 595.8753 550.3913 607.3143 558.4235 627.5359 577.6556 629.1313 580.3289 632.1707 582.0043 639.2977 582.3541 645.4695 580.3661 651.006 576.3745 654.0595 572.544 652.5425 570.7049 644.3846 566.0134 609.767 535.9014 589.9868 530.5226 580.3794 526.1662 576.3073 518.3159 571.5218 505.792 559.9986 495.0926 535.0898 481.2037 516.5808 473.3355 504.1653 463.4745 503.6862 461.8052 492.8561 466.299 499.6596 476.653 520.5629 493.0323 523.9193 500.5462 520.544 506.8831 519.8937 513.5572 518.4416 520.5641 512.742 527.8995 497.2642 537.5603 495.4967 541.5633 507.3533 543.4122 513.9188 547.0913 512.3856 555.433 507.006 564.7713 501.872 570.4389 494.3372 574.6024 485.2027 577.0961 432.492 582.0623 430.969 583.8971 429.4448 588.068 427.1199 592.2385 423.1944 594.0722 416.9479 592.5677 413.6655 589.0623 411.4243 585.2235 408.3016 582.052 Z"/>
</g>
</svg>