<?xml version="1.0"?>
<svg xmlns="http://www.w3.org/2000/svg" version="1.2" baseProfile="tiny" width="800" height="1089" viewBox="0 0 800 1089" stroke-linecap="round" stroke-linejoin="round">
<g id="ne_10m_lakes">
<path d="M 659.4096 468.6648 657.4913 463.7821 653.079 462.9933 648.3109 464.5772 645.097 466.9868 646.7633 470.5201 645.1852 474.0939 642.1787 468.3767 638.5808 464.6971 635.3625 460.3352 634.0396 452.9043 633.1527 443.0988 630.8395 436.5254 626.952 433.6929 621.2666 435.4489 617.8415 439.548 615.5072 444.8195 613.0099 449.4154 604.9529 453.8984 602.3875 459.8473 601.3043 467.4737 601.9922 474.5749 594.1678 480.7428 590.7635 480.436 589.3043 473.0029 589.3137 465.5564 589.794 458.9517 590.8973 453.0183 592.7729 447.2469 588.2739 444.5804 584.2644 444.7855 572.1884 449.1186 569.833 453.7069 565.9284 467.7841 562.8751 462.3919 559.226 459.7113 555.3597 458.893 551.4283 459.7667 553.4167 457.0451 554.6326 454.3288 556.6678 447.5449 552.2562 445.5452 549.7266 447.9318 547.5945 452.177 544.2198 455.4146 540.1331 456.1174 528.0683 451.9571 529.287 449.0734 531.7057 440.2595 507.1081 441.059 499.2237 436.3522 502.13 430.4178 505.739 427.1877 513.4314 424.2768 510.9492 420.565 509.0805 416.004 508.5956 410.76 509.9557 405.0001 513.0929 401.0936 516.0983 402.0948 522.287 408.4949 538.7298 416.1868 545.3922 422.237 548.7092 422.892 553.0801 419.9851 548.2694 414.7717 537.8455 410.0998 533.1962 404.8812 534.6534 404.0265 538.634 400.6179 537.7732 398.2539 537.2983 396.0568 536.5169 394.0307 534.8919 392.348 542.4614 385.5323 585.1395 404.4996 582.8027 401.3047 574.4346 394.268 566.1308 374.8727 565.0403 363.0349 569.8672 352.3355 576.7821 344.4941 585.3302 340.0201 592.4832 334.3701 596.1483 332.9816 599.9161 334.299 603.6182 336.6316 607.3839 337.6088 611.1893 335.031 614.7854 334.4853 624.408 338.2722 628.2011 334.8444 631.8522 326.002 633.237 320.0626 627.7858 312.1721 628.0331 300.4925 630.3312 287.7738 634.737 272.8301 634.0593 267.2537 631.6473 263.39 624.8942 260.0832 619.2332 251.8544 616.4679 250.0231 589.0173 241.6673 580.146 246.8229 576.106 255.8259 571.322 277.0179 566.2442 281.9658 567.2749 286.6959 568.8317 290.2373 570.9923 292.7583 573.6039 294.26 569.1193 306.9883 563.8397 316.8446 557.4579 323.4921 549.6629 325.9161 546.6883 327.7976 540.5348 335.9601 537.3274 337.8414 514.9462 337.9623 495.4482 329.9205 484.3359 328.772 476.4629 335.9006 471.4949 342.1734 449.044 358.114 438.1486 369.4576 434.3852 377.9193 432.9235 390.9498 435.3072 407.7038 441.3901 413.9643 469.1805 411.0544 472.1863 412.5712 474.2791 418.6588 473.4431 423.5685 471.5272 428.3112 470.461 434.4058 474.1934 448.2747 482.8534 454.8526 492.5135 458.3765 499.3283 463.9368 503.2066 468.1525 500.6615 469.1779 499.5072 470.367 497.5939 475.2819 501.3006 474.5909 504.5524 476.101 506.0384 480.3257 504.8308 487.4385 506.0837 491.1564 506.6465 496.2311 506.7598 523.1387 506.1532 526.3566 505.1581 529.407 504.7068 532.7935 510.6166 554.0914 510.1058 561.5399 508.4921 565.6084 506.2574 570.0179 503.6464 577.8132 518.4842 575.3778 525.8101 578.8941 527.0363 590.0567 523.7127 594.305 518.2637 593.9941 508.8308 590.1453 504.1654 590.8417 500.2822 592.7185 496.5599 596.2862 492.6087 601.7152 492.5575 609.6691 489.0773 617.634 484.8143 625.6006 481.8728 633.3932 484.2224 636.771 490.8144 648.7656 484.8197 654.5376 481.1646 660.3014 481.9595 665.3758 489.3157 668.7384 505.4774 664.449 513.5257 664.414 518.5659 672.5126 515.2028 672.1903 511.8443 672.8826 508.568 674.5892 505.6066 676.9707 506.5471 677.4745 507.4862 677.6397 508.2717 678.4825 509.2189 680.509 504.8567 684.927 501.408 683.2486 498.7334 679.1975 496.4576 677.006 470.9563 672.6788 473.0845 680.6274 474.4229 684.5164 476.3872 688.0653 473.8043 687.7329 471.4541 686.3843 469.3369 684.0196 467.4531 680.639 470.521 689.2629 475.9356 695.6811 487.4686 704.1104 483.8977 715.4581 483.1304 721.3827 483.9319 727.6412 487.4749 732.1993 493.4448 734.549 508.274 734.6613 520.3215 727.4987 522.2728 725.6276 525.3073 721.0432 527.7303 719.6765 529.774 720.6806 532.2968 723.2046 535.1272 724.542 537.7761 721.6497 543.5998 712.6455 551.3185 706.8415 559.2092 703.9093 565.9432 703.6899 573.7909 705.6586 576.171 709.3618 577.0979 717.3072 574.913 718.5097 560.6252 715.5748 561.6774 720.1358 563.3499 723.6768 565.405 725.861 567.9246 727.1953 566.5336 729.9135 563.9158 736.5326 562.3651 739.0823 568.1159 741.9151 580.5855 740.6292 586.4153 743.1167 591.0317 750.1821 587.5277 753.5978 580.7131 755.8568 575.4747 758.9463 582.6474 770.8995 583.637 776.3055 579.4085 778.5412 570.0893 773.7103 560.9964 766.8423 557.8951 761.7887 552.5182 745.2442 548.6417 740.7018 542.7365 737.6942 531.5011 735.2231 526.0918 736.0987 521.7847 737.8131 513.2571 743.6072 508.0062 745.6609 493.0045 743.6876 490.0284 745.8971 487.3749 751.1507 485.2735 757.756 484.0321 763.3432 483.0942 765.2071 481.6054 766.9032 480.5124 769.7825 480.3692 775.1973 481.6252 774.3479 489.6611 779.0618 487.7063 782.9595 494.4805 785.3062 502.2738 786.1234 509.2909 789.3093 513.5041 798.5963 504.8412 798.4644 500.5927 799.4963 497.0597 802.5549 494.2447 808.6558 496.8484 809.6617 506.1348 806.7496 558.598 805.6063 563.118 809.6338 568.6207 818.2206 571.5626 821.4121 574.261 823.5899 575.5498 826.9632 574.2641 833.9104 571.6038 836.8079 567.9101 838.8671 565.5599 841.2538 567.0139 845.6414 556.7998 852.9917 551.2082 855.5681 548.746 853.5544 543.7212 845.8045 538.334 842.7924 532.6405 841.1339 526.5464 838.1221 529.8164 829.8143 527.8971 824.9183 523.1533 822.5747 518.2619 822.0915 515.5871 823.4577 512.6805 826.0089 509.7674 827.2061 507.0731 824.1722 506.0341 820.7928 505.2328 817.5815 504.2774 815.2167 502.6183 814.2082 500.1024 815.9098 499.2495 819.8043 498.7124 823.8668 497.1441 826.4104 494.1481 826.7593 492.0913 824.9052 490.3499 822.8806 487.8244 822.2118 484.4389 824.0829 480.1119 828.1552 476.0219 833.241 473.1134 838.3232 471.0744 844.7565 469.9828 851.6951 469.6027 859.3089 469.4612 867.768 471.0637 878.2534 474.8658 880.4443 479.4542 880.264 483.4178 883.1292 490.5033 896.8105 493.6057 901.0294 498.9287 905.4088 515.6791 912.6126 515.6968 916.5032 513.4755 916.1752 508.8017 917.0416 506.5798 916.5434 507.7877 921.1057 509.468 924.6508 511.6197 927.0096 514.0864 928.6901 496.9367 924.8695 488.612 926.0814 481.7333 934.5591 476.0411 944.046 469.2229 949.4735 461.5219 951.855 432.2092 951.3673 363.1899 929.2267 335.7428 928.5823 327.9899 924.9834 322.3258 917.6732 316.1818 911.7111 307.3003 912.3239 291.4688 919.4727 284.3487 917.5509 278.0927 890.0897 269.8493 891.1965 253.8795 904.3997 249.6213 902.4934 245.6728 893.9917 240.1514 892.0689 236.3267 894.2243 232.9548 898.2451 229.2111 900.0615 224.4246 896.2816 228.8017 887.7069 233.794 880.3224 227.1479 873.6451 218.3786 872.8598 200.6999 876.0109 176.145 867.5369 167.8546 871.9777 162.597 879.5083 157.8677 888.3992 152.6832 895.7586 142.0038 899.8091 134.7843 905.0981 131.1201 906.2178 129.6502 908.7294 124.6294 919.2975 121.6511 921.7811 120.6605 923.9622 116.7474 934.2097 115.0168 937.7301 110.7549 940.6953 80.5865 944.4982 76.9731 946.4534 70.4473 954.7748 67.3868 956.7396 63.893 960.3863 37.7453 999.2174 36.1413 1003.2401 31.7343 1018.3611 33.6474 1018.4058 31.2612 1028.668 32.6428 1034.6203 35.2492 1039.4168 36.6941 1046.2157 35.6074 1051.9412 30.4678 1063.6607 28.5712 1069.7048 27.9406 1079.8374 28.366 1085.7666 26.9634 1087.5938 20.8569 1085.0809 17.6279 1082.8047 14.1196 1078.8297 11.7524 1074.0364 12.1043 1069.3094 9.6109 1066.5421 6.9219 1065.2917 4.049 1065.0512 1 1065.4822 9.5701 1051.4882 11.743 1044.0995 9.0989 1037.7762 18.5448 1029.8879 16.407 1025.7766 15.5259 1022.5414 15.769 1018.9952 16.9206 1014.1178 12.7775 1010.6337 10.5629 1009.9027 7.9216 1010.3449 17.8 983.5214 20.6075 979.1909 22.6194 978.2242 30.8178 971.1445 39.4073 967.6224 42.1923 963.9645 40.0428 960.5319 38.31 959.8154 36.7663 961.3023 34.8815 963.7961 35.7227 958.233 35.0086 954.6638 33.2472 951.7468 34.2769 948.3873 36.2137 943.5262 38.1268 939.6794 39.0715 940.0395 37.5916 931.7156 34.6018 927.0783 30.9562 923.44 27.5137 917.9448 25.6687 905.2117 33.7879 907.0952 43.0522 918.1372 44.7987 932.3883 52.6253 926.4737 62.8543 922.9764 89.3796 921.3312 94.0866 919.9027 97.8175 915.5777 100.0668 909.8696 103.3801 898.0912 104.7169 894.3949 110.83 889.2667 128.8196 879.1077 136.6172 867.2327 160.6588 851.7305 169.9374 849.3387 244.2388 858.4484 254.1402 863.8004 273.9522 866.8742 278.2819 868.9445 281.4117 872.6948 284.5828 881.0125 287.3233 884.4199 291.366 883.6084 297.0094 880.4404 301.9183 879.9718 304.0038 886.7547 302.486 888.6039 292.7175 892.5857 300.9902 897.8967 321.389 890.9389 330.4453 898.9475 338.1023 903.56 354.0457 882.1585 362.7382 884.9041 358.2747 892.159 356.4166 900.4397 358.2146 905.8611 364.4766 905.2114 362.6718 900.9748 366.4857 897.9455 369.6434 900.6645 375.5496 910.8358 379.5872 912.2027 383.1609 909.8457 384.2827 905.62 381.2067 901.0431 383.8276 898.6829 386.5213 898.3524 392.2169 901.0743 390.3055 905.1293 386.0096 911.3765 384.6472 916.6165 390.9052 918.6637 406.3663 918.8659 411.6735 922.7646 416.504 929.5368 422.1344 933.0943 428.3237 933.9437 434.6724 932.4227 451.0067 918.8831 456.8714 916.6776 469.0013 916.6581 474.4671 914.6166 478.8128 908.8547 468.871 889.9306 457.0561 873.7092 444.0801 862.2169 430.9613 857.9892 430.9623 853.9289 432.78 849.0231 431.0433 845.6391 408.0044 834.4519 404.4603 830.5546 403.9214 823.1095 405.9017 817.8682 409.9186 820.4124 413.0682 823.8005 454.7179 833.4475 464.1026 830.389 470.9582 826.4849 474.7365 823.0929 476.6975 818.6893 476.2866 811.5844 473.9919 807.36 471.0702 804.1517 468.5427 800.6037 464.1163 790.9677 461.5071 783.1889 461.1783 773.7143 463.9857 759.497 466.0183 753.7405 470.8704 745.1017 472.8995 739.5136 474.45 731.0497 473.5019 728.0061 471.1456 726.3191 468.3924 721.9252 465.4866 719.0541 456.7013 714.3294 454.8159 710.2706 451.7458 695.0447 451.1915 688.1074 451.5776 682.6921 452.6664 676.43 453.2855 670.1683 452.733 664.9231 449.2915 661.0342 443.8224 660.1918 433.7447 661.3784 416.3279 656.4605 399.5317 658.2949 375.9897 667.0286 374.642 672.4388 376.2362 686.3203 373.8631 693.5882 368.3163 690.8598 362.2429 683.5586 358.1265 676.9409 366.7517 671.0552 370.988 667.0104 374.5251 661.2699 350.7752 661.1686 354.8685 654.5888 356.4382 652.9039 352.5534 648.8242 347.413 646.4293 327.9938 643.6103 324.8949 640.0368 327.4354 633.1149 335.7997 629.9506 362.6887 633.6404 370.1561 639.0857 378.0083 647.5751 386.8338 646.0795 404.6461 637.4906 418.6132 635.6486 423.8386 637.5144 430.39 644.6249 434.2925 644.7948 438.2719 637.518 434.6832 633.4569 438.2705 629.5645 433.2025 623.3034 431.0201 621.7799 432.1116 620.5956 432.2676 620.2572 432.2677 619.5803 432.8915 617.3805 430.7099 616.0262 429.308 614.1643 427.2844 609.5944 438.8885 601.473 444.2576 596.0558 449.2305 586.068 433.596 585.3967 429.1615 588.1033 416.6218 601.8016 412.0293 601.119 403.3984 595.3513 398.343 593.818 394.0601 594.9927 382.132 601.7286 383.9465 593.7805 380.0605 592.2453 367.5268 593.7229 367.5409 590.1692 371.598 587.1388 377.4682 576.4984 380.43 574.139 384.2433 572.6279 382.3889 569.0683 374.8761 562.1048 380.2493 557.8923 400.283 558.6225 394.8179 570.7949 394.6387 580.7789 399.057 587.3889 407.6093 590.2818 415.8581 588.7702 433.2855 579.9814 448.2897 576.2535 455.4359 571.3389 461.2526 563.3772 463.6426 552.5427 460.1391 545.6097 443.7596 533.6104 438.2528 527.1814 444.2914 512.7946 445.6047 507.2092 443.9779 505.5178 443.2028 503.6566 442.6602 501.7953 441.808 499.7649 459.9713 483.671 459.9652 479.4402 427.572 491.3027 416.7426 491.4635 416.7469 487.5712 433.0654 480.9812 441.5668 475.3955 448.2057 466.0839 452.5175 452.8799 452.9683 441.2024 449.1058 433.4214 440.0092 432.2417 425.6672 440.532 420.499 441.8821 406.0017 440.5093 398.5278 437.4485 393.6115 429.9908 386.1096 412.5397 382.3514 407.9591 379.1984 407.1028 362.414 408.3924 356.8792 406.8445 349.4517 399.3621 340.3048 397.9592 336.94 394.5552 336.0271 392.8575 332.8949 389.4541 331.7458 388.7702 328.6749 388.0741 327.4547 386.5433 326.7804 383.8312 323.5365 374.6715 322.5021 368.5723 320.694 363.4831 316.8713 361.2567 304.0996 374.8697 300.1615 377.3771 295.1607 378.1824 290.174 377.294 281.696 371.8033 280.2744 376.0211 280.0565 382.9577 279.007 388.3635 276.2169 390.7067 272.6719 391.519 269.5345 389.9653 268.1877 386.2288 266.7133 379.9524 262.9501 379.7451 255.7554 384.2393 243.1833 387.9931 241.7482 385.7765 240.5005 380.685 238.8716 375.4198 236.1445 372.1723 243.0536 365.8216 257.7888 359.2141 264.0899 350.9869 271.1131 338.8723 272.2992 335.1607 272.5726 315.025 272.5126 313.3322 273.1858 307.0773 273.9919 302.8543 275.8551 299.9953 279.8537 297.6636 285.2166 296.5279 302.0274 297.8543 310.2318 294.8714 309.0562 288.6014 302.3774 282.7962 294.2106 281.8834 268.6583 293.1563 262.8587 299.5284 253.8151 315.3406 252.0305 317.5212 249.9636 317.4985 248.3023 315.4493 247.6612 311.2114 248.6307 306.653 250.7877 305.323 253.1701 304.3337 254.8841 301.4753 255.4052 295.7271 253.9748 293.681 219.3422 287.8558 212.0055 282.1752 207.8206 280.9343 203.7489 282.5709 200.7149 286.4211 198.2861 290.6177 196.1098 293.1253 192.1943 294.2537 189.6204 292.5239 183.6978 284.8207 179.0006 282.2111 168.9454 280.3621 164.4239 276.5665 171.0497 272.9491 173.7734 264.8688 172.1448 256.8895 165.7992 253.0656 150.2068 250.6075 142.4191 251.1501 134.5509 256.0877 137.6163 251.0654 144.1272 245.0875 147.17 241.0786 145.7915 232.7627 150.381 231.6568 166.8493 240.0519 178.6269 242.2672 182.6163 245.5432 181.7443 247.73 181.3346 249.5852 181.0799 251.2737 180.5912 253.297 244.3867 269.883 242.1053 262.5803 240.8698 257.3201 240.5561 251.5629 241.1971 242.4324 242.5794 235.0027 243.8549 230.11 242.9983 225.1929 237.983 218.0274 254.013 199.7645 256.0795 191.4955 255.0882 184.8857 253.155 181.1422 250.439 179.5895 247.3304 179.2164 244.0996 176.3032 242.659 169.6876 241.6767 162.908 239.5876 160.0072 234.7784 156.3969 230.5652 147.7164 223.9736 130.0374 218.4111 127.0896 211.8823 134.1097 205.3762 144.5118 199.9009 151.2036 194.9492 127.1062 191.8291 118.0934 188.2232 111.4416 181.5092 105.588 173.9797 103.7796 166.0855 105.8534 158.2132 110.9695 130.3717 140.2635 115.1644 147.0855 103.2395 133.4844 105.4121 123.3749 101.015 120.0723 81.3199 121.1884 73.7601 117.4726 67.0443 106.6651 58.8304 102.2512 55.9521 102.5243 54.5694 106.723 53.1503 112.4438 50.0869 117.2805 46.457 120.4113 43.5794 120.5131 40.7506 112.3239 46.4021 103.6576 60.1331 91.6204 65.1154 91.7319 78.4006 105.8971 84.5201 109.5805 90.9149 107.5143 95.8356 103.5544 100.3346 101.615 105.6916 105.7828 113.5001 119.9797 117.6465 124.6278 124.6498 126.4519 128.118 123.1321 132.0445 115.4205 135.1643 106.1709 135.6757 98.9045 138.1035 94.2105 139.0926 89.6598 138.4086 85.7561 135.9709 82.8361 136.0393 79.1151 144.8689 79.1024 149.5064 77.1524 152.89 73.488 155.411 67.2707 157.5592 60.7084 159.7638 55.162 162.9091 51.8302 161.7753 47.5821 160.321 44.5128 158.5546 42.115 156.0998 40.3821 164.5359 35.6156 166.6931 32.6055 168.5153 27.0522 170.2856 15.4077 171.5596 11.0297 175.575 4.3264 179.2332 1 180.9926 3.7337 179.2953 16.0567 181.3978 20.9949 190.2112 19.9432 193.9269 22.8735 194.503 29.6487 190.9092 33.4871 178.1871 38.5394 175.4372 41.0343 173.9336 45.5785 173.3427 54.1973 172.2388 57.2252 167.5037 65.6088 166.0433 71.8451 171.5194 78.362 177.3502 81.8372 193.1661 84.1051 196.6153 85.6777 199.5903 88.7654 200.7203 94.1955 202.5206 95.0667 214.9471 92.1904 226.6637 97.2478 242.9524 118.9311 254.9978 124.1416 253.452 113.4657 256.2166 109.6043 265.7569 108.1814 266.0786 106.3236 266.4194 102.605 267.2889 98.8917 269.4985 97.0528 271.9122 97.415 274.1632 98.9596 276.3292 101.5182 278.1871 104.7504 276.2633 108.285 277.6091 109.8205 278.6545 111.1839 279.7788 112.2096 281.5901 112.5647 281.5535 116.4557 280.5079 123.0445 288.4802 128.3616 284.9601 132.56 288.9026 140.378 293.9477 143.8055 306.0626 144.5805 306.0346 148.1334 302.151 150.4716 301.8176 154.1913 303.9846 158.1 307.5283 160.6655 301.3088 170.092 282.6662 192.0979 280.7761 199.1872 279.7704 201.0392 277.2003 207.4451 285.9893 211.0793 278.6456 215.4117 270.1263 215.1605 262.4139 217.79 257.4037 230.7671 263.432 229.6456 275.5999 223.5051 280.5174 226.7664 274.3576 233.8153 255.4812 246.4839 260.478 249.7519 262.5329 250.1117 258.9677 269.8735 267.5237 269.2844 290.9341 254.611 305.5674 255.9152 313.936 258.8546 317.5567 264.6338 320.9241 274.3026 328.1516 278.4117 334.505 276.082 335.0958 266.7784 330.5465 262.0125 315.8242 250.9149 314.1275 243.1188 318.7228 239.9363 334.8426 245.6248 341.499 241.2639 343.436 235.5213 344.1459 231.1257 345.3801 228.2558 348.5834 227.2574 348.9517 229.6283 353.6237 239.6352 354.8346 241.3332 353.9714 246.4055 350.1313 251.9705 349.267 256.8733 349.6949 262.6289 351.9338 272.624 352.6678 278.5503 355.592 273.9956 355.8486 268.2434 355.4939 262.6575 356.5051 258.6011 359.2568 257.4293 367.7993 257.6351 370.7702 258.6621 372.1343 261.0363 372.2772 263.5751 372.4971 265.945 374.1724 266.9665 375.4687 267.3096 386.3585 275.6366 393.7581 278.7025 393.7488 282.4252 389.4721 281.9064 386.1798 284.4354 385.402 289.0021 388.4428 294.7643 370.6279 295.2128 365.1869 298.2369 377.2119 314.5282 382.919 325.2081 380.2221 330.107 371.5057 325.5071 357.7263 307.5114 349.0114 306.1151 341.4856 311.1514 328.5504 323.4277 315.1147 328.0753 306.6415 334.1048 299.6748 342.6807 298.8992 353.1667 303.5842 352.5271 327.5669 333.4058 330.004 335.7904 334.0737 347.1537 336.3484 351.5672 340.9433 352.9474 343.7321 348.0552 345.0724 341.2933 345.474 337.9109 351.3307 331.6798 352.379 336.5926 349.9521 346.5648 345.2249 355.6785 341.0982 366.3174 345.6632 374.1269 354.089 379.0773 383.5131 380.7166 389.7257 385.1345 386.626 393.7566 389.2236 400.0254 398.8985 408.6799 407.4202 422.2346 412.1163 424.4418 416.8249 416.4937 411.3637 411.9176 407.2924 406.4959 399.7829 390.9125 397.9544 383.2932 398.9679 376.6955 405.1379 363.5079 408.5226 359.1137 436.7632 334.0894 443.6584 330.7029 450.8598 330.1901 445.2622 322.0716 432.8585 310.3979 427.4291 302.4428 421.2476 286.0244 417.2822 278.7442 411.6358 274.8452 415.3848 268.7582 413.2538 264.0175 408.9106 259.9501 406.2488 255.2076 409.6861 251.829 411.2188 246.5856 410.3115 241.6771 406.2761 239.6401 409.0278 234.2298 410.8647 228.3102 413.0788 223.9139 417.0377 223.5803 415.2963 215.7947 416.5942 211.9044 419.9422 210.8926 424.1252 211.742 420.2514 205.4783 415.0844 202.4271 404.5217 199.873 410.1598 191.253 419.8111 188.5575 428.9288 182.4722 432.9561 162.8463 433.3362 155.4018 434.777 142.0357 434.7014 136.7907 432.2796 130.1921 428.8763 122.9161 427.9712 116.6559 432.9632 113.2737 433.794 123.7632 437.502 128.162 441.5898 130.5296 443.4087 135.0969 444.5505 145.9245 447.5096 151.6752 451.9832 153.5324 457.6672 152.849 451.7614 159.1161 445.7011 168.2575 440.6975 179.5962 438.1944 192.4561 447.3168 199.051 450.738 199.8942 447.5481 203.4501 446.3343 207.5119 447.3259 211.5722 450.7528 215.6303 444.0595 220.0346 441.3213 224.4352 439.953 231.7117 441.9334 232.2186 445.286 234.5859 447.0385 235.2616 438.2041 247.4487 441.7919 259.9696 437.1407 282.3074 441.7275 290.598 448.4523 289.0711 462.0327 274.6714 468.3021 278.7215 457.9246 285.8459 453.3451 290.5895 448.9949 298.3778 452.901 304.2969 461.8563 307.6696 470.1371 316.1156 474.7256 314.244 482.7396 306.2698 491.0672 302.8598 502.4576 301.2951 512.493 304.8056 521.6343 326.9296 532.4326 326.5322 551.3691 317.9507 553.1861 315.0612 554.7437 308.112 555.6808 300.1517 555.5627 294.399 552.6935 288.6657 539.637 278.4295 558.1957 278.3038 561.4592 275.572 562.4815 269.4724 561.5903 262.7103 558.8106 258.3313 561.7403 252.3869 569.1136 249.4529 571.2717 243.0053 556.3271 242.1047 551.8106 239.26 546.4088 229.1439 543.6598 227.9774 541.0753 228.6708 538.4843 228.3486 535.6361 223.2895 540.1068 220.0471 539.5398 214.636 537.0583 207.0368 535.4808 197.74 537.5381 198.5736 551.6413 215.233 557.4573 219.7603 562.6375 220.3985 573.7347 218.6183 576.5814 213.3489 578.7007 203.3475 582.142 197.0569 588.7361 203.2584 586.4505 219.3543 593.7741 229.101 640.6158 254.3136 647.8552 265.7307 643.6267 275.4296 642.2688 282.8924 643.0065 299.1293 646.3966 301.1178 661.7047 301.9337 666.2342 308.6413 662.0678 311.7443 659.939 312.7883 657.3349 312.6537 662.0109 324.4376 656.8483 333.6451 647.8337 341.8848 637.7108 354.3638 626.7583 362.7845 618.8182 366.7654 609.8485 375.4917 604.5567 376.3919 604.5943 380.1147 611.2503 384.6159 617.5278 403.5037 624.5004 407.6578 634.1656 404.8388 639.0924 404.9492 643.3812 409.4662 645.2107 414.1823 645.8089 418.9135 645.0166 423.3237 642.6745 427.0759 649.5543 440.8677 660.9985 448.8422 673.2166 450.7055 682.5651 446.1708 683.0352 425.6854 711.9842 419.4811 711.4444 400.7036 706.4009 393.3387 701.3359 389.1883 699.0241 383.9781 702.0052 373.2688 701.1742 364.4813 694.0634 356.4686 685.1516 350.6799 679.2064 348.0593 687.0413 338.6357 712.5766 316.0635 709.3718 312.0544 707.5971 306.4984 707.3334 299.7332 708.8222 292.6011 706.1389 292.1369 703.7396 290.3139 702.0832 287.1249 701.4724 282.396 701.6147 276.9783 682.9098 241.727 677.2024 221.5037 679.3362 206.243 685.355 191.9398 690.9333 174.4263 685.2586 170.6203 666.0589 170.5582 660.4075 167.928 649.2646 157.0762 642.7995 155.4657 637.9037 158.0639 629.1234 165.7824 623.6057 167.5376 610.0053 165.6549 597.1331 160.3702 597.0897 155.9714 603.2781 153.2031 621.7264 155.7144 627.3978 154.4657 632.2163 151.7023 641.0611 143.8123 644.1017 144.6206 651.541 151.4631 654.5768 151.7619 661.0021 150.4918 664.0449 151.2964 668.0503 155.8095 671.6885 161.0038 675.8177 163.3138 681.6744 159.3366 678.2157 151.0961 686.8188 138.7859 681.1291 133.1178 678.4094 128.4201 677.8044 123.3529 680.1821 120.4417 691.8658 127.3724 728.9413 126.7605 729.0111 130.651 726.0807 131.8869 721.174 137.0479 718.5447 138.2772 715.1086 136.6432 711.8716 133.313 708.4287 131.1701 688.2628 144.0094 685.1114 150.9943 690.3147 159.0376 697.1458 164.1773 701.7948 170.1954 700.669 180.3662 695.8686 188.9025 690.8797 195.4098 687.1313 203.7583 686.1208 217.3111 688.616 231.1497 693.5766 236.6584 699.5694 239.7802 705.4021 246.9639 705.3241 251.5343 703.7429 257.4828 703.0649 262.7398 708.568 267.8971 710.9699 274.6271 716.2364 297.048 717.517 300.4113 719.4892 303.932 723.6807 307.4146 728.5177 308.3463 738.3736 307.4943 739.1114 310.1888 737.8518 329.336 739.4854 334.8915 742.7115 331.1095 748.3107 319.159 754.5667 313.964 761.5467 314.6761 768.389 319.9576 774.3089 328.6401 780.0637 332.7542 789.043 336.9682 796.8444 343.2338 799 354.1888 794.4116 362.073 786.6432 361.3908 772.1535 354.7478 764.6528 355.7426 760.8864 359.3701 759.3556 367.5236 757.501 402.9326 757.6593 423.2398 760.2299 432.6686 766.1426 439.3239 773.3201 443.413 779.3591 444.4758 775.8029 447.933 763.3925 452.5793 763.4781 456.9783 767.4067 460.4558 755.8237 476.7586 755.1982 484.5561 741.9791 501.8953 725.1594 514.2084 708.0825 516.8616 694.1918 505.2325 695.0407 505.0503 695.0611 501.3266 694.5217 496.4267 694.011 493.3881 692.9075 492.051 688.9972 489.2329 687.5825 487.7309 685.5693 482.345 684.1032 477.2893 682.4186 473.0828 679.3615 470.0809 668.6665 473.2783 662.3334 473.5338 659.4096 468.6648 Z"/>
</g>
</svg>