<?xml version="1.0" encoding="utf-8"?>
<!-- Generator: Adobe Illustrator 24.0.2, SVG Export Plug-In . SVG Version: 6.00 Build 0)  -->
<svg version="1.1" id="Layer_1" xmlns="http://www.w3.org/2000/svg" xmlns:xlink="http://www.w3.org/1999/xlink" x="0px" y="0px"
	 width="3290.08" height="4901.91" viewBox="0 0 3290.08 4901.91" style="enable-background:new 0 0 3290.08 4901.91;" xml:space="preserve">
<g>
	<path d="M2919.87,3548.82c5.31,0.36,10.63,0.54,15.91,1.12c9.26,1.02,18.62,1.7,27.7,3.61c13.95,2.93,26.17,9.7,36.56,19.51
		c1.29,1.22,1.88,3.44,2.28,5.3c0.76,3.5-2.02,7.11-5.2,6.91c-5.31-0.34-10.85,0-15.86-1.46c-10.17-2.97-19.82-1.17-29.49,1.54
		c-11.56,3.24-22.76,7.56-33.6,12.72c-14.44,6.87-28.77,13.96-43.14,20.97c-2.39,1.17-5.13,2-7.02,3.73
		c-8.15,7.44-18.24,10.75-28.34,14.22c-5.03,1.72-10.04,3.7-14.7,6.22c-15.43,8.33-32.15,12.9-49.05,16.66
		c-19.49,4.33-39.17,7.77-58.81,11.38c-4.56,0.84-9.3,0.64-13.92,1.22c-12.54,1.57-25.08,3.11-37.57,5.03
		c-20.51,3.16-41.18,2.55-61.81,3.04c-3.33,0.08-6.76,0.31-9.97-0.36c-18.99-4-38.51-1.81-57.59-5.76
		c-32.07-6.63-63.5-14.98-93.44-28.48c-0.86-0.39-2.36,0.49-3.48,0.96c-0.23,0.1-0.23,1.07-0.1,1.59c0.15,0.63,0.48,1.25,0.84,1.8
		c14.48,21.98,23.81,46.14,29.45,71.68c2.72,12.32,4.09,24.95,5.73,37.49c0.42,3.2-0.27,6.61-0.82,9.86
		c-0.18,1.07-1.42,2.05-2.36,2.86c-1.14,0.98-4.15-0.06-5.17-1.61c-1.45-2.22-3.09-4.36-4.22-6.74
		c-8.87-18.72-23.46-32.08-40.22-43.52c-7.27-4.97-15.37-7.9-23.64-10.52c-19.67-6.23-39.42-12.23-59.04-18.63
		c-12.65-4.13-25.12-8.8-37.68-13.22c-1.49-0.53-2.72-0.12-3.45,1.24c-0.26,0.48-0.38,1.19-0.24,1.7c0.53,1.92,1.05,3.88,1.84,5.7
		c10.42,23.95,16.45,49.22,22.38,74.51c0.99,4.23,2.64,8.88-0.32,13.25c-3.51-1.24-4.7-4.53-6.48-7.25
		c-6.53-10.05-12.83-20.26-19.54-30.2c-11.64-17.24-25.73-32.29-41.91-45.36c-9.85-7.96-19.82-15.76-29.76-23.61
		c-7.83-6.19-15.68-12.36-23.56-18.49c-3.33-2.59-5.92-3.18-6.89-1.9c-1.41,1.86-0.8,3.71-0.34,5.64
		c8.59,36.33,19.57,71.97,31.38,107.35c8.22,24.63,16.96,49.1,26.3,73.33c8.38,21.73,17.92,43.01,26.87,64.53
		c6.14,14.75,12.02,29.61,18.26,44.32c7.59,17.9,17.03,34.68,30.99,48.55c1.42,1.41,2.67,2.98,4.11,4.37
		c8.04,7.79,12.3,17.51,12.9,28.43c0.67,12.22,4.09,23.54,8.64,34.71c2,4.92,3.58,10.02,5.14,15.1c4.29,14,8.29,28.09,12.75,42.04
		c2.38,7.43,1.12,14.48-1.14,21.5c-0.57,1.78-2.01,3.51-3.48,4.74c-7.68,6.43-16,11.95-24.87,16.65
		c-15.9,8.42-31.87,16.71-47.61,25.42c-13.41,7.41-26.51,15.36-39.79,23.01c-4.67,2.69-8.6,6.13-12.27,10.1
		c-4.89,5.3-6.67,11.11-5.71,18.25c2.3,17.18,5.35,34.21,9.19,51.11c4.42,19.47,8.6,38.99,12.64,57.39
		c-6.72,19.73-6.63,19.73-6.7,40.11c-0.03,9.38,0.41,18.64,3.25,27.68c0.8,2.53,1.67,5.19,1.7,7.79
		c0.36,26.17,8.83,51.1,11.75,76.91c1.48,13.13,5.99,25.92,9.19,38.84c3.53,14.22,7.1,28.43,10.72,42.62
		c1.15,4.52,2.48,8.99,3.77,13.47c5.96,20.81,15.45,39.69,30.83,55.22c4.31,4.36,7.56,9.12,9.2,15.15c1.22,4.47,3.12,8.8,5.2,12.96
		c3.58,7.17,7.03,14.35,8.65,22.27c0.13,0.64,0.46,1.25,0.71,1.87c2.95,7.41,6.56,14.63,8.64,22.28c1.9,7,1.87,14.5,3.18,21.69
		c1.8,9.87,3.22,19.67,2.21,29.78c-0.45,4.56-0.09,9.42,1.02,13.87c3.21,12.93-1.61,25.08-3.08,37.53
		c-0.37,3.13-2.38,6.26-4.25,8.96c-3.42,4.91-7.11,9.67-11.07,14.16c-1.69,1.91-4.17,3.36-6.56,4.36c-3.67,1.54-7.5,2.94-11.4,3.64
		c-11.86,2.13-23.2,5.98-34.48,9.96c-6.49,2.29-12.85,3.2-19.57,1.4c-2.55-0.69-5.24-1.03-7.88-1.21
		c-12.37-0.88-23.99,1.57-34.04,9.04c-7.59,5.65-15.81,9.72-24.75,12.68c-5.04,1.67-9.94,3.86-14.75,6.15
		c-20.25,9.64-41.01,10.43-62.28,3.99c-6.36-1.92-12.75-3.71-19.14-5.52c-5.2-1.47-10.39-1.85-15.79-0.76
		c-7.16,1.44-14.61,1.29-21.55,4.06c-1.83,0.73-3.85,1.12-5.82,1.34c-15.21,1.73-30.43,3.41-45.65,5.05
		c-9.38,1.01-18.59,0.61-27.52-3.02c-3.04-1.24-6.44-1.58-9.67-2.38c-3.88-0.96-7.8-1.77-11.59-3c-5.05-1.64-9.99-3.63-14.94-5.45
		c-2.28-3.56-4.26-7.03-6.6-10.24c-7.96-10.96-18.6-16.65-32.35-16.79c-8.86-0.09-17.23,1.28-25.15,5.27
		c-5.35,2.7-10.76,5.29-16.07,8.08c-4.25,2.23-8.81,3.16-13.5,3.12c-2.58-0.02-5.64-0.25-7.64-1.61
		c-7.93-5.39-17.16-7.19-26.01-9.91c-14.72-4.52-25.67-13.65-33.91-26.35c-2.32-3.58-2.59-7.42-1.14-11.45
		c4.97-13.77,10.02-27.51,14.77-41.36c1.72-5.02,2.74-10.28,3.97-15.45c3.4-14.3,7.57-28.34,14.34-41.44
		c2.74-5.31,5.76-10.51,9.15-15.43c7.24-10.51,16.5-19.25,26.18-27.39c7.66-6.44,16.45-11.6,26.47-13.48
		c7.86-1.48,13.54-5.71,17.53-12.12c5.97-9.6,12.01-19.25,16.88-29.42c6.31-13.17,11.54-26.74,14.99-41.16
		c5.88-24.6,13.56-48.76,20.03-73.23c7.49-28.34,13.37-57.05,18.46-85.92c1.39-7.87,3.26-15.65,4.8-23.49
		c1.02-5.22,2.3-10.45,2.68-15.73c1.71-23.27,4.84-46.36,7.5-69.52c1.66-14.52,2.67-29.15,3.8-43.74c0.29-3.78-1.31-6.24-4.9-7.75
		c-6.75-2.84-13.33-6.42-20.36-8.2c-13.91-3.53-25.62-10.42-36.51-19.56c-6.59-5.53-14.12-10.01-21.49-14.52
		c-6.3-3.85-11.97-8.43-17.43-13.33c-2.61-2.34-3.14-5.48-1.33-9c6.4-12.45,12.23-25.13,16.85-38.38
		c8.64-24.76,12.54-50.32,13.34-76.44c0.06-2,0.24-4.06-0.16-5.99c-3.35-16.44-1.56-33.24-3.68-49.77
		c-2.04-15.86-2.35-31.92-4.36-47.74c-4.46-35-7.71-70.15-13.68-104.98c-5.17-30.19-8.83-60.64-13.84-90.86
		c-6.86-41.39-13.97-82.74-22.14-123.91c-7.4-37.23-14.12-74.6-21.44-111.85c-16.43-83.68-34.9-166.91-57.31-249.2
		c-9.8-35.99-20.99-71.6-31.71-107.33c-1.71-5.69-3.53-11.49-8.92-15.23c-2.24-1.56-3.25-4.15-3.43-6.93
		c-0.55-8.5-4.78-14.91-10.8-20.7c-31.7-30.47-49.3-69.03-62.61-110c-3.96-22.95-10.92-45.31-13.46-68.54
		c-0.21-1.92-0.33-4.29-2.41-4.95c-1.77-0.56-3.86-0.07-5.81-0.15c-0.52-0.02-1.02-0.46-1.62-0.74c-3.17-16.24-5.98-32.61-9.63-48.8
		c-3.08-13.62-6.44-27.26-10.92-40.47c-6.21-18.31-14.62-35.74-25.28-51.96c-0.63-0.96-2.09-1.43-3.24-1.96
		c-1.05-0.49-4.09,1.6-4.7,3.13c-0.73,1.86-1.63,3.67-2.12,5.59c-0.82,3.22-1.37,6.52-2.04,9.78
		c-8.29,40.46-15.96,81.06-25.07,121.34c-7.2,31.83-16,63.3-24.4,94.84c-4.46,16.73-9.58,33.29-14.4,49.92
		c-2.22,7.66-4.25,15.22-4.54,23.42c-0.22,6.46-2.81,12.96-4.98,19.22c-3.92,11.32-8.31,22.47-11.3,34.11
		c-0.82,3.18-2.51,6.14-3.82,9.18c-1.05,2.44-2.71,4.77-3.12,7.31c-2.74,17.07-8.14,33.68-8.65,51.16
		c-0.29,9.97-1.64,19.91-2.04,29.88c-0.23,5.73-2.06,10.21-6.41,13.97c-3.33,2.88-3.86,6.97-2.72,11.03
		c1.62,5.76,3.44,11.49,5.46,17.13c11.39,31.86,14.71,64.87,13.61,98.4c-0.79,23.97-2.28,47.92-3.61,71.86
		c-0.41,7.31-1.41,14.58-1.98,21.89c-0.73,9.3-1.3,18.61-1.93,27.91c-0.27,3.99-0.06,8.07-0.86,11.95
		c-3.13,15.18-1.98,30.55-2.26,45.85c-0.05,2.61,0.03,5.59,1.19,7.8c3.93,7.51,3.18,15.51,3.48,23.48
		c0.63,16.65-0.12,33.29-0.03,49.94c0.06,9.99-0.18,19.94,1.89,29.86c1.07,5.14,0.68,10.62,0.68,15.94c0.02,14.67-0.1,29.33-0.15,44
		c-0.03,9.33,0.03,18.6,1.52,27.9c1.05,6.51,0.6,13.28,0.65,19.93c0.04,4.99-1.53,9-6.67,11.15c-2.55,1.07-3.86,3.77-3.85,6.53
		c0.01,11.99,0.18,23.99,0.37,35.98c0.04,2.66,0.65,5.32,0.57,7.97c-0.86,28.04,3.78,55.82,3.79,83.81
		c3.8,22.36,2.8,45.12,6.08,67.58c2.4,16.42,2.93,33.14,5.02,49.66c2.51,19.81,5.19,39.61,7.32,59.46
		c1.92,17.9,4.35,35.69,8.06,53.3c1.51,7.16,3.47,14.23,4.85,21.41c1.24,6.45,3.74,12.74,1.79,19.66c-0.63,2.24,1.03,5.08,1.44,7.68
		c0.62,3.94,1.2,7.89,1.56,11.85c0.91,10.17,0.86,10.18,7.27,20.02c-0.26,1.29-0.21,2.75-0.82,3.85c-5.02,9.07-6.11,18.9-6.03,29.03
		c0.09,12,0.12,24,0,36c-0.03,2.62-0.53,5.3-1.3,7.8c-0.32,1.02-1.9,1.71-3,2.39c-0.53,0.33-1.32,0.48-1.94,0.39
		c-11.92-1.81-23.94-0.76-35.9-1.28c-10-0.44-19.95-1.05-29.71-3.57c-4.01-1.04-7.07-3.11-10.11-5.93
		c-5.46-5.05-6.67-4.41-10.79,4.02c-1.07,2.2-1.39,2.19-3.83,0.05c-0.95-0.83-1.84-1.83-2.95-2.33c-1.98-0.89-4.16,0.47-4.73,2.15
		c-1.36,3.97-0.82,7.95-0.14,11.83c1.28,7.3,1.17,14.45,0.1,21.82c-0.86,5.85-0.13,11.94-0.09,17.92
		c0.08,9.32,0.45,18.65,0.19,27.97c-0.33,11.73-4.77,22.07-12.21,31.05c-3.8,4.59-7.56,9.6-14.75,8.39
		c-10.18,6.18-22.67,7.9-31.67,16.35c-4.05,3.8-8.99,5.6-14.32,6.59c-4.58,0.85-9.12,1.98-13.74,2.47
		c-14.57,1.55-29.14,3.25-43.76,4.14c-14.16,0.86-27.48,5.19-40.86,9.1c-5.6,1.64-10.31,6.12-15.77,8.49
		c-6.84,2.96-13.01,6.58-18.03,12.17c-4.08,4.54-9.42,7.27-14.9,9.86c-5.41,2.55-10.85,5.19-15.8,8.5
		c-4.38,2.93-9.18,6.15-11.91,10.45c-5.42,8.52-12.83,15.17-19.28,22.67c-6.06,7.04-13.26,13.11-20.1,19.45
		c-7.33,6.8-14.85,13.38-22.25,20.11c-10.35,9.42-20.66,18.88-31,28.31c-3.92,3.57-5.16,7.57-2.44,12.48
		c1.5,2.71,0.7,5.24-1.59,7.06c-2.07,1.64-4.39,2.98-6.69,4.3c-18.53,10.69-35.55,23.3-51.25,37.94
		c-10.27,9.57-22.55,16.42-36.1,20.72c-15.89,5.04-32.23,8.25-48.39,12.24c-21.13,5.22-42.06,5.52-63.36,1.5
		c-12.53-2.37-25.26-1.79-37.75,1.08c-9.26,2.13-18.42,2.91-27.55-0.51c-22.31-1.49-42.29-11.47-63.38-17.41
		c-4.06-1.14-7.13-3.53-9.46-6.91c-1.88-2.75-3.41-5.75-5.4-8.41c-5.24-7-11.3-13.12-19.3-17.03c-1.2-0.58-2.44-1.1-3.56-1.81
		c-9.61-6.12-19.63-11.27-29.46-12.76c-4.69-2.29-6.01-5.46-7.81-8.23c-1.79-2.75-3.59-5.5-5.45-8.34
		c2.68-7.89,5.18-15.44,7.83-22.94c0.66-1.87,1.42-3.89,2.71-5.31c8.06-8.86,13.63-19.74,22.63-27.82
		c8.07-7.24,13.93-16.12,18.54-25.8c3.09-6.5,4.63-13.51,11.9-17.66c6.21-3.54,10.3-10.35,18.03-12.09
		c2.34-0.53,4.46-2.72,6.32-4.52c2.38-2.31,4.31-5.08,6.6-7.5c14-14.82,30.88-22.85,51.62-21.87c7.98,0.38,15.98,0.6,23.97,0.69
		c3.07,0.04,6.31,0.54,9.84-2.04c-5.1-1.08-9.6-1.94-14.04-3.02c-3.26-0.79-4.27-5.41-1.93-8c7.21-7.99,15.98-12.09,26.77-9.69
		c9.09,2.02,18.03,4.71,27.03,7.15c5.37,1.45,10.13,0.79,15.33-1.79c12.02-5.96,23.15-13.17,33.78-21.26
		c20.76-15.8,39.24-33.96,56.25-53.72c21.31-24.76,41.74-50.23,61.57-76.17c6.86-8.98,12.82-18.65,19.19-28
		c6.01-8.81,11.85-17.74,18.06-26.4c12.07-16.83,22.1-34.89,32.1-52.96c1.29-2.32,2.27-4.82,3.25-7.3
		c2.73-6.89,1.36-10.91-5.18-15.14c-4.48-2.9-9.1-5.57-13.49-8.58c-10.06-6.91-17.77-15.78-23.63-26.62
		c-4.57-8.46-4.93-15.94-0.02-24.38c3.3-5.68,5.21-12.22,7.36-18.51c8.19-24,13.59-48.76,19.89-73.28c0.82-3.2,1.18-6.86,3.02-9.38
		c5-6.87,5.8-14.66,6.73-22.66c1.68-14.57,3.51-29.1,1.72-43.81c-0.24-1.96-0.06-4.01,0.21-5.98c1.82-13.58-0.04-26.52-6.5-38.71
		c-0.31-0.58-0.38-1.27-0.57-1.91c-0.83-2.72-0.48-5.34,1.22-7.54c3.24-4.21,6.57-8.37,10.05-12.38c3.67-4.22,5.26-9.19,5.87-14.59
		c2.22-19.85,4.41-39.7,6.64-59.54c0.59-5.3,1.36-10.58,1.87-15.88c0.53-5.46,1.99-10.39,6.08-14.37c2.49-2.42,3.35-5.65,3.61-9.06
		c1.76-23.25,5.61-46.31,7.4-69.52c1.69-21.92,4.48-43.71,6.3-65.61c1.71-20.56,4.05-41.07,5.93-61.61c2.12-23.2,4-46.43,6.05-69.64
		c1.99-22.54,4.84-45.04,5.88-67.63c1.38-29.91,4.17-59.85,1.07-89.84c-0.34-3.3-0.38-6.68-0.01-9.97c0.21-1.84,1.08-4.11,2.43-5.24
		c4.82-4.01,4.99-8.67,3.74-14.37c-4.89-22.19-7.63-44.61-6.72-67.42c0.37-9.32,0.1-18.66,0.07-27.99
		c-0.02-4.28-1.34-7.83-5.79-9.43c-4.54-1.64-5.83-5.07-5.08-9.5c3.91-22.98,7.8-45.97,11.8-68.94c0.84-4.82,2.92-8.76,8.26-10.14
		c5.13-1.33,7.5-5.16,8.38-10.13c0.23-1.31,0.58-2.6,0.84-3.91c6.55-32.67,12.38-65.5,14.71-98.75c1.25-17.91,1.13-36.01,0.19-53.94
		c-0.6-11.36-0.91-22.54,0.33-33.86c1.52-13.89,2.21-27.86,3.49-41.78c2.25-24.53,4.43-49.07,7.1-73.56
		c2.52-23.16,3.98-46.43,7.21-69.53c2.03-14.49,3.09-29.13,4.32-43.72c0.27-3.24,0.38-7.07-1.05-9.78
		c-4.95-9.43-4.64-19.44-3.66-29.33c2.31-23.18,5.36-46.29,7.91-69.45c1.53-13.89,3.28-27.75,5.26-41.59
		c2.07-14.5,4.6-28.93,6.6-43.42c2.46-17.84,5.94-35.46,9.07-53.16c0.45-2.57,0.07-5.3-0.05-7.95c-0.09-1.98-3.07-5.39-4.96-5.78
		c-1.94-0.4-3.91-1.01-5.86-1c-5.33,0.03-10.67,0.16-15.98,0.56c-10.62,0.82-21.22,2-31.84,2.76c-21.27,1.53-42.54,3.04-63.83,4.26
		c-18.63,1.07-37.27,1.95-55.92,2.49c-16.65,0.48-33.27,0.14-49.94-1.09c-19.92-1.48-39.96-1.49-59.95-1.98
		c-9.33-0.23-18.67,0.12-28-0.17c-24.82-0.77-49.23,1.91-73.31,7.91c-3.23,0.8-6.55,1.24-9.83,1.81c-1.75,0.31-4.01-1.58-3.66-3.56
		c0.33-1.88,1.44-3.79-0.25-5.32c-0.89-0.8-2.38-1.16-3.65-1.28c-1.98-0.19-3.99-0.08-5.98,0.01c-27.37,1.24-54.66,0.04-81.8-3.4
		c-33.86-4.28-66.79-12.44-98.16-26.16c-12.21-5.34-24.28-10.99-36.36-16.6c-11.46-5.33-22.89-10.61-34.77-15.07
		c-11.36-4.27-22.81-7.2-34.72-8.83c-2.6-0.35-5.18-0.89-7.74-1.47c-0.52-0.12-1.16-0.79-1.27-1.3c-0.12-0.58,0.1-1.54,0.53-1.86
		c2.11-1.55,4.16-3.37,6.54-4.31c23.08-9.19,46.91-15.01,71.86-15.77c3.3-0.1,6.58-0.69,10.08-1.08c-0.8-1.43-1.1-2.84-1.93-3.31
		c-4.85-2.72-10.34-3.33-15.55-2.39c-10.75,1.96-21.19,0.22-31.77-1.07c-40.41-4.9-80.22-13.07-119.78-22.43
		c-23.33-5.52-46.5-11.73-69.6-18.14c-13.47-3.74-26.75-8.23-39.94-12.88c-8.74-3.08-17.67-6.06-24.76-12.57
		c-1.34-1.23-4.03-0.09-4.8,1.79c-4.51,11.11-8.93,22.25-13.55,33.31c-2.35,5.62-5.95,10.42-10.78,14.18
		c-1.56,1.22-3.29,2.31-5.1,3.06c-1.12,0.46-2.78,0.6-3.78,0.08c-0.95-0.5-2.09-2.19-1.9-3.1c1.37-6.67,0.58-13.06-1.05-19.61
		c-1.94-7.81-1.37-15.89-0.97-23.89c0.23-4.65,0.69-9.3,0.53-13.94c-0.06-1.77-1.12-4.37-2.51-5.1
		c-11.3-5.94-20.21-15.24-31.1-21.71c-2.51-1.49-5.36-0.62-6.39,2.21c-1.82,5.01-3.9,9.96-5.19,15.11
		c-5.48,21.77-16.49,40.66-30.14,58.11c-4.9,6.26-10.69,11.82-16.11,17.66c-0.43,0.46-1.62,0.99-1.66,0.93
		c-0.69-0.99-1.9-2.19-1.73-3.1c0.62-3.28,1.51-6.46-0.44-9.61c-0.7-1.13-1.22-2.37-1.9-3.51c-10.45-17.35-12.57-36.3-10.4-55.94
		c1.25-11.38,5.09-22.05,10.87-31.95c2.68-4.6,5.47-9.18,8.71-13.38c1.51-1.96,4.17-3.08,6.39-4.43c4.31-2.61,6.05-10.51,2.3-13.37
		c-4.34-3.32-7.63-7.34-10.67-11.69c-11.26-16.13-25.62-28.83-42.69-38.51c-2.32-1.31-4.68-2.59-6.8-4.18
		c-0.8-0.6-1.51-2.21-1.26-3.08c0.32-1.13,1.57-2.05,2.53-2.93c0.46-0.42,1.18-0.62,1.81-0.8c19.34-5.46,38.98-8.65,59.15-7.87
		c3.48,0.14,6.32,1.35,8.87,3.84c1.81,1.76,3.84,1.43,4.59-0.35c1.26-3.03,2.44-6.12,3.25-9.29c0.27-1.07-0.58-2.5-1.14-3.66
		c-0.25-0.52-1.02-0.85-1.61-1.13c-28.08-13.53-51.14-33.6-72.27-56.01c-11.42-12.11-22.28-24.75-33.07-37.43
		c-5.17-6.08-9.8-12.65-14.3-19.24c-28.38-41.57-49.57-86.65-65.15-134.44c-7.44-22.82-13.45-46.05-18.49-69.5
		c-6.44-30-14.57-59.5-24.56-88.5c-0.87-2.53-1.43-5.12,0.84-7.84c6.85,5.73,10.08,13.95,14.75,21.13
		c4.68,7.21,7.4,15.61,13.12,22.33c2.57-2.6,1.86-5.22,1.29-7.7c-4.07-17.51-8.45-34.95-12.26-52.52
		c-4.8-22.14-7.78-44.59-10.81-67.04c-3.3-24.47-4.15-49.09-6.01-73.65c-2.33-30.66-0.91-61.28-1.42-91.91
		c-0.06-3.31,0.33-6.65,0.73-9.95c1.63-13.28,1.77-26.58,0.5-39.9c-0.95-9.98-1.07-19.88,0.69-29.87c1.26-7.19,1.3-14.59,1.87-21.9
		c0.26-3.32,0.46-6.65,0.73-9.97c0.16-1.99,0.34-3.99,0.65-5.96c1.22-7.85,2.5-15.69,3.87-24.19c3.65,6.61,0.39,13.82,3.9,19.85
		c0.98-1.07,2.26-1.82,2.48-2.81c1.31-5.85,2.85-11.71,3.44-17.65c1.72-17.29,5.88-34.13,9.54-51.02
		c10.15-46.85,21.25-93.48,34.14-139.69c5.72-20.5,11.09-41.15,14.73-62.2c3.77-21.83,4.01-43.76,2.88-65.76
		c-0.7-13.55-5.29-26.03-11.43-37.99c-1.82-3.54-3.99-6.92-5.63-10.54c-0.36-0.79,0.8-2.34,1.43-3.45c0.29-0.5,1.07-1.15,1.52-1.07
		c13.35,2.25,25.66,7.3,36.51,15.28c14.1,10.38,25.63,23.12,33.95,38.76c9.16,17.23,15.1,35.47,18.79,54.55
		c1.38,7.17,3.17,14.25,4.84,21.36c0.12,0.52,0.78,0.91,1.19,1.36c3.13-1.95,3.87-5.39,4.82-8.46
		c14.52-46.97,38.38-89.27,65.42-129.86c25.56-38.36,55.18-73.52,87.17-106.69c29.75-30.85,63.28-57.03,98.64-81.1
		c67.77-46.14,141.05-80.39,219.8-103.04c2.48-0.71,5.15-0.79,7.74-1.01c0.46-0.04,1.22,0.63,1.43,1.14
		c0.23,0.55,0.25,1.7-0.08,1.91c-2.78,1.81-5.56,3.65-8.51,5.15c-18.5,9.44-35.29,21.46-51.41,34.41
		c-10.9,8.76-21.49,17.92-32.06,27.08c-9.61,8.33-17.64,18.12-25.61,28c1.1,0.8,2.31,2.13,2.77,1.91c2.36-1.15,4.63-2.57,6.75-4.13
		c50.73-37.25,107.15-61.67,168.59-74.72c8.47-1.8,17.08-2.94,25.49-4.95c17.62-4.2,35.71-3.87,53.54-5.97
		c3.87-0.46,8.03-0.73,11.72,1.34c0.4,0.22,0.55,1.15,0.56,1.75c0.01,0.54-0.2,1.43-0.56,1.57c-4.28,1.75-8.5,3.76-12.94,4.98
		c-12.91,3.56-25.05,9.02-37.15,14.57c-2.31,1.06-4.22,2.98-7.3,5.21c3.18,0.48,5.12,1.25,6.88,0.95c9.18-1.58,18.3-3.49,27.46-5.17
		c49.21-9.02,96.67-3.27,142.68,16.33c29.72,12.65,56.5,29.81,81.06,50.6c2.53,2.14,4.79,4.64,6.9,7.2
		c0.63,0.77,0.49,2.32,0.38,3.48c-0.03,0.38-1.11,1-1.65,0.94c-8.6-0.86-17.22-1.58-25.76-2.8c-11.9-1.69-23.82-2.88-35.85-2.38
		c-2.62,0.11-5.23,0.6-9.34,1.1c2.98,1.54,4.56,2.69,6.31,3.22c19.14,5.72,38.31,11.31,56.88,18.82
		c17.35,7.02,34.02,15.28,49.68,25.52c6.13,4.01,12.13,8.24,18.33,12.15c23.53,14.84,41.93,34.91,57.91,57.28
		c12.12,16.96,19.94,36.1,25.77,56.01c3.93,13.41,6.62,27.08,8.37,41.02c1.16,9.26,2.09,18.44,2.28,27.77
		c0.38,18.75-1.94,37.17-5.47,55.51c-0.62,3.21-0.6,6.55-0.77,9.84c-0.03,0.59,0.49,1.22,0.87,2.1c1.69-1.07,3.78-1.76,4.91-3.21
		c8.22-10.45,17.28-20.3,22.79-32.68c4.68-10.49,12.46-16.71,24.33-18.12c9.23-1.09,18.31-3.46,27.45-5.32
		c1.28-0.26,2.48-0.91,3.73-1.34c1.63-0.56,3.08-3.35,2.62-4.84c-2.25-7.21-7.02-12.74-12.11-18.03c-0.86-0.89-2.31-1.64-3.53-1.7
		c-6.72-0.33-13.06-2.06-19.2-4.68c-7.88,0.87-10.52-4.4-12.02-10.59c-1.09-4.51-1.44-9.2-2.43-13.74
		c-0.83-3.79-2.12-7.47-3.31-11.56c14.9-6.97,29.83-12.36,45.17-16.6c11.54-3.18,23.15-6.14,34.72-9.22
		c9.22-2.46,9.97-3.63,8.2-12.17c-1.08-5.22-2.45-10.41-3.05-15.68c-1.16-10.15-4.87-19.3-9.75-28.12
		c-5.83-10.54-12.78-20.33-20.33-29.65c-10.07-12.42-20.58-24.48-30.73-36.85c-7.18-8.75-14.24-17.61-21.03-26.66
		c-12.95-17.25-22.59-36.1-26.82-57.45c-0.25-1.25-0.79-2.64-1.66-3.52c-0.81-0.82-2.23-1.03-3.61-1.61
		c-2.37,7.09-1.67,14.46-2,21.66c-1.45,31.62,2.83,62.49,13.53,92.33c5.86,16.35,13.8,31.74,22.49,46.76
		c1.66,2.87,3.19,5.82,4.71,8.77c0.67,1.3,0.21,2.51-1.25,3.27c-0.55,0.29-1.43,0.54-1.91,0.3c-2.93-1.46-6.02-2.76-8.65-4.68
		c-32.52-23.75-56.66-54.17-72.29-91.3c-7.26-17.26-12.28-35.2-15.57-53.61c-0.82-4.57-0.73-9.3-1.32-13.92
		c-1.18-9.21-2.52-18.41-3.88-27.6c-0.08-0.51-0.93-0.91-1.43-1.37c-2.57,2.39-2.57,5.88-3.14,9.02
		c-4.18,22.95-7.52,45.85-4.8,69.42c1.84,15.93,3.51,31.73,8.72,46.99c0.57,1.66-0.21,3.78-0.47,7.07c-2.4-3.01-4.46-4.83-5.56-7.1
		c-7.27-14.97-14.35-30.04-21.45-45.1c-0.85-1.8-1.57-3.69-2.11-5.61c-8.12-28.83-16.9-57.52-20.75-87.35
		c-3.84-29.74-6.37-59.55-3.86-89.59c0.55-6.61,0.61-13.29-1.12-19.87c-1.41-5.38-0.83-10.53,2.73-15.15
		c2.49-3.22,3.78-6.94,4.33-11.02c0.8-5.93,2.4-11.79,2.73-17.73c0.3-5.41,2.5-8.4,7.36-10.57c2.09-0.93,3.82-3.73,4.7-6.07
		c1.88-4.96,2.96-10.21,4.59-15.28c7.76-24.13,16.4-47.9,28.8-70.14c2.95-5.28,2.1-7.81-4.12-10.88
		c-7.29-3.59-13.76-8.15-18.9-14.39c-1.07-1.3-1.81-4.11-1.13-5.39c2.63-4.97,1.09-8.74-1.99-12.76
		c-11.17-14.59-17.63-31.25-20.8-49.23c-1.04-5.9-1.52-11.8,2.23-17.26c1.22-1.77-0.07-4.08-1.49-5.39
		c-3.9-3.61-8.21-6.79-12.08-10.43c-3.35-3.16-6.35-6.69-9.43-10.14c-0.36-0.41-0.42-1.39-0.19-1.92c0.2-0.49,0.97-1.03,1.51-1.05
		c3.95-0.17,7.9-0.24,11.86-0.28c5.97-0.06,6.77-1.04,5.67-6.69c-0.5-2.57-1.46-5.34-0.95-7.75c1.94-9.11,4.22-18.16,6.74-27.13
		c0.88-3.15,2.55-6.16,4.29-8.96c2.24-3.6,5.69-6.09,10.04-5.07c18.3,4.28,37.03,4.17,55.58,5.9c5.97,0.56,11.97,0.92,17.91,1.74
		c2.54,0.35,5.44,1.08,7.33,2.65c4.34,3.62,8.54,2.89,12.97,0.78c1.8-0.86,3.52-1.87,5.25-2.88c13.23-7.73,26.48-15.44,39.68-23.23
		c2.86-1.69,5.61-3.58,8.28-5.55c3.74-2.76,3.06-9.53-1.3-11.89c-3.49-1.89-7.17-3.46-10.82-5.02
		c-13.1-5.61-24.33-13.75-33.48-24.67c-1.23-1.46-2.11-3.33-2.73-5.16c-0.49-1.47,0.44-2.84,1.96-2.98c1.9-0.18,3.88-0.14,5.76,0.21
		c13.35,2.52,26.4,1.48,39.57-1.8c23.42-5.84,45.42-15.3,67.27-25.2c12.13-5.5,24.01-11.57,36-17.37
		c25.26-12.21,51.23-22.5,78.64-28.81c23.61-5.44,47.36-6.98,71.38-2.41c11.88,2.26,23.12,6.2,34.16,10.97
		c3.62,1.56,7.4,2.81,11.21,3.81c1,0.26,2.5-0.72,3.54-1.45c1.56-1.09,2.45-4.09,1.67-5.33c-2.84-4.47-5.69-8.94-8.68-13.31
		c-7.16-10.44-14.25-20.91-18.33-33.06c-0.49-1.46,1.56-4.2,3.15-4.18c1.33,0.01,2.67-0.12,3.98,0.01c2.65,0.27,5.3,0.6,7.93,1.04
		c12.58,2.13,25.16,2.34,37.83,0.64c4.6-0.62,9.3-0.66,13.96-0.71c17.33-0.16,34.67,0,51.99-0.37c12.8-0.27,25.18,2.16,37.58,4.7
		c10.59,2.17,20.31,6.33,28.88,13.05c2.54,2,4.84,4.67,8.65,4.19c2.72-5.68,2.7-11.28-0.3-17.09c-1.82-3.52-2.88-7.44-4.09-11.24
		c-7.62-23.82-19.27-45.3-36.65-63.5c-0.57-0.6-0.24-2.22-0.04-3.31c0.06-0.34,1.2-0.86,1.62-0.71c4.99,1.82,10.08,3.46,14.88,5.7
		c21.22,9.9,41.38,21.53,58.88,37.32c8.96,8.08,17.19,16.73,21.9,28.53c2.08-0.2,4.11,0.08,5.74-0.61
		c20.33-8.6,39.26-19.72,57.5-32.09c3.83-2.6,7.65-5.22,11.86-8.09c2.36,1.68,4.76,2.91,6.55,4.75
		c12.54,12.91,25.36,25.58,37.31,39.02c25.4,28.56,38.03,62.19,37.97,100.47c-0.01,6.66-0.45,13.31-0.67,19.97
		c-0.07,2.04,2.28,3.23,4.19,1.71c2.89-2.31,5.34-3.87,8.57-0.57c1.12,1.15,2.47,0.64,3.02-0.66c0.26-0.6,0.56-1.28,0.52-1.9
		c-0.72-13.19,4.25-24.74,10.44-35.88c3.55-6.4,7.36-12.67,11.25-18.87c1.01-1.6,2.8-2.72,4.78-4.57c0.34,2.42,1.05,4.26,0.74,5.92
		c-1.43,7.86-3.42,15.62-4.69,23.5c-1.69,10.5-2.71,21.05-2.69,31.76c0.06,31.99-0.56,63.98-0.49,95.97
		c0.03,12.1-2.37,23.84-3.72,35.74c-0.3,2.64-1.02,5.23-1.44,7.86c-0.41,2.54,1.49,5.68,4.02,6.01c1.82,0.24,4.36,0.25,5.53-0.8
		c2.93-2.63,5.37-5.84,7.82-8.97c6.57-8.37,12.66-17.14,20.73-24.21c1.3-1.14,2.54-0.85,3.16,0.38c0.29,0.57,0.58,1.18,0.66,1.79
		c0.08,0.65,0.04,1.37-0.18,1.98c-10.47,29.16-14.02,59.52-15.51,90.22c-0.32,6.65-0.42,13.33-0.29,19.99
		c0.3,16.07-1.04,31.95-4.66,47.63c-0.25,1.1,0.51,2.44,0.81,3.67c0.36,1.45,3.11,1.53,5.27,0.13c1.68-1.08,3.44-2.06,4.98-3.31
		c7.72-6.29,15.36-12.66,23.08-18.94c0.27-0.22,1.15-0.05,1.49,0.23c0.49,0.41,1.12,1.16,1.03,1.64c-0.49,2.58-0.82,5.28-1.86,7.66
		c-12.58,28.91-28.87,55.52-49.45,79.46c-1.69,1.97-3.31,4.01-4.87,5.9c2.19,3.26,4.02,5.98,5.92,8.82
		c-3.29,3.15-6.02,7.28-9.83,8.99c-4.05,1.82-9.13,1.33-13.75,1.89c-2.1,0.26-3.2,2.73-1.96,4.34c1.62,2.1,3.35,4.12,4.91,6.27
		c5.48,7.54,11.07,15,16.29,22.71c6.03,8.88,10.07,18.77,13.39,28.93c0.34,1.04-0.29,2.47-0.65,3.66c-0.48,1.59-3.01,2.01-5.24,0.92
		c-1.19-0.58-2.35-1.24-3.53-1.85c-1.77-0.92-3.54-1.86-5.34-2.74c-12.83-6.3-26.59-8.41-40.67-8.96c-3.33-0.13-6.71,0.42-9.32,2.74
		c-0.77,0.68-1.42,2.56-1.03,3.3c1.22,2.3,2.8,4.48,4.56,6.41c5.85,6.42,11.38,13.09,15.62,20.7c0.93,1.68,1.35,3.67,1.86,5.55
		c0.42,1.54-0.29,2.64-1.87,3.07c-1.9,0.51-3.8,1.21-5.74,1.36c-14.89,1.09-28.62,6.12-41.9,12.48
		c-13.25,6.35-25.96,13.71-37.52,22.81c-13.59,10.7-26.87,21.81-40.24,32.78c-0.42,0.35-0.72,1.63-0.67,1.66
		c1.13,0.56,2.42,1.55,3.46,1.35c2.57-0.52,5.19-1.3,7.51-2.51c11.45-5.97,23.6-8.96,36.48-9.2c3.97-0.07,7.94-0.49,11.91-0.46
		c0.92,0.01,1.89,1.16,2.69,1.94c0.11,0.11-0.49,1.43-0.97,1.61c-5.62,2.05-11.33,3.86-16.93,5.97
		c-18.35,6.91-34.4,17.51-48.6,30.91c-3.37,3.18-6.26,6.92-9.02,10.66c-4.13,5.6-3.01,9.54,2.17,13.81
		c5.65,4.66,11.37,9.32,17.51,13.29c27.44,17.76,55.64,34.17,85.8,46.97c7.37,3.13,14.75,6.07,19.75,12.93
		c1.02,1.4,3.43,2.54,5.19,2.52c12.75-0.1,24.84,4.4,37.51,5.04c12.63,0.63,25.21,2.27,37.8,3.57c11.92,1.22,23.82,2.53,35.72,3.9
		c1.95,0.23,3.9,0.87,5.74,1.59c3.14,1.23,6.08,2.83,6.99,6.48c2.44,9.76,7.16,18.61,11.08,27.77c2.88,6.73,6.66,13.2,8.63,20.18
		c3.44,12.24,11.17,20.85,20.73,28.46c16.68,13.28,33.19,26.78,49.78,40.18c1.04,0.84,2.24,1.49,3.17,2.43
		c13.89,13.94,31.41,22.31,48.48,31.25c28.93,15.14,58.5,28.95,88.4,42.07c11.59,5.08,22.93,10.61,34.01,16.8
		c13.63,7.61,21.75,19.23,27.41,33.16c1.37,12.3,9.79,19.67,18.2,27.54c23.42,21.91,48.54,41.63,74.42,60.48
		c6.32,4.6,12.74,6.3,20.51,5.62c19.25-1.69,38.35-4.54,57.52-6.87c7.92-0.96,15.87-1.74,23.82-2.42c3.1-0.26,6.68,2.27,7.66,5.35
		c2.83,8.87,5.68,17.74,8.2,26.7c5.78,20.5,11.37,41.04,17.45,63.1c1.86,1.58,4.86,4.15,7.9,6.69
		c13.8,11.53,27.61,23.07,41.43,34.58c12.8,10.66,25.83,21.06,38.36,32.02c13.03,11.4,25.6,23.34,38.36,35.06
		c22.08,20.28,44.18,40.53,66.21,60.87c6.35,5.87,12.53,11.92,18.71,17.98c21.68,21.25,46.78,37.36,74.43,49.65
		c23.78,10.57,48.24,19.15,73.62,25.13c9.68,2.28,19.14,5.53,28.7,8.34c17.02,10.49,36.2,16.86,52.96,27.88
		c16.19,10.65,31.51,22.33,45.45,35.84c7.65,7.41,15.89,14.22,23.81,21.35c3.59,3.23,7.67,5.22,12.51,5.62
		c5.97,0.49,11.94,1.33,17.92,1.49c16.61,0.43,31.11,6.7,44.46,15.94c9.93,6.87,18.59,15.2,25.44,25.22
		c7.59,11.11,16.72,20.73,27.46,28.72c8.73,6.49,15.12,14.91,21.12,23.75c0.35,0.51,0.64,1.69,0.42,1.86
		c-0.88,0.68-2.08,1.64-2.96,1.47c-1.93-0.37-3.76-1.31-5.58-2.13c-7.05-3.17-14.06-3.09-21.4-0.69
		c-12.65,4.14-25.48,7.74-38.17,11.75c-10.9,3.44-21.94,5.05-33.43,4.83c-22.32-0.43-41.51-8.38-58.34-22.68
		c-7.54-10.12-18.46-11.97-30.09-12.96c-12.36-1.06-19.07,5.71-20.35,16.66c-1.18,10.06-0.68,19.99,0.97,29.85
		c2.09,12.47,4.33,24.94,7.2,37.25c2.11,9.06,4.42,18.04,4.56,26.93c31.89,23.62,34.63,27.64,42.88,63.31
		c11.46,10.15,20.84,22.92,27.79,38.24c1.93,1.04,4.14,2.55,6.56,3.47c14.37,5.46,21.98,16.76,26.24,30.7
		c3.14,10.3,4.05,20.95,2.57,31.66c-1.18,8.58-2.6,17.13-4.17,25.64c-0.73,3.97-2.48,7.58-5.67,10.32
		c-1.42,1.21-2.68,2.58-1.59,5.18c7.64,0.49,15.5,0.99,24.08,1.54c-1.2,2.53-1.54,4.9-2.89,5.87
		c-16.54,11.85-34.37,13.44-53.05,5.86c-4.9-1.99-9.44-4.83-14.26-7.04c-0.71-0.33-2.05,0.71-3.42,1.25
		c5.37,5.14,10.63,10.18,16.48,15.78c-2.95,1.47-5.14,3.23-7.58,3.67c-17.34,3.17-33.37-0.23-46.73-11.88
		c-12.53-10.92-25.59-21.36-36.3-34.26c-1.62-1.95-5.59-1.38-6.77,0.91c-1.52,2.96-2.8,6.03-4.08,8.81
		c4.1,13.37,12.78,23.64,20.22,34.65c0.34,0.5,0.56,1.59,0.28,1.9c-0.79,0.89-1.79,1.96-2.86,2.17c-5.38,1.06-10.74,0.36-15.67-1.8
		c-5.47-2.4-10.92-5.05-15.88-8.35c-6.09-4.04-11.69-8.82-17.44-13.36c-1.56-1.23-2.77-2.95-4.39-4.07
		c-17.46-11.98-28.81-29.28-40.48-46.3c-0.74-1.08-1.65-2.05-2.53-3.14c-0.92,0.68-2.31,1.15-2.69,2.06
		c-6.28,15.01-15.35,27.98-27.78,38.55c-2.72,2.31-4.09,5.26-3.68,8.8c0.61,5.27,1.41,10.53,2.15,15.79
		c0.46,3.28,1.13,6.54,1.32,9.83c0.05,0.89-1.21,1.99-2.08,2.74c-0.33,0.28-1.33,0-1.91-0.27c-6.36-2.94-10.45-8.23-13.73-14.07
		c-3.9-6.94-6.34-14.92-11.2-21.04c-4.43-5.58-11.29-9.2-16.97-13.83c-6.46-5.26-10.1-12.19-11.89-20.29
		c-1.58-7.14-3.52-14.2-5.44-21.26c-1.59-5.85-2.16-11.77-2.05-17.8c0.35-18.66,0.31-37.34,1.01-55.98
		c0.76-20.35-2.69-39.69-11.26-58.23c-8.67-18.74-16.56-37.82-23.72-57.21c-4.18-11.33-7.15-22.86-8.32-34.88
		c-0.45-4.64-1.07-9.27-1.93-13.85c-0.62-3.31-2.21-6.29-4.78-8.59c-2.48-2.22-5.04-4.37-7.59-6.51
		c-39.78-33.48-79.48-67.06-119.41-100.35c-11.3-9.42-21.99-19.36-31.56-30.54c-2.58-3.01-5.51-5.7-8.05-8.31
		c-3.43,1.02-4.85,3.22-5.84,5.66c-5.75,14.2-11.58,28.37-17.08,42.67c-6.47,16.82-14.06,33.08-22.84,48.82
		c-7.14,12.8-14.03,25.75-20.58,38.86c-6.59,13.18-14.72,25.29-23.54,37.05c-8.02,10.7-8.69,9.05-19.57,3.45
		c-3.49-1.8-6.95-4.18-9.56-7.07c-9.92-10.96-21.71-19.67-33.21-28.75c-3.14-2.48-6.16-5.13-9.45-7.39
		c-17.74-12.14-32.49-27.56-47.33-42.87c-14.43-14.89-26.73-31.47-37.5-49.18c-4.85-7.97-9.65-15.97-14.4-24
		c-3.05-5.15-5.63-10.59-10.13-14.77c-0.94-0.88-1.93-2.09-2.16-3.29c-2.11-11.08-9.07-20.83-8.86-32.53
		c0.09-4.81-1.67-9.12-3.75-13.33c-5.95-12.03-13.47-22.96-22.68-32.74c-6.92-7.35-14.81-13.39-23.83-17.96
		c-8.32-4.22-16.52-8.66-24.88-12.81c-8.35-4.15-13.48-10.87-15.56-19.72c-1.51-6.45-2.44-13.07-3.16-19.66
		c-0.68-6.23-2.67-11.67-7.36-15.92c-8.39-7.6-16.55-15.5-25.3-22.66c-11.97-9.78-25.55-16.87-40.34-21.51
		c-1.91-0.6-3.91-0.93-5.76-1.64c-5.81-2.22-10.53-5.7-12.78-11.81c-1.76-4.78-4.4-8.01-10.3-7.17c-6.69,0.96-11.77-2.32-15.16-7.69
		c-5.09-8.03-12.08-14.11-19.01-20.36c-16.34-14.72-32.41-29.73-48.87-44.31c-7.47-6.62-15.52-12.58-23.45-18.65
		c-2.6-1.99-5.55-3.74-9.16-3.18c-0.46,1.21-1.31,2.42-1.34,3.66c-0.98,33.47-8.11,66.06-14.29,98.77
		c-4.21,22.26-8.74,44.45-11.42,66.97c-0.56,4.7-0.85,9.16,0.25,13.82c3.97,16.86,7.43,33.83,11.59,50.64
		c7.71,31.15,19.08,61,33.1,89.84c16.66,34.26,36.27,66.66,60.28,96.38c27.38,33.88,58.04,64.23,93.59,89.52
		c9.78,6.96,19.58,13.84,30.55,18.88c3.02,1.39,5.91,3.09,8.72,4.87c16.45,10.42,34.33,17.18,52.93,22.91
		c25.57,7.87,51.74,12.58,77.89,17.61c25.51,4.9,51.04,9.66,76.61,14.25c26.88,4.83,53.81,9.37,80.7,14.08
		c5.9,1.03,11.79,2.17,17.67,3.34c2.58,0.51,5.12,1.2,7.29,1.72c14.25,17.44,20.49,37.77,26.08,58.37c0.69,2.54,0.64,5.28,0.88,7.94
		c0.71,7.96,1.2,15.95,2.15,23.89c1.04,8.69,0.05,17.28-0.86,26.08c1.74,1.2,3.23,3.06,4.94,3.27c10.57,1.3,21.17,2.7,31.8,3.18
		c12.75,0.58,25.19,2.23,37.21,6.65c0.63,0.23,1.26,0.44,1.91,0.59c27.42,6.5,52.81,18.29,78.12,30.21
		c4.78,2.25,9.24,5.28,13.59,8.33c27.42,19.19,52,41.6,74.86,65.98c1.79,1.91,3.71,3.71,5.5,5.5c2.27-1.71,2.28-3.72,1.73-5.53
		c-3.12-10.19-6.47-20.3-9.58-30.49c-5.07-16.63-7.35-33.78-9.26-50.99c-0.08-0.77,1.06-1.71,1.76-2.46
		c0.07-0.07,1.21,0.56,1.51,1.06c1.02,1.71,2.01,3.46,2.79,5.3c0.78,1.83,1.18,3.82,1.93,5.67c1.76,4.32,3.64,8.58,5.45,12.88
		c8.33,19.78,22.57,34.45,40.5,45.54c12.45,7.7,25.47,14.49,38.31,21.55c12.84,7.06,25.82,13.86,38.63,20.97
		c12.84,7.13,25.92,13.42,40.58,16.08c5.17,0.94,10.18,3.09,15.08,5.13c1.54,0.64,2.48,2.73,4.25,4.8c-4.43,1-8.18,1.86-11.96,2.71
		c0.46,1.33,0.54,2.73,1.28,3.53c3.16,3.43,6.29,6.93,9.83,9.94c9.69,8.22,18.47,17.32,26.72,26.95c4.42,5.16,9.58,9.15,16.48,10.73
		c0.95,4.09,1.39,8.13,2.85,11.76c1.98,4.92,4.78,9.51,7.16,14.27c5.66,11.3,11.26,22.63,16.96,33.91c0.21,0.41,1.24,0.6,1.85,0.54
		c0.38-0.03,0.98-0.71,1.01-1.13c0.29-4.63,0.64-9.26,0.67-13.9c0.17-23.32,0.17-46.64,0.4-69.95c0.09-8.67,1.3-17.26,3.29-25.71
		c0.27-1.17,1.35-2.15,2.07-3.25c2.23,1.84,1.54,4.46,1.75,6.78c0.96,10.61,1.76,21.23,2.75,31.84
		c2.37,25.48,10.78,49.32,19.73,73.05c7.54,20,16.89,39.12,27.1,57.84c10.54,19.32,20.07,39.09,27.84,59.72
		c4.93,13.09,10.44,25.96,15.85,38.85c10.08,24.01,18.06,48.65,24,74.03c4.23,18.07,8.91,36.04,12.72,54.86
		c0.94-1.49,1.9-2.31,1.94-3.18c0.59-12.64,1.43-25.29,1.48-37.94c0.11-28.65,0.22-57.32-1.8-85.94c-0.13-1.82,0.95-3.75,1.59-5.58
		c0.05-0.15,1.37-0.17,1.71,0.16c1.39,1.33,3.08,2.6,3.85,4.27c11.13,24.2,22.33,48.39,31.41,73.46c3.4,9.38,6.08,19.02,8.95,28.59
		c2.48,8.28,4.99,16.56,7.05,24.95c1.74,7.1,2.89,14.34,4.22,21.53c3.26,17.71,5.84,35.47,5.68,53.56
		c-0.1,11.3,0.18,22.62,1.04,34.12c1.63-0.71,3.19-0.87,3.68-1.68c1.69-2.83,3.2-5.8,4.45-8.86c10.31-25.29,20.63-50.58,30.77-75.94
		c3.24-8.09,6.87-15.85,13.56-21.72c0.44-0.39,1.37-0.62,1.89-0.42c0.51,0.19,0.97,0.96,1.14,1.56c0.34,1.25,0.68,2.57,0.66,3.85
		c-0.09,6.68-0.76,13.28-2.66,19.75c-8.92,30.36-10.87,61.61-10.69,92.96c0.14,25.31,1.27,50.62,2.87,75.92
		c1.72,27.25,3.12,54.58,1.59,81.93c-0.6,10.65-1.1,21.27-3.14,31.8c-0.81,4.2-2.33,8.81,1.26,13.72
		c3.53-9.88,6.85-19.2,10.24-28.49c0.17-0.46,1.05-0.8,1.65-0.92c0.36-0.07,0.97,0.3,1.21,0.65c0.36,0.53,0.66,1.2,0.71,1.84
		c1.33,19.28,2.76,38.55,3.82,57.85c0.33,5.95,0.1,12.03-0.71,17.94c-2.42,17.82-5.17,35.6-7.96,53.36
		c-0.72,4.59-1.79,9.18-3.19,13.61c-7.82,24.76-14.56,49.88-25.01,73.76c-1.32,3.02-2.29,6.23-3.02,9.44
		c-0.2,0.88,0.94,2.16,1.68,3.09c0.17,0.21,1.38-0.09,1.84-0.47c2.55-2.1,4.92-4.43,7.57-6.37c0.83-0.61,2.36-0.28,4.16-0.44
		c0.79,7.96,0.57,15.93,0.24,23.88c-0.11,2.59-0.96,5.23-1.88,7.7c-4.88,13.11-9.66,26.27-14.99,39.19c-2,4.86-5.09,9.36-8.18,13.67
		c-11.25,15.69-21.66,32.03-34.9,46.22c-0.75,0.8-0.84,2.21-1.23,3.34c1.24,0.23,2.67,0.97,3.7,0.61
		c12.54-4.47,25.08-8.96,37.52-13.73c16.22-6.22,32.79-11.09,49.98-13.76c1.21-0.19,2.52-0.01,3.73,0.25
		c0.46,0.1,0.98,0.84,1.11,1.37c0.13,0.58,0.03,1.68-0.3,1.84c-7.2,3.44-14.45,6.77-21.68,10.14c-15.88,7.4-30.04,17.19-42.08,29.97
		c-0.46,0.49-0.93,0.96-1.41,1.41c-14.66,13.75-26.88,29.25-37.22,46.64c-20.08,33.8-41.55,66.75-63.89,99.13
		c-8.36,12.12-17.32,23.72-27.42,34.33c-20.22,21.25-40.87,42.07-64.47,59.71c-17.11,12.78-35.02,24.35-53.24,35.43
		c-17.13,10.42-35.4,18.51-54.25,25.32c-1.91,0.69-3.36,1.89-3.74,4.04c-1.26,0.03-2.52,0.06-3.78,0.07
		c-2.02,0.01-2.5,0.73-1.19,1.94c0.32,0.3,1.36,0.25,1.78-0.05C2918.13,3550.61,2918.97,3549.66,2919.87,3548.82z M2323.87,3040.78
		c-7.49,1.7-14.48-0.59-21.53-2.59c-2.51-0.71-5.15-1.61-8.16,0.69c2.03,1.73,3.78,3.63,5.9,4.95
		c16.44,10.23,33.82,18.5,51.76,25.79c21.07,8.57,43,14.06,64.98,19.36c12.28,2.96,24.69,5.64,37.19,7.43
		c25.07,3.59,50.34,4.76,75.68,4.92c20.03,0.13,39.8-1.19,59.53-5.1c24.86-4.92,49.42-10.54,73.23-19.44
		c12.76-4.77,23.85-11.63,33.31-21.34c4.17-4.28,8.56-8.34,12.77-12.41c1.75,1.07,2.22,2.25,1.51,3.61
		c-4.34,8.27-9.63,15.89-15.83,22.88c-1.06,1.2-1.23,2.73-0.08,3.23c0.94,0.4,2.61,0.15,3.48-0.48
		c32.26-23.58,58.74-52.13,75.09-89.07c5.11-11.55,9.76-23.35,13.72-35.34c3.33-10.09,5.55-20.58,5.76-31.35
		c0.2-9.99,0.57-19.97,0.75-29.96c0.26-14.09-1.73-27.93-5.47-41.47c-8.01-29.04-18.34-57.03-37.51-80.92
		c-2.49-3.11-4.46-6.63-6.82-9.85c-7.55-10.3-16.33-19.26-27.44-25.83c-4.52-2.67-8.62-6.05-13.33-9.41
		c2.02-0.65,3.43-1.67,4.39-1.34c13.84,4.77,27.65,9.62,39.8,18.18c2.67,1.88,5.79,3.2,8.86,4.39c0.85,0.33,2.3-0.65,3.37-1.23
		c0.26-0.14,0.35-1.27,0.09-1.62c-2.38-3.16-4.62-6.47-7.33-9.33c-10.56-11.1-21.38-21.95-31.92-33.07
		c-22.46-23.68-44.6-47.66-68.75-69.68c-1.96-1.79-3.92-3.68-5.42-5.84c-5.53-7.98-13.38-13.18-21.98-16.74
		c-8.12-3.36-15.23-8.12-22.5-12.78c-10.66-6.82-20.93-14.42-32.15-20.16c-35.56-18.16-71.09-36.36-109.03-49.45
		c-20.23-6.98-40.73-12.33-61.7-16.13c-9.16-1.66-18.4-2.91-27.53-4.74c-2.56-0.51-6.01-1.07-6.43-5.49c4.33,0,8.34-0.28,12.29,0.04
		c23.86,1.93,47.82,2.94,71.23,8.72c7.72,1.91,15.65,3,23.5,4.38c0.52,0.09,1.17-0.54,1.64-0.78c-1.31-3.35-4.34-4.9-7.13-6.71
		c-20.1-13.09-40.61-25.53-61.89-36.59c-10.02-5.21-20.45-9.75-30.97-13.86c-32.33-12.62-65.68-21.83-99.73-28.49
		c-30.09-5.89-60.59-8.74-91.02-12.01c-4.63-0.5-9.33-0.84-13.96-0.62c-12.7,0.59-25.19-1.01-37.8-2.14
		c-16.34-1.47-33.24-4.35-47.88,7.44c-5.44,4.38-12.51,4.38-19.2,3.31c-2.45-0.39-4.87-1.95-6.91-3.5
		c-1.53-1.15-2.53-3.07-3.58-4.76c-1.49-2.41-3.5-4-6.3-4.35c-5.28-0.66-10.56-1.24-15.86-1.77c-3.42-0.34-6.73,2.38-6.83,5.68
		c-0.16,5.32-0.33,10.65-0.22,15.97c0.55,27.35-2.38,54.52-4.29,81.74c-0.19,2.65-0.48,5.33-1.08,7.91
		c-3.25,13.79-2.97,27.78-2.4,41.77c0.54,13.31,1.55,26.58,0.91,39.93c-0.22,4.59,0.48,9.3,1.35,13.85
		c5.27,27.52,7.53,55.42,9.87,83.26c1.58,18.88,5.8,36.76,14,53.73c4.92,10.19,10.28,20.17,15.37,30.28
		c26.64,52.82,61.97,99.31,103.13,141.56c9.31,9.55,19.41,18.22,29.31,27.13c40.31,36.29,84.71,66.64,132.13,92.76
		c0.9,0.5,1.2,2.11,1.77,3.2L2323.87,3040.78z M490,1759.26c3.11-2.75,6.17-5.29,9.04-8.02c14.94-14.27,29.81-28.62,44.74-42.9
		c13.97-13.36,27.77-26.91,42.03-39.95c23.6-21.57,47.49-42.81,71.29-64.15c8.4-7.53,16.32-15.65,26.93-20.37
		c2.91-1.29,5.32-3.95,7.64-6.3c8.9-9.07,18.59-17.17,28.9-24.58c2.65-1.9,5.54-3.7,6.93-7.84c-1.54-2.28-3.66-4.81-5.08-7.7
		c-1.76-3.56-2.9-7.43-4.4-11.14c-15.31-37.86-39.3-69.25-70.43-95.54c-25.03-21.13-67.05-34.26-96.79-29.03
		c0.65,0.93,1.11,2.3,2,2.7c4.25,1.89,8.67,3.42,12.94,5.28c2.58,1.12,4.96,3.32,3.83,6.11c-1.3,3.2,4.11,5.34,1.28,7.96
		c-7.81,1.41-15.03,2.56-22.18,4.03c-52.52,10.79-97.45,34.93-132.91,75.7c-5.68,6.53-11.44,13.02-14.7,21.19
		c-0.21,0.52,1.14,1.65,1.82,2.58c4.27-3.2,8.43-6.55,12.82-9.55c5.5-3.75,11.18-7.23,16.81-10.79c1.65-1.05,3.35-1.66,5.44-0.92
		c1.51,0.54,1.72,2.57,0.17,5.22c-1.69,2.87-3.43,5.71-5.19,8.54c-6.69,10.81-11.89,22.35-16.49,34.14
		c-6.09,15.63-9.69,31.7-9.14,48.74c0.46,14.17,2.95,27.75,7.79,41.01c7.76,21.29,17.07,41.92,26.26,62.62
		c6.62,14.92,16.18,27.46,26.63,39.6C473.79,1752.64,481.04,1756.96,490,1759.26z M994.22,1982.2c1.31-1.41,2.9-2.71,4-4.34
		c21.96-32.57,42.49-66.02,61.23-100.55c0.61-1.13,1.07-2.59,0.91-3.81c-0.13-0.97-1.47-2.68-1.98-2.58
		c-6.51,1.31-12.99,2.79-19.43,4.43c-15.55,3.95-31.37,6.1-47.37,6.57c-18.11,0.53-35.85-1.96-53.05-7.8
		c-20.38-6.92-39.07-16.9-55.21-31.27c-5.52-4.91-11.38-8.84-18.25-11.84c-12.88-5.63-24.48-13.44-34.35-23.64
		c-1.83-1.89-3.93-3.61-6.15-5c-0.91-0.57-2.81-0.58-3.7,0c-3.88,2.55-7.67,5.26-11.27,8.2c-14.57,11.88-30.82,20.88-48.07,28.17
		c-5.51,2.33-11.03,4.75-16.74,6.49c-5.41,1.64-6.56,5.87-7.87,10.86c-26.82,10.86-54.99,18.97-82.24,30.4
		c0.22,2.24-0.13,4.38,0.69,5.88c2.21,4.05,5.06,7.75,7.42,11.72c13.69,23.03,33.22,39.56,56.94,51.51
		c34.38,17.32,71.21,25.6,109.19,29.51c11.24,1.16,22.53,2.1,33.81,2.48c11.97,0.41,24.04,0.84,35.92-0.24
		c10.64-0.97,21.24-1.1,31.87-1.3c15.3-0.29,30.61-0.69,45.91-1.05C982.47,1984.84,988.41,1984.24,994.22,1982.2z M1069.63,1856.82
		c5.06-8.22,9.67-16.24,13.63-24.68c18.66-39.84,34.46-80.8,48.1-122.59c12.8-39.24,23.65-79.05,34.49-118.86
		c6.15-22.58,7.56-45.9,9.45-69.11c0.05-0.65-0.19-1.31-0.21-1.98c-0.13-3.32-3.47-5.21-7.28-4.63c-7.43,1.14-13.62,5.16-20.29,8.1
		c-6.2,2.73-11.9,5.38-13.76,13.03c-0.99,4.08-5.54,5.68-9.32,6.85c-6.96,2.17-14.13,3.57-20.36,7.8
		c-6.04,4.1-12.34,7.82-18.6,11.59c-8.96,5.4-14.81,13.26-18.23,23c-3.3,9.42-7,18.74-9.54,28.37
		c-10.19,38.7-17.82,77.87-18.92,118.03c-0.82,30.03,0.37,59.91,8.74,89.07c3.51,12.21,7.39,24.27,16.55,33.66
		C1065.28,1855.69,1067.48,1855.95,1069.63,1856.82z M1378.6,852.43c-0.6,6.71-1.17,13.29-1.84,19.86c-0.05,0.53-0.76,1.2-1.32,1.43
		c-1.53,0.62-2.53,0.03-2.97-1.44c-1.72-5.72-3.28-11.5-5.22-17.14c-4.41-12.85-12.1-23.58-21.87-32.87
		c-1.41-1.34-3.23-2.39-5.05-3.07c-0.87-0.33-3.01,0.31-3.15,0.86c-0.64,2.54-1.13,5.22-1.03,7.82
		c1.13,30.24-4.26,59.55-12.38,88.49c-1.08,3.83-2.25,7.64-3.3,11.48c-0.96,3.51,2.1,6.04,5.97,4.9c2.55-0.75,5.03-1.71,7.58-2.46
		c14.7-4.31,29.61-7.83,44.92-8.79c20.59-1.3,41.18-1.43,61.67,1.98c5.88,0.98,11.9,1.14,17.86,1.47c2.85,0.16,5.17-1.35,6.54-3.77
		c6.87-12.16,12.96-24.7,17.78-37.82c0.21-0.58,0.08-1.28,0.12-1.93c0.12-1.67-0.59-2.69-2.16-2.77
		c-7.94-0.38-15.88-0.86-23.83-1.01c-9.3-0.18-16.6-4.24-22.54-11.06c-4.85-5.57-8.64-11.82-10.79-18.92
		c-1.53-5.07-2.65-10.27-4.16-15.36c-0.55-1.87-1.34-3.92-2.66-5.26c-4.73-4.78-10.13-9.3-16.94-9.77
		c-8.81-0.61-16.89-3.31-25.07-6.06c-0.53-0.18-2.4,1.44-2.37,2.17c0.08,2.61,0.6,5.22,1.17,7.78
		C1375.88,831.53,1378.94,841.77,1378.6,852.43z"/>
	<path d="M2323.55,3041.18c5.17-1.57,10.26-0.56,15.37,0.38c1.63,0.3,2.35,1.1,2.12,2.68c-0.25,1.77-2.59,3.66-4.1,3.04
		c-4.11-1.69-8.93-1.53-12.45-4.69c-0.42-0.38-0.43-1.2-0.63-1.82L2323.55,3041.18z"/>
</g>
</svg>
