<?xml version="1.0" encoding="utf-8"?>
<!-- Generator: Adobe Illustrator 24.1.1, SVG Export Plug-In . SVG Version: 6.00 Build 0)  -->
<svg version="1.1" id="Layer_1" xmlns="http://www.w3.org/2000/svg" xmlns:xlink="http://www.w3.org/1999/xlink" x="0px" y="0px"
	 width="1298.95" height="2226.45" viewBox="0 0 1298.95 2226.45" style="enable-background:new 0 0 1298.95 2226.45;" xml:space="preserve">
<style type="text/css">
	.st0{fill:#1A1A1A;}
</style>
<g>
	<path d="M573.96,1794.11c-8.55,1.69-17.36,0.63-25.98,2.31c-3,0.59-5.74-1.24-8.79-0.97c-8.62,0.78-17.22-0.59-25.78-1.19
		c-10.8-0.75-21.59-1.98-32.4-2.89c-7.87-0.66-15.75-1.19-23.6-1.98c-17.68-1.76-35.4-2.47-53.1-1.7
		c-9.13,0.4-18.31,1.19-27.43,2.57c-8.88,1.34-17.86,2.24-26.6,4.31c-15.52,3.67-31.2,6.62-46.58,10.9
		c-13.18,3.67-26.17,8.01-38.79,13.22c-17.85,7.37-34.65,16.71-50.16,28.43c-12.49,9.44-23.62,20.27-34.25,31.6
		c-12.46,13.27-23.01,28.01-31.68,44.13c-4.35,8.08-8.54,16.14-11.35,24.87c-2.01,6.24-3.43,12.62-3.4,19.25
		c0.01,1.79,0.41,3.94-2.1,4.4c-2.19,0.41-3.69-0.14-5.28-2.38c-4.16-5.87-5.38-12.65-6.43-19.3c-1.44-9.08-2.83-18.36-2.03-27.55
		c0.92-10.63,1-21.3,2.58-31.94c2.22-15.04,4.48-30.03,8.32-44.73c4.36-16.71,9.72-33.07,16.82-48.89
		c5.9-13.15,12.31-25.99,20.21-38.01c6.28-9.56,12.96-18.87,20.64-27.45c3.64-4.07,7.47-7.96,11.09-12.04
		c1.77-2,4.69-2.59,5.96-5.31c-18.65-8.64-37.06-17.74-55.64-26.47c-10.41-4.89-20.64-10.55-32.13-12.88
		c-1.27-0.26-2.03-1.18-1.93-2.53c0.12-1.57,1.1-2.44,2.64-2.35c4.61,0.27,9.22-0.5,13.86,0.62c3.96,0.96,8.11,0.32,12.46-0.74
		c-4.34-2.64-8.68-5.26-13.01-7.92c-8.23-5.06-16-10.75-23.42-16.92c-13.42-11.17-25.51-23.83-38.63-35.29
		c-14.95-13.05-27.04-28.28-37.28-44.92c-9.04-14.69-15.59-30.73-20.67-47.29c-3.69-12.02-6.44-24.23-8.07-36.71
		c-1.14-8.68-1.92-17.34-2-26.1c-0.03-3.69,2.01-7.06,0.74-11.2c2.41,1.17,2.37,2.95,2.42,5.75c0.95-1.86,1.78-2.43,1.89-3.58
		c1.1-11.24,4.36-22.04,6.58-33.05c2.28-11.35,5.02-22.61,5.71-34.33c0.39-6.61,0.82-13.23,0.65-19.81
		c-0.46-17.32-3.64-34.08-11.53-49.72c-0.9-1.78-2.73-3.76,0.32-5.71c5.47,1.44,7.94,6.45,11.04,10.49
		c5.35,6.98,10.09,14.42,14.45,22.09c1.21,2.13,0.99,5.24,5.02,6.79c-1.49-4.41-1.21-8.21-1.21-12.01
		c-0.02-17.15,2.7-33.93,6.52-50.61c4.56-19.89,11.1-39.15,18.68-58c7.25-18.03,15.67-35.62,26.01-52.12
		c5.16-8.23,11.43-15.75,18.82-22.21c0.61-0.54,1.29-1,1.96-1.46c1.45-1.01,2.75-0.32,3.92,0.51c1.29,0.91,1.24,2.09,0.6,3.51
		c-1.79,4.01-4.69,7.39-5.97,11.74c-2.83,9.59-4.88,19.2-5.78,29.23c-0.9,9.97-0.57,19.88-0.72,29.82
		c-0.2,12.87,1.55,25.61,4.15,38.14c2.75,13.2,5.97,26.33,10.7,39.04c8.9,23.86,20.5,46.18,35.95,66.51
		c4.08,5.36,9.22,9.38,14.08,13.8c0.91,0.83,2.28,1.16,3.37,1.7c1-1.33,0.4-2.27,0.03-3.41c-2.48-7.65-3.46-15.58-4.42-23.54
		c-0.76-6.31-2.03-12.56-3.31-18.79c-1.33-6.44-1.78-12.98-2.53-19.47c-1.75-15.21-1.44-30.53-0.92-45.78
		c0.3-8.92,0.72-17.99,3.06-26.55c1.57-0.79,2.87-0.34,4.03-0.43c0.33,0.42,0.56,0.64,0.69,0.91c4.76,9.87,9.22,19.89,14.33,29.57
		c7.24,13.71,17.57,24.88,29.39,34.86c7.33,6.19,15.28,11.27,23.85,15.38c11.04,5.29,22.66,9,34.48,12.18
		c12.61,3.39,25.51,5.35,38.29,7.85c6.24,1.22,12.71,1.32,19.07,2.12c10.75,1.36,21.13,3.63,30.44,9.89c2.92-3.61,2.73-8.13,4-12.07
		c4.72-14.7,8.44-29.69,12.95-44.47c6.43-21.04,14.3-41.55,22.64-61.85c6.18-15.05,12.89-29.9,19.99-44.58
		c4.26-8.8,9.45-17.2,13.08-26.2c7.59-18.83,19.43-35.02,30.64-51.56c8.25-12.18,17.13-23.97,27.04-34.97
		c6.26-6.96,12.6-13.87,19.07-20.61c7.83-8.14,16.12-15.9,24.83-23.17c3.41-2.85,6.65-5.95,9.89-8.99
		c7.81-7.35,16.68-13.45,24.34-20.96c2.04-2,4.02-4.08,6.42-5.77c2.12-1.5,2.94-4.24,2.1-6.7c-2.25-6.63-0.16-13.08,0.6-19.53
		c0.53-4.52,0.96-8.18-2.52-12.27c-5.73-6.75-4.97-14.89-1.97-22.8c1.41-3.71,3.53-7.3,6.36-9.79c4.11-3.63,5.15-7.65,4.73-12.74
		c-1.02-12.49,2.46-24.39,5.26-36.35c2.15-9.19,4.55-18.32,6.56-27.53c0.62-2.84,0.14-5.86,1.04-8.79c0.67-2.17-0.79-4.02-2.1-5.8
		c-2.97-4.05-5.94-8.03-8.07-12.72c-3-6.61-1.02-11.99,2.6-17.34c0.46-0.67,1.1-1.22,1.86-2.05c-9.25-10.94-12.85-24.38-16.9-37.61
		c-0.33-1.08-0.31-2.3-0.27-3.45c0.08-1.99-1.16-3.17-2.66-3.85c-1.63-0.74-3.13-0.08-4.43,1.28c-3.22,3.37-6.74,6.47-9.83,9.96
		c-7.62,8.58-17.27,14.38-27.05,19.92c-9.11,5.15-18.61,9.6-27.91,14.39c-8.2,4.23-16.56,8.25-24.94,12.17
		c-2.69,1.26-4.93,3.25-7.48,4.64c-8.47,4.62-17.33,8.64-26.84,10.19c-10.98,1.8-21.59,0.46-31.15-6.41
		c-4.87-3.5-9.82-7-12.64-12.13c-3.02-5.48-5.88-11.59-5.86-17.9c0.02-9.55-3.08-18.36-4.8-27.49c-2.21-11.67-4.37-23.43-3.26-35.28
		c1.45-15.43,4.43-30.58,9.15-45.46c6.6-20.83,15.7-40.65,23.17-61.12c4.75-13,8.97-26.19,11.5-39.84
		c1.64-8.87,3.47-17.72,3.09-26.86c-0.27-6.49-0.23-13,0.02-19.49c0.14-3.82-1.23-6.56-3.89-9.17
		c-6.76-6.61-14.37-12.34-20.55-19.53c-6.88-7.99-15-14.91-20.78-23.82c-3.02-4.66-4.88-9.95-7.23-14.97
		c-3.87-8.25-8.33-16.21-12.13-24.48c-2.08-4.53-4.63-9-4.53-14.35c0.05-3.03,0.73-5.88,1.75-8.6c3.08-8.23,6.57-16.31,9.57-24.56
		c2.21-6.07,6.89-8.06,12.6-8.21c8.49-0.23,17-0.06,25.49-0.06c2.34,0,4.59,0.71,6.62,1.59c3.89,1.69,7.83,3.35,11.92,4.22
		c4.06,0.86,6.76,2.95,8.7,6.38c0.56,0.99,0.81,2.2,2.3,2.75c1.29-0.58,2.72-1.35,4.23-1.88c7.14-2.54,13.39-0.2,17,6.56
		c0.99,1.85,2.69,3.22,3.04,5.55c0.24,1.66,1.79,2.03,3.54,1.57c7.85-2.06,13.31,1.51,18.37,7.21c6.03,6.79,10.02,14.45,11.81,23.23
		c1.02,5.01,3.57,9.15,6.76,12.84c2.7,3.12,5.19,6.36,7.51,9.73c1.29,1.87,2.06,4.08,3.23,6.05c0.95,1.59,0.75,2.79-0.85,3.95
		c-2.22-1.49-3.74-4.15-7.02-4.66c-1.24,2.93-3.06,5.54-6.9,6.43c4.14,6.71,7.44,13.34,9.56,20.63c2.32,8,2.47,15.68-0.04,23.65
		c-2.7,8.59-5.94,16.89-10.01,24.93c-3.92,7.75-5.46,16.28-7.29,24.74c-1.34,6.21-0.44,12.44-1.63,18.66
		c-1.05,5.52,1.52,11.24,1.07,17.08c2.45-3.75,3.83-7.88,6.28-11.53c7.11-10.6,16.19-19.15,26.35-26.67
		c8.2-6.07,17.27-10.51,26.69-14.3c1.88-0.76,2.89-1.95,3.67-4.12c3.62-10.02,8.52-19.4,15.9-27.27c2.6-2.78,5.68-4.98,8.94-6.89
		c3.92-2.3,5.04-4.02,3.52-8c-3.15-8.21-5.29-16.74-8.29-25.01c-4.84-13.35-5.23-26.93,1.53-40.04c0.44-0.86,0.74-1.81,1.03-2.73
		c0.09-0.29-0.05-0.65-0.12-1.35c-6.74,0.83-13.45,2.46-20.33,1.5c-1.41-3.16,1.3-3.74,2.99-4.54c6.3-2.99,11.91-6.83,16.77-11.89
		c2.44-2.54,4.57-5.14,5.69-8.58c-1.53-3.14-5.2-3.09-7.72-4.7c-4.87-3.11-6.85-7.91-9.04-12.5c-2.16-4.52-3.93-9.24-6.14-13.77
		c-2.15-4.41-1.46-8.97,0.93-13.16c1.07-1.88,2.43-3.55,1.91-6c-6.68-2.78-13.62-5.02-19.87-9.03
		c-13.51-8.66-20.37-21.74-24.89-36.41c-0.71-2.32-1.48-4.65-2.15-6.99c-2.86-9.93-3.07-20.09-2.95-30.43
		c-3.53,2.3-5.18,5.89-7.31,8.96c-2.02-0.91-2.01-2.56-1.56-3.91c2.19-6.56,2.42-13.39,1.69-20.05c-0.61-5.51-2.07-10.89-1.9-16.57
		c0.24-8.46,2.49-16.46,5.2-24.3c2.65-7.67,5.24-15.42,9.59-22.4c0.68-1.09,0.49-2.49-0.42-3.73c-5.45-7.37-6.56-16.23-8.23-24.84
		c-2.04-10.51-1.55-21.24-0.83-31.76c0.72-10.5,2.63-20.97,6.04-31.13c1.4-4.18,3.25-8.14,4.59-12.29c0.85-2.65,2.28-2.9,4.62-2.58
		c2.24,6.47,1.42,13.47,3.3,20.14c2.47,8.79,6.3,16.64,11.82,23.79c3.64,4.7,7.78,8.51,13.14,11.55c5.36,3.05,9.21,1.78,13.31-1.27
		c8.98-6.66,19.52-10.32,29.33-15.37c3.59-1.85,7.79-2.5,10.76-5.58c0.42-0.44,1.13-0.71,1.76-0.84
		c7.88-1.61,13.17-7.55,19.63-11.55c4.15-2.57,8.48-4.9,12.85-7.07c3.26-1.62,6-3.96,9.09-5.8c7.16-4.26,15.15-5.75,23.19-7.22
		c6.32-1.15,5.6-1.78,6.41-6.68c2.83-17.05,6.89-33.8,13.21-49.95c5.94-15.19,13.58-29.63,19.58-44.78c0.59-1.5,1.03-3.11,2.69-4.27
		c2.78,8.26,4.22,16.69,6.46,24.91c3.68,13.51,9.54,25.99,17.9,37.28c4.27,5.77,8.39,11.66,12.57,17.51
		c3.46,4.84,7.92,8.84,11.08,13.97c2.24,3.61,6.1,5.4,10.32,6.04c2.46,0.38,4.66,1.43,6.9,2.39c12.52,5.34,23.25,13.45,33.89,21.74
		c5.98,4.66,10.72,10.44,15.92,15.84c7.98,8.28,14.48,17.63,20,27.56c5.01,9.01,8.91,18.63,12.56,28.35
		c4.31,11.49,7.2,23.35,9.47,35.28c1.21,6.34,1.67,13.05,2.65,19.48c1.11,7.23,0.37,14.46,1.22,21.68
		c0.54,4.58,0.12,9.86-0.61,14.72c-1.57,10.47-3.61,20.87-6.47,31.08c-3.26,11.61-9.36,21.88-15.31,32.19
		c-9.22,15.97-18.74,31.77-25.33,49.1c-0.98,2.58-2.48,4.97-3.76,7.5c0.7,1.8,2.25,2.8,3.81,4.18c12.9-7.64,27.26-7.6,41.58-6.96
		c5.47,0.25,10.83,2.31,16.29,3.15c14.34,2.22,24.86,10.93,35.21,20.1c13.28,11.77,23.88,25.57,31.48,41.59
		c2.36,4.97,4.42,10.13,5.64,15.57c0.73,3.24,2.47,5.57,5.33,7.76c6.69,5.13,11.34,12.29,16.71,18.75c5.7,6.84,9.33,14.76,13.2,22.6
		c2.11,4.29,5.82,7.28,9.3,10.25c7.97,6.78,16.56,12.8,24.97,19.04c14.59,10.83,31.37,18.11,46,28.86
		c10.96,8.05,22.48,15.38,31.99,25.25c7.87,8.16,11.45,17.94,12.67,29.29c1.11,10.34-0.65,20.35-1.53,30.39
		c-1.06,11.99,0.19,23.5,2.09,35.22c2.38,14.65,8.39,28.04,13.27,41.82c4.56,12.88,9.73,25.55,15.04,38.14
		c4.43,10.51,9.32,20.85,12.71,31.73c3,9.62,6.08,19.24,6.26,29.58c0.3,17.1-2.97,33.61-7.76,49.82
		c-6.12,20.73-14.52,40.51-27.87,57.75c-4.44,5.73-9.1,11.44-15.62,15.13c-2.01,1.13-4.02,1.88-6.45,2.07
		c-12.86,1.01-24.59-3.34-36.27-7.59c-15.29-5.57-30.4-11.62-45.57-17.49c-11.7-4.53-23.26-9.39-34.66-14.63
		c-2.67-1.23-5.63-1.66-7.94-3.53c-3.28,4.95-0.47,9.35,0.38,13.76c2.17,11.34,3.82,22.67,1.72,34.21c-0.14,0.8-0.02,1.64-0.02,2.58
		c-1.83,0.55-3.5,1.4-5.2,1.49c-2.49,0.14-3.69,1.37-4.95,3.38c-2.46,3.95-4.32,3.62-6.59-0.56c-2.17-4-2.19-8.51-3.11-12.77
		c-2.89-13.34-5.17-26.81-11.72-39.05c-2.57-4.81-3.37-10.19-4.38-15.45c-0.37-1.93-1.16-3.57-2.62-5.41
		c-1.48,6.71-3.75,13.36-4.2,20.14c-0.39,5.76,1.31,11.66,2.1,17.5c0.02,0.15,0.23,0.3,0.22,0.44c-0.7,9.15,3.81,17.62,3.48,26.74
		c-0.14,3.8-0.7,7.61-1.34,11.25c-1.26,7.14-5.34,12.27-13.5,12.12c1.71,8.64,2.94,17,3.94,25.44c1.57,13.28,0.85,26.55,0.73,39.81
		c-0.1,11.13-1.21,22.26-3.63,33.21c-0.8,3.63-0.79,7.44-2.1,11.02c-0.35,0.96,0.1,1.83,0.79,2.7c7.63,9.6,14.6,19.8,23.96,27.86
		c9.86,8.5,18.61,18.18,28.56,26.55c8.17,6.87,16.21,13.89,24.39,20.75c9.31,7.81,18.85,15.32,28.28,22.96
		c5.59,4.53,11.45,8.72,17.15,13.12c8.81,6.8,17.6,13.61,26.36,20.46c7.61,5.95,15.16,11.97,22.75,17.93
		c3.11,2.45,5.83,5.35,8.83,7.93c3.99,3.43,8.34,6.53,11.87,10.52c3.62,4.1,8.46,6.9,12.04,11.07
		c10.39,12.11,22.09,23.07,31.32,36.22c8.93,12.71,18.15,25.24,28.15,37.12c8.67,10.29,16.63,21.12,25.17,31.52
		c9.63,11.73,17.9,24.51,25.7,37.55c6.19,10.36,12.42,20.72,18.12,31.36c3.61,6.73,6.08,14.06,9.42,20.95
		c4.01,8.24,6.09,17.16,9.31,25.67c2.23,5.89,3.11,12.28,4.66,18.42c2.96,11.74,3.57,23.87,5.72,35.75
		c0.77,4.26,0.92,8.84,1.4,13.24c1.13,10.29,0.74,20.72,2.83,30.92c0.07,0.32,0.06,0.67,0.04,1c-0.56,8.64,0.83,17.2,1.23,25.79
		c0.43,9.11,1.1,18.22,0.68,27.31c-0.57,12.54-1.16,25.09-2.11,37.59c-0.87,11.41-2.17,22.86-3.96,34.18
		c-1.15,7.23-2.55,14.48-3.55,21.72c-0.79,5.66-1.38,11.38-2.18,17.07c-1.6,11.32-3.75,22.52-6.43,33.62
		c-4.22,17.41-9.48,34.52-15.62,51.34c-5.14,14.08-10.74,27.95-16.86,41.65c-6.6,14.78-13.32,29.51-21.06,43.71
		c-6.58,12.07-11.9,24.73-18.24,36.89c-7.47,14.33-15.77,28.2-24.48,41.82c-7.12,11.15-14.9,21.86-22.81,32.42
		c-5.99,7.98-12.57,15.59-18.81,23.41c-11.26,14.1-24.41,26.38-36.99,39.14c-14.97,15.19-31.05,29.31-49.23,40.8
		c-7.41,4.68-14.86,9.14-23.07,12.29c-14.58,5.59-28.66,12.5-43.53,17.24c-12.7,4.04-25.59,7.58-38.84,9.63
		c-8.37,1.3-16.59,3.53-24.96,4.76c-8.74,1.28-17.35,3.03-25.89,5.17c-5.37,1.35-10.71,2.94-15.7,5.3
		c-3.07,1.45-6.82,2.36-8.05,6.41c-0.19,0.62-1.66,0.84-2.59,1.27c-1.16-1.47-2.15-2.64-1.07-4.76c1.11-2.19-0.82-4.36-0.87-6.71
		c-0.23-10.18,2.3-19.81,5.5-29.29c3.02-8.96,7.24-17.45,11.05-26.09c6.9-15.65,14.16-31.13,19.57-47.41
		c4.21-12.67,7.9-25.52,10.66-38.53c2.74-12.91,4.62-26.03,6.53-39.13c2.96-20.28,3.25-40.6,2.6-60.92
		c-0.49-15.37-3.97-30.35-9.69-44.77c-4.22-10.64-11.11-19.46-17.72-28.6c-9.68-13.39-21.63-24.6-33.34-36.05
		c-8.45-8.26-17.76-15.57-27.34-22.52c-18.15-13.17-37.19-24.88-57.47-34.46c-12.36-5.84-25.12-10.69-38.14-14.96
		c-9-2.95-18.12-5.28-27.32-7.26c-6.21-1.34-12.54-2.52-18.99-2.54c-2.94-0.01-5.87,0.39-8.82-0.81c-2.61-1.06-4.31,0.4-4.93,3.13
		c-3.05,13.35-6.33,26.63-8.15,40.25c-1.28,9.61-3.35,19.22-2.75,28.89c0.89,14.34,2.46,28.6,8.84,41.92
		c4.53,9.46,10.1,18.22,15.81,26.95c3.21,4.91,6.23,9.95,9.25,14.98c3.19,5.31,3.22,11.55,4.92,17.3
		c2.39,8.03,2.35,16.33,1.94,24.56c-0.25,4.93-2.27,9.21-5.6,13.24c-8.82,10.69-20.07,18.22-31.49,25.58
		c-4.19,2.7-6.17,5.79-5.96,11.13c0.57,14.86-4.79,27.76-14.43,39.01c-3.65,4.27-7.67,7.88-12.92,10.1
		c-2.22,0.94-3.57,2.62-4.86,5.05c-4.02,7.54-9.48,14.09-17.08,18.5c-6.49,3.77-13.09,7.24-20.56,8.78
		c-3.98,0.82-7.95,0.38-11.92,0.36c-2.53-0.01-4.4,0.62-6.1,2.51c-7.74,8.64-17.66,13.43-28.89,15.39c-5.95,1.03-11.91,0-17.03-3.39
		c-4.22-2.79-8.6-5.44-12.18-9.1c-1.37-1.4-2.55-1.36-4.39-0.66c-3.63,1.38-7.22,3.1-11.2,3.31c-9.71,0.51-16.76-4.48-22.1-11.77
		c-2.82-3.85-5.7-6.73-10.41-7.9c-7.39-1.85-12.67-6.89-16.51-13.04c-2.04-3.27-6.03-5.61-5.79-10.23c0.04-0.79-0.51-1.61-0.45-2.39
		c0.64-7.48-1.08-14.83-1.14-22.3c-0.19-26,19.72-53.15,45.91-58.44c15.41-3.11,27.27-11.61,37.09-23.97
		c6.98-8.78,11.3-18.72,15.95-28.59c5.55-11.79,10.38-23.87,14.7-36.2c4.96-14.16,8.92-28.57,12.3-43.14
		c2.4-10.35,2.22-20.96,2.23-31.55c0.01-7.8-1.42-15.48-1.26-23.3C579.93,1802.23,577.19,1798.36,573.96,1794.11z M968.55,684.96
		c-4.29-0.52-7.52-0.95-10.87-2.03c-14.19-4.6-25.37-13.45-35.53-23.76c-5.45-5.54-9.8-12.13-15.2-17.79
		c-3.03-3.18-4.84-3.64-9.6-1.49c2.45,10.01,1.42,20.25,1.6,30.44c0.02,0.83-0.28,1.6-0.48,2.39c-1.73,6.88-5.38,12.58-10.49,17.4
		c-5.65,5.34-10.34,11.46-14.86,17.75c-0.99,1.38-1.34,2.63-1.04,4.13c1.79,9.18-4.78,19.59-13.78,21.62
		c-5.86,1.32-11.22,3.45-15.15,8.3c-1.24,1.53-2.24,3.2-3.56,4.7c-6.4,7.26-11.9,15.17-16.04,23.95c-1.04,2.2-2.06,4.49-2.49,6.85
		c-0.7,3.82,2.39,5.56,5,7.18c7.71,4.8,11.24,16.04,9.18,23.66c-2.72,10.1-2.4,10.19,3.46,19.75c0.43,0.7,0.77,1.45,1.15,2.17
		c3.62,6.81,7.9,13.35,13.25,18.72c6.17,6.19,14.34,10.1,21.59,16.4c15.32-26.62,31.18-52.36,51.47-74.98
		c-5.25-4.19-6.95-9.05-4.43-13.87c4.21-8.03,6.11-16.83,9.06-25.26c5.76-16.47,13.88-31.64,23.33-46.18
		C958.46,698.35,963.04,691.84,968.55,684.96z"/>
</g>
<g>
	<path class="st0" d="M891.96,1025.46c1.51-0.71,3.18-0.79,3.57-2.08c0.88-2.89,3.51-3.7,5.65-4.27c8.33-2.19,9.99-8.75,10.71-15.77
		c0.66-6.44-0.73-12.76-2.58-18.91c-0.91-3.03-1.48-6.02-1.37-9.19c0.28-8.09-0.77-16.06-2.68-23.91c-0.2-0.83-0.3-1.56,0.02-2.38
		c1.84-4.72,2.81-9.68,3.87-14.62c0.18-0.86,0.95-1.28,2.03-1.76c2.72,3.12,2.43,7.35,3.49,10.9c1.75,5.89,3.91,11.72,4.83,17.91
		c0.5,3.39,0.88,6.85,1.27,10.21c0.74,6.53,1.72,13.12,1.27,19.78c-0.23,3.43,0.28,6.85,0.75,10.3c0.49,3.64,1.87,4.44,5,3.56
		c0.71,10.2,1.45,20.24,2.44,30.22c0.76,7.65,1.2,15.3,0.55,22.8c-0.86,9.97-0.79,20.05-2.75,29.92c-0.1,0.48-0.07,1-0.04,1.5
		c0.49,6.81-0.68,13.51-1.26,20.56c-4.02-2.04-5.48-6.13-7.61-9.41c-12.03-18.54-22.04-38.2-31.54-58.12
		c-4.28-8.98-7.96-18.26-12.63-27.06c-2.35-4.43-4.83-8.82-8.59-13.49c-0.79,5.36,1.47,9.15,2.9,12.78
		c6.6,16.82,13.76,33.42,21.73,49.65c8.78,17.87,18.78,35.06,30.19,51.37c5.35,7.64,11.5,14.74,17.37,22.02
		c6.32,7.84,13.32,14.95,20.35,22.08c6.38,6.46,13.81,11.69,20.78,17.44c8.21,6.77,16.89,12.95,24.88,20.04
		c8.7,7.72,18,14.77,27.11,22.01c8.71,6.92,17.49,13.75,26.29,20.56c9.31,7.21,18.73,14.29,28,21.54c4.91,3.84,9.77,7.77,14.4,11.95
		c10.67,9.62,22.1,18.4,31.96,28.91c8.49,9.05,16.1,18.82,23.87,28.48c6.17,7.67,12.41,15.29,18.57,22.97
		c6.76,8.44,13.63,16.8,20.08,25.47c7.63,10.24,15.93,19.94,23.51,30.21c4.72,6.39,8.88,13.2,13.05,19.97
		c6.67,10.83,13.37,21.65,19.64,32.72c4.56,8.05,8.68,16.35,12.1,25.02c1.41,3.57,3.47,6.99,4.73,10.66
		c1.88,5.52,3.63,11.12,5.44,16.63c2.38,7.26,4.79,14.5,5.99,21.99c0.97,6.01,1.39,12.11,2.59,18.11c1.79,8.95,3.84,17.9,4.82,26.96
		c0.82,7.51,1.64,15.04,2.37,22.56c0.98,10.13,1.14,20.35,2.75,30.42c0.21,1.3,0.09,2.66,0.09,3.99
		c0.01,11.16,0.26,22.34-0.07,33.49c-0.35,11.54-0.9,23.11-2.05,34.59c-0.98,9.8-1.57,19.66-3.02,29.39
		c-1.2,8.07-2.24,16.18-3.53,24.24c-1.21,7.57-2.36,15.19-3.36,22.82c-2.01,15.39-6.18,30.29-10.34,45.2
		c-3.67,13.17-8.1,26.11-12.88,38.87c-3.8,10.16-7.83,20.3-12.16,30.29c-6.42,14.83-13.24,29.47-20.24,44.02
		c-4.66,9.69-9.45,19.34-14.46,28.88c-3.02,5.75-6.29,11.4-9,17.34c-7.9,17.33-19.02,32.71-29.9,48.21
		c-5.35,7.62-10.74,15.23-16.57,22.48c-8.97,11.17-17.6,22.67-27.53,33.01c-6.59,6.86-12.56,14.35-20.2,20.23
		c-2.24,1.73-3.25,4.99-5.41,6.9c-8.76,7.76-17.09,15.99-26.1,23.49c-5.43,4.52-10.86,9.09-16.61,13.09
		c-6.98,4.86-14.02,9.68-21.72,13.59c-7.71,3.93-15.75,6.8-23.83,9.46c-7.6,2.5-14.72,6.08-22.33,8.57
		c-8.99,2.94-17.96,5.88-27.24,7.54c-7.22,1.29-14.27,3.01-21.35,4.87c-6.75,1.78-13.92,1.92-20.79,3.33
		c-11.45,2.36-23.06,4.24-33.95,8.81c-1.56,0.66-3.24,0.92-5.33,0.86c2.15-8.04,7.11-14.3,11.58-20.81
		c1.39-2.02,4.35-4.24,4.03-5.85c-0.54-2.69,0.99-5.08-0.13-8.5c-5.12,10.09-14.7,16.56-16.72,27.66c-3.83-1.85-2.26-5.2-2.08-8.12
		c0.28-4.52,2.24-8.48,4.65-12.19c0.58-0.89,0.48-1.36,0.07-2.15c-0.28-0.54-0.54-1.6-0.27-1.85c3.66-3.49,4.27-8.58,6.78-12.67
		c4.45-7.26,8.17-14.95,12.38-22.36c2.41-4.24,5.51-8.79,4.74-14.32c3.41-1.43,2.3-5.19,3.9-7.55c3.47-5.12,3.34-11.22,4.55-16.94
		c0.12-0.58-0.53-1.38,0.13-2.16c0.93-1.1,1.17,0.2,1.74,0.33c1.13,0.27,0.55-0.87,0.69-1.35c2.33-7.93,5.34-15.76,6.65-23.86
		c0.93-5.77,2.9-11.69,1.31-18.01c4.87-2.54,2.71-7.67,3.89-11.66c1.33-4.51,2.28-9.71,1.61-13.97c-0.91-5.76,2.39-10.06,2.56-15.22
		c0.41-12.25,1.16-24.48,1.01-36.75c-0.09-7.44-2.88-14.54-2.18-22.09c0.3-3.29,1.52-6.47,0.34-10.12c-1.07-3.3-2.84-6.6-2.87-10.12
		c-0.06-5.63-5.02-9.21-5.61-14.57c-0.12-1.05-0.87-2.73-2.6-1.02c-0.05,0.05-1.53-1.18-0.75-2.36c1.26-1.92-0.15-4.42-0.92-4.82
		c-4.14-2.17-4.17-6.85-6.75-9.84c-1.18-1.37-1.62-3.38-4.12-3.78c-2.42-0.39-1.07-2.53-0.6-4.23c-1.89-0.51-3.06-1.4-4.27-3.25
		c-2.49-3.82-4.47-8.34-8.83-10.7c-0.24-0.13-0.68-0.15-0.73-0.31c-2.83-8.32-10.89-12.15-15.86-18.6
		c-1.81-2.35-3.25-4.67-6.98-3.28c0.95-2.45,0.32-4.19-1.12-5.19c-6.08-4.22-10.84-9.98-16.61-14.4c-3.29-2.52-6.65-5.55-10.93-6.96
		c-1.27-0.42-2.11,0.64-3.17-0.05c-0.19-1.07,1.1-1.4,1.26-2.33c-1.56-1.77-3.11-3.61-5.88-3.09c-0.42,0.08-0.66,0.14-0.75-0.15
		c-1.53-5.1-6.92-5.11-10.29-7.77c-8.48-6.7-17.97-11.91-27.65-16.49c-7.48-3.54-14.73-7.64-22.67-10.37
		c-3.66-1.26-7.46-2.97-10.93-5.14c-3.98-2.49-8.73-3.07-13.26-4.16c-2.75-0.66-5.32-2.01-8.15-2.69
		c-7.34-1.77-14.6-3.85-21.88-5.81c-0.15-0.04-0.26-0.29-0.39-0.29c-11.16,0.03-22.19-5.15-33.61-0.31
		c-0.74-5.63,1.24-10.25,2.24-14.98c1.04-4.93,3.04-9.64,4.27-14.47c1.54-6.06,3.81-11.94,4.72-18.21c0.37-2.55,1.35-5.19,2.97-7.61
		c2.57-3.85,2.25-8.76,3.57-13.1c1.98-6.49,3.23-13.15,5.75-19.53c2.14-5.41,2.41-11.43,4.07-17.07c0.48-1.65,0.85-3.49,1.29-5.2
		c0.64-2.49,1.67-4.59,4.98-5.1c3.23-0.49,5.72-3.23,8.21-5.16c6.7-5.19,14.17-9.52,20.22-15.32c7.43-7.11,16.24-12.43,23.58-19.63
		c2.83-2.77,6.39-5.25,9.23-8.02c5.16-5.04,11.15-9.09,16.05-14.44c6.51-7.12,13.57-13.74,20.42-20.56c2.8-2.79,4.61-6.55,7.46-9.08
		c6.16-5.46,8.18-13.84,14.15-19.21c6.27,5.91,8.9,13.59,11.35,21.27c1.42,4.45,3.55,8.64,4.29,13.35
		c1.34,8.56,2.07,16.95,1.34,25.76c-0.81,9.6-4.18,18.47-5.92,27.76c-1.3,6.96,0.85,12.33,2.97,17.98c0.83,2.22,1.48,4.23,1.49,6.51
		c0.04,6.23-0.31,12.52,3.42,18.05c0.61,0.91-0.24,1.75-0.22,2.7c0.12,5.43,2.87,10.39,5.39,14.32c2.94,4.58,5.01,10.18,10.17,13.67
		c2.52,1.7,4.42,4.47,7.67,5.43c1.47,0.44,2.34,2.09,4.42,0.13c1.13-1.07,1.78,1.03,0.77,2.39c4,0.55,7.69,2.35,11.42,3.61
		c6.09,2.05,12.12,2.62,18.38,2.7c5.48,0.06,10.53,2.78,16.22,2.34c4.62-0.36,9.45,0.21,13.72-1.65c5.32-2.32,10.39-2.86,16.19-1.95
		c5.17,0.81,10.27-1.69,14.63-4.59c5.37-3.57,10.83-7.21,13.82-13.3c0.44-0.89,1.41-0.78,1.95-1.37c0.66-0.74,1.98-1.73,1.82-2.22
		c-1.92-5.87,4.43-10.36,2.43-16.49c-0.86-2.64,1.37-6.07,0.73-9.2c-1.41-6.98,0.21-14.47-3.65-21.04c-0.8-1.36,0.01-2.78,0.51-4.23
		c0.88-2.56,2.16-5.28-0.26-8.13c3.54-2.05,4.37-5.17,4.47-8.72c0.1-3.6-0.58-7.24,0.88-10.79c0.96-2.33-1.54-4.03-1.71-6.4
		c-0.44-5.81-0.91-11.62-1.32-17.44c-0.17-2.33-1.91-4.52-2.27-6.87c-0.4-2.66,1.03-1.39,2.58-0.05
		c-2.74-7.54-2.15-15.14-4.83-22.07c-0.62-1.6,0.08-3.3-0.81-4.85c-0.76-1.32-0.82-3.05-2.67-3.74c2.98-1.38,4.32-6.01,3.2-10.77
		c5.14-0.41,6.14-5.14,7.67-8.55c2.13-4.74,4.45-9.28,7.12-13.74c2.72-4.53,3.68-9.91,6.04-14.69c0.51-1.04,1.43-1.25,1.88-1.98
		c1.02-1.67-0.46-1.9-2.64-2.47c5.19-2.92,5.76-8.05,5.46-12.15c-0.39-5.31,0.45-11.01-1.79-16.03c-1.53-3.45-0.5-7.04-1.86-10.6
		c-1.93-5.05-5.18-9.33-8.3-13.14c-4.62-5.65-10.61-10.43-16.78-14.66c-0.5-0.34-1.26-0.47-1.88-0.42c-2.48,0.17-4.56-0.1-5.54-2.94
		c-0.25-0.71-1.55-1.1-2.41-1.56c-6.59-3.49-13.45-5.42-21.07-5.69c-8.94-0.31-17.88-0.84-26.84-0.86
		c-7.93-0.02-15.79,0.53-23.6,1.97c-3.99,0.74-7.96-1.22-12.7,0.33c4.27-5.97,8.02-11.24,10.71-17.2c2.57-5.69,5.53-11.23,8.09-16.9
		c1.22-2.69,2.07-6.09,1.28-9.45c1.44,0.15,0.87,1.21,1.81,1.65c5.21-15.41,11.68-30.41,14.44-47.16c4.5-1.97,7.72,2.25,11.21,4.83
		c3.18,2.35,6.41,4.57,9.81,6.58c0.8,0.47,1.52,0.86,2.12,1.8c1.21,1.89,2.64,3.92,5.48,3.64c0.42-0.04,1.04,0.23,1.3,0.57
		c4.11,5.31,10.95,7.08,15.32,12.47c2.85,3.52,7.38,6.37,11.63,8.76c1.81,1.02,2.79,2.62,4.28,3.76
		c7.22,5.53,14.16,11.38,21.12,17.22c4.98,4.18,10.05,8.22,14.88,12.61c3.44,3.13,6.15,7.4,9.78,9.57
		c4.73,2.82,5.77,9.49,12.19,10.35c1.46,0.2,1.64,4.25,3.58,6.05c3.79,3.51,5.28,9.29,10.89,11.02c0.35,2.98,2.51,4.82,4.16,7.07
		c6.41,8.79,13.59,17.06,18.42,26.97c1.4,2.87,4.06,5.04,5.96,7.75c4.3,6.13,7.84,12.74,12.12,18.88c3.19,4.57,6.36,9.28,9.16,14.01
		c2.96,5,5.41,10.54,8.01,15.88c4.46,9.14,8.2,18.66,12.94,27.6c6.33,11.93,9.09,25.14,14.89,37.17c1.01,2.09,0.32,4.19,1.01,6.29
		c2.03,6.12,3.6,12.38,5.45,18.56c1.86,6.21,3.41,12.52,4.35,19.03c0.61,4.23,1.69,8.55,2.7,12.81c0.54,2.3,1.47-0.58,2.21,0.96
		c-1.39,4.46-0.57,9.63-1.11,14.72c-0.3,2.87,0.15,5.64,1.18,8.23c0.92,2.3,1.18,4.46,0.2,6.69c-0.58,1.3-0.47,2.63-0.39,3.92
		c0.6,8.9,0.41,17.86-1.24,26.54c-1.07,5.63-0.68,11.33-2.11,17.03c-1.15,4.58-2.65,9.17-3.54,13.83c-1.59,8.32-2.94,16.68-5,24.91
		c-0.58,2.33-2.06,4.11-2.67,6.43c-0.81,3.08-0.65,6.39-1.69,9.17c-1.43,3.83-1.65,8.15-5.09,11.47c-1.75,1.69-2.52,5.22-3.25,7.96
		c-1.99,7.46-7.03,13.49-9.21,20.82c-1.5,5.06-5.89,8.81-6.86,14.07c-1.2,6.48-6.54,10.65-8.57,16.78
		c-1.99,6.01-7.98,10.35-7.94,17.43c0,0.13-0.17,0.31-0.3,0.39c-6.83,4.19-6.88,12.55-11.23,18.2c-3.32,4.32-5.74,9.14-8.61,13.7
		c-2.06,3.28-3.39,7.02-6.42,9.56c0.58,0.84,1.91,0.69,1.5,1.98c-0.73,0.79-1.4-0.72-2.15-0.15c-2.92,5.96-5.66,12.03-9.57,17.43
		c-4.17,5.76-7,12.33-11.07,18.11c-4.18,5.95-7.73,12.28-11.64,18.88c0.04,0.11,0.31,0.85,0.43,1.17c-4.45,2.09-5.76,6.5-8.11,10.01
		c-6.21,9.28-12.33,18.61-18.6,27.85c-3.84,5.67-7.56,11.41-11.75,16.87c-3.27,4.26-6.09,8.95-9.22,13.39
		c-2.65,3.75-6.78,6.61-8,11.15c-0.96,3.58-4.01,5.34-6.07,7.6c-2.75,3.03-4.9,6.55-7.73,9.36c-8.63,8.59-14.57,19.62-24.55,26.98
		c-0.68,0.5-3.61,1.09-1.38,3.41c0.61,0.64-0.77,0.72-1.18,0.92c-3.41,1.69-6.13,4.1-8.24,7.26c-2.02,3.02-5.26,4.85-7.53,7.63
		c2.29,2.83,5.9,3.08,8.66,0.18c6.74-7.09,14.2-13.46,20.43-21.09c3.48-4.26,7.5-8.12,11.14-12.31
		c9.14-10.55,17.71-21.54,26.22-32.58c7.08-9.18,13.78-18.67,20.25-28.26c9.2-13.65,18.38-27.32,27.07-41.32
		c7.4-11.91,14.85-23.79,22.28-35.69c5.52-8.83,10.72-17.84,15.97-26.83c6.42-10.99,12.93-21.93,18.98-33.12
		c4.81-8.88,9.76-17.69,14.4-26.66c4.65-8.98,8.74-18.26,13.55-27.16c6.47-11.97,10.56-24.89,15.56-37.45
		c4.21-10.59,7.69-21.45,10.34-32.54c2.15-9.02,4.21-18.07,5.9-27.21c1.43-7.71,2.83-15.48,3.55-23.22
		c0.95-10.29,2.79-20.68,0.42-31.1c-0.54-2.38-0.05-4.98-0.15-7.48c-0.31-8.04-1.2-16-2.79-23.9c-0.36-1.81,0.15-3.78,0.05-5.66
		c-0.42-7.91-2.81-15.36-5.74-22.62c-2.22-5.49-2.76-11.37-4.35-17c-0.8-2.84-2.21-5.42-2.93-8.14c-1.49-5.61-4.36-10.6-6.13-16.03
		c-4.55-13.95-11.33-27.03-15.97-40.92c-2.35-7.03-7.01-12.89-9.3-19.77c-3.14-9.43-10.64-15.69-15.79-23.62
		c-6.85-10.53-13.85-20.97-21.19-31.16c-6.5-9.02-13.48-17.7-20.36-26.44c-11.64-14.78-25.49-27.47-38.75-40.71
		c-9.95-9.93-21.32-18.15-32.72-26.33c-9.28-6.65-18.05-13.98-27.08-20.97c-6.56-5.08-13.39-9.83-19.93-14.96
		c-5.83-4.58-11.51-9.32-17.08-14.23c-4.58-4.04-9.54-7.9-14.79-11.26c-12.48-7.99-25.71-14.7-38.08-22.88
		c-7.34-4.85-15.23-8.87-22.64-13.63c-7.28-4.67-14.05-10.15-21.19-14.96c-9.3-6.25-17.1-14.12-25.57-21.23
		c-5.34-4.48-10.43-9.32-15.92-13.66c-4.14-3.27-9.34-4.44-13.76-7.15c-9.72-5.97-19.55-11.78-29.2-17.85
		c-5.93-3.73-12.18-6.9-17.87-11.09c-7.27-5.35-14.19-11.12-21.09-16.9c-9.74-8.16-18.74-17.17-27.42-26.43
		c-13.41-14.31-25.71-29.5-35.02-46.93c-6.67-12.5-13.62-24.85-20.43-37.27c-8.03-14.64-13.27-30.24-16.96-46.51
		c-3.35-14.74-5.96-29.7-10.92-44.04c-2.5-7.23-4.99-14.54-10.63-20.24c-1.36-1.38-2.09-3.26,0.47-5.27
		c5.34-4.21,11.89-6.18,17.35-10.09c0.13-0.09,0.32-0.2,0.46-0.17c4.9,0.84,7.62-2.86,10.96-5.27c1.34-0.96,2.69-1.77,4.43-1.95
		c2.16-0.23,3.95-1.74,5.9-2.35c6.1-1.92,11.38-5.61,17.71-7.24c4.37-1.13,8.66-3.36,13.12-4.85c7.87-2.63,16.08-4.16,23.83-6.83
		c9.2-3.16,18.82-3.69,28.11-6.15c7.13-1.89,14.78-3.82,22.51-2.67c10.43-3.7,21.5-1.9,32.16-3.73c4.02-0.69,8.24-0.92,12.28-0.97
		c15.44-0.2,30.89-2.44,46.28-1c11.45,1.07,22.88,0.31,34.31,0.97c3.02,3.38,3.4,7.42,3.89,11.76c0.98,8.78-0.55,17.9,2.89,26.32
		c2.31,5.66,4.78,11.26,10.49,14.76c2.74,1.68,3.59,5.21,4.36,8.24c1.76,6.94,3.33,13.93,4.64,20.97c0.64,3.41,0.96,6.88,0.63,10.46
		C886.28,1008.23,887.52,1016.91,891.96,1025.46z M1036.17,1852.78c-2.73,0.85-3.1,2.19-1.42,5.44c1.37-1.7,1.9-3.49,1.28-5.58
		c2.38-1.25,1.98-3.67,2.52-5.69C1036.6,1848.43,1036.18,1850.52,1036.17,1852.78z M1098.45,1448.29
		c-2.52-9.67-8.24-17.63-12.74-26.13c-3.64-6.88-7.58-13.69-11.59-20.41c-6.58-11.03-13.09-22.11-20.36-32.68
		c-5.08-7.39-10.48-14.59-16.19-21.57c-7.07-8.66-14.36-17.11-21.76-25.47c-9.23-10.45-19.86-19.49-30.51-28.41
		c-12.34-10.34-25.5-19.69-38.85-28.67c-10.54-7.09-21.27-13.93-31.81-21.04c-12.7-8.56-25.69-16.7-38.22-25.49
		c-12.63-8.86-25.33-17.62-37.55-27.08c-7.44-5.76-15.23-11.18-22.93-16.66c-2.05,2.13-1.96,3.82,0.45,5.66
		c2.07,1.58,4.42,2.83,6.34,4.57c10.34,9.37,21.7,17.5,32.62,26.13c14.19,11.21,29.29,21.31,44.32,31.4
		c20.17,13.55,40.55,26.8,60.18,41.13c13.4,9.78,26.6,19.83,38.3,31.68c7.58,7.67,15.36,15.14,22.33,23.38
		c4.23,5.01,8.32,10.13,12.5,15.18c5.11,6.17,9.44,12.92,14.2,19.34c8.06,10.87,14.87,22.53,22.39,33.74
		c7.08,10.55,13.45,21.58,20.66,32.03C1092.56,1442.26,1094.78,1445.99,1098.45,1448.29z M813.11,1123.56
		c0.28-0.27,0.56-0.55,0.84-0.82c-7.53-14.02-15.56-27.74-22.2-42.27c-6.28-13.76-12.12-27.7-17.55-41.77
		c-5.61-14.53-10.65-29.33-13.52-44.73c-2.22-11.9-5.38-23.74-1.79-36.71c-2.26,2.49-3.18,4.7-3.9,7.05
		c-2.35,7.69-0.9,15.54,0.25,23.03c2.73,17.87,7.9,35.23,14.27,52.13c4.64,12.32,10.11,24.35,15.58,36.34
		c4.99,10.94,10.94,21.43,16.99,31.82C805.32,1113.19,809.41,1118.27,813.11,1123.56z M648.14,1040.68
		c5.07-11.06,10.48-22.18,16.44-32.97c6.06-10.97,12.71-21.62,19.77-32.01c6.85-10.09,14.96-19.3,21.05-29.88
		C676.72,971.58,657.48,1003.08,648.14,1040.68z M905.35,2176.06c5.05-5.9,9.63-11.73,14.78-16.99c1.72-1.76,1.54-4.62,1.33-4.88
		c-1.97-2.36-0.18-3.3,1.39-3.13c2.96,0.32,3.84-1.18,4.07-3.5c0.15-1.47,0.75-2.24,1.98-3.09c3.36-2.34,7.28-3.99,9.81-7.42
		c-1.79-3.48-4.39-1.5-5.48-0.11c-2.63,3.36-6.07,5.86-8.71,9.26c-5.36,6.91-11.92,12.84-17.24,19.8c0.81,1.46,0.73,1.6-0.83,1.88
		c-0.28,0.05-0.56,0.24-0.77,0.43c-2.74,2.47-4.88,5.37-6.41,9.03C901.09,2174.98,903.3,2175.81,905.35,2176.06z M1061.06,1795.07
		c3.41-3.72,3.64-7.59,4.48-11.22C1063.94,1787.16,1061.01,1789.9,1061.06,1795.07z M1045.07,1830.91c1.16,0.71,2.45,1.16,2.74-0.5
		c0.32-1.82,2.73-3.92-0.37-5.62C1046.53,1826.77,1044.78,1828.44,1045.07,1830.91z M1069.38,1770.98
		c-1.55,1.67-1.64,3.36,0.41,5.36C1069.59,1774.43,1071.43,1772.95,1069.38,1770.98z M1053.29,1811.7
		c-0.95,2.13-0.95,2.13,0.36,4.13C1054.36,1814.48,1055.94,1813.12,1053.29,1811.7z M1059.68,1800.04
		c-2.31,1.71-2.31,1.71-1.01,3.95C1059.07,1802.68,1060.58,1801.67,1059.68,1800.04z M1031.46,1861.64
		c-0.37,1.88-2.43,2.38-2.38,4.3C1031.9,1865.71,1032.46,1864.32,1031.46,1861.64z M1074.02,1755.88c1.85-1,3.03-2.26,1.95-5.4
		C1075.07,1752.95,1074.54,1754.42,1074.02,1755.88z M1044.58,1832.7c-2.02,1.41-1.88,2.54-0.63,4.18
		C1045.21,1835.33,1045.02,1834.22,1044.58,1832.7z M1049.68,1824.55c2.06-0.86,1.11-2.36,0.92-3.72
		C1048.89,1821.67,1048.42,1822.8,1049.68,1824.55z M1078.39,1744.72c0.01-1.31,1.99-2.23,1.14-3.9
		C1077.66,1741.69,1077.79,1743.11,1078.39,1744.72z M1040.95,1843.77c1.19-1.32,1.19-2.21,0-3.53
		C1039.76,1841.56,1039.76,1842.45,1040.95,1843.77z M1023.39,1879.23c1.4-0.77,1.88-1.69,1.04-3.55
		C1024.17,1877.13,1022.55,1877.63,1023.39,1879.23z M1072.49,1766.02c0.6-1.5,0.7-2.64-0.53-4.55
		C1072.09,1763.39,1071.66,1764.46,1072.49,1766.02z"/>
	<path class="st0" d="M132.98,1675.55c4.47-2.03,8.59,0.63,12.7,0.09c4.09-0.53,8.31-0.12,12.73-0.12c-0.1-2.06-1.61-2.98-2.84-3.75
		c-12.88-8.08-25.17-16.96-37.28-26.15c-7.33-5.57-14.2-11.65-21.29-17.49c-9.1-7.49-17.23-16.03-25.52-24.27
		c-8.17-8.12-17.04-15.8-23.73-25.3c-5.25-7.45-9.92-15.33-14.37-23.31c-7.09-12.7-12.46-26.17-17.16-39.87
		c-3.48-10.15-5.94-20.65-7.98-31.19c-0.98-5.09-0.05-10.4,0.36-15.6c1.29-16.48,4.41-32.65,8.26-48.71
		c2.35-9.82,4.55-19.71,5.98-29.69c0.67-4.67,1.69-9.42,1.29-14.27c-0.26-3.11,0.63-6.26,0.73-9.3c0.21-6.56-0.47-13.18-1.17-19.73
		c-0.57-5.31-1.71-10.55-2.2-15.97c8.15,12.94,14.11,26.88,19.71,41.02c5.52,13.95,8.54,28.77,14.62,42.6
		c1.9-3.85,1.6-7.84,1.1-11.55c-1.64-12.32-5.49-24.09-9.93-35.66c-0.47-1.23-1.54-2.18,0.51-3.06c1.02-0.43,0.15-1.36-0.14-2.1
		c-3.74-9.4-5.17-19.18-5.33-29.27c-0.39-23.54,4.48-46.17,10.99-68.6c7.71-26.56,18.1-52,30.99-76.46
		c3.63-6.9,7.66-13.53,12.73-20.58c0.39,2.54,0.48,4.2,0.06,5.92c-1.71,7.04-2.8,14.16-2.72,21.42c0.06,5.3-1.43,10.45-1.06,15.8
		c0.81,11.98,1.39,23.95,2.91,35.9c2.21,17.41,6.45,34.26,12.18,50.76c8.07,23.22,18.92,45.11,33.34,65.03
		c6.55,9.05,13.5,17.97,22.06,25.33c13.94,11.98,28.94,22.27,46.03,29.46c6.78,2.86,13.64,5.24,20.67,7.29
		c0.74,0.22,1.21,0.23,1.73-0.4c-0.18-1.68-1.82-1.68-2.86-2.21c-7.46-3.73-15.27-6.94-22.07-11.73
		c-11.48-8.08-23.66-15.63-29.08-29.78c-3.33-8.69-5.83-17.61-7.79-26.66c-1.93-8.92-3.78-17.9-4.83-26.94
		c-0.57-4.87-0.89-9.88-1.43-14.75c-1.59-14.45-0.3-28.88-0.8-43.31c-0.03-0.98,0-1.96,0-2.92c1.58-0.31,0.47,1.56,1.58,1.37
		c0.57-1.26,1.21-2.65,2.07-4.54c3.89,6.22,6.66,12.47,10.29,18.23c6.01,9.54,13.13,18.15,21.39,25.74
		c15.62,14.34,33.82,24.2,54.14,30.3c12.81,3.85,25.76,6.93,38.98,9.05c11.18,1.79,22.34,3.36,33.67,4.08
		c9.07,0.58,17.9,2.62,25.63,8.5c3.46,2.63,3.81,5.5,3.09,8.5c-1.97,8.16-0.31,16.04,1.23,23.88c1.51,7.67,4.02,15.07,8.29,21.76
		c4.68,7.33,11.47,12.41,19.11,15.78c11.11,4.9,20.2,12.62,29.96,19.41c6.84,4.76,14.08,8.73,21.49,12.52
		c8.6,4.4,17.5,7.9,26.71,10.73c8.58,2.64,17.4,4.16,26.22,5.75c3.85,0.69,7.53,1.83,11.54,2.13c9.62,0.73,19.22,0.93,28.84,0.77
		c4.33-0.07,8.88,0.32,12.68,1.45c4.33,1.29,8.62,2.39,13.07,3.15c1.94,0.33,3.8,1.24,5.46-0.97c2.34,2.88,1.73,6.08,1.07,9.16
		c-0.24,1.13-0.47,2.23-0.56,3.39c-1.3,16.58-1.26,33.2-0.86,49.79c0.21,8.59,0.58,17.2,0.99,25.79c0.49,10.16,1.4,20.35,3.01,30.38
		c1.87,11.59,3.26,23.26,5.59,34.8c1.42,7.02,1.92,14.3,2.45,21.53c0.68,9.31,1.25,18.66,2.71,27.92c0.61,3.88,0.66,7.9,0.88,11.8
		c0.35,6.43,1.97,12.8,1.24,19.28c-0.02,0.16-0.05,0.35,0.01,0.5c3.62,8.9-3.74,11.68-8.88,15.37c-8.9,6.39-19.52,8.59-29.74,11.91
		c-8.57,2.78-17.38,4.21-26.03,6.41c-6.3,1.61-12.99,1.79-19.52,2.33c-13.84,1.16-27.7,1.8-41.58,2.32
		c-6.75,0.26-13.57,0.1-20.3,0.77c-12.12,1.21-24.33,1.23-36.41,2.86c-2.13,0.29-4.33,0-6.49,0.09c-15.8,0.6-31.13,3.55-45.85,9.4
		c-2.42,0.96-4.31,2.92-6.79,3.89c-1.14,0.45-2.06,1.02-3.34,0.06c6.69-16.06,20.54-25.45,34.68-35.77
		c-4.5-1.24-7.64,0.04-10.5,0.92c-8.1,2.48-16.39,3.25-24.74,3.44c-9.1,0.21-18.28,0.68-27.28-1.02
		c-10.07-1.91-20.25-3.39-30.11-6.34c-12.94-3.86-25.61-8.57-38-13.82c-9.42-3.99-18.82-8.09-28.15-12.32
		c-9.05-4.1-18.76-6.56-27.59-11.26c-5.42-2.88-11.08-5.3-16.65-7.88C152.33,1684.45,142.9,1680.12,132.98,1675.55z"/>
	<path class="st0" d="M1119.01,959.93c0.15-3.07,0.11-6.07,0.64-9.23c0.92-5.51-0.92-11-2.38-16.37
		c-3.76-13.79-10.85-25.58-20.26-36.35c-9.18-10.5-18.91-20.32-30.44-28.09c-11.16-7.51-19.95-17.11-27.91-27.78
		c-4.81-6.44-8.09-13.63-11.96-20.56c-4.11-7.36-6.72-15.64-12.01-22.18c-4.23-5.23-7.22-11.94-14.21-14.55
		c-3.81-6.7-11.98-5.76-17.43-9.87c-3.21-2.42-8.13-1.97-12.26-2.78c-9.54-1.87-19.2-3.1-29.01-2.6c-3.72,0.19-6.59,2.82-10.5,3.03
		c-1.13-5.12,1.6-9.38,3.15-13.66c3.49-9.63,7.76-18.96,12.49-28.06c5.77-11.13,11.9-22.12,19.59-32
		c5.09-6.54,10.53-12.87,16.27-18.96c5.8-6.16,11.61-12.32,17.73-18.13c4.98-4.72,10.44-8.99,15.68-13.43
		c5.49-4.66,11.53-8.76,16.32-14.4c-3.83,0.53-7.24,2.1-10.43,4.08c-11.52,7.17-22.13,15.46-32.11,24.73
		c-5.03,4.68-9.35,9.94-14.23,14.69c-1.71,1.66-3.4,2.49-5.71,2.17c-12.28-1.7-22.96-7-32.34-14.87c-4.92-4.13-9.7-8.44-14.26-13.02
		c-4.57-4.59-8.37-9.81-12.92-14.15c11.06-5.55,23.44-9.28,28.05-23.6c-2.73,1.58-2.68,1.62-3.63,2.86
		c-1.57,2.05-3.04,4.38-6.09,4.19c-0.65-0.04-0.95,0.22-1.22,0.53c-7.12,8.28-16.46,10.77-26.87,10.02
		c-7.8-0.56-14.86-3.05-20.89-8.45c-5.15-4.61-10.32-9.15-14.84-14.43c-2.24-2.62-3.2-5.93-5.59-8.51
		c-1.53-1.65,0.08-3.41,2.38-3.52c2.33-0.12,4.7-0.29,6.99,0.01c4.95,0.66,9.36-1.44,13.97-2.48c1.44-0.33,3.14-1.14,3.71-3.23
		c-3.27-1.2-6.53,0.24-9.38,0.92c-9.78,2.35-18.34-0.42-26.95-4.48c-4.27-2.01-7.58-4.41-9.95-8.77c-1.89-3.48-1.85-6.3-0.31-9.5
		c3.06-6.36,7.67-11.4,13.32-15.56c7.59-5.59,15.15-11.22,22.84-16.93c-3.82-0.61-5.87,0.34-9.2,2.41
		c-3.89,2.41-7.7,4.91-11.51,7.45c-10.48,6.99-20.68,14.27-28.31,24.54c-1.29,1.73-2.81,3.29-3.94,4.6
		c-3.73-0.68-4.54-2.38-5.37-5.38c-1.29-4.63-2.86-9.31-4.79-13.77c-2.25-5.2-4.63-10.48-8.22-14.8c-1.63-1.97-3.69-4.77-7.54-4.89
		c1.79,2.64,3.15,5.15,5,7.44c6.13,7.56,8.52,16.83,10.64,25.98c1.76,7.59,2.73,15.3,1.47,23.39c-0.87,5.59-0.99,11.49-1.39,17.25
		c-0.57,8.14-2.38,16.11-4.5,24.01c-2.22,8.26-5.83,15.93-9.77,23.41c-7.16,13.56-17.15,24.85-30.5,32.43
		c-9.02,5.12-18.81,8.89-29.14,10.93c-7.07,1.39-14.15,2.48-21.35,3.16c-5.12,0.48-10.21,0.59-15.31,0.85
		c-5.49,0.29-10.79-1.54-16.31-1.13c-3.38,0.25-4.18-3.13-4.85-5.34c-2.16-7.09-1.72-14.56-0.79-21.68
		c0.61-4.7,0.69-9.47,1.34-14.18c0.76-5.5,2.11-10.91,2.61-16.5c0.6-6.79,1.37-13.64,2.56-20.43c2.16-12.38,4.45-24.76,8.38-36.64
		c3.5-10.58,7.19-21.14,11.3-31.55c3-7.61,7.64-14.02,12.11-20.6c6.51-9.59,13.31-18.98,20.14-28.35
		c8.09-11.09,16.06-22.29,24.92-32.79c10.29-12.2,19.92-24.95,31.12-36.4c2.4-2.45,4.58-4.75,7.6-6.51
		c5.04-2.92,8.81-7.42,13.04-11.39c4.52-4.24,9.76-8.34,16.27-9.41c3.71-0.61,7.29-1.75,10.89-2.62c9.22-2.23,18.22-2.09,27.32,0.04
		c3.33,0.78,6.73,0.89,10.09,1.85c6.25,1.77,12.15,4.36,18.22,6.55c2.08,0.75,3.78,1.79,5.42,3.22
		c6.06,5.27,12.35,10.16,17.66,16.38c4.91,5.76,10.27,11.18,14.18,17.65c4.69,7.76,9.72,15.35,13.36,23.71
		c0.17,0.4-0.03,0.96-0.1,2.01c-7.03-3.88-13.39-8.68-21.78-9.86c3.51,4.31,8.4,5.91,12.19,9.02c4.35,3.56,8.83,6.96,12.97,10.74
		c4.48,4.09,8.72,8.47,12.92,12.87c7.65,8,14.21,16.79,19.59,26.51c3.6,6.51,7.61,12.89,10.83,19.51c2.68,5.53,7.11,9.74,9.47,15.3
		c0.71,1.67,2.14,2.66,3.71,3.55c-2.87-6.03-6.55-11.63-8.63-18.01c6.87,4.1,12.75,9.28,18.72,14.28c2.64,2.21,5.68,3.68,8.42,5.59
		c9.09,6.3,18.61,12.02,28.16,17.63c9.07,5.32,17.22,11.87,25.44,18.34c5.5,4.33,11.17,8.43,15.86,13.76
		c6.62,7.52,11.08,15.67,12.53,25.93c1.52,10.72-0.14,20.93-1.95,31.26c-0.35,2-0.7,4.14-0.16,5.91c1.26,4.1,0.68,8.22,0.87,12.33
		c0.51,11,2.67,21.67,6.23,32.09c3.67,10.73,7.23,21.5,10.69,32.3c4.72,14.76,11.21,28.8,16.99,43.13
		c5.65,14.01,11.12,28.16,13.93,43.08c1.62,8.58,1.18,17.15-0.5,25.92c-1.25,6.54-1.6,13.51-3.94,19.63
		c-5.66,14.85-10.66,30.07-19.22,43.65c-1.58,2.5-0.71,5.48-2.27,7.95c-3.37,5.35-6.55,10.82-9.81,16.24
		C1119.71,960.12,1119.36,960.02,1119.01,959.93z M829.19,431.94c-3.89,2.43-12.93,13.83-13.8,17.41c2.51-1,3.32-3.6,4.67-5.47
		c2.93-4.08,7.53-6.93,8.98-12.07c1.17-0.97,2.72-1.65,2.9-4.04C830.13,429,828.56,429.73,829.19,431.94z M1053.73,739.38
		c1.01,0.29,1.47-0.52,2.03-1.06c4.33-4.28,7.11-9.67,10.14-14.83c1.39-2.37,3.74-4.41,3.89-8.31c-3.44,4.8-6.39,9-9.34,13.19
		c-2.52,3.58-4.74,7.22-6.57,11.15c-3.05,3.22-5.53,6.82-7.72,10.63C1050.78,746.59,1052.98,743.32,1053.73,739.38z M806.77,447.43
		c4.24-1.47,6.55-5.47,8.85-8.55c3.9-5.21,8.64-9.47,12.88-14.26c1.15-1.3,3.09-2.02,3.24-4.12c2.16,0.54,3-0.86,3.94-2.78
		c-2.16,0.2-2.87,1.7-3.8,2.92c-3.24,1.24-5.6,3.65-7.9,6.1c-4.5,4.78-8.33,10.18-13.22,14.59c-1.96,1.77-3.57,3.54-3.86,6.25
		c-1.17,0.97-2.72,1.65-2.88,3.83C805.92,450.43,807.35,449.6,806.77,447.43z M822.72,540.97c0.25-0.97,0.36-1.92-0.01-2.91
		c-2.05-5.58-4.07-11.17-6.1-16.76c0.72,6.97,2.97,13.42,6.25,19.53c0.07,2.52-2.2,4.58-1.58,7.47
		c7.22-10.22,13.32-20.86,21.13-30.39c-4.22,2.88-7.53,6.53-10.73,10.33C828.31,532.24,826.1,537.01,822.72,540.97z M978.18,643.91
		c8.44-18.13,13.2-37.63,21.65-55.76c-3.29,1.73-5.46,4.61-6.7,7.58c-4.21,10.04-8.61,20.03-11.47,30.58
		C980.09,632.1,978.34,637.84,978.18,643.91z M970.45,640.03c5.66-19.64,11.55-39.19,20.24-57.78
		C977.66,599.34,972.53,619.16,970.45,640.03z"/>
	<path class="st0" d="M575.41,1736.65c1.53,3.97,1.3,7.92,1.7,11.82c1.03,9.93,0.74,19.86,0.97,29.8c0.06,2.42,1.14,4.75,0.97,7.29
		c-0.18,2.56-1.92,3.51-3.84,3.42c-3.33-0.15-6.47,0.16-9.63,1.22c-1.36,0.46-3.03,0.55-4.43,0.25c-7.58-1.66-15.32-0.2-22.87-1.17
		c-10.27-1.32-20.64-0.84-30.9-2.59c-8.24-1.41-16.76-1.09-25.05-2.28c-10.93-1.57-21.99-1.26-32.92-2.77
		c-5.33-0.73-10.96,0.69-16.16-0.74c-4.29-1.18-8.5-1.22-12.8-1.43c-4.17-0.21-8.29,0.2-12.26,1.19c-3.8,0.95-7.46,0.09-11.09,0.23
		c-5.46,0.21-11.1,0.26-16.54,1.78c-9.9,2.77-20.17,3.73-30.21,5.86c-6.04,1.28-12.15,2.61-17.97,4.49
		c-8.84,2.86-17.81,5.17-26.83,7.13c-13.09,2.84-25.74,6.94-38.38,11.25c-13.74,4.68-27.02,10.42-39.22,18.24
		c-11.43,7.33-22.3,15.49-32.41,24.68c-5.28,4.8-10.57,9.56-15.45,14.74c-8.62,9.16-17.02,18.49-24.14,28.95
		c-5.61,8.24-11.14,16.59-15.62,25.4c-4.24,8.34-8.83,16.75-10.39,26.26c-0.12,0.75-0.77,1.42-1.26,2.27
		c-2.46-2.25-2.24-5.54-2.38-8.05c-0.45-8.08-1.97-16.14-1.22-24.28c1.25-13.57,1.69-27.24,4.12-40.66
		c2.95-16.32,6.43-32.54,11.29-48.46c5.89-19.28,14.1-37.5,23.29-55.36c5.91-11.48,13.17-22.1,20.83-32.39
		c6.23-8.37,13.62-15.88,20.49-23.77c2.63-3.03,5.68-1.23,8.2-0.22c5.28,2.13,10.57,4.46,15.54,7.09c4.01,2.13,9.15,2.47,12.07,6.59
		c5.93,0.21,10.78,3.89,16.4,5.11c1.43,0.31,2.88,0.64,4.22,1.21c9.86,4.24,20.37,6.44,30.76,8.46c9.81,1.91,19.89,3.32,30.09,2.4
		c4.09-0.37,8.32-0.14,12.36,1.38c0.41,1.29,0.8,2.84-0.44,3.63c-4.91,3.13-6.61,8.63-9.91,12.93c-2.33,3.03-1.06,6.95-3.17,10.14
		c-2.03,3.07-2.57,6.91-2.58,10.85c2.27,1.92,4.19,1.01,5.83-0.99c6.59-8.02,14.74-13.23,25.23-14.38
		c5.25-4.29,12.3-2.44,18.07-5.34c2.64-1.33,6.22-1.02,9.2-1.08c6.63-0.13,13.14-1.78,19.79-1.27c10.63,0.82,21.23-0.48,31.77-1.2
		c14.87-1.03,29.7-1.96,44.6-1.78c8.31-3.62,17.27-1.29,25.86-2.78c11.4-1.97,22.69-4.53,34.13-6.3c3.09-0.48,5.85-1.72,9.29-1.36
		c2.41,0.26,5.81-1.18,7.41-4.11c0.31-0.57,0.43-1.18,1.19-1.41c6.89-2.09,12.62-6.61,19.29-9.21
		C572.12,1736.64,573.71,1736.55,575.41,1736.65z"/>
	<path class="st0" d="M645.65,186.12c-5.1,7.28-3.24,19.69,1.21,25.42c-5.97,8.74-17.71,19.61-24.19,22
		c5.21-7.63,9.82-14.96,9.76-24.21c-1.5,2.89-3.28,5.68-4.43,8.7c-2.77,7.3-8.12,12.73-13.23,18.2c-3.96,4.24-7.3,8.88-10.7,13.5
		c-1,1.36-1.97,2.9-3.36,3.55c-2.57,1.2-4.58,2.9-6.31,5.16c0.47-2.65,1.04-5.18,0.3-8.3c-1.16,2.77-2.43,5.08-3.11,7.56
		c-1.8,6.61-5.61,12.03-9.32,17.64c-2.06,3.12-6.02,4.53-7.02,8.51c-0.26,1.03-1.73,1.08-2.64,0.69c-0.89-0.38-1.58-1.18-1.56-2.35
		c0.13-5.95-2.28-11.55-2.41-17.51c-0.85,4.91-2.24,9.77-1.57,14.77c0.84,6.29-3.48,9.68-7.52,12.73c-1.43,1.08-3.2,2.17-5.11,4.23
		c2.96-16.83,3.48-32.57-3.01-47.83c-0.74,5.82,0.19,11.68,0.93,17.32c1.66,12.66,0.85,24.54-6.43,35.41
		c-0.37,0.55-0.89,0.99-0.84,1.73c0.02,0.33,0.05,0.66,0.12,1.62c6-0.3,9.13-5.62,13.97-7.84c0.62,4.22,1.34,8.42,1.83,12.64
		c0.82,7-1.05,13.81-2.36,20.51c-0.92,4.74-0.09,8.77,1.49,12.83c1.48,3.79,3.69,7.27,6.05,10.63c3.32,4.74,2.71,9.77-1.29,13.9
		c-1.36,1.4-2.53,1.61-4.34,0.57c-7.22-4.12-14.97-7.52-21.38-12.8c-7.45-6.14-12.61-14.35-15.96-23.34
		c-2.89-7.75-5.84-15.77-6.73-23.89c-0.84-7.7-2-15.48-0.8-23.59c1.62-10.99,3-22,5.13-32.93c0.63-3.23-0.24-6.83,1.1-10.2
		c-4.42,3.68-5.64,8.95-7.5,13.83c-3.05,8.03-3.57,16.56-4.31,25c-0.25,2.87-1.75,4.8-4.07,7.55c0-6.57,0.39-12.43-0.08-18.23
		c-1.11-13.6,1.98-26.56,6.49-39.04c3.86-10.68,8.57-21.28,15.72-30.26c3.04-3.81,5.01-8.3,8.19-11.8
		c9.29-10.25,19.17-19.68,31.46-26.71c10.32-5.91,20.97-10.76,32.03-15.18c-5.43,7.9-11.57,15.27-13.78,25.16
		c2.84-1.14,3.62-3.68,4.85-5.61c11.62-18.19,27.38-31.61,46.54-41.31c7.73-3.91,15.71-7.34,23.34-11.41
		c4.46-2.38,8.73-4.57,14.09-5.06c-0.9,7.49-1.82,14.9-2.68,22.31c-0.17,1.48-0.18,2.98-0.18,4.47
		c-0.01,11.33,0.11,22.66-0.07,33.99c-0.07,4.38,0.65,8.43,2.99,12.81c-4.93-1.27-8.73-4.15-13.27-5.24
		c-2.63-0.63-5.34-0.81-7.95-1.61c-1.79-0.54-3.42,0.38-4.9,2.19c2.68,1.45,5.39,0.29,7.86,0.96c7.57,2.06,13.76,6.64,19.97,11.01
		c11.54,8.1,18.11,19.91,23.5,32.62c2.62,6.18,5.4,12.19,6.35,18.93c0.18,1.24,0.35,2.88,1.73,3.95c2.98,2.31,1.9,4.75-0.11,7.29
		c-7.38-4.1-15.24-6.51-23.38-8.32c-5.14-1.14-9.41-4.6-13.27-8c-6.05-5.32-11.62-11.17-15.49-18.47c-1.88-3.55-4.2-6.88-5.94-10.54
		C647.09,200.29,646.44,193.62,645.65,186.12z"/>
	<path class="st0" d="M584.33,917.87c1.65-4.41-0.06-8.68,1.47-12.9c3.42-9.49,5.52-19.37,7.6-29.23c1.85-8.77,3.62-17.55,4.8-26.48
		c0.8-6.09,0.34-12.18,1.06-18.5c3.18,0.1,5.99-0.59,7.76-3.27c1.05-1.58,2.71-0.7,4.04-1.3c11.52-5.2,23.66-8.14,36.19-9.57
		c1.7-0.19,2.96-1.39,4.5-1.88c7.32-2.32,14.67-4.66,22.51-4.09c2.86,0.21,5.81-0.46,8.21-1.28c6.06-2.07,12.83-0.4,18.29-3
		c6.86-3.27,13.58-0.8,20.3-1.56c7.07-0.79,14.39-0.88,21.44-0.01c10.02,1.24,20.05,2.61,30.03,4.41
		c15.71,2.85,31.05,7.5,46.94,9.45c3.65,0.45,6.45,2.53,8.34,5.55c5.34,8.57,11.05,16.75,18.13,24.07
		c6.52,6.73,13.51,12.82,20.82,18.61c0.13,0.1,0.24,0.23,0.37,0.33c1.66,1.16,4.37,1.07,4.78,3.73c0.48,3.15-2.07,5.05-3.39,7.4
		c-1.1,1.98-2.97,1.21-4.85,0.66c-6.53-1.94-12.71-5.03-19.59-5.87c-6.49-0.79-12.87-2.21-19.45-2.69
		c-6.94-0.5-13.85-0.81-20.8-0.84c-12.54-0.05-24.95,1.54-37.38,2.96c-0.99,0.11-2,0.03-3,0.05c-13.65,0.29-27.14,2.02-40.69,3.65
		c-17.26,2.08-33.88,6.61-50.78,10.08c-8.85,1.82-17.02,5.47-25.71,7.52c-9.73,2.3-18.34,7.36-27.58,10.88
		c-9.19,3.5-17.92,8.23-26.83,12.47C589.61,918.32,587.42,919.29,584.33,917.87z M639.1,857.69c0.82-0.1,1.78,0.06,2.43-0.32
		c8.82-5.31,17.99-9.88,27.65-13.45c0.4-0.15,1.19-0.25,1.01-1.07c-0.48-0.07-0.83-0.23-1.11-0.15
		c-9.92,2.82-18.76,8.11-27.99,12.47c-0.85,0.4-2.06,1.21-1.84,2.66c-2.15-0.31-3.63,0.75-5.71,2.99
		C636.32,860.04,638.12,859.64,639.1,857.69z M672.07,871.28c-11.75-0.09-23.08,1.77-33.82,6.34c0.08,0.37,0.16,0.73,0.24,1.1
		C649.68,876.23,660.87,873.75,672.07,871.28z"/>
	<path class="st0" d="M755.21,280.8c8.66-4.68,15.55-10.95,20.12-19.76c-2.15-1.56-4.36,1.75-6.41,0.49
		c9-7.3,17.07-15.35,20.4-26.97c0.34-1.19,0.99,2.22,1.71-0.3c2.64-9.2,5.9-18.22,7.04-27.83c0.64-5.36,1.93-10.64,1.92-16.09
		c-0.02-15.47-3.2-30.09-9.99-44.16c-6.03-12.5-12.57-24.65-20.03-36.32c-1.29-2.02-3.58-3.49-3.45-6.82
		c6.26,1.81,11.76,4.31,16.89,7.63c9.51,6.16,18.3,13.17,26.98,20.49c7.46,6.29,12.64,14.29,19.29,21.11
		c4.3,4.41,7.44,10.08,10.09,15.83c2.39,5.17,5.82,9.77,8.02,15.06c4.88,11.74,8.71,23.8,11.17,36.28
		c1.64,8.31,3.24,16.63,4.81,24.96c0.21,1.13,0.21,2.32,0.18,3.47c-0.18,7.1,0.3,14.13,1.97,21.05c0.11,0.47,0.11,1.4-0.01,1.43
		c-3.42,0.87-1.14,3.82-2.08,5.51c-1.41,2.54-0.87,5.21-0.82,7.81c0.13,7.28-0.37,14.37-2.85,21.36c-0.66,1.85-2.01,2.97-2.84,4.52
		c-1.32,2.43,0.44,6.23-3.3,7.53c-0.15,0.05-0.2,1.26,0.03,1.39c4.03,2.46,0.78,5.31,0.62,7.97c-2.2,0.63-1.57-2.53-3.38-2.25
		c-0.65,2.13-1.65,4.23-1.35,6.62c0.06,0.47,0.03,1.2-0.25,1.42c-6.28,4.86-4.97,13.07-8.42,19.26c-2.26,4.06-4.04,8.49-6.39,12.59
		c-0.72,1.26-2.52,1.89-1.21,4.19c1.05,1.85-2.68-0.16-2.64,2.14c0.05,3.02-1.73,5.61-3.18,8.03c-3.61,6-5.97,12.42-7.88,19.09
		c-0.64,2.25-1.49,4.66-5.21,3.11c2.16,3.18,1.9,6.87-0.12,8.68c-3.24,2.91-6.92,3.13-9.94,0.89
		c-14.23-10.56-21.49-25.08-24.94-42.13c-1.08-5.37-0.44-9.81,1.76-14.57c2.97-6.45,3.59-13.55,4.32-20.47
		c0.62-5.86-1.08-11.57-3.67-16.95c-0.77-1.59-1.03-3.42-1.52-5.15c-4.9,1.85-3.3-5.31-7.2-4.98c8.33,2.07,16.63,3.89,23.99,8.96
		c-3.23-9.49-10.21-15.91-16.54-22.27C774.23,285.95,764.85,282.96,755.21,280.8z"/>
	<path class="st0" d="M590.23,803.38c-4.35-6.47-8.38-13.44-11.12-21.07c-0.3-0.85-1.42-1.91-0.38-3.16
		c0.33-0.4,0.37-1.66,0.08-1.86c-7.57-5.22-4.6-14.55-8.6-20.92c4.26-5.35,8.77-9.95,13.14-14.69c8.35-9.06,18.89-14.39,30-19.05
		c12.66-5.31,25.93-8.59,39.23-11.63c5.2-1.19,10.55-1.84,15.81-3.2c2.75,1.72,4.2,5.69,8.58,4.92c1.94-0.34,3.64-0.35,5.43-1.76
		c3.56-2.81,8.01-1.47,11.97-0.99c7.77,0.94,15.42,0.89,23.18,0c5.86-0.67,11.7-1.38,17.55-2.19c4.42-0.62,8.61-2.04,12.75-3.34
		c7.84-2.45,15.49-1.48,23.4-1.02c11.6,0.68,22.28,4.84,33.38,7.34c2.34,0.53,4.46,1.98,6.73,2.87c9.5,3.76,19.25,6.91,28.25,11.9
		c6.12,3.39,7.12,6.62,2.12,11.7c-5.46,5.55-10,11.75-14.79,17.82c-6.07,7.69-9.57,16.21-10.26,26.03
		c-5.92,2.22-11.68,0.11-17.49-0.8c-5.97-0.93-11.93-1.99-17.91-2.88c-3.84-0.58-7.76-1.28-11.59-2.08
		c-4.05-0.85-8.14-0.95-12.17-1.5c-20.59-2.83-41.35-2.42-62.06-2.01c-7.63,0.15-15.67,0.76-22.75,3.31
		c-12.27,4.43-25.11,6.41-37.43,10.48c-14.37,4.75-28.58,9.8-41.97,16.93C592.52,802.93,591.73,803.81,590.23,803.38z
		 M757.22,716.45c-1.73-1.36-3.57-0.72-5.39-0.35c1.82,0.72,3.67,0.69,5.52,0.23c-0.13,0.5-0.14,0.98,0.44,1.16
		c8.19,2.54,16.55,4.44,24.8,6.79c4.88,1.39,9.45,4.16,15.08,4.22c-1.14-1-2.08-1.48-3.16-1.89c-3.64-1.39-7.53-2.03-11.11-3.37
		C774.89,720.03,766.27,717.5,757.22,716.45z M760.17,732.5c-1.38-0.94-2.63-2.31-4.76-1.52c1.53,1.41,3.04,2.07,4.9,1.38
		c0.19,1.97,1.93,1.83,3.18,2.26c2.29,0.78,4.66,1.35,6.93,2.18c9.63,3.49,19.24,7.05,29.57,9.85c-0.96-1.46-1.59-2.67-2.76-2.83
		c-6.71-0.94-12.25-5.19-18.84-6.45C772.21,736.2,766.87,731.81,760.17,732.5z M695.8,731.86c14.51,9.12,30.08,16.18,46.45,21.5
		C726.82,746.18,712.17,737.31,695.8,731.86z"/>
	<path class="st0" d="M765.31,1386.21c4.8-3.28,8.16-7.88,11.39-12.18c6.87-9.14,14.49-17.69,20.77-27.29
		c7.23-11.03,13.37-22.52,17.62-35.04c1.36-3.99,3.68-7.66,5.6-11.45c2.7-5.32,5.29-10.7,7.24-16.35c0.36-1.05,0.95-1.65,1.82-2.4
		c8.83,5.61,17.51,11.37,26.42,16.73c8.07,4.85,15.98,9.97,24.07,14.78c4.68,2.78,9.3,6,13.87,9.13
		c8.06,5.52,16.43,10.59,24.68,15.83c2.15,1.36,4.11,2.97,6.24,4.37c4.81,3.16,4.71,3.5,2.17,11.61
		c-3.45,11.03-7.89,21.7-11.75,32.57c-4.47,12.59-9.78,24.83-15.48,36.91c-2.03,4.3-5.36,7.81-7.1,12.28
		c-1.08,2.76-3.84,2.3-5.59,1.69c-4.96-1.73-10.11-0.74-15.16-1.6c-8.53-1.45-16.87-3.26-25.21-5.61
		c-13.34-3.76-25.04-10.7-36.74-17.66c-7.83-4.66-15.18-10.13-22.87-15.03c-5.18-3.3-10.42-6.6-16.57-7.91
		C768.58,1389.11,766.76,1388.17,765.31,1386.21z"/>
	<path class="st0" d="M1004.38,791.63c7.36,10.29,12.05,21.54,17.77,32.18c3.14,5.83,5.5,12.21,8.75,18.11
		c1.01,1.83,2.75,2.67,3.88,4.21c5.9,8.08,13.17,14.88,20.7,21.34c3.79,3.25,8.3,5.76,12.76,8.09c2.4,1.25,4.13,3.15,5.83,4.9
		c5.12,5.27,11.27,9.82,14.97,16.14c2.23,3.82,5.78,6.52,7.6,10.74c0.88,2.05,4.22,3.37,5.45,5.97c3.86,8.16,7.89,16.2,10,25.13
		c1.03,4.35,2.2,8.56,1.81,13.03c-0.17,1.96,1.08,4.42-1.67,5.67c-0.18,0.08-0.34,0.67-0.23,0.89c2.55,5.17-2.19,8.05-3.85,11.82
		c-1.28,2.9-4.37,4.38-7.33,3.63c-5.3-1.35-10.83-1.04-16.06-3.61c-5.6-2.75-12.03-3.64-17.6-6.93c-1.87-1.11-4.82-0.44-7.14-1.36
		c-2.26-0.9-4.73-1.39-6.26-3.61c-0.55-0.8-1.38-1.33-2.52-1.36c-5.87-0.13-10.82-3.31-16.24-4.91c-8.44-2.48-16.14-6.76-24.48-9.57
		c-5.42-1.82-10.8-4.4-15.97-7.17c-2.98-1.6-6.62-1.28-9.92-2.26c-5.6-1.67-5.1-1.49-5.8-7.21c-1.41-11.51,2.54-21.99,5.61-32.57
		c2.3-7.94,3.72-16.09,6.34-23.95c1.05-3.15,0.05-6.82,1.1-10.25c2.75-8.99,1.32-18.37,2.27-27.5c0.95-9.11-0.01-18.42,2.71-27.39
		c0.94-3.12,2.7-5.91,3.21-9.2C1000.4,792.54,1002.63,792.38,1004.38,791.63z"/>
	<path class="st0" d="M718.58,1660.65c-0.97-2.32-0.01-4.1,0.19-6c0.6-5.71,1.47-11.37,2.21-17.06c1.32-10.15,1.55-20.38,2.29-30.55
		c0.62-8.46,0.51-16.88,0.63-25.31c0.06-4.48,1.03-8.88,1-13.29c-0.1-13.64-1.23-27.16-4.65-40.47c-2.95-11.49-5.33-23.12-8-34.87
		c4.17-2.15,7.66,1.2,11.46,1.92c10.23,1.92,20.45,4,30.52,6.64c10.21,2.68,20.35,5.61,30.22,9.54c7.97,3.17,14.94,7.97,22.47,11.83
		c0.29,0.15,0.65,0.27,0.84,0.51c5.92,7.46,15.09,11.02,21.38,18.2c7.93,9.06,8.34,8.87,0.44,17.65c-3.68,4.1-7.15,8.36-10.7,12.56
		c-11.41,13.51-24.03,25.91-37.42,37.42c-17.23,14.82-34.39,29.75-52.45,43.58C725.72,1655.48,722.77,1658.5,718.58,1660.65z"/>
	<path class="st0" d="M815.34,678.89c11.21,0.32,22.36,3.4,33.79,2.36c-4.91-1.66-9.87-2.85-14.97-3.82
		c-5.38-1.02-10.84-1-16.14-1.34c-5.43-0.35-11.14,0.56-16.74,0.52c-1.57-0.01-3.37,0.68-4.95-1.31c2.46-3.28,4.32-7.08,6.31-10.81
		c7.57-14.18,12.24-29.41,15.06-45.08c1.29-7.18,1.77-14.61,3.4-21.76c1.71-7.49,4.26-14.79,10.45-19.95
		c1.53,0.18,1.98,1.13,2.53,2.23c2.76,5.54,7.8,8.83,12.78,11.93c3.87,2.41,5.96,5.93,8.09,9.62c6.55,11.34,14.29,21.74,25,29.46
		c3.78,2.72,8.22,4.62,12.88,6.23c0.42,11.17,1.05,22.52-2.1,33.38c-2.13,7.34-5.25,14.47-11.09,20.15
		c-4.18,4.07-7.34,9.13-9.89,14.5c-2.02,4.27-2.39,4.1-6.41,1.41c-5-3.35-10.14-6.54-15.42-9.43c-7.97-4.36-16.11-8.4-24.2-12.56
		c-1.89-0.97-3.94-1.49-5.95-2.13C816.45,682.06,814.27,681.64,815.34,678.89z M845.25,625.33c4.32,5.56,9.14,10.54,15.29,14
		C855.69,634.38,851.56,628.65,845.25,625.33z"/>
	<path class="st0" d="M635.55,535.95c-17.93,16.71-34.03,34.13-39.59,59.7c-7.56,3.34-16.31,6.23-25.43,8.02
		c-11.89,2.34-23.96,3.41-35.93,5.14c-11.92,1.72-23.79,4.01-35.4,7.3c-1.41,0.4-2.46,0.8-3.54-0.38c-1.37-1.51,0.78-1.78,0.88-2.45
		c1.18-7.83,7.01-12.74,11.7-18.13c10.37-11.93,23.45-20.54,37.59-27.29c7.89-3.77,16.38-6.31,24.69-9.15
		c8.76-2.99,16.86-6.86,22.43-14.72c5.24,6.67,3.2,21.05-0.46,26.34c0.67,1.22,1.48,1.81,2.7,0.61c0.83-0.82,2.1-1.53,2.37-2.51
		c1.82-6.72,8.11-9.21,12.67-13.16c2.45-2.12,5-4.19,6.66-6.8c2.56-4.02,6.47-6.93,8.48-11.41
		C626.78,533.96,630.64,533.82,635.55,535.95z"/>
	<path class="st0" d="M715.84,507.92c-3.96,6.5-7.41,12.97-11.69,18.85c-2.51,3.45-4.64,7.12-6.97,10.65
		c-1.29,1.95-2.77,3.37-4.74,4c-16.83,5.36-31.36,15.04-45.96,24.53c-3.82,2.49-6.87,6.16-10.68,8.68
		c-8.43,5.57-17.45,10.1-26.55,14.49c-3.16,1.52-6.22,3.18-10.14,4.75c3.05-8.39,6.31-15.82,10.84-22.81
		c5.49-8.48,11.88-16.16,19.08-23.13c5.71-5.54,11.3-11.23,18.25-15.47c4.42-2.69,8.25-6.39,12.65-9.23
		c9.34-6.03,18.99-11.41,29.79-14.39c0.16-0.04,0.32-0.11,0.48-0.1C698.61,509.4,706.92,506.83,715.84,507.92z"/>
	<path class="st0" d="M724.91,1281.12c1.11-3.01,2.15-5.73,3.11-8.47c0.8-2.28,2.18-2.68,4.51-2.16c3.99,0.89,7.8,2.31,11.58,3.76
		c1.85,0.71,3.68,1.24,5.59,1.68c3.07,0.7,5.82-1.04,6.27-4.13c1.57-10.79,4.48-21.32,6.54-32.01c0.55-2.83-0.01-5.62,0.73-8.66
		c5.49,1.58,8.64,6.11,12.74,9.96c-2.05,3.83-1.15,8.19-1.73,12.37c-1.22,8.74-1.8,17.57-3.17,26.33c-0.98,6.24-0.43,6.47,5.99,9.42
		c2.94,1.35,5.66,3.19,8.59,4.87c0.74,3.46,2.1,6.9,0.48,10.84c-1.43,3.48-2.55,4.55-5.95,3.29c-1.22-0.45-2.44-0.99-3.51-1.72
		c-2.76-1.89-5.74-2.3-9.17-1.65c-2.21,5.65-3.05,11.77-4.5,17.72c-1.32,5.43-2.88,6.33-7.86,3.53c-3.13-1.76-7.35-1.83-9.15-5.89
		c-0.56-1.26-0.98-2.1-0.58-3.58c1.52-5.65,2.55-11.43,4.21-17.03c0.59-1.99,0.01-3.63-1.01-4.45c-2.77-2.22-5.36-5.25-8.79-6.02
		C734.13,1287.84,729.76,1284.65,724.91,1281.12z"/>
	<path class="st0" d="M531.59,1349.78c18.91-11.21,38.03-21.58,53.81-37.85c1.6,5.43-0.48,9.87-0.69,14.34
		c-0.14,2.87-0.88,5.86-0.63,8.78c0.28,3.39-0.86,6.51-1.31,9.74c-0.63,4.48-3.02,5.53-7.86,4.72c-9.83-1.64-19.68-1.4-29.54-0.14
		C540.8,1349.96,536.19,1349.07,531.59,1349.78z"/>
	<path class="st0" d="M666.81,516.01c-1.24,0.61-1.89,1.75-3.19,1.44C663.71,515.69,664.76,515.51,666.81,516.01z"/>
</g>
</svg>
