<?xml version="1.0" encoding="utf-8"?>
<!-- Generator: Adobe Illustrator 23.1.0, SVG Export Plug-In . SVG Version: 6.00 Build 0)  -->
<svg version="1.1" id="Layer_1" xmlns="http://www.w3.org/2000/svg" xmlns:xlink="http://www.w3.org/1999/xlink" x="0px" y="0px"
	 viewBox="0 0 273.05 493" style="enable-background:new 0 0 273.05 493;" xml:space="preserve">
<g>
	<path d="M154.9,0c10,0,20,0,30,0c1.17,0.33,2.32,0.85,3.51,0.96c2.9,0.27,5.74,0.61,8.35,2.39c-3.72,1.21-7.18,2.33-10.65,3.46
		c0,0.39,0,0.78,0,1.16c3.42,0.89,6.85,1.78,9.26,2.41c-0.81,0.97-2.03,2.44-3.68,4.43c2.95,0.16,4.9,0.27,7.24,0.39
		c-0.14,2.01-0.25,3.71-0.37,5.45c2.73,1.33,3.18,1.97,3.35,5.01c0.3,5.46,0.01,10.82-3.2,15.69c2.53,1.05,4.75,1.98,7.76,3.24
		c-2.28,1.8-3.99,3.14-5.32,4.19c0,2.45,0,4.24,0,5.43c3.15,2.21,5.86,4.12,8.69,6.11c-0.79,0.6-1.21,0.93-1.7,1.3
		c0.52,0.49,0.88,0.83,1.24,1.18c0.73-0.55,1.39-1.05,2.51-1.89c-0.57,1.93-0.8,3.24-1.36,4.39c-0.48,0.99-1.34,1.8-2.32,3.06
		c0.08,0.22,0.38,1.11,0.45,1.31c-2.4,7.3-6.06,12.97-12.75,15.83c0.39,1.27,0.65,2.14,0.91,2.98c-1.99,1.12-4.83-0.57-5.5,1.52
		c0.37,3.55,0.65,6.28,0.93,9.03c0.86,0.45,1.55,0.89,2.3,1.19c6.18,2.48,12.37,4.96,18.57,7.39c0.75,0.29,1.62,0.35,2.43,0.36
		c4.07,0.04,8.14,0.02,12.22,0.02c0.26,0.19,0.53,0.38,0.79,0.57c-1.3,0.43-2.59,0.87-3.89,1.3c0.33,0.25,0.66,0.49,0.99,0.74
		c1.99,0.51,3.98,1.02,5.88,1.51c-0.41,2.37,0.62,3.81,2,4.96c2.1,1.74,3.39,3.92,4.26,6.46c0.97,2.84,2.08,5.64,3.12,8.46
		c0,4.33,0,8.67,0,13c-0.69,2.08-0.99,4.44-2.17,6.19c-2.15,3.19-1.69,6.62-1.86,10.06c-0.25,5.1-0.54,10.2-1.05,15.28
		c-0.26,2.6-1.04,5.16-1.69,8.23c-2.45,3.37-5.28,7.27-8.14,11.19c0.6,3.58,1.41,7.19,1.74,10.84c0.33,3.6,0.16,7.24,0.23,11.65
		c-0.05,0.11-0.58,1.1-1.06,2.12c-2.7,5.73-3.98,12.11-7.93,17.28c-0.56,0.74-0.85,1.77-1.03,2.72c-0.85,4.48-1.62,8.97-2.38,13.24
		c-4.94,3.38-9.65,6.61-14.67,10.05c-3.94,0.48-8.3,1.02-12.64,1.55c0.53,2.51,0.97,4.91,1.54,7.29c0.99,4.1,2.36,8.14,3.01,12.29
		c0.96,6.15,1.17,12.42,2.18,18.56c1.49,9.06,2.85,18.1,1.9,27.31c-0.42,4.12,1.6,6.92,4.8,9.11c2.92,2,5.56,4.15,7.24,7.48
		c3.58,7.12,6.42,13.99,0.69,21.51c-2.38,3.13-0.7,7.9,2.77,9.81c0.34-0.73,0.68-1.46,1.15-2.47c0.35,1.89,0.4,3.42,0.93,4.76
		c2.93,7.38,6.03,14.68,8.96,22.06c1.22,3.06,3.14,5.24,6.3,6.29c1.04,0.35,2.04,0.8,3.05,1.2c0.38,5.78,0.85,11.36,1.08,16.96
		c0.22,5.27-1.53,10.39-4.62,14.22c-3.66,4.54-5.79,9.85-9.2,14.46c-5.22,0.47-5.06,6.22-7.82,8.33c-1.49-1.34-2.84-2.56-4.26-3.83
		c-0.77,0.85-1.25,1.39-1.81,2c-4.43-3.46-9.89-4.95-14.34-8.53c-3-2.42-5.65-5.21-8.66-7.6c-1.01-0.8-1.6-2.48-1.85-3.85
		c-0.65-3.6-1.05-7.22-3.92-9.92c-0.21-0.2-0.46-0.68-0.36-0.86c1.66-3.2-0.59-5.9-1-8.84c-0.58-4.16,0.26-8.2,2.38-11.83
		c0.93-1.59,2.47-2.83,3.53-4.01c-1.41-3.29-2.62-6.11-3.63-8.46c-1.72-0.46-3.09-0.48-4-1.14c-2.39-1.73-4.52-3.83-6.86-5.63
		c-5.09-3.9-5.48-8.96-4.01-13.61c-1.76-3.61-3.24-6.48-4.56-9.43c-0.79-1.77-2.04-3.75-1.81-5.46c0.47-3.5,1.57-6.97,2.84-10.29
		c1.18-3.09,0.98-5.83-0.76-8.52c-5.34-8.25-12.4-15.07-18.76-22.48c-0.15-0.17-0.61-0.06-0.96-0.08
		c-1.89,8.78-1.66,17.7-1.46,26.59c0.07,3.07,0.97,6.12,1.4,9.2c0.75,5.33,4.04,9.53,6.14,14.26c0.62,1.4,0.67,3.06,1.06,4.58
		s1.26,3.02,1.23,4.51c-0.08,3.45-0.54,6.89-0.92,10.33c-0.18,1.6-1.16,3.39-0.69,4.71c1.22,3.41-0.32,6.43-0.85,9.51
		c-0.74,4.3-2.52,8.42-3.38,12.71c-0.86,4.32-3.45,8.39-2.11,13.07c-2.4,2.05-1.44,5.02-2.15,7.53c-1.63,5.77-0.83,11.58-0.58,17.32
		c0.14,3.22,2.05,6.4,3.33,9.52c3.18,7.74,5.15,15.54,1.82,24.35c-4.84,0.29-9.83,0.59-14.92,0.9c0.73,0.8,1.14,1.25,1.55,1.7
		c-1.67,0-3.33,0-5,0c-3.67-1-7.33-2.04-11.02-2.97c-0.78-0.2-1.72-0.2-2.48,0.03c-6.2,1.9-12.54,0.85-18.8,0.8
		c-3.49-0.03-6.98-1.4-10.37-2.14c0.11-0.66,0.26-1.11,0.25-1.57c-0.11-3.61-1.12-7.09,0.22-10.85c3.19-8.91,6.86-17.22,15.09-22.88
		c3.28-2.25,6.17-3.93,10.19-2.54c0.8,0.28,1.84-0.16,2.78-0.27c-0.19-2.79-0.35-5.27-0.52-7.75c-1.51-6.7-4.06-13.22-4.52-20.26
		c-0.91-1.16-2.74-2.5-2.55-3.44c0.67-3.27-1.15-5.95-1.76-8.79c-2.31-10.68-2.22-21.2,0.2-31.79c0.76-3.32,2.62-6.95,1.89-9.93
		c-1.08-4.41,0.7-8.68-0.54-12.92c-0.3-1.03-0.14-2.42,0.33-3.39c0.9-1.87,0.56-3.4-0.25-5.17c-0.66-1.45-0.61-3.22-1.2-4.72
		c-1.87-4.8-3.42-9.77-6.53-13.87c0.1-0.78,0.57-1.77,0.25-2.24c-4-5.87-5.05-13.06-9.51-18.93c-4.12-5.42-6.48-12.29-9.04-18.74
		c-2.09-5.26-3.84-10.76-4.85-16.31c-1.54-8.43-4.49-16.61-2.49-25.65c1.6-7.22,5.54-19.03,10.88-26.06
		c4.46-5.88,9.45-10.89,16.43-13.71c2.46-0.99,4.71-2.48,7.59-4.03c-6.55-3.3-12.94-3.69-19.12-4.89
		c-4.08,1.78-8.81,0.29-12.86,2.81c-1.3,0.81-2.15,2.33-3.14,2.63c-5.16,1.56-8.37,6.03-12.99,8.25c-4.8,2.3-8.09,6.01-11.11,10.22
		c-2,2.78-4.59,5.14-6.67,7.87c-2.17,2.84-4.52,5.7-5.96,8.92c-3.45,7.68-8.07,15.03-8.53,23.76c-0.26,4.96-1.02,10.17,0.12,14.87
		c1.6,6.59,5.16,12.6,8.86,18.37c0.97,1.51,2.33,1.87,3.95,2.01c6.43,0.55,12.82,0.79,18.36-1.41c2.01,0.68,3.5,1.23,5.01,1.68
		c2.23,0.66,5.21,0.57,6.56,2.02c3.05,3.28,7.4,4.46,10.6,7.8c-0.43,0.93-0.95,2.04-1.55,3.32c1.75,3.82,3.63,7.9,5.66,12.32
		c-0.24,1.01-0.37,2.52-0.95,3.82c-0.59,1.3-1.46,2.62-2.56,3.5c-0.68,0.54-2.01,0.26-3.04,0.38c-0.79,0.09-1.56,0.28-2.35,0.36
		c-4.56,0.5-9.12,1-13.69,1.47c-0.49,0.05-1.12,0.14-1.47-0.1c-1.57-1.06-2.95-0.96-4.63-0.08c-0.91,0.48-2.3,0.24-3.44,0.07
		c-4.69-0.69-9.36-1.48-14.47-2.3c-4.14-4.02-10.83-5.52-14.45-11.26c-0.69-0.15-1.54-0.19-2.27-0.51c-4.08-1.76-5.2-6.02-7.48-9.25
		c-1.57-2.23-2.26-5.06-3.61-7.47c-1.68-3-3-5.98-3.63-9.46c-0.77-4.18-1.19-8.5-2.21-12.51c-0.93-3.64,0.95-7.07-0.54-10.42
		c2.39-7.42,3.47-15.15,5.56-22.68c2.92-10.52,7.43-20.08,13.11-29.16c1.6-2.56,2.98-5.41,5.85-7.38c2.67-1.84,4.38-5.08,6.82-8.1
		c-2.04-0.26-3.48-0.45-5.03-0.65c4.39-2.96,8.34-6.67,13.03-8.49c5.37-2.09,9.4-6.48,15.08-8.01c-1.33-0.17-2.67-0.33-5.18-0.64
		c5.8-1.94,10.46-3.5,15.02-5.02c-0.43-0.69-0.85-1.34-1.95-3.08c3.37,1.48,5.62,2.42,7.48-0.26c0.35-0.5,1.9-0.29,2.88-0.21
		c3.93,0.29,7.86,0.68,11.8,0.97c4.93,0.37,9.86,0.68,14.79,1.04c0.49,0.04,1,0.14,1.44,0.34c4.13,1.87,8.34,3.6,12.34,5.72
		c3.14,1.67,6.02,3.83,9.11,5.84c2.85-3.07,1.48-6.86,1.73-10.34c0.22-3.03,0.03-5.84-3.28-7.55c-1.15-0.59-1.98-2.23-2.49-3.56
		c-1.35-3.51-3.83-5.97-6.81-8.05c0.52-0.36,1.04-0.72,1.61-1.12c-0.71-3.06-4.96-1.77-5.28-3.58c-0.5-2.9-3.1-3.16-4.25-4.95
		c-1.14-1.77-4.72-1.32-4.12-4.59c-1.65-0.14-3.36-0.04-4.92-0.47c-10.17-2.84-20.12-6.28-29.7-10.76c-2.4-1.12-4.27-2.78-5.89-5.03
		c-1.68-2.34-4.14-4.16-6.38-6.05c-3.76-3.17-7.82-6.02-11.4-9.38c-3.94-3.69-7.47-7.81-14.1-9.23c3.72-1.87,6.47-3.25,8.98-4.51
		c-1.19-3.46-2.17-6.29-3.44-9.97c2.97,0.52,4.96,0.87,7.61,1.33c-1.38-1.75-2.33-2.96-3.28-4.17c3.13-2.47,3.13-2.47,5.54-0.44
		c3.82-5.03,7.01-10.64,13.01-13.61c0.58-0.28,1.08-0.79,1.5-1.3c4.04-4.8,8.98-8.63,11.99-14.56c2.65-5.21,7.42-9.35,11.01-13.66
		c3.08-0.51,5.66-1.25,8.25-1.29c7.34-0.12,14.19-2.01,20.78-5.06c2.2-1.02,4.22-1.43,6.58-0.26c2.31,1.14,4.86,1.8,7.24,2.64
		c2.77,5.32-0.08,10.41-0.18,14.9c0.59,1.46,0.96,2.37,1.69,4.19c-1.79-1.57-2.78-2.44-3.72-3.26c-1.32,0.73-2.53,1.4-3.58,1.98
		c-3.21-1.57-3.74-4.13-2.98-7.6c-1.98,1.24-3.32,2.08-4.31,2.7c1.68,6.39,9.97,6.19,11.03,13.05c2.35-2.41,4.34-4.43,6.31-6.47
		c0.22-0.23,0.41-0.56,0.46-0.86c0.53-2.86,1.41-5.72,1.42-8.58c0.01-2.54-1.33-5.07-1.42-7.62c-0.15-4.05-2.78-6.87-4.24-10.27
		c-0.65-1.53-1.42-2.48-3.18-2.62c-0.63-0.05-1.2-0.81-2.06-1.43c3.11,0,5.8,0,8.87,0c1.01-3.53,2.12-7.39,3.14-10.97
		c3.11-1.13,6.16-3.98,8.72-5.42c2.57-1.45,4.13-3.85,6.51-5.48c2.8-1.91,5.24-4.18,8.64-5.06C154.25,1.41,154.53,0.53,154.9,0z
		 M140.26,95.12c-3.78-1.81-7.58-2.75-9.56-6.56c-0.78-1.49-2.43-2.51-3.38-3.94c-2.68-4.02-6.69-7.18-7.79-12.27
		c-0.27-1.27-1.49-2.33-2.53-3.88c-2.87,3.72-5.64,2.73-8.44,0.7c-0.79-0.57-1.81-0.89-2.44-1.59c-2.03-2.22-4.45-1.68-6.91-1.25
		c-2.9,0.5-5.81,0.97-9.63,1.61c-0.14,0.86-0.56,2.52-0.65,4.2c-0.15,3.1,0.41,6.29-1.63,9.07c-0.35,0.48-0.38,1.26-0.38,1.91
		c-0.03,7.54-2.89,13.97-8.06,19.74c3.83,1.62,7.29,2.68,11.03,3.33c6.99,1.23,13.67,2.03,19.6-3.03c0.6-0.51,1.47-0.7,2.18-1.1
		c1.45-0.82,2.88-1.69,4.75-2.79c2.9,0.54,6.24,1.46,10.17,1c5.06-0.59,10.34,0.7,16.3,1.26c0.8-1.44,1.96-3.52,3.03-5.45
		C144.42,92.71,142.3,94.48,140.26,95.12z M188.1,221.87c-3.01,1.84-3.98,5.84-2.16,9.92c1.32,0.25,2.75,0.52,3.95,0.74
		c1.26,1.45,2.34,2.68,4.09,4.69C191.74,231.38,189.92,226.61,188.1,221.87z"/>
</g>
</svg>
