<?xml version="1.0" encoding="utf-8"?>
<!-- Generator: Adobe Illustrator 23.1.0, SVG Export Plug-In . SVG Version: 6.00 Build 0)  -->
<svg version="1.1" id="Layer_1" xmlns="http://www.w3.org/2000/svg" xmlns:xlink="http://www.w3.org/1999/xlink" x="0px" y="0px"
	 width="354.09" height="476" viewBox="0 0 354.09 476" style="enable-background:new 0 0 354.09 476;" xml:space="preserve">
<g>
	<path d="M303,476c-0.67,0-1.33,0-2,0c-0.33-0.32-0.63-0.87-1-0.92c-3.41-0.41-6.83-0.7-10.24-1.09c-6.33-0.72-12.24-2.29-15.66-8.4
		c-1.99-3.56-4.88-6.3-8.37-8.13c-3.26-1.71-4.13-4.58-4.66-7.58c-0.71-4.02-1.08-8.03-2.96-11.79c-1.3-2.6-2.79-5.43-2.93-8.23
		c-0.37-7.15-5.31-12.61-6.5-19.39c-0.12-0.69-1.03-1.26-1.6-1.85c-0.87-0.9-1.79-1.74-2.64-2.66c-2.75-2.96-5.23-6.22-8.26-8.85
		c-7.92-6.88-13.28-15.25-15.82-25.41c-0.39-1.58-0.2-3.3-0.49-4.92c-1.27-7.16-3.02-14.09-2.12-21.68
		c1.23-10.37-2.73-19.54-10.18-27.06c-1.14-1.15-2.05-2.54-2.98-3.88c-4.65-6.72-7.71-14.21-10.91-21.68
		c-2.35-5.48-5.4-10.66-8.35-16.39c-0.88,3.25-1.88,5.87-2.28,8.58c-1.15,7.77-1.95,15.58-3.09,23.35
		c-1.22,8.37-2.72,16.68-6.98,24.22c-0.68,1.21-0.78,2.79-0.99,4.22c-0.83,5.79,1.52,10.99,3.36,16.2
		c2.83,8.02,2.48,16.18,1.46,24.32c-0.5,3.99-2.28,7.8-3.12,11.76c-0.81,3.82-1.62,7.75-1.6,11.62c0.03,5.08,0.87,10.15,1.38,15.46
		c2.86,2.73,3.73,6.36,2.51,10.32c-1.66,5.4-0.89,10.74,0.11,16.06c0.91,4.84-0.29,7.96-4.16,10.84c-2.17,1.62-4.35,3.37-6.03,5.47
		c-2.41,3.02-4.32,6.45-6.56,9.62c-0.71,1-1.67,1.93-2.72,2.55c-3.17,1.86-6.43,3.55-9.66,5.31c-7,0-14,0-21,0
		c-0.09-0.6-0.17-1.2-0.32-2.24c-5.98,0.34-11.68,0.67-17.15,0.98c-0.52-1.12-0.9-1.95-1.31-2.84c-2.07,0-3.88,0-5.52,0
		c-1.1-1.25-1.99-2.26-2.77-3.14c1.25-2.03,2.47-3.68,3.35-5.5c2.71-5.58,5.25-11.25,7.98-16.82c0.71-1.44,1.7-2.85,2.88-3.94
		c1.67-1.55,3.63-2.79,5.37-4.09c2.95-0.48,5.93-0.68,8.74-1.46c7.74-2.16,13.39-6.67,15.16-14.92c0.31-1.46-0.62-3.27-0.11-4.58
		c2.42-6.24,0.26-12.26-1.74-17.72c-2.13-5.79-3.09-11.88-5.4-17.59c-1.15-2.83-1.87-5.97-2.06-9.02
		c-0.45-7.09-0.2-14.19,1.97-21.05c1.39-4.39,1.63-8.67-0.45-12.94c-0.41-0.85-0.65-1.91-0.58-2.85c0.36-4.76-0.91-9.59,0.79-14.32
		c0.37-1.01-0.41-2.5-0.8-3.72c-0.92-2.88-2.7-5.73-2.71-8.6c-0.01-3.37-1.44-5.73-2.98-8.12c0.25-0.69,0.47-1.29,0.66-1.82
		c-1.09-1.24-2.07-2.36-3.18-3.61c0.29-1.76,0.57-3.51,0.87-5.36c-3.48-7.11-1.15-15.01-2.02-22.83c-1.2,0.47-2.16,0.7-2.97,1.18
		c-3.22,1.92-6.4,3.92-9.59,5.9c-0.55,0.34-1.18,0.62-1.63,1.07c-4.53,4.63-10.23,7.56-15.58,11.04
		c-6.54,4.25-12.28,9.56-15.74,16.66c-1.68,3.44-1.87,7.58-3.25,11.2c-2.11,5.51,0.25,9.67,2.98,14.16c2.25,3.7,6.3,5.31,8.25,8.5
		c2.53,0.5,4.61,0.91,6.62,1.3c1.5-0.67,3.1-1.12,4.38-2.04c1.13-0.81,2.29-1.99,2.75-3.25c0.94-2.58,1.86-5.31,2-8.02
		c0.27-5.38,3.1-9.14,6.67-12.7c2.92-2.91,6.71-3.65,10.4-3.62c2.36,0.02,4.71,1.75,6.45,2.46c-0.18,3.78-0.33,6.75-0.48,9.86
		c1.16-0.23,1.77-0.35,2.41-0.48c0,1.34-0.06,2.55,0.02,3.75c0.12,1.82,0.76,3.71,0.44,5.43c-0.73,3.81-1.9,7.48-4.27,10.75
		c-1.36,1.88-4.24,3.33-2.9,6.54c0.09,0.22-0.54,0.78-0.89,1.13c-1.93,1.94-3.67,4.14-5.86,5.73c-5.48,3.98-11.6,6.9-18.39,7.45
		c-10.78,0.88-21.39-0.34-30.77-6.17c-3.34-2.08-5.79-5.61-8.62-8.5c-0.18-0.19-0.06-0.65-0.15-0.97
		c-2.14-7.01-3.73-14.13-5.25-21.31c-1.26-5.97,0.74-11.43,0.38-17.15c-0.15-2.39,0.34-4.97,1.18-7.23
		c1.89-5.04,4.46-9.79,7.06-14.52c3.31-6.03,8.93-9.71,13.89-14.03c3.68-3.21,7.83-5.89,11.89-8.62
		c5.27-3.55,10.52-7.15,16.02-10.31c4.35-2.49,9.08-4.31,13.61-6.51c0.71-0.34,1.21-1.12,1.8-1.71c2.08-2.06,4.03-4.28,6.31-6.09
		c0.89-0.7,2.53-0.45,4.01-0.66c0.66-2.05,1.37-4.38,2.15-6.68c2.03-6.01,3.99-12.04,6.19-17.98c0.89-2.41,3.08-4.53,3.38-6.94
		c0.75-6.08,4.32-10.84,6.68-16.15c1.33-2.98,2.61-6.13,4.64-8.62c2.87-3.52,4.8-7.17,5.69-11.69c0.65-3.32,0.05-5.8-2.12-8.1
		c-1.03-1.09-2.17-2.07-2.84-2.71c-2.02-6.17-3.13-12.06-6.21-17.98c-4.88,3.69-9.14,7.27-13.75,10.3
		c-4.96,3.26-9.86,6.6-14.74,9.98c-4.06,2.81-8.4,5.34-10.49,10.32c-0.9,2.14-2.64,3.93-4.1,6.02c-3.37-3.51-6.67-1.34-8.74-0.34
		c-5.9-0.61-10.6-1.34-15.31-1.51c-4.13-0.14-8.14-0.14-12.02-2.04c-4.65-2.28-10.04-3.01-14.12-6.47
		c-3.77-3.2-8.02-4.89-12.94-4.53c-5.28,0.39-8.97-1.51-10.48-6.66c-3.86-0.72-5.65-1.93-8.25-5.21c-0.45-0.56-1.63-1.26-2.01-1.05
		c-3.01,1.64-5.62-0.18-8.25-0.48c-0.49-1.15-0.87-2.03-1.21-2.81c1.76-2.87,5.15-4.73,4.65-8.96C8.65,140.19,4.33,138.46,0,137
		c0-0.67,0-1.33,0-2c1.65-2.57,3.58-5.01,4.88-7.74c2.05-4.31,5.19-7.02,9.78-8.12c1.95-0.47,3.92-0.91,6.13-1.42
		c-5.26-4-6.55-5.82-8.69-12c1.32-0.93,2.63-1.86,3.45-2.44c4.73,0,9.16-0.91,12.97,0.23c4.72,1.41,8.94,4.51,12.34,6.32
		c6.95,9.42,14.12,17.32,18.27,27.63c5.41-0.5,10.34-0.8,15.21-1.46c5.38-0.74,10.65-1.56,16.09-0.06c4.15,1.15,6.22-0.24,8.64-4.19
		c1.19-1.94,2.53-3.91,4.2-5.42c2.66-2.4,5.68-4.42,8.52-6.62c4.21-3.26,9.42-5.29,12.28-10.22c0.65-1.11,1.8-1.96,2.8-2.84
		c4.27-3.75,7.2-8.45,9.99-13.86c5.48-1.07,11.28-2.21,18.24-3.58c-5.31-3.67-10.36-3.71-14.11-4.25c-2.83-1.55-4.76-2.6-6.75-3.68
		c0.06-1.33,0.14-2.94,0.23-4.67c-4.54-1.73-10.08,1.32-13.69-3.62c1.41-1.57,2.72-3.03,4.14-4.61c-0.17-0.64-0.36-1.37-0.53-2.05
		c0.92-1.16,1.83-2.28,2.93-3.66c-2.52-1.19-4.67-2.21-6.78-3.21c0.24-0.29,0.61-0.73,1.02-1.23c-1.26-0.21-2.36-0.4-4.04-0.69
		c1.2-2.73,2.24-5.08,3.41-7.74c-1.17-1.34-1.24-2.98,0.01-4.67c1.26-1.7,2.21-3.67,3.67-5.17c2.25-2.32,3.61-4.99,4.41-7.87
		c-0.27-0.51-0.35-0.94-0.59-1.06c-0.85-0.43-1.79-0.69-2.64-1.12c-2.1-1.06-2.38-2.61-0.82-4.37c0.44-0.49,0.9-1.06,1.48-1.33
		c5.44-2.49,7.91-8.38,12.98-11.32c0.64-0.37,0.69-1.74,1.02-2.65c6.5-2.24,12.88-4.69,19.42-6.59c3.39-0.98,7.16-1.69,10.57-1.21
		c2.77,0.39,5.34,0.29,8.39,0.56c-0.82-1.36-1.33-2.18-1.83-3c1.33,0,2.67,0,4,0c2.2,1.47,5.31,1.51,6.69,4.29
		c1.28,2.59,2.6,5.16,4.26,8.44c1.11-2.18,1.88-3.7,2.71-5.35c0.61,2.08,1.2,4.14,1.84,6.31c1.13-0.89,2.1-1.65,3.32-2.61
		c1.81,4.72,3.5,9.13,5.2,13.53c0.64,1.67,1.95,3.37,1.85,4.99c-0.33,5.44,3.16,8.25,6.76,11.03c-0.21,2.35-0.48,4.64-0.58,6.94
		c-0.03,0.76,0.19,2.05,0.63,2.22c1.82,0.71,1.28,2.16,1.3,3.37c0.12,5.88,2.44,10.75,6.54,14.88c1.84,1.85,3.58,3.81,5.63,6.01
		c4.6-0.26,9.66-0.52,14.12,2c2.98,1.68,6.07,2.19,9.59,2.06c0.37,3.6,2.17,6.37,4.16,9.04c3.19,4.29,6.28,8.64,7.19,12.8
		c9.39,8.74,16.98,17.99,27.43,23.92c3.08,0.24,6.16,0.48,9.12,0.71c-0.6,5.41-1.73,10.66-1.62,15.89
		c0.11,5.44-0.67,10.73-1.16,16.08c-0.48,5.26-1.07,10.51-1.62,15.8c-0.44,1.4-1.07,2.87-1.34,4.41c-0.77,4.31-0.76,8.87-2.22,12.91
		c-1.88,5.18-1.65,10.34-1.86,15.6c-0.1,2.42-0.45,4.93-1.25,7.2c-0.77,2.18-0.95,4.2-0.81,6.5c0.15,2.38,0.19,5.4-1.09,7.11
		c-2.57,3.42-4.3,7.69-8.31,9.92c-5.01,2.8-9.43,7.26-16.27,5.74c0.89-1.16,1.68-2.19,2.46-3.2c-0.35-0.74-0.69-1.46-1.09-2.31
		c-1.01-0.16-2.1-0.33-3.91-0.61c4.86-2.69,3.79-9.29,9.3-11.11c-1.32-0.21-2.43-0.16-3.24,0.36c-1.35,0.87-2.51,2.02-3.72,3.09
		c-5.42,4.79-11.5,5.33-16.64,1.58c0.54-1.4,1.46-2.74,1.54-4.14c0.27-4.69,3.03-7.3,6.84-9.4c2.12-1.17,4.07-2.71,5.95-4.26
		c1.6-1.31,1.86-2.95,0.37-5.03c-4.31,1.65-8.53,3.28-12.43,4.77c-5.27-0.5-7.99-4.05-10.62-7.99c3.17-2.54,6.73-3.82,10.67-4.58
		c3.23-0.63,7.07-0.66,8.57-4.6c1.68-4.41,4.63-7.5,9.24-8.98c0.52-2,1.34-3.87,1.43-5.77c0.37-7.25-0.06-14.39-3.66-20.98
		c-0.68-1.25-1.03-2.75-1.27-4.17c-0.58-3.38-1-6.78-1.46-9.95c-3.19-1.7-6.29-3.35-9.43-5.02c-0.3,0.37-0.89,0.75-0.88,1.12
		c0.08,3.47-1.67,6.26-3.16,9.19c-2.88,5.66-5.64,11.39-8.46,17.08c-2.32,4.67-4.47,9.43-7.04,13.95
		c-2.24,3.94-2.32,7.71-1.33,12.08c0.81,3.57,0.37,7.48,0.15,11.22c-0.13,2.25-1.48,4.51-1.27,6.67c0.55,5.73,0.99,11.5,2.28,17.15
		c1.58,6.91,5.03,13.06,7.77,19.48c5.22,12.25,9.05,24.8,10.95,38.02c0.83,5.74,0.8,11.78,3.64,17.14c0.22,0.41,0.26,0.98,0.2,1.45
		c-0.41,3.24-0.42,6.62-1.4,9.69c-2.3,7.23-0.83,14.11,0.71,21.18c0.72,3.28,3.47,4.69,4.8,7.31c3.49,6.85,7.33,13.52,10.72,20.41
		c1.49,3.03,2.43,6.38,3.23,9.68c0.77,3.19,0.8,6.57,1.58,9.76c1.45,6,3.14,11.94,4.86,17.87c1.72,5.93,3.05,12.02,7.4,16.86
		c0.78,0.87,0.79,2.43,1.13,3.67c0.26,0.93,0.28,1.99,0.74,2.8c3.86,6.68,9.02,11.44,17.28,11.8c4.08,0.18,7.99,1.22,10.84,4.43
		c1.84,2.07,3.46,4.34,5.13,6.57c3.9,5.2,5.96,11.08,6.35,17.6c-0.67,0.3-1.49,0.67-2.29,1.03c0.33,1.11,0.58,1.97,0.59,1.98
		c-2.09,2.53-3.71,4.5-4.78,5.79c-5.39,0-9.97,0-14.91,0C304.4,473.46,303.7,474.73,303,476z"/>
</g>
</svg>
