<?xml version="1.0" encoding="utf-8"?>
<!-- Generator: Adobe Illustrator 24.1.2, SVG Export Plug-In . SVG Version: 6.00 Build 0)  -->
<svg version="1.1" id="Layer_1" xmlns="http://www.w3.org/2000/svg" xmlns:xlink="http://www.w3.org/1999/xlink" x="0px" y="0px"
	 viewBox="0 0 1568.51 1687.77" style="enable-background:new 0 0 1568.51 1687.77;" xml:space="preserve">
<style type="text/css">
	.st0{fill:#1A1A1A;}
</style>
<g>
	<path d="M1106.56,1223.75c-3.96,3.59-3.06,8.41-2.97,12.39c0.24,11.24-2.74,21.65-6.08,32.14c-4.95,15.52-10.58,30.93-13.97,46.81
		c-2.81,13.17-3.09,26.93-3.02,40.51c0.01,2.3,0.84,4.6,0.82,6.9c-0.1,9.3,2.86,17.6,8.05,25.12c12.56,18.19,20.99,38.45,29.6,58.63
		c5.36,12.56,11.17,24.87,18.33,36.54c3.82,6.22,7.26,12.75,10.2,19.43c5.67,12.91,13.52,24.39,21.99,35.54
		c3.95,5.19,8.78,8.83,15.22,10.61c15.96,4.4,28.08,14.7,39.24,26.35c0.69,0.72,1.56,1.44,1.86,2.32
		c3.57,10.5,11.35,18.6,16.06,28.5c5.94,12.48,6.27,36.3-4.96,47.17c-4.27-1.93-4.59-8.2-10.33-9.4c-4.19,2.19-8.3,5.72-13.41,6.84
		c-2.57,5.15-2.62,11.83-8.69,13.96c-4.18-2.95,0.56-6.65-3.11-9.16c-0.38-0.07-1.46-0.64-2.22-0.36
		c-8.4,3.14-16.63,6.94-25.88,5.56c-4.76,5.34-7.21,11.56-10.82,17.71c-3.87-2.13-5.28-6.48-8.33-9.25
		c-3.42-3.11-6.3-4.65-11.42-3.63c-10.07,2.01-20.35,3.29-30.73,2.51c-4.26-0.32-8.52-0.57-13.32-0.89
		c-3.8,6.32-7.44,12.82-7.73,21.16c-4.51-0.82-3.72-5.18-6.34-6.56c-2.63-1.38-5.04-3.26-7.32-5.18c-4.76-4-10.22-4.52-16.01-3.56
		c-7.2,1.19-14.33,2.66-21.64,3.25c-10.5,0.85-20.43-0.67-30.21-4.64c-12.67-5.15-22.18-13.47-27.13-26.25
		c-1.4-3.61-4.05-5.99-5.99-9.02c-6.65-10.4-11.05-21.96-17.36-32.57c-3.13-5.26-3.73-11.98-3.59-18.39
		c0.25-11.32,0.15-22.65,0.76-33.95c0.55-10.13-3.01-19.69-3.27-29.7c-0.17-6.61-1.8-13.17-2.05-19.78
		c-0.53-13.77-5.63-26.59-7.83-40.01c-0.43-2.63-1.02-5.21-0.92-7.88c0.31-8.7-1.59-17.19-2.38-25.78
		c-0.18-1.94-0.88-3.91-1.73-5.68c-4.16-8.7-8.7-17.23-10.99-26.72c-0.82-3.4-3.75-5.43-6.08-7.78
		c-12.2-12.28-24.3-24.65-34.66-38.58c-0.2-0.27-0.45-0.5-0.62-0.78c-11.45-18.31-23.78-36.12-32.1-56.24
		c-2.71-6.56-4.51-13.16-4.15-20.34c0.57-11.3-2.56-22.41-0.9-34.7c-7.59,2.99-13.93,5.48-20.27,7.98
		c-2.43,0.96-3.56,2.92-3.98,5.34c-1.7,9.85-5.51,19.28-7.05,29.03c-1.64,10.34-1.43,21.15,7.71,29.32
		c5.96,5.32,11.21,11.42,17.07,16.86c6.25,5.79,9.56,12.83,9.32,21.21c-0.14,4.79,1.71,8.33,4.65,11.58
		c3.13,3.45,6.42,6.76,9.73,10.05c11.76,11.68,16.02,25.64,13.14,41.94c-1.73,9.8-2.46,19.75-4.87,29.47
		c-2.05,8.23-6.72,13.63-14.85,15.86c-16.97,4.66-29.79,15.83-42.57,27.03c-7.81,6.85-13.96,15.16-20.09,23.48
		c-4.01,5.45-6.07,11.82-8.31,18.07c-4.82,13.51-7.26,27.64-10.59,41.53c-4.26,17.78-8.08,35.69-15.44,52.57
		c-3.61,8.27-7.96,16.11-13.13,23.49c-8.27,11.79-20.53,16.37-34.08,18.31c-3.97,0.57-7.88-0.47-11.78-1.6
		c-8.93-2.58-17.99-4.71-26.97-7.09c-9.43-2.5-18.44-1.41-27.06,3.03c-6.8,3.5-13.78,6.62-19.96,11.29
		c-8.33,6.3-18.36,7.78-28.33,8.28c-13.25,0.66-26.41,2.46-39.79,2.16c-7.4-0.17-15.11,1.68-22.67,2.73
		c-10.11,1.4-19.95,0.7-29.17-3.73c-3.03-1.46-5.7-1.55-8.6-0.68c-5.18,1.56-10.49,1.62-15.82,1.73
		c-6.89,0.15-13.76-0.73-20.65,1.64c-3.52,1.22-7.94,0.28-11.88-0.23c-6.76-0.87-13.17-0.36-19.42,2.59
		c-3.32,1.57-6.71,2.98-9.47-1.5c-1.15-1.87-3.79-0.86-5.61-0.26c-4.37,1.44-8.65,3.16-12.84,4.72c-2.74-1.28-2.81-3.61-2.82-6.01
		c-0.03-8.19,2.68-15.71,5.93-23.01c5.36-12.04,13.15-22.41,23.2-30.88c3.85-3.24,6.35-6.74,6.6-11.68
		c0.79-15.22,10.8-23.58,22.61-30.62c20.32-12.11,42.16-21.05,63.81-30.33c9.16-3.92,18.55-7.42,28.06-10.36
		c13.26-4.1,24.85-11.45,36.01-19.09c7.52-5.14,13.22-13.03,17.05-21.77c2.27-5.18,4.59-10.35,7.24-15.34
		c11.22-21.18,26.6-38.92,45.1-54.07c5.4-4.42,10.62-9.08,15.72-13.84c6.15-5.74,6.61-17.25,0.95-23.12
		c-3.46-3.59-7.08-7.06-10.93-10.22c-19.38-15.9-36.88-33.62-52.46-53.24c-2.89-3.64-6.27-7.23-7.95-11.44
		c-5.7-14.33-17.2-24.22-26.35-35.9c-3.48-4.45-7.21-8.71-10.57-13.24c-8.11-10.96-12.76-22.85-12.9-36.95
		c-0.12-11.9-1.67-23.84-1.72-35.81c-0.03-5.91,2.35-11.71,0.7-17.7c-0.44-1.58-0.13-3.45-0.8-4.88
		c-5.04-10.74-4.11-22.15-3.64-33.42c0.18-4.46,0.13-8.62-1.94-12.57c-2.09-3.99-2.15-8.26-2.37-12.62
		c-0.73-14.06,2.58-27.79,3.17-41.74c0.18-4.3,1.4-8.57,1.4-12.85c0-9.03,0.51-17.94,3.22-26.63c0.39-1.23,0.29-2.65,0.24-3.98
		c-0.67-17.37,2.24-34.45,4.07-51.62c1.51-14.19,2.18-28.49,6.2-42.32c0.93-3.19,1.81-6.4,2.76-9.58c0.67-2.23,2.31-4.58,1.97-6.62
		c-0.81-4.94,1.37-9.73,0.46-14.98c-7.2,3-13.44,6.62-18.55,12.08c-3.64,3.89-7.31,7.8-11.33,11.28
		c-6.84,5.91-10.9,13.34-13.1,21.93c-2.88,11.28-5.52,22.62-9.58,33.56c-1.35,3.64-0.57,7.24,0.13,10.83
		c1.12,5.77,2.29,11.53,2.74,17.48c-4.58-10.64-8.63-21.39-13.89-32.08c-6.23,0.06-11.89,1.56-17.12,4.6
		c-22.83,13.29-39.8,31.65-50.58,56.07c-14.43,32.69-25.95,66.23-32.96,101.3c-2.14,10.72-3.21,21.65-6.46,32.16
		c-1.09,3.52-0.58,7.1,0.66,10.76c4.08,11.96,7.8,24.05,11.65,36.09c0.59,1.84,1.95,3.58,0.75,5.72c-2.07,0.32-2.81-1.28-3.38-2.65
		c-5.33-12.89-10.42-25.86-14.11-39.34c-0.87-3.18-2.2-6.26-3.63-9.24c-2.15-4.47-4.59-8.8-7.09-13.54
		c-4.81,1.44-7.87,4.89-10.62,8.53c-19.65,25.92-32.86,54.51-36.99,87.12c-2.96,23.38-5.26,46.83-7.61,70.27
		c-0.52,5.15,0.05,9.88,1.99,14.63c4.66,11.39,9.08,22.88,13.81,34.25c1.52,3.66,3.74,7.03,5.56,10.58c1.03,2,3.14,3.61,2.39,6.28
		c-1.55,1.3-2.93,1.25-4.19-0.41c-6.95-9.16-13.88-18.21-17.64-29.41c-2.3-6.87-5.82-13.41-9.35-19.8
		c-11.74-21.3-21.82-43.42-32.43-65.27c-19.32-39.8-38.67-79.6-55.44-120.58c-15.31-37.42-26.29-75.99-31.1-116.23
		c-2.32-19.44-4.73-38.87-7.4-58.27c-2.09-15.13-4.74-30.19-6.99-45.3c-1.85-12.48-3.15-24.97-3.75-37.64
		c-1.9-39.93-0.54-79.91-2.18-119.79c-1.34-32.62-1.46-65.21-1.56-97.82c-0.1-31.62,3.15-62.98,7.69-94.26
		c7.76-53.49,21.59-105.44,38.44-156.69c13.4-40.77,27.52-81.27,42.98-121.3c18.38-47.59,40.64-93.29,66.42-137.3
		c14.63-24.98,28.72-50.29,44.89-74.35c18.09-26.91,38.66-51.71,62.34-73.87c6.78-6.35,13.82-12.44,21.79-17.43
		c12.96-8.12,26.44-9.9,40.9-4.81c4,1.41,7.26,3.18,7.96,7.89c0.24,1.61,0.86,3.29,1.73,4.66c7.02,10.98,8.21,23.72,11.07,35.97
		c4.76,20.4,9.81,40.73,14.61,61.12c2.51,10.67,4.69,21.42,7.11,32.11c2.67,11.76,6.81,22.92,13.51,33.05
		c8.46,12.78,16.29,25.91,22.43,40.01c4.75,10.89,12.4,19.41,21.29,27.28c20.43,18.07,40.77,36.27,56.57,58.87
		c6.13,8.77,11.61,17.81,15.48,28.46c8.22-3.17,13.41-9.85,21.65-13.81c-4.87-5.21-8.8-9.63-12.21-14.47
		c-4.37-6.19-7.14-12.87-6.68-20.48c0.29-4.88-1.96-9.01-3.15-13.72c1.22-2.6,2.41-5.33,3.79-7.97c0.94-1.81,2.39-3.31,4.45-3.76
		c8.51-1.86,14.28-8.16,21.07-12.39c-0.85-10.71,1.64-21.34-4.31-31.43c-5.8,3.72-11.71,7.89-17.99,11.4
		c-6.03,3.38-12.44,6.08-18.68,9.08c-1.79-12.79-0.24-18.23,14.06-48.82c-8.77-0.1-16.74,3.79-26.02,4.58
		c7.15-18.2,19.76-29.99,35.04-39.66c-1.36-4.76-8.3-1.35-8.93-7.33c8.71-4.44,19.82-3.97,28.19-11.1
		c-4.17-4.83-10.32-3.38-15.34-5.16c0.79-2.18,2.77-2.46,4.67-3.05c12.7-3.93,25.38-7.98,38.6-9.84c2.52-0.35,4.21-1.46,5.69-3.49
		c17.91-24.65,41.81-42.63,66.61-59.56c5.14-3.51,9.45-8.39,16.42-10.61c-0.14,9.49-5.77,16.59-8.34,24.63
		c-2.52,7.89-6.29,15.38-9.52,23.04c-3.35,7.93-6.72,15.85-10.24,24.14c3.66,3.1,7.13,6.04,11.43,9.68
		c2.05-5.35,0.33-10.38,1.7-15.85c9.43,6.66,14.82,15.88,19.92,25.8c5.59-5.24,10.96-10.04,18.22-12.39c2.95-0.95,5.28-3.93,7.8-6.1
		c24.12-20.78,51.02-37.21,79.59-51.02c6.56-3.17,13.9-4.5,20.17-8.76c2.38,3.46,0.13,5.97-1.04,8.41
		c-9.53,19.81-20.3,38.94-31.43,57.89c-7.4,12.6-14.24,25.5-22.9,37.32c-1.55,2.12-2.32,4.81-3.76,7.03
		c-2.74,4.19-1.56,7.49,2.16,10.76c9.58-1.42,19.36-2.98,29.18-4.26c3.94-0.51,7.96-0.66,11.93-0.49c4.6,0.19,6.41,2.36,6.81,6.91
		c0.31,3.55-1.18,6.47-2.93,9.34c-5.41,8.86-12.02,16.73-19.6,23.8c-2.18,2.04-4.38,4.05-6.44,5.96c1.7,5.79,6.8,8.71,8.94,13.71
		c-0.74,1.34-1.51,2.72-2.22,4.02c0.59,1.91,5.65,2.1,18.62,0.75c2.16,16.81-8.01,29.69-13.85,43.76c1.74,2.11,4.04,2.58,6.29,3.07
		c2.02,0.44,3.9,0.96,4.84,3.52c-3.81,3.04-11.67,3.49-8.24,12.53c7.13,3.57,14.4,8.67,23.76,10.52
		c2.68-14.24,7.17-27.44,12.19-40.4c8.7-22.48,19.92-43.49,36.58-61.36c17.54-18.81,31.53-40.31,45.43-61.85
		c16.08-24.91,29.27-51.42,43.17-77.54c3.8-7.14,5.33-15.02,8.03-22.52c3.27-9.06,6.41-18.16,11.29-26.54
		c0.33-0.57,0.36-1.31,0.7-1.86c3.38-5.41,7.08-11.01,12.85-13.59c4.73-2.11,10.49-0.47,15.66,0.25c8.31,1.16,15.81,4.8,23.08,9.02
		c19.93,11.56,38.44,25.09,56.26,39.63c13.67,11.15,27.31,22.34,40.13,34.47c12.59,11.91,24.25,24.73,34.96,38.34
		c21,26.68,41.51,53.75,60.69,81.76c23.2,33.88,41.94,70.23,58.8,107.62c22.91,50.79,40.96,103.21,54.15,157.32
		c10.7,43.93,20.32,88.1,28.38,132.58c4.44,24.5,7.67,49.22,10.95,73.91c3.41,25.65,6.38,51.37,9.25,77.09
		c1.32,11.88,1.83,23.85,2.9,35.76c2.89,32.23,2.07,64.53,1.89,96.8c-0.12,21.25-1.68,42.46-3.61,63.65
		c-1.29,14.22-2.69,28.41-4.21,42.61c-4.68,43.67-11.5,86.92-23.45,129.29c-6.08,21.55-17.3,52.37-26.08,68.3
		c8.78,14.6,18.69,28.6,30.65,41.72c7.23-1.48,14.42-0.12,21.6,0.91c6.85,0.98,13.71,2.19,20.69,5.87c-2.6,4.92-8.1,6.08-11,9.96
		c-2.76,3.69-6.03,6.99-9.3,10.72c3.3,6.63,6.59,13.08,9.74,19.61c7.39,15.29,14,30.9,19.01,47.14c0.97,3.16,2.85,5.03,5.5,6.69
		c3.09,1.94,6.23,3.95,8.86,6.45c3.58,3.4,6.7,7.28,10.26,11.22c-0.35,2.02-2.44,1.98-4.41,2.23c-3.95,0.5-7.96,0.74-11.86,2.76
		c-1.32,1.53-0.65,3.64-0.25,5.47c2.45,11.1,2.36,22.5,2.92,33.69c0.63,12.5-1.36,25.15-2.29,37.72c-0.22,2.98-0.65,5.95-1.16,8.89
		c-0.76,4.45-0.04,8.51,2.2,12.48c1.62,2.87,2.72,6.06,3.88,9.17c0.59,1.6,0.45,3.27-1.03,4.92c-2.94,1.7-6.12-2.1-9.82,0.15
		c-3.82,13.9-7.41,28.4-13.21,42.24c-5.66,13.51-12.66,26.36-18.97,39.02c1.39,6.75,6.09,12.37,3.56,19.38
		c-4.99,0.38-8.57-2.67-13.75-3.63c-6.34,7.3-12.9,15.12-19.74,22.68c-6.91,7.63-14.1,15.02-21.41,22.76
		c2.59,9.06,8.8,17.19,7.8,27.26c-0.14,1.36-1.09,2.39-3.01,3.29c-8.55-1.9-16.84-5.98-25.54-9.86c-3.4,2.59-6.75,5.31-10.28,7.79
		c-21.96,15.45-45.62,27.27-71.74,34.06c-8.44,2.19-17.06,3.38-25.55,3.4c-23.97,0.07-47.93,2.09-71.92,0.33
		c-4.02-0.29-7.88-0.8-11.93-2.38c0.7-3.77,4.13-3.99,6.63-4.77c8.89-2.76,17.88-5.19,26.84-7.71c32.84-9.23,60.74-26.74,84.53-50.9
		c9.61-9.76,17-21.07,22.91-33.6c12.24-25.97,17.96-53.25,20.34-81.71c1.37-16.36-2.18-31.58-5.94-47.03
		c-3.35-13.79-9.78-26.07-17.83-37.65c-9.5-13.67-18.91-27.37-29.5-40.25c-5.76-7.01-12.24-13.11-19.39-18.6
		c-4.49-3.44-9-6.88-13.24-10.6c-21.2-18.62-45.55-32.13-70.76-44.42c-32.91-16.05-66-31.72-98.31-48.97
		c-4.69-2.5-9.53-4.77-14.46-6.76c-10.83-4.37-21.38-9.23-30.99-15.98C1110.28,1225.14,1108.32,1224.56,1106.56,1223.75z
		 M1108.22,908.44c6.22-0.76,6.5-4.64,7.49-8.12c3.67-12.97,1.49-26.46,3.57-39.58c0.32-2.04,1.59-4.42-0.32-6.53
		c-1.94,0.39-2.34,2.21-3.22,3.49c-6.99,10.16-14.49,19.89-23.57,28.32c-2.83,2.62-5.6,5.13-10.02,5.65
		c3.94-11.49,9.6-21.26,14.61-31.32c2.45-4.93,2.22-9.46,0.16-14.21c-0.66-1.53-1.45-3-2.13-4.51
		c-8.14-18.09-19.54-34.04-32.79-48.6c-16.22-17.82-34.25-33.44-56.58-43.45c-11.57-5.19-23.36-10.28-35.92-11.5
		c-9.53-0.93-19.03-1.62-28.17-4.16c-4.21,3.99-5.8,7.7-4.12,13.54c4.05,14.07,5.68,28.53,3.25,43.17
		c7.3,6.2,14.32,12.16,21.15,17.96c15.22-8.29,30.29-13.74,39.34-14.15c-5.71,11.08-10.93,22.13-17.04,32.66
		c-3.03,5.22-2.81,9.23,0.82,13.55c5.13,6.1,9.96,12.49,15.49,18.2c5.9,6.1,11.25,13.02,19.17,16.9
		c12.22-19.08,21.18-25.93,34.74-26c-4.62,14.33-7.99,28.7-9.54,43.61c10.86,8.36,21.35,16.84,33.91,22.44
		c4.03-6.24,9.2-10.36,14.95-13.8c5.76-3.45,11.15-7.97,19.01-7.57C1111.03,899.18,1109.79,903.27,1108.22,908.44z M1328.9,1081.13
		c6.31-11.22,6.36-11.23,3.17-21.19c-1.41-4.41-3.4-8.67-4.49-13.15c-4.78-19.77-12.12-38.64-20.4-57.13
		c-5.97-13.33-12.9-26.12-22.89-37.16c-9.63-10.64-20.48-19.85-31.35-29.09c-3.98-3.38-7.51-7.43-12.49-9.78
		c-4,4.03-3.66,8.98-2.96,13.37c1.31,8.22-1.34,15.34-5.72,21.56c-5.06,7.18-6.28,15.24-7.69,23.37c-0.96,5.54-1.13,11.22-2.1,16.75
		c-1.21,6.9,0.49,12.44,6.44,16.37c1.6,1.06,2.9,2.77,5.48,2.69c0.84-0.53,2.05-1.12,3.05-1.95c12.59-10.51,27.34-16.05,43.26-18.96
		c1.74-0.32,3.3-0.53,4.06,1.56c-10.56,11.42-12.67,15.26-16.27,29.9c-0.63,2.57-0.76,5.29-1.61,7.78
		c-1.94,5.73,0.45,9.52,4.91,12.77C1290.35,1052.76,1309.33,1066.75,1328.9,1081.13z"/>
	<path class="st0" d="M321,1321.29c-5.22-8.46-8.08-15.83-10.33-23.39c-7.79-26.15-17.06-51.79-26.33-77.43
		c-14.38-39.78-25.82-80.35-34.78-121.69c-8.17-37.69-14.11-75.74-19.12-113.92c-2.59-19.72-3.82-39.64-5.2-59.52
		c-1.52-21.94-0.93-43.89-1.94-65.8c-2.45-53.27-0.91-106.54-0.88-159.8c0.01-16.84,1.24-33.79,2.63-50.68
		c1.59-19.22,3.56-38.36,6.63-57.36c8.37-51.85,17.57-103.5,34.08-153.58c16.57-50.25,34.16-100.08,56.16-148.25
		c16.3-35.7,33.23-71.12,49.05-107.02c11.74-26.64,27.72-50.78,42.18-75.82c5.24-9.08,12.43-16.27,22.12-20.65
		c1.87,2.21,0.3,3.91-0.3,5.67c-6.06,18-15.59,34.51-22.35,52.24c-8.66,22.71-15.75,45.91-23.07,69.05
		c-4.61,14.59-9.43,29.11-14.23,43.63c-5.84,17.68-11.25,35.48-16.29,53.41c-4.41,15.66-9.43,31.14-13.53,46.91
		c-6.28,24.17-9.75,48.84-13.67,73.42c-3.09,19.32-5.12,38.81-7.56,58.23c-0.25,1.97-0.1,3.99-0.17,5.99
		c-0.92,25.58-2.21,51.15-2.96,76.74c-0.47,15.92-0.77,31.91-1.87,47.8c-2.21,31.92-1.51,63.86-1.87,95.79
		c-0.23,19.97,1.31,39.87,2.3,59.78c0.7,13.93,1.19,27.89,2.52,41.76c2.36,24.76,3.94,49.59,6.95,74.31
		c2.98,24.39,6.15,48.73,10.25,72.97c5.27,31.14,11.74,62.04,19.18,92.72c5.41,22.29,11.06,44.52,17.1,66.64
		c2.25,8.23,1.15,16.54,2.28,24.76c0.33,2.41-1,4.21-2.77,6.04c-28.88,29.67-41.76,66.55-47.24,106.57
		C325.32,1280.18,323.46,1299.68,321,1321.29z"/>
	<path class="st0" d="M601.65,458.21c7.62-7.15,7.62-7.15,14.92-9.11c0.57,0.34,1.38,0.55,1.66,1.06
		c5.42,9.59,14.08,15.7,22.95,21.63c12.16,8.12,24.02,16.64,35.82,25.29c10.86,7.96,15.2,31.14,6.01,41.4
		c-2.51,2.81-5.21,5.07-8.42,6.83c-9.47,5.19-19.63,7.9-30.41,8.34c-2.63,0.11-5.26,0.31-8.78,0.53c11.84,3.93,14.93,3.7,45.24-2.98
		c0.91,2.23-0.79,3.7-1.66,5.34c-0.84,1.59-3.27,2.07-3.53,5.56c10.1-5.83,16.33-13.25,18.04-24.08c0.82-5.2,0.83-10.55,2.91-15.59
		c2.07,1.38,3.39,4.08,3.11,5.69c-1.16,6.71,5.57,9.97,6.21,15.79c0.28,2.57,3.6,2.45,4.93,4.52c4.15,6.42,8.98,12.41,12.93,18.94
		c11.01,18.2,21.95,36.46,31.3,55.58c4.23,8.65,7.83,17.62,11.41,26.56c7.56,18.86,12.09,38.55,16.04,58.42
		c3.4,17.11,3.81,34.2,1.03,51.38c-0.7,4.33-2.56,8.14-4.98,11.83c-13.48,20.56-26.93,41.15-36.4,63.99
		c-0.25,0.6-0.68,1.13-1.51,2.5c-11.54-9.49-22.94-18.52-31.02-31.57c-8.13-13.12-13.13-27.53-18.64-41.61
		c-4.05-10.33-5.08-21.91-8.53-32.68c-1.62-5.07-2.9-10.24-5.22-15.06c-0.43-0.9-1.16-1.77-1.24-2.69
		c-1.48-15.86-10.3-29.31-14.53-44.27c-1.52-5.38-2.9-10.47-3.24-16.24c-0.54-8.84-3.62-17.5-5.37-26.29
		c-1.62-8.13-4.43-16.42-3.9-24.45c0.47-7.12-1.59-13.79-1.09-20.71c0.11-1.59-0.12-3.39-2.39-3.6c0.58-7.38,0.58-7.38-3.34-12.22
		c1.9,3.81,0.67,8.48,3.57,12.01c1.26,5.94-0.09,11.07-4.23,15.66c-2.35,2.6-4.1,5.76-6.37,9.03c3.72,0.41,4.33-3.89,7.91-3.01
		c2.04,5.92,3.64,12.22,4.83,18.71c1.5,8.16,3.83,16.17,5.41,24.33c1.75,9.04-1.16,12.9-10.14,14.72
		c-11.98,2.42-20.32,10.16-29.18,19.75c6.6-0.59,10.63-3.42,14.81-5.85c4.31-2.5,8.46-5.33,12.93-7.5
		c4.59-2.24,7.54-1.49,10.49,2.26c9.01,11.47,14.1,24.8,17.8,38.71c1.08,4.07-1.76,8.34-6.27,10.06c-2.47,0.95-5.26,1.08-7.66,2.15
		c-10.01,4.47-18.27,10.61-20.64,24.18c3.22-2.12,5.55-3.11,7.14-4.79c6.91-7.33,14.25-13.95,24-17.36c1.5-0.53,2.69-1.91,4.21-3.03
		c3.77,3.18,4.79,7.81,6.49,11.98c1.63,3.99,2.32,8.39,4.14,12.27c5.41,11.52,0.43,19.93-7.97,27.07
		c-5.67,4.82-9.54,10.81-14.51,17.6c3.62,0.18,4.19-2,5.32-3.07c1.68-1.59,3.12-3.45,4.67-5.18c1.33-1.49,2.58-3.08,4.05-4.42
		c1.72-1.56,3.62-2.92,5.48-4.32c1.58-1.2,3.21-2.35,5.42-3.96c5.74,7.8,10.01,16.2,13.05,25.27c1.16,3.46,1.87,7.11,3.33,10.44
		c2.5,5.7,1.23,10.13-3.16,14.36c-5.1,4.92-6.98,9.11-8.34,16.36c6.11-7.23,12.03-14.23,18.21-21.52
		c6.29,10.85,15.19,18.84,24.39,26.55c1.27,1.07,2.62,2.04,3.9,3.1c3.51,2.9,6.03,6.2,4.64,11.19c-0.35,1.27-0.36,2.64,0.61,3.85
		c3.04-2.14,2.78-5.61,3.54-8.68c5.7-23.15,17.39-42.87,33.4-60.44c6.71-7.36,13.98-8.21,22.47-5.5c16,5.1,31.45,11.99,43.65,23.46
		c21.68,20.39,36.8,44.31,36.15,75.89c-0.55,26.85-7.49,51.14-24.75,72.06c-11.68,14.15-26.71,22.14-44.67,25.83
		c-15.39,3.16-28.13-1.56-40.09-10.33c-2.11-1.55-4.3-3.39-5.59-5.6c-9.03-15.49-18.84-30.64-22.25-48.73
		c-0.67-3.54-2.12-6.93-3.72-12.01c-0.66,15.88,4.3,28.74,9.97,41.86c-5.82,5.08-11.63,8.98-19.53,8.65
		c-2.83-0.12-5.05-0.96-6.95-3.2c-4.52-5.34-9.79-9.93-14.96-14.65c-6.53-5.96-10.34-13.83-12.96-22.17
		c-2.49-7.93-4.63-15.96-6.93-23.94c-0.28-0.96-1.15-2.19-0.83-2.8c3.32-6.14-1.58-9.93-4.22-14.05
		c-4.31-6.73-9.69-12.63-16.44-17.14c-3.61-2.41-6.94-5.11-8.74-9.22c2.18-2.06,4.68-0.22,6.79-1.1c4.26,2.97,9.12,4.19,14.07,5.15
		c-3.91-4.22-8.76-5.59-14.26-4.94c-1.47-4.02-5.36-4.58-8.64-5.67c-6.83-2.27-12.48-5.89-16.88-11.72
		c-3.8-5.03-8.17-9.63-12.21-14.48c-2.51-3.01-4.63-6.26-5.8-11.27c5.78,1.73,10.55,4.16,16.3,3.98c-2.7-5.5-7.53-8.28-12.53-10.28
		c-15.71-6.27-24.85-18.22-30.36-33.61c-4.18-11.67-4.24-11.65-3.65-22.67c5.56-0.82,10.95-0.52,16.01,2.41
		c3.1,1.8,6.28,1.79,9.7,0.59c-1.26-3.96-4.94-5.07-7.86-5.23c-6.8-0.36-12.78-3.22-19.58-4.88c-3.42-7.31-7.77-14.42-11.36-21.81
		c-4.8-9.87-7.16-20.69-6.42-31.9c0.13-2,0.46-3.99,2.97-5.8c6.17-0.19,11.73,4.25,18.3,5.48c-4.77-6.82-12.01-11.32-20.76-13.03
		c-6.12-1.2-6.58-1.65-7.17-7.43c-0.5-4.95-1.12-9.89-1.37-14.85c-0.46-9.02,0.23-17.91,2.9-26.64c1.45-4.75,2.32-9.68,3.68-15.52
		c7.89,7.83,16.57,13.77,24.68,23.24c-0.82-6.45-4.05-9.22-7.05-11.98c-9.17-8.43-13.54-19.48-17.37-30.9
		c-2.17-6.45-0.07-12.6,1.34-18.61c0.78-3.31,4.22-5.85,7.53-7.39c2.48-1.15,3.78-2.54,3.16-5.63c-2.04,0.74-3.77,2.41-6.07,1.96
		c-4.29-5.91-7.72-12.06-9.06-19.52c-1.31-7.28-0.64-13.77,3.32-19.96c6.45-10.09,12.86-20.21,19.31-30.3
		c4.12-6.45,8.28-12.88,12.42-19.31C601.21,459.08,601.46,458.66,601.65,458.21z M782.03,812.44c5.51-2.32,8.14-5.66,7.99-10.94
		c-0.1-3.65-1.89-6.44-4.66-6.63c-3-0.21-4.67,1.58-5.85,4.27C777.41,803.92,778.54,807.93,782.03,812.44z M610.89,617.28
		c5.76-4.21,11.31-8.66,18.82-12.68C618.92,603.79,613.88,609.08,610.89,617.28z M733.12,854.5c-6.23,3.98-8.82,9.91-8.6,17.18
		C727.24,865.92,730.65,860.54,733.12,854.5z M622.46,549.97c-0.98-3.99-2.66-7.64-6.42-11.18
		C616.2,544.24,619.31,547.11,622.46,549.97z"/>
	<path class="st0" d="M1336.61,1060.21c-2.3-9.19-4.33-18.5-6.97-27.65c-6.75-23.4-15.7-45.92-27.93-67.06
		c-3.86-6.66-8.53-12.69-14.01-18.1c-7.58-7.48-14.8-15.34-23.18-21.96c-7.02-5.54-13.73-11.54-22.04-14.78
		c-0.68-3,1.22-4.69,2.32-6.65c8.41-15,12.37-31.52,16.26-48.03c3.12-13.25,5.58-26.62,6.95-40.22
		c1.34-13.33,5.99-25.93,10.87-38.26c7.84-19.83,13.44-40.36,20.06-60.57c1.54-4.71,0.74-9.2-0.4-13.73
		c-5.86-23.39-15.23-45.35-27.36-66.13c-3.03-5.19-5.85-10.4-7.63-16.15c-1.69-5.45-4.38-10.36-7.39-15.2
		c-3.33-5.36-6.61-10.86-8.96-16.69c-4.5-11.16-10.27-21.63-16.34-31.93c-1.9-3.22-3.44-6.54-4.22-10.06
		c-1.51-6.84-3.41-13.52-6.11-19.99c-1.45-3.47-1.31-7.15-0.82-10.83c1.67-12.5,3.6-24.98,4.83-37.52
		c1.45-14.86,2.3-29.77,3.34-44.67c0.09-1.27-0.3-2.57-0.48-4.01c0.79-0.68-1.91-1.1-0.98-0.15s-0.01-0.4-0.57,0.82
		c-0.27,0.58-0.5,1.18-0.74,1.77c-0.82,0.08-1.04-0.33-1.05-1.23c-0.21-12.65,0.16-25.34-0.84-37.93
		c-1.77-22.52-1.33-45.14-3.8-67.62c-3.88-35.36-8.86-70.55-18.66-104.8c-9.47-33.08-23.58-64.27-40.99-93.95
		c-5.55-9.47-10.96-19.05-17.82-27.66c-3.04-3.82-3-7.12,0.73-10.82c9.77,10.49,18.71,21.53,26.65,33.3
		c23.07,34.21,45.9,68.6,66.31,104.49c14.15,24.88,26.42,50.74,38.75,76.57c12.33,25.83,23.59,52.08,33.71,78.86
		c13.91,36.78,24.2,74.6,33.57,112.71c9.44,38.41,17.35,77.14,23.4,116.22c2.79,18.01,4.35,36.21,6.36,54.34
		c2.23,20.13,3.43,40.34,4.84,60.55c1.88,26.94,1.84,53.86,1.61,80.79c-0.18,19.91-1.84,39.77-3.59,59.62
		c-0.93,10.57-1.56,21.19-2.52,31.77c-1.99,21.85-5.46,43.45-10.19,64.89c-4.44,20.11-8.12,40.38-12.02,60.6
		c-2.34,12.13-6.7,23.63-10.56,35.29C1338.66,1059.4,1337.97,1060.17,1336.61,1060.21z"/>
	<path class="st0" d="M453.37,123.24c-2.14,11.58-4.12,22.97-6.36,34.32c-4.65,23.53-7.24,47.26-7.59,71.24
		c-0.07,4.98,0.14,9.92-1.06,14.89c-0.76,3.14-0.51,6.69,0.01,9.94c1.55,9.61,1.59,19.15-0.02,28.75c-0.44,2.6-0.25,5.32-0.25,7.98
		c-0.02,13.33-0.58,26.69,0.12,39.99c1.1,20.93,1.08,41.89,2.15,62.8c0.46,8.95,1.3,17.92,0.95,26.86
		c-0.35,9.22,3.49,17.49,4.92,26.29c2.34,14.44,3.2,29.02,5.22,43.48c1.33,9.52,2.88,19.01,4.4,28.96
		c-3.97,4.51-8.13,9.23-12.28,13.95c-15.04,17.11-27.44,35.94-36.78,56.75c-2.59,5.77-4.86,11.63-6.03,17.91
		c-0.87,4.66-1.31,9.34,0.01,13.83c1.94,6.63,1.16,13.19,0.54,19.82c-1.32,14.21-2.92,28.4-3.79,42.64
		c-0.86,14.05,1.4,27.89,5.14,41.39c2.87,10.34,3.3,20.98,4.73,31.48c2.74,20.21,7.67,39.8,14.98,58.8
		c3.05,7.94,7.44,14.58,15.38,18.87c11.41,6.16,22.39,13.11,33.53,19.77c1.98,1.18,3.82,2.6,6.37,4.35c0,6.06-0.36,12.37,0.07,18.62
		c1.11,16.31,5.36,32.07,8.63,48.01c3.07,14.94,7.47,29.52,10.88,43.2c-0.81,3-2.16,3.98-3.71,4.65
		c-14.65,6.36-26.23,16.67-37.32,27.9c-9.26,9.39-16.88,19.74-22.35,31.62c-7.38,16.01-14.2,32.26-20.07,48.9
		c-8.67,24.57-13.16,50.12-18.1,75.57c-0.82,4.2-1.5,8.43-2.31,13.02c-2.49-2.18-2.66-4.85-3.38-7.25
		c-5.43-18.21-8.26-36.95-11.35-55.63c-3.37-20.31-6.94-40.62-8.59-61.15c-2.58-32.13-6.83-64.01-11.69-95.86
		c-2.75-18.03-3.96-36.29-5.23-54.53c-0.98-14.22-0.62-28.55-2.83-42.71c-0.82-5.23-0.8-10.62-0.74-15.94
		c0.16-14.98-1.83-29.85-1.58-44.85c0.42-24.63,0.2-49.27,0.09-73.91c-0.08-18.65,0.33-37.35-0.8-55.94
		c-2.35-38.62-0.87-77.24-0.97-115.85c-0.04-16.22,1.85-32.47,3.36-48.66c3.33-35.71,7.5-71.33,14.05-106.61
		c4.62-24.88,12.46-48.94,19.57-73.2c6-20.44,14.21-40.08,20.72-60.32c4.48-13.93,9.17-27.82,12.97-41.94
		c8.23-30.62,19.9-59.92,32.78-88.81C450.44,125.19,451.09,123.78,453.37,123.24z"/>
	<path class="st0" d="M743.83,1225.99c-1.62,0.07-2.26,1-2.3,2.53c-0.08,3.23,1.26,5.79,3.7,7.82c1.88,1.57,3.12,3.44,2.92,6
		c-2.53,2.66-5.74-0.03-8.81,1.25c-3.06,3.39,0.2,8.28-2.39,12.58c-6.25-2.53-12.59-5.1-19.16-7.76c-3.78,1.94-6.57,5.62-11.24,6.75
		c-2.12-3.2-0.33-6.48-0.46-9.58c-0.24-5.43-1.53-6.72-6.98-7.78c-3.63-0.71-7.27,1.3-11.1-0.43c-0.91-7.7,6.16-11.21,9.25-17.54
		c-6.49-5.16-15.85-4.16-22.42-9.96c-1.92,4.18,0.93,6.07,3.41,7.16c3.91,1.72,8.19,2.61,12.9,4.03
		c-4.96,5.86-5.47,13.37-8.42,20.68c-10.61,1.12-21.31,0.68-31.43-2.33c-15.08-4.48-28.95-11.48-40.04-23.32
		c-8.67-9.25-13.95-20.16-17.75-31.98c-6.58-20.43-6.11-41.15-2.69-62.04c6.36-38.76,20.59-74.87,36.8-110.32
		c3.17-6.94,6.19-13.92,8.49-21.76c4.56-0.11,8.48,1.67,11.88,4.07c2.39,1.68,4.68,2.35,7.39,2.16c7.92-0.54,15.95,0.32,23.59-2.25
		c4.26,2.62,6.34,8.39,12.43,7.59c-0.92-3.76-4.77-4.96-6.13-8.72c7.03-5.63,15.29-6.05,24.49-4.86c-2.28-3.73-6.03-2.92-8.59-5.03
		c2.6-2.13,5.13-4.2,7.7-6.3c3.52,1.9,3.86,6.57,8.05,7.93c0.92-4.26-3.41-6.97-3.2-11.59c2.59-2.33,7.87-3.33,5.53-9.93
		c10.95,4.64,20.07,7.92,28.93-0.35c2.4,2.98,1.76,7.9,6.14,9.27c2.67-2,0.22-3.33-0.65-4.85c-1.74-3.03,0.08-4.17,2.62-5
		c3.26,0.84,4.49,3.91,6.17,6.18c3.89,5.27,8.93,9.49,14.65,11.68c8.48,3.24,17.33,6.27,26.89,4.47
		c10.12-1.91,19.87-5.07,28.93-8.36c1.86,0.44,2.23,1.43,2.36,2.37c2.55,18.87,11.04,35.45,20.14,51.75
		c10.38,18.61,19.9,37.59,27.54,57.53c9.94,25.93,12.24,52.55,5.88,79.4c-6.73,28.43-22.96,50.62-48.35,65.62
		c-8.7,5.14-18.27,7.99-28.26,9.03c-22.7,2.37-44.35-1.38-64.85-11.62c-2.05-1.02-2.69-2.79-3.78-4.39
		c1.31-0.07,2.69,0.05,3.57-1.24c1.09-1.61,0.4-3.13-0.23-4.68c-1.58-3.93-6.23-6.11-6.36-10.89c4.35-2.19,10.38-0.37,13.28-6.15
		c-2.5-6.46-6.59-12.08-10.29-17.92c-3.72-5.89-7.42-11.82-8.34-18.94c-0.06-0.46,0.62-1.02,0.96-1.53c1.68-1.33,3.7,2,5.32-0.39
		c0.29-1.73,0.1-3.28-1.6-4.27c0.11-3.24-2.1-5.49-3.48-8.1c-3.86-7.31-7.9-14.57-8.62-23.05c2.58-4.4,5.14-8.65,7.53-13
		c0.41-0.75,0.06-1.91,0.06-2.72c-2.03-2.29-5.42-0.24-7.73-3.08c0.83-21.2-1.55-43.12,6.79-63.28c-1.54-3.55-4.77-0.87-6.54-3.33
		c2.04-8.77,4.43-17.67,8.86-25.9c2-3.71,3.79-7.45,1.62-11.73c-2.23,0.66-2.94,2.71-3.4,4.49c-1.15,4.53-3.36,8.63-4.81,13
		c-2.5,7.54-4.21,15.35-6.66,22.91c-1.29,3.99,2.12,3.8,3.87,5.36c-0.57,4.09-0.79,8.36-1.81,12.43
		c-2.48,9.85-2.03,19.87-1.23,29.72c0.58,7.15,2.42,14.15,0.2,20.23c1.31,3.08,4.66,1.27,5.03,4.86
		c-6.97,11.59-4.05,22.89,3.61,33.71c1.34,1.89,2.41,3.97,3.67,5.91c0.75,1.15,1.75,1.96,3.27,1.42c-1.5,3.2-5.62,1.67-8.48,5.22
		c-1.91,15.11,9.91,24.74,17.55,36.15c-3.1,3.2-8.35,2.22-11.1,5.62c-1.52,4.48-0.26,8.08,2.32,11.41
		C742.27,1220.4,744.28,1222.68,743.83,1225.99z M695.58,1192.89c-5.39,7.3-14.06,8.47-21.13,14.91
		c12.38-1.39,20.39-7.12,27.58-14.39c-5.07-10.06-17.19-9.41-24.21-17.03c5.68-4.15,14.19-4.09,16.04-12.16
		c-8.75-5.8-12.59-6.86-19.11-5.28c3.98,3.67,9.4,3.36,14.05,6.01c-4.89,4.57-9.97,8.49-16.98,10.09
		c3.43,7.07,8.13,11.54,15.18,12.66C690.68,1188.28,692.88,1190.45,695.58,1192.89z M702.39,1034.82c-4.9-1.89-9.9-3.4-14.52-5.69
		c-7.39-3.66-13.08-8.84-13.13-17.92c4.81-1.74,9.85-0.05,14.9-2.57c-5.38-1.76-10.01-0.96-14.58-0.33
		c-3.64,0.49-5.53,2.76-4.78,6.06c0.95,4.2,2.26,8.31,5.19,11.73c3.83,4.48,8.46,7.31,14.31,8.39c2.62,0.48,5.85,0.79,5.89,4.83
		C698.2,1038.22,701.02,1037.95,702.39,1034.82z M694.27,1120.99c-3.88-3.21-7.48-6.01-10.88-9.05c-3.41-3.05-6.68-6.24-11.75-9.11
		c3.49,9.4,10.77,13.1,17.31,17.83c-5.61,5.09-12.16,8.34-16.24,14.44C680.75,1131.96,686.91,1126.11,694.27,1120.99z
		 M694.4,1079.15c-2.44-2.14-4.97-4.15-7.25-6.42c-2.32-2.31-4.58-4.74-6.52-7.38c-1.79-2.44-3.12-5.22-4.77-8.07
		c-0.85,1.15-1.46,1.61-1.54,2.15c-0.15,0.95-0.21,2.04,0.12,2.91c0.68,1.84,1.6,3.6,2.49,5.36c2.73,5.4,8.63,7.48,12.56,10.71
		c-0.4,2.41-2.81,2.93-1.53,4.86C690.36,1082.16,693.26,1082.04,694.4,1079.15z M753.85,974.27c-9.25,4.27-12.99,9.39-18.96,25.07
		c1.75,1.34,3.65,0.96,5.74,0.41c-1.21-2.57-1.96-4.91,0.21-7.64C745.22,986.59,749.18,980.73,753.85,974.27z M671.56,1099.4
		c8.78-0.7,11.65-1.9,18.64-7.45c-1.55-2.73-3.62-4.23-6.92-3.69c-0.07,1.64,1.73,2.43,0.48,4.7
		C680.49,1094.68,676.52,1096.78,671.56,1099.4z M687.78,1145.82c-7.5-5.4-13.63-1.93-20.81-3.06
		C673.61,1150.77,680.07,1145.74,687.78,1145.82z M685.35,1152.42c4.28-1.55,6.48-2.77,5.89-6.97
		C688.86,1147.18,687.08,1148.69,685.35,1152.42z"/>
	<path class="st0" d="M1417.14,1150.3c-3.17-0.69-4.86-3.38-7.09-5.3c-16.12-13.88-32.45-27.51-49.62-40.09
		c-1.58-1.16-2.98-2.56-4.65-3.99c2.47-12.83,7.55-24.16,15.97-33.87c-3.73-2.93-7.04-0.08-11.06-1.15c1.39-7.62,4-15,6.38-22.37
		c6.74-20.9,11.58-42.3,16.49-63.64c3.71-16.11,5.56-32.68,7.73-49.12c2.9-22.03,5.39-44.11,7.88-66.18
		c0.59-5.27,0.47-10.62,0.73-15.94c0.68-13.93,0.66-27.94,2.3-41.75c1.7-14.28,1.18-28.57,1.49-42.81
		c0.36-16.56-0.19-33.18-1.39-49.78c-1-13.9-1.74-27.84-3.07-41.71c-1.99-20.79-4.62-41.51-6.94-62.26
		c-2.66-23.75-6.76-47.3-10.29-70.92c-3.53-23.66-8.33-47.07-13.5-70.41c-9.44-42.64-23.85-83.69-39.3-124.42
		c-14.98-39.52-31.98-78.13-51.33-115.72c-13.1-25.46-27.73-50.01-42.75-74.35c-7.68-12.45-15.6-24.76-23.39-37.15
		c-1.04-1.65-2.56-3.15-1.99-5.41l-0.19,0.18c3.13,0.17,4.26,2.82,5.87,4.81c22.13,27.47,43.12,55.78,62.17,85.49
		c12.21,19.04,24.78,37.88,35.45,57.85c20.68,38.7,41.97,77.13,57.09,118.49c9.01,24.66,17.59,49.48,26.27,74.27
		c13.51,38.59,27.31,77.09,40.3,115.86c12.57,37.54,22.29,75.8,27.43,115.2c2.97,22.71,5.16,45.47,7.29,68.25
		c1.3,13.87,3.21,27.69,5.05,41.5c2.54,19.09,3.97,38.27,5.65,57.44c1.05,11.94,1.11,23.88,1.61,35.81
		c0.71,16.93,0.21,33.89-1.61,50.78c-0.57,5.28-0.22,10.65-0.58,15.95c-3.08,45.42-9.16,90.45-18.05,135.09
		c-3.45,17.32-8.57,34.1-15.81,50.04c-10.59,3.76-21.99,4.32-30.83,11.58L1417.14,1150.3z"/>
	<path class="st0" d="M701.15,463.21c13.42-3.71,26.83-7.48,42.32-7.45c-6.96-8.68-8.89-18-10.79-27.36
		c-0.95-4.65-0.59-9.28-0.41-13.92c0.07-1.75,1-3.38,2.62-3.96c1.99-0.71,4.1-0.2,5.32,1.67c2.98,4.56,7.29,7.72,11.42,11.05
		c3.91,3.15,8.26,5.52,12.91,6.31c2.71-0.77,2.3-3.47,3.93-4.68c1.6,1.12,3.2,2.25,4.81,3.38c5.23-1.19,9.69-4.6,14.98-4.67
		c1.27,2.72-3.1,2.85-1.18,6.14c6.65,2.02,13.54-2.14,20.67-1.78c6.96,0.35,13.97-0.13,20.96-0.3c7.29-0.18,14.58,1.55,23.37-0.36
		c-14.68-3.14-28.2-2.97-41.82-4.7c10.27-2.08,20.45-4.92,30.82-6.04c11.85-1.28,23.76-2.94,35.78-2.23
		c10.08,0.59,19.98-0.69,29.54-3.78c12.41-4.01,24.25-1.77,36.14,2.11c4.73,1.54,8.19,4.28,10.5,8.59
		c4.56,8.52,10.28,16.12,16.67,23.42c6.33,7.23,11.26,15.65,17.21,23.23c3.43,4.37,5.02,9.43,4.34,14.38
		c-0.65,4.81,0.64,8.21,3.24,11.73c1.14,1.55,2.94,2.85,2.41,5.4c-3.53,0.39-7.12,0.78-11.21,1.23c2.24,4.45,4.3,8.53,6.52,12.93
		c-9.14,8.56-12.81,19.45-14.97,31.06c-0.29,1.57-0.97,3.2-1.89,4.51c-13.14,18.71-28.4,35.04-49.29,45.49
		c-16.17,8.09-33.5,10.39-51.13,11.64c-4.3,0.31-8.59,0.73-12.87,1.07c-14.62,1.14-29.27,0.26-43.66-2.43
		c-7.38-1.38-14.93-2.63-22.24-5.73c2.89-6.28,5.33-12.39,9.84-18.27c7.29,5.71,16.08,6.9,23.15,12.42
		c5.76-13.38,0.23-27.67,5.52-41.36c14.47-5.66,31.09-8.77,44.46-20.94c-7.63-3.54-14.21-6.6-20.96-9.73
		c3.49-6.65,8.36-11.7,12.8-17.04c9.56-11.49,20.04-22.27,27.48-35.4c3.94-6.94,7.43-14.05,6.74-22.83
		c-3.5,3.5-3.83,7.96-5.51,11.75c-5.93,13.33-15.77,23.74-24.93,34.72c-8.12,9.74-17.76,17.93-27.36,27.1
		c6.16,6.19,15.34,6.09,21.87,10.98c-8.03,8.95-16.64,11.63-44.46,14.02c3.13,13.95,5.56,27.97,4.1,43.59
		c-10.03-6.53-19.16-12.27-27.91-21.26c-1.16,11.82-4.25,21.63-8.84,31.23c-3.01-1.17-1.69-3.56-2.35-5.1
		c-0.78-1.83-1.54-3.7-2.01-5.62c-0.45-1.87-0.52-3.83-0.87-6.66c-12.24,7.21-21.2,17.99-33.63,24.01c-3.46-2.31-4.35-6-5.89-9.18
		c-7.42-15.34-16.65-29.45-27.76-42.4c-3.42-3.99-6.3-8.62-8.55-13.37c-1.2-2.52-3.12-4.03-5.04-6.38
		c3.74-2.65,7.43-5.25,11.42-8.08c-4.05-2.47-7.67,0.19-11.71-0.01c-4.87-5.07-5.2-10.59-1.87-16.96
		c2.94-5.62,5.96-11.11,9.94-16.09c3.89-4.86,7.58-9.9,10.61-15.3c-3.27-4.49-7.53-5.46-11.63-6.67c-3.5-1.04-7.09-1.84-10.54-3.03
		c-1.91-0.66-3.62-1.91-2.49-4.49C700.04,463.16,700.5,463.3,701.15,463.21z M889.13,434.68c-2.34-0.95-3.73-1.9-4.08-1.6
		c-3.12,2.6-7.26,2.32-10.64,3.95c-3.96,1.91-8.3,3.58-11.31,9.03c12.82,0.4,24.33,0.54,35.87-1.24
		c-6.08-1.26-12.93,1.12-18.74-4.16C883.26,438.62,885.68,437,889.13,434.68z"/>
	<path class="st0" d="M1130.22,123.94c5.01,6.99,7.95,15.06,11.24,22.89c13.42,31.95,22.98,65.17,32.16,98.51
		c6.26,22.76,11.63,45.72,15.02,69.1c1.24,8.53,2.61,17,2.91,25.69c0.36,10.59,1.92,21.15,2.94,31.72
		c0.51,5.28,0.98,10.57,1.49,15.85c1.73,17.91,1.33,35.87,1.36,53.83c0.02,16.26-0.17,32.53,2.26,48.8
		c-0.95-0.11-1.42-0.02-1.59-0.21c-11.9-12.97-25.16-24.62-36.7-37.94c-5.35-6.18-8.69-12.99-10.55-21.05
		c-4.63-20.09-17.17-34.9-33.47-46.82c-13.86-10.13-29.61-16.41-45.65-22.02c-1.55-0.54-3.28-0.61-4.55-2.45
		c-0.51-3.28,1.91-5.91,3.33-8.71c7.23-14.25,13.76-28.79,19.89-43.54c7.72-18.6,12.2-37.89,13.53-57.95
		c1.49-22.55,5.05-44.84,8.62-67.12c1.52-9.49,3.24-18.95,5.04-28.4c1.95-10.2,5.81-19.74,10.62-28.9
		C1128.35,124.74,1129.14,124.57,1130.22,123.94z"/>
	<path class="st0" d="M840.92,134.72c6.4-1.76,12.82-3.47,19.19-5.32c3.8-1.1,7.57-1.88,12.18-1.1
		c-6.33,7.73-16.11,9.52-22.77,15.59c1.81,2.74,3.99,1.83,5.73,1.73c6.5-0.41,11.55,2.3,16.13,6.57
		c7.06,6.58,12.15,14.75,18.59,22.58c-8.75,3.47-18.95-1.05-27.07,6.07c6.26,2.5,10.28,7.6,15.49,12.27
		c-4.65,0.53-9.3,1.07-15.32,1.76c8.58,6.54,16.28,12.41,19.84,21.82c-2.24,2.04-3.61-0.32-5.09-1.19
		c-4.51-2.64-8.54-6.14-14.15-8.21c0.44,11.16,0.99,21.75-2.72,32.06c-1.13-8.35-2.97-16.33-9.24-25.24
		c0.75,13.25-4.53,22.51-10.38,33.82c-2.24-9.85-4.26-17.87-7.3-25.59c-3.06-7.78-5.23-15.92-8.1-24.87
		c-2.91,3.84-2.39,7.14-2.57,10.31c-0.16,2.87,0.7,5.99-2.31,9.42c-5.66-11.92-16.07-19.27-23.35-30.86
		c-4.33,10.58-7.42,20.41-13.44,29.24c0-10.11,0-20.22,0-30.69c-5.12,0.15-4.54,5.02-7.24,6.63c-2.16-0.24-1.09-2.87-3.25-3.9
		c-11.46,6.88-18.87,18.29-28.01,30.14c0.01-9.29,4.26-16.32,3.49-24.04c-9.24,1.93-22.34,8.85-27.18,14.45
		c-1.29,1.49-3.51,3.63-3.15,4.83c2.42,8.1-5.82,10.25-7.82,15.84c-2.87-1.9-2.22-4.13-1.72-6.47c0.89-4.22,1.67-8.47,2.33-12.74
		c0.65-4.24,1.09-8.51,1.77-14c-15.05,12.85-28.24,26.77-47.22,32.46c0.42-16.76,9.85-36.25,25.71-53.28
		c-6.75-1.71-12.16,1.67-17.85,3.51c-5.86,1.89-11.1,5.58-17.97,6.93c8.17-13.35,20.93-24.71,40.73-36.62
		c-1.4-4.72-6.73-1.43-9.52-5.08c10.28-4.72,22.27-4.85,31.85-12.4c-5.19-4.35-11.86-2.8-17.3-6.26
		c11.62-2.31,22.48-5.77,33.89-7.41c13.18-1.89,25.78-1.42,38.12,3.69c0.54,0.22,1.24,0.03,2.56,0.03
		c-0.36-5.67-4.94-9.28-6.37-14.16c11.71,0.51,22.81,7.84,39.29,26.06c0.68-2.73,1.42-5.27,1.91-7.85c0.48-2.54-0.57-5.27,1.17-8.15
		c5.97,5.7,8.26,13.53,12.3,20.41c5.09-1.2,5.73-6.99,10.14-8.26c2.38,3.31-2.11,6.11-0.71,9.69c2.95-0.49,4.97-2.45,6.96-4.46
		L840.92,134.72z"/>
	<path class="st0" d="M945.53,726.03c2.47-6.33,6.2-12.09,12.09-16.08c17.37-11.76,34.47-24,52.5-34.65
		c7.83-4.63,13.28-10.14,18.1-17.55c5.67-8.72,10.72-17.57,13.84-27.49c0.5-1.6,1.1-3.14,2.76-4.25c3.88,1.03,6.68,3.97,9.78,6.38
		c11.04,8.57,21.89,17.43,35.49,21.86c2.63,0.86,4.5,2.77,6.17,5.92c-2.39,6.99-4.77,14.56-7.55,21.99
		c-4.23,11.29-7.07,22.83-7.36,34.94c-0.02,0.67,0.06,1.35-0.06,2c-4.21,23.16,3.11,43.85,13.6,63.88
		c4.48,8.55,8.76,17.2,13.38,25.67c3.75,6.89,4.83,13.68,0.93,20.87c-2.17,4.01-2.21,9.15-6.28,12.14c-1.46-0.4-2.19-1.42-2.73-2.67
		c-16.28-37.42-42.27-66.6-76.28-88.67c-15.54-10.08-32.95-15.81-51.37-17.91c-6.92-0.79-13.51-3.43-20.64-3.12
		C949.88,729.36,947.27,728.73,945.53,726.03z"/>
	<path class="st0" d="M482.52,153.41c1.94,6.03,3.51,10.38,4.74,14.82c2.92,10.58,5.59,21.24,9.98,31.34
		c4.84,11.12,5.13,23.3,8.3,34.77c5.25,19,6.66,38.6,9.42,57.94c2.94,20.57,10.82,38.99,20.35,56.95
		c8.27,15.59,17.41,30.67,29.56,43.68c0.39,0.42,0.38,1.21,0.78,2.6c-17.64,4.38-35.01,9.52-50.23,20.11
		c-15.27,10.63-27.62,23.79-37.15,41.51c-0.88-5.23-2.08-9-2.05-12.77c0.13-21.31-2.41-42.42-3.97-63.62
		c-1.68-22.86-3-45.78-2.81-68.74c0.23-27.97-0.04-55.96,0.87-83.91c0.49-14.88,0.93-29.92,3.86-44.59
		C476.1,173.82,478.68,164.23,482.52,153.41z"/>
	<path class="st0" d="M637.56,830.04c6.59,6.91,12.71,13.39,18.9,19.8c1.61,1.66,3.33,3.26,5.21,4.6
		c6.12,4.39,10.41,10.24,13.54,16.93c4.52,9.62,8.52,19.43,10.97,29.87c2.59,11.02,5.88,21.88,13.51,30.7
		c2.81,3.25,5.83,6.35,8.95,9.31c4.87,4.62,6.15,9.6,3.37,16.04c-5.91,13.75-14.68,24.4-29.28,29.36c-1.88,0.64-3.83,1.12-5.61,1.96
		c-5.88,2.78-11.86,3.9-18.27,1.97c-2.21-0.66-4.61-0.64-6.87-1.15c-27.77-6.21-43.28-24.73-49.92-51.22
		c-4.72-18.82-5.39-38.02-2.25-57.31c2.6-15.97,9.85-29.56,20.83-41.11C624.96,835.26,630.53,832.03,637.56,830.04z M627.68,849.02
		c4.71-4.13,5.23-6.39,2.09-9.25c-1.45-1.32-3.01-1.28-4.43,0C622.35,842.45,623.01,845,627.68,849.02z"/>
	<path class="st0" d="M853.64,619.79c2.2,3.92,6.26,5.87,9.4,8.79c3.15,2.93,6.37,5.77,9.54,8.63c-0.92,3.3-1.88,6.07-2.44,8.92
		c-1.84,9.33-7.3,15.1-16.62,15.31c-11.56,0.25-23.21,1.77-34.75-0.84c-2.87-0.65-5.92-0.72-10.01,0.63
		c15.69,2.55,30.08,6.15,45.36,7.35c0.58,0.7,1.53,1.63,2.24,2.71c5.77,8.74,5.05,16.6-0.79,25.67
		c-8.07,12.52-19.72,19.59-32.57,25.1c-10.02,4.3-20.33,8.25-32.18,9.19c-4.9-11.66-5.31-24.68-8.47-37.02
		c-3.11-12.16-5.95-24.38-8.8-36.11c2.51-2.92,5.78-1.22,8.25-3.39c-3.53-0.62-6.74-1.19-10.13-1.79
		c-5.57-15.06-11.06-29.92-16.48-44.59c6.9-4.32,16.54-6.35,28.26-6.27c3.43,1.49,2.07,6.25,5.35,7.85c2.9-1.42,2.82-5.26,6.15-7.19
		c17.89,5.38,37.3,7.05,54.89,15.42C851.1,618.72,852.37,619.26,853.64,619.79z"/>
	<path class="st0" d="M701.15,463.21c-0.65,0.09-1.11-0.05-1.38-0.42c-2.47,0.84-5.27,1.11-6.75,4.41
		c6.17,6.13,16.4,4.85,22.24,11.23c1.23,3.15-0.1,5.62-1.62,7.72c-6.05,8.36-11.38,17.1-14.95,27.13c-4.07-0.83-5.86-3.64-7.74-6.32
		c-9.73-13.87-22.92-23.96-36.81-33.19c-6.35-4.22-13.47-7.23-19.36-12.21c-2.55-2.16-5.38-4.1-4.88-8.74
		c6.15-4.14,13.28-5.37,21.73-3.4c-2.09-10.99-9.69-19.55-9.18-30.84c3.72-0.79,6.85-0.41,9.96,0.97
		c11.91,5.26,24.53,8.23,37.06,11.49c1.34,0.35,2.55,0.65,3.74-0.51c1.61-3.72-2.78-5.66-2.87-8.89c1.88-2.01,3.81-0.32,5.53,0.06
		c8.4,1.86,16.78,3.86,25.11,6.02c5.12,1.33,8.83,3.86,9.37,10.02c0.36,4.22,2.14,8.31,3.28,12.43c-3.22,4.25-7.86,3.74-11.96,4
		c-5.41,0.34-10.41,1.94-15.5,3.47C703.24,458.52,701.74,460.38,701.15,463.21z"/>
	<path class="st0" d="M861.03,299.19c5.87-11.78,10.24-23.3,7.84-36.7c-5.13-0.2-6.39,5.01-10.18,6.06
		c-1.57-0.92-2.8-2.82-1.83-4.03c5.06-6.31,5.54-14.02,7.34-22.4c15.18-6.63,30.68-14.03,45.84-23.46
		c2.61,3.76,4.97,7.15,7.13,10.26c-1.32,3.84-6.11,1.76-7.35,5.88c7.56,7.3,16.31,3.65,25.05,2.22c2.74,6.1-1.11,10.88-3.01,15.94
		c-1.98,5.28-4.12,10.5-6.43,15.64c-2.3,5.09-6.09,9.25-10.09,13.66c4.23,2.7,8.53,0.26,12.01,2.22c-3.41,4.81-3.41,4.81-3.65,10.14
		c-4.59,1.28-5.36-5.9-9.83-4.61c-4.87,11.29-11.01,21.64-19.18,31.45c-1.47-4.04-2.68-7.39-3.97-10.94
		c-5.67,1.29-3.27,8.52-8.23,10.72c-3.46-11.03-4.47-22.11-4.67-33.77C870.61,289.7,867.2,296.34,861.03,299.19z"/>
	<path class="st0" d="M841.18,134.49c-2.69-2.33-2.03-4.61,0.27-6.65c3.73-3.3,7.57-6.47,11.34-9.72
		c22.29-19.25,47.65-33.81,73.23-48.05c7.77-4.33,16.03-7.83,23.03-13.43c2.32,2,0.7,3.84-0.15,5.35
		c-10.95,19.39-21.12,39.22-33.07,58.04c-5.34,8.41-12.08,15.85-16.77,24.72c-1.86,3.5-4.5,6.56-5.87,10.39
		c-1.14,3.19-3.16,5.82-6.59,7.9c-3.36-3.89-6.64-7.95-10.2-11.73c-3.61-3.83-8.61-5.77-13.04-8.34
		c3.33-7.14,11.87-9.06,14.65-15.73c-2.29-3.5-5.22-3.15-7.7-2.77c-8.86,1.33-17.68,2.96-25.82,7.04c-1.51,0.76-2.97,1.49-3.56,3.23
		L841.18,134.49z"/>
	<path class="st0" d="M1088.71,1677.44c-0.83-0.55-1.84-0.95-2.45-1.67c-8.17-9.59-19.2-13.54-31.08-15.71
		c-4.02-0.73-7.47-2.62-11.1-4.26c-3.73-1.69-5.71-4.6-5.94-8.48c-1.02-17.14,4.96-50,22.36-67.48
		c5.88,5.35,10.31,11.88,14.83,18.31c2.45,3.49,5.15,6.59,8.23,9.65c6.93,6.89,10.53,16.06,12.2,25.64
		c1.7,9.81,1.04,19.51-2.28,29.14C1091.8,1667.44,1092.16,1673,1088.71,1677.44z"/>
	<path class="st0" d="M520.89,1669.53c-1.29-2.35-0.65-4.24-0.09-6.16c3.75-12.74,8.27-25.21,13.67-37.33
		c5.14-11.53,14.33-19.75,23.78-27.64c3.56-2.97,7.37-5.68,11.25-8.23c5.57-3.66,8.41-3.76,13.42,0.7
		c12.08,10.75,18.99,23.86,15.99,40.54c-0.63,3.48-0.23,7.42-2.81,10.42c-3.95,4.59-7.83,8.84-15,7.77c-9-1.34-18.24,0.19-26.5,2.9
		c-10.19,3.34-20.6,7.37-28.91,14.89C524.48,1668.47,523.41,1669.86,520.89,1669.53z"/>
	<path class="st0" d="M1141.05,1572.2c8.13,9.44,17.67,16.74,22.91,27.97c2.03,4.36,5.98,7.95,7.68,12.59
		c2.99,8.15,4.67,16.34,2.6,25.32c-2.44,10.56-6.33,20.19-12.25,28.16c-1.9,1.15-2.85,0.45-3.33-0.21
		c-5.87-8.09-14.43-12.39-23.13-16.47c-6.66-3.13-11.11-8.21-14-14.89c-1.93-4.47-1.56-9.14-1.48-13.77
		C1120.39,1602.04,1128.55,1586.57,1141.05,1572.2z"/>
	<path class="st0" d="M500.16,864.15c8.69-1.18,16.37,0.69,23.15,3.29c9.03,3.47,18.31,5.83,27.48,8.65
		c2.34,0.72,4.45,1.28,5.29,3.84c-3.15,9.37-3.15,9.37,3.95,17.73c-4.74,4.45-9.3,9.2-14.34,13.37c-6.46,5.34-11.87,11.62-17.19,18
		c-5.92,7.1-8.55,15.69-10.54,24.49c-1.79,7.93-3.4,15.91-5.17,24.25c-3.22-6.42-6.82-29.47-8.74-55.99
		C502.69,902.95,501.5,884.11,500.16,864.15z"/>
	<path class="st0" d="M537.05,1611.29c-8.98,10.83-13.57,23.97-17.55,37.44c-19.27,3.34-36.2,11.47-51.81,21.46
		c-2.42-1.26-3.07-2.7-2.74-4.47c2.12-11.45,4.92-22.73,10.39-33.1c2-3.79,4.24-7.67,7.21-10.69c6.15-6.26,11.05-13.89,19.24-18.05
		c3.24-1.65,6.44-3.58,9.16-5.95c3.27-2.86,6.64-2.84,10.2-1.45C528.17,1599.24,533.7,1603.76,537.05,1611.29z"/>
	<path class="st0" d="M1206.42,1651.97c-7.69-9.12-14.83-16.95-26.03-20.29c0.11-11.92-2.53-23-10.82-32.24
		c4.06-9.04,8.04-17.56,15.29-24C1207.47,1589.69,1219.52,1617.34,1206.42,1651.97z"/>
	<path class="st0" d="M818.3,45.21c-9.73,23-18.46,43.65-27.58,65.22c-10.5-5.88-21.62-9.46-34.68-12.79
		c4.41,6.62,10.28,10.39,12.18,17.96c-8.85-2.09-17.48-2.13-25.78-1.85c-1.88-2.98,0.38-4.02,1.54-5.42
		c16.9-20.35,38.17-35.71,58.94-51.64C807.38,53.26,811.94,49.95,818.3,45.21z"/>
	<path class="st0" d="M982.03,537.42c2.68-10.67,10.19-17.81,17.1-25c-0.87-4-4.92-5.25-5.32-9.55c2.92-1.21,5.78-1.12,8.49,1.28
		c1.24,1.11,2.29,2.45,3.61,3.45c10.28,7.78,15.23,17.4,13.71,30.89c-1.22,10.84,2.21,21.67,3.37,33.14
		c-2.34,1.13-4.86,2.36-7.73,3.75c-2.93-7.78-1.44-15.13-1.93-22.96c-7.56,3.35-14.93,7.11-23.44,5.31
		c-0.83-6.55,6.57-10.93,3.36-17.43C990.22,537.63,986.04,540.01,982.03,537.42z"/>
	<path class="st0" d="M1169.78,764.49c-6.51,1.17-9.26-0.31-10.27-4.93c-4.54-20.77,4.96-41.83,23.74-52.67
		c2.59-1.49,5.21-2.96,7.67-4.65c9-6.18,8.95-14.89-0.09-20.77c-1.34-0.87-2.89-1.43-4.9-2.4c1.81-7.08,3.6-14.06,5.47-21.37
		c-6.35-6.99-13.53-1.48-20.15-1.02c-1.32-2.98,1.05-3.89,2.34-4.92c5.96-4.77,12.92-5.04,19.89-3.32c5.88,1.46,8,6.08,6.83,12.26
		c-0.82,4.35-2.94,8.08-4.76,11.77c0.29,3.13,3.06,3.44,4.83,4.76c7.4,5.54,9.43,13.48,5.81,22.04c-3.2,7.58-9.33,12.06-16.4,15.25
		c-8.75,3.94-14.12,10.85-18.13,19.09c-3.23,6.63-4.06,14-5.99,21.03C1164.57,758.65,1167.94,761.28,1169.78,764.49z"/>
	<path class="st0" d="M837.1,784c-4.22-1.19-6.08-3.54-4.69-7.5c1.59-4.51,0.54-9.11,1.57-13.88c-5.37-2.13-10.16-0.11-16.09,0.73
		c3.22-8.65,6.04-16.24,8.97-24.11c-10.18-3.61-19.07,0.56-27.87,3.04c-1.94-3.43,1.4-5.31,0.68-7.54c1.03-0.75,1.5-1.33,2.1-1.5
		c12.12-3.54,23.82-8.2,35.37-13.25c7.95-3.47,8.19-3.42,15.29,3.89c0.17,5.03-1.95,9.61-3.66,14.2c-2.78,7.49-5.21,14.94-5.8,23.03
		C842.39,769.02,839.45,776.44,837.1,784z"/>
	<path class="st0" d="M1011.83,474.65c4.68-1.02,7.88-1.82,11.12-2.4c10.78-1.92,20.25-14.01,21.05-25.07
		c0.7-9.71-1.18-18.44-7.66-26.03c-9.36-10.97-23.33-11.16-33.77-2.83c-1.23,0.98-1.99,2.62-4.23,2.6
		c-0.8-7.02,2.95-11.44,8.7-14.09c12.16-5.6,26-4.97,36.52,6.66c13.75,15.21,16.21,35.21,4.07,53.19
		c-7.76,11.5-19.68,16.23-31.92,10.97C1014.57,477.16,1013.68,476.1,1011.83,474.65z"/>
	<path class="st0" d="M482.94,1611.62c0.34,1.85-1.09,2.97-2.05,4.17c-10.6,13.29-17.56,28.14-19.23,45.19
		c-0.33,3.39-1.44,5.57-4.92,6.49c-7.32,1.94-14.85,3.23-21.53,7.16c-1.13,0.66-2.54-0.25-4.14-1.48
		c4.25-13.37,9.46-26.66,18.2-37.92c8.11-10.45,17.19-20.38,30.98-23.78C481.15,1611.23,482.07,1610.5,482.94,1611.62z"/>
	<path class="st0" d="M475.74,711.24c-11.68-7.06-15.74-14.47-13.81-24.49c1.61-8.35,5.33-12.14,13.26-13.25
		c0.48,3.27-1.94,5.43-3.04,8.03c-1.04,2.45-2.12,4.81-2.06,7.61c0.17,8.02,5.64,13.36,13.49,12.14c3.79-0.59,7.06-1.38,10.13,2.79
		c-6.82,5.07-11,11.34-6.82,20.61c4.67,3.08,10.19,3.73,15.81,2.37c4.32-1.05,8.62-0.9,12.9-0.66c6.86,0.38,11.54,4.11,13.18,10.28
		c1.68,6.3-0.76,10.92-6.2,14.13c-3.69-1.87-2.44-5.36-3.12-8.08c-1.21-4.87-2.41-6.09-7.35-6.39c-2.32-0.14-4.86-0.51-6.94,0.24
		c-5.72,2.07-11.17,0.36-16.71-0.46c-7.21-1.06-10.93-5.56-12.47-12.42C475.1,719.72,475.8,715.76,475.74,711.24z"/>
	<path class="st0" d="M1217.03,1631.33c1.42-12.81-0.74-24.97-7.59-36.23c3.39-3.55,5.47-7.79,9.24-10.56
		c16.91,9.26,30.37,44.12,18.05,59.82c-3.96-1.5-5.28-5.88-8.5-7.98C1224.97,1634.25,1221.07,1633.1,1217.03,1631.33z"/>
	<path class="st0" d="M1409.63,1305.66c0.55,5.57-1.26,9.15-5.7,11.11c-4.74,2.09-8.38-0.23-11.46-3.61
		c-7.98-8.76-9.18-21.32,1.94-29.41c5.2-3.79,10.76-4.87,16.75-1.42c3.24,1.86,6.24,4.03,8.22,7.11
		c10.27,16.04,14.86,33.16,9.19,52.03c-0.35,1.17-1.21,2.2-2.12,3.8c-2.81-6.74-3.79-13.28-4.8-19.81
		c-1.22-7.89-2.77-15.65-5.86-23.08c-1.43-3.42-3.4-6.43-5.38-9.51c-2.19-3.4-5.39-3.71-8.76-3.05c-3.17,0.63-5.4,2.9-6.07,5.96
		c-1.01,4.61-0.69,9.25,1.74,13.51c1.86,3.24,4.31,3.49,7.3,0.94C1406.13,1308.96,1406.41,1306.57,1409.63,1305.66z"/>
	<path class="st0" d="M428.02,1669.73c-7.74,1.27-13.38,4.87-19.72,6.97c-0.87-23.18,21.53-52.16,45.58-58.73
		c-0.87,5.37-3.58,9.53-6.81,12.8c-5.07,5.13-8.14,11.09-10.52,17.7c-1.22,3.39-3.05,6.59-4.77,9.78
		C429.9,1661.72,427.37,1664.9,428.02,1669.73z"/>
	<path class="st0" d="M1553.35,1464.75c-13.7-3.95-26.3-7.57-38.65-11.13c-1.49-4.12-2.86-7.8-4.16-11.51
		c-2.84-8.1-1.76-11.69,5.33-17.98C1534.35,1432.08,1549.13,1447.73,1553.35,1464.75z"/>
	<path class="st0" d="M816.09,765.22c4.12,4.39,8.48,0.69,13.26,1.21c0,5.69,0,11.4,0,17.66c-11.1-3.46-21.29-8.02-30.79-13.98
		c-8.35-5.23-10.33-13.33-8.89-22.56c0.4-2.56,1.98-4.09,4.7-4.11c2.02,1.43-0.46,3.02,0.54,5.06c8.2-2.57,16.21-6.44,26.13-7.37
		c-1.33,3.07-2.55,5.52-3.45,8.08c-0.87,2.49-1.66,5.06-2,7.66C815.22,759.8,814.98,762.83,816.09,765.22z"/>
	<path class="st0" d="M1210.79,1116.1c-0.75,9.47-10.13,18.1-3.99,28.55c7.26,0.31,10.89-5.35,16.03-8.12
		c3.7,0.95,5.36,2.9,3.38,6.47c-2.31,4.17-3.14,8.77-3.95,13.3c-1.03,5.73,2.01,8.37,7.46,6.62c3.44-1.1,6.67-2.91,9.93-4.52
		c2.68-1.33,5.11-3.35,7.92-4.16c6.47-1.87,11.18-0.96,14.14,5.43c2.07,4.47,4.02,9.03,4.03,15.22c-6-4.04-7.86-10.37-12.18-14.68
		c-4.74,0.77-7.82,4-11.42,6.21c-4.56,2.8-9.18,5.25-14.8,5.18c-7.39-0.1-10.25-2.23-11.32-9.64c-0.46-3.2-0.08-6.53-0.08-9.47
		c-2.71-2.2-4.86-0.22-7.02-0.3c-5.84-0.21-10.04-2.97-10.57-8.5c-1.05-11.12,2.14-20.86,11.29-28.01
		C1209.76,1115.58,1210.18,1115.86,1210.79,1116.1z"/>
	<path class="st0" d="M512.03,540.3c2.77,4.34,0.93,8-0.95,11.48c-3.46,6.41-7.14,12.69-10.71,19.04c-0.79,1.4-1.8,2.75-1.34,4.54
		c2.26,1.36,4.47,0.67,6.65-0.2c2.49-0.99,5.04-1.66,7.75-1.44c3.83,0.3,6.56,3.02,5.76,6.51c-0.88,3.83-1.92,7.92-4.05,11.12
		c-4.13,6.22-5.21,14.43-11.92,19.11c-3.51-5.11-3.51-5.11,0.4-23.41c-2.44-2.39-5.65-0.92-8.43-1.61c-3.9-0.97-5.65-2.94-5.64-7.01
		c0-2.29,0.2-4.71,0.96-6.84c3.58-10.04,8.53-19.4,15.12-27.81C507,542.01,508.55,540.11,512.03,540.3z"/>
	<path class="st0" d="M601.65,458.21c-0.19,0.45-0.43,0.87-0.73,1.26c-1.77,0.13-3.53,0.26-5.3,0.4l0.2,0.18
		c0.34-3.07,2.98-5.05,2.86-8.86c-0.09-3.18,3.88-6.64,6.4-9.69c3.59-4.34,7.53-8.41,11.28-12.62c4.34-4.87,9.88-7.77,15.92-9.89
		c2.25-0.79,4.47-0.73,7.35,0c-0.4,8.79,2.81,16.84,4.5,25.42c-7.15,2.03-13.64,3.25-18.64,5.7c-4.15-0.76-4.31-4.57-9.06-5.4
		C609.64,445.34,605.08,451.07,601.65,458.21z"/>
	<path class="st0" d="M1527.94,1355.62c-7.97-4.19-7.74-12.44-11.06-18.09c0.84-4.38,2.83-7.37,5.18-10.74
		c15.47,3.11,28.8,9.38,39.38,22.53C1549.73,1351.4,1538.1,1350.92,1527.94,1355.62z"/>
	<path class="st0" d="M853.64,619.79c-1.27-0.53-2.54-1.07-3.81-1.6c1.33-2.55,3.63-2.37,6.03-2.29c6.31,0.21,12.63,0.36,18.94,0.38
		c11.71,0.04,23.09-1.84,34.22-5.58c3.05-1.02,6.03-2.83,10.56-2.42c-2.68,4.84-6.37,7.87-9.95,10.85
		c-6.94,5.79-14.99,9.79-23.12,13.64c-3.71,1.76-6.82,1.47-10.22-0.87c-6-4.13-13.17-6.33-18.85-11.1
		C856.51,620.04,854.92,620.11,853.64,619.79z"/>
	<path class="st0" d="M548.62,475.54c0.5,5.01-0.46,8.1-4.41,8.75c-3.1,0.51-5.52,2.13-8.23,3.31c-7.62,3.31-14.43,1.53-20.04-4.11
		c-12.18-12.23-13.03-28.52-2.46-42.48c3.43-4.52,7.73-8.33,13.33-10.16c1.8-0.59,3.77-1.29,5.6,0.51c-0.94,3.53-4.57,4.6-6.64,7.1
		c-5.83,7.03-10.93,14.24-10.36,24.07c0.73,12.63,9.35,19.35,21.65,16.49C540.56,478.2,543.97,476.95,548.62,475.54z"/>
	<path class="st0" d="M1369.12,1256.07c-10.36-3.89-15.06-13.64-24.51-17.61c-5.88,2.53-12.18,4.35-18.99,3.77
		c-8.94-0.77-13.76-5.7-14.32-14.65c-0.45-7.21,0.79-13.97,4.82-19.99c2.54-3.8,5.64-7.1,10.39-7.54c1.82,2.44,0.59,3.74-0.52,4.91
		c-4.81,5.06-6.78,11.42-7.82,18.01c-1.08,6.8,2.4,12.03,9.95,11.33c3.36-0.31,6.58-0.63,9.61-2.21c6.89-3.59,12.87-1.97,18.04,3.42
		C1361.19,1241.14,1367.97,1245.88,1369.12,1256.07z"/>
	<path class="st0" d="M1515.08,1565.76c-10.29-4.27-20-7.17-28.8-9.34c-2.55-1.54-2.73-3.25-3.25-4.81
		c-2.89-8.65,2.09-17.83,10.91-19.76c3.02-0.66,6.09-0.57,8,2.47C1507.82,1543.73,1514.4,1552.87,1515.08,1565.76z"/>
	<path class="st0" d="M565.08,296.31c-4.57-5.73-4.02-10.59-2.39-15.38c1.83-5.36,5.72-9.02,11.06-10.71
		c14.44-4.57,25.12,3.53,29.84,15.87c3.86,10.08,1.23,19.61-3.13,28.85c-2.39,5.07-5.08,10.01-4.3,16.17
		c-3.46-0.32-4.29-2.18-4.66-4.62c-0.66-4.5,1.04-8.54,2.44-12.59c2.19-6.32,4.23-12.67,3.4-19.45c-1.07-8.76-4.5-15.9-13.72-18.9
		c-8.04-2.62-15.8,1.33-17.62,9.51C565.3,288.24,565.43,291.61,565.08,296.31z"/>
	<path class="st0" d="M1451.09,1600.12c7.11,10.87,14.77,21.59,15.91,36.27c-11.8-2.35-19.83-10.33-28.86-15.65
		C1435.53,1606.54,1438,1602.67,1451.09,1600.12z"/>
	<path class="st0" d="M1528.52,1240.87c-7.77,6.81-14.77,13.37-23.81,17.21c-7.44,3.16-8.95,2.71-12.36-4.5
		c-0.85-1.8-1.82-3.61-2.21-5.53c-1.41-6.98,3.04-12.43,10.26-12.43c4.31,0,8.71,0.04,12.9,0.91
		C1518.13,1237.53,1523.22,1237.83,1528.52,1240.87z"/>
	<path class="st0" d="M1025.29,285.21c0.51-3.14,3.62-3.54,5.55-5.14c3.58-2.96,5.29-6.6,5.22-11.29
		c-0.12-7.71-4.48-11.67-12.1-10.69c-12.42,1.59-23.81,19.1-20.22,31.02c0.71,2.37,2.49,3.87,4.09,5.53
		c2.77,2.86,5.8,5.49,7.77,9.04c3.13,5.64,2.49,8-4.64,13.91c2.71-8.97-1.15-14.75-6.87-19.77c-3.79-3.33-4.89-7.61-4.76-12.55
		c0.36-13.66,5.63-24.45,17.88-31.17c6-3.3,12.34-3.69,17.69,1.05c5.25,4.66,7.7,10.8,5.91,17.97c-1.74,6.99-7.36,11.77-14.66,12.68
		C1025.89,285.82,1025.6,285.44,1025.29,285.21z"/>
	<path class="st0" d="M1237.22,1009.42c10.95-8.86,23.29-14.43,38.15-17.37c-3.61,5.91-7.19,10.81-9.74,16.2
		c-2.65,5.62-4.31,11.71-6.4,17.61C1246.71,1020.71,1244.06,1018.74,1237.22,1009.42z"/>
	<path class="st0" d="M1416.86,1150.53c4.3-0.5,8.24-2.24,12.32-3.52c9.32-2.93,18.7-5.81,29.82-4.28
		c-3.71,4.83-6.99,8.82-9.94,13.05c-2.78,3.99-3.72,9.2-8.66,12.84c-9.81-3.22-16.59-10.71-23.27-18.31L1416.86,1150.53z"/>
	<path class="st0" d="M1042.35,891.95c-5.92-5.99-14.54-8.62-20.88-14.89c6.5-10.99,14.17-19.69,27.38-24.27
		c-1.3,6.15-2.48,11.16-3.4,16.21c-1.13,6.18-2.45,12.36-0.5,18.67C1045.5,889.43,1044.38,890.82,1042.35,891.95z"/>
	<path class="st0" d="M517.46,100.74c1.69,15.41,0,29.77-1.36,44.75c5.84,0.46,10.91,0.39,16.12-0.67c4.93-1.01,6.82,0.65,7.13,5.58
		c0.51,8.04-1.38,15.67-4.22,23.93c-4.61-7.44-2.12-15.24-3.44-22.02c-5.04,0-9.57,0.17-14.09-0.05c-5.15-0.25-6.82-2.13-7.48-7.37
		c-0.68-5.38,0.9-10.52,1.44-15.77c0.71-6.91,1.75-13.78,2.48-20.68C514.33,105.8,514.81,103.4,517.46,100.74z"/>
	<path class="st0" d="M504.84,55.77c-7.66,9.8-16.96,9.66-23.48-0.35c-7.67-11.77-6.91-23.64,2.16-34.68
		c1.89-2.3,3.54-4.81,5.41-7.14c3.28-4.1,3.41-4.08,10.36-0.57c-1.5,6.23-5.13,10.91-10.03,15.13c-6.03,5.19-7.64,13.5-4.75,20.71
		c2.88,7.17,7.09,9.16,14.83,7.21C501.1,55.64,502.91,53.88,504.84,55.77z"/>
	<path class="st0" d="M979.96,1063.12c-0.84,2.92-3.68,4.3-5.44,6.51c-3.93,4.91-7.99,9.62-9.44,16.14
		c-0.83,3.73-0.83,7.06,0.18,10.69c3.09,11.1,6.89,14.05,18.43,13.74c2.29-0.06,4.58-0.21,6.71-0.32c1.77,2.94-0.57,3.79-1.97,4.89
		c-11.16,8.8-21.15,3.27-26.22-5.04c-6.46-10.58-6.53-21.43,0.18-31.94c3.59-5.62,8.56-10.11,13.83-14.19
		C977.13,1062.9,978.27,1061.81,979.96,1063.12z"/>
	<path class="st0" d="M1089.86,565.11c-4.21-10.59-14.61-17.03-19.99-27.13c5.79,0.9,8.74,5.55,12.51,8.78
		c4.22,3.62,7.84,8.13,10.99,12.75c4.03,5.9,2.83,9.42-3.25,12.98c-3.11,1.82-6.88,2.66-9.38,6.54
		c7.16,7.39,13.95,15.32,16.83,25.67c0.25,0.9-0.59,1.83-2.48,2.26c-7.87-6.94-14.72-15.18-18.71-25.56
		c-1.48-3.85,0.15-7.01,4.17-10.11C1083.39,569.1,1087.61,569.09,1089.86,565.11z"/>
	<path class="st0" d="M1270.96,117.93c4.94,1.48,6.36,4.16,6.35,7.86c-0.01,2.99-0.29,6.02,0.11,8.95
		c1.61,11.6,6.66,20.69,18.53,24.74c3.96,1.35,8.34,1.78,12.01,4.6c-9.83,4.72-20.06,3.07-27.54-4.95
		C1269.62,147.56,1266.98,133.89,1270.96,117.93z"/>
	<path class="st0" d="M1477.46,1376.13c-0.9,6.49-1.69,11.65-3.67,16.59c-2.43,6.07-6.31,10.87-12.2,13.82
		c-6.61,3.32-13.21,1.52-17.33-4.56c-5.94-8.78-6.86-24.54-1.56-34.63c1.71,3.14,0.51,5.98,0.53,8.55
		c0.05,6.71,0.85,13.22,3.92,19.26c2.9,5.71,7.97,6.75,12.97,2.62c4.41-3.64,7.32-8.48,10.31-13.27
		C1472.11,1381.81,1472.78,1378.25,1477.46,1376.13z"/>
	<path class="st0" d="M1052.71,172.97c-1.45,11.88-1.34,22.86-4.49,33.37c-0.17,0.56-0.8,0.98-1.21,1.46
		c-3.3-9.88-2.26-29.38,2.32-39.29c7.54-1.48,15.32,0.39,23.68,0.86c2.87-13.8-1.3-27.64,1.92-41.11
		c1.45,10.67,3.12,21.33,4.21,32.04c0.32,3.16-0.82,6.52-1.58,9.73c-0.5,2.15-2.36,3.21-4.43,3.43c-3.29,0.35-6.63,0.62-9.87-0.43
		C1059.98,171.95,1056.79,172.37,1052.71,172.97z"/>
	<path class="st0" d="M963.29,811.48c9.44-6.92,19.31-10.69,31.37-13.55c-5.88,11.7-12.8,21.73-13.63,35.63
		C975.19,825.36,970.01,818.4,963.29,811.48z"/>
	<path class="st0" d="M310.79,234.13c0.04-3.28,1.94-5.32,4.36-7.22c7.13-5.6,10.91-13.19,12.36-21.99
		c1.1-6.72,4.73-12.07,9.5-19.04c2.11,12.87,1.92,23.57-4.32,33.56C327.04,228.48,320.27,233.03,310.79,234.13z"/>
	<path class="st0" d="M1094.16,78.88c9.02-0.99,15.83-3.83,21.2-9.93c7.13-8.09,8.23-16.36,2.65-25.46
		c-1.72-2.8-4.04-5.23-6.11-7.81c-1.67-2.08-3.46-4.1-1.79-7.83c5.39,5.46,10.65,10.38,14.31,17.06
		c7.33,13.39-3.82,34.89-16.98,38.07C1102.09,84.27,1100.71,84.11,1094.16,78.88z"/>
	<path class="st0" d="M552.51,1125.9c-1.9-1.84-1.07-4.27-1.02-6.41c0.19-7.29-0.05-14.55-2.54-21.46
		c-1.74-4.83,1.57-8.94,0.81-13.53c6.05,0.45,8.88,4.24,10.37,8.94c3.45,10.85,3.63,21.41-4.28,30.74
		c-0.62,0.73-1.48,1.28-2.29,1.83C553.35,1126.15,552.92,1125.95,552.51,1125.9z"/>
	<path class="st0" d="M1452.8,1439.8c-0.66-3.49-0.9-6.46-1.8-9.21c-1.72-5.23-6.53-6.61-11.06-3.32c-3.01,2.19-4.99,5.29-6.91,8.42
		c-1.33,2.17-2.06,4.81-5.07,6.82c-1.69-8.54,0.6-15,6.09-20.46c4.79-4.77,11.08-5.84,16.36-2.94c5.43,2.98,7.96,8.72,6.46,15.3
		C1456.46,1436.23,1456.09,1438.35,1452.8,1439.8z"/>
	<path class="st0" d="M592.63,898.44c1.56,9,0.1,17.67,2.79,26.01c-3.36,2.4-5.87,1.47-7.85-1.22c-4.74-6.43-8.39-13.35-8.85-21.9
		C582.69,898.91,586.91,897.68,592.63,898.44z"/>
	<path class="st0" d="M1406.67,341.1c-5.44-12.16-9.55-22.58-14.69-32.46c-4.98-9.58-11.03-18.6-16.08-28.23
		c7.7,5.15,13.63,11.8,17.63,19.99c4.36,8.93,8.33,18.04,12.55,27.03C1407.85,331.17,1408.6,334.94,1406.67,341.1z"/>
	<path class="st0" d="M1363.04,1070.08c-3.59,7.97-8,14.75-11.56,22.2c-6.76-0.61-12.27-2.03-16.46-6.98
		c1.81-3.81,5.35-5.36,8.45-6.9C1349.8,1075.25,1356.49,1072.81,1363.04,1070.08z"/>
	<path class="st0" d="M1107.37,899.29c-0.72,3.75-1.29,6.28-1.67,8.84c-0.39,2.62-2.06,4.1-4.24,5.13
		c-4.8,2.26-9.62,4.49-14.47,6.65c-2.04,0.91-3.86,0.63-5.03-1.53C1085.98,910.29,1092.63,905.18,1107.37,899.29z"/>
	<path class="st0" d="M1345.48,1637.92c12.32-8.48,20.42-18.48,31.01-27.9c0.83,6.66-0.98,11.09-4.55,14.94
		C1365.38,1632.03,1358.06,1637.69,1345.48,1637.92z"/>
	<path class="st0" d="M1412.16,1527.71c12.06,2.25,14.05,5.79,9.61,12.98c-3.83,6.2-8.42,11.82-15.22,16.9
		c-0.41-5.08,1.6-8.65,3.15-12.28C1411.96,1540.04,1417.51,1535.75,1412.16,1527.71z"/>
	<path class="st0" d="M1046.86,1068.8c4.96,2.34,7.93,6.86,11.01,11.03c3.1,4.2,6.26,7.6,12.21,6.56c0.07,4.66-2.27,6.65-5.71,7.54
		c-3.07,0.79-4.98-1.19-6.56-3.42c-3.81-5.4-7.57-10.83-11.31-16.28C1045.3,1072.48,1044.98,1070.66,1046.86,1068.8z"/>
	<path class="st0" d="M880.33,965.36c-12.73-3.25-13.37-4.32-11.03-17.4c0.46-2.56,0.12-5.31,1.88-7.54
		c0.19-0.24,0.53-0.36,1.3-0.86c2.85,6.2-3.02,12.67,0.68,18.56c1.49,1.71,3.58,1.23,5.51,1.51c6.74,0.95,7.53,1.92,6.93,9.08
		c-0.29,3.5,0.39,7.33-2.74,10.17C880.12,974.9,882.47,970.01,880.33,965.36z"/>
	<path class="st0" d="M1041.35,1062.95c-4.34-10-3.23-20.47-3.11-30.9c3.48-0.28,4.75,2.03,4.8,4.18
		c0.21,8.78,1.23,17.61-0.55,26.35C1042.46,1062.74,1041.89,1062.78,1041.35,1062.95z"/>
	<path class="st0" d="M750.42,950.18c0.96,1.87,0.59,2.96-0.49,3.93c-1.94,1.74-3.95,3.41-5.74,5.29
		c-4.97,5.22-5.42,5.37-11.57,1.75c-1.9-1.12-4.16-1.95-5.07-5.05C735.76,956.06,742.91,952.17,750.42,950.18z"/>
	<path class="st0" d="M499.33,620.73c4.09,4.61,5.12,9.01,3.16,12.52c-1.24,2.23-3.28,3.3-5.77,2.75c-2.19-0.49-3.08-2.34-3.13-4.45
		C493.48,627.14,494.01,622.97,499.33,620.73z"/>
	<path class="st0" d="M1017.17,448.17c-3.37,0.03-7.08-3.74-6.89-7.01c0.15-2.74,3.31-5.49,6.13-5.35c3.1,0.16,5.98,3.24,6.22,6.65
		C1022.85,445.42,1020.23,448.15,1017.17,448.17z"/>
	<path class="st0" d="M595.62,459.86c-0.11,0.94,0.12,2.13-0.37,2.79c-4.9,6.66-9.86,13.27-13.69,20.64
		c-0.61,1.18-1.7,1.98-3.11,2.13c0.47-8.8,7.97-19.78,17.37-25.38L595.62,459.86z"/>
	<path class="st0" d="M489.09,685.72c-6.77-0.21-9.06-1.57-9.81-5.76c-0.36-2.01,0-3.96,1.93-5.06c1.48-0.85,3.15-0.73,4.63,0.19
		C489.64,677.44,491.03,680.67,489.09,685.72z"/>
	<path class="st0" d="M991.84,1087.81c-0.09,3.45-2.15,5.99-5.09,6.24c-2.59,0.22-4.72-2.15-4.64-5.16
		c0.08-3.13,2.49-6.14,5.08-6.37C989.52,1082.32,991.91,1085.04,991.84,1087.81z"/>
	<path class="st0" d="M1181.41,746.38c-0.07-3.5,1.49-5.61,4.14-5.59c2.61,0.03,4.78,2.28,4.97,5.15c0.21,3.21-2.1,5.98-5.04,6.05
		C1182.89,752.07,1181.49,750.13,1181.41,746.38z"/>
	<path class="st0" d="M1148.32,741.72c2.95,0.07,4.97,2.06,4.89,4.82c-0.09,3.12-2.6,5.58-5.57,5.47c-2.62-0.1-4.28-2.28-4.14-5.48
		C1143.63,743.39,1145.37,741.65,1148.32,741.72z"/>
	<path class="st0" d="M480.34,74.19c-2.72-0.25-4.79-2.53-4.76-5.23c0.03-2.67,2.51-5.22,4.91-5.04c2.41,0.18,4.76,2.83,4.76,5.36
		C485.24,71.98,482.8,74.41,480.34,74.19z"/>
	<path class="st0" d="M1134.58,1105.54c-0.1,2.63-2.6,4.76-5.31,4.55c-2.74-0.21-3.99-2.04-4.4-4.42c-0.39-2.27,2.27-4.93,4.82-5.13
		C1132.03,1100.35,1134.68,1103.06,1134.58,1105.54z"/>
	<path class="st0" d="M244.88,404.1c-1.04,8.08-2.58,15.99-6.28,23.33C237.55,418.86,241.15,411.45,244.88,404.1z"/>
	<path class="st0" d="M541.26,456.09c0.18,2.75-1.63,5.41-4.16,5.69c-2.51,0.27-3.3-1.55-3.55-3.61c-0.44-3.52,0.83-5.93,3.14-6.14
		C538.9,451.81,541.1,453.77,541.26,456.09z"/>
	<path class="st0" d="M686.3,425.35c-5.2,2.41-9.47-1.46-15.56-1.54C683.43,418.84,683.67,418.88,686.3,425.35z"/>
	<path class="st0" d="M1249.28,1152.56c-3.66-3.32-4.39-6.1-1.35-9.03c1.49-1.44,3.14-0.81,4.14,0.66
		C1254.48,1147.76,1252.64,1150.1,1249.28,1152.56z"/>
	<path class="st0" d="M1179.65,670.14c-0.19,2.64-2.38,4.38-4.76,3.92c-2.77-0.54-3.66-2.53-3.33-5.05c0.29-2.24,1.71-3.4,4.05-3.12
		C1178.27,666.2,1179.69,667.65,1179.65,670.14z"/>
	<path class="st0" d="M501.67,756.08c-2.59-0.06-4.24-1.87-4.03-4.47c0.19-2.27,1.45-3.56,3.72-3.78c2.61-0.25,4.44,1.39,4.53,3.97
		C505.98,754.38,504.25,756.14,501.67,756.08z"/>
	<path class="st0" d="M1435.77,1506.1c0,2.36-1.98,4.66-3.91,4.54c-2.28-0.14-3.97-2.22-3.73-4.71c0.2-2.09,1.19-3.66,3.42-4.01
		C1433.75,1501.57,1435.77,1503.62,1435.77,1506.1z"/>
	<path class="st0" d="M1105.52,613.92c2.6,0.47,3.89,2.17,3.78,4.79c-0.1,2.36-1.65,3.45-3.92,3.38c-2.52-0.07-4.16-2.05-3.83-4.63
		C1101.83,615.24,1103.03,613.89,1105.52,613.92z"/>
	<path class="st0" d="M1179,1141.04c-1.95,0.05-4.48-2.43-4.21-4.58c0.25-1.94,1.11-4.03,3.59-3.83c2.18,0.18,3.33,1.79,3.51,4
		C1182.07,1138.85,1181.3,1140.45,1179,1141.04z"/>
	<path class="st0" d="M1111.34,92.11c-1.99-0.07-3.08-1.24-3.08-3.09c0-1.86,1.13-2.99,3.09-3.07c2.26-0.09,4.01,1.64,3.63,3.57
		C1114.67,91.11,1113.16,92.18,1111.34,92.11z"/>
	<path class="st0" d="M1062.34,194.49c-2.39-0.39-3.48-1.83-3.13-4.06c0.34-2.14,1.74-3.55,4.03-3.11c1.71,0.33,2.76,1.72,2.61,3.54
		C1065.68,192.98,1064.76,194.57,1062.34,194.49z"/>
	<path class="st0" d="M1459.81,1367.89c-0.16,2.24-1.23,3.58-3.03,3.59c-1.78,0.01-3.03-1.27-3.06-3.17
		c-0.04-2.38,1.44-3.69,3.65-3.64C1459.45,1364.71,1459.72,1366.54,1459.81,1367.89z"/>
	<path class="st0" d="M582.9,298.04c-1.91,6.87-1.91,6.87-9.42,2.72C576.57,299.87,579.11,299.14,582.9,298.04z"/>
	<path class="st0" d="M1379.76,311.22c3.28,2.3,4.7,5.32,5.65,10.13C1380.84,318.27,1379.73,314.98,1379.76,311.22z"/>
	<path class="st0" d="M782.18,598.22c-3.83,0.43-6.27-0.1-8.91-1.36c0.51-0.83,0.79-1.97,1.43-2.23
		C777.86,593.37,777.89,593.45,782.18,598.22z"/>
	<path class="st0" d="M526.83,123.15c-1.89-1.34-3.97-2.62-1.74-5.23c0.63-0.74,1.66-1.01,2.52-0.21
		C529.92,119.86,529.16,121.61,526.83,123.15z"/>
	<path class="st0" d="M545.68,728.5c-0.04,1.39-1.46,2.6-2.94,2.6c-1.48-0.01-2.93-1.24-2.92-3.16c0.01-1.93,1.47-3.14,2.95-3.13
		C544.24,724.82,545.68,726.02,545.68,728.5z"/>
	<path class="st0" d="M1340.83,1215.9c-1.21-0.24-2.47-0.66-2.29-2.25c0.15-1.33,1.17-2.45,2.44-2.5c1.25-0.05,2.45,0.89,2.39,2.35
		C1343.32,1214.89,1342.24,1215.62,1340.83,1215.9z"/>
	<path class="st0" d="M1227.67,1111.05c-0.2,1.01-0.67,1.88-1.77,1.94c-1.45,0.09-2.67-0.71-2.87-2.05c-0.21-1.39,0.86-2.4,2.3-2.4
		C1226.84,1108.54,1227.48,1109.65,1227.67,1111.05z"/>
	<path class="st0" d="M1209.76,111.94c-3.32-0.21-3.74-3.22-6.12-6.6c4.13,1.78,6.23,3.2,5.93,6.78L1209.76,111.94z"/>
	<path class="st0" d="M601.63,858.75c-0.47,1.28-1.37,2.32-2.76,1.93c-0.68-0.19-1.44-1.38-1.51-2.18
		c-0.17-1.84,1.32-1.92,2.63-1.75C601.03,856.88,601.63,857.61,601.63,858.75z"/>
	<path class="st0" d="M1124.48,14.51c-1.16,3.06-2.88,3.07-6.06,1.24C1120.7,13.87,1122.4,13.8,1124.48,14.51z"/>
	<path class="st0" d="M521.58,169.07c1.2-0.26,1.64,0.67,2.01,1.53c0.58,1.36,0.16,2.73-1.15,3.17c-1.21,0.4-2.57-0.06-2.67-1.79
		C519.69,170.62,520.02,169.47,521.58,169.07z"/>
</g>
</svg>
