<?xml version="1.0" encoding="utf-8"?>
<!-- Generator: Adobe Illustrator 24.1.1, SVG Export Plug-In . SVG Version: 6.00 Build 0)  -->
<svg version="1.1" id="Layer_1" xmlns="http://www.w3.org/2000/svg" xmlns:xlink="http://www.w3.org/1999/xlink" x="0px" y="0px"
	 width="47.41" height="38.1" viewBox="0 0 47.41 38.1" style="enable-background:new 0 0 47.41 38.1;" xml:space="preserve">
<path d="M46.25,20.67c-0.59,1.19-1.38,2.27-2.28,3.23c-2.02,2.14-0.81,5.25-2.29,7.8c-0.97,1.66-1.84,3.62-3.35,4.88
	c-2.17,1.82-3.88,0.73-6.28,0.08c-2.9-0.78-11.38,2.25-14.54,1.23c-0.81-0.26-4.46,0.27-6.06-0.08c-2.16-0.46-4.31-2.36-5.41-4.16
	c-1.18-1.95-2.9-3.75-3.85-5.68C1.16,25.91,0.1,23.75,0,21.39c-0.09-2.16,1.58-4.18,2.64-5.98c1.08-1.83-0.81-4.24,0.1-6.07
	c0.61-1.22,1.37-1.69,1.88-3.03c0.56-1.48,0.83-1.7,2.41-2.41c2.08-0.93,4.54-1.22,6.81-1.39c0.95-0.07,2.05,0.26,2.92-0.04
	c1.24-0.43,2.02-1.28,3.36-1.66c1.72-0.48,2.84-0.6,4.58-0.44c1.68,0.16,3.38-0.54,5.04-0.33c0.98,0.12,1.41,1.04,2.23,1.73
	c0.7,0.58,1.58,0.94,2.17,1.62c0.8,0.94,0.78,1.7,1.81,2.3c2.6,1.51,5.9,0.98,8.01,3.45c1.67,1.97,3.64,4.75,3.42,7.46
	C47.28,18.05,46.87,19.42,46.25,20.67z"/>
</svg>
