<?xml version="1.0" encoding="utf-8"?>
<!-- Generator: Adobe Illustrator 24.0.2, SVG Export Plug-In . SVG Version: 6.00 Build 0)  -->
<svg version="1.1"
	 id="svg2265" inkscape:version="0.43" sodipodi:docbase="C:\foo\wikipedia\transfer" sodipodi:docname="Silhouette.svg" sodipodi:version="0.32" xmlns:cc="http://web.resource.org/cc/" xmlns:dc="http://purl.org/dc/elements/1.1/" xmlns:inkscape="http://www.inkscape.org/namespaces/inkscape" xmlns:rdf="http://www.w3.org/1999/02/22-rdf-syntax-ns#" xmlns:sodipodi="http://inkscape.sourceforge.net/DTD/sodipodi-0.dtd" xmlns:svg="http://www.w3.org/2000/svg"
	 xmlns="http://www.w3.org/2000/svg" xmlns:xlink="http://www.w3.org/1999/xlink" x="0px" y="0px" width="82.97" height="240.7" viewBox="0 0 82.97 240.7"
	 style="enable-background:new 0 0 82.97 240.7;" xml:space="preserve">
<sodipodi:namedview  bordercolor="#666666" borderopacity="1.0" id="base" inkscape:current-layer="svg2265" inkscape:cx="61.124515" inkscape:cy="116.53524" inkscape:pageopacity="0.0" inkscape:pageshadow="2" inkscape:window-height="540" inkscape:window-width="812" inkscape:window-x="66" inkscape:window-y="66" inkscape:zoom="1.1298716" pagecolor="#ffffff">
	</sodipodi:namedview>
<path id="path2279" d="M22.42,239.77c-0.35-0.57-0.35-2.55,0-4.42c0.46-2.46,0.04-4.56-1.57-7.7c-2.12-4.15-2.17-4.99-1.48-22.54
	c0.71-18.1,0.7-18.23-1.48-19.4l-2.2-1.18l0.21-31.66c0.11-17.41,0.16-32.84,0.1-34.29c-0.07-1.65-1.78-4.36-4.59-7.3
	c-2.46-2.57-6.12-7.6-8.12-11.18c-3.34-5.96-3.59-6.99-3.07-12.2c0.31-3.13,0.82-9.29,1.13-13.69c0.53-7.61,4.12-27.4,5.15-28.44
	c0.27-0.27,2.38-1.21,4.69-2.09c5.38-2.05,18.7-10.8,19.47-12.8c0.32-0.84-0.15-3.58-1.04-6.1c-3.39-9.54-3.27-12,0.87-18.26
	c4.18-6.33,5.81-7.08,13.49-6.23c7.38,0.82,9.77,1.95,10.53,4.97c0.86,3.42-0.19,13.43-1.55,14.79c-0.58,0.58-1.06,3.33-1.05,6.11
	c0,6.3,2.88,11.55,6.33,11.55c3.32,0,7.52,2.3,12.08,6.61c3.8,3.59,3.94,3.96,4.63,12.3c0.98,11.81,4.02,22.06,7.18,24.19
	c1.2,0.81,1.16,3.37-0.18,10.41c-0.63,3.3-1.33,7.34-1.57,8.98c-0.24,1.64-1.34,4.21-2.45,5.71c-1.11,1.5-2.02,3.39-2.02,4.19
	c0,2.81-1.27,4.71-4.12,6.18l-2.88,1.49v13.03c0,7.17,0.43,16.04,0.95,19.72c0.52,3.68,1.16,12.49,1.41,19.57
	c0.45,12.37,0.37,12.96-1.79,15c-2.93,2.75-4.04,9.95-3.68,23.92c0.19,7.38-0.11,11.27-0.94,12.27c-0.67,0.81-1.22,3.32-1.22,5.6
	c0,3.62,0.51,4.55,4.14,7.57c6.79,5.64,5.96,6.27-8.19,6.27H47.22l1.01-5.55c0.77-4.24,0.67-6.78-0.4-10.75
	c-0.93-3.42-1.42-10.56-1.43-20.9c-0.01-10.18-0.41-16.09-1.13-16.81c-0.74-0.74-2.24-0.82-4.5-0.24l-3.39,0.87l-0.79,12.94
	c-0.49,8.05-0.4,15.19,0.23,18.89c0.82,4.78,0.74,6.38-0.41,8.13c-0.79,1.2-1.57,4.6-1.73,7.55l-0.31,5.37l-5.66,0.3
	C25.58,240.66,22.77,240.34,22.42,239.77z"/>
</svg>
