<?xml version="1.0" encoding="UTF-8" standalone="no"?>
<!-- Created with Inkscape (http://www.inkscape.org/) -->

<svg
   xmlns:svg="http://www.w3.org/2000/svg"
   xmlns="http://www.w3.org/2000/svg"
   version="1.1"
   width="280"
   height="1030"
   id="svg2">
  <defs
     id="defs6" />
  <path
     d="m 89.226967,1026.4961 -7.870735,-0.3979 0.665393,-4.2057 c 0.365966,-2.3132 1.504601,-6.9339 2.530301,-10.2683 6.16837,-20.05257 7.479572,-34.63372 5.574658,-61.99279 -0.658378,-9.45587 -0.480559,-12.20461 1.229132,-19 1.601486,-6.36531 1.829128,-9.17174 1.14506,-14.11657 -0.469595,-3.3945 -1.533476,-19.5945 -2.364181,-36 -1.601948,-31.6367 -2.579513,-41.09789 -8.06142,-78.02106 -3.392551,-22.8504 -3.944101,-33.06151 -3.57545,-66.19399 0.0689,-6.19277 4.237076,-30.93579 7.082543,-42.04325 l 1.930246,-7.53484 -3.512304,-8.77872 c -4.460391,-11.14839 -7.883696,-26.12247 -10.412188,-45.54458 -1.094677,-8.40853 -1.990321,-15.68667 -1.990321,-16.17363 0,-0.48697 -1.979445,-0.80879 -4.398767,-0.71515 -5.471604,0.21176 -7.913018,-1.79326 -9.623797,-7.90356 -1.353941,-4.8358 -5.996023,-9.13761 -9.263131,-8.58412 -1.006466,0.17051 -3.63044,-1.33368 -5.894165,-3.37882 -6.370773,-5.75561 -14.068582,-8.86578 -22.064964,-8.91497 l -6.744825,-0.0415 -0.0052,-4.86798 c -0.0043,-4.01764 -0.548731,-5.48706 -3.116841,-8.41198 -2.7580248,-3.14122 -3.0601437,-4.08019 -2.6583273,-8.26197 0.2848831,-2.96484 1.6062705,-6.52764 3.5560513,-9.58803 8.869067,-13.92095 8.458177,-12.73828 9.845077,-28.33739 0.710645,-7.99296 1.759986,-19.25765 2.331868,-25.03265 0.743982,-7.5129 0.722039,-12.77589 -0.07713,-18.5 l -1.116918,-8 3.138312,-5.0462 c 4.906584,-7.88948 5.675575,-14.39245 4.164752,-35.21924 -1.152042,-15.88096 -1.111374,-18.67648 0.388922,-26.73501 2.823528,-15.16597 6.393473,-29.43415 10.508424,-41.99955 6.85216,-20.92372 7.518681,-29.67783 3.488555,-45.81878 -4.671529,-18.70982 -6.171975,-22.34176 -10.276391,-24.87476 -8.881455,-5.48111 -14.261699,-12.30638 -15.649761,-19.85297 -0.555336,-3.01925 0.08209,-4.58068 5.069384,-12.41789 C 34.07361,246.63321 38.29846,234.53266 37.07393,223.98204 l -0.69495,-5.98773 -3.640651,3.47794 c -4.851699,4.63486 -7.184648,5.71547 -12.32491,5.70882 -6.782365,-0.009 -11.7625668,-1.85225 -15.740036,-5.82638 -2.019098,-2.01742 -2.5246356,-2.67941 -1.123394,-1.47109 3.9903528,3.44098 9.484721,5.30305 15.647559,5.30305 7.013083,0 11.075825,-2.29895 14.34633,-8.11802 l 2.369997,-4.21684 -2.380593,1.66743 c -3.87929,2.71716 -9.590836,2.16602 -13.012504,-1.25565 -1.607692,-1.60769 -2.91283,-3.74519 -2.900307,-4.75 0.0152,-1.21928 0.541623,-0.77491 1.582746,1.33603 2.115393,4.2891 6.151763,5.90229 10.871096,4.34477 1.976826,-0.65241 4.20999,-2.15854 4.962586,-3.34696 1.867468,-2.9489 5.585409,-17.62651 6.626705,-26.16076 0.469753,-3.85 1.330945,-10.825 1.91376,-15.5 0.582815,-4.675 2.019481,-11.1244 3.192592,-14.332 2.036292,-5.56777 2.080717,-6.47391 0.980524,-20 C 45.475048,106.87981 44.357252,82.545239 44.986693,74.686652 46.011054,61.897481 49.035096,50.527554 54.535026,38.786406 59.060403,29.125716 60.576759,26.963097 67.869375,19.769044 77.413049,10.354357 83.02659,7.2860766 92.951487,6.0595267 96.881905,5.5737933 102.1227,4.7482853 104.5977,4.2250644 116.01217,1.812019 126.61839,3.658933 133.74065,9.2998716 145.06131,18.265999 157.60703,39.19285 162.2712,56.890148 c 2.41912,9.178893 2.62819,11.845434 3.31636,42.296505 0.71773,31.759367 0.80306,32.762067 3.74447,43.999997 1.65549,6.325 4.3639,14.48148 6.01867,18.12551 l 3.00868,6.62551 9.36916,0.43994 c 8.12118,0.38135 10.50136,0.94159 17.86916,4.20597 11.21316,4.96811 14.00933,7.24263 17.38908,14.14498 7.71256,15.75109 10.30109,29.09103 11.78766,60.74731 0.92352,19.66647 0.89507,29.17246 -0.13771,46 -0.71598,11.66593 -1.51139,24.86342 -1.76756,29.32775 -0.60474,10.53866 1.77808,19.3966 9.01429,33.50988 10.40362,20.29091 18.06401,58.79674 20.66464,103.87315 0.58704,10.175 1.23961,21.35085 1.45016,24.83523 0.3049,5.04585 0.98653,7.18287 3.34909,10.5 3.82318,5.36789 5.31434,10.07936 5.70383,18.02176 0.17274,3.52251 1.33752,9.85206 2.58841,14.06568 1.72322,5.80469 1.9937,7.94174 1.11622,8.81922 -0.63696,0.63696 -1.15811,2.9929 -1.15811,5.23543 0,3.27869 -0.58761,4.59293 -3,6.70977 -2.25283,1.97682 -3,3.49797 -3,6.10767 0,2.58863 -0.62778,3.88656 -2.46074,5.08756 -1.47723,0.96792 -2.91783,3.30987 -3.60441,5.85963 -0.82558,3.06598 -2.64661,5.63945 -6.54734,9.25267 -2.97201,2.75296 -5.40002,5.54132 -5.39558,6.19636 0.0125,1.84611 -1.93024,2.6051 -3.44671,1.34655 -1.03092,-0.85559 -1.56856,-0.81528 -2.18603,0.16391 -1.50305,2.38355 -0.65177,16.20084 1.50728,24.46517 2.48306,9.50455 2.7464,18.24755 0.67052,22.26187 -1.66916,3.22779 -3.32548,4.07152 -7.99282,4.07152 -1.81075,0 -5.36069,1.15607 -7.88877,2.56904 -4.84535,2.70811 -9.59251,3.43049 -13.51031,2.05585 -2.28034,-0.80009 -2.33349,-0.69948 -1.67852,3.17721 0.6579,3.89408 0.55177,4.0892 -3.88411,7.14117 -5.88594,4.04963 -11.25667,5.90915 -15.33246,5.3086 -2.0389,-0.30042 -3.25,-0.0559 -3.25,0.65607 0,2.44272 -4.48867,3.33255 -8.45372,1.67584 -5.49522,-2.29605 -6.37446,-2.02926 -7.13911,2.16622 -2.24556,12.32102 -15.45006,41.11811 -29.46092,64.25 -17.24471,28.47096 -17.35667,28.82618 -14.42993,45.78573 0.83398,4.83264 1.9612,18.22034 2.50495,29.75044 0.54374,11.53011 1.63147,25.23883 2.41718,30.46383 1.87577,12.47401 1.92002,36.04367 0.0905,48.18106 -0.80261,5.32458 -2.63657,14.23988 -4.07544,19.81178 -2.56063,9.91574 -2.58358,10.29039 -1.08164,17.65539 0.84397,4.13858 3.55035,11.87328 6.01416,17.18823 5.79959,12.51088 7.96356,20.13518 7.12447,25.10166 -0.35908,2.12543 -2.64329,7.20898 -5.076,11.29678 -5.28852,8.88655 -6.57472,14.69304 -6.30515,28.46446 0.22698,11.59579 -0.40388,13.03159 -5.92924,13.49489 -3.38701,0.2839 -3.70423,0.5935 -4.43842,4.3317 -0.88412,4.5015 -4.21785,8.6107 -9.04364,11.1473 -3.41982,1.7975 -13.39886,2.3788 -28.088733,1.6362 z M 240.31435,523.68103 c 3.70913,-7.16139 4.5063,-12.34035 4.36083,-28.33089 -0.12519,-13.76197 -0.44156,-16.37994 -3.08157,-25.5 -5.67449,-19.60283 -14.85384,-42.79982 -23.41176,-59.16349 -10.59458,-20.25799 -20.4935,-41.69718 -22.63536,-49.02393 -1.82401,-6.23945 -2.0308,-9.61437 -1.95832,-31.96182 0.0496,-15.2855 -0.27681,-24.60306 -0.84071,-24 -1.21571,1.30011 -9.60077,36.26387 -11.73834,48.94609 -1.88833,11.20349 -1.52028,22.47174 1.05911,32.42592 1.72755,6.66684 12.06962,32.86471 18.00683,45.61374 6.99286,15.01585 13.20861,29.99083 15.9804,38.5 1.52284,4.675 4.2621,11.875 6.08723,16 2.05452,4.64344 3.56249,9.97569 3.95922,14 1.44677,14.6754 5.85741,32.49014 9.40003,37.96705 1.56149,2.41406 1.60802,2.31741 2.16676,-4.5 0.33526,-4.09067 1.42753,-8.62079 2.64565,-10.97267 z"
     id="path2983"
     style="fill:#000000" />
</svg>
