<?xml version="1.0" encoding="utf-8"?>
<!-- Generator: Adobe Illustrator 24.1.2, SVG Export Plug-In . SVG Version: 6.00 Build 0)  -->
<svg version="1.1" id="Layer_1" xmlns="http://www.w3.org/2000/svg" xmlns:xlink="http://www.w3.org/1999/xlink" x="0px" y="0px"
	 viewBox="0 0 414.07 779.19" style="enable-background:new 0 0 414.07 779.19;" xml:space="preserve">
<style type="text/css">
	.st0{fill:#1A1A1A;}
</style>
<g>
	<path d="M299.57,744.95c2.56-2.57,4.63-5.22,5.75-8.66c2.88-8.88,5.89-17.72,8.98-26.54c1.37-3.91,1.84-7.89,1.9-11.98
		c0.16-9.73-1.03-19.33-2.58-28.92c-1.82-11.26-5.15-22.14-8.1-33.11c-4.6-17.12-10.36-33.88-15.67-50.78
		c-3.16-10.05-6.4-20.08-9.01-30.29c-1.16-4.54-2.86-8.88-4.49-13.25c-1.17-3.14-2.35-6.28-3.67-9.36
		c-1.01-2.36-1.28-4.87-1.67-7.33c-1.41-9.01-3.83-17.78-6.41-26.5c-4.55-15.39-9.15-30.75-14.54-45.88
		c-1.68-4.71-2.52-9.72-3.76-14.59c-2.98-11.72-4.98-23.64-7.41-35.47c-0.28-1.36-0.82-2.21-2.33-2.06
		c-0.08,0.15-0.17,0.26-0.17,0.36c-0.37,10.96-2.97,21.54-5.63,32.09c-2.13,8.47-4.33,16.94-7,25.25
		c-2.97,9.23-6.23,18.37-9.87,27.37c-3.68,9.1-7.26,18.25-10.92,27.36c-1.13,2.81-1.03,5.37,0.2,8.25
		c6.29,14.63,12.36,29.36,18.52,44.05c0.42,0.99,0.86,1.98,1.34,2.94c6.36,12.9,12.73,25.79,19.09,38.69
		c2.34,4.75,3.67,9.87,5.44,14.82c2.57,7.22,5,14.49,7.53,21.72c0.43,1.24,1.04,2.42,1.59,3.62c0.47,1.02,0.71,2.03,0.02,3.05
		c-1.06,0.26-1.59-0.55-2.05-1.16c-3.59-4.7-8.1-8.49-12.29-12.59c-4.9-4.79-9.18-10.12-13.42-15.46
		c-7.38-9.32-15.49-17.94-23.75-26.47c-6.99-7.22-13.96-14.5-20.36-22.27c-0.45-0.54-0.96-1.03-1.4-1.5
		c-1.11,0.45-1.06,1.37-1.28,2.13c-5.14,17.83-10.06,35.72-14.67,53.69c-2.53,9.85-5.55,19.58-8,29.46
		c-1.88,7.58-2.96,15.27-3.29,23.04c-0.12,2.84,0.53,5.7,0.84,8.56c1.07,9.94,3.77,19.47,7.03,28.88
		c1.81,5.22,3.96,10.23,6.74,15.03c3.18,5.49,5.77,11.3,7.69,17.35c2.43,0.75,4.73,0.54,6.94,0.37c2.8-0.22,4.76,0.84,6.63,2.78
		c3.88,4.03,5.83,7.09,7.06,11.74c-0.44,0.79-1.31,0.41-2.12,0.82c-0.66,4.17-4.12,4.89-7.69,5.6c-0.61,0.99-1.24,2-1.87,3.01
		c-1.48,2.38-3.67,3.69-6.39,4.18c-1.06,0.19-2.12,0.41-3.18,0.46c-6.25,0.29-9.9-2.48-11.36-8.7c-1.53-0.62-3.11-0.53-4.91-0.07
		c0.57,2.58,0.68,5.05,0.4,7.66c-2.63,1.81-5.39,2.99-8.68,2.84c-2.4-0.11-4.76-0.4-7.14-0.63c-2.75-0.26-4.36-1.71-5.68-3.81
		c-0.38-0.6-0.64-1.27-0.95-1.93c-1.06-0.09-1.35,0.89-2.01,1.29c-2.72,1.66-5.62,2.3-8.76,1.6c-1.17-0.26-2.31-0.62-3.46-0.95
		c-2.99-0.88-4.31-2.53-4.48-5.67c-0.06-1.08-0.07-2.17,0.02-3.24c0.09-0.94,0.36-1.87,0.59-3c-1.21-1.99-3.01-3.82-3.78-6.28
		c-0.5-1.6-0.95-3.19-1.2-4.86c-0.22-1.49,0-2.83,0.5-4.2c2.22-6.01,2.96-12.31,3.28-18.64c0.15-2.98-0.6-5.92-1.8-8.72
		c-1.78-4.18-4-8.17-5.45-12.51c-1.66-4.95-2.33-9.88-1.54-15.14c0.46-3.05,1.66-5.52,3.6-7.62c1.86-2,3.99-3.8,6.45-5.12
		c1.15-0.62,2.38-1.15,3.4-2.34c0.75-4.47,0.63-9.14,0.04-13.76c-1.43-11.28-3.81-22.4-5.83-33.57c-1.19-6.59-2.47-13.19-3.1-19.84
		c-0.59-6.18-0.42-12.42,0.27-18.65c1.21-10.95,4.83-21.18,8.65-31.39c2.4-6.41,5.36-12.53,8.69-18.5
		c2.45-4.39,4.55-8.98,6.91-13.43c0.78-1.48,0.78-2.7-0.28-3.96c-0.62-0.73-1.18-1.51-1.8-2.24c-6.7-7.88-12.57-16.31-17.28-25.53
		c-4.9-9.59-9.74-19.2-13.56-29.3c-3.7-9.76-6.88-19.65-8.83-29.92c-1.14-6-1.75-12.05-2.13-18.13c-0.05-0.81,0.29-1.64,0.39-2.47
		c0.49-4.27,1.02-8.54,1.41-12.83c0.13-1.46,0.46-2.83,0.89-4.2c2.05-6.51,4.09-13.02,6.17-19.52c3.04-9.51,7.18-18.51,12.15-27.17
		c4.32-7.53,9.57-14.3,15.31-20.77c6.06-6.82,12.55-13.17,19.46-19.1c2.84-2.44,6.14-4.16,9.18-6.29c3.93-2.75,8.01-5.26,12-7.93
		c3.11-2.08,6.63-3.33,9.94-5.03c2.05-1.06,3.93-2.25,5.5-3.96c2.1-2.3,4.22-4.59,6.48-6.73c1.04-0.98,1.6-2.03,1.78-3.38
		c0.7-5.09,1.41-10.18,2.14-15.27c0.37-2.63-0.51-4.99-1.65-7.25c-2.05-4.06-4.2-8.07-6.35-12.08c-3.23-6.03-5.73-12.38-8.56-18.59
		c-2.32-5.09-3.55-7.11-7.66-11.56c-0.98,0.32-0.97,1.29-1.26,2.03c-4.87,12.12-10.18,24.04-15.78,35.83
		c-4.52,9.51-9.12,18.98-13.2,28.7c-2.4,5.72-5.7,11.04-10.03,15.64c-1.88,2-4.14,2.7-6.44,1.72c-5.05-2.15-9.92-4.53-13.78-8.81
		c-3.67-4.07-6.38-8.67-9.1-13.31c-0.9-1.53-1.49-3.27-2.05-4.96c-3.23-9.65-6.37-19.34-9.63-28.98c-0.92-2.71-2.13-5.31-3.15-7.79
		c-1.59-0.44-2.91-0.29-4.45-0.21c-1.07,1.39-2.26,2.85-4.3,3.27c-2.08,0.43-3.35-0.89-4.73-1.99c-4.03,1.39-7.57,3.76-11.81,4.95
		c-4.57-4.01-9.35-7.79-12.17-13.61c1.81-2.16,1.44-4.95,1.76-7.49c0.28-2.17,1.25-3.55,2.71-4.82c2.34-2.04,4.72-4.03,7.03-5.99
		c-0.32-1.33-1.07-2.07-2.05-2.59c-2.14-1.15-2.97-3.05-2.95-5.36c0.02-1.66,0.08-3.19-1.29-4.57c-0.85-0.86,0.13-2.3,1.38-2.02
		c1.67,0.38,3.32,0.31,4.99,0.31c1.6,0.01,3.06,0.49,4.31,1.54c1,0.83,2.03,1.63,3.14,2.51c1.04-2.94,0.47-6.27,2.87-8.46
		c2.12-1.93,4.34-3.86,7.65-3.35c1.08-2.43,2.9-4.17,4.74-5.85c2.65-2.41,3.91-2.49,7.05-0.75c1.14,0.63,2.29,1.26,3.44,1.88
		c0.08,0.05,0.23-0.02,0.34-0.04c0-1.44,0.01-2.87,0-4.3c-0.01-1.98,0.9-3.38,2.52-4.48c3.08-2.1,6.44-1.99,9.2,0.41
		c0.81,0.7,1.41,1.65,2.59,2.16c2.42-1.35,4.92-2.77,7.44-4.14c0.95-0.52,1.9-1.05,2.91-1.41c1.34-0.47,2.58-0.26,3.56,0.93
		c0.91,1.11,1.86,2.19,2.82,3.26c0.55,0.63,1.03,1.44,1.73,1.79c3.21,1.6,4.78,4.51,6.29,7.5c0.92,1.81,2.08,3.49,2.43,5.57
		c0.3,1.82-0.08,3.18-1.74,3.81c-3.21,1.21-5.62,3.62-8.46,5.37c-1.15,0.71-1.73,1.66-1.52,2.98c0.42,2.73-0.71,4.89-2.36,6.91
		c-1.07,1.32-1.82,2.81-2.21,4.48c-0.11,0.46-0.34,0.9-0.45,1.36c-0.74,3.27-2.99,5.04-6,6.03c-1.47,0.48-2.97,0.87-4.39,1.29
		c-0.42,1.17,0.16,1.99,0.55,2.82c3.06,6.52,6.86,12.63,10.49,18.84c0.49,0.83,1.08,1.57,2.17,2.03c1.13-0.92,1.32-2.41,1.83-3.66
		c3.03-7.44,5.31-15.11,7.41-22.87c2.97-10.98,6.8-21.71,10.63-32.42c2.34-6.53,4.54-13.09,6.22-19.84
		c1.34-5.42,2.94-10.8,6.4-16.18c-4.03,1.46-6.63,3.51-8.4,6.63c-2.27,4-3.42,8.42-4.82,12.75c-0.22,0.68-0.46,1.34-0.75,2.19
		c-1.63-1.29-1.79-3.39-3.26-4.73c0.36,5.2,2.16,10.29,0.42,15.52c-1.12-0.5-1.18-1.36-1.35-2.16c-0.93-4.47-2.43-8.73-4.24-12.93
		c-1.53-3.57-3.52-6.85-5.81-9.89c-6.14-8.15-11.49-16.81-16.82-25.48c-0.42-0.68-0.67-1.57-1.76-1.85
		c0.15,3.32,2.04,6.3,1.85,10.38c-2.72-4.35-4.72-8.25-6.18-12.41c-2.58-7.36-4.26-14.94-5.36-22.65c-0.81-5.7-0.9-11.45-0.5-17.2
		c0.45-6.35,2-12.49,3.68-18.6c1.06-3.86,2.92-7.32,4.84-10.77c0.41-0.73,0.84-1.44,1.32-2.26c-3.66-6.13-7.66-12.06-10.3-18.71
		c0.78-0.68,1.13-0.06,1.53,0.34c5.38,5.24,9.52,8.38,14.35,10.84c2.91-0.96,5.29-3.02,7.94-4.62c1.13-0.68,2.19-1.48,3.36-2.07
		c3.04-1.53,6.23-2.54,9.69-2.12c2.61,0.32,5.25,0.36,7.86,0.58c4.78,0.39,8.14,2.41,9.98,6.88c1.74-0.72,2.6-2.27,3.71-3.45
		c2.66-2.82,5.74-5.1,8.84-7.31c2.95-2.1,6.53-3.21,10.04-3.67c3.38-0.44,6.85-1.01,10.32-0.45c3.25-2.57,3.26-2.61,7.38-1.67
		c3.57,0.82,7.15,0.32,10.71,0.29c0.08-0.31,0.24-0.58,0.17-0.76c-1.67-4.51-1.64-9.25-1.13-13.84c0.99-8.93,4.65-14.49,13.49-17.01
		c3.68-1.05,7.34-0.42,10.9,0.88c1.33,0.48,2.11,1.49,2.87,2.43C233,5,232.13,4.85,231.5,5.05c-0.57,0.18-1.15,0.42-1.73,0.46
		c-4.38,0.27-7.53,2.77-10.46,5.68c-3.62,3.58-6.69,7.5-8.25,12.45c-0.91,2.91-1.2,5.83-0.76,8.92c3.2,0.22,6.18-0.29,9.04-1.53
		c1.16-0.5,2.25-0.47,3.44-0.07c5.57,1.91,10.96,4.17,15.58,7.95c2.32,1.9,4.93,3.43,6.94,5.69c5.85,6.56,10.91,13.62,14.15,21.89
		c1.84,4.68,3.56,9.4,5.24,14.14c0.17,0.47,0.3,0.9-0.24,1.44c-1.87-1.62-2.13-4.16-3.44-6.08c-1.35-1.96-2.44-4.09-3.82-6.45
		c-2.23,1.7-4.27,3.26-6.34,4.83c0.07,4.27,1.89,7.91,3.39,11.55c3.33,1.55,6.57,3.06,9.8,4.57c0.5,2.59,0.36,4.97,0.09,7.34
		c-0.55,4.76-1.11,9.56-3.63,13.77c-3.21,5.36-2.58,12.22,2.15,17.1c-0.3,0.73-0.82,0.65-1.46,0.5c-1.72-0.43-3.46-0.8-4.96-1.14
		c-1.03,0.56-0.79,1.78-1.88,2.03c-1.89-0.08-3.59-0.89-5.13-2.08c-1.62-1.25-3.37-1.67-5.4-1.25c-2.81,0.58-5.65,1-8.46,1.55
		c-1.38,0.27-2.39,1.03-2.8,2.47c-0.4,1.38-1.05,2.71-1.24,4.12c-0.28,2.01-0.29,4.06-0.32,6.1c-0.02,1.31-0.2,2.64,0.29,4.19
		c1.75,0.88,3.63,1.92,5.58,2.8c4.11,1.86,8.32,1.75,12.59,0.52c2.53-0.73,5.07-1.56,7.66-1.92c5.69-0.78,10.64,0.28,14.95,4.8
		c4.36,4.58,6.82,10.06,9.43,15.56c0.82,1.73,1.54,3.51,2.19,5.31c1.2,3.31,3.42,6.03,5.21,8.99c1.43,2.36,2.93,4.67,4.41,7
		c1.09,1.73,2.28,3.32,4.06,4.48c1.89,1.24,2.27,2.49,1.38,4.61c-1.48,3.54-1.54,7.22-1.53,10.93c0,0.97,0.16,1.89,0.46,2.82
		c4.65,14.48,8.53,29.18,12.61,43.82c1.08,3.88,2.61,7.31,5.35,10.37c3.03,3.38,5.91,6.89,9.08,10.16c2.16,2.23,3.99,4.75,5.36,7.6
		c3.74,7.77,7.54,15.53,11.42,23.23c3.45,6.85,7,13.65,10.6,20.42c1.07,2,2.45,3.84,3.72,5.73c3.35,4.96,6.73,9.9,10.04,14.77
		c1.14,0.22,1.61-0.66,2.25-1.1c1.41-0.97,2.92-1.74,4.56-2.02c2.42-0.41,4.43-1.25,6.25-3.04c1.9-1.87,4.34-2.34,6.89-0.83
		c1.02,0.6,2.19,0.95,3.3,1.42c1.37-0.72,2.7-1.53,4.12-2.14c1.86-0.8,3.66-0.69,5.45,0.48c1.72,1.13,3.26,2.41,4.71,3.85
		c1.62,1.6,2.61,3.46,2.51,5.74c-0.11,2.76,0.87,4.88,3.31,6.36c1.52,0.28,3.24-2.15,4.84,0.35c-1.62,3.21-4.13,5.71-7,7.88
		c-0.68,0.51-1.5,0.7-2.34,0.85c-1.18,0.2-2.36,0.45-3.49,0.83c-3.03,1.02-5.77,2.51-6.95,5.73c-1.09,2.98-3.44,4.84-5.7,6.8
		c-1.24,1.07-2.83,1.32-4.34,1.58c-2.23,0.39-4.52,0.8-6.76,0.71c-2.37-0.1-4.82-0.77-6.69-2.28c-1.4-1.13-2.77-1.48-4.3-0.99
		c-2.76,0.87-5.5,0.25-8.16-0.14c-3.81-0.56-6.48-2.88-7.75-6.62c-0.15-0.45-0.33-0.94-0.3-1.4c0.2-3.29-1.86-5.53-3.61-7.93
		c-8.74-12.04-18.89-22.9-28.49-34.22c-7.2-8.5-14.33-17.05-21.29-25.75c-0.51-0.63-0.84-1.48-2.13-1.55
		c-0.6,4.4-1.69,8.69-0.3,13.26c2.15,7.1,3.93,14.31,5.87,21.48c0.16,0.58,0.29,1.21,0.63,1.67c1.18,1.64,2.64,3.11,1.38,5.44
		c-0.4,0.75,0.59,1.5,0.79,2.31c3.4,13.7,7.77,27.16,10.18,41.11c0.75,4.36,1.9,8.65,3,12.94c2.22,8.71,3.42,17.6,4.76,26.46
		c0.87,5.81,1.16,11.65,1.6,17.49c0.77,10.29,0.8,20.59,0.66,30.89c-0.14,10.42-1.02,20.81-0.93,31.24
		c-1.01,4.09,0.09,8.05,0.68,12.06c0.29,1.97,1.03,3.68,2.12,5.28c4.18,6.15,7.99,12.53,11.37,19.15
		c3.45,6.77,5.86,13.88,6.71,21.45c1.2,10.62,1.11,21.28,0.73,31.94c0,0.12-0.01,0.24-0.01,0.36c-0.33,13.9-0.87,27.81-0.37,41.7
		c0.2,5.47,0.5,10.97,0.95,16.46c0.36,4.41,0.71,8.82,1.12,13.23c0.39,4.16,0.96,8.31,1.4,12.47c0.15,1.45,0.86,2.43,2.05,3.18
		c4.97,3.14,8,7.94,10.35,13.04c2,4.34,1.54,9.13,0.87,13.81c-0.68,4.83-2.79,9.16-4.67,13.54c-2.35,5.47-2.27,11.11-0.9,16.54
		c1.21,4.82,1.48,9.66,2.1,14.51c-1.18,4.2-1.15,8.88-4.82,12.04c-0.25,0.9,0.08,1.7,0.33,2.48c0.52,1.61,0.18,3.07-0.6,4.49
		c-2.23,4.09-8.2,6.9-12.59,5.53c-2.8-0.88-4.85-3.06-6.35-5.58c-0.97-1.63-1.86-3.34-2-5.3c-1.33,0.11-2.4,0.11-3.48,0.81
		c-0.48,1.2-1.03,2.52-1.55,3.84c-1.01,2.57-3.11,3.99-5.57,4.72c-4.19,1.25-8.54,1.05-12.84,0.85c-1.51-0.07-2.53-1.2-3.42-2.39
		c-1.23-1.65-1.76-3.63-2.61-5.58c-1.12,0.54-2.15,0.91-3.04,1.48c-2.66,1.7-5.58,1.98-8.62,1.74c-0.36-0.03-0.72-0.13-1.07-0.12
		c-3.21,0.11-5.94-0.72-7.3-3.76c-0.96-0.04-1.63,0.53-2.35-0.01c-0.05-0.16-0.23-0.41-0.17-0.58c0.58-1.57,1.19-3.13,1.86-4.85
		c-0.92-1.61-1.39-3.63-3.51-4.59c0-1.66,0.62-3.11,1.74-4.2c1.14-1.11,1.97-2.41,2.82-3.7c1.57-2.38,3.86-3.95,6.24-5.3
		c1.29-0.73,2.78-1.05,4.48-0.64C294.67,744.7,296.98,744.69,299.57,744.95z M157.81,108.58c-0.03,0.36-0.14,0.72-0.07,1.04
		c0.73,3.38,1.34,6.77,2.82,9.95c1.26,2.71,2.29,5.52,3.51,8.25c2.39,5.35,4.86,10.66,7.26,16c0.65,1.45,1.56,2.17,3.25,2.3
		c2.87,0.22,5.6,1.15,8.3,2.16c1.57,0.58,3.17,1.08,4.74,1.66c0.81,0.3,1.57,0.44,2.43,0.11c1.67-0.65,3.4-1.15,5.05-1.86
		c2.15-0.93,2.96-2.98,2.66-5.27c-0.44-3.38-2.19-6.03-4.42-8.37c-4.37-4.58-9.35-8.51-14.1-12.67
		c-4.87-4.26-10.16-7.89-16.17-10.42c-0.97-0.41-1.78-1.2-2.72-1.73C159.56,109.3,158.96,108.42,157.81,108.58z M244.83,56.85
		c0.76,2.95,2.57,4.63,3.58,6.72c1.09,2.26,1.72,4.66,2.28,7.1c2.91-1.31,2.91-1.31,4.33-3.42
		C252.5,63.23,249.13,60.03,244.83,56.85z"/>
	<path class="st0" d="M201.25,156.8c4.52,1.5,8.59,2.87,12.68,4.19c3.88,1.25,7.68,2.85,12.25,3.76c-1.01-2.2-2.58-2.3-3.85-2.74
		c-5.21-1.8-10.45-3.49-15.68-5.25c-1.35-0.45-2.68-0.98-3.96-1.45c0.03-0.42-0.05-0.76,0.07-0.85c3.2-2.48,3.59-6.11,3.66-9.69
		c0.08-3.98,0.7-7.88,1.29-11.78c0.16-1.05,0.26-2.14,0.83-3.01c0.9-0.65,1.71-0.3,2.42,0.13c1.93,1.14,4.11,1.26,6.23,1.57
		c1.98,0.29,3.7-0.37,5.22-1.49c-0.13-1.4-1.15-1.93-1.97-2.6c-6.23-5.06-10.87-11.43-15.08-18.17c-0.95-1.53-0.97-2.93-0.07-4.37
		c1.33-2.13,2.68-4.26,4.14-6.3c0.84-1.17,1.97-2.08,3.33-2.68c1.53-0.68,2.98-1.6,4.57-2.09c2.56-0.8,4.22-2.43,5.73-4.59
		c4.26-6.06,11.43-8.39,18.36-7.2c0.81,0.14,1.6,0.51,2.33,0.91c3.37,1.87,6.94,3.24,10.56,4.52c2.25,0.8,4.41,1.87,6.58,2.88
		c1.3,0.6,2.01,1.65,1.99,3.14c-0.08,4.93-0.29,9.83-2.26,14.46c-1.17,2.76-2.34,5.51-3.82,8.13c-3.1,5.49-7.61,8.71-13.95,9.53
		c-4.05,0.53-8.1,0.76-12.15,1.12c-1.02,0.09-2.2-0.18-2.86,0.99c0.36,1.75,2.1,0.7,3.12,1.62c0.07,2.26-1.3,4.4-1.2,6.83
		c0.1,2.38-0.17,4.79-0.37,7.18c-0.2,2.35-0.17,4.63,0.66,6.89c1.74-0.4,0.81-2.05,1.77-2.68c1.27-0.29,2.25,0.56,3.28,1.08
		c4.48,2.28,9.14,2.64,13.96,1.41c2.44-0.62,4.87-1.25,7.32-1.86c5.54-1.38,10.38-0.35,14.45,3.92c3.34,3.51,5.89,7.43,7.74,12.42
		c-2.86-1.49-3.63-4.55-6.07-5.75c-0.96,1.18-0.06,1.75,0.39,2.35c2.31,3.06,4.6,6.14,7.02,9.12c4.78,5.88,8.65,12.38,12.63,18.8
		c1.09,1.76,2.17,3.37,4.04,4.44c1.37,0.78,1.75,1.76,1.03,3.02c-1.32,2.32-1.21,4.86-1.48,7.32c-0.35,3.1-0.75,6.18-1.55,9.2
		c-0.56,2.13-0.54,4.23,0.01,6.39c2.67,10.57,3.12,21.28,2.15,32.13c-0.8,8.96-1.86,17.88-2.96,26.8c-0.16,1.3-0.15,2.63-0.19,3.95
		c-0.09,3.23,0.09,6.46,0.09,9.69c-0.02,7.61-1.12,15.04-2.83,22.42c-0.32,1.38-0.53,2.79-0.75,3.97c0.61,0.98,1.17,0.55,2,0.31
		c1.42,5.51,2.85,11.02,4.29,16.62c-2.89,1.55-5.85,1.05-8.61,1.56c-2.77,0.52-5.55,1.27-8.62,1.1c0.34-3.29,2.69-5.62,2.84-8.61
		c-1.17-0.43-1.37,0.46-1.63,1.01c-0.89,1.83-1.75,3.68-2.5,5.57c-1.17,2.99-3.86,3.88-6.75,3.15c-3.02-0.77-6.06-1.44-9.08-2.2
		c-2.23-0.57-4.5-0.85-6.78-0.61c-5.27,0.55-10.55,0.36-15.82,0.31c-6.26-0.07-12.44,0.73-18.65,1.26c-3.24,0.28-6.47,0.06-9.7,0.22
		c-1.71,0.09-2.67-0.74-3.41-2.11c-1.55-2.84-3.11-5.68-4.68-8.51c-0.44-0.8-0.77-1.76-2.17-1.99c0.27,2.52,1.85,4.24,2.8,6.22
		c0.92,1.92,2.27,3.64,2.86,5.93c-1.38,0.72-2.85,0.57-4.18,0.33c-5.6-1.01-11.37-1.16-16.87-2.8c-0.14-1.93,0.5-3.35,0.98-4.81
		c0.83-2.5,1.78-4.97,2.52-7.5c1.56-5.37,4.21-10.13,7.53-14.61c2.99-4.04,5.73-8.27,8.45-12.5c1.51-2.34,3.05-4.72,5.22-6.37
		c6.11-4.68,7.45-11.22,7.44-18.23c-0.01-10.55-2.32-20.64-6.42-30.37c-4.42-10.49-8.88-20.98-12.87-31.63
		c-2.78-7.42-4.59-15.14-3.35-23.25c0.28-1.8,0.81-3.5,1.32-5.21c0.84-2.87,1.77-5.72,2.74-8.56c0.83-2.41,1.19-4.87,1.38-7.4
		C200.54,162.36,200.9,159.87,201.25,156.8z M218.75,107.82c2.15-0.29,4.08,0.22,5.95,0.95c1.81,0.7,3.69,1.05,5.58,1.33
		c6.17,0.91,12.39,1.22,18.6,1.62c2.51,0.16,3.65-0.27,5.59-1.57c-0.35-0.17-0.66-0.47-0.94-0.43c-4.07,0.51-8.14,0.26-12.19-0.18
		c-5.22-0.57-10.55-0.42-15.62-2.15c-1.02-0.35-2.04-0.88-3.08-0.94c-1.52-0.1-0.38-2.28-2.16-2.16
		C219.33,104.95,218.5,105.94,218.75,107.82z M271.66,311.57c0.72-1.23,0.19-2.28,0.13-3.33c-0.22-4.29-0.5-8.55,0.47-12.85
		c1.16-5.13,1.96-10.35,2.84-15.54c0.16-0.95,0.62-2.05-0.41-3.17c-0.92,1.43-1,2.86-1.26,4.22c-1.21,6.47-2.06,13.01-3.75,19.38
		c-1.02,3.84,0.04,7.32,1.14,10.85C270.88,311.28,271.21,311.34,271.66,311.57z M246.78,171.16c-0.44,0.63-0.01,1.14,0.3,1.6
		c1.01,1.48,2.03,2.96,3.12,4.37c3.52,4.57,6.39,9.47,8.27,14.97c0.78,2.28,1.14,4.63,1.79,6.92c0.2,0.72-0.06,1.77,1.07,1.99
		c0.12-0.08,0.27-0.12,0.29-0.2c0.08-0.33,0.21-0.69,0.17-1.02c-0.75-6.26-2.94-12.06-6.14-17.42c-2.14-3.58-4.79-6.84-7.25-10.22
		C248.04,171.64,247.72,170.85,246.78,171.16z M198.56,197.73c1.72,4.93,11.9,13.46,16.18,13.88c-0.59-1.28-1.73-1.71-2.62-2.39
		c-4.16-3.16-8.79-5.78-11.85-10.23C200.02,198.64,199.54,198.44,198.56,197.73z M275.26,227.13c-0.83,1.07-0.58,1.96-0.38,2.71
		c0.8,3.08,0.45,6.14,0.06,9.21c-0.14,1.06-0.22,2.13-0.33,3.2c-0.06,0.59-0.16,1.21,0.73,1.23
		C277.45,238.44,277.45,231.49,275.26,227.13z M229.33,301.23c0.36,2.67,3.33,10.29,5.76,14.92c0.28,0.53,0.53,1.06,1.24,1.07
		c0.3-0.27,0.38-0.62,0.24-0.96c-1.97-4.71-3.95-9.41-5.95-14.1C230.44,301.72,230.19,301.3,229.33,301.23z M237.87,114.31
		c2.74,2.72,4.71,3.3,8.82,2.63c2.35-0.38,4.48-1.12,5.71-3.58c-1.34-0.44-1.95,0.49-2.76,0.84c-3.03,1.33-6.07,2.07-9.24,0.36
		C239.73,114.2,239.03,113.51,237.87,114.31z M237.45,162.77c0.26-0.03,0.63,0.02,0.68-0.09c1.66-3.29,4.09-6.07,5.97-9.22
		c0.15-0.24,0.02-0.66-0.01-1c-0.01-0.09-0.14-0.17-0.4-0.45c-2.65,2.1-4.02,5.15-5.88,7.79
		C237.23,160.63,236.8,161.7,237.45,162.77z M244.21,227.58c-1.64,0.19-1.64,0.19-6.26,5.78c-0.86,1.04-1.75,2.07-1.35,4.28
		C239.2,233.86,242.24,231.23,244.21,227.58z M229.11,200.89c1.26-1.26,1.47-2.45,0.8-4.13c-0.9-2.27-2.87-1.97-5.18-2.35
		c0.8,1.96,2.5,1.6,3.36,2.46C229.18,197.96,228.4,199.41,229.11,200.89z M253.18,96.38c-2.8-2.53-4.61-2.33-6.11,0.93
		C249.13,96.07,251.14,96.82,253.18,96.38z"/>
	<path class="st0" d="M92.49,234.55c1.21-2.11,4.18-2.57,3.96-5.64c-1.94,0.53-3,1.9-4.3,2.88c-1.52,1.15-3.08,1.81-5.03,1.11
		c-1.13-1.67-0.49-2.88,0.95-3.94c3.76-2.78,7.5-5.58,11.26-8.36c3.85-2.86,7.74-5.66,11.53-8.59c1.61-1.24,3.45-1.99,5.91-2.55
		c-2.3-1.78-5.49-1.3-5.92-4.34c0.39-1.09,1.57-1.02,2.27-1.65c2.13-1.93,1.99-3.25-0.9-4.84c4.63-0.01,8.9-0.33,13.41,0.33
		c-0.21,3.65,0.55,7-1.66,9.96c-1.02,1.36-1.59,2.95-2,4.59c-0.85,3.36-3.04,5.33-6.34,6.18c-2.09,0.54-4.16,1.13-6.24,1.73
		c-0.67,0.19-1.46,0.34-1.38,1.34c3.27,1.1,3.15,1.16,5.03,4.64c3.08,5.69,6.32,11.3,9.51,16.92c0.41,0.73,0.92,1.41,1.48,2.04
		c4.24,4.73,8.5,9.43,12.76,14.14c0.24,0.26,0.53,0.49,0.84,0.67c0.44,0.26,0.96,0.31,1.26-0.16c0.16-0.25,0.25-0.77,0.11-0.98
		c-0.55-0.77-1.18-1.5-1.85-2.18c-3.28-3.32-6.39-6.8-9.55-10.55c0.7-1.77,1.31-3.57,2.09-5.29c3.2-7.02,5.22-14.41,7.12-21.84
		c1.88-7.32,4.15-14.51,6.76-21.6c2.56-6.97,4.93-14.02,7.32-21.06c0.57-1.69,0.93-3.46,1.31-5.22c1.18-5.52,3-10.83,5.07-16.09
		c1.77-4.47,5.16-6.84,9.5-7.94c4.38-1.12,8.8-0.82,13.1,0.68c2.38,0.83,4.72,1.77,7.12,2.51c2.12,0.65,3.06,2.07,3.43,4.13
		c0.39,2.21,0.13,4.38-0.71,6.36c-2.18,5.13-2.84,10.63-4.23,15.95c-1.57,6.02-2.84,12.13-4.27,18.19
		c-0.19,0.81-0.44,1.65-0.88,2.34c-3.34,5.2-5.1,11.09-7.4,16.74c-4.53,11.1-9.31,22.09-14.32,32.98
		c-5.06,10.99-10.74,21.69-15.19,32.98c-1.97,5-4.93,9.6-8.46,13.73c-2.53,2.96-4.46,3.37-7.9,1.65c-2.68-1.34-5.41-2.66-7.83-4.39
		c-3.13-2.24-5.52-5.31-7.73-8.44c-1.59-2.25-2.92-4.67-4.36-7.03c-0.63-1.03-1.08-2.12-1.46-3.27
		c-3.49-10.58-7.01-21.15-10.54-31.71C94.34,239.27,92.98,237.1,92.49,234.55z M103.5,224.26c-3-1.83-3.61-1.85-5.46-0.41
		C99.58,225.31,101.21,224.85,103.5,224.26z"/>
	<path class="st0" d="M296.48,213.7c1.29,1.3,1.42,2.67,1.76,3.88c1.84,6.45,3.58,12.93,5.38,19.39c2.02,7.27,4.07,14.53,6.09,21.8
		c0.46,1.64,1.18,3.08,2.32,4.38c3.86,4.42,7.3,9.19,11.54,13.29c2.24,2.16,3.94,4.82,5.32,7.64c4.01,8.17,7.95,16.38,12.02,24.53
		c2.46,4.93,5.27,9.69,7.62,14.67c2.88,6.12,7.04,11.41,10.75,16.96c4.33,6.48,7.95,13.37,12.19,19.88
		c0.64,0.98,0.98,2.19,2.11,2.77c1.95-0.5,0.48-1.75,0.66-2.62c0.36-0.57,1.43-0.42,1.46-1.51c-0.12-0.19-0.25-0.67-0.5-0.74
		c-3.61-1.02-5.22-4.02-6.86-6.94c-1.01-1.8-0.74-2.91,1.04-3.9c1.52-0.84,3.09-1.98,5.01-0.91c0.76,0.42,1.33-0.09,1.96-0.46
		c1.08-0.63,1.66-1.71,2.48-2.58c1.3-1.38,2.78-2.28,4.77-1.95c1.71,0.29,3.18,0.95,3.91,2.69c0.03,0.07,0.21,0.09,0.37,0.15
		c1.14,0.01,1.89-0.85,2.76-1.45c1.09-0.76,2.23-1.42,3.5-1.8c0.93-0.28,1.87-0.35,2.82-0.01c4.39,1.57,7.3,5.87,7.27,10.93
		c-1.44,0.79-2.9,0.46-4.2,0.11c-0.98-1.19,0.79-2.17-0.11-3.16c-0.25-0.07-0.51-0.23-0.68-0.17c-0.32,0.13-0.7,0.32-0.87,0.6
		c-1.63,2.77-4.66,4.43-6.07,7.24c0.57,1.09,1.29,0.93,1.95,0.61c1.19-0.57,2.33-1.23,3.5-1.84c2.52-1.31,5.1-1.02,7.66-0.18
		c0.7,0.23,1.21,0.76,1.48,1.55c0.09,1.3-1.48,1.81-1.52,2.83c-0.24,1.38,1.13,1.68,1.3,2.99c-0.13,0.08-0.41,0.33-0.73,0.43
		c-1.25,0.41-2.49,0.95-3.77,1.12c-2.63,0.34-4.65,1.83-6.72,3.26c-1.24,0.85-1.88,2.12-2.47,3.46c-2.1,4.82-5.76,7.52-11.04,7.95
		c-1.31,0.11-2.63,0.24-3.94,0.28c-2.73,0.08-5.21-0.64-7.34-2.41c-1.38-1.15-2.78-2.29-4.4-3.1c-0.55-0.27-1.09-0.51-1.64-0.07
		c-0.71,0.96,0.76,1.42,0.5,2.27c-6.65,1.13-10.17-0.19-12.57-4.73c0.15-0.99,1.35-0.28,1.74-1.22c0.35-1.05-0.58-1.82-1.21-2.64
		c-7.42-9.56-14.71-19.21-22.71-28.31c-10.68-12.15-21.1-24.52-31.29-37.09c-2.56-3.16-3.95-6.03-3.47-10.27
		c0.63-5.57-0.09-11.26,0.53-16.88c0.62-5.72,1.35-11.42,1.88-17.15c0.47-5.13,0.99-10.25,0.98-15.42
		c-0.01-7.47-0.67-14.83-2.63-22.06C295.87,217.97,295.53,216.09,296.48,213.7z"/>
	<path class="st0" d="M170.21,145.89c-4.86,0.52-9,3-13.34,5.01c-3.88,1.81-6.7,4.57-8.26,8.56c-0.83,2.12-1.61,4.26-2.41,6.39
		c-0.41,1.09-0.53,2.34-1.76,3.27c-2.9-3.04-3.7-7.4-6.45-10.52c-1.15,0.65-0.78,1.55-0.56,2.28c0.68,2.3,1.35,4.61,2.22,6.84
		c0.59,1.52,0.53,3,0.62,4.58c-1.4-0.06-1.37-1.16-1.62-1.82c-2.07-5.43-5.08-10.33-8.6-14.9c-6.16-8-11.23-16.71-16.57-25.24
		c-0.51-0.81-1.05-1.6-1.61-2.37c-0.13-0.17-0.4-0.24-0.73-0.43c-1.43,1.21-0.41,2.86-0.7,4.26c-1-0.1-0.86-1.02-1.11-1.59
		c-2.69-6.2-4.05-12.76-5.41-19.34c-0.79-3.78-0.97-7.58-1.19-11.41c-0.28-4.81-0.42-9.59,0.42-14.33c1.4-7.9,2.77-15.83,6.82-22.95
		c0.41-0.73,0.83-1.46,1.31-2.14c0.19-0.26,0.57-0.39,1.09-0.73c3.18,2.56,5.18,6.19,7.85,9.2c2.62,2.95,5.57,5.56,8.97,8.87
		c-3.58-0.71-6.09-2.63-9.08-2.53c-0.22,1.25,0.67,1.65,1.25,2.15c8.4,7.31,16.45,15.06,25.83,21.17c1.03,0.67,1.96,1.4,2.56,2.47
		c0.78,1.39,1.9,2.49,3.07,3.5c2.28,1.95,3.76,4.26,4.16,7.28c0.79,5.92,3.62,11.15,5.86,16.56c2.15,5.2,4.64,10.27,6.98,15.39
		C170.1,143.99,170.57,144.59,170.21,145.89z"/>
	<path class="st0" d="M228.38,77.25c-0.74-4.85-0.63-9.86-2.18-14.65c-1.51-4.63-3.09-9.2-5.18-14.4c-1.15,2.17-1.2,3.7-1.25,5.17
		c-0.06,1.72-0.51,3.31-1.2,4.85c-2.1,4.7-3.87,9.57-7.24,13.6c-1.58,1.89-1.9,4.38-2.83,6.57c-0.28,0.66-0.34,1.42-0.67,2.05
		c-2.1,3.96-2.85,8.29-3.57,12.63c-0.06,0.35-0.22,0.68-0.36,1.01c-0.04,0.09-0.17,0.15-0.52,0.45c-1.32-3.64-1.43-7.49-2.66-10.95
		c-0.96-0.08-1.22,0.44-1.38,1.03c-0.51,1.86-0.89,3.73-0.8,5.68c0.06,1.31,0.01,2.63,0.01,4.06c-2.36-1.9-2.94-3.38-4.63-11.62
		c-0.97-0.04-0.76,0.75-0.74,1.22c0.12,3.54,1.08,6.92,2.9,9.9c2.64,4.32,4.76,8.84,6.69,13.5c1.93,4.67,5.04,8.68,8.07,12.7
		c2.39,3.18,5.15,5.97,8.78,8.81c-3.25,0.21-5.19-1.51-7.41-2.35c-2.46-0.93-3.16-3.87-5.29-4.8c-1.17,0.15-0.74,1.1-1.24,1.44
		c-0.22-0.02-0.52,0.05-0.66-0.06c-3.29-2.6-6.73-5.04-9.79-7.89c-2.45-2.28-4.09-5.29-5.64-8.28c-0.32-0.63-0.44-1.38-1.21-1.71
		c-0.77,0.22-0.72,0.82-0.62,1.42c0.23,1.27,1.03,2.45,0.52,3.9c-1.06,0.22-1.44-0.64-1.84-1.28c-4.02-6.47-6.95-13.42-8.59-20.84
		c-0.93-4.2-1.35-8.52-1.91-12.8c-0.15-1.17-0.05-2.39,0.04-3.58c0.1-1.31,0.48-2.62,0.45-3.93c-0.1-4.52,1.16-8.76,2.38-13.02
		c0.16-0.55,0.44-1.13,0.05-1.72c-0.57-0.33-0.85,0.03-1.06,0.49c-0.14,0.33-0.24,0.68-0.35,1.02c-1.36,4.19-1.37,4.14-5.57,4.68
		c-6.2,0.8-12.39,1.33-18.62,0.35c-0.71-0.11-1.44-0.11-2.04-0.66c-0.4-1.02,0.2-1.83,0.67-2.64c3.5-5.98,8.22-10.84,13.59-15.18
		c3.25-2.63,6.84-4.37,10.76-5.56c3.46-1.05,7-1.26,10.92-1.03c-0.76,2.35-2.54,3.75-3.5,5.63c-0.96,1.88-2.07,3.7-2.62,5.88
		c1.38,0.08,1.66-0.84,1.92-1.52c1.44-3.64,4.06-6.49,6.25-9.63c1.52-2.18,3.42-3.14,6.18-2.26c2.54,0.81,5.24,0.42,7.87,0.39
		c2.61-0.03,4.96,0.53,7.06,2.11c0.45,0.34,0.95,0.79,1.6,0.51c0.61-0.49-0.13-1.14,0.38-1.79c2.27-0.03,4.52-0.9,6.78-1.66
		c1.44-0.48,2.7-0.53,4.17-0.04c5.74,1.91,11.12,4.49,15.78,8.38c1.54,1.28,3.45,2.19,4.62,4.12c-1.18,1.94-3.01,3.1-4.78,4.23
		c-1.56,0.99-4.37-0.06-5.59-1.96c-1.1-1.71-2.06-3.51-3.07-5.28c-2.17-3.8-5.34-6.41-9.45-7.88c-0.34-0.12-0.68-0.19-0.99,0.14
		c-0.23,0.75,0.29,1.07,0.85,1.29c6.48,2.52,9.81,8.09,12.34,13.88c2.39,5.47,2.31,11.5,0.62,17.3c-1,3.45-2.42,6.77-4.07,9.98
		C229.31,76.93,229.12,77.22,228.38,77.25z M206.46,39.65c-3.23,5.12-4.91,10.72-6.25,16.31c-1.75,7.31-1.8,14.81-0.69,22.33
		c0.77-0.24,0.69-0.78,0.69-1.21c0.01-2.75,0.05-5.5-0.04-8.25c-0.14-4.57,0.19-9.13,1.37-13.5c1.21-4.48,2.74-8.91,4.86-13.09
		C206.77,41.54,207.34,40.81,206.46,39.65z M219.85,44.53c-0.71-2.39-1.5-3.78-3.82-4.86C216.91,41.86,217.77,43.21,219.85,44.53z"
		/>
	<path class="st0" d="M164.43,326.38c-1.8,4.2-2.6,8.21-4.66,11.74c-0.69,1.18-1.18,2.33-0.9,3.73c0.16,0.83,0.28,1.75-0.25,2.45
		c-1.26,1.64-1.57,3.42-1.25,5.42c0.14,0.86-0.54,1.55-1,2.25c-1,1.52-1.91,3.01-1.23,5c0.2,0.6-0.15,1.4-0.29,2.1
		c-0.95,4.61-1.31,9.26-0.62,13.94c0.83,5.62,0.65,11.2-0.04,16.83c-0.91,7.49-1.46,15.01-1.84,22.56
		c-0.38,7.42-0.41,14.85-0.94,22.26c-0.29,4.06-0.33,8.14-0.38,12.21c-0.17,11.5-0.79,22.98-1.37,34.47
		c-0.23,4.54-0.45,9.08-0.91,13.7c-1.38,0.1-1.68-0.99-2.13-1.68c-5.14-7.84-9.41-16.1-11.99-25.19c-1.6-5.65-3.58-11.18-4.95-16.9
		c-2.07-8.64-3.52-17.36-3.53-26.28c0-4.67-0.29-9.32-0.1-14.01c0.35-8.8,1.88-17.35,3.9-25.88c2.49-10.47,6.38-20.32,12.09-29.45
		c0.89-1.42,1.7-2.89,2.46-4.39c2.9-5.72,7.24-10.38,11.14-15.37c2.35-3,4.94-5.81,7.43-8.69
		C163.28,326.97,163.63,326.86,164.43,326.38z"/>
	<path class="st0" d="M221.65,458.34c-0.87-0.16-0.96-0.94-1.16-1.59c-0.96-3.09-2.07-6.15-2.78-9.3
		c-1.27-5.7-3.68-10.83-6.77-15.75c-2.1-3.34-4.06-6.81-5.68-10.4c-3.08-6.8-6.9-13.16-11.1-19.3c-3.61-5.27-6.58-10.87-8.82-16.84
		c-1.74-4.63-2.48-9.49-2.98-14.39c-0.53-5.27-0.35-10.55-0.32-15.82c0.01-2.19,0.63-4.23,1.56-6.07c1.28-0.63,2.25-0.07,3.19,0.43
		c2.64,1.41,5.3,2.81,7.89,4.31c8.97,5.18,17.1,11.51,24.72,18.49c6.3,5.77,10.41,13.09,14.27,20.57c0.89,1.73,1.06,3.67,1.15,5.6
		c0.19,4.1-0.38,8.11-1.01,12.16c-2.45,15.93-6.83,31.37-11.44,46.77C222.25,457.64,222.22,458.15,221.65,458.34z"/>
	<path class="st0" d="M297.7,346.4c1.1,1.58,0.96,3.15,0.76,4.69c-0.66,4.99-1.02,10-0.97,15.03c0.05,5.81-1.5,11.37-2.64,17
		c-1.29,6.37-3.74,12.35-5.96,18.43c-3.81,10.45-9.78,19.71-15.67,29.02c-3.91,6.18-7.97,12.25-12.38,18.09
		c-1.16,1.53-2.12,3.18-2.94,4.93c-0.81,1.74-1.87,3.32-3.36,4.48c-1.18-0.19-1.31-1.11-1.59-1.86c-1.51-4.05-2.6-8.22-3.62-12.41
		c-2.29-9.31-4.51-18.63-6.04-28.1c-0.72-4.44,0.79-8.52,3.09-12.24c0.95-1.54,2.5-2.55,4.38-2.92c0.93-0.18,1.87-0.46,2.75-0.83
		c2.16-0.89,3.87-2.26,4.95-4.45c1.28-2.59,2.47-5.2,3.05-8.03c1.01-4.9,3.33-9.24,5.82-13.47c6.39-10.85,15.2-19.35,25.85-25.99
		C294.51,346.93,295.85,346.19,297.7,346.4z"/>
	<path class="st0" d="M254.33,645.28c-3.78-3.84-8.04-7-11.63-10.84c-1.33-1.43-2.11-3.2-3.07-4.85
		c-7.33-12.55-16.3-23.97-24.66-35.8c-5.33-7.53-10.54-15.14-16.13-22.48c-2.97-3.91-5.86-7.87-8.71-11.86
		c-0.9-1.26-1.89-2.48-2.5-4.2c2.04-5.59,5.86-10.53,7.77-16.35c1.89-5.76,3.84-11.49,5.84-17.49c1.22,1.08,1.48,2.28,1.93,3.34
		c5.44,12.92,10.71,25.91,16.31,38.75c3.16,7.24,6.84,14.24,10.33,21.33c2.8,5.7,5.62,11.4,8.53,17.04
		c2.32,4.48,4.27,9.1,5.92,13.87c3.18,9.17,6.41,18.32,9.6,27.48C254.1,643.88,254.18,644.59,254.33,645.28z"/>
	<path class="st0" d="M105.7,44.27c0.57-0.17,0.93,0.19,1.29,0.47c4.24,3.38,8.88,6.16,13.74,8.46c5.83,2.75,11.76,5.17,18.25,6.28
		c7.58,1.29,15.22,1.75,22.85,2.37c2.69,0.22,5.46-0.54,8.2-0.73c1.63-0.11,3.28-0.67,4.71-0.28c0.84,0.8,0.6,1.52,0.55,2.23
		c-0.28,4.3-0.62,8.6-0.76,12.9c-0.05,1.65,0.28,3.34,0.59,4.98c0.3,1.55,0.48,3.06,0.14,4.59c-1.2,1.27-2.7,0.94-4.1,0.92
		c-12.46-0.24-24.35-3.5-36.22-6.87c-1.54-0.44-2.76-1.4-3.9-2.48c-5.65-5.36-11.33-10.68-15.95-17.01
		c-3.4-4.65-6.46-9.51-9.2-14.57C105.69,45.15,105.33,44.74,105.7,44.27z"/>
	<path class="st0" d="M124.23,77.1c8.7,3.88,17.02,6.34,25.56,8.19c8.55,1.85,17.16,3.12,25.79,3.27c1.45,1.8,1.69,3.77,2.43,5.5
		c1.31,3.08,2.5,6.22,3.68,9.36c0.46,1.21,1.13,2.39,0.98,3.8c-0.89,0.95-2.06,0.69-3.02,0.51c-5.28-1.01-10.65-1.49-15.87-2.97
		c-5.17-1.47-9.65-4.18-14.17-6.86c-9.03-5.34-16.66-12.47-24.52-19.29C124.91,78.47,124.84,78.21,124.23,77.1z"/>
	<path class="st0" d="M148.73,59.33c-10.67-0.71-20.4-3.17-29.63-8.67c2.64-2.14,5.43-3.04,8.2-4.07c2.7-1,5.76-1.1,8.41-3.01
		c-1.56-0.78-2.81,0.3-4.17,0.01c0.83-1.1,1.97-1.28,2.99-1.28c4.54-0.01,9.12-0.22,13.59,0.86c2.79,0.68,5.09,2.07,6.18,4.94
		c0.27,0.7,0.52,1.41,0.11,2.07C152.5,53.32,150.54,56.44,148.73,59.33z"/>
	<path class="st0" d="M195.34,117.63c1.67,1.18,3.39,2.25,4.57,3.96c-0.59,1.02-1.51,0.84-2.28,0.75c-2.02-0.24-4.1-0.35-6.01-0.97
		c-6.12-1.98-12.46-3.35-18.25-6.33c-2.55-1.32-5.2-2.44-7.77-3.71c-4.31-2.13-8.33-4.69-11.77-8.09c-0.15-0.14-0.18-0.4-0.28-0.61
		c0.67-0.32,1.13,0.21,1.61,0.47c5.01,2.73,10.41,4.21,16,5.01c4.02,0.57,7.96,1.75,12.08,1.53c1.37-0.08,2.31,0.74,2.95,1.75
		c1.95,3.09,5.01,5.12,7.34,7.84c0.32,0.37,0.75,0.6,1.36,0.45C196.02,119.29,194.76,118.24,195.34,117.63z"/>
	<path class="st0" d="M208.5,30.3c-1.39-2.18-1.56-4.25-1.58-6.26c-0.04-4.65,0.13-9.21,2.01-13.7c3.24-7.73,13.45-11.08,20.62-7.87
		c0.45,0.2,0.82,0.47,0.87,1.07c-0.23,0.85-1.05,0.88-1.71,0.96c-3.51,0.4-6.34,2.14-8.8,4.5c-3.64,3.49-7.2,7.07-9.01,11.94
		C209.8,23.84,208.66,26.74,208.5,30.3z"/>
	<path class="st0" d="M91.71,180.94c2.68,1.05,4.62,2.47,6.59,3.82c1.02,0.7,0.91,1.6-0.25,2.19c-0.94,0.12-1.15-1.33-2.42-0.85
		c-0.73,3.93,1.55,8.83-2.95,12.09c-1.16-0.84-1.93-1.88-2.68-2.94c-0.51-0.71-1.06-1.31-2.06-1.06c-0.96,0.25-1.29,1.07-1.49,1.86
		c-0.2,0.8-0.15,1.66-0.22,2.49c-0.04,0.43,0.13,0.96-0.48,1.14c-0.58-0.19-0.53-0.7-0.6-1.16c-0.43-2.86-0.32-5.73-0.27-8.6
		C84.95,185.21,87.56,182.51,91.71,180.94z"/>
	<path class="st0" d="M179.18,119.13c1.43,0.44,2.87,0.86,4.29,1.33c3.96,1.3,7.89,2.7,12.06,3.29c2.81,0.4,3.01,0.75,3.03,3.42
		c0.03,3.46,0.01,6.91,0.01,11.01c-2.39-2.54-4.29-4.72-6.36-6.71c-2.14-2.06-4.25-4.16-6.61-6c-2.33-1.82-4.42-3.95-6.61-5.95
		C179.06,119.39,179.12,119.26,179.18,119.13z"/>
	<path class="st0" d="M75.07,203.77c-0.53-0.38-0.66-0.84-0.7-1.32c-0.19-2.78,0.12-5.53,0.78-8.2c0.76-3.12,3.37-4.89,6.95-4.97
		c0.13,0.29,0.39,0.6,0.4,0.92c0.1,3.59,0.17,7.18,0.23,10.77c0.01,0.48,0,0.97-0.1,1.43c-0.27,1.25-1.42,1.75-2.44,0.98
		c-0.95-0.72-1.74-1.66-2.96-1.96c-0.11-0.03-0.24,0-0.29,0C75.69,201.71,75.77,203.08,75.07,203.77z"/>
	<path class="st0" d="M103.33,187.33c-1.74-0.87-2.01-2.06-2.38-3.16c-0.65-1.95-0.76-3.97-0.72-6.01c0.04-1.63,0.86-2.8,2.25-3.37
		c1.95-0.81,4.02-1.85,6.01-0.02c0.43,0.39,1.02,0.89,1.06,1.38c0.32,3.27,1.19,6.55,0.37,9.79c-1.32,0.34-1.29-0.71-1.68-1.18
		c-0.93-1.13-1.96-2.09-3.39-2.51c-1.05-0.31-1.92,0.33-1.92,1.45c0,0.59,0.15,1.18,0.22,1.77
		C103.21,185.92,103.24,186.37,103.33,187.33z"/>
	<path class="st0" d="M243.58,53.52c0.68-1.9,1.09-3.88,2.45-5.44c3.41,2.16,10.1,12.05,11.1,16.34c0.16,0.68-0.16,1.14-1.04,1.54
		c-1.95-2.03-4.01-4.11-6-6.25C248.06,57.53,245.36,56.07,243.58,53.52z"/>
	<path class="st0" d="M66.08,207.16c-1.01-0.77-1.86-1.41-2.7-2.06c-2.67-2.04-2.3-4.96-1.07-7.39c0.36-0.71,1.05-0.88,1.79-0.95
		c2.62-0.26,6.48,1.98,7.58,4.47c0.48,1.08,0.29,2.06-0.6,2.92C70.13,205.06,68.2,206.29,66.08,207.16z"/>
	<path class="st0" d="M243.18,49.57c-1.44,3.22-3.12,6.4-6.31,8.87c-1.01-1.29-1.07-2.6-1.26-3.86c-0.15-1.06,0.24-1.86,1.17-2.4
		c1.75-1.03,3.48-2.09,5.24-3.11C242.36,48.87,242.73,48.95,243.18,49.57z"/>
	<path class="st0" d="M119.24,716.5c-3.32-5.4-5.9-10.98-6.52-17.32c-0.3-3.07,0.45-5.84,1.4-8.74c0.04,0.86,0.26,1.76,0.1,2.58
		c-1.1,5.67,0.69,10.89,2.44,16.12C117.48,711.6,118.38,714.04,119.24,716.5z"/>
	<path class="st0" d="M249.89,125.85c2.38-1.64,4.35-3.5,6.33-5.51c0.96,0.89,0.65,2.1,1.18,3c0.45,0.75,1.08,1.63,0.53,2.71
		c-1.14,0.78-2.25-0.16-3.39-0.18c-1.31-0.03-1.57,1.32-2.32,1.73C251.16,127.38,250.42,127.07,249.89,125.85z"/>
	<path class="st0" d="M302.47,765.26c-3.56,3.1-7.37,5.98-12.65,5.01c-1.05-0.19-2.17,0.02-3.22-0.17c-1.53-0.28-3-0.79-3.48-2.58
		c0.34-0.16,0.65-0.38,0.7-0.33c3.77,3.5,8.04,2.37,12.17,1.12C298.25,767.63,300.32,766.3,302.47,765.26z"/>
	<path class="st0" d="M326.1,764.58c-0.75,1.03-0.71,2.25-0.9,3.43c-0.52,3.26-2.38,5.44-5.57,6.36c-3.19,0.91-6.43,1.17-10.13,0.63
		c1.17-1.1,2.16-0.81,3.04-0.8c1.93,0.01,3.84-0.19,5.69-0.7c2.96-0.81,5.16-2.49,5.88-5.65c0.3-1.32,0.69-2.55,2.01-3.21
		L326.1,764.58z"/>
	<path class="st0" d="M181.9,774.55c-2.72,1.49-5.55,1.94-8.3,0.77c-2.05-0.87-4.09-1.97-4.93-4.33c0.94-0.67,1.23,0.13,1.49,0.52
		c1.65,2.46,4,3.23,6.83,3.05C178.62,774.47,180.26,774.55,181.9,774.55z"/>
	<path class="st0" d="M142.61,774.43c5.15,0.67,7.65,1.36,8.71,2.5c-2.21,0.99-4.24,0.11-6.25-0.23
		C144.02,776.53,144.04,776.47,142.61,774.43z"/>
	<path class="st0" d="M245.87,82.06c1.84-1.34,3.17-0.7,4.47-0.22c0.6,0.22,0.77,0.68,1.28,2.51
		C249.4,84.61,247.84,83.5,245.87,82.06z"/>
	<path class="st0" d="M160.03,774.79c-1.36,1.85-3.01,2.89-5.52,2.25C155.63,774.01,158.21,775.31,160.03,774.79z"/>
	<path class="st0" d="M72.46,205.96c-2.36,2.28-5.03,4.13-7.95,5.63C66.92,209.37,69.58,207.51,72.46,205.96z"/>
	<path class="st0" d="M111.64,179.18c1.44-2.03,3.38-2.58,5.11-3.44C115.43,177.18,114.55,179.27,111.64,179.18z"/>
	<path class="st0" d="M194.75,765.77c-1.11,1.43-2.69,1.86-4.37,2.05c-0.37-0.81,0.05-1.1,0.46-1.27c1.17-0.49,2.37-0.92,3.57-1.36
		c0.07-0.03,0.24,0.06,0.29,0.14C194.75,765.4,194.72,765.54,194.75,765.77z"/>
	<path class="st0" d="M127.55,773.45c-2.77-0.05-4.41-0.8-4.85-3.47c1.14,0.08,1.39,1.18,2.07,1.62
		C125.55,772.09,126.3,772.61,127.55,773.45z"/>
	<path class="st0" d="M342.14,775.26c-2.35,0.66-2.35,0.66-4.62-0.84C339.31,774.75,340.46,774.96,342.14,775.26z"/>
	<path class="st0" d="M70.57,220.59c0.51,0.03,1.01,0.19,0.98,0.78c-0.04,0.73-0.6,1-1.26,0.92c-0.52-0.06-0.88-0.41-0.79-0.97
		C69.6,220.76,70.05,220.6,70.57,220.59z"/>
	<path class="st0" d="M326.13,764.63c1.03-0.56,1.97-1.41,3.28-1.09c0.34,0.09,0.67,0.28,0.65,0.89c-1.26,0.34-2.55,0.96-3.96,0.16
		L326.13,764.63z"/>
	<path class="st0" d="M61.07,217.29c-1.33-0.45-2.12-0.57-1.73-1.53c0.1-0.25,0.58-0.56,0.81-0.5
		C61.11,215.48,60.69,216.25,61.07,217.29z"/>
	<path class="st0" d="M346.11,774.7c0.39-0.91,1.13-1.12,1.83-1.39C347.64,774.24,347.64,774.24,346.11,774.7z"/>
	<path class="st0" d="M162.44,766.6c1.06-0.83,1.92-0.83,3.12-0.26C164.47,767.1,163.61,766.98,162.44,766.6z"/>
	<path class="st0" d="M133.76,773.56c0.53-0.12,1.07-0.24,1.76-0.4C135.01,774.11,134.39,773.87,133.76,773.56z"/>
</g>
</svg>
