<?xml version="1.0" encoding="utf-8"?>
<!-- Generator: Adobe Illustrator 24.0.2, SVG Export Plug-In . SVG Version: 6.00 Build 0)  -->
<svg version="1.1" id="Layer_1" xmlns="http://www.w3.org/2000/svg" xmlns:xlink="http://www.w3.org/1999/xlink" x="0px" y="0px"
	 viewBox="0 0 572.3 284.33" style="enable-background:new 0 0 572.3 284.33;" xml:space="preserve">
<g id="AG-DETAILS">
</g>
<g id="AG-OUTLINE">
	<g id="POLYLINE_18_">
		<path d="M425.68,84.92c-0.24-11.85-4.14-25.74-9.13-36.44c-1.42-3.04-3.68-5.65-4.94-8.74c-0.72-1.76-0.49-4.42-1.64-5.86
			c-2.29-2.88-5.24-1.17-7.28,1.52c-1.92,2.54-2.39,5.98-3.99,8.74c-2.8,4.84-7.38,8.29-11.55,11.86
			c-2.03-3.88-4.67-6.95-7.32-10.39c-2.81-3.65-4.23-7.89-6.71-11.7c-0.91-1.4-1.88-3.05-3.49-3.76c-2.16-0.96-3.9-0.64-5.42,1.21
			c-1.1,1.33-1,3.69-1.5,5.19c-1,3.06-2.55,5.96-3.98,8.84C344.99,27.68,330.69,8.91,308.6,1.08c-3.9-1.38-7.4-2.22-8.3,2.46
			c-0.67,3.5,1.28,7.77,1.74,11.2c0.54,4.04,0.48,8.01-0.37,12.02c-7.74-4.81-14.69-10.16-23.61-12.54
			c-3.69-0.99-10.96-3.52-14.7-1.58c-6.07,3.15,1.15,15.74,1.2,20.9c0.03,2.77-0.23,5.7-1.26,8.3c-0.75,1.9-0.99,2.78-2.58,3.24
			c-2.46,0.71-8.52-1.52-10.82-1.89c-17.56-2.77-35.46-1.38-53.15-0.88c-4.6,0.13-23.23-1.39-24.34,6.71
			c-0.88,6.44,10.74,11.22,14.32,14.69c1.24,1.19,2.42,2.44,3.53,3.75c-9.97,0.15-25.36-0.43-34.5,4.42
			c-1.14,0.61-2.63,1.17-3.06,2.56c-1.68,5.43,9.56,10.38,12.32,14.2c3.05,4.22,4.45,6.84,9.5,8.54
			c-10.6,1.91-27.97,3.96-36.55,11.82c-1.64,1.51-2.07,1.72-1.68,3.97c0.62,3.55,5.97,7.43,8.1,9.66c-3.68,0-6.45,2.32-9.49,4.06
			c-4.08,2.34-9.13,3.05-12.98,5.65c-2.37,1.6-2.99,2.09-2.18,4.59c0.57,1.74,3.49,3.98,4.67,5.54c2.76,3.65,5.22,7.13,8.54,10.3
			c-1.69,1.03-2.91,2.57-3.56,4.43c-0.44,1.25-0.44,2.59-0.42,3.89c0.02,1.47,0.69,2.98,0.67,4.41c-0.05,3.36-0.26,2.9-4.12,3.84
			c-5.11,1.24-11.19-0.61-12.21,5.93c-0.76,4.84,0.58,11.88,2.42,16.48c-4.64,0-12.69,0.32-12.21,6.74c0.2,2.68,2.45,5.02,2.78,7.79
			c-3.94-0.56-12.99-1.92-14.53,3.08c-0.84,2.74,1.52,10.05,3.07,12.32c0.57,0.84,2.6,2,2.86,2.63c2.06,5.05-5.93,7.65-9.02,9.69
			c-6.24,4.12-13.17,11.05-20.84,8.42c-5.68-1.95-9.88-8.52-15.21-10.08c-1.69-0.49-1.54-1.39-1.74,0.53
			c-0.42,4.02,8.6,11.3,11.4,13.87c-7.11,0-14.42-3.21-20.5-6.61c-3.98-2.22-7.95-4.69-11.48-7.59c-1.51-1.24-4.07-5.13-5.64-5.64
			c-6.83-2.24,5.57,11.21,5.83,11.5c5.63,6.16,12.33,10.82,20.18,13.69c-8.59,0.12-17.08-4.33-22.53-10.86
			c-3.19-3.82-5.51-6.06-2.81,0.44c1.9,4.57,5.12,8.66,8.96,11.74c-7.89,0-16.56-2.85-23.15-7.06c-3-1.92-5.71-7.09-8.76-8.08
			c-6.44-2.09,2.01,7.98,3.06,9.09c6.31,6.68,14.8,9.58,23.55,11.81c-2.02,0.35-24.52,1.19-24.2,6.2c0.33,5.29,24.32,4.4,26.7,4.41
			c25.96,0.1,51.1-7.38,75.13-16.63c24.68-9.5,46.69-23.72,70.71-34.58c13.4-6.06,26.96-11.83,40.68-17.11
			c9.17-3.53,19.05-7.85,28.95-8.9c9.96-1.05,16.16,5.29,24.9,8.62c5.5,2.1,9.12,0.87,6.35,7.12c-4.53,10.22-2.54,19.89-5.15,30.54
			c-1.82,7.43-5.95,12.96-4.2,20.8c1.11,4.97,3.11,9.79,4.4,14.85c1.22,4.81,0.15,9.38,6.19,9.71c7.6,0.42,15.7-0.3,23.04-1.1
			c2.45-0.27,4.96,0.54,7.3,0.79c0.33,0.03,4.55-0.04,4.17,0.33c0.85-0.84,0.03-2.19-0.33-3.3c-1.06-3.29-4.87-5.6-6.81-8.1
			c-2.28-2.95-3.07-3.51-3.63-6.92c-0.78-4.71-1.02-10.81-0.62-15.69c0.78-9.5,8.49-17.23,12.87-25.12c2.7-4.86,4.5-9.58,6.77-14.57
			c17.91,12.07,37.09,17.04,58.32,16.18c12.06-0.49,22.23-4.41,33.79-7.05c1.58-0.36,3.06-0.6,4.69-0.5
			c4.95,0.3,6.14,1.55,7.16,6.04c1.15,5.06,2.57,11.49,4.7,16.18c3.96,8.76,9.75,16.93,12.91,26.17c1.31,3.84,3.19,7.55,4.34,11.41
			c1.74,5.84,1.59,4.36,7.31,4.46c6.27,0.11,13.66,0.64,20.33,0.59c3.11-0.02,6.1,0.98,6.29-2.31c0.3-5.34-6.77-8.96-8.52-12.56
			c-2.2-4.52-3.19-9.88-5.18-14.77c-0.93-2.29-1.47-5.07-2.02-7.47c-0.94-4.14-1.43-8.56-3.14-12.48c-0.69-1.59-2.07-3.06-2.45-4.75
			c-1.12-4.92,3.39-13.46,5.64-17.51c1.84-3.29,4.19-9.78,6.88-12.37c1.07-1.03,2.64-1.41,3.92-2.04c5.32-2.6,10.53-5.79,16.21-7.58
			c13.19-4.15,27.57-12.77,41.67-12.58c5.62,0.08,10.88-0.41,16.51-0.66c3.96-0.18,7.88,0.86,11.8,0.55
			c2.77-0.21,5.63-0.98,7.58-2.91c2.5-2.47,1.34-6.11-2.19-8.78c-2.03-1.53-4.49-1.7-6.92-2.3c-6.13-1.53-11.58-3.92-17.14-6.15
			c-3.93-1.58-8.76-2.1-12.99-3.32c-1.36-0.39-2.65-1.01-3.96-1.47c-3.7-1.31-4.15-0.6-4.11-4.32c0.03-2.27,2.22-7.86-2.44-8.16
			c-2.77-0.18-3.49,3.84-3.58,6.29c-0.08,2.4,3.22,6.04-2.56,4.3c0.77-3.46,3.17-12.6-3.11-12.39c-0.73,0.02-1.68,1.98-1.89,2.58
			c-1.03-2.21-4.73-5.75-7.16-4.18c-1.6,1.04,0.52,4.17-2.25,3.52c0.03,0.01-1.81-2.89-2.33-3.32c-1.51-1.23-2.32-2.79-3.72-0.35
			c-2.14-3.22-4.25-6.77-7.27-3.09c-1.17,1.42-0.69,6.85-2.65,6.65c-1.88-0.18-1.38-3.91-2.1-5.1c-0.83-1.36-2.74-1.8-3.48-3.2
			c-0.71-1.33,0.3-3.59-0.6-4.72c-1.58-1.98-3.98-1.08-5.7,0.58c0.42,0,0.3-4.53-0.25-5.04c-1.16-1.09-2.2,0.01-3.51-0.12
			c-0.74-0.07-1.98,0.83-2.57,1.23c2.1-6.82,0.69-11.81,0.11-18.72c-0.56-6.76,0.54-14.52-2.81-20.77c-1.38-2.57-3.7-5.63-6.95-4.68
			c-4.15,1.21-6.3,7.98-9.13,10.85c-0.39-4.61-1.34-17.76-7.8-18.93c-3.95-0.72-5.34,3.1-6.71,5.75
			C431.41,80.69,429.31,83.04,425.68,84.92z"/>
	</g>
</g>
<g id="N-TEXT">
</g>
</svg>
