<?xml version="1.0" encoding="utf-8"?>
<!-- Generator: Adobe Illustrator 24.0.2, SVG Export Plug-In . SVG Version: 6.00 Build 0)  -->
<svg version="1.1" id="Layer_1" xmlns="http://www.w3.org/2000/svg" xmlns:xlink="http://www.w3.org/1999/xlink" x="0px" y="0px"
	 width="1849" height="2104.06" viewBox="0 0 1849 2104.06" style="enable-background:new 0 0 1849 2104.06;" xml:space="preserve">
<g>
	<path d="M1715.35,2091.07c-7.62-6.27-6.8-18.82-16.92-24.04c-5.55,1.39-9.4,4.61-13,9.53c-4.75,6.49-10.43,12.65-20.32,10.67
		c-5.41-1.08-10.79,0.73-15.01,4.16c-4.42,3.58-8.84,4.02-14,2.49c-2.19-0.65-4.66-1.09-6.88-0.78c-5.36,0.75-10.33,0.57-15.5-1.64
		c-2.73-1.16-6.36-0.21-9.92-0.21c-0.48,3.44-0.6,6.07-1.25,8.58c-0.96,3.73-4.78,5.5-7.77,3.23c-4.52-3.42-8.76-7.16-14.37-8.74
		c-0.28-0.08-0.54-0.4-0.7-0.67c-1.43-2.51-2.05-6.36-5.83-5.8c-2.42,0.36-4.53,2.52-6.86,3.72c-13.5,6.9-27.71,11.02-42.99,11.46
		c-11.08,0.32-21.91-0.55-32.55-3.88c-3.7-1.16-7.55-2.52-11.46,0.4c-1.26,0.94-3.84,0.55-5.69,0.16c-5.52-1.17-10.98-2.67-16.47-4
		c-4.22-1.02-7.97-2.62-11.71-5.14c-3.97-2.67-9.05-4.03-13.85-4.98c-2.17-0.43-4.82,1.54-7.95,2.67c-1.98-0.87-4.65-2.06-7.34-3.21
		c-0.9-0.38-2.54-0.45-2.69-0.98c-2.19-7.68-9.88-6.91-15.05-9.96c-6.87-4.06-13.72-8.19-20.69-12.07
		c-6.61-3.67-8.94-9.72-9.28-16.63c-0.23-4.61,0.25-9.3,0.91-13.88c0.46-3.18,0.11-5.87-1.67-8.52
		c-7.24-10.77-14.51-21.52-21.58-32.41c-3.17-4.89-7.63-6.18-12.93-5.5c-2.92,0.38-5.77,1.23-9.12,1.97
		c-2.25-3.63-4.22-7.28-8.51-9.22c-2.41-1.09-4.38-4.18-5.54-6.81c-2.32-5.29-5.27-9.77-9.8-13.53c-2.39-1.98-4.68-5.35-5.01-8.32
		c-1.06-9.44-6.52-16.67-11.06-24.33c-6.94-11.73-14.48-23.11-21.43-34.84c-2.61-4.4-5.63-8.12-9.74-11.16
		c-3.2-2.36-6.25-5.02-8.94-7.93c-3.87-4.19-8.23-6.69-14.08-5.94c-5.05,0.65-8.65-1.51-12.33-4.98
		c-8.92-8.42-18.37-16.29-27.77-24.52c-1.84,0.88-3.58,1.72-5.57,2.67c-8.32-5.12-12.17-13.66-16.46-22.24
		c-0.92,0.17-1.84,0.2-2.64,0.52c-0.89,0.36-1.66,1-2.98,1.83c-3.71-5.47-8-10.04-9.37-17.07c-1.17-6.05-4.5-11.76-7.35-17.38
		c-5.28-10.38-10.8-20.64-16.41-30.85c-8.07-14.68-9.03-30.58-7.35-46.63c0.64-6.11,3.71-12.04,6.13-17.87
		c5-12.05,10.63-23.74,21.14-32.22c1.55-1.25,2.74-2.94,4.28-4.2c14.62-11.93,23.84-27.2,29.83-45.04
		c3.79-11.3,9.7-21.88,14.52-32.85c1.11-2.53,3.69-4.96,1.56-8.23c-6.18,1.04-12.24,2.17-18.33,3.05c-6.24,0.9-12.23-3.93-19-0.78
		c-0.77,1.8-1.66,3.86-2.47,5.75c-0.95,0.2-1.59,0.47-2.2,0.42c-0.99-0.08-2.11-0.12-2.9-0.62c-8.39-5.25-17.7-4.76-27.04-4.85
		c-4.93-0.04-9.87-1.15-14.76-2c-8.17-1.43-9.78-0.12-12.07,7.59c-3.03,10.19-6.7,20.18-10.19,30.23c-0.54,1.55-1.36,3.07-2.33,4.41
		c-13.25,18.26-28.86,33.94-49.14,44.43c-0.88,0.46-1.81,0.89-2.77,1.13c-16.16,4.11-32.37,7.87-49.25,6.26
		c-1.97-0.19-4.25-0.2-5.8-1.2c-5.7-3.7-12.08-2.56-19.17-3.93c0.58,2.7,0.81,4.5,1.35,6.2c3.29,10.48,6.74,20.91,9.94,31.42
		c0.86,2.83,1.75,5.96,1.41,8.8c-1.7,14.29,0.62,28.51,0.35,42.78c-0.22,11.74-3.3,22.7-8.86,32.39
		c-8.43,14.68-15.73,30.14-26.48,43.42c-3.97,4.9-7.88,9.87-12.12,14.53c-14.43,15.88-31.25,28.76-49.25,40.42
		c-13.96,9.04-27.07,19.43-36.84,33.33c-2.17,3.08-4.74,5.25-9.16,4.75c-5.77-0.65-11.06,1.29-16.05,4.28
		c-11.44,6.86-23.11,13.18-36.45,15.75c-7.38,1.42-7.33,1.65-12.79-3.88c-23.42,5.76-46.37,13.49-69.95,20.14
		c-0.29-2.74-0.45-4.29-0.69-6.55c-1.91,0.19-3.89-0.01-5.54,0.63c-6.03,2.36-12.23,2.83-18.63,2.85
		c-4.95,0.01-9.88,1.02-14.84,1.35c-4.64,0.31-9.53,1.27-13.91,0.25c-10.26-2.39-20.56-1.31-30.84-1.72
		c-15.6-0.62-31.25-0.78-46.77-2.31c-7.82-0.77-15.57-3.61-23.03-6.38c-12.46-4.63-24.95-9.38-36.89-15.17
		c-10.14-4.92-19.28-11.87-29.33-17.03c-13.1-6.73-26.69-10.39-40.36-0.92c-0.27,0.19-0.54,0.4-0.84,0.54
		c-3.55,1.76-5.74,1.07-7.22-2.4c-5.42-12.72-9.04-25.54-5.07-39.63c1.21-4.3,0.57-9.31-0.01-13.89
		c-1.33-10.65,1.02-19.73,9.5-26.86c4.28-3.6,8.31-7.48,12.8-11.55c-1.82-1.47-3.28-2.65-5.32-4.3c1.67-1.2,2.99-2.69,4.62-3.23
		c11.68-3.87,20.88-11.58,30.17-19.18c1.54-1.26,2.77-3.03,4.47-3.98c18.5-10.35,35.39-23.98,56.93-28.19
		c3.25-0.63,6.53-1.14,9.82-1.46c16.88-1.67,33.8-3.22,49.85-9.16c6.84-2.53,13.46-5.71,19.97-9.02
		c9.18-4.66,18.24-9.58,27.21-14.64c12.2-6.88,19.89-17.36,23.76-30.75c1.18-4.06,0.54-7.89-1.08-11.68
		c-2.87-6.73-5.74-13.46-8.51-20.24c-2.76-6.76-6.14-13.36-6.01-20.97c0.02-0.95-0.3-2.11-0.89-2.81c-0.99-1.17-2.19-2.51-3.55-2.9
		c-0.85-0.24-2.56,0.9-3.17,1.87c-1.23,1.94-2.03,4.16-2.91,6.31c-1,2.46-1.45,5.27-2.91,7.41c-6.94,10.15-13.98,20.23-21.35,30.07
		c-2.35,3.14-5.59,5.75-8.81,8.06c-4.98,3.55-8.64,8.14-12.35,12.91c-5.09,6.54-10.23,13.34-16.57,18.52
		c-9.71,7.93-21.63,11.56-34.07,12.9c-4.28,0.46-8.76,0.63-12.96-0.13c-5.98-1.08-11.06,0.28-16.23,3.07
		c-10.02,5.41-20.77,8.89-31.89,11.3c-2.18,0.47-4.5,1.49-6.18,2.92c-8.24,7-17.43,12.15-27.8,15.24c-2.22,0.66-4.46,1.57-6.38,2.83
		c-10.42,6.84-22.38,10.06-33.85,14.35c-4.55,1.7-9.7,2.09-14.62,2.41c-5.97,0.4-12-0.07-17.99,0.13
		c-13.16,0.45-24.87-3.47-35.56-11.02c-2.4-1.7-5.28-2.73-7.95-4.05c-5.36-2.65-10.8-5.17-16.09-7.96
		c-3.55-1.87-6.76-2.41-10.19,0.29c-1.52,1.19-3.44,2.05-5.31,2.6c-10.39,3.11-16.19,10-17.51,20.72c-0.6,4.91-0.95,9.76-3.74,14.24
		c-1.26,2.03-0.92,5.16-1.01,7.8c-0.14,4.33,0.03,8.67-0.04,13c-0.06,4.18,1.2,7.86,3.79,11.11c0.62,0.78,1.39,1.47,1.89,2.33
		c3.16,5.45,5.55,11.54,9.59,16.22c4.03,4.67,9.81,7.8,14.6,11.87c3.81,3.24,6.21,7.69,9.18,11.65c4.72,6.3,10.23,12.67,16.8,16.77
		c8.72,5.44,12.96,13.26,15.82,22.12c2.86,8.84,4.48,17.95,4.45,27.47c-0.04,12.26,1.03,24.55,2.01,36.8
		c0.98,12.22-1.44,23.84-5.28,35.26c-2.76,8.21-8.5,14.19-15.48,18.97c-1.83,1.25-4.31,1.95-6.55,2.13
		c-9.2,0.74-11.98-3.23-8.85-12.06c1.2-3.39,2.07-6.91,3.12-10.43c-5.02-2.84-9.5-5.37-14.51-8.2c-2.5,3.66-5.13,7.4-7.66,11.21
		c-3.7,5.57-8.96,8.59-15.4,10.05c-3.19,0.72-5.89,0.26-8.7-1.81c-2.7-7.4,0.22-14.75,1.54-22.64c-6.36-0.41-12.61,0.31-18.04-1.47
		c-5.46-1.79-10.1-6.07-15.81-9.7c-2.21,4.73-5.07,9.92-7.1,15.41c-3.08,8.34-10.12,12.01-17.25,15.6
		c-2.68,1.35-5.93-0.54-6.71-4.02c-1.15-5.16-2-10.42-2.45-15.68c-0.4-4.6-0.08-9.27-0.08-14.81c-2.53,0.54-4.34,0.7-5.98,1.32
		c-6.21,2.35-12.28,5.08-18.55,7.23c-15.76,5.4-30.87,4.18-44.53-5.86c-7.8-5.73-12.28-13.78-13.56-23.46
		c-0.31-2.3-0.28-4.65-0.74-6.92c-1.1-5.45-4.04-8.94-10.11-8.79c-3.72,3.6-3.73,7.61-1.6,11.9c0.15,0.3,0.38,0.55,0.55,0.84
		c4.09,7.04,7.46,14.47,5.42,22.74c-2.73,11.09-7.28,21.53-15.79,29.52c-4.12,3.87-9.11,6.66-14.92,7.63
		c-3.59,0.6-7.11,1.57-10.43,2.33c-4.58,4.96,1.67,10.54-1.36,15.37c-10.94,3.3-13.32,2.35-27.29-10.89
		c-12.02,2.57-23.82,1.48-34.82-3.96c-4.65-2.3-8.44-6.34-12.58-9.63c-0.5-0.4-1.04-1-1.16-1.6c-2.4-11.89-7.84-23.32-4.34-36.06
		c1.94-7.08,0.81-14.33-0.09-21.69c-1.16-9.46-0.36-19.18-0.09-28.78c0.33-11.9,5.97-21.56,13.35-30.47
		c2.1-2.54,3.54-5.63,5.39-8.39c2.02-3.01,3.99-6.08,6.28-8.88c9.23-11.29,15.38-23.35,10.87-38.55
		c-1.85-6.24,0.27-11.88,3.66-17.04c7.14-10.84,14.57-21.49,21.59-32.41c11.34-17.62,23.98-34.39,33.27-53.34
		c5.41-11.03,11.86-21.59,18.34-32.04c8.58-13.83,17.79-27.27,26.51-41.01c14.08-22.2,27.91-44.55,42.02-66.73
		c3.02-4.75,7.03-8.88,10.13-13.59c3.65-5.54,5.44-11.72,7.19-18.26c3.35-12.54,5.23-25.33,8.35-37.84
		c3.06-12.27,8.83-23.36,17.5-33.22c6.77-7.7,12.5-16.35,19.92-23.61c2.05-2,3.3-4.97,4.45-7.7c1.38-3.28,3.33-5.96,6.78-6.8
		c4.14-1,5.81-3.96,6.46-7.12c10.61,0,20.57-0.27,30.5,0.09c6.94,0.25,13.9,1.1,20.76,2.22c2.82,0.46,5.45,2.27,8.09,3.63
		c1.98,1.02,3.83,2.3,6.81,4.11c3.81-44.66,20.89-83.4,44.73-120.59c-1.95,0.45-3.56,0.82-6.09,1.4c0.41-5.79,2.29-10.93,4-16.06
		c1.37-4.08,2.88-8.15,4.72-12.04c1.56-3.28,3.16-6.8,5.65-9.32c6.54-6.6,13.46-12.84,20.47-18.95c2.52-2.19,4.56-4.08,5.91-7.51
		c1.46-3.73,4.71-7.3,8.09-9.64c10.1-7.02,20.61-13.44,31.02-20.01c3.94-2.49,8.02-4.75,12.06-7.07c4.29-2.47,6.8-6.17,8.14-10.89
		c1.07-3.8,2.31-7.57,3.81-11.21c3.17-7.69,6.47-15.33,9.9-22.91c6.13-13.55,15.2-24.82,26.41-34.57
		c6.02-5.24,11.44-11.16,17.24-16.67c6.03-5.72,12.01-11.53,18.36-16.88c5.52-4.66,5.7-11.11,6.42-17.24
		c0.66-5.59,0.36-11.32,0.11-16.98c-0.31-6.86,1.71-13.03,4.12-19.34c2.96-7.73,5.19-15.76,7.35-23.77
		c0.56-2.06,0.38-4.93-0.69-6.69c-2.98-4.93-2.74-10.18-2.74-15.5c0.01-9.29,0-18.57,0-27.63c-1.52-0.86-2.32-1.44-3.21-1.79
		c-7.23-2.82-8.04-5.16-3.72-11.61c2.59-3.87,5.39-7.6,8.09-11.41c2.55-3.6,2.71-7.23,0.7-11.25c-2.53-5.05-4.58-10.34-7.01-15.44
		c-0.99-2.08-2.25-4.1-3.72-5.87c-4.1-4.92-4.84-4.94-11.62-1.74c-0.5,0.24-1.25-0.05-2.73-0.15c-1.44-5.94-1.42-12.33-0.41-18.34
		c0.96-5.72,3.87-11.11,6.2-17.41c-3.38-0.63-6.43-1.2-9.97-1.87c0.79-2.75,1.47-5.14,2.27-7.92c-2.84-0.78-5.23-1.44-8.7-2.4
		c4.65-4.62,8.26-8.97,12.63-12.35c8.6-6.66,8.5-15.57,6.35-24.47c-1.37-5.68-4.18-11.38-7.66-16.11
		c-11.65-15.81-18.65-32.93-17.56-52.87c0.05-0.97-0.27-1.96-0.5-3.56c-9.05-1.7-17.43-6.2-27.44-5.53
		c-16.63,1.12-33.18-1.07-49.55-3.96c-6.34-1.12-11.38-0.03-14.56,5.58c-1.39,2.45-2.03,5.65-2.04,8.51
		c-0.04,17.64-6.21,33.01-16.02,47.4c-4.33,6.35-9.01,12.27-14.01,18.08c-4.3,4.99-7.43,10.98-11.06,16.54
		c-0.91,1.39-1.54,3-2.62,4.24c-14.19,16.36-24.57,35.43-37.48,52.71c-5.55,7.44-10.32,15.5-14.96,23.55
		c-1.93,3.35-3,7.36-3.72,11.21c-0.83,4.45,0.71,8.33,4.01,11.78c6.44,6.72,12.88,13.5,18.62,20.81c4.07,5.18,7.8,10.94,10.24,17.02
		c6.02,14.99,16.63,25.5,30.21,33.41c13.23,7.7,26.56,15.23,39.88,22.76c2.6,1.47,5.27,3.31,8.1,3.77
		c13.48,2.19,22.04,11.58,31.16,20.34c7.11,6.83,9.84,15.64,12.01,24.79c1.15,4.86,2.35,9.71,3.35,14.6
		c0.33,1.6,0.13,3.32,0.09,4.99c-0.08,3.13-0.66,6.07-4.04,7.33c-2.85,1.06-5.34-0.08-7.29-2.02c-4.62-4.58-10.18-7.38-16.2-9.59
		c-4.1-1.5-7.67-1.53-10.97,1.85c-6.51,6.65-14.74,8.59-23.74,8.44c-8-0.13-16.01,0.26-23.99-0.13c-5.61-0.27-11.21-1.27-16.75-2.3
		c-3.86-0.72-6.47-3.51-7.96-6.99c-2.49-5.79-4.55-11.76-7-17.57c-1.93-4.59-3.62-9.43-6.4-13.48
		c-5.87-8.57-13.19-15.16-24.81-13.57c-1.64,0.22-3.33,0-5,0.04c-12.23,0.3-13.66-1.9-23.98,8.85c-3.97,4.13-10.07,6.34-15.42,8.99
		c-8.39,4.16-16.83,8.13-22.82,15.74c-2.47,3.13-5.17,6.1-7.4,9.39c-8.03,11.85-15.96,23.77-23.84,35.72
		c-5.2,7.89-11.42,14.54-19.75,19.38c-4.22,2.45-7.59,6.41-11.18,9.86c-2.81,2.71-2.58,5.71-0.67,9.05
		c6.6,11.55,12.91,23.07,23.15,32.2c12.95,11.54,16.44,26.73,13.63,43.56c-0.76,4.52,0.11,7.06,4.41,8.92
		c3.24,1.4,6.98,1.81,10.54,2.24c3.62,0.44,7.37-0.02,10.94,0.61c3.73,0.66,5.23,4.72,2.92,7.77c-7.11,9.37-16.21,15.98-28.1,17.39
		c-6.23,0.74-12.7,0.59-18.95-0.11c-6.6-0.74-12.9-2.86-18.45-7.02c-6.97-5.22-14.85-8.73-23.02-11.8
		c-4.88-1.83-9.38-4.93-13.7-7.97c-5.84-4.11-8.1-9.78-7.97-17.21c0.15-8.58-1.08-17.2-2.14-25.76c-0.24-1.95-2.23-3.69-3.1-5.04
		c-7.82,3.91-14.89,7.35-21.87,10.97c-4.2,2.18-5.25,4.76-3.41,9.04c2.63,6.13,5.62,12.05,10.75,16.65
		c2.71,2.43,5.26,5.13,7.48,8.02c1.9,2.46,0.57,5.86-2.51,5.98c-5.26,0.2-10.76,0.48-15.8-0.75c-24.28-5.94-39.78-21.67-48.4-44.75
		c-1.03-2.76-2.57-5.35-4.08-7.9c-3.37-5.7-7.07-11.22-10.25-17.02c-3.58-6.53-3.64-13.61-0.74-20.26
		c3.03-6.97,6.8-13.65,10.57-20.28c4.93-8.68,10.44-17.04,15.2-25.81c4-7.39,3.85-10.75-2.28-15.96
		c-12.76-10.85-18.45-25.77-24.7-40.4c-2.33-5.45-3.31-11.46-5.33-17.05c-5.38-14.86,7.54-36.71,21.5-41.79
		c5.31-1.93,10.59-4.1,16.07-5.37c8.35-1.93,15.39-6.19,22.25-10.96c3.21-2.23,5.36-5.05,4.96-9.16
		c-0.59-6.06,2.25-10.26,7.14-13.27c4.64-2.85,6.08-6.91,7.21-12.23c2.92-13.66,6.99-27.11,17.51-37.33
		c2.77-2.69,4.33-5.83,4.17-9.78c-0.1-2.32-0.02-4.64-0.02-7.74c-1.4-0.29-3.17-0.65-5-1.03c-1.76-3.17-0.52-6.03,1.71-8.1
		c9.16-8.52,10.84-18.99,9.47-30.85c-0.66-5.69-0.05-11.25-5.72-15.01c-1.35-0.9-1.94-3.38-2.29-5.24c-0.48-2.57-0.41-5.25-0.6-8.42
		c-2.59-0.7-5.13-1.18-7.51-2.09c-2.87-1.09-4.08-3.28-3.09-6.38c0.1-0.32,0.14-0.67,0.31-0.95c6-9.51,3.38-18.7,0.17-28.57
		c-4.85-14.89-9.85-29.64-15.87-44.11c-2.36-5.67-2.94-12.25-3.42-18.49c-0.56-7.29-0.09-14.66-0.14-21.99
		c-0.07-10.41,1.78-20.5,4.96-30.37c2.14-6.65,4.49-13.22,6.58-19.88c4.88-15.49,13.62-28.82,23.12-41.75
		c3.34-4.54,5.86-9.94,9.93-13.64c9.08-8.25,17.68-17.26,28.62-23.18c4.17-2.26,6.69-5.26,7.79-9.74
		c5.21-21.19,18.69-34.02,39.78-38.91c12.21-2.84,22.4-10.03,33.53-15.17c7.85-3.63,15.65-7.39,23.24-11.53
		c4.03-2.2,7.71-5.14,11.26-8.1c3.06-2.55,5.82-5.49,8.51-8.44c17.25-18.88,37.47-33.81,59.74-46.28
		c12.19-6.83,23.72-14.83,37.09-19.37c5.65-1.92,10.94-4.33,16.06-7.65c4.89-3.17,11.11-4.24,16.62-6.52
		c4.79-1.98,10.57-0.57,14.79-4.95c1.22-1.27,4.44-0.78,6.74-0.8c8.66-0.08,17.33-0.14,26,0c5.29,0.09,9.74-1.53,13.65-5.09
		c5.9-5.38,11.98-10.54,17.89-15.91c6.01-5.45,12.87-9.39,20.48-12.09c9.72-3.45,16.26-11.39,24.26-17.26
		c0.71-0.52,1.25-1.68,1.34-2.59c0.68-6.52,5.42-9.75,10.37-12.6c6.05-3.49,12.35-6.54,18.48-9.9c2.85-1.56,6.37-2.33,7.88-6.43
		c-1.33-1.42-2.82-3-4.9-5.21c1.81-1.55,3.21-3.41,5.08-4.24c14.06-6.28,28.42-11.38,44.2-10.74c4.96,0.2,9.93,0.03,15.57,0.03
		c-0.47-2.91-0.81-5.02-1.19-7.43c6.46-5.95,13.43-0.76,19.82-0.07c6.63,0.71,12.96,4.26,19.85,6.73c0.54-3.48,1.03-6.64,1.66-10.71
		c4.15,2.75,7.56,5.02,11.88,7.89c1.79-6.46,1.87-11.68-0.67-17.06c-1.84-3.9-3.44-7.96-4.65-12.09c-1.2-4.1,0.52-6.43,4.64-7.05
		c1.63-0.25,3.33-0.06,4.99-0.21c5.94-0.52,11.87-1.43,17.82-1.56c6.27-0.14,12.59,0.23,18.84,0.8c5.7,0.52,7.3-1.15,5.29-6.76
		c-1.43-3.99-3.27-7.83-4.96-11.79c5.09-4.92,11.31-1.32,17.3-3.55c1.34-2.05,3.09-4.72,4.97-7.6c1.56,0.27,2.93,0.25,4.06,0.76
		c5.85,2.67,11.77,2.29,17.5,0.06c5.57-2.17,11.1-4.58,16.32-7.49c9.25-5.16,18.25-10.78,28.2-16.7c-1.84-2.2-3.19-3.84-4.57-5.46
		c-3.64-4.27-7.92-8.15-10.77-12.9c-2.71-4.51-3.93-9.82-1.83-15.38c1.01-2.67,1.08-5.7,1.56-8.52c4.49-0.35,5.99,3.19,8.5,5.16
		c4.44,3.49,8.75,7.16,13.34,10.42c3.01,2.15,6.47,3.44,10.92,1.14c-7.14-11.53-10.65-23.57-4.74-37.43
		c1.55,0.92,2.81,1.66,4.07,2.41c0.33-0.53,0.92-1.05,0.93-1.59c0.11-6-0.19-12.02,0.24-17.99c0.61-8.54,3.33-16.19,11.6-21.78
		c1.5,5.91,1.73,11.84,4.46,16.21c3.04,4.87,7.94,8.95,12.81,12.22c4.46,3,9.45,6.36,15.47,4.85c0.3-1.07,0.8-1.91,0.58-2.21
		c-9.53-13.02-7.07-27.93-6.6-42.46c0.1-3.24,1.51-6.45,5.88-7.91c0.7,3.76,1.35,7.19,2.03,10.84c4.09,0.81,5.94-1.33,7.3-4.13
		c2.46-5.09,4.63-10.34,7.26-15.34c3.56-6.77,7.4-13.4,11.22-20.02c0.42-0.73,1.55-1.06,2.79-1.85c2.04,2.58,3.99,5.03,6.13,7.72
		c6.45-3.55,3.91-12.6,10.57-15.17c11.42,20.7,15.18,21.58,22.82,22.54c2.24-6.01,4.52-12.13,7.17-19.22
		c-1.96-2.98-4.11-6.69-6.69-10.06c-7.09-9.28-14.13-18.58-18.59-29.49c-0.94-2.3-1.45-4.78-2.38-7.94
		c5.45-0.46,8.4,2.11,11.55,4.42c9.48,6.97,20.17,11.58,31.13,15.61c1.19,0.44,2.56,0.38,4.22,0.61c3.75-7.99-2.31-17.95,4.41-25.04
		c6.17,1.1,6.69,9.77,14.12,7.91c0.5-3.61,1.02-7.32,1.68-12.07c8.71,7.12,18.42,7.25,27.94,7.75c15.64,0.83,30.34,3.93,42.33,15.01
		c1.31,1.21,3.29,1.69,5.85,2.96c1.45-16.09,3.54-31.12,15.84-41.42c4.38,0.33,4.71,3.25,5.9,5.58c3.63,7.09,7.2,14.23,11.24,21.08
		c2.16,3.66,5,7.07,9.54,8.2c3.31-1.72,2.64-4.81,2.04-7.07c-1.37-5.11-3.05-10.22-5.34-14.98c-2.45-5.09-2.71-10.26-2.08-15.58
		c0.17-1.45,1.4-2.77,2.57-4.95c9.67,5.24,15.31,14.32,23.5,20.38c8.26,6.1,15.46,13.62,23.29,20.33
		c8.08,6.93,16.2,13.83,24.59,20.36c8.13,6.34,16.58,12.28,24.99,18.25c8.39,5.96,16.91,11.74,25.65,17.79
		c1.97-0.98,3.9-1.94,6.12-3.05c2.37,3.63,5.06,6.74,6.6,10.34c3.48,8.16,9.45,14.52,15,21.05c3.8,4.46,9.03,7.72,13.67,11.45
		c5.44,4.37,11.12,8.46,16.36,13.06c4.5,3.94,8.34,8.65,12.82,12.62c10.36,9.17,17.64,20.76,25.72,31.75
		c3.49,4.75,5.14,9.1,0.65,14.3c-1.55,1.79-1.8,4.7-2.88,7.76c2.85,0.36,4.77,0.55,6.67,0.87c1.27,0.21,3.44,0.34,3.63,0.97
		c1.87,6.28,7.4,4.31,11.56,5.49c15.7,4.43,31.57,8.41,46.96,13.74c7.05,2.45,13.21,7.56,19.63,11.68c2.71,1.74,3.29,4.77,3.56,7.9
		c0.75,8.88-1.01,17.3-4.9,25.19c-3.69,7.5-6.44,15.09-7.9,23.46c-1.53,8.78-4.97,17.18-11.23,24.13c-1.9,2.11-3.17,5.07-3.92,7.86
		c-2.57,9.58-10.91,11.94-18.53,14.97c-1.75,0.7-4.47-0.61-6.59-1.4c-2.9-1.08-5.43-0.62-7.2,1.7c-4.23,5.56-8.39,11.18-12.19,17.03
		c-1.86,2.87-0.66,5.84,3.87,7.78c8.62,3.68,14.46,10.51,20.94,16.71c4.19,4.01,7.12,8.73,9.13,14.12
		c5.45,14.58,13.66,27.35,24.98,38.08c2.18,2.06,4.18,4.31,6.38,6.35c9.69,8.98,10.86,20.23,8.13,32.19
		c-1.89,8.29-6.84,9.88-14.06,5.15c-0.83-0.55-1.71-1.1-2.37-1.82c-8.1-8.79-18.63-12.29-30.03-14.17
		c-6.52-1.08-11.28-5.47-15.95-9.74c-3.69-3.37-7.11-7.03-10.76-10.44c-0.92-0.86-2.28-1.24-3.32-1.79
		c-6.23,2.99-11.98,6.53-18.22,8.53c-6.1,1.95-12.7,2.33-19.17,3.42c4.19,9.35,5.08,9.76,29.78,13.88c0.26,4.05-2.13,7-4.88,9.18
		c-2.72,2.15-6.22,3.33-10.44,5.47c2.76,3.07,4.71,5.64,7.06,7.78c12.67,11.51,14.94,26.09,12.65,42.05
		c-0.28,1.97-0.97,3.88-1.32,5.84c-0.51,2.86,0.33,5.29,2.77,7c10.09,7.05,20.18,14.11,30.32,21.08c1.35,0.93,2.97,1.6,4.56,2
		c11.88,2.99,23.46,7.39,36.1,6.61c7.54-0.47,15.14-0.03,24.33,0.01c-1.91,2.86-2.62,4.63-3.9,5.7c-2.99,2.5-6.26,4.66-10.28,7.59
		c2.34,1.87,3.68,3.17,5.23,4.12c4.26,2.6,8.7,4.91,12.92,7.58c8.93,5.63,16.54,12.28,17.98,23.71c0.23,1.84,1.79,3.5,2.65,5.28
		c0.98,2.03,1.87,4.09,3.03,6.64c-1.89,0.4-3.14,0.64-4.38,0.94c-7.1,1.73-8.97,5.66-4.95,11.34c3.26,4.6,7.17,8.73,10.73,13.12
		c1.57,1.93,2.99,3.99,5.26,7.03c-4.61,0.37-7.78,0.62-11.6,0.93c-0.24,2.07-0.69,4.26-0.71,6.45c-0.08,9.33-0.04,18.66-0.02,28
		c0.01,2.33-0.35,4.79,0.27,6.97c4.48,15.92-1.48,30.13-7.07,44.4c-0.58,1.49-1.48,3.26-2.76,4c-10.83,6.29-11.14,16.27-9.64,26.87
		c0.37,2.63,1.29,5.17,1.87,7.77c1.86,8.45,4.03,16.87,3.32,25.64c-0.42,5.16,0.72,9.96,3.33,14.37c3.46,5.83,5.18,12.24,6.47,18.8
		c2.45,12.49,6.46,24.25,13.06,35.35c5.92,9.96,10.12,20.65,9.33,33.03c-0.87,13.61-0.38,27.32-0.15,40.98
		c0.23,13.36-1.51,26.52-3.63,39.63c-1.13,6.99,0.55,13.32,3.58,19.3c4.21,8.3,8.98,16.32,13.5,24.47
		c2.26,4.07,4.51,8.15,6.74,12.24c2.26,4.13,3.68,8.4,3.87,13.26c0.25,6.26,2.29,8.25,7.91,9.91c6.68,1.97,13.26,4.28,19.99,6.03
		c4.46,1.16,9.07,2.08,13.66,2.3c7.97,0.37,15.97,0.1,24.9,0.1c-0.74,2.92-1.32,5.19-2.07,8.16c1.58,0.7,3.26,1.5,4.98,2.19
		c6.46,2.61,13.23,4.53,18.47,9.6c1.6,1.55,3.93,2.5,6.08,3.32c18.5,7.05,34.94,17.72,51.19,28.79
		c12.43,8.47,24.37,17.53,34.36,28.79c7.05,7.95,13.77,16.27,19.9,24.95c3.2,4.53,5.04,10.1,7.1,15.36
		c1.94,4.94,3.22,10.13,5.05,15.12c3.34,9.09,2.54,18.33,1.37,27.62c-0.42,3.29-1.07,6.58-1.1,9.88
		c-0.16,15.99,0.23,31.98-0.27,47.96c-0.79,25.25-6.97,48.73-25.37,67.35c-4.18,4.23-6.16,9.46-8.56,14.5
		c-5.03,10.58-12.32,19.69-18.45,29.54c-1.57,2.53-3.06,5.22-3.95,8.03c-5.58,17.59-14.19,33.72-23.67,49.41
		c-2.55,4.22-5.64,8.23-9.05,11.79c-9,9.38-18.62,18.16-27.41,27.72c-9.8,10.66-21.6,18.79-33.18,27.12
		c-8.42,6.05-16.73,12.04-23.81,19.67c-2.22,2.4-4.83,4.44-7.71,7.05c-1.74-2.31-3.05-4.04-4.86-6.44
		c-3.41,1.7-7.24,3.01-10.38,5.27c-9.12,6.56-19.72,9.53-30.11,12.96c-19.27,6.36-38.61,12.5-57.91,18.77
		c-13.91,4.52-27.88,8.86-41.67,13.73c-7.19,2.54-14.32,5.57-20.91,9.35c-3.18,1.83-5.19,5.82-7.48,9.01
		c-2.3,3.2-3.91,6.96-6.52,9.86c-3.1,3.45-4.78,7.05-4.56,11.68c0.45,9.61-0.92,19.29,1.62,28.85c0.83,3.13,0.5,6.64,0.36,9.95
		c-0.35,7.85,2.75,14.33,7.94,19.84c13.22,14.06,26.7,27.89,39.83,42.03c7.91,8.52,15.32,17.52,23.06,26.2
		c3.98,4.47,8.12,8.82,12.32,13.08c8.66,8.78,17.32,17.56,26.21,26.11c2.57,2.48,5.66,4.7,8.92,6.13
		c13.7,6.03,27.87,11.07,41.26,17.71c10.68,5.3,21.13,11.56,30.46,18.93c7.54,5.96,15.79,9.48,24.48,12.66
		c3.43,1.26,7.06,2.1,10.27,3.77c14.63,7.62,29.9,7.83,45.71,5.06c8.14-1.42,16.47-2.03,24.74-2.45c7.52-0.38,14.26,2.18,20.59,6.41
		c8.45,5.64,17.42,7.1,27.37,3.13c20.32-8.08,38.31-3.38,54.41,10.87c11.44,10.13,19.15,22.91,26.59,35.94
		c1.15,2.02,1.93,4.52,3.61,5.93c8.54,7.19,13.6,17.16,20.63,25.55c3.72,4.44,6.18,10.24,8.11,15.81
		c3.65,10.52,3.88,21.57,2.91,32.58c-0.14,1.62-1.79,3.1-3.14,5.29c-5.93-4.76-11.27-9.05-17.15-13.77
		c-7.98,13.2-19.24,20.99-34.8,22.94c-4.11,9.16-2.6,20.67-9.92,29.07c-4.06-2.47-3.27-6.06-3.4-9.24
		c-0.18-4.6-1.52-8.47-5.92-10.96c-5.94,1.47-11.98,2.91-18,4.45c-8.53,2.2-17.06,1.99-25.68,0.49c-3.66-0.63-5.64,1.3-5.66,4.91
		c-0.01,0.99,0,2.06,0.34,2.96c3.69,9.72-2.08,16.32-7.58,22.98C1717.27,2090.82,1716.39,2090.79,1715.35,2091.07z M1080.97,1124.72
		c1.65-3.54,2.78-6.26,4.14-8.85c7.54-14.4,19.04-22.68,35.72-22.76c6.66-0.03,13.33-0.26,19.97,0.09c4.24,0.22,8.56,0.91,12.6,2.17
		c3.35,1.05,6.25,1.44,9.6,0.07c9.53-3.91,19.11-7.74,28.8-11.22c5.92-2.12,12.09-3.56,18.16-5.27c16.13-4.53,32.87-4,49.33-5.78
		c4.75-0.51,8.52-2.09,10.39-6.43c1.74-4.05-1.24-6.9-3.61-9.68c-3.02-3.54-6.18-6.95-9.18-10.5c-4.49-5.32-9.06-10.59-13.27-16.13
		c-4.4-5.79-9.48-11.41-12.37-17.94c-5.63-12.73-11.2-25.57-14.03-39.41c-1.3-6.38-4.87-12.24-4.54-19.08
		c0.04-0.86-1-1.72-1.26-2.66c-0.79-2.82-1.54-5.66-2.12-8.53c-0.44-2.18-0.61-4.42-0.96-7.03c-4.38,0.78-7.01,3.45-9.86,5.56
		c-14.92,11.08-29.3,22.91-46.25,31.03c-4.54,2.17-7.73,6.11-9.09,11.35c-0.82,3.18-2.37,6.18-3.65,9.24
		c-3.78,8.99-9.13,16.93-15.89,23.94c-5.99,6.22-11.8,12.62-17.98,18.65c-7.13,6.96-14.64,13.53-21.84,20.42
		c-1.63,1.56-3.54,3.67-3.75,5.7c-0.81,7.74-4.93,13.69-9.54,19.41c-2.73,3.39-3.34,7.05-2.84,11.21c0.71,5.92,1.45,11.85,1.67,17.8
		C1069.58,1117.31,1073.21,1121.61,1080.97,1124.72z"/>
</g>
</svg>
