<?xml version="1.0" encoding="utf-8"?>
<!-- Generator: Adobe Illustrator 24.1.3, SVG Export Plug-In . SVG Version: 6.00 Build 0)  -->
<svg version="1.1" id="Layer_1" xmlns="http://www.w3.org/2000/svg" xmlns:xlink="http://www.w3.org/1999/xlink" x="0px" y="0px"
	 width="2554.27" height="5573.11" viewBox="0 0 2554.27 5573.11" enable-background="new 0 0 2554.27 5573.11" xml:space="preserve">
<g>
	<path d="M1265.99,4094.44C1266.12,4093.99,1266,4094.19,1265.99,4094.44L1265.99,4094.44z"/>
	<path d="M62.28,1752.93c11.87,2.55,27.78-0.84,37.77,5.7c2.49,7.09,9.49,6.44,14.58,8.92c15.77,5.82,43-1.45,56.96-10.42
		c8.18-4,18.6-1.36,27.31-4.84c1.9-0.59,3.87-1.11,6.03,0.27c3.9,4.39,1.4,11.09,6.64,14.33c0.73,0.51,1.44,1.69,1.43,2.55
		c-0.09,6.62,5.8,11.14,6.1,17.68c4.4,9.67,13.48,17.44,19.7,26.16c7.04,10.31,15.81,11.71,27.68,7.72
		c15.94-1.14,23.44-18.49,37.65-22.95c13.82-4.93,9.93,15.17,21.8-3.03c6.01-7.37,11.28-0.76,17.19,2.14
		c13.36,5.24,20.63,21.52,33.25,29.28c21.38,22.33,21.92,22.61,52.36,13.57c0.16-11.63,12.25-15.95,17.8-24.55
		c11.04-14.62,34.55-57.78,46.36-22.18c16.66,20.29,3.38,53.81,19.26,73.88c7.82,4.62,16.4,7.46,22.03,15.04
		c10.57,13.1,27.74,16.58,40.91,26.22c2.78,1.96,7.06,2.71,6.66,7.69c-0.05,0.68,1.79,1.82,2.94,2.24c4.01,1.46,8.1,2.69,12,3.96
		c1.56-0.75,1.66-3.42,4.44-2.27c0.43,0.28,1.39,0.7,2.07,1.39c16.58,17.84,39.97,24.41,60.52,36.07
		c71.57,42.25,141.41,87.78,215.93,124.58c-1.12,53.76-17.05,107.67-26.03,160.95c14.13,30.41,21.4,65.1,38.29,94.91
		c4.11,7.66,2.32,17.32,8.92,23.88c1.89,3.05,4.17,5.26,4.18,9.12c-13.22,25.09-1.12,59.57-12.67,87.19
		c20.46,20.96,5.92,49.11,3.99,74.16c-2.77,28.49-12.63,54.99-22.95,81.43c-22.91,70.21-39.85,142.43-69.51,210.28
		c-6.93,16.73-12.01,33.81-15.86,51.39c-0.66,3.02-1.31,5.99,0.84,8.57c10.12,12.34,1.31,26.78,0.41,40.4
		c-56.31,204.91-123.73,412.39-146.03,625.22c-2.47,71.18-26.58,145.25-0.86,214.08c17.3,38.1,37.33,75.3,59.99,110.52
		c12.41,13.68,16.24,34.79,34.9,41.68c76.2,29.18,147.37,69.27,224.02,97.23c25.42,8.85,50.26,19.34,76.28,26.02
		c15.88-2.44,30.9,8.2,45.29,14.76c57.79,21.26,121.85,29.91,174.88,62.68c6.26-4.95,8.22-16.55,8.24-22.04
		c1.1,37.45-1.76,74.65,3.09,112.13c7.6,27.85,8.9,58.02,12.21,87.02c2.05-0.16,2.4-3.21,4.66-1.67c1.77,2.26,0.41,4.23-0.69,6.28
		c-6.48,16.09,1.06,35.79,1.05,52.96c2.05,32.66,6.38,65.03,11.11,97.39c5.88,41.35,9.86,82.97,8.42,124.75
		c4.15,60.58,13.5,120.63,23.59,180.48c18.91,71.86,35.96,147.64,55.43,220.98c2,8.17,3.56,16.25,10.8,21.18
		c-1.28,8.7-1.19,8.65,3.74,17.7c1.74,3.21,3.02,6.76,2.41,10.53c-3.76,30.05,0.45,60.32,0.26,90.37
		c-8.84,21.35-29.73,34.69-47.37,48.83c-34,24.98-60.69,57.8-93.67,83.92c-47.98,32.74-92.92,70.65-140.13,103.82
		c-18.35,11.21-39.46,21.44-52.39,38.6c-0.36,0.96-0.91,1.83-2.04,1.89c-6.27,0.37-9.27,6.2-14.31,8.53
		c-41.69,34.04-13.19,97.84,22.22,126.14c4.7,3.59,5.18,9.98,9.51,13.82c1.47,1.83,3.05,3.44,2.93,6.08
		c0.31,6.87,4.6,14.29,12.29,12.85c5.08-7.42,2.88-6.63,9.79-1.16c-1.21,1.89-4.47,1.12-4.11,4.47c31.58,13.38,65.52,13,97.97,4.58
		c26.55-3.36,54.27-2.92,80.33-8.67c46.17-10.37,89.12-29.85,133.22-46.93c48.63-19.13,99.04-36.35,143.64-63.88
		c12.15-9.36,25.3-16.2,40.3-16.14c12.86-4.76,25.91-11.19,37.65-17.73c12.45,2.55,22.82-13.65,39.05-14.11
		c3.34-6.95,9.6-7.47,16.09-7.64c9.66-5.15,19.37-10.39,29.16-15.35c23.94-15.3,47.63-33.07,67.5-53.5
		c-2.83-13.88-6.83-26.22-12.65-38.27c-7.1-8.06-12.16-17.31-15.57-27.51c-17.52-37.88-38.08-75.65-48.92-115.68
		c-12.99-41.83-28.21-6.66-27.91-62.2c-1.52-11.15-0.26-22.18-0.45-33.26c-6.21-3.79-6.21-3.79-7.27-11.28
		c-2.79-28.25-3.45-56.87-2.71-85.31c-0.72-30.95,4.6-62.2,0.59-92.82c2.07-3.78,7.28-4.77,7.77-9.1c0.56-8.8,8.75-14.8,7.53-23.72
		c-7.51-101.48-12.55-203.13-19.61-304.65c-3.54-43.71-3.55-88.08-9.12-130.41c0.08-32.65,13.33-64.63,9.9-97.24
		c-2.43-15.24,8.93-29.99,4.86-45.86c-0.21-10.54-0.17-25.2,13.82-26.27c3.03,2.45,6.56,6.91,11.25,4.96
		c10.35-4.73,16.97,2.34,25.53,6.45c24.86,12.54,51.09,21.91,76.61,33.01c2.09,12.42,13.85,22.17,14.63,35.69
		c1.35,9.25,4.03,18.16,6.31,27.2c7.01,27.79,15.2,55.2,25.93,81.78c13.57,35.17,17.67,73.01,26.28,109.54
		c5.58,34.02,17.58,67.13,21.79,101.17c0.53,17.15,4.57,33.56,8.42,50.06c0.13,5.18,3.93,8.96,5.44,13.46
		c-1.85,7.86,2.13,14.93,2.94,22.42c14.03,32.72,56.22,45.14,89.34,36.46c18.7-3.67,35.44-12.06,54.43-14.08
		c9.17,4.38,24.71,0.77,16.49-11.35c9.71-5.59,3.61-2.86,7.77,2.87c13.48-14.45,27.53-29.02,33.4-48.44
		c1.61-4.67,2.82-9.52,6.14-13.5c4.1-21.49,10.93-42.85,18.78-63.78c14.94-40.53,22.42-84.7,21.65-127.91
		c2.91-71.5,13.76-143.82,3.28-215.07c-3.96-12.86-1.57-24.94,3.37-37.51c0.4-11.95,1.23-23.91-0.23-35.85
		c-0.24-1.97-1.07-5.06-0.16-5.78c9.41-11.82-5.38-26.92,3.05-39.91c1.04-3.99-3.08-5.98-3.14-10.07c0.64-3.87,4.68-5.69,2.97-9.99
		c0.02-21.44-4.29-42.21-6.27-63.28c-4.73-16.22-9.43-32.45-14.24-48.64c-6.22-9.13-22.97-4.54-32.56-7.39
		c-44.86,4.31-90.67,4.1-135.93,1.65c-24.59,2.62-48.18-12.57-69.16,8.4c-19.46-8.75-41.25-13.27-59.79-24.86
		c-5.69,3.91-5.71,3.95-11.17,2.5c-41.42-12.26-79.23-34.11-119.05-50.47c-11.92-11.19-42.24-14.75-48.84-26.42
		c-0.67-2.25-0.91-4.76-3.18-5.96c-6.85-3.61-9.5-10.51-13.3-16.62c3.04-8.56,4.02-9.59,11.38-12.49c3.45-0.51,0.57,3.11,3.43,2.84
		c0.79-2.86,0.92-5.12-3.19-5.12c-3.2,0-4.72-1.56-4.45-5.03c1.94-9.28-1.21-22.12,3.61-29.36c0.3,4.11,0.19,8.27,3.19,11.45
		c6.12-4.64-1.48-10.58,1.22-15.77c1.64-3.84-3.12-4.31-2.95-7.4c4.98-7.54-4.07-5.32,1.73-18.41
		c15.45-30.93,10.69-65.5,20.21-97.97c5.8-25.92,5.82-52.64,16.74-77.58c11.16-33.9,10.12-70.55,21.21-104.29
		c16-43.11,22.13-88.75,33.98-132.98c23.56-90.38,35.7-182.15,66.24-270.72c16.77,5.96,20.17-9.26,30.24-17.57
		c12.72-15.62,10.97-49.83,13.89-70.22c15.29-60.08,13.43-122.65,20.02-183.93c6.21-43.93,15.33-86.85,27.82-129.52
		c5.78-26.89,22.81-49.57,26.34-77.17c0.96-17.92,9.81-34.59,10.12-52.59c-0.24-8.16,0.95-15.74,6.03-21.48
		c-13.79-17.61,14.63-23.56,26.68-26.82c3.07-4.55,1.76-9.32,3.77-13.24c7.39-4.38,12.22,5.11,19.87,2.66
		c5.46,0.72,5.88,6.69,11.56,8.76c31.26-5.89,58.65-26.56,87.84-38.29c25.66-8.84,39.08-31.01,51.2-53.69
		c11.47-20.06,26.6-36.7,43.57-52.39c22.55-20.58,31.27-51.48,44.21-78.33c4.28-18.81,1.62-39.02,4.55-58.32
		c1.03-35.14,13.2-46.54-15.71-74.64c2,8.68-2.85,16.39-2.02,24.7c0.51,5.13-0.63,9.82-4.4,13.75
		c-5.53,14.04-12.47,26.63-22.16,38.46c-3.97-4.14-7.69-7.97-4.73-13.49c6.26-17.9,11.99-35.97,15.99-54.52
		c7.45-30.91,14.98-61.3,15.66-93.18c2.14-37.9-0.94-75.92-2.56-113.8c-0.17-3.24-0.28-6.63-3.2-8.43
		c-4.09-0.07-2.17,4.89-5.98,5.33c-2.86-13.11-1.65-26.82,9.28-36.32c15.83-16.21,30.67-33.17,42.66-52.58
		c21.42-26.06,13.2-17.11,15.09-48.7c4.89-23.78,1.11-47.77-3.17-71.26c-5.21-40.54-15.9-79.23-32.82-116.41
		c-15.25-38.89-25.6-79.87-43.01-117.8c-24.88-39.59-43.52-82.47-73.83-118.4c-5.74-8.2-8.3-16.59-3.71-25.8
		c-23.72-42.3-48.07-84.05-68.37-128.17c-24.69-49.76-46.78-100.88-75.83-148.35c-1.22-2.22-3.32-4.1-2.47-7.25
		c0.58-2.15-1.49-3.69-2.82-4.97c-8.03-7.77-13.2-17.54-18.63-27.02c-31.14-52.9-61.13-110.75-109.21-149.08
		c-13.32-10.28-1.41-30.39-13.95-42.78c-15.4-13.95-29.91-29.71-48.09-40.05c-10.33-3.12-14.82-14.55-23.89-19.03
		c-7.84-2.16-12.32-9.05-20.23-12.51c6.36-1.64,10.89,0.95,9.44-7.07c2.71-7.78,5.58-2.99,0.87-12.8c-3.99-8.39,2.73-18.19,12.04-13
		c13.86,4.49,19.07-14.87,21.52-25.57c-22.12-5.77-44.67-0.76-66.15,5.24c-1.64,0.57-3.58,2.23-5.67-0.05
		c1.12-8.76-5.96-19.03-1.34-27.52c9.34-25.73,33.28-53.9,23.7-82.17c-6.53,8.48-17.83,6.37-20.33-3.95
		c6.14-6.79-3.25-12.91-1.1-20.98c0.07-31.9-4.18-63.67-6.04-95.52c-4.8-51.43-10.25-103.6-20.34-154.7
		c-4.23-16.57-6.55-35.34-15.87-49.53c-5.01,0.59-6.15,5.79-9.75,8.12c-5.3,3.42-6.72,8.82-6.03,14.77
		c0.11,4.97,1.68,16.53-5.9,14.55c-19.28-59.66-22.66-125.69-53.25-181.1c-13.44-20.19-18.47-45.04-35.77-62.88
		c-13.69-18.67-31.2-34.64-44.31-53.78c-10.61-15.61-28.2-22.07-41.69-34.45c-5.58-5.03-17.45-12.89-23.44-5.24
		c-4.53,10.9,8.35,23,13.05,32.71c3.12,6.11,7.6,5.45,13.12,7.73c-10.58,10.42-5.73,0.74-12.15,3.02c-0.09,2.07,2.72,3.12,1.67,5.92
		c-5.15,1.93-9.4-1.27-13.65-3.43c-16.44-10.7-36.8-14.62-52.6-25.41c-9.14-11.68-46.55-19.29-61.22-19.46
		c-7.56-4.01-16.72-4.49-23.34-10.57c-5.86-2.66-13.29-1.09-19.29-4.27c-34.54-10.23-70.83-13.77-106.48-9.52
		c-13.77,5.32-28.03-4.04-41.22,0.79c-10.96,4.7-21.08,11.27-32.59,14.75c-8.07,1.7-15.44,8.26-16.73,16.99
		c8.51,10.71,23.03,13.74,32.85,23.29c-21.8,23.1-53.05,28.11-82.45,37.55c-21.32,2.41-39.96,13.41-60.74,18
		c-17.5,3.82-33.26,12.53-48.68,21.24c3.92,12.19,15.17-0.39,24.02,9.12c11.76,8.95,21.95-1.86,36.24,6.65
		c15.97,4.51,18.16,22.97-0.05,27.08c-13.84,11.57-28.82,23.62-39.91,38.25c-8.34,17.23-21.71,30.94-31.68,47.04
		c-13.33,18.43-31.36,70.52-49.07,78.26c-7.28,5.84-0.29,6.13-0.11,9.87c-15.87,20.35-16.4,46.67-26.39,69.75
		c-17.97,47.9-32.43,97.46-35.13,148.85c-1.91,23.2-3.17,46.46-4.85,69.68c-2.93,16.51,9.23,31.58,3.99,47.33
		c-1.17,3.88,4.5,5.92,6.29,2.41c4.67-7.91,0.62-18.17,5.22-26.14c2.85-5.03,4.4-10.4,5.8-15.88c2.64-10.64,12.87-12.44,15.69-28.06
		c5.77-8.52,4.79,13.37,5.15,17.22c-2.13,12.68,5.08,22.55,8.82,34.13c5.21,21,5.63,42.83,10.84,63.8
		c13.52,43.69,6.15,90.53,1.18,135.11c-2.75,24.23-14.15,44.52-27.75,63.85c1.25,7.09-3.74,23.26,7.33,22.04
		c9.5-2.99,18.92-5.95,26.14-13.61c21.24-17.58,37.22-39.71,54.37-60.88c1.75-1.49,3.33-3.06,3.75-5.65
		c1.08-6.74,6.98-9.96,11.22-14.28c4.46-5.02,14.1,0.83,11.06,7.08c-2.26,18.72,1.28,37.93-2.54,56.89
		c-0.25,5.4-5.35,9.45-1.53,14.87c12.75-5.13,11.75,0.87,14.93-11.79c7.92-0.28,11.05-7.51,14.16-13.18
		c8.46-15.42,16.81-31.02,21.62-48.13c1.97-7.03,3.84-13.95,9.69-19.19c5.41-5.92,5.66-13.01,8.6-20.93
		c3.2,7.07,5.47,12.82,3.76,19.95c-2.83,17-5.3,37.22,2.6,52.87c16.63-22.21,34.23-44.7,44.33-70.65
		c3.21-13.6,14.05-23.44,18.12-36.42c1.66-9.58,12.46-14.74,21.72-11.63c11.43,1.86,27.2,2,35.48-6.97
		c2.71-3.52,5.98-4.71,10.36-4.48c3.62,0.2,7.56-0.25,10.52-2.51c10.69-8.17,23.48-12.41,34.95-19.1c2.8-1.64,5.69-3.57,10.59-2.66
		c0.01,6.88,5.68,9.7,11.34,12.52c9.52,8.16,4.58,18.77-6.87,19.82c-1.42,8.22,4.72,17.51-4.97,22.71
		c-7.86,5.1-14.42,20.64-2.47,24.97c1.73,0.76,4.11,0.21,5.17,2.64c0.16,4.3-3.79,6.66-5.34,10.29
		c-5.11,14.63-14.97,23.9-29.33,30.02c-34.47,23.32-67.38,48.8-100.37,74.18c-11.3,7.68-11.51,22.77-18.96,33.4
		c-5.55,10.37-9.46,21.46-10.16,33.11c-0.5,8.28-3.88,14.07-9.63,19.38c-7.16,4.93-11.47,11.02-14.3,19.41
		c-8.49,11.85-16.96,23.71-25.5,35.53c-0.75,1.03-1.77,2.45-2.81,2.59c-10.48,2.52-10.61,14.98-16.81,21.97
		c-8.01,16.51-18.97,32.43-24.92,49.59c1.13,7.51-1.17,14.56-2.63,21.68c-20.68,73.58-28.02,149.39-37.26,224.98
		c-1.89,12.68-1.27,26.03-8.92,37.45c-2.94,21.71-3.67,44.44-6.8,66.38c-2.2,17.98-2.22,35.64,1.79,53.43
		c0.08,56.11,1.93,111.97,1.55,167.86c-29.7-18.5-60.06-38.69-86.22-61.76c-6.65-11.06-31.44-14.22-42.73-25.64
		c-45.15-25.93-97.18-36.64-136.22-72.78c-9.18-8.83-21.11-7.97-31.45-2.59c0.24-12.98-15.37-16.93-26.15-17.75
		c-0.22,0.77-0.46,1.12-0.37,1.34c4.89,6.73-3.12,13.11-9.8,6.42c-1.85-1.45-1.85-5.08-5.32-4.79c-0.47,3.78,4.15,6.1,2.54,10.36
		c-7.5-3.38-13.22-12.48-10.77-21.02c1.53-3.63-1.51-7.22-4.69-9.14c-2.7,0.93-0.48,4.57-3.98,4.43c-1.63-0.87-2.54-2.67-3.84-4.16
		c-3.25-3.75-5.26-8.69-9.53-11.39c-9.06-5.72-11.03-15.71-16.23-23.96c3.63-1.37,5.58,3.14,9,0.83
		c-8.39-8.42-13.63-19.35-24.54-24.84c-2.79-3.53-3.7-8.59-8.78-10.08c-26.61-11.65-46.65-34.81-75.39-41.72
		c-12.12-0.62-33.99-14.63-42.52-4.9c-14.47,10.3-25.09,24.28-39.99,34.16c-13.72,6.47-10.21,20.25-20.55,18.76
		c-2.8-0.2-5.16-0.54-7.29,1.63c-7.46,3.39-17.39,1.99-25.48,1.95c-36.07-2.29-64.24-26.99-92.3-47.54
		c-6.6-6.89-17.31-3.34-25.14-7.8c-11.05-8.9-25.12,1.45-35.78-6.34c9.23-1.69,17.86-0.58,26.56-0.91
		c-5.94-6.97-20.4-3.67-28.77-2.71c-29.11,1.75-55.76,14.09-84.32,16.94c-9.67,0.27-13.86,10.54-19.73,16.71
		c-6.86,8.25-30.63-7.17-39.49,12.46c10.15,6.8,18.93,15.89,22.04,27.8c0.15,4.21,2.4,7.89,5.85,9.99
		c3.93,3.97,16.28,13.37,15.87,18.32c-0.71,4.04,1.68,6.17,4.51,8.16c9.47,7.75,21.37,12.84,29.24,22.29
		c2.83,4.41,7.06,7.02,12.06,8.33c14.61,2.71,26.88,11.6,40.7,15.75c37.93,2.42,79.76-7.59,113.29,15.05
		c-0.21,7.19,3.75,14.13,6.84,21.35c-13.62,8.13-28.59,12.63-40.26,23.76c-7.33,0.64-14.6-3.59-21.62,1.35
		c-8.15,4.08-15.86-8.09-24.5-1.76c-20.74,9.45-48.97-0.66-67.28,13.85c-4.29,5.68-13.41,8.39-19.22,4.68
		c-1.33-1.72-3.19-0.41-4.32,0.5c-14.74,16.44-24.03,37.53-38.83,53.79c-9.21,2.19-5.13,14.95-13.28,17.22
		c-11.01,4.59-22.53,9.86-29.99,19.44c5.02,2.52-0.47,6.64,1.86,10.26c18.36,1.88,36.89,4.8,55.02,8.48
		c-0.07-0.05-0.13-0.09-0.2-0.14C57.56,1751.45,61.32,1752.54,62.28,1752.93z M1474.83,40.67c-4.84-3.85-1.85-7.38-1.25-10.85
		C1482.78,28.72,1478.68,36,1474.83,40.67z M23.76,1451.94c3.17-0.98,3.17-0.98,8.02,2.05
		C26.84,1454.48,26.84,1454.48,23.76,1451.94z M53.66,1444.78c2.48-4.24,4.52-6.76,9.02-4.73
		C61.18,1443.56,58.73,1444.99,53.66,1444.78z M1267.27,3701.74c-3.06,9.76,1.02,23.82-8.33,30.19
		c-7.51,5.85-16.72-15.09-31.11-10.64c-16.86-15.36-37.45-24.11-57.19-34.83c-7.58-1.97-2.48-6.3-7.48-7.92
		c-30.74-20.71-71.5-31.08-88.06-66.99c-4.41-9.49,2.77-18.29,5.31-27.21c2.99-11.46,12.47-18.47,18.3-28.13
		c3.88-12.16,10.95-22.53,17.83-33.12c7.75-13.82,12.79-29.27,22.7-41.96c20.54-27.5,29.3-60.51,39.95-92.53
		c11.1-26.16,26.46-50.42,35.89-77.29c7.83-12.91,13.34-26.55,13.85-41.88c3.04-8.31,10.78-14.79,15.54-22.1
		c2.77,0.87,2.27,2.77,2.48,4.29c-0.13,9.71,9.32,17.86,6.94,27.39c-2.72,11.75,2.58,24.46-3.65,35.1
		c0.29,24.36,1.7,49.71,5.59,74.06c0.68,38.33,10.64,76.5,10.57,115.27c-0.57,42.44,0.17,85.2-1.72,127.66
		c-2.65,6.27-1.51,12.46,0.59,18.45C1266.54,3666.74,1269.37,3684.52,1267.27,3701.74z M1117.18,5560.13
		c2.74-2.64,5.78-1.17,7.55,1.29C1121.11,5565.18,1119.28,5562.61,1117.18,5560.13z M2086.82,4703.07c0.61-1.44,1.39-2.92,3.17-2.99
		C2095.5,4701.43,2086.7,4709.04,2086.82,4703.07z M2234.17,2006.91c-0.89,0.02-1.77,0.03-2.66,0.05c-0.29-5.1-0.57-10.2-0.86-15.31
		C2232.35,1996.67,2234.98,2001.54,2234.17,2006.91z"/>
	<path d="M672.26,3328.57c2.12,10.7-2.29,21.71-5.22,31.95c-0.59,13.07-2.27,26.01-5.57,38.72c-1.19,12.68-0.29,26.05-8.63,36.59
		C658.73,3398.66,658.4,3363.55,672.26,3328.57z"/>
	<path d="M238.69,1579.72c10.06,3.89,1.54,7.34-5.32,5.39c1.39-3.01,5.7-2.02,5.6-5.62L238.69,1579.72z"/>
</g>
<g>
	<path fill="#1A1A1A" d="M1536.73,2129.59c-14.73-4.43-6.59,25.91,4.86,22.18c10.45,9.19,2.61,20.16,11.46,22.68
		c-1.12,0.91-1.97,1.59-2.89,2.33c6.95,4.69,6.14-5.38,10.52-5.38c3.8,7.37,10.4,9.51,17.41,12.6c-1.83,0.74-3.01,1.22-4.31,1.74
		c6.12,3.66,3.49,12.23,4.08,19.82c-3.26,5.4,9.95,34.01,10,12.87c6.17,6.4-2.47,19.16,8.66,16.81c-0.89,2.87-3.32,0.68-4.7,3.15
		c-0.52,2.33,3.6,3.82,3.07,6.86l0.17-0.16c-12.36,4.01-6.53,6.73-8.38,17.11c-1.31,6.4,6.09,2.04,4.92,10.79
		c4.62,2.59,9.97-2.42,12.26,4.09c2.38,6.04,13.77,5.65,6.72,14.18c-6.05,8.48-22.05,8.75-25.02-1.63c3.77-9.88-6.51-14.87-15.25-13
		c-0.8,4.48,4.88,7.84,1.35,11.76c12.46,5.25,14.41,14.74-1.68,6.57c0.91,9.06,14.35,5.22,10.03,14.87c-2.3-3.23-2.3-3.23-6.08-1.3
		c-0.98,2.09,2.12,2.27,1.85,4.03c-7.43,2.56-9.23,4.02-12.38,10.3c-14.7-3.3-13.84,7.73-23.93,7.97
		c-24.61,2.24,28.8,29.64,19.58,40.91c7.23-1.84,4.65-5.18,5.2-10.83c-1.13-1.87-4.06-1.25-4.74-4.64c0.52-2.73,4.55-4.95,3.93-9.33
		c2.15,2.56,2.75,5.71,5.77,6.94c-2.14,2.32-4.01,4.29,0.85,3.89c0.18,3.58-0.33,6.85,1.03,9.87c1.53,1.07,1.9-1.02,3.06-1.07
		c2.07,1.93,1.04,3.78-0.6,5.02c-12.5,9.55-26.77,16.74-39.57,24.39c-5.92,1.4-6.74,2.75-4.96,8.59c0.7,3.64,4.79,3.99,5.51,0.13
		c0.78-1.95,2.55-3.59,4.43-3.59c8.67,0.8,20.71-10.48,25.05,1.24c9.41,2.76,14.43,1.01,7.52,11.77
		c-7.23,14.73,4.16,3.41,7.02,11.73c0.64,1.87-1.19,2.34-2.32,3.46c-3.43,20.49,17.52,44.06,16.58,65.37
		c-3.85-1.44-4.72-5.52-6.99-8.23c-2.98,3.84-7.3,0.85-4.06-2.29c9.9-1.71-9.93-40.3-10.14-49.73c-2.16-5.19-4.82-1.33-6.56,1.24
		c-2.16-0.96-4.67-2.76-7.96-2.52c-2.08,0.15-3.72-1.27-5.74,1.29c-8.61,4.7-13.32-0.65-15.62-8.59
		c-8.51,7.61,14.9,15.01-15.97,13.26c-7.27-10.22-0.68-25.09-13.04-32.79c-9.26,14.37,3.61,12.12,4.4,21.1
		c-2.14,6.1,2.64,10.03,2.42,15.73c-3.56,0.22-7.81-3.52-10.65,1.34c-2.91,0.52-6.96-2.66-10.38-0.71c0.8-3.31-0.24-6.7,0.22-9.92
		c0.48-3.4-4.35-4.88-2.44-8.46c0.15-0.29-0.52-1.17-0.98-1.6c-6.41-4.32-15.91-8.08-22.64-2.14c2.88,16.83,18.12,5.73,24.13,19.63
		c4.9,5.54-8.88,4.93-11.64,1.77c-2.96,2.43,0.69,6-2.8,7.56c-2.65,0.28-0.9-4.05-3.95-3.52c-7.91,1.11-16.16,1.3-25.13,1.53
		c0.18-4.37,6.24-5.47,3.87-9.9c-0.61-2.72-5.15-2.64-4.57-6.54c-13.15,5.2-28.76,5.23-40.26,13.73
		c-5.34-10.06-18.63,6.64-13.74-12.01c-7-2.87-4.81,3.27-4.91,6.48c-6.91-1.54-5.78-5.89-13.48,0.87
		c-12.02,2.22-16.51,16.58-30.88,16.45c-23.58,1.49-48.13,2.25-70.46,7.38c0.79-8.51,13.37-5.23,10.3-15.08
		c-3.22-0.74-1.46,2.35-2.72,3.08c-1.89,0.01-2.93-2.83-6,0.39c-8,9.06-19.78,5.56-27.86,15.83c4.71,9.68,16.53-2.38,25.01,1.61
		c34.05-0.81,68.96-1.88,103.45-3.68c5.43-1.51,7.89,3.72,12.78,3.44c7.21-15.56,22.78,2.27,29.81,11.91
		c-40.12-21.72-10.24,15.12,8.01,15.29c1.87,2.3-0.81,5.9,2.93,7.68c11.72,3.94,16.34,18.77,29.66,20.75
		c-12.39,5.26-31.32-0.63-45.3,0.68c-2.09-6.64-9.64-6.52-10.15-13.98c-0.13-2.42-5.8-0.38-3.83-5.05c0.57-1.36-2.48-3.91-2.63-6.01
		c-2.07-6.16-1.87-12.42-6.99-17.26c-4.87,6.95,3.64,10.55,3.1,16.61c-0.49,5.48,2.66,11.29,4.14,16.7
		c-8.36,2.84-4.63,3.35-7.13,9.86c-4.32,2.45-3.85-3.77-6.97-2.76c-5.18,5.69-11.53-0.25-17.72,1.97
		c-14.16,5.92-16.78-17.43-28.94-10.31c11.04,18.98-58.57-2.32-58.68-13.87c-0.28,3.51,0.96,8.19-4.03,7.1
		c-10.94-4.94-24.41-1.89-34.06-9.07c-10.75-9.32-17.55-27.55-31.94-37.34c-3.93,1.58-7.85,2.98-10.04-2.14
		c11.26-2.06,51.76-24.07,54.09-36.15c-10.94,5.88-24.94,8.69-35.58,16.56c-6.79,7.41-25.13,6.66-18.27,19.82
		c-8.6-3.33-12.98-25.41-21.45-15.43c3.34,5.77,0.56,8.28,3.01,10.28c3.44,1.7,4.6,4.44,6,7.39c2.69,14.17,13.83,8.05,19.56,17.64
		c1.05,4.14,6.68,5.41,6.65,9.32c-0.68,3.06,0.58,7.86-3.51,8.35c-14.61,5-9.9-8.99-21.75,0.98c-34.52-9.35-74.16-24.19-100.55-43
		c0.36-5.22-3.7-4.48-6.51-5.58c-2.7,1.2-1.88,4.94-5.43,6.42c-16.61-4.64-31.43-15.43-48.33-20.75
		c-25.74-11.45-55.69-17.5-71.32-43.02c-9.03-7.21-12.33-7.83-11.3-16.59c-0.94-1.92-3.17-1.58-4.24,1.06
		c-2.63-6.36-7.5-28.31,3.42-18.55c7.32,12.81,23.24,15.01,33.02,25.59c-2.17-11.71-15.58-15.26-17.52-27.88
		c0.23-4.94-6.45-4.93-5.03-10.45c0.32-3.64-3.93-4.65-6.13-6.96c7.43-6.35-4.38-0.75-2.65-7.19c0.8-2.91-4.23-4.21-4.22-7.32
		c0.01-3.02-4.32-4.23-3.35-6.33c-0.26-12.28-4.05-3.83-7.69-5.17c-1.46-3.39-5.97-6.77-0.13-11.19c0.8-4.61-2.44-11.07-1.12-15.91
		c-1.39-2.85-4.12-0.67-5.47-2.39c-0.34-3.21,3.99-3.15,4.22-5.98c-4.65-3.47-11.27-4.19-6.79-11.43c1.63-2.98-2.87-4.49-1.21-7.44
		c1.17-2.5,6.08,0.8,6.5-4.11c0.22-2.63,4.38-0.31,5.85-2.47c-4.11-3.53-4.11-3.53-11.66,0.21c-0.29-8.72-1.38-17.23,3.95-24.41
		c-0.62-2.73-4.24-1.62-3.52-4.08c3.47-3.2,1.98-8.57,5.25-11.85c0.71-7.3-4.78-22.77,6.36-24.08c-0.33-3.63-3.86-1.27-4.99-3.22
		c6.9-0.96-3.81-6.65,0.11-13.47c8.51-45.04,24.37-88.13,34.48-132.83c1.32-3.32-2.12-6.43-4.5-5.07
		c-13.8,20.25-14.94-32.75-23.16-9.97c-3.69-10-6.99-2.67-9.22,4.6c10.16-2.27,0.97,7.76,9.12,9.74
		c-17.96,19.95,7.57,10.35-4.14,20.25c4.98,11.31-8.84,1.98-10.61,13.42c-3.95,5.46-0.26,8.23-0.48,14.18
		c-3.51-3.53-9.2-1.79-12.45-6.54c-1.64-2.39-4.54-0.35-6.49,1.37c-3.64-3.6,1.72-14.87,4.09-7.49c4.47,1.42,7.94-1.81,6.91-5.61
		c-4.72-2.6-9.56-5.2-7.94-11.34c0.02-3.98,5.67-2.76,4.98-6.5c-0.73-3.93,3.61-2.8,4.73-4.81c-8.9-3.75,3.48-7.11-1.5-12.4
		c1.35-3.74,2.15-7.72,3.92-11.28c5.29-10.52,2.74-24.41,7.42-35.1c0.79-2.52,0.73-5.15,3.72-6.49c3.29-4.93-0.43-13.48,2.94-19.65
		c6.5-23.33,13.41-47.06,21.01-69.73c5.69-0.42,0.57,4.88,6.98-0.82c5.25-0.49,2.45-6.3,5.63-7.97c-1.14-1.19-1.1-4.25-4.02-2.63
		c-13.25,1.88,2.65-21.4,2.96-29.73c10.35,6.38-3.64,9.95-0.4,18.37c0.63,3.6,4.96,1.91,7.55,2.85c4.69,4.01,2.14-3.39,1.1-5.71
		c-11.45,2.5-0.87-3.62-3.72-9.04c3.47-0.68,3.09-3.12,1.87-5.17c-11.89-25.76,26.87-63.44,9.35-93.31
		c-2.11,4.98-0.05,9.92-1.19,15.11c-11.58-40.26-11.98-83.79-10.27-126.39c-0.47-14.08-10.91-25.21-11.95-39.46
		c-3.72-6.93,6.28-16.12,4.26-21.51c0.11-44.33,6.46-101.47,16.57-150.68c9.06-51.95,32.33-99.87,46.21-150.38
		c6.02-19.41,15.89-43.76,28-56.91c-4.89-10.84,9.54-21.69,6.34-33.4c-8.91,7-10.4,19.29-17.16,28.21
		c-11.66,14.23-18.56,30.08-29.12,46.86c-2.21,8.49-7.11,14.04-11.34,21.26c-0.52,7.09-4.28,11.51-11.37,12.97
		c-4.27,6.12,6.6-2.44,6.63,4.71c-19.94,24.7-21.56,62.09-37.33,90.48c-4.03-10.27,0.66-85.97,12.77-88.67
		c-1.13-4.14-3.6,0.02-5.09-1.54c-0.96-10.44,1.2-22.37,2.95-32.9c4.79-9.4,3.81-35.52,18.1-33c1.96,1.3,4.54,0.42,6.82-0.18
		c-0.86-2.66-3.89-1.62-5.53-2.56c7.39-7.04-0.81-3.65-5.29-5.09c-0.74-10.75,12.73-3.54,6.91-13.63c-3.12-3-1.99-6.1-0.6-9.16
		c10.06-25.25,16.86-51.64,27.27-76.84c4.88-6.93,41.12-86.72,41.36-55.68c4.48-1.45,4.44-9.46-0.96-8.1
		c-1.42-7.16,5.47-17.64,12.25-14.15c1.7-2.2,0.58-11.37,4.57-7.11c1.37,0.92,1.78-0.34,1.56-1.24c-0.8-3.19,7.48-2.17,2.85-6.79
		c8.34-7.23,8.91-8.61,19.57-5.68c3.59-9.06,3.25-27.16,17.64-21.25c33.65,12.17,12.1,35.27,30.01,46.74
		c0.59,3.62-4.22,3.18-3.85,6.6c0.69,5.08,4.84,7.68,8.58,10.36c23.07,21.36-22.66,9.3-14.39,25.57c-12.39,4.89-1.54,8.37,2.1,13.69
		c4.18,9.05,15.86,22.08,25.34,26.92c-0.15-9.14-8.2-11.69-12.6-16.73c2.52-4.25,2.76-4.35,4.1-1.23
		c2.97,5.22,17.02,14.14,16.98,2.43c-7.72-3.79-16.43-0.31-15.35-12.3c7.31-7.43,19.85-7.21,28.85-12.91
		c13.34-6.27,20.31-17.75,30.87-29.45c-19.51,2.44-23.61,30.46-42.69,19.79c-0.24-3.44,0.09-5.96,4.03-6.32
		c-7.22-4.57,0.29-10.16-3.61-15.77c7.12-1.31,13.26-6.09,20.95-3.12c4.5,1.67,7.28-4.71,1.94-5.63
		c-8.93,1.97-26.41-6.84-22.81,8.81c-2.29-2.52-15.85,4.71-7.13-7.67c-6.94-3.1-9.92-2.09-1.34-7.32c-4.35-2.74-7.03-6.68-6.97-11.9
		c-15.65,7.41-19.63-33.67-41.27-41.18c-0.28-5.86-0.22-12.89-8.28-12.16c-4.07-5.1,0.29-10.88-8.62-5.46
		c-9.71-11.66,16.13-54.64,28.56-61.16c18.02-9.86,31.4-33.86,52.96-29.16c7.91-10.37,14.12-22.53,28.26-25.47
		c8.65-6.65,8.65-6.66,17.61-6.34c8.2-7.49,13.69-10.35,18.9-9.85c-2.67,13.04-7.58,30.17-17.46,42.37
		c-2.99,7.59-8.7,11.6-16.44,13.93c-14.74,6.43-23.51,22.28-33.07,34.56c-4.5,9.81-13.41,21.81-6.04,31.5
		c-10.58,15.12-3.84,17.19-5.11,33.94c2.76,3.21,2.62-1.51,5.34-2.1c5.1,4.97,4.9,15.91,13.02,17.6c3.95-3.87-4.24-7.72,5.78-6.43
		c4.29-5.92-0.51-14.78,5.64-20.67c5.34,3.92,0.92,9.75,2.06,15.5c4.23-3.76,8.38-4.34,12.45-0.25
		c10.49-10.45,18.83-16.66,21.25-32.27c-1.88,1.64-32.51,44.2-29.32,19.45c2.39-5.09-1.58-8.68-2.85-12.87
		c-3.32-0.46-5.73-3.46-2.35-6.5c7.75-24.06,29.92-40.67,44.33-61.91c9.92,7.84,6-3.89,4.77-10.35c9.1,4.67,6.69,11.6,10.74,19.31
		c5.76,8.64,35.28,9.74,20.65-3.34c-5.96-4.5-2.2-7.34-11.55-8.96c-3.98-3.64,3.25-11.68-2.85-17.47
		c-6.51-11.29,1.81-32.17,6.02-44.15c-15.36-9.92-11.86,0.6-21.13,8.33c2.29-17.94,26.36-22.16,24.55-42.25
		c0.98-7.67,8.95-5.32,14.73-6.2c9.53-1.83,10.5,7.03,11.6,14.32c38.81,10.81,11.51,3.97,24.45,19.84
		c13.48,3.46,17.74,5.8,22.84,19.61c-1.49,15.28-9.72-9.95-15.8-11.77c-17.53,7.07,9.64,28.44-4.16,51.08
		c-1.95,7.35-9.16,6.48-15.24,8.11c-7.91,8.11-18.03,5.39-27.9,7.05c17.95,13.6,65.93-29.06,57.02,4.76
		c17.81-15.23,19.75-33.57,14.97-54.37c3.1,1.1,2.62,4.08,3.68,4.87c6.37,2.26,1.39-12.19-0.45-13.56
		c25.96-1.04,51.94-2.77,77.7-4.32c3.47,9.87,4.15,10,12.06,2.64c4.8,5.46-7.64,19.71-4.82,28.95l0.31-0.29
		c-9.86,10.48,2.79,15.15-1.86,25.49c-1.58-2.29-5.84-6.97-6.68-1.77c3.52,5.45-17.8,28.29-21.37,36.45
		c-4.67,5.91-5.96,13.18-7.68,20.3c-2.01,6.24-2.27,6.39-10.12,6.5c-6.39,10.15-5.65,22.3-7.32,33.64
		c1.34,13.5-12.9,18.37-15.06,30.66c-2.1,6.05-10.63,7.78-13.72,13.88c7.16,3.54-19.53,15.62-22.44,41.9
		c-5.47,6.37-1.43,38.43-7.55,32.85c-3.05,1.55-1.21,5.36-1.45,7.75c-7.26,16.73,23.16,36.12-17.19,22.83
		c-13.7-29.34-13.8-2.38,0.23-0.23c-5.59,4.51-17.3,4.68-9.44,13.59c5.72,3.46,4.61-4.91,9.11-6.85
		c11.4,3.17,10.91,30.34,26.4,25.28c0.17-4.7-5.51-3.72-7.17-7.11c-1.43-2.93-4.01-5.22-3.07-9.09c4.17-3.33,8.78,3.06,13.13-0.55
		c-1.7-6.85-5.42-12.29,3.13-15.87c-3.19-4.58-3.47-9.43-3.14-14.81c-2.36-24.98-0.53-50.15,22.56-64.9
		c3.43-4.01,5.39-4.81,14.71-7.98c12.37-15.18,25.35-32.85,45.39-38.99c60.88-42.47,124.08-82.88,186.78-123.55
		c21.96-17.73,49.51-26.29,74.74-38.67c12.06-9.34,45.5-11.71,39.44-27.77c7.42-4.04,16.75,1.47,19.04-7.88
		c6.01,1.13,13.41,1.09,17.23,7.32c11.66,2.67,31.25-2.35,37.96,11.72c10.37,17.63,34.3,20.18,43.63,39.56
		c-8.68,9.74,6.31,15.71,2.93,25.57c-26.09-1.53-50.71-21.39-73-0.71c-1.45,2.62,4.49,4.55-1.6,7.6c7.24,2.3,5.37-1.83,9.2-0.55
		c3.33,3.54,7.31,2.26,11.24,1.77c13.57,1.53,25.61,11.3,40.18,9.15c17.39,0.56,13.21,5.3,25.02,11.8
		c7.4,3.99,14.08,8.68,19.08,15.46c26.13,12.13,39.5,31.19,55.65,54.36c27.68,41.42,52.2,85.16,79.81,126.48
		c-3.38,6.85,10.84,6.62,8.49,24.88c14.33,3.48,22.04,32.51,31.15,47.03c0,2.39-3.62,0.61-4.27,3.08
		c12.5,1.99,15.2,19.17,20.75,29.31c17.7,29.66,30.62,61.95,47.85,91.95c8.68,20.83,23.87,39.3,24.61,62.69
		c7.48,15.07,15.82,31.72,26.66,45.46c1.28,6.34,22.64,33.16,8.61,31.06c-1.88-1.78-5.26-3.96-5.05-5.59
		c0.72-5.43-5.37-6.32-6-10.72c-0.57-4.03-4.05-6.76-5.96-10.22c-21.09-41.13,9.31,41.83,16.03,47.21
		c8.46,10.86-3.54,7.42,5.97,25.49c-0.05,0.99,1.42,2.84,2.35,2.95c8.04,0.94,8.16,8.65,11.63,12.73c0.58,3.05-3.13,4.13-1.82,6.92
		c1.79,2.47,5.55-0.58,6.88,1.73c3.44,16.03,12.11,30.44,17.6,45.74c9.04,13.32,9.24,31.81,16.67,44.86
		c1.17,1.16,3.16,2.08,2.48,3.84c-0.9,6.34,3.87,11.93,6.91,16.58c6.65,7.97-4.34,20.2,4.65,26.51c3.88,6.08-1.26,14.95,6.94,19.85
		c0.08,2.37-3.54,2.92-2.14,6.05c1.03,2.3,4.4,1.93,4.41,4.83c-0.8,2.09-4.66,0.27-4.65,3.71c2.91,8.75,4.43-2.49,7.45,1.08
		c1.03,17.44,2.73,33.64,1.74,50.98c-1.33,3.88-1.49,7.75,3.97,10.13c-7.32,1.25-3.3,8.81-8.59,10.63c3.33,3.86,3.21-0.69,6.24,0.23
		c2.14,2.52,0.73,5.98,0.14,8.1c-2.45,7.83,3.87,12.58,4.73,19.4c-3.2,2.09-1.23,7.72,0.43,10.39c-0.01,8.43,1.67,17.72,0.34,25.53
		c2.03,28.37-24.26,44.4-39.81,65.17c-16.77,13.16-58.57,84.25-78,67.68c-9.89,17.51-25.6,26.93-34.64,44.93
		c-6.28-3.7-9.62-1.23-13.52,3.64c-7.61,6.9-15.68,24.66-22.84,9.41c-2.87-5.28-4.67-12.04-10.46-12.67
		c-0.87-3.73,3.92-4.71,1.6-8.29c-2.57-0.45-3.48-6.06-8.24-2.82c-0.02-4.04,3.72-4.39,4.29-6.95c-1.76-2.34-5.36,0.13-6.95-2.66
		c3.3-2.16,3.3-2.16-0.15-5.2c0.15,1.86,0.29,3.66,0.43,5.46c-16.86-7.95-4.16-8.58-13.24-19.34
		c-17.83,9.94-35.79,19.54-51.61,32.61c-32.27,22.54-65.79,43.13-96.98,66.48c-4.49,4.91-5,3.61-10.37,5.77
		c-2.04,3.37-3.56,7.34-8.81,5.39c-2.14,3.13-6.07,10.1-10.15,8.16c-1.11-0.56-2.39-2.22-3.19-0.65c-1.75,3.44-4.56-2.78-6.67,1.21
		c-19.53,9.89-8.41,11.76-15.67,17.66c5.64-16.98-24.14,8.6-30.93,9.82c-5.61,1.93-3.02,7.24-6.79,10.99
		c-2.25-0.81-0.36-3.95-3.6-4.63c-4.76,5.05-14.13,5.63-17.57,12.05c4,16.96-10.26-1.4-9.47,18.11c-1.35,0.09-2.97,0.48-2.34-1.69
		c1.23-2.53-2.52-6.37-4.74-4.19c-8.44,10.1-23.11,2.07-31.59,10.59c-1.57-8.11,7.28-16.98-7-7.58c-3-4.28,6.34-12.11,9.65-15.87
		c-5.92-11.33-12.83,10.09-20.57,8.57c3.47-5.62,6.46-10.62,12.42-15.68c-9.85,0.56-15.41,11.5-25.16,4.6
		c5.12-1.82,6.51-7.04,10.8-10.01c-3.73-3.2-4.42-10.39-9.68-7.91c-1.32-6.64-3.04-3.47-7.31-3.88c-1.75-1.35-2.28-0.32-2.2,1.27
		c0.05,1.01,0.03,2.78-0.5,2.63c-4.69-2.02-8.15,8.11-11.21,2.84c-3.42,4.33-10.55,18.58-12.28,6.05
		c6.82-0.62,10.32-11.02,2.07-10.23c-4.53,1.43-2.57,7.09-1.75,10.5c-13.86-0.02-10.19,19.13-25.55,16.94
		c-5.38,22.26-6.36,1.62-17.26,17.11c5.02,7.53,5.12-7.31,12.13-2.24c-0.12,2.9-1.8,4.95-2.81,7.16c3.67,6.5,3.84,10.03-3.05,5.13
		c-2.47-0.05-3.53,6.09-4.96,1.45c-1.36-9.88-20.67-35.7-4.65-37.44c5.09,1.24,7.98-2.2,8.96-5.49
		c6.66-14.29,25.26-14.56,28.72-32.1c8.02-2.17,45.89-29.87,46.17-37.4c11.19-0.66,7.31-7.72,5.41-16.14
		c2.31-2.65,7.01-4.98,2.87-10.05c0.94-4.38,2.48-9.59,4.14-14.93c-7.52-1.21-16.34,3.13-19.36-8.17c-0.05-1.37,4.57-3.56,0.64-6.41
		c2.72-0.31,4.31,2.18,6.64,2.85c2.73-2.59,1.02-3.96-1.3-5.31c-7.21,5.84-5.86-3.23-7.8-8.63c-10.3-7.8-4.22-5.89-1.75-16.05
		c9.75,2.01,9.75,2.01,10.49,10.54c5.12,0.01,5.12,0.01,5.41-8.48c1.92-1.5,3.71,0.48,5.74,0.21c2.17-3.03-4.23-2.92-2.3-6.01
		c1.43-2.29,3.79-4.63,1.25-7.65c5.58-4.49,4.4-7.76,5.62-14.64c9.6-3.84,10.26-13.15,5.36-21.79c2.69-5.51,4.9-1.8,8.23-0.52
		c0.25-1.85,1.77-3.61,5.27-6.12c0.51-2.57-3.79-1.39-3.14-4.16c1.63-3.32,4.12,0.87,5.85-0.44c1.48-1.13,1.82-3.5,4.28-3.67
		c5.78-0.42,7.28-4.44,9.77-9.14c2.26-4.27-2.61-5.96-0.72-9.55c2.31-4.37,1.75-6.21,0.59-9.67c11.1-18.19,9.85,0.97,22.49,0.74
		c-11.55-6.48-8.24-10.53,2.86-11.3c1.22-0.27,3.13-0.79,3.38-1.61c1.69-5.57,8.14-6.04,10.85-10.69
		c4.31-6.77,13.6-7.95,17.19-15.67c-0.59-2.45-2.11-6.17,1.45-5.75c8.61-1.75,7.08-13.38,14.39-16.96
		c6.18-3.73,7.93-12.08,16.21-13.18c2.21-0.46,5.43-1.14,4.99-5c1.58-5.77,9.56-6.55,11.34-13.23c9.62-11.7,26.88-16.71,35.44-30.27
		c9.15-6.87,19.36-11.11,29.76-16.5c0.14-4.81,1.4-8.45,4.41-12.87c8.51-2.59,11.94-7.64,20.39-3.97c3.27-1.08,2-6,6.31-7.34
		c6.77,11.56,21.6,6.01,22.64-8.33c-11.42-2.9-20.75-11.74-32.5-12.31c-11.1,0.88-14.95-14.59-16.95-23.07
		c0.05-0.88-0.64-2.07-1.81-2.02c-3.81,0.34-5.69-8.54-10.39-11.71c-4.59-13.94-13.94-24.95-18.75-38.9
		c-32.01-44.29-55.85-96.88-85.46-144.74c-11.66-14.85-15.96-41.21-35-47.28c-8.05,1.62-5.33-14.44-12.57-13.41
		c-4.04,3.02,4.38,6.24,1.29,10.85c0.58,16.38,25.84,27.74,17.21,46.01c-1.4,8.26-3.4,16.8-13.06,18.97
		c-4.42-0.89-1.15-6.56-5.07-8.47c-3.25-1.59-3.53-5.87-5.68-9.74c-10.99,11.53-9.48,16.71-14.65,2.56
		c-3.89-2.37,2.29-6.5-1.78-8.63c-9.34,5.89-10.83,8.68-7.25,18.06c3.87,6.84,0.33,14.17,3.5,20.88c9.66,22.47-7.22,3.82-8.95,17.97
		c-2.83,2.23-7.61-9.54-9.66-0.9c4,7.27,6.12,11.69,2.02,19.48c3.55,1.35,3.55,1.35,5.92-4.91c5.83,2.2,10.79,14.47,13.78,3.22
		c-4.72-0.24-6.24-2.54-1.77-4.03c5.17-10.93,8.28,12.76,3.06,17.83c-2.39,4.27-2.93,9.47-6.07,13.54c-2.68,8.9,8.74,1.65,8.5-4.39
		c0.19-2.23,1.38-4.53,4.7-4.93c3.22,9.13,4.07,18.16-0.75,27.41c5.21,2.9,10.92,5.36,5.65,12.42c2.97-1.77,6.47-0.76,7.27-4.71
		c-5.86-2.77-8.43-11.98,0.33-9.72c4.57,3.41,2.79,9.69,6.31,13.64c1.69,3.51,3.75,6.12,0.25,10
		c-3.25,18.64,19.43-10.96,23.04,25.91c3.98,9.21-5.8,14.31-5.86,22.71c-3.13-0.83-4.81-3.91-8.01-4.07
		c-5.51,4.69,12.76,4.97-3.64,11.05c-10.66-9.4-24.74-16.36-32.92-27.98c-5.87,0.4-6.06-9.2-12.94-7.23
		c8.99,13.93,22.93,23.16,32.25,36.85c-7.4,2.49-2.32,7.89-2.36,12.43c-5.87-1.57-1.52-6.3-5.58-6.45
		c-2.95,0.47-3.45-1.27-4.27-2.93c-2.67-4.32-8.88-0.38-9.04-7.14c-8.58,21.25-5.28-17.98-12.99,5.37
		c-0.81,3.09-4.48,0.05-5.59,2.58c0.87,1.08,1.56,1.4,3.25,1.14c4.62-0.7,4.45-0.28,5.42,3.95c0.05,9.35,5.42,16.92,5.35,26.41
		c-2.68-2.01-5.36-4.33-8.27,0.47c4.2,0.08,1.35,8.56,7.94,6.3c-4-11.28,22.46-22.64,14.86-5.91c-3.78-11.16-3.68,5.1-10.39-0.62
		c-0.24,0.5-0.81,1.21-0.65,1.48c10.75,18.23,1.85,7.14,2.86,22.45c-3.57,5.49,3.44,13,0.33,18.97c-4.83,0.58-2.65,6.24-6.04,8.02
		c-3.31,3.16-6.01,6.82-10.69,8.7c1.41,5.37,3.76,10.72-2.73,14.29c-2.53,4.09-5.85-0.15-8.55,2.67
		c-2.23,5.2-11.28,11.06-7.17,16.67c1.04,2.29,0.22,3.79-2.1,5.04c-2.89-0.31-2.05-4.55-5.21-5.18c-2.97,29.94-6.42,1.24-15.13-0.04
		c5.52-6.67-2.87-16.44-7.3-23.73c-0.66,5.93-7.77,6.86-7.65,12.41c1.3,3.03,11.38,6.14,5.22,9.18c-3.04-5.19-5.38-4.1-8.09-6.76
		c0.62-6.54-5.87-10.9-5.27-17.46c-1.5-5.69-7.38,0.88-9.45,3.21c-4.19,3.78,5.48,7.35,0.53,12.2c4.73,3.2,2.1,3.66,1.65,7.68
		c7.47,2.49,10.39,10.41,1.8,14.66c-14.03-0.37-24.57-64.63-27.58-28.9c-5.48-8.49-5.48-8.49-13.89-5.58
		c-3.16-1.49-2.63-6.28-7.2-6.24c-3.57,7.9,7,13.76,3.04,21.56c-5.9-5.9-15.48-26.14-11.87-34.9c4.41,5.28,11.59-5.88,13.18,3.27
		c0.65,8.7,11.38,6.43,6.15-1.51c-3.96-7.29,0.72-12.19-6.54-16.95c-10.4-4.42-3.47,9.75-3.92,14.68c-3.77-2.24-4.59-7.5-8.79-9.46
		c-5.5,5.22,4.81,11.6-4.23,10.27c1.51-5.68-1.34-12.73-8.34-11.75c-3,2.5-0.21,5.43-2.48,7.82c6.2,2.94,7.29,8.7,9.77,13.56
		l0.12-0.24c-11.62,3.82-14.78-14.54-13.95-22.71c-2.82-8.72-11.65-15-13.33-25.27c6.62-0.13,6.77,4.78,7.57,10.07
		c10.52-0.67,5.31,9.1,12.18,14.69c2.98-5.79-0.87-9.97-2.07-14.28c7.37-6.88,13.29-3.27,18.41,2.44c2.54-1.67,0.54-3.38,1.14-4.85
		c2.43-3.4,0.68-5.14-3.03-6.81c5.59-4.39,0.66-9.11,1.18-14.3c-7.77,2.14-14.92,1.94-20.73-4.13c-3.99,5.22,1.32,8.48,1.39,12.39
		c-8.13,5.42-2.97-9.6-10.21-10.02c-1.9,12.15,5.99,5.64-5.9,15.06c1.9-3.24,0.38-5.19-2.72-5.68c-3.57-0.72-0.79,9.82-7.86,9.28
		c0.17,4.13,9.79,15.66-1.47,8.78c-5.27-6.23-5.38-11.52-9.8-1.28c-3.23,3.27-7.94,0-10.73,3.69
		c-7.33,10.83-20.22,17.78-28.11,28.94c-34.31,25.53-55.19,65.42-94.03,84.02c5.39,12.72,12.16,5.85-2.35,19.33
		c-5.99,6.33-6.03,16.68-14.66,21.14c-6.32,3.14-2.02,11.18-7.85,14.79c-2.76,4.16-5.52,8.16-6.04,12.89
		c-2.77,1.37-8.25-0.74-5.42,5.55c-0.64,6.52-16.5,10.61-8.57,18.37c5.09-1.43,8.14-5.68,13.77-3.31c2.86,0.99,6.44,0.57,9.5-1.42
		c5.68-2.85,10.34,3.47,15.15-3.6c4.85,3.14,18.17,3.17,17.24-5.63c10.01,4.42,18.94-0.89,28.48,0.47
		c2.37,6.9,11.92,10.69,5.97-1.03c1.72-4.93,12.98-8.32,16.39-2.61c-10.71,1.67,7.43,8.67-0.34-0.28c8.26-0.72,6.5,10.9,12.94,14.94
		c-6.7,13.27-13.55,52.76,3.38,18.45c-1.78,9.27,3,30.44-6.02,32.47c1.63,3.14-4.25,25.01-7.51,23.15
		c-5.29,5.01,1.09,12.23-10.12,14.45c8.85,0.22,2.33,8.2,1.75,13.73c-1.12,2.56-5.57,3.61-3.76,7.57
		c2.52,9.43,14.58,7.56,15.99,16.86c2.79,4.73,12.74,12.45,16.66,5.87c2.12,2.67,4.96,4.61,1.85,8.9
		c-0.48,20.49,9.38,6.27,13.33,8.65c4.28,6.19-2.78,12.65,0.29,19.4c10.66-1.47,7.54-10.65,9.93-16.55
		c0.79-3.03-4.98-0.27-3.18-3.76c4.41-2.04,14.64,14.21,12.35,18.51L1536.73,2129.59z M979,1995.5c7.11-3.26-3.2-13.36-1.48-1.83
		C969.89,1992.82,981.24,2008.63,979,1995.5z M1065.88,1073.36c-1.73-1.45-3.37-2.95-3.6-5.45c-1.09,4.83-1.09,4.83,1.57,9.13
		c1.94-1.56,1.94-1.56,1.86-3.94c1.54,0.08,3.16,0.48,4.71-1.52c-2.57-3.59-3.74-7.7-1.32-12.07c3.2,1.01,0.8,5.07,3.01,6.73
		c1.89-1.47,0.96-3.46,1.63-5.28c1.26,1.73-0.28,5.36,3.26,3.66c10.9-0.38-3.31,8.37-0.56,13.54c-6.16-8.08-7.53,7.48,0.57,8.68
		c14.33-4.88,4.2-7.26,6.12-16.98c0.71-1.58-0.59-3.13-2.25-3.95c-4.36-14.19-5.86-4.78-0.8-19.32c-5.6,1.27-3.82,7.73-8.25,10.35
		C1064.75,1060.91,1064.96,1065.81,1065.88,1073.36z M1420.97,2017.3c-7.96,14.96,12.45,5.21-0.29,0.22
		C1417.91,1997.76,1403.3,2011.29,1420.97,2017.3z M992.72,1771.85c-6.88-2.67-6.46,9.15-4.11,12.82c3.17,1.64,6.99-1.05,9.62,2.03
		c-5.22,5.53-7.04,12.02-5.34,20.92c7.48-11.99,5.2-4.61,5.12-21.13c4.85,7.28,13.43-33.11,11.76-36.8
		c-1.86-1.44-4.61-0.19-5.17-3.39c9.91-11.89-13.36-1.7-5.02,12.08c-3.18,10.38-7.12-6.43-6.17,13.09
		C993.41,1771.48,992.72,1771.85,992.72,1771.85z M1363.24,2429.77c-12.54-13.6-14.16,18.15-1.21,7.24
		c0.33-15.2,4.1-1.74,10.13-6.77C1372.56,2423.85,1359.52,2420.31,1363.24,2429.77z M1728.96,1676.95c0.8,2.52-0.45,10.7,4.18,8.14
		c-0.24-5.73-7.16-8.13-7.55-13.8c-0.47-3.74-4.75-7.34-8.48-6.12c-5.92,1.28-3.72,16.05,0.99,13.73
		C1721.44,1670.62,1722.67,1681.35,1728.96,1676.95z M1938.63,1077.67c-4.3-37.38-28.66-38.33,0.22-0.16
		C1959.72,1136.14,1953.71,1074.72,1938.63,1077.67z M1004.36,1228.03c3.61,1.63,8.35,1.58,9.3,8.21c1.94-6.12,11.55-2.1,9.64-10.36
		c-10.47-4.22-18.42,8.27-24.01-5.21c-2.43,6.67-9.17,4.75-6.42,13.81c-5.67,6.82,1.66,4.6,6.99,4.42
		c-18.7,11.83,9.02,13.66-0.3,0.19c2.52-4.51-1.37-2.2-3.31-4.69c2.23-2.11,5.07-0.15,7.29-0.9c3.58-1.22,2.2,5.33,5.99,3.25
		c0.47-7.37-5.86-5.1-9.65-6.39C1001.89,1230.2,1003.22,1229.31,1004.36,1228.03z M1610.05,1726.24c1.01-3.24,2.38-6.51-0.61-10.41
		c-2.95,10,3.32,19.04,4.77,28.99C1627.12,1762.02,1620.38,1720.56,1610.05,1726.24z M972.31,1831.07
		c5.45,0.67,10.41-0.14,14.13-4.26c-0.05-2.18-4-2.78-1.29-5.22c2.02-0.8,2.04,2.6,4.04,1.97c4.43-5.11-2.93-9.02-1.58-13.97
		c0.2-0.74-1.41-3.03-4.02-2.35c-4.39,12.08-8.91,19.06-14.01,28.92c3.37-1.76,3.67,4.45,7.1,2.63
		C978.04,1834.62,974.92,1832.99,972.31,1831.07z M1254.92,1191.81c-6.47-2.14-11.56,6.94-17.17,9.61
		c-1.41,9.2-3.8,6.36-11.13,11.92c-15-2.51-27.95,12.56-41.98,6.37c-11.36,0.26-17.11,1.95-13.85-12.37
		c-5.01,2.78-17.39,14.99-12.22,1.82c0.12-2.6-3.57-3.1-2.72-5.97c1.83-2.31,7.59-1.54,5.75-7.73c-22.29,6.23-10.63-4.9-13.44-16.91
		c-41.21,38.58-64.45,95.19-93.21,143.63c-2.78,1.16-4.61-1.52-7.09,1.03c-4.01,33.38-35.68,59.72-33.15,96.25
		c1.73,16.18-20.23,35.89-7.43,49.17c12.28,12.69,3.49,37.81,13.37,50.28c9.67,2.38,7.08,12.74,10.55,19.66
		c13.75,39.6,14.91,85.19,9.37,124.44c11.78-1.82,11.8-21.36,15.65-30.23c9.94,0.91-0.29,11.2,3.57,16.32
		c25.49-20.23,11.62-64.54,1.09-90.69c-5.47-25.33-10.99-51.77-15.89-77.49c0.93-21.84-0.19-43.66,1.62-65.26
		c0.7-2.47-2.05-1.96-2.92-3.06c7.01-32.29,27.53-59.72,42.65-88.57c6.5-11.56,14.54-28.29,23.97-35.14
		c0.16,1.79-2.46,3.47,0.03,5.51c17.29-13.4,23.9-34.99,34.11-53.53c16.57-10.15,6.65,17.89,17.73,23.33
		c3.72-7.61-7.12-11.15-3.45-18.18c11.04-1.77,22.71-2.65,34.41-10.62c-27.93,4.01-45.52-4.22-7.41-9.64
		c17.08-3.65,31.08,6.14,43.23-10.2c18.4-10.34,34.44-24.39,53.78-32.87c2.87-9.29,8.12-15.71,16.48-19.26
		C1284.85,1144.08,1269.74,1187.54,1254.92,1191.81z M1691,1753.91c-2.36-8.1-9.92-6.07-10.1,1.74c-2.78-0.89-4.91-0.47-4.01,3.03
		c1.88,10.96,14.98,4.88,22.49,7.41c2.7-6.33,7.24-10.8,14.36-14.52c2.55-6.42,2.81-13.68,7.31-19.43
		c-5.89-8.05,5.49-5.61,1.36-12.6c-2.15-3.73,3.75-7.72-1.8-10.13c-3.92-3.5-9.57,0.94-2.79,3.08c0.4,3-4.2,3.05-3.29,6.44
		c2.43,4.77-7.9,14.94,2.02,11.16c-2.3,6.39-14.56,0.98-17.65-2.28c0.92-1.73,4.18-3.02,0.99-5.54c-7.62,1.45-10.39,7.9-12.95,14.39
		c-1.4,2.79,3.86,5.2,0.24,8.14C1692.44,1745.33,1690.82,1749.79,1691,1753.91z M1178.94,1199.5c20-7.69,95.45-95.63,30.61-70.38
		c-9.5,6.68-21.7,0.72-31,8.23c-4.78,5.84-14.27,5.69-17.64,11.88c7.08,13.24,29.77,1.85,29.96,13.6
		c-9.69,16.3-2.3,29.57-17.95,41.73C1176.65,1203.52,1178.64,1202.57,1178.94,1199.5z M1485.99,1473.24
		c-6.2-38.8-28.02-79.24-48.35-114.12c-18.36-30.58-49.61-54.09-65.06-85.56c0.56-17.18-0.53-34.64,1.36-51.7
		c0.15-20.06,17.05-41.2,5.54-59.45c-4.58,8.45-5.2,17-9.63,24.7c-2.2-7.67,5.65-28.84-7.94-17.47
		c-10.72,0.66-7.72,15.28-16.69,19.03c0.17,5.52,1.81,11.05-3.55,14.95c-31.21,117.83,44.41,110.85,71.27,192.98
		c0.83,13.18,14.71,26.87,8.48,38.96c10.79,26.7,22.34,55.34,25.13,84.19c0.28,2.62,0.69,5.34-2.21,7.09
		c-4.71,5.72,2.04,15.42,2.83,22.41c4.71,22.74-2.02,44.39-1.14,69.09c-0.97,5.88-6.01,11.38-1.7,17.77
		c-3.37,9.91-3.5,21.07-11.26,29.3c-1.34,1.42-2.72,2.96-1.51,5.18c7.32,4.34,27.43-16.09,15.77-11.44
		c2.99-11.63,0.91-21.93,11.69-27.53c10.82-2.41-4.08,12.78-1.56,18.43c15.02-16.85,18.22-36.91,17.92-58.97
		c15.12,33.91,11.07-8.51,5.96-20.56c1.19-37.78-1.33-76.16-8.23-114.25C1481.17,1459.36,1479.5,1469.29,1485.99,1473.24z
		 M1508.43,1062.71c6.82,4.34,14.12-4.21,20.77-6.19c22.87-13.81,45.37-28.32,69.32-40.55c14.32-10.57,50.78-12.85,51.97-32.72
		c1.24-5.71,6.27-6.37,9.8-9.92c12.45,8.09,24.26-12.55,37.78-14.11c11.54-2.49,19.74-11.37,30.33-16.09
		c4.26-7.88-10.32,3.45-13.42,3.89c-18.57,2.72-35.91,9.35-52.14,19.35C1612.11,999.47,1554.78,1023.57,1508.43,1062.71z
		 M2114.07,1967.35c-16.81,4.26-35.76,10.05-41.85,27.85c5.14-1.8,8.08-4.87,9.53,2.3c1.23,5.44,10.15-5.17,19.61-3.23
		c4.28-0.52,7.16-2.86,8.55-5.34c0.94-5.61-3.95-1.88-4.71-5.16C2116.96,1972.09,2105.1,1975.82,2114.07,1967.35z M1271.5,845.83
		c-0.23,11.92,8.37,13.73,14.56,21.57c8.95,7.17,18.68-3.78,2.17-2.99c-22.61-22.42,4.67-11.12,1.48-30.16
		c-10.96-0.46-3.78-8.76-8.09-14.64C1270.6,826.67,1283.06,842,1271.5,845.83z M1019.72,1966.64c1.15-19.21-21.48-24.41-22.45,0.22
		c6.44-5.56,6.21-0.03,12.1-1.99C1014.39,1960.53,1014.29,1968.47,1019.72,1966.64z M1283.82,940.76
		c16.55,9.8,36.94,5.51,48.35-9.08C1315.05,938.51,1303.33,940.94,1283.82,940.76z M1279.91,951.17
		c-9.26,2.12-11.54-10.43-19.95-7.17c5.56,22.72,63.95,5.01,17.55,3.88C1278.61,949.38,1279.12,950.08,1279.91,951.17z
		 M1689.41,1579.98c5.47,12.58,12.27-13.18,15.79-19.54C1693.94,1560.36,1693.2,1572.16,1689.41,1579.98z M1153.54,1163.15
		c-3.96-7.64-14.81-13.39-21.85-10.45C1128.78,1162.79,1146.31,1164.47,1153.54,1163.15z M1133.88,1951.19
		c25.48,2.52,40.3-7.1,4.33-5.61C1135.44,1945.03,1134.29,1947.29,1133.88,1951.19z M1240.8,924.94c-6.11,3.32-8.57,8.54-11.7,14.86
		c8.26-0.35,14.78-6.42,22.55-2.91C1247.25,933.41,1243.76,929.53,1240.8,924.94z M1316.69,859.4c-0.85-11.65-10.22-15.18-16.03-4.2
		C1305.03,859.81,1310.62,858.53,1316.69,859.4z M2048.33,1244.79c-2.89-8.69-5.94-20.84-12.29-24.59
		C2025.94,1221.78,2044.2,1238.22,2048.33,1244.79z M2003.67,1706.6c-5.94,8.91,7.28,11.7,13.74,9.6
		C2013.87,1711.2,2011.77,1705.1,2003.67,1706.6z M1164.26,2463.98c-2,10.61,17.07,11.94,10.58,4.03
		C1169.17,2471.26,1169.22,2462.24,1164.26,2463.98z M1729.43,1425.59c-0.99-6.61-1.54-11.68-5.34-15.81
		C1717.01,1416.11,1721.75,1422.34,1729.43,1425.59z M1428.11,2424.63c-13.04-5-18.91,3.12-9.11,7.77
		C1421.76,2427.56,1423.25,2426.11,1428.11,2424.63z M1161.65,1039.16c6.1,4.28,20.03-7.8,9.67-9.06
		C1169.18,1032.52,1160.67,1036.96,1161.65,1039.16z M1471.91,1082.43c-11.52,2.98-16.12,6.51-17.95,12.95
		C1461.56,1093.3,1465.99,1086.73,1471.91,1082.43z M1745.18,1610.84c-3.13,9.61-3.29,11.68-1.26,13.21
		C1751.28,1618.81,1751.53,1619.91,1745.18,1610.84z M969.83,1855.28c5.11-1.78,0.25-3.88,1.27-5.56c1.12-1.85,4.33-2.61,3.26-5.57
		c-0.73-3.87-5.71-4.31-8.04-0.84C971.4,1845.73,967.92,1850.83,969.83,1855.28z M1653.03,1777.17c-3.62,7.05-3.29,9.16,3.95,12.98
		C1656.35,1783.25,1661.24,1781.79,1653.03,1777.17z M1118.44,1120.7c-1.7-4.96-8.13-15.04-10.96-5.51
		C1115.67,1110.62,1106.2,1125.13,1118.44,1120.7z M1684.73,1600.91c-4.43,3.16-3.97,7.31-9.22,9.87c2.83,0.27,2.34,3.78,5.49,3.25
		C1678.56,1607.53,1692.6,1606.44,1684.73,1600.91z M1977.75,1108.01c1.61,9.91,4.69,15.03,11.26,18.87
		C1984.43,1120.87,1981.42,1115.29,1977.75,1108.01z M1007.76,1188.21c-6.85,3.04-11.8,10.48-3.38,11.21
		C1004.36,1196.02,1006.21,1193.29,1007.76,1188.21z M1031.27,1693.13c9.38,2.99,4.99-6.57,0.13-9.07
		C1029.99,1687.18,1030.42,1690.2,1031.27,1693.13z M1766.9,2155.19c9.24-1.57,9.81-2.06,11.29-8.83
		C1773.96,2148.1,1771.02,2150.72,1766.9,2155.19z M1979.38,1705.47c2.32-2.48,4.69-0.26,6.86-1.64
		C1991.03,1699.86,1974.94,1694.37,1979.38,1705.47z M1102.02,1064.14c-3.6,5.63-3.6,5.63,0.32,10.22
		C1107.67,1070.78,1103.52,1067.61,1102.02,1064.14z M1350.56,2435.25c-7.81-4.58-8.31,4.16-2.19,7.78
		C1349.21,2440.03,1349.9,2437.6,1350.56,2435.25z M1716.49,1700.12c0.39,3.45,3.24,4.68,6.3,7.25
		C1726.48,1700.33,1724.11,1695.27,1716.49,1700.12z M1972.03,1142.18c-1.16-4.55-1.08-8.51-4.75-11.46
		C1967,1135.08,1966.49,1139.07,1972.03,1142.18z M916.79,2049.97c2.07-3.71,1-7.56,5.68-7.34
		C926.49,2034.49,915.63,2042.58,916.79,2049.97z M935.7,1989.05c4.2-5.88,4.14-8.24,0.01-11.82
		C934.68,1980.95,934.48,1984.32,935.7,1989.05z M1399.4,1146.63c2.47-2.76,6.13-4.49,7.69-9.39
		C1401.55,1140.22,1401.55,1140.22,1399.4,1146.63z M1426.6,1329.07c1.99-4,8.06-5.42,7.55-12.05
		C1429.6,1320.3,1427.88,1324.57,1426.6,1329.07z M1705.67,1782.24c3.98-4.65,3.98-4.65-2.6-9.02
		C1704.9,1775.99,1704.38,1779.3,1705.67,1782.24z M1744.92,1443.61c0.3,7.31,0.3,7.31,5.3,6.97
		C1749.74,1447.44,1747.39,1445.96,1744.92,1443.61z M1399.46,1526.06c-2.01,2.58-5.7,4.62-3.64,9.22
		C1399.73,1533.2,1399.78,1529.71,1399.46,1526.06z M948.06,1941.48c0.34-3.86,4.07-1.64,6.68-3.29
		C949.38,1936.99,941.5,1935.69,948.06,1941.48z M1922.79,1044.36c0.6-4.21-3.02-6.51-2.42-11.28
		C1917.18,1037.95,1917.18,1037.95,1922.79,1044.36z M1621.71,1760.27c0.98-3.21,4.02-2.39,5.52-4.01
		C1624.82,1750.49,1618.58,1753.97,1621.71,1760.27z M2078.66,2024.02c-7.47-0.09-7.47-0.09-8.88,4.18
		C2073.04,2026.7,2077.44,2029.4,2078.66,2024.02z M1593.57,1720.38c-1.77,2.4-3.51,4.48-0.69,6.29
		C1598.57,1728.9,1598.24,1722.24,1593.57,1720.38z M1707.53,1701.93c0.86,2-1.39,4.42,1.72,5.73
		C1713.96,1707.76,1712.78,1700.82,1707.53,1701.93z M1291.06,2446.64c-2.85-1.31-2.02,2.7-4.13,2.78
		C1279.04,2454.78,1296.82,2453.25,1291.06,2446.64z M1760.21,860.57c2.25,1.57,4.09,2.86,5.93,4.15
		C1766.62,861.54,1763.82,859.87,1760.21,860.57z M1071.1,1090.88c-2.32-3.8-1.56-7.2-4.87-8.8
		C1069.25,1084.06,1066.01,1088.2,1071.1,1090.88z M1980.39,1160.25c1.06-4.76-1.83-5.89-3.07-8.96
		C1973.63,1156.62,1977.08,1157.86,1980.39,1160.25z M1238.16,1226.61c-2.86,1.47-4.78,3.12-5.53,7.37
		C1236.54,1232.32,1239.21,1231.27,1238.16,1226.61z M1699.65,1597.9c-0.59,2.46-1.18,4.92-1.77,7.39
		C1700.24,1603.26,1703.47,1601.62,1699.65,1597.9z M1770.23,1634.42c-3.38-1.36-5.89-0.96-9.15,0.28
		C1764.52,1635.98,1767.07,1639.58,1770.23,1634.42z M1988.88,1709.42c2.41,2.76,5,4.81,10.88,2.85
		C1994.71,1710.95,1991.79,1710.19,1988.88,1709.42z M1687.49,1772.13c-1.77-0.16-3.1,0.47-4.22,3.12c2.7-0.74,3.26,3.45,6.4,1.75
		C1690.23,1774.75,1688.85,1773.45,1687.49,1772.13z M986.68,1795.68c2.47-1.02,3.75-2.72,2.47-5.82
		C986.75,1791.02,986.42,1793.14,986.68,1795.68z M1736.96,1626.02c1.77-6.56,1.77-6.56-0.63-8.38
		C1736.48,1619.76,1736.64,1621.84,1736.96,1626.02z M1714.26,1583.37c0.76-2.05-1.82-5.23-3.84-4.05
		C1706.99,1581.64,1711.77,1584.95,1714.26,1583.37z M1654.13,1674.46c2.93-4.65,2.93-4.65-0.03-6.35
		C1653.25,1669.92,1652.69,1671.75,1654.13,1674.46z M1086.63,1068.95c2.65-0.26,6.17,1.14,6.12-2.04
		C1091.53,1063.98,1087.46,1065.74,1086.63,1068.95z M1784.83,2143.08c1.85-1.14,4.36-1.06,5.18-3.46
		C1787.24,2137.91,1787.24,2137.91,1784.83,2143.08z M1744.34,1488.87c-1.8-2.8-6.12,0.2-5.66,3.09
		C1740.2,1496.2,1744.69,1491.67,1744.34,1488.87z M1318.39,2449.73c-4.01,0.73-4.41,2.89-2.78,7.46
		C1316.16,2453.81,1319.69,2453.86,1318.39,2449.73z M979.42,1835.41c-0.2,7.28-0.2,7.28,4.72,6.91
		C980.16,1841.53,982.01,1837.22,979.42,1835.41z M1959.59,1120.26c2.21,1.07,0.8,7.34,6.11,4.56
		C1964.13,1122.64,1963.88,1119.27,1959.59,1120.26z M916.15,2065.75c3.02-3.43,1.81-5.51-0.33-8.22
		C914.83,2060.39,914.48,2062.48,916.15,2065.75z M1767,1910.48c-1.04,2.75-0.77,4.72,3.07,6.83
		C1769.75,1913.95,1769.54,1911.96,1767,1910.48z M1260.86,2420.15c1.73-0.34,2.6,4.08,5.14,1.31
		C1264.85,2419.1,1263.06,2419.03,1260.86,2420.15z M1671.89,1769.08c-0.23-1.12,0.46-3.75-0.26-4.56
		C1671.72,1766.1,1671.81,1767.69,1671.89,1769.08z M1047.71,1238.49c0.41-1.74,1.98-5.56-1.06-4.23
		C1044.91,1235.17,1045.01,1236.81,1047.71,1238.49z M1477.71,2045.57c-3.61-1.82-1.54-5.2-5.77-5.86
		C1473.63,2043.41,1471.59,2044.84,1477.71,2045.57z M1127.13,1135.74c0.01-4.27-1.34-6.06-4.1-7.58
		C1122.41,1131.5,1124.04,1133.27,1127.13,1135.74z M1763.07,1676.33c0.66,3.14,5.52,4.06,5.2,0.8
		C1767.17,1674.69,1765.43,1675.18,1763.07,1676.33z M1747.12,1746.08c-0.48-3.97-1.48-5.77-5.81-4.02
		C1742.7,1744.04,1743.44,1745.82,1747.12,1746.08z M1072.09,1102.07c-0.51,2.16,0.52,4.58,2.96,4.3
		C1077.83,1104.53,1074.21,1102.46,1072.09,1102.07z M1903.51,1006.81c-0.63-2.35-4.59-7.67-6.07-3.67
		C1899.29,1004.22,1899.94,1007.28,1903.51,1006.81z M1108.94,964.69c0.31-2.82-0.48-4.96-3.21-6.28
		C1105.38,961.46,1107.4,963.01,1108.94,964.69z M965.72,1885.65c0.82,1.05,2.17,1.22,2.62-0.06
		C968.44,1883.48,966.09,1883.7,965.72,1885.65z M1536.24,2159.6c2.98,3.16,2.98,3.16,5.57,2.03
		C1540.89,2159.69,1539.55,2158.57,1536.24,2159.6z M1770.42,1656.65c2.11-0.33,4.37-0.06,4.15-3.88
		C1772.45,1653.99,1770.36,1653.72,1770.42,1656.65z"/>
	<path fill="#1A1A1A" d="M983.47,3615.49c-3.52,5.13-7.73,7.72-3.88,14.13c-7.61,9.26-14.5,19.15-23.22,28.22
		c-23.93,25.1-28.24,63.1-53.58,86.82c-6.1,12.08-12.95,23.17-12.55,36.88c-5.71,14.19-13.37,27.45-19.95,41.23
		c-10.23,9.35-13.85,6.2-20.91,22.39c-12.85,14.37-23.74-16.59-28.61-25.64c-1.61-16.78-19.47-18.74-26.6-31.67
		c-29.59-58.84-49.65-122.1-90.68-174.51c-9.11-10.8-4.6,17.04-11.57,20.85c-3.31,12.01-0.49,25.94-9.17,36.87
		c-0.44,11.15-30.23,121.63-35.85,88.01c8.17,2.61,6.1-9.98-1.2-6.56c2.46,4.01,0.58,5.67-3.64,5.6
		c-4.69-11.52-12.61-25.88-8.99-38.33c-0.08-0.67,0.82-9.54,1.7-4.3c-0.71,10.31,6.98,2.58,3.31-4.35
		c-7.24-10.27,2.93-24.37,0.3-37.38c-0.07-13.38-1.46-26.07-2.89-39.31c-0.09-2.07,4.89-2.16,3.46-5.05
		c-2.78-11.88,0.78-23.47,1.54-35.18c9.64-114.58,33.08-228.61,63.87-339.95c10.36-44.22,19.82-88.71,28.39-133.21
		c10.36-45.53,31.43-88.23,38.12-134.47c1.9-7.95,8.61-45.77,13.08-33.1c4.32-4.42,9.87-13.33,7.92-19.75
		c-2.64-4.45-2.54-6.07,0.26-8.83c6.68-11.14,38.93-36.53,43.23-15.42c36.46,13.47,76.85,35.19,113.6,55.18
		c26.2,15.14,57.3,20.07,81.88,38.04c4.69,4.58,11.8,4.58,16.09,9.62c3.84,3.9,7.84,6.9,13.99,4.42
		c16.53-1.3,33.84,26.82,46.47,21.01c10.12,5.97,10.41,15.33,26.18,17.73c1.11-5.68-7.22-24.8,2.62-17.9
		c8.44,14.21,17.82,47.09,19.87,10.65c8.19,6.86,14.7,38.46,17.95,15.03c4.97-0.28,4.62,7.7,7.17,10.73
		c3.62,7.28,3.66,7.26,12.39,7.48c7.74,11.69,23.31,16.09,34.17,24.62c7.31,6.21,25.86,0.39,22.43,15.7
		c-4.76,13.3,10.26,24.97,3.35,4.63c-2.69-9.89,5.42-13.98,13.67-9.64c5.24-9.42,1.23-5.19,13.64-8.37
		c61.51-4.51,130.89-6,196.11-5.13c83.03,2.35,165.83,10.94,248.94,11.36c10.57,1.29,22.47-1.21,32.32,2.78
		c1.89,0.79,5.61-2.51,5.88,2.52c8.4,1.54,20.69-0.11,30.09,0.85c8.77,0.74,21.62,0.92,14.54,12.41c-2.86,8.32,3.04,16.39,0.6,24.97
		c-22.74,65.54-32.16,135.26-44.9,200.87c-7.77,10.04-1.81,30.87-9.6,34.6c-21.31,55.93-28.77,119.08-43.29,178.31
		c-5.19,17.49-55.07,231.09-22.35,145.33c-3.31,17.96-3.69,34.08-5.99,51.7c-3.17-4.05-1.19-7.6-3.51-10.77
		c-8.56,18.92-5.64,41.29-12.34,61.22c8.49,2.71,5.54,7.28,6.9,14.21c1.94,3.32,1.27,6.21-1.71,8.63c-3.75-3.91-2.3-9.07-2.98-14.05
		c-3,1.18-4.52,2.26-3.64,5.22c2.81,9.45,1.38,18.01-4.4,26.29c-7.68,11.83-5.36,27.04-9.64,40.02c-4.55,0.22-8.95-3.81-11.99,2.37
		c-10.39,15.68-20.32,31.51-23.02,50.46c-9.13,9.71-14.41,22.57-17.74,36.5c-14.09,56.97-39.88,108.64-62.12,162.38
		c-5.5,12.67,1.81,27.12-7.82,38.44c-20.45,6.27-45.22-1.97-56.33-20.3c-16.88-30.9-41.97-56.02-62.93-84.32
		c-9.59-10.35-15.94-22.99-20.06-36.22c-14.88-22.2-28.71-45.86-33.02-72.72c-16.44,13.01-14.41,32.4-22.46,49.25
		c-7.76,1.17-5.95,8.34-8.18,12.94c3.23,28.37-4.38,44.4-13.53,71.64c-1.71,12.35-7.59,23.22-11.9,34.66
		c-6.01,14.16-3.44,32.51-20.96,38.38c-3.01-11.88-3.85-22.55-12.53-30.52c-0.46-26.58-0.96-53.14-0.35-79.73
		c-2.05-44.96-5.92-90.47-3.39-135.48c3.07,15.86,4.06,31.92,5.57,48.95c4.1-27.65-0.71-58.33-1.93-86.86
		c-8.29-15.51-6.84-32.54-6.38-50.07c14.96-8.92,15.43-27.61-0.07-37.27c-0.49-12.86,3.1-25.42,2.09-38.59
		c10.38-3.62,11.77-12.13,11.78-21.61c-0.93-9.87,6.22-105.09-6.1-73.13c-8.54-49.99-1.06-102.97-2.3-154.18
		c1.27-70.06-15.26-138.6-16.3-208.61c5.19-14.1,3.49-31.2,3.92-46.59c-2.02-12.36,3.67-23.54-0.38-35.45
		c5.67-25.18,3.41-51.49,4.7-77.15c3.72-10.57-0.57-10.65-4.12,0.31c-0.75-1.28-1.31-2.22-2.12-3.61
		c-3.2,10.24,6.65,19.66-0.25,29.14c-4.13,5.89,3.73,17.83-6.25,19.08c2.69,6.96,12.88,11.89,5.82,20
		c-8.71,18.16-21.54,33.89-29.74,52.19c-5.23,14.76-13.51,28.86-14.56,44.84c-13.85,3.59-4.03,13.54-7.81,21.82
		c-2.33,1.41-3.48-1.32-5.85-1.46c-10.85,7.97-11.99,19.97-14.93,31.94c-18.96,36.55-34.53,73.74-50.83,111.74
		c-8.12-8.37-9.56-20.28-16.16-29.17c-4.96,4.87-39.61,32.73-36.22,47.6c-22.66,23.05-33.54,59.05-56.91,83.54
		c-10.8,12.42-18.06,28.22-35.08,30.9L983.47,3615.49z M1268.14,3337.15c-6.83,5.31-11.8,10.17-6.09,18.03
		c10.87,62.86,7.98,127.45,8.03,190.84c-2.76,31.39,2.64,62.14-0.23,93.57c-0.23,7.26-1.96,14.38,0.25,21.61
		c6.63-6.97,7.06-7.01,6.3-14.71C1275.1,3543.26,1278.98,3440.07,1268.14,3337.15z M1261.56,3297.58
		c-3.34,9.75-2.57,18.38-1.76,27.48C1273.39,3316.55,1267.51,3309.88,1261.56,3297.58z M641.55,3742.09
		c1.2,7.7,10.81,4.71,6.19-2.06C646.44,3744.18,643.49,3740.05,641.55,3742.09z"/>
	<path fill="#1A1A1A" d="M1575.31,646.05c-5.93-34.84-25.79-52.33,16.24-69.35c14.44,0.84,17.96-19.11,33.39-10.6
		c10.53-3.73,15.28-14.95,25.98-19.34c-5.47-6.77-3.83-14.81-9.88-19.89c-18.33-21.08-50.26-40.38-55.86-67.84
		c-2.77-2.21-5.18-0.54-7-1.31c-4.12,10.04-12.16-3.71-15.23-8.95c0.61-3.02,4.82-3.96,5.63-0.65c2.38,12.5,6.07-8.7,16.01-9.66
		c14.54-8.7,32.51-11.39,45.76-21.91c-17.1-19.37-32.91-42.58-55.85-53.07c3.52-5.91-10.09-9.9-11.44-15.11
		c-17.53-29.23-46.37-57.48-62.18-90.09c-1.84-6.99,1.92-11.03,7.8-14.75c-1.49-3.63,3.01-8.34-2.7-11.11
		c-0.29-0.14-0.47-1.29-0.23-1.59c3.88-6.51-3.08-14.95-8.81-16.95c-4.24-0.43-7.22-5.78-11.04-3.73
		c-0.22-5.41-7.3-11.42-0.29-14.11c-5.97-9.51-20.57-8.08-26.16-19.22c-8.76-4.72-16.75-17.04-27.81-13.04
		c-2.72-1.51-2.08-9.27-7.28-7.03c-18.6-6.27-79.43-27.54-92.49-11.9c5.73-0.44,10.25-1.93,14.76-0.58
		c-0.22,2.15,0.06,3.77,2.91,3.45c2.37-0.27,2.67,1.28,2.32,3.16l0.15-0.18c-9.62-5.67-34.25,6.82-35.12-5.62
		c-3.41,3.47-9.08,1.6-10.38,7.35c-10.64,5.42-29.96-2.53-35.93,10.74c-2.14,6.84-11.96,5.97-10.8,15.08
		c0.15,1.76-3.34,3.86-5.19,5.77c-7.87,9.53-7.48,23.7-18.72,31.3c-20.37,26.13-19.75,52.46-51.9,73.32
		c-15.04-9.23,20-51.84-3.71-47.96c-6.66,11.59-15.66,21.17-24.6,30.96c-12.44,11.89-15.61,33.39-33.87,37.67
		c-24.21-8.95-11.01-38.61-7.01-58.38c-11.06,6.3-12.34,17.52-20.55,25.84c-9.22,1.93-10.15,17.22-16.57,23.88
		c-6.28,29.49-33.25,51.55-48.09,78.16c-9.77,11.8-16.24,30.99-28.01,38.85c0.82-9.47,10.62-18.15,3.35-27.75
		c-3.79-54.4,20.36-107.2,36.98-157.67c-59.81,41.94-99,107.42-130.34,171.71c-9.28,6.48-6.56,21.44-15.48,26.51
		c-2.71,0.49-3.59,2.87-4.34,5.04c-10.8,18.67-8.62,44.68-26.44,58.26c-8.39-41.88,27.38-110.17,45.64-149.99
		c10.1-17.08,10.21-38.76,25.85-52.84c7.33-6.51,3.01-17.26,8.91-24.63c5.35-11.47,15.7-19.66,20.64-31.34
		c14.55-35.69,51.63-52.14,77.7-78.09c30.99-24.28-10.16-15.25-28.61-19.12c-76.9-1.47-21.64-9.31,12.03-25.69
		c49.08-10.23,94.55-33.4,144.15-41.71c4.98-1.89,23.59,3.03,17.28-5.76c3.41-1.64,14.85-0.42,4.95-4.82
		c-15.58-9.96-33.08-14.73-48.99-25.41c6.47-12.42,22.24,0.25,32.37-8.22c10.67-9.19,103.98,12.94,63.59-6
		c-14.2,2.17-38.76-4.34-12.42-12.26c189.38-10.43,314.3,164.76,262.58,52.35c17.66,13.55,1.95-10.2-2.78-12.42
		c-0.55-2.91,1.89-4.69,2.94-7.25c22.14,1.31,31.59,24.73,45.89,37.98c9.53,3.92,5.27,15.29,12.03,21.44
		c12.94,17,28.55,33.87,35.98,53.81c10.6-1.47,16.41,18.53,21.97,26.44c31.36,74.37,36.79,152.92,58.52,229.88
		c8.65-10.86,10.09-24.07,11.98-37.23c6.28-31.36,15.51-30.88,12.2,2.77c10.22,55.54,1.49,117.25,22.81,168.8
		c5.39,42.33,4.27,88.84,8,132.91c7.98-0.81,15.29-21.84,20.14-8.87c-1.99,18.26-9.09,35.19-13.77,52.75
		c-9.48,11.04-16.11,26.91-17.78,43.47c19.7-1.1,38.5-10.56,58.4-6.1c3.23,0.93,7.62-0.93,10.74-0.09
		c5.9,5.64,19.46-4.13,11.98,8.05c-10.9-1.63-4.83,2.92-14.21,4.74c-3.32,8.58-40.06,10.62-20.46,19.08
		c-1.1,4.42-0.87,8.77,4.95,10.44c-0.51,5.7,12.17,7.87,1.05,11.63c-9.7-1.92-17.37,1.95-23.95,8.05
		c-10.53-7.37-21.91,6.38-33.57,9.6c-4.69,1.85-10.76,3.72-9.26,11.19c-3.29,5.33-5.86,11.59-13.8,11.05
		c-7.52,2.66-12.99,11.09-19.31,16.32c-35.75,19.4-5.15-34.56-54.81,5.44c2.16,0.84,3.66,1.43,5.89,2.3
		c-8.45,7.61-18.22,12.16-27.33,19.1c4.26-25.87-2.6-53.16,0.41-81.75c1.02,9.42,7.84,3.08,7.43-3.67
		c-3.74-9.77-2.41-15.69,3.78-24.33c11.69,1.6,3.87-12.04,3.69-18.99c12.54-15.45-20.97-97.03-25.74-121.07L1575.31,646.05z
		 M1305.37,35.32c-11.84-4.03-39.42-13.02-48.8-5.48C1272.66,33.59,1289.23,32.31,1305.37,35.32z M1702.28,542.85
		c0-4.2,0-8.39,0-14.5C1697.81,534.57,1702.05,538.67,1702.28,542.85z M1597.35,872.92c0.87-2.34-2.5-4.08-4.02-2.45
		C1592.22,872.97,1596.14,876.32,1597.35,872.92z"/>
	<path fill="#1A1A1A" d="M1502.02,772.68c-2.77,3.23-6.13,3.28-9.85,1.99c-12.04-2.63-14.68,6.3-27.85-0.39
		c-4.53,4.6-6.61,12.21-14.87,11.29c-23.93-4.38-62.85,14.22-77.59-7.73c-2.76,2.17-1.09,8.19-5.66,8.05
		c-5.4-0.61-11.17,2.2-16.23-1.97c-7.38-0.05-20.51,8.65-24.33-2c-17.67,13.97-13.1-2.34-21.78-10.67
		c-28.77,17.39-22.77-5.55-26.72-23.98c-1.84-4.09,0.7-8.41,2.1-12.29c11.98-1.63,9.2-7.9,17.36-17.9
		c-37.51,11.5-69.85,26.97-107.47,35.06c-51.53,19.01-130.84,43.45-157.4-20.93c41.59,2.65,72.89-28.84,107.63-46.61
		c36.03-16.71,67.43-38.25,96.66-64.78c11.19-7.73,12.99-23.98,27.09-29.15c7.15-5.1,14.74-11.3,17.38-19.64
		c0.14-6.17-6.17-6.47-10.02-3.35c-42.01,21.28-84.3,41.5-128.78,57.43c-34.55,11.88-70.1,25.15-106.69,27.74
		c-14.21-2.67-18.72,13.06-31.34,11.52c-14.6,0.64-58.27-24.71-39.03-36.71c3.46-11.31,17.18-5.25,25.74-6.09
		c7.39-0.07,8.83-1.42,11.15-8.52c1.54-9.81,12.67-12.48,11.9-23.56c7.53,3.76,13.11,1.15,19.97,0.12
		c8.59,1.65,20.25-5.63,21.3-13.57c0.02-16.08-16.88-18.05-27.19-26.18c-2.89-9.26-0.4-22.52-10.92-26.99
		c-5.83-7.17-33.21-0.15-28.76-10.89c-5.41,3.06-12.38,8.29-16.74,2.98c2.81-8.11,18.48-11.96,26.65-16.27
		c17.58-5.19,25.74-23.56,42.28-29.82c10.32-11.46,21.96,4.35,23.75,15.85c4.3,0.77,7.04,3.18,7.21,8.46
		c-0.51,10.78,13.72,14.13,12.32,24.91c0.85,36.29,15.86-54.38,22.64-59.47c10.33-28.75,24.55-55.84,37.52-83.46
		c8.17-6.63-0.04,14.03,6.21,15.11c12.1-4.65,6.55-25.41,20.31-29.55c8.74-11.71,44.09-56.93,59.33-43.02
		c7.65-8.48,15.78-12.43,27.21-11.08c2.83-1.33,1.44-8.89,4.8-6.22c2.67,6.26,2.65,6.27,1.07,11.53c5.8,4.4,8.6,10.37,9.34,18.19
		c2.53,11.58,2.95,25.15,10.55,34.88c3.17,3.76,6.5,12.55-0.91,11.4c-13.73-1.89-27.07,4.38-40.22,4.68
		c-5.69-2.77-10.08-0.12-14.89,2.46c-29.1,12.04-34.21,47.53-56.11,67.82c-5.61,9.79,10.94-4.42,11.36,4.57
		c-21.66,15.42,66.85,11.07,75.83,8.09c19.22-0.64,25.6-27.88,44.84-24.8c2.13-3.06-0.06-4.65-1.04-6.6
		c-5.06-6.89,3.99-9.19,4.95-16.82c12.31,3.95,18.51,22.66,31.9,17.88c7.11-4.17,18.47,4.79,17.19-6.68
		c1.82-14.36,14.91-3.79,22.15-9.6c13.34-6.54,25.66-12.71,34.43-25.27c4.95-2.86,13.2-16.21,18.18-12.25
		c18.24,25.59-4.56,58.36-15,83.28c-39.95,76.65,26.57-4.64,46.36-20.2c-8.02,21.02-18.56,37.12-34.97,52.98
		c16.79-1.64,24.22-9.18,40.17-13.17c-10.7,29.61-27.76,55.83-40.88,83.89c-3.15,6.3,6.18,15.79,10.63,9
		c3.05-6.63,9.79-8.63,14.34-13.28c20.51-23.54-9.12,30.14-10,39.98c-3.68,12.33-20.11,40.51-7.26,48.5
		c2.97,4.25-12.67,13.37-0.89,9.28c8.75-9.82,26.54-7.64,31.5-20.31c10.87-5.21,19.13-21.91,16.88,2.37
		c1.92-3.56,3.38-6.27,5.8-10.76c5.84,14.05,0.23,23.04-9.9,32.03c-10.03,9.86-24.97,37.2-15.51,50.65
		c6.36-1.79,10.86-5.64,14.41-10.85c29.9-37.33,10.32,19.12,7.38,33.66c-10.53,27.27,4.11,10.99-1.98,33.61
		c4.15,1.62,6.17-1.94,8.69-3.27C1494.38,770.13,1493.91,777.15,1502.02,772.68z M1169.42,719.72c15.9-6.19,31.95-27.83,6.78-32.19
		C1152.88,691.61,1141.54,710.53,1169.42,719.72z M1369.49,771.05c-6.59-0.41-7.29,4.35-9.55,7.14
		C1356.2,789.33,1366.68,775.93,1369.49,771.05z M1475.39,765.19c-0.7,2.03,1.05,5.52,3.21,3.62
		C1479.32,766.38,1478.25,765.22,1475.39,765.19z M1479.69,650.08c2.38-1.36,3.62-2.99,1.93-5.81
		C1478.74,645.86,1478.63,647.8,1479.69,650.08z"/>
	<path fill="#1A1A1A" d="M2217.33,1967.61c15.49-2.7,1.5,11.59,10.51,11.74c5.04,25.1,4.37,53.65,3.98,76.9
		c5.52,11.55,1.41,25.69,2.61,38.2c-0.34,15.24,9.03,29.75,3.12,45.08c-7.1,27.33-13.3,55.96-21.97,80.44
		c-0.11,21.84-17.98,39.99-18.45,62.14c23.97-28.99,47.84-62,46.01-101.38c19.93,17.19,23.05,40.2,14.43,64.45
		c-1.64,7.33-12.7,17.23-5.13,23.8c7.31-4.43,6.47-2.69,4.09,4.76c-3.26,15.9,3.85,31.98-5.49,47.43
		c-13.35,25.83-21.48,56.7-45.56,74.86c-24.87,19-39.56,51.79-56.53,76.85c-17.49,21-42.88,26.78-64.72,41.42
		c-20.41,3.89-49.05,34-65.84,13.89c-3.2-3.18-7.43,1.57-11.01-1.69c-9.49-9.37-14.46,5.09-18.21,13.43
		c2.07-37.25-10.97-74.24-0.26-110.64c25.94-10.88,22.5-34.9,16.44-58.84c-3.93-17.91-7.73-35.84-11.58-53.75
		c-7.33,7.4,2.58,23.23,1.62,33.43c1.41,6.11-5.54,10.71-3.26,17.76c1.58,2.75,5.54,1.68,7.46,4.42
		c-0.63,12.31-10.27,32.16-23.82,34.03c2.8-6.3,5.57-11.7,12.73-12.72c7.32-33.88-15.56-27.11-10.1-48.03
		c6.14-12.41-8.1-23.61-0.98-34.53c-0.36-9.47,6.31-25.17,11.93-9.21c3.25-7.17-3.11-14.98,0.45-23.99
		c-5.88-7.18-5.21-16.03-6.34-24.88c-3.51-30.55-5.07-61.31-8.1-91.83c-1.25-4.06,1.39-7.02,4.45-9.25
		c44.29-28.81,82.02-66.88,127.97-92.1c11.98-3.96,17.97-12.15,27.7-20.69c3.64-2.91,8.8,1.27,11.65-4.68
		C2170.28,2012.99,2190.51,1984.02,2217.33,1967.61z"/>
	<path fill="#1A1A1A" d="M356.03,1533.68c-10.72-5.14-2.34-24.41-10.82-31.74c-9.24,3.64-5.79,18.27-5.34,26.22
		c-2.37,13.75,21.49,37.7,9.08,44.47c-9,3.97-13.76,23.06-25.11,12.2c1.76,12.11-19.41,12.23-11.43,20.89
		c5.23,5.62,1.55,14.96,4.01,21.97c1.17,4.1-3.3,7.03-3.48,11.33c-13.44,1.62-11.87,1.76-16.14-9.17
		c-8.03,2.65-16.7,11.06-21.08,19.06c-6.32,4.09-10.65,8.93-13.78,15.86c-13.68,14.02-29.01,65.78-47.3,65.49
		c-36,8.41-75,33.09-113.46,20.21c-30.95-10.24-41.59-8.25-46.91-42.63c-4.01-7.84,5.74-16.15-3.09-20.17
		c0.27-0.79,0.29-2.15,0.94-2.59c10.55-8.74,31.56-47.41,47.51-41.07c-13.65,22.45-48.36,58.01-22.87,83.75
		c9.52-6.57,17.42-5.25,25.47,2.78c57.07,40.75,77.77-37.17,121.49-39.23c18.04-26.87-36.03-48.37-0.97-64.14
		c10.91-3.07,23.17-0.23,30.43-11.43c9.08-9.34,43.09-18.57,22.56-34.28c-16.75-6.93-16.65-25.38-39.98-31.32
		c-6.21-5.09-12.42,0-19.07-1.49c-19.11-8.09-38.72,6.49-56.69-0.64c-19.41-0.58-43.41,8.29-58.86-9.84
		c19.59,0.42,37.86,8.34,57.91,5.42c11.17-17.38,33.25-4.12,50.34-10.04c11.95-4.08,34.23-2.04,37.69-16.47
		c6.2-19.09-5.29-38.94-21.71-49.25c-17.81-14.49-32.75-30.53-54.75-39.01c4.51-7.84-7.56-4.34-12.26-5.97
		c25.32-21.11,68.07,21.58,90.27,36.56c25.77,27.81,75.51,12.67,82.1,33.69c2.48,3.44,10.57,1.8,15.53,2.56
		c9.12-0.56,11.55,15.26,15.39-0.49c-1.16-20.32,5.29-29.53,20-44.54c5.82-8.42,9.1-16.75,20.93-17.26
		c8.72-2.26,9.92-3.21,13.88-10.92c17.95-2.51,35.4,8.6,50.19,17.42c29.1,19.32,62.67,39.8,83.02,68.18
		c3.99,9.81,14.75,13.96,19.42,23.55c6.88,8.17-8.06,28.58,12.07,17.96c4.35,6.06-10.13,19.37-4.13,27.15
		c-6.82,11.6-6.46,7.52-4.72,19.53c-2.25-1.08-0.88-6.86-5.9-3.8c1.35,14.39,7.34,3.46,7.23,9.22c-1.7,2.62-4.93,4.84-3.08,8.57
		c-15.79,30.28-14.69,74.73-39.15,103.16c17.91,6.64-12.22,6.3,2.39,15.22c-3.21,1.01-2.68,4.11-3.75,6.33
		c-1.41,2.95-5.94,4.47-6.06,6.79c-4.26,12-5.19,29.9-19.82,32.9c-10.52,4.11-47.25-5.37-24.34-16.23
		c4.91-1.97,10.03-7.34,10.8-12.49c10.87-13.46-5.36-25.66,0.22-40.51c-1.24-9.3-10.17-16.01-7.68-26.94
		c-4.39-34.09-5.21-73.37,5.06-105.43c6.83-26.65,0.65-60.54-20.36-81.5c-7.33,5.58,11.01,25.32,6.08,37.08
		c7.62,39.19-18.72,98.07-65.81,80.1c-6.02-1.45-13.37,0.35-13.37-7.74c-3.84-0.91-3.6,4.97-7.48,4.81
		c-1.11-14.12-15.23-23.06-17.17-35.85c-4.93-10.04-6.87-21.82-9.64-32.96c-5.25-4.17-3.57-6.5-4.44-12.89
		C356.35,1526.84,353.86,1530.27,356.03,1533.68z M477.48,1766.46c3.85,1.03,6.81,1.57,11.93-0.86
		C484.33,1766.12,481.4,1763.99,477.48,1766.46z"/>
	<path fill="#1A1A1A" d="M1661.61,5350.39c3.21,1.74,0.53,7.5,6.57,6.61c-1.63,4.21-0.86,7.9,2.13,10.55
		c-0.46,2.64-4.2,0.74-3.99,3.88c0.11,1.69-0.87,2.7,0.93,4.86c2.75,3.29-0.34,9.19-4.7,10.63c-7.05,0.04-12.54,10.19-2.55,8.38
		c0.93,1.71,0.88,3.25-0.54,3.68c-59.18,30.6-131.09,53.26-193.92,83.21c-5.81,2.11-14.56,7.21-20.35,0.76
		c-13.09,6.4-33.96,7.85-36.48,21.59c-57.8,16.92-112.92,43.08-173.57,50.19c-105.06,35.08-21.5,6.25-120.1-1.04
		c-9.51-1.83-11.69-7.84-12.53-16.49c-8.8-5.41-20.56-5.05-19.24-18.72c3.1-17.26,33.86-4.61,46.44-2.85
		c9.18,2.27,16.34-6.68,25.75-3.8c12.07-0.34,22.25,4.17,32.37,9.15c35.41,4.85,69.98-8,103.75-18.68
		c13.17-1.35,20.04-17.1,34.76-13.11c61.19-19.2,122.41-47.61,179.29-77.44C1559.33,5395.17,1611.12,5375.15,1661.61,5350.39z"/>
	<path fill="#1A1A1A" d="M2122.25,4123.06c1.83-1.33,3.11,1.79,5.05,1.39c1.72-0.36,2.02-4.11,4.62-2.21
		c21.05,3.26-1.44,4.8,21.27,9.91c4.53,2.93-2.41,20.95,7.64,14.85c0.79-0.85,0.46-2.64,2.78-2.79c3.59,4.24-4.68,8.29,1.93,10.35
		c-3.07,5.4-3.74,5.85-0.86,10.25c2.27,31.48-1.18,65.41-1.87,98.08c-2.61,33.46-0.52,69.09-4.62,101.13
		c-1.96,1.98,1.11,3.48,0.99,5.37c-4.38,5.07-8.25,8.96-7.8,16.54c-0.18,13.03-2.95,25.86,5.42,33.13
		c-1.06,10.88-4.66,21.21-4.66,32.33c2.3,66.9-22.99,128.57-27.32,194.15c1.85,11.09-6.86,18.53-18.95,18.4
		c-9.79,12.71-14.42,28.39-25.19,40.48c-7.6,8.77-9.19,9.3-20.66,5.53c-9.59,8.35-16.84,16.85-29.61,8
		c-3.45-14.49,11.04-27.18,18.56-38.6c4.21-4.97,6.84-9.18,4.66-16.08c3.64-18.5,19.44-27.26,27.93-41.92
		c22.73-36.35,25.55-86.25,23.71-127.76c11.1-22.96,5.67-50.94,8.07-76.26c3.24-42.39,1.98-84.89-0.41-127.01
		C2120.57,4234.87,2122.18,4178.33,2122.25,4123.06z"/>
	<path fill="#1A1A1A" d="M1697.28,5180.06c0.84,3.33,1.16,4.6,1.46,5.81c15.2,0.44-1.7,15.76,5.75,25.62
		c-32.71,29.23-76.88,42.25-118.72,52.83c-8.54,2.23-12.14,12.12-16.23,19.19c-20.07,36.07-71.95,38.61-105.59,57.82
		c-32.46,15.81-68.03,24.23-100.19,39.71c-20.45,12.61-22.83,16.56-41.51,0.42c-27.72-20.49,22.55-31.83,34.97-43.01
		c15.02-13.23,33.85-10.76,50.57-17.45c30.26-19.23,63.54-36.52,78.43-71.26c15.48-26.18,69.93-18.72,97.73-21.21
		C1627.35,5231.69,1665.57,5206.95,1697.28,5180.06z"/>
	<path fill="#1A1A1A" d="M2017.92,4061.35c10.09,32.92-8.24,72.46-4.62,105.39c7.36,13.68,22.33,23.36,19.89,40.88
		c-1.44,18.9,3.75,37.87-0.05,56.67c-4.66,30.19,0.59,61.13-5.4,91.35c0.54,17.29-2.55,34.21-2.03,51.17
		c2.67,21.67,6.06,29.6-16.07,38.34c-28.27,17.86-21.47-26.78-23.72-42.43c-7.72-20.36,0.85-38.56,3.68-57.93
		c-4.72-35-6.94-71.48-29.36-100.43C1925.96,4206.71,2012.17,4110.36,2017.92,4061.35z"/>
	<path fill="#1A1A1A" d="M326.44,1654.47c7.94,16.02,28.96,9.68,41.7,2.59c1.31,4.69-1.2,7.52-3.45,10.15
		c-12.58,13.29-1.58,31.2-3.51,47.24c2.14,15.23-17.89,27.77-7.6,42.88c2.96,1.3,6.68-4.88,7.7,0.74c1.44,8.62-9.61,9.5-11.67,16.89
		c-3.75,5.73-7.88,11.99-16.73,8.73c-17.36,7.91-35.25,17.95-54.51,22.84c-8.64,0.35-15.23,14.21-23.61,7.9
		c-11.8-8.17-26.85-18.2-26-34.54c-1.75-10.81-9.82-20.18-2.14-31.2c15.66-21.5,31.06-42.81,45.47-65.22
		c9.69-14.23,29.82-4.44,38.32-19.31C313.7,1658.74,319.78,1656.04,326.44,1654.47z"/>
	<path fill="#1A1A1A" d="M410.05,1677.49c13.4-12.95,15.43,12.91,23.66-11.25c22.92,18.72,22.38-11.01,28.82-25.01
		c-1.08,34.68,6.1,67.82,7.99,102.63c2.67,12.83-10.66,20.02-11.28,31.82c-7.45,18.29-15.39,37.48-26.29,54.27
		c-5.09,9.19-14.5,0.6-22.42,4.88c-6.08-11.44-25.28,2.93-30.91-11.57c-1.93-4.37-5.24-7.47-10.2-9.39
		c-2.76-13.97,4.99-30.02-0.79-42.69c-8.43-12.66,1.94-30.64,0.23-45.33c3.71-17.15,20.9-28.99,30.39-43.46
		c2.12-1.88,3.76-3.51,2.35-6.76C401.43,1668.85,409.29,1671.91,410.05,1677.49z"/>
	<path fill="#1A1A1A" d="M1369.88,2553.41c5.65-11.93,16.7-10.25,22.47,0.92c0.79-7.01,4.07-1.64,6.97-0.73
		c4.59-7.13,7.82,3.89,10.51-6.65c7.16,12.05-1.34,23.11,2.43,35.59c2.36,15.24,5.66,31.74-15.7,25.66
		c-32.06-3.57-62.73,0.04-94.88,0.31c-17.35,6.26-10.37-31.05-3.03-20.58c2.14,4.64,6.13,6.47,10.41,6.28
		c6.63,2.03,17.8,9.78,15.87-4.14c-1.34-10.66-2.12-21.89-2.48-32.3c2.26-4.08,0.06-6.75-3.29-8.88
		c-10.72,4.89-0.18,23.27-6.32,32.47c-1.71,3.38-0.76,5.98,1.67,9.58c-6.09-1.25-4.59-6.23-7.11-8.84
		c-16.33-1.68-20.23-16.05-12.6-29.37c-0.73-2.47-4.25,0.98-4.1-2.69c0.1-2.38-0.22-4.79,2.62-5.79
		c13.59-3.83,27.61,1.45,41.41,0.14C1346.7,2549.93,1360.78,2540.18,1369.88,2553.41z M1387.25,2559.93
		c-2.1,0.01-2.74-4.05-5.68-1.31C1379.05,2562.51,1386.32,2565.92,1387.25,2559.93z M1360.27,2592.09c0-4.54,0-7.4,0-10.27
		C1359.73,2584.71,1356.3,2587.3,1360.27,2592.09z"/>
	<path fill="#1A1A1A" d="M1082.88,2552.6c-10.3,3.11-18.12-6.68-27.59-9.3c-11.77-4.59-14.56-13.32-15.42-25.1
		c-8.78,8.09,4.24,22.14-21.07,6.11c-15.2-15.8,1.25-58.65-16.7-70.99c-1.13,5.9-1.13,5.9,3.7,9.54
		c-14.23,3.34,1.18,25.28-3.24,37.41c-18.53-13.59-31.1-42.28-42.74-63.31c12.36,0.47,15.7,3.58,16.14,13.82
		c-1.81-8.93,7.93-5.62,11.01-10.74c15.49-0.07,31.02,13.73,45.61,19.41C1090.19,2468.91,1071.83,2511.77,1082.88,2552.6z
		 M1037.74,2505.72c0.69-3.05,1.81-6.15-1.33-10.32C1035.46,2500.13,1036.74,2502.9,1037.74,2505.72z"/>
	<path fill="#1A1A1A" d="M1171.14,2553.42c21.82,9.24,0.34-22.11,8.63-33.45c4.3,0.04,27.37,6.14,17.45,7.76
		c-1.02,1.51,0.12,2.89,1.27,2.85c28.77-0.63,13.15,44.26,17.8,65.65c-19.8-9.19-39.74-13.43-60.14-17.48
		c-2.36,0.51-0.35,3.53-1.98,4.73c-11.41-0.09-12.24-3.85-14.45-14.17c-0.76-22.62-5.78-45.97-7.85-67.46
		C1171.19,2518.28,1173.09,2508.57,1171.14,2553.42z"/>
	<path fill="#1A1A1A" d="M1502.56,2604.51c-11.13,0.54-80.13,12.24-75.21-3.93c2.6-20.6-15.94-66.72,21.02-49.44
		c1.41,5.51,4.64,0.67,6.77,1.43c2.23-2.77-2.05-5.04-0.23-7.64c7.03-4.29,14.79-2.63,21.72-2.94c3.86,2.95-2.68,7.88,4.81,8.54
		c2.63,0.33,4.54-3.62,6.94-0.77c2.87,3.2,7.39-1.96,9.45,2.39c3.69,9.47,6.75,21.2,1.41,30.97
		C1503.93,2589.46,1501.08,2596.98,1502.56,2604.51z M1479.2,2574.78c-6.82-37.95-16.67-6.25-11.4,13.82
		c2.72-1.85,6.13,0.48,7.73-2.37c4.3-5.88,12.38-1.7,18.58-2.9c-1.33-3.47-1.99-10.46-6.11-9.86
		C1485.05,2577.35,1481.84,2571.67,1479.2,2574.78z"/>
	<path fill="#1A1A1A" d="M1281.46,2603.37c-4.02,2.98-7.44,0.9-9.91,2.86c0.72,14.74-29.86-5.05-40.57-4.28
		c-0.62-20.55-3.87-40.62-3.7-60.97c7.24-2.95,16.9,1.06,24.83,2.22c7.18,2.33,22.84-6.26,26.35,2.62
		C1278.59,2564.36,1271.53,2586.86,1281.46,2603.37z"/>
	<path fill="#1A1A1A" d="M132.9,1423.99c-50.89,23.9-28.04,1.76-56.26,47.04c-7.56,5.89,0.03,13.98,3.69,19.8
		c1.72,15.55,6.72,31,22.09,41.08c-4.49,1.84-6.07-3.24-8.78,2.63c-12.85,5.81-33.79-28.81-41.18-39.05
		C34.53,1450.59,91.36,1409.87,132.9,1423.99z"/>
	<path fill="#1A1A1A" d="M1272.31,402.19c-4.19-18.99-33-12.67-44.92-5.84c-4.54,5.72-10.94,20.89-6.38,25.41
		c6.46-18.12,37.7-22.09,38,0.2c1.87,5.25,6.27-5.45,7.47-1.91C1257.73,451.76,1280.45,414.66,1272.31,402.19z"/>
	<path fill="#1A1A1A" d="M1272.31,402.19c1.14,4.8,1.88,9.73,1.84,14.6c6.36,10.01-4.69,21.22-11.93,28.67
		c-5.48,14.05-22.11,9.91-25.14,17.17c15.41-0.93,13.51,0.51,23.38-6.54c13.1-5.95,13.92-8.96,19.12-21.71
		c9.18-1.11,9.55-1.63,7.77-10.38c7.7-14.37,19.42-22.63-0.12-39.66c-19.42,2.5-17.04,1-13.43,18.44"/>
	<path fill="#1A1A1A" d="M1127.09,2573.71c-54.34-4.66-26.16-52.68-39.13-88.74c2.94-3.91,33,8.7,30.32,14.79
		C1119.83,2525.01,1123.23,2548.32,1127.09,2573.71z"/>
	<path fill="#1A1A1A" d="M1513.4,2510.95c-6.22-5.65-4.8-17.62-9.16-26.06c-8.76,0.21-7.68-12.21-16.15-13.6
		c-0.89,9.74-8.57-4.42-8.41-9.19c14.29-5.41,25.52,24.23,21.93-2c6.21-5.12,5.38,5.4,11.96,2.45c14.42-5.84,9.06,13.06,21.73,15.98
		c1.81-8.44-6.6-15.69-2.88-24.32c12.79,10.17,4.71,32.07,16.76,40.41c-1.78-14.14-7.74-26.41-9.68-40.96
		c5.11-1.12,10.18-0.51,14.16-4.4c3.74,11.43,7.02,21.97,6.7,34.06c-5.64-5.07-3.98-13.55-10.31-17.26
		c-2.55,6.93,5.15,13.48,2.26,21.09c2.8,9.57,7.86,19.26,9.52,29.54c2.15,1.91,3.5-0.92,5.26-0.92
		c-6.82,11.01-13.41-8.88-17.64-14.15c-1.83-2.52-5.75,0.25-7.56-3.16c-1.28-3-3.23-8.02-7.73-6.63c1.68,7,1.43,14.44,9.85,19.08
		c11.58,5.17,9.2,26.61-2.64,10.69c-3.34-5.8-12.76-5.82-13.86-13.73c-2.38-5.45-9.11-7.48-13.99-10.05
		c-2.72,4.4,1.71,8.95-0.37,13.33L1513.4,2510.95z M1513.64,2465.25c-18.32,6.3,17.14,40.24,14.87,27.34
		C1524.33,2483.94,1523.95,2468.33,1513.64,2465.25z"/>
	<path fill="#1A1A1A" d="M1470.06,2465.13c5.27-0.66,2.91,8.85,5.08,11.9c4.74,4.38-3.36,8.98-0.1,12.27
		c7.04,4.23,2.88,11.61,8.18,16.28c2.88,1.66,4.29,4.06,1.52,8.1c-2.31,3.36,0.82,8.38-1.08,13.07
		c-10.53,7.14-15.81-12.35-24.43-16.21c-4.39-4.84-13.15-4.45-12.53-12.51c-6.5,0.53-17.6,0.9-12.82-6.99
		c-11.6-14.92-33.61-30.99,2.48-24.43c6.65,4.16,10.12,27.6,20.37,16.71c0.19-7.69-14.27-16.41-3.23-19.14
		c3.92,0.59,2.99,5.42,6.61,6.33c2.18-1.68,2.5-6.34,6.92-5.23C1464.81,2471.1,1473.06,2470.64,1470.06,2465.13z"/>
	<path fill="#1A1A1A" d="M902.18,2194.34c0.4-6.87-5.88-12.82,0.22-17.45c-1.7-2.53-5.99-0.43-7.29-4.22
		c6.09-2.76,15.53-6.68,5.14-13.05c-1.78,2,2.14,3.97-0.96,5.61c-4.75,1.39-0.95-6.49-5.3-7.58c7.55-10.88,10.66-21.08-0.64-31.7
		c6.79-0.91,5.35-7.19,7.43-11.66c4.45,4.3,12.45,3.93,5.09-1.38c2.16-11.22-1.37-16.12,12.3-13.96c4.9-0.65,3.34-3.34,3.09-7.85
		c2.7-2.85,4.5,3.65,3.02,5.42c-0.3,18.06-4.85,37.2-7.03,56.17c-2.34,7.39,4.06,22.46-7.58,22.17c2.3,7.92,0.66,4.09-4.33,9.09
		c-1.09,2.48,1.93,2.21,2.47,3.67c-1.14,2.91-1.45,6.52-5.76,6.75L902.18,2194.34z M900.99,2156.3c3.94,0.5,5.84-0.49,5.78-6.51
		C905.12,2153.57,902.16,2152.44,900.99,2156.3z"/>
	<path fill="#1A1A1A" d="M1840.68,1578.71c15.93,17.89,3.01,26.59,17.23,24.36c5.87,11.19,15.94,19.82,22.14,30.3
		c2.94,6.91,1.33,23.5-4.43,8.41c-1.6-3.02-4.34-2.68-8.16,1.05c4.03,2.19,2.68,9.39,9.54,8.88c-3.65,4.73,2.15,10.65-3.43,13.68
		c-6.24-0.22-2.11-14.6-14.8-20.97c-3.01,0.9-1.33,3.62-2.48,5.11c-3.4-3.7-10.56-6.51-9.61-12.48c0.7-7.03,0.64-13.69-6.58-17.75
		c-0.34-6.02-11.8-22.55,2.33-13.67C1850.48,1585.87,1832.54,1609.14,1840.68,1578.71z"/>
	<path fill="#1A1A1A" d="M1351.69,5226.22c2.16,13.17,2.84-0.15,9.82,2.46c2.48-1.7,0.48-4.83,1.97-7.38
		c9.14-0.04,15.25,1.59,17.62,10.96c1.63,4.3,4.42,8.25,2.7,13.23c3.09,8.27,10.57,20.85-0.69,27.04
		C1366.84,5281.34,1339.28,5238.99,1351.69,5226.22z"/>
	<path fill="#1A1A1A" d="M1887.13,4346.11c-1.22-2.42-5.01-1.67-5.97-4.55c2.74-3.22,2.15-9.08,6.71-10.46
		c12.58-0.98,46.19-2.15,47.24,14.48C1938.29,4365.93,1863.7,4372.53,1887.13,4346.11z"/>
	<path fill="#1A1A1A" d="M1115.45,668.01c-5.21,13.01-18.33,11.37-21.09-2.42c-5.01-5.18-22.15-8.03-15.97,2.73
		c5.13,6.41,11.98,9.94,15.69,18.04c-10.23,6.56-19.64,13.63-32,17.2c-1.04-14.47-3.45-33.58,9.61-42.23
		C1089.41,653.67,1116.89,637.54,1115.45,668.01z"/>
	<path fill="#1A1A1A" d="M1600.9,2459.45c0.15,3.12,0.29,6.24,0.44,9.35l0.2-0.22c-3.55,0.54-3.39-3.59-5.83-4.66
		c-3.49,2.35,0.28,6.23-2.4,9.47c-6.61-8.38-21.63-66.82,0.05-51.61c-1.93-10.92-10.29-12.77-13.31-21.59
		c-0.19-4.29-5.16-2.26-8.49-3.08c3.11-7.91,9.71-11.18,15.9-14.85c12.72-9.19,28.7,5.75,8.69,0.14
		c-0.55,5.97-1.63,11.86-8.68,14.11c5.07,3.86,8.02-3.91,10.86-0.04c3.12,7.03,17.98,12.66,5.84,17.8c-0.38,1.51-1.64,2.81-2.5,4.2
		c6.11-13.29-7.25-14.81,0.13-0.12c-7.71,11.78-24.39,0.26-9.11,21.1c5.85-6.75,23.83,2.22,11.01,6.14
		c-2.84,6.08,8.36,24.63-2.99,14.01C1601.9,2451.01,1594.35,2452.34,1600.9,2459.45z"/>
	<path fill="#1A1A1A" d="M1875.11,4303.88c8.62-11.01-8.77-5.41-4.07-14.34c1.09-1.82-2.18-1.97-2.34-3.62
		c12.43-3.93,21.13-3.76,31.11,1.09c10.54,1.39,28.13,2.41,21.64,17.74c-4.36,11.52-17.78,6.99-27.22,9.85
		C1884.56,4317.43,1880.24,4310.8,1875.11,4303.88z"/>
	<path fill="#1A1A1A" d="M1410.45,5187.2c3.9,8.44,12.94,18.13,12.21,27.73c-3.97,3.2,1.24,7.92,2.06,11.58
		c7.14,16.08-17.13,23.27-23.34,9.22c-4.59-11.24-16.65-20.99-6.71-33.29c19.04-3.81-0.25-6.45,12.7-10.77
		C1409.97,5190.62,1407.05,5187.71,1410.45,5187.2z"/>
	<path fill="#1A1A1A" d="M1891.43,4400.54c5.19,1.8,6.93-2.87,5.18-6.46c-0.15-1.53,3.54-0.51,3.11-2.77
		c2.72-27.22,26.3-11.59,9.51,11.56c-3.4,9.88,12.23,12.14,17.61,18.05c15.73,27.88-27.65-7.3-27.36,8.01
		C1896.28,4422,1893.39,4410.21,1891.43,4400.54z"/>
	<path fill="#1A1A1A" d="M1212.06,408.97c4.09,2.2,2.47,6.44,1.3,8.35c-7.11,18.05,1.51,33.65,17.87,43.99
		c-24.3-1.09-71.28-2.75-33.18-31.85C1206.02,424.55,1204.09,413.93,1212.06,408.97z"/>
	<path fill="#1A1A1A" d="M1295.56,5271.77c3.98-3.82,11.22-5.93,8.17-12.11c3.2-1.48,7.68,0.88,9.74-3.52
		c7.43,8.72,38.98-8.39,26.91,15.95c-36.16,1.06-21.64-0.29-31.57,28.18C1291.76,5311.22,1303.62,5278.06,1295.56,5271.77z"/>
	<path fill="#1A1A1A" d="M1356.61,865.71c-4.77-1.13-2.6,3.55-4.72,5.49c-2.28-4.4-16.01-14.62-7-16.38
		c17.39,5.27,122.79-21.17,109.51,4.4c-17.61-10.73-76.87,3.14-98.14,6.79L1356.61,865.71z"/>
	<path fill="#1A1A1A" d="M1045.69,711.26c-4.06,0.59-7.79-1.14-9.13-4.52c-4.18-9.3-23.31-24.71-2.51-27.19
		c2.23-7.66,0.67-20.85,13.15-16.21C1048.74,675.96,1052.32,700.98,1045.69,711.26z"/>
	<path fill="#1A1A1A" d="M1259.01,421.96c-2.82,18.7-26.22,30.5-30.32,6.56C1227.31,408.06,1250.68,405.86,1259.01,421.96z"/>
	<path fill="#1A1A1A" d="M1127.71,667.97c-6.93-7.85-1.64-16.6-2.92-24.87c15.68-4.04,29.97-5.56,45.79-9.22
		c-3.96,9.16-13.78,11.95-22.07,15.57c-6.69,1.87-6.75,1.68-7.09,9.17C1135.94,659.9,1131.94,663.82,1127.71,667.97z"/>
	<path fill="#1A1A1A" d="M1370.78,826.35c-3.8-31.52,43.78-21.77,37.04,1.93C1401.74,845.95,1367.42,850.54,1370.78,826.35z
		 M1398.02,814.07c-22.38-9.35-31.79,14.33-9.95,23.53C1396.18,831.71,1407.33,822.89,1398.02,814.07z"/>
	<path fill="#1A1A1A" d="M1204.82,755.95c-7.61,6.03-15.41,14.02-25.8,12.96c-9.72,0.22-13.02,12.73-24.13,11.01
		C1095.34,783.3,1189.69,760.16,1204.82,755.95z"/>
	<path fill="#1A1A1A" d="M652.85,3435.39c5.9-38.31,6-71.77,19.4-108.83c1.21,20.76-6.44,39.71-8.27,60.28
		C659.61,3402.97,663.9,3421.73,652.85,3435.39z"/>
	<path fill="#1A1A1A" d="M1921.44,997.6c-16.95-25.35-42.54-42.65-60.39-66.59C1858.64,913.02,1928.52,994.1,1921.44,997.6z"/>
	<path fill="#1A1A1A" d="M1502.7,1993.68c-3.59-6.06-2.96-13.03-4.35-20.16c-8.03,0.25-8.7-8.43-1.54-10.33
		c5.04-0.93,9.92,2.01,15.12,0.29c1.63-0.54,5.41,1.74,3.82,4.18c-2.78,5.9,6.4,9.46-4.04,9.69c4.89,6.92-1.23,2.43-2.49,7.15
		c0.56,5.43-4.63,6.29-6.78,9.49L1502.7,1993.68z"/>
	<path fill="#1A1A1A" d="M1912.85,2412.14c-10.08,2.13-25.32,15.32-31.48,10.06c-1.6,4.36-4.28,2.98-8.14,2.96
		c1.97-9.82,14.14-7.2,14.47-16.8c4.56,1.44,9.37,0.46,10.85-4.87c4.52-8.16,6.04-5.87,8.1,1.37
		C1912.85,2404.36,1909.4,2408.93,1912.85,2412.14z"/>
	<path fill="#1A1A1A" d="M1749.65,3446.81c-5.05,24.39-9.45,49.07-19.91,72.1C1729.66,3493.72,1738.62,3469.34,1749.65,3446.81z"/>
	<path fill="#1A1A1A" d="M1546.27,2560.44c-5.97,5.13-1.99,16.12-13.52,16.85c-2.35-2.71,3.76-3.24,0.45-6.52
		c-3.26-1.73-6.14,1.76-9.76,3.63C1513.4,2552.97,1526.77,2554.34,1546.27,2560.44z"/>
	<path fill="#1A1A1A" d="M1480.37,810.09c-4.42-1.88-8.48-2.42-12.92-2.36c-5.24-7.52-12.87-2.52-18.44-4.23
		c-7.04,4.01-7.44,11.14-10.76,17.07C1434.56,794.96,1472.62,787.15,1480.37,810.09z"/>
	<path fill="#1A1A1A" d="M1708.56,452.85c12.03,3.03-1.75,4.9,6.38,7.28c-6.52,17.5,3.67,38.58-0.68,57.66
		C1710.52,496.42,1709.66,474.85,1708.56,452.85z"/>
	<path fill="#1A1A1A" d="M1351.86,150.89c5.62-6.46,12.67-5.48,18.87-2.15c9.06,8.47,29.42-0.54,31.99,13.41
		C1386.5,161.34,1369.07,149.02,1351.86,150.89z"/>
	<path fill="#1A1A1A" d="M1578.12,2475.37c-17.96,9.44-2.94-20.96-11.75-15.41C1552.34,2439.98,1573.47,2439.4,1578.12,2475.37z"/>
	<path fill="#1A1A1A" d="M1569.17,2334.27c-3.11,5.12-13.35,5.26-9.37,12.05c0.44,0.54-1.17,3.7-3.82,2.86
		C1533.94,2334.97,1553.5,2330.97,1569.17,2334.27z"/>
	<path fill="#1A1A1A" d="M1036.03,571.63c-0.18,9.86-9.01,7.8-18.57,4.63C1016.28,560.43,1027.01,564,1036.03,571.63z"/>
	<path fill="#1A1A1A" d="M1502.44,1993.99c3.05-2.84,6.35,1.92,9.32-0.81c1.56,7.6,1.56,7.6-4.4,9.53
		c-3.51,7.66-1.57,16.1-3.92,24.14c-10.85-9.75,3.16-20.83-0.75-33.16L1502.44,1993.99z"/>
	<path fill="#1A1A1A" d="M1424.28,156.51c-3.37,12.58,13.36,9.42,14.89,19.7c-16.38-2.24-23.3-6.51-25.91-16.02
		C1417.43,158.18,1424.19,165.5,1424.28,156.51z"/>
	<path fill="#1A1A1A" d="M1680.96,1825.73c11.27-2.82,11.48,4.04,5.1,12c-2.91,3.29,1.81,7.54-0.16,11.39
		C1681.67,1844.41,1672.92,1829.92,1680.96,1825.73z"/>
	<path fill="#1A1A1A" d="M127.09,1411.31c16.58-3.21,37.84-10.35,54.27-2.64C162.59,1408.52,145.73,1413.8,127.09,1411.31z"/>
	<path fill="#1A1A1A" d="M896.05,2224.53c1.41,5.47,7.18,0.92,8.97,4.55c0.66,0.7,0.81,1.57,0.14,1.87
		c-7.35,4.13-4.4,12.06-6.71,18.72c-9.94-0.27,1.9-12.43-5.52-14.83C890.84,2232.17,895.12,2227.87,896.05,2224.53z"/>
	<path fill="#1A1A1A" d="M1305.58,291.5c2.9,7.13,20.66,59.81,9.02,39.16C1313.4,317.53,1304.23,307.22,1305.58,291.5z"/>
	<path fill="#1A1A1A" d="M1801.49,1530.37c-0.7-9.44-7.53-18.39-1.19-26.92C1806.22,1512.11,1810.95,1521.73,1801.49,1530.37z"/>
	<path fill="#1A1A1A" d="M1555.75,846.4c0.22-1,0.87-2.1,1.81-1.65c10.39,1.55,14.07,8.96,2.41,16.86
		c-2.95-4.75-1.1-10.87-4.45-15.42L1555.75,846.4z"/>
	<path fill="#1A1A1A" d="M1645.91,1855.13c12.53,23.42,14.6,48.47-0.9,7.13C1644,1859.92,1643.88,1857.86,1645.91,1855.13z"/>
	<path fill="#1A1A1A" d="M1783.2,1722.81c-3.95-1.98-21.78-13.39-9.18-12.59c2.55,2.3,4.92,3.77,8.45,1.5
		c0.97-0.63,3.7,2.05,2.89,2.54C1781.5,1716.6,1786.75,1719.8,1783.2,1722.81z"/>
	<path fill="#1A1A1A" d="M1555.53,846.18c-5.72,4.84-9.79,0.55-13.11-4.13c-5.85,3.43-5.85,3.43-14.08,2.93
		c13.95-17.22,12.91-1.3,27.41,1.42L1555.53,846.18z"/>
	<path fill="#1A1A1A" d="M941.15,2055.57c0.28,7.83-4.56,13.73-7.73,20.45c1.6-7.04-5.4-24.14,7.99-20.24L941.15,2055.57z"/>
	<path fill="#1A1A1A" d="M1566.54,895.23c-10.18-1.69-16.34-7.69-8.88-17.22C1560.51,883.64,1565.46,888.25,1566.54,895.23z"/>
	<path fill="#1A1A1A" d="M1403.3,985.14c4.55-6.74,4.16-21.16,14.45-17.06C1415.91,976.05,1410.57,981.2,1403.3,985.14z"/>
	<path fill="#1A1A1A" d="M925.79,1511.26c0.34,13.22-0.36,25.59,0.18,38.55C922.36,1539.27,922.25,1526.83,925.79,1511.26z"/>
	<path fill="#1A1A1A" d="M1541.34,930.01c6.11-10.48,19.76-23.91,31.95-26.01C1562.38,913.47,1551.35,922.6,1541.34,930.01z"/>
	<path fill="#1A1A1A" d="M1469.09,268.99c6.66,7.27-5.77,11.56-10.35,17.18C1458.79,278.7,1461.35,269.85,1469.09,268.99z"/>
	<path fill="#1A1A1A" d="M1441.21,893.27c9.3,0.93-2.21-13.02,9.86-15.7c2.41,7.11-7.11,31.42-9.55,15.41L1441.21,893.27z"/>
	<path fill="#1A1A1A" d="M1530.96,2601.59c-10.67,11.17-14.19-1.25-11.16-11.3C1526.85,2597.62,1513.42,2596.39,1530.96,2601.59z"/>
	<path fill="#1A1A1A" d="M1528.03,318.85c-14.62-10.44-15.43-11.59-12.14-17.08C1518.71,306.43,1530.62,314.17,1528.03,318.85z"/>
	<path fill="#1A1A1A" d="M1660,1866.36c-2.67,1.22-3.83-0.18-4.59-1.51C1640.82,1837.58,1656.44,1843.6,1660,1866.36z"/>
	<path fill="#1A1A1A" d="M1710.78,2190.72c10.92,0.87,11.12,4.52,1,7.81C1702.86,2189.29,1709.74,2180.17,1710.78,2190.72z"/>
	<path fill="#1A1A1A" d="M1541.12,929.75c-35.24,34.98-24.44,4.82,0.22,0.26L1541.12,929.75z"/>
	<path fill="#1A1A1A" d="M1636.25,1811.65c4.27,3.24,11.18,16.6,4.63,17.15C1637.71,1823.54,1637.5,1817.47,1636.25,1811.65z"/>
	<path fill="#1A1A1A" d="M1552.66,591.56c5.8,2.96,10.73,10.5,1.65,13.42c-1.82-1.87,0.1-4.21-0.66-6.24
		C1550.49,596,1546.57,594.66,1552.66,591.56z"/>
	<path fill="#1A1A1A" d="M1854.03,908.65c-2.45-5.27-8.81-9.47-3.82-16.32C1856.44,893.23,1855.73,903.55,1854.03,908.65z"/>
	<path fill="#1A1A1A" d="M1693.64,3681.83c-0.26,7.88-0.48,13.88-3.89,19.59C1685.5,3694.41,1686.91,3688.69,1693.64,3681.83z"/>
	<path fill="#1A1A1A" d="M1673.51,1841.27c4.83,4.94,1.89,9.05,5.18,11.26c-2.28,2.35-4.78,0.45-6.85,1.43
		c-1.25,1.17,1.11,3.19-0.98,4.24C1661.65,1850.85,1678.16,1851.38,1673.51,1841.27z"/>
	<path fill="#1A1A1A" d="M1156.93,64.85c-3.7,3.51-14.07,3.07-11.05-3.52C1148.74,57.56,1155.56,61,1156.93,64.85z"/>
	<path fill="#1A1A1A" d="M1816.45,1533.78c5.42,7.23-0.02,12.72,2.44,17.67C1812.13,1553.12,1813.79,1537.95,1816.45,1533.78z"/>
	<path fill="#1A1A1A" d="M1741.31,1710.97c2.89,0.06,3.05,3.33,5.97,1.86c2.72-1.37,3.54,2.27,2.36,2.94
		C1744.4,1728.99,1741.88,1720.49,1741.31,1710.97z"/>
	<path fill="#1A1A1A" d="M1783.68,2176.82c3.17,5.93,0.07,11.29-1.46,18.09C1781.1,2189.17,1776.73,2176.7,1783.68,2176.82z"/>
	<path fill="#1A1A1A" d="M1638.02,1838.35c-5.13-4.11-6.18-6.3-7.55-14.27C1637.25,1827.04,1636.78,1833.17,1638.02,1838.35z"/>
	<path fill="#1A1A1A" d="M1989.18,2135.4c-2.63-1.16-4.39-1.93-7.21-3.18c7.9-0.79,12.79-6.34,20.68-8.86
		C1999.01,2129.75,1993.12,2131.04,1989.18,2135.4z"/>
	<path fill="#1A1A1A" d="M1595.71,2490.8c5.52,1.61,4.09,6.26,4.45,10.13c-4.09,4.88-9.81-2.54-4.35-5.73
		c1.66-1.74,2.25-3.03-0.11-4.47L1595.71,2490.8z"/>
	<path fill="#1A1A1A" d="M1513.12,2511.16c12.24,13.57-9.14,24.11,0.28-0.22L1513.12,2511.16z"/>
	<path fill="#1A1A1A" d="M1920.74,2376.25c-5.32-3-5.82-8.76,1.42-9.04C1927.79,2368.55,1926.27,2375.01,1920.74,2376.25z"/>
	<path fill="#1A1A1A" d="M1451.68,5214.45c-5.59-1.73-8.24-3.74-6.15-9.03C1450.78,5203.46,1455.33,5209.44,1451.68,5214.45z"/>
	<path fill="#1A1A1A" d="M1230.57,451.24c-10.37-0.79-12.47-7.94-15.72-15.61C1221.91,441.27,1222.6,446.39,1230.57,451.24z"/>
	<path fill="#1A1A1A" d="M941.4,2055.77c-5.95-7.22-0.56-6.27-3.46-12.45c7.87,2.51,10.78,6.88,3.21,12.25L941.4,2055.77z"/>
	<path fill="#1A1A1A" d="M1550.4,2527.52c5.6-9.45,12.06,9.3,3,8.87C1550.41,2534.59,1551.41,2530.49,1550.4,2527.52z"/>
	<path fill="#1A1A1A" d="M1451.62,833.88c7.13-1.36,13.05-2.04,19.28-4.67C1467.43,836.79,1464.7,837.41,1451.62,833.88z"/>
	<path fill="#1A1A1A" d="M1575.01,645.71c-0.33,6.14-4.46,1.3-7.59,2.59c0-3.2,0-6.12,0-9.28c2.82,2.52,4.17,6.1,7.89,7.04
		L1575.01,645.71z"/>
	<path fill="#1A1A1A" d="M1140.49,31.59c-4.08-1.91-7.8-3.54-11.16-7.34C1134.67,22.55,1146.69,25.12,1140.49,31.59z"/>
	<path fill="#1A1A1A" d="M1538.72,2151.74c-3.07,0.72-3.98-1.86-5.46-3.57c-0.84-2,1.99-3.34,0.92-5.43
		c-1.97-3.84,1.51-3.99,4.54-5.83C1538.72,2142.32,1538.72,2147.03,1538.72,2151.74z"/>
	<path fill="#1A1A1A" d="M890.02,2218.59c9.67-0.76,9.86-0.74,13.07,1.52c-2.46,3.79-7.76-1.13-10.09,3.3
		c-1.09,2.34-3.11,1.38-4.7,1.41c-1.33-3.06,3.21-3.75,1.81-6.43L890.02,2218.59z"/>
	<path fill="#1A1A1A" d="M1818.16,1575.92c-3.06-7.57-3.06-7.57-0.67-11.84C1820.87,1567.46,1821.95,1570.84,1818.16,1575.92z"/>
	<path fill="#1A1A1A" d="M1809.65,1552.26c5.22-0.12,7.69,2.69,9.12,6.66C1814.98,1565.07,1808.09,1557.4,1809.65,1552.26z"/>
	<path fill="#1A1A1A" d="M1503.85,2519.25c3.65,2.82,9.19,8.13-1.17,7.52C1501.19,2524.03,1500.35,2521.42,1503.85,2519.25z"/>
	<path fill="#1A1A1A" d="M1757.33,1758.53c-7.44,6.07-9.22-6.23-3.25-7.44C1757.77,1751.36,1756.69,1755.83,1757.33,1758.53z"/>
	<path fill="#1A1A1A" d="M1501.19,847.63c2.33-6.29,7.82-6.32,13.95-7.63c-3.31,4.19-8.73,6.74-14.25,7.32L1501.19,847.63z"/>
	<path fill="#1A1A1A" d="M1610.36,409.16c9.69,5.03-0.69,8.49-6.51,5.81C1604.49,411.21,1608.1,411.16,1610.36,409.16z"/>
	<path fill="#1A1A1A" d="M1235.91,834.15c6.29,1.18,6.29,1.18,8.03,6.51C1239.98,841.84,1231.38,838.87,1235.91,834.15z"/>
	<path fill="#1A1A1A" d="M1959.4,2183.86c-5.73-1.32-7.12-10.37-0.8-8.1C1961.13,2177.62,1961.75,2180.38,1959.4,2183.86z"/>
	<path fill="#1A1A1A" d="M1567.83,861.3c2.7,3.73,6.44,6.67,3.88,13.13C1571.63,868.96,1566.39,866.99,1567.83,861.3z"/>
	<path fill="#1A1A1A" d="M1935.04,2425.07c-2.48-2.74-2.89-5.47-1.13-8.64C1939.54,2419,1939.54,2419,1935.04,2425.07z"/>
	<path fill="#1A1A1A" d="M890.11,2218.4c-3.2-6.88,2.11-10.69,5.7-15.15c1.99,5.54-5.04,8.91-5.78,15.35L890.11,2218.4z"/>
	<path fill="#1A1A1A" d="M1927.81,4511.58c5.91-0.08,7.66,2.58,7.58,7.6C1930.18,4519.16,1929.37,4515.29,1927.81,4511.58z"/>
	<path fill="#1A1A1A" d="M1494.94,331.11c-4.15-1.68-13.74-1.22-7.78-6.41c3.24-1.25,2.08,2.74,4.03,3.19
		C1492.45,328.18,1494.71,326.85,1494.94,331.11z"/>
	<path fill="#1A1A1A" d="M1772.77,2183.76c0,5.83,0,9.48,0,13.97C1767.91,2190.56,1767.91,2190.56,1772.77,2183.76z"/>
	<path fill="#1A1A1A" d="M1919.04,2391.45c1.53-9.78,2.48,3.6,7.02,2.87c-6.29,8.31-4.27-0.79-7.37-3.19
		C1918.69,2391.13,1919.04,2391.45,1919.04,2391.45z"/>
	<path fill="#1A1A1A" d="M1927.89,2402.02c1.21,6.86,1.21,6.86-6.99,6.85C1921.67,2404.82,1924.44,2403.23,1927.89,2402.02z"/>
	<path fill="#1A1A1A" d="M1587.82,750.75c2.61,1.41,12.79,10.46,6.62,11.3C1590.24,759.6,1591.28,753.2,1587.82,750.75z"/>
	<path fill="#1A1A1A" d="M1587.86,750.64c-9.03-16.59,7.28-11.43-0.04,0.11L1587.86,750.64z"/>
	<path fill="#1A1A1A" d="M1191.63,10.86c-2.26-7.24,6.25-4.84,8.42-0.93C1197.28,13.32,1194.3,9.79,1191.63,10.86z"/>
	<path fill="#1A1A1A" d="M1642.65,1871.88c4.37,2.62,2.96,8.15,6.02,11.49C1644.89,1881.45,1637.34,1875.81,1642.65,1871.88z"/>
	<path fill="#1A1A1A" d="M1668.43,2166.36c-5.44-6.99,5.41-4.73,9.03-4.16c-1.54,1.97-3.77,1.25-5.54,1.94
		C1670.61,2164.65,1670.94,2167.55,1668.43,2166.36z"/>
	<path fill="#1A1A1A" d="M1226.87,5333.87c3.4,8.19,2.87,9.54-3.39,10.22C1223.25,5340.12,1228.83,5338.08,1226.87,5333.87z"/>
	<path fill="#1A1A1A" d="M906.13,2198.07c4.91-5.55,6.76,0.94,4.86,4.9C906.15,2203.75,907.64,2199.6,906.13,2198.07z"/>
	<path fill="#1A1A1A" d="M1717.43,2051.14c-5.17-2.22-7.43,3.56-12.02,1.78C1710.74,2048.44,1714.34,2047.47,1717.43,2051.14z"/>
	<path fill="#1A1A1A" d="M1575.17,2489.16c-3.38-3.19-4.47-6.05-2.48-9.7C1573.35,2482.43,1577.51,2484.51,1575.17,2489.16z"/>
	<path fill="#1A1A1A" d="M2217.33,1967.61c-5.93-0.44,4.52-7.17,6.93-10.31C2224.17,1963.16,2221.05,1965.59,2217.33,1967.61z"/>
	<path fill="#1A1A1A" d="M1185.95,625.94c-3.52,4.52-6.6,5.54-11.13,5.08C1177.19,626.97,1180.15,625.63,1185.95,625.94z"/>
	<path fill="#1A1A1A" d="M902.05,2194.35c-2.42-0.35-1.73,1.19-1.01,2.05c3.74,12.33-13.23-8.38,1.14-2.06L902.05,2194.35z"/>
	<path fill="#1A1A1A" d="M1594.89,2245.24c5.49,1.87,6.78,11.54-0.22,6.54C1593.27,2249.75,1596.18,2246.49,1594.89,2245.24z"/>
	<path fill="#1A1A1A" d="M1599.34,1792.8c5.36,16.57-11.25,8.45-1.92,5.41c3.19-0.79,1.37-3.74,2.04-5.65L1599.34,1792.8z"/>
	<path fill="#1A1A1A" d="M1928.69,2390.53c0.94-3.75,6.05-2.51,3.92-8.93C1936.69,2388.39,1936.69,2388.39,1928.69,2390.53z"/>
	<path fill="#1A1A1A" d="M1557.21,828.58c3.35-4.29,7.5-3.29,13.04-2.37C1565.26,828.41,1560.84,826.48,1557.21,828.58z"/>
	<path fill="#1A1A1A" d="M1819.16,859.87c4.14,1.3,5.57,4.23,7.93,6.88C1820.7,866.2,1820.58,866.1,1819.16,859.87z"/>
	<path fill="#1A1A1A" d="M1239.3,921.17c-5.22,1.85-5.81-5.72-1.43-8.87C1240.65,914.87,1237.4,919.98,1239.3,921.17z"/>
	<path fill="#1A1A1A" d="M983.47,3615.49c0.17,1.16,4.39,1.64,5.96,2.55C988.6,3624.61,982.61,3620.17,983.47,3615.49z"/>
	<path fill="#1A1A1A" d="M493.83,1783.69c1.88,3.95,1.35,6.54-0.83,9.03C491.62,1788.66,491.62,1788.66,493.83,1783.69z"/>
	<path fill="#1A1A1A" d="M1474.63,856.81c-3.68,4.96-5.79-0.5-8.44-0.37C1468.69,855.92,1471.12,855.1,1474.63,856.81z"/>
	<path fill="#1A1A1A" d="M1642.65,1871.88c-3.51,5.12-8.22-12.03-1.67-5.41C1641.95,1868.13,1643.09,1869.78,1642.65,1871.88z"/>
	<path fill="#1A1A1A" d="M1688.06,2017.94c2.94,3.11,3.36,6,6.49,6.21C1689.52,2023.84,1689.52,2023.84,1688.06,2017.94z"/>
	<path fill="#1A1A1A" d="M938.82,1648.57c-2.69-3.55-0.09-7.41-0.61-11.08C938.41,1641.18,938.62,1644.88,938.82,1648.57z"/>
	<path fill="#1A1A1A" d="M904.27,2210.74c-3.9-1.17-3.13,4.79-7.12,4.32c-0.46-5.75,10.42-12.13,7.11-4.08L904.27,2210.74z"/>
	<path fill="#1A1A1A" d="M1603.46,2187.48c-1.79-2.79-4.77-5.22,0.55-7.66C1604.78,2182.72,1606.66,2185.06,1603.46,2187.48z"/>
	<path fill="#1A1A1A" d="M1549.35,2593.89c-1.46,4.93-1.46,4.93-6.42,4.22C1543,2593.86,1547.16,2595.27,1549.35,2593.89z"/>
	<path fill="#1A1A1A" d="M1797.61,2205.29c0.6-3.84-2.47-7.71,0.04-11.52C1797.73,2197.67,1800.07,2201.4,1797.61,2205.29z"/>
	<path fill="#1A1A1A" d="M1918.69,2391.13c0.61,15.12-7.33,1.65,0.35,0.32L1918.69,2391.13z"/>
	<path fill="#1A1A1A" d="M1495.71,2500.16c1.64,3.03,2.93,5.42,4.22,7.8C1496.84,2506.78,1494.81,2505.06,1495.71,2500.16z"/>
	<path fill="#1A1A1A" d="M1906.77,4257.3c-2.51,1.77,0.89,5.33-2.77,7.25C1901.14,4260.64,1902.13,4252.17,1906.77,4257.3z"/>
	<path fill="#1A1A1A" d="M1683.88,2030.08c-1.55,1.23-0.99,4.56-4.02,4.8C1678.82,2031.31,1680.84,2030.31,1683.88,2030.08z"/>
	<path fill="#1A1A1A" d="M1505.89,807.27c0.92-2.92,0.55-6.4,4.05-9.4C1509.98,802.28,1508.24,804.93,1505.89,807.27z"/>
	<path fill="#1A1A1A" d="M896.73,340.63c1.94,4.14,1.94,4.14-2.75,7.23C892.19,344.22,894.83,342.8,896.73,340.63z"/>
	<path fill="#1A1A1A" d="M1494.08,848.45c-2.36,7.98-12.05-2.79-3.14-0.98C1491.67,847.83,1493.61,850.06,1494.08,848.45z"/>
	<path fill="#1A1A1A" d="M1518.7,1981.32c2.19,3.45,2.56,5.33-0.34,6.67C1515.93,1986.12,1517.37,1984.45,1518.7,1981.32z"/>
	<path fill="#1A1A1A" d="M1913.84,4491.72c4.35,3.83,4.35,3.83,0.2,5.74C1912.05,4495.62,1912.37,4493.72,1913.84,4491.72z"/>
	<path fill="#1A1A1A" d="M1289.83,160.58c-2.5,0.58-4.8,1.12-8.75,2.04C1284.55,158.84,1287.25,160.69,1289.83,160.58z"/>
	<path fill="#1A1A1A" d="M1945.76,2395.87c-0.81,1.66-3.41,2.29-3.48-0.37C1942.2,2393.12,1946.47,2392.72,1945.76,2395.87z"/>
	<path fill="#1A1A1A" d="M1441,2448.11c-0.92,2.79-2.71,2.83-5.55,1.44C1437.1,2447.7,1438.49,2446.54,1441,2448.11z"/>
	<path fill="#1A1A1A" d="M1733.2,2187.77c-7.97,8.68-9.52-4.49,0.25,0.29L1733.2,2187.77z"/>
	<path fill="#1A1A1A" d="M1517.44,855.61c0.43-1.74-1.29-4.23,1.91-5.08C1520.64,852.94,1518,853.91,1517.44,855.61z"/>
	<path fill="#1A1A1A" d="M1624.32,1837.97c-2.97-3.17-5.21-5.19-1.01-7.98C1625.22,1832.21,1625.1,1834.45,1624.32,1837.97z"/>
	<path fill="#1A1A1A" d="M1794.5,2182.41c3.9,2.57,4.46,4.57,2.81,6.87C1794.56,2188.02,1795.57,2185.88,1794.5,2182.41z"/>
	<path fill="#1A1A1A" d="M1538.51,2592.85c3.55,3.22,2.85,5.62-0.84,7.92C1537.93,2598.35,1538.19,2595.94,1538.51,2592.85z"/>
	<path fill="#1A1A1A" d="M1595.7,2490.73c0.77-3.59-1.57-6.65-2.94-11.75c5.24,4.45,4.07,8.14,2.95,11.82L1595.7,2490.73z"/>
	<path fill="#1A1A1A" d="M1056.35,441.9c1.59-1.52,3.17-3.03,4.8-4.59C1064.63,440.17,1057.3,443.72,1056.35,441.9z"/>
	<path fill="#1A1A1A" d="M1601.75,2480.81c10.09-0.86,5.4,8.21-0.01-0.08L1601.75,2480.81z"/>
	<path fill="#1A1A1A" d="M1672.93,3871.61c-1.14-2.14,0.1-3.98-1.8-4.96C1671.63,3862.7,1676.33,3868.43,1672.93,3871.61z"/>
	<path fill="#1A1A1A" d="M1536.53,2129.87c3.87-5.64,5.69-2.56,3.28,2.79C1538,2132.86,1537.5,2129.58,1536.53,2129.87z"/>
	<path fill="#1A1A1A" d="M956.62,1585.75c-7.99-5.97,4.75-8.88-0.27,0.23L956.62,1585.75z"/>
	<path fill="#1A1A1A" d="M1601.74,2480.73c0.76-4.06-2.58-8.06-0.19-12.15c4.39,3.98,1.41,7.96,0.2,12.23L1601.74,2480.73z"/>
	<path fill="#1A1A1A" d="M1696.06,2151.3c-2.25,3.12-8.48,0.38-3.41-1.36C1693.77,2150,1695.45,2149.55,1696.06,2151.3z"/>
	<path fill="#1A1A1A" d="M1236.91,452.41c3.01-1.26,5.05-0.64,8.87-0.76C1242.38,454.95,1239.63,452.79,1236.91,452.41z"/>
	<path fill="#1A1A1A" d="M1494.24,848.68c2.05-2.14,4.49-1.66,6.95-1.05c-2.36,2.92-1.41,5.35-7.11,0.82L1494.24,848.68z"/>
	<path fill="#1A1A1A" d="M1574.49,363.49c1.94,1.27,3.09,2.96,3.35,5.7c-3.91,0.73-8.16-6.27-3.11-5.54L1574.49,363.49z"/>
	<path fill="#1A1A1A" d="M1672.31,1842.28c-3.72-0.63-3.98-2.57-5.14-3.64C1672.05,1834.34,1670.38,1839.72,1672.31,1842.28z"/>
	<path fill="#1A1A1A" d="M1906.6,4257.56c4.28-3.91,5.04,3.38,3.31,6.82c-1.14-2.56-2.14-4.82-3.14-7.08
		C1906.77,4257.3,1906.6,4257.56,1906.6,4257.56z"/>
	<path fill="#1A1A1A" d="M887.65,2247.32c4.82,0.59,3.46,3.31,3.13,8.01C889.23,2251.35,888.44,2249.34,887.65,2247.32z"/>
	<path fill="#1A1A1A" d="M1741.96,1933.86c2.72,2.99,3.52,4.75,0.19,5.93C1740.34,1938.13,1740.83,1936.45,1741.96,1933.86z"/>
	<path fill="#1A1A1A" d="M1325.81,347.72c-4.02-0.79-1.98-3.59-2.94-6.31C1325.04,343.65,1326.02,345.27,1325.81,347.72z"/>
	<path fill="#1A1A1A" d="M1502.25,772.91c3.06-1.53,6.22-1.51,11.74-0.65c-5.46,1.46-8.66,2.09-11.97,0.42L1502.25,772.91z"/>
	<path fill="#1A1A1A" d="M933.6,2345.4c1.3,2.93,4.03,3.12,3.81,5.94C933.71,2353.51,932.54,2348.9,933.6,2345.4z"/>
	<path fill="#1A1A1A" d="M1713.96,5172.25c-2.53-1.55-3.63-3.31-2.36-6.3C1712.1,5168.01,1714.72,5168.96,1713.96,5172.25z"/>
	<path fill="#1A1A1A" d="M1398.2,36.35c2.59-1.39,4.14,0.63,6.76,1.59C1401.14,38.97,1401.14,38.97,1398.2,36.35z"/>
	<path fill="#1A1A1A" d="M1559.18,735.42c3.76,0.56,3.32,3.1,4.91,5.47C1560.59,740.06,1559.09,738.85,1559.18,735.42z"/>
	<path fill="#1A1A1A" d="M1237.82,5320.2c-3.12-5.02-0.46-5.73,2.23-6.72C1242.3,5316.83,1238.93,5317.6,1237.82,5320.2z"/>
	<path fill="#1A1A1A" d="M1938,2398.51c-1.8,3.16-3.76,3.39-6.41,2.14C1932.95,2397.9,1934.9,2397.3,1938,2398.51z"/>
	<path fill="#1A1A1A" d="M904.25,2210.98c0.31-4.62,8.78-5.07,4.65-0.6C907.76,2211.25,905.22,2210.23,904.25,2210.98z"/>
	<path fill="#1A1A1A" d="M991.92,1775.76c1.76,2.18,3.51,4.37,5.66,7.04C978.41,1783.45,992.87,1762.23,991.92,1775.76z"/>
	<path fill="#1A1A1A" d="M991.92,1775.76c0.55-1.35,0.07-3.62,1.5-4.28C999.38,1765.53,997.33,1782.9,991.92,1775.76z"/>
	<path fill="#1A1A1A" d="M1410.96,1347.71c8.82,7.16,14.71,15.96,19.93,26.76C1422.98,1374.2,1407.74,1353.65,1410.96,1347.71z"/>
	<path fill="#1A1A1A" d="M1473.21,1591.28c-3.03,11.26-1.76,21.31-7.23,30.8C1465.01,1614.71,1468.56,1598.59,1473.21,1591.28z"/>
	<path fill="#1A1A1A" d="M1447.38,1421.96c1.67-0.93,4.96-5.61,5.68-3.07C1458.51,1428.74,1448.39,1435.25,1447.38,1421.96z"/>
	<path fill="#1A1A1A" d="M1363.05,1195.03c1.7-0.34,3.24-0.66,5.7-1.15c-1.96,4.17-0.84,8.46-3.96,12.99
		C1362.7,1202.55,1362.38,1199.04,1363.05,1195.03z"/>
	<path fill="#1A1A1A" d="M1393.58,1348.07c4.88,4.87,9.3,9.99,9.86,17.29C1399.51,1359.95,1395.52,1354.58,1393.58,1348.07z"/>
	<path fill="#1A1A1A" d="M1403.3,1333.81c-3.43-0.42-7.27-0.64-5.98-5.95C1400.66,1328.68,1402.59,1330.55,1403.3,1333.81z"/>
	<path fill="#1A1A1A" d="M1465.65,1491.54c-4.01-0.88-2.05-9.17-0.18-3.43C1466.11,1489.15,1466.92,1490.3,1465.65,1491.54z"/>
	<path fill="#1A1A1A" d="M1045.45,1519.05c1.3,11.37,6.55,21.69,6.87,34.14c-6.35-6.24-3.13-14.07-8.8-18.86
		C1038.72,1530.08,1045.96,1524.38,1045.45,1519.05z"/>
	<path fill="#1A1A1A" d="M1100.44,1256.81c3.8-12.65,11.93-22.48,19.05-33.42C1121.5,1235.88,1105.61,1245.67,1100.44,1256.81z"/>
	<path fill="#1A1A1A" d="M1148.93,1216.9c-1.28,7.33-4.03,12.44-8.67,16.48C1141.22,1226.1,1141.76,1225.15,1148.93,1216.9z"/>
	<path fill="#1A1A1A" d="M1151.34,1202c-1.36,5.46-4.2,5.88-6.32,1.31c-1.29-0.51-3.36,0.06-3.96-2.56
		C1145.03,1197.99,1147.94,1201.96,1151.34,1202z"/>
	<path fill="#1A1A1A" d="M1021.93,1425.88c0.91,3.53,0.74,7-1.6,10.48C1017.79,1432.28,1021.47,1429.34,1021.93,1425.88z"/>
	<path fill="#1A1A1A" d="M1688.7,1757.57c2.03-8.3,8.69-4.13,14.25-2.86C1698.6,1758.61,1692.67,1754.04,1688.7,1757.57z"/>
	<path fill="#1A1A1A" d="M1680.67,1755.35c3.53-2.44,5.95-0.12,8.42,1.96C1685.07,1759.96,1685.02,1759.95,1680.67,1755.35z"/>
</g>
</svg>
