<?xml version="1.0" encoding="utf-8"?>
<!-- Generator: Adobe Illustrator 24.0.2, SVG Export Plug-In . SVG Version: 6.00 Build 0)  -->
<svg version="1.1" id="Layer_1" xmlns="http://www.w3.org/2000/svg" xmlns:xlink="http://www.w3.org/1999/xlink" x="0px" y="0px"
	 viewBox="0 0 310 445.33" style="enable-background:new 0 0 310 445.33;" xml:space="preserve">
<style type="text/css">
	.st0{fill:#1A1A1A;}
</style>
<g>
	<g>
		<path d="M262.57,109.42c0.01,1.07-0.03,2.13,0.05,3.2c0.02,0.29-0.21,0.62,0.25,0.72c0.31,0.07,0.68,0.11,0.86-0.23
			c0.2-0.38,0.49-0.58,0.89-0.67c0.36,0.13,0.47,0.4,0.44,0.75c-0.11,1.02,0.39,1.91,0.6,2.86c0.15,0.72,0.7,0.89,1.16,0.85
			c0.94-0.07,1.23,0.57,1.5,1.19c0.62,1.44,0.51,3.03,0.79,4.55c0.08,0.42,0.19,0.84,0.28,1.26c0.47,2.22,0.74,4.51,1.51,6.61
			c0.54,1.48,0.73,3.11,1.59,4.48c0.12,0.19,0.25,0.39,0.25,0.65c0.01,1.65,0.62,3.2,0.86,4.79c0.3,2,0.59,4.01,0.79,6.04
			c0.11,1.07,0.15,2.16,0.33,3.23c0.21,1.29,0.47,2.56,0.42,3.87c-0.06,1.56,0.12,3.08,0.74,4.51c0.43,1,0.12,2.02,0.23,3.03
			c0.02,0.19,0.03,0.38,0.06,0.78c0.25-0.7,0.24-1.29,0.77-1.63c0.16,0.27,0.38,0.49,0.36,0.83c-0.04,0.78,0.25,1.53,0.6,2.13
			c0.72,1.19,0.66,2.44,0.58,3.69c-0.1,1.59,0,3.16,0.1,4.74c0.07,1.13,0.1,1.12,1.22,0.83c0.45,0.73,0.28,1.52,0.22,2.29
			c-0.12,1.31,0.25,2.63,0.01,3.91c-0.29,1.56-0.4,3.14-0.73,4.7c-0.5,2.36-1.95,4.43-2.01,6.88c-0.04,1.67-0.51,3.27-0.55,4.96
			c-0.03,1.22-0.48,2.51-0.72,3.77c-0.35,1.88-0.69,3.77-1.09,5.64c-0.52,2.45-0.99,4.91-1.79,7.29c-0.26,0.76-0.31,1.53-0.51,2.29
			c-0.55,2.09-1.32,4.1-2.21,6.07c-0.36,0.8-0.47,1.65-0.55,2.51c-0.21,2.33-0.31,4.68-0.87,6.96c-0.51,2.06-1.03,4.12-1.34,6.23
			c-0.08,0.53-0.34,1.07-0.19,1.64c0.37-0.04,0.14-0.37,0.24-0.4c0.2-0.11,0.25-0.08,0.23,0.04c-0.38,2.16-0.15,4.34-0.23,6.51
			c-0.08,1.96-0.15,3.92-0.27,5.88c-0.08,1.32-0.44,2.68,0.02,4.09c1.11-1.53,1.02-3.43,1.75-4.98c1.24,0.15,1.53,0.4,1.61,1.48
			c0.11,1.48,0.24,2.96,0.24,4.44c-0.01,2.84,0.22,5.66,0.55,8.47c0.04,0.35-0.19,0.68,0.01,1c0.14-0.08,0.01,0.12,0.08,0.06
			c0.88-0.69,1.68-0.33,2.11,0.42c0.74,1.28,1.14,2.74,1.32,4.21c0.2,1.57,0.64,3.09,1.08,4.6c0.12,0.41,0.22,0.88,0.23,1.26
			c0.04,1.54,0.36,3.05,0.51,4.57c0.15,1.47-0.04,3,0.26,4.43c0.36,1.72,0.63,3.45,0.93,5.32c0.14-0.73,0.27-1.33,0.37-1.94
			c0.06-0.36,0.21-0.68,0.58-0.58c0.29,0.08,0.67,0.21,0.63,0.72c-0.07,0.88-0.07,1.76-0.07,2.65c-0.01,1.69-0.14,3.38,0.29,5.05
			c0.06,0.22,0.01,0.46,0.01,0.71c0.55-0.18,0.43-0.67,0.43-0.95c-0.01-1.19,0.55-2.27,0.56-3.45c0.01-0.56,0.49-0.79,0.97-0.83
			c0.49-0.04,0.75,0.33,0.87,0.76c0.06,0.22,0.12,0.51,0.03,0.71c-0.62,1.34-0.28,2.76-0.35,4.14c-0.07,1.29,0.05,2.59,0.04,3.87
			c-0.01,1.15,0.09,2.23,0.27,3.35c0.11,0.72-0.18,1.5,0,2.28c0.14,0.59,0.18,1.19,0.62,1.91c0.13-1.07,0.91-0.86,1.41-0.99
			c0.26-0.07,0.51,0.36,0.71,0.73c0.64,1.17,0.65,2.48,1.04,3.66c0.81,2.47,1.22,5.1,2.64,7.35c0.06,0.09,0.07,0.22,0.1,0.33
			c0.22,0.97,0.71,1.63,2,1.57c-0.55,1.29,0.19,2.48-0.04,3.75c-0.23,1.24,0.54,2.26,1.16,3.23c0.96,1.5,2.22,2.77,3.27,4.21
			c0.69,0.94,1.66,1.67,2.44,2.55c0.86,0.98,0.7,1.71-0.46,2.45c-0.1,0.06-0.21,0.11-0.34,0.17c0.41,1.21,1.57,1.69,2.41,2.49
			c0.05,0.05,0.16,0.04,0.22,0.08c0.76,0.53,1.46,1.08,0.92,2.17c-0.08,0.16,0.25,0.31,0.12,0.61c-1.11,0.28-2.23,0.19-3.5-0.49
			c0.75,1.8,1.63,3.3,2.5,4.81c-0.05-1.05-0.68-1.87-1.06-2.81c0.35-0.49,0.97-0.41,1.5-0.75c0.63,1.13,1.02,2.33,1.35,3.54
			c0.1,0.36,0.02,0.8,0.19,1.1c0.52,0.87,0.18,1.39-0.55,1.76c0.2,1.05,0.73,1.94,0.86,2.96c0.03,0.26,0.19,0.54-0.01,0.75
			c-0.98,1.03-0.17,2.08,0.03,3.06c0.35,1.7,0.4,3.44,0.9,5.11c0.15,0.51-0.49,0.75-0.48,1.29c0.05,1.66,0.08,3.31,0.36,4.96
			c0.37,2.2,1.28,4.21,2,6.28c0.63,1.81,1.51,3.49,2.45,5.17c0.62,1.11,1.4,2,2.24,2.89c0.46,0.49,0.19,1.88-0.36,2.24
			c-0.36,0.23-0.65,0.04-0.84-0.13c-0.89-0.78-2.12-1.14-2.74-2.3c-0.28-0.53-1.1-0.57-1.45-1.13c-0.44,0.29-0.7,0.84-1.33,0.75
			c-0.13,3.33,0.81,6.41,2.52,9.29c-0.59,0.28-1.04,0.15-1.32,0.65c-0.19,0.34-0.72,0.07-1.04-0.22c-0.96-0.88-1.79-1.85-2.46-3.13
			c-0.32,1.12-0.54,2.19-1.03,3.02c-0.86,1.48-1.3,3.13-2.02,4.66c-0.66,1.39-1.44,2.74-2.01,4.18c-0.38,0.97-0.92,1.94-1.91,2.52
			c-0.39,0.23-0.59,0.66-0.64,1.09c-0.06,0.54-0.21,0.99-0.66,1.32c-0.06,0.04-0.14,0.07-0.2,0.1c0.61,1.05-0.43,1.74-0.55,2.61
			c-0.18,1.22-0.79,2.27-1.17,3.4c-0.54,1.59-1.41,3.04-2.02,4.58c-1.86,0.23-1.89,0.21-1.74-1.21c-2.32,3.71-1.7,7.67-2.02,11.51
			c-0.39-0.3-0.79,0.01-1.22,0.46c-0.19-0.68-0.03-1.32-0.46-1.71c-0.19-0.17-0.5-0.46-0.85-0.21c-0.1-0.16-0.14,0.16,0,0.1
			c0.06-0.02,0.18,0.11,0.33,0.22c-0.6,0.2-1.05-0.15-1.61-0.09c-0.11,0.44-0.06,0.99-0.48,1.35c-0.66,0.04-0.76-0.72-1.23-0.93
			c-0.45,0.36-0.71,0.98-1.47,0.61c-0.32-0.15-0.69-0.01-0.52,0.52c-0.42-0.08-0.39-0.45-0.67-0.66c-0.66,0.59-1.52,0.07-2.28,0.31
			c0.04,0.26,0.38,0.1,0.43,0.4c-0.6,0-1.22-0.03-1.29,0.69c-0.6,0.1-0.4-0.55-0.83-0.51c-0.84,0.88-0.84,0.88-1.47,0.62
			c-0.13,0.81-1.12,0.67-1.37,1.33c-0.3-0.14-0.55-0.25-0.79-0.36c-0.67,0.48-1.11,1.09-1,2.04c0.73-0.06,1.19,1.02,2.17,0.83
			c0.09-0.02,0.33,0.34,0.35,0.54c0.05,0.38,0.24,0.66,0.47,0.92c-0.53,0.39-1.02,0.79-1.76,0.65c-0.42-0.08-0.25-0.42-0.4-0.6
			c-0.47,0.29-0.24,0.62-0.03,0.98c-1.1,0.25-2.22,0.32-3.31,0.53c-1.28,0.25-2.62,0.26-3.93,0.23c-1.26-0.03-1.82,0.07-3.17,0.47
			c-0.89,0.26-1.88,0.21-2.87,0.31c0.43,2.9-1,5.08-2.59,7.19c-0.19,0.26-0.49,0.34-0.74,0.16c-0.29-0.21-0.63-0.09-0.96-0.24
			c-0.01-0.44,0.07-0.94-0.32-1.4c-0.46,0.53-1.07,0.54-1.71,0.53c-2.74-0.07-5.43,0.34-8.14,0.65c-1.81,0.2-3.51,0.84-5.32,0.95
			c-0.11,0.01-0.24,0.05-0.34,0c-1.73-0.76-3.42,0.13-5.13,0.1c-0.96-0.02-1.9,0.31-2.87,0.22c-1.72-0.16-3.37,0.21-5.03,0.57
			c-1.89,0.4-3.75,0.99-5.76,0.85c-0.72-0.05-1.69-0.09-2.42,0.57c-0.35,0.31-0.92,0.5-1.44,0.39c-0.46-0.09-0.51,0.43-0.97,0.5
			c-0.53,0.07-0.98,0.01-1.42-0.14c-1.2-0.4-2.37-0.85-3.65-1.02c-0.95-0.13-1.85-0.6-2.79-0.84c-1.2-0.3-2.3-0.9-3.6-0.97
			c-0.48-0.03-1.13-0.18-1.67-0.46c-0.75-0.39-1.65-0.54-2.32-1.02c-0.34-0.24-0.4,0.04-0.57,0c-0.4-0.08,0.06-0.59-0.23-0.63
			c-0.96-0.16-1.65-1.09-2.74-0.89c-0.22,0.29,0.26,0.33,0.06,0.76c-0.39,0.35-1.14,0.51-1.87,0.77c0.41,0.51,1.19,0.43,1.51,1.03
			c-0.12,0.53-0.74,0.97-0.5,1.68c-0.77,0.15-1.44-0.1-2.17-0.35c-1.68-0.58-3.35-1.16-4.92-2c-1.6-0.85-3.24-1.59-4.71-2.69
			c-1.05-0.79-2.31-1.24-3.33-2.1c-0.84-0.7-1.81-1.26-2.56-2.04c-0.19-0.19-0.35-0.37-0.54-0.56c-0.54-0.52-0.9-1.3-1.13-2.04
			c-0.17-0.53-0.33-1.02-0.61-1.53c-0.42-0.77-0.88-1.53-1.17-2.41c-0.29-0.85-0.87-1.83-2.1-1.84c-0.32,0-0.31-0.44-0.52-0.57
			c-1.27-0.78-2.38-1.78-3.58-2.65c-1.04-0.76-1.75-1.85-2.73-2.67c-0.23-0.19-0.38-0.31-0.68-0.4c-0.82-0.25-1.48-0.81-2.08-1.42
			c-0.13-0.22,0.35-0.32,0.3-0.42c-0.36-0.56-0.88,0.1-1.01-0.41c-0.15-0.59-1.22-0.72-0.72-1.57c-0.83-0.41-1.29-1.21-2.06-1.7
			c0.37,0.53-0.24,1.34,0.63,1.77c0.3,0.15-0.25,0.78,0.16,1.16c-0.67,0.22-1.27,1.26-1.98,0.61c-0.47-0.42-1.9-0.24-1.22-1.52
			c-0.3-0.11-0.3,0.36-0.55,0.1c-0.37-0.38-0.77-0.74-0.74-1.33c0.01-0.16,0.09-0.32-0.16-0.3c-0.58,0.05-0.71-0.42-1.02-0.76
			c-0.58-0.63-0.82-1.31-0.71-2.17c-0.33,0.47-0.67,0.26-0.72-0.01c-0.12-0.79-1.08-1.34-0.63-2.28c0.12-0.26-0.18-0.23-0.26-0.24
			c-0.6-0.05-0.9-0.96-1.73-0.51c-0.19,0.11-0.74-0.5-0.85-1.01c0.09-0.2,0.4,0,0.46-0.26c-0.33-0.06-0.62-0.3-0.98-0.2
			c-0.98-3.17-3.45-5.82-3.21-9.46c-0.33,0.17-0.56,0.35-0.81,0.38c-0.35,0.05-0.32,0.43-0.51,0.5c-1.64-0.09-1.51-1.46-1.84-2.42
			c-0.43-1.23-0.73-2.5-1.07-3.75c-0.38-1.38-1.1-2.66-1.55-4.04c-0.15-0.46-0.5-0.93-0.77-1.35c-1.01-1.53-1.5-3.33-2.52-4.85
			c-0.27-0.41-0.19-0.92-0.44-1.39c-0.67-1.28-1.93-1.96-2.87-2.96c-0.86-0.92-1.95-1.62-2.82-2.56c-0.43-0.47-1.12-0.82-1.81-0.99
			c-0.01-0.58,0.38-1,0.24-1.56c1.6,0.14,2.7,1.32,4.19,1.43c-0.2-1.06-1.47-1.28-1.63-2.3c-0.09-0.54-0.69-0.61-0.91-1.05
			c-0.26-0.52-0.58-1.02-0.91-1.51c-0.72-1.06-1.52-2.1-1.85-3.34c-0.33-1.22-1.34-1.68-2.19-2.32c-2.21-1.66-4.68-2.86-7.29-3.75
			c-0.66-0.22-1.38-0.25-2.08-0.36c-0.93-0.15-1.47-0.64-1.42-1.29c0.07-0.91,0.72-1.59,1.58-1.58c0.67,0.01,1.32-0.01,2,0.19
			c0.74,0.21,1.49-0.17,2.26-0.23c-0.57-2.04-1.71-2.59-3.78-1.91c-0.49-0.1-0.37-0.82-0.96-0.8c0.25-0.56,0.53-0.89,1.1-0.86
			c0.85,0.04,1.33-0.59,1.87-1.1c0.72-0.67,1.11-1.57,1.61-2.6c-1.05-0.11-1.48,0.85-2.21,1.13c-0.84,0.33-1.56,1.04-2.26,1.67
			c-0.63,0.57-0.89,1.53-1.76,1.98c-0.62-0.96-0.77-1.78-0.39-2.77c0.4-1.04,0.63-2.16,0.86-3.26c0.07-0.36,0.18-0.69,0.35-0.99
			c0.47-0.85,0.42-1.18-0.43-1.69c-0.88-0.53-1.79-1-2.7-1.48c-0.47-0.25-1.72-1.25-2.17-1.65c-0.18-0.16-0.41-0.37-0.88-0.32
			c0.75-0.64,1.35-0.33,2.11,0.02c-0.41-0.92-1.1-1.43-1.6-1.89c-1.08-0.98-1.74-2.58-3.52-2.71c-0.73-0.05-0.32-0.89-0.62-1.22
			c0.49-0.76,1.54,0.15,2.09-0.6c-2.31-2.57-5.06-4.51-7.18-7.08c0.16-0.36,0.42-0.59,0.76-0.73c0.1-0.05,0.07-0.09,0.01-0.18
			c-0.84-1.28-1.96-2.29-3.03-3.37c-0.69-0.7-1.21-1.55-1.97-2.22c-0.43-0.38,0.27-1.01-0.29-1.48c1.25-0.37,2.18,0.47,3.3,0.14
			c-0.81-1.1-1.57-2.22-2.55-3.2c-1.67-1.68-3.29-3.42-4.94-5.11c-0.34-0.35-0.17-0.92-0.65-1.15c0.24-0.3,0.4,0.02,0.59-0.06
			c0.13-0.27,0.08-0.55-0.19-0.72c-0.89-0.53-1.66-1.22-2.81-1.36c-1.25-0.15-2.49-0.45-3.76-0.43c-0.31,0.01-0.67-0.12-0.9,0.18
			c-0.3,0.4-0.67,0.31-0.9,0.03c-0.2-0.25-0.4-0.68-0.07-0.96c0.32-0.27,0.19-0.7,0.44-0.95c0.36-0.35,0.55-0.87,0.18-1.14
			c-0.42-0.3-1.06-0.53-1.59-0.09c-0.34,0.28-0.75,0.43-1.13,0.63c-0.32,0.17-0.68,0.29-0.95-0.08c-0.28-0.38-0.12-0.75,0.16-1.04
			c0.49-0.52,0.99-1.02,1.5-1.52c0.34-0.34,0.64-0.68,0.67-1.29c-0.81,0-1.61-0.07-2.38,0.02c-0.5,0.06-0.9-0.04-1.32-0.26
			c-0.34-0.18-0.73-0.25-0.65-0.79c0.07-0.49,0.33-0.77,0.78-0.89c0.19-0.05,0.39-0.04,0.69-0.07c-0.36-0.52-1-0.8-0.95-1.52
			c0.01-0.11-0.56-0.17-0.56-0.57c-0.69,0.11-1.2-0.42-1.81-0.59c-1.47-0.42-3.04-0.62-4.37-1.46c-0.16-0.1-0.46,0.04-0.4-0.33
			c0.06-0.36,0.33-0.29,0.55-0.26c0.2,0.03,0.38,0.37,0.67-0.07c-0.65-0.23-1.27-0.46-1.9-0.66c-0.23-0.07-0.44-0.12-0.66-0.24
			c-0.87-0.47-1.18-0.96-1.06-1.78c0.05-0.34,0.92-1.06,1.45-1.13c1.88-0.25,3.54-1.03,5.21-1.87c0.89-0.45,1.18-1.04,1.27-1.9
			c0.03-0.33,0.1-0.66,0.14-0.95c-1.87-1.23-3.78-2.34-5.93-2.93c-0.57-0.16-0.85-0.49-0.79-0.95c0.07-0.55,0.64-0.47,1.06-0.5
			c0.13-0.01,0.27,0.07,0.42,0.04c-0.54-0.59-1.36-0.71-2.02-0.71c-1.96,0-3.97-0.47-5.86,0.52c-0.44,0.23-0.93,0.01-1.41-0.2
			c-0.05-0.69,0.46-1.25,0.45-1.92c-0.56-0.27-1.14-0.04-1.78-0.19c-0.07-0.24,0.26-0.55-0.06-0.87c-0.92,0.63-1.1-0.94-1.98-0.52
			c0.06-2.06,1.63-3.05,2.51-4.45c-1.44-0.39-2.3-1.63-3.49-2.4c-0.49-0.32-0.96-0.71-1.36-1.13c-0.56-0.57-0.42-1.02,0.31-1.34
			c0.76-0.33,1.55-0.28,2.34-0.27c0.56,0.01,1.11,0.02,1.57-0.4c0.15-0.6-0.33-0.95-0.7-1.13c-2.04-1.01-3.82-2.37-5.55-3.84
			c-0.98-0.84-1.55-1.96-2.46-2.83c-0.67-0.64-1.2-1.44-2.01-1.97c-0.27-0.18-0.63-0.41-0.49-0.94c0.53-0.06,1.09-0.43,1.72,0.06
			c-0.55-1.3-1.18-2.51-2.09-3.54c-0.58-0.65-0.91-1.45-1.4-2.14c-0.41-0.57-0.81-1.19,0.07-1.65c-0.88-2.05-2.09-3.77-3.04-5.65
			c-0.97-1.93-1.68-3.93-1.79-6.12c-0.01-0.2,0.02-0.4-0.12-0.57c-1.39-1.7-2.06-3.72-2.66-5.79c-0.6-2.05-1.35-4.06-1.87-6.14
			c-0.12-0.47-0.29-0.77,0.28-1.02c0.14-0.06,0.2-0.51,0.14-0.74c-0.69-2.63-0.97-5.31-1.04-8.02c-0.01-0.43-0.12-0.86-0.39-1.08
			c-1.21-0.99-1.33-2.47-1.72-3.8c-0.24-0.81,0.63-0.95,1.17-1.28c0.88,0.99,1.21,2.38,2.39,3.1c0.24,0.01,0.19-0.31,0.44-0.38
			c0.26,0.85,0.85,1.46,1.57,2.01c0.37-0.59-0.09-1.07-0.15-1.57c-0.14-1.17-0.67-2.28-0.32-3.52c0.09-0.33-0.24-0.72-0.38-1.07
			c-0.76-1.94-0.38-3.99-0.66-5.98c-0.34-2.41-1.32-4.44-3.16-5.99c-0.8-0.68-1.48-1.46-2.35-2.08c-1.32-0.94-1.05-1.98,0.51-2.5
			c0.11-0.04,0.25,0.02,0.34-0.23c0.02-0.19,0.17-0.48-0.17-0.73c-1.3-0.99-2.58-2.01-3.87-3c-0.22-0.16-0.46-0.33-0.69-0.43
			c-0.86-0.38-1.68-0.66-2.42-1.39c-0.77-0.76-1.95-1.15-3-1.58c-0.49-0.2-0.84-0.3-0.84-0.93c0-0.64,0.34-0.81,0.87-0.89
			c0.14-0.02,0.26-0.17,0.48-0.31c-1.49-0.47-2.93-0.79-4.43-0.82c-0.24,0-0.48,0.01-0.72,0c-1.31-0.05-1.61-0.62-1-1.94
			c-1.26-1.88-2.58-3.75-3.48-5.84c-0.5-1.15-1.01-2.32-1.29-3.56c-0.08-0.35-0.21-0.64-0.56-0.67c-0.72-0.05-0.89-0.62-1.09-1.11
			c-1.05-2.56-2.3-5-3.75-7.36c-0.62-1-1.11-2.13-1.47-3.29c-0.52-1.7-1.12-3.39-1.72-5.07c-0.61-1.75-1.48-3.4-2.21-5.1
			c-0.23-0.54-0.12-0.99,0.44-1.19c0.72-0.26,1.48-0.65,2.17,0.21c-0.23-1.14-0.58-2.26-0.66-3.41c-0.11-1.64-0.59-3.31,0.12-4.94
			c0.07-0.15,0.05-0.29-0.06-0.44c-0.16-0.2-0.19-0.51-0.09-0.69c0.93-1.66-0.16-3.23-0.2-4.85c-0.03-1.05-0.33-2.09-0.32-3.17
			c0.01-0.83,0.61-1.56,0.34-2.45c-0.06-0.21,0.49-0.51,0.94-0.42c0.43,0.09,0.82,0.23,1.11,0.69c0.21-1.73,0.43-3.29,0.57-4.86
			c0.12-1.3,0.44-2.56,0.49-3.88c0.02-0.74,0.34-1.5,0.45-2.28c0.21-1.57,0.59-3.11,0.94-4.65c0.36-1.6,0.95-1.76,2.22-0.73
			c0.72-1.44,1.56-2.84,2.13-4.35c0.54-1.44,1.29-2.76,2.03-4.06c0.66-1.16,1.08-2.41,1.66-3.59c0.31-0.62,0.2-1.46,1.08-1.83
			c0.47,0.11,0.92,0.5,1.28,1.03c0.67-1.17,1.13-2.43,2.01-3.37c0.92-0.98,1.1-1.99,0.94-3.25c-0.26-1.99,0.31-3.91,0.7-5.84
			c0.33-1.62,0.72-3.24,1.3-4.8c0.49-1.3,0.86-2.67,1.67-3.83c0.6-0.85,1.13-0.99,1.79-0.24c0.4,0.45,0.94,0.55,1.34,0.95
			c0.87,0.88,1.42,1.94,1.91,3.05c0.75,1.68,1.5,3.36,2.61,4.85c0.19,0.25,0.32,0.29,0.56,0.24c0.21-0.09,0-0.19,0.01-0.28
			c0.03-0.44,0.02-0.89,0.66-0.88c0.65,0,0.74,0.53,0.67,0.9c-0.09,0.42,0.04,0.75,0.11,1.15c1.97-0.44,3.51,0.74,5.2,1.47
			c0.66-1.13,0.82-2.39,1.21-3.56c0.16-0.48,0.19-1.11,0.84-1.14c0.56-0.03,1.09,0.12,1.48,0.68c0.68,0.97,1.45,1.88,2.48,2.53
			c0.31,0.2,0.48,0.68,0.97,0.25c0.05-0.05,0.51,0.17,0.56,0.34c0.18,0.61,0.81,0.38,1.2,0.97c0.02-0.5,0.46-0.52,0.11-1.05
			c-0.44-0.65-0.5-1.55-0.89-2.28c-0.3-0.56-0.06-0.98,0.47-1.22c0.39-0.18,0.54-0.45,0.44-0.85c-0.35-1.48-0.7-2.96-1.04-4.44
			c-0.1-0.44-0.21-0.79,0.15-1.29c0.27-0.37,0.04-1.12,0.01-1.7c-0.08-1.63-0.27-3.24-0.3-4.88c-0.01-0.58,0.16-1.09,0.34-1.6
			c0.07-0.22,0.06-0.69,0.7-0.51c0.48,0.13,0.9-0.84,0.68-1.39c-0.47-1.14-0.62-2.26,0.13-3.36c0.25,0.34,0.5,0.69,0.75,1.02
			c0.15,0.02,0.27-0.05,0.29-0.17c0.22-1.23,0.62-2.34,1.59-3.25c0.33-0.31,0.3-1.03,0.35-1.57c0.19-1.77,0.87-3.41,1.3-5.12
			c0.11-0.41,0.39-0.65,0.83-0.66c0.68,0.75,1.61,1.3,1.86,2.64c0.71-1.39,1.72-2.24,2.43-3.37c0.65-1.05,1.55-1.97,2.44-2.84
			c0.5-0.48,0.61-1.3,1.36-1.54c0.06-0.02,0.11-0.22,0.09-0.32c-0.15-1,0.4-1.69,0.94-2.46c0.98-1.42,1.62-3.05,2.26-4.64
			c0.26-0.65,0.33-1.57,0.15-2.45c0.56-0.14,0.9-0.83,1.67-0.4c0.59,0.33,0.64,1.11,1.34,1.33c0.54-1.66,0.72-3.38,0.88-5.13
			c0.31-3.44,0.53-6.9,1.16-10.31c0.32-1.71,0.71-3.4,1.45-4.99c0.49-1.06,2-1.39,2.9-0.66c0.93,0.74,1.14,1.87,1.61,2.83
			c1.09,2.21,2.18,4.41,3.57,6.45c0.53,0.78,1.03,1.57,1.52,2.37c0.21,0.35,0.51,0.57,0.85,0.78c0.78,0.48,1.42,1.16,2.28,1.62
			c0.34-0.3,0.48-0.69,0.5-1.03c1.89-0.21,3.75-0.47,5.32,0.86c0.32-0.64-0.21-0.84-0.37-1.14c-0.39-0.74,0.01-1.39,0.23-1.96
			c0.1-0.27,0.96-0.36,1.56-0.2c1.52,0.39,2.77,1.3,4.12,2.01c1,0.52,2.06,0.89,3.24,1.7C98.05,33,98,32.58,97.74,32.19
			c0.68-0.49,1.52-0.53,2.06-0.32c1.09,0.41,2.41,0.56,3.09,1.75c0.23,0.39,0.74,0.38,1.13,0.95c-0.2-0.89-0.41-1.5-0.45-2.13
			c-0.04-0.55-0.05-1.3,0.9-1.05c0.51,0.13,0.4-0.38,0.71-0.56c0.33,0.13,0.62,0.22,0.81,0.74c0.36,0.96,0.76,1.89,0.87,2.94
			c0.15,1.4,1.24,2.39,1.78,3.64c0.37,0.85,0.74,1.68,1.64,2.25c0.74,0.46,1.39,1.15,1.94,2.15c0.62-1.3,1.2-2.41,0.9-3.72
			c-0.2-0.89-0.15-1.79-0.22-2.69c-0.02-0.28,0.01-0.56-0.05-0.83c-0.26-1.25,0.14-1.99,1.34-2.2c0.18-0.03,0.32,0.36,0.41-0.16
			c0.22-1.34,0.83-2.47,1.85-3.43c0.64-0.6,1.23-0.8,2.05-0.36c0.74-1.41,1.28-2.91,2.14-4.24c0.12-0.19,0.18-0.41,0.38-0.58
			c0.77-0.67,1.32-1.4,0.79-2.54c-0.2-0.42,0.08-0.97,0-1.48c-0.06-0.35,0.32-0.66,0.56-0.7c0.32-0.05,0.8-0.14,1.03,0.22
			c0.31,0.48,0.83,0.85,0.8,1.52c-0.03,0.61,0.33,1.03,0.78,1.48c0.26-0.35,0.44-0.6,0.46-1.09c0.04-1.28,0.78-2.3,1.6-3.23
			c0.27-0.31,0.78-0.12,1.15-0.39c0.21-0.15,0.5,0.16,0.54,0.56c0.08,0.7-0.2,1.3-0.53,2.14c0.99-0.83,1.38-1.74,1.82-2.63
			c0.59-1.18,1.95-1.26,2.71-0.2c0.44-0.16,0.13-0.44,0.12-0.68c-0.01-1.47,0-2.95-0.01-4.42c-0.02-2.29-0.21-4.57-0.4-6.85
			c-0.13-1.57-0.39-3.12-0.33-4.71c0.02-0.46,0.24-0.83,0.28-1.26c0.72-0.23,1.24,0.01,1.88,0.44c1.03,0.7,2.25,1.1,3.31,1.79
			c0.45,0.3,0.89,0.59,1.31,0.93c0.4,0.33,0.84,0.89,1.53,0.49c0.07-0.04,0.27,0,0.32,0.07c0.71,0.99,2.03,1.47,2.28,2.82
			c0.01,0.07-0.01,0.13,0.06,0.2c0.9,0.92,1.5,2.01,1.96,3.2c0.64,1.64,2.17,2.45,3.43,3.48c0.68,0.56,1.35,0.33,2.16-0.46
			c0.18,0.14,0.37,0.27,0.56,0.41c0.04-0.07,0.09-0.13,0.12-0.2c0.7-1.28,0.77-1.31,2.21-0.91c0.15,0.04,0.29,0.12,0.42,0.21
			c0.58,0.4,1.37,0.4,1.93,1.05c0.3-1.07,1.12-0.98,1.77-0.73c1.1,0.43,2.13,1.05,3.22,1.61c0.01-0.02,0.09-0.13,0.17-0.25
			c0.2-0.31,0.05-0.91,0.59-0.92c0.53-0.01,0.93,0.42,1.15,0.82c0.53,0.97,1.29,1.78,1.74,2.78c0.39,0.84,1.01,1.37,1.85,1.73
			c0.5,0.21,0.99,0.47,1.42,0.84c0.74,0.64,1.85,0.51,2.59,1.23c0.27,0.26,0.6,0.57,1.05,0.82c0.47-0.91,1.11-0.66,1.82-0.34
			c1.77,0.81,3.29,1.9,4.5,3.44c0.67,0.86,1.57,1.54,2,2.74c0.55-0.68,0.89-1.17,1.79-0.86c0.98,0.33,1.12,0.18,1.05,1.46
			c-0.09,1.65,0.12,3.29,0.17,4.93c0.03,0.8,0.37,1.53,0.53,2.3c0.08,0.39,0.1,0.84,0.27,1.24c0.25,0.19,0.54,0.18,0.78,0.05
			c0.58-0.3,0.77,0.03,1.09,0.45c1.23,1.62,1.68,3.53,2.23,5.45c0.41-1.65,1.07-3.17,1.83-4.65c0.27-0.53,0.77-0.76,1.15-1.13
			c0.97-0.96,1.03-0.91,0.5-2.14c-0.45-1.06-0.05-2.42,0.83-2.91c0.49-0.27,0.84-0.17,1.13,0.29c0.5,0.81,1.23,1.44,1.63,2.36
			c0.74-0.71,0.58-1.62,0.67-2.37c0.19-1.43,0.82-2.37,2-3.13c0.49-0.31,0.63,0.21,0.95,0.15c-0.02,0.63,0.65,0.53,1.04,0.86
			c-0.05-0.59,0.03-1.25-0.2-1.77c-0.39-0.89,0.45-1.15,0.75-1.6c0.25-0.37,0.76,0.04,1.07,0.36c0.38,0.39,1.04,0.3,1.36,0.85
			c0.15-0.55,0.04-1.04-0.04-1.54c-0.33-1.93-0.6-3.87-0.98-5.79c-0.07-0.34,0.1-0.51,0.14-0.76c0.13-0.85-0.2-1.64-0.26-2.46
			c-0.06-0.79-0.53-1.67,0.61-2.26c0.38-0.2,0.63-0.5,1.05-0.28c2.29,1.16,4.68,2.23,6.42,4.16c1.38,1.53,2.76,3.06,4.13,4.59
			c0.29,0.32,0.91,0.4,0.66,1.24c-0.19,0.63,1.35,1.63,2.2,1.79c0.7,0.13,1.48,0.11,2.02,0.75c0.42,0.5,0.87,0,1.3-0.04
			c0.33-0.02,0.54-0.4,0.95-0.2c0.2-0.92,0.3-1.83,1.26-2.28c0.28-0.13,0.59-0.28,0.75-0.05c0.61,0.89,1.61,1.05,2.47,1.49
			c0.71,0.36,1.3,0.91,1.7,1.55c0.64,1.03,1.88,1.43,2.43,2.52c0.33,0.64,1.12,0.56,1.65,0.94c1.31,0.92,2.8,1.6,4.28,2.06
			c2.28,0.7,4.19,1.91,6.06,3.27c0.69,0.51,1.37,1.03,2.04,1.82c-0.18-0.79,0.06-1.33,0.63-1.48c0.66-0.17,1,0.35,1.34,0.89
			c0.66,1.04,0.87,2.3,1.67,3.27c0.79,0.97,1.7,1.84,2.58,2.7c0.66,0.64,1.11,1.4,1.67,2.09c0.68,0.86,1.49,1.67,1.61,2.85
			c0.02,0.16,0.14,0.15,0.24,0.19c2.3,1.08,3.06,3.23,3.82,5.4c0.28,0.8,0.65,1.57,0.98,2.36c0.5-0.41,0.62-1.13,1.42-1.32
			c0.84-0.2,1.21-0.1,1.36,0.77c0.24,1.4-0.12,2.75-0.27,4.12c-0.15,1.43,0.1,2.75,0.67,4.13c0.81,1.95,1.8,3.87,1.96,6.05
			c0.04,0.54,0.42,1.07,0.7,1.57c0.7,1.26,1.26,2.57,1.79,3.91c0.34,0.87,0.23,1.74,0.15,2.59c-0.16,1.93-0.37,3.86-0.93,5.67
			c0.15,0.29,0.36,0.24,0.55,0.22c1.27-0.13,1.69,0.4,1.19,1.54c-0.77,1.75-1.56,3.48-2.35,5.22c-0.41,0.91-0.91,1.79-0.6,2.86
			c0.06,0.21-0.01,0.46-0.08,0.7c-0.24,0.79-0.27,1.52,0.32,2.27c0.54,0.7,0.71,1.66,0.83,2.51c0.18,1.35,0.87,2.5,1.14,3.79
			c0.21,0.96,0.43,1.92,0.59,2.89c0.12,0.71-0.47,0.77-0.57,0.75c-0.92-0.2-1.7,0.4-2.6,0.39c-0.49-0.01-0.21-0.43-0.36-0.39
			c-1.24,0.51-0.71,1.68-1.04,2.63c0.25,0.18,0.7-0.05,0.99,0.22L262.57,109.42z"/>
		<path d="M262.59,109.45c0.43-0.3,0.94-0.37,1.42-0.55c0.46,0.86,0.5,1.71,0.02,2.62c-1.06-0.46-0.57-1.73-1.46-2.1L262.59,109.45z
			"/>
	</g>
	<g>
		<path class="st0" d="M288.73,357.9c-0.02-0.22-0.2-0.38-0.02-0.64c0.6,0.53,0.23,1.15,0.39,1.89c-0.36-0.43-0.36-0.99-0.94-0.8
			c-0.36,1.05,0.49,1.97,0.49,3.04c0,0.45,0.47,0.38,0.86,0.26c0.17,1.67-0.07,3.31,0.02,4.95c0.05,0.95-0.08,1.89,0.2,2.86
			c0.56,1.95,1.15,3.92,1.38,5.92c0.2,1.72,0.46,3.45,0.44,5.24c-0.02,1.87-0.44,3.6-0.82,5.37c-0.16,0.76-0.62,1.41-0.84,2.16
			c-0.31,1.05-0.61,2.07-1.26,3.04c-0.8,1.21-1.18,2.71-1.74,4.08c-0.33,0.81-0.93,1.48-1.16,2.33c-0.16,0.61-0.99,0.46-1.18,1.04
			c0.12,0.23,0.34,0.32,0.55,0.42c0.02,0.48-0.78,0.81-1.62,0.66c-0.19,0.84-0.7,1.54-1.06,2.29c0.22,0.22,0.36-0.1,0.56-0.02
			c0.15,0.65-0.65,0.47-0.77,0.93c0.32,0.31,0.62,0.65,0.02,1.03c-0.29-0.16,0.01-0.4-0.01-0.56c-0.52-0.17-0.81,0.13-1.09,0.38
			c-1.15,1.04-1.65,2.48-2.25,3.84c0,0-0.37,0.74-0.4,0.79c0.8,0.19,1.26-0.71,2.07-0.54c-0.73-0.71-0.39-1.17,0.18-1.6
			c0.3,0.62,1.35,0.6,1,1.81c-1.19,1.31-2.49,3.05-4.13,4.52c-0.08-0.06-0.19-0.21-0.33-0.25c-0.76-0.2-0.72-0.51-0.14-0.9
			c0.45-0.3,0.7-0.73,0.83-1.21c-0.14-0.46-0.58-0.38-0.87-0.55c0.3-0.47,0.23-0.82-0.27-1.08c-0.44,0.22-0.9,0.42-0.37,1.21
			c-0.57-0.34-1.03-0.22-1.13,0.02c-0.38,0.85-1.5,1.07-1.66,2.06c-0.01,0.08-0.05,0.21-0.07,0.21c-1-0.04-1.32,0.92-2.01,1.31
			c-0.48,0.27-0.84,0.63-1.22,0.99c-1.23,1.18-2.47,2.36-3.74,3.5c-1.01,0.91-1.89,1.94-2.71,3.01c-0.7,0.91-1.65,1.42-2.51,2.07
			c-2.05,1.54-4.35,2.69-6.53,4.04c-0.99,0.61-2.07,0.92-3.13,1.3c-0.7,0.25-1.34,0.68-2.05,0.88c-2.89,0.84-5.76,1.77-8.69,2.35
			c-1.67,0.33-3.42,0.52-5.14,0.53c-1.55,0.02-3.07,0.35-4.63,0.31c-0.49-0.01-1.02,0.01-1.47-0.08c-2.63-0.51-5.16,0.04-7.74,0.44
			c-1.2,0.19-2.42,0.58-3.71,0.33c-0.72-0.14-1.1,0.23-1.88,1.37c-0.24,0.25-0.86-0.76-1.04,0.27c-0.04,0.22-0.99,0.33-1.54,0.4
			c-0.54,0.06-0.1-0.58-0.5-0.75c-0.35,0.24,0.01,0.73-0.26,1c-0.07,0.03-0.14,0.08-0.21,0.08c-0.31,0-0.76,0.18-0.6-0.45
			c-0.18,0.06-0.31-0.34-0.48-0.08c-0.12,0.17-0.05,0.73-0.4,0.28c-0.21-0.27-0.63-0.34-0.67-0.9c-0.05-0.79,0.83-0.54,0.91-1.17
			c-1.9-0.28-3.78-0.78-5.68-0.95c-1.06-0.09-2.18,0.29-3.3,0.07c-0.17-0.03-0.41,0.33-0.61,0.51c-0.21-0.18,0-0.52-0.33-0.64
			c-0.32-0.05,0.01,0.55-0.52,0.47c-2.04-0.32-4.07-0.64-6-1.44c-1.87-0.77-3.8-1.4-5.61-2.34c-2.01-1.05-3.68-2.54-5.37-4
			c-1.76-1.52-3.69-2.85-5.31-4.55c-1.78-1.87-3.65-3.65-5.44-5.5c-0.67-0.69-1.43-1.31-1.96-2.15c-0.86-1.36-1.83-2.65-2.94-3.83
			c-0.24-0.26-0.45-0.51-0.76-0.72c-1.07-0.7-1.77-1.71-2.49-2.76c-0.65-0.96-1.3-1.94-2.02-2.86c-1.3-1.66-2.24-3.57-3.32-5.38
			c-0.8-1.33-1.62-2.66-2.35-4.04c-0.49-0.93-1-1.87-1.48-2.81c-1.06-2.1-2.44-3.99-3.64-6c-0.68-1.14-1.29-2.31-1.94-3.47
			c-1-1.78-2.15-3.5-2.94-5.38c-0.42-0.99-1.23-1.82-1.34-2.93c-0.09-0.98-1.04-1.58-1.05-2.58c-0.25-0.05-0.38,0.59-0.62,0.15
			c-0.35-0.63-0.88-0.98-1.48-1.29c-0.49-0.25-0.84-0.58-0.41-1.18c0.15-0.21,0.1-0.54-0.02-0.69c-0.67-0.77-0.98-1.78-1.59-2.55
			c-0.6-0.76-0.89-1.67-1.51-2.39c-0.62-0.72-0.13-1.47,0.06-2.18c-0.31-0.35-0.87,0.33-1.09-0.32c-0.1-0.3-0.14-0.52,0.29-0.8
			c-0.63-0.02-1.21,0.04-1.41-0.6c0.12-0.36,0.65-0.27,0.78-0.65c-0.19-1.14-0.96-1.84-1.74-2.61c-0.41-0.41-0.8-0.56-1.29-0.68
			c-0.49-0.11-0.28-0.51-0.29-0.81c-0.64,0.09-1.14-0.33-1.1-0.89c0.02-0.28-0.3-0.36-0.43-0.56c-0.67,0.46-0.8-0.38-1.21-0.41
			c-0.12-0.39,0.14-0.5,0.28-0.68c0.13-0.17,0.13-0.36,0.08-0.57c-0.34-0.38-0.64,0.05-0.95,0.06c-0.56-0.96-1.11-1.9-1.75-2.99
			c0.49,0.32,0.83,0.59,1.26-0.03c-0.99-0.56-0.84-1.75-1.4-2.62c-0.6-0.93-1.43-1.81-1.31-3.14c-0.21-0.15-0.77-0.04-0.79-0.44
			c-0.02-0.33,0-0.61-0.31-0.85c0.25-0.34,0.78-0.39,0.87-0.86c-0.23-0.55-0.64,0.13-0.96-0.19c0.14-0.12,0.29-0.25,0.43-0.37
			c-0.23-0.9-0.69-1.68-1.2-2.44c-0.2-0.29-0.27-0.68-0.72-0.69c-0.35-0.01-0.31-0.27-0.35-0.51c-0.1-0.69-0.5-1.05-1.18-1.21
			c-0.41-0.09-0.59-0.98-0.34-1.59c-0.42-0.04-0.82-0.13-1.19-0.31c-0.61-0.29-0.33-0.6,0-0.91c-1.55-0.5-2.65-3.45-1.87-4.87
			c-0.17-0.47-0.68-0.48-1.06-0.76c0.01-0.3,0.03-0.64,0.05-0.99c-0.25-0.09-0.27,0.25-0.52,0.2c-0.44-0.58-0.71-1.25-0.83-2.06
			c-0.16-1.08-1.21-1.83-1.31-2.99c-0.01-0.08-0.2-0.24-0.26-0.22c-1.15,0.36-0.68-0.47-0.82-0.98c-0.23-0.81-0.2-1.84-1.22-2.21
			c-0.39-0.14-0.41-0.39-0.37-0.69c0.23-1.69-0.72-3.04-1.31-4.49c-0.24-0.59-0.28-1.27-0.82-1.72c-0.16-0.14-0.23-0.38-0.15-0.55
			c0.41-0.84-0.34-1.43-0.68-1.81c-0.89-1.01-1.19-2.24-1.79-3.35c-0.59-1.09-0.86-2.28-1.42-3.34c-0.17-0.33-0.15-0.67-0.37-1.05
			c6.8-1.39,13.24-3.51,18.67-8.31c0.07,0,0.36,0.26,0.57,0.06c1.08-1,2.62-1.27,3.66-2.24c0.75-0.7,1.62-1.09,2.43-1.64
			c0.57-0.38,0.73-1.25,1.67-1.22c0.35,0.01,0.28-0.46,0.13-0.82c0.47,0.09,1.02,0.44,1.12-0.32c0.03-0.21,1.07-0.21-0.21-0.67
			c0.75,0,1.4,0.4,1.43-0.46c0.44,0.14,0.44-0.35,0.71-0.49c0.96-0.49,1.04-0.81,0.54-1.96c-1.23,0.76-1.9,2.19-3.29,2.65
			c-0.08,0.33,0.27,0.41,0.26,0.68c-0.91-0.45-1.26,0.53-1.89,0.8c-0.9,0.38-1.6,1.19-2.37,1.82c-0.71,0.59-1.64,0.94-2.45,1.44
			c-0.4,0.24-0.81,0.47-1.21,0.72c-1.97,1.19-4.07,2.11-6.25,2.9c1.07-1.03,2.52-1.62,3.39-3c-2.31-0.24-4.41,0.04-6.32,1.31
			c-0.28,0.19-0.66,0.27-1,0.29c-0.38,0.03-0.77,0.15-0.97,0.39c-0.72,0.86-1.72,0.92-2.7,1.11c-0.88,0.17-1.69,0.59-2.57,0.82
			c-1.53,0.41-3.02,0.98-4.63,1.07c-0.36,0.02-0.81,0.27-1,0.27c-0.68,0.02-1.27,0.76-2,0.25c-0.3-0.21-0.69,0.04-0.87,0.21
			c-0.75,0.67-1.52,0.71-2.39,0.34c-0.07-0.03-0.24,0.15-0.38,0.25c-0.03-0.33-0.05-0.64-0.08-0.95c-0.24,0.04-0.25,0.52-0.58,0.26
			c-0.22-0.17,0.02-0.34,0.06-0.54c-0.43-0.18-0.67,0.31-1.04,0.31c-0.36-0.21-0.39-0.48-0.11-0.78c-0.68-0.54-0.26-1.82-1.5-2.05
			c-0.85-0.16-1.49-1.05-2.52-0.81c-0.09,0.02-0.26-0.18-0.35-0.3c-0.65-0.87-1.87-1.1-2.38-2.12c-0.16-0.32-0.51-0.37-0.78-0.51
			c-0.26-0.13-0.55-0.09-0.65-0.53c-0.08-0.35-0.46-0.5-0.94-0.39c-0.56,0.13-1.03-0.37-0.99-0.99c-0.26,0.1-0.5,0.19-0.75,0.28
			c-0.56-0.64-1.13-1.29-1.71-1.95c-0.87,0.33-0.87,0.33-1.02-0.3c-0.7-0.14-0.21,0.72-0.72,0.79c0.31,0.19,0.59,0.36,0.85,0.51
			c0.07,0.3-0.22,0.31-0.3,0.48c0.25,0.24,0.5-0.02,0.84-0.03c-0.17,0.56-0.07,1.14-0.53,1.7c0.6,0.1,0.81,0.61,1.14,0.94
			c0.49,0.47,1.25,0.85,1.58,1.4c0.47,0.79,1.08,1.21,1.88,1.35c0.62,0.11,0.76,0.74,1.56,0.88c-0.51,0.09-0.74,0.13-0.96,0.17
			c-0.07,0.21,0.19,0.35,0.06,0.55c-0.45,0.3-2.05,0.11-2.47-0.41c-0.39-0.47-0.91-0.74-1.37-1.05c-1.55-1.04-2.91-2.29-4.34-3.48
			c-1.24-1.04-2.56-2.01-3.77-3.11c-1.37-1.24-2.78-2.45-4.11-3.73c-0.54-0.51-1.2-0.82-1.76-1.3c-1.15-0.98-2.22-2.04-3.14-3.22
			c-1.03-1.32-2.09-2.63-3.09-3.97c-0.71-0.96-1.53-1.87-2.19-2.89c-0.87-1.34-1.74-2.69-2.72-3.94c-0.85-1.08-1.51-2.29-2.15-3.46
			c-0.43-0.8-1.49-1.29-1.35-2.4c-1.14-0.65-1.23-2.04-2.08-2.96c-0.86-0.93-1.54-2.15-2.17-3.3c-0.51-0.95-1.12-1.84-1.58-2.82
			c-0.38-0.79-1.03-1.5-1.23-2.35c-0.36-1.51-1.34-2.73-1.72-4.25c-0.28-1.13-0.85-2.24-1.31-3.35c-0.2-0.5-0.68-1.01-0.27-1.7
			c0.1-0.17-0.3-0.65-0.5-0.97c-0.68-1.09-0.52-2.41-0.99-3.58c-0.57-1.4-0.76-2.93-0.9-4.4c-0.16-1.62-0.32-3.22-0.77-4.8
			c-0.09-0.33-0.01-0.71-0.01-1.07c0.24,0.06,0.41,0.16,0.5-0.26c0.06-0.29-0.05-0.59,0.1-0.85c-0.2-0.18-0.37,0.09-0.49,0.06
			c-0.38-5.47-0.17-10.93-0.03-16.5c0.55,0.23,1.19,0.04,1.43,0.75c0.02,0.07,0.3-0.02,0.25,0.26c-0.29,1.5,0.19,2.99,0.06,4.5
			c-0.23,2.77-0.17,5.56-0.17,8.34c0,0.42-0.13,0.95,0.82,0.83c-0.72,0.55-0.91,1.09-0.57,1.72c0.07,0.13,0.21,0.35,0.3,0.34
			c1.6-0.19,0.6,1.1,1.11,1.69c0.32,0.11,0.78,0.04,1.3-0.48c-0.03,1.09,0.56,1.94-0.18,2.77c0.58,0.33,1.13,0.58,0.86,1.3
			c0.33,0.23,0.56-0.24,0.81-0.07c-0.13-1.15-0.33-2.32-0.37-3.49c-0.06-2.09-0.2-4.21,0.04-6.27c0.18-1.54-0.51-3.07,0.12-4.57
			c-0.36-2.57-0.04-5.2-0.64-7.76c-0.07-0.28-0.04-0.56-0.44-0.55c-0.1,0-0.28-0.04-0.25-0.19c0.22-0.88-0.37-1.61-0.43-2.46
			c-0.09-1.42-0.09-2.75,0.47-4.08c0.1-0.25-0.07-0.6-0.08-0.9c-0.01-0.59-0.1-1.17,0.48-1.63c0.37-0.29,0.22-0.87,0.38-1.27
			c0.78-1.88,1.42-3.89,2.66-5.49c1.11-1.42,2.06-2.98,3.4-4.23c1.22-1.15,2.24-2.46,3.17-3.86c1-1.51,2.33-2.78,3.49-4.16
			c1.04-1.23,1.83-2.59,2.71-3.9c1.73-2.57,3.79-4.79,6.16-6.78c1.61-1.35,3.34-2.49,5.27-3.3c3.38-1.42,6.87-2.43,10.59-2.4
			c0.62,0,1.11,0.34,1.72,0.4c0.89,0.09,1.75,0.17,2.65,0.16c0.52-0.01,1.08,0.17,1.63,0.23c0.84,0.1,1.68,0.03,2.52,0.15
			c0.91,0.13,1.86,0.12,2.77,0.18c0.84,0.06,0.74-0.28,0.75-0.74c-2.42-0.48-4.86-0.26-7.41-0.56c0.97-1.16,2.22-0.94,3.28-1.24
			c0.19-0.05,0.4,0.01,0.6-0.04c1.22-0.27,1.33-0.52,0.69-1.61c-0.07-0.13-0.1-0.28-0.16-0.45c0.24-0.04,0.47-0.08,0.67-0.11
			c0.29-1.03,0.95-2.02,0.84-3.04c-0.1-0.99,0.09-1.8,0.6-2.5c1.29-1.77,1.73-3.93,2.83-5.79c0.73-1.25,1.34-2.71,2.48-3.51
			c1.88-1.32,2.96-3.37,4.77-4.69c1.84-1.34,3.68-2.68,5.61-3.87c1.9-1.17,3.8-2.35,5.84-3.27c3.38-1.53,6.83-2.8,10.53-3.43
			c1.62-0.28,3.23-0.44,4.83-0.3c2.57,0.23,5.11,0.72,6.91,2.87c0.27,0.32,0.62,0.56,0.97,0.65c0.52,0.13,0.9,0.43,1.25,0.79
			c0.66-0.5,0.71-1.42,1.44-1.78c0.03-1.34,1.34-2.17,1.4-3.56c0.02-0.56,0.3-1.3,0.95-1.65c0.08-0.05,0.18,0.01,0.23-0.18
			c0.38-1.5,1.69-2.16,2.75-3.08c0.46-0.4,1.22-0.65,1.22-1.49c0-0.34,0.31-0.56,0.59-0.7c2.69-1.34,5.52-2.27,8.44-2.95
			c1.79-0.42,3.51-1.09,5.34-1.31c0.94-0.11,1.85-0.44,2.8-0.35c0.66,0.06,1.25-0.22,1.87-0.24c2.13-0.06,4.24,0.12,6.36,0.42
			c1.29,0.18,2.53,0.5,3.8,0.75c2.41,0.48,4.24,1.87,5.73,3.71c0.26,0.32,0.65,0.95,0.12,1.55c-0.19,0.22-0.48,0.59-0.14,0.96
			c0.27,0.05,0.32-0.14,0.4-0.33c0.07-0.17,0.19-0.32,0.28-0.48c0.7,0.56-0.17,1.18,0.11,1.84c0.53-0.45,1-0.9,1.09-1.92
			c0.8,1.49,1.99,1.95,3.32,2.13c0.09,0.38,0.17,0.73,0.25,1.1c0.44-0.53,0.97,0.15,1.48-0.34c0.36-0.83,0.45-2.11,1.95-2.22
			c-0.25-0.32-0.63-0.68-0.01-0.79c0.14-0.02,0.57,0.14,0.94,0.21c-0.08-0.57,0.03-0.83,0.58-1.15c1.18-0.7,2.55-1.01,3.62-1.91
			c0.35-0.29,0.9-0.48,1.39-0.13c0.32,0.22,0.55-0.02,0.71-0.17c0.46-0.42,0.95-0.66,1.63-0.65c0.08,0,0.19,0.05,0.22,0.02
			c0.88-0.99,2.03-0.41,3.06-0.55c1.06-0.14,2.1-0.09,3.16,0.05c0.66,0.09,1.4-0.14,2.1-0.23c1.24-0.16,2.5-0.34,3.67-0.73
			c0.62-0.21,1.05,0.25,1.64,0.07c0.83-0.25,1.72-0.34,2.55-0.55c0.86-0.22,1.69-0.02,2.52-0.17c0.22-0.04,0.5-0.09,0.62,0.2
			c0.07,0.18,0.19,0.28,0.35,0.25c1.96-0.47,3.59,0.98,5.49,0.9c0.27-0.01,0.55,0.06,0.83,0.07c3.32,0.13,6.48,0.99,9.58,2.13
			c2.64,0.97,5.16,2.21,7.76,3.25c0.74,0.3,1.52,0.52,2.29,0.95c-0.17-1.58,0.19-2.11,1.4-2.24c0.19-0.35-0.32-0.57-0.19-0.91
			c0.46-0.09,0.27,0.57,0.65,0.53c0.11,0.03,0.11-0.03,0.16-0.12c0.19-0.43-0.28-0.9,0.18-1.37c0.21-0.22,0.18-0.53,0.6-0.31
			c0.13,0.07,0.35,0.02,0.4-0.16c0.32-1.2,0.9-0.42,1.08-0.04c0.62,1.25,1.69,2.12,2.5,3.21c0.8,1.07,1.53,2.19,2.43,3.17
			c-0.65,0.81-0.69,1.18,0.04,1.87c0.73,0.68,0.93,1.65,1.32,2.47c0.4,0.83,0.69,1.7,1.28,2.43c0.08,0.1-0.04,0.31,0.14,0.4
			c0.5-0.17,0.26-0.72,0.17-0.79c-0.99-0.75-0.94-2-1.45-2.97c-0.21-0.4-0.29-1.02-0.6-1.24c-0.66-0.48-0.32-0.84,0-1.4
			c0.74,1.51,1.47,2.94,2.14,4.4c0.62,1.37,1.27,2.74,1.73,4.17c1.09,3.31,2.48,6.52,3.21,9.96c0.31,1.46,0.81,2.95,0.98,4.4
			c0.17,1.36,0.96,2.67,0.52,4.1c0.75,1.52,0.55,3.26,1.14,4.81c0.27,0.71,0.5,1.41,0.42,2.17c-0.11,1.11,0.39,2.16,0.34,3.24
			c-0.1,2.27,0.37,4.52,0.01,6.8c-0.12,0.75,0.2,1.56,0.16,2.37c-0.09,2.03-0.33,4.06-0.26,6.11c0.01,0.35,0.04,0.7,0.1,1.05
			c0.1,0.6,0.18,1.23-0.17,1.85c-0.52,0.93-0.29,2.06-0.63,3.06c-0.15,0.45-0.23,0.88-0.59,1.23c-0.39-1.11,0.27-2.11,0.16-3.19
			c-0.1-0.95-0.03-1.94-0.01-2.9c0.02-1.43-0.07-2.85-0.13-4.27c-0.03-0.86-0.39-1.67-0.41-2.57c-0.01-0.48-0.45-0.92,0.02-1.46
			c0.24-0.27-0.49-0.02-0.37-0.56c0.1-0.46-0.24-1.08-0.1-1.6c0.14-0.55-0.45-0.83-0.3-1.35c0.08-0.26-0.18-0.41-0.41-0.5
			c-0.62,0.88-0.61,1.63,0.06,2.48c-0.38,0.33-0.58,0.74-0.58,1.27c0.02,2.99-0.45,5.93-0.74,8.89c-0.31,3.15-0.86,6.28-1.5,9.39
			c-0.09,0.41-0.19,0.89-0.34,1.21c-1.81,3.77-2.55,7.83-3.43,11.86c-0.18,0.84-0.43,1.67-0.79,2.45c-0.66,1.45-1.15,2.98-1.68,4.47
			c-0.63,1.78-1.75,3.3-2.36,5.08c-0.33,0.98-1.22,1.76-1.03,2.93c-1.28,0.97-1.6,2.59-2.57,3.8c-0.96,1.21-2.08,2.31-2.87,3.66
			c-0.3,0.51-0.88,0.71-1.27,1.18c-2.42,2.83-4.93,5.57-8.05,7.7c-1.57,1.07-3.34,1.71-5.01,2.57c-1.72,0.9-3.53,1.57-5.39,2.13
			c-0.48,0.15-1.01,0.1-1.48,0.39c0.27-0.64,1.01-0.99,1.02-1.82c-0.67-0.56-1.54-0.42-2.24-0.26c-3.31,0.76-6.63,1.5-9.6,3.27
			c-0.86,0.52-1.05,0.83-0.63,1.32c0.19,0.22,0.35,0.49,0.79,0.28c0.58-0.28,1.22-0.08,1.84,0.02c-0.33,0.36-0.81,0.31-1.17,0.5
			c-2.51,1.34-5.26,1.97-7.99,2.63c-0.8,0.19-1.63,0.27-2.45,0.32c-1.89,0.12-3.75,0.45-5.62,0.68c-1.33,0.16-2.65,0.43-3.98,0.49
			c-0.97,0.04-1.8,0.66-2.77,0.52c-1.21-0.18-2.44-0.16-3.66-0.44c-1.45-0.34-2.93-0.51-4.41,0.14c-0.94,0.41-2.01,0.35-3.05,0.31
			c-0.55-0.02-1.11-0.09-1.65,0.24c-0.27-0.24-0.54-0.47-0.81-0.71c-0.45,0.11-0.93,0.19-1.32,0.35c-0.79,0.33-1.41,0.11-1.98-0.35
			c-0.61-0.49-0.91-0.18-1.22,0.33c-0.15-0.91-0.54-1.74-0.48-2.67c-2.4,0.91-3.48,3.09-5.39,4.71c0.19-1.12,0.18-2.02,0.52-2.76
			c0.2-0.44,0.39-1.01,0.83-1.34c0.52-0.38,0.54-0.9,0.56-1.48c0.06-1.77-0.29-3.57,0.41-5.29c0.09-0.22-0.04-0.37-0.2-0.51
			c-0.42-0.36-0.55,0.33-1.04,0.21c0.01-1.23-0.6-2.48,0.02-3.75c0.24-0.51-0.02-0.98-0.01-1.47c0.03-1.72,0.09-3.44,0.32-5.15
			c0.03-0.25-0.01-0.48-0.3-0.65c-0.31,0.33-0.43,0.67-0.49,1.19c-0.22,1.88-0.56,3.76-0.99,5.6c-0.2,0.87-0.5,1.73-0.73,2.6
			c-0.48,1.82-1,3.63-1.53,5.44c-0.41,1.4-0.85,2.79-1.26,4.18c-0.29,0.97-0.34,0.95,0,1.76c-0.23,0.14-0.53-0.66-0.7,0.05
			c-0.11,0.44-0.3,0.85-0.03,1.34c0.35,0.64-0.16,1.2-0.37,1.73c-0.51,1.3-1.4,2.43-1.76,3.8c-0.09,0.34-0.45,0.28-0.6,0.52
			c-0.23,0.39-0.4,0.82,0.01,1.11c0.36,0.25,0.59-0.07,0.84-0.38c0.66-0.82,1.26-1.67,1.76-2.62c0.12,0.42-0.38,1,0.54,1.17
			c1.27-3.11,2.78-6.15,3.35-9.77c0.72,0.92,0.51,1.72,0.3,2.3c-0.27,0.73-0.23,1.5-0.53,2.22c-0.28,0.69,0.59,0.87,0.82,1.41
			c1.11-0.76,2.27-1.33,2.86-2.7c0.55,0.72,0.54,1.59,0.41,2.25c-0.32,1.52-0.77,3.04-1.44,4.44c-0.32,0.66-0.8,1.18-0.58,2.07
			c0.22,0.13,0.68,0.01,0.91,0.45c-0.26,0.32-0.72,0.18-1,0.47c-0.09-0.49-0.48-0.67-0.71-1.02c-0.51,0.49,0.47,1.26-0.46,1.45
			c0.28,0.96,0.98,0.17,1.61,0.51c-0.86,0.22-1.07,1.05-2.01,1.09c0.55,0.58,0.83,0.05,1.12-0.03c0.77-0.22,1.35-0.78,2.36-0.5
			c0.81,0.23,1.04,0.79,1.39,1.25c0.65,0.85,1.42,1.35,2.43,1.69c0.39,0.13,0.66-0.36,1.02,0.07c-0.51,0.96-0.94,2.04-1.52,2.95
			c-0.76,1.17-1.11,2.44-1.57,3.69c-0.42,1.13-0.67,2.32-0.69,3.55c0,0.25,0.13,0.29,0.23,0.43c0.3,0.44,0.77,0.79,0.76,1.54
			c0.69-0.53,1.54-0.31,2.04-1.05c0.36-0.53,0.75,0.29,1.24,0.16c-0.73,0.27-0.56,1.06-0.98,1.56c0.29,0.31,0.58,0.63,0.9,0.97
			c-0.14,0.31-0.27,0.63-0.4,0.92c0.46,0.53,0.86,0.35,1.12-0.13c0.4-0.74,0.75-0.45,1,0.05c0.13,0.26,0.06,0.41,0.49,0.34
			c0.34-0.06,0.59,0.53,0.43,0.77c-0.89,1.36-0.68,3.04-1.37,4.44c-0.76,1.56-1.19,3.21-1.54,4.9c-0.18,0.87,0.09,1.25,0.75,1.8
			c1.61-1.82,3.35-3.54,4.41-5.66c0.51-0.19,0.4,0.41,0.81,0.34c0.15-0.42,0.32-0.92,1.01-0.87c0.59,0.8,1.12,1.67,1.67,2.54
			c0.68,1.09,0.73,2.08,0.21,3.18c-0.07,0.15-0.1,0.27-0.03,0.44c0.26,0.65,0.2,1.29-0.05,1.95c-0.31,0.82,0.01,1.69-0.04,2.53
			c-0.06,1.02-0.13,2.07-0.14,3.07c-0.01,1.19-0.1,2.46,0.72,3.68c0.65,0.97,1.32,2.05,1.68,3.38c0.32-0.8,0.86-0.6,1.31-0.42
			c0.42-0.13,0.14-0.59,0.5-0.68c0.15-0.03,0.25,0.09,0.24,0.19c-0.08,0.8,0.27,1.24,1.05,1.46c0.71,0.21,0.69,0.97,0.84,1.51
			c0.21,0.72,0.75,2.05,1.19,2.64c0.55,0.74,0.67,1.69,0.74,2.55c0.07,1.01,0.24,1.8,1.3,2.08c0.34,0.09,0.39,0.46,0.69,0.57
			c0.84-0.39,0.93-1.52,1.94-1.87c1.1,1.2,2.48,2.1,3.5,3.59c1.67,2.44,3.59,4.76,6.08,6.54c1.22,0.87,2.38,1.86,3.63,2.7
			c0.44,0.3,1.01,0.3,1.51,0.56c1.38,0.7,2.86,1.26,4.41,1.43c1.58,0.17,3.08,0.57,4.58,1.07c3.09,1.03,6.26,1.39,9.52,0.93
			c1.23-0.17,2.54-0.31,3.77,0.15c0.42,0.16,0.73-0.13,1.12-0.14c1-0.01,1.98,0.18,2.98,0.19c2.92,0.02,5.78,0.59,8.59,1.35
			c4.42,1.19,8.61,3.04,12.95,4.47c3.12,1.03,6.07,2.56,8.88,4.28c1.91,1.17,3.64,2.6,5.37,4.04c1.29,1.08,2.47,2.28,3.73,3.39
			c0.5,0.44,0.83,1.05,1.18,1.6c1.23,1.94,2.71,3.76,3.56,5.9c0.68,1.69,1.31,3.43,1.73,5.23
			C288.18,357.71,288.33,357.89,288.73,357.9z M77.87,283.52c0.86,0.85,1.94,1.31,2.8,2.09c0.06-0.2,0.12-0.38,0.18-0.6
			c0.41,0.32,0.51,1.12,1.29,0.78c0.1-0.3-0.5-0.65,0.17-0.96c0.33,0.08,0.78,0.87,1.18,0.11c-0.83-0.71-1.15-2.05-2.6-2.1
			c0.37-0.07,0.64-0.1,0.79-0.47c-0.58-0.09-0.91-0.43-1.2-0.96c-0.51-0.95-1.18-1.83-2.13-2.42c-0.25-0.15-0.58-0.33-0.61-0.53
			c-0.21-1.44-1.34-2.09-2.33-2.85c-1.86-1.42-3.76-2.79-5.47-4.41c-0.08-0.08-0.14-0.08-0.2,0.05c-0.06,0.28,0.42,0.58,0.13,0.87
			c-0.93-0.12-1.52-0.93-2.56-1.1c0.29,0.53,0.45,0.97,0.12,1.4c1.08,0.48,1.1,1.68,1.69,2.5c0.94,1.3,1.94,2.57,3.18,3.58
			c0.7,0.58,1.26,1.35,2.12,1.72c0.66,0.29,0.85,0.61,1.14,1c0.38,0.51,1.16,0.49,1.66,0.9c0.07,0.05,0.05,0.09,0.04,0.19
			c-0.07,0.72,0.55,0.18,0.75,0.41c0.17-0.44,0.38-0.34,0.51,0c0.08,0.2,0.13,0.49-0.22,0.56C78.16,283.31,77.99,283.3,77.87,283.52
			z M182.88,128.32c-1.35,1.08-1.79,2.54-2.69,3.88c-0.02-0.5-0.27-0.74-0.1-1.05c0.6-1.12,1.11-2.27,1.39-3.53
			c0.05-0.24,0.41-0.41,0.06-0.68c-0.4-0.3-0.71,0.12-0.73,0.32c-0.09,0.7-0.67,0.68-0.95,0.94c-0.48,1.22-1.01,2.42-1.45,3.65
			c-0.43,1.2-0.82,2.42-1.27,3.61c-0.48,1.27-0.32,2.68-0.83,3.99c-0.53,1.35-0.9,2.78-1.2,4.21c-0.29,1.39-0.73,2.77-0.56,4.38
			c0.71-0.52,0.47-1.53,1.18-1.9c0.17,0.04,0.25,0.28,0.47,0.25c1.15-1.98,1.53-4.25,2.44-6.33c0.62-1.42,0.99-2.92,1.12-4.55
			c0.12-1.41,1.2-2.75,1.94-4.08C182.2,130.5,182.86,129.67,182.88,128.32z M53.95,249.17c0.27-0.6-0.54-0.69-0.54-1.38
			c0-0.84-0.07-1.81-0.58-2.59c-0.55-0.84-1.11-1.66-1.15-2.72c-0.01-0.29-0.4-0.21-0.7-0.5c0.37,0.8-0.52,0.68-0.65,1.21
			c0.38,0.04,0.68-0.4,1.02-0.13c-0.89,0.83-0.79,1.85,0.26,2.6c-0.56,0.9-0.17,1.97,1.02,2.7c-0.26,0.3-0.08,0.61-0.05,0.95
			c0.05,0.62,0.59,0.95,0.64,1.58c0.06,0.89,0.85,1.53,1.11,2.41c0.11,0.39,0.85,0.39,0.98,0.03c0.2-0.55,0.82-0.89,0.85-1.56
			c-0.51-0.17-0.81,0.38-1.29,0.23c0.75-0.98-0.55-1.62-0.35-2.51c0.22-0.04,0.44-0.07,0.71-0.12c-0.28-0.22-0.52-0.4-0.76-0.59
			C54.31,248.94,54.34,249.23,53.95,249.17z M186.28,126.06c-0.42,0.9-0.78,1.74-1.19,2.56c-0.4,0.79-0.66,1.6-0.82,2.48
			c-0.09,0.53,0.1,0.61,0.44,0.75c0.39-0.28,0.63-0.55,0.69-1.06c0.09-0.74,0.36-1.44,1.2-1.72c0.52-0.17,0.66-0.6,0.7-1.19
			C185.72,127.97,187.15,126.5,186.28,126.06z M144.41,136.52c0.62,0.43-0.22,1.78,1.3,1.66c-0.58,0.63-0.17,0.99-0.04,1.47
			c0.41,1.54,1.11,2.96,1.56,4.47c0.21,0.69,0.36,1.48,1.58,1.66c-0.66-0.47-0.47-1.01-0.62-1.47c-0.28-0.84-0.91-1.51-1.07-2.38
			c-0.2-1.12-0.75-2.1-1.14-3.14C145.66,137.93,145.66,136.8,144.41,136.52z M97.4,159.58c-0.24,0.37-0.47,0.79,0.3,0.82
			c1.01,0.04,1.89,0.48,2.75,0.9c0.69,0.33,1.47-0.1,2.11,0.53c0-0.26,0.04-0.46-0.01-0.48C100.9,160.58,99.21,159.93,97.4,159.58z
			 M182.46,131.95c0.96-0.39,0.84-1.43,1.46-2.05c0.71-0.72,0.6-1.8,0.92-2.71c0-0.01-0.12-0.07-0.33-0.2
			C184.08,128.77,182.62,130.07,182.46,131.95z M140.11,281.29c0.75-0.24,0.89-1.07,1.48-1.52c-0.64,0.29-1.48-0.32-1.99,0.55
			C139.92,280.55,139.62,281.1,140.11,281.29z M190.13,125.85c0-0.43-0.41-0.68,0.02-0.99c0.09-0.07,0.17-0.55-0.21-0.68
			c-0.17-0.05-0.32-0.28-0.52-0.07c-0.17,0.18-0.5,0.32-0.24,0.65c0.24,0.32-0.32,0.66,0.05,0.96
			C189.48,126.05,189.81,125.5,190.13,125.85z"/>
		<path class="st0" d="M117.74,112.97c0.1,1.34-0.08,1.53-1.32,1.4c-0.21,0.25,0.39,0.48-0.11,0.75c-0.69-0.12-1.12,0.17-1.61,0.98
			c-0.92,1.53-1.96,3-3.32,4.25c-1.14,1.05-2.22,2.19-3.31,3.31c-0.31,0.33-0.86-0.02-1.04,0.62c-0.12,0.42-0.71,0.74-1.29,0.76
			c-0.07,0-0.12,0.19-0.19,0.28c-1.09,1.37-2.66,2.14-4.07,3.06c-1.64,1.07-3.22,2.22-4.74,3.45c-0.94,0.76-2.05,1.12-3.08,1.67
			c-1.13,0.6-2.33,1.08-3.54,1.52c-1.17,0.44-2.38,0.81-3.58,1.13c-0.59,0.16-1.18,0.27-1.76,0.47c-2.79,0.92-5.37,0.2-7.94-0.97
			c-1.81-0.83-3.4-1.9-4.79-3.31c-0.45-0.45-0.8-0.96-1.16-1.46c-0.33-0.46-0.69-0.89-1.16-1.17c-1.35-0.79-2.45-1.89-3.36-3.1
			c-1.27-1.68-2.32-3.52-3.49-5.27c-0.53-0.79-0.67-1.73-1.1-2.57c-0.5-0.97-0.95-2-1.42-2.97c-0.75-1.54-1.07-3.2-1.79-4.72
			c-0.57-1.2-0.77-2.48-0.96-3.73c-0.17-1.18-0.49-2.39-0.17-3.65c0.24-0.95,0.04-1.98-0.26-2.88c-0.15-0.46-0.18-0.9-0.18-1.31
			c0-1.4-0.36-2.75-0.51-4.13c-0.2-1.84-0.26-3.7-0.52-5.52c-0.34-2.46-0.16-4.91-0.2-7.37c-0.04-2.65-0.1-5.3,0.18-7.94
			c0.22-2.07,0.4-4.14,1.27-6.05c0.16-0.36-0.14-0.48-0.12-0.72c0.05-0.99,0.35-1.97,0.73-2.83c0.75-1.7,1.76-3.3,2.58-4.96
			c0.64-1.29,1.73-2.3,2.1-3.73c0.11-0.42,0.65-0.28,0.94-0.6c0.75-0.82,1.16-1.89,1.97-2.65c1.35-1.27,2.51-2.72,4.08-3.78
			c0.77-0.52,1.48-1.21,2.18-1.85c1.1-1.01,2.63-1.39,3.61-2.55c1.78-0.17,2.9-1.61,4.42-2.3c1.56-0.71,3.16-1.31,4.72-1.99
			c1.21-0.53,2.64-0.48,3.95-0.83c1.24-0.33,2.54-0.13,3.78-0.29c1.54-0.2,2.99-0.08,4.5,0.43c-0.06-0.09-0.12-0.17-0.22-0.32
			c0.3-0.11,0.59-0.08,0.79-0.06c0.47,1.22,1.71,1.42,2.55,2.07c2.75,2.12,5.1,4.62,7.27,7.3c0.08,0.09,0.21,0.17,0.23,0.27
			c0.35,1.63,1.78,2.56,2.51,3.93c0.34,0.65,0.67,1.3,1,1.95c0.84,1.63,1.81,3.22,2.34,4.97c0.68,2.24,1.58,4.4,2.27,6.64
			c0.4,1.31,0.8,2.74,1.6,3.95c0.36,0.55,0.25,1.3,0.65,1.86c0.41,0.57,1.2,0.93,1.02,1.83c0.73-0.04,0.65,0.65,0.82,1.02
			c0.24,0.52,0.12,1.24,0.43,1.68c0.34,0.49,0.21,1.02,0.41,1.48c0.25,0.57,0.15,1.17,0.25,1.74c0.09,0.5-0.02,1.06,0.32,1.5
			c0.14,0.19,0.17,0.36-0.01,0.52c-0.23,0.22-0.38,0.4,0.07,0.54c0.13,0.04,0.27,0.18,0.2,0.37c-0.42,1.14,0.02,2.25,0.06,3.37
			c0.06,1.58,0.29,3.12,0.53,4.66c0.17,1.09,0.47,2.19,0.42,3.28c-0.04,0.93,0.51,1.91-0.13,2.81c0.55,0.76-0.03,1.53-0.03,2.3
			c0.01,1.21-0.45,2.43-0.56,3.6c-0.16,1.6-0.68,3.08-1.01,4.61c-0.18,0.81-0.23,1.75-0.72,2.51c-0.5,0.79-0.77,1.68-1.13,2.53
			C118.41,113.26,118.08,112.86,117.74,112.97z"/>
		<path class="st0" d="M150.7,21c2.2-0.09,3.9,0.34,5.58,0.79c1.98,0.53,4,0.87,5.94,1.57c1.51,0.55,3.09,0.89,4.51,1.7
			c0.49,0.28,0.59,0.83,1,1.14c2.46,1.84,4.94,3.66,6.45,6.44c1.09,0.56,1.58,1.63,2.09,2.63c0.59,1.15,1.35,2.24,1.24,3.69
			c-0.05,0.7,0.57,1.49,0.99,1.93c1.02,1.07,1.34,2.47,2.14,3.63c0.79,1.13,1.44,2.41,1.88,3.76c0.14,0.44,0.7,0.7,0.72,1.26
			c0.01,0.17,0.18,0.25,0.36,0.15c0.38-0.21,0.47,0.06,0.57,0.33c0.76,2.08,1.65,4.12,2.26,6.24c0.46,1.6,0.99,3.2,1.47,4.79
			c0.34,1.13,0.82,2.32,1.17,3.46c0.48,1.52,1.16,3.04,1.28,4.64c0.05,0.75,0.46,1.31,0.6,2c0.32,1.58,0.54,3.18,0.88,4.76
			c0.4,1.82,0.79,3.65,0.94,5.5c0.24,3.12,0.32,6.26-0.41,9.36c-0.19,0.82-0.61,1.56-0.75,2.4c-0.09,0.49-0.37,0.93-0.94,1.11
			c-0.67,0.22-1.24,0.75-1.5,1.31c-0.67,1.44-2.06,1.99-3.2,2.84c-0.22,0.16-0.49,0.24-0.59,0.53c-0.52,1.52-2,1.98-3.2,2.57
			c-1.87,0.93-3.89,1.59-5.91,2.17c-1.18,0.34-2.32,0.78-3.51,1.1c-1.58,0.43-3.2,0.81-4.78,0.98c-1.47,0.16-3.05,0.29-4.57-0.14
			c-0.87-0.25-1.79-0.04-2.69-0.12c-1.88-0.18-3.75-0.27-5.63-0.62c-1.86-0.35-3.66-0.84-5.47-1.36c-0.97-0.28-1.81-0.8-2.69-1.25
			c-1.32-0.68-2.88-0.77-4.1-1.66c-0.49-0.36-1.07-0.48-1.56-0.8c-0.66-0.42-1.46-0.74-1.91-1.32c-0.49-0.63-1.29-0.82-1.7-1.38
			c-0.51-0.7-1.08-1.43-1.65-1.97c-1.41-1.33-1.88-3.27-3.39-4.54c-0.74-0.62-1.38-1.58-1.68-2.58c-0.13-0.43-0.93-0.34-0.6-0.96
			c-1.82-1.5-2.26-3.84-3.36-5.76c-0.9-1.58-1.71-3.27-2.48-4.95c-0.36-0.79-0.65-1.59-0.81-2.44c-0.21-1.09-0.73-2.08-1.01-3.16
			c-0.53-2.09-0.67-4.26-1.39-6.3c-0.47-1.34-0.68-2.72-0.98-4.09c-0.36-1.7-0.26-3.39-0.07-5.08c0.04-0.32,0.07-0.76,0.02-0.96
			c-0.47-1.96-0.05-3.85,0.35-5.74c0.09-0.42,0.08-0.8,0.1-1.2c0.11-2.03,0.62-4.01,0.85-6.03c1.07-1.11,0.47-2.75,1.32-4
			c0.57-0.84,1.18-1.71,1.61-2.67c0.91-2.03,2.73-3.42,3.81-5.31c0.84-1.47,2.33-2.06,3.63-2.75c2.03-1.08,4.32-1.66,6.44-2.59
			c2.32-1.03,4.76-1.57,7.2-2.12C147.42,21.53,149.31,21.45,150.7,21z"/>
		<path class="st0" d="M49.76,101.41c-0.89,0.72-0.22,1.15,0.19,1.42c1,0.66,1.71,1.57,2.48,2.45c1.27,1.44,2.12,3.18,2.93,4.85
			c1.04,2.15,2.17,4.25,3.19,6.4c1.04,2.19,2.03,4.4,2.74,6.73c0.42,1.38,1.13,2.63,1.83,3.9c1.03,1.89,2.13,3.74,3.08,5.69
			c0.78,1.6,0.91,3.44,1.98,4.89c0.17,2.44,1.06,4.8,0.8,7.29c-0.08,0.74-0.4,1.47-0.26,2.23c0.15,0.82,0.01,1.64-0.03,2.45
			c-0.07,1.48-0.3,2.95-0.91,4.32c-0.47,1.05-0.88,2.12-0.79,3.29c0.04,0.45-0.27,0.71-0.38,1.07c-0.38,1.26-0.85,2.44-2.03,3.19
			c-0.18,0.11-0.28,0.38-0.35,0.6c-0.36,1.18-1.18,2.19-1.96,2.96c-1.06,1.04-1.79,2.42-3.13,3.19c-0.61,0.35-0.89,1.05-1.32,1.56
			c-1.2,1.46-2.79,2.47-4.11,3.77c-1.43,1.41-3.08,2.7-4.83,3.8c-0.75,0.47-1.59,0.79-2.36,1.24c-0.8,0.47-1.54,1.02-2.32,1.52
			c-0.85,0.55-1.9,0.68-2.7,1.41c-0.24,0.21-0.9,0.13-1.35,0.34c-0.31,0.14-0.73,0.04-0.55,0.64c0.06,0.19-0.31,0.2-0.54,0.23
			c-1.91,0.26-3.82,0.5-5.76,0.38c-0.91-0.06-1.84,0.11-2.75,0.06c-1.22-0.07-2.34-0.56-3.47-1c-1.53-0.6-2.98-1.37-4.32-2.28
			c-0.94-0.64-1.91-1.37-2.1-2.68c-0.06-0.45-0.78-0.61-0.67-1.14c0.28-1.32-0.76-1.81-1.44-2.59c-1.04-1.21-2.08-2.42-2.72-3.94
			c-0.68-1.64-1.32-3.29-1.97-4.94c-0.13-0.34-0.51-0.64-0.18-1.06c-0.48-0.22-0.2-0.81-0.28-0.9c-0.78-0.93-0.41-2.2-1.01-3.14
			c-0.29-0.44-0.21-0.98-0.19-1.41c0.04-0.62-0.19-1.06-0.44-1.56c-1.2-2.44-1.82-5.03-2.23-7.71c-0.31-2.02-0.19-4.05-0.53-6.06
			c-0.14-0.85-0.03-1.78-0.07-2.67c-0.06-1.27-0.5-2.51-0.33-3.78c0.15-1.1,0.26-2.23,0.33-3.32c0.06-0.94,0.35-1.79,0.51-2.69
			c0.41-2.34,0.82-4.68,1.64-6.94c0.47-1.28,1.23-2.42,1.73-3.65c0.52-1.29,1.13-2.48,2-3.53c0.59-0.72,1.12-1.47,1.63-2.26
			c0.51-0.79,1.3-1.43,1.99-1.98c1.41-1.12,2.01-2.86,3.37-3.92c1.13-0.88,2-2.02,3.28-2.77c0.64-0.38,1.36-0.8,1.95-1.4
			c0.68-0.7,1.65-1.17,2.57-1.56c0.39-0.17,0.66-0.45,0.87-0.68c1.43-1.57,2.05-1.84,4.04-2.55c1.29-0.46,2.58-0.91,3.92-1.11
			c2.82-0.44,5.65-0.75,8,1.5C47.37,100.41,48.67,100.64,49.76,101.41z"/>
		<path class="st0" d="M228.02,35.88c0.41,0.56,0.93,0.8,1.8,0.67c-0.74,0.47-1.31,0.11-1.85,0.29c1.62,0.78,3.31,1.33,4.78,2.35
			c0.19,0.13,0.35,0.26,0.49,0.43c0.7,0.87,1.61,1.46,2.59,1.97c0.49,0.26,1,0.52,1.42,0.95c0.27,0.27,0.56,0.65,1.23,0.53
			c0.5-0.09,1.01,0.76,1.32,1.27c0.25,0.41,0.64,0.62,0.91,0.99c0.37,0.53,0.52,0.43,0.22,0.91c0.45,0.71,1.07,1.24,1.38,2.09
			c0.56,1.56,1.47,2.95,2.68,4.15c0.5,0.49,0.75,1.23,1.2,1.79c1.56,1.95,2.69,4.17,3.98,6.28c0.66,1.08,1.35,2.15,1.86,3.33
			c0.33,0.77,0.83,1.47,1.17,2.24c0.92,2.1,1.68,4.27,2.31,6.46c0.23,0.81,0.5,1.66,0.62,2.51c0.23,1.67,1.51,2.8,2.14,4.25
			c0.03,0.07,0.04,0.15,0.08,0.29c-0.66-0.08-0.87,0.34-0.68,0.82c0.31,0.78,0.2,1.73,0.94,2.36c0.23,0.2,0.03,0.58,0.17,1.37
			c0.08,0.45-0.52,0.8,0,1.29c0.34,0.32,0.06,0.95,0.08,1.44c0.07,2.47-0.06,4.94-0.34,7.38c-0.07,0.6-0.4,1.25-0.66,1.85
			c-0.59,1.37-0.75,2.92-1.82,4.12c-0.61,0.68-1.1,1.47-1.93,1.86c-0.86,0.41-1.23,1.25-1.74,1.92c-0.69,0.92-1.62,1.34-2.6,1.76
			c-1.39,0.6-2.59,1.57-4.03,2.09c-1.1,0.4-1.87,0.18-2.26-0.74c-1.28-0.12-2.5,0.21-3.75,0.37c-1.3,0.17-2.67,0.25-3.94,0.02
			c-1.42-0.26-2.79-0.07-4.18-0.06c-2.2,0.02-4.38-0.02-6.56-0.41c-0.59-0.1-1.22-0.1-1.81-0.12c-1.64-0.07-3.15-0.62-4.68-1.07
			c-1.08-0.32-2.05-1.03-2.88-1.77c-0.96-0.85-2.12-1.21-3.23-1.67c-1.15-0.49-1.53-0.26-2.78-1.41c-0.56-0.51-1.31-0.98-1.56-1.63
			c-0.37-0.97-1.22-1.36-1.76-2.06c-0.33-0.43-0.5-0.18-0.79-0.22c-0.79-0.11-1.56-0.63-2-1.14c-1.41-1.63-3.03-3.2-3.7-5.32
			c-0.33-1.04-1.23-1.82-1.34-2.82c-0.17-1.46-1.25-2.54-1.3-4.1c-0.02-0.84-0.64-1.8-0.93-2.75c-0.41-1.37-0.92-2.69-1.25-4.09
			c-0.32-1.35-0.68-2.72-1.14-4.03c-0.63-1.78-0.98-3.61-1.42-5.43c-0.33-1.36-0.42-2.77-0.9-4.1c-0.24-0.68,0.15-1.29,0.08-1.97
			c-0.15-1.42,0.14-2.82,0.41-4.22c0.14-0.72,0.29-1.48,0.05-2.25c-0.41-1.33,0.08-2.66,0.14-3.99c0.03-0.7-0.05-1.4,0.07-2.11
			c0.24-1.44,0.66-2.87,1.34-4.07c0.41-0.72,1.24-1.4,1.87-2.11c0.79-0.91,1.62-1.8,2.44-2.7c0.16-0.33-0.4-0.18-0.32-0.48
			c0.05-0.22,0.2-0.34,0.34-0.47c0.92-0.85,2.07-1.28,3.22-1.64c0.65-0.21,1.36-0.41,2.1-0.29c0.41,0.06,0.79,0,1.07-0.37
			c0.4-0.54,1.08-0.3,1.57-0.56c1.51-0.79,3.11-0.82,4.77-0.77c1.36,0.04,2.73-0.29,4.08-0.18c2.29,0.19,4.58,0.23,6.86,0.61
			c1.5,0.25,3.01,0.6,4.54,0.65C226.8,36.45,227.4,36.28,228.02,35.88z"/>
	</g>
</g>
</svg>
