<?xml version="1.0" encoding="utf-8"?>
<!-- Generator: Adobe Illustrator 24.0.2, SVG Export Plug-In . SVG Version: 6.00 Build 0)  -->
<svg version="1.1" id="Layer_1" xmlns="http://www.w3.org/2000/svg" xmlns:xlink="http://www.w3.org/1999/xlink" x="0px" y="0px"
	 width="541.56" height="1041.4" viewBox="0 0 541.56 1041.4" style="enable-background:new 0 0 541.56 1041.4;" xml:space="preserve">
<g>
	<path d="M120.2,926.66c1.4-0.66,1.64,0.45,2.39,1.04c0.36-3.36,3.12-5.28,4.43-8.09c2.31-4.96,4.09-10.25,7.95-14.38
		c0.52-0.56,0.98-1.48,0.94-2.21c-0.37-6.91,4.03-12.37,5.58-18.69c1.17-4.77,3.24-9.47,2.24-14.47c-0.36-1.81,1.42-2.02,1.39-3.63
		c-0.12-6.73,2.37-13.17,4.31-19.36c1.6-5.1,1.23-10.8,4.39-15.49c1.18-1.75-1.57-5.04-4.25-5.02c-3.03,0.02-5.88-0.1-7.54-3.05
		c-0.8-1.41-2.02-1.11-3.02-0.97c-7.44,1.05-14.29-1.91-21.38-3.12c-4.8-0.81-8.94-3.68-13.78-4.76c-3.2-0.71-5.26-4.17-8.55-5.4
		c-8.51-3.16-15.47-8.94-21.74-15.06c-3.11-3.04-7.96-4.3-9.58-8.83c-0.53-1.49-2.13-0.8-3.13-1.9c-2.35-2.58-4.52-5.2-6.64-8
		c-3.28-4.33-7.45-8.01-12.12-10.95c-0.71-0.44-1.73-0.79-1.78-1.51c-0.41-5.14-3.94-8.86-6.92-12.16
		c-3.14-3.49-2.64-9.23-7.63-11.2c-0.73-5.77-5.85-9.94-5.75-16.04c0.06-4.13-2.99-7.12-4.41-10.72
		c-5.04-12.74-9.14-25.8-12.15-39.09c-1.46-6.45-2.83-13.23-2.33-20.01c0.23-3.08-1.33-5.82-1.06-8.8
		c1.17-12.84,1.52-25.75,6.62-38.01c2.48-5.98,3.92-12.34,7.94-17.66c2.31-3.05,5.66-5.06,7.71-8.4c0.93-1.51,1.84-3.07,3.12-4.65
		c2.07,0.15,4.5,0.84,6.91-0.96c1.55,5.45,2.97,10.52,2.74,16.02c-0.46,10.94-0.11,22.08,1.41,32.73c1.8,12.65,0.79,25.56,4.3,38.05
		c1.26,4.48,1.53,8.99,4.71,12.88c1.34,1.63,0.91,4.62,1.65,6.87c1.42,4.33,4.66,7.59,7.01,11.38c3.68,5.95,8.05,11.36,12.59,16.64
		c7.03,8.18,14.13,16.25,22.72,22.95c5.1,3.98,9.57,8.76,15.2,12.13c3.56,2.13,7.12,4.49,11.12,5.35c1.7,0.37,1.95,3.95,3.65,1.87
		c1.35-1.65,2.61-1.64,4.2-1.64c5.67-0.02,11.34-0.19,16.99,0.04c5.58,0.23,10.7-1.09,15.57-3.65c1.74-0.92,3.88,0.02,5.65-2.07
		c1-1.19-1.15-3.78,1.25-3.06c1.56,0.47,1.89-0.87,3.06-0.77c1.83,0.16,1.85-1.45,1.84-2.81c-0.13-11.59,3.26-22.59,5.61-33.77
		c0.71-3.38,0.66-6.84,1.22-10.25c0.81-4.99,1.33-9.92,2.99-14.81c2.1-6.19,1.72-13,3.8-19.26c1.4-4.21,2.58-8.48,3.42-12.82
		c1.55-8.02,6.11-15.05,7.17-23.31c0.52-4.06,3.68-7.57,4.55-11.77c0.07-0.32,0.11-0.71,0.32-0.92c2.09-2.04-1.66-4.68,0.44-6.35
		c2.09-1.67,2.09-3.72,2.59-5.95c1.07-4.73,2.28-9.52,4.23-13.94c1.71-3.87,2.19-7.39,0.8-11.36c-0.74-2.1-0.41-3.72,1.45-5.84
		c3.42-3.91,4.53-9.36,6.24-14.24c4.64-13.25,10.56-25.94,16.11-38.79c2.64-6.13,5.18-12.3,7.71-18.48c0.3-0.74,0.36-1.63,0.33-2.44
		c-0.2-5.63,0.92-11.07,1.76-16.61c0.9-5.94-2.26-11.32-5.2-16.49c-2.91-5.11-5.93-10.08-7.82-15.83c-1.47-4.47-2.23-9.2-4.37-13.58
		c-1.05-2.15-1.37-5.34-1.35-8.16c0.03-4.18-0.94-8.44-0.71-12.45c0.36-6.43-0.89-13.26,2.72-19.33c1.44-2.41,1.31-5.49,1.65-8.05
		c0.63-4.78,3.17-8.93,3.53-13.72c0.13-1.78,1.1-3.89,2.75-4.99c0.97-0.64,1.35-1.54,1.63-2.31c2.1-5.7,4.55-11.11,8.67-15.78
		c1.4-1.58,4.39-4.72-0.65-6.27c0.5-4.29-4.88-3.53-5.93-7.07c-0.79-2.67-2.55-6.1-4.83-7.44c-4.55-2.67-4.49-7.5-6.75-11.17
		c-2.54-4.13-4.51-8.65-6.71-12.99c-6.38-12.55-8.62-26.12-11.55-39.62c-1.24-5.72-1.44-11.36-1.9-17.09
		c-0.88-10.98,3.2-20.13,9.09-28.93c6.8-10.16,14.02-20.08,19.38-31.15c0.86-1.78,1.77-3.57,2.16-5.44
		c1.66-7.97,7.09-12.28,14.25-14.71c5.72-1.95,10.73-4.84,14.84-9.25c1.92-2.05,4.19-3.28,7.03-2.86c4.48,0.66,9.25-1.62,13.55,1.41
		c0.45,0.32,1.84-0.34,2.6-0.84c5.1-3.37,9.56-7.69,15.69-10.02c-1.9-2.6-2.96-4.37-6.18-4.83c-4.46-0.63-6.87-4.88-9.09-8.41
		c-4.21-6.7-5.36-14.3-5.23-22.14c0.05-3.21,2.55-4.61,4.74-4.91c6.23-0.86,11.1-4.57,16.5-7.1c5.68-2.66,12.02-3.74,17.14-7.68
		c1.25-1.28-0.04-3.4,1.94-5.59c-6.33,0.71-11.35,3.37-17.14,5.6c-0.76-10.61,3.76-18.54,9.51-26.24c-3.59-0.9-6.33,1.4-9.37,2.14
		c-3.31,0.8-6.45,2.21-9.82,2.93c-1.23,0.27-2.14,0.75-2.97-0.41c-0.78-1.08-0.57-2.14,0.19-3.2c3.11-4.34,5.15-9.57,10.25-12.25
		c0.24-0.12,0.32-0.54,0.7-1.24c-1.85-0.32-3.53-0.47-5.2,0.03c-1.66,0.49-3.28,1.13-5.63,1.95c3.98-5.53,9.08-8.23,14.46-10.06
		c4.18-1.42,7.46-3.64,10.77-6.5c5.56-4.82,12.11-8.29,18.7-11.58c4.33-2.16,8.05-5.15,11.21-8.7c1.86-2.09,3.55-3.75,6.49-3.37
		c1.62,0.2,2.85-0.58,4.04-1.47c-0.72-2.77-1.02-5.47,1.1-8.27c6.05,7.04,14.4,9.95,23.6,12.43c-1.02-4.69-2.24-9.21,0.77-14.07
		c3.67,4.12,6.11,9.19,11.43,11.63c4.85,2.22,9.56,4.78,14.96,6.78c-1.18-6.02,0.73-10.75,5.73-15.2c-1,7.12,2.53,11.57,6.46,16.39
		c2.34-7.04,8.02-10.44,13.41-14.74c-0.43,3.92,1.55,7.19,1.08,10.64c5.53,4.25,12.13,7.09,14.46,14.37
		c3.17-0.37,5.48-3.74,9.35-3.27c-2.38,2.99-4.61,5.79-7.24,9.09c2.78,0.09,4.59-1.04,6.54-1.87c6.38-2.72,14,0.8,16.78,7.21
		c4.08,9.4,5.61,19.4,3.79,29.16c-1.74,9.37-0.95,18.97-3.58,28.2c-0.6,2.12-2.8,3.83-1.87,6.53c3.91-0.9,6.5-5.04,10.97-4.45
		c-1.95,6.93-15.01,26.44-21.06,31.35c3.35,1.18,1.47,2.58,0.13,3.7c-4.02,3.36-8.52,6.04-12.99,8.74
		c-0.71,0.43-1.45,0.72-1.96,1.41c0.68,3.33,4.49-0.63,5.11,2.71c-1.4,2.32-5.8,2.63-5.93,6.71c1.19,0.7,3.09-0.33,4.03,1.61
		c-0.48,2.51-3.09,3.19-4.83,4.17c-4.16,2.32-6.27,6.09-8.4,9.93c-0.61,1.1-0.54,2.32,0.48,3.58c3.06,3.75,5.67,7.9,10.58,9.63
		c11.46,4.03,19.95,12.7,29.83,19.21c1.8,1.19,3.67,2.2,5.59,3.04c4.53,2,4.85,2.47,3.33,7.22c2.32,2.06,4.46,4.28,6.91,6.07
		c3.6,2.64,2.29,6.92,3.77,10.29c2.53,5.77,4,11.97,5.31,18.18c0.54,2.57,3.64,3.88,4.55,6.6c2.27,6.8,5.56,13.18,8.73,19.58
		c7.39,14.93,14.02,30.19,18.01,46.36c1.75,7.07,3.09,14.34,3.75,21.73c0.69,7.8,0.84,15.56,1.01,23.35
		c0.02,0.69,0.86,1.37,1.42,2.2c-1,0.99-2.62,0.02-3.5,0.96c-3.65,3.94-8.01,6.7-13.04,8.58c-0.58,0.22-1.17,0.9-1.99,0.97
		c-4.92,0.41-9.65,1.46-14.02,3.87c-0.39,0.22-1.01,0.21-1.47,0.11c-6.11-1.36-12.08,0.86-17.51,2.43
		c-7.47,2.15-14.79,0.48-21.99,1.7c-16.15,2.73-32.4,1.47-48.61,1.98c-6.84,0.22-11.35,2.54-10.92,10.79
		c0.11,2.21-1.14,5.52-2.1,8.22c-0.71,1.99-0.3,3.71,0.43,5.68c1.47,3.95,3.41,7.76,4.18,11.96c0.09,0.46,0.25,1.08,0.59,1.3
		c4.19,2.72,5.57,7.67,8.9,11.13c6.34,6.59,10.52,14.39,11.03,23.78c0.01,0.26-0.15,0.45,0.13,0.8c5.22,6.28,3.53,14.28,5.15,21.44
		c3.05,13.49,1.99,27.33,2.19,41.05c0.13,8.63-1.5,16.98-3.34,25.31c-1.02,4.59-3.23,9.06-3.51,13.66
		c-0.72,11.96-5.91,22.8-7.81,34.36c-1.51,9.19-3.58,18.39-3.39,27.81c0.05,2.29,0.26,4.64-1.69,6.42
		c-1.47,0.39-1.05-1.54-2.63-1.66c-2.57,1.34-5.01,3-5.85,6.86c-1.75,8.09-3.85,16.17-6.19,24.06c-4.25,14.29-7.78,28.84-13.12,42.8
		c-1.7,4.45-2.37,9.15-3.37,13.74c-1.43,6.6,0.98,13.11,4.55,18.17c5.89,8.35,12.34,16.38,18.54,24.54
		c4.34,5.71,9.49,23.52,9.44,25.8c-0.13,5.38-0.59,10.75-0.66,16.13c-0.09,6.83,0.04,13.66-0.06,20.5
		c-0.04,2.87-1.18,10.38-1.64,12.47c-1.21,5.62-3.19,11.15-3.19,16.91c0,3.03-1.71,5.26-2.2,8c-1.31,7.26-1.69,14.62-2.78,21.91
		c-1.11,7.44,1.71,14.54,4.12,21.48c2.67,7.68,6.75,14.5,12.03,20.84c1.81,2.17,2.77,6.2,2.7,9.73c-0.05,2.66-0.01,5.32-0.01,8.46
		c-2.13-0.17-3.35,0.62-4.16,2.84c-0.71,1.94,0.4,6.14-4.44,5.11c-1.12-0.24-3.21,7.83-3.39,9.5c-0.28,2.57-0.29,5.57-1.27,7.62
		c-1.33,2.79-0.82,6.18-3.12,8.5c-0.22,0.23-0.52,0.56-0.5,0.82c0.66,6.83-3.33,12.38-5.22,18.49c-1.31,4.24-1.45,8.68-2.86,12.86
		c-1.87,5.5-3.52,11.04-4.75,16.75c-1.27,5.89-5.08,9.64-11.59,10.11c-1.54,0.11-3.77-0.66-4.59,2.01c-0.37,1.21-2.06,0.8-3.18,0.68
		c-3.26-0.35-6.4-0.69-9.3,1.59c-1.48,1.17-3.63,0.73-5.34,0.38c-9.07-1.88-17.99-0.96-26.91,0.95c-1.56,0.33-3.36,0.7-4.72-0.71
		c-1.81-1.88-4.35-1.6-6.1-0.95c-5.45,2.01-10.21-1.85-15.4-1.22c-1.78-2.8-4.42-2.22-7.14-2.13c-1.4,0.05-2.78-1.42-2.9-2.99
		c-0.33-4.6-1.77-9.13-1.06-13.78c0.37-2.4,0.92-4.79,2.93-6.55c0.85-0.74,1.6-1.56,2.12-2.69c2.03-4.4,5-8.01,9.6-10.2
		c-0.83-0.43-1.51-0.78-2.25-1.16c1.74-0.84,3.42-0.54,5.16-0.55c5.05-0.01,9.6-0.58,13.67-4.92c4.17-4.46,7.83-9.16,10.43-14.49
		c3.24-6.62,7.92-12.38,10.74-19.24c1.11-2.71,2.05-5.48,3.14-8.17c2.35-5.76,2.89-12.01,5.23-17.75c0.18-0.44,0.18-0.98,0.17-1.47
		c-0.18-10.12,1.63-20.16,1.06-30.3c-0.28-5.01-2.51-9.4-3.93-14.04c-2.28-7.44-4.68-14.85-7.18-22.22
		c-1.3-3.84-2.93-7.66-4.67-11.22c-3.3-6.75-6.02-13.75-8.92-20.63c-4.92-11.66-10.53-23.05-14.72-35.03c-0.94-2.69-2-5.64-4.37-7.6
		c-2.16-1.79-1.47-5.38-4.8-7.2c0.3,4.38-3.66,4.81-5.53,7.17c-3.28,4.14-27.59,18.62-29.22,17.66c-6.52,1.22-12.76,2.98-18.42,5.79
		c-4.23,2.1-8.45,1.34-12.83,1.97c-1.15,7.08-4.82,13.19-7.08,19.82c-1.05,3.09-4.74,4.95-5.39,8.42c-0.79,4.2-3.2,7.6-5.26,11.08
		c-4,6.78-6.8,14.36-11.53,20.52c-5,6.5-8.21,14.11-13.69,20.21c-0.21,0.24-0.45,0.55-0.47,0.85c-0.28,3.74-3.84,5.39-5.36,8.41
		c-1.47,2.92-4.1,5.43-5.56,8.26c-2.54,4.92-6.5,8.76-9.09,13.52c-5.4,9.98-10.27,20.21-12.78,31.36c-0.51,2.25-0.41,4.61,0.06,6.92
		c1.37,6.77,0.79,13.03-2.42,19.49c-1.68,3.39-3.78,6.71-5.52,10.88c-4.67-1.3-8.14,2.71-12.54,4.11c-3.82,1.21-7.73,2.6-11.77,1.86
		c-3.18-0.58-4.93,2.68-8.16,2.23c-2.49-0.35-5.58-1.29-7.7,1.6c-0.32,0.44-1.57,0.24-2.4,0.24c-5.86-0.03-11.3,1.81-16.59,3.99
		c-5.23,2.16-10.53,4.08-15.8,6.12c-3.02,1.17-5.56,3.18-8.87,4.19c-4.25,1.29-8.52,1.4-12.67,1.51c-7.12,0.2-14.21,0.66-21.29,1.25
		c-3.06,0.25-6.32-0.08-8.66-1.36c-3.98-2.17-7.79-1.3-11.75-1.32c-3.87-0.03-7.9,0.21-11.58-0.73c-4.7-1.21-8.32-4.18-9.68-9.37
		c-0.38-1.47-0.13-4.37-3.43-3.54c-0.45,0.11-1.4-0.93-1.38-1.84c0.14-6.19-0.9-12.56,2.97-18.16c1.59-2.3,3.83-4.03,5.83-5.79
		c2.65-2.33,5.29-4.76,7.7-7.24c3.38-3.49,6.83-4.89,11.72-4.85c5.41,0.04,10.95,1.79,16.37-0.71c1.87-0.86,3.62,1.19,5.41,1.93
		c2.51,1.04,4.44,1.65,7.7,0.93c10.39-2.31,19.73-5.89,27.24-13.7c1.37-1.42,2.85-2.9,5.57-2.92c1.78-0.01,3.88-2.08,5.67-3.33
		c7.25-5.06,14.02-10.72,19.72-17.61C117.86,931.45,120.88,930.12,120.2,926.66z M281.29,159.67c3.77,1.09,6.4,2.08,3.47,5.43
		c-1,1.14,0.04,1.96,0.4,2.61c0.98,1.77,0.72,3.24,0.15,5.13c-2.34,7.79-5.62,15.24-8.19,22.94c-1.04,3.11-3.01,5.55-5.61,7.72
		c-3.19,2.67-5.88,5.94-8.82,8.92c-0.52,0.52-0.81,1.06-0.65,1.74c0.94,3.75-1.46,6-3.69,8.34c-1.38,1.44-3.7,2.73-3.96,4.35
		c-0.75,4.65-3.24,8.41-5.48,12.21c-1.96,3.32-2.66,8.04-7.76,8.81c1.98,2.11,1.33,5.19,3.67,7.23c5.42,4.73,11.41,8.05,18.52,9.2
		c2.77,0.45,5.01,0.06,6.4-3.11c1.29-2.95,3.23-5.68,5.23-8.23c6.61-8.45,11.66-17.7,13.97-28.18c2.7-12.27,7.72-23.29,15.72-33.02
		c1.21-1.47,2.63-3.1,3.28-4.61c-0.05-1.24-0.52-1.56-1.18-1.86c-0.95-0.43-0.75-1.34-0.55-3c14.86-2.47,29.76-6.14,44.82-6.08
		c5.89-4.98-3.03-7.38-1.62-11.6c-1.64-0.57-3.44-0.44-5.22-0.96c-5.75-1.68-11.52-2.12-16.84,1.86c-1.74,1.3-4.16,0.94-6.37,1.12
		c-2.98,0.24-4.71-2.34-7.39-2.23c-3.88,0.16-6.09-2.15-8.28-5.02c-2.5-3.28-2.05-7.1-2.72-11.4
		C294.09,149.39,289.28,156.45,281.29,159.67z M433.06,334.72c2.72,0.09,5.13-0.44,7.61-1.21c5.88-1.82,11.27-5.17,17.72-5.27
		c2.99-0.05,4.75-3.48,2.99-5.8c-3.14-4.14-4.15-9.21-6.73-13.6c-1.5-0.12-2.68,0.19-3.5,1.87c-1.21,2.48-2.64,4.88-4.22,7.14
		C442.79,323.75,438.73,329.76,433.06,334.72z M264.48,175.62c-3.98,2.09-7.84,3.78-9.53,7.97c3.52,3.69,7.28,4.48,12-0.73
		C268.97,180.62,268.46,179.24,264.48,175.62z"/>
</g>
</svg>
