<?xml version="1.0" encoding="utf-8"?>
<!-- Generator: Adobe Illustrator 23.1.0, SVG Export Plug-In . SVG Version: 6.00 Build 0)  -->
<svg version="1.1" id="Layer_1" xmlns="http://www.w3.org/2000/svg" xmlns:xlink="http://www.w3.org/1999/xlink" x="0px" y="0px"
	 viewBox="0 0 1152.69 1799.67" style="enable-background:new 0 0 1152.69 1799.67;" xml:space="preserve">
<g>
	<g>
		<path d="M234.76,1707.44c0.86-2.98,1.84-5.95,2.57-8.98c2.97-12.28,5.62-24.63,8.84-36.84c4.4-16.72,9.19-33.35,13.86-50
			c1.97-7.02,3.49-14.08,6.76-20.81c2.78-5.73,3.48-12.45,5.29-18.68c5.87-20.11,11.39-40.34,17.88-60.26
			c6.44-19.78,13.9-39.22,20.83-58.84c0.98-2.77,1.04-5.6,0.94-8.67c-0.12-3.72,2.03-7.56,3.41-11.27
			c3.88-10.43,8.77-20.6,11.53-31.31c2.13-8.23,1.58-17.14,2.33-25.73c1.12-12.9,1.53-25.93,3.71-38.66
			c2.95-17.17,7.26-34.15,13.54-50.45c6.59-17.1,14.93-33.4,24.18-49.26c3.83-6.57,6.91-13.61,9.81-20.65
			c1.29-3.12,1.62-6.76,1.81-10.19c0.33-6.05,0.14-6.06,6.12-8.24c0-3.49,0.24-7.13-0.05-10.71c-0.51-6.11-1.32-12.19-2.06-18.27
			c-1.21-10.04-3.11-20.05-3.54-30.12c-0.56-13.27-0.35-26.61,0.21-39.89c0.52-12.46,1.88-24.89,2.95-37.32
			c0.67-7.79,1.67-15.55,2.19-23.34c0.31-4.67-1.03-7.82-3.98-11.01c-1.45,1.76-3,3.37-4.23,5.19c-4.05,5.95-8.61,11.41-14.34,15.83
			c-0.26,0.2-0.5,0.44-0.77,0.64c-6.58,4.95-8.6,4.4-11.98-3.25c-0.17-0.39-0.73-0.61-1.52-1.24c-3.73,3.98-7.64,7.78-11.12,11.95
			c-10.28,12.29-24.23,19.51-37.64,27.47c-1.29,0.77-3.31,0.32-5.51,0.48c-1.87,3.44-4.2,7.44-6.18,11.61
			c-0.55,1.15-0.27,2.87,0.08,4.22c0.47,1.88,1.36,3.65,2.48,6.5c-3.01,0.42-5.97,1.81-7.5,0.87c-6.41-3.93-10,0.78-14.18,3.85
			c-1.33,0.98-2.29,2.47-3.65,3.4c-1.16,0.79-3,1.9-3.93,1.49c-2.97-1.3-4.34,0.66-5.99,2.2c-10.82,10.07-19.17,22.12-27.33,34.3
			c-11.61,17.32-20.8,35.97-30.15,54.54c-1.31,2.6-3.35,4.83-5.06,7.22c-0.27,0.37-0.67,0.66-0.87,1.06
			c-1.67,3.39-3.37,6.77-4.93,10.22c-6.53,14.47-12.67,29.13-19.63,43.39c-5.76,11.8-12,23.43-18.88,34.61
			c-7.31,11.88-15.23,23.43-23.62,34.57c-5.68,7.54-12.55,14.21-19.04,21.12c-2.03,2.16-4.64,3.76-6.86,5.75
			c-3.69,3.32-7.44,6.6-10.88,10.17c-3.02,3.12-5.65,6.62-8.93,10.52c-9.13-11.04-18.3-22.15-27.72-33.56
			c-2.99,2.18-5.08,1.09-7.28-1.11c-15.69-15.7-27.6-33.63-33.07-55.4c-2.25-8.94-3.55-17.93-0.97-27.09
			c0.43-1.52-0.13-3.31-0.24-5.13c-9.51,2.55-9.51,2.55-12.42,0.95c0.18-0.76,0.22-1.63,0.58-2.34c7.61-15.17,11.42-31.51,14.65-48
			c2.84-14.47,5.02-29.07,8.09-43.49c2.69-12.67,6.01-25.23,9.42-37.73c3.93-14.43,7.91-28.87,12.5-43.1
			c5.71-17.75,13.45-34.7,22.08-51.21c4.93-9.43,9.88-18.92,15.73-27.79c6.47-9.82,13.93-19,21.05-28.4
			c3.81-5.03,7.69-10.03,11.75-14.85c12.17-14.46,26.58-26.57,41.08-38.54c7.92-6.54,16.07-12.8,24.26-19
			c3.84-2.91,7.8-5.77,12.05-8c11.64-6.08,21.71-14.88,34.34-19.28c5.76-2.01,11.19-4.99,16.66-7.75c4.59-2.32,7.3-6.81,6.06-11.78
			c-6.71-26.92-6.98-54.43-6.21-81.91c0.39-14.1,2.34-28.15,5.84-41.92c3.94-15.48,7.61-31.04,11.71-46.48
			c0.76-2.85,3.04-5.3,4.56-7.96c0.55-0.96,1.32-1.99,1.36-3.01c0.18-4.48,0.62-9.04,0.05-13.46c-1.5-11.56-2.33-22.95,0.47-34.51
			c2.14-8.84,2.65-18.08,4.87-26.89c2.59-10.29,5.92-20.42,9.53-30.41c7.02-19.46,16.33-37.86,26.97-55.59
			c6.76-11.26,13.43-22.59,20.39-33.73c5.75-9.21,8.59-18.89,7.02-29.83c-0.71-4.92-0.67-9.95-0.74-14.94
			c-0.1-6.19-0.25-6.39-6.34-4.69c-1.22-3.05-1.09-5.92,0.25-9.02c1.89-4.37,2.99-9.12,5.21-13.3c2.15-4.05,5.11-7.72,8.06-11.28
			c2.33-2.82,4.73-5.3,5.77-9.11c0.6-2.2,2.99-4.37,5.13-5.61c8.91-5.17,17.95-10.12,27.09-14.88c5-2.61,10.54-4.25,15.38-7.09
			c9.69-5.7,20.37-8.95,30.65-13.2c5.22-2.16,10.52-4.12,15.77-6.21c8.81-3.52,16.07-9.34,22.96-15.68
			c2.81-2.59,5.68-5.15,8.27-7.95c1.66-1.8,3.17-3.89,4.21-6.1c1.81-3.85,3.2-7.89,5-12.43c-1.04-2.6-4.33-2.6-7.01-3.76
			c-3.3-1.43-6.62-3.01-9.48-5.13c-1.25-0.93-2.22-3.64-1.77-5.05c0.42-1.32,2.78-2.44,4.48-2.83c2.99-0.68,6.12-0.72,10.43-1.16
			c-2.15-1.94-3.23-3.13-4.51-4.03c-4.34-3.04-6.69-7.3-7.85-12.33c-0.49-2.11-0.78-4.29-1.52-6.31c-1.3-3.57-1.54-6.83,2.33-9.89
			c-1.46-1.59-2.51-3.31-4.04-4.3c-6.57-4.25-9.73-10.03-9.68-17.97c0.03-3.89-0.92-7.9-2.05-11.66c-1.32-4.4-0.52-7.75,3.04-10
			c-2.66-5.62-5.54-10.87-7.63-16.4c-1.62-4.28-2.99-8.86-0.13-13.47c0.61-0.98,0.08-2.87-0.31-4.23
			c-2.6-9.08-1.73-10.58,7.65-12.03c0.11-1.33,0.37-2.77,0.33-4.21c-0.25-8.65-0.55-17.3-0.88-25.94c-0.12-3.14-0.21-6.31-0.65-9.41
			c-0.5-3.55,0.19-6.19,3.77-7.73c4.23-1.81,5.63-5.18,5.19-9.69c-0.44-4.59-0.53-9.22-0.77-13.94c3.37-2.2,6.63-4.27,9.84-6.43
			c2.13-1.44,1.35-3.38,0.91-5.39c-3.12-14.19-3.16-28.4-0.26-42.64c1.21-5.94,3.48-10.75,10.25-11.94
			c1.58-0.28,3.05-1.31,4.54-2.04c2.73-1.35,4.96-0.9,7.24,1.24c2.6,2.44,4.99,5.18,9.04,5.78c1.59,0.24,3.12,2.34,4.26,3.9
			c3.9,5.35,6.74,5.23,10.89,0.4c6.49-7.55,13.42-14.73,20.31-21.93c1.23-1.29,3.15-1.91,4.82-2.89c3.54,5.93-0.84,11.04,0.36,17.26
			c1.76-1.05,3.56-1.68,4.74-2.9c7.83-8.12,16.98-13.88,28.15-16.07c5.7-1.12,11.41-2.16,17.15-3.04c3.75-0.57,7.57-1.1,11.35-1.01
			c2.14,0.05,4.25,1.39,6.94,2.35c0.78-0.31,2.35-0.6,3.52-1.44c7.44-5.34,16.3-6.33,24.83-8.41c2.32-0.57,3.95,0.19,5.12,2.04
			c1.32,2.09,0.31,3.87-1.18,5.36c-4,4-8.15,7.86-12.08,11.94c-2.79,2.9-5.3,6.07-7.94,9.11c0.24,0.32,0.48,0.65,0.72,0.97
			c2.97-0.79,6.03-1.34,8.89-2.43c15.73-5.97,32.09-6.98,48.66-6.42c3.77,0.13,6.74,1.63,8.39,5.25c-0.6,3.77-2.73,5.68-6.5,6.39
			c-5.55,1.05-11.12,2.21-16.51,3.88c-4.68,1.44-9.13,3.65-13.6,5.49c0.97,4.24,3.98,4.28,6.43,4.9c5.61,1.42,11.43,2.15,16.86,4.03
			c6.37,2.21,12.35,5.52,18.62,8.05c11.72,4.73,23.47,9.43,35.35,13.74c4.65,1.69,9.7,2.29,14.56,3.39
			c1.46,0.33,3.06,0.38,4.32,1.08c1.12,0.62,2.56,1.92,2.58,2.95c0.03,1.09-1.25,2.87-2.32,3.2c-3.62,1.13-7.43,1.66-11.11,2.61
			c-5.59,1.44-11.15,3.02-16.71,4.58c-0.24,0.07-0.38,0.45-0.91,1.11c1.93,1.47,3.71,3.22,5.81,4.37
			c8.28,4.56,14.92,11.02,21.6,17.56c7.37,7.21,12.37,15.36,14.22,25.69c0.73,4.04,3.47,7.74,5.41,11.54
			c0.34,0.66,1.18,1.29,1.91,1.47c5.59,1.4,6.37,5.78,5.52,10.2c-1.15,6-3.23,11.82-4.88,17.73c-0.62,2.21-1.18,4.44-1.69,6.68
			c-0.96,4.19-1.87,8.4-2.81,12.6c-0.15,0.64-0.64,1.32-0.53,1.9c1.83,9.95-3.37,18.74-4.64,28.17c-2.06,15.28-5.52,30.39-5.4,45.94
			c0.02,2.11-0.72,4.24-1.16,6.35c-0.27,1.29-0.97,2.58-0.91,3.85c0.43,9.6,0.61,19.23,1.64,28.77c0.77,7.08,3.72,13.62,8.66,20.33
			c-4.69-1.06-6.67-3.88-8.3-6.64c-4-6.77-7.61-13.77-11.52-20.59c-0.56-0.97-1.94-1.47-3.66-2.71c-1.63,4.69-3.21,8.63-4.37,12.7
			c-2.14,7.52-4.2,15.07-5.96,22.68c-0.93,4.01-1.4,8.18-1.59,12.3c-0.14,2.94,1.67,4.92,4.66,5.67c8.18,2.07,16.4,4.01,24.5,6.36
			c4.26,1.23,8.66,2.63,12.38,4.95c8.22,5.12,17.24,7.69,26.51,9.69c5.53,1.19,10.91,0.72,15.79-2.95
			c-0.31,3.19-0.31,3.19-7.48,10.7c8.42,6.78,15.01,14.76,14.84,26.65c-4,0.83-4.44,3.82-4.83,7.1c-0.71,5.91-1.73,11.79-2.65,17.68
			c-0.18,1.14-0.66,2.26-0.72,3.4c-0.47,8.46-0.69,16.93-1.37,25.37c-0.32,3.95-1.2,7.9-2.29,11.72
			c-3.09,10.84-3.28,21.58-0.24,32.48c2.32,8.32,4.83,16.68,6.03,25.19c1.25,8.93,3.81,17.63,3.68,26.85
			c-0.21,15.64,0.56,31.29,0.8,46.94c0.07,4.81-0.3,9.62-0.33,14.43c-0.01,1.28,0.22,2.73,0.84,3.81c2.05,3.54,4.17,7.07,6.58,10.38
			c2.4,3.31,5.74,4.8,9.94,5.71c6.52,1.41,11.63-1.93,17.31-3.41c16.28-4.23,32.6-8.32,48.84-12.7c6.25-1.69,12.54-3.53,18.44-6.16
			c9.01-4.02,15.04-10.66,16.14-21.11c0.47-4.48,1.24-8.8,0.18-13.34c-1.04-4.42,1.82-7.61,4.64-10.49
			c6.53-6.64,13.39-12.98,19.75-19.78c8.37-8.93,14.51-19.46,20.32-30.16c1.45-2.66,2.21-5.4,1.14-8.62c-0.5-1.5,0.02-3.71,0.8-5.21
			c3.38-6.48,6.81-12.94,10.64-19.16c4.3-6.99,11.11-10.9,18.71-13.35c1.67-0.54,4.4-0.45,5.46,0.57c1.01,0.97,1.05,3.74,0.5,5.38
			c-1.25,3.77-3.21,7.29-4.67,11c-0.57,1.45-1.28,3.43-0.73,4.63c3.92,8.62,2.56,17.69,2.48,26.6c-0.03,3.52-1.38,7.04-2.15,10.55
			c-0.86,3.95-3.99,6.13-7.03,8c-3.39,2.08-4.95,4.64-4.35,9.3c1.95,0.32,4.1,0.91,6.28,1c4.91,0.21,9.86-0.45,14.51,2.18
			c1.2,0.68,3.67,0.26,4.95-0.58c11.06-7.22,23.03-12.4,35.44-16.74c1.59-0.56,3.29-1.87,4.14-3.31c2.41-4.08,4.39-8.42,6.6-12.63
			c0.45-0.85,1.14-1.61,1.83-2.3c5.86-5.89,11.49-12.04,17.71-17.52c3.79-3.34,8.46-5.7,12.82-8.36c2.66-1.63,5.6-2.82,8.2-4.53
			c1.94-1.28,3.53-1.45,5.48-0.17c2.19,1.45,4.52,2.7,6.61,3.93c2.4-1.55,4.45-2.92,6.53-4.21c4.28-2.66,5.19-2.48,9.24,0.53
			c1.23,0.92,2.98,1.16,4.52,1.64c4.39,1.38,5.6,3.35,3.35,7.36c-1.98,3.53-4.81,6.63-7.51,9.7c-1.41,1.59-3.35,2.73-5.08,4.03
			c-7.32,5.51-7.52,5.51-7.22,14.17c0.16,4.53-1.16,8.48-3.22,12.26c-1.81,3.31-2.95,6.62-2.58,10.46
			c0.85,8.67,0.52,16.91-7.8,22.52c-2.45,1.65-4.24,4.28-6.68,5.96c-2.57,1.76-3.37,3.9-3.07,6.79c0.22,2.15,0.12,4.35,0.51,6.47
			c1.52,8.18-2.63,13.48-8.56,18.27c-6.72,5.42-13.29,11.05-19.56,16.97c-3.76,3.55-7.96,5.99-12.72,7.62
			c-19.04,6.54-38.17,12.83-57.12,19.63c-7.64,2.74-14.7,7.1-22.35,9.76c-15.43,5.36-27.32,15.19-37.58,27.51
			c-7.66,9.19-15.4,18.33-23.48,27.16c-11.79,12.88-23.53,25.85-36.01,38.06c-12.85,12.58-27.13,23.58-42.58,32.87
			c-5.52,3.32-11.51,5.88-17.29,8.77c-1.04,0.52-2.41,0.71-3.11,1.51c-5.49,6.22-12.93,6.23-20.27,6.53
			c-6.15,0.25-12.31,0.31-18.46,0.55c-8.3,0.33-15.2,3.15-19.46,10.86c-1.95,3.52-4.62,6.56-6.21,10.4
			c-1.08,2.62-0.82,4.29,0.72,6.34c13.2,17.54,23.41,36.86,31.55,57.1c7.07,17.57,12.95,35.65,18.54,53.76
			c4.71,15.26,8.61,30.79,12.17,46.36c2.55,11.17,4.06,22.59,5.81,33.93c1.35,8.71,2.66,17.46,3.43,26.23
			c1.15,13.25,1.78,26.54,2.7,39.81c0.18,2.64,0.77,5.25,0.96,7.89c0.39,5.61,0.83,11.22,0.92,16.84
			c0.2,12.49,0.14,24.99,0.29,37.48c0.2,16.15,0.97,32.31,0.63,48.45c-0.46,21.96-1.74,43.9-2.66,65.86
			c-0.19,4.58-1.38,8.8-3.91,12.72c-6.69,10.37-13.85,20.34-22.44,29.29c-3.42,3.57-6.41,7.71-8.91,11.99
			c-12.42,21.23-20.38,44.3-28.35,67.45c-5.57,16.16-3.94,31.8-0.04,47.65c3.61,14.68,7.49,29.3,11.22,43.95
			c0.29,1.12,0.91,2.56,0.48,3.39c-2.4,4.59,0.45,8.31,1.68,12.32c7.07,23.06,13.75,46.25,21.32,69.14
			c4.44,13.41,10.01,26.47,15.68,39.42c2.06,4.72,6.22,8.24,10.89,10.92c3.52,2.02,6.81,4.45,10.01,6.57
			c6.31-2.55,10.93-6.6,15.05-11.58c4.88-5.88,6.87-5.89,12.96-1.29c2.12,1.6,3.95,3.56,5.95,5.33c2.75,2.43,3.88,2.34,6.09-0.47
			c0.62-0.78,1.08-1.69,1.73-2.44c3.04-3.48,5.45-3.8,8.95-0.69c2.59,2.3,5.09,4.83,7.05,7.67c4.27,6.19,4.11,6.3,10.8,2.18
			c1.57,1.59,3.64,3.08,4.88,5.08c2.99,4.79,5.49,9.87,8.39,14.72c1.5,2.51,3.27,4.91,5.2,7.11c10.7,12.18,13.49,23.05,8.78,38.24
			c-5.02,5.43-3.78,12.38-4.68,18.83c-0.26,1.85-1.21,3.6-2.26,6.57c-2.87-3.74-5-6.51-7.13-9.28c-0.38,0.06-0.75,0.12-1.13,0.19
			c-0.28,1.68-0.57,3.35-0.85,5.03c-0.52,3.11-0.67,6.33-1.63,9.29c-1.23,3.78-3.4,4.24-6.31,1.45c-2.02-1.94-3.72-4.27-5.31-6.59
			c-2.22-3.23-4.6-4.68-8.81-3.28c-6.03,2.01-12.29,2.87-18.62,0.75c-1.16-0.39-2.55-0.06-4.21-0.06c-1.16,4.7-2.01,9.08-3.39,13.3
			c-0.6,1.84-1.99,4.1-3.58,4.72c-1.2,0.47-3.73-0.97-4.91-2.26c-2.21-2.41-4.03-5.23-5.74-8.05c-2.37-3.91-8.81-7.07-13.34-6.83
			c-7.08,0.37-14.33,1.52-20.67-3.28c-0.94-0.71-2.6-1.07-3.74-0.8c-9.77,2.24-18.91-1.01-28.22-2.94
			c-10.38-2.16-18.11-8.44-25.53-15.49c-4.45-4.22-9.42-7.89-14.12-11.85c-5.46-4.6-10.77-9.4-16.35-13.85
			c-7.18-5.72-11.89-12.72-13.85-21.84c-1.28-5.98-3.65-11.73-5.65-17.54c-4.55-13.22-9.02-26.46-13.79-39.6
			c-4.78-13.14-9.85-26.17-14.86-39.22c-6.85-17.86-14.37-35.49-20.43-53.6c-4.75-14.19-5.48-29.05-1.96-43.87
			c1.29-5.44,4.56-9.62,8.65-13.13c3.52-3.02,4.3-6.63,3.07-10.79c-3.44-11.63-7.21-23.17-10.41-34.86
			c-2.06-7.53-3.4-15.26-4.99-22.91c-1.65-7.99-3.29-15.98-4.79-23.99c-4.11-21.91-9.32-43.79-7.07-66.28
			c0.73-7.29,3.54-14.51,6.26-21.42c5.77-14.67,14.81-27.49,23.78-40.35c2.81-4.02,4.71-8.72,6.75-13.23
			c2.35-5.16,0.4-9.69-2.54-14.01c-8.05-11.83-16.19-23.61-23.99-35.6c-2.61-4.01-4.55-8.51-6.38-12.95
			c-6.98-16.91-14.23-33.73-20.45-50.92c-2.9-8.02-3.65-16.81-5.4-25.35c-11.06-2.27-22.94-2.2-32.52-11.91
			c-0.56,2.69-1.1,4.16-1.13,5.65c-0.1,5.33-0.26,10.68,0.03,16c0.47,8.62-1.19,16.93-3.25,25.17
			c-3.71,14.86-6.97,29.88-11.67,44.42c-3.66,11.33-8.82,22.23-14.06,32.96c-3.84,7.88-9.13,15.04-13.35,22.74
			c-9.24,16.85-21.2,31.8-32.47,47.23c-0.78,1.07-1.64,2.14-2.66,2.97c-7.69,6.33-11.55,14.31-12.85,24.33
			c-1.71,13.15-4.19,26.29-7.49,39.13c-4.7,18.25-12.29,35.45-20.88,52.25c-10.32,20.18-22.12,39.45-34.69,58.26
			c-8.87,13.28-18.69,25.81-30.21,36.98c-4.17,4.04-7.76,8.68-11.72,12.96c-2.23,2.41-4.88,4.46-6.99,6.96
			c-6.1,7.21-8.54,16.23-10.56,25.03c-2.81,12.29-4.73,24.84-6.13,37.39c-1.6,14.2-1.74,28.56-3.37,42.76
			c-1.82,15.85-4.39,31.62-7.02,47.36c-1.78,10.65-4.27,21.17-6.34,31.77c-0.35,1.78-0.26,3.65-0.27,5.48
			c-0.08,10.5-0.19,21-0.16,31.49c0.01,3.8,0.79,7,5.27,8.5c5.47,1.82,6.91,7.4,9.16,11.93c5.79,11.68,7.14,24.18,5.72,37
			c-0.52,4.69-2.02,9.14-1.41,14.13c0.3,2.5-2.17,6.02-4.37,7.98c-3.43,3.05-7.7,5.14-11.59,7.69c-2.07,1.36-4.07,2.83-6.11,4.22
			c-2.89,1.98-4.49,1.53-5.8-1.58c-2.82-6.68-11.15-10.31-18.05-7.65c-3.57,1.37-7.03,3.06-10.43,4.82c-1.08,0.56-1.9,1.75-2.63,2.8
			c-0.84,1.22-1.36,2.67-2.18,3.91c-3.21,4.81-5.71,4.77-9.08,0.24c-1.22-1.64-3.07-2.84-4.73-4.12c-3.39-2.62-7.05-4.93-10.18-7.82
			c-1.64-1.51-2.92-2.58-5.15-1.89c-5.7,1.77-11.52,3.26-17.05,5.44c-1.89,0.75-3.1,3.23-5.1,5.44c-1.54-1.34-3.6-2.41-4.56-4.11
			c-2.11-3.73-5.52-5.03-9.17-4.91c-5.37,0.18-9.65-1.96-13.94-4.66c-1.95-1.23-4.07-2.75-6.22-2.93c-2.94-0.26-6.26-0.5-7.73,3.68
			c-1.22,3.48-3.77,3.86-5.89,0.81c-2.36-3.4-5.36-4.63-9.15-5.08c-4.84-0.56-7.36-3.95-8.21-8.25c-1.09-5.52-1.87-11.16-2.11-16.77
			c-0.34-8.01,0.24-16,4.37-23.24c1.39-2.44,2.82-4.86,4.37-7.19c1.65-2.49,3.62-4.79,5.2-7.32c4.26-6.86,7.49-8.19,15.29-6.08
			C233.32,1707.41,233.82,1707.37,234.76,1707.44z M345.01,838.38c4.93-1.53,8.83-2.57,12.6-3.95c11.05-4.05,22.14-8.02,33.05-12.43
			c7.37-2.98,14.78-6.11,21.6-10.14c15.04-8.9,31.02-16.55,42.33-30.73c3.22-4.03,7.53-7.19,11.37-10.78
			c-0.41-3.41-0.83-7.17-1.32-10.92c-0.81-6.23-2.14-12.43-2.39-18.67c-0.41-10.14-0.02-20.32-0.2-30.47
			c-0.07-3.97,0.37-8.58-1.43-11.77c-4.67-8.28-6.05-17.72-11.14-25.98c-9.2-14.93-16.58-30.94-22.15-47.69
			c-0.92-2.77-2.84-5.21-4.66-8.44c-1.29,2.35-2.52,3.96-3.12,5.77c-5.02,15.34-13.83,28.75-22.22,42.25
			c-9.22,14.84-20.5,28.22-33.71,39.82c-4.72,4.15-7.37,7.84-5.68,15.39c2.89,12.9,3.76,26.33,4.59,39.59
			c1.56,25.09-4.02,48.87-14.64,71.56C346.94,832.86,346.26,835.07,345.01,838.38z M700.43,322.65c-3.74,2.07-6.5,0.7-8.37-2.18
			c-3.6-5.55-7.07-11.21-10.25-17.02c-1.38-2.52-1.28-5.86-4.39-7.4c-0.36-0.18-0.59-0.82-0.69-1.29
			c-0.94-4.68-1.83-9.37-2.74-14.06c-0.9-4.7-3.45-5.88-7.23-3c-1.79,1.37-3.46,3.28-4.4,5.3c-2.41,5.17-3.98,10.58-2.54,16.44
			c1.85,7.51,2.44,15.49,8.64,21.27c0.94,0.87,1.28,2.35,2.12,3.36c1.24,1.49,2.49,3.11,4.07,4.17c6.87,4.6,13.75,9.21,20.84,13.44
			c6.02,3.58,11.35,8.99,19.97,8.07C714.33,338.83,706.89,331.35,700.43,322.65z"/>
	</g>
</g>
</svg>
