<?xml version="1.0" encoding="utf-8"?>
<!-- Generator: Adobe Illustrator 24.0.2, SVG Export Plug-In . SVG Version: 6.00 Build 0)  -->
<svg version="1.1" id="Layer_1" xmlns="http://www.w3.org/2000/svg" xmlns:xlink="http://www.w3.org/1999/xlink" x="0px" y="0px"
	 width="1174.82" height="2080.91" viewBox="0 0 1174.82 2080.91" style="enable-background:new 0 0 1174.82 2080.91;" xml:space="preserve">
<style type="text/css">
	.st0{fill:#1A1A1A;}
</style>
<g>
	<path d="M588.84,1943.14c-2.46,12.91-4.87,24.83-5.05,37.32c-0.18,12.32-1.31,24.75-5.12,36.85c-1.42,4.5-4.98,6.45-6.91,10.07
		c-1.83,3.44-4.78,6.28-7.21,9.4c-1.17,1.5-2.78,2.37-4.5,2.89c-16.72,5.12-28.75,15.58-36.13,31.43c-0.61,1.31-1.75,2.2-3.35,2.7
		c-3.86,1.21-7.53,2.96-11.22,4.62c-3.32,1.5-7.26,2.05-10.95,2.21c-7.51,0.32-15.04,0.13-22.56,0.08
		c-3.18-0.02-6.06-1.41-8.83-2.69c-2.28-1.05-4.14-0.98-6.48-0.38c-10.93,2.82-22.12,3.77-33.33,2.99
		c-9.69-0.67-18.93-3.46-27.24-8.7c-1.27-0.8-2.01-0.79-3.44-0.49c-10.29,2.17-20.52,2.12-30.55-1.63
		c-0.95-0.35-1.81-0.63-2.57-1.31c-4.3-3.88-9.45-3.98-14.55-2.59c-7.46,2.03-15,1.06-22.01-0.7c-5.95-1.49-10.77-5.58-11.88-13.16
		c-1.42-9.61-3.1-19.12-2.84-28.9c0.3-11.37,3.89-21.73,8.88-31.75c9.48-19.02,26.86-25.79,42.47-29.48
		c3.24-0.77,6.72-1.77,10.25-1.23c0.79,0.12,1.64,0.06,2.38-0.47c8.51-6.15,17.96-6.66,27.67-4.09c2.08,0.55,3.1-0.39,4.41-1.04
		c7.07-3.52,12.68-9.17,19.35-13.3c10.1-6.26,18.86-14.22,27.67-22.1c4.34-3.89,6.02-9.5,8.93-14.31c2.62-4.33,3.34-9.4,5.82-13.83
		c1.56-2.78,1.46-6.03,0.39-9.49c-5.53-17.95-12.45-35.28-21.01-52.01c-4.46-8.71-7.92-17.92-12.35-26.64
		c-4.74-9.31-10.07-18.31-15.2-27.41c-4.15-7.36-7.71-15.03-11.75-22.44c-8.06-14.74-15.88-29.62-25.15-43.7
		c-8.35-12.69-15.34-26.19-20.34-40.55c-2.4-6.9-3.37-14.27-3.56-22.35c-2.05,3.8,0.92,7.94-3.08,11.26
		c-3.66-9.47-6.58-18.69-5.68-28.57c0.88-9.77,3.76-19.1,8.08-28.15c-1.47-0.13-2.61-0.34-3.86-1.26c0.99-1.5,2.37-2.91,2.52-5.17
		c-10.59-1.59-21.1-3.69-31.15-7.48c-14.27-5.38-27.66-12.52-39.88-21.64c-10.43-7.79-20.62-15.91-29.54-25.47
		c-11.43-12.25-21.86-25.28-30.26-39.83c-9.57-16.59-17.63-33.85-23.09-52.26c-2.96-10-5.39-20.12-6.93-30.45
		c-1.02-6.84-1.33-13.75-2.14-20.57c-1.21-10.13-0.93-20.34-2.57-30.46c-0.96-5.9-0.02-12.15,0.52-18.28
		c0.96-10.99,3.17-21.63,5.94-32.24c3.37-12.94,7.88-25.45,12.8-37.89c5.48-13.84,11.58-27.36,18.5-40.51
		c7.17-13.62,15.58-26.42,25.4-38.33c2.75-3.34,6.6-6,7.94-10.61c-3.83-0.86-7.75-0.06-11.67-1c-3.54-0.85-7.1-1.63-10.08-3.49
		c-6.77-4.22-14.4-6.9-20.77-11.8c-0.52-0.4-1.25-0.7-1.53-1.23c-3.67-7.13-10.64-8.64-17.49-10.34
		c-8.14-2.02-16.45-3.27-24.79-3.25c-6.18,0.01-12.4,1.14-18.53,2.17c-5.11,0.86-10.1,0.18-15.16,0.08
		c-7.01-0.13-12.14-4.53-18.42-6.06c-2.08-0.51-4.13-1.45-4.18-4.58c-0.02-1.49-1.89-2.95-2.89-4.44c-4.88-7.2-8.4-14.64-6.08-23.82
		c0.94-3.71-2.89-5.52-5.28-7.05c-1.91-1.23-4.21-1.65-3.33-4.37c0.91-2.81,2.36-5.77,5.78-5.99c4.07-0.26,8.33-0.84,11.98,1.88
		c2.24,1.67,5.13,1.57,7.54,1.8c8.68,0.82,17.32,2.31,26.08,2.23c3.64-0.04,7.13,0.97,10.65,1.64c6.42,1.23,12.13-0.68,18.68-3.44
		c-6.14-2.79-11.45-5.09-16.65-7.59c-8.96-4.31-16.67-10.34-22.97-17.98c-4.66-5.65-6.94-12.51-8.17-19.63
		c-1.94-11.17-1.48-22.39,0.06-33.56c0.46-3.36,2.23-6.42,3.85-9.29c-0.33-1.42-1.34-2.12-2.2-2.83c-2.61-2.14-2.27-4.55-1.26-7.38
		c1.02-2.86,3.03-3.01,5.5-2.95c7.22,0.17,13.09,3.8,18.87,7.45c8.66,5.47,13.48,14.18,18.09,22.84
		c4.49,8.45,10.33,15.47,17.91,21.33c3.22,2.49,6.59,4.97,9.39,8.14c4.7-2.74,6.74-7.59,9.14-11.87
		c4.87-8.67,8.48-17.91,11.78-27.34c3.64-10.44,7.58-20.78,10.79-31.36c5.19-17.11,10.02-34.34,15.01-51.51
		c2.9-9.99,5.53-20.08,8.79-29.96c3.67-11.12,7.06-22.34,10.04-33.64c2.86-10.88,5.75-21.72,10.16-32.08
		c3.57-8.39,7.4-16.68,12.24-24.43c2.12-3.39,1.68-6.78,0.81-10.19c-2.74-10.71-7.93-20.65-10.45-31.39
		c-2.35-10-1.6-19.93,1.75-29.92c6.57-19.6,17.56-36.68,28.79-53.7c2.6-3.94,4.85-8.11,7.27-12.17c2.6-4.36,2.46-9.46,3.37-14.18
		c3.99-20.73,11.73-40,21.5-58.55c1.2-2.29,1.79-4.49,1.77-7.04c-0.05-8.56,0.9-16.95,3.78-25.14c1.23-3.52,0.13-7.44,0.13-11.18
		c-0.01-4.03,0.13-7.92,2.76-10.97c-0.28-1.76-1.8-2.26-2.32-3.45c0.02-1.68,2.24-1.19,2.53-2.57c-0.13-0.34-0.15-0.73-0.36-0.92
		c-2.1-1.92-3.75-4.01-4.05-7.05c-0.13-1.4-0.76-2.88-1.54-4.07c-7.49-11.5-4.46-23.02,0.17-34.35c4.01-9.81,8.52-19.41,12.98-29.03
		c1.4-3.01,2.14-6.18,2.76-9.32c1.04-5.27-0.41-10.03-4.13-14.11c-9.74-10.66-18.28-22.26-26.31-34.24
		c-6.85-10.22-12.8-20.86-15.01-33.14c-1.25-6.95-2.42-13.91-0.6-21.04c0.68-2.66,0.24-5.64,0.15-8.47
		c-0.4-12.75,3.54-24.53,8.42-35.98c3.05-7.17,7.06-13.92,10.44-20.95c2.43-5.05,3.3-9.84,0.32-15.52
		c-5.71-10.85-8.64-22.76-11.21-34.74c-2.01-9.41-3.86-18.84-5.23-29.33c-11.62,16.66-27.14,23.22-46.71,21.35
		c-9.35-0.89-21.38-4.98-26.65-10.66c2.52-1.88,5.65-2.41,8.4-3.81c9.06-4.59,16.95-10.92,24.99-16.99
		c7.69-5.81,14.35-12.92,22.93-17.83c-1.52-1.83-3.36-1.82-5.28-1.86c-14.11-0.28-26.69-5.34-37.28-14.2
		c-5.84-4.88-10.35-11.51-13.96-18.56c3.01-2.33,6.41-1.44,9.33-1.95c9.01-1.56,17.83-3.93,26.83-5.55
		c16.75-3.02,26.5-4.3,42.49-3.59c-8.45-18.12-8.28-39.95-2.42-52.76c3.66-1.3,6.67,0.11,9.62,2.15
		c8.34,5.77,14.96,13.23,20.92,21.31c3.87,5.25,7.69,10.54,10.76,16.33c1.41,2.65,3.68,4.46,6.1,6.21
		c8.39,6.07,14.72,14.35,22.64,21.35c4.31-8.77,11.77-11.59,21.21-10.7c1.19-4.03-1.17-7.29-1.9-10.59
		c-1.98-9.01-0.2-17.25,3.26-25.36c4.68-10.98,9.7-21.8,16.73-31.54c0.56-0.78,1.16-1.78,1.15-2.68
		c-0.11-7.05,3.61-13.18,4.67-19.94c0.65-4.14,0.76-8.39,2.26-12.44c5.39,3.19,6.69,6.47,12.05,30.26
		c6.49-9.25,13.13-17.6,20.36-25.74c-2.98-3.16-5.29-6.54-6.89-10.3c-2.97-6.97,0.49-12.12,8.23-12.7
		c5.17-0.39,10.18,0.73,15.21,1.48c5.75,0.85,11.01,0.06,15.64-3.47c3.65-2.78,7.39-5.37,11.49-7.46c4.57-2.33,8.12-6.1,13.02-8.17
		c12.37-5.24,24.89-9.61,38.26-11.43c7.35-1,14.68-2.19,22.1-1.89c12.13,0.49,24.08,2.27,35.82,5.49c11.85,3.25,23.18,7.77,34,13.53
		c11,5.86,21.17,12.93,30.65,21.09c6.05,5.21,11.71,11.08,19.24,14.33c1.34,0.58,2.04,1.52,2.6,2.71
		c3.62,7.73,7.61,15.18,13.43,21.61c2.05,2.26,1.12,5.94,1.9,8.92c0.66,2.56,0.91,5.18,2,7.68c4.87,11.21,7.55,23.18,11.84,34.62
		c4.03,10.73,9.59,20.39,16.98,28.95c2,2.32,4.85,4.07,6.74,6.74c-8.22-4.89-15.21-11.64-23.5-16.37c-0.22,0.3-0.44,0.6-0.65,0.9
		c6.35,8.22,12.96,16.25,18.98,24.7c9.87,13.84,21.05,26.69,30.2,41.06c10.11,15.85,17.2,32.86,20.52,51.44
		c1.07,6.01,1.1,12.17,2.2,18.04c1.4,7.41-0.01,14.52-0.5,21.63c-0.86,12.36-3.61,24.6-8.58,35.99c-2.67,6.12-3.4,12.54-5.12,18.78
		c-2.98,10.89-5.96,21.71-13.02,30.86c-4.47,5.79-9.64,10.82-15.93,14.58c-1.54,0.92-2.96,1.9-4.84,3.71
		c9.67-0.78,17.89,1.38,24.94,8.17c-3.32,1.67-6.91,0.02-10.94,1.47c4.3,2.67,7.8,5.16,11.14,7.87c8.85,7.2,15.78,15.68,19.91,26.3
		c1.14,2.93,0.75,6.7,0.22,9.31c-1.47,7.16,0.2,13.18,3.28,19.34c5.1,10.21,9.43,20.77,13.66,31.37c1.19,2.98,1.63,5.97,1.55,9.15
		c-0.06,2.27-0.41,4.58,0.8,6.81c0.49,0.91,0.29,2.22-0.46,3.31c-2.7,3.92-4.31,8.34-6.02,12.76c-1.07,2.78-3.82,4.78-5.05,7.5
		c0.41,1.43,1.95,1.33,2.6,2.3c0,1.7-1.53,1.98-2.37,2.65c2.88,6.07,4.54,12.2,2.85,18.9c-0.61,2.41-0.5,4.74,0.37,7.24
		c2.22,6.37,3.74,12.9,3.28,19.77c-0.23,3.5,0.96,6.76,2.56,9.84c6.91,13.32,13.19,26.9,17.53,41.3c2.77,9.22,4.93,18.58,5.9,28.19
		c0.26,2.55,1.33,4.97,1.42,7.69c2.59-10.46,9.54-18.86,13.13-28.7c0.18,0.2,0.49,0.55,1.03,1.15c3.29-4.78,7.7-8.42,11.75-12.56
		c5.35,2.32,8.4,6.99,11.38,11.36c11.37,16.64,18.49,35.14,22.12,54.87c1.95,10.62,1.46,21.51,1,32.27
		c-0.2,4.85-0.91,9.86-2.23,14.51c-0.91,3.2,0.05,4.97,1.89,7.26c3.3-5.02,4.61-10.89,7.31-16.13
		c7.63-14.79,15.51-29.39,25.05-43.08c7.78-11.17,17.26-20.58,27.51-29.41c13.22-11.39,28.84-19.11,43.12-28.86
		c9.1-6.22,18.78-11.19,28.61-16.01c3.39-1.66,6.6-3.6,9.81-6.07c2.14,1.39,3.18,2.45,2.39,5.81c-3.44,14.57-7.79,28.88-11.81,43.29
		c-1.96,7.04-3.92,14.11-5.34,21.27c-0.52,2.63-2.16,4.35-3.18,6.52c-5.14,10.96-10.66,21.7-17.7,31.62
		c-3.52,4.96-7.56,9.48-11.46,14.1c-2.44,2.89-4.23,6.36-7.91,8.67c4.81,4.1-1.59,6.18-1.36,9.49c2.94,1.44,6.38-4.59,8.92,0.91
		c6.13-2.03,12.02-4.77,18.39-6.04c6.27-1.25,12.51-2.58,18.96-2.6c3.62-0.01,7.2,0.21,10.82-0.86c3.55-1.05,7.06,1.29,10.77,0.93
		c9.13-0.89,18.19,0.74,27.29,1.13c9.87,0.43,19.78,1.04,29.59,2.04c11.14,1.14,22.22,0.46,33.32,0.7c4.36,0.1,8.74-0.73,12.92-2.47
		c3.98,3.35,3.99,3.35,1.71,7.89c-4.44,8.86-11.03,15.86-18.79,21.88c-1.31,1.01-2.43,2.27-3.62,3.43
		c-20.54,20.11-43.2,37.31-69.52,49.16c-13.54,6.1-27.52,10.99-42.54,12.37c-2.57,0.24-5.5,0.36-7.66,1.06
		c-1.35,2.05,0.61,2.37,0.75,3.41c0.14,0.99,0.24,1.96-0.16,2.92c-1.42,0.71-2.94,0.37-4.42,0.39c-5.83,0.07-6.8,0.9-8.28,6.76
		c-2.38,9.38-1.11,18.73-0.17,28.15c0.88,8.82,2.57,17.46,4.67,26.02c3.18,12.98,7.99,25.45,12.01,38.17
		c2.4,7.59,3.93,15.46,6.59,22.94c3.73,10.51,4.76,21.58,7.5,32.29c0.97,3.79,0.76,7.82,1.31,11.74c1.27,9.09,2.44,18.23,2.91,27.38
		c0.27,5.28,0.82,10.53,1.21,15.79c0.66,8.84,1.54,17.67,2.33,26.61c3.49-1.33,6.98-0.92,10.41-0.82c3.06,0.08,6.36,4.16,6.23,7.19
		c-0.06,1.34-0.65,2.54-1.83,2.61c-2.37,0.14-3.29,2.05-4.8,3.26c-1.98,1.59-2.22,3.14-1.65,5.92c1.57,7.63-0.9,15.09-5.52,20.8
		c-4.04,4.99-4.36,10.4-5.13,15.9c-1.93,13.76-3.71,27.54-5.83,41.28c-1.73,11.14-3.72,22.25-5.4,33.4
		c-1.75,11.59-4.38,23.05-6.94,34.5c-4.2,18.75-9.35,37.24-15.88,55.33c-4.65,12.87-9.73,25.55-15.58,37.95
		c-8.34,17.69-17.61,34.88-27.52,51.7c-9.36,15.89-19.18,31.51-30.99,45.8c-4.26,5.16-8.58,10.28-12.76,15.55
		c11.39-8.04,19.41-19.47,29.55-29.43c0.29,3.07-2.27,3.75-3.36,5.36c-9.15,13.58-21.08,24.71-32.99,35.65
		c-12.89,11.83-27.12,22.14-41.11,32.7c-10.32,7.79-20.57,15.57-31.58,22.37c-10.77,6.64-22.19,11.61-34.47,14.55
		c-9.18,13.99-4.21,33.45,2.5,43.06c-0.77,1.57-1.87,1.75-4.19,0.03c8.83,19.21,12.41,37.86,2.4,57.56
		c-0.39,0.27-1.41-0.34-2.56-0.85c-3.01,11.76-7.27,23.06-13.38,33.5c-5.52,9.42-11.05,18.85-16.81,28.14
		c-7.98,12.9-15.74,25.96-22.36,39.65c-8.31,17.17-19.03,33.06-27.09,50.33c-10.4,22.26-21.99,44.03-29.06,67.74
		c-1.12,3.77-1.12,7.73-2.53,11.41c-0.4,1.04,0.53,1.84,0.87,2.75c4.15,11.35,10.22,21.66,17.13,31.5c1.04,1.48,2.51,2.56,3.91,3.74
		c10.67,8.95,22.6,16.17,33.5,24.81c2.78,2.2,6.1,3.76,9.28,5.4c2.17,1.12,4.54-0.08,6.55-0.55c6.9-1.62,13.59-1.14,19.48,2.4
		c4.94,2.97,10.26,2.79,15.45,3.86c15.48,3.2,28.99,9.33,39.07,22.43c7.66,9.96,11.32,21.3,13.33,33.09
		c1.19,6.99,0.78,14.46-0.44,21.78c-0.89,5.31-1.82,10.62-2.87,15.9c-1.3,6.56-6.63,9.25-12.04,10.55
		c-4.69,1.12-9.72,1.55-14.74,1.39c-3.18-0.1-6.43-0.42-9.22-1.34c-4.45-1.48-7.68,0.39-10.82,2.46c-4.84,3.2-10.29,4.23-15.75,4.62
		c-6.22,0.44-12.62,0.89-18.65-1.35c-1.53-0.57-2.01,0.18-2.97,0.75c-9.8,5.77-20.38,8.6-31.77,8.78
		c-10.27,0.16-20.37-0.9-30.25-3.56c-1.72-0.46-2.8-0.08-4.13,0.51c-4.7,2.1-9.52,3.17-14.77,3.1c-7.64-0.11-15.24,0.11-22.88-0.92
		c-3.74-0.5-6.62-2.55-10.03-3.49c-6.36-1.76-10.26-5.74-13.64-11.71c-5.71-10.1-14.36-17.74-25.37-22.3
		c-3.3-1.37-5.92-3.73-8.61-6.12c-4.25-3.8-8.89-7.21-13.61-10.43c-2.16-1.47-3.11-2.94-3.18-5.56c-0.14-5.25-2.87-9.99-3.32-15.25
		c-0.37-4.23-1.57-8.36-1.63-12.66c-0.13-8.77-1.03-17.51-1.18-26.3c-0.09-5.43-1.89-10.9-3.37-16.22
		C589.98,1947.91,590.86,1945.62,588.84,1943.14z M584.44,1627.37c-1.17,2.51,0.79,4.69,0.76,7.15
		c-0.25,18.87,0.18,37.72-1.92,56.56c-0.97,8.64-1.45,17.38-2.02,26.07c-0.63,9.53-1.65,19.05-2,28.57
		c-0.53,14.41-1.68,28.8-1.21,43.25c0.33,10.31,0.05,20.64,0.08,30.96c0,1.48-0.03,2.95,0.24,4.45c1.33,7.38,2.78,14.76,3.65,22.2
		c0.7,6.03,2.62,11.18,7.3,15.12c3.21-3.66,5.85-7.43,6.58-12.33c0.27-1.8,0.19-3.59,0.51-5.39c1.69-9.5,3.98-18.94,3.69-28.7
		c-0.57-19.24,0.76-38.49-0.84-57.75c-0.88-10.66-1.23-21.38-2.03-32.07c-0.99-13.12-2.03-26.24-3.02-39.36
		c-1-13.21-1.56-26.48-1.12-39.75c0.21-6.21-0.86-12.54,1.88-18.49c0.07-0.15-0.31-0.51-0.65-1.02
		C591.21,1628.34,587.87,1627.94,584.44,1627.37z"/>
</g>
<g>
	<path class="st0" d="M731.44,220.52c2.52-4.07,2.43-4.79-2.29-5.51c-8.68-1.33-13.41-7.15-17.06-14.22
		c-2.68-5.19-4.67-10.59-6.36-16.28c-2.39-8.07-4.8-16.13-6.67-24.34c-0.2-0.9-0.69-1.62-1.35-2c-6.16-3.49-8.45-10.29-12.84-15.3
		c-5.85-6.68-12.63-11.89-20-16.41c-10.69-6.56-22.65-9.98-34.87-12.28c-3.03-0.57-6.19-0.47-9.11-1.76
		c-1.41-0.62-2.89-0.83-4.13,0.47c-1.4,1.47-0.28,2.73,0.31,4.05c5.18,11.4,5.22,11.61,4.82,19.7c-3.7-4.06-5.93-8.81-9.85-12.33
		c-7.91-7.09-17.06-10.73-27.54-11.3c-17.36-0.96-33.25,4.1-48.66,11.58c-12.08,5.87-23.48,12.82-34.91,19.82
		c-4.67,2.86-9.37,5.84-14.51,8.01c-3.73,1.58-6.07,5.47-10.06,6.92c-1.98,0.72-3.84,1.79-5.82,2.52c-2.41,0.9-2.81,2.14-1.75,4.55
		c4.32,9.79,5.96,20.22,5.13,30.75c-0.68,8.59-2.41,17.15-4.31,25.58c-2.1,9.35-4.7,18.6-7.1,27.87
		c-1.67,6.41-1.72,13.33-2.58,19.98c-2.26,17.34-2.13,34.74-1.72,52.11c0.32,13.23,1.46,26.47,5.71,39.21
		c0.3,0.91,1.77,2.35-0.38,3.78c-5.66-11.29-11.98-22.17-15.45-34.39c-3.14-11.09-3.96-22.49-5.33-33.87
		c-1.24-10.27,0.49-20.23,0.59-30.31c0.09-8.78,1.04-17.65,1.72-26.47c0.04-0.5-0.15-1.11,0.08-1.48c2.24-3.6,1.14-7.75,1.97-11.56
		c0.6-2.73,0.23-5.35,0.11-8.07c-0.2-4.57-0.36-9.16,0.63-13.83c1.28-6.09-0.38-11.63-4.3-17.02c-5.34-7.32-12.12-11.72-20.25-15.32
		c-7.13-3.16-14.76-5.13-21.53-9.09c-1.37-0.8-2.76,0.57-4.79-0.29c4.86-5.66,9.38-10.76,17.21-11.02c3.6-0.12,4.23-1.21,3.6-4.65
		c-2-10.85-0.91-21.29,3.78-31.43c5.83-12.62,12.62-24.66,20.16-36.33c2.93-4.54,4.36-9.83,4.35-15.37c-0.01-4.1,0-8.2,0.37-12.35
		c5.21,8.79,8.23,18.02,5.94,28.32c-0.33,1.49-0.35,2.62,0.96,3.45c1.41,0.89,2.57,0.23,3.47-0.89c3.09-3.82,6.12-7.7,9.22-11.52
		c4.1-5.04,7.56-10.63,12.84-14.66c1.99-1.52,1.65-3.54-0.91-4.45c-5.4-1.92-9.09-12.68-7.8-17.12c0.39-1.33,1.52-2.84,2.62-2.7
		c3.42,0.42,6.37-1.93,10.15-0.64c3.74,1.28,8.18,0.12,12.2,1.34c0.46,0.14,1.18-0.17,1.47,0.08c4.61,4.16,7.63,0.24,10.98-2.08
		c17.98-12.45,37.44-21.69,58.8-26.58c5.89-1.35,12.04-1.6,17.96-2.63c7.03-1.22,13.83-0.21,20.62,0.37
		c12.69,1.08,25.12,3.91,37.1,8.38c13.06,4.87,25.34,11.3,36.66,19.44c9.65,6.93,18.71,14.38,26.08,23.98
		c4.91,6.38,10.04,12.56,13.48,19.82c6.89,14.57,15.41,28.43,20,44.01c1.76,5.98,4.23,11.53,7,17.07c2.71,5.42,7.04,9.63,9.92,14.85
		c0.63,1.14,2.16,2.17,0.54,4.07c-2.03-1.54-4.11-2.98-6.01-4.63c-1.61-1.39-3.27-1.83-4.87-0.4c-1.71,1.52-0.53,2.82,0.59,4.23
		c8.35,10.48,15.99,21.47,23.87,32.3c6.83,9.38,14.11,18.45,20.52,28.13c10.08,15.23,17.05,31.75,20.28,49.88
		c1.88,10.59,3.79,21.19,2.74,31.88c-1.12,11.5,0.54,23.47-4.87,34.38c-2.61,5.27-4.76,10.7-5.6,16.58
		c-0.33,2.31-2.36,4.43-0.5,6.98c0.47,0.64-0.23,1.53-0.66,2.27c-2.91,5.09-3.47,10.78-4.29,16.45c-0.92,6.32-4.63,11.45-8.01,16.61
		c-4.49,6.86-10.81,11.91-17.57,16.39c-1.69,1.12-3.86,1.95-3.18,4.35c0.73,2.58,3.45,2.24,5.09,1.69
		c7.33-2.45,11.16,3.33,16.25,5.87c-0.21,1.6-1.07,1.16-1.58,1.2c-1.76,0.15-3.98-0.54-4.77,1.69c-0.84,2.35,1.64,2.7,2.79,3.95
		c6.48,7.08,15.17,11.96,19.99,20.72c2.34,4.25,4.39,8.36,4.07,13.37c-0.3,4.79,0.11,9.56,0.95,14.29c0.18,1.02,0.2,2.27,1.22,2.51
		c2,0.48,1.96,2.22,2.23,3.46c2.11,9.98,7.3,18.78,10.71,28.26c2.56,7.12,4.8,14.21,4.9,21.86c0.04,3.51-0.91,6.74-2,10.02
		c-1.16,3.53-0.92,7.4-3.77,10.55c-1.4,1.55-2.98,3.04-4.05,4.78c-4.79-0.99-7.66-4.49-8.13-10.47c-0.3-3.78-1.24-6.89-4.47-9.26
		c-1.2-0.89-1.83-2.67-2.5-4.15c-1.68-3.77-4.4-6.54-7.79-8.79c-2.83-1.88-4.51-5.76-8.83-5.01c-7.21-7.78-14.71-2.03-21.66,0.1
		c-7.89,2.42-15.21,6.56-22.64,10.3c-9.12,4.59-18.25,9.17-28.59,11.14c-16.39,3.12-29.85-1.61-39.85-14.39
		c-7.51-9.59-13.77-20.29-15.97-32.62c-1.46-8.16-1.65-16.42,0.88-24.46c2.77-8.83,5.77-17.6,8.72-26.55
		c9.56-1.86,19.26-3.48,27.9-8.37c6.63-3.75,13.4-7.7,18.32-13.44c4.23-4.93,8-10.81,8.37-17.77c0.53-10.11,4.07-18.9,9.88-27.16
		c7.23-10.26,14.3-20.66,19.51-32.2c3.16-6.99,6.36-14.03,7.99-21.47c0.82-3.72,1.81-7.71,1.33-11.71c-0.19-1.63,0.56-3.02,1-4.53
		c2.12-7.17,4.59-14.23,5.45-21.77c0.45-3.93-1.29-7.12-2.51-10.29c-3.63-9.41-6.8-19.01-11.36-28.07
		c-3.1-6.16-6.99-11.62-12.29-15.87C739.54,224.78,735.33,222.84,731.44,220.52z"/>
	<path class="st0" d="M1128.56,813.2c-32.88,27.97-69.69,46.58-113.95,47.86c2.35,2.91,5.39,1.67,8.05,1.79
		c2.92,0.13,4.69,2.1,6.96,3.61c-4.55,3.2-9.51-1.45-13.98,0.93c0.54,2.39,2.91,0.93,4.4,2.13c-4.88,7.81-6.87,16.56-5.86,25.61
		c1.17,10.53,2.66,21.04,5.09,31.41c3.87,16.52,9.86,32.37,14.9,48.51c3.68,11.81,7.27,23.69,9.59,35.78
		c1.97,10.24,3.58,20.63,4.38,31.11c0.89,11.64,2.35,23.22,3.11,34.89c0.67,10.17,2.01,20.3,1.76,30.23
		c-4.11,2.88-8.69,2.1-12.74,2.48c-5.71,0.54-11.5,1.11-17.26,1.5c-6.77,0.46-13.53,0.81-20.31,0.8c-3.19,0-6.25-0.41-8.34-3.44
		c9.21-3.83,18.35-7.58,26.42-13.48c10.83-7.91,18.56-17.68,20.35-31.48c0.65-5.03,2.37-10.01,1.82-15.08
		c-1.02-9.35-0.48-19.09-5.89-27.27c0.36-1.51,1.48-2.08,2.21-2.96c1.38-1.66,3.76-2.64,2.08-5.79c-1.52-2.85-2.68-4.89-6.5-4.56
		c-8.74,0.75-15.87,4.92-22.34,10.25c-6.42,5.3-10.85,12.38-14.33,19.8c-4.76,10.13-12.45,17.44-21.11,23.93
		c-2.11,1.58-3.49,3.99-6.07,5.07c-3.41-3.75-6.4-7.74-8.57-12.57c2.41,1.74,4.81,3.48,7.91,5.72c-1.36-3.7-3.96-5.58-5.48-8.18
		c-7.31-12.45-12.3-25.91-17.74-39.17c-6.49-15.83-10.5-32.5-15.99-48.67c-4.5-13.25-6.98-27.06-11.04-40.45
		c-4.63-15.26-7.81-30.91-12.07-46.27c-4.39-15.85-9.35-31.48-17.03-46.16c-1.16-2.23-0.7-5.42-1.97-7.94
		c-2.72-5.37-4.21-11.35-7.97-16.2c-2.92-3.76-6.03-7.33-10.3-9.69c1.01-0.7,2.24-0.08,3.27-0.45c1.44-0.52,2.64-1.5,2.94-3.07
		c0.29-1.56-0.67-2.43-2.1-2.9c-1.25-0.41-1.98-1.54-3.32-2.03c-13.43-4.99-19.76-15.44-16.72-30.78c0.82-4.12,0.86-8.51,1.14-12.77
		c0.57-8.52,1.77-16.95,3.07-25.37c0.48-3.09-1.06-5.8-1.04-8.8c0.03-3.94,0.5-7.89-0.83-11.82c-0.86-2.54-0.01-5.33,1.1-7.68
		c6.21-13.08,12.21-26.36,25.11-35.79c29.64,37.14,35.32,79.11,24.59,124.5c1.99-2.22,2.19-5.22,5.08-7.51c0,2.82,0,4.92,0,7.01
		c0,2.1-1.85,3.98-0.66,6.3c2.68-3.37,2-7.83,4.15-11.5c5.67-9.68,10.49-19.86,16.05-29.62c4.84-8.5,9.79-16.95,15.45-24.95
		c8.97-12.69,19.47-23.82,31.67-33.62c14.77-11.86,31.34-20.62,47.52-30.12c8.02-4.71,16.06-9.38,24.1-14.04
		c0.7-0.41,1.52-0.6,2.81-1.09c-2.57,20.31-10.97,38.04-20.92,55.24c4.29-4.19,6.18-9.93,10.14-14.29
		c-8.4,32.73-25.51,60.72-47.26,86.07c1.49,1.41,2.3-0.76,3.77,0.16c-0.43,3.97-4.45,6.03-5.69,9.63c3.45,1.12,5.9-3.2,9.4-1.78
		c-0.37,2.42-3.1,2.35-4.78,4.98c4.52-1.97,8.1-3.79,11.85-5.12c10.16-3.61,20.47-6.35,31.34-7.33c6.63-0.6,13.25-1.21,19.8-0.68
		c10.14,0.82,20.34,1.05,30.42,2.73c4.2,0.7,8.52,0.44,12.8,0.96c5.2,0.64,10.52,0.94,15.76,1.37c11.86,0.99,23.7,1.83,35.61,1.87
		c3.79,0.01,7.4-2.17,11.55-0.58c-2.92,6.14-7.26,11.32-12.52,15.34c-4.48,3.42-8,7.77-12.61,11.06
		c-9.79,6.99-20.48,12.19-31.35,17.09c-12.02,5.42-24.42,9.87-36.66,14.75c-0.43,0.17-0.79,0.53-1.03,1.19
		C1092.68,828.7,1111.04,822.09,1128.56,813.2z M943.38,840.38c-7.25-2.82-12.23,2.51-18.15,4.5c0.9-6.33,3.66-11.86,2.18-17.9
		c-4.96,5.68-9.51,11.39-10.05,19.11c1.73-4.65,4.02-8.96,7.45-13.19c1.04,5.98-2.58,10.96-1.56,16.48
		c8.94-6.28,11.45-7.42,15.76-6.85c-3.29,2.6-4.83,6.23-7.45,9.09C936.52,849.3,940.5,845.97,943.38,840.38z"/>
	<path class="st0" d="M1052.01,1154.2c-1.11,8.32-2.1,16.25-3.23,24.16c-0.83,5.82-1.8,11.62-2.75,17.42
		c-1.55,9.5-3.2,18.99-4.7,28.5c-1.79,11.28-3.95,22.49-6.28,33.66c-3.19,15.3-6.45,30.58-11.27,45.47
		c-3.36,10.37-6.67,20.75-10.75,30.86c-7.47,18.5-15.9,36.53-25.64,53.97c-6.36,11.39-12.64,22.83-19.43,33.97
		c-7.49,12.27-15.79,23.99-24.33,35.55c-11.18,15.14-24.56,28.28-38.27,40.98c-12.74,11.79-26.07,23-40.53,32.74
		c-8.39,5.65-16.48,11.78-25.83,15.88c-0.47,0.21-0.86,0.39-1.46,0.17c-1.47-1.43,2.16-2.92-0.13-4.32
		c-3.14,1.77-1.88,7.77-7.45,7.97c3.16-6.25,5.32-12.7,7.31-19.24c-4.19,4.87-6.82,10.59-9.14,16.43c-1.09,2.73-2.31,4.86-5.94,5.37
		c5.55-12.2,10.86-24.03,16.31-35.79c11.32-24.42,23.63-48.4,33.23-73.58c5.97-15.65,10.39-31.83,14.35-48.12
		c3.2-13.16,5.94-26.43,7.75-39.81c1.47-10.86,3.29-21.69,4.38-32.63c1.16-11.63,2.17-23.24,3.08-34.89
		c0.75-9.62-0.19-19.26,0.93-28.76c1-8.47,0.1-16.93,1.01-25.3c0.59-5.46-0.22-11.1,1.08-16.26c1.65-6.48,2.36-13.15,4.27-19.52
		c0.77-2.58,0.33-5.15,1.09-7.76c0.98-3.39,2.79-3.95,5.42-3.34c10.97,2.55,20.23-1.25,28.82-7.55c1.47-1.08,2.93-1.97,4.65-2.62
		c4.79-1.79,9.03-4.29,12-8.78c1.74-2.64,4.22-4.36,7.61-5.39c11.52-3.51,23.13-6.17,35.21-5.7c6.21,0.24,12.46,0.94,18.58,2.07
		c9.97,1.85,19.06-0.11,27.71-5.06C1050.23,1154.64,1050.92,1154.55,1052.01,1154.2z"/>
	<path class="st0" d="M199.06,1403.45c1.88,0.74,1.76,2.46,2.63,3.76c1.15-2.23-0.38-4.07-0.47-5.99
		c-0.28-6.25-1.75-12.42-1.87-18.6c-0.15-7.3-1.75-14.49-1.2-21.8c1.14-15.19,2.62-30.32,7.04-45
		c7.78-25.81,17.49-50.86,29.98-74.75c6.72-12.87,13.95-25.46,22.95-36.99c2.61-3.34,5.7-1.35,8.34-2.54
		c0.05-3.59-1.71-7.49,2.01-11.46c1.32,6.85,2.24,12.89,3.57,18.85c1.93,8.65,2.76,17.44,3.39,26.32c0.64,8.97,0,17.92,0.78,26.81
		c1.08,12.35,0.86,24.77,1.97,37.1c1.15,12.75,2.32,25.51,4.08,38.18c1.86,13.41,4.28,26.74,6.71,40.07
		c2.66,14.61,6.26,28.96,10.25,43.22c5.95,21.24,14.51,41.48,23.91,61.4c5.79,12.26,11.62,24.5,17.4,36.76
		c6.82,14.46,13.4,29.04,20.72,43.24c4.82,9.35,2.5,18.48,0.37,27.73c-0.64,2.77-2.78,3.49-5.38,2.97
		c-16.89-3.39-32.84-9-47.89-17.71c-14.13-8.18-27.18-17.54-39.16-28.59c-15.55-14.34-28.69-30.5-39.16-48.91
		c-7.86-13.8-14.64-28.03-19.94-43.03c-3.75-10.62-6.58-21.49-8.64-32.49C200.33,1416,199.32,1409.8,199.06,1403.45z"/>
	<path class="st0" d="M343.03,293.02c7.5,12.18,13.95,24.8,23.44,36.06c-3.44,1.31-3.8,3.42-2.4,6.55c2.07,4.64,4.12,9.4,7.21,13.31
		c5.11,6.46,7.49,14.59,13.12,20.61c5.28,5.65,11.17,10.07,19.65,9.11c2.34-0.27,4.78,0.29,7.21,0.47c-1.5,2.41-3.84,3.5-6.34,4.57
		c-4.48,1.91-6.17,6.32-7.53,10.38c-0.72,2.15-1.5,4.67-1.29,7.21c0.26,3.17,1.71,4.76,4.36,3.39c4.08-2.12,8.65-1.26,12.81-3.07
		c4.06-1.77,7.57-4.41,11.76-6.26c-0.13,4.01-1.94,7.65-1.91,11.58c0.04,4.94-0.01,4.83,4.83,4.17c3.96-0.54,7.28,1.83,10.65,3.23
		c9.03,3.75,18.25,6.93,27.45,10.21c6.12,2.18,11.95,5.18,17.9,7.84c8.11,3.62,16.69,5.43,25.67,7c3.76,6.07,7.98,12.26,11.32,18.96
		c6.81,13.63,13.89,27.24,16.83,42.31c1.56,8,1.9,16.21,0.66,24.57c-0.9,6.03-1.31,11.94-4.23,17.45
		c-6.32,11.92-15.88,19.08-29.32,21.37c-8.67,1.48-17.33,2.31-26.08,1.89c-12.32-0.58-24.27-2.8-35.63-7.91
		c-9.19-4.13-18.36-8.78-28.28-10.53c-12.12-2.14-24.56-3.52-36.39,1.81c-7.22,3.25-12.38,9.01-16.17,15.75
		c-1.49,2.65-3.49,5.1-4.67,8.11c-1.01-3.75-1.42-7.72,0.57-11.04c2.41-4.01,1.23-6.73-1.31-9.97c-5.66-7.2-7.43-16.02-7.53-24.71
		c-0.09-8.09,2.93-15.85,6.08-23.48c4.22-10.2,9.31-20.08,12.14-30.84c0.57-2.17,0.78-4.16-0.02-6.27c-0.73-1.92-0.8-3.94,0.02-5.81
		c1.27-2.9,0.12-4.8-1.8-7.03c-13.16-15.24-25.93-30.8-35.03-48.93c-3.59-7.15-5.76-14.73-6.84-22.82c-1.04-7.81-1.1-15.6-0.64-23.3
		c0.8-13.39,3.8-26.38,9.13-38.84c3.07-7.18,7.44-13.74,9.84-21.23C342.87,296.99,343.71,295.29,343.03,293.02z"/>
	<path class="st0" d="M798.26,863.39c8.08-15.52,17.18-30.53,18.75-48.16c3.16-0.61,4.58-0.17,5.17,2.84
		c1.15,5.89,2.71,11.74,7.41,16.93c2.11-7.11,3.02-13.91,4.47-20.59c2.39-11,2.75-22.37,6.07-33.19c1.17-3.83,2.34-7.76,5.98-10.9
		c0,2.85,0,5.28,0,7.7c0.22,0.02,0.45,0.04,0.67,0.06c1.23-7.11,2.46-14.23,3.7-21.34c0.2,0.01,0.4,0.01,0.59,0.02
		c0,2.61,0.38,5.3-0.08,7.83c-0.82,4.5,1.92,8.46,1.52,12.85c-0.04,0.48,0.7,1.08,1.17,1.54c4.66,4.61,8.86,9.77,15.11,12.25
		c-0.67,2.28-3.22,1.05-4.53,3.42c7.09,6.51,13.29,14.1,17.11,23.26c-0.3,0.23-0.61,0.47-0.91,0.7c-2.91-2.82-5.82-5.63-9.33-9.02
		c3.08,5.26,6.79,9.2,9.29,13.96c5.38,10.23,10.65,20.5,14.56,31.38c5.51,15.33,8.76,31.3,13.13,46.95
		c2.06,7.36,4.76,14.54,6.85,21.89c5.47,19.24,10.69,38.56,16.18,57.79c2.46,8.6,5.21,17.13,8.05,25.62
		c3.51,10.48,6.78,21.09,11.04,31.27c3.61,8.63,6.5,17.76,12.95,25.19c-0.83,1.59-1.66,3.15-2.87,5.45
		c-2.56-11.31-8.86-19.5-17.14-26.41c1.14-1.68,2.2-3.08,3.09-4.58c1.77-2.98,0.34-6.34-3-7.24c-7.24-1.94-14.66,0.88-18.98,7.3
		c-2.18,3.24-4.35,6.49-6.36,9.86c-1.95,3.27-3.95,6.55-7.29,8.97c-3.76,2.73-4.11,8.04-7.29,11.45c-0.9,0.97,1.75,2.54-0.24,4.49
		c-1.18-3.69-2.34-7.16-4.07-10.37c-6.75-12.55-14.76-24.25-23.32-35.62c-4.71-6.26-9.11-12.75-13.64-19.14
		c-0.09-0.13-0.07-0.36-0.18-0.45c-6.47-5.14-9.03-13.19-14.28-19.15c-3.3-3.75-7.47-6.85-11.76-9.6c0.98-2.78,4.64-0.58,5.82-3.13
		c-0.22-1.07-0.98-1.45-2.03-1.58c-7.16-0.9-14.15-2.51-20.48-6.05c-6.77-3.78-13.86-7.13-18.13-14.31
		c-1.34-2.26-4.11-3.74-6.35-5.4c-14.35-10.63-26.48-23.22-34.18-39.52c-3.36-7.11-5.11-14.8-5.38-22.71
		c-0.18-5.33,0.1-10.67-0.07-16c-0.2-6.31,1.07-12.45,2.15-18.57c1.43-8.09,3.13-16.11,2.91-24.39c-0.02-0.64-0.06-1.33,0.69-1.91
		c2.33-0.49,3.2,1.3,4.35,2.98c4.96,7.22,7.61,15.48,10.97,23.44c2.21,5.24,3.9,10.6,4.35,16.48c2.19-0.78,1.6-2.32,1.58-3.45
		c-0.15-7.81,1.72-15.24,4.1-22.58c0.2-0.61,0.62-1.15,0.88-1.75c0.77-1.73,1.79-3.52,3.9-3.13c2.14,0.39,2.86,2.13,3.23,4.37
		c1.13,6.77,2.32,13.53,2.96,20.37C797.18,862.51,797.66,862.96,798.26,863.39z"/>
	<path class="st0" d="M571.39,1154.65c5.24,1.24,9.8,2.43,14.14,4.33c3.23,1.41,6.31,1.15,9.51-0.08c3.94-1.51,7.96-2.83,11.99-4.24
		c5.85,13.32,6.54,26.58,2.58,40.3c-3.07,10.63-5.9,21.41-7.29,32.36c-1.11,8.77-2.68,17.47-3.5,26.32
		c-1.24,13.38-1.25,26.74-1.83,40.11c-1.05,24.59-1.06,49.18-0.76,73.77c0.1,8.32,1.48,16.63,2.57,24.93
		c0.83,6.33,1.68,12.68,2.28,19.05c0.66,7.01,1.73,13.96,2.79,20.91c0.89,5.83,1.57,11.69,2.21,17.55
		c0.92,8.45,2.21,16.85,3.67,25.22c1.28,7.4,2.32,14.86,3.33,22.3c1.06,7.78,1.99,15.59,2.93,23.39c0.14,1.15,0.03,2.33,0.09,3.49
		c0.49,9.08-0.5,18.16,0.59,27.29c0.43,3.65-0.87,8.04-3.42,11.49c-1.83,2.48-3.46,5.11-5.15,7.61c2.51,3.39,5.64,1.51,9.63,0.93
		c-5.65,5.16-9.64,10.31-12.69,16.18c-4.81,9.23-6.74,19.35-8.73,29.37c-0.58,2.94-2.1,4.15-4.02,5.45c-1.04,0.7-2.4,0.94-3.66,1.31
		c-5.53,1.6-6.35,1-5.6-4.49c0.57-4.22-1.34-8.05-2.2-12.01c-1.38-6.34-3.19-12.62-5.82-18.59c-1.79-4.05-4.27-7.73-7.33-10.94
		c-1.71-1.79-3.74-3.27-5.9-5.14c3.37-2.4,6.76,2.29,9.2-1.7c0.09-1.74-1.55-3.1-2.55-4.25c-4.04-4.63-5.55-9.85-5.39-15.87
		c0.2-7.32-0.01-14.66,0.06-21.99c0.12-12.51,1.72-24.85,3.77-37.19c1.58-9.5,2.95-19.07,4.38-28.61
		c1.67-11.15,2.9-22.36,4.57-33.52c1.33-8.89,2.46-17.86,3.43-26.83c0.75-6.97,1.6-13.97,2.55-20.93c0.61-4.52,1.26-9.14,1.28-13.76
		c0.03-6-0.13-12,0.03-17.99c0.69-25.94-1.02-51.84-1.28-77.77c-0.11-11.21-1.99-22.49-3.44-33.71
		c-2.04-15.78-6.09-30.99-9.95-46.32c-2.58-10.22-1.63-20.54,1.21-30.66C570.28,1159.55,571.26,1157.48,571.39,1154.65z"/>
	<path class="st0" d="M323.81,221.02c-9.67,7.28-17.92,17.61-30.87,19.38c-12.99,1.78-26.21,1.84-37.79-7.27
		c7.08-3.86,14.15-7.18,20.49-11.88c6.86-5.08,13.44-10.46,19.84-16.1c3.57-3.14,7.03-6.44,11.05-9.01c2.18-1.4,3.37-2.99,2.19-6.01
		c-23.2,0.52-41.34-8.7-53.03-29.58c15.07-3.79,30.34-6.59,45.59-9.33c6.4-1.15,12.95-2.23,19.55-2.23c2.13,0,4.17,0.18,6.31,0.8
		c4.01,1.17,5.22-0.52,4.1-4.64c-2.4-8.87-4.63-17.86-3.98-27.09c0.47-6.73,0.96-13.62,4.23-20.59c6.18,3.91,11.36,8.16,15.7,13.58
		c8.18,10.22,15.66,20.88,22.06,32.31c0.31,0.56,0.99,1.42,1.35,1.35c5.86-1.11,7.73,4.56,11.42,6.95
		c4.11,2.66,7.29,6.76,10.99,10.34c-1.46,1.22-2.22,2.01-4.23,1.37c-7.04-2.27-14.22-1.75-21.46-0.45
		c-8.17,1.47-16.47,2.23-24.37,5.02c-2.15,0.76-4.33,1.43-6.51,2.06c-3.2,0.92-5.6,3.04-7.18,5.74c-4.16,7.13-5.83,15.04-7.29,23.14
		C320.6,206.43,321.71,213.44,323.81,221.02z"/>
</g>
</svg>
