<?xml version="1.0" encoding="utf-8"?>
<!-- Generator: Adobe Illustrator 24.0.2, SVG Export Plug-In . SVG Version: 6.00 Build 0)  -->
<svg version="1.1" id="Layer_1" xmlns="http://www.w3.org/2000/svg" xmlns:xlink="http://www.w3.org/1999/xlink" x="0px" y="0px"
	 viewBox="0 0 728.6 1270.32" style="enable-background:new 0 0 728.6 1270.32;" xml:space="preserve">
<style type="text/css">
	.st0{fill:#1A1A1A;}
</style>
<g>
	<path d="M222.72,1255.78c-3.78-3.69-4.69-9.73-10.04-11.9c-4.63,0.8-5.21,6.25-9.5,7.38c-0.89,0.04-1.68-0.68-1.96-1.61
		c-1.88-6.29-4.41-12.51-5.28-18.95c-0.88-6.51,0-13.26,4.05-18.98c2.11-2.98,4.41-5.82,7.02-9.23c9.65,0.87,16.56-6.48,25.16-9.58
		c3.1-1.11,4.87-4.42,6.06-7.64c2.08-5.61,4.26-11.14,4.76-17.23c0.79-9.59,3.24-18.92,5.33-28.77c-3.6-1.38-6.94-2.71-10.32-3.95
		c-26.99-9.91-50.26-25.5-70.83-45.51c-30.81-29.96-52.92-65.64-70.25-104.61c-13.86-31.16-23.69-63.53-29.24-97.16
		c-1.62-9.81-2.92-19.72-3.05-29.74c-0.07-5.62-1.27-11.24-1.19-16.85c0.46-30.01,4.27-59.61,11.86-88.67
		c8.1-31,19.41-60.82,33.5-89.56c15.74-32.11,34.42-62.33,58.86-88.68c5.42-5.84,11.35-11.22,17.17-16.68
		c3.23-3.03,5.5-6.59,7.35-10.57c4.35-9.34,8.88-18.6,13.71-28.64c-4.36-6.79-2.35-13.27,2.19-20.43
		c5.06-7.99,8.42-17.06,12.45-25.7c0.91-1.94,0.3-3.93-0.54-5.78c-3.58-7.92-7.48-15.68-13.76-21.84
		c-9.75-9.55-19.31-19.33-29.64-28.23c-10.35-8.92-17.91-19.57-23.44-31.87c-4.9-10.9-8.63-22.27-15.11-32.53
		c-4.79-7.59-3.56-11.7,2.95-18.58c7.57-8,14.45-16.33,18.63-26.85c3.2-8.06,8.58-14.94,15.59-20.38c4.51-3.5,8.15-7.69,10.49-13.08
		c3.66-8.43,9.76-15.11,16.75-20.85c8.92-7.31,15.21-15.96,20.03-26.71c6.76-15.09,18.05-26.31,36.02-27.97
		c4.29-0.4,8.47-1.84,12.85-1.32c15.91,1.89,28.97-5.78,42.28-12.61c4.34-2.22,6.13-5.79,5.73-10.65
		c-1.03-12.64-2.42-25.22-10.37-35.78c-10.13-13.47-12.42-28.22-8.6-44.43c2.62-11.11,3.54-22.28-2.05-33.06
		c-1.53-2.95,0.68-12.61,3.48-15.89c10.15-11.91,20.56-23.6,32.25-34.04c6.14-5.49,13.65-8.62,21.7-9.23
		c11.9-0.89,23.84-1.69,35.76,0.91c9.72,2.11,17.28,7.14,22.41,15.3c9.87,15.69,14.88,33.32,18.87,51.23
		c0.78,3.51,0.55,7.3,0.47,10.95c-0.2,8.54-1.44,16.96-0.2,25.63c1.15,8-1.8,15.82-5.33,23.05c-2.27,4.65-3.39,9.32-3.13,14.43
		c0.14,2.66,0.24,5.35-0.01,7.99c-1.07,10.97,0.86,20.91,7.72,30.04c3.1,4.12,4.37,9.63,6.45,14.52c3.33,7.83,6.1,9.57,14.44,9.21
		c3.66-0.16,7.33-0.09,10.98-0.27c14.49-0.69,25.54,6,34.83,16.33c4.89,5.44,10.13,10.81,11.42,18.41c1,5.88,1.88,11.84,2.07,17.79
		c0.2,5.94,0.48,11.89-0.84,17.89c-1.46,6.62,0.19,13.18,2.29,19.59c2.38,7.27,4.64,14.58,6.6,21.97
		c3.49,13.18,2.43,26.43-0.57,39.49c-1.77,7.73-1.83,15.2,0.87,22.59c5.11,14,6.76,28.45,5.71,43.2
		c-0.66,9.26-0.82,18.42-0.07,27.72c1.24,15.44-2.62,30.42-5.9,45.32c-5.65,25.66-10.05,51.48-12.03,77.7
		c-0.79,10.46-5.14,19.89-9.39,29.29c-3.97,8.79-8.09,17.52-12.1,26.29c-3.52,7.69-3.49,7.71-1.47,17.2
		c2.62,1.01,4.17-1.02,5.91-2.31c15.89-11.81,33.92-17.83,53.38-20.59c22.29-3.17,44.51-2.34,66.56,0.96
		c24.01,3.59,44.77,13.93,61.66,32c25.14,26.89,42.11,58.03,50.33,93.83c3.27,14.24,5.71,28.77,5.05,43.43
		c-1.28,28.62-7.45,55.95-23.69,80.24c-8.42,12.6-19.09,22.97-31.37,31.75c-0.81,0.58-1.71,1.05-2.49,1.67
		c-20.07,15.94-43.45,20.97-68.35,20.07c-16.83-0.61-32.84-4.77-47.21-14.08c-5.92-3.84-11.32-8.18-15.37-14.05
		c-0.87-1.27-1.35-3.14-4.15-3.13c-1.17,9.58-2.33,19.29-4.27,28.89c-1.85,9.15-3.93,18.2-6.85,27.05
		c-1.06,3.22-1.68,6.29-0.97,9.74c5.07,24.74,9.82,49.55,15.08,74.25c2.08,9.73,4.59,19.54,12.44,26.71
		c2.31,2.11,2.4,4.86,1.41,7.38c-1.61,4.13-0.82,7.72,1.33,11.32c7.56,12.68,12.05,26.63,16.52,40.56
		c4.95,15.4,12.97,29.09,22.27,42.2c8.57,12.07,17.35,11.2,26.89,6.92c2.72-1.22,5.28-2.81,8.34-4.46
		c5.9,3.56,10.22,9.03,13.95,14.78c5.91,9.12,12.38,18.03,14.37,29.15c1,5.6,1.14,7.68-0.35,14.65c-3.33,1.91-7.22-0.2-11.19,1.65
		c-1.49,4.31,1.01,9.48-0.89,13.63c-2.67,2-5.24,1.37-7.15,0.5c-5.27-2.4-10.46-1.46-15.68-0.43c-7.02,1.39-13.89,1.61-20.44-1.77
		c-2.48-1.28-5.1-1.4-7.78-1.4c-3.67,0-7.35,0.2-10.99-0.07c-7.92-0.6-14.91-2.95-19.41-10.31c-1.71-2.8-4.16-5.18-6.43-7.61
		c-4.81-5.12-10.69-7.66-17.82-7.38c-6.33,0.24-12.57,0.01-18.71-2.2c-14.26-5.12-22.52-15.58-22.8-30.64
		c-0.25-13.62-0.55-27.25,1.69-40.83c1.35-8.16,1.49-16.52,2.19-24.79c0.4-4.73-0.09-9.75-2.04-13.66c-3.62-7.25-3.43-14.74-4-22.32
		c-0.42-5.61-1.27-11.2-2.17-16.77c-0.23-1.46-0.75-3.14-2.71-4.14c-2.45,4.3-4.87,8.62-7.35,12.9c-8.9,15.33-21.8,26.61-36.3,36.43
		c-32.7,22.15-69.62,32.6-107.9,39.3c-7.78,1.36-15.71,1.82-23.66,2.7c-0.34,6.58,1.55,12.25,3.03,17.97
		c0.83,3.21,2.07,6.32,2.97,9.51c5.24,18.43,2.93,28.06-10.06,41.92c-0.8,4.03,1.89,7.49,2.28,11.43c0.91,9.08-0.75,13.01-8.81,16.9
		c-2.82,1.36-5.28,2.55-6.56,5.59c-2.15,5.12-6.66,7.46-11.64,8.46c-6.62,1.33-12.76,3.02-16.73,9.17c-0.8,1.23-2.68,1.76-4.7,3.02
		c-3.6-8.11-6.15-16.43-14.66-21.42c-5.28,1.81-11.47,4.29-18.22,3.05C227.59,1251.26,226.27,1256.13,222.72,1255.78z
		 M334.07,681.14c-0.37,1.97-0.72,2.94-0.7,3.89c0.36,17.96-7.31,32.8-18.21,46.28c-2.14,2.65-3.85,5.13-4.61,8.57
		c-3.07,13.95-6.32,27.86-9.8,41.71c-1.81,7.19-2.43,14.41-2.04,21.75c0.33,6.33,1.68,12.52,3.41,18.6
		c4.45,15.66,9.11,31.26,13.56,46.91c4.39,15.46,6.81,31.12,5.02,47.28c-1.14,10.29-3.56,20.27-6.23,30.21
		c-1.71,6.36-3.75,12.65-4.39,19.27c4,3.23,8.16,5.18,12.64,6.49c19.8,5.79,36.71-0.25,51.74-13.04
		c13.9-11.82,22.14-27.11,26.55-44.7c3.85-15.35,1.16-31.15,3.56-46.58c0.05-0.32-0.04-0.66-0.1-0.99
		c-1.62-9.15-3.07-18.33-4.9-27.43c-5.32-26.47-9.89-52.97-4.23-79.99c0.76-3.61-0.3-6.26-2.34-9.15
		c-10.66-15.13-17.98-31.78-21.91-49.89c-0.69-3.2-1.21-6.47-3.28-9.49c-5.46-0.95-11.2,0.27-16.71-1.44
		C345.38,687.61,340.49,684.1,334.07,681.14z M671.29,804.44c-0.15-7.97,0.62-15.99-1.06-23.88c-3.28-15.39-8.42-30.07-17.41-43.14
		c-14.42-20.97-33.75-32.38-59.84-29.52c-18.06,1.98-31.57,11.74-41.29,26.6c-9.35,14.3-12.76,30.56-12.99,47.41
		c-0.3,21.6-0.25,43.21,0.06,64.8c0.07,4.65-3.47,9.78-0.57,13.51c2.76,3.55,5.87,7.02,8.85,10.5
		c8.86,10.34,19.76,17.49,32.92,21.34c8.19,2.39,16.56,2.3,24.74,1.55c21.24-1.97,38.68-10.98,50.5-29.48
		C666.87,845.9,671.68,825.88,671.29,804.44z M263.94,445.69c4.5-7.83,8.17-16.06,5.48-25.89c-0.96-3.5-1.78-7.14-1.93-10.75
		c-0.2-4.85-2.55-7.67-6.36-10.41c-10.75-7.72-18.69-17.71-23.39-30.29c-4.92-13.17-6.13-26.82-6.33-41.2
		c-8,5.25-16.74,8.33-26.03,11.57c12.48,12.94,18.9,28.29,21.68,45.31c2.16,13.22,6.96,25.59,12.16,37.81
		c2.33,5.48,5.15,10.83,8.41,15.8C251.2,443.08,255.89,447.3,263.94,445.69z M462.35,480.83c1.54-4.43-0.23-8.57-1.57-12.46
		c-5.91-17.15-4.69-33.95,1.55-50.68c2.55-6.85,4.94-13.75,7.42-20.62c1.83-5.06,2.02-10.17,0.67-17.2
		c-6.8,8.26-14.42,13.35-22.31,17.17C437.07,432.52,440.84,458.53,462.35,480.83z"/>
	<path class="st0" d="M186.8,559.47c-7.61,35.68-3.1,61.47,11.26,93.29c-1.43,10.51-3.59,20.57-3.31,30.93
		c0.23,8.65-0.07,17.33,0.46,25.96c0.93,15.24,3.69,30.14,8.66,44.67c3.96,11.59,7.3,23.4,10.51,35.22
		c1.38,5.08,1.95,10.41,2.49,15.67c0.54,5.27,1.9,10.37,2.2,15.72c0.54,9.77-0.51,19.18-3.48,28.45
		c-3.46,10.82-5.44,21.86-4.83,33.28c0.12,2.33,0.06,4.66,0.01,7c-0.5,22.91,4.69,44.74,12.84,65.94
		c5.24,13.61,10.98,27.03,16.27,40.62c1.91,4.92,3.38,10.05,4.65,15.18c2.15,8.67,4.54,17.34,5.78,26.15
		c1.11,7.85,3.02,15.59,3.1,23.65c0.05,5.22,1.77,10.4,1.39,15.76c-0.51,7.26-1.27,14.52-3,21.56c-1.23,5-1.13,9.11,2.92,12.68
		c0.95,0.84,1.56,2.08,2.59,3.5c-2.25,6.17-4.51,12.33-6.71,18.36c-8.65-0.8-15.84-4.43-22.98-7.72
		c-17.89-8.24-34.52-18.54-48.91-32.2c-3.61-3.42-7.72-6.34-11.13-9.93c-9.61-10.11-18.68-20.69-26.96-31.94
		c-19.65-26.67-34.31-55.96-46.55-86.64c-7.77-19.46-13.91-39.41-18.21-59.82c-2.38-11.27-3.94-22.79-5.32-34.31
		c-1.54-12.94-1.67-25.82-1.71-38.76c-0.04-13.94,1.89-27.68,3.71-41.49c3.91-29.8,13.06-58.11,22.97-86.24
		c3.08-8.74,7.32-17.08,11.16-25.55c10.58-23.31,21.64-46.29,37.18-66.93c7.39-9.81,14.92-19.52,22.51-29.16
		C172.29,574.84,179.12,568,186.8,559.47z"/>
	<path class="st0" d="M535.09,864.23c-4.83,3.95-4.98,9.59-3.33,14.46c2.49,7.36,1.32,14.62,0.52,21.71
		c-0.84,7.5-1.66,15.09-3.37,22.51c-1.64,7.08-3.19,14.18-4.92,21.24c-0.3,1.21-1.26,2.26-2.45,4.29
		c-0.87-6.36-1.54-11.84-2.38-17.3c-0.96-6.21-2.06-12.39-3.13-18.59c-0.17-0.97-0.72-1.92-0.72-2.87
		c0.07-9.96-2.21-19.74-2.14-29.72c0.06-7.65-0.26-15.3-0.46-22.96c-0.03-1.31-0.27-2.63-0.47-3.93
		c-4.03-25.66-6.05-30.71-5.51-54.24c0.02-1-0.03-2,0.01-3c0.61-18.11-2.83-35.63-8.34-52.72c-3.56-11.06-6.25-22.29-8.74-33.6
		c-0.28-1.28-0.4-2.62-0.43-3.94c-0.19-7.65-0.17-15.31-0.55-22.95c-0.33-6.59-1.19-13.16-1.62-19.75
		c-0.23-3.64-0.04-7.3-0.04-11.47c7.03-7.1,15.72-12.7,25.26-16.55c11.98-4.83,24.55-7.6,37.49-9.11
		c9.94-1.17,19.83-1.49,29.76-1.29c10.24,0.21,20.38,1.68,30.53,3.05c7.92,1.07,15.61,2.89,23.31,4.82c1.91,0.48,3.85,1.1,5.58,2.03
		c15.04,8.13,28.67,18.18,39.83,31.15c10.43,12.12,18.97,25.59,26.01,39.97c7.75,15.84,13.79,32.32,17.32,49.61
		c1.32,6.45,2.1,13.07,2.49,19.65c0.51,8.63,0.36,17.3,0.58,25.95c0.14,5.69-1.12,11.2-2.13,16.72
		c-3.88,21.12-10.83,40.96-23.93,58.36c-8.51,11.29-18.88,20.49-30.38,28.54c-1.36,0.95-2.72,1.91-4.08,2.87
		c-13.06,9.22-27.65,13.96-43.54,15.29c-4.92,0.41-9.75,1.83-14.76,1.43c-13.55-1.09-27.07-2.7-39.65-8.16
		c-8.55-3.71-16.41-8.83-22.67-15.92c-4.91-5.55-8.25-11.96-9.33-19.43c-0.55-3.81-1.85-7.52-0.09-11.44
		c0.63-1.4,0.16-3.29,0.2-4.95c3.83-0.22,6.69,0.39,8.72,4.62c1.96,4.08,5.09,7.91,8.54,10.9c8.32,7.23,17.67,12.75,28.53,15.66
		c12.42,3.32,24.73,4.17,37.27,0.87c13.6-3.58,25.08-10.97,34.31-21.11c15.11-16.61,21.05-37.23,22.95-59.18
		c0.26-2.97,0.75-5.91,1.09-8.81c0.73-6.24,1.03-12.73,0.1-18.9c-1.43-9.45-3.73-18.78-7.47-27.72c-4.4-10.5-9.79-20.42-16.8-29.32
		c-8.91-11.31-21.02-18.21-34.46-22.73c-10.32-3.48-21.14-3.59-31.56-1.41c-15.55,3.26-27.85,12.05-36.97,25.22
		c-3.41,4.92-6.9,9.75-8.22,15.7c-1.42,6.4-3.02,12.78-3.83,19.27c-0.45,3.63-1.68,7.16-1.73,10.74
		c-0.21,13.99-0.06,27.98-0.05,41.97c1.43,3.19,0.13,6.37,0.14,9.55C535.43,840.94,534,852.58,535.09,864.23z"/>
	<path class="st0" d="M309.83,969.05c5.88,3.02,11.44,6.32,17.76,6.94c6.26,0.62,12.64,0.48,18.94,0.14
		c6.26-0.34,11.68-3.95,18.01-5.99c-0.58,3.78-4.7,4.13-5.09,7.19c4.51-0.65,5.32-1.33,20.08-16.41
		c6.1-6.23,10.84-13.32,14.66-21.19c3.92-8.08,7.11-16.39,9.81-25.92c1.2,3.14,2.13,5.49,3,7.86c5.08,13.77,11.45,26.91,20.28,38.65
		c5.17,6.88,11.1,13.2,16.9,19.57c4.03,4.43,8.4,8.55,12.68,12.74c9.34,9.13,17.07,19.58,23.45,30.85
		c3.71,6.55,5.76,14.07,8.31,21.24c1.03,2.89,0.14,5.67-1.07,8.62c-7.16,17.5-19.41,30.97-34.04,42.24
		c-12.34,9.51-25.91,17.1-40.1,23.77c-18.81,8.85-38.59,13.61-58.89,17.04c-8.8,1.48-17.54,3.28-26.46,3.73
		c-4.62,0.23-9.27,0.04-14.22,0.04c-1.65-4.09-2.73-8.12-2.73-12.48c0.01-9.64-0.17-19.29-0.09-28.93c0.02-2.35,0.33-4.64-0.9-6.78
		c-4.4-7.67-5.42-16.39-6.61-24.79c-1.19-8.46-2.9-17-2.29-25.67c0.19-2.64,0.05-5.23,0.93-7.86c0.71-2.13,0.53-4.58,0.6-6.89
		c0.2-5.98,0.57-11.97,0.41-17.95c-0.18-6.69,1.33-13.19,2.29-19.68C306.41,982.68,306.64,975.92,309.83,969.05z"/>
	<path class="st0" d="M367.89,160.06c-8.91,5.12-14.18,11.8-19.34,18.72c-9.1,12.22-20.05,22.2-35.23,26.34
		c-4.45,1.22-9.02,2.04-13.54,3c-6.55,1.39-12.62,3.68-18.2,7.59c-5.95,4.17-8.61,9.38-9.01,16.68c-0.34,6.24,3.21,11.35,3.38,17.27
		c2.64,3.9,5.93,7.16,9.85,9.75c0.53,0.35,1.23,0.55,1.87,0.6c6.35,0.48,12.64,0.15,18.56-2.36c5.71-2.42,8.9-6.77,8.99-13.12
		c0.04-2.98,0.01-5.96,0.01-8.91c1.96-0.73,2.33,0.81,3.04,1.57c0.66,0.71,1.07,1.65,1.66,2.62c4.54-2.44,2.28-7.27,3.94-10.61
		c2.38,2.62,3.31,5.74,2.85,9.18c-0.89,6.64-2.6,12.98-7.36,18.05c-1.59,1.69-3.25,3.19-5.61,3.97c-3.09,1.02-6.47,1.54-8.8,4.31
		c-0.54,0.64-1.75,0.85-2.69,0.98c-8.86,1.28-17.41-0.42-24.96-4.75c-10.14-5.82-15.03-15.45-16.49-26.94
		c-1.12-8.82,1.64-16.57,7.22-23c3.16-3.65,7.23-6.74,11.81-8.9c3.17-1.5,7.21-1.21,9.51-4.54c3.67-0.05,5.72-3.41,9.08-4.36
		c3.46-0.98,6.6-3.08,9.91-4.6c8.16-3.74,14.32-9.47,18.23-17.64c2.01-4.2,4.3-8.26,7.79-11.48c1.74-1.61,3.58-2.9,6.07-3.13
		C345.32,155.93,359.54,157.67,367.89,160.06z"/>
	<path class="st0" d="M405.82,859.04c-1.81-11.48-3.88-22.81-6.21-34.11c-1.33-6.42-2.68-12.92-2.92-19.58
		c-0.2-5.58-1.5-11.04-1.61-16.7c-0.21-9.99,1.47-19.72,2.63-29.67c3.59,1.57,4.54,5.08,6.18,7.78c3.09,5.08,5.78,10.46,8.1,15.94
		c3.09,7.32,5.38,14.91,5.22,23.03c-0.09,4.65,0.13,9.3-0.03,13.95c-0.22,6.28-0.84,12.38-3.67,18.3
		c-2.25,4.71-3.18,10.05-4.63,15.14C408.25,855.29,407.54,857.38,405.82,859.04z"/>
	<path class="st0" d="M325.44,702.82c0.87,10.78-5.13,18.61-11.03,26.64c-1.95-1.46-1.34-3.2-1.09-4.6
		c1.98-11.06,3.59-22.15,3.58-33.98c4.2-3.24,8.61-6.64,13.01-10.03c1.87,1.79,1.44,3.83,1.01,5.67c-0.75,3.22-1.68,6.41-2.81,9.51
		c-0.61,1.69-0.48,3.09,0.02,4.76C328.71,702.71,328.04,703.18,325.44,702.82z"/>
	<path class="st0" d="M481.34,558.52c2.86,1.08,3.6,3.26,3.74,5.58c0.42,6.9,0.48,13.78-2.3,20.34c-1,2.37-1.94,4.76-3.12,7.69
		c-1.86-6.06,0.1-11.64-0.4-17.15C481.68,569.79,480.02,563.99,481.34,558.52z"/>
	<path class="st0" d="M628.63,1234.48c-6.86,3.37-13.18,3.47-19.57,3.4c-2.81-0.03-5.03-1.14-7.28-2.66
		c0.39-0.32,0.83-0.94,1.14-0.88c4.4,0.87,8.55,1.69,13.24,0.25C619.63,1233.53,623.83,1233.83,628.63,1234.48z"/>
	<path class="st0" d="M277.56,1257.15c5.37-3.42,11.28-3.78,15.63-7.08c1.17,0.5,1.49,1.04,1.08,1.56
		c-2.64,3.26-6.67,4.1-10.25,5.69C282.17,1258.13,280.15,1258.07,277.56,1257.15z"/>
	<path class="st0" d="M596.67,1233.01c-8.43,1.88-14.48,0.61-20.52,0.18C582.19,1231.32,588.24,1232.15,596.67,1233.01z"/>
</g>
</svg>
