<?xml version="1.0" encoding="utf-8"?>
<!-- Generator: Adobe Illustrator 24.1.1, SVG Export Plug-In . SVG Version: 6.00 Build 0)  -->
<svg version="1.1" id="Layer_1" xmlns="http://www.w3.org/2000/svg" xmlns:xlink="http://www.w3.org/1999/xlink" x="0px" y="0px"
	 viewBox="0 0 726 1257.9" style="enable-background:new 0 0 726 1257.9;" xml:space="preserve">
<style type="text/css">
	.st0{fill:#1A1A1A;}
</style>
<g>
	<path d="M485.74,639.95c6.2-3.84,11.77-7.42,17.47-10.8c11.64-6.89,24.46-10.47,37.67-12.4c25.85-3.77,51.69-3.2,77.28,2.18
		c18.98,3.99,35.19,12.94,49.31,26.59c26.14,25.27,42.54,55.96,52.51,90.41c3.23,11.17,4.05,22.84,5.31,34.42
		c2.01,18.48-0.53,36.42-5.06,54.14c-7.81,30.57-25.15,54.35-50.92,72.75c-29.77,21.26-61.99,24.26-95.96,14.79
		c-14.9-4.16-27.82-12.51-37.58-27.45c-0.95,4.82-1.86,8.11-2.21,11.46c-1.7,16.25-4.72,32.22-10.15,47.66
		c-0.95,2.71-0.5,5.26,0,7.85c4.55,23.48,8.84,47.02,13.84,70.41c2.28,10.65,4.48,21.65,13.1,29.66c2.19,2.04,2.58,4.56,1.44,7.31
		c-1.84,4.45-0.42,8.14,1.9,12.15c6.53,11.28,10.97,23.5,14.78,35.92c5.03,16.42,12.92,31.33,23.22,44.99
		c1.79,2.37,3.79,4.7,6.1,6.52c4.11,3.22,8.57,4.35,14,2.66c5.41-1.68,10.21-4.66,15.79-7.03c15.23,16.58,28.52,33.46,27.45,56.73
		c-2.4,2.41-4.5,1.74-6.41,1.96c-1.61,0.19-3.35-0.29-5.33,1.28c-2.61,3.88,2.02,9.6-2.26,13.81c-0.39,0.14-1.11,0.67-1.62,0.52
		c-7.15-2.16-14.13-1.97-21.55-0.58c-6.37,1.19-13.33,1.33-19.43-2.43c-1.78-1.1-3.74-1.13-5.78-1c-2.64,0.17-5.3,0.07-7.96,0.12
		c-10.74,0.21-19.31-3.53-25.25-12.93c-5.44-8.61-13.44-12.44-23.73-11.67c-7.85,0.59-15.02-2.03-22.03-5.27
		c-10.83-4.99-15.89-14.02-16.81-25.27c-1.09-13.28-0.46-26.61,0.81-39.88c0.91-9.57,2.16-19.13,2.66-28.72
		c0.22-4.22,0.08-9.17-1.9-12.65c-4.26-7.5-3.48-15.44-3.84-23.29c-0.31-6.72-1.63-13.08-4.03-19.97c-3.58,3.15-4.8,7.02-6.61,10.34
		c-8.69,15.91-21.42,27.87-36.22,37.81c-28.9,19.41-60.95,30.91-94.97,37.42c-12.04,2.3-24.14,4.23-35.85,4.77
		c-2.23,2.25-1.43,4.13-0.96,6.07c2.46,10.34,5.1,20.65,7.21,31.06c2.25,11.11-0.57,20.98-8.64,29.13c-0.93,0.94-2.2,1.54-3.31,2.29
		c1,4.64,1.89,8.46,2.64,12.3c1.5,7.72-0.17,12.07-7.12,15.75c-3.67,1.95-6.79,3.82-8.39,7.88c-1.02,2.59-3.62,3.78-6.04,4.96
		c-4.54,2.21-9.33,3.42-14.73,3.81c-3.39,3.05-5.41,8.25-11.61,9.4c-3.23-7.35-6.06-15.17-14.52-20.14
		c-5.52,1.18-12.08,3.86-19.18,2.75c-2.92-0.46-4.04,3.26-7.03,3.66c-4.49-2.99-4.92-10.22-11.13-11.64
		c-4.23,1-4.84,6.56-10.04,7.15c-1.78-6.42-4.05-12.89-5.3-19.55c-2.16-11.53,2.65-20.74,11.1-28.74
		c9.34,0.68,16.26-5.96,24.41-9.29c3.28-1.34,4.97-5,6.55-8.48c3.5-7.75,3.94-16.08,5.48-24.2c1.23-6.52,2.29-13.07,3.51-20.1
		c-0.75-2.12-3.22-2.32-5.41-3.05c-34.68-11.59-62.77-32.65-87.1-59.54c-18.47-20.41-33.65-43.04-46.06-67.39
		c-20.5-40.25-35.16-82.5-40.79-127.62c-1.6-12.87-3.06-25.79-3.03-38.67c0.07-33.73,5.33-66.78,14.88-99.18
		c12.59-42.71,30.62-82.93,54.35-120.58c10.49-16.64,22.06-32.64,36.45-46.07c12.63-11.79,22.78-24.91,29.26-40.92
		c1.61-3.98,3.83-7.72,6.02-12.05c-5.02-7.26-2.52-13.62,1.99-20.75c5.04-7.97,8.29-17.07,12.23-25.73c0.9-1.97-0.05-3.89-0.88-5.73
		c-3.84-8.55-8.27-16.69-15.2-23.25c-9.67-9.16-19.15-18.51-28.88-27.61c-9.35-8.76-16.76-18.73-21.77-30.64
		c-4.5-10.7-8.69-21.54-14.85-31.55c-4.65-7.55-3.58-12.27,2.85-18.74c7.81-7.85,14.4-16.37,18.94-26.62
		c3.65-8.24,9.13-15.39,16.45-20.99c3.18-2.44,6.25-5.38,7.67-9.09c4.34-11.41,13.23-19.06,21.72-26.95
		c6.7-6.22,11.37-13.28,15.29-21.66c7.14-15.27,17.92-27.08,36.49-28.84c4.95-0.47,9.9-1.35,14.86-1.06
		c15.5,0.92,28.21-6.14,40.82-13.74c3.99-2.41,5.5-6.08,4.86-10.15c-1.95-12.42-3.01-25.21-11.08-35.76
		c-9.61-12.55-11.19-26.83-8.3-41.74c1.35-6.96,1.62-13.86,1.59-20.85c-0.01-3.36-0.4-6.63-1.93-9.7
		c-3.94-7.87-1.69-15.07,3.45-21.17c7.93-9.4,16.43-18.32,24.82-27.32c3.89-4.17,8.75-7.16,13.59-10.1
		c3.16-1.92,6.75-3.3,10.35-3.33c10.56-0.07,21.03-1.87,31.66-0.86c14.42,1.38,24.94,7.94,31.78,20.85
		c7.23,13.66,11.58,28.29,15.39,43.12c1.67,6.5,1.09,13.27,0.62,19.91c-0.3,4.33-0.62,8.63-0.06,12.95
		c1.36,10.55-0.46,20.6-5.14,30.07c-1.83,3.71-2.61,7.41-2.61,11.51c0,6.65-0.32,13.31-0.63,19.95c-0.23,4.83,0.88,9.08,3.85,13.07
		c4.81,6.46,7.59,13.99,10.64,21.39c3.5,8.48,5.16,9.35,14.3,9.24c4-0.05,8.02,0.23,11.99-0.09c11.49-0.92,20.79,3.9,28.92,11.22
		c4.17,3.76,7.83,8.17,11.24,12.66c1.96,2.59,3.86,5.81,4.22,8.93c1.27,10.81,4.22,21.58,1.99,32.6c-1.56,7.69-1.12,15.2,1.51,22.59
		c1,2.82,1.9,5.68,2.91,8.5c6.23,17.39,6.68,35.14,3.28,53.11c-1.78,9.4-1.03,18.6,2.23,27.53c3.35,9.19,4,18.52,3.8,28.27
		c-0.26,12.93-0.3,25.88,0.5,38.87c0.66,10.77-1.09,21.8-3.64,32.52c-5.69,23.93-9.4,48.24-12.98,72.55
		c-0.87,5.9-0.83,11.92-1.62,17.84c-1.87,14.13-9.2,26.27-14.6,39.11c-1.93,4.6-3.96,9.17-6.28,13.58
		C483.84,627.7,483.05,633.29,485.74,639.95z M311.51,956.45c1.16,2.06,2.88,3.13,4.68,3.96c12.21,5.61,24.72,7.09,37.65,2.54
		c23.92-8.42,37.98-26.09,45.66-49.37c6.47-19.63,6.25-40.04,4.63-60.25c-1.01-12.51-4.26-24.85-6.61-37.25
		c-3.97-21.01-5.81-42.06-1.19-63.2c0.81-3.69-0.45-6.23-2.45-9.13c-8.95-12.96-15.84-26.94-19.81-42.27
		c-1.4-5.42-2.79-10.85-4.26-16.56c-5.98-1.47-12.05-0.14-17.87-2.06c-5.81-1.92-10.69-5.96-16.79-7.67
		c-2.03,23.67-5.2,31.75-20.36,51.5c-1.7,2.21-2.78,4.54-3.37,7.11c-3.52,15.22-7.02,30.44-10.37,45.7
		c-0.85,3.87-2.05,7.98-1.53,11.76c1.18,8.52,2.04,17.13,4.51,25.47c4.81,16.26,9.57,32.53,14.02,48.89
		c3.15,11.58,5.33,23.47,4.29,35.46c-0.86,9.88-2.14,19.76-4.81,29.45C315.16,939.12,312.13,947.63,311.51,956.45z M669.02,794.29
		c1.82-13.53-1.34-27.88-6.75-41.52c-7.3-18.44-17.47-34.5-35.86-44.88c-22.25-12.55-49.96-6.92-65.52,7.9
		c-10.54,10.05-16.71,22.21-19.93,36.05c-2.56,11-3.65,22.21-3.85,33.53c-0.36,20.2,3.35,40.4,0.07,60.6
		c-0.21,1.29-0.03,2.66,0.02,3.99c0.06,1.68,0.16,3.45,1.88,4.31c3.52,1.78,4.67,5.54,6.98,8.29c6.76,8.05,14.82,14.03,24.5,18.22
		c16.42,7.11,33.05,6.79,49.54,1.34c11.82-3.9,22.28-10.76,29.91-20.79c8.33-10.94,13.92-23.33,16.61-36.95
		C668.51,814.92,669.53,805.38,669.02,794.29z M207.13,334.9c12.63,14.48,18.25,25.6,21.47,44.17c2.81,16.23,8.88,31.24,15.82,45.98
		c1.54,3.28,3.75,6.25,5.67,9.35c3.45,5.58,8.45,8.16,14.86,7.86c7.39-11.08,8.51-16.21,6.24-28.16c-0.68-3.58-1.5-7.15-1.98-10.76
		c-0.42-3.18-1.78-5.24-4.53-7.17c-20.72-14.49-29.55-35.1-30.12-59.81c-0.09-3.9-0.01-7.8-0.01-12.61
		C225.06,327.84,217.3,333.13,207.13,334.9z M462.48,476.6c1.09-4.69-0.71-9.17-2.06-13.42c-5.92-18.62-3.89-36.57,3.42-54.29
		c2.15-5.2,4.03-10.51,5.94-15.81c1.79-4.97,1.77-9.98,0.62-16.33c-5.64,5.08-9.36,10.62-15.3,12.84
		c-6.55,2.44-8.88,7.41-10.07,13.54c-0.44,2.27-1.05,4.52-1.42,6.8C439.58,435.04,443.43,457.96,462.48,476.6z"/>
	<path class="st0" d="M249.51,1118.83c-6.88-1.24-13.24-4.04-19.52-6.98c-22.82-10.71-42.57-25.65-60.17-43.62
		c-22.81-23.3-40.13-50.29-54.61-79.33c-18.99-38.1-31.91-78.09-37.78-120.23c-2.66-19.1-3.9-38.43-2.07-57.68
		c3.82-40.24,13.04-79.21,28.18-116.79c6.21-15.43,13.16-30.5,20.61-45.33c6.55-13.05,13.72-25.81,22.54-37.56
		c10.16-13.55,20.03-27.31,31.26-40.02c1.47-1.67,2.59-3.96,5.47-3.96c0.28,8.29-0.77,16.51-0.35,24.79
		c0.81,16.12,3.95,31.64,10.57,46.35c2.83,6.28,3.45,12.24,2.12,19.2c-1.86,9.69-1.81,19.71-1.31,29.67
		c0.5,9.95-0.45,19.96,1.99,29.8c0.93,3.75-1.02,7.19-2.41,10.53c-7.28,17.57-12.69,35.7-16.07,54.4
		c-1.71,9.46-2.6,19.02-3.45,28.61c-0.82,9.28-1.66,18.54-1.2,27.8c1.34,26.67,5.05,52.83,17.72,76.95
		c7.84,14.92,17.85,28.04,30.78,38.85c3.94,3.3,6.59,7.21,8.65,11.93c9.1,20.78,15.14,42.46,19.59,64.61
		c3.43,17.06,4.13,34.3,2.4,51.62c-0.19,1.95-1.16,3.81-1.44,5.77c-0.55,3.93-1.5,8.05,1.35,11.51c3.18,3.86,3.24,7.76,0.95,12
		C252.21,1113.73,252.31,1116.3,249.51,1118.83z"/>
	<path class="st0" d="M372.67,163.1c8.94-6.12,18.1-11.87,24.43-21.13c3.08-4.51,5.99-8.76,5.48-14.52c-0.12-1.3,0.2-2.65,0.41-3.96
		c1.59-9.72,12.02-14.83,20.52-10.08c3.01,1.68,4.14,4.63,3.01,8.63c-1.85,6.57-5.92,11.8-10.76,16.39
		c-3.11,2.95-6.62,5.48-9.96,8.18c-1.23,0.99-1.15,2.25-0.68,4.48c2.5-0.21,3.28-4.1,6.14-3.4c2.16,1.84,0.56,4.01,0.37,6.19
		c-1.11,12.95-6.22,24.32-13.3,34.99c-0.89,1.33-1.25,3.02-1.85,4.54c-1.11,1.48-2.22,2.96-3.33,4.44
		c-4.36,3.08-6.3,8.49-11.12,11.23c-2.89,1.64-4.45,5.93-9.02,3.95c-0.49-0.21-1.85,0.81-2.37,1.56c-2.02,2.9-4.68,5.49-4.95,9.32
		c1.8,1.58,3.07,0.35,4.37-0.67c4.98-3.89,9.76-8,15.25-11.24c6.48-3.82,12.79-3.87,17.92,1.55c7.07,7.48,15.72,12.07,24.92,16.12
		c6.41,2.82,12.06,7.02,17.76,11.08c3.16,2.25,5.1,5.45,6.57,8.65c7.2,15.7,14.43,31.41,20.82,47.45
		c4.17,10.48,6.09,21.78,6.92,33.02c0.46,6.16-1.08,12.46-1.73,18.81c-2.54-0.31-1.82-2.27-1.93-3.56
		c-0.63-7.35-4.37-13.17-9.16-18.36c-4.47-4.84-10.55-5.33-16.2-1.78c-2.87,1.81-5.11,4.26-7.08,6.94
		c-8.16,11.11-10.81,23.57-7.08,36.74c2.16,7.65,6.29,14.63,16.31,17.18c-10.95,7.58-21.32,11.37-33.52,9.65
		c-15.31-2.16-27.13-10.17-37.13-21.35c-3.99-4.46-7.89-9.03-11.4-13.86c-6.84-9.4-10.12-20.09-10.38-31.7
		c-0.12-5.32-0.25-10.64-0.42-15.95c-0.05-1.58,0.3-3.41-2.74-4.29c0.04,4.24,0.29,8.45,0.59,12.24
		c1.39,17.71-5.92,32.17-15.83,45.69c-8.56,11.69-19.81,20.46-32.05,28.16c-14.09,8.87-34.21,8.83-50.95-8.12
		c9.59,3.41,15.7-0.74,21.71-5.77c3.63-3.04,5.24-6.81,5.67-11.23c1.37-14.09-1.11-26.99-10.76-38.14
		c-6.57-7.6-15.2-8.64-22.52-1.81c-6.81,6.34-8.94,14.57-9.28,23.47c-0.12,3.24-0.02,6.48-0.02,10.73
		c-4.31-5.02-4.03-10.62-4.96-15.6c-4.75-25.26,0.86-48.7,13.23-70.83c3.73-6.68,7.53-13.32,11.25-20.01
		c1.57-2.82,3.56-4.83,7.11-4.3l-0.25-0.37c2.75,7.74,8.72,10.36,16.37,10.29l-0.34-0.28c6.85,4.48,14.67,3.91,21.55,1.79
		c20.39-6.29,24.94-25.37,17.94-41.41c-0.34-0.77-1.38-1.23-2.41-2.1c-4.09,3,0.78,7.95-2.63,10.88c-3.13-0.02-3.48-5.03-7.2-4.21
		c-1.56,3,0.62,5.73,0.77,8.63c0.71,14.21-11.48,22.76-24.52,16.94c-5.74-2.56-10.01-6.43-11.32-13.11
		c4.57-5.87,11.11-9.2,17.42-12.73c7.82-4.37,16.03-8.06,23.73-12.62c8.15-4.84,15.53-5.07,22.68,1.58c0.72,0.67,1.6,1.19,2.44,1.71
		c0.14,0.09,0.48-0.13,1.47-0.43c-2.59-5.7-6.67-10.28-10.05-15.28c-0.52-1.01-1.05-2.01-1.57-3.02c0.23-0.62,0.41-1.26,0.71-1.85
		c1.91-3.83,7.86-3.18,8.91-7.74c1.07-4.62,5.45-6.52,7.39-10.78c9.21,1.86,16.39-5.24,25.09-4.32c4.39-9.68,14.9-12.8,21.44-21.52
		c-7.6,0.61-11.04,6.16-15.99,9.02c-5.06,2.92-8.66,8.15-14.96,9.55c-0.26-1.04-0.48-1.94-0.7-2.84
		C369.32,167.27,371.22,165.42,372.67,163.1z M340.82,258.7c-1.89-3.43-4.25-5.46-8.68-2.81c2.63,2.85,5.47,3.57,8.83,2.62
		c-0.63,1.98,0.6,3.02,1.97,4.06c9.33,7.07,14.06,16.39,13.82,28.18c-0.03,1.25,0.59,2.51,1,4.13c2.41-3.5,0.88-6.82,0.69-9.94
		c-0.38-6.33,1.19-11.54,5.57-16.4c6.86-7.62,14.68-13.38,24.68-15.94c2.44-0.62,5.06-0.85,6.97-4.11
		c-17.17,0.99-29.25,9.83-39.5,22.21c-2.55-3.07-4.66-5.62-6.79-8.17C347.15,259.86,344.61,257.87,340.82,258.7z M401.77,170.76
		c2.89-2.66,3.73-5.77,2.41-9.65C398.59,165.36,398.59,165.36,401.77,170.76z"/>
	<path class="st0" d="M410.76,488.31c2.67,2.58,2.18,6.17,2.82,9.34c4.09,20.14,2.59,40.19-1.34,60.17
		c-0.32,1.62-0.96,3.18-1.56,4.72c-0.22,0.58-0.74,1.04-1.59,2.18c-0.74-9.44,3.58-18.11,0.96-28c-1.3,7.16-2.33,13.39-3.56,19.57
		c-2.96,14.81-8.73,28.24-17.52,40.75c-8.95,12.75-16.27,26.61-20.97,41.65c-0.2,0.63-0.47,1.25-0.65,1.88
		c-2.4,8.32-7.33,13.93-16.66,15.23c-2.26-3.1,2.74-7.01-0.99-10.05c-1.93-0.68-2.49,0.98-3.47,2.3c-6.23,8.43-10.57,9.74-20.5,6.1
		c-3.38-1.24-6.62-2.86-10.06-4.38c-4.03-16.07-6.89-32.44-13.4-47.77c-3.88-9.14-7.45-18.42-11.47-27.5
		c-4.38-9.9-6.59-20.15-6.3-30.97c0.14-5.3,0.02-10.6,0.02-16.84c-2.62,6.33-0.92,12.26-2.67,17.75
		c-1.74-10.55-1.63-20.99,1.62-31.24c1.9-6.01,3.9-12,5.97-17.96c3.13-8.98,6.36-17.93,9.54-26.89c0.07,3.26,0.13,6.52,0.2,9.79
		c2.02-3.27,1.66-6.56,1.42-9.85c2.56-4.91,2.65-8.57,0.25-12.52c-0.1-0.16-0.61-0.07-0.92-0.09c1.36-3.57,1.02-7.11-0.25-10.61
		c-0.52,3.49-0.83,6.98,0.4,10.4c1.43,4.3,0.44,8.75,0.81,13.11c-0.74,0.03-1.49,0.06-2.23,0.09c0.17-4.64-0.13-9.13-1.22-13.77
		c-1.95-8.36-2.93-16.95-4.12-25.46c-0.31-2.18-0.5-4.34,1.83-6.23c2.52-2.04,1.67-5.57,1.74-8.41c0.18-7.4,2.89-11.87,10.46-14.69
		c15.51-5.79,27.94-16.23,38.17-29.24c3.26-4.14,6.17-8.63,10.88-11.13c-3.25-5.25,0.41-8.13,2.78-12.07
		c11.27,23.51,27.24,41.29,51.16,50.85c1.86,6.56,0.61,12.86,0.01,19.04c-1.05,10.87-2.18,21.78-4.21,32.5
		c-1.35,7.13-0.81,13.81,0.98,20.6c0.93,3.51,1.85,7.03,2.78,10.54c-4.2,0.68-2.97,4.14-2.5,6.21c1.33,5.82,1.83,11.72,2.52,17.28
		C410.21,499.46,410.49,493.88,410.76,488.31z M405.81,411.41c4.81-1.82,2.06-5.31,1.7-8.27c-0.52,2.82-1.05,5.63-1.57,8.45
		c-0.53,3.71-1.48,7.43-0.08,12.61C407.19,418.92,407.26,415.15,405.81,411.41z M358.07,537.99c-0.04-9.83,0.4-19.75,3.1-29.44
		c1.24-4.46,2.39-8.95,3.44-13.45c0.43-1.82-1.17-2.04-2.38-2.43c-3.41,1.72-2.29,6.89-6.02,8.44c-3.23-3.17-0.42-7.32-2.64-10.74
		c-2.1,0.89-4.23,1.8-6.34,2.69C351.57,507.95,355.23,522.69,358.07,537.99z M402.22,437.19c-1.7,5.45-1.72,10.92,0,16.4
		C402.22,448.13,402.22,442.66,402.22,437.19z M354.1,435.27c-0.6,4.86,0.2,9.73,0,14.6C354.1,445.01,354.1,440.14,354.1,435.27z
		 M354.15,397.23c0-6.39,0-11.05,0-13.52C355.4,386.32,351.42,391.06,354.15,397.23z M367.52,488.45c2.04,1.33,3.41,0.07,4.67-0.72
		c0.81-0.51,2.58-0.8,1.74-2.68C371.24,485.15,369.29,486.41,367.52,488.45z"/>
	<path class="st0" d="M671.2,720.86c-2.05-7.18-7.81-11.36-13.06-15.85c-9.87-8.44-21.79-12.8-34.14-15.69
		c-15.88-3.72-31.4-2.67-46.63,4.1c-15.41,6.85-25.96,18.37-33.8,32.67c-8,14.6-10.58,30.66-11.04,47.1
		c-0.21,7.66-0.25,15.33,0.01,22.99c0.61,17.98-1.05,35.89-1.39,53.84c-0.02,1,0.24,2.17-0.18,2.97
		c-4.35,8.16-2.19,16.68-1.95,25.22c0.42,14.67-2.6,29.05-5.24,43.41c-0.08,0.46-0.99,0.77-1.97,1.49
		c-1.06-5.19-2.28-10.14-3.06-15.16c-0.91-5.9-1.71-11.84-2.09-17.79c-0.87-13.59-1.69-27.19-2.06-40.8
		c-0.18-6.69-0.97-13.32-2.31-19.76c-2.59-12.44-4.05-25.01-3.63-37.6c0.71-21.21-2.5-41.62-9.13-61.71
		c-3.42-10.37-6.73-20.88-7.57-31.89c-0.66-8.61-1.04-17.24-1.4-25.87c-0.27-6.3,0.15-12.59-1.25-18.86
		c-1.04-4.64,1.13-7.96,5.2-10.82c18.8-13.25,39.91-19.21,62.53-20.54c18.93-1.11,37.83-0.13,56.51,2.87
		c12.15,1.95,23.52,6.35,34.07,13.28c26.57,17.48,43.69,42.07,56.01,70.79c4.46,10.4,8.81,20.73,11.47,31.77
		c4.3,17.89,6.74,36.11,5.09,54.35c-2.11,23.33-8.74,45.61-21.93,65.37c-9.55,14.3-22.17,25.58-36.42,35.09
		c-7.77,5.19-15.89,9.54-25.02,11.98c-14.25,3.81-28.45,5.42-43.3,3.48c-13.47-1.76-25.87-5.48-37.24-12.88
		c-5.4-3.51-9.74-8.11-13.71-12.98c-5.15-6.32-6.41-13.05-5.55-23.52c2.95-0.66,2.76,2.28,3.82,3.56
		c13.91,16.83,30.84,27.38,53.27,29.51c18.56,1.77,35.86-0.86,51.54-10.43c21.39-13.06,35.13-32.18,40.78-56.8
		c2.98-12.98,4.67-26.06,4.53-39.47c-0.13-12.68-0.03-25.35-4.15-37.43c-3.71-10.88-7.59-21.86-15.99-30.35L671.2,720.86z"/>
	<path class="st0" d="M309.29,984.57c10.85-0.38,20.86-3.82,31.62-4.22c12.61-0.48,23.14-7.77,32.46-16.1
		c3.68-3.29,6.69-7.33,10.18-10.85c8.87-8.92,13.83-20.24,19.3-31.24c0.57-1.15,0.63-2.61,2.9-3.21c2.88,5.58,6.22,11.17,8.76,17.11
		c4.8,11.24,12.31,20.46,20.56,29.19c8.22,8.7,16.92,16.97,24.82,25.95c11.23,12.75,20.98,26.48,25.62,43.28
		c0.9,3.24,0.63,5.67-0.76,8.47c-7.19,14.51-17,26.73-29.59,37.1c-16.37,13.48-34.82,23.21-54.07,31.42
		c-12.82,5.47-26.61,8.33-40.31,10.88c-14.01,2.61-28.05,5.58-43.12,4.46c-2.5-3.05-2.72-7.41-3.03-11.65
		c-0.27-3.65-0.07-7.32-0.1-10.99c-0.09-11.54,0.52-22.98-3.82-34.28c-3.68-9.58-4.65-19.97-4.23-30.39
		c0.28-6.98,0.2-13.99,0.02-20.98C306.21,1007.53,307.12,996.64,309.29,984.57z"/>
	<path class="st0" d="M225.58,952.06c-1.88,0.64-2.83-0.28-3.81-1.16c-21.47-19.36-34.05-43.72-40.73-71.55
		c-5.74-23.91-5.62-48.15-3.72-72.3c2.12-26.9,8.92-52.91,19.09-77.96c0.36-0.9,0.75-1.74,2.03-1.96c0.52,0.64,1.44,1.3,1.69,2.15
		c5.21,17.48,10.69,34.89,15.37,52.51c4.01,15.1,6.15,30.59,4.87,46.26c-0.42,5.21-2.13,10.37-3.7,15.42
		c-2.37,7.64-3.39,15.4-4.42,23.34c-2.93,22.65,2.32,44.17,7.25,65.78C221.02,939.2,224.7,945.24,225.58,952.06z"/>
	<path class="st0" d="M670.84,720.5c-0.49,3.65,1.77,6.36,3.42,9.13c11.8,19.8,16.04,41.15,14.57,64.05
		c-1.16,18.07-4.58,35.44-11.85,52.06c-4.35,9.94-10.33,18.55-18.82,25.33c-7.24,5.78-14.02,12.02-22.88,15.73
		c-17.62,7.38-35.37,7.62-55.35,2.74c4.16-0.69,6.38-0.26,8.79,0.11c19.66,3.01,37.4-1.49,53.28-13.69
		c17.99-13.82,26.19-33.04,30.37-54.39c1.78-9.1,2.59-18.39,2.86-27.72c0.68-23.14-6.76-43.56-19.04-62.86
		c-9.42-14.79-22.41-24.41-38.69-29.59c-18.31-5.83-36.07-4.32-52.58,6.28c-1.11,0.71-2.21,1.43-3.35,2.18
		c-1.75-2.34,0.4-3.05,1.43-3.97c11.06-9.93,24.15-14.91,38.91-15.64c18.57-0.92,35.45,4.23,50.99,14.22
		c5.68,3.65,10.1,8.61,14.46,13.65c1.08,1.25,1.93,2.73,3.86,2.73L670.84,720.5z"/>
	<path class="st0" d="M270.96,252.84c0.44-1.34,0.37-2.54-0.7-3.63c-2.62-2.66-4.2-6-5.51-9.39c-6.7-17.31,2.67-33.13,19.27-40.29
		c4.2-1.82,8.6-3.54,13.36-3.82c1.66-0.1,1.65-0.67,5.26-4.04c1.86-1.74,4.45-2.69,6.69-4.04c2.56-1.54,5.2-2.97,7.62-4.71
		c2.14-1.54,4.26-3.24,5.94-5.25c1.9-2.26,3.37-4.91,4.92-7.46c1.21-1.98,2.4-4,3.38-6.1c3.44-7.32,9.3-10.04,17.07-9.05
		c5.81,0.74,11.6,1.66,17.2,2.47c0.59,2.82-1.36,3.34-2.56,4.23c-4.86,3.62-8.7,8.08-12.1,13.08c-8.4,12.38-18.91,22.29-33.43,27.11
		c-3.76,1.25-7.69,2.02-11.59,2.77c-7.22,1.39-14.27,3.23-20.56,7.17c-9.47,5.93-12.59,13.64-10.46,24.61
		c1.93,9.93,5.88,18.26,15.91,22.44c1.59,0.66,3.46,1.74,4.69,0.87c3.95-2.81,8.83-2.72,13.01-4.73c5.62-2.7,8.88-6.79,8.8-13.21
		c-0.02-1.64,0-3.29,0-4.74c2.21-1.35,3.12,1.14,5.2,0.99c0.98-2.05,2.05-4.3,3.26-6.86c0.69,0.96,1.25,1.38,1.32,1.88
		c0.78,5.48-0.77,10.41-3.18,15.33c-2.71,5.53-6.97,8.88-12.69,10.31c-7.98,2-15.89,4.75-24.35,3.69l0.34,0.28
		c-5.46-3.43-10.92-6.86-16.37-10.29L270.96,252.84z"/>
	<path class="st0" d="M254.31,352.13c-4.01,1.31-3.17,5.86-5.65,9.98c-2.38-6.62-2.16-11.83-0.33-16.7
		c1.7-4.51,4.06-8.87,6.74-12.89c3.03-4.56,13.21-5.42,16.81-1.2c8.11,9.51,14.5,19.93,13.26,33.25
		c-1.06,11.41-6.28,16.91-17.7,18.81c-2.78-0.64-2-5.11-5.4-4.98c-1.97,1.74,0.96,2.97,0.32,4.52c-7.42-1.8-10.62-5.92-13.28-18.09
		c3.83,3.23,6.26,6.57,10.19,8.03c5.05,1.87,5,2.17,9.19-3.39c-2.56-1.53-5.01,2.16-8.16-0.42c-1.54-4.87-3.3-10.44-5.07-16.01
		c5.62-2.85,11.01-0.48,18.05,2.07c-4.22-4.92-8.33-6.09-11.55-8.07C258.51,348.35,255.2,348.51,254.31,352.13z"/>
	<path class="st0" d="M456.92,381.75c-1.77-1.29,0.4-3.26-1.16-4.61c-2.41-0.15-2.42,3.74-5.11,3.53
		c-9.65-4.99-13.43-13.57-10.13-23.2c0.31-0.91,1.21-1.91,0.4-2.64c-4.53-4.09,1.08-7.42,0.87-11.32c-0.22-4.02,2.41-7.34,6.81-8.54
		c1.63-0.45,1.2-1.67,1.22-3.06c0.06-3.22,2.75-4.1,5.36-4.76c2.79,0.86,3.3,3.66,4.68,6.32c0.62-2.65,1.06-4.53,1.48-6.29
		c2.5-0.42,3.11,0.96,3.53,2.68c0.3,1.21,0.1,2.86,1.65,3.31c5.93,1.73,6.84,7.52,7.75,11.79c2.49,11.65-1.2,22.17-8.74,31.4
		c-1.46,1.79-3.69,1-5.24,2.35C459.15,379.71,459.05,381.93,456.92,381.75z M452.69,367.95c9.24,2.05,15.73-0.26,17.73-5.71
		c2.43-6.62-0.29-15.67-5.61-18.63c-4.11-2.29-10.48-0.12-14.71,5.2c5.41-1.74,10.89-5.18,15.47,0.68
		c2.59,3.31,4.42,7.13,1.47,11.47c-4-1.56,1.68-6.31-3.12-7.1c-1.81,1.41-1.29,3.57-1.76,5.41c-0.56,2.21-1.22,4.39-1.61,5.75
		C458.04,367.55,455.27,365.43,452.69,367.95z M449.87,358.92c0.3-0.8,0.51-1.09,0.51-1.39c-0.01-1.48,0.63-3.25-1.4-3.92
		c-0.34-0.11-1.17,0.47-1.37,0.91c-0.61,1.38,0.37,2.38,1.11,3.4C448.89,358.16,449.18,358.33,449.87,358.92z"/>
	<path class="st0" d="M400.92,761.31c16.27,24.44,18.82,52.03,7.4,74.28C400.75,818.76,396.45,777.79,400.92,761.31z"/>
	<path class="st0" d="M273.12,1210.89c10.27,16,7.34,37.73-5.92,45.42c-6.84-13.31-7.87-26.87-3.32-40.96
		c0.62-1.92,1.9-3.52,3.76-4.48C269.21,1210.08,270.85,1210.13,273.12,1210.89z"/>
	<path class="st0" d="M311.95,962.21c15.74,8.45,31.52,8.28,47.7,3.39c-7.08,5.79-14.27,10.72-23.65,11.59
		c-5.21,0.49-10.32,2.08-15.5,3c-3.88,0.69-7.82,1.32-12.09-0.14C307.86,974.06,309.18,968.49,311.95,962.21z"/>
	<path class="st0" d="M641.23,1226.32c-8.55,2.23-13.22-2.93-16.51-8.67c-4.41-7.7-4.88-16.35-2.37-24.98
		c0.14-0.49,0.95-0.79,1.71-1.37c6.07,3.26,9.97,8.78,12.33,14.88C638.8,1212.36,644.41,1217.97,641.23,1226.32z"/>
	<path class="st0" d="M203.6,1202.76c2.59,1.87-2.42,5.25,1.99,6.97c1.74-1.92,3.64-4.01,6.04-6.65c5.1,5.98,6.95,12.09,3.39,18.97
		c-2.64,5.1-2.18,12-8.7,15.11c-2.27-0.08-1.99-2.33-2.14-3.57c-0.94-7.62-6.38-14.24-4.54-22.55
		C200.35,1207.8,200.26,1204.59,203.6,1202.76z"/>
	<path class="st0" d="M223.49,1242.59c-0.4-8.31-1.54-15.74-0.62-23.25c0.73-5.96,2.47-11.46,7.75-15.05
		C240.37,1211.51,237.75,1237.72,223.49,1242.59z"/>
	<path class="st0" d="M639.61,1177.54c10.6,3.82,10.19,14.05,13.52,21.87c1.09,2.56,1.07,5.73,1.67,8.61
		c0.64,3.05-3.17,5.56-6.02,4.2c-2.69-1.28-5.84-2.62-7.01-5.35C637.73,1197.43,634.7,1187.76,639.61,1177.54z"/>
	<path class="st0" d="M330.67,676.41c0.84,7.16-1.31,12.35-3.33,17.62c-1.96,5.11-5.25,9.66-4.95,15.73
		c0.18,3.62-2.86,6.36-6.37,7.99c0.86-8.82,2.18-17.36,2.33-25.92c0.09-5.37,1.68-8.88,6.43-11.2
		C326.51,679.79,327.96,678.38,330.67,676.41z"/>
	<path class="st0" d="M303.2,112.43c3.04-2.7,6.11-4.52,9.87-2.5c3.63,1.95,4.58,5.53,4.02,9.33c-0.7,4.78-1.79,9.5-2.91,15.24
		C306.63,128.27,304.94,120.45,303.2,112.43z"/>
	<path class="st0" d="M393.18,197.86c1.11-1.48,2.22-2.96,3.33-4.44c0.94-0.23,1.89-0.46,3.52-0.86c0,4.94,0,9.64,0,14.5
		c-2.93,0.38-5.67-0.43-8.31-1.69C390.42,202.44,393.53,200.49,393.18,197.86z"/>
	<path class="st0" d="M479.11,583.21c0.92-10.18,1.68-18.7,2.45-27.22c2.81,0.37,3.25,2.37,3.42,4.39
		C485.63,568.04,484.84,575.35,479.11,583.21z"/>
	<path class="st0" d="M335.05,199.09c0.52,1.01,1.05,2.01,1.57,3.02c0.09,1.6,0.18,3.2,0.28,4.96c-3.46,1.89-6.94,1.11-10.41,1.38
		C327.08,200.07,327.51,199.63,335.05,199.09z"/>
	<path class="st0" d="M372.67,163.1c-1.45,2.32-3.35,4.17-5.74,5.51c-2.32,0.81-4.63,1.62-8.42,2.95
		c3.57-5.32,7.64-7.79,11.61-10.25C371.32,160.57,372.57,161.42,372.67,163.1z"/>
	<path class="st0" d="M376.28,123.43c3.83,1.13,3.83,1.13,4.21,4.88c-2.01,0.49-1.09-1.43-1.69-2.06
		C377.93,125.34,377.11,124.38,376.28,123.43z"/>
</g>
</svg>
