<?xml version="1.0" encoding="utf-8"?>
<!-- Generator: Adobe Illustrator 23.1.0, SVG Export Plug-In . SVG Version: 6.00 Build 0)  -->
<svg version="1.1" id="Layer_1" xmlns="http://www.w3.org/2000/svg" xmlns:xlink="http://www.w3.org/1999/xlink" x="0px" y="0px"
	 viewBox="0 0 1573.34 975.66" style="enable-background:new 0 0 1573.34 975.66;" xml:space="preserve">
<g>
	<path d="M637.14,916.44c2.24,2.02,4.62,4.77,7.55,6.64c2.93,1.87,3.04,4.33,3.04,7.17c0,2.55-1.18,4.21-3.65,4.5
		c-7.08,0.81-14.06,2.69-21.34,1.21c-3.9-0.8-8.02-1.34-11.95-0.99c-4.19,0.37-6.62-1.68-8.8-4.45c-2.39-3.03-5.29-4.04-9.08-3.82
		c-1.78,0.1-3.64-0.94-5.45-1.52c-1.23-0.4-2.4-1.16-3.65-1.31c-3.92-0.47-7.86-0.74-11.79-1.05c-2.81-0.22-5.32-0.14-5.72,3.69
		c-0.14,1.35-1.28,2.6-2.17,4.29c-2.59-1.33-4.68-0.98-7.29,1.06c-4.1,3.21-9.36,3.31-15.14,2.69c-0.28,1.44-0.65,3.3-0.99,5.15
		c-0.32,1.75-0.61,3.5-0.88,5.02c4.34,3.24,8.69,6.26,12.77,9.61c2.01,1.65,4.24,3.28,3.5,6.83c-0.88,4.2-4.21,5.01-7.21,5.51
		c-6.46,1.08-13.03,1.76-19.58,2.04c-5,0.22-10.09-0.07-15.02-0.84c-2.37-0.37-4.87-2.01-6.63-3.76c-3.07-3.05-6.46-4.92-10.75-5.33
		c-0.92-0.09-2.04-0.38-2.64-1c-3.15-3.22-7.47-3.07-11.36-3.78c-1.51-0.27-3.6,1.11-5.04,2.24c-2.53,1.97-4.14,5.12-8.22,4.79
		c-1.3-0.11-2.96,1.38-4.07,2.51c-2.65,2.71-5.88,3.35-9.44,3.28c-2.17-0.04-4.41,0.34-6.48-0.1c-2.46-0.52-5.19-1.2-7.09-2.71
		c-4.66-3.7-10.42-3.55-15.68-4.79c-1.45-0.34-4.03,2.76-5.62,4.68c-2.36,2.85-4.29,6.05-6.95,8.84
		c-1.27-8.04,1.55-15.12,4.63-22.59c-8.42,1.3-11.12,8.27-15.67,13.53c-0.18-11.43,0.62-22.55,6.8-32.55c2.72,0,5.33,0,8.32,0
		c1.11-8.53,7.36-14.48,12.57-21.07c0.81-1.02,1.45-2.18,2.27-3.19c1.61-1.99,3.36-3.35,6.31-3.12c7.08,0.56,14.19,0.93,21.3,1
		c4.43,0.05,8.96-1.25,13.27-0.66c2.75,0.37,4.67-0.28,6.78-1.34c0.68-0.34,1.43-1.01,1.66-1.7c1.19-3.5,2.11-7.09,3.36-10.57
		c0.76-2.12,1.8-4.17,2.97-6.09c6.75-11.07,10.95-23.27,15.73-35.21c0.72-1.8,1.29-3.67,2.09-5.99c-1.1-0.58-2.32-1.22-3.97-2.08
		c0-4.27-0.41-8.96,0.09-13.55c1.02-9.32,2.67-18.57,3.78-27.88c0.65-5.47,0.65-11.01,1.14-16.5c0.89-9.82,1.94-19.63,2.9-29.44
		c0.38-3.83,0.77-7.67,1.03-11.51c0.4-5.93,0.71-11.87,1.04-17.8c0.35-6.27,1.12-12.55,0.86-18.8c-0.21-5.09,0.87-9.75,1.96-14.6
		c2.35-10.49,4.1-21.12,6.21-31.67c0.82-4.12,1.94-8.19,3-12.56c2,0,3.66,0.16,5.28-0.04c2.07-0.25,2.84-1.66,1.68-3.37
		c-2.42-3.57-3.41-7.48-2.95-11.67c0.61-5.58-4.3-6.52-7.41-8.4c-3.36-2.04-5.67-4.76-7.61-7.81c-3.83-6.01-7.29-12.26-11.01-18.6
		c-1.28,0.81-2.91,1.59-4.25,2.72c-2.32,1.97-3.57,1.43-4.89-1.19c-3.02-6-6.52-11.76-9.43-17.8c-4.01-8.35-7.52-16.94-11.5-25.31
		c-2.04-4.29-4.46-8.11-8.76-11.07c-11.04-7.58-21.5-16-32.27-23.99c-6.16-4.57-12.51-8.88-18.69-13.43
		c-4.26-3.13-8.26-6.63-12.57-9.68c-7.32-5.18-14.81-10.11-22.19-15.22c-6.85-4.74-13.28-10-18.95-16.13
		c-0.65-0.7-1.16-1.58-1.58-2.45c-5.02-10.16-10.01-20.34-15.62-31.76c8.36,1.58,15.77,2.84,23.11,4.41
		c11.77,2.51,23.5,5.17,35.22,7.86c6.18,1.41,12.31,3.03,18.47,4.51c1.08,0.26,2.21,0.32,3.73-0.38c-3.52-2.16-6.87-4.71-10.61-6.4
		c-7.19-3.25-13.35-7.94-19.39-12.84c-1.98-1.6-3.77-3.45-5.57-5.27c-3.54-3.59-8.41-4.49-12.86-5.5
		c-13.64-3.1-27.44-5.44-41.16-8.2c-8.74-1.76-17.78-2.33-26.01-6.26c-0.63-0.3-1.46-0.15-2.2-0.22c-2.05-0.19-4.4,0.18-6.09-0.7
		c-3.23-1.68-6.29-3.86-9.06-6.24c-4.04-3.47-7.76-7.3-11.63-11c-2.55,4.79-1.91,10.3-2.26,15.64c-0.29,4.44-0.69,8.88-0.75,13.33
		c-0.02,1.32,0.94,2.65,1.8,4.89c-2.13-0.85-3.7-1.39-5.19-2.1c-5.69-2.73-11.38-5.46-17.02-8.3c-3.65-1.84-7.2-3.86-10.8-5.8
		c-0.78-0.42-1.53-1.19-2.33-1.25c-2.76-0.21-4.2-1.74-4.63-3.46c-3.96-1.7-7.43-3.19-10.45-4.49c-4.14,4.73-8.54,9.73-12.9,14.78
		c-3.73,4.31-7.47,8.61-11.07,13.02c-3.43,4.2-6.61,8.59-10.03,12.8c-6.55,8.06-13.25,16-19.77,24.08c-2.43,3.02-4.54,3.9-9.27,1.33
		c-3.19-1.74-6.58-1.93-9.74-2.34c-5.47-0.71-10.93-0.96-16.1-3.15c-0.7-0.3-1.8,0.32-3.31,0.65c-0.5-1.67-0.85-3.35-1.52-4.89
		c-0.75-1.74-0.87-3.68-3.86-3.98c-3.12-0.31-6.72-7.59-7.54-10.68c-0.77-2.91,3.18-3.09,2.19-5.52c1.68,0.76,3.51,1.29,5.02,2.31
		c3.75,2.53,7.64,3.62,12.49,2.32c-0.46-0.95-0.89-1.47-0.95-2.04c-0.14-1.33-0.64-3.14,0.01-3.88c0.68-0.78,2.6-0.93,3.85-0.69
		c5.44,1.05,5.94,0.87,8.85-3.08c3.06-4.15,6.4-8.09,9.41-12.27c1.35-1.87,2.18-4.12,3.42-6.53c-1.84-7.41-10.47-10.91-18.49-7.19
		c-5.98,2.78-9.13,8.49-14.32,12c-3.77,2.55-7.07,5.8-10.89,8.26c-6.29,4.05-13.6,3.23-20.62,3.52c-5.55,0.22-10.32-2.59-15.37-4.27
		c-0.51-0.17-0.81-0.94-1.89-2.28c3.22,0,5.7,0.43,7.96-0.09c5.29-1.21,9.55-3.76,12.9-8.54c4.54-6.5,10.09-12.29,15.22-18.38
		c0.32-0.38,0.65-0.82,1.08-1.01c7.7-3.45,15.34-7.04,23.15-10.24c8.43-3.45,17.2-2.54,26.81-1.08c-0.92-2.08-1.86-3.66-2.33-5.36
		c-2.51-9.02-9.64-12.06-17.75-13.77c-1.05-0.22-2.42,0.31-3.46,0.84c-6.81,3.49-13.78,6.48-21.22,8.5
		c-6.8,1.84-13.25,5.16-20.11,6.47c-7.92,1.51-14.31,6.81-22.19,7.23c-0.45,3.03,3.42,5.07,0.46,7.84
		c-2.32-0.76-4.62-1.52-6.93-2.28c-0.19,0.29-0.38,0.57-0.58,0.86c2.75,3.12,5.51,6.24,8.98,10.17c-3.47,0.18-5.58,0.29-8.02,0.42
		c-0.1,0.53-0.31,1.6-0.68,3.52c-3.85-1.05-8.05-1.4-11.27-3.36c-2.17-1.32-3.77-1.28-5.43-0.53c-5.2,2.35-10.35,0.35-15.51,0.14
		c-3.15-0.13-6.27-0.89-9.42-1.16c-5.03-0.43-8.71-3.05-11.99-6.66c-4.55-5.01-9.34-9.8-13.88-14.81
		c-3.24-3.58-6.25-7.36-9.78-11.54c4.12-2.07,7.52-3.62,10.78-5.44c7.07-3.93,14.78-6.22,22.36-8.8c5.68-1.92,8.75-6.3,11.54-11.09
		c0.25-0.42,0.4-0.9,0.67-1.31c1.71-2.63,2.61-5.37,6.91-5.97c4.81-0.67,9.3-3.56,14.6-5.76c0.73,1.48,1.23,3.29,2.36,4.52
		c0.99,1.08,1.48,3.29,4.08,2.29c7.85-3.02,15.81-5.71,23.69-8.65c8.97-3.34,17.87-6.86,26.84-10.19c4.86-1.8,5.18-2.06,5.44-7.14
		c0.06-1.1,0.41-2.2,0.41-3.3c0.01-4.75,1.98-8.17,6.72-10c-0.68-1.41-1.35-2.81-2.17-4.52c-4.74,2.38-9.58,4.41-13.96,7.17
		c-2.89,1.82-4.81-0.32-6.34-1.23c-4.63-2.78-9.17-5.97-13.01-9.74c-5.08-4.99-11.05-8.49-16.9-12.35
		c-8.32-5.48-17.38-9.91-24.78-16.8c-1.63-1.52-3.89-2.35-6.14-3.66c0.49-1.13,1.09-2.37,1.57-3.65c1.7-4.63,2.68-5.03,6.93-3.26
		c2.78,1.16,5.55,2.16,8.8,1.62c1.98-0.33,4.14,0.71,6.23,0.76c6.27,0.15,12.55,0.02,18.82,0.19c5.03,0.14,10.13,0.12,15.04,1.04
		c2.67,0.5,5.1,2.68,7.47,4.34c5.61,3.93,11.11,8.03,16.68,12.01c3.38,2.41,6.82,4.76,10.27,7.07c0.5,0.33,1.24,0.3,2.26,0.53
		c0.29-1.35,0.22-2.79,0.89-3.69c0.98-1.32,2.52-3.25,3.75-3.2c5.75,0.24,10.08-3.35,15.11-4.98c1.05-0.34,2.08-0.8,3.07-1.29
		c1-0.5,2.47-0.89,2.81-1.71c1.45-3.55,2.56-7.24,3.8-10.88c-0.3-0.15-0.6-0.31-0.89-0.46c1.2-0.39,2.4-0.79,3.84-1.25
		c-1.99-4.96-3.84-9.66-5.76-14.33c-1.91-4.64-3.77-9.31-5.9-13.85c-2.2-4.69-3.58-9.73-6.77-14.01c-1.36-1.83-1.3-4.67-2.25-6.89
		c-3.88-9.02-7.93-17.97-11.84-26.98c-1.56-3.59-2.91-7.28-4.55-11.41c2.4-0.87,4.61-1.67,6.8-2.47c-0.89-4.72,0.97-6.85,6.22-7.33
		c0.89-0.08,1.99,0.19,2.64-0.24c4.31-2.83,8.13-0.59,11.37,1.65c7.61,5.27,14.96,10.94,22.21,16.71
		c8.03,6.39,17.11,11.23,24.97,17.91c8.22,6.98,17.17,13.11,25.88,19.51c3.19,2.34,6.36,4.7,9.12,7.53
		c6.1,6.24,13.42,9.16,22.17,9.02c4.44-0.07,8.89,0.63,13.71,1.01c0.93-1.04,2.19-2.44,4.04-4.5c1.22,1.69,2.49,3.24,3.52,4.94
		c1,1.64,1.55,3.57,3.89,3.95c0.52,0.08,1.36,0.95,1.32,1.37c-0.67,6.4,4.35,5.49,8.77,6.81c-0.66-1.67-1.06-2.66-1.66-4.15
		c0.52-0.31,1.65-1.57,2.64-1.47c3.15,0.33,6.27,1.06,9.35,1.85c2.6,0.67,5.09,1.77,7.69,2.47c3.39,0.92,3.41,0.83,3.93,4.84
		c1.06,0.32,2.13,0.64,3.12,0.93c0.34-1.67,0.69-3.39,1.09-5.36c4.26,1.96,7.41,4.72,11.58,5.54c1.88,0.37,4.04,1.05,4.12,4.04
		c0.02,0.91,2.21,1.76,3.4,2.64c0.21-0.25,0.42-0.5,0.63-0.75c-0.68-0.76-1.37-1.51-2.4-2.66c5.31-1.75,10.21-2.11,15.06-0.5
		c3.77,1.25,7.52,2.73,11,4.63c1.47,0.8,2.23,2.92,3.32,4.45c3.23-0.62,1.64-2.55,0.11-5.24c7.2,2.11,13.12,4.48,19.25,5.45
		c5.5,0.87,11.24,0.18,17.44,0.18c-1.02-1.26-1.79-2.22-2.66-3.29c0.88-3.44,3.05-4.42,6.67-4.86c5.11-0.62,10.09-2.44,15.09-3.9
		c12.32-3.59,24.56-7.5,36.95-10.84c9.73-2.63,19.6-4.82,29.49-6.75c3.88-0.76,8.01-0.2,12.02-0.37c5.76-0.23,11.51-0.77,17.27-0.82
		c5.18-0.05,10.36,0.36,15.54,0.58c0.82,0.04,1.63,0.23,2.45,0.27c10.53,0.62,21.05,1.28,31.58,1.76c0.8,0.04,2.14-1.04,2.38-1.86
		c0.4-1.35,0.11-2.9,0.11-4.2c-0.59-0.31-0.86-0.58-1.15-0.6c-6.73-0.31-6.39-0.34-6.91-6.91c-0.35-4.31-1.86-8.53-2.96-13.25
		c-7.37-0.66-14.52-1.51-21.7-1.89c-15.69-0.82-31.46-0.8-47.09-2.25c-11.71-1.08-23.39-1.52-35.12-1.93
		c-10.49-0.36-20.94-1.85-31.41-2.81c-1.32-0.12-2.67-0.02-4-0.06c-9.1-0.33-18.3,0.07-27.28-1.17c-13.7-1.89-27.39-1.59-41.11-1.9
		c-4.55-0.1-9.09-1.09-13.63-1.67c-0.81-0.1-1.72-0.43-2.44-0.21c-9.15,2.82-18.27,0.47-27.42,0.07c-8.5-0.38-17.03-0.11-25.54-0.12
		c-6.17-0.01-12.35,0.24-18.5-0.06c-9.38-0.46-18.75-1.15-28.09-2.1c-1.78-0.18-4.96-0.04-4.72-3.63c0.02-0.36-0.83-1.12-1.26-1.11
		c-3.83,0.11-3.23-2.57-3.69-5.08c-1.79-9.81-2.27-19.68-1.9-29.6c0.25-6.6,0.64-13.2,1.04-19.8c0.04-0.73,0.56-1.44,0.7-1.75
		c8.64,0.73,16.91,1.78,25.21,2.07c16.59,0.58,33.2,0.74,49.8,1.07c7.21,0.14,14.43,0.15,21.63,0.49c1.87,0.09,3.68,1.2,5.85,1.95
		c-0.56,0.86-0.96,1.48-1.39,2.12c0.22,0.13,0.43,0.38,0.66,0.39c9.6,0.36,19.2,0.69,28.79,1.05c8.1,0.31,16.21,0.6,24.3,1.01
		c12.04,0.61,24.09,1.14,36.1,2.05c8.82,0.68,17.58,2.21,26.4,2.83c6.65,0.47,13.37-0.02,20.06,0.13c10.77,0.24,21.54,0.55,32.3,1
		c13.37,0.56,26.74,1.23,40.11,2.01c5.86,0.34,11.7,1.07,17.55,1.6c2.1,0.19,4.21,0.28,6.61,0.44c0.29-3.5,0.9-6.38-1.91-9.05
		c-1-0.95-0.76-3.4-0.79-5.17c-0.09-5.19-0.17-10.4,0.01-15.59c0.13-3.59,0.68-7.17,0.96-9.84c2.17-2.09,3.54-3.96,5.37-5.05
		c2.45-1.45,5.22-3.12,7.92-3.23c9.15-0.4,18.35-0.53,27.49-0.05c10.66,0.56,21.28,1.89,31.91,2.87c0.5,0.05,1.02,0.1,1.5,0.01
		c8-1.53,13.72,2.07,18.39,8.09c0.3,0.39,0.74,0.68,1.05,1.07c2.45,3.16,5.29,4.74,9.62,4c2.8-0.48,5.84,0.69,8.77,0.71
		c2.11,0.01,4.08,0.26,6.43-1c2.26-1.22,5.91-0.05,8.91,0.35c5.12,0.68,10.14,1.23,15.4,1.02c9.76-0.4,19.58,0.35,29.37,0.75
		c4.61,0.19,9.2,0.73,13.8,1.01c6.43,0.39,12.87,0.7,19.3,1.02c1,0.05,2.12-0.29,2.98,0.06c5.9,2.43,9.74-0.01,13.17-4.76
		c1.51-2.09,2.85-3.8,2.68-6.55c-0.15-2.32,0.3-4.68,0.52-7.44c2.35-0.81,3.53-2.51,3.54-5.93c0.07-19.6,0.44-39.2,0.92-58.8
		c0.2-8.21,0.92-16.4,1.43-24.6c0.04-0.57,0.35-1.12,1.43-1.79c0.36,1.65,1.02,3.3,1.04,4.96c0.1,9.33,0.05,18.67,0.05,28
		c0,4.7,0.09,9.4-0.01,14.09c-0.29,13.77-0.65,27.54-1.03,41.3c-0.03,1.2-0.42,1.81,1.16,2.84c1.38,0.9,1.78,4.03,1.78,6.17
		c0,3.4,0.16,6.21,3.39,8.46c1.67,1.16,2.37,3.7,3.49,5.57c2.61,0.44,5.96,0.05,7.95,1.51c5.82,4.28,12.23,2.61,18.45,2.88
		c10.43,0.46,20.88,0.54,31.3,1.1c5.75,0.31,11.46,1.29,17.2,1.88c0.92,0.1,1.87-0.22,3.14-0.39c2.22,6.47,0.07,13.15,0.17,19.91
		c4.93,0.53,9.63,1.02,14.32,1.54c0.82,0.09,1.9-0.06,2.4,0.4c7.04,6.53,14.31,12.86,20.81,19.89c2.44,2.64,3.46,6.85,4.39,10.54
		c0.87,3.46,0.99,7.16,1.03,10.76c0.03,2.76-0.82,5.52-0.87,8.29c-0.13,8-0.15,16,0.01,24c0.07,3.25-1.02,5.7-3.3,7.9
		c-5,4.81-10.53,7.89-17.84,7.28c-7.83-0.65-15.7-0.82-23.49-1.19c-0.45,4.1-0.86,8.51-1.45,12.9c-0.59,4.41-1.57,5.3-6.07,5.2
		c-12.44-0.27-24.88-0.49-37.3-1.04c-8.38-0.37-16.73-1.28-25.1-1.94c-5.6-0.44-6.48-1.37-6.5-6.87c-0.01-3.17-0.02-6.33-0.05-9.5
		c0-0.31-0.15-0.63-0.22-0.9c-7.76-2.76-14.81-3.13-18.57,5.2c-5.09-0.51-9.68-0.97-14.83-1.49c-0.46,4.48-1.07,8.7-1.28,12.95
		c-0.22,4.31-0.05,8.64-0.05,13.66c7.69,1.99,15.26,4.28,22.98,5.86c8.15,1.66,16.42,2.73,24.67,3.87
		c6.33,0.88,12.7,1.63,19.07,2.18c12.84,1.11,25.7,2.02,38.55,3.08c1.11,0.09,2.21,0.54,3.25,0.99c3.71,1.58,4.13,3.3,1.61,6.36
		c-0.4,0.49-0.76,1.02-1.58,2.13c3.41,0.17,6.29,0.14,9.12,0.5c9.95,1.26,19.92,2.43,29.81,4.08c4.61,0.77,9.03,2.6,13.56,3.9
		c2.49,0.71,5,1.77,7.51,1.81c1.3,0.02,3.36-1.58,3.81-2.88c1.06-3.06,3.29-3.88,5.88-3.85c4.77,0.05,9.53,0.69,14.3,0.7
		c4.25,0.01,8.53-0.88,12.76-0.69c8.38,0.38,16.73,1.32,25.1,1.82c2.38,0.14,4.82-0.65,7.22-0.61c7.15,0.13,14.3,0.28,21.43,0.75
		c10.01,0.66,19.99,2.01,30,2.27c3.9,0.1,7.5,0.66,11.18,1.64c3.73,0.99,7.54,1.94,9.6,5.48c1.96,3.38,5.44,3.01,8.33,4.13
		c5.27,2.03,10.59,3.91,15.85,5.98c5.28,2.08,10.47,4.36,15.74,6.46c11.49,4.58,23.06,8.96,34.47,13.72
		c5.66,2.37,10.95,5.63,16.59,8.07c3.4,1.47,7.22,1.97,10.7,3.28c1.66,0.62,2.99,2.13,4.47,3.23c-1.19,1.2-2.2,2.7-3.6,3.55
		c-4.7,2.84-9.54,5.44-14.64,8.31c10.27,6.78,20.05,13.18,29.76,19.67c8.27,5.53,16.36,11.32,24.71,16.71
		c7.78,5.03,15.9,9.54,23.69,14.55c4.71,3.03,9.06,6.62,13.63,9.87c3.97,2.82,8.09,5.43,12.05,8.27c6.45,4.62,12.7,9.54,19.26,14
		c8.09,5.48,16.43,10.59,24.63,15.91c4.11,2.66,8.23,5.31,12.19,8.19c2.76,2.01,5.26,4.02,8.75,5.1c3.09,0.96,5.47,4.05,8.37,5.85
		c3.55,2.21,7.34,4.04,10.99,6.07c1.71,0.95,3.38,1.97,5.03,3.02c12.66,7.99,25.32,15.98,37.96,23.99c0.42,0.26,0.75,0.66,1.12,0.99
		c5.73,5.22,12.95,6.33,20.2,7.77c6.83,1.36,13.44,3.8,20.22,5.5c8.99,2.26,18.04,4.24,27.06,6.4c7.12,1.71,14.24,3.4,21.31,5.31
		c11.61,3.13,23.17,6.46,34.78,9.62c5.76,1.57,12.07,1.98,17.23,4.66c5.97,3.09,12.83,2.8,18.52,6.28c0.85,0.52,2.2,0.21,4.44,0.37
		c-3.64,2.36-6.53,4.09-9.26,6.04c-11.34,8.1-23.83,14-36.38,19.93c-10.92,5.16-22.22,8.86-33.75,12.12
		c-4.38,1.24-8.89,3.12-13.27,2.95c-6.24-0.26-12.17,3.69-18.57,0.88c-1.5-0.66-3.78,0.69-5.72,0.8
		c-6.82,0.41-13.65,0.64-20.46,1.05c-3.44,0.21-6.87,0.94-10.3,0.91c-5.12-0.05-10.27-1.16-15.34-0.79
		c-11.1,0.81-20.24-4.75-30.03-8.28c-4.44-1.6-8.76-3.61-13.3-4.81c-8.6-2.27-15.93-7.07-23.74-10.94
		c-6.81-3.38-13.91-6.18-20.95-9.09c-9.89-4.09-19.93-7.81-29.7-12.15c-5.54-2.46-10.71-2.17-16.09-0.14
		c-1.67,0.63-3.61,2-4.02-1.94c-0.56,1.42-0.83,2.12-1.11,2.82c-0.65-0.24-1.35-0.3-1.79-0.68c-10.02-8.53-20.26-16.82-29.93-25.73
		c-7-6.45-13.06-13.9-19.86-20.57c-5.53-5.42-11.69-10.17-17.3-15.52c-4.8-4.57-9.11-9.65-13.8-14.34
		c-5.45-5.45-11.09-10.72-16.63-16.05c-1.08,1.55-1.86,2.69-3.18,4.59c-8.55-8.75-18.73-15.48-25.94-26.45
		c-0.5,2.15-1.07,3.61-1.15,5.09c-0.41,8.1-0.45,16.22-1.1,24.3c-0.88,10.82,2.73,20.6,5.94,30.6c3.38,10.52,6.09,21.25,9.14,31.87
		c0.54,1.87,1.48,3.63,1.91,5.51c1.07,4.71,1.96,9.46,2.74,13.34c-3.91,2.14-7.17,4.09-10.57,5.76c-4.08,2.01-8.29,3.78-12.43,5.68
		c-3.81,1.75-7.6,3.53-11.39,5.3c-0.74,0.35-1.42,0.95-2.19,1.09c-10.7,1.84-10.52,11.13-11.73,18.56
		c-0.58,3.61,2.09,8.04,4.06,11.69c3.55,6.6,7.67,12.9,11.59,19.3c0.59,0.97,1.27,2,2.16,2.66c1.81,1.33,3.89,3.39,5.03-0.8
		c0.18-0.67,1.47-1.04,2.65-1.82c9.12,12.84,18.33,25.49,27.19,38.38c8.95,13.01,17.24,26.48,26.41,39.32
		c7.23,10.12,15.37,19.59,23.09,29.36c1.21,1.53,2.34,3.13,3.74,5.01c4.43-3.87,4.54-9.74,8.4-14.97c0.42,0.94,0.91,1.66,1.07,2.45
		c1.12,5.58,2.47,11.13,3.17,16.77c0.92,7.49,1.49,15.03,1.9,22.56c0.55,9.95,0.76,19.91,1.22,29.87c0.13,2.78,0.74,5.53,0.93,8.3
		c0.15,2.27,0.19,4.54-2.18,6.11c-0.76,0.51-1.15,1.99-1.21,3.06c-0.29,4.86-0.61,9.74-0.52,14.6c0.12,6.27,0.98,12.54,0.87,18.8
		c-0.28,16.82-0.91,33.64-1.41,50.93c-7.02,0.66-6.93,7.17-8.33,12.2c-2.65,9.54-4.8,19.23-6.99,28.9
		c-1.8,7.94-3.38,15.93-5.03,23.9c-0.52,2.48,0.23,4.36,2.47,5.79c2.61,1.66,5.25,3.38,7.53,5.46c2.77,2.53,2.87,5.47-0.16,7.48
		c-2.73,1.82-6.14,3.39-9.33,3.57c-8.47,0.49-16.99,0.25-25.49,0.11c-2.25-0.04-4.49-0.76-7.08-1.23c0.23-0.79,0.67-1.51,0.57-2.17
		c-0.11-0.76-0.68-1.45-0.97-2.01c-6.73,0.46-12.53-1.43-17.59-5.82c-1.02-0.88-2.51-1.37-3.87-1.67c-1.87-0.42-3.82-0.5-6.26-0.79
		c-1.7,2.54-3.17,5.77-5.58,8.01c-2.24,2.09-5.32,3.77-8.31,4.48c-5.19,1.24-10.65,2.61-15.76-0.66c-1.02-0.65-1.96-1.46-3.04-1.97
		c-1.72-0.81-3.48-1.71-5.32-2.07c-5.73-1.11-9.41,1.2-11.12,6.89c-0.37,1.23-1.7,2.17-3.15,3.91c-2.04-7.53,1.77-13.73,1.07-21.41
		c-3.98,4.39-7.34,8.1-10.7,11.81c-0.34-0.16-0.68-0.31-1.01-0.47c0.19-1.12,0.45-2.24,0.55-3.37c0.48-5.37,0.76-10.76,1.43-16.1
		c0.28-2.21,1.22-4.37,2.13-6.44c0.2-0.46,1.52-0.42,2.83-0.74c-0.17-0.83-0.03-2.65-0.76-3.13c-1.97-1.28-4.52-3.06-6.47-2.69
		c-4.44,0.85-7.39-0.96-10.52-3.44c-1.58-1.25-3.61-1.91-5.38-2.95c-3.63-2.12-6.14-0.51-8.58,2.23
		c-5.22,5.86-11.86,7.38-19.32,5.75c-1.22-0.27-2.26-1.28-3.44-1.83c-2.3-1.07-4.65-2.04-6.96-3.09c-0.78-0.36-1.5-0.86-2.72-1.58
		c-1.8,2.45-3.75,5.11-5.7,7.76c-0.3-0.11-0.6-0.22-0.9-0.33c0-3.37,0-6.75,0-11.2c-2.5,2.74-4.26,4.67-6.87,7.54
		c-0.28-7.12-4.33-12.42-1.56-18.75c0.79-1.81,0.91-3.25,3.27-3.52c1.01-0.12,2.68-1.34,2.71-2.13c0.28-6.2,5.12-8.85,9.07-12.19
		c0.87-0.73,2.11-1.1,2.8-1.94c4.36-5.35,9.78-4.44,15.51-3.08c5.17,1.23,10.17,1.2,13.71-3.94c2.48-3.59,5.29-6.8,6.52-11.28
		c1.75-6.37,4.3-12.54,6.67-18.73c1.02-2.64,2-4.96-1.27-6.81c-0.58-0.33-0.81-1.69-0.81-2.57c-0.04-10.91-0.22-21.78,1.79-32.63
		c1.07-5.8,0.65-11.86,1.22-17.77c0.75-7.82,1.81-15.62,2.76-23.42c0.67-5.52,2.11-11.08,1.74-16.52c-0.16-2.35,1.58-3.1,1.5-4.89
		c-0.09-1.96,0.28-3.94,0.3-5.91c0.01-0.91-0.33-1.82-0.53-2.82c-1.24,0.48-2.27,0.87-3.4,1.31c-5.15-7.16-4.27-16.21-7.48-23.96
		c-0.95-2.28-1.61-4.88-4.68-5.76c-1.63-0.47-2.97-1.91-4.48-2.85c-6.03-3.74-13.25-5.19-18.71-10.18c-1.77-1.62-4.78-1.76-7.13-3.2
		c-4.05-2.49-8.57-5.52-13.03-5.75c-6.96-0.37-12.17-4.46-18.35-6.32c-5.24-1.58-10.04-4.73-14.86-7.48
		c-4.39-2.5-8.8-5.08-12.74-8.2c-4.49-3.57-8.75-0.53-13.04-0.24c-6.1,0.41-12.27,1.23-17.96-1.4c-4.09-1.89-7.66-4.87-11.58-7.14
		c-5.88-3.41-11.88-6.6-17.81-9.92c-4.38-2.45-7.15-6.07-8.96-10.84c-2.53-6.67-5.9-13.02-8.52-19.67
		c-2.47-6.26-1.35-7.65,5.28-7.69c2.33-0.01,4.65,0,8.11,0c-5.08-3.4-9.17-6.06-14.38-7.1c-7.01-1.39-13.98-3.17-20.78-5.34
		c-5.36-1.72-10.44-4.29-15.41-6.39c-0.41-9.71-0.79-19.01-1.18-28.14c-10.26,2.18-20.66,4.39-31.5,6.7c-0.06,1-0.19,2.45-0.21,3.91
		c-0.05,6.37-1.74,9.06-7.92,10.19c-9.31,1.71-18.74,2.81-28.11,4.18c-2.1,0.31-4.2,0.61-6.29,1.02
		c-9.91,1.95-19.78,4.17-29.73,5.84c-9.83,1.66-19.76,2.74-29.63,4.16c-3.54,0.51-7.03,1.57-10.58,1.84
		c-2.94,0.23-3.57,1.95-3.71,4.19c-0.72,11.69-1.07,23.42-2.13,35.08c-0.79,8.72-2.86,17.12-11.95,21.38
		c-0.73,0.34-1.57,0.47-2.84,0.83c-3.42,13.23-7.01,26.73-10.37,40.28c-2.42,9.77-4.46,19.63-6.78,29.43
		c-0.9,3.8-2.05,7.53-3.12,11.29c-3.52,12.35-7.3,24.64-10.51,37.07c-3.4,13.16-6.26,26.46-9.34,39.7c-0.37,1.59-0.5,3.26-1.09,4.75
		c-0.99,2.53-1.84,5.22-4.98,6.17c-2.35,0.71-3.39,2.47-4.01,4.97c-2.18,8.8-3.7,17.77-7.39,26.21c-1.45,3.31-1.44,7.42-1.44,11.17
		c-0.01,6.42,0.54,12.85,0.74,19.28c0.15,4.74,0.18,9.48,0.15,14.23C637.68,912.47,637.36,914.24,637.14,916.44z M1133.16,916.43
		c3.7,2.39,8.05,1.88,11.9,0.99c3.38-0.78,4.02-4.4,3.75-7.75c-0.01-0.15,0.12-0.31,0.18-0.46c3.66-10.31,7.32-20.63,10.87-30.62
		c-1.79-1.54-3.6-2.32-3.84-3.43c-0.76-3.6-2.79-6.77-2.48-10.82c0.38-5.04-0.5-10.17-0.88-15.26c-0.03-0.45-0.32-0.91-0.56-1.32
		c-0.25-0.43-0.58-0.81-1.11-1.53c-0.55,5.39-1.95,9.85-5.25,13.89c-0.46-1.01-0.75-1.63-1.13-2.46c-1.7,8.03-3.31,15.62-4.9,23.22
		c-1.36,6.52-2.79,13.04-4.01,19.59C1134.73,905.72,1134.01,911.04,1133.16,916.43z M583.23,847.03c-3.66,3.24-9.84,3.94-9.88,10.4
		c0,0.73-1.41,1.36-1.9,2.19c-1.32,2.21-2.59,4.46-3.69,6.79c-0.96,2.03-1.53,4.25-2.51,6.28c-1.51,3.15-3.22,6.21-4.8,9.22
		c2.25,1.17,3.93,2.04,5.38,2.79c5-2.06,8.46-5.26,9.98-10.33c1.02-3.39,2.22-6.73,3.13-10.14
		C580.46,858.51,581.81,852.76,583.23,847.03z"/>
</g>
</svg>
