<?xml version="1.0" encoding="utf-8"?>
<!-- Generator: Adobe Illustrator 24.1.1, SVG Export Plug-In . SVG Version: 6.00 Build 0)  -->
<svg version="1.1" id="Layer_1" xmlns="http://www.w3.org/2000/svg" xmlns:xlink="http://www.w3.org/1999/xlink" x="0px" y="0px"
	 viewBox="0 0 124.25 309.54" style="enable-background:new 0 0 124.25 309.54;" xml:space="preserve">
<style type="text/css">
	.st0{fill:#1A1A1A;}
</style>
<g>
	<path d="M43.93,9.42c3.78-1.05,6.85-3.05,10.67-3.13c4.87-0.1,9.43,0.49,12.96,3.96c3.52,3.47,7.73,4.88,12.41,5.74
		c5.63,1.03,10.87,2.8,14.1,8.25c1.36,2.28,3.89,3.56,6.38,4.64c8.26,3.6,12.58,10.56,15.35,18.61c0.65,1.89,0.97,3.91,2.28,5.42
		c6.8,7.81,7,17.33,5.23,26.42c-2.02,10.39-1.27,20.6-0.33,30.8c1.44,15.62,2.07,30.92-4.44,45.78c-2.41,5.49-2.53,11.67-2.58,17.66
		c-0.04,4.68-0.24,9.21-2.19,13.64c-2.44,5.56-2.42,11.75-2.97,17.61c-1.99,21.2-6.32,41.99-10.41,62.82
		c-1.01,5.14-3.11,9.67-7.21,13.75c-4.86,4.84-8.16,11.17-12.96,16.35c-9.57,10.3-21.67,12.35-34.6,11.68
		c-3.89-0.2-8.86-0.72-9.38-6.79c-0.18-2.13-2.62-2.87-4.27-3.92c-9.58-6.08-15.16-14.45-16.11-26.02
		c-0.6-7.24-2.16-14.39-3.22-21.59c-0.83-5.63-0.99-11.4,1.45-16.56c1.69-3.55,2.34-7.11,1.72-10.63
		c-2.13-12.18-0.24-24.32,0.4-36.41c0.38-7.19-0.55-14.14-2.64-20.53c-3.59-11.02-5.8-22.56-11.09-33.03
		c-0.88-1.74-1.57-3.83-1.53-5.74c0.21-11.26-2.5-22.55,0.3-33.8c2.25-9.03,1.32-18.39,2.64-27.53c0.5-3.44-1.18-6.51-1.92-9.73
		c-3.33-14.38-2.73-28.32,3.88-41.79c3.23-6.59,9-10.69,14.84-14.24c4.01-2.44,9.05-0.21,13.65,0.41
		C39.31,2.19,41.2,6.32,43.93,9.42z"/>
	<path class="st0" d="M87.77,61.13c2.1,6.23,8.01,8.65,12.61,12.26c4.48,3.52,8.89,6.98,11.85,11.92
		c3.98,6.66,6.97,13.37,4.84,21.66c-1.13,4.39-0.59,9.27-0.44,13.92c0.36,11.38-1.01,22.52-3.57,33.62
		c-3.36,14.56-5.78,29.29-6.7,44.25c-1.29,20.96-5.54,41.43-11.12,61.62c-3.43,12.39-9.54,23.23-19.51,31.77
		c-7.82,6.71-17.49,8.18-26.93,9.02c-4.31,0.38-9.79-2.28-12.93-6.36c-9.23-11.96-16.85-24.58-17.48-40.45
		c-0.34-8.48,2.02-16.36,3.5-24.45c0.56-3.02,1.38-6.13,0.1-8.8c-3.08-6.4-1.89-13.15-1.73-19.64c0.21-8.36-0.3-16.55-1.61-24.76
		c-0.72-4.53-1.19-9.1-1.85-13.64c-1.06-7.24-2.75-14.24-6.1-20.9c-4.08-8.09-6.19-16.85-6.05-25.98c0.14-9.24-1.4-18.69,2.98-27.49
		C6.2,77.35,9.16,66.02,6.05,54.41C1.56,37.66,3.28,21.35,17.22,8.67c7.92-7.21,19.46-5.02,24.34,4.45c0.58,1.13,0.88,2.53,0.9,3.81
		c0.11,7.91-0.17,15.84,0.21,23.73c0.39,8.12-2.26,14.3-9.92,18.28c0.72,1.11,1.37,2.11,2.03,3.12c3.57-0.17,4.94-3.37,7.44-4.86
		c9.36-5.59,19.23-7.11,29.71-4.08c2.85,0.83,5.62,1.97,8.42,2.97C82.83,57.77,85.3,59.45,87.77,61.13z"/>
	<path class="st0" d="M87.77,61.13c-2.47-1.68-4.94-3.36-7.41-5.04c-2.02-3.28-5.27-6.16-3.06-11.07c2-2.39,5.6,0.6,8.1-1.56
		c-0.28-0.37-0.55-1.07-0.87-1.09c-4.6-0.36-8.85-2.09-13.76-3.79c0.08,3.54,3.28,5.51,2.72,8.83c-5.41,4.58-10.91,2.21-16.75-0.15
		c-0.73-3.51-1.47-7.02-2.19-10.47c1.2-2.73,4.76,0.02,5.83-2.72c-0.18-0.48-0.3-1.37-0.58-1.42c-2.29-0.42-4.67-0.44-6.89-1.04
		c-5.78-1.57-9.78-8.26-8.28-13.97c0.68-2.58,2.19-4.83,4.72-6.18c4.49-2.39,15.03-0.52,18.84,3.09c2.91,2.76-0.8,5.68,1.01,9.23
		c2.65-2.04,3.78-5.98,7.84-6.06c4.36-0.09,7.69,1.66,10.92,4.15c3.06,2.35,4.39,5.66,5.5,9.9c4.99,0.22,10.33,0.69,13.39,5.97
		c2.63,4.54,6.55,8.72,2.63,15.09c7.91,0.83,10.71,5.62,11.02,12.18c0.19,3.98,0.21,8.03-0.3,11.97c-0.6,4.54-4.46,5.73-7.96,2.66
		c-1.75-1.53-3.43-3.2-4.85-5.03c-3.11-3.99-5.69-8.44-11.64-8.89c-1.35-0.1-3.13-1.4-3.42-3.24
		C91.72,58.63,89.14,62.04,87.77,61.13z"/>
	<path class="st0" d="M48.28,34.54c6.49,4.04,3.69,9.11,3.99,14C46.67,45.24,46.17,43.49,48.28,34.54z"/>
</g>
</svg>
