<?xml version="1.0" encoding="utf-8"?>
<!-- Generator: Adobe Illustrator 24.1.2, SVG Export Plug-In . SVG Version: 6.00 Build 0)  -->
<svg version="1.1" id="Layer_1" xmlns="http://www.w3.org/2000/svg" xmlns:xlink="http://www.w3.org/1999/xlink" x="0px" y="0px"
	 viewBox="0 0 533.16 1011.9" style="enable-background:new 0 0 533.16 1011.9;" xml:space="preserve">
<style type="text/css">
	.st0{fill:#1A1A1A;}
</style>
<g>
	<path d="M197.29,182.73c-1.88-3.67-1.8-7.88-4.45-11.01c-0.28-0.33-0.46-1.05-0.29-1.4c2.83-6.01-1.34-11.09-2.26-16.57
		c-1.2-7.13-2.87-14.13-1.04-21.42c0.47-1.89,0.17-3.97,0.22-5.96c0.06-2.26-0.33-4.56,1.01-6.72c-5.03-0.04-8.49,4.9-14.26,3.7
		c2.78-4.07,6.01-6.65,7.76-10.76c2.26-5.34,2.63-10.8,3.34-16.22c0.86-6.59,2.9-12.6,6.33-18.81c-3.02,0.19-4.6,2.37-6.64,3.52
		c-1.23,0.69-2.39,1.7-3.34,0.18c-0.7-1.11,0.34-1.8,1.41-2.59c2.99-2.19,4.1-5.84,5.99-8.87c2.46-3.93,5.11-7.45,9.04-10.19
		c3.45-2.4,6.19-5.57,7.49-10.05c2.16-7.48,6.68-13.88,11.71-19.65c5.44-6.22,10.29-13.09,16.99-18.11c3.2-2.4,6.04-5.13,8.84-7.93
		c2.12-2.13,4.29-4.73,7.59-3.59c3.59,1.23,6.08,4.31,6.55,7.94c0.6,4.56,2.8,8.76,2.31,13.42c5.8,0.28,10.56-2.8,16.51-10.58
		c1.61,0.56,2.94,0.94,1.69,3.33c-1.95,3.72-3.51,7.64-7.14,11.59c9.91-0.12,18.5-0.09,25.58-7.03c3.82-3.75,8.4-6.76,12.81-9.87
		c3.12-2.2,5.74-1.42,6.95,2.13c1.84,5.4,3.82,10.77,3.53,16.7c-0.32,6.44,1.61,11.79,6.58,16.64c4.6,4.49,9.71,7.85,15.16,11.26
		c-7.1,1.5-12.47-3.98-19.63-4.28c4.06,5.76,9.14,11.05,10.48,18.03c1.33,6.97,1.7,14.12,2.57,21.86c-4.12-1.51-4.07-5.56-7.12-7.25
		c0.95,3.35,0.95,6.38,4.4,8.47c1.86,1.13,3.26,4.47,3.31,6.85c0.13,6.08,0.98,12.22-0.62,18.31c-1.3,4.94,1.95,9.1,2.93,13.71
		c3.02-1.55,10.05-0.91,12.13,1.38c6.27,6.91,14.25,11.62,21.61,17.12c1.83,1.37,3.99,2.39,5.53,4.02
		c8.79,9.28,20.68,13.08,31.9,17.87c10.79,4.6,21.51,9.36,32.29,13.98c7.82,3.35,15.33,7.2,22.57,11.68
		c8.8,5.43,14.89,13.21,19.95,21.95c2.95,5.09,5.68,10.3,8.76,15.32c2.1,3.43,1.65,7.47,0.66,11.09
		c-1.75,6.36-4.42,12.37-10.64,15.74c-4.43,2.39-9.28,3.82-14.06,5.29c-8.97,2.77-18.05,2.21-27.34,1.34
		c-9.99-0.94-19.94-3.57-30.06-2.18c-9.45,1.29-18.42-0.68-27.41-3.04c-4.5-1.18-8.13-4.15-13.03-5.73
		c6.11,13.32,11.08,26.72,6.1,41.39c-4.87,14.35-14.33,24.33-28.96,29.42c0.45,5.94-0.87,11.6-1.29,17.35
		c-0.52,7.14-1.35,14.32-2.54,21.44c-0.91,5.46-0.87,11.24,0.79,16.74c3.03,10,4.63,20.33,6.64,30.52c0.9,4.54,1.3,9.43,1.41,14.24
		c0.2,8.68,0.36,17.45,2.98,25.83c1.6,5.11,3.96,9.98,5.88,14.99c4.03,10.5,7.26,21.18,9.15,32.34c1.66,9.77,4.9,19.27,6.55,29.04
		c1.36,8.05,3,16.1,3.42,24.32c0.23,4.55,0.74,9.22,2.1,13.54c1.32,4.2,1.11,8.53,1.49,12.67c0.55,6.04,1.27,12.14,1.48,18.26
		c0.22,6.34,1.64,12.63,2.54,18.95c1.09,7.61,2.29,15.2,3.27,22.82c0.63,4.87,1.83,9.64,2.1,14.58c0.32,6.02-0.61,11.85-2.26,17.53
		c-3.31,11.41-6.91,22.86-8.46,34.56c-2.18,16.39-6.56,32.28-9.48,48.48c-1.41,7.83-3.94,15.46-5.21,23.35
		c-1.22,7.57-2.34,15.17-3.68,22.72c-1.2,6.75-2.34,13.52-3.49,20.27c-0.55,3.22-0.87,6.56-1.18,9.72
		c-0.92,9.3-1.54,18.57-0.58,28.1c2.23,22.2,7.71,43.68,12.2,65.4c1.19,5.77,4.12,10.62,8.2,14.1c2.12,1.81,5.01,3.53,7.42,5.32
		c7.7,5.73,12.6,13.4,13.41,23.21c0.11,1.39,0.54,2.62,1.09,3.73c2.08,4.21,2.06,8.79,2.73,13.62c-3.52,0.27-3.04,4.91-6.55,5.84
		c-1.19-3.61-3.92-4.42-7.61-3.53c-2.05,1.14-0.66,4.86-3.61,5.67c-3.39-3.36-3.42-3.22-10.94-4.9c-4.98-1.11-8,1.44-10.33,4.88
		c-1.81,0.04-2.72-1.03-3.11-1.94c-0.84-1.97-2.26-2.01-3.99-1.99c-4.33,0.07-8.71-0.37-12.99,0.12
		c-5.92,0.67-11.11-2.23-16.76-2.74c-3.61-0.32-5.25-2.89-5.89-6.26c-1.15-6.08-2.22-12.18-3.58-18.22
		c-3.63-16.05-9.24-31.48-14.8-46.94c-3.7-10.28-8.32-20.11-12.5-30.16c-2.13-5.12-4.09-10.54-2.24-16.55
		c1.05-3.41,3.62-5.41,5.54-7.92c4.21-5.51,7.89-11.09,9.09-18.1c0.25-1.47,0.53-2.93,0.47-4.39c-0.37-10.02-1.6-19.95-2.79-29.91
		c-1.37-11.38-3.53-22.62-5.34-33.91c-1.95-12.09-3.21-24.28-5.62-36.31c-0.89-4.43-1.77-9.07-1.27-13.77
		c0.19-1.76-0.04-3.54-0.56-5.37c-0.84-2.93-0.82-6.08,0.67-9.18c-1.95,0.43-2.54,2.16-4.7,2.92c3.07-8.45,4.55-16.77,7.7-24.63
		c4.29-10.7,10.71-20.25,15.94-30.42c2.14-4.17,2.3-9.52-0.21-13.73c-6.11-10.25-12.34-20.43-17.17-31.35
		c-4.79-10.86-10.28-21.5-11.82-33.52c-0.05-0.4-0.6-0.74-1.23-1.48c-2.15,4.18-4.21,8.15-6.24,12.14
		c-6.05,11.84-13.78,22.53-21.95,32.99c-6.31,8.07-12.94,15.79-20.11,23.11c-3.93,4.01-5.15,9.39-5.23,14.87
		c-0.14,9.16-0.34,18.34,0.03,27.49c0.57,13.96-1.39,27.5-5.31,40.86c-5.49,18.71-10.89,37.45-16.12,56.24
		c-2.79,10.02-5.06,20.18-8.41,30.06c-1.13,3.34-0.75,7.21-0.94,10.76c-0.31,5.61-1.52,11.16-1.26,16.78
		c0.63,13.46-1.97,26.87-0.91,40.29c0.73,9.23,0.81,18.54,4.32,27.51c2.46,6.29,3.47,13.18,4.69,19.93
		c1.24,6.87,3.98,13.39,6.46,19.93c2.26,5.94,4.66,11.77,8.13,17.18c4.56,7.11,4.95,15.32,3.95,23.29
		c-0.35,2.76-2.45,5.75-3.56,8.75c-1.85,5.04-3.54,5.13-6.98,0.55c-3.83,2.28-8.27,3.51-10.76,7.96c-1.12,2-3.48,1.68-5.09-0.13
		c-1.81-2.05-3.95-2.28-6.26-1.21c-2.22,1.03-4.58,0.21-6.87,0.74c-2.41,0.55-2.58,4.04-5.34,3.68c-2.26-0.29-2.84-3.1-5.5-3.4
		c-3.51-0.39-6.98-1.44-11.01-1.93c-0.84,0.29-0.22,1.79-1,2.69c-1.47,1.71-3.22,1.44-3.96,0.11c-1.66-2.97-4.39-4.21-7.07-5.83
		c-6.99-4.22-10.3-10.21-10.41-18.74c-0.2-15.54-1.54-31.05-2.08-46.59c-0.29-8.51-0.93-17.15-2.06-25.57
		c-1.33-9.9-1.86-19.88-3.4-29.76c-1.07-6.88-1.21-14.18,1.28-21.1c3.06-8.5,3.53-17.56,5.57-26.26c1.07-4.55-0.17-9.27,1.73-13.64
		c0.31-0.7,0.32-1.75,0.03-2.46c-1.58-3.86-0.98-7.88-0.87-11.81c0.63-22.45-0.98-44.86-1.23-67.29c-0.05-4.71-1.03-9.53-0.77-14.3
		c0.79-14.74,1.36-29.53,5.08-43.92c0.84-3.26,2.55-6.29,4.01-9.79c-8.01-0.44-15.49-2.13-23.23-2.45
		c-17.82-0.75-34.22-6.13-48.6-17.06c-11.08-8.42-20.3-18.5-27.57-30.38c-0.98-1.6-2.03-3.28-3.91-4.22
		c-0.82-0.41-1.59-1.21-1.75-2.3c-1.31-8.91-6.07-16.77-7.55-25.69c-1.38-8.34-4-16.47-5.25-24.82c-0.37-2.49-2.77-4.15-2.05-7.04
		c2.73,1.22,3.9,4.09,6.94,5.59c-3.01-8.21-5.38-16.13-3.77-24.59c1.83-0.63,2.13,1.14,3,1.82c0.4,0.2,0.67,0.01,0.56-0.44
		c-2.24-9.17,1.44-17.69,2.99-26.42c2.04-11.46,0.31-22.06-6.01-31.91c-2.54-3.96-4.33-8.47-8.84-10.84c-1.13-0.59-1-2.02-2.23-3.62
		c24.94-2.92,47.28,1.43,67.13,16.52c20.18,15.34,27.6,37.35,31.93,60.82c1.64,0.57,1.95-1.37,3.59-1.05
		c4.55,9.74,14.04,11.77,23.55,13.7c2.89,0.59,4.41-0.91,3.91-4.05c-3.13-19.36-2.92-38.86-3.07-58.38
		c-0.07-8.67,1.38-17.01,3.21-25.34c2.4-10.98,5.48-21.75,9.81-32.17c4.86-11.68,11.1-22.57,18.51-32.74
		c7.03-9.66,13.81-19.42,18.26-30.57c2.33-5.84,2.17-11.97,0.1-17.83c-0.66-1.87,0.73-4.65-1.57-5.49c-1.92-0.7-4.32,0.03-6.42-0.36
		c-3.94-0.74-8.2-0.79-11.31-3.94c-1.08-1.09-2.1-0.97-3.55-0.5c-9.42,3.02-19.29,3.31-29,4.68c-11.05,1.56-22.18,2.2-33.23,3.69
		c-6.92,0.93-13.78-0.81-20.47-2.36c-4.87-1.13-9.63-2.95-14.09-5.44c-5.95-3.3-10.73-8.12-15.65-12.57
		c-4.6-4.16-2.93-10.7-1.94-15.99c0.62-3.3,2.26-6.74,3.32-10.12c1.99-6.38,6.09-11.49,9.49-17.03c0.68-1.11,1.65-2.28,2.78-2.82
		c4.56-2.18,6.73-6.28,8.36-10.56c4.81-12.66,12.34-23.34,21.83-32.96c4.84-4.91,9.76-9.65,14.98-14.14
		c1.16-0.99,1.77-2.71,2.42-4.19c7.12-16.18,18.04-28.49,34.89-35.04c1.85-0.72,4.3-0.87,5.4-3.5c0.99-2.37,3.42-0.22,5.25-0.6
		c3.49-0.73,7.3-0.81,10.64-1.73c6.47-1.78,13.12-0.21,19.47-1.97C196.25,183.71,196.59,183.27,197.29,182.73z M169.14,274.59
		c-6.62,8.85-13.05,16.79-20.57,23.86c8.74,5.48,18.47,4.38,28.07,6.85C173.82,294.88,170.39,285.48,169.14,274.59z"/>
	<path class="st0" d="M374.37,298.52c-2,6.62-5.88,11.83-9.9,16.96c-2.55,3.25-6.51,4.54-9.9,6.27c-4.85,2.47-10.11,4.67-15.91,4.25
		c-5.11-0.37-10.37,0.98-15.33-0.68c-9.91-3.32-17.68-9.67-23.81-18.06c-2.12-2.9-4.15-5.85-5.54-9.2c-0.5-1.21-1.01-2.58-3.05-1.8
		c-1.05,1.96-0.43,3.91,0.55,5.86c7.11,14.06,18.02,23.36,33.57,26.84c2.54,0.57,5.05,1.47,8.17,0.99c0.13,4.15-0.37,8.13-1,11.78
		c-1.07,6.16-0.34,12.39-1.67,18.51c-0.89,4.12-1.71,8.3-2.31,12.51c-0.66,4.59-0.07,9.09,0.56,13.38
		c0.69,4.67,0.25,9.18,0.12,13.79c-0.27-5.42-0.56-10.82-1.9-16.29c-2.63,4.53-1.88,9.44-1.31,13.96c0.41,3.29,0.55,6.55,0.74,9.83
		c0.27,4.77,0.11,9.51,0.7,14.32c0.48,3.88-0.67,8.12-0.75,12.25c-0.25,12.91-4.11,25.02-8.48,37c-0.39,1.07-1.11,2.03-1.39,3.12
		c-0.26,0.99-0.27,1.99-1.78,2.37c-0.46-7.95-4.25-14.28-10.39-18.92c-3.97-3-8.86-4.18-14-3.59c-11.26,1.3-23.9,11.25-23.49,19.35
		c3.26-4.64,6.64-8.38,10.92-11.22c8.29-5.49,16.57-7.8,25.65-1.08c4.11,3.03,5.64,7.82,6.97,12.54c2.07,7.37-2.08,12.63-6.04,18.05
		c-2.21,3.03-5.53,4.89-7.59,8.17c-1.39,2.21-4.79,1.99-6.58,0.17c-2.53-2.57-5.75-2.82-8.44-2.38c-4.36,0.71-7.24-0.84-9.89-3.76
		c-0.42-0.46-0.73-1.58-0.99-1.55c-4.61,0.55-5.05-4.22-7.77-6c-1,0.38-0.34,1.54-0.6,1.73c-6.99-3.27-14.24-5.91-18.39-13.35
		c-0.91,1.98-1.55,3.36-2.21,4.78c-4.73-6.34-8.28-13.3-10.96-20.62c-1.65-4.51,0.31-9.19,0.98-13.76c1.76-11.9,6.61-23.1,8.2-34.97
		c0.56-4.16,2.83-8.64,0.4-13.03c1.42-9.79-2.33-18.84-3.93-28.21c-0.52-3.04-0.71-6.19-1.02-9.28c-0.42-4.21,2.95-6.57,6.03-8.52
		c3.71-2.34,6.57-4.47,7.24-9.64c0.4-3.06,2.95-7.17,7.12-8.18c9.76-2.35,17.47-7.82,23.32-15.72c4.22-5.7,6.77-12.36,7.05-19.51
		c0.15-3.84,1.28-7.98-1.37-11.61c-2.44,1.21-1.39,3.44-1.49,5.24c-0.69,11.82-4.1,22.45-12.95,30.84
		c-3.71,3.52-10.18,6.48-18.2,8.02c-2.72-6.15-4.63-12.61-6.45-19.11c0.47-1.05,1.45-1.1,2.41-1.45c7.92-2.87,11.58-9.3,13.08-16.98
		c1.64-8.37-2.01-15.23-8.99-19.18c-8.09-4.58-22.88-2.76-25.99,10.73c-1.25,5.43-1.59,10.69,0.63,16.28
		c-12.07,0.5-24.07,0.81-36.52,3.65c-0.6-0.39-1.73-1.31-2.09-3.21c-0.79-4.15-2.4-8.19-2.75-12.36c-0.35-4.2-0.28-8.3,1.51-12.69
		c2.08-5.13,3.68-10.64,5.36-16.02c1.68-5.36,3.88-10.24,8.44-14.35c3.01-2.71,5.55-5.31,9.4-7c3.29-1.44,3.27-2.58,4.39-6.48
		c1.94,1.96,3.99,1.36,4.37-0.85c0.57-3.35,3.33-6.14,2.4-9.83c-0.15-0.58,0.11-1.31,1.27-1.45c2.91,8.28-2.07,16.21-1.25,24.6
		c2.49-4.08,5.62-7.31,9.02-10.23c0.76-0.66,1.31-3.71,3.49-1.06c0.29,0.35,1.68-1.19,2.29-2.14c3.55-5.57,6.92-6.28,12.35-2.71
		c2.44,1.6,4.97,3.09,6.75,5.45c0.46,0.61,0.99,1.12,1.55,0.84c3.09-1.53,5.03,0.96,6.86,2.33c5.34,4,11.49,7.26,14.55,13.67
		c0.63,1.31,1.51,0.97,3.2,0.85c-1.15-8.23-3.26-16.01-7.34-24.17c-2.16,5.17,2.44,8.99,0.62,13.61
		c-6.74-5.08-14.21-8.9-19.12-15.61c-2.58-3.52-4.66-7.5-6.63-11.52c-1.57-3.23-0.55-5.4-0.18-8.11c0.59-4.39,1.36-8.8,1.38-13.2
		c0.01-3.35,1.08-6.11,2.69-8.79c1.99-3.33,3.91-6.56,4.56-10.58c0.86-5.24,9.6-12.58,13.99-12.4c0.66,0.03,1.52-0.19,1.96,0.14
		c5.76,4.31,12.99,5.05,19.27,8.06c1.49,0.71,2.46,1.69,1.77,3.86c-1.03,3.22-0.82,6.81-2.6,9.84c-0.74,1.27-1.01,3.07-0.39,3.79
		c1.78,2.08-0.02,3.79-0.15,5.59c10.74,4.22,14.19,10.66,14.72,20.24c-2.85-1.1-4.89-3.74-9.07-4.66c4.88,4.94,6.42,10.1,6.54,16.2
		c0.12,6.25-3.12,10.64-5.76,15.6c-3.11-2.18,0.27-6.16-3.11-8.46c0,7.02,0,13.66,0,20.33c1.2,0.59,2.39,0.79,2.6-0.87
		c0.73-5.84,3.44-10.82,6.57-15.64c2.08-3.21,2.64-6.97,3.83-10.51c3.28,0.41,5.43,1.92,6.83,5.2c1.28,3,0.21,6.18,1.91,9.19
		c3.39-8.29,3.29-17.49,6.76-26.04c2.24,1.31,3.77,5.44,7.04,2.02c1.91,2.34,3.86,4.29,5.81,6.08c4.17,3.82,8.09,7.68,11.4,12.35
		c2.7,3.81,7.11,6.14,9.97,10.09c5.8,8.01,12.07,15.7,15.89,24.71c-0.55,0.91-1.12,0.91-1.49,0.61c-9.54-7.62-19.99-2.73-25.41,5.31
		c-6.56,9.71-2.14,22.36,8.73,26.4c5.87,2.18,11.14,2.3,16.12-1.8c0.55-0.45,1.14-0.68,1.83-0.58
		C373.46,298.12,373.75,298.29,374.37,298.52z M290.1,385.97c-1.36,4.56-2.19,9.15-2.92,13.8c-1.31,8.33-3.93,16.46,0.23,24.67
		c0.14,0.27-0.04,0.68,0.06,0.99c1.34,4.12,0.76,8.51,1.56,12.72c1.29-7.98-0.53-16.12,2.38-23.29c-1.92-2.02-3.46,1.31-4.87-0.79
		c0.71-1.92,2.93-0.31,4.16-2.48c-2.08-2.7-2.03-6.42-1.11-9.85C290.99,396.45,290.16,391.22,290.1,385.97z M295.53,464.96
		c6.2,6.99,6.43,14.63,1.22,23.6c4.94-3.43,6.07-7.58,7.82-11.44c1.68-3.72,0.74-7.04-0.79-10.3
		C301.86,462.75,298.65,462.11,295.53,464.96z M295.7,415.3c4.92,4.21,16.75,4.99,20.68,1.63
		C309.13,417.47,302.38,416.87,295.7,415.3z M289.36,377.33c-4.57,3.1-9.41,5.17-14.77,7.36c6.55,1.29,10.54-3.72,15.84-5.2
		c-0.39-2,0.68-4.57-0.86-6.9C289.5,374.23,289.42,375.86,289.36,377.33z M268.15,419.46c5.86,0.77,11.13-0.24,15.28-4.5
		c-0.13-0.38-0.25-0.75-0.38-1.13C278.08,415.7,273.11,417.58,268.15,419.46z M302.83,337.31c5.88,4.55,12.87,5.39,19.86,6.24
		C316.32,340.62,309.16,340.35,302.83,337.31z M276.31,340.85c4.74-1.77,9.05-4,11.85-8.33
		C283.65,334.54,280.37,338.36,276.31,340.85z"/>
	<path class="st0" d="M22.72,470.39c7.01-1.93,14.11-2.06,21.23-0.39c9.01,2.11,18.25,3.49,26.53,8c5.62,3.06,10.68,6.84,15.67,10.9
		c5.6,4.55,9.99,9.83,13.72,15.87c6.31,10.21,10.41,21.23,12.66,33.01c1.22,6.36,2.46,12.86,8.55,16.92
		c0.88-1.55-1.59-2.74-0.22-4.24c7.75,6.24,16.52,9.66,26.86,9.37c0.11,0.17,0.59,0.57,0.6,0.98c0.04,4.79,0.8,9.53,1.07,14.28
		c0.79,13.78,1.28,27.52,3.79,41.19c1.14,6.2,1.37,12.71,2.35,19.02c0.97,6.24,0.99,12.28-1.28,18.3
		c-2.15,5.68-5.08,10.92-8.41,16.17c-7.9,1.21-15.63-1.71-24.1-2c3.05-2.47,6.9-2.42,9.64-5.44c-3.45-0.67-6.28,0.96-8.74,1.88
		c-8.77,3.29-17.07,1.62-25.48-0.94c-8.57-2.6-16.2-6.7-22.86-12.84c-4.02-3.71-8.87-6.51-12.76-10.44
		c-7.49-7.57-13.8-15.92-18.43-25.63c-3.09-6.46-6.93-12.59-8.22-19.71c-1.65-9.14-3.98-18.1-6.34-27.07
		c-0.16-0.62-0.02-1.31-0.02-2.32c3.1,1.36,4.42,4.63,8.48,6.42c-4.03-9.34-8.25-17.47-7.4-26.93c1.41,0.36,1.54,2.44,3.69,1.86
		c0.14-3.23,0.62-6.53-0.39-9.95c-0.75-2.54-0.49-5.16,0.1-7.81c1.87-8.47,3.78-16.9,3.58-25.73c-0.26-11.55-4.69-21.18-12.11-29.69
		C23.74,472.6,22.48,472.08,22.72,470.39z"/>
	<path class="st0" d="M361,196.55c0.9-0.64,1.79-1.28,2.69-1.92c-9.73,1.41-19.28,0.28-29.11-2.02c2.78-2.87,2.29-6.98,4.65-10.21
		c1.51-2.07,2.79-2.46,4.75-2.34c3.02,0.18,4.66-0.73,5.2-4.07c0.45-2.8,2.24-5.06,5.68-4.97c0.94,0.02,1.84,0.1,2.6-0.93
		c2.12-2.87,0.98-10.8-2.01-13.06c-3.32-2.5-4.11-5.72-2.04-9.33c0.69-1.21,1.54-2.15,0.34-3.69c-5.18,2.41-5.64,6.48-3.88,11.57
		c3.95,0.81,5.71,3.89,6.5,7.99c-2.14,2.05-6.57,1.95-6.24,6.2c-1.37,0.46-2-0.99-3.07-0.55c-1.45,1.15,0.66,2.02,0.09,3.44
		c-2.7,0.32-5.41,1.26-7.6,3.62c-5.22-3.99-8.52-9.45-12.87-13.91c-2.11-2.16-1.25-5.57-1.05-8.29c0.18-2.41,0.44-4.62-0.07-7.08
		c-0.74-3.59,2.31-8.08,5.75-9.34c2.3-0.85,3.94-0.28,4.09,2.38c0.09,1.62,0.15,3.25-0.34,4.92c-1.17,3.96-0.86,6.09,0.92,10.34
		c2.19-3.44,1.27-7.33,1.5-11.07c0.11-1.78-0.27-3.53,0.56-5.35c2.75-5.99,9.62-7.69,14.62-2.96c7.72,7.3,16.21,13.49,25.1,19.25
		c3.84,2.49,5.77,6.55,7.27,10.71c1.5,0.33,1.25-1.38,2.57-1.85c12.31,7.94,26.94,11.4,40.2,18.03c9.47,4.74,19.68,7.8,29.11,12.71
		c7.09,3.69,13.59,7.98,18.83,14.05c0.76,0.87,1.47,1.69,1.94,2.81c2.5,6.01,6.43,11.31,8.34,17.69c0.5,1.67,3.09,3.46,4.57,5.36
		c2.66,3.38,2.48,7.37,1.43,10.89c-1.14,3.84-3.58,7.31-5.54,10.89c-1.04,1.89-2.51,3.15-4.82,3.67c-4.58,1.04-8.75,3.27-13.45,4.29
		c-3.54,0.77-6.8,0.53-9.51-0.68c-2.46-1.1-4.46-0.84-6.78-0.75c-4.56,0.17-9.19,0.34-10.97-5.4c-0.21-0.68-1.47-1.11-2.31-1.5
		c-9.77-4.43-17.5-11.21-24.39-19.42c-3.07-3.65-5.53-7.73-8.8-11.23c-6.8-7.28-14.98-12.75-23.04-18.41
		c-3.44-2.41-6.03-5.73-10.31-7.32C368.46,198.33,365.3,195.72,361,196.55z M370.61,186.04c2.98-2.41,5.75-4.17,9.07-3.14
		c-1.73-3.88,4.24-4.31,3.31-8.07c-4.45,6.16-11.64,4.06-17.32,6.58C368.38,181.88,370.89,182.21,370.61,186.04z"/>
	<path class="st0" d="M241.29,337.65c-3.87-2.59-0.11-6.47-2.5-9.75c-2.03-2.77-1.54-7.25-2.84-10.72c-1.23-3.27-1-7.17-4.38-10.61
		c1.52,7.28,2.87,13.66,4.17,20.06c0.72,3.52,1.78,6.98,1.72,10.62c-0.1,6.28,1.03,7.44-7.43,8.63c-3.2-10.9-5.31-22.14-9.28-33.73
		c-2.23,3.22-0.58,5.59,0.08,7.24c3.06,7.68,2.96,16.02,5.49,23.78c0.76,2.34-0.02,4.64-2.57,6.27c-3.91,2.5-5.4,2.97-8.95,1.31
		c3.87-2.78,4.51-6.24,2.84-10.61c-0.88-2.31-1.85-4.51-3.14-6.58c-2.06-3.3-4.66-6.28-5.91-10.05c-0.42-1.28-0.84-2.52-3.01-2.2
		c0.7,4.21,3.87,7.07,5.51,10.65c0.5,1.09,1.32,2.24,2.1,3.29c2.06,2.77,3.57,5.63,2.3,9.32c-1.68,4.89-4.65,8.63-9.19,11.07
		c-2.02,1.08-4.37,0.39-5.33-1.16c-1.02-1.66-1.25-4.12,0.57-5.96c0.56-0.57,1.66-0.42,1.94-2.23c-1.43-3.27-3.67-6.77-6.65-10.69
		c-0.3,4.06,3.53,6.25,2.41,9.84c-10.21,3.64-19.98,4.87-27.13-6.33c-1,1.58-0.39,2.94-0.91,4.53c-6.29,1.24-12.79,2.47-19.36,3.48
		c-9.54,1.47-19.18,2.11-28.71,3.71c-5.02,0.84-10.31,0.01-15.46,0.23c-9.16,0.39-17.73-1.52-26.47-4.36
		c-6.14-2-10.09-6.28-15.15-9.33c-6.57-3.97-7.1-9.55-6.59-16.04c0.56-7,3.61-13.17,6.69-19.23c1.13-2.22,2.58-4.48,4.19-6.59
		c10.91-14.27,25.49-13.33,40.39-9.67c10.47,2.57,19.99,7.72,29.45,12.95c6.51,3.59,13.94,5.3,21.16,7.2
		c7.63,2,15.6,2.51,23.34,2.66c5.98,0.12,12.22-1.67,18.29-2.89c7.91-1.59,15.9-2.76,23.91-2.55c4.65,0.12,10.29-0.14,13.03,4.89
		c4.19,7.71,6.87,16.08,9.35,24.47c0.37,1.25-0.55,2.78-1.63,3.31C245.65,336.83,243.8,338.6,241.29,337.65z"/>
	<path class="st0" d="M179.2,966.16c0.96,6.62,2.99,13.01,3.92,19.67c0.52,3.72-0.9,7.68,1.81,11.04c-3.08,2.11-4.7,0.58-6.18-1.35
		c-2.98-3.88-4.62-3.73-6.93,0.65c-2.67,5.06-2.68,5.07-9,4.33c-1.14-7.79-1.88-15.6-1.07-23.56c0.17-1.62,0.8-4.31-1.96-5.39
		c-1.22-0.48-1.53-1.73-1.18-2.98c1.92-6.85,0.34-13.78,0.38-20.69c0.02,8.17-3.09,16.1-2.28,24.2c0.81,8.08,1.39,16.2,2.78,24.5
		c-2.85-2.21-4.54-3.83-7.84-0.12c-3.11,3.51-9.15,0.32-10.09-4.81c-0.88-4.8-2.22-9.66,0.73-14.36c0.65-1.04-0.04-2.66,0.93-3.96
		c-1.65-0.4-2.95-0.89-2.8-3.09c0.23-3.32,0.09-6.66,0.05-9.99c-0.11-11.23-1.35-22.43-2.34-33.57c-1-11.27-0.07-21.88,3.7-32.33
		c0.94-2.62,1.37-5.36,2.39-7.94c0.71-1.79,0.41-3.57-1.92-4.51c-3.79,5.11,0.73,13.59-6.32,16.79c-1.13,0.07-1.36-0.13-1.34-0.56
		c0.32-7.46-1.02-14.83-1.31-22.28c-0.34-8.94,2.84-17.07,4.51-25.54c0.19-0.94,0.64-1.85,0.63-2.85c-0.03-2.97,1.5-3.54,4.14-2.93
		c2.83,0.65,2.86,0.52,4.46-1.81c1.35,1.94-1.14,6.6,4.1,5.86c0.02,0,0.14,1.23,0.32,1.86c0.49,1.73,1,3.46,2.72,4.47
		c2.65-0.34,2.17-3.71,4.08-4.25c1.05-0.71,0.98,0.1,1.18,0.41c1.57,2.49,3.63-2.64,5.65,0.51c0.93,1.45,2.83-0.56,4-1.7
		c0.21-0.2,0.57-0.24,1.16-0.47c0.44,1.96-0.32,4.29,2.76,5.3c1.44,0.48-0.22,4.02,1.05,6.24c2.28-0.81,1.85-3.79,3.59-4.6
		c8.45,5.02,7.64,13.92,9.18,22.14c1.47-4.42,0.88-9,3.05-13.22c1.19,2.41-0.2,4.19-0.35,6.08c-0.37,4.79-1.61,9.45-0.23,14.46
		c2.34,8.5,1.77,17.58,4.18,26.1c3.97,14.08,6.69,28.53,12.45,42.09c0.81,1.91,1.04,4.08,1.49,5.92c-0.87,1.84-3.1,0.19-4.15,2.55
		c4.28,1.95,8.68,3.56,11.38,8.3c2.62,4.59,2.5,9.28,3.25,14.35c-3.03,0.77-5.86,2.22-8.69,4.01c-2.84-8.08-3.6-16.69-9.9-23.03
		c3.63,9.09,6.83,18.24,6.97,28.31c-2,0.64-3.41,0.93-5.44-1.11c-3.85-3.88-5.71-3.25-7.99,1.85c-0.83,1.85-1.96,2.97-4.3,3.36
		c-1.9-10.61-3.6-21.34-6.83-32.43c-0.43-0.43-1.55-0.13-2.68,0.23c0.36-0.55,1.12-1.21,1.01-1.65c-1.18-4.84-1.42-9.81-2.25-14.69
		c-0.04-0.21-0.53-0.34-1.15-0.72c-0.79,5.38,1.27,10.37,1.24,15.49C177.9,965.19,178.75,965.68,179.2,966.16z M186.07,888.51
		c-0.08,10.96,2.13,21.49,6.14,31.65C191.13,909.43,188.72,898.96,186.07,888.51z M144.48,878.19c2.85-4.27,2.61-17.36,0-20.5
		c0,5.68,0,11.13,0,16.58C144.48,875.25,144.48,876.23,144.48,878.19z M191.85,939.06c-0.43,6.72,3.42,20.97,6.92,24.29
		C195.59,955.12,194.55,947.33,191.85,939.06z M164.4,968.11c4.24-1.3,8.02-2.09,12.37-1.13
		C173.54,962.37,168.88,962.87,164.4,968.11z"/>
	<path class="st0" d="M368.29,974.71c-3.19,0.18-5.12,0.98-5.99,4.31c-1.08,4.13-5.55,4.33-8.76,4.71
		c-5.38,0.63-10.85,0.32-16.29,1.12c-6.01,0.88-10.65-3.52-11.77-9.69c-1.08-5.94-2.64-11.89-2.86-17.87
		c-0.31-8.47-3.95-15.76-6.76-23.36c-1.08-2.91-2.16-5.78-2.82-8.81c-1.9-8.84-6.59-16.63-9.49-25.08
		c-2.54-7.39-6.53-14.17-8.6-21.78c-0.84-3.1-0.35-5.84,0.96-8.01c4.04-6.68,7.71-13.64,12.6-19.78c0.17-0.21,0.56-0.25,1.07-0.46
		c-0.34,4.98,0.32,9.89-0.58,14.88c5.36-4.31,3.06-11.18,5.83-16.28c4.91,1.57,5.17,6.27,6.56,10.16c1.06,2.96,1.28,6.26,3.76,9.24
		c1.07-8.19-4.04-14.87-3.94-23.14c1.85,1.68,0.5,3.66,2.27,4.43c2.75-0.47,3.86-2.96,5.11-5.39c1.63,2.15-0.17,4.48,2.06,6.21
		c1.3-3.02,1.27-6.39,3.34-8.78c2.33,0.7,0.69,3.42,2.95,5.17c-0.68-4.02,3.55-4.64,3.75-7.87c1.63,1.53,3.69,2.21,5.68,3.24
		c1.65-0.52,1.32-3.08,3.35-3.21c5.48,8.51,5.87,7.21,3.55,20.31c-0.83,4.7-0.53,9.24,0.35,13.57c2.49,12.28,4.52,24.68,7.99,36.75
		c0.29,1.01,0.87,1.93,1.55,2.84c-0.61-5.81-1.88-11.47-3.18-17.14c-2.19-9.53-4.74-18.99-5.56-28.78c-0.2-2.37,0.33-4.52,1.48-6.57
		c2.5,12.73,3.58,25.6,6.54,38.14c2.27,9.66,3.57,19.75,7.36,28.79c3.31,7.89,6.75,16.69,15.99,20.58c2.67,1.13,3.3,4.54,5.34,6.69
		c2.9,3.05,4.93,7.09,6.57,11.3c1.97,5.04-0.84,8.89-1.7,13.22c-0.19,0.97-1.77,0.44-2.74,0.44c-2.2-3.25-1.51-7.2-2.65-10.75
		c-1.32-4.08-2.98-7.93-5.05-11.65c-2.39-4.3-5.94-7.38-10.86-7.35c-4.81,0.03-6.88-2.55-8.18-6.35c-0.65-1.89-1.49-3.59-2.77-5.13
		c1,4.64,2.18,9.21,5.06,13.15c1.22,1.67,2.99,1.15,4.58,1.18c6.92,0.14,9.71,2.42,12.21,9.2c0.74,2.01,1.17,4.11,1.61,6.11
		c0.46,2.08,1.28,4.73-1.81,6.46c-1.94,1.09-0.52,4.51-2.81,6.13c-0.49,0.03-1.23,0.28-1.79,0.07c-2.26-0.87-4.42,2.52-6.53,0.25
		c-1.65-1.77-0.84-4.36-1.68-6.55c-1.44-3.77-2.15-7.81-3.11-11.76c-1.23-5.02-4.57-8.19-9.45-8.74c-6.21-0.7-8.88-4.36-10.67-9.71
		c-1.05-3.15-2.1-6.43-4.49-9.03c1.01,6.36,2.27,12.61,6.12,17.91c-0.88,0.92-1.78,1.86-2.69,2.81c0.09,0.31,0.18,0.62,0.27,0.94
		c5.16-1.59,10.53-2.19,14.2,2.02C366.66,962.48,368.95,967.99,368.29,974.71z M315.28,891.13c-1.51-8.08-5.47-15.62-5.05-24.38
		c-3.26,1.35-3.71,2.77-2.93,5.59C309.14,878.93,311.25,885.32,315.28,891.13z"/>
	<path class="st0" d="M256.47,561.6c4.68,1.17,8.03,3.42,12.86,1.49c-3.56-1.52-6.62-1.47-9.29-2.92c-2.03-1.1-2.47-2.15-2.61-4.11
		c-0.23-3.18,0.86-6.19,1.24-9.27c0.56-4.64,0.15-9.31,0.4-13.9c0.36-6.72-1.29-13.74-4.12-20.35c-1.65,2.76,1.41,5.19,0.17,7.84
		c-4.68-9.7-4.37-19.92-3.54-29.95c5.55,2.52,11.16,6.04,17.53,7.88c0.57,0.17,1.1,0.78,1.47,1.32c2.79,4.12,7.6,4,11.57,5.66
		c0.69,0.29,1.15,0.39,1.71-0.08c2.27-1.93,4.64-0.71,6.92-0.09c0.92,0.25,2.19,1.42,2.7,0.72c2.25-3.11,8.28-2.18,8.16-7.86
		c-0.03-1.67,1.92-2.59,3.08-3.72c4.38-4.25,7.89-8.93,7.83-16.41c1.52,3.07,0.39,5.4,1.21,7.5c1.57,0.12,1.91-1.77,3.29-1.98
		c0.94,1.41,0.2,2.43-0.84,3.35c-4.04,3.57-4.15,7.7-1.76,12.2c0.69,1.31,1.51,2.61,0.64,4.48c-1.02-1.22-0.77-3.16-2.38-3.75
		c-0.92,2.54,0.36,4.83,1.18,7.07c3.81,10.47,3.59,21.17,1.5,31.81c-1.42,7.23-5.71,12.88-11.64,17.45
		c-4.95,3.81-10.58,5.81-16.47,7.04c-0.79,0.16-3.14,0.86-4.44-0.55c0.43-0.72,0.86-1.42,1.28-2.12c-4.39,2.62-9.26,1.25-14,1.72
		c0.01,1.61,1.04,1.73,2.2,1.89c5.6,0.8,8.07,4.89,6.41,10.4c-2.47,8.2-6.71,15.54-11.02,22.86c-7.83,13.29-17.56,25.19-27.22,37.14
		c-2.78,3.44-5.98,6.55-8.99,9.81c-0.27-0.24-0.54-0.48-0.81-0.72C239.24,616.28,247.81,589.09,256.47,561.6z"/>
	<path class="st0" d="M236.52,175.48c8.27,9.82,7.63,21.5,6.7,32.91c-0.42,5.24-0.4,11.32-5.76,15.46c1.18-5.7,0.24-10.92-1.72-16.1
		c0.29,10.55,0.94,21.11-10.21,27.8c-0.43-8.24,0.68-16.29-0.83-24.36c-1.5-7.98-5.28-14.77-8.84-21.84
		c2.1,8.27,2.26,16.73,3.71,25.42c-0.82-0.42-1.46-0.54-1.53-0.81c-2.24-8.98-7.81-16.05-13.29-23.15
		c-4.17-5.41-7.59-11.47-8.96-17.95c-1.24-5.88-1.02-12.31,0.08-18.37c0.74-4.04,0.82-7.77-0.69-11.63
		c-3.17,1.9-0.73,5.38-2.76,8.57c-1.84-7.84-0.9-15.07-0.86-22.18c0.04-7.13,3.33-13.7,4.87-20.65c-2.18-0.03-3.35,1.18-3.59,2.71
		c-0.64,4.04-3.12,5.77-7.02,6.16c-0.34-3.15,2.06-5.54,2.7-8.48c1.29-5.91,1.59-11.95,2.81-17.88c1.67-8.15,5.07-15.09,11.31-20.7
		c2.41,5.6,2.29,5.57,0.9,11.57c-3.02,13.07,0.5,24.38,8.88,34.73c3.63,4.49,8.34,8.02,11.27,13.08c0.53,0.92,0.99,1.89,1.84,3.53
		c-7.01-2.35-12.75-5.31-17.84-9.84c9.28,11.26,19.19,21.92,21.82,37.06c1.04-1.17,1.18-2.21,0.64-3.14
		c-0.54-0.92-0.92-1.74-0.26-3.14c6.88,3.83,12.19,8.98,15.98,16.78c-2.77-0.53-4.72-1.67-7.06-0.57c3.22,1.53,3.89,4.8,5.67,7.28
		c1.35,1.88,0.11,5.07,3.66,6.1c0.95,0.27-1.06,3.87-1.11,7.22C243.01,185.32,241.31,179.45,236.52,175.48z"/>
	<path class="st0" d="M309.75,45.31c8.74,4.3,15.02,11.04,19.35,19.31c2.47,4.73,4.41,10.08,2.95,16.25
		c-2.58-2.14-2.66-5.55-5.39-7.91c-0.13,2.86-0.23,5.08-0.34,7.66c-6.39-8.08-9.21-18.11-16.96-26.34
		c1.3,6.18,5.45,10.01,6.09,15.41c-8.9-3.1-17.32-6.41-26.1-8.62c-9.55-2.4-16.35-7.82-19.43-18.27c-0.27,4.65-5.54,1.97-5.65,6.87
		c-3.42-8.67-0.15-16.6-3.46-24.24c4.99-0.22,8.09-3.18,12.18-4.41c-0.11,2.89-2.9,4.62-2.28,7.9c15.92-3.16,30.92-0.87,44.83,8.04
		c-0.84,1.26-1.29,1.95-1.71,2.59c1.95,1.17,3.87,2.31,5.63,3.37c1.44-0.22-0.46-1.7,1.33-1.82c1.96,0.98,2.23,3.51,3.68,5.41
		C319.48,46.33,314.65,46.23,309.75,45.31z"/>
	<path class="st0" d="M250.74,2.33c3.29,1.01,4.02,3.31,4.91,5.95c2.13,6.36,3.01,12.77,2.9,19.47c-0.14,8.3-2.76,15.55-7.48,22.31
		c-3.94,5.65-3.71,5.81-8.22,7.64c-1.03-1.63,1.26-2.03,1.2-3.38c-2.24-1.09-3.1,2.02-5.05,1.76c2.27,2.56-1.24,3.32-1.65,5.08
		c-0.3,1.3-1.36,1.5-2.97,1.6c-2.39,0.15-5.34-0.16-6.57,3.77c-0.6,1.92-4.16,3.38-7.14,4.17c0.5-2.87,1.11-5.66,3.36-7.74
		c7.76-7.16,10.52-16.68,12.39-26.54c1.95-10.25,3.6-20.53,9.96-29.3C247.67,5.36,249.22,3.96,250.74,2.33z"/>
	<path class="st0" d="M320.52,158.95c-5.09,0.27-9.22-2.12-12.77-5.26c-3.77-3.33-6.94-7.21-9.98-11.35
		c-3.69-5.03-9.32-8.81-15.5-10.82c-4.4-1.43-7.7-4.9-12.66-5.63c5.13-3.55,8.98-2.57,12.86,1.45c2.68,2.77,5.82,2.73,8.58,0.93
		c2.02,1.81,3.96,4.73,6.77,0.96c4.72,3.61,8.13,8.32,11.92,12.65c0.95-0.64,2.16-1.11,0.81-2.24c-3.16-2.61-5.2-6.29-8.51-8.77
		c-0.74-0.56-0.55-1.48-0.36-2.37c3.94-1.31,7.97-0.28,11.95-0.43c0.68,3.76,2.86,6.47,5.36,9c7.4,7.49,7.81,14.06,1.41,22.04
		L320.52,158.95z"/>
	<path class="st0" d="M301.97,182.23c-2.05,1.67-1.45,4.14-3.07,5.45c-1-1.07-2.98-0.11-3.85-1.77c-0.15-4.73,3.39-8.43,3.86-13.23
		c0.3-3.02,4.25-1.29,6.56-1.6c1.74-0.23,3.03,0.72,2.94,2.54c-0.19,3.56,1.83,5.83,4.17,8.02c1.56,1.46,3,2.93,3.4,5.26
		c0.24,1.38,0.91,3.23,1.98,3.84c3.67,2.08,2.92,5.51,2.37,8.26c-1.52,7.58-1.09,15.35-2.8,22.89c-0.32,1.42-0.05,2.97-0.05,5.04
		c-7.33-6.8-6.61-16.28-10.03-23.69c0.57-1.74,2.39-0.72,3.05-2.28c-2.85-3.2-3.82-7.69-7.21-10.82
		C301.19,188.21,303.19,185.04,301.97,182.23z"/>
	<path class="st0" d="M320.38,159.09c1.49,0.29,2.29-1.1,3.95-1.67c-1.08,6.89,4.6,10.03,7.69,14.61c1.25,1.85,3.45,2.97,4.46,5.17
		c-6.3,1.61-15.12-1.21-18.24-6.05c-1.46-2.27-1.4-5.01,0.08-7.4c0.95-1.53,2.06-2.93,2.19-4.81L320.38,159.09z"/>
	<path class="st0" d="M334.12,185.16c0.39,5.05-2.02,8.16-6.49,8.78c-2.01,0.28-7.48-3.57-8.09-5.69c-0.68-2.38,2.26-5.85,6.31-7.21
		c0.98,1.69,0.35,4.22,2.53,5.43C330.64,187.71,332.38,186.79,334.12,185.16z"/>
	<path class="st0" d="M316.36,13.53c1.97,7.8,3.37,15.68,3.04,24.06c-3.31-1.2-4.47-4.62-7.45-5.85c-0.91-0.38-0.79-2.21-0.22-3.21
		C314.36,23.88,314.26,18.52,316.36,13.53z"/>
	<path class="st0" d="M316.64,128.98c3.26-1.57,6.32-1.27,9.05-0.63c1.84,0.43,3.59,2.14,3.78,4.66c0.25,3.3-1.83,4.64-4.67,5.68
		C322.05,135.85,318.33,133.55,316.64,128.98z"/>
	<path class="st0" d="M322.21,178.58c-2.27,3.96-3.68,4.45-6.79,1.8c-3.18-2.7-5.84-5.86-4.71-11c1.79-0.03,3.2-1.37,5.18-2.76
		C314.41,172.78,319.54,174.76,322.21,178.58z"/>
	<path class="st0" d="M241.66,340.27c1.27,0.55,2.31,0.92,3.4,0.81c0.31,6.07-0.19,6.39-16.15,10.75c-0.83-2.19-0.14-3.39,2.16-3.81
		C237.78,346.78,237.78,346.77,241.66,340.27z"/>
	<path class="st0" d="M191.92,74.33c2.18-6.73,6.97-9.92,10.95-14.06C204.04,67.19,201.56,70.52,191.92,74.33z"/>
	<path class="st0" d="M334.94,124.24c0.87,2.33,1.72,4.41,2.41,6.54c0.69,2.15-0.45,3.43-2.4,4.01c-1.96,0.59-3.19-0.22-3.48-2.27
		c-0.21-1.44-1.07-2.63-1.09-4.2C330.35,125.23,331.22,123.48,334.94,124.24z"/>
</g>
</svg>
