<?xml version="1.0" encoding="utf-8"?>
<!-- Generator: Adobe Illustrator 24.0.2, SVG Export Plug-In . SVG Version: 6.00 Build 0)  -->
<svg version="1.1" id="Layer_1" xmlns="http://www.w3.org/2000/svg" xmlns:xlink="http://www.w3.org/1999/xlink" x="0px" y="0px"
	 viewBox="0 0 407.74 583.2" style="enable-background:new 0 0 407.74 583.2;" xml:space="preserve">
<style type="text/css">
	.st0{fill:#1A1A1A;}
</style>
<g>
	<path d="M363.49,338.53c-0.91-0.05-0.83-0.96-1.48-1.06c-0.57,0.02-0.82,0.38-0.8,0.93c0.03,0.91-0.36,1.71-0.66,2.53
		c-0.25,0.69-0.73,1.25-1.31,1.68c-0.99,0.75-1.92,0.49-2.49-0.67c-0.18-0.36-0.3-0.74-0.51-1.25c-1.96-0.36-3.86-1.07-5.33-2.66
		c-1.01-1.09-1.73-2.26-1.88-3.77c-0.13-1.35-0.36-2.68-0.55-4.11c-1.47-1.12-3.42-1.63-4.52-3.28c-0.85,0.38-1.57,0.7-2.3,1.03
		c-0.23,0.5-0.41,1.04-0.72,1.49c-0.66,0.95-1.71,1.14-2.42,0.24c-0.87-1.11-2.04-1.7-3.14-2.45c-1.56-1.07-2.43-2.7-3.14-4.44
		c-0.73-1.8-0.93-3.71-1.27-5.58c-0.43-2.44-0.76-4.89-1.14-7.33c-0.22-1.44-0.78-2.68-1.78-3.82c-4.81-5.53-7.35-12.08-8.29-19.29
		c-0.18-1.34-0.31-2.69-0.55-4.02c-0.22-1.17-0.67-2.28-1.05-3.41c-1.66-4.83-4.47-8.92-7.52-12.96c-2.3-3.05-4.19-6.42-6.21-9.68
		c-2.4-3.88-5.02-7.6-7.9-11.14c-1.2-1.47-2.07-3.22-3.73-4.29c-1.12-2.21-2.84-4.05-3.84-6.33c-0.3-0.67-0.39-1.55-1.49-1.61
		c-0.49-0.03-0.58-0.7-0.71-1.15c-0.53-1.85-0.72-3.76-0.88-5.66c-0.31-3.82-0.49-7.64-0.66-11.47c-0.06-1.43-0.48-2.58-1.59-3.56
		c-4.43-3.93-8.49-8.24-12.68-12.42c-3.57-3.55-6.91-7.3-10.05-11.24c-1.74-2.19-3.18-4.59-4.63-7.01
		c-0.87,0.41-1.03,1.22-1.29,1.94c-1.56,4.44-3.14,8.87-4.62,13.33c-0.63,1.89-1.34,3.75-1.73,5.72c-0.34,1.72-0.76,3.4-0.41,5.17
		c0.09,0.46,0.02,0.96,0.02,1.44c0.05,4.72-0.01,9.44,0.2,14.15c0.14,3.26,0.47,6.51,0.36,9.79c-0.02,0.53,0.27,1.07,0.45,1.6
		c0.93,2.81,1.64,5.67,1.92,8.62c0.07,0.71,0.17,1.46,0.03,2.14c-0.3,1.49,0.18,2.63,1.19,3.67c1.06,1.09,2.06,2.23,3.31,3.12
		c0.32,0.23,0.64,0.47,0.94,0.73c0.25,0.22,0.39,0.53,0.28,0.85c-0.14,0.42-0.5,0.64-0.93,0.6c-0.71-0.06-1.4-0.19-2.17-0.31
		c0.45,1,1.25,1.51,1.98,2.18c2.41-1.72,4.76-3.39,7.85-3.28c0.61,0.02,1.09,0.19,1.33,0.83c-0.01,1.37-1.83,1.46-2.04,2.77
		c3.53-0.68,7.02-0.66,10.49,0.06c0.62,0.13,1.21,0.38,1.8,0.62c0.32,0.13,0.48,0.44,0.45,0.77c-0.04,0.33-0.26,0.58-0.61,0.64
		c-0.77,0.14-1.61,0-2.43,0.78c4.17,1.11,8.26,2.19,11.32,5.2c-0.23,0.75-0.61,0.77-1.03,0.69c-1.18-0.22-2.35-0.43-3.53-0.68
		c-0.77-0.16-1.54-0.3-2.67-0.15c1.21,0.77,2.27,1.06,3.29,1.43c6.37,2.33,12.04,5.76,17.1,10.33c8.06,7.27,13.84,15.98,17.62,26.13
		c2.88,7.74,4.72,15.7,5.69,23.89c0.75,6.33,1.42,12.66,1.95,19.01c0.47,5.63,1.1,11.25,1.77,16.86c0.9,7.61,2.36,15.12,4.42,22.5
		c0.79,2.84,1.6,5.68,2.41,8.52c0.36,1.26,0.94,2.25,2.23,2.91c2.2,1.12,4.23,2.58,6.5,3.58c3.1,1.37,6.41,1.91,9.76,2.24
		c6.14,0.59,12.3,0.42,18.44,0.19c2.63-0.1,5.22-0.65,7.69-1.65c0.58-0.23,1.2-0.52,1.76,0.27c-0.28,1.06-1.18,1.6-2.04,2.16
		c-3.11,2.04-6.52,3.37-10.16,4.1c-1.4,0.28-2.8,0.66-4.27,0.55c-0.65-0.05-1.24,0.21-2.12,0.6c2.14,1.09,4.04,2.04,5.91,3.03
		c8.2,4.34,16.16,9.05,23.34,14.99c2.52,2.08,5.06,4.15,7.64,6.15c3,2.33,6.33,4.02,10.03,4.95c0.31,0.08,0.63,0.13,0.92,0.26
		c1.24,0.52,1.48,1.33,0.65,2.45c-0.42,0.57-0.95,1.08-1.49,1.55c-0.96,0.83-1.97,1.61-3.05,2.48c0.03,1.39-0.48,2.71-1.21,3.93
		c-4.86,8.14-11.31,14.62-19.86,18.88c-3.75,1.87-7.76,2.9-11.91,3.51c-1.29,3.14-4.31,4.53-6.95,6.79c2.26-0.12,3.38-1.9,5.3-2.49
		c0.5,2.31-0.55,4.12-1.33,5.94c-0.79,1.84-2.31,3.14-4.13,4.76c4.89-0.91,9.22-1.88,13.11-4.26c1.16-0.71,2.36-1.35,3.54-2.01
		c0.42-0.23,0.87-0.41,1.29-0.64c0.6-0.32,1.21-0.47,1.78,0.02c0.58,0.5,0.45,1.17,0.27,1.78c-0.41,1.38-0.85,2.74-1.33,4.1
		c-0.44,1.27-0.94,2.53-1.42,3.8c1.97,0.38,1.99,0.43,1.97,2.23c-0.01,1.14-0.36,2.2-0.61,3.29c-1,4.36-2.31,8.64-3.84,12.84
		c-1.43,3.92-3.49,7.52-5.73,11.04c-3.34,5.26-6.52,10.64-10.67,15.31c-6.16,6.93-13.56,11.85-22.87,13.46
		c-0.39,0.07-0.78,0.19-1.15,0.31c-0.12,0.04-0.21,0.19-0.32,0.29c0.82,0.7,2.24,0.54,2.63,1.96c-0.15,1.01-0.94,1.4-1.89,1.74
		c-2.89,1.02-5.9,1.48-8.92,1.65c-4.56,0.27-9.11-0.01-13.53-1.3c-1.15-0.33-2.25-0.81-3.54-1.27c-1.03,1.03-2.16,2.13-3.26,3.27
		c-1.44,1.51-3.03,2.83-4.72,4.05c-0.94,0.68-1.97,1.23-2.2,2.62c-0.15,0.88-1.15,1.29-1.84,1.81c-4.41,3.29-9.37,5.42-14.64,6.91
		c-3.62,1.03-7.32,1.65-11.07,1.9c-2.65,0.17-5.26-0.21-7.86-0.68c-0.62-0.11-1.23-0.22-1.77-0.32c-0.59,0.46-0.64,1.02-0.74,1.57
		c-0.65,3.55-2.29,6.43-5.5,8.28c-1.65,0.96-3.19,2.1-4.98,2.83c-1.31,0.54-2.58,0.79-3.96,0.43c-0.54-0.14-1.11-0.15-1.65-0.29
		c-2.35-0.59-4.66-0.73-7.06-0.08c-1.91,0.52-3.95,0.51-5.92,0.68c-3.74,0.32-7.03-1.14-9.97-3.4c-0.19-0.15-0.42-0.31-0.5-0.51
		c-0.6-1.53-1.83-2.27-3.25-2.94c-1.15-0.54-2.05-1.52-2.91-2.47c-0.37-0.41-0.59-0.97-1.29-1.21c-0.9,0.46-1.86,1.01-2.87,1.45
		c-3.1,1.36-6.4,2.06-9.74,2.38c-7.02,0.69-14.03,0.46-20.99-0.8c-0.8-0.15-1.57-0.2-2.31,0.28c-0.33,0.22-0.76,0.49-1.1,0.43
		c-1.56-0.26-2.34,0.94-3.04,1.82c-1.55,1.97-3.74,2.79-5.88,3.71c-1.99,0.86-4.15,1.16-6.26,1.55c-2.98,0.55-5.98,1.07-9.03,0.99
		c-4.25-0.12-8.41-0.8-12.4-2.36c-1.2-0.47-2.29-1.13-3.35-1.85c-0.4-0.27-0.73-0.67-1.16-0.84c-2.24-0.85-3.13-2.77-3.92-4.79
		c-0.25-0.64-0.27-1.36-1.2-1.59c-0.47-0.12-0.37-0.83-0.42-1.28c-0.27-2.43,0.3-4.75,0.85-7.09c0.27-1.15,0.78-2.26,0.76-3.58
		c-1.09-0.42-2.23,0.42-3.3-0.11c-0.52-0.51,0.01-1,0.05-1.49c-0.16-0.24-0.42-0.27-0.63-0.19c-2.64,0.94-5.34,1.63-8.11,2.08
		c-11.13,1.8-21.58,0.08-31.39-5.62c-7.23-4.21-13.15-9.81-18.23-16.38c-0.39-0.5-0.79-1-1.21-1.49c-0.38-0.43-0.82-0.71-1.44-0.74
		c-3.67-0.16-7-1.47-10.21-3.13c-5.37-2.78-10.09-6.47-14.36-10.7c-4.16-4.13-7.47-8.92-10.17-14.14c-0.73-1.41-1.67-2.71-1.99-4.17
		c-0.99-0.39-1.62,0.73-2.6,0.07c-0.87-3.82,1.2-7.25,2.07-10.99c-1.08,0.34-0.97,2.05-2.41,1.72c-0.09-0.18-0.29-0.39-0.27-0.58
		c0.22-2.2,0.15-4.45,0.98-6.56c0.35-0.89,0.64-1.8,0.91-2.72c1.63-5.68,4.9-10.13,9.93-13.27c0.38-0.24,0.89-0.41,0.83-1.17
		c-1.79-0.11-3.56-0.5-5.21-1.27c-1.05-0.49-1.08-0.66-0.62-2.14c8.74-0.24,15.84-4.47,22.91-9.58c-1.93-0.64-3.85,0.69-5.28-0.84
		c-0.06-0.76,0.56-0.9,1.06-1.09c2.77-1.06,5.37-2.44,7.84-4.12c-0.16-0.23-0.25-0.5-0.43-0.59c-2.05-1.1-3.57-2.9-5.54-4.11
		c-1.11-0.68-1.98-1.64-2.84-2.57c-6.92-7.41-12.52-15.71-16.56-25.04c-0.51-1.17-0.95-2.36-1.32-3.81
		c2.65-3.8,5.94-7.25,8.87-11.08c-0.16-0.56-1.21-0.25-1.28-1.05c-0.07-0.78,0.33-1.39,0.73-1.98c3.59-5.26,8.13-9.42,14.01-12
		c3.07-1.35,6.14-2.67,9.36-4.07c-1.48-0.71-3.15-0.84-4.39-1.72c0.14-0.5,0.33-0.6,0.58-0.6c5.15,0.04,9.47-1.91,13.03-5.55
		c1.05-1.08,1.83-2.42,2.86-3.52c1.32-1.4,1.87-3.05,2.19-4.91c1.66-9.6,3.73-19.11,6.91-28.32c3.04-8.81,6.11-17.64,10.44-25.95
		c2.29-4.4,4.98-8.56,7.5-12.82c2.04-3.44,4.04-6.89,6.05-10.34c0.16-0.27,0.4-0.5,0.22-0.96c-1.28,0.31-1.34,2.36-2.92,2.22
		c-0.62-0.71-0.27-1.35,0.02-2.02c2.08-4.8,4.65-9.28,8.34-13.04c0.28-0.28,0.53-0.58,0.89-0.98c-0.97-0.44-1.84,1-2.68-0.09
		c0.04-0.85,0.78-1.25,1.37-1.76c2.63-2.26,5.63-3.93,8.67-5.53c4.03-2.12,8.1-4.16,12.15-6.22c0.7-0.36,1.48-0.59,1.74-1.49
		c0.05-0.19,0.32-0.38,0.52-0.45c1.7-0.61,2.58-2.06,3.53-3.44c2.48-3.63,5.31-6.98,8.27-10.26c0-0.33,0.04-0.65-0.01-0.96
		c-0.57-4.32,0.28-8.55,0.83-12.81c0.38-2.93,0.91-5.87,0.56-8.81c-0.32-2.64-0.32-5.27-0.21-7.89c0.08-1.91,0.35-3.81,0.26-5.72
		c-0.3-6.39-0.91-12.76-3.3-18.76c-1.3-3.25-2.92-6.38-4.37-9.52c-0.74,0.08-0.78,0.59-0.97,1.02c-3.57,7.94-8.61,14.92-14.17,21.55
		c-3.85,4.59-7.82,9.08-12.25,13.13c-0.28,0.26-0.61,0.61-0.67,0.96c-0.31,1.8-1.17,3.46-1.25,5.34c-0.11,2.49-0.93,4.84-1.8,7.17
		c-1.68,4.52-4.09,8.66-6.6,12.74c-3.68,5.99-7.43,11.94-11.53,17.66c-2.09,2.92-4.33,5.74-6.81,8.34
		c-1.08,1.13-1.88,2.38-2.45,3.79c-0.76,1.87-1.69,3.62-3.18,5.02c-0.48,0.46-0.66,1.09-0.99,1.63c-2.08,3.42-2.59,7.33-3.46,11.13
		c-0.54,2.33-1.08,4.65-2.22,6.8c-0.44,0.83-0.61,1.81-0.95,2.7c-0.77,2.03-1.75,3.94-3.17,5.6c-0.54,0.63-0.7,1.26-0.61,2.17
		c0.34,3.59-0.12,7.16-0.66,10.71c-0.4,2.65-1.79,4.58-4.22,5.7c-1.24,0.57-1.94,1.6-2.67,2.66c-0.48,0.7-0.86,1.66-1.94,1.56
		c-1.14-0.11-1.55-1.07-1.81-1.99c-0.36-1.3-1.16-2.24-2.28-3.13c-0.55,1.52-1.06,3-1.63,4.45c-0.47,1.21-1.16,2.33-2.37,2.88
		c-0.82,0.38-1.18,1.03-1.59,1.71c-0.16,0.27-0.28,0.57-0.39,0.87c-1.06,2.89-3.01,4.84-6.01,5.68c-0.14,0.04-0.26,0.17-0.39,0.25
		c-0.32,0.48,0.07,0.91,0.1,1.37c0.07,1.24-0.7,1.8-1.83,1.26c-1.49-0.71-2.51-1.93-3.29-3.36c-0.26-0.47-0.25-1.1-0.81-1.41
		c-0.16,0.02-0.34-0.01-0.47,0.06c-1.58,0.86-2.18,0.74-3.02-0.74c-1.02-1.8-1.44-3.71-0.79-5.76c0.78-2.44,1.59-4.84,3.12-6.97
		c2.07-2.86,2.8-6.23,3.29-9.65c0.62-4.35,2.24-8.31,4.63-11.96c1.28-1.95,2.35-3.97,3.29-6.1c2.81-6.38,6.13-12.47,10.55-17.9
		c0.35-0.43,0.71-0.87,1.09-1.28c0.93-1.02,1.87-2.01,3.37-1.65c1.77-2.66,3.44-5.19,5.13-7.71c0.64-0.95,0.92-2.04,1.22-3.11
		c1.8-6.29,3.79-12.53,5.25-18.9c0.75-3.3,1.48-6.64,2.07-9.98c0.25-1.41,0.66-2.8,0.92-4.21c0.23-1.28,0.89-2.55,0.01-3.89
		c-0.28-0.43-0.03-1.09,0.16-1.63c0.3-0.83,0.59-1.66,0.88-2.49c0.13-0.37,0.45-0.9,0.31-1.09c-0.72-1.01,0-1.64,0.49-2.33
		c2.69-3.77,5.63-7.33,8.77-10.74c1.84-2,3.79-3.88,5.77-5.74c1.14-1.07,1.78-2.31,2.02-3.93c1.01-6.88,2.7-13.6,5.05-20.15
		c2.96-8.25,7.12-15.87,12.09-23.06c2.55-3.68,5.16-7.31,8.14-10.65c0.65-0.73,0.98-1.53,1.11-2.55c0.35-2.68,0.42-5.41,1.23-8.02
		c0.15-0.47,0.1-0.48-0.82-1.25c0.07-1.14,0.81-2.03,1.29-2.98c-1.11-1.34-1.12-1.36-0.51-2.74c0.86-1.97,2.4-3.35,4.02-4.66
		c1.37-1.11,2.9-1.98,4.5-2.72c0.55-0.26,1.1-0.53,1.86-0.9c-1.31-0.46-2.46,0.3-3.54-0.43c0.02-1.05,0.85-1.38,1.65-1.71
		c2.23-0.92,4.57-1.47,6.95-1.77c3.96-0.51,7.91-0.98,11.93-0.53c2.25,0.25,4.37-0.07,6.39-1.41c1.64-1.1,3.58-1.74,5.38-2.59
		c0.57-0.27,1.14-0.56,1.84-0.91c-0.84-1.38-2.36-2.26-2.49-4.04c1.17-0.41,1.93,0.68,2.92,0.71c1.03,0.03,2.06,0.01,3.1,0.01
		c0.39-0.71,0.88-1.34,0.82-2.12c-0.22-0.5-0.62-0.58-1-0.7c-1.94-0.61-3.68-1.53-5.09-3.03c-0.38-0.4-0.75-0.8-1.41-0.37
		c-0.41,0.27-0.74-0.13-1.02-0.4c-0.44-0.44-0.86-0.9-1.39-1.46c-0.83,1.33,0.65,2.46,0.12,3.63c-0.39,0.48-0.88,0.33-1.29,0.1
		c-1.19-0.68-2.25-1.53-3.2-2.5c-3.92-3.99-6.17-8.69-6.08-14.38c0.01-0.64-0.03-1.28-0.06-1.91c0-0.05-0.09-0.09-0.24-0.25
		c-1.23,1.33-1.08,3.26-1.92,4.62c-0.81,0.17-0.95-0.37-1.15-0.77c-1.65-3.25-1.54-6.61-0.56-10.01c0.2-0.68,0.41-1.36,0.59-1.99
		c-0.38-0.51-0.94,0.22-1.24-0.33c-0.17-0.31-0.15-0.61-0.04-0.92c0.67-1.77,1.75-3.22,3.36-4.23c0.6-0.38,1.26-0.68,2.11-1.13
		c-2.94-1.2-5.85-2.23-6.62-5.67c1.32-0.77,2.29,0.41,3.37,0.24c1.09-0.17,2.16-0.42,3.48-0.68c-0.82-1.59-2-2.74-2.24-4.3
		c0.63-0.88,1.1,0.46,1.75-0.01c-0.55-0.59-1.57-0.69-1.74-1.72c0.61-0.84,1.81-0.41,2.61-1.12c0.54-2.3,2.38-3.78,3.95-5.4
		c0.1-1.09-0.23-1.77-1.35-1.89c-0.71-0.08-1.43-0.15-2.13-0.32c-0.73-0.19-1.62-0.2-1.94-1.37c1.16-0.75,2.38-1.47,3.52-2.28
		c1.1-0.78,2.14-1.66,3.24-2.52c-0.87-2.56-0.59-5.09,0.1-7.57c1.29-4.62,1.97-9.36,2.89-14.05c1-5.1,2.27-10.12,4.34-14.91
		c0.83-1.92,1.87-3.71,3.24-5.29c0.31-0.36,0.65-0.7,1.04-0.96c1.3-0.88,2.28-0.81,3.46,0.24c2.17,1.94,3.82,4.29,5.34,6.75
		c2.85,4.62,5.65,9.28,8.24,14.05c0.19,0.35,0.38,0.7,0.83,0.9c0.48-0.31,0.23-0.82,0.24-1.23c0.16-3.78,1.87-6.7,4.91-8.87
		c0.52-0.37,1.06-0.74,1.64-0.98c3.7-1.56,6.21-4.38,8.25-7.71c0.07-0.12,0.25-0.17,0.51-0.34c0.41,1.36-0.31,2.46-0.64,3.6
		c-0.33,1.13-0.72,2.25-1.24,3.86c2.1-1.53,3.82-2.79,5.92-4.33c-0.48,2.13-1.72,3.42-2.05,5.18c1.79-1.77,3.53-3.6,5.38-5.31
		c1.9-1.75,3.27-3.85,4.24-6.31c1.38,1.39,1.8,3.36,1.88,7.09c0.05,2.4-0.29,4.74-0.86,7.57c2.11-3.25,2.23-6.47,2.4-9.62
		c0.63-0.18,0.82,0.17,0.9,0.57c0.93,4.72,1.08,9.36-1.47,13.71c-0.11,0.18-0.16,0.4-0.26,0.67c0.92,0.07,1.51-0.27,2.06-0.94
		c3.19-3.89,6.43-7.74,9.27-11.9c0.95-1.39,1.95-2.73,3.13-3.93c0.28-0.28,0.55-0.58,0.86-0.84c2.26-1.92,3.91-1.73,5.54,0.74
		c1.95,2.96,3.32,6.21,4.29,9.59c1.92,6.67,3.46,13.44,4.5,20.31c0.17,1.1,0.29,2.21,0.52,3.3c0.59,2.74,0.92,5.5,0.79,8.31
		c-0.01,0.31,0.05,0.63,0.08,0.91c0.8,0.3,0.81-0.73,1.62-0.7c0.55,1.59-0.47,2.93-0.88,4.35c1.2,0.97,1.14,0.95,0.79,2.08
		c-0.37,1.18-1.23,1.98-2.04,2.87c1.29,1.23,3.01,1.23,4.43,1.88c-0.47,2.82-1.96,4.85-4.01,6.47c0.31,0.76,0.89,0.16,0.9,0.17
		c0.9,0.6,0.17,1.12,0.51,1.51c1.8,0.79,3.57,0.37,5.29-0.26c0.54,1.41,0.06,2.39-1.76,4.29c-1.15,1.2-2.58,1.79-4.23,2.18
		c0.28,0.86,1.01,1.14,1.49,1.6c1.99,1.91,3.03,4.28,3.5,6.94c0.07,0.38,0.17,0.96-0.04,1.16c-0.92,0.91-0.39,1.91-0.39,2.91
		c0,3.58-0.88,6.94-2.66,10.06c-0.1,0.17-0.36,0.24-0.78,0.51c-0.35-3.25-0.58-6.4-2.7-9.6c0.02,2.94-0.46,5.24-1.06,7.52
		c-1.22,4.67-2.89,9.13-6.1,12.86c-0.47,0.54-0.97,1.06-1.5,1.54c-0.31,0.28-0.71,0.34-1.22-0.16c0.13-1.98,1.06-3.97,1.12-6.2
		c-1,0.4-0.89,1.4-1.29,2.05c-0.5,0.82-0.99,1.64-1.62,2.36c-0.58,0.65-1.12,1.34-1.69,2.01c0.53,0.27,1.09,0.51,0.81,1.23
		c-0.29,0.74-0.62,1.47-0.96,2.19c-0.39,0.84-0.4,0.83-0.17,2.24c3.02,1.43,6.05,2.84,9.06,4.3c1.01,0.49,2.04,0.34,3.06,0.26
		c3.6-0.3,7.18-0.22,10.73,0.45c3.26,0.61,6.3,1.71,9.02,3.65c0.58,0.42,1.25,0.71,1.88,1.05c2.34,1.29,4.39,2.92,5.87,5.18
		c0.29,0.45,0.7,0.92,0.2,1.6c-0.9,0.14-1.66-0.61-2.56-0.75c-0.04,0.51,0.23,0.7,0.44,0.91c3.38,3.46,4.61,7.53,3.48,12.26
		c-0.18,0.75,0.31,1.4,0.24,2.12c-0.29,3.03,0.94,5.44,2.65,7.89c4.76,6.81,8.75,14.11,12.71,21.42c3.01,5.56,5.67,11.27,7.63,17.29
		c1.24,3.8,2.23,7.67,2.98,11.59c0.28,1.43,0.89,2.24,2.09,2.92c4.47,2.52,8.01,6.05,10.8,10.34c0.52,0.79,1.21,1.5,0.61,2.58
		c-0.2,0.36,0.18,0.75,0.35,1.1c0.38,0.79,0.8,1.56,0.94,2.45c0.1,0.6-0.72,0.6-0.72,1.21c0.86,2.5,1.42,5.15,2.02,7.79
		c1.44,6.32,3.73,12.37,5.77,18.5c1.01,3.03,2.02,6.05,2.76,9.16c0.2,0.85,0.51,1.69,0.9,2.47c0.96,1.94,1.85,3.89,1.99,6.11
		c0.05,0.81,0.53,1.5,0.95,2.17c1.64,2.65,3.22,5.34,4.88,7.96c1.61,2.55,3.67,4.82,5.56,7.2c4.35,5.47,7.66,11.57,10.91,17.72
		c1.24,2.34,2.03,4.87,2.59,7.44c0.46,2.1,1.12,4.15,1.65,6.22c1.18,4.62,3.1,8.85,5.76,12.8c1.71,2.53,1.98,5.53,2.02,8.49
		C364.85,336.68,364.58,337.83,363.49,338.53z"/>
	<path class="st0" d="M149.14,493.36c-4.34,2.98-7.45,7.05-10.47,11.27c-0.5-0.42-0.08-0.84,0.02-1.21
		c1.85-6.67,5.1-12.53,10.03-17.43c1.22-1.21,2.46-2.41,3.49-3.84c-2.52,0.86-4.46,2.66-6.72,3.9c-2.29,1.26-4.24,2.99-6.28,4.57
		c-0.39-0.48-0.07-0.71,0.08-0.96c3.21-5.24,7.23-9.72,12.4-13.12c1.4-0.92,2.6-2.23,4.1-2.88c1.5-0.65,3.27-0.64,4.91-1
		c6.66-1.45,12.6-4.49,18.15-8.36c2.36-1.64,4.69-3.32,6.87-5.21c0.41-0.36,0.9-0.62,1.53-1.06c-0.31,1.97-1.3,3.58-1.46,5.33
		c0.95,0.4,1.18-0.67,2-0.48c-0.36,1.95-1.42,3.65-2.12,5.56c0.81,0.36,1.26-0.23,1.7-0.58c3.15-2.58,6.19-5.29,8.5-8.7
		c0.17-0.25,0.28-0.59,0.73-0.51c0.2,1.03-0.8,1.89-0.46,3.13c1.6-1.13,2.28-3.05,3.95-3.91c0.23,0.23,0.13,0.43,0.01,0.65
		c-0.11,0.21-0.18,0.43-0.35,0.87c1.2-0.19,1.46-1.26,2.15-1.78c0.68-0.51,1.17-1.26,2.13-1.59c0.24,1.84,0.36,3.57,0.72,5.25
		c0.35,1.68,0.49,3.44,1.48,5.19c1.16-1.58,1.34-3.38,2.19-4.87c0.82-1.44,1.42-3.01,2.2-4.71c0.96,1.58,1.53,3.15,2.55,4.47
		c1.03,1.33,2.23,2.48,3.49,3.7c0.15,1.66-0.38,3.29-0.61,4.93c-0.46,3.24-0.85,6.49-0.86,9.75c-0.02,5.91-0.18,11.81,0.39,17.72
		c0.7,7.34,2.11,14.5,4.48,21.47c2.9,8.5,6.91,16.48,11.71,24.06c1.65,2.61,1.65,2.6,0.66,5.49c-2.17,6.35-5.88,11.61-10.93,16.01
		c-1.99,1.73-3.99,3.43-6.06,5.06c-1.35,1.06-2.83,1.77-4.46,2.24c-4.17,1.2-8.41,1.77-12.75,1.82c-6.49,0.07-12.93-0.32-19.25-1.86
		c-6.74-1.64-13.1-4.08-18.55-8.53c-3.33-2.72-5.83-6.12-8.03-9.76c-4.76-7.84-7.96-16.31-10.12-25.2c-0.94-3.89-1.71-7.8-1.8-11.78
		c-0.15-7.25,2.05-13.83,6.21-19.75C147.45,495.59,148.31,494.48,149.14,493.36z M209.01,491.87c-1.37-2.01-2.71-4.03-4.45-5.74
		c-2.75-2.7-5.88-4.89-9.24-6.76c-0.56-0.31-1.07-0.59-1.52-1.08c-0.74-0.8-1.21-0.83-2.07-0.23c-0.91,0.64-1.77,1.36-2.65,2.04
		c-0.48-0.48,0.05-1.42-1.07-1.61c-2.4,0.98-4.4,2.84-6.25,4.77c-4.69,4.89-8.08,10.66-10.79,16.84c-0.16,0.37-0.64,0.73-0.11,1.23
		c3.88-5.24,6.92-11.08,11.79-16.23c-0.37,2.54-1.73,4.25-2.02,6.74c1.97-2.32,3.62-4.33,5.35-6.27c1.74-1.95,3.55-3.84,5.87-5.22
		c1.79,6.03,1.79,6.03,3.14,7.16c-0.29-2.14-0.56-4.25-0.89-6.72C199.71,483.99,204.27,488.02,209.01,491.87z"/>
	<path class="st0" d="M239.57,353.34c-2.82-1.69-4.44-4.62-7.44-6c-0.42,1.73,0.69,2.98,1.06,4.38c0.37,1.38,0.87,2.74,1.43,4.06
		c0.58,1.37,1.27,2.68,1.79,4.25c-0.97-0.15-1.4-0.71-1.92-1.15c-0.79-0.68-1.59-1.33-2.42-1.96c-0.71-0.55-1.46-1.08-2.22-0.22
		c-2.52-1.94-4.11-4.72-7.14-5.77c-0.55,2.11-0.42,2.74,1.39,7.16c-0.51,0.22-0.71-0.22-0.94-0.48c-3.59-4.09-7.65-7.73-11.43-11.64
		c-0.22-0.23-0.47-0.46-0.75-0.58c-0.49-0.22-0.93-0.14-1.19,0.41c-0.27,0.6-0.34,1.2-0.17,1.86c0.24,0.91,0.39,1.84,0.61,2.91
		c-3.65-2.48-4.41-6.67-6.43-10.15c-2.2,0.87-1.52,2.92-2.23,4.48c-0.49-0.47-0.61-1.05-0.75-1.59c-2.29-8.89-4.54-17.78-5.69-26.91
		c-0.39-3.08-0.5-6.19-0.72-9.29c-0.51-7.43-0.05-14.86-0.41-22.28c-0.17-3.52,0.57-6.99,0.74-10.49c0.11-2.3,0.43-4.59,0.71-6.88
		c0.75-6.27,1.81-12.47,3.97-18.44c2.04-5.66,5.42-10.47,9.54-14.79c2.1-2.2,4.3-4.29,6.67-6.19c0.22-0.18,0.48-0.32,0.8-0.4
		c-1.53,2.44-3.67,4.43-5.36,7.13c1.15-0.08,1.7-0.51,2.3-0.84c3.51-1.97,7.18-3.45,11.23-3.87c3-0.31,5.88,0.02,8.72,1.13
		c-0.19,0.62-0.74,0.39-1.09,0.5c-0.44,0.15-0.94,0.12-1.42,0.16c-2.23,0.17-4.45,0.46-6.59,1.14c-0.58,0.18-1.13,0.45-1.7,0.69
		c0.27,0.69,0.68,0.38,1.04,0.38c2.95-0.02,5.91-0.33,8.84,0.22c1.51,0.29,2.9,0.87,4.17,1.72c4.28,2.86,8.02,6.33,11.5,10.09
		c1.35,1.45,2.63,2.97,4.13,4.67c-1.98,0.13-3.56-0.68-5.21-0.97c-1.72-0.3-3.41-0.8-5.33-1.26c0.16,0.71,0.59,0.97,1,1.29
		c2,1.59,4.03,3.12,5.76,5.03c2.67,2.94,4.55,6.35,6.24,9.89c1.59,3.32,2.84,6.77,3.95,10.28c0.12,0.37,0.3,0.75,0.02,1.28
		c-2.07-1.73-3.85-3.75-6.29-5.23c-0.02,0.81,0.57,1.04,0.87,1.44c0.34,0.44,0.71,0.86,1.06,1.29c1.06,1.28,2.09,2.48,2.42,4.28
		c0.26,1.44,1.25,2.75,1.9,4.12c3.2,6.72,5.89,13.63,7.61,20.89c0.87,3.65,1.33,7.37,1.82,11.09c0.61,4.66,1.22,9.32,1.67,14
		c0.22,2.22,0.27,4.49,0.05,6.71c-0.62,6.26-1.44,12.49-2.14,18.74c-0.17,1.54-0.2,3.09-0.51,4.65c-0.97-2.35-1.16-4.88-2.06-7.21
		c-0.88-2.27-1.51-4.68-3.52-6.25c-0.92,0.3-1.23,0.81-1.31,1.49c-0.12,1.11-0.23,2.22-0.33,3.32c-0.07,0.78,0.16,1.58-0.18,2.36
		c-0.68-0.09-0.83-0.69-1.12-1.12c-2.02-3.08-4.22-6.01-6.88-8.58c-0.63-0.61-1.23-1.26-2.25-1.5c-0.63,1.21,0.6,2.22,0.38,3.34
		c-0.17,0.23-0.38,0.17-0.62,0.13c-0.12-0.02-0.27,0.09-0.62,0.22c0.64,4.26,1.95,8.45,2.64,12.82c-0.8,0.12-1.06-0.46-1.4-0.81
		c-1.55-1.64-3.27-3.05-5.11-4.33c-1.05-0.73-2.17-1.36-3.48-1.51c-0.56-0.06-1.09,0.01-1.55,0.45c-0.55,0.52-0.21,1.01-0.06,1.53
		C239.7,352.74,239.63,352.9,239.57,353.34z"/>
	<path class="st0" d="M320.75,503.32c-1.99,2.15-4.65,3.28-7.39,5.08c4.67,0.14,7.58-2.6,11.05-4.79c0.13,1.14,0.21,2.05,0.33,2.96
		c0.12,0.87,0.29,1.72,0.32,2.61c0.18,5.51-0.94,10.78-2.74,15.94c-2.87,8.21-6.83,15.82-12.44,22.51
		c-4.16,4.96-9.02,9.01-15.21,11.27c-3.48,1.27-7.09,1.85-10.75,2.23c-0.37,0.04-0.8-0.07-1,0.41c1.74,0.7,3.6,0.41,5.39,0.69
		c1.74,0.27,3.42-0.44,5.68-0.41c-2.09,1.28-3.86,1.97-5.64,2.62c-5.14,1.86-10.4,3.05-15.89,3.15c-4.9,0.09-9.46-1.23-13.87-3.21
		c-0.73-0.33-1.43-0.72-2.15-1.06c-1.84-0.88-3.29-2.11-4.4-3.9c-1.49-2.4-3.21-4.66-4.98-6.9c1.22,4.1,3.24,7.81,5.5,11.44
		c-2.38-1.15-4.31-2.77-6.13-4.5c-2.73-2.59-5.14-5.48-7.27-8.57c-4.85-7.04-9.45-14.24-13.08-22.01
		c-4.01-8.58-6.85-17.5-8.14-26.93c-0.82-5.96-0.97-11.92-0.9-17.91c0.01-0.78,0.1-1.56,0.18-2.61c0.6,1.54,0.17,2.97,0.71,4.23
		c0.09,0.22,0.22,0.41,0.5,0.93c0.85-4,1.2-7.8,2.08-11.5c0.87-3.63,1.62-7.29,2.41-10.91c0.67-0.26,0.88,0.25,1.19,0.57
		c2.09,2.21,4.54,4,7,5.77c1.82,1.31,3.62,2.62,5.03,4.39c0.13,0.17,0.39,0.24,0.8,0.48c-0.07-2.35-1.44-4.07-2.12-5.95
		c0.53-0.49,0.8-0.11,1.09,0.1c4.08,2.94,7.22,6.73,9.96,10.89c0.39,0.6,0.83,1.16,1.28,1.72c0.08,0.1,0.27,0.12,0.43,0.18
		c0.44-0.25,0.29-0.67,0.25-1.02c-0.37-2.85-0.78-5.7-2.08-8.32c-0.5-1-0.49-1.98-0.23-3.23c3.26,2.06,5.81,4.84,8.87,6.96
		c3.07,2.13,6.12,4.29,9.33,6.55c0.29-0.89-0.44-1.31-0.42-1.88c0.29-0.26,0.58-0.18,0.86-0.01c3.31,1.96,6.82,3.48,10.39,4.88
		c0.42,0.16,0.85,0.51,1.48,0.12c-0.46-1.17-1.81-1.69-2.34-2.93c0.77-0.37,1.13-0.96,0.92-1.79c-0.36-1.41-0.34-2.84-0.3-4.28
		c0.01-0.22-0.05-0.48,0.45-0.66c2.05,2.33,3.78,5.08,6.31,7.53c0.35-1.86-0.45-3.21-0.69-4.62c-0.25-1.48-0.63-2.93-0.97-4.48
		c0.35,0.09,0.56,0.07,0.63,0.16c1.59,2.17,3.21,4.32,4.72,6.54c1.26,1.87,2.67,3.58,4.37,5.06c0.49,0.42,0.94,0.85,1.27,1.41
		c0.98,1.65,1.94,3.3,2.96,4.92c1.02,1.63,2.37,3,3.66,4.47c-4.26-1.03-8.22-2.76-12.02-4.94c-0.35,0.53,0.14,0.66,0.38,0.86
		c4.64,3.87,10.07,6.09,15.82,7.66C307.6,503.03,314.08,503.61,320.75,503.32z"/>
	<path class="st0" d="M387.06,445.83c4.63,1.55,8.81,0.4,13.13-0.47c-0.29,1.38-1,2.35-1.67,3.3c-4.43,6.28-9.76,11.63-16.63,15.22
		c-4.35,2.27-9,3.66-13.95,3.87c-0.55,0.02-1.1,0.19-1.65,0.23c-1.21,0.09-2.42,0.09-3.48-0.58c-1.45-0.92-3.12-1.05-5.18-1.72
		c2.74,2.7,5.49,4.32,8.87,5.02c-0.61,1.23-1.63,1.77-2.51,2.41c-6.23,4.57-13.18,7.37-20.82,8.62c-3.95,0.65-7.91,1.25-11.89,1.12
		c-6.7-0.21-13.37-0.83-19.89-2.58c-7.48-2.01-12.95-6.35-16.08-13.52c-0.09-0.2-0.27-0.37-0.43-0.54
		c-0.05-0.05-0.15-0.04-0.29-0.07c-0.25,1.41,0.23,2.65,0.74,3.9c0.63,1.55,1.24,3.12,1.83,4.68c0.17,0.44,0.28,0.92-0.08,1.58
		c-4.62-5.38-8.29-11.13-9.64-18.02c0.46-0.87,1.21-1.01,1.83-1.33c2.65-1.36,5.01-3.13,7.17-5.16c0.29-0.27,0.59-0.55,0.83-0.86
		c0.76-0.98,0.48-1.68-0.79-2c-0.15-0.04-0.31-0.02-0.46-0.05c-0.04-0.01-0.07-0.09-0.1-0.15c0.49-0.83,1.79-0.8,2.02-1.9
		c0.09-0.42-0.07-0.77-0.39-1.05c-0.57-0.25-1.09-0.01-1.63,0.14c-3.48,0.91-6.78,0.38-9.98-1.2c-4.4-2.18-7.8-5.47-10.87-9.22
		c-3.54-4.33-5.29-9.43-6.57-14.73c-1.5-6.2-2.55-12.49-2.96-18.87c-0.08-1.18-0.53-2.34-0.14-3.94c0.91,2.66,1.66,5.03,2.17,7.46
		c0.8,3.78,2.01,7.41,4.16,10.63c1.4,2.09,3.14,3.92,5.19,5.66c0.49-1.45-0.71-2.31-0.56-3.46c1.14,0.4,1.45,1.75,2.68,2.32
		c0.42-1.58-1.07-2.68-0.79-4.25c2.05,1.41,3.47,3.52,6.11,4.65c-0.67-2.22-2.18-3.79-2.33-6.04c2.28,1.36,4.2,2.98,6.66,3.53
		c0.2,0.05,0.5-0.33,0.79-0.53c3.53,2.06,7.34,3.2,11.89,3.31c-1.46-1.76-2.98-2.92-4.03-4.48c-1.01-1.51-2.13-2.95-3.2-4.42
		c0.61-0.46,1,0.02,1.38,0.21c2.96,1.51,6.11,2.33,9.4,2.62c2.11,0.18,4.14-0.31,6.09-1.06c2.56-0.99,4.71-2.59,6.81-4.85
		c-2.04-0.34-3.86,0.44-5.54-0.36c-0.06-0.53,0.36-0.57,0.73-0.69c3.06-0.96,5.95-2.28,8.53-4.23c0.6-0.45,1.25-0.63,2.01-0.59
		c2.55,0.15,5.11,0.23,7.66,0.35c0.31,0.01,0.63,0.1,1.02-0.28c-0.38-1.29-2.05-1.23-2.77-2.38c2.04-0.33,3.98-0.9,5.93-0.89
		c1.8,0.01,3.63,0.5,5.38,1.02c4.47,1.34,9.05,1.87,13.69,2c2.23,0.06,4.47,0.18,6.7,0.19c1.59,0.01,3.19-0.14,4.78-0.18
		c0.47-0.01,0.96-0.11,1.4,0.18c-1.47,1.13-1.54,1.05-9.47,2.01c-3.36,0.4-6.68-0.07-10.32-0.07c1.06,0.75,2,0.9,2.92,1.05
		c2.15,0.33,4.16,1.12,6.1,2.03c11.59,5.46,22.69,11.72,32.43,20.17c2.04,1.77,4.25,3.37,6.42,5c2.51,1.88,5.28,3.3,8.28,4.22
		c0.45,0.14,0.89,0.33,1.33,0.51c0.06,0.02,0.08,0.13,0.19,0.32c-1.17,1.6-2.89,2.59-4.54,3.65c-3.13,2-6.72,2.43-10.29,2.86
		C389.35,445.27,388.36,445.37,387.06,445.83z"/>
	<path class="st0" d="M130.44,309.82c0.48,0.01,0.43,0.37,0.47,0.67c0.05-0.2,0.1-0.4,0.15-0.59c0.6-2.58,0.6-5.22,0.71-7.84
		c0.39-9.05,1.71-17.94,5.22-26.37c2-4.81,4.66-9.27,7.47-13.64c4.16-6.46,8.99-12.39,14.42-17.83c2.91-2.92,6.21-5.24,9.87-7.09
		c1.19-0.6,2.37-1.22,3.5-2c-2.44-0.45-4.69,0.78-7.08,0.62c4.85-2.61,9.78-4.94,15.39-5.35c-1.5-1.45-1.81-1.52-6.09-1.3
		c0.32-0.57,0.82-0.69,1.29-0.82c4.03-1.06,8.04-1.08,12.03,0.26c0.72,0.24,1.43,0.75,2.39,0.48c-1.08-1.41-2.52-2.22-4-3
		c-1.45-0.76-3-1.36-4.71-2.57c2.72-0.23,4.79,0.43,6.81,1.34c3.37,1.52,6.42,3.56,9.34,5.8c1.83,1.41,3.76,2.69,5.39,4.37
		c0.43,0.44,1.04,0.71,1.51,1.02c0.2,0.42,0,0.68-0.2,0.92c-4.63,5.62-7.27,12.15-8.73,19.2c-0.77,3.74-1.31,7.52-1.63,11.34
		c-0.26,3.1-0.22,6.22-0.49,9.31c-0.28,3.17-0.16,6.37-0.69,9.53c-0.23,1.41-0.13,2.87-0.15,4.31c-0.09,6.79-0.33,13.6,0.16,20.38
		c0.51,7.15,1.78,14.22,3.46,21.2c0.86,3.55,1.72,7.11,2.58,10.7c-0.72-0.14-0.9-0.71-1.18-1.18c-0.92-1.51-1.89-2.96-3.22-4.15
		c-0.93-0.84-1.66-1.95-3.2-1.79c-0.63,0.07-0.88-0.92-1.75-0.9c-1.04,0.64-1.24,1.88-1.54,2.99c-0.33,1.23-0.47,2.51-0.66,3.77
		c-0.15,0.98-0.53,1.79-1.42,2.36c-1.88,1.22-3.3,2.97-4.98,4.43c-0.8-0.6-0.63-1.27-0.42-2c0.51-1.68,0.98-3.37,1.45-5.06
		c0.06-0.22,0.1-0.48-0.5-0.91c-0.29-0.18-0.7,0.34-1.03,0.72c-0.67,0.79-1.27,1.64-1.84,2.5c-1.36,2.05-2.69,4.12-4.16,6.38
		c-0.76-1.13,0.05-2.38-0.75-3.31c-1.3,0.01-1.28,1.46-2.1,2.02c-0.47,0.21-0.45-0.69-1.04-0.46c-3.93,3.74-6.27,8.59-8.68,13.95
		c-0.44-1.87-0.42-3.22-0.13-4.6c0.39-1.88,0.48-3.78,0.07-5.42c-0.59-0.81-1.02-0.25-1.54-0.24c-0.29-0.39-0.61-0.83-0.96-1.31
		c-0.32,0.09-0.62,0.18-0.95,0.28c-0.61-0.31-0.43-1.13-0.87-1.55c-0.27-0.14-0.51-0.14-0.69,0.03c-0.41,0.38-0.89,0.72-1.17,1.18
		c-1.49,2.47-3.5,4.55-5.18,6.88c-1.59,2.21-3.03,4.5-4.23,6.94c-0.21,0.42-0.44,0.83-0.77,1.43c-0.39-0.71-0.18-1.2-0.04-1.66
		c1.13-3.58,2.43-7.09,4.12-10.45c0.75-1.5,1.44-3.02,2.15-4.55c0.27-0.59,0.48-1.2-0.15-1.87c-1.97,0.43-3.31,2.04-5,3.01
		c-1.8,1.04-3.45,2.32-4.97,3.74c-1.44,1.34-2.78,2.79-4.26,4.28c-0.53-1.99,0.46-3.95-0.53-5.78c-1.15,0.1-1.71,0.92-2.33,1.61
		c-1.46,1.63-2.41,3.57-3.17,5.6c-0.93,2.47-1.61,5.01-1.91,7.64c-0.09,0.79-0.18,1.58-0.69,2.45c-1.1-2.01-1.7-4.11-2.37-6.16
		c-2.06-6.3-2.5-12.73-1.96-19.34c0.74-8.95,2.94-17.6,4.64-26.36C129.43,315.27,129.93,312.54,130.44,309.82z"/>
	<path class="st0" d="M190.65,25.99c-0.12,0.09-0.34,0.26-0.35,0.25c-0.7-0.84-1.33-1.72-1.59-2.81c-0.03-0.12,0.12-0.27,0.19-0.41
		c0.91-0.1,0.15,1.31,1.07,1.19c0.09-0.11,0.27-0.22,0.27-0.32c-0.12-2.21,0.52-4.27,1.32-6.28c0.79-1.97,2.18-3.44,4.11-4.45
		c-1.55,2.55-3.56,4.98-1.7,8.27c0.74,0.04,0.91-0.61,1.16-1.16c-0.13-0.46-0.81-0.11-0.82-0.36c-0.42-1.79,0.17-3.03,1.09-4.21
		c1.03-1.33,2.11-2.6,3.32-3.78c1.43-1.39,2.85-2.79,4.24-4.16c0.05,1.51-0.48,2.89-1.71,4.53c-0.66,0.88-1.39,1.68-1.85,2.73
		c-0.41,0.95-0.33,1.67,0.3,2.4c0.23,0.01,0.46,0.02,0.69,0.04c0.99-0.14,2.01-0.06,2.91-0.7c0.49-0.35,0.87-0.66,1.23-1.18
		c0.68-0.97,1.58-1.81,2.49-2.58c2.58-2.17,4.84-4.65,7.21-7.03c0.94-0.95,1.66-2.11,2.7-3.45c0.32,2.01,0.62,3.74,0.61,5.52
		c-0.02,2.48-0.28,4.94-0.99,7.31c-0.28,0.93-0.49,1.88-1.44,2.56c-0.85,0.6-0.26,1.78-0.69,2.57c0.37,0.2,0.58,0.31,0.78,0.41
		c0,0-0.05-0.05-0.05-0.05c-0.04,0.23-0.09,0.46-0.14,0.75c0.11,0.5,0.71,0.08,0.97,0.46c-0.17,0.3-0.35,0.62-0.54,0.95
		c0.11,0.07,0.24,0.22,0.32,0.2c1.6-0.5,2.96-1.52,4.55-2.1c1.51-0.55,3.02-0.98,4.61-1.24c2.37-0.38,4.74-0.77,6.99-2.31
		c-0.03,2.63-0.62,4.83-2.27,6.67c-0.42,0.48-0.97,0.9-0.5,1.62c0.47,0.41,0.89-0.32,1.34-0.03c0.11,0.15,0.03,0.22-0.15,0.33
		c-1.05,0.69-2.41,0.81-3.58,1.92c1.69-0.26,3.1-0.43,4.49-0.7c1.35-0.26,2.7-0.28,4.06-0.25c2.6,0.06,5.2,0.25,8.11-0.14
		c-1.45,2.21-2.57,4.21-4.29,5.8c-0.74,0.68-1.6,1.01-2.54,1.27c-0.53,0.15-1.13-0.11-1.73,0.41c1.3,1.06,2.91,1.72,3.9,3.04
		c0.97,1.29,2.83,1.74,3.17,3.6c-1.55-1.68-3.52-2.75-5.49-3.78c-1.99-1.04-3.96-2.24-6.77-1.93c7.08,2.03,11.81,8.15,14.23,12.81
		c-3.07-1.01-5.98-1.97-9.29-3.06c0.59,0.91,1.16,1.08,1.67,1.32c3.07,1.42,5.78,3.39,8.36,5.54c2.34,1.95,4.73,3.8,7.98,4.72
		c-1.44,1.56-3.16,1.87-4.82,1.73c-2.48-0.2-4.84-0.92-6.8-2.63c-1.11-0.97-2.32-1.83-3.85-2.2c2.63,2.34,5.3,4.58,6.68,7.94
		c0.84,2.06,1.61,4.13,2.06,6.89c-2.63-4.02-5.56-7.13-8.2-10.82c-0.37,1.12,0.31,1.57,0.63,2.07c1.78,2.8,2.95,5.81,3.5,9.1
		c0.32,1.93,0.26,3.8-0.13,5.69c-0.6,2.89-2.39,7.07-5.21,10.17c0.39-3,0.91-5.9,0.71-9.31c-0.46,1.27-0.67,2.14-0.78,3.08
		c-0.48,4.09-1.91,7.85-4.43,11.63c0.11-2.66,0.99-4.82,0.99-7.09c0-2.3,0-4.61,0-6.93c-0.58,0.05-0.34,0.54-0.36,0.84
		c-0.19,2.15-0.66,4.26-1.14,6.36c-0.82,3.64-2.88,6.56-5.56,9.04c-1.81,1.67-3.75,3.2-5.86,4.98c0.23-2.04,1.13-3.54,1.78-5.13
		c0.66-1.62,1.19-3.29,0.97-5.27c-0.74,0.99-0.97,2.01-1.24,2.98c-0.61,2.2-1.65,4.16-3.03,5.94c-2.06,2.65-4.36,5.06-7.15,7.55
		c0.51-3.21,1.65-5.97,1.42-9.33c-1.83,5.06-3.92,9.58-5.43,14.76c-1.05-2.94-1.3-5.53-1.38-8.69c-1.41,3.93,0.02,7.18,0.57,10.79
		c-2.79-2.51-4.22-5.6-6.13-8.96c0.35,2.56,1.55,4.27,2.33,6.2c-1.34,0.08-1.72-1.41-2.84-1.54c-0.43-0.47-0.88-0.92-1.3-1.4
		c-0.4-0.46-0.67-0.17-0.95,0.14c-0.05-0.76-0.64-1.03-1.19-1.36c-2.12-1.28-4.12-2.72-6.04-4.3c-1.23-1.01-1.95-2.48-3.44-3.46
		c0.38,1.94,1.83,3.07,2.74,4.85c-2.16-0.72-3.84-1.91-5.64-2.84c-5.3-2.76-7.53-7.56-8.64-13.1c-0.08-0.39-0.13-0.78-0.33-1.16
		c-0.36,1.16-0.01,2.29,0.14,3.44c0.17,1.21,0.8,2.37,0.5,4.05c-2.47-4-2.75-8.16-3.2-12.3c-0.93,2.64,0.04,5.28-0.08,7.91
		c-0.13,2.71,0.74,5.34,1.56,8.46c-2.17-1.85-3.31-3.87-4.52-5.83c-1.27-2.06-2.11-4.31-2.66-6.64c-0.55-2.33-0.81-4.7-0.55-7.13
		c0.26-2.37,0.98-4.63,1.75-7.32c-1.78,1.21-1.71,2.86-2.17,4.18c-0.46,1.3-0.54,2.72-0.86,4.51c-1.31-2.74-1.39-5.24-1.14-7.77
		c0.24-2.46,1.16-4.76,2-7.53c-2.59,2.17-4.08,4.58-5.17,7.72c-1.08-4.5,1.5-7.21,3.75-10.41c-3.63,0.79-6.94,1.33-10.41-0.37
		c1.52-0.7,2.87-1.17,4.05-1.91c1.13-0.71,2.31-1.45,3.24-2.79c-1.77,0.22-3.09,1.18-5.03,1.9c1.38-2.32,3.06-3.57,4.76-4.8
		c1.68-1.22,3.52-2.16,5.34-3.19c-1.26-0.2-2.26,0.63-3.44,0.77c-1.36,0.16-2.71,0.13-4.07,0.11c-1.27-0.02-2.54-0.2-3.8-0.31
		c-0.08-0.72,0.52-0.74,0.87-1c0.45-0.33,0.91-0.65,1.36-0.99c6.16-4.56,4.61-3.62,11.11-5.18c1.64-0.39,1.68-0.41,2.8-1.42
		c-1.33,0-2.48,0-3.64,0c-2.11-0.01-3.41-1.1-4.12-2.99c0.45-0.62,0.89-0.15,1.3-0.08c1.95,0.36,2.76,0.27,4.62-0.61
		c-0.8-0.32-1.53-0.6-2.5-0.99c1.65-0.93,3.31-0.99,4.85-1.41c1.49-0.41,3.03-0.6,4.7-0.92c-4.67-1.71-6.61-4.89-5.34-8.8
		c1.81,1.39,3.4,3.16,5.87,3.32c0.06-1.03-1.04-1.21-1.2-2.02c0.54-0.41,0.8,0.2,1.18,0.34c2.04,0.76,4.09,1.21,6.31,1.05
		c2.38-0.17,4.78-0.04,7.02-0.04c0.43-0.4,0.27-0.73,0.31-1.02 M198.92,52.05c-0.02,0.67-1.57,0.89-0.74,1.63
		c0.7,0.63,0.68,1.19,0.51,1.86c-0.56,2.24,0.09,4.37,0.51,6.53c0.13-2.15,0.09-4.29,0.14-6.43c0.05-2.23,1.04-4.24,1.92-6.53
		c-1.31,0.89-1.42,2.28-2.41,3.01c-0.27-2.11,1.3-3.71,1.8-5.82c-0.87,0.65-1.21,1.39-1.72,1.99c-0.45,0.52-0.46,1.45-1.53,1.7
		c0.44-1.14,0.48-2.17,0.61-3.18c0.47-3.64,1.84-6.76,5.2-8.67c0.28-0.16,0.53-0.35,0.81-0.52c0.2-0.13,0.22-0.23,0.04-0.34
		c-0.62-0.23-1.17,0.54-1.81,0.13c0.14-0.65,1.07-0.49,1.23-1.34c-1.84,0.33-3.03,1.36-3.93,2.53c-0.03,0.76,0.77,0.32,0.74,0.88
		c-2.55,3.23-3.74,8.16-2.97,12.35C197.91,51.36,198.43,51.59,198.92,52.05z M205.93,66.4c0.2,0.19-0.58,0.75,0,1.46
		C205.93,67.15,205.93,66.62,205.93,66.4z M215.44,12.49c0,0.45,0,0.9,0,1.35C215.44,13.39,215.44,12.94,215.44,12.49z"/>
	<path class="st0" d="M131.22,449.86c-1.35,1.23-2.69,2.46-4.05,3.68c-2.82,2.53-5.89,4.63-9.53,5.81
		c-2.73,0.88-5.25,2.33-8.13,2.81c-5.21,0.87-10.43,1.4-15.72,0.84c-1.42-0.15-2.88-0.06-4.32-0.06c-0.89,0-1.76-0.03-2.54-0.82
		c4.42-0.72,8.45-2.27,12.27-4.6c-0.49-0.56-0.9-0.13-1.27-0.02c-3.81,1.16-7.63,2.32-11.6,2.84c-4.97,0.64-9.71-0.02-14.32-2.9
		c1.89-0.65,3.7-0.54,5.38-0.95c1.68-0.41,3.35-0.89,5.11-1.35c-0.35-0.41-0.38-0.77-0.21-1.02c-0.34-0.5-0.88-0.33-1.3-0.27
		c-2.09,0.28-4.12,0.07-6.14-0.48c-1.69-0.46-3.4-0.89-5.08-1.39c-2.09-0.63-4.01-1.56-5.45-3.31c-0.34-0.42-0.84-0.88-1.33-0.97
		c-2.03-0.36-3.39-1.75-4.78-3.04c-3.88-3.59-7.3-7.6-10.38-11.89c-0.55-0.77-1.09-1.6-1.42-2.48c-1.49-3.9-3.6-7.47-5.74-11.02
		c-0.7-1.16-1.45-2.3-1.98-3.78c3.17-3.95,6.25-8.14,10.11-11.62c3.82-3.44,8.47-5.67,13.06-8.4c-1.37-0.25-2.2,0.87-3.3,0.7
		c-0.06-0.28-0.11-0.53-0.17-0.87c-3.39,0.91-6.47,2.51-9.97,4.53c1.1-1.91,2.23-3.03,3.44-4.09c2.37-2.06,5.01-3.69,7.87-4.97
		c4.44-2,8.87-4.01,13.33-5.97c0.84-0.37,1.7-0.91,2.89-0.54c-0.99,1.24-2.66,1.58-3.41,3c0.88,1.19,2.1,1.15,3.26,1.01
		c1.91-0.24,3.73-0.82,5.46-1.68c0.99-0.49,1.98-0.97,2.94-1.45c0.58,0.65,0.02,0.98-0.21,1.3c-0.92,1.3-1.91,2.56-2.85,3.85
		c-0.71,0.97-0.69,0.99-0.24,2.58c1.65-0.5,3.29-1,4.74-1.44c1.02,0.05,0.77,1.16,2.05,1.35c1.01,0.02,2.28-0.99,3.73-1.26
		c0.14,0.29,0.27,0.54,0.49,1.01c3.92-1.12,7.88-2.25,12.11-3.45c-0.24,1.51-1.11,2.49-1.52,3.64c-0.4,1.13-0.8,2.26-1.18,3.4
		c-0.4,1.2-0.61,2.44-0.72,4.05c1.78-1.48,2.57-3.36,3.98-4.71c1.36-1.3,2.62-2.7,4.16-4.29c0,2.94-1.29,5.4-0.87,8.32
		c1.34-1.37,1.72-3.06,2.65-4.38c0.92-1.3,1.75-2.66,2.73-4.15c1.19,1.68,1.43,3.52,2.06,5.19c0.62,1.64,1.19,3.3,1.74,4.97
		c0.58,1.75,0.86,3.56,1.15,5.37c0.27,1.69-0.29,3.5,0.74,5.44c1.84-4.91,2.72-9.71,3.42-14.88c2.03,1.92,2.71,4.46,4.41,6.41
		c0.84-0.98,0.34-2.14,0.96-3.18c1.9,1.52,2.69,3.98,4.45,5.65c0.87-0.69,0.3-1.64,0.84-2.42c0.9,0.63,1.26,1.56,1.62,2.5
		c0.37,0.96,0.77,1.9,1.17,2.86c1.03-0.06,0.52-1.3,1.32-1.55c0.16-0.02,0.2,0.07,0.23,0.28c0.38,2.72,0.11,5.42-0.17,8.12
		c-0.14,1.42-0.41,2.83-0.6,4.25c-0.05,0.39-0.02,0.8,0.38,1.08c0.59,0.2,0.85-0.23,1.08-0.64c0.73-1.32,1.42-2.66,1.98-4.56
		c0.48,1.37,0.63,2.32,0.72,3.29c0.25,2.78,0.44,5.57,0.67,8.34c0.28,3.43,0.24,6.85,0.41,10.28c0.13,2.62-0.9,5-1.62,7.44
		c-2.63,3.81-5.1,7.77-9.66,9.64c-1.37,0.56-2.74,1.14-4.29,1.43c1.74-2.05,3.47-4.09,5.21-6.14
		C131.39,450.02,131.3,449.94,131.22,449.86z"/>
	<path class="st0" d="M139.88,549.87c-0.29,0.27-0.62,0.5-0.87,0.8c-1.89,2.28-4.37,3.66-7.08,4.75
		c-10.14,4.06-20.48,4.72-30.95,1.57c-6.19-1.87-11.65-5.18-16.58-9.36c-0.7-0.59-1.63-0.99-2.06-2.18
		c2.11,0.59,3.74,1.95,5.66,2.45c0.36-0.41,0.01-0.48-0.13-0.56c-5.21-3.04-9.88-6.76-14.09-11.05c-1.06-1.08-1.97-2.31-2.86-3.53
		c-2.4-3.28-4.59-6.69-6.79-10.3c1.74-1.25,3.47-2.36,5.06-3.65c1.61-1.31,3.1-2.76,4.58-4.21c1.47-1.44,2.85-2.95,4.19-4.34
		c-2.76,0.32-4.96,2.26-7.88,3.76c1.13-2.74,2.75-4.66,4.1-6.72c1.36-2.07,2.86-4.04,4.38-5.99c1.56-2,3.29-3.86,5.28-5.49
		c-2.88,1.14-5.82,2.12-8.51,3.67c-2.72,1.56-4.94,3.75-7.14,6.09c-0.36-0.9,0.14-1.43,0.37-1.96c2.72-6.24,6.04-12.16,10.01-17.69
		c2.74-3.82,6.05-7.03,10.52-8.79c3.26-1.29,6.57-2.46,10-3.23c0.3-0.07,0.58-0.19,0.87-0.29c-0.03-0.69-0.52-0.52-0.86-0.59
		c-2.5-0.5-5.02-0.96-7.5-1.54c-0.82-0.19-1.74-0.33-2.44-1.21c1.1,0.05,2.09,0.11,3.07,0.14c8.17,0.24,16.03-1.42,23.75-3.92
		c4.72-1.53,9.27-3.47,13.74-5.61c0.55-0.26,1.11-0.53,2.1-1c-1.79,3.9-4.13,6.87-6.31,9.92c0.58,0.48,0.98,0.11,1.39-0.1
		c2.2-1.15,4.25-2.52,6.2-4.05c0.6-0.47,1.08-1.21,2.24-1.25c-1.67,3.8-4.3,6.7-7.13,9.5c0.29,0.98,0.9,1.44,1.79,1.23
		c4.98-1.13,10.03-0.49,15.05-0.68c2.38-0.09,4.76-0.28,7.12-0.43c0.08,0.35-0.11,0.48-0.31,0.57c-6.45,3.25-10.76,8.61-14.47,14.58
		c-0.89,1.43-1.55,2.97-2.21,4.51c-0.26,0.62-0.36,1.31,0.31,1.71c0.6,0.36,1.2,0.17,1.73-0.33c0.92-0.88,1.87-1.74,2.83-2.58
		c0.45-0.4,0.75-1.02,1.45-1.1c0.27,0.56-0.16,0.93-0.38,1.3c-3.17,5.46-4.89,11.41-5.99,17.57c-0.1,0.55-0.15,1.12-0.11,1.67
		c0.05,0.82,0.93,1.17,1.6,0.69c0.4-0.29,0.65-0.67,0.83-1.14c0.4-1.03,0.86-2.05,1.75-3.21c-0.17,1.77-0.18,3.24-0.47,4.65
		c-0.66,3.21-0.06,6.36,0.43,9.49c1.48,9.53,4.5,18.59,8.81,27.21c0.18,0.36,0.35,0.72,0.5,1.09c0.05,0.14,0.03,0.31,0.04,0.59
		c-4.21,3.92-9.14,6.44-15.24,6.97C135.71,555.47,138.5,553.22,139.88,549.87z"/>
	<path class="st0" d="M260.22,282.74c1.07-0.47,1.46-1.04,1.29-2.37c-0.79-6.37-3.17-12.17-5.98-17.84
		c-0.46-0.93-0.92-1.85-1.35-2.7c2.09-3.58,5.07-5.75,8.51-6.08c-1.74,1.96-3.33,3.78-4.57,5.83c0.38,0.47,0.69,0.29,1.04,0.05
		c3.36-2.28,7.01-3.33,11.4-2.59c-2.55,1.31-5.21,1.59-7.48,2.92c0.64,0.92,1.35,0.67,2.04,0.49c5.21-1.36,10.1-0.1,14.91,1.83
		c0.36,0.14,0.68,0.38,1.32,0.74c-1.46,0.38-2.53-0.19-3.61-0.27c-1.19-0.09-2.37-0.34-3.56-0.45c-1.19-0.11-2.39-0.18-3.58-0.2
		c-1.16-0.02-2.34-0.11-3.59,0.45c0.82,0.7,1.71,0.96,2.62,1.2c4.79,1.27,9.46,2.86,14,4.85c4.66,2.05,8.75,4.93,12.46,8.38
		c4.52,4.21,8.56,8.82,11.72,14.17c2.33,3.94,4.14,8.1,5.71,12.38c2.94,7.98,4.55,16.24,5.42,24.68c0.63,6.09,1.35,12.18,1.87,18.28
		c0.67,7.94,1.49,15.86,2.82,23.72c0.72,4.25,1.61,8.46,2.77,12.61c0.08,0.29,0.27,0.6-0.12,1.04c-1.93-1.5-3.7-3.19-5.47-4.88
		c-1.76-1.67-3.28-3.59-4.97-5.38c-1.25,1.18-1.31,2.31-1.1,3.54c0.43,2.54,1.35,4.9,2.57,7.16c0.3,0.56,0.62,1.1,0.97,1.71
		c-0.74,0.39-1.22-0.14-1.71-0.41c-3.71-2.04-7.4-4.1-11.09-6.17c-0.56-0.31-1.07-0.72-1.85-0.53c-0.47,0.85-0.07,1.65,0.28,2.44
		c0.3,0.69,0.67,1.36,1.24,2.5c-2.52-1.4-4.57-2.56-6.35-4.13c-0.3-0.26-0.57-0.57-0.91-0.77c-0.71-0.43-1.51-0.06-1.59,0.78
		c-0.1,1.03-0.09,2.05,0.27,3.07c0.75,2.17,2.14,3.91,3.54,5.66c0.33,0.42,0.88,0.67,1,1.5c-2.51-0.74-4.35-2.69-7.01-3.33
		c0.19,2.6,1.96,4.17,3.45,6.31c-2.58-0.58-4.09-2.16-5.86-3.29c-1.71-1.1-2.96-2.86-4.97-3.73c-1.18,1.51,0.3,2.87-0.07,4.38
		c-1.24-0.68-1.98-1.79-2.91-2.69c-0.94-0.9-1.33-2.42-2.95-2.6c-0.26-0.03-0.56-0.56-0.68-0.91c-0.27-0.83-0.45-1.69-0.64-2.55
		c-0.19-0.85-0.26-1.73-0.65-2.45c-0.58-0.36-0.95-0.12-1.35,0.21c-0.66,0.55-0.83,1.34-1.15,2.07c-0.28,0.63-0.16,1.46-0.93,1.92
		c-0.64-2.06-0.79-4.2-1.17-6.29c-0.12-0.7-0.34-1.41-0.34-2.12c0-1.23-0.8-1.38-1.79-1.35c-0.43-2.5,0.14-4.99-0.4-7.56
		c-2.31,0.72-2.08,3.15-3.49,4.61c0.08-1.44,0.13-2.7,0.24-3.96c0.65-8.02,1.22-16.04,2.33-24.01c0.39-2.83,0.62-5.7,0.73-8.58
		c0.19-4.8-0.26-9.52-0.93-14.25c-0.54-3.78-1.01-7.58-1.52-11.37c-0.99-7.34-3.25-14.3-6.45-20.96
		C261.83,285.89,261.02,284.33,260.22,282.74z"/>
	<path class="st0" d="M204.46,382.49c-0.36-0.9-0.87-1.69-1.49-2.42c-0.86,0.3-0.65,0.77-0.28,1.29c3.43,4.8,5.53,10.23,7.45,15.75
		c2.4,6.89,3.06,14.01,2.68,21.25c-0.16,3.11-0.56,6.19-1.37,9.21c-0.73,2.72-1.65,5.31-3.56,7.48c-0.78,0.89-1.37,1.94-2.35,3.37
		c1.58-5.95,2.89-11.42,2.92-17.29c-0.68,0.54-0.83,1.14-0.99,1.71c-0.27,0.92-0.64,1.83-0.74,2.77c-0.34,3.38-1.98,6.18-3.69,8.99
		c-3.45,5.67-7.08,11.2-11.41,16.25c-2.98,3.47-6.43,6.43-10.06,9.19c-4.65,3.54-9.53,6.72-15.01,8.86
		c-4.42,1.73-9.04,2.66-13.74,3.11c-3.02,0.29-6.04,0.57-9.08,0.5c-0.45-0.01-0.93,0.14-1.55-0.32c3.28-1.33,6.34-2.81,8.77-5.92
		c-2.33,0.94-4.04,2.34-6.1,3c-2.05,0.66-4.02,1.56-6.08,2.16c-2.12,0.62-4.24,1.36-6.46,1.5c-0.18-0.55,0.11-0.83,0.36-1.13
		c4.49-5.18,7.2-11.25,9.03-17.78c0.17-0.61,0.32-1.24,0.53-1.84c0.58-1.67,0.88-3.36,0.93-5.15c0.07-2.79,0.54-5.57,0.52-8.35
		c-0.03-3.42,0.04-6.85-0.32-10.28c-0.26-2.45-0.19-4.94-0.58-7.39c-0.37-2.28-0.67-4.58-1.22-6.82c-0.36-1.45-0.45-2.86-0.17-4.27
		c0.5-2.46,0.17-4.92,0.17-7.4c-0.12,3.39-1.41,6.53-2.06,9.83c-0.14-3.18-0.09-6.37-0.65-9.5c-0.56-3.11-1.25-6.2-2-9.84
		c1.92,2.5,2.47,5.17,4.17,7.16c0.53-0.48,0.13-1.04,0.4-1.46c0.13,0.01,0.3-0.03,0.38,0.03c0.75,0.66,1.05,1.78,2.25,2.27
		c0.31-2.02-0.95-3.94-0.13-5.68c0.83-1.75,0.59-3.81,1.85-5.4c0.58,0.35,1.13,0.35,1.6-0.38c1.47-2.28,2.99-4.53,4.46-6.81
		c0.47-0.73,0.87-1.51,1.5-2.6c1.34,5.71,2.36,11.2,5.53,16.44c0.61-4.18,0.72-8.03,1.78-11.72c0.47,0.52,0.16,1.25,0.6,1.92
		c1.08-1.03,1.21-2.55,1.97-3.71c0.78-1.19,1.45-2.45,2.18-3.69c0.61,0.44,0.33,1.22,1.09,1.54c0.4-0.98,0.22-2.15,1-3.21
		c0.66,2.57,0.77,5.01,0.43,7.5c-0.2,1.49-0.25,2.98-0.07,4.42c0.39,0.17,0.61,0.01,0.72-0.18c2.02-3.54,4.59-6.65,7.32-9.67
		c1.97-2.19,3.49-4.76,5-7.3c0.52-0.88,1.08-1.74,1.87-3.02c0.54,3.5,0.28,6.56,0.39,9.68c1.35,0.07,1.06-1.51,2.09-1.88
		c-0.04,2.1-0.38,4.15-0.05,6.53c1.42-1.65,1.56-3.52,2.22-5.14c0.72-1.77,1.27-3.61,1.89-5.42c0.58-1.69,1.14-3.39,1.79-5.3
		c1.63,1.98,1.7,4.43,2.67,6.42c0.81-0.01,0.73-0.59,0.83-1.01c0.4-1.76,0.77-3.53,1.25-5.77c1.73,2.73,3.18,5.15,5.13,7.01
		c0.9,0,0.6-0.78,0.98-1.05c0.11,0.07,0.26,0.11,0.32,0.21c1.03,1.73,1.65,3.63,2.23,5.53c0.32,1.04,0.53,2.19-0.04,3.27
		L204.46,382.49z"/>
	<path class="st0" d="M232.22,387.1c0.6-0.67-0.06-1.38,0.35-1.95c0.26-0.1,0.44,0.04,0.56,0.23c2.89,4.88,6.52,9.28,9.32,14.21
		c0.19,0.33,0.3,0.76,1.01,0.75c0.34-3.37,0.13-6.73-0.28-10.09c0.72-0.1,1.28,0.92,1.98,0.18c0.77,0.36,0.81,1.37,1.63,1.73
		c0.93-0.79,0.4-1.8,0.3-2.67c-0.12-0.96-0.11-1.89-0.04-3.13c3.33,2.95,4.42,7.16,7.3,10.56c0.58-2.2-0.09-4.01-0.14-5.84
		c-0.05-1.86-0.39-3.65-0.78-5.44c-0.4-1.85-0.91-3.68-1.45-5.88c1.96,1.01,2.89,2.49,3.9,3.85c1.03,1.39,1.96,2.86,3.04,4.44
		c0.85-1.3-0.4-2.41,0.14-3.59c1.02,0.49,0.85,1.97,2.02,2.52c0.46-0.64,0.27-1.36,0.3-2.02c0.03-0.63,0.01-1.27,0.12-1.92
		c0.8,2.43,1.14,4.92,1.19,7.48c0.01,0.76-0.51,1.79,0.7,2.25c0.13,0.05,0.24,0.45,0.18,0.64c-0.52,1.78-0.14,3.65-0.67,5.44
		c-0.51,1.72-0.07,3.49,0.07,5.23c0.04,0.55,0.16,1.11,0.17,1.66c0.25,9.35,2.7,18.08,7.24,26.26c1.05,1.89,1.99,3.85,3.48,5.43
		c3.58,3.78,7.36,7.3,12.23,9.44c1.33,0.58,2.68,1.04,4.12,1.2c0.48,0.05,0.97,0.08,1.26,0.75c-4.85,2.22-10.12,2.45-15.26,3.29
		c2.37,1.51,8.76,1.49,16.52-0.06c-0.72,1.12-0.72,1.12-2.65,2.21c-0.5-0.14-0.06-0.53-0.28-0.77c-0.08-0.01-0.25-0.08-0.39-0.04
		c-5.58,1.71-10.82,4.31-16.29,6.32c-3.54,1.3-7.13,2.27-10.88,2.76c-2.92,0.38-5.81,1.05-8.73,1.46c-3.19,0.46-6.37,0.24-9.5-0.57
		c-1.4-0.36-2.79-0.63-4.24-0.71c-3.45-0.18-6.46-1.68-9.35-3.4c-5.23-3.1-9.49-7.25-13.02-12.17c-0.81-1.12-1.22-2.41-1.71-3.67
		c-0.39-1.02-0.54-2.15-1.3-3.23c-0.39,1.6,0.21,2.92,0.53,4.24c0.33,1.37,0.83,2.7,1.1,4.11c-0.94-1.13-1.61-2.38-1.84-3.85
		c-0.34-2.12-0.6-4.26-2.01-6.05c-0.31-0.39-0.33-1.06-0.37-1.61c-0.08-1.03,0.05-2.07-0.28-3.09c-0.18-0.55,0.04-1.08,0.27-1.61
		c2.23-5.14,2.87-10.59,3.02-16.11c0.14-5.04-0.29-10.04-1.52-15.09c0.56,0.16,0.67,0.79,1.19,0.69c0.56-0.32,0.61-0.74,0.48-1.39
		c-0.5-2.5-0.9-5.02-1.35-7.53c-0.16-0.91-0.63-1.78,0.02-2.75c0.19-0.28-0.2-0.9-0.23-1.37c-0.04-0.78-0.73-1.46-0.39-2.31
		c0.3,0.19,0.56,0.36,1.03,0.66c0.41-1.71-0.44-3.12-0.66-4.6c-0.23-1.57-0.57-3.12-0.95-5.12c1.78,1.77,2.94,3.52,4.37,5.02
		c1.5,1.58,2.33,3.58,3.48,5.46c0.89-1.61,0.95-4.33,0.32-12.19c1.72,0.83,2.91,2.22,4.27,3.33c1.42,1.16,2.71,2.47,4.03,3.76
		C230.19,384.07,230.84,385.87,232.22,387.1z"/>
	<path class="st0" d="M366.92,475.88c-0.87,3.25-2.56,5.53-5.06,7.26c-2.38,1.66-4.92,2.89-7.9,3.07c4.66,0.45,9.25,0.24,13.79-0.81
		c4.45-1.03,8.48-3.04,12.67-5.69c-1.57,7.75-6.06,12.82-12.04,17.01c2.97-0.48,6.72-2.48,11.16-5.88c0.49,0.37,0.2,0.84,0.11,1.22
		c-1.16,4.73-2.59,9.38-4.33,13.94c-1,2.61-2.32,5.08-3.8,7.46c-3.67,5.9-7.21,11.88-11.75,17.18c-4.83,5.64-10.73,9.75-17.81,12.1
		c-3.38,1.12-6.86,1.47-10.4,1.29c-2.2-0.11-4.13-1.14-6.12-1.84c-0.58,0.03-0.81,0.46-1.17,0.88c1.58,1.67,3.85,1.76,5.79,2.57
		c1.91,0.79,3.81,1.61,5.96,2.52c-3.94,1.52-7.87,1.46-11.8,1.44c-3.94-0.02-7.75-0.63-11.58-2.18c0.57-0.85,0.98-1.5,1.42-2.14
		c5.51-7.86,9.57-16.4,11.85-25.74c1.28-5.26,1.35-10.58,0.44-15.91c-0.41-2.4-1.36-3.21-3.73-2.77c-3.02,0.57-6.05,0.41-9.08,0.45
		c-0.48,0.01-0.96-0.01-1.44-0.03c-2.51-0.11-4.81-0.76-6.97-2.15c-1.47-0.95-3.03-1.77-4.49-2.75c-0.31-0.21-0.7-0.42-0.6-1.06
		c0.97-0.47,2.27,0.16,3.3-0.71c-0.95-0.49-1.88-0.92-2.78-1.43c-0.62-0.35-1.24-0.73-1.78-1.2c-0.49-0.43-0.78-1.01-0.36-1.69
		c0.6,0.1,0.97,0.53,1.42,0.86c0.42,0.31,0.8,0.81,1.61,0.6c0.18-0.88-0.77-1.28-0.98-1.99c-0.22-0.74-0.81-1.36-0.7-2.43
		c2.17,0.85,4.04,2.2,6.34,2.52c2.24,0.31,4.38,0.37,6.43-0.67c-0.21-0.84-1.24-0.52-1.46-1.42c3.22,0.08,5.97-1.61,9.02-2.17
		c0.53-0.1,1.1-0.28,1.44-0.76c0.08-0.11-0.1-0.39-0.18-0.65c0.35-0.03,0.74-0.16,1.1-0.09c2.83,0.57,5.73,0.54,8.58,0.63
		c3.58,0.12,7.17-0.25,10.71-0.85c4.66-0.79,9.24-1.82,13.61-3.67c0.51-0.21,1.06-0.46,1.59-0.45c3.28,0.05,6.02-1.39,8.68-3.05
		C366,476.51,366.32,476.28,366.92,475.88z"/>
	<path class="st0" d="M124.5,279.42c-3.1,1.51-5.48,3.99-8.44,5.69c-0.43-0.27-0.15-0.63,0.04-0.93c2.85-4.55,6.48-8.28,11.29-10.79
		c1.45-0.75,2.9-1.49,4.27-2.54c-1.94,0.34-3.88,0.68-5.82,1.02c4.9-3.22,10.21-5.57,15.49-8.9c-0.22,1.32-0.75,1.92-1.14,2.57
		c-2.31,3.92-4.48,7.91-5.96,12.24c-1.73,5.07-2.94,10.26-3.57,15.58c-0.38,3.17-0.61,6.34-0.36,9.54c0.07,0.88-0.16,1.73-0.37,2.6
		c-2.33,9.69-4.42,19.43-6.27,29.22c-0.65,3.43-1.13,6.92-1.2,10.43c-0.02,1.11-0.31,2.19-0.33,3.32
		c-0.11,6.72,1.24,13.15,3.65,19.38c0.97,2.52,1.95,5.04,3.14,8.1c-2.35-1.74-3.39-4.36-6.08-4.81c-0.76,1.41,0.02,2.78-0.26,4.27
		c-0.84-0.68-1.58-1.36-2.39-1.93c-0.82-0.58-1.57-1.36-2.64-1.43c-1.03,0.86-0.58,1.94-0.54,2.95c-2.16-0.16-4.19-0.31-6.29-0.46
		c-0.05-1.58,1.24-2.98,0.51-4.45c-0.59-0.36-0.92-0.04-1.23,0.17c-2.38,1.61-4.76,3.23-7.12,4.86c-0.92,0.64-1.87,1.17-3.16,1.31
		c0-0.84,0.43-1.4,0.73-1.99c0.94-1.88,1.42-3.88,1.74-5.94c0.07-0.43,0.02-0.8-0.33-1.07c-0.47-0.36-0.9-0.14-1.3,0.15
		c-0.19,0.14-0.38,0.31-0.52,0.5c-1.37,1.83-3.49,2.39-5.78,3.47c1.54-3.16,3.59-5.83,2.7-9.38c-1.66,0.1-2.32,1.7-3.53,2.15
		c-0.59,0.07-0.59-0.6-1.13-0.6c-1.71,1.02-2.75,2.98-4.7,4.02c0.02-2.07,0.83-4.05-0.08-5.98c-0.99-0.13-1.04,0.94-1.75,1.18
		c-0.02-0.22-0.09-0.44-0.05-0.64c1.41-6.63,3.15-13.17,4.85-19.73c0.7-2.7,1.17-5.49,2.45-7.98c2.81-5.48,4.53-11.41,7.25-16.92
		c1.49-3.01,3.15-5.92,4.87-8.79c3.97-6.64,7.87-13.33,11.92-19.93c1.92-3.12,4.02-6.15,6.78-8.63
		C124.12,280.09,124.29,279.73,124.5,279.42z"/>
	<path class="st0" d="M65.13,509.68c0.99,0.68,1.64,0.27,2.18-0.4c1.55-1.94,3.21-3.76,5.14-5.33c1.42-1.16,2.84-2.31,4.32-3.52
		c0.31,0.68-0.29,0.86-0.52,1.14c-3.8,4.65-7.12,9.62-9.96,14.91c-0.41,0.77-0.87,1.51-0.53,2.4c-0.86,0.98-2.04,1.36-2.99,2.09
		c-0.69,0.52-0.89,1.15-0.54,1.88c0.41,0.86,0.89,1.7,1.41,2.5c2.14,3.26,4.31,6.49,6.57,9.88c-1.35,0.13-2.43-0.36-3.5-0.78
		c-3.21-1.27-6.12-3.12-8.99-4.99c-3.95-2.58-7.64-5.49-10.97-8.85c-3.69-3.72-6.67-7.93-9.21-12.48c-0.82-1.46-1.61-2.94-2.34-4.45
		c-0.93-1.95-0.79-2.71,0.75-4.24c0.68-0.67,1.45-1.25,2.04-2.03c-2.07,0.14-3.75,0.91-5.05,2.55c1.44-7.86,5.28-14.29,11.64-19.75
		c-3.14,1.01-4.78,2.27-11.88,8.92c-0.52-0.44-0.04-0.89,0.06-1.28c0.94-3.58,2.33-7,4.6-9.94c3-3.89,6.99-6.5,11.55-8.24
		c1.08-0.41,2.32-0.57,3.2-2.05c-3.36,0.95-6.49,1.06-9.68,0.81c0.61-0.46,1.29-0.63,1.98-0.81c4.37-1.18,8.35-3.2,12.07-5.72
		c3.84-2.6,7.83-4.96,11.46-7.86c0.38-0.3,0.8-0.56,1.31-0.36c2.07,0.81,4.28,1.13,6.87,1.7c-2.5,0.83-4.8-0.16-6.84,0.78
		c0.09,1.25,0.89,1.68,1.59,2.18c3.32,2.41,7.03,3.71,11.12,3.93c0.79,0.04,1.61-0.07,2.32,0.41c2.63,1.77,5.63,2,8.68,2.24
		c2.31,0.18,4.62,0.21,6.94,0.24c0.31,0.01,0.61,0.08,1.23,0.17c-1.26,0.9-2.59,0.73-3.75,1.24c0.24,1.02,1.26,0.94,1.91,1.42
		c-0.69,0.37-1.28,0.52-1.91,0.51c-3.75-0.01-7.5,0.21-11.2-0.68c-1.47-0.36-2.17-0.15-2.31,0.49c-0.24,1.1,0.66,1.56,1.33,2.05
		c1.88,1.38,4.01,2.3,6.21,3.05c0.35,0.12,0.81,0.02,1.04,0.46c-0.16,0.59-0.7,0.52-1.14,0.63c-5,1.21-9.04,3.96-12.29,7.87
		c-4.21,5.07-7.49,10.72-10.3,16.66c-1.13,2.38-2.19,4.79-3,7.3C65.39,507.37,64.89,508.41,65.13,509.68z"/>
	<path class="st0" d="M204.42,382.54c0.76-0.31,1.33-0.79,1.5-1.66c0.21-1.09,0.47-2.16,0.71-3.24c0.68,0.08,0.71,0.6,0.9,1.01
		c1.36,2.99,2.07,6.17,2.89,9.33c0.33,1.28,0.61,2.58,1.16,3.84c-2.32-3.18-4.74-6.25-7.12-9.34L204.42,382.54z"/>
	<path class="st0" d="M215.19,20.89c0.16-0.17,0.39-0.32,0.48-0.53c1.22-3.01,3.44-5.5,4.54-8.59c0.37,3.19-0.61,5.96-2.49,8.49
		c-0.72,0.97-1.69,0.53-2.58,0.57C215.14,20.83,215.19,20.89,215.19,20.89z"/>
	<path class="st0" d="M200.38,17.46c-0.23-0.01-0.46-0.02-0.69-0.04c1.57-3.05,3.49-5.8,6.83-7.9c-0.42,1.68-1.23,2.67-2.09,3.63
		C203.11,14.62,201.49,15.81,200.38,17.46z"/>
	<path class="st0" d="M197.62,105.28c0.28-0.31,0.55-0.6,0.95-0.14c0.42,0.48,0.87,0.93,1.3,1.4c0.08,0.19-0.02,0.41-0.16,0.35
		C198.87,106.54,198.03,106.18,197.62,105.28z"/>
</g>
</svg>
