<?xml version="1.0" encoding="utf-8"?>
<!-- Generator: Adobe Illustrator 23.1.0, SVG Export Plug-In . SVG Version: 6.00 Build 0)  -->
<svg version="1.1" id="Layer_1" xmlns="http://www.w3.org/2000/svg" xmlns:xlink="http://www.w3.org/1999/xlink" x="0px" y="0px"
	 viewBox="0 0 4175.59 3594.6" style="enable-background:new 0 0 4175.59 3594.6;" xml:space="preserve">
<g>
	<path d="M1095.93,3548.94c-1.66,0.83-3.61,1.34-4.94,2.54c-4.42,4.02-8.53,8.38-12.91,12.45c-10.32,9.59-22.59,13.7-36.63,12.85
		c-3.94-0.24-7.91-0.04-11.43-0.04c-3.02,3.62-5.48,6.58-9.23,11.07c-2.15-2.89-4.07-5.48-5.96-8.01c-1.32,0-2.88-0.47-3.89,0.07
		c-11.92,6.37-24.31,5.76-36.91,2.85c-4.53-1.05-9.07-2.03-13.77-3.07c-20.31,10.35-40.23,14.24-58.92-4.02
		c-9-1.61-15.44,5.49-22.16,8.45c-4.45-1.2-4.6-4.04-4.91-6.53c-0.24-1.95-0.26-4.12,0.35-5.95c4.46-13.37,10.82-25.8,19.79-36.69
		c2-2.43,5.2-4.68,8.22-5.35c12.14-2.67,21.38-10.48,31.34-16.93c5.17-3.34,10.07-6.18,16.5-5.9c2.52,0.11,5.13-1.04,7.66-1.76
		c6.32-1.81,12.63-3.7,20.54-6.03c3.78-5.17,8.73-11.43,13.09-18.07c5.72-8.7,8.16-18,4.43-28.44c-3.8-10.65-6.37-21.75-10.52-32.25
		c-17.9-45.21-35.71-90.46-54.46-135.31c-18.79-44.95-34.8-90.77-47.31-137.85c-2.9-10.93-6.49-21.69-10.2-32.38
		c-1.49-4.3-4.16-8.19-6.37-12.41c-18.46-0.44-36.37-0.87-54.29-1.28c-26.05-0.6-51.85-3.21-77.24-9.29
		c-2.51-0.6-5.46-1.82-7.6-1.06c-8.13,2.9-15.72,0.33-23.59-0.99c-11.16-1.86-22.41-3.68-33.69-4.3c-26.04-1.41-51.67-4.92-76.81-12
		c-5.67-1.6-11.62-2.19-18.19-3.37c-1.3,2.64-2.75,4.8-3.43,7.18c-1.1,3.83-1.48,7.86-2.52,11.71c-4.6,17.11-4.84,34.26-0.52,51.41
		c2.31,9.18,2.75,18.4,2.04,27.77c-0.69,9.06-4.43,16.63-10.91,22.91c-0.96,0.93-1.92,1.87-2.99,2.66
		c-20.66,15.3-35.89,35.52-51.01,55.88c-19.87,26.75-39.73,53.52-59.99,79.98c-23.49,30.69-47.41,61.06-71.13,91.58
		c-4.5,5.79-8.92,11.63-13.37,17.45c-7.4,9.7-12.38,20.47-14.66,32.49c-0.62,3.26-1.66,6.44-2.5,9.65
		c-2.25,8.61-6.47,15.89-13.38,21.74c-8.64,7.31-16.72,15.29-25.43,22.52c-9.3,7.72-17.75,16.09-24.63,26.06
		c-2.64,3.82-5.53,7.57-8.83,10.81c-7.46,7.31-16.3,11.52-27.07,10.13c-10.72-1.39-21.4-0.44-31.83,1.64
		c-9.35,1.87-18.45,2.31-27.73,0.37c-6.64-1.39-12.98-1.2-19.48,1.68c-7.34,3.26-15.4,4.11-23.46,4.32
		c-7.33,0.19-14.69,1.11-21.97,0.68c-11.61-0.68-22.32,0.6-32.32,7.45c-5.99,4.11-8.54,2.39-11.23-5.13
		c-0.63-1.78-1.51-3.48-2.43-5.55c-6.83,0-13.45-0.16-20.06,0.04c-7.32,0.22-14.69,1.18-21.72-1.78c-4.12-1.74-7.86-0.25-11.57,1.2
		c-5.57,2.19-11.06,4.6-16.63,6.78c-2.13,0.84-5.52-2.18-5.15-4.68c1.79-11.85,4.09-23.57,10.18-34.13c1.32-2.29,3.33-4.19,4.7-6.46
		c4.45-7.39,6.09-16.41,12.51-22.6c12.4-11.98,25.05-23.7,37.11-35.07c8.19-1.1,15.68,1.64,22.53-2.53
		c2.96-1.81,6.49-0.65,9.59,0.84c5.14,2.46,10.2,2.57,15.31-0.21c6.87-3.74,14.23-2.9,21.51-1.81c6.32,0.95,11.83-0.5,16.82-4.47
		c2.6-2.07,5.55-3.71,8.14-5.79c25.98-20.86,51.83-41.84,75.85-65.03c11.39-10.99,18.99-23.7,23.84-38.6
		c10.11-31.04,20.91-61.86,33.95-91.81c23.15-53.14,46.67-106.1,74.93-156.8c0.65-1.16,1.04-2.49,1.8-3.56
		c14.02-19.75,15.51-41.99,12.93-65.03c-2.15-19.2-4.6-38.37-6.41-57.6c-1.74-18.55-2.83-37.17-4.26-56.44
		c-17.78-23.81-28.1-51.8-35.94-80.81c-3.65-13.49-6.55-27.19-9.34-40.89c-2.95-14.46-3.18-29.17-1.91-43.81
		c0.51-5.87,1.66-12.05,4.16-17.3c3.08-6.47,3.82-12.58,1.92-19.27c-1.51-5.29-0.72-10.47,0.21-15.8
		c1.84-10.56,4.79-20.76,8.58-30.75c8.73-23.03,17.43-46.08,29.79-67.52c1.62-2.8,2.72-5.96,3.7-9.06
		c4.61-14.63,9.75-29.02,17.19-42.54c2.56-4.64,4.26-9.75,6.3-14.67c1.79-4.31,3.2-8.8,5.29-12.94c4.2-8.3,9.69-16.07,12.9-24.7
		c3.21-8.66,3.8-18.25,6.41-27.18c4.09-14.01,8.91-27.81,13.26-41.22c-3.96-9.18-11.08-14.02-19.13-17.56
		c-10.37-4.55-20.88-8.78-31.4-12.98c-12.37-4.93-24.8-9.73-37.25-14.48c-10.6-4.05-21.19-8.16-30.3-15.1
		c-5.65-4.31-10.99-3.56-16.68-0.33c-6.48,3.67-11.89,8.46-16.59,14.22c-4.63,5.67-9.45,11.2-14.37,16.64
		c-5.77,6.39-13.21,8.49-21.65,8.14c-12.58-0.52-23.53-4.28-31.43-14.72c-1.2-1.59-2.62-3.02-3.93-4.53
		c-10.54-12.15-10.54-12.15-11.53-28.29c-4.61-5.82-10.44-9.87-17.76-11.99c-9.16-2.66-16.76-7.96-23.44-14.72
		c-11.7-11.84-23.72-23.38-35.23-35.4c-5.2-5.43-4.51-12.49-1.89-18.81c1.74-4.19,4.83-7.96,7.87-11.43
		c8-9.13,17.75-16.2,28.47-21.71c10.74-5.52,20.32-12.65,30.12-19.58c16.86-11.93,34.1-23.32,51.12-35.02
		c6.59-4.53,13.06-9.23,19.48-13.98c1.55-1.15,2.71-2.84,4.44-4.71c-0.48-5.01-1.55-10.26-1.33-15.46
		c0.27-6.63,1.34-13.26,2.49-19.82c2.58-14.68,7.89-28.19,18.01-39.46c2.24-2.49,4.72-4.77,9.25-3.7
		c3.8,10.92,0.56,23.61,6.38,34.63c7.25-0.41,8.72-7.68,13.36-11.11c4.77-3.53,9.02-7.76,12.82-11.1
		c1.43-13.64,2.04-26.31,4.23-38.71c3.37-19.05,12.55-34.99,28.65-46.38c1.61-1.14,3.44-1.96,5.19-2.88
		c2.31-1.22,6.23,0.69,6.14,3.02c-0.1,2.66,0.04,5.41-0.6,7.95c-3.74,14.66-0.14,28.98,0.56,42.47c3.66,2.72,6.13,1.97,8.5,0.71
		c12.36-6.53,24.65-13.21,37.08-19.6c5.09-2.62,8.58-6.18,9.59-11.92c3.05-17.45,11.74-32.48,20.56-47.4
		c10.49-17.75,25.92-30.19,44-39.55c1.69-0.88,3.87-1.18,5.79-1.1c0.86,0.04,2.48,1.81,2.35,2.56c-0.65,3.86-1.4,7.78-2.77,11.43
		c-4,10.61-8.23,21.14-9.34,32.55c-0.25,2.56-0.04,5.17-0.04,8.53c2.57-0.64,4.7-0.57,5.93-1.59c4.62-3.8,8.87-8.04,13.39-11.97
		c7.54-6.56,14.91-13.41,24.18-17.54c2.31-1.03,5.63-2.42,7.4-1.52c5.2,2.67,8.96,0.15,13.05-2.05
		c13.49-7.26,26.89-14.7,40.48-21.75c13.8-7.15,28.81-10.23,44.1-12.11c6.17-0.76,12.21,0,17.05,3.99
		c3.47,2.86,6.97,3.36,11.08,2.93c8.62-0.9,17.29-1.31,25.86-2.52c14.87-2.09,29.18,1.18,43.53,3.99
		c6.85,1.34,12.22,5.08,14.87,12.08c8.48,2.15,16.96,3.95,25.21,6.48c19.37,5.92,37.08,14.92,51.47,29.53
		c2.28,2.32,5.55,5.21,5.61,7.89c0.17,8.15,5.86,11.41,11.23,15.26c14.15,10.13,27.42,21.27,38.1,35.11
		c5.28,6.84,10.12,14.07,14.53,21.5c2.63,4.43,5.09,9.29,0.87,14.79c-1.1,1.43-0.04,5.19,0.99,7.44c3.04,6.66,6.53,13.11,9.9,19.61
		c11.23,21.7,16.63,44.9,17.53,69.18c0.17,4.51-0.13,9.7-2.2,13.5c-3.68,6.78-4.59,13.74-4.74,21.11
		c-0.11,5.33-0.72,10.66-0.56,15.97c0.43,15.07-4.12,28.85-10.15,42.38c-4.7,10.55-10.6,20.07-20.61,26.33
		c-4.74,2.96-7.46,7.3-10.24,11.94c-4.79,7.98-9.73,15.96-15.45,23.27c-8.7,11.12-18.9,20.54-33.33,23.94
		c-1.84,0.43-3.79,1.43-5.15,2.73c-5.76,5.52-11.62,10.99-16.79,17.04c-1.95,2.28-1.96,6.13-3.22,9.11
		c-1.12,2.65-3.74,4.72-6.31,3.43c-8.08-4.05-15.49-1.11-23.07,1.22c-1.91,0.59-3.82,1.19-5.76,1.67c-6.12,1.52-6.13,1.5-14.74-4.84
		c-15.09,5.41-30.53,11.52-47.54,12.88c-1.27,4.4-3.06,8.12-3.34,11.96c-1,13.8-6.19,27.16-5.11,41.68
		c71.85-37.65,94.76-26.86,137.92-24.25c4.16-3.9,9.24-8.13,13.72-12.93c37.31-40.02,77.89-76.63,118.02-113.71
		c16.14-14.91,31.95-30.19,47.52-45.69c41.41-41.22,69.82-90.52,89.05-145.34c13.06-37.21,21.48-75.51,26.48-114.64
		c4.66-36.42,7.09-72.98,6.17-109.64c-2.16-85.93-15.36-169.75-50.4-249.05c-6.19-14-13.24-27.62-19.9-41.42
		c-3.26-6.77-7.86-12.05-14.73-15.67c-12.96-6.84-25.61-14.27-38.41-21.41c-6.98-3.9-14.21-7.39-20.95-11.66
		c-6.15-3.89-11.79-8.57-18.07-13.21c-50.12,5.11-100.51,9.76-150.77,15.54c-42.41,4.87-84.12,13.76-125.35,24.9
		c-8.2,2.22-16.32,5.57-25.01,5.02c-0.76-3.67,0.71-5.67,2.95-7.2c11.57-7.87,22.9-16.11,34.79-23.47
		c43.72-27.09,89.8-49.55,137.39-68.93c19.74-8.04,39.75-15.4,59.59-23.19c6.81-2.67,13.56-5.54,20.18-8.66
		c2.28-1.08,4.06-3.22,6.75-5.42c-1.85-2.44-2.98-5.01-4.94-6.33c-16.04-10.76-31.76-22.12-48.49-31.7
		c-34.69-19.85-69.98-38.66-104.96-58c-11.66-6.45-23.21-13.09-34.69-19.86c-20.94-12.34-39-27.84-52.4-48.4
		c-1.42-2.17-3.41-3.97-5.36-6.18c-16.02-1.55-31.99-0.74-47.94-0.58c-9.33,0.09-18.65,0.66-27.98,0.57
		c-64.83-0.64-127.14,11.64-187.14,36.04c-5.53,2.25-11.18,4.25-16.86,6.09c-0.96,0.31-2.72-0.43-3.47-1.26
		c-0.7-0.78-1.12-2.6-0.69-3.49c3.53-7.37,9.35-12.81,15.42-18.1c19.19-16.71,40.33-30.65,62.24-43.4
		c45.72-26.6,94.16-46.86,145.19-60.83c11.52-3.15,23.2-5.7,35.56-8.7c5.49-18.05,17.16-32.69,27.99-47.88
		c37.14-52.1,74.03-104.39,111.23-156.44c41.14-57.57,86.36-111.8,134.79-163.36c86.48-92.07,181.31-174.78,281.51-251.49
		c88.44-67.71,180.36-130.4,273.53-191.36c109.39-71.57,222.06-137.5,337.65-198.46c109.04-57.5,220.05-111.01,332.46-161.61
		c11.54-5.2,23.48-9.68,34.52-15.79c17.39-9.63,36.22-13.44,55.49-15.11c29.35-2.54,58.56-0.7,87.49,5.32
		c10.64,2.21,20.66,5.45,28.55,13.28c3.5,3.48,7.63,5.13,12.41,5.73c10.73,1.35,20.66,5.11,29.97,10.53
		c19.2,11.18,30.11,27.71,32.08,49.95c0.11,1.24-0.53,2.55-0.96,4.41c-1.7-0.85-3.73-1.26-4.75-2.49
		c-13.07-15.79-31.16-22.32-50.12-26.93c-5.02-1.22-11-1.85-15.72-0.28c-15.12,5.03-30.43,2.74-45.62,2.35
		c-43.68-1.12-86.37,3.62-127.42,19.39c-42.77,16.42-72.07,46.88-91,87.94c-2.49,5.41-4.17,11.23-5.84,16.97
		c-3.08,10.59-0.24,19.94,7.49,27.44c4.24,4.12,9.28,7.58,14.4,10.61c13.35,7.89,28.06,12.4,43.2,14.98
		c15.09,2.57,30.35,3.97,45.74,4.05c32.66,0.17,65.27-0.69,97.88-2.62c52.59-3.11,105.26-3.53,157.86-0.58
		c43.23,2.43,86.29,6.91,129.12,13.72c90.35,14.37,178.73,36.66,265.54,65.31c36.67,12.11,73.31,24.34,108.59,40.31
		c13.93,6.3,28.45,11.36,42.86,16.52c12.6,4.51,24.59,10.19,36.33,16.54c8.93,4.83,16.96,10.65,21.94,19.79
		c3.02,5.53,7.45,9.09,13.23,11.56c10.69,4.57,18.95,12.5,26.13,21.29c11.93,14.62,17.07,31.49,13.83,50.38
		c-0.52,3.05-2.29,5.88-4.14,10.45c-9.39-24.78-26.78-39.59-48.14-50.38c-2.89-1.46-6.45-3.22-9.34-2.74
		c-10.54,1.77-19.82-2.1-28.9-5.94c-17.78-7.51-35.28-15.71-52.79-23.85c-10.87-5.05-21.42-10.81-32.36-15.7
		c-23.05-10.31-46.63-14.31-72-8.64c-23.52,5.26-46.45,11.56-68.19,22.11c-31.35,15.22-53.41,39.05-67.69,70.63
		c-11.07,24.48-17.98,50.15-22.51,76.47c-3.73,21.7-5.57,43.63-4.79,65.7c0.14,3.94-0.23,8.02,2.24,11.42
		c1.97,2.61,4.75,2.28,7.32,2.08c9.29-0.7,18.56-1.99,27.87-2.28c24.12-0.77,47.8,3.2,71.4,7.51c7.24,1.32,14.4,3.81,19.86,8.9
		c6.64,6.2,14.2,8.88,23.1,10.4c17.64,3.02,32.37,11.86,43.51,26.14c8.91,11.41,13.39,24.25,13,39.93c-2.57-1.01-4.7-1.17-5.56-2.29
		c-14.4-18.8-35.07-25.65-57.02-29.92c-3.13-0.61-6.84-0.57-9.77,0.53c-9.74,3.65-19.73,2.81-29.68,2.39
		c-27.37-1.15-54.22-6.42-81.21-10.57c-3.93-0.6-7.9-1-11.87-1.33c-2.37-0.2-4.92,2.91-4.61,5.37c0.08,0.66,0.08,1.34,0.24,1.98
		c11.6,46.87,29.47,91.18,54.28,132.64c0.33,0.55,0.96,0.92,2.47,2.31c17.38,1.48,35.85,3.42,54.38,4.3
		c43.28,2.05,86.33,6.52,129.4,11.16c51.7,5.57,103.06,13.4,154.29,22.01c47.3,7.95,94.18,18.11,140.93,28.85
		c37.65,8.65,75.29,17.34,112.91,26.14c17.56,4.11,35.46,5.84,53.28,8.17c28.4,3.7,56.88,6.98,85.16,11.46
		c35.43,5.61,67.32,20.63,97.65,39.25c5.76,3.54,10.92,7.96,14.01,13.98c3.86,7.53,9.71,12.3,17.23,15.8
		c7.35,3.42,12.91,9.36,18.43,15.17c16.53,17.4,21.16,37.95,15.79,61c-0.4,1.72-1.97,3.17-4,6.31
		c-7.54-24.82-24.26-38.7-43.19-50.47c-3.31-2.06-7.41-4.43-10.99-4.21c-12.64,0.81-23.63-4.17-34.43-9.11
		c-17.55-8.04-34.65-17.07-51.9-25.75c-5.95-2.99-11.86-6.08-17.67-9.34c-29.56-16.6-61.51-20.71-94.73-18.38
		c-10.63,0.74-21.27,1.27-31.89,2.09c-17.26,1.34-34.65,1.95-51.73,4.52c-19.12,2.88-37.92,8.34-55.07,17.3
		c-15.56,8.13-27.2,21.39-37.03,35.83c-10.15,14.93-17.69,31.25-23.8,48.26c-14.47,40.24-14.98,80.77-3.64,121.81
		c13.33,48.21,35.58,91.84,66.7,130.88c48.95,61.41,106.31,113.92,170.33,159.23c23.93,16.94,48.3,33.27,72.45,49.91
		c45.55,31.39,91.04,62.84,136.62,94.18c19.78,13.6,40.15,26.26,61.21,37.81c35.2,19.32,62.56,47.25,86.29,79.08
		c4.01,5.37,7.29,11.32,7.96,18.12c0.81,8.3,3.99,15.03,9.65,21.33c7.18,7.99,11.46,17.92,14.26,28.32
		c5.35,19.89,2.21,38.28-10.25,54.84c-1.04,1.38-3.09,2.01-4.78,3.05c-0.57-1.73-1.4-3-1.32-4.21c1.28-19.82-7.56-36.21-17.86-51.96
		c-4.37-6.68-9.63-12.7-17.75-15.47c-7.15-2.44-12.3-7.99-17.28-13.27c-13.71-14.53-27.15-29.33-40.48-44.22
		c-6.66-7.45-12.71-15.44-19.25-23c-17.35-20.09-38.47-34.86-63.51-43.71c-23.23-8.21-46.64-15.93-69.93-23.98
		c-27.92-9.65-56.88-13.68-86.1-16.66c-31.82-3.24-63.64-6.28-95.6-7.68c-42.65-1.87-85.31-1.99-127.89,0.63
		c-31.9,1.96-63.66,5.67-95.35,10.22c-62.13,8.91-123.08,22.86-183.12,40.9c-49.78,14.95-99.02,31.48-146.76,52.21
		c-22.01,9.56-43.48,20.21-64.34,32.13c-33.16,18.96-63.67,41.54-91,68.15c-25.04,24.38-45.89,51.93-58.26,85.1
		c-6.32,16.95-10.41,34.27-10.69,52.58c-0.29,19.12,3.56,37.03,12.16,54.01c3.01,5.94,6.02,11.89,9.32,17.67
		c4.99,8.74,11.08,16.47,19.45,22.48c10.34,7.41,19.56,15.92,25.05,27.97c1.51,3.31,5.12,6.13,8.42,8.09
		c11.93,7.1,19.64,17.78,26.32,29.47c5.47,9.58,6.84,20.37,6.96,30.89c0.11,9.74-2.21,19.6-8.32,27.77
		c-3.64-1.1-4.15-3.88-4.66-6.42c-4.52-22.34-19.08-37.54-36.18-50.89c-2.04-1.59-4.6-3.14-7.07-3.43
		c-13.18-1.54-23.65-8.89-33.88-16.17c-7.91-5.63-16.43-8.72-25.69-10.15c-28.99-4.47-58.19-7.52-87.5-7.87
		c-48.29-0.57-95.5,7.16-141.85,20.65c-57.3,16.67-111.06,41.43-162.65,71c-48.06,27.55-93.77,58.69-136.91,93.5
		c-19.73,15.92-38.62,32.76-55.37,51.89c-15.87,18.13-29.89,37.54-40.71,59.12c-6.28,12.52-11.31,25.48-11.88,39.18
		c2.94,3.68,6.27,3.54,9.57,2.8c19.47-4.36,38.93-8.8,59.03-13.36c2.1-3.95,4.23-8,6.39-12.05c6.27-11.75,12.22-23.68,18.9-35.18
		c7.51-12.93,18.36-22.74,31.04-30.55c5.72-3.52,11.8-6.15,18.56-6.94c2.02-0.23,2.19-0.21,9.33,3.86
		c-0.33,5.94-4.56,10.52-6.77,15.85c-2.3,5.53-5.07,10.88-7.18,16.48c-1.87,4.97-3.47,10.11-4.56,15.31
		c-1.2,5.7-4.05,11.29-2.21,17.3c1.29,0.73,2.39,1.9,3.53,1.92c6.84,0.15,84.35-12.32,97.35-15.55c1.83-4.34,3.62-9.33,5.97-14.03
		c16.69-33.43,42.92-55.42,79.02-65.42c1.24-0.34,2.71-0.42,3.94-0.11c1.14,0.29,2.21,1.16,3.1,2c0.37,0.34,0.46,1.42,0.2,1.91
		c-0.92,1.74-1.89,3.5-3.13,5.01c-13.41,16.31-16.45,35.98-18.21,56.05c-0.23,2.59,2.41,5.37,4.91,5.12
		c9.26-0.92,18.52-1.91,27.76-3c17.18-2.02,34.34-4.13,51.8-6.24c7.86-14.13,13.47-29.57,26.03-40.1
		c7.62-6.39,15.68-12.55,24.37-17.3c8.69-4.74,18.32-7.83,27.71-11.17c4.3-1.53,8.97-2.72,13.62-0.73c0.22,1.16,1.05,2.86,0.58,3.37
		c-14.05,15.26-17.33,33.96-17.66,54.07c1.7,0.91,3.36,2.58,5.02,2.59c26.68,0.14,52.9-5.2,79.65-5.38
		c2.72-5.95,4.91-10.7,7.07-15.47c6.31-13.93,16.46-24.26,30.21-30.7c10.21-4.78,20.42-9.96,32.22-9.82
		c3.63,0.04,6.18,3.42,4.62,6.69c-2.57,5.4-5.41,10.68-7.93,16.11c-3.13,6.73-5.06,13.73-4.29,21.29c0.27,2.61,2.41,5.22,4.83,5.45
		c1.33,0.13,2.66,0.32,3.99,0.27c19.31-0.78,38.61-1.58,57.92-2.41c1.33-0.06,2.67-0.17,3.97-0.44c4.7-0.98,8.88-2.6,10.95-7.57
		c1.27-3.06,2.84-6.06,4.67-8.83c15.27-23.13,36.47-36.45,64.38-38.42c1.23-0.09,2.52,0.65,4.42,1.18
		c-0.57,1.66-0.64,3.89-1.77,4.81c-10.26,8.41-15.74,19.69-19.38,31.99c-1.09,3.69-0.84,7.77-1.23,11.85
		c2.42,0.9,4.18,2.07,5.98,2.13c29.29,0.87,50.7-0.25,64.65-3.39c1.38-2.04,3.32-4.68,5.03-7.46c9.59-15.6,23.2-25.41,41.29-28.81
		c3.91-0.74,7.79-1.86,11.74-2.12c1.53-0.1,3.18,1.69,5.45,3c-2.85,11.8-12.37,20.9-12.58,33.05c1.38,3.15,4.18,3.33,6.68,3.38
		c8.66,0.21,17.33,0.18,26,0.2c11.3,0.02,22.59,0.01,35.64,0.01c3.27-3.66,7.61-8.61,12.04-13.46c8.46-9.26,19.05-14.42,31.46-15.64
		c2.29-0.22,4.73,1.03,7.74,1.76c-2.28,9.82-8.32,17.83-6.85,28.31c3.3,0.5,6.45,1.3,9.64,1.41c15.98,0.59,31.97,0.93,47.95,1.5
		c6.9,0.25,12.58-0.96,17.81-6.57c9.42-10.1,22.02-14.64,35.54-16.59c1.3-0.19,2.64-0.11,3.96-0.13c3.24-0.06,6.33,3.66,5.49,6.66
		c-1.58,5.69-3.21,11.37-4.81,17.03c12.62,3.81,45.55,6.7,71.01,6.3c3.7-3.33,7.92-7.51,12.53-11.19
		c11.5-9.17,24.59-12.9,39.25-10.57c2.67,0.42,4.31,3.73,3.01,6.08c-2.87,5.21-5.77,10.41-8.59,15.65c-0.29,0.53-0.1,1.31-0.15,2.16
		c0.82,0.77,1.62,2.21,2.64,2.4c22.97,4.14,46.28,4.97,69.06,7.93c5.48-4.01,10.22-7.64,15.13-11.03
		c6.17-4.27,13.19-6.36,20.56-7.12c4.01-0.41,8,0.16,11.81,3.75c-2.39,4.92-4.9,10.07-7.09,14.56c1.21,5.02,4.81,5.52,7.89,6
		c11.19,1.75,22.44,3.08,33.64,4.72c17.79,2.6,35.6,5.15,53.35,8.05c7.57,1.24,14.15,0.6,20.78-4.04
		c8.38-5.86,18.19-8.16,28.51-7.08c1.74,0.18,3.38,1.45,5.68,2.49c-1.64,5.19-3.17,10.02-4.93,15.56
		c20.61,6.25,41.21,8.27,61.27,12.71c19.49,4.31,39.16,7.86,59.24,11.85c4.31-2.81,8.58-5.96,13.17-8.49
		c6.43-3.55,13.14-6.62,20.8-6.1c1.26,0.08,3.33,0.54,3.53,1.25c0.46,1.61,0.44,3.68-0.21,5.2c-1.56,3.62-3.76,6.97-5.33,10.58
		c-0.35,0.82,0.49,2.95,1.31,3.33c2.96,1.37,6.08,2.56,9.25,3.28c41.57,9.43,83.17,18.74,124.74,28.15
		c9.74,2.2,19.41,4.69,29.26,7.08c10-4.19,18.39-13.83,30.51-10.33c3.53,6.28-3.76,10.29-1.31,16.82c1.54,0.65,3.78,1.93,6.19,2.58
		c53.42,14.29,106.52,29.66,158.92,47.36c68.78,23.23,137.57,46.44,205.3,72.67c6.21,2.4,12.31,5.09,18.34,7.9
		c4.92,2.29,8.88,5.76,11.7,10.51c3.34,5.63,0.27,12.8-6.09,13.91c-10.06,1.77-19.99,0.2-29.76-1.78
		c-12.39-2.52-24.61-5.88-36.93-8.75c-2.36-0.55-4.85-0.52-9.21-0.95c3.97,5.76,6.86,9.95,9.73,14.11
		c-1.38,1.12-2.45,2.65-3.25,2.52c-3.92-0.64-7.95-1.26-11.59-2.74c-8.69-3.54-17.13-8.07-23.5-14.9
		c-9.09-9.76-20.08-15.01-32.81-17.6c-4.56-0.93-8.94-2.78-13.51-3.56c-6.75-1.15-12.94-6.93-20.39-2.69
		c1.72,7.08,8.23,9.93,12.77,14.53c0.93,0.94,2.21,1.81,2.59,2.96c0.32,0.98-0.31,2.35-0.77,3.45c-0.19,0.46-1.05,0.97-1.57,0.93
		c-7.53-0.57-14.32-3.55-20.2-7.91c-8.53-6.33-16.94-12.96-24.55-20.35c-5.02-4.87-10.23-8.11-17.01-9.58
		c-9.76-2.12-19.35-4.96-29.1-7.11c-3.05-0.67-6.37-0.1-10.51-0.1c4.66,11.52,12.62,19.63,19.74,28.33
		c2.49,3.05,4.83,6.23,7.13,9.42c0.3,0.41,0.19,1.56-0.17,1.9c-0.88,0.83-2.23,2.13-3.01,1.91c-3.82-1.09-7.68-2.26-11.22-4.03
		c-19.37-9.68-35.56-23.38-49.5-39.83c-2.58-3.04-5.02-6.19-8.17-10.09c-6.53-1.5-13.62-3.17-20.73-4.75
		c-9.1-2.02-18.23-3.96-27.34-5.93c-18.06-3.9-24.77-4.32-24.51-1.71c0.9,9.04,6.83,15.7,11.6,22.73
		c4.46,6.59,10.06,12.4,15.05,18.64c1.22,1.53,2.3,3.29,2.94,5.13c0.34,1-0.04,2.7-0.75,3.48c-0.75,0.81-2.46,1.49-3.47,1.21
		c-8.46-2.37-15.76-7.06-22.8-12.13c-15.84-11.4-29.34-25.1-40.29-41.29c-1.85-2.74-3.85-5.39-6.04-8.45
		c-20.81-4.04-41.6-8.57-62.89-10.08c-1.09-0.08-2.27,1.05-3.43,1.62c-1.08,4.55,2.06,7.57,4.26,10.72
		c16.43,23.55,34.01,46.13,55.64,65.27c1.97,1.74,3.71,3.82,5.18,6c0.45,0.67-0.23,2.25-0.68,3.29c-0.2,0.46-1.09,0.9-1.65,0.88
		c-1.3-0.04-2.68-0.15-3.87-0.62c-18.71-7.35-36.14-16.9-51.94-29.48c-22.52-17.93-43.52-37.27-60.16-60.98
		c-1.51-2.15-3.53-3.95-5.69-6.34c-22.75-3.06-45.66-6.92-68.92-7.88c-0.41-0.02-0.85,0.76-1.27,1.17
		c-0.59,3.81,2.15,6.12,4.02,8.77c11.21,15.9,25.43,29.05,39.02,42.79c2.25,2.27,4.03,5.07,5.65,7.85c0.3,0.52-1.33,3.08-1.86,3.01
		c-3.9-0.5-7.98-0.86-11.58-2.31c-19.39-7.83-36.41-19.46-51.42-33.9c-10.55-10.15-20.54-20.88-31.91-32.51
		c-5.2-0.59-11.75-1.33-18.3-2.08c-5.96-0.68-11.9-1.51-17.87-2c-2.62-0.22-5.93-0.72-7.85,0.55c-7.91,5.2-15.29,2.77-22.71-0.64
		c-5.59-2.57-11.45-3.23-17.49-3.53c-25.94-1.3-51.87-2.87-77.82-4.06c-5.25-0.24-10.83-0.17-15.77,1.35
		c-7.22,2.21-14.35,2.59-21.71,2.12c-15.95-1.02-31.9-2.09-47.86-2.95c-21.94-1.19-43.9-1.82-65.88-1.24
		c-5.33,0.14-10.71,0.55-15.99,0.06c-21.32-1.96-42.57-0.03-63.85,0.75c-6.65,0.25-13.32-0.21-19.98-0.18
		c-5.97,0.03-11.94,0.19-17.9,0.47c-1.98,0.09-3.93,0.71-5.89,1.09c-7.86,1.55-15.47-4.51-23.53-0.48
		c-6.79,3.39-14.39,2.22-21.66,2.72c-4.63,0.32-9.3,0-13.95,0.04c-3.98,0.04-8.05-0.34-11.9,0.39c-9.22,1.73-18.31,3.61-27.6,0.3
		c-1.74-0.62-3.95-0.25-5.89,0.03c-25.7,3.65-51.52,5.82-77.48,6.3c-3.29,0.06-6.58,0.76-9.85,1.29c-3.28,0.53-6.54,1.16-9.79,1.84
		c-12.4,2.59-25.11-0.36-37.66,2.98c-11.49,3.05-23.59,3.87-35.46,5.44c-3.94,0.52-7.99,0.24-11.98,0.49
		c-13.24,0.83-26.35,2.09-39.5,4.48c-19.62,3.58-39.63,4.98-59.45,7.48c-3.88,0.49-7.92,1.18-11.44,2.77
		c-15.41,6.98-31.21,10.96-48.37,9.78c-9.86-0.68-19.61,0.5-29.44,3.37c-10.1,2.95-21,3.18-31.57,4.46
		c-6.59,0.8-12.98,1.06-18.34,6.4c-4.79,4.77-11.74,6.1-18.34,7.24c-22.96,3.96-45.6,9.77-68.84,12.13
		c-5.21,0.53-10.52,0.08-16.39,0.08c-9.34,8.74-21.15,12.21-33.85,14.74c-16.33,3.24-32.42,7.58-49.16,8.41
		c-3.42,0.17-6.15,1.42-8.77,3.91c-9.71,9.19-22.54,10.96-34.88,13.39c-3.65,0.72-7.79-1.01-12.89-1.8
		c-24.1,13.52-51.05,22.75-78.67,30.29c-7.04,1.92-13.66,6.12-20.76,6.99c-16.28,2-30.02,10.23-44.79,16.02
		c-18.59,7.29-37.36,14.15-56.26,20.59c-6.86,2.34-14.33,2.87-21.5,4.35c-2.56,0.53-5.8,0.66-7.44,2.29
		c-7.94,7.89-18.39,10.76-28.32,14.2c-19.58,6.78-38.38,15.1-56.77,24.58c-12.97,6.69-25.64,14.35-40.5,16.53
		c-1.27,0.19-2.65,0.7-3.65,1.48c-13.74,10.77-30.28,16.75-44.75,26.26c-10.01,6.58-20.67,12.27-28.76,21.43
		c-0.44,0.5-1.01,0.87-1.48,1.34c-5.18,5.06-13.45,4.54-18.16,11.42c-3.58,5.23-9.93,8.67-15.31,12.55
		c-15.18,10.96-29.22,23.19-42.06,36.82c-6.39,6.78-12.79,13.54-19.28,20.41c-1.56,4.09,0.94,7.68,2.07,11.35
		c6.27,20.36,13.26,40.51,19.06,61c3.54,12.5,11.53,18.95,23.41,21.85c11.64,2.84,23.3,5.58,34.93,8.45
		c3.87,0.96,7.64,2.36,11.53,3.24c10.37,2.35,17.98,8.58,23.76,17.1c7.11,10.47,14.36,20.9,20.63,31.87
		c10.24,17.93,19.54,36.39,29.62,54.41c6.17,11.03,12.55,22.01,19.74,32.39c11.28,16.28,25.88,28.61,45.41,34.16
		c8.32,2.36,16.62,4.79,24.96,7.09c1.92,0.53,3.93,0.73,5.92,0.98c17.23,2.12,29.62,11.16,37.62,26.39
		c4.02,7.66,8.17,15.28,11.66,23.18c6.19,14.01,11.98,28.2,17.84,42.35c4.14,9.98,6.64,20.23,5.07,31.18
		c-0.38,2.62,0.06,5.36-0.31,7.98c-1.27,8.89,0.52,17.18,4.19,25.26c9.64,21.24,19.2,42.53,31.99,62.12
		c10.2,15.62,21.24,30.7,31.18,46.48c10.65,16.9,20.48,34.31,30.58,51.55c6.87,11.73,7.58,23.93,2.38,36.48
		c-3.06,7.38-5.9,14.86-9.23,22.12c-4.68,10.18-12.09,17.13-23.37,20.06c-13.46,3.49-26.37,9.15-40.85,7.96
		c-3.67-0.3-8.17,1.13-11.22,3.28c-5.8,4.11-11.98,5.42-18.78,5.48c-8.65,0.08-17.3,0.64-25.94,0.43
		c-10.87-0.26-21.11,0.64-29.95,8.17c-3.46,2.95-7.36,1.28-9.68-3.22c-0.9-1.75-1.16-3.83-2.01-5.62c-0.52-1.11-1.61-1.95-2.75-3.27
		c-2.99,0-6.41-0.56-9.57,0.1c-12.55,2.61-25.02,3.01-37.68,0.66c-3.02-0.56-6.52,0.56-9.61,1.52c-3.15,0.98-6.01,2.82-9.09,4.07
		c-3.24,1.32-7.32-0.91-7.52-4.23c-0.24-3.95,0.16-7.95-0.09-11.9c-0.33-5.28-5.48-8.31-10.02-5.98c-2.35,1.21-4.42,2.98-6.79,4.15
		c-1.03,0.51-3.14,0.67-3.64,0.07c-1.15-1.41-2.5-3.55-2.19-5.08c0.77-3.86,1.86-7.86,3.82-11.24c4-6.9,8.45-13.57,13.08-20.08
		c3.87-5.43,7.87-10.64,10.26-17.03c2.92-7.78,8.12-13.68,16.34-16.48c1.86-0.63,3.54-1.84,5.26-2.86
		c7.38-4.36,14.99-5.35,22.75-1.21c8-3.99,14.27-10.34,23.22-12.05c4.14-0.79,5.93-5.52,5.98-9.56c0.05-3.9-1.07-7.88-2.05-11.73
		c-5.27-20.69-12.63-40.66-20.24-60.59c-8.56-22.44-18.65-44.17-29.26-65.68c-4.46-9.03-10.14-17.1-17.35-24.26
		c-14.66-14.55-28.93-29.5-43.41-44.24c-9.84-10.02-20.46-18.99-32.71-26.09c-37.47-21.73-75.36-42.66-114.42-61.44
		c-13.8-6.64-27.27-13.99-40.67-21.42c-10.54-5.85-21.3-10.98-33.06-13.87c-28.7-7.05-51.71-24.18-73.76-42.62
		c-5.45-4.56-9.73-11.07-13.06-17.46c-4.43-8.5-10.36-15.3-17.5-21.5c-18.6-16.17-37.12-32.45-55.36-49.02
		c-18.25-16.58-36.19-33.48-54.13-50.39c-10.66-10.04-22.06-19.01-34.75-26.93c-1.93,1.7-3.77,2.69-4.67,4.23
		c-17.61,29.84-35.26,59.65-52.58,89.66c-11.8,20.45-25.62,38.93-45.77,52c-3.16,2.05-7.19,3.84-7.27,9.12
		c1.61,0.62,3.28,1.63,5.07,1.88c7.25,1.01,14.52,1.87,21.8,2.64c12.81,1.34,22.43,7.93,29.73,18.16
		c3.87,5.42,7.63,10.95,10.96,16.7c13.35,23.07,26.52,46.24,39.73,69.39c4.63,8.1,9.29,16.18,13.78,24.36
		c6.46,11.77,16.35,19.09,29.05,22.87c5.11,1.52,10.2,3.09,15.36,4.42c10.79,2.79,18.95,9.04,25.75,17.81
		c8.22,10.61,15.15,21.86,20.36,34.23c2.78,6.6,2.7,12.86-0.29,19.28c-4.83,10.36-10.93,19.87-19.06,27.93
		c-12.29,12.19-24.58,24.39-37.27,36.16c-4.82,4.47-10.31,8.72-16.25,11.33c-8.91,3.92-15.78,10-21.72,17.18
		c-7.64,9.23-14.88,18.82-21.88,28.55c-17.51,24.34-34.79,48.85-52.18,73.28c-2.32,3.26-5.14,6.23-7.03,9.71
		c-8.06,14.82-21.75,25.16-30.8,39.21c-3.03,4.7-8.67,6.26-14.09,6.5c-7.96,0.35-15.95,0.09-23.33,0.09
		c-3.75,4.1-6.79,7.42-9.76,10.67c-1.55-0.98-3.11-1.39-3.47-2.28c-4.74-11.86-4.75-12.47-14.85-11.59
		c-10.18,0.88-19.99-1.1-29.65-3.04c-10.17-2.04-19.39-2.21-29.16,1.97c-10.59,4.53-22.21,3.92-33.54,3.67
		c-2.57-0.06-5.23-0.94-7.65-1.94c-4.3-1.78-8.44-3.93-13.53-6.34c-3.83,1.27-8.16,2.73-12.51,4.14c-8.42,2.74-16.71,3.2-25.54,0.99
		c-6.97-1.75-12.12-5.06-16.1-11.81c-3.73,2.03-7.05,3.93-10.46,5.66c-2.51,1.27-5.42-0.25-5.99-3.13
		c-0.77-3.89-1.37-7.81-2.04-11.72c1.02-0.6,2.61-1,2.9-1.84c0.27-0.79-0.83-2.06-1.33-3.11c-0.39,0.51-1.05,0.99-1.13,1.54
		C1095.8,3546.4,1095.93,3547.68,1095.93,3548.94z M1042.68,3018.42c5.8,6.16,11.31,11.89,16.68,17.75
		c5.55,6.06,9.1,12.97,9.35,21.46c0.41,13.96,1.59,27.91,1.59,41.87c0,20.74,2.03,41.09,7.09,61.28
		c9.08,36.2,14.84,72.99,18.99,110.09c3.11,27.77,7.03,55.48,11.52,83.07c4.93,30.22,10.53,60.34,16.66,90.33
		c2.5,12.24,1.92,23.81-2.08,35.35c-3.71,10.68-7.79,21.24-11.72,31.85c-0.79,2.14-2.9,4.25-0.4,6.18
		c4.59-3.01,8.81-6.37,13.52-8.74c8.95-4.5,17.29-9.66,25.23-15.9c8.27-6.49,17.06-12.77,27.7-15.11
		c6.01,1.88,11.67,3.84,17.45,5.37c3.17,0.84,6.79,1.93,9.78,1.18c10.87-2.7,22.06-4.48,31.13-12.36
		c10.55-9.17,21.63-17.74,32.73-26.25c32.83-25.18,62.6-53.81,92.84-81.9c5.35-4.97,10.12-10.59,14.82-16.19
		c2.54-3.03,4.73-6.49,6.41-10.06c1.07-2.27,1.79-5.34,1.19-7.67c-2.7-10.46-6.51-19.96-17.5-25.2
		c-18.02-8.59-35.58-18.16-53.42-27.14c-20.22-10.18-40.74-19.76-60.74-30.34c-22.36-11.82-44.5-24.08-66.28-36.93
		c-9.09-5.36-17.52-12.17-25.27-19.38c-6.39-5.93-13.07-11.25-20.16-16.24c-7.62-5.35-14.96-11.12-22.22-16.95
		c-7.87-6.32-10.72-14.76-10.28-24.78c0.41-9.46,2.83-18.42,5.76-27.27c3.77-11.38,7.04-22.81,8.93-34.73
		c6.13-38.79,12.02-77.63,21.04-115.89c0.72-3.04,0.09-6.4,0.09-11.17c-3.98,2.28-6.8,3.78-9.52,5.47
		c-18.09,11.2-33.67,26.18-53.16,35.3c-1.74,0.81-3.75,1.97-4.63,3.53c-4.48,7.93-12.49,11.78-19.09,17.29
		C1051.76,3009.73,1045.24,3012.35,1042.68,3018.42z M633.52,2177.13c8.47,9.07,15.73,16.81,22.95,24.6
		c3.36,3.63,7.11,5.13,12.36,4.82c11.95-0.71,23.96-0.91,35.93-0.62c17.54,0.41,34.36,3.94,49.37,13.75
		c7.24,4.73,14.51,9.41,21.78,14.09c2.1,1.35,4.26,2.6,6.49,3.95c3.55-5.97,2.53-11.35-0.21-15.89c-4.55-7.55-6.26-16.08-9.58-24.01
		c-3.84-9.18-6.87-19.27-12.93-26.82c-8.66-10.79-19.17-20.35-29.96-29.1c-13.83-11.22-29.31-14.05-46.44-6.18
		C663.43,2144.82,647.42,2158.07,633.52,2177.13z M705.72,2334.57c4.82,3.6,9.57,5.65,13.91,3.68c9.43-4.28,20.7-5.6,26.93-15.64
		c1.34-2.17,3.85-3.63,5.86-5.36c16.88-14.53,26.32-32.76,27.5-55.65c-7.48-6.67-17.11-5.61-26.2-6.08
		c-18.98-0.98-36.84,3.09-53.64,12.7c-2.15,11.72,3.63,22.33,3.71,33.57C703.88,2312.97,705.07,2324.13,705.72,2334.57z
		 M596.19,2129.66c-2.06-0.17-3.94-0.51-5.8-0.4c-1.23,0.07-2.6,0.56-3.57,1.3c-0.93,0.72-1.43,2.02-2.11,3.06
		c1.49,0.76,3.19,2.4,4.44,2.11C592.15,2135.04,594.9,2133.41,596.19,2129.66z"/>
</g>
</svg>
