<?xml version="1.0" encoding="utf-8"?>
<!-- Generator: Adobe Illustrator 24.1.1, SVG Export Plug-In . SVG Version: 6.00 Build 0)  -->
<svg version="1.1" id="Layer_1" xmlns="http://www.w3.org/2000/svg" xmlns:xlink="http://www.w3.org/1999/xlink" x="0px" y="0px"
	 width="177.11" height="292.76" viewBox="0 0 177.11 292.76" style="enable-background:new 0 0 177.11 292.76;" xml:space="preserve">
<style type="text/css">
	.st0{fill:#1A1A1A;}
</style>
<g>
	<path d="M62.29,263.31c-2.56,1.84-4.71,3.95-6.36,6.61c-0.56-0.19-0.9-0.62-1.11-1.14c-1.11-2.73-1.11-5.43,0.23-8.09
		c0.78-1.54,1.78-2.94,2.98-4.18c0.57-0.59,1.01-1.22,1.34-1.96c2.85-6.42,4.96-13.07,6.42-19.95c0.73-3.44,0.76-6.9,0.66-10.37
		c-0.04-1.58-0.4-3.11-1.08-4.6c-2.75-6.01-5.32-12.09-6.62-18.62c-0.03-0.15-0.14-0.28-0.24-0.49c-0.36,0.37-0.66,0.72-1.01,1.02
		c-0.89,0.76-1.36,0.75-2.11-0.15c-2.41-2.89-4.45-6.03-6.2-9.36c-2.49-4.74-3.98-9.78-4.58-15.1c-0.42-3.76-0.16-7.5,0.13-11.24
		c0.35-4.51,1.36-8.88,2.71-13.18c0.38-1.2-0.24-2.02-1.13-2.76c0.14-0.83,0.98-1.43,0.95-2.36c-0.83-0.32-1.28,0.63-2.08,0.56
		c-0.03-1.02,1.47-1.67,0.53-2.74c-0.1,0.07-0.2,0.13-0.29,0.21c-1.67,1.46-2.44,1.31-3.43-0.71c-0.41-0.82-0.79-1.65-1.14-2.49
		c-0.11-0.26-0.18-0.49-0.62-0.53c1.02-0.96,2.15-1.49,3.14-2.21c2.9-2.14,5.67-4.42,8.02-7.17c0.53-0.62,0.82-1.2,0.43-2.02
		c-0.5-1.08-0.43-2.12,0.02-3.27c1.59-4.08,2.94-8.25,4.99-12.14c0.3-0.56,0.6-1.13,0.94-1.67c0.97-1.53,2.03-2.93,4.18-2.61
		c0.55-2.1,0.93-4.13,1.12-6.18c0.49-5.2,1.29-10.34,2.82-15.35c0.05-0.16,0.08-0.3,0-0.46c-0.37,0.12-0.56,0.44-0.8,0.7
		c-4.38,4.74-9.29,8.9-14.3,12.94c-0.86,0.69-1.86,1.27-2.37,2.33c-0.1,0.2-0.27,0.4-0.15,0.67c0.47,0,0.58-0.53,1.06-0.62
		c0.29,1.01-0.36,1.81-0.59,2.79c0.36-0.15,0.66-0.27,1.2-0.49c-0.2,1.87-1.18,3.21-1.96,4.77c0.97-0.17,1.62-0.81,2.45-1.24
		c0.2,0.56-0.17,0.89-0.32,1.24c-0.73,1.66-1.67,3.18-3.19,4.25c-0.24,0.17-0.38,0.34-0.43,0.66c-0.19,1.19-0.79,2.21-1.35,3.27
		c-0.86,1.62-1.5,3.36-2.26,5.03c-0.75,1.64-1.51,3.29-2.38,4.86c-1.05,1.88-2,3.81-3.04,5.7c-1.75,3.18-3.73,6.23-5.38,9.46
		c-0.19,0.37-0.39,0.66-0.3,1.18c0.1,0.55-0.2,1.16-0.54,1.67c-0.37,0.56-0.73,1.13-1.11,1.72c2.01,3.59,0.8,6.94-0.85,10.22
		c-0.52,1.03-1.12,2.03-1.89,2.9c-0.3,0.34-0.58,0.73-1.09,0.51c-0.44-0.19-0.39-0.64-0.42-1.04c-0.19-2.19-0.86-4.27-1.52-6.34
		c-0.85,0.05-1.3,0.52-1.67,1.19c-1.04,1.88-2.12,3.73-2.63,5.86c-0.12,0.48-0.15,0.92-0.1,1.4c0.22,2.34,0.47,4.69,0.62,7.04
		c0.12,1.79,0.42,3.57,0.24,5.39c-0.09,0.13-0.24,0.18-0.4,0.18c-3.6-0.12-7.18,0.3-10.77,0.52c-1.1,0.07-1.11,0.04-1.22-1.05
		c-0.1-1.03,0.03-2.08-0.27-3.2c-2.66-0.59-5.36-1.2-8.19-1.83c0.67-5.27,2.51-10.21,3.45-15.48c1.64-0.03,3.21,0.63,4.96,0.73
		c-0.35-3.34,0.84-6.24,2.26-9.07c0.22-0.43,0.2-0.82,0.14-1.26c-0.29-1.93-0.12-3.81,0.7-5.61c0.08-0.17,0.25-0.31,0.12-0.54
		c-0.94-1.57,0.36-2.49,1.07-3.55c0.19-0.28,0.5-0.48,0.65-0.82c3.11-7.37,7.25-14.18,11.39-20.99c0.54-0.89,1.07-1.78,1.71-2.59
		c0.69-0.87,0.73-2.05,1.47-2.84c0.81-0.87,0.99-1.88,1.13-2.99c0.2-1.57,0.86-2.98,1.74-4.28c0.66-0.97,1.21-2.03,2.09-2.91
		c0.38,0.36,0.1,0.87,0.56,1.23c0.78-1.77,1.71-3.43,2.93-4.92c1.21-1.48,2.32-3.05,3.74-4.32c0.7,0.22,0.71,0.74,0.67,1.26
		c-0.12,1.82-0.26,3.63-0.32,5.49c4.14-7.84,9.04-15.13,15.42-21.47c-0.44-0.82-0.88-1.69-1.67-2.28c0.07-0.49,0.58-0.43,0.8-0.75
		c-1.08-0.52-2.3-0.82-3.07-1.9c0.68-0.55,1.54-0.68,2.3-1.23c-2.18-0.96-3.68-2.56-4.87-4.55c-0.4-0.67-1.06-1.28-1.96-1.57
		c1.86-0.16,3.71-0.08,5.67-0.57c-1.65-1.44-2.09-3.63-3.6-5.19c2.3,0.61,4.5-0.74,6.8-0.06c0.03-0.56-0.52-0.68-0.41-1.15
		c0.71-0.74,1.69-0.32,2.59-0.45c-0.04-0.41-0.4-0.65-0.55-1c-0.15-0.32-0.41-0.63-0.18-1c0.25-0.4,0.67-0.39,1.07-0.37
		c0.66,0.03,1.22,0.34,1.8,0.59c0.24,0.1,0.43,0.36,0.77,0.28c0.02-0.93-0.64-1.79-0.34-2.78c0.91,0.01,1.51,0.57,2.1,1.08
		c0.71,0.61,1.3,0.63,2.14,0.16c1.01-0.57,1.53-1.24,1.75-2.42c0.45-2.42,1.1-4.8,1.86-7.15c0.48-1.49,0.35-2.89-0.39-4.26
		c-0.28-0.52-0.58-1.05-0.77-1.61c-0.47-1.39-0.33-2.75,0.41-4.03c0.23-0.39,0.43-0.77,0.07-1.2c-1.8-2.13-2.46-4.74-2.85-7.37
		c-0.63-4.18-0.39-8.36,0.65-12.48c0.09-0.35,0.18-0.69,0.31-1.03c0.44-1.09,1.18-1.36,2.26-0.86c1.31,0.6,2.53,1.36,3.67,2.23
		c0.35,0.27,0.69,0.53,1.15,0.73c1.24-1.32,2.45-2.7,3.88-3.85c2.41-1.93,5.17-3.08,8.16-3.78c2.48-0.58,3.51-3.25,2.15-5.41
		c-0.16-0.26-0.52-0.41-0.47-0.79c0.01-0.07,0.07-0.14,0.13-0.26c0.99,0.65,2.14,0.96,3.08,1.7c1.65,1.29,2.69,2.84,2.24,5.12
		c2.77,0.71,5.38,1.64,8.02,2.45c2.43,0.75,5-1.08,5.7-2.56c0.07-0.15,0.12-0.29,0.29-0.34c0.77,2.07,0.76,3.26-0.06,5.41
		c0.64-0.02,1.14-0.37,1.64-0.6c0.6-0.27,1.08-0.1,1.64,0.13c0.3,1.76,0.41,3.55,0.27,5.35c-0.04,0.56,0.02,0.97,0.47,1.37
		c1.89,1.69,3.5,3.62,4.62,5.91c0.19,0.38,0.5,0.48,0.81,0.63c1.73,0.81,3.19,1.96,4.31,3.52c1.1,1.52,1.92,1.6,3.3,0.29
		c0.12-0.11,0.22-0.21,0.4-0.2c-0.11,2.55-1.7,4.18-4.49,4.53c0.52,1.67,0.9,3.37,0.94,5.12c0.07,2.97-0.81,5.74-1.85,8.46
		c-0.38,0.99-0.27,1.86,0.22,2.74c0.9,1.64,1.75,1.89,3.38,0.98c0.1,2.03-1.33,3.61-3.93,4.31c0.14,0.48,0.61,0.44,0.93,0.58
		c0.8,0.35,1.66,0.55,2.49,0.81c0.46,0.14,0.82,0.16,1.22-0.15c0.33-0.26,0.74-0.6,1.19-0.3c0.46,0.31,0.16,0.78,0.12,1.27
		c1.05-0.24,2.06-0.65,3.09-0.32c0.35,0.53,0.01,0.87-0.31,1.31c1.72-0.09,3.39-0.53,5,0.3c-0.26,0.64-0.93,0.78-1.42,1.38
		c1.33,0.05,2.54,0.06,3.63,0.6c-0.01,0.59-0.7,0.53-0.86,1.08c1.57,0.14,3.12-0.13,4.89-0.03c-1.38,1.23-2.24,2.57-3.57,3.54
		c0.51,0.19,0.71-0.31,1.24-0.23c-0.22,2.08-1.69,3.38-3.03,4.85c0.94,0.06,1.81-0.17,2.72,0.13c-0.2,1.04-1.06,1.51-1.7,2.18
		c-0.63,0.66-1.19,1.4-1.8,2.12c0.08,0.24,0.55,0.27,0.27,0.77c-0.66,1.19-1.56,2.11-2.75,2.88c0.15,0.32,0.6,0.24,0.73,0.61
		c-0.22,0.8-1.2,0.9-1.67,1.6c4.16,4,7,9.02,10.41,13.72c0.44-0.99-0.36-1.95,0.03-2.94c0.56,0.06,0.9,0.38,1.23,0.72
		c1.67,1.74,2.83,3.76,3.12,6.19c0.08,0.7,0.37,1.18,0.82,1.65c1.52,1.59,3.03,3.17,4.28,5c2.76,4.04,4.31,8.59,5.51,13.27
		c0.22,0.86,0.74,1.58,0.89,2.45c0.08,0.44,0.22,0.91-0.01,1.28c-0.49,0.83-0.38,1.68-0.31,2.56c0.1,1.32,0.07,2.63-0.28,3.92
		c-0.17,0.63-0.01,1.27,0.05,1.9c0.25,2.62,0.23,5.22-1.13,7.57c-1.66,2.86-4.32,4.51-7.35,5.64c-0.11,0.04-0.24,0.05-0.36,0.04
		c-0.7-0.01-1.6,0.34-2.03-0.25c-0.43-0.59,0.32-1.22,0.61-1.79c0.77-1.53,1.62-3.02,1.93-4.81c-1.27,0.22-2.52,0.31-3.73-0.14
		c-1.16-0.43-2.19-1.11-3.23-1.77c-1.02,1.26-2.1,2.43-3.61,3.32c0.74,0.78,1.38,1.53,2.09,2.21c2.26,2.15,4.5,4.32,7.04,6.14
		c0.56,0.4,0.69,0.79,0.37,1.41c-0.22,0.43-0.45,0.84-0.75,1.22c-1.25,1.54-2.06,1.61-3.53,0.25c-0.64,0.96,0.24,1.5,0.62,2.17
		c-0.6,0.53-1.03,0.16-1.5-0.15c-0.42-0.28-0.88-0.52-1.56-0.59c0.07,1.11,0.1,2.13,0.54,3.1c-0.28,0.45-0.74,0.12-1.13,0.29
		c0.22,1.47-1.3,1.23-1.97,2.01c0.68,3.44,1.03,7.01,1.07,10.58c0.06,6.68-0.54,13.29-2.22,19.79c-0.97,3.74-1.94,7.47-3.64,10.96
		c-1.83,3.77-3.84,7.43-6.13,10.95c-1.14,1.75-2.05,3.62-2.46,5.76c-0.46,2.42-1.53,4.68-2.56,6.93c-1.37,3.01-2.68,6.04-4.06,9.04
		c-0.54,1.17-0.62,2.41-0.68,3.62c-0.18,3.95-0.15,7.91,0.33,11.85c0.55,4.52,1.63,8.92,2.74,13.32c1.18,4.66,2.51,9.28,4.06,13.84
		c0.25,0.74,0.59,1.32,1.27,1.78c1.91,1.29,2.73,3.28,3.03,5.47c0.35,2.52-0.16,4.92-1.26,7.2c-0.29,0.6-0.69,1.07-1.54,1.17
		c-0.62-1.27-0.83-2.76-1.76-3.93c-0.9-1.13-1.84-2.21-3.04-3.15c-1.71,1.02-3.6,1.55-5.74,1.42c-0.13,4.32-1.14,8.26-4.45,11.27
		c-1-0.65-4.87-9.06-5.08-11.04c-0.99-0.17-2.01-0.27-3-0.58c-0.95-0.3-1.81-0.77-2.66-1.38c-1.58,2.89-3.22,5.66-3.8,8.93
		c-1.73-0.69-2.59-2.03-3.28-3.4c-1.51-3-1.82-6.16-0.71-9.39c0.16-0.47,0.2-0.91,0.17-1.4c-0.15-2.8,0.08-5.59,0.33-8.38
		c0.77-8.76,2.9-17.25,5.16-25.72c0.38-1.4,0.52-2.8-0.14-4.19c-0.37-0.79-0.43-1.7,0.01-2.43c1.19-2,0.88-4.03,0.44-6.14
		c-1.19-5.65-1.08-11.25,0.84-16.75c0.22-0.64,0.43-1.3,0.79-1.87c0.53-0.85,0.53-1.71,0.39-2.64c-0.7-4.73-1.36-9.47-1.86-14.22
		c-0.51-4.85-0.65-9.71-0.47-14.58c0.15-4,0.95-7.91,1.78-11.8c0.06-0.28,0.09-0.54,0.1-0.94c-1.28,0.5-2.41,1.16-3.73,1.13
		c-0.05,0.18-0.11,0.3-0.11,0.41c0.19,4.23-0.55,8.35-1.48,12.44c-1.48,6.43-2.9,12.88-4.75,19.22c-0.45,1.52-0.95,3.04-1.47,4.54
		c-0.66,1.9-1,3.73-0.52,5.8c0.68,2.94,0.42,5.95-0.29,8.89c-0.16,0.66-0.23,1.34-0.45,1.98c-0.42,1.18-0.48,2.28,0.16,3.43
		c0.36,0.65,0.55,1.49,0.25,2.21c-0.71,1.71-0.18,3.39,0,5.07c0.3,2.73,0.69,5.46,0.89,8.2c0.18,2.43,0.47,4.84,0.73,7.26
		c0.29,2.66,0.63,5.31,0.88,7.97c0.26,2.74,0.67,5.43,1.28,8.12c0.76,3.34-0.17,6.47-1.91,9.36c-0.4,0.67-1.08,0.72-1.7,0.12
		c-1.13-1.09-1.92-2.44-2.68-3.8c-0.35-0.62-0.64-1.28-1-2c-2.03,0.52-4.09,1.13-6.25,0.99c-0.81,1.94-1.58,3.85-2.39,5.75
		c-0.19,0.44-0.43,0.86-0.72,1.24c-0.34,0.46-0.67,0.5-1.18,0.07c-2.26-1.96-3.78-4.29-4.06-7.33c-0.04-0.42-0.24-0.65-0.68-0.68
		C64.87,265.16,63.58,264.28,62.29,263.31z M125.43,121.7c1.35-1.92,2.8-3.6,4.68-4.88c-0.44-0.81-0.27-1.44,0.36-1.97
		c0.19-0.16,0.28-0.34,0.33-0.6c0.51-2.96,0.91-5.93,0.74-8.95c-0.04-0.74-0.28-1.23-0.85-1.72c-1.08-0.94-2.12-1.94-2.99-3.11
		c-0.39-0.52-0.39-0.88,0.4-1.02c-2.74-2.22-5.41-4.36-7.81-7.11c0.47,3.38,0.39,6.54,0.42,9.69c0.03,2.92,0.11,5.88,0.85,8.68
		C122.53,114.39,123.63,118.06,125.43,121.7z M131.68,132.13c0.79-1.18,1.47-6.55,0.98-7.64c-1.72,0.48-2.97,1.58-4.08,2.95
		C129.53,129.09,130.57,130.61,131.68,132.13z"/>
	<path d="M9.29,196.31c3.2-1.18,6.41-1.7,9.55-2.54c0.88-0.24,1.39-0.01,1.9,0.72c2.07,2.94,3.25,6.27,4.45,9.6
		c0.39,1.08,0.7,2.19,1.28,3.2c0.33,0.57,0.24,0.98-0.49,1.27c-2.58,1.04-5.25,1.84-7.86,2.8c-0.59,0.22-1.18,0.41-1.92,0.67
		C14.42,206.58,11.67,201.55,9.29,196.31z"/>
</g>
<g>
	<path class="st0" d="M88.17,1.37c0.62,0.36,0.59-0.19,0.85-0.19c0.51,0.4,1.02,0.8,1.51,1.21c1.32,1.09,2.17,2.46,1.73,4.26
		c-0.13,0.54,0.09,0.65,0.46,0.73c2.42,0.48,4.72,1.36,7.06,2.14c2.2,0.73,4.18,0.24,5.88-1.35c0.28-0.27,0.49-0.64,0.9-0.75
		c0.84,2.37-0.27,4.73-2.58,5.76c-1.47,0.65-2.74,1.66-4.05,2.58c-1.54,1.09-3.07,2.2-4.41,3.53c-1.48,1.47-2.72,3.16-3.76,4.98
		c-0.42,0.73-0.81,1.28-1.78,1.14c-0.55-0.08-0.95,0.1-1.26,0.75c-0.38,0.78-1.41,0.9-2.12,1.38c-1.69,1.14-3.37,2.29-4.93,3.62
		c-1.74,1.48-3.32,3.14-5.26,4.39c-0.46,0.29-0.81,0.75-1.21,1.12c-0.51-0.13-0.67-0.59-1.01-0.8c0.02-0.61,0.48-0.94,0.68-1.35
		c-0.34-0.79-0.85-0.39-1.14-0.12c-0.58,0.54-0.97,0.38-1.38-0.15c-1.38-1.79-2.46-3.8-2.69-6.03c-0.31-2.99-0.11-5.98,1.22-8.81
		c1.41-3.01,3.27-5.67,5.75-7.88c2.19-1.96,4.65-3.41,7.52-4.19c1.06-0.29,2.24-0.42,3.13-1.22c0.57-0.51,1.04-1.03,1.06-1.89
		C88.35,3.35,88.85,2.48,88.17,1.37z"/>
	<path class="st0" d="M99.43,61.57c-1.13,0.51-2.17,1.22-3.39,1.57c0.34,0.65,1.09,0.5,1.53,0.92c-0.81,1.01-1.98,1.46-3.03,2.12
		c-0.42-0.12-0.09-0.73-0.59-0.84c-0.68,0.23-0.79,1.07-1.36,1.47c-0.63-0.5-1.05-0.19-2.02,1.46c-0.2-0.4-0.39-0.78-0.59-1.16
		c-0.11-0.22-0.3-0.51-0.52-0.39c-0.7,0.39-0.91-0.12-1.16-0.56c-0.29-0.51-0.76-0.61-1.24-0.68c-0.2,0.25,0.23,0.48-0.17,0.7
		c-0.7-0.28-1.05-1.23-1.97-1.41c0.98,0,1.96,0,2.94,0c-3.44-0.24-6.82-0.66-10.18-1.58c-0.05-0.23,0.35-0.02,0.37-0.25
		c-0.04-0.03-0.09-0.09-0.14-0.09c-1.7-0.09-3.39-0.21-5.02-0.73c-1.59-0.52-3.04-1.27-4.13-2.61c-0.27-0.33-0.54-0.64-0.6-1.19
		c1.98,0.91,3.92,1.49,6.06,1.43c1.53-0.05,2.96-0.43,4.31-1.03c3.25-1.46,6.13-3.47,8.74-5.93c1.44-1.36,2.71-2.9,4.18-4.2
		c2.35-2.08,4.61-4.27,6.81-6.49c1.75-1.76,3.6-3.47,5.09-5.5c0.04-0.05,0.02-0.15,0.03-0.3c-0.38,0.01-0.48,0.5-0.91,0.46
		c0.04-0.76-0.14-1.53,0.15-2.3c0.37-0.99,0.81-1.17,1.58-0.44c1.33,1.25,1.66,2.49,1.19,4.22c-0.25,0.95-0.78,1.76-1.33,2.67
		c0.99-0.39,1.37-0.18,1.49,0.94c0.16,1.51,0.02,2.98-0.9,4.31c-0.47,0.68-1,1.36-1.23,2.23c0.54-0.08,0.39-0.75,0.93-0.79
		c-0.42,1.58-0.83,3.14-1.24,4.7c0.68-0.71,0.61-1.71,1.26-2.45c-0.19,1.2-0.24,2.45-0.61,3.59c-0.59,1.81-1.28,3.58-2.23,5.26
		c-0.61,1.08-1.46,1.93-2.16,2.92L99.43,61.57z"/>
	<path class="st0" d="M39.76,113.12c-0.77,0.25-0.94,1.01-1.2,1.56c-1.3,2.77-2.95,5.34-4.33,8.07c-1.05,2.06-2.11,4.13-3.32,6.09
		c-0.79,1.29-0.71,2.52-0.33,3.83c0.51,1.74,1.16,3.44,1.66,5.17c0.25,0.84,0.83,1.78,0.38,2.78c-0.04,0.1-0.05,0.28,0.01,0.35
		c1.2,1.41-0.28,2.33-0.64,3.44c-0.09,0.28-0.38,0.54-0.38,0.91c-0.74-0.34-0.92-1.07-1.41-1.53c-1.41-1.33-2.99-2.43-4.66-3.39
		c-0.92-0.53-1.87-1.02-2.84-1.42c-2.14-0.88-4.27-1.8-6.5-2.4c-0.85-0.23-1.75-0.15-2.74-0.02c0.15-1.27,0.84-2.19,1.31-3.17
		c2.12-4.42,4.52-8.69,7.02-12.91c1.58-2.66,3.18-5.31,4.68-8.01c0.91-1.65,2.29-2.03,3.88-2.11c1.75-0.09,3.44,0.14,5.11,0.86
		C36.89,111.85,38.45,112.16,39.76,113.12z M21.33,125.95c0.65-0.34,1.06-0.89,1.37-1.51c0.22-0.44,0.09-0.82-0.29-1.15
		c-0.39-0.35-0.67-0.2-1.02,0.09c-0.54,0.45-0.83,1.01-0.99,1.72C20.69,125.38,20.93,125.74,21.33,125.95z M27.38,115.81
		c0.44-0.47,0.08-0.81-0.3-1c-0.54-0.26-0.92,0.13-1.21,0.53c-0.37,0.53-0.16,1.21-0.38,1.8c-0.06,0.15,0.22,0.46,0.6,0.34
		C26.72,117.28,27.3,116.58,27.38,115.81z M24.88,119.05c-0.87,0.02-1.74,0.58-1.76,1.25c-0.01,0.38-0.04,0.97,0.53,1.13
		c0.5,0.14,0.83-0.08,1.07-0.57C25.01,120.3,25.05,119.74,24.88,119.05z"/>
	<path class="st0" d="M107.93,31.58c0.84,1.04,1.7,2.07,2.52,3.12c1.03,1.32,1.5,2.87,1.86,4.47c-0.32,0.09-0.4-0.29-0.76-0.19
		c1.69,2.46,2.14,5.19,1.92,8.07c-0.46,0.08-0.54-0.56-1.12-0.51c2.32,3.14,2.17,6.71,2.1,10.33c-0.36-0.11-0.18-0.7-0.78-0.66
		c0.86,4.17,1.5,8.34-0.28,12.61c-0.25-0.81,0.04-1.5-0.33-2.34c-0.6,1.56-0.8,3.11-2.04,4.2c-0.31-0.51-0.34-1.08-0.57-1.8
		c-0.77,1.25-1,2.64-2.11,3.48c-0.35-0.55,0.5-1.06-0.08-1.62c-0.5,0.3-0.26,1.15-0.94,1.36c-0.16-0.79,0.53-1.46,0.35-2.32
		c-1.69,0.58-2.19,2.55-3.94,3.13c0.22-1.04,0.17-2.06,0.28-3.06c0.03-0.24,0.12-0.42-0.07-0.62c-0.29-0.31-0.49,0.01-0.74,0.07
		c-0.21,0.05-0.37,0.19-0.45,0.36c-0.51,1.04-1.41,1.52-2.49,1.75c-0.18-1.02,0.95-2,0.06-3.13c-0.96,0.27-1.36,1.4-2.43,1.64
		c0.41-1.25,1.71-2.23,1.14-3.85c-0.64,0.42-1.15,0.75-1.69,1.11c-0.08-0.53,0.28-0.77,0.45-1.11c-0.65-0.43-1.11,0.33-1.7,0.32
		c0.3-1.01,1.19-1.79,3.02-2.65c-0.73-0.51-1.7,0.18-2.35-0.5c0.92-0.54,2.06-0.67,2.65-1.68L99.4,61.6
		c0.76,0.04,0.88-0.87,1.59-1.05c0.24,1.09-0.51,2.15-0.03,3.25c-0.01-3.22,1.6-5.9,2.85-8.72c-0.5,2.75,0.34,5.36,0.7,8.02
		c0.28-1.14-0.11-2.24-0.23-3.34c-0.14-1.31-0.18-2.6,0.01-3.9c0.03-0.19,0.12-0.39,0.11-0.58c-0.15-2.11,0.36-4.19,0.26-6.31
		c-0.07-1.31,0.31-2.52,0.83-3.75c0.66-1.52,0.59-3.16-0.02-4.72c-0.18-0.45-0.42-0.82-0.09-1.29c0.79-1.11,0.72-2.49,0.35-3.56
		c-0.61-1.77,0.02-3.23,0.5-4.79c0.02-0.07,0.06-0.14,0.07-0.22c0.01-0.03-0.03-0.07-0.04-0.11c-0.26-0.07-0.32,0.3-0.64,0.22
		c0.17-0.71,0.64-0.45,1.13-0.5c0.43-0.04,0.95,0.07,1.4-0.27c0.28,0.83-0.41,0.87-0.86,1.01c0.09,0.46,0.3,0.64,0.69,0.59
		L107.93,31.58z"/>
	<path class="st0" d="M112.16,87.15c0.94-0.3,1.93,0.4,2.69-0.42c0.54,0.77,1.02,2.59,1.12,3.99c0.26,0.02,0.14-0.23,0.28-0.36
		c0.53,0.48,0.56,1.19,0.76,1.8c1.39,4.24,2.34,8.59,3.21,12.96c0.39,1.96,0.55,3.95,0.93,5.92c0.4,2.09,1.24,4.02,1.85,6.04
		c0.48,1.58,1.07,3.12,1.83,4.57c0.46,0.87,0.09,1.64-0.07,2.41c-0.14,0.72-0.18,1.45-0.21,2.25c-2.47-2.55-4.79-5.09-8.16-6.64
		c-1.46-2.88-3.1-5.9-5.17-8.69c-1.21-1.63-2.17-3.44-3.21-5.19c-0.78-1.32-1.19-2.77-1.42-4.28c-0.06-0.39,0.03-0.75,0.17-1.15
		c0.76-2.17,1.73-4.27,2.12-6.57c0.07-0.4-0.07-0.67-0.16-1.08C110.41,91.23,111.49,89.3,112.16,87.15z M116.22,91.39
		c0.82,5.11,0.97,10.23,1,15.37C117.44,101.58,117.41,96.43,116.22,91.39z"/>
	<path class="st0" d="M55.17,200.13c-0.78,0.01-0.89-0.76-1.2-1.18c-2.25-3.03-4.08-6.3-5.58-9.77c-1.16-2.67-2.06-5.39-2.67-8.23
		c-0.83-3.83-1.03-7.7-0.81-11.58c0.25-4.53,1.81-8.72,3.95-12.68c1.16-2.14,2.5-4.17,4.21-5.94c0.68-0.71,1.2-1.57,2.16-2.25
		c-0.65,1.73-1.13,3.35-1.5,5.02c-0.45,2.03-0.69,4.09-0.97,6.15c-0.56,4.16-0.46,8.33-0.43,12.51c0.03,4.54,0.6,9.03,1.72,13.43
		c0.87,3.41,1.94,6.75,3.43,9.95c0.32,0.7,0.47,1.4,0.13,2.14C57.01,198.72,55.86,199.19,55.17,200.13z"/>
	<path class="st0" d="M87.26,123.63c-0.95-2.01-2.07-3.9-3.13-5.81c-0.26-0.46-0.26-0.8,0.01-1.26c1.07-1.82,2.08-3.68,3.02-5.58
		c0.21-0.43,0.12-0.66-0.07-1.06c-0.86-1.89-2.13-3.55-3.13-5.67c1.58,0.9,2.66,2.14,4.16,2.97c1.01-3.41,2.05-6.74,3.42-10.28
		c1.49,3.57,2.51,7,3.55,10.52c1.23-1.09,2.65-1.78,3.75-2.91c0.06,0.05,0.12,0.09,0.19,0.14c-1.08,1.97-2.16,3.95-3.23,5.91
		c0.86,2.07,2.18,3.89,3.14,5.9c0.15,0.32,0.24,0.54,0.03,0.86c-0.99,1.51-1.59,3.24-2.7,4.68c-0.87,1.12-0.28,2.11,0.26,3.13
		c0.78,1.46,1.7,2.84,2.45,4.36c-1.51-0.69-2.67-1.84-3.99-2.94c-0.51,1.67-0.99,3.25-1.48,4.87c-0.69-0.05-1.32-0.41-2-0.16
		c-0.61,0.22-1.25,0.37-1.89,0.55c-0.54-1.62-1.09-3.25-1.66-4.95c-0.69,0.31-1.14,0.94-1.77,1.31c-0.2,0.12-0.34,0.31-0.58,0.41
		c-0.26,0.1-0.46,0.31-0.73,0.02c-0.22-0.24-0.1-0.41,0.02-0.63C85.69,126.57,86.46,125.12,87.26,123.63z"/>
	<path class="st0" d="M70.52,85.8c-0.43,1.06-1.56,0.94-2.12,1.7c1.12,0.75,2.39,0.94,3.68,1.08c0.18,0.07,0.12,0.26,0.16,0.4
		c0.26,0.93,1.36,1.47,1.37,2.39c0.01,0.93,0.1,1.81,0.27,2.72c0.37,1.94,1.15,3.73,1.97,5.5c0.7,1.5,0.59,2.82-0.28,4.23
		c-1.07,1.73-2.21,3.41-3.33,5.11c-1.24,1.9-2.34,3.88-3.52,5.86c-1.28-2.54-3.76-3.29-6.3-4.08c0.51-2.41,0.98-4.84,1.21-7.33
		c0.23-2.41,0.63-4.81,0.99-7.22c0.13-0.87-0.24-1.91,0.2-2.72c0.78-1.47,0.92-3.13,1.63-4.61c0.29-0.6,0.33-1.27,0.66-1.87
		c0.29-0.53,0.7-0.76,1.2-0.81C69.02,86.06,69.73,86.17,70.52,85.8z"/>
	<path class="st0" d="M107.97,31.61c0.8-0.76,0.84-1.71,0.69-2.83c-0.46,0.36-0.59,0.94-1.14,1.07c-0.36,0.09-0.7,0.2-1-0.08
		c-0.35-0.32-0.13-0.62,0.02-0.96c0.51-1.15,1.15-2.23,1.59-3.41c0.73-1.95,1.29-3.93,1.56-6c0.05-0.37,0.19-0.74,0.31-1.15
		c2.66,2.16,4.57,4.81,5.71,8.04c0.48-0.5-0.3-0.87,0.08-1.3c2.04,0.86,3.6,2.27,4.74,4.17c0.43,0.72-0.02,2.26-0.79,2.69
		c-0.27,0.15-0.57,0.24-0.96,0.4c0.75,1.56,1,3.26,1.17,4.95c0.11,1.12-0.05,2.3-0.27,3.41c-0.42,2.15-1.03,4.25-1.83,6.29
		c-0.34,0.86,0.15,1.46,0.45,2.14c0.78,1.76,0.46,3.17-1.01,4.39c-0.32,0.27-0.57,0.35-0.95,0.12c-0.73-0.44-1.51-0.74-1.43-1.89
		c0.05-0.66-0.21-1.41-0.48-2.03c-0.5-1.15-0.43-2.32-0.42-3.5c0-1.83-0.31-3.6-1.03-5.28c-0.12-0.27-0.17-0.52-0.17-0.8
		c0-2.41-1.21-4.35-2.52-6.21c-0.42-0.6-0.83-1.25-1.44-1.73c-0.28-0.22-0.51-0.5-0.9-0.52L107.97,31.61z"/>
	<path class="st0" d="M60.01,126.17c0.31,0.09,0.62-0.27,0.94,0c1.36,2.15,3.18,3.87,5.09,5.53c1.57,1.36,3.11,2.76,5.03,3.63
		c0.11,0.2,0.22,0.39,0.35,0.61c-5.13,1.14-9.66,3.49-13.86,6.54c-0.26,0.19-0.61,0.39-0.61,0.81c-0.51-0.17-0.7,0.27-0.98,0.52
		c-2.17,1.91-3.89,4.23-5.84,6.35c-0.26,0.28-0.77,0.72-0.1,1.18c1.4-2.09,2.89-4.11,4.72-5.85c0.75-0.71,1.53-1.4,2.16-2.23
		c1.02-0.44,1.76-1.27,2.69-1.85c3.67-2.3,7.54-4.13,11.8-5.06c0.32-0.07,0.61-0.09,0.91,0.1c0.49,0.3,1,0.55,1.53,0.84
		c-13.4,4.06-23.22,12.01-28.21,25.58c-0.01-1.01,0.37-1.81,0.47-2.64c0.12-0.93,0.34-1.85,0.78-2.69c0.41-0.79,0.7-1.61,1.1-2.54
		c-0.58,0.13-0.48,0.7-1.03,0.92c0.68-1.51,0.83-3.02,1.52-4.42c0.89-1.82,1.41-3.82,2.43-5.59c0.96-1.66,1.87-3.35,3.05-4.87
		c0.34-0.44,0.66-1,0.48-1.5c-0.54-1.53-0.01-2.68,1.1-3.68c0.08-0.08,0.13-0.19,0.19-0.29c0,0-0.03,0.03-0.03,0.03
		c0.25-0.12,0.58-0.29,0.43-0.58c-0.31-0.6-0.09-1.23-0.2-1.83c0.17-0.11,0.33-0.22,0.5-0.33c1.45-0.91,2.52-1.97,2.2-3.94
		C58.39,127.74,59.11,126.86,60.01,126.17z"/>
	<path class="st0" d="M136.54,97.86c1.96-0.6,3.9-0.56,5.82,0.16c0.56,0.21,0.67,0.17,0.99-0.21c0.42,0.89,1.09,1.57,1.76,2.23
		c3.1,3.08,5.19,6.78,6.71,10.84c0.79,2.12,1.56,4.24,2.03,6.69c-0.73-0.48-1.22-1.03-1.77-1.46c-1.08-0.85-2.24-1.56-3.47-2.11
		c-0.71-0.32-1.49-0.77-2.35-0.56c-0.41,0.1-0.1-0.78-0.65-0.44c-0.26,0.16-0.62,0.46-0.61-0.21c0-0.01-0.24-0.06-0.34-0.02
		c-0.36,0.16-0.75,0.5-0.87-0.23c0-0.02-0.17-0.06-0.23-0.03c-1.16,0.57-2.21-0.35-3.33-0.25c-0.4,0.04-0.85-0.15-1.15,0.36
		c-0.14,0.25-0.52,0.1-0.79,0.12c-0.75,0.06-1.57-0.7-2.24,0.21c-0.73-0.47-1.23,0.29-1.87,0.35c-1.12,0.1-1.9,0.94-2.97,1.37
		c-0.6-0.72,0.08-1.4,0.17-2.03c0.08-0.52,0.04-0.86-0.3-1.33c0.75,0.52,1.17-0.07,1.58-0.37c2.05-1.52,4.15-2.95,6.4-4.17
		c1.08-0.58,1.24-1.03,0.96-2.21c-0.54-2.29-1.42-4.46-2.45-6.65c-0.28-0.14-0.7,0.02-1.08-0.09L136.54,97.86z"/>
	<path class="st0" d="M60.01,126.17c-0.9,0.69-1.62,1.57-1.42,2.73c0.33,1.96-0.74,3.03-2.2,3.94c-0.17,0.11-0.33,0.22-0.5,0.33
		c-0.71-0.41-1.47-0.74-2.15-1.21c-1.53-1.06-2.13-2.59-1.49-4.38c1.3-3.64,2.65-7.26,4.26-10.78c0.79-1.72,1.62-3.38,2.9-4.8
		c0.82-0.91,1.91-1.17,2.91-0.86c1.43,0.45,2.94,0.8,4.2,1.74c0.45,0.33,0.88,0.68,1.25,1.08c0.79,0.84,0.77,1.33,0.4,2.41
		c-0.51,1.46-1.18,2.65-2.88,2.89c-0.37,0.05-0.67,0.41-1.08,0.43c-0.88-4.44-0.88-4.44-2.71-4.99c1.7,1.06,2.35,2.43,2.32,4.14
		c-0.01,0.64-0.19,1.22-0.68,1.7c-1.24,1.24-2.24,2.61-2.53,4.41C60.55,125.39,60.32,125.81,60.01,126.17z"/>
	<path class="st0" d="M71.06,135.33c-1.92-0.87-3.45-2.27-5.03-3.63c-1.91-1.65-3.73-3.37-5.09-5.53c0.06-3.36,3.22-7.04,5.85-6.87
		c0.78,1.58,2.3,2.43,3.49,3.66c-1.94,0.86-3.08,2.38-3.51,4.38c-0.28,1.31-0.06,2.68,0.73,3.74c2.08,2.77,5.07,3.95,8.86,1.14
		c-0.47,3.2,0.75,5.48,3.63,6.58c1.88,0.72,3.51,0.77,6.61-2.02c-0.18,1.96,0.64,3.46,1.95,4.61c1.08,0.95,2.48,1.44,3.92,1.33
		c1.73-0.14,3.2-0.88,4.26-2.4c1-1.44,1.22-2.98,0.9-4.68c1.2,0.31,2.29,0.6,3.5,0.91c-0.2-0.88,0.08-1.72-0.32-2.52
		c0.81,1.37,1.4,2.69,0.98,4.39c-0.57,2.31-0.89,4.69-1.22,7.05c-0.13,0.95-1.05,1.22-1.29,2.05c-0.38-0.46-0.07-0.85,0.09-1.03
		c1-1.15,0.87-2.61,1.17-3.94c0.24-1.07,0.41-2.16,0.57-3.25c0.09-0.62-0.07-0.94-0.43-1.3c0.22,2.52-0.8,4.82-1.13,7.27
		c-1.07,0.35-2.03-0.16-2.98-0.41c-5.33-1.4-10.57-3.06-15.7-5.1c-2.7-1.07-5.35-2.22-7.95-3.5
		C72.29,135.97,71.82,135.36,71.06,135.33z"/>
	<path class="st0" d="M20.58,176.38c-3.86-0.14-7.64,0.02-11.32,0.61c-0.28-0.13-0.38-0.3-0.37-0.51c0.09-1.95-0.06-3.9-0.27-5.83
		c-0.24-2.19-0.33-4.39-0.65-6.58c-0.18-1.21-0.03-2.46-0.03-3.67c0.44-0.15,0.78-0.17,1.18,0.02c0.08,0.98-0.83,1.65-0.8,2.66
		c0.43,0.42,0.52-0.32,0.83-0.37c0.74,0.5,1.32,1.1,1.7,1.93c0.33,0.71,0.98,0.62,1.42-0.11c0.67-1.12,1.17-2.31,1.62-3.52
		c0.18-0.48,0.48-0.9,0.58-1.38c1.47,0,2.88,0,4.49,0C19.75,165.08,19.93,170.66,20.58,176.38z M14.17,166.06
		c-0.91,0.47-1.23,1.29-1.79,1.9c-0.52,0.57-0.55,1.57-0.12,1.97c0.55,0.51,1.15,0.43,1.88-0.26c-0.19,0.56-0.28,0.83-0.38,1.15
		c0.29-0.02,0.57,0.12,0.82-0.1c0.14-0.26-0.07-0.5-0.04-0.82c0.66,0.36,1.31,0.24,1.66-0.32c0.36-0.59,0.06-1.23-0.38-1.73
		C15.27,167.21,14.69,166.61,14.17,166.06z M19.11,174.24c-0.18-0.42-0.4-0.76-0.9-0.31c0.36,0.62,0.55,1.35,1.12,1.94
		c0.21-0.74,0.79-1.32,0.48-2.09C19.42,173.67,19.47,174.07,19.11,174.24z M19.2,173.24c0.86-0.74,0.61-1.32-0.15-1.83
		C17.92,172.41,17.93,172.68,19.2,173.24z M10.06,164.51c-0.27-0.32-0.56-0.67-1.06-0.95c-0.08,0.49-0.55,0.69-0.61,1.22
		c0.36,0.2,0.7,0.42,1,0.81C9.32,165.02,10.02,165.05,10.06,164.51z"/>
	<path class="st0" d="M102.14,134.83c0.84,0.31,1.22,1.21,2,1.6c0.5,0.25,0.96,0.53,1.51,0.55c2.48,0.1,4.9,0.64,7.35,0.96
		c0.48,0.06,0.61,0.28,0.78,0.71c0.85,2.13,0.78,4.3,0.34,6.49c-0.15,0.76-0.34,1.52-0.58,2.26c-0.15,0.48-0.39,0.61-0.84,0.64
		c-2.31,0.12-4.58-0.15-6.83-0.6c-0.88-0.17-1.78-0.24-2.63-0.57c-0.28-0.11-0.58,0.02-0.89,0.18c-0.92,0.47-1.89,0.83-3.07,1.33
		c0.38-0.55,0.54-1,0.86-1.22c0.9-0.62,0.96-1.58,1.12-2.49c0.42-2.47,0.7-4.96,1.19-7.42c0.07-0.34,0-0.69-0.1-1.05
		C102.22,135.79,101.79,135.39,102.14,134.83z"/>
	<path class="st0" d="M11.98,200.58c-0.5-0.57-0.78-1.25-1-1.96c0.99,0.73,0.99,0.73,1.71-0.21c-0.14-0.27-0.3-0.54-0.41-0.82
		c-0.42-1.02-0.71-1.1-1.74-0.44c0.12,0.5,0.6,0.92,0.48,1.51c-0.52-0.5-0.64-1.21-1.07-1.83c1.03-0.83,2.22-1,3.32-1.22
		c1.92-0.39,3.83-0.78,5.69-1.38c0.73-0.24,1.07,0.07,1.45,0.62c1.47,2.11,2.43,4.46,3.36,6.83c0.8,2.03,1.31,4.18,2.45,6.22
		c-3.16,1.4-6.49,2.21-9.69,3.6c-0.35-0.73-0.53-1.44-0.74-2.13c-0.85-2.7-2.12-5.22-3.38-7.74c-0.18-0.35-0.4-0.68-0.45-1.08
		c0.38,0.17,0.69,0.49,1.12,0.52c0.47-0.91,0.08-1.35-0.74-1.57C12.13,199.81,11.93,200.15,11.98,200.58z M14.32,196.98
		c-0.58,0.47-0.32,1.13-0.63,1.55c0.48,0.55,0.9,1,1.55,1.09C16.03,198.28,16,198.2,14.32,196.98z M17.44,204.82
		c0.34-1.99,0.25-2.16-1.26-2.52c-0.18,0.5-0.03,1.07-0.39,1.55C16.37,204.19,16.78,204.62,17.44,204.82z M17.2,199.03
		c-0.13,0.51-0.25,1.01-0.39,1.57c0.65,0.15,0.94,0.74,1.5,0.97C18.8,199.69,18.74,199.55,17.2,199.03z M18.41,207.12
		c-0.55,1.87-0.55,1.87,0.93,2.51C20.01,208.17,19.82,207.63,18.41,207.12z M18.35,195.9c-0.72,1.39-0.54,1.85,0.99,2.45
		C19.82,196.84,19.82,196.84,18.35,195.9z M19.35,203.93c-0.42,1.74-0.42,1.74,0.98,2.55C20.86,204.62,20.85,204.83,19.35,203.93z
		 M20.29,200.85c-0.68,1.41-0.53,1.79,0.95,2.35c0.12-0.48,0.25-0.96,0.35-1.38c-0.11-0.32-0.41-0.29-0.57-0.46
		C20.85,201.16,20.69,200.91,20.29,200.85z M22.87,207.76c0.76-1.4,0.5-1.95-0.95-2.02C21.63,207.24,21.63,207.24,22.87,207.76z
		 M24.93,207.81c0.47-0.51,0.52-1.34,0.09-1.73c-0.45-0.41-0.77-0.2-1.06,0.31C24.36,206.79,24.34,207.43,24.93,207.81z"/>
	<path class="st0" d="M97.91,80.14c0.24,3.49-2.85,6.57-6.17,6.43c-3.63-0.15-6.32-2.57-6.27-6.39c0.06-3.94,2.55-6.02,6.16-6.22
		C95.19,73.77,98.2,76.91,97.91,80.14z"/>
	<path class="st0" d="M55.7,135.54c-1.55,0.64-2.35,1.99-1.89,3.6c0.23,0.8-0.01,1.19-0.44,1.77c-2.24,2.99-4.08,6.19-5.26,9.76
		c-0.04,0.11-0.12,0.2-0.24,0.38c-0.24-0.58-0.34-1.23-0.98-1.43c0.23-0.9,1.09-1.58,0.82-2.65c-0.49-0.3-0.96-0.09-1.62,0.12
		c0.34-0.67,0.59-1.24,0.24-1.89c-0.3-0.55-0.59-0.7-1.09-0.28c-0.09,0.08-0.17,0.17-0.26,0.25c-1.23,1.17-1.52,1.18-2.36-0.26
		c-0.62-1.08-1.22-2.18-1.63-3.35c9.49-6.47,9.6-7.62,11.54-10.14c0.86,0.86,1.92,1.44,3.15,1.94c-0.6,0.79,0.17,1.47-0.02,2.21
		L55.7,135.54z"/>
	<path class="st0" d="M16.31,155.01c-1.41,2.21-2.38,4.63-3.36,7.05c-0.39,0.96-0.85,1.88-1.3,2.89
		c-4.13-5.29-4.09-15.45,3.16-22.18c0.69,0.12,0.9,0.79,1.15,1.25c1.57,2.91,1.59,6.02,1.07,9.19c-0.11,0.66-0.67,1.16-0.76,1.84
		L16.31,155.01z"/>
	<path class="st0" d="M140.63,126.12c-0.04,3.17-0.98,5.97-3.11,8.39c-1.34,1.52-3.01,2.24-4.88,2.74
		c-0.83,0.22-1.61,0.13-2.41-0.02c-0.64-0.12-0.81-0.47-0.45-0.99c0.51-0.74,1.01-1.49,1.51-2.23c1.04-1.57,1.53-3.29,1.7-5.16
		c0.07-0.86,0.11-1.73,0.3-2.57c0.48-2.16,2.04-3.45,3.81-4.54c0.72-0.44,2.42,0.26,2.98,1.19c0.34,0.56,0.67,1.16,0.57,1.88
		C140.59,125.24,140.63,125.68,140.63,126.12z"/>
	<path class="st0" d="M142.28,148.72c-0.67-0.15-1.06-0.75-1.59-1.2c-0.94,0.5-0.32,1.4-0.6,2.04c-0.31,0.02-0.56-0.18-0.84-0.31
		c-0.38-0.17-0.81-0.51-1.19-0.11c-0.34,0.36-0.46,0.91-0.26,1.34c0.26,0.55,0.15,1.09,0.19,1.72c-0.49,0.22-1.32,0.31-0.78,1.25
		c-0.52,0.26-1.04,0.51-1.68,0.83c-0.5-2.14-0.63-4.27-1.58-6.21c0.86-1.14,0.48-2.4,0.11-3.58c-0.69-2.24-1.47-4.46-2.93-6.41
		c1.26-0.46,2.63-0.39,3.73-1.1c0.7,0.27,0.84,0.98,1.3,1.41c1.18,1.11,2.52,2.07,3.63,3.23c1.03,1.08,2.23,1.91,3.28,2.94
		c0.32,0.31,0.64,0.61,1.05,0.75c0.77,0.27,0.69,0.74,0.37,1.3C143.95,147.54,143.3,148.31,142.28,148.72z"/>
	<path class="st0" d="M108.39,292.13c-0.9-2.44-1.98-4.68-3.18-6.86c-1.29-2.34-1.47-4.73-0.36-7.22c0.5-1.13,1.33-1.99,2.25-2.69
		c0.74-0.57,1.67-0.33,2.51,0.15c1.88,1.08,2.73,2.88,2.9,4.85c0.32,3.65-0.56,7.09-2.58,10.2
		C109.53,291.17,109.02,291.62,108.39,292.13z"/>
	<path class="st0" d="M143.75,141.8c0.55-1.01,1.15-2.02,1.67-3.06c0.96-1.96,1.51-4.01,1.48-6.22c-0.02-2,0.58-3.86,1.73-5.51
		c0.98-1.39,3.33-2.02,4.68-0.28c0.5,0.65,0.67,1.46,0.72,2.19c0.13,1.84,0.18,3.71-0.37,5.53c-0.85,2.78-2.82,4.57-5.24,5.95
		C146.99,141.21,145.55,142.04,143.75,141.8z"/>
	<path class="st0" d="M98.91,36.91c0,1.18,0,2.29,0,3.4c-0.06,0.07-0.12,0.14-0.18,0.21c-1.2-1.23-2.3-2.67-4.5-2.18
		c-0.33,0.34-0.91,0.86-1.88,1.3c0.92-1.19,1.76-2.21,1.52-3.64c-2.82,1.58-5.53,3.42-8.72,4.85c0.24-1.27,0.22-2.32,0.93-3.38
		c0.88-1.32,1.63-2.75,2.9-3.69c1.95-1.44,3.92-2.74,6.66-2.23c1.61,0.3,3.24,0.48,4.8,1.05c0.44,0.16,0.88,0.35,1.28,0.59
		c0.3,0.18,0.66,0.47,0.51,0.86c-0.35,0.9,0.05,1.77,0.02,2.66c-0.03,0.92-0.28,1.07-1.22,0.8C100.34,37.31,99.67,37.12,98.91,36.91
		z"/>
	<path class="st0" d="M71.93,273.06c-1.71-1.52-3.27-3.02-3.89-5.23c-0.75-2.69-1.02-5.33,0.57-7.83c0.55-0.87,1.18-1.68,2.19-2.05
		c1.53-0.55,2.56-0.14,3.37,1.28c0.43,0.76,0.65,1.57,0.76,2.44c0.29,2.13,0.41,4.19-0.67,6.21c-0.81,1.51-1.36,3.15-2.03,4.73
		C72.17,272.74,72.06,272.86,71.93,273.06z"/>
	<path class="st0" d="M98.68,25.76c-0.04-0.77-0.06-1.25-0.08-1.73c-1.12,0.41-1.41,0.74-2.1,2.41c-0.3-0.48-0.37-1.09-0.94-1.16
		c2.51-5,7.02-7.82,11.33-10.85c0.21-0.15,0.53-0.13,0.78,0.02c0.63,4.85-1.98,13.51-4.34,15.3c0.02-0.54,0.34-0.88,0.49-1.28
		c0.16-0.42,0.11-0.86,0.02-1.36c-0.82,0.09-1.31,0.77-2.08,1.1c0.33-1,0.68-1.94,0.93-2.9c0.25-0.94,0.47-1.9,0.05-2.99
		C101.04,22.97,99.85,24.15,98.68,25.76z"/>
	<path class="st0" d="M68.67,64.63c-0.32,0.93-0.5,1.9-0.57,2.95c-1-1.28-0.91-4.98,0.16-7.15c-0.77,0.27-0.92,0.93-1.24,1.68
		c-0.17-1.26,0.08-2.22,0.79-3.14c0.76,0.48,0.97,1.37,1.72,1.87c0.9,0.6,1.8,1.15,2.81,1.43c0.65,0.18,0.88,0.57,1.1,1.08
		c0.55,1.25,1,2.55,1.65,3.75c0.1,0.18,0.17,0.35,0.44,0.48c0.05-0.94-0.61-1.57-0.9-2.32c-0.3-0.76-0.64-1.5-1-2.34
		c1.35-0.24,2.48,0.26,3.59,0.67c0.64,0.24,0.8,1.07,0.72,1.6c-0.22,1.48,0.3,3-0.29,4.41c-0.27-0.3-0.26-0.84-0.65-1.13
		c-0.74,0.56-0.74,0.56-1.1,2.92c-0.54-1.49-1.75-2.52-2.43-3.91c-0.07,0.03-0.15,0.05-0.22,0.08c0,1.25,0,2.5,0,3.79
		c-0.81-0.09-0.95-1.21-1.89-0.99c-0.24-0.25,0.12-0.74-0.32-1.06c-0.7,0.92,0.42,1.74,0.18,2.6
		C68.96,71.18,68.25,67.33,68.67,64.63z"/>
	<path class="st0" d="M93.69,288.09c-1.72-1.42-2.59-3.18-3.13-5.06c-0.68-2.37-0.73-4.77,0.14-7.14c0.26-0.72,0.7-1.3,1.14-1.9
		c1.01-1.39,3.59-1.36,4.63,0.47c0.64,1.13,0.85,2.42,1.2,3.65c0.13,0.47-0.08,0.92-0.29,1.36c-0.88,1.88-2.08,3.59-2.81,5.54
		C94.2,285.96,93.97,286.93,93.69,288.09z"/>
	<path class="st0" d="M126.03,138.03c1.08-0.15,2.04-0.39,3.04-0.33c1.07,0.07,1.81,0.5,2.36,1.46c1.26,2.23,2,4.65,2.68,7.09
		c0.2,0.7-0.1,1.12-0.87,1.31c-1.07,0.26-2.15,0.39-3.24,0.5c-1.21,0.11-2.41,0.32-3.6,0.16c-0.06-0.12-0.13-0.19-0.13-0.25
		C126.39,144.68,125.81,141.4,126.03,138.03z"/>
	<path class="st0" d="M27.72,147.14c1.24,0.93,2.11,2.16,2.64,3.58c0.62,1.63,0.52,3.35,0.1,5.02c-0.65,2.63-1.94,5.16-3.93,7.12
		c-0.13-0.36-0.36-0.69-0.36-1.02c-0.02-1.96-0.54-3.84-1.28-5.59c-1.06-2.52-0.41-4.65,0.9-6.76
		C26.33,148.63,26.84,147.72,27.72,147.14z"/>
	<path class="st0" d="M126.23,129.81c-0.45,0.16-0.79,0.11-0.93-0.44c-0.63-2.53-0.79-5.08,0.48-7.43c1-1.87,2.71-3.19,4.26-4.61
		c0.16-0.15,0.45-0.16,0.63-0.3c0.4-0.3,0.69-0.2,1.05,0.1c0.98,0.85,1.56,1.88,1.47,3.2c-0.07,1.06,0.18,2.13-0.2,3.19
		c-0.15,0.42-0.28,0.63-0.73,0.78c-2.07,0.69-3.55,2.16-4.82,3.86c-0.42,0.56-1.18,0.87-1.25,1.68L126.23,129.81z"/>
	<path class="st0" d="M123.98,286.52c-0.6-1.08-0.79-2.3-1.53-3.3c-0.8-1.09-1.64-2.14-2.67-3c-0.7-0.59-0.98-1.25-0.98-2.12
		c0-1.32,0.25-2.56,0.93-3.72c0.91-1.54,1.83-1.78,3.3-0.85c1.86,1.17,2.49,3.04,2.96,5.01c0.66,2.73-0.35,5.16-1.45,7.56
		C124.45,286.28,124.32,286.43,123.98,286.52z"/>
	<path class="st0" d="M88.8,263.62c0.11,2.55-1,4.73-1.99,6.94c-0.2,0.44-0.6,0.52-0.97,0.15c-0.31-0.3-0.65-0.58-0.88-0.96
		c-0.51-0.83-1.09-1.63-1.58-2.47c-1.55-2.68-1.47-5.35,0.1-8.02c0.69-1.18,1.79-1.11,2.89-1.05c0.9,0.05,1.38,0.65,1.71,1.42
		C88.61,260.91,88.85,262.25,88.8,263.62z"/>
	<path class="st0" d="M55.73,269.19c-1.21-1.92-1.55-3.94-0.95-6.12c0.68-2.46,2.04-4.51,3.79-6.32c0.08-0.08,0.15-0.16,0.22-0.25
		c0.98-1.17,1.43-1.21,2.39-0.1c1.04,1.2,1.32,2.65,1.16,4.18c-0.05,0.41-0.19,0.83-0.2,1.27c-0.02,1.15-0.96,1.66-1.71,2.22
		C58.56,265.49,57.13,267.28,55.73,269.19z"/>
	<path class="st0" d="M39.09,131.7c0.09,1.28-0.74,2.22-1.25,3.25c-0.83,1.64-1.85,3.18-2.75,4.79c-0.18,0.32-0.35,0.6-0.68,0.78
		c0.1-1.42-0.35-2.74-0.75-4.05c-0.38-1.27-0.86-2.51-1.37-3.74c-0.42-1.01-0.64-1.94,0.08-2.92c0.43-0.6,0.77-1.28,1.09-1.94
		c0.32-0.66,0.72-0.61,1.21-0.22c0.76,0.6,1.22,1.46,1.87,2.15c0.35,0.38,0.68,0.91,0.05,1.44c-0.63,0.52-1.19,0.61-1.74,0.08
		c-0.21-0.2-0.25-0.58-0.67-0.51c0.31,1.59,1.51,2.26,2.88,1.56c0.5-0.26,0.9-0.39,1.27,0.04c0.5-0.02,0.43-0.58,0.79-0.68
		L39.09,131.7z"/>
	<path class="st0" d="M78.65,39.96c1.52,0.56,2.73,1.76,4.43,1.99c0.7-0.81,0.82-2.06,1.77-2.83c0.27,0.87-0.15,1.72,0.52,2.44
		c0.18,0.2-0.18,0.94-0.34,1.42c-0.14,0.4-0.36,0.78-0.6,1.29c0.83-0.13,1.33-0.89,2.15-0.78c-1.73,2.1-3.56,4.1-4.57,6.65
		c-0.24-0.34-0.33-0.75-0.44-1.17c-0.15-0.59-0.48-1.13-1.01-1.51c-1.5-1.06-2.96-2.2-4.79-2.66c-0.1-0.02-0.17-0.14-0.39-0.34
		c2.13,0,4.12,0,6.28,0C80.65,42.9,79.4,41.64,78.65,39.96z"/>
	<path class="st0" d="M114.2,138.32c1.36-0.38,2.5,0.24,3.79,0.12c0.64,3.32,0.17,6.65,0.34,9.98c-1.47-0.38-2.95,0.21-4.3-0.51
		C114.67,144.73,115.55,141.57,114.2,138.32z"/>
	<path class="st0" d="M39.13,131.74c0.46-1.06,0.09-1.94-0.53-2.83c-0.99-1.44-2.09-2.76-3.57-3.79c0.55-1.57,1.61-2.87,2.25-4.42
		c0.87,0.15,1.32,0.78,1.85,1.38c-0.23,0.44-0.47,0.85-0.65,1.28c-0.29,0.71-0.05,1.7,0.49,2.06c0.54,0.36,1.08,0.44,1.6-0.22
		c-0.37-0.35-1.3-0.04-1.22-0.93c0.05-0.54,0.27-0.96,0.84-1.1c0.61,0.3,0.94,0.89,1.21,1.43c0.42,0.84,0.81,0.74,1.37,0.23
		l-0.03-0.03c0.02,0.44-0.08,0.85-0.27,1.25c-0.89,1.77-1.78,3.55-2.68,5.32c-0.14,0.28-0.37,0.4-0.69,0.35L39.13,131.74z"/>
	<path class="st0" d="M42.77,124.82c0.71-1.63-0.28-2.71-1.25-3.77c-0.91-0.98-1.84-1.96-3.06-2.54c0.62-1.69,1.71-3.05,2.22-4.75
		c1.82,1.56,3.04,3.49,3.8,5.63c0.5,0.22,0.7-0.2,1.01-0.31c0.03,0.08,0.1,0.19,0.07,0.22c-0.71,0.87-0.96,1.95-1.41,2.94
		c-0.4,0.88-0.68,1.83-1.41,2.53L42.77,124.82z"/>
	<path class="st0" d="M16.27,155.05c0.35-0.27,0.59-0.23,1.01,0.02c1.66,0.96,3.45,1.4,5.57,0.91c-1.23,2.17-2.55,4.16-3.04,6.62
		c-0.41-1.18-0.26-2.36-0.71-3.42c-1.37-0.43-2.72,0.35-4.17,0.08c-0.19-0.8,0.27-1.43,0.52-2.09c0.28-0.72,0.89-1.31,0.85-2.16
		L16.27,155.05z"/>
	<path class="st0" d="M3.19,159.7c0.28,0.17,0.34,0.5,0.52,0.74c0.25-0.1,0.51-0.21,0.87-0.35c-0.71,3.26-1.41,6.44-2.13,9.72
		c1.77,0.72,3.76,0.75,5.63,1.4c0.19,0.35,0.02,0.75,0.11,1.21c-2.64-0.42-5.14-1.05-7.74-1.58C1.38,167.02,2.28,163.37,3.19,159.7z
		"/>
	<path class="st0" d="M86.09,75.68c-1.16-1.34-2.31-2.68-3.47-4.02c-0.56-0.65-0.89-1.35-0.8-2.25c0.08-0.83,0.02-1.67,0.11-2.56
		c1.39,3.01,2.94,5.92,5.19,8.4c-0.18,0.61-0.83,0.84-1.05,1.42c-0.14,0.38-0.53,0.43-0.91,0.18c-0.31-0.21-0.65-0.39-1-0.6
		c-0.05,0.49,0.33,0.63,0.56,0.83c0.24,0.23,0.66,0.27,0.62,0.81c-0.54-0.42-1.64-0.03-1.62-1.26c-0.74-0.36-1.49-0.71-1.61-1.71
		c0.45,0.07,0.57,0.59,1.11,0.64c-0.1-0.41-0.39-0.63-0.62-0.8c-1.34-0.92-1.02-2.21-0.91-3.69c1.5,1.7,2.65,3.42,4.21,4.76
		C85.95,75.79,86.02,75.74,86.09,75.68z"/>
	<path class="st0" d="M126.19,129.85c0.73-0.5,1.3-1.14,1.83-2.04c1.19,1.73,2.32,3.38,3.5,5.11c-0.93,1.08-1.32,2.59-2.46,3.51
		c-1.95-1.79-2.55-4.14-2.83-6.62L126.19,129.85z"/>
	<path class="st0" d="M120.09,102.4c-1.14-5.44-2.57-10.65-4.69-15.65c0.57-0.26,0.78-0.03,1.01,0.37c0.8,1.4,1.68,2.75,2.84,3.9
		c0.65,0.64,0.7,1.56,0.7,2.31c-0.02,2.91,0.48,5.8,0.28,8.71C120.22,102.1,120.18,102.16,120.09,102.4z"/>
	<path class="st0" d="M121.5,56.15c-2.64,0.69-4.58,2.29-6.42,4.04c-0.09-0.14-0.65-2.09-0.56-2.26c0.76-1.46,0.27-3.04,0.49-4.67
		C117.08,54.54,119.22,55.53,121.5,56.15z"/>
	<path class="st0" d="M121.43,137.28c0,2.97,0,5.8,0,8.62c0,0.79-0.01,1.57,0.2,2.35c0.11,0.4,0.24,0.99-0.24,1.33
		c-0.47,0.33-0.9,0.03-1.41-0.24c0-1.9-0.04-3.85,0.01-5.8c0.06-2.06-0.52-4.09-0.17-6.23
		C120.31,137.17,120.81,137.23,121.43,137.28z"/>
	<path class="st0" d="M125.51,137.04c0,2.69-0.02,5.28,0.01,7.87c0.02,1.35,0.13,2.69,0.21,4.03c0.04,0.66-0.12,0.76-1.28,0.73
		c-0.26-0.35-0.14-0.76-0.14-1.15c-0.01-2.31-0.06-4.63,0.01-6.94c0.03-1.12-0.35-2.18-0.28-3.31
		C124.14,137.12,124.12,137.09,125.51,137.04z"/>
	<path class="st0" d="M78.32,63.89c0.49-0.23,0.76,0.12,1.11,0.16c1.79,0.17,1.91,0.33,1.92,2.16c0,0.24,0,0.48,0,0.72
		c0,0.76-0.02,1.51,0,2.27c0.02,0.76-0.85,1.14-0.73,1.92c-0.49-0.01-0.48-0.41-0.61-0.64c-0.68-1.19-1.25-2.38-1.11-3.87
		C78.99,65.72,78.65,64.78,78.32,63.89z"/>
	<path class="st0" d="M133.62,107.11c-0.31-0.18-0.42,0.03-0.56,0.15c-0.14,0.12-0.09,0.4-0.35,0.42c-0.18-0.58-0.18-0.58,1.69-2.16
		c0.31,0.41,0.6,0.84,1.26,0.77c0.71-0.08,1.09-0.34,1.14-1.09c0.08-1.3,0.1-1.3,1.16-2.02c0.83,1.07,0.74,1.6-0.28,2.35
		c-1.93,1.42-3.96,2.69-5.79,4.26c-0.51-0.47,0.01-0.99-0.14-1.5c0.47-0.14,0.87,0.41,1.26-0.03
		C133.33,107.91,133.64,107.59,133.62,107.11z"/>
	<path class="st0" d="M136.24,101.35c-0.3,0.01-0.35,0.28-0.54,0.51c-0.1-0.3-0.18-0.55-0.29-0.89c0.73-0.11,1.06-1.2,1.93-0.75
		c0.7,0.37,0.69,1.12,0.63,1.9c-1.63,0.51-2.73,2.04-4.49,2.43c0.11-0.99,0.45-1.8,0.91-2.58c0.42,0.27,0.71,0.92,1.33,0.63
		C136.2,102.38,136.49,101.95,136.24,101.35z"/>
	<path class="st0" d="M55.17,200.13c0.69-0.94,1.84-1.41,2.44-2.44c0.11-0.03,0.31-0.11,0.31-0.1c0.29,0.7,0.7,1.52,0.5,2.15
		c-0.2,0.63-0.72,1.34-1.37,1.71c-0.45,0.25-1.01,0.21-1.39-0.28C55.42,200.86,55.21,200.53,55.17,200.13z"/>
	<path class="st0" d="M136.5,97.83c0.08,0.32,0.47,0.43,0.54,0.96c-1.92,1.11-3.62,2.62-5.26,4.22c0.87-2.37,2.5-4.04,4.76-5.15
		L136.5,97.83z"/>
	<path class="st0" d="M5.24,156.81c-0.26-0.18-0.53-0.15-0.89-0.04c0.2,0.44-0.03,0.83-0.08,1.29c-1.29-0.49-0.3-1.2-0.36-1.87
		c1.31,0.23,2.49,0.65,3.73,0.75c0.73,0.06,0.82,0.7,1,1.39c-1.19,0.09-2.24-0.65-3.41-0.51c-0.36,0.32-0.04,1.22-0.92,1.15
		c-0.49-0.04-0.75-0.22-0.89-0.69c1.01,0.5,1.03,0.49,1.49-0.62C5.02,157.38,5.24,157.14,5.24,156.81z"/>
	<path class="st0" d="M122.49,138.26c-0.44,3.39,0.36,6.79-0.06,10.2c-0.57-3.33-0.58-6.69-0.48-10.05
		C121.96,138.16,122.23,138.21,122.49,138.26z"/>
	<path class="st0" d="M74.03,34.79c-1.42,2.88-1.17,5.62,0.59,8.26C72.2,41.24,71.85,36.1,74.03,34.79z"/>
	<path class="st0" d="M5.9,159.95c0.49-0.34,0.83-0.75,0.95-1.52c0.3,0.47,0.76,0.67,0.42,1.18c-0.3,0.46-0.37,0.93-0.01,1.33
		c-0.34,0.41-0.76,0.46-1.08,0.67c-0.44-0.22-0.67-0.83-1.39-0.72c0.21-0.49,0.28-0.98,0.25-1.49C5.63,159.2,5.48,159.91,5.9,159.95
		z"/>
	<path class="st0" d="M90.15,30.9c0.92-1.63,1.74-3.24,0.1-4.91c1.03,0,1.59,0.56,1.65,1.65C91.99,29.06,91.16,30.01,90.15,30.9z"/>
	<path class="st0" d="M102.15,75.42c-0.62,1.84-2.36,2.21-3.83,3.06c-0.33-0.64,0-0.88,0.48-1.08
		C100,76.88,101.15,76.28,102.15,75.42z"/>
	<path class="st0" d="M64.8,54.21c0.33-0.17,0.71-0.58,1.32-0.75c0.24,1.04,0.72,1.97,0.77,3.06C66.18,55.74,65.5,54.99,64.8,54.21z
		"/>
	<path class="st0" d="M132.03,104.3c0.26,0.42,0.44,0.92,1.09,0.77c-0.21,0.64-0.71,0.75-1.25,0.99
		C131.81,105.46,131.09,104.91,132.03,104.3z"/>
</g>
</svg>
