<?xml version="1.0" encoding="utf-8"?>
<!-- Generator: Adobe Illustrator 24.1.2, SVG Export Plug-In . SVG Version: 6.00 Build 0)  -->
<svg version="1.1" id="Layer_1" xmlns="http://www.w3.org/2000/svg" xmlns:xlink="http://www.w3.org/1999/xlink" x="0px" y="0px"
	 width="4268.99" height="3304.67" viewBox="0 0 4268.99 3304.67" style="enable-background:new 0 0 4268.99 3304.67;" xml:space="preserve">
<style type="text/css">
	.st0{fill:#1A1A1A;}
</style>
<g>
	<g>
		<path d="M3409.24,2243.72c3.76,3.69,8.53,4.36,13.66,4.07c11.33-0.63,22.57,1.17,33.86,1.54c4.97,0.16,9.96,0.03,15.52,0.03
			c6.27-5.97,9.78-14.43,15.04-21.62c3.91-5.35,7.41-10.83,12.77-15.04c3.31-2.61,5.8-6.33,8.44-9.72
			c18.95-24.37,39.5-47.34,60.93-69.53c7.11-7.37,14.69-14.3,22.12-21.35c1.17-1.12,2.63-2.01,4.1-2.73
			c7.96-3.87,13.9-10.35,19.96-16.41c2.93-2.93,6.18-5.35,9.22-8.05c8.68-7.68,17.09-15.7,26.61-22.39
			c1.63-1.14,2.98-2.87,4.76-3.56c7.6-2.95,13.9-7.81,19.7-13.29c8.81-8.35,20.08-12.87,29.85-19.74
			c15.8-11.11,33.14-19.53,50.55-27.8c3.86-1.83,8.45-1.97,11.6-4.9c1.73-2.81,0.78-5.3-0.88-8.01c5.09-3.71,6.45-8.39,6.82-14.44
			c0.86-14.22,4.57-28.08,8.22-41.83c1.26-4.73,4.08-9.07,6.34-13.5c6.66-13.07,15.26-24.89,23.95-36.64
			c2.55-3.45,5.32-6.58,7.14-10.66c1.39-3.12,3.83-6.1,6.95-8.23c5.13-3.49,5.29-3.72,3.27-8.39
			c-10.32-23.86-16.66-49.02-24.14-73.8c-4.5-14.91-8.15-30.08-12.89-44.9c-3.34-10.44-6.1-20.91-8.07-31.69
			c-1.86-10.16-2.73-20.4-3.68-30.63c-1.23-13.21-1.97-26.46-4.58-39.64c-16.44-12.41-34.61-21.88-53.59-29.95
			c-2.93-1.25-5.86-0.95-8.82-1.08c-17.66-0.76-35.26,1.16-52.89,1.12c-8-0.02-15.8-1.35-23.63-3.05
			c-13.49-2.93-21.65-11.87-28.26-23.03c-4.16-7.03-7.09-14.15-5.76-22.68c0.71-4.56-0.13-9.33,0.2-13.97
			c0.54-7.64,2.67-14.42,7.64-20.88c7.33-9.54,14.94-18.52,24.71-25.58c1.06-0.77,2.37-1.66,2.78-2.79
			c2.04-5.6,7.09-8.09,11.69-10.24c19.23-8.95,38.62-17.62,59.36-22.67c12.24-2.98,24.36-6.48,36.7-8.93
			c9.02-1.79,18.13-3.21,27.47-3.42c14.6-0.32,29.18-2.07,43.78-2.31c14.58-0.24,29.17-3.39,43.76-0.36
			c12.66,2.63,25.24,5.7,37.99,7.78c3.74,0.61,4.71,4.69,8.17,4.58c2.99-0.1,6.06-0.89,8.88,0.42c3.98,1.85,8.09,3.62,11.59,6.2
			c2.67,1.97,5.39,3.05,8.36,4.35c13.89,6.07,29,9.25,41.93,17.6c4.9,3.17,9.78,6.58,15.1,8.86c12.8,5.48,23.88,13.46,34.7,22
			c13.26,10.46,25.75,21.73,37.16,34.18c12.17,13.27,22.12,28.24,32.45,42.92c14.36,20.39,28.99,40.59,42.08,61.85
			c12.73,20.68,25.26,41.51,35.62,63.45c6.32,13.39,14.02,26.06,19.49,39.91c5.62,14.22,11.55,28.28,15.22,43.15
			c1.84,7.43,3.92,14.76,6.71,21.89c8.87,22.68,13.67,46.51,19.97,69.92c2.94,10.92,5.16,21.96,6.49,33.07
			c2.92,24.36,10.11,47.9,13.16,72.2c1.86,14.82,3.28,29.7,4.86,44.55c1.83,17.17,1.44,34.46,3.25,51.66
			c1.88,17.84,2.15,35.83,2.99,53.76c2.29,48.62,0.92,97.24,0.82,145.85c-0.04,18.25,0.4,36.7-1.46,54.81
			c-1.59,15.5-1.39,31.13-3.83,46.53c-0.42,2.61-0.36,5.31-0.4,7.97c-0.09,5.96,0.03,11.83-1.8,17.73
			c-1.35,4.35-1.4,9.13-1.69,13.79c-0.64,10.26-1.8,20.52-3.23,30.71c-2.81,20.05-5.99,40.05-8.92,60.08
			c-0.58,3.95-0.76,7.89-2.64,11.58c-0.87,1.7-1.37,3.91-1.15,5.79c0.87,7.57-1.59,14.28-4.13,21.23
			c-2.76,7.55-3.19,15.67-1.49,23.61c0.72,3.37,0.85,6.39-0.24,9.72c-3.41,10.44-5.41,21.14-7.08,32.04
			c-1.9,12.39-5.63,24.57-9.38,36.58c-7.52,24.05-15.51,47.96-23.48,71.87c-8.09,24.27-17.94,47.86-28.71,71.05
			c-11.08,23.87-24.62,46.33-38.73,68.53c-18.39,28.92-37.88,57.05-59.05,83.96c-11.49,14.61-23.15,29.22-37.38,41.37
			c-15.4,13.14-29.88,27.39-46.91,38.57c-20.49,13.46-40.41,27.8-63.05,37.77c-12.79,5.63-25.73,10.8-39.06,14.92
			c-14.26,4.4-28.86,7.73-42.93,12.66c-10.31,3.61-20.85,6.39-31.14,10.02c-5.96,2.1-12,3.58-18.51,3.06
			c-7.7-0.61-15.13,1.84-22.63,3.12c-17.34,2.95-34.59,6.46-51.9,9.64c-23.21,4.26-46.52,7.81-69.91,10.99
			c-30.26,4.12-60.42,8.93-90.68,13.05c-16.12,2.2-32.26,4.33-48.47,6c-13.84,1.43-27.64,3.52-41.51,4.8
			c-23.87,2.21-47.79,3.41-71.76,2.87c-10.34-0.23-20.59,0.55-30.84,1.75c-11.88,1.39-23.77,2.7-35.67,3.88
			c-3.96,0.39-7.99,0.5-11.97,0.31c-2.47-0.12-4.69,0.21-6.82-3.09c-1.81-2.82-7.51-2.34-11.34-1.48
			c-11.89,2.68-22.19-2.37-32.79-6.05c-1.1-0.38-1.14-2.34-2.84-2.44c-2.1,1.21-1.35,3.38-1.37,5.18
			c-0.08,8.32-0.49,16.6-2.03,24.81c-0.61,3.23-1.18,6.74-0.57,9.89c1.86,9.55-1.59,17.84-5.93,25.68
			c-7,12.63-16.38,23.43-27.44,32.76c-8.04,6.79-17.2,9.82-27.7,8.8c-4.35-0.42-8.58-1.39-12.29-3.73
			c-9.36-5.91-17.77-12.88-23.75-22.4c-1.24-1.97-2.38-4.11-4.03-5.68c-9.5-9.04-12.87-20.67-14.42-33.13
			c-1.14-9.22-2.74-18.4-2.59-27.74c0.02-1.27-0.42-2.56-0.74-4.37c-11.57-2.5-21.5,0.5-30.68,7.18c-0.21,9.75,1.9,18.9,1.7,28.23
			c-0.25,11.26-0.07,22.49-1.21,33.76c-0.8,7.92-1.17,15.87-2.58,23.74c-1.46,8.15-3.9,16.07-4.8,24.38
			c-0.53,4.92-3.53,9.33-9.23,10.65c-1.6,0.37-3.32,0.78-4.65,1.67c-10,6.68-20.22,5-30.52,0.98c-15.91-6.21-30.45-14.79-43.06-25.3
			c-2.89-0.91-4,1.87-6.74,1.46c-6.76-6.65-11.79-15.25-18.12-23.46c-2.87,1.06-5.95,2.07-8.93,3.32c-3.81,1.6-7.83,2.18-11.76,1.41
			c-6.95-1.37-13.93-1.15-20.89-0.89c-15.93,0.59-31.07-2.65-45.83-8.36c-3.86-1.49-7.49-3.99-12.17-1.99
			c-1.46,0.63-3.81-0.71-5.72-1.26c-25.58-7.38-45.48-22.84-61.2-43.84c-5.37-7.17-9.94-14.86-16.66-21.01
			c-2.59-2.37-4.17-5.84-6.32-8.96c-5.79,2.84-12.09,2.41-17.95-0.16c-3.8-1.67-7.53-2.54-11.52-2.64
			c-27.35-0.68-54.19-5.3-80.92-10.6c-12.72-2.52-25.27-5.88-37.88-8.9c-4.37-1.04-9.59-0.99-9.6-7.7c0-1.2-1.63-2.12-3.01-2.26
			c-4.97-0.5-10.39-1.68-14.81,0.38c-7.14,3.33-14.41,2.77-21.55,2.18c-17.24-1.44-34.22-4.7-51.08-8.62
			c-29.19-6.79-57.6-16.06-85.81-26.09c-14.4-5.12-29.24-9.02-43.57-14.29c-10.28-3.78-21.21-4.75-31.44-8.78
			c-16.76-6.6-32.74-14.46-47.65-24.6c-8.51-5.79-17.01-11.82-26.2-16.34c-8.28-4.07-16.61-7.52-22.13-15.35
			c-29.94-22.44-55.87-49.25-82.16-75.66c-2.59-2.6-4.98-5.42-7.78-7.77c-8.98-7.53-15.9-16.9-21.86-26.71
			c-2.36-3.88-7.34-3.84-8.63-8.35c-0.36-1.28-1.9-2.59-3.04-5.42c-0.5-1.29,3.38-2.35,2.33-5.04c-1.96-1.43-4.06-2.96-6.4-4.67
			c-0.73,0-1.72-0.05-2.7,0.01c-3.64,0.24-7.29,0.74-10.93,0.73c-8.89-0.02-13.24-5.64-11.74-14.86c0.43-2.62,0.58-5.31,1.26-7.86
			c0.6-2.23,1.7-4.31,0.56-7.55c-6.76,9.07-15.53,15.66-21.1,25.32c-18.66,32.39-40.81,62.29-65.89,89.99
			c-19.66,21.71-40.71,42.01-63.04,60.97c-3.04,2.58-5.93,5.35-8.84,8.08c-2.65,2.49-4.94,5.36-8.87,6.1
			c-1.57,0.3-3.18,1.34-3.65,3.06c-1.25,4.62-5.08,6.36-8.57,8.94c-4.04,2.98-7.22,7.2-10.92,10.76
			c-14.74,14.16-31.38,25.62-49.07,35.67c-2.29,1.3-4.75,2.89-7.26,3.14c-12.42,1.26-23.78,5.9-35.04,10.71
			c-8.96,3.82-18.19,6.27-27.75,7.86c-5.88,0.97-11.68,2.41-17.52,3.65c-1.3,0.28-2.67,1-3.89,0.8c-12.4-2.04-24.37,1.96-36.58,2.54
			c-12.61,0.61-25.08,1.41-37.51-1.84c-4.77-1.25-9.95,0.06-14.87-1.28c-2.47-0.67-4.42,1.26-6.38,2.4
			c-13.61,7.92-27.71,13.91-43.68,15.84c-7.11,0.86-14.32,1.78-21.47,2.79c-1.96,0.28-3.95-0.03-5.62,1.44
			c-1.63,1.43-3.84,1.79-5.67,1.21c-8.95-2.84-17.78-0.39-26.4,1.04c-11.67,1.94-18.63-5.25-26.36-11.36
			c-1.66-1.32-1.25-3.64-1.48-5.62c-0.82-6.92,1.58-13.13,4.21-19.26c1.34-3.11,1.65-5.71-2.21-8.18
			c-5.21,3.19-11.04,6.03-17.82,3.48c-0.82-0.31-2.29-0.32-2.78,0.18c-5.75,5.92-14.77,6.46-20.34,13.3
			c-3.57,4.39-9.94,6.44-14.92,9.74c-7.48,4.94-15.46,8.72-23.9,11.73c-3.3,1.18-6.58,0.57-9.82,1.2
			c-9.79,1.91-19.59,3.77-29.36,5.76c-3.26,0.67-6.44,1.63-9.84,0.95c-13.45-2.72-27.17-1.58-40.75-2.74
			c-7.1-0.6-13.03-2.37-16.55-9.05c-1.29-2.44-3.42-3.99-5.63-5.52c-7.53-5.19-10.16-12.74-5.51-21.46c1.39-2.61,1.21-5.1,1.23-7.68
			c0.09-11,0.01-22,0.05-32.99c0.06-16.7,5.16-31.25,17.73-42.86c5.63-5.2,10.71-11.05,17.57-14.68
			c15.19-8.02,30.08-16.87,47.38-19.76c4.12-0.69,7.53-2.22,10.65-4.91c14.82-12.81,33.09-17.98,51.45-22.8
			c2.81-0.74,6.06-0.74,8.93-0.18c15.93,3.12,31.86,6.25,47.65,9.97c5.06,1.19,10.33,1.31,15.28,3.5c2.46,1.09,6.06,0.62,8.82-0.21
			c16.87-5.04,33.95-9.47,50.15-16.54c15.76-6.88,31.86-12.85,48.31-17.87c3.41-1.04,5.68-3.24,7.82-5.87
			c15.75-19.33,33.83-36.34,52.66-52.6c7.78-6.72,15.7-13.3,23.38-20.14c3.66-3.26,7.81-6.26,9.2-11.41
			c5.36-1.63,8.22-6.39,12.15-9.79c18.87-16.31,36.55-33.86,54.01-51.64c17.04-17.36,32.11-36.4,47.25-55.37
			c3.73-4.67,7.46-9.35,11.13-13.95c0.12-3.1-1.05-4.92-3.74-6.46c-12.97-7.4-24.56-16.97-38.21-23.38
			c-18.37-8.63-35.95-18.81-53.57-28.87c-1.85-4.22-7.69,1.33-9.7-4.34c-1.27-3.57-6.2-4.69-9.55-6.81
			c-3.37-2.14-6.8-4.19-10.27-6.17c-3.46-1.98-7.19-3.55-10.48-5.78c-8.62-5.84-18.11-9.77-27.78-13.34
			c-23.09-8.53-45.78-17.97-68.14-28.29c-21.72-10.03-43.49-19.91-64.84-30.74c-8.01-4.06-15.77-8.36-23.13-13.46
			c-1.1-0.76-2.17-1.64-3.38-2.12c-19.07-7.49-34.99-20.2-51.51-31.74c-21.53-15.03-42.4-31.01-63.47-46.71
			c-12.25-9.13-24.32-18.5-36.46-27.76c-0.26-0.2-0.45-0.49-0.7-0.72c-3.43-3.16-11.52,0.13-11.27-8.13c-3.3-4.1-7.9-6.58-12-9.7
			c-5.01-3.81-9.71-8.02-14.74-11.81c-1.94-1.46-2.17-3.07-1.87-4.99c-6.33-2.96-12.82-5.53-18.84-8.91
			c-9.81-5.51-20.24-9.69-30.27-14.69c-7.81-3.89-13.35-10.83-20.2-16.03c-5.85-4.45-9.09-12.01-16.89-14.13
			c-2.05-4.04-6.42-6.87-6.08-12.19c0.15-2.3-0.47-4.65-0.39-6.96c0.74-20.47,2.84-40.71,7.26-60.82
			c2.83-12.87,3.28-26.27,4.67-39.45c1.04-9.9-0.16-19.96,1.97-29.8c0.28-1.29-0.02-2.84,0.58-3.91c5.38-9.55,4.74-20.04,3.95-30.21
			c-0.97-12.52,2.62-23.57,8.11-34.37c4.07-8,7.82-16.12,10.46-24.74c0.85-2.78,2.14-5.42,3.62-8.06
			c10.25-18.18,20.1-36.59,30.07-54.92c0.8-1.46,1.67-2.91,0.49-5.03c-4.72,1.02-5.45,6.14-7.92,8.18
			c-2.86,1.64-4.51-0.54-6.35-0.47c-6.8,0.27-10.22-3.86-12.61-9.32c-3.6-8.22-7.07-16.49-10.56-24.76
			c-1.59-3.77-3.42-7.08-7.77-8.5c-2.11-0.69-3.77-2.67-5.75-3.87c-5.36-3.25-10.13-7.46-16.62-8.76
			c-10.91-2.18-17.77-9.66-23.18-18.77c-5.77-9.73-11.14-19.77-14.97-30.35c-12.96-35.81-10.68-69.7,14.36-100.19
			c3.81-4.64,7.57-9.14,14.05-10.46c2.43-0.5,4.49-2.73,6.77-4.1c2.85-1.72,5.65-3.54,8.63-5c7.47-3.64,16.21-5.75,22.23-11
			c6.32-5.51,13.14-9.97,20-14.45c9.7-6.34,19.69-12.3,29.83-17.92c8.22-4.56,13.49-10.68,16.98-19.72
			c4.89-12.66,11.56-24.65,17.82-36.75c9.95-19.23,18.19-39.18,25.64-59.46c1.39-3.78,4.34-6.74,4.92-10.76
			c0.56-3.88,3.18-6.63,5.14-9.72c8.45-13.3,13.89-27.87,18.1-42.94c1.96-7.01,4.9-13.71,6.14-20.96c1.69-9.87,2.51-19.75,2.6-29.78
			c0.26-29.43,5-58.19,14.27-86.15c8.31-25.06,20.07-48.4,34.6-70.45c3.94-5.98,9.31-10.32,13.87-15.54
			c14.18-16.28,29.17-31.6,47.24-43.88c7.4-5.03,13.85-11.84,17.37-20.95c5.76-14.91,14.37-28.46,21.77-42.59
			c8.8-16.79,17.57-33.6,26.56-50.29c14.02-26.03,25.61-53.27,39.9-79.18c10.6-19.21,20.93-38.58,30.05-58.57
			c2.89-6.34,6.23-12.52,8.7-19.02c1.87-4.91,3.18-10.12,2.91-15.56c-0.31-6.35,0.41-12.65,2.02-18.79
			c3.7-14.07,5.67-28.56,10.72-42.31c3.54-9.64,8.45-18.47,14.17-26.92c3.06-4.52,7.98-7.87,8.57-14c0.1-1,1.69-1.94,2.73-2.74
			c6.57-5.05,12.62-10.78,20.02-14.77c3.77-2.03,7.08-4.73,9.89-8.23c3.7-4.62,8.8-7.52,14.74-8.78c5.77-1.22,7.02-3.46,7.9-9.45
			c3.16-21.52,8.61-42.16,22.68-59.68c15.17-18.9,32.53-35.06,54.19-46.27c0.83-0.43,1.56-1.04,2.96-1.98
			c-12.88-9.45-21.11-22.33-29.28-35.82c-7.49,0.33-14.96,1.85-23.71,1.12c3.66,7.29,7.07,13.28,9.7,19.59
			c1.97,4.76,5.84,9.13,4.26,15.11c-3.14,3.15-6.97,3.27-10.96,2.01c-3.81-1.21-7.72-2.37-10.85-4.96
			c-9.94-8.25-20.25-16.26-23.89-29.61c-0.9-3.31-3.58-5.5-6.46-5.47c-8.07,0.09-12.58-5.66-17.53-10.23
			c-6.85-6.32-13.59-12.73-20.78-18.68c-12.95-10.72-20.76-24.9-26.94-40.18c-1.62-4.01-3.62-7.88-5-11.96
			c-2.96-8.8-5.89-17.59-5.27-27.16c0.28-4.25,0.83-8.65-0.8-12.86c-0.78-2.03,0.26-3.9,0.63-5.83c1.76-9.33,5.96-17.71,11.49-25.15
			c8.89-11.96,18.06-23.78,30.79-32.16c7.28-4.79,12.85-11.53,18.66-17.88c19.28-21.07,38.72-41.96,59.63-61.44
			c3.86-3.6,8.17-6.99,9.56-13.32c-2.66-2.14-3.13-5.56-3.47-9.27c-0.76-8.26-0.62-16.49-0.44-24.75c0.07-3.11,1.21-5.82,2.27-8.62
			c2.82-7.43,5.58-14.89,8.25-22.05c-2.61-6.43-8.26-10.14-10.64-16.13c-2.31-5.84-6.39-10.49-10.44-15.32
			c-3.59-4.27-3.83-10.71-2.69-16.18c1.32-6.36,0.7-12.38,0.17-18.7c-0.94-11.23-0.54-22.49,5.06-32.89
			c3.28-6.1,4.49-13.07,7.76-19.27c1.24-2.34,2.06-4.53,4.22-6.4c4.06-3.52,4.85-9.17,7.55-13.66c1.31-2.17,2.63-4.22,4.15-6.29
			c2.53-3.43,5.28-6.69,7.34-10.57c2.19-4.14,4.73-8.47,9.53-10.55c0.83-0.36,2.07-1.61,1.92-2.1c-1.64-5.48,4.46-6.41,5.8-10.14
			c1.41-3.93,4.42-6.35,8.29-7.96c0.99-0.41,1.29-2.27,2.13-3.28c3.9-4.71,7.34-9.98,13.82-11.63c0.98-0.25,1.85-0.62,2.02-1.83
			c0.75-5.53,5.48-6.33,9.29-8.92c6.45-4.39,11.79-10.58,15.69-17.59c3.35-6.04,5.62-12.64,11.53-17.11c3.03-2.3,1.92-6.11,0.84-9.3
			c-1.28-3.78-2.66-7.53-4.25-11.19c-2.96-6.81-3.2-14.21-4.53-21.34c-1.19-6.33,4.69-11.31,11.31-10.5
			c7.9,0.97,14,5.94,17.74,11.92c10.21,16.32,19.63,33.21,23.1,52.86c2.53-0.59,6.69-0.47,7.34-1.92c2.04-4.58,6.91-3.89,9.95-6.7
			c8.97-8.32,18.82-15.68,28.19-23.58c11.7-9.85,23.14-19.96,32.15-32.51c1.92-2.68,4.41-4.98,6.75-7.33
			c15.46-15.53,31.02-30.95,46.37-46.59c2.99-3.05,6.13-6.56,7.49-10.46c3.31-9.48,10.29-16.31,16.41-23.5
			c11.14-13.08,22.29-26.04,31.28-40.76c2.62-4.28,6.63-7.38,11.12-9.76c4.84-2.57,8.48-2.52,11.55,1.56
			c3.9,5.21,8.91,10.16,8.16,17.58c-0.38,3.73,2.78,5.89,3.77,8.89c-4.46,15.06-6.36,30.55-9.67,45.74
			c-3.89,17.8-7.29,35.66-12.71,53.13c-3.32,10.7-4.59,22.04-6.62,33.12c-0.35,1.88-0.74,4.5,0.98,5.65
			c3.84,2.56,3.21,7.12,5.36,10.44c2.96,4.57,3.16,9.84,3.13,15.3c-0.09,15.93-0.34,31.82-3.81,47.03c2.52,2.38,5.05,2.16,7.18,1.65
			c11.66-2.83,23.51-3.71,35.43-4.34c4.39-0.23,8.6-0.49,12.62,1.72c3.21,1.77,5.95,0.95,9.28-0.76
			c14.98-7.7,30.25-14.84,45.35-22.32c15.4-7.62,30.78-15.28,46.05-23.14c13.57-6.98,27.02-14.18,40.44-21.44
			c5.55-3.01,11.22-5.98,16.26-9.74c11.21-8.36,23.23-15.47,34.78-23.29c4.63-3.13,9.1-6.6,13.24-10.35
			c13.28-12.05,28.01-22.13,43.11-31.66c2.22-1.4,1.51-5.96,6.25-4.77c3.34,0.84,5.73-2.96,8.34-4.88c2.69-1.98,5.38-3.76,8.42-5.16
			c6.75-3.11,13.36-0.74,16.26,5.96c1.52,3.52,1.85,7.36,0.96,10.8c-2.63,10.2-2.14,20.55-1.66,30.78
			c0.63,13.43-4.21,25.33-8.5,37.49c-10.87,14.74-16.49,32.51-26.71,47.48c-8.36,12.24-15.72,25.28-25.78,36.37
			c-2.43,2.68-4.62,5.72-6.27,8.92c-6.63,12.92-15.14,24.63-23.06,36.72c-9.55,14.58-19.29,29.09-24.58,45.96
			c-5.41,6.5-3.91,12.02,0.93,18.58c9.28,12.58,12.28,27.79,15.1,42.82c1.68,8.97-1.26,17.81-1.68,26.73
			c-0.07,1.48-1.11,3.44-2.32,4.25c-4.01,2.68-4.25,6.37-3.17,10.15c-1.09,0.84-1.77,0.86-2.22,0.22c-0.36-0.52-0.49-1.19-0.72-1.8
			c-0.66-0.55-1.03-0.41-1.08,0.44c-0.43,6.57,1.1,11.85,6.46,16.71c6.16,5.58,8.21,14.13,11.74,21.56
			c4.41,9.27,3.74,19.45,4.89,29.24c1.04,8.89,0.56,17.95,0.87,26.94c0.33,9.37-0.25,18.59-3.17,27.59
			c-2.4,7.37-0.18,14.61,1.72,21.54c2.4,8.78,3.42,17.53,3.55,26.58c0.11,7.61,0.95,15.25,1.98,22.8
			c1.72,12.59,1.97,25.12,0.07,37.7c-0.39,2.61-0.17,5.32-0.17,7.99c0.03,11.19-3.15,21.56-7.94,31.52
			c-0.14,0.3-0.47,0.54-0.52,0.85c-2.77,14.73-15.13,23.86-21.44,36.57c-2.17,4.38-6.69,7.34-10.7,10.34
			c-3.04,2.27-3.58,4.83-2.69,8.66c5.03,21.81,3.63,43.71-1.42,65.19c-2.73,11.6-8.71,22.2-15.53,32.17
			c-8.19,11.95-7.88,13.56,0.46,25.57c8.86,12.76,19.66,14.28,30.29,11.8c5.16-1.21,8.87-4.08,11.86-8.41
			c9.23-13.37,9.29-13.32,0.58-26.33c-2.2-3.29-4.33-6.48-5.63-10.43c-2.7-8.2,1.06-14.83,3.79-21.9
			c11.37-4.14,21.51-1.46,31.1,5.09c5,3.41,9.27,7.6,13.36,11.97c7.53,8.03,11.6,17.22,12.01,28.63
			c0.38,10.68-0.05,21.29-0.39,31.91c-0.28,8.72-3.98,16.47-8.62,23.79c-3.22,5.07-7.05,9.63-10.8,14.3
			c-7.95,9.91-17.83,16.76-30.05,20.24c-3.8,1.08-7.58,2.24-12.25,3.62c5.24,8.66,6.5,18.18,11.41,26.73
			c10.26,17.86,16.67,37.53,23.03,57.1c1.54,4.73,3.45,9.3,4.21,14.32c0.76,5.01,3.7,9.19,6.88,13.09
			c15.18,18.56,28.33,38.59,42.23,58.07c17,23.84,32.49,48.58,46.4,74.38c14.19,26.31,29.14,52.21,43.84,78.24
			c1.46,2.58,3.68,4.71,5.29,7.22c9.66,15.05,19.34,30.09,28.81,45.26c9.34,14.97,18.41,30.05,31.82,41.98
			c4.99,4.44,10.07,8.65,15.65,12.27c16.08,10.44,29.51,23.96,41.16,38.82c8.27,10.55,15.37,22.39,20.21,35.13
			c6.25,16.44,12.73,32.81,17.78,49.67c0.48,1.59,1.23,3.15,1.43,4.78c3.5,28.37,11.77,55.79,16.84,83.87
			c1.78,9.89,3.58,20.04,7.94,29.54c4.3,9.36,8.65,18.69,13.14,27.96c9.85,20.33,19.59,40.71,29.44,61.03
			c2.03,4.18,4.33,8.22,6.54,12.31c1.46,2.71,3.63,4.69,6.29,6.24c10.33,5.99,21.13,10.78,32.51,14.59c8.75,2.93,17,7.31,25.9,10.1
			c13.01,4.08,25.98,8.4,38.69,13.34c16.39,6.37,32.64,13.16,48.7,20.31c12.22,5.44,20.57,15.52,27.87,26.3
			c3.33,4.92,5.53,10.6,8.2,15.96c5.59,11.25,4.51,22.6-0.21,33.68c-2.72,6.39-5.42,12.97-9.94,18.35
			c-4.55,5.41-2.16,12.02-3.72,17.92c-0.34,1.31,1.72,3.44,2.97,4.94c4.94,5.94,11.17,10.44,17.41,14.85
			c10.34,7.3,20.47,14.93,29.49,23.77c16.77,16.44,35.01,31.37,50.16,49.51c10.23,12.25,19.91,24.89,29.5,37.62
			c6.37,8.46,12.8,16.87,19.14,25.35c3.37,4.51,8.04,7.74,10.96,12.85c2.93,5.11,7.55,9.23,11.28,13.9
			c3.72,4.65,7.27,9.43,10.85,14.19c3.4,4.52,6.75,9.07,10.1,13.63c3.54,4.82,7.11,9.63,10.57,14.51
			c3.46,4.88,6.51,10.08,10.28,14.7c3.68,4.51,4.84,10.17,7.87,14.92c5,7.84,9.97,15.7,14.95,23.56
			c8.35,13.18,16.97,26.2,24.9,39.62c3.74,6.33,8.52,8.99,15.51,7.77c7.84-1.36,15.82-1.57,23.63-3.39
			c5.17-1.21,10.65-1.06,15.89,0.02c8.38,1.72,16.56-0.4,24.81-0.94C3404.18,2247.21,3406.46,2245.14,3409.24,2243.72z
			 M2047.48,2563.6c1.8,5.22,6.11,7.32,10.82,8.94c-2.5-4.4-5.45-8.24-11.01-8.73c-1.08-7.72-5.89-13.97-8.39-21.15
			c-6.11-17.56-11.35-35.34-15.57-53.45c-4.51-19.38-8.67-38.83-11.71-58.5c-2.23-14.44-3.17-29.02-4.9-43.5
			c-1.98-16.53-1.85-33.12-2.82-49.66c-0.85-14.5,0.55-29.05,1.01-43.58c0.8-24.94,0.58-49.92,0.86-74.88
			c0.03-2.63,0.52-5.26,0.8-7.89c1.28-11.66,1.82-23.27-2.03-35.03c-3.92,2.4-5.15,6.07-6.8,9.14
			c-14.29,26.63-33.31,49.56-54.62,70.74c-20.52,20.39-41.25,40.57-64.08,58.43c-1.84,1.44-4.79,2.62-3.9,6.41
			c14.52,2.65,28.04,7.82,39.86,16.97c3.67,2.84,7.6,5.33,11.44,7.96c11.51,7.88,20.62,17.56,25.39,31.08
			c4.54,12.83,9.89,25.38,14.62,38.15c2.53,6.85,4.66,13.86,6.66,20.88c1.67,5.85,1.72,12.5,4.62,17.58
			c3.35,5.86,4.06,12.47,7.37,18.26c3.21,5.62,7.13,11.91,5.94,18.34c-1.04,5.63,1.02,9.88,2.9,14.12
			c3.66,8.3,5.96,17.32,11.87,24.54c4.78,0.76,5.17,1.03,8.18,4.09c3.71,3.78,7.69,7.31,11.24,11.23
			C2031.92,2551.46,2040.38,2556.75,2047.48,2563.6z M2447.42,1467.92c11.36-0.47,21.74-0.51,31.66-3.27
			c6.03-1.68,11.53,1.85,17.29,0.31c2.96,5.42,9.17,3.92,13.59,6.3c2.21,1.19,4.95,1.01,7.36-0.74
			c-5.7-9.58-10.97-18.73-16.52-27.71c-11.9-19.24-20.66-40.13-31.49-59.91c-14.52-26.52-29.83-52.61-44.43-79.09
			c-8.38-15.19-17.76-29.63-28.83-42.96c-2.78-3.35-5.15-6.93-7.32-10.67c-14.32-24.65-31.45-47.55-44.87-72.89
			c-4.51,1.25-8.24-0.6-11.66-2.07c-3.15-1.35-5.4-1.73-8.16,0.32c-1.28,0.95-2.97,1.81-4.5,1.86c-4.76,0.17-7.05,2.83-8.54,6.99
			c-5.28,14.75-14.39,27.55-21.27,41.48c-4.31,8.72-9.94,16.39-16.58,23.5c-5.45,5.84-10.83,11.72-16.73,17.12
			c-2.38,2.18-5.95,4.74-6.08,7.28c-0.2,3.96-1.84,6.08-4.61,7.83c-1.97,1.24-2.37,2.95-2.77,4.94c-2.99,14.91-5.81,29.75-4.1,45.19
			c1.09,9.86,0.83,19.87,3.56,29.86c1.44,0.99,3.03,2.18,4.72,3.22c8.23,5.03,16.89,9.92,22.94,17.31
			c5.34,6.52,12.68,9.48,18.84,14.39c1.68,1.33,4.03,2.31,5.55,1.53c5.63-2.86,11.75-1.82,17.58-2.89
			c4.72-0.86,8.89-2.28,10.55-6.86c10.95-1.93,20.92,3.58,31.22,1.19c10-2.33,20.25,2.29,30.46-1.18c0.26,3.68,4.22,5.76,4.54,8.41
			c0.98,8.01,7.36,11.53,11.94,16.5c6.52,7.07,14.42,13.1,19.87,20.88C2428.86,1445.83,2440.79,1454.38,2447.42,1467.92z
			 M1754.44,1645.08c4.68-5.12,9.81-7.67,14.21-11.26c1.61-1.31,2.23-3.17,2.88-5.12c5.98-17.99,14.08-35.02,22.78-51.86
			c11.02-21.34,23.74-41.53,38.05-60.76c1.38-1.86,2.97-3.6,4.66-5.17c5.83-5.43,11.57-10.99,17.71-16.06
			c3.76-3.11,6.44-6.79,8.02-11.2c6.61-18.38,15.65-35.83,20.72-54.82c0.88-3.29,2.13-6.1,0.8-9.5c-1.28-3.28-1.33-6.56,1.68-9.11
			c2.14-1.81,1.96-4.05,1.35-6.38c-2.45-9.3-4.84-18.62-7.4-27.88c-5.49-19.86-9.6-40-12.96-60.32c-1.01-6.11-1.06-12.65-4.4-19.26
			c-1.89,3.03-3.15,4.96-4.33,6.94c-10.38,17.49-17.28,36.66-26.32,54.79c-5.46,10.94-8.26,23.01-15.03,33.43
			c-3.86,5.94-2.99,12.64,0.62,18.82c5.94,10.17,4.6,20.76,2.11,31.58c-1.16,5.04-5.47,8.32-6.44,13.36
			c-0.37,1.91-1.58,3.6-1.38,5.73c0.2,2.13,3.49,2.33,2.76,5.18c-0.85,1.45-1.86,3.15-2.88,4.89c0.72,1.14,1.17,2.83,2.18,3.3
			c6.05,2.77,6.38,7.89,5.88,13.41c-0.27,2.97-0.82,5.83-1.73,8.74c-1.87,6-3.5,12.14-4.45,18.34
			c-1.98,12.96-6.47,24.02-19.45,29.69c-0.87,0.38-1.56,1.23-2.24,1.95c-5.95,6.29-11.88,12.59-17.8,18.91
			c-2.8,3-4.02,6.48-4.36,10.67c-1.3,15.92-4.43,31.47-9.42,46.71C1758.04,1629.6,1755.11,1636.31,1754.44,1645.08z"/>
	</g>
	<g>
		<path class="st0" d="M1939.39,1267.85c-11.69,3.07-23.79,1.38-35.62,3.03c-3.18,0.44-6.69-0.22-9.85-1.08
			c-10.03-2.74-19.96-5.86-30.67-6.42c0.67-4.19,3.67-4.75,5.93-5.31c16.4-4.09,30.05-14.03,45.14-20.87
			c2.73-1.24,5.01-3.02,6.83-5.61c9.01-12.77,18.3-25.33,27.3-38.1c3.96-5.63,8.03-11.28,10.44-18.56c-3.85-0.3-5.9,1.84-8.25,3.41
			c-16.88,11.33-34.3,21.64-53.63,28.32c-1.55,0.54-3.01,1.48-4.78,0.67c-1.2-1.5,0.39-2.21,0.98-3.15c0.69-1.1,1.51-2.12,2.48-3.45
			c-1.32-0.22-2.44-0.78-3.18-0.46c-11.61,5.01-23.27,9.86-35.5,13.2c-15.41,4.21-31.01,7.29-47.04,8.07
			c-4.62-4.79-6.51-10.77-8.85-16.97c7.07-3.73,14.77-4.48,22-6.64c16.87-5.05,33.86-9.64,50.79-14.51c3.53-1.01,6.77-2.7,9.82-4.81
			c13.95-9.65,27.95-19.23,41.91-28.86c1.89-1.3,4.09-2.34,5.12-5.34c-13.62,1.56-27,2.61-40.44,2.99
			c-4.29,0.12-8.61,0.13-12.9,0.17c-13.07,0.11-25.68,3.4-38.47,5.37c-9.25,1.42-17.9,1.18-26.04-3.71
			c-2.36-1.42-4.99-1.76-7.52-2.53c-4.71-1.44-9.71-2.04-14.02-4.42c-0.73-3.69,0.35-6.88,0.93-10.02c2.11-2.35,4.69-2.55,7.42-1.95
			c7.09,1.56,13.76,0.29,20.49-2.22c8.73-3.26,17.69-5.89,26.51-8.92c3.1-1.07,6.48-1.7,9.09-4.51c-0.57-6-4.82-7.74-9.98-9.03
			c-10.95-2.73-21.83-5.74-32.68-8.86c-2.43-0.7-5.46-0.6-7.17-4.02c-0.68-2.27,1.01-4.64,2.09-6.85
			c5.88-12.02,13.97-22.34,24.22-31.04c2.83-2.4,5.66-3.25,9.11-2.91c32.22,3.16,63.71,9.79,94.43,20.06
			c4.58,1.53,8.68,4.9,14.3,4.07c1.11-4.26-1.94-6.33-4.11-8.45c-7.86-7.66-15.92-15.12-23.92-22.64
			c-5.56-5.24-11.73-9.8-16.79-15.62c-2.62-3.01-6.22-4.92-9.82-6.74c-3.53-1.79-7.5-2.77-10.89-5.79c2.67-2.49,5.9-3.7,9.19-4.9
			c6.28-2.29,12.26-5.25,16.91-10.18c2.9-3.08,6.57-4.6,10.34-5.72c9.52-2.82,18.78-6.28,27.84-10.75c1.58,0.8,3.17,1.37,4.47,2.32
			c5.28,3.89,10.78,6.43,17.6,4.44c2.25-0.66,4.54,0.43,6.82,0.97c5.63,1.35,9.98-1.1,11.14-6.71c1.01-4.85,2.56-9.67,2.2-14.76
			c-0.65-9.01,4.15-15.01,11.16-19.68c5.26-3.51,10.6-6.88,15.9-10.33c4.65-3.03,9.65-4.37,15.7-3.23
			c3.37,6.59,2.29,15.35,8.32,21.7c1.3-10.37,0.06-19.82-2.94-29.15c-1.73-5.38-1.49-5.46,1.03-12.3c2.71-1.95,3.72,2.32,6.2,1.6
			c1.87-1.15,2.59-2.51,1.1-4.76c-5.64-8.55-6.97-18.24-8.11-28.23c-1.58-13.86-4.99-27.42-9.62-40.65
			c-1.73-4.95-3.8-9.89-1.11-15.42c1.4-2.87-0.22-6.32-0.68-10.29c7.86,2.88,14.02,6.74,20.26,10.35c2.62,1.52,3.92,4.43,5.24,7.17
			c2.4,5.01,4.94,9.96,7.44,14.98c2.62-0.61,1.98-2.91,1.61-3.96c-2.49-7.17-4.86-14.44-8.14-21.26
			c-2.33-4.86-7.28-7.63-11.76-10.55c-7.79-5.08-15.58-10.17-23.35-15.28c-1.93-1.27-4.02-2.48-3.79-5.2
			c0.59-1.61,1.92-1.94,3.22-1.86c8.9,0.54,16-3.42,22.75-8.63c11.05-8.53,22.3-16.81,33.38-25.3c5.84-4.47,12.22-8.04,18.39-11.98
			c2.18-1.39,7.47-1.21,4.82-6.46c2.42-1.75,4.6-4.1,7.3-5.15c11.37-4.43,22.66-8.98,32.54-15.69c2.8,2.31-0.55,4.17,1.23,6.4
			c3.46,0.87,6.5-0.97,9.93-2.79c-0.94-1.03-1.58-1.73-2.65-2.9c1.07-2.48,3.23-4.25,5.73-5.78c1.73,0.98,0.54,3.92,3.9,4.6
			c5.73-4.58,6.9-12.63,11.21-18.63c4.32-6.01,9.82-10.85,15.13-16.61c4.39,4.05,9.42,7.67,14.67,10.96
			c2.5,1.57,2.52,4.57,3.94,6.69c4.86,7.27,3.72,14.45-0.52,21.14c-5.7,8.97-7.15,19.22-9.32,29.13
			c-6.31,28.82-17.17,55.75-31.97,81.18c-1,1.72-2.27,3.31-3.1,5.11c-4.03,8.74-10.19,14.67-21.48,19.62
			c6.03-8.37,12.65-14.49,16.65-23.05c-1.92-1.6-4.13-1.4-6.21-0.6c-9.32,3.57-16.24,10.3-22.54,17.69
			c-2.24,2.63-2.19,8.32-0.3,10.31c2.23,2.35,5.13,3.03,8.24,2.22c2.83-0.74,5.61-1.69,9.5-2.87c-0.99,4.24-3.06,6.98-5.21,9.7
			c-11.53,14.62-23.09,29.23-34.56,43.9c-5.33,6.82-7.07,11.1-8.11,18.99c3.31,2.07,5.89,1.69,8.41-1.65
			c4.23-5.6,7.99-11.48,11.19-17.68c3.37-6.53,7.88-9.71,15.92-6.12c10.49,12.61,20.61,26.67,33.07,38.71
			c8.82,8.52,17.74,16.92,26.6,25.4c2.16,2.07,4.68,4,3.62,8.19c-3.07,0.77-6.54,1.69-10.04,2.5
			c-17.94,4.14-34.95,10.68-51.07,19.57c-1.17,0.64-2.28,1.45-3.51,1.9c-18.65,6.8-32.46,20.33-46.58,33.42
			c-4.27,3.96-9.61,6.91-12.85,13.29c11.61-3.05,22.48-5.89,33.34-8.77c16.41-4.35,33.08-7.45,49.75-10.58
			c0.98-0.18,1.98-0.66,2.93-0.57c15.19,1.49,29.5-3.95,44.29-5.52c6.6-0.7,13.17-1.87,19.33,2.02c2.79,1.76,5.78,1.35,8.39-0.57
			c2.18-1.6,4.77-1.92,7.41-2.8c0.55-2.83,1.12-5.72,1.66-8.47c2.74-1.26,3.89,0.82,5.2,2.13c8.03,8.05,14.1,17.62,20.56,26.87
			c0.89,1.28,1.74,2.88,1.01,5.48c-25.85,3.12-52.51,4.5-77.06,15.42c-24.06,10.7-46.11,24.75-67.62,41.23
			c4.53,4.97,9.35,6.37,14.69,6.42c9.44,0.1,18.4-2.76,27.42-4.95c21.34-5.18,42.74-9.35,64.87-9.57
			c11.24-0.11,22.48-2.09,33.7-3.36c7.68-0.87,15.23-0.68,22.69,1.79c6.5,10.94,5.69,23.04,6.31,34.95
			c0.64,12.21-1.2,23.78-7.49,35.06c-6.24,1.73-13.18,2.07-20.12,1.67c-18.92-1.09-37.76-2.94-56.39-6.66
			c-5.21-1.04-10.51-1.68-15.76-2.51c-0.66-0.1-1.38-0.58-1.93-0.41c-15.36,4.55-29.63-1.85-43.9-5.2
			c-23.91-5.6-47.78-11.62-71.25-19.01c-2.43-0.77-4.83-2.4-8.41-1.47c1.56,4.33,5.05,6.56,8.44,8.73
			c21.55,13.86,43.08,27.74,64.75,41.4c9.56,6.03,19.45,11.54,29.17,17.32c7.48,4.45,15.51,7.38,23.87,9.86
			c17.87,5.31,36.11,8.92,54.22,13.14c3.89,0.91,7.79,1.73,11.72,3.74c-1.11,4.83-4.13,8.86-6.97,12.64
			c-3.91,5.2-9.93,5.67-16.14,4.89c-15.56-1.95-30.78-5.46-45.75-10.03c-11.12-3.39-22.17-7.04-33.12-10.94
			c-5.62-2-11.05-4.62-16.4-7.3c-15.17-7.59-30.23-15.4-45.4-23c-2.85-1.43-5.42-3.78-9.26-2.63c-2.71,0.81-3.82-2.04-5.47-3.58
			c-10.92-10.19-22.7-19.35-34.46-28.53c-0.21-0.16-0.65-0.02-1.18-0.02c-0.16,0.94-0.7,2-0.43,2.78
			c9.69,27.83,23.01,53.7,41.57,76.74c5.4,6.71,12.08,12.31,16.66,19.74c0.97,1.57,3.07,2.51,4.76,3.56
			c9.32,5.82,18.66,11.59,28.01,17.36c2.74,1.69,5.91,2.86,7.87,7.02c-17.4,0.11-33.96-0.73-49.69-7.65
			c-0.97-0.43-1.92-3.06-2.04-5.46c-2.71-1.51-4.8,2.06-7.61,0.85c-2.1-0.9-4.37-1.68-7.48-0.98c0.46,2.15,3.02,4.1,1.55,6.86
			c3.33,0.25,6.68,0.02,9.75,0.86c3.15,0.86,5.98,2.84,9.02,4.19c6.36,2.83,12.77,5.56,19.91,8.66c-2.86,1.58-8.32,0.47-6.34,5.97
			c7.05-1.02,8.14-1.07,10.61,4.96c4.11,10.07,11.01,18.13,17.5,26.49c2.99,3.84,6.88,6.98,11.19,11.27
			c-8.87-0.23-15.24-5.38-23.94-6.5c2.94,3.52,6.64,5.49,7.86,9.12c1.16,3.45,1.83,7.06,2.7,10.61c0.92,3.77,1.83,7.54,2.84,11.69
			c-4.38,0.42-7.7-1.33-11.19-1.93c-4.59-0.8-9.12-2.03-13.73-2.51c-6.49-0.67-8.38,1.19-8.7,7.65c-0.2,4-0.2,7.93,1.42,11.78
			c1.67,3.96,2.9,8.1,4.33,12.16c3.04,1.88,3.11,5.3,4.27,8.16c-0.1,3.47,1.98,5.81,4.73,7.04c3.91,1.75,5.84,6.26,10.7,6.76
			c4,0.41,6.29,4.77,10.58,5.43c4.24,0.66,8.35,2.15,12.5,3.33c1.27,0.36,2.5,0.89,3.95,1.42c3.8,7.73,4.71,16.39,7.95,24.62
			c-5.34,1.3-10.07,1.37-15.07,0.68c-9.44-1.31-12.98,3.92-9.14,12.69c1.69,3.84,4.41,6.49,8.2,8.32c9.29,4.49,19.1,5.6,29.17,4.45
			c3.67-0.42,7.26-0.73,11.61-0.28c8.79,9.73,17.11,20.46,25.37,31.24c12.94,16.91,25.69,33.96,37.07,51.98
			c10.8,17.1,21.57,34.22,32.04,51.52c4.3,7.11,4.43,10.21,3.34,19.64c-16.37,8.73-31.75,19.64-47.27,32.56
			c7.68,0.06,11.89-4.33,15.92-8.08c9.09-8.49,19.71-14.63,30.16-21.07c0.69-0.42,1.86-0.06,3.12-0.06c1.61,4.47,0,8.62-2.85,10.94
			c-6.79,5.53-9.4,13.3-12.73,20.7c-5.18,11.49-10.34,22.91-16.7,33.88c-6.28,10.82-11.28,22.44-13.78,35
			c-2.91,14.63-6.85,29.05-9.66,43.69c-2.12,11.05-3.4,22.27-4.63,33.47c-1.56,14.18-3.22,28.38-3.8,42.61
			c-0.34,8.21,0.74,16.55,1.22,24.81c1.58,27.16,3.66,54.29,8.12,81.17c2.17,13.11,6.37,25.69,10.28,38.36
			c6.38,20.66,16.58,39.74,24.38,59.81c5.17,13.29,12.9,25.38,21.64,36.76c3.02,3.93,5.49,8.28,8.15,12.48
			c6.74,10.65,13.5,21.29,20.13,32.01c1.73,2.8,3.19,5.81,3.68,9.15c0.25,1.69,0.62,3.39,2.09,4.37c5.86,3.9,8.11,10.3,11.47,15.99
			c2.68,4.53,5.74,8.78,9.45,12.69c21.93,23.13,43.46,46.65,65.48,69.7c4.82,5.05,5.27,11.32,6.77,17.13
			c3.55,13.77,8.9,26.65,15.89,38.98c-1.98,2.47-3.65,0.17-4.98-0.65c-21.01-12.78-42.31-25.06-62.93-38.49
			c-21.76-14.17-42.48-29.75-63.14-45.42c-5.29-4.02-11.92-5.4-17.38-9.36c1.46,4.48,4.82,7.41,8.08,10.26
			c7,6.11,14.22,11.95,21.32,17.95c1.51,1.28,3.73,2.55,4.13,4.19c1.66,6.79,7.58,8.62,12.41,12.02c9.78,6.89,19.26,14.2,28.7,21.54
			c16.06,12.48,33.43,22.98,50.7,33.59c20.39,12.53,41.14,24.48,61.74,36.67c1.13,0.67,2.31,1.27,3.52,1.76
			c8.07,3.28,9.57,5.16,7.81,13.35c-4.16,19.39-4.67,38.99-2.86,58.54c2.26,24.46,5.93,48.8,13.42,72.29
			c3.21,10.06,8.26,19.53,11.75,29.52c2.45,7.02,6.23,12.73,11.42,17.94c5.16,5.17,7.17,12.62,12.11,18.1
			c1.79,1.98,3.52,3.93,5.62,5.6c35.4,28.23,71.63,55.27,110.89,78.03c25.3,14.67,50.16,30.14,77.07,41.82
			c7.86,3.41,16.04,5.89,23.7,10.01c5.11,2.75,7.43,6.22,8.53,11.22c1.21,5.51,2.12,11.08,3.25,16.6
			c1.52,7.49,4.33,14.43,7.56,21.43c6.82,14.78,11.77,30.34,15.84,46.14c4.65,18.05,11.13,35.45,17.84,52.82
			c4.03,10.45,6.62,21.43,8.65,32.6c2.36,13.02,6.46,25.75,10.13,38.51c2.2,7.64,4.98,15.12,7.62,22.63
			c2.88,8.22,3.52,16.88,5.24,25.33c3.24,15.93,7,31.76,9.75,47.77c1.96,11.39,3.59,22.91,3.5,34.56c-0.01,0.67-0.27,1.49,0.02,1.97
			c4.3,7.17-0.84,10.63-5.31,14.83c-5.56,5.23-10.72,10.88-16.51,15.92c-6.09,5.3-9.54,12.65-13.82,19.4
			c-7.49,11.8-7.42,24.4-5.73,37.46c0.52,4.06,2.09,8.4-1.94,11.9c-1.86,1.62-0.4,3.68-0.07,5.58c0.73,4.2,4,7.91,1.85,13.2
			c-3.99,2.31-9.09,1.44-13.76,0.47c-21.08-4.37-42.12-8.57-63.85-8.27c-4.89,0.07-8.83-3.82-10.93-8.56
			c-0.66-1.49-0.79-3.21-2.64-4.84c-0.97-0.27-2.54-1.05-4.14-1.1c-18.37-0.61-34.78-8.26-51.66-14.24
			c-7.83-2.77-15.77-5.24-23.66-7.84c-1.94-0.64-3.87-0.71-5.75,0.08c-2.76,2.09-0.11,6.58-3.88,8.3c-1.55,0.7-1.42,2.21,0.01,3.82
			c-4.11,2.42-8.1,2.65-12.99,2.44c-6.17-0.28-12.3-0.54-18.49-1.18c-9.15-0.96-17.67-3.85-25.31-8.46
			c-6.33-3.82-13.09-4.83-19.92-5.53c-10.25-1.06-20.36-2.37-30.25-5.4c-5.37-1.64-11.01-2.37-16.43-3.87
			c-4.43-1.23-9.17-2-12.41-5.88c-1.4-1.68-3.48-1.78-5.45-2.09c-10.89-1.73-21.12-5.75-31.31-9.66
			c-5.51-2.11-11.28-3.33-16.71-5.83c-5.21-2.41-11.59-1.42-16.86-4.35c-17.34-0.4-31.09-10.67-45.9-17.53
			c-8.59-3.98-17.03-9.06-24.98-14.66c-7.86-5.55-16.55-9.92-24.58-15.24c-8.31-5.5-16.23-11.58-24.41-17.29
			c-10.65-7.44-19.52-16.93-29.39-25.26c-3-2.53-5.84-5.27-8.68-7.99c-2.34-2.23-5.82-3.45-6.44-7.25
			c-0.09-0.58-0.53-1.31-1.03-1.57c-8.89-4.71-13.5-13.57-20.21-20.37c-9.39-9.52-15.72-20.98-23.36-31.61l-0.31,0.24
			c1.63,0.18,3.63-0.23,4.71,1.17c6.04,7.82,14.29,13.73,19.36,22.37c1.87,3.19,3.94,6.34,6.9,8.47
			c6.47,4.65,11.11,11.14,16.95,16.28c5.45,4.79,9.9,10.31,14.76,15.54c1.8,1.93,3.51,4.02,6.94,4.94
			c1.09-4.17,0.48-7.51-2.22-11.05c-5.08-6.64-11.14-12.14-17.42-17.58c-20.58-17.82-39.61-37.22-57.44-57.8
			c-4.35-5.02-9.09-9.67-12.85-15.22c-2.66-3.92-4.86-7.92-5.84-13.45c4.87-7.05,9.57-14.98,11.49-23.43
			c2.18-0.58,3.04-0.33,3.83,0.42c0.72,0.68,1.53,1.26,2.11,1.72c15.52-13.77,22.88-30.66,19.23-51.72
			c4.01-1.85,7.51-3.58,11.11-5.09c4.95-2.08,8-5.87,9.91-10.67c3.59-9,5.64-18.46,6.84-27.99c1.41-11.25-2.53-21.66-6.78-31.86
			c-1.25-3-2.68-5.93-4.37-9.64c6.78-0.52,11.82-2.9,15.81-7.96c4.95-6.26,7.05-12.7,4.12-20.32c-0.95-2.47-1.83-5.05-3.27-7.23
			c-18.71-28.25-41.81-51.65-73.2-65.83c-4.86-2.2-9.74-4.08-15.06-4.99c-4.89-0.84-9.68-2.38-14.46-3.82
			c-18.79-5.64-37.3-12-54.88-20.89c-7.16-3.62-13.82-7.95-20.28-12.63c-3.84-2.77-6.79-6.36-8.83-10.62
			c-5.85-12.2-11.83-24.36-17.35-36.71c-1.08-2.41-1.79-5.2-1.41-8.46c0.51-4.33-0.81-8.98-1.82-13.38
			c-1.31-5.72-2.11-11.88-8.38-14.87c-1.62-4.53-8.18-7.01-5.55-13.31c-3.93-10.13-5.82-20.78-8.2-31.32
			c-2.41-10.68-4.46-21.36-5.62-32.26c-1.5-14.16-3.97-28.22-5.12-42.4c-1.02-12.56-1.1-25.23-1.11-37.85
			c-0.02-19.28,0.39-38.56,0.59-57.85c0.08-7.61,0.24-15.18,1.02-22.79c0.8-7.83,0.66-15.83,0.21-23.71
			c-0.62-10.94,0.76-21.7,1.66-32.53c0.83-9.92,0.48-19.93,2.34-29.78c0.26-1.37-0.67-2.5-2.15-3.29c-3.42,0.66-5.31,3.27-7.07,6.12
			c-3.49,5.65-7.15,11.2-10.57,16.89c-6.85,11.4-15.25,21.61-23.81,31.72c-3.62,4.28-5.58,9.96-10.23,13.35
			c-6.47,4.72-10.75,11.46-16.41,16.84c-5.51,5.23-11.31,10.21-16.37,15.87c-3.38,3.77-7.66,6.38-11.57,9.14
			c-4.01,2.83-7.4,5.79-10.41,9.58c-2.42,3.05-5.27,6.02-9.81,5.58c-1.45-0.14-2.45,0.52-3.59,1.28
			c-11,7.37-22.05,14.65-33.04,22.02c-0.33,0.22-0.15,1.22-0.27,2.58c5.22,0.4,11.22-1.06,15.18,4.5c-0.48,1.21-1.04,2.63-1.7,4.28
			c0.68,0.58,1.28,1.46,2.09,1.73c11.65,3.9,23.6,6.8,35.05,11.45c13.08,5.31,23.17,14.13,31.93,24.71c2.51,3.03,4.1,6.84,7.46,9.19
			c1.23,0.86,1.36,2.17,1.81,3.4c5.42,14.93,10.86,29.85,16.3,44.77c2.95,8.1,6.11,16.12,8.82,24.3c2.41,7.24,4.39,14.63,6.47,21.99
			c3.16,11.23,7.64,21.93,12.97,32.28c5.63,10.92,11.71,21.58,17.94,32.18c11.41,19.42,27.34,33.9,45.6,46.36
			c10.71,7.31,21.31,14.75,32.47,21.39c7.2,4.28,14.64,8.15,22.52,10.64c13.93,4.4,24.13,13.78,34.05,23.66
			c3.96,3.95,6.85,9.03,11.03,12.68c2.94,2.57,2.34,6.49,5.15,8.92c2.47,2.14,4.4,4.95,6.39,7.6c3.09,4.13,3.06,9.46,4.92,13.91
			c3.22,7.69,3.78,15.45,3.57,23.43c-0.39,14.27-2.66,28.33-5.14,42.36c-0.28,1.62-1.27,3.64-0.65,4.8
			c3.39,6.38-0.75,10.8-3.9,15.17c-8.66,12.01-14.5,25.34-19.45,39.15c-0.55,1.53-1.6,3.67-1,4.7c2.69,4.62-0.41,8.2-1.8,11.94
			c-1.96,5.28-4.41,10.39-6.86,15.47c-1.2,2.48-2.21,5.1-1.64,7.68c1.22,5.49-1.01,10.02-3.96,13.97
			c-5.16,6.91-9.05,14.77-15.36,20.84c-1.18,1.13-2.43,2.52-2.87,4.02c-2.14,7.21-7.18,12.58-11.43,18.43
			c-9.18,12.65-18.72,25.04-27.58,37.91c-10.3,14.95-23.21,27.44-36.44,39.57c-14.5,13.29-27.51,27.97-41.18,42.04
			c-14.83,15.26-27.75,32.38-44.47,45.78c-3.56,2.85-6.83,6.29-12.97,7.6c3.02-4.67,2.79-9.25,3.62-13.65
			c1.5-7.91,4.3-15.07,8.35-22.14c8.13-14.18,13.29-29.64,16.2-45.78c1.13-6.28,3.31-11.88,7.49-16.94
			c16.37-19.81,28.34-42.51,41.67-64.31c8.13-13.3,14.33-27.71,22.29-41.03c10.6-17.74,19.36-36.34,28.33-54.85
			c3.14-6.48,6.08-13.08,7.67-20.3c1.64-7.4,4.4-14.57,6.89-21.76c1.59-4.58,4.87-7.96,9.2-10c11.12-5.25,18.28-14.04,23.13-25.04
			c3.49-7.92,6.5-15.98,8.43-24.45c0.61-2.65,0.65-5.25,0.84-7.89c0.6-8.73-3.42-15.57-11.04-18.37
			c-13.79-5.05-20.88-15.78-27.09-27.77c-0.61-1.17-1.31-2.3-1.96-3.42c-2.54,0.24-2.64,1.74-1.94,3.46
			c1.42,3.5,4.13,6.65,3.34,10.78c-2.52,0.37-3.52-1.08-4.51-2.36c-9.23-11.86-20.54-21.75-30.97-32.46
			c-17.14-17.61-33.07-36.19-47.77-55.87c-5.92-7.92-12.92-14.98-19.38-22.46c-7.08-8.2-15.77-14.69-22.67-23.08
			c-3.04-3.7-4.34-8.58-8.35-11.48c-7.53-18.54-19.95-34.24-30.61-50.85c-6.87-10.7-13.73-21.71-22.82-31.11
			c-11.12-11.5-22.78-22.32-35.54-31.85c-6.1-4.55-13.94-7.38-21.34-7.52c-13.33-0.27-26.45-3.23-39.82-2.46
			c-3.67,0.21-7.24,0.45-10.84,1.37c-6.36,1.62-12.4,4.15-19.01,5.32c-5.49,0.97-10.77,4.13-16.35,5.99
			c-14.48,4.82-28.95,9.1-44.33,9.44c-1.64,0.04-3.29,0.46-4.91,0.8c-9.36,1.95-18.37-0.08-27.14-2.94
			c-7.87-2.57-15.7-5.05-23.91-6.31c-2.79-0.43-6.01-0.51-7.77-4.4c16.17-6.11,32.15-12.09,48.49-17.48
			c-4.37-1.5-8.51-1.5-12.84-0.47c-7.13,1.69-14.33,3.22-21.72,1.41l0.13,0.16c-6.75-3.12-12.91-0.31-19.08,1.99
			c-2.79,1.04-5.44,2.43-8.22,3.49c-2.28,0.87-4.56,0.83-7.1-1.23c0.58-6.29-1.16-12.5-3.4-18.78c-1.39-3.9-0.79-8.51-1.02-12.8
			c-0.16-2.94,0.13-5.81-3.02-7.83c-2.25-1.44-1.8-4.34-1.03-6.44c2.97-8.17,4.85-16.47,4.28-25.21c-0.14-2.1,0.89-3.8,1.62-5.65
			c0.96-2.46,2.33-5.17,2.07-7.61c-0.54-4.99,1.26-9.19,3.34-13.27c6.25-12.29,7.83-25.77,10.7-38.96
			c1.87-8.6,3.29-17.23,8.15-25.19c8.71-14.29,15.85-29.53,24.32-43.98c3.93-6.7,10.29-12,14-18.79
			c4.61-8.43,10.98-15.38,16.32-23.16c3.01-4.38,5.45-9.02,9.96-12.19c1.53-1.07,2.76-2.86,3.6-4.57
			c5.31-10.79,14.12-19.15,20.26-29.37c2.54-4.24,5.47-8.35,9.22-11.76c2.2-2,3.84-4.35,5.29-7.07
			c4.07-7.63,10.96-13.01,16.75-19.26c7-7.55,14.22-14.9,21.61-22.06c26.42-25.6,52.9-51.14,79.47-76.59
			c8.03-7.7,14.55-16.35,19.03-26.56c1.46-3.32,3.19-6.53,4.87-9.75c1.72-3.28,3.05-6.59,2.8-10.43c-0.11-1.61,0.11-3.4,0.71-4.89
			c2.11-5.21,1.38-10.35,0.38-15.65c-0.79-4.22-1.08-8.59-1.12-12.89c-0.16-15.95-2.06-31.78-3.06-47.66
			c-0.85-13.59-1.56-27.25-0.79-40.91c0.41-7.3,0.31-14.64,0.47-21.96c0.08-3.66-0.73-7.18-1.84-10.78
			c18.19,16.81,28.82,39.64,46.44,56.54c2.48-0.86,2.64-2.14,1.54-3.89c-1.76-2.79-2.6-6.09-5.24-8.4
			c-14.22-12.39-24.57-27.92-35.08-43.33c-3-4.39-6.41-8.51-9.18-13.04c-4.98-8.12-12.22-14.99-12.95-24.31
			c-3.17-1.52-4.01,0.13-5.03,1.27c-0.66-0.33-1.43-0.48-1.81-0.94c-4.92-6.06-7.22-13.4-9.94-20.54c-0.24-0.62-0.83-1.41-0.64-1.85
			c3.98-9-1.54-18.05,0.57-27.45c2-8.89,0.64-18.57,0.45-27.89c-0.19-8.71,0.35-17.32,2.94-25.65c0.92-2.95,1.62-5.95,1.01-8.83
			c-2.21-10.43,0.88-20.39,2.6-30.39c2.66-15.44,8.31-29.92,15.58-43.8c2.15-4.11,3.85-8.48,5.44-12.85
			c6.16-17.03,16.18-32.01,25.3-47.44c3.14-5.32,5.04-10.84,5.1-16.88c0.08-7.96,0.43-15.91-1.21-23.86
			c-5.6-27.28-4.93-55-3.75-82.52c1.04-24.25,7.64-47.63,16.96-71.45c3.96,4.54,8.19,7.54,10.76,12.3
			c3.71,6.88,10.24,11.31,15.24,17.09c1.18,1.36,2.98,1.26,5.37,0.04c-3.12-10.44,1.33-20.3,3.61-30.47
			c0.36-1.62,1.11-3.28,0.95-4.85c-0.44-4.23-1.28-8.42-2.07-13.31c-9.97,5.58-16.23,15.28-26.33,20.18
			c-1.41-1.14-2.73-2.11-3.93-3.22c-3.01-2.79-4.19-6.74-6.37-10.05c1.33-2.34,3.84-2.37,5.85-3.36c2.81-1.38,6.5-1.94,7.14-5.98
			c3.25,0.29,6.55,0.7,9.27-4.52C1944.52,1265.09,1941.14,1264.52,1939.39,1267.85z M1972.62,1258.94
			c4.77-3.48,4.03-8.61,4.83-14.37c-4.52,4.75-4.03,9.83-4.62,14.61c-1.24,3.44-2.72,6.87-0.34,11.01
			C1974.25,1265.98,1973.69,1262.45,1972.62,1258.94z M1979.56,1923.61c-0.51,3.67-0.64,7.11,4.94,7.32
			c-1.85-1.63-0.81-4.3-2.71-5.82c-0.71-0.57-1.62-0.89-2.45-1.32c0.74-3.31-1.14-5.92-2.78-8.27c-4.87-6.98-8.34-14.67-12.03-22.28
			c-1.3,1.39-3.06,2.52-2.8,4.14c2.03,4.16,3.81,7.7,5.5,11.29C1970.08,1914.69,1973.49,1920.25,1979.56,1923.61z M2094.83,1971.96
			c0.1-0.57,0.19-1.13,0.29-1.7c-6.51-2.23-13.02-4.48-19.55-6.69c-4.76-1.61-9.17-3.69-12.88-7.28c-2.85-2.75-5.92-5.5-9.38-7.35
			c-9.78-5.22-13.79-15.79-21.72-22.66c-2.22-7.42-9.43-9.67-14.65-13.93c-1.7-1.39-4.37-2.12-6.55-0.67
			c-2.47,1.64-3.03,4.27-2.32,7.07c1.96,7.75,4.46,15.33,8.95,22.02c4.7,7,8.57,15.06,18.45,16.28c0.56,0.07,1,0.84,1.57,1.18
			c5.88,3.49,11.52,7.71,18.13,9.48c6.46,1.73,12.59,4.04,18.65,6.76c4.68,2.1,7.23,2.1,12.04,1.17c-0.64-2.07-3.51-0.99-4.74-3.7
			C2085.89,1971.96,2090.36,1971.96,2094.83,1971.96z M2129.45,799.01c4.24-4.16,9.1-6.4,13.65-8.96
			c5.68-3.19,10.52-7.68,13.33-13.04c3.39-6.47,7.98-12.18,10.95-18.86c1.19-2.68,2.65-6.35,4.9-7.22
			c5.52-2.14,4.01-6.23,5.29-10.62c-11.42,6.96-21.79,13.23-30.98,21.23c-0.49,0.43-1.14,0.69-1.68,1.07
			c-10.82,7.66-22.09,14.69-32.2,23.35c-5.15,4.42-6.73,8.01-5.23,12.83c1.37,4.4,9.84,10.59,15.24,8.63
			c7.14-2.59,14.19-5.18,20.08-10.54C2137.72,794.15,2135.16,801.1,2129.45,799.01z M2001.65,1265.26
			c5.8,15.27,11.65,30.68,17.49,46.07c-3.9,3.79-8.72,5.58-11.58,9.89c1.1,0.24,1.88,0.68,2.3,0.45
			c14.34-7.65,28.64-15.36,42.95-23.06c1.87-1.01,3.21-2.37,2.81-4.85c-2.3-2.16-4.58-4.46-7.02-6.58
			c-10.61-9.22-22.32-16.73-35.27-22.24C2009.68,1263.38,2005.93,1261.62,2001.65,1265.26z M2168.64,806.86
			c-2.79-0.95-3.57,0.74-4.38,1.98c-1.79,2.75-2.89,6.2-5.22,8.32c-7.44,6.76-15.32,13.07-24.61,17.2
			c-4.82,2.15-9.67,5.01-15.62,2.64c1.88-3.63,4.48-5.61,7.57-6.94c6.74-2.9,12.6-7.23,18.72-11.15
			c6.78-4.35,11.21-10.52,14.86-17.58c-2.12-0.88-3.66,0.2-4.97,0.85c-12.76,6.36-25.49,12.78-38.08,19.46
			c-3.18,1.69-5.81,4.41-8.74,6.58c-4.58,3.39-4.3,10.22,2.4,12.34c8.34,2.64,16.82,2.28,24.28-1.83
			c10.69-5.89,20.48-13.27,28.45-22.72C2165.54,813.35,2167.79,810.62,2168.64,806.86z M2100,1918.35c2.09-1.56,3.5-4.23,3.53-6.41
			c0.07-5.82,2.75-10.84,4.12-16.22c3.99-15.73,9.08-31.14,16.74-45.56c7.33-13.78,14.56-27.6,22.07-41.28
			c2-3.65,2.83-7.07,1.04-11.42c-1.84,0.98-3.05,2.34-4.19,3.99c-6.94,10.13-13.13,20.69-19.06,31.45
			c-5.1,9.26-10.38,18.43-13.94,28.41c-6.16,17.29-9.45,35.24-11.66,53.41C2098.5,1916.04,2098.28,1917.32,2100,1918.35z
			 M2397.42,2957.82c-0.54,0.36-1.08,0.73-1.62,1.09c0.86,1.24,1.59,2.6,2.6,3.7c4.5,4.86,9.06,9.68,13.65,14.46
			c20.23,21.04,41.94,40.51,63.75,59.88c6.93,6.16,14.15,12.01,21.3,17.91c2.53,2.09,5.16,2.83,7.44-0.91
			c-5.99-4.5-11.72-9.36-17.98-13.39c-9.2-5.92-16.18-14.31-24.47-21.24c-15.97-13.34-31.18-27.64-45.58-42.74
			C2410.35,2970.12,2403.79,2964.06,2397.42,2957.82z M1846.59,2320.02c-3.21,0.42-6.9-0.02-9.5,1.47
			c-3.41,1.96-7.26,3.09-10.37,5.46c-1.26,0.96-2,2.62-2.87,3.82c4.77,4.79,9.61,1.55,14.3,0.95
			C1844.28,2330.93,1843.79,2324.37,1846.59,2320.02z M1719.82,2378.15c11.14-0.78,33.94-10.42,42.27-17.87
			C1744.09,2365.26,1726.97,2372.49,1719.82,2378.15z M2315.81,2807.48c-6.77,0.09-12.87-0.74-18.71-3.07
			c-1.33-0.53-2.29,0.89-2.71,2.25c7.66,5.37,17.08,9.01,19.96,7.33c0.39-0.86,1-2.01,1.42-3.24
			C2315.98,2810.19,2315.81,2809.49,2315.81,2807.48z M1988.51,1539.39c-5.39,8.02-9.11,22.82-7.62,32.05
			C1984.07,1559.48,1988.03,1549.97,1988.51,1539.39z M2033.53,1244.7c-3.62-4.54-7.06-9-10.65-13.34
			c-3.57-4.32-5.91-9.71-10.87-12.87c3.42,10.74,11.96,17.9,18.13,26.7C2030.65,1245.92,2031.8,1246.25,2033.53,1244.7z
			 M2060.11,1268.15c-4.68-1.67-8.64-5.9-15.4-5.59c2.85,5.36,6.62,8.22,10.85,11.94
			C2057.12,1272.32,2058.43,1270.5,2060.11,1268.15z M2319.96,2820.97c-4.32-0.09-7.93,2.36-12.75,2.95
			c3.45,4.65,7.21,3.74,10.76,3.4c0.82-1.77,1.5-3.18,2.11-4.61C2320.2,2822.45,2320.05,2822.07,2319.96,2820.97z M2101.79,1312.15
			c0.54,9.25,0.54,9.25,7.36,13.97C2105.42,1322.68,2105.62,1317.29,2101.79,1312.15z M2164.45,779.1c-4.1,1.82-5.38,4.6-8.31,8.67
			C2160.64,785.05,2163.79,783.92,2164.45,779.1z M2232.81,1671.18c-3.61,0.03-5.3,2.27-8.03,6.09
			C2228.4,1674.52,2230.6,1672.85,2232.81,1671.18z M2096.84,1940.07c-1.91,3.72-3.35,5.85,0,8.98
			C2096.84,1945.92,2096.84,1943.79,2096.84,1940.07z M2310.86,2796.98c-3.86-0.67-6.11-0.93-8.08,1.73
			C2305.46,2799.95,2307.59,2800.41,2310.86,2796.98z M1956.31,1872.78c-0.54,2.6-1.33,5.12,0.8,7.34c0.64,0.67,1.15,0.66,1.96-0.69
			C1959.19,1877.27,1957.51,1875.16,1956.31,1872.78z M2060.6,1288.97c1.32,1.01,2.57,0.51,3.81,0.32c1.23-0.18,2.62-0.11,2.72-2.94
			C2064.26,1285.35,2062.51,1287.29,2060.6,1288.97z M2247.22,1690.32c4-1.09,5.31-3.03,6.35-6.74
			C2250.64,1685.7,2247.93,1686.24,2247.22,1690.32z M2116.31,1335.64c0.91-0.71,1.09-1.68,0.41-2.5c-0.6-0.73-1.48-1.32-2.35-1.73
			c-0.7-0.32-1.33-1.85-2.64,0C2112.69,1333.26,2113.93,1334.98,2116.31,1335.64z"/>
		<path class="st0" d="M3829.19,3101.63c6.83-4.43,14.93-5.26,22.4-7.87c2.7-0.94,5.51-1.5,8.11-3.35c-3.8-1.86-7.05-0.28-9.94,0.98
			c-7,3.03-14.59,3.2-21.85,4.83c-4.28,0.96-8.96-0.32-11.38,5.02c-0.44,0.97-3,1.25-4.62,1.37c-2.97,0.21-5.98,0.06-9.47,0.06
			c-1.44,1.15-1.47,4.66-5.04,4.51c-2.16-0.09-2.31-2.07-3.93-3.14c-2.17,1.06-4.55,2.2-6.9,3.36c-1.85,0.92-3.74,1.65-5.63,0.24
			c-2.15-1.61-4.72-1.46-6.69-0.53c-10.18,4.78-21.66,3.82-32.12,7.7c-8.01,2.97-16.64,4.42-25.1,6.01
			c-15.31,2.89-30.61,5.85-45.71,9.7c-0.65,0.16-1.28,0.56-1.91,0.56c-13.41-0.02-26.43,5.32-40.01,2.89
			c-2.09-0.37-3.3,0.09-4.74,2.16c-1.62,2.34-4.72,2.55-7.87,1.86c-4.71-1.02-9.57-1.19-14.25,0.64c-1.23,1.92,2.04,3.38,0.14,5.86
			c-5.86,1.22-12.09,2.69-18.72,3.16c-11.91,0.84-23.75,2.75-35.61,4.35c-2.26,0.31-4.36,1.19-6.19,2.89
			c-1.16,1.08-3.1,1.02-4.96,0.07c0.23-0.85,0.46-1.74,0.72-2.62c0.73-2.39-0.34-4.3-2.59-3.57c-2.96,0.95-5.89,0.52-8.76,0.74
			c-4.21,0.32-5.8,2.56-6.59,6.15c-6.47,2.97-14.06,0.43-19.11,3.96c-4.13,0.48-4.03-3.51-6.6-3.6c-2.04,0.71-0.38,3.17-3.39,4.76
			c-4.22,0-9.84-0.03-15.45,0.01c-6.93,0.04-13.92-0.77-20.7,1.55c-2.91,1-5.55,0.1-8.02-1.66c1.27-1.44,3.46-0.23,4.79-2.81
			c-9.46,0.18-18.46-1.38-27.5,1.06c-2.82,0.76-5.91,0.54-8.89,0.71c-8.56,0.48-17.18-1-25.69,1.78c-3.33,1.09-7.24,0.35-10.85-0.69
			c-5.79-1.67-11.69-2.59-17.74-1.46c-0.96,0.18-2.09,0.37-2.96,0.05c-13.28-4.89-27.12-0.19-40.61-2.39
			c-5.09-0.83-10.5,0.26-15.79,0.23c-5.72-0.04-11.14-0.77-16.68-1.8c-16.84-3.14-18.7-7.01-19.12-23.16
			c-0.31-12.07-2.16-23.85-5.22-35.42c-1.16-4.39-2.49-9.07-5.52-12.72c-2.6-3.12-5.3-6.19-8.03-9.16
			c-2.07-2.25-3.72-4.57-5.16-7.15c-7.94-14.23-16.54-27.94-29.6-38.21c-3.22-2.53-5.2-6.01-6.79-9.73
			c-11.76-27.58-25.13-54.36-40.21-80.27c-2.54-4.37-3.58-9.21-5.34-13.81c-4.29-11.23-10.46-21.48-16.51-31.75
			c-15.74-26.75-32.41-52.93-51.3-77.57c-13.75-17.93-28.41-35.16-42.77-52.62c-6.75-8.21-13.47-16.4-19.36-25.29
			c-3.27-4.94-7.81-9.03-11.66-13.61c-15.64-18.56-30.84-37.51-46.98-55.62c-11.29-12.66-22.24-25.59-33.21-38.52
			c-3.21-3.78-5.04-7.74-5.03-12.6c0.01-7.33-0.39-14.7,0.26-21.98c0.64-7.12,0.22-14-2.06-20.68c-3.99-11.71-5.67-23.9-7.47-36.03
			c-3.26-22.05-8.55-43.67-13.31-65.4c-1.49-6.79-3.75-13.45-3.46-20.54c0.08-2.1-0.48-4.05-1.88-5.54
			c-4.28-4.55-5.94-10.35-7.64-16.04c-5.42-18.2-13.4-35.39-20.63-52.87c-3.78-9.14-10.08-17.08-13.27-26.56
			c-3.47-1.87-5.38-5.38-8.17-7.9c-11.67-10.5-21.23-22.94-31.99-34.26c-8.26-8.69-16.38-17.47-25.87-24.89
			c-3.13-2.45-5.81-5.47-8.73-8.19c-3.18-2.96-5.38-6.01-1.93-10.26c0.51-0.63,0.69-2.11,0.31-2.77
			c-3.27-5.65-1.42-11.73-1.37-17.55c0.11-12.05-2.42-23.79-3.42-35.69c-0.53-6.28-1.42-12.55-1.71-18.84
			c-0.35-7.37,4.55-10.82,11.54-8.02c4.09,1.64,8.14,2.66,12.52,3c3.28,0.25,6.73,0.49,9.66,2.24c6.46,3.85,13.49,5.42,20.92,5.68
			c1.27,0.04,2.52,0.63,2.69,0.68c7.99,10.45,10.44,22.26,14.77,33.26c1.89,4.78,4.37,9.02,8.15,12.36
			c10.74,9.49,19.77,20.54,29.22,31.23c10.36,11.71,21.61,22.52,35.03,30.83c5.17,3.2,9.25,7.6,12.28,12.85
			c4.03,6.97,8.57,13.54,14.98,18.48c2.8,2.16,3,4.78,3.26,7.85c1.28,14.84,7.9,27.34,17.81,38.09c2.84,3.09,6.43,5.75,10.72,7.1
			c8.35,2.62,14.21,8.06,17.51,16.18c1.12,2.75,3.45,3.87,6.01,4.78c10.69,3.8,20.53,9.41,30.72,14.29c2.66,1.27,5.65,2,8.57,2.56
			c5.58,1.06,11.05,2.36,16.12,5.04c1.16,0.61,2.38,1.45,3.62,1.52c9.64,0.58,18.98,3.42,28.68,3.67
			c10.56,0.27,20.26-3.21,30.06-6.27c9.89-3.09,15.69-0.67,19.34,9.07c1.98,5.27,3.18,10.79,4.39,16.32
			c2.98,13.66,6.8,26.89,16.07,38.16c12.39,15.06,27.72,25.53,45.66,32.63c10.94,4.33,22.42,6.14,34.02,6.94
			c5.07,0.35,9.73,1.42,14.44,3.12c4.68,1.68,9.57,2.76,14.19,4.06c1.75,1.07,2.06,2.78,2.39,4.37
			c2.34,11.15,8.21,20.23,16.66,27.59c5.76,5.02,11.55,10.01,17.94,14.28c7.19,4.8,13.92,10.3,21.18,14.99
			c13.93,9.01,29.11,14.01,45.89,14.9c7.29,0.38,14.44-0.69,21.63-0.28c5.43,0.3,9.52-1.65,13.41-5.27
			c6.08-5.65,12.46-11,19.95-14.81c1.45-0.73,2.96-1.33,3.83-1.71c3.64,0.47,3.18,3.92,6.07,5.31c8.11-3.21,16.2,0.06,24.37,2.81
			c11.32,3.82,23.09,5.26,34.13,6.85c-0.33,0.11-1.81-0.09-1.84,2.28c9.76,1.71,18.74,0.63,26.78-6.02
			c9.26-7.65,18.52-15.08,23.9-26.38c2.87-6.02,7.03-7.04,13.43-4.78c3.81,1.35,6.96,3.75,9.77,6.68
			c8.3,8.64,18.29,13.66,30.32,15.34c6.82,0.95,13.25,3.86,20.39,4.22c4.96,0.25,9.94,0.44,14.92,0.69c4.78,0.24,9.09-0.99,13.45-3
			c8.13-3.75,16.36-7.46,24.85-10.24c18.34-5.99,29.03-19.08,35.33-36.46c0.99-2.74,0.94-5.89,1.16-8.86
			c0.24-3.31,0.22-6.65,0.35-9.97c0.01-0.3,0.28-0.6,0.48-1c3.36-3.27,6.78-3.33,10.35-0.06c2.45,2.25,5,4.37,7.54,6.51
			c9.57,8.05,20.85,11.12,33.11,12c23.59,1.69,42.55-7.86,59.3-23.41c9.79-9.09,18.25-19.33,26.54-29.73
			c0.81-1.02,1.46-2.22,1.94-3.44c6.93-17.75,21.79-27.72,36.83-37.46c5.46-3.54,12.12-5.49,13.68-13.31c0.66-3.32,4.17-4.95,7-6.77
			c12.25-7.88,22.41-18.1,27.76-31.56c5.18-13.04,11.45-25.93,12.44-40.4c0.48-7.03-2.25-12.92-5.1-18.95
			c2.32-2.61,7.08-1.97,8.27-6.42c0.29-1.1,2.67-2.13,4.2-2.32c5.25-0.66,8.83-2.42,8.12-8.69c-0.11-0.97,1.34-2.23,2.25-3.18
			c9.5-9.98,15.28-22.22,20.97-34.5c1.56-3.36,3.21-6.65,6.05-9c6.74-5.6,9.1-13.4,8.98-21.36c-0.16-9.58,2.01-18.32,5.4-27.03
			c2.76-7.09,4.43-14.28,4.46-22.12c0.02-4.96,2.7-10.11,4.96-14.81c4.59-9.56,9.02-19.21,13.83-28.68
			c5.71-11.23,7.85-23.9,7.55-36.67c-0.14-6.07-2.04-11.86-5.79-16.69c-3.26-4.19-2.42-7.49,0.37-11.59
			c6.36-9.35,12.95-18.81,15.74-29.89c3.82-15.14,11.29-28.99,14.69-44.27c1.36-6.1,4.27-11.86,6.45-17.78
			c1.61-4.36,4.04-8.62,4.63-13.12c2.74-20.75,8.86-40.84,11.56-61.58c1.71-13.15,3.4-26.3,3.15-39.63
			c-0.29-15.96,1.74-31.84,1.42-47.84c-0.3-15.02-2.22-29.75-5.07-44.42c-1.21-6.19-2.41-12.37-2.8-18.68
			c-0.25-3.97-0.47-7.94-1.68-11.8c-3.32-10.57-2.66-21.7-4.28-32.53c-1.24-8.28-2.82-16.44-5.48-24.26
			c-4.69-13.82-9.91-27.48-16.64-40.5c-7.34-14.18-13.59-28.89-20.42-43.32c-11.94-25.22-25.24-49.72-40.87-72.95
			c-11.5-17.09-22.48-34.54-34.87-51.03c-6.8-9.05-14.3-17.5-22.2-25.57c-2.33-2.38-4.87-4.54-6.75-7.55
			c2.82-1.06,5.13,0.47,7.22,1.67c16.45,9.39,34.01,16.63,50.22,26.52c15.39,9.39,30.3,19.2,42.74,32.5
			c9.1,9.73,18.62,19.08,28.26,28.29c8.98,8.58,16.33,18.4,23.15,28.67c15.46,23.29,30.42,46.91,45.75,70.26
			c12.3,18.73,21.39,38.99,32.34,58.32c11.52,20.34,19.35,42.27,29.31,63.27c4.88,10.28,6.35,21.62,10.13,32.26
			c10.03,28.22,17.25,57.23,23.8,86.44c4.36,19.45,9.63,38.69,13.23,58.32c4.43,24.17,8.81,48.32,11.6,72.78
			c2.68,23.42,5.05,46.83,6.07,71.44c1.74-2.01,2.78-3.92,4.39-4.9c2.48-1.51,3.24-3.27,2.02-5.75c-1.5-3.04,0.75-4.67,1.93-6.77
			c1.54,16.3,2.78,32.44,3.52,48.63c2.31,50.6,1.2,101.23,0.98,151.83c-0.08,18.59,0.24,37.35-1.5,55.81
			c-1.3,13.8-0.87,27.78-3.64,41.5c-1.1,5.46-0.47,11.28-0.6,16.93c-0.05,2.33,0.02,4.67-0.04,7c-0.16,6.19-6.11,11.02-4.21,17.69
			c1.91,6.69-0.04,13.14-0.87,19.73c-0.78,6.25-1.21,12.54-2.17,18.8c-3.07,20.01-5.82,40.07-8.74,60.11
			c-0.28,1.95-0.52,4.05-1.43,5.73c-2.15,4.01-2.48,8.17-1.98,12.54c0.47,4.08-0.36,7.88-2.2,11.59c-2.34,4.74-3.62,9.88-4.71,15.65
			c-2.28-6.12-0.44-11.57,1.15-18.33c-5.11,3.82-4.67,8.55-5.81,12.27c-1.24,4.07-0.48,8.32,3,11.93c3.36,3.49,2.79,8.61,4.36,13.08
			c-2.67,0.24-2.61-2.15-4.38-2.68c-5.96,1.64-1.4,6.61-2.88,10.18c-1.39-2.03-2.61-3.82-3.82-5.6
			c-5.65,11.55-7.48,24.26-10.65,36.58c-2.64,10.26-4.67,20.72-7.9,30.79c-4.66,14.53-8.51,29.3-13.23,43.82
			c-5.44,16.74-10.61,33.57-17.28,49.85c-4.91,11.98-10.61,23.63-16.13,35.35c-6.64,14.1-13.49,28.1-20.19,42.17
			c-5.28,11.09-11.34,21.73-17.96,32.08c-6.96,10.89-13.71,21.92-20.3,33.03c-5.95,10.03-12.37,19.72-19.78,28.72
			c-3.19,3.88-5.41,8.28-7.97,12.51c-1.58,2.62,0.01,4.34,1.44,6.41c-1.35,1.16-3.3,2.06-3.94,3.53c-2.09,4.8-6.27,7.66-9.65,11.24
			c-2.58,2.73-5.98,4.59-7.62,8.33c-1.11,2.54-3.7,4.15-6.41,4.12c-3.88-0.04-5.66,2.73-8.14,4.75
			c-10.03,8.21-19.93,16.6-30.32,24.34c-9.05,6.74-18.66,12.75-28.09,18.98c-7.68,5.07-14.86,10.59-19.24,19
			c2.39,1.78,4.41-1.65,7.04,0.09c-0.98,3.26-3.23,5.07-6.52,6.17c-5.01,1.68-9.98,3.52-14.24,6.81c-4.89-0.47-9.54,1.36-13.09,3.9
			c-7.11,5.07-15.57,7.23-22.8,11.85c-1.69,1.08-4.67,0.32-4.95,3.81c13.63-4.39,26.36-10.51,39.04-16.73
			c1.18-0.58,2.11-1.55,1.54-3.13c2.75,1.52,6-1.06,8.66,1.08c0.24,0.19,0.35,0.56,0.76,1.25c-0.79,3.83-4.8,4.63-7.52,6.36
			c-14.03,8.88-28.63,17.08-44.36,22.17c-17.87,5.78-35.48,12.33-53.47,17.74c-7.37,2.22-15.14,1.42-22.51,3.48
			c-0.9,0.25-2.25-1.13-3.39-1.76L3829.19,3101.63z M3486.99,3159.64c0.57-4.55-1.5-5.77-4.44-5.87c-3.2-0.11-5.73,0.87-5.94,4.76
			C3479.89,3161.19,3483.21,3160.77,3486.99,3159.64z M3595.4,3142.6c-3.19-0.56-5.96-1.86-8.82-0.02
			C3589.42,3144.55,3592.18,3143.13,3595.4,3142.6z M3970.17,2333.31c0.31-0.08,0.65-0.1,0.91-0.26c1.55-0.91,1.93-2.49,1.89-4.05
			c-0.01-0.35-1.58-1.06-2.27-0.9c-2.07,0.48-1.79,2.29-1.58,3.83C3969.19,2332.43,3969.8,2332.85,3970.17,2333.31z"/>
		<path class="st0" d="M2193.49,511.26c0.29,4.99-0.64,9.14-1.6,13.37c-2.55,11.21-6.48,22.31-3.82,34.3
			c1.25,0.37,2.5,0.75,3.75,1.12c0.57-0.29,1.32-0.44,1.68-0.89c2.67-3.39,5.12-6.96,7.95-10.22c1.9-2.19,2.12-4.79,2.76-7.35
			c2.65-10.6,6.2-20.97,7.72-31.02c2.76-3.36,6.2-2.3,8.88-3.49c4.66-2.06,8.99-0.84,13.36,1.25c13.65,6.51,17.67,15.1,13.96,30.69
			c-4.04,2.32-8.33-0.44-12.49,0.14c-4.05,0.56-8.57-0.29-11.94,3.54c5.64,3.89,12.81,1.84,18.58,6.04c-2.55,4.93-7.33,6.04-12,7.12
			c-2.22,0.52-4.67-0.28-6.85,0.89c-2,1.07-1.56,2.59-0.63,4.32c-8.56,4.24-14.83,10.12-13.8,20.86
			c-6.39,2.58-12.63,4.82-18.63,7.57c-12.25,5.61-18.4,16.66-16.7,28.84c0.83,5.93,4.15,10.36,7.78,14.72
			c1.85,2.21,4.68,3.63,5.56,6.57c-1.52,2.64-4.1,1.89-6.26,2.44c-10.46,2.67-14.86,11.63-10.44,21.58
			c1.31,2.95,3.42,5.55,5.46,8.76c-5.91,6.17-10.24,13.63-15.36,20.53c-9.2,12.38-21.41,21.08-35.39,26.8
			c-22.13,9.06-44.69,17.07-67.33,24.82c-12.56,4.3-24.96,9.03-37.74,12.69c-14.1,4.05-28.35,7.11-43.04,7.82
			c-4.35,0.21-8.6,0.83-12.7,2.35c-7.27,2.69-14.99,3.02-22.55,3.41c-7.49,0.39-14.91-2-19.83-7.65c-4.85-5.57-10.06-9.39-17.74-10
			c-0.69-4.81-3.28-8.65-2.66-13.68c1.19-9.76,4.1-17.61,14.19-21.83c6.5-2.72,12.96-6.17,19.22-12.14
			c-6.55-1.59-9.57,2.79-13.46,4.38c-4.21,1.72-7.51,5.38-12.27,6.32c-0.53-11,5.34-20.17,7.11-30.32c0.19-1.1,2.57-1.82,4.56-3.13
			c-1.7-6.16,0.75-12.09,3.48-17.92c0.38-0.8,1.78-1.22,1.97-1.99c2-8.3,3.95-16.61,5.71-24.96c0.8-3.81,1.15-7.71,1.71-11.62
			c-3.56-2.12-7.32-0.61-11.48-1.09c2.2-2.58,0.32-5.23,1.6-8.15c9.65-3.25,19.03-8.01,28.35-12.97c3.04-1.62,5.61-3.49,7.66-6.16
			c7.88-10.27,15.7-20.59,23.65-30.81c4.7-6.04,6.53-12.68,6.5-20.39c-0.05-17.94,1.47-35.71,7.24-52.95
			c1.94-5.79,4.29-11.19,8.16-15.83c5.74-6.89,11.75-13.56,17.57-20.39c2.7-3.16,5.9-5.04,10.08-5.81
			c6.18-1.14,11.7-3.87,17.36-6.84c11.11-5.83,23.2-9.68,35.43-12.73c1.59-0.4,3.33-0.41,4.98-0.27c13.35,1.11,26.97-1.77,40.1,3.7
			c3.65,1.52,6.68,4.1,10.59,5.19c2.54,0.71,3.75,3.72,3.59,6.59c-0.28,4.75,0.93,9.2,2.15,13.71c0.97,3.58,0.75,7.14-0.54,10.77
			c-3.92,10.92-7.04,22.12-12.3,32.55c-2.37,4.7-4.29,9.7-5.26,14.97c-1.04,5.6-3.06,10.83-5.67,15.9
			c-1.65,3.19-2.84,6.62-4.01,9.43c1.14,2.94,3.39,2.73,5.37,4.2c7.2-14.94,16.51-27.64,29.8-38.1c1.18,5.41-1.32,9.56-2.01,13.94
			c-3.93,24.88-11.34,49.15-13.09,74.41c-0.18,2.54-1.14,5.23,1.31,7.9c6.38-6.63,7.7-15.68,11.8-23.25
			c4.27-7.9,8.95-15.6,12.69-23.74c3.74-8.13,6.43-16.74,9.76-25.07c3.25-8.13,3.52-17.37,8.35-24.7c4.88,0.93,2.76,6.33,6.22,7.66
			C2192.94,516.87,2189.29,512.64,2193.49,511.26z M2091.44,492.19c-18.88-20.95-69.09-11.32-89.21,16.38
			c0.83,0.78,1.67,1.58,2.52,2.38c-2.3,7.21-4.54,14.45-6.93,21.64c-2.76,8.29-2.55,8.95,5.26,12.99c1.14,0.59,2.36,1.03,2.48,1.08
			C2037.77,533.56,2068.38,519.33,2091.44,492.19z M1935.27,648.58c3.05,4.03,5.91,4.03,8.33,1.62c3.73-3.72,7.25-7.67,10.07-12.21
			c2.25-3.63,2.13-7.54,2.02-11.52c-0.08-2.86-2-4.08-4.3-4.76c-5.13-1.52-10.93,2.27-11.24,7.77
			C1939.77,636.15,1938.97,642.61,1935.27,648.58z M2069.87,627.51c4.53-2.89,8.05-5.78,11.16-9.17c0.87-0.95,1.81-1.87,1.7-3.32
			c-0.49-1.31-1.47-2.08-3.72-2.73C2076.29,617.02,2068.42,618.48,2069.87,627.51z M2046.21,643.36
			c6.29-1.76,12.44-3.92,17.88-10.21C2055.2,633.31,2051.68,640.07,2046.21,643.36z"/>
		<path class="st0" d="M2305.97,436.95c1.65,2.81,1.6,6.6-0.57,9.6c-2.01,2.8,1.48,6.43-1.38,8.13c-2.37,1.41-3.98,2.85-5.44,5.21
			c-1.7,2.76-4.12,5.06-5.91,7.91c-5.48,8.71-13.95,13.62-23.24,17.52c-3.77,1.58-6.83-0.47-9.4-1.67
			c-5.19-2.43-10.1-5.51-10.89-12.69c-0.56-5.09-0.41-9.06,2.24-13.78c11.17-19.86,11.61-13.77,9.39-40.27
			c-0.05-0.66-0.58-1.46-0.34-1.92c0.39-0.76,1.22-1.29,1.86-1.91c0.57,0.77,1.14,1.53,2.27,3.07c1.49-3.13,5.78-4.54,1.83-8.77
			c-1.91-2.04,0.7-4.31,0.9-6.55c0.29-3.39,2.97-6.63,0.78-10.26c-3.9,0.47-0.93,5.22-4.49,5.81c-0.91-3.72-0.54-7.66,1.55-10.49
			c2.92-3.95,3.65-8.37,4.92-12.8c1.75-6.13,4.76-11.77,8.47-16.88c10.09-13.9,19.69-28.17,31.42-40.84
			c8.09-8.73,16.38-17.23,25.14-25.26c1.46-1.34,3.07-2.57,4.26-4.12c6.78-8.88,16.66-13.97,25.17-20.72
			c0.95-0.76,2.45-1.25,3.66-1.18c4.34,0.22,7.16-1.16,9.78-5.08c2.18-3.27,3.78,0.72,5.3,2.31c2.48-0.1,1.22-2.75,3.12-3.83
			c1.9,0.29,4.4,0.68,7.27,1.12c-1.32,4.27-2.46,7.96-3.95,12.81c6.72-4.94,8.26-12.83,14.79-17.37c3.15,2.16,7.1,2.08,10.34,1.99
			c3.72,2.23,0.28,7.55,5.03,8.34c-0.14,5.55-4.33,9.37-6.11,14.68c5.42-0.4,5.17-6.17,9.17-7.6c-0.06,5.49-1.89,10.46-3.35,15.49
			c-0.91,3.16-3,5.96-2.63,9.51c0.1,0.92-0.14,2.45-0.73,2.78c-5.75,3.16-6.38,8.96-7.75,14.42c-0.24,0.95-0.7,1.93-1.34,2.66
			c-9.81,11.26-15.22,25.58-25.59,36.51c-3.13,3.3-6.02,7.48-7.22,11.76c-1.22,4.38-6.86,4.05-7.21,8.94
			c-0.33,4.51-4.29,7.91-7.17,10.44c-8.65,7.59-13.72,18.76-24.41,24.2c-0.83,0.42-1.54,1.19-2.15,1.93
			c-2.72,3.33-5.3,7.42-9.26,8.69c-4.26,1.37-4.64,5.69-8.1,7.66C2312.44,428.53,2310.02,432.57,2305.97,436.95z"/>
		<path class="st0" d="M2736.18,2680.89c-5.27-0.35-8.39-2.2-11.58-3.75c-44.32-21.49-87.45-45.21-130.34-69.38
			c-6.93-3.91-13.56-8.38-19.72-13.54c-7.9-6.61-16.01-12.97-24.02-19.44c-9.12-7.37-17.04-15.69-23.29-25.78
			c-8.05-12.99-17.44-25.14-23.88-39.14c-8.29-18.01-12.92-36.91-14.27-56.63c-0.3-4.31-0.37-8.58-1.16-12.88
			c-1.22-6.61,0.76-13.21,1.07-19.83c0.75-15.92,1.38-31.85,2.1-47.78c0.06-1.29,0.45-2.57,0.78-4.39
			c6.03,0.67,11.18,3.77,14.42,7.64c5.88,7.01,10.29,15.23,13.22,24.12c1.28,3.9,1.61,7.79,1.49,11.8
			c-0.33,10.69,1.24,21.18,3.25,31.63c0.31,1.62,0.69,3.27,0.7,4.91c0.07,11.48,3.56,22.09,7.95,32.52c1.8,4.27,2.98,8.8,4.61,13.15
			c5.25,14.02,12.87,26.76,20.72,39.46c4.17,6.74,9.17,12.93,12.92,19.9c1.13,2.11,2.55,3.85,4.25,5.47
			c1.44,1.38,3.03,2.73,4.05,4.4c10.56,17.22,25.29,30.77,40.04,44.04c7.95,7.15,15.99,14.94,26.82,18.31
			c2.81,0.87,5.4,2.46,8.06,3.77c7.05,3.45,13.71,7.14,21.81,8.81c9.53,1.97,18.41,7.16,27.49,11.16c3.92,1.73,7.7,3.81,11.4,5.99
			C2724.74,2661.16,2731.84,2669.05,2736.18,2680.89z"/>
		<path class="st0" d="M2792.23,2004.56c4.49-1.62,8.15,0.29,11.69-0.51c0.38-0.62,0.94-1.13,0.98-1.68
			c0.49-6.48,4.24-10.67,9.44-13.98c10.63-6.76,21.12-13.76,31.86-20.34c5.86-3.59,12.02-6.79,18.55-8.18
			c2.94,1.9,2.36,4.48,2.11,6.59c-0.69,5.91-1.09,11.98-2.86,17.6c-2.39,7.59-3.15,15.51-5.54,23.03c-1.28,4-1.4,7.71,0.93,11.19
			c-4.91,3.58-11.34,0.25-16.76,5.18c3.59,0.18,6.15,0.68,8.6,0.36c8.25-1.07,15.6,1.98,23.2,4.35c10.82,3.37,12.67,16.3,9.97,23.02
			c-2.47,6.14-5.98,11.9-12.68,14.53c-7.02,2.75-13.84,6.17-21.68,6.1c-14.38-0.14-27.11-5.1-38.59-13.39
			c-5.1-3.68-10.04-7.65-14.62-11.95c-4.84-4.54-3.71-11.68-6.66-17.26C2785.79,2020.87,2787.14,2012.51,2792.23,2004.56z"/>
		<path class="st0" d="M3024.67,2090.4c0.68,9.15-1.75,18.23-2.18,27.33c-0.43,9.08-3.56,18.03-5.48,26.92
			c-2.3,2.09-5.37,0.18-7.92,2.02c0.13,1.04,0.28,2.27,0.41,3.39c0.54,0.5,0.96,1.23,1.43,1.27c7.54,0.68,12.88,5.53,17.2,10.72
			c6.56,7.87,3.84,19.4-4.17,26.46c-7.68,6.78-15.43,7.45-25.5,5.86c-18.72-2.95-31.43-14.51-44.33-26.33
			c-4.09-3.75-3.47-11.57-0.55-17.48c5.72-11.56,15.1-19.43,25.67-25.87c12.89-7.85,24.31-17.22,33.77-28.95
			C3015.82,2092.29,3018.62,2089.13,3024.67,2090.4z"/>
		<path class="st0" d="M1742.64,3125.97c2.86-6.24,8.14-9.33,14.53-10.13c8.87-1.12,17.83-1.67,26.77-2.11
			c4.02-0.2,7.74-1.19,11.61-2.08c26.7-6.17,47.48-22.91,69.17-38.08c2.96-2.07,5.52-4.78,9.13-5.89c2.57,0.9,1.66,3.22,2.02,4.95
			c0.9,4.39,2.75,8.34,6.37,10.97c2.87,2.09,1.65,4.61,1.64,7.46c1.25,0.08,2.83,0.69,3.7,0.15c9.54-5.94,21.52-5.71,30.79-12.43
			c3.75-2.71,6.69-6.53,11.11-8.26c3.1,0.97-0.08,3.49,1.33,5.01c1.06,1.13,2.65,2.15,2.29,4.33c-1.41,3.04-4.36,4.73-7.19,6.37
			c-10.62,6.13-20.67,13.24-31.84,18.39c-1.81,0.83-3.5,2.24-5.39,2.55c-9.39,1.55-17.43,7.32-26.65,8.86
			c-8.77,1.47-16.53,5.98-25.1,7.38c-8.41,1.37-17.05,1.87-25.59,1.81c-20.29-0.13-40.43,3.4-60.74,2.35
			C1748.1,3127.48,1745.33,3128.53,1742.64,3125.97z"/>
		<path class="st0" d="M3456.43,2430.77c7.37,16.79,14.62,33.31,22.01,50.14c-1.71,2.45-6.57-1.13-8.07,3.56
			c1.66,2.04,4.12,2.42,6.68,2.36c8.35-0.21,15.43,2.88,21.9,7.94c3.64,2.84,7.58,5.3,10.94,7.62c0.38,5.67,0.99,10.86-0.41,15.98
			c-2,7.32-12.56,15.02-19.87,13.12c-15.39-4.02-28.64-11.44-36.1-26.57c1.05-2.33,1.99-4.43,2.92-6.51
			c-1.15-1.7-3.01-0.7-4.64-1.32c-3.96-7.01-2.76-14.61-1.87-22.14c0.31-2.61,1.02-5.19,1.73-7.74c2.11-7.57,4.61-14.86,2.19-23.13
			C3452.69,2440.13,3452.24,2434.92,3456.43,2430.77z"/>
		<path class="st0" d="M3096.73,2275.51c0.26,1.97,0.36,4.06,3.13,4.15c12.85,0.41,23.26,6.27,32.78,14.38
			c4.26,3.63,8.99,6.72,13.48,10.09c2.96,2.23,3.73,5.05,2.97,8.76c-1.81,8.86-6.54,14.05-15.48,17.12
			c-10.12,3.48-18.67,0.28-27.48-3.12c-5.2-2.01-10.12-4.75-15.21-7.04c-8.52-3.82-11.62-11.45-13.15-19.69
			c-1.68-9.04,3.44-15.11,10.57-19.69c2.76-1.77,5.79-3.13,8.7-4.68L3096.73,2275.51z"/>
		<path class="st0" d="M2354.07,1793.33c-0.31-0.99-0.86-1.85-0.64-2.16c8.62-12.17,17.41-24.19,27.07-35.59
			c9.91-11.69,20.16-23.02,31.43-33.4c5.62-5.18,11.47-10.1,17.24-15.12c9.75-8.5,19.45-17.06,29.31-25.43
			c4.07-3.45,7.44-7.48,10.71-11.59c3.65-4.59,8.23-7.62,13.71-9.35c6.44-2.03,13.01,1.32,15.05,7.76c1.19,3.75-0.32,7.37-2.96,9.74
			c-7.61,6.83-15.03,13.96-24.75,18.01c-8.91,3.71-16.53,9.63-24.05,15.54c-14.11,11.08-27.6,22.88-40.84,35
			c-10.04,9.19-20.66,17.74-30.67,26.95C2367.74,1780.07,2361.75,1787.47,2354.07,1793.33z"/>
		<path class="st0" d="M3250.95,2395.84c7.89,0.48,14.75,3.04,21.13,6.44c4.84,2.58,9.9,5.42,11.43,11.68
			c0.44,1.78,2.18,3.24,3.35,4.82c1.18,1.59,2.48,3.09,3.59,4.72c8.94,13.17,3.46,27.27-11.57,32.61
			c-6.06,2.15-11.23,1.35-16.04-1.04c-10.61-5.26-18.8-13.47-23.85-24.28c-2.61-5.59-2.34-11.64,0.42-17.25
			C3242.44,2407.39,3245.55,2401.23,3250.95,2395.84z"/>
		<path class="st0" d="M2328.66,1118.75c-11.09,6.73-20.07,15.11-28.67,23.24c-1.59,2.76,2.32,4.44,0.61,6.77
			c-1.01,1.37-2.33,2.34-4.46,1.92c-0.32-3.21-0.67-6.47-0.96-9.73c-0.12-1.31-0.31-3.21,0.95-3.55c3.81-1.01,3.21-3.24,2.08-5.79
			c-0.79-1.8-1.72-3.54-2.5-5.34c-1.32-3.06-2.81-6.15-2.6-9.55c0.71-11.32-3.48-21.51-7.33-31.73c-1.96-5.22-2.67-10.17-0.78-15.5
			c1.5-4.22,4.33-6.67,8-5.11c5.81,2.46,12.06,3.29,17.8,6.19c12.56,6.36,17.79,17.35,19.69,30.09
			C2331.34,1106.33,2329.39,1112.43,2328.66,1118.75z M2309.64,1126.1c-2.92,1.17-4.34,2.57-5.33,4.87
			C2307.25,1130.83,2308.9,1129.72,2309.64,1126.1z"/>
		<path class="st0" d="M3586.42,2494.03c7.53-9.99,18.15-16.31,29.86-19.77c7.84-2.31,16.54,0.14,24.45,2.57
			c6.35,1.95,10.21,12.29,7.88,19.51c-2.53,7.85-6.99,14.6-14.52,18.17c-4.92,2.33-9.61,5.18-15.69,5.46
			c-10.49,0.49-17.71-4.55-23.68-11.83C3591.45,2504.14,3588.3,2499.73,3586.42,2494.03z"/>
		<path class="st0" d="M2259.14,1933.94c-3.63-2.56-5.95-5.22-5.32-9.4c0.61-4.08,3.65-5.87,6.97-7.71
			c23.3-12.91,46.44-26.23,71.2-36.17c14.61-5.86,29.12-12.03,44.7-15.56c8.22-1.86,16.82-2.98,24.75-6.5
			c4.48-1.99,9.84,0.11,14.44-3.12c0.77,3.04-0.97,3.43-2.27,3.89c-19.26,6.91-37.94,15.25-56.53,23.74
			c-17.42,7.95-34.01,17.55-50.86,26.64c-14.52,7.84-28.18,17.31-43.69,23.25C2261.61,1933.36,2260.64,1933.54,2259.14,1933.94z"/>
		<path class="st0" d="M1577.24,2044.21c-6.32,4.68-10.07,8.31-16.86,7.8c-11.25-0.85-22.82,1.13-33.89-0.54
			c-19.89-3-39.74-0.9-59.59-1.63c-9.29-0.34-18.6-0.04-27.91-0.08c-2.22-0.01-4.63,0.47-6.46-1.42c-0.03-3.36,1.95-5.22,4.42-6.13
			c4.6-1.7,9.29-3.62,14.1-4.23c24.4-3.08,48.91-5.2,73.52-4.03c7.2,0.34,14.51,1.1,21.57,3.12c2.18,0.62,4.6,0.83,6.86,0.65
			c3.17-0.25,6.21,0.68,8.57,2.15C1565.86,2042.5,1570.18,2044.54,1577.24,2044.21z"/>
		<path class="st0" d="M3339.82,2498.24c6.37-4.54,12.35-8.57,19.82-9.76c7.63-1.21,15.11-1.47,22.37,1.68
			c7,3.04,13.3,7.26,19.14,12.09c5.71,4.73,5.58,8.56,0.75,14.29c-4.77,5.66-11.17,8.28-18.03,8.99
			c-12.87,1.34-24.76-1.87-35.1-10.01C3342.99,2510.98,3340.95,2507.22,3339.82,2498.24z"/>
		<path class="st0" d="M2749.54,1449.32c1.25-1.76,2.17-3.05,3.26-4.59c8.3,5.96,13.83,14.34,19.03,22.72
			c6.76,10.9,12.88,22.22,18.74,33.64c6.1,11.86,9.33,24.77,12.02,37.77c1.95,9.41,3.55,18.9,5.45,28.32
			c0.63,3.1,2.69,6.11-2.38,7.81c-1.09,0.36,0.93,5.13-3.2,6.57c-1.89-5.02-3.13-9.96-4.01-15.06c-1.8-10.48-6.4-20.08-9.75-30.07
			c-5.9-17.59-11.19-35.44-19.62-51.99C2763.12,1472.68,2758.53,1460.1,2749.54,1449.32z"/>
		<path class="st0" d="M2574.7,2039.91c-4.07,7.08-10.91,8.12-16.32,10.79c-21.07,10.41-42.84,18.92-66.17,23.32
			c-12.36,2.33-24.78,4.41-37.12,6.85c-3.24,0.64-6.6,0.64-9.91,0.9c-4.27,0.34-8.53,0.07-12.77,1.51c-4.67,1.59-9.26,0.38-12.96-3
			c-3.64-3.33-2.37-9.04,2.39-10.01c3.19-0.65,6.89-1.04,9.86-0.04c7.96,2.67,15.74,1.78,23.56,0.1c11.02-2.36,21.87-5.95,33-7.21
			c14.4-1.64,28.23-5.22,41.96-9.36c13.58-4.09,27-8.73,40.49-13.11C2571.62,2040.36,2572.58,2040.3,2574.7,2039.91z"/>
		<path class="st0" d="M1414.97,3145.59c3.83-3.27,6.9-4.55,10.36-3.77c10.52,2.37,21.2,1.25,31.69,0.7
			c12.13-0.63,24.37-0.66,36.33-4.45c9.43-2.99,18.53-6.6,27.18-11.12c9.49-4.96,19.16-8.33,29.94-8.44c0.04,2.23-1.14,3.4-2.48,4.4
			c-3.99,2.97-8.07,5.82-12.02,8.84c-4.23,3.23-8.74,5.7-13.92,7.29c-9.45,2.89-17.77,8.51-27.45,11.11
			c-21.82,5.88-43.45,8.77-65.22-0.08C1425.19,3148.35,1420.71,3147.34,1414.97,3145.59z"/>
		<path class="st0" d="M3910.61,2250.27c0.17,3.61,0.31,6.56,0.54,11.65c3.94-8.47,6.35-15.46,10.23-21.5
			c4.06-6.3,8.52-12.76,16.47-15.85c3.32,1.38,6.37,3.65,7.11,7.32c1.02,5.11,3.14,10.28,1.25,15.65
			c-1.75,4.99-3.21,10.14-5.49,14.89c-5.82,12.1-18.84,13.17-27.41,7.92c-10.35-6.34-17.73-14.41-23.44-24.59
			c-0.45-0.8-0.51-1.83-0.93-3.46C3897.16,2242.49,3903.64,2246.02,3910.61,2250.27z"/>
		<path class="st0" d="M1721.52,1864.96c-8.66,2.57-16.29,0.25-23.33-1.77c-12.95-3.71-26.16-6.06-39.22-9.15
			c-11.59-2.74-22.75-6.72-34.08-10.22c-12.96-4.01-24.66-11.11-37.72-14.76c-0.81-0.23-1.43-1.15-3.2-2.64
			c5.09-0.96,9.18-0.91,13.19-0.25c10.11,1.66,20.2,3.49,30.28,5.36c13.33,2.47,26.41,6.01,39.17,10.52
			c16.16,5.7,32.13,11.95,48.13,18.09C1717.09,1861.04,1719.81,1861.71,1721.52,1864.96z"/>
		<path class="st0" d="M1477.99,2146.31c-9.98,0.14-16.34-5-23.35-8.3c-15.33-7.2-28.55-17.81-42.71-26.89
			c-3.32-2.13-6.69-4.18-10.02-6.3c-2.98-1.89-3.65-4.53-2.37-7.74c1.19-3,4.69-4.85,8.08-4.04c1.59,0.38,3.12,1.12,4.57,1.91
			c5.49,3,11.46,5.11,16.87,8.09c12.27,6.76,24.69,13.46,35.05,23.18c0.72,0.67,1.72,1.39,1.9,2.24
			C1467.51,2135.61,1473.4,2139.93,1477.99,2146.31z"/>
		<path class="st0" d="M2008.6,784.08c-1.32-4.49-4.86-8.22-11.56-11.43c18.16-1.6,31.9-10.29,47.15-14.05
			c15.04-3.71,29.14-10.27,44.18-14.09c-5.88,6.49-13.27,10.8-20.4,15.34c-9.81,6.26-19.73,12.38-28.59,19.9
			C2030.12,787.6,2020.54,790.49,2008.6,784.08z"/>
		<path class="st0" d="M1686.07,1722.94c2.24-1.1,3.44-0.99,4.76-0.45c26.55,10.79,51.01,25.29,74.67,41.35
			c4.84,3.29,5.41,8,6.95,12.56c0.61,1.81-1.94,3.71-3.98,3.04c-6.98-2.3-13.16-6.22-19.24-10.15
			c-14.24-9.21-28.27-18.73-42.37-28.16c-5.5-3.68-10.68-7.93-16.49-10.99C1686.99,1728.35,1686.92,1725.83,1686.07,1722.94z"/>
		<path class="st0" d="M1618.23,1937.1c0.88-1.91,1.54-3.34,1.99-4.32c0.3-3.34-5.26-1.55-3.91-5.99c0.77-2.56-4.52-2.39-4.73-5.57
			c1.71-1.82,2.95,0.13,4.06,0.78c21.26,12.51,38.94,29.15,54.79,47.86c1.27,1.5,2.4,3.17,3.37,4.88c1.28,2.27,2.34,4.67,3.31,6.64
			c-1.11,2.77-2.75,3.46-4.99,3.12c-4.62-0.7-8.68-2.22-12.49-5.28c-11.15-8.95-20.96-19.26-30.99-29.36
			C1624.69,1945.87,1623.04,1940.16,1618.23,1937.1z"/>
		<path class="st0" d="M3097.03,2275.78c6.21-14.41,25.72-35.4,38.74-41.75c4.36,4.08,3.52,9.74,3.51,14.7
			c0,6.91-1.29,13.81-1.99,20.72c-0.42,4.16-2.92,7.19-5.74,10.77c-11.53-0.95-22.69-6.98-34.82-4.7L3097.03,2275.78z"/>
		<path class="st0" d="M3737.51,2458.25c8.69-15.2,22.23-21.92,38-24.9c6.47,3.97,6.56,10.53,6.9,16.03
			c0.31,4.99-1.51,10.44-6.03,14.04c-0.76,0.61-1.34,1.55-2.19,1.9C3763.23,2469.89,3746.61,2472.06,3737.51,2458.25z"/>
		<path class="st0" d="M1940.45,3017.3c-1.24,7.82-2.41,15.66-3.75,23.46c-0.73,4.27-2.54,8-5.32,11.49
			c-7.53,9.48-15.82,17.9-27.27,22.57c-0.87,0.36-1.87,0.42-3.41,0.74c-0.92-5.55,2.1-10.25,2.38-15.29
			c0.27-4.97,0.66-9.93,1.04-15.66C1915.65,3035.6,1927.85,3026.58,1940.45,3017.3z"/>
		<path class="st0" d="M2274.79,1197.65c-0.34,8.31-2.57,11.68-8.78,12.06c-6.92,0.42-14.2,1.43-20.57-2.01
			c-4.6-2.49-9.63-2.3-14.31-3.28c-19.35-4.08-37.92-10.6-56.67-16.6c-5.56-1.78-10.86-4.36-16.7-6.75
			c2.71-2.46,5.03-1.33,6.99-0.86c11.56,2.78,22.93,6.48,34.6,8.57c15.21,2.72,30.12,7.26,45.68,7.9c3.3,0.14,6.66,0.45,9.9,0.01
			c2.75-0.38,5-0.54,7.47,1.18C2266.32,1200.59,2270.64,1197.75,2274.79,1197.65z"/>
		<path class="st0" d="M2370.64,1423.01c4.38,7.43,13.26,10.76,14.64,19.58c-5.5,2.97-7.38-2.77-11.31-3.25
			c-0.47,1.14-0.97,2.33-1.58,3.8c-8.24-1.09-16.63-2.2-25.01-3.32c-4.54-0.61-7.92-3.18-10.69-6.6c-2.49-3.07-5.23-5.88-8.32-8.23
			c0.39-4.89,3.9-6.96,7.38-6.69c8.08,0.62,16.44-0.65,24.16,3.4C2363.23,1423.44,2367.04,1424.72,2370.64,1423.01z"/>
		<path class="st0" d="M3870.95,2347.91c4.45,1.8,9.27,3.86,10.26,9.3c1.34,7.4,0.01,14.69-5.25,20.35
			c-3.33,3.59-7.38,6.69-11.59,9.22c-5.07,3.05-10.62,2.41-16.41-0.03c-1.51-6.63,1.92-11.99,4.51-17.62
			c1.03-2.24,2.9-3.56,4.38-5.3C3861.35,2358.51,3864.34,2351.87,3870.95,2347.91z"/>
		<path class="st0" d="M2117.26,1245.14c14.75,4.64,26.91,11.62,39.92,16.38c12.9,4.73,26.32,8.03,41.12,12.44
			c-6.88,4.69-13.43,5.48-19.54,5.43c-3.39-0.03-6.9-1.15-10.54-0.5c-2.33,0.42-4.55-0.65-6.7-1.6c-14.01-6.18-27-14.13-39.65-22.7
			C2118.86,1252.55,2117.74,1249.86,2117.26,1245.14z"/>
		<path class="st0" d="M2180.62,1089.34c3.34-4.56,7.64-5.62,11.66-6.6c15.03-3.68,30.03-7.65,45.26-10.27
			c8.39-1.44,17.2-0.46,25.82-0.41c1.2,0.01,2.51,0.78,3.58,1.48c3.3,2.16,3.14,6.44-0.43,7.86c-4.01,1.59-8.22,2.36-12.6,2.55
			c-10.24,0.44-20.48,1.01-30.7,1.88c-11.52,0.97-23,2.37-34.5,3.48C2186.3,1089.54,2183.84,1089.34,2180.62,1089.34z"/>
		<path class="st0" d="M1961.03,457.51c-3.37-2.05-4.8-4.98-5.21-8.4c-1.2-10.05-0.45-20,3.62-29.28
			c2.67-6.08,4.78-12.35,7.15-18.52c2.98-7.72,7.28-14.66,10.68-21.87c2.23,0.29,3.28,2.06,2.94,2.8
			c-3.62,7.83-2.75,16.43-4.21,24.6c-2.7,15.02-6.58,29.77-9.52,44.72C1965.95,454.25,1964.76,456.6,1961.03,457.51z"/>
		<path class="st0" d="M3283.04,2396.96c-8.83-2.29-17.34-6.6-26.79-4.58c-2.43-2.98-1.54-5.87-0.04-8.44
			c4.13-7.05,5.92-15.33,12.13-21.36c2.39-2.32,2.34-6.87,6.58-8.77c2.78,2.47,5.11,5.2,6.3,9.24c2.71,9.26,3.93,18.66,4,28.25
			C3285.23,2392.9,3285.21,2394.65,3283.04,2396.96z"/>
		<path class="st0" d="M3730.34,2391.91c7.19,3.38,8.55,10.71,13.21,15.25c4.4,4.29,7.89,9.52,12.25,14.92
			c-2.59,1.99-5.4,4.03-8.08,6.23c-2.81,2.31-5.45,4.84-8.26,7.15c-2.7,2.22-4.73,5.53-9.51,6.2c-0.15-5.55-2.22-10.17-4-14.89
			c-0.41-1.08-0.21-2.79,0.39-3.79c3.64-6.11,2.61-12.75,2.62-19.31C3728.96,2400.08,3728.17,2396.39,3730.34,2391.91z"/>
		<path class="st0" d="M2500.18,1887.09c-23.12,22.6-51.03,36.18-82.68,42.34C2444.4,1914.19,2470.58,1897.58,2500.18,1887.09z"/>
		<path class="st0" d="M1862.76,1164.55c-2.58,3.51-5.71,4.54-8.72,5.81c-11.59,4.89-23.43,8.39-36.08,9.84
			c-7.22,0.83-14.43,1.09-21.63,1.57c-4.81,0.32-7.34-2.72-6.9-7.39c0.2-2.17,1.33-3.84,3.59-4.14c2.29-0.31,4.63-0.3,6.94-0.34
			c9.27-0.13,18.63,0.75,27.71-1.91c5.07-1.48,10.82,3.13,15.45-1.82c5.67,0,11.17-1.21,16.71-2.18
			C1860.44,1163.9,1861.12,1164.23,1862.76,1164.55z"/>
		<path class="st0" d="M1617.94,3150.73c7.92-3.31,15-4.32,22.08-5.71c14.18-2.77,28.33-6.04,41.96-10.92
			c8.29-2.97,16.56-2.57,25.79-2.17C1687.91,3144.43,1645.8,3155.75,1617.94,3150.73z"/>
		<path class="st0" d="M2663.61,1852.05c-3.76-3.15-5.64-6.59-7.72-9.92c-2.66-4.25-3.39-8.48-0.94-13.09
			c4.39-8.28,10.02-15.45,18.05-20.5c0.81-0.51,1.83-0.77,2.78-0.96c0.6-0.12,1.26,0.1,1.9,0.17c2.52,2.02,1.78,4.63,1.41,7.24
			c-1.11,7.94-4.21,15.31-7.83,22.22C2668.84,1841.83,2667.72,1847.15,2663.61,1852.05z"/>
		<path class="st0" d="M3342.01,2484.18c0.54-1.5,0.8-3.17,1.66-4.45c2.68-4.02,6.85-7.17,5.62-13.09
			c-0.45-2.17,1.52-4.43,3.67-5.54c3.58-1.84,5.84-5.1,9.38-8.09c1.21,2.37,3.69,2.75,6.31,3.43c0.41,2.8,0.76,5.72,1.29,8.59
			c0.52,2.81,4.3,3.56,4.07,7.37c-0.14,2.39,5.28,2.54,4.79,6.5c-5.89,2.41-12.15,1.7-18.32,2.04
			C3354.55,2481.27,3348.65,2482.11,3342.01,2484.18z"/>
		<path class="st0" d="M2931.7,1999.34c-2.28,0.54-4.2,1.69-5.96,5.14c-0.37-4.66-0.6-7.55-0.86-10.77
			c-3.66-0.83-5.64-3.37-5.63-6.99c0.01-4.73-4.17-8.99-1-14.27c0.91-1.52-2.6-2.66-4.83-3.27c-0.65-8.58-3.93-17.06-1.64-26.54
			c6.36,4.62,0.43,12.45,5.72,17.88c4.08-6.59,1.05-12.41-0.2-18.8c4.28,1.02,5.1,4.27,5.37,6.63c0.85,7.32,4.12,13.92,5.6,20.92
			c1.67,7.92,4.11,15.97,2.89,24.35c-0.28,1.93,0.16,3.96,0.26,5.95L2931.7,1999.34z"/>
		<path class="st0" d="M2198.29,1008.68c-3.12,2.31-6.56,2.73-9.76,2.85c-17.14,0.63-33.58,7.09-50.81,6.28
			c-0.98-2.63,0.8-3.17,2.21-3.69c14.55-5.36,28.74-11.71,43.95-15.24c3.27-0.76,6.49-1.04,9.81-1.43
			C2198.13,1000.16,2197.05,1004.89,2198.29,1008.68z"/>
		<path class="st0" d="M3614.04,2128.64c7.97-11.52,16.7-18.67,28.79-23.78c6.95,4.43,7.98,7.35,3.72,13.12
			c-4.51,6.11-9.24,12.11-16.34,15.62c-6.56,3.24-8.33,2.96-13.6-2.59C3615.94,2130.3,3615.18,2129.68,3614.04,2128.64z"/>
		<path class="st0" d="M1887.95,642.51c1.65,2.57,1.26,5.12,0.39,8.16c-5.42,3.14-11.03,6.57-16.82,9.68
			c-5.49,2.95-7.99,7.48-8.43,13.53c-0.47,6.59-1.14,13.16-1.77,19.74c-0.31,3.27-0.03,6.76-3.32,9c-2.12-0.76-1.99-2.78-2.33-4.76
			c-2.51-14.59,1.89-28.12,6.14-41.69c0.53-1.69,1.57-3,2.96-3.86c6.49-3.99,13.17-7.64,20.37-10.19
			C1885.95,641.85,1887.04,642.37,1887.95,642.51z"/>
		<path class="st0" d="M3840.14,2375.34c-6.02-12.11-12.38-23.14-13.19-36.37c4.21-2.99,7.14-0.79,9.94,1.55
			c5.28,4.42,10.52,8.89,15.46,14.76C3849.36,2361.82,3845.06,2368.21,3840.14,2375.34z"/>
		<path class="st0" d="M3985.29,2162.42c-2.35-11.4,3.64-20.78,9.11-30.16c2.11-3.62,6.9-3.2,8.97,0.79
			c3.65,7.03,2.65,14.52-0.87,21.06c-3.2,5.95-8.35,10.39-16.11,9.32C3986.14,2163.39,3985.93,2163.02,3985.29,2162.42z"/>
		<path class="st0" d="M3585,2479.17c2.38-15.15,1.64-27.95,2.06-40.51c3.27-0.53,3.74,1.05,3.72,2.78
			c-0.04,3.5,0.86,6.63,3.63,8.87c5.3,4.31,7.52,10.61,11.2,16.31C3600.53,2472.46,3593.43,2474.2,3585,2479.17z"/>
		<path class="st0" d="M1829.05,1244.75c18.18-4.66,35.55-10.96,53.52-16.53c-0.54,5.19-5.19,6.92-8.07,8.74
			c-8.05,5.06-16.31,10.08-25.91,12.16c-4.98,1.08-9.9,0.87-14.83,0.37C1831.89,1249.3,1829.98,1248.26,1829.05,1244.75z"/>
		<path class="st0" d="M2109.2,1405.73c-1.16-2.86-1.23-6.28-4.27-8.16c0.32-3,0.18-5.85-1.08-8.75c-1.86-4.3-2.08-9.01-2.29-13.65
			c-0.12-2.51,0.44-4.81,3.44-5.08c2.53-0.23,4.51,1.09,5.58,3.34c0.54,1.15,0.43,2.59,0.7,3.89c1.01,4.85,1.54,9.88,3.24,14.48
			c1.58,4.28,4.43,8.09,6.8,12.24c0.33,2.75-1.25,4.91-2.6,7.03c-1.09,0.62-1.89,0.12-2.82-0.21
			C2113.08,1409.87,2113.01,1405.34,2109.2,1405.73z"/>
		<path class="st0" d="M3954.39,2134.05c8.02-1.84,15.2,4.4,24.37,0.8c-2.23,9.01-4.01,16.23-5.81,23.51
			C3962.09,2153.43,3958.08,2148.14,3954.39,2134.05z"/>
		<path class="st0" d="M2567.03,1921.6c3.76-8.83,4.27-16.27,10.6-21.13c1.35-1.04,1.45-3.59,2.38-5.31
			c1.86-3.42,5.3-4.57,8.38-2.97c2.78,1.45,4.1,5.37,2.33,8.63c-1.88,3.47-4.09,6.84-6.64,9.85c-2.54,3-5.48,5.75-8.61,8.12
			C2573.83,1920.03,2571.39,1920.21,2567.03,1921.6z"/>
		<path class="st0" d="M2614.05,2166.3c-1.29-2.72-0.85-5.39,1.09-7.43c10.96-11.49,20.81-24.06,33.13-34.23
			c0.44-0.37,1.22-0.33,1.83-0.48c0.9,0.69,1.19,1.66,0.67,2.57c-9.21,16.04-21.61,29.08-36.99,39.31L2614.05,2166.3z"/>
		<path class="st0" d="M1925.61,773.56c6.38,3.48,9.32,9.61,13.05,14.94c2.18,3.11,1.11,6.7-1.72,8.75
			c-2.7,1.95-6.71,1.98-9.03-0.68c-4.12-4.7-7.74-9.81-9.97-15.33C1918.92,776.58,1922.74,775.7,1925.61,773.56z"/>
		<path class="st0" d="M1413.48,2186.21c6.02-1.14,9.4,2.98,13.16,4.98c10.48,5.57,20.42,12.13,30.58,18.32
			c0.55,0.34,1.13,0.69,1.55,1.16c1,1.11,1.04,2.53,0.37,3.67c-0.72,1.23-2.16,1.62-3.48,1.02c-5.1-2.31-10.25-4.54-15.21-7.15
			c-9.66-5.08-17.71-12.4-26.05-19.31C1413.98,2188.57,1413.97,2187.72,1413.48,2186.21z"/>
		<path class="st0" d="M2136.98,1465.22c0.7-1.44,1.09-2.75,1.87-3.73c0.79-0.99,1.98-1.66,3.02-2.49c1.06,0.46,2.06,0.68,2.78,1.25
			c2.6,2.03,4.87,4.59,7.7,6.16c2.92,1.62,5.63,4.31,9.94,2.18c1.84-0.91,5.16,0.45,7.5,1.48c1.97,0.87,3.49,2.76,6.35,5.15
			c-11.34,1.44-21.22,0.68-31-1.71C2140.83,1472.44,2139.58,1468.22,2136.98,1465.22z"/>
		<path class="st0" d="M1950.41,407.71c1.62,12.7-1.8,23.18-3.95,33.6c-2.35,1.1-4.44,1.21-5.82-0.53
			c-2.09-2.65-3.12-5.85-2.64-9.24c0.27-1.94,0.88-3.94,1.83-5.65C1942.98,420.19,1946.36,414.62,1950.41,407.71z"/>
		<path class="st0" d="M1880.8,1303.59c5.23-2.41,8.65-1.31,11.5-3.2c1.9-1.26,4.87-1.09,6.54,0.56c2.72,2.69,7.12,1.79,9.42,4.9
			c3.8,5.13,3.32,10.17-0.84,15.51C1900.35,1313.89,1895.26,1303.7,1880.8,1303.59z"/>
		<path class="st0" d="M1596.22,2001.32c-15.1,1.07-29.6-3.06-37.67-11.04c11.8-1.53,21.98,2.92,32.26,6.35
			C1592.84,1997.31,1596.28,1997.63,1596.22,2001.32z"/>
		<path class="st0" d="M2870.71,3220.45c6.41-1.08,10.93,1.68,15.23,3.59c9.89,4.4,21.41,4.86,30.45,12.33
			C2904.95,3236.96,2881.33,3228.92,2870.71,3220.45z"/>
		<path class="st0" d="M1889.48,1040.26c-11.77,0.87-20.38-2.63-29.24-5.49c0.83-3.6,3.23-5.22,5.87-4.96
			C1874,1030.62,1881.64,1032.45,1889.48,1040.26z"/>
		<path class="st0" d="M1902.06,1360.25c7.45,1.67,4.68,7.4,6.9,10.5c-2.94,7.47-2.43,16.33-9.97,23.32
			C1899.89,1382.38,1903.65,1371.98,1902.06,1360.25z"/>
		<path class="st0" d="M1660.28,2394.42c0.33,3.78,4.35,2.18,6.3,4.42c-10.66,3.71-20.74,8.68-32.07,8.98
			c-0.88-2.82,0.59-3.64,2.09-4.28c6.94-2.97,13.59-6.91,21.61-6.32c1.57,0.11,2.14-1.19,2.21-2.64L1660.28,2394.42z"/>
		<path class="st0" d="M1989.66,408c3.28,11.54,1.09,16.69-6.92,22.46c-0.67,0.23-0.92-0.2-1.36-0.88
			c-2.48-3.85,4.11-4.89,2.51-8.66c-1.58-3.71,0.52-6.97,2.19-10.17C1986.7,409.56,1987.55,408.61,1989.66,408z"/>
		<path class="st0" d="M3828.9,3101.38c0.8,1.77,1.61,3.55,2.58,5.68c-2.22,0.71-4.56,2.31-6.46,1.9
			c-4.55-0.99-8.11-0.81-11.16,3.29c-1.04,1.4-3.81,2.04-5.31,0.28c-2.11-2.48-5.09-0.39-7.73-2.21c5.77-0.24,10.54-2.35,15.26-4.5
			c4.23-1.92,9.26-1.21,13.12-4.19L3828.9,3101.38z"/>
		<path class="st0" d="M1908.66,642.86c-1.79-1.95-2.93-3.49-1.72-5.66c0.63-1.12,0.88-2.7,2.41-2.86c2.95-0.32,5.69-1.28,8.49-2.17
			c1.77-0.55,3.85-0.1,5.52-0.1c0.96,1.65-1.08,3.6,2.32,4.64c-3.21,1.35-5.66,3.11-8.21,3.27
			C1914.31,640.2,1912.07,642.36,1908.66,642.86z"/>
		<path class="st0" d="M2667.88,2196.32c2.13,2.97,0.14,4.84-1.87,6.58c-5.37,4.65-8.71,5.77-13.56,4.72
			C2656.48,2200.35,2658.6,2198.79,2667.88,2196.32z"/>
		<path class="st0" d="M1893.03,3053.61c-0.12,7.73-1.15,14.4-4.34,20.99c-4.28-3.3-3.19-7.49-2.36-11.16
			C1887.15,3059.89,1886.57,3055.1,1893.03,3053.61z"/>
		<path class="st0" d="M2931.44,1999.57c3.61,1.79,3.6,5.39,3.81,8.54c0.34,5.19,0.09,10.41,0.09,15.54
			c-3.55,0.32-4.06-1.54-4.11-3.61c-0.16-6.91-0.61-13.82,0.47-20.7L2931.44,1999.57z"/>
		<path class="st0" d="M1796.98,1111.78c-0.24-2.8-0.39-4.71,1.39-5.44c3.36-1.38,5.4-0.36,9.74,4.47
			C1804.61,1112.85,1801.09,1111.52,1796.98,1111.78z"/>
		<path class="st0" d="M4257.41,2007.35c-0.66-0.68-1.83-1.31-1.9-2.04c-0.65-6.82-1.93-13.5-3.77-20.09
			c-0.27-0.97,0.59-1.75,2.54-2.39c1.07,8.33,3.64,16.26,2.92,24.72L4257.41,2007.35z"/>
		<path class="st0" d="M3170.19,3214.15c3.38,6.05,7.35,11.5,8.98,19.11c-4.97-1.68-6.45-5.42-6.82-8.96
			C3171.98,3220.86,3167.1,3218.67,3170.19,3214.15z"/>
		<path class="st0" d="M1901.01,1450.57c1.17-4.56,2.06-7.67,3.84-10.25c3.27-0.56,5.26,0.58,4.24,3.6
			C1908.06,1447,1905.79,1449.44,1901.01,1450.57z"/>
		<path class="st0" d="M4261.91,2052.21c1.75,6.75-1.28,13.61,0.26,17.76C4263.09,2065.77,4260.86,2059.03,4261.91,2052.21z"/>
		<path class="st0" d="M2116.38,2708.66c-1.84-4.4-4.28-7.05-6.76-9.51c1.72-2.31,3.11-1.48,4.23-0.14
			C2115.77,2701.32,2117.52,2703.77,2116.38,2708.66z"/>
		<path class="st0" d="M4259.21,2025.53c-2.99-2.01-1.58-5.19-1.87-7.81c-0.38-3.41,0.01-6.91,0.07-10.37c0,0-0.22,0.19-0.22,0.19
			c2.24,5.9,2.09,12.03,1.79,18.18L4259.21,2025.53z"/>
		<path class="st0" d="M4250.3,1964.33c-1.23-3.37-4.21-6.09-2.15-10.01C4249.06,1957.39,4250.59,1960.22,4250.3,1964.33z"/>
		<path class="st0" d="M4027.42,2997.02c-1.64,3.01-4.1,3.84-7.31,4.97C4022.84,2998.23,4022.84,2998.23,4027.42,2997.02z"/>
		<path class="st0" d="M2198.17,2920.54c-2.03,0.81-4.32,2.48-5.63-0.74c-0.67-1.64-2.81-2.79-1.88-5.05
			c3.15,1.17,4.09,5.1,7.5,5.87L2198.17,2920.54z"/>
		<path class="st0" d="M4258.53,2094.49c-1.8-4.39-0.78-7.36-0.9-12.39C4259.66,2087.19,4259.06,2090.17,4258.53,2094.49z"/>
		<path class="st0" d="M4258.98,2025.72c2.88,3.22,1.19,7.11,0.71,10.8c-0.16-3.66-0.32-7.33-0.48-10.99L4258.98,2025.72z"/>
		<path class="st0" d="M2202.85,2930.01c-3.96-1.97-6.01-4.88-4.68-9.46l-0.01,0.08c0.07,2.61,2.58,3.27,3.92,4.87
			c1.28,1.53,2.23,2.98,0.46,4.75L2202.85,2930.01z"/>
		<path class="st0" d="M2613.77,2166.05c-1.38,2.11-2.77,4.22-5.45,4.87c0-4.21,0-4.21,5.73-4.61L2613.77,2166.05z"/>
		<path class="st0" d="M2054.22,509.32c-1.71-6.81,2.25-12.72,2.32-19.48c7.83-0.78,14.6,2.31,21.33,2.1
			c1.57,2.63,1.11,4.52-0.78,5.68c-5.65,3.47-10.9,7.39-15.67,12.03C2059.66,511.37,2057.27,511.54,2054.22,509.32z"/>
		<path class="st0" d="M2011.31,525.93c2.44,0.87,4.63,1.55,6.74,2.44c1.59,0.67,2.82,1.92,2.7,3.76c-0.11,1.77-1.3,3.17-2.94,3.62
			c-2.7,0.73-5.24,3.61-8.3,1.07c-2.37-1.97-2.23-5.01,0.27-9.82C2009.91,526.75,2010.31,526.63,2011.31,525.93z"/>
		<path class="st0" d="M1945.68,633c0.36-3.82,3.08-4.55,6.15-5.14C1952.6,633.84,1952.6,633.84,1945.68,633z"/>
	</g>
</g>
</svg>
