<?xml version="1.0" encoding="utf-8"?>
<!-- Generator: Adobe Illustrator 24.1.1, SVG Export Plug-In . SVG Version: 6.00 Build 0)  -->
<svg version="1.1" id="Layer_1" xmlns="http://www.w3.org/2000/svg" xmlns:xlink="http://www.w3.org/1999/xlink" x="0px" y="0px"
	 viewBox="0 0 1352.78 2729.74" style="enable-background:new 0 0 1352.78 2729.74;" xml:space="preserve">
<style type="text/css">
	.st0{fill:#1A1A1A;}
</style>
<g>
	<path d="M396.43,590.65c-3.17-4.75-7.57-7.77-12.68-9.38c-5.33-1.67-9.05-5.11-12.5-9.13c1.18-1.29,2.46-0.59,3.51-0.03
		c19.38,10.43,39.73,9.3,60.26,4.89c5.83-1.25,11.42-3.56,17.13-5.38c6.97-2.22,13.9-4.64,21.38-4.5c1.38,0.03,2.61-0.43,3.38-2.24
		c-4.08-5.53-10.32-7.59-16.65-9.37c-6.34-1.79-12.32-4.27-17.51-8.93c5.97,1.32,11.96,2.57,17.9,3.99
		c18.82,4.47,37.86,7,57.23,7.33c8.68,0.15,17.02,2.79,25.46,4.54c2.24,0.47,4.37,1.61,7.18,0.33
		c-3.39-35.09-15.08-68.22-24.84-102.9c-11.43,11.18-23.88,19.46-35.35,28.99c-17.32,14.39-36.36,25.68-58.14,32.12
		c-4.97,1.47-9.52,4.32-14.52,6.66c-0.52-3.06,1.77-3.37,3.03-4.36c9.68-7.6,19.42-15.1,28.14-23.88
		c10.22-10.3,18.14-21.93,23.86-35.32c7.87-18.42,12.45-37.66,17.2-58.93c-21.91,11.88-43.29,20.58-65.77,26.21
		c-22.67,5.68-45.8,7.59-69.58,7.9c0.68-3.48,3.31-4.29,5.45-5.47c13.79-7.53,26.46-16.59,38.37-26.84
		c4.69-4.04,8.05-8.69,10.85-14.05c6.95-13.29,12.26-27.31,18.3-41.01c9.27-21.02,18.27-42.15,32.17-60.71
		c0.5-0.66,0.5-1.7,1.01-3.58c-29.9,10.53-59.52,16.33-90.25,7.52c-11.46-3.29-13.87-4.2-18.6-8.5c3.36-1.84,6.39,0.61,9.56,0.71
		c11.18,0.33,21.82-1.74,32.18-5.72c18.08-6.94,34.85-16.3,50.5-26.76c0.8-3.86-1.54-5.71-3.16-7.64
		c-20.4-24.29-34.14-52.25-45.24-81.67c-5.04-13.35-7.33-27.61-13.37-40.65c-0.21-0.46,0.24-1.24,0.45-2.2
		c3.17,0.08,5.16,2.22,7.18,4.21c12.12,11.93,25.17,22.69,39.19,32.38c20.95,14.48,42.84,26.83,67.79,33.06
		c7.09,1.77,14.14,3.77,21.07,6.08c4.17,1.39,7.6,0.59,11.42-1.21c21.39-10.08,43.26-18.98,66.18-24.99
		c13.49-3.53,27.07-6.75,40.9-8.71c2.22-0.31,4.43-0.77,6.61-1.15c0.2-4.1-2.03-6.82-3.38-9.7c-4.89-10.4-7.83-21.11-7.39-32.71
		c0.18-4.64-0.43-9.3-0.48-13.96c-0.04-3.45-0.7-7.01,1.15-12.12c2.72,7.34,4.94,13.13,7.02,18.96c3.52,9.85,9.3,18.37,15.57,26.61
		c3.86,5.08,8.84,7.62,15.35,7.83c7.96,0.26,15.9,0.85,24.58,0.37c0.82-6.8,4.08-13.23,0.97-20.05c-0.47-1.02-0.74-1.48,0.04-2.11
		c3.29-2.62,2.88-6.46,3.5-10.01c1.37-7.85,2.74-15.7,4.37-23.5c2.47-11.86,0.47-23.92,1.91-35.82c1.99-16.41,3.79-32.84,5.7-49.26
		c0.11-0.98,0.3-2.02,0.73-2.89c0.86-1.71,1.32-3.82,3.86-4.04c2.34-0.2,3.68,1.05,4.88,2.79c6.24,9.05,11.98,18.42,16.97,28.21
		c13.62,26.69,27.09,53.46,40.66,80.17c5.58,10.99,10.69,22.19,15.05,33.71c1.91,5.06,4.87,8.22,10.01,10.14
		c8.96,3.33,17.79,7.12,25.35,15.23c1.75-17.41-2.78-33.13-2.07-49.82c0.47,0.85,1.07,1.65,1.4,2.55
		c5.63,15.61,13.78,30.24,17.54,46.59c2.99,12.98,3.1,25.68-2.03,38.7c22.21,12.08,44.56,23.28,71.09,21.72
		c9.46-0.55,18.41-2.26,26.96-6.35c8.37-4,16.28-8.81,24.26-13.64c1.78,2.85-0.68,3.69-1.91,4.9
		c-14.46,14.24-29.83,27.53-43.43,42.65c-1.32,1.47-2.98,2.64-4.47,3.97c-8.41,7.49-17.44,14.27-23.3,24.35
		c-3.75,6.44-10.73,9.74-17.77,14.72c2.76,1.06,4.64,1.98,6.63,2.51c14.45,3.9,28.99,7.53,41.94,15.48c2.12,1.3,4.43,1.28,6.76,1.29
		c11.32,0.07,22.6-0.22,33.49-3.91c0.54-0.19,1.27,0.16,2.42,0.34c-7.27,4.21-11.78,10.84-17.42,16.29
		c-10.04,9.71-19.24,20.24-29.61,29.66c-10.84,9.84-20.67,20.74-31.57,30.57c-8.03,7.24-16.32,13.65-26.81,16.77
		c-0.63,0.19-1.23,0.5-1.78,0.85c-0.18,0.11-0.17,0.52-0.26,0.84c0.74,2.84,3.65,2.49,5.55,3.58c7.48,4.29,15.05,8.14,21.16,14.7
		c4.52,4.86,11.59,6.01,17.99,7.83c6.95,1.98,14.32,3.11,20.11,8.2c-2.14,2.07-4.28,0.35-5.8-0.24c-6.2-2.43-12.4-1.94-18.66-0.93
		c-24.92,4.02-48.03,13.15-70.12,25.06c-2.61,1.41-5.12,3.17-7.3,5.19c-6.82,6.32-12.92,13.37-20.61,19.23
		c2.69,3.72,6.54,3.97,9.16,5.83c14.18-5.32,24.09-16.1,35.96-24.14c1.96,3.38-0.77,5.15-2.03,7.19
		c-5.76,9.33-11.87,18.45-17.41,27.91c-2.83,4.83-3.92,10.6-7.58,15.07c-1.89,2.31-3.7,4.69-5.58,7.09
		c1.31,14.57,2.63,29.21,4.01,44.48c15.18-3.3,29.84-1.39,44.37-3.05c7.04-0.81,14.41,1.75,21.67,2.14
		c12.68,0.68,23.77,5.76,34.76,11.4c6.28,3.22,11.52,7.56,16.55,12.56c7.07,7.04,14.42,13.77,21.01,21.3
		c7.23,8.26,15.24,15.87,22.05,24.44c6.03,7.59,13.14,12.94,22.16,16.24c2.68,0.98,5.92,1.39,7.73,4.22
		c-1.61,2.08-3.67,0.91-5.21,0.28c-7.61-3.08-15.3-3.75-23.3-1.79c-1.86,0.46-3.92,0.07-7,0.07c4.13,9.81,11.44,16.04,17.15,23.83
		c-4.96,2.13-8.7-2.73-13.46-2.01c-0.08,2.92,2.25,4.57,3.37,6.75c1.98,3.85,4.53,7.47,2.56,12.16c-0.87,2.07,0.59,3.86,1.1,5.74
		c2.86,10.59,5.85,21.16,7.49,32.01c0.92,6.05,3.26,11.44,5.84,16.89c8.69,18.37,18.36,36.14,29.28,53.32
		c5.69,8.95,10.1,18.76,14.55,28.43c9.59,20.85,20.21,41.24,28.57,62.64c4.24,10.87,8.98,21.47,14.23,31.87
		c15.1,29.94,33.58,57.42,57.73,80.9c4.05,3.94,7.98,8.06,11.48,12.48c5.03,6.34,11.7,9.49,19.28,11.3
		c6.41,1.53,12.82,3.07,19.13,5.18c-13.23,1.99-25.54-3.61-39.84-5.07c10.2,8.72,15.47,19.49,22.32,29.11
		c3.98,5.58,5.54,12.03,7.02,18.53c0.22,0.95,0.6,2.16,0.22,2.9c-2.66,5.22-0.84,10.39,0,15.55c0.66,4.01,0.9,7.81-2.43,10.88
		c-2.42-0.75-4.46-2.15-5.41-4.28c-2.6-5.81-7.59-9.13-12.41-12.68c-5.89-4.33-11.77-8.67-18.02-13.27
		c-2.98,0.46-6.21,1.01-9.45,1.43c-2.06,0.27-3.85,1.03-5.35,2.45c-23.3,21.99-49.78,39.95-75.12,59.36
		c-31.17,23.88-63.68,46-93.86,71.19c-16.85,14.06-33.78,28.04-50.26,42.53c-11.32,9.96-20.63,21.7-26.72,35.9
		c-0.51,2.01,0.9,3.63,1.65,5.45c17.49,42.45,33.29,85.52,47.89,129.04c13.46,40.12,23.58,81.06,31.31,122.61
		c1.51,8.13,2.03,16.47,2.6,24.74c1.58,22.87,3.58,45.69,8.06,68.2c4.81,24.13,10.72,48.03,17.87,71.55
		c3.66,12.06,7.18,24.14,10.43,36.32c1.2,4.48,2.94,8.84,4.79,13.11c14.82,34.26,26.22,69.71,36.86,105.43
		c7.6,25.49,15.93,50.79,21.95,76.71c7.07,30.43,13.32,61.05,18.03,91.93c5.66,37.12,12.78,73.97,19.17,110.96
		c2.09,12.11,4.4,24.17,5.65,36.42c1.5,14.59,6.03,28.57,10.05,42.59c5.77,20.14,12.34,40.04,18.2,60.15
		c2.91,9.99,7.6,19.16,11.86,28.52c19.56,42.98,40.96,85.14,58.05,129.24c4.72,12.17,12.34,22.81,18.2,34.38
		c12.49,24.65,25.06,49.25,37.45,73.95c11.06,22.06,23.63,43.1,38,63.25c7.97,11.18,18.49,19,28.43,27.64
		c7.38,6.42,13.18,14.08,19.34,21.4c5.12,6.09,5.76,14.41,3.49,21.94c-1.66,5.5-5.33,10.5-10.93,13.19
		c-4.53,2.18-8.67,4.77-11.78,9.37c-6.07-3.17-11.86,0.35-17.76-0.2c-0.32-0.03-0.82-0.05-0.97,0.14
		c-4.9,6.09-11.91,2.01-17.79,3.61c-5.51,1.5-11.23,0.3-16.59-1.88c-4.07-1.65-8.1-3.33-11.93,0.67c-0.93,0.97-2.27,0.6-3.67,0.37
		c-17.1-2.82-33.9-6.42-49.13-15.32c-5.21-3.04-10.09-6.41-14.58-10.4c-3.2-2.85-6.8-5.29-9.78-8.33
		c-6.17-6.29-7.77-14.51-8.7-22.86c-0.92-8.25-1.56-16.53-2.55-24.77c-2.09-17.45-8.49-33.4-16.97-48.67
		c-10.68-19.23-22.36-37.8-35.17-55.69c-7.64-10.67-17.18-19.44-26.66-28.26c-11.95-11.12-23.5-22.58-34.51-34.64
		c-13.92-15.23-18.09-33.68-18.35-53.39c-0.2-14.64,0.23-29.3,0.7-43.95c0.55-17.01-2.85-33.83-2.16-50.83
		c0.08-1.91-0.47-4.02-1.29-5.77c-6.35-13.58-11.26-27.73-16.66-41.68c-5.32-13.73-13.47-25.98-20.19-38.98
		c-7.78-15.06-16.57-29.61-25.07-44.3c-6.51-11.25-13.66-22-22.79-31.44c-16.47-17.03-30.17-36.32-44.15-55.35
		c-4.33-5.9-8.72-11.76-13.28-17.49c-23.05-28.94-37.63-61.76-44.94-97.91c-3.82-18.93-5.49-38.07-6.39-57.37
		c-0.56-11.96-1.37-23.91-1.02-35.86c0.3-10.28,1.7-20.53,1.25-30.86c-0.86-19.91-2.78-39.72-5.48-59.46
		c-0.6-4.41-2.55-8.28-5.28-11.71c-13.86-17.44-26.56-35.85-42.6-51.47c-33.97-33.06-64.62-68.94-91.29-108.15
		c-5.07-7.45-11.95-13.38-16.7-21.11c-13.98-22.73-26.15-46.35-36.41-70.98c-7.67-18.42-15.72-36.68-23.43-55.09
		c-5-11.96-9.3-24.18-13.02-37.05c-2.72,1.58-3.07,4.1-3.85,6.43c-12.7,38.2-25.24,76.46-41.04,113.53
		c-6.52,15.3-10.76,31.36-16.6,46.87c-1.24,3.29-3.43,6.21-5.1,9.34c-4.05,7.6-5.92,16.01-8.89,24.01
		c-9.26,24.94-18.86,49.75-28.29,74.62c-3.18,8.4-6.38,16.79-9.38,25.25c-3.56,10.05-6.37,20.19-6.26,31.09
		c0.17,15.62-2.77,31.12-2.38,46.78c0.41,16.6,0.75,33.17,4.73,49.47c1.72,7.06,2.61,14.39,3.15,21.64
		c1.08,14.57,2.41,29.13,3.08,43.75c0.61,13.26,1.17,26.55,1.8,39.82c0.79,16.63-1.13,32.96-6.54,48.9
		c-1.97,5.81-2.29,12.19-4.72,18.31c-3.05-3.16-0.23-7.35-2.15-10.48c-2.64,2.38-3.08,5.79-3.98,8.9
		c-12.48,43.11-24.67,86.33-34.53,130.1c-4.52,20.04-10.55,39.76-13.62,60.13c-1.59,10.5-3.88,20.99-4.28,31.55
		c-0.42,11.2-0.13,22.45-0.78,33.68c-0.24,4.06,1.64,7.8,2.91,11.57c6.04,17.97,12.19,35.91,18.35,53.85
		c4.65,13.56,8.07,27.44,10.3,41.57c2.53,16.05,0.12,31.82-4.02,47.37c-5.39,20.23-11.28,40.36-14.31,61.11
		c-1.33,9.15-2.85,18.25-2.94,27.65c-0.19,21.33,1.24,42.49,3.72,63.65c1.35,11.53,1.54,23.19,2.57,34.77
		c0.65,7.26,1.82,14.48,2.87,21.7c2.38,16.27-6.92,36.21-20.89,44.58c-1.42,0.85-2.9,2.22-4.38,2.25
		c-7.74,0.18-13.97,4.29-20.34,7.73c-10.86,5.88-22.04,6.74-33.83,3.86c-3.2-0.78-6.59-1.16-9.89-1.16
		c-10.65,0.01-20.47-2.26-28.47-9.74c-2.3-2.15-4.94-1.88-7.5-1.62c-8.46,0.86-13.67-3.36-17.85-10.19
		c-5.1-8.35-6.66-16.98-5.22-26.69c2.13-14.3,6.59-27.63,12.74-40.72c5.62-11.97,10.07-24.47,10.42-38.21
		c0.25-9.9,2.7-19.72,3.57-29.63c1.19-13.56,1.36-27.22,2.78-40.76c1.55-14.87,0.94-29.84,2.94-44.71
		c0.95-7.05-0.48-14.6-1.81-21.74c-1.97-10.58-0.79-21.24-1.72-31.85c-1.01-11.47-1.31-23.02-1.36-34.54
		c-0.03-8.61,0.9-17.23,1.29-25.85c0.78-17.6,4.01-34.93,5.55-52.43c0.67-7.61,0.97-15.38,0.23-22.95
		c-1.6-16.17-1.91-32.52-5.38-48.46c-4.03-18.5-7.76-37.06-13.47-55.18c-6.4-20.32-13.88-40.23-21.01-60.28
		c-4.01-11.28-7.62-22.69-9.86-34.49c-0.46-2.42-1.52-4.72-2.37-7.3c-1.11,1-1.76,1.57-2.57,2.31c-3.8-8.09-3.44-17.27-7.42-27.59
		c-1.62,7.76-2.78,13.34-4.26,20.43c-2.06-4.67-0.25-8.71-1.81-11.39c-5.91-10.08-4.43-21.19-4.75-31.87
		c-0.28-9.21,1.43-18.5,2.47-27.72c0.67-5.89,2.41-11.65-0.87-17.47c-1.49-2.64-0.19-5.93,0.25-8.86
		c8.42-56.56,24.46-110.94,46.9-163.48c5.26-12.32,7.9-25.35,10.3-38.45c1.3-7.07-1.01-13.85-1.69-20.76
		c-1.4-14.2-2.84-28.4-4.3-42.6c-1.7-16.5-4.03-32.96-4.99-49.5c-1-17.31-4.09-34.29-6.34-51.4c-1.39-10.54-3.33-21-4.81-31.52
		c-1.89-13.47-3.72-26.95-5.28-40.47c-2.09-18.13-4.7-36.25-5.64-54.45c-1.33-25.89-2.65-51.87,3.7-77.49
		c2.87-11.6,4.38-23.55,7.45-35.09c8.75-32.79,18.27-65.29,34.56-95.43c8.53-15.79,15.8-32.27,23.48-48.51
		c6.96-14.72,13.69-29.46,23.13-42.95c6.84-9.76,11.84-20.8,17.77-31.21c9.42-16.52,19.94-32.24,32.87-46.3
		c10.35-11.26,19.88-23.35,31.26-33.58c10.92-9.82,20.97-20.46,31.5-30.65c5.53-5.35,9.92-11.64,14.32-17.9
		c2.59-3.68,3.73-7.65,3.71-12.18c-0.03-7.99,0.41-15.97,0.39-23.96c-0.01-2.61-0.54-5.3-1.3-7.81
		c-3.25-10.82-6.68-21.59-10.23-32.97c-5.53-2.59-11.64-5.17-17.47-8.24c-18.59-9.78-32.24-24.16-40.88-43.47
		c-7.12-15.9-6.81-31.62-0.21-47.42c6.8-16.26,14.07-32.34,20.58-48.71c5.53-13.9,10.11-28.17,15.45-42.15
		c1.69-4.43,1.58-8.34-0.36-12.49c-2.68-5.72-5.66-11.35-7.72-17.29c-2.36-6.79-7.63-9.67-13.57-12.18
		c-2.25-0.95-4.4-1.08-6.79-0.63c-19.28,3.62-38.91,4.36-58.3,7.04c-23.34,3.23-46.74,5.98-70.06,9.48
		c-21.32,3.2-42.76,6.05-64.41,6.48c-10.37,0.2-20.37,3.09-30.44,5.18c-17.57,3.65-35.05,7.75-52.51,11.89
		c-3.97,0.94-7.9,1.73-11.77,0.56c-3.75-1.13-6.55,0.14-9.06,2.49c-7.79,7.29-14.97,15.14-21.33,23.74
		c-2.32,3.14-2.81,6.6-2.74,10.37c0.13,7.2,0.04,14.4,0.04,21.47c-3.23,0.39-3.43-1.63-4.11-3c-7.26-14.62-10.08-29.99-8.04-46.27
		c0.89-7.1,1.13-14.29,1.76-22.66c-4.49,3.32-8.11,5.99-12.11,8.94c-0.45-3.03,1.22-4.71,2.4-6.52c8.25-12.69,13.3-26.6,16.73-41.3
		c2.89-12.4,4.09-24.7,3.56-37.5c-1.71-41.69,11.43-79.23,34.09-113.69c15-22.81,30.57-45.24,45.56-68.05
		c9.01-13.7,14.92-28.84,19.64-44.55c1.83-6.1,0.55-11.07-3.78-14.33c-8.32-6.25-11.25-15.42-15.19-24.17
		c-5.33-11.82-10.35-23.79-16.18-35.36c-3.59-7.12-9.11-12.87-15.53-17.91c-19.71-15.5-37.42-33.06-51.15-54.16
		c-5.04-7.75-8.63-16.45-12.78-24.76c-0.54-1.09-0.89-2.55,0.29-3.69c0.62-0.11,1.53-0.53,1.81-0.27
		c6.32,5.76,15.68,5.76,21.94,11.31c9.7,8.59,19.72,16.8,28.28,26.7c7.27,8.4,17.35,13.22,27.33,17.82c1.08,0.5,2.59,0.07,3.84,0.07
		c3.8-3.41,4.44-7.42,2.8-11.87c-0.92-2.49-1.74-5.14-3.22-7.28c-6.71-9.65-10.52-20.75-15.91-31.05c-1.24-2.36-2.19-4.94-3.78-7.03
		c-10.48-13.83-13.46-30.14-15.69-46.71c-0.44-3.24-0.72-6.5-1.03-9.76c-0.02-0.2,0.44-0.45,1.17-1.15
		c4.64,1.11,6.25,7.37,12.07,8.09c1.99-5.74-2.56-11.19-1.54-16.62c2.41-1,3.51,0.39,4.65,1.53c5.66,5.65,11.63,10.93,18.13,15.61
		c6.73,4.83,10.24,12.19,14.26,19.02c3.22,5.48,6.62,10.71,10.75,15.56c4.74,5.56,9.27,11.29,12.91,17.71
		c2.06,3.64,4.09,7.58,9.1,10.37c-0.66-9.55-5.78-16.71-7.75-24.78c-2.13-8.71-5.05-17.26-6.79-26.04
		c-1.62-8.15-5.6-16.09-3.72-25.41c5.06,2.8,4.96,9.08,8.73,11.1c4.24,2.27,7.99,4.72,10.7,8.52c6.79,9.53,11.63,20.03,16.07,30.89
		c5.27,12.87,10.93,25.79,19.85,36.68c9.4,11.48,16.57,24.08,21.61,37.97c0.44,1.22,1.13,2.35,1.76,3.49
		c0.13,0.23,0.53,0.31,1.39,0.78c2.86-2.42,3.41-5.89,3.55-9.44c0.07-1.98-0.31-3.98-0.45-5.97c-0.68-9.64,2.35-17.82,10.22-23.65
		c8.17-6.06,12.61-13.31,9.9-23.86c-0.5-1.94-0.88-4.58,2.08-6.79c4,4.28,4.86,9.81,6.37,14.99c2.31,7.93,0.14,15.85-0.91,23.61
		c-1.75,12.98-1.38,25.96-0.65,38.86c0.92,16.21,3.23,32.33,4.91,48.49c0.65,6.24-1.14,11.73-4.9,16.8
		c-7.79,10.49-17.14,19.52-26.55,28.45c-4.49,4.27-7.88,8.95-9.86,14.74c-5.82,16.99-11.46,34.04-16.29,51.35
		c-2.62,9.41-2.47,19.1-3.44,28.63c-1.44,14.19-2.8,28.41-3.22,42.74c-0.26,8.84-0.7,17.9-2.69,26.72
		c-0.7,3.08-1.58,6.48-0.09,10.38c5.23,0.95,10.32-1.01,15.21-2.31c31.83-8.45,64.09-14.91,96.34-21.47
		C391.06,592.87,393.91,592.46,396.43,590.65z M889.73,900.8c-3.24,3.21-4.32,6.4-5.71,9.4c-7.79,16.92-16.33,33.46-24.92,49.99
		c-8.17,15.71-18.31,30.07-28.51,44.46c-7.1,10.02-13.5,20.38-16.76,32.61c-3.71,13.95-4.04,28.18-5.6,42.33
		c-0.74,6.73,0.99,12.28,4.43,17.8c3.34,5.35,6.71,10.77,9.25,16.53c10.73,24.31,21.38,48.66,29.8,73.91
		c0.62,1.85,0.74,3.99,4.49,4.81c0.31-0.52,0.91-1.74,1.71-2.82c7.96-10.65,16.01-21.23,23.91-31.92
		c18.69-25.29,34.14-52.32,44.01-82.32c0.74-2.23,1.75-4.24,2.93-6.27c2.24-3.86,4.83-7.77,5.85-12.01
		c1.11-4.62,4.43-7.83,5.88-12.21c3.78-11.41,9.55-21.92,16.23-31.92c2.01-3.01,3.92-6.09,6.06-9.42
		c-3.29-5.67-6.53-11.05-9.56-16.55c-2.41-4.38-4.61-8.83-8.3-12.36c-11.37-10.88-20.23-23.73-28.93-36.76
		C907.71,925.7,898.84,913.7,889.73,900.8z M631.73,586.38c0-3.87-0.08-6.83,0.02-9.79c0.12-3.32,0.46-6.62,0.61-9.94
		c0.77-16.14,0.76-16.14,13.18-25.76c-0.4-6.53-0.14-13.42-4.76-19.87c-5.96,3.41-12.33,5.04-18.02,7.3
		c-1.54,5.06,3.47,9.16,0.17,14.61c-1.81-2.92-3.27-5.42-4.87-7.84c-2-3.03-4.09-5.86-7.36-7.86c-9.93-6.08-18.94-13.33-26.64-22.14
		c-1.22-1.39-2.43-3.36-5.14-2.21c-1.63,10.82-6.7,20.64-10.12,31.01c-3.51,10.68-10.45,19.82-13.94,30.45
		c1.31,0.96,2.02,1.82,2.91,2.08c15.69,4.48,30.29,11.74,45.45,17.55C611.75,587.23,621.14,588.25,631.73,586.38z"/>
	<path class="st0" d="M632.16,423.65c-3.94,2.06-6.26,5.65-8.7,9.16c-2.3,3.31,2.39,8.22-2.75,10.58
		c-4.17-4.02-3.74-9.78-5.11-15.14c-1.27-4.94-0.64-10.66-5-16.19c-1.33,10.24,1.15,19.06,2.23,27.8c1.11,9.03,0.84,18.1,2.74,27.02
		c-4.48-8.88-2.45-18.95-6.32-28.53c-2.69,3.5-2.76,7.22-2.87,10.98c-0.49,16.94,0.58,33.79,3.03,50.71
		c-2.72-0.25-2.71-2.4-3.38-4.01c-2.26-5.45-3.43-11.49-8.31-15.55c-4.23-12.18-10.22-23.8-10.08-37.26
		c0.1-9.56-1.34-19.03-4.41-28.28c-1.99,7.14-2.93,14.3-2.88,21.66c0.14,19.66-1.94,39.1-6.19,58.3c-0.2,0.91-0.73,1.75-2.08,2.49
		c0.77-10.08,1.86-20.14,2.23-30.24c0.39-10.31,0.07-20.65,0.09-30.98c0.02-10.16-1.11-20.15-3.58-29.75
		c-2.35-0.26-2.24,1.14-2.27,1.92c-0.34,9.31-0.7,18.63-0.81,27.94c-0.39,33.61-2.8,67.01-9.73,99.97
		c-0.54,2.55-0.32,5.39-3.14,6.89c-3.41-21.42-9.92-42.04-15.63-62.86c-6.68-24.35-13.13-48.78-17.63-73.65
		c-1.65-9.12-2.55-18.39-3.52-27.62c-0.58-5.53-2.99-10.91-1.77-17.1c5.95,0.97,10.07,4.67,15.41,7.25
		c-3.44,3.28-7.76,1.41-10.56,3.71c-0.39,2.79,1.96,3.24,3.51,4.18c10.25,6.19,21.53,8.84,33.36,8.56
		c8.68-0.21,17.17,1.54,25.76,1.69c11.1,0.19,21.67,2.19,31.94,6.37c3.65,1.49,7.82,0.6,11.64,0.76c3.55,0.15,7.09-0.09,10.71,0.63
		c6.49,1.29,12.42-1.29,18.36-3.39c1.68-0.59,2.69-1.97,3.21-3.6c0.71-2.21,1.47-4.44,1.87-6.72c1.66-9.48,3.5-18.95,4.67-28.49
		c1.1-9.05-1.5-17.81-3.42-26.57c-3.91-17.83-11.8-33.81-22.19-48.68c-1.99-2.85-3.67-5.93-5.42-8.78c2.81-2.14,3.97,1.39,5.97,0.38
		c0.63-0.54,0.55-1.03,0.1-1.71c-4.94-7.37-12.24-12.13-19.24-17.12c-14.39-10.26-30.39-17.85-45.55-26.85
		c-12.32-7.31-25.42-13.06-38.76-18.24c-2.08-0.81-4.44-1.25-5.91-3.25c6.84-5.97,32.82-17.19,59.04-25.12
		c20.33-6.15,40.83-11.67,62.17-12.1c1.49-2.85-0.95-3.73-2.18-5.03c-8.57-9.01-13.12-19.87-14.91-32.01
		c-0.23-1.57-0.48-3.25,1.21-5.25c10.29,15.66,21.3,30.48,39.41,37.07c2.48-1.56,2.27-3.57,2.56-5.46
		c-3.31-1.95-8.1,0.06-10.72-3.85c1.1-1.16,2.4-1.04,3.69-0.95c34.08,2.32,67.19,8.56,98.12,23.91c5.94,2.95,12.16,5.42,18.44,7.55
		c3.91,1.33,5.92,3.65,7.22,7.39c3.26,9.45,5.84,19.06,8.02,28.8c0.47,2.12,0.19,4.75,2.96,5.75c2.13-6.25,1.97-10.02-0.12-17.78
		c-1.02-3.79-3.53-7.29-2.53-11.53l-0.22,0.22c4.69,3.26,4.98,9.85,9.7,13.05c2.53-0.86,1.72-2.51,1.16-4.04
		c-0.57-1.55-1.02-3.21-1.9-4.58c-9.21-14.34-19.05-27.99-33.97-37.26c-15.01-9.33-30.39-17.88-46.66-24.79
		c-1.84-0.78-3.86-1.14-5.2-3.76c3.54,0.7,6.8,1.01,9.83,2c25.93,8.47,51.71,17.34,76.46,28.94c6.95,3.26,9.01,6.51,8.25,13.94
		c-0.41,3.95-1.31,7.86-1.67,11.82c-0.29,3.25-0.85,6.59,0.64,9.7c2.11,0.78,3-0.62,4.1-1.92c7.65-9.01,10.89-19.66,11.67-31.21
		c0.2-2.98,0.03-5.98,0.03-9.27c4.89,5.45,7.36,16.06,7.33,30.66c-0.02,10.88-0.02,10.88-10.01,32.51c4-3.27,6.63-5.42,8.91-7.29
		c4.26-0.53,6.77,2.08,9.52,3.72c15.09,9,31.2,14.16,48.75,16.28c13.6,1.65,26.41-0.03,39.29-3.56c1.6-0.44,3.1-1.23,4.81-0.56
		c-3.29,5.69-15,16.27-26.48,24.38c-9.9,6.99-20.64,12.51-31.22,18.46c7.73-0.09,13.56-5.93,22.87-7.63
		c-11.5,10.31-23.15,16.49-35.35,22.57c1.96,2.28,3.55,0.39,5.03,0c2.01-0.53,3.03,0.95,4.37,1.83c-4.3,0.39-7.79,2.18-10.14,5.91
		c-7.02,0.94-12.93,4.55-19.02,7.78c5.84,0.25,10.65-2.82,15.82-4.64c1.48-0.52,3.12-1.23,3.04-3.34c4.65,0.2,7.62-2.48,10.15-5.91
		c1.71-0.82,3.42-1.64,6.44-3.09c-4.28,8.44-12.47,10.72-17.78,15.88c0.71,2.64,2.83,2.63,4.67,3.25
		c10.4,3.48,20.79,7.01,31.14,10.63c2.82,0.98,6.2,1.64,8.15,3.61c5.37,5.42,11.54,4.82,18.22,4.23c6.56-0.57,13.21-0.12,20.23-0.12
		c-0.72,3.25-3.76,4.45-5.55,6.59c-1.7,2.04-3.66,3.88-5.62,5.67c-11.29,10.31-22.43,20.79-33.99,30.79
		c-7.28,6.3-15.07,12.03-22.85,17.72c-6.98,5.1-15.3,7.74-22.99,11.73c6.41,1.43,11.49-2.97,17.38-3.8
		c1.77,2.97-1.41,3.43-2.51,4.42c-8.86,7.94-18.99,13.3-31.1,14.22c-2.07,0.16-4.02,0.41-4.83,3.6
		c11.47-0.64,20.71,4.51,29.54,10.78c-0.07,2.46-1.76,1.42-2.7,1.61c-1.25,0.26-2.66,0.04-3.8,0.52c-1.15,0.49-2.04,1.58-3.85,3.07
		c4.68,1.05,8.67,1.84,12.61,2.84c4.74,1.21,9.64,1.42,14.02,4.47c3.98,2.78,9.86,1.07,14.39,4.9c-11.63,2.4-23,4.21-34.05,7.58
		c-19.52,5.95-37.99,14.15-55.45,24.65c-5.45,3.28-10.98,5.95-17.27,7.45c-8.04,1.92-15.84,4.83-23.73,7.36
		c-3.19,1.02-4.96,3.43-5.14,6.62c-0.44,7.92-4.96,11.36-12.25,13.44c-10.88,3.11-21.04,8.22-31.05,13.52
		c-3.8,2.01-7.62,4.05-12.48,3.19c-2.5-3.64-1.42-7.75-1.36-11.55c0.13-8.44-1.08-16.6-4.25-24.39c-1.86-4.57-3.95-9.13-8.82-11.28
		c-2.71,2.03-0.76,5.2-2.51,7.43c-4.08-5.91-3.8-14.86-13.17-18.61c0,8.22-0.2,15.08,0.06,21.92c0.23,5.87-0.99,11.2-4.18,16.12
		c-5.85,9.01-9.91,18.78-11.93,29.12c-4.65,3.37-4.66,3.36-10.56,3.77c-2.7-7.91-4.39-16.9-16.26-20.22
		c-5.03-0.28-10.22,6.16-17.58,6.57c-2.75-7.29-1.72-14.34-1.29-21.12c0.44-6.93,0.28-13.89,1.49-20.85
		c0.94-5.43,0.5-11.19-0.55-16.86c-1.28-6.89-1.02-13.7,3.14-20.1c4.18-6.43,5.54-14.12,7.91-21.33c1.43,0.11,2.1-0.56,2.04-1.99
		c2.88-0.79,3.67-2.87,4.59-6.7c-3.97,1.74-6.58,2.89-9.2,4.03c-0.02-0.08-0.04-0.16-0.06-0.24c1.71,0.88,3.75,1.24,4.84,3.09
		C632.64,421.44,632.05,422.2,632.16,423.65z M859.95,323.31c0.91,0.34,1.14,2.09,2.95,1.12c-1.24-0.34-2.2-0.61-3.17-0.87
		c-2.19-2.19-4.54-3.94-8.83-3.32C854.29,322.38,856.66,324.33,859.95,323.31z M628.67,401.96c2.28-0.42,4.58-0.73,6.82-1.29
		c2.87-0.71,1.94,1.84,2.69,2.94c-7.28,3.3-12.14,8.32-14.77,15.26l0.31,0.57l-0.29-0.84c4.59-2.94,10.46-9.07,14.53-15.19
		c3.8,0.2,5.97-1.78,8.03-6.33c-6.7,0.95-12.61-0.07-17.05,4.98c-0.6,0.39-1.67-0.84-1.97,0.57
		C627.55,402.42,628.11,402.19,628.67,401.96z M741.48,310.35c-0.2-0.79-0.08-0.94,0.37-0.47c-0.2,0.06-0.41,0.12-0.61,0.17
		c10.07,4.75,20.38,8.67,31.76,8.75c-9.43-3.51-19.04-6.39-28.7-9.13C743.49,309.44,742.43,310.1,741.48,310.35z M777.92,332.99
		c4.06,1.6,7.02-1.01,9.85-3c3.93-2.76,7.46-6.09,11.99-9.87c-5.04-1.28-8.93-1.15-13.55-0.23c1.09,2.64,4.15,1.16,4.74,3.46
		c-2.66,5.27-8.51,6.65-12.89,9.89c-0.3,0.38-0.61,0.76-0.96,1.2C777.4,333.9,777.66,333.44,777.92,332.99z M791.98,361.58
		c0.68,1.75,1.63,2.35,3.2,0.83c-1.06-0.91-2.17-1.1-3.38-0.61c0.08-2.05-1.7-2.66-2.94-3.56c-9.97-7.27-21.34-11.75-32.67-16.3
		c-2.21-0.89-4.53-0.83-6.73,0.3c1.04-4.01-1.75-5.47-4.67-6c-2.99-0.54-6.16-0.12-10.86-0.12c5.59,4.41,11.14,3.93,15.82,5.8
		c11.32,4.82,22.35,10.18,32.92,16.51C785.48,360.1,788.52,361.59,791.98,361.58z M759.99,285.64c-0.11-0.98-0.11-2.18-1.46-0.74
		c0.55,0.18,1.1,0.36,1.65,0.54c0.06,1.56,1.32,2.23,2.36,2.94c9.14,6.22,20.32,7.95,29.86,13.38c1.44,0.82,4.53,0.23,5.08-3.23
		c-11.03-2.85-21.47-7.08-31.71-11.8C763.92,285.87,762.04,285.36,759.99,285.64z M840.13,349.65c-5.15-0.04-8.94,3.91-13.81,4.7
		c-4.53,7.71-12.91,8.69-20.23,11.43c-5.13,1.92-10.4,3.48-15.6,5.2c8.39,2.17,15.87-2.43,24.16-2.21
		c-14.52,12.33-29.7,23.28-47.21,31.02c-17.56,7.77-36.14,11.61-55.75,15.08c4.73,4.28,8.5,0.86,12.19,0.92
		c3.96,0.07,7.97-0.44,11.9-1.07c4.25-0.68,8.4-2.06,12.66-2.66c3.52-0.5,6.8-3.52,11.82-1.08c-11.05,5.85-21.89,9.35-33.74,11.84
		c1.45,2.39,3.04,2.92,4.59,2.49c3.5-0.98,7-2.09,10.34-3.51c9.28-3.94,18.14-2.72,26.89,1.64c2.08,1.04,4.38,1.64,6.42,2.73
		c6.57,3.52,13.08,7.15,19.92,13.26c-27.57,1-52.57,4.76-73.72,21.39c10-1.91,18.87-7.89,30.49-9.15
		c-6.15,6.68-13.7,10.25-16.93,18.33c5.92-0.56,8.5-6.88,14.74-6.8c-2.12,9.48-6.58,17.24-10.46,25.23
		c-3.95,8.14-10.4,14.85-13.69,23.44c2.82-1.52,5.3-3.22,7.33-5.36c2.73-2.89,5.25-6.01,7.6-9.22
		c8.39-11.44,13.43-24.52,17.08-38.02c2.31-8.54,7.68-13.73,15.57-14.84c12.67-1.78,25.86-4.24,37.41,4.61
		c0.1,0.08,0.54-0.28,1.63-0.88c-12.88-18.19-32.11-25.45-52.09-31.46c0.43-0.87,0.56-1.74,1.02-1.99
		c10.6-5.68,19.6-13.72,29.73-20.1c13.58-8.55,26.3-18.14,35.89-31.28c2.85-3.9,6.71-6.38,11.23-7.89c1.48-0.49,3.42-0.11,3.95-2.67
		c-0.43-0.92-0.98-2.11-1.53-3.3c0.92,0.01,2.12,0.07,0.74-1.17C840.4,348.04,839.81,348.95,840.13,349.65z M837.05,383.52
		c5.27,0.03,9.27-2.76,13.1-5.72c9.08-7.04,16.28-15.83,20.94-26.23c3.25-7.26,8.06-11.69,15.36-14.36c4.36-1.6,9.06-3.02,12.78-6.6
		c-2.56-1.31-4.5-0.34-6.21,0.47c-15.81,7.47-31.31,15.63-47.94,21.43c8.17,1.79,14.65-4.59,23.38-4.8
		C860.98,363.11,850.76,374.73,837.05,383.52z M834.79,453.42c6.64-0.91,33.64-12.06,37.56-15.51
		C858.83,441.44,847.23,446.13,834.79,453.42z M776.51,373.5c-3.88-2.19-7.85-1.48-11.76-1.55c-1.49-0.02-3.43-0.19-3.08,2.76
		C766.65,375.33,771.65,375.86,776.51,373.5z M813.74,306.5c5.08,1.95,9.05,1.85,14.12,0.11
		C822.81,304.67,818.84,304.77,813.74,306.5z M849.76,302.4c-3.26,0.29-6.4-0.21-8.31,2.72
		C846.24,304.71,846.24,304.71,849.76,302.4z M779.08,320.02c0.26-0.78,0.04-1.45-0.75-1.61c-0.54-0.11-1.45-0.03-1.7,0.32
		c-0.66,0.92-0.24,1.84,0.83,2.07C777.92,320.91,778.53,320.31,779.08,320.02z M834.9,305.99c0.53,0.23,1.16,0.75,1.55,0.61
		c0.38-0.14,0.5-0.96,0.74-1.48c-0.53-0.23-1.16-0.75-1.55-0.61C835.26,304.65,835.13,305.47,834.9,305.99z M855.17,427.08
		c-0.53-0.22-1.16-0.73-1.55-0.58c-0.37,0.14-0.48,0.96-0.71,1.49c0.53,0.22,1.17,0.74,1.55,0.59
		C854.83,428.43,854.94,427.61,855.17,427.08z M782.85,372.48c0.52,0.37,0.99,0.96,1.53,1.04c1.08,0.15,3.13,0.28,2.5-1.19
		C786.16,370.63,784.2,371.31,782.85,372.48z M729.5,466.7c-1.03-1.02-1.91-0.72-2.62,0.11c-0.53,0.61-0.23,1.71,0.34,1.59
		C728.05,468.22,728.74,467.31,729.5,466.7z M723.07,424.3c-0.62-0.24-1.21-0.65-1.76-0.61c-0.35,0.03-0.65,0.73-0.97,1.12
		c0.56,0.21,1.13,0.61,1.66,0.56C722.38,425.33,722.7,424.69,723.07,424.3z M807.74,306.08c-0.22-0.57-0.44-1.14-0.65-1.71
		c-0.25,0.22-0.73,0.48-0.7,0.65c0.11,0.59,0.39,1.15,0.61,1.72C807.24,306.52,807.49,306.3,807.74,306.08z M808.73,320.04
		c0.64,0.05,0.78-0.29,0.37-1c-0.02-0.03-0.52,0.12-0.53,0.2C808.55,319.51,808.66,319.78,808.73,320.04z M863.47,424.67l-0.55-0.39
		l-0.08,0.62L863.47,424.67z M883.46,436.58l-0.53-0.35l-0.07,0.57L883.46,436.58z M801.23,303.92c-0.22,0.2-0.44,0.39-0.66,0.59
		c0.2,0.21,0.4,0.59,0.61,0.59c0.21,0.01,0.44-0.35,0.66-0.54C801.63,304.34,801.43,304.13,801.23,303.92z M802.8,301.17
		c0.23-0.18,0.46-0.36,0.69-0.54c-0.19-0.22-0.36-0.61-0.57-0.63c-0.21-0.02-0.46,0.32-0.69,0.5
		C802.42,300.72,802.61,300.95,802.8,301.17z M883.47,272.62l-0.57-0.38l-0.08,0.58L883.47,272.62z M905.05,328.11l-0.36,0.56
		l0.61,0.06L905.05,328.11z M866.47,326.48l0.55,0.35l0.06-0.56L866.47,326.48z M815.55,318.57c-0.37-0.83-0.81-0.86-1.22-0.05
		c-0.05,0.09,0.35,0.57,0.56,0.58C815.1,319.11,815.33,318.76,815.55,318.57z M897.07,316.13l-0.35,0.53l0.57,0.07L897.07,316.13z
		 M823.19,316.14l-0.38,0.53l0.6,0.08L823.19,316.14z M829.32,314.61l-0.53-0.37l-0.09,0.55L829.32,314.61z"/>
	<path class="st0" d="M704.28,1171.22c9.78-11.96,20.12-22.99,33.82-30.6c31.7-17.61,65.77-7.04,85.28,20.47
		c10.11,14.25,15.39,30.28,18.1,47.06c4.5,27.9,2.43,55.59-5.17,82.86c-2.35,8.44-5.98,16.19-10.81,23.43
		c-8.49,12.74-16.9,25.53-25.49,38.2c-11.07,16.33-15.1,34.21-14.02,53.9c2.32,42.06,10.74,82.93,22.59,123.18
		c3.98,13.51,6.34,27.21,5.71,41.27c-0.61,13.47,2.72,26.37,4.92,39.45c0.83,4.91,1.91,9.79,2.4,14.74
		c1.42,14.3-3.3,26.89-11.59,38.23c-6.15,8.41-11.79,9.88-21.75,5.92c-24.2-9.63-46.81-22.28-68.79-36.15
		c-4.37-2.76-7.17-6.88-10.07-10.92c-23.55-32.82-44.02-67.35-59.02-105c-9.97-25.02-19.93-50.02-28.5-75.57
		c-2.54-7.57-3.41-14.67-0.19-22.1c1.05-2.42,2.26-5.01,2.37-7.56c0.41-9.65,6.41-15.2,13.28-20.9c19.3-16,36.63-34.01,49.72-55.5
		c17.99-29.52,28.46-61.2,27.52-96.42C714.03,1217.78,711.62,1200.1,704.28,1171.22z"/>
	<path class="st0" d="M575.29,1526.5c-3.27-3.59-3.13-7.62-2.72-11.6c1.66-16.49,3.7-32.94,5.06-49.46
		c0.79-9.6,0.53-19.28,0.8-28.93c0.16-5.96-0.54-11.94,1.09-17.87c0.69-2.51,0.18-5.24-0.44-7.89c-1.46-6.23-0.37-12.61-0.75-18.91
		c-1.32-21.75-7.92-41.62-20.44-59.55c-6.67-9.54-13.22-19.18-19.34-29.08c-13.85-22.38-21.87-46.67-25.04-72.92
		c-2.95-24.41,1.06-47.08,13.53-68.01c11.92-20,28.44-35.08,50.93-42.66c15.18-5.11,30.67-5.51,46.15-1.6
		c11.62,2.93,22.91,6.93,33.57,12.49c15.1,7.87,27.22,18.82,35.82,33.7c4.98,8.62,6.59,18.14,7.99,27.6
		c1.65,11.14,2.93,22.4,2.25,33.76c-1.53,25.58-3.96,51.07-12.83,75.31c-5,13.67-10.98,26.81-20.96,38.15
		c-7.17,8.15-12.83,17.71-19.97,26.09c-7.43,8.71-16.98,14.82-25.57,22.11c-4.54,3.85-9.17,7.33-11.96,12.98
		c-1.36,2.75-2.16,5.47-2.92,8.33c-2.01,7.57-2.98,15.32-4.28,23.03c-1.66,9.78-4.34,19.54-7.9,28.8
		c-7.26,18.9-12.99,38.26-19.01,57.54C577.44,1520.75,576.35,1523.52,575.29,1526.5z"/>
	<path class="st0" d="M491.01,399.82c-40.31,23.14-83.04,36.25-129.64,36.54c1.06-2.87,4.24-3.22,6.48-4.42
		c26.46-14.17,49.53-32.32,67.19-56.86c2.64-3.67,5.55-7.22,5.92-12.48c-7.84,8.74-15.68,17.48-23.65,26.35
		c-1.09-1.69-0.81-2.57-0.27-3.47c11.4-19.21,19.47-40.03,29.01-60.14c3.99-8.41,7.82-16.89,11.62-25.38
		c1.79-3.99,4.24-7.41,7.71-10.79c4.93,4.68,8.58,10.17,10.47,15.84c2.81,8.42,8.06,14.36,14.42,19.82
		c1.01,0.86,2.19,1.54,2.45,3.81c-3.76-0.43-7.43-1.25-11.07-1.14c-3.65,0.11-7.63-3.23-11.94,1.29
		c13.78,10.3,25.3,22.86,41.61,28.39c0.73,11.12,1.09,21.37,2.15,31.6c1.99,19.2,5.02,38.19,9.35,56.95
		c1.46,6.35,0.55,10.94-4.43,14.99c-3.35,2.72-6.32,5.91-9.67,8.63c-13.14,10.67-25.34,22.5-39.77,31.56
		c-9.49,5.95-19.12,11.56-29.47,15.7c-1.43-2.24,0.14-2.71,1.08-3.44c29.43-22.68,45.51-53.07,51.89-89.2
		C493.81,416.3,494.33,408.89,491.01,399.82z"/>
	<path class="st0" d="M518.32,1053.68c-0.84-4.86,2.87-8.01,4.87-11.58c4.49-7.98,4.32-16.06,3.95-24.93
		c-0.84-20.63-9.27-39.29-13.38-59.04c-3.31-15.9-8.14-31.49-9.59-47.76c-2.18-24.43-3.99-48.9-6.62-73.28
		c-0.85-7.87-0.98-15.85-2.7-23.69c-0.81-3.69-2.38-8.45,2.19-11.53c-1.15-3.11,0.48-6.19-0.63-9.64
		c-3.06-9.55-2.23-19.67-2.43-29.61c-0.01-0.46,0.71-0.94,1.09-1.4c1.65-0.35,2.36,0.99,3.15,1.93
		c12.73,15.33,25.38,30.71,38.12,46.03c6.89,8.29,9.95,17.81,10.11,28.51c0.15,9.7-1.52,19.23-2.98,28.69
		c-2.4,15.51-2.21,31-1.4,46.54c0.67,12.92,1.26,25.85,2.43,38.72c1.2,13.19,3.09,26.32,4.61,39.48c0.53,4.61,0.88,9.25,1.29,13.87
		c1.42,15.73-5.79,27.67-17.17,37.37c-4.72,4.02-8.92,8.96-15.09,11.08L518.32,1053.68z"/>
	<path class="st0" d="M807.48,542.61c0,6.3,0,12.23,0,18.57c-5.28,2.23-10.73,4.54-16.19,6.83c-0.61,0.26-1.41,0.76-1.87,0.56
		c-8.06-3.5-13.05,2.91-18.65,6.24c-4.45,2.64-8.03,4.09-13.64,3.47c-16.1-1.78-32.2-3.34-48.63-1.49
		c-13.1,1.48-26.31,2.56-39.33,4.37c-4.18-3.9-3.99-9.48-6.82-13.54c-2.57-3.7-3.14-8.73-8.01-12.14
		c-4.16,9.81-2.69,19.2-0.95,28.51c-1.22,0.65-2.03,1.3-2.94,1.53c-1.26,0.32-2.6,0.41-4.16-0.84c-1.5-9.08-2.16-18.64-2.5-28.21
		c-0.21-5.85,0.71-6.68,5.89-8.92c24.38-10.5,50.12-15.4,76.32-17.77c18.57-1.68,37.22-1.02,55.68,2.18
		c3.26,0.57,6.58,1.3,9.59,2.62C796.71,536.94,801.94,539.82,807.48,542.61z"/>
	<path class="st0" d="M488.46,787.93c-0.97,13.69,1.87,27.15,1.88,40.75c0.02,40.37,4.95,80.17,13.18,119.62
		c0.34,1.61,0.77,3.25-0.49,4.81c-23.66-8.59-39.59-25.32-48.72-48.3c-5.58-14.05-4.74-28.67,0.85-42.8
		c2.94-7.42,6.36-14.64,9.4-22.03c5.31-12.92,10.43-25.92,15.75-38.83c1.87-4.54,4.1-8.93,6.17-13.39
		C487.14,787.82,487.8,787.88,488.46,787.93z"/>
	<path class="st0" d="M369.9,290.25c30.4-3.38,54.31-17.87,77.98-32.33c5.36,4.14,8.7,10.05,13.64,23.77
		c-0.34,1.87-1.74,2.75-3.3,3.38c-19.28,7.71-39.16,12.7-60.07,12.07C388.92,296.86,379.67,295.88,369.9,290.25z"/>
	<path class="st0" d="M796.47,582.45c1.95-7.24,5.46-12.07,10.46-16.2C809.86,578.48,808.98,579.96,796.47,582.45z"/>
	<path class="st0" d="M571.52,504.72c-0.25,0-0.48,0-0.7,0c0-0.61,0-1.22,0-1.83c0.23,0,0.67-0.01,0.67,0.01
		C571.53,503.51,571.52,504.12,571.52,504.72z"/>
	<path class="st0" d="M518.13,1053.46c-0.13,0.29-0.2,0.62-0.4,0.84c-0.09,0.1-0.63,0-0.63-0.03c-0.03-0.7,0.4-0.9,1.22-0.6
		L518.13,1053.46z"/>
	<path class="st0" d="M804.16,193.49c-0.86,0.08-1.2-0.2-0.97-0.83c0.01-0.03,0.55,0.02,0.62,0.15c0.13,0.25,0.1,0.59,0.13,0.89
		C803.94,193.7,804.16,193.49,804.16,193.49z"/>
</g>
</svg>
