<?xml version="1.0" encoding="utf-8"?>
<!-- Generator: Adobe Illustrator 24.1.1, SVG Export Plug-In . SVG Version: 6.00 Build 0)  -->
<svg version="1.1" id="Layer_1" xmlns="http://www.w3.org/2000/svg" xmlns:xlink="http://www.w3.org/1999/xlink" x="0px" y="0px"
	 viewBox="0 0 721.92 1647.18" style="enable-background:new 0 0 721.92 1647.18;" xml:space="preserve">
<style type="text/css">
	.st0{fill:#1A1A1A;}
</style>
<g>
	<path d="M244.72,915.92c-4.31-2.04-8.26-3.78-12.08-5.78c-2.61-1.36-3.85-3.59-2.94-6.65c8.92-29.97,13.81-60.93,22.26-91.01
		c1.71-6.08,3.46-12.19,5.84-18.02c5.36-13.11,1.66-24.09-8.19-32.92c-20.8-18.66-42.17-36.64-64.98-52.88
		c-14.1-10.04-28.18-20.17-41.51-31.18c-11.24-9.29-21.47-19.81-31.96-29.98c-5.49-5.32-6.88-11.6-4.29-19.15
		c4.09-11.94,7.31-24.17,13.79-35.19c1.83-3.12,2.79-6.74,4.23-10.1c9.18-21.42,19.28-42.41,30.3-62.94
		c6.3-11.72,13.52-22.97,19.44-34.87c5.05-10.15,8.72-20.98,13.22-31.41c1.18-2.75-1.65-5.14-0.02-7.7c2-3.35,6.02-2.15,8.83-3.78
		c6.32-8.71,2.78-20.35,8.73-29.09c-1.81-3.27-4.27,2.12-6.23-1.53c2.35-3.92,6.85-7.46,8.86-12.93
		c-11.3-3.91-21.31,2.18-31.99,2.67c9.67-6.75,18.88-13.65,26.13-22.78c-2.13-2.58-4.12,2.13-6.3-0.18c0.7-2.63,3-4.12,4.86-5.77
		c13.81-12.25,28.5-22.62,47.46-25.8c6.48-1.09,13.09-3.29,18.88-7.33c3.58-2.5,7.61-4,11.08-7.21c4.02-3.71,10.45-3.81,16.03-4.71
		c6.86-1.11,13.75-2.06,20.44-3.05c1.65-3.19-0.23-4.65-2.37-5.8c-12.9-6.97-20.18-18.97-27.66-30.8c-0.68-1.07-1.5-2.24-0.21-4.36
		c5.73,4.62,11.45,9.32,19.09,11.96c-9.18-12.69-38.11-27.62-60.09-31.68c13.13-1.97,21.88-11.94,32.98-17.5
		c-23.27-14.11-40.04-35.38-59.18-54.04c-0.41-0.4-0.47-1.17-0.95-2.43c3.65-0.43,6.98-0.21,10.46,0.6
		c4.62,1.07,8.92,0.31,13.45-1.86c7.76-3.72,16.01-6.4,24.39-9.64c-0.42-2.71-3.01-3.2-4.53-4.61c-1.71-1.58-4.1-2.66-5.27-4.53
		c-5.83-9.31-14.7-15.32-23.15-21.74c-7.54-5.73-12.89-13.09-19.13-23.13c12.39,7.44,23.22,13.13,35.81,11.91
		c13.07-1.27,25.19-5.7,36.9-13.11c-4.47-16.98,1.85-31.94,9.72-47.78c1.46,8.78-2.91,16.17-0.22,24.65
		c4.66-4.87,10.27-7.49,16.16-9.52c3.25-1.12,4.49-3.81,5.67-6.56c11.75-27.61,27.34-53.27,40.65-80.08
		c0.89-1.8,1.74-3.61,3.77-4.58c3.78,0.43,4.46,3.23,4.77,6.37c1.1,11.22,2.75,22.42,3.22,33.67c0.45,10.69,1.86,21.15,3.89,31.61
		c0.94,4.83,1,9.84,1.51,15.2c6.73,2.13,13.3,0.15,19.8-0.05c2.41-0.08,3.88-2.39,5.36-4.19c4.27-5.19,7.61-10.92,9.86-17.25
		c0.75-2.12,1.02-4.46,3.79-6.16c1.58,12.95-0.1,24.97-6.45,37.04c25.79,3.51,49.32,11.17,71.14,22.07
		c33.82-5.36,60.53-22.72,84.65-46.31c-2.48,17.66-15.64,54.14-37.04,78.19c7.37,6.85,16.36,10.98,25.29,15.12
		c9.01,4.19,18.48,6.7,28.62,6.79c-20.71,8.87-41.27,6.85-63.04-0.78c11.38,18.86,19.45,37.92,27.64,56.91
		c3.97,9.21,9.94,16.42,18.38,21.72c3.94,2.48,7.8,5.1,11.65,7.72c1.58,1.08,3.58,1.83,4.27,4.97c-13.76-0.73-26.98-1.49-40.06-4.83
		c-12.95-3.31-25.03-8.67-37.14-14.69c-0.6,8.37,4.5,26.32,10.61,39.33c5.97,12.71,16.92,20.89,28.94,31.25
		c-29.61-8.13-49.54-26.34-69.15-45.86c-2.56,1.36-5.24,3.18-7.13,5.87c-0.93,3.3,2.22,6.26-0.2,9.73
		c-3.12,4.46-6.48,8.74-11.36,10.9c-5.08,2.25-8.73,5.32-12.06,9.81c-3.08,4.15-7.81,7.18-12.11,10.28
		c-2.84,2.05-6.42,1.65-9.69,0.86c-3.2-0.78-6.29-1.97-9.92-3.14c-4.33,4.05-3.86,9.2-3.53,14.66c3.72,1.26,7.13,2.22,10.81,2.31
		c8.68,0.21,16.96,3.07,25.52,4.06c4.84,0.56,7.31,4.07,10,7.7c4.1-1.17,7.87-2.35,11.69-3.3c8.39-2.08,16.81-3.85,25.54-3.89
		c8.32-0.04,16.54-1.34,24.65-3.23c1.96-0.46,3.84-1.03,6.17-0.49c-3.07,4.59-10.22,2.51-12.62,8.19c7.81,2.33,15.5,4.95,23.37,6.9
		c11.78,2.93,23.61,3.69,35.25-0.96c0.5-0.2,1.21,0.14,2.39,0.31c-3.7,4.74-10.46,4.06-14.23,9.08c4.44,1.13,6.52-3.64,10.2-3.29
		c3.34,0.94,5.91,4.14,9.95,3.64c1.2-0.15,3.22,0.24,3.65,1.04c3.27,6.08,9.07,4.14,14.12,5.04c5.86,1.05,11.56,3.01,17.33,4.59
		c5.04,1.38,9.98,3.38,15.69,2.8c0.69-17.26,0.57-34.08-1.21-50.94c-0.93-8.76-2.94-17.12-6.74-24.84
		c-2.68-5.44-7.09-10.03-10.43-14.59c-1.09-3.82,2.79-5.63,2.34-9.5c-3.35-3.36-6.77-7.54-10.91-10.82
		c-9.77-7.73-12.28-17.79-10.03-29.35c2.95-15.22,1.96-30.5,1.27-45.78c-0.41-9.1-0.36-10.47,3.01-18.26
		c1.52-0.3,1.55,0.91,1.44,1.74c-0.93,7.01,1.91,12.2,7.35,16.41c3.66,2.83,5.1,6.73,4.83,11.45c-0.2,3.58-0.74,7.4,2.12,10.48
		c0.5-0.26,1.32-0.4,1.46-0.79c3.58-9.8,9.43-18.18,15.37-26.68c4.52-6.46,7.52-14.04,10.8-21.3c3.85-8.51,7.16-17.26,15.84-22.34
		c1.96-1.14,2.09-4.25,5.14-5.07c-1.97,14.91-6.52,28.98-9.67,43.72c6.13-8.52,12.84-16.7,18.23-25.67
		c5.44-9.08,13.11-15.3,21.38-21.38c2.08,3.3-0.58,6.23,0.16,8.99c3.02,0.36,3.69-3.2,7.03-2.87c0.14,11.05-2.54,21.42-8.13,30.87
		c-5.26,8.88-8.12,18.97-14.14,27.44c-0.55,0.78-0.59,1.91-0.99,2.82c-0.93,2.12-0.29,4.04,1.08,5.55c1.6,1.77,3.8,1.25,5.51,0.21
		c5.1-3.09,10.54-5.7,14.72-10.17c3.18-3.41,6.54-6.66,9.88-9.91c5.46-5.31,11.72-9.2,20.32-11.31c-2.07,7.2-4.8,13.08-8.68,18.33
		c-7.35,9.93-15.51,19.16-25.29,26.76c-7.25,5.63-13.15,12.06-16.42,20.86c-2.08,5.59-5.01,10.87-7.51,16.31
		c-2.49,5.4-5.32,10.58-9.48,14.61c1.46,3.13,4.81,3.18,6.7,6.12c-0.07,4.81,2,10.02,1.5,15.64c-0.29,3.33,1.38,6.41,2.85,9.44
		c5.82,12.03,13.33,23.03,20.51,34.24c6.82,10.65,13.07,21.57,18.41,33.1c5.89,12.7,7.35,26.09,8.52,39.66
		c1.13,13.02-1.29,25.87-2.17,38.78c-0.51,7.42-10.03,15.62-17.74,16.08c-10.65,0.63-21.24,0.93-31.75-1.81
		c-15.18-3.97-30.92-3.97-46.37-6.1c-14.13-1.95-28.3-3.64-42.45-5.44c-0.99-0.13-2.08-0.58-2.95-0.32
		c-7.71,2.34-14.58-0.77-21.89-2.51c-10.93-2.61-22.19-4.09-33.4-5.07c-4.25-0.37-9.04,0.63-12.35,5.04
		c-2.75,3.65-6.68,6.41-10.46,9.91c6.76,11.27,13.7,22.57,20.37,34.02c5.86,10.06,11.57,20.18,16.11,30.96
		c6.6,15.66,6.05,30.52-0.89,46.21c-8.48,19.17-17.97,37.84-26.91,56.77c-2.25,4.77-2.47,9.61-2.89,14.51
		c-0.38,4.46,2.56,7.76,5.86,9.86c8.52,5.43,15.27,12.81,22.68,19.47c1.73,1.56,3.75,2.91,5.1,4.74c2.6,3.53,5.1,6.91,10.93,5.42
		c-1.61,8.22,2.34,12.82,5.53,18.34c10.81,18.68,25.37,34.79,35.44,53.97c10.05,19.14,20.84,37.89,29.7,57.65
		c3.41,7.59,7.01,15.07,9.61,23.01c0.91,2.78,2.77,5.29,4.38,7.81c1.79,2.8,3.66,5.51,3.73,9.33c-3.55,4.45-9.21,6.07-14.1,9.54
		c-0.12,1.01-0.58,2.35-0.38,3.57c3.06,18.54,2.28,37.02,0.29,55.64c-1.34,12.54-2.36,25.11-4.2,37.59
		c-0.75,5.09,2.29,10.06,0.91,15.35c-0.26,0.99,0.83,2.55-0.21,3.64c-3.41,3.56-2.46,7.52-2.32,11.95c0.11,3.64-0.39,8-1.75,11.65
		c-2.58,6.96-3.47,14.17-4.28,21.42c-1.94,17.48-4.05,34.94-6.14,52.4c-1,8.4,1.19,17.16,3.62,25.49c0.65,2.23,1.38,4.46,2.34,6.57
		c11.29,24.86,15.18,51.6,18.55,78.22c2.41,19.07,2.01,38.45-0.53,57.75c-2.17,16.49-3.84,33.02-8.91,48.94
		c-3.22,10.13-6.65,20.21-10.16,30.25c-4.51,12.91-7.48,26.18-10.35,39.52c-2.79,12.95-1.42,25.89-0.45,38.78
		c0.52,6.94,4.32,13.21,7.27,19.53c6.49,13.88,12.53,27.91,15.97,42.93c2.65,11.57,2.3,23.18-0.11,34.62
		c-1.66,7.91-1.58,15.87-2.18,23.8c-0.47,6.28,0.35,12.65-1.36,18.85c-0.09,0.31-0.08,0.67-0.03,1c2.89,19.04-0.62,38.54,4.71,57.5
		c2.21,7.85,3.05,16.26,3.33,24.59c0.2,5.89-1.2,11.14-4.28,16.12c-3.11,5.03-7.04,8.5-13.03,9.96c-3.1,0.75-5.82,3.13-8.67,4.84
		c-5.95,3.56-12.27,5-19.13,3.39c-0.97-0.23-2.04-0.96-2.85-0.73c-8.57,2.43-15.44-1.61-22.45-5.51c-1.68-0.93-3.85-0.93-5.73-1.56
		c-7.66-2.55-12.58-9.16-12.5-17.26c0.07-7.36,1.36-14.54,3.95-21.47c4.21-11.29,6.96-22.81,6.76-35.02
		c-0.11-6.61,1.74-13.16,1.24-19.85c-1.25-16.58-1.47-33.2-2.24-49.8c-0.43-9.22-2.96-18.3-4.11-27.55
		c-2.06-16.63-1.84-33.23-1.52-49.84c0.45-24.01-0.78-47.78-6.19-71.26c-6.04-26.21-11.74-52.54-19.75-78.21
		c-3.36-10.76-6.9-21.38-8.8-32.49c-2.57-15.07-4.25-30.25-4.68-45.53c-0.46-16.31-0.5-32.63-0.72-48.95
		c-0.19-13.67,1.46-27.18,3.29-40.7c1.61-11.89,1.96-23.46-2.76-35.26c-8.26-20.67-13.58-42.42-21.56-63.25
		c-1.54-4.01-3.93-7.49-5.28-11.66c-6.92-21.26-15.48-42-19.48-64.15c-0.4-2.23-1.29-4.37-2.18-7.28c-8.93,2.21-17.5,4.33-25.6,6.33
		c-10.13,19.6-19.99,38.8-29.98,57.94c-2.31,4.42-5.07,8.59-7.63,12.88c-1.69,2.83-3.96,5.36-4.1,8.95
		c-0.07,1.64-0.82,3.01-2.37,4.1c-6.98,4.9-11.19,12.14-15.18,19.33c-4.35,7.84-8.07,16.05-11.82,24.21
		c-2.9,6.33-3.86,12.74-3.75,20.05c0.37,25.78,6.96,50.66,9.51,76.08c2.76,27.57,0.85,54.49-12.3,79.61
		c-8.33,15.92-16.42,31.95-25.4,47.54c-7.63,13.24-13.86,27.28-19.11,41.69c-6.62,18.15-11.8,36.69-15.24,55.72
		c-0.73,4.01-0.88,8.08-0.15,11.92c2.22,11.75,3.61,23.65,6.73,35.23c2.44,9.03,3.03,18.31,3.16,27.68
		c0.11,7.76-2.16,14.39-6.77,20.4c-6.07,7.92-12.65,15.5-18.21,23.77c-13.66,20.3-24.52,41.87-27.55,66.63
		c-0.86,7.02-0.36,14.11,0.66,20.91c1.73,11.48-3.76,19.21-11.6,25.72c-9.55,7.93-20.39,12.71-33.32,12.97
		c-6.11,0.12-12.09,3.49-18.53,2.9c-8.39-0.77-16.92-0.19-24.85-4.38c-8.11-4.29-11.5-12.81-6.86-20.92
		c2.94-5.14,5.81-10.4,10.35-14.57c5.69-5.22,9.32-11.83,12.35-19.03c13.07-31.04,21.58-63.47,30.55-95.81
		c8.98-32.39,15.56-65.3,22.18-98.2c3.08-15.28,5.45-30.77,6.97-46.29c1.13-11.56,0.84-23.32,0.35-34.95
		c-0.41-9.66-0.47-19.31-0.49-28.96c-0.06-27.99,0.18-55.99-0.1-83.98c-0.14-13.69,1.58-27.21,2.85-40.76
		c1.3-13.87,3.56-27.64,5.06-41.49c1.4-12.93,4.94-25.46,6.68-38.29c1.78-13.14,3.02-26.36,4.05-39.58
		c0.41-5.29,2.06-10.45,1.49-15.85c-0.35-3.29,0.32-6.69-1.09-9.85c-0.99-2.24-0.86-4.62-0.52-6.89c2.39-15.92-0.67-31.6-1.81-47.37
		C245.32,928.63,245.09,922.65,244.72,915.92z M244.89,560.26c-8.32,11.71-15.17,21.91-22.62,31.65
		c-4.32,5.65-4.04,10.63-0.49,16.32c6.71,10.74,11.28,22.52,15.88,34.27c5.68,14.51,10.53,29.42,19.6,42.37
		c5.14,7.35,10.25,14.72,15.36,22.09c2.65,3.83,5.49,7.45,9.83,9.71c1.74-3.09,4.26-6,2.56-9.37c-2.03-4-0.34-7.06,1.4-10.27
		c1.27-2.33,3.3-4.38,4.03-6.85c3.68-12.38,8.31-24.42,12.97-36.03C283.94,622.9,264.82,592.22,244.89,560.26z"/>
	<path class="st0" d="M307.49,339.54c-3.48-1.27-3.48-1.27-5.24-5.22c-6.37,5.6-8.92,12.28-7.03,20.44
		c3.64,15.66,11.87,28.96,22.7,40.42c15.36,16.26,32.58,30.38,52.26,41.26c9.05,5,18.79,8.14,28.5,10.72
		c25.62-22.75,37.36-78.35,22.17-108.06c0,4.57,0,7.9,0,11.25c-7.48,1.01-9.21-0.03-9.64-6.61c-0.26-3.91-0.56-7.92,0.76-11.81
		c4.31-1.57,8.07-0.11,11.85,0.36c4.78,5.81,2.57,13.97,7.43,19.49c1.72-4.27,1.75-5.45,1.88-7.89c0.16-2.98-2.29-5.67-0.77-8.84
		c1.4-1.79,2.95-0.16,4.42,0.01c4.81,0.58,6.82,3.56,6.91,8.18c0.17,7.99-0.1,15.93-1.27,23.87c-0.76,5.2-0.93,10.49-1.52,17.67
		c4.54-5.02,5.01-10.05,8.03-14.29c0.23,14.99-2.87,28.65-9.72,41.44c-5.84,10.91-13.36,20.6-21.53,29.87
		c-2.52,2.86-6.14,5.21-6.16,9.73c-0.49,0.13-0.98,0.26-1.46,0.4c0.24,0.28,0.48,0.56,0.73,0.84c0.18-0.48,0.37-0.95,0.55-1.43
		c1.61-0.13,3.22-0.25,5.48-0.43c0.11,5.03,0.02,9.93,0.36,14.8c1.89,26.52,2.85,53.07,2.65,79.67
		c-0.07,10.15,0.47,20.31-0.86,31.94c8.54-4.71,12.29-10.8,14.02-18.36c0.44-1.93,0.48-3.96,0.53-5.96
		c0.68-23.61,0.59-47.17-2.92-70.62c-1.82-12.12-3.27-24.3-4.8-36.47c-0.42-3.34-0.27-6.64,2.18-9.39
		c12.8-14.39,21.95-30.72,25.95-50.68c1.42,1.94,2.49,2.87,2.91,4.04c8.72,24.24,22.45,45.9,34.95,68.2
		c9.42,16.81,19.89,33.03,28.4,50.37c3.41,6.95,5.36,14.3,6.78,21.79c1.53,8.04,0.41,15.91-2.96,23.37
		c-5.61,12.42-11.32,24.78-17.02,37.15c-6.13,13.27-12.3,26.52-18.45,39.78c-1.83,3.95-3.2,8.03-3.49,12.41
		c-0.07-0.08-0.14-0.16-0.2-0.24c3.24,0.85,2.7-3.37,5.1-3.75c4.05,0.21,7.15,2.45,10.09,5.07c7.38,6.57,14.85,13.05,22.16,19.7
		c5.09,4.63,5.02,10.32-0.05,15.43c-1.62,1.63-3.49,3-5.26,4.47c-1.52,1.26-3.05,2.5-4.89,4c3.24,2.68,5.27-1.63,7.6-0.02l-0.21-0.2
		c-0.34,2.98-3.02,4.2-4.68,6.18c-1.47,1.75-3.55,3.15-3.19,5.88c-1.44-0.11-2.11,0.56-2.03,2c-2.27-0.31-3.74,1.11-5.12,2.5
		c-11.92,12.03-25.66,21.73-39.64,31.13c-2.61,1.76-5.96,2.93-7.07,6.42c-2.57,0.66-6.36,0-5.15,4.75
		c-1.87-0.65-3.65-0.73-5.15,0.86c-0.22,0.2-0.47,0.37-0.64,0.61c-0.08,0.1,0.01,0.32,0.01,0.49c0.12-0.46,0.24-0.91,0.36-1.37
		c1.77-0.21,3.54-0.42,5.31-0.64c1.44-1.88,4.25-2.37,5.04-4.92c2.2,0.38,3.84-0.96,5.48-1.98c14.1-8.75,27.59-18.35,39.67-29.78
		c2.55-2.41,5.96-4.32,6.7-8.28c1.46,0.13,2.13-0.54,2.03-2c1.87,0.43,2.62-0.97,3.5-2.14l-0.23-0.07c0.75,2.06-0.41,3.62-1.34,5.25
		c-0.91,1.6-2.35,3.04-1.75,5.15c-1.5-0.15-2.09,0.59-2.01,2.02c-0.29,0.06-0.61,0.07-0.85,0.21c-0.12,0.07-0.14,0.58-0.12,0.59
		c0.58,0.14,0.83-0.21,0.74-1.03c1.47,0.17,2.13-0.51,2.07-1.95c3.85-0.69,5.42-4.17,7.89-6.52c1.32-1.26,1.9-3.43,4.29-3.27
		l-0.19-0.18c0.37,4.3-3.61,6.76-4.48,10.64c2,1.74,2.73-0.55,3.81-1.33c3.08-2.23,4.64-6.34,8.9-7.12l-0.21-0.18
		c-1.17,7.71-6.73,12.7-11.5,18.04c-14.59,16.33-32.58,28.18-51.75,38.37c-30.38,16.15-62.46,27.74-96.08,34.83
		c-10.97,2.31-22.06,4.5-33.34,5.15c-1.76,0.1-4.14-0.8-4.81,2.05c-1.95-0.13-3.9-0.46-5.83-0.34c-1.86,0.11-4.04-0.93-5.88,1.63
		c4.12-0.47,8.02,1.18,11.51-1.52c23.86,0.11,46.81-5.21,69.49-11.87c31.74-9.33,62.15-21.71,89.99-39.9
		c11.73-7.66,22.54-16.32,32.14-26.61c6.72-7.2,11.71-15.26,15.27-24.35c0.46-1.18,0.47-2.69,1.95-3.32
		c1.94,1.62,1.09,3.53,0.43,5.3c-3.38,9.11-8.32,17.38-13.76,25.37c-24.52,35.97-58.85,58.15-99.99,70.37
		c-20.41,6.06-41.25,9.99-62.63,11.44c-10.31,0.7-20.59,1.35-30.86,0.96c-12.58-0.48-25.13-1.88-37.7-2.83
		c-2.98-0.23-5.98-0.22-8.97-0.41c-8.47-0.54-15.99-3.77-23.89-7.91c1.55-5.23,1.36-10.04,5.3-14.33c2.03-2.22,1.94-6.98,1.18-10.63
		c-1-4.81,0.4-9.07,1.85-13.59c3.86-12.09,10.37-23.03,14.7-34.9c1.93-5.28,4.52-10.37,3.17-16.35c-0.34-1.5,0.15-3.36,0.74-4.87
		c4.73-12.06,9.57-24.07,14.43-36.08c0.34-0.83,1.15-1.47,1.72-2.16c3.25,1.38,3.63,5.77,7.33,6.39c0.26,0.76-0.77,2.71,1.31,1.71
		c0.46-0.22-0.38-1.56-1.52-1.52c-1.51-6.92-5.32-12.81-8.95-18.66c-17.91-28.82-35.86-57.62-54.2-86.16
		c-4.53-7.05-5.08-14.43-4.22-22c1.08-9.54,2.51-19.09,5.63-28.28c1.61-4.73,3.66-9.2,5.84-13.7c9.43-19.43,19.06-38.79,26.17-59.26
		c1.74-5.02,4.24-9.8,5.71-14.89c1.34-4.65,1.75-9.57,2.57-14.39c3.99,0.41,5.93,3.47,8.65,5.26c9.96,6.59,19.38,13.92,30.59,18.63
		c7.28,3.06,13.88,7.76,21.25,11.99c-1.14,6.25-2.25,12.39-3.38,18.53c-4.19,22.6-6.51,45.36-5.9,68.38
		c0.28,10.62-0.18,21.19,1.65,31.83c1.1,6.37,3.96,10.21,8.9,13.34c1.96,1.24,3.91,2.53,6.46,2.55c2.49-1.7,1.62-4.18,0.93-6.19
		c-2.12-6.14-1.93-12.45-1.93-18.77c0.01-24.65-0.03-49.3,0.03-73.94c0.01-5.65,0.4-11.3,0.56-16.95c0.09-3.32,0.41-6.67-1.37-11.03
		c-4.21,19.87-4.57,38.93-4.61,58.05c-0.04,18.87-0.07,37.71,3.42,57.47c-6.27-2.75-9.62-6-9.36-12.15
		c0.67-15.93-0.45-31.86,1.02-47.85c1.33-14.54,2.64-29.07,4.58-43.54c0.74-5.52,1.93-10.98,2.93-16.52
		c5.41,0.87,9.93,2.98,14.55,4.82l0.59-0.32l-0.85,0.34c1.05-1.67,0.89-3.12-0.95-4.04c-1.44-0.73-3.18-0.95-4.05-2.57l-0.3,0.18
		c1.45-0.29,2.91-0.58,6.07-1.22c-3.16-0.58-4.61-0.84-6.06-1.11l0.3,0.19c-0.7-1.81-2.52-2.02-3.98-2.65
		c-25.14-10.89-48.8-24.29-69.77-42.03c-10.96-9.27-20.83-19.72-27.79-32.39c-5.63-10.26-6.19-10.5-4.56-22.32
		c4.23-0.76,7.87-3.41,11.1-6.13c3.92,1.71,1.41,5.91,4.09,7.71c3.16-2.5,3.32-6.45,4.31-9.83c0.99-3.35,2.86-5.26,5.97-5.92
		c7.79-1.67,15.6-3.31,23.46-4.58c3.54-0.57,7.3-0.71,10.56,1.58c1.03,4.83-1.16,9.15-1.67,13.73c-4.63,2.85-9.54,2.67-14.39,2.29
		c-2.24-3.34,2.79-3.21,2.38-5.58c0.63-0.09,1.94,0.39,0.91-1.09C307.96,338.66,307.73,339.1,307.49,339.54z M476.48,636.3
		c2.36,0.28,3.04-0.98,2.81-3.07c4.95-4.67,6.72-8.12,8.14-15.78c2.15-0.78,2.16-2.44,1.78-4.27c2.62-0.26,2-2.28,2.13-3.9
		c1.69-0.88,1.81-2.51,1.99-4.12c0.27-0.51,2.02-0.44,0.63-1.6c-0.12,0.62-0.23,1.24-0.35,1.86c-2.35,0.55-1.86,2.48-1.99,4.11
		c-2.5,0.27-2.2,2.14-2.19,3.84c-2.23,0.74-2.2,2.42-1.79,4.27c-4.93,4.11-6.79,9.82-8.17,15.76c-1.91,0.14-1.61,2.36-2.89,3.09
		c-0.08,0.98-0.16,1.97-0.25,2.95c0.28-0.01,0.57-0.03,0.85-0.04C476.95,638.36,476.72,637.33,476.48,636.3z M283.15,774.6
		l0.78-0.27l-0.79-0.27L283.15,774.6z M290.19,774.19c-0.28-0.09-0.58-0.28-0.83-0.24c-1.06,0.19-1.11,0.59-0.12,0.99
		c0.24,0.1,0.61-0.01,0.86-0.13C290.21,774.75,290.17,774.4,290.19,774.19z"/>
	<path class="st0" d="M594.6,1080.6c2.02,19.62,9.64,35.78,13.58,53.03c-20.88,37.62-68.12,49.1-104.65,23.13
		c0-10.46,0-21.07,0-33.05c3.72,3.55,4.74,7.22,6.45,10.43c1.86,3.49,3.6,7.03,5.63,11.02c0.93-4.67,0.71-8.55-0.81-14.15
		c-1.31-4.81-2.77-9.58-4.1-14.38c-1.31-4.72-3.47-9.27-3.22-15.15c7.91,0.2,14.94,3.81,22.51,3.57c7.96-0.25,15.94,0.27,23.79-1.84
		c7.44-2,14.38-5.11,21.32-8.38C582.04,1091.56,587.59,1086.37,594.6,1080.6z M561.61,1137.65c5.15-8.66,6.31-16.57,6.98-24.62
		C564.81,1120.22,562.28,1127.75,561.61,1137.65z"/>
	<path class="st0" d="M502.73,1181.44c43.96,18.57,80.52,9.41,110.53-27.39c2.84,3.18,1.78,6.68,2.43,9.65
		c0.63,2.91,1,5.88,1.35,8.84c0.86,7.25,0.47,14.58,1.9,21.81c0.85,4.3,0.03,8.7-2.2,12.56c-13.09,22.68-32.23,35.55-58.87,36.8
		c-17.09,0.8-32.11-3.94-45.5-14.5c-4.14-3.26-6.89-6.73-7.32-12.32c-0.62-7.92-2.25-15.75-3.12-23.65
		C501.53,1189.65,501.25,1185.93,502.73,1181.44z"/>
	<path class="st0" d="M241.76,1102.64c1.55-10.79,3-20.92,4.56-31.81c4.42,5.32,2.2,11.37,3.7,16.56c1.56,5.4,1.39,11.26,4.5,16.58
		c1.89-3.74,1.61-7.4,1.54-11.34c-0.18-9.67-1.2-19.22-2.49-28.76c-0.45-3.31-0.68-6.56,0.14-9.69c5.62-2.54,10.89-2.36,16.69-1.64
		c19.75,2.47,36.71,11.28,52.88,21.98c7.6,5.03,12.55,12.78,17.92,19.91c3.14,4.18,2.05,9.65,1.71,14.57
		c-0.19,2.82-2.82,4.5-5.09,5.8c-10.51,6.04-21.77,9.87-33.92,10.8C279.94,1127.47,259.54,1119.54,241.76,1102.64z M304,1076.02
		c-5.58,2.15-4.87,7.3-5.81,11.66c3.52-3.21,4.63-7.53,5.6-11.9C303.87,1075.87,303.94,1075.95,304,1076.02z"/>
	<path class="st0" d="M348.56,1165.92c1.38,12.34-0.1,23.31-2.59,34.24c-0.65,2.84-2.56,4.57-4.39,6.48
		c-13.46,14.01-30.5,21.03-49.06,24.88c-16.62,3.45-33.03,3.13-48.9-3.74c-1.83-0.79-3.68-1.55-5.39-2.55
		c-1.44-0.84-2.74-2.04-2.95-3.82c-1.61-13.76-1.93-27.54-1.18-42.49C275.62,1201.82,313.27,1197.03,348.56,1165.92z"/>
	<path class="st0" d="M229.95,1357.38c31.6,6.42,25.33,5.05,51.7-2.51c-1.08,7.47-2,14.63-3.18,21.74
		c-1.21,7.29-1.41,14.71-0.18,21.85c1.55,9,0.87,17.09-4.46,24.7c-1.68,2.4-2.61,5.31-4.36,8.98c3.27-0.14,4.49-1.98,5.82-3.5
		c2.57-2.95,3.59-7.11,7.52-9.91c2.56,10.1,4.77,19.61,5.09,29.59c0.21,6.46-2.06,11.46-6.29,16.55c-3.86-2.9-5.23-7.16-7.57-10.61
		c-11.03-16.23-26.04-26.23-45.28-30.17c-3.88-0.79-8.02,0.58-12.08-1.68C219.67,1400.44,227.07,1379.39,229.95,1357.38z
		 M258.4,1418.92c0.32,6.55,0.32,6.55,4.06,10.72C262.17,1423.1,262.17,1423.1,258.4,1418.92z"/>
	<path class="st0" d="M513.63,1255.54c37.94,15.23,70.89,9.74,101.32-19.58c1.51,3.78,0.49,7.41-0.15,10.7
		c-2.77,14-6.46,27.77-10.92,41.36c-1.76,5.37-4.92,9.01-9.49,12.19c-9.77,6.8-20.43,11.45-32.17,12.4
		c-12.45,1-23.35-3.84-32.84-11.87c-4.96-4.2-8.27-9.09-9.37-15.81C518.46,1275.5,516,1266.24,513.63,1255.54z"/>
	<path class="st0" d="M500.05,1056.33c3.13-5.2,7.14-7,11.05-8.75c14.1-6.33,28.89-9.59,44.36-9.94c12.64-0.28,25.13,0.3,37.4,4.49
		c0,9.06,0.17,17.95-0.1,26.83c-0.08,2.67-2.25,4.73-4.32,6.47c-21.43,18.03-48.04,24.22-76.22,11.53
		c-4.65-2.1-6.96-5.14-7.34-10.63C504.4,1069.49,503.81,1062.45,500.05,1056.33z"/>
	<path class="st0" d="M344.09,1117.81c1.82,9.27,1.04,16.66,2.86,23.77c0.74,2.89-1.24,4.97-3.2,6.89
		c-12.48,12.19-27.36,19.66-44.43,23.12c-10.66,2.16-21.16,1.66-31.53-1.05c-11.43-2.99-21.63-8.37-30.24-17.37
		c-1.59-12.28,1.11-24.59,2.75-37.86c8.72,4.52,15.93,10.53,24.75,13.46c8.57,2.84,17.33,4.6,26.35,4.86
		c9.36,0.27,18.51-1.04,27.52-3.69C327.5,1127.42,335.6,1123.87,344.09,1117.81z"/>
	<path class="st0" d="M338,1068.4c-23.65-25.09-51.09-35.4-84.24-30.27c-1.48-12.11,0.89-23.48,1.69-34.83
		c29.53-11.52,76.36-1.38,98.69,27.36C349.03,1042.59,342.8,1054.27,338,1068.4z"/>
	<path class="st0" d="M494.23,1037.52c-4.07-7.44-6.07-15.79-9.35-23.39c2.23-5.47,6.61-8.19,10.75-10.66
		c22.07-13.17,45.82-20.84,71.76-20.38c11.4,0.2,22.22,3.11,32.6,8.51c-0.24,10.48-1.53,20.59-3.41,30.66
		c-3.02,0.34-5.2-1.37-7.55-2.41c-9.82-4.39-20.02-6.8-30.83-6.86c-28.91-0.14-28.4-1.11-55.52,18.87
		C500.09,1033.77,498.49,1037.14,494.23,1037.52z"/>
	<path class="st0" d="M487.52,983.46c-5.1-0.36-6.86,4.65-10.86,6.74c-2.76-4.29-2.16-8.84-0.31-12.96
		c3.16-7.04,7.56-13.05,14.74-16.95c17.97-9.76,36.59-17.45,57.2-18.95c16-1.16,31.85-0.48,47.09,5.53
		c4.74,1.87,9.04,4.12,11.76,7.86c1.79,2.64-0.62,4.12-0.62,5.99c0,1.58,1.86,2.78,1.23,4.37c-1.85,2.34-4.02-0.23-6.02,0.98
		c-0.12,1.74,2.79,3.37,0.05,5.97c-6.24-2.18-12.5-5.73-19.68-6.34c-7.26-0.62-14.45-2-21.72-2.56c-7.3-0.56-14.54,0.52-21.76,1.81
		c-7.23,1.29-14.16,3.42-20.99,6.06c-6.87,2.65-13.07,6.45-19.39,10.13c-6.39,3.72-11.1,9.36-16.81,14.52
		c-0.85-5.97,6.45-7.23,5.9-12.39c0.9-0.1,2.46,0.05,0.78-1.33C487.76,981.65,487.14,982.67,487.52,983.46z M554.77,954.62
		c-3.17-1.65-6.19-0.9-9.17,0.51C548.65,954.96,551.71,954.79,554.77,954.62z M537.7,956c-0.61,0.26,0.58,1.57,1.7-0.15
		C538.12,955.97,537.08,956.06,537.7,956z M562.65,952.48c1.18,1.05,2.34,1.05,3.52,0C564.99,951.45,563.83,951.45,562.65,952.48z
		 M576.7,954.1c0.55,1.18,1.59,0.9,2.5,0.72c1.03-0.2,1.06-0.75,0.07-1.12C578.35,953.35,577.4,953.33,576.7,954.1z"/>
	<path class="st0" d="M542.77,1470.31c19.68-11.77,41.97-8.75,64.12,7.9c1.77,5.99,2.63,11.95,1.1,18.44
		c-1.35,5.73,0.64,11.96-1.68,18.52c-6.21-1.75-12.34-4.06-18.67-5.09c-6.52-1.07-13.3-1.2-19.84,0.28
		c-6.39,1.44-12.67,3.39-19.89,5.36C547.65,1499.64,545.44,1484.65,542.77,1470.31z"/>
	<path class="st0" d="M223.81,1562.91c-0.64,2.97,1.9,3.96,3.53,5.39c2.44,2.14,5.09,4.04,7.75,6.12c-2.49,2.42-3.94,0.36-5.39-0.5
		c-11.56-6.86-23.8-11.67-37.35-12.53c-3.61-0.23-7.25-0.03-11.52-0.03c0.09-2.83-2.38-5.21-0.53-8.21
		c6.02-9.77,5.56-21.51,9.7-31.85c1.47-3.67,1.49-7.86,4.03-11.11c18.77-5.84,36.86,1.95,44.59,19.27c1.05,2.36,2.34,4.73,1.28,7.58
		c-3.76,10.05-4.86,20.53-4.1,31.43c-5.18-0.44-7.77-4.95-12.18-5.34c-1.11-2.05-2.77-1.78-4.53-1.07
		c-0.37-0.66-0.29-0.88,0.25-0.66c-0.16,0.13-0.32,0.26-0.48,0.4C220.41,1562.58,221.87,1563.81,223.81,1562.91z"/>
	<path class="st0" d="M584.41,1390.98c1.48,10.26,5.46,18.69,8.4,27.44c2.97,8.86,1.62,18.17,3.68,28.04
		c4.83-5.31,2.27-11.36,3.72-16.5c2.9,0.38,3.9,2.71,4.5,4.82c1.98,6.93,5.54,13.61,3.83,21.91c-7.32-2.21-12.82-7.68-19.97-9.96
		c-7.71-2.45-15.34-3.82-23.41-3.87c-7.72-0.04-15.22,0.81-22.43,3.44c-4.05-10.12-4.22-34.59-0.38-50.5
		C556.92,1401.74,570.8,1399.19,584.41,1390.98z"/>
	<path class="st0" d="M598.32,1570.52c-1.06,1.91,0.1,3.01,1.43,4.12c3.31,2.76,6.65,5.5,9.84,8.39c1.44,1.3,2.93,2.85,1.52,5.24
		c-1.81,1.18-3-0.52-4.21-1.26c-8.98-5.53-19.21-7.41-29.26-9.15c-7.9-1.37-15.72,1.56-23.37,3.78c-2.45,0.71-4.73,2.74-7.41,0.67
		l-0.14,0.22c3.95-5.15,4.59-11.16,4.56-17.36c1.49,0.26,1.96-0.68,2.22-1.88l0.54-0.23l-0.25,0.53c-1.49-0.35-2.3,0.2-2.34,1.77
		c-0.97-0.23-1.94-0.45-3-0.7c-1.4-3.88-0.31-7.66,0.27-11.58c0.57-3.87,0.13-7.88,0.13-11.17c16.48-13.97,37.76-15.06,56.57-3
		c0.12,11.96,1.18,24.37,3.35,36.97c-4.61-0.28-7.25-3.65-10.78-5.13c-1.47-0.62-2.95-1.24-4.42-1.86
		c-0.57,0.51-0.67,0.42-0.29-0.26c0.17,0.16,0.33,0.33,0.5,0.49C594.77,1571.34,596.56,1570.88,598.32,1570.52z"/>
	<path class="st0" d="M228.39,635.38c3.83,9.83,8.58,18.78,10.9,28.96c-22.95-1.68-42.41,10.64-51.38,32.02
		c-0.62,1.48-1.04,3.04-1.76,5.21c-8-4.33-14.52-9.85-21.09-15.26c-2.06-1.7-1.95-4.06-1.61-6.42c1.83-12.61,6.81-23.77,17.06-31.58
		C194.54,637.61,210.7,633.91,228.39,635.38z"/>
	<path class="st0" d="M332.21,1237.53c-3.42,11.96-9.28,20.88-15.58,29.24c-3.01,3.99-8.45,6.3-13.07,8.9
		c-11.09,6.23-22.91,10.55-35.66,11.75c-9.95,0.94-19.04-1.71-27.39-7.24c-3.62-2.4-5.65-5.19-5.47-9.79
		c0.29-7.26,0.08-14.54,0.08-22.81C269.09,1259.91,300.49,1254.99,332.21,1237.53z"/>
	<path class="st0" d="M251.71,1509.68c-14-16.74-30.9-23.51-51.97-22.18c2.68-15.63,8.09-29.43,11.28-43.42
		c18.1-4.99,45.31,10.22,55.45,41.91C261.91,1493.32,257.08,1501.07,251.71,1509.68z"/>
	<path class="st0" d="M591.08,1323.02c1.17,3.07-0.19,5.86-0.97,8.71c-2.92,10.59-5.28,21.33-4.91,32.35
		c0.19,5.55-2.24,8.48-6.71,10.96c-12.9,7.17-26.03,5.84-35.71-3.8c-2.69-2.68-4.46-5.64-5.03-9.45
		c-0.83-5.58-1.73-11.16-2.96-16.66c-1.23-5.5-2.91-10.9-4.39-16.33c1.31-1.66,2.88-1.14,4.42-0.53c17.81,7.1,35.03,5.05,51.86-3.29
		c1.45-0.72,3.06-1.12,4.6-1.67L591.08,1323.02z"/>
	<path class="st0" d="M220.58,619.81c-43.35-2.74-70.29,20.22-76.47,48.97c-5.42-1.35-8.95-5.42-12.93-8.72
		c-1.71-1.42-1.48-3.64-1.29-5.62c2.02-20.89,12.22-36.06,31.34-45.2c14.24-6.81,29.29-8.22,44.73-7.41c3.9,0.2,6.97,1.97,8.89,5.5
		C217.02,611.29,219.71,615.04,220.58,619.81z"/>
	<path class="st0" d="M168.78,506.93c4.75-8.5,8.75-15.67,12.95-23.18c13.71,2.36,25.89,7.29,36.9,14.75
		c8.23,5.57,15.77,12.1,21.62,20.36c2.24,3.17,3.14,6.19,2.31,10.18c-1.43,6.81-2.15,13.81-0.29,20.67
		c1.21,4.48,0.01,7.64-4.28,10.03C223.74,531.36,201.49,513.14,168.78,506.93z"/>
	<path class="st0" d="M337.35,989.2c-2.17-0.78-4.42-1.41-6.51-2.37c-23.28-10.65-47.14-13.21-71.78-5.24
		c-0.61,0.2-1.31,0.14-2.27,0.24c-2.83-3.28-0.66-7.48-2.04-10.42c1.74-3.26,4.3-4.3,6.75-5.19c33.39-12.12,65.18-10.48,94.69,11.06
		c8.13,5.94,12.6,14.42,16.89,23.08c0.91,1.84,0.95,3.86-0.14,5.71c-3.1,1.85-3.37-2.61-5.68-2.49c-1.27-5.37-4.36-8.95-9.91-10.13
		c0.17-1.5-0.58-2.09-2-2.02c-0.87-2.57-2.72-1.8-4.48-1.32c0.35-1.36-0.14-2.36-1.3-3.08c-0.42-0.19-0.85-0.37-1.21-0.53
		c0.44,0.08,0.94,0.17,1.45,0.27c0.43,1.02,0.86,2.04,1.29,3.06c1.33,0.97,2.69,1.84,4.46,1.4c-0.21,1.52,0.56,2.1,1.97,2.04
		c2.24,4.43,6.47,6.9,9.97,10.07c-0.15,1.6,0.53,3.33-1.16,5.2c-6.62-8.65-13.99-16.39-24.89-19.43l0.23,0.36
		c-0.52-2.12-2.8-1.53-4.01-2.58c-0.46,0.6-0.77,0.18-0.29-0.09c1.15-0.63-0.56-0.45,0.52,0.33c-0.22,0.78-0.43,1.55-0.65,2.33
		L337.35,989.2z"/>
	<path class="st0" d="M161.79,521.48c9.77-1.07,17.71,2.3,25.38,6.31c18.69,9.79,32.93,27.31,40.07,47.09
		c-1.39,3.75-3.76,7.16-7.07,10.62c-16.79-26.61-41.83-36.26-72.16-36.08C151.35,539.2,157.2,531.05,161.79,521.48z"/>
	<path class="st0" d="M299.2,1299.66c0.97,2.71-0.18,4.4-0.89,6.19c-1.96,4.94-4.46,9.74-5.72,14.84
		c-1.68,6.79-5.44,10.89-11.94,13.3c-5.91,2.19-11.59,4.76-17.91,5.87c-11.49,2.01-19.18,0.38-28.67-6.94c0-9.96,0-19.87,0-30.84
		c11.15,3.73,21.69,7.1,32.99,6.25C278.34,1307.48,288.88,1303.98,299.2,1299.66z"/>
	<path class="st0" d="M203.72,716.14c0.04-22.18,18.89-38.23,42.8-36.58c4.99,6.94,10.17,14.14,15.85,22.04
		c-4.92,3.15-10.38,4.15-14.21,7.72c-3.65,3.4-7.47,6.71-9.93,11.16c-2.55,4.62-5.14,9.25-5.61,15.31
		c-6.66-2.1-10.64-6.81-15.56-9.94C212.32,722.83,207.95,719.25,203.72,716.14z"/>
	<path class="st0" d="M649.64,411.03c-0.11-1.84,0.69-2.5,2.34-1.58c5.26,2.93,10.88,4.89,16.72,6.29
		c11.79,2.83,23.02,1.54,33.66-4.41c1.12-0.63,2.22-1.56,4.6-0.61c0.16,9.78,0.68,19.99-0.24,30.11
		c-0.57,6.23-6.35,9.76-11.47,11.37c-6.14,1.93-12.9,2.27-18.93-2.34c-10.15-7.76-23.79-22.79-30.05-37.82
		c-1.25,0.45,0.61-2.17,0.51-0.85c0,0.01,0.63,0.15,0.95,0.09c0.62-0.12,1.23-0.34,1.84-0.51c0,0,0.15,0.74,0.15,0.74L649.64,411.03
		z"/>
	<path class="st0" d="M631.62,366.11c28.07,19.92,41.17,20.12,68.78,1.48c4.67,8.06,4.77,16.97,5.2,25.77
		c0.15,2.98-2.15,4.78-4.22,6.41c-8.94,7.06-19.24,8.71-30.1,6.68c-16.75-3.13-28.29-13.8-37.81-27.16
		C630.74,375.47,630.77,371.28,631.62,366.11z"/>
	<path class="st0" d="M119.94,617.61c5.11-17.1,8.37-34.51,18.83-50.15c16.34-3.74,32.77-3.1,48.32,5.69
		c6.1,3.45,8.31,6.08,15.73,17.42c-7.39-0.83-12.54-6.65-19.51-6.81c-0.37,1.9,1.32,1.95,2,2.76c0.57,0.68,1.35,1.19,2.99,2.58
		c-4.83,0.23-8.61,0.61-12.39,0.56c-8.41-0.13-16.37,2.29-24.45,4.03c-3.01,0.64-5.44,2.42-7.84,4.21
		C135.39,604.02,127.21,610.23,119.94,617.61z"/>
	<path class="st0" d="M630.76,338.32c29.39,3.09,29.52,1.12,46.59-12.02c5.49,8.63,10.95,17.21,16.19,25.44
		c-6.96,13.37-20.28,19.95-34.34,17.18c-11.27-2.22-20.02-8.48-26.74-17.69C629.74,347.52,628.9,343.5,630.76,338.32z"/>
	<path class="st0" d="M575.33,371.39c0.65,3.61-1.71,6.37-3,9.28c-3.12,7.02-5.22,14.31-7.31,21.66
		c-2.83,9.96-2.97,19.59,1.55,29.08c0.27,0.58,0.36,1.26,0.45,1.9c0.04,0.28-0.14,0.58-0.22,0.88c-4.04,2.98-8.21-1.97-12.48,0.34
		c-5.69-5.52-8.16-12.55-9.74-20.17c-3.92-18.94,0.06-36.24,10.4-52.27c1.68-2.61,2.99-5.62,7.73-3.26c2.24,1.12,6.2-1.21,9.57-2.02
		c1.91,3.01,4.8,4.4,7.9,5.31c-0.71,2.86-3.52,3.22-4.96,5.03c-1.4,1.75-0.56,2.99,0.32,4.4L575.33,371.39z"/>
	<path class="st0" d="M217.14,467.69c-0.44-3.12-3.34-2.95-5.3-3.55c-5.7-1.75-11.62-2.57-17.45-2.99
		c-3.51-5.17,0.61-9.74-0.24-14.33c19.43-3.56,54.14,14.09,66.85,33.62c-0.69,4.3-2.83,8.07-4.84,11.87
		c-1.83,3.46-2.96,7.33-5.82,10.24c-12.9-16.6-30.91-25.93-48.92-35.27c-0.91-0.47-1.67-0.99-1.73-2.12l-0.22,0.25
		c6.17-1.23,11.77,2.53,17.86,2.04c1.29,2.57,4.06,1.15,5.92,2.2c0.63-0.39,0.81,0.07,0.24,0.22c-1.27,0.32,0.47,0.56-0.44-0.42
		C221.63,467.05,219.41,467.28,217.14,467.69z"/>
	<path class="st0" d="M622.45,375.29c2.18,4.94,4.22,9.7,4.81,15.12c2.02,18.46,7.78,35.62,18.8,50.79c0.58,0.8,1.12,1.64,1.6,2.5
		c0.15,0.26,0.07,0.65,0.14,1.64c-10.22-0.77-20.17-2.54-29.92-4.24C610.48,426.32,612.89,392.35,622.45,375.29z"/>
	<path class="st0" d="M598.95,438.81c-5.07,0-9.34,0-14.27,0c-5.85-9.36-5.62-20.05-4.66-30.47c1.75-18.95,8.85-34.25,18.65-42.79
		c3.68-0.4,7.11,0.67,10.98,2.44c-2.84,5.48-5.71,10.86-8.44,16.32c-2.7,5.4-3.98,11.3-5.14,17.13c-1.22,6.19-1.63,12.58-0.71,18.87
		C596.22,426.17,597.6,431.96,598.95,438.81z"/>
	<path class="st0" d="M325.32,344.04c0.73-5.09-0.88-10.81,2.77-16.27c16.37,9.62,34.6,10.45,52.47,11.84
		c1.83,3.25,1.14,6.3,1.14,9.2c0,3.24,0.68,6.61-1.11,10.29c-8.09,1.56-16.17,0.37-24.26-1.39
		C342.75,354.74,333.95,350.99,325.32,344.04z"/>
	<path class="st0" d="M456.11,895.89c-7.28,5.34-15.32,7.18-23.37,8.82c-2.76-0.96-3.17-3.3-3.38-5.64
		c-1.09-12.15-2.12-24.31-3.21-36.9c7.03-3.29,14.85-2.66,21.93-4.88C451.72,864.51,454.41,877.5,456.11,895.89z"/>
	<path class="st0" d="M419.34,807.81c8.86-2.61,16.76-4.94,24.66-7.27c3.98,3.34,2.96,7.79,3.07,12.33
		c-1.09-0.77-1.94-1.37-3.54-2.49c0.03,10.29,2.71,19.8,3.01,29.81c-1,0.62-2.03,1.68-3.22,1.9c-6.13,1.13-12.31,2.05-18.86,3.11
		C420.91,833.01,421.35,820.79,419.34,807.81z"/>
	<path class="st0" d="M480.27,786.05c0.63,12.97,3.19,25.57,8.37,38.16c-8.6,2.9-16.3,5.49-24.37,8.21
		c-4.58-11.77-5.95-23.6-8.79-35.35c8.61-3.78,16.76-7.35,24.9-10.92L480.27,786.05z"/>
	<path class="st0" d="M280.63,722.64c-0.27,3.41-1.51,6.1-3.07,8.66c-5.05,8.25-8.62,17.18-11.94,26.22
		c-1.36,3.69-2.86,7.36-0.64,11.07c-2.13,1.07-3.14,0.25-3.88-0.87c-3.46-5.28-6.89-10.58-11.62-14.85
		c-2.23-2.01-2.49-4.55-2.33-7.28c0.63-10.8,12.15-25.02,22.72-28.04c2.38-0.68,4.56-0.52,6.46,1.32
		C277.75,720.23,279.28,721.47,280.63,722.64z"/>
	<path class="st0" d="M411.01,844.47c-3.82,1.15-6.81,0.86-8.41-3.13c-1.1,1.56-0.76,3.2-3.15,4.16c-5.23-0.92-11.34-2-17.26-3.04
		c-1.5-10.74-0.61-20.22,2.66-28.06c7.5-1.25,15.28-2.54,24.05-4C409.2,822.23,411.47,833.25,411.01,844.47z"/>
	<path class="st0" d="M509.61,870.74c-10.21,3.63-20.87,2.79-30.21,6.93c-3.89-4.81-7.95-16.83-9.29-27.45
		c6.79-2.15,13.68-4.36,20.6-6.48c1.21-0.37,2.55-0.33,4.58-0.57C500.01,852.24,504.69,861.27,509.61,870.74z"/>
	<path class="st0" d="M294.69,897.98c-9.62,1.47-9.62,1.47-18.77-1.44c-0.49-10.3,4.23-33.74,8.7-42.62
		c5.46,0.63,10.71,2.37,15.77,4.51C301.75,865.73,299.82,879.09,294.69,897.98z"/>
	<path class="st0" d="M381.98,860.02c6.84-0.54,12.99-0.84,19.24,2.16c2.32,11.1,2.49,22.53,2.42,33.91
		c-7.05,1.67-10.98,1.45-22.49-1.09C379.01,886.63,379.24,874.67,381.98,860.02z"/>
	<path class="st0" d="M630.17,322.57c-0.52-6.53-0.96-12.43-2.65-18.37c5.57-2.14,11.37-0.54,16.79-2.49
		c5.1-1.84,9.41-4.75,14.23-7.99c3.11,5.86,6.14,11.59,9.08,17.13C659.76,322.66,646.42,326.89,630.17,322.57z"/>
	<path class="st0" d="M530.96,825.38c7.31-2.61,12.34-6.25,17.14-10.35c4.37,8.66,11.28,30.42,13.1,41.19
		c-2.31,1.49-4.68,3.28-7.28,4.6c-2.33,1.18-4.5,2.9-7.97,2.89C541.18,851.47,538.11,838.26,530.96,825.38z"/>
	<path class="st0" d="M609.84,820.76c-4.63,2.27-8.91,5.31-13.55,8.89c-6.21-13.66-12.19-26.81-18.39-40.44
		c2.97-3.74,6.01-7.56,9.07-11.41C592.64,783.51,605.37,807.43,609.84,820.76z"/>
	<path class="st0" d="M540.91,798.38c-6.27,2.89-11.67,6-18.38,7.11c-2.34-5.33-4.73-10.38-6.8-15.57
		c-2.42-6.1-4.56-12.32-6.83-18.51c4.13-4.17,8.55-6.94,13.58-9.59C528.63,774.02,534.68,786.02,540.91,798.38z"/>
	<path class="st0" d="M371.78,815.52c-1.07,8.97-1.9,16.18-2.8,23.39c-0.51,4.05-3.41,4.37-6.92,4.1
		c-2.76-6.98,1.52-14.43-1.4-22.16c-3.17,7.87-2.99,15.94-5.48,23.35c-4.54,3.48-9.78,2.85-15.87,3.02
		c0.24-10.14,2.6-19.29,4.58-28.41C352.79,815.09,361.95,819,371.78,815.52z"/>
	<path class="st0" d="M558.39,721.13c7.73,12.22,14.13,24.91,20.56,36.89c-0.5,3.68-2.99,5.2-4.46,7.35
		c-1.48,2.17-3.24,4.25-6.58,5.34c-6.18-12.34-12.4-24.75-18.77-37.47c2.26-3.58,4.32-6.96,6.53-10.24
		C556.17,722.27,557.22,721.91,558.39,721.13z"/>
	<path class="st0" d="M566.38,800.31c6.67,11.31,8.72,24.08,14.98,35.51c-4.38,5.01-10.26,6.85-16.42,9.7
		c-3.49-11.79-6.76-22.82-10.04-33.91C557.89,806.85,561.43,803.13,566.38,800.31z"/>
	<path class="st0" d="M317.42,900.53c-6.24-0.68-11.25-1.98-15.56-7.14c2.02-9.88,4.17-20.41,6.42-31.4
		c4.65-1.12,9.06-0.12,13.63,0.15c2.94,6.91-0.13,13.29-0.58,19.67C320.88,887.97,320.15,894.19,317.42,900.53z"/>
	<path class="st0" d="M351.72,861.59c-0.62,14.71-3.15,27.92-4.95,41.14c-5.4,1.69-9.82,0.53-14.92-0.57
		c1.92-13.24,3.79-26.18,5.7-39.32C341.87,860.2,346.28,860.98,351.72,861.59z"/>
	<path class="st0" d="M539.18,783.7c-4.61-7.6-9.22-15.2-13.98-23.05c1.76-5.48,7.22-7.26,11.22-11.23
		c7.8,10.54,13.93,21.76,20.41,32.73c-1.76,3.98-5.29,6.03-8.16,9.52c-4.84-5.01-5.71-11.44-8.81-16.61
		c-0.23-0.02-0.47-0.03-0.7-0.05c0.32-0.05,0.64-0.1,0.96-0.15c-0.39,2.87-0.78,5.75-1.16,8.62L539.18,783.7z"/>
	<path class="st0" d="M312.13,816.04c-3.3,10.12-3.59,19.45-7.25,28.66c-5.83-1.73-11.37-3.38-17.26-5.13
		c-0.6-9.12,3.51-17.02,4.01-25.92C298.65,811.74,304.51,815.54,312.13,816.04z"/>
	<path class="st0" d="M530.53,870.24c-2.42,3.14-5.01,3.05-7.01,4.16c-1.09,0.6-2.46,0.71-3.26,0.92c-3.05-1.04-3.79-3.38-4.78-5.41
		c-3.49-7.14-7.13-14.21-10.22-21.52c-3.96-9.39-3.43-10.22,6.91-14.91C519.74,845,522.64,858.93,530.53,870.24z"/>
	<path class="st0" d="M654.82,267.9c4.17,14.97-0.94,23.38-14.53,25.06c-1.97,0.24-4.02,0.33-5.97,0.06
		c-3.26-0.45-6.48-1.23-10.37-2.01c-1.05-6.98-7.06-10.24-11.92-14.5c2.19-2.63,3.83-0.55,5.28,0.16
		c6.54,3.22,13.41,3.63,20.45,2.73C645.11,278.48,651.69,276.2,654.82,267.9z"/>
	<path class="st0" d="M313.59,816.07c5.84,0.53,11.01,1,17.03,1.54c-1.7,8.93-3.34,17.52-5.12,26.86
		c-4.85-1.04-9.42-0.27-13.89-2.56C310.8,833.14,313.46,824.88,313.59,816.07z"/>
	<path class="st0" d="M256.38,894.39c-3.55,0.25-5.95-0.71-8.83-1.72c-0.67-7.33,2.28-14.16,3.76-21.15
		c1.49-7.02,1.75-14.41,4.65-20.6c2.45-1.46,4.36-1.32,6.52-0.62c0.33,0.76,1.14,1.69,1.03,2.5c-0.6,4.25-1.38,8.48-2.19,12.7
		c-0.94,4.88-2.08,9.71-2.93,14.61C257.61,884.64,257.1,889.22,256.38,894.39z"/>
	<path class="st0" d="M354.23,895.78c1.89-12.44,3.66-24.12,5.33-35.15c2.49-2.05,4.4-1.29,6.16-1.04c1.95,3,2.01,25.39,0.14,34.89
		C362.45,894.86,358.9,895.25,354.23,895.78z"/>
	<path class="st0" d="M424.83,558.67c-1.73-2.02-1.28-4.48-0.99-6.6c3.38-24.64-0.61-49.31,0.2-73.97
		c3.77,23.96,6.76,47.94,5.72,72.24C429.61,554.05,429.77,557.82,424.83,558.67z"/>
	<path class="st0" d="M406.36,334.26c1.52,6.24,0.44,11.33-1.42,16.71c-3.52,2.68-7.67,4.55-12.54,5.61
		c-3.35-5.31-2.63-11.19-2.49-16.92c2.3-2.75,5.6-1.9,8.32-2.77C400.72,336.1,403.21,335.28,406.36,334.26z"/>
	<path class="st0" d="M408.16,861.87c2.12-1.11,4.04-0.75,4.67,1.61c0.85,3.19,1.25,6.52,1.7,9.8c1.49,10.79,1.25,21.72,3.51,32.42
		c-7.02,0.73-8.2,0.39-8.11-3.29c0.33-13.32-1.76-26.46-2.33-39.71C407.59,862.44,407.96,862.16,408.16,861.87z"/>
	<path class="st0" d="M268.29,834.54c-2.57,1.39-4.74,1.54-7.57-0.06c1.79-9.33,3.61-18.88,5.49-28.69c3.69-0.98,6.51-0.03,9.3,2.6
		C273.07,817.23,270.64,826.04,268.29,834.54z"/>
	<path class="st0" d="M392.58,370.33c2.83,1.96,3.95,4.76,2,8.12c-1.96,3.37-3.79,6.99-7.59,9.09c-5.07-1.69-8.54-5.18-11.58-9.1
		c-2.1-2.71-2.06-5.91-0.25-7.17c2.37-1.65,4.34-0.18,6.36,0.91c2.28,1.24,2.76,4.55,5.5,5.02
		C390.89,376.37,388.34,371.17,392.58,370.33z"/>
	<path class="st0" d="M505.28,815.23c-2.06,2.06-3.53,2.59-5.3,2.18c-0.49-0.42-1.27-0.75-1.42-1.26
		c-2.87-10.17-4.73-20.62-8.75-30.47c-1.08-2.64,0-4.49,3.49-5.48c3.06,5.19,3.73,11.43,5.9,17.07
		C501.44,803.09,503.22,809.09,505.28,815.23z"/>
	<path class="st0" d="M385.94,337.57c2.23,7.57,1.05,15.27,0.65,22.87c-2.25,0.39-2.84-0.82-2.85-2.16
		c-0.08-6.95-0.04-13.9-0.04-20.86C384.45,337.48,385.19,337.52,385.94,337.57z"/>
	<path class="st0" d="M464.93,881.2c-1.18,1.7-2.2,2.34-4.55,1.47c-0.98-6.57-2.03-13.59-3.09-20.62
		C461.98,867.92,462.98,874.93,464.93,881.2z"/>
	<path class="st0" d="M287.52,811.53c-2.14,8.17-4.28,16.35-6.87,26.28C279.94,828.54,282.97,814.97,287.52,811.53z"/>
	<path class="st0" d="M480.38,786.16c2.52,0.98,3.55-2.96,6.65-1.62c1.31,5.94,3.06,12.12,2.5,18.67l0.25-0.21
		c-3.95-2.44-3.62-7.12-5.51-10.65c-1.19-2.21-1.09-5.18-3.99-6.3L480.38,786.16z"/>
	<path class="st0" d="M117.81,617.78c-1.16,7.66-2.8,12.77-6.21,19.7C111.95,629.63,112.66,624.25,117.81,617.78z"/>
	<path class="st0" d="M423.19,470.93c-1.59-3.49-0.25-7.02-0.72-10.56C422.71,463.9,422.95,467.42,423.19,470.93z"/>
	<path class="st0" d="M353.77,570.95c1.54,1,4.08,0.21,4.81,2.7c-3.33,2.49-3.97-0.02-4.63-2.47L353.77,570.95z"/>
	<path class="st0" d="M267.01,892.86c0.85-2.46-0.26-5.25,2.09-8.87c-0.54,3.87,2.19,6.95-2.23,8.62L267.01,892.86z"/>
	<path class="st0" d="M272.72,868.13c-0.05,0.85-0.11,1.7-0.16,2.55c-0.11-0.01-0.23-0.02-0.34-0.03c0.09-0.85,0.18-1.7,0.27-2.55
		C272.56,868.11,272.64,868.12,272.72,868.13z"/>
	<path class="st0" d="M523.52,697.51c-0.02-2.87,1.38-4.81,3.93-6l-0.23-0.22c0.33,3.06-1.03,5.03-3.89,6.04
		C523.33,697.33,523.52,697.51,523.52,697.51z"/>
	<path class="st0" d="M532.26,686.27c-1.85,1.5-2.29,4.42-5.04,5.02l0.23,0.22c0.83-2.47,0.21-6.34,4.9-5.05L532.26,686.27z"/>
	<path class="st0" d="M426.54,564.49c0.72,2.83-0.57,3.74-2.04,4.68C422.58,566.84,424.48,565.9,426.54,564.49z"/>
	<path class="st0" d="M240.86,888.9c-0.68-1.06-1.25-2.26-0.29-3.31C240.67,886.69,240.76,887.79,240.86,888.9z"/>
	<path class="st0" d="M270.73,877.34c-0.08,0.85-0.16,1.66-0.29,2.9C269.98,878.92,269.93,878.1,270.73,877.34z"/>
	<path class="st0" d="M489.52,803.21c1.76,0.91,1.62,2.43,1.27,4.23c-2.15-1.18-1.24-2.9-1.02-4.44L489.52,803.21z"/>
	<path class="st0" d="M534.42,677.79c-0.71-0.75-0.53-1.56-0.14-2.38c0.02-0.03,0.46,0.04,0.5,0.14
		C535.07,676.35,535.23,677.16,534.42,677.79z"/>
	<path class="st0" d="M242.37,877.6c0,0.25,0,0.52,0,0.78C242.36,877.04,243.55,876.94,242.37,877.6z"/>
	<path class="st0" d="M199.71,465.16c-0.93,0.43-1.72,0.23-2.33-0.56c-0.05-0.07,0.27-0.62,0.47-0.66c1.15-0.23,1.58,0.44,1.63,1.48
		L199.71,465.16z"/>
	<path class="st0" d="M532.35,686.46c-0.19-0.54-0.41-1.08-0.56-1.63c-0.22-0.78,0.26-1.35,0.74-0.95c1.02,0.83,0.02-0.54-0.08,0.79
		c-0.04,0.54-0.13,1.07-0.2,1.6L532.35,686.46z"/>
	<path class="st0" d="M531.55,699.52c0.14-0.82,0.27-1.64,0.41-2.46c0.34,0.26,0.94,0.5,0.96,0.78c0.06,1.01-0.47,1.61-1.58,1.5
		L531.55,699.52z"/>
	<path class="st0" d="M341.38,991.75c-1.34-0.85-2.69-1.7-4.03-2.54c0,0-0.11,0.27-0.11,0.27c1.48,0,2.95,0,4.43,0.01l-0.23-0.36
		c-0.06,0.79-0.12,1.58-0.18,2.38L341.38,991.75z"/>
	<polygon class="st0" points="591.27,1323.3 591.57,1323.21 591.08,1323.02 	"/>
	<path class="st0" d="M353.95,571.17c-0.16-0.15-0.31-0.29-0.47-0.44c-0.44,0.52-0.35,0.59,0.29,0.21
		C353.77,570.95,353.95,571.17,353.95,571.17z"/>
	<path class="st0" d="M538.98,783.47c0.93,0.96-0.79,0.8,0.46,0.42c0.56-0.17,0.35-0.65-0.25-0.2L538.98,783.47z"/>
	<path class="st0" d="M367.57,447.4c-1.51-0.66-1.83-1.31,0.01-1.96c0,0-0.3-0.19-0.3-0.19c0,0.78-0.01,1.55-0.01,2.33L367.57,447.4
		z"/>
	<path class="st0" d="M575.53,371.57c0.13-1.33-1.06-0.14,0.11-0.73c0.51-0.26,0.6,0.3-0.31,0.55L575.53,371.57z"/>
	<polygon class="st0" points="266.87,892.6 267.11,893.41 267.01,892.86 	"/>
	<path class="st0" d="M341.26,991.49c0.73,1.12-0.85,0.93,0.37,0.52c0.66-0.22,0.42-0.77-0.24-0.27L341.26,991.49z"/>
	<path class="st0" d="M517.03,695.38c-0.81,0.56-1.63,1.12-2.44,1.68l0.23,0.07c0.82-0.51,1.63-1.02,2.45-1.53L517.03,695.38z"/>
	<path class="st0" d="M517.27,695.6c0.85-0.59,1.71-1.17,2.56-1.76l0.25-0.27c-1.02,0.6-2.03,1.2-3.05,1.8L517.27,695.6z"/>
	<path class="st0" d="M519.83,693.84c0.08-0.09,0.17-0.18,0.25-0.27L519.83,693.84z"/>
	<path class="st0" d="M519.6,687.6c-0.25-0.82-0.02-1.21,0.66-1.14c0.02,0,0.09,0.53-0.02,0.61c-0.23,0.18-0.56,0.23-0.85,0.33
		L519.6,687.6z"/>
	<path class="st0" d="M546.86,1582.31c-0.05,0.07-0.09,0.15-0.14,0.22L546.86,1582.31z"/>
</g>
</svg>
