<?xml version="1.0" encoding="utf-8"?>
<!-- Generator: Adobe Illustrator 24.0.2, SVG Export Plug-In . SVG Version: 6.00 Build 0)  -->
<svg version="1.1" id="Layer_2" xmlns="http://www.w3.org/2000/svg" xmlns:xlink="http://www.w3.org/1999/xlink" x="0px" y="0px"
	 viewBox="0 0 275.62 134.22" style="enable-background:new 0 0 275.62 134.22;" xml:space="preserve">
<path d="M0.47,82.28c0,0,23.56-15.41,44.26-13.43s68.48,14.09,107.23,10.79c38.75-3.3,54.83-10.79,67.16-20.7S244.21,39.13,250.6,29
	s7.93-25.98,7.93-25.98s7.27-4.62,12.33-2.42c5.06,2.2,2.42,9.22,2.42,9.22l0.69,4.43c0,0-5.31,7.93-4.21,14.09
	s6.83,22.02,5.72,27.52s-4.4,27.96-24.22,44.7s-46.24,26.42-73.54,31.05s-61.21,1.76-68.7,1.54s-62.09-12.77-72.88-15.63
	C25.35,114.65,4.43,105.4,0.47,89.33C-0.58,84.82,0.47,82.28,0.47,82.28z"/>
</svg>
