<?xml version="1.0" encoding="utf-8"?>
<!-- Generator: Adobe Illustrator 24.1.2, SVG Export Plug-In . SVG Version: 6.00 Build 0)  -->
<svg version="1.1" id="Layer_1" xmlns="http://www.w3.org/2000/svg" xmlns:xlink="http://www.w3.org/1999/xlink" x="0px" y="0px"
	 viewBox="0 0 434.56 469.09" style="enable-background:new 0 0 434.56 469.09;" xml:space="preserve">
<style type="text/css">
	.st0{fill:#1A1A1A;}
</style>
<g>
	<path d="M298.94,427.26c1.08-0.16,1.5-1.17,2.57-0.86c0.12,2.52,1.35,5.03,0.28,7.57c0.27,0.66,0.77,0.09,1.28,0.55
		c0.52,1.53,0.07,3.14-0.83,4.58c0.59,0.57,0.99-0.16,1.55,0.15c-0.74,2.58-2.59,4.03-4.95,4.89c-0.38,0.92,0.29,1.79-0.16,2.73
		c-1.84,0.17-3.68,0.7-5.45,0.63c-0.73,0.26-0.44,0.92-0.98,1.46c-3.32,0.61-6.83,1.11-10.21-0.36c-0.83,0.13-0.82,1.08-1.49,1.24
		c-0.15-0.04-0.34-0.02-0.44-0.11c-1.5-1.38-3.29-2.3-5.2-2.88c-1.86-0.57-3.57-1.37-5.2-2.38c-0.98-0.61-2-0.87-3.17-0.88
		c-3.82-0.03-7.45-0.88-10.68-3c-1.11-0.73-2.32-1-3.57-1.27c-5.2-1.13-5.15-4.07-2.72-7.42c1.22-1.67,3.1-3.1,5.32-3.46
		c2.85-0.46,4.99-1.97,6.9-3.99c1.31-1.39,2.69-2.71,3.93-3.95c0.05-0.94-0.79-1.2-0.87-1.85c0.07-0.13,0.11-0.31,0.22-0.37
		c0.2-0.12,0.45-0.16,0.67-0.24c2.34-0.84,3.4-2.71,3.11-5.16c-0.69-5.66-2.39-11.06-4.2-16.44c-0.31-0.9-0.77-1.75-1.13-2.64
		c-0.46-1.14-1.22-1.99-2.16-2.79c-1.95-1.64-3.83-3.34-4.49-6.02c-0.18-0.74-1.1-1.33-1.73-1.93c-5.33-5.02-9.09-11.09-11.98-17.76
		c-0.16-0.36-0.3-0.74-0.41-1.12c-0.04-0.13,0.04-0.3,0.07-0.45c0.21-0.19,0.42-0.09,0.63-0.01c0.13,0.05,0.27,0.05,0.65,0.12
		c-1.11-2.66-2.29-5.15-3.11-7.78c-0.83-2.66-1.15-5.44-2.06-7.97c0.67-0.96,1.39,0.17,2.07-0.26c-0.33-1.52-0.61-3.06-1.01-4.57
		c-0.16-0.6-0.56-1.13-0.9-1.67c-0.43-0.67-1-1.27-1.34-1.98c-1.39-2.9-3.27-5.41-5.53-7.72c-3.14-3.21-5.44-7.08-7.94-10.8
		c-4.01-5.97-7.92-12.01-11.45-18.28c-1.33-2.36-2.48-4.83-3.72-7.25c-0.36-0.71-0.71-1.42-1.13-2.25c-1.18,0.78-2.28,1.5-3.37,2.22
		c0.21,0.55,0.96,0.71,0.86,1.56c-1.45,0.39-2.3,1.67-3.4,2.66c-1.93,1.74-3.37,3.83-4.86,5.89c-1.07,1.49-2.49,2.64-3.9,3.81
		c0.39,0.4,0.65,0.68,0.98,1.02c-0.64,1.37-1.66,2.46-2.75,3.5c-1.09,1.04-2.19,2.06-3.41,3.2c0.62,0.13,1.06,0.23,1.49,0.33
		c-0.36,2.34-0.39,2.31-1.93,3.93c-2.04,2.14-4.28,4.02-6.84,5.43c0.33,0.92,1.41,0.74,1.58,1.71c-0.65,0.31-1.32,0.75-2.05,0.97
		c-3.59,1.08-6.41,3.34-9.08,5.85c-2.05,1.93-4.48,3.32-6.85,4.81c-0.97,0.61-2.25,0.96-2.34,2.43c-1.57,1.22-1.82,3.12-2.46,4.83
		c0.25,0.74,0.53,1.47,1,2.07c0.76-0.12,1.01-0.92,1.8-0.93c0.12,0.09,0.38,0.2,0.46,0.38c0.78,1.7,0.64,3.59,1.12,5.42
		c0.68,0.4,1.51-0.43,2.3,0.24c0.2,0.62-0.61,1.53,0.42,2.16c0.36,0.22,0.1,0.9,0.04,1.37c-0.48,3.63-0.62,7.31-1.78,10.82
		c-0.04,0.13,0.05,0.3,0.09,0.49c0.66,0.53,1.35-0.53,2.19,0.23c0.3,2.45,0.13,5.12-0.65,7.75c-1.27,4.26-3.17,8.18-6.16,11.53
		c-0.64,0.71-1.36,1.36-0.99,2.63c0.18,0.61-0.41,1.51-0.8,2.19c-2.42,4.28-5.48,8.04-9.22,11.25c-1.03,0.88-2.12,1.7-3.02,2.75
		c-0.11,0.5,0.57,0.44,0.63,0.83c0.12,0.26-0.06,0.44-0.21,0.62c-0.81,0.96-1.45,1.97-1.96,3.18c-0.73,1.73-1.82,3.39-3.41,4.56
		c-2.35,1.72-3.79,3.97-4.58,6.8c-0.89,3.18-1.7,6.32-1.25,9.73c1.58,0.49,1.91,2.04,2.57,3.31c0.67,1.29,0.88,2.72,0.93,4.2
		c1.14,0.03,1.74-1.28,2.98-1.01c0.29,3.96,2.09,7.85,0.47,11.76c0.51,0.48,1-0.02,1.34,0.56c0.06,1.95-0.43,3.78-1.95,5.3
		c-0.78,0.79-0.92,2.03-1.78,2.77c0.24,0.76,1.08,0.73,1.44,1.44c-1.47,2.29-3.92,3.19-6.31,4.09c-0.23,0.59,0.51,0.86,0.32,1.45
		c-2.31,0.68-4.7,1.21-7.12,1.59c-0.55,0.08-1.15,0.12-1.67-0.02c-2.48-0.67-4.99-0.42-7.5-0.42c-1.28,0-2.55-0.01-3.8-0.37
		c-4.06-1.15-8.21-2.01-11.95-4.09c-1.38-0.77-2.88-0.75-4.4-0.87c-5.1-0.43-10.1-1.41-15.01-2.88c-0.61-0.18-1.17-0.53-1.84-0.46
		c-0.43,0.05-0.83-0.06-1.06-0.42c-0.89-1.37-2.32-1.6-3.74-1.79c-1.38-0.18-2.63-0.67-3.81-1.35c-1.46-0.84-2.18-2.07-1.83-3.8
		c0.02-0.08,0.06-0.15,0.06-0.23c0.17-5.26,3.76-7.34,8.1-8.72c0.3-0.1,0.66-0.12,0.9-0.29c1.71-1.2,3.59-1.47,5.65-1.55
		c1.8-0.07,3.56-0.68,5.44-0.43c0.86,0.11,1.82-0.5,2.61-1.05c3.4-2.38,6.77-4.81,10.33-6.97c0.94-0.57,1.1-1.97,2.57-2.12
		c-0.6-1.08-1.68-1.44-2.15-2.36c-0.53-1.05-0.05-1.96,0.22-2.89c0.19-0.05,0.35-0.15,0.48-0.11c2.71,0.68,4.78-0.32,6.61-2.31
		c2.18-2.35,3.74-4.95,4.07-8.2c0.77-7.62,2.01-15.17,3.71-22.64c0.61-2.69,0.53-5.31-0.11-7.96c-0.13-0.54-0.17-1.11-0.21-1.66
		c-0.02-0.23-0.01-0.61,0.11-0.68c1.64-0.87,0.76-2.31,0.86-3.53c0.13-1.67,0.27-3.34,0.58-4.98c0.33-1.79,0.86-3.54,1.24-5.08
		c0.54-0.61,0.9,0.09,1.27-0.19c0.07-0.13,0.19-0.25,0.2-0.38c0.16-2.9,0.71-5.65,2.11-8.27c0.73-1.37,0.89-3.05,1.36-4.57
		c0.37-1.21,0.55-2.49,1.22-3.59c0.33,0.07,0.65,0.13,1.05,0.22c0.72-0.98,0.99-2.11,1.01-3.31c0.02-1.28,0.01-2.56,0.01-3.84
		c0-3,0.58-5.88,2.01-8.54c1.1-2.05,1.86-4.13,1.84-6.54c-0.04-4.01,1.04-7.89,1.71-11.82c1.81-10.62,5.35-20.7,9.58-30.54
		c2.84-6.61,6.54-12.8,10.35-18.9c2.37-3.79,4.82-7.54,7.46-11.12c-0.46-1.09-0.89-2.15-2.08-2.52c0.27-1.08,1.6-0.93,1.84-2.01
		c-0.84-0.26-1.93-0.01-2.53-1.08c0.87-1.06,2.25-1.7,2.99-3.01c-0.21-0.2-0.37-0.36-0.54-0.51c-0.52-0.47-1.57-0.62-0.93-1.76
		c0.08-0.14-0.41-0.62-0.66-0.93c-0.54-0.69-0.95-1.42-0.91-2.33c0.89-0.28,1.34,0.93,2.36,0.48c-0.38-1.25-0.87-2.51-0.82-3.87
		c0.03-0.93,0.04-1.87,0.07-2.83c0.52,0,0.83,0,1.16,0c0.41-0.55,0.07-1.25,0.33-1.84c0.44-0.4,0.66,0.28,1.21,0.11
		c-0.36-1.67-0.53-3.49-0.14-5.21c0.38-1.67,0.12-3.46,0.82-5.16c1.21,0.66,1.15,2.33,2.56,2.57c1.11,0.18,2.2,0.27,3.37-0.16
		c0-1.11,0-2.19,0-3.48c1.88,0.33,3.79,0.36,5.87-0.27c-0.63-1.03-1.93-1.17-2.19-2.28c0.47-0.58,1.29-0.48,2.01-1.03
		c-1.12-1.07-2.17-2.22-2.5-3.79c0.71-0.57,1.45-0.37,2.13-0.36c2.02,0.03,3.39-0.9,4.62-2.48c1.43-1.84,1.58-3.95,1.79-6.05
		c0.33-3.42,0.17-6.84-0.21-10.27c-0.42-3.8-0.57-7.64-0.7-11.46c-0.11-3.12-0.03-6.24-0.02-9.36c0-0.96,0.02-1.92-0.52-2.78
		c-0.68-0.46-1.45-0.54-2.16-0.38c-0.69-0.86,0.13-1.65-0.23-2.53c-5.55,4.33-8.95,10.24-12.36,16.45c-0.61-0.9-0.39-1.72-0.74-2.56
		c-1.55,0.8-2.33,2.61-3.99,3.11c-1.05-0.54,0.31-1.38-0.45-1.98c-1.49,0.45-2.77,1.37-4.06,2.29c-1.36,0.96-1.64,2.69-2.7,3.95
		c-1.69-0.81-1.86-2.36-2.18-3.99c-2.45,1.57-4.71,3.33-7.48,3.97c-0.67-0.74,0.28-1.52-0.32-2.12c-3.97-0.26-5.25,0-7.99,1.62
		c-0.35-1.59,0.71-2.7,1.27-4.07c-1.36-0.36-2.75-0.03-4.02-0.58c-1.16-0.5-2.31-1.11-4.06-0.82c1.88-2.13,2.47-4.35,3-6.59
		c-0.8-0.47-1.76,0.11-2.7-0.56c2.37-3.24,2.59-7.05,2.76-10.9c-0.96-0.06-1.24,1.07-2.26,1.04c0.98-4.43,0.82-9.03,2.49-13.31
		c0.14-0.37,0.41-0.92,0.26-1.12c-0.77-1.04-0.04-1.9,0.35-2.66c1.72-3.34,2.17-6.97,2.68-10.61c0.68-4.85,0.34-9.72,0.55-14.58
		c0.08-1.9-0.98-3.51-2.58-4.64c-0.38-0.27-0.82-0.47-1.18-0.68c-0.17-0.92,0.71-1.05,0.98-1.57c-0.35-1-1.42-1.25-2.12-2.15
		c1.05-1.09,2.39-1.02,3.69-0.91c0.93,0.08,1.84,0.33,2.82,0.51c0.34-0.99,0.09-1.84-0.08-2.68c-0.78-3.91-1.6-7.81-2.38-11.72
		c-0.19-0.94-0.26-1.89-0.36-2.84c-0.16-1.52,0.25-2.82,1.33-3.95c0.54-0.57,1.05-1.18,1.3-1.99c0.14-0.43,0.47-1.01,0.84-1.12
		c2.11-0.65,3-2.78,4.79-3.83c1.71-1.01,3.2-2.38,4.82-3.55c0.81-0.58,1.4-1.24,1.64-2.25c0.23-1.01,0.62-1.98,0.98-2.95
		c0.5-1.35,0.96-2.69,0.65-4.16c1.17-0.09,1.17-0.09,2.38,0.75c0.77-0.11,1.27-0.96,2.27-0.89c0.67,1.68,2.07,2.09,3.82,1.91
		c1.34-0.14,2.7,0.13,4.01-0.46c0.82-0.36,1.55,0.19,2.23,0.59c0.94,0.54,0.94,0.59,1.44,2.28c-0.21,0.42-0.68,0.34-1.07,0.55
		c-0.02,0.28-0.07,0.6-0.08,0.91c-0.05,2.06-1.25,3.16-3.06,3.81c-0.69,0.24-1.39,0.33-2.12,0.32c-0.79-0.01-1.59,0-2.31,0
		c-0.39,0.87,0.21,1.18,0.58,1.52c1.77,1.61,1.84,3.79,2.03,5.93c0.03,0.4-0.18,0.77-0.72,1.12c-1.22-0.57-2.22,0.34-3.28,0.78
		c-1.05,2.45,0.88,3.76,1.77,5.42c1,0.49,1.9,0.1,2.68,0c0.47-0.44,0.45-0.87,0.41-1.25c-0.18-1.69,0.65-2.87,1.78-3.99
		c0.91-0.9,1.89-1.45,3.18-1.37c0.47,0.03,0.94-0.05,1.41-0.11c1.69-0.22,2.84,1.12,2.49,2.77c-0.07,0.31-0.11,0.63-0.21,0.93
		c-0.41,1.28-0.12,2.33,1,3c0,0.26,0,0.42,0,0.58c-0.09,2.6-1.49,4.62-2.89,6.66c-0.77,1.12-1.43,2.31-2.11,3.48
		c-0.8,1.38-1.95,2.27-3.45,2.79c-1.35,0.48-2.69,1.02-3.98,1.65c-1.62,0.79-2.29,1.7-2.74,3.37c0.37,0.25,0.74,0.5,1.1,0.75
		c-0.07,0.21-0.07,0.41-0.16,0.48c-0.84,0.61-1.69,1.2-2.54,1.79c-1.13,0.79-1.68,1.92-1.79,3.24c-0.29,3.51-0.25,7.03-0.12,10.55
		c0.05,1.35,0.53,2.64,1.19,3.97c2.37-0.21,4.58-0.68,6.61-2.18c5.91-4.37,11.88-8.65,17.55-13.33c0.12-0.1,0.22-0.23,0.37-0.39
		c-0.71-0.68-1.85-0.9-2.15-1.96c0.17-0.94,1.33-0.89,1.64-1.81c-1.42-0.69-1.98-2.44-3.7-2.75c1.32-1.98,3.37-1.68,5.21-1.76
		c-0.03-0.81-0.43-1.23-0.66-1.73c-0.33-0.72-0.88-1.48-0.85-2.21c0.08-2.57-1.64-4.41-2.43-6.62c-0.35-0.98-1.09-1.72-1.75-2.51
		c1-1.38,2.51-1.14,3.88-1.64c-0.98-3.07-2.77-6.02-2.02-9.83c1.45,1.3,2.07,2.94,3.75,3.92c-0.2-2.21-0.1-4.2,1.08-6.23
		c1.34,2.2,2.78,4.09,5.48,4.2c0.58-0.42,0.06-0.85,0.01-1.28c-0.04-0.4-0.08-0.8,0.34-1.21c1.15,0.27,2.31,0.91,3.61,0.69
		c0.55-0.09,1.13-0.09,1.64-0.28c1.16-0.44,1.45-1.2,0.82-2.25c-0.89-1.5-1.75-2.98-3.32-4c-1.44-0.93-2.47-2.29-1.78-4.25
		c0.19-0.54,0.13-1.03-0.27-1.55c-0.76-0.97-0.73-2.05-0.16-3.15c0.26-0.49,0.33-1.09,0.63-1.54c1.16-1.72,0.75-3.31-0.31-4.86
		c-0.66-0.95-1.04-2.15-2.26-2.77c-0.92,0.84-1.38,1.82-1.48,2.96c-0.11,1.34,0.36,1.89,1.74,2.01c0.47,0.04,0.96,0.01,1.58,0.01
		c-0.59,1.31-1.54,1.84-2.83,1.95c-1.77,0.15-3.37-0.15-4.54-1.58c-1.61-1.96-2.55-4.22-2.67-6.79c-0.1-2.1,0.14-4.14,0.87-5.98
		c-0.16-0.75-0.62-1.09-1.03-1.47c-1.17-1.09-1.4-2.42-1.24-3.94c0.26-2.34,1.29-4.43,2.07-6.61c0.15-0.43,0.53-0.79,0.33-1.48
		c-3.91,1.67-6.3,4.88-8.74,8.66c-1-3.66,0.17-6.55,1.06-9.45c0.94-3.02,2.57-5.67,4.74-7.96c2.15-2.27,4.44-4.39,7.58-5.39
		c-0.11-0.27-0.12-0.54-0.27-0.66c-2.85-2.29-3.69-5.46-3.94-8.9c-0.35-4.86,0.7-9.52,1.83-14.19c0.62-2.56,1.13-5.15,0.31-7.97
		c1.28,0.21,1.85,1.04,2.43,1.85c1.21,1.71,2.05,3.6,2.82,5.54c0.82,2.09,1.78,4.1,3.1,5.94c1.63,2.27,3.8,3.84,6.37,4.89
		c0.23,0.09,0.44,0.16,0.65-0.02c-1.36-4.66,0.08-9.24,4.1-12.21c4.31-3.19,9.19-4.72,14.6-4.3c1.69,0.13,3.3,0.62,4.8,1.38
		c0.92,0.47,1.81,1,2.22,2.02c-0.42,0.61-0.91,0.28-1.31,0.17c-2.22-0.65-4.08,0.02-5.76,1.45c-0.3,0.26-0.56,0.57-0.86,0.84
		c-1.07,1-1.77,2.25-2.46,3.52c-0.73,1.35,0.26,2.65-0.1,4.04c1.31,0.13,1.51-1.31,2.68-1.39c0.48,0.82,0.28,1.74,0.16,2.64
		c-0.13,0.95-0.37,1.88-0.43,2.83c-0.07,1.15,0.38,1.61,1.52,1.67c1.2,0.06,2.37-0.02,3.54-0.44c2.34-0.83,4.64-1.73,6.78-2.99
		c3.11-1.82,6.34-2.53,9.86-1.37c0.14,0.05,0.31,0.01,0.61,0.01c0.27-1.81-0.75-3.75,0.32-5.57c1.23-0.02,1.71,1.26,2.79,1.71
		c1.42-1.94,2.81-3.83,4.18-5.7c0.66,0.22,0.78,0.74,0.92,1.16c0.57,1.74,1.05,3.52,1.62,5.26c0.24,0.73-0.03,1.86,1.33,1.87
		c0.14,0,0.35,0.52,0.42,0.82c0.3,1.4,0.81,2.81,0.55,4.25c-0.3,1.67,0.16,3.14,0.79,4.61c0.4,0.95,0.77,1.92,1.14,2.86
		c2.63-0.09,6.2-2.49,8.48-5.67c1.83-2.55,2.08-3.62,2.33-10.03c0.66-0.22,0.8,0.37,1.07,0.71c0.94,1.22,1.36,2.71,2.05,4.05
		c1.39,2.7,2.69,5.44,3.79,8.27c1.55,3.97,1.84,8.03,1.21,12.23c-0.38,2.51-1.39,4.56-3.6,5.92c-0.12,0.07-0.17,0.25-0.28,0.42
		c1.39,0.92,2.99,0.99,4.61,1.05c-1.77,3.19-5.06,4.86-11.47,5.83c-0.03,4.15,1.36,7.62,4.81,10.1c2.71,1.95,6.63,1.87,8.89-0.85
		c0.71-0.85,1.51-1.63,2.24-2.41c0.76,0.22,0.52,0.79,0.51,1.2c-0.02,1.6-0.22,3.18-0.53,4.75c-0.36,1.79-1.01,3.37-2.85,4.14
		c0.46,0.69,1.09,0.71,1.71,0.7c1.91-0.03,3.82,0.12,5.73-0.28c0.81-0.17,1.7-0.46,2.52,0.04c0.01,0.19,0.09,0.39,0.03,0.49
		c-1.66,2.45-3.42,4.82-5.9,6.53c-2.79,1.93-5.14,2.32-8.78,1.51c-0.61,3.57-2.2,6.61-5.2,8.77c-1.95,1.41-3.99,2.63-6.71,2.61
		c0.24-0.96,0.84-1.57,1.29-2.25c2.13-3.21,0.9-5.75-1.52-7.42c-0.84-0.58-1.79-1.02-2.72-1.54c-1.28,1.21-1.72,2.78-1.98,4.32
		c-0.64,3.84-0.14,7.45,2.39,10.64c1.36,1.71,3.13,2.72,5.09,3.44c1.24,0.46,2.52,0.15,3.71-0.45c2.16-1.08,4-2.63,5.92-4.06
		c0.19-0.14,0.39-0.27,0.59-0.42c0.09,0.13,0.25,0.28,0.22,0.34c-0.8,1.58-1.35,3.23-1.61,4.98c-0.19,1.28-0.95,2.34-1.43,3.69
		c1.7-0.06,3.29-0.46,5.02,0.14c-0.75,1.2-2.07,1.85-2.86,2.99c-0.82,1.2-2.23,1.75-3.44,2.5c2.84,4.03,8.38,5.1,13.13,2.53
		c-0.02,2.72-1.84,4.56-3.07,6.83c1.58,0.17,2.52-1,3.8-1.39c0.71,0.61,0.38,1.28,0.05,1.91c-1.47,2.82-3.85,4.39-6.94,4.98
		c-0.69,0.13-1.47-0.05-2.03,0.55c1.71,2.97,4.23,4.21,10.13,4.99c0.08,0.78-0.5,1.22-1.03,1.46c-1.3,0.59-2.47,1.37-3.63,2.2
		c-1.19,0.85-2.66,1.02-4.23,1.49c1.97,2.32,4.4,3.02,7.35,2.79c-0.78,1.64-2.09,2.49-3.53,3.15c-1.53,0.7-3.12,1.22-4.78,1.5
		c-1.62,0.27-3.11-0.47-4.58-0.86c-0.17,0.3-0.29,0.43-0.33,0.57c-0.95,3.56-0.94,3.55,1.45,6.44c0.66,0.8,1.32,1.61,1.88,2.48
		c0.51,0.79,1.06,1.63,0.61,2.81c-1.21-0.69-2.51-0.82-3.85-0.89c-1.6-0.08-3.12-0.55-4.62-1.52c-2.03,1.89-3.85,3.84-4.42,6.66
		c-0.2,1-0.22,1,0.58,2.47c1.42,0.15,2.3-0.74,3.1-1.85c0.43,2.41,0.08,3-1.91,3.84c-1.77,0.75-3.58,0.67-5.64,0.31
		c0.11,1.78,0.13,3.49,0.35,5.18c0.83,6.39,2.79,12.46,5.54,18.25c1.96,4.14,4.52,7.9,8.16,10.81c0.11,0.09,0.15,0.27,0.23,0.41
		c-0.73,0.86-1.92,0.71-2.94,1.35c1.11,1.67,3.03,2.14,4.52,3.08c0.62,1.46-0.6,1.99-1.37,2.71c1.16,0.82,2.54,0.74,3.77,1.48
		c-1.87,1.63-4.11,2.37-6.48,3.04c0.46,1.4,1.6,2.3,1.91,3.65c-0.18,0.14-0.34,0.38-0.54,0.42c-1.9,0.4-3.14,1.56-4.28,3.11
		c-1.93,2.63-4.17,5.04-6.16,7.64c-0.79,1.04-1.96,1.64-2.81,2.84c0.45,1.81,0.24,3.64-1.22,5.3c1.74,1.46,4.39,2.22,4.3,5.17
		c-0.46,0.18-0.81,0.32-1.18,0.47c0.54,0.98,1.11,1.94,1.61,2.94c0.32,0.63,0.27,0.65-0.71,1.58c1.16,1.85,3.44,1.21,5.03,2.25
		c-0.83,0.89-1.98,0.98-3.07,1.35c0.48,0.86,1.42,0.88,2.16,1.16c4.19,1.6,8.62,2.35,12.94,3.49c5.33,1.41,10.77,2.31,16.26,2.69
		c4.45,0.31,8.91,0.2,13.39-0.19c5.27-0.45,10.45-1.28,15.56-2.59c8.04-2.06,15.55-5.32,22.14-10.5c5.52-4.34,10.01-9.61,13.8-15.49
		c4.74-7.36,7.46-15.5,9.21-24.01c1.05-5.1,1.5-10.27,1.52-15.45c0.03-6.9-0.75-13.7-3.37-20.17c-1.08-2.67-2.38-5.23-3.89-7.68
		c-0.91-1.47-2.1-2.57-3.64-3.36c-4.5-2.32-6.99-2.73-12.7-1.96c-0.39-0.97,0.65-1.77,0.31-2.9c-1.87,0.16-3.37,1.09-4.67,2.34
		c-0.7-0.34-0.44-0.84-0.38-1.26c0.42-2.94,1.89-5.4,3.66-7.7c0.53-0.69,1.07-1.37,1.79-2.29c-3.82-0.79-7.28-0.13-10.7,0.84
		c-3.58,1.01-6.25,3.43-8.96,6.43c-0.11-2.24,0.53-3.89,1.09-5.55c0.62-1.82,1.44-3.55,2.57-5.12c1.09-1.51,2.48-2.69,3.96-3.8
		c1.46-1.09,3.17-1.77,4.66-2.71c-0.22-0.88-0.8-1.22-1.21-1.69c-2.52-2.93-3.99-6.33-4.57-10.12c-0.35-2.28-0.62-4.58-0.91-6.87
		c-0.5-4.03-1.77-7.75-4.1-11.12c-1.23-1.77-2.7-3.13-4.74-3.85c-0.44-0.16-0.85-0.39-1.47-0.67c1.68-1.05,3.47-0.79,5.09-1.17
		c1.65-0.39,3.29,0.44,5.11,0.35c0.26-2.72-0.08-5.42,0.42-8.09c0.48-2.59,1-5.17,1.82-7.68c0.85-2.59,2.06-5.03,3.39-7.4
		c1.29-2.29,2.75-4.5,4.24-6.68c1.52-2.22,3.06-4.46,5.46-6.16c0.27,1.67-0.63,2.9-0.95,4.24c-0.32,1.35-0.84,2.66-0.92,4.14
		c0.69-0.13,0.83-0.52,1.03-0.86c3.01-5.17,6.99-9.49,11.54-13.35c2.43-2.06,4.89-4.1,7.21-6.31c2.78-2.64,4.34-5.89,5.21-9.53
		c0.31-1.3,0.65-2.61,0.61-4.45c3.23,5.07,5.17,10.15,6.27,16.13c2.53-7.57,3.05-14.7,1.45-22.33c2.95,2.2,5.22,4.5,7.14,7.13
		c0.81,1.11,1.75,2.03,2.83,2.87c3.85,2.99,7.62,6.07,11.06,9.53c4.92,4.95,8.72,10.59,10.69,17.35c0.09,0.3,0.29,0.57,0.43,0.84
		c0.76,0.05,1.17-0.52,1.66-0.87c3.2-2.21,6.71-3.67,10.51-4.46c0.75-0.16,1.54-0.36,2.46,0.09c-1.12,1.46-2.98,2.19-3.85,4.07
		c1.72-0.04,3.12-1.22,4.73-0.77c0.05,0.35-0.17,0.59-0.4,0.81c-2.44,2.3-3.57,5.28-4.13,8.47c-0.57,3.23-0.54,6.47-0.25,9.76
		c0.36,4.12,0.83,8.27,0.56,12.43c-0.1,1.59-0.39,3.16-0.84,4.7c-0.17,0.6-0.6,1.16-0.29,2.02c0.95,0,1.98-0.02,3,0
		c3.34,0.08,6.49,0.87,9.3,2.72c1.86,1.23,3.47,2.73,4.73,4.97c-5.67,0-11.07,0.12-15.87,3.1c-0.01,0.72,0.58,0.62,0.97,0.78
		c6.22,2.53,11.18,6.5,14.06,12.68c1.64,3.52,2.25,7.26,1.24,11.24c-0.97-0.99-1.63-2.08-2.68-2.85c-1.19-0.87-2.51-1.39-3.89-1.8
		c-0.86-0.26-1.72-0.15-2.58,0.2c-2.01,0.82-3.83,1.94-5.72,3.39c2.7,1.32,5.56,2.14,7.52,4.52c-0.56,0.58-1.14,0.4-1.65,0.38
		c-2.41-0.1-4.57,0.67-6.56,1.94c-6.51,4.14-10.48,10-11.51,17.66c-0.34,2.51-0.13,5.11-0.01,7.66c0.15,3.18,0.48,6.35,0.69,9.53
		c0.17,2.63,0.06,5.26,0.03,7.9c-0.1,9-1.29,17.8-4.33,26.32c-1.94,5.44-4.47,10.59-7.33,15.59c-0.19,0.34-0.39,0.68-0.6,1.05
		c1.4,0.65,2.67-0.26,3.95-0.11c0.24,1.23-0.83,1.73-1.15,2.56c0.05,0.58,0.8,0.52,0.89,1.1c-0.67,0.39-1.37,0.77-2.05,1.18
		c-1.68,0.99-3.1,2.26-4.18,3.88c-1.42,2.12-2.83,4.26-4.27,6.37c-1.06,1.56-2.15,3.1-3.23,4.65c0.71,0.43,1.29-0.5,1.97,0.07
		c-0.55,0.83-1.12,1.63-1.99,2.2c-3.44,2.22-6.39,5.05-9.44,7.74c-4.08,3.6-8.31,6.99-12.96,9.83c-0.66,0.41-1.29,0.87-1.98,1.34
		c0.32,0.26,0.56,0.45,0.79,0.64c-0.14,0.5-0.54,0.77-0.94,1.02c-4.62,2.89-9.47,5.27-14.69,6.91c-4.8,1.52-9.63,2.88-14.59,3.77
		c-0.38,0.07-0.81,0.16-1.11,0.38c-1.99,1.43-4.28,2.1-6.62,2.62c-4.67,1.05-9.37,1.94-14.16,2.2c-6.64,0.36-13.26,0.29-19.7-1.67
		c-0.85-0.26-1.54-0.2-2.04,0.62c-4.39-1.96-9.03-2.88-13.56-4.17c-4.7-1.34-9.3-2.9-13.54-5.38c-1.36-0.8-2.83-0.92-4.51-1.15
		c0.31,2.11-0.04,4.04-0.62,5.93c-0.24,0.76-0.15,1.42,0.55,1.9c0.28-0.13,0.56-0.26,0.81-0.37c0.18,0.11,0.37,0.17,0.42,0.28
		c1.6,3.75,1.71,7.55,0.36,11.24c0.34,0.76,0.64,1.41,0.99,2.2c0.35,0.06,0.88,0.16,1.45,0.26c0.44,1.92-0.12,3.72-0.53,5.47
		c-0.38,1.62-0.24,3.16,0.05,4.73c0.03,0.16-0.01,0.4,0.08,0.46c1.87,1.33,1.23,3.39,1.44,5.16c0.14,1.17,0.16,2.5-0.27,3.55
		c-0.85,2.08-0.79,4.13-0.65,6.28c0.13,1.98-0.04,3.97-0.33,5.96c-0.34,2.27-0.44,4.6,1.3,6.56c0.66,0.74,0.65,1.93,1.52,2.81
		c0.8-0.75-0.03-2.1,1.27-2.52c1.87,0.82,3.33,2.43,4.9,3.86c0.57-0.23,0.17-0.92,0.64-1.17c3.57,1.83,8.07,10.26,9.98,18.73
		c1.75,0.22,2.73,1.3,3.16,2.99c0.57,2.24,1.05,4.47,0.68,6.81c-0.14,0.89,0.1,1.58,0.72,2.35c1.01,1.26,1.16,2.96,1.47,4.51
		c0.6,2.97,0.82,6,1.12,9.01c0.33,3.33,0.44,6.68,0.7,10.01c0.25,3.16,0.32,6.38-0.16,9.56c-0.34,2.31,0.01,4.63,0.3,6.92
		c0.31,2.44,0.78,4.86,1.17,7.23c0.97,0.22,1.78,0.41,2.7,0.62c0.55,1.59,1.37,3.14,1.61,4.83c0.6,0.27,0.93-0.41,1.6-0.17
		c0.52,2.15,1.69,4.13,2.7,6.18C298.39,423.18,298.91,425.11,298.94,427.26z"/>
	<path class="st0" d="M431.8,102.36c-5.6,0.43-11.32,0.48-15.95,4.66c0.42,0.22,0.68,0.44,0.97,0.51c5.43,1.18,9.45,4.49,12.9,8.6
		c2.55,3.04,3.77,6.63,4.02,10.56c0.04,0.71,0.15,1.44-0.2,2.32c-3.76-3.26-7.92-4.96-13.03-3.35c1.21,0.5,2.28-0.08,3.31-0.07
		c0.13,0.36,0.05,0.6-0.16,0.69c-1.74,0.82-3.31,1.94-4.92,2.97c-0.48,0.31-0.94,0.63-1.53,0.56c-3.1-0.32-6.17-0.23-9.08,0.89
		c-0.54-0.91-0.02-1.57,0.09-2.24c0.46-2.67,1.05-5.32,1.87-7.91c0.53-1.68,1.19-3.3,2.07-4.83c0.38-0.66,1.22-1.23,0.45-2.22
		c-0.21-0.26,0.67-0.65,0.55-1.29c-5.78,0.44-10.29,3.33-14.35,7.72c-1.01-5.14-2.81-9.78-2.39-14.79
		c-1.89,0.85-2.13,1.14-4.84,5.75c-1.13-0.95-1.6-2.38-2.61-3.41c-1.57-1.59-3.06-3.26-4.65-4.83c-0.96-0.95-1.52-2-1.61-3.36
		c-0.08-1.25-0.31-2.49-0.5-3.97c-2.08,1.58-2.45,3.97-3.52,5.91c-0.64-0.26-0.64-0.77-0.58-1.24c0.3-2.46,0.82-4.87,1.85-7.15
		c0.69-1.53,1.33-3.08,1.99-4.62c0.23-0.53,0.4-1.06-0.29-1.6c-6.09,2.91-12,6.11-15.7,12.19c-2.09,3.44-3.64,7.04-3.96,11.17
		c-0.18,2.28-0.04,4.59-0.35,6.84c-0.59,0.14-0.82-0.26-1.08-0.53c-1.29-1.32-2.64-2.55-4.12-3.65c-2.62-1.95-4.7-4.33-5.35-7.79
		c-1.78,2.51-2.96,7.96-2.81,12.4c0.15,4.4,1.95,8.14,4.46,11.59c-0.24,0.19-0.34,0.35-0.47,0.37c-3.08,0.54-5.73,2.01-8.11,3.92
		c-0.98,0.78-1.87,1.09-3.04,0.86c-3.47-0.67-6.8,0.07-10.12,1c-2.19,0.61-4.14,1.65-5.88,3.1c-0.52,0.44-1.11,0.79-1.97,1.4
		c1.55-7.6,6.32-11.74,12.94-14.23c-0.19-0.27-0.28-0.51-0.46-0.65c-4.17-3.4-5.91-8-6.56-13.16c-0.32-2.53-0.61-5.06-1.03-7.58
		c-0.63-3.88-2.4-7.25-4.85-10.28c-0.57-0.7-1.32-1.16-2.09-1.57c-0.61-0.33-1.32-0.49-1.91-1.27c3.18-0.69,6.19-0.62,9.21,0.36
		c0.44-1.2,0.09-2.24,0.05-3.25c-0.26-7.66,1.97-14.66,5.62-21.27c1.9-3.43,4.18-6.62,6.62-9.69c0.14-0.18,0.34-0.31,0.85-0.75
		c-2.04,8.62-3.56,16.92-2.27,25.5c0.52-0.55,0.26-1.13,0.25-1.68c-0.08-4.08,0-8.14,0.56-12.19c0.15-1.05,0.48-2.01,0.94-2.94
		c2.39-4.85,5.59-9.09,9.44-12.89c3.02-2.98,6.33-5.62,9.53-8.39c3.67-3.18,5.86-7.08,6.88-11.74c0.07-0.31,0.14-0.61,0.22-0.95
		c1.14,0.99,2.85,4.63,3.76,7.84c0.81,2.85,1.21,5.76,1.43,8.71c0.22,2.97-0.47,5.87-0.36,8.83c0.91-2.29,1.2-4.69,1.18-7.12
		c-0.01-2.08,0.22-4.05,0.9-6.08c1.77-5.27,2.22-10.76,1.98-16.31c-0.02-0.47-0.19-0.93-0.25-1.4c-0.05-0.39-0.05-0.78-0.08-1.42
		c7.2,5.47,9.81,13.08,11.29,21.33c0.04-4.4-1.13-8.5-3.16-12.71c1.67,0.62,2.54,1.69,3.56,2.52c4.02,3.28,8.01,6.62,11.18,10.77
		c3.13,4.09,5.62,8.51,7,13.53c1.01,3.69,0.87,7.42,0.82,11.18c-0.02,1.41-0.59,2.78-0.3,4.39c1.68-4.84,1.24-9.6,0.61-14.44
		c3.65-3.22,7.91-5,13.08-6.31c-1.98,2.22-4.01,3.71-4.99,6.37c1.97-0.61,3.37-2.06,5.21-2.36c0.25,0.63-0.2,0.81-0.41,1.09
		c-2.21,3.01-3.14,6.46-3.2,10.11c-0.07,3.91-0.01,7.81,0.39,11.72c0.51,5.08,0.66,10.21-1.61,14.93c0.58,0.68,1.12,0.4,1.66,0.36
		c5.77-0.45,10.93,0.83,14.9,5.37C431.78,101.88,431.75,102.08,431.8,102.36z"/>
	<path class="st0" d="M138.48,442.56c1.31-0.15,1.72-1.22,2.76-1.67c0.52,2.1,0.98,4.14,1.19,6.25c0.22,2.21-0.57,4.17-1.46,6.08
		c0.85,0.45,1.32-0.32,1.95-0.24c0.08,0.12,0.24,0.24,0.23,0.35c-0.18,2.07-1.28,3.54-2.98,4.65c-0.53,0.35-1.02,0.76-1.5,1.11
		c-0.08,0.55,0.45,0.35,0.63,0.76c0.08,0.48-0.79,0.61-0.72,1.26c0.44,0.51,1.39,0.08,1.81,1.01c-2.49,2.45-5.54,3.44-9.1,3.25
		c0.5,1.18,1.95,0.42,2.65,1.51c-4.31,1.53-8.41,1.91-12.48-0.51c-0.5,1.92-1.68,0.04-2.46,0.46c-0.07,0.46,0.57,0.61,0.35,1.12
		c-1.77-0.41-3.75-0.12-5.33-1.5c-0.29-0.25-0.92-0.13-1.4-0.14c-1.79-0.05-3.45-0.54-5.05-1.32c-1.43-0.7-2.93-1.28-4.37-1.96
		c-1.04-0.49-2.15-0.59-3.26-0.64c-4.97-0.23-9.8-1.23-14.57-2.55c-0.38-0.11-0.76-0.25-1.14-0.35c-1.59-0.42-2.93-1.15-3.43-3.06
		c-1.55,0.53-3.09,0.88-4.62,0.18c-0.43-0.2-0.9-0.34-1.32-0.57c-1.99-1.13-2.32-1.78-2.01-4.07c0.11-0.79,0.27-1.57,0.42-2.35
		c0.19-0.98,0.65-1.81,1.49-2.37c1.26-0.84,2.51-1.71,3.85-2.42c0.83-0.44,1.79-0.84,2.76-0.54c1.08,0.33,2-0.16,3.06-0.22
		c-0.42-0.68-1.08-0.35-1.66-0.64c0.24-0.43,0.62-0.68,1.04-0.71c1.67-0.12,3.39-0.39,4.99,0.13c1.12,0.36,2.04,0.17,2.99-0.26
		c1.97-0.89,3.82-1.98,5.59-3.24c2.54-1.8,5.17-3.47,7.74-5.23c1.01-0.69,1.89-0.9,3.05-0.2c1.37,0.82,2.92,1.21,4.56,0.82
		c0.54,0.26-0.05,0.77,0.6,1.26c1.04,0.39,2.29-0.1,3.55-0.7c-0.78-0.42-1.54-0.05-2.19,0.07c-0.57-0.42,0.11-0.77-0.16-1.22
		c-2.42-0.15-5.03,0.09-7.12-1.68c0.11-0.5,0.52-0.64,0.82-0.89c0.29-0.24,0.71-0.37,0.84-0.99c-0.97-0.52-2.11-0.96-2.72-2.06
		c-0.1-0.57,0.29-1.02,0.41-1.54c0.15-0.05,0.31-0.16,0.45-0.14c2.3,0.37,4.02-0.75,5.57-2.22c2.95-2.8,4.65-6.23,5-10.31
		c0.64-7.64,2.15-15.14,3.7-22.63c0.27-1.3,0.41-2.63,0.65-3.95c0.11-0.61-0.24-1.07-0.4-1.59c-0.23-0.74-0.69-1.45-0.37-2.27
		c0.48-0.12,0.67,0.41,1.23,0.45c-0.87-4.82-0.61-9.56,0.95-14.17c0.88-0.17,0.84,1.05,1.47,0.86c0.34,0,0.42-0.1,0.42-0.31
		c0.03-1.56-0.35-3.12,0.04-4.69c0.15-0.61,0.11-1.28,0.28-1.89c0.13-0.47,0.3-1.07,1.07-0.93c0.02,0,0.18-0.57,0.23-0.88
		c0.4-2.53,1.14-4.97,1.83-7.42c0.22-0.78,0.17-1.73,1.43-1.72c0.35,0,0.42-0.61,0.58-0.98c0.72-1.69,1.5-3.35,2.54-4.87
		c0.54-0.79,1.04-1.61,1.76-2.2c0.64-0.24,0.69,0.67,1.48,0.41c0.72-0.94,1.59-2.07,2.47-3.22c0.46-0.01,0.43,0.62,1.37,0.77
		c0.06,0.01,0.07-0.77,0.58-0.81c0.66,0.1,2.01,3.07,2.57,5.66c0.75,0.33,0.7-0.79,1.37-0.71c1.58,1.75,0.97,4.2,1.78,6.22
		c0.84-0.37,0.55-1.32,1.06-1.83c2.54,2.06,3.52,5.16,3.54,11.45c1.05-0.62,1.17-1.74,1.76-2.53c0.54-0.01,0.55,0.37,0.63,0.77
		c0.12,0.61-0.34,1.24,0.05,1.78c0.34,0.25,0.48-0.01,0.66-0.14c0.18-0.13,0.35-0.29,0.58-0.48c0.57,1.21-0.77,2.04-0.54,3.16
		c0.77-0.15,0.94-0.82,1.29-1.3c1.06-1.43,2.3-2.68,3.85-3.54c1.3-0.72,2.23-1.7,2.8-3.09c-0.34-0.58-0.65-1.12-0.52-1.91
		c0.18-1.1,0.61-2.34-0.82-3.15c-0.29-0.17-0.34-1.08-0.22-1.58c0.15-0.6,0.62-1.1,1.41-1.22c0.78,1.88,0.7,3.86,0.64,5.79
		c0.86,0.48,1.35-0.53,2.12-0.35c0.4,0.58-0.56,0.86-0.33,1.51c0.18,0.53,0.75,0.25,1.34,0.38c-0.75,4.72-0.57,9.63-3.34,14.44
		c0.97-0.48,1.47-0.78,2-0.97c0.51-0.18,1.06-0.26,1.68-0.4c0.46,0.8,0.34,1.61,0.26,2.36c-0.56,5.28-2.49,10.03-5.64,14.29
		c-1.09,1.47-2.23,2.92-3.13,4.1c-0.37,0.85,0.28,0.91,0.4,1.39c-0.75,2.22-2.23,4.11-3.71,5.98c-2.18,2.75-4.53,5.35-7.37,7.47
		c-0.82,0.61-1.49,1.44-2.21,2.19c-0.53,0.55-0.16,1,0.31,1.52c-0.75,1.04-1.52,2.07-1.83,3.44c-0.31,1.39-1.42,2.54-2.6,3.36
		c-2.9,1.99-4.24,4.91-5.11,8.12c-0.43,1.61-0.75,3.26-1.08,4.9c-0.51,2.49,0.19,4.88,0.66,7.25c0.91,0.33,0.58-0.89,1.43-0.83
		C138.09,437.75,138.43,440.07,138.48,442.56z M125.37,440.5c0.64,0.15,1.02-0.07,1.05-0.32c0.13-0.98,0.86-1.7,1.07-2.62
		c0.27-1.21,0.87-2.4,0.03-3.68c-0.2-0.31,0.01-0.92,0.11-1.38c0.1-0.46,0.36-0.9,0.06-1.37c-0.13,0.06-0.34,0.1-0.37,0.19
		c-0.6,1.7-1.19,3.42-1.81,5.22c0.54,0,0.9,0,1.45,0C126.43,437.86,125.93,439.09,125.37,440.5z"/>
	<path class="st0" d="M271.02,420.56c-1.99,0.23-3.52-0.22-4.91-1.6c3.23-1.36,3.85-3.95,3.42-6.93c-0.48-3.32-1.15-6.6-2.19-9.79
		c-1.01-3.11-2.06-6.2-3.05-9.31c-0.29-0.93-1.02-1.39-1.72-1.91c-1.48-1.1-2.79-2.37-3.85-3.9c-0.33-0.48-0.25-0.85,0.29-1.39
		c-6.05-5.5-11.33-11.6-14.5-19.66c0.87,0.44,1.46,0.74,2.26,1.14c-0.14-1.34-0.83-2.2-1.4-3.12c-2.84-4.63-4.32-9.72-5.29-15.27
		c0.9,0.4,1.59,0.71,2.29,1.02c0.44-0.8-0.11-1.42-0.36-2.03c-0.96-2.41-1.44-4.88-1.32-7.44c0.79-0.58,1.32,1.03,2.13,0.15
		c0.25-0.27,0.55,0.13,0.77,0.33c1.36,1.24,3.09,1.82,4.72,2.83c0.09-1.2-1.3-1.53-1.14-2.73c1.79,0.31,3.09,1.57,4.62,2.31
		c0.53-0.03,0.15-0.49,0.51-0.79c2.31,0.43,3.9,2.34,6.02,3.77c0.17-1.64-0.67-3-0.54-4.47c1.34,0.03,1.41,1.51,2.39,1.88
		c0.48-0.25,0.15-0.91,0.58-1.19c1.51,0.79,1.66,0.94,3.34,3.26c0.08-0.77,0.17-1.33,0.19-1.89c0.03-0.81,0.06-1.71,0.59-2.28
		c1.4-1.53,0.77-3.34,0.86-5.04c0.06-1.27-0.06-2.59-1.05-3.58c-0.82-0.83-0.42-1.78-0.5-2.96c2.35,1.17,3.69,3.15,5.31,4.74
		c0.94-0.25,0.29-1.18,0.82-1.54c3.92,4.06,7.48,9.47,8.93,19.57c0.53,0.17,0.61-0.37,0.9-0.58c0.56-0.11,0.83,0.76,1.45,0.22
		c1.8,3.9,1.28,7.8,1.13,11.69c0.46,0.21,0.62-0.7,1.32-0.24c0.62,1.77,1.13,3.76,1.36,5.82c0.47,4.2,0.76,8.41,1.06,12.62
		c0.24,3.35,0.4,6.68,0.39,10.03c0,1.2-0.09,2.39-0.15,3.59c-0.23,4.18,0.34,8.28,1.27,12.34c0.31,1.37,0.63,2.75,0.29,4.46
		c0.52-0.59,0.82-0.95,1.27-1.47c0.19,0.96,0.34,1.76,0.52,2.66c0.96-0.06,0.52-1.32,1.32-1.45c1.04,1.61,1.12,3.51,1.38,5.31
		c0.96,0,0.62-1.2,1.55-1.21c0.78,1.51,1.16,3.17,1.23,4.8c0.36,0.58,0.73,0.34,1.07,0.19c1.61,2.8,1.51,5.8,1.24,8.94
		c1.12-0.92,1.26-2.52,2.69-2.95c1.03,3.41,0.99,4.38-0.41,8.26c0.76-0.15,1.41-0.29,2.12-0.43c0.1,0.27,0.26,0.48,0.24,0.68
		c-0.19,2.06-1.52,3.21-3.54,4.07c1.07,0.55,2.06,0.1,2.9,0.46c-0.76,1.82-1.54,2.29-4.72,2.85c-0.06,0.94,1.03,1.45,0.87,2.55
		c-2.32,0.59-4.69,1.09-7.09,0.24c-0.6,0.94,0.77,1.21,0.37,2.11c-3.59,0.38-7.27,1.1-10.53-1.45c-0.57,0.53-0.05,1.3-0.63,1.88
		c-1.69-1.52-3.78-2.29-5.91-2.96c-1.23-0.39-2.49-0.81-3.46-1.6c-1.54-1.26-3.27-1.55-5.14-1.54c-3.37,0.02-6.44-0.96-9.29-2.71
		c-0.83-0.51-1.64-1-1.92-2.29c-0.87,0.88-1.76,0.94-2.71,0.76c-0.91-0.17-1.57-0.76-2.26-1.3c-0.56-0.44-0.67-1.08-0.6-1.73
		c0.11-1.05,0.4-2.1,1.12-2.86c1.32-1.38,2.75-2.89,4.66-3.2c4.38-0.7,7.18-3.58,9.95-6.6c0.38-0.41,0.72-0.85,1.11-1.25
		c0.27-0.28,0.6-0.51,0.8-0.68c0.92-0.26,1.48,0.37,2.19,0.39c0,0.24,0.05,0.4-0.01,0.51c-0.34,0.7-1.06,1.22-1.04,2.14
		c1.24,0.75,2.55,0.72,3.9,0.32c0.58-0.17,0.93,0.04,1.04,0.65c0.28-0.48,0.68-0.9,0.51-1.7c-1.37,0.42-2.76,0.69-4.29,0.35
		C269.03,422.22,270.25,421.81,271.02,420.56z M281,421.67c0.96,0.71,0.79,1.74,0.79,2.75c-0.11-0.98,0.04-1.95,0.01-3.01
		c-0.42,0.16-0.63,0.24-0.85,0.32c0.04-2.54,0.04-2.54-0.87-3.29C281.09,419.36,280.05,420.74,281,421.67z"/>
	<path class="st0" d="M257.39,157.05c-4.2,0.63-7.02-0.79-8.7-4.56c-5.44,0.23-8.83-2.79-11.25-7.47c1.37-0.16,2.57-0.01,3.87,0.43
		c1.46,0.49,3.04,0.89,4.67,0.57c-0.16-0.72-0.87-0.32-1.18-0.82c1.08-1.24,1.87-2.65,2.31-4.33c0.53-2.04,0.13-3.98-0.26-5.91
		c-0.45-2.27-1-4.54-2-6.64c-0.42-0.88-0.45-1.67-0.13-2.53c0.33-0.9,0.7-1.78,1.05-2.67c0.15-0.37,0.34-0.73-0.03-1.19
		c-1.93,2.65-2.43,5.68-2.64,9.11c-1.56-2.04-1.61-4.4-2.7-6.32c0.39,3.94,1.82,7.52,4.1,11.12c-1.64-0.25-2.91-0.82-4.09-1.53
		c-3.57-2.12-6.43-4.98-8.45-8.63c-1.41-2.55-1.63-5.3-1.21-8.15c0.12-0.8,0.48-1.37,1.27-1.55c2.21-0.5,4.18-1.56,6.11-2.69
		c0.28-0.17,0.56-0.3,0.99-0.13c0.09,2.15,0.11,4.42,2.86,5.6c0.02-2.06,0.27-3.89,1.26-5.54c-1.3,0.89-1.3,0.89-2.42,3.6
		c-1.67-1.73-0.56-3.77-0.61-5.81c-1.1,0.68-2.05,1.25-2.98,1.86c-2.39,1.55-5,2.48-7.82,2.77c-1.36,0.14-2.71-0.15-3.95-0.7
		c-2.06-0.92-3.83-2.29-5.43-3.87c-0.15-0.15-0.19-0.4-0.3-0.64c1.92-0.1,3.8,0.45,6.22-0.04c-1.87-1-2.87-2.14-3.52-3.84
		c1.08-0.03,1.96,0.26,2.84,0.42c2.43,0.44,4.46-0.27,5.85-2.32c1.49-2.21,2.43-4.59,2.08-7.39c-0.22-1.71,0.49-3.29,1.49-4.69
		c0.36-0.5,0.79-0.96,1.2-1.45c-1.38-0.73-2.72-0.29-5.31,1.67c-0.69-0.2-0.84-1.15-1.63-1.22c-0.78,0.15-0.58,1.04-1.1,1.46
		c-0.8-0.52-1.59-1.03-2.58-1.67c1.07-1.3,1.02-2.95,1.62-4.55c1.77,1.01,2.61,2.79,4.07,4.2c1.06-1.82,1.24-3.69,0.85-5.67
		c0.36-0.18,0.7-0.36,1.03-0.53c0.06-0.47,0.12-0.93,0.17-1.36c2.39-0.23,4.8,0.12,6.88-1.13c-0.01-0.76-0.93-0.41-0.88-1.11
		c0.06-0.05,0.15-0.21,0.28-0.24c2.27-0.6,4.3-1.7,6.26-2.94c0.77-0.48,1.4-1.04,1.32-2.12c-1.02-0.82-2.59-0.74-3.59-2.06
		c1.79-0.29,3.24-1.07,4.77-1.72c1.56,1.18,3.08,2.33,4.59,3.47c0.16,0.84-0.41,1.39-0.67,2.03c-1.21,2.89-1.51,5.88-0.77,8.9
		c1.09,4.43,3.74,7.5,8.2,8.87c0.56,0.17,1.06,0.17,1.63,0.06c1.91-0.39,3.68-1.03,5.19-2.31c0.34-0.29,0.68-0.62,1.33-0.66
		c-0.13,1.3-1.41,1.84-1.94,2.87c0.82,0.09,0.98-0.9,1.7-0.73c-0.9,4.25-2.09,5.22-7.79,6.18c1.95,0.31,3.54,0.35,5.15-0.37
		c1.3-0.58,2.71-0.94,4.09-1.33c0.41-0.11,0.92-0.34,1.4,0.13c-2.9,4.08-6.83,5.8-12.06,5.05c1.84,1.33,2.23,1.35,6.24,0.56
		c1.56,1.57,3.29,3.22,5.74,3.76c2.34,0.51,4.68,0.68,7.44-0.12c-1.52,3.14-2.67,5.86-6.41,6.27c1.97,0.76,2.05,0.75,7.2-0.89
		c0.48,0.54-0.1,0.91-0.31,1.2c-1.84,2.38-4.44,3.33-7.31,3.56c-3.64,0.29-6.97-0.61-9.83-2.98c-0.43-0.36-0.88-0.68-1.34-1
		c-0.1-0.07-0.28-0.03-0.55-0.04c0.74,2.94,0.77,5.83-0.44,8.39c-0.3,0.34-0.45,0.31-0.5,0.09c-0.54-2.75-1.98-5.01-3.79-7.09
		c-0.77-0.88-1.44-1.86-2.47-3.21c0.25,1.46,0.67,2.27,1.26,3.01c0.55,0.69,1.13,1.34,1.67,2.04c1.88,2.44,3.11,5.04,1.87,8.31
		c2.83-1.52,3.92-4.47,3.69-9.63c0.55-0.11,0.86,0.34,1.24,0.58c1.85,1.15,3.8,2.04,6.02,2.16c0.68,0.04,1.26,0.2,1.69,0.73
		c2.41,3,5.58,4.69,9.3,5.46c0.06,0.01,0.11,0.11,0.24,0.25c-1.53,0.94-3.38,0.64-4.93,1.37c0.43,0.45,1.1,0.02,1.56,0.39
		c-1.1,0.93-2.3,1.3-3.67,1.44c-1.81,0.19-2.32-1.39-3.38-2.34c0.51,1.89,1.47,3.08,3.42,4.68c1.52,1.25,3.32,1.85,5.2,2.42
		c-2.87,2.96-7.3,3.59-11.02,1.6c-0.51-0.74-0.22-1.86-1.11-2.69c0,0.72-0.13,1.36,0.02,1.91c0.62,2.17-0.17,4.07-0.97,5.99
		c-1.16,2.78-3.01,5.07-5,7.26c-0.54,0.6-1.04,1.2-1.48,1.88C255.88,152.01,255.24,154.41,257.39,157.05z"/>
	<path class="st0" d="M142.67,116.06c-0.87,0.01-1,0.92-1.63,1.38c-0.67-3.49-1.33-6.91-2-10.33c-0.43-2.19-0.87-4.38-1.28-6.57
		c-0.3-1.6,0-3.04,1.5-3.93c0.4-0.24,0.59-0.46,0.64-0.87c0.18-1.54,1.07-2.43,2.55-2.83c0.67,0.47,0.18,1.35,0.66,1.9
		c0.82-0.19,0.66-0.86,0.49-1.33c-0.42-1.19,0.08-2.05,0.93-2.73c1.73-1.38,3.52-2.68,5.34-4.05c0.49,1.13-0.92,1.56-0.63,2.5
		c1.93-1.7,2.93-3.98,5.15-11.75c0.26-0.16,0.4,0.01,0.55,0.19c0.15,0.18,0.31,0.35,0.43,0.48c0.72,0.13,0.95-0.64,1.63-0.67
		c0.29,0.66,0.66,1.08,1.64,1.15c2.39,0.18,4.75,0.41,7.12-0.17c0.89-0.22,0.91-0.15,2.5,0.88c-0.35,0.72-0.59,1.52-0.58,2.39
		c0.02,1.21-0.64,2.15-1.64,2.76c-1.6,0.98-3.35,0.91-5.11,0.5c-0.6-0.14-0.65-0.84-1.24-1.26c0.29,2.08-0.38,3.84-1.25,5.53
		c-0.62,1.2-0.72,2.35-0.39,3.69c0.29,1.2,0.63,2.4,0.34,3.75c-0.31,1.47,1.78,4.38,3.24,4.96c0.29,0.11,0.66,0.25,0.92,0.16
		c1.04-0.36,2.27-0.1,3.27-1.04c-0.89-0.72-1.06-1.64-0.62-2.66c0.48-1.13,1.2-2.08,2.28-2.7c0.77-0.44,1.56-0.84,2.48-0.35
		c0.35,0.19,0.73,0.19,1.15,0.18c1.41-0.05,1.7,0.27,1.29,1.63c-0.31,1.02-0.44,2.02-0.3,2.7c-0.03,0.91-0.8,0.42-0.83,0.93
		c-0.09,1.19,0.98,0.98,1.59,1.13c0.3,1.23,0.07,2.21-0.51,3.12c-1.33,2.09-2.71,4.15-4.01,6.25c-0.8,1.29-1.86,2.08-3.31,2.57
		c-1.96,0.66-3.88,1.49-5.54,2.78c-0.18,0.14-0.48,0.38-0.59,0.32c-1.2-0.62-1.5,0.37-2.01,1.06c0.39,0.4,0.63-0.25,1.07-0.04
		c0.72,1.1-1.2,2.03-0.33,3.24c-0.48,0.4-1.01,0.77-1.44,1.23c-0.78,0.82-1.28,1.76-1.46,2.94c-0.33,2.15-0.31,4.29-0.3,6.45
		c0.02,2.78-0.32,5.6,1.06,8.23c-1.18,0.85-2.36,0.26-3.46,0.56c0.89,2.74,2.43,4.84,5.59,5.89c-1.06,0.63-1.87,0.32-2.56,0.51
		c-0.68,0.19-1.36,0.41-1.93,0.59c-0.41,0.64,0.12,0.99,0.21,1.64c-1.31,0.73-2.73,1.44-4.05,2.28c-1.38,0.88-2.91,0.59-4.37,0.64
		c-0.12,2.02-0.1,2.05,2.02,4.31c0.2,1.41-0.34,2.49-1.2,3.56c-1.44,1.78-1.98,3.99-2.64,6.12c-0.62,1.99-1.18,3.98-2.4,5.49
		c-0.03,0.88,0.77,0.6,1.04,1.28c-0.3,2.6-0.52,5.43-1.82,7.92c0.57,0.81,1.14-0.01,1.53,0.19c0.53,0.36,0.22,1.01,0.89,1.37
		c2.04,0.22,4.23-0.2,6.39-0.57c0.77,0.84-0.14,1.71,0.24,2.65c2.79-1.84,6.05-1.76,9.18-2.41c0.34,0.5-0.49,0.98,0.08,1.61
		c3.06-0.67,5.64-2.53,8.38-4.24c0.31,4.72,0.49,4.26-2.27,6.53c-0.49-0.44,0.18-0.88-0.06-1.49c-1.84,0.35-3.34,1.5-4.96,2.35
		c-1.77,0.92-2.84,2.48-3.64,4.46c-1.46-1.55-0.61-3.31-0.99-5.09c-2.24,1.9-4.37,3.69-6.98,4.71c-0.2,0.08-0.45,0.03-0.65,0.04
		c-0.44-1.18,0.76-1.45,1.18-2.34c-2.96,0.73-5.89,0.7-8.88,1.21c0.12-1.6,1.68-1.91,2.41-3.08c-1.08-0.35-2.07,0.07-3.05,0.03
		c-0.93-0.03-1.87,0.06-2.72-0.27c0.02-0.57,0.33-0.66,0.59-0.83c0.26-0.17,0.48-0.4,0.83-0.7c-1.56-0.12-2.82,1.06-4.4,0.49
		c1.27-2.46,1.46-5.25,3.25-7.75c-1.4,0.04-2.12,1.22-3.23,1.09c-0.34-0.27-0.19-0.58-0.03-0.84c1.28-2.21,1.53-4.68,1.73-7.14
		c0.07-0.87,0.18-1.74,0.3-2.6c0.16-1.21,0.43-2.33,1.2-3.32c0.43-0.56,0.67-1.25,0.71-2.17c-1.03,0.46-1.16,1.48-1.68,2.16
		c-0.52,0.68-1.04,1.36-1.7,2.23c-0.47-0.71-0.28-1.26-0.23-1.74c0.4-3.73,0.85-7.45,2.41-10.93c0.23-0.51,0.51-0.97,0.12-1.56
		c-0.31-0.47,0.06-0.93,0.26-1.34c1.68-3.45,1.99-7.2,2.36-10.92c0.39-3.89,0.68-7.78,0.62-11.7c-0.05-2.81-0.63-5.36-2.88-7.26
		c0.25-0.4,0.46-0.72,0.65-1.03c-0.35-1.05-1.19-1.67-2.18-2.55c2.81-0.68,4.9,0.25,6.78,1.76c0.8-0.6,0.21-1.71,1.1-2.13
		c0.63,0.46,0.21,1.55,1.08,1.87C143.69,117.51,143.69,117.51,142.67,116.06z M146.91,90.7c-0.25,1.5-0.66,2.85,0.41,4.03
		c0.38-0.5,0.29-1.1,0.16-1.59c-0.18-0.67,0.45-1.17,0.2-1.83c-0.21-0.54,0.91-0.59,0.58-1.36C147.8,90.2,147.39,90.43,146.91,90.7z
		"/>
	<path class="st0" d="M226.34,36.16c-1.53-1.67-2.34-1.73-3.59-0.16c-1.64,2.06-2.09,4.44-1.58,7c0.14,0.69,0.37,1.36,0.56,2.04
		c-0.81,0.57-1.59,0.19-2.35,0.37c-0.18-0.87-0.28-1.49-1.21-1.76c-0.59-0.18-0.17-1.4-0.93-1.73c-0.4-0.01-0.42,0.25-0.45,0.47
		c-0.37,2.9-2.58,4.03-4.87,5.11c-0.58,0.28-1.12-0.68-1.74,0.06c-0.32,0.38-0.83,0.75-1.52,0.74c-0.29-1.11-0.23-2.39-1.23-3.19
		c-1.15,0.27-1.4,1.55-2.46,2c-0.32-0.51-0.19-1.05-0.07-1.54c0.69-2.9,1.63-5.68,3.72-7.92c0.27-0.29,0.51-0.62,0.7-0.96
		c0.48-0.85,0.33-1.73-0.43-2.36c-0.88-0.72-1.88-1.3-3-1.41c-2.79-0.29-5.56-0.39-8.19,0.94c-2.24,1.13-4.22,2.57-5.82,4.51
		c-1.04,1.27-1.68,2.72-1.61,4.39c0.07,1.48,0.69,2.61,2.22,3.06c0.69,0.2,1.38,0.38,2.06,0.62c1.6,0.56,2.82,1.48,3.11,3.39
		c-1.54,1.44-2.89,0.1-4.37-0.36c-0.37,1.25,0.27,2.02,1.18,2.61c0.8,0.51,1.64,1,2.79,1.09c-0.52,0.92-1.19,1.47-1.93,1.89
		c-1.27,0.71-2.04,1.74-2.28,3.17c-0.01,0.08-0.07,0.14-0.1,0.22c-0.53,1.58-1.28,2.9-2.71,3.99c-1.76,1.34-3.29,3.02-4.34,5.05
		c-1.32,2.57-1.18,3.5,1.04,5.43c-2.36,0.5-4.05-0.32-5.24-2.26c-1.96-3.18-2.31-6.53-1.23-10.1c0.99-3.26,2.53-6.19,4.93-8.62
		c-0.54-0.5-0.81-0.07-1.04,0.18c-1.06,1.19-2.11,2.39-2.8,3.86c-0.29,0.64-0.51,1.36-1.18,1.85c-1.55-0.99-2.22-2.19-1.75-4.2
		c0.79-3.39,2.04-6.53,3.89-9.49c-1.4,0.01-3.23,0.97-6.01,3.03c-1.81,1.34-3.12,3.12-4.52,4.99c-0.54-2.63,1.77-9.18,4.26-12.63
		c2.7-3.73,6.16-6.4,10.65-7.65c-0.4-0.83-1.04-1.05-1.58-1.34c-1.34-0.74-2.15-1.89-2.71-3.24c-1.35-3.25-1.62-6.64-1.2-10.1
		c0.38-3.17,1.22-6.25,1.9-9.37c0.44-2,1.14-4.01,0.46-6.16c1.38,1.05,2.04,2.55,2.72,4.02c0.94,2.03,1.74,4.12,2.76,6.1
		c1.75,3.4,4.51,5.75,8.06,7.14c0.72,0.28,1.46,0.68,2.33,0.39c0.32-0.43-0.08-0.73-0.26-1c-1.43-2.15-1.22-4.39-0.41-6.65
		c0.95-2.67,2.74-4.64,5.16-6.09c4.11-2.47,8.55-3.46,13.31-3.02c1.5,0.14,2.88,0.65,4.34,1.59c-2.57,0.03-4.54,0.91-6.13,2.55
		c-1.74,1.8-3.05,3.86-3.85,6.27c-2.05,6.14,3.07,9.72,7.94,8.56c3.05-0.72,5.89-2.03,8.58-3.59c2.18-1.26,4.46-1.66,6.9-1.5
		c1.14,0.07,1.25,0.11,3,1.03c-0.29,1.22-0.97,2.3-1.57,3.41c-1.28,2.39-2.6,4.77-3.9,7.15c-1.5,2.74-3.53,5.13-5.22,7.74
		c-0.34,0.53-0.79,0.41-1.27,0.33L226.34,36.16z"/>
	<path class="st0" d="M227.55,188.51c1.54,1.07,0.99,2.85,1.7,4.57c1.11-2.38,2.39-4.07,3.97-5.56c0.88-0.83,1.91-1.45,2.84-2.19
		c1.18-0.93,2.35-1.89,3.53-2.84c0.65,0.8-0.48,1.59-0.07,2.4c0.68,0.04,0.9-0.63,1.36-0.84c0.2-0.06,0.32,0.02,0.35,0.22
		c0.28,2.05,0.63,4.09,0.79,6.15c0.09,1.08-0.49,2.16-0.19,3.35c2.15-1.01,3.55-2.89,5.32-4.53c0.91,2.11,1.62,4.1,1.8,6.26
		c0.18,2.09-0.71,4.03-0.96,6.27c2.32-0.89,4.29-2.19,6.66-2.24c0.28,0.84-0.92,0.73-0.91,1.4c0.32,0.3,0.53-0.33,1.03,0.18
		c-0.05,0.73-0.13,1.71-0.47,2.67c-0.35,0.96-0.9,1.86-1.03,3.04c1.61,0.24,3.19,0.34,4.68,0.88c1.42,0.51,2.86,0.96,4.32,1.45
		c-0.06,0.23-0.06,0.51-0.19,0.67c-2.53,2.98-4.7,6.26-7.44,9.06c-0.67,0.68-1.1,2.16-2.64,1.4c-0.12-0.06-0.49,0.35-0.72,0.57
		c-1.75,1.7-3.79,1.65-6.09,1.23c-0.01-1.18,0.62-2.39-0.64-3.08c-0.13-1.01-0.52-2.01,0.4-3.33c-1.99,0.35-3.51,0.62-5.13,0.91
		c-0.09-1.02,1.01-1.22,1.15-2.07c-1.37-0.66-2.74,0.36-4.08,0.08c-0.53-1.58-0.04-2.97,0.83-4.37c-1.53-0.17-2.81,1.02-4.24,0.43
		c-0.6-0.43-0.1-1.3-0.81-1.75c-0.47,0.12-1,0.32-1.54,0.4c-1.49,0.22-2.88-0.07-4.01-1.12c-3-2.78-4.34-6.23-4.06-10.32
		c0.05-0.73,0.33-1.4,0.68-2.03c0.69-1.26,1.4-2.51,2.14-3.74C226.53,190.99,227.12,189.86,227.55,188.51z"/>
	<path class="st0" d="M195.04,66.97c1.3-0.17,2.36-0.95,3.54-1.42c0.96-0.38,1.9-0.79,2.89-0.85c1.82,0.73,2.8,2.37,4.34,3.74
		c0.83-2.51,0.54-5.03,1.45-7.52c0.83,0.49,1.65,0.88,2.62,0.84c0.12,1.19-0.51,1.94-1.03,2.71c-0.22,0.33-0.53,0.6-0.78,0.91
		c-0.33,0.39-0.5,0.85-0.22,1.32c0.33,0.55,0.91,0.71,1.46,0.49c0.88-0.35,1.71-0.83,2.65-1.3c1.18,0.7,2.49,0.95,3.85,1.15
		c1.81,0.26,3.46,0.12,4.87-1.15c1.04-0.94,2.37-0.78,3.53-0.92c0.5-0.41-0.31-1.14,0.48-1.38c0.53-0.16,1.06-0.37,1.6-0.47
		c0.82-0.16,1.79,0.01,1.76-1.37c-0.01-0.26,0.88-0.54,1.53-0.92c-1.52-1.02-3.18-0.63-4.65-1c-1.53-0.38-3.15-0.43-4.74-0.54
		c-1.51-0.11-3.03-0.17-4.55-0.16c-1.58,0.01-3.16,0.14-4.89,0.22c-0.14-0.8,0.19-1.51,0.36-2.14c0.81-0.79,1.86-0.66,2.75-1.05
		c-1.45-0.47-1.45-0.47-3.21,0.35c-0.51,1.08-0.29,2.55-1.52,3.33c-0.5,0.32-1.05,0.33-1.65,0.02c0.03-1.52,0.73-2.87,1.14-4.3
		c0.21-0.72,0.81-0.94,1.42-1.15c4.71-1.58,9.33-1.26,13.67,1.08c2.38,1.28,4.61,2.87,7.02,4.12c0.35,0.18,0.71,0.38,0.94,0.93
		c-1.06,2.63-3.14,4.62-5.13,6.67c-0.39,0.4-0.87,0.7-1.28,1.08c-1.97,1.83-4.11,2.87-6.89,1.89c-1.5-0.53-3.09-0.79-4.64-1.16
		c-0.61-0.15-1.22-0.37-2.03-0.05c1.2,1.71,2.42,3.35,3.53,5.05c1.13,1.74,2.15,3.55,3.18,5.27c-0.22,0.86-1.15,0.05-1.33,0.85
		c0.44,0.6,0.95,1.31,1.53,2.12c-0.61,0.74-1.38,0.99-2.1,1.11c-0.88-0.32-0.4-1.28-1.08-1.66c-0.97,0.56-1.19,1.62-1.56,2.56
		c-0.17,0.45-0.19,1.05-0.68,1.2c-2,0.6-3,2.65-4.87,3.34c-0.67-0.15-0.51-1.05-1.22-1.14c-1.22,0.95-0.58,2.71-1.44,3.74
		c-0.83,0.07-0.73-0.91-1.36-0.93c-0.12,0.1-0.3,0.19-0.33,0.31c-0.12,0.54-0.27,1.1-0.26,1.65c0.01,0.85-0.24,1.51-0.85,2.14
		c-0.6,0.62-1.1,1.37-1.56,2.11c-1,1.63-2.65,2.51-4.1,3.61c-0.28,0.21-0.76,0.21-1.15,0.23c-0.73,0.04-0.47-0.65-0.73-1.04
		c-2.54-0.01-5.12-0.05-6.87-2.62c1.1-0.64,2.57-0.56,3.25-1.92c-0.56-1.04-2.18-1.37-2.19-2.91c1.02,0.07,2.03,0.13,3.05,0.22
		c0.84,0.07,1.58-0.26,2.28-0.63c1.28-0.69,1.52-1.68,0.85-3.01c-0.32-0.64-0.63-1.28-0.93-1.93c-0.03-0.06,0.03-0.15,0.06-0.28
		c0.64-0.38,1.34-0.27,2.03-0.11c2.53,0.58,5.11,0.44,7.64,0.28c2.56-0.16,4.77-1.29,6.02-3.75c0.11-0.21,0.27-0.4,0.36-0.62
		c0.39-1.06,1.11-1.59,2.22-1.2c0.69,0.24,1.26,0,1.85-0.18c0.75-0.22,1.03-0.76,0.87-1.44c-0.17-0.69-0.76-1.22-1.4-0.99
		c-1.64,0.59-3.52,1.15-4.07,3c-0.9,3.02-3.2,4.09-5.87,4.55c-2.93,0.51-5.88-0.11-8.8-0.48c-0.67-0.08-1.16-0.52-1.41-1.17
		c-0.31-0.81-0.59-1.64-0.87-2.43c0.45-0.66,0.85-1.24,1.32-1.92c2.16-0.24,4.4-0.53,5.61-2.9c-0.64-0.22-1.19-0.42-1.59-0.96
		c-0.97-1.32-2.27-1.27-3.66-0.79c-1.21,0.42-2.33,1.02-3.3,1.7c-0.67-0.3-1.08-0.66-1.45-1.31c1.34-2.84,2.12-6.07,4.68-8.36
		c0.1-0.09,0.1-0.29,0.15-0.43L195.04,66.97z M203.48,81.12c-1.52,0-2.7,0-3.89,0c-0.06,0.33-0.18,0.59-0.12,0.78
		c0.1,0.28,0.33,0.51,0.51,0.76C200.99,81.96,202.35,82.47,203.48,81.12z M202.68,79.62c0.01-0.13,0.03-0.25,0.04-0.38
		c-0.71-0.11-1.42-0.22-2.1-0.32c-0.37,0.69-0.19,1.12,0.48,1.43C201.61,80.11,202.14,79.86,202.68,79.62z M202.11,83.24
		c-0.32,0.06-0.57,0.22-0.56,0.58c0.01,0.41,0.24,0.73,0.65,0.81c0.33,0.07,0.6-0.11,0.65-0.45
		C202.91,83.65,202.65,83.33,202.11,83.24z"/>
	<path class="st0" d="M249.04,71.52c1.34-1.24,2.46-2.56,3.54-4.04c-0.24-0.84-1.65-0.74-1.44-1.78c-1.5-0.43-3.02-0.06-4.46-0.89
		c1.19-1.02,2.65-1.79,3.03-3.57c-1.22-0.41-2.5-0.01-4.04-0.37c1.58-1.26,2.83-2.43,4.69-2.28c0.23-1.04-0.59-1.35-0.99-1.89
		c-0.09-0.14-0.02-0.23,0.15-0.36c1.33-1.03,2.38-2.13,2.7-3.98c0.2-1.16,1.25-2.17,1.85-3.13c0.02-0.64-0.76-0.81-0.45-1.41
		c0.72-1.43,0.89-3.01,1.14-4.71c1.92,0.91,3.17,2.35,4.42,3.78c0.51,0.59,0.34,1.37,0.35,2.08c0.02,1.59-0.09,3.2,0.39,4.75
		c0.93,2.95,2.2,5.67,5.02,7.31c3.35,1.95,6.29,1.75,9.28-0.65c0.48-0.38,0.73-1.05,1.52-1.22c0.28,1.99-0.23,3.8-0.9,5.58
		c-0.37,0.98-1.16,1.5-2.2,1.61c-0.79,0.09-1.59,0.14-2.42,0.21c-0.12,0.62,0.38,0.75,0.78,0.9c2.32,0.88,4.68,1.41,7.2,1
		c1.24-0.2,2.52-0.1,3.68-0.5c0.44,0.72-0.14,1-0.39,1.31c-1.44,1.81-2.89,3.61-4.89,4.88c-1.83,1.16-3.79,1.64-5.93,1.44
		c-1.62-0.15-1.75-0.23-2.98-2.16c0.12,3.16-0.11,5.9-2.01,8.25c-1.88,2.32-4.2,3.85-7.14,4.8c-0.17-0.76,0.35-1.21,0.64-1.68
		c1.73-2.88,0.56-5.72-1.7-7.38c-0.96-0.7-2.03-1.26-3.08-1.84C252.44,74.52,250.63,73.26,249.04,71.52z"/>
	<path class="st0" d="M270.33,44.94c-2.59,2.92-6.45,4.39-9.82,3.87c-0.32-3.6-3.45-4.86-5.76-6.82c-0.3-0.62-0.15-1.27-0.19-1.9
		c-0.02-0.32,0.09-0.81-0.07-0.93c-1.26-0.88-0.58-2.15-0.76-3.25c-0.15-0.85,0.01-1.78-0.61-2.51c-0.28-0.32-0.31-0.73-0.3-1.13
		c0.04-1.19-0.08-2.37-0.48-3.61c6.29-2.7,10.91-6.72,11.5-13.94c0.3-0.19,0.47-0.03,0.58,0.16c2.13,3.93,4.08,7.94,5.41,12.22
		c1.01,3.26,0.96,6.62,0.45,9.95c-0.4,2.6-1.8,4.56-4.3,5.63c-0.29,0.12-0.57,0.29-0.84,0.45c-0.13,0.08-0.24,0.21-0.47,0.42
		C266.53,44,268.19,44.82,270.33,44.94z"/>
	<path class="st0" d="M248.56,41.32c0.58,0.22,0.97-0.55,1.55-0.26c-0.35,3.58-0.84,4.53-4.03,7.81c0.87,0.39,1.71-0.53,2.56,0.05
		c-1.09,1.92-2.99,2.77-4.88,3.64c-0.18,0.35,0.26,0.49,0.3,0.86c-2.34,1.31-4.64-0.36-7.03-0.07c-0.05-1.14,0.66-1.87,0.97-2.74
		c0.33-0.94,1.06-1.83,0.33-2.91c-0.31-0.46,0.08-0.9,0.22-1.35c0.31-0.99,0.63-2,0-2.99c-0.34-0.53-0.18-1.11-0.1-1.62
		c0.16-1.04,0.14-2.11-0.09-3.08c-0.85-3.53,0.23-6.76,1.3-10.02c0.12-0.38,0.26-0.75,0.43-1.12c1.12-2.47,2.13-4.97,2.46-7.69
		c0.09-0.7,0.16-1.44,0.8-2.15c0.41,0.46,0.6,0.98,0.73,1.55c0.23,1.01,0.65,1.97,0.63,3.03c1.04,0.51,0.58,1.74,1.07,2.39
		c1.3,1.76,1.45,3.83,1.88,5.82c0.2,0.93,0.19,1.9,0.36,2.84c0.13,0.73-0.54,1.7,0.76,2.14c0.36,0.12,0.08,1.05-0.03,1.58
		c-0.18,0.84-0.58,1.59,0.02,2.48C249.12,40.06,248.19,40.66,248.56,41.32z M244,40.39c0.99-0.9,0.42-1.89,0.18-2.86
		c-0.16,0.96,0.13,1.95-0.12,2.91c-0.5,0.42-0.63,1.04-0.81,1.62c-0.15,0.45,0.04,0.74,0.61,0.6
		C243.99,41.91,244.21,41.16,244,40.39z M242.8,32.64c-0.25,1.28-0.28,2.15,0.05,3.2C243.22,34.74,243.24,33.85,242.8,32.64z"/>
	<path class="st0" d="M194.1,108.83c-2.66,6-7.18,10.34-11.97,14.49c-0.88-0.23-1.29-0.97-2.02-1.39c0.7-0.83,1.69-0.77,2.56-1.01
		c-0.35-0.7-1.11-0.73-1.55-1.19c-0.46-0.48-1.58-0.53-1.38-1.39c0.23-1-0.82-0.66-0.99-1.33c2.26-0.8,4.4-0.51,6.59,0.61
		c-2.68-2.27-4.69-4.78-4.03-8.76c1.11,0.66,1.14,1.93,2.28,2.64c-0.58-1.96-1.73-3.55-1.76-5.6c1.51,0.42,2.84,1.01,4.21,1.12
		c1.52,0.12,1.85,2.06,3.65,1.86c-1.59-1.16-2.45-2.67-3.17-4.24c0.62-0.64,1.09,0.24,1.6-0.04c0.21-0.62-0.51-1.18,0.05-1.94
		c1.31,1.26,3.18,1.38,4.7,2.2c-0.31,1.15-1.49,0.67-2.06,1.49C191.19,108.05,193.02,108.04,194.1,108.83z"/>
	<path class="st0" d="M192.19,39.81c0.01-0.4,0.03-0.81,0.31-1.12c2.7-3,5.89-5.08,10.03-5.42c1.79-0.15,3.48,0.23,5.09,1
		c0.57,0.28,1.14,0.59,1.31,1.34c-0.05,0.73-0.52,1.27-1.01,1.8c-1.72,1.86-2.69,4.1-3.42,6.48c-0.31,1.01-0.34,2.04-0.33,3.07
		c0.01,0.87,0,1.74,0,2.63c-0.45,0.41-0.93,0.78-1.67,1.03c-3.37-2.2-5.27-5.29-5.37-9.44c-0.02-0.64,0.03-1.28-0.03-1.91
		c-0.14-1.36-0.8-1.77-2.12-1.36c-0.36,0.11-0.79,0.19-0.85,0.69l0.09-0.07C193.24,38.48,192.93,39.48,192.19,39.81z"/>
	<path class="st0" d="M183.37,90.79c1.39,3.08,4.6,2.9,7.13,4.12c-0.87,1.09-2.09,0.8-2.91,1.38c0.72,2.54,2.44,3.62,6.32,3.89
		c0.35,0.56,0.44,1.43,1.53,1.36c-0.83,0.94-1.68,0.86-2.45,0.77c-0.88-0.1-1.24,0.47-1.64,1.01c-1.87-0.55-1.87-0.55-3.83-2.26
		c-0.54,0.11-0.45,0.57-0.5,0.94c-0.05,0.39-0.05,0.78-0.07,1.04c-0.32,0.64-1.08-0.02-1.27,0.84c0.13,0.57,0.31,1.33,0.53,2.29
		c-1.88,0-3.34-0.68-4.81-1.83c-0.35,1.1-0.1,2.44-1.51,2.95c-0.75-1.54-1.51-3.09-2.27-4.64c1.42-0.69,2.9-0.57,4.61-0.25
		c-1.77-2.81-3.31-5.44-3.35-9.14c1.63,2.1,2.99,3.88,5.58,4.51c-0.42-0.9-1.33-1.06-1.5-1.91c-0.18-0.88-0.22-1.74-0.2-2.61
		C182.76,92.47,182.5,91.63,183.37,90.79z"/>
	<path class="st0" d="M168.13,237.96c-1.98-2.68-2.17-5.37-1.72-8.16c0.3,0,0.52,0,0.75,0c0.41-0.75-0.29-1.49-0.18-2.24
		c0.86-0.01,1.08,0.79,1.79,1.03c1.53-0.66,3.37,0.01,5.1-0.98c-0.57-0.73-1.11-1.58-0.52-2.68c0.74,0,1.52,0,2.36,0
		c0.19,0.68,0.64,1.18,1.3,1.49c-1.87,4.44-2.66,5.3-6.29,6.87c-0.03,1,1.01,1.13,1.44,1.77c0.36,2.87-2.02,3.13-3.77,3.91
		c-0.3,0.53-0.05,0.98,0.06,1.44c-0.24,0.43-0.77,0.06-1.07,0.41c-0.38,1.01,0.54,1.73,0.69,2.64c0.07,0.65-1.39,0.39-0.82,1.35
		c0.19,0.31,0.18,0.6-0.06,0.87c-0.58,0.65-1.16,1.32-1.77,1.95c-0.32,0.33-0.74,0.26-1.1,0.05c-0.53-0.3-0.1-0.67-0.05-1.03
		c-0.53-0.56-1.07-1.14-1.8-1.91c1.08-0.15,1.94,0.57,2.78,0.17c0.09-0.78-0.54-1.17-0.74-1.75c-0.21-0.6-0.48-1.19-0.61-1.8
		c-0.14-0.61-0.15-1.25-0.21-1.87c1.03-0.24,0.14-1.07,0.47-1.52c0.46,0.01,0.86,0.41,1.4,0.2c-0.05-0.37-0.1-0.74-0.15-1.13
		C166.37,236.86,166.82,237.91,168.13,237.96z"/>
	<path class="st0" d="M215.07,83.18c1.19,2.22,3.05,2.89,5.26,2.83c0.72-0.02,1.2,0.37,1.62,0.86c1.08,1.26,2.14,2.55,2.92,4.1
		c-1.71-0.36-2.25-0.89-3.89-3.84c-1.49,0.67-1.78,2-1.88,3.58c-0.92-0.14-1.74-0.26-2.53-0.38c-0.37,0.26-0.1,0.6-0.25,1.03
		c-2.25-0.4-2.67-2.27-3.48-4.15c1.24,0.01,1.94,0.73,2.94,1.06c-0.38-0.87-0.69-1.66-1.07-2.41
		C214.26,84.95,214.66,84.2,215.07,83.18z"/>
	<path class="st0" d="M220.93,63.22c0.28-0.64,0.56-1.28,0.83-1.91c1.09-0.17,1.09-0.17,1.99,0.09c0.11,1.01-0.44,1.64-1.24,2.08
		c-1.35,0.75-2.53,2.04-4.38,1.28c-0.37,0.7-0.73,1.35-1.58,1.51c-0.83,0.16-1.33-0.29-1.85-0.8c-0.21-0.21-0.52-0.31-0.78-0.46
		l0.07,0.07c-0.03-1.27-1.37-2.16-1.04-3.63c1.03-0.4,2.01-0.63,3.12-0.08c0.44,0.22,0.97,0.41,1.5-0.39
		c0.46-0.69,1.39-0.27,1.84,0.57c0.26,0.48,0.1,1.13,0.65,1.47C220.35,63.1,220.64,63.16,220.93,63.22z"/>
	<path class="st0" d="M194.12,38.6c0.55-0.07,1.09-0.15,1.66-0.22c0.7,0.43,0.82,1.16,0.68,1.85c-0.47,2.31,0.25,4.35,1.28,6.34
		c0.19,0.36,0.31,0.73,0.22,1.14l0.05-0.05c-1.22-1-2.47-1.96-4.1-2.21c-0.39-0.06-0.78-0.19-1.12-0.37
		c-1.19-0.65-1.55-1.66-1.1-2.98c0.18-0.52,0.38-1.03,0.58-1.55c0.64-0.68,1.5-1.16,1.94-2.02L194.12,38.6z"/>
	<path class="st0" d="M226.26,36.07c0.35,0.75,0.43,1.5-0.19,2.15c-1.94,2.06-1.84,4.59-1.75,7.15c0.03,0.88,0.37,1.68,0.55,2.67
		c-3.67-3.21-4.39-10-0.56-12.3c0.75-0.21,1.28,0.65,2.04,0.42L226.26,36.07z"/>
	<path class="st0" d="M192.61,61.71c0.37,1.04,0.37,1.04,1.41,1.7c-0.37,1.54-0.37,1.54-2.36,2.75c0.04,0.89-0.07,1.83,0.42,2.73
		c0.38,0.68-0.04,1.21-0.57,1.93c-1.38-1.51-2.03-3.43-3.48-4.86C189.28,64.07,190.8,62.77,192.61,61.71z"/>
	<path class="st0" d="M269.1,147.57c-2.5-0.77-5.02-0.08-7.19-1.89c0.79-1.39,1.59-2.8,2.5-4.41
		C266.01,143.34,267.83,145.03,269.1,147.57z"/>
	<path class="st0" d="M160.2,87.52c2.23,1.56,2.44,3.62,2.32,5.77c-0.57,0.35-1.13-0.3-1.61,0.26c-0.35,0.42-0.81,0.78-1.45,0.69
		C157.69,91.87,158.86,89.81,160.2,87.52z"/>
	<path class="st0" d="M194.49,61.44c-0.7-0.29-0.96-0.77-1.19-1.35c0.38-1.07,0.78-2.17,1.23-3.4c1.34,0.31,2.6-0.55,3.87-0.2
		c0.43,0.58,0.04,1,0.11,1.58c-1.8-0.05-3.02,0.68-3.87,2.41c1.25-0.21,1.36-1.57,2.37-1.64c0.47-0.03,0.95-0.12,1.38,0.2
		c0.18,0.44,0.28,0.89,0.01,1.47C197.05,60.59,195.62,60.62,194.49,61.44z"/>
	<path class="st0" d="M214.25,91.54c-2,1.54-4.14,2.11-6.58,1.56c-0.85-1.12-1.37-2.27-0.38-3.75
		C209.24,91.33,211.68,91.59,214.25,91.54z"/>
	<path class="st0" d="M191,80.42c2.2,0.91,1.92,3.19,2.72,4.91c-1.25-0.52-2.32-1.22-3.01-2.37C190.14,82.01,190.18,81.82,191,80.42
		z"/>
	<path class="st0" d="M197.97,47.71c1.23,0.64,1.59,2.08,2.8,2.77c-0.56,1.31-1.3,2.08-2.96,1.85c0.2-0.85,0.92-1.52,0.74-2.38
		c-0.16-0.77-0.35-1.52-0.53-2.29L197.97,47.71z"/>
	<path class="st0" d="M195.13,66.89c-1.01-0.03-1.32,1.07-2.17,1.34c-0.87-0.41-0.2-1.1-0.32-1.69c0.61-0.36,1.22-0.72,1.75-1.03
		c0.53,0.07,0.84,0.3,1.09,0.62c-0.15,0.28-0.29,0.56-0.43,0.84L195.13,66.89z"/>
	<path class="st0" d="M198.76,64.62c-1.16,0.62-1.45-0.04-1.8-0.67c-0.4-0.7-0.53-1.3,0.48-1.76
		C198.15,62.79,198.3,63.7,198.76,64.62z"/>
	<path class="st0" d="M213.91,65.01c-0.1,0.2-0.21,0.4-0.32,0.61c-1.84-1.14-2.12-1.71-1.94-3.91c0.52-0.08,0.62,0.28,0.73,0.67
		c0.31,1.03,0.4,2.19,1.59,2.71L213.91,65.01z"/>
	<path class="st0" d="M220.93,63.22c-0.29-0.06-0.58-0.12-0.86-0.19c0.18-0.72-0.37-1.56,0.43-2.27
		C221.46,61.46,221.2,62.34,220.93,63.22z"/>
	<path class="st0" d="M198.45,77.61c-0.22,0.95-0.96,0.76-1.25,1.14c-0.53-0.25-0.4-0.72-0.64-1.04
		C197.16,77.46,197.76,77.45,198.45,77.61z"/>
	<path class="st0" d="M194.15,78.9c-0.37,0.78-0.42,1.4-0.93,1.77c-0.45,0.03-0.72-0.36-0.61-0.54
		C192.9,79.69,193.17,79.17,194.15,78.9z"/>
	<path class="st0" d="M197.11,51.22c-0.86,1.03-1.49,0.64-2.34,0.02C195.59,50.92,196.23,51.2,197.11,51.22z"/>
	<path class="st0" d="M204.66,95.5c-0.55,0.56-1.09,0.71-1.76,0.55c0.19-0.64,0.61-0.96,1.07-1.25
		C204.29,94.9,204.53,95.06,204.66,95.5z"/>
</g>
</svg>
