<?xml version="1.0" encoding="utf-8"?>
<!-- Generator: Adobe Illustrator 24.1.2, SVG Export Plug-In . SVG Version: 6.00 Build 0)  -->
<svg version="1.1" id="Layer_1" xmlns="http://www.w3.org/2000/svg" xmlns:xlink="http://www.w3.org/1999/xlink" x="0px" y="0px"
	 viewBox="0 0 312.55 504.33" style="enable-background:new 0 0 312.55 504.33;" xml:space="preserve">
<style type="text/css">
	.st0{fill:#1A1A1A;}
</style>
<g>
	<path d="M244.09,501.69c-1.86,0.45-3.66,0.79-5.44,1.16c-2.14,0.44-3.93-0.06-5.75-0.95c-0.42-0.21-0.83-0.46-1.19-0.67
		c-1.6,0.47-0.8,2.47-2.13,3.04c-0.14,0.01-0.34,0.09-0.44,0.03c-1.58-1.11-3.33-1.31-5.22-1.25c-3.93,0.12-6.81-1.94-9.21-4.8
		c-0.7-0.83-0.72-1.93-0.95-2.93c-0.18-0.76-0.21-1.56-0.31-2.39c-2.35-0.53-4.32-1.59-5.9-3.27c0.19-0.43,0.31-0.72,0.5-1.15
		c-2.34-0.87-3.32-2.95-4.32-4.73c0-0.78,0.68-0.67,0.78-1.3c-0.32-1.56-1.2-3.09-1.8-4.73c-0.15-0.41-0.5-0.6-0.79-0.87
		c-1.08-1.06-2.14-2.15-3.24-3.2c-0.88-0.84-1.54-1.82-1.94-3.04c-0.96-0.29-2-0.43-2.91-0.96c-0.63-0.36-1.27-0.66-1.36-1.52
		c-0.1-0.96-1.18-1.27-1.53-2.27c1.21-0.76,2.74-1.06,3.84-2.32c-0.42-1.15-1.14-2.33-1.24-3.67c-0.1-1.35-0.11-2.71-0.13-4.07
		c-0.01-0.63-0.08-1.29,0.58-1.71c0.46-0.29,0.16-0.7,0.11-1.07c-0.08-0.71-0.21-1.42,0.5-1.96c0.44-0.33,0.35-0.84,0.31-1.33
		c-0.11-1.28-0.19-2.56,0.12-3.82c0.11-0.43,0-0.76-0.24-1.12c-0.39-0.6-0.79-1.2-0.8-1.92c0.26-0.68,0.9-0.09,1.28-0.49
		c0.45-0.71-0.16-1.52,0.11-2.39c0.15-0.3,0.46-0.17,0.75-0.06c0.22,0.08,0.42,0.22,0.77-0.04c0.76-1.91,1.16-3.88,0.43-6.11
		c-1.22-3.71-2.25-7.49-3.74-11.11c-0.78-1.91-1.91-3.29-3.98-4.15c-3.03-1.26-5.61-3.37-7.89-5.75c-1.49-1.56-2.98-3.09-4.88-4.14
		c0.04-1.37,1.39-1.71,1.94-2.69c-3.7-1.56-6.17-4.19-7.69-8.02c1.55,0,2.87,0,4.35,0c-0.63-2.02-2.18-3.44-2.59-5.43
		c-0.39-1.9-1.31-3.68-1.43-5.8c1.52,0.06,2.85,0.49,4.16,0.06c0.21-0.43-0.07-0.75-0.23-1.11c-1.11-2.43-1.77-4.96-1.64-7.65
		c0.02-0.47-0.03-0.97-0.15-1.42c-0.15-0.57-0.25-1.1,0.25-1.54c0.42-0.38,0.39-0.83,0.25-1.31c-0.22-0.78-0.42-1.53,0.53-2.08
		c0.36-0.21,0.15-0.74,0.1-1.13c-0.21-1.61-0.04-3.17,0.45-4.71c0.46-1.43,0.8-2.88,0.73-4.24c1.11-0.55,1.7,0.54,2.53,0.22
		c0.53-0.95,0.07-1.67-0.59-2.32c-0.48-0.47-0.86-0.94-0.56-1.68c0.34-0.84-1.05-1.76,0.1-2.58c-0.23-0.84-0.44-1.69-0.71-2.52
		c-0.3-0.91-0.65-1.8-1-2.69c-0.27-0.68-0.57-1.33-1.46-1.4c-0.32-0.02-0.78-0.2-0.75-0.48c0.19-1.71-1.65-1.49-2.24-2.4
		c-0.16-0.59,0.65-1.27-0.22-1.73c-0.85-2.39-2.56-4.14-4.21-5.97c-0.68-0.76-1.15-1.73-1.64-2.64c-0.73-1.34-1.53-2.62-2.6-3.64
		c-0.06-0.86,0.9-0.91,1.06-1.54c-2.98-3.23-5.53-6.75-7.42-10.8c0.33-0.12,0.54-0.2,0.93-0.34c-1.67-1.71-2.19-3.92-2.84-5.94
		c0.27-0.61,0.86-0.29,1.13-0.74c-1.53-3.44-3.08-6.91-4.71-10.59c-0.89,1.4-0.86,2.8-1.18,4.07c0.05,0.12,0.08,0.25,0.12,0.26
		c0.23,0.03,0.47,0.03,0.74,0.04c0.56,0.51,0.38,1.21,0.31,1.79c-0.43,3.4-0.78,6.83-2.44,9.93c-0.15,0.27-0.35,0.61-0.3,0.88
		c0.55,2.79-0.8,4.93-2.3,7.01c-0.1,0.49,0.35,0.69,0.54,1.09c-0.39,0.84-0.88,1.66-1.55,2.34c-0.95,0.95-1.99,1.81-1.93,3.34
		c0.01,0.21-0.15,0.48-0.31,0.63c-1.62,1.53-1.65,3.56-1.71,5.55c-0.05,1.84,0.42,3.64,0.74,5.44c0.12,0.64,0.44,1.22,1.32,1.19
		c0.24-0.33,0.51-0.69,0.86-1.17c3.3,2.39,4.27,6,5.25,9.74c1.36-0.76,2.15-1.98,3.74-2.38c-0.75,3.14,0.27,5.91,0.95,8.76
		c0.72,3.02,1.06,6.12,1.21,9.24c0.1,2.07-0.11,4.12-0.05,6.18c0.06,2.2-0.8,4.2-1.48,6.36c1.46,0.5,2.35-0.84,3.58-1.06
		c0.49,0.66,0.51,1.51,0.26,2.04c-0.86,1.79-0.44,3.72-0.81,5.57c-0.39,1.9-1.18,3.43-2.53,4.75c-0.4,0.38-0.72,0.84-1.11,1.29
		c1.1,1.9,0.03,3.46-0.78,5.23c0.2,0.14,0.46,0.32,0.74,0.51c-0.05,0.26-0.04,0.51-0.15,0.71c-1.85,3.54-3.61,7.13-6.15,10.25
		c-0.67,0.82-1.15,1.73-1.48,2.72c-0.74,2.27-1.42,4.55-2.17,6.96c0.84,0.29,1.38-0.71,2.15-0.22c-0.03,1.24-0.77,2.34-0.95,3.58
		c0.29,0.5,0.73-0.07,0.89,0.06c0.59,0.31,0.34,0.82,0.63,1.1c0.55,0.09,0.74-0.58,1.35-0.6c0.08-0.01,0.18,0.09,0.23,0.28
		c0.3,1.4,0.65,2.79,0.9,4.2c0.11,0.62,0.54,0.94,0.97,1.46c-0.58,1.17-0.44,2.52-0.82,3.93c1.07,0.15,1.57-1.04,2.61-0.7
		c0.23,0.86-0.82,1.43-0.67,2.33c0.46,0.35,0.63-0.18,0.9-0.34c0.34-0.2,0.66-0.46,1-0.66c0.33-0.2,0.63-0.52,1.11-0.39
		c0.46,0.23,0.35,0.66,0.21,1.01c-0.64,1.54-0.56,3.15-0.45,4.74c0.13,1.92,0.16,3.82-0.05,5.85c0.81,0.16,1.17-0.83,1.98-0.63
		c0.33,2.08-1.24,3.29-2.31,4.82c0.27,0.7,1.26,0.29,1.56,1.22c-0.46,0.45-1.11,1.01-1.46,1.77c-0.36,0.8-0.63,1.64-1.01,2.43
		c-1.37,2.84-3.12,5.47-5.63,7.37c-2.66,2.02-3.63,4.76-4.14,7.81c-0.29,1.73-0.66,3.44-1.19,5.12c-0.32,1-0.72,1.94-1.29,2.82
		c-0.26,0.4-0.67,0.82-0.68,1.24c-0.04,1.54-1.08,2.41-1.96,3.44c-0.68,0.79-1.72,1.22-2.01,2.48c-0.18,0.77-1.34,1.03-2.22,1.19
		c-0.46,0.08-0.94,0.07-1.47,0.11c-0.84,1.98-2.14,3.57-3.61,5.06c-1.48,1.51-3.23,2.32-5.27,2.52c-1.36,0.14-2.7,0.24-3.67,1.63
		c-1.04-1.04-2.19-1.66-3.37-2.27c-1.09-0.57-1.9-1.67-2.96-2.66c-1.34,0.74-2.42,2.27-4.19,2.66c-1.75,0.38-3.48,0.13-4.96-0.19
		c-1.25,0.55-1.2,1.96-2.38,2.41c-0.87-0.41-1.39-1.24-1.74-2.1c-0.54-1.33-1.4-2.29-2.8-3.1c-2.82,1.12-5.42-0.3-7.99-1.33
		c-0.88,0.19-1.29,1.12-2.36,1.02c-0.55-1.02-0.49-2.19-0.5-3.36c-0.01-1.08,0.87-2.12,0.19-3.22c-0.74-0.49-1.14,0.52-1.86,0.31
		c-0.91-0.66-0.65-1.7-0.5-2.58c0.24-1.5,0.69-2.99,1.56-4.24c0.78-1.13,1.34-2.34,1.88-3.58c1.39-3.16,3.58-5.41,7.12-6.15
		c1.54-0.32,2.71-1.4,3.66-2.59c1.19-1.5,2.29-3.07,3.35-4.67c4.99-7.53,9.63-15.28,14.8-22.69c0.84-1.2,1.91-2.31,1.46-4.03
		c-0.1-0.39,0.22-0.9,0.35-1.36c-0.4-0.11-0.77-0.22-1.18-0.33c-0.16-1.49,0.99-2.11,1.81-3.01c-0.48-0.84-1.41-1.56-0.97-2.73
		c3.34-0.13,5.31-2.01,5.42-5.32c0.08-2.47,0.04-4.94-0.34-7.41c-0.32-2.12-0.27-4.29-0.57-6.43c-0.46-3.26-1.18-6.44-2.24-9.54
		c-1.34-3.93-2.52-7.92-3.31-11.99c-0.47-2.44-1.04-4.77-2.11-7.03c-0.75-1.58-0.95-3.36-1.02-5.13c-0.19-4.72,0.34-9.42,0.29-14.13
		c-0.01-0.76,0.63-1.05,0.72-1.62c0.09-0.54-0.1-1.12-0.04-1.67c0.18-1.54-0.28-2.66-1.85-3.18c-0.29-0.1-0.52-0.36-0.72-0.5
		c-0.17-0.74,0.71-0.91,0.67-1.63c-1.09-0.53-2.2-1.16-2.49-2.56c1.35-3.15,1.16-6.5,1.38-9.67c-1.07-0.68-2.15,0.29-3.06-0.73
		c0.49-0.71,1.01-1.46,1.61-2.31c-0.76-0.37-1.45-0.71-2.14-1.05c-0.64-0.32-1.32-0.6-1.43-1.43c0.58-1.07,1.79-0.43,2.75-1.06
		c-3.55-6.03-6.83-12.21-9.42-18.74c-2.63-6.62-4.65-13.42-6.27-20.35c-1.6-6.84-2.85-13.74-3.64-20.72
		c-0.79-7-0.44-14.01-0.23-21.06c-0.41-0.57-1.01,0.09-1.61-0.19c-0.13-2.24,0.76-4.5,0.28-6.82c-1.07-0.75-2.28-0.31-3.32-0.23
		c-0.51-0.58-0.09-0.85,0.14-1.12c1.31-1.56,2.05-3.42,2.8-5.27c0.86-2.15,1.8-4.26,3.3-6.04c-0.46-0.55-0.91-0.34-1.31-0.1
		c-2.73,1.66-5.44,3.36-8.17,5.01c-1.35,0.81-1.65,2.18-1.66,3.5c-0.01,1.18,0.44,2.39,1.85,2.79c0.11,0.03,0.18,0.22,0.28,0.34
		c-0.21,0.81-0.94,1.01-1.6,1.23c0,1.08,1.12,1.62,1.09,2.6c-0.26,0.73-0.88-0.09-1.25,0.4c0.36,1,1.43,1.34,2.1,2.01
		c0.06,0.74-0.41,1.32-0.08,2.12c0.55,1.38-0.29,2.78-0.48,4.16c-0.69,4.85,0.5,9.18,3.11,13.2c0.8,1.23,1.96,2.08,3.09,2.88
		c-0.04,0.57-0.48,0.69-0.79,0.92c-0.13,0.52,0.23,0.9,0.39,1.33c0.38,1.03,0.19,1.85-0.36,2.88c-1.97,3.73-2.18,7.66-0.29,11.49
		c0.51,1.04,0.59,1.96,0.35,2.96c-0.57,2.34-1.83,4.17-4.14,5.29c-0.23-1.01-0.43-1.85-0.64-2.78c-0.73-0.21-1.49-0.39-2.23-0.65
		c-4.13-1.45-5.51-4.84-5.97-8.75c-0.23-1.98-0.01-3.97,0.53-5.94c0.63-2.27,0.27-2.89-1.88-3.94c-1.06-0.52-2.13-1.03-3.2-1.54
		c-0.6,0.5-0.66,1.26-0.88,1.93c-0.59,1.85-1.43,3.55-2.67,5.06c-0.25,0.31-0.44,0.67-0.72,0.96c-2.08,2.15-2.68,4.74-2.65,7.68
		c0.03,2.4,0.46,4.77,0.37,7.16c-0.03,0.72,0.37,1.19,0.83,1.65c3.63,3.56,5.37,8.04,6.28,12.92c0.26,1.37,0.09,2.74-0.55,3.96
		c-0.37,0.71-0.48,1.49-0.77,2.14c-1.91,1.06-3.64,0.55-5.27-0.41c-1.29-0.76-2.73-1.39-3.36-2.93c-0.09-0.21-0.28-0.47-0.47-0.52
		c-1.56-0.42-2.47-1.73-3.65-2.66c-2.74-2.15-6.02-3.27-9.01-4.96c-0.86-0.48-1.52,0.51-2.16,0.11c-0.67-0.45-0.09-0.98-0.3-1.4
		c-0.39-0.63-1.27-0.1-1.68-0.72c-0.06-0.13-0.21-0.32-0.16-0.42c0.72-1.59,0.73-3.28,0.57-4.94c-0.41-4.13-1.09-8.22-1.98-12.27
		c-0.16-0.73-0.23-1.52-1.28-1.69c-0.4-0.06-0.13-0.72-0.26-1.14c-0.46-0.54-1.73-0.09-1.78-0.82c-0.08-1.19-0.94-1.41-1.64-1.83
		c0.03-0.24,0-0.46,0.08-0.52c1.58-1.05,2.5-2.6,3.48-4.18c2.59-4.22,3.71-8.99,5.24-13.59c1.47-4.39,2.79-8.82,4.17-13.24
		c0.09-0.29,0.35-0.55,0.05-0.98c-1.11,0.06-2.09,0.92-3.34,0.83c-0.42-0.38-0.16-0.8,0.01-1.26c0.58-1.58,0.98-3.2,1.14-4.88
		c0.16-1.69,0.37-3.35,2.18-4.5c-1.47-0.96-2.14-2.23-2.95-3.4c-0.18-0.26-0.52-0.65-0.44-0.8c0.89-1.68-0.74-2.72-0.98-4.1
		c-0.04-0.23-0.07-0.46-0.11-0.73c0.25-0.07,0.5-0.22,0.7-0.17c2.72,0.75,5.55,0.43,8.31,0.84c2.25,0.33,4.23-0.62,5.86-2.18
		c2.66-2.55,4.9-5.46,7.2-8.33c2.73-3.4,4.54-7.33,6.57-11.13c1.58-2.96,3-6,4.1-9.18c0.87-2.5,2.3-4.72,3.59-7.18
		c-1.17-0.14-2.05,0.71-3.32,0.47c1.02-2.72,2.35-5.09,3.99-7.35c-0.61-0.9-1.8-0.83-2.39-1.67c0.56-1.12,1.8-0.7,2.78-1.18
		c-1.34-2.04-2.04-4.19-2.35-6.66c4.04,0.36,7.84,0,11.5-2.1c-0.94-1.47-2.2-2.8-1.93-4.63c0.29-0.09,0.46-0.21,0.58-0.17
		c3.22,1.19,6.12,0.2,8.95-1.27c0.71-0.37,1.38-0.8,2.06-1.23c4-2.57,4.14-2.78,5.15-7.47c0.1-0.47,0.22-0.93,0.35-1.39
		c1.68-5.66,2.86-11.44,4.14-17.21c-0.22-0.28-0.46-0.59-0.68-0.88c0.05-0.18,0.05-0.36,0.14-0.46c1-1.04,1.39-2.16,1.07-3.68
		c-0.54-2.54-0.38-2.97,0.73-6.51c-0.76-0.73-2.05-0.37-2.73-1.3c0.19-0.83,1.04-0.94,1.7-1.73c-0.11,0.14-0.16,0.03-0.33-0.09
		c-2.08-1.39-2.65-2.2-3.17-4.59c1.96-0.05,3.74-0.59,5.3-1.82c2.06-1.63,4.02-4.1,5.24-6.74c-1.72-1-1.9-1.19-3.07-3.43
		c1.07-0.06,2.06-0.08,3.05-0.19c1.04-0.12,2-0.52,2.96-1.19c-0.79-1.18-1.86-1.93-3.12-2.54c-1.72,0.61-3.1,1.66-4.21,3.07
		c-1.38,1.74-2.3,3.55-0.53,5.53c-0.38,0.68-0.88,0.46-1.3,0.32c-1.6-0.56-3-1.49-4.34-2.51c-0.9-0.68-1.17-1.52-0.87-2.73
		c0.4-1.6,1.05-3,2.15-4.21c0.36-0.4,0.72-0.79,1.15-1.26c-3.48-0.73-7.05,0.83-10.53,4.49c-0.6-0.28-0.36-0.83-0.3-1.23
		c0.69-4.31,3.04-7.47,6.81-9.61c0.89-0.5,1.9-0.8,2.67-1.48c-0.16-0.7-0.77-0.51-1.14-0.71c-0.7-0.37-1.48-0.61-2.15-1.04
		c-1.43-0.92-1.79-2.16-1.14-3.72c0.53-1.27,1.37-2.34,2.18-3.43c1.06-1.42,2.36-2.61,3.65-3.8c0.48-0.44,1.02-1.06,1.99-0.69
		c-1.23,2.05-3.17,3.88-1.43,6.75c1.89,1.14,4.13,1.18,6.4,0.27c1.71-0.68,3.35-1.55,4.73-2.78c1.6-1.43,3.34-2.71,4.88-4.47
		c-1.46-1.57-2.29-3.56-4.28-4.69c-1.62-0.93-2.27-2.54-2.7-5.22c1.24,0,1.91,1.45,3.19,1.29c-1.03-2.95-3.31-4.67-5.68-6.2
		c-3.43-2.22-3.02-4.17-1.84-6.68c0.24-0.5,0.45-1.02,0.66-1.53c0.02-0.05-0.04-0.14-0.07-0.24c-0.52-0.33-0.89,0.08-1.19,0.36
		c-2.07,1.88-4.07,3.83-5.46,6.32c-0.78,1.4-1.62,2.75-2.42,4.14c-0.76,1.33-1.7,2.51-2.86,3.52c-0.22,0.19-0.44,0.47-0.78,0.26
		c-0.28-0.23-0.11-0.47,0.01-0.65c1.32-1.93,1.58-4.11,1.68-6.38c0.12-2.57-0.27-5.1-0.36-7.65c-0.14-4.02,1.36-7.32,4.09-10.13
		c1.67-1.72,3.31-3.48,5.24-4.92c0.31-0.23,0.69-0.42,0.69-1.08c-0.82-0.41-1.74-0.85-2.63-1.32c-2.07-1.06-4.02-2.28-5.75-3.86
		c-1.88-1.71-2.84-3.9-3.09-6.32c-0.31-2.94-0.25-5.92,0.14-8.85c0.37-2.73,1.94-4.82,3.85-6.85c0.33,0.9-0.35,1.28-0.63,1.79
		c-1.37,2.49-1.04,5.17,0.94,7.24c1.06,1.12,2.33,1.94,3.7,2.62c3.25,1.62,6.67,2.59,10.13,2.85c0.61-0.36,0.5-0.79,0.46-1.17
		c-1.04-9.77,3.12-16.97,11.02-22.31c1.59-1.08,3.19-1.3,5.19-0.72c5.41,1.58,10.96,2.06,16.54,0.72c0.31-0.07,0.63-0.1,0.95-0.12
		c0.15-0.01,0.3,0.05,0.46,0.08c0.21,0.66-0.38,0.79-0.74,0.98c-3.25,1.76-6.62,3.08-10.38,3.38c-1.69,0.13-3.32,0.08-4.96-0.17
		c-1.21-0.18-2.2,0.14-3.03,1.04c-0.6,0.64-1.28,1.22-1.86,1.88c-1.58,1.8-1.64,3.99-0.23,5.93c0.58,0.79,1.29,1.43,2.17,1.85
		c1.74,0.84,3.58,1.33,5.52,1.43c0.92,0.05,1.72-0.23,2.52-0.63c3.35-1.7,6.56-3.64,9.7-5.71c2.27-1.49,4.59-2.88,7.13-3.89
		c1.36-0.54,2.61-0.57,3.93,0.02c2.28,1.01,4.42,2.23,6.25,3.95c0.34,0.32,0.61,0.74,1.1,0.86c0.47-0.1,0.59-0.5,0.77-0.85
		c1.81-3.65,3.68-7.27,5.89-10.7c0.64-0.99,0.75-2.08,0.78-3.21c0.02-0.69-0.19-1.44,0.47-2.12c1.54,0.51,1.95,2,2.75,3.09
		c0.83,0.38,1.43-0.81,2.3-0.24c0.56,0.98-0.14,1.94-0.27,2.74c0.19,0.78,0.68,1.1,1.03,1.53c2.32,2.76,3.75,5.91,4.36,9.45
		c0.18,1.06,0.32,2.13,1.33,2.86c0.34,0.25,0.46,0.82,0.78,1.44c2.2-1.32,4.2-2.77,5.26-5.08c1.19-2.59,0.39-5.01-1.3-7.13
		c-0.69-0.87-1.57-1.59-2.35-2.39c-0.32-0.32-0.66-0.64-0.66-1.1c0.29-0.24,0.54-0.25,0.74-0.11c2.76,1.94,5.87,3.25,8.83,4.82
		c1.81,0.96,3.03,2.29,3.82,4.12c1.39,3.23,2.57,6.54,3.26,10c0.54,2.7,0.09,5.07-2.17,6.88c-0.18,0.15-0.31,0.34-0.15,0.71
		c1.21,0.01,2.25-0.51,3.2-1.23c0.96-0.72,1.89-1.48,2.62-2.45c0.63-0.83,1.34-1.58,2.21-2.16c0.47,0.54,0.05,0.95-0.13,1.34
		c-1.29,2.75-2.79,5.38-4.47,7.93c-2,3.04-4.8,4.57-8.31,5.01c-0.39,0.05-0.81-0.07-1.28,0.37c0.37,4.99,2.34,9.34,6.39,12.47
		c2.27,1.76,5.14,2.14,8,1.77c0.75-0.1,1.61-0.06,2.43-0.69c0.04-0.99,0.2-2.1,0.1-3.18c-0.09-0.97-1.16-1.75-0.68-2.84
		c0.61-0.52,1.27-0.37,1.89-0.35c0.73,0.02,1.41,0.01,2.07-0.4c0.79-0.49,1.63-0.45,2.54-0.23c4.53,1.09,8.53,3.06,11.73,6.55
		c1.56,1.7,3.66,2.51,5.91,2.8c1.56,0.2,2.97-1.73,2.38-3.25c-0.27-0.72-0.61-1.42-1.36-1.9c-1.99-1.26-2.81-3.22-2.89-5.49
		c-0.05-1.44-0.6-2.8-0.25-4.66c-1.63,1.19-3.01,1.87-4.67,1.85c-0.19,0.57-0.35,1.09-0.5,1.57c-0.22,0.04-0.4,0.14-0.51,0.09
		c-1.55-0.63-2.56-1.86-3.47-3.19c-0.22-0.32-0.48-0.73-0.47-1.09c0.04-1.41-0.43-2.63-1.02-3.87c-0.39-0.82-0.09-1.75,0.1-2.59
		c0.66-2.98,1.66-5.84,3.31-8.43c0.47-0.73,1-1.41,0.35-2.36c-0.16-0.23,0.14-0.75,0.17-1.14c0.09-1.33,0.08-1.33,1.54-1.79
		c-0.04-0.31-0.09-0.62-0.14-0.98c0.24-0.09,0.44-0.24,0.64-0.25c1.13-0.05,2.14,0.66,3.36,0.54c0.78-0.42,0.87-1.7,1.98-1.81
		c0.12,0.09,0.34,0.18,0.34,0.27c0.02,1.46,0.72,2.38,2.09,2.87c1.65,0.59,2.8,1.81,3.77,3.21c1.09,1.57,2.15,3.17,3.27,4.83
		c1.9,0.33,3.61,1.39,5.63,1.64c1.11,0.14,2.14,0.32,3.26,0.07c1.47-0.33,2.97-0.59,4.72-0.49c-0.24-1.48-0.06-2.82,0.06-4.09
		c0.64-0.41,1,0.08,1.41,0.21c1.29,0.43,2.57,0.83,3.95,0.9c0.95,0.05,1.9,0.25,2.81,0.53c2.03,0.61,3.73,1.64,4.94,3.53
		c1.84,2.86,3.32,5.79,3.63,9.25c0.08,0.93,0.5,1.84,0.79,2.75c1.18,3.73,2.37,7.46,3.54,11.19c0.26,0.84,0.43,1.7,0.71,2.53
		c0.2,0.59,0.24,1.23,0.66,1.78c1.06,1.39,1.95,2.9,2.34,4.83c1.95-1.05,2.97-2.78,4.24-4.22c0.92,0.48,0.94,1.35,1.14,2.08
		c0.19,0.69,0.33,1.41,0.35,2.12c0.06,2.72,0.31,5.4,1.03,8.04c0.2,0.74,0.12,1.58-0.13,2.37c-0.16,0.51-0.42,1.05-0.05,1.73
		c1.12,0.06,2.19-0.84,3.55-0.4c-0.92,1.4-1.68,2.86-2.33,4.37c-0.77,1.78-1.28,3.63-1.27,5.55c0,1.5,0.28,3.01,0.52,4.51
		c0.83,5.12,1.49,10.26,1.36,15.47c-0.02,0.88,0.1,1.74,0.2,2.61c0.2,1.74,0.18,3.5-0.04,5.25c-0.45,3.56-0.09,7.01,1.68,10.21
		c0.99,1.78,2.31,3.08,4.58,2.78c0.14-0.02,0.3,0.05,0.45,0.1c0.07,0.02,0.13,0.09,0.19,0.14c0.34,0.75-0.34,1.32-0.42,2.08
		c1.49,0.59,2.6-0.62,4-0.7c0.37,1.57-1.35,2.15-1.76,3.46c2.33,0.51,4.5-0.08,6.88-0.2c-0.99,1.84-1.87,3.54-2.81,5.19
		c-1.34,2.37-3.16,4.21-5.88,4.96c-0.2,0.06-0.37,0.24-0.59,0.39c1.5,0.49,3.24,0.55,5.82,0.17c-2.33,2.9-5.07,4.4-8.89,4.24
		c1.31,1.96,2.22,3.87,2.3,6.3c-1.36-0.3-1.36-1.87-2.63-2.23c-0.4,1.17-0.11,2.48-0.61,3.61c-0.48,1.1-0.87,2.24-1.46,3.28
		c-0.63,1.1-1.39,2.15-2.21,3.12c-0.76,0.89-1.62,1.7-2.34,2.77c-1.34-1.31-0.36-3.14-1.51-4.48c-1.99,2.34-3.95,4.62-6.75,5.95
		c-2.45,1.17-4.88,2.38-7.51,3.12c-0.38,0.11-0.78,0.18-1.28-0.16c2.11-2.53,3.04-5.49,3.16-9.2c-1.17,1.19-2.02,2.18-3.01,3
		c-0.97,0.8-1.86,1.69-2.98,2.92c-0.25-2.29-0.2-4.28-1.16-6.03c-0.97-1.76-2.14-3.37-3.57-4.82c-0.96,0.58-0.75,1.94-1.89,2.62
		c-0.9-1.89-1.86-3.77-3.31-5.29c-1.41-1.48-2.79-3.02-4.51-4.36c-0.34,1.11-0.24,2.2-0.86,3c-0.4,0-0.54-0.23-0.57-0.45
		c-0.44-2.77-2.07-4.79-4.12-6.55c-5.04-4.34-10.81-7.32-17.13-9.3c-3.96-1.25-7.76-2.94-11.6-4.51c-1.24-0.51-2.5-0.97-3.91-1.51
		c-0.62,1.8-0.54,3.48-0.29,5.1c0.27,1.74,1.64,2.83,3.56,3.01c1.52,0.15,3.03-0.02,4.53-0.3c0.6-0.11,1.21-0.19,1.84-0.29
		c0,1.03-1.2,1.21-1.16,2.26c1.42,0.5,2.86-0.74,4.37-0.05c-4.79,5.74-10.7,8.98-18.24,8.46c-0.5,0.74,0.02,1.18,0.17,1.67
		c0.56,1.76,0.94,3.54,1.09,5.38c0.32,3.94-1.06,7.3-3.85,9.94c-2.74,2.59-5.97,4.54-9.61,5.71c-0.3,0.1-0.61,0.17-0.93,0.2
		c-0.12,0.01-0.26-0.12-0.56-0.27c2.51-1.82,3.96-3.98,2.24-7.09c-3.97,2.88-6.18,9.33-4.44,12.85c1.8-1.42,1.97-2.24,0.93-4.67
		c0.55-0.4,0.9,0.08,1.21,0.35c0.48,0.41,0.93,0.89,1.29,1.41c2.04,2.98,1.55,5.88-1.46,7.86c-3.33,2.2-6.95,2.65-10.76,1.38
		c-0.38-0.13-0.75-0.29-1.11-0.45c-0.29-0.13-0.58-0.27-0.91-0.16c-1.86,6.18-3.42,8.03-7.06,8.33c-0.19-0.22-0.15-0.47,0.02-0.62
		c1.52-1.4,1.23-3,0.47-4.6c-0.61-1.3-1.45-2.47-2.4-3.59c-0.68,0.04-1.1,0.32-0.92,1.04c0.1,0.42,0.08,0.76-0.13,1.13
		c-1.76,3.13-2.27,6.61-2.78,10.08c-0.28,1.89-0.59,3.78-0.49,5.71c0.29,5.68,2.59,10.28,7.28,13.61c0.84,0.6,1.72,1.15,2.65,1.77
		c-0.37,0.99-1.5,0.87-2.16,1.62c0.85,0.73,1.94,0.87,2.98,1.24c-0.43,1.24-1.92,1.41-2.58,2.65c1.05,1.09,2.48,1.86,3.38,3.2
		c5.32-0.42,10-2.08,13.78-5.93c2.24-2.28,4.44-4.6,6.34-7.18c2.8-3.8,5.53-7.64,7.56-11.92c2.75-5.8,4.11-11.88,3.87-18.32
		c-0.07-1.98-0.22-3.98,0.19-6.12c1.56,0.51,2.1,1.98,3.15,2.87c1.16,0.97,2.22,2.08,3.09,3.34c0.81,1.18,1.6,2.37,2.41,3.57
		c0.6-0.18,0.53-0.94,1.16-1.27c1.27,0.72,1.14,2.26,1.84,3.45c1.71-1.49,2.58-3.87,4.87-4.75c0.33,0.73,0.26,1.37,0.16,1.99
		c-0.33,2.15,0.27,4.06,1.18,6c2.83,6,5.88,11.88,8.98,17.74c2.29,4.34,3.61,9.04,4.59,13.82c0.4,1.95,0.2,3.95,0.05,6.27
		c3.44-2.58,4.13-6.36,5.58-9.9c0.41,1.11-0.1,1.93-0.1,2.77c-0.01,3.51-0.16,7.02,0.12,10.54c0.32,4.06,0.34,8.14,0.06,12.21
		c-0.15,2.26-1.02,4.34-2.4,6.17c-0.32,0.43-0.62,0.88-0.93,1.32c0.57,0.45,0.91-0.53,1.52,0.15c-0.68,2.72-2.64,4.87-4.69,7.13
		c2.85-0.51,2.85-0.51,7.81-3.76c0.46,0.52-0.04,0.91-0.22,1.28c-0.95,1.94-2.04,3.81-3.64,5.31c-0.78,0.73-1.28,1.6-1.64,2.6
		c-0.9,2.5-2.3,4.74-3.87,6.87c-0.67,0.9-1.39,1.84-2.37,2.35c-2.69,1.4-4.97,3.46-7.66,4.85c-3.57,1.85-7.34,3.1-11.32,3.75
		c-0.43,0.07-0.94-0.06-1.39,0.5c1.57,1.19,3.37,2.05,4.78,3.45c1.43,1.42,2.59,3,3.55,4.69c-0.24,0.37-0.46,0.24-0.66,0.14
		c-4.73-2.39-9.8-3.31-15.03-3.53c-4.25-0.18-8.41-0.8-12.35-2.53c-0.29-0.13-0.6-0.19-1.01-0.32c-0.3,1.61,0.3,3.05,0.47,4.51
		c0.72,6.17,1.77,12.3,2.37,18.49c0.26,2.63,0.18,5.28,0.49,7.87c0.5,4.13,0.3,8.28,0.65,12.42c0.22,2.59-0.24,5.24-0.47,7.86
		c-0.1,1.19-0.37,2.36-0.56,3.54c-0.04,0.23-0.17,0.57-0.06,0.68c1.16,1.19,0.27,2.59,0.41,3.78c0.24,0.69,1.17,0.33,1.28,1.07
		c0.02,0.51-0.35,0.84-0.7,1.16c-0.5,0.44-0.89,0.79-0.48,1.59c0.33,0.65-0.67,0.75-0.89,1.25c0.66,1.82,1.14,3.66,1.37,5.58
		c0.18,1.5,0.48,2.99,1.25,4.34c0.15,0.26,0.35,0.71,0.24,0.88c-0.64,0.96,0.57,1.18,0.67,1.85c-0.04,0.71-0.8,0.94-1.14,1.72
		c0.08,0.62,0.83,1.38,0.22,2.27c-0.29,0.43-0.11,0.91,0.17,1.34c1.01,1.57,1.46,3.35,1.83,5.12c0.44,0.56,0.9-0.21,1.51,0.21
		c0.89,2.04,1.33,4.42,1.27,6.77c-0.09,3.48,0.99,6.78,1.15,10.2c0.06,1.19,0.32,2.37,0.37,3.56c0.23,5.9,0.66,11.78,1.48,17.62
		c0.93,6.63,1.71,13.28,2.99,19.86c0.32,1.64,0.55,3.3,0.79,4.96c0.24,1.66,0.68,3.23,1.37,4.79c1.14,2.57,3.11,3.97,5.73,4.62
		c0.76,0.19,1.54,0.32,2.41,0.5c0.23,1.86-1.72,1.9-2.41,2.95c0.7,1.16,2.09,1.81,2.3,3.22c-0.73,0.62-1.47-0.34-2.15,0.23
		c0.1,0.2,0.17,0.41,0.3,0.58c4.58,5.6,7.91,11.99,11.51,18.2c2.08,3.59,4.84,6.53,7.98,9.16c0.62,0.52,1.34,0.92,2.12,1.07
		c3.7,0.7,5.69,3.27,7.24,6.39c0.46,0.92,0.88,1.82,1.54,2.67c1.06,1.36,0.78,3.21,1.22,4.81c0.16,0.59,0.17,1.28-0.3,1.75
		c-0.73,0.46-1.2-0.42-1.92-0.24c-0.45,2.46,0.55,5.03-0.29,7.48c-1.28,0.17-1.97-0.86-2.95-1.1c-1.54,0.4-3.02,0.98-4.66,0.97
		c-1.54-0.01-2.69,0.96-3.1,2.44c-0.19,0.69-0.17,1.44-0.8,1.95c-0.42,0.03-0.77-0.15-1.08-0.41
		C244.69,502.19,244.39,501.94,244.09,501.69z M257.66,114.89c-0.33-1.54-0.35-2.97-0.19-4.38c0.34-3.16,0.81-6.32,1.2-9.48
		c0.17-1.37-0.03-2.66-0.75-3.92c-1.76-3.04-3.6-6.03-5.67-8.88c-1.01-1.39-2.3-2.39-3.85-3.19c-0.88,0.46-1.79,0.81-2.56,1.37
		c-0.97,0.69-1.82,1.55-2.72,2.34c-0.58-0.22-0.84-0.71-1.02-1.25c-0.51-1.62-0.74-3.26-0.35-4.95c0.12-0.53,0.41-1.06-0.07-1.64
		c-1.16-0.42-2.63-0.32-3.51-1.36c-0.03-1.05,1.07-1.23,1.22-2.01c-2.69-1.82-4.02-3.89-3.89-6.28c1.34,0.01,2.83,0.71,4.08-0.37
		c-0.1-0.91-0.71-1.59-1.31-2.2c-1.17-1.19-2.45-2.28-3.71-3.38c-1.28-1.11-2.72-2.02-4.32-2.54c-2.11-0.69-4.29-1.16-6.21-2.48
		c-2.12,3.15-3.7,6.73-8.27,6.7c0.47,0.96,1.26,1.2,2.03,1.29c3.01,0.32,6.02,0.72,9.05,0.17c0.78-0.14,1.59-0.09,2.39-0.08
		c0.75,0.01,1.5,0.07,2.31,0.11c-0.15,0.35-0.18,0.57-0.28,0.61c-2.49,0.96-4.7,2.36-6.63,4.21c-1.05,1-2.31,1.29-3.73,1.33
		c-2.34,0.06-4.61-0.26-6.86-0.88c-0.56-0.15-1.16-0.5-1.88-0.05c1.08,2.24,1.75,4.51,0.08,6.77c0.95,1.26,0.83,2.77,1.26,4.05
		c0.91,0.15,1.69,0.39,2.47,0.4c4.41,0.05,7.04,3.27,10.3,5.5c-0.65,0.63-1.54,0.02-2,0.74c1.57,1.28,2.31,1.45,4.4,1.02
		c0.75-0.16,1.48-0.57,2.29-0.1c-0.01,2.33-0.72,4.22-3.26,5.5c2.53,0.82,3.82,2.49,5.2,4.3c-1.08,0.27-2.05-0.17-3.07,0.37
		c1.11,1.05,1.73,2.5,3.23,2.84c1.96,0.43,3.77,1.3,5.69,1.85c6.17,1.79,11.88,4.66,17.53,7.65
		C256.64,114.76,256.97,114.98,257.66,114.89z M121.14,188.44c2.6-1.3,4.5-2.84,6.27-4.55c1.16-1.12,1.58-2.48,0.91-4.13
		c-0.57-1.39-0.95-2.86-1.36-4.32c-0.54-1.9-0.99-3.83-1.87-5.94c-2.06,3.24-4.01,6.25-4.26,10.01c0.37,0.21,0.84-0.07,1.22,0.48
		C121.55,182.59,121.3,185.33,121.14,188.44z"/>
	<path class="st0" d="M128.69,118.21c-0.72-1.58-1.44-3.17-2.15-4.75c-0.16-0.36-0.33-0.73-0.09-1.24c1.08,0.27,2.2,0.55,3.31,0.81
		c0.59,0.14,0.96,0.54,1.3,0.99c0.43,0.57,0.86,1.15,1.31,1.7c0.54,0.66,1.18,1.19,2.57,1.57c-2.19-2.12-3.76-4.06-5.1-6.41
		c1.43-0.8,2.83-0.04,4.39-0.23c-0.46-1.89-1.44-3.67-1.29-5.66c0.16-2,0.79-3.86,1.57-5.93c1.04,1.54,1.85,3,3.24,3.93
		c0.77,0.52,0.48,1.44,1.08,2.04c-0.52,0.21-0.88,0.36-1.38,0.56c0.81,1.32,1.91,1.79,3.36,1.56c0.14-0.64-0.57-0.4-0.66-0.78
		c0.3-0.33,0.97-0.09,1.17-0.73c-0.37-0.83-1.49-0.72-2.02-1.52c-0.35-1.16,0.22-2.2,0.76-3.51c1.9,2.98,4.65,4.18,7.91,4.32
		c0.13,1.77-1.44,2.46-2.26,3.84c2.55,0.69,4.9,0.66,7.3-0.48c0.08,1.96,0.64,3.55,2.42,4.55c0.28-3.02,2.57-4.45,4.59-6
		c1.32-1.01,2.87-1.7,4.25-2.49c0.99,0.06,0.97,1.35,1.91,1.35c0.21,1.27,1.12,1.85,2.19,2.25c-0.84-0.64-1.03-1.95-2.24-2.21
		c0.14-0.64-0.33-1.04-0.62-1.5c-0.78-1.23-1.22-2.6-1.54-4c-0.43-1.86-0.22-3.64,0.79-5.32c1.4-0.34,2.89-0.31,4.18-0.99
		c0.46-0.24,1.06-0.32,1.4-1.17c-3.9,1.72-7.52,1.94-10.81-1.36c1.01,0,1.9,0.01,2.78,0c0.93-0.01,1.85-0.03,3.2-0.05
		c-5.48-2.64-5.48-2.64-7.74-5.83c4.31,0.38,8.5,1.1,12.82-0.64c-1.56-0.44-2.82,0.59-4.27-0.09c1.77-1.23,3.52-2.32,4.82-4.01
		c1.83,0.47,3.52,1.1,5.11,2.06c1.33,0.8,2.49,1.66,2.56,3.55c1.9-1.83,1.86-4.01,1.84-6.22c1.58,0.19,2.99,1.2,4.59,0.24
		c-0.59-1.65-2.5-2.16-3.22-3.64c0.61-0.48,1.16-0.24,1.67-0.12c2.94,0.68,5.39-0.1,7.19-2.54c0.87-1.17,2.25-1.81,3-3.09
		c-0.12-0.74-0.97-0.14-1.27-0.64c0.53-0.66,1.32-0.9,1.98-1.37c0.22,0.09,0.49,0.12,0.64,0.26c2.67,2.51,4.48,5.59,5.81,8.97
		c0.32,0.82-0.02,1.38-0.97,1.76c-1.12-1.52-2.78-2.45-4.44-3.37c-0.51-0.28-0.68,0.16-0.91,0.56c-1.13-0.82-1.91-2.11-3.38-2.58
		c-0.45,0.59-0.27,1.24-0.3,1.83c-0.15,3.14-1.49,5.67-3.94,7.61c-1.06,0.84-2.08,1.77-3.24,2.46c-1.38,0.82-1.87,2.07-2.24,3.48
		c-1.57,5.98-1.57,5.99-6.65,9.57c-1.11,0.78-2.12,1.62-2.99,2.8c0.82,0.17,0.99-0.86,1.81-0.61c-0.86,2.04-1.89,4.06-1.27,6.48
		c0.76-0.64,0.3-1.45,0.48-2.11c0.21-0.77,0.4-1.55,0.68-2.29c0.26-0.67,0.59-1.32,0.96-1.93c0.4-0.65,0.72-1.37,1.51-1.91
		c-0.35,1.58-0.67,3.04-1.03,4.64c1.8,0.32,3.23-0.57,4.75-0.78c1.56-0.21,3.11-0.54,4.91-0.86c-2.33,4.76-4.84,9.18-6.82,14.1
		c2.44,0.4,4.59-0.11,6.76-0.21c2.2-0.1,4.41-0.02,6.73-0.02c-0.17,0.78-0.73,1.14-1.16,1.56c-3.28,3.15-6.49,6.4-9.92,9.39
		c-3.49,3.04-7.15,5.87-11.19,8.19c-4.57,2.62-9.5,4.12-14.59,5.2c-1.4,0.3-2.82,0.51-4.25,0.76c-0.39,0.76,0.27,1.17,0.62,1.62
		c1.24,1.58,2.22,3.32,3.17,5.08c0.57,1.04,0.95,2.19,1.41,3.28c-0.88,0.76-1.92-0.63-2.75,0.37c-0.24,0.76,0.39,1.3,0.73,1.88
		c0.69,1.18,1.24,2.41,1.72,3.68c0.25,0.65,0.68,1.21-0.07,1.9c-0.33,0.3,0.02,0.89,0.2,1.34c0.59,1.48,0.89,3.04,1.09,4.51
		c-0.34,0.57-0.81,0.1-1.12,0.34c-0.32,0.32-0.31,0.73-0.2,1.11c1.07,3.93,1.89,7.92,2.57,11.92c0.72,4.24,1.4,8.49,1.83,12.77
		c0.43,4.29,0.58,8.58,0.79,12.88c0.15,3.05,0.59,6.04,2.16,8.81c-1.08,1.05-2.48,1.41-3.86,1.97c0.46,1.31,1.89,1.44,2.7,2.45
		c-3.08,3.48-5.92,7.2-9.52,10.07c0.11,0.7,0.7,0.5,0.95,0.85c-0.24,0.63-1.08,0.5-1.42,1.02c-0.07,0.7,0.58,0.62,1.2,0.88
		c-1.21,0.78-1.57,2.29-3.27,2.13c0.57,1.98,2.1,2.78,3.44,3.79c-1.01,0.5-2.01,0-3.04,0.38c2.36,1.05,4.57,0.86,6.78-0.13
		c-0.3,1.6-0.85,2.35-2.33,2.79c-1.28,0.38-2.61,0.57-4.15,0.9c2.39,1.92,3.28,4.42,3.9,7.04c0.37,1.57,0.28,3.17-0.27,4.78
		c-2.29-1.56-5.14-1.87-7.45-3.91c0.34,1.46,1.59,1.66,2.12,2.53c0.03,0.96-0.6,1.66-1.07,2.35c-1.76,2.59-2.75,5.39-2.58,8.55
		c0.01,0.23-0.09,0.46-0.16,0.81c-3.97-1.06-5.64-3.82-5.85-8.09c-0.51,1.54-0.32,2.65-0.26,3.89c-1.54,2-3.32,3.95-4.47,6.38
		c-1.06-1.43-1.06-2.2-0.03-8.57c-0.54,0.35-0.73,0.82-0.89,1.31c-0.15,0.45-0.34,0.88-0.67,1.73c-0.44-2.32-0.46-4.18,0.48-5.9
		c0.77-0.59,1.84-0.34,2.49-1.33c-2.7,0.31-5.28,1.12-7.81-0.31c-1.53-0.87-2.92-1.85-4.37-3.4c2.17-0.26,4.05,0.2,5.87-0.17
		c-0.01-1.57,0.05-1.65,1.36-1.79c0.32-0.03,0.64,0,0.96-0.04c0.23-0.03,0.46-0.12,0.71-0.18c-0.22-0.62-0.74-0.41-1.11-0.41
		c-1.73-0.03-3.05-0.81-4.15-2.08c-1.24-1.43-2.07-3.72-2.14-6.01c1.15,0.59,2.05,1.56,3.31,1.87c0.14,0.03,0.3-0.04,0.73-0.1
		c-1.62-1.07-3.14-1.96-4.18-3.43c-1.01-1.44-1.93-2.91-2.4-4.6c0.56-0.51,0.93,0.02,1.32,0.16c1.66,0.64,3.37,0.97,5.15,0.89
		c1.2-0.05,2.39-0.01,3.53,0.43c0.19,0.55,0.94,0.17,1.18,0.77c-0.52,1.72-1.15,3.48-1.06,5.79c1.04-1.3,2.06-2.05,3.01-2.88
		c0.3-0.26,0.87-0.54,0.49-1.11c-1.01,0.16-1.43,1.22-2.42,1.49c-0.14-1.7,0.91-2.95,1.75-4.46c-1.16,0.17-2.08,0.31-3,0.45
		c0.13-0.63-0.83-0.75-0.66-1.52c1.01-0.05,2.03-0.09,3.12-0.14c-0.21-0.77-0.88-0.87-1.42-1.01c-2.19-0.58-3.11-2.01-3.02-4.2
		c4.79,2.86,5.86,2.73,8.6,1.99c0.29-0.63-0.44-0.74-0.59-1.15c0.23-0.16,0.47-0.33,0.7-0.48c-0.45-1.18-1.53-2.03-1.67-3.42
		c1.19,0,2.1,0.39,3.04,1.16c-0.14-1.42-0.27-2.7-0.41-4.1c-0.81,0.82-0.05,1.87-0.73,2.57c-1.2,0.15-1.65-1.13-2.68-1.48
		c-0.48,0.76-0.12,1.47,0.07,2.19c0.23,0.85,1.14,1.58,0.33,2.64c-0.16,0.21,0.36,0.94,0.57,1.44c-0.76,0.38-1.48,0.25-2.17,0.19
		c-1.28-0.1-2.26-0.7-2.86-1.87c-0.76-1.48-1.31-3.09-2.46-4.35c-0.15-0.16-0.31-0.55-0.24-0.64c0.77-0.95-0.13-1.8-0.12-2.73
		c0.6-0.26,0.93,0.56,1.68,0.35c-1.04-1.69-1.73-3.5-2.14-5.39c-0.4-1.87-0.64-3.77-0.95-5.67c0.26-0.69,1.23-0.33,1.56-1.15
		c-0.14-0.36-0.33-0.86-0.51-1.35c0.57-0.39,1.32,0.03,1.86-0.55c-0.68-1.39-1.88-2.56-2.09-4.34c3.85-1.95,5.18-5.52,5.8-9.53
		c0.3-1.97,0.74-3.91,0.8-5.92c0.03-0.97-0.11-1.89-0.5-2.8c-1.8-4.26-3.71-8.48-4.97-12.96c-0.25-0.87-0.5-1.79-1.35-2.46
		c-0.69-0.54-0.71-1.55-0.71-2.44c0-0.85,0-1.7,0-2.55c-0.47-0.39-0.84,0.47-1.38,0.07c-0.24-2.2,0.71-4.32,0.82-6.48
		c-1.04-0.66-1.64,0.6-2.62,0.37c-0.68-3.3,0.22-6.41,1.28-9.61c-1.65-0.44-3.1,0.49-4.88,0.66c-3.15-2.01-5.82-4.6-6.53-8.86
		c1.36-1.89,3.77-2.67,5.43-4.24c-0.2-1.94-2.23-2.33-2.92-3.9c0.98-1.51,2.6-2.26,4.06-3.15c1.42-0.87,2.97-1.52,4.6-2.33
		c-0.64-2.23-2.33-3.76-3.64-5.72c1.35-1.17,2.91-1.65,4.48-2.08c0.94,0.57,0.96,2,2.21,2.11c-0.08,0.3-0.15,0.59-0.22,0.85
		c-0.95,0.34-1.48-1.01-2.56-0.45c1.45,3.5,4.76,5.59,6.74,8.83c-0.78,0.31-1.5,0.64-2.25,0.88c-0.79,0.26-1.61,0.44-2.42,0.65
		c1.49,0.71,2.69-0.09,3.99-0.48c1.27-0.38,2.61-0.52,4.27-0.83c-2.97-1.06-2.97-1.06-3.93-2.17c0.46-0.37,1.12,0.16,1.54-0.33
		c-3.39-1.31-4.33-2.2-6.03-4.99c1-0.34,1.91,0.88,3.01,0.1c-0.59-0.64-1.16-1.28-1.76-1.89
		C129.03,118.24,128.83,118.25,128.69,118.21z M135.49,133.74c-2.07-0.35-3.69-0.75-5.21-1.42c-1.49-0.66-2.45-2.05-3.8-2.91
		c1.43,2.84,4.06,4,6.94,4.73c-0.43,1.12-1.6,1.5-1.92,3.01C132.95,135.91,134.04,134.97,135.49,133.74z M134.22,136.88
		c-1.15,0.3-2.12,1.17-3.39,0.81c-0.08-0.02-0.38,0.34-0.37,0.51c0.01,0.17,0.29,0.46,0.44,0.45c0.54-0.03,1.07-0.18,1.62-0.25
		c0.12-0.02,0.26,0.1,0.4,0.16c0.26,0.36-0.18,0.98,0.47,1.25c0.68,0.04,1.37-0.04,1.96-0.5c0.18-0.14,0.2-0.25,0.05-0.34
		c-0.37-0.33-0.96,0.21-1.28-0.3C133.89,138.1,134.66,137.69,134.22,136.88z M144.77,204.01c-0.55,0.97-0.05,2.06-0.72,2.83
		c-0.14,0.16-0.21,0.23-0.33,0.14c-0.41-0.3,0.01-1.11-0.72-1.29c-0.27,1.42-0.27,1.42,0.43,2.8
		C145.17,206.95,145.29,206.55,144.77,204.01z M169.47,108.64c0.91,1.14,0.91,1.13,2.09,1.1
		C170.8,109.35,170.14,108.99,169.47,108.64z"/>
	<path class="st0" d="M274.79,37.8c-0.19,1.63-0.41,3.26-0.58,4.89c-0.13,1.3-0.59,2.51-1.19,3.62c-1.09,1.99-2.75,3.29-5.16,3.43
		c-0.04,0.54-0.08,1.01-0.12,1.47c-1.43,0.21-2.11-0.04-2.6-1.27c-0.34-0.84-0.73-1.55-1.45-2.13c-0.71-0.57-0.95-1.45-1.09-2.34
		c-0.62-4.08-0.62-8.1,1.14-11.96c0.06-0.13,0.04-0.3,0.06-0.45c-0.25-0.18-0.5-0.36-0.74-0.53c0.4-1.2,1.6-1.59,2.3-2.52
		c-1.31-0.78-0.36-1.98-0.81-2.99c2.25,0.35,4.39,0.57,6.47,1.04c2.15,0.48,3.95,1.54,5.16,3.56c1.15,1.93,2.24,3.87,2.89,6.03
		c0.09,0.31,0.28,0.6,0.31,0.9c0.45,4.49,2.39,8.57,3.58,12.86c0.21,0.77,0.47,1.53,0.76,2.27c1.6,4.05,1.25,8.17,0.32,12.26
		c-0.37,1.63-1.26,3.1-2.2,4.51c-0.44,0.66-0.89,1.31-1.35,1.98c0.58,0.34,0.8-0.13,1.01-0.39c2.12-2.5,3.4-5.38,3.75-8.65
		c0.12-1.1,0.3-2.2,0.48-3.5c1.74,1.4,1.6,3.51,2.53,5.29c1.41-1.59,2.63-3.3,4.45-4.58c0.77,2.02,0.65,4.01,0.66,5.98
		c0.01,1.95-1.36,3.49-1.96,5.58c1.18-0.92,1.51-2.05,2.23-2.9c1.16,2.55,1.02,3.71-1,8.68c0.86,0,1.15-0.84,1.78-1.09
		c0.66-0.27,1.29-0.6,1.9-0.89c0.64,0.52,0.16,0.92-0.01,1.31c-0.35,0.8-0.76,1.58-1.11,2.39c-1.23,2.8-1.25,5.71-0.72,8.66
		c0.82,4.55,1.23,9.16,1.64,13.76c0.11,1.27,0.02,2.56,0.02,3.84c0,3.36,0.01,6.72,0,10.08c-0.01,1.69,0.14,3.37,0.73,4.95
		c1.08,2.9,2.36,5.65,6.16,5.77c-0.56,1.37-1.73,1.32-2.74,1.64c1.76,1.12,2.34,1.16,5.6,0.38c-1.04,2.16-2.58,2.93-4.77,2.44
		c-1.29-0.29-2.52-0.9-4.37-1c1.84,1.03,3.35,1.47,4.87,1.86c0.45,0.12,1.01,0.23,1.41,0.06c2.56-1.03,5.2,0.03,8.14-0.65
		c-1.22,2.63-2.26,4.84-4.01,6.65c-1.77,1.83-4.23,2.07-6.84,2.74c2.01,1.78,4.18,1.57,6.56,1.76c-1.44,1.26-2.94,2.04-4.53,2.21
		c-1.6,0.17-3.23-0.37-4.91-1.19c0.34,1.4,1.46,1.65,1.97,2.47c0.49,0.79,1.19,1.44,1.51,2.34c-0.79,0.41-1.13-0.6-1.88-0.33
		c0.31,5-1.79,9.02-5.35,12.6c-1.14-1.48-0.37-3.41-1.62-4.91c-1.5,2.33-2.95,4.62-5.25,6.16c-1.2,0.8-2.43,1.57-3.76,2.1
		c-1.54,0.62-2.98,1.51-4.91,1.88c0.76-1.9,1.63-3.59,1.78-5.47c0.15-1.91,0.19-3.82-0.19-5.79c-0.45,1.45-1.22,2.69-2.27,3.75
		c-1.06,1.07-2.13,2.13-3.06,3.05c-0.59,0.02-0.68-0.23-0.66-0.46c0.23-2.24-0.84-4.04-2.02-5.75c-1.08-1.56-2.4-2.95-3.42-4.75
		c-0.77,0.96-0.61,2.09-1.29,3.09c-1.53-1.95-2.81-4.03-4.55-5.74c-1.69-1.65-3.55-3.15-4.86-5.36c-0.27,1.15,0.61,2.04,0.03,3.07
		c-1.93-3.06-4.6-5.31-7.46-7.35c-1.13-0.8-2.06-1.75-2.74-2.94c0.21-0.47,0.76-0.21,1.07-0.59c-0.84-0.57-1.68-1.14-2.77-1.89
		c2.85-1.06,5.86-0.63,8.26-2.24c-0.2-0.55-0.78-0.31-1.1-0.77c1.24-1.16,2.96-1.34,4.41-2.05c1.47-0.71,2.75-1.61,3.73-2.97
		c-0.62-2.36-1.1-4.79-1.9-7.11c-1.03-2.97-0.97-5.97-0.68-9c0.21-2.14,0.49-4.27,0.8-6.4c0.08-0.53-0.2-1.27,0.75-1.5
		c0.48-0.11,0.21-0.72,0.05-1.03c-0.93-1.86-1.82-3.74-2.89-5.51c-1.32-2.18-2.73-4.32-4.23-6.38c-1.13-1.55-2.54-2.87-4.36-3.71
		c-1.97,0.87-3.89,1.82-5.48,3.48c-1.19-2.66-0.73-5.12,0.24-7.68c-1.34-0.32-2.76,0.23-3.97-0.59c0.06-1.18,1.5-1.12,1.8-2.19
		c-2.55-0.65-4.19-2.26-4.88-4.9c1.36-0.21,2.68,0.12,3.86-0.6c2.24,1.23,3.37,3.74,5.74,4.52c-0.07,2.16,0.05,2.27,3.1,3.06
		c0.12,0.37,0.24,0.75,0.42,1.3c3.15,0.46,5.55-0.98,7.69-3.11c-2.3,0.84-4.2,2.93-7.07,2.28c-0.18-1.87-2.24-0.93-3.06-2
		c-0.14-0.59,0.6-0.65,0.72-1.09c-0.05-0.13-0.07-0.36-0.17-0.4c-2.48-0.96-4.24-2.79-5.86-4.8c-0.9-1.12-1.78-2.26-2.69-3.36
		c-1.39-1.68-3.24-2.83-4.91-4.18c-0.49-0.4-1.19-0.58-1.48-1.18c-0.29-0.62-0.81-0.69-1.37-0.77c-0.39-0.05-0.77-0.21-1.17-0.25
		c-4.62-0.53-7.54-3.46-10.1-6.99c-1.23-1.7-1.06-3.32,0.15-4.83c1.93-2.41,2.46-2.77,5.28-1.87c3.53,1.13,6.85,2.62,9.41,5.47
		c0.81,0.9,1.41,1.92,2.05,2.96c0.5-0.09,0.62-0.96,1.28-0.57c0.48,0.28,0.95,0.61,1.46,0.81c1.8,0.73,3.56,0.75,5.22-0.36
		c-0.09-0.83-0.04-1.58,0.49-2.19c0.74-0.53,1.33,0.6,2.2,0.01c0.19-1.08,0.95-1.79,2.13-2.29c1.29-0.55,1.91-1.88,2.72-2.96
		c0.67,0.11,0.83,0.71,1.16,1.14c0.54,0.71,1.15,1.35,1.93,1.76c1.13,0.6,2.07,1.4,3.03,2.24c1.13,1,2.54,1.71,4.02,0.79
		c0.37-0.61,0.05-1.06,0.03-1.59c0.73-0.65,1.5-1.33,2.28-2.02c1.11,0.54,2.1,1.25,3.32,1.15c0.61-0.51,0.15-1.3,0.65-1.88
		c2.87-0.75,4.72-2.69,5.57-5.36c0.49-0.49,1.1-0.12,1.42-0.66c-0.25-0.17-0.51-0.35-0.82-0.56c0.03-1.84,0.55-3.7,0.34-5.59
		C275.22,38.14,275.16,37.86,274.79,37.8z M272.48,74.86c-0.53-1.1-1.54-1.61-2.51-2.13c-1.9-1.02-3.83-1.97-5.77-2.9
		c-1.22-0.59-2.22-1.28-2.17-2.83c0.01-0.41-0.24-0.75-0.54-1.04c-0.49,0.38,0.03,1.11-0.54,1.51c-0.5,0-0.74-0.87-1.53-0.44
		c-0.32,1.44-0.67,2.98-0.73,4.57c-0.07,1.89,0.18,3.66,1.47,5.16c0.08,0.09,0.05,0.28,0.06,0.39c-0.44,0.36-1.15-0.12-1.5,0.52
		c-0.04,0.67,0.6,0.89,0.87,1.34c-0.1,0.75-1.08,0.97-1.04,1.8c1.78,1.13,3.62,1.31,5.96,0.56c-1.56-0.69-3.4,0.39-4.83-0.79
		c0.15-0.95,1.36-0.93,1.47-1.82c-0.16-0.24-0.32-0.47-0.48-0.71c0.44-0.23,1.01,0.02,1.41-0.51c-1.15-1.25-2.49-2.39-2.69-4.32
		c-0.18-1.77,0.32-3.39,0.54-5.38C263.85,71.08,268.57,72.17,272.48,74.86z"/>
	<path class="st0" d="M102.1,493.34c-0.85,0.83-0.87,1.87-1.72,2.33c-1.91-1.96-2.04-4.02-0.54-8.19c-0.93,0.76-0.93,0.76-2.08,4.53
		c-1.55-1-2.23-2.11-1.87-4.16c0.49-2.76,1.07-5.47,1.81-8.16c0.59-2.13,1.86-3.62,4-4.43c1.18-0.45,2.24-1.21,3.36-1.84
		c0.27-0.15,0.53-0.34,0.47-0.72c-0.31-0.35-0.56-0.05-0.82,0.09c-1.26,0.69-2.49,1.45-3.79,2.05c-2.05,0.93-3.27,2.49-3.86,4.6
		c-1.06,3.75-2.13,7.5-2.06,11.54c-2.44,0.68-4.45-0.06-6.23-1.21c-0.37-0.47,0.22-0.93-0.3-1.22c-0.91,0.32-1.27,1.43-2.26,1.65
		c-0.99-1.31-0.47-2.65-0.09-3.91c0.36-1.19,0.67-2.51,2.11-2.99c-0.8-0.98-1.35,0.27-2.08,0.15c0.45-2.91,1.69-5.48,3.08-7.98
		c0.74-1.32,1.91-2.1,3.36-2.51c1.43-0.4,2.84-0.86,4.24-1.29c-0.17-0.63-0.47-0.55-0.78-0.46c-1.45,0.42-2.92,0.81-4.36,1.28
		c-1.17,0.38-2.08,1.11-2.77,2.17c-1.47,2.22-2.5,4.64-3.22,7.18c-0.32,1.11-0.9,1.8-2.06,2.26c-0.29-2.2,0.63-3.93,1.62-5.65
		c1.24-0.1,0.85-1.14,1.07-1.84c1.18-3.76,3.48-6.45,7.41-7.4c1.08-0.26,1.87-0.8,2.63-1.53c1.63-1.56,2.92-3.35,4.18-5.22
		c5.04-7.49,9.59-15.3,14.82-22.67c0.88-1.24,1.69-2.53,2.44-3.84c0.38-0.67,1.21-1.25,0.38-2.31c-0.4-0.51,0.75-1.13,0.73-1.89
		c-0.39-0.47-0.93,0.13-1.14-0.06c-0.38-0.27-0.34-0.37-0.21-0.54c0.48-0.63,1.39-0.81,1.74-1.57c-0.46-0.68-1.72-0.28-1.71-1.58
		c1.42-0.13,2.69-0.74,3.65-1.85c0.97-1.12,1.52-2.45,1.58-3.93c0.07-1.68,0.11-3.36-0.01-5.04c-0.18-2.62-0.52-5.23-0.76-7.84
		c-0.37-3.91-1.3-7.69-2.53-11.42c-1.57-4.77-3.02-9.59-3.72-14.58c-0.1-0.72-0.31-1.38-0.66-2.03c-1.3-2.44-1.96-5.04-1.9-7.82
		c0.09-4.07,0.14-8.14,0.2-12.16c0.43-0.44,0.76,0.11,1.31-0.06c0.38-1.48-0.95-2.95-0.29-4.65c1.61,1.67,2.44,3.79,3.86,5.48
		c1.44,1.7,2.68,3.58,4.64,4.7c0.65-0.23,1.26-0.32,1.55-1.03c0.27-0.65,0.67-1.28,1.12-1.82c0.51-0.61,1.14-1.11,1.71-1.64
		c0.69,0.16,0.58,0.92,1.16,1.32c1.96-2.23,3.01-4.89,3.54-7.8c0.34,0.14,0.54,0.22,0.87,0.36c0.84-0.89,0.55-2.26,1.29-3.36
		c1.1,1.18,1.33,2.59,1.34,4.15c0.31-0.13,0.62-0.16,0.7-0.31c1.03-1.84,2.52-3.26,4.03-4.7c2.12-2.02,2.06-2.08,1.67-5.26
		c0.42-0.31,0.7,0.28,0.98,0.2c0.67-0.22,0.46-0.89,0.81-1.21c0.14,0.02,0.33-0.02,0.41,0.06c1.12,1.05,1.88,2.37,2.65,3.67
		c0.2,0.34,0.46,0.74,0.44,1.1c-0.08,1.69,0.8,3.06,1.39,4.65c1.01-0.27,1.43-1.46,2.46-1.66c0.08,0.14,0.2,0.26,0.23,0.41
		c0.91,4.93,2.45,9.75,2.68,14.79c0.18,4.14,0.41,8.33-1.42,12.25c-0.43,0.92-0.91,1.81-1.41,2.79c1.83-0.2,3.31-1.18,5.22-1.52
		c-0.26,1.96-1.4,3.33-2.07,4.85c0.18,0.57,0.69,0.3,1.11,0.58c-0.05,1.55-0.39,3.01-1.54,4.27c-1.51,1.65-2.95,3.36-4.72,4.75
		c-0.26,0.21-0.4,0.49-0.27,1c1.16,0.12,1.88-1,3.07-1.21c0.39,1.61-0.94,2.52-1.48,3.59c0.08,0.7,0.76,0.71,0.94,1.14
		c-2.11,4.07-4.27,8.07-7.25,11.57c-0.53,0.63-1.05,1.25-0.77,2.34c0.19,0.74-0.32,1.68-0.59,2.51c-0.51,1.6-0.94,3.21-1.27,4.86
		c-0.74,3.71,0.94,6.81,4.5,8.17c0.52,0.2,1.07,0.28,1.46,0.69c-1.55,1.99-3.48,3.26-6.07,3.17c-0.08,1.19,1.39,0.66,1.57,1.65
		c-1.18,0.4-2.34,0.08-3.47,0.19c2.04,1.42,3.93,0.81,5.73-0.34c0.27-0.61-0.39-0.71-0.41-1.3c0.64-0.47,1.36-1.01,2.19-1.62
		c0.71,1.4-0.52,2.61-0.01,3.82c0.73,0.51,0.96-0.69,1.62-0.47c0.07,0.91-0.74,1.8,0,2.84c1.18-0.78,1.86-2.15,3.37-2.93
		c-0.4,2.52-0.29,4.78,0.07,7.04c0.18,1.12-0.27,2.2-0.56,3.28c-0.12,0.45-0.46,0.86-0.2,1.41c0.51,0.55,1.13-0.43,1.8,0.05
		c-0.56,1.4-1.85,2.1-2.81,3.06c0.46,0.89,1.39,0.41,1.96,0.9c-0.63,1.44-1.21,2.92-1.91,4.33c-1.19,2.38-2.71,4.6-4.86,6.16
		c-2.66,1.94-3.79,4.63-4.46,7.64c-0.35,1.56-0.62,3.13-0.98,4.68c-0.61,2.64-1.93,4.88-3.94,6.48c-0.14,0.68,0.4,0.51,0.61,0.98
		c-0.8,1.62-2.3,2.46-3.99,2.81c-0.39,0.58,0.25,0.82,0.1,1.34c-0.34,0.43-0.88,0.36-1.5,0.26c-0.51-0.79,0.22-2.13-1.16-2.7
		c0.36,2.42-0.4,4.51-1.87,6.28c-1.79,2.16-3.71,4.19-6.88,4.21c-0.82,0-1.29-0.27-1.57-1.09c-0.54,0.78-0.63,1.76-1.58,2.24
		c-1.48-0.78-1.5-2.18-1.54-3.64c-0.04-1.46,0.26-2.83,0.81-4.22c-0.7-0.17-0.87,0.32-1.04,0.71c-0.37,0.82-0.39,1.7-0.39,2.58
		c0,0.95,0,1.9,0,2.79c-0.69,0.3-1.06,0-1.41-0.35c-0.4-0.4-0.78-0.8-1.18-1.19c-1.44-1.41-1.83-3.16-1.53-5.07
		c0.29-1.81,0.67-3.61,1.08-5.39c0.41-1.76,1.26-3.26,2.81-4.31c0.43-0.29,0.96-0.55,1.15-1.49c-1.65,0.92-2.94,1.77-3.72,3.33
		c-1.2,2.41-1.6,5.01-1.94,7.62c-0.14,1.06-0.53,2.18-0.09,3.3c0.07,0.19,0.01,0.53-0.12,0.69c-1.17,1.44-2.37,2.87-4.41,2.99
		C105.18,494.18,103.58,494.13,102.1,493.34z"/>
	<path class="st0" d="M172.42,398.88c1.72-0.14,3.26-0.27,5.09-0.42c-1.42-1.69-2.8-3.15-3.48-5.02c-0.64-1.79-1.1-3.64-1.71-5.67
		c1.78-0.41,3.4-0.16,5.32-0.01c-2.52-3.39-3.24-7.08-3.22-10.9c0.35-0.48,0.79,0.02,1.16-0.28c-0.04-1.15-0.95-2.17-0.66-3.41
		c0.21-0.45,0.76-0.04,1.04-0.42c0.21-0.35,0.16-0.72-0.03-1.1c-0.75-1.52-0.71-3.06-0.24-4.66c0.44-1.52,0.78-3.06,1.18-4.62
		c0.95,0.21,1.78,0.4,1.45,1.67c-0.11,0.41,0.3,0.7,0.57,1c0.7,0.78,1.51,1.41,2.39,1.92c-0.08,0.56-0.8,0.61-0.69,1.39
		c0.34,0.77,0.97,1.56,1.99,2.42c0.15-1.03-0.77-1.36-0.67-2.18c1.46-1.1-0.62-2.63,0.27-4.02c2.76,1.98,5.52,3.96,8.33,5.98
		c0.32-1.06-0.78-2.11,0.05-3.3c1.25,1.46,2.48,2.91,3.97,4.08c1.44,1.13,2.88,2.27,4.33,3.39c0.12,0.09,0.28,0.22,0.41,0.2
		c1.47-0.16,2.58,0.53,3.27,1.45c1,0.1,1.37-1.5,2.27-0.26c0.13-0.25,0.33-0.45,0.31-0.63c-0.19-1.56,0.5-2.81,1.18-4.14
		c1.12-2.21,1.76-4.61,2.04-7.09c0.05-0.45,0.17-0.89,0.31-1.64c1.79,1.98,1.59,4.35,2.29,6.38c0.55,0.38,0.79-0.35,1.41-0.36
		c0.53,1.08,0.87,2.32,0.85,3.56c-0.04,3.37,0.6,6.66,1.06,9.97c0.53,3.8,0.76,7.61,0.94,11.43c0.23,4.86,0.87,9.68,1.49,14.5
		c0.53,4.11,1.15,8.2,1.79,12.3c0.58,3.7,1.2,7.4,1.88,11.08c0.25,1.32,0.67,2.61,1.14,3.87c0.96,2.57,2.85,4.18,5.45,4.99
		c0.74,0.23,1.49,0.44,2.25,0.67c-0.43,1.45-2.15,0.95-2.83,2.01c0.49,0.93,1.68,1.25,2.04,2.31c-0.58,0.38-1.22,0.03-1.84,0.14
		c-0.4,0.43-0.31,1.16-0.86,1.51c0.3,0.51,0.58,1.2,1.2,1.02c0.94-0.27,1.29,0.29,1.75,0.85c1.4,1.74,2.73,3.53,3.86,5.47
		c2.41,4.14,4.86,8.25,7.3,12.38c2.01,3.42,4.78,6.17,7.75,8.74c0.87,0.75,2,0.98,3.07,1.29c3.5,1.02,5.36,3.5,6.22,6.88
		c0.08,0.31,0.09,0.62,0.39,0.81c2.13,1.36,1.57,3.6,2.1,5.83c-1.24-0.5-1.87-0.98-2.1-2.07c-0.39-1.87-0.86-3.73-1.85-5.41
		c-0.58-0.98-1.21-1.93-2.27-2.4c-2-0.89-4.04-1.69-6.11-2.55c-0.09,0.9,0.54,0.93,0.9,1.09c1.3,0.59,2.63,1.16,3.98,1.63
		c1.03,0.36,1.88,0.92,2.45,1.82c1.67,2.61,2.29,5.51,2.49,8.74c-0.63-0.36-1.08-0.62-1.53-0.88c-0.08,0.07-0.16,0.15-0.24,0.22
		c0.52,0.61,1.1,1.18,1.54,1.84c0.5,0.76,0.27,1.72,0.52,2.56c0.25,0.86,0.24,1.72,0.04,2.65c-1.52,0.12-2.08-1.34-3.08-1.93
		c-0.56,0.35-0.03,0.81-0.33,1.23c-1.18,0.72-2.64,0.71-3.91,1.01c-0.73-0.43-0.54-1.06-0.58-1.57c-0.27-3.54-1.51-6.83-2.62-10.16
		c-0.34-1.02-0.95-1.85-1.78-2.5c-1-0.79-2.03-1.55-3.06-2.3c-0.09-0.06-0.29,0.03-0.52,0.06c0.18,0.8,0.9,1.1,1.44,1.43
		c2.1,1.29,3.3,3.14,3.92,5.49c0.63,2.38,1.66,4.65,1.77,7.18c0.07,1.52,0.16,1.52-0.85,3.12c-0.63-0.7-0.3-1.93-1.31-2.36
		c-0.58,0.58,0.23,1.03,0.16,1.58c-0.09,0.71-0.1,1.43-0.13,2.15c-0.03,0.65-0.26,1.22-0.56,1.77c-1.01-0.06-1.05-1.26-1.91-1.42
		c-0.79,1.25-2.15,1.29-3.42,1.5c-4.41,0.73-4.75,0.68-7.9-1.14c0.95-3.5,0.47-7.02-0.46-10.5c-0.92-3.48-1.81-4.59-5.07-6.54
		c-0.4,0.48,0.02,0.73,0.33,0.89c2.41,1.25,3.45,3.46,4.09,5.91c0.61,2.32,0.91,4.69,0.95,7.09c0.02,1.02-0.21,1.89-1.15,2.54
		c-0.81-1.49-0.9-3.47-3.04-4.29c0.19,1.02,1.07,1.43,1.36,2.18c0.36,0.91,0.61,1.83,0.52,2.79c-0.08,0.86-0.03,1.78-0.7,2.59
		c-1.05,0.07-1.51-0.94-2.29-1.4c-3.32,0.78-6.37,0.32-9.24-1.72c-3.05-2.17-3.53-5.3-3.61-8.59c-0.7-0.54-0.69,0.59-1.43,0.3
		c-0.65-1-2.46-0.4-3.18-1.75c0.12-0.43,0.75-0.34,0.73-1.07c-0.53-0.84-1.64-1.16-2.6-1.67c-1.02-0.55-1.75-1.32-2.16-2.31
		c0.16-0.67,0.83,0.02,1-0.75c-1.22-1.48-1.62-3.54-2.45-5.41c-0.74-1.66-1.55-3.19-3.24-4.28c-1.79-1.17-3.2-2.87-3.33-5.22
		c0.27-0.23,0.49-0.43,0.73-0.64c-0.24-0.58-0.31-1.26-1.15-1.55c-0.55,0.62-0.09,1.55-0.6,2.29c-1.13-0.11-2.33,0.08-2.62-1.62
		c-0.11-0.66-1.17-0.81-1.28-1.7c0.98-1.03,2.43-1.4,3.74-2.29c-1.85-2.13-2.25-4.65-2.26-7.29c0.98-0.15,1.08,1.06,2.1,0.94
		c-0.47-1.56-1.24-3.06-1.09-4.93c0.7,0.64,1.28,1.16,1.86,1.68c-0.91-2.65-1.87-5.24-0.87-8.34c1.2,1.21,2.21,2.44,3.86,2.12
		c0.52,0.87-0.36,1.48-0.07,2.28c0.13,0.08,0.3,0.26,0.51,0.31c1.01,0.25,1.78-0.76,2.92-0.47c0.48,0.12,0.8-0.9,0.67-1.78
		c-1.13,0.3-1.82,1.43-2.99,1.27c-0.38-0.54,0.05-0.93,0.2-1.34c0.13-0.37,0.31-0.73,0.46-1.06c-0.34-0.44-0.73-0.35-1.12-0.23
		c-0.38,0.12-0.73,0.33-1.15,0.21c-0.45-0.3,0-0.74-0.24-1.22c-1.66-0.21-3.42-0.52-3.93-2.64c3.37-0.78,5.11-2.41,5.26-4.88
		c-0.56-0.24-0.57,0.43-1.02,0.58c-0.91-4.27-2.13-8.45-3.5-12.59c-0.6-1.82-1.58-3.53-2.06-5.35c-0.41-1.52-1.14-2.17-2.45-2.71
		c-3.37-1.38-6.28-3.47-8.84-6.05c-1.46-1.47-2.84-3.03-4.68-4.09c0.88-2,2.79-1.59,4.44-1.97c-0.27-0.79-0.89-0.65-1.36-0.74
		C177.03,404.84,174.3,402.51,172.42,398.88z"/>
	<path class="st0" d="M244.29,262.47c2.16-0.45,4.15-1.2,6.28-2.8c-0.92,3.1-2.61,5.16-4.25,7.24c-1.8,2.28-4.42,2.99-7.09,3.53
		c-0.1,0.5,0.4,0.4,0.64,0.81c-1.45,1.55-3.4,2.35-5.36,3.12c-2.01,0.78-4.06,1.42-6.16,1.94c-2.1,0.52-4.23,0.69-6.36,0.8
		c-0.03,0.74,0.48,0.81,0.91,0.99c2.77,1.15,5.22,2.75,7.22,5.01c0.42,0.48,0.86,0.93,1.09,1.54c-0.29,0.3-0.61,0.16-0.86,0.02
		c-2.41-1.37-5.08-1.89-7.77-2.21c-2.45-0.29-4.92-0.46-7.38-0.64c-3.62-0.27-7.08-1.1-10.38-2.62c-0.78-0.36-1.21-0.83-1.43-1.73
		c-1.11-4.65-2.32-9.28-3.49-13.92c-0.13-0.52-0.4-1.07,0.02-1.61c1.17-0.07,2.18,0.98,3.58,0.47c-0.97-1.38-2.13-2.59-2.33-4.32
		c-0.18-1.57-0.53-3.11-0.82-4.74c1.23-0.99,2.98-1.53,3.44-3.5c-2.07-0.88-4.45-1.38-5.55-4.02c1.3-0.11,2.62,0.19,3.68-0.76
		c-0.11-1.02-1.49-0.51-1.71-1.4c1.2-0.73,2.89-0.97,3.28-2.74c-0.1-0.11-0.18-0.3-0.3-0.33c-2.69-0.65-4.48-2.33-5.58-4.82
		c-0.23-0.51-0.45-1.07-0.84-1.44c-0.7-0.69-0.08-1.28,0.02-1.88c-0.47-1.03-1.69-1.23-2.29-2.18c1.85-1.16,2.93-2.92,4.3-4.91
		c-2.22,0.06-4.17,0.43-5.98-0.5c-1.77-0.91-3.56-1.76-4.98-3.61c1.79-0.45,3.37-0.84,4.94-1.23c2.21-0.54,4.15-1.58,5.95-2.97
		c2.93-2.26,5.43-4.95,7.7-7.84c3.51-4.46,6.75-9.11,9.15-14.29c1.89-4.1,3-8.39,3.45-12.87c0.09-0.95,0.3-1.9,0.3-2.84
		c0-1.59,0.19-3.19-0.24-4.77c-0.15-0.56-0.16-1.22,0.22-1.99c3.03,3.11,6.41,5.7,7.56,9.85c1.07,0.08,0.97-1.01,1.81-1.07
		c0.79,1.7,1.04,3.48,0.57,5.44c1.13-2.67,2.74-4.88,4.78-6.95c0.52,0.49,0.36,1.06,0.34,1.55c-0.04,1.56,0.37,3,1.06,4.37
		c2.69,5.34,5.07,10.84,8.08,16.03c3.15,5.43,4.98,11.37,5.96,17.58c0.35,2.23-0.24,4.28-1.03,6.29c-0.29,0.74-0.93,1.27-1.61,1.73
		c-0.43,0.29-0.98,0.49-1.15,1.12c2.24-0.66,4.92-3.2,8.63-8.22c0.37,0.94,0.15,1.79,0.23,2.59c0.09,0.87,0.28,1.73,0.3,2.6
		c0.08,3.75,0,7.52,0.21,11.26c0.25,4.57-1.44,8.24-4.69,11.31c-0.64,0.6-1.22,1.26-1.82,1.9c-0.05,0.05-0.03,0.15-0.07,0.36
		c1.48,0.1,2.42-1.08,3.68-1.55c-0.98,2.93-2.4,4.42-6.14,6.51c1.87,0.65,1.87,0.65,9-1.9C252.56,257.84,248.7,260.46,244.29,262.47
		z"/>
	<path class="st0" d="M104.15,164.51c0.16,1.59-0.43,2.86-0.59,4.19c-0.07,0.6-0.65,0.55-1.12,0.54c-0.94,2.31-0.44,4.57,0.38,6.74
		c0.84,2.22,1.89,4.37,3.38,6.25c0.34,0.43,0.27,0.89,0.35,1.35c0.13,0.7,0.28,1.4,0.47,2.1c0.15,0.54,0.36,1.06,0.89,1.52
		c0.85-0.19,1.77-0.4,2.64-0.6c0.51,0.1,0.31,0.78,1.04,0.85c3.56-2.06,5.62-5.74,8.21-9.16c0.49,1.38-0.89,2.29-0.54,3.44
		c0.72,0.2,0.91-0.88,1.79-0.58c-0.7,2.54-0.57,5.17-0.64,7.87c-3.55,2.43-7.02,4.93-11.64,2.88c-0.39,1.88-0.3,3.29,0.33,5.91
		c-0.93-0.02-1.42-1.02-2.44-1.06c-0.28,1.53,0.73,2.71,1.09,4.05c0.38,1.43,1.51,2.17,2.61,2.93c-0.54,0.77-1.53,0.73-1.97,1.45
		c-0.03,0.78,0.99,0.76,1.09,1.62c-0.61,0.56-1.3,1.18-1.98,1.82c-0.7,0.66-1.34,1.38-2.08,1.99c-2.5,2.04-6.25,2.21-9.33,0.32
		c-0.14,1.92-0.57,3.71,0.73,5.43c-1.22,0.33-2.08-0.69-3.31-0.37c0.01,2.07,1.79,3.24,2.61,4.97c-2.46,2.82-5.29,5-9.33,5.49
		c0.71,1.67-0.06,3.61,1.78,4.78c-2.48,2.02-5.15,3.47-7.81,4.9c-2.13,1.15-2.81,3.75-2.47,5.5c0.18,0.92,0.93,1.46,1.25,2.27
		c-0.44,0.81-1.4,0.12-1.9,0.72c0,0.66,0.93,0.8,0.93,1.5c-0.56,0.25-0.95-0.14-1.24-0.45c-0.94-1.01-1.47-2.25-1.96-3.67
		c1.44-0.93,1.61-2.61,2.39-3.94c0.09-0.16,0.05-0.6-0.06-0.66c-0.96-0.48-0.1-1.09-0.15-1.63c-0.16-0.61-1.11-0.3-1.19-1.09
		c0-0.87,1.16-1.2,1.21-2.14c-2.44,1.44-2.6,1.88-1.29,3.57c-0.03,0.56-0.73,0.6-0.84,1.09c0.05,0.81,0.92,0.44,1.31,0.97
		c0.04,0.73-0.44,1.2-1.11,1.54c-0.62,0.31-0.24,1.46-1.31,1.46c1.03,3.66,3.13,6.57,5.9,9.05c0.37,1.57-0.23,3.13-0.01,4.73
		c0.21,1.56-0.03,3.19-0.09,4.78c-0.16,4.57,1.69,8.38,4.54,11.77c0.36,0.43,0.57,0.63,0.25,1.14c-0.09,0.14,0,0.51,0.14,0.66
		c1.49,1.6,0.66,3.28,0.05,4.84c-1.24,3.17-1.23,6.37-0.64,9.64c0.1,0.58,0.37,1.07,0.72,1.49c0.91,1.08,0.77,2.19,0.28,3.37
		c-0.52,1.24-1.08,2.45-2.55,3.23c-0.6-1.78-0.68-3.49-0.81-5.52c-0.81,1.03-0.3,2.03-0.79,2.96c-1.45,0.28-2.64-0.55-3.77-1.34
		c-0.77-0.54-1.36-1.31-1.84-2.18c-1.76-3.18-1.88-6.52-1.09-9.96c0.09-0.39,0.27-0.76,0.34-1.15c0.3-1.82-0.18-2.88-1.83-3.74
		c-1.55-0.81-3.15-1.51-4.46-2.96c-0.8,1.02-0.96,2.14-1.28,3.15c-0.68,2.17-1.71,4.11-3.19,5.84c-0.67,0.79-1.25,1.65-1.85,2.5
		c-0.66,0.94-0.96,2-0.94,3.16c0.07,3.36,0.12,6.71,0.16,10.07c0.01,0.69,0.27,1.16,0.77,1.65c3.67,3.5,5.52,7.93,6.34,12.85
		c0.19,1.13,0.06,2.22-0.36,3.29c-0.26,0.66-0.73,0.78-1.32,0.74c-0.32,0.49,0.46,0.85,0.12,1.37c-0.07,0.06-0.17,0.2-0.31,0.25
		c-0.72,0.26-1.47,0.19-2.11-0.12c-1.85-0.89-3.68-1.69-4.76-3.75c-1.18-2.25-2.81-4.26-4.24-6.37c-0.5-0.73-1.13-1.31-1.71-1.77
		c-0.69,0.03-0.52,0.72-1.07,0.82c-1.56-1.02-2.17-2.57-1.95-4.3c-0.71-0.49-1.23,0.3-1.89-0.22c1.16-1.56,1.64-3.41,1.6-5.3
		c-0.06-3.06,0.01-6.17-1.2-9.19c-0.72,0.75-0.12,1.36-0.07,1.97c0.06,0.72,0.09,1.44,0.24,2.14c0.38,1.82,0.31,3.64,0.26,5.48
		c-0.06,1.99-0.45,3.82-2.23,4.98c0.44,1.22,1.58,0.66,2.38,1.15c0.46,1.54,1.23,2.98,2.56,4.12c0.66,0.57,1.1,0.32,1.61-0.19
		c1.66,1.13,2.37,2.91,3.27,4.6c-2.19-1.08-3.99-2.76-6.23-3.73c-2.13-0.92-4.13-2.16-6.44-2.89c0.04-0.34,0.1-0.79,0.16-1.24
		c-0.6-0.46-1.04,0.21-1.57,0.17c-0.09-0.12-0.26-0.24-0.25-0.35c0.57-4.58-0.17-9.07-1-13.55c-0.29-1.57-0.61-3.13-0.89-4.7
		c-0.07-0.39-0.02-0.98-0.37-1.08c-1.13-0.34-0.48-1.28-0.74-1.94c-0.46,0.18-0.89,0.35-1.39,0.55c-0.49-0.76,0.73-1.17,0.38-1.89
		c-0.56-0.39-1.21,0.45-1.78-0.09c0.03-0.12,0.03-0.32,0.11-0.38c1.89-1.32,2.33-3.57,3.42-5.39c2.07-3.46,2.96-7.4,4.17-11.19
		c1.68-5.24,3.08-10.56,5.01-15.72c0.25-0.66,0.7-1.24,1.27-2.21c-1.74,1.03-2.99,2.4-5.07,2.45c0.65-2.26,0.97-4.44,1.31-6.62
		c0.1-0.67,0.41-1.2,0.92-1.62c0.55-0.45,1.09-0.91,1.78-1.48c-1.11-0.84-2.62-1.09-3.07-2.52c0.33-0.67,1.07,0.06,1.44-0.44
		c-0.02-0.14,0.01-0.33-0.07-0.41c-0.63-0.61-1.32-1.16-1.9-1.81c-0.64-0.72-1.11-1.56-1.15-2.56c1.07-0.5,2.05,0.2,3.07,0.17
		c1.04-0.02,2.08,0.03,3.12,0.06c0.88,0.02,1.76,0.1,2.63,0.08c1.91-0.04,3.57-0.71,4.95-2.07c4.93-4.84,9.19-10.15,12.42-16.32
		c2.37-4.54,4.66-9.09,6.48-13.88c0.83-2.18,2.08-4.13,3.27-6.11c0.37-0.61,0.86-1.15,0.89-2c-1.28-0.35-2.06,1.21-3.31,0.92
		c0.34-2.09,0.98-3.19,3.71-6.4c-0.35-0.94-1.66-0.45-2.07-1.41c0.89-0.55,1.86-0.02,2.98-0.35c-1.99-1.73-2.98-3.87-3.39-6.45
		c2.28-0.32,4.52-0.07,6.69-0.65c2.16-0.58,4.05-1.89,6.69-2.21c-1.85-0.96-3.71-1.55-3.75-3.95c1.48,0.08,2.86,0.4,4.29,0.06
		c2.45-0.58,4.65-1.67,6.73-3.03C101.97,166.06,102.98,165.33,104.15,164.51z M45.87,277.22c0.35-1.08,1.83-1.41,1.98-2.96
		c-1.27,1.08-2.34,1.99-3.46,2.94c0.51,0.46,0.9,0.81,1.24,1.12c0.21,1.06-0.96,2.03,0.06,2.97c1.7-0.57,1.8-0.84,0.73-1.96
		c-0.09-0.56,0.75-0.87,0.43-1.49C46.57,277.52,46.04,277.66,45.87,277.22z M47.76,273.05c1.33-1.11,1.96-2.55,2.03-4.26
		C49.07,270.19,48.39,271.61,47.76,273.05z"/>
	<path class="st0" d="M134.99,52.5c-0.23-0.92-0.71-1.77-0.67-3c-1.9,1.36-1.85,3.15-1.93,4.78c0.51,0.88,1.57,0.74,2.02,1.71
		c-2.18,1.26-4.05,2.91-5.23,5.08c0.12,0.98,0.87,1.46,1.18,2.27c-0.69,0.74-1.4,1.54-1.08,2.61c-0.79,0.38-0.9-0.42-1.53-0.42
		c0.58,2.27,2.76,1.74,4.28,2.59c-1.24,1.33-2.7,2.36-4.42,2.52c-2.51,0.23-5.08-2.49-5.05-5.09c0.02-1.43,0.34-2.84,0.68-4.23
		c0.06-0.22,0.06-0.46,0.13-1.03c-0.64,0.71-0.87,1.27-1.01,1.91c-0.15,0.7-0.37,1.38-0.57,2.09c-1.25,0.06-1.19-1.43-2.11-1.72
		c-0.65,0.19-0.5,0.73-0.45,1.17c0.17,1.48,0.83,2.89,0.72,4.63c-1.79-1.19-3.42-2.3-4.81-3.72c-0.65-0.67-0.77-1.46-0.49-2.42
		c0.59-2.04,1.74-3.76,2.81-5.53c0.26-0.42,0.71-0.64,1.17-0.79c0.54-0.17,1.04-0.4,1.47-0.82c-0.56-0.47-1.04-0.01-1.49,0.17
		c-3.98,1.56-7.19,4.11-9.55,7.68c-1.36,2.06-2.63,4.18-3.95,6.29c-0.72-0.27-0.31-0.82-0.31-1.2c-0.07-2.88,0.09-5.75-0.14-8.63
		c-0.09-1.19,0.04-2.39,0.11-3.59c0.1-1.64,0.71-3.09,1.62-4.44c2.18-3.21,4.98-5.8,8.07-8.1c0.64-0.47,1.28-0.94,2.08-1.52
		c-3.34-0.2-5.81-2-8.41-3.52c-3.51-2.05-4.99-5.26-5.24-9.14c-0.17-2.64,0.3-5.25,0.53-7.87c0.02-0.29,0.28-0.55,0.61-1.17
		c0.42,3.8,2.83,5.58,5.64,7.11c3.65,1.99,7.59,2.84,11.66,3.27c0.24,0.03,0.48,0,0.72-0.03c0.24-0.02,0.47-0.08,0.77-0.13
		c-1.03-0.63-1.15-1.63-1.21-2.62c-0.49-7.61,2.05-13.95,7.98-18.84c1.35-1.11,2.67-2.3,4.36-2.92c0.59-0.22,1.14-0.41,1.83-0.16
		c4.28,1.53,8.72,1.85,13.22,1.69c0.55-0.02,1.11,0,1.92,0c-1.08,1.02-2.26,1.28-3.36,1.56c-2.8,0.71-5.65,1.03-8.52,0.41
		c-1.16-0.25-2.13-0.12-3.05,0.81c-0.89,0.9-1.91,1.67-2.7,2.7c-2.26,2.98-0.92,6.15,1.02,7.69c2.47,1.97,5.44,2.55,8.55,2.47
		c0.74-0.02,1.33-0.5,1.97-0.83c4.13-2.12,7.96-4.73,11.91-7.15c1.43-0.88,2.97-1.54,4.48-2.27c1.19-0.57,2.29-0.54,3.42-0.03
		c2.71,1.23,5.17,2.83,7.23,4.99c0.1,0.98-0.47,1.71-0.72,2.53c-0.57,1.91-1.42,3.73-1.7,5.73c-0.04,0.31-0.12,0.64-0.27,0.91
		c-1.68,2.92-2.85,6.07-4.16,9.15c-0.09,0.21-0.27,0.39-0.51,0.73c-0.22-0.55-0.51-1-0.55-1.47c-0.14-1.66-1.09-2.57-2.56-3.11
		c-0.59-0.22-1.16-0.48-1.78-0.74c-1.83,1.33-2.3,3.22-2.28,5.25c0.02,2.19,1.86,3.39,3.11,4.98c-1.13,0.86-2.42,1.06-3.47,1.63
		c-0.84-0.24-0.85-1.27-1.68-1.42c-0.44,0.87-0.9,1.74-1.34,2.63c-0.22,0.45-0.57,0.76-0.99,1.02c-0.34,0.21-0.7,0.39-1.03,0.62
		c-1.19,0.84-2.39,1.65-4.15,0.89c-0.14-0.25-0.4-0.72-0.66-1.19c-0.93,0.13-0.72,1.27-1.48,1.48c-0.54-0.2-0.68-0.64-0.61-1.14
		c0.18-1.18-0.01-2.38,0.28-3.57c0.47-1.96-0.15-3.57-1.79-4.85c-2.17-1.68-4.47-3.05-7.12-3.84c-1.21-0.36-2.16-0.15-3.06,0.72
		c-2.1,2.04-3.68,4.41-4.65,7.17c-0.47,1.34-0.44,1.35-0.2,3.53c0.57,0.66,1.39,0.67,2.17,0.8c2.06,0.35,4.07,0.84,5.88,1.92
		c1.3,0.77,2.6,1.57,3.24,3.04c-1.33,1.94-1.88,2.13-3.95,1.47c-0.3-0.1-0.61-0.16-0.91-0.24L134.99,52.5z"/>
	<path class="st0" d="M144.85,95.42c-1.27-0.59-2.42-0.96-3.33-1.76c-0.37-0.32-0.67-0.47-1.2-0.51c-0.97-0.07-1.73-0.8-1.57-1.76
		c0.42-2.53-0.91-4.22-2.47-5.86c-0.16-0.17-0.24-0.41-0.35-0.6c1.24-1.93,2.28-2.44,4.29-1.96c1.11,0.26,2.21,0.26,3.33,0.24
		c0.96-0.02,1.94-0.12,2.87,0.04c2.2,0.39,4.29-0.03,5.68-1.66c1.79-2.1,4.12-2.9,6.55-3.67c2.52-0.79,4.95-1.79,7.33-2.93
		c2.03-0.97,3.44-2.54,4.5-4.49c0.64-1.17,0.63-2.27-0.11-3.38c-0.71-1.06-1.41-2.14-2.5-2.87c-0.45,0.5,0.03,0.9,0.12,1.31
		c0.19,0.95-0.16,1.56-0.97,1.96c-2.08,1.01-4.06,2.26-6.28,2.97c-0.89,0.28-1.56,0.7-2.07,1.48c-0.79,1.2-1.7,2.33-2.43,3.57
		c-1.15,1.95-2.7,3.56-4.2,5.21c-1.24,1.38-2.95,1.9-4.74,1.98c-2.31,0.11-4.63,0.04-6.9-0.55c-1.49-0.39-1.5-0.35-1.97-2.26
		c1.17-0.75,2.39-1.47,3.54-2.31c0.84-0.61,1.64-1.34,1.29-2.57c-0.14-0.49,0.18-0.73,0.45-1.01c0.78-0.81,1.06-1.79,0.9-2.87
		c-0.13-0.88,0.26-1.55,0.66-2.23c0.49-0.83,0.91-1.7,1.47-2.47c1.54-2.1,2.09-4.53,2-7.01c-0.1-2.74,1.17-4.51,3.2-5.98
		c2.27-1.64,4.61-3.15,7.12-4.42c1.17-0.59,2.21-0.63,3.43-0.2c3.39,1.19,6.25,3.18,8.86,5.57c0.93,0.86,1.79,1.8,2.82,2.84
		c-1.5,1.33-2.83,2.47-4.86,2.31c-1.66-0.12-3.29,0.14-5.06,0.75c1.43,1.79,3.54,2.44,4.94,3.94c1.43,1.53,2.46,3.32,3.31,5.3
		c-1.83,3.19-3.66,6.37-5.54,9.65c-3.4,0.61-6.8,1.46-10.12,2.59c-3.1,1.06-5.74,2.74-7.62,5.52c-0.84,1.24-1.37,2.46-0.99,3.99
		c0.14,0.58,0.3,1.25-0.09,1.92c-1.2-0.12-2.26-0.61-3.38-1.31C144.71,93.06,145.17,94.11,144.85,95.42z M171.91,57
		c-0.19-0.23-0.31-0.53-0.47-0.56c-1.12-0.2-2.08-0.76-3.08-1.25c-1-0.49-2-0.98-3.03-1.4c-2.13-0.89-4.23-0.98-6.48-0.12
		c-3.17,1.2-5.93,3.04-8.72,4.87c-0.11,0.07-0.15,0.27-0.22,0.41c0.44,0.57,1.39,0.4,1.73,1.24c-0.24,1.1-1.17,1.81-1.82,2.69
		c-0.31,0.42-0.5,0.81-0.09,1.27c0.37,0.41,1.01,0.4,1.39-0.27c1.05-1.84,2.92-2.41,4.64-3.15c4.26-1.84,8.65-3.24,13.38-3.08
		C170.1,57.66,171.01,57.5,171.91,57z M152.61,55.86c1.37-0.89,2.74-1.77,4.11-2.66C154.89,53.36,153.49,54.19,152.61,55.86z
		 M154.45,63.05c-1.51,0.3-1.51,0.3-1.85,1.47C153.24,64.01,153.73,63.62,154.45,63.05z"/>
	<path class="st0" d="M209.4,70.56c0.47,0.8,0.94,1.6,1.43,2.39c0.72,1.16,1.26,2.38,1.61,3.71c0.27,1.05,0.09,1.85-0.7,2.56
		c-1.19-1.23-1.19-1.23-2.54-1.31c-0.47-2.48-2.06-4.15-4.3-5.66c-0.33,1.21-0.55,2.27-0.9,3.28c-0.37,1.06-0.93,2.03-2.08,2.64
		c-0.96-1.87-1.69-3.8-2.86-5.51c-1.13-1.66-2.49-3.11-3.93-4.63c1.02-2.14,2.69-3.91,3.54-6.14c-0.96-0.56-1.45,0.71-2.28,0.34
		c1.86-4.21,3.52-8.47,3.44-13.52c-1.78,1.11-2.84,2.99-5.15,2.89c0.46-1.09,0.97-2.11,1.34-3.18c0.38-1.1,0.81-2.21,0.8-3.44
		c-1.16,0.09-1.93,0.89-3.11,1.16c0.37-1.63,0.7-3.08,1.03-4.55c-0.42-0.48-1.07,0.02-1.73-0.44c0.49-1.64,1.38-3.2,1.72-5.05
		c2.09,0.33,3.89,1.11,5.61,1.94c0.39,0.48,0.28,0.98,0.29,1.44c0.14,4.29,1.62,8.09,4.2,11.49c2.23,2.94,5.2,4.38,8.87,4.41
		c1.76,0.02,3.5,0.01,5.22-0.63c1.28,1.76,2.82,3.16,4.2,4.65c-1.69,5.78-5.12,7.58-11.86,6.25c-0.17,0.57,0.29,0.61,0.62,0.74
		c0.89,0.34,1.82,0.61,2.61,1.17c1.9,1.37,4.07,1.75,6.35,1.74c2.37-0.02,4.74,0,7.46,0c-1.72,1.4-3.16,2.62-4.65,3.77
		c-1.53,1.18-3.34,0.95-5.08,0.8c-1.18-0.1-2.34-0.47-3.51-0.69c-2.07-0.39-4.05-0.96-5.29-2.93
		C209.64,70.36,209.52,70.46,209.4,70.56z"/>
	<path class="st0" d="M213.32,29.42c-1.16,2.88-2.69,5.47-4.95,7.51c-1.77,1.59-3.97,2.26-6.25,2.45c-0.82-0.49-0.59-1.59-1.4-1.96
		c-0.72-0.33-1.46-0.63-2.2-0.93c-0.59-0.24-1.19-0.47-1.79-0.68c-0.52-0.19-1.12-0.16-1.62-0.66c-0.46-0.64-0.18-1.46-0.25-2.24
		c-0.09-1.03-0.61-1.57-1.71-1.63c-0.17-3.1,0.23-6.22-0.62-9.26c1.54-1.26,2.99-2.36,4.26-3.69c2.24-2.35,2.79-5.21,1.45-8.14
		c-0.26-0.56-0.55-1.11-0.82-1.66c0.57-0.39,1-0.12,1.41,0.09c1.55,0.82,3.07,1.7,4.64,2.49c1.24,0.62,1.88,1.74,2.41,2.88
		c1.55,3.34,2.72,6.81,3.4,10.44c0.47,2.47-0.15,4.59-2.26,6.15c-0.9,0.67-1.69,1.45-2.61,2.62c1.89-0.44,3.47-0.72,5.01-1.19
		C210.93,31.54,212.1,30.45,213.32,29.42z"/>
	<path class="st0" d="M99.44,105.81c0.39-3.15,2.13-5.17,4.16-6.99c1.98-1.78,4.56-2.53,7.18-3.81c-1.79-0.61-3.27-1.06-4.71-1.61
		c-1.24-0.47-1.23-0.52-2.17-2.04c0.71-2.51,2.41-5.02,4.58-6.64c0,0.87-0.02,1.63,0,2.39c0.03,1.25,0.64,2.16,1.8,2.57
		c1.75,0.62,3.54,0.92,5.38,0.25c2.51-0.9,4.77-2.21,6.76-3.99c1.36-1.22,2.71-2.46,4.17-3.79c0.98,0.36,1.99,0.74,3.18,1.19
		c-1.34,1.66-1.61,3.58-1.83,5.67c1.44-0.09,2.02-1.68,3.34-1.73c0.3,0.46,0.25,0.89-0.07,1.33c-0.94,1.3-2.03,2.48-3.25,3.5
		c-1.3,1.09-2.89,0.96-4.04-0.31c-0.62-0.69-1.11-1.51-1.72-2.37c-0.4,1.66-0.04,3.13,0.4,4.55c0.68,2.23,2.35,3.32,4.6,3.63
		c0.76,0.1,1.58-0.15,2.38,0.3c-0.36,1.15-0.66,2.3-1.08,3.4c-0.32,0.86-1.03,1.03-1.96,0.75c-1.14-0.34-1.61-1.19-1.82-2.23
		c-1.76,0.42-1.13,2.92-2.93,3.13c-0.51,0.96,0.04,1.75,0.24,2.58c0.08,0.34,0.02,0.66-0.24,0.86c-0.34,0.27-0.73,0.28-1.1,0
		c-0.13-0.1-0.25-0.19-0.37-0.3c-3.86-3.57-8.6-4.3-13.58-4.11c-1.97,0.07-3.57,1.3-5.2,2.29
		C100.89,104.68,100.29,105.19,99.44,105.81z"/>
	<path class="st0" d="M178.88,29.92c-0.29,0.04-0.6,0.08-1.01,0.14c-0.91-3.02-1.15-6.06-0.15-9.11c1.07-3.26,2.07-6.54,3.52-9.66
		c0.33-0.71,0.59-1.46,0.9-2.23c0.81,0.23,0.48,1.21,1.01,1.64c0.3-0.08,0.6-0.15,0.92-0.23c0.07,0.12,0.18,0.24,0.19,0.37
		c0.1,0.77,0.01,1.5,0.61,2.23c2.31,2.77,3.04,6.08,2.94,9.61c-0.02,0.55-0.06,1.09-0.09,1.65c1,0.18,0.83-1.15,1.67-1.15
		c0.71,1.8-0.34,3.36-0.72,4.94c0.35,0.37,0.62,0,0.93,0.07c0.31,0.4-0.01,0.73-0.19,1.05c-0.18,0.34-0.41,0.66-0.67,1.05
		c0.48,0.11,0.83,0.2,1.16,0.28c0.66,3.24-0.5,6.13-1.68,8.97c0.19,0.1,0.26,0.17,0.3,0.15c0.29-0.11,0.58-0.24,1.06-0.44
		c-0.46,1.84-1.3,3.22-2.72,4.15c-0.81-0.23-0.63-1.04-1.15-1.32c-0.13,0.01-0.33-0.03-0.4,0.04c-0.58,0.6-1.01,1.4-2.2,1.59
		c0.37-1.45,0.57-2.76,0.38-4.1c-0.11-0.8-0.37-1.55-0.68-2.28c-0.09-0.21-0.28-0.56-0.41-0.55c-1.76,0.15-1.6-1.32-1.97-2.32
		C179.91,32.96,179.41,31.46,178.88,29.92z"/>
	<path class="st0" d="M244.57,28.93c-0.08,0.49-0.17,1.02-0.27,1.61c-1.36,0.4-2.64,1.04-4,0.37c-0.45,1.18,0.53,1.49,0.68,2.22
		c-0.18,0.95-1.61,1.73-0.54,2.96c-0.44,1.11-0.25,2.38-0.87,3.44c-1.14,1.93-2.84,2.7-4.95,2.33c-0.57,0.36-0.28,1.21-1.19,1.32
		c-1.25-1.14-2.81-2.21-2.55-4.4c0.01-0.07-0.04-0.16-0.07-0.23c-2.06-4.05-0.07-7.59,1.48-11.15c0.57-1.31,1.43-2.48,2.16-3.7
		c0.09-0.81-0.6-1.44-0.43-2.24c0.77-0.49,1.53,0.56,2.3-0.02c0.48-0.63-0.51-0.9-0.36-1.48c1.15-0.34,2.09,0.62,3.19,0.55
		c0.52-0.26,0.24-0.92,0.74-1.34c0.74,1.17,1.87,1.86,3.1,2.4c1.07,0.47,1.83,1.3,2.51,2.18c1.11,1.44,2.09,2.97,3.12,4.46
		c-0.84,0.92-2.03,0.84-2.67,1.44C245.19,29.69,245.25,28.81,244.57,28.93z"/>
	<path class="st0" d="M242.5,34.77c-0.55-0.04-0.86-0.06-1.23-0.08c-0.11-0.89,0.88-1.05,1.11-1.74c0.17-0.42-0.37-0.61-0.43-1.03
		c1.63-0.18,3.11-0.84,4.45-1.69c1.76-1.13,3.5-0.97,5.25-0.21c0.97,0.42,2.14,0.66,2.67,1.71c-0.32,0.61-0.8,0.16-1.13,0.35
		c-0.26,0.36-0.24,0.74-0.09,1.13c0.11,0.29,0.26,0.57,0.37,0.82c-0.17,0.82-0.98,1.07-1.33,1.68c-0.34,0.7,0.64,0.89,0.56,1.47
		c-0.07,0.55-0.11,1.12-0.23,1.66c-0.53,2.36-0.54,4.75-0.41,7.14c0.13,2.4-1,4.27-2.99,5.3c-1.03,0.53-1.85,0.98-2.1,2.1
		c-1.04-0.06-1.78-0.55-2.13-1.21c-0.52-0.98-1.37-1.54-2.12-2.24c-0.97-0.9-1.58-1.95-1.77-3.29c-0.37-2.61-0.66-5.22-0.32-7.86
		C240.84,36.97,241.1,36.38,242.5,34.77z"/>
	<path class="st0" d="M145.95,96.13c0.41-0.87-0.38-1.45-0.27-2.14c0.61-0.49,0.93-0.06,1.09,0.39c0.38,1.06,0.81,2.08,1.5,3.11
		c-1.05,2.16-2.55,3.96-4.57,5.42c-1.88-0.79-2.61-2.65-3.79-4.17c-1.03,1.06-0.41,2.67-1.57,3.63c-2.09-1.07-2.85-3.1-3.84-5.26
		c-1.11,1.67-1.25,3.5-1.8,5.16c-0.59,1.76-0.76,3.57-0.19,5.48c-1.91,0.78-3.64,0.38-5.6-0.19c1.56-1.69,2.07-3.63,2.36-5.69
		c0.3-2.16,1.03-4.17,3.1-5.5c-1.03-0.33-1.72,0.24-2.46,0.42c-3.41,0.86-5.88-0.59-6.81-4.19c0.62-0.07,1,0.36,1.45,0.6
		c1.46,0.76,2.78,0.52,3.95-0.6c1.03-0.98,2.03-1.99,2.93-2.88c0.8,0.13,0.6,0.97,1.45,0.95c0.91-1.21,1.81-2.75,3.63-3.41
		c1.02,0.44,1.53,1.24,1.38,2.4c-0.36,2.71,1.1,4.08,3.39,5.07C142.81,95.39,144.29,96.11,145.95,96.13z"/>
	<path class="st0" d="M255.7,32.49c-0.12-0.37-0.55-0.64-0.24-1.2c2.43,0.48,4.81-0.73,7.4-0.33c0.04,0.76-0.66,1.16-0.97,1.73
		c-0.45,0.83-0.16,1.33,0.57,1.77c-1.13,3.42-0.98,6.93-0.7,10.43c0.11,1.28,0.46,2.52,1.45,3.46c0.12,0.11,0.23,0.22,0.34,0.34
		c1.05,1.28,0.99,1.91-0.33,2.97c-0.55,0.44-1.16,0.81-1.63,1.13c-0.32,0.62,0.37,1,0,1.6c-1.29,0.08-2.42-0.35-3.27-1.44
		c-0.33-0.43-0.55-0.9-1.17-1.11c-3.41-1.16-4.55-3.95-4.46-7.16c0.08-2.75-0.07-5.64,1.25-8.19c0.34-0.66-0.6-1.18,0.11-1.64
		c0.57-0.36,0.82-0.79,0.68-1.51C254.7,33.14,255.46,33.12,255.7,32.49z"/>
	<path class="st0" d="M211.26,142.59c0.79-1.69,1.58-3.4,2.29-4.95c-0.37-0.86-1.16-0.45-1.53-0.95c0.79-1.54,1.61-3.08,2.37-4.65
		c0.79-1.62,2.73-2.14,3.65-3.78c-1.46-0.86-3.04-0.08-4.56-0.57c0.39-1.1,0.75-2.13,1.16-3.28c1.85,0.26,3.41,0.94,5.04,1.7
		c-0.06,1.3-0.11,2.55-0.18,3.8c-0.23,4.01,2.71,5.57,5.67,5.53c0.96-0.01,1.85-0.57,2.82-0.27c0.18,0.61-0.32,0.84-0.66,1.09
		c-1.05,0.74-2.19,1.3-3.45,1.58c-0.59,0.13-1.25,0.13-1.77,1.03c3.24-0.69,6.19-1.95,9.48-1.88
		C226.14,143.75,216.63,145.22,211.26,142.59z"/>
	<path class="st0" d="M204.95,165.54c1.76-2.44,3.15-4.96,3.25-8.28c-1.09,1.85-1.14,3.91-2.57,5.5c-0.56-2.09-1.17-4.06-2.38-5.79
		c0.55-1.79,2.38-2.56,3.26-4.15c-1.5-0.87-3.2-0.08-4.6-0.72c-0.04-0.69,0.43-0.69,0.78-0.81c1.86-0.67,3.34-1.82,4.5-3.43
		c1.07-1.48,2.23-2.89,3.29-4.25c0.32,0,0.48-0.02,0.63,0c2.38,0.32,3.48,1.84,4.04,4.05c0.62,2.45,0.69,4.91,0.41,7.37
		c-0.27,2.39-1.58,4.34-3.29,5.96C210.16,162.98,207.76,164.52,204.95,165.54z"/>
	<path class="st0" d="M185.25,172.51c1.62-1.47,3.44-2.44,5.21-3.5c1.37-0.82,2.81-0.8,4.28-0.39c0.53-1.16,0.14-2.15-0.1-3.14
		c0.74-0.73,1.93,0.11,2.73-0.84c-0.38-1.4-1.29-2.59-2.19-4.02c1.48-0.21,2.9,0.05,4.05-0.69c1.12-0.72,2.15-1.58,3.15-2.32
		c0.7,0.14,0.73,0.72,1.02,1c-0.08,0.77-0.52,1.23-0.98,1.67c-2.53,2.42-3.73,5.5-4.41,8.84c-0.35,1.72,0.03,3.34,0.78,4.87
		c0.54,1.11,0.97,1.3,2.64,1.53c-0.22-0.79-1.29-0.64-1.55-1.5c1.08-0.79,1.68-1.97,1.98-3.4c1.82,2.22,1.77,4.62-0.18,6.18
		c-4.1,3.29-10.99,3.53-14.73-0.92C186.15,174.92,185.86,174.41,185.25,172.51z"/>
	<path class="st0" d="M141.73,38.91c-1.17,0.76-1.44,1.52-0.84,2.69c0.36,0.71,0.85,1.35,1.26,2.03c1.27,2.11,2.54,4.23,3.78,6.3
		c-0.64,2.4-2.35,3.82-3.83,5.38c-0.69-0.36-0.46-0.9-0.53-1.33c-0.46-2.65-1.7-4.76-4.09-6.15c-1.67-0.97-3.4-1.73-5.31-2.09
		c-0.93-0.18-1.85-0.41-2.79-0.62c-0.47-1.09-0.43-2.16-0.04-3.1c1.02-2.44,2.34-4.71,4.22-6.62c0.76-0.77,1.66-1,2.63-0.72
		c2.38,0.69,4.53,1.82,6.46,3.49c-0.43,0.34-0.72,0.57-1.01,0.8L141.73,38.91z"/>
	<path class="st0" d="M183.3,185.98c0.4-2.81,0.4-2.81-3.04-8.54c0.32-1.06,1.49-1.13,2.1-1.79c0.32-0.71-0.38-1-0.54-1.52
		c0.6-0.68,1.42-0.95,2.22-1.18c0.68,0.2,0.73,0.82,0.98,1.3c0.44,0.84,0.79,1.78,1.54,2.39c1.19,0.96,1.09,2.06,0.83,3.43
		C186.92,182.67,185.58,184.53,183.3,185.98z"/>
	<path class="st0" d="M111.03,112.71c-1.89-0.58-3.01-1.57-4.17-2.39c-0.26-3.07,1.27-5.83,3.86-7.13c0.37-0.18,0.74-0.34,1.13-0.22
		c1.33,0.41,2.77,0.52,4.07,1.26c-0.31,0.71-0.98,0.83-1.45,1.19c-1.35,1.03-2.39,2.29-3.17,3.79
		C110.78,110.23,110.41,111.22,111.03,112.71z"/>
	<path class="st0" d="M159.57,32.27c0.83,0.34,1.6,0.52,2.17,0.99c-1.5,4.54,1.09,7.28,4.08,9.84c-0.5,0.39-0.92,0.09-1.34-0.1
		c-1.6-0.73-3.15-1.55-4.44-2.78C157.44,37.74,157.27,35.45,159.57,32.27z"/>
	<path class="st0" d="M131.5,75.74c1.63,2.32,3.66,3.51,5.93,4.19c0.37,0.63,0.53,1.23,0.41,1.95c-0.72,0.8-1.61,1.42-2.75,1.79
		c-1.32-0.72-2.39-1.71-3.42-2.86C130.25,79.24,130.4,77.74,131.5,75.74z"/>
	<path class="st0" d="M133.48,60.83c0.05-1.32,1.26-1.35,2.02-2.01c-1.35-0.15-2.46,0.2-2.77,1.42c-0.29,1.15-0.96,1.68-1.9,2.12
		c-0.68-0.59-1.07-1.21-0.31-2.02c0.22-0.23,0.41-0.49,0.58-0.76c1.1-1.65,2.52-2.25,4.5-1.63c1.21,0.37,2.49,0.53,3.64,1.12
		c0.4,0.21,0.4,0.21,0.76,1.28c-1.12,0.54-2.17-0.35-3.27-0.15C135.66,60.4,134.59,60.62,133.48,60.83z"/>
	<path class="st0" d="M130.85,63.8c2.91,0.96,5.61,1.12,8.89,1.04c-3,2.17-5.35,4.21-8.82,5.54c1.11-1.29,2.26-1.77,2.79-2.89
		c-0.27-0.15-0.53-0.3-0.79-0.46c-0.15-0.53,0.67-0.66,0.45-1.38C132.81,65.03,131.38,65.47,130.85,63.8z"/>
	<path class="st0" d="M134.9,52.41c1.2,1.34,2.13,1.66,3.47,1.13c0.65-0.26,1.26-0.62,1.99-0.99c0.52,0.98,0.47,1.88,0.22,3.02
		c-2.6,0.47-4.99-0.24-7.43-1.23c-0.28-1.05,0.14-1.95,0.49-2.87c0.7,0.14,0.69,1,1.35,1.03L134.9,52.41z"/>
	<path class="st0" d="M165.75,74.34c-1.31,0.97-2.69,1.41-4.29,1.67c-0.16-1.85,0.32-3.5,0.63-5.06c0.45-0.31,0.8-0.25,1.01-0.02
		C164.05,71.98,165,73.03,165.75,74.34z"/>
	<path class="st0" d="M141.65,38.99c0.08,0.02,0.15,0.04,0.23,0.06c2.82,0.78,2.91,0.89,2.71,3.69c-0.05,0.7-0.15,1.4-0.23,2.08
		c-0.7,0.19-0.83-0.36-1.07-0.73c-0.47-0.73-0.81-1.59-1.4-2.2c-0.99-1.01-0.77-1.95-0.16-2.98L141.65,38.99z"/>
	<path class="st0" d="M157.37,75.21c1.06-1.35,1.41-3.16,3.39-3.56c0.41,1.47-0.12,2.76-0.31,4.08c-0.09,0.63-0.43,1-1.02,1.17
		c-0.68,0.21-1.02-0.25-1.36-0.71C157.89,75.93,157.71,75.68,157.37,75.21z"/>
	<path class="st0" d="M166.58,73.97c-1.08-1.36-1.94-2.46-2.89-3.65c1.09-0.65,2.11-1.16,3.41-1.55
		C166.88,70.5,168.28,72.17,166.58,73.97z"/>
	<path class="st0" d="M142.82,427.02c0.46-0.34,0.76-0.57,1.07-0.8c0.38,0.48,0.14,1.21,0.82,1.47c0.71,0.01,0.68-1.05,1.6-1.03
		c0.16,1.07,0.71,2.09,0.56,3.35C144.99,429.7,143.81,428.64,142.82,427.02z"/>
	<path class="st0" d="M163.55,39.83c-1.06-1.69-1.94-3.17-1.44-5.12c1.2,0.1,1.16,1.08,1.35,1.75
		C163.75,37.46,164.62,38.46,163.55,39.83z"/>
	<path class="st0" d="M168.27,71.83c-0.21-1.43-0.59-2.73,0.04-4.15C169.83,69.36,169.82,70.12,168.27,71.83z"/>
	<path class="st0" d="M130.23,75.86c-1.65-1.74-0.26-2.96,0.2-4.67C130.88,74.66,130.88,74.66,130.23,75.86z"/>
	<path class="st0" d="M138.99,63.76c-0.6,0.08-0.57-0.72-1.09-0.76c-0.56-0.03-0.58,0.74-1.08,0.77c-0.26-0.14-0.47-0.37-0.33-0.56
		c0.99-1.28,1.81-1.37,2.65-0.3C139.34,63.19,139.24,63.52,138.99,63.76z"/>
	<path class="st0" d="M142.31,425.82c-0.38-2.33-0.38-2.33,0.92-3.45c0.36,0.56-0.04,1.06-0.18,1.53
		C142.85,424.52,142.88,425.27,142.31,425.82z"/>
	<path class="st0" d="M157.67,77.22c-0.59,0.34-1.14,0.8-1.91,0.46c0.19-0.63,0.62-1.05,1.06-1.45
		C157.38,76.33,157.61,76.69,157.67,77.22z"/>
	<path class="st0" d="M219.76,48.36c-0.06,0.65-0.3,1.01-0.75,1.24c-0.66-0.19-0.47-0.71-0.54-1.09
		C218.89,48.15,219.27,48.16,219.76,48.36z"/>
	<path class="st0" d="M197.91,441.32c-0.28-0.82-0.06-1.51,0.21-2.31C198.69,439.99,198.69,439.99,197.91,441.32z"/>
	<path class="st0" d="M135.22,62.26c0.41,0.42,0.22,0.83-0.01,1.23c-0.05,0.08-0.28,0.13-0.38,0.08c-0.11-0.06-0.23-0.26-0.21-0.35
		C134.73,62.86,134.85,62.48,135.22,62.26z"/>
	<path class="st0" d="M162.73,57.34c-1.04,0.43-1.21-0.41-1.76-0.52c-0.68,0.25-0.53,1.62-1.72,1.28c-0.71-0.87,0.56-1.32,0.3-2.06
		C161.04,55.67,161.99,56.06,162.73,57.34z"/>
	<path class="st0" d="M158.28,55.91c-0.92,1.36-0.28,3.05-2.03,3.57c-0.45-0.87-0.2-1.6,0.12-2.35
		C156.65,56.49,157.08,56.09,158.28,55.91z"/>
	<path class="st0" d="M164.75,57.18c-0.48-0.75-0.86-1.34-1.35-2.11c1.32-0.03,2.22,0.34,2.88,1.34
		C166.02,57.04,165.36,56.84,164.75,57.18z"/>
	<path class="st0" d="M153.92,60.29c0.15-1.3,0.2-2.4,1.42-2.92C155.48,59.2,155.23,59.77,153.92,60.29z"/>
</g>
</svg>
