<?xml version="1.0" encoding="utf-8"?>
<!-- Generator: Adobe Illustrator 24.1.1, SVG Export Plug-In . SVG Version: 6.00 Build 0)  -->
<svg version="1.1" id="Layer_1" xmlns="http://www.w3.org/2000/svg" xmlns:xlink="http://www.w3.org/1999/xlink" x="0px" y="0px"
	 viewBox="0 0 302.64 328.1" style="enable-background:new 0 0 302.64 328.1;" xml:space="preserve">
<g id="POLYLINE_4_">
	<path d="M236.43,288.61c-6.03,0-12.07,0.02-18.1-0.01c-4.88-0.02-9.93,0.1-14.69-1.13c-2.52-0.65-4.91-1.72-7.49-2.13
		c-2.61-0.41-5.29-0.47-7.93-0.53c-5.48-0.12-10.97-0.05-16.45-0.07c-6.68-0.02-13.35-0.04-20.02-0.05
		c-4.7-0.01-9.41,0.02-14.11,0.03c-7,0.02-14,0.03-21,0.05c-4.47,0.01-9.16-0.02-13.46,1.38c-2.38,0.77-4.71,1.56-7.2,1.92
		c-2.52,0.36-5.08,0.45-7.62,0.48c-6.45,0.07-12.89,0.05-19.34,0.05c-0.64,0-1.29,0-1.93,0c-0.13,0-0.75-0.09-0.84,0
		c-0.15,0.14-0.01,1.19-0.01,1.4c0,3.17,0,6.34,0,9.51c0,7.23,0,14.45,0,21.67c0,1.5-0.11,2.93-0.96,4.23
		c-0.88,1.34-2.3,2.28-3.88,2.57c-1.28,0.23-2.68,0.07-3.97,0.07c-3.15,0-6.3,0-9.45,0c-8.32,0-16.64,0-24.95,0
		c-3.17,0-6.35,0-9.52,0c-1.29,0-2.67,0.14-3.95-0.05c-3.11-0.46-4.96-3.22-4.97-6.22c-0.01-4.01,0-8.03,0-12.04
		c0-7.63,0-15.26,0-22.89c0-8.51,0-17.01,0-25.52c0-6.64,0-13.28,0-19.92c0-1.77,0-3.53,0-5.3c0-1.31-0.36-2.36-0.79-3.62
		c-0.84-2.46-1.88-4.88-2.42-7.44c-0.45-2.13-0.43-4.29-0.07-6.44c0.83-5,3.03-10.04,6.01-14.13c1.17-1.6,2.56-3.11,4.27-4.13
		c0.51-0.3,2.09-0.71,2.26-1.15c0.2-0.54,0-1.56,0-2.13c0-1.35,0-2.69,0-4.04c0-3.87,0-7.73,0-11.6c0-7.28,0-14.57,0-21.85
		c0-0.43,0.22-1.57,0-1.96c-0.23-0.42-2.2-0.32-2.71-0.37c-2.49-0.23-5.13-0.27-7.57-0.91c-1.84-0.48-3-1.62-3.34-3.51
		c-0.37-2.03-0.15-4.18,0.02-6.22c0.23-2.87,0.55-5.74,0.94-8.6c0.34-2.51,0.65-5.11,1.44-7.52c0.45-1.37,1.12-2.67,2.35-3.49
		c0.96-0.65,2.12-0.95,3.25-1.13c1.24-0.2,2.51-0.25,3.76-0.27c0.59-0.01,1.18-0.01,1.77,0c0.22,0,0.97,0.15,1.12,0.02
		c0.06-0.05,0.02-0.36,0.03-0.43c0.46-2.88,0.41-5.93,0.65-8.85c0.47-5.68,0.98-11.35,1.6-17.02c0.63-5.81,1.33-11.62,2.06-17.42
		c0.78-6.16,1.61-12.31,2.44-18.46c0.77-5.67,1.6-11.32,2.43-16.98c0.8-5.48,1.7-10.95,2.61-16.42c0.83-4.99,1.49-10.25,3.36-14.98
		c1.15-2.89,2.99-5.22,5.73-6.72c4.49-2.46,9.93-3.26,14.9-4.2c1.26-0.24,2.52-0.48,3.79-0.7c1.02-0.18,2.04-0.36,3.06-0.54
		c0.45-0.08,1.19-0.08,1.38-0.4c0.26-0.43,0.17-0.78,0.67-1.13c0.36-0.25,0.78-0.39,1.2-0.49c0.92-0.22,1.88-0.29,2.83-0.36
		c4.18-0.32,8.4-0.38,12.59-0.38c3.42,0,6.84-0.01,10.26-0.01c6.54-0.01,13.08-0.02,19.63-0.03c8.25-0.01,16.49-0.02,24.74-0.03
		c8.54-0.01,17.07-0.02,25.61-0.03c7.41-0.01,14.82-0.02,22.22-0.03c4.86-0.01,9.73-0.01,14.59-0.02c1.92,0,3.83,0,5.75,0.01
		c7.65,0.04,15.3,0.08,22.95,0.12c4.77,0.03,9.55,0.05,14.31,0.25c2,0.08,4.42-0.06,6.31,0.71c0.41,0.17,0.85,0.42,1.07,0.83
		c0.29,0.53-0.03,0.61,0.54,0.8c1.58,0.55,3.47,0.62,5.11,0.92c5.16,0.94,10.54,1.77,15.44,3.7c2.76,1.09,5.16,2.73,6.72,5.29
		c2.73,4.49,3.31,10.29,4.21,15.36c1.02,5.77,1.9,11.57,2.79,17.35c0.77,4.99,1.5,10,2.18,15.01c0.78,5.79,1.6,11.58,2.33,17.38
		c0.81,6.39,1.58,12.77,2.31,19.17c0.59,5.17,1.12,10.35,1.56,15.54c0.24,2.9,0.48,5.8,0.69,8.71c0.07,1.03,0.15,2.07,0.22,3.1
		c0.02,0.27-0.05,1.21,0.14,1.38c0.23,0.2,1.7-0.03,2.08-0.03c0.62,0,1.24,0.01,1.86,0.04c3.07,0.13,6.33,0.55,7.8,3.63
		c0.84,1.78,1.16,3.81,1.47,5.73c0.46,2.82,0.81,5.65,1.1,8.49c0.26,2.54,0.57,5.14,0.47,7.7c-0.07,1.74-0.37,3.65-2.04,4.59
		c-1.48,0.84-3.4,0.95-5.05,1.1c-1.83,0.17-3.67,0.33-5.5,0.5c-0.17,0.02-1.09-0.03-1.21,0.12c-0.05,0.06,0.01,0.34,0,0.41
		c-0.16,2.26,0,4.59,0,6.85c0,3.96,0,7.92,0,11.88c0,7.05,0,14.09,0,21.14c0,0.3-0.18,1.32,0,1.58c0.11,0.16,0.84,0.29,1.06,0.37
		c1.51,0.62,2.81,1.67,3.92,2.85c3.35,3.57,5.61,8.46,6.91,13.13c0.65,2.32,1.07,4.76,0.89,7.18c-0.17,2.2-0.85,4.31-1.59,6.38
		c-0.5,1.38-1.01,2.76-1.45,4.16c-0.19,0.58-0.42,1.16-0.47,1.77c-0.1,1.22,0,2.5,0,3.73c0,5.98,0,11.97,0,17.95
		c0,8.36,0,16.73,0,25.09c0,8.01,0,16.01,0,24.02c0,4.91,0,9.82,0,14.73c0,2.67-0.49,5.21-3.06,6.61c-1.17,0.64-2.33,0.7-3.62,0.7
		c-2.53,0-5.06,0-7.58,0c-8.18,0-16.35,0-24.53,0c-5.69,0-11.39,0.04-17.08,0c-3.22-0.02-5.72-2.69-5.79-5.87
		c-0.12-5.99,0-11.99,0-17.98C236.43,299,236.43,293.81,236.43,288.61z"/>
</g>
</svg>
