<?xml version="1.0" encoding="utf-8"?>
<!-- Generator: Adobe Illustrator 24.1.1, SVG Export Plug-In . SVG Version: 6.00 Build 0)  -->
<svg version="1.1" id="Layer_1" xmlns="http://www.w3.org/2000/svg" xmlns:xlink="http://www.w3.org/1999/xlink" x="0px" y="0px"
	 viewBox="0 0 220.8 951.62" style="enable-background:new 0 0 220.8 951.62;" xml:space="preserve">
<g id="POLYLINE_801_">
	<path d="M7,153.42c-0.01-2.18-0.01-4.36-0.02-6.54c-0.01-5.42-0.03-10.84-0.04-16.26c-0.02-6.98-0.04-13.95-0.05-20.93
		C6.86,102.85,6.85,96,6.83,89.15C6.81,84.12,6.8,79.09,6.79,74.06c-0.01-2.33-0.02-4.66,0.03-7c0.09-4.61,0.33-9.21,0.97-13.78
		c0.65-4.65,1.74-9.25,3.35-13.66c1.53-4.21,3.51-8.27,6.03-11.98c2.32-3.41,5.1-6.49,8.33-9.07c3.44-2.75,7.32-4.91,11.36-6.67
		c4.2-1.83,8.56-3.26,12.97-4.48c4.58-1.27,9.21-2.33,13.88-3.26c4.54-0.9,9.13-1.61,13.72-2.19c4.79-0.61,9.6-1.03,14.41-1.37
		c4.64-0.32,9.3-0.49,13.95-0.56c4.59-0.07,9.19-0.04,13.78,0.11c4.81,0.15,9.62,0.43,14.41,0.84c4.64,0.4,9.27,0.91,13.87,1.6
		c4.8,0.73,9.57,1.6,14.31,2.64c4.5,0.98,8.98,2.16,13.37,3.56c4.3,1.37,8.54,2.99,12.53,5.1c3.77,1.99,7.29,4.44,10.33,7.44
		c2.94,2.9,5.4,6.26,7.41,9.85c2.29,4.08,4.03,8.47,5.29,12.97c1.26,4.47,2.02,9.07,2.42,13.69c0.34,3.85,0.49,7.74,0.5,11.6
		c0.01,2.91-0.02,5.81-0.02,8.72c-0.02,5.83-0.03,11.67-0.05,17.5c-0.02,7.08-0.04,14.16-0.06,21.24
		c-0.02,6.64-0.03,13.29-0.05,19.93c-0.01,4.53-0.02,9.05-0.04,13.58c0,0.79-0.25,2.06-0.01,2.83c0.15,0.46,0.7,0.49,1.18,0.7
		c0.74,0.32,1.5,0.64,2.2,1.05c1.95,1.14,2.67,3.49,2.76,5.63c0.07,1.66,0.03,3.32,0.04,4.98c0.03,4.38,0.07,8.75,0.1,13.13
		c0.05,6.23,0.1,12.46,0.14,18.69c0.05,7.09,0.11,14.17,0.16,21.26c0.05,6.95,0.11,13.9,0.16,20.85c0.04,5.82,0.09,11.63,0.13,17.44
		c0.03,3.67,0.06,7.35,0.08,11.02c0.01,1.36,0.13,2.79-0.14,4.12c-0.42,2.08-1.65,3.51-3.1,4.98c-1.15,1.18-2.31,2.36-3.47,3.54
		c-0.23,0.24-0.77,0.61-0.89,0.93c-0.06,0.16,0,0.46,0,0.64c-0.01,1.26-0.01,2.52-0.02,3.78c-0.01,2.3-0.03,4.59-0.04,6.88
		c-0.02,3.23-0.04,6.46-0.05,9.69c-0.02,4.07-0.05,8.13-0.07,12.2c-0.03,4.78-0.05,9.56-0.08,14.34
		c-0.03,5.44-0.06,10.88-0.09,16.32c-0.03,5.98-0.07,11.96-0.1,17.94c-0.04,6.42-0.07,12.84-0.11,19.26
		c-0.04,6.76-0.08,13.52-0.11,20.29c-0.04,7.01-0.08,14.01-0.12,21.02c-0.04,7.12-0.08,14.23-0.12,21.35
		c-0.04,7.2-0.08,14.39-0.12,21.58c-0.04,7.14-0.08,14.28-0.12,21.42c-0.04,6.99-0.08,13.98-0.12,20.97
		c-0.04,6.74-0.08,13.48-0.11,20.22c-0.04,6.39-0.07,12.78-0.11,19.17c-0.03,5.94-0.07,11.88-0.1,17.82
		c-0.03,5.39-0.06,10.78-0.09,16.18c-0.03,4.72-0.05,9.45-0.08,14.18c-0.02,4-0.04,8.01-0.07,12.01c-0.02,3.16-0.04,6.32-0.05,9.48
		c-0.01,2.22-0.03,4.43-0.04,6.65c-0.01,1.17-0.01,2.35-0.02,3.53c0,0.13-0.05,0.38,0,0.5c0.06,0.15,0.31,0.32,0.42,0.43
		c0.5,0.51,1,1.02,1.5,1.53c1.06,1.08,2.12,2.16,3.18,3.24c1.26,1.29,2.15,2.82,2.42,4.63c0.2,1.38,0.07,2.86,0.06,4.25
		c-0.03,3.89-0.06,7.78-0.09,11.67c-0.05,5.94-0.09,11.88-0.14,17.82c-0.05,7-0.11,13.99-0.16,20.99
		c-0.05,7.06-0.11,14.11-0.16,21.17c-0.05,6.12-0.09,12.24-0.14,18.36c-0.03,4.19-0.06,8.38-0.1,12.57
		c-0.01,1.58,0.07,3.19-0.07,4.76c-0.2,2.3-1.15,4.36-3.29,5.43c-0.89,0.44-1.81,0.83-2.72,1.21c-0.42,0.17-1.49,0.39-1.67,0.78
		c-0.2,0.41-0.01,1.39-0.02,1.83c-0.03,3.26-0.06,6.52-0.09,9.78c-0.05,5.34-0.09,10.67-0.14,16.01c-0.06,6.63-0.11,13.27-0.17,19.9
		c-0.06,7.15-0.12,14.31-0.18,21.46c-0.06,6.87-0.12,13.74-0.18,20.61c-0.05,5.87-0.1,11.75-0.15,17.62
		c-0.03,4.07-0.07,8.14-0.1,12.21c-0.01,1.49-0.02,2.99-0.04,4.48c-0.07,4.9-0.17,9.8-0.31,14.7c-0.14,4.63-0.33,9.26-0.68,13.87
		c-0.35,4.6-0.84,9.2-1.73,13.73c-0.82,4.15-1.96,8.31-3.85,12.11c-1.65,3.3-3.97,6.21-6.94,8.42c-3.33,2.47-7.26,4-11.26,5
		c-4.39,1.1-8.92,1.63-13.43,1.89c-3.25,0.19-6.5,0.22-9.76,0.22c-5.17,0-10.34,0-15.5,0c-7,0-14,0-21,0c-4.53,0-9.06,0-13.59,0
		c-2.11,0-4.22,0-6.33,0c-6.27,0-12.54,0-18.8,0c-6.65,0-13.29,0-19.94,0c-3.17,0-6.34,0.02-9.51-0.01
		c-4.47-0.04-8.95-0.25-13.39-0.84c-4.23-0.56-8.47-1.46-12.41-3.12c-3.66-1.54-6.99-3.79-9.53-6.86
		c-2.53-3.06-4.15-6.75-5.31-10.52c-1.31-4.24-2.07-8.62-2.63-13.01c-0.59-4.7-0.88-9.44-1.11-14.17
		c-0.21-4.34-0.33-8.68-0.41-13.02c-0.06-3.16-0.14-6.32-0.17-9.48c-0.03-2.84-0.05-5.68-0.07-8.52
		c-0.04-5.04-0.09-10.09-0.13-15.13c-0.06-6.47-0.11-12.94-0.17-19.41c-0.06-7.09-0.12-14.18-0.18-21.26c-0.06-7-0.12-14-0.18-20.99
		c-0.05-6.1-0.1-12.2-0.16-18.3c-0.04-4.42-0.08-8.85-0.11-13.27c-0.01-1.34-0.02-2.68-0.03-4.02c0-0.46,0.19-1.47-0.02-1.89
		c-0.18-0.38-1.06-0.54-1.47-0.71c-0.95-0.39-1.89-0.78-2.81-1.24c-1.18-0.58-2.08-1.37-2.66-2.57c-0.67-1.41-0.78-2.93-0.79-4.47
		c-0.02-2.8-0.04-5.6-0.06-8.41c-0.04-5.25-0.08-10.5-0.12-15.76c-0.05-6.7-0.1-13.4-0.15-20.1c-0.05-7.15-0.11-14.3-0.16-21.46
		c-0.05-6.61-0.1-13.22-0.15-19.82c-0.04-5.07-0.08-10.14-0.12-15.2c-0.02-2.53-0.04-5.06-0.06-7.59c-0.01-1.46,0.2-2.85,0.88-4.17
		c0.4-0.77,0.93-1.44,1.53-2.06c1.02-1.05,2.04-2.08,3.06-3.13c0.53-0.54,1.05-1.07,1.58-1.61c0.14-0.14,0.47-0.37,0.55-0.56
		c0.18-0.45-0.01-1.34-0.01-1.8c-0.01-1.69-0.02-3.39-0.03-5.08c-0.02-2.69-0.03-5.38-0.05-8.06c-0.02-3.58-0.04-7.16-0.06-10.75
		c-0.03-4.38-0.05-8.76-0.07-13.14c-0.03-5.08-0.06-10.15-0.09-15.23c-0.03-5.65-0.06-11.29-0.1-16.94
		c-0.03-6.17-0.07-12.34-0.1-18.51c-0.04-6.57-0.07-13.14-0.11-19.71c-0.04-6.87-0.08-13.75-0.12-20.62
		c-0.04-7.08-0.08-14.15-0.12-21.23c-0.04-7.18-0.08-14.36-0.12-21.54c-0.04-7.18-0.08-14.37-0.12-21.55
		c-0.04-7.06-0.08-14.12-0.12-21.18c-0.04-6.9-0.08-13.8-0.12-20.7c-0.04-6.61-0.08-13.22-0.11-19.82
		c-0.03-6.22-0.07-12.44-0.1-18.65c-0.03-5.73-0.07-11.46-0.1-17.19c-0.03-5.14-0.06-10.28-0.09-15.42
		c-0.03-4.45-0.05-8.91-0.08-13.36c-0.02-3.67-0.04-7.34-0.06-11c-0.02-2.77-0.03-5.55-0.05-8.32c-0.01-1.8-0.02-3.61-0.03-5.41
		c0-0.58,0.2-1.61-0.01-2.17c-0.1-0.28-0.53-0.57-0.74-0.78c-1.15-1.17-2.3-2.35-3.45-3.52c-0.81-0.82-1.66-1.61-2.26-2.6
		c-0.83-1.35-1.17-2.86-1.16-4.44c0.01-2.22,0.03-4.43,0.05-6.65c0.04-4.83,0.07-9.65,0.11-14.48c0.05-6.49,0.1-12.98,0.15-19.47
		c0.05-7.14,0.11-14.28,0.16-21.42c0.05-6.8,0.1-13.59,0.16-20.39c0.04-5.45,0.08-10.91,0.13-16.36c0.02-3.12,0.05-6.23,0.07-9.35
		c0.01-1.49,0.03-2.96,0.57-4.38C2.37,155.18,4.67,154.41,7,153.42z"/>
</g>
</svg>
