<?xml version="1.0" encoding="utf-8"?>
<!-- Generator: Adobe Illustrator 24.0.2, SVG Export Plug-In . SVG Version: 6.00 Build 0)  -->
<svg version="1.1" id="Layer_1" xmlns="http://www.w3.org/2000/svg" xmlns:xlink="http://www.w3.org/1999/xlink" x="0px" y="0px"
	 viewBox="0 0 3261.23 1797.03" style="enable-background:new 0 0 3261.23 1797.03;" xml:space="preserve">
<g>
	<path d="M1704.36,1764.65c-8.2,1.42-15.98,3.12-23.97,2.75c-3.99-0.18-8,0.01-11.89-1.17c-4.81-1.46-8.89-0.13-13.18,2.43
		c-21.31,12.7-44.73,18.43-69.26,20.24c-0.65,0.05-1.31-0.09-1.96-0.12c-17.55-0.83-20.32-3.13-26.19-20.27
		c-1.81-5.28-1.79-11.19-5.44-16.2c-13.6,3.67-27.39,5.63-41.44,5.02c-23.36-1.01-24.69-4.32-29.35-23.46
		c-5.41-22.21-2.09-43.15,11.36-61.72c6.46-8.92,11.77-18.16,15.76-28.38c2.4-6.16,5.55-12.11,9.58-17.48
		c7.14-9.51,16.02-14.56,28.42-12.38c8.49,1.49,17.14,2.05,25.71,3.12c2.67,0.33,5.28,0.58,8.08-0.41c2.99-4.19,5.99-8.56,9.15-12.8
		c6.94-9.33,15.94-13.39,27.77-11.77c7.95,1.09,15.83,2.29,23.36,4.97c4.79,1.7,9.02,1.3,13.39-1.09c4.96-2.71,9.94-5.48,15.17-7.61
		c9.35-3.81,16.08-10.32,21.21-18.8c3.96-6.54,8.09-12.99,12.2-19.44c0.74-1.16,1.35-2.24,0.88-3.72c-2.71-1.7-5.79-0.92-8.71-0.93
		c-23.66-0.07-47.34-0.53-70.99,0.08c-34.6,0.9-68.9,4.78-102.92,11.43c-46.75,9.14-90.89,25.45-133.34,46.72
		c-11.61,5.81-23.31,11.44-34.83,17.41c-8.42,4.36-17.24,6.57-26.7,7.28c-11.29,0.85-22.53,1.9-33.8,0.09
		c-2.44-0.39-4.53,0.64-6.76,1.3c-12.45,3.67-25.05,6.61-37.88,8.8c-9.95,1.7-19.88,1.74-29.86,1.63c-2.62-0.03-5.23-0.79-7.83-1.29
		c-4.45-0.87-6.91-3.77-7.83-8.05c-1.54-7.15-2.81-14.34-2.68-21.71c0.07-3.95,0.01-7.9,0.01-11.36c-3.58-2.65-6.44-1.21-9.29-0.79
		c-21.46,3.13-42.95,5.01-64.55,1.29c-0.65-0.11-1.35-0.01-1.99-0.15c-18.61-3.96-18.25-7.51-18.15-21.77c0.03-4.29,0-8.58,0-13.01
		c-1.87-1.93-4.66-2.11-7.02-3.19c-5.94-2.7-6.55-4.33-5.67-10.88c2.57-19.16,11.86-34.47,26.8-46.29
		c5.18-4.1,8.77-8.93,11.31-14.81c3.33-7.71,8.28-14.32,13.6-20.77c5.62-6.81,12.61-9.28,21.1-8.3c3,0.34,5.96,0.59,7.4,0.17
		c3.98-3.62,7.33-5.99,9.8-9.06c7.1-8.81,16.75-10.6,26.97-9.65c20.57,1.91,40.75,5.9,60,13.74c2.45,1,4.85,1.63,7.7,1.34
		c9.49-0.97,18.58,1.13,27.21,4.96c4.08,1.81,8.01,2.76,12.51,2.13c10.36-1.45,20.56,0.78,30.75,2.12
		c4.39,0.58,7.63-0.33,11.12-2.74c26.09-18.01,50.7-37.78,72.66-60.71c5.68-5.93,11.31-11.9,16.65-19.85
		c-10.37,0.71-19.02,4.95-28.8,4.14c0.5-4.1,3.59-5.84,5.87-7.83c8.77-7.67,17.5-15.36,25.58-23.76
		c36.36-37.81,65.7-80.27,84.61-129.44c11.73-30.5,19.93-61.94,22.53-94.67c0.26-3.29,1.05-6.55,1.22-9.85
		c0.22-4.32,0.05-8.65,0.05-13.27c-14.62-12.02-29.93-23.2-44.09-35.8c-14.45-12.85-28.05-26.48-40.02-41.7
		c-11.68-14.85-20.87-31.42-31.86-47.52c-12.68,15.05-23.97,29.92-39.28,40.87c-2.62,1.87-5.36,3.57-9.22,6.13
		c-1.26-12.07,4.21-22.41,2.2-33.44c-3.28,1.91-3.94,5.37-5.4,8.17c-10.75,20.68-22.56,40.66-36.35,59.53
		c-6.34,8.67-14.33,14.55-23.5,19.49c-18.83,10.14-38.51,18.26-58.95,24.42c-4.2,1.27-6.87,3.47-9.49,6.58
		c-9.44,11.19-18.87,22.42-29.49,32.52c-5.73,5.45-11.27,11.21-19.03,16c-3.63-22.12,0.62-43.41,1.01-64.61
		c-3.15-0.93-3.58,1.62-4.45,3.09c-14.23,23.89-31.9,45.02-51.51,64.62c-11.06,11.05-21.7,22.55-33.68,32.63
		c-20.43,17.2-42.2,32.43-66.28,44.18c-1.14,0.56-2.35,0.96-3.04,1.23c-2.89-0.94-3.31-3.14-4.1-4.87
		c-8.8-19.05-16.66-38.5-22.4-58.69c-2.04-7.18-5.36-13.56-9.3-19.58c-7.64-11.66-15.9-22.91-23.96-34.29
		c-9.67-13.64-16.96-28.56-23.76-43.76c-1.18-2.63-1.45-5.91-5.25-8.35c2.27,13.03,4.34,25.24,6.55,37.42
		c2.91,16.05,6.55,31.91,12.11,47.28c0.23,0.63,0.54,1.23,0.66,1.88c0.42,2.26,1.24,4.6-0.86,6.54c-2.21,2.04-4.34,0.59-6.49-0.14
		c-35.89-12.25-68.88-30.06-99.21-52.69c-10.38-7.74-19.75-16.82-29.69-25.15c-3.85-3.23-5.3-7.5-6.3-12.13
		c-4.21-19.47-8.44-38.94-10.89-58.74c-2.2-17.79-3.82-35.62-4.85-53.54c-0.5-8.7-0.4-17.55-2.3-26.32
		c-5.62,12.5-8.22,25.79-11.36,38.9c-3.18,13.24-6.3,26.51-8.81,39.89c-2.48,13.22-4.16,26.59-6.07,39.1
		c-2.42,1.36-3.74,1.01-4.78,0.15c-7.62-6.41-15.4-12.59-21.98-20.21c-27.46-31.81-42.65-69.4-52.25-109.68
		c-0.37-1.55,0-3.43-2.96-4.45c-0.72,2.22-0.78,4.65-1.27,6.97c-4.9,23.11-11.93,45.65-18.23,68.39c-0.73,2.63-0.96,6.45-4.66,7.05
		c-4.34,0.7-5.47-3.29-6.99-6.02c-8.13-14.6-13.72-30.27-18.77-46.12c-7.7-24.15-12.05-48.99-14.52-74.17
		c-1.19-12.09,0.87-23.88,4.27-35.44c1.68-5.73,3.77-11.34,5.56-17.04c0.67-2.14,2.24-4.18,0.78-7.41
		c-19.49,17.24-38.18,35.32-62.91,44.67c-0.76,0.29-1.83-0.25-3.15-0.47c1.8-17.36,5.71-34.09,9.69-50.8
		c0.23-0.97,0.79-1.87,0.91-2.85c1.76-13.99,9.68-24.43,19.25-34.03c13.64-13.66,27.84-26.72,42.24-39.57
		c0.98-0.88,2.11-1.67,2.19-3.82c-12.32-4.88-24.89-9.79-37.41-14.83c-4.62-1.86-9.25-3.79-13.63-6.13
		c-9.22-4.93-16.9-11.43-22.4-20.68c-8.83-14.85-18.72-29.07-26.49-44.21c-26-9.45-51.2-19.77-75.3-32.65
		c-17.79-9.5-31.43-23.3-42.36-40.01c-4.56-6.96-9.12-13.92-13.77-21.03c-23.38-6.39-47.47-9.26-71.37-13.05
		c-20.67-3.27-41.5-5.56-62.24-8.42c-22.06-3.05-44.21-5.49-66.44-6.31c-17.82-0.66-34.88-4.19-51.88-9.06
		c-23.97-6.86-48.08-13.22-71.38-22.23c-24.26-9.38-47.87-20.07-69.33-34.98c-18.52-12.87-33.93-28.8-46.08-47.82
		c-1.95-3.05-4.49-5.99-2.48-10.49c5.89-1.3,12.12-1.54,18.4-1.72c12.63-0.36,25.36-0.79,37.89-0.48
		c16.6,0.42,33.24-0.16,49.86,0.95c13.59,0.91,27.22,1.3,40.81,2.39c29.48,2.35,58.93,4.88,88.25,8.79
		c26.38,3.52,52.57,8.11,78.79,12.61c0.87,0.15,1.81-0.08,3.25-0.17c-1.86-3.84-5.24-5.54-7.98-7.76
		c-37.78-30.58-77.63-58.4-116.82-87.08c-6.44-4.71-13.23-8.99-18.68-14.94c-3.51-3.83-6.15-7.95-3.93-13.52
		c3.45-3.46,8.07-4.59,12.54-5.71c25.7-6.45,51.71-8.35,78.19-6.41c14.6,1.07,29.1,2.85,43.66,4.09
		c25.01,2.13,45.52,12.87,63.79,29.69c32.39,29.81,58.01,64.88,81.11,101.97c5.09,8.17,9.19,16.96,13.71,25.49
		c1.71,3.22,3.32,6.49,4.91,9.6c17.09,4.07,32.58,11.75,48.53,17.64c2.08-3.78,0.4-6.77,0.76-9.71c0.46-3.85,2.04-5.33,5.94-4.75
		c2.28,0.34,4.5,1.12,6.71,1.82c15.57,4.94,30.5,11.39,45.04,18.78c2.92,1.48,5.61,3.56,9.08,3.84c2.03-1.85-0.07-3.03-0.76-4.15
		c-8.74-14.16-17.63-28.22-24.9-43.23c-12.27-25.34-20.91-51.77-24.28-79.78c-0.98-8.17,1.11-15.94,5.22-22.94
		c19.45-33.18,43.63-62.01,76.79-82.44c3.34-2.06,6.36-4.99,11.33-3.92c3.91,4.06,2.85,9.92,3.4,14.82
		c2.71,23.94,9.2,46.95,16.22,69.81c12.43,40.5,29.02,79.34,48.26,117.05c9.84,19.28,21.5,37.49,33.02,55.81
		c17.56,27.93,37.01,54.47,56.74,80.83c16.34,21.84,33.75,42.76,52.21,62.88c42.29,46.08,89.67,86.13,141.24,121.4
		c12.37,8.46,24.77,16.84,37.51,24.75c18.8,11.67,39.2,19.65,59.92,27.04c8.54,3.04,16.19,1.95,23.82-2.51
		c19.25-11.25,38.62-22.33,56.61-35.56c23.58-17.35,46.94-35.02,70.45-52.47c23.26-17.27,46.78-34.12,73.11-46.62
		c18.92-8.98,38.07-17.33,58.23-23.21c1.86-0.54,3.7-1.6,5.2-2.84c16.57-13.66,34.81-24.43,54.85-32.14
		c0.91-0.35,1.76-0.91,2.58-1.45c0.22-0.14,0.22-0.61,0.49-1.48c-5.56-0.64-11.03-1.23-16.49-1.92c-8.07-1.02-15.51-3.78-21.96-8.78
		c-7.67-5.94-9.93-12.76-7.67-23.27c12.37,6.36,25.38,10.3,39.24,9.06c11.87-1.07,23.96-1.6,34.97-7.16
		c5.64-2.85,11.22-5.73,15.59-11.65c-10.72,1.72-20.82,3.34-31.58-0.15c2.27-2.99,4.99-3.13,7.29-3.75
		c36.63-9.92,53.24-49.5,47.35-76.77c-0.63-2.92-0.8-5.94-1.43-8.86c-2.67-12.43-6.41-24.31-14.69-34.49
		c-4.59-5.64-8.09-12.19-11.89-18.45c-5.27-8.71-9.66-17.66-3.79-29.8c-6.01,3.69-8.21,7.97-10.66,11.94
		c-1.57,2.54-2.67,5.36-4.09,8c-3.02,5.59-5.6,6.58-11.23,3.85c-8.5-4.13-15.3-10.57-21.9-17.14
		c-16.41-16.32-25.78-36.24-28.54-59.07c-4.13-34.07,8.22-61.22,35.56-81.71c2.66-1.99,5.43-3.85,8.16-5.74
		c6.16-4.28,12.6-5.06,19.85-2.62c16.37,5.5,32.87,10.63,49.36,15.79c3.75,1.17,7.66,1.86,11.68,2.82
		c7.32-8.82,12.09-18.62,16.76-29.03c-1.8-3.76-3.65-7.65-5.53-11.51c-2.06-4.23-1.9-7.89,1.22-11.9
		c6.01-7.73,13.32-13.94,21.07-19.71c4.01-2.98,8.1-5.92,12.46-8.33c4.87-2.69,6.96-6.46,7.39-11.95
		c1.68-21.27,5.86-42.1,12.32-62.42c5.54-17.42,12.38-34.33,21.66-50.04c3.03,0.44,3.14,2.37,3.27,4.35
		c1.04,16.63,1.08,33.26,0.3,49.9c-0.09,1.92-0.49,3.82,0.89,6.46c27.3-57.7,62.26-108,119.25-140.21c2.47,3.49,3.05,6.62,3.58,9.85
		c5.86,35.75,0.35,70.15-12.2,103.72c-1.81,4.84-4.4,9.45-4.92,16.31c19.23-22.74,39.57-41.8,66.57-50.65
		c3.41,1.61,3.11,3.75,3.18,5.71c0.54,16.2-2.78,31.75-8.17,46.9c-5.6,15.73-13.03,30.57-22.25,44.51
		c-1.93,2.92-3.52,6.07-5.28,9.15c3.14,1.59,5-0.53,6.81-1.55c14.52-8.2,29.77-14.78,45.38-20.54c8.75-3.23,17.78-5.52,26.96-7.18
		c1.65-0.3,3.29-0.58,5.4,1.3c1.02,5.34-0.81,11.06-2.14,16.72c-5.63,23.87-18.67,43.94-33.11,63.2
		c-8.76,11.69-18.13,22.91-29.34,35.04c12.88-3.37,22.5-11.31,35.69-11.69c-7.46,17.04-21.37,26.81-35.61,39
		c11.68,0.26,21.27-1.81,30.98-0.46c9.56,1.33,19.21,2.12,28.43,4.96c9.41,2.9,19.14,5.07,28.12,9.99c-1.32,5.05-5.45,6.35-8.8,7.97
		c-13.34,6.44-27.43,10.06-42.34,10.18c-4.5,0.04-9.07-0.48-14.74,0.65c21.04,22.06,36.24,46.36,42.81,75.21
		c2.87,12.6,4.39,25.55,2.48,38.51c-3.33,1.28-4.33-1.26-5.68-2.97c-7.81-9.95-15.69-19.83-24.99-28.48
		c-4.39-4.08-8.76-8.17-13.26-12.12c-1.42-1.25-3.1-2.44-5.91-2.29c2,20.52,6.96,40.11,12.95,59.44
		c5.98,19.28,12.74,38.32,20.94,58.17c-14.87-1.4-26.38-7.98-37.92-14.37c-11.31-6.26-20.81-15.02-31.27-24.59
		c-2.12,14.51,1.24,28.16-3.39,42.1c-2.11-4.31-3.77-7.85-5.56-11.32c-4.23-8.22-5.61-8.4-12.11-2.35
		c-9.16,8.51-15.77,18.83-21.52,29.77c-7.93,15.11-13.15,31.24-17.42,47.7c-0.48,1.86-1.22,3.86,0.44,6.57
		c4.61-1.46,8.83-4.83,14.28-4.69c5.34,0.14,10.12,3,15.38,3.1c1.58-4.09,1.46-7.78,1.81-11.39c1.56-16.23,7.84-23.91,23.79-27.73
		c9.03-2.16,18.26-3.79,27.49-4.82c20.48-2.27,41.01-4.07,61.29-7.95c2.58-0.49,5.26-0.5,8.1-0.75c2.17,5.04,1.25,9.87,0.26,14.76
		c-2.89,14.32-11.54,25.23-21.09,35.56c-6.8,7.36-14.41,13.82-22.83,19.29c-1.34,0.87-3.02,1.42-3.27,3.91
		c15.75,5.7,32.27,6.8,47.61,8.41c2.24,1.61,2.24,3.11,1.82,4.26c-4.12,11.29-8.72,22.41-17.87,30.68
		c-12.68,11.46-26.35,21.56-43.66,24.61c-11.84,2.09-23.84,1.64-35.78-0.26c-3.67-0.59-7.49-2.66-11.27-0.34
		c0.19,2.59,2.07,2.84,3.54,3.25c20.09,5.5,36.75,17.11,52.2,30.37c14.63,12.56,28.19,26.35,42.56,39.23
		c26.74,23.96,52.83,48.74,83.26,68.2c2.22,1.42,4.45,2.82,7.04,4.46c7.12-6.59,14.17-13.12,21.23-19.64
		c20.07-18.53,39.71-37.49,58.95-56.88c28.44-28.65,53.6-59.94,76.86-92.88c22.52-31.9,42.34-65.34,58.99-100.65
		c5.81-12.33,10.66-25.15,17.04-37.17c6.34-11.94,6.73-24.75,7.47-37.51c0.93-15.92,2.07-31.85,1.58-47.85
		c-1.16-38.56-3.65-76.92-12.74-114.64c-5.21-21.63-9.31-43.53-13.89-65.31c-0.34-1.62-0.45-3.29-0.79-4.91
		c-1.76-8.43,1.45-14.89,7.7-20.33c8.89-7.73,19.06-13.3,29.79-17.96c12.95-5.62,26.6-8.53,40.55-9.85
		c7.32-0.7,14.52,1.08,21.54,3.25c4.36,1.34,7.47,4.35,9.93,8c3.15,4.69,6,9.56,8.34,14.75c14.17,31.41,20.83,64.29,20.36,98.77
		c-0.42,30.81-5.5,60.78-13.97,90.31c-1.06,3.69-3.06,7.39-2.41,11.8c3.42-1.21,4.5-4.21,6.05-6.48
		c18.82-27.51,40.48-52.78,61.68-78.41c19.92-24.08,40.32-47.76,60.11-71.94c23.44-28.64,44.02-59.28,61.5-91.92
		c16.06-30,29.4-61.1,36.95-94.46c0.95-4.2,2.43-8.29,3.73-12.41c1.24-3.94,3.29-7.27,7.5-9.21c5.17,1.29,7.73,5.67,10.27,9.89
		c2.75,4.57,4.82,9.49,6.29,14.65c7.3,25.61,12.9,51.57,15.29,78.11c1.91,21.28,0.58,42.58-2.14,63.7
		c-2.59,20.1-6.71,39.95-12.41,59.46c-7.81,26.69-18.79,51.86-34.49,74.91c-1.81,2.65-4.17,5.11-4.93,9.15
		c10.08,0.1,19.62-6.09,29.4-0.87c0.84,4.17-1.18,7.34-2.92,10.46c-20.89,37.68-36.22,77.71-49.81,118.44
		c-8.95,26.84-15.24,54.42-21.88,81.89c-5.08,20.99-9.83,42.06-14.58,63.12c-1.79,7.93-5.24,14.87-9.92,21.53
		c-18.48,26.3-40.46,49.36-64.3,70.76c-1.98,1.78-3.71,3.86-5.75,5.55c-13.74,11.39-9.8,8.59-9.16,23.75
		c0.35,8.25,2.1,16.44,2.96,24.68c0.66,6.37-0.48,12.56-2.61,18.62c-11.91,33.85-28.03,65.45-51.35,92.88
		c-6.13,7.21-7.38,13.18-3.88,22.06c6.2,15.73,10.18,32.24,13.67,48.41c-1.51,2.58-3.19,3.01-5.28,1.78
		c-16.37-9.64-32.22-19.99-45.58-33.7c-0.93-0.95-1.86-1.96-3.95-1.54c0.6,6.04,1,12.23,1.86,18.36c3.29,23.43,4.12,46.99,3.99,70.6
		c-0.03,6-0.32,12.01-0.03,17.99c0.23,4.9-1.28,9.08-3.55,13.26c-7.72,14.17-18.27,26.23-29.18,37.85
		c-15.02,15.99-30.26,31.86-47.93,45.06c-8,5.97-16.3,11.54-24.48,17.27c-1.07,0.75-2.2,1.54-4.38,0.74
		c-0.83-8.87,0.99-17.94,1.68-26.96c0.68-8.93,1.15-17.88,1.97-26.79c0.85-9.27,2-18.55,1.67-27.82c-0.32-9.01,2.36-17.82,1.28-26.9
		c-2.47,0.69-2.63,2.83-3.09,4.55c-9.91,37.76-23.64,74.11-40.2,109.44c-6.07,12.96-12.18,25.89-19.15,38.4
		c-0.62,1.12-0.87,2.45-1.53,4.36c24.4,24.58,51.72,45.74,79.94,65.69c27.84,19.68,57.29,36.9,87.28,53.4
		c-28.86,4.59-57.29,4.28-85.49,1.06c-1.08,3.21,0.91,4.31,2.13,5.74c21.45,25.09,39.37,52.74,57.76,80.03
		c17.67,26.22,35.18,52.55,52.8,78.8c2,2.98,4.27,5.77,6.78,9.15c-3.08,1.48-5.87,0.45-8.58-0.1
		c-24.48-4.97-48.34-12.13-71.83-20.58c-41.15-14.8-80.09-34.18-117.71-56.34c-5.43-3.2-10.96-5.4-17.26-6.99
		c-18-4.55-35.87-9.7-53.27-16.45c-18.03-6.99-35.17-15.75-53.58-25.09c3.77,11.5,8.99,21.29,12.45,31.7
		c-1.88,2.08-3.73,0.66-5.45-0.03c-14.31-5.72-27.2-13.97-39.96-22.45c-3.3-2.19-6.58-4.43-10.74-7.23
		c-0.88,4.27-1.99,7.9-2.32,11.6c-2.69,30.47-7.83,60.55-14.3,90.42c-1.26,5.81-3.09,11.49-4.72,17.48
		c9.82,2.13,19.84,4.34,29.12,9.11c17.57,9.02,31.53,22.06,42.88,38.01c5.33,7.49,5.24,10.69-0.22,17.97
		c-3.78,5.05-7.89,9.89-12.21,14.48c-3.18,3.38-4.86,7.09-4.65,11.66c0.31,6.81-1.59,13.16-4.12,19.35
		c-2.89,7.08-5.49,14.31-8.84,21.17c-9.24,18.92-15.61,38.85-21.59,58.94c-3.7,12.42-7.57,24.79-11.35,37.19
		c-3.23,10.58-8.53,20.18-13.88,29.78c-3.62,6.49-9.84,9.96-15.68,13.52c-15.01,9.17-31.46,14.03-49.17,13.83
		c-2.15-0.02-3.86,0.51-5.65,1.36c-18.68,8.82-38.62,12.24-59.01,13.01c-5.47,0.21-11.22-0.45-16.75-1.99
		c-5.62-1.57-9.4-4.85-11.45-10.15c-1.31-3.4-2.34-6.91-3.44-10.39C1706.31,1771.34,1705.41,1768.2,1704.36,1764.65z
		 M1715.07,1337.35c-1.86,0.19-2.85,1.62-3.88,2.88c-6.1,7.46-12.78,14.29-19.86,20.89c-20.03,18.7-41.67,35.1-65.81,48.05
		c-10.94,5.87-20.37,13.61-29.41,21.94c-0.87,0.81-2.08,1.72-1.14,3.39c9.54-0.19,19.1-0.67,28.62-2.12
		c9.5-1.45,19.21-1.83,28.58-3.85c9.78-2.11,18.41-1.27,26.21,5.24c2.32,1.94,4.77,3.56,8,3.61c9.11,0.14,17.63,2.69,25.93,6.31
		c2.01,0.88,4.22,2.02,6.63,1.04C1723.84,1421.71,1720.71,1356.89,1715.07,1337.35z"/>
</g>
</svg>
