<?xml version="1.0" encoding="utf-8"?>
<!-- Generator: Adobe Illustrator 24.0.2, SVG Export Plug-In . SVG Version: 6.00 Build 0)  -->
<svg version="1.1" id="Layer_1" xmlns="http://www.w3.org/2000/svg" xmlns:xlink="http://www.w3.org/1999/xlink" x="0px" y="0px"
	 viewBox="0 0 240.66 395.1" style="enable-background:new 0 0 240.66 395.1;" xml:space="preserve">
<style type="text/css">
	.st0{fill:#1A1A1A;}
</style>
<g>
	<path d="M81.88,341.93c0.15,6.1,0.01,12.11,0.67,18.06c0.59,5.31,1.96,10.47,3.85,15.49c0.73,1.93,1.77,3.74,2.17,5.8
		c0.56,2.82,0.72,5.62-0.19,8.39c-0.12,0.36-0.12,0.7-0.13,1.06c-0.03,1.36-0.33,1.82-1.66,2.29c-2.19,0.77-4.43,1.34-6.74,1.62
		c-8.27,1.01-16.43,0.34-24.5-1.67c-1.09-0.27-2.13-0.66-3.11-1.22c-0.46-0.26-0.95-0.6-0.93-1.16c0.05-1.74-0.81-3.32-0.84-5.05
		c-0.08-3.99,0.53-7.78,2.82-11.16c0.23-0.33,0.42-0.65,0.5-1.06c0.65-3.44,1.71-6.79,2.4-10.22c0.42-2.08,0.57-4.19,0.81-6.28
		c0.52-4.44,0.83-8.91,0.75-13.39c-0.01-0.56-0.04-1.12-0.02-1.68c0.03-1.02-0.26-1.74-1.2-2.39c-2.01-1.38-2.34-3.49-2.03-5.76
		c0.04-0.28,0.08-0.56,0.17-0.82c0.99-2.77,0.53-5.57,0.31-8.39c-0.35-4.46-0.99-8.88-1.56-13.31c-0.45-3.52-0.89-7.05-1.08-10.59
		c-0.2-3.72-0.17-7.43,0.29-11.13c0.44-3.6,1.17-7.13,2.25-10.6c0.35-1.12,0.3-2.28,0.15-3.44c-0.29-2.33-0.15-4.61,1.07-6.71
		c0.14-0.24,0.15-0.41,0.08-0.66c-0.65-2.23-0.28-4.44,0.24-6.61c0.56-2.35,0.38-4.66,0.06-7.01c-0.37-2.69-0.68-5.38-0.86-8.09
		c-0.11-1.75-0.34-3.49-0.23-5.32c-1.23,0.48-2.41,0.48-3.56,0.53c-1.68,0.06-3.15,0.48-4.21,1.95c-0.74-1.05-0.04-1.87,0.26-2.76
		c-0.51-0.19-0.93,0.13-1.36,0.27c-1.96,0.61-3.96,0.78-5.9,0.15c-1.16-0.38-2.23-0.28-3.36-0.13c-3.08,0.42-6.04-0.23-8.98-1.08
		c-0.19-0.05-0.48-0.13-0.52-0.26c-0.29-0.9-1.1-0.74-1.74-0.87c-1.32-0.26-2.72-0.23-3.79-1.25c-0.16-0.15-0.38-0.09-0.57-0.07
		c-1.76,0.14-3.52,0.06-5.28,0.1c-1.46,0.03-2.83,0.37-4.02,1.32c-0.12-0.25-0.2-0.43-0.28-0.6c-0.39,0.05-0.47,0.53-0.85,0.58
		c-0.18-0.06-0.24-0.21-0.24-0.37c-0.07-1.71,0.49-3.3,1.02-4.88c0.59-1.78,1.45-3.46,2.65-4.93c0.68-0.83,0.95-1.84,1.32-2.8
		c1.8-4.62,4.55-8.49,8.68-11.32c0.06-0.04,0.08-0.11,0.13-0.18c-0.21-0.26-0.56,0.12-0.77-0.18c-0.14-0.35,0.18-0.48,0.37-0.65
		c2.3-2.15,4.91-3.81,7.87-4.92c0.43-0.16,0.81-0.29,1.12-0.76c0.46-0.7,1.33-0.98,2.11-1.29c2.49-1,5.11-1.5,7.75-1.94
		c1.33-0.22,2.69-0.3,4.12-0.81c-0.58-0.2-1.04-0.34-1.49-0.52c-0.47-0.19-0.99-0.33-1.32-0.88c0.38-0.38,0.84-0.38,1.3-0.39
		c6.98-0.18,12.86-3.08,18.16-7.39c0.43-0.35,0.74-0.8,0.97-1.33c2.08-4.71,4.54-9.22,7.56-13.41c0.21-0.29,0.52-0.58,0.56-0.9
		c0.14-1.03,0.71-1.65,1.71-2c-0.21-1.16,0.4-1.87,1.26-2.5c0.85-0.63,1.03-1.72,1.65-2.55c-1.61,0.46-3.08,1.16-4.54,1.85
		c-4.04,1.92-8.06,3.89-12.13,5.75c-4.35,1.98-8.93,2.93-13.74,2.76c-10.21-0.36-17.15-8.18-18.76-16.04
		c-0.02-0.08-0.04-0.16-0.03-0.24c0.31-1.88-0.59-3.39-1.45-4.93c-0.68-1.22-1.09-2.56-1.49-3.97c-0.62,0.26-0.96,0.63-1.01,1.3
		c-0.04,0.68-0.33,1.29-0.67,1.89c-0.63,1.1-1.28,2.21-1.4,3.52c-0.04,0.51-0.46,0.7-0.93,0.91c0.8,1.54,0.4,3.24,1.06,4.79
		c0.66,1.54,0.45,3.3,0.82,4.94c0.37,1.63,0.74,3.26,1.09,4.89c0.16,0.75,0.16,1.49-0.03,2.25c-0.26,1.04-0.67,2.04-0.6,3.15
		c0.03,0.52-0.27,1-0.57,1.42c-0.48,0.69-0.88,1.42-1.27,2.17c-0.55,1.06-1.22,1.24-2.26,0.62c-0.34-0.21-0.62-0.31-0.99-0.21
		c-0.08,0.02-0.16,0.03-0.24,0.02c-1.29-0.2-2.49-0.06-3.78,0.35c-1.3,0.42-2.59-0.14-3.58-1.29c-1.75,0.82-3.21,0.28-4.44-1.12
		c-0.22-0.25-0.43-0.4-0.82-0.33c-2.14,0.39-3.54-0.83-4.55-2.42c-1.01-1.6-1.52-3.56-1.39-5.37c0.2-2.78,0.39-5.63,1.75-8.22
		c1.06-2.02,2.14-4.01,3.33-5.95c0.17-0.27,0.45-0.51,0.43-0.84c-0.04-0.56-0.29-1.19,0-1.64c0.25-0.37,0.74-0.61,0.84-1.08
		c0.31-0.12,0.4,0.12,0.57,0.19c0.39-0.64,0.42-0.68,0.11-1.01c-0.8-0.86-0.86-1.73-0.24-2.71c0.3-0.48,0.39-1.05,0.23-1.62
		c-0.14-0.49-0.1-0.98,0.09-1.41c0.29-0.65,0.12-1.07-0.34-1.57c-1.69-1.83-2.1-4.04-1.87-6.45c0.09-0.92,0.5-1.67,1.11-2.33
		c0.24-0.27,0.49-0.52,0.76-0.76c1.29-1.16,1.82-2.59,1.45-4.3c-0.26-1.24-0.11-2.48,0.11-3.69c0.2-1.07,0.64-2.06,1.48-2.81
		c1.8-1.6,2.93-3.56,3.17-5.98c0.32-3.22,1.99-5.76,4.06-8.09c0.29-0.33,0.57-0.62,0.68-1.09c0.82-3.4,2.8-6.13,5.09-8.68
		c1.5-1.67,3.17-3.17,5.07-4.37c0.56-0.35,0.95-0.86,1.34-1.36c1.56-2,3.47-3.34,6.08-3.63c1.52-0.17,2.89-0.88,4.18-1.69
		c0.2-0.12,0.42-0.21,0.57-0.42c1.31-1.77,3.19-2.6,5.26-3.05c1.65-0.35,3.05-1.13,4.26-2.29c0.58-0.55,1.17-1.09,1.76-1.63
		c1.24-1.16,2.67-1.88,4.4-1.89c0.37,0,0.73-0.09,1.02-0.3c1.18-0.84,2.47-1.27,3.87-1.15c1.69-3.02,4.17-4.62,7.56-4.79
		c0.24-0.01,0.56,0.04,0.69-0.1c0.72-0.7,1.48-0.97,2.5-0.64c0.52,0.17,1.24-0.6,1.33-1.21c0.22-1.54,0.12-3.11,0.37-4.66
		c0.08-0.48,0.19-0.91,0.36-1.3c0.48-0.06,0.64,0.25,0.84,0.48c1.17,1.32,2.14,2.79,3.04,4.3c0.37,0.63,0.75,0.84,1.44,0.6
		c0.37-0.13,0.78-0.12,1.25-0.18c0.8-2.07,0.64-4.42,1.62-6.6c0.67,0.49,0.92,1.13,1.27,1.69c0.68,1.08,1.27,2.22,1.82,3.37
		c0.6,1.24,0.59,1.25,2,1.01c0.2-0.03,0.39-0.08,0.64-0.12c0.78-1.95,1.24-4.04,2.17-6.14c1.25,1.82,1.8,3.79,2.66,5.62
		c1.79-0.88,3.54-1.73,5.28-2.58c1.23-0.6,2.37-1.31,3.07-2.57c0.36-0.65,0.99-0.88,1.82-0.82c-0.45-4.45-0.54-8.83-0.16-13.24
		c-1.96-1.15-3.44-2.69-4.54-4.59c-0.94-1.64-1.6-3.38-1.8-5.27c-0.08-0.81-0.31-1.5-1.02-2.06c-1.02-0.8-1.41-1.99-1.69-3.28
		c-0.65,0.34-0.46,1.06-0.78,1.52c-1.17-0.61-1.29-1.37-0.67-4.62c-1.32-0.29-2.69-0.49-3.61-1.75c1.36,0.22,2.65,0.26,3.79-0.57
		c0.55-0.4,1.03-0.87,1.32-1.71c-2.53,0.47-4.36-0.38-5.57-2.54c1.35,0.48,2.66,1.14,4.3,0.24c-1.82-0.52-2.51-1.65-2.45-3.53
		c0.74,0.69,1.18,1.58,2.28,1.28c-0.27-1.28-0.74-2.47-0.69-3.74c-0.38-0.18-0.51,0.18-0.73,0.29c-1.03,0.49-2.07,0.58-3.11,0.06
		c-1.71-0.84-3.26-3.59-3.12-5.68c0.34,0.34,0.37,0.72,0.49,1.05c0.49,1.38,1.36,2.44,2.68,3.07c1.74,0.83,3.13,0.03,3.34-1.87
		c0.29-2.53,0.57-5.07,1.69-7.41c0.52-1.08,1.1-2.13,1.87-3.06c0.36-0.43,0.5-0.85,0.52-1.4c0.12-3.5,0.9-6.86,2.24-10.09
		c0.27-0.66,0.67-1.27,1.1-1.85c0.98-1.31,2.14-1.63,3.66-1.01c0.9,0.37,1.67,0.94,2.37,1.59c1.91,1.77,3.66,3.68,5.2,5.9
		c3.64-1.23,7.18-1.28,10.5,1.1c-0.74-1.62-1.42-3.24-3.03-4.3c1.64-0.37,3.24,0.51,6.18,3.31c0.27-0.67-0.18-1.37,0.03-2.18
		c1.3,0.76,1.31,2.06,1.82,3.07c2.94-2.09,6.95-2.8,8.13-1.31c-1,0.47-2.19,0.49-3.18,1.47c2.76-0.22,5.1,0.47,7.15,2.1
		c2.32-1.57,4.76-2.8,7.42-3.6c0.39-0.12,0.77-0.2,1.17-0.22c1.16-0.07,1.56,0.18,2.03,1.26c0.64,1.46,0.83,3.63,0.44,5.38
		c-0.58-0.02-1.22-0.03-1.39,0.79c-0.24,1.15,0.44,1.57,1.42,1.69c-0.24,0.54-0.61,0.43-0.91,0.51c-0.5,0.14-0.87,0.47-0.96,0.97
		c-0.1,0.57,0.45,0.69,0.82,0.89c0.24,0.13,0.55,0.13,0.72,0.42c0,0.4-0.51,0.47-0.59,0.93c0.55,0.3,0.47,0.88,0.4,1.42
		c-0.12,0.91-0.2,1.84-0.45,2.71c-0.46,1.58-0.89,3.14-0.72,4.8c0.01,0.11-0.01,0.24-0.19,0.28c-0.43,0-0.15-0.61-0.65-0.67
		c-0.36,1.1-1.71,1.95-0.56,3.46c1.05,1.37,2.07,0.88,3.23,0.01c-0.39,2.09-1.68,2.43-4.05,1.97c-0.22,1.54-0.44,3.1-1.23,4.56
		c-0.32-0.43,0.01-0.82-0.24-1.14c-0.31,0.14-0.33,0.51-0.54,0.73c-0.5,0.54-0.78,1.06-0.21,1.78c0.63,0.8,1.37,1.17,2.26,1
		c0.97-0.18,1.58-0.89,2.37-1.68c-0.07,1.29-0.87,1.79-1.66,2.22c-1.47,0.81-2.96,0.94-4.38-0.19c0,1.76,1.03,2.65,3.16,2.74
		c-0.34,0.63-0.62,0.73-1.57,0.78c-0.62,0.03-1.2-0.38-2-0.12c0.54,0.37,1.45,0.41,0.93,1.3c-0.04,0.07,0.03,0.26,0.1,0.31
		c1.03,0.69,0.31,1.91,0.84,2.75c-0.4,2.14-0.21,4.38-1.12,6.45c-1.02,2.32-2.42,4.27-4.55,5.72c-1.62,1.1-2.93,2.6-4.56,3.7
		c-0.39,0.27-0.57,0.76-0.85,1.27c1.68,0.29,3.19,0.85,3.77,2.62c0.55,1.68,0.14,3.14-1.31,4.45c1.55,0.01,2.84-0.38,4.07-0.97
		c0.57-0.27,0.87-0.76,1.01-1.39c0.29-1.32,0.64-2.62,0.98-3.93c0.09-0.33,0.15-0.69,0.51-0.98c0.63,0.65,0.98,1.45,1.41,2.19
		c0.44,0.76,0.85,1.53,1.3,2.35c0.62-0.07,1.25-0.15,1.94-0.23c0.61-1.58,1.22-3.17,1.85-4.76c0.12-0.31,0.16-0.78,0.64-0.75
		c0.47,0.03,0.46,0.47,0.58,0.8c0.66,1.83,1.37,3.65,1.86,5.54c0.19,0.74,0.65,1.02,1.33,1.13c0.71,0.12,0.86-0.42,1.1-0.88
		c0.76-1.48,1.52-2.95,2.25-4.38c0.49,0,0.55,0.27,0.63,0.55c0.54,1.75,0.98,3.53,1.17,5.36c0.08,0.76,0.2,1.33,1.16,1.32
		c0.33,0,0.76,0.14,0.99,0.37c0.97,0.98,2.22,1.35,3.47,1.74c1.21,0.38,1.98,1.35,2.7,2.3c0.66,0.86,1.45,1.46,2.43,1.86
		c0.66,0.27,1.3,0.65,1.98,0.83c2.58,0.67,4.38,2.39,5.99,4.36c0.48,0.58,1.02,0.99,1.71,1.23c0.49,0.17,0.96,0.38,1.45,0.55
		c2.5,0.86,4.51,2.35,5.9,4.63c0.42,0.69,1,1.23,1.66,1.71c3.18,2.33,5.6,5.2,6.58,9.13c0.31,1.23,0.96,2.34,1.23,3.61
		c0.4,1.89,0.14,3.64-0.8,5.31c-1.22,2.17-2.83,3.97-5.03,5.18c-2.12,1.17-4.41,1.3-6.76,0.97c-0.24-0.03-0.47-0.16-0.7-0.16
		c-2.26-0.01-4.21-0.76-5.87-2.31c-0.37-0.35-0.92-0.47-1.42-0.6c-2.3-0.6-4.12-1.91-5.5-3.82c-1.39-1.92-3.12-3.5-4.93-5.02
		c-0.61-0.52-1.29-0.94-2.01-1.29c-0.65-0.31-1.3-0.61-1.66-1.31c-0.2-0.4-0.6-0.48-1.15-0.43c1.24,1.38,2.44,2.69,3.28,4.27
		c2.13,3.99,2.83,8.24,2.32,12.73c-0.41,3.63-1.66,6.87-4.14,9.6c-0.41,0.45-0.4,1.05-0.45,1.58c-0.45,5.35-1.76,10.51-3.25,15.64
		c-0.25,0.85-0.24,1.64-0.01,2.46c0.32,1.15,0.73,2.24,1.27,3.32c1.19,2.34,1.36,4.89,1.16,7.47c-0.1,1.2-1.08,1.56-2.05,1.96
		c0.99,4.47,1.57,8.97,1.61,13.53c0.02,2.44-0.14,4.87-0.41,7.3c-0.06,0.52-0.13,1.04,0.19,1.51c0.41,0.58,0.56,1.22,0.49,1.92
		c-0.04,0.34,0.05,0.59,0.36,0.81c0.37,0.25,0.65,0.61,0.59,1.11c-0.2,1.63,0.46,3.05,1.1,4.45c4.21,9.15,7.22,18.69,9.37,28.51
		c1.23,5.6,2.2,11.25,2.99,16.93c0.54,3.87,1.14,7.73,1.6,11.6c0.32,2.65,0.6,5.31,0.82,7.98c0.25,3.06,0.42,6.13,0.69,9.19
		c0.02,0.24,0.06,0.48,0.14,0.7c1.03,3.11,1.69,6.32,2.76,9.42c1.45,4.22,2.2,8.62,2.88,13.03c1.27,8.28,1.47,16.62,1.43,24.97
		c-0.02,4.15,0.49,8.26,1.2,12.35c0.06,0.36,0.24,0.68,0.43,0.98c1,1.58,1,3.21,0.32,4.91c-0.57,1.42-1.26,2.77-2.3,3.89
		c-0.6,0.64-0.7,1.26-0.52,2.06c0.95,4.19,2.33,8.25,3.66,12.33c1.25,3.82,2.67,7.58,4.39,11.22c1.03,2.19,2.65,3.88,4.64,5.19
		c2.89,1.92,5.54,4.07,7.19,7.22c1.74,3.33,2.28,6.85,1.63,10.55c-0.07,0.39-0.19,0.78-0.37,1.13c-0.39,0.79-0.64,1.58-0.62,2.49
		c0.02,1.07-0.95,2.07-2.07,2.34c-1.56,0.39-3.16,0.52-4.74,0.67c-7.11,0.68-14.2,0.75-21.28-0.4c-3.89-0.63-7.43-1.8-10.22-4.72
		c-1.02-1.07-2.1-2.12-2.1-3.76c0-2.29-0.3-4.6,0.21-6.87c0.77-3.47,0.68-6.97,0.31-10.48c-0.26-2.46-0.39-4.93-0.65-7.39
		c-0.41-3.92-0.83-7.84-1.52-11.73c-0.4-2.27-1.08-4.48-1.36-6.77c-0.04-0.3-0.15-0.54-0.36-0.73c-1.63-1.44-2.35-3.27-2.39-5.41
		c-0.04-2.25-1-4.24-1.9-6.23c-1.69-3.74-3.57-7.39-5.09-11.21c-2.48-6.24-4.23-12.67-5.16-19.33c-0.41-2.92-0.81-5.84-0.95-8.79
		c-0.01-0.16,0.02-0.35-0.06-0.47c-0.92-1.53-1.03-3.15-0.65-4.85c0.08-0.36-0.05-0.7-0.23-1.03c-0.26-0.45-0.44-0.95-0.74-1.37
		c-1.58-2.2-2.38-4.64-2.4-7.36c-0.01-0.87-0.33-1.69-0.96-2.38c-1.1-1.21-1.77-2.61-1.93-4.27c-0.13-1.38-0.92-2.53-1.58-3.71
		c-3.08-5.51-6.51-10.8-9.77-16.2c-4.46-7.4-8.12-15.15-10.28-23.55c-0.28-1.1-1.32-1.42-2.1-1.92c-0.42-0.27-0.76,0.31-0.75,0.89
		c0.03,1.36-0.06,2.71-0.17,4.07c-0.28,3.44-1.09,6.75-2.13,10.02c-1.75,5.48-4.16,10.69-6.39,15.97
		c-2.39,5.64-4.81,11.28-6.46,17.2c-0.27,0.96-0.29,1.9-0.16,2.84c0.18,1.3-0.07,2.48-0.77,3.53c-0.85,1.27-1.11,2.62-0.86,4.1
		c0.18,1.09-0.22,2.07-0.74,2.96c-0.68,1.18-0.91,2.36-0.8,3.74c0.36,4.83-0.56,9.53-1.73,14.19c-1.34,5.36-2.72,10.72-3.67,16.17
		c-0.6,3.41-0.95,6.86-1.33,10.31c-0.37,3.29-0.26,6.61-0.86,9.88C84.57,339.38,83.82,341.1,81.88,341.93z M70.72,109.44
		c3.06,1.56,5.85,3.26,8.21,5.58c0.43,0.43,0.83,0.36,1.29-0.04c-0.42-0.86-0.61-1.77-0.62-2.73c-0.02-1.41-0.64-2.6-1.56-3.66
		c-0.26-0.3-0.51-0.43-0.93-0.32c-0.75,0.21-1.52,0.12-2.23-0.19c-1.13-0.49-2.09-0.26-2.99,0.51
		C71.55,108.86,71.18,109.1,70.72,109.44z M128.2,72.51c-0.7-0.84-0.6-1.79-0.98-2.62c-1.06,0.35-2.09,0.31-3.12,0.25
		c-0.51-0.03-0.66,0.15-0.45,0.68c1.06-0.54,1.83,0.05,2.49,0.76C126.64,72.15,127.23,72.4,128.2,72.51z M135.53,12.19
		c-0.79-0.5-1.51-0.3-2.22-0.23C134,12.18,134.66,12.78,135.53,12.19z M138.77,43.14c0.08,0.32-0.08,0.85,0.6,0.81
		C139.37,43.51,139.16,43.28,138.77,43.14z"/>
</g>
<g>
	<path class="st0" d="M121.15,196.37c0.87,0.02,1.75-0.05,2.6,0.06c2.41,0.32,4.81,0.23,7.23,0.02c2.2-0.19,4.38-0.47,6.51-1.04
		c3.26-0.87,6.38-2.14,9.29-3.88c1.34-0.81,2.69-1.61,3.98-2.49c1.45-0.99,2.78-2.08,3.99-3.34c0.41-0.43,0.81-0.88,1.26-1.36
		c0.6,0.78,0.98,1.47,0.89,2.36c-0.04,0.44-0.02,0.83,0.49,1.1c0.39,0.2,0.52,0.68,0.46,1.14c-0.19,1.37,0.4,2.54,0.92,3.73
		c2.19,5.02,4.23,10.09,5.84,15.33c1.51,4.93,2.77,9.93,3.84,14.97c0.79,3.72,1.48,7.45,2.07,11.2c0.46,2.95,0.92,5.9,1.3,8.86
		c0.39,3.12,0.81,6.24,1.19,9.36c0.28,2.27,0.49,4.54,0.72,6.82c0.28,2.79,0.59,5.57,0.71,8.38c0.03,0.7,0.26,1.37,0.57,2.02
		c0.4,0.84,0.82,1.69,0.4,2.68c-0.09,0.2-0.08,0.49,0.1,0.68c1.07,1.19,1.3,2.74,1.76,4.17c1.04,3.24,1.71,6.58,2.37,9.91
		c0.36,1.85,0.48,3.74,0.79,5.6c0.35,2.02,0.27,4.09,0.69,6.1c0.02,0.08,0.02,0.16,0.01,0.24c-0.16,2.19,0.2,4.37,0.29,6.55
		c0.16,4.27,0.04,8.54,0.25,12.79c0.14,2.97,0.46,5.95,1.09,8.89c0.15,0.71,0.34,1.33,0.68,1.96c0.77,1.4,0.78,2.82,0.11,4.29
		c-2.21,4.89-6.23,7.3-11.25,8.38c-1.39,0.3-2.8,0.58-4.22,0.47c-3.34-0.27-6.63-0.73-9.43-2.84c-1.39-1.05-2.35-2.42-2.42-4.11
		c-0.13-2.99-1.18-5.64-2.4-8.29c-2.27-4.94-4.67-9.83-6.39-15c-1.04-3.15-1.88-6.36-2.57-9.62c-0.56-2.65-0.94-5.32-1.37-7.99
		c-0.23-1.43-0.52-2.93-0.43-4.33c0.11-1.59-0.58-2.84-0.96-4.22c-0.1-0.36-0.13-0.71-0.04-1.05c0.32-1.22,0.31-2.35-0.38-3.5
		c-0.75-1.24-1.55-2.45-2.17-3.77c-0.26-0.56-0.45-1.1-0.38-1.7c0.15-1.26-0.3-2.46-0.4-3.69c-0.05-0.59-0.78-1.13-1.23-1.68
		c-0.88-1.05-1.47-2.22-1.5-3.62c-0.03-1.45-0.91-2.57-1.58-3.74c-1.2-2.11-2.46-4.19-3.67-6.29c-1.35-2.34-2.85-4.59-4.24-6.91
		c-2.06-3.43-4.1-6.85-5.92-10.42c-2.1-4.12-3.88-8.36-5.29-12.77c-0.72-2.23-1.32-4.49-1.83-6.78c-0.09-0.42-0.01-0.87-0.01-1.37
		c3.8-0.92,6.85-3.14,9.71-5.68c1.51-1.34,2.95-2.77,4.54-4.01c1.44-1.12,2.57-2.53,3.92-3.72c0.24-0.22,0.32-0.5,0.46-0.93
		c-0.86,0.39-1.48,0.94-2.14,1.42c-1.83,1.33-3.24,3.12-4.9,4.63c-2.46,2.24-4.76,4.67-7.73,6.32c-0.94,0.52-1.94,0.76-2.95,0.93
		c-0.46,0.08-0.82,0.46-1.34,0.24c-0.27-0.29,0.03-0.53,0.28-0.79c3.15-3.31,4.99-7.28,5.89-11.73c0.15-0.72,0.55-1.39,0.38-2.46
		c-0.59,2.01-0.95,3.8-1.55,5.52c-0.64,1.83-1.55,3.52-2.45,5.21c-0.88,1.67-2.16,3.03-3.58,4.25c-1.09-0.71-1.26-1.87-1.59-2.81
		c-0.57-1.6-1.48-3.03-2.02-4.62c-0.65-1.9-1.74-3.58-2.69-5.32c-0.69-1.26-1.66-2.38-2.6-3.48c-1.83-2.15-3.82-4.15-5.87-6.1
		c-0.21,0.24-0.06,0.4,0.08,0.53c2.35,2.18,4.18,4.81,6.24,7.23c0.94,1.1,1.71,2.35,2.38,3.63c1.05,2.01,2.13,4.01,2.92,6.15
		c0.54,1.46,0.87,2.99,1.22,4.51c0.39,1.68,0.11,3.38,0.4,5.08c0.27,1.59-0.21,3.22-0.34,4.83c-0.15,1.84-0.56,3.63-1.01,5.42
		c-0.78,3.12-1.85,6.13-3.02,9.11c-1.97,5.02-4.27,9.91-6.28,14.92c-1.25,3.12-2.54,6.22-3.49,9.45c-0.45,1.54-0.91,3.06-1.22,4.64
		c-0.13,0.66,0.04,1.25,0.11,1.82c0.11,0.82-0.01,1.54-0.37,2.22c-0.4,0.76-0.68,1.59-1.24,2.28c-0.18,0.22-0.22,0.5-0.18,0.86
		c0.2,1.99,0.17,3.95-1.07,5.7c-0.48,0.68-0.44,1.44-0.39,2.32c0.11,1.85,0.17,3.72-0.1,5.6c-0.23,1.59-0.46,3.18-0.75,4.76
		c-0.59,3.28-1.53,6.47-2.27,9.7c-0.83,3.66-1.77,7.29-2.34,11.01c-0.37,2.41-0.76,4.81-0.95,7.24c-0.25,3.15-0.7,6.28-0.76,9.46
		c-0.03,1.46-0.2,2.96-0.65,4.41c-0.61,1.95-1.83,2.96-3.81,3.55c-3.91,1.16-7.89,1.33-11.87,1.09c-2.68-0.16-5.33-0.79-7.84-1.86
		c-1.6-0.68-3.16-1.38-4.43-2.61c-0.57-0.55-0.91-1.22-1.05-1.94c-0.23-1.18-0.29-2.4,0.05-3.59c0.73-2.51,0.75-5.03,0.43-7.62
		c-0.15-1.24-0.2-2.52-0.31-3.79c-0.16-1.76-0.41-3.51-0.63-5.27c-0.18-1.44-0.37-2.89-0.56-4.33c-0.22-1.71-0.37-3.43-0.68-5.14
		c-0.15-0.81-0.17-1.65-0.25-2.47c-0.41-4.33-0.45-8.69-0.22-13.03c0.22-4.02,1-8.01,2.21-11.87c0.55-1.76,0.31-3.49,0.21-5.28
		c-0.09-1.59,0.02-3.27,0.93-4.89c0.44,1.1,0.25,2.18,0.76,3.07c0.31-1.21,0-2.38-0.24-3.52c-0.22-1.04-0.28-2.1-0.55-3.12
		c-0.2-0.75,0.15-1.49,0.28-2.22c0.15-0.87,0.14-1.79,0.59-2.67c0.32,2.28,0.67,4.51,1.42,6.65c0.07-1.05-0.3-2.04-0.46-3.06
		c-0.16-1.09-0.38-2.16-0.42-3.27c-0.07-1.89-0.37-3.76-0.65-5.62c-0.12-0.78-0.21-1.58-0.24-2.35c-0.11-2.18-0.38-4.34-0.58-6.5
		c-0.37-3.93-0.49-7.86-0.41-11.79c0.07-3.08,0.31-6.15,0.66-9.22c0.43-3.79,1.11-7.52,1.96-11.23c1.41-6.19,3.35-12.2,5.84-18.03
		c1.11-2.59,2.18-5.2,3.51-7.69c1.59-2.97,3.26-5.9,5.32-8.58c0.22-0.28,0.43-0.58,0.44-0.95c0.02-0.72,0.37-1.2,1.03-1.43
		c0.55-0.19,0.74-0.56,0.66-1.1c-0.07-0.45,0.14-0.77,0.48-1.02c0.83-0.63,1.39-1.45,1.88-2.35c0.85-1.58,2.12-2.78,3.69-3.76
		c0.67,0.82,1.02,1.87,1.58,2.79c0.9,1.49,2.03,2.79,3.08,4.15c1.07,1.39,2.27,2.67,3.59,3.82c0.96,0.83,1.85,1.73,2.81,2.56
		c0.86,0.75,0.94,1.78,0.08,2.53c-0.12,0.1-0.24,0.21-0.38,0.33c0.14,0.3,0.06,0.72,0.54,0.76c-0.1,0.36-0.08,0.73-0.02,1.1
		c-0.33,0.07-0.67,0.15-0.88,0.43c-0.2,0.26-0.13,0.42,0.23,0.37c-0.16,0.27-0.46,0.5-0.31,0.88c-0.39,0.01-0.52,0.3-0.79,0.63
		c0.59-0.01,0.72-0.28,0.75-0.66c0.32-0.2,0.61-0.41,0.32-0.84c0.01-0.43,0.76-0.31,0.63-0.85c0.35-0.33,0.3-0.68,0.03-1.03
		c-0.02-0.27-0.11-0.55,0.05-0.81c0.62-1,0.62-1,0.69-1.97c1.53,1.09,3.01,2.18,4.52,3.21c5.12,3.48,10.63,6.17,16.57,7.92
		c2.21,0.65,4.49,0.99,6.74,1.48c-0.03,0.33-0.06,0.66-0.08,0.98c-0.24,0.13-0.21,0.35-0.17,0.57c-0.5,0.35-1.04,0.54-1.65,0.43
		c-1.08-0.19-2.15-0.43-3.23-0.61c-1.62-0.27-3.12-0.99-4.73-1.33c-0.12-0.17-0.25-0.3-0.42-0.05c0.15,0.09,0.3,0.07,0.46,0.02
		c-0.08,0.3,0.19,0.29,0.34,0.36c2.29,1.02,4.73,1.5,7.18,1.84c1.31,0.19,1.47,0.28,1.5,1.66c-0.24,0.19-0.27,0.45-0.41,0.91
		c0.54-0.37,0.45-0.66,0.38-0.95c0.7-0.31,0.07-0.91,0.26-1.33c1.09-0.2,2.12,0.23,3.18,0.24c2.14,0.02,4.27-0.13,6.38-0.33
		c0.79-0.07,1.66,0.01,2.41-0.41c0.3-0.17,0.82,0.3,0.95-0.33c0.42,0.01,0.9,0.32,1.2-0.24c0.42,0.01,0.9,0.32,1.21-0.24
		c0.21,0.04,0.44,0.18,0.63-0.14c-0.24-0.04-0.45-0.07-0.59,0.17c-0.39,0.13-0.86-0.15-1.21,0.23c-0.39,0.14-0.86-0.14-1.2,0.24
		c-2.85,0.42-5.71,0.62-8.6,0.53c-1.34-0.04-2.68-0.01-4.03-0.01c-0.02-0.31-0.03-0.51-0.04-0.71c0.3-0.11,0.24-0.34,0.18-0.57
		c0.26,0.16,0.53,0.41,0.74-0.05c0.19-0.42-0.11-0.44-0.4-0.52C121.32,196.7,121.32,196.43,121.15,196.37z M101.89,195.23
		c0.12,0.17,0.25,0.3,0.42,0.05c-0.15-0.09-0.3-0.07-0.46-0.02c0.02-0.42-0.26-0.27-0.47-0.25c0.03-0.28-0.09-0.32-0.32-0.21
		c0.05,0.19,0.22,0.15,0.35,0.18C101.5,195.21,101.71,195.19,101.89,195.23z M152.15,195.02c0.16-0.08,0.38-0.06,0.43-0.29
		c0.18-0.03,0.46,0.05,0.39-0.31c0.23,0.08,0.44,0.07,0.62-0.12c0.16-0.07,0.36-0.07,0.47-0.26c0.17-0.05,0.37-0.06,0.48-0.24
		c0.11-0.06,0.3-0.02,0.32-0.22c-0.24-0.08-0.35-0.02-0.29,0.25c-0.22-0.05-0.5-0.2-0.48,0.24c-0.23-0.05-0.51-0.19-0.47,0.25
		c-0.23-0.09-0.45-0.13-0.61,0.13c-0.17,0.05-0.45-0.03-0.39,0.31c-0.21-0.01-0.5-0.14-0.44,0.28c-0.23-0.09-0.45-0.13-0.61,0.13
		c-0.17,0.05-0.45-0.02-0.38,0.32c-0.15-0.05-0.3-0.07-0.45,0.03c0.18,0.23,0.31,0.12,0.42-0.06c0.18-0.05,0.46,0.03,0.38-0.32
		C151.77,195.22,151.98,195.21,152.15,195.02z M89.5,213.62c-0.05,0.15-0.07,0.3,0.03,0.45c0.23-0.18,0.12-0.31-0.06-0.42
		c-0.04-0.13,0.01-0.3-0.18-0.35C89.18,213.53,89.22,213.65,89.5,213.62z M160.21,335.87c0.13,0.24,0.35,0.21,0.57,0.18
		c0.12,0.46,0.47,0.21,0.73,0.23c0.23,0.56,0.65,0.21,0.99,0.21c0.21,0.57,0.57,0.22,0.89,0.12c-0.31-0.03-0.62-0.06-0.93-0.08
		c-0.28-0.33-0.66-0.14-0.99-0.2c-0.15-0.36-0.47-0.19-0.73-0.23c-0.11-0.3-0.34-0.24-0.56-0.18c0.05-0.28-0.07-0.33-0.3-0.23
		C159.91,335.87,160.08,335.83,160.21,335.87z M60.39,334.88c0.11,0.3,0.34,0.24,0.56,0.18c-0.06,0.42,0.36,0.41,0.54,0.48
		c2.97,1.07,6.07,1.52,9.19,1.73c1.66,0.11,3.33,0.11,4.98-0.23c1.39-0.28,2.74-0.66,4.23-1.36c-0.35-0.03-0.48-0.09-0.58-0.05
		c-3.55,1.51-7.26,1.55-11,1.14c-0.73-0.08-1.47-0.19-2.21-0.32c-1.77-0.31-3.46-0.92-5.2-1.35c-0.13-0.24-0.35-0.21-0.57-0.18
		c0.01-0.28-0.13-0.3-0.34-0.18C60.1,334.91,60.26,334.87,60.39,334.88z M170.12,327.94c0.19-0.02,0.38-0.03,0.51-0.21
		c0.17-0.07,0.39-0.04,0.44-0.28c0.45-0.02,0.92-0.01,1.09-0.57c0.23,0.09,0.45,0.13,0.61-0.13c0.18-0.04,0.39-0.02,0.47-0.25
		c0.19-0.01,0.39-0.02,0.52-0.2c0.39-0.24,1-0.18,1.08-0.82c0.42,0.1,0.67-0.04,0.72-0.48c0.33,0.08,0.59,0.05,0.64-0.37
		c-0.36-0.09-0.46,0.19-0.6,0.41c-0.36-0.01-0.57,0.18-0.72,0.48c-0.44,0.16-1.04,0.12-1.09,0.81c-0.22-0.05-0.49-0.22-0.51,0.21
		c-0.21-0.01-0.49-0.16-0.47,0.25c-0.23-0.08-0.44-0.07-0.62,0.12c-0.39,0.14-0.92,0.03-1.08,0.59c-0.21-0.01-0.5-0.15-0.45,0.27
		c-0.22-0.05-0.49-0.21-0.5,0.22c-0.15-0.05-0.3-0.07-0.45,0.03C169.88,328.24,170,328.13,170.12,327.94z M69.35,328.09
		c-0.08,0.23-0.07,0.44,0.12,0.62c0.15,0.29-0.06,0.67,0.27,1.04c-0.04-0.44,0.27-0.85-0.3-1.02c0.09-0.23,0.13-0.45-0.13-0.61
		c-0.04-0.12,0.01-0.3-0.19-0.34C69.02,328.02,69.07,328.14,69.35,328.09z M106.21,197.39c0.13,0.24,0.35,0.21,0.57,0.17
		c0.07,0.45,0.43,0.2,0.66,0.27c0.11,0.3,0.34,0.24,0.56,0.18c-0.01,0.5,0.41,0.21,0.61,0.33c0.12,0.17,0.25,0.3,0.42,0.05
		c-0.15-0.09-0.3-0.07-0.46-0.02c0-0.49-0.41-0.21-0.61-0.33c-0.13-0.24-0.35-0.21-0.57-0.17c-0.07-0.45-0.43-0.2-0.66-0.27
		c-0.11-0.3-0.34-0.24-0.56-0.18c0.05-0.39-0.24-0.27-0.44-0.28c-0.06-0.36-0.31-0.24-0.52-0.2c0-0.49-0.41-0.21-0.61-0.33
		c-0.12-0.17-0.25-0.3-0.42-0.05c0.15,0.09,0.3,0.07,0.46,0.02c0,0.49,0.41,0.21,0.61,0.33c0.11,0.23,0.31,0.21,0.52,0.2
		C105.79,197.39,106.03,197.34,106.21,197.39z M173.99,335.42c0.23-0.11,0.53,0,0.72-0.24c0.38-0.15,0.94,0,1.05-0.61
		c0.42,0.12,0.7,0.02,0.73-0.47c0.23,0.08,0.44,0.07,0.62-0.12c0.29-0.11,0.64-0.16,0.58-0.6c0.23,0.08,0.44,0.07,0.62-0.12
		c0.29-0.11,0.63-0.16,0.59-0.6c0.15,0.05,0.3,0.07,0.45-0.03c-0.18-0.23-0.31-0.12-0.42,0.06c-0.35,0.04-0.66,0.12-0.6,0.59
		c-0.23-0.09-0.45-0.13-0.61,0.13c-0.34,0.05-0.66,0.13-0.59,0.59c-0.23-0.09-0.45-0.13-0.61,0.13c-0.35-0.01-0.54,0.22-0.74,0.46
		c-0.41,0.1-0.93,0.01-1.05,0.61c-0.26,0.02-0.66-0.38-0.72,0.24c-0.23-0.09-0.45-0.13-0.61,0.13c-0.26,0.05-0.55-0.03-0.75,0.2
		c-1.11,0.23-2.21,0.53-3.32,0.67c-1.56,0.19-3.11,0.56-4.7,0.29c-0.56-1.39-1.41-2.67-1.27-4.25c0.06-0.71,0.33-1.38,0.29-2.1
		c0.33-0.33,0.18-0.7,0.08-1.06c-0.13,0.36-0.16,0.72-0.04,1.09c-0.07,0-0.2-0.01-0.21,0.01c-0.45,1.5-0.7,3.01-0.08,4.53
		c0.15,0.36,0.35,0.7,0.51,1.06c0.37,0.84,0.56,1.66,0.27,2.61c-0.19,0.65-0.38,1.47,0.44,1.98c-0.08,0.33-0.05,0.59,0.37,0.64
		c0.09-0.36-0.19-0.46-0.41-0.6c0.04-0.84-0.1-1.67-0.05-2.53c0.05-0.87,0.37-1.08,1.17-1.06c2.01,0.05,3.98-0.35,5.94-0.73
		c0.36-0.07,0.85-0.03,0.99-0.55c0.27,0,0.64,0.35,0.75-0.21C173.61,335.62,173.82,335.62,173.99,335.42z M60.94,256.34
		c-0.05,0.15-0.07,0.3,0.03,0.45c0.23-0.18,0.12-0.31-0.06-0.42c-0.05-0.18,0.05-0.4-0.26-0.66
		C60.75,256.02,60.41,256.32,60.94,256.34z M106.3,236.66c-0.05,0.15-0.07,0.3,0.03,0.45c0.23-0.18,0.12-0.31-0.06-0.42
		c-0.06-0.25,0.07-0.56-0.23-0.73c-0.59-2.31-1.8-4.32-3.11-6.26c-1.08-1.6-2.24-3.18-3.77-4.45c-0.19,0.44,0.16,0.56,0.33,0.73
		c1.44,1.46,2.64,3.1,3.71,4.85c0.88,1.44,1.6,2.94,2.35,4.44c0.12,0.24,0.1,0.65,0.53,0.65
		C106.08,236.2,105.78,236.56,106.3,236.66z M141.47,201.27c0.05-0.15,0.07-0.3-0.03-0.45c-0.23,0.18-0.12,0.31,0.06,0.42
		c0.05,0.26-0.04,0.55,0.2,0.76c0.16,0.64,0.32,1.29,0.47,1.93c0.08,1.45,0.42,2.88,0.32,4.35c-0.1,1.41,0.01,2.82-0.19,4.25
		c-0.21,1.43-0.65,2.8-0.82,4.23c-0.27,0.26-0.24,0.54-0.08,0.88c0.21-0.33,0.13-0.63,0.05-0.92c0.2,0.06,0.25-0.05,0.31-0.23
		c0.5-1.49,0.76-3.04,0.92-4.59c0.11-1.01,0.39-2.06,0.24-3.06c-0.14-0.95-0.11-1.89-0.21-2.83c-0.07-0.71-0.01-1.48-0.55-2.08
		c0.14-0.72,0.21-1.41-0.48-1.93C141.68,201.75,142.02,201.38,141.47,201.27z M109.88,198.78c-0.12-0.17-0.25-0.3-0.42-0.05
		c0.15,0.09,0.3,0.07,0.46,0.02c0.02,0.48,0.29,0.26,0.55,0.22C110.28,198.73,110.06,198.84,109.88,198.78z M138.19,222.81
		c0.26-0.14,0.52-0.28,0.36-0.68c-0.32,0.19-0.44,0.41-0.33,0.71c-0.27-0.04-0.57-0.12-0.46,0.37
		C137.97,223.13,138.12,223.01,138.19,222.81z M87.73,185.63c0.12,0.17,0.25,0.3,0.42,0.05c-0.15-0.09-0.3-0.07-0.46-0.02
		c-0.01-0.45-0.29-0.57-0.68-0.52c-0.1-0.37-0.41-0.53-0.69-0.75c-1.36-1.08-2.63-2.22-3.77-3.56c-1.02-1.19-1.93-2.48-3.06-3.62
		c-0.17,0.4-0.5,0.7-0.35,1.06c0.5,1.23,1.05,2.47,2.19,3.24c1.33,0.9,2.7,1.73,3.99,2.68c0.51,0.38,1,0.91,1.73,0.91
		C87.14,185.46,87.39,185.61,87.73,185.63z M75,331.58c0.07-0.51-0.18-0.87-0.72-1.37c0.19,0.67,0.28,1.1,0.75,1.34
		c0.02,0.63,0.61,0.82,0.93,1.23c0.71,0.98,1.22,2.16,2.58,2.45c-0.66-0.39-1.11-0.96-1.54-1.59c-0.24-0.35-0.51-0.82-1.07-0.84
		C76.08,332.05,75.5,331.84,75,331.58z M160.9,317.68c0.06-0.29,0.15-0.58-0.16-1.06c0.03,0.49-0.14,0.78,0.19,1.03
		c0.01,0.79,0.36,1.47,0.67,2.34C161.61,318.86,161.45,318.4,160.9,317.68z M125.26,235.34c-0.84,0.36-1.25,1.05-1.47,1.89
		c-0.84,0.66-1.3,1.54-1.49,2.57c-0.17,0.12-0.3,0.25-0.06,0.42c0.1-0.15,0.07-0.3,0.02-0.45c0.67-0.75,1.23-1.58,1.49-2.57
		c0.72-0.45,1.12-1.15,1.47-1.89c0.44-0.46,1.15-0.71,1.16-1.5c0.1-0.05,0.23-0.07,0.3-0.15c2-1.88,3.78-3.99,5.94-5.7
		c0.19-0.15,0.49-0.3,0.44-0.65c0.91-0.01,1.11-0.82,1.59-1.32c-0.65,0.31-1.14,0.79-1.56,1.35c-0.87,0.32-1.49,0.99-2.13,1.59
		c-1.36,1.27-2.66,2.62-3.96,3.95c-0.26,0.27-0.68,0.46-0.59,0.96C125.92,234.26,125.23,234.52,125.26,235.34z M88.3,201.62
		c-0.05,0.15-0.07,0.3,0.03,0.45c0.23-0.18,0.12-0.31-0.06-0.42c0.06-0.2-0.22-0.47,0.26-0.59c0.38-0.09,0.62-0.89,0.54-0.94
		c-0.54-0.28-0.17-0.58-0.11-0.88c0.08-0.36,0.15-0.63,0.58-0.82c0.25-0.11-0.11-0.68,0.13-1.1c0.43-0.74,0.78-1.53,1.07-2.34
		c0.45-1.27,1.05-2.56,0.25-3.99c-0.04,0.16-0.12,0.3-0.09,0.38c0.49,1.25,0,2.38-0.48,3.49c-1.35,3.08-2.67,6.16-3.29,9.49
		c-0.13,0.71-0.06,1.4,0.03,2.1c-0.03-1.29,0.49-2.47,0.63-3.72C87.84,202.37,87.88,201.88,88.3,201.62z M136.89,226.73
		c0.11-0.6,0.12-1.2-0.06-1.79c-0.08,0.59-0.27,1.19,0.09,1.76c-0.06,1.04,0.12,2.07,0.33,3.06c0.73,3.45,1.98,6.74,3.49,9.92
		c2.33,4.94,5.5,9.38,8.45,13.95c0.58,0.91,1.06,1.89,1.84,2.72c0.15-0.33-0.05-0.47-0.14-0.62c-1.35-2.38-2.91-4.64-4.39-6.94
		c-1.46-2.27-2.96-4.53-4.2-6.92c-2.47-4.74-4.53-9.63-5.13-15.01C137.15,226.69,137.01,226.71,136.89,226.73z M173.95,271.55
		c-0.18-1.98-0.41-3.98-1.17-5.92c-1.23-3.12-3.36-5.31-6.44-6.58c-2.12-0.88-4.31-1.25-6.62-0.98c-2.33,0.27-4.55,0.88-6.51,2.16
		c-3.29,2.15-4.64,5.44-4.95,9.19c-0.24,2.98,0.29,5.85,1.53,8.62c1.63,3.63,4.36,6.1,7.86,7.77c1.9,0.9,3.9,1.59,5.93,2.16
		c2.03,0.57,3.89,0.51,5.35-1.26c1.05-1.27,2.02-2.62,2.68-4.13C173.13,279.09,173.7,275.38,173.95,271.55z M62.78,272.12
		c-0.13,2.68,1.02,5.55,2.39,8.35c1.26,2.58,3.05,4.76,5.31,6.54c1.92,1.51,3.95,2.24,6.43,1.36c3.15-1.12,5.63-3.09,7.66-5.67
		c1.75-2.23,3.07-4.72,4.05-7.37c0.99-2.68,1.03-5.33-0.11-8c-1.48-3.5-3.76-6.17-7.45-7.4c-2.58-0.86-5.22-1.57-7.97-0.87
		c-2.37,0.61-4.66,1.47-6.43,3.23C64.1,264.83,62.76,267.93,62.78,272.12z M74.26,327.71c0.59-2.99,1.06-6,1.8-8.95
		c1.28-5.16,2.37-10.36,3.35-15.58c0.67-3.53,0.99-7.09,1.16-10.67c0.01-0.28-0.05-0.58,0.03-0.84c0.46-1.51,0.08-3.04,0.09-4.55
		c-0.14,1.11-0.03,2.23-0.16,3.33c-0.26,2.31-0.51,4.62-0.67,6.94c-0.06,0.91-0.17,1.82-0.31,2.7c-0.51,3.08-1.2,6.14-1.81,9.2
		c-0.97,4.83-2.26,9.59-3.09,14.44C74.42,325.02,74,326.31,74.26,327.71z M158.17,290.46c0.02,2.13-0.07,4.26,0.1,6.4
		c0.25,3.06,0.49,6.12,1.03,9.14c0.42,2.34,0.89,4.68,1.37,7.01c0.47,2.26,1.05,4.49,1.55,6.73c0.41,1.83,0.9,3.64,1.03,5.52
		c0.4-2.1-0.3-4.06-0.76-6.03c-0.97-4.22-2.05-8.42-2.74-12.71c-0.29-1.82-0.59-3.63-0.77-5.48c-0.22-2.31-0.49-4.62-0.65-6.93
		C158.25,292.91,158.4,291.68,158.17,290.46z M85.62,255.57c0.1,0.03,0.19,0.07,0.29,0.1c0.5-1.12,0.98-2.26,1.52-3.37
		c1.63-3.38,3.63-6.58,5.04-10.08c1.03-2.54,1.93-5.1,2.54-7.78c0.39-1.72,0.65-3.47,0.88-5.21c0.17-1.31,0.03-2.67,0.03-4
		c-0.08,0-0.16,0-0.24,0c0.15,2.31-0.12,4.59-0.5,6.84c-0.75,4.41-2.29,8.6-4.22,12.62c-1.36,2.82-2.95,5.53-4.27,8.37
		C86.29,253.89,85.97,254.74,85.62,255.57z M142.19,195.66c4-1.01,7.95-2.12,10.98-5.2c-0.06-0.11-0.15-0.28-0.24-0.45
		c-2.52,1.6-5.22,2.8-7.93,4C144.02,194.45,142.92,194.73,142.19,195.66z M94.64,220.91c0.09-0.08,0.18-0.16,0.27-0.24
		c1.33,1.33,2.65,2.67,3.98,4c-0.08,0.08-0.16,0.17-0.25,0.25C97.3,223.59,95.97,222.25,94.64,220.91z M79.41,336.44
		c0.91,1.38,1.33,2.8,0.44,4.37C81.01,339.51,80.82,337.73,79.41,336.44z M94.43,220.25c-0.23-0.53-0.6-0.89-1.08-1.13
		C93.54,219.66,93.96,219.99,94.43,220.25z M92.07,217.47c0.37,0.76,0.37,0.76,1.03,1.13C92.87,218.11,92.55,217.85,92.07,217.47z
		 M141.72,196.05c0.09-0.3-0.13-0.53-0.31-0.53c-0.19,0-0.39,0.23-0.32,0.52C141.3,196.19,141.51,196.2,141.72,196.05z
		 M91.65,273.81c0.32,0.19,0.44-0.01,0.56-0.15c0.1-0.11,0.35-0.19,0.19-0.44C92.01,273.27,91.86,273.55,91.65,273.81z
		 M135.8,224.86c0.5,0.23,0.59-0.26,0.83-0.44c-0.04-0.05-0.08-0.1-0.12-0.15C136.17,224.31,136.03,224.61,135.8,224.86z
		 M118.05,200.87c0.52,0.08,0.86,0.2,1.34-0.17C118.88,200.77,118.55,200.64,118.05,200.87z M92.98,278.27
		c-0.21,0.22-0.61,0.26-0.42,0.78C92.73,278.8,93.08,278.8,92.98,278.27z M117.39,200.6c-0.32-0.17-0.61-0.17-0.93,0
		C116.78,200.78,117.07,200.78,117.39,200.6z M115.27,200.37c0.22,0.14,0.43,0.21,0.61-0.06
		C115.67,200.23,115.46,200.18,115.27,200.37z M68.27,326.68c0.04-0.42-0.08-0.56-0.39-0.52C67.83,326.44,68.02,326.55,68.27,326.68
		z M119.81,202.5c0.14-0.22,0.21-0.43-0.06-0.61C119.67,202.1,119.62,202.3,119.81,202.5z M90.72,215.69
		c-0.16,0.42,0.15,0.38,0.31,0.49C91.09,215.88,90.97,215.74,90.72,215.69z M91.81,217.22c0.03-0.31-0.07-0.49-0.42-0.59
		C91.37,216.94,91.47,217.11,91.81,217.22z M112.37,199.67c0.17,0.13,0.33,0.15,0.47-0.05
		C112.67,199.49,112.51,199.47,112.37,199.67z M113.32,199.87c0.17,0.17,0.33,0.16,0.51,0.02
		C113.66,199.72,113.49,199.73,113.32,199.87z M114.28,200.11c0.17,0.17,0.33,0.16,0.51,0.02
		C114.62,199.96,114.45,199.97,114.28,200.11z M142.15,197.34c0.08-0.29,0.11-0.56,0-0.54
		C141.93,196.85,141.99,197.07,142.15,197.34z M150.13,195.9c0.07-0.03,0.13-0.06,0.2-0.09c-0.03-0.03-0.05-0.08-0.08-0.08
		c-0.07,0-0.14,0.02-0.21,0.03C150.07,195.8,150.1,195.85,150.13,195.9z M149.06,196.3c0.08,0.03,0.14,0.06,0.21,0.07
		c0.02,0,0.06-0.05,0.09-0.07c-0.05-0.04-0.1-0.1-0.16-0.1C149.16,196.19,149.11,196.26,149.06,196.3z M141.98,243.26
		c-0.03-0.07-0.05-0.14-0.08-0.2c-0.03,0.02-0.08,0.03-0.08,0.05c-0.01,0.07-0.02,0.15,0.01,0.2
		C141.87,243.38,141.94,243.35,141.98,243.26z M59.42,251.37c-0.04-0.05-0.07-0.11-0.11-0.16c-0.03,0.03-0.08,0.06-0.08,0.08
		c0.01,0.07,0.04,0.14,0.06,0.2C59.34,251.46,59.38,251.42,59.42,251.37z M60.62,255.24c-0.03-0.07-0.06-0.13-0.09-0.2
		c-0.03,0.03-0.08,0.05-0.08,0.08c0,0.07,0.02,0.14,0.03,0.21C60.53,255.3,60.57,255.27,60.62,255.24z M139.62,196.43
		c-0.05,0.04-0.11,0.07-0.16,0.11c0.03,0.03,0.06,0.08,0.08,0.08c0.07-0.01,0.14-0.04,0.2-0.06
		C139.7,196.51,139.66,196.47,139.62,196.43z M61.34,257.37c-0.04-0.05-0.07-0.11-0.11-0.16c-0.03,0.03-0.08,0.06-0.08,0.08
		c0.01,0.07,0.04,0.14,0.06,0.2C61.26,257.46,61.3,257.42,61.34,257.37z M61.58,258.12c-0.03-0.07-0.06-0.13-0.09-0.2
		c-0.03,0.03-0.08,0.05-0.08,0.08c0,0.07,0.02,0.14,0.03,0.21C61.49,258.18,61.53,258.15,61.58,258.12z M139.03,196.73
		c-0.08-0.02-0.15-0.06-0.21-0.04c-0.12,0.03-0.12,0.1-0.01,0.16c0.03,0.02,0.08,0.03,0.11,0.01
		C138.95,196.82,138.98,196.77,139.03,196.73z M138.31,196.99c-0.07-0.03-0.13-0.06-0.2-0.07c-0.02,0-0.06,0.04-0.09,0.06
		c0.04,0.04,0.09,0.11,0.13,0.11C138.21,197.09,138.26,197.02,138.31,196.99z M140.47,273.53c-0.08-0.02-0.15-0.06-0.21-0.04
		c-0.12,0.03-0.12,0.1-0.01,0.16c0.03,0.02,0.08,0.03,0.11,0.01C140.39,273.62,140.42,273.57,140.47,273.53z M91.27,274.25
		c-0.08-0.02-0.15-0.06-0.21-0.04c-0.12,0.03-0.12,0.1-0.01,0.16c0.03,0.02,0.08,0.03,0.11,0.01
		C91.19,274.34,91.22,274.29,91.27,274.25z M141.67,274.49c-0.08-0.02-0.15-0.06-0.21-0.04c-0.12,0.03-0.12,0.1-0.01,0.16
		c0.03,0.02,0.08,0.03,0.11,0.01C141.59,274.58,141.62,274.53,141.67,274.49z M90.02,275.02c0.08,0.03,0.14,0.06,0.21,0.07
		c0.02,0,0.06-0.05,0.09-0.07c-0.05-0.04-0.1-0.1-0.16-0.1C90.12,274.91,90.07,274.98,90.02,275.02z M142.39,274.97
		c-0.08-0.02-0.15-0.06-0.21-0.04c-0.12,0.03-0.12,0.1-0.01,0.16c0.03,0.02,0.08,0.03,0.11,0.01
		C142.31,275.06,142.34,275.01,142.39,274.97z M143.22,275.63c-0.05,0.04-0.11,0.07-0.16,0.11c0.03,0.03,0.06,0.08,0.08,0.08
		c0.07-0.01,0.14-0.04,0.2-0.06C143.3,275.71,143.26,275.67,143.22,275.63z M144.18,276.35c-0.05,0.04-0.11,0.07-0.16,0.11
		c0.03,0.03,0.06,0.08,0.08,0.08c0.07-0.01,0.14-0.04,0.2-0.06C144.26,276.43,144.22,276.39,144.18,276.35z M145.09,277.26
		c0.07-0.03,0.13-0.06,0.2-0.09c-0.03-0.03-0.05-0.08-0.08-0.08c-0.07,0-0.14,0.02-0.21,0.03
		C145.03,277.16,145.06,277.21,145.09,277.26z M145.86,277.55c-0.05,0.04-0.11,0.07-0.16,0.11c0.03,0.03,0.06,0.08,0.08,0.08
		c0.07-0.01,0.14-0.04,0.2-0.06C145.94,277.63,145.9,277.59,145.86,277.55z M137.06,197.26c0.08,0.03,0.14,0.06,0.21,0.07
		c0.02,0,0.06-0.05,0.09-0.07c-0.05-0.04-0.1-0.1-0.16-0.1C137.16,197.15,137.11,197.22,137.06,197.26z M90.79,280.27
		c-0.07-0.03-0.13-0.06-0.2-0.07c-0.02,0-0.06,0.04-0.09,0.06c0.04,0.04,0.09,0.11,0.13,0.11C90.69,280.37,90.74,280.3,90.79,280.27
		z M145.62,284.27c-0.05,0.04-0.11,0.07-0.16,0.11c0.03,0.03,0.06,0.08,0.08,0.07c0.07-0.01,0.14-0.04,0.2-0.06
		C145.7,284.35,145.66,284.31,145.62,284.27z M176.95,324.19c-0.07-0.03-0.13-0.06-0.2-0.07c-0.02,0-0.06,0.04-0.09,0.06
		c0.04,0.04,0.09,0.11,0.13,0.11C176.85,324.29,176.9,324.22,176.95,324.19z M111.19,199.13c-0.08-0.02-0.15-0.06-0.21-0.04
		c-0.12,0.03-0.12,0.1-0.01,0.16c0.03,0.02,0.08,0.03,0.11,0.01C111.11,199.22,111.14,199.17,111.19,199.13z M111.91,199.38
		c-0.08-0.03-0.14-0.06-0.21-0.07c-0.02,0-0.06,0.05-0.09,0.07c0.05,0.04,0.1,0.1,0.16,0.1
		C111.82,199.49,111.86,199.42,111.91,199.38z M142.87,199.38c-0.08-0.03-0.14-0.06-0.21-0.07c-0.02,0-0.06,0.05-0.09,0.07
		c0.05,0.04,0.1,0.1,0.16,0.1C142.78,199.49,142.82,199.42,142.87,199.38z M169.14,328.19c-0.05,0.04-0.11,0.07-0.16,0.11
		c0.03,0.03,0.06,0.08,0.08,0.08c0.07-0.01,0.14-0.04,0.2-0.06C169.22,328.27,169.18,328.23,169.14,328.19z M164.06,328.7
		c-0.03-0.07-0.05-0.14-0.08-0.2c-0.03,0.02-0.08,0.03-0.08,0.05c-0.01,0.07-0.02,0.15,0.01,0.2
		C163.95,328.82,164.02,328.79,164.06,328.7z M178.82,329.98c0.08,0.03,0.14,0.06,0.21,0.07c0.02,0,0.06-0.05,0.09-0.07
		c-0.05-0.04-0.1-0.1-0.16-0.1C178.92,329.87,178.87,329.94,178.82,329.98z M139.75,200.33c-0.08-0.02-0.15-0.06-0.21-0.04
		c-0.12,0.03-0.12,0.1-0.01,0.16c0.03,0.02,0.08,0.03,0.11,0.01C139.67,200.42,139.7,200.37,139.75,200.33z M91.33,279.9
		c0.07-0.03,0.13-0.06,0.2-0.09c-0.03-0.03-0.05-0.08-0.08-0.08c-0.07,0-0.14,0.02-0.21,0.03C91.27,279.8,91.3,279.85,91.33,279.9z
		 M81.37,172.98c-0.02,0.08-0.06,0.15-0.04,0.21c0.03,0.12,0.1,0.12,0.16,0.01c0.02-0.03,0.03-0.08,0.01-0.11
		C81.47,173.05,81.42,173.02,81.37,172.98z M81.87,173.7c-0.03,0.08-0.06,0.14-0.07,0.21c0,0.02,0.05,0.06,0.07,0.09
		c0.04-0.05,0.1-0.1,0.1-0.16C81.98,173.79,81.91,173.74,81.87,173.7z M82.46,174.62c-0.03-0.07-0.05-0.14-0.08-0.2
		c-0.03,0.02-0.08,0.03-0.08,0.05c-0.01,0.07-0.02,0.15,0.01,0.2C82.35,174.74,82.42,174.71,82.46,174.62z M83.18,175.58
		c-0.03-0.07-0.05-0.14-0.08-0.2c-0.03,0.02-0.08,0.03-0.08,0.05c-0.01,0.07-0.02,0.15,0.01,0.2
		C83.07,175.7,83.14,175.67,83.18,175.58z M80.18,183.58c0.08,0.03,0.14,0.06,0.21,0.07c0.02,0,0.06-0.05,0.09-0.07
		c-0.05-0.04-0.1-0.1-0.16-0.1C80.28,183.47,80.23,183.54,80.18,183.58z M90.27,214.98c-0.03,0.08-0.06,0.14-0.07,0.21
		c0,0.02,0.05,0.06,0.07,0.09c0.04-0.05,0.1-0.1,0.1-0.16C90.38,215.07,90.31,215.02,90.27,214.98z M99.06,193.31
		c-0.05,0.04-0.11,0.07-0.16,0.11c0.03,0.03,0.06,0.08,0.08,0.08c0.07-0.01,0.14-0.04,0.2-0.06
		C99.14,193.39,99.1,193.35,99.06,193.31z M99.62,193.9c0.08,0.03,0.14,0.06,0.21,0.07c0.02,0,0.06-0.05,0.09-0.07
		c-0.05-0.04-0.1-0.1-0.16-0.1C99.72,193.79,99.67,193.86,99.62,193.9z M100.63,194.34c-0.08-0.03-0.14-0.06-0.21-0.07
		c-0.02,0-0.06,0.05-0.09,0.07c0.05,0.04,0.1,0.1,0.16,0.1C100.54,194.45,100.58,194.38,100.63,194.34z"/>
	<path class="st0" d="M90.86,114.34c-0.34-0.41-0.89-0.36-1.32-0.6c0.42-4.89,1.69-9.6,3.35-14.18c1.65-4.56,3.81-8.92,6.01-13.27
		c0.71,0.49,0.4,1.23,0.53,1.8c0.46,2.1,0.66,4.26,1.07,6.38c0.4,2.04,0.52,4.12,0.89,6.17c0.15,0.84,0.19,1.72,0.27,2.59
		c0.23,2.39,0.41,4.79,0.72,7.18c0.14,1.09,0.17,2.22,0.21,3.31c0.07,2.19,0.23,4.37,0.35,6.55c0.18,2.99-0.03,5.98,0.23,8.95
		c0.2,2.27,0.13,4.53,0.16,6.8c0.01,0.59,0.47,1.12,0.16,1.8c-1.68-0.32-3.07-1.3-4.4-2.25c-1.74-1.24-3.25-2.76-4.41-4.59
		c-0.33-0.53-0.66-1.07-0.94-1.62c-0.43-0.84-0.9-1.65-1.81-2.1c-0.3,0.35-0.47,0.8-0.64,1.32c-0.47,1.44-1.21,2.79-1.66,4.23
		c-0.24,0.76-0.24,1.63-0.04,2.46c0.51,2.18,0.86,4.37,1.12,6.61c0.31,2.65,0.18,5.26-0.4,7.76c-0.48,2.06-0.94,4.16-1.64,6.19
		c-0.86,2.51-1.84,4.97-3.13,7.26c-1.45,2.57-3.21,4.92-5.58,6.82c-1.57,1.26-3.36,1.89-5.13,2.66c-1.99,0.86-3.94,1.84-5.9,2.79
		c-3.07,1.51-6.13,3.04-9.31,4.3c-2.25,0.89-4.55,1.59-6.95,1.9c-2.88,0.37-5.74,0.42-8.63-0.11c-2.6-0.48-4.94-1.45-7.07-2.98
		c-2.44-1.75-4.35-3.96-5.87-6.55c-0.79-1.35-1.33-2.79-1.8-4.28c-0.54-1.72-0.65-3.4,0.16-5.06l-0.03,0.04
		c0.48-0.39,0.88-0.84,0.99-1.48l-0.03,0.04c0.73-0.47,1.22-1.13,1.47-1.96l-0.03,0.04c0.67-0.14,0.84-0.69,0.99-1.24l-0.03,0.04
		c0.45-0.32,0.95-0.6,0.99-1.24l-0.03,0.04c0.15-0.04,0.32,0.02,0.44-0.13c0.67-0.87,1.3-1.76,2.01-2.59
		c0.37-0.44,0.86-0.77,0.94-1.39l-0.03,0.04c0.36-0.13,0.52-0.39,0.51-0.76l-0.03,0.03c0.59-0.35,0.79-1.04,1.36-1.44
		c0.8-0.56,1.75-0.61,2.61-0.94c2.37-0.91,4.88-0.57,7.31-0.44c1.21,0.07,2.48,0.57,3.69,1.02c3.43,1.26,6.29,3.32,8.78,5.95
		c0.95,1,1.87,2.06,3.15,2.69c0.58,0.29,1.11,0.35,1.8,0.2c3.69-0.8,6.96-2.54,9.95-4.71c2.22-1.61,4.2-3.62,5.08-6.35
		c0.42-1.29,0.74-2.67,0.84-3.99c0.16-1.98,0.44-4.04-0.39-6c-0.57-1.34-1.41-2.52-2.24-3.7c-0.75-1.08-1.74-1.95-2.65-2.9
		c-1.95-2.04-4.2-3.71-6.65-5.06c-3.05-1.68-6.21-3.17-9.55-4.2c-2.8-0.86-5.62-1.7-8.54-2.02c-1.7-0.18-3.43-0.05-5.15-0.04
		c-0.61,0-1.18-0.05-1.66-0.59c2.18-1.37,4.11-3.13,6.73-3.66c1.15-0.23,2.28-0.55,3.41-0.85c2.25-0.59,4.07-1.97,5.94-3.24
		c1.46-0.99,3.03-1.61,4.85-1.52c1.17,0.06,2.39,0.22,3.5-0.37c0.35-0.19,0.54,0.07,0.75,0.17c2.7,1.29,5.17,2.95,7.52,4.79
		c0.25,0.2,0.45,0.45,0.68,0.68c0.33,0.32-0.01,0.46-0.28,0.76c1.15-0.29,2.2-0.5,3.22-0.81c1.93-0.6,3.89-0.93,5.92-0.89
		c1.1,0.02,2.22,0.09,3.3-0.25c-0.05,0.53,0.22,0.56,0.62,0.41C91.4,114.38,91.17,114.29,90.86,114.34z M92.62,116.18
		c-0.05,0.15-0.07,0.3,0.06,0.51c0.12-0.22,0.13-0.37-0.1-0.47c-0.02-0.19-0.03-0.38-0.21-0.51c-0.06-0.11-0.02-0.3-0.23-0.31
		c-0.08,0.24-0.01,0.35,0.25,0.29C92.36,115.9,92.19,116.17,92.62,116.18z M33.39,161.09c1.62,0.11,3.12-0.07,4.62,0.25
		c2.09,0.45,4.16,0.94,6.19,1.63c1.75,0.59,3.42,1.32,5.04,2.17c0.29,0.15,0.58,0.44,0.99,0.23c0.81-0.42,1.09-2.23,0.36-2.78
		c-0.4-0.3-0.79-0.63-1.23-0.91c-2.39-1.48-4.91-2.63-7.67-3.22c-1.62-0.35-3.28-0.44-4.92-0.41c-0.48,0.01-1.16-0.05-1.59,0.47
		C34.53,159.31,33.88,160.08,33.39,161.09z M52.46,159.27c0.3-0.32,0.4-0.61,0.53-0.89c0.75-1.52,0.7-1.61-0.63-2.6
		c-1.1-0.82-2.26-1.43-3.55-1.94c-2.88-1.12-5.75-1.93-8.88-1.38c-1.31,0.23-2.46,1.76-2.18,3.05
		C43.14,154.76,47.91,156.44,52.46,159.27z M64.99,115.04c-0.29,0.08-0.68-0.09-1.06,0.16c-0.3,0.2-0.64,0.29-0.64,0.74
		c-0.01,0.41,0.23,0.57,0.52,0.82c0.6,0.51,1.32,0.66,2.01,0.87c0.7,0.2,1.29-0.34,1.31-1.08C67.15,115.52,66.5,115.04,64.99,115.04
		z M58.06,161.6c0.64-0.01,1.15-0.5,1.14-1.07c-0.01-0.49-0.77-1.11-1.36-1.08c-0.59,0.03-1.11,0.15-1.04,0.94
		C56.88,161.24,57.25,161.62,58.06,161.6z M92.95,117.81c0.32,1.41-0.06,2.84,0.24,4.22C93.19,120.61,93.49,119.18,92.95,117.81z
		 M92.43,125.52c0.17-0.3,0.18-0.52,0.03-0.74C92.26,124.98,92.31,125.19,92.43,125.52z M92.7,123.58
		c-0.21,0.22-0.14,0.44-0.02,0.72C92.85,124.01,92.84,123.79,92.7,123.58z M92.92,122.57c-0.13,0.22-0.18,0.37,0.03,0.49
		C93.07,122.91,93.07,122.77,92.92,122.57z M92.63,117.06c0.08,0.15,0.15,0.3,0.36,0.28C93.06,116.93,92.89,116.94,92.63,117.06z
		 M92.22,126.71c0.03-0.07,0.06-0.13,0.07-0.2c0-0.02-0.04-0.06-0.06-0.09c-0.04,0.04-0.11,0.09-0.11,0.13
		C92.12,126.61,92.18,126.66,92.22,126.71z"/>
	<path class="st0" d="M117.08,28.14c0.06,0.51,0.55,0.54,0.86,0.71c1.45,0.75,2.9,1.49,4.65,2.04c-6.56,1.2-13.64-4.13-14.51-10.29
		c-0.89-0.09-2.16,0.87-2.54,2c-0.65,1.95-0.89,3.92-0.13,5.92c-1.98-1.81-1.83-4.23-1.82-6.77c-0.37,0.47-0.2,0.92-0.4,1.29
		c-0.17,0.31-0.08,0.78-0.08,1.18c0.01,0.97-0.46,1.82-0.74,2.7c-0.62,1.91-0.98,3.86-1.23,6.11c-0.24-0.78-0.39-1.3-0.55-1.82
		c0.19,2.97,1.52,5.42,3.56,7.82c-2.58-1.01-3.69-3.01-4.64-5.13c-0.94-2.09-1.18-4.34-1.37-6.59c-0.98,1.78-0.65,7.45,0.59,11.73
		c-1.08-0.94-2-2.46-2.67-4.34c-0.61-1.73-0.84-3.5-0.9-5.32c-0.05-1.8,0.51-3.45,0.9-5.14c-2.14,4.3-1.38,8.52,0.53,12.87
		c-2.22-1.24-3.43-3.09-4.31-5.22c-0.91-2.2-0.93-4.49-0.6-6.79c0.33-2.29,1.28-4.3,3.04-5.9c-1.85,1.17-2.67,2.98-3.32,4.91
		c0.23-5,2.29-9.05,6.32-12.04c4.08-3.02,8.57-3.53,13.37-1.9c-0.81-0.76-1.85-0.74-2.87-1.08c2.07-1.2,4.24-1.77,6.52-1.47
		c2.22,0.29,4.28,1.14,5.94,2.79c-0.41-1.89-1.48-3.38-2.47-5.14c2.64,0.85,4.18,2.66,5.38,4.92c-0.35-1.11,0.19-2.23-0.26-3.28
		c0.93,0.85,0.9,1.99,0.93,3.3c2.08-2.28,4.63-2.94,7.47-2.86c-1.45,0.77-2.91,1.5-4.19,2.8c4.6-1.54,7.72,0.2,9.56,2.13
		c-1.97-0.94-3.93-0.96-6.05,0.06c0.81,0.4,1.58,0.29,2.26,0.44c2.76,0.6,5.25,1.7,7.19,3.75c2.61,2.75,4.31,6.04,5.08,9.78
		c0.08,0.4,0.43,0.78,0.12,1.33c-0.82-1.81-2.08-3.25-3.46-4.65c1.56,2.43,1.83,5.1,1.61,8.1c-0.61-1.61-1.03-3.07-2.04-4.28
		c1.48,3.14,2.31,6.34,1.3,9.94c-0.31-0.91-0.53-1.7-0.84-2.46c-0.84-2.08-2.29-3.63-4.15-4.83c-1.18-0.76-2.25-1.68-3.54-2.26
		c-0.25-0.33-0.46-0.71-0.96-0.72c-0.17-0.23-0.28-0.56-0.69-0.35c0.19,0.31,0.42,0.43,0.73,0.31c0.14,0.47,0.37,0.84,0.96,0.72
		c0.05,0.45,0.42,0.58,0.74,0.8c1.7,1.19,3.48,2.28,4.9,3.85c0.91,1,1.61,2.08,1.98,3.55c-2.75-2.19-5.97-2.97-9.05-4.08
		c-2.59-0.93-5.07-2.08-6.99-4.14c-0.15-0.16-0.27-0.41-0.57-0.35c0.08-0.33,0.05-0.59-0.41-0.64c-0.01,0.33,0.2,0.48,0.44,0.61
		c0.17,0.81,0.83,1.33,1.42,1.68c1.45,0.86,1.68,2.17,1.71,3.62c0.01,0.24,0,0.48,0,0.92c-0.66-1.26-1.09-2.44-2.08-3.27
		c0.8,1.42,1.67,2.81,1.83,4.76c-1.05-1.88-2.39-3.2-3.86-4.39c-1.48-1.19-2.94-2.4-4.65-3.27c1.68,1.57,3.66,2.78,5.31,4.39
		c-2.42-0.74-4.89-1.3-7.12-2.55c-0.36-0.2-0.7-0.52-1.18-0.47c-0.09-0.35-0.34-0.5-0.68-0.52c-0.12-0.17-0.25-0.3-0.42-0.05
		c0.15,0.09,0.3,0.07,0.46,0.02C116.41,28.07,116.68,28.19,117.08,28.14z"/>
	<path class="st0" d="M100.95,81.74c0.83,1.09,1.25,2.1,1.69,3.09c2.04,4.48,3.87,9.03,5.33,13.74c1.69,5.49,3.16,11.02,4.32,16.65
		c0.55,2.68,1.13,5.36,1.58,8.05c0.33,1.97,0.6,3.96,0.84,5.95c0.24,1.99,0.31,3.99,0.61,5.98c0.2,1.34,0.05,2.72,0.05,4.09
		c0,1.16,0.04,2.32-0.01,3.48c-0.15,3.77-0.35,7.53-0.52,11.3c-0.11,2.45-0.29,4.9-0.49,7.34c-0.17,2.03-0.4,4.07-0.61,6.1
		c-0.2,1.96-0.36,3.93-0.58,5.89c-0.19,1.75-0.24,3.53-0.64,5.26c-0.2,0.87-0.1,1.8-0.25,2.71c-0.42,2.67-0.69,5.36-1.18,8.03
		c-0.2,1.11-0.43,2.22-0.64,3.44c-1.57-0.43-2.95-1.13-4.45-1.84c0-1.07,0-2.18,0-3.29c0-2.48-0.01-4.96,0-7.44
		c0.01-3.43-0.21-6.85-0.3-10.27c-0.09-3.28-0.32-6.57-0.46-9.86c-0.14-3.21-0.33-6.41-0.47-9.62c-0.12-2.65-0.22-5.31-0.5-7.94
		c-0.39-3.65-0.24-7.31-0.48-10.94c-0.18-2.67,0.04-5.34-0.22-7.99c-0.2-2.03-0.06-4.06-0.23-6.07c-0.18-2.17-0.27-4.35-0.5-6.5
		c-0.29-2.74-0.5-5.48-0.85-8.22c-0.28-2.18-0.51-4.38-0.81-6.56c-0.48-3.41-1.13-6.8-1.72-10.2c-0.03-0.18-0.18-0.31-0.09-0.54
		C99.81,84.32,100.52,83.2,100.95,81.74z"/>
	<path class="st0" d="M134.31,88.86c0.02,0.69,0.52,1.14,0.85,1.65c1.9,2.87,3.66,5.84,5.37,8.82c1.09,1.9,2.16,3.82,3.13,5.79
		c2.29,4.69,4.06,9.56,5.06,14.69c0.44,2.27,0.8,4.55,1.02,6.87c0.15,1.59,0.15,3.17,0.17,4.75c0.01,0.68,0.37,1.29,0.27,1.99
		c-0.06,0.39-0.1,0.75-0.55,0.79c-1.25,0.1-2.45,0.55-3.73,0.52c-3.15-0.07-6.01-1.07-8.7-2.58c-2.32-1.3-4.42-2.93-6.15-4.95
		c-1.2-1.4-2.47-2.75-3.43-4.34c-0.18-0.3-0.26-0.57-0.24-0.88c0.11-2.38-0.16-4.71-0.75-7.08c0.66,0.14,0.83,0.8,1.39,1
		c0.57-1.09,0.33-2.19,0.05-3.4c0.56,0.05,0.74,0.88,1.34,0.54c0.16-0.94-0.05-1.55-1.05-2.99c0.74-0.43,1.52-0.8,2.21-1.3
		c0.66-0.48,1.33-1.02,1.34-2.12c-1.43,0.2-2.68-0.35-4.01-0.84c0.9-0.87,1.5-1.89,1.6-3.16c-0.53-0.1-0.81,0.39-1.4,0.35
		c1.26-1.71,1.97-3.54,1.88-5.86c-0.99,1.19-2.28,1.35-3.51,1.89c0.01-1.15,0.46-2.23-0.07-3.38c-0.32,0.38-0.57,0.69-0.87,1.05
		c-0.39-1.36-0.36-2.9-1.75-3.82c-0.42,0.48-0.05,1.11-0.65,1.37c-0.47,0.06-0.58-0.36-0.66-0.76c-0.38-1.87-1.9-3.56-0.9-5.76
		c1.03,0.59,1.71-0.12,2.35-0.61c1.56-1.2,3.24-2.22,4.79-3.42c0.45-0.35,0.61-0.78,0.91-1.19c0.67,0.24,0.66,1.16,1.36,1.37
		l-0.03-0.03c0.2,1.13,1.15,1.8,1.69,2.73c0.34,0.58,0.48,1.35,1.23,1.63l-0.03-0.04c-0.01,0.38,0.16,0.63,0.51,0.76L134.31,88.86z"
		/>
	<path class="st0" d="M130.98,83.86c-0.27-1.13-1.29-1.75-1.86-2.68c-0.31-0.51-0.7-0.98-1-1.5c2.44,1.6,4.44,3.67,6.43,5.74
		c2.36,2.44,4.94,4.64,7.33,7.05c3.79,3.83,7.18,7.98,9.87,12.63c1.83,3.17,3.33,6.52,4.49,10.02c0.77,2.35,1.39,4.73,1.78,7.14
		c0.36,2.25,0.48,4.54,0.13,6.86c-0.24,1.58-0.3,3.21-0.51,4.82c-0.43,3.31-1.15,6.56-2.03,9.76c-0.95,3.46-1.97,6.91-3.2,10.29
		c-1.45,3.96-2.87,7.94-4.66,11.77c-1.25,2.69-2.48,5.39-3.83,8.03c-1.81,3.55-3.42,7.19-5.41,10.65c-1.77,3.09-3.56,6.17-5.55,9.13
		c-0.09,0.13-0.25,0.23-0.3,0.37c-0.72,2.08-2.38,2.32-4.21,2.21c-0.31-0.49,0.05-0.81,0.21-1.13c1.69-3.48,3.42-6.95,5.1-10.44
		c1.15-2.37,2.26-4.77,3.33-7.17c0.3-0.68,0.95-1.12,1.17-1.84c0.07-0.22,0.34-0.43,0.32-0.61c-0.06-0.41-0.26-0.82,0.41-0.86
		c-0.1-0.51,0.22-0.88,0.38-1.32c2.66-7,5.78-13.82,7.93-21.02c0.98-3.3,1.72-6.65,2.4-10.02c0.91-4.49,0.82-9.02,0.63-13.53
		c-0.12-3-0.64-5.99-1.28-8.96c-0.63-2.95-1.47-5.83-2.53-8.63c-1.12-2.96-2.51-5.82-4.05-8.6c-2.4-4.32-4.99-8.51-7.68-12.65
		c-0.13-0.21-0.26-0.39-0.5-0.48l0.03,0.04c0.01-0.38-0.16-0.63-0.51-0.76l0.03,0.04c-0.72-1.62-1.66-3.1-2.91-4.36L130.98,83.86z"
		/>
	<path class="st0" d="M124.36,97.15c0.43-1.08,0.43-1.08-0.83-2.44c0.18-0.34,0.28-0.75,0.28-1.22c1.17,1.28,1.34,2.3,0.77,4.72
		c0.5-0.04,0.49-0.57,0.8-0.76c0.33-0.2,0.52-0.6,0.9-0.78c0.12,0.96-0.14,1.81-0.97,3.22c1.48-0.33,2.73-1.18,4.15-1.56
		c-0.15,2.01-0.91,3.68-3.1,5.54c0.99,0.21,1.74-0.32,2.68-0.63c-0.54,1.12-0.82,2.23-2.11,2.58c1.1,0.58,3.39,1.28,4.46,1.36
		c-1.03,1.37-2.34,2.21-4.1,2.52c0.73,0.89,1.52,1.52,1.72,2.6c-0.76-0.29-1.33-1-2.23-0.82c1.07,0.91,1.18,2.09,1.03,3.37
		c-1.52-0.41-1.79-1.77-2.24-2.96c-1.07-2.82-2.76-5.26-4.56-7.64c-0.3-0.39-0.44-0.95-1.08-1.19c0.24,0.82,0.81,1.36,1.2,2
		c0.94,1.49,2.03,2.9,2.84,4.45c1.16,2.22,2.03,4.57,2.43,7.06c0.25,1.56,0.56,3.12,0.47,4.7c-0.24,4.2-1.43,8.06-4.08,11.43
		c-1.7,2.15-3.78,3.76-6.2,4.98c-0.1,0.05-0.21,0.1-0.33,0.12c-0.07,0.02-0.16-0.01-0.36-0.02c-1.16-17.85-5.13-35.07-12-51.67
		c0.22-0.21,0.52-0.17,0.81-0.06c3.12,1.18,6.4,1.74,9.63,2.49c1.36,0.32,2.6,0.68,3.3,1.87c0.33,0.57,0.64,0.87,1.22,0.82
		c0.51-0.04,0.64,0.3,0.74,0.61c0.3,0.93,0.54,1.87,0.79,2.81c0.1,0.37,0.17,0.74-0.06,1.1c-0.35,0.55-0.22,1.18-0.13,1.74
		c0.15,0.95,1.15,1.24,1.88,0.59c0.3-0.26,0.57-0.56,0.88-0.81c0.11-0.08,0.3-0.06,0.49-0.09c-0.18-0.45-0.71-0.48-0.83-0.94
		c-0.45,0.25-0.25,0.61-0.32,0.89c-0.12,0.46-0.39,0.82-0.88,0.8c-0.53-0.02-0.56-0.47-0.55-0.89c0-0.16-0.04-0.33,0.01-0.48
		c0.77-2.48-0.76-4.55-1.23-6.81c-0.05-0.24-0.28-0.34-0.5-0.46c-0.78-0.42-1.4-0.99-1.6-1.97c0.27-0.19,0.57-0.42,0.88-0.64
		c0.51,0.13,0.68,0.7,1.14,0.86c0.12-0.32,0.22-0.66,0.37-0.97c0.13-0.26,0.37-0.43,0.69-0.36c0.31,0.07,0.49,0.29,0.47,0.6
		c-0.04,0.55,0.14,1.1-0.16,1.64c-0.36,0.66-0.24,1.33,0.02,2.02c0.25,0.65,0.44,1.33,0.63,2.01c0.3,1.1,0.6,2.16,1.73,2.78
		C123.92,95.64,124.2,96.3,124.36,97.15z"/>
	<path class="st0" d="M83.5,98.2c-0.51-0.04-0.72,0.46-1.2,0.69c-0.19-0.9,0.34-1.61,0.58-2.31c0.94-2.73,2.09-5.39,3.46-7.93
		c1.86-3.45,3.81-6.85,6.34-9.88c0.27-0.32,0.51-0.56,0.88-0.69c1.96-0.66,3.78-1.65,5.55-2.69c0.77-0.45,1.41-1.15,1.89-1.95
		c0.28-0.48,0.67-0.79,1.34-0.57c0.29,1.88,0,3.72-0.58,5.54c-1.37,4.31-3.59,8.23-5.52,12.29c-1.34,2.82-2.76,5.62-3.71,8.61
		c-0.03,0.1-0.15,0.18-0.29,0.34c-0.56-0.82-1.23-1.51-2.06-2.02c-2.05-1.24-5.09-1.18-6.7,0.59L83.5,98.2z"/>
	<path class="st0" d="M158.88,128.85c0.12-13.83-5.79-24.89-14.56-35.01c1.47,0.64,2.21,2.43,4.02,1.81
		c1.18,3.25,3.56,5.3,6.77,6.52c1.5,0.57,2.46,1.85,3.44,3.03c2.13,2.56,3.32,5.59,3.77,8.84c0.25,1.81,0.42,3.64,0.15,5.54
		c-0.35,2.53-0.98,4.89-2.19,7.14C159.91,127.41,159.4,127.96,158.88,128.85z"/>
	<path class="st0" d="M29.46,162.54c-0.32,0.06-0.42,0.49-0.79,0.48c-3.88-5.23-3.99-13.57-0.29-17.97
		c2.32,3.28,5.25,5.63,9.41,6.13c0.12,0.28-0.29,0.51-0.2,0.84l0.03-0.03c-0.35,0.13-0.52,0.39-0.51,0.76l0.03-0.04
		c-1.03,0.69-1.7,1.72-2.4,2.71c-0.33,0.47-1,0.71-0.99,1.41l0.03-0.04c-0.45,0.32-0.95,0.6-0.99,1.24l0.03-0.04
		c-0.45,0.32-0.95,0.6-0.99,1.24l0.03-0.04c-0.73,0.47-1.15,1.18-1.47,1.96l0.03-0.04c-0.6,0.31-0.89,0.84-0.99,1.48L29.46,162.54z"
		/>
	<path class="st0" d="M61.6,86.21c1.44-1.83,3.17-2.97,5.32-3.48c0.48-0.11,0.85-0.1,1.17,0.28c1.75,2.07,3.27,4.3,4.18,6.86
		c0.34,0.95,0.52,1.98,0.58,2.99c0.06,1.2-0.41,2.27-1.59,2.77c-1.1,0.47-2.23,0.34-3.27-0.26c-2.9-1.65-4.41-4.38-5.66-7.31
		C62.07,87.45,61.85,86.83,61.6,86.21z"/>
	<path class="st0" d="M143.73,86.17c-0.88,1.45-1.06,2.94-0.19,4.63c-1.2-0.5-1.97-1.29-2.82-1.92c-2.63-1.92-5.26-3.83-7.78-5.88
		c-2.43-1.97-4.87-3.93-6.99-6.24c-0.94-1.03-1.39-2.35-1.92-3.61c-0.19-0.46-0.26-0.97-0.39-1.47c0.83-0.5,1.29-0.5,1.92,0.17
		c0.64,0.7,1.39,1.04,2.32,1.25c1.35,0.3,2.59,1.04,3.99,1.24c0.28,0.04,0.52,0.27,0.66,0.6c1.15,2.73,2.31,5.47,3.51,8.18
		c0.27,0.62,0.44,1.37,1.15,1.66c0.58-0.08,0.4-0.66,0.71-0.95C139.89,84.4,141.97,84.8,143.73,86.17z"/>
	<path class="st0" d="M76.24,361.75c-0.2,1.02,0.34,2.11,0.22,3.32c-4.22,0-8.36,0-12.6,0c0-1.02,0-2.08,0-3.32
		C67.91,361.75,71.99,361.75,76.24,361.75z"/>
	<path class="st0" d="M75.77,354.91c0,0.85-0.04,1.65,0.01,2.44c0.05,0.74-0.32,1.06-0.95,1.04c-2.58-0.09-5.16,0.23-7.74-0.18
		c-1.04-0.17-2.13-0.16-3.36,0.28c0.32-1.21-0.57-2.29,0.15-3.41C67.82,354.94,71.74,355.19,75.77,354.91z"/>
	<path class="st0" d="M74.99,347.72c0.17,1.12-0.08,2.27,0.16,3.43c-3.73,0-7.47,0-11.29,0c-0.23-1.14-0.03-2.27-0.12-3.43
		C67.54,347.72,71.24,347.72,74.99,347.72z"/>
	<path class="st0" d="M172.06,357.17c-0.15-1.12,0.13-2.13-0.41-3.21c3.38-0.67,6.76-0.67,9.93-1.61c0.65,0.8,0.43,1.73,0.7,2.54
		c0.25,0.73-0.45,0.99-0.96,1.08c-2.09,0.34-4.13,0.87-6.26,1.05C174.09,357.1,173.13,357.19,172.06,357.17z"/>
	<path class="st0" d="M183.27,362.13c-3.36,0.88-6.68,1.5-10.18,1.94c-0.13-1.14-0.27-2.24-0.41-3.41c1.62-0.2,3.14-0.37,4.65-0.54
		c1.49-0.16,2.92-0.56,4.38-0.82c1.11-0.2,1.18-0.22,1.48,0.84C183.38,360.76,183.26,361.4,183.27,362.13z"/>
	<path class="st0" d="M128.39,71.43c-0.85-0.4-0.6-1.19-0.49-1.79c0.26-1.35,1.78-2.56,3.17-2.59c1.1-0.03,2.52,0.5,3.1,2.09
		c0.65,1.78,0.03,2.94-1.76,3.97c-1.24,0.71-2.22,0.41-3.25-0.15c-0.57-0.31-1.01-0.8-0.8-1.57c0.17-0.12,0.3-0.25,0.05-0.42
		C128.31,71.13,128.33,71.28,128.39,71.43z"/>
	<path class="st0" d="M179.94,345.41c0.64,0.81,0.35,1.75,0.68,2.56c0.16,0.4-0.07,0.75-0.59,0.84c-2.15,0.39-4.31,0.8-6.46,1.2
		c-0.68,0.13-1.35,0.25-2.16,0.41c-0.14-1.17-0.27-2.27-0.4-3.43C174.08,346.45,177.06,346.11,179.94,345.41z"/>
	<path class="st0" d="M92.07,44.6c-0.24-1.01-0.23-1.97-0.05-3c0.17-0.98,0.91-1.66,1.21-2.72c-1.51,1.54-1.51,1.54-3.18,0.75
		c1.03-0.29,1.91-0.62,2.61-1.34c0.69-0.71,1.1-1.57,1.49-2.56c0.68,0.54,1.21,1.1,1.85,1.44c0.57,0.31,0.53,0.87,0.34,1.08
		c-0.97,1.09-0.12,1.92,0.27,2.94c-0.38,0.38-1.13,0.43-1.38,1.07c0,0.38,0.34,0.23,0.57,0.36c0.05,0.56-0.54,0.84-0.64,1.38
		c-0.15,0.81-0.2,0.84,0.7,0.84c0.3,0.74-0.41,1.36-0.23,2.12c-1.74-1.21-2.19-2.97-2.13-5.1C92.78,42.78,92.56,43.74,92.07,44.6z"
		/>
	<path class="st0" d="M160.01,76.66c2.36,0.3,3.46,2.06,4.67,3.63c0.53,0.69-0.15,2.95-0.87,3.46c-0.71,0.5-2.07,0.11-2.79-0.73
		c-0.75-0.87-1.15-1.79-1.03-2.99C160.1,78.94,160.01,77.82,160.01,76.66z"/>
	<path class="st0" d="M83.46,98.24c0.26,0.06,0.45-0.11,0.65-0.22c2.47-1.33,4.75-0.98,6.89,0.75c0.96,0.78,1.14,1.67,0.51,3.1
		c-0.95-2.36-2.72-3.36-5.1-3.12c-2.37,0.23-3.72,1.9-4.85,3.88c-0.09-1.94,0.12-2.47,1.4-3.78c0.19-0.2,0.35-0.42,0.53-0.64
		L83.46,98.24z"/>
	<path class="st0" d="M142.52,80.57c-1.76,0.54-3.1-0.32-4.53-0.68c-0.36-0.09-0.76-0.25-1.04-0.1c-0.97,0.53-1.17-0.16-1.42-0.8
		c-0.1-0.25-0.15-0.52-0.22-0.77c0.17-0.18,0.41-0.08,0.56-0.17c1.28-0.7,2.36-0.34,3.45,0.47
		C140.29,79.25,141.35,79.84,142.52,80.57z"/>
	<path class="st0" d="M138.65,33.77c0.3,0.07,0.48,0.1,0.66,0.16c1.42,0.47,1.47,0.57,1.5,2.08c0.02,0.99-0.17,1.98,0.12,2.96
		c0.45,1.52,0.68,1.82,2.1,2.79c-0.89,0.31-1.59-0.14-2.27-0.58c-0.7-0.45-0.53-1.3-0.62-1.94c-0.14-0.93-0.29-1.84-0.51-2.75
		C139.42,35.57,138.96,34.77,138.65,33.77z"/>
	<path class="st0" d="M170.29,350.35c-0.66,0.27-1.27,0.51-1.96,0.31c-0.62-1.06-0.22-2.29-0.58-3.4c0.68-0.37,1.4-0.47,2.32-0.32
		C169.92,348.07,170.47,349.18,170.29,350.35z"/>
	<path class="st0" d="M171.32,357.38c-0.47,0.05-0.79,0.04-1.09,0.11c-1.23,0.28-1.33,0.22-1.34-0.95
		c-0.01-0.55-0.06-1.08-0.21-1.62c-0.14-0.5-0.07-1.02,0.7-1.08c1.28-0.11,1.6,0.03,1.66,0.88
		C171.11,355.57,170.88,356.45,171.32,357.38z"/>
	<path class="st0" d="M169.64,360.89c0.69-0.2,1.36,0.08,2.01-0.41c0.07,0.99,0.4,1.83,0.36,2.73c-0.04,1.01-0.15,1.14-1.17,1.18
		c-0.28,0.01-0.55,0-1.01,0C170.04,363.21,169.51,362.13,169.64,360.89z"/>
	<path class="st0" d="M76.09,347.38c0.61,0,1.12,0,1.67,0c0.53,1.11,0.43,2.27,0.38,3.54c-0.62-0.06-1.11,0.39-1.79,0.22
		C76.18,349.95,75.82,348.75,76.09,347.38z"/>
	<path class="st0" d="M76.73,354.62c0.72,0,1.26,0,1.86,0c0,1.24,0,2.42,0,3.61c-0.25,0.29-0.59,0.13-0.89,0.17
		c-0.72,0.08-1.01-0.25-0.98-0.97C76.75,356.52,76.73,355.61,76.73,354.62z"/>
	<path class="st0" d="M78.82,365.08c-0.46-0.04-0.79,0.42-1.28,0.22c-0.11-0.81-0.24-1.62-0.33-2.44c-0.04-0.39-0.01-0.79-0.01-1.22
		c0.56-0.18,1.05-0.11,1.62-0.07C78.82,362.72,78.82,363.82,78.82,365.08z"/>
	<path class="st0" d="M88.87,35c1.64,0.64,2.91,0.47,3.8-0.85c0.8,0.2,0.82,0.97,1.3,1.33C92.77,36.76,90.54,36.61,88.87,35z"/>
	<path class="st0" d="M86.13,27.16c2.03,1.16,3.41,1.27,4.84-0.78c0.3,1.43-0.75,2.46-2.43,2.24C87.57,28.49,86.7,28.03,86.13,27.16
		z"/>
	<path class="st0" d="M141.03,34.87c1.72,1.45,1.76,2.43,0.13,3.62C140.94,37.29,141.1,36.17,141.03,34.87z"/>
	<path class="st0" d="M136.81,84.04c-0.91-2.1-1.8-4.16-2.75-6.34c0.33,0.09,0.61,0.06,0.74,0.39c0.76,1.84,1.52,3.68,2.28,5.52
		C137.13,83.74,137.08,83.84,136.81,84.04z"/>
	<path class="st0" d="M52.96,130.61c-0.16,0.37-0.38,0.78-0.96,0.75c-0.6-0.03-0.94-0.38-0.94-0.98c0-0.56,0.35-0.85,0.88-0.92
		C52.3,129.4,52.95,130.1,52.96,130.61z"/>
	<path class="st0" d="M53.97,133.51c-0.62-0.17-1.04-0.55-0.96-1.21c0.04-0.33,0.35-0.61,0.73-0.68c0.43-0.07,0.68,0.26,0.82,0.55
		C54.85,132.78,54.5,133.2,53.97,133.51z"/>
	<path class="st0" d="M141.72,44.47c-1.26-0.16-1.92-0.67-2.38-1.52c-0.33-0.62,0.42-0.69,0.51-1.14
		C140.26,42.79,140.66,43.71,141.72,44.47z"/>
	<path class="st0" d="M146.64,33.78c-2.43,0.33-2.87,0.03-2.56-1.93C144.86,32.7,145.37,33.79,146.64,33.78z"/>
	<path class="st0" d="M60.2,130.16c-0.13,0.55-0.39,0.91-0.87,0.94c-0.45,0.03-0.75-0.32-0.82-0.72c-0.09-0.51,0.29-0.83,0.74-0.91
		C59.79,129.37,59.94,129.88,60.2,130.16z"/>
	<path class="st0" d="M92.58,33.6c-1.5,0.14-1.89-0.07-2.39-1.28c0.64,0.19,1.21,0.68,1.81,0.24C92.35,32.84,92.42,33.18,92.58,33.6
		z"/>
	<path class="st0" d="M44.27,132.8c-0.53,0.04-0.59-0.46-0.63-0.78c-0.06-0.48,0.31-0.82,0.77-0.87c0.51-0.06,0.69,0.34,0.62,0.78
		C44.97,132.33,44.92,132.82,44.27,132.8z"/>
	<path class="st0" d="M55.95,132.31c-0.14-0.5-0.13-0.91-0.02-1.41c0.46,0.04,0.94-0.23,1.27,0.3c0.15,0.24,0.15,0.54,0.01,0.78
		C56.89,132.53,56.4,132.25,55.95,132.31z"/>
	<path class="st0" d="M56.25,142.95c-0.24-0.4-0.83-0.48-0.5-1.11c0.23-0.43,0.52-0.39,0.86-0.39c0.36,0,0.62,0.16,0.65,0.53
		C57.32,142.63,56.7,142.62,56.25,142.95z"/>
	<path class="st0" d="M50.27,145.53c-0.43-0.38-1.04-0.69-0.37-1.39c0.28-0.29,0.57-0.45,0.93-0.14
		C51.25,144.37,51.07,144.9,50.27,145.53z"/>
	<path class="st0" d="M63.55,133.04c0.49,0.01,0.7,0.26,0.7,0.74c-0.01,0.49-0.26,0.7-0.74,0.7c-0.49-0.01-0.7-0.26-0.7-0.74
		C62.81,133.25,63.07,133.04,63.55,133.04z"/>
	<path class="st0" d="M44.24,129.49c0.49-0.66,0.95-1.08,1.58-0.56c0.42,0.35,0.13,0.72-0.19,1
		C44.94,130.53,44.7,129.84,44.24,129.49z"/>
	<path class="st0" d="M53.38,144.66c-0.46-0.62-0.72-1.12-0.11-1.54c0.43-0.3,0.89-0.06,1.05,0.36
		C54.64,144.3,53.8,144.25,53.38,144.66z"/>
	<path class="st0" d="M59.91,140.1c-0.04,0.5,0.24,1.09-0.47,1.31c-0.62,0.19-0.81-0.26-0.94-0.74
		C58.79,140.19,59.15,139.85,59.91,140.1z"/>
	<path class="st0" d="M63.05,131.39c0.06,0.54-0.44,0.62-0.76,0.63c-0.26,0.01-0.71-0.11-0.68-0.62c0.02-0.48,0.2-0.74,0.7-0.75
		C62.79,130.64,63.04,130.86,63.05,131.39z"/>
	<path class="st0" d="M47.49,139.83c-0.53,0.51-1.01,0.64-1.38,0.08c-0.22-0.33-0.22-0.84,0.24-1.02
		C47.17,138.57,47.16,139.37,47.49,139.83z"/>
	<path class="st0" d="M64.01,136.65c0.06,0.52-0.42,0.63-0.74,0.64c-0.27,0.01-0.68-0.11-0.71-0.59c-0.03-0.61,0.43-0.7,0.82-0.75
		C63.81,135.89,64,136.21,64.01,136.65z"/>
	<path class="st0" d="M49.17,142.19c-0.39,0.37-0.63,1-1.26,0.53c-0.35-0.26-0.4-0.69-0.03-1.01
		C48.46,141.22,48.8,141.63,49.17,142.19z"/>
	<path class="st0" d="M47.16,128.49c-0.42,0.12-0.56-0.35-0.6-0.61c-0.07-0.48,0.32-0.76,0.77-0.83c0.43-0.06,0.54,0.43,0.54,0.62
		C47.86,128.01,47.8,128.48,47.16,128.49z"/>
	<path class="st0" d="M44.26,137.19c0.39-0.61,0.73-1.01,1.3-0.53c0.38,0.32,0.32,0.74-0.02,1.01
		C44.9,138.17,44.69,137.49,44.26,137.19z"/>
	<path class="st0" d="M49.08,128.47c0.36-0.38,0.58-1.02,1.27-0.54c0.34,0.23,0.34,0.74,0.1,0.94
		C49.94,129.3,49.48,129.04,49.08,128.47z"/>
	<path class="st0" d="M61.85,139.98c-0.38-0.11-0.5-0.37-0.49-0.72c0.01-0.42,0.19-0.71,0.64-0.68c0.45,0.03,0.56,0.35,0.56,0.76
		C62.56,139.84,62.12,139.8,61.85,139.98z"/>
	<path class="st0" d="M43.73,134.24c0.36,0.04,0.59,0.23,0.59,0.6c0,0.37-0.22,0.59-0.59,0.59c-0.37,0-0.59-0.22-0.59-0.59
		C43.14,134.47,43.37,134.28,43.73,134.24z"/>
	<path class="st0" d="M132.58,73.58c0.54,0.65,0.84,1.39,0.95,2.22C132.95,75.17,132.5,74.49,132.58,73.58z"/>
</g>
</svg>
