<?xml version="1.0" encoding="utf-8"?>
<!-- Generator: Adobe Illustrator 24.1.1, SVG Export Plug-In . SVG Version: 6.00 Build 0)  -->
<svg version="1.1" id="Layer_1" xmlns="http://www.w3.org/2000/svg" xmlns:xlink="http://www.w3.org/1999/xlink" x="0px" y="0px"
	 width="154.4" height="335.12" viewBox="0 0 154.4 335.12" style="enable-background:new 0 0 154.4 335.12;" xml:space="preserve">
<style type="text/css">
	.st0{fill:#1A1A1A;}
</style>
<g>
	<path d="M81.16,198.38c-3.22,1.76-6.64,1.82-10.22,1.45c-0.36,0.47-0.68,1.07-0.9,1.7c-2.25,6.59-5.76,12.51-9.66,18.23
		c-1.51,2.21-3.08,4.37-4.42,6.7c-0.45,0.78-0.68,1.58-0.72,2.49c-0.21,4.44,0.8,8.71,1.79,12.98c0.65,2.79,1.39,5.56,1.82,8.4
		c0.04,0.25,0.12,0.45,0.24,0.66c1.39,2.45,1.6,5.16,1.56,7.88c-0.03,1.75-0.04,3.52-0.61,5.21c-0.29,0.86-0.5,1.79-1.34,2.33
		c-0.34,0.22-0.28,0.55-0.3,0.86c-0.34,3.94-1.19,7.77-2.56,11.49c-0.27,0.73-0.24,1.57-0.33,2.36c-0.23,2.26-0.58,4.5-1.48,6.61
		c-0.18,0.42-0.23,0.84-0.21,1.28c0.09,2.32,0.11,4.63-0.5,6.9c-0.08,0.28-0.04,0.58,0.09,0.82c0.77,1.36,0.83,2.85,0.61,4.31
		c-0.21,1.39,0.14,2.67,0.39,3.99c0.7,3.76,1.81,7.42,2.87,11.08c1.03,3.55-0.33,6.13-2.97,8.28c-1.06,0.86-2.27,1.49-3.56,1.93
		c-0.47,0.16-0.82,0.45-1.23,0.68c-1.64,0.93-3.03,2.16-4.43,3.4c-0.5,0.44-1.12,0.77-1.74,1.04c-0.78,0.34-1.4,0.82-2.02,1.42
		c-1.31,1.29-3.03,1.68-4.83,1.73c-1.46,0.04-2.79-0.21-3.72-1.49c-2.08,0.62-4.1,0.91-5.97-0.42c-1.85,0.99-3.72,0.88-5.6,0.27
		c-0.61-0.2-1.17-0.28-1.84-0.12c-1.2,0.28-2.39,0.04-3.41-0.7c-0.37-0.27-0.73-0.45-1.2-0.4c-1.09,0.1-1.93-0.34-2.51-1.25
		c-0.24,0.01-0.21,0.36-0.46,0.29c-0.62-0.89-0.6-1.71,0.13-2.56c1.02-1.19,2.08-2.12,3.83-2.37c1.29-0.19,2.52-1.15,3.66-1.94
		c5.21-3.6,10.07-7.63,14.36-12.3c2.82-3.08,4.23-6.89,4.96-10.97c0.26-1.43,0.14-2.87,0.39-4.29c0.11-0.65-0.37-1.11-0.43-1.71
		c-0.18-1.83-0.48-3.64-0.64-5.47c-0.09-0.97-0.62-1.79-0.79-2.73c-0.4-2.24-0.56-4.51-0.92-6.75c-0.06-0.4-0.13-0.75-0.38-1.1
		c-0.56-0.76-0.56-1.73-0.81-2.6c-0.2-0.69-0.35-1.39-0.48-2.09c-0.19-1.02-0.35-1.99-1.42-2.59c-0.42-0.24-0.6-0.91-0.89-1.39
		c-0.18-0.3-0.26-0.66-0.6-0.87c-0.55-0.35-0.83-0.8-0.66-1.51c0.11-0.45-0.23-0.83-0.41-1.22c-1.54-3.28-3.24-6.48-4.31-9.97
		c-0.49-1.62-0.82-3.25-0.67-4.94c0.22-2.46,1.33-3.56,3.87-3.75c-1.09-2.08-1.88-4.23-2.5-6.45c-0.45-1.61-0.88-3.22-1.12-4.88
		c-0.06-0.43-0.2-0.84-0.4-1.25c-1.06-2.19-1.52-4.53-1.47-6.95c0.08-3.93-0.48-7.81-0.62-11.73c-0.11-3.41,0.04-6.79,0.31-10.18
		c0.04-0.51,0.01-1.03,0.01-1.59c-3.93-2.41-7.12-5.58-9.57-9.52c-2.16-3.47-3.34-7.2-3.36-11.3c-0.04-6.91,1.77-13.23,5.95-18.8
		c1.21-1.61,2.66-2.99,4.38-4.05c2.61-1.62,5.37-2.16,8.41-1.07c0.62-0.98,1.46-0.9,2.47-0.56c2.07,0.7,4.17,1.3,6.29,1.95
		c0.23-0.56,0.44-1.13,0.38-1.73c-0.17-1.8,0.6-2.97,2.33-3.59c-0.02-4.75,1.48-9.25,2.32-13.86c0.39-2.12,0.65-4.26,0.82-6.4
		c0.1-1.26-0.27-2.45-0.54-3.65c-1.06-4.66-1.49-9.37-1.32-14.14c0.01-0.28,0.03-0.56,0.09-0.83c0.2-0.9,0.01-1.65-0.45-2.49
		c-2.02-3.67-3.19-7.61-3.53-11.8c-0.13-1.64-0.07-3.35-1.1-4.82c-0.35-0.5-0.44-1.18-0.68-1.85c-2.11,1.64-4.37,3.03-6.75,4.25
		c-4.83,2.48-9.97,3.96-15.31,4.8c-3.39,0.53-6.76,0.45-10.01-0.76c-2.25-0.84-3.51-2.52-3.81-4.92c-0.21-1.7-0.52-3.38-0.7-5.08
		c-0.43-3.99,0.8-7.56,2.81-10.93c1.76-2.92,3.96-5.51,6.06-8.19c2.84-3.63,5.49-7.36,7.13-11.72c0.42-1.12,0.43-2.08-0.27-3.15
		c-1.44-2.17-1.85-4.62-1.62-7.2c0.05-0.55,0.01-1.11,0.01-1.75c-1.52-0.48-3.14-0.68-4.72-1.02c-2.45-0.52-4.91-0.98-7.36-1.47
		c-0.85-0.17-1.43-0.96-1.54-2.04c-0.11-1.05,0.09-2.07,0.49-3.04c0.71-1.7,1.43-2.05,3.24-1.67c3.46,0.72,6.93,1.45,10.39,2.16
		c0.31,0.06,0.63,0.05,0.88,0.07c0.24-0.17,0.27-0.36,0.34-0.55c0.51-1.46,1.52-2.12,3.05-1.81c1.04,0.21,2.13,0.2,3.13,0.68
		c0.4,0.19,1-0.02,1.5-0.08c1.51-0.2,2.86,0.05,3.8,1.23c0.84,0,1.59-0.01,2.35,0c0.99,0.01,1.91,0.19,2.5,1.12
		c0.14,0.23,0.35,0.26,0.6,0.3c2.69,0.42,2.92,0.68,3.02,3.37c0.98,0.48,2.11,0.53,3.18,0.77c3.15,0.69,6.31,1.28,9.45,2
		c0.98,0.22,1.85,0.85,2.87,1.03c0.07,0.01,0.17,0.07,0.2,0.13c0.51,1.19,1.66,1.02,2.63,1.23c2.84,0.62,5.68,1.22,8.52,1.83
		c0.19,0.04,0.39,0.02,0.66,0.04c0.23-2.11,0.58-4.18,0.09-6.3c-0.26-1.12-0.93-1.68-2.02-1.91c-0.63-0.13-1.26-0.2-1.9-0.2
		c-2.67-0.03-5.35-0.03-7.97-0.7c-1.91-0.49-3.39-1.54-4.44-3.2c-0.34-0.54-0.7-1.06-1.21-1.47c-0.25-0.2-0.48-0.44-0.66-0.7
		c-1.13-1.6-1.91-3.37-2.56-5.2c-0.3-0.85-0.1-1.66,0.12-2.46c0.25-0.92,1.07-1.2,1.85-1.29c2.42-0.28,4.56-1.37,6.78-2.23
		c0.41-0.16,0.8-0.35,1.2-0.53c1.38-0.62,2.51-1.48,3.08-2.97c0.34-0.89,1.16-1.6,1.42-2.47c0.33-1.09,1.15-1.76,1.66-2.67
		c0.64-1.15,1.42-2.14,2.85-2.43c-1.27-0.93-2.5-1.13-5.82-1.01c1.2-2.18,4.51-2.14,7.36,0.15c1.38-1.36,2.91-2.55,4.68-3.39
		c0.33-0.15,0.31-0.42,0.38-0.68c1.25-4.49,3.34-8.6,5.76-12.55c0.06-0.1,0.12-0.21,0.18-0.31c1.1-1.62,1.92-1.59,2.86,0.14
		c0.94,1.72,1.56,3.56,1.95,5.49c0.07,0.35,0.18,0.69,0.28,1.06c0.48-0.17,0.62-0.63,0.85-0.97c1.45-2.07,3.13-3.94,4.88-5.75
		c0.79-0.82,1.33-0.73,1.77,0.36c0.75,1.86,1.02,3.84,1.33,5.8c0.29,1.89,0.56,3.78,0.49,5.77c0.95,0.05,1.83,0.04,2.69,0.15
		c4.26,0.54,7.65,2.59,10.17,6.05c0.73,1,1.21,2.17,1.28,3.43c0.03,0.51,0.35,0.78,0.63,1.11c1.47,1.71,2.62,3.61,3.3,5.78
		c0.06,0.19,0.11,0.38,0.14,0.58c0.01,0.07-0.02,0.15-0.05,0.34c-2.07-0.76-4.09-1.61-6.28-2.09c2.8,2.53,4.59,5.59,4.89,9.35
		c0.28,3.64-0.18,7.15-2.64,10.16c-0.19-1.44-0.26-2.89-1.12-4.37c-0.07,1.57,0.15,2.96-0.28,4.29c-0.5,1.57-1.1,3.08-2.27,4.29
		c-0.14,0.14-0.28,0.29-0.35,0.47c-0.94,2.59-2.29,4.99-3.38,7.5c-0.43,0.98-0.37,1.02,0.61,1.47c1.06,0.48,2.19,0.37,3.28,0.56
		c1.63,0.28,3.21,0.72,4.58,1.63c1.3,0.86,2.73,1.23,4.21,1.55c6.33,1.38,12.73,2.48,18.96,4.31c3.48,1.02,6.64,2.71,9.5,4.92
		c1.54,1.19,2.74,2.67,3.54,4.46c0.33,0.73,0.55,1.48,0.46,2.28c-0.33,0.15-0.51-0.06-0.66-0.22c-2.96-2.88-6.61-4.52-10.39-5.98
		c-4.33-1.67-8.83-2.64-13.36-3.54c-1.75-0.35-3.49-0.71-5.42-1.11c1,1.89,1.92,3.62,2.26,5.54c0.3,1.68,1.02,3.13,1.91,4.57
		c3.96,6.45,6.38,13.51,8.1,20.84c1.02,4.35,1.67,8.76,2.2,13.19c0.13,1.11,0.3,2.21,0.5,3.31c0.13,0.7,0.37,1.36,0.75,1.99
		c2.29,3.84,4.41,7.76,5.32,12.21c0.57,2.81,1.03,5.64,1.33,8.49c0.18,1.67,0.44,3.32,0.48,5c0.01,0.5,0.29,0.8,0.62,1.11
		c1.59,1.48,2.31,3.34,2.66,5.47c0.3,1.88,0.56,3.76,0.75,5.66c0.18,1.83-0.27,3.52-1.37,4.95c-0.6,0.78-0.5,1.25,0.07,1.95
		c1.39,1.7,2.78,3.41,3.68,5.44c0.44,0.98,0.83,1.98,1.07,3.03c0.15,0.69,0.26,1.41,0.7,2.01c0.07,0.09,0.15,0.21,0.15,0.32
		c0.04,1.88,0.58,3.76-0.1,5.65c-0.43,1.2-1.24,1.94-2.39,2.34c-0.47,0.16-0.8,0.35-1.14,0.73c-0.69,0.78-1.61,1.16-2.68,1.07
		c-0.69-0.06-1.31,0.02-1.89,0.46c-0.37,0.29-0.85,0.41-1.34,0.45c-1.36,0.13-1.39,0.19-0.77,1.35c-0.93,0.17-6.21-1.64-7.47-2.56
		c-1.03,1.11-0.15,2.3-0.11,3.45c0.06,1.64,0.9,2.88,2.12,3.99c3.9,3.53,8.09,6.63,12.8,9c1.57,0.79,3.12,1.61,4.67,2.44
		c4.64,2.46,7.35,6.36,8.44,11.45c0.19,0.89,0.36,1.79,0.52,2.69c0.18,1.04,0.59,1.99,1.89,2.22c-0.99,1.08-2.07,0.9-3.16,0.37
		c-0.36,0.29-0.04,0.53,0.03,0.76c0.77,2.4,0.87,4.9-0.11,7.16c-0.69,1.6-0.88,3.24-1.3,4.86c-0.2,0.77-0.44,1.53-0.81,2.24
		c-0.22,0.41-0.41,0.89-1.06,0.99c-0.6-1.18-0.61-2.61-1.43-3.86c-0.21,0.54-0.05,1.15-0.5,1.52c-0.65,0.09-0.87-0.48-1.2-0.84
		c-0.89-0.98-1.73-1.99-2.62-2.97c-0.24-0.27-0.43-0.62-0.98-0.43c-0.34,0.12-0.73-0.25-1.07-0.46c-0.98-0.61-1.97-1.22-2.95-1.83
		c-0.7-0.43-1.33-0.95-2.27-0.73c-0.33,0.07-0.75-0.21-1.12-0.36c-1.26-0.52-2.38-1.29-3.46-2.12c-0.56-0.42-1.03-0.99-1.86-0.84
		c-0.19,0.03-0.44-0.16-0.64-0.29c-2.3-1.6-4.52-3.29-6.52-5.38c-0.62,0.59-1.09,1.31-1.49,2.06c-0.69,1.29-1.59,2.39-2.81,3.22
		c-0.29,0.2-0.56,0.37-0.61,0.81c-0.43,3.94-1.64,7.69-2.71,11.48c-0.48,1.68-1.15,3.34-1.09,5.11c0.09,2.59,0.46,5.17,0.44,7.77
		c0,0.41,0.22,0.68,0.46,0.94c0.43,0.46,0.65,1.03,0.69,1.62c0.33,4.59,0.6,9.17-0.4,13.72c-0.33,1.48-0.72,2.94-1.51,4.25
		c-0.63,1.05-0.48,2.26-0.61,3.39c-0.33,2.93-0.9,5.82-1.33,8.74c-0.33,2.25-0.47,4.53-0.94,6.74c-0.51,2.44-0.49,4.91-0.69,7.36
		c-0.03,0.44-0.04,0.89-0.23,1.29c-0.32,0.69-0.22,1.4-0.19,2.11c0.35,7.27,2.44,14.08,5.37,20.69c1.12,2.52,1.95,5.13,2.27,7.89
		c0.09,0.8,0.51,1.5,0.9,2.19c0.38,0.67,0.59,1.37,0.54,2.16c-0.08,1.28-1.23,2.35-2.53,2.3c-1.33-0.04-1.33-0.04-2.68-0.79
		c-1.35,1.57-3.88,1.68-5.54,0.58c-1.56,1.41-3.32,1.32-5.14,0.65c-0.37-0.14-0.7-0.41-1.12-0.16c-1.83,1.05-3.59,0.65-5.32-0.32
		c-1.36,1.3-3.05,1.39-4.71,1.16c-2.48-0.35-3.94-2.67-3.05-5.1c0.71-1.93,0.98-3.9,1.33-5.89c0.35-1.96,1.14-3.8,1.72-5.7
		c1.14-3.73,1.99-7.53,2.55-11.39c0.28-1.95,0.39-3.89,0.04-5.84c-0.03-0.15-0.03-0.33,0.02-0.48c0.74-2.43,0.02-4.82-0.16-7.22
		c-0.03-0.32-0.14-0.64-0.11-0.95c0.24-2.47-0.63-4.8-0.85-7.21c-0.13-1.51-0.5-3-0.28-4.53c0.06-0.41-0.14-0.68-0.3-0.99
		c-1.93-3.67-2.89-7.65-3.61-11.69c-0.11-0.62-0.29-1.07-0.84-1.32c-0.39-0.18-0.65-0.42-0.77-0.83c-1.2-4.07-1.7-8.21-1.03-12.41
		c0.65-4.05,1.14-8.11,1.83-12.15c0.55-3.23,0.16-6.41-0.99-9.52c-1.74-4.7-3.27-9.47-4.34-14.38c-1.04-4.76-1.33-9.56-1.05-14.4
		c0.07-1.23,0.25-2.46,0.57-3.66C81.17,199.02,81.21,198.73,81.16,198.38z M99.17,104.9c-0.87,3.66-2.54,6.88-4.68,9.89
		c-0.39,0.55-0.58,1.08-0.56,1.76c0.1,2.56-0.2,5.1-0.43,7.65c-0.15,1.67-0.31,3.39,0,5.02c0.74,3.96,2.01,7.77,4.14,11.24
		c1.44,2.34,2.78,4.74,3.71,7.35c0.29,0.81,0.39,1.69,0.77,2.42c0.25,0.07,0.37-0.05,0.52-0.11c1.35-0.64,1.91-0.57,2.67,0.74
		c0.62,1.07,1.47,1.6,2.56,2.07c4,1.7,6.91,4.66,9.25,8.24c1.37,2.1,2.53,4.31,3.62,6.77c0.62-1.14,1.16-2.14,1.74-3.22
		c-0.2-0.15-0.37-0.26-0.52-0.39c-1.72-1.56-2.53-3.66-3.21-5.77c-0.32-0.99-0.31-2.11-0.61-3.15c-0.42-1.46-0.34-2.94,0.13-4.36
		c0.22-0.68,0.14-1.15-0.23-1.74c-3.73-5.96-5.4-12.6-6.39-19.47c-0.17-1.22-0.01-2.48-0.42-3.66c-0.41-1.17-1.05-2.25-1.84-3.2
		c-2.76-3.35-4.92-7.06-6.85-10.93C101.37,109.7,100.34,107.3,99.17,104.9z M24.32,78.93c0.19-0.03,0.28-0.02,0.34-0.05
		c3.09-1.95,6.34-3.48,10-4.02c0.44-0.06,0.78-0.28,1.02-0.73c0.49-0.91,1.13-1.74,1.87-2.48c3.65-3.61,8.04-5.5,13.18-5.61
		c0.39-0.01,0.76,0.04,1.13-0.25c2.33-1.86,5.06-3,7.71-4.29c0.85-0.41,1.76-0.72,2.6-1.38c-3.56-0.76-7.02-1.5-10.48-2.23
		c-0.22-0.05-0.45-0.24-0.67-0.09c-1.21,0.82-2.5-0.07-3.78,0.2c-0.82,0.17-1.77-0.32-2.66-0.5c-2.6-0.52-5.21-1.04-7.73-1.54
		c-2.17,4.19-4.56,8.02-9.16,9.6C25.44,69.76,24.32,74.19,24.32,78.93z M35.96,167.47c-1.96-0.67-3.99-1.37-6.02-2.05
		c-0.79-0.27-1.35-0.7-1.3-1.62c0.03-0.58-0.31-0.72-0.78-0.86c-1.96-0.56-3.64,0.07-5.11,1.28c-2.56,2.09-4.27,4.82-5.62,7.8
		c-0.37,0.81-0.78,1.61-0.93,2.6c4.6-4.46,11.25-4.9,17.15-1.07C34.48,171.67,35.74,169.86,35.96,167.47z M107.32,156.44
		c-0.07,0.85-0.2,1.5,0.49,1.98c0.46,0.32,0.61,0.84,0.71,1.34c0.07,0.36,0.2,0.67,0.33,1.01c0.75,1.86,2.61,3.17,2.66,5.38
		c0.83,1.03,1.48,2.3,2.52,3.01c1.4,0.97,2.96,1.71,4.34,2.79C115.75,166.08,112.92,160.4,107.32,156.44z M26.79,190.13
		c0.54-1.62,1.01-3.06,1.49-4.49c0.43-1.28,0.42-1.37-0.62-2.2c-0.22-0.17-0.44-0.4-0.69-0.47c-1.01-0.26-1.41-0.92-1.24-1.92
		c-2,0.05-3.16,1.69-2.52,3.57C23.93,186.69,25.27,188.38,26.79,190.13z M90.44,54.14c-1.37-0.07-2.35-0.62-3.3-1.31
		c-0.11,0.55,0.45,0.9,0.22,1.44c-1.28,0.2-1.98-0.69-2.76-1.58c0.1,2.6,1.19,5.81,3.63,6.42C88.93,57.54,89.63,55.96,90.44,54.14z"
		/>
</g>
<g>
	<path class="st0" d="M99.53,207.49c-0.21,0.35,0.36,0.64,0.07,0.99c-0.18,0.24-0.52,0.01-0.74,0.25c0.19,0.09,0.37,0.16,0.63,0.28
		c-0.66,0.64-0.51,1.22,0.08,1.78c0.48,0.45-0.15,1.08,0.25,1.57c-0.81-1.33-1.47-2.72-2.35-4.07c0.32-0.16,0.45,0.28,0.69,0.19
		c0.2-0.41-0.14-0.66-0.29-0.98c-0.19,0.31-0.47,0.59-0.69,0.15c-0.53-1.08-1.17-2.12-1.78-3.13c-0.49-0.8-1.08-1.66-1.81-2.35
		c-1.28-1.22-2.06-2.64-1.86-4.49c0.07-0.63-0.02-1.28,0.02-1.92c0.12-2.35-0.61-4.58-0.87-6.88c-0.15-1.35-0.21-2.7,0.03-4.04
		c0.14-0.77,0.43-1.51,0.36-2.32c-0.03-0.28-0.04-0.58,0.49-0.73c0.82,3.3,2.15,6.43,4.28,9.19c-2.41,3.74-0.85,6.95,1.37,10.06
		c-0.18-0.86-0.64-1.65-0.98-2.44c-0.74-1.71-1.36-3.37-0.86-5.28c0.17-0.65,0.38-1.17,1.03-1.6c1.09,1.16,2.34,2.12,3.56,3.12
		c1.12,0.92,2.37,1.54,3.69,1.95c2.16,0.67,2.43,0.91,1.77,2.96c-0.31,0.96-0.76,1.88-0.95,2.89c-0.05,0.24-0.33,0.43-0.52,0.64
		c-0.23,0.24-0.12,0.52-0.15,0.88c0.89-1.1,1.43-2.26,1.91-3.45c0.85-2.14,0.85-4.2-0.49-6.2c-0.88-1.31-1.78-2.52-3.03-3.56
		c-2.91-2.4-4.94-5.51-6.19-9.07c-0.69-1.96-0.93-4.04-1.08-6.12c-0.07-0.92,0.3-1.6,0.87-2.22c2.04-2.25,4.51-3.96,7.36-4.87
		c1.82-0.58,3.81-0.76,5.81-0.37c2.05,0.4,3.98,1.05,5.79,2.09c1.65,0.94,3.09,2.08,4.2,3.64c1.31,1.85,2.25,3.87,2.74,6.05
		c0.46,2.02,0.89,4.05,1.1,6.12c0.1,1,0.24,2.01,0.5,2.97c0.51,1.88,0.03,3.49-0.91,5.14c-1.14,2-2,4.1-2.06,6.52
		c-0.04,1.46-0.34,2.95-0.15,4.39c0.36,2.75,0.01,5.53,0.63,8.27c0.28,1.22,0.27,2.6-0.01,3.81c-0.27,1.19-1.2,2.15-2.31,3.08
		c0-1.5-0.39-2.81-0.06-4.18c-0.28,1.19-0.84,2.1-1.91,2.68c-1.27-0.59-1.35-0.58-2.21,0.41c-0.62-0.54-1.65,0.04-2.13-0.87
		c-0.47,0.44-0.87,0.82-1.3,1.21c-1.02-0.36-1.45-1.08-1.28-2.3c-0.33,0.29-0.24,0.52-0.25,0.71c-0.01,0.24,0,0.48,0.04,0.71
		c0.14,0.85-0.29,1.57-1.19,1.8c-0.72,0.18-1.18-0.21-1.48-0.85c-0.78-1.66-1.57-3.32-2.21-5.05c-0.54-1.46-1.3-2.91-2.77-3.68
		c-1.25-0.65-1.53-1.84-1.97-2.97C99.84,207.78,99.79,207.58,99.53,207.49z M113.88,209.96c0.62-0.62,0.85-1.34,1.28-1.97
		c0.2,0.52,0.37,1.03,0.74,1.44c0.22-0.31-0.04-0.52-0.12-0.77c-0.23-0.78-0.8-1.46-0.74-2.33c0.2-3.14-0.29-6.25-0.52-9.36
		c-0.07-1-0.14-2.03-0.32-3.04c-0.14,1.14-0.02,2.25,0.07,3.39c0.22,2.84,0.6,5.67,0.55,8.53c-0.03,1.32,0.02,2.61-0.95,3.67
		C113.81,209.57,113.87,209.74,113.88,209.96z"/>
	<path class="st0" d="M124.49,191.81c1.29,1.18,2.4,2.37,3.66,3.41c3.08,2.55,6.27,4.9,9.88,6.7c2.9,1.45,5.93,2.75,8.41,4.89
		c1.96,1.69,3.27,3.86,4.13,6.32c0.29,0.84,0.3,1.77,0.86,2.52c0.1,0.14,0.1,0.39,0.08,0.58c-0.17,1.33,0.36,2.46,1.02,3.55
		c0.08,0.13,0.19,0.26,0.14,0.51c-1.78,0.04-2.33-1.52-3.32-2.71c-0.18,1.12,0.45,1.82,0.77,2.59c0.96,2.29,1.61,4.59,0.72,7.06
		c-0.14,0.39,0.16,0.91-0.34,1.2c-0.83-0.66-0.68-1.97-1.78-2.53c1.24,3.23,1.33,6.38-0.32,9.61c-1.08-2.51-2.08-4.88-3.13-7.23
		c-0.36-0.81-0.92-1.48-1.86-1.79c1.45,1.99,2.49,4.12,2.33,6.92c-2.1-2.37-4.08-4.6-6.59-6.25c-0.19,0.27-0.01,0.6-0.27,0.86
		c-1.75-1-3.51-2.01-5.27-3.02c-0.12,0.61-0.29,0.85-0.94,0.42c-1.61-1.07-3.1-2.29-4.53-3.59c-0.29-0.26-0.48-0.65-0.89-0.73
		c-0.53,0.26,0.32,0.65-0.19,0.94c-1.76-1.19-3.46-2.52-4.96-4.09c-0.2-0.2-0.38-0.4-0.34-0.72c0.16-1.48-0.16-2.93-0.27-4.39
		c-0.27-3.68-0.49-7.36-0.49-11.06c0-2.59,0.9-4.85,2.08-7.03C123.58,193.82,124.04,192.88,124.49,191.81z"/>
	<path class="st0" d="M93.01,18.51c0.69,0.61,1.46,0.51,2.12,0.69c2.36,0.62,4.44,1.68,6.28,3.3c1.25,1.1,2.27,2.37,3.2,3.72
		c0.27,0.39,0.76,0.71,0.38,1.33c-0.14,0.23,0.16,0.43,0.33,0.58c0.49,0.42,0.75,0.98,1.01,1.67c-2.64-0.98-5.23-1.87-7.98-2.36
		c3.72,2.3,6.01,5.58,6.56,9.87c0.53,4.23-0.18,7.37-1.81,9.5c-0.2-2.23-1.15-4.06-2.47-5.82c1.32,4.07,0.69,7.76-2,11.17
		c-0.47-0.64-1.36-0.81-1.36-1.73c0-0.72,0-1.43-0.08-2.15c-0.16,0.78-0.28,1.55-0.51,2.37c-0.88-0.18-1.58-0.79-2.45-1.01
		c-1.26-0.32-1.42-0.28-2.03,0.85c-0.41,0.75-0.57,1.63-1.07,2.32c-0.83-0.06-1.08-0.72-1.5-1.47c-0.02,0.93,0.37,1.59,0.45,2.43
		c-1.78-0.32-2.96-1.25-3.86-3.01c0.12,1.27,0.54,2.16,0.74,3.11c-1.48-0.11-2.34-1.44-2.63-3.31c-0.12-0.81,0.03-1.64,0.18-2.47
		c0.19-1.07,0.65-0.45,1.07-0.32c0.37-0.15,0.51-0.65,0.95-0.68c1.24-0.1,1.62-0.91,1.64-1.99c0.27-0.03,0.43,0.66,0.71,0.03
		c0.38-0.85,0.27-1.71,0.11-2.56c-0.05-0.27-0.08-0.53-0.14-0.87c0.89,0.21,1.07-0.27,0.96-0.94c-0.11-0.65-0.31-1.29-0.46-1.93
		c-0.17-0.71-0.82-1.28-0.29-2.17c0.27-0.45-0.31-1.25-1.32-2.39c0.13-0.19,0.44-0.18,0.53-0.43c-0.35-0.88-0.48-1.04-1.43-1.73
		c-0.06-0.45,0.4-0.57,0.68-1.01c-0.78,0.17-1.41,0.64-2.16,0.26c0.55-0.68,1.2-1.32,1.55-2.29c-1.38,0.57-2.44,0.17-3.45-1.05
		c1.34,0.15,2.52,0.3,3.48-0.61c0.6-0.56,0.92-1.31,1.42-1.95c0.27-0.34-0.1-0.84-0.34-1.19c-0.23-0.32-0.54-0.58-0.81-0.87
		c0.7-1.54,0.94-3.15,1.25-4.77c0.32-1.67,0-3.34,0.25-4.99c4.88-1.11,13.22,3.9,13.58,8.88c-1.43-1.01-2.74-2.1-4.33-2.73
		C96.4,19.19,94.84,18.62,93.01,18.51z"/>
	<path class="st0" d="M39.94,301.73c0.65,0.74,1.6,0.95,2.46,1.15c3.27,0.78,6.56,0.84,9.82-0.14c0.34-0.1,0.72,0.07,1.01-0.27
		c0.73,1.86,0.85,3.79,1.28,5.65c0.33,1.45,0.87,2.84,1.08,4.32c0.27,1.93,1.23,3.67,1.44,5.64c0.17,1.58-0.32,2.84-1.16,4.02
		c-1.31,1.84-3.28,2.82-5.24,3.78c-1.62,0.8-3.11,1.78-4.64,2.86c-0.26-0.02-0.35-0.5-0.72-0.52c-0.16,0.43,0.35,0.5,0.4,0.97
		c-0.89,0.86-1.99,1.53-3.36,2.12c0.31-1.1,0.15-2.01-0.19-2.94c-0.58-1.59-2.26-2.87-3.92-2.9c-1.51-0.03-3.02-0.13-4.23,1.04
		c-0.3,0.29-0.7,0.21-1.03,0.15c-1.45-0.27-2.82-0.32-4.29,0.18c-1.24,0.42-2.48-0.43-3.72-0.74c0.05-0.82-0.41-0.21-0.54-0.15
		c-1.07,0.52-2.23,0.67-3.35,0.45c-0.99-0.19-1.9-0.28-2.87,0.02c-0.31,0.1-0.73,0.12-1.03-0.5c2.29-1.21,4.2-3.08,6.79-4.03
		c0-0.13-0.38,0.1-0.41-0.16c1.28-1.02,2.64-2.02,3.88-3.16c0.51-0.47,1.01-0.6,1.58-0.52c2.13,0.3,4.29,0.47,6.37,1.05
		c2.83,0.79,5.6,1.73,8.2,3.14c0.25,0.14,0.49,0.41,1.04,0.2c-2.2-0.9-3.18-2.91-4.7-4.38c-1.64-1.58-3.52-2.72-5.49-3.75
		c4.47-0.8,11.58,2.14,17.64,7.74c-0.32-1.38-3.91-4.06-8.69-6.39c-3.39-1.66-6.96-2.34-10.95-1.68c0.87-0.88,1.4-1.79,2.53-1.97
		c0.12-0.02,0.16-0.15,0.12-0.28c0.35,0.08,0.68,0.06,1.05-0.04c2.12-0.57,4.25-1.05,6.46-1.1c1.66-0.03,3.29,0.22,4.93,0.43
		c0.76,0.1,1.51,0.54,2.41,0.17c-5.07-1.44-9.98-1.32-14.82,0.56c-0.2,0.03-0.39,0.07-0.61-0.06c0.78-1.03,1.59-2.03,2.12-3.19
		c0.4-0.88,1.06-0.9,1.76-0.77c2.62,0.46,5.26,0.76,7.86,1.37c2.19,0.51,4.28,1.19,6.27,2.23c0.33,0.17,0.62,0.46,1.31,0.36
		c-5.17-3.25-10.84-3.67-16.5-4.34c0.55-1.41,1.17-2.75,1.57-4.18c0.16-0.58-0.07-1.31,0.58-1.73
		C39.6,301.55,39.77,301.64,39.94,301.73z M24.38,321.79c5.94-0.03,11.56,1.48,17.06,3.61C36.04,322.83,30.4,321.38,24.38,321.79z"
		/>
	<path class="st0" d="M42.1,174.29c0.75,1.12,1.87,1.68,3.08,2.2c1.18,0.51,2.37,0.98,3.53,1.57c2.09,1.07,4.31,1.82,6.57,2.47
		c1.84,0.52,3.7,0.95,5.57,1.35c0.19,0.04,0.39,0.09,0.59,0.08c3.39-0.07,6.78,0.56,10.15,0.19c1.75-0.19,3.51-0.11,5.28-0.53
		c1.24-0.3,2.59-0.64,3.93-0.61c0.76,0.02,1.43-0.38,2.15-0.54c1.94-0.43,3.92-0.82,5.77-1.59c0.57-0.23,1.2-0.24,1.74-0.66
		c0.49-0.37,1-0.01,1.04,0.65c0.02,0.39,0.07,0.79-0.09,1.18c-0.34,0.83-0.64,1.69-0.7,2.59c-0.11,1.78-1.46,2.82-2.41,4.07
		c-2.05,2.68-3.91,5.48-5.55,8.44c-0.96,1.73-2.02,3.32-4.22,3.8c-1.16,0.25-2.34,0.25-3.47,0.57c-1.93,0.54-3.67-0.04-5.33-0.85
		c-1.27-0.62-2.26-1.67-3.57-2.7c0.62-0.05,0.98-0.08,1.5-0.13c-1.67-0.86-3.36-1.39-4.82-2.37c-0.87-0.59-1.91-1.03-2.33-2.08
		c-0.2-0.51-0.55-0.1-0.74-0.25c-0.31-0.25-0.54-0.61-0.87-0.82c-1.36-0.85-2.31-2.16-3.55-3.14c-2.35-1.86-4.6-3.86-6.84-5.85
		c-1.24-1.1-2.52-2.16-3.74-3.29c-1.95-1.8-4.13-3.33-5.99-5.22c-0.08-0.09-0.16-0.18-0.24-0.27c0.07-0.19,0.25-0.15,0.39-0.19
		C39.95,173.06,40.97,173.76,42.1,174.29z"/>
	<path class="st0" d="M102.62,272.16c-2.1,0.26-4.12-0.11-6.05-0.82c-1.64-0.61-3.04-1.41-3.49-3.5c-0.32-1.51-1-3.02-1.44-4.55
		c-0.44-1.5-0.78-3.01-0.9-4.6c-0.12-1.55-0.11-3.09-0.18-4.63c-0.06-1.2,0.28-2.35,0.28-3.55c0-1.08,1.73-2.16,2.88-1.79
		c2.37,0.76,4.83,1.01,7.26,1.34c1.34,0.18,2.75-0.15,4.13-0.25c0.04,0,0.07-0.05,0.11-0.05c2.27-0.19,4.5-0.86,6.81-0.6
		c0.92,0.1,1.74,1.08,1.81,2.28c0.03,0.56,0.02,1.12,0,1.68c-0.02,0.8,0.31,1.63,0.19,2.34c-0.46,2.82,0.17,5.69-0.58,8.51
		c-0.33,1.24-0.63,2.48-1.01,3.71c-0.57,1.83-1.85,2.89-3.52,3.48C106.89,271.88,104.8,272.47,102.62,272.16z M105.88,262.58
		c1.41-1.59,2.88-3.06,4.16-4.69c0.7-0.9,1.44-1.77,2.16-2.66c0.31-0.38,0.35-0.88,0.06-1.2c-0.32-0.35-0.81-0.21-1.13,0.13
		c-0.71,0.75-1.45,1.46-2.13,2.25c-1.41,1.65-2.96,3.2-4.41,4.75c-0.32-0.03-0.45-0.19-0.57-0.34c-2.02-2.54-4.51-4.62-6.74-6.95
		c-0.38-0.4-0.92-0.99-1.5-0.39c-0.51,0.53-0.03,1.09,0.31,1.58c0.05,0.06,0.11,0.12,0.17,0.17c2.26,2.08,4.21,4.46,6.38,6.63
		c0.24,0.24,0.6,0.41,0.62,0.88c-1.87,1.87-3.77,3.76-5.66,5.66c-0.81,0.82-0.81,0.83,0.2,1.66c2.58-1.6,4.45-4.05,6.7-6.03
		c1.6,1.24,2.65,2.92,4.08,4.25c0.88,0.81,1.06,0.82,1.93-0.2C109.14,266.13,107.23,264.6,105.88,262.58z"/>
	<path class="st0" d="M36.18,264.52c1.99,1.84,3.3,4.16,5.35,5.76c0.87-0.47,1.03-0.84,0.56-1.52c-0.54-0.77-1.11-1.53-1.74-2.23
		c-0.83-0.91-1.72-1.75-2.49-2.72c-0.43-0.54-0.47-0.94,0.01-1.45c2.13-2.27,3.8-4.89,5.56-7.44c0.31-0.44,0.55-0.86,0.11-1.26
		c-0.49-0.45-0.92-0.12-1.33,0.28c-1.23,1.18-2.14,2.64-3.28,3.88c-1.06,1.16-1.79,2.6-3.09,3.64c-2.3-2.58-4.31-5.35-6.74-7.74
		c-0.83,0.75-0.9,0.97-0.31,1.69c1.69,2.08,3.16,4.33,5.03,6.26c0.27,0.28,0.48,0.62,0.7,0.94c0.17,0.26,0.17,0.53-0.07,0.76
		c-1.02,0.99-1.67,2.31-2.86,3.31c-0.54-1.12-1.07-2.18-1.56-3.26c-0.95-2.1-1.98-4.15-2.73-6.34c-0.74-2.17-1.35-4.32-0.85-6.66
		c0.33-1.52,1.55-2.33,3.09-2.02c1.27,0.26,2.45,0.88,3.69,1.08c1.41,0.23,2.85,0.59,4.34,0.27c1.26-0.27,2.58-0.11,3.83-0.58
		c0.76-0.28,1.58-0.41,2.29-0.81c1.31-0.74,3.4-0.39,4.1,0.62c0.41,0.6,0.66,1.3,0.72,1.95c0.22,2.72,0.39,5.43,0.12,8.19
		c-0.24,2.47-0.71,4.9-1.08,7.34c-0.27,1.79-0.65,3.67-2.57,4.64c-1.13,0.57-2.35,0.94-3.55,1.03c-2.2,0.17-4.45,0.25-6.6-0.47
		c-1.04-0.35-1.62-1.23-2.07-2.16c-0.13-0.27-0.1-0.67,0.17-1.01C33.96,267.18,34.96,265.82,36.18,264.52z"/>
	<path class="st0" d="M101.27,313.55c1.39-0.39,2.77-0.86,4.18-1.14c1.42-0.27,2.88-0.36,4.33-0.48c0.39-0.03,0.58,0.31,0.7,0.69
		c0.36,1.19,0.82,2.37,1.28,3.51c0.68,1.69,1.38,3.38,2.09,5.07c0.77,1.81,1.14,3.73,1.65,5.61c0.08,0.29,0.08,0.63-0.08,0.99
		c-1.4,0.18-2.84,0.36-3.99,1.28c-0.36-0.21-0.1-0.69-0.48-0.81c-0.1-0.09-0.16-0.07-0.18,0.02c-0.07,0.26-0.07,0.67-0.46,0.52
		c-1.35-0.52-2.63-0.09-3.92,0.23c-0.03,0.01-0.07-0.02-0.13-0.03c-0.23-0.61,0-1.26-0.17-2.02c-0.39,0.68-0.3,1.38-0.49,1.98
		c-1.54-0.2-3.06-0.35-4.59,0.36c-0.31-0.74,0.14-1.64-0.54-2.21c-0.17,0.47,0.01,1-0.13,1.61c-1.53-0.7-3.09-0.91-4.63-0.22
		c-0.83-0.54,0.31-1.23-0.24-1.75c-0.62,0.32-0.21,0.94-0.44,1.49c-1.83-1.36-3.9-1.26-6.02-0.79c-0.34-1.09,0.16-1.98,0.22-2.9
		c0.01-0.21,0.11-0.45,0.13-0.69c0.08-0.94,0.52-1.41,1.46-1.84c1.99-0.91,4.06-1.51,6.18-1.75c1.58-0.18,3.22-0.17,4.84-0.15
		c3.88,0.03,7.46,1.44,11.21,2.05c0.11,0.02,0.2,0.12,0.31,0.15c0.07,0.02,0.15-0.01,0.23-0.02c-0.29-0.26-1.38-0.72-2.17-0.91
		c-2.55-0.6-5.08-1.4-7.68-1.62c-2.12-0.18-4.28-0.24-6.43,0.11c-1.28,0.21-2.55,0.38-3.8,0.74c-1.23,0.36-2.39,0.9-3.63,1.41
		c0.35-1.69,1-3.23,1.51-4.81c0.29-0.91,1.49-1.16,2.47-1.37c2.93-0.61,5.55,0.45,8.16,1.53c1.43,0.59,2.79,1.33,4.3,1.71
		c-3.31-1.81-6.64-3.56-10.74-3.81c2.76-0.9,5.4-1.28,8.08-1.07c2.61,0.2,5.07,1.12,7.56,1.89c-2.23-1.13-4.52-1.93-7.03-2.23
		c-0.95-0.11-1.98,0.1-2.89-0.38C101.3,313.52,101.27,313.55,101.27,313.55z"/>
	<path class="st0" d="M47.66,268.46c3.53-0.35,6.87-0.93,10.17-1.87c0.08,0.16,0.37,0.36,0.28,0.65c-0.63,2.02-0.63,4.16-1.26,6.18
		c-0.4,1.26-0.7,2.56-0.95,3.86c-0.2,1.05-0.85,1.6-1.63,2.01c-3.29,1.69-6.83,2.42-10.49,1.99c-2.27-0.27-4.53-0.82-6.5-2.12
		c-0.66-0.44-1.07-0.96-1.27-1.85c-0.32-1.4-0.51-2.84-1.04-4.19c-0.11-0.28-0.06-0.53-0.05-0.97c2.18,0.86,4.36,0.54,6.51,0.51
		c2.13-0.02,4.01-0.87,5.52-2.4C47.4,269.78,47.62,269.13,47.66,268.46z"/>
	<path class="st0" d="M88.42,267.41c1.08,0.91,2.46,1.07,3.75,1.38c0.53,0.13,0.86,0.33,1.07,0.72c0.91,1.64,2.62,1.99,4.13,2.7
		c1.68,0.78,3.52,0.6,5.23,0.63c2.93,0.05,5.88-0.39,8.31-2.37c0.09-0.07,0.2-0.11,0.36-0.19c0.47,1.05-0.02,2.02-0.13,2.99
		c-0.16,1.4-0.5,2.78-0.63,4.18c-0.07,0.71-0.27,1.39-0.35,2.09c-0.08,0.76-0.58,1.12-1.38,1.35c-2.53,0.73-5.08,1.08-7.7,0.91
		c-2.07-0.13-4.14-0.38-6.18-0.83c-0.19-0.04-0.37-0.12-0.57-0.12c-1.6,0.03-2.53-0.79-3.06-2.26c-0.71-1.94-1.36-3.89-1.96-5.87
		c-0.43-1.42-0.57-2.9-1.09-4.29c-0.1-0.27-0.34-0.79,0.25-0.98L88.42,267.41z"/>
	<path class="st0" d="M30.24,160.56c0.07-0.56,0.29-0.89,0.74-1.11c1.29,1.82-0.14,3.26-0.65,4.84c0.91-0.59,0.91-0.59,1.57-4.48
		c2,0.72,3.95,1.53,6.03,2.08c0.12,0.6,0.01,1.13-0.33,1.74c-0.45,0.8-0.6,1.76-0.88,2.65c-0.16,0.5-0.5,0.65-1.01,0.49
		c-2.06-0.64-4.09-1.33-6.09-2.14c-0.44-0.18-0.49-0.64-0.49-1.09c1.37,0.2,1.81-0.66,1.55-2.97c-0.11,0.95-0.23,1.89-0.98,2.65
		c-0.94-0.32-1.78-0.93-2.84-0.97c-1.96-0.08-3.54,0.75-4.88,2.02c-3.14,2.99-5.18,6.66-6.55,10.75c-0.95,2.85-1.38,5.76-1.17,8.73
		c0.33,4.53,1.5,8.84,4.5,12.37c1.58,1.85,3.25,3.71,5.49,4.91c0.34,0.99-0.37,1.91-0.13,3c-1.19-0.22-1.92-0.98-2.67-1.59
		c-2.99-2.43-5.61-5.19-7.45-8.65c-1.7-3.21-2.63-6.57-2.68-10.24c-0.06-4.99,1.09-9.69,3.21-14.11c1.56-3.24,3.65-6.19,6.81-8.13
		C24.12,159.61,27.05,158.93,30.24,160.56z"/>
	<path class="st0" d="M75.27,18.89c0.23-1.53,0.48-3.01,1.08-4.44c1.1-2.63,2.56-5.02,4.16-7.34c1.34-1.95,2.93-3.71,4.51-5.47
		c0.9-1,1.19-0.91,1.62,0.38c0.94,2.83,0.96,5.71,0.62,8.65c-0.22,1.85-0.61,3.61-1.21,5.37c-0.59,1.74-1.69,3.17-2.63,4.69
		c-0.29,0.47-0.74,0.53-1.25,0.31C79.92,20.07,77.57,19.5,75.27,18.89z"/>
	<path class="st0" d="M92.04,280.92c5.94,1.41,11.82,2.27,17.82,0.2c-0.33,2.74-0.64,5.32-1.06,7.9c-0.18,1.1-1.21,1.16-1.88,1.33
		c-1.93,0.5-3.92,0.91-5.93,0.78c-2.38-0.16-4.76-0.37-7.04-1.19c-0.63-0.23-0.91-0.75-0.99-1.36c-0.27-2.02-0.84-4-0.74-6.07
		C92.26,282.01,92.31,281.49,92.04,280.92z"/>
	<path class="st0" d="M18.02,45.48c0.16,0.93-0.19,1.91,0.5,2.68c0.02,0.03,0.01,0.09,0.03,0.11c0.58,0.76,1.39,1.37,1.55,2.48
		c1.08-1.22,1.81-2.49,1.85-4.11c0.74,0.05,0.95,0.41,0.92,1.07c-0.07,1.38,0.16,2.66,1.39,3.53c0.48,0.34,0.11,0.93,0.53,1.49
		c1.43-1.35,2.41-2.87,2.69-4.84c0.45,0.17,0.44,0.46,0.33,0.84c-0.39,1.31-0.08,2.4,1.12,3.16c0.21,0.13,0.33,0.31,0.44,0.54
		c0.31,0.66,0.72,1.27,1.27,1.87c-1.13-0.19-2.27-0.37-3.39-0.59c-3.03-0.6-6.06-1.22-9.08-1.83c-3.03-0.61-6.05-1.24-9.08-1.85
		c-1.76-0.35-3.53-0.72-5.3-1.01c-0.59-0.1-1.11-0.41-1.75-0.38c-0.55,0.03-0.92-0.54-0.97-1.05c-0.15-1.54-0.16-3.09,0.72-4.47
		c0.49-0.77,1.1-0.98,2.04-0.76c4.03,0.94,8.09,1.79,12.16,2.57C16.66,45.06,17.29,45.27,18.02,45.48z"/>
	<path class="st0" d="M36.85,279.48c2.86,1.72,5.9,2.39,9.22,2.36c3.26-0.03,6.3-0.59,9.12-2.5c-0.28,1.02-0.19,1.99-0.38,2.94
		c-0.25,1.26-0.46,2.53-0.73,3.8c-0.38,1.82-1.6,2.7-3.26,3.1c-1.91,0.47-3.85,0.99-5.83,0.75c-2.24-0.26-4.52-0.51-6.47-1.86
		c-0.23-0.16-0.49-0.26-0.53-0.57c-0.24-2.22-0.92-4.38-0.95-6.63C37.05,280.42,36.73,280.06,36.85,279.48z"/>
	<path class="st0" d="M105.55,196.35c-2.5-0.17-4.54-1.22-6.3-2.92c-0.89-0.86-1.86-1.66-2.61-2.65c-0.99-1.31-1.95-2.62-2.55-4.2
		c-0.42-1.1-0.86-2.22-1.26-3.32c-0.28-0.77-0.52-1.67-0.55-2.49c-0.08-2.22-0.47-4.44-0.28-6.67c0.38-4.43,1.24-8.75,3.11-12.82
		c1.17-2.53,2.52-4.89,4.77-6.67c0.87,0.33,0.99,1.2,1.18,1.91c0.18,0.68-0.57,1.08-0.93,1.55c-1.36,1.73-2.29,3.66-3.15,5.68
		c-0.63,1.48-0.95,3.02-1.44,4.51c-1.09,3.31-1.13,6.72-0.83,10.07c0.32,3.61,1.81,6.91,4.05,9.82c0.98,1.27,2.07,2.45,3.29,3.44
		c0.79,0.64,1.58,1.13,2.07,2.09C104.57,194.55,104.98,195.48,105.55,196.35z"/>
	<path class="st0" d="M108.78,310.09c-1.06-0.9-2.42-1.02-3.69-1.31c-1.33-0.31-2.72-0.58-4.07-0.53c-1.75,0.07-3.48,0.43-5.16,1
		c-0.97,0.33-1.83,0.89-2.86,1.28c0.49-2.4,0.85-4.79,0.64-7.47c2.82,2.11,5.9,2.18,8.99,1.98c0.76-0.05,1.62-0.2,2.47-0.93
		c-1.85,0.43-3.48,0.92-5.16,0.72c-1.98-0.23-3.94-0.51-5.61-1.8c-0.5-0.38-0.67-0.7-0.63-1.25c0.03-0.55-0.07-1.12,0.1-1.77
		c2.27,0.96,4.68,1.25,7.09,1.45c2.5,0.21,4.76-0.68,7.06-1.93c0.28,1.24,0.09,2.38,0.15,3.5c-0.54,0.26-1.03,0.5-1.53,0.74
		c0.65,0.35,1.08-0.32,1.71-0.37c0.34,2.26,0.77,4.48,1.27,6.68C109.28,310.33,109.03,310.33,108.78,310.09z"/>
	<path class="st0" d="M24.34,196.85c0.49,0.58,0.87,1.13,0.48,1.98c-0.25,0.54-0.25,1.2-0.39,1.91c-2.02-1.27-3.65-2.85-5.15-4.58
		c-2.29-2.64-3.46-5.81-4.2-9.16c-0.19-0.88-0.39-1.76-0.37-2.68c0.01-0.43-0.12-0.87-0.14-1.28c-0.09-2.44,0.01-4.93,1.28-7.07
		c1.48-2.51,3.94-3.76,6.74-4.32c2.6-0.52,5.14-0.32,7.65,0.65c1.09,0.42,1.98,1.08,3,1.69c-0.33,0.63-0.69,1.24-0.96,1.89
		c-0.12,0.3-0.28,0.34-0.53,0.32l0.04,0.03c-0.11-0.28-0.33-0.39-0.59-0.53c-1.49-0.8-3.08-1.19-4.76-1.48
		c-1.68-0.29-3.22-0.16-4.75,0.52c-1.52,0.97-2.97,2.02-3.7,3.78c-0.09,0.21-0.28,0.39-0.42,0.58c-0.9,1.12-0.8,2.51-0.9,3.79
		c-0.18,2.35,0.48,4.59,1.42,6.72c0.68,1.53,1.41,3.07,2.86,4.09C21.9,194.94,23.06,195.96,24.34,196.85z"/>
	<path class="st0" d="M140.17,80.97c-1.63-1.73-3.47-3-5.47-4.05c-1.35-0.71-2.74-1.35-4.15-1.89c-2.33-0.89-4.7-1.68-7.13-2.29
		c-4.1-1.02-8.25-1.74-12.38-2.63c-0.65-0.14-1.13-0.56-1.5-1.09c-0.68-0.97-1.41-1.9-2.29-2.7c-0.17-0.15-0.35-0.8-0.73-0.13
		c-0.03,0.05-0.31-0.24-0.28-0.26c0.18-0.12-0.02-0.57,0.51-0.42c1.05,0.29,2.15,0.4,3.22,0.64c3.62,0.81,7.27,1.51,10.89,2.32
		c4,0.89,8,1.87,11.64,3.89c1.68,0.94,3.28,2.01,4.73,3.28C138.69,76.92,139.76,78.87,140.17,80.97z"/>
	<path class="st0" d="M87.22,162.04c1.85,0.92,3.62,1.8,5.39,2.69c0.39,0.2,0.4,0.59,0.32,0.95c-0.3,1.29-0.66,2.56-0.91,3.86
		c-0.43,2.14-0.56,4.3-0.51,6.48c0.03,1.34-0.01,1.31-1.25,1.89c-0.47,0.22-0.75,0.21-1.15-0.13c-1.95-1.7-4.09-3.16-6.18-4.68
		c-0.09-0.07-0.22-0.09-0.31-0.16c-1.05-0.8-1.09-0.97-0.44-2.1C83.82,167.95,85.48,165.07,87.22,162.04z"/>
	<path class="st0" d="M17.57,179.09c0.14-0.19,0.33-0.36,0.42-0.58c0.73-1.76,2.17-2.81,3.7-3.78c0.16,0.01,0.33,0.06,0.48,0.02
		c2.14-0.55,4.22-0.25,6.34,0.21c1.18,0.25,2.13,0.99,3.27,1.25l-0.04-0.03c0.09,0.27,0.35,0.46,0.1,0.83
		c-0.4,0.6-0.67,1.29-0.97,1.9c-0.34,0.15-0.55-0.17-0.81-0.09l0.04,0.03c-0.1-0.34-0.4-0.46-0.69-0.58
		c-1.31-0.51-2.65-0.89-4.07-0.89c-1.21,0-2.3,0.28-3.16,1.18c-0.63,0.45-0.94,1.18-1.48,1.72c-1.02,1.55-0.94,3.23-0.48,4.89
		c0.84,3.01,2.47,5.59,4.69,7.76c0.83,0.81,1.11,1.6,0.6,2.61c-0.22,0.43-0.13,0.93-0.3,1.24c-0.36,0.35-0.6-0.07-0.86,0.06
		c-1.28-0.89-2.45-1.91-3.4-3.16c0-0.16,0.02-0.31-0.11-0.44c-1.66-1.78-2.74-3.89-3.33-6.23c-0.42-1.69-0.82-3.37-0.47-5.2
		C17.21,180.92,17.61,180.04,17.57,179.09z"/>
	<path class="st0" d="M38.52,288.75c5.03,2.21,9.9,2.4,14.74-0.04c0.71,1.44,0.19,2.93-0.05,4.42c-0.11,0.7-0.18,1.4-0.27,2.1
		c-0.09,0.7-0.41,1.04-0.95,1.17c-1.55,0.4-3.09,0.82-4.7,1.03c-1.92,0.25-3.71-0.09-5.49-0.73c-1.53-0.55-2.67-1.24-2.66-3.2
		c0-1.04-0.16-2.18-0.58-3.22C38.38,289.87,38.52,289.34,38.52,288.75z"/>
	<path class="st0" d="M93.2,290.12c5.09,2.03,10.15,2.04,15.27,0.2c0.25,1.78-0.22,3.33-0.26,4.9c0,0.11-0.1,0.22-0.12,0.33
		c-0.25,1.4-0.64,1.76-2.03,2.09c-1.73,0.42-3.5,0.61-5.25,0.66c-1.94,0.05-3.94,0.02-5.83-0.66c-1.11-0.4-1.31-0.63-1.29-1.79
		c0.02-1.59-0.7-3.09-0.49-4.7C93.23,290.84,93.2,290.51,93.2,290.12z"/>
	<path class="st0" d="M49.74,54.28c0-0.51,0-1.02,0-1.51c1.54-0.33,2.14,0.3,1.84,1.72c-0.24,1.15-0.36,2.32-1.19,3.34
		c-0.5-0.02-0.98-0.38-1.6-0.13c0.09-1.14,0.81-1.92,0.78-3.18c-0.42,1-0.74,1.76-1.06,2.51c-0.24,0.56-0.58,0.78-1.26,0.63
		c-2.25-0.49-4.53-0.88-6.79-1.32c-1.19-0.23-2.37-0.49-3.57-0.73c-0.27-0.45,0.12-0.83,0.22-1.21c0.4-1.49,0.15-2.25-1.21-2.72
		c-0.92-0.32-0.87-0.28-0.53-1.86c0.16-0.76,0.76-0.65,1.23-0.55c3.82,0.82,7.63,1.68,11.47,2.38c1.12,0.21,1.41,0.61,1.45,1.79
		C49.53,53.72,49.45,54,49.74,54.28z"/>
	<path class="st0" d="M123.32,183.5c-0.19-0.24-0.33-0.48-0.37-0.82c-0.28-2.42-0.84-4.82-2.06-6.9c-1.58-2.71-2.4-5.73-3.92-8.44
		c-1.81-3.22-3.7-6.38-6.41-8.95c-0.66-0.63-1.41-1.15-2.08-1.77c-0.78-0.73-1.55-2.2-1.52-3.42c1.03-0.13,1.75,0.61,2.5,1.05
		c3.3,1.94,5.59,4.87,7.65,8.04c1.73,2.66,3.01,5.54,4.25,8.43c0.88,2.06,1.4,4.29,1.84,6.51c0.33,1.67,0.17,3.38,0.46,5.06
		C123.75,182.73,123.66,183.16,123.32,183.5z"/>
	<path class="st0" d="M135.26,163.25c-0.37-0.6-0.49-0.98-0.39-1.62c0.48-3.11-0.52-6.11-4.14-7.05c-3.54-0.92-7.21,0.41-8.31,4.03
		c-0.35,1.17-0.4,2.4,0.25,3.43c0.49,0.77,0.6,1.39,0.11,2.17c-0.84-0.09-1.27-0.78-1.68-1.36c-1.54-2.19-1.43-6.11,0.65-8.41
		c3.08-3.41,8.83-4.05,12.57-1.23c2.88,2.17,3.94,6.32,1.24,9.57C135.46,162.89,135.39,163.04,135.26,163.25z"/>
	<path class="st0" d="M94.9,61.57C89.08,64.78,83.56,68.26,78.19,72c-3.09,2.15-6.13,4.37-9.09,6.71c-2.79,2.2-5.43,4.56-8.19,6.78
		c-0.06,0.05-0.11,0.11-0.17,0.17c-3.84,3.67-7.73,7.29-11.36,11.16c-2.7,2.87-5.47,5.7-7.65,9.02c-0.3,0.46-0.78,0.77-1.04,1.28
		c-0.22,0.42-0.65,0.56-1.17,0.35c-0.37-0.96,0.52-1.44,0.95-1.96c1.75-2.09,3.58-4.12,5.35-6.19c3.38-3.94,7.06-7.58,10.8-11.16
		c2.71-2.59,5.6-4.99,8.47-7.4c3.23-2.71,6.58-5.24,9.96-7.74c2.99-2.22,6.09-4.28,9.24-6.25c2.99-1.87,6.04-3.63,9.11-5.36
		C93.85,61.15,94.3,61.13,94.9,61.57z"/>
	<path class="st0" d="M108.78,310.09c0.25,0.24,0.49,0.24,0.74,0c0.27,0.38,0.43,0.8,0.47,1.37c-0.82,0.11-1.61,0.28-2.41,0.33
		c-2.09,0.12-4.05,0.75-5.99,1.45c-0.16,0.06-0.26,0.16-0.34,0.31l0.03-0.03c-3.21,0.64-6.4,1.35-9.49,2.78
		c-0.05-0.54-0.06-0.98,0.1-1.48c0.35-1.07,0.67-2.16,0.8-3.29c0.04-0.36,0.22-0.53,0.53-0.7c2.9-1.6,5.98-2.41,9.28-2.11
		c1.86,0.17,3.7,0.6,5.46,1.26C108.26,310.07,108.51,310.13,108.78,310.09z"/>
	<path class="st0" d="M52.91,170.74c-0.96,1.01-2.14,1.58-3.24,2.23c-1.01,0.6-1.95,1.29-2.97,1.88c-0.87,0.5-1.12,0.48-1.45-0.45
		c-0.68-1.91-1.33-3.83-1.97-5.75c-0.64-1.92-0.6-1.88,1.16-2.89c1.09-0.62,2.21-1.17,3.21-1.94c0.78-0.59,1.04-0.45,1.54,0.43
		C50.41,166.39,51.64,168.52,52.91,170.74z"/>
	<path class="st0" d="M101.56,157.22c0.01,2.12,0.31,3.79,2.55,4.09c1.18,0.16,2.16-0.57,3.07-2.3c0.26,0.22,0.17,0.5,0.17,0.74
		c0.01,2.28,0.01,4.55,0,6.83c0,1.11-0.03,1.01-1.08,1.25c-0.92,0.21-1.88,0.08-2.79,0.42c-0.55,0.21-1.16-0.05-1.58-0.32
		c-0.99-0.65-2.08-1.09-3.13-1.64c-0.72-0.37-1.12-0.71-0.86-1.72c0.25-0.96,0.27-2.05,0.59-2.98
		C99.07,159.98,100.02,158.56,101.56,157.22z"/>
	<path class="st0" d="M55.46,171.55c1.95-1.1,3.81-2.17,5.69-3.22c0.61-0.35,1.22-0.71,1.86-1c0.52-0.24,0.35-0.74,0.53-1.16
		c0.58-0.06,1.16-0.08,1.92,0.06c-2.43,2.02-3.56,4.51-3.48,7.55c0.08,3.04,1.38,5.47,3.72,7.64c-1.62,0.1-3.08,0.18-4.53-0.23
		c-0.2-0.06-0.29-0.24-0.39-0.42c-1.25-2.53-2.89-4.82-4.4-7.19C56.02,172.99,55.67,172.37,55.46,171.55z"/>
	<path class="st0" d="M20.69,180.29c0.54-0.53,0.85-1.26,1.48-1.72c0.26,0.08,0.44-0.1,0.65-0.2c1.06-0.48,2.1-0.72,3.35-0.57
		c1.39,0.17,2.6,0.78,3.93,1.05l-0.04-0.03c0.1,0.29,0.3,0.45,0.61,0.55c-0.08,0.88-0.57,1.58-0.99,2.38
		c-0.89-0.22-1.55-0.88-2.43-1.1c-2.27-0.58-3.74,0.4-4.51,2.33c-0.3,0.76,0.06,1.48,0.33,2.16c0.7,1.77,1.78,3.32,3.06,4.71
		c0.52,0.57,0.76,1.04,0.38,1.77c-0.25,0.48-0.29,1.05-0.6,1.54c-1.18-0.32-1.63-1.46-2.31-2.26c-1.32-1.55-2.28-3.36-2.98-5.29
		c-0.55-1.51-0.54-3.01-0.05-4.51C20.65,180.82,20.72,180.57,20.69,180.29z"/>
	<path class="st0" d="M55.51,264.95c-1.64-3.95-3.44-7.75-5.84-11.33c2.9-0.6,5.66-1.21,8.57-2.16
		C57.43,256.1,56.68,260.57,55.51,264.95z"/>
	<path class="st0" d="M119.26,158.2c-1.02-5.46,3.32-9.47,7.55-10.05c5.7-0.78,9.81,2.85,10.14,7.37c-2.5-3.42-5.58-5.02-9.73-4.31
		C123.16,151.9,120.69,154.31,119.26,158.2z"/>
	<path class="st0" d="M118.58,155.26c-1-5.61,2.67-9.64,7.62-10.45c5.14-0.84,9.35,2.44,9.94,6.85c-2.73-3.37-6.03-4.71-10.05-3.76
		C122.15,148.82,119.66,151.32,118.58,155.26z"/>
	<path class="st0" d="M69.52,115.3c-0.02,0.1-0.07,0.19-0.05,0.25c0.31,0.69,0.03,1.29-0.47,1.65c-1.11,0.78-0.95,3.06-3.09,2.61
		c-0.17-0.04-0.3-0.08-0.46-0.32c0.47-0.26,0.68-0.77,1.13-1.13c-0.5-0.62-0.99-1.17-1.76-1.43c-0.09,0.4,0.19,0.79-0.05,1.14
		c-0.28,0.41-0.67,0.33-1.07,0.23c-0.41-0.1-0.32,0.49-0.64,0.49c-1.25-0.81-1.29-2.38-2.17-3.41c-0.83,1.09-0.55,2.64-1.41,3.78
		c-0.68-0.38-0.95-0.67-0.68-1.47c0.32-0.96,0.52-1.96,1.02-2.86c0.61-1.09,1.23-1.11,1.93-0.06c0.52,0.77,1.01,1.56,1.55,2.38
		c0.59-1.77,0.59-1.77,2.65-1.27c0.05-0.58-0.84-0.88-0.55-1.43c0.52-0.99,1.02-1.97,1.22-2.95c0.59-0.21,0.67,0.21,0.81,0.39
		c0.89-0.31,1.54-0.8,2.12-1.42c0.34-0.36,0.64-0.91,1.35-0.43c0.35,0.23,0.52-0.5,1.16-0.55c-0.05,1.61-1.34,2.79-1.37,4.47
		c0.05,0.18,0.54,0.1,0.63,0.52C71.11,115.5,70.18,115.14,69.52,115.3z M69.85,111.75c-0.58,0.56-1.3,0.98-1.92,1.58
		c0.43,0.4,0.8,0.75,1.37,1.28C68.86,113.38,69.79,112.74,69.85,111.75z"/>
	<path class="st0" d="M46.71,176.45c2.52-1.22,4.65-2.72,7.1-3.85c2.01,2.67,3.43,5.67,5.53,8.27
		C54.94,180.09,50.81,178.65,46.71,176.45z"/>
	<path class="st0" d="M80.24,171.08c-2.39-1.72-4.68-3.34-6.91-5.51c4.19-0.78,8.03-1.94,12.1-3.3
		C83.64,165.3,81.99,168.11,80.24,171.08z"/>
	<path class="st0" d="M87.85,178.49c-3.68,1.36-7.38,2.34-11.21,2.62c-0.33-0.34-0.26-0.6-0.07-0.91c1.32-2.2,2.63-4.41,4.02-6.75
		C83.11,175.05,85.36,176.91,87.85,178.49z"/>
	<path class="st0" d="M51.14,57.29c0.63-1.11,0.79-2.26,0.85-3.5c2.11,0.46,4.16,0.91,6.21,1.35c1.33,0.28,2.68,0.52,4.01,0.83
		c1.47,0.34,1.8,0.39,1.26,1.9c-0.06,0.18-0.01,0.4-0.07,0.59c-0.39,1.23-0.66,1.37-1.92,1.1c-3.01-0.65-6.02-1.29-9.03-1.91
		C52.01,57.57,51.64,57.36,51.14,57.29z"/>
	<path class="st0" d="M98.53,154.22c-0.17-0.88,0.1-1.57,0.43-2.25c0.18-0.37,0.41-0.76,0.86-0.71c1.25,0.14,2.3-0.43,3.39-0.84
		c0.58-0.22,0.94-0.1,1.37,0.3c0.71,0.67,1.07,1.53,1.43,2.39c0.81,1.92,0.71,3.95,0.6,5.96c-0.06,1.16-1.38,1.9-2.8,1.76
		c-1.1-0.1-1.64-0.85-1.74-2.13c-0.13-1.68-0.29-3.36-1.75-4.57C99.51,153.48,99.34,153.44,98.53,154.22z M106.16,158.28
		c-0.01-1.12-0.54-1.75-1.44-1.75c-1.08,0-1.92,0.8-1.92,1.81c0.01,1.01,0.64,1.55,1.8,1.55
		C105.65,159.88,106.17,159.35,106.16,158.28z"/>
	<path class="st0" d="M74.91,181.46c-1.21,0.01-2.35,0.08-3.6-0.06c0.2-0.47,0.6-0.62,0.86-0.85c1.72-1.46,2.31-3.43,2.52-5.54
		c0.28-2.76-0.63-5.19-2.37-7.32c-0.27-0.33-0.55-0.69-0.97-0.87c-0.45-0.19-0.56-0.49-0.32-1.07c0.98,0.9,1.99,1.64,2.97,2.4
		c1.4,1.08,2.71,2.26,4.18,3.26c1.19,0.81,1.29,1.14,0.6,2.42c-1.12,2.07-2.25,4.13-3.47,6.13
		C75.02,180.46,74.99,180.92,74.91,181.46z"/>
	<path class="st0" d="M54.79,266.8c-1.76,0.67-3.59,0.87-5.41,1.08c-0.19,0.02-0.39,0.06-0.58,0.11c-0.8,0.18-0.91,0.08-0.77-0.76
		c0.49-2.97,1.09-5.92,1.27-8.94c0.04-0.61,0.15-1.28,0.35-2.1C51.74,259.66,53.13,263.23,54.79,266.8z"/>
	<path class="st0" d="M39.94,301.73c-0.17-0.09-0.35-0.18-0.52-0.27c-0.08-1.67,0.1-3.32,0.36-5.13c1.41,1.03,3.12,1.22,4.38,2.33
		c0.17,0.15,0.33,0.2,0.54,0.16c0.2,0.24,0.48,0.38,0.76,0.52c1.44,1.4,3.27,2.03,5.12,2.6c0.51,0.16,1.03,0.4,1.61,0.32
		c-0.68,0.53-1.5,0.52-2.26,0.65c-3.36,0.57-6.62,0.19-9.76-1.16C40.11,301.71,40.02,301.73,39.94,301.73z"/>
	<path class="st0" d="M76.46,13.08c-0.84,1.85-1.41,3.67-1.47,5.86c-2.97-0.92-5.83-1.03-8.75-1.06c0.53-0.29,1.06-0.59,1.75-0.97
		c-1.6-0.05-2.44,1.63-3.94,1.34C65.77,15.38,72.11,13.1,76.46,13.08z"/>
	<path class="st0" d="M61.67,166.13c-2.43,1.3-4.86,2.61-7.34,3.94c-1.37-2.21-2.67-4.33-4.12-6.68
		C54.04,164.64,57.74,165.61,61.67,166.13z"/>
	<path class="st0" d="M45.46,299.33c-0.28-0.13-0.55-0.27-0.76-0.52c-0.12-0.19-0.24-0.37-0.46-0.72c2.99,0.2,5.76-0.18,8.39-1.39
		c1.04,0.99,1.36,3.99,0.61,5.33c-2.22-0.1-4.21-0.86-6.13-1.87C46.56,299.89,46.16,299.31,45.46,299.33z"/>
	<path class="st0" d="M85.76,252.95c1.32,0.54,2.57,0.79,3.92,1.19c-1.08,3.37-2.15,6.73-3.23,10.1c-0.1-0.01-0.21-0.02-0.31-0.03
		C85.44,260.51,84.82,256.81,85.76,252.95z"/>
	<path class="st0" d="M88.46,267.45c-0.42-0.33-0.84-0.65-1.33-1.03c1.13-2.76,1.64-5.73,2.89-8.52c0.43,3.66,1.54,7.12,2.83,10.63
		c-1.7-0.08-2.97-0.97-4.43-1.11L88.46,267.45z"/>
	<path class="st0" d="M40.66,156.49c0.76,0.57,0.42,1.17,0.24,1.78c2.13,1.5,4.27,2.96,6.73,4.13c-1.51,1.05-3.05,1.87-4.61,2.65
		c-0.42,0.21-0.85,0.24-1.04-0.34c-0.69-2.11-1.35-4.23-2.07-6.32C39.6,157.52,39.91,156.98,40.66,156.49z"/>
	<path class="st0" d="M42.1,174.29c-1.13-0.53-2.15-1.23-3.16-1.96c-0.24-0.61-0.87-0.79-1.33-1.11c-0.37-0.25-0.67-0.54-1.07-0.95
		c1.61-0.84,3.15-1.71,4.81-2.79c1.03,2.58,1.74,5.18,2.99,7.7C43.34,175.18,42.86,174.4,42.1,174.29z"/>
	<path class="st0" d="M117.29,222.5c-2.88,2.2-5.81,1.91-8.74,0.83c-2.95-1.08-4.91-3.33-6.42-5.98c-0.73-1.28-1.32-2.65-2.04-4.12
		c0.83,0.34,1.39,0.65,1.31,1.58c-0.03,0.31,0.22,0.66,0.49,0.91c0.45,0.44,0.92,0.77,1.01,1.58c0.1,0.93,1.53,0.9,2.38-0.09
		c0.35,0.76,0.68,1.5,1.03,2.22c0.37,0.75,0.8,1.44,1.77,1.49c-0.52,0.91,0.05,2.02,1.24,2.03c1.92,0.01,3.87,0.42,5.78-0.3
		C115.67,222.43,116.39,222.28,117.29,222.5z"/>
	<path class="st0" d="M71.89,130.13c0.6,1.62,2.27,2.09,3.06,3.33c-0.2,0.43-0.64,0.11-0.86,0.39c0.14,0.28,0.18,0.58,0.04,1.1
		c-1.59-0.36-2.74-1.62-4.26-2.18c-0.26,0.3-0.52,0.63-0.97,0.68c-0.86-0.77-0.86-0.79-0.26-1.82c-0.89-0.04-1.55-0.46-2.03-1.15
		c0.57-1.05,1.82,1.21,2.23-0.5c-0.31-0.2-0.91,0.04-1.06-0.51c-0.19-0.71,0.74-0.61,0.84-1.26c-0.01-0.1-0.34-0.19-0.27-0.48
		c0.36-0.37,0.74-0.36,1.15-0.06c0.82,0.59,1.03,1.44,0.58,2.36c-0.19,0.39-0.39,0.77-0.63,1.22c0.89,0.42,1.78,0.84,2.67,1.26
		c0.04-0.04,0.07-0.09,0.11-0.13c-0.3-0.32-0.58-0.67-0.91-0.97c-0.31-0.27-0.53-0.61-0.64-0.98c-0.11-0.4-0.23-0.92,0.24-1.19
		c0.49-0.27,1.07-0.17,1.44,0.19C72.81,129.89,72.52,130.16,71.89,130.13z"/>
	<path class="st0" d="M51.6,115.42c-0.31-1.11-1.19-1.78-1.79-2.63c-0.28-0.4-0.65-0.82-0.24-1.21c0.37-0.35,0.95-0.55,1.47-0.15
		c0.65,0.5,1.31,0.97,2.21,1.15c0.06-0.53,0.33-0.88,0.9-0.64c0.48,0.2,0.59,1.19,0.26,2.02c0.57,0.09,1.16,0.18,1.61,0.5
		c0.5,0.35,0.79,0.88,0.65,1.65c-1-0.48-1.3,1.51-2.39,0.6c-0.22,0.13-0.19,0.24-0.14,0.36c0.12,0.28,0.72,0.52,0.2,0.85
		c-0.36,0.23-0.85,0.04-1.11-0.31c-0.22-0.3-0.32-0.7-0.5-1.14c-0.63,0.02-1.37,0.21-1.9-0.34c-0.24-0.25-0.53-0.62-0.26-1.06
		C51.01,114.89,51.1,115.52,51.6,115.42z M51.62,112.99c0.28,1.1,1.07,1.59,1.35,2.42c0.28-0.47,0.52-0.87,0.76-1.27
		C53.04,113.91,52.38,113.62,51.62,112.99z"/>
	<path class="st0" d="M56.58,266.57c0.99-4.58,2.35-8.83,2.77-13.27c1.21,2.9,0.66,5.9,0.67,8.84c0.01,1.12-0.59,2.24-0.92,3.35
		c-0.07,0.24-0.24,0.39-0.5,0.46C58.04,266.11,57.49,266.29,56.58,266.57z"/>
	<path class="st0" d="M105.49,76.62c-0.81-0.41-0.34-1.07-0.64-1.51c-0.36,0.43,0.22,1.27-0.75,1.48c-0.27-2.32-0.24-4.68-0.91-6.89
		c-0.72-0.23-0.88,0.55-1.45,0.66c-0.33-0.64-0.07-1.22,0.38-1.54c0.55-0.4,1.23-0.89,1.96-0.55c0.58,0.28,0.62,0.96,0.63,1.55
		c0.02,1.08,0.01,2.16,0.01,3.27c0.58-0.33,0.45-0.84,0.49-1.3c0.07-0.78-0.13-1.56,0.19-2.35c0.21-0.52,0.37-0.96,1-1
		c0.74-0.04,1.37,0.25,1.64,0.93c0.13,0.32,0.65,0.88-0.16,1.2c-0.51-0.06-0.62-0.61-1.03-0.99
		C105.77,71.8,106.21,74.29,105.49,76.62z"/>
	<path class="st0" d="M99.97,68.61c-0.1-1.52-0.57-1.86-2.53-2.09c-1.75-0.21-3.5-0.49-5.24-0.75c-0.13-0.02-0.25-0.17-0.42-0.3
		c0.36-0.24,1.17,0.02,0.85-0.85c-0.06-0.16,0.35-0.21,0.59-0.27c1.79-0.4,3.66-0.34,5.44-0.92c0.59-0.19,1.12-0.88,1.83-0.44
		c-0.03,1.62-1.36,1.54-2.42,1.84c-1.2,0.35-2.44,0.18-3.92,0.28c0.58,0.27,0.96,0.21,1.3,0.19c1.35-0.07,2.69,0.1,4.03,0.25
		c0.76,0.09,1.67,0.92,1.85,1.65C101.56,68.13,101.11,68.61,99.97,68.61z"/>
	<path class="st0" d="M96.64,157.04c-1.18,1.99-2.19,4.04-3.06,6.27c-1.76-0.59-3.23-1.64-5.16-2.33
		C91.3,159.6,94.07,158.56,96.64,157.04z"/>
	<path class="st0" d="M59.64,128.5c-0.01-0.24-0.04-0.47-0.04-0.71c0-0.27,0.18-0.45,0.41-0.52c0.3-0.1,0.58,0.03,0.71,0.3
		c0.23,0.48,0.54,0.85,1.02,1.09c0.49,0.17,0.69-0.25,0.98-0.48c0.49-0.1,0.46-0.56,0.54-0.91c1.26,0.32,2.01,0.95,2.2,1.8
		c0.68-0.35,0.92-1.04,1.32-1.57c-0.11-0.37-0.43-0.19-0.61-0.32c-0.2-0.15-0.36-0.32-0.32-0.59c0.04-0.32,0.23-0.51,0.54-0.53
		c0.36-0.02,0.73-0.07,1.07,0.01c0.45,0.1,0.9,0.45,0.73,0.91c-0.4,1.05-0.67,2.23-1.75,2.84c-0.48,0.27-0.99,0.51-1.63,0.34
		c-0.93-0.25-1.02-0.3-0.73-1.26c0.05-0.16,0.09-0.3,0.03-0.45c-0.51,0.13-0.4,0.63-0.53,0.97c-0.16,0.41-0.26,0.86-0.75,0.92
		c-0.59,0.07-0.38,0.64-0.58,1.09c-1.07-0.97-1.43-2.35-2.63-2.94L59.64,128.5z"/>
	<path class="st0" d="M59.61,128.47c-0.1,1.32-0.43,1.6-2.01,1.71c-0.26,0.16-0.08,0.45-0.18,0.64c-0.26,0.5-0.61,1.12-1.2,0.94
		c-0.75-0.23-1.76,0.09-2.2-1.03c-0.28-0.69-0.09-1.15,0.26-1.62c0.43-0.59,0.64-0.55,1.12,0.11c0.26,0.35,1,0.15,0.85,0.9
		c0.42-0.25,0.62-0.46,0.27-0.8c-0.56-0.53-0.77-1.24-1.07-1.93c-0.23-0.54,0.03-0.84,0.27-1.15c0.25-0.33,0.64-0.24,0.99-0.09
		c0.29,0.12,0.56,0.29,0.86,0.36c0.42,0.1,0.71,0.35,0.55,0.74c-0.11,0.28-0.45,0.56-0.85,0.38c-0.19-0.08-0.34-0.23-0.54,0.09
		c0.37,0.49,0.71,1.06,1.5,1.23c0.24-0.39,0.26-0.93,0.79-1.14c0.39,0.01,0.26,0.61,0.64,0.69L59.61,128.47z"/>
	<path class="st0" d="M39.22,160.96c0.56,1.72,1.12,3.44,1.7,5.24c-1.57,0.95-3.12,1.89-4.67,2.82c-0.07-0.04-0.14-0.08-0.2-0.12
		C37.3,166.33,38.29,163.67,39.22,160.96z"/>
	<path class="st0" d="M68.32,18.55c2.4-0.09,4.45,0.41,6.53,0.77c0.2,0.35-0.11,0.53-0.3,0.66c-0.98,0.66-1.8,1.51-2.7,2.27
		c-0.52,0.44-0.92,0.46-1.27-0.07C69.85,21.05,69.15,19.88,68.32,18.55z"/>
	<path class="st0" d="M50.94,135.48c0.43-1.2,1.14-2.19,1.52-3.34c0.18-0.53,0.37-0.97-0.3-1.21c0.11-0.44,0.36-0.67,0.71-0.54
		c0.45,0.16,0.86,0.5,0.94,0.98c0.07,0.44,0.15,0.93-0.26,1.34c-0.28,0.29-0.46,0.69-0.6,1.12c0.53-0.36,1-0.76,1.37-1.29
		c0.39-0.56,0.99-0.68,1.49-0.33c0.56,0.4,0.71,1.25,0.31,1.74c-0.3,0.37-0.67,0.33-1.49-0.17c-0.47,0.51-1.06,0.91-1.38,1.59
		c-0.21,0.44-0.73,0.7-1.12,0.81C51.76,136.28,51.3,135.9,50.94,135.48z"/>
	<path class="st0" d="M75.98,19.73c0.54,1.73,0.99,3.18,1.52,4.86c-2-0.24-3.67-0.67-5.48-1.12C73.17,22.04,74.73,21.22,75.98,19.73
		z"/>
	<path class="st0" d="M54.34,119.82c0.22-1.59,0.96-2.79,2.5-3.38c0.98-0.38,1.33-0.17,1.3,0.85c-0.02,0.59,0.3,1.29-0.37,1.77
		c-0.57-0.05-0.69-0.6-1.05-0.96c-0.41,0.24-0.71,0.57-1.08,1.12c1.19-0.1,1.58,0.81,2.31,1.51c-1.41,0.49-2.56,1.35-3.92,2.21
		c0.23-1.37,1.63-1.33,2.16-2.21C55.8,120.05,54.77,120.5,54.34,119.82z"/>
	<path class="st0" d="M67.65,19.2c0.95,1.18,1.71,2.35,2.27,3.75c-1.77,0.42-3.46-0.14-5.37-0.13
		C65.18,21.21,66.55,20.41,67.65,19.2z"/>
	<path class="st0" d="M78.63,24.34c-0.68-1.39-0.95-2.85-1.51-4.18c0.09-0.07,0.15-0.17,0.2-0.17c1.58,0.24,3.06,0.8,4.54,1.4
		c0.37,0.15,0.41,0.51,0.19,0.63C80.88,22.69,79.97,23.76,78.63,24.34z"/>
	<path class="st0" d="M83.26,22.45c0.36,1.57,0.67,2.97,0.83,4.61c-1.63-0.65-3.06-1.22-4.65-1.85
		C80.63,24.15,81.74,23.24,83.26,22.45z"/>
	<path class="st0" d="M61.45,19.37c1.78-0.58,3.46-0.83,5.24-0.76c-1.28,1.25-2.2,2.79-3.59,3.93
		C62.39,21.58,61.86,20.57,61.45,19.37z"/>
	<path class="st0" d="M62.48,126.03c-0.21-0.82,0.56-1.29,0.73-1.99c0.29-1.2-0.06-2.23-1.16-2.9c-0.18-0.11-0.3-0.26-0.24-0.54
		c1.62-0.44,2.2,0.87,3.03,1.79c0.83-0.67,1.18-0.63,1.92,0.28c-0.72,0.91-0.77,0.92-1.85,0.34c-0.03,0.48-0.05,0.94-0.08,1.41
		c-0.29,0-0.15-0.26-0.32-0.38c-0.39,0.96-0.85,1.88-2.07,1.96L62.48,126.03z"/>
	<path class="st0" d="M108.89,161.52c0.53,1.21,1.37,2.23,1.98,3.36c0.3,0.56,0.36,1.46-0.63,1.89c-0.53,0.23-0.78,1.05-1.63,0.7
		c0-1.93,0-3.87,0-5.81C108.7,161.61,108.79,161.56,108.89,161.52z"/>
	<path class="st0" d="M101.08,169.13c-1.67,0.93-2.95,1.95-4.33,2.82c-0.07-0.06-0.14-0.12-0.21-0.18c0.24-1.21,0.48-2.41,0.73-3.61
		c0.11-0.55,0.43-0.74,0.95-0.48C99.1,168.11,99.96,168.56,101.08,169.13z"/>
	<path class="st0" d="M101.92,63.74c0.29-0.23,0.71,0.04,0.96-0.27c0.29,0.35,0.4,0.7,0.41,1.12c0.05,1.34,1.36,2.46,2.64,2.12
		c0.56-0.15,0.89-0.09,1.04,0.35c0.14,0.41-0.25,0.64-0.61,0.82c-0.72,0.37-2.34,0.14-3.05-0.47
		C102.2,66.44,101.56,65.29,101.92,63.74z"/>
	<path class="st0" d="M84.67,22.58c1.23,0.3,2.21,0.9,3.01,1.82c0.34,0.39,0.33,0.76-0.07,1.01c-0.61,0.39-1.08,0.92-1.62,1.38
		c-0.34,0.29-0.83,0.16-0.86-0.23C84.99,25.25,84.3,24,84.67,22.58z"/>
	<path class="st0" d="M68.23,122.23c-1.04-0.72-1.86-1.28-2.84-1.96c1.51-0.18,2.5,0.55,3.52,1.1c0.73,0.4,0.75,1.18,0.04,1.62
		c-0.55,0.34-0.83,0.75-0.99,1.35c-0.14,0.51-0.63,0.8-1.01,1.13c-0.27,0.23-0.64,0.33-0.95,0.05c-0.3-0.28-0.26-0.66-0.02-0.94
		c0.33-0.39,0.51-0.88,0.93-1.21C67.33,123.06,67.7,122.7,68.23,122.23z"/>
	<path class="st0" d="M59.83,124.09c0.08-0.55-0.14-1.13,0.14-1.64c0.34-0.63,1.08-0.89,1.73-0.65c0.68,0.25,1.21,1.19,0.96,1.91
		c-0.15,0.43-0.2,0.92-0.62,1.37c-0.35,0-0.78,0-1.22,0C60.24,125.01,60.04,124.54,59.83,124.09z"/>
	<path class="st0" d="M60.69,19.86c0.46,1,0.88,1.9,1.32,2.84c-1.3,0.48-2.67,0.33-3.97,0.88c-0.3-1.04,0.78-1.26,1.09-1.89
		C59.45,21.02,59.85,20.37,60.69,19.86z"/>
	<path class="st0" d="M59.83,124.09c0.21,0.45,0.42,0.91,1,1c0.06,0.36,0.48,0.49,0.6,0.83c-1.79,0.56-2.85-0.62-3.01-2.18
		c-0.19-1.88,0.5-2.92,1.83-2.9C59.74,121.89,59.2,122.93,59.83,124.09z"/>
	<path class="st0" d="M40.75,69.95c-0.55,0.74-1.13,1.46-1.63,2.25c-0.24,0.37-0.62,0.65-0.2,1.13c0.37,0.41,0.77,0.54,1.26,0.26
		c0.12-0.07,0.21-0.08,0.32-0.03c-0.2,0.73-0.26,0.84-0.76,0.88c-0.69,0.05-1.36,0-1.74-0.72c-0.3-0.55-0.46-1.12,0.07-1.62
		C38.88,71.3,39.6,70.39,40.75,69.95z"/>
	<path class="st0" d="M58.11,125.43c-0.43,0.56-0.77,0.32-1.13,0.14c-0.73-0.37-1.47-0.72-2.2-1.1c-0.89-0.46-0.93-0.67-0.27-1.38
		c0.13-0.14,0.29-0.27,0.51-0.47C55.8,123.85,57.23,124.33,58.11,125.43z"/>
	<path class="st0" d="M62.73,128.17c-0.29,0.23-0.49,0.65-0.98,0.48c0-0.08,0.03-0.18-0.01-0.23c-0.76-1.01-0.74-1.88,0.75-2.39
		L62.45,126C62.34,126.75,62.77,127.43,62.73,128.17z"/>
	<path class="st0" d="M61.3,117.04c0.19,0.44,0.43,0.87,0.45,1.38c0.02,0.42-0.02,0.83-0.54,0.88c-0.51,0.04-0.71-0.32-0.64-0.76
		C60.65,117.99,60.15,117.15,61.3,117.04z"/>
	<path class="st0" d="M56.07,122.5c0.58-0.06,1.04-0.22,1.54-0.07c0.35,0.11,0.57,0.28,0.54,0.65c-0.04,0.44-0.35,0.53-0.75,0.56
		C56.59,123.71,56.32,123.16,56.07,122.5z"/>
	<path class="st0" d="M48.58,66.83c0.5-0.08,0.89-0.11,1.28-0.01c0.15,1.18,0,1.41-1.23,1.8C48.86,68,49.36,67.41,48.58,66.83z"/>
	<path class="st0" d="M105.89,66.1c-1.19,0.02-1.58-0.26-1.84-1.31C105.18,64.53,105.35,65.59,105.89,66.1z"/>
	<path class="st0" d="M27.6,181.2c0.31,0.17,0.55,0.3,0.83,0.45c-0.3,0.39-0.13,0.97-0.72,1.27
		C26.83,182.48,27.25,181.89,27.6,181.2z"/>
	<path class="st0" d="M118.36,219.88c0.14,0.34-0.18,0.88,0.54,1.09c-0.58,0.25-0.57,1.07-1.54,1.04
		C118.3,221.41,117.12,220.23,118.36,219.88z"/>
	<path class="st0" d="M105.67,158.13c-0.02,0.65-0.46,1.07-1.05,1.02c-0.58-0.04-1.09-0.59-1.1-1.17c-0.01-0.59,0.44-0.99,1.09-0.99
		C105.31,157.01,105.7,157.42,105.67,158.13z"/>
</g>
</svg>
