<?xml version="1.0" encoding="utf-8"?>
<!-- Generator: Adobe Illustrator 24.0.2, SVG Export Plug-In . SVG Version: 6.00 Build 0)  -->
<svg version="1.1" id="Layer_1" xmlns="http://www.w3.org/2000/svg" xmlns:xlink="http://www.w3.org/1999/xlink" x="0px" y="0px"
	 width="2230.27" height="1357.12" viewBox="0 0 2230.27 1357.12" style="enable-background:new 0 0 2230.27 1357.12;" xml:space="preserve">
<path d="M1183.17,78.57c-3.41,3.04-6.2,6.61-9.86,8.5c-4.84,2.51-7.58,6.22-9.77,10.83c-1.71,3.6-3.64,7.1-5.68,11.04
	c2.5,6.89,11.42,5.84,15.38,11.42c-0.95,4.67-5.02,6.88-7.86,9.98c-5.26,5.75-5.55,7.07-2.35,14.1c1.65,3.62,3.2,7.29,4.68,10.98
	c0.19,0.46-0.31,1.2-0.68,2.49c-1.68-0.94-3.23-1.81-4.91-2.74c-0.22,2.86-0.42,5.65-0.67,8.43c-0.03,0.28-0.36,0.54-0.84,1.2
	c-6.13-3.37-10.03-9.53-16.41-13.63c-3.88,2.14-9.64,1.11-12.1,7.01c2.38,3.17,5.91,2.09,8.96,2.7c3.16,0.64,6.21,1.83,9.37,2.8
	c0,2.62,0,4.5,0,6.44c10.12-3.2,10.12-3.2,14.29,4.17c4.37-1.58,8.71-3.24,13.12-4.72c7.7-2.6,10.41-0.95,12.53,7.41
	c0.16,0.63,0.47,1.23,0.98,2.55c4.15,0.54,9.17,0.1,13.02,2.02c3.88,1.93,6.59,6.19,9.77,9.39c8.39,1.92,17.1,3.78,25.74,5.94
	c10.25,2.57,18.97,7.83,26.55,15.21c4.99,4.86,10.33,9.37,15.61,13.92c5.69,4.9,9.76,11.04,12.55,17.82
	c2.68,6.52,6.75,9.35,13.83,8.66c4.95-0.48,10.01,0.22,14.99-0.14c19.22-1.4,36.66,5.16,54.03,11.93
	c5.96,2.32,20.45,14.96,23.96,20.53c6.75,10.68,13.3,21.49,19.96,32.24c0.69,1.11,1.53,2.12,2.92,4.02c1.7-1.87,3.83-3.18,4.33-4.95
	c3.84-13.61,10.76-25.85,17.46-38.05c7.29-13.27,4.47-25.47-1.14-37.95c-0.26-0.58-0.8-1.06-1.27-1.52
	c-0.22-0.22-0.6-0.28-1.47-0.66c-1.63,1.55-3.45,3.26-5.42,5.13c-0.82-0.51-1.78-0.86-2.35-1.54c-0.61-0.73-1.02-1.73-1.24-2.67
	c-1.2-5.1-3.69-9.16-9.48-11.01c1.46-10.35-5.41-18.25-7.09-28.18c-6.47-2.38-9.26-7.43-9.62-14.43c-0.19-3.58-1.35-7.2-2.55-10.63
	c-2.52-7.21-1.03-13.03,5.2-17.58c1.06-0.77,1.94-1.79,2.96-2.75c7.93-1.08,14.4,1.54,19.5,7.59c3.43,4.06,6.94,8.08,10,12.41
	c1.25,1.77,1.66,4.27,1.98,6.5c0.38,2.62,0.03,5.35,0.39,7.97c0.66,4.83,4.93,6.48,8.67,3.21c1.66-1.45,3.28-3.57,3.76-5.65
	c3.04-13.11,3.95-25.91-1.79-38.99c-5.72-13.04-9.79-26.82-14.42-40.33c-3.25-9.47-0.72-18.46,3.47-26.91
	c1.66-3.35,2.9-6.47,3.33-10.22c1.45-12.75,6.46-23.55,17.52-30.38c3.56,0.37,4.19,2.3,4.08,4.95c-0.36,8.64-0.62,17.29-0.92,25.94
	c-0.2,5.7,0.91,11.14,2.27,16.71c1.48,6.03,1.16,12.5,1.75,18.77c0.46,4.94,0.52,10.02,1.83,14.75c1.95,7.04,6.14,10.02,11.12,9.23
	c4.99-0.79,7.91-5.03,8.22-11.96c0.48-10.69-0.23-21.25-2.99-31.64c-2.28-8.59-1.67-16.56,5.77-22.7c3.26-2.69,3.63-6.33,3.16-10.01
	c-1.07-8.39,2.3-15.67,5.51-22.94c0.98-2.22,3.05-3.95,5.71-7.24c1.44,5.07,2.32,8.45,3.35,11.79c5.97,19.3,7.24,39.23,5.95,59.1
	c-0.73,11.28-1.66,22.52-1.64,33.83c0.01,2.29,0.24,4.57,0.37,6.91c4.95,2.36,8.97,1.33,12.01-2.26
	c5.15-6.07,10.19-12.28,14.72-18.82c1.55-2.24,1.86-5.62,1.99-8.51c0.25-5.77,2.16-10.47,7.32-13.3c2.9-1.6,4.48-3.7,4.82-7
	c0.54-5.26,1.49-10.48,1.89-15.75c0.32-4.22,0.06-8.48,0.06-14.32c2.88,2.01,4.67,2.81,5.84,4.15c7.01,8.01,11.47,16.97,11.04,28.05
	c-0.27,6.96,0.45,13.96,0.48,20.94c0.01,2.26-0.55,4.6-1.28,6.76c-2.81,8.29-7.04,15.76-13.01,22.26
	c-5.49,5.97-9.88,12.62-10.55,21.03c-0.1,1.23,0.33,2.51,0.64,4.55c6.41-1.04,10.81-4.38,13.56-9.31
	c3.92-7.01,7.37-14.08,14.93-18.18c1.76-0.95,2.9-3.7,3.57-5.86c2.14-6.9,3.91-13.91,6-21.49c1.35,0.99,3.25,1.74,4.15,3.14
	c5.32,8.2,6.98,16.98,4.25,26.62c-1.44,5.06-2.37,10.36-2.75,15.6c-0.75,10.39-7.06,17.7-13.09,25.21c-1.66,2.07-3.66,3.88-5.61,5.7
	c-10.13,9.49-17.46,20.6-21.78,33.97c-3.83,11.84-10.32,22.4-20.41,30.12c-5.93,4.55-7.45,10.19-7.31,17.4
	c0.39,20.33-0.09,40.67,0.24,60.99c0.15,8.94,1.21,17.89,2.29,26.78c0.97,7.91,2.37,15.77,3.9,23.59c1.14,5.83,2.63,11.6,4.22,17.33
	c2.45,8.87,1.23,17.89,1.38,26.85c0.03,1.94-0.37,4.07-1.21,5.81c-4.75,9.87-9.36,19.82-14.73,29.35c-2.03,3.6-5.6,6.63-9.09,9.02
	c-6.3,4.31-12.9,8.24-19.67,11.78c-5.76,3.02-10.41,7.02-14.29,12.16c-9.58,12.68-23.09,19.77-37.45,25.31
	c-4.41,1.7-9.38,1.3-12.28-5.33c2.06-4.28,4.43-9.21,7.43-15.45c-7.9,4.55-15.56,3.19-23.09,3.33c-3.73,0.07-6.43-1.35-8.18-5.58
	c3.46-8.33,7.14-17.15,11.1-26.68c-19.53,5.15-36.52,2.48-49.7-14.71c1.3-1.91,2.62-3.69,3.76-5.58c0.98-1.63,1.75-3.39,2.87-5.6
	c-5.13-2.91-10.14-3.86-15.45-3.84c-10.33,0.03-20.67,0.21-31-0.1c-3.88-0.12-7.76-1.27-11.57-2.24c-2.56-0.65-4.92-2.22-7.49-2.67
	c-10.88-1.9-19.5-8.19-28.16-14.33c-8.08-5.73-15.9-11.83-23.93-17.83c0,0.7-0.34,1.82,0.05,2.52c5.33,9.35,6.16,19.59,5.99,30.01
	c-0.04,2.63-0.2,5.44-1.11,7.86c-4.66,12.34-2.94,24.99-1.79,37.51c1.13,12.29,2.34,24.35-1.66,36.5
	c-3.12,9.45-4.39,19.48-9.13,28.45c-1.52,2.88-0.9,5.78,1.25,8.34c6.56,7.79,8.03,17.25,8.6,26.95c0.22,3.65-0.21,7.35,0.08,10.99
	c0.89,11.21-1.04,21.78-6.07,31.9c-1.6,3.22-2.04,7-3.2,10.47c-2.1,6.29-3.96,12.7-6.59,18.77c-4.89,11.23-6.33,22.32-0.79,33.72
	c0.72,1.48,1.07,3.15,1.6,4.73c2.11,6.3,4.72,12.19,8.57,17.84c5.39,7.93,9.33,16.85,14.3,26.11c1.92,0,4.14,0.06,6.36-0.01
	c8.64-0.26,17.28-1.05,25.84,1.18c2.21,0.58,4.64,0.61,6.95,0.49c6.42-0.34,12.61,0.75,18.72,2.5c8.18,2.35,16.36,1.72,24.96,0.89
	c0.05-18.56,7.26-34.83,12.01-51.68c0.98-3.49,2.53-6.86,4.15-10.12c3.08-6.19,6.63-11.99,7.15-19.35c0.28-4,3.64-7.7,5.12-11.72
	c6.64-18.06,20.91-27.9,37.64-34.91c5.07-2.13,8.76-5.1,12.4-9.29c7.86-9.03,16.72-17.19,25.25-25.63c0.88-0.87,2.25-1.22,3.15-1.69
	c4.26,2.02,2.56,6.1,4.02,9.23c11.03-5.66,14.58-18.35,23.14-25.49c5.23,1.52,3.51,6,5.4,8.45c3.91-0.33,6.87-1.63,8.72-5.47
	c2.3-4.78,5.13-9.32,7.91-13.85c0.95-1.55,2.45-2.76,4.02-4.48c4.87,5.05,3.13,10.46,2.4,15.45c-0.71,4.78-2.31,9.43-3.81,15.27
	c6.77-4.45,12.51-8.23,18.84-12.39c1.19,3.14,2.18,6.52,6.31,6.27c6.62-0.4,10.31,3.5,13.48,9.27c-5.14,8.89-12.4,15.55-21.66,19.57
	c-14.92,6.48-30.28,11.96-45.16,18.51c-15.17,6.68-30.54,12.94-43.79,23.46c-15.46,12.27-25.63,27.7-30.53,46.67
	c-0.74,2.85-0.75,5.94-0.79,8.92c-0.1,7.67,0.32,15.35-0.12,22.99c-0.72,12.71,3.4,24.28,7.55,35.89c1.9,5.29,5.45,8.9,10.73,11.11
	c10.74,4.5,21.17,9.78,32.07,13.82c14.49,5.36,27.2,14,40.84,20.92c7.09,3.6,14.05,7.5,20.93,11.5c4.87,2.84,9.55,6.02,14.25,9.15
	c10.52,7,20.98,14.09,31.48,21.11c15.79,10.55,30.31,22.68,44.73,35.01c13.15,11.24,26.59,22.12,38.54,34.68
	c14.82,7.73,24.51,21.26,36.23,32.44c5.3,5.06,11.65,6.25,18.22,6.9c18.88,1.87,37.82,2.72,56.8,2.1
	c14.03-0.46,27.86,1.11,41.65,3.49c2.93,0.5,5.97,0.5,8.96,0.52c11.33,0.06,22.67,0.11,34,0c20-0.19,39.63-3.84,59.34-6.65
	c0.66-0.09,1.36-0.19,1.92-0.51c7.76-4.38,16.16-5.75,25.15-4.75c1.22-1.99,2.17-3.67,3.26-5.26c2.22-3.26,5.27-4.93,9.31-4.8
	c11.3,0.37,22.59,0.68,33.89,0.99c1.65,0.04,3.65,0.49,4.9-0.25c6.5-3.86,13.58-2.6,20.48-2.72c5.67-0.1,11.3,0.09,16.56-2.8
	c1.65-0.91,3.84-0.94,5.81-1.18c17.21-2.14,34.51-1.74,51.8-2.22c15.02-0.42,28.87,3.38,42.75,8.28
	c13.56,4.8,26.48,10.76,38.69,18.38c14.8,9.23,27.94,20.15,38.79,33.98c7.23,9.21,14.31,18.43,19.04,29.15
	c8.12,18.41,13.98,37.39,13.45,57.86c-0.2,7.66-0.23,15.34,0.01,23c0.55,18.33-3.72,35.73-10.77,52.36
	c-2.93,6.92-7.38,13.54-12.44,19.12c-6.88,7.6-15.03,14.06-22.6,21.05c-17.25,15.95-37.94,26.82-57.72,39.02
	c-3.37,2.08-7.1,3.6-10.76,5.15c-8.22,3.47-12.96,11.21-20.06,16.03c-3.01,2.04-5.99,4.62-9.36,5.5c-7.2,1.88-13.45,5.67-20.17,8.49
	c-5.47,2.29-11.18,4.1-16.91,5.68c-9.97,2.75-19.63,6.08-28.86,10.88c-13.3,6.92-27.16,12.17-42.41,13.23
	c-6.91,0.48-13.68,2.72-20.64,0.14c-1.04-0.39-2.57,0.43-3.84,0.78c-13.69,3.7-27.43,3.56-41.46,1.79
	c-6.04-0.76-12.43,1.43-18.68,2.03c-4.93,0.48-10.07,1.53-14.81,0.66c-11.29-2.08-22.39-2.45-33.6,0.08
	c-1.9,0.43-4.17,0.71-5.93,0.09c-6.17-2.17-12.61-0.9-18.77-1.9c-14.07-2.27-28.54-0.81-42.41-4.83c-3.13-0.91-6.59-1.08-9.88-0.95
	c-11.38,0.45-22.52-0.91-33.56-3.53c-1.29-0.31-2.64-0.46-3.96-0.47c-12.97-0.08-25.75-1.93-38.53-3.86
	c-3.26-0.49-6.66-0.32-9.98-0.17c-10.37,0.46-20.45-1.56-30.58-3.31c-0.98-0.17-1.96-0.48-2.95-0.52
	c-19.37-0.79-37.76-6.92-56.54-10.76c-28.06-5.73-54.55-16.44-80.76-27.79c-7.91-3.42-16.43-5.65-23.96-9.72
	c-12.82-6.92-26.63-12.22-37.92-21.84c-3.54-3.02-7.33-5.73-10.91-8.7c-2.3-1.91-4.73-2.18-7.95-1.05
	c-3.63,7.39-7.32,15.17-11.23,22.84c-9.06,17.81-18.99,35.05-33.29,49.33c-7.55,7.54-14.82,15.38-22.72,22.53
	c-5.87,5.32-12.31,10.13-18.94,14.48c-7.77,5.1-15.89,9.73-24.12,14.06c-12.1,6.37-24.67,11.57-38.53,12.8
	c-0.97,0.09-1.93,0.5-2.87,0.82c-15.49,5.11-31.65,6.67-47.66,9.01c-7.2,1.05-14.47,2.06-21.47,3.95
	c-9.22,2.49-18.5,1.62-27.78,1.82c-7.28,0.16-14.74-0.92-21.4,3.28c-0.27,0.17-0.63,0.33-0.94,0.31
	c-13.09-0.93-25.46,3.83-38.42,4.81c-25.29,1.92-50.53,1.36-75.79,1.52c-5.25,0.03-10.52-1.01-15.77-1.61
	c-6.58-0.75-13.21-1.25-19.72-2.4c-7.16-1.27-14.21-3.14-21.3-4.79c-6.46-1.5-12.83-3.02-19.58-3.36
	c-5.84-0.3-11.55-2.67-17.36-3.92c-9.37-2.03-18.76-3.93-28.16-5.79c-1.94-0.39-4.05-0.07-5.93-0.6
	c-18.2-5.17-37.18-6.55-55.46-11.34c-5.43-1.42-10.92-2.71-16.2-4.58c-13.47-4.75-26.9-9.61-40.21-14.78
	c-16.71-6.49-33.22-13.5-49.93-19.98c-16.08-6.24-32.27-12.16-48.47-18.09c-21.59-7.9-42.34-17.38-61.57-30.18
	c-16.6-11.05-33.52-21.6-49.13-34.07c-1.82-1.45-3.77-2.78-5.41-4.41c-13.24-13.16-26.76-26.06-39.47-39.72
	c-5.58-6-10.15-13.23-13.93-20.55c-5.59-10.84-12.19-21.45-13.24-34.11c-7.16-15.21-7-32.36-12.65-47.98
	c-0.55-1.51-0.36-3.29-0.52-4.94c-0.77-8.25-0.9-16.62-2.5-24.7c-1.25-6.3-1.47-12.51-1.5-18.81c-0.03-7.33,0.19-14.67-0.05-22
	c-0.47-14.37,2.52-28.38,4.42-42.48c0.92-6.81,3.53-13.41,5.44-20.08c7.42-25.86,13.94-52.02,27.57-75.66
	c8.65-15,17.28-29.94,29.15-42.74c4.74-5.11,9.02-10.65,13.83-15.7c13.33-14.02,28.54-25.7,44.24-37.01
	c16.86-12.14,34.83-21.99,53.37-31.04c3.57-1.74,7.29-3.43,11.13-4.31c10.97-2.52,21.38-7.36,32.84-7.87
	c3.97-0.18,7.94-1.19,11.87-1.02c11.41,0.49,22.56-1.13,33.68-3.34c0.98-0.19,1.94-0.56,2.93-0.59c23.28-0.76,46.6-3.19,69.8,0.52
	c10.15,1.62,20.11,4.42,30.13,6.77c3.87,0.91,7.65,2.27,11.56,2.95c1.21,0.21,2.69-1.14,4.9-2.18c-1.93-1.61-2.97-2.87-4.31-3.54
	c-7.73-3.88-15.49-7.67-24.09-9.42c-4.56-0.93-9.06-2.23-13.48-3.71c-7.04-2.35-14.2-3.69-21.61-3.2
	c-10.62,0.7-20.21-3.29-29.98-6.43c-4.11-1.32-7.02-3.73-6.64-8.69c0.1-1.26-0.49-2.58-0.8-4.08c-5.02-3.1-10.42-5.8-15.03-9.49
	c-4.33-3.46-7.82-7.98-11.92-12.27c2.09-3.38,3.76-6.06,5.49-8.84c-4.85-4.51-9.58-8.63-13.97-13.08
	c-5.2-5.27-9.21-11.31-11.15-18.62c-1.72-6.5-1.71-6.68,5.12-8.94c0.63-0.21,1.26-0.41,1.86-0.67c0.28-0.12,0.51-0.39,1.53-1.2
	c-2.56-7.64-5.71-15.78-3.02-24.73c5.81-2.45,9.13,2.48,13.33,4.47c4.18,1.98,8.27,4.15,12.91,6.49c-0.4-3.93-0.52-7.5-1.15-10.99
	c-3.54-19.77-1.42-38.83,5.26-57.81c3.44-9.78,7.88-18.94,12.4-28.14c3.85-7.84,9.06-14.65,15.39-20.73
	c4.91-4.72,4.96-7.36,1.32-13.16c-2.3-3.66-4.8-7.19-7.19-10.79c-8.67-13.06-13.51-27.27-13.12-43.1c0.08-3.28-0.22-6.57-0.33-9.35
	c-5.08-3.26-6.82,2.73-11.1,2.42c-5.23-5.97-0.92-13.81-3.27-20.99c-0.78-0.36-1.9-1-3.09-1.39c-1.17-0.39-2.42-0.53-3.72-0.79
	c-2.45-14.26,5.71-25.25,9.58-38.17c-0.94-1.13-2.36-2.84-4.19-5.04c3.25-7.78,10.47-12.4,16.04-18.33
	c5.97-6.35,14.25-8.26,22.89-10.56c0.69-1.83,0.97-4.39,2.39-5.84c1.47-1.5,4.05-1.91,5.35-2.46c1.57-4.67,2.87-8.7,4.28-12.69
	c1.74-4.93-0.67-8.08-5.79-7.14c-2.24,0.41-4.48,1.34-6.46,2.48c-4.5,2.59-9.27,3.51-14.39,3.18c-2.32-0.15-4.68,0.15-7-0.06
	c-9.31-0.85-17.86,0.9-25.31,6.9c-1.01,0.81-2.3,1.36-3.54,1.77c-3.02,0.99-6.49-1.61-5.75-4.73c2.58-10.89,4.07-21.95,11.34-31.51
	c6.47-8.52,12.94-16.85,20.82-24.1c1.59-1.46,2.59-3.56,4.53-6.33c-2.76-0.6-4.76-1.74-6.15-1.22c-7.07,2.62-12.91,0.89-18.52-3.76
	c-1.9-1.57-4.77-2.86-7.16-2.78c-8.89,0.28-16.34-4.04-23.04-8.4c-7.09-4.62-13.7-4.5-20.82-2.46c-5.35,1.53-10.43,4.01-16.25,6.32
	c-3.03-9.03-0.25-16.83,3.01-24.26c6.16-14.05,16.74-24.65,28.29-34.37c9.34-7.85,18.55-15.89,29.97-22.16
	c-2.02-0.41-4.04-1.16-6.05-1.12c-1.57,0.03-3.09,1.18-4.69,1.61c-8.72,2.31-16.41,0.88-22.8-6.02c-2.92-3.16-6.05-6.27-9.57-8.71
	c-11.27-7.79-23.24-8.73-35.96-3.38c-5.77,2.42-11.97,3.82-18.01,5.58c-0.78,0.23-1.75-0.21-3.59-0.47
	c3.93-6.25,8.97-10.49,13.97-14.75c1.26-1.07,2.93-1.69,4.08-2.85c15.14-15.24,34.06-24,53.61-31.85
	c10.46-4.2,20.5-9.42,30.94-13.67c20.72-8.42,42.19-14.33,64.27-17.96c1.64-0.27,3.43,0,4.95-0.54c12.57-4.5,25.64-3.2,38.58-3.66
	c7.6-0.27,15.22-1.37,22.74-2.62c10.95-1.82,21.74-1.23,32.74-0.18c10.18,0.97,20.58,0.39,30.83-0.25
	c6.55-0.41,13.01-2.24,19.53-3.26c1.6-0.25,3.31,0.31,4.96,0.27c3.61-0.1,7.21-0.34,10.93-0.54c2.8-6.28,6.18-11.49,12.27-14.57
	c6.56,2.76,4.65,9.95,7.92,14.33c2.5,1.13,5.94,1.81,7.04-0.83c2.25-5.44,6.85-5.59,10.61-5.89c3.2-4.87,5.88-8.95,8.37-12.75
	c9.3,2.51,6.91,11.28,10.74,16.9c2.83-1.34,5.38-2.55,8.23-3.9c2.03,2.5,3.87,4.76,6,7.39c12.72-0.65,25.61,0.99,38.6-1.59
	c10.73-2.13,21.11,0.15,30.36,6.72c6.23,4.43,12.81,8.38,19.34,12.37c4.9,2.99,10.14,4.87,16.08,4.57
	c6.11-0.31,10.98,2.12,14.43,7.74c-2.73,8.19-12.68,9.29-16.76,17.19c1.09,1.06,2.17,2.6,3.65,3.43
	C1175.7,72.74,1179.89,73.4,1183.17,78.57z M1016.88,549.65c-5.6-0.12-10.54-0.66-15.39-0.22c-9.43,0.84-17.64-2.02-25.33-7.09
	c-1.39-0.91-2.75-1.87-4.21-2.66c-5.65-3.07-7.78-2.79-12.53,1.25c-10.14,8.62-16.16,20.08-21.68,31.8c-2.15,4.58-1.25,9,2.56,12.75
	c8.76,8.63,17.33,17.45,26.13,26.03c3.91,3.81,5.03,3.56,10.6,1.1c4.2-1.85,8.55-3.52,12.99-4.65c3.88-0.99,6.84-3.04,8.42-6.41
	c3.75-7.94,8.87-14.75,15.38-20.58c2.11-1.89,3.41-4.4,2.51-7.14c-1.54-4.7-0.63-9.07,0.41-13.67
	C1017.44,557.11,1016.88,553.77,1016.88,549.65z"/>
</svg>
