<?xml version="1.0" encoding="utf-8"?>
<!-- Generator: Adobe Illustrator 23.1.0, SVG Export Plug-In . SVG Version: 6.00 Build 0)  -->
<svg version="1.1" id="Layer_1" xmlns="http://www.w3.org/2000/svg" xmlns:xlink="http://www.w3.org/1999/xlink" x="0px" y="0px"
	 viewBox="0 0 847.35 1024.32" style="enable-background:new 0 0 847.35 1024.32;" xml:space="preserve">
<path d="M290.33,788.61c-5.69-9.48-11.19-18.5-16.53-27.62c-0.95-1.63-1.49-3.59-1.85-5.47c-3.42-17.44-6.66-34.91-10.15-52.33
	c-1.69-8.44-3.85-16.79-5.72-25.19c-0.28-1.28-0.2-2.65-0.2-3.97c-0.02-7.83,0.12-15.67-0.04-23.5c-0.2-10.1-0.59-20.2-0.99-30.3
	c-0.21-5.27-0.95-10.54-0.9-15.8c0.08-8.77,0.46-17.54,1-26.3c0.25-4.05,1.35-8.03,1.74-12.08c0.16-1.66-0.56-3.41-0.89-5.23
	c-8.16,4.09-9.44,3.62-10.17-3.64c-3.64,6.28-6.96,12.57-10.83,18.5c-3.66,5.61-7.6,10.98-13.23,15.05
	c-2.81,2.03-4.75,2.59-7.31,0.17c-2.15,8.35-4.14,16.57-6.41,24.71c-1.94,6.94-4.2,13.65-9.93,18.8c-2.39,2.15-3.47,5.75-5.15,8.7
	c-6.01,10.55-14.92,18.07-25.14,24.27c-2.92,1.77-5.42,2.03-7.14-1.58c-3.92,9.3-6.96,18.78-14.73,25.51
	c-4.85,4.2-9.67,8.44-14.61,12.54c-2.25,1.86-4.82,2.74-7.68,1.02c1.6-8.53,3.17-16.9,4.74-25.28c-0.22-0.04-0.44-0.07-0.66-0.11
	c-3.96,10.26-7.13,20.92-12.13,30.64c-3.88,7.53-10.36,13.48-18.77,16.66c-1.12,0.42-2.14,1.81-2.64,2.99
	c-1.14,2.68-2.08,5.48-2.85,8.3c-1.89,6.93-6.98,11.73-11.28,17.02c-2.86,3.51-6.3,6.55-10.11,10.44c-0.83-1.67-1.83-2.72-1.79-3.73
	c0.28-6.59,0.75-13.17,1.24-19.74c0.18-2.42,0.59-4.83,0.9-7.24c-0.32-0.04-0.64-0.08-0.96-0.13c-1.41,9.54-2.81,19.07-4.22,28.61
	c-0.5,0.06-0.99,0.13-1.49,0.19c-12.84-18.91-18.51-40.44-22.05-62.9c-0.51,2.83-0.77,5.64-1.55,8.29c-0.99,3.38-3.5,4.13-5.71,1.41
	c-2.65-3.26-4.98-6.93-6.76-10.74c-3.85-8.24-6.05-16.86-5.61-26.15c0.25-5.24-0.79-10.53-0.82-15.8c-0.03-4.1,0.62-8.2,0.91-12.3
	c0.06-0.89-0.14-1.8-0.71-2.71c-1.54,10.62-3.08,21.24-4.82,33.26c-2.55-3.13-4.89-5.2-6.23-7.79c-3.68-7.12-6.16-14.69-7.24-22.69
	c-0.88-6.47-2.21-12.89-2.76-19.38c-0.31-3.7,0.36-7.53,0.88-11.26c2.71-19.79,8.01-38.87,15.85-57.25c0.1-0.25-0.11-0.63-0.34-1.75
	c-2.37,4.63-4.58,8.63-6.5,12.77c-1.97,4.25-3.66,8.64-6.5,12.97c-0.53-3.64-1.63-7.3-1.49-10.91c0.3-7.87,1.44-15.72,1.83-23.59
	c0.47-9.59,2.56-18.79,6.09-27.64c4.47-11.19,8.88-22.43,14.01-33.33c6.4-13.58,13.64-26.77,20.21-40.28
	c1.29-2.66,1.16-6.02,1.68-9.05c2-11.8,5.95-22.98,10.56-33.97c10.04-23.92,23.56-45.9,38.28-67.11
	c12.2-17.58,25.28-34.54,37.68-51.98c2.79-3.93,4.21-8.8,6.62-13.03c3.22-5.67,6.67-11.22,10.24-16.68
	c8.17-12.52,17.12-24.58,24.54-37.52c7.68-13.39,13.9-27.56,18.19-42.56c3.71-12.98,8.54-25.66,10.77-39.02
	c1-5.97,1.18-12.13,0.14-18.18c-1.21-7.07-2.33-14.17-4.01-21.13c-1.21-5.03-2.68-10.17-5.08-14.71c-4.39-8.34-4.7-17.56-7.03-26.34
	c-1.32-5,0.22-8.91,2.2-13.04c0.35-0.73,1.05-1.65,0.85-2.21c-1.22-3.31,1.27-4.27,3.29-5.52c1.36-0.84,2.79-1.58,4.39-2.48
	c-2.22-1.24-5.36,0.72-6.71-2.88c1.92-0.86,3.77-1.69,5.69-2.56c-1.04-0.74-1.99-1.4-2.93-2.07c0.22-0.58,0.44-1.16,0.67-1.74
	c3.97-0.42,7.94-0.85,11.92-1.26c1.66-0.17,2.78-0.14,4.24-2.02c1.71-2.21,5.53-3.58,8.55-3.83c11.61-0.95,21.85,2.76,30.89,10.15
	c3.11,2.54,6.95,4.2,10.03,6.77c4.11,3.44,8.38,6.95,11.56,11.2c5.37,7.16,10.07,14.84,14.8,22.45
	c7.57,12.19,14.63,24.61,20.25,37.92c3.81,9.03,7.77,17.92,10.03,27.47c2.89,12.22,5.66,24.47,8.45,36.71
	c3.57,15.68,8.33,30.71,22.75,41.79c0.45-4.34,0.93-8.08,1.17-11.83c0.05-0.83-0.73-1.73-1.19-2.56c-1.74-3.1-3.75-6.07-5.2-9.29
	c-2.38-5.28-4.51-10.68-6.54-16.1c-0.72-1.92-0.85-4.06-1.44-7.08c1.89,1.38,2.9,2.12,4.22,3.07c-0.95-5.38-1.49-10.45,0.34-15.53
	c1.26,0.7,2.24,1.24,3.38,1.88c0.17-0.74,0.5-1.3,0.35-1.63c-4.65-10.09-2.06-19.64,2.37-28.9c1.58-3.3,2.7-5.82,1.02-9.82
	c-6.94-16.45-2.99-31.66,7.72-44.97c7.05-8.76,15.43-16.45,23.31-24.54c8.06-8.27,14.91-17.44,20.73-27.38
	c1.72-2.93,2.72-6.27,4.23-9.34c0.77-1.57,1.94-2.94,3.5-5.25c2.25,5.81,2.8,10.85,2.09,16.01c-0.33,2.39-1.47,4.66-1.78,7.04
	c-0.17,1.28,1.03,2.71,0.95,4.03c-0.26,4.02-0.85,8.02-1.32,12.12c12.3-10.55,26.9-16.77,43.36-20.95
	c-7.4,9.96-14.3,19.24-21.19,28.52c11.86-2.31,20.29-9.51,29.09-16.53c-3.82,12.42-7.99,24.59-17.45,34.3
	c9.43-2.95,19.73-3.55,26.99-11.7c0.69,5.53-1.61,9.85-14.22,26.89c5.17-1.44,10.08-2.51,14.78-4.2c4.57-1.64,8.91-3.9,13.88-6.12
	c-1.11,8.46-7.11,12.92-12.39,18.2c3.38-0.4,6.53-0.77,9.69-1.14c0.09,0.25,0.18,0.51,0.27,0.76c-1.97,1.34-3.94,2.68-6.16,4.18
	c12.46,5.4,24.81,10.75,37.22,16.13c-3.03,2.32-6.71,3.56-10.83,4.24c-3.18,0.52-6.32-0.1-9.57,0.64
	c-3.17,0.73-6.77-0.41-11.02-0.81c2.75,1.98,5.12,3.28,6.93,5.13c1.56,1.6,2.42,3.86,3.7,5.76c0.8,1.19,1.81,2.24,3.1,3.8
	c-14.44,4.37-19.61,16.81-25.63,29.02c7.44,1.18,14.81-1.07,22.68,2.2c-2.45,1.3-4.3,2.09-5.96,3.19
	c-8.44,5.57-16.87,11.16-25.2,16.89c-1.13,0.78-1.93,2.27-2.48,3.6c-2.2,5.27-5.6,9.6-9.68,13.54c-2.35,2.27-4.58,4.8-6.3,7.57
	c-4.3,6.93-3.75,21.94,7.26,25.54c1.69,0.55,3.21,1.63,4.58,2.34c4.35-5.72,8.18-11.86,13.11-16.92c5.48-5.62,12.3-9.62,20.12-11.58
	c14.81-3.72,28.81-9.43,41.24-18.36c5.06-3.63,8.6-8.69,11.2-14.69c5.21-12.03,4.56-24.53,4.11-37c-0.16-4.42-2.25-8.76-3.44-13.14
	c-2.13-7.84-4.11-15.72-6.44-23.49c-0.85-2.81-2.71-5.29-3.83-8.04c-2.49-6.1-4.89-12.25-7.15-18.44
	c-2.34-6.4-4.58-12.84-6.68-19.32c-3.74-11.56-1.95-22.96,4.12-32.83c5.99-9.73,16.71-14.57,29.25-12.49
	c11.42,1.9,22.5,5.89,31.99,12.81c6.47,4.72,12.17,10.48,18.33,15.64c1.64,1.38,3.71,2.24,4.88,2.93c0.51,2.08,0.51,3.72,1.26,4.88
	c5.56,8.63,11.49,17.04,16.88,25.78c5.9,9.58,11.92,19.18,16.71,29.33c1.93,4.09,2.9,8.84,5.19,12.98
	c5.07,9.13,9.92,18.39,15.25,27.36c1.04,1.75,1.96,4.03,4.79,5.01c1.56,0.54,3.03,3.88,3.82,6c2.28,6.15,4.82,12.12,8.45,17.56
	c9.79,14.65,19.74,29.2,29.6,43.81c6.11,9.06,11.91,18.35,18.32,27.2c9.77,13.51,19.84,26.81,29.99,40.04
	c8.2,10.69,16.95,20.93,25.69,31.19c9.05,10.63,16.39,22.76,24.18,34.43c4.97,7.46,8.97,15.58,14.16,22.87
	c6.41,8.99,11.49,18.66,16.05,28.61c5.83,12.71,12.28,25.22,15.13,39.09c0.32,1.56,0.22,3.2-0.28,4.97
	c-10.09-9.57-16.45-21.64-24.7-32.39c7.25,19.02,14.04,38.15,18.67,58.76c-2.07-3.29-3.74-5.94-5.41-8.59
	c-0.17,0.08-0.34,0.15-0.51,0.23c1.43,5.52,2.85,11.04,4.28,16.56c-0.31,0.13-0.62,0.25-0.92,0.38c-0.66-0.6-1.32-1.19-2.01-1.81
	c-0.14,0.25-0.4,0.51-0.39,0.75c0.48,9.14-1.24,17.94-3.62,26.72c-0.98,3.6-0.88,7.48-1.45,11.21c-0.54,3.53-1.17,7.05-2.03,10.51
	c-0.51,2.05-1.94,2.31-3.85,0.54c-0.37,7.31-0.52,14.34-1.14,21.34c-0.74,8.32-1.83,16.61-2.88,24.9
	c-0.94,7.47-1.98,14.93-3.08,22.37c-2.35,15.88-7.46,30.99-13.06,45.94c-1.81,4.85-4,9.56-6.13,14.28
	c-0.39,0.86-1.29,1.49-2.65,2.99c-1.43-2.86-2.95-5.22-3.82-7.79c-4.27-12.63-3.4-25.75-3.27-38.78c0.02-1.98,0.68-3.95,0.4-6.04
	c-2.15,9-4.17,18.03-6.52,26.97c-0.9,3.43-2.68,6.63-3.84,10c-2.37,6.88-4.51,13.85-6.9,20.73c-4,11.52-7.5,23.27-12.37,34.42
	c-5.61,12.86-12.45,25.19-18.8,37.72c-0.64,1.27-1.66,2.35-2.51,3.52c-0.43,0-0.85,0.01-1.28,0.01c-0.38-1.51-1.34-3.13-1.06-4.5
	c2.47-12.1,5.17-24.16,7.77-36.24c0.1-0.45-0.09-0.96-0.26-2.51c-1.66,5.08-3.18,9.17-4.32,13.35c-5.88,21.5-14.05,42.11-24.9,61.54
	c-7.07,12.66-14.58,25.17-23.1,36.87c-5.64,7.74-11.41,15.84-19.79,21.23c-0.96,0.62-1.96,1.17-3.91,2.33
	c-0.14-3.06-0.88-5.67-0.25-7.9c3.53-12.52,7.32-24.97,11.14-37.41c3.86-12.59,7.87-25.14,11.78-37.72
	c0.28-0.88,0.51-1.91,0.33-2.78c-0.72-3.49-1.6-6.94-2.48-10.61c-1.21,2.66-2.53,5.5-3.81,8.35c-5.76,12.79-11.32,25.67-17.32,38.35
	c-5.55,11.72-12.97,22.29-21.31,32.2c-3.46,4.11-4.72,4.73-12.53,6.64c1.09-7.63,2.09-14.91,3.18-22.17
	c1.14-7.59,2.5-15.15,3.54-22.76c1.14-8.26,1.55-16.66,3.22-24.81c0.92-4.48,3.77-8.55,5.84-13.01c-1.46,0.37-3.01,1.28-3.76,0.83
	c-0.81-0.48-1.12-2.21-1.23-3.43c-0.74-8.19-1.54-16.38-2-24.59c-0.52-9.42-1.23-18.88-0.9-28.29c0.36-10.16,1.82-20.28,2.81-30.41
	c0.67-6.87,1.28-13.74,2.08-20.59c0.6-5.2,1.36-10.39,2.2-15.56c1.19-7.41,2.5-14.8,3.78-22.2c1.6-9.33,3.24-18.65,4.82-27.98
	c0.7-4.15,1.3-8.31,1.49-12.66c-0.43,1-0.93,1.97-1.29,3c-4.7,13.51-9.14,27.12-14.21,40.49c-1.65,4.36-4.28,8.7-9.47,10.97
	c-0.81-8.07-1.63-15.7-2.32-23.35c-1.04-11.46-2.01-22.94-2.97-34.41c-0.12-1.49-0.05-3-0.05-4.5c0-14.48,0-28.96,0-43.45
	c-0.34-0.05-0.67-0.11-1.01-0.16c-1,5.29-1.58,10.7-3.11,15.82c-1.57,5.27-4.07,10.27-6.65,16.58c-4.74-10.22-9.11-19.64-13.68-29.5
	c-1.65,4.87,1.13,9.76-2.01,13.84c-8.06-8.52-15.88-16.79-23.7-25.05c-0.27,0.21-0.54,0.42-0.81,0.64c0.72,1.46,1.45,2.92,2.17,4.38
	c-0.25,0.27-0.5,0.54-0.74,0.82c-9.98-4.63-20.41-8.46-28.65-16.92c0,2.73,0,5.24,0,8.49c-4.71-1.93-7.86-5.17-11.49-8.41
	c1.09,4.44,2.09,8.49,3.09,12.53c-0.47,0.29-0.95,0.57-1.42,0.86c-5.09-4.57-10.17-9.14-15.61-14.03c-0.14,1.32-0.36,2.5-0.36,3.69
	c-0.03,7.83-0.51,15.7,0.11,23.49c0.74,9.41,0.94,18.99,4.67,27.94c2.62,6.28,6.33,11.62,11.78,15.83
	c3.78,2.92,7.48,6.06,10.67,9.59c4.02,4.45,9,7.04,14.45,9.02c1.22,0.44,3.1,0.47,3.58,1.32c4.98,8.73,14.81,7.97,22.42,11.32
	c3.15,1.38,7.53,0.41,11.27-0.11c5.25-0.72,10.26-3.19,16.27-2.11c-4.81,11.18-13.82,14.97-25.03,16.78
	c5.67,2.33,11.34,4.66,17.34,7.12c-8.13,7.09-16.67,7.49-26.02,1.77c-3.27-2-6.54-4.01-9.81-6.02c-0.21,0.28-0.41,0.55-0.62,0.83
	c3.36,2.72,6.72,5.45,10.73,8.71c-2.4,0.31-3.83,0.49-5.51,0.7c1.78,2.29,3.48,4.49,5.53,7.13c-10.75,0.69-17.9-3.1-21.87-11.83
	c-2.93-6.46-7.33-11.17-13.55-14.35c-0.44-0.22-0.89-0.53-1.35-0.58c-7.35-0.72-14.72-1.8-21.85,1.33c-2.08,0.91-2.4,1.96-1.71,4.25
	c1.83,6.06,3.33,12.23,4.66,18.42c0.42,1.93,0.17,4.11-0.25,6.07c-0.74,3.44-1.85,6.8-2.82,10.27c-3.23-0.32-4.69-1.9-5.89-4.3
	c-4.16-8.31-8.84-16.36-12.67-24.81c-2.18-4.82-3.44-10.15-4.44-15.38c-1.11-5.77-1.42-11.7-2.13-17.55
	c-0.24-1.94-0.61-3.86-0.99-5.78c-1.65-8.47-2.87-17.06-5.12-25.37c-1.73-6.38-5.06-12.3-7.14-18.61
	c-5.02-15.22-16.35-27.54-19.82-43.43c-1.04-4.77-2.02-9.55-2.89-14.35c-0.52-2.84-0.79-5.73-1.66-8.55
	c-0.57,4-1.14,8.01-1.71,12.01c-0.38,0.08-0.75,0.17-1.13,0.25c-2.82-10.76-5.64-21.52-8.47-32.28c-0.33,0.03-0.65,0.06-0.98,0.1
	c0,3.6,0,7.21,0,10.81c-0.3,0.1-0.6,0.21-0.9,0.31c-0.94-1.11-1.88-2.22-3.37-3.99c0.47,3.24,1.14,5.74,1.14,8.25
	c-0.02,13.27-0.06,26.54-0.38,39.8c-0.23,9.65,1.44,12.8,10.42,16.89c4.88,2.23,9.87,4.2,15.21,6.45
	c-1.6,6.85,1.31,12.47,4.59,18.08c2.61,4.47,4.45,9.43,9.88,11.51c0.88,0.34,1.56,1.53,2.05,2.47c0.36,0.69,0,1.76,0.39,2.41
	c2.92,4.88,1.02,9.24-0.89,13.87c-0.91,2.21-0.83,5.06-0.48,7.52c2.45,17.09,11.46,31.38,19.88,45.92
	c4.5,7.77,8.57,15.81,13.42,23.35c3.77,5.86,8.36,11.21,12.76,16.64c1.31,1.62,3.2,2.76,4.51,4.84c-2.27-1.25-4.54-2.49-6.81-3.74
	c8.97,10.75,17.45,21.71,25.8,32.77c-0.26,0.31-0.52,0.63-0.77,0.94c-8.3-3.35-16.59-6.71-24.89-10.06c-0.25,0.3-0.5,0.6-0.75,0.9
	c7.75,9.05,13.93,19.44,24.12,26.41c-2.42,3.23-5.02,0.92-6.76,0.21c-12.04-4.89-23.94-10.15-35.84-15.39
	c-6.11-2.69-12.12-5.61-18.92-8.77c1.43,4.78,2.18,9.54,4.25,13.62c2.08,4.09,5.48,7.51,7.9,11.68c-2.37-1.47-4.74-2.95-7.11-4.42
	c-0.34,0.14-0.67,0.29-1.01,0.43c4.53,16.24,9,32.5,13.64,48.7c1.34,4.68,2.88,9.35,4.89,13.78c3.36,7.38,1.84,14.38-0.85,21.39
	c-4.61,12-9.38,23.94-13.94,35.95c-2.92,7.7-5.58,15.5-8.5,23.66c-0.59-2.36-1.4-4.55-1.67-6.81c-1.11-9.12-1.87-18.28-3.12-27.38
	c-1.44-10.52-3.3-20.98-4.89-31.48c-0.68-4.53-0.19-9.5-1.93-13.53c-2.47-5.73-6.43-10.84-9.9-16.12c-1.31-1.99-3.04-3.69-5.32-5.16
	c0.77,4.95,1.86,9.87,2.22,14.85c0.38,5.35,0.16,10.76,0.03,16.14c-0.19,7.94-2.53,15.44-5.15,22.84
	c-1.24,3.52-2.44,7.07-4.04,10.43c-2.04,4.27-4.52,8.33-6.72,12.53c-5.1,9.7-7.76,20.19-8.84,30.96c-0.4,4.04,1.31,8.27,1.95,12.43
	c0.21,1.38,0.67,3.19,0.04,4.17c-5.03,7.75-4.46,16.05-3.51,24.7c0.91,8.2,0.97,16.52,1.04,24.79c0.03,4.18,0.44,8.17,2.08,12.02
	c0.51,1.2,1.14,2.35,1.54,3.58c0.61,1.86,1.47,3.76,1.48,5.65c0.02,2.46,1.04,3.51,3.22,3.25c5.95-0.73,10.16,2.11,13.6,6.44
	c5.01,6.31,11.25,11.77,14.09,19.88c-2.77,2.05-4.74-0.8-7.3-1.23c-2.32,2.46-5.93,4.11-5.88,7.86c-3.67,1.39-7.1,2.81-10.6,4
	c-5.69,1.94-11.42,3.8-17.17,5.54c-2.03,0.61-3.59,1.44-3.94,3.69c-0.5,3.18-3.02,4.02-5.56,4.84c-4.01,1.3-8.02,2.62-12.03,3.93
	c-4.03,1.31-6.9,4.07-8.34,7.89c-2.56,6.81-7.62,10.34-14.28,12.29c-10.77,3.15-21.41,6.78-32.28,9.52
	c-9.25,2.33-18.82,2.53-28.3,1.3c-7.98-1.04-15.94-2.33-23.8-4.01c-3.34-0.71-6.41-2.69-10.35-4.43c-1.28,0.73-3.49,1.99-6.41,3.66
	c0.43-2.33,0.7-3.9,1.01-5.47c0.95-4.94,4.07-9.05,4.57-14.36c0.47-5,5.09-7.95,9.33-10.61c2.48-1.56,5.09-3.38,6.71-5.73
	c2.43-3.51,5.46-4.9,9.47-4.96c5.18-0.08,9-1.69,11.85-6.8c3.36-6.01,8.5-10.99,12.32-16.77c6.77-10.25,12.26-21.27,15.6-33.06
	c1.4-4.94,1.38-10.84,0.18-15.86c-2.72-11.37-3.65-23.21-8.55-34.05c-1.94-4.29-3.49-8.75-5.25-13.19
	c-4.83,2.77-8.22,7.48-14.45,7.82c0.86-9.02,1.69-17.75,2.54-26.64c-5.67,1.92-11.03,3.73-17.17,5.8c0.84-4.91,1.59-9.32,2.35-13.73
	c0.58-3.38,1.46-6.73,1.71-10.13c0.53-7.09,0.68-14.2,1.1-21.3c0.09-1.61,0.66-3.2,0.94-4.8c1.19-6.92-1.82-12.64-6.91-16.38
	c-6.22-4.57-9.68-10.47-12.05-17.38c-1.16-3.37-2.14-6.81-3.77-10.39C299.53,762.87,295.06,775.81,290.33,788.61z"/>
</svg>
