<?xml version="1.0" encoding="utf-8"?>
<!-- Generator: Adobe Illustrator 23.1.0, SVG Export Plug-In . SVG Version: 6.00 Build 0)  -->
<svg version="1.1" id="Layer_1" xmlns="http://www.w3.org/2000/svg" xmlns:xlink="http://www.w3.org/1999/xlink" x="0px" y="0px"
	 viewBox="0 0 1199.39 2165" style="enable-background:new 0 0 1199.39 2165;" xml:space="preserve">
<g>
	<path d="M484,0c0.33,0,0.67,0,1,0c4.69,3.44,9.88,6.14,13.16,11.38c5.33,8.52,9.22,17.56,11.87,27.23
		c2.46,8.95,3.06,18.05,1.79,27.12c-1.18,8.44-0.89,16.56,0.91,24.91c2.05,9.54,7.97,16.9,12.54,25.02c2.63,4.67,6.04,8.9,9.2,13.26
		c2.83,3.9,5.01,4.32,9.48,2.1c1.02-0.51,2-1.33,3.08-1.47c2.93-0.4,4.01-2.26,4.68-4.84c3.76-14.64,10.08-28.25,17.35-41.39
		c3.08-5.57,6.14-11.71,14.38-13.28c0,1.48,0.24,2.81-0.04,4.02c-2.7,11.57-5.65,23.08-8.17,34.68c-0.92,4.22-0.89,8.64-1.32,13.27
		c1.75,0,2.74,0,3.72,0c0.97,0,1.94,0,2.44,0c6.58-20.51,17.28-36.92,36.61-46.41c3.19,2.81,1.66,5.25,0.71,7.55
		c-2.18,5.27-4.77,10.38-6.69,15.73c-1.71,4.77-2.73,9.79-4.06,14.7c0.36,0.19,0.73,0.38,1.09,0.57
		c7.55-5.98,16.19-9.56,25.42-11.69c3.84-0.89,7.81-1.27,11.31,2.73c-6.23,5.06-12.31,10.06-16.66,17.06
		c6.23,3.75,12.63,4.76,19.44,3.12c8.69-2.09,17.42-4.02,26.02-6.42c9.81-2.74,20.13-4.28,28.49-10.87
		c3.98-3.14,7.96-6.27,12.05-9.27c1.07-0.78,2.51-1.05,3.79-1.55c0.38,1.47,0.87,2.92,1.11,4.42c0.1,0.65-0.32,1.38-0.58,2.39
		c7.6-3.8,13.71-11.12,16.79-16.7c3.86-6.99,4.41-14.93,6.08-22.53c2.59-11.84,7.29-22.77,14.96-32.05
		C766.6,19.86,780.21,10.78,796,5.07c4.96-1.79,10-3.39,15-5.07c3,0,6,0,9,0c1.83,2.73,1.12,4.96-1.35,6.85
		c-2.72,2.09-5.6,4.01-8.1,6.35c-5.1,4.76-9.84,9.91-15,14.6c-4.84,4.39-7.15,10.02-8.89,16.01c-1.94,6.7-4.63,13.32-5.45,20.17
		c-1.15,9.67-0.89,19.51-1.2,29.27c-0.05,1.56,0.19,3.13,0.03,4.68c-0.62,6.03-1.53,12.04-1.99,18.08
		c-0.74,9.63-4.3,17.97-9.91,25.81c-6.28,8.78-13.3,16.73-21.76,23.42c-2.78,2.2-3.37,7.6-0.78,8.5c4.31,1.5,7.19,4.71,10.56,7.34
		c2.25,1.76,4.27,3.52,7.47,3.05c0.74-0.11,1.68,1.08,1.83,1.19c-4.72,6.92-9.17,13.43-14.21,20.83c2.63,6.13-4.71,6.88-8.46,10.66
		c1.85,0.82,3.46,1.47,5.01,2.24c1.3,0.64,2.97,1.12,3.72,2.2c2.31,3.35,4.97,6.72,6.16,10.51c1.17,3.74,2.48,6.43,6.54,7.1
		c0.16,0.03,0.24,0.5,0.45,0.96c-0.84,0.71-1.63,1.58-2.6,2.14c-4.23,2.46-8.56,4.75-12.76,7.24c-6.87,4.08-13.52,8.56-20.57,12.3
		c-3.25,1.73-5.58,3.31-4.94,7c-2.83,1.51-5.37,2.86-8.23,4.39c4.34,4.29,1.43,7.01-1.27,9.37c1.2,5.03,2.32,9.74,3.49,14.65
		c0.12,0.05,0.67,0.16,1.01,0.48c0.76,0.71,1.42,1.52,2.13,2.3c-0.82,0.7-1.53,1.7-2.48,2.02c-1.84,0.63-3.79,1.01-5.72,1.26
		c-9.79,1.31-19.59,2.55-30.62,3.97c1.66,2.47,2.26,4.21,3.48,4.99c2.56,1.64,5.32,3.15,8.2,4.03
		c14.29,4.34,27.54,10.94,40.53,18.13c14.57,8.07,29.08,16.24,43.61,24.37c4.7,2.63,9.39,3.91,15.1,3.8
		c10-0.19,19.49,2.94,28.42,7.78c13.41,7.26,25.65,15.82,35.15,27.99c5.07,6.49,9.41,13.36,12.73,20.86
		c0.58,1.32,0.07,3.11,0.64,4.44c0.29,0.68,2.26,0.52,2.77,1.24c1.88,2.64,3.62,5.42,5.15,8.29c4.85,9.07,5.17,19.65,9.91,28.9
		c4.15,8.11,4.23,17.37,4.28,26.49c0.06,9.43,2.48,18.38,7.96,26.28c3.16,4.56,6.26,9.17,9.63,13.58
		c11.71,15.32,20.71,32.1,26.19,50.55c3.1,10.42,4.92,21.23,7.13,31.9c2.14,10.37,4.04,20.8,6.05,31.2
		c1.66,8.64,3.39,17.27,4.97,25.93c1.73,9.47,3.93,18.9,4.75,28.46c0.55,6.43,2.31,12.06,5.14,17.7c6.1,12.18,9.21,25.12,9.1,38.8
		c-0.08,9.26,2.01,18.14,4.82,26.91c4.47,13.94,9.46,27.75,13,41.92c3.82,15.31,6.38,30.95,9.18,46.51
		c1.94,10.77,3.51,21.61,4.93,32.46c1.25,9.6,1.88,19.27,3.13,28.87c1.45,11.18,3.15,22.33,4.99,33.46
		c0.85,5.12,1.38,10.61,3.67,15.11c4.5,8.84,10.29,17.01,15.23,25.64c3.63,6.36,7.06,12.87,10.02,19.56
		c3.69,8.32,6.37,17.11,10.3,25.31c4.49,9.38,6.97,19.02,6.68,29.37c-0.13,4.61-1.06,9.22-0.87,13.8c0.34,8.38,1.35,16.73,1.88,25.1
		c0.49,7.92,0.7,15.86,1.1,23.79c0.03,0.52,0.61,1.02,0.93,1.52c0,0.33,0,0.67,0,1c-1.34,3.58-2.72,7.15-4.02,10.75
		c-1.05,2.9-2.14,5.8-2.98,8.76c-2.84,9.97-4.71,20.27-10.84,29.04c-3.33,4.77-5.71,10.29-10.85,13.58
		c-2.85,1.82-5.82,3.4-9.24,1.32c0.25-1.17,0.44-2.08,0.77-3.6c-1.15,1.05-1.7,1.72-2.39,2.15c-2.62,1.63-5.15,3.61-8.01,4.6
		c-1.5,0.52-4.78-0.26-5.22-1.31c-0.92-2.17-1.29-5.25-0.42-7.36c1.28-3.11,1.1-5.46-0.42-8.32c-1.2-2.25-1.87-4.86-2.33-7.39
		c-1.14-6.26-2.15-12.55-2.98-18.85c-0.54-4.07-1.49-8.32-0.83-12.26c1.38-8.33,3.7-16.5,5.6-24.75c1.04-4.51,1.55-8.76-2.33-12.61
		c-2.38-2.36-3.77-5.69-5.85-8.4c-0.89-1.16-2.39-1.84-3.82-2.88c-1.22,2.52-2.13,4.4-2.74,5.66c1.1,1.78,2.72,3.2,2.78,4.69
		c0.41,9.83-0.61,19.37-7.46,27.25c-1.54,1.78-2.69,3.34-1.6,6.08c0.74,1.87,0.31,4.29,0.11,6.44c-0.19,2.07-1.62,2.95-3.53,2.07
		c-1.45-0.67-2.84-1.68-3.98-2.81c-8.06-8.05-11.08-18.35-12.32-29.21c-0.82-7.21-0.37-14.57-1.2-21.77
		c-0.82-7.1-2.26-14.16-3.96-21.11c-1.15-4.68-3.6-9.04-4.76-13.72c-1.18-4.73-2.03-9.68-2.06-14.54c-0.05-10.1,0.4-20.21,0.95-30.3
		c0.27-5.05,1.14-10.08,1.88-15.09c1.15-7.87,2.02-15.61-0.57-23.49c-3.79-11.53-8.73-22.51-15.14-32.75
		c-7.1-11.34-14.74-22.33-22.27-33.39c-9.46-13.9-19.23-27.63-26.57-42.81c-3.57-7.37-6.21-15.19-9.42-22.75
		c-6.64-15.66-11.04-31.82-10.92-48.95c0.06-8.6,0.75-17.2,0.92-25.8c0.27-13.71,0.62-27.46-3.01-40.86
		c-2.3-8.47-4.48-17.05-9.55-24.44c-7.66-11.18-15.57-22.21-21.33-34.56c-3.73-7.98-7.63-15.9-10.96-24.05
		c-6.53-15.97-12.77-32.06-19.02-48.15c-1.88-4.85-3.69-9.76-5.01-14.78c-1.68-6.42-2.81-12.99-4.18-19.49
		c-1.37,5-1.91,9.88-2.95,14.66c-1.91,8.73-3.87,17.46-6.28,26.06c-1.44,5.15-3.8,10.03-5.66,15.07c-2.39,6.46-4.35,13.1-7.13,19.37
		c-2.78,6.26-6.16,12.28-9.6,18.22c-6.71,11.57-13.4,23.16-20.58,34.44c-5.52,8.68-11.68,16.99-14.52,27.03
		c-2.92,10.31-3.59,20.99-4.09,31.63c-0.23,4.91,0.83,9.86,0.85,14.8c0.03,10.57,0.79,21.03,3.01,31.39
		c3.62,16.88,7.01,33.82,10.68,50.69c2.85,13.09,3.38,26.08-0.22,39.13c-0.36,1.31,0.06,3.41,0.95,4.41
		c7.12,8.04,14.17,16.18,21.77,23.76c8.55,8.52,17.94,16.19,26.39,24.8c3.8,3.87,7.62,5.34,12.71,4.74
		c6.06-0.72,11.65,1.42,17.24,3.26c1.49,0.49,2.8,1.68,4.02,2.75c2.06,1.81,2.26,3.47-0.51,5.01c-3.4,1.88-6.66,4-10.32,6.23
		c8.45,8.06,16.53,15.68,24.51,23.42c5.74,5.57,11.22,11.41,17.05,16.89c1.68,1.58,4.12,2.4,6.29,3.4c1.47,0.68,3.11,0.98,4.6,1.61
		c5.34,2.26,5.83,3.77,3.06,8.62c2.1,2.58,4.1,5.2,6.25,7.68c9.3,10.69,18.93,21.1,27.89,32.06c8.27,10.12,16.06,20.65,23.69,31.27
		c13.48,18.75,24.34,39.03,34.03,59.95c3.71,7.99,7.8,15.85,10.85,24.1c6.83,18.46,13.7,36.94,19.43,55.76
		c4.73,15.54,8.13,31.51,11.59,47.41c1.94,8.92,3.03,18.06,4.09,27.15c1.25,10.77,2.04,21.59,3.02,32.39
		c0.31,3.43,0.67,6.86,0.93,10.3c0.11,1.49,0.12,3-0.01,4.49c-0.24,2.94-0.75,5.86-0.9,8.8c-0.41,8.26-0.61,16.54-1.07,24.8
		c-0.19,3.43-0.69,6.86-1.28,10.24c-1.49,8.51-3.01,17.03-4.69,25.5c-1.9,9.58-3.43,19.29-6.15,28.65
		c-4.3,14.83-8.57,29.78-14.46,44.01c-7.54,18.21-16.45,35.87-25.18,53.57c-10.86,22.02-22.32,43.74-33.13,65.77
		c-5.96,12.14-11.46,24.54-16.57,37.07c-6.48,15.87-9.44,32.37-6.48,49.56c1.89,10.94,5.71,20.98,12.82,29.75
		c3.15,3.89,5.88,8.27,8.02,12.8c2.3,4.86-0.21,7.71-5.5,6.64c-7.66-1.54-14.36-4.95-20.29-10.22c-5.8-5.15-8.46-12.2-12.29-18.52
		c-3.37-5.55-6.23-11.47-8.77-17.46c-6.36-15.04-10.68-30.55-10.05-47.14c0.51-13.26,0.64-26.54,1.08-39.8
		c0.1-3.1,0.54-6.23,1.23-9.25c3.51-15.56,7.35-31.05,10.67-46.65c3.29-15.46,6.19-31.01,9.07-46.55
		c2.14-11.56,4.29-23.12,5.86-34.76c1.45-10.74,2.15-21.58,3.12-32.38c0.44-4.93,0.84-9.86,1.03-14.8
		c0.29-7.42,0.78-14.87,0.44-22.28c-0.45-9.85-1.56-19.66-2.47-29.49c-0.61-6.54-0.95-13.14-2.15-19.57
		c-1.97-10.55-4.22-21.08-6.93-31.47c-3.74-14.35-8.56-28.39-14.98-41.78c-10.6-22.11-25.69-41.28-40.36-60.7
		c-0.54-0.72-1.44-1.16-2.55-2.03c0,1.37-0.08,2.21,0.01,3.03c0.98,8.29,2,16.57,2.98,24.86c0.7,5.86,1.38,11.73,2.03,17.59
		c1.01,9.13,2.63,18.25,2.83,27.41c0.38,17.38,0.87,34.81-1.87,52.09c-1.28,8.06-2.61,16.11-3.95,24.16
		c-1.66,9.98-3.82,19.91-4.89,29.96c-0.98,9.2-0.51,18.54-1.22,27.78c-0.85,11.02,2.65,21.33,4.54,31.89
		c2.27,12.66,5.03,25.24,7.58,37.85c2.23,11.02,3.09,22.15,2.98,33.39c-0.11,11.37,0.1,22.73-0.06,34.1
		c-0.15,10.1-0.63,20.2-0.97,30.3c-0.01,0.33,0.01,0.67-0.03,1c-1.31,9.23-2.53,18.48-3.98,27.69c-1.96,12.42-4.03,24.82-6.18,37.21
		c-3.2,18.45-9.6,36.19-11.13,55.08c-0.81,10.03-0.58,19.69,1.75,29.3c5.56,22.93,12.12,45.6,19.63,67.97
		c4.23,12.61,8.31,25.31,13.26,37.64c3.98,9.93,8.94,19.5,13.86,29.02c10.81,20.92,21.8,41.74,32.88,62.52
		c1.75,3.28,4.14,6.29,6.62,9.08c1.25,1.4,4.46,1.77,4.8,3.1c0.46,1.84,1.18,3.13,2.43,4.28c3.52,3.25,7.01,6.54,10.66,9.63
		c2.87,2.43,5.76,4.95,9.01,6.79c9.48,5.38,17.71,11.85,22.02,22.28c0.43,1.03,1.25,1.9,1.85,2.87
		c4.18,6.79,11.24,10.49,16.84,15.76c2.84,2.67,5.62,5.43,8.2,8.35c2.7,3.07,4.96,6.53,7.7,9.55c7.08,7.8,13.06,15.75,15.41,26.73
		c1.94,9.06,2.63,17.93,2.25,26.94c-0.17,4.13-0.47,8.89-5.13,12.1c-6.62-8.26-13.15-16.41-19.41-24.21
		c-4.25,1.71-7.7,3.09-11.16,4.48c0.56,6.21-0.95,13.39-3.56,19.35c-1.22,2.79-2.28,5.85-2.48,8.86
		c-0.86,12.56-3.95,23.94-10.05,34.71c-0.79,1.4-1.8,2.8-3.03,3.81c-2.48,2.04-4.32,1.35-5-1.81c-2.13-9.9-4.88-19.6-9.63-28.59
		c-0.65-1.24-2.1-2.55-3.4-2.85c-3.02-0.69-6.16-0.94-9.27-1.08c-6.99-0.32-13.42-2.44-19.67-5.46c-4.96-2.4-9.92-5.02-15.17-6.51
		c-7.22-2.04-14.73-2.99-20.45,3.84c-1.31,1.56-2.46,3.31-3.37,5.13c-1.87,3.7-3.7,7.27-7.66,9.34c-1.11,0.58-1.81,2.22-2.38,3.51
		c-5.33,11.93-10.26,24.07-18.99,34.11c-0.67,0-1.33,0-2,0c-2.07-3.84-4.4-7.57-6.15-11.55c-2.31-5.25-3.98-10.79-6.31-16.03
		c-1.43-3.21-5.06-3.4-7.97-4.4c-8.73-2.98-15.93-8.29-20.73-15.96c-4.15-6.62-6.58-14.25-6.79-22.23
		c-0.23-8.66,0.16-17.34-0.14-25.99c-0.15-4.54-1.03-9.08-1.86-13.57c-1.24-6.73-2.91-13.38-4.06-20.12
		c-0.93-5.48-1.05-11.11-2.1-16.57c-1.82-9.43-3.95-18.81-6.2-28.16c-4.14-17.24-8.44-34.45-12.72-51.66
		c-2.98-12-5.87-24.04-9.11-35.97c-3.46-12.71-7.38-25.29-10.93-37.98c-2.63-9.38-4.32-18.98-8.86-27.83
		c-6.82-13.3-9.62-27.73-10.02-42.59c-0.13-4.75,0.2-9.6,1.02-14.28c1.21-6.87,2.63-13.77,4.74-20.41c2.19-6.9,4.5-13.73,4.12-21.04
		c-0.48-9.38-1.38-18.73-1.93-28.11c-0.76-13.03-1.16-26.08-2.12-39.09c-0.41-5.49-1.55-10.99-2.9-16.34
		c-2.91-11.5-9.7-21.31-14.47-32.01c-1.78-4-3.77-7.91-5.54-11.91c-1.12-2.53-2.03-5.14-2.97-7.75c-0.88-2.44-1.24-5.19-2.6-7.3
		c-1.33-2.07,2.06-4.9-1.37-6.24c0.4-0.88,0.8-1.76,1.2-2.63c-2.67-2.54-2.67-2.54-0.91-4.72c-1.14-1.62-2.84-3.02-3.18-4.71
		c-1.29-6.23-2.9-12.54-2.99-18.84c-0.18-12.92-0.52-26,1.17-38.76c1.84-13.82,6-27.32,8.97-41c1.2-5.52,1.98-11.06-0.24-16.7
		c-2.8-7.09-4.18-14.8-9.02-20.97c-11.29-14.39-17.87-31.02-23.01-48.31c-5.76-19.37-7.61-39.43-9.96-59.38
		c-1.7-14.4-6.64-27.44-14.27-39.65c-6.83-10.92-13.71-21.83-20.05-33.03c-8.29-14.66-14.49-30.31-19.78-46.28
		c-4.3-12.99-7.81-26.17-10.14-39.7c-2.41-14-3.97-28.01-3.84-42.2c0.02-1.67,0.13-3.35-0.05-4.99c-0.1-0.93-0.71-1.81-1.38-3.41
		c-0.62,3.84-1.29,6.73-1.52,9.65c-0.77,9.86-1.45,19.73-2.02,29.6c-0.45,7.76-0.93,15.53-0.96,23.3
		c-0.05,10.09-0.45,20.11-1.97,30.11c-1.38,9.07-1.86,18.28-3.13,27.38c-1.42,10.18-2.75,20.42-5.09,30.41
		c-3.92,16.79-8.59,33.39-12.95,50.08c-1.64,6.28-3.81,12.49-4.78,18.87c-0.99,6.5-0.74,13.18-1.19,19.78
		c-0.24,3.6-0.8,7.17-1.24,10.76c-1.23,10.08-2.63,20.14-3.67,30.24c-0.78,7.61,0.25,15.19,2.07,22.55
		c1.38,5.6,1.63,11.86,6.07,16.22c4.46,4.38,9.14,8.58,14.07,12.42c11.18,8.71,22.21,17.62,30.36,29.33
		c17.1,24.55,25.7,52.01,26.29,81.86c0.21,10.59,0.32,21.34-1.22,31.76c-1.79,12.05-5.46,23.78-11.44,34.67
		c-2.17,3.96-3.98,8.43-3.18,13.16c0.79,4.64,1.73,9.33,3.25,13.77c3.87,11.23,8.16,22.31,12.15,33.5c1.51,4.22,1.8,8.82,4.07,12.83
		c0.74,1.3,0.96,2.89,1.5,4.31c0.43,1.12,0.98,2.2,1.48,3.29c2.93-2.55,2.72,1.17,3.09,1.94c3.57,7.33,7.08,14.71,10.19,22.25
		c2.95,7.16,4.74,14.66,4.17,22.51c-0.19,2.61-0.35,5.28-1.04,7.78c-1.8,6.54-0.92,13.5-3.75,19.95c-2.6,5.94-4.51,12.24-6.11,18.54
		c-2.93,11.51-5.63,23.09-8.01,34.73c-1.82,8.93-5.47,17.47-5.58,26.77c-0.04,3.13-0.3,6.27-0.53,9.4
		c-0.98,13.64-2.16,27.26-2.87,40.91c-0.26,5.07,0.75,10.19,0.83,15.3c0.05,2.88-0.61,5.76-1.07,9.7c1.05-2.09,1.6-3.18,2.15-4.26
		c1.46,9.3,2.44,18.29,2.94,27.31c0.59,10.74-0.11,21.46-3.02,31.84c-3.15,11.24-7.55,21.8-15.86,30.6
		c-3.69,3.91-6.55,8.48-7.52,14.79c-1.55,9.99-5.55,19.66-9.05,29.28c-2.36,6.5-4.8,12.82-4.57,19.92c0.11,3.58-0.28,7.25-1,10.76
		c-3.41,16.74-14.17,25.96-30.54,29.22c-0.32,0.06-0.7-0.24-0.96-0.33c-3.08,5.38-5.81,10.59-8.97,15.53
		c-2.34,3.67-4.5,7.59-8.68,9.78c-3.41,1.79-6.31,1.9-8.97-0.81c-4.51-4.59-7.99-9.85-8.8-16.46c-0.68-5.55-1.75-10.5-6.95-14.27
		c-3.05-2.21-4.54-6.65-6.54-10.19c-2.6-4.61-5.13-5.47-9.83-3.32c-2.81,1.28-5.68,2.54-8.65,3.33c-6.91,1.83-13.88,3.43-20.86,4.98
		c-2.91,0.65-5.29,1.37-7.16,4.27c-3.18,4.93-7.11,9.39-10.8,13.98c-1.97,2.45-4.34,2.56-6.27,0.19c-3.25-3.99-5.7-8.56-5.84-13.72
		c-0.15-5.36,0.4-10.65-4.87-14.19c-0.59-0.4-0.91-1.37-1.13-2.15c-1.48-5.26-2.9-10.53-4.29-15.64c-4.47-0.84-9.4-1.97-14.39-2.58
		c-1.75-0.21-3.66,0.83-5.48,1.36c-2.06,0.6-4.23,1.01-6.11,1.98c-2.1,1.08-3.97,2.63-5.86,4.08c-2,1.54-3.76,3.43-5.87,4.77
		c-1.64,1.04-3.48,2.89-5.69,0.62c-2.13-2.18-4.15-4.27-3.1-7.74c0.42-1.39,0.65-2.89,0.64-4.34c-0.12-14.05,4.65-26.55,12.13-38.15
		c0.88-1.36,2.28-2.39,3.45-3.57c2.27-2.31,4.6-4.56,6.8-6.94c3.19-3.44,6.23-7.02,9.43-10.45c2.55-2.73,6.14-4.88,7.67-8.06
		c2.8-5.82,4.21-12.3,6.63-18.34c1.3-3.25,2.93-6.73,5.39-9.07c5.45-5.2,11.52-9.75,17.34-14.56c3.92-3.25,8.11-6.23,11.67-9.83
		c4.15-4.2,8.23-8.63,11.47-13.53c4.74-7.17,9.26-14.6,12.84-22.4c3.16-6.89,5-14.4,7.22-21.7c3.84-12.6,7.56-25.24,11.27-37.88
		c3.62-12.33,7.37-24.63,10.67-37.04c4.73-17.77,9.14-35.62,13.61-53.46c1.58-6.32,3.76-12.63,4.21-19.04
		c0.42-6,1.94-11.57,3.34-17.29c1.2-4.89,2.53-9.87,2.75-14.85c0.27-6.12-0.28-12.32-1-18.43c-0.45-3.82-1.43-7.72-2.95-11.26
		c-3.72-8.7-7.79-17.26-11.88-25.8c-10.31-21.53-20.7-43.02-31.12-64.5c-0.77-1.6-1.98-3.01-3.11-4.4
		c-4.87-5.99-10.19-11.66-14.6-17.96c-12.1-17.3-22.33-35.69-30.59-55.16c-0.94-2.22-2-4.46-3.4-6.41
		c-3.82-5.32-7.95-10.41-8.32-17.41c-0.04-0.84-1.22-1.75-2.05-2.39c-9.53-7.45-15.74-17.16-18.69-28.74
		c-1.38-5.4-1.04-11.21-2.23-16.68c-2.69-12.44-3.38-25.04-3.87-37.68c-0.17-4.49-0.02-9-0.03-13.5
		c-0.01-5.33,0.51-10.73-0.16-15.98c-1.25-9.87-2.96-19.7-4.91-29.46c-2.39-11.97-5.26-23.84-7.83-35.78
		c-0.86-3.99-2.13-8.08-1.92-12.05c0.26-4.76-0.27-9.27-1.27-13.82c-0.04-0.18-0.33-0.3-0.63-0.54c-0.23,1.23-0.44,2.36-0.66,3.57
		c-0.97-1.66-2.21-2.95-2.51-4.43c-1.2-5.92-2.34-11.87-3.06-17.86c-1.5-12.38-3.04-24.77-3.97-37.2
		c-1.04-14.01-1.84-28.06-1.98-42.1c-0.16-15.43,0.68-30.86,0.85-46.3c0.19-16.72-0.17-33.44,1.93-50.12
		c1.23-9.8,1.43-19.72,2.11-29.59c0.32-4.6,0.51-9.22,1.04-13.8c1.23-10.74,2.44-21.49,4-32.19c1.27-8.71,2.51-17.48,4.72-25.98
		c3.15-12.11,6.84-24.12,10.95-35.94c3.67-10.54,6.8-21.07,7.34-32.3c0.39-8.05,0.73-16.17,2.13-24.07
		c1.61-9.03,0.47-17.61-1.55-26.32c-0.88-3.81-1.85-7.84-1.46-11.64c0.79-7.6,2.34-15.14,3.86-22.65
		c1.36-6.72,2.37-13.65,4.88-19.95c2.83-7.1,4.07-14.42,4.92-21.78c0.96-8.36,0.7-16.86,1.18-25.28c0.53-9.37,1.01-18.77,2.05-28.09
		c1.01-9.09,2.25-18.2,4.2-27.12c3.48-15.94,6.54-31.87,5.71-48.28c-0.26-5.1-0.38-10.23-1.05-15.28
		c-0.65-4.83-2.13-9.54-2.89-14.36c-1.8-11.47-3.25-22.99-5.09-34.45c-1.29-8.05-3.43-15.83-6.85-23.35
		c-4.15-9.12-7.51-18.61-11.02-27.46c-4.15,12.9-9.94,25.95-17.86,38.04c-4.22,6.44-8.92,12.4-14.58,17.65
		c-4.67,4.33-9.31,8.72-13.6,13.42c-6.76,7.42-13.23,15.11-19.8,22.71c-6.13,7.1-12.2,14.24-18.34,21.33
		c-4.81,5.55-7.47,11.91-9.1,19.14c-3.36,14.87-10,28.28-20.56,39.52c-1.99,2.11-3.96,4.33-7.08,1.55
		c-0.27-0.24-1.17-0.12-1.57,0.15c-6.23,4.17-12.4,8.43-18.66,12.57c-4.48,2.97-9,5.88-13.62,8.63c-2.41,1.43-4.97,1.49-7.45-0.76
		c1.22-2.5,2.76-4.88,3.55-7.49c0.61-2,1.02-4.59,0.25-6.38c-5.52-12.91-13.27-23.7-27.81-27.7c-1.47-0.41-2.58-2.16-3.85-3.28
		c1.18-1.24,2.13-3.06,3.57-3.6c4.22-1.6,8.64-2.66,12.96-4c0.78-0.24,1.45-0.84,2.15-1.26c-5.93-5.05-11.79-9.57-17.06-14.69
		c-4.23-4.1-8.26-8.61-11.45-13.53c-3.12-4.81-8.99-7.71-9.8-14.1c-0.03-0.27-0.81-0.67-1.22-0.65c-2.36,0.13-3.03-1.89-3.97-3.28
		c-2.83-4.18-5.28-8.62-8.12-12.79c-16.43-24.21-31.57-49.16-44.59-75.41c-2.51-5.05-6.26-9.56-9.87-13.98
		c-3.87-4.74-6.41-10.06-6.41-16c0-3.79-0.8-6.79-3.54-8.98c-7.28-5.83-14.71-11.48-22.19-17.06c-3.64-2.72-8.21-4.51-11.13-7.81
		C88.28,511.8,85.3,506.24,82,501c-2.5-3.95-4.7-8.13-10.54-7.07c-0.43,0.08-0.93-0.28-1.41-0.38c-8.59-1.87-17.17-3.78-25.77-5.59
		c-4.93-1.04-10.17-1.2-14.79-3C19.52,481.07,9.82,476.37,0,472c0-1.67,0-3.33,0-5c5.05-3.88,11.04-5.71,17.06-6.89
		c9.34-1.84,17.41-5.72,25.01-11.47c11.63-8.79,15.85-22.48,10.81-35.64c-0.91-2.38-2.19-5.23-4.17-6.47
		c-6.44-4.04-9.64-10.37-12.13-16.87c-1.2-3.13-3.08-5.21-4.96-7.64c-1.96-2.54-3.84-5.27-5.1-8.19c-1.28-2.98,0.67-5.63,3.83-5.79
		c2.32-0.11,4.68-0.14,6.97,0.17c8.09,1.07,15.19,4.77,22.2,8.64c7.9,4.36,16.42,6.22,25.39,6.15c4.47-0.03,6.39-1.25,7-5.81
		c0.99-7.48,1.43-15.03,2.07-22.56c0.06-0.65,0.09-1.42-0.2-1.96c-2.48-4.65-1.92-9.68-1.72-14.59c0.25-6.01,0.48-11.83-2.63-17.41
		c-1.6-2.86-0.05-4.76,3.36-4.64c4.39,0.15,8.54,1.63,11.45,4.86c3.82,4.24,7.08,8.98,10.54,13.54c2.46,3.25,5.09,6.4,7.22,9.86
		c3.25,5.28,6.17,10.75,9.15,16.19c3.2,5.85,6.73,11.58,9.31,17.7c1.86,4.42,2.47,9.38,3.54,14.13
		c2.96,13.09,10.86,21.89,23.67,25.48c4.49,1.26,9.65,0.35,14.49,0.15c3.86-0.17,7.23-1.63,10.01-4.55
		c4.3-4.51,8.56-9.11,13.26-13.17c5.03-4.35,11.22-6.76,17.85-7.1c4.06-0.21,7.84-0.58,11.21-2.98c2.25-1.61,4.54-3.17,6.71-4.88
		c2.45-1.92,4.06-1.79,4.68,1.1c0.67,3.11,1.53,6.84,0.44,9.55c-2.81,7.01-6.13,13.94-10.23,20.27c-4.87,7.52-10.67,14.42-13.77,23
		c-0.55,1.51-1.31,3.06-2.35,4.26c-7.89,9.08-12.25,20.2-16.44,31.06c-5.2,13.49-7.84,27.81-6.48,42.5
		c0.15,1.58,0.47,3.35,1.32,4.64c4.29,6.55,8.5,13.17,13.25,19.37c6.65,8.68,14.32,16.41,23.46,22.56
		c12.21,8.22,24.86,15.84,35.63,26.44c1.36-2.85,2.84-5.39,3.8-8.11c2.64-7.5,5.51-14.97,7.42-22.67
		c1.91-7.73,2.31-15.84,4.19-23.58c3.78-15.53,10.98-29.33,22.43-40.72c4.77-4.75,9.66-9.4,14.22-14.34
		c1.8-1.96,3.74-4.49,4.07-6.96c0.85-6.53,0.77-13.18,1.21-19.77c0.25-3.77,0.5-7.56,1.21-11.26c2.44-12.69,6.33-24.93,12.97-36.1
		c4.25-7.16,7.77-14.84,14.24-20.51c4.6-4.03,8.98-8.31,13.5-12.44c0.83-0.76,1.84-1.34,2.83-1.9c7.96-4.49,16.17-8.24,25.2-10.25
		c11.5-2.57,22.81-6.18,34.81-5.42c4.6,0.29,9.22,0.5,13.79,1.05c3.11,0.37,6.16,1.27,10.46,2.19c9.31-7.4,20.42-14.26,34.39-18.02
		c-5.88,1.17-1.28-1.51-2.09-2.53c-4.65-5.87-7.5-12.82-10.62-19.55c-1.75-3.79-2.75-7.97-3.75-12.05
		c-1.46-5.97-1.98-12.16-6.78-16.92c-1.43-1.42-1.83-4.15-2.13-6.36c-0.66-4.79,0.48-6.23,5.43-6.75c2.57-0.27,4.09-1.42,5.39-3.52
		c1.97-3.18,3.98-6.39,6.41-9.21c1.77-2.06,1.97-3.91,1.26-6.32c-2.47-8.42-4.93-16.85-7.19-25.33c-1.35-5.05-2.69-10.24,2.01-14.54
		c1.22-1.12,2.29-2.4,3.47-3.63c-1.7-2.1-3.94-3.25-4.11-6.73c-0.23-4.75-2.11-9.45-3.46-14.12c-2.19-7.54-4.92-14.94-4.32-23.03
		c0.19-2.48,0.06-4.5,3.5-4.82c1.27-0.12,3.56-2.68,3.31-3.37c-1.36-3.77-0.72-7.02,1.09-10.38c0.38-0.71,0.04-1.97-0.28-2.87
		c-3.45-9.73-5.49-19.7-6.85-29.97c-1.34-10.16-0.85-20.17,0.49-30.1c1.51-11.27,4.54-22.25,8.55-33
		c2.82-7.57,4.68-15.61,6.09-23.59c1.57-8.85-1.18-17.28-4.9-25.24C480.38,3.89,481.14,1.82,484,0z"/>
</g>
</svg>
