<?xml version="1.0" encoding="utf-8"?>
<!-- Generator: Adobe Illustrator 23.1.0, SVG Export Plug-In . SVG Version: 6.00 Build 0)  -->
<svg version="1.1" id="Layer_1" xmlns="http://www.w3.org/2000/svg" xmlns:xlink="http://www.w3.org/1999/xlink" x="0px" y="0px"
	 width="110.88" height="78.47" viewBox="0 0 110.88 78.47" style="enable-background:new 0 0 110.88 78.47;" xml:space="preserve">
<g>
	<path d="M97.85,60.81c-0.35,0.21-0.62,0.36-0.97,0.57c1.69,1.14,3.27,2.4,4.25,4.17c0.94,1.7,1.65,3.52,2.56,5.5
		c1.77,0,3.77,0,5.88,0c-0.46,0.86-1.07,0.96-1.78,0.95c-7.94-0.01-15.89,0.01-23.83-0.03c-1.01-0.01-1.61,0.31-2.09,1.19
		c-0.71,1.28-1.38,2.67-3.1,2.91c-0.14,0.78-0.26,1.52-0.41,2.4c-1.94-0.37-2.62-1.81-3.28-3.28c-0.64,0.54-1.29,1.07-2.14,1.78
		c-0.04,0.11-0.18,0.48-0.37,1c-0.34-0.02-0.76,0.07-1.06-0.08c-1.37-0.68-2.29-1.72-2.32-3.35c-0.02-0.79,0-1.59,0-2.49
		c-0.45-0.02-0.84-0.06-1.22-0.06c-12.49,0-24.99,0-37.48,0.01c-0.53,0-1.12,0.1-1.58,0.34c-1.08,0.55-1.16,0.59-2.05-0.32
		c-0.81,0-1.64,0-2.54,0c-1.11,1.38-2.14,2.98-4.22,2.58c-0.82,0.31-1.09,1.37-2.16,1.16c-0.16-0.26-0.34-0.55-0.61-0.97
		c-0.87,0.58-1.7,1.14-2.6,1.75c-1.3-0.81-1.32-2.14-1.4-3.36c-1.85,0.36-3.69,0.72-5.59,1.09c-0.92-0.54-0.97-0.69-0.63-2.22
		c-2.35,0-4.69,0-7.1,0c0.21-0.84,0.71-0.99,1.35-0.98c2.11,0.01,4.23,0,6.59,0c0.61-0.93,1.28-1.95,1.94-2.97
		c0.6-0.93,1.13-1.92,1.83-2.77c0.67-0.8,1.62-0.92,2.63-0.59c0.68,0.22,1.37,0.43,2.07,0.57c0.76,0.15,1.52,0.15,2.04-0.59
		c2.05-2.88,4.68-4.75,8.4-4.7c0.05-0.88-0.27-1.53-0.84-2.15c-2.16-2.34-3.15-5.18-3.6-8.29c-0.31-2.14-0.13-4.18,0.49-6.24
		c1.11-3.68,5.66-7.53,9.46-7.6c2.05-0.04,4.1,0.43,6.33,0.68c0.77-0.76,1.11-1.91,1.25-3.16c0.07-0.59,0.09-1.19,0.2-1.78
		c0.53-2.84,3.25-5.12,6.13-5.23c1.69-0.07,3.27,0.19,4.61,1.29c0.66,0.55,1.41,0.46,2.16,0.4c0.95-0.08,1.9-0.2,2.85-0.23
		c0.67-0.02,1.07-0.22,1.37-0.89c1.22-2.75,2.79-5.32,4.82-7.52c1.27-1.38,2.59-2.82,4.37-3.56c0.82,0.25,0.85,0.76,0.55,1.33
		c-0.39,0.74-0.83,1.45-1.23,2.19c-0.79,1.43-1.57,2.87-2.33,4.31c-0.18,0.33-0.26,0.72-0.47,1.32c1.3-0.62,2.12-1.42,2.78-2.32
		c1.45-2,2.89-4.01,4.16-6.12c3-4.98,7.27-8.18,12.93-9.44c0.86-0.19,1.84-0.71,2.9,0.25c-0.24,0.39-0.43,0.86-0.76,1.19
		c-1.08,1.06-2.19,2.1-3.32,3.1c-2.5,2.2-3.77,5.11-4.56,8.23c-0.24,0.95-0.4,1.83-1.09,2.55c-0.08,0.08-0.14,0.19-0.18,0.3
		c-0.57,1.68-1.13,3.36-1.71,5.08c0.77,0.13,1.56-0.01,2.31-0.6c1.6-1.25,3.45-1.98,5.42-2.37c0.35-0.07,0.76,0.12,1.41,0.25
		c-0.6,0.79-1.01,1.34-1.6,2.11c1.85-0.44,3.38-1,4.53-2.19c1.55-1.6,2.96-3.33,4.43-5c1.5-1.7,2.93-3.46,4.52-5.07
		c2.02-2.03,4.67-2.84,7.39-3.37c2.31-0.45,4.64-0.81,6.99-0.27c0.5,0.12,0.95,0.43,1.31,0.61c0.14,0.99-0.39,1.31-0.9,1.61
		c-1.2,0.71-2.42,1.38-3.63,2.07c-3.21,1.84-4.77,4.8-5.61,8.24c-1.02,4.14-2.39,8.12-5.61,11.14c-1.18,1.11-2.52,2.06-3.88,3.16
		c-0.6,1.29-0.24,2.47,0.79,3.57c0.42,0.45,0.68,1.06,0.94,1.63c0.34,0.72,0.56,1.49,0.92,2.2c0.62,1.23,1.48,2.21,2.78,2.84
		c1.17,0.57,2.26,1.35,3.29,2.15c0.86,0.67,0.76,1.3-0.2,2.08c-0.53-0.22-1.11-0.46-1.69-0.69c-1.2-0.48-1.78-0.11-2.32,1.01
		c-0.8,1.64-0.86,2.94,0.56,4.37C97.17,58.07,97.9,59.29,97.85,60.81z M89.79,58.81c2.03,0.61,4.07,1.23,6.34,1.91
		c-1.53-1.61-2.74-3.33-5.08-3.09C90.57,58.08,90.15,58.47,89.79,58.81z"/>
	<path d="M54.77,13.03c0.96-2.89,0.56-5.86,1.56-8.55c0.13,0,0.26,0.01,0.39,0.01c0.05,0.48,0.18,0.96,0.13,1.43
		c-0.2,1.93-0.42,3.86-0.71,5.78C56.06,12.28,55.85,12.95,54.77,13.03z"/>
	<path d="M27.49,2.52c0.5,0.77,1.02,1.52,1.48,2.32c1.01,1.76,1.99,3.54,2.95,5.32c0.15,0.28,0.12,0.65,0.18,0.98
		c-0.1,0.05-0.2,0.1-0.3,0.15c-0.23-0.17-0.56-0.29-0.68-0.51c-1.27-2.34-2.52-4.69-3.75-7.05c-0.16-0.31-0.16-0.7-0.24-1.06
		C27.25,2.63,27.37,2.58,27.49,2.52z"/>
	<path d="M42.95,0c1.15,0.64,2.25,6.61,1.7,8.38c-0.32-0.4-0.65-0.67-0.75-1c-0.17-0.56-0.22-1.16-0.29-1.75
		C43.38,3.75,43.17,1.88,42.95,0z"/>
	<path d="M17.74,15.99c0.47,0.04,0.79-0.03,0.93,0.09c1.81,1.59,3.61,3.21,5.39,4.83c0.1,0.09,0.12,0.28,0.26,0.61
		c-0.41,0-0.83,0.13-1-0.02c-1.77-1.58-3.5-3.2-5.24-4.82C17.99,16.6,17.95,16.43,17.74,15.99z"/>
</g>
</svg>
