<?xml version="1.0" encoding="utf-8"?>
<!-- Generator: Adobe Illustrator 24.0.2, SVG Export Plug-In . SVG Version: 6.00 Build 0)  -->
<svg version="1.1" id="Layer_1" xmlns="http://www.w3.org/2000/svg" xmlns:xlink="http://www.w3.org/1999/xlink" x="0px" y="0px"
	 viewBox="0 0 243.17 401.97" style="enable-background:new 0 0 243.17 401.97;" xml:space="preserve">
<style type="text/css">
	.st0{fill:#1A1A1A;}
</style>
<g>
	<path d="M77.86,225.34c-1.83-2.06-3.94-3.47-6.64-3.85c-0.3-0.04-0.81-0.37-0.92,0.33c-0.04,0.26-0.31,0.16-0.5,0.14
		c-1.17-0.12-2.21,0.31-3.21,0.8c-3.72,1.82-7.08,4.15-10.19,6.91c-1.6,1.42-3.27,2.78-4.9,4.18c-3.38,2.91-6.35,6.16-8.82,9.87
		c-0.39,0.59-0.81,1.12-1.54,1.44c-0.69,0.3-1.01,1.1-1.51,1.67c-0.36,0.41-0.59,0.97-1.18,1.13c-0.38-0.46-0.12-0.86,0.1-1.29
		c1.85-3.54,3.92-6.96,5.87-10.44c3.04-5.44,6.04-10.9,9.13-16.31c4.74-8.29,8.91-16.88,13.72-25.14c2.69-4.62,4.97-9.46,7.47-14.18
		c2.05-3.88,4.42-7.59,6.46-11.48c1.78-3.39,3.54-6.79,5.32-10.19c0.63-1.2,1.04-2.64,1.96-3.55c1.67-1.65,2.43-3.8,3.63-5.69
		c0.72-1.14,1.27-2.37,1.68-3.67c0.37-1.15,1.27-2.02,1.81-3.09c1.32-2.63,2.65-5.26,4.05-7.85c2.79-5.18,5.06-10.56,6.83-16.16
		c0.23-0.74,0.53-1.46,0.27-2.32c-0.59-1.96-1.59-2.75-3.63-2.64c-4.03,0.22-8.05,0.62-12.07,1.02c-1.83,0.18-3.66,0.36-5.48,0.57
		c-1.59,0.19-3.14,0.55-4.67,0.98c-3.18,0.88-6.41,1.35-9.72,1.2c-1.68-0.07-3.32-0.49-4.97-0.77c-0.69-0.11-1.14,0.2-1.73,0.45
		c-1.08,0.46-1.39,1.47-2.02,2.22c-3.51,4.15-7.97,6.27-13.39,6.44c-0.84,0.03-1.65,0.35-2.32,0.84c-2.27,1.66-5.99-0.03-6.19-2.71
		c-0.04-0.5-0.22-0.96-0.71-1.31c-2.16-1.58-2.59-3.84-1.25-6.19c-2.41-1.99-2.28-5.3-0.54-7.25c-2.3,0.17-4.29-0.91-6.43-1.1
		c-1.22-0.11-2.46-0.07-3.68,0.06c-2.91,0.31-5.28-0.97-7.61-2.4c-0.26-0.16-0.55-0.41-0.65-0.69c-0.51-1.33-1.64-1.62-2.86-1.81
		c-0.31-0.05-0.6-0.18-0.89-0.28c0.11-1.17,1.04-2.05,2.22-2.06c2-0.01,3.97-0.29,5.96-0.43c1.42-0.1,2.79,0.15,4.15,0.45
		c2.44,0.53,4.93,0.52,7.39,0.62c2.84,0.12,5.63,0.67,8.48,0.71c1.81,0.03,1.81,0.09,3.63-0.72c-0.04-0.27-0.2-0.29-0.43-0.22
		c-3.25,1.09-5.78-0.16-7.91-2.51c-0.76-0.83-1.45-1.62-2.61-1.93c-0.98-0.27-1.09-0.95-0.25-1.48c1.1-0.68,2.42-0.95,3.55-1.62
		c0.25-0.15,0.54,0.07,0.79,0.18c1.79,0.81,3.68,1.06,5.62,1.01c1.79-0.05,3.55,0.34,5.15,0.9c2.39,0.83,4.76,1.89,6.69,3.65
		c0.83,0.76,1.68,1.48,2.4,2.35c0.77,0.94,1.94,1.25,2.99,1.41c1.23,0.19,2.55,0.08,3.82-0.08c1.78-0.23,3.56-0.46,5.35-0.6
		c2.71-0.21,5.43-0.29,8.06,0.58c0.32,0.11,0.58,0.09,0.91-0.04c2.46-1.04,4.84-2.25,7.45-3.53c-1.32-0.32-2.41-0.58-3.5-0.86
		c-3.8-0.98-7.5-2.22-10.91-4.24c-1.59-0.94-2.84-2.19-3.89-3.67c-0.74-1.05-0.94-2.31-1.06-3.52c-0.25-2.49,0.28-4.89,1.7-6.96
		c0.71-1.04,1.84-1.75,2.95-2.41c1.9-1.13,3.99-1.81,6.07-2.52c1.16-0.39,2.28-0.85,3.17-1.73c0.21-0.21,0.31-0.46,0.38-0.73
		c0.37-1.41,0.27-2.8-0.49-4.04c-1.63-2.7-3.83-4.92-6.32-6.82c-2.39-1.83-4.71-3.71-6.53-6.15c-1.21-1.62-2.2-3.32-2.61-5.34
		c-0.34-1.68-0.02-3.27,0.61-4.8c0.35-0.85,0.97-1.51,1.96-1.79c0.75-0.21,1.53-0.5,2.07-1.13c0.31-0.37,0.72-0.3,1.1-0.31
		c2.25-0.11,4.22,0.77,6.15,1.77c1.77,0.92,3,0.41,3.27-1.59c0.28-2.13,0.4-4.28-0.44-6.38c-1.33-3.33-3.22-6.32-5.53-9.01
		c-1.9-2.21-3.92-4.32-5.84-6.51c-2.01-2.3-3.23-5.13-3.73-8.19c-0.25-1.52-0.48-3.01-0.09-4.61C68.6,5.3,70.3,3.16,73.03,1.8
		c1.9-0.95,3.9-1.58,6.06-1.73c4.3-0.29,8.43,0.26,12.42,1.96c3.16,1.35,6.42,2.46,9.59,3.77c5.08,2.11,9.89,4.77,14.2,8.18
		c4.51,3.56,9.11,7.05,12.89,11.46c0.05,0.06,0.13,0.09,0.28,0.18c0.12-0.46,0.22-0.89,0.35-1.32c0.14-0.47,0.58-0.63,1.01-0.86
		c-0.19-0.5-0.39-0.96-0.55-1.44c-0.49-1.49,0.19-2.68,1.11-3.7c0.62-0.69,1.57-0.51,2.39-0.34c1.13,0.23,2.22,0.54,3.4,0.6
		c0.82,0.04,1.64,0.41,1.99,1.33c-0.06,0.77-0.93,0.21-1.21,0.72c0.14,0.28,0.37,0.2,0.57,0.13c4.36-1.55,8.65-1.09,12.87,0.54
		c0.72,0.28,1.47,0.3,2.19,0.56c1.59,0.57,2.82,1.69,4.05,2.73c8.31,7.03,16.21,14.5,23.7,22.39c1.62,1.71,3.32,3.33,4.82,5.17
		c1.78,2.2,2.64,4.7,2.94,7.46c0.17,1.52-0.66,2.63-1.47,3.66c-1.97,2.47-3.66,5.15-5.56,7.66c-2,2.64-3.84,5.42-5.96,7.97
		c-3.38,4.06-7.08,7.82-10.89,11.48c-3.2,3.08-6.47,6.08-9.54,9.29c-0.47,0.49-0.93,1-1.36,1.52c-0.48,0.59-0.99,1.17-0.69,2.04
		c0.1,0.27-0.14,0.39-0.39,0.53c0.8,1.24,1.65,2.45,2.37,3.73c1.75,3.11,2.99,6.41,3.49,9.97c0.27,1.93,0.61,3.85,1.64,5.58
		c0.44,0.75,0.72,1.6,1.01,2.43c1.14,3.21,2.88,6.13,4.23,9.24c1.83,4.2,3.42,8.5,4.17,13.03c0.43,2.55,1.12,5.07,1.1,7.7
		c-0.01,1.02,0.31,2.05,0.42,3.08c0.39,3.78,0.48,7.58,0.21,11.37c-0.21,2.98-0.58,5.96-0.96,8.93c-0.14,1.09-0.71,2.1-1.05,3.16
		c-0.63,1.93-0.62,3.83-0.32,5.8c0.76,5.09,1.48,10.19,2.35,15.27c1.31,7.63,2.56,15.27,3.76,22.92c0.74,4.73,1.32,9.49,2.01,14.24
		c0.73,5.01,1.44,10.03,2.46,15c0.24,1.17,0.3,2.38,0.36,3.58c0.08,1.51,0.37,3.01,0.46,4.51c0.08,1.31,0.01,2.63-0.03,3.95
		c-0.01,0.31-0.19,0.6-0.5,0.87c-0.62-1.59-0.99-3.23-1.28-4.85c-0.92-5.15-2.29-10.2-3.25-15.34c-0.38-2.04-0.75-4.08-1.15-6.12
		c-0.62-3.18-2.02-6.05-3.68-8.79c-0.69-1.14-1.37-2.3-2.39-3.51c-0.34,2.01-0.58,3.77-0.93,5.51c-1.63,8.02-3.67,15.93-6.18,23.73
		c-1.69,5.23-3.54,10.43-4.6,15.86c-0.35,1.81-0.46,3.61-0.23,5.46c0.31,2.48-0.05,4.95-0.79,7.33c-2.58,8.26-4.87,16.61-7.81,24.75
		c-1.26,3.49-2.33,7.06-3.68,10.51c-2.06,5.25-3.71,10.62-5.22,16.03c-0.62,2.21-0.93,4.51-1.25,6.83c0.15-0.28,0.29-0.56,0.49-0.93
		c0.02,0.2,0.05,0.3,0.03,0.4c-0.38,1.59-0.83,3.17-1.14,4.77c-0.48,2.47-0.6,4.96-0.44,7.47c0.03,0.49,0.25,0.92,0.43,1.36
		c1.04,2.53,1.78,5.21,3.48,7.44c0.15,0.19,0.28,0.39,0.42,0.58c0.63,0.82,1.52,1.38,1.9,2.46c0.21,0.6,0.95,1.06,1.52,1.5
		c4.39,3.35,9.13,6.03,14.5,7.48c1.14,0.31,2.29,0.55,3.42,0.92c0.92,0.3,1.97-0.13,2.96,0.04c-0.34,0.23-0.79-0.06-1.24,0.27
		c1.13,0.13,2.18,0.11,3.21,0.25c1.01,0.14,1.89,0.6,2.86,0.8c0.32,0.06,0.44,0.33,0.57,0.57c2.05,3.73,2.83,7.68,2.07,11.9
		c-0.12,0.67-0.61,1.1-0.97,1.62c-0.34,0.49-0.79,0.52-1.21,0.07c-0.9-0.97-2.11-1.4-3.2-1.98c-0.89,0.44-1.14,1.28-1.45,2.05
		c-0.36,0.89-0.83,1.72-1.33,2.54c-0.99,1.64-2.29,1.73-3.53,0.24c-0.08-0.09-0.14-0.25-0.23-0.27c-1.62-0.29-2.21-1.95-3.55-2.63
		c-1.21-0.61-2.1-1.66-3.1-2.61c-0.87,2.56-2.45,4.7-3.39,7.16c-0.3,0.78-1.7,1.06-2.65,0.56c-1.31-0.69-2.28-1.77-3.09-2.96
		c-0.56-0.81-1.34-1.18-2.18-1.3c-0.8-0.12-1.44-0.44-2.04-0.9c-1.08-0.83-1.95-1.88-2.89-2.86c-0.92-0.96-2.07-1.73-3.21-2.44
		c-0.87-0.54-1.85-0.9-2.63-1.58c-0.19,0.21-0.11,0.37-0.07,0.52c0.92,3.47,0.16,6.81-0.84,10.12c-0.36,1.2-1.26,2.1-1.81,3.21
		c-0.43,0.86-2.13,0.88-2.73,0.08c-1.18-1.57-2.49-3.02-3.74-4.52c-1.09-1.31-1.41-3.02-1.6-4.71c-0.07-0.6,0.03-1.26-0.73-1.46
		c-0.55-0.15-1.57,0.49-1.85,1.1c-0.05,0.11-0.1,0.22-0.12,0.34c-0.22,1.58-0.95,2.93-1.76,4.27c-0.39,0.64-0.62,1.32-0.67,2.13
		c-0.07,1.17-1.08,1.71-2.03,2.12c-0.78,0.34-1.64,0.51-2.44,0.8c-0.58,0.21-1.01-0.05-1.44-0.35c-1.31-0.92-2.22-2.16-2.93-3.58
		c-0.93-1.87-1.09-1.92-2.82-0.78c-0.56,0.37-1.21,0.48-1.78,0.9c-0.9,0.67-1.42,1.55-1.95,2.46c-0.12,0.2-0.23,0.42-0.47,0.51
		c-0.44,0.07-0.33-0.38-0.56-0.55c-0.08,0.06-0.22,0.11-0.25,0.2c-0.25,0.75-0.82,0.8-1.46,0.66c-1.13-0.26-1.91-0.99-2.42-1.99
		c-1.22-2.34-2.49-4.67-2.24-7.42c-0.34-0.11-0.33,0.27-0.56,0.23c-0.02-0.07-0.06-0.14-0.05-0.2c0.48-2.01,1.57-3.53,3.47-4.47
		c1.46-0.73,2.73-1.79,4.13-2.63c1.08-0.64,1.74-1.83,2.41-2.93c2.99-4.92,5.05-10.22,6.6-15.75c0.8-2.87,1.36-5.79,1.42-8.73
		c0.1-4.96-0.68-9.84-2.14-14.59c-0.34-1.11-0.97-2.25-0.88-3.33c0.09-1.11-0.21-2.08-0.35-3.1c-0.33-2.5-1.39-4.82-1.87-7.29
		c-0.53-2.7-1.33-5.34-1.65-8.09c-0.16-1.4-0.91-2.64-1.15-4.03c-0.94-5.41-1.31-10.87-1.12-16.36c0.12-3.64,0.58-7.24,1.02-10.85
		c0.17-1.35-0.18-2.77-0.25-4.15c-0.08-1.59-0.64-3.03-1.21-4.48c-1.98-5.04-4.67-9.72-7.17-14.49c-0.63-1.19-1.21-2.41-1.88-3.74
		c-1.22,2.18-2.89,3.86-4.24,5.77c-1.63,2.3-3.87,3.99-5.75,6.03c-1.35,1.46-2.75,2.86-3.92,4.49c-0.63,0.88-1.55,1.5-2.37,2.19
		c-3.91,3.3-7.65,6.8-11.48,10.2c-4.87,4.34-10.04,8.31-15.05,12.47c-2.06,1.71-4.12,3.44-5.99,5.35c-4.22,4.3-8.82,8.2-12.94,12.61
		c-0.89,0.95-1.83,1.86-2.55,3c0.31-0.21,0.61-0.43,0.92-0.64c0.04,0.03,0.08,0.07,0.12,0.1c-0.26,0.32-0.51,0.65-0.79,0.96
		c-5.04,5.46-7.49,11.96-7.96,19.32c-0.25,3.88,0.05,7.67,1.49,11.29c1.03,2.6,2.39,5.07,3.92,7.4c3.03,4.63,7.1,8.19,11.79,11.07
		c0.68,0.42,1.36,0.8,2.18,0.93c0.68,0.11,1.07,0.78,1.72,1.02c2.16,0.76,4.37,1.25,6.63,1.56c5.82,0.77,11.36-0.37,16.5-2.99
		c4.98-2.54,9.72-5.53,13.78-9.48c3.01-2.93,5.96-5.91,8.78-9.01c0.25-0.28,0.25-0.27,1.12-0.24c0.77,1.13,0.36,2.13-0.26,3.18
		c-0.57,0.96-1.02,1.99-1.5,3c-1.91,4.06-4.92,7.33-7.82,10.66c-1.41,1.62-3.04,3.07-4.6,4.56c-3.39,3.24-7.56,5.02-11.97,6.32
		c-0.99,0.29-2.01,0.51-3,0.81c-1.29,0.39-2.46,1.08-3.94,0.87c-1.34-0.19-2.69,0.26-4.04,0.39c-1.4,0.13-2.8,0.11-4.2,0.11
		c-0.79,0-1.59,0-2.38,0.07c2.69,0.37,5.39,0.15,8.09,0.23c-0.41,0.23-0.85,0.32-1.3,0.34c-9.68,0.44-18.87-1.33-27.25-6.35
		c-5.09-3.05-9.4-7.03-13.02-11.74c-1.22-1.59-2.47-3.15-3.47-4.88c-0.44-0.76-1.13-1.32-1.58-2.09c-2.25-3.85-3.41-8.05-4.07-12.42
		c-0.45-3-1.18-5.96-0.97-9.03c0.16-2.31,0.36-4.62,0.78-6.9c2.03-11.27,6.56-21.45,13.19-30.78c4.58-6.44,9.81-12.32,15.04-18.2
		c0.43-0.48,0.83-0.97,1.27-1.44c2.05-2.17,4.1-4.34,6.21-6.46c5.3-5.33,10.68-10.58,15.57-16.3c6.41-7.51,12.88-14.97,18.58-23.05
		C73.26,233.16,75.54,229.31,77.86,225.34z M143.35,41.21c0.04,0.32,0.19,0.46,0.32,0.61c2,2.12,3.47,4.59,4.58,7.26
		c0.49,1.17,0.93,2.4,0.8,3.71c-0.23,2.22-1.64,3.74-3.35,4.86c-0.85,0.56-1.39,1.21-1.87,2c-0.23,0.38-0.43,0.77-0.69,1.12
		c-0.77,1.06-1.75,1.97-3,2.29c-3.05,0.79-6.02,1.87-9.09,2.6c-1.43,0.34-2.93,0.62-4.23,1.26c-2.18,1.09-3.9,2.7-4.84,5.09
		c-1.43,3.63-1.33,8.83,3.13,11.84c1.2,0.81,2.5,1.4,3.71,2.17c1.66,1.06,3.51,1.73,5.36,2.35c1.56,0.52,3.03,0.33,4.41-0.72
		c1.87-1.43,3.57-3.05,5.37-4.56c4.9-4.12,9.81-8.2,15.12-11.8c3.21-2.17,6.37-4.42,9.3-6.97c0.96-0.84,2.01-1.58,2.81-2.6
		c0.44-0.55,0.42-0.98-0.06-1.46c-1.33-1.35-2.22-3.02-3.24-4.59c-2.64-4.05-4.89-8.34-7.43-12.45c-1.64-2.65-3.35-5.26-5.35-7.66
		c-0.97-1.17-1.94-1.16-2.97-0.08c-0.33,0.35-0.7,0.66-1.06,0.97c-1.47,1.28-3.39,1.77-5.01,2.78
		C145.11,39.84,144.17,40.49,143.35,41.21z M127.09,269.8c-0.96,4.53-0.45,9.05,0.1,13.57c0.6-1.33,1.05-2.71,0.97-4.11
		C127.97,276.09,127.67,272.93,127.09,269.8z"/>
</g>
<g>
	<path class="st0" d="M85.94,357.41c-0.28,1.97-0.7,3.87-1.78,5.61c-1.45,2.33-2.92,4.63-4.6,6.82c-2.02,2.63-4.37,4.89-7.03,6.84
		c-0.63,0.46-1.21,1-1.93,1.33c-0.51,0.23-0.24,0.94-0.73,1.2c-0.79,0.42-1.55,0.94-2.37,1.29c-1.94,0.83-3.86,1.69-5.86,2.38
		c-1.97,0.68-4,1.06-6.02,1.49c-2.04,0.44-4.11,0.72-6.17,0.89c-2.01,0.16-4.06,0.25-6.08-0.1c-0.27-0.05-0.55-0.08-0.83-0.07
		c-2.23,0.06-4.39-0.4-6.57-0.76c-2.58-0.43-5.11-1.13-7.55-2.09c-2.38-0.94-4.61-2.12-6.62-3.76c-1.09-0.89-2.2-1.78-3.33-2.63
		c-1.51-1.13-2.71-2.58-4.07-3.86c-2.58-2.41-4.88-5.07-6.67-8.13c-0.74-1.26-1.71-2.39-2.28-3.72c-1.09-2.58-2.26-5.15-2.63-8.14
		c-0.28,0.55-0.09,1-0.22,1.41c-0.5-1.26-0.57-1.94-0.48-3.48c0.02-0.3-0.12-0.61-0.22-0.9c-0.47-1.39-0.7-2.81-0.7-4.28
		c0.01-2.12-0.06-4.24,0.02-6.36c0.13-3.54,0.66-7.02,1.63-10.44c0.78-2.74,1.53-5.48,2.65-8.12c1.24-2.92,2.41-5.87,4.07-8.59
		c0.18-0.3,0.7-0.68,0.17-1.19c-0.07-0.07,0.2-0.54,0.36-0.81c1.95-3.36,4.23-6.5,6.59-9.58c1.58-2.07,3.14-4.16,5.02-5.98
		c0.12-1.08,1.02-1.61,1.62-2.36c1.2-1.48,2.46-2.9,3.79-4.26c2.24-2.29,4.41-4.65,6.7-6.89c1.41-1.38,2.84-2.75,4.15-4.23
		c1.86-2.08,3.91-3.98,5.8-6.03c2.07-2.24,4.04-4.57,6.1-6.81c1.87-2.04,3.71-4.11,5.5-6.22c2.21-2.62,4.26-5.37,6.54-7.92
		c3.11-3.46,5.81-7.24,8.66-10.9c1.78-2.29,3.25-4.79,4.7-7.3c0.93-1.62,1.94-3.19,2.93-4.83c0.88,0.49,1.05,1.41,1.52,2.11
		c1.1,1.62,1.97,3.38,2.77,5.17c0.17,0.39,0.36,0.73,0.84,1.02c0.68,0.41,0.52,1.41,0.67,2.16c1.09,5.24,2.05,10.52,3.65,15.63
		c0.95,3.05,2.19,6.02,3.35,9c0.2,0.51,0.18,0.8-0.15,1.27c-1.5,2.11-3.1,4.15-4.75,6.15c-4.22,5.13-9.15,9.56-13.83,14.23
		c-2.34,2.34-4.87,4.51-7.45,6.6c-0.85,0.69-1.73,1.4-2.48,2.22c-1.45,1.6-3.31,2.68-4.92,4.08c-1.1,0.95-2.26,1.83-3.38,2.76
		c-2,1.67-4.03,3.3-5.96,5.04c-1.35,1.22-2.73,2.4-4.11,3.59c-0.81,0.69-1.68,1.32-2.42,2.09c-0.52,0.54-1.01,1.11-1.55,1.65
		c-4.22,4.21-8.45,8.4-12.63,12.65c-1.18,1.2-2.18,2.54-2.89,4.11c-0.79,1.74-1.86,3.36-2.71,5.08c-1.39,2.79-2.12,5.77-2.57,8.86
		c-0.34,2.36-0.57,4.73-0.44,7.1c0.18,3.53,0.43,7.08,2.17,10.28c1.09,2,2.48,3.81,3.87,5.61c1.77,2.3,3.66,4.53,5.91,6.36
		c1.96,1.59,3.79,3.33,6.16,4.44c1.48,0.7,2.95,1.53,4.49,1.93c2.33,0.6,4.68,1.28,7.15,1.3c3.22,0.03,6.39-0.14,9.52-0.97
		c3.35-0.89,6.65-2,9.45-4.05c3.23-2.38,6.85-4.24,9.82-6.94c2.53-2.31,5.14-4.6,7.08-7.49c0.15-0.23,0.24-0.48,0.44-0.69
		c0.3-0.32,0.54-0.69,0.8-1.04C85.73,357.28,85.84,357.34,85.94,357.41z"/>
	<path class="st0" d="M84.99,71.84c0.31-0.13,0.39,0.19,0.68,0.17c0.12-1.09-0.61-1.89-1.06-2.73c-1.51-2.8-3.82-4.89-6.16-6.98
		c-1.89-1.68-4.06-3.03-5.75-4.96c-1.94-2.21-3.66-4.54-3.98-7.55c-0.17-1.64,0.32-3.24,1.61-4.36c1.46-1.27,3.16-2.04,5.18-1.86
		c1.03,0.09,2,0.38,2.92,0.8c0.68,0.31,1.36,0.63,1.99,1.02c1.32,0.82,2.45,0.17,3.1-1.05c0.88-1.67,0.79-3.48,0.66-5.31
		c-0.32-4.34-2.96-7.5-5.33-10.81c-1.14-1.6-2.5-3.03-3.68-4.61c-0.41-0.56-0.99-1-1.56-1.45c-1.08-0.86-1.81-2.06-2.59-3.19
		c-1.38-1.97-2.17-4.2-2.5-6.52c-0.35-2.42-0.33-4.92,1.13-7.1c0.7-1.05,1.87-1.56,2.83-2.3c2.32-1.81,5.02-2.44,7.94-2.45
		c2.39-0.01,4.77,0.03,7.09,0.55c0.94,0.21,1.9,0.46,2.75,1.11c0.86,0.65,2.03,0.77,3.04,1.2c3.91,1.67,7.58,3.74,11.02,6.26
		c2.09,1.53,4.19,3.06,6.18,4.69c2.56,2.11,4.89,4.54,7.08,7.05c0.8,0.92,1.82,1.67,2.32,2.88c-1.75-0.15-3.44,0.48-5.18,0.79
		c-2.94,0.52-5.59,1.77-8.08,3.35c-2.26,1.43-4.18,3.26-5.77,5.41c-0.81,1.1-1.51,2.29-2.29,3.4c-1.37,1.94-1.92,4.16-2.33,6.45
		c-0.38,2.14-0.79,4.27-0.7,6.45c0.16,4.08,0.89,8.06,2.71,11.72c1.62,3.26,2.49,6.73,3.52,10.16c0.48,1.61,0.97,3.22,1.3,4.86
		c0.38,1.88,0.54,3.81,0.89,5.7c0.22,1.19,0.34,2.38,0.2,3.55c-0.33,2.79-0.97,5.48-3.16,7.51c-0.56,0.52-1.18,0.91-1.85,1.25
		c-2.35,1.19-4.74,2.3-7.05,3.57c-1.34,0.74-2.64,0.85-4.07,0.49c-2.99-0.75-6.01-1.5-8.85-2.7c-2.11-0.89-4.26-1.9-5.98-3.47
		c-1.12-1.03-1.91-2.37-2.28-3.9c-0.48-2-0.51-4,0.17-5.93c0.45-1.29,1.26-2.3,2.36-3.24c1.91-1.62,4.12-2.38,6.41-3.05
		c1.44-0.42,2.7-1.25,4.08-1.81c0.8-0.32,0.89-1.33,1.03-2.14C85.03,72.44,84.99,72.12,84.99,71.84z"/>
	<path class="st0" d="M107.12,118.31c0.69,1.15,1.03,2.35,1.48,3.5c1.66,4.3,3.9,8.27,6.53,12.04c1.52,2.18,3.11,4.32,4.41,6.63
		c1.04,1.85,1.89,3.79,2.24,6c0.58,3.62-0.43,6.82-1.71,10.07c-0.65,1.66-1.62,3.04-2.89,4.25c-0.94,0.9-1.75,1.92-2.52,2.98
		c-0.45,0.62-1.18,0.93-1.69,1.48c-1.25,1.33-2.51,2.68-3.81,3.94c-2.01,1.96-3.59,4.29-5.62,6.22c-2.46,2.34-5.21,4.37-7.45,6.94
		c-2.63,3.03-5.07,6.19-7.02,9.72c-1.99,3.62-3.36,7.48-4.57,11.4c-0.59,1.91-0.89,3.88-1.2,5.85c-0.47,2.94-0.63,5.89-0.76,8.85
		c-0.07,1.42-0.29,2.87-0.14,4.27c0.24,2.23,0.34,4.48,0.62,6.71c0.13,1,0.35,2.02,0.22,3.1c-1.76-3.3-3.7-6.48-6.14-9.34
		c-0.3,0.14-0.41,0.59-0.83,0.22c-2.7-2.39-5.89-2.56-9.23-1.96c-0.78,0.14-1.53,0.42-1.96,1.18c-0.19,0.34-0.54,0.42-0.86,0.54
		c-2.59,1.02-4.78,2.66-6.89,4.44c-1.58,1.33-3.16,2.65-4.59,4.13c-0.12,0.13-0.24,0.35-0.55,0.15c1.73-2.26,3.73-4.33,4.79-7.03
		c-2.71,3.54-5.24,7.22-8.32,10.48c3.21-5.24,6.92-10.14,10.38-15.2c3.49-5.11,6.85-10.31,9.75-15.77c2.88-5.43,6.7-10.33,9.1-16.13
		c-0.43-0.06-0.48,0.15-0.58,0.35c-1.69,3.14-3.33,6.3-5.26,9.31c-1.56,2.44-3.13,4.88-4.58,7.38c-2.54,4.37-5.49,8.48-8,12.85
		c-1.9,3.3-4.14,6.35-6.18,9.54c-0.45-0.31,0.28-0.61-0.14-0.89c-4.05,6.45-7.84,13.08-13.05,18.98c0.36-1.42,1.21-2.37,1.85-3.41
		c2.16-3.5,4.17-7.09,6.15-10.69c1.72-3.12,3.51-6.21,5.3-9.29c1.43-2.46,2.82-4.96,3.83-7.67c0.72-1.93,1.92-3.67,2.93-5.49
		c1.06-1.92,2.2-3.8,3.22-5.74c2.38-4.51,4.88-8.94,7.41-13.37c1.67-2.93,3.22-5.92,4.83-8.89c1.89-3.48,3.65-7.04,5.53-10.53
		c2.58-4.79,5.34-9.49,8.1-14.18c1.73-2.93,3.37-5.92,4.97-8.93c2.72-5.09,5.43-10.19,7.9-15.4c1.99-4.2,3.68-8.54,4.95-13.02
		C107.11,118.71,107.1,118.5,107.12,118.31z"/>
	<path class="st0" d="M46.51,103.67c0.07-1.06,1.17-0.75,1.67-1.31c0.36,0.16,0.71,0.32,1.07,0.48c0.18-0.99-1.2-1.12-1.1-2.07
		c-0.33-0.11-0.72-0.18-1,0.02c-1.91,1.37-3.66,0.45-5.32-0.47c-1.1-0.61-2.01-1.53-2.71-2.61c-0.54-0.84-1.53-0.87-2.34-1.21
		c0-0.37,0.25-0.47,0.49-0.63c0.93-0.62,2.1-0.46,3.06-1.11c0.48-0.32,1.23,0.31,1.88,0.45c1.2,0.24,2.39,0.45,3.62,0.45
		c0.81,0,1.64-0.21,2.4,0.41c0.28,0.22,0.89-0.03,1.33,0.06c2.69,0.54,5.21,1.61,7.38,3.21c1.36,1,2.97,1.99,3.59,3.8
		c0.08,0.24,0.33,0.45,0.55,0.61c1.45,1.08,2.49,2.4,3.19,4.13c0.87,2.17,0.8,4.37,0.77,6.59c-0.01,0.58,0,1.29-0.86,1.4
		c-0.1,1.05-1.62,1.14-1.57,2.36c0.01,0.35-0.4,0.75-0.68,1.07c-2.91,3.29-6.45,5.47-10.85,6.13c-0.54,0.08-1.06,0.33-1.63,0.19
		c-0.32-0.61-0.09-1.08,0.22-1.66c0.44-0.84,0.49-1.76-0.08-2.68c-0.42-0.68-1.01-0.66-1.67-0.69c0.06-0.68,0.54-1.12,0.84-1.63
		c0.57-0.95,0.54-1.83,0.04-2.77c-0.52-0.97-0.9-1.91-0.35-3.07c0.29-0.61-0.06-1.28-0.61-1.89c-1.12-1.23-2.36-1.41-3.87-0.98
		c-0.57,0.16-1.02-0.3-1.48-0.85c1.13-0.05,2.07,0.72,3.1,0.3c-0.04-0.44-0.29-0.57-0.65-0.6c-1.8-0.15-3.56-0.51-5.32-0.94
		c-0.62-0.15-1.17,0.16-1.74,0.27c-1.67,0.34-3.75,0.07-5.25-0.87c-0.23-0.14-0.46-0.19-0.67-0.13c-0.97,0.27-1.99,0.08-2.95,0.28
		c-2.5,0.51-4.74-0.05-6.87-1.32c-1.04-0.62-2-1.28-2.67-2.37c-0.44-0.71-1.43-0.71-2.22-0.9c-0.3-0.07-0.65,0.02-0.84-0.35
		c0.46-0.91,1.55-1.17,2.2-1c1.1,0.28,1.9-0.34,2.85-0.43c1.23-0.12,2.42-0.22,3.64,0.02c1.01,0.2,2.04,0.03,3.06,0.28
		c2.54,0.62,5.14,0.8,7.76,0.8c0.81,0,1.7,0.11,2.55,0.39c1.58,0.52,3.24,0.27,4.86,0.25c0.92-0.01,1.8,0.23,2.71,0.26
		C46.28,103.34,46.31,103.57,46.51,103.67z"/>
	<path class="st0" d="M134.44,42.07c0.38-0.08,0.73-0.16,1.08-0.23c-0.12-0.97,0.48-1.99,1.48-2.29c0.67-0.2,1.36-0.39,2.09-0.31
		c0.96,0.11,2.28-0.81,2.21-1.71c-0.04-0.51,0.6-0.99-0.08-1.52c-0.14,0.37-0.41,0.69-0.88,0.6c-2.17-0.42-3.8,0.85-5.45,1.86
		c-3.74,2.28-7.42,4.66-11.26,6.79c-0.41,0.23-0.74,0.59-1.22,0.69c-0.55-0.86-0.5-1.31,0.25-2.24c1.15-1.42,2.39-2.72,4.22-3.25
		c0.16-0.04,0.25-0.1,0.35-0.25c1.27-1.74,3.09-2.77,4.92-3.8c0.46-0.26,0.8-0.58,1.17-1c0.74-0.86,1.86-1.39,2.82-2.06
		c0.45-0.32,0.4,0.37,0.69,0.38c0.3-0.98-0.73-1.28-0.89-2.03c-2.44,0.41-4.89,0.33-7.26,0.84c-2.83,0.61-5.71,0.97-8.48,1.84
		c-1.34,0.42-2.74,0.49-4.1,0.78c-0.21,0.04-0.39-0.05-0.53-0.36c0.72-0.06,0.82-0.66,1.15-1.17c0.73-1.14,1.99-1.67,3.24-2.04
		c1.05-0.31,2.15-0.44,3.25-0.51c0.27-0.02,0.52-0.03,0.78-0.21c1.5-1.09,3.24-1.4,5.05-1.42c0.47-0.01,0.66-0.41,1.05-0.52
		c1.08-0.32,2.11-0.81,3.25-0.97c0.4-0.06,0.74-0.23,1.03-0.56c-0.2-0.22-0.41-0.17-0.61-0.06c-0.93,0.51-2.05,0.04-2.98,0.6
		c-0.27,0.16-0.49-0.19-0.69-0.37c-0.9-0.83-1.09-1.87-0.84-3.12c1.83-0.59,3.75-1.1,5.63-1.71c0.95-0.31,1.93,0.22,2.85,0.21
		c0.13,0.42-0.17,0.43-0.26,0.59c0.46,0.29,0.7-0.18,1.12-0.3c-0.79-1.32-2.28-0.42-3.2-1.19c0.85-0.83,2.11-0.91,3.21-1.24
		c2.13-0.63,4.32-0.57,6.56-0.36c2.56,0.24,4.88,1.13,7.2,2.03c1.25,0.49,2.56,1.19,3.37,2.27c0.94,1.24,1.59,2.66,1.11,4.41
		c-0.44,1.62-1.01,3.12-2.15,4.37c-0.22,0.25-0.4,0.55-0.89,0.29c-0.37-0.2-0.77,0.14-1,0.43c-1.57,1.93-3.88,2.77-5.91,3.99
		c-1.53,0.93-2.96,2.01-4.49,2.92c-0.48,0.29-0.98,0.37-1.5,0.51c-1.07,0.29-2.16,0.56-3.26,0.42c-0.99-0.13-1.87,0.6-2.85,0.26
		C134.64,42.33,134.51,42.36,134.44,42.07z M130.89,26.24c1.21,1.12,4.03,1.22,5.03,0c0.57-0.69,0.78-1.68,1.11-2.55
		c0.08-0.21-0.14-0.34-0.35-0.39C136.28,26.21,134.25,27.25,130.89,26.24z"/>
	<path class="st0" d="M178.34,260.36c-1.12-5.13-2.17-10.28-3.39-15.39c-1.21-5.07-2-10.25-3.74-15.32
		c-0.21,2.11,1.14,3.8,1.13,5.94c-1.6-2.28-2.59-4.77-4.63-6.67c0.26-3.65,1.05-7.37,1.09-11.19c0.02-2.24,0.28-4.5,0.48-6.74
		c0.13-1.51,0.01-3.03,0.22-4.51c0.26-1.82,0.14-3.65,0.31-5.48c0.47,2.47,0.95,4.94,1.37,7.42c0.59,3.47,1.01,6.98,1.79,10.42
		c0.36,1.6,0.55,3.25,0.83,4.87c0.43,2.51,0.73,5.04,1.13,7.56c0.24,1.5,0.41,3.04,0.58,4.57c0.22,1.94,0.4,3.9,0.82,5.82
		c0.39,1.8,0.56,3.64,0.82,5.47c0.19,1.32,0.37,2.64,0.56,3.97c0.21,1.52,0.37,3.04,0.66,4.54c0.29,1.56,0.2,3.12,0.23,4.68
		C178.51,260.33,178.42,260.35,178.34,260.36z"/>
	<path class="st0" d="M43.61,111.06c1.41-0.94,2.34-0.74,3.32,0.6c0.04,0.05,0.16,0.05,0.21,0.1c0.35,0.35,1.02,0.59,0.84,1.18
		c-0.23,0.76-0.45,1.55-1.29,1.99c-0.73,0.38-1.48,0.75-2.26,0.97c-1.52,0.44-3.11,0.59-4.67,0.32c-1.08-0.18-1.8-0.87-2.16-2.02
		c-0.5-1.57-0.32-2.97,0.77-3.97c0.55-0.5,1.25-0.83,1.92-1.06c0.65-0.22,1.4-0.23,1.94,0.47
		C42.62,110.14,43.12,110.56,43.61,111.06z"/>
	<path class="st0" d="M38.44,119.1c-0.19-0.76,0.42-1.3,0.55-2c0.06-0.3,0.4-0.38,0.69-0.32c0.82,0.17,1.63-0.07,2.44-0.01
		c1.52,0.11,2.9-0.29,4.22-1.05c0.49-0.28,1.11-0.38,1.41,0.31c0.2,0.46,0.92,0.68,0.72,1.29c-0.27,0.83-0.28,1.73-0.93,2.48
		c-1.31,1.52-2.75,2.69-4.82,3.02c-1.47,0.23-3.25-0.52-3.89-1.89C38.59,120.35,38.34,119.77,38.44,119.1z"/>
	<path class="st0" d="M40.91,123.24c1.98,0.7,3.52-0.68,5.28-1c0.2-0.04,0.44-0.27,0.52-0.46c0.37-0.94,1.11-0.85,1.84-0.67
		c0.72,0.18,0.8,0.88,0.9,1.46c0.09,0.54,0,1.03-0.4,1.53c-0.86,1.09-1.73,2.12-3.11,2.57c-1.65,0.54-4.27,0.1-4.72-2.16
		C41.14,124.14,40.75,123.86,40.91,123.24z"/>
	<path class="st0" d="M131.48,18.2c1.64,0.31,3.28,0.83,5,0.89c0.39,0.01,0.73,0.07,0.8,0.52c0.06,0.37-0.14,0.66-0.51,0.67
		c-0.65,0.01-0.31,0.74-0.75,0.93c-1.12,0.49-2.23,1.02-3.49,0.65c-0.36-0.11-0.68-0.13-1.14-0.04c1.06,0.77,2.21,0.3,3.28,0.49
		c-1.36,0.47-2.8,0.58-4.14,1.2c-0.29-0.91-1.26-1.63-0.97-2.38C129.97,20.07,130.25,18.8,131.48,18.2z"/>
</g>
</svg>
