<?xml version="1.0" encoding="utf-8"?>
<!-- Generator: Adobe Illustrator 24.0.2, SVG Export Plug-In . SVG Version: 6.00 Build 0)  -->
<svg version="1.1" id="Layer_1" xmlns="http://www.w3.org/2000/svg" xmlns:xlink="http://www.w3.org/1999/xlink" x="0px" y="0px"
	 viewBox="0 0 791.01 1085.28" style="enable-background:new 0 0 791.01 1085.28;" xml:space="preserve">
<g>
	<g>
		<path d="M392.47,701.59c0.31,18.93-4.88,36.86-10.43,54.68c-1.51,4.83-1.35,9.85-1.57,14.6c-0.34,7.13-2.02,13.65-4.95,19.83
			c-6.57,13.84-13.21,27.68-20.53,41.12c-8.04,14.76-17.6,28.62-26.99,42.56c-9.85,14.62-19.77,29.22-27.3,45.23
			c-4.8,10.21-8.75,20.75-10.47,31.93c-1.84,12.02-1.72,24.23-0.89,36.27c0.99,14.48,2.76,28.95,6.64,43.07
			c0.5,1.81,1.08,3.08,2.62,3.59c9.59,3.18,14.66,18.03,11.86,26.5c-0.44,1.32-0.47,2.67-0.27,3.94
			c1.42,9.07-7.35,16.34-16.53,16.85c-13.03,0.72-26.07,1.35-39.09,2.16c-6.41,0.39-12.99,1.43-19.32,1.36
			c-11.01-0.11-22.23-0.34-32.63-5.41c-8.42-4.11-11.54-11.21-12.41-19.73c-0.98-9.57,2.12-18.57,5.48-27.21
			c3.56-9.14,6.86-18.26,8.36-27.97c0.42-2.7-0.82-5.14-1.62-7.6c-2.71-8.31-4.86-16.68-4.29-25.54
			c0.62-9.62,3.37-18.39,10.58-25.13c7.76-7.25,12.21-16.44,16.57-25.87c4.71-10.17,7.49-20.87,9.47-31.73
			c1.14-6.24,1.89-12.64,2.53-19.01c0.73-7.31,1.59-14.63,2.69-21.92c1.49-9.86,3.49-19.54,5.97-29.2
			c2.4-9.35,5.74-18.34,9.33-27.23c5.37-13.3,10.06-27.02,17.32-39.34c4.51-7.65,4.29-14.59,2.27-22.22
			c-4.23-16-6.41-32.2-5.82-48.78c0.09-2.43,1.94-4.61,0.78-7.21c-6.69,4.55-12.15,10.5-18.66,15.25
			c-11.8,8.6-24.79,14.48-38.75,18.08c-14.25,3.67-28.92,5.24-43.61,4.1c-15.8-1.23-31.36-4.24-46.69-8.37
			c-11.03-2.97-21.93-6.25-32.09-11.58c-3.91-2.05-7.68-4.38-10.9-7.48c-2.69-2.59-5.86-4.18-9.38-5.57
			c-7.93-3.13-15.81-6.55-21.53-13.35c-0.42-0.5-0.98-0.91-0.93-1.81c1.02-1.99,2.35-1.91,4.4-0.99c3.99,1.8,8.12,3.4,13.72,3.18
			c-12.13-5.92-21.99-13.25-30.38-22.55c-10.08-11.17-17.75-23.87-23.76-37.57c-3.2-7.3-5.58-14.94-7.48-22.69
			c-1.12-4.59-2.37-9.29-2.45-13.95c-0.1-6.47-1.92-12.82-1.14-19.29c1.23-10.23,1.93-20.49,4.25-30.61
			c5.22-22.75,13.88-44.15,24.91-64.58c8.85-16.38,18.9-32.07,30.42-46.75c8.11-10.34,16.41-20.51,25.18-30.32
			c8.91-9.97,17.78-19.96,26.82-29.81c11.07-12.05,22.02-24.2,33.17-36.19c6.63-7.13,12.28-15.33,19.86-21.4
			c7.65-6.12,9.51-14.35,11.34-22.94c1.02-4.77,3.38-9.24,3.41-14.38c1.94,2.95,2.31,6.34,2.58,9.71c0.55,7.03,1.47,14,2.77,20.93
			c0.58,3.07,0.66,6.2,1.06,9.28c2.5,19.1,3.15,38.39,1.99,57.56c-1.37,22.67-4.55,45.16-12.7,66.66
			c-4.52,11.93-9.71,23.52-15.5,34.87c-0.57,1.12-1.1,2.27-1.8,3.71c3.42-0.69,3.16-4.1,5.94-6.17c-1.27,3.77-2.28,6.66-3.23,9.57
			c-4.73,14.57-9.58,29.23-11.25,44.43c-1.89,17.18-0.99,34.34,8.41,49.85c6.3,10.4,15.46,17.37,26.61,21.62
			c7.77,2.97,15.9,4.42,24.29,5.37c12.09,1.37,22.83-2.34,33.77-6.02c6.86-2.31,12.86-6.29,19.06-9.91
			c4.25-2.48,7.26-6.17,10.13-9.8c1.81-2.29,4.05-4.22,5.66-6.76c1.78-2.81,1.28-4.17-1.22-5.82c-1.88-1.24-3.95-2.14-5.66-2.85
			c-0.57-2.25,1.15-2.57,2.12-4.14c-3.28,0-6.26,0-9.71,0c1.37-3.77,4.77-3.6,6.99-5.5c-3.24-3.28-9.39-3.48-10.32-9.61
			c3.74-2.16,8.45,0.47,12.53-1.85c-18.52-8.96-22.08-31.17-18.47-44.72c2.01-0.66,2.67,0.59,3.75,2.08
			c3.63,5.02,7.05,10.12,12.25,13.98c6.79,5.04,14.01,4.9,21.38,3.12c3.32-0.8,7.18-0.97,9.91-3.66
			c-5.3-9.41-13.93-15.25-21.85-21.79c-6.33-5.22-12.84-10.23-18.97-15.68c-3.45-3.07-5.76-7.33-6.72-11.77
			c-0.58-2.71-2.03-3.89-3.97-4.35c-3.6-0.85-5.2-3.38-6.14-6.39c-0.82-2.62-1.93-5.15-2.27-7.98c-0.65-5.32-4.28-9.42-6.55-14.09
			c-6.38-13.11-10.83-26.69-10.26-41.48c0.35-8.89,2.6-17.39,5.77-25.67c7.29-19.05,16.1-37.43,24.3-56.08
			c1.84-4.19,3.84-8.3,5.87-12.39c2.64-5.3,2.73-11.32,4.85-16.83c5.82-15.16,15.27-25.84,31.88-29.42
			c6.59-1.42,12.83-4.42,19.64-6.85c-2.94-5.21-6.16-9.44-10.06-13.24c1.6-3.51,4.02-0.15,6.35-1.05c-6.76-9.28-9.06-20-10.84-30.73
			c3.21-2.24,5.22,0.78,8.13,1.09c-4.9-6.55-8.53-13.05-10.32-20.64c-1.97-8.36-1.61-16.61-0.3-24.9c1.4-8.86,3.21-17.65,4.68-26.5
			c1.76-10.63,3.38-21.29,4.98-31.95c0.22-1.45,0.54-2.57,2.09-2.95c1.6-0.39,1.73,1.02,2.44,1.86c2.34,2.77,3.68,6.16,5.8,9.08
			c1.77,2.45,3.8,4.5,5.99,6.7c1.38-2.01,0.37-3.24-0.71-4.73c-3.36-4.65-4.63-9.97-4.6-15.68c0.05-12.16-0.12-24.33,0.1-36.49
			c0.07-4.02-1.64-7.79-1.09-11.8c0.18-1.27-0.38-2.76,2.07-3.81c4.9,9.43,11.5,17.7,22.78,21.94c-0.06-9.85-3.74-19.43-0.83-29.37
			c5.16,2.04,8.39,5.92,12.46,8.55c9.8,6.34,20.47,8.98,31.94,9.8c5.77,0.41,11.51,0.92,17.31,0.94c2,0.01,3.39-0.61,4.78-2.02
			c6.74-6.79,14.33-12.6,21.64-18.73c6.46-5.42,8.26-3.36,10.6,3.29c1.86,5.29,2.69,10.83,2.17,16.82c5.7,1.58,11.6,2.19,16.96,5.45
			c-0.02-3.32-4.98-2.72-3.44-6.79c19.51,1.21,32.55,10.77,38.08,30.19c8.52-4.55,16.98-7.92,25.79-10.43
			c1.47-0.42,2.71-1.36,4.02,0.07c1.12,1.22,0.24,2.34-0.05,3.63c-4.19,18.65-12.5,35.26-24.4,50.14c-0.8,1-1.29,2.23-1.85,3.22
			c0.75,2.33,2.91,2.8,4.48,4.09c-2.48,4.5-3.49,9.39-4.52,14.42c5.43-0.9,6.13-0.41,5.98,4.66c-0.18,6.29-2.56,11.75-6.77,16.48
			c4.11,3.77,9.16,6.19,13.68,9.38c3.02,2.13,5.76,4.63,7.8,7.57c4.49,6.48,2.71,14.55-1.96,20.06
			c-4.77,5.63-9.87,11.15-17.28,13.68c-3.33,1.14-5.48,3.7-7.51,6.6c-3,4.28-6.24,8.65-12.16,9.1c-2.65,0.2-5.33,0.02-8,0.05
			c-1.14,0.02-2.32-0.22-4,0.63c8.17,9.43,12.93,20.24,13.38,32.96c5.41,2.13,10.86,4.18,16.24,6.41
			c8.82,3.66,16.93,8.36,24.1,14.84c5.89,5.32,10.62,11.42,14.88,18.01c1.71,2.64,2.3,5.75,4.01,8.72
			c6.09-9.87,15.44-15.72,24.98-21.36c5.79-3.42,11.77-6.77,13.08-14.22c1.52-8.66,1.13-18.4-7.94-23.97
			c-1.98-1.21-4.04-2.05-6.42-2.05c-1.28,0-2.73,0.37-3.75-1.5c5.4-0.77,8.67-5.53,14.01-6.74c3.28-0.74,6.61-1.99,9.89-2.53
			c5.56-0.92,11.2-0.41,15.93,4.25c0.76-4.35-4.88-5.15-3.97-9.18c2.81-0.64,4.92,1.08,7.6,2.26c-0.11-6.16,1.41-12,1.25-18.08
			c-0.31-11.38-7.53-19.09-18.75-20.57c-8.26-1.09-8.44-0.57-10.35-7.13c1.45-1,4.03-1.29,3.89-4.3
			c-6.39-0.97-7.71-6.95-10.87-11.56c3.36-4.79,8.09-7.94,14.19-10.35c-3.77-1.1-5.82-0.09-8.25,1.78
			c-4.8,3.69-8.94,7.67-11.27,13.37c-0.69,1.69-1.32,4.03-4.64,2.85c0.37-6.27,3.1-11.72,7.77-15.6
			c6.77-5.61,14.47-10.11,21.24-15.72c2.97-2.46,4.9-6.35,6.81-9.86c2.81-5.16,4.93-10.7,8.26-15.57c1.56-2.28,3.31-4.57,6.76-5.28
			c-3.09-1.13-3.87-3.66-4.64-6.12c-0.52-1.67-0.35-3.26,1.41-4.32c1.64-0.98,3.09-0.55,4.43,0.49c3.57,2.78,6.01,6.59,8.9,9.97
			c3.29,3.84,6.06,8.12,9.29,12.01c2.11,2.54,2.69,4.81,0.39,7.45c-0.63,0.73,0.14,1.13,0.93,1.8c4.82-5.95,11.41-9.8,17.54-14.16
			c3.39-2.41,7.58-3.88,11.53-5.27c2.94-1.04,3.87-2.76,4.35-5.19c2.58-12.98,11.02-22.15,20.27-30.63
			c1.78-1.63,2.94-2.75,2.78-5.11c-0.11-1.65-0.32-3.53,1.64-4.29c2.12-0.82,2.07,2.05,2.72,2.19c4.82,1.03,5.19,5.21,6.68,8.63
			c1.16,2.67,1.97,5.41,3.96,7.8c2.2,2.64,1.18,5.9-0.26,8.81c-1.43,2.89-4.48,5.07-4.6,8.46c-0.11,3.17-1.33,6.05-1.33,9.66
			c-1.45-2.13-0.34-4.07-1.26-6.16c-2.04,4.49-2.25,9.12-3.51,13.45c-0.72,2.49-0.85,5.16-1.34,7.72c-1.06,5.43,0.2,7.13,5.45,7.28
			c1.47,0.04,2.89-0.11,4.34,0.73c1.09,0.64,2.59,0.35,3.9,0.05c0.29-0.87-1.01-1.88,0.57-2.81c4.99,4.34,11.77,4.26,18.12,5.92
			c-0.55,2.56-1.85,4.25-2.41,6.26c-0.87,3.11-4.81,3.78-7.13,5.9c-1.31,1.19-3.04,1.91-4.52,2.94c-3.13,2.18-2.89,4.14,0.49,6.21
			c3.85,2.36,8.33,2.75,12.46,4.23c6.93,2.49,7.88,5.74,2.95,11.07c-1.47,1.59-2.46,2.84-1.21,5.15c0.64,1.19,0.29,2.92,0.41,4.78
			c4.16,2.13,8.56,4.37,11.06,8.92c0.56,1.02,1.82,0.43,2.73,0.65c2.15,0.53,4.56,0.54,6,2.62c-0.17,1.47-1.17,1.86-2.23,2.46
			c-8,4.45-16.43,4.69-25.22,3.21c-5.25-0.88-10.63-0.28-15.95-0.24c-2.23,0.01-2.46,1.71-2.55,3.53c-0.14,2.95-0.15,5.92-0.28,8.85
			c-0.1,2.16-0.67,3.85-1.73,5.31c-2.2,3.07-4.22,6.23-5.8,9.62c-2.56,5.5-8.1,6.44-12.79,8.3c-5.68,2.26-10.89,5.13-16.14,9.03
			c11.97,3.5,21.35,9.5,23.88,22.35c-1.84,1.9-3.07-0.18-4.39,0.11c-0.7,0.57-0.03,0.97,0.2,1.12c3,1.92,6.14,3.56,7.38,7.36
			c0.8,2.46,1.31,4.69-0.43,6.96c-14.82-4.96-29.15-3.23-42.98,3.03c-8.64,3.91-16.12,9.85-21.92,17.23
			c-3.31,4.21-4.95,9.86-6.85,15.04c-4.62,12.58-9.83,24.86-17.17,36.12c-3.94,6.05-8.99,11.27-13.47,16.92
			c-2.65,3.34-4.87,6.99-7.94,10.02c-3.81,3.75-8.27,5.48-13.56,6.07c-4.97,0.55-10.11,0.71-14.57,3.7c-2.82,1.89-5.93,1.73-8.87,0
			c-1.41-0.83-2.74-1.79-4.11-2.69c-10.4-6.91-22.13-10.82-33.94-15.26c-1.33,5.09,4.41,4.21,5.36,7.52
			c-2.12,0.89-4.56,1.37-7.11,1.86c0.73,2.02,4.1,1.35,4.08,4.51c-3.01,0-6.06,0-10.09,0c3.29,3.6,5.54,6.77,7.49,10.09
			c1.92,3.28,3.79,6.79,1.85,11.19c-2.36-1.49-2.84-3.99-5.58-5.97c1.84,4.46,1.4,8.31,1.55,12.13c0.11,2.7-1.06,5.12-1.45,7.7
			c-0.09,0.61-0.41,1.46-0.88,1.7c-5.78,2.96-5.85,10.02-10.35,14.14c-2.83,2.59-5.25,5.98-8.22,8.52
			c-8.17,6.98-12.14,16.55-16.58,25.83c-1.33,2.79-0.98,6.13-1.36,9.18c-0.64,5.06-0.17,10.26-0.17,15.99
			c5.59-2.92,9.5-6.89,13.62-12.03c0.24,6.8-2.97,11.42-5.45,16.3c14.43-10.97,25.85-24.59,35.94-39.3c2.67,1.26,2.1,3.41,1.79,4.95
			c-3.26,15.94-4.92,32.29-11.03,47.52c-3.79,9.45-8.17,18.72-16.46,25.22c0.1,1.3,2.51,1.46,1.07,3.15
			c-1.91,2.24-0.82,4.28,0.37,6.61c7.56,14.85,16.6,28.92,23.49,44.12c8.07,17.83,14.57,36.2,19.72,55.1
			c3.78,13.87,6.27,27.97,8.77,42.08c1.2,6.77,1.47,13.71,2.16,20.57c0.68,6.7,1.29,13.4,2.09,20.08c0.15,1.23,1.03,2.38,1.56,3.57
			c4.71,10.59,11.17,20.36,14.7,31.51c2.88,9.11,2.03,18.33,0.99,27.56c-0.73,6.47-0.98,13.07-0.05,19.39
			c0.72,4.88,1.17,9.87,1.41,14.65c0.51,10.58,2.44,21.2,1.18,31.77c-1.33,11.12-1.07,22.31-2.61,33.45
			c-1.28,9.23-2.46,18.53-3.46,27.83c-0.66,6.13-1.09,12.37-2.69,18.41c-0.33,1.24-0.34,2.63,0.22,3.92
			c2.04,4.7,2.38,9.55,0.94,14.43c-0.41,1.4,0.51,2.17,0.74,3.23c2.36,11.19,5.69,22.06,10.87,32.31c1.49,2.94,3.31,5.39,5.81,7.61
			c4.68,4.17,8.21,9.41,12.15,14.26c4.64,5.71,8.83,11.8,13.69,17.32c4.45,5.05,9.68,9.28,16.28,11.48
			c2.98,0.99,5.83,0.93,8.57-0.56c9.25-5.02,18.32-0.4,21.77,9.48c3.08,8.81,2.93,17.8,2.77,26.85c-0.05,2.7-1.49,3.89-4.45,3.94
			c-2.27,0.04-4.38-0.67-6.65-0.63c-4.49,0.07-8.15,1.13-11.7,4.28c-2.85,2.52-7.04,3.27-11.07,3.24c-4-0.03-8.01,0.17-12-0.04
			c-12.47-0.65-24.84,1.52-37.3,1.08c-2.79-0.1-5.35,1.46-8.07,1.86c-8.14,1.21-16.31,2.72-24.57,2.01
			c-6.13-0.52-12.34-0.89-18.07-3.85c-4.96-2.57-8.39-6.26-10.03-11.54c-2.56-8.25-2.71-16.78-3.1-25.32
			c-0.69-14.95-3.35-29.56-10.35-43c-2.85-5.48-6.5-10.46-8.78-16.34c-2.42-6.25-2.12-12.11-0.08-18.19
			c1.6-4.79,2.92-9.65,5.07-14.26c3.05-6.54,2.34-13.28,0.92-20.2c-3.62-17.63-10.78-33.75-19.63-49.3
			c-4.03-7.08-8.27-14.08-11.09-21.81c-2.03-5.55-3.33-11.22-3.99-17.08c-2.09-18.65-2.04-37.37-2.04-56.09
			c0-4.1-0.77-8.19-1.16-12.28c-0.35-3.76-4.2-5.88-6.94-8.07c-11.08-8.84-20.24-19.4-27.69-31.31
			C402.71,724.44,397.63,713.09,392.47,701.59z M583.36,146.6c1.42,4.14,8.07,8.84,13.56,9.18c7.46,0.47,13.74,3.63,19.27,8.55
			c6.12,5.45,12.38,10.69,19.77,14.46c4.08,2.08,7.37,1.88,10.96-1.23c4.93-4.27,10.29-8.03,16.26-10.86
			c2.76-1.31,5.69-1.73,7.9,0.19c2.48,2.16,4.87,1.89,7.16,0.71c2.25-1.16,3.7-0.82,5.17,0.97c1.62,1.96,3.29,2.32,6.04,1.67
			c6.36-1.51,12.92-2.25,19.49-2.46c4.68-0.14,9.21,1.37,14.03,1.64c0.04-1.38,0.56-2.76-0.38-3.54c-4-3.31-2.67-6.92-0.82-10.63
			c-1.3-0.68-2.57-1.24-4.07-1.58c-4.11-0.91-8.19-1.88-11.42-5.12c-4.11-4.12-4.27-10.74,1.32-12.97c1.05-0.42,1.78-1.38,2.8-1.97
			c2.2-1.26,1.99-4.75-0.2-6.28c-4.58-3.2-9.97-3.86-15.27-4.49c-4.73-0.56-6.59-2.26-6.85-7.11c-0.2-3.7,1.24-7.06,1.98-10.56
			c1.25-5.9,1.93-12.11,3.68-17.66c1.77-5.6,0.46-10.27-0.99-14.79c-1.1-3.43-2.43-6.84-2.84-10.37c-3.93-0.48-5.32,2.23-6.83,4.62
			c-5.52,8.76-12.78,16.56-14.38,27.46c-0.4,2.74-2.81,5.25-5.39,6.14c-7.99,2.74-15.07,6.93-21.44,12.33
			c-2.19,1.85-5.11,2.89-6.36,5.92c-2.11,5.12-2.96,5.12-6.86,1.09c-1.08-1.12-1.87-2.41-2.36-3.72c-0.6-1.62-2.33-3.85-2.62-3.84
			c-3.77,0.14-3.17-2.95-4.04-5.35c-0.47,2.62-1.77,2.57-3.26,1.45c-2.3-1.74-2.53-4.06-0.71-6.36c-0.8-1.02-1.43-2.27-2.08-2.24
			c-5.82,2.97-7.48,8.09-9.89,12.75c-3.81,7.38-5.44,15.67-9.81,22.82C591.22,139.75,587.51,142.86,583.36,146.6z M503.03,119.43
			c-6.81,2.22-9.3,7.94-7.03,16.53C502.38,132.01,503.44,126.09,503.03,119.43z"/>
	</g>
</g>
</svg>
