<?xml version="1.0" encoding="utf-8"?>
<!-- Generator: Adobe Illustrator 24.1.1, SVG Export Plug-In . SVG Version: 6.00 Build 0)  -->
<svg version="1.1" xmlns="http://www.w3.org/2000/svg" xmlns:xlink="http://www.w3.org/1999/xlink" x="0px" y="0px"
	 viewBox="0 0 1654.77 600" style="enable-background:new 0 0 1654.77 600;" xml:space="preserve">
<style type="text/css">
	.st0{display:none;}
	.st1{display:inline;fill:#444B57;}
	.st2{display:inline;opacity:0.48;}
	.st3{fill:#FFFFFF;}
	.st4{font-family:'Quicksand-Bold';}
	.st5{font-size:22.186px;}
	.st6{fill:#29ABE0;}
	.st7{fill:#FF5E5B;}
</style>
<g id="Background-Exp" class="st0">
	<rect x="0" y="0.34" class="st1" width="1654.77" height="600"/>
	<g class="st2">
		<text transform="matrix(1 0 0 1 1441.1548 34.5146)" class="st3 st4 st5">Color Background</text>
	</g>
</g>
<g id="Layer_1">
	<circle class="st6" cx="300" cy="300" r="300"/>
	<g id="layer1_8_" transform="translate(-37.579964,-135.49927)">
		<g id="g40_8_" transform="matrix(1.1421528,0,0,-1.1421528,265.93398,460.73095)">
			<g id="g4184_8_">
				<path id="path38_8_" class="st3" d="M199.05-4.01c-15.41-1.93-27.94-0.48-27.94-0.48v94.38h18.97
					c12.53,0,24.63-5.22,32.81-14.72c5.76-6.69,10.36-16.1,10.36-29.1C233.24,14.29,216.87,1.77,199.05-4.01 M280.24,62.25
					c-5.53,29.22-21.26,47.42-37.38,58.68c-16.67,11.64-36.64,17.62-56.97,17.62h-288.57c-10.04,0-13.88-9.8-13.92-14.71
					c0-0.64,0.02-3.2,0.02-3.2s-0.47-127.67,0.42-195.85c2.72-40.26,43.06-40.24,43.06-40.24s131.68,0.39,194.84,0.78
					c2.96,0.02,5.92,0.34,8.79,1.06c35.96,9,39.68,42.4,39.29,61.02C242.09-56.62,293.08-5.62,280.24,62.25"/>
				<path id="path42_10_" class="st7" d="M24.74-62.51c3.14-1.58,5.14,0.38,5.14,0.38S75.81-20.21,96.51,3.93
					c18.4,21.6,19.6,57.99-12,71.59c-31.6,13.6-57.61-16-57.61-16c-22.55,24.8-56.68,23.54-72.46,6.76
					c-15.78-16.78-10.27-45.59,1.5-61.62c11.05-15.05,59.64-58.35,67-65.68C22.94-61.02,23.48-61.58,24.74-62.51"/>
			</g>
		</g>
	</g>
	<g>
		<g>
			<path class="st3" d="M945.68,421.3c1.13,3.25,1.7,6.29,1.7,9.11c0,7.63-2.9,13.98-8.69,19.07c-5.79,5.08-12.5,7.63-20.13,7.63
				c-3.67,0-7.2-0.85-10.59-2.54c-3.39-1.7-6.22-4.09-8.47-7.2l-91.94-121.17l-40.25,38.56v66.52c0,7.63-2.48,13.84-7.41,18.64
				c-4.95,4.81-11.37,7.2-19.28,7.2c-7.63,0-13.92-2.47-18.85-7.41c-4.95-4.94-7.42-11.08-7.42-18.43V186.37
				c0-7.34,2.54-13.48,7.63-18.43c5.08-4.94,11.58-7.42,19.49-7.42c7.63,0,13.84,2.4,18.64,7.2c4.8,4.81,7.2,11.02,7.2,18.64v115.24
				l135.58-133.46c6.49-6.5,13.41-9.75,20.76-9.75c6.49,0,12,2.69,16.52,8.05c4.51,5.37,6.78,11.02,6.78,16.95
				c0,5.93-2.54,11.44-7.63,16.52l-92.36,88.13l94.48,124.99C943.14,415.3,944.55,418.06,945.68,421.3z"/>
			<path class="st3" d="M1190.14,404.78c-10.17,17.94-24.08,31.85-41.73,41.73c-17.66,9.89-37.07,14.83-58.26,14.83
				c-21.47,0-40.96-4.94-58.47-14.83c-17.52-9.88-31.35-23.79-41.52-41.73c-10.17-17.93-15.25-38.2-15.25-60.8
				c0-22.59,5.08-42.86,15.25-60.8c10.17-17.93,24-31.92,41.52-41.94c17.51-10.02,37-15.04,58.47-15.04
				c21.18,0,40.6,5.02,58.26,15.04c17.65,10.03,31.56,24.01,41.73,41.94c10.17,17.94,15.25,38.21,15.25,60.8
				C1205.4,366.58,1200.31,386.84,1190.14,404.78z M1145.87,306.9c-5.79-10.87-13.56-19.28-23.3-25.21
				c-9.75-5.93-20.55-8.9-32.41-8.9s-22.67,2.97-32.41,8.9c-9.75,5.93-17.52,14.34-23.3,25.21c-5.79,10.88-8.69,23.24-8.69,37.07
				c0,13.84,2.89,26.13,8.69,36.86c5.79,10.74,13.56,19.07,23.3,25c9.74,5.93,20.55,8.9,32.41,8.9s22.67-2.97,32.41-8.9
				c9.74-5.93,17.51-14.26,23.3-25c5.79-10.73,8.69-23.02,8.69-36.86C1154.56,330.14,1151.66,317.78,1145.87,306.9z"/>
			<path class="st3" d="M1248.82,345.25c-4.95-4.8-7.41-10.87-7.41-18.22c0-7.06,2.47-12.99,7.41-17.79
				c4.94-4.8,11.08-7.2,18.43-7.2h73.72c7.34,0,13.49,2.48,18.43,7.41c4.94,4.95,7.42,11.09,7.42,18.43
				c0,7.06-2.48,12.92-7.42,17.58c-4.94,4.66-11.09,6.99-18.43,6.99h-73.72C1259.91,352.45,1253.76,350.05,1248.82,345.25z"/>
			<path class="st3" d="M1504.09,196.75c-3.96,5.51-5.93,11.51-5.93,18.01v19.91h38.56c6.78,0,12.43,2.19,16.95,6.57
				c4.52,4.38,6.78,9.96,6.78,16.74c0,6.78-2.26,12.36-6.78,16.74c-4.52,4.38-10.17,6.57-16.95,6.57h-38.56v149.99
				c0,7.35-2.4,13.49-7.2,18.43c-4.81,4.94-10.88,7.41-18.22,7.41c-7.35,0-13.42-2.47-18.22-7.41c-4.81-4.94-7.2-11.08-7.2-18.43
				V281.27h-22.88c-6.78,0-12.43-2.18-16.95-6.57c-4.52-4.38-6.78-9.96-6.78-16.74c0-6.78,2.26-12.35,6.78-16.74
				c4.52-4.38,10.17-6.57,16.95-6.57h22.88v-19.49c0-21.18,7.27-38.41,21.82-51.69c14.54-13.27,35.52-19.91,62.92-19.91
				c10.45,0,19.56,2.12,27.33,6.36c7.77,4.24,11.65,10.74,11.65,19.49c0,6.78-1.98,12.29-5.93,16.52
				c-3.96,4.24-8.76,6.35-14.41,6.35c-1.42,0-2.9-0.14-4.45-0.42c-1.56-0.28-3.18-0.56-4.87-0.85c-6.78-1.7-12.43-2.54-16.95-2.54
				C1514.83,188.48,1508.05,191.24,1504.09,196.75z M1593.92,198.23c-3.96-3.1-5.93-8.61-5.93-16.52v-8.05
				c0-7.9,2.12-13.41,6.36-16.52c4.24-3.1,11.02-4.66,20.34-4.66c9.88,0,16.8,1.56,20.76,4.66c3.95,3.11,5.93,8.62,5.93,16.52v8.05
				c0,8.2-2.05,13.77-6.14,16.74c-4.1,2.97-11.09,4.45-20.97,4.45C1604.65,202.89,1597.87,201.34,1593.92,198.23z M1632.89,449.69
				c-4.81,4.94-10.88,7.41-18.22,7.41c-7.35,0-13.42-2.47-18.22-7.41c-4.81-4.94-7.2-11.08-7.2-18.43V256.27
				c0-7.34,2.4-13.49,7.2-18.43c4.8-4.94,10.87-7.42,18.22-7.42c7.34,0,13.41,2.48,18.22,7.42c4.8,4.95,7.2,11.09,7.2,18.43v174.98
				C1640.1,438.61,1637.69,444.75,1632.89,449.69z"/>
		</g>
	</g>
</g>
</svg>
