<?xml version="1.0" encoding="utf-8"?>
<!-- Generator: Adobe Illustrator 23.1.0, SVG Export Plug-In . SVG Version: 6.00 Build 0)  -->
<svg version="1.1" id="Layer_1" xmlns="http://www.w3.org/2000/svg" xmlns:xlink="http://www.w3.org/1999/xlink" x="0px" y="0px"
	 viewBox="0 0 2609.35 1831.29" style="enable-background:new 0 0 2609.35 1831.29;" xml:space="preserve">
<g>
	<path d="M392.59,1761.02c-4.04-3.51-8.36-5.28-13.71-4.91c-4.31,0.3-8.37-1.21-12.14-3.74c-2.68-1.8-5.86-3.38-9-3.87
		c-28.64-4.48-56.16-13.26-83.82-21.5c-4.12-1.23-8.4-1.96-12.63-2.77c-13.58-2.57-23.06-10.27-30.24-22.03
		c-7.87-12.9-13.07-26.79-18.36-40.8c-4.08-10.8-11.23-20.16-16.62-30.39c-2.59-4.92-7.88-8.66-14.62-9.13
		c-8.92-0.63-17.76-2.43-26.68-2.99c-21-1.32-41.21-6.83-61.63-11.19c-3.97-0.85-7.94-3.53-11.02-6.34
		c-4.45-4.06-9-7.78-14.23-10.81c-13.37-7.76-22.4-19.63-29.92-32.78c-5.61-9.81-11.43-19.51-16.5-29.6
		c-3.71-7.38-6.42-15.28-9.43-23c-2.77-7.1-5.69-14.17-7.93-21.45c-1.84-5.99-3.27-12.2-4.01-18.42c-0.86-7.3,3.23-12.57,9.1-17.37
		c1.87,1.44,3.6,2.83,5.4,4.12c1.32,0.95,2.68,2.36,4.13,2.53c7.57,0.85,13.34,1.15,12.57-9.79c-0.07-1,0.23-2.09-0.08-2.98
		c-2.52-7.33-0.49-14.51,0.78-21.64c3.62-20.25,12.56-37.65,28.5-51.65c3.97,1.71,6.84,4.16,7.43,8.51
		c0.8,5.9,1.58,11.83,1.97,17.77c0.52,7.81,1.78,9.24,9.52,9.45c1,0.03,2.06,0.22,2.99-0.03c9.25-2.46,18.4-1,27.57,0.56
		c1.95,0.33,3.99,0.19,5.99,0.12c5.96-0.21,6.7-0.57,8.46-6.35c2.91-9.57,5.73-19.17,12.06-27.18c2.42-3.07,5.16-5.88,7.62-8.65
		c5.95,3.29,7.72,7.85,7.94,13.66c0.23,6.29,1.12,12.56,1.96,18.81c0.66,4.92,2.03,6.33,6.78,7.14c2.61,0.45,5.31,0.62,7.95,0.54
		c5.21-0.15,7.47-1.38,8.49-6.64c1.57-8.07,7.38-12.19,12.86-16.73c5.49,3.05,7.85,7.34,7.93,13.22c0.05,3.62,0.94,7.22,1.35,10.84
		c0.68,5.99,3.9,9.51,9.74,11.17c11.8,3.36,21.74,9.88,30.03,18.87c7.01,7.6,13.59,15.56,16.43,25.78c1.24,4.45,3.49,6.77,8.31,6.99
		c3.24,0.15,6.41,1.48,9.65,1.99c2.61,0.41,5.3,0.41,7.95,0.55c3.67,0.2,6.37-0.97,7.81-4.74c0.79-2.07,2.37-3.84,3.91-6.24
		c2.12,0.82,3.85,1.48,5.58,2.16c13.22,5.17,24.66-0.32,35.86-6.29c11.44-6.09,22.56-12.77,33.98-18.9
		c14.36-7.71,28.63-15.66,43.4-22.51c16.85-7.82,34.2-14.54,51.34-21.74c3.37-1.41,6.69-2.94,10.13-4.16
		c5.49-1.96,8.07-6,10.16-11.31c8.25-20.95,22.73-36.31,42.82-46.31c1.21,0.83,2.24,1.22,2.81,1.97c5.74,7.52,13.26,6.17,20.84,4.19
		c5.13-1.34,10.11-3.28,15.29-4.33c4.98-1.01,10.07-1.05,13.75,4.75c-3.19,2.98-5.89,6.43-5.29,11.55c0.45,3.84,2.12,6.24,5.61,7.37
		c2.84,0.92,5.81,1.46,8.68,2.31c5.88,1.76,11.04,4.57,14.5,10.47c-2.21,4.27-5.75,6.73-10.47,7.97c-2.87,0.75-5.56,2.19-8.39,3.12
		c-3.77,1.25-6.52,3.09-6.53,7.64c-0.01,4.46-0.2,8.76,5.13,10.68c1.52,0.55,2.89,1.68,4.13,2.77c4.59,4.06,9.8,3.53,15.01,1.92
		c2.52-0.77,4.81-2.27,7.2-3.44c28.11-13.73,56.14-27.61,84.37-41.08c6.78-3.23,13.58-6.81,21.66-6.75
		c2.97,0.02,5.85-2.87,8.97-3.59c6.78-1.57,13.67-2.73,20.55-3.81c8.11-1.28,16.42-0.82,24.33-4.12c3.1-1.29,7.23-0.31,10.87-0.05
		c6.28,0.46,12.54,1.19,18.81,1.78c0.99,0.09,2.02-0.1,2.99,0.07c3.75,0.67,6.91-3.21,11.3-0.59c2.83,1.69,7.13,0.89,10.77,1.24
		c3.96,0.38,7.9,0.88,11.86,1.17c10.27,0.77,20.54,1.4,30.8,2.19c7.6,0.58,15.19,1.31,22.78,1.98c4.53,0.4,8.1-1.31,11.91-3.89
		c11.55-7.83,19.13-19.37,28.5-29.22c7.64-8.03,13.18-17.41,18.08-27.23c3.29-6.6,2.53-13.25,0.25-21.22
		c-3.41,4.05-6.22,7.11-8.7,10.42c-2.83,3.79-6.16,6.55-10.46,8.83c-5.82,3.09-10.82,7.7-16.38,11.36c-3.01,1.98-3.2,1.69-7.61-2.35
		c5.4-4.48,6.15-10.55,5.6-17.09c-0.44-5.25-0.64-10.52-0.98-16.31c-4.23,0.37-4.81,3.96-6.72,5.85c-4.89,4.84-8.28,4.7-11.98-1.04
		c-1.01-1.57-1.41-3.52-2.18-5.55c-1.92,0.42-3.52,0.75-5.11,1.13c-22.94,5.43-45.85,11.01-68.83,16.28
		c-26.52,6.08-53.15,11.66-79.62,17.9c-13.88,3.27-27.57,7.39-41.29,11.33c-15.81,4.54-26.77,15.59-36.68,27.94
		c-2.46,3.06-4.82,6.2-7.29,9.38c-5.95-2.37-8.46-6.02-8.04-11.71c0.12-1.65,0.08-3.34-0.09-4.99c-0.36-3.43-2.27-5.62-5.78-5.7
		c-3.98-0.08-7.98,0.18-11.96,0.44c-1.98,0.13-3.94,0.55-5.9,0.92c-9.45,1.75-17.96,0.95-23.9-10c0.38-3.82,1.06-9.05,1.36-14.31
		c0.28-4.98,0.53-10.02,0.08-14.96c-0.54-5.91-2.95-7.85-9.1-8.18c-3.67-0.2-7.52,0.36-9.17-4.14c2.57-7.79,9.12-13.81,9.21-22.75
		c0.09-7.95,1.26-15.88,1.66-23.83c0.66-12.94,1.53-25.9,1.48-38.84c-0.05-14.28-0.82-28.56-1.65-42.83
		c-1-17.23-2.04-34.48-3.73-51.65c-1.43-14.52-3.7-28.97-5.81-43.42c-2.26-15.44-4.37-30.92-7.27-46.25
		c-5.99-31.65-13.69-62.9-22.08-94.02c-9.6-35.62-21.61-70.45-33.16-105.43c-3.43-10.39-7.47-20.59-11.71-30.68
		c-1.9-4.53-4.65-8.81-7.57-12.79c-9.06-12.34-18.4-24.48-27.63-36.7c-1.19-1.58-2.36-3.17-3.49-4.68c4.51-6.57,5.76-7.19,12-5.64
		c4.48,1.11,8.87,3.01,13.4,3.43c7.61,0.7,9.73-1.3,9.35-9.05c-0.32-6.58-1.33-13.23-2.93-19.62c-1.1-4.4-0.9-8.09,2.43-10.91
		c4.55-3.85,4.39-8.7,3.72-13.7c-0.57-4.27-1.45-8.51-2.43-12.7c-1.68-7.2-0.46-13.52,6.22-17.39c6.06-3.51,7.28-8.42,7.26-14.97
		c-0.08-28.29,2.98-56.34,7.12-84.29c4.28-28.9,8.22-57.86,12.96-86.69c2.69-16.37,6.42-32.58,10.2-48.74
		c3.63-15.52,8.14-30.83,11.82-46.33c1.76-7.4,2.36-15.07,3.73-22.56c2.03-11.08,6.22-20.97,16.35-27.72
		c1.12,0.86,2.09,1.68,3.14,2.39c5.56,3.73,10.49,3.5,15.2-0.82c3.17-2.92,6.19-5.99,9.11-8.82c3.21,0.42,4.5,2.06,4.37,4.77
		c-0.22,4.65-0.79,9.31-0.72,13.95c0.08,5.4,1.88,7.25,7.26,7.24c3.57,0,7.31-0.49,10.69-1.63c11.41-3.83,22.87-7.04,35.1-6.28
		c3.33,0.21,7.27,0.48,8.66-3.31c1.48-4.03,2.18-8.59-1.01-12.31c-10.44-12.19-18.46-25.99-26.77-39.6
		c-5.88-9.63-11.99-19.12-16.16-29.7c-1.56-3.97-3.83-7.66-5.71-11.34c0.59-1.25,0.76-2.48,1.46-2.98
		c7.34-5.25,12.24-12.77,18.13-19.36c2.16-2.42,4.22-5.2,5.38-8.18c10.32-26.69,26.62-49.73,43.51-72.48
		c24.71-33.28,54.05-62.31,83.36-91.37c6.8-6.74,14.24-12.84,21.78-19.58c8.7,9.05,19.96,12.34,30.57,16.81
		c29.07,12.24,58.17,24.41,87.34,36.4c17.59,7.23,34.4,15.86,50.34,26.21c1.66,1.08,3.33,2.16,4.95,3.3
		c10.64,7.48,12.15,18.78,11.19,30.18c-1.97,23.51-5.22,46.84-12.74,69.41c-2.16,6.47-4.54,13.23-2.93,20.34
		c0.97,0.11,1.72,0.45,2.19,0.21c8.27-4.21,16.82-7.99,24.7-12.84c24.95-15.35,48.11-33.23,71.19-51.21
		c15.48-12.06,31.05-24.01,46.62-35.96c3.64-2.79,5.88-5.94,5.6-10.91c-0.22-3.92-0.81-7.09-4.45-9.32
		c-6.21-3.8-6.12-10.6-7.31-16.67c-0.17-0.89,1.26-2.09,2.24-3.59c1.92,1.4,3.74,2.3,4.95,3.72c3.03,3.53,6.57,5.46,11.32,4.87
		c2.96-0.37,5.01,1.27,6.94,3.25c3.26,3.34,6.95,6.33,9.83,9.96c10.61,13.38,25.6,21.01,39.36,30.16
		c11.59,7.71,24.09,14.02,35.92,21.39c20.59,12.83,40.71,26.36,60.11,40.96c19.45,14.63,38.04,30.21,54.97,47.72
		c3.01,3.11,6.37,5.93,9.12,9.25c3.96,4.79,8.78,5.39,14.36,4.05c3.52-0.84,7.09-1.46,11.28-2.3c1.71,6.98,5.73,12.69,10.71,17.23
		c5.37,4.9,7.47,10.84,8.28,17.45c2.06,16.8,3.4,33.69,5.81,50.43c2.5,17.41,5.78,34.71,8.97,52.01
		c4.45,24.17,9.24,48.26,11.54,72.78c1.58,16.85,3.95,33.62,5.42,50.48c1.24,14.22,1.2,28.57,2.63,42.77
		c1.66,16.35,0,32.42-2.06,48.54c-0.04,0.33-0.05,0.67-0.05,1c0.1,12.41-2.27,17.28,14.71,16.17c5.41-0.35,9.86,1.03,12.89,6.93
		c-0.92,1.19-2.1,2.65-3.19,4.16c-4.38,6.05-3.32,12.63,2.67,17.08c1.55,1.15,2.97,2.49,4.81,4.06c-2.06,4.26-5.38,6.95-8.75,9.51
		c-3.16,2.42-6.67,4.41-9.72,6.95c-2.26,1.89-4.36,4.15-5.96,6.61c-3.09,4.78-2.04,11.71,2.33,15.14c3.64,2.86,7.42,5.73,11.57,7.71
		c13.37,6.38,25.23,14.83,35.7,25.2c3.64,3.61,7.57,5.2,12.55,4.6c4.18-0.5,5.81-2.1,6.31-6.29c0.51-4.27-0.28-7.81-3.93-16.42
		c11.69,5.85,20.05,14.13,27.72,22.87c7.66,8.72,14.98,17.91,21.16,27.71c6.27,9.95,10.96,20.89,16.41,31.54
		c4.22-4.06,2.1-12.87,10.7-14.85c0.6,1.55,1.68,3.18,1.77,4.86c0.17,2.97-0.22,5.98-0.46,8.96c-0.52,6.45,1.06,12.41,3.41,18.41
		c3.63,9.24,6.31,18.67,6.92,28.83c1.08,17.8,0.12,35.21-5.33,52.27c-0.79,2.46-0.98,5.11-1.76,9.36
		c5.72-3.12,8.61-7.08,11.98-10.37c2.96-2.9,5.85-5.41,10.78-3.67c-0.21,4.76-2.69,8.74-4.34,12.92
		c-5.62,14.28-10.25,28.84-12.32,44.07c-0.57,4.19-1.06,8.95,0.33,12.74c5.13,13.92,11.07,27.55,18.13,40.94c0-4.15,0-8.31,0-13.95
		c2.59,2.47,4.89,3.67,5.59,5.49c3.93,10.2,7.56,20.52,11.13,30.85c2.63,7.61,0.7,15.07-1.23,22.49c-0.39,1.51-0.75,3.03-1.44,5.8
		c2.54-0.71,4.19-0.75,5.3-1.54c7.8-5.57,16.96-9.11,23.92-15.94c0.71-0.7,1.41-1.61,2.28-1.89c1.13-0.35,2.8-0.64,3.56-0.07
		c0.8,0.61,1.42,2.52,1.05,3.42c-1.54,3.67-3.49,7.16-5.85,11.83c2.15-0.59,3.73-0.61,4.75-1.37c2.93-2.18,5.5-4.85,8.46-6.97
		c2.86-2.04,6.04-3.63,10.09-6.02c0.5,2.97,0.92,4.74,1.09,6.54c0.64,6.58,1.06,13.17,1.85,19.73c0.35,2.95,1.42,5.79,4.54,7.62
		c6.97-2.12,13.11-5.36,17.09-12.06c2.02-3.41,4.91-6.29,7.07-9.63c6.28-9.66,10.25-20,9.7-31.85c-0.69-15.03,0.67-29.75,5.55-44.25
		c6.35-18.89,15.66-35.89,28.7-50.91c4.56-5.25,8.39-10.92,12.06-16.9c4.25-6.93,10.51-12.91,16.81-18.21
		c11.75-9.9,24.69-18.12,39.75-22.2c5.3-1.44,7.35-5.21,8.94-10.94c-1.23-2.46-2.73-5.72-4.47-8.85c-1.61-2.89-3.49-5.63-5.62-9.02
		c2.38-2.32,4.67-4.55,6.92-6.75c7.86,2.34,14.06,7.61,22.03,7.61c0.15-0.9,0.52-1.65,0.29-1.99c-8.74-12.79-11.83-27.31-13.02-42.4
		c-0.93-11.93-1.93-23.84-5.79-35.51c1.6-2.1,3.19-4.18,5.03-6.59c3.55,2.1,6.77,4.52,10.37,5.98c3.53,1.44,7.2,3.44,11.81,2.08
		c-5.41-6.56-13.39-7.41-20.77-10.54c1.38-4.85,4.53-7.66,8.55-9.15c14.5-5.37,24.53-16.88,36.21-26.1
		c2.19-1.73,3.27-4.84,4.82-7.25c-2.76-7.03-7.8-11.48-14.19-14.71c-4.22-2.13-7.4-5.42-10.11-9.42
		c6.08-8.88,17.28-10.02,24.34-17.13c-6.15-3.58-10.16,5.42-16.89,1.67c9.61-17.23,23.03-31.99,29.8-51.17
		c-11.09-9.04-22.82-17.83-31.35-30.84c1.97-1.45,3.58-3.52,5.53-3.93c13.85-2.85,26.05-9.67,39.48-15.5
		c-4.92-8.18-9.6-15.96-14.4-23.96c1.87-2,3.67-3.93,5.3-5.66c15.61,0.06,30.9,1.22,46.93-2.07c-1.19-1.47-1.85-2.87-2.95-3.54
		c-3.96-2.43-4.85-6.75-7.13-10.21c-5.49-8.32-6.35-17.26-6.68-26.58c-0.19-5.53-0.19-5.53,5.88-10.72c2.7,1.49,5.55,3.12,8.44,4.66
		c9.8,5.25,20.1,7.2,30.81,3.5c7.82-2.71,15.56-5.78,23.09-9.21c8.12-3.7,11.48-11.05,11.97-19.4c0.95-16.24,1.05-32.54,2.03-48.78
		c0.47-7.85-1.95-14.66-6.53-20.38c-7.35-9.18-12.91-19.28-17.97-29.79c-4.46-9.26-9.37-18.3-14.01-27.47
		c-1.53-3.01-2.47-5.91-0.56-9.44c0.96-1.77,0.71-4.69,0.03-6.76c-3.16-9.53-1.09-19.06-0.46-28.59c0.11-1.65,0.72-3.29,0.67-4.92
		c-0.57-17.57,3.57-34.38,8.68-50.92c12.94-41.89,31.19-81.35,55.64-117.82c4.42-6.6,9.53-12.74,14.65-19.55
		c1.04,1.73,1.66,2.77,2.56,4.27c3-3.29,7.84-4.71,8.07-10.28c0.03-0.85,1.58-1.81,2.6-2.43c7.91-4.82,15.98-9.38,23.75-14.4
		c6.97-4.5,13.6-9.53,20.44-14.23c3.43-2.36,6.34-4.31,11.54-3.52c4.64,0.7,9.9-3.02,14.94-4.63c7.25-2.32,14.55-4.51,21.13-6.53
		c6.53,3.18,8.81,7.73,9.27,13.96c0.58,7.93,2.08,15.79,3.04,23.7c0.97,7.97,2.76,15.66,6.11,23.02c1.48,3.26,2.21,6.85,3.16,9.92
		c-6,7.3-29.1,25.34-37.44,29.28c-4.84-3.55-9.82-7.41-15.02-10.94c-3.24-2.2-7.16-3.5-10.16-5.94c-2.97-2.42-5.4-0.56-8.07-0.06
		c-1.94-18.86,8.82-35.37,27.03-41.24c-1.18,10.13-5.16,19.64-5.81,30.44c7.55,1.12,12.69-2.35,17.24-6.68
		c1.09-1.04,1.61-4.14,0.88-5.4c-5.61-9.54-8.77-19.96-11.28-30.88c-6.53-0.33-12.19,1.21-17.69,3.47
		c-4.72,1.94-6.79,6.21-8.67,10.47c-4.49,10.19-6.14,20.99-6.55,32.04c-0.86,22.78,2.44,45.15,7.36,67.25
		c3.9,17.51,8.73,34.82,13.36,52.16c3.04,11.4,9.65,21.11,15.58,31.09c13.46,22.65,30.16,42.99,45.95,63.98
		c8.59,11.43,17.37,22.77,25.26,34.67c4.37,6.58,7.11,14.24,10.55,21.43c0.95,1.99,1.78,4.03,4.27,5.9
		c0.55-4.76,1.35-9.51,1.58-14.29c0.23-4.8-3.36-9.32-1.41-15.12c5.24,1.16,7.7,5.41,10.68,8.55c2.83,2.98,4.74,6.84,7.21,10.56
		c0.87-0.7,2.27-1.83,3.75-3.02c1.69,3.8,1.69,3.8,0.45,9.77c1.67,0,3.31,0.36,4.71-0.06c8.65-2.6,17.37-4.48,26.5-4.22
		c1.83,0.05,3.69-1,5.29-1.47c1.06-7.06,2.04-13.61,3-20.16c0.14-0.98,0.56-2.19,0.17-2.94c-3.35-6.48-0.11-12.26,1.75-18.18
		c8.08-25.75,18.79-50.48,29.35-75.27c3.52-8.25,6.23-16.85,9.77-25.09c3.85-8.94,3.75-18.1,2.77-27.46
		c-0.72-6.93-1.42-13.87-1.84-20.82c-0.79-12.93-1.14-25.89-2.09-38.81c-1.28-17.46-2.96-34.89-4.46-52.31
		c-8.3,12.8-22.23,17.59-34.42,24.54c-3.97-1.22-5.51-4.06-7-7.09c-7.53-15.32-11.86-31.67-15.74-48.17
		c-0.86-3.65,0.27-6.52,3.09-8.86c0.77-0.64,1.35-1.51,2.16-2.07c14.46-9.99,28.93-19.95,43.43-29.89c1.06-0.72,2.29-1.19,3.38-1.74
		c6.73,3.44,9,9.86,12.06,15.62c3.89,7.32,7.75,14.67,11.32,22.15c3.14,6.59,5.8,13.4,8.77,20.08c2.55,5.73,4.95,11.55,7.93,17.05
		c6.95,12.86,14.78,25.28,21.23,38.38c15.86,32.23,31.3,64.66,46.57,97.17c4.79,10.2,8.63,20.86,12.67,31.4
		c0.91,2.37,1.26,5.13,1.13,7.68c-0.54,10.93-1.67,21.85-2,32.78c-0.51,17.3-0.84,34.62-0.61,51.92c0.07,5.51,1.68,11.15,3.44,16.44
		c2.2,6.63,1.95,12.95,0.35,19.61c-2.92,12.12-8.88,22.85-14.7,34.13c4.81,12.52,14.81,20.55,25.73,27.67
		c8.97,5.86,18.88,9.74,28.91,13.36c2.67,0.97,6.13,0.88,7.24,5.22c-1.5,3.29-4.32,5.12-8.35,5.2c-3,0.06-6.01-0.08-9,0.1
		c-5.54,0.32-7.13,1.74-6.95,7.4c0.11,3.55,0.68,7.37,2.18,10.53c3.47,7.26,5.8,14.66,7.18,22.65c1.74,10.11,4.68,20.05,7.5,29.94
		c3.61,12.68,1.08,25.13-1.13,37.54c-1.04,5.83-5.62,9.42-11.08,13.4c-1.49-8.01,0-15.28-1-22.32c-1.03-7.22-2.3-14.47-4.28-21.49
		c-1.94-6.89-3.97-13.9-9.03-21.32c-0.55,2.43-1.21,3.58-0.94,4.44c4.31,14.04,6.01,28.57,8.08,43.02c0.42,2.95,0.55,6,0.31,8.96
		c-1.04,12.9-2.25,25.78-3.47,38.66c-0.08,0.79-0.77,1.53-1.49,2.89c-3.66-3.85-1.88-8.7-3.69-12.33
		c-2.07-4.13-4.38-8.16-6.91-12.01c-2.35-3.58-5.14-6.86-7.55-10.03c-2.91,0.92-5.29,2.41-7.49,2.17c-2.46-0.26-4.76-2.07-8.29-3.77
		c0.51,2.22,0.52,3.69,1.17,4.8c1.84,3.15,4.19,6.02,5.9,9.24c4.76,8.99,5.53,18.42,1.9,27.94c-2,5.26-4.49,10.35-7.04,15.37
		c-2.56,5.02-2.74,9.99-1.44,15.42c3.09,12.92,6.07,25.88,8.54,38.93c0.85,4.49,2.21,8.16,5.67,11.17c2.23,1.94,4.1,4.31,6.22,6.6
		c-2.86,17.6-6.68,34.68-15.34,50.3c-1.61,2.9-3.35,5.75-5.19,8.51c-3.48,5.22-6.84,10.54-10.72,15.45
		c-2.44,3.09-5.64,5.62-8.67,8.2c-1.96,1.67-4.23,2.99-8.09,5.67c4.33,0,6.75,0.28,9.08-0.05c7.56-1.06,15.07-2.42,22.62-3.53
		c5.69-0.83,5.7-0.73,10.49,4.34c-4.79,4.46-9.58,8.95-14.41,13.4c-1.22,1.13-2.57,2.11-3.84,3.19c-3.98,3.36-6.9,7.14-5.94,12.85
		c0.27,1.59-0.16,3.29-0.24,4.61c-7.65,5.75-14.98,11.26-23.1,17.36c5.21,4.44,9.58,8.24,14.03,11.94
		c5.56,4.62,8.5,11.05,11.74,17.18c7.17,13.55,14.64,26.85,25.11,38.21c0.41,0.44,0.44,1.22,0.7,2c-0.94,3.39-3.82,3.84-6.81,4.52
		c-11.58,2.65-23.06,2.21-34.52-0.59c-0.92-0.23-1.91-0.26-2.86-0.29c-0.29-0.01-0.59,0.28-1.39,0.69
		c2.62,4.57,4.73,9.33,10.4,11.19c2.87,0.95,4.71,3.15,6.7,5.55c5.72,6.91,12.49,12.95,18.15,19.89
		c22.6,27.71,35.33,59.05,34.92,95.34c-0.18,15.93,0.97,32.01-2.38,47.61c-2.19,10.2-0.67,20.26-1.38,30.35
		c-0.49,7.04,1.75,14.46,3.66,21.46c6.71,24.6,13.43,49.2,20.93,73.56c3.5,11.37,8.67,22.25,13.36,33.23
		c5.61,13.13,11.52,26.12,17.29,39.18c9.65,21.86,19.49,43.55,31.1,64.55c8.21,14.86,19.92,26.3,30.17,39.19
		c6,7.55,12.37,14.8,18.32,22.38c3.71,4.73,6,10.04,7.15,16.19c1.33,7.12,4.3,13.92,6.53,20.88c0.4,1.25,0.68,2.54,1,3.78
		c-0.54,1.03-0.78,2.18-1.49,2.71c-4.9,3.67-5.73,8.72-4.98,14.27c1.05,7.68,0.33,15.15-1.26,22.76
		c-2.5,11.95-7.57,22.67-14.08,32.78c-2.5,3.88-5.48,7.21-11.01,7.54c-4.6,0.27-5.37,1.84-5.68,6.54c-0.29,4.4,0.4,8.27,3.24,12.15
		c17.46,23.83,29.67,50.36,38.66,78.37c5.08,15.82,9.16,31.99,10.05,48.64c0.4,7.51-1.21,15.14-2.04,22.71
		c-0.25,2.3-0.89,4.55-1.42,6.81c-1.62,6.91-4.23,13.22-9.81,18.05c-3.52,3.05-6.69,6.51-9.93,9.86
		c-11.19,11.58-24.93,14.49-40.26,11.84c-3.92-0.68-7.75-1.93-11.67-2.66c-8.84-1.64-17.58-2.13-26.69-0.73
		c-11.78,1.82-23.8,2.19-35.74,2.81c-16.59,0.86-33.21,1.88-49.81,1.88c-15.6,0.01-31.27-0.61-46.8-2.09
		c-12.17-1.16-23.83,0.91-35.59,2.82c-31.26,5.06-61.71,13.36-91.58,23.79c-7.55,2.64-15.16,4.85-23.2,5.6
		c-2.9,0.27-5.79,1.37-8.53,2.49c-9.86,4.02-19.58,8.38-29.48,12.26c-7.11,2.79-14.41,4.41-22.23,4.92
		c-9.53,0.63-18.86,3.77-28.39,4.9c-14.48,1.72-28.97,4.19-43.66,2.77c-9.57-0.93-19.12-2.06-28.69-3.01
		c-2.64-0.26-5.33-0.1-7.98-0.31c-3.61-0.29-6.35,1.05-8.78,3.71c-4.53,4.97-10.02,8.56-16.41,10.69c-5.2-3.09-7.66-7.84-8.56-13.15
		c-1.1-6.48-4.62-9.68-10.82-11.34c-8.5-2.28-16.23-2.61-25.1,0.29c-13.48,4.41-27.74,6.58-41.78,9.12
		c-16.01,2.89-32.09,5.44-48.22,7.57c-11.51,1.52-23.14,2.22-34.73,3.09c-18.21,1.36-36.41,3.05-54.65,3.63
		c-12.91,0.41-25.88-0.64-38.82-1.32c-9.28-0.49-18.53-1.47-27.8-2.2c-18.69-1.48-36.64-6.24-54.16-12.64
		c-11.36-4.15-23.34-5.11-35.05-7.38c-23.48-4.56-47.13-8.26-70.52-13.18c-14.61-3.07-28.96-2.6-43.51-0.66
		c-18.42,2.46-36.85,4.82-55.29,7.18c-10.21,1.3-20.21,3.24-30.19,6.06c-12.73,3.59-25.88,5.86-38.98,7.86
		c-23.03,3.5-46.32,3.97-69.57,4.72c-1.65,0.05-3.79-0.49-4.88,0.33c-5.64,4.23-11.57,1.82-17.2,0.83
		c-23.24-4.1-46.18-9.43-68.41-17.55c-7.31-2.67-13.77-6.22-19.33-11.84c-6.54-6.61-14.08-12.23-20.51-18.93
		c-4.31-4.48-7.52-10.04-11.07-15.21c-1.31-1.91-1.86-4.37-3.3-6.14c-9.48-11.66-13.66-25.71-18.21-39.62
		c-2.82-8.61-9.46-10.83-16.71-5.21c-9.2,7.12-17.99,14.77-27.14,21.96c-6.01,4.73-12.25,9.19-18.57,13.5
		c-6.91,4.71-13.06,10.22-19.08,15.99c-3.53,3.39-8.17,5.6-12.2,8.48c-17.45,12.47-36.55,21.94-56.48,29.43
		c-11.42,4.29-23.69,6.33-35.6,9.28c-4.19,1.04-8.92,0.91-12.56,2.87c-6.55,3.52-12.92,2.4-19.2,0.61
		c-5.65-1.61-10.97-1.98-16.6-0.33c-1.7,0.5-3.99,0.29-5.62-0.44c-10.28-4.65-20.81-8.9-30.59-14.45
		c-40.79-23.15-79.8-49.13-118.82-75.1c-18.82-12.53-37.86-24.75-56.68-37.27c-11.08-7.37-21.95-15.03-32.88-22.63
		c-6.06-4.22-11.16-9.33-15.13-15.68c-6.27-10-22.64-13.58-33.5-9.11c-14.84,6.1-28.31,14.59-42.35,22.09
		c-8.16,4.36-16.99,7.45-25.42,11.34c-11.47,5.3-22.86,10.79-34.24,16.28c-1.46,0.7-2.95,1.64-4.01,2.83
		c-4.78,5.38-11.05,8.33-17.33,11.49c-27.64,13.91-55.16,28.06-82.69,42.19c-3.54,1.82-6.95,3.92-10.27,6.14
		c-4.75,3.18-9.64,4.92-15.56,5.64c-6.39,0.78-12.43,4.36-18.62,6.72C399,1758.58,395.91,1759.76,392.59,1761.02z M1148.65,687.43
		c-5.11-0.76-8.92-1.24-12.68-1.91c-19.93-3.56-39.85-7.14-59.77-10.75c-35.59-6.45-71.27-12.46-106.74-19.55
		c-25.37-5.07-50.47-11.48-75.63-17.57c-6.99-1.69-13.6-1.5-20.61,0.02c-6.39,1.39-9.83,4.64-11.56,10.71
		c-1.81,6.39-3.91,12.71-6.27,18.91c-2.11,5.55-2.22,11.31-0.88,16.7c3.84,15.44,8.37,30.7,12.64,46.03
		c0.89,3.19,2.74,6.43,2.55,9.54c-0.45,7.28,1.93,13.7,4.51,20.17c2.82,7.08,5.73,14.14,8.46,21.26c2.05,5.35,5.59,8.2,11.48,7.24
		c5.92-0.97,9.92,1.45,11.35,7.05c1.45,5.7,4.98,6.96,10.29,7.07c13.34,0.26,26.52-0.72,39.65-3.08c6.16-1.11,12.68-0.64,17.43-5.96
		c0.73-0.81,2.46-0.75,3.73-1.05c28.38-6.69,54.37-19.27,80.06-32.58c6.48-3.36,12.61-7.37,19.1-10.72
		c16.21-8.36,32.45-16.68,48.85-24.66c5.62-2.74,11.76-4.41,18.76-6.97c-4.44-2.1-8.22-3.04-10.88-5.3
		c-6.91-5.88-14.66-10.12-22.77-13.99c-2.18-1.04-3.82-3.48-5.35-5.54c-0.93-1.25,0.97-3.71,2.49-3.33c1.57,0.4,3.02,1.28,4.58,1.77
		c3.43,1.07,6.98,3.08,10.33,2.81c7.57-0.59,15.06-2.27,22.55-3.67C1145.46,689.88,1146.45,688.82,1148.65,687.43z M1163.63,419.58
		c-2.85-6.94-5.12-14.23-8.69-20.83c-9.02-16.69-19.66-32.37-31.48-47.22c-4.8-6.02-11.68-7.25-18.42-3.29
		c-1.72,1.01-3.29,2.26-4.95,3.37c-21.58,14.39-43.47,28.23-67.84,37.59c-1.73,0.66-3.33,1.65-5,2.49c0.43,0.83,0.53,1.34,0.74,1.39
		c43.45,9.13,86.91,18.23,130.37,27.31c0.97,0.2,1.99,0.3,2.96,0.23C1161.92,420.56,1162.49,420.1,1163.63,419.58z M839.59,180.01
		c5.02,4.09,11.43,4.54,17.41,6.1c0.88,0.23,2.03-0.02,2.9-0.41c5.86-2.65,11.59-5.38,15.12-11.33c3.15-5.3,2.92-8.4-2.31-11.65
		c-2.14-1.33-4.88-2.2-7.4-2.35C854.04,159.67,843.29,167.92,839.59,180.01z M2279.38,49.59c-0.38,8.86-0.14,16.62,6.25,23.92
		c2.01-2.21,4.64-3.78,5.16-5.88c2.09-8.48,4.5-17.09,1.63-26.92C2287.75,43.89,2283.76,46.61,2279.38,49.59z"/>
</g>
</svg>
