<?xml version="1.0" encoding="utf-8"?>
<!-- Generator: Adobe Illustrator 24.1.1, SVG Export Plug-In . SVG Version: 6.00 Build 0)  -->
<svg version="1.1" id="Layer_1" xmlns="http://www.w3.org/2000/svg" xmlns:xlink="http://www.w3.org/1999/xlink" x="0px" y="0px"
	 width="192.81" height="396.49" viewBox="0 0 192.81 396.49" style="enable-background:new 0 0 192.81 396.49;" xml:space="preserve">
<style type="text/css">
	.st0{fill:#1A1A1A;}
</style>
<g>
	<path d="M121.12,43.7c2.16-1.6,1.49-3.12,2.01-4.18c1.73-3.48,4.42-4.3,7.12-1.99c2.51,2.16,4.89,4.56,6.96,7.14
		c9.66,12.08,17.19,25.26,20.24,40.65c0.39,1.94,0.87,3.95,1.74,5.7c6.82,13.65,8.78,28.37,10.34,43.31
		c1.42,13.59,2.68,27.17,1.09,40.75c-1.01,8.63-0.83,17.24-1.28,25.85c-0.86,16.55,3.59,32.31,6.83,48.21
		c4.92,24.08,10.2,48.09,15.71,72.04c2.18,9.47,0.48,18.13-4.96,25.54c-15,20.42-33.54,36.78-57.2,46.76
		c-8.28,3.49-16.68,3.92-25.21,1.38c-6.05-1.8-12.07-3.78-17.99-5.96c-8.88-3.26-16.14-9.04-22.97-15.42
		c-1.98-1.84-3.49-4.01-4.43-6.56c-3.45-9.36-6.92-18.7-10.32-28.08c-0.56-1.53-1.39-3.34-1.05-4.76c1.44-5.87-2.24-9.37-5.64-12.89
		c-8.03-8.33-17.98-13.86-28.85-17.2c-5.91-1.82-8.25-4.85-8.11-10.67c3.29-3.64,8.56-3.4,12.6-6.53c-1.64-4.77-7.92-5.7-9.4-10.41
		c0.95-3.22,4.08-1.85,5.84-3.14c0.15-0.61,0.59-1.33,0.39-1.77c-2.89-6.35-5.88-12.66-8.82-19C3.13,246.8,0.44,241.13,0,234.55
		c4.29-2,7.68-1.92,10.76,1.94c2.02,2.53,4.15,5.15,7.29,6.52c0.89-1.39,0.17-2.53-0.38-3.74c-2.27-5-3.01-10.14-1.48-15.54
		c0.45-1.57,0.62-3.28,0.6-4.93c-0.14-8.59,4.59-16.42,3.08-25.43c-1.36-8.14-0.91-16.59-1.04-24.91c-0.05-3.46-1.06-6.12-3.15-9.04
		c-8.94-12.5-13.74-25.91-11.24-41.97c2.4-15.39,7.24-29.67,14.41-43.25c2.06-3.91,2.51-7.09,0.82-11.21
		c-2.27-5.51-3.71-11.37-5.59-17.04c-0.72-2.16-0.53-3.86,1.58-5.1c2.2-1.29,3.82-0.15,5.3,1.26c3.13,2.96,6.2,6,9.85,9.55
		c6.27-8.41,11.62-17.28,21.26-22.17c-2.82-7.06-7.18-13.05-8.55-20.06c2.22-3.38,4.72-3.54,7.73-1.57
		c6.41,4.21,12.53,8.73,17.92,14.27c2.54,2.61,5.8,4.52,8.23,7.35c2.4,1.06,5.13,0.3,8.4-1.83c-4.3-8.1-8.6-16.19-12.78-24.06
		c1.87-4,4.66-4.26,7.62-2.61c4.96,2.76,9.2,6.53,13.52,10.2C104.85,20.21,115.18,29.54,121.12,43.7z"/>
	<path class="st0" d="M33.97,201.42c2.26-6.57,1.64-12.42,0.59-17.81c-1.81-9.3,0.64-17.81,3.21-26.3
		c2.01-6.65,5.22-12.87,9.49-18.54c4.21-5.58,9.36-9.26,16.31-10.54c10.11,4.74,18.52,11.41,25.96,19.74
		c9.84,11,18.67,22.58,24,36.41c4.53,11.77,9.27,23.59,12.31,35.79c2.66,10.71,1.76,21.9-3.43,32.08
		c-5.33,10.46-15.22,15.94-27.55,13.23c-9.59-2.1-18.5-0.3-27.55,1.1c-8.49,1.31-16.49,0.25-24.56-1.94
		c-5.47-1.48-9.26-4.92-12.12-9.69c-2.26-3.76-4.01-7.8-4.77-12c-2.03-11.22-1.43-22.52,0.34-33.74
		C26.88,204.92,29.15,201.81,33.97,201.42z"/>
	<path class="st0" d="M110.74,69.35c-8.75,7.82-13.51,17.08-15.88,27.79c-2.25,10.15-8.01,19.74-2.8,30.95
		c-6.36-0.81-9.53-3.51-12.02-7.26C65.45,98.8,60.12,75.38,69.54,49.83c1.6-4.35,3.55-8.56,6.85-12.06
		c4.82-5.11,8.88-6.01,14.98-2.64c7.01,3.87,11.72,9.77,14.3,17.27C107.5,57.71,108.91,63.17,110.74,69.35z"/>
	<path class="st0" d="M139.41,117.37c0.54,8.83-0.71,18.3-5.52,27.03c-1.12,2.02-2.32,4.06-3.83,5.79c-3.11,3.55-5.55,3.86-9.7,1.69
		c-4.91-2.56-8.37-6.65-10.94-11.33c-11.34-20.67-9.67-41.47-0.05-62.18c0.96-2.07,2.59-3.81,4.64-5.11
		c3.12-1.98,6.08-2.35,9.25-0.06c1.92,1.38,3.5,2.97,4.99,4.8c7.2,8.88,10.33,19.22,11.13,30.41
		C139.57,111.06,139.41,113.73,139.41,117.37z"/>
	<path class="st0" d="M63.82,113.98c-1.4,2.16-4.06,0.6-5.59,2.42c-0.38,3.05,2.05,5.2,3.26,8.34c-5.53,2.52-11.1,5.06-17.22,7.85
		c-3.79-3.77-4.68-9.18-6.53-13.86c-9.52-24.04-9.73-47.78,3.44-70.83c3.17-5.55,6.83-10.63,12.04-14.35
		c5.39-3.86,10.11-3.08,15.91,2.56c-4.34,7.57-8.58,15.36-10.37,24.26c-1.86,9.24-2.02,18.43-0.36,27.61
		C59.98,96.73,62.01,105.41,63.82,113.98z"/>
	<path class="st0" d="M22.32,82.78c-0.62,20.44,4.62,38.35,18.9,52.69c-5.95,7.28-10.32,15.68-13.93,25.12
		c-6.69-4.7-10.03-10.87-11.94-17.86c-4.12-15.06-3.74-30.15,0.69-45.05C17.43,93.02,18.14,87.96,22.32,82.78z"/>
</g>
</svg>
