<?xml version="1.0" encoding="utf-8"?>
<!-- Generator: Adobe Illustrator 24.1.1, SVG Export Plug-In . SVG Version: 6.00 Build 0)  -->
<svg version="1.1" id="Layer_1" xmlns="http://www.w3.org/2000/svg" xmlns:xlink="http://www.w3.org/1999/xlink" x="0px" y="0px"
	 viewBox="0 0 1451.92 2741.62" style="enable-background:new 0 0 1451.92 2741.62;" xml:space="preserve">
<style type="text/css">
	.st0{fill:#1A1A1A;}
</style>
<g>
	<path d="M1108.1,2500.47c-1.8,9.1-4.39,17.83-5.03,26.69c-0.74,10.2,0.23,20.52,0.5,30.79c0.05,1.99,0.61,4.03,0.34,5.97
		c-2.4,16.85,2.01,33.07,4.42,49.47c1.84,12.48,3.61,24.98,5.63,37.43c1.33,8.19,2.78,16.38,4.64,24.46
		c3.76,16.44-1.83,30.11-12.15,42.38c-2.98,3.54-6.71,5.95-11.61,7.1c-7.17,1.68-13.07,6.43-19.35,10.16
		c-6.71,3.98-13.84,6.24-21.61,6.6c-2.33,0.11-4.6,0.34-6.88-0.59c-4.14-1.68-8.59-1.61-12.84-1.11c-10.18,1.2-19.06-2.07-27.4-7.29
		c-4.01-2.51-8.03-4.25-12.84-4.95c-12.26-1.77-22.75-14.26-22.43-26.56c0.4-15.38,2.9-30.38,9.13-44.63
		c4.28-9.79,7.65-20.18,8.18-30.69c0.48-9.52,1.29-19.1,1.2-28.67c-0.21-23.65-0.44-47.3-0.69-70.95c-0.02-1.61,0.28-3.37-1.6-4.82
		c-10.67,2.29-21.61,4.89-32.66,6.96c-40.19,7.53-80.25,15.69-119.81,26.08c-37.69,9.89-74.82,21.41-109.76,39.1
		c-19.14,9.69-36.46,21.93-52.59,35.99c-11.56,10.08-22.43,20.83-32.28,32.6c-1.01,1.21-1.72,2.78-3.66,2.8
		c-1.28-2.24,0.52-3.9,1.39-5.43c7.55-13.37,15.53-26.51,27.35-36.64c6.63-5.68,11.94-12.45,17.48-19.06
		c3.41-4.08,6.91-8.09,10.47-12.04c1.8-2,3.29-4.14,4.47-6.57c18.18-37.5,43.08-70.13,71.41-100.52
		c22.97-24.64,47.96-47.03,73.16-69.25c1.49-1.32,2.99-2.68,4.21-4.24c23.32-29.94,46.61-59.92,65.37-93.06
		c15.17-26.81,26.02-55.34,33.34-85.23c1.27-5.18,1.78-10.42,1.82-15.8c0.13-19.32-0.72-38.64,0.49-57.96
		c0.18-2.93-0.35-6.01-1.11-8.86c-4.31-16.06-8.3-32.19-11.61-48.49c-0.52-2.57-1.56-5.04-2.42-7.75c-2.11,3.15-0.21,6.7-1.87,10.56
		c-4.42-12.66-6.31-25.08-8.91-37.29c-4.92-23.11-6.99-46.59-8.82-70.12c-0.82-10.61-1.75-21.23-1.66-31.83
		c0.12-14.27,1.4-28.53,2.19-42.79c0.06-1,0.28-1.99,0.27-2.98c-0.34-26.3,2.59-52.49,2.26-78.81c-0.17-13.54,1.87-27.12,2.89-40.68
		c0.38-4.99,0.13-9.84-1.17-14.8c-5.38-20.65-12.92-40.55-20.21-60.55c-8.66-23.74-19.08-46.82-27.08-70.81
		c-1.16-3.46-2.28-6.94-3.43-10.41c-0.73-2.21-0.92-4.9-2.31-6.55c-8.05-9.53-9.02-21.98-13.79-32.84
		c-4.81-10.94-7.02-22.87-9.56-34.56c-1.7-7.78-3.12-15.6-5.24-23.31c-2.73-9.92-4.55-20.09-6.91-30.11
		c-0.56-2.36,0.41-5.45-2.72-6.82c0.35-5.02-4.13-9.51-1.48-14.81c1.84-3.67-3.58-5.82-2.01-9.92c1.28-3.34-0.96-6.84-1.72-10.26
		c-3.54-15.86-6.41-31.83-7.47-48.08c-0.16-2.37-0.45-4.66-3.73-5.43c-1.89,2.02-3.71,4.4-5.96,6.26
		c-3.56,2.94-5.16,6.82-6.06,11.08c-3.41,15.99-8.36,31.5-14.59,46.6c-3.93,9.53-7.92,19.04-12.09,28.46
		c-9.82,22.2-18.03,45.11-29.39,66.64c-6.37,12.08-12.97,24.01-20.13,35.63c-0.87,1.42-1.68,2.92-2.78,4.14
		c-14.8,16.33-26.05,35.33-39.74,52.51c-14.11,17.7-29.15,34.55-44.26,51.4c-12.67,14.13-27.63,26-39.34,41.03
		c-7.36,9.44-14.73,18.9-23.28,27.34c-2.94,2.9-4.52,6.52-5.2,10.57c-1.11,6.54-2.53,13.05-3.29,19.63
		c-1.14,9.89-1.69,19.86-2.74,29.76c-1.63,15.25,0.05,30.46,0.12,45.69c0.15,31.93-0.89,63.73-7.3,95.19
		c-5.5,27.03-15.8,52.11-29.6,75.85c-4.36,7.5-9.84,14.22-15.08,21.1c-13.3,17.48-26.28,35.21-39.84,52.49
		c-7.38,9.4-15.59,18.16-23.62,27.04c-3.82,4.23-7.11,8.78-10.04,13.64c-13.42,22.22-25.65,45.13-38.59,67.61
		c-12.75,22.14-19.7,46.52-30.3,69.43c-1.03,2.22-1.09,4.5-1.09,6.83c0,13.29-0.91,26.52-2.28,39.74
		c-1.07,10.31,0.19,20.57,1.09,30.84c1.76,20.12,0.4,39.9-7.46,58.78c-1.52,3.65-3.57,7.21-6.02,10.3
		c-7.64,9.65-15.55,19.02-25.04,27.02c-5.84,4.92-10.74,10.96-16.48,16.01c-30.98,27.25-49.89,62.84-68.19,98.77
		c-6.39,12.55-8.27,26.56-9.64,40.52c-0.72,7.27-1.44,14.55-2.5,21.77c-1.24,8.5-4.42,15.85-12.4,20.53
		c-3.05,1.79-5.15,5.11-7.98,7.35c-12.45,9.88-26.53,16.39-42.09,19.61c-7.12,1.48-14.29,2.68-22.05,4.12
		c-2.66-3.91-6.75-3.97-10.98-2.02c-7.32,3.38-14.97,2.51-22.59,2.01c-2.26-0.15-4.47-1.43-6.7,0.25c-0.77,0.58-2.09,0.99-2.62-0.04
		c-2.85-5.51-8.13-3.46-12.47-4.01c-3.25-0.42-6.6-0.08-10.33-0.08c-2.15-2.75-4.91-4.92-8.16-6.68
		c-18.1-9.77-20.66-27.03-6.9-42.49c8.67-9.73,18.05-18.65,28.22-26.71c5.78-4.58,10.2-10.13,14.73-15.91
		c19.04-24.32,32.65-51.72,46.28-79.15c13.77-27.72,27.49-55.47,42.96-82.31c7.16-12.42,11.13-26.33,17.06-39.35
		c9.37-20.59,18.72-41.18,28.18-61.73c7.79-16.92,15.9-33.7,23.56-50.68c5.77-12.76,9.27-26.33,13.16-39.75
		c6.11-21.07,12.04-42.2,18.25-63.24c2.37-8.03,3.08-16.31,4.27-24.51c4.89-33.55,11.85-66.72,17.5-100.13
		c3.15-18.66,5.76-37.41,9.09-56.04c8.53-47.81,18.9-95.17,34.01-141.43c6.91-21.17,12.89-42.66,20.04-63.77
		c6.3-18.6,13.19-36.98,20.76-55.08c4.27-10.22,6.78-20.84,9.38-31.49c1.02-4.19,2.2-8.17,4.05-12.16
		c2.34-5.04,3.29-10.74,4.66-16.19c4.45-17.73,9.12-35.41,13.15-53.23c4.7-20.77,7.09-41.92,8.36-63.14
		c1.47-24.62,5.46-48.79,10.92-72.8c12.5-54.94,30.39-108.17,50.34-160.77c7.31-19.28,15.04-38.39,23.21-57.39
		c-5.16-14.32-14.4-25.82-25.32-35.5c-40.09-35.56-82.13-68.71-125.45-100.3c-32.25-23.52-64.75-46.77-94.77-73.21
		c-6.59-5.8-14.47-5.91-21.56-0.48c-6.85,5.26-13.65,10.6-20.16,16.27c-2.16,1.89-3.61,4.78-4.85,7.46
		c-1.13,2.44-2.16,4.75-4.47,6.49c-3.42-2.93-4.28-6.21-3.91-10.47c0.53-6.14,0.8-12.26,0.34-18.57
		c-0.54-7.46,2.46-15.04,6.47-21.72c2.57-4.28,5.51-8.33,8.28-12.48c3.49-5.24,6.97-10.49,11.2-16.86
		c-13.61,1.54-25.62,5.44-39.15,5.33c5.65-4.13,11.48-4.55,16.83-5.39c11.12-1.74,20.11-6.57,27.25-15.13
		c9.17-10.98,19.78-20.64,28.84-31.76c22.95-28.16,40.04-59.64,53.23-93.29c14.61-37.28,32.06-73.12,53.35-107.02
		c8.55-13.61,14.3-28.56,21.56-42.78c1.9-3.73,2.47-8.28,3-12.53c0.79-6.32,2.49-12.37,4.21-18.45c1.44-5.08,3.19-10.07,2.25-15.64
		c-0.62-3.65,1.11-7.14,2.74-10.48c1.15-2.36,3.48-4.11,3.68-7.28c-4.22-2.24-7.76,3.16-12.51,0.97
		c5.11-8.06,12.27-14.53,17.36-23.84c-12.65-0.76-24.63-3.53-36.32,1.89c-6.12,2.83-12.59,3.87-19.17,4.8
		c-0.89-2.91,1.26-3.67,2.68-4.66c2.73-1.9,5.58-3.63,8.44-5.34c13.57-8.13,23.96-19.74,36.36-32.63
		c-8.68,1.93-13.49,7.06-20.19,8.71c-0.82-2.42,1.29-3.37,2.42-4.49c13.27-13.11,27.25-25.14,43.42-34.89
		c10.33-6.22,20.23-12.68,32.07-15.47c6.79-1.6,13.57-3.4,20.45-4.49c16.08-2.56,32.26-4.57,48.6-4.02
		c6.95,0.23,13.88,1.15,20.83,1.65c11.67,0.84,23.27,0.17,34.76-2.06c1.94-0.38,4.01-0.53,4.85-1.82c0-10.53-0.14-20.44,0.07-30.35
		c0.09-4.17-1.41-6.95-5.02-8.91c-22.02-11.93-35.49-31.59-47.46-52.6c-1.73-3.04-3.45-6.08-5.77-10.17
		c9.16,2.85,12.53,11.2,19.65,14.68c6.94,3.39,12.79,9.28,21.99,9.52c-12.44-13.59-27.42-21.95-42.41-30.54
		c-16.08-9.22-33.68-14.12-51-19.9c-4.15-1.39-8.36-1.51-12.58,0.24c-2.06,0.85-4.12,2.32-6.63,1.45c3.47-3.9,3.44-4.01,7.04-5.16
		c7.28-2.34,14.6-4.51,21.89-6.83c4.17-1.33,7.69-3.38,10.67-6.92c3.88-4.61,9.35-7.42,14.69-10.17c3.44-1.77,6.92-3.49,10.71-5.41
		c-1.28-0.95-1.99-1.83-2.87-2.07c-12.71-3.46-22.26-11.84-31.35-20.64c-19.88-19.21-39.47-38.73-59.17-58.13
		c-1.19-1.17-2.52-2.23-3.5-3.56c-3.69-4.98-8.05-9.17-13.76-12.14c9.58,3.58,19.62,3.28,29.36,4.82c5.34,0.85,10.73,0.75,15.6-1.85
		c13.59-7.27,28.22-11.71,42.87-16.11c1.25-0.37,2.39-1.1,3.66-1.69c-0.79-2.72-3.37-3.01-5.09-4.24
		c-8.73-6.19-16.8-12.84-22.62-22.19c-4.42-7.1-11.71-11.76-18.47-16.49c-14.6-10.21-27.75-21.64-37.03-37.14
		c-2.47-4.13-6.12-7.55-10.21-12.48c4.53,0.73,6.45,3.16,8.79,4.63c12.45,7.85,25.18,14.64,40.09,17.05
		c10.83,1.74,21.23,0.37,31.6-1.79c9.44-1.97,18.53-5.25,27.13-9.8c5.86-3.1,11.89-5.88,18.05-8.91c0.34-4.28-2.36-7.98-2.97-12.21
		c-1.56-10.79-0.2-21.29,2.81-31.58c1.68-5.73,3.83-11.37,6.32-16.8c2.78-6.05,5.7-11.99,7.42-18.48c0.73-2.75,2.35-5.26,4.33-7.72
		c1.23,14.99-3.64,29.77-0.6,45.5c7.89-6.76,16.85-10.12,25.77-13.53c3.29-1.26,5.35-3.33,6.69-6.76
		c8.1-20.81,17.76-40.85,29.26-60.04c5.64-9.41,9.68-19.69,14.66-29.47c8.47-16.62,17.6-32.86,26.41-49.28
		c1.4-2.61,3.09-5.19,5.15-7.27c2.15-2.17,6.43-0.73,7.15,2.26c0.85,3.54,1.41,7.16,1.92,10.77c1.26,8.87,2.73,17.73,3.56,26.65
		c0.95,10.15,2.32,20.28,1.28,30.57c-0.8,7.98,0.72,15.97,2.1,23.77c2.9,16.33,6.08,32.61,7.84,49.12c0.1,0.94,0.57,1.84,1.08,3.42
		c5.79,0.62,11.67,0.78,17.59-0.1c1.31-0.19,2.65-0.85,3.9-0.7c10.09,1.22,16.03-4.78,21.34-12c5.76-7.82,10.5-16.17,13.59-25.43
		c1.47-4.41,3.22-8.72,4.88-13.17c2.57,1.85,3.4,4.42,2.63,7.01c-1.94,6.55-1.02,13.16-1.27,19.78
		c-0.51,13.4-3.83,26.22-11.36,38.58c3.61,0.83,6.91,1.82,10.28,2.34c36.09,5.6,70.55,16.39,103.34,32.46
		c3.72,1.82,7.26,3.18,11.44,1.94c19.42-5.79,39.41-9.99,57.39-19.86c21.04-11.55,41.22-24.35,59.03-40.68
		c6-5.5,11.63-11.65,18.84-15.68c0.79,0.95,1.6,1.55,1.5,1.85c-4.97,15.15-9.52,30.47-15.16,45.37c-8.98,23.73-20.5,46.21-35.22,67
		c-4.06,5.74-9.38,10.18-14.49,15.32c4.19,5,9.76,7.4,14.77,10.5c13.34,8.24,27.23,15.35,42.16,20.32
		c12.8,4.27,25.83,5.44,39.55,2.85c-1.59,3.76-4.59,4.4-7.32,5.49c-21.29,8.49-43.28,9.66-65.74,6.47
		c-10.6-1.5-20.79-4.46-30.86-7.94c-1.8-0.62-3.53-1.96-5.94-0.54c0.55,1.13,0.96,2.37,1.69,3.39c13.71,19.08,22.88,40.5,32.12,61.9
		c4.88,11.3,9.91,22.53,14.84,33.8c3.66,8.36,8.68,15.45,16.03,21.23c10.49,8.24,21.15,16.13,32.59,23
		c5.84,3.5,11.62,6.52,18.74,4.35c0.82-0.25,1.88,0.28,5.01,0.83c-27.62,2.5-52.72,0.66-77.67-4.66
		c-24.89-5.31-48.18-14.86-70.87-26.56c-0.92,13.08,11.14,52.45,20.73,69.43c12.12,21.44,31.16,35.96,50.74,50.9
		c-2.47,1.3-4.1-0.14-5.3-0.86c-6.05-3.62-12.62-5.85-19.22-8.16c-19.38-6.8-36.45-17.6-52.08-30.8
		c-4.32-3.65-8.63-7.33-13.19-10.65c-10.58-7.71-20.24-16.26-27.12-27.58c-0.51-0.84-1.26-1.54-1.82-2.22
		c-3.58,0.6-5.09,3.41-7.19,5.36c-2.19,2.02-4.15,4.29-5.97,6.2c-0.11,1.09-0.45,1.88-0.21,2.37c5.4,10.93-2.19,17.63-8.52,24.11
		c-4.55,4.66-9.86,9.03-16.88,10.09c-4.81,0.72-7.26,4.28-9.4,8.18c-5.85,10.65-16.39,16.33-25.48,23.45
		c-3.01,2.36-7.3,2.74-11.5,1.5c-6.95-2.05-14.21-3.02-20.57-7.07c-6.45,8.74-3.5,17.89-4.3,26.2c2.13,2.34,4.99,0.79,7.57,3.1
		c1.95,11.29,3.9,23.3,1.31,36.53c12.44,0.96,24.56,1.33,36.14-3.87c18.85-8.47,38.03-15.88,58.26-20.47
		c10.1-2.29,20.22-3.39,30.57-4.03c18.88-1.16,37.69-3.54,56.06-8.42c2.25-0.6,4.46-1.29,7.49-0.43c-3.06,3.7-7.33,4.1-11.03,5.57
		c-5.81,2.3-12.38,2.99-16.94,8c-0.68,0.75-1.41,1.37-1.31,2.49c0.43,0.37,0.85,1.06,1.32,1.1c11.04,0.97,21.41,4.52,31.82,8.01
		c10.43,3.5,21.06,6.01,32.2,5.96c13.8-0.07,27.11-2.01,39.41-9.57c-2.48,6.05-3.04,6.58-7.62,8.7c-5.13,2.37-10.25,4.77-15.26,7.39
		c-1.61,0.85-3.86,1.55-3.67,5.04c40.97,6.69,81.43,16.76,122.89,26.56c-0.47-6-0.32-11.3-1.43-16.32
		c-1.09-4.95-1.41-9.94-1.55-14.85c-0.67-23.6-3.93-46.97-5.71-70.46c-0.35-4.59-1.72-9.17-3.13-13.59
		c-5.13-16.17-10.45-32.27-15.73-48.38c-1.72-5.25-5.64-8.93-9.31-12.78c-7.34-7.72-15.17-14.94-22.25-22.95
		c-6.41-7.27-9.05-15.18-8.06-24.7c1.17-11.23,1.85-22.52,2.98-33.75c1.64-16.25,1.5-32.47,0.17-48.75
		c-0.61-7.53-2.27-14.98-1.27-22.71c0.75-5.79,3.19-10.8,5.25-16.02c0.45-1.14,1.74-1.97,3.91-1.26c1.81,3.35,1.2,7.36,0.6,11.13
		c-1.03,6.51,0.53,11.62,6.02,15.62c2.66,1.94,4.86,4.56,7.1,7.02c5.7,6.29,7.97,13.64,6.38,22.05c-0.91,4.83-0.77,9.3,3.78,12.63
		c2.63-0.85,2.72-3.32,3.46-5.36c4.2-11.68,9.89-22.51,17.88-32.1c4.49-5.39,7.87-11.49,11.16-17.69
		c5.78-10.87,11.34-21.78,15.39-33.45c2.53-7.29,7.13-13.53,11.36-19.91c1.45-2.18,3.3-5.01,5.5-5.62
		c6.78-1.86,8.9-7.32,11.49-12.65c0.57-1.18,1.29-2.3,2.92-2.45c2.6,1.37,2.16,3.98,1.71,6.07c-2.03,9.39-3.33,18.98-7.1,27.95
		c-1.02,2.42-1.52,5.08-2.13,7.66c-2.01,8.42-4.36,16.71-7.8,24.69c-1.38,3.21-3.51,6.35-3.14,10.14c2.3,0.85,3.29-0.81,4.05-2.02
		c6.9-10.98,14.99-21.08,22.85-31.36c4.82-6.31,8.62-13.41,12.75-20.24c2.63-4.36,6.06-7.77,10.16-10.82
		c4.79-3.55,9.07-7.79,13.56-11.74c1.92-1.69,3.36-4.11,6.51-4.56c2.93,6.27-1.76,11.79-1.03,18.21c3.09-0.17,4.28-2.74,6.14-4.19
		c2-1.55,3.19-4.43,6.56-4.05c2.36,2.24,1.04,5.08,0.62,7.38c-1.72,9.48-3.65,18.93-5.96,28.27c-1.44,5.81-3.75,11.4-7.2,16.38
		c-5.52,7.98-9.68,16.66-13.56,25.52c-2.54,5.78-5.34,11.45-9,16.66c-3.14,4.47-4.78,9.45-4,15.06c0.34,2.45,1.25,4.46,3.31,5.85
		c1.77,0.38,3.3-0.3,4.77-1.09c10.54-5.64,21.03-11.11,29.16-20.45c6.53-7.5,14.25-13.98,21.59-20.75c2.18-2.01,4.63-4.24,7.34-5.05
		c7.04-2.1,13.12-6.01,19.13-9.59c2.11,1.74,1.5,3.46,0.88,4.87c-6.72,15.27-14.67,29.76-25.98,42.28
		c-12.29,13.61-25.11,26.55-39.6,37.9c-7.07,5.54-12.61,12.58-16.1,21.21c-5.35,13.26-12.51,25.72-17.53,39.15
		c-2.11,5.63-5.4,10.57-10.36,14.39c-5.61,4.31-6.86,9.86-4.77,16.88c5.56,18.65,14.3,35.73,24.95,51.83
		c13.22,19.99,26.96,39.63,40.28,59.55c13.44,20.09,22.7,42.02,29.25,65.29c3.29,11.68,3.37,23.47,4.18,35.29
		c0.36,5.31,0.28,10.67,0.02,15.99c-0.64,13.14,2.62,25.63,5.19,38.36c3.26,16.09,11,29.81,19.99,44.16
		c-6.41-1.21-8.92-6.98-14.44-9.88c0.72,6.2,1.36,11.39,1.93,16.58c1.96,17.8,1.08,35.21-7.16,51.58c-0.7,1.4-1.07,3.16-3.2,3.82
		c-1.5-2.35-0.71-5-0.91-7.47c-0.51-6.28-0.96-12.56-1.45-18.84c-0.22-2.82-1.9-4.97-3.52-7.05c-5.75-7.34-11.87-14.36-18.6-20.84
		c-4.16-4-9.29-5.39-14.62-4.57c-3.12,0.48-5.8,0.2-8.75-0.42c-21.47-4.51-42.96-8.89-64.44-13.33c-7.82-1.61-15.65-2.77-23.68-3
		c-21.62-0.61-42.98-3.86-64.31-7.1c-17.73-2.69-35.56-4.55-53.29-7.12c-24.96-3.62-50.28-4.44-75.05-9.47
		c-6.09-1.24-11.86,1.08-17.74,1.8c-2.18,0.27-4.1,3.16-6.01,4.98c-6.49,6.17-12.03,13.45-20.36,17.18
		c-1.11,3.71,1.32,5.95,2.87,8.31c14.78,22.56,29.29,45.28,43.61,68.13c10.38,16.59,17.05,34.61,22.23,53.21
		c2.91,10.43,1.57,21.13-1.69,31.44c-1.4,4.42-2.88,8.89-4.97,13.01c-13.04,25.78-33.17,42.84-61.65,49.39
		c-3.55,0.82-7.14,1.52-11.62,2.46c0.49,13.36-6.73,25.24-7.85,38.61c-0.53,6.29,0.09,11.81,3.46,17.14
		c3.39,5.36,7.39,10.05,11.88,14.61c20.09,20.43,42.3,38.65,61.84,59.63c11.11,11.93,21.94,24.09,32.07,36.89
		c5.67,7.16,8.95,15.6,12.96,23.54c10.27,20.31,22.3,39.25,36.83,56.8c17.4,21,33.82,42.82,51.2,63.84
		c10.8,13.06,22.63,25.26,33.93,37.9c14.18,15.87,28.29,31.81,42.43,47.72c16.78,18.87,33.65,37.68,50.28,56.68
		c2.74,3.13,4.12,7.43,6.75,10.7c5,6.21,10.49,12.02,15.71,18.06c45.53,52.66,89.23,106.72,125.83,166.13
		c28.04,45.51,51.06,93.38,66.61,144.65c5.8,19.12,9.82,38.6,11.88,58.53c1.16,11.27,1.22,22.57,2.08,33.81
		c0.74,9.64,0.58,19.27,1.22,28.86c1.63,24.39-0.4,48.47-4.91,72.43c-0.55,2.9-0.72,6.01-0.36,8.93c3.06,24.55,2.3,49.19,1.22,73.78
		c-1.89,43.04-9.93,85.11-22.32,126.3c-21.98,73.06-57.6,138.83-108.33,195.87c-32.4,36.43-68.49,68.88-111.15,93.37
		c-17.99,10.33-36.92,18.33-56.62,24.56C1134.91,2488.5,1121.88,2495.12,1108.1,2500.47z M495.32,935.02
		c-3.41,2.04-4.26,4.69-5.66,6.9c-6.8,10.68-14.07,21.11-23.18,29.87c-7.9,7.61-12.3,17.28-17.79,26.33
		c-2.2,3.63-1.75,7.5,0.7,11.26c16.21,24.93,28.49,51.77,38.74,79.62c4.01,10.91,8.28,21.75,14.4,31.74
		c14.78,24.13,31.09,47.19,48.7,69.32c2.18,2.74,4.56,5.53,7.97,7.26c0.81-1.14,1.66-1.85,1.89-2.73
		c3.28-12.57,8.01-24.65,12.37-36.85c8.5-23.79,16.87-47.67,30.04-69.42c5.87-9.7,7.44-19.73,4-30.55c-1.2-3.8-2.33-7.62-3.35-11.47
		c-0.86-3.28-2.38-6.09-4.53-8.76c-7.32-9.1-13.12-19.2-18.75-29.4c-4.96-8.99-10.09-17.88-15.26-27.02
		C534.82,977.53,512.09,961.21,495.32,935.02z"/>
	<path class="st0" d="M655.78,1302.15c1.64,5.24,7.53,8.09,7.89,14.05l0.21-0.2c-6.76-0.96-12-5.27-17.87-8.17
		c-3.82-1.89-7.38-4.33-11.88-5.37c0.75,3.53,3.8,4.14,5.83,5.76c23.39,18.68,49.06,34.34,71.66,54.07c3.26,2.84,6.38,5.84,9.5,8.83
		c14.76,14.14,32.13,23.45,52.03,27.99c3.54,0.81,7.23,0.97,10.86,1.41c1.97,0.24,3.97,0.29,5.9,0.72c1.58,0.35,3.06,1.14,4.51,1.7
		c0.36,16.87-5.75,32.12-11.05,47.33c-13.45,38.65-28.31,76.76-47.07,113.24c-2.93,5.69-6.3,10.95-10.84,15.41
		c-12.34,12.13-24.17,24.8-37.21,36.23c-11.67,10.23-24.48,18.14-39.61,22.28c-4.83,1.32-8.55-0.45-12.28-2.4
		c-6.2-3.25-9.48-9.14-12.34-15.24c-3.88-8.27-4.83-17.21-5.95-26.1c-1.21-9.56-1.48-19.32-1.37-28.8
		c0.14-11.52,0.6-23.19,1.81-34.77c3.28-31.46,9.59-62.34,16.88-93.06c0.99-4.19,1.26-8.44,0.72-12.8
		c-4.06-32.33-9.64-64.37-17.41-96.04c-2.37-9.65-7.39-17.82-12.41-25.96c-6.98-11.32-10.95-23.37-11.9-36.55
		c-0.15-2.05,0.34-3.91,0.53-5.85c0.64-6.58,1.5-13.25-1.58-19.72c-4.04,1.06-3.37,6.3-7.38,7.78c2.2-13.29,4.58-26.32,6.47-39.42
		c1.35-9.32,4.34-17.88,8.41-26.4c7.06-14.75,10.52-30.78,14.55-46.58c1.31-5.15,2.75-10.3,4.63-15.26
		c7.92-20.9,13.53-42.39,17.25-64.42c1.29-7.66,0.12-14.14-4.82-20.5c-12.24-15.77-23.92-31.98-34.19-49.14
		c-0.5-0.84-0.85-1.77-1.45-3.02c7.37-3.61,15.46-3.2,23.06-4.7c18.37-3.63,34.74-11.09,49.14-22.97
		c12.34-10.18,20.83-23.18,27.06-37.73c1.55-3.63,1.72-7.63,1.57-11.59c0.73-0.15,2.1-0.09,0.57-1.16c-0.29-0.2-0.74,0.72-0.36,1.35
		c-4.22-0.67-4.74,3.13-6.02,5.46c-3.21,5.86-6.95,11.3-10.82,16.73c-8.42,11.82-20.35,20.01-30.56,29.94
		c-7.45,7.24-17.96,10.08-27.76,13.16c-13,4.09-26.32,6.7-40.18,6.35c-21.18-0.53-39.59-7.86-55.66-21.33
		c-4.3-3.61-7.96-7.97-12.04-11.85c-10.29-9.77-14.04-22.43-15.23-35.9c-1.09-12.3,1.16-24.53,2.57-36.73
		c0.38-3.25,1.38-6.58,2.78-9.55c10.83-22.89,22.18-45.6,37.85-65.57c11.77-14.99,19.29-31.67,24.84-49.56
		c0.98-3.17,2.46-6.18,3.41-9.36c1.63-5.39,2.94-10.65,1.57-16.57c-1.68-7.26,0.77-14.47,2.42-21.57c1.11-4.79,2.49-9.53,4.1-15.62
		c-10.13,4.19-15.48,12.32-22.69,18.48c-0.27-9.78,9.88-32.25,24.17-53.63c-5.99-2.2-12.24-1.99-19.21-3.55
		c6.63-4.65,14.9-5.03,19.64-11.06c-1.7-3.44-5.25-0.93-7.2-2.89c0.24-0.47,0.35-1.21,0.75-1.43c8.77-4.81,17.07-10.34,24.97-16.48
		c1.84-1.43,3.7-2.87,5.72-4.01c10.14-5.71,20-8.84,31.84-2.95c19.94,9.92,40.89,17.63,61.89,25.1c4.11,1.46,8.02,3.4,11.21,6.38
		c4.95,4.61,11.14,7.2,16.81,10.6c5.36,3.22,7.64,2.63,12.37-1.8c2.43-2.28,4.71-4.71,7.07-7.07c4.57-4.57,6.17-10.1,5.44-16.43
		c-0.82-7.08-2.76-9.01-9.98-9.71c-0.66-0.06-1.34,0.02-1.99-0.09c-0.63-0.11-1.23-0.38-2.24-0.72c0-3.06,0-6.28,0-10.44
		c9.49-3.9,20.35-6.15,29.18-13.35c6.68,7.01,10.98,15.37,21.26,18.3c-8.19,6.58-15.44,12.22-22.47,18.11
		c-6.77,5.67-14.03,11.08-16.25,21.46c6.13-0.94,9.4-4.43,12.71-7.84c9.31-9.58,19.59-17.98,30.72-25.38
		c3.5-2.33,6.7-3.56,11.09-2.12c4.04,1.33,8.46,1.64,12.75,1.99c3.92,0.32,7.9,0.37,13.17-2.28c-3.8,7.08-10.91,6.19-13.96,10.83
		c-1.22-0.36-2.36-0.39-3.33,0.77c1.55,1.2,2.68,1.24,3.15-0.97c6.54,3.76,13.84,4.01,22.11,4.68c-1.76,1.29-2.97,2.19-4.95,3.64
		c9.7,10.66,18.29,21.84,24.3,35.75c-4.52-0.75-6.41-4.94-11.12-6.24c3.02,6.18,6.9,10.93,10.17,16.02c1.61,2.5,3.36,4.91,4.95,7.43
		c0.79,1.25,0.42,2.52-0.45,3.64l0.21,0.01c-0.88-0.85-1.46-2.22-3.75-1.57c2.26,3.43,4.3,6.76,6.57,9.94
		c5.66,7.93,9.8,16.53,12.19,25.99c0.97,3.85,2.25,7.64,3.59,11.39c0.78,2.16,1.46,4.75,3.05,6.17c8.67,7.66,13.27,18,18.97,27.65
		c9.98,16.88,20.26,33.57,30.21,50.46c7.43,12.61,13.86,25.75,19.77,39.14c7.36,16.69,8.13,34.06,5.11,51.78
		c-1,5.88-2.31,11.71-3.26,17.6c-1.36,8.43-6.77,14.44-12.58,19.8c-11.1,10.25-23.82,18.05-38.54,22.14
		c-17.1,4.75-34.16,4.1-51.11-0.84c-4.46-1.3-8.76-3.17-13.24-4.38c-22.06-5.99-38.74-19.71-53.26-36.64
		c-2.16-2.52-4.58-4.83-7.02-7.09c-9.43-8.75-16.15-19.32-21.15-31.08c-0.22,0.06-0.43,0.12-0.65,0.18c0.3-0.08,0.6-0.17,0.89-0.25
		c-1.1,2.19-1.23,4.46-0.5,6.78c4.78,15.16,12.05,29.56,23.67,39.9c24.35,21.67,51.68,38.48,85.66,40.45
		c0.94,0.05,1.86,0.55,2.92,0.88c0.29,3.47-1.03,6.53-1.95,9.65c-5.82,19.77-6.36,40.02-4.1,60.23c1.36,12.14,8.27,22.33,15.84,31.7
		c5,6.18,10.51,11.9,16.67,17.09c6.84,5.77,13.18,12.25,18.49,19.51c7.1,9.71,15.42,18.26,23.93,26.67
		c9.23,9.11,17.86,18.72,25.41,29.31c6.57,9.21,14.21,17.53,22.31,25.43c2.27,2.21,5.27,3.95,6.07,7.41l0.23,0.24
		c-7.64-3.54-14.44-8.96-24.09-11.37c4.29,8.06,11.41,11.69,16.39,17.96c-4.4,0.6-7.18-2.77-10.99-2.63
		c-2.42,3.5,3.86,5.12,1.77,8.96c-5.67-3.21-11.32-6.41-16.7-9.46c-2.97,1.61-1.84,3.56-1.43,5.4c3.97,17.83,7.93,35.66,12.88,53.25
		c0.16,0.57-0.19,1.28-0.32,2.05c-4.15-2.02-4.08-7.43-8.53-10.06c-2.11,5.82-0.22,11.78-1.43,17.39
		c-1.26,5.83-2.04,11.77-3.08,17.65c-0.99,5.56-2.01,11.11-3.09,16.66c-1.13,5.8-2.36,11.59-3.56,17.48
		c-2.52-1.15-1.48-4.54-4.46-5.52c-1.56,1.68-1.12,4.07-1.61,6.12c-3.17,13.27-7.65,26.14-12,39.05
		c-8.4,24.93-14.33,50.41-17.43,76.59c-2.65,22.4-6.19,44.7-9.09,67.07c-0.85,6.58-0.93,13.26-1.18,19.9
		c-0.44,11.95,0.5,23.89-1.18,35.86c-1.35,9.6,0.07,19.24,2.54,28.65c1.11,4.23,1.72,8.55,1.16,12.86
		c-1.88,14.6-14.68,21.02-28.12,16.67c-4.92-1.59-8.26-5.11-10.03-10.33c-4.05-11.96-8.26-23.85-11.02-36.21
		c-7.82-35.02-15.71-70.03-23.66-105.02c-3.39-14.94-5.97-29.92-5.85-45.36c0.05-6.91-0.99-13.87-1.34-20.84
		c-0.35-7,1.17-13.4,4.59-19.09c10.19-16.99,15.65-35.95,22.99-54.11c7.22-17.87,13.8-36.01,20.63-54.04
		c3.56-9.4,8.39-18.01,14.54-26.03c3.72-4.85,8.84-9.23,8.96-16.18c1.41,0.34,1.93-0.65,2.46-1.63l0.52-0.39l-0.26,0.64
		c-1.47-0.47-2.43-0.14-2.54,1.58c-1.99-0.07-2.49,1.76-3.62,2.8c-1.35,1.25-2.22,3.3-4.61,2.92l0.2,0.17
		c-2.21-2.12,0.14-5.04-1.37-7.76c-3.58,3.95-4.68,8.88-6.89,13.19c-2.42,4.73-4.42,9.68-7.1,14.25
		c-8.75,14.91-16.03,30.61-24.8,45.53c-7.58,12.9-12.55,27.12-17.57,41.22c-4.56,12.81-9.4,25.53-13.67,38.44
		c-1.25,3.79-3.62,6.11-6.52,8.75c-6.21-2.86-12.39,0-18.56,0.43c-7.23,0.51-13.84-0.63-20.4-3.32c-9.57-3.93-18.57-8.91-27.3-14.4
		c-2.8-1.76-5.49-3.77-7.94-5.99c-18.47-16.73-36.92-33.48-55.25-50.36c-6.36-5.86-12.38-12.08-18.55-18.14l0.11,0.21
		c-0.82-0.75-1.64-1.5-2.41,0.06l0.1-0.25c-1.94-0.75-3.49-2.82-5.96-1.76c0.17-1.5-0.57-2.09-2-2c0.1-1.44-0.57-2.12-2.01-2.02
		l-0.23-0.45c0,0,0.49,0.2,0.48,0.2c-0.19,1.48,0.49,2.15,1.96,2.08C653.68,1301.57,654.36,1302.22,655.78,1302.15z M770.33,1145.23
		c-5.02-7.62-7.54-8.45-18.63-6.14C764.49,1145.57,764.49,1145.57,770.33,1145.23z"/>
	<path class="st0" d="M1347.68,1660.11c0.36,5.89,3.85,10.54,6.49,15.41c12.51,23.1,23.79,46.81,34.44,70.79
		c4.65,10.48,7.96,21.59,8.24,33.46c0.13,5.5,2.36,11,3.98,16.4c6.31,21.06,8.97,42.8,12.32,64.42c0.34,2.19,0.05,4.49-0.35,6.77
		c-9.13-37.62-22.14-73.78-38.31-108.82c-13.97-30.27-31.14-58.68-49.94-86.14c-0.73-1.07-1.47-2.23-3.06-2.09
		c0.36-0.98,0.08-1.8-0.69-2.44c-0.04-0.03-0.9,0.59-0.89,0.89c0.04,1.06,0.65,1.61,1.78,1.36c-0.45,1.77,0.32,3.19,1.15,4.68
		c6.61,11.93,13.6,23.68,19.66,35.88c22.2,44.71,44.04,89.57,57.71,137.89c6.8,24.03,12.24,48.3,14.96,73.13
		c1.74,15.89,0.91,53.9-1.08,70.49c-0.42,3.5-0.06,7.08-0.06,12.05c5.18-7.62,5.17-15.47,6.97-22.65c1.85-7.38,2.88-15.01,3.71-22.6
		c0.79-7.26,1-14.6,1.19-21.91c0.19-7.64,0.04-15.3,0.04-24.63c3.76,8.18,4.22,15.43,5.03,22.41c3.8,32.72,6.04,65.48,4.46,98.51
		c-2.55,53.18-12.71,104.81-29.85,155.1c-19.73,57.86-48.75,110.7-86.47,158.79c-14.17,18.06-28.69,35.83-44.18,52.77
		c-3.8,4.16-8.04,7.98-12.37,11.59c-20.46,17.06-42.34,32.1-65.93,45.88c-0.61-3.59,1.46-5.33,3.21-7.06
		c7.12-7.01,14-14.22,20.36-21.95c21.53-26.15,38.29-55.14,51.78-86.13c13.22-30.37,22.11-61.98,26.98-94.68
		c1.41-9.43,3.43-18.94,2.56-28.77c-3.14,0.93-2.97,3.61-3.39,5.64c-9.18,44.51-24.61,86.96-42.22,128.7
		c-1.61,3.83-2.57,8.16-6.49,10.61l0.22,0.19c-0.45-2.07,0.29-3.85,1.1-5.74c10.91-25.53,18.06-52.2,22.16-79.55
		c3.3-22.04,3.8-44.35,2-66.63c-0.04-0.45-0.71-0.85-1.06-1.24c-2.02,0.26-1.72,1.85-1.81,3c-3.05,41.25-11.09,81.63-22.27,121.34
		c-10.63,37.74-26.81,73.02-49.73,105.04c-3.52,4.91-7.43,9.23-12.46,12.73c-23,15.97-46.63,30.82-72.59,41.6
		c-1.52,0.63-2.91,1.63-4.67,1.41c-0.33-0.04-0.64-0.18-1.41-0.4c-1.78-4.44,0.14-8.98,1.25-13.18c2.74-10.4,2.93-20.98,4.04-31.54
		c2.34-22.31-3.95-42.76-11.84-62.89c-8.01-20.43-16.75-40.58-25.34-60.77c-2.52-5.93-3.86-11.72-3.3-18.35
		c0.71-8.55-0.22-17.12-1.56-25.74c-1.21-7.75-1.11-16.06,0.27-23.8c4.72-26.48,9.49-52.92,18.31-78.55
		c5.84-16.98,12.47-33.66,18.08-50.71c2.91-8.84,5.5-17.79,8.23-26.69c1-3.27,0.26-7.43,5.13-8.67c1.01-0.26,1.69-2.7,2.09-4.25
		c1.17-4.49,2.2-9.03,3.14-13.57c0.8-3.86,1.04-7.87,3.34-11.59c2.38,5.62,2.61,11.59,3.72,17.29c1.01-0.17,2.08-0.27,2.07-0.35
		c-0.21-10.31,5.11-19.51,5.16-30.04c0.07-14.37-1.5-28.47-3.07-42.65c-0.4-3.63-2.41-8.28-0.89-10.7
		c5.83-9.26,0.66-17.92-0.63-26.49c-6.71-44.6-20.65-87.26-36.37-129.37c-1.86-4.98-3.95-9.9-6.21-14.71
		c-6.59-14.01-9.29-29.08-12.23-44.08c-1.31-6.68,0.91-13.28,2.01-19.73c1.34-7.88,2.01-15.83,2.82-23.71
		c2.69-26.08,4.12-52.3,7.06-78.35c2.72-24.06,6.77-47.98,10.24-71.96c1.62-11.17,3.58-22.29,4.78-33.5
		c2.37-22.11,4.35-44.26,6.42-66.4c0.99-10.58,0.23-21.21,1.46-31.85c1.18-10.24-1.42-20.47-3.2-30.61
		c-5.6-31.8-12.99-63.14-23.72-93.65c-6.96-19.78-14.34-39.38-23.3-58.34c-0.57-1.2-1.27-2.31-0.69-3.9
		c2.03-0.84,2.55,1.06,3.45,2.15c27.95,33.84,57.14,66.62,86.28,99.43c25.16,28.35,51.06,56.05,76.17,84.44
		c35.71,40.36,70.85,81.21,101.48,125.69c30.5,44.27,56.83,90.84,76.92,140.77c9.44,23.46,17.09,47.56,22.97,72.19
		c1.78,7.43,3.91,14.78,5.58,22.24c3.72,16.6,3.91,33.52,3.43,50.65c-1.22-4.87-2.41-9.75-3.66-14.61
		c-6.31-24.54-14.85-48.31-24.78-71.58c-17.54-41.1-39.22-80.03-62.12-118.33c-1.16-1.93-1.73-4.39-4.41-4.96
		c0.69-2.52-0.73-3.8-2.51-5.03c-0.99,1.24-0.5,2.01-0.01,2.82C1345.59,1659.14,1346.06,1660.39,1347.68,1660.11z"/>
	<path class="st0" d="M929.91,276.11c-0.15,1.63,1.07,2.48,2.18,2.96c9.59,4.11,14.46,12.58,18.64,21.19
		c9.15,18.84,17.6,38.02,26.49,57c4.09,8.73,8.52,17.3,12.83,25.94c0.72,1.44,2.02,2.73,0.61,4.72
		c-9.52-9.19-17.48-19.73-26.8-29.05c8.5,17.33,21.2,31.35,35.18,44.27c14.2,13.13,30.63,23.1,47.61,32.37
		c-47.4,0.02-90.87-13.07-132.65-38.3c7.1-0.98,11.62,2.85,16.97,3.76c-0.36-1.24-0.38-2.12-0.67-2.21
		c-7.7-2.61-14.3-6.97-20.24-12.43c-1.24-1.14-2.58-2.11-4.38-2.09l0.33,0.35c0.03-4.31-3.15-7.25-4.75-10.85
		c-2.33-5.25-2.17-11.45-4.93-16.07c-2.69-4.52-5.38-8.86-7.28-13.83c-9.51-24.91-19.9-49.38-35.4-71.35
		c-6.15-8.71-13.27-16.56-20.17-25.04c-2.16,2.76,0.21,3.98,1.03,5.24c11.42,17.59,23.12,35.05,31.98,54.11
		c6.71,14.45,12.54,29.3,18.84,43.93c2.89,6.72,5.99,13.35,9.05,20.14c-1.63,1.95-2.71-0.1-3.77-0.96
		c-4.38-3.52-9.17-6.66-11.14-12.42c-0.5-1.46-2.12-1.28-3.69-0.95c-2.1,1.93,0.39,6.05-4.09,7.79c-5.23-1.26-11.33-2.78-17.66-2.53
		c-0.91,0.04-1.94-0.51-2.76-1.03c-23.17-14.62-44.19-31.76-61.51-53.14c-3.99-4.93-6.82-10.53-9.15-16.48
		c-1.5-3.82-2.51-8.15-6.91-12.23c1.53,11.92,7,21.13,10.27,31.99c-5.05-2.55-6.55-6.87-9.6-9.64c-1.88,1-0.83,2.37-0.31,3.22
		c10.11,16.54,22.41,31.36,35.85,45.26c0.4,0.42,1.2,0.46,1.81,0.67l-0.36-0.37c-0.16,0.95-0.31,1.9-0.56,3.38
		c-6.11-1.29-10.93-4.88-15.9-7.83c-34.4-20.36-58.37-50.05-75.03-85.85c-3.15-6.77-3.78-14.72-5.52-22.14
		c-0.14-0.59-0.14-1.69,0.17-1.85c6.6-3.58,2.1-8.43,0.67-11.91c-4.68-11.33-6.61-22.87-5.81-35.06c0.58-8.76,1.38-9.9,10.5-10.74
		c1.63-0.15,3.4,0.12,4.21-1.85c-2.61-1.81-2.78-1.83-5.63-2.13c-0.89-1.49,1.58-1.61,1.11-3.02c-1.43-1.75-3.83,0.28-5.47-1.25
		c-0.99-1.82-0.85-3.74-0.18-5.57c1.16-1.64,2.9-1.94,4.5-1.97c13.52-0.28,24-7.05,33.54-15.68c6.95-6.29,12.73-13.6,17.31-21.8
		c0.82-1.46,1.4-3.04,3.36-3.28c-0.61,16.19-1.42,18.08-18.59,42.78c5.22,0.28,10.16,0.04,14.92,0.87
		c33.9,5.87,66.32,16.27,97.81,30.3c22.81,10.16,42.56,24.47,62.08,39.52c22.7,17.5,46.35,33.6,72.76,45.12
		c9.75,4.25,19.79,7.88,30.57,8.71c0.96,0.07,1.96,0.36,2.83,0.76c0.55,0.25,0.92,0.91,1.71,1.75c-8.25,4.02-16.91,5.05-25.74,5.39
		c-22.39,0.87-43.47-4.46-63.88-13.26c-5.74-2.48-11-6.22-17.4-7.09c-0.68-1.75-1.64-2.35-3.2-0.83
		C927.59,276.41,928.69,276.6,929.91,276.11z M867.75,350.22c0.17,0.63-0.23,2.09,1.22,0.83c-0.48-0.2-0.96-0.41-1.44-0.61
		c0.14-1.45-0.54-2.1-1.97-2c-0.42-3.5-1.42-6.54-6.4-7.53c1.88,3.5,3.37,6.16,6.6,7.33C865.66,349.67,866.3,350.35,867.75,350.22z
		 M791.59,230.47c-0.17-0.5-0.35-1-0.52-1.5c-0.26,0.26-0.52,0.53-0.78,0.79c0.5,0.17,1,0.34,1.51,0.52
		c-0.13,1.44,0.55,2.09,1.97,2.01c-0.09,1.43,0.58,2.09,2,2c-0.09,1.43,0.59,2.09,2.02,1.98c-0.1,1.43,0.49,2.17,1.99,2
		c0.84,4.79,4.12,7.62,7.97,10.01c-0.07,1.41,0.52,2.16,2.01,2c0.42,3.85,2.54,6.43,6,8.01c-0.29,1.39,0.23,2.49,1.03,3.64
		c6.95,10.1,13.78,20.27,19.56,31.11c0.73,1.38,1.51,2.99,3.46,3.18c1.92,8.29,6.98,14.97,11.47,21.96
		c-3.22-7.39-5.62-15.17-10.71-21.64c-0.15-0.19-0.64-0.1-0.97-0.14c-0.2-1.27-0.14-2.64-0.63-3.79
		c-5.29-12.44-13.61-22.94-21.66-33.61c-0.3-0.4-1.14-0.38-1.73-0.56c-0.37-3.88-2.56-6.4-5.97-8.01c0.06-1.41-0.52-2.16-2.01-2
		c-0.52-5.06-4.6-7.24-8.02-9.96c0.11-1.44-0.54-2.12-1.99-2.01c0.09-1.44-0.56-2.12-2.02-1.98c0.11-1.45-0.54-2.13-2-2
		C793.69,231.04,793.04,230.36,791.59,230.47z M831.55,308.5c0.12-2.93-1.52-4.79-3.79-6.28c-0.62-2.5-1.1-5.11-4.31-5.63
		c0.05-0.82,0.66-2.15-1.15-1.24c0.46,0.35,0.91,0.69,1.37,1.04c0.5,2.59,0.75,5.38,4.32,5.63c-0.61,3.22,0.87,5.18,3.78,6.29
		c-0.05,2.9,1.1,5.02,3.9,6.09c0.15,2.17,0.53,4.12,3.48,3.74c-0.82-1.64-1.08-3.81-3.68-3.56
		C835.85,311.47,834.08,309.74,831.55,308.5z M863.56,270.49c-0.09-0.76,0.39-2.39-1.2-0.95c-0.28,0.26,0.62,0.99,1.41,0.76
		c2.72,8.37,7.01,16,11.22,23.66c0.09,0.17,0.62,0.09,0.95,0.13c0.61,8.59,4.85,15.84,8.7,23.22c-1.61-8.2-3.39-16.33-8.91-23.04
		C873.71,285.29,870.07,277.16,863.56,270.49z M847.11,328.79c-0.27,2.21-0.28,4.15-2.3,5.2c-2.96,1.53-5.85,3.21-7.88,5.94
		c-0.89,1.2-2.26,2.58-0.1,4.51c4.46-3.14,8.85-6.56,13.57-9.44c4.52-2.75,9.39-4.93,15.47-8.07
		C858.29,326.39,853.19,331.77,847.11,328.79z M777.49,216.72c-1.01,0.32-1.29,0.83-0.74,1.3c1.87,1.61,3.25,3.87,7.28,5.13
		C781.67,219.88,780.17,217.73,777.49,216.72z M891.72,334.37c-2.03-1.97-0.58-4.36-4.2-5.06
		C888.37,331.15,887.15,333.44,891.72,334.37z M716.18,183.29c-0.57-0.23-1.13-0.53-1.73-0.66c-0.16-0.04-0.64,0.57-0.62,0.6
		c0.31,0.4,0.73,1.08,1.04,1.04C715.35,184.21,715.75,183.65,716.18,183.29z M861.15,264.33c-0.17-0.24-0.35-0.47-0.52-0.71
		c-0.24,0.47-0.53,0.93-0.67,1.43c-0.04,0.16,0.38,0.64,0.52,0.62C861.24,265.54,861.45,265.04,861.15,264.33z M886.6,323.79
		l0.38-0.57l-0.58-0.08L886.6,323.79z M842.68,322.67c-0.2,0.16-0.55,0.31-0.57,0.5c-0.02,0.19,0.28,0.41,0.44,0.62
		c0.2-0.16,0.55-0.31,0.57-0.5C843.14,323.11,842.84,322.88,842.68,322.67z M852.24,253.31l0.53,0.35l0.07-0.57L852.24,253.31z
		 M855.29,325.27c-0.18-0.23-0.36-0.45-0.53-0.68c-0.22,0.19-0.6,0.36-0.62,0.56c-0.02,0.21,0.31,0.45,0.49,0.67
		C854.85,325.64,855.07,325.45,855.29,325.27z M892.24,343.3l0.53,0.35l0.07-0.57L892.24,343.3z"/>
	<path class="st0" d="M855.87,2460.3c-4.17-0.48-6.7,2.66-9.58,4.66c-29.23,20.34-58.01,41.29-85.21,64.31
		c-11.42,9.67-23.12,19.01-33.75,29.58c-1.25,1.24-2.32,3.41-4.94,2.38c-1.06-2.72,1.25-4.19,2.43-5.96
		c11.65-17.46,24.69-33.87,38.7-49.48c9.99-11.14,20-22.33,30.78-32.69c22.05-21.2,44.73-41.71,67.97-61.62
		c15.14-12.98,29.91-26.41,44.45-40.06c12.85-12.06,23.27-26.26,34.08-40.16c-2.81-2.16-3.88,0.28-5.16,1.43
		c-19,17.16-37.95,34.37-56.93,51.54c-0.47,0.43-1.18,0.6-1.79,0.9c-1.91-2.28,0.06-3.62,1.29-5.02
		c14.06-16.04,26.98-32.93,38.56-50.85c20.62-31.92,35.16-66.31,42.16-103.76c0.61-3.26,0.84-6.6,1.04-9.91
		c0.13-2.07,0.51-3.93,2.86-6.12c1.16,5.68,2.16,10.86,3.29,16.01c1.14,5.19,2.56,10.33,3.6,15.54c1.82,9.12,3.18,18.34,5.27,27.39
		c1.23,5.32-0.68,10.35,0,15.74c2.53,20.09,5.52,40.26,4.16,60.56c-0.8,11.96-0.71,23.91-1.27,35.85
		c-0.7,14.66,0.63,29.2,1.62,43.76c1.26,18.55,2.85,37.01,6.94,55.26c2.83,12.66,1.62,25.76,1.34,39.15
		c-10.18,1.77-19.92,3.48-29.65,5.15c-43.23,7.43-86.35,15.4-128.89,26.21c-35.15,8.93-69.92,19.12-103.02,34.25
		c-8.75,4-17.27,8.48-26.08,12.83c-1.99-2.76,0.14-4.3,1.7-5.78c10.9-10.26,21.58-20.78,32.84-30.63
		c35.54-31.09,72.48-60.5,109.07-90.34c4.07-3.32,9.05-5.62,11.9-10.35c0.49-0.23,0.97-0.46,1.46-0.69
		c-0.31-0.21-0.62-0.43-0.94-0.64C856.07,2459.27,855.97,2459.79,855.87,2460.3z"/>
	<path class="st0" d="M565.14,210.73c2.92,2.63,5.35,4.82,9.57,8.62c-2.94-8.41-7.9-13.58-8.71-20.28
		c-0.83-6.84-2.29-13.5-0.93-20.69c1.27-6.75,2.06-13.46,5.16-19.74c2.23,7.75,2.07,15.72,5.13,23.09
		c2.96,7.13,6.89,13.61,12.11,19.37c-1.8,8.42-5.45,16.04-6.2,24.36c-0.08,0.9-0.55,2.3-1.19,2.54c-4.95,1.91-4.16,6.4-4.62,10.18
		c-1.03,8.57-1.63,17.17-1.49,25.84c0.3,18.7,4.78,36.06,14.77,52.05c8.32,13.32,17.55,25.86,28.38,37.22
		c2.26,2.37,4.15,5.09,6.35,7.8c-8.89,5.79-18.1,0.72-29.19,1.91c11.31,5.56,21.23,7.05,32.9,8.28
		c-10.51,5.54-20.72,7.33-30.07,11.3c-9.47,4.03-18.98,7.97-29.15,12.23c4.97,9.15,12.07,15.93,19.32,22.45
		c8.12,7.3,17.03,13.56,27.43,17.39c3.59,1.33,5.89,4.03,7.73,7.41c6.49,11.96,14.01,23.38,17.13,36.95
		c0.95,4.15,3.16,8.01,4.79,11.99c-1.53,1.61-3.03,1.3-4.2-0.18c-1.32-1.67-2.98-2.29-4.97-2.92c-9.81-3.11-19.32-7.14-29.43-9.32
		c-4-0.86-7.26-3.26-10.65-5.34c-23.47-14.4-48.56-24.72-75.68-29.84c-4.38-0.83-8.78-1.48-13.21-2.94
		c12.57-4.73,24.66-10.39,39.3-10.65c-2.97-4.88-5.89-6.44-12.3-2.78c9.69-10.03,18.1-13.75,31.72-15.29
		c-0.55-3.15-3.04-2.92-5.32-3.08c-13.66-0.96-24.19-7.87-34.57-17.93c7.86,0.17,13.46,4.86,20.1,4.25
		c0.11-1.36-0.64-1.96-1.59-2.24c-16.42-4.77-29.75-14.76-42.29-25.74c-16.01-14.01-31.5-28.62-47.18-43.01
		c-0.41-0.38-0.41-1.2-0.87-2.67c4.61,0.23,8.96,0.47,13.32,0.67c4.64,0.21,9.38-0.66,13.91,0.77c3.27,1.03,5.78,1.55,9.04-1.09
		c2.22-1.81,6.38-1.09,9.58-1.87c3-0.73,6.86-0.48,7.48-4.95c10.13-5.68,20.53-10.79,32.15-12.5c3.53-0.52,6.77,2.77,11.78,1.68
		c-5.52-4.86-11.9-6.41-17.21-9.71c-5.58-3.47-11.47-6.56-17.04-13.24c10.83,2.85,18.76,9.51,28.79,9.01
		c-12.22-6.29-25.25-11.04-37.85-20.68c9.79,0.53,15.84,7.67,25.59,5.98c-6.51-5.17-13.54-6.09-19.34-9.39
		c-6.07-3.45-12.42-6.46-18.27-10.25c-5.85-3.79-11.46-8.03-16.75-12.58c-5.23-4.5-11.02-8.52-15.92-15.59
		c9.71,1.21,17.92,4.17,26.54,4.72c9.06,0.58,17.88-0.29,26.78-1.59c8.64-1.26,16.96-3.64,24.82-7.21
		C548.79,219.83,556.56,215.26,565.14,210.73z M545.03,323.55c6.83,0.26,6.93,0.21,12.98-5.73c-5.07,2.31-9.14,4.16-13.22,6.02
		c0.83,0.06,0.9,0.22,0.21,0.48C545.02,324.06,545.02,323.8,545.03,323.55z M510.38,331.41c5.21,2.6,10.13,5.29,15.25,7.55
		c4.79,2.12,8.07,5.23,10.32,10.12c3.49,7.56,8.13,14.56,13.83,20.66c5.75,6.16,12.07,11.67,22.48,14.37
		c-7.44-6.59-14.51-10.36-19.49-16.92c-8.55-11.26-10.91-14.59-11.06-19.98c7.22,1.38,13.65,6.05,21.44,4.96
		c-7.83-3.41-15.93-6.02-23.55-9.79c-7.73-3.83-15.4-7.8-23.2-11.47C514.79,330.15,512.65,329.46,510.38,331.41z M572.59,453.34
		c-11.59-7.2-23.63-13.28-37.57-14.53C547.73,443.18,559.77,449.26,572.59,453.34z M585.5,354.31c-2.84-1.92-4.76-1.99-7.47,0.05
		C580.77,356.35,582.69,356.33,585.5,354.31z M550.85,291.22c-0.56-0.22-1.11-0.5-1.69-0.61c-0.2-0.04-0.48,0.35-0.72,0.54
		c0.36,0.33,0.74,0.95,1.08,0.93C549.98,292.05,550.41,291.53,550.85,291.22z M569.39,353.15c-0.21-0.19-0.44-0.56-0.66-0.56
		c-0.22,0-0.45,0.37-0.67,0.57c0.32,0.22,0.64,0.44,0.96,0.66C569.13,353.62,569.24,353.41,569.39,353.15z M530.82,437.77l0.33-0.53
		l-0.58-0.05L530.82,437.77z M506.28,329.29l0.56,0.37l0.08-0.57L506.28,329.29z M500.43,327.31l0.53,0.37l0.09-0.55L500.43,327.31z
		 M553.39,427.14c-0.21-0.19-0.44-0.56-0.66-0.56c-0.22,0-0.45,0.37-0.67,0.57c0.32,0.22,0.64,0.44,0.96,0.66
		C553.13,427.61,553.24,427.4,553.39,427.14z"/>
	<path class="st0" d="M878.41,441.42c1.41-2.96,3.39-1.96,4.74-2.56c0.05-0.76,0.36-1.55,0.1-2.05c-2.92-5.83-4.09-11.7-2.07-18.22
		c1.05-3.4,0.91-7.17,1.3-10.68c1.82-0.8,3.3-1.46,5.54-2.45c-9.47-6.35-14.96-14.77-15.34-27.07c6.74,1.21,12.63,3.95,17.19,7.72
		c6.74,5.57,14.84,8.71,21.66,13.95c1.03,0.79,2.13,1.5,3.68,2.58c-1.13,22.3,4.58,43.31,14.15,63.31
		c9.48,19.81,22.97,36.48,41.29,49.1c-2.56,2.1-4.15,0.37-5.8-0.43c-11.32-5.53-22.55-11.22-33.96-16.57
		c-2.05-0.96-2.91-2.52-4.13-4c-6.56-8.01-13.95-14.94-22.9-20.4c-6.81-4.16-12.13-10.25-15.52-17.68
		c-1.26-2.77-2.79-5.28-4.98-7.39C881.22,446.49,879.34,444.23,878.41,441.42z"/>
	<path class="st0" d="M627.5,575.39c0.81-10.11,2.45-19.56,2.13-28.74c4.7-1.69,7.65,0.4,10.31,2.1
		c12.08,7.72,25.82,10.42,39.49,13.03c13.07,2.5,26.36,3.38,39.7,2.88c4.81-0.18,4.82-0.13,8.75-4.09c1.43,0.31,2.36,1.28,2.76,2.55
		c1.2,3.84,1.4,34.27,0.38,40.55c-0.61,0.22-1.2,0.51-1.82,0.65c-3.12,0.73-1.88-4.39-5.02-3.73c-2.26,0.48-4.53,0.99-6.83,1.2
		c-13.43,1.21-26.55-0.96-39.44-4.33c-10.27-2.69-20.4-6-30.47-9.4C640.09,585.57,634.19,580.54,627.5,575.39z M725.95,596.78
		c1.48-7.12,1.49-14.27,1.26-21.42c-0.04-1.38-0.56-2.54-3.13-1.93C724.33,581.08,723.3,588.93,725.95,596.78z"/>
	<path class="st0" d="M761.37,556.7c0.33-2.21,0.57-3.79,0.85-5.66c1.23,0.67,2.42,0.92,2.86,1.63c1.2,1.95,2.55,4.11,1.98,6.48
		c-2.17,8.99-0.83,18.47-4.16,27.89c-7.15,4.58-15.25,8.06-24.59,10.63c-1.71-10.97-2.51-21.58-2.69-32.43
		C743.79,561,753.33,561.74,761.37,556.7z"/>
	<path class="st0" d="M1444.61,1948.93c-3.96-25.73-9.01-51.08-14.93-76.29c-5.91-25.15-15.47-49.34-20.31-76.59
		C1424.93,1822.34,1450.87,1910.88,1444.61,1948.93z"/>
	<path class="st0" d="M730.51,629.84c3.56-0.78,5.24-2.52,5.31-5.61c0.03-1.32-0.36-2.73,0-3.93c0.61-2.06,2.36-3.1,4.45-3.39
		c1.91-0.26,3.13,0.87,3.95,2.4c2.71,5.05,2.95,10.25-0.18,15.08c-3.22,4.96-6.72,9.79-11.64,13.7c-6.2-2.84-11.59-6.56-16.5-11.04
		c-5.41-4.93-7.19-10.79-5.06-17.74C721.56,617.03,723.38,617.99,730.51,629.84z"/>
	<path class="st0" d="M811.74,350.4c0.1-2.64-1.85-4.09-3.34-5.83c-5.63-6.58-10.15-13.88-13.71-21.78
		c-0.54-1.19-1.27-2.37,0.09-4.09c13.08,13.94,26.72,27.2,42.64,38.02c-6.87,6.88-9.51,7.01-16.42,1.62
		c-3.35-2.61-5.19-6.96-9.62-8.3L811.74,350.4z"/>
	<path class="st0" d="M590.69,194.16c-4.09-8.62-3.26-16.57-3.16-24.43c0.03-2.15,1.15-3.89,2.91-4.94
		c5.61-3.32,10.88-7.35,18.68-9.39C604.65,169.63,596.34,180.71,590.69,194.16z"/>
	<path class="st0" d="M905.7,384.21c-0.3,0.91-0.61,1.82-1.16,3.48c-9.26-3.69-18.39-7.13-26.32-12.5c0.23-3.17,2.25-2.89,3.66-3.36
		c1.55-0.52,3.06-1.4,5.62-0.53c4.01,3.22,8.67,6.95,13.31,10.71c1.55,1.26,3,2.68,5.22,2.55L905.7,384.21z"/>
	<path class="st0" d="M739.6,149.12c-3.52,3.4-3.52,3.4-10.41,4.16c-0.47,1.4-0.95,2.87-1.44,4.33
		c-12.02,1.71-12.02,1.71-15.93-6.18C721.22,150.05,730.5,150.57,739.6,149.12z M719.88,155.39c1.03,0.75,1.96,1.7,3.14,0.32
		c0.11-0.13,0.12-0.5,0.01-0.63C721.91,153.66,720.94,154.5,719.88,155.39z"/>
	<path class="st0" d="M882.6,367.69c-1.84,1.14-3.66,1.35-5.54,0.1c-0.36-1.74,0.26-3.13,1.45-4.41
		C881.13,363.61,882.45,365.06,882.6,367.69z"/>
	<path class="st0" d="M889.49,1242.05c0.46,0.91-0.32,2.32-0.44,2.23c-1.56-1.13-0.79-1.73,0.65-2.05L889.49,1242.05z"/>
	<path class="st0" d="M1247.59,2368.03c-0.01-1.68-0.12-3.42,2.05-3.96l-0.22-0.19c0.22,1.79,0.6,3.67-2.06,3.97L1247.59,2368.03z"
		/>
	<path class="st0" d="M1247.37,2367.85c0.49,1.17,0.31,2.25-0.54,3.28c-1.47-1.48-1.02-2.45,0.76-3.1L1247.37,2367.85z"/>
	<path class="st0" d="M860.64,687.16c0.21-0.1,0.43-0.2,0.64-0.3c-0.14,0.1-0.29,0.21-0.43,0.31
		C860.85,687.17,860.64,687.16,860.64,687.16z"/>
	<path class="st0" d="M991.07,1202.56c0.18,0.1,0.36,0.21,0.55,0.31c0.22-0.6,0.12-0.62-0.32-0.07L991.07,1202.56z"/>
	<path class="st0" d="M663.77,1304.07c-0.73,0.75-1.46,0.45-2.2,0.02c0,0-0.1,0.25-0.1,0.25c0.8-0.02,1.6-0.04,2.41-0.06
		L663.77,1304.07z"/>
	<path class="st0" d="M663.66,1316.2c0.3,0.1,0.63,0.14,0.87,0.32c0.11,0.09,0.06,0.62,0.04,0.62c-0.69,0.1-0.93-0.3-0.7-1.14
		C663.87,1316.01,663.66,1316.2,663.66,1316.2z"/>
</g>
</svg>
