<?xml version="1.0" encoding="utf-8"?>
<!-- Generator: Adobe Illustrator 24.1.1, SVG Export Plug-In . SVG Version: 6.00 Build 0)  -->
<svg version="1.1" id="Layer_1" xmlns="http://www.w3.org/2000/svg" xmlns:xlink="http://www.w3.org/1999/xlink" x="0px" y="0px"
	 viewBox="0 0 810.11 1649.75" style="enable-background:new 0 0 810.11 1649.75;" xml:space="preserve">
<style type="text/css">
	.st0{fill:#1A1A1A;}
</style>
<g>
	<path d="M535.2,446.23c3.99,6.07,7.79,12.25,11.99,18.15c10.84,15.22,19.5,31.76,29.28,47.61c1.48,2.4,1.94,4.92,2.14,7.57
		c0.59,7.75-0.32,15.36-3.1,22.59c-4.46,11.56-10.14,22.63-18.6,31.68c-4.86,5.19-5.51,10.23-3.76,16.35
		c3.12,10.87,6.15,21.77,10.56,32.21c4.79,11.34,8.64,23.21,14.67,33.85c9.32,16.45,17.87,33.39,29.56,48.5
		c23.45,30.3,44.48,62.31,64.59,94.9c19.76,32.01,38.12,64.79,54.37,98.79c8.33,17.44,15.49,35.23,21.99,53.37
		c13.01,36.33,25.75,72.75,36.7,109.76c7.75,26.16,14.34,52.56,17.17,79.82c1.34,12.87,3.9,25.6,5.31,38.47
		c1.29,11.88,2.21,23.8,2.01,35.81c-0.13,7.8-1.45,15.21-4.36,22.35c-17.11,41.9-34.5,83.69-55.84,123.67
		c-15.67,29.35-31.9,58.4-48.8,87.07c-0.31,0.53-1,0.84-1.6,1.32c-2.7-2.85,0-5.34,0.79-7.66c6.72-19.85,13.82-39.57,20.52-59.42
		c11.7-34.7,21.25-70,26.92-106.21c2.56-16.39,4.42-32.9,5.13-49.54c0.4-9.28,1.18-18.55,1.27-27.86c0.05-4.62-1.34-8.27-4.05-11.86
		c-13.17-17.5-29.37-31.74-47.47-43.82c-12.43-8.3-25.57-15.42-39.43-22.64c-1.84,5.68,0.58,10.26,1.88,14.74
		c3.24,11.18,6.81,22.3,8.42,33.83c1.13,8.07,4.39,15.84,1.98,24.55c-1.23,4.44,0.42,9.91,1.54,14.73
		c1.69,7.29,0.77,14.59,0.96,21.89c0.09,3.39-1.11,6.48-3.01,8.97c-2.14,0.99-2.26-0.84-3.07-1.62c-0.81-0.31-1.18,0.01-1.36,0.9
		c-0.85,4.2-1.1,8.65-4.53,11.85c-1.64,1.54-1.29,3.68-1.79,5.56c-3.04,11.59-7.04,22.84-11.11,34.11
		c-7.45,20.66-12.63,41.87-15.4,63.82c-1.89,14.93,1.53,28.32,6.42,41.78c4.2,11.56,8.35,23.15,13.64,34.29
		c2.41,5.07,4.14,10.43,9.08,13.89c2.57,1.8,3.45,4.66,3.85,7.81c0.79,6.27,1.26,12.52,1.41,18.85c0.62,26.31-1.11,52.57-2.36,78.8
		c-0.92,19.28-1.24,38.52-0.97,57.79c0.11,8.16-0.77,15.91-4.87,23.12c-2.2,3.87-5.09,6.77-9.01,9.02
		c-15.67,9.01-32.73,11.33-50.2,9.41c-8.79-0.97-17.39-4.3-25.07-9.27c-6.48-4.19-9.49-9.51-7.69-17.6
		c2.58-11.63,3.89-23.44,9.87-34.26c3.12-5.64,4.79-12.5,4.81-19.22c0.05-16.65,0.89-33.34-0.64-49.95
		c-1.44-15.52-3.86-30.97-4.94-46.51c-0.73-10.62-1.71-21.2-3-31.75c-2.11-17.23-0.94-34.6-2.23-51.8
		c-2.01-26.8-4.95-53.57-12.23-79.64c-5.45-19.53-10.86-39.09-15.84-58.75c-4.41-17.42-6.86-35.12-7.93-53.13
		c-0.71-11.97-1.54-23.94-0.92-35.86c1.2-22.85,1.48-45.79,5.04-68.48c0.1-0.62-0.19-1.3-0.39-2.45c-5.32-5.03-12.6-6.61-19.63-8.12
		c-26.03-5.6-52.24-10-79.01-9.43c-15.66,0.33-31.16,1.93-46.37,5.83c-1.24,0.32-2.42,0.84-3.82,1.33
		c-1.42,7.39,1.31,14.08,2.33,20.84c1.92,12.8,5.54,25.39,6.75,38.23c2.8,29.9,0.37,59.02-14.96,86.05
		c-10.17,17.93-18.59,36.85-30.12,54.05c-1.47,2.19-2.62,4.68-3.51,7.17c-8.07,22.55-15.53,45.36-20.88,68.66
		c-4.47,19.48-5.7,39.33,1.07,59.02c3.33,9.69,4.98,19.96,7.52,30.54c5.4,1.51,7.27,4.51,6.8,11.36
		c-0.85,12.36-4.91,23.93-6.53,36.04c-3.6,26.99-10.03,53.54-13.11,80.64c-0.34,2.94-1.2,5.83-1.88,9.01
		c-6.03,1.95-11.93,4.12-17.97,5.75c-9.44,2.55-18.11,5.97-23.76,14.74c-2.19,3.39-6.08,5.15-9.61,6.98
		c-16.79,8.71-34.59,13.47-53.59,13.73c-11.02,0.15-21.94-0.28-32.59-3.4c-1.91-0.56-3.87-1.04-5.68-1.83
		c-4.03-1.75-5.4-3.93-3.41-7.85c5.29-10.45,7.57-22.44,17.78-30.37c7.97-6.19,11.94-15.87,16.7-24.6
		c7.54-13.82,11.58-28.99,15.92-44c3.97-13.74,8.42-27.32,12.85-40.91c2.97-9.13,4.67-18.68,6.9-28.05
		c5.23-21.99,10.09-44.08,15.75-65.95c5.13-19.8,7.13-39.92,7.21-60.22c0.13-32.98-0.24-65.97-0.66-98.95
		c-0.1-7.95-2.05-15.87-1.2-23.85c1.79-16.86,0.18-33.92,3.15-50.71c0.34-1.92,0.05-3.95,0.05-6.01c-4.23-0.31-5.1,3.33-7.08,5.22
		c-16.71,15.88-31.35,33.53-44.23,52.65c-11.39,16.91-20.28,35.12-28.78,53.59c-3.05,6.63-1.55,13.22-0.96,19.66
		c2.05,22.19,5.78,44.14,11.72,65.65c3.37,12.19,7.5,24.13,12.03,35.94c1.32,3.46,3.1,6.57,5.79,9.16
		c-2.34,1.66-3.63-0.33-5.21-1.35c-23.03-14.8-37.92-35.9-47.57-61.13c-8.36-21.86-13.75-44.33-15.77-67.72
		c-1.38-15.94-1.79-31.85-1.1-47.78c0.59-13.64,3.55-27.02,6.18-40.35c8-40.45,17.93-80.46,29-120.17
		c6.7-24.04,15.13-47.55,23.61-71.02c10.51-29.09,21.5-58.02,31.49-87.29c10.2-29.88,19.45-60.09,28.93-89.57
		c-6.31-14.28-13.76-27.25-19.41-41.12c-4.27-10.5-11.31-19.56-16.92-29.37c-7.54-13.21-17.46-24.19-29.59-33.28
		c-14.11-10.58-27.73-21.78-40.93-33.47c-6.24-5.52-11.91-11.38-14.58-19.82c-1.5-4.73-1.83-9.02-0.36-13.54
		c0.93-2.84,1.98-5.65,3.25-8.35c16.13-34.33,32.13-68.72,48.54-102.91c10.23-21.33,19.6-42.99,26.7-65.55
		c3.09-9.82,5.15-19.95,7.99-29.85c4.49-15.66,9.24-31.24,14.96-46.53c3.84-10.27,10.49-17.48,20.11-22.39
		c3.05-1.56,6.05-2.38,9.48-2.56c7.95-0.42,15.88-1.27,23.82-1.92c1.68-0.14,3.34-0.25,4.9-2.55c-7.58-17.37-14.6-35.5-23.74-53.07
		c9.7-5.84,20.84-2.14,30.47-6.75c-1.38-9.53-4.92-18.14-8.21-26.72c-3.59-9.37-6.51-18.86-8.15-28.72
		c-0.81-4.87-2.82-8.81-6.57-11.9c-5.42-4.46-9.85-9.84-14.41-15.13c-2.6-3.01-5.41-5.96-8.58-8.33c-3.04-2.28-5.09-5.25-7.24-8.17
		c-2.4-3.25-2.45-6.77-0.05-10.2c1.91-2.73,3.66-5.57,5.63-8.26c17.21-23.44,36.96-44.54,58.68-63.83c2.29-2.04,4.82-3.47,7.68-4.51
		c5-1.81,9.86-4.11,14.96-5.54c5.3-1.48,8.41-4.49,10.35-9.62c2.34-6.21,5.03-12.37,8.3-18.14c8.69-15.37,16.65-31.11,24.36-46.98
		c2.8-5.75,7.79-8.88,12.48-12.61c3.16,5.45,5.44,21.13,6.1,40.67c0.47,13.98,5.47,27.41,4.64,41.67c4.33,3.36,9.16,4.2,14.1,4.69
		c32.85,3.25,65.14,9.23,96.27,20.51c6.3,2.28,12.05,2.43,18.37,0.2c18.86-6.65,34.88-17.79,49.78-30.75
		c3.25-2.83,6.16-6.05,10.09-8.1c-1.44,17.02-17.31,55.84-36.69,77.83c17.03,11.25,33.9,21.97,55.37,20.08
		c-5.54,5.02-21.06,9.19-31.1,8.15c-11.16-1.16-22.13-3.34-34.17-7.97c13.29,19.73,20.97,40.26,29.93,60.15
		c2.53,5.61,5.83,10.27,10.79,14.04c5.58,4.23,11.17,8.39,17.13,12.06c1.94,1.2,4.32,2,4.22,5.48c-21.21-1.07-42.07-3.5-62.23-11.42
		c-3.89,4.15-5.31,9.32-7.25,14.18c-0.44,1.11-0.3,2.61-0.01,3.83c3.38,14.3,9.8,26.69,21.94,35.7c2.77,2.06,6.22,3.66,7.71,7.27
		c-16.14-3.97-18.51-5.2-43.53-22.77c-2.97,5.47-5.9,10.85-8.98,16.53c8.61,4.67,16.92,8.87,24.3,14.57
		c0.72,0.55,1.1,1.53,2.06,2.94c-4.66,2.69-10.2,3.32-13.99,7.09c0.48,2.12,2.05,2.38,3.79,2.07c5.85-1.05,11.69-2.18,17.65-3.29
		c-0.35,3.31-3.82,2.72-5.25,4.99c1.51,1.81,3.68,2.14,5.76,2.77c7.63,2.32,15.48,4.17,22.79,7.28c7.29,3.1,14.14,3.07,21.28,0.4
		c0.93-0.35,1.85-0.72,2.8-0.99c0.23-0.07,0.57,0.23,1.3,0.55c-1.64,3.67-6.66,2.62-8.36,6.09c0.58,3.09,3.54,3.47,5.82,4.36
		c10.26,4.03,21.13,5.83,31.81,8.33c6.12,1.43,12.3,2.59,18.79,3.94c1.04-3.8,1.6-7.4,2.99-10.65c2.52-5.84,2.17-11.48,0.69-17.51
		c-3.32-13.55-6.25-27.21-9.18-40.85c-1.11-5.18-1.61-10.49-2.67-15.69c-0.79-3.9,2.57-5.87,3.7-8.33
		c-0.47-4.95-3.59-7.58-6.38-10.42c-4.21-4.28-8.58-8.4-12.58-12.87c-3.88-4.33-5.79-9.14-5.18-15.46
		c1.18-12.22,2.9-24.43,2.38-36.8c-0.29-6.98-0.36-13.95-1.08-20.92c-0.58-5.56,0.5-10.89,3.76-15.61c1.64,0.88,1.95,1.78,1.73,2.77
		c-1.43,6.21,0.59,10.82,5.68,14.76c4.4,3.4,6.41,8.29,5.89,14.12c-0.29,3.27-0.43,6.71,2.02,9.54c0.54-0.22,1.38-0.3,1.51-0.65
		c3.64-9.76,9.4-18.2,15.36-26.69c4.52-6.45,7.58-14.01,10.73-21.32c2.65-6.15,5.48-12.15,9.47-17.51
		c3.09-4.14,8.51-5.87,11.49-10.61c-1.14,15.34-6.74,29.37-10.11,44.08c6.85-8.98,14.43-17.3,19.82-27.18
		c4.77-8.74,13.09-13.65,19.85-20.39c2.86,3.42-0.02,6.59,1.42,9.33c2.81,0.9,3.66-4.16,7.28-1.87
		c-2.03,11.44-3.51,23.12-10.51,33.46c-5.02,7.4-7.54,16.26-12.44,23.86c-1.88,2.92-3.35,6.83,1.44,9.98
		c7.46-1.48,13.22-6.49,18.86-11.56c3.95-3.55,7.65-7.38,11.31-11.23c5.01-5.27,11.88-7.01,18.24-10.58
		c-0.8,6.11-3.07,11.72-6.85,17.39c-7.83,11.74-17.73,21.62-28.56,30.49c-6.07,4.97-11.08,10.34-13.96,17.77
		c-2.65,6.81-5.92,13.38-8.91,20.06c-1.51,3.36-3.17,6.62-6.09,9.03c-4.59,3.79-4.94,8.32-2.51,13.39c2.31,1.55,4.86,2.15,7.49,2.58
		c26.31,4.33,47.72,17.65,66.44,36.01c5.16,5.06,7.25,10.28,4.7,17.81c-4.16,12.26-6.97,24.97-10.74,37.37
		c-2.95,9.71-4.07,19.59-3.35,29.58c0.7,9.67,0.34,19.31,0.52,28.96c0.15,7.73-1.3,15.2-3.58,22.56c-1.18,3.8-2.22,7.66-2.98,11.57
		c-1.3,6.63-4.31,10.2-11.04,10.51c-9.61,0.44-19.28,1.02-28.85-1.24c-18.44-4.35-36.96-8.37-55.08-14.01
		c-7-2.18-14.28-2.77-21.63-3.3c-12.57-0.91-25.08-2.69-37.6-4.2c-16.47-1.98-32.94-3.95-49.37-6.2c-2.54-0.35-4.63,0.2-6.73,1.04
		C543.14,439.36,539.03,442.13,535.2,446.23z M305.39,685.13c1.9-3.04,2.48-5.95,3.12-8.85c3.36-15.22,6.01-30.56,8.39-45.97
		c1.85-11.98,1.68-23.71-0.14-35.58c-0.37-2.39-0.81-4.46-2.63-6.2c-9.63-9.19-17.66-19.68-24.77-31.45
		c-1.17,1.35-2.17,2.23-2.84,3.32c-4.36,7.09-9.04,13.91-15.2,19.63c-1.68,1.56-2.75,3.74-4.25,5.52
		c-4.94,5.86-4.38,11.9-1.19,18.39c3.51,7.15,6.71,14.45,9.78,21.8c4.22,10.11,8.14,20.33,12.26,30.48
		C292.18,666.7,298.17,676.14,305.39,685.13z"/>
	<path class="st0" d="M398.26,383.4c-1.72-4.65-6.33-6.49-9.57-9.65c-1.61-1.57-3.52-2.74-4.65-5.53
		c15.65,3.32,30.31,9.54,46.44,5.49C424.8,380.9,418,385.9,409.86,391c10.63-0.99,19.65-3.01,27.39-9.6
		c5.65-4.81,10.38-10.28,14.7-16.21c1.93-2.65,3.19-5.88,6.79-7.96c2.65,1.33,3.69,4.19,5.11,6.64
		c9.54,16.43,16.94,33.92,24.97,51.08c2.84,6.06,6.22,11.71,10.34,16.99c2.86,3.66,5.43,7.58,7.78,11.6
		c5.73,9.82,12.45,18.87,20.22,27.16c0.91,0.97,1.88,1.92,2.58,3.04c7.37,11.9,14.1,24.16,18.58,37.47
		c4.6,13.66,2.27,27.12-3.31,39.82c-5.48,12.47-12.26,24.37-18.33,36.59c-5.47,11.02-10.92,22.06-16.05,33.24
		c-3.14,6.85-1.71,12.33,3.65,17.62c1.41,1.39,2.91,2.76,4.03,4.37c9.5,13.61,20.55,26.15,28.32,40.99c2.61,4.99,5.75,9.8,9.3,14.16
		c3.42,4.2,3.4,10.18,7.78,13.72c-0.36,3.86-0.72,7.72-1.07,11.41c-52.88,42.46-147.19,68.99-203.29,60.76
		c-1.79-3.79-1.6-8.19-2.42-12.33c-0.32-1.64,1.37-1.88,2.79-1.69c2.49,1.2,5.16,1.16,7.82,1.09c9.91-0.27,19.79-0.45,29.72-1.24
		c14.26-1.14,28.09-4.03,42.05-6.57c1.34-0.24,2.55-0.59,2.57-2.3c3.08,0.73,6.11,1.13,8.67-1.38c4.84-0.34,9.53-1.15,13.39-4.45
		c2.19,0.05,4.44,0.28,5.64-2.2c0.78-0.04,1.56-0.08,1.04-0.05c0.59-0.18-0.09,0.03-0.77,0.23c-1.63,1.41-4.47-0.18-5.69,2.27
		c-4.87,0.26-9.63,0.86-13.41,4.44c-3.07-0.68-6.09-0.97-8.69,1.35c-2.97,0.29-6,0.3-8.89,0.92c-21.71,4.69-43.62,7.54-65.88,7.37
		c-2.63-0.02-5.26,0.5-7.89,0.77c0.18-1.67-0.83-2.28-2.24-2.61c-1.44-0.34-2.33-1.25-2.28-2.78c0.04-0.93,0.32-1.86,0.56-3.14
		c1.69-0.2,3.31-0.55,4.92-0.57c56.18-0.61,108.78-15.56,159.14-39.57c7.72-3.68,15.76-6.79,22.44-12.36
		c1.69-0.42,3.37-0.83,5.06-1.25c-0.08,0.08-0.16,0.16-0.25,0.25c-1.74-0.34-3.55-0.95-4.58,1.26c-4.93-0.05-8.77,2.9-12.96,4.8
		c-35.18,15.95-71.06,29.93-108.97,38.04c-12.64,2.7-25.34,4.86-38.31,5.62c-6.25,0.37-12.44,1.9-18.78,1.5
		c-1.98-0.12-4.01,0.15-6.23-1.24c0.89-4,1.13-8.22-1.36-12.09c-1.35-2.09-1.13-4.48-0.85-6.8c2.94-24.77,7.53-49.22,14.6-73.17
		c0.75-2.53,1.99-4.91,2.92-7.39c1.04-2.77,2.59-5.53,0.1-8.4c-0.94-1.08-1.1-2.43-0.26-3.66c3.23-4.77,0.69-8.88-1.43-13.03
		c-7.13-13.96-15.47-27.17-25.1-39.54c-10.08-12.94-18.34-26.95-24.62-42.08c-4.97-11.99-5.44-24.52-3.2-37.2
		c5.68-32.21,18.21-61.72,35.19-89.51c7.12-11.66,13.09-23.89,17.36-36.94c2.29-6.98,3.83-14.05,4.06-22.09
		c4.23,2.01,6.3,5.53,9.3,7.89c4.58,3.6,8.11,8.95,14.8,9.16c-0.32,1.42,0.66,1.93,1.69,2.4l0.35,0.5l-0.61-0.23
		C400.33,384.42,399.94,383.49,398.26,383.4z M552.12,702.86c-0.17-0.01,0.53,0.85-0.24,0.24c0.55-0.62,0.78-0.57,0.69,0.17
		C552.42,703.13,552.27,703,552.12,702.86z M461.71,616.12c2.55,0.48,2.56-1.21,2.54-2.94c4.17-1.41,5.3-5.48,7.18-8.69
		c5.45-9.33,10.54-18.87,15.74-28.34c2.65-4.82,6.22-9.19,7.12-14.85c2.45-0.83,1.9-2.66,1.49-4.45c0.51-0.06,1.01-0.12,1.52-0.18
		c-0.18-0.06-0.42-0.22-0.54-0.16c-0.27,0.15-0.48,0.4-0.72,0.62c-1.29,1.17-1.99,2.55-1.56,4.34c-1.61-0.21-2.27,0.97-2.93,2.07
		c-7.39,12.4-14.95,24.71-22.06,37.27c-2.2,3.88-5.31,7.6-5.06,12.55c-1.92,0.03-1.63,2.2-2.83,2.93c0.05,0.59,0.1,1.17,0.16,1.76
		C461.74,617.4,461.73,616.76,461.71,616.12z M455.57,610.44c2.92,0.51,2.82-1.36,2.62-3.31c1.59-0.06,2.02-1.33,2.64-2.46
		c5.15-9.5,9.27-19.45,13.23-29.48c0.45-1.14,0.2-2.55,0.28-3.84c2.3-0.69,1.93-2.54,1.86-4.26c0.37-0.49,2.08-0.37,0.73-1.63
		c-0.15,0.63-0.3,1.25-0.46,1.88c-2.35,0.63-2.25,2.36-1.91,4.21c-1.6,0.02-2.05,1.28-2.65,2.42c-5.05,9.55-9.31,19.46-13.25,29.51
		c-0.45,1.14-0.19,2.56-0.25,3.85c-2.11,0.16-1.79,2.21-2.64,3.36c-0.11,0.74-0.21,1.48-0.36,2.51
		C456.44,612.06,455.85,611.25,455.57,610.44z"/>
	<path class="st0" d="M324.14,601.73c0.33-0.07,0.83-0.3,0.95-0.17c8.14,8.58,18.09,15.65,22.77,27.14
		c1.35,3.31,3.91,6.48,0.91,10.17c1.75,13.05-4.32,24.19-8.58,35.84c-4.91,13.42-9.22,27.06-13.99,40.54
		c-1.27,3.59-1.78,7.01-0.17,9.86c-1.85,4.34-7.26,6.3-4.78,11.58c0.19,0.4-0.48,1.19-0.75,1.8c-6.2,14.13-9.88,29.07-11.36,44.26
		c-1.1,11.3-3.37,21.98-6.56,32.87c-4.45,15.2-6.73,31.07-9.51,46.72c-1.1,6.18-1.02,12.57-1.48,18.86
		c-0.38,0.52-0.65,1.28-1.16,1.52c-7.29,3.42-8.9,8.69-6.58,16.33c6.03,19.9,0.57,39.51-2.26,59.16
		c-1.04,7.19-3.71,14.15-3.36,21.41c3.07,5.5,9.84,5.83,13.47,10.47c-2.98,2.44-4.39,5.68-4.95,9.26
		c-0.98,6.23-1.85,12.49-2.64,18.75c-0.89,7.07,0.38,13.82,4.03,19.94c1.07,1.79,2.06,3.42,1.83,5.49
		c-0.77,6.92-1.14,13.92-2.54,20.72c-4.02,19.53-8.38,38.97-9.49,58.97c-0.33,5.83-2.77,10.14-8.02,13.88
		c-15.54,11.07-27.95,25.47-39.62,40.47c-12.1,15.54-22.72,32.02-31.26,49.81c-0.97,2.03-2.07,4-3.18,6.13
		c-2.64-1.49-1.7-3.65-1.76-5.36c-0.26-7.3,0.4-14.61-1.24-21.87c-0.58-2.54-0.22-5.31-0.12-7.98c1.44-38.21,5.6-76.08,12.58-113.72
		c8.56-46.15,20.2-91.5,33.18-136.56c4.43-15.39,10.56-30.1,16.73-44.82c15.07-35.91,27.86-72.64,39.07-109.93
		c6.42-21.34,12.2-42.85,16.72-64.68c2.63-12.67,4.84-25.43,7.05-38.19c1.02-5.9,2.53-11.68,3.71-17.53
		c3.15-15.67,4.81-31.55,4.17-47.55c-0.32-7.94-2.32-15.78-1.61-23.8L324.14,601.73z"/>
	<path class="st0" d="M660.66,848.83c2.5,0.59,2.75,2.41,3.35,3.83c18.63,44.45,36,89.4,51.94,134.89
		c6.48,18.51,13.1,36.98,18.91,55.7c3.24,10.43,5.17,21.28,7.34,32.02c4.01,19.86,6.83,39.87,8.66,60.07
		c0.96,10.6,2.05,21.17,1.69,31.8c-0.18,5.35,2.47,10.42,0.92,16.63c-6.12-4.85-9.82-11.45-15.3-16.3
		c-5.73-5.06-10.96-10.72-16.89-15.51c-6.2-5.01-12.83-9.51-19.53-13.83c-6.42-4.14-13.06-7.99-19.8-11.58
		c-6.72-3.58-13.7-6.69-20.34-9.9c-7.61-25.49-12.52-45.8-10.63-63.35c10.16-1.34,11.28-9.23,11.59-17.5
		c0.2-5.32-0.08-10.66,0.14-15.98c0.27-6.56-1.58-13.22,1.14-19.69c1.08-2.57-2.06-6.06-0.79-7.55c2.88-3.36,1.96-5.68-0.16-8.5
		c-0.36-0.47-0.64-1.58-0.39-1.85c4.04-4.25,0.33-8.25-0.64-12.08c-3.01-11.95-5.81-23.96-5.47-36.32
		c0.28-10.27,1.47-20.52,2.57-30.75c1.57-14.57,2.1-29.14,1.29-43.77C660.08,855.84,659.44,852.32,660.66,848.83z"/>
	<path class="st0" d="M424.55,1007.45c1.8-2.31,3.99-2.27,5.8-2.98c6.33-2.51,9.39-7.35,9.6-13.85
		c0.46-14.65,5.46-28.13,11.66-40.93c13.57-28.01,22.99-57.29,29.54-88.14c2.21,2.31,2.43,5.03,3.16,7.64
		c7.48,26.87,11.5,54.59,20.33,81.12c4.3,12.92,8.44,25.9,12.47,38.9c3.15,10.15,4.81,20.45,3.82,31.22
		c-0.49,5.25,1.21,10.64,3.67,15.35c2.48,4.76,4.28,9.7,6.02,14.73c2.23,6.44,5.05,12.47,13.33,13.77
		c-1.73,6.92,2.32,13.26-0.12,20.11c-48.67-13.08-97.74-18.56-147.8-8.84c-2.12-4.74-1.61-8.76,1.02-12.97
		c3.11-1.19,6.5-2.49,9.87-3.78C416.85,1042.84,423.68,1025.83,424.55,1007.45z"/>
	<path class="st0" d="M532.48,112.82c-0.89,0.44-1.79,1.26-2.67,1.26c-27.08-0.28-53.45,4.65-79.81,10.11
		c-7.57,1.57-13.14,5.07-18.52,10.37c-10.5,10.36-19.29,22-27.77,33.95c-2.34,3.29-3.83,6.8-4.2,10.73
		c1.76,2.45,4.52,2.94,6.89,3.99c15.21,6.78,30.4,13.6,45.72,20.1c7.04,2.98,14.36,5.29,21.56,7.88c3.2,1.15,6.47,1.17,9.85,0.83
		c16.94-1.67,33.69-4.01,49.48-10.98c7-3.09,14.27-5.56,21.41-8.31c1.52-0.59,2.99-1.55,4.72-0.57c-0.05,2.15-1.55,3.53-2.64,5.07
		c-8.65,12.24-17.28,24.51-26.06,36.66c-5.6,7.74-13.44,11.55-22.91,12.12c-3.81,0.23-6.98-0.93-10.04-3.46
		c-7.85-6.48-17.88-8.66-26.92-12.83c-1.1-0.51-2.61-0.25-3.91-0.12c-0.97,0.1-1.98,0.42-2.85,0.87
		c-13.74,7.13-27.56,5.22-41.53,0.69c-3.96-1.29-7.17-2.98-9.7-6.43c-5.92-8.05-12.09-15.92-18.28-23.77c-1.58-2-2.6-4.69-5.72-5.46
		c-4.57,3.33-6.26,8.52-7.49,13.58c-6.05,24.86-10.26,50.1-14.23,75.36c-0.92,5.88-0.57,11.95-0.83,17.94
		c-0.1,2.27,0.38,4.77-2.17,6.24c-2.47-0.19-3.29-2.1-3.36-4.01c-0.13-3.64-0.22-7.35,0.37-10.92c1.97-11.82,2.94-23.7,3.28-35.67
		c0.19-6.62,1.07-13.21,3.45-19.49l0.06,0.13c3.14-4.08,3.65-8.97,4.65-13.92c-1.35,0.23-2.24,0.39-3.14,0.54
		c-1.31-0.94-0.98-2.28-0.74-3.51c0.81-4.24,1.84-8.45,2.51-12.71c0.91-5.76,2.87-10.64,8.09-14.08c2.2-1.45,5.03-3.31,4.92-6.69
		c-1.25-1.5-2.65-1.28-3.58-0.29c-2.81,2.96-6.28,4.98-9.75,6.9c-8.17,4.53-12.94,3.54-20.11-3.67c0,0-0.22,0.24-0.22,0.24
		c9.27,4.41,17.86,3.36,25.75-3.24c1.51-1.26,3.02-2.52,4.38-3.65c-0.72-4.37-5.1-6.44-5.68-11c7.07-0.36,13.22,2.49,19.95,3.52
		c7.85-9.75,12.46-21.23,15.37-33.11c2.61-10.65,8.51-16.63,18.69-19.72c14.61-4.44,28.89-9.98,44.1-12.19
		c7.88-1.15,16.37-0.64,23.55-3.48c12.2-4.81,22.71-0.19,33.73,2.94c0.92,0.26,1.72,0.98,2.57,1.49
		C532.68,113.07,532.48,112.82,532.48,112.82z"/>
	<path class="st0" d="M580.7,1616.75c0-2.08-0.19-3.45,0.03-4.74c3.22-19.55,6.74-23.18,23.66-27.11
		c17.05-3.97,32.33,1.13,46.81,9.16c9.74,5.4,11.51,19.46,3.93,28.71c-9.18,11.19-21.39,16.62-35.86,16.67
		c-9.24,0.04-17.54-3.37-25.57-7.54c-1.77-0.92-3.41-2.18-5.26-2.84C582.15,1626.82,579.33,1622.68,580.7,1616.75z"/>
	<path class="st0" d="M516.69,264.83c5.75,6.34,11.89,12.24,18.78,17.28c-1.53,5.98-4.92,10.56-7.79,15.35
		c-7.52,12.53-15.17,24.98-22.97,37.33c-5.87,9.28-8.25,19.36-8.06,30.23c0.12,6.87,0.02,13.75,0.02,20.91
		c-1.36-0.52-2.22-0.58-2.43-0.98c-2.48-4.69-5.1-9.34-7.21-14.2c-2.13-4.9-4.81-9.43-7.51-14.02c-3.37-5.72-7.28-10.27-14.77-10.17
		c-0.83-4.5-1.42-8.76-5.38-11.72c4.25-5.24,7.02-10.4,3.88-17.78c-1.83-2.42-5.99-4.04-9.4-6.95c3.41-1.79,5.61,0.42,8.08,0.96
		c5.45,1.2,10.55,0.91,14.89-3.19c1.45-1.37,3.34-2.33,4.56-3.85c5.87-7.33,13.14-12.56,21.64-16.65c4.74-2.28,8.22-6.69,7.32-13.01
		C509.67,269.79,512.34,267.03,516.69,264.83z"/>
	<path class="st0" d="M191.1,1606.92c0.1-9.39,3.55-16.13,9.75-21.81c3.15-2.88,5.95-6.32,8.26-9.92c3.84-5.98,9.46-7.88,16.02-8.3
		c6.76-0.44,13.29,0.61,19.48,3.26c12.2,5.23,24.63,10.19,32.19,23.07c-3.01,5.08-7.6,8.58-13.31,10.62
		c-6.87,2.46-13.73,5.05-20.77,6.92c-15.73,4.17-31.48,4.46-46.96-1.38C194.25,1608.8,192.88,1607.87,191.1,1606.92z"/>
	<path class="st0" d="M436.18,349.13c2.03,1.07,3.72-0.55,6.75-1.08c-4.18,6.72-9.67,10.68-15.06,14.72
		c-0.06-0.08-0.11-0.17-0.17-0.25c2,0.92,3.77,0.34,5.69-0.52c8.03-3.58,14.51-9.09,19.62-15.76c1.89,0.1,3.08,0.54,3.92,2.08
		c-3.65,6.61-9.04,12.21-14.77,16.81c-7.76,6.22-17.64,7.26-27.53,6.41c-10.46-7.77-25.05-7.56-34.33-17.47
		c0-0.9-0.24-1.68,0.03-2.2c5.2-9.96,10.45-19.89,15.64-29.71c20.15,2.37,39.9,3.16,59.42-3.5c-1.62,5.26-2.32,6.44-6.74,8.7
		c-7.14,3.65-14.6,6.35-22.8,6.3c-6.29-0.04-12.59-0.01-18.88,0.41c7.77,1.94,15.66,1.11,23.49,1.31
		c8.09,0.21,15.03-4.63,23.67-6.19c-1.29,4.14-4.2,5.83-6.29,8.08c-2.04,2.18-4.26,4.2-6.49,6.19c-1.94,1.73-4.54,2.86-4.96,5.86
		c-0.3,0.1-0.64,0.14-0.88,0.32c-0.12,0.09-0.07,0.62-0.05,0.62C436.16,350.37,436.4,349.98,436.18,349.13z"/>
	<path class="st0" d="M318.71,322.46c-7.75-3.01-11.22-9.51-13.98-16.74c-2.47-6.47-5.28-12.81-8.09-19.57
		c7.75-2.07,15.05-3.73,23.16-2.47c0.73,4.03,1.4,7.78,2.16,11.99c-6.09,0.5-9.09-4.71-14-5.54c-1.02,2.09,0.8,2.87,1.93,3.64
		c18.71,12.8,38.99,21.21,61.99,21.9c5.56,0.17,11.15-0.26,16.96,0.34c0.58,4.81-1.98,7.7-3.54,10.79
		c-6.27,12.44-12.94,24.68-18.98,37.23c-2.04,4.25-5.46,8.68-2.5,14.06c0.68,1.24,0.17,2.61-0.56,3.76
		c-3.69,5.76-7.41,11.49-11.13,17.23l0.23,0.2c0.06-0.99,0.3-2.01,0.16-2.97c-2.19-15.63,2.84-30.06,7.3-44.59
		c1.94-6.31,3.76-12.66,5.58-18.8c-2.57-3.08-5.84-1.67-8.6-2.21c-10.7-2.13-21.39-4.29-31.72-7.89c-2.1-0.73-4.19-2.34-6.33-0.08
		L318.71,322.46z M367.79,347.48c-0.15-0.26-0.3-0.51-0.45-0.77c-0.2,0.16-0.54,0.3-0.58,0.5c-0.18,0.82,0.12,1.25,0.72,1.07
		C367.65,348.23,367.69,347.76,367.79,347.48z"/>
	<path class="st0" d="M607.66,994.99c3.88,8.41,4.93,17.53,4.19,26.85c-0.46,5.79-3.84,9.63-9.29,11.78
		c-3.77,1.48-7.77,1.55-11.65,2.35c-8.1,1.67-16.14,3.66-24.28,5.08c-7.74,1.35-11.09-1.27-12.19-9.09
		c-0.77-5.55-1.46-11.14-1.73-16.74c-0.35-7.2,1.3-9.37,7.61-12.08c11.02-4.74,22.58-7.54,34.37-9.41
		C598.89,993.06,603.26,992.69,607.66,994.99z"/>
	<path class="st0" d="M293.09,1022.53c-2.54-8.46,0.03-16.5,1.51-24.56c0.39-2.14,2.46-3.08,4.24-3.94
		c8.12-3.91,16.5-6.32,25.62-7.55c9.07-1.22,17.11-0.2,25.14,3.49c0.28,0.13,0.49,0.42,1.36,1.2c-0.55,10.28-1.36,21.02-3.91,32.45
		C328.99,1021.66,311.21,1020.45,293.09,1022.53z"/>
	<path class="st0" d="M663.73,301.89c9.54,9.01,19.9,16.7,32.37,20.96c12.04,4.11,24.54,5.97,37.15,6.74
		c12.96,0.79,25.84,0.14,38.65-6.08c-0.05,5.63-2.1,9.77-3.67,14.01c-0.75,2.04-2.54,3.03-4.54,3.53c-7.4,1.83-14.7,4.03-22.48,4.03
		c-12.32,0-24.58,0.05-36.54-3.68c-11.83-3.7-22.76-9.24-33.37-15.54c-2.46-1.46-3.98-3.54-4.73-6.17
		c-1.53-5.37-2.92-10.79-4.36-16.19C662.73,302.96,663.23,302.43,663.73,301.89z"/>
	<path class="st0" d="M771.95,315.97c-1.96,3.17-5.04,5.35-9.4,6.46c-7.47-7.45-15.29-14.58-24.22-20.41
		c-7.56-4.94-15.39-9.6-23.95-12.18c-8.69-2.62-11.85-8.6-13.7-15.99c1.6-2.27,3.17-1.33,4.75-0.98
		c17.19,3.85,32.58,11.25,46.1,22.65c5.85,4.93,12.2,9.25,17.38,14.96C770.22,311.94,771.93,313.16,771.95,315.97z"/>
	<path class="st0" d="M546.91,741.14c0.97-2.13,2.76-2.87,4.6-3.48c1.72,0.74,2.29,2.34,3.14,3.76c15,24.96,36.55,42.83,61.81,56.53
		c7.94,4.3,16.85,5.97,25.84,7.56c2.59,2.24,3.66,5.28,4.02,8.62c-1.68,1.99-3.76,1.23-5.56,0.68
		c-39.76-12.13-71.23-35.12-92.79-71.04C547.47,742.94,547.24,741.96,546.91,741.14z"/>
	<path class="st0" d="M291.83,896.53c-2.02-7.17-2.1-7.32,2.83-9.74c11.7-5.76,22.63-12.64,31.99-21.78
		c16.27-15.89,30.59-33.24,39.97-54.22c3.13-7.01,5.33-14.27,5.82-21.66c1.97-2.05,3.68-2.04,5.43-0.45
		C377.1,822.01,329.57,881.95,291.83,896.53z"/>
	<path class="st0" d="M526.2,457.47c5.96,4.17,11.06,9.35,15.06,15.29c7.78,11.59,14.49,23.82,20.06,36.67
		c3.03,6.99,3.15,13.84,2.27,21.35c-1.29,11-6.35,20.25-11.58,29.38c-8.09,14.11-16.96,27.77-25.53,41.6
		c-0.68,1.1-1.65,2.02-2.53,3.07c-2.4-2.23-0.19-3.93,0.6-5.16c6.99-10.9,12.17-22.79,19.48-33.58
		c9.17-13.52,12.21-29.28,12.02-45.51c-0.09-7.39-2.77-14.33-5.85-20.97c-5.88-12.68-12.65-24.86-20.88-36.2
		c-1.32-1.82-3.17-3.52-2.92-6.14L526.2,457.47z"/>
	<path class="st0" d="M272.44,385.44c1,16.15-6.05,29.47-14.93,42.08c-2.37,3.37-6.28,4.71-10.25,6.44
		c-1.22-0.84-2.88-1.51-3.8-2.74c-1.78-2.36-1.47-6.15,0.95-6.66c5.04-1.05,4.84-4.97,5.5-8.22c0.98-4.83,2.09-8.71,8.13-9.44
		c3.06-0.37,3.23-3.49,0.48-5.78c-1-0.83-2.21-1.35-2.93-3.18c7.15-2.02,11.29-8.26,17.1-12.31L272.44,385.44z"/>
	<path class="st0" d="M576.02,710.02c-1.31,2.95-2.33,5.44-5.44,5.81c-2.65-1.66,1.19-5.28-2.41-6.68c-2.9-1.13-2.15-4.62-3.51-6.85
		c-1.38-2.25-2.12-4.92-3.59-7.09c-13.41-19.8-25.56-40.52-42.33-57.88c-6.13-6.35-6.09-12.56-0.41-22.64
		c2.7,1.53-0.03,3.16,0.07,4.69c0.1,1.65-0.31,3.33-0.2,4.98c0.13,1.95,0.84,3.87,0.84,5.81c0.01,2.59,1.03,4.56,2.96,6.01
		c8.15,6.1,13.42,14.73,19.67,22.46c7.53,9.31,14.61,18.98,21.7,28.62c2.33,3.16,4.33,6.45,5.56,10.44
		C570.24,701.94,573.4,705.63,576.02,710.02z"/>
	<path class="st0" d="M326.27,465.35c0.23,5.84-2.51,10.87-4.73,15.93c-7.17,16.35-9.72,33.35-8.96,51.12
		c0.6,13.95,5.39,26.28,12.67,37.88l0.04-0.09c-1.44,0.33-2.7-0.14-3.45-1.31c-8.31-12.84-15.56-26.07-15.73-42
		c-0.11-10,1.8-19.67,4.11-29.32c2.87-11.99,8.51-22.53,16.29-32.01L326.27,465.35z"/>
	<path class="st0" d="M236.71,704.85c10.73,6.75,21.33,13.66,28.85,24.23c2.89,4.07,5.71,8.12,7.42,12.93
		c2.01,5.64,4.62,11.06,8.39,15.81c1.3,1.64,2.1,3.41,0.28,6.08c-4.15-1.99-7.82-4.97-9.46-9.11c-4.93-12.4-14.9-21.09-22.4-31.58
		c-3.28-4.58-7.28-8.64-10.93-12.95c-1.26-1.49-2.94-2.84-1.97-5.19L236.71,704.85z"/>
	<path class="st0" d="M546.37,317.32c-15.73,9.62-30.65,18.23-41.36,33.63c1.3-12.92,6.49-18.81,29.63-34.79
		c-1.27-3.97-6.26-1.63-8.1-4.86c-0.73-2.23,0.59-3.56,2.83-4.91C535.2,308.86,540.53,312.53,546.37,317.32z"/>
	<path class="st0" d="M562.96,656.24c-1.86,1.21-3.15,0.04-4.25-1.17c-6.36-7.01-13.43-13.54-18.75-21.28
		c-4.97-7.22-4.67-15.59,1.16-24.2c7.15,16.26,13.38,32.12,21.86,46.88L562.96,656.24z"/>
	<path class="st0" d="M508.47,431.19c-2.05,0.25-2.84-1.32-3.78-2.64c-5.19-7.33-9.93-14.94-13.98-22.95
		c-8.53-16.89-16.26-34.22-27.85-49.4c-1.66-2.17-2.7-4.83,1.38-6.62c2.98,2.07,4.53,5.4,6.19,8.55
		c8.35,15.87,16.58,31.8,24.93,47.67c2.94,5.58,6.2,10.99,9.1,16.59c1.49,2.88,4.05,5.35,3.82,8.97L508.47,431.19z"/>
	<path class="st0" d="M200.93,557.95c-8.44,16.97-17.54,33.62-24.79,51.18c-2.77,6.71-7.87,12.4-8.94,19.9
		c-0.19,1.31-0.65,2.57-0.86,3.88c-1.12,6.95-0.31,13.25,5.9,17.82c1.59,1.17,2.96,2.65,4.44,3.99l0.11-0.28
		c-7.76-1.43-12.17-5.83-12.43-12.41c-0.44-11.07,1.77-21.37,6.45-31.62c7.57-16.57,15.6-32.81,25.43-48.15
		c1.22-1.91,1.92-4.35,4.94-3.99L200.93,557.95z"/>
	<path class="st0" d="M242.5,451.51c0.22,2.36-0.21,4.61-0.92,6.86c-8.09,25.69-18.22,50.58-29.47,75.03
		c-0.83,1.79-1.85,3.5-2.92,5.17c-0.26,0.41-1.06,0.48-1.72,0.76c-0.29-4.49,1.82-8.32,3.46-12.11
		c10.54-24.37,21.18-48.7,29.66-73.9c0.34-1,1.05-1.59,2.16-1.6L242.5,451.51z"/>
	<path class="st0" d="M356.42,687.41c0.2,7.04-2.5,13.57-3.57,20.39c-1.07,6.85-1.96,13.72-2.82,20.6
		c-0.33,2.61-0.14,5.35-3.03,6.74c-1.92-0.48-2.91-1.92-2.7-3.64c1.74-14.45,4.89-28.62,9.04-42.56c0.45-1.5,1.85-1.66,3.26-1.37
		L356.42,687.41z"/>
	<path class="st0" d="M604.22,353.31c-3.89,0.73-7.11-1.45-10.49-2.64c-20.82-7.3-20.8-7.36-39.54-7.89
		c-0.35-2.64,1.19-3.17,3.41-3.38c11.61-1.09,22.04,3.21,32.46,7.22c4.81,1.85,10.27,2.65,13.91,6.94L604.22,353.31z"/>
	<path class="st0" d="M603.98,353.58c5.74,0.08,10.9,2.37,16.07,4.43c11.29,4.49,22.61,8.87,34.75,12.15
		c-2.84,1.26-5.47,1.27-7.79,0.43c-14.47-5.23-29.36-9.47-42.79-17.28L603.98,353.58z"/>
	<path class="st0" d="M356.61,687.57c0.05-1.96-0.27-4.01,0.21-5.86c2.31-8.88,4.84-17.7,7.27-26.55c0.47-1.72,1.38-2.94,3.23-3.28
		c0.33,0.47,1.08,1.08,0.97,1.46c-3.14,11.64-7.6,22.82-11.88,34.07L356.61,687.57z"/>
	<path class="st0" d="M254.99,387.33c-1.52-3.99-0.29-7.33,1.51-10.42c1.11-1.9,3.19-2.23,5.12-1.16c1.82,1,3.05,2.67,2.1,4.81
		C262.09,384.26,259.52,386.91,254.99,387.33z"/>
	<path class="st0" d="M352.14,399.08c0.46,2.35,0.23,4.68-0.94,6.71c-3.57,6.19-7.3,12.3-11.65,18.05c3.54-8.59,6-17.7,12.82-24.56
		L352.14,399.08z"/>
	<path class="st0" d="M467.15,806.38c-0.59-0.13-1.57-0.1-1.72-0.43c-3.69-8.3-4.4-18.17-1.84-28.11
		c2.34,10.02,2.19,19.48,3.37,28.77L467.15,806.38z"/>
	<path class="st0" d="M351.31,784.22c-5.85-3.87-5.53-8.93-6.02-13.61c-0.04-0.37,0.85-1.16,1.33-1.18
		c0.88-0.05,2.33,0.07,2.58,0.59C351.23,774.1,352.8,778.34,351.31,784.22z"/>
	<path class="st0" d="M342.23,599.51c1.48-0.27,2.48,0.59,3.26,1.6c4.35,5.59,8.69,11.2,10.99,18.05l0.22-0.2
		c-1.06,0.34-1.86-0.07-2.48-0.89c-4.45-5.92-9.95-11.18-11.8-18.73L342.23,599.51z"/>
	<path class="st0" d="M348.57,759.31c-2.72-1.93-1.93-5.33-3.3-7.88c-1.74-3.24,0.82-4.46,4.26-5.89c-0.09,4.85,2.82,9.26-1.3,13.46
		L348.57,759.31z"/>
	<path class="st0" d="M550.92,253.39c-2.92-3.93-3.4-7.41-4.7-11.94c3.84,0.84,6.34,1.73,8.16,4.25
		C554.69,248.64,552.8,250.59,550.92,253.39z"/>
	<path class="st0" d="M537.3,341.68c3.2-1.43,6.4-2.87,9.43-4.23c3.03,0.63,1.31,3.44,3.53,4.75
		C545.42,344.84,541.37,342.75,537.3,341.68z"/>
	<path class="st0" d="M328.51,1026.39c6.9-1.23,13.7-1.55,20.13,1.66C341.94,1027.41,335.32,1026,328.51,1026.39z"/>
	<path class="st0" d="M501.11,367.6c1.12,0.35,2.09,0.51,2.89,0.96c0.8,0.45,1.43,1.21,2.09,1.79c-0.34,3.25-2.71,5.11-4.24,7.78
		c-2.56-1.35-1.51-3.45-1.66-5.07C500.05,371.5,499.5,369.83,501.11,367.6z"/>
	<path class="st0" d="M303.91,1025.42c6.98-2.58,9.77-2.65,19.65-1.02C316.36,1026.14,310.09,1024.32,303.91,1025.42z"/>
	<path class="st0" d="M617.58,1024.17c0.42,9.07,0.42,9.07-6.8,10.65C613.53,1031.58,615.66,1028.7,617.58,1024.17z"/>
	<path class="st0" d="M271.7,358.94c1.26,2.22-0.47,3.54-1.44,5.16c-0.79,1.32-1.26,2.84-2.06,4.72c-1.41-0.65-2.8-1.29-4.79-2.21
		c3.06-2.69,5.81-5.12,8.56-7.54C271.96,359.07,271.7,358.94,271.7,358.94z"/>
	<path class="st0" d="M661.38,283.46c-3.81-2.83-3.88-5.5-4.7-9.24C661.34,276.31,662.21,278.77,661.38,283.46z"/>
	<path class="st0" d="M298.15,351.22c-3.84,3.7-9.16,1.79-13.37,4.05c3.96-3.65,8.69-4.17,13.63-3.77L298.15,351.22z"/>
	<path class="st0" d="M348.23,758.99c0.09,1.26,0.34,2.53,0.25,3.77c-0.26,3.54-2.38,3.04-4.77,2c-0.6-3.79,1.91-4.81,4.86-5.46
		L348.23,758.99z"/>
	<path class="st0" d="M520.2,449.47c3.87,1.26,5.71,4.05,6,8l0.2-0.18c-3.55-1.5-5.23-4.41-6-8L520.2,449.47z"/>
	<path class="st0" d="M366.49,641.64c0.18,1.84,1.05,3.86-1.18,5.23c-1.51-2.34-0.38-3.75,1.41-4.97L366.49,641.64z"/>
	<path class="st0" d="M323.39,340.45c4.73,0.71,4.73,0.71,3.86,7.1c-1.69-2.75-1.73-5.62-3.81-7.18L323.39,340.45z"/>
	<path class="st0" d="M516.24,443.43c3.06,0.87,4.29,2.95,3.96,6.04l0.2-0.18c-2.91-0.97-4.24-2.98-3.97-6.03L516.24,443.43z"/>
	<path class="st0" d="M355.65,998.59c-0.97-2.62-1.17-3.9,0.05-4.77c0.33-0.24,1.16,0.21,1.76,0.34
		C357,995.27,356.55,996.38,355.65,998.59z"/>
	<path class="st0" d="M367.29,636.15c-2.34,0.87-3.13-0.78-4.22-2.34c2.77-1.07,2.51,2.21,4.22,2.42L367.29,636.15z"/>
	<path class="st0" d="M513.12,436.46c-4.37,0.74-4.4-2.37-4.65-5.27l-0.19,0.17c2.7,0.74,3.21,3.45,4.7,5.27L513.12,436.46z"/>
	<path class="st0" d="M516.43,443.26c-3.36-1.17-4.39-3.47-3.31-6.8l-0.14,0.17c0.62,2.49,4.19,3.56,3.26,6.8L516.43,443.26z"/>
	<path class="st0" d="M338.57,593.31c1.73,1.76,3.91,3.27,3.66,6.2l0.19-0.17c-2.57-1.31-3.74-3.42-3.57-6.29L338.57,593.31z"/>
	<path class="st0" d="M471.95,821.93c-0.98-1.52-1.96-3.04-2.98-4.63c3.41,0.05,2.77,2.39,2.72,4.38L471.95,821.93z"/>
	<path class="st0" d="M367.58,238.57c0-2.02,0-4.05,0-6.07c0.02,0,0.04,0,0.06,0c0,2.07,0,4.13,0,6.2L367.58,238.57z"/>
	<path class="st0" d="M242.75,451.72c-0.62-1.57-0.35-3.09,0.23-4.76c1.82,1.83,1.23,3.24-0.48,4.55L242.75,451.72z"/>
	<path class="st0" d="M429.2,789.04c0.04-0.32,0.08-0.63,0.12-0.95c0.02,0.01,0.06,0.02,0.06,0.04c0.07,0.31,0.13,0.62,0.19,0.94
		C429.44,789.06,429.32,789.05,429.2,789.04z"/>
	<path class="st0" d="M466.97,806.62c0.28,1.22,0.56,2.44,0.97,4.24c-2.15-1.67-1.09-3.11-0.79-4.47L466.97,806.62z"/>
	<path class="st0" d="M272.68,385.65c-0.61-1.23-0.34-2.37,0.4-3.61c1.3,1.49,1.25,2.61-0.64,3.41L272.68,385.65z"/>
	<path class="st0" d="M322.34,333.57c2.65,1.94,1.9,4.4,1.06,6.88l0.05-0.08c-0.28-2.35-0.55-4.71-0.83-7.06L322.34,333.57z"/>
	<path class="st0" d="M535.44,333.25c-0.54-0.22-1.49-0.37-1.54-0.68c-0.21-1.18,0.87-1.38,1.66-1.34c0.49,0.02,0.95,0.66,1.43,1.02
		C536.47,332.58,535.96,332.91,535.44,333.25z"/>
	<path class="st0" d="M364.74,393.52c-0.86,1.17-1.56,2.52-3.21,2.77l0.12,0.22c0.95-0.93,1.9-1.86,2.85-2.78L364.74,393.52z"/>
	<path class="st0" d="M361.53,396.29c0.31,1.82,1.14,3.9-1.99,4.01l0.13,0.22c0.66-1.34,1.32-2.68,1.99-4.02L361.53,396.29z"/>
	<path class="st0" d="M359.54,400.3c0.38,1.87,1.03,3.88-2.04,3.99l0.13,0.21c1.23-1.05,1.76-2.45,2.03-3.98L359.54,400.3z"/>
	<path class="st0" d="M357.5,404.29c0.23,1.79,1.72,4.01-1.55,4.63l0.26,0.22c0.48-1.55,0.95-3.1,1.43-4.64L357.5,404.29z"/>
	<path class="st0" d="M355.95,408.92c0.55,1.88,0.84,3.66-1.77,4.22l0.22,0.19c-0.18-1.73,0.01-3.3,1.8-4.18L355.95,408.92z"/>
	<path class="st0" d="M352.4,417.27c-0.08-1.69-0.19-3.41,2-3.95l-0.22-0.19c0.25,1.78,0.54,3.58-2.01,3.93L352.4,417.27z"/>
	<path class="st0" d="M352.16,417.06c0.17,1.7-0.17,3.18-1.76,4.13l0.28,0.26c-0.01-1.63-0.39-3.41,1.71-4.18L352.16,417.06z"/>
	<path class="st0" d="M349.08,425.63c-0.3-1.71-1.01-3.58,1.6-4.18l-0.28-0.26c-0.53,1.55-1.05,3.11-1.58,4.66L349.08,425.63z"/>
	<path class="st0" d="M344.66,431.64c-0.82,1.1-1.63,2.19-2.45,3.29l-0.24,0.21c0.83-1.09,1.66-2.17,2.49-3.26
		C344.46,431.89,344.66,431.64,344.66,431.64z"/>
	<path class="st0" d="M329.69,456.88c0.36,1.85,0.3,3.42-2.21,3.4c0,0,0.14,0.21,0.14,0.21c0.78-1.13,1.56-2.26,2.34-3.39
		C329.96,457.09,329.69,456.88,329.69,456.88z"/>
	<path class="st0" d="M327.48,460.27c0.41,1.89,1.33,3.89-1.21,5.07l0.24,0.21c0.37-1.69,0.74-3.38,1.11-5.08L327.48,460.27z"/>
	<path class="st0" d="M202.57,553.32c0.14-0.5,0.28-1,0.42-1.5c1.03,1.12-0.46,0.83-0.7,1.24
		C202.29,553.07,202.57,553.32,202.57,553.32z"/>
	<path class="st0" d="M202.29,553.07c-0.45,1.63-0.91,3.26-1.36,4.88l0.24,0.32c-0.36-1.88-1.22-3.91,1.4-4.95L202.29,553.07z"/>
	<path class="st0" d="M326.12,575.38c-1.64-1.51-1.42-3.33-0.83-5.2c0,0-0.04,0.09-0.04,0.09c0.2,1.79,0.39,3.58,0.59,5.38
		C325.85,575.65,326.12,575.38,326.12,575.38z"/>
	<path class="st0" d="M330.61,581.27c1,1.27,1.08,2.77,1.04,4.29l0.28-0.15c-0.35-1.47-0.7-2.94-1.04-4.4L330.61,581.27z"/>
	<path class="st0" d="M336.16,591.29c-0.41-1.36-0.82-2.73-1.23-4.09l-0.29,0.2c0.4,1.4,0.8,2.79,1.2,4.19L336.16,591.29z"/>
	<path class="st0" d="M356.48,619.15c2.1,1.04,1.72,2.87,1.47,4.65l0.29,0.24c-0.94-1.57-2.41-2.97-1.54-5.09L356.48,619.15z"/>
	<path class="st0" d="M366.72,641.9c0.19-1.92,0.38-3.83,0.57-5.75l-0.01,0.07c-0.1,1.83,0.87,3.82-0.8,5.42L366.72,641.9z"/>
	<path class="st0" d="M562.99,656.48c0.08,0.56,0.17,1.12,0.25,1.68c-0.09-0.64-0.18-1.28-0.27-1.92L562.99,656.48z"/>
	<polygon class="st0" points="347.13,739.21 347.65,739.2 347.41,740 	"/>
	<path class="st0" d="M458.95,826.66c-0.64,0.05-1.28,0.1-1.92,0.14c0.64-1.44,1.11,0.2,1.68,0.1L458.95,826.66z"/>
	<path class="st0" d="M460.16,829.5c0.81,0.09,1.63,0.19,2.44,0.28c-0.2,0.36-0.38,1.02-0.61,1.04c-1,0.08-1.59-0.47-1.62-1.52
		L460.16,829.5z"/>
	<path class="st0" d="M318.76,322.75c-0.49,0.52-0.44,0.94,0.15,1.26c0.02,0.01,0.04,0,0.07-0.01c-0.09-0.51-0.17-1.02-0.26-1.54
		L318.76,322.75z"/>
	<path class="st0" d="M322.62,333.31c-0.48-0.29-1.09-0.48-1.43-0.88c-0.47-0.56-0.15-1.38,0.46-1.25c1.29,0.28-0.18-0.52,0.33,0.71
		c0.22,0.52,0.24,1.11,0.35,1.67L322.62,333.31z"/>
	<path class="st0" d="M528.87,338.83c0.18,0.21,0.37,0.41,0.54,0.63c0.25,0.32,0.49,0.66,0.74,0.99c-0.25,0.03-0.71,0.11-0.72,0.07
		c-0.13-0.5-0.2-1.01-0.28-1.52L528.87,338.83z"/>
	<path class="st0" d="M298.41,351.5c0.06-1.07,0.68-1.61,1.68-1.59c0.23,0,0.46,0.59,0.69,0.91c-0.88,0.13-1.75,0.27-2.63,0.4
		L298.41,351.5z"/>
	<path class="st0" d="M380.6,358.98c-0.6-0.1-1.21-0.19-1.81-0.29c1.03-1.17,1.31,0.59,2.06,0.52L380.6,358.98z"/>
	<path class="st0" d="M324.35,601.5l-0.2,0.23L324.35,601.5z"/>
	<path class="st0" d="M338.85,593.04c-1.31,0.04-2.06-0.77-2.69-1.76l-0.32,0.29c1.26,0.01,2.18,0.58,2.72,1.73L338.85,593.04z"/>
	<path class="st0" d="M331.65,585.56c1,0.61,1.99,1.22,2.99,1.84c0,0,0.29-0.2,0.29-0.2c-1-0.59-2-1.19-3-1.78L331.65,585.56z"/>
	<path class="st0" d="M330.89,581.01c-0.44-0.12-0.89-0.24-1.33-0.36c0.16,0,0.36-0.06,0.46,0.01c0.23,0.17,0.4,0.41,0.59,0.61
		L330.89,581.01z"/>
	<path class="st0" d="M325.85,575.65c0.45,0.12,0.91,0.23,1.36,0.35c-0.16,0.01-0.38,0.09-0.48,0.01c-0.23-0.17-0.41-0.41-0.61-0.62
		L325.85,575.65z"/>
	<path class="st0" d="M471.69,821.68c0.23,0.09,0.47,0.17,0.7,0.26c0.03-0.75-0.11-0.75-0.44-0.01L471.69,821.68z"/>
	<path class="st0" d="M460.37,829.3c-1.66-0.24-2.08-1.15-1.42-2.64l-0.24,0.24c0.94,0.61,1.91,1.21,1.45,2.6L460.37,829.3z"/>
	<path class="st0" d="M329.96,457.09c-0.09-0.07-0.18-0.14-0.27-0.21L329.96,457.09z"/>
	<path class="st0" d="M342.21,434.93c-0.16,0.18-0.32,0.36-0.48,0.54c0.72,0.35,0.8,0.24,0.24-0.32L342.21,434.93z"/>
	<path class="st0" d="M344.46,431.89c0.15-0.18,0.29-0.37,0.44-0.55c-0.61-0.4-0.69-0.3-0.24,0.31
		C344.66,431.64,344.46,431.89,344.46,431.89z"/>
	<path class="st0" d="M348.82,425.86c-0.14-0.15-0.28-0.29-0.42-0.44c-0.16,0.59,0.07,0.66,0.68,0.21L348.82,425.86z"/>
	<path class="st0" d="M364.5,393.72c0.94-0.95,0.9,0.73,0.42-0.48c-0.23-0.57-0.71-0.31-0.18,0.27L364.5,393.72z"/>
	<path class="st0" d="M380.86,359.21c-0.99,0.9-1.13-0.72-0.36,0.34c0.3,0.41,0.71-0.05,0.1-0.56L380.86,359.21z"/>
	<polygon class="st0" points="271.96,359.07 272.3,359.08 271.7,358.94 	"/>
	<path class="st0" d="M529.14,339.01c-0.21-0.06-0.57-0.23-0.6-0.18c-0.32,0.51-0.19,0.53,0.33,0.01L529.14,339.01z"/>
	<path class="st0" d="M347.97,190.04c1.47-0.61,2.23-0.13,2.29,1.47c0,0,0.22-0.24,0.22-0.24c-1.27,0.27-1.89-0.53-2.39-1.49
		L347.97,190.04z"/>
	<polygon class="st0" points="348.09,189.77 348.11,189.43 347.97,190.04 	"/>
	<polygon class="st0" points="540.58,123.33 541.07,123.67 540.86,123.06 	"/>
	<path class="st0" d="M540.86,123.06c-0.44-0.12-0.89-0.24-1.33-0.36c0.16,0,0.36-0.06,0.46,0.01c0.23,0.17,0.4,0.41,0.59,0.62
		L540.86,123.06z"/>
	<path class="st0" d="M236.9,705.07c-0.98-0.91,0.83-0.63-0.46-0.37c-0.53,0.11-0.36,0.52,0.28,0.14L236.9,705.07z"/>
	<path class="st0" d="M532.68,113.07c-0.07-0.08-0.13-0.16-0.2-0.25C532.48,112.82,532.68,113.07,532.68,113.07z"/>
	<polygon class="st0" points="178.76,657.25 179.15,657.64 179.08,657.06 	"/>
	<path class="st0" d="M176.68,654.73c0.69,0.84,1.39,1.68,2.08,2.52l0.32-0.19c-0.76-0.87-1.52-1.74-2.29-2.61L176.68,654.73z"/>
	<path class="st0" d="M357.95,623.81c0.24,0.05,0.48,0.11,0.72,0.16c-0.23-0.77-0.37-0.74-0.43,0.08L357.95,623.81z"/>
</g>
</svg>
