<?xml version="1.0" encoding="utf-8"?>
<!-- Generator: Adobe Illustrator 24.0.2, SVG Export Plug-In . SVG Version: 6.00 Build 0)  -->
<svg version="1.1" id="Layer_1" xmlns="http://www.w3.org/2000/svg" xmlns:xlink="http://www.w3.org/1999/xlink" x="0px" y="0px"
	 viewBox="0 0 2092.75 1547.7" style="enable-background:new 0 0 2092.75 1547.7;" xml:space="preserve">
<path d="M890.36,146.33c0.56-2.72-1.82-3.8-0.35-5.96c0.07-0.05,0.57-0.47,1.11-0.83c2.7-1.76,7.25,0.54,8.54-4.95
	c0.72-3.05,4.65-5.01,4.34-9.3c-0.17-2.42,1.48-4.97,2.5-8.01c-8.23-4.13-16.32-7.83-24.05-12.17c-7.83-4.39-15.55-9.04-22.86-14.23
	c-7.03-5-13.57-10.7-20.13-16.33c-6.72-5.76-13.2-11.8-19.83-17.77c2.61-2.55,5.01-1.22,7.03-0.83c19.28,3.76,38.9,4.9,58.32,7.58
	c9.89,1.36,19.73,2.9,29.53,4.73c3.49,0.65,5.72-0.13,7.81-2.72c3.76-4.65,7.67-9.18,11.48-13.8c3.64-4.42,6.42-9.3,7.66-14.95
	c0.35-1.59,0.28-3.39,2.28-4.17c3.71,1.46,3.11,5.38,4.54,8.19c2.8,0.38,3.84-2.11,5.53-3.47c10.83-8.67,23.29-14.02,36.42-18.04
	c12.14-3.72,24.68-5.51,37.2-7.05c12.05-1.48,23.31-4.99,34.16-10.24c1.91-0.92,3.73-3.13,6.74-1.31c-0.03,4.74-3.9,7.87-6.56,12.87
	c8.37,0.53,15.92-0.01,23.3,1.41c19.01,3.67,37.67,8.36,54.49,18.39c13.86,8.27,24.38,19.02,28.35,35.57
	c1.99,8.3,6.37,15.97,7.77,24.65c1.45,8.98,1.99,17.78-0.54,26.62c-0.35,1.22-0.3,2.55-0.45,3.96c7.74,3.02,16.13,1.72,23.9,5.07
	c1.76,9.72,1.8,19.17-1.96,28.35c-3.43,8.39-7.8,16.39-14.71,22.33c-5.22,4.49-7.61,9.87-8.34,16.34c-0.52,4.65-1.56,9.15-3.28,13.5
	c-1.56,3.94-4.1,6.52-8.22,8.04c-6.28,2.31-12.79,3.47-19.84,4.64c5.99,15.59,2.55,29.99-4.78,43.96c-3.82,7.28-9.89,12.59-16,17.64
	c-3.69,3.05-6.66,6.34-9.05,10.37c-2.91,4.9-6.61,9.16-10.78,13.04c-4.45,4.14-9.27,7.55-15.48,8.49c-1.64,0.25-3.24,0.75-4.24,2.22
	c0.09,0.37,0.07,0.79,0.25,0.94c8.85,7.22,15.8,16.13,21.8,25.69c4.06,6.47,9.47,11.1,15.99,14.65
	c17.62,9.59,33.98,20.99,48.51,34.81c11.67,11.1,21.85,23.42,25.43,39.74c3.05,13.9,2.53,27.84-1.38,41.48
	c-1.94,6.78-5.85,12.42-11.83,16.78c-6.83,4.98-13.97,9-22.12,11.19c-1.57,0.42-3.36,0.29-4.91,2.28
	c-0.86,8.21,0.92,16.62,3.17,24.89c4.84,17.78,7.03,35.84,6.73,54.24c-0.25,15.31,0.05,30.66-0.88,45.93
	c-0.5,8.23-0.48,16.63-2.68,24.72c-1.95,7.17-0.28,14.62-1.9,21.83c-1.89,8.42-3.13,16.99-5.31,25.33
	c-3.96,15.13-6.33,30.53-8.5,45.97c-2.2,15.68-9.04,29.79-14.81,44.27c-0.49,1.22-1.4,2.28-1.93,3.49
	c-4.89,11.23-4.81,11.21-1.23,23.73c9.7,33.9,17.15,68.23,20.93,103.35c2.67,24.89,2.3,49.84,2.29,74.79
	c0,9.74-1.99,12.16-11.31,14.55c-1.92,0.49-3.85,0.96-5.47,1.37c-1.91,1.79-1.7,3.84-1.87,5.82c-0.57,6.54-0.42,13.24-5.42,18.61
	c-1.21,1.3-1.73,3.7-1.72,5.6c0.02,5.62-1.72,11.21-0.3,17.25c7.19,1.97,14.96-2.86,22.44,1.31c6.17,31.26,2.36,60.74-16.69,87.07
	c-6.4,8.85-14.07,16.92-25.43,20.63c-1.66,3.13-0.5,6.87-0.87,10.45c-1.71,16.42-4.88,32.59-16.79,44.83
	c-6.79,6.98-10.3,15.15-13.83,23.72c-13.55,32.91-25.89,66.25-36.99,100.06c-1.97,6-4.08,11.96-6.23,17.9
	c-0.67,1.86-1.21,4.29-2.62,5.27c-5.25,3.66-4.49,10.19-7.63,14.78c-1.09,1.59,0.07,3.2,0.35,4.77c0.93,5.35,0.56,10.56-1.48,15.13
	c0.86,5.59,5.67,9.11,4.79,15.28c-0.44,3.06,4.17,5.75,6.98,8.01c3.7,2.98,6.91,5.93,7.88,10.95c0.58,3.03,3.49,4.76,5.83,6.59
	c7.63,5.96,14.77,12.4,20.71,20.16c3.37,0.45,6.68,0.71,9.9,1.36c2.91,0.59,5.86,1.31,8.23,4.1c-0.28,3.27-0.58,6.81-0.89,10.49
	c4.51,4.77,9.23,7.97,16,9.3c12.22,2.4,23.21,8.14,32.1,17.12c6.68,6.75,9.93,14.86,7.8,24.52c-0.28,1.26-0.59,3.24-1.4,3.55
	c-6.01,2.3-9.73,8.66-17.08,8.77c-10.01,0.15-19.98,0.04-29.89-1.3c-5.7-0.77-10.46-3.91-15.21-7.54c-3.12,2.1-0.83,6.01-3.54,8.37
	c-5.1,1.15-10.78,0.28-16.39,0.53c-4.36,0.2-8.62-0.57-12.52-1.37c-3.38-1.67-2.78-5.43-5.23-8.08c-5.99-0.54-10.11-4.54-13.8-9.58
	c-9.44-12.9-18.27-26.2-26.58-39.85c-2.27-3.73-4.4-7.32-8.29-9.71c-1.88-1.16-3.44-3.19-4.59-5.14
	c-5.38-9.14-11.36-17.97-15.08-27.98c-0.77-2.08-2.13-3.3-3.66-4.47c-4.22-3.24-8.49-6.41-12.8-9.54c-7.4-5.38-9.93-12.74-5.87-20.7
	c2.54-4.98,3.63-10.78,7.66-14.94c2.95-3.05-0.13-7.03,2.17-10.41c4.09-6.02-0.16-12.72,0.55-19.1c0.07-0.67-1.26-1.43-1.78-2.26
	c-0.33-0.53-0.36-1.25-0.62-2.25c14.43-26.76,21.02-56.21,25.66-86.16c1.89-12.18,0.79-24.57,0.55-36.89
	c-0.28-14.27-1.45-28.55,1.48-42.8c2.48-12.05,6.33-23.09,15.99-31.06c0.59-4.84-0.77-9.75,3.11-13.56c1.5-1.48,0.9-3.78,1.15-5.74
	c0.82-6.63,2.23-13.16,4.96-19.25c2.23-4.99,3.11-10.07,3-15.47c-0.12-6-0.39-12.02,0.07-17.99c0.5-6.48-2.05-11.63-5.81-16.4
	c-6.87-8.72-9.28-20.24-6.08-31.14c-2.16-1.7-4.42-3.59-6.8-5.33c-8.17-5.97-15.2-12.9-19.4-22.33c-0.8-1.79-1.5-4.09-3.57-4.59
	c-5.62-1.36-6.54-6.1-8.07-10.45c-8.19-23.24-14.17-47.09-19.62-71.08c-4.85-21.37-9.19-42.86-10.44-64.81
	c-0.55-9.58-0.35-19.21-2.58-29.56c-18.62,5.9-36.36,14.94-56.05,13.37c-3.53,9.06-3.81,9.41-12.31,12.48
	c-17.29,6.25-35.39,9.05-53.4,12.1c-8.51,1.44-17.12,3.23-25.68,3.25c-9.46,0.02-17.86,1.63-26.23,6.32
	c-4.7,2.63-10.86,3.09-16.45,3.6c-13.89,1.27-27.82,2.31-41.75,2.89c-18.92,0.79-37.86,1.07-56.79,1.58
	c-3.07,0.08-5.63,0.97-7.92,3.4c-3.08,3.27-7.22,4.24-11.81,4.31c-16.71,0.25-33.27-1.14-49.51-4.9
	c-15.86-3.67-32.09-5.54-47.76-10.26c-4.86-1.46-10.47-0.97-15.49,1.59c-3.91,2-8.09,2.41-12.57,1.87
	c-23.12-2.76-46.18-5.84-68.62-12.33c-5.41-1.56-10.75-2.55-16.54-2.27c-6.62,0.32-13.12-1.83-19.55-3.54
	c-1.91-0.5-4.06-1.59-5.75-1.14c-8.88,2.39-16.35-1.79-23.89-4.97c-6.72-2.83-13-6.7-19.53-10.01
	c-10.38-5.27-20.82-10.41-31.18-15.7c-3.77-1.93-7.13-2.48-11.29-0.32c-4.1,2.13-8.83,2.35-13.62,1.26
	c-11.54-2.62-16.68-10.21-14.4-21.91c0.44-2.27,1.39-4.48,0.3-6.93c-3.2-2.61-6.34-3.12-9.5,0.33c-1.11,1.22-2.38,2.74-3.83,3.12
	c-7.85,2.01-12.91,8-18.77,12.79c-23.51,19.23-48.75,35.87-75.18,50.77c-4.18,2.35-8.45,3.3-13.28,3.43
	c-21.06,0.58-41.77-2.85-62.59-5.03c-15.52-1.63-31.05-3.29-46.55-5.13c-10.23-1.22-20.43-2.68-30.6-4.25
	c-3.24-0.5-6.65-1.2-8.44-4.75c-0.51-2.57,1.05-4.28,2.81-5.86c5.44-4.88,10.78-9.89,16.42-14.55c2.63-2.18,4.95-5.16,9.49-4.12
	c1.71,0.39,4.13-1.79,6.08-3.03c21.92-13.9,43.82-27.84,65.71-41.77c4.48-2.85,8.95-5.72,13.93-7.65c1.05,0.44,2.03,0.69,2.83,1.22
	c5.02,3.32,5.07,3.36,6.69-2.37c0.48-1.7,1.58-2.84,2.64-4.11c9.44-11.26,19.89-21.47,31.99-29.85c2-1.38,3.86-2.46,4.31-5.03
	c1.62-9.14,4.02-18.15,4.53-27.16c-1.35-3.79-5.62-4.06-7.42-7.7c-0.54-3.36-0.27-7.21,0.27-11.22c1.22-9.2,1.68-18.5,2.71-27.73
	c0.57-5.18-1.97-10.69,3.83-15.32c3.24-2.59,0.79-10.21-3.5-12.8c-4.91-2.96-6.25-6.79-6.55-12.33c-0.65-11.9-2.51-23.72-3.42-35.61
	c-1.05-13.58-1.45-27.2-2.43-40.78c-1.68-23.16-3.38-46.33-9.34-68.93c-0.78-2.97-1.39-5.88-3.97-7.79
	c-5.31-3.95-6.46-10.01-7.68-15.8c-6.29-29.88-12.35-59.82-18.45-89.74c-0.12-0.58,0.28-1.26,0.54-2.33c2.97,2.38,6,4.44,8.6,6.95
	c29.99,28.96,57.4,60.15,81.35,94.34c14.35,20.48,26.86,42.04,38.31,64.24c10.4,20.16,18.04,41.45,25.9,62.67
	c12.08,32.58,19.39,66.25,23.47,100.69c1.17,9.88,2.71,19.72,3.91,29.6c0.82,6.76,0.69,13.37-5.02,17.96
	c2.31,12.48,3.6,16.26-4.84,33.7c1.17,1.65,2.61,1.95,4.13,0.58c2.48-2.22,4.71-4.75,7.33-6.78c10.98-8.5,21.2-6.82,28.44,4.91
	c4.85,7.85,12.22,12.02,20.65,13.61c16.65,3.14,33.4,6.59,50.24,7.61c19.2,1.17,38.49,2.24,57.84,0.78
	c13.59-1.03,27.31-0.23,40.97-0.26c2.75-0.01,5.14,0.85,7.51,2.29c4.21,2.56,9.14,3.12,13.46,1.34c6.29-2.6,12.8-3.28,19.35-4.04
	c22.77-2.65,45.56-5.16,68.51-5.62c4.94-0.1,9.91-0.4,14.17,3.22c9.26-9.24,20.44-13.24,32.26-15.84
	c18.84-4.15,37.68-8.3,56.54-12.34c5.56-1.19,11.25-2.5,15.32,2.25c7.85-3.38,12.91-8.89,19.27-12.39
	c14.58-8.03,29.73-14.9,44.86-21.76c10.84-4.92,21.78-9.26,31.7-16.26c10.83-7.64,22.71-13.82,34.32-20.31
	c31.06-17.36,62.18-34.61,93.37-51.75c6.13-3.37,10.8-7.64,12.72-14.94c-11.36-7.75-10.21-19.7-9.58-31.66
	c-6.43-4.71-12.81-9.4-19.23-14.03c-0.79-0.57-1.76-0.94-2.7-1.23c-23.63-7.38-38.46-23.99-48.34-46.03
	c-2.65,0.48-5.38,1.49-7.23-2.02c-6.83-12.98-9.63-26.16-2.81-40.07c0.43-0.88,0.66-1.86,1.08-3.06c-3.52-2.55-8.59,1.2-11.57-2.44
	c-0.37-1.84,0.42-2.96,1.5-3.71c14.67-10.24,19.29-24.6,17.84-41.84c-0.62-7.39-2.33-14.38-4.58-21.36
	c-1.07-3.32-3.38-4.86-6.56-5.25c-2.3-0.28-4.65-0.24-6.98-0.25c-12-0.02-24-0.24-35.99,0.05c-14.35,0.34-28.53-1.9-42.82-2.3
	c-10.62-0.29-21.23-1.04-31.83-1.81c-5.84-0.42-11.99,0.42-17.45-3.23c-0.5-5.18,3.26-8.09,6.17-10.87
	c19.8-18.92,41.17-35.76,65.78-48.15c6.25-3.15,12.6-6.02,19.3-8.09c2.8-0.87,5.49-2.1,7.78-2.99c1.4-2.67,0.16-4.35-0.6-6.19
	c-5.36-12.94-10-26.16-11.76-40.1c-1.38-10.91-0.9-21.96-0.19-32.91c0.43-6.59,1.81-13.12,2.89-19.65
	c4.87-29.58,19.33-54.17,39.49-75.79C867.51,159.95,877.69,151.54,890.36,146.33z"/>
</svg>
