<?xml version="1.0" encoding="utf-8"?>
<!-- Generator: Adobe Illustrator 23.1.0, SVG Export Plug-In . SVG Version: 6.00 Build 0)  -->
<svg version="1.1" id="Layer_1" xmlns="http://www.w3.org/2000/svg" xmlns:xlink="http://www.w3.org/1999/xlink" x="0px" y="0px"
	 viewBox="0 0 1778.78 5197.35" style="enable-background:new 0 0 1778.78 5197.35;" xml:space="preserve">
<g>
	<path d="M441.42,1170.5c-1.06-1.11-1.24-1.47-1.52-1.57c-11.51-4.18-11.52-4.18-11.51-16.87c0-2.33-0.15-4.68,0.04-7
		c0.68-8.27-1.32-15.83-5.67-22.86c-7.77-12.55-11.18-26.2-10.39-40.97c0.32-5.95,0.05-11.92,0.05-17.33
		c-12.29-7.94-11.59-18.69-8.38-29.69c1.67-5.69,4.07-11.38,7.27-16.33c4.06-6.29,1.63-10.49-2.83-13.66
		c-2.42-1.72-5.21-2.95-7.92-4.23c-7.75-3.65-13.8-9.17-18.57-16.24c-7.66-11.35-15.05-22.86-18.87-36.16
		c-10.8-37.64-3.6-71.76,20.47-102.47c1.85-2.36,3.98-4.55,5.49-7.11c1.09-1.85,1.35-4.19,2.12-6.8c-2.49-0.74-4.28-1.42-6.14-1.79
		c-6.84-1.39-13.85-2.16-20.51-4.12c-14.69-4.34-25.75-13.64-33.42-26.83c-3.26-5.61-3.05-7.32-0.02-14.9
		c3.08-1.26,5.01,0.91,7.01,2.54c5.42,4.42,11.31,6.15,18.49,5.65c11.6-0.8,23.26,0.32,34.86-1.81
		c11.63-2.13,22.31-6.25,32.53-12.11c28.21-16.17,49.95-39.64,71.7-63.11c2.02-2.18,3.49-4.86,5.22-7.31
		c2.58-3.66,3.69-7.66,3.53-12.21c-1.01-29.97,6.78-57.92,19.64-84.69c3.32-6.9,6.57-13.83,10.06-20.64
		c2.69-5.27,2.46-10.12-0.8-15.07c-12.43-18.8-13.35-39.25-8.34-60.46c3.93-16.65,10.59-32.24,18.92-47.14
		c1.13-2.01,2.26-4.51,4.09-5.57c11.25-6.53,16.21-18.34,23.71-27.92c14.59-18.63,26.69-38.97,38.17-59.63
		c6.3-11.33,12.07-22.98,17.62-34.71c11.09-23.46,23.57-46.14,36.64-68.54c12.63-21.63,26.59-42.21,43.74-60.51
		c13.22-14.11,27.34-27.22,43.45-38.07c10.57-7.12,22.32-11.96,34.17-16.01c15.07-5.15,30.75-8.54,46.16-12.69
		c17.03-4.59,34.06-9.19,51.1-13.75c5.13-1.37,10.24-3.01,15.47-3.83c3.86-0.6,5.79-2.66,7.35-5.84
		c4.82-9.84,9.83-19.59,14.62-29.44c1.3-2.67,2.96-5.59,2.92-8.37c-0.08-5.38,2.3-9.56,4.64-13.98
		c9.57-18.04,23.2-32.43,39.67-44.24c4.88-3.5,10.15-6.18,16.4-6.83c6.93-0.72,13.78-2.22,20.68-3.27
		c9.41-1.43,18.62,0.75,27.7,2.46c14.36,2.7,28.6,6.17,42.75,9.83c11.36,2.94,21.67,8.39,31.27,15.14c1.91,1.34,3.82,2.68,5.77,3.96
		c3.08,2,6.44,2.34,9.4,0.2c9.07-6.59,19.42-6.34,29.76-5.74c3.92,0.22,7.92,1.1,11.65,2.36c14.19,4.8,28.13,10.36,42.44,14.74
		c14.96,4.58,30.03,9.5,45.42,11.76c16.63,2.45,33.6,5.53,50.6,1.6c5.49-1.27,10.74-0.98,14.43,4.07c3.97,5.42,3.6,11.5,0.97,17.08
		c-3.49,7.4-9.14,13.29-16.67,16.64c-15.28,6.79-30.96,12.3-48.1,11.59c-2.32-0.1-4.68-0.03-6.97,0.31
		c-10.82,1.61-14.06,5.51-13.95,17.09c-2.71,0.46-5.51,0.94-9.27,1.59c2.87,2.69,5.21,4.88,7.93,7.44
		c-4.24,6.99-1.23,12.95,3.18,18.77c5.02,6.62,9.76,13.46,14.84,20.03c1.58,2.04,3.62,4.09,5.9,5.18
		c15.04,7.19,30.22,14.17,46.78,17.1c7.84,1.39,15.84,1.92,23.79,2.61c21.97,1.91,43.67,5,63.09,16.43
		c13.62,8.01,24.65,18.62,33.84,31.78c13.24,18.96,16.92,40.19,18.07,62.32c0.7,13.32,0.05,26.66-2.8,39.74
		c-4.01,18.4-9.8,35.95-24.36,49.23c-1.82,1.66-2.81,4.45-3.65,6.89c-0.96,2.8-1.33,5.81-2.2,9.85c2.63,2.91,5.47,6.53,8.78,9.66
		c18.64,17.6,37.75,34.65,58.54,49.73c3.75,2.72,7.09,6.01,10.77,8.85c10.73,8.3,21.53,16.51,32.31,24.74
		c1.85,1.41,3.67,2.87,5.64,4.11c9.06,5.7,17.48,12.19,24.89,19.95c2.54,2.66,5.07,5.27,9.21,5.37c1.21,0.03,2.62,0.76,3.57,1.59
		c12.43,11.04,26.35,20.14,38.51,31.68c13.98,13.27,12.87,39.55-0.12,51.12c-11.47,10.21-22.72,20.46-35.85,28.5
		c-1.98,1.21-3.68,2.87-5.62,4.15c-1.65,1.09-3.45,2.68-5.22,2.74c-9.83,0.32-17,6.61-25.28,10.48c-7.51,3.51-15.29,6.57-23.2,9
		c-4.93,1.51-9.28,3.24-12.73,7.22c-2.16,2.5-5.07,4.34-7.29,6.81c-4.53,5.03-10.29,7.65-16.78,7.65c-6.1,0-10.14,2.33-12.91,7.51
		c-0.45,0.85-1.23,1.52-2.27,2.77c1.17,1.11,2.11,2.58,3.45,3.19c9.19,4.2,17.17,10.17,24.58,16.9
		c13.31,12.1,26.49,24.28,35.31,40.4c5.17,9.45,8.95,19.39,11.41,29.73c1.8,7.61,5.81,12.1,13.05,14.75
		c5.57,2.04,10.45,5.68,16.69,6.3c2.42,0.24,4.8,2.14,6.95,3.64c10.76,7.46,20.03,16.7,28.21,26.72c5.16,6.31,8.5,14.24,12.01,21.74
		c5.55,11.88,7.57,24.76,9.43,37.62c0.86,5.91,1.77,11.85,2.06,17.8c0.74,15.37-3.61,29.61-10.3,43.25
		c-1.16,2.37-2.49,4.66-4.08,7.64c5.46,8.41,11.9,15.73,20.77,20.75c2.61,1.47,5.36,2.78,7.7,4.6c4.01,3.11,3.43,6.99-1.19,9.37
		c-1.17,0.6-2.52,0.86-3.75,1.35c-6.8,2.71-8.32,4.87-8.36,11.77c-0.04,7.97-0.04,7.97-7.53,10.29c-8.03,2.49-8.87,4.2-6.04,12.26
		c1.21,3.46,2.71,6.84,3.57,10.38c0.7,2.85,1.66,6.28,0.71,8.77c-2.6,6.86-1.88,13.77-1.8,20.73c0.02,1.98-0.34,3.96-0.5,5.69
		c-0.57,0.76-0.85,1.48-1.37,1.77c-6.76,3.87-7.45,4.37-5.81,11.6c2.57,11.34,5.17,22.76,8.96,33.73
		c8.37,24.22,17.46,48.19,26.3,72.24c6.08,16.55,12.62,32.94,18.25,49.64c4.24,12.58,7.44,25.52,10.99,38.34
		c4.35,15.72,8.8,31.41,12.77,47.22c3.65,14.52,7.25,29.09,9.91,43.82c4.26,23.59,7.96,47.28,11.44,71
		c1.89,12.85,2.89,25.82,4.19,38.75c3.1,30.82,5.74,61.69,9.3,92.45c4.64,40.06,15.74,78.26,35.83,113.45
		c7.09,12.41,15.3,24.18,23,36.24c1.95,3.06,3.9,6.13,6.12,9.62c-9.85,5.32-18.97,2.77-27.19-0.92c-4.87,2.45-3.3,5.34-2.11,8.09
		c3.03,7.02,6.06,14.03,9.18,21c7.17,16.02,7.7,32.96,6.36,49.99c-1.37,17.41-6.22,34.02-13.82,49.76
		c-1.68,3.48-3.99,6.66-6.45,10.7c-4.3-4.58-6.05-8.95-6.93-13.89c-1.23-6.88-2.72-13.72-4.16-20.56c-0.63-3-1.48-5.91-5.44-6.52
		c-4.29,2.63-5.02,7.37-6.55,11.72c-3.66,10.44-8.78,19.96-18.09,27.37c-1.67-1.53-3.16-2.76-4.49-4.14
		c-2.67-2.77-5.79-4.21-9.72-4.35c-8.75-0.32-17.09-2.31-24.92-6.43c-4.16-2.19-8.44-2.96-13.44-1.95
		c-3.64,0.73-7.78-0.75-11.65-1.5c-2.27-0.44-4.44-1.4-6.65-2.13c-3.76-1.24-7.72-3.33-10.97,0.74c-3.64,4.56-3.42,12.52,0.53,16.52
		c3.97,4.02,8.06,7.99,12.5,11.47c12.29,9.66,24.15,20,39.08,25.67c3.19,1.21,5.92,3.13,6.52,6.92c-0.67,3.93-3.87,4.97-6.94,6.41
		c-7.29,3.4-7.96,6.59-3.22,13.04c5.12,6.96,9.87,14.21,15.24,20.97c5.37,6.76,11.28,13.08,17,19.56c2.16,2.44,5.51,4.42,4.31,8.34
		c-1.27,4.13-5.18,4.78-8.77,5.6c-2.82,0.64-5.65,1.23-7.96,1.74c-1.97,5.04,0.75,7.95,2.49,11.05
		c7.84,14.02,14.4,28.57,17.84,44.33c1.93,8.86,2.7,17.68-1.27,26.42c-1.15,2.52-0.95,5.81-0.82,8.73
		c0.27,5.96,1.28,11.9,1.25,17.84c-0.02,3.87-0.92,7.87-2.2,11.54c-1.37,3.94-1.94,7.66-0.77,11.69c2.22,7.67,4.39,15.36,6.47,23.08
		c5.02,18.64,8.62,37.5,10.98,56.72c3.05,24.86,3.5,49.74,3.66,74.7c0.07,10.27,1.47,20.52,1.82,30.79
		c0.13,3.89-1.22,7.82-1.44,11.75c-0.39,6.95-0.74,13.92-0.52,20.87c0.2,6.28,1.37,12.52,1.75,18.8
		c0.98,15.94,2.39,31.89,2.49,47.84c0.3,46.65,0.75,93.32-0.2,139.95c-0.8,39.6-3.28,79.17-5.38,118.73
		c-1.15,21.58-2.83,43.14-4.69,64.68c-2.26,26.18-4.98,52.32-7.48,78.48c-1.49,15.55-2.73,31.14-4.46,46.66
		c-1.07,9.58-2.93,19.06-4.29,28.61c-2.02,14.16-3.86,28.34-5.85,42.5c-3.25,23.07-6.42,46.16-9.89,69.2
		c-2.13,14.15-4.64,28.25-7.18,42.34c-4.13,22.92-7.93,45.91-12.74,68.68c-9.36,44.29-20.65,88.09-33.75,131.45
		c-7.6,25.13-14.24,50.58-20.46,76.09c-4.57,18.72-8.76,37.61-10.6,56.85c-1.08,11.26-1.38,22.6-1.71,33.92
		c-0.75,25.63-0.99,51.27-4.21,76.79c-4.79,37.92-14.61,74.39-29.65,109.52c-6.94,16.2-13.63,32.52-19.97,48.96
		c-2.38,6.17-3.8,12.77-5.11,19.28c-7.82,38.84-16.01,77.62-23.08,116.6c-9.8,54.09-21.03,107.85-33.88,161.29
		c-4.59,19.09-8.12,38.45-13.09,57.43c-10.04,38.32-20.63,76.5-31.24,114.67c-2.94,10.56-7.1,20.78-10.1,31.33
		c-3.82,13.44-7.42,26.96-10.43,40.6c-5.59,25.35-10.34,50.89-16.09,76.2c-6.13,26.95-12.97,53.75-19.6,80.59
		c-5.19,21.01-10.5,42-15.82,62.98c-6.88,27.11-14.09,54.14-20.61,81.33c-2,8.34-3.08,17.1-3.1,25.67
		c-0.06,21.65,0.93,43.3,1.11,64.95c0.13,14.98-0.43,29.96-0.6,44.95c-0.28,23.99-0.02,47.99-0.87,71.95
		c-0.95,26.81,1.5,53.31,7.03,79.4c2.3,10.87,7.43,21.33,12.47,31.38c11.49,22.87,23.68,45.38,35.66,68
		c5.6,10.58,10.96,21.32,17.18,31.53c5.69,9.35,12.45,18.04,18.62,27.1c2.4,3.53,5.81,5.15,9.68,6.58c16.18,6,32.81,8.32,50.04,7.35
		c14.65-0.83,29.31-0.42,43.82,1.99c10.38,1.72,20.24,4.97,26.66,14.04c2.82,3.99,4.64,8.69,7.01,13.26
		c10.31,4.36,21.14,8.59,31.64,13.5c8.66,4.05,14.29,11.78,20.36,18.82c1.73,2,3.1,4.34,4.48,6.62
		c7.22,11.91,14.39,23.85,21.57,35.78c1.96,3.26,4.5,5.74,8.38,6.57c5.2,1.1,7.2,4.46,8.63,9.59c2.49,8.92,6.58,17.37,9.54,26.18
		c2.33,6.92,4.23,14.02,5.78,21.16c0.6,2.79,0.22,6.05-0.61,8.83c-1.83,6.11-5.67,8.72-12.02,7.44c-4.68-0.95-7.71,0.58-10.57,3.72
		c-13.11,14.38-30.35,18.48-48.75,19.03c-11.96,0.36-23.97-0.22-35.77,2.22c-2.81,0.58-5.71,1.75-8.05,3.4
		c-4.3,3.03-8.27,5.44-13.68,2.36c-2.94-1.67-5.63,0.32-8.35,1.73c-5.29,2.75-10.67,5.42-16.23,7.56c-9.4,3.63-19.15,5.31-29.34,4.9
		c-10.32-0.41-20.66,0.09-30.99-0.18c-4.27-0.11-8.55-1.04-12.77-1.89c-1.47-0.29-3.35-1.1-4.05-2.27
		c-3.55-5.89-9.23-6.21-14.64-4.96c-17.93,4.13-35.79,2.09-53.64,0.09c-12.57-1.41-24.81-4.35-36.84-8.46
		c-31.2-10.64-56.12-29.78-77.14-54.78c-10.27-12.22-21.11-24-32.22-35.45c-8.46-8.72-15.69-18.15-20.28-29.35
		c-4.79-11.69-9.02-23.6-13.37-35.46c-2.52-6.87-4.74-13.86-7.24-20.74c-0.41-1.12-1.61-1.94-3.07-3.64
		c-1.24,2.13-2.63,3.57-2.94,5.21c-1.06,5.55-1.9,11.16-2.52,16.79c-1.43,13.11-5.68,25.24-12.19,36.64
		c-1.15,2.02-2.09,4.16-3.09,6.27c-2.92,6.14-6.27,11.56-13.95,12.85c-2.31,0.38-4.43,2.74-6.35,4.5
		c-8.16,7.45-8.18,7.51-19.27,8.43c-7.84,8.84-18.48,11.18-29.46,12.22c-11.07,1.05-21.9-1.03-32.56-3.87
		c-4.6-1.23-9.11-1.8-13.69,0.2c-24.34,10.61-49.85,13.95-76.17,11.96c-19.23-1.46-38.52-2.51-57.65-4.79
		c-9.47-1.13-18.81-4.13-27.93-7.15c-10.38-3.45-20.45-4.64-31.31-1.99c-15.42,3.76-30.35,1.66-44.09-6.83
		c-3.39-2.1-6.92-3.98-10.25-6.16c-9.02-5.9-11.17-16.06-15.24-25.01c-0.38-0.85-0.61-2.18-0.2-2.9c3.89-6.94-1.48-12.69-1.81-19.03
		c-4.84-1.09-7.78,0.8-10.79,3.94c-3.97,4.15-5.75,3.75-9.66-0.75c-1.53-1.76-3.13-3.49-4.41-5.43c-1.91-2.88-2.57-5.89-1.23-9.44
		c1-2.66,1.81-5.84,1.32-8.54c-2.3-12.81-1.6-25.17,3.85-37.14c0.76-1.67,0.87-3.62,1.49-6.37c-7.32-0.76-12.24,5.12-19.21,4.52
		c-2.35-1.91-5.15-4.17-8.25-6.69c0.34-1.2,0.28-2.9,1.08-3.56c5.15-4.28,6.33-10.53,8.73-16.25c3.22-7.65,6.87-15.12,10.58-22.55
		c10.38-20.73,17.43-42.55,20.07-65.53c1.71-14.85,2.29-29.88,2.58-44.85c0.82-42.31,1.22-84.62,1.78-126.93
		c0.01-1,0.33-2.12-0.02-2.97c-0.71-1.73-1.45-4.19-2.79-4.69c-1.3-0.48-3.5,0.91-5.06,1.89c-1.29,0.81-2.21,2.2-3.98,4.05
		c-1.35-2.18-2.72-3.6-3.17-5.26c-4.18-15.33-3.85-30.97-2.92-46.64c0.21-3.58,0.51-7.16,0.88-12.23c-3.49,1.86-5.63,3-8.39,4.47
		c-4-9.01-3.85-18.54-3.72-28.06c0.13-9.38,0.97-18.72,4.72-27.39c3.77-8.71,8.25-17.13,13.08-27.04
		c-7.75,2.69-14.64,3.04-21.68,2.21c-2.46-3.07-1-6.44-0.28-9.52c3.92-16.87,11.65-31.77,23.42-44.55c1.92-2.09,4.99-3.64,4.33-8.31
		c-5.16-1.55-11.09-2.55-16.25-5.09c-5.19-2.55-9.62-6.64-15.08-10.56c2.42-1.93,3.73-3.42,5.38-4.21
		c18.02-8.65,30.57-22.65,41.37-39.24c18.66-28.67,28.94-60.56,37.97-92.98c3.11-11.18,4.29-22.9,6.29-34.38
		c4.12-23.64,7.32-47.39,8.55-71.38c1.3-25.26,2.6-50.52,3.92-75.79c1.28-24.59,2.62-49.18,3.89-73.78
		c1.37-26.6,2.68-53.19,4.03-79.79c1.3-25.61,2.63-51.22,3.95-76.83c0.79-15.29,1.28-30.61,2.45-45.87
		c0.81-10.62,2.3-21.2,3.94-31.73c2.1-13.47,4.24-26.97,7.11-40.29c4.76-22.11,9.99-44.13,15.26-66.12
		c3.64-15.2,6.96-30.54,11.67-45.42c12.15-38.37,25.84-76.21,42.74-112.8c1.81-3.92,4.2-7.58,5.91-11.55
		c3.39-7.88,6.08-15.52,5.08-24.81c-1.02-9.42,0.64-19.31,2.35-28.78c1.93-10.67,1.91-21.32,0.82-31.84
		c-2.72-26.14-5.84-52.21-10.47-78.15c-4.16-23.3-10.42-46.06-15.25-69.17c-4.29-20.52-9.09-40.93-13.84-61.34
		c-4.6-19.76-9.47-39.46-14.11-59.21c-1.98-8.43-3.64-16.93-5.5-25.38c-5.15-23.39-10.35-46.77-15.47-70.17
		c-2.56-11.7-4.97-23.43-7.5-35.14c-4.64-21.46-9.41-42.89-13.98-64.37c-4.98-23.43-10.1-46.84-14.58-70.37
		c-4.36-22.88-8.38-45.85-11.78-68.89c-2.27-15.42-6.36-30.7-4.23-46.71c-2.07-0.7-3.55-1.19-5.43-1.82
		c-4.22,9.37-0.24,20.27-6.14,28.99c-8.01-0.71-9.58-11.09-18.09-10.54c-0.68,1.35-1.72,2.71-2,4.2c-0.36,1.93-0.25,3.99-0.1,5.98
		c1.16,14.84-4.07,28.15-9.99,41.25c-2.74,6.06-7.36,7.55-13.02,3.67c-4.89-3.35-9.39-7.49-13.34-11.92
		c-4.63-5.19-8.53-11.03-12.65-16.66c-1.74-2.39-2.91-5.33-7.19-5.65c-0.82,1.31-2.34,2.76-2.67,4.43
		c-0.82,4.24-1.26,8.57-1.58,12.88c-1.06,14.07-4.37,27.61-9.69,40.63c-1.83,4.49-3.4,9.51-9.34,11.13
		c-6.98-4.83-0.44-12.87-4.83-18.65c-4.05,1.42-3.61,5.74-5.27,8.59c-1.83,3.15-3.4,6.45-5.31,9.55c-1.86,3.03-2.64,6.99-7.53,8.49
		c-0.49-1.7-1.42-3.38-1.35-5.02c0.13-2.77,0.28-5.3-3.02-7.64c-1.43,1.67-3.06,3.13-4.15,4.91c-6.74,11.05-15.11,20.26-27.5,25.07
		c-1.52,0.59-3.15,0.97-4.76,1.23c-0.53,0.09-1.17-0.48-2.51-1.09c0.46-1.93,0.7-4.12,1.51-6.08c2.68-6.45,5.69-12.77,8.32-19.25
		c0.78-1.92,0.7-4.18,1.25-7.8c-2.38,1.69-3.74,2.19-4.34,3.16c-11.88,19.26-27.28,36.15-37.84,56.31
		c-6.47,12.36-13.55,24.42-19.75,36.91c-3.52,7.1-5.82,14.8-8.68,22.23c-0.58,1.51-1.22,3-1.77,4.34c-4.1,1.49-7.18,0.66-8.53-3.11
		c-2-5.62-3.51-11.41-5.21-17.13c-1.77-5.95-0.93-12.54-4.42-18.96c-1.65,1.18-3.54,1.8-3.92,2.91
		c-8.44,25.21-25.18,45.14-41.29,65.5c-2.88,3.64-5.05,7.83-7.75,11.62c-1.08,1.51-2.71,2.64-4.75,4.56
		c-3.49-5.77-5.36-11.09-5.58-17.21c-0.56-15.78,1.45-31.23,4.98-46.56c1.72-7.46,3.28-14.96,4.69-22.49
		c0.49-2.59,0.63-5.46-3.6-6.58c-0.91,0.81-2.43,1.64-3.19,2.93c-13.88,23.25-32.09,43.3-47.74,65.22
		c-7.84,10.99-13.53,23.6-19.45,35.83c-1.75,3.61-1.06,8.43-1.28,12.71c-0.06,1.27,0.79,2.56,0.91,3.86
		c0.28,3.19-2.19,6.39-4.95,6.27c-2.89-0.12-3.68-2.33-4.17-4.77c-2.68-13.22-2.8-13.24,0.74-29.3c1.24-5.63,1.5-11.12,0.19-17.99
		c-1.76,1.72-2.95,2.61-3.81,3.76c-13.75,18.41-27.61,36.69-43.73,53.19c-13.01,13.31-25.98,26.75-37.93,41
		c-8.49,10.12-16.16,21.2-17.58,35.2c-0.32,3.2-1.61,6.41-3.05,9.33c-0.53,1.08-2.88,1.98-4.2,1.77c-1.28-0.21-3.08-1.83-3.28-3.06
		c-0.4-2.48-0.22-5.19,0.36-7.66c0.59-2.54,2-4.88,2.93-7.35c3.2-8.42,3.18-8.42,0.98-19.71c-3.06-0.29-4.46,1.76-4.3,4.17
		c0.46,6.78-3.08,11.32-7.66,15.49c-9.19,8.38-17.39,17.45-21.14,29.74c-0.32,1.04-1.53,1.82-3.18,3.68c-1.15-4.45-2-7.77-3-11.68
		c-9.74,3.9-6.18,16.09-14.2,21.27c-1.76-2.33-3.38-4.46-5.12-6.76c-4.02,2.2-4.41,5.93-5.01,9.45c-1.63,9.52-3.08,19.07-4.75,28.58
		c-0.38,2.17-1.36,4.23-2.32,7.14c-2.28-1.42-3.99-2.22-5.38-3.39c-2.75-2.32-5.5-4.68-7.93-7.32c-1.76-1.92-3.39-4.14-4.41-6.52
		c-2.21-5.18-3.92-10.57-5.98-15.82c-0.66-1.69-1.8-3.18-3.29-5.73c-1.99,2.52-3.62,4.06-4.63,5.94
		c-8.53,15.82-16.7,31.83-25.45,47.52c-10.57,18.96-16.54,39.15-17.92,60.77c-0.19,2.96-0.56,5.91-0.99,10.41
		c-1.74-2.06-3.12-2.96-3.38-4.11c-1.36-6.17-2.44-12.4-3.62-18.61c-0.35-1.84-0.67-3.69-1.33-7.33c-1.89,2.94-3.15,4.33-3.77,5.97
		c-2.77,7.26-3.23,14.88-3.43,22.57c-0.39,15.33-0.88,30.69,3.49,45.6c2.05,6.98,5.05,13.67,7.38,20.57
		c0.53,1.57,0.08,3.48,0.08,5.24c-4.03,0.49-6.29-1.38-8.49-3.48c-8.47-8.09-16.35-16.64-21.37-27.42c-2.1-4.5-4-8.8-9.67-10.5
		c-2.35-0.71-3.95-4.28-5.64-6.73c-8.76-12.74-14.82-26.87-19.52-41.43c-8.5-26.38-20.7-51.14-31.55-76.51
		c-5.64-13.18-13.45-25.07-19.03-38.17c-2.47-5.79-5.7-11.29-8.89-16.74c-9.77-16.74-14.21-35.05-16.37-54.08
		c-0.26-2.31-0.31-4.75-1.16-6.86c-0.62-1.55-2.37-2.65-3.86-4.2c-6.48,6.96-0.81,16.36-6.47,23.67c-1.16-2.24-2.29-3.82-2.84-5.58
		c-5.71-18.15-9.3-36.7-11.74-55.59c-3.9-30.19-4.24-60.46-3.46-90.78c0.23-8.94,1.9-17.83,2.64-26.76
		c0.9-10.93,1.55-21.87,2.24-32.82c0.97-15.25,1.79-30.5,2.83-45.74c0.91-13.26,2-26.51,3.09-39.75c0.19-2.31,0.58-4.62,1.14-6.87
		c0.99-3.99,1.2-7.9-0.54-11.73c-2.03-4.45-1.71-8.97-1.04-13.7c3.92-27.77,11.04-54.76,18.93-81.62
		c8.92-30.38,18.72-60.43,29.91-90.04c9.58-25.33,22.19-49.11,36.93-71.78c7.26-11.17,14.39-22.42,21.82-33.48
		c11.92-17.75,26.06-33.71,40.59-49.32c10.21-10.97,20.55-21.82,30.86-32.69c13.1-13.81,27.98-25.64,42.59-37.75
		c13.06-10.82,26.05-21.75,39.55-32c18.59-14.11,37.81-27.52,59.79-35.78c14.6-5.49,29.84-9.32,45.43-11.32
		c4.27-0.55,8.48-1.62,12.75-2.16c23.41-3.01,46.99-4.12,70.48-6.18c27.99-2.46,55.91-1.52,83.86-1.58
		c22.36-0.05,44.48-2.57,66.66-5.2c17.88-2.12,35.4-5.96,52.99-9.38c13.67-2.66,27.05-7.02,40.35-11.27
		c9.68-3.09,12.98-9.52,11.16-19.33c-1.88-10.15-4.33-20.22-5.63-30.43c-1.21-9.55-1.67-19.26-1.71-28.9
		c-0.08-18.65,0.34-37.31,0.64-55.96c0.08-4.68,0.2-9.22-1.74-13.72c-1-2.31-0.82-5.17-0.93-7.8c-0.18-4.33-0.21-8.66-0.2-12.99
		c0.01-3.44-0.9-6.45-3-9.29c-6.76-9.09-8.11-19.36-6.29-30.32c0.82-4.91,1.2-9.89,1.85-14.84c1.57-12.02,5.56-23.27,10.81-34.14
		c2.93-6.06,3.13-7.06-1.82-11.17c-4.75-3.94-6.36-8.72-5.27-14.16c1.48-7.44,2.98-15.11,6.08-21.95c3.82-8.42,9.2-16.14,14.1-24.05
		c3.89-6.28,3.67-7.79-2.07-12.41c-4.65-3.74-9.42-7.43-13.54-11.71c-3.36-3.48-2.59-6.58,1.57-8.95c3.17-1.81,6.79-2.87,9.87-4.8
		c23.12-14.51,38.56-34.55,43.17-61.9c0.98-5.84,0.56-11.96,0.37-17.94c-0.14-4.41-2.91-7.5-6.91-8.95
		c-5.91-2.14-11.98-3.81-18.89-5.96c-3.92,4.02-8.11,8.23-12.2,12.52c-2.24,2.35-2.78,5.24-2.03,8.37c0.39,1.61,1.11,3.18,1.25,4.8
		c0.29,3.33-1.47,5.76-4.18,7.41c-2.5,1.52-5.12,1.4-7.5-0.35c-2.42-1.77-4.92-3.48-7.07-5.55c-10.28-9.95-19.89-20.55-27.29-32.81
		c-3.7-6.12-5.86-13.18-8.68-19.83c-0.98-2.31-0.8-5.45-4.83-6.02c-3,2.33-3.47,6.08-3.64,9.59c-0.54,10.99-1.97,21.79-4.65,32.5
		c-1.19,4.75-1.15,9.86,0.7,14.76c0.62,1.65,0.1,3.73,0.1,6.58c-2.09-0.82-4.02-0.96-4.7-1.95c-2.6-3.8-5.27-7.67-7.04-11.88
		c-3.3-7.87-8.77-14.89-9.6-23.75c-5.96-8.42-7.29-18.44-9.19-28.14c-1.78-9.05-2.81-18.29-3.53-27.49
		c-0.41-5.21,0.47-10.52,0.76-15.82c-1.68-1.96-3.7-2.93-6.04-1.3c-2.71,1.89-5.62,3.71-7.78,6.14c-4.44,5.01-10.27,6.77-16.3,8.62
		c-5.19-5.9,1.35-10.93,0.58-15.37c-4.37-9.41-9.67-17.75-12.12-26.85c-3.36-12.44-6.15-25.18-6.23-38.3
		c-0.1-16.63,0.06-33.31-1.09-49.88c-0.94-13.48-2.05-27.11-6.88-40.04c-4.05-10.84-7.94-21.75-11.64-32.72
		c-4.76-14.14-11.56-27.43-16.87-41.33c-2.25-5.89-3.9-12.02-5.62-18.09c-5.91-20.8-11.22-41.77-17.7-62.39
		c-9.79-31.18-15.84-63.22-23.38-94.93c-4.46-18.73-9.88-37.23-14.38-55.95c-4.58-19.08-8.5-38.32-12.84-57.47
		c-3.16-13.96-6.49-27.88-9.79-41.8c-1.61-6.8-3.41-13.55-4.99-20.35c-0.96-4.14-3.13-7.24-6.81-9.38
		c-10.1-5.87-13.29-14.97-12.86-26.22C442.47,1182.68,443.37,1175.95,441.42,1170.5z M1050.29,4579.02
		c8.09,3.91,14.26,1.33,19.76-2.42c17.52-11.93,28.28-28.79,34.05-48.93c10.27-35.86,18.67-72.15,24.21-109.07
		c2.67-17.77,5.19-35.57,7.63-53.38c1.72-12.52,3.25-25.07,4.74-37.62c1.33-11.24,2.58-22.5,3.71-33.76
		c1.06-10.57,2.48-21.15,2.77-31.75c0.96-34.65-1.27-69.22-3.48-103.78c-0.19-2.98-0.59-6.01-1.47-8.84
		c-0.39-1.27-2.16-2.87-3.37-2.94c-1.29-0.07-2.82,1.35-3.95,2.42c-0.64,0.6-0.69,1.83-0.99,2.78c-6.37,20.66-12.95,41.26-19.05,62
		c-5.45,18.52-10.66,37.08-17.87,55.04c-5.57,13.88-11.02,27.83-15.84,41.99c-9.86,28.96-19.22,58.09-28.86,87.13
		c-5.93,17.86-5.61,35.99-2.57,54.24c2.13,12.79,4.94,25.5,6.47,38.36c2.16,18.07-0.49,35.92-4.81,53.47
		C1048.5,4555.55,1049.9,4567.04,1050.29,4579.02z M441.22,958.28c-6-6.27-8.59-12.47-7.9-19.83c0.86-9.19,2.87-11.76,11.7-10.69
		c12.45,1.51,22.59-3.23,32.71-9.26c1.7-10.1-2.06-19.83-0.31-29.78c1.65-9.43,1.57-19.14,2.8-28.66
		c1.26-9.75,3.18-19.42,5.02-30.34c-2.77,1.65-4.75,2.57-6.44,3.88c-7.1,5.51-12.6,12.63-18.87,18.98
		c-14.82,15-27.23,31.77-37.58,50.02c-9.45,16.67-11.69,34.33-4.79,52.66c1.95,5.18,4.98,9.21,10.65,10.99
		C432.3,963.74,436.2,961.36,441.22,958.28z M1571.25,902.41c-5.81,3.26-11.18,6.46-16.73,9.33c-5.47,2.82-11.12,5.3-17.7,8.4
		c2.35,1.59,3.52,2.73,4.92,3.28c7.99,3.14,16,6.24,24.07,9.15c4.55,1.64,7.37,4.17,6.31,9.9c-3.32,2-6.91,4.16-11.52,6.94
		c4.9,3.17,8.77,6.19,13.07,8.34c4.19,2.09,7.24,7.28,13.04,5.58C1590.59,947.26,1582.71,915.28,1571.25,902.41z M533.71,852.22
		c-0.86-0.28-1.72-0.56-2.57-0.85c-2.84,3.05-6.99,5.64-8.27,9.24c-2.85,8.04-4.75,16.52-6.12,24.96c-0.9,5.55,1.69,8.71,7.07,10.42
		c2.78,0.88,5.86,1.26,8.78,1.16c6.25-0.21,8.09-2.71,7.06-9.02c-1.01-6.21-2.21-12.38-3.25-18.59
		C535.46,863.78,534.61,857.99,533.71,852.22z M1099.18,4870.82c12.27,13.19,29.26,19.27,42.89,30.28c1.38,1.12,3.32,1.55,5.38,2.46
		c-1.1-8.37-4.44-15.28-10.82-18.4c-8.61-4.22-12.5-11.4-15.5-19.71c-0.96-2.67-2.43-5.16-4.42-9.31c-2.21,4.35-4.03,7.1-5.04,10.12
		c-1.15,3.44-3.7,4.62-6.71,5.06C1103.1,4871.6,1101.11,4871.02,1099.18,4870.82z M1534.96,887.81c3.72,1.64,5.99,3.44,8.33,3.51
		c6.1,0.19,12.38,1.28,20.21-1.64c-7.75-9.3-15.26-16.72-25.05-22.62C1534.92,873.66,1539.7,880.63,1534.96,887.81z"/>
</g>
</svg>
