<?xml version="1.0" encoding="utf-8"?>
<!-- Generator: Adobe Illustrator 24.0.2, SVG Export Plug-In . SVG Version: 6.00 Build 0)  -->
<svg version="1.1" id="Layer_1" xmlns="http://www.w3.org/2000/svg" xmlns:xlink="http://www.w3.org/1999/xlink" x="0px" y="0px"
	 width="639.36" height="1049.12" viewBox="0 0 639.36 1049.12" style="enable-background:new 0 0 639.36 1049.12;" xml:space="preserve">
<path d="M483.86,945.09c-1.62-0.06-2.75,1.05-4.1,1.54c-2.07,0.75-3.96,0.03-5.36-1.46c-1.33-1.42-0.34-2.88,0.39-4.37
	c3.29-6.68,3.41-13.72,1.07-20.58c-4.66-13.69-10.52-26.8-21.01-37.24c-0.69-0.69-1.17-1.57-1.73-2.35c-2.1-2.93-4.15-5.66-8.8-3.89
	c-3.26,1.24-7.04,0.2-10.59,0.13c-1.15-0.02-1.78-0.72-2.45-1.79c1.62-2.62,5.28-3.03,6.84-5.8c1.65-2.94,1.22-6,0.87-9.43
	c-3.89,1.24-6.68,3.74-9.57,6.11c-1.34-0.7-2.19-1.15-1.78-3c1.16-5.24,3.21-10.19,4.83-15.27c-3.31-1.84-6.88-1.8-9.89-3.63
	c-2.67-1.62-4.39-3.63-4.22-6.64c0.18-3.07,2.73-3.75,5.28-4.84c2.33-1,5.25,0.52,6.92-2.28c-8.09-4.47-12.74-11.58-14.56-21.31
	c5.41-0.09,10.15-0.32,14.89-0.97c3.7-0.51,6.94-1.96,10.06-3.59c2.62-1.37,3.7-4.18,3.25-7.24c-1.48-10.04,2.6-17.77,11.64-21.03
	c3.31-1.2,6.08-2.98,8.96-4.88c2.06-1.36,2.49-2.71,2.47-4.82c-0.05-7.17-0.05-14.33,0-21.5c0.01-1.61-0.45-3.3,0.46-4.8
	c0.88-0.24,1.66-0.37,2.35,0.32c8.07,8.16,17.81,12.43,29.32,12.41c6.86-0.01,10.45-2.77,12.84-9.2
	c4.86-13.08,5.86-26.67,4.86-40.37c-0.5-6.92-2.01-13.74-6.43-19.74c-6.01-8.16-15.92-12.03-25.53-9.08
	c-2.44,0.75-4.87,1.55-7.42,2.37c-1.19-2.62,0.67-4.34,1.62-5.99c4.9-8.45,10.92-15.88,19.86-20.48c2.83-1.46,2.84-2.89-0.2-4.04
	c-7.38-2.8-14.25-6.59-20.71-10.99c-7.86-5.37-15.59-10.98-21.25-18.91c-1.78-2.5-3.95-4.72-6.8-8.06c0,2.84,0.02,4.55,0,6.27
	c-0.26,15.47-1.73,30.83-6.3,45.64c-2.73,8.86-7.1,17.16-11.09,25.56c-1.75,3.69-3.78,7.07-6.84,9.75c-1.3,1.14-2.16,2.6-2.63,4.11
	c-2.13,6.89-4.16,13.8-9.48,19.11c-1.1,1.1-0.62,2.52-0.63,3.8c-0.05,6.67-0.07,13.33-0.01,20c0.12,16.19-4.08,31.34-10.89,45.89
	c-1.29,2.76-3.07,5.28-3.93,8.37c-3.98-6.28-0.51-13.65-3.69-19.61c-2.09,3.62-1.62,8.22-2.18,12.44c-0.88,6.6-2.71,12.8-5.4,18.73
	c-4.39,9.66-7.99,20.06-16.39,27.07c-3.51,2.93-7.05,5.7-9.9,9.27c-0.82,1.03-2.06,0.88-3.28,1.63
	c3.91,15.51,6.31,31.45,11.65,46.67c1.02,2.9,1.81,5.9,3.83,8.4c0.99,1.23,0.95,3.56,2.57,4c2.43,0.66,5.04,0.73,7.59,0.84
	c6.86,0.31,12.01-3.51,16.91-7.58c4.4,5.03,0.95,13.51-7.77,19.93c0.11,0.28,0.16,0.78,0.33,0.82c2.14,0.57,4.54,1.34,4.39,3.87
	c-0.15,2.42-2.18,3.83-4.59,4.55c-2.43,0.72-4.8,1.67-7.39,2.6c2.73,4.58,6.51,7.34,11.36,8.24c4.53,0.84,9-0.41,14.24-2.66
	c-4.46,12.34-11.39,20.18-23.48,23.38c1.77,8,4.21,15.86,7.57,23.39c5.94,13.3,13.74,25.65,20.32,38.63
	c2.58,5.09,2.41,9.31-0.68,11.52c-2.21,1.58-4.45,3.11-7.22,4c-6.82,2.19-13.75,3.97-20.66,5.8c-6.29,1.67-12.48,3.77-19.02,4.4
	c-4.57,0.44-9.1,1.43-13.67,1.55c-9.66,0.24-19.37,0.61-28.98-0.06c-13.52-0.94-27.27-0.94-40.18-5.93
	c-8.12-3.14-15.63-7.29-17.76-16.77c-1.39-6.22-2.19-12.38-0.99-18.97c1.32-7.22,2.6-14.44,4.2-21.61c0.42-1.89,0.06-3.95,0.06-6.69
	c-6.33,1.31-12.5,2.28-17.62-2.14c10.44-10.01,11.83-22.75,11.69-36.51c-5.22,3.45-3.68,11.14-9.3,14
	c-2.33-5.39,1.35-10.21-0.19-15.41c-3.75,2.05-6.48,4.89-9.6,7.19c-6.22,4.58-13.42,6.54-20.83,7.94
	c-9.04,1.71-18.21,1.36-27.28,0.9c-11.75-0.59-23.44-2.51-34.59-6.35c-12.9-4.44-25.13-1.69-37.4,2.13
	c-5.87,1.83-10.53,5.74-15.36,9.34c-2.45,1.83-2.85,5.11-5.63,7.56c-1.77-12.68,1.76-23.34,8.1-33.66c-2.59-0.58-5.8,1.49-7.93-1.62
	c0.81-2.49,3.17-3.55,5.42-5.54c-5.85-1.38-12.32-0.7-16.16-7.41c5.71,0.2,8.39-3.36,11.31-6.42c2.83-2.97,3.32-5.96,1.14-9.4
	c-4.05-6.39-9.63-10.98-16.85-13.61c-5.62-2.05-10.55-0.93-14.37,3.28c-3.81,4.2-3.7,9.27-1.61,14.47c1.84,4.59,4.59,8.28,8.95,11.2
	c-3.34-0.22-6.61,0.76-9.81-0.32c-11.75-3.97-22.26-9.99-31.49-18.39c-16.34-14.87-25.69-33.33-29.74-54.87
	c-0.69-3.7-0.31-7.5-1.66-11.15c-0.71-1.9-0.33-4.3,1.83-6.07c5.47,3.45,11.62,2.26,18.24,1.72c-2.31-3.3-5.61-5.06-7.91-7.83
	c-8.24-9.92-13.58-21.28-15.1-33.93c-1.38-11.54-4.14-22.77-5.96-34.17c-1.14-7.1-0.52-14.46,2.14-21.95
	c3.35,4.34,4.71,9.35,7.67,13.41c4.38,6.03,8.97,11.63,16.55,14.03c8.4,2.66,16.44,2.17,24.26-1.72c3.51-1.75,7.02-3.44,11.43-3.9
	c-10.19-15.64-12.68-32.37-9.77-50.45c2.81,1.23,2.34,3.58,3.2,5.2c5.96,11.25,11.12,22.95,19.08,33.06
	c5.55,7.05,11.92,13.22,19.17,18.51c1.31,0.95,2.76,1.73,3.96,2.8c11.56,10.29,31.31,5.56,35.23-11.18
	c1.59-6.77-0.32-13.02-0.64-19.51c-0.04-0.8-0.52-1.61-0.49-2.39c0.39-8.13-1.81-16.16-1.02-24.3c0.9-9.27,1.97-18.49,6.16-27.05
	c1.12-2.28,2.83-4.07,4.3-5.95c1.62-2.08,1.27-3.46,0.14-5.19c-2.06-3.14-4.05-6.34-6.34-9.31c-1.14-1.49-1.62-2.79-0.88-4.68
	c2.08-0.17,3.51,1.44,5.28,2.06c2.61,0.91,5.07,1.5,7.3-0.77c2.2-2.23,0.41-4.21-0.31-6.34c-1.24-3.66-4.91-4.7-7.4-7
	c-0.85-0.79-1.34-1.24-1.08-2.5c4.04,0.57,7.84,0.61,11.38-2.39c2.71-2.31,4.51-4.84,4.33-8.21c-0.19-3.51-2.46-5.58-5.72-7.25
	c-3.79-1.94-7.73-2.44-11.73-2.74c-3.22-0.24-5.68-1.22-7.43-3.9c0.47-1.44,1.79-1.68,2.72-2.03c10.59-4.04,15.93-11.47,16.29-22.61
	c0.12-3.77,1.46-7.46,0.97-11.3c-1.03-7.96-1.6-15.96-2.68-23.93c-2.14-15.87-3.03-31.88,4.09-46.96c1.64-3.48,3.4-7.12,6.49-9.76
	c1.67-1.43,2.78-3.2,3.13-5.55c-5.55-4-7.18-9.7-7.09-16.23c0.04-2.8,1.13-3.89,3.88-3.81c4.28,0.11,8.57,0.03,13.96,0.03
	c-3.31-3.35-7.71-4.37-8.61-8.06c-0.76-3.11-4.3-6.36-0.51-10.1c2.13,1.35,4.08,2.74,6,4.26c8.13,6.46,19.49,4.55,25.31-4.06
	c3.23-4.77,5.5-10.03,7.99-15.18c2.75-5.68,5.89-11.04,10.81-15.13c2.19-1.82,2.42-3.86,1.84-6.6c-2.53-11.93-4.28-23.98-0.62-35.98
	c1.17-3.82,1.47-7.08,0.08-11.06c-4.46-12.82-2.26-24.82,5.97-35.66c2.78-3.66,2.42-4.21-1.58-6.71
	c-6.44-4.03-11.87-9.34-16.37-15.43c-7.51-10.17-14.19-20.86-19.73-32.28c-3.62-7.44-7.31-14.83-10.6-22.43
	c-7.71-17.84-14.06-36.07-17.84-55.17c-1.5-7.57-2.99-15.11-2.98-22.88c0-2.61-1.45-5.07-0.99-7.8c0.22-1.3-0.14-2.76,1.94-3.52
	c3,1.14,6.23,2.89,9.79,3.99c9.34,2.88,13.11-1.47,15.62-8.37c2.8-7.71,2.87-16.24,0.58-24.33c-1.61-5.7-5.47-9.93-11.67-10.21
	c-4.19-0.19-8.25,1.65-11.66,4.38c-1.83-2.9-1.41-6.02-1.61-9.07c-0.64-9.81,0.48-19.58,1.25-29.28
	c0.89-11.36,1.97-22.83,5.13-33.89c0.7-2.47,1.56-4.97,3.27-7.2c2.46-0.5,5.11,0.09,7.7-1c1.56-0.65,3.73-0.54,5.43-0.05
	c11.72,3.35,23.61,6.1,34.66,11.57c10.68,5.29,21.04,11.08,31.33,17.09c5.74,3.35,11.71,6.41,17.07,10.3
	c4.8,3.49,9.66,7.13,13.04,12.24c0.99,1.5,2.21,2.87,2.07,5.15c-2.69,0.8-5.77,0.99-8.11,2.64c-6.04,4.27-9.23,10.15-8.79,17.7
	c0.15,2.63,3.26,5.56,6.27,6.14c3.24,0.62,12.29-0.23,15.49-1.45c0.94,0.6,1.12,1.21,0.83,2.45c-1.56,6.68,4.16,12.63,10.71,10.89
	c2.3-0.61,3.96-2.93,5.32-5.07c3.36-5.28,2.64-11.03,1.79-16.75c-0.12-0.79-0.51-1.56-0.26-2.36c0.14-0.44,0.56-0.78,0.99-1.34
	c6.53,4.26,10.55,10.95,15.67,16.06c1.18,0.04,1.11-0.57,1.12-1.01c0.28-7.84,0.27-7.84,7.88-8.78c0.2-4.3-3.95-5.91-5.61-9.02
	c4.19-3.46,5.97-7.04,4.37-9.3c-1.27-1.8-3.6-2.82-5.47-2.95c-1.87-0.12-3.85,1.48-6.21,2.51c-3.96-22.8-2.59-44.9,5.67-66.48
	c11.42-2.26,29.19,1.29,47.85,9.67c1.32-4.31,2.63-8.59,4.04-13.2c2.58,1.6,4.75,3.67,7.94,4.05c1.75-2.64-1.74-4.31-1.28-7.17
	c5.77-4.31,12.8-3.07,19.6-2.82c-1.39-11.98-1.17-23.49,0.7-27.9c2.69,2.69,5.28,5.17,7.75,7.78c2.17,2.29,4.64,3.47,7.9,3.3
	c3.99-0.21,8.19,0.66,11.94-0.34c3.83-1.02,7.61,0,11.91-1.14c-0.49-5.02-2.45-10.45,1.48-15.57c3.5,10.14,13.02,13.35,20.32,19.02
	c3.42-1.26,4.45-5.61,8.5-6.09c1.34,2.07,2.54,4.14,2.99,6.84c2.77,0.05,5.46,0.64,7.74,2.3c3.14-3.08-2.3-6.84,1.31-9.73
	c5.11,3.17,7.83,8.43,11.49,14.27c0.16-4,0.31-6.88,1.81-9.43c2.71,1.83,9.82,17.51,12.04,26.81c6.45-10.32,10.03-21.36,12.93-32.8
	c4.39,9.32,0.76,19.4,3.99,29.22c3.28-0.02,5.68-4.68,10.33-4.26c-0.49,16.64-9.19,29.48-18.9,41.55c0.46,1.67,1.6,1.96,2.58,2.57
	c0.78,0.48,2.01,0.45,2.41,1.97c-1.41,2.37-4.09,2.58-6.42,2.99c-1.37,1.77,0.49,2.91,0.44,4.35c-0.11,2.88,0.72,6.23-3.87,6.49
	c-1.66,0.09-1.14,2.84-3.67,2.72c-0.67-0.12-1.3-1.06-1.59-1.93c-0.51-0.36-0.66-0.21-0.84,0.22c-1.8,4.38,0.18,7.92,5.19,7.79
	c7.98-0.2,14.88,3.47,22.32,5.14c1.88,0.42,2.31,2.07,2.35,3.32c0.32,9.45-0.14,18.71-6.76,26.49c-1.48,1.74-2.87,2.01-4.99,1.68
	c1.03,2.37,0.38,4.24-1.18,6.12c-2.29,2.75-4.44,5.59-6.18,8.8c-3.26,6.03-9.13,7.97-16.52,6.25c-3.47-0.81-6.91-2.13-10.6-1.52
	c0.43,3.75-1.91,6.74-2.48,10.17c3.91,1.94,3.9,2.72-0.13,8.84c1.71,3.53,4.7,6.18,7,9.35c0.39,0.53,1.11,0.87,1.38,1.43
	c2.25,4.89,6.37,4.86,11.06,5.24c10.86,0.86,20.9,4.45,30.04,10.72c14.57,10,21.41,24.75,25.17,41.07
	c1.37,5.94,1.71,12.6-0.72,18.75c-0.61,1.55-0.66,2.61,0.39,4.35c6.15,10.18,12.37,20.36,15.74,31.95
	c2.99,10.27,3.37,20.52,2.17,31.17c-1,8.92-4,17.04-7.03,25.56c7.42,6.59,12.9,14.7,17.83,23.29c5.02,8.74,7.82,18.23,9.82,27.94
	c1.53,7.4,1.65,15.02,2.32,22.55c0.65,7.28,0.18,14.78,2.73,21.89c1.05,2.93,2.13,4.75,5.8,4.67c4.78-0.12,9.22,1.81,13.48,3.94
	c2.07,1.04,2.86,3.08,3.8,5.01c2.44,5.04,5.04,9.92,9.26,13.82c2.1,1.94,4.27,3.64,6.87,4.67c2.2,0.86,2.92,2.21,2.89,4.53
	c-0.12,8,0.38,16.03-0.22,23.98c-0.32,4.17,0.62,9.51-5.04,11.79c-1.12,0.45-0.82,1.87-0.34,3.09c2.34,6.05,1.77,12.41,1.47,18.64
	c-0.5,10.13-10.76,18.13-21.43,17.47c-2.62-0.16-4.38-3.2-7.76-1.33c-2.1,1.16-5.29,1.14-7.66,0.09c-1.44,1.22-1.24,2.54-0.99,3.55
	c2.44,9.99,3.5,20.24,5.74,30.27c0.21,0.96,0.27,2,0.16,2.97c-0.4,3.65,1.37,6.18,3.77,8.7c8.17,8.57,15.72,17.61,20.68,28.53
	c3.33,7.32,5.16,15,6.71,22.87c1.66,8.43-0.52,15.78-4.09,23.09c-0.57,1.16-1.12,2.3-1.1,3.73c0.06,3.95-0.83,7.99-0.71,11.79
	c0.3,9.32-2.35,17.79-5.26,26.34c-3.73,10.96-7.34,21.94-13.73,31.79c-4.49,6.92-10.83,11.69-17.23,16.5
	c-5.12,3.85-10.27,7.68-14.77,12.27c-9.28,9.47-19.61,17.8-29.01,27.12c-4.66,4.62-8.55,10-12.96,14.89
	c-3.04,3.37-1.79,7.04-0.83,10.46c4.01,14.33,10.29,27.72,20.63,38.47c6.88,7.16,14.9,13.58,26.08,12.78
	c2.79-0.2,2.8-0.07,5.15-1.95c1.51,2.21,1.35,4.48,0.31,6.76c-2.48,5.46-6.65,9.17-12.31,11.71c2.41,2.89,5.99,2.7,9.12,3.37
	c2.05,0.43,4.62-0.08,5.42,2.32c0.73,2.19-0.73,3.85-2.5,5.35c-0.73,0.62-1.51,1.5-2.4,2.07c10.19,14.55,20.67,28.44,33.55,40.36
	c5.75,5.32,7.28,13.14-1.93,19.2c-4.62,3.04-9.63,4.44-14.83,5.95c-5.9,1.71-11.58,4.25-17.58,5.72c-6.68,1.63-13.42,2.7-20.32,3.26
	c-7.45,0.61-14.88,1.06-22.31,0.78c-12.29-0.47-24.57-1.38-36.33-5.37c-8.92-3.03-16.97-7.27-19.59-17.46
	c-2-7.76-2.25-15.61-0.84-23.49C484.31,948.68,484.45,946.9,483.86,945.09z M212.3,209.97c7.19,6.56,17.94,1.26,21.79-4.58
	c2.72-4.14,1.21-8.65-3.08-11.16c-3.88-2.27-7.38-2.52-11.34-0.12c-1.95,1.18-3.48,2.93-6.25,4.39c-1.12-1.42-2.17-2.92-3.39-4.26
	c-1.86-2.05-4.45-1.74-6.45-0.85c-5.43,2.42-8.15,11.7-5.38,17.22c1.73,3.45,3.68,4.27,7.19,2.78
	C207.62,212.42,209.76,211.23,212.3,209.97z M557.1,773.66c5.16-8.29,6.8-16.67,7.66-25.3C559.27,755.54,556.91,763.7,557.1,773.66z
	 M201.44,263.63c4.35,2.76,6.41,2.99,7.51,1.02c0.74-1.34-0.67-6-2.17-6.43C201.34,256.66,203.38,261.89,201.44,263.63z"/>
</svg>
