<?xml version="1.0" encoding="utf-8"?>
<!-- Generator: Adobe Illustrator 24.0.2, SVG Export Plug-In . SVG Version: 6.00 Build 0)  -->
<svg version="1.1" id="Layer_1" xmlns="http://www.w3.org/2000/svg" xmlns:xlink="http://www.w3.org/1999/xlink" x="0px" y="0px"
	 viewBox="0 0 1184.35 792.14" style="enable-background:new 0 0 1184.35 792.14;" xml:space="preserve">
<g>
	<path d="M230.9,265.61c-1.87-4.11-2.93-7.51-2.72-11.32c0.09-1.67,1.1-2.9,1.24-4.57c0.17-2.01,1.28-4.01,0.8-6.09
		c-0.33-1.41,1.64-1.76,1.08-3.09c3.57-5.48,5.28-12.04,9.9-16.9c1.65-4.59,4.97-8.27,6.99-12.61c2.86-6.14,5.85-12.22,7.27-19.02
		c0.68-3.24,1-6.79,2.81-9.8c-0.31-4.25,1.62-8.29,1.04-12.59c-0.26-1.96-0.19-4.01,0-5.99c0.19-2.01-1.49-3.56-1.07-5.6
		c0.2-0.97-0.99-1.21-1.38-1.92c-1.62,1.32-3.66,1.6-5.48,2.38c-3.85,1.65-7.3,4.08-10.96,6.09c-3.94,2.16-7.82,4.45-11.76,6.65
		c-5.03,2.8-10.12,5.57-14.79,8.9c-6.01,4.29-12.35,8.02-18.61,11.88c-8.89,5.47-17.8,10.92-26.66,16.42
		c-8.24,5.11-16.39,10.39-24.54,15.65c-1.87,1.21-3.72,2.52-5.31,4.06c-5.37,5.24-11.35,9.77-16.97,14.71
		c-13.73,12.07-26.07,25.53-38.97,38.41c-3.56,3.55-7.13,7.25-10.3,11.19c-2.95,3.67-6.48,7.05-8.18,11.58
		c-0.67,1.78-2.18,2.77-3.2,4.13c-3.18,4.19-4.46,9.21-6.81,13.73c-2.06,3.96-3.91,8.03-5.1,12.39c-0.8,2.94-3.46,4.62-5.4,6.75
		c-0.57-0.3-0.79-1.13-1.98-0.92c-1.07,3.17-4.07,4.88-6.84,6.51c-2.22,1.3-5.07,0.17-7.97,0.55c1.29-2.3,3.28-3.11,4.77-3.86
		c1.91-0.96,2.8-2.71,4.48-3.64c-1.8-4.32-1.41-8.64,0.06-12.73c2.21-6.16,4.76-10.22,10.59-12.79c2.81-1.24,4.14-3.26,5.5-5.69
		c2.96-5.31,5.93-10.61,9.41-15.63c2.09-3.02,3.25-6.66,5.41-9.74c6.86-9.73,12.6-20.18,19.31-30.03c2.94-4.31,5.48-9,8-13.64
		c3.12-5.76,6.96-11.13,10.52-16.65c0.42-0.66,0.89-1.25,1.27-1.97c4.89-9.15,9.95-18.22,14.92-27.33
		c3.71-6.79,7.22-13.7,11.05-20.42c2.86-5.01,6.03-9.86,9.2-14.69c1.29-1.96,2.68-4.04,3.55-6.04c1.3-2.98,4.15-5.23,4.21-8.75
		c2.54-2.1,3.44-5.26,4.83-8.01c2.07-4.1,4.17-8.46,4.84-12.93c0.67-4.47,1.7-9.45-1.35-13.72c-0.69-0.97,0.01-2.11-0.97-3.14
		c-2.42-2.53-3.71-5.93-6.4-8.33c-2.48-2.22-4.8-4.63-7.09-7.05c-9.07-9.61-19.92-16.63-31.73-22.38
		c-9.88-4.81-20.38-7.95-30.6-11.82c-1.31-0.5-2.97-0.64-4.39-0.64c-1.29,0-2.39,1.38-3.51,2.29c-2.82,2.3-5.85,4.31-9.74,4.21
		c-0.85-0.02-1.49,0.46-2.21,0.7c-3.41,1.15-6.36-0.29-8.21-3.76c-2.42,3.25-6.39,4.26-9.36,6.76c3.28-5.61,6.09-11.58,12.69-14.29
		c-0.45-1.23-2.1,0.32-2.73-0.83c1.58-1.01,3.19-1.95,5.17-1.56c1.95,0.39,3.36-0.79,4.82-1.64c2.18-1.27,2.21-0.87,5.58-1.54
		c2.45-0.49,4.93,0.33,7.31-0.78c2.22-1.04,4.7-1.53,6.96-2.5c6.54-2.81,13.37-4.77,20.1-7c4.27-1.41,8.68-2.4,13.04-3.54
		c6.02-1.57,12.01-3.28,18.09-4.58c5.05-1.08,9.94-2.75,15.08-3.49c3.69-0.53,7.35-1.47,10.88-2.67c1.82-0.61,4.05,0.78,5.47-1.27
		c2.82,0.69,5.31-1.47,8.08-0.98c1.86,0.32,3.17-1.4,5.1-1.08c1.7,0.28,3.58,0.41,5.07-0.93c3.31,0.74,6.31-1.54,9.58-0.99
		c2,0.33,3.55-1.22,5.59-1.11c1.83,0.1,3.98,0.96,5.61-0.88c0.15-0.17,0.65-0.06,0.97-0.02c3.94,0.55,7.61-1.55,11.6-1.09
		c1.81,0.21,3.55-1.22,5.58-0.97c1.72,0.22,3.57,0.37,5.1-0.93c0.19-0.16,0.65-0.06,0.98-0.02c4.27,0.58,8.31-1.66,12.59-1.01
		c2.56-1.41,5.68-0.17,8-1.2c2.84-1.26,5.65,0.08,8.14-0.89c3.37-1.32,6.84-0.26,10.1-1.01c4.21-0.96,8.53-0.22,12.57-1.07
		c4.25-0.9,8.54-0.06,12.59-0.96c5.07-1.12,10.2-0.04,15.08-1.02c5.58-1.12,11.18-0.02,16.59-0.99C331,1.81,337.31,3,343.35,1.89
		c6.76-1.24,13.43-0.58,20.12-0.71c2.48-0.05,4.6-1.38,7.09-1.16c2.48,0.22,5.01-0.11,7.49,0.08c6.86,0.52,13.74,0.7,20.57,1.18
		c5.47,0.38,10.89,1.99,16.08,4.49c4.12,1.98,8.49,3.62,12.79,5.32c4.31,1.7,8.5,3.67,12.52,5.98c4.44,2.55,8.97,4.96,13.31,7.67
		c1.47,0.91,2.98,1.67,4.47,2.49c7.1,3.92,14.06,8.08,20.78,12.63c6.85,4.64,13.87,9.03,20.98,13.29
		c7.26,4.35,14.19,9.25,21.23,13.96c6.4,4.29,12.79,8.6,19.12,12.98c4.41,3.05,8.9,6,13.22,9.21c3.99,2.96,8.47,5.25,12.72,7.86
		c4.39,2.69,8.66,5.59,13.15,8.09c10.02,5.59,19.27,12.32,28.81,18.63c2.26,1.49,4.69,2.99,7.19,4.26c2.03,1.03,4.16,1.32,6.08,0.81
		c1.73-0.46,3.92-0.79,4.33-3.67c0.27-1.85,0.94-4.17,3.13-5.2c0.48-0.23,0.74-0.49,0.73-1.08c-0.02-1.28,0.25-2.39,0.86-3.65
		c0.89-1.81-0.13-4.01-1.48-5.22c-2.1-1.88-0.96-4.62-2.36-6.59c-0.39-0.55,0.11-1.21,0.66-1.69c0.75-0.66,1.43-1.4,2.13-2.11
		c-1.8-4.36-4.53-7.91-9.2-10.37c3.6-0.59,6.6-0.61,9.18,1.97c0.99,0.99,2.37,2.03,3.49,2.36c4.21,1.26,5.66,4.35,7.03,8.05
		c0.8,2.16,1.11,4.29,0.25,6.04c-0.84,1.69-0.29,3.21-0.58,4.77c2.5,2.05,0.4,3.92-0.56,5.42c-1.12,1.76-1.96,3.43-2.58,5.47
		c-0.95,3.11-2.75,5.91-5.04,8.43c-2.54,2.81-4.85,5.92-6.74,9.19c-1.44,2.5-2.54,5.39-2.96,8.22c-0.45,2.98-1.88,5.25-3.41,7.63
		c-0.92,1.43-1.83,2.85-1.77,4.79c0.07,2.36-1.35,4.58-1.08,7.02c-2.2,1.84,0.46,4.93-1.75,6.79c-0.18,0.15-0.14,0.63-0.09,0.94
		c0.62,4.11-0.6,8.13-1.21,12.06c-0.91,5.9-0.05,11.83-0.98,17.59c-0.68,4.24-0.44,8.43-0.9,12.61c-0.3,2.72,1.2,4.97,1.15,7.6
		c-0.04,2.53-0.22,5.02,0.75,7.65c0.89,2.42,0.6,5.35,0.96,8.05c0.31,2.37,1.12,4.65,1.39,7.04c0.17,1.47,1.17,3.05,0.76,4.59
		c-0.46,1.7,0.99,2.63,1.12,4.1c0.4,4.37,1.67,8.57,2.7,12.83c0.62,2.55,0.53,5.42,1.29,8c2.02,6.85,3.25,13.9,5.52,20.7
		c1.62,4.84,2.83,9.81,4.33,14.7c1.94,6.36,4.25,12.58,6.38,18.87c2.71,8.03,5.95,15.88,8.97,23.79c2.69,7.03,6.66,13.57,10.1,20.31
		c3.86,7.57,7.69,15.16,11.67,22.66c2.83,5.34,5.88,10.6,8.62,15.95c2.44,4.78,5.49,8.82,9.49,11.98
		c5.33,4.22,9.57,9.54,14.76,13.83c10.24,8.47,18.92,18.53,28.53,27.63c0.12,0.11,0.24,0.23,0.35,0.35
		c1.61,1.87,3.46,2.81,5.97,1.77c0.55-0.23,1.28-0.03,2.32-0.03c-0.65-1.58-1.82-2.07-3.5-2.42c1.87-0.85,3.06-0.95,3.89,0.45
		c0.91-0.57,0.33-3.38,2.51-1.55c0.77,0.64,1.44,0.8,2.06-0.01c0.76-0.98,1.93-0.04,2.78-0.74c-0.31-2.11-3.06-1.41-3.78-3.42
		c3.93-1.15,5.38,3.34,8.82,3.77c-0.58-2.77-3.74-2.68-4.95-5.01c2.1-0.11,3.37,1.04,4.71,2.01c0.88,0.63,0.88,0.63,3.06,0.79
		c-2.08-2.06-3.28-2.91-4.59-3.16c1.45-1.3,3.12-1.75,4.73-1.89c0.59-1.18-0.12-1.7-0.59-2.14c3.58-3.46,8.23-2.57,13.33-2.71
		c-1.74-1.62-3.53-0.43-4.75-1.6c-1.22-1.16-3.19,0.2-5.16-0.98c5.19-1.13,9.61,0.56,14.06,1.64c0.48-2.45-2.99-1.19-2.61-3.7
		c3.03-0.8,6.57,0.38,9.55-1.98c-1.11-2.11,3.45-2.24,2.39-4.9c2.63-1.28,5.27-2.57,7.89-3.85c-0.6-1.05-1.2-2.11-1.85-3.25
		c0.53-0.18,1.11-0.39,2.17-0.76c-1.24-0.74-2.61-1.03-3.17-2.11c1.25-1.52,2.47,1.56,3.85-0.39c0.44-0.62,2.48-0.1,3.68-0.1
		c0.69-0.98-0.61-1-0.43-1.72c0.49-0.18,1.07-0.38,1.69-0.6c-0.12-0.23-0.23-0.64-0.37-0.65c-0.78-0.06-1.57-0.03-2.4-0.38
		c2.4-0.56,4.69-1.25,7-2.17c-1.52-0.97-3.25-0.16-4.87-0.85c2.51-0.05,3.6-2.98,6.34-2.76c0.62,0.05,0.78-1.33-0.17-1.83
		c-0.38-0.2-0.98,0.03-1.43-0.68c1.77-0.45,3.57-0.77,5.01-1.91c-1.51-0.82-3.01-1.65-4.81-1.83c3.53-0.79,7.01-1.02,10.49,0.33
		c-1.39-1.93-4.18-3.77-6.64-4.32c1.15-1.28,2.86,0,3.91-1.02c-0.19-1.11-1.54-0.18-1.82-0.95c1.45-3.36,3.79-0.64,5.93-0.6
		c-0.76-1.4-0.94-2.65-1.92-3.46c1.52-1.39,0.05-2.53-0.55-3.42c-0.7-1.03-2.01-1.66-2.42-1.98c-0.31-2.69,2.4-2.8,1.72-4.96
		c-0.51-0.92-2.12,0.47-2.79-0.77c0.7-1.01,1.93,0,2.88-0.86c0.58-1.68-0.79-3.45-0.06-5.47c0.65-1.76,0.03-3.96,0.16-5.95
		c0.18-2.62-1.38-4.89-1.13-7.6c0.23-2.5,0.82-5.23-0.9-7.58c0.72-3.3-0.85-6.36-1.06-9.58c-0.27-4.22-2.03-8.14-3.23-12.15
		c-1.32-4.42-3.17-8.68-4.68-13.05c-0.61-1.77-2.75-2.81-2.33-5.04c-3.01-2.49-1.88-6.96-4.59-9.6c-0.09-0.09-0.13-0.31-0.1-0.45
		c0.37-1.86-0.85-3.94,0.94-5.62c1.87-1.75,3.36,0.22,4.85,0.6c3.51,0.9,6.26,3.48,9.17,5.51c3.04,2.12,6.07,4.41,8.5,7.32
		c5.28,6.32,10.92,12.38,15.79,19c3.35,4.55,6.91,8.99,9.78,13.9c1.74,2.98,3.89,5.74,5.88,8.57c3.01,4.26,5.96,8.56,9.1,12.72
		c2.24,2.96,4.68,5.78,7.18,8.52c2.24,2.46,4.69,4.74,7.05,7.09c1.36-1.07,2.96-0.79,4.48-0.73c1.71,0.07,2.94-0.52,4.42-1.49
		c2.9-1.9,6.12-3.39,9.65-4.33c0.08,0.41,0.18,0.86,0.29,1.4c1.19,1.19,4.06-1.95,4.9-5.49c0.07-0.3,0.18-0.59,0.33-1.07
		c1.16,0.62,0.26,1.81,0.71,2.41c0.55,0.73,1.11,1.7,2.29,1.59c2.78-3.23,1.18-7.16,1.86-10.98c0.75,1.05,1.94,1.68,1.16,3.08
		c-0.7,1.26-0.3,2.48-0.18,3.72c1.47-0.03,0.31-1.52,1.26-1.77c1.18,0.57,0.18,1.76,0.63,2.44c0.28,0.54,0.44,0.28,0.77,0.2
		c2.18-0.58,3.09-2.9,5.01-3.6c0.6-0.22,1.07-1.62,2.35-0.58c0.93,0.75,1.67-0.68,1.72-1.4c0.07-0.96,1.1-1.18,1.11-2.08
		c0.01-0.96-0.3-1.97,0.28-2.88c1.45-0.12,0.1,1.52,1.19,1.71c2.98-1.93,0.72-5.1,1.66-7.55c0.99,0.78,1.95,1.87,1.75,3.01
		c-0.29,1.66,1.1,2.65,1.09,4.1c-0.01,1.46,0,2.92,0,4.8c0.74-0.58,1.06-0.84,1.5-1.18c0.66,1.31,1.33,2.63,1.99,3.94
		c0.84-0.84,1.66-1.66,2.66-2.66c0-1.28,0-2.74,0-4.17c0.29,0,0.46-0.05,0.52,0.01c0.7,0.69,0.11,1.58,0.41,2.42
		c0.77,1.16,2.86-0.66,3.18,1.4c1.15-0.37,0.36-1.65,1.25-2c0.99,0.7,0.13,1.89,0.66,2.74c1.3-1.14,1.8-1.97,2.17-3.63
		c1.56,0.48-0.17,2.2,1.08,2.75c2,0.89,1.19-1.39,2.02-1.83c0.76,0.32,0.42,1.11,0.76,1.71c5.63-6.21,9.35-13.6,12.95-20.99
		c2.11,0.59,2.96,1.44,2.88,3.26c-0.08,1.77-0.2,3.43-0.97,5.11c-0.71,1.56,0.23,3.36-0.71,5.22c-1.02,2.02-1.04,4.58-1.34,6.93
		c-0.93,7.34-2.92,14.45-4.38,21.67c-0.78,3.88-3.1,7.07-4.02,10.86c-0.87,3.59-1.89,7.16-3.55,10.53c-0.33,0.67-0.59,1.4-0.95,2.1
		c-2.33,4.53-4.81,9.01-6.65,13.74c-1.07,2.76-2.98,4.84-4.61,7.05c-1.51,2.04-2.03,5.31-5.33,5.77c-0.78,2-2.45,3.63-2.53,5.94
		c-0.03,0.97,0.37,2.11-1.09,2.39c0.76,1.28,2.82,1.77,1.72,3.77c-0.47-0.43-0.82-0.74-1.17-1.06c-0.14,0.14-0.27,0.24-0.37,0.38
		c-1.04,1.35,2.18,2.02,0.57,3.4c-1.42,1.22-0.45,2,0.43,2.77c1.49,1.3,0.59,3.97,2.78,4.92c0.06,0.02-1.41,0.91-0.63,2.15
		c0.4,0.19,1.07,0.5,1.95,0.91c-0.78,0.27-1.36,0.48-2.01,0.7c0.17,1.02,1.15,1.38,1.68,2.09c0.47,0.63,1.47,0.96,0.93,2.38
		c-0.45,0.77-0.7-0.46-1.44-0.5c-1.33,0.82-2.18,2.82-4.25,3.14c0.49,0.78,1.38,1.59,0.85,2.51c-0.68,1.17-0.64,2.04-0.03,3.24
		c0.38,0.75,0.35,1.94-1.3,1.94c-1.06-0.01,1.35,2.51-1.16,1.98c-3.68,3.96-4.87,4.56-9.86,4.98c-0.14,0.01-0.26,0.17-0.38,0.26
		c0.98,2.54,0.97,5.43,2.77,7.67c-0.22,3.95-1.23,7.75-4.67,9.92c-1.42,0.9-2.37,2.16-4.06,3.16c-3.71-1.18-7.71,2.99-11.69-0.21
		c-0.92,1.27,0.36,1.43,0.7,1.95c1.23,1.89,1.06,2.48-1.25,3.78c0.59,0.59,1.18,1.18,1.77,1.77c-0.73,2.19-2.92,3.45-3.51,5.81
		c-0.44,1.76-0.72,1.69-3.04,2.09c0,2.43,4.54,1.35,3.56,4.52c-0.96,0.24-1.41-1.41-2.51-0.54c-1.47,2.6,2.02,4.06,1.59,6.58
		c-1.57,0.23-1.77-2.46-3.56-1.64c-0.69,1.01,1.52,1.31,0.7,2.41c-0.03,0.04,0.46,0.43,0.67,0.69c0.44,0.53,1.25,1.19,1.62,0.73
		c1.53-1.88,2.69,0.71,4.27,0.17c1.64-0.56,3.62-0.12,5.46-0.12c1.67,0,3.41-0.32,4.99,0.05c8.65,2.02,17.4,0.64,26.1,0.89
		c8.96,0.25,17.53-2,26.08-4.54c4.17-1.24,8.19-2.77,12.21-4.34c3.87-1.51,7.82-2.78,11.65-4.48c5.24-2.32,10.37-4.78,15.37-7.54
		c3.79-2.09,7.93-3.54,11.47-6.08c1.46-1.05,3.22-1.09,4.78-1.79c1.53-0.69,2.36-3.02,4.61-2.23c0.23,0.08,0.71-0.58,1.1-0.87
		c2.9-2.11,5.94-3.76,9.94-2.87c2.04-2.79,5.16-4.3,7.71-6.55c2.13-1.89,5.22-2.74,8.34-2.73c0.62,0,1.3-1.47,2.05-0.88
		c2.54,2.01,6.21-0.18,8.51,2.43c0.32,0.36,0.66,0.7,1.04,1.09c-1.51,1-3.27-0.05-4.88,0.73c-0.08,0.73-0.16,1.51-0.24,2.3
		c-1.71,0.85-3.4,1.9-5.42,1.38c-2.37-0.61-4.25,1.4-6.6,1.08c-1.01-0.14-1.51,1.14-2.22,1.79c-1.64,1.51-2.95,3.49-5.55,3.57
		c-0.36,0.01-0.71,0.66-1.28,1.23c3.91,0.98,7.76,1.53,11.51,2.46c4.9,1.22,10.04,1.03,14.79,2.88c3.45-0.59,6.62,1.71,10.09,1
		c5.98,1.97,12.36,1.77,18.41,3.8c3.31,1.11,7.06,1.71,10.62,2.02c2.11,0.18,3.15,1.42,4.65,2.2c6.04,3.13,12.2,6.06,18.04,9.53
		c7.47,4.44,15.36,8.07,22.93,12.32c9.42,5.29,18.74,10.82,28.61,15.35c3.3,1.52,6.9,3.23,9.49,6.27c-1.21,1.08-2.43,2.16-3.54,3.14
		c-8.42,2.63-17.34,3.59-25.32,7.74c-0.42,1.85-0.13,3.69-0.96,5.62c-0.91,2.13,0.78,4.55,1.23,6.86
		c1.36,6.89,4.42,13.16,7.64,19.32c1.95,3.72,4.41,7.16,6.42,10.85c1.99,3.65,3.65,7.49,5.55,11.2c3.09,6.05,6.15,12.1,9.04,18.25
		c2.76,5.86,5.28,11.82,7.98,17.7c0.72,1.56,1.38,3.28,2.92,4.28c3.13,2.02,3.49,5.6,4.04,9.84c0.38,2.94-0.46,5.71-1.26,8.49
		c-0.71,0.25-0.71-0.27-0.73-0.72c-0.02-0.5,0.19-1.13-0.04-1.48c-1.22-1.82-1.65-3.96-3.35-5.68c-2.62-2.65-4.36-6.04-4.68-10.02
		c-0.13-1.65-0.65-3.43-1.51-4.84c-1.7-2.81-3.1-5.78-5.2-8.37c-2.88-3.57-5.71-7.23-8.1-11.14c-2.16-3.53-4.75-6.71-7.22-9.97
		c-3.67-4.84-7.8-9.34-11.25-14.36c-0.37-0.54-0.93-0.95-1.4-1.42c-1.3-1.3-2.68-2.52-3.86-3.91c-1.14-1.35-2.99-2.11-3.4-4.08
		c-0.38-1.81-3.26-1.37-3.28-3.55c-5.76-3.26-9.04-9.34-14.68-12.81c-2.29-1.41-4.23-3.52-6.24-5.34c-2.66-2.4-5.77-4.26-8.19-6.94
		c-1.53-1.69-3.2-3.18-5.7-3.12c-1.89,0.05-3.78-2.27-5.67,0c-4.61-0.51-8.57,1.96-12.69,3.22c-5.39,1.65-10.35,4.73-15.48,7.23
		c-3.75,1.82-7.58,3.51-11.18,5.59c-6.34,3.66-12.77,7.25-18.69,11.52c-2.7,1.95-5.73,3.8-7.8,6.59c-1.11,1.5-3,1.8-4.24,3.13
		c-1.07,1.15-2.1,2.3-3.74,2.98c-1.42,0.59-2.33,2.33-3.6,3.39c-2.48,2.06-5.18,3.59-8.61,3.37c-1.21-0.08-1.37-1.12-2.28-1.44
		c0.9-0.94,1.79-0.41,2.8-0.65c0.27-1.39,0.62-2.9,1.69-4.59c-2.06-0.04-2.81-1.7-4.23-2.33c-1.4-0.63-2.97-0.95-4.29-1.7
		c-1.42-0.81-3.42,0.55-4.46-1.32c-2.44,0.19-4.77-0.72-7.09-0.87c-6.91-0.45-13.78-1.63-20.75-1.19c-2.09,0.13-3.02,0.77-3.94,2.71
		c-0.64,1.37-0.01,3.47-2,4.17c-1.4-1.51-1.95-3.34-1.51-5.81c-4.01,0-7.93-0.64-11.54,0.14c-6.69,1.45-13.73,1.56-20,4.76
		c-4.04-0.39-7,2.45-10.49,3.68c-4.93,1.73-9.77,3.76-14.73,5.46c-4.69,1.6-9.44,3.33-13.26,6.52c-2.33,1.95-5.31,1.69-7.7,3.31
		c-1.05,0.71-2.7-1.29-4.54-1.22c2.39-0.6,4.64-1.04,4.14-4.18c-0.22-1.4,0.77-2.21,1.91-2.4c1.22-0.2,1.28-1.37,2.35-1.54
		c-2.98-6.52-7.75-9.53-14.48-9.52c-4.5,0.01-9-0.01-13.5,0.01c-1.91,0.01-3.76-0.06-5.63,0.91c-1.48,0.77-3.62-0.72-5.08,0.99
		c-3.54-0.07-6.77,1.34-10.14,2.03c-0.92,0.19-1.39,0.7-2.06,1.12c-0.73,0.45,0.11,1.89-1.03,1.73c-0.61-0.08-1.2-1.42-1.36,0.3
		c-0.09,0.95-1.05,1.21-1.47,1.9c-0.4,0.66-0.57,1.54-1.11,2.01c-0.64,0.56-0.01,1.67-1.09,1.94c-0.92-1.48,0.23-3.25-0.85-5.08
		c-0.92,1.64-0.26,3.23-0.51,4.66c-0.14,0.78-1.57,1.05-2.48,0.49c-1.12,1.06-0.03,2.55-0.69,3.71c-0.65,0.55-0.69-0.35-1.06-0.46
		c-1.19-0.36-1.22-0.33-2.07,1.58c-1.42,0.1-0.09-1.52-1.14-1.71c-2.15,1.31-2.3,3.75-2.85,6.01c-1.26-0.88-0.22-2.12-0.95-2.89
		c-2.18,0.36-1.42,2.43-2.1,3.69c-1.45-0.58,0.06-2.22-1.1-2.86c-1.21,1.99-1.91,4.36-4.71,5.02c-0.98,0.23-1.74,1.41-2.59,2.17
		c-0.95,0.85-1.62,1.93-3.28,1.83c-1.4-0.09-2.53,1.47-2.84,2.45c-0.94,2.91-3.4,3.48-6.28,5.08c-0.5,0.48,0.68,1.98-0.08,3.12
		c-0.12,0.06-0.28,0.2-0.35,0.17c-1.55-0.78-2.9-0.51-3.38,1.2c-0.9,3.2-2.81,5.95-4.5,8.61c-3.09,4.88-5.8,9.95-8.49,15.02
		c-1.59,2.99-2.94,6.17-4.6,9.06c-1.63,2.84-3.01,5.76-4.48,8.67c-1.53,3.04-3.34,5.94-4.88,8.98c-1.46,2.88-2.67,5.9-4.11,8.79
		c-1.51,3.05-3.16,6.03-4.75,9.03c-1.52,2.87-3.28,5.64-4.53,8.62c-1.18,2.8-2.94,5.61-0.75,8.92c1.74,2.62,3.23,3.83,6.43,5.26
		c3.24,1.45,6.12,2.44,9.86,1.13c1.97-0.69,4.86-1.15,7.1,0.61c0.58,0.45,1.14,0.14,1.72-0.31c0.59-0.47,1.32-0.81,2.04-1.07
		c3.1-1.12,5.96-2.38,9.27,0.23c2.2,1.73,5.36,2.24,8.06,3.36c3.61,1.5,5.68,4.63,7.49,7.78c1.37,2.38,3.11,4.92,1.62,8.39
		c-1.56-2.61-3.47-4.66-5.46-6.66c-0.94-0.94-2.07-1.44-3.14-2.11c-1.66-1.04-2.73-0.22-3.92,1.09c1.9,2.41,5.48,2.46,7.15,5.62
		c1.46,2.76,2.77,5.5,3.91,8.32c-0.86,0.85-1.47,0.64-2.19-0.01c-2.04-1.83-3.48-4.39-6.64-5.16c-0.03,1.93-0.96,4.1-2.9,4.61
		c-2.66,0.69-5.31,1.84-8.38,0.73c-3.85-1.39-7.93-2.73-12.06-0.93c-0.76,0.33-0.74-0.22-1.09-0.35c-2.98-1.12-5.42-3.09-7.99-4.9
		c-1.09-0.77-2.31-1.32-4.04-0.58c-1.33,0.57-3.19,0.82-4.38,1.45c-3.69,1.98-7.11,1.07-10.6-0.06c-0.84-0.27-1.62-0.28-2.39-0.22
		c-4.88,0.34-9.51-1.21-14.05-2.39c-3.37-0.88-6.22-0.37-9.3,0.33c-0.53,0.12-0.78,0.33-1.1,0.72c-2.53,3.07-4.88,4.28-8.24,4.31
		c-2,0.02-4,0-6.24,0c-0.82-1.02-1.75-2.18-2.8-3.5c-2.18,1.64-4.86,1.22-6.56,4.25c0-2.71,0-4.5,0-6.29
		c-1.54-0.81-3.05-0.43-4.49-0.43c-8.67-0.04-17.33-0.09-26,0.03c-2.02,0.03-3.7-0.61-5.46-1.35c-4.74-1.99-8.93-4.73-12.52-8.45
		c-1.29-1.33-3.01-2.28-4.64-3.22c-2.67-1.54-5.09-3.36-7.15-5.66c-1.19-1.32-2.45-2.68-4.19-3.14c-1.86-0.48-2.76-1.34-2.72-3.35
		c0.02-1.24-2.37-0.7-2.17-2.53c0.08-0.72-1.58,0.13-1.82-1.13c-0.2-1.03-0.8-1.99-1.27-3.07c-0.45,0.23-0.9,0.45-1.54,0.78
		c0-2.21,0-4.33,0-6.23c-1.22-1.58-1.82,2.32-2.88-0.2c3.04-4.42,6.27-8.93,8.9-13.9c1.7-3.22,1.86-6.59,2.77-9.86
		c0.5-1.79-0.2-3.78,1.01-5.61c0.92-1.39-1.17-2.45-1.01-4.05c0.21-2.04-0.07-4.03-0.77-6.13c-0.83-2.52-0.97-5.17-2.92-7.34
		c-0.73-0.81,0-2.6-1.48-3.36c-2.38-1.21-3.31-4.53-6.62-4.29c-0.1-1.35,0.17-3.22-0.33-3.46c-2.32-1.1-2.66-4-4.85-4.98
		c-1.91-0.85-2.53-2.44-3.11-4.18c-4.07-0.4-5.54-4.25-8.4-6.3c-0.47,0.05-0.64,1.47-1.32,0.49c-0.4-0.58-0.08-1.62-1.32-1.55
		c-1.39,0.08-0.24-1.97-1.59-1.99c-0.97-0.01-2.02,0.2-2.64-0.94c-1.55,1.08-2.75,2.52-4.45,3.49c-2.04,1.17-3.03,3.58-4.14,5.7
		c-0.58,1.12-1.3,1.97-2.65,0.9c-0.42,1.19-2.55,0.37-2.56,2.41c0,0.85-0.76-0.46-1.31-0.52c-1.03,0.64-0.08,1.85-0.66,2.66
		c-2.62,0.72-4.49,2.75-6.88,3.89c-1.26,0.6-3.28,0.18-3.42,2.4c-2.49-0.31-0.99,1.9-1.73,2.74c-0.89,0.38-1.8,0.54-2.68-0.13
		c-0.23-0.17-0.47-0.32-0.71-0.48c-0.05,2.88-3.61,1.83-4.43,4c-0.75,2-1.66,0.62-2.46-0.11c-0.94,0.34,0.07,2.14-1.59,2.02
		c-1.33-0.09-0.59-1.34-1.43-1.99c-0.7,1.49-1.55,2.99-3.58,2.35c-0.14-0.04-0.32-0.35-0.35-0.33c-1.17,0.75-2.14,2.87-3.57,1.81
		c-1.22-0.9-2.44,0.4-3.48-0.69c-0.29-0.31-0.4,0.92-0.74,1.68c-1.6-1.25-3.48-0.83-5.31-0.86c-1.18-0.02-2.56-1.58-3.48,0.49
		c-0.27,0.61-0.71,0.36-1.04-0.05c-0.65-0.79-1.65-0.62-2.3-0.39c-3.12,1.1-5.98,0.03-8.88-0.79c-2.22,1.66-3.94-0.42-5.81-0.91
		c-2.14-0.56-4.24-0.16-6.34-0.33c-0.67-0.05-1.25-0.07-1.75-0.64c-1.73-1.96-4.71-0.54-6.51-2.38c-3.29,0.53-6.25-1.62-9.59-1.05
		c-2.39,0.41-4.69-0.8-7.05-1.12c-6.51-0.89-11.18-0.52-17.21-0.05c-5.11,0.39-8.99,3.6-13.82,4.27c-1.09,0.15-1.55,1.5-2.65,2.01
		c-5.38,2.48-10.39,5.67-15.25,9.01c-2.6,1.79-4.59,4.45-7.76,5.44c-1.24,0.39-0.49,2.34-1.88,2.47c-1,0.09-1.81,0.18-2.63,0.97
		c-2.32,2.26-4.12,4.94-5.39,7.79c-1.24,2.78-3.28,4.22-6.12,5.67c0.43,2.26-0.82,4.79,0.92,7.28c0.45,0.65,0.39,2.13-0.3,3.27
		c-1.76,2.92-3.28,5.97-5.02,8.91c-0.49,0.83-1.26,1.73-2.11,2.08c-2.57,1.04-5.22,1.94-7.81,2.85c-2.67,0.94-5.98,0.54-8.91,0.1
		c-2.21-0.33-3.79-2.28-5.23-3.89c-2.3,0-4.46,0-7.02,0c-0.36-0.36-1.06-0.84-1.46-1.51c-0.91-1.5-3.06-1.33-3.82-2.83
		c-0.7-1.38,0.15-3.12-1.13-4.57c-0.56-0.64,0.2-2.37-1.68-2.18c-4.67-5.11-5.94-3.31-2.54-11.4c0.51-1.22,1.82-2.41,0.97-4.32
		c-2.77-0.88-5.29,0.89-7.97,1.45c-2.47,0.51-4.79,1.82-7.44,1.35c-1.19-0.21-2.09,0.38-3.13,0.92c-1.35,0.7-2.84,1.17-4.54,1.18
		c-2.17,0.01-4.44,0.44-6.44,1.25c-0.94,0.38-1.78,0.62-2.73,0.64c-1.67,0.03-3.8-0.63-4.88,0.17c-1.29,0.96-2.86,0.31-3.97,1.49
		c-0.81,0.86-2.2,0.19-3.32,0.35c-2.03,0.29-4.29-0.81-6.11,0.97c-0.17,0.17-0.7,0.14-0.97,0c-3.57-1.76-7.1,0.79-10.69,0.06
		c-2-0.41-3.2,1.91-5.15,1.98c-0.9-0.8,0.22-0.98,0.41-1.47c-0.67-1.11-2.17-0.74-2.45-0.36c-1.3,1.76-3.76-0.22-4.85,1.7
		c-1.15-1.2-2.95-0.35-3.97-1c-2.08-1.31-3.87-1.28-5.85-0.17c-3.04-1.41-6.39-0.04-9.37-1c-1.07-0.35-2.09-0.71-3.19-0.71
		c-3.69,0.01-7.19-0.73-10.72-1.87c-2.2-0.72-4.69-0.2-7.09-0.99c-1.73-0.56-3.53-1.19-5.33-1.67c-0.57-0.15-1.14-0.57-1.79-0.47
		c-3.12,0.45-5.97-1.7-9.08-0.99c-1.82,0.41-0.74-2.01-2.57-2.2c-2.46-0.25-4.9-1.2-8.12-0.54c0.82-1.02,1.08-1.35,1.5-1.88
		c-1.49-0.86-3.15-0.07-4.72-0.53c-0.19-0.52-0.37-1.59-0.6-1.6c-2.08-0.1-3.83-1.32-5.99-1.44c-1.86-0.1-3.31-2.11-5.23-2.92
		c-2.2-0.93-4.38-0.9-6.62-0.91c-1.95-0.01-3.89,0-6.2,0c1.44-1.81,3.28-0.2,4.57-1.78c-3.77-0.62-7.66,0.6-11.12-1.84
		c-0.09-0.27,0.59-0.35,0.74-0.73c0.11-0.29,0.11-0.62,0.16-0.93c-0.19-0.24-0.4-0.7-0.58-0.68c-2.87,0.23-5.34-0.42-7.5-2.52
		c-1.25-1.21-3.53,0.03-4.85-1.51c-2.99,0.76-5.65-1.35-8.58-0.99c-2.15,0.27-3.85-1.48-6.1-1.08c-1.94,0.34-4.06,0.4-5.97,0
		c-4.37-0.91-8.73-1.69-13.19-1.94c-0.31-0.02-0.66-0.04-0.92-0.19c-2.81-1.71-5.95-1.99-9.19-2.11c1.74-1.03,3.62-0.44,5.39-0.71
		c1.85-0.28,3.4,0.71,5.1,0.96c1.96,0.29,3.99,0.07,5.99,0.07c1.78,0,3.57,0,5.35,0c-2.31-1.48-5.09-0.27-7.23-2
		c-4.83,0.07-9.45-1.39-14.14-2.16c-2.2-0.36-4.61-0.21-6.55-0.99c-2.27-0.92-4.49-0.41-6.63-0.9c-4.85-1.13-9.67-2.15-14.69-1.94
		c-3.48-2.06-7.6-0.15-11.2-1.94c-3.16-1.57-6.67-2.33-9.94-3.76c-2.57-1.12-5.19-2.01-7.68-3.75c1.14-0.66,2.06-0.9,3.09-0.1
		c2.24,1.75,5.12,2.21,7.63,3.31c2.42,1.06,5.41,1.83,8.08,2.03c2.91,0.23,5.69,1.53,8.56,1.13c2.01-0.28,3.5,1.79,5.87,0.78
		c-2.35-1.83-5.07-2.53-7.43-3.32c-6.74-2.24-13.11-5.41-19.89-7.59c-3.99-1.28-7.91-3.47-11.53-5.96
		c-2.67-1.84-5.65-3.24-8.48-4.84c-2.42-1.36-4.83-2.74-7.69-3.69c0.94,1.09,1.89,2.18,2.84,3.28c-0.79,0.74-1.41,0.44-2.08-0.23
		c-3.43-3.41-5.84-7.61-8.77-11.4c-0.58-0.76-1.18-1.54-1.84-2.2c-2.75-2.71-4.63-5.93-6.44-9.34c-2.85-5.36-5.25-10.99-9.34-15.69
		c-1.17-1.35-1.94-3.64-2.31-5.46c-1.05-5.09-4.22-9.03-6.8-13.18c-2.25-3.63-3.55-7.57-5.27-11.35c-1.59-3.5-2.53-7.28-3.77-10.93
		c-0.05-0.14-0.3-0.26-0.29-0.37c0.68-5.08-2.62-9.61-2.01-14.67c-1.56-3.58-1.46-7.47-0.86-11.06c0.85-5.05,0.24-10.15,1-15.09
		c0.96-6.26,2.47-12.49,5.08-18.36c2-4.5,3.74-9.12,5.83-13.58c1.25-2.66,2.62-5.4,4.53-7.58c2.03-2.32,3.28-5.3,6-7.03
		c1.02,0.95,0.02,1.52-0.44,2.37c-1.81,3.41-3.34,6.96-5.17,10.35c-1.11,2.05-2.1,4.12-2.99,6.26c-0.97,2.32-1.48,4.73-2.09,7.15
		c-1.6,6.37-1.05,12.79-0.7,19.11c0.29,5.37,1.58,10.8,3.83,15.85c1.31,2.96,2.62,5.92,4.01,8.84c2.86,6.02,6.42,11.55,12.08,15.63
		c-2.36-4.59-4.99-9.06-7.01-13.8c-2.02-4.73-4.63-9.35-4.93-14.66c3.02,4.69,3.87,10.37,7.74,15.66c-0.15-3.66,0.27-6.28-0.56-9.27
		c-0.99-3.54-0.79-7.57,0.07-11.26c0.25-1.06,0.6-2.14,0.59-3.22c-0.06-5.49,2.06-10.4,4.05-15.33c0.27-0.67,0.95-1.18,1.43-1.75
		c0.81,0.6,0.73,1.47,0.49,1.92c-2.32,4.35-2.21,9.35-3.78,13.93c-0.97,2.84-0.13,6.27-0.19,9.44c-0.06,2.98,1.89,5.23,2.72,7.88
		c1.02,3.22,2.99,5.97,5.26,9.23c0-12.41,0-24.32,0-36.23c1.45,2.82,0.67,5.87,1.19,8.8c1.84-0.56,2.24-2.27,2.58-3.36
		c1.63-5.26,4.31-9.93,7.2-14.54c0.23-0.36,0.34-0.88,0.69-1.2c4.63-4.19,8.41-9.26,13.7-12.76c4.62-3.06,10.61-4.53,16.76-3.61
		c-1.97,1.26-4.13,0.26-6.17,0.9c-2.63,0.82-4.7,2.45-6.96,3.71c-4.48,2.5-8.48,5.67-10.39,10.8c-1.38,3.71-3.29,7.24-2.62,11.44
		c0.14,0.88,0.38,1.92-0.52,2.77c-0.97,0.92-0.8,2.69-0.34,3.22c1.45,1.66,0.81,3.46,0.87,5.18c0.14,4.16-0.47,8.37,1.96,12.22
		c0.5,0.8,0.07,2.18,0.07,3.96c2.2-3.25,0-5.56,0-8c0-2.47,0-4.94,0-7.44c1.6,0.08,0.87,1.12,0.97,1.7
		c0.14,0.78-0.15,1.61,0.67,2.24c0.79,0.61,0.35,1.56,0.34,2.34c-0.09,6.61,2.18,12.65,4.7,18.56c1.21,2.84,2.92,5.6,4.97,7.9
		c1.73,1.94,2.61,4.55,5.08,6.06c2.32-6.86,2.99-14.08,4.27-21.17c1.31-7.21,1.31-14.57,2.92-21.82c0,3.58,0,7.17,0,10.75
		c2.23-2.76,3.21-6.07,3.84-9.08c0.85-4.09,2.67-7.59,4.21-11.31c1.61-3.89,4.68-6.53,7.54-9.36c0.22-0.22,0.97-0.26,1.47,0.52
		c-3.52,3.13-6.45,6.78-8.32,11.24c-1.96,4.66-3.6,9.36-3.66,14.48c-0.01,1.11-0.3,2.08-0.78,3.18c-1.06,2.46,0.62,4.9,1.14,7.5
		c2.03-3.67,3.58-7.58,6.11-10.71c2.31-2.87,4.49-5.81,6.59-8.82c2.25-3.23,4.78-6.31,6.65-9.75c3.32-6.09,6.86-12.06,9.41-18.6
		c1.9-4.85,2.97-9.66,2.87-14.8c-0.01-0.51,0.05-0.97,0.75-1.44c0.58,2.21-0.06,4.53,1.18,6.58c0.61,1.02-1.17,10.99-2.02,12.05
		c-0.7,0.87-0.89,1.64-0.91,2.65c-0.1,4.14-1.48,7.96-2.96,11.77c-1.35,3.47-3.2,6.86-2.98,10.74c0.06,1.14-0.96,1.54-1.11,2.58
		c-0.46,3.36-1.32,6.66-0.93,10.09c0.41,3.6-1.46,6.92-1.09,10.59c0.38,3.8,0.08,7.66,0.08,11.49c0,3.67,0.01,7.33-0.01,11
		c-0.01,2.09,0.5,4.09,0.83,6.11c0.36,2.18,0.58,4.42,1.21,6.55c0.57,1.91,1.19,3.88,2.21,5.57c1.01,1.67,0.68,3.92,2.41,5.21
		c0.94-0.73-0.26-2.01,0.95-2.91c1.72,4.34,2.67,8.92,4.97,13.1c1.35-2.35-1.4-4.05-0.58-6.15c-1.32-1.31-1.22-3.05-0.93-4.57
		c0.32-1.66-1.23-2.58-1.09-4.1c0.59-6.57-1.62-12.99-1.04-19.59c0.15-1.67,0.56-3.44-0.8-5.17c-0.84-1.07,1.13-2.33,0.97-4
		c-0.34-3.47,0.1-7-0.15-10.49c-0.32-4.43,1.72-8.53,1.53-12.95c0.61,2.56,0.49,5.13,0.52,7.69c0.02,2.44,0.01,4.87,0.01,8.27
		c1.33-2.1,0.53-4.09,2.88-4.57c0.9-0.18,1.38-2.29,2.13-3.46c1.63-2.55,2.1-5.8,4.57-8c0.62,1.28,0.35,2.12-0.19,3.29
		c-1.8,3.92-3.93,7.63-4.54,12.16c-0.73,5.46-1.21,5.74,0.14,12.19c0.1,0.48,0.06,1,0.01,1.5c-0.68,5.59,0.66,11.08,1.17,16.57
		c0.55,6,2.05,11.96,4.56,17.56c1.36,3.04,2.13,6.42,4.85,8.82c0.82-1.34,0.17-2.75,0.68-4.38c2.04,4.93,3.33,9.62,5.64,13.95
		c0.73,1.38,1.57,2.81,2.68,3.28c3.07,1.32,5.19,4.13,8.39,5.07c1.09,0.32,1.52,1.19,2.27,1.78c1.51,1.18,2.52,2.85,4.5,3.63
		c1.41,0.56,2.01,2.38,2.94,3.67c1.93,2.68,3.54,5.54,5.21,8.37c0.2,0.33,0.03,0.89,0.03,2.14c-2.92-3.88-4.6-7.81-7.59-10.68
		c-3.04-2.91-6.27-5.67-10.04-7.85c-0.13,0.58-0.36,1.05-0.24,1.17c6.97,6.83,11.99,15.43,19.58,21.72
		c0.95-1.57,1.98-0.24,2.03,0.32c0.26,2.7,2.35,4.38,3.41,6.61c1.29,2.7,2.72,3.67,6.18,4.37c0.53,0.11,0.85,0.33,1.01,0.58
		c1.23,1.83,3.5,2.28,4.96,3.83c0.51,0.54,1.82-0.97,2.44,0.51c0.43,1.03,1.74,0.67,2.41,1.41c0.78,0.86,1.63,1.65,2.45,2.47
		c0.25-0.25,0.49-0.49,1-1c1.19,1.19,2.41,2.39,3.61,3.62c1.16,1.19,1.69-0.09,2.76-0.82c0.48,0.73,1,1.53,1.43,2.19
		c1.15-0.46,0.21-1.52,1.68-1.97c0.59,0.71,1.3,1.8,2.23,2.65c0.97,0.89,0.93,2.48,2.7,2.95c0.98,0.26,2.07,1.33,3.15,1.99
		c1,0.61,1.63,2.46,3.42,0.38c1.06,1.06,2.12,2.12,3.2,3.19c1.38-1.46,2.77-0.57,3.78-0.08c1.24,0.6,2.11,1.81,3.46,2.49
		c1.2,0.61,1.19-0.86,1.34-0.8c2.3,0.6,2.93,2.35,4.39,3.2c0.21-0.6,0.42-1.18,0.63-1.76c1.45,0.51,2.71,1.24,3.87,2.33
		c1.09,1.03,2.43,0.8,3.3-0.61c0.66,0.66,1.25,1.25,1.85,1.85c0.83-0.02,1.52-1.55,2.35-0.57c1.08,1.28,2.69,1.68,3.96,2.8
		c0.21-0.61,0.41-1.19,0.62-1.77c0.24-0.29,0.39-0.15,0.72,0.16c2.02,1.95,4.19,3.65,7.15,1.92c1.08-0.63,1.05,1.1,1.95,0.66
		c1.88-0.9,3.67,2.35,5.6,0.15c1.94,1.1,4.14,1.41,6.25,1.76c2.11,0.35,4.32,0.08,6.49,0.08c2.17,0,4.33,0.03,6.5-0.01
		c2.07-0.04,4.05-0.04,6.15-0.81c1.52-0.56,3.94-1.06,5.52,0.82c2.58-1.55,5.02,0.97,7.11,0.53c2.64-0.55,5.32,0.22,7.7-0.63
		c3.54-1.27,7.08-0.71,10.62-0.92c0.62-0.04,1.21,0.15,1.88-0.3c2.66-1.82,5.74-1.75,8.79-1.69c0.96,0.02,1.76-0.18,2.71-0.74
		c2.74-1.62,5.68-2.89,9.05-2.28c0.43,0.08,0.93-0.12,1.37-0.29c1.44-0.54,2.83-1.34,4.31-1.63c1.44-0.28,2.97-0.06,4.33-0.06
		c0.94-0.48,0.11-2.11,1.75-2.03c3.86,0.19,7.55-0.67,10.9-2.61c0.83-0.48,1.61-0.39,2.36-0.31c1.25,0.13,1.72-0.79,2.46-1.44
		c-0.56-1.4-2.19,0.1-2.83-1.04c0.21-0.19,0.43-0.55,0.63-0.54c3.87,0.11,7.5-0.56,11.24-1.82c2.64-0.89,5.02-2.18,6.91-3.76
		c5.13-4.3,11.01-7.44,16.31-11.44c0.38-0.29,0.86-0.47,1.15-0.83c2.9-3.63,6.95-5.95,10.28-9.11c3.19-3.03,6.25-6.41,10.55-8.03
		c0.85-0.32,1.63-0.95,1.8-1.54c0.59-2.17,2.43-2.5,3.94-2.36c1.53,0.14,2.24-1.38,3.6-1.12c1.44-2.76,4.6-3.46,6.79-5.36
		c2.19-1.91,4.93-3.37,7.17-5.46c1.66-1.54,3.6-3.5,6.15-1.18c3.15-0.45,5.87,0.96,8.67,2c1.95-0.84,2.06-3.13,3.56-4.41
		c1.62-1.38,3.6,0.23,5.16-1.03c-0.32-0.36-0.62-0.71-0.92-1.05c6.38-1.18,7.16-2.83,11.29-7.36c0.22-0.25,0.43-0.57,0.71-0.69
		c4.83-2.15,8.32-6.25,12.84-8.83c1.6-0.91,3.59-0.97,5.1-2.14c-0.7-1.03-1.91-0.08-2.92-0.87c2.95-2.19,6.35-3.55,9.42-5.28
		c3.53-1.99,6.32-4.76,9.54-7.01c1.7-1.19,4.22-1.77,4.63-4.45c0.05-0.34,0.68-0.65,1.1-0.87c1.73-0.93,3.86-1.48,5.13-2.83
		c1.28-1.36,3.17-1.99,4.08-3.67c0.44-0.81,1.62-0.14,1.96-1.07c-0.61-1.04-1.68-1.4-3.7-2.02c3.94-0.35,6.25-2.04,8.17-4.33
		c0.68-0.81,1.43-1.3,2.56-1.1c0.93,0.16,0.88-0.57,1.07-1.23c0.55-1.96,1.13-2.14,3.69-1.79c0.87,0.12,1.85-0.09,0.57-1.19
		c-0.1-0.09-0.23-0.32-0.21-0.34c1.16-1.1,2.08-2.52,3.82-2.84c-0.26-2.58,2.32-0.96,3.07-2.05c-0.64-1.15-1.86-0.12-2.46-0.62
		c-0.61-0.33-0.52-0.48-0.16-0.82c1.99-1.84,3.63-4.23,6.8-4.11c1.84-2.52,5.13-3.65,5.98-7.26c0.6-2.56,0.32-5.37,1.86-7.7
		c-0.49-4.59,1.52-8.95,1.08-13.59c-0.28-3.04-1.33-5.93-1.2-9.08c0.13-3.1-1.31-6.15-1.7-9.19c-0.39-3.04-1.39-5.91-2.37-8.58
		c-2.23-6.05-5.33-11.8-8.32-17.54c-3.12-5.98-6.73-11.64-10.83-17.05c-4.08-5.4-7.93-11.01-11.92-16.48
		c-2.25-3.09-4.85-6.12-7.6-8.92c-2.42-2.47-4.97-4.8-7.21-7.47c-2.25-2.67-5.07-4.85-7.59-7.3c-2.51-2.44-4.8-5.14-7.48-7.36
		c-2.34-1.94-3.62-4.74-6.15-6.55c-2.4-1.71-4.31-4.11-6.47-6.17c-15.73-15.02-29.88-31.59-45.63-46.58
		c-6.28-5.98-13.2-11.2-20.14-16.42c-4.69-3.53-9.33-7.08-14.68-9.33c-7.95-3.34-15.4-7.91-23.87-9.95
		c-2.44-0.59-4.78-1.69-7.4-1.49c-0.92,0.07-1.88,0.31-2.76-0.62c-0.67-0.71-1.88-0.7-2.63,0.08c-0.86,0.9-1.88,0.66-2.78,0.53
		c-5.5-0.74-9.3,2.54-13.25,5.47c-0.79,0.59-1.42,1.39-2.15,2.12c0.44,3.75-0.94,7.16-1.88,10.69c-0.58,2.15-1.59,3.39-3.75,3.77
		c-1.7,0.3-2.43,1.29-2.34,3.06c0.11,2.28,0.03,4.57,0.03,7.12c-4.11-2.78-5.18-6.43-5.02-10.67c0.09-2.33,0.2-4.68-0.03-7
		c-0.32-3.34,0.78-6.38,2.26-9.07c2-3.63,2.91-7.27,2.82-11.36c-0.14-6.16,0.05-12.33-0.07-18.5c-0.08-3.92,1.77-7.63,1.03-11.59
		c-0.12-0.62,0.27-1.33-0.41-1.94c-0.35,0.29-0.69,0.57-1,0.82c-0.18-0.17-0.58-0.38-0.56-0.55c0.61-5.56-0.75-10.93-2.15-16.14
		c-1.57-5.83-2.71-11.78-4.82-17.48c-3.65-9.88-8.07-19.25-16.2-26.27c-4.36-3.76-9.38-6.38-15.18-7.55
		c-2.06-0.41-4.23-0.7-6.25-1.78c-1.73-0.92-4.23,0.78-6.06-1.08c-0.25-0.25-0.97-0.03-1.47-0.03c-7.17,0-14.36-0.37-21.49,0.13
		c-5.13,0.36-10.18,1.86-15.26,2.88c-2.72,0.55-4.5,2.33-5.09,4.91c-0.94,4.05-3.41,7.28-5.36,10.78c-0.65,1.17-1.79,2.18-3.4,2.56
		c-3.45,0.8-4.39,4.03-5.12,6.73C231.92,260.99,231.16,262.92,230.9,265.61z M733.29,671.44c0.3-2.77,2.25-4.39,2.69-6.57
		c0.44-2.15,2.19-3.58,3.51-5.34c-3.91-1.72-6.72,2.52-10.38,1.24c0.48-0.53,0.8-0.88,1.16-1.27c-0.59-0.45-1.21-0.71-1.76-0.15
		c-1.16,1.19-2.92,1.41-4.11,1.23c-5.42-0.84-10.81-1.74-16.33-1.55c-1.24,0.04-2.6,0.51-3.8-0.43c-2.03-1.59-4.42-1.62-6.86-1.56
		c-1.24,0.03-2.4-0.26-3.67-0.74c-2.13-0.81-4.57-1.14-6.97-1.39c-3.18-0.33-6.61-0.39-9.48-2.31c0.31-0.35,0.63-0.71,0.97-1.09
		c-1.66-0.81-3.24-0.59-4.79,0.29c-0.36-0.54-0.01-1.35-1.06-1.91c-1.43,0-3.22,0-4.91,0c-0.29-0.82,0.96-0.85,0.55-1.54
		c-1.37-1.4-2.39,2.12-3.74,0.21c0.31-0.35,0.61-0.7,1.3-1.47c-2.01,0.3-3.3-0.73-3.9-0.91c-1.53,1.11-2.59,1.87-3.59,2.6
		c2.23,3.87,5.13,7.08,5.25,11.66c0.03,1.07,1.35,2.06,1.87,3.18c0.46,0.98-1.11,1.76-0.07,3.23c1.86,2.62,1.46,5.94,0.82,8.9
		c-0.56,2.58-1.34,5.11-1.83,7.74c-0.34,1.8-0.36,3.91-1.34,5.39c-1.25,1.89-0.99,4.36-2.57,5.94c-1.93,1.94-0.1,4.72-1.83,6.79
		c-0.78,0.93,0.13,2.69-1.02,4.08c-0.73,0.89,0.35,2.86-1.05,3.96c2.17,1.27-0.08,2.46-0.07,3.69c0.01,1.66,0.54,3.61-0.13,4.92
		c-0.82,1.59-1.14,3.14-0.78,4.63c0.48,1.99-1.11,3.3-1.11,5.1c-0.01,4.82-0.46,9.7,3.03,13.74c-0.02,2.64,2.38,3.95,3.38,6.09
		c1.8,3.86,4.63,7.12,8.43,9.21c2.71,1.5,4.85,4.03,8.13,4.48c3.03,3.67,7.77,3.76,11.72,5.47c0.97,0.42,2.35,0.17,3.69-0.59
		c3.03-1.71,6.38-2.7,10.01-2.34c3.43,0.34,6.28,1.51,7.61,4.93c0.46,1.18,0.96,2.02,2.4,2.11c3.88-3.02,5.73-7.05,5.62-11.99
		c-0.02-1.06,0.64-1.76,0.93-2.61c1.5-4.38,3.65-8.48,5.27-12.82c1.35-3.61,2.78-7.16,3.88-10.88c1.15-3.89,1.4-7.98,2.94-11.76
		c-0.43-6.01,2.21-11.65,2.07-17.65c-0.06-2.51,1.48-4.93,0.93-7.58c2.19-1.58,0.17-4.28,1.82-6.29c1.17-1.43-0.19-3.87,0.98-6.06
		c0.97-1.81,0.07-4.56,0.23-6.88c0.19-2.61-0.69-4.69-2.5-6.47C734.44,670.42,734.09,670.73,733.29,671.44z M51.33,535.67
		c-2.47,2.13-4.2,3.95-4.04,6.76c0.09,1.5-1.54,2.39-1.1,4.09c0.39,1.52-0.49,3.06-0.79,4.58c-0.72,3.63,0.15,7.54,1.42,10.78
		c2.58,6.55,6.41,12.53,12.84,17.78C53.75,565.13,50.53,550.99,51.33,535.67z M129.17,689.52c-3.38-0.42-6.27-2.39-9.48-3.46
		c-9.51-3.16-18.99-6.42-28.52-9.54c-2.16-0.71-4.27-2.18-7.01-1.1c2.22,2.6,5.35,3.37,8.08,4.54c2.95,1.27,5.93,2.78,9.03,3.46
		c3.07,0.67,5.87,2.03,8.86,2.86c3.12,0.87,6.29,1.86,9.43,2.41C122.63,689.23,125.67,690.75,129.17,689.52z M39.99,631.37
		c-0.37-2.94-2.27-4.37-3.91-5.95c-1.86-1.8-3.22-4.03-4.78-6.04c-1.41-1.81-2.92-3.66-4.18-5.66c-1.33-2.1-2.89-4.21-4.65-6.13
		c-1.53-1.67-2.12-4.25-4-5.73c-1.85-1.46-1.39-4.67-4.36-5.73c4,11.11,11.11,19.7,18.14,28.3
		C34.33,626.98,36.56,629.69,39.99,631.37z M24.84,623.07c-0.7,0.42-0.7,1-0.55,1.42c1.86,5.29,4.26,10.23,9.85,12.56
		c2.83,1.18,5.83,1.97,8.67,3.15c0.85,0.35,1.39,1.49,2.47,0.39c-1.41-1.41-2.66-3.01-4.23-4.17
		C35.38,632.24,29.41,628.47,24.84,623.07z M507.77,641.59c-2.41,1.43-3.64,4-6.37,3.85c0.23,1.6-1.22,1.56-2.07,2.02
		c-0.69,0.37-0.67,1.8-2.12,1.13c-1.67-0.77-0.58,1.68-1.73,1.81c-0.26,0.03-0.49,0.66-0.71,0.64c-4-0.27-4.26,3.11-5.47,5.7
		c3.55-1.29,6.9-2.89,10.28-4.46c2.62-1.22,4.84-2.95,6.97-4.9C508.21,645.85,508.76,644.3,507.77,641.59z M6.51,587.31
		c0.01,2.45,0.75,4.74,1.52,7.07c1.42,4.29,4.02,7.95,5.99,11.94c0.41,0.83,1.1,1.62,1.18,2.47c0.12,1.19,1.02,1.61,1.63,2.32
		c0.65,0.75,1.39,1.42,2.1,2.12c0.7,0.7,1.35,1.48,2.13,2.09c0.65,0.51,0.95,1.6,2.89,1.52C16.84,607.36,12.13,597.15,6.51,587.31z"
		/>
</g>
</svg>
