<?xml version="1.0" encoding="utf-8"?>
<!-- Generator: Adobe Illustrator 24.0.2, SVG Export Plug-In . SVG Version: 6.00 Build 0)  -->
<svg version="1.1" id="Layer_1" xmlns="http://www.w3.org/2000/svg" xmlns:xlink="http://www.w3.org/1999/xlink" x="0px" y="0px"
	 viewBox="0 0 1043.15 1234.03" style="enable-background:new 0 0 1043.15 1234.03;" xml:space="preserve">
<g>
	<path d="M271.57,1177.07c-2.62,0.84-5.25,1.69-7.96,2.56c-1.8-0.9-1.75-2.85-1.24-4.29c1.99-5.64,3.04-11.57,6.46-16.77
		c2.22-3.37,5.21-5.8,8.4-7.29c3.24-1.52,4.29-3.58,5.06-6.53c2.31-8.8,4.35-17.69,8.03-26.07c1.66-3.79,4.91-5.6,8.58-6.64
		c4.22-1.2,8.5-2.22,12.81-3.01c4.63-0.84,7.55-4.01,10.15-7.34c5.35-6.85,14.62-10.21,23.14-8.4c8.29,1.76,16.75,2.64,25,4.68
		c2.07,0.51,3.76-1.14,5.79-1c6.72,0.46,13.43,1.21,20.13,1.68c5.4,0.37,11.11,1.95,16.33-1.6c3.01-2.05,5.16-4.78,6.31-7.96
		c4.42-12.21,11.17-23.28,16.65-34.96c7.7-16.38,14.38-33.16,20-50.37c3.13-9.58,6.99-18.97,8.57-28.96
		c1.31-8.26,0.46-10.63-5.97-16.21c-13.33-11.56-29.8-16.88-45.11-24.47c-12.76-6.32-25.24-12.95-36.22-22.1
		c-8.14-6.78-15.91-14.02-21.57-23.03c-4.26-6.77-7.38-14.19-8.63-22.22c-0.86-5.5-2.48-10.92-2-16.57
		c0.15-1.78-0.97-2.75-2.09-3.72c-4-3.47-5.65-8.33-7.65-12.96c-0.59-1.36-0.63-2.99,0.17-4.34c0.75-1.27,0.49-2.58,0.5-3.88
		c0.01-0.78-0.41-1.26-1.22-1.21c-2.69,0.19,0.21,1.29-0.21,1.53c-1.8,1.02-3.56,2.2-5.66,2.56c-2.18-2.86,1.04-3.8,1.82-5.99
		c-1.9-0.11-3.6-0.22-6.02-0.36c1.82-5.03,5.82-8.46,7.22-13.02c-0.85-1.51-1.79,0.09-2.75-0.41c-0.34-2.13,0.95-3.59,2.12-5.18
		c4.01-5.41,5.7-11.29,6.03-18.25c0.39-8.26-1.91-15.66-4.04-23.22c-2.52-8.93-5.31-17.81-7.02-26.9
		c-0.98-5.24-2.16-10.64-1.03-16.11c-2.68-0.23-1.89,3.04-3.99,2.86c-1.95-3.86-1.69-19.39,0.55-28.18
		c-1.9-1.01-2.54,2.03-4.87,1.15c2.27-10.26,3.59-20.78,2.75-31.52c-0.38-1.2-2.72,1.04-2.85-1.49c-0.07-1.37-1-2.84-0.7-4.05
		c1.7-6.81,0.19-13.87,1.8-20.7c0.52-2.21,1.15-4.41,1.54-6.66c0.42-2.45,2.39-4.87-0.32-7.3c-0.49-0.44-0.31-2-0.02-2.9
		c2.65-8.22,5.97-16.15,10.36-23.61c-1.48-0.87-3.7,0.59-5.01-1.5c0.37-3.47,2.1-6.27,4.79-8.55c5.87-4.97,9.8-11.44,13.82-17.85
		c1.43-2.28,1.38-4.56-0.31-7.4c-0.86,1.75-1.15,3.71-3.67,3.49c1.47-2.85,2.43-6.07,4.48-8.27c1.83-1.97,1.18-4.81,3.73-6.54
		c-1.56,0.14-2.62,0.24-3.6,0.33c-0.95-0.96-0.88-1.94-0.29-2.81c1.57-2.31,9.28-8.18,11.31-8.69c0.72-1.79-2.01-2.15-1.52-4.19
		c3.3-2.63,7.68-2.62,11.74-3.18c5.05-0.69,6.91-2.26,7.04-7.43c0.05-1.83,0.01-3.66,0.01-5.8c-2.16-0.36-4.29-1.03-5.55-2.97
		c-1.09-1.68-1.8-3.55-1.44-5.62c0.65-3.74,0.74-7.54,1.18-11.28c0.64-5.43,3.6-7.68,9.58-8.22c1.35-6.02-5.04-10.29-3.57-16.76
		c-3.73,2.48-4.14,6.77-7,8.98c-1.48-0.44-2.09-1.27-2.18-2.58c-0.64-9.51,0.7-18.52,8.35-25.09c3.21-2.75,4.73-5.12,2.01-8.92
		c-7.35,3.88-15.54,6.05-23.57,8.73c-10.39,3.48-19.14,9.21-24.64,19.14c-2.05,3.71-3.15,7.77-4.7,11.58
		c-0.5,0.04-1.03,0.2-1.14,0.06c-2.42-3.24-4.23-3.26-7.29-0.08c-4.11,4.27-9.54,7.04-14.99,10.15c-1.49-3.76,1.02-7.05,0.52-11.19
		c-7.77,4.89-16.05,5.65-24.49,8.19c0.91-6,5.3-9.51,9.25-14.33c-9.02,3.23-17.87-1.11-26.04,3.13c1.29-4.3,5.62-5.12,8.4-8.19
		c-1.11-0.82-2.11-1.74-3.6-1.57c-4.23,0.47-7.76-2.6-12.06-2.19c-1.61,0.15-2.78-1.8-3.68-3.1c-1.89-2.74-4.47-4.67-6.81-6.94
		c-5.94-5.76-11.89-11.51-17.33-17.83c-7.41-8.6-13.98-17.77-19.94-27.33c-8.1-13.01-15.95-26.18-23.37-39.62
		c-7.85-14.21-12.04-29.87-18.56-44.59c-1.38-3.11-2.62-6.9,0.09-10.33c0.99-1.25,0.39-2.35-0.26-3.64
		c-3.41-6.68-5.24-14.03-8.72-20.73c-2.47-4.76-5.88-9.02-7.65-14.63c-5.06-0.23-9.8,2.17-14.74,2.32
		c-8.82,0.26-14.94,5.76-20.66,11.06c-7.12,6.58-19.88,3.14-24.09-3.91c-3.52-5.91-4.62-12.06-1.31-18.64
		c2.71-5.38,7.79-7.78,12.51-10.53c1.93-1.12,4.56,0.3,6.5,1.21c10.52,4.88,21,4.94,31.64,0.59c0.59-0.24,1.33-0.07,1.97-0.22
		c6.13-1.41,6.04-1.43,6.43-7.94c0.53-8.86,5.55-14.04,14.19-13.98c3.87,0.03,6.7-0.36,9.66-4.01c5.3-6.54,12.84-9.01,21.58-6.5
		c2.21-6.17,7.47-7.93,13.42-8.51c3.3-0.32,6.64,0.98,9.74,0.7c3.04-0.27,4.44-4.26,7.39-5.8c3.96-2.08,7.44-2.61,11.54-0.13
		c3.24,1.96,6.36,3.92,9.24,6.4c3.71,3.19,8.57,4.5,12.83,6.81c0.85,0.46,1.93,0.51,2.73,1.02c4.45,2.88,9.2,1.91,13.78,0.85
		c10.62-2.46,21.16-5.24,31.75-7.82c0.98-0.24,2.11-0.14,2.59-1.15c2.96-6.26,5.96-12.63,4.36-19.77c-0.8-3.54-3.66-6.18-6.12-8.78
		c-1.61-1.7-1.92-2.95-0.84-5.19c3.58-7.42,8.23-13.01,13.94-16.02c5.56,2.76,9.93,6.95,14.17,11.35c1.47,1.53,2.07,2.66,1.37,5.11
		c-1.49,5.23-3.64,10.45-1.54,16.29c0.91,2.55,2.46,4.56,3.58,6.88c0.8,1.65,2.54,1.43,4,1.1c22.73-5.12,45.61-9.49,68.46-14.05
		c7.8-1.56,15.63-3.14,23.72-5.13c-2.05-4.98-4.64-9.91-3.15-15.58c-5.77-7.13,1.24-10.46,4.65-14.49
		c3.64-4.3,8.03-7.96,12.02-11.82c-0.57-1.64-0.99-2.85-1.44-4.12c-1.33,1.01-1.91,2.93-4.6,3.42c-4.96-10.64-6.33-22.18-7.45-33.79
		c-2.29-0.35-3.72,2.37-6.48,1.37c-0.74-5.28,2.73-9.73,3.69-14.88c-0.32-1.32-2.21-0.23-2.76-1.67c-0.22-2.39,1.61-4.01,3.19-6.23
		c-4.11-1.85-7.87-3.98-10.21-7.74c1.65-3.22,5.39-1.05,7.69-3.39c-2.41-3.17-4.87-6.37-6.43-10.07c-1.96-4.64-2.8-9.4-2.56-14.55
		c0.14-3.08-1.43-6.28-2.43-9.36c-0.89-2.77-0.43-4.72,2.57-5.38c-0.65-4.1-1.35-7.95-1.84-11.82c-0.18-1.41-0.45-3.05,1.1-4.1
		c1.92-1.31,3.01,0.43,4.36,1.24c1.02-1.3-0.2-3.51,2.1-4.41c6.15,5.84,14.15,8.81,21.94,12.32c1.02-0.68-0.17-2.76,2.73-3.14
		c1.81,0.04,2.06,3.41,4.7,4.38c3.76-8.27,9.91-15.08,14.93-24.06c3.55,6.19,1.28,12.4,3.72,17.62c1.18-0.4,1.76-1.47,2.47-2.64
		c5.22-8.67,13.74-12.66,22.83-15.77c11.06-3.79,22.69-6.09,32.62-12.81c0.57-0.38,1.5-1.34,2.58-0.51
		c1.33,1.03,0.51,1.91,0.01,2.99c-1.64,3.55-3.14,7.16-4.71,10.79c1.17,1.22,1.87-0.71,2.96-0.46c6.14,1.44,9.66-2.47,13.53-6.26
		c3.35-3.29,7.36-5.91,11.11-8.85c1.93,1,2.43,3.36,5.16,3.48c1.44,0.07,2.45,3.21,2.78,5.33c0.38,2.44,1.3,4.64,2.39,6.85
		c0.89-0.84,1.21-2.1,2.62-2.46c1.39,0.39,1.89,1.97,1.87,2.97c-0.08,3.74,2.43,4.75,5.22,5.49c8.65,2.28,17.33,3.63,26.29,1.59
		c2.33-0.53,4.94-0.47,8.02,0.4c-2.93,6.07-8.43,9.48-12.92,14.18c7.09,1.07,13.75-0.76,20.46-1.74c6.53-0.96,12.17-5.06,19.5-6.18
		c-2.38,5.43-5.81,8.9-9.15,12.5c-3.41,3.66-8.02,5.28-12.98,7.69c15.37,8.35,27.45,21.34,45.46,23.46c0.54,2.16-0.53,2.79-2.54,3.7
		c-5.5,2.51-11.39,3.66-17.38,5.33c2.8,5.87,4.35,11.77,5.46,17.91c1.26,6.98,3.92,13.54,9.77,18.25c1.16,0.93,2.37,1.96,1.63,4
		c-2.39,0.82-4.97,0.18-7.55,0.15c1.56,5.27,5.15,9.36,8.07,13.83c1.09,1.67,2.7,1.53,4.43,1.1c19.61-4.83,39.44-8.65,59.2-12.83
		c13.85-2.93,27.57-6.47,41.4-9.5c14.96-3.28,29.99-6.2,44.96-9.42c12.57-2.7,25.09-5.66,37.66-8.4c16.39-3.58,32.8-7.03,49.2-10.58
		c9.55-2.07,19.08-4.24,28.62-6.33c14.79-3.24,29.59-6.45,44.39-9.66c7.48-1.62,14.91-3.61,22.47-4.69
		c9.94-1.41,19.96-3.38,30.03-2.18c6.93,0.83,13.63,3.18,19.97,6.2c3.18,1.51,6.88,2.25,9.39,5.33c-1.31,4.86-5.69,7.51-8.56,11.17
		c-6.76,8.63-16.16,13.13-26.65,16.45c-22.13,7.01-44.93,10.8-67.47,15.9c-14.29,3.23-28.59,6.44-42.92,9.45
		c-18.33,3.85-36.61,8-55.02,11.5c-15.98,3.04-31.77,7.11-47.69,10.51c-15.3,3.26-30.74,5.88-45.95,9.48
		c-10.79,2.55-21.71,4.39-32.49,6.91c-12.69,2.97-25.42,5.73-38.25,8.02c-0.74,0.13-1.08,0.7-1.51,1.19c2.4,3.08,7.18,1.4,9.65,4.52
		c-5.13,5.4-12.8,8.61-22.96,9.58c0.5,4.12,2.62,8.03,1.94,12.3c-0.05,0.3,0.05,0.79,0.26,0.93c6.19,4.15,10.28,12.27,19.67,10.42
		c1.5-0.3,3.16-0.1,3.84,1.55c0.7,1.69-0.6,2.76-1.72,3.79c-1.45,1.33-2.6,3-4.84,4.18c2.68,0.88,4.95,1.99,7.33,2.33
		c2.78,0.39,5.65,0.12,8.49,0.11c2.67-0.01,5.49,0.5,7.95-0.22c2.65-0.77,5.08-0.81,8.15-0.47c-1.53,3.59-4.98,5.16-6.8,8.2
		c3.45,1.61,7.74-1.24,10.55,2.06c-0.3,1.89-2.51,1.43-2.68,3.18c4.91,3.73,11.13,4.98,16.86,7.84c-2.07,4.14-5.97,4.84-9.76,5.8
		c-0.69,1.18-0.18,2.05,0.57,3.07c6.38,8.84,10.71,18.7,12.77,29.31c1.47,7.6,1.99,15.48,1.2,23.24c-0.59,5.8,2.32,9.42,6.33,12.61
		c8.45,6.72,16.1,14.03,19.83,24.57c1.1,3.11,1.99,6.19,1.95,9.53c-0.07,5.16-0.15,10.34,0.02,15.5c0.15,4.55-1.06,8.77-2.66,12.89
		c-2.32,5.99-0.02,14.15,5.33,17.81c2.96,2.02,6.3,3.53,8.82,6.14c0.83,0.85,2.78,0.73,2.42,2.68c-0.43,2.28-2.72,0.52-4.08,2.34
		c2.68,4.14,3.91,9.2,5.16,14.32c-2.65,0.17-3.76-2.06-5.62-3.12c-1.09,3.13,0.66,6.29-1.69,8.95
		c13.04,8.41,12.94,21.19,12.93,35.27c-2.95-2.12-4.7-4.03-7.66-5.07c0,6.91,0.31,13.65-0.08,20.35
		c-0.51,8.67-1.15,17.34-2.73,25.92c-1.06,5.79-1.42,11.71-2.21,17.56c-0.88,6.48-2.2,12.91-2.73,19.41
		c-0.46,5.58-1.54,11.05-2.07,16.57c-0.4,4.14-1.59,8.04-2.46,12c-0.51,2.33-0.53,4.53-0.66,6.77c5.1,3.4,7.28,6.61,8.59,12.76
		c-2.29,0.35-2.9-2.99-5.44-1.88c0.07,2.04,1.25,4.48,0.77,7.01c-0.44,2.32-0.98,4.63-1.56,7.29c-2.02-1.23-1.12-3.86-3.08-4.5
		c-3.08,15.76-6.19,31.55-13.35,46.15c-1.65,3.37-3.68,6.55-5.35,9.91c-3.08,6.21-9.62,7.25-14.93,10.08
		c-0.91,0.49-2.33-0.08-3.46,0.14c-3,0.58-4.7-4.03-8.44-1.61c-2.61,1.68-6.17,0.38-9.3,0.58c-4.53,0.29-8.67-1.22-12.84-2.71
		c-2.68-0.96-4.53-2.48-4.83-5.62c-6.73,1.19-12.81-0.35-18.5-4.22c1.05,3.48,4.33,5.08,6.38,8.06c-2.36,1.93-5.39,0.71-7.96,1.78
		c0.69,5.69-0.56,11.58,1.75,17.8c-4.26-0.86-4.42-5.62-7.87-6c-0.86,1.16-0.28,1.44,0.52,1.98c4.79,3.24,4.78,8.68,5.78,13.52
		c2.42,11.74,1.77,23.68,2.19,35.57c0.36,10.11,2.56,20.03,5.28,29.83c2.54,9.13,5.78,18.26,4.54,27.97
		c-1.01,7.87,3.14,12.85,8.86,16.96c5.78,4.16,10.92,8.87,15.38,14.48c6.26,7.88,9.26,17.05,11.87,26.53
		c2.87,10.44,2.48,20.74,0.09,31.18c-0.82,3.59-0.23,6.94,3.09,9.78c6.32,5.39,13.01,10.2,19.93,14.74
		c3.69,2.42,7.56,4.49,11.37,6.68c9.48,5.44,19.31,5.44,29.53,3.17c15.31-3.41,28.11-11.29,40.19-21.06
		c13.42-10.85,23.46-24.37,32.27-38.82c5.41-8.88,8.46-19.02,10.36-29.28c2.22-11.99,3.67-24.14,3.02-36.36
		c-0.61-11.49-1.35-22.97-2.72-34.42c-1.38-11.55-4.23-22.79-5.95-34.23c-1.79-11.92-2.72-24,1.03-35.76
		c2.52-7.92,6.52-15.05,13.13-20.45c6.18-5.05,15.89-4.61,21.94,0.73c12.66,11.17,19.15,25.75,23.68,41.54
		c2.47,8.62,4.56,17.31,6.34,26.1c0.62,3.04,0.99,6.23,1.3,9.18c0.57,5.38,1.2,10.82,1.52,16.26c0.38,6.6,1.2,13.23,0.69,19.8
		c-0.77,9.81-1.33,19.63-2.61,29.43c-1.3,9.95-3.75,19.51-6.23,29.14c-2.04,7.92-5.25,15.38-8.64,22.77
		c-5.38,11.75-11.36,23.23-18.57,33.94c-5.65,8.4-11.68,16.57-18.39,24.27c-5.36,6.15-11.26,11.63-17.28,17.04
		c-7.58,6.81-15.77,12.79-24.78,17.55c-9.07,4.79-18.27,9.19-28.34,11.7c-14.61,3.64-29.43,3.96-44.27,3.28
		c-6.97-0.32-13.73-2.7-20.31-5.12c-3.1-1.14-5.21-3.76-7.5-6.03c-0.82-0.81-1.38-1.87-2.66-2.31c-0.93,2.12,0.59,3.77,1.17,5.47
		c5.21,15.28,11.83,29.98,18.34,44.74c3.48,7.89,6.52,15.96,9.53,24.05c4.42,11.89,9.12,23.67,12.83,35.82
		c3.42,11.21,6.96,22.37,8.89,33.97c0.48,2.9,2.21,5.43,3.82,7.89c0.62,0.94,1.54,1.61,2.88,1.67c7.41,0.33,12.4,4.52,16.3,10.4
		c1.16,1.74,2.64,2.88,4.96,2.6c4.98-0.59,9.83,0.9,14.78,1.16c11.85,0.61,18,8.85,21.99,18.77c2.67,6.65,4.85,13.63,4.13,21.02
		c-0.23,2.39,1,3.85,2.59,5.01c4.04,2.94,5.96,6.7,5.5,11.76c-0.24,2.66,0.93,5.32,0.02,8.08c-0.46,1.4,0.04,2.82,1.24,4.06
		c6.16,6.37,7.37,22.45-0.7,30.83c-3.5,3.63-8.3,5.55-13.08,6.07c-6.16,0.67-12.53,0.93-17.84-1.42
		c-17.49,9.25-34.5,8.93-52.06,1.21c-6.41,7.6-15.82,9.48-25.59,10.39c-2.94,0.27-5.97,0.84-8.8,0.83
		c-10.13-0.03-20.35-0.43-29.58-5.57c-0.71-0.39-1.45-0.74-2.1-1.22c-0.67-0.49-1.24-1.1-1.85-1.66c-3.55,5.03-9.13,6.87-14.43,8.38
		c-13.72,3.91-27.2,3.2-39.95-3.98c-4.03-2.27-7.49-5.31-10.89-8.3c-2.67-2.35-1.94-6.45-1.25-9.49c1.28-5.64,0.67-11.23,0.78-16.84
		c0.15-7.72,0.63-15.51-2.72-22.87c-0.57-1.26-0.18-2.95-0.23-4.45c-0.14-4.28-0.43-8.55-0.77-12.81
		c-0.57-7.17,0.66-14.37,4.24-20.87c1.16-2.1,1.51-4.24,1.58-6.61c0.18-6.6,0.17-13.2,0.63-19.82c0.43-6.24-0.22-12.79-1.41-19.12
		c-0.61-3.22-0.93-6.58-1.07-9.76c-0.41-9.73-1.76-19.37-2.38-29.08c-0.8-12.7-3.21-25.22-6.79-37.51
		c-2.9-9.98-5.51-20.04-8.94-29.87c-5.47-15.69-12.89-30.16-23.9-42.87c-5.28-6.09-11.07-11.06-18.07-14.82
		c-0.42-0.22-0.9-0.34-1.36-0.45c-0.1-0.02-0.25,0.16-0.59,0.41c3.55,11.38,4.83,23.29,4.63,35.14
		c-0.29,17.28-4.25,33.92-11.55,49.74c-5.75,12.45-12.2,24.56-17.93,37c-6.33,13.73-12.62,27.54-15.83,42.48
		c-2.51,11.69-3.7,23.4-1.56,35.28c0.09,0.49,0.05,1,0.06,1.5c0.09,4.95,0.48,9.88,0.8,14.81c0.62,9.68-0.51,19.55-4.1,28.51
		c-3.05,7.63-8.17,13.96-16.8,17.24c-6.97,2.65-14.04,5.29-20.78,8.41c-7.94,3.67-15.1,8.8-20.71,16.1
		c-5.04,6.55-12.01,10.76-20.19,13.41c-10.13,3.28-20.46,5.53-30.83,7.43c-9.26,1.7-18.44-0.21-26.6-4.9
		c-3.71-2.14-7.14-2.72-10.71-1.17c-4.54,1.97-9.37,1.65-14.01,2.2c-4.79,0.57-9.85-0.37-14.71-1.16
		c-7.6-1.23-14.81-3.73-21.29-8.05c-1.12-0.75-2.09-0.62-3.22,0.03c-7.35,4.17-15.01,2.17-22.61,1.02
		c-5.9-0.89-11.32-3.01-16.14-6.59c-1.88-1.4-4.12-1.16-6.23-1c-14.65,1.14-23.7-14.2-20.14-26.37
		C271.55,1181.61,270.86,1179.42,271.57,1177.07z M296.37,351.63c-0.52-3.94,0.15-7.66,0.89-11.38
		c3.09-15.64,10.97-28.24,23.9-37.62c7.07-5.13,14.7-9.01,23.37-10.75c2.08-0.42,4.78-1.28,4.61-4.16
		c-0.18-3.05,1.19-5.82,1.11-8.79c-0.38-15.13,7.65-26.35,17.44-36.54c2.12-2.21,4.51-3.85,4.87-7.15
		c-10.58,2.53-21.17,5.01-31.72,7.6c-4.92,1.21-6.32,4.33-5.09,9.35c1.4,5.73,5.2,10.05,8.12,14.89c0.69,1.15,1.73,2.01,1.19,3.51
		c-1.76,4.91-3.43,9.81-7.37,13.64c-1.81,1.76-3.64,2.23-5.82,1.65c-4.78-1.28-8.98-3.69-12.8-6.83c-0.86-0.71-1.48-1.8-1.27-2.48
		c1.14-3.74-0.46-7.69,0.91-11.26c0.55-1.44-0.05-2.15-0.44-3.13c-2.09-5.23-6.1-8.97-10.16-12.59c-1.06-0.95-2.59-1.73-4.52-1.32
		c-12.74,2.69-25.48,5.39-38.29,7.67c-3.05,0.54-4.01,1.87-3.99,4.39c0.05,7.62-1.64,15.14-1.08,22.79
		c0.38,5.2-0.89,10.08-3.93,14.39c-0.58,0.82-1.21,1.37-0.55,2.57c2.92,5.37,1.08,10.39-1.48,15.05
		C266.66,329.1,276.34,345.71,296.37,351.63z M639.25,558.3c6.75,7.88,11.08,16.97,15.92,26.36c1.72-2.87,2.75-5.32,4.84-6.99
		c-1.08-1.01-3.03-1.15-2.59-3.24c1.95-2.43,5.64-2.34,7.64-5.02c-2.66-2.3-4.1-5.05-4.35-8.84c4.08-1.36,8.12,1.83,12.15,0.01
		c2.22-5.49,1.9-11.39,0.97-16.99c-1.72-10.28-6.36-19.33-12.91-27.6c-3.79-4.78-6.94-10.16-9.36-15.95
		c-2.39-5.71-3.75-11.74-5.92-17.91c-2.48,2.81-2.71,6.04-4.58,10.12c-6.98-7.94-8.28-16.5-6.88-25.72
		c-1.62-0.67-3.39-0.46-3.84-2.35c1.36-4.77,3.35-9.34,5.78-14.08c-3.28-0.99-4.77-4.06-7.96-5.94c0,4.58,0.67,8.68-0.13,12.48
		c-2.01,9.52-0.03,18.58,2.18,27.67c1.6,6.6,5.05,12.28,9.81,17.42c-5.96,1.31-10.59-1.65-15.5-3.59c-0.09,0.82-0.22,1.17-0.13,1.44
		c0.16,0.46,0.61,0.84,0.69,1.29c2.09,10.9,3.41,22.06,12.44,30.18c1.82,1.63,0.64,3.96-1.9,4.81c-1.47,0.49-3.14-0.28-5.45,1.14
		c3.48-0.13,5.86,0.54,8.02,1.8c-1.17,3.47-5.16,2.27-6.82,4.84c4.75,4.19,10.31,7.34,14.49,11.64
		C644.55,558.65,641.86,557.83,639.25,558.3z M516.16,835.57c1.33,3.43,3.03,6.77,3.93,10.31c2.54,9.94,4.57,19.98,6.27,30.11
		c1.67,9.89,6.22,18.62,14.86,24.31c3.74,2.46,7.82,4.82,12.53,5.39c-0.61-1.17-1.33-2.09-2.21-2.82
		c-7.7-6.44-13.04-14.54-15.85-24.08c-2.28-7.72-3.5-15.69-2.54-23.86c0.22-1.86,1.08-4.55-0.61-5.64
		C526.52,845.43,522.05,839.86,516.16,835.57z M639.42,426.98c-0.79,6.76,1.26,12.2,3,17.68c1.88-0.99,3.53-1.72,5.03-2.69
		c3.49-2.27,3.51-6.69,0.09-9.08C645.01,431.13,642.25,429.7,639.42,426.98z M498.51,811.94c-3.36-6.61-6.66-13.03-8.91-20.12
		c-5.44,5.1-5.74,7.93-1.88,13.25C490.43,808.79,495.02,809.41,498.51,811.94z"/>
</g>
</svg>
