<?xml version="1.0" encoding="utf-8"?>
<!-- Generator: Adobe Illustrator 24.0.2, SVG Export Plug-In . SVG Version: 6.00 Build 0)  -->
<svg version="1.1" id="Layer_1" xmlns="http://www.w3.org/2000/svg" xmlns:xlink="http://www.w3.org/1999/xlink" x="0px" y="0px"
	 width="1475.54" height="1491.32" viewBox="0 0 1475.54 1491.32" style="enable-background:new 0 0 1475.54 1491.32;" xml:space="preserve">
<style type="text/css">
	.st0{fill:#1A1A1A;}
</style>
<g>
	<path d="M154.33,1289.78c-2.63-0.69-5.13-1.68-7.71-1.96c-21.83-2.39-39.5-13.12-55.28-27.55c-6.76-6.18-11.62-13.64-13.72-22.72
		c-2.42-10.48,1.49-19.12,10.97-23.96c1.75-0.9,3.56-1.69,6.59-3.12c-9.81-4.08-18.51-7.67-27.2-11.31
		c-13.89-5.82-26.79-13.38-38.63-22.66c-10.9-8.54-19.53-18.99-25.24-31.69c-2.75-6.13-4.14-12.55-4.11-19.34
		c0.07-11.72,5.17-20.67,15.2-26.27c9.03-5.03,18.69-8.64,29.46-7.62c1.77,0.17,3.96,1,5.83-1.84c-2.89-2.39-5.93-4.78-8.82-7.34
		c-11.29-10.04-20.01-29.41-12.92-49.16c5.92-16.46,18.79-23.64,35.05-25.4c22.36-2.41,40.9,6.36,57.08,21.12
		c3.12,2.84,5.52,6.66,10.11,7.86c1.55-3.04,0.37-6.01,0.76-8.87c1.57-11.51,9.7-24.43,26.53-24.96c18-0.57,34.06,5.24,49.3,13.8
		c21.82,12.25,40.16,28.36,53.16,50.06c0.32,0.54,0.97,0.87,1.72,1.51c0.73-0.11,1.71-0.1,2.58-0.41
		c16.34-5.7,30.04-0.5,42.21,10.41c10.02,8.98,17.54,19.97,24.47,31.39c9.86,16.22,18.86,32.91,27.44,49.84
		c1.19,2.35,1.97,4.96,4.62,7.2c3.75-0.72,7.97-1.29,12.06-2.37c19.6-5.18,39.32-10,58.36-17.09c16.26-6.06,31.9-13.32,45.98-23.67
		c4.59-3.37,6.73-7.23,7.49-13.15c3.48-27.12,9.75-53.63,20.32-78.95c6.66-15.96,13.53-31.83,20.7-47.56
		c4.68-10.28,9.84-20.35,15.2-30.3c10.18-18.91,17.11-38.76,20.54-60.05c2.58-16.04,7.02-31.78,10.22-47.74
		c2.29-11.41,3.74-22.95,3.47-34.67c-0.24-10.51-0.21-10.91-7.31-21.3c-15.54,12.98-25.86,29.26-31.35,48.61
		c-1.66,5.84-4.17,11.2-7.36,16.28c-2.63,4.2-6.03,7.11-11.52,5.51c-3.9,5.82-5.56,12.34-8.31,18.36
		c-10.77,23.61-19.1,48.22-29.13,72.11c-4.17,9.95-4.72,18.77-0.98,28.52c2.02,5.26,3.23,10.82,4.81,16.25
		c5.08,17.44,3.55,34.91,0.28,52.39c-0.73,3.92-1.52,7.84-2.48,11.7c-0.91,3.65-0.96,7.2,0.17,10.81c0.69,2.22,0.97,4.56,1.63,6.79
		c2.93,9.95,0.4,17.98-7.21,25.22c-8.45,8.04-16.2,16.75-27.13,21.65c-6.43,2.88-12.93,5.27-20.14,4.86
		c-2.39-0.14-4.65-0.48-6.22-2.55c-0.86-2.66,0.81-4.33,2.28-6.16c6.73-8.4,11.77-17.71,14.87-28.04c0.57-1.91,1.23-3.81,0.74-6.04
		c-0.26-1.67-1.81-2.47-3.07-3.52c-6-5-7.66-11.35-5.97-18.83c0.59-2.59,0.93-5.23,1.29-7.86c0.4-2.92-0.93-5.14-3.42-7.27
		c-3.35,1.17-5.57,3.53-4.41,7.27c3.86,12.44-0.97,22.19-9.35,30.67c-4.1,4.15-5.64,8.76-5.46,14.4c0.19,6.07,1.61,11.8,3.6,17.5
		c1.07,3.06,3.39,5.84,2.71,9.97c-6.76,2.9-12.64-1.12-18.62-3.09c-6.05-1.99-11.2-5.73-15.89-10.1
		c-4.98-4.64-7.57-10.81-10.5-16.42c-2.54-0.19-4.4,0.35-6.97,2.04c0.57,15.4,8.7,28.98,13.63,43.05c-2.2,1.8-3.89,1.35-5.49,1.07
		c-17.6-3.08-34.23-17.56-36.49-37.31c-0.75-6.57-2.41-12.86-4.79-19.19c-8.24-21.9-4.84-41.87,12.45-58.49
		c5.02-4.82,10.58-9.1,16.01-13.48c9.07-7.3,18.65-13.98,26.61-22.58c4.52-4.88,8.99-9.81,12.51-15.5c2.84-4.59,4.99-9.49,5.21-14.9
		c0.57-14.32,3.21-28.39,5-42.54c2.46-19.42,6-38.7,9-58.06c3.91-25.26,7.43-50.59,12.83-75.49c-0.75-3.99-5.77-4.74-6.29-8.76
		c-0.02-3.91,4.2-3.84,5.82-6.19c-0.35-1.39-1.4-2.14-2.58-2.72c-4.7-2.33-8.55-5.34-8.2-11.25c0.15-2.59-1.82-3.41-3.25-4.61
		c-5.35-4.49-10.87-8.78-16.21-13.29c-7.38-6.24-7.77-10.23-1.81-17.64c8.6-10.68,19.28-19.21,29.53-28.4
		c0.91-2.67-2.61-4.52-1.57-7.37c1.09-3.01,3.49-4.83,5.76-6.72c5.12-4.27,10.47-8.23,16.36-11.39
		c11.46-6.14,19.9-15.13,26.58-26.25c7.55-12.56,14.46-25.43,21.01-38.53c7.27-14.53,15.12-28.78,22.93-43.56
		c-2.49-4.15-5.19-8.41-1.51-13.53c1.45-2.01,0.61-4.46-1.55-6.15c-1.07-0.84-1.67-2.05-1.43-4.41c3.69-4.65,10.17-6.81,15.47-10.8
		c-1.48-4.44-5.5-6.22-8.12-8.97c-5.61-5.87-9.71-12.51-13.37-19.6c-1.41-2.73-2.46-5.44-2.35-8.53c0.12-3.46-0.65-6.81-3.09-9.23
		c-3.03-3-3.16-6.33-1.71-10.13c-11.43-6.23-19.14-14.48-18.8-28.01c3.42-2.51,7.17-3.54,9.2-7.02c-0.28-1.73-2.83-2.56-2.5-5.75
		c2.74-5.38,10.96-4.59,14.89-10.36c-7-7.5-10.19-16.81-12.61-26.48c-0.4-1.61-0.91-3.21-1.12-4.85
		c-1.26-9.56,0.78-12.18,10.69-13.99c1.29-0.24,2.56-0.62,3.3-0.8c3.76-2.13,1.32-6.91,5.06-8.69c2.65-1.26,4.93-3.29,7.44-5.03
		c-1.32-5.53-7.42-10.65-0.79-16.17c-0.99-1.53-1.61-3.26-2.83-4.28c-7.77-6.44-10.26-15.13-11.11-24.66
		c-0.3-3.29-0.93-6.57-1.58-9.81c-1.58-7.93-1.62-7.92,1.35-15.21c-0.01-2.16-1.63-3.58-2.48-5.35c-2.88-5.98-1.85-8.18,4.64-9.89
		c1.26-0.33,2.67-0.12,3.83-1.47c1.7-2.43,0.14-4.68-0.77-7.2c-4.09-11.3-6.42-16.88-4.25-36.26c4.47-5.86,11.35-1.04,16.54-3.18
		c1.75-11.39,1.75-11.39,9.85-12.74c-1.59-4.99-3.2-9.94-4.74-14.91c-4.8-15.5-10.02-30.88-14.19-46.55
		c-2.72-10.22-4.34-20.8-5.66-31.31c-1.74-13.82-4.17-27.57-4.37-41.57c-0.24-16.63-1.02-33.24,3.82-49.54
		c2.75-9.25,7.06-16.91,15.57-21.99c5.24-3.13,10.79-5.25,16.82-5.18c9.34,0.1,18.47,1.63,26.82,6.2
		c9.86,5.39,20.38,9.81,28.87,17.34c11.63,10.31,24.23,19.45,34.85,31.03c6.27,6.84,12.64,13.6,18.52,20.77
		c5.49,6.69,9.89,14.17,13.32,22.75c5.62-5.14,6.64-12.7,11.7-17.34c4.95-4.54,9.6-9.84,16.56-10.62c3.15,3.11,0.06,6.44,1.72,9.05
		c1.24,1.18,2.64,0.92,3.55-0.02c9.2-9.48,20.57-15.22,32.9-19.36c1.26-0.42,2.57-0.73,3.79-1.24c4.19-1.72,5.18-2.82,4.32-7.51
		c-0.68-3.72-0.1-6.4,2.83-8.6c2.36-0.16,3.82,1.37,5.17,2.74c6.53,6.57,12.87,13.33,19.45,19.85c2.57,2.54,5.56,4.66,8.42,6.89
		c6.92,5.39,13.14,11.21,13.28,20.55c0.83,0.7,1.26,1.31,1.84,1.51c9.96,3.42,10.45,3.74,16.24-4.9
		c9.01-13.43,20.95-23.83,32.94-34.3c9.45-8.25,18.29-17.23,28.08-25.04c12.44-9.92,25.7-18.74,40.22-25.52
		c6.11-2.85,12.6-4.68,19.14-5.32c10.79-1.05,20.48,2.37,27.34,11.13c8.38,10.71,12.72,23.1,13.73,36.7
		c1.24,16.64,1.32,33.35-0.28,49.89c-1.27,13.09-3.02,26.21-6.72,39.07c-3.01,10.47-5.55,21.1-8.65,31.59
		c-2.65,8.96-6.66,17.27-10.03,25.9c-2.35,6.03-6.83,11.26-6.97,18.13c0.68,2.6,4.96,2.96,4.22,6.24c-0.57,2.52-0.51,4.58,1.71,6.5
		c4.32,1,9.06-1.01,13.55,0.7c3.75,8.17,2.27,23.37-4.46,45.44c1.99,2.85,5.55,1.06,8.1,2.38c3.45,1.79,4.58,4.86,2.47,8.14
		c-1.25,1.94-3.16,3.45-3.66,6.55c4.51,4.72,3.66,10.33,0.77,15.96c-1.11,2.16-1.64,4.42-1.37,6.75
		c1.31,11.25-4.2,19.74-11.09,27.65c-0.84,0.97-2.15,1.54-3.74,2.64c8.07,5.62,2.21,10.9,1.08,16.21c1.42,3.89,5.82,4.14,8.46,6.98
		c0.48,1.95,1.03,4.16,1.53,6.19c5.04,1.63,10.1,2.12,14.97,5.54c1.94,15.84-1.64,30.3-13.93,42.36c4.82,4.77,12.33,4.26,16.36,9.73
		c0.77,2.62-2.14,3.76-2.73,5.91c0.62,1.7,2.14,2.42,3.52,3.37c5.55,3.8,6.44,6.26,4.8,12.46c-1.91,7.19-6.63,12.12-12.76,15.91
		c-1.41,0.87-2.88,1.64-4.84,2.75c0.06,3.46,1.79,7.61-2.22,10.43c-1.72,1.2-1.89,3.4-2.12,5.42c-1.57,14.36-9.74,25.11-19.29,35.08
		c-1.58,1.65-3.77,2.8-4.47,6.16c4.01,4.4,12.02,5.09,14.14,11.8c0.79,3.5-3.15,4.34-3.43,7.51c0.86,2.42,1.85,5.22,2.92,8.26
		c-1.31,2.26-2.6,4.5-3.84,6.65c2.4,6.96,6.64,12.6,9.95,18.72c10.88,20.15,20.71,40.84,32.24,60.66
		c7.01,12.06,15.53,22.22,27.83,29.19c7.22,4.09,14.14,8.8,20.11,14.69c3.73,3.68,3.78,4.58,0.98,10.51
		c2.64,4.61,7.63,7.01,11.41,10.62c6.24,5.96,12.94,11.45,18.34,18.24c5.69,7.15,5.33,11.97-1.56,18.02
		c-4.24,3.73-8.84,7.05-13.25,10.58c-3.1,2.49-6.23,4.8-6.36,9.51c-0.09,3.15-2.59,5.21-5.08,7.05c-1.85,1.37-4.47,1.55-5.75,3.84
		c-0.24,1.88,1.59,1.62,2.48,2.31c3.69,2.86,4.03,4.74,1.29,8.1c-0.62,0.76-1.49,1.32-2.3,1.89c-0.81,0.58-1.7,1.06-2.36,1.46
		c0.27,2.44,0.25,4.11,0.65,5.67c5.52,21.61,8.17,43.73,11.66,65.7c3.13,19.67,6.18,39.36,9.05,59.07
		c1.92,13.14,4.46,26.3,4.94,39.51c0.58,15.89,8.09,27.44,18.53,38.35c11.36,11.87,25.1,20.73,37.46,31.3
		c8.73,7.47,16.09,15.99,19.77,27.06c2.78,8.37,2.87,17.05,0.9,25.61c-2.68,11.65-5.43,23.3-8.69,34.8
		c-5.25,18.51-19.32,30.05-37.61,32.57c-0.93,0.13-1.92-0.17-3.64-0.35c1.55-7.69,6.45-13.76,8.36-20.95
		c1.93-7.3,4.22-14.5,6.33-21.63c-3.11-1.77-5.7-1.44-8.95-0.6c-3.92,8.14-9.81,15.11-17.94,20.16c-8.55,5.32-18.5,7.96-26.15,6.48
		c-0.97-3.24,0.78-5.88,2.17-8.44c4.37-8.03,3.94-16.69,3.77-25.36c-0.05-2.56-1.46-4.16-3.17-5.9c-2.78-2.84-5.66-5.79-7.57-9.21
		c-3.38-6.06-6.71-12.23-4.26-19.83c1.36-4.23-1.32-6.73-4.97-7.88c-2.9,1.37-2.36,3.44-2.04,5.35c0.32,1.96,0.97,3.88,1.24,5.84
		c1.56,11.27-0.09,15.25-9.46,22.53c0.59,7.57,4.15,14.25,7.24,21.22c2.98,6.72,8.82,11.65,11.5,19.02
		c-4.13,4.45-9.13,3.71-13.88,2.68c-12.69-2.76-23.54-9.02-32.58-18.3c-2.77-2.85-5.37-5.81-8.37-8.48
		c-6.44-5.72-9-13.01-6.99-21.62c0.61-2.59,1.02-5.25,1.89-7.75c1.6-4.59,1.24-9.14,0.37-13.78c-1.65-8.81-3.37-17.61-4.75-26.46
		c-2.24-14.47,0.38-28.46,4.54-42.3c2.01-6.68,3.5-13.51,5.55-20.18c1.03-3.37,0.97-6.34-0.25-9.66
		c-7.97-21.66-28.61-74.83-39.95-98.36c-8.32,0.06-12.45-5.93-15.69-12.6c-1.88-3.86-2.96-8.12-4.26-12.24
		c-5.21-16.53-14.17-30.73-26.5-42.84c-1.17-1.15-2.28-2.47-4.95-2.46c-4.07,4.66-7.43,9.96-7.29,17.06
		c0.31,15.67,2,31.22,5.48,46.44c4.3,18.79,8.73,37.54,12.27,56.49c1.11,5.94,3.05,11.53,5.27,17.11
		c7.15,17.96,16.79,34.71,25.16,52.08c11.55,23.98,22.49,48.26,30.42,73.71c5.13,16.49,9.59,33.28,11.45,50.5
		c1.75,16.18,5,32.11,7.07,48.23c1.37,10.66-1.35,20.4-6.69,29.37c-1.74,2.92-3.53,5.6-3.69,8.99c-0.57,12-6.72,21.36-14.07,30.17
		c-0.43,0.51-1,0.9-1.39,1.44c-8.66,12.17-19.94,21.13-33.41,27.48c-1.76,0.83-3.34,2.22-4.71,3.63
		c-5.26,5.42-11.77,9.28-18.81,10.89c-9.32,2.13-16.82,7.52-25.66,11.22c5.08,20.96,5.52,42.22,7.54,63.29
		c0.87,9.04,3.5,17.6,5.88,26.22c4.68,16.98,10.02,33.74,16.84,50.04c3.43,8.19,8.45,12.22,17.47,11.34
		c4.62-0.45,9.33,0.07,13.99-0.11c6.94-0.26,13.31,2.03,18.97,5.41c7.18,4.29,10.79,11.56,12.27,19.66
		c2.46,13.42-4.79,25.38-16.89,31.79c-11.45,6.07-23.68,6.08-35.82,7.02c-12.94,1.01-25.96,0.15-38.82-1.42
		c-9.96-1.22-17.88-5.45-21.6-16.3c-5.42-15.81-15.18-29.54-23.6-43.86c-2.94-5-4.47-9.91-5.11-15.77
		c-2.13-19.4-1.97-39.16-9.11-57.87c-4.41-11.56-10.27-22.29-16.29-33.01c-6.54-11.64-14.46-22.3-22.72-32.77
		c-8.07-10.23-14.93-21.24-17.95-34.15c-2.39-10.18-3.04-20.31,1.01-30.37c3.78-9.38,10.37-15.18,20.19-17.58
		c4.83-1.18,9.66-2.53,14.29-4.32c7.69-2.96,9.68-6.25,9.46-14.43c-0.26-9.9-4.03-18.78-8.34-27.42
		c-4.93-9.88-12.34-18.12-18.58-27.14c-1.9-2.75-4.79-4.32-8.18-5.97c-0.93,8.36,5.34,14.63,5.01,21.79
		c-3.67,2.39-6.49,0.7-9.33,0.42c-2.18,1.47-2.38,3.73-2.6,6.07c-0.53,5.79-2.98,10.85-6.18,15.59c-2.24,3.31-5.05,4.14-8.64,1.82
		c-4.24,1.7-5.88,7.27-11.11,7.66c-1.46,0.11-1.95,1.55-2.58,2.75c-7.11,13.61-16.08,25.93-26.35,37.33
		c0.34,1.59,0.46,2.92,0.9,4.14c4.78,13.24,2.67,26.03-2.3,38.7c-4.18,10.67-10.42,20.08-17.74,28.76
		c-13.85,16.44-23.93,35.18-33.24,54.36c-4.38,9.02-6.97,18.77-8.35,28.64c-1.38,9.85-3.04,19.7-3.13,29.73
		c-0.05,4.95-0.9,9.9-1.4,14.84c-0.17,1.71-1.08,3.05-1.94,4.5c-6.96,11.73-13.93,23.45-20.63,35.33
		c-2.27,4.03-4.19,8.36-5.57,12.78c-2.82,9.04-9.35,13.76-18.05,15.13c-16.13,2.56-32.4,3.12-48.7,1.43
		c-2.31-0.24-4.64-0.67-6.93-0.56c-10.15,0.47-18.89-3.8-27.2-8.64c-7.31-4.26-11.33-11.19-11.42-19.89
		c-0.08-7.26-0.83-14.51,4-21.09c6.23-8.5,14.64-12.32,24.7-12.96c6.31-0.4,12.67-0.34,18.99-0.05c5.73,0.26,9.67-2.05,12.07-7.05
		c2.72-5.69,5.87-11.29,7.72-17.27c4.81-15.55,10.52-30.84,14.17-46.76c2.76-12.03,4.45-24.17,4.92-36.48
		c0.14-3.55,0.11-7.11,1.18-10.48c-3.81-1.19-5.88,0.83-8.13,1.93c-19.48,9.45-39.49,17.54-60.52,22.83
		c-15.44,3.88-30.63,8.86-46.41,11.32c-7.28,1.14-14.63,1.36-21.58-1.87c-1.85-0.86-3.66-1.45-5.71-1.56
		c-7.67-0.39-15.04-1.34-21.8-5.89c-3.11-2.09-7.53-2.27-11.6-2.14c-4.67,0.15-9.29-0.39-13.8-1.79
		c-11.77-3.66-23.9-5.59-36.04-7.53c-2.86-0.46-5.19,0.09-7.73,0.83c-11.48,3.37-23.08,6.27-34.74,8.97
		c-26.12,6.06-52.59,8.44-79.22,6.67c-22.88-1.52-45.57-4.98-66.55-15.37c-4.21-2.09-8.02-4.7-11.72-7.55
		C148.12,1308.95,146.76,1302.18,154.33,1289.78z"/>
	<path class="st0" d="M455.42,1339.92c3.25-2.44,5.54-4.15,8.62-6.47c-6.78-1.03-11.07,3.11-16.27,3.77
		c-5.01,0.64-9.67-0.07-14.12-0.79c-0.45-2.63,1.36-2.81,1.88-3.9c0-0.83-0.41-1.28-1.24-1.29c-22.03-0.26-43.66-3.61-64.85-9.36
		c-6.78-1.84-13.66-3.21-20.41-5.13c-5.51-1.56-9.72-5.44-14.98-7.5c-12.08-4.73-23.8-10.29-34.76-17.34
		c-9.04-5.81-16.89-12.84-23.7-21.17c-2.13-2.61-1.27-4.69-0.42-7.46c-13.22-12.63-23.42-27.43-29.65-44.45
		c2.06-2.17,3.77,0.3,5.57-1.37c-0.63-2.91-3.4-4.36-5.18-6.51c-1.64-1.97-4.85-2.48-5.29-5.73c3.67-4.92,8.65-6.64,14.72-6.22
		c4.51,0.31,9.07,0.45,15.24-1.02c-3.6-2.85-6.18-2.18-8.52-2.27c-2.3-0.09-4.61-0.02-6.77-0.02c-1.05-3.42,1.59-3.79,3.04-4.61
		c9.66-5.45,20.15-9.36,30.96-10.7c12.72-1.58,25.56-4.47,38.62-1.57c3.78,0.84,7.91,0.13,12.09,0.13c1.87-2.67-3.45-2.62-2.07-5.89
		c5.27,0,10.88,0.3,16.43-0.08c5.92-0.41,10.42,3.99,16.91,4.64c-0.95-3.28-4.64-3.11-5.2-6.23c3.5-3.03,8.37-2.8,12.62-3.74
		c21.11-4.68,42.02-10.02,62.25-17.71c28.64-10.88,52.36-28.6,71.8-52.22c7.61-9.24,15.53-18.22,23.19-27.42
		c2.92-3.5,5.83-6.9,7.19-11.62c1.51-5.24,6.25-8.46,10.17-12c2.45-2.21,5.25-4.04,7.89-6.04c-1.43-2.15-3.94-0.62-6.1-2.15
		c7.32-5.62,15.41-7.88,23.8-9.39c-0.45-2.21-2.91-0.9-4.08-3.07c3.28-1.01,6.6-1.71,9.64-3.06c3.31-1.48,6.31-3.66,9.54-5.34
		c1.45-0.75,3.32-1.73,4.72-1.41c7.85,1.82,15.57-1.1,23.3-0.36c7.91,0.76,15.91,1.66,23.58,3.63c8.99,2.31,17.72,5.7,26.45,8.91
		c5.92,2.18,11.59,5.05,17.49,7.28c15.55,5.85,28.85,15.29,40.5,26.76c8.75,8.61,15.84,18.75,20.07,30.57
		c4.34,12.14,8.64,24.26,10.17,37.19c0.54,4.52,2.1,8.92,3.39,14.21c-6.6-2.04-6.43-8.82-10.98-12.19
		c-2.59,4.37,0.99,7.67,1.09,11.22c0.12,3.98,0.45,8.03-0.08,11.94c-0.52,3.79-0.9,7.99-4.64,10.46c-2.46-2.68-0.21-6.86-4.11-9.66
		c-0.74,3.29-1.07,6.36-2.14,9.14c-1.16,3.03-2.34,6.27-5.5,7.91c-3.06-0.95-0.52-4.3-2.78-5.78
		c-8.44,17.49-18.93,33.57-31.72,48.14c-7.95,9.06-17.43,16.41-26.38,24.35c-28.56,25.37-60.68,45.41-94.64,62.6
		c-13.93,7.05-27.44,14.96-42.26,20.24c-22.91,8.16-46.18,14.87-70.34,18.04C465.09,1341.39,460.71,1342.87,455.42,1339.92z"/>
	<path class="st0" d="M248.04,1165.73c-4.58-5.1-8.88-10.47-13.78-15.25c-14.29-13.95-27.6-28.9-42.99-41.75
		c-5.3-4.43-9.43-10.25-14.08-15.46c-11.07-12.41-22.1-24.85-33.2-37.23c-8.34-9.3-9.84-20.02-6.4-31.59
		c2.85-9.56,9.08-15.92,21.02-16.73c6.73-0.46,13.43,0.28,19.74,2.2c24.45,7.45,46.76,18.79,63.84,38.44
		c6.04,6.95,11.87,14.19,16,22.61c1.9,3.86,4.38,7.38,7.23,10.72c5.4,6.31,9.64,13.42,13.84,20.63
		c8.03,13.78,16.93,27.05,25.52,40.5c0.45,0.71,1.37,1.13,3.32,2.66c-2.95-10.43-9.71-17.11-13.85-25.16
		c-4.44-8.63-9.74-16.67-14.84-24.84c-4.86-7.8-11.74-14.29-15.72-22.93c6.45-4.06,13.31-3.67,19.63-2.26
		c9.5,2.12,18.08,6.52,24.32,14.6c5.07,6.57,10.49,12.86,15.7,19.32c1.04,1.28,1.9,2.73,2.68,4.19
		c10.06,18.76,20.79,37.14,31.82,55.34c0.51,0.83,0.81,1.79,1.15,2.54c-0.51,2.53-2.03,3.5-4.3,3.42
		c-5.65-0.2-11.31-0.58-16.96-0.58c-3.58,0-7.45-0.32-9.73,3.59c-1.35,2.32-3.61,1.02-5.41,0.97c-13.36-0.41-26.63,0.32-39.6,3.61
		c-13.92,3.54-27.27,8.23-37.64,19.05c-3.14,3.27-7.35,5.51-11.66,8.64c4.24,4.77,5.08,10.3,6.97,15.46
		c4.23,11.54,9.88,22.61,18.51,31.71c4.15,4.38,7.1,9.16,9.5,14.85c4.49,10.61,13,18.34,22.31,24.97
		c10.91,7.77,22.86,13.56,35.48,18.03c3.02,1.07,6.33,1.39,8.17,4.94c0.72,1.38,3.42,1.72,5.2,2.56c1.98,0.93,4.53,1.05,5.63,4.22
		c-4.91,2.74-10.34,4.07-15.7,5.35c-14.24,3.4-28.74,5.07-43.27,6.78c-15.6,1.84-31.17,2.35-46.78,1.14
		c-18.16-1.41-36.58-1.72-53.83-8.51c-8.89-3.5-18.08-6.62-25.65-12.9c-1.82-1.51-3.54-2.95-4.74-5.03c-4.06-6.98-2-13.59,5.13-17.4
		c3.42-1.82,6.9-2.16,10.6-2.14c10.92,0.04,21.9,0.7,32.75-0.16c14.71-1.16,29.76-0.74,43.81-7.01c-3.14,0-6.37-0.47-9.42,0.08
		c-19.73,3.56-39.65,3.58-59.58,3.83c-15.4,0.19-30.41-1.64-45.35-5.47c-14.32-3.67-25.98-11.51-36.93-20.84
		c-2.53-2.15-4.84-4.59-7.06-7.07c-5.79-6.5-8.61-13.96-8.02-22.86c0.43-6.55,3.82-10.56,9.43-12.78
		c7.26-2.87,14.64-3.65,22.23-0.49c9.83,4.09,19.98,7.33,30.26,10.09c17.35,4.66,34.96,8.15,52.72,10.68
		c7.45,1.06,15.04,2.32,24.03,1.64c-19.43-4.98-38.02-7.44-56.29-11.44c-15.24-3.34-30.39-6.98-44.84-13.26
		c-7.86-3.42-16.6-4.7-24.47-8.31c-17.45-8-35.62-14.62-51.93-24.88c-6.83-4.3-14.63-8.04-17.92-16.43
		c-9.31-6.32-13.18-16.35-17.4-26.03c-2.1-4.82-3.24-9.95-2.45-15.45c1.47-10.2,7.26-16.97,16.2-21.26
		c11.09-5.31,22.62-7.48,34.84-4.29c5.03,1.32,8.86,4.53,12.77,7.54c6.59,5.06,12.56,10.98,19.38,15.69
		c31.19,21.56,62.41,43.09,97.01,59.05c1.46,0.67,2.79,1.94,4.93,0.72c-15.12-9.1-30.08-18.09-45.02-27.11
		c-27.66-16.7-54.41-34.63-78.45-56.42c-7.38-6.69-15.59-12.49-22.43-19.79c-4.99-5.32-9.71-10.86-11.42-18.35
		c-1.75-7.64-1.87-15.31,0.02-22.76c2.98-11.71,11.41-18.73,22.57-21.9c13.48-3.83,26.99-3.32,39.82,3.11
		c10.73,5.37,20.68,11.59,28.94,20.72c12.29,13.57,23.4,28.13,35.78,41.6c8.55,9.3,17.44,18.29,24.83,28.59
		C206.48,1126.45,224.58,1148.9,248.04,1165.73z"/>
</g>
</svg>
