<?xml version="1.0" encoding="utf-8"?>
<!-- Generator: Adobe Illustrator 24.1.1, SVG Export Plug-In . SVG Version: 6.00 Build 0)  -->
<svg version="1.1" id="Layer_1" xmlns="http://www.w3.org/2000/svg" xmlns:xlink="http://www.w3.org/1999/xlink" x="0px" y="0px"
	 viewBox="0 0 1647.13 3755.86" style="enable-background:new 0 0 1647.13 3755.86;" xml:space="preserve">
<g>
	<path d="M453.4,3754.57c-1.59-25.24-3.98-50.32-4.97-75.87c9.39-2.26,18.38-1.93,27.59-2.8c2.1-5,1.02-10.02,0.82-14.83
		c-1.36-33.94-2.89-67.88-4.4-101.81c-1.36-30.61-2.8-61.22-4.12-91.83c-1.41-32.61-2.68-65.23-4.09-97.85
		c-1.35-31.28-2.81-62.56-4.19-93.83c-0.26-5.99-0.35-11.99-0.5-17.99c-0.06-2.32,0.15-4.69-1.89-6.99
		c-1.91-0.16-4.14-0.35-6.26-0.52c-1.96-2.96-1.13-5.93-1.18-8.3c1.85-2.88,4.69-1.76,6.94-3.19c0.27-0.58,0.95-1.43,1.01-2.32
		c0.14-2.36,0.22-4.66,1.91-6.55c3.65-4.1,2.14-7.97-0.61-11.73c-2.75-3.76-5.52-7.47-7.85-11.55c-5.69-9.98-5.53-21.13-6.83-31.97
		c-1.07-8.88-1.69-17.82-2.46-26.25c-4.19-3.34-8.51-0.33-12.46-2.16c-2.03-2.67-2.25-5.78-0.84-10c16.76-2.19,34.04-2.15,50.9-4.21
		c0.45-0.47,0.71-0.69,0.9-0.96c0.18-0.26,0.42-0.57,0.41-0.85c-0.39-7.97-0.67-15.94-1.23-23.9c-2.62-37.48-5.32-74.95-8.06-113.35
		c-20.94,1.21-41.05,2.38-60.96,3.53c-1.73-3.93-1.88-7.16-1.24-10.98c6.04-2.62,12.89-1.35,19.36-2.99
		c2.29-2.52,1.47-5.39,0.72-8.45c-0.85-0.38-1.73-1.11-2.6-1.1c-3.66,0.06-7.31,0.34-10.96,0.53c-3.6,0.19-7.2,0.37-10.74,0.55
		c-1.31-3.87-1.81-7.02-0.47-10.6c6.61-2.19,13.88-0.1,20.4-2.43c2.96-2.67,0.39-6.63,2.58-9.6c11.11-3.12,23.07-0.61,34.7-4.21
		c0.53-7.4-1.73-14.63-0.19-21.77c5.63-2.4,11.62-0.36,16.69-2.42c2.64-2.8,1.67-5.91,1.49-8.77c-1.1-17.29-2.32-34.57-3.51-51.85
		c-1.65-23.92-3.3-47.85-4.99-71.77c-1.43-20.24-2.93-40.48-4.36-60.08c-1.94-2.87-4.79-1.69-6.77-3.07
		c-1.32-2.76-1.29-5.64-0.43-8.55c2.75-2.48,6.78-0.27,10.09-3.79c1.06-4.96-0.67-9.91-5.22-14c-0.74-0.67-1.51-1.31-2.26-1.98
		c-9.55-8.57-10.88-12.22-9.27-25.53c2.85-2.89,7.13-0.66,10.94-3.18c-0.34-17.72-2.27-35.76-3.49-54.33
		c-12.11-2.04-23.64,0.4-35.15,0.19c-11.66-0.21-23.2,2.35-34.95,1.41c-2.64-3.35-1.35-7-1.34-10.51c3.91-2.99,8.75-0.43,12.84-2.75
		c1.9-2.12,1.55-4.56-0.03-7.92c-7.53,0.03-15.4,1.55-23.57,0.76c-1.67-2.81-1.34-5.77-1.3-8.85c0.73-0.51,1.48-1.46,2.32-1.55
		c6.25-0.71,12.52-1.24,18.51-1.81c3.28-2.83,0.51-6.8,3.2-10.41c10.74-0.89,22.23-1.83,34.08-2.81c1.61-7.58-1.62-14.83,0.04-22.4
		c5.48-2.4,11.64-1.45,16.31-2.46c1.14-0.95,1.45-1.12,1.62-1.39c0.17-0.27,0.27-0.63,0.29-0.95c0.07-1.99,0.25-3.99,0.13-5.97
		c-0.64-10.64-1.3-21.28-2.05-31.91c-3.6-50.82-7.24-101.63-10.81-151.76c-1.44-3.47-4.48-1.99-6.86-3.73
		c-1.53-2.53-1.46-5.66-0.44-8.7c2.98-2.51,6.86-0.69,10.11-3.09c1.08-6.09-0.93-11.07-5.96-15.37c-3.72-3.18-7.88-6-9.83-11.03
		c-2.03-5.24-1.52-10.37-1.27-15.31c3.38-2.97,7.61-1.26,11.58-4.01c-1.23-17.55-2.5-35.65-3.84-54.69
		c-23.9,0.14-47.01,1.49-70.2,2.86c-2.07-3.82-1.78-7.3-1.05-10.6c4-3.27,8.77-1.38,12.72-3.05c1.93-2.04,1.35-4.22,0.32-6.91
		c-3.53-1.84-7.54-0.52-11.4-0.47c-3.97,0.05-7.94,0.52-11.68,0.79c-3.08-3.07-1.69-6.49-2.35-9.94c7.28-2.83,14.77-1.59,21.38-3.19
		c2.73-2.82,0.31-6.23,2.16-9.21c0.54-0.27,1.37-0.98,2.25-1.06c8.29-0.76,16.59-1.4,24.89-2.09c2.3-0.19,4.59-0.44,7.43-0.71
		c2.27-7.49-2.14-15.17,0.78-22.93c5.71-0.71,11.54-1.43,18.25-2.26c-4.2-64.64-8.96-128.63-13.32-191.72
		c-1.83-3.4-4.89-1.87-6.86-3.75c-1.48-2.48-1.35-5.36-0.54-8.22c2.91-3,7.29-0.85,10.66-3.52c0.22-6.05-1.61-11.27-6.73-15.42
		c-3.33-2.7-6.94-5.32-8.86-9.34c-2.66-5.6-3.09-11.44-1.61-17.29c3.3-2.66,7.64-0.16,11.23-3.52c-1.22-17.57-2.48-35.72-3.8-54.66
		c-23.83-0.37-46.93,1.9-69.88,2.83c-2.69-3.75-1.9-7.31-1.55-11.34c4.37-0.74,8.55-1.45,12.47-2.11c2.25-2.16,1.61-4.44,1-7.14
		c-7.87-3.06-16.18,1.83-23.82-0.26c-1.99-1.96-1.59-4.1-1.74-6.02c-0.1-1.25,0.38-2.54,0.6-3.82c6.9-2.72,14.25-0.27,20.78-2.85
		c2.39-2.59,0.39-5.94,2.17-9.07c0.34-0.17,1.16-0.9,2.04-0.98c6.63-0.6,13.28-1.08,19.92-1.58c4.26-0.32,8.57-0.33,13-1.94
		c1.03-7.43-2.16-14.69-0.17-21.93c5.86-2.34,12.08-0.63,17.65-2.13c0.95-8.52-10.36-175.71-12.99-193.49
		c-1.6-2.05-4.54-0.76-6.36-2.59c-1.1-2.76-1.53-5.6,0.14-9.05c2.94-0.41,6.13-0.86,9.59-1.35c1.32-6.84-0.59-12.01-5.66-16.14
		c-3.36-2.74-6.91-5.38-9.04-9.23c-3.04-5.48-3.12-11.42-2.15-17.13c2.89-3.68,7.38-1.28,11.21-4.22
		c-0.57-17.52-2.07-35.58-3.72-54.13c-11.95-1.78-23.49,0.13-35,0.47c-11.61,0.34-23.21,1.11-34.59,1.68
		c-2.79-3.81-2.07-7.36-1.57-10.89c4.03-2.67,8.74-0.8,12.46-2.32c2.17-2.29,1.5-4.53,0.74-7.22c-7.66-2.2-15.62,1-23.6-0.33
		c-2.54-2.75-1.91-5.96-1.34-9.45c6.86-2.76,14.37-1.46,20.89-2.99c2.32-3.19,0.49-6.5,2.63-10.25c10.69-0.85,22.15-1.76,33.88-2.69
		c2.21-7.65-1.43-14.93,0.31-22.34c5.64-3.06,12.32-1.13,18.98-3.32c-4.49-64.24-8.96-128.27-13.35-191.09
		c-1.95-3.7-5.05-2.01-6.86-3.75c-1.89-2.67-0.75-5.65-1-8.11c3.02-3.75,7.57-1.12,10.68-3.94c0.81-6.22-1.19-11.41-6.37-15.52
		c-3.11-2.47-6.41-4.87-8.4-8.45c-3.24-5.82-3.4-11.97-2.1-18.06c3.47-2.31,7.75-0.5,11.27-4.08c-1.21-17.22-2.47-35.09-3.78-53.74
		c-11.82-1.76-23.34,0.49-34.82,0.55c-11.62,0.07-23.23,1.22-34.94,1.9c-2.93-3.25-1.91-6.89-1.92-10.69
		c4.1-2.88,9.14-1.51,13.01-2.83c1.71-2.64,1.54-4.78-0.11-7.56c-7.44-1.35-15.32,0.97-23.39,0.65c-0.47-1.54-1.04-2.74-1.18-3.99
		c-0.23-1.96-0.58-3.98,0.69-6.27c6.34-2.34,13.59-0.69,20.32-2.82c2.71-2.54,0.34-6.46,2.69-9.99c11.04-0.95,22.52-1.93,34.3-2.95
		c1.8-7.78-1.89-15.04,0.14-22.67c5.7-2.07,12.35-0.34,18.74-3.31c-4.47-64.05-8.93-128.06-13.32-190.98
		c-2.04-3.47-5.08-1.91-7.03-3.82c-1.43-2.54-1.21-5.4-0.18-8.74c3.38-0.76,6.86-1.54,10.33-2.32c0.47-7.73-2.26-13.13-8.2-17.42
		c-8.75-6.32-11.38-15.04-8.85-25.28c3.05-2.51,6.85-0.47,9.72-2.37c1.63-8.08-0.42-42.27-3.47-55.91c-23-0.27-46.1,2.17-69.22,2.9
		c-1.97-4.11-1.68-7.57-0.95-11.44c4.52-0.73,8.71-1.4,12.63-2.03c1.71-2.46,1.63-4.64,0.39-7.3c-3.62-1.6-7.56-0.34-11.45-0.14
		c-3.97,0.2-7.95,0.42-11.75,0.62c-2.93-3.2-2.02-6.45-1.76-9.84c6.9-3.6,14.73-0.5,21.21-3.32c2.02-2.96,0.24-6.26,2.11-9.56
		c6.85-1.86,14.7-0.59,21.52-2.86c1.27-2.03,0.89-3.71,0.7-5.32c-0.91-7.37-0.52-14.55,1.86-21.69c2.79-8.36,2.65-17.08,1.97-25.74
		c-0.29-3.71,0.58-7.75-4.19-10.29c-2.39-1.27-1.78-5.44-1.66-8.35c1.55-3.5,5.74-1.46,8.41-4.78c-0.38-6.08-1.42-13.04-1.1-19.93
		c0.35-7.31-4.9-12.89-4.77-20.14c-1.85-0.78-3.62-1.53-5.66-2.4c-0.2-2.87-0.4-5.81-0.63-9.23c4.54-1.3,7.48-3.56,7.59-8.88
		c0.08-3.96,4.12-5.11,7.43-5.34c3.34-0.24,6.7,0.66,8.22,4.35c0.63,1.53,0.89,3.23,1.67,4.67c0.83,1.55,2.36,2.3,4.19,2.13
		c1.79-0.16,3.11-1.09,3.83-2.74c0.26-0.6,0.45-1.28,0.45-1.93c-0.02-3.27,1.13-5.94,4.17-7.37c3.78-1.78,7.79-1.6,11.74-0.68
		c1.69,0.39,2.84,1.78,3.49,3.35c0.88,2.11,0.8,4.64,3.64,7.1c9.01,0.11,18.87-0.5,28.17-1.98c4.03-2.99,0.97-8.54,5.21-10.84
		c3.32-1.8,6.93-2,10.6-2.35c7.97-0.77,8.7,5.52,10.51,10.95c7.9,0.6,15.4,0.2,22.4-1.07c0.64-0.71,0.89-0.92,1.06-1.19
		c0.18-0.28,0.38-0.6,0.39-0.91c0.07-1.65,0.22-3.32,0.1-4.96c-5.61-79.01-11.24-158.01-16.91-237.53
		c-10.03-0.17-19.53,1.96-28.61,0.48c-1.83-1.97-1.93-4-2.07-5.97c-0.46-6.75-2.47-13.02-5.33-19.12c-4.3-9.22-4.19-9.27-3.63-20.16
		c0.59-2.66,4.17-2.08,5.05-5.16c-1.56-22.27-3.17-45.14-4.75-67.66c-3.55-2.55-7.17,0.04-10.19-1.72c-1.78-2.34-1.61-4.91-0.83-7.7
		c3.64-2.72,8.53-0.36,12.09-2.55c2.01-2.13,0.57-4.77,1.82-7.04c1.46-2.4,5.22-0.39,7.3-4.08c-2.06-7.42,0.11-15.43,1.92-23.55
		c1.38-6.21,0.83-12.6,0.39-18.92c-0.09-1.25-0.58-2.57-1.2-3.68c-4.12-7.38-4.14-7.36,2.94-12.11c0.26-8.97,0.32-18.12-3.19-27.03
		c-0.86-2.19-1.35-3.9-3.44-5.49c-3.51-2.66-3.34-5.56,0.19-8.67c1.6-1.41,2.84-2.72,3.19-4.77c0.59-3.53,2.89-5.21,6.22-5.32
		c3.21-0.11,5.89,0.9,6.68,4.61c0.44,2.07,1.63,3.83,3.98,3.75c2.34-0.07,3.43-1.77,3.62-3.99c0.31-3.54,2.49-5.26,5.69-6.04
		c5.17-1.26,7.56-0.16,10.23,5.06c0.62,1.21,1.1,2.37,3,3.55c6.55-0.43,13.79-0.89,21.25-1.38c2.18-4.8,2.49-10.52,9.9-10.78
		c6.71-0.24,9.57,3.1,11.14,8.7c13.88,0.29,27-1.52,39.86-2.27c3.83-10.96,3.83-10.96,17.36-10.1c3.24,1.42,2.36,5.37,5.5,8.26
		c17.35-0.25,35.47-2.42,52.88-3.41c3.47-2.6,1.55-6.48,4.6-9.17c3.96-2.06,8.92-1.49,13.25-1.37c3.76,1.9,2.83,5.7,5.55,8.86
		c21.45-1.47,43.6-2.98,64.74-4.43c3.91-2.68,1.63-6.57,4.95-9.68c3.64-1.15,8.49-1.1,12.93-0.55c3.19,1.86,1.83,5.3,3.66,7.29
		c1.89,1.68,64.44-2.17,75.22-4.63c2.62-2.44-0.43-6.95,3.21-8.9c1.45-0.78,3.2-0.83,5.06,0.1c2.78,1.89-0.07,6.74,3.79,8.35
		c1.59,0.66,3.22,0.68,4.45-0.24c2.67-2.56,0.16-6.16,2.32-8.56c1.5-0.88,3.05-1.37,4.8-0.87c3.38,1.72,0.85,5.7,3.82,8.75
		c22.34-1.07,45.41-2.75,68.26-4.7c1.75-9.3,1.75-9.3,8.15-9.6c3.61,1.72-0.18,8.85,6.27,8.54c3.63-1.64,1.07-5.55,3.33-8.48
		c1.56-1.7,4.11-1.64,6.73-0.98c2.88,1.89,1.49,5.82,4.97,8.6c19.89-1.4,40.72-2.86,61.29-4.3c2.81-9.93,2.81-9.93,11.21-9.14
		c0.88,2.21,1.83,4.59,2.99,7.49c0.78-1.25,1.59-1.98,1.66-2.76c0.32-3.63,1.25-6.44,5.63-6.85c4.3-0.4,6.01,1.85,6.82,5.56
		c0.2,0.92,0.88,1.73,1.66,3.19c17.43-0.11,34.93-2.28,52.12-3.22c3.73-2.23,1.45-6.75,4.74-9.32c3.3-2.29,7.36,0.69,10.87-0.1
		c3.56-0.8,6.77-2.44,10.34-1.01c2.37,1.88,2.26,4.93,4.52,7.86c13.29,0.32,27.06-1.43,39.78-2.53c2.6-1.75,2.71-3.44,2.95-5.07
		c0.46-3.14,2.49-4.6,5.44-4.86c1.98-0.17,3.99,0.06,5.98-0.07c9.9-0.63,9.9-0.65,14.8,7.95c8.31-0.5,16.88-1.02,25.83-1.55
		c1.44-6.53,4.14-10.7,11.89-10.7c6.63,0,11.24,0.99,11.64,7.75c4.46,1.25,7.69,0.7,10.18,0.31c3.66-2.26,1.93-6.31,4.86-8.54
		c5.45-3.27,12.04-0.59,18.12-2.07c0.78-0.19,2.06,0.4,2.69,1.05c2.84,2.92,3.74,7.31,8.35,9.11c1.68,0.66,1.26,4.66-0.5,7.18
		c-2.71,3.9-4.65,10.78-4.44,14.42c0.27,4.66,0.81,9.31,0.86,13.96c0.05,4.6,2.26,6.7,6.44,6.65c1.54,2,2.19,4.51,1.24,5.92
		c-5.42,8.04-2.49,16.64,0,23.91c3.7,10.82,5.28,21.89,7.56,32.9c0.19,0.92,0.66,1.78,1.11,2.95c4.02-0.08,7.92-0.15,11.56-0.22
		c2.22,2.69,1.72,5.31,1.16,8.24c-3.81,1.97-8.51,0.57-13.14,3.28c-1.09,0.91-0.56,3.02-0.43,4.93c1.32,19.61,2.72,39.21,4.07,58.82
		c0.21,3.03,0.02,6.13,4.17,6.81c1.91,0.32,2.61,2.02,2.71,3.73c0.24,4.3,1.64,8.68,0.13,12.89c-3.64,10.11-5.13,20.55-4.82,31.55
		c-9.35,2.96-18.89,1.1-27.67,3.11c-1.23,8.58,12.48,214.51,15.34,231.88c2.9,1.35,6.09,1.66,9.44,1.18
		c11.97-1.71,11.98-1.7,16.3,9.75c11.54,0.55,23.27-0.7,34.62-2.24c0.71-1.02,1.27-1.52,1.43-2.11
		c2.64-10.06,2.63-10.06,13.27-10.52c1-0.04,1.99-0.26,2.98-0.29c7.89-0.22,8.46,0.2,11.32,7.99c0.22,0.6,0.71,1.1,1.1,1.68
		c1.94,1.77,4.35,1.2,6.63,1.14c2.31-0.06,4.62-0.28,6.48-0.4c2.28-1.46,2.72-3.32,3.19-5.33c1.42-5.99,2.76-7.22,8.48-7.79
		c5.54-0.55,11.11,0.55,16.73-0.86c2.86-0.71,6.12,1.41,6.69,4.79c0.8,4.74,3.38,7.01,7.78,6.89c2.04,8.85,2.04,8.85-3.06,12.38
		c-4.7,13.96-2.28,27.65-1.14,40.68c2.65,3.02,5.77,0.75,7.92,2.2c2.09,2.41,1.23,5.24,1.52,7.81c0.32,2.88-2.95,3.16-4.24,4.58
		c0.79,13.43,2.12,26.29,7.97,38.22c1.63,3.33,2.19,6.93,2.44,10.63c0.25,3.61,0.85,7.19,1.28,10.71
		c5.12,2.57,10.14-0.96,14.67,0.49c2.56,2.61,1.76,5.96,3.18,8.96c6.96,2.17,14.24-0.75,21.23-0.04c2.71,3.16,2,6.45,1.52,10.39
		c-7.78,0.81-15.63,1.63-23.56,2.45c-1.78,2.76-1,5.09,0.7,7.71c3.76,0.12,7.69,0.24,11.19,0.35c2.22,1.83,1.91,3.93,1.97,5.88
		c0.06,1.6-0.08,3.21-0.15,5.52c-23.36,3-46.64,2.87-70.45,5.85c0.58,18.96,2.29,37.43,3.78,55.47c3.57,3.22,7.68,0.37,11.51,2.58
		c3.53,9.52,1.73,18.12-5.28,26.13c-7.04,8.04-6.98,8.71-5.77,17.78c3.19,2.3,7.23-0.22,10.6,1.8c1.82,2.6,1.63,5.53,1.02,8.85
		c-1.97,0.8-4.04,1.65-5.84,2.38c-1.39,3.02,11.71,185.16,13.79,193.61c5.74,1.1,11.71-1.74,18.24,0.49
		c0.79,6.85,1.62,13.99,2.49,21.47c12.57,0.88,24.72-2.03,37.05-1.44c0.87,3.49,1.57,6.32,2.29,9.23c7.38,2.05,14.66-2,21.91,0.3
		c1.71,3.12,1.93,6.24,0.45,9.78c-7.58,2.26-15.87,0.23-23.26,3.08c-1.52,2.55-0.82,4.67,0.41,6.95c3.68,1.67,7.78-0.19,12.06,0.91
		c2.19,3.05,1.6,6.6,1.37,11.04c-23.08,2.96-46.3,2.98-69.82,5.69c-1.49,9.89,0.62,19.4,1.15,28.86c0.53,9.24,0.16,18.64,2.31,27.48
		c3.64,2.27,7.65,0.15,11.16,1.97c3.44,10.15,1.65,18.73-5.83,26.58c-6.68,7.01-6.72,8.67-5.09,17.88c3.16,1.45,6.59-0.15,10.18,0.9
		c2.44,2.61,1.84,5.78,1.11,9.1c-1.95,0.77-3.73,1.47-5.27,2.08c-1.87,2.82,10.77,183.15,13.43,193.46
		c5.65,1.37,11.72-0.9,18.39,0.92c0.72,6.75,1.46,13.57,2.24,20.87c6.21,1.95,12.39,0.29,18.56-0.08c5.95-0.35,11.9-0.57,17.55-0.83
		c2.94,2.71,1.44,6.77,4.17,9.75c6.67-0.27,13.59-0.55,20.34-0.82c2.63,3.23,2.37,6.39,1.6,9.63c-7.84,3.35-16.5,1.28-23.84,3.47
		c-1.37,3.34-0.94,5.47,0.66,7.52c3.82,1.56,7.86-1.13,12.11,0.57c2.08,2.99,1.57,6.55,1.31,11.05
		c-23.16,3.19-46.47,3.02-69.38,5.77c-1.3,6.85,0.91,45.46,3.23,57.03c3.18,1.93,7.1-1.23,10.85,1.27
		c3.72,9.97,1.52,18.83-5.94,26.95c-6.33,6.9-6.09,7.11-5.38,17.02c1.65,1.79,3.73,0.69,5.63,0.78c1.63,0.07,3.26,0.11,4.64,0.15
		c2.37,2.92,2.07,5.88,1.81,8.55c-1.17,3.03-4.35,1.77-6,3.48c-1.53,2.39,10.89,180.18,13.6,193.31c5.69,1.68,11.64-0.98,17.88-0.01
		c2.39,6.93,1.31,14.41,3.03,21.95c6.15,2.14,12.33-0.56,18.48-0.4c5.92,0.15,11.87-0.64,17.41-0.99c3.36,2.69,1.24,6.96,4.3,9.6
		c6.55,1.21,13.48-1.09,20.17-0.59c2.71,3.24,2.4,6.46,1.73,10.15c-7.82,2.49-16.37,0.99-23.96,3.26c-1.48,2.88-0.63,4.96,0.66,6.99
		c3.82,1.82,7.95-0.43,12.17,1.06c2.32,2.99,1.39,6.62,1.25,10.98c-23.09,2.93-46.31,3.29-70.26,5.57
		c0.18,19.27,2.24,37.94,3.61,56.01c3.87,2.72,7.42,0.71,11.17,2.06c3.45,9.04,2.95,17.72-4.28,25.3c-5.01,5.26-8.9,10.8-6.77,18.75
		c3.01,2.81,7.12-0.12,10.82,2.08c1.81,2.08,1.48,5.03,1.22,7.79c-1.31,2.61-4.55,1.47-6.66,5.05
		c4.21,62.84,8.55,127.15,13.4,191.66c6.77,1.14,12.73-1.41,19.28,0.45c0.81,6.89,1.65,14.01,2.52,21.39
		c12.43,1.62,24.26-1.84,35.52-1.01c2.48,1.2,2.06,3.09,2.45,4.61c0.4,1.59,0.51,3.29,2.41,5.03c6.32-0.3,13.22-0.62,19.87-0.94
		c2.96,3.19,2.6,6.37,1.75,10.32c-7.64,2.79-16.37,0.22-23.86,3.2c-1.27,2.79-0.68,4.92,0.63,6.99c4,2.24,8.51-1.16,12.97,1.23
		c0.96,3.31,1.39,6.79-0.01,11.16c-22.74,1.67-45.58,3.34-68.95,5.06c-2.12,9.82,0.51,19.29,0.74,28.76
		c0.22,9.27,1.3,18.52,1.97,27.28c3.77,3.15,7.79,0.57,11.52,2.46c3.4,9.63,2.25,18.62-5.39,26.25c-5.04,5.04-7.79,10.64-5.87,17.84
		c3.41,2.51,7.29-0.42,10.7,1.24c1.88,2.62,1.71,5.57,1.39,8.37c-1.35,2.58-4.56,1.28-6.87,4.39c4.41,63,8.89,127.02,13.36,190.99
		c6.38,3.45,12.94-0.46,19.58,1.83c0.79,6.75,1.59,13.59,2.43,20.77c6.32,2.61,12.54,0.15,18.7,0.01
		c5.93-0.13,11.86-0.56,17.46-0.84c2.62,2.75,1.55,6.23,3.53,9.12c6.83,1.92,14.17-1.12,21.33,0.49c2.07,3.07,1.84,6.22,1.09,9.67
		c-8.05,2.11-16.1,1.53-23.66,2.38c-1.72,3.14-1.33,5.54,0.61,7.97c3.86,0.12,7.81,0.24,11.96,0.37c2.27,3.26,1.41,6.87,1.4,11.21
		c-7.53,2.11-15.21,1.4-22.69,2.13c-7.95,0.78-15.96,1.03-23.91,1.9c-7.6,0.83-15.37-0.22-22.81,2.11
		c-1.3,6.37,1.18,48.2,3.31,56.23c1.41,1.32,3.09,0.94,4.74,0.83c1.63-0.1,3.27-0.14,5.38-0.22c3.65,8.8,3.53,16.8-2.49,24.3
		c-1.46,1.82-2.97,3.59-4.42,5.42c-4.39,5.54-4.71,7.07-3.25,15.57c3.1,1.69,6.59-0.28,9.98,1.07c2.22,2.71,1.75,5.94,1.52,8.76
		c-1.91,2.31-4.67,1.88-6.92,3.45c4.51,64.14,9.01,128.15,13.51,192.18c6.53,2.7,12.48-0.39,18.77,0.44
		c2.84,7.05,1.11,14.98,3.64,22.89c11.96-0.72,23.79-1.44,35.38-2.14c3.34,2.54,1.36,6.74,4,9.49c6.63,1.71,13.55-1.26,20.9-0.26
		c2.19,2.68,1.98,5.92,1.74,9.7c-7.73,3.2-16.43,0.51-24.39,3.8c-1.73,2.74-0.37,5.51,0.13,8.54c6.53,1.64,12.79-0.9,19.53-0.09
		c1.91,3.13,2,6.64,1.91,10.45c-3.24,2.5-6.98,2.1-10.55,2.37c-11.96,0.9-23.91,1.77-35.87,2.67c-1.3,0.1-2.69,0.04-4.34,2.07
		c3.05,44.88,5.88,90.58,9.7,136.81c16.08,0.79,31.18-2.13,46.54-2.17c1.75,3.36,2.01,6.48,1.37,9.32c-1.81,2.55-4.85,1.15-7.02,3.8
		c0.12,4.28,0.24,9.23,0.41,14.19c0.32,9.65,0.67,19.31,0.98,28.96c0.28,8.55-1.95,16.45-6.21,23.82c-1,1.73-1.79,3.57-2.73,5.33
		c-2.26,4.24-2.7,8.33,1.44,11.67c2.56,2.06,1.83,5.63,4.06,7.98c2.15,0.29,4.4,0.6,6.45,0.88c1.92,2.99,1.51,5.94,1.7,8.19
		c-2.12,3.21-5.54,1.83-8.38,4.65c13.46,139.62,27.09,280.01,40.81,420.74c7.54,2.69,14.81-1.36,22.52,0.42
		c2.31,5.72,1.64,12.07,2.15,18.24c0.55,6.64,0.99,13.28,1.47,19.92c0.46,6.31,0.95,12.61,1.35,18.92c0.4,6.25,0.69,12.5,1.06,19.22
		c-7.48,0.78-14.34,1.66-21.22,2.17c-21.86,1.63-43.73,3.07-65.58,4.68c-28.49,2.11-56.97,4.38-85.47,6.47
		c-21.91,1.61-43.83,3.03-65.74,4.56c-23.26,1.62-46.51,3.28-69.77,4.89c-23.57,1.63-47.14,3.21-70.7,4.84
		c-21.93,1.52-43.84,3.27-65.78,4.59c-27.92,1.67-55.75,4.49-83.74,5.37c-18.92,0.6-37.78,3.08-56.68,4.48
		c-30.89,2.28-61.79,4.37-92.68,6.53c-21.6,1.51-43.19,2.98-64.79,4.48c-38.86,2.7-77.72,5.36-116.58,8.11
		c-35.87,2.54-71.74,5.22-107.61,7.74c-30.24,2.13-60.49,4.06-90.73,6.18c-28.89,2.03-57.77,4.21-86.65,6.28
		c-13.96,1-27.92,1.94-41.88,2.87C459.22,3755.84,456.87,3756.31,453.4,3754.57z M687.4,98.47c0.7,17.11,3.25,32.7,5.13,48.66
		c24.43-1.18,47.81-2.97,71.01-5c1.34-14.27-0.57-40.67-3.55-48.64C736.39,95.11,712.59,96.74,687.4,98.47z M792.49,139.65
		c19.22,0.39,60.19-3.01,67.61-5.61c-1.4-15.25-0.55-30.79-2.94-47.07c-22.69,0.84-44.92,2.71-68.02,4.66
		C790.28,108.06,791.36,123.52,792.49,139.65z M1010.14,470.96c1.12-9.38-0.42-17.61-0.95-25.87c-1.5-23.24-2.97-46.48-4.7-69.71
		c-0.71-9.59-1.13-19.27-4.09-28.57c-2.72-8.53-6.35-16.53-12.56-24.08c-1.31,2.35-2.32,3.69-2.87,5.19
		c-4.97,13.68-6.19,27.8-5.12,42.25c1.87,25.22,3.51,50.45,5.3,75.67c0.61,8.56,1.38,17.11,2.18,26.86
		C995.06,472.08,1002.21,471.9,1010.14,470.96z M667.42,148.58c-0.37-8.54-0.69-16.43-0.45-24.33c0.24-7.79,0.57-15.71-1.73-24.03
		c-7.97,0.53-15.21,1.01-22.44,1.5c-6.95,0.47-13.92,0.84-20.86,1.48c-7.11,0.65-14.49-0.4-21.3,2.34
		c-0.57,16.42,4.77,31.31,5.84,47.94C627.05,151.57,647.1,151.32,667.42,148.58z M891.41,133.38c19.75-1.32,38.87-2.3,58.43-4.27
		c-1.81-16.6,1.64-32.56-2.07-48.73c-20.6,1.37-40.71,2.4-61.23,4.45C887.03,101.49,889.76,117.09,891.41,133.38z M638.25,348.82
		c-2.3,0.23-2.98,1.45-3.5,2.6c-5.49,12-8.3,24.59-7.42,37.8c2.08,31.24,4.34,62.46,6.49,93.69c0.32,4.58,0.56,9.16,2.16,14
		c6.83-0.5,13.41,0.92,20.01-2.28c-0.24-6.02-0.33-11.66-0.72-17.27c-1.7-24.91-3.47-49.82-5.25-74.73
		c-0.78-10.96-1.41-21.94-2.55-32.86C646.64,361.74,642.97,354.82,638.25,348.82z M761.23,83.09c-0.3-6.17-0.81-11.81-0.77-17.46
		c0.04-6.04-5.73-9.37-5.7-15.38c-22.96,1.65-45.1,3.24-66.5,4.78c-5.28,11.76-4.1,22.71-1.76,33.69
		C703.98,88.64,750.8,85.15,761.23,83.09z M577.16,154.43c0.16-1.19,0.62-2.51,0.46-3.77c-0.81-6.64-0.21-13.19,0.52-19.82
		c0.86-7.86,0.08-15.75-0.98-23.37c-9.17-1.19-46.31,1.47-53.08,3.71c-1.14,16.04,6.23,30.82,6.74,46.46
		C539.82,158.54,569.15,156.45,577.16,154.43z M1031.26,74.58c-9.46,0.55-18.12,0.58-26.64,1.7c-8.41,1.1-17.23-0.56-25.24,2.87
		c0.16,12.53,4.46,40.98,7.24,47.79c14.63-1.6,29.56-1.34,44.65-3.91C1030.43,106.98,1033.61,91.45,1031.26,74.58z M660.05,57.1
		c-20.68,1.41-41.13,2.23-60.95,4.4c-3.8,11.73-2.69,22.42-0.43,33.81c22.51-1.5,44.61-2.5,66.7-4.86
		c1.4-5.64,0.15-10.57,0.23-15.47C665.71,68.42,661.5,63.47,660.05,57.1z M792.45,47.58c-7.28,11.59-5.53,22.72-3.43,33.89
		c22.8,0.17,60.28-3.06,67.5-5.79c0.6-11.19,0.56-22.25-7-32.02C830.52,44.97,811.34,46.29,792.45,47.58z M885.11,75.54
		c21.92-2.08,42.66-2.39,63.5-5.08c-0.08-11.8,0.1-22.62-5.83-32.39c-9.39-0.83-49.47,2.12-56.41,4.25
		c1.18,5.49-4.35,9.6-2.96,15.65C884.64,63.36,884.54,69.06,885.11,75.54z M572.09,63.32c-16.76,0.63-33.82,1.86-50.61,3.52
		c-2.5,13.01-2.41,23.16,0.31,33.86c18.49-1.19,37.16-1.87,56.12-4.34C578.05,84.64,578.31,73.84,572.09,63.32z M977.74,34.67
		c0.17,6.67-3.82,11.46-2.52,17.4c1.18,5.39,0.04,11.19,2.67,16.83c18.07-1.26,35.9-2.5,54.65-3.8c-0.7-11.86-0.12-23.01-5.83-33.78
		C1010.71,32.41,994.85,33.5,977.74,34.67z M1100.97,118.08c-0.85-8.37,0.04-15.88,0.86-23.44c0.86-7.85,1.23-15.81-0.28-23.57
		c-8.36-1.32-29.74-0.14-38.9,2.11c-1.42,4.17-0.54,8.5,0.15,12.67c1.84,11.1,4.05,22.15,6.18,33.2c0.1,0.53,0.86,0.94,1.65,1.76
		C1080.13,120.1,1090.06,120.34,1100.97,118.08z M1286.33,621.96c1.87-2.19,1.67-3.9,1.55-5.5c-0.61-8.65,0.54-17.06,2.13-25.6
		c1.87-10.03,1.27-20.32,0.17-31.34c-11.24,0.56-21.68,0.66-32.24,2.69c-0.17,1.74-0.46,3.02-0.4,4.28
		c0.91,19.24,8.02,37.25,11.25,56.77C1274.85,622.81,1280.95,622.36,1286.33,621.96z M500.13,112.41
		c-6.53-1.22-12.72,0.11-18.89,0.72c-6.4,0.63-13.22-1.17-19.24,2.66c0.21,7.71,0.61,15.06,2.88,21.98
		c2.5,7.62,4.22,15.32,5.04,23.26c0.05,0.53,0.8,1,1.49,1.79c8.96-0.64,18.13-1.3,28.05-2.01
		C498.45,144.35,502.96,128.73,500.13,112.41z M1253.25,549.16c15.05,0.89,33.38-0.9,39.5-3.74c-0.61-13.62-0.36-27.46-6.77-41.24
		c-10.42,0.66-21.2,1.35-31.84,2.03C1249.59,520.83,1251.91,534.78,1253.25,549.16z M1102.73,60.02
		c0.97-12.01-0.22-22.86-4.64-34.06c-12.94,1.86-25.86,1.2-38.42,3.55c-2.81,16.6-2.67,23.29,0.82,33.72
		C1074.36,62.18,1088.4,61.11,1102.73,60.02z M377.45,611.03c-0.92-14.83-0.06-29.02-6.39-42.32c-4.59-1.14-9.19-0.26-13.78,0.37
		c-4.82,0.66-9.9-0.41-14.92,1.93c1.01,7.16-3.4,13.56-1.9,20.67c1.49,7.06,0.36,14.49,2.67,22.12
		C354.63,613.21,365.79,612.61,377.45,611.03z M500.77,101.91c1.85-13.88,0.58-22.64-4.73-33.52c-12.4,1.24-25.04,1.11-37.34,3.19
		c-3.03,11.2-1.35,21.88-0.01,33.25C473.46,104.78,487.22,103.5,500.77,101.91z M346.62,625.95c1.33,9.49,2.12,18.09,3.86,26.5
		c1.13,5.46,4.11,10.53,5.42,15.97c1.37,5.71,1.73,11.66,2.55,17.63c4.99,0.68,9.5,0.78,15.11-1.17
		c-3.28-11.65,0.22-22.86,1.89-34.26c1.1-7.54-0.2-21.1-1.99-26.53C364.91,623.58,356.4,624.14,346.62,625.95z M422.31,565.14
		c-8.37,0.08-16.17-0.99-23.47,2.08c-1.96,24.98-1.74,32.6,1.31,41.96c8.33,0.35,16.74,0.57,25.05-2.46
		C424.22,592.62,423.28,579.13,422.31,565.14z M1138.25,114.51c2.63,1.94,5.03,1.38,7.28,1.23c2.58-0.17,5.37,0.43,8.34-1.94
		c-1.74-15.46,5.69-31.16,1.35-47.46c-8.39-0.64-16.17,0.32-24.49,1.69c0.09,3.39-0.1,6.34,0.28,9.21
		c0.92,6.89,1.57,13.9,4.64,20.28C1138.31,103.07,1136.69,109.31,1138.25,114.51z M1127.62,24.15c-3.2,11.79-1.95,22.45-0.19,33.62
		c10.4,0.17,20.15,0.05,30.07-2.45c0.14-11.32,0.34-22.13-5.17-32.74C1144.4,23.09,1136.22,23.61,1127.62,24.15z M811.49,315.96
		c-3.22,2.41-4.28,5.9-4.76,9.5c-0.66,4.94-1.49,9.95-1.28,14.9c0.57,13.63,1.61,27.25,2.56,40.87c0.13,1.91-0.06,4.04,2.09,6.06
		c4.41,0.34,9.18,0.32,13.73-2.27c-0.82-12.97-1.53-25.6-2.46-38.2c-0.46-6.3-1.15-12.65-3.17-18.66
		C816.75,323.83,815.83,319.05,811.49,315.96z M414.66,107.6c9.04,0.5,17.52,0.18,25.8-1.71c1.56-11.91-0.12-23.36-4.94-33.18
		c-6.65,0.43-13.5,0.87-20.16,1.31C412.01,88.13,411.96,90.19,414.66,107.6z M437.84,164c-1.1-9.11,0.74-17.87,1.95-26.74
		c0.92-6.75,1.51-13.8-0.97-20.72c-6.99-0.98-13.39,0.26-20.4,1.39c-0.45,8.08,0.26,15.8,2.74,22.84c2.67,7.59,4.62,15.15,5.4,23.1
		c0.05,0.49,0.88,0.9,1.58,1.58C430.74,165.94,433.65,166.1,437.84,164z M1318.2,501.77c-3.43,15.37-2.31,29.24,0.12,43.39
		c6.89,0.53,12.94-0.16,19.41-1.67c-0.39-14.61-0.41-28.6-7.14-42.26C1326.71,501.41,1322.53,501.59,1318.2,501.77z M403.23,621.67
		c0.33,10.74,1.57,20.11,3.9,29.74c7.24,0.48,13.95,0.76,21.61-1.88c-2.45-9.74-0.31-19.69-3.52-29.26
		C417.72,619.28,411.03,621.06,403.23,621.67z M1178.26,21.64c-3.68,11.13-2.26,21.96,0.04,32.88c5.27,0.43,9.76,0.11,14-1.37
		c1.17-14.45-0.15-22.17-5.59-32.87c-1.84,0.14-3.81,0.2-5.75,0.46C1180.03,20.86,1179.15,21.33,1178.26,21.64z M313.5,572.9
		c-4.92,14.74-3.1,28.56-0.87,42.51c4.19,0.53,7.67,0.18,11.74-1.25c-0.7-14.18-0.46-28.23-6.15-41.31
		C316.34,571.82,314.83,572.04,313.5,572.9z M1322.25,558.53c2.13,13.28,1.28,26.7,9.39,39.06c5.16-14.01,3.57-27.22,3.52-40.28
		C1328.5,556.44,1328.5,556.44,1322.25,558.53z M772.81,93.53c0.69,15.91,2.14,31.37,4.03,46.72c5.87,0.03,6.15,0.02,5.91-4.13
		c-0.73-12.62-1.68-25.24-2.61-37.85c-0.14-1.92,0.23-4.06-1.76-5.6c-0.85-0.07-1.84-0.26-2.82-0.2
		C774.95,92.52,774.35,92.92,772.81,93.53z M399.54,108c0.05-10.77,0.44-21.78-4.97-31.92c-0.96,0.06-1.65-0.04-2.23,0.17
		c-0.58,0.21-1.38,0.64-1.5,1.12c-2.57,10.62-2.19,21.19-0.07,31.43C394.19,110.25,396.63,109.71,399.54,108z M1181.05,65.31
		c1.81,9.35,0.35,19.73,7.28,29.04c3.2-10.47,3.62-19.48,1.65-30.29C1187.13,63.35,1184.29,62.86,1181.05,65.31z M872.75,133.44
		c2.93,0.36,3.46-1.13,3.16-2.95c-1.3-7.96-0.49-15.97-0.69-23.95c-0.17-6.88-0.43-13.77-1.76-20.29c-3.11-0.76-4.87-0.04-4.64,2.63
		C870.05,103.78,871.43,118.66,872.75,133.44z M778.58,81.2c0.26-6.99-0.1-13.88-1.11-20.73c-0.3-2.04-1.06-4.06-3.58-3.82
		c-2.69,0.26-3.94,2.05-3.76,4.8c0.43,6.56-0.03,13.2,1.76,19.62c0.15,0.56,0.77,0.99,1.03,1.3
		C774.79,82.93,776.35,83.05,778.58,81.2z M873.78,74.81c-0.42-7.08-0.77-14.34-1.33-21.59c-0.13-1.75-1.35-3.12-3.35-2.82
		c-1.72,0.26-3.3,1.3-3.21,3.21c0.33,6.62,0.55,13.27,1.48,19.81C867.91,77.25,870.78,76.7,873.78,74.81z M962.52,70.49
		c3.81-7.34,0.49-14.07,0.77-20.57c0.09-1.99,0.63-4.93-2.93-5.17C958.64,52.33,959.32,61.7,962.52,70.49z M319.74,625.51
		c-4.26,6.15-1.84,10.64-1.42,14.96c0.42,4.31,0.7,8.73,3.49,13.63C322.06,644.41,323.4,635.81,319.74,625.51z M397.6,136.16
		c-0.19-5.56,2.39-11.37-1.78-16.57C394.34,125.3,395.15,130.8,397.6,136.16z M807.2,259.19c1.49-1.71,1.94-3.18,0.85-4.71
		c-0.25-0.35-1.36-0.6-1.59-0.39C804.83,255.62,804.37,257.25,807.2,259.19z M1044.59,48.16c0.07-2.22,0.14-4.44,0.23-7.42
		C1043.26,43.49,1043.72,45.65,1044.59,48.16z"/>
</g>
</svg>
