<?xml version="1.0" encoding="utf-8"?>
<!-- Generator: Adobe Illustrator 23.1.0, SVG Export Plug-In . SVG Version: 6.00 Build 0)  -->
<svg version="1.1" id="Layer_1" xmlns="http://www.w3.org/2000/svg" xmlns:xlink="http://www.w3.org/1999/xlink" x="0px" y="0px"
	 width="89.57" height="509" viewBox="0 0 89.57 509" style="enable-background:new 0 0 89.57 509;" xml:space="preserve">
<style type="text/css">
	.st0{fill-rule:evenodd;clip-rule:evenodd;stroke:#000000;stroke-width:2.1474;}
</style>
<path id="path3959" class="st0" d="M43,1.07v40.46h-1.68H37.9l-0.34,17.38h-8.39l-0.34,3.15l2.82,0.6L32,71.07
	c-0.51,5.38,1.12,6.41,2.15,8.72l-0.27,11.54l-7.18,19.59l8.39,0.67H16.1v4.5l-1.68-0.07v0.2L6.5,116.5l0.87,2.62h2.15l3.09,20.27
	l1.88,0.27l0.07,12.21l-8.05,0.27l0.87,2.62h2.15l3.09,20.27l2.01,0.27v8.72l-8.12,0.27l0.87,2.62h2.15l3.09,20.27l2.15,0.27v10.47
	l-8.25,0.27l0.87,2.68h2.15l3.09,20.27l2.21,0.27l0.07,8.19L6.5,249.9l0.87,2.62h2.15l3.09,20.27l2.35,0.34v9.93l-8.46,0.27
	l0.87,2.68h2.15l3.09,20.27l2.42,0.34l0.07,8.99l-8.59,0.34l0.87,2.62h2.15l3.09,20.27l2.55,0.34l0.07,11.68l-8.72,0.34l0.87,2.62
	h2.15l3.09,20.27l2.68,0.34v4.97L1.2,507.93H32h25.57h30.8L74.28,379.35v-4.97l2.68-0.34l3.09-20.27h2.15l0.87-2.62l-8.72-0.34
	l0.07-11.68l2.55-0.34l3.09-20.27h2.15l0.87-2.62l-8.59-0.34l0.07-8.99l2.42-0.34l3.09-20.27h2.15l0.87-2.68l-8.46-0.27v-9.93
	l2.35-0.34l3.09-20.27h2.15l0.87-2.62l-8.39-0.34l0.07-8.19l2.21-0.27l3.09-20.27h2.15l0.87-2.68l-8.25-0.27v-10.47l2.15-0.27
	l3.09-20.27h2.15l0.87-2.62l-8.12-0.27v-8.72l2.01-0.27l3.09-20.27h2.15l0.87-2.62l-8.05-0.27l0.07-12.21l1.88-0.27l3.09-20.27h2.15
	l0.87-2.62l-7.92-0.27v-0.2l-1.68,0.07v-4.5H54.48l8.39-0.67l-7.18-19.59l-0.27-11.54c1.02-2.31,2.66-3.34,2.15-8.72l0.34-8.39
	l2.82-0.6l-0.34-3.15H52l-0.34-17.38h-3.42h-2.15V1.07L43,1.07L43,1.07z"/>
</svg>
