<?xml version="1.0" encoding="utf-8"?>
<!-- Generator: Adobe Illustrator 24.0.2, SVG Export Plug-In . SVG Version: 6.00 Build 0)  -->
<svg version="1.1" id="Layer_1" xmlns="http://www.w3.org/2000/svg" xmlns:xlink="http://www.w3.org/1999/xlink" x="0px" y="0px"
	 width="747.97" height="1226.97" viewBox="0 0 747.97 1226.97" style="enable-background:new 0 0 747.97 1226.97;" xml:space="preserve">
<path d="M475.3,800.11c-1.94,4,0.23,8.54-1.69,12.54c4.8,6.02-0.94,13.94,3.6,20.06c0.49,0.67,0.29,1.95,0.2,2.94
	c-1.26,13.96,2.39,27.68,2.02,41.59c4.2,9.69,1.19,20.24,3.64,30.3c1.43,5.87,1.47,12.46,2.73,18.43
	c1.19,5.62,1.36,11.31,2.61,16.88c2.56,11.44,4.46,23.03,7.1,34.46c1.76,7.61,3.27,15.26,5.06,22.86
	c2.75,11.68,5.84,23.29,8.81,34.92c2.78,10.87,5.62,21.72,8.37,32.59c2.25,8.88,5.11,17.59,7.85,26.31
	c3.12,9.95,5.76,20.05,9.21,29.91c2.45,6.99,5.65,13.64,8.27,20.53c2.74,7.21,6.23,14.02,9.75,21.33c5.11-0.66,9.9,2.31,15.2,2.14
	c1.48-0.05,2.91,0.1,4.12-1.19c3.11-3.35,7.72-4.1,11.55-6.23c1.46-0.81,4.22-0.13,6.04,0.66c8.95,3.93,15.87,9.6,17.8,20.05
	c1.03,5.59,1.97,11.43,1.05,16.69c-1.06,6.1-2.11,12.99-7.46,17.48c-1.57,1.32-4.06,0.8-6.13,1.4c-11.12,3.24-22.82,3.33-34.07,5.95
	c-6.75-2.11-13.02,1.98-19.84,1.43c-6.14-0.5-12.02-1.18-17.58-3.76c-1.24-0.58-2.63-0.21-2.82-0.31
	c-4.79-7.29-4.59-14.92-6.07-22.09c-2.38-11.53-4.45-23.16-8.32-34.27c-2.38-6.83-5.22-13.54-8.26-20.17
	c-3.31-7.22-5.9-14.88-9.79-21.81c-6.97-12.46-14.06-24.83-22.43-36.53c-7.79-10.9-15.77-21.67-24.06-32.15
	c-9.85-12.48-18.84-25.51-27.4-38.84c-8.89-13.84-15.92-28.67-20.57-44.52c-2.15-7.32-2.83-14.83-2.43-22.47
	c0.24-4.65-0.25-9.35,0.14-13.99c0.29-3.48-1.11-5.96-3.39-8.04c-10.68-9.72-19.27-21.19-27.52-32.9
	c-9.14-12.98-16.8-26.9-24.96-40.51c-4-6.68-7.59-13.62-11.61-20.29c-3.13-5.21-5.84-10.91-8.7-16.38
	c-4.68-8.96-8.98-18.11-13.6-27.66c-2.79,3.24-3.29,6.83-4.26,10.13c-3.72,12.62-7.43,25.25-10.84,37.96
	c-3.58,13.36-6.8,26.81-10.21,40.21c-2.11,8.29-3.32,16.8-5.32,25.06c-1.68,6.93-3.35,13.9-4.99,20.85
	c-2.38,10.13-4.21,20.4-6.79,30.48c-1.9,7.42-3.92,14.83-5.06,22.38c-1.12,7.43-3.85,14.42-5.1,21.84
	c-1.17,6.94-3.29,13.79-4.79,20.72c-2.64,12.25-5.28,24.48-7.17,36.92c-3.07,20.18-4.52,40.38-3.63,60.7
	c0.47,10.6,1.64,21.22,3.46,31.76c1.03,5.95,1.93,11.95,3.6,17.72c1.96,6.74,6.11,12.6,8.68,19.13c3.29,8.35,7.12,16.46,7.24,25.81
	c0.06,4.98-2.36,8.25-5.79,10.53c-8.61,5.73-17.97,9.12-28.61,6.34c-1.25-0.33-2.65-0.09-3.99-0.09c-15.5,0-31-0.09-46.49,0.06
	c-3.54,0.03-6.23-1.61-8.92-3.32c-3.51-2.23-2.75-5.98-2.06-9.05c1.9-8.35,4.2-16.73,7.15-24.65c2.8-7.53,6.03-15.09,9.68-22.36
	c3.5-6.96,5.04-14.24,6.21-21.97c1.34-8.91-0.5-17.45-0.53-26.15c-0.02-6.62-1.64-13.29-2.97-19.85c-2.05-10.06-4-20.13-5.89-30.22
	c-1.44-7.67-2.84-15.36-4.45-23c-1.13-5.37-1.53-11.01-2.47-16.49c-1.21-7.06-1.54-14.27-3.65-21.17c-0.1-0.32-0.33-0.65-0.28-0.94
	c1.05-7.52-2.42-14.61-2.1-22.07c0.13-3.11,0.36-6.23-1.56-9.11c-0.64-0.96-0.39-2.58-0.39-3.9c-0.02-13.16-0.27-26.34,0.09-39.49
	c0.19-6.88,2.52-13.48,5.68-19.57c2.86-5.51,2.39-11.07,1.69-16.83c-1.26-10.38-4.04-20.47-5.62-30.8
	c-0.96-6.27-1.98-12.57-3.19-18.82c-1.02-5.29-1.8-10.62-2.65-15.94c-1.18-7.41-2.33-14.83-3.5-22.24c-0.13-0.81-0.47-1.6-0.48-2.4
	c-0.11-12.61-2.06-25.21-0.93-37.79c1.16-12.87,2.13-25.77,4.6-38.53c2.16-11.2,3.81-22.53,6.39-33.65
	c1.25-5.37,1.31-10.97,3.53-16.19c0.85-1.99,1.04-4.92,0.21-6.85c-2.38-5.45-3.56-11.39-6.65-17.37
	c-5.51,6.43-10.98,11.94-15.96,17.93c-6.19,7.45-11.58,15.45-16.1,23.92c-6.25,11.69-10.36,24.21-12.13,37.44
	c-2.06,15.48-2.53,31.05-1.81,46.58c0.43,9.26,1.69,18.54,3.63,27.71c1.92,9.11,1.04,18.49,1.24,27.77
	c0.22,10.11-2.15,19.85-3.56,29.74c-0.58,4.08-2.26,7.79-2.73,11.9c-0.29,2.54-2.26,5.06-3.31,7.71
	c-4.15,10.46-10.15,19.8-17.21,28.57c-5.71,7.09-12.36,13.25-19.49,18.64c-5.03,3.8-10.58,7.23-16.19,10.23
	c-2.56,1.37-5.82,1.74-8.66,3.06c-6.72,3.13-13.9,5.61-20.99,7.02c-5.32,1.05-10.83,3.06-16.46,2.41c-3.04-0.36-5.76,1.34-8.92,0.91
	c2.46-3.13,6.3-3.21,9.33-4.84c6.29-3.39,13.02-5.91,18.52-10.77c7.02-6.2,11.52-13.89,13.55-22.84
	c2.91-12.85,5.12-25.94,3.92-39.11c-1.08-11.83-2.89-23.64-6.22-35.15c-5.03-17.42-11.55-34.24-20.25-50.12
	c-4.45-8.13-8.42-16.35-11.76-25.01c-1.44-3.73-2.24-7.59-3.36-11.3c-3.18-10.62-3.4-21.71-3.2-32.74
	c0.11-6.27,1.25-12.48,1.06-18.8c-0.08-2.66,1.57-5.12,2.15-7.84c2.94-13.73,7.94-26.74,14.89-39.04
	c6.99-12.36,15.61-23.34,25.5-33.5c12.26-12.59,26.42-22.54,41.25-31.76c13.61-8.46,27.99-15.44,42.7-21.53
	c11.46-4.74,23.52-8.07,35.8-10.66c8.85-1.87,17.7-2.92,26.64-3.79c2.93-0.28,5.18-3.09,8.42-1.78c1.09-5.3,2.44-9.92,2.65-14.93
	c0.46-11.18-3.35-20.86-9.3-29.89c-4.65-7.06-9.86-13.67-15.43-20.08c-3.72-4.28-7.02-9.02-10.82-13.34
	c-4.43-5.04-8.62-10.32-12.71-15.64c-9.71-12.63-17.96-26.04-21.92-41.74c-0.92-3.66-1.65-7.26-2.1-11.03
	c-0.92-7.67,3.23-12.76,7.3-18.28c6.48-8.78,14.76-15.69,23.04-22.5c7.29-6,15.33-11.09,23.14-16.44
	c15.63-10.7,30.51-22.48,46.2-33.06c6.61-4.45,8.07-10.41,8.35-17.12c0.31-7.65,2.81-14.75,4.65-21.99
	c3.27-12.91,7.84-25.42,12.16-38.03c5.17-15.05,5.34-30.5-1.72-45.47c-4.72-10.01-7.96-20.61-10.78-31.28
	c-3.1-11.72-5.4-23.59-5.24-35.84c0.13-9.75,1.95-19.01,5.81-28c5.02-11.71,12.85-20.78,23.21-28.17
	c9.03-6.45,18.9-10.95,29.14-14.81c3.01-1.14,6.4-1.94,9.49-2.09c4.37-0.21,8.04-3.22,12.47-2.42c1.88,0.34,2.32-1.36,2.6-2.41
	c1.79-6.68,6.7-11.94,8.39-18.64c0.4-1.6,2.08-1.18,3.06-1.89c4.37-3.16,6.85-7.95,10.73-11.5c4.54-4.15,8.8-8.62,13.09-13.05
	c1.48-1.52,3.31-2.71,4.17-4.86c0.77-1.92,2.57-1.73,3.82-1.56c3.7,3.7,2.91,8.87,5.23,12.57c2.71,4.33,3.26,9.31,5.38,13.79
	c2.05,4.34,3.26,9.21,4.05,13.98c0.82,4.98,0.53,10.14,2.01,15.74c9.27-1.61,18.47,0.3,27.69,2.24
	c9.62-18.2,23.58-31.63,40.45-43.25c0.09,1.58,0.49,2.87,0.18,3.96c-1.11,3.93,0.48,7.6,1.25,11.21c0.84,3.97,1.27,8.02,2.23,11.99
	c1.53,6.32,2.55,12.8,4.61,18.98c3.1,9.27,3.35,18.99,5.15,28.44c1.41,7.39-0.94,13.8-2.82,20.49c-0.63,2.23-1.09,3.87,1.04,6.33
	c2.99,3.45,4.58,8.08,4.69,13.12c0.25,11.43-0.38,22.73-3.11,33.85c-1.38,5.63-2.28,11.33-3.07,17.06c-0.21,1.55-1.18,3-1.81,4.53
	c11.1,6.27,23.04,10.58,34.95,15.36c-0.25,6-1.92,11.55-4.26,16.63c-2.6,5.66-6,10.96-10.53,15.57c-4.06,4.12-8.35,7.68-13.44,10.34
	c-9.71,5.09-20.02,4.49-30.42,3.19c-4.68-0.58-9.56,0.43-14.54-3.01c0.78,11.17,0.23,21.23,0.68,31.34
	c0.33,7.5,3.88,10.01,9.31,12.41c12.11,5.34,24.03,11.19,36.38,15.9c9.06,3.46,17.59,7.63,25.89,12.57
	c5.61,3.34,7.71,8.73,9.82,14.2c2.87,7.45,3.88,15.45,5.59,23.18c1.1,4.99,2.43,10.2,2.48,15.48c0.03,3.09,1.27,5.61,3.54,7.8
	c8.05,7.79,16.48,15.22,23.56,23.94c6.63,8.17,10.91,17.38,10.87,28.17c-0.03,7.24,0.48,14.48-1.92,21.57
	c-2.59,7.65-5.79,14.91-11.08,21.08c-1.36,1.58-3.46,2.16-5.28,3.04c-3.95,1.92-4.19,2.25-2.25,6c0.5,0.97,0.51,1.89,0.54,2.86
	c0.16,4.91-0.79,9.96,1.96,14.51c-1.23,7.85,2.59,15.25,2.08,23.05c-0.17,2.62-0.31,5.29,1.44,7.63c0.96,1.28,0.5,2.91,0.51,4.38
	c0.03,9.67,0.41,19.35-0.11,28.99c-0.43,7.99-1.52,16-3.09,23.85c-1.41,7.04-2.16,14.18-3.7,21.2c-1.85,8.44-3.48,16.96-4.46,25.53
	c-0.84,7.33-3.12,14.34-3.76,21.71c-0.54,6.14-2.24,12.17-3.33,18.27c-1.23,6.91-2.4,13.83-3.52,20.76
	c-0.86,5.32,1.47,9.86,3.59,14.47c3.12,6.8,4.61,13.91,4.46,21.45c-0.13,6.57,1.29,12.98,3.39,19.2c0.55,1.62,1.21,3.78,0,4.44
	c-1.23,0.67-2.43,2.5-4.87,1.18c-2.92-1.59-3.72,0.94-3.57,3.4c0.45,7.22-1.57,13.95-4.03,20.57
	c-4.37,11.74-12.24,20.48-23.33,26.16c-2.08,1.06-4.83,1.12-6.85-1.21c-0.78-0.9-1.4-2.37-3.08-2.08c0.85-6.72,3.68-12.77,6.2-18.97
	c3.63-8.93,5.24-18.44,7.15-27.87c1.77-8.76,1.42-17.63,0.55-26.26c-0.66-6.54-1.42-13.15-1.45-19.66
	c-0.05-9.47-1.78-18.83-1.2-28.3c0.02-0.33-0.02-0.67-0.04-1c-0.89-10.64-2.77-21.2-2.89-31.89c-0.06-5.3-0.76-10.57-1.3-15.78
	c-0.88-8.47-2.1-17-2.5-25.44c-0.81-17.44-1.05-35.01,3.63-52.16c0.38-1.38,0.04-2.84-0.53-4.34c-2.72-7.14-5.05-14.49-7.04-21.81
	c-2.79-10.3-6.1-20.43-8.82-30.52c-0.95-0.27-1.14,0.24-1.45,0.61c-2.29,2.71-1.72,6.23-2.66,9.32c-1.94,6.39-3.89,12.75-6.83,18.78
	c-0.91,1.86-1.73,3.87-1.48,6.13c1.02,9.45,2.27,18.9,2.8,28.38c0.25,4.46,0.89,8.89,1.44,13.26c0.43,3.45-0.19,7.08,0.88,10.29
	c3.01,9.04,1.41,18.58,3.63,27.74c1.26,5.2-0.16,10.82,1.05,16.28c1.07,4.79,0.41,9.83,0.84,14.77c0.91,10.66,1.62,21.38,2.16,32.08
	c0.54,10.88,1.17,21.74,2.01,32.61c0.69,8.9-0.14,17.88,1.06,26.8c0.55,4.06,0.77,8.29,0.79,12.29c0.04,11.77,1.61,23.4,2.24,35.1
	c0.24,4.49,0.11,9,0.01,13.5C473.36,796.44,473.72,798.45,475.3,800.11z M307.18,463.58c-1.43-1.87-2.59-2.91-4.43-3.89
	c-4.48-2.37-9.04-4.79-12.48-9.03c-7.12-8.75-8.78-19.07-9.78-29.7c-0.14-1.46,0.29-2.91,0.54-4.36c0.68-4.03,0.63-7.92-1.12-12.03
	c-2.28-5.36-5.4-10.35-6.89-16.14c-0.79-3.06-1.71-6.82-5.77-8.5c-20.98,17.81-46.68,27.1-72.13,37.32
	c3.21,6.35,6.71,11.81,9.49,17.7c6.36,13.5,8.59,27.93,10.86,42.41c0.81,5.17,0.77,10.79,2.43,15.43c2.26,6.35,1.21,12.7,2.25,18.97
	c0.73,4.4,2.16,6.47,5.91,8.3c6.27,3.06,13.01,5.48,17.91,10.85c1.48,1.62,3.38,1.25,5.09,0.71c1.54-0.48,3-1.32,4.37-2.19
	c6.58-4.21,13.13-8.48,19.68-12.76c8.32-5.43,15.84-12.02,22.08-19.56c6.58-7.95,10.19-17.64,10.33-28.31
	C305.54,467.08,304.29,464.71,307.18,463.58z"/>
</svg>
