<?xml version="1.0" encoding="utf-8"?>
<!-- Generator: Adobe Illustrator 24.0.2, SVG Export Plug-In . SVG Version: 6.00 Build 0)  -->
<svg version="1.1" id="Layer_1" xmlns="http://www.w3.org/2000/svg" xmlns:xlink="http://www.w3.org/1999/xlink" x="0px" y="0px"
	 width="937.38" height="1221.39" viewBox="0 0 937.38 1221.39" style="enable-background:new 0 0 937.38 1221.39;" xml:space="preserve">
<path d="M636.95,239.82c1.64,0.58,3.06,0.75,4.21-0.58c4.01-4.63,9.83-6.62,14.72-9.96c7.97-5.43,16.76-9.17,26.1-11.84
	c5.61-1.6,11.16-0.84,16.73-1.22c12.99-0.9,23.54,4.33,33.14,12.57c19.61,16.85,33.51,37.71,43.91,61.16
	c10.01,22.56,16.11,46.31,21.95,70.16c2.51,10.26,5.27,20.44,8.52,30.52c1.68,5.22,2.81,10.69,4.44,15.97
	c5.73,18.6,11.28,37.27,18.95,55.2c2.69,6.28,5.89,12.43,8.35,18.68c3.47,8.83,8.35,16.77,12.91,24.86
	c7.04,12.5,15.31,24.29,24.13,35.65c7.02,9.04,13.98,18.12,22.16,26.18c12.11,11.93,23.73,24.37,36.91,35.18
	c1,0.82,1.05,2.41,3.3,3.44c-4.29,0.51-6.92-1.36-9.62-2.22c-12.81-4.08-25.41-8.83-38.22-12.92c-9.76-3.11-19.58-6.28-29.61-8.19
	c-16.1-3.06-32.1-1.75-47.43,4.43c-4.05,1.63-8.48,2.35-12.27,4.77c-6.51-10.42-14.16-20.28-23.37-28.69
	c-12.85-11.73-27.73-20.12-44.93-23.55c-7.38-1.47-14.94-2.15-22.59-0.44c-3.81,0.85-8.05,0.68-11.94,0.02
	c-3.38-0.57-5.54-3.85-8.2-5.95c-3-2.38-5.53-5.36-9.48-7.19c-1.99,3.86-5.55,6.19-7.92,9.64c-1.13,1.65-1.64,2.92,0.07,4.24
	c13.65,10.59,24.08,24.01,33.98,37.98c6.78,9.56,12.06,19.81,15.92,30.82c2.66,7.56,3.99,15.39,5.13,23.34
	c0.98,6.82,1.03,13.59,0.65,20.31c-0.42,7.49-0.71,15.06-2.54,22.45c-1.03,4.15-0.97,8.45-2.03,12.72
	c-2.45,9.95-5.15,19.81-8.34,29.54c-3.55,10.84-8.24,21.22-12.59,31.75c-5.97,14.46-14.13,27.71-21.33,41.5
	c-2.77,5.31-5.01,10.93-8.05,16.07c-7.21,12.19-12.56,25.26-18.44,38.07c-7.8,17-13.96,34.66-17.32,53.11
	c-0.78,4.29-1.51,8.74-1.29,13.27c0.22,4.42-1.46,8.79-0.92,13.3c1.23,10.24,1.71,20.53,3.56,30.73c0.81,4.47,1.42,9.16,2.7,13.4
	c2.04,6.7,3.52,13.61,6.28,20.1c3.9,9.17,8.13,18.18,12.41,27.17c0.96,2.02,4.23,3.05,2.78,6.14c-6.1,0.94-33.15-6.55-47.19-13.07
	c-2.06,2.77-2.38,5.9-2.64,9.28c-0.67,8.48-1.39,17.03-3.11,25.34c-1.52,7.3-2.05,14.72-3.73,21.98c-1.06,4.6-2.03,9.28-2.43,13.97
	c-0.67,7.84-2.77,15.42-3.75,23.21c-0.74,5.87-1.29,11.76-1.73,17.62c-1.09,14.5,3.92,27.56,10.86,40.01
	c0.34,0.61,0.83,0.89,1.22,1.33c1.3,1.46,3.46,0.23,4.76,1.94c5.84,7.72,10.69,15.87,13.04,25.4c1.45,5.91,1.07,11.86,0.87,17.78
	c-0.15,4.61-6.09,9.46-12,9.68c-5.38,0.2-10.33,3.22-15.84,2.12c-6.16,4.23-13.45,0.51-19.95,2.87c-3.49,1.27-7.1-0.99-10.76-0.94
	c-10.16,0.14-20.42,0.88-30.47-0.2c-8.73-0.94-17.81-1.24-26.01-5.57c-2.43-1.28-2.9-5.16-6.83-4.19c0-5.65-0.85-11.14,0.21-16.23
	c1.45-6.97,3.99-13.86,9.53-18.94c1.76-1.61,2.04-3.43,2.36-5.66c0.78-5.64,2.21-11.18,3.18-16.8c1.94-11.28,3.61-22.6,5.19-33.93
	c1.34-9.6,0.02-19.49,3.22-28.83c0.21-0.61,0.28-1.3,0.28-1.95c0.09-8.94,0.76-17.91,0.72-26.8c-0.04-10.07,0.37-20.33-1.02-30.25
	c-1.18-8.41-0.56-16.9-2.04-25.05c-1.07-5.87-0.52-11.84-1.88-17.41c-2.35-9.67-1.81-19.63-3.91-29.21
	c-1.14-5.21-2.13-10.51-3.37-15.71c-1.3-5.45-1.28-11.46-2.7-16.93c-1.49-5.74-0.93-11.57-2.1-17.12c-0.97-4.63-3.78-8.95-5.5-13.54
	c-2.25-6-3.07-12.28-4.4-18.49c-1.66-7.72,0.29-15.12,0.41-22.64c0.08-5.29,1.73-10.61,3.02-15.82c0.85-3.45,1.15-7.05,2.76-10.33
	c1.96-4,0.3-8.07-0.36-11.98c-1.7-10.02-4.05-19.93-5.67-29.98c-0.86-5.33-1.39-10.79-3.29-15.95c-2.28,0.81-1.97,2.95-2.38,4.3
	c-3.7,12.14-7.76,24.18-12.39,35.97c-3.77,9.61-8.14,18.99-13.01,28.15c-4.19,7.89-8.28,15.83-12.99,23.4
	c-1.77,2.85-0.45,5.37,0.35,7.5c1.86,4.95,2.06,10.2,3.61,15.2c2.98,9.62,3.23,19.63,3.22,29.65c-0.01,6.62-1.18,13.1-2.2,19.57
	c-2.09,13.22-6.92,25.73-11.12,38.35c-1.71,5.14-4.55,10.14-6.99,15.15c-9.68,19.8-17.49,40.34-24.14,61.32
	c-3.11,9.81-4.53,20-5.71,30.27c-1.61,13.95-1.22,27.92-0.59,41.79c0.52,11.45,0.22,22.89,0.78,34.31
	c0.36,7.37-0.93,14.64-3.46,21.2c-1.71,4.42-4.5,9.02-8.07,12.84c-2.4,2.56-4.72,5.46-6.12,8.81c-0.89,2.13-2.69,3.15-4.29,4.53
	c-2.37,2.05-4.24,4.67-6.31,6.93c-1.8,1.96-4.59,3.28-6.34,5.72c-1.11,1.55-3.18,0.48-4.88,1.32c-4.77,2.37-9.91,3.43-15.41,3.35
	c-16.16-0.22-32.33,0.15-48.49-0.15c-14.1-0.26-28.2-0.78-42.26-1.94c-3.55-0.29-10.87-5.88-11.26-9.41
	c-0.73-6.67-3.19-12.87-4.49-19.37c-0.68-3.4-0.71-6.8-0.63-10.21c0.11-4.75,4.98-10.19,9.67-11c3.2-0.55,6.33-1.53,9.45-2.29
	c12.27-2.97,24.62-5.05,37.22-5.68c1.46-0.07,2.07-0.72,3.06-1.77c7-7.41,11.46-16.47,16.45-25.14c4.7-8.16,9.16-16.51,12.97-25.11
	c3.69-8.3,7.48-16.56,10.5-25.21c3.41-9.78,7-19.51,9.86-29.46c2.24-7.79,4.42-15.59,5.96-23.6c1.31-6.84,3.38-13.58,4.83-20.43
	c1.91-9.08,3.8-18.16,5.25-27.36c1-6.35,2.53-12.73,3.76-19.11c1.86-9.6,3.37-19.27,4.97-28.93c2.19-13.2,3.85-26.47,2.93-39.87
	c-0.64-9.32-2.32-18.58-2.73-27.91c-0.41-9.23-2.27-18.24-3.46-27.32c-0.97-7.43-1.6-14.95-2.97-22.35
	c-1.12-6.1-1.85-12.28-2.78-18.41c-1.11-7.27-2.12-14.55-3.42-21.79c-1.42-7.89-2.18-15.88-3.69-23.73
	c-1.21-6.29,0.14-12.89-2.6-18.94c-0.48-1.06-0.51-2.26,0.12-3.35c1.08-1.87,0.83-3.99,0.52-5.86c-1.3-7.72-0.11-15.45-0.35-23.08
	c-0.23-7.3,1.16-14.29,1.74-21.35c0.71-8.72,1.54-17.51,3.38-26.22c2.03-9.55,4.06-19.1,6.2-28.64c3.5-15.62,9.57-30.35,15.14-45.26
	c2.73-7.3,6.14-14.31,9.23-21.45c1.96-4.54,2.59-9.46,1.53-14.03c-1.8-7.76,0.32-14.96,1.79-22.29c0.51-2.54,1.46-5.01,1.92-7.79
	c-11.17-0.52-22.35-0.87-33.07,3.16c-1.8,0.68-3.57,0.67-5.3,0.94c-7.61,1.19-10.98,7.45-14.95,12.63
	c-3.99,5.21-8.21,10.26-12.04,15.57c-5.05,7-10.45,13.69-16.09,20.2c-5.12,5.92-10.05,12-14.5,18.41
	c-6.97,10.06-10.99,21.47-13.43,33.36c-1.7,8.3-3.92,16.48-5.34,24.85c-1.11,6.53-3.24,12.89-4.68,19.38
	c-0.37,1.67-1.03,3.07-1.82,4.49c-1.59,2.85-4.05,4.7-7.22,3.61c-2.9-0.99-4.67-3.6-5-6.8c-0.18-1.78-0.03-3.59-0.03-6.1
	c-3.11,2.72-4.52,5.91-6.62,8.5c-2.56,3.17-5.69,5.27-9.22,6.9c-2.23,1.03-3.98-0.23-4.14-2.78c-0.2-3.13-0.03-6.06,1.97-8.87
	c3.94-5.55,4.77-12.77,9.38-18.06c0.39-0.45-0.42-2.16-0.03-3.41c-7.98,6.88-15.04,14.51-22.05,22.18
	c-3.23,3.54-7.36,5.94-10.84,9.18c-1.99,1.86-6.65-2.04-6.43-5.32c0.19-2.7,1.63-4.93,3.24-7c6.03-7.76,12.09-15.48,18.16-23.21
	c0.32-0.41,0.53-0.8,0.21-1.8c-5.13,3.41-9.49,7.8-14.92,10.46c-6.07,2.97-12.14,6.19-19.18,6.3c-2.13,0.03-4.34,0.14-5.5-2.23
	c-1.09-2.25-0.88-4.3,0.87-6.21c1.07-1.17,1.92-2.48,3.35-3.38c7.94-5.01,15.27-10.81,22.36-16.97c4.07-3.54,7.32-7.83,11.3-11.45
	c2.56-2.33,5.16-4.63,7.68-7.01c1.55-1.46,3.08-2.94,5.08-4.85c-4.18-1.6-7.82-0.97-11.28-0.8c-6.91,0.34-13.36-0.88-19.52-4.02
	c-2.9-1.48-5.61-5.42-5.54-8.67c9.14-1.89,18.69-1.58,27.57-4.91c1.49-0.56,2.94-0.47,4.41-0.47c8.33-0.03,16.67-0.15,24.99,0.05
	c3.39,0.08,4.95-0.9,6.51-4.21c5.09-10.77,9.79-21.7,14.14-32.78c1.55-3.94,2.93-7.94,4.42-11.9c1.35-3.58-0.26-5.81-4.36-5.07
	c-6.56,1.18-13.29,1.33-19.63,3.86c-7.99,3.19-16.26,5.68-23.89,9.78c-10.74-8.74-22.72-14.43-36.44-16.91
	c-7.95-1.43-15.25-0.04-22.67,2.06c-2.81,0.8-5.62,1.58-8.41,2.48c-5.41,1.75-9.85,4.86-14.26,8.25c-4.54,3.48-8.98,7.45-14.12,9.71
	c-4.17,1.83-8.33,4.05-13.09,4.97c-3.22,0.62-6.27-0.2-9.45,0.52c-3.32,0.76-6.96,0.13-10.46,0.17c-1.25,0.01-2.01-0.94-3.37-1.46
	c6.44-3.32,12.61-6.6,18.48-10.64c-0.37-0.96-0.67-1.84-1.03-2.69c-0.68-1.65,1.11-2.48,1.5-2.01c2.32,2.84,3.87-0.13,4.84-0.92
	c12.27-10.02,24.36-20.3,35.07-32c8.13-8.88,15.62-18.36,22.41-28.34c8.19-12.03,16.44-24.04,24.26-36.32
	c4.61-7.25,9.06-14.63,13.54-21.97c6.9-11.28,14.43-22.21,19.86-34.29c7.88-17.52,15.07-35.29,19.99-53.96
	c2.85-10.82,6.5-21.45,10.02-32.1c3.99-12.05,9.35-23.56,13.1-35.69c1.04-3.37,3.25-6.35,4.7-9.62c3.81-8.6,7.71-17.18,13.08-24.91
	c4.42-6.36,8.77-13.03,16.05-16.6c4.47-2.19,8.56-5.26,13.93-5.51c7.91-0.37,13.13,4.4,18.41,9.06c4.27,3.78,6.36,4.03,11.37,0.54
	c-2.58-11.46-5.54-22.94-7.56-34.58c-0.71-4.12-1.74-8.44-1.25-12.76c0.42-3.69-1.17-7.11-1.1-10.8c0.28-15.41,4.6-29.73,12.52-42.7
	c3.14-5.14,7.07-10.14,11.69-14.33c1.93-1.75,3.18-5.32,4.69-5.82c2.73-0.91,4.25-3.01,6.5-4.08c2.53-1.21,2.71-2.93,2.69-5.19
	c-0.06-5.83-0.05-11.66-0.01-17.5c0.1-15.28,5.28-28.76,14.52-40.81c2.78-3.62,5.44-7.42,9.22-9.96c1.49-1-0.2-4.48,3.37-3.55
	c2.42,0.64,2.05-2.38,3.21-3.54c2.08-2.09,4.16-3.09,6.89-0.17c0.06,0.51-1.5,0.81-1.24,2.08c1.51,7.17-0.07,14.36-0.14,21.54
	c-0.11,12.42,2.14,24.15,8.38,34.8c2.55,4.34,5.55,8.44,7.9,12.96c1.05,2.03,5.39,2.3,7.66,1.77c4.73-1.1,9.4-2.93,14.3-2.79
	c4.57,0.12,9.41-1.46,13.67,1.82c0.73,0.56,2.26,0.08,3.36,0.08c2.65-4.36,1.71-9.31,2.76-13.89c3.3-14.42,8.95-27.51,19.01-38.61
	c4.39-4.84,8.66-9.66,14.66-12.5c7.88-3.73,14.53-9.71,22.81-12.59c3.24-1.12,6.9-0.52,10.61-0.08c-3.48,12.15-6.03,24.4-5.81,36.82
	c0.24,13.38,0.67,27.01,7.09,39.29c3.41,6.53,5.73,13.4,8.1,20.3c3.6,10.48,4.02,20.85-0.78,31.07c-1,2.13-0.64,3.68,0.99,5.32
	c7.9,7.96,14.65,16.89,21.85,25.45c6.09,7.25,10.75,15.3,14.91,23.56c3.55,7.05,6.03,14.74,7.64,22.58
	C634.06,216.5,635.6,228.16,636.95,239.82z M630.67,500.64c-7.08-2.3-13.81-1.05-20.56,0.41c-1.07,0.23-2.26,0.48-3.26-0.47
	c-6.37-6.01-14.09-8.1-22.69-8.49c-6.37-0.29-12.5,0.71-18.49,2.3c-4.78,1.26-9.52,3.02-13.91,5.41c1.4,3.92,2.72,6.84,7.84,6.74
	c2.66-0.05,5.34-0.51,8.05-0.44c13.08,0.37,26.22-0.63,39.24,1.15c6.89,0.94,13.9,1.59,20.36,4.59
	C629.33,508.55,629.61,504.7,630.67,500.64z"/>
</svg>
