<?xml version="1.0" encoding="utf-8"?>
<!-- Generator: Adobe Illustrator 24.1.1, SVG Export Plug-In . SVG Version: 6.00 Build 0)  -->
<svg version="1.1" id="Layer_1" xmlns="http://www.w3.org/2000/svg" xmlns:xlink="http://www.w3.org/1999/xlink" x="0px" y="0px"
	 viewBox="0 0 408.11 832.88" style="enable-background:new 0 0 408.11 832.88;" xml:space="preserve">
<style type="text/css">
	.st0{fill:#1A1A1A;}
</style>
<g>
	<path d="M155.2,192.29c1.02-5.95,0.38-11.98-0.83-17.91c-1.76-8.58-4.15-17.04-5.74-25.64c-3.76-20.23-2.12-39.77,8.77-57.79
		c5.37-8.88,10.56-17.9,17.53-25.69c0.18-0.2,0.32-0.42,0.5-0.63c8.25-9.7,10.99-10.2,22.8-3.99c0.57-2.33,1.55-4.58,1.58-6.84
		c0.14-8.52,1.76-16.9,1.85-25.45c0.07-7.15,1.22-14.29,2.05-21.41c0.24-2.09,1.06-4.11,1.82-6.94c3.06,5.05,3.53,10.19,3.85,15.04
		c1.01,15.66,4.07,31.04,5.54,46.63c0.1,1.07,0.41,2.09,1.76,2.93c2.08-1.07,4.3-2.42,6.66-3.4c7.65-3.16,13.13-1.97,18.62,4.3
		c5.62,6.42,10.53,13.3,13.87,21.29c5.35,12.8,9.93,25.77,12.09,39.56c1.6,10.19,0.6,20.12-1.31,30.09
		c-2.05,10.7-5.21,21.16-6.49,32.02c-0.27,2.31-0.76,4.52,0.15,7.32c3.35-2.87,6.2-5.62,9.37-7.95c4.44-3.26,5.81-3.19,9.9,0.1
		c12.98,10.42,21.83,23.84,28.11,39.08c1.23,2.98,1.59,6.17,1.61,9.4c0.02,2.39-0.17,4.86,0.34,7.16c0.89,4.02-0.36,7.34-2.59,10.44
		c-1.85,2.58-3.88,5.03-5.78,7.48c7.18,8.64,6.31,11.33-3.47,16.38c0.83,11.61,3.77,22.85,8.02,33.76c0.64,1.64,2.19,2.98,3.49,4.29
		c5.55,5.61,9.15,12.22,11.51,19.77c6.77,21.61,15.66,42.39,25.26,62.88c1,2.15,2.24,4.18,3.57,6.64c4.35-1.29,7.75,0.3,10.01,3.65
		c2.43-0.14,3.38-3.51,6.4-1.47c2,3.24-0.02,7.45,1.24,11.24c1.79,1.7,4.03,0.79,6.06,1.02c9.62,1.08,17.86,4.39,23.9,12.61
		c3.65,4.97,6.38,10.39,9.27,15.73c1.75,3.22,3.27,7.17-2.13,9.08c-0.79,4.71-5.96,4.42-8.43,7.33c-1.7,1.99-3.99-0.43-6.07-0.15
		c-0.9,1.49-0.97,3.65-3.3,4.07c-1.97,0.35-3.75-0.11-5.26-1.29c-3.62-2.84-6.39-6.45-8.43-10.53c-3.15-6.31-7.88-8.41-14.97-7.79
		c-6.83,0.59-13.82-0.28-19.17-5.65c-1.94-1.94-4.4-3.02-6.84-4.02c-2.02-0.83-3.83-1.91-5.29-3.46c-2.05-2.17-3.25-4.71-3.47-7.83
		c-0.26-3.75,3.63-3.34,5.13-5.59c-0.87-3.02-2.61-5.66-4.18-8.42c-6.17-10.88-12.59-21.6-19.68-31.91
		c-5.45-7.92-10-16.36-13.02-25.53c-1.27-3.86-3.36-7.28-5.48-10.61c-8.33-13.1-14.79-27.07-20.38-41.51
		c-0.79-2.03-0.8-4.89-4.22-6.19c-1.8,9.71-3.62,19.24-5.29,28.79c-0.26,1.49-0.49,3.16,0.53,4.62c2.78,3.98,1.38,8.03,0.09,12.35
		c6.82,6.47,14.47,12.29,20.48,19.79c9.56,11.93,16.98,24.92,22.41,39.32c8.16,21.62,15.62,43.63,28.11,63.35
		c2,3.15,0.6,6.65,1.57,9.9c0.24,0.81-1.03,2.55-2.03,3.16c-1.81,1.11-3.75,1.73-4.23,4.27c-0.26,1.35-1.88,2.28-3.1,2.13
		c-2.83-0.36-4.73,0.53-6.45,2.77c-0.86,1.13-2.56,0.79-3.61-0.15c-0.98-0.87-1.67-2.06-2.71-3.4c-3.13,2.44-6.23,1.87-9.32,2.08
		c-2.41,0.17-3.83,4.28-6.98,3.23c-1.62,2.14-0.89,4.09-0.7,5.81c0.47,4.38-0.11,8.32-2.84,11.93c-0.93,1.22-1.59,2.8-1.9,4.32
		c-4.55,22.4-8.71,44.88-13.68,67.19c-1.66,7.43,0.18,14.27,1.05,21.29c0.53,4.22,1.26,8.44,1.25,12.66
		c-0.03,14.39,0.65,28.79-0.48,43.17c-0.87,11.12-2.15,22.2-2.82,33.33c-0.8,13.27-2.18,26.51-1.98,39.83
		c0.02,1.59-0.04,3.2-0.23,4.78c-1.93,16.93-0.89,33.45,6.74,49.07c0.81,1.66,1.44,3.41,2.36,5.62
		c10.59-0.65,20.45,2.07,26.23,11.55c4.21,6.9,6.96,14.88,4.37,23.65c-8.32,2.44-16.79,2.9-25.27,3.3
		c-1.86,0.09-4.03-0.38-5.52,0.41c-5.04,2.69-10.38,2.07-15.66,2.08c-9.58,0.01-19.16-0.04-28.66,1.56
		c-0.26,0.04-0.53,0.02-0.8,0.04c-10.17,0.67-11.46-0.23-13.08-10.32c-2.17-13.46-1.68-27.06-1.57-40.62
		c0.01-1.56-0.01-3.6,1.53-4.33c3.88-1.83,2.89-5.24,3.25-8.32c1.45-12.45,1.48-24.95,1.61-37.46c0.13-12.31-2.18-24.33-3.46-36.47
		c-0.19-1.76-1.06-3.44-2.03-6.44c-1.38,10.61-0.42,20.11-3.04,29.87c-6.86-19.52-8.66-39.7-14.86-59.12
		c-0.59,2.38-1.41,4.73-1.73,7.14c-1.32,9.77-3.57,19.33-6.05,28.85c-4.02,15.47-6.57,31.24-8.17,47.09
		c-0.94,9.22-0.17,18.62-0.17,27.37c1.08,1.78,2.45,2.06,3.56,2.75c3.22,1.98,3.88,3.09,2.3,6.39c-1.52,3.15-1.34,6.3-0.93,9.36
		c1.54,11.58,2.37,23.21,2.94,34.86c0.11,2.34,1.79,4.56,0.42,7.2c-1.89,2.1-5.06,2.07-7.28,1.77c-8.83-1.19-17.5,0.94-26.27,0.57
		c-10.57-0.44-21.18-0.19-31.77-0.06c-4.51,0.06-9.04,0.41-13.53,0.91c-7.87,0.87-11.9-2.56-12-10.51
		c-0.19-14.84,10.99-26.27,25.96-26.55c1.06-0.02,2.13,0,3.55,0c5.94-5.97,11.04-12.76,14.55-20.51c1.42-3.14,1.54-7.03,1.59-10.6
		c0.17-11.7-0.05-23.37-1.34-35.05c-1.26-11.34-1.42-22.8-2.36-34.19c-1.15-14.02-2.81-27.99-3.87-42.02
		c-1.08-14.31-2.31-28.62-2.05-43.02c0.18-9.6,0.23-19.15,2.85-28.47c1.05-3.73,0.57-7.28-0.27-10.99
		c-3.26-14.51-6.27-29.07-9.46-43.59c-1.73-7.89-5.7-14.9-9.71-21.74c-1.38-2.36-4.39-4.44-8.06-3.9c-4.86,0.71-4.88,0.6-8.43-4.19
		c-4.64,1.09-9.63,1.72-10.45-5.04c-3.85-0.08-7.22,2.88-10.57-0.76c2.53-8.92,3.35-18.45,8.48-26.85c2.9-4.74,4.78-10.1,7.25-15.11
		c2.74-5.57,3.94-11.47,4.93-17.57c2.57-15.77,6.22-31.29,12.84-45.94c2.43-5.37,5.49-10.35,9.89-14.39
		c0.98-0.9,2.16-1.73,2.79-2.85c5.77-10.34,15.74-16.42,24.17-24.05c0.98-0.89,2.04-1.68,3.09-2.54c0.78-2.39-1.08-5.65,2.09-7.15
		c2.79-1.32,2.73-3.68,2.62-6.09c-0.09-1.86-0.12-3.79-0.64-5.55c-3.21-10.86-6.56-21.68-9.89-32.61c-0.81,0.5-1.54,0.68-1.67,1.06
		c-5.11,14.92-13.14,28.48-19.97,42.59c-1.75,3.61-3.06,7.19-3.36,11.33c-1.01,14.16-6.77,26.66-14.13,38.57
		c-7.43,12.02-15.95,23.28-23.81,34.54c-0.61,1.79,0.41,2.87,0.73,4.13c1.32,5.24,0.56,7.06-4.55,9.31c-3.32,1.46-5.8,3.3-7.34,6.8
		c-2.46,5.59-7.38,8.3-13.21,9.11c-4.99,0.69-10.04,1.15-15.07,1.19c-2.68,0.03-4.45,0.99-6.33,2.65
		c-6.27,5.56-10.88,12.32-14.62,19.72c-0.86,1.69-1.73,3.29-3.25,4.47c-3.9,3.05-6.89,3.32-10.28-0.7
		c-2.13-2.53-4.49-0.36-6.45-1.83c-2.19-1.64,0.04-5.16-2.83-6.07c-2.96-0.94-3.75-2.57-2.68-5.41c0.93-2.47-2.44-2.53-2.69-5.08
		c6.34-9.8,13.25-19.88,22.99-27.37c8.07-6.21,17.12-10.73,27.77-10.51c3.69,0.07,6.12-1.57,7.13-5.1c0.65-2.29,0.94-4.69,1.58-6.99
		c1.05-3.77,1.48-7.96,5.44-9.76c2.53-0.3,3.27,2.08,5.18,2.48c0.5-0.56,1.24-1.06,1.51-1.75c6.79-17.33,14.57-34.28,20.27-52.04
		c2.28-7.11,5.22-14.06,9.56-20.14c5.41-7.59,8.32-15.93,9.81-25.01c1.16-7.07,2.79-14.05,4.21-21.03
		c-1.06-3.02-5.26-1.38-6.34-4.77c-0.83-3.48,2.8-5.04,4.19-7.55c-1.7-1.95-3.39-3.85-5.04-5.77c-7.92-9.23-7.71-19.92-3.55-30.1
		c5.48-13.39,13.83-25.22,24.73-34.95c3.15-2.81,7.02-4.79,10.48-7.26c3.85-2.76,7.4-2.29,10.87,0.65
		C151.96,191.31,152.89,192.85,155.2,192.29z"/>
	<path class="st0" d="M161.93,269.33c0.57-2-0.68-3.53-1.34-5.22c-2.4-6.12-4.82-12.24-5.79-18.8c-0.04-0.26-0.24-0.49-0.25-0.74
		c-0.14-5.05-3.68-9.1-3.86-14.3c-0.17-4.86,2.1-9.28,1.65-14.06l-0.25,0.37c2.24-2.34,3.28-5.16,3.41-8.36l-0.23,0.27
		c0.5-0.57,1.39-1.12,1.44-1.73c1.1-13.75,1.5-27.47-1.95-41c-1.18-4.63-2.43-9.23-3.56-13.87c-4.42-18.13-3.78-36.03,4.4-52.94
		c6.37-13.16,14.16-25.57,24.49-36.17c4.33-4.44,8.8-5.11,14.2-1.88c1.81,1.09,3.46,2.45,5.63,4.01c0,5.09,0.03,10.38-0.01,15.67
		c-0.02,2.69,0.35,5.25,1.43,7.77c1.21,2.83,3.28,4.11,6.2,4.08c2.96-0.03,4.96-1.51,6-4.36c0.93-2.54,1.27-5.16,1.3-7.82
		c0.05-3.72,0.01-7.44,0.01-11.36c4.75-3.55,9.27-7.05,15.64-6.8c3.93,0.15,7,1.21,9.71,4.41c5.89,6.94,11.01,14.22,14.46,22.74
		c4.09,10.12,7.83,20.32,10.26,30.97c3.13,13.75,2.24,27.3-1.37,40.87c-4.04,15.15-8.26,30.62-5.19,46.28
		c2.49,12.69,1.98,25.31,2.53,37.98l0.19-0.33c-2.71,2.93-0.99,6.65-1.77,9.93l0.18-0.33c-2.35,1.8-1.31,4.49-1.76,6.78l0.18-0.35
		c-2.11,0.37-1.53,2.15-1.81,3.48l0.21-0.3c-2.45,2.58-6.75,3.69-6.63,8.32l0.26-0.3c-1.17-0.18-2.06,0.39-2.69,1.23
		c-2.94,3.95-5.84,7.94-8.7,11.95c-0.25,0.35-0.05,1.01-0.06,1.53l0.26-0.29c-2.35-0.09-4.07,1.39-5.21,2.96
		c-1.85,2.54-4.66-1.53-6.15,1.27c-0.12,0.22-0.1,0.51-0.14,0.77l0.3-0.31c-3.29,2.62-6.47,5.42-11.18,4.79
		c-2.96-0.39-4.56,2.52-7.36,3.06c-2.96,0.01-2.94-4.16-5.79-4.58l0.31,0.3c0.03-1.31-0.6-1.94-1.91-1.9l0.32,0.26
		c-1.27-2.12-1.79-2.12-3.53-0.02l0.31-0.26c-1.7,1.11-3.39,2.21-5.09,3.32l0.29,0.2c0.06-1.32-0.57-1.95-1.89-1.89l0.27,0.29
		c0.2-1.78-0.41-3.17-2.18-3.68c-2-0.58-4.06-0.95-6.09-1.42l0.3,0.27c0.12-1.38-0.5-2-1.88-1.87l0.29,0.29
		c0.04-1.31-0.59-1.95-1.9-1.89l0.3,0.3c0.06-1.31-0.57-1.95-1.89-1.89l0.25,0.3c0.03-3.53-2.32-5.27-5.06-6.73l0.29,0.31
		c0.06-1.32-0.57-1.95-1.89-1.89l0.25,0.3c0.3-2.69-1.04-4.27-3.45-5.13l0.29,0.31c0.06-1.31-0.58-1.94-1.88-1.9l0.29,0.25
		c-0.2-0.42-0.31-1.12-0.6-1.2c-0.9-0.26-1.34,0.27-1.28,1.2l0.25-0.22c-2.04,0.54-3.39-1.05-5.06-1.63L161.93,269.33z
		 M206.75,200.15c-8.63,15.66-5.87,75.73,2.39,83.23c2.52-1.09,1.98-3.53,2.24-5.49c0.74-5.79,0.98-11.65,1.99-17.39
		c1.86-10.6,1.06-21.25,0.73-31.84c-0.24-7.63-1.99-15.23-3.42-22.78C210.29,203.81,210.48,200.82,206.75,200.15z"/>
	<path class="st0" d="M308.83,464.65c0.1,2.37,0.26,4.75,0.24,7.12c-0.01,0.73-0.51,1.45-1.06,2.9c-6.17-2.21-11.61-6.4-18.28-6.92
		c-6.61-0.52-13.01,0.39-19.03,2.86c-1.39-1.08-0.54-1.92-0.07-2.77c2.67-3,1.5-6.67,1.1-9.84c-1.73-13.84-2.85-27.8-6.82-41.24
		c-1,1.32-0.62,3.03-0.32,4.31c1.92,7.98,2.66,16.13,3.64,24.24c0.92,7.58,1.74,15.17,2.61,22.75c-1.79-0.21-3.85,0.13-4.77-2.03
		c-2.28-5.35-7.02-6.88-12.12-7.82c-2.07-0.38-4.29-0.12-6.34-1.83c-0.16-0.43-0.58-1.12-0.67-1.86
		c-1.22-9.98-3.55-12.54-13.55-14.18c-8.24-1.35-16.42-0.43-24.55,1.13c-1.54,0.3-2.96,1.25-4.95,0.84
		c-1.41-11.12-0.54-22.44-1.46-33.69c-0.71,12.67,0.42,25.37-0.84,37.82c-1.99,0.99-3.4,0.53-4.75-0.54c-2-1.59-4.25-2.14-6.74-1.42
		c-1.47,0.43-2.14,0.31-2.57-1.58c-0.28-1.23-2.26-0.87-3.45-0.15c-4.1,2.48-8.17,4.97-11.55,8.47c-0.8,0.82-1.66,2.29-3.58,1.18
		c-0.68,6.14-1.34,12.02-2.03,18.23c-14,0.81-28.77-1.59-41.21,8.24c-0.59-2.79-0.75-5.14-0.16-7.5c1.08-2.81,0.78-5.78,0.96-8.7
		c2.5-2.34,1.77-5.74,2.55-8.58c1.79-6.47,3.64-13,4.16-19.77c0.95-1.13,1.71-2.27,0.22-3.72c-0.61,1.46-0.41,2.7-0.02,3.93
		c-2.83,0.77-1.88,3.37-2.35,5.16c-1.98,7.61-5.3,14.98-4.38,23.13c-2.21,2.69-2.03,5.66-0.97,8.71c-1.26-0.14-2.03,0.48-2.21,1.66
		c-0.8,5.11-1.39,10.18,3.57,13.48c-2.17,7.91-3.12,8.62-10.42,7.73c-2.34-0.28-4.54-0.77-6.82-1.78
		c-5.33-2.36-11.04-3.85-16.5-5.95c-5.56-2.14-6.24-3.57-4.04-8.99c2-4.92,4.38-9.69,6.74-14.45c5.71-11.5,9.86-23.39,11.79-36.23
		c1.89-12.6,5.39-24.91,10.2-36.8c4.35-10.76,10.45-20.3,19.01-28.15c7.04-6.46,14.26-12.71,21.34-18.99
		c6.73,1.84,13.02,2.07,19.4-0.14c3.83,2.1,6.33,6.56,11.52,6.36c4.75-0.18,7.63-3.27,10.83-6.43c3.55,1.63,7.15,2.18,10.82,0.86
		c1.9-0.68,3.58-0.4,5.26,0.76c1.3,0.9,2.74,1.75,4.24,2.17c6.1,1.69,12.1,2.45,16.64-3.56c4.86,0.89,9.6,0.99,13.4,0.05
		c3.07,0.11,1.48,4.83,5.03,3.27c1.08-0.48,2.02,0.29,2.79,1.07c7.85,7.93,16.24,15.37,22.5,24.75c2.88,4.32,4.46,9.43,8.92,12.86
		c1.86,1.43,2.48,4.6,3.45,7.07c6.83,17.3,13.6,34.63,20.41,51.95c3.51,8.92,8.36,17.17,13.29,25.58
		c-3.63,5.96-9.39,8.25-16.24,10.59c0-4.64,0.02-8.6-0.01-12.57c-0.01-1.36-0.28-2.66-2.03-2.83c0.94-4.68-1.86-8.27-3.63-12.14
		c-0.09-0.2-0.9-0.07-1.37-0.1c-0.38-1.95,1.24-4.29-1.13-5.87c-0.02-1.74,1.06-3.86-1.63-4.67c0.18-1.74,0.9-3.77-2.03-3.87
		c-0.55-1.74,1.49-4.23-1.5-5.28c0.22-1.45,1.32-3.26-1.42-3.54c-0.05-1.78,0.96-3.88-1.47-4.95c0.43-1.93-0.15-3.69-0.95-5.4
		c-1.11-1.1,0.08-3.59-2.34-3.9c0.01-0.67,0.37-1.45-0.56-1.82c-0.02-0.01-0.33,0.48-0.27,0.56c0.3,0.39,0.69,0.71,1.04,1.06
		c0.47,1.48-0.68,3.87,2.24,3.97c-0.46,1.95-1.22,3.95,1.03,5.38c0.02,1.78,0.28,3.49,1.51,4.9c0,1.36,0.31,2.6,1.35,3.57
		c0.59,1.73,1.55,3.37,1.32,5.3c1.34,0.95,0.13,3.36,2.23,3.88c-0.31,1.85,0.01,3.48,1.66,4.64c0.31,1.96,0.61,3.92,0.92,5.89
		C304.81,456.76,305.92,461.09,308.83,464.65z M172.11,431.41c0.66-16.85,3.79-33.55,1.65-48.1
		C173.06,397.84,170.33,414.59,172.11,431.41z M171,439.26c-0.23,0.05-0.47,0.1-0.7,0.15c0,2.69,0,5.38,0,8.07
		c0.23-0.01,0.47-0.02,0.7-0.03C171,444.71,171,441.98,171,439.26z M263.65,411.7c0.24-0.87,0.71-1.65,0.58-2.31
		c-0.35-1.7,0.27-3.66-1.58-5.57C263.14,406.7,261.39,409.24,263.65,411.7z M241.72,424.39c0.33,3.82,0.49,5.78,0.66,7.75
		C242.67,430.15,243.56,428.14,241.72,424.39z M200.8,386.86c-0.11,2.98-1.22,5.03,0.99,7.43
		C201.51,391.73,202.28,389.77,200.8,386.86z M261.76,398.89c1.3-1.52,0.11-2.97,0.04-4.44
		C261.44,395.93,261.04,397.42,261.76,398.89z M241.1,414.65c-0.87,2.08-0.81,3.53,0.01,5.42
		C241.97,418.09,241.96,416.66,241.1,414.65z M239.68,395.01c-0.06-0.21-0.12-0.41-0.18-0.62c-0.06,0.37-0.12,0.74-0.18,1.11
		C239.44,395.34,239.56,395.18,239.68,395.01z M285.96,397.17c-0.14,0.02-0.28,0.03-0.42,0.05c0.05,0.23,0.1,0.46,0.15,0.69
		c0.07-0.02,0.2-0.02,0.2-0.05C285.92,397.63,285.94,397.4,285.96,397.17z M140.26,404.61c0.04-0.25,0.09-0.51,0.1-0.76
		c0-0.02-0.23-0.05-0.35-0.08c0.01,0.25,0.02,0.51,0.05,0.76C140.07,404.56,140.2,404.58,140.26,404.61z M240.83,408.59
		c0.17-0.19,0.48-0.38,0.49-0.57c0.02-0.6,0.44-1.73-0.62-1.47C240.07,406.7,240.25,407.88,240.83,408.59z M138.44,411.48
		c0,0.42,0,0.85,0,1.28c0.13-0.17,0.32-0.32,0.38-0.51c0.06-0.2,0.04-0.45-0.01-0.66C138.79,411.52,138.55,411.51,138.44,411.48z
		 M137.28,419c-0.17-0.25-0.35-0.5-0.52-0.74c-0.06,0.24-0.14,0.48-0.16,0.73c-0.07,0.71,0.16,0.99,0.54,0.71
		C137.28,419.59,137.24,419.24,137.28,419z M135.51,423.98c-0.25,0.31-0.5,0.48-0.48,0.61c0.09,0.52-0.44,1.26,0.48,1.5
		C135.51,425.44,135.51,424.79,135.51,423.98z M287.23,403.26c-0.06,0.2-0.21,0.41-0.18,0.59c0.15,0.71,0.45,0.75,0.72,0.09
		c0.07-0.16-0.04-0.43-0.14-0.61C287.6,403.25,287.37,403.28,287.23,403.26z M288.83,408.06c-0.06,0.2-0.21,0.41-0.18,0.59
		c0.15,0.71,0.45,0.75,0.72,0.09c0.07-0.16-0.04-0.43-0.14-0.61C289.2,408.05,288.97,408.08,288.83,408.06z M259.93,388.3l0.42,0.3
		l0.07-0.48L259.93,388.3z"/>
	<path class="st0" d="M209.79,661.43c-0.12-2.38-0.42-4.7-1.02-7.06c-1.97-7.71-3.58-15.51-5.34-23.27
		c-0.29-1.29-0.29-2.87-1.05-3.78c-2.09-2.49-2.09-5.49-2.25-8.33c-0.51-9-2.28-17.93-1.59-27.01c0.06-0.75-0.23-1.53-1.14-2.29
		c0,8.01,0,16.03,0,24.29c-2.91-0.39-2.23-2.43-2.57-3.59c-2.91-9.95-4.93-20.1-6-30.41c-0.47-4.5-1.37-8.88-2.35-13.28
		c-2.08-9.33-3.42-18.77-3.67-28.38c-0.4-15.41-1.22-30.81-1.68-46.21c-0.3-10.11-0.26-20.23-0.4-30.35
		c-0.03-1.99,0.36-3.7,2.51-4.78c2.48,1.67,2.23,4.33,2.28,6.89c0.14,6.92-0.01,13.82,0.43,20.75c0.83,12.72,0.88,25.5,1.77,38.21
		c1.39,19.88,4.16,39.58,9.68,58.79c0.28,0.96,0.99,1.79,1.62,2.89c3.8-9.14,2.43-18.69,4.18-27.78c1.25-6.45,1.79-13.07,4.29-19.25
		c-1.06-1.12,1.12-2.75-0.47-4.1c-0.66,1.72,0.24,2.89,0.45,4.16c-1.1-0.03-2.06,0.14-2.37,1.45c-0.27,1.15-0.97,1.8-2.23,1.63
		l0.2,0.21c-0.07-8.49,1.22-16.8,3.82-26.03c-3.39,3.58-2.65,7.25-3.72,10.33c-1.25,3.61-0.84,7.41-1.82,10.96
		c-1.01,3.63-1.02,7.35-1.79,11.7c-1.18-2.09-2.13-3.64-2.28-5.62c-1.36-18-4.5-35.8-5.55-53.85c-0.5-8.74-1-17.5-1.37-26.25
		c-0.17-4.07,0.06-4.08,4.09-7.86c1.92,1.33,2.1,4.45,4.95,4.88c1.61-0.34,2.72-1.4,3.7-2.73c0.43-0.58,1.31-1.52,1.63-1.4
		c5.71,2.18,6.47-2.93,8.57-5.99c2.24,0.78,2.45,3.49,4.68,4.04c2.04,0.5,3.51-1.06,5.86-1.13c0.66,5.36,1.68,10.69,1.7,16.19
		c0.02,5.59,0.25,11.18,0.52,16.76c0.27,5.56,0.83,11.11,1.01,16.67c0.18,5.59,0.04,11.19,0.04,16.79c0,5.6,0.21,11.2-0.06,16.79
		c-0.27,5.56-0.46,11.24-1.74,16.61c-1.25,5.24-0.34,10.61-1.41,15.82c-1.41-12.42-3.82-24.47-7.07-36.4
		c-1.53-5.62-2.6-11.36-3.89-17.05c-0.29-1.26-0.38-2.71-2.27-2.58c1.73-5.72,0.3-11.06-1.76-17.19c-0.95,3.72-1.4,6.49-0.24,9.42
		c0.97,2.43,1.47,5.05,2.18,7.58c0.72,4.43,1.09,8.95,2.25,13.26c1.2,4.49,1.16,8.33-2.66,10.91c1.75,12.65,5.8,24.21,8.1,36.16
		c0.8,4.16,1.28,8.38,2.84,12.36c1,2.54,0.94,5.2,0.94,7.86c-0.01,9.04,0.12,18.08-0.04,27.11c-0.16,9.04-1.93,17.89-3.82,26.71
		c-1.06,4.9-2.75,9.65-2.68,14.82c0.03,2.51-0.59,5.26-2.91,7.06l0.21,0.22c-0.29-1.31-0.16-2.84-1.78-3.48l0.15,0.26
		c-0.74-1.08,0.15-2.99-1.77-3.46L209.79,661.43z M207.75,511.11c-0.16-0.39-0.32-0.77-0.47-1.16c-0.15,0.17-0.45,0.36-0.42,0.5
		c0.08,0.4,0.29,0.78,0.44,1.17C207.45,511.44,207.6,511.27,207.75,511.11z M211.01,532.62l-0.4-0.29l-0.07,0.45L211.01,532.62z"/>
	<path class="st0" d="M260.88,245.36c2.46-1.99,1.72-4.94,1.79-7.39c0.32-10.6,0.74-21.25-2.69-31.54c-0.88-2.63-0.2-5.24-0.08-8.12
		c4.2-4.16,8.24-8.68,13.61-11.14c3.02,0.21,4.78,2.01,6.44,3.59c10.68,10.18,19.06,21.99,24.78,35.65
		c2.2,5.25,2.75,10.69,3.02,16.32c0.24,5.24-1.86,9.16-5.1,12.89c-7.17,8.24-16.28,13.41-26.31,17.34
		c-5.03,1.97-10.04,3.29-15.46,2.45l0.29,0.31c-0.57-1.8-1.97-1.97-3.54-1.81l0.27,0.28c0.11-1.53-0.37-2.75-1.78-3.5l0.17,0.24
		c-0.65-2.23-0.26-4.45,0.02-6.67c0,0-0.21,0.3-0.21,0.3c1.66-0.61,1.68-2.07,1.81-3.48l-0.18,0.35c1.62-1.99,1.65-4.4,1.76-6.78
		l-0.18,0.33c2.75-2.92,1.17-6.62,1.77-9.93L260.88,245.36z"/>
	<path class="st0" d="M152.33,216.21c-2.69,4.07-3.2,8.76-3.53,13.41c-0.28,3.96-0.06,7.95-0.06,11.41
		c0.99,1.69,2.22,0.69,3.32,1.38c1.67,7.26,3.5,14.71,6.35,21.63c-0.17,2.75-1.61,4.71-2.72,6.8c-0.69,1.3-1.8,1.91-3.26,1.74
		c-1.78-0.21-2.85-1.22-3.13-3.04c-0.87-5.72-2.52-11.32-2.66-17.19c-1.35,5.85-0.56,11.65,0.09,17.72
		c-4.16,0.92-8.2,1.32-12.35-1.76c0-3.78,0-7.72,0-13.53c-2.17,5.41-0.81,9.28-1.64,12.89c-7.88,0.05-7.88,0.05-11.89-4.6
		c-0.21,0.76-0.41,1.52-0.62,2.28c-9.2-1.68-16.11-9.83-16.29-19.36c-0.09-5.1,0.8-10.01,3.2-14.62
		c6.04-11.6,12.9-22.59,22.51-31.67c3.33-3.15,7.06-5.67,10.95-7.93c5.7-3.3,14.29,1.31,14.92,7.96c0.27,2.88-0.16,5.83-0.27,8.75
		l0.23-0.27c-2.41,2.27-3.61,5.03-3.41,8.36L152.33,216.21z M119.83,257.55c-0.11-0.21-0.23-0.43-0.34-0.64
		c-0.14,0.19-0.38,0.38-0.39,0.58c-0.01,0.22,0.2,0.45,0.31,0.68C119.55,257.96,119.69,257.75,119.83,257.55z"/>
	<path class="st0" d="M203.21,294.66c3.15,6.08,4.51,12.28,2.22,19.1c-0.72,2.14-0.22,4.67,0.46,7.07c0.7,2.44,0.65,5.1,0.91,7.47
		c-3.26,1.56-4.22-0.3-5.44-2.18c-3.49-5.4-7.47-10.33-13.05-13.82c-2.3-1.44-4.61-2.65-7.29-3.03c-3.76-0.53-5.63,0.51-6.58,4.11
		c-1.64,6.23-1.77,12.56-0.22,19.03c-2.53,2.83-5.63,2.48-9.53,2.15c-1.6-6.39-1.6-13.07-3.56-19.33
		c-2.06-6.59-3.77-13.29-5.66-19.94c-1.82-6.36-4.27-12.56-5.12-19.85c3.56-0.36,6.66-1.56,8.14-5.05c0.69-1.63,2.14-1.19,3.43-1.08
		l-0.3-0.28c0.6,2.56,1.69,4.76,4.34,5.99c1.04-1.39,0.9-2.87,0.72-4.37c0,0-0.25,0.22-0.25,0.22c0.63,0,1.25,0,1.88,0
		c0,0-0.29-0.25-0.29-0.25c-0.01,1.27,0.85,1.66,1.88,1.9l-0.29-0.31c0.51,2.14,1.56,3.92,3.45,5.13c0,0-0.25-0.3-0.25-0.3
		c0.2,1.05,0.84,1.68,1.88,1.89l-0.29-0.31c0.77,2.93,2.92,4.83,5.06,6.73c0,0-0.25-0.3-0.25-0.3c0.2,1.05,0.84,1.68,1.89,1.89
		c0,0-0.3-0.3-0.29-0.3c0.23,1.04,0.77,1.77,1.9,1.89c0,0-0.29-0.29-0.29-0.29c0.08,1.18,0.55,1.96,1.88,1.87l-0.3-0.27
		c1.57,3.63,5.6,3.27,8.28,5.1c0,0-0.27-0.29-0.27-0.29c0.2,1.05,0.84,1.68,1.88,1.89l-0.29-0.2c1.08,1.89,2.31,1.95,3.52,0.19
		c0.73-1.05,1.73-2.04,1.56-3.51c0,0-0.31,0.26-0.31,0.26c1.18,0.01,2.35,0.01,3.53,0.02c0,0-0.32-0.26-0.32-0.26
		c0.22,1.05,0.77,1.77,1.91,1.9L203.21,294.66z"/>
	<path class="st0" d="M260.87,275.4c1.54,2.5,0.69,5.06,0.22,7.62c-2.36,13.02-4.58,26.06-7.15,39.04
		c-0.67,3.35-0.33,6.91-2.23,10.57c-3.21,0.58-6.64,1.74-10.68,1.1c0.26-5.68,0.57-11.1,0.73-16.53c0.12-3.98,0.55-8.41-3.34-10.83
		c-4.32-2.69-8.09,0.42-11.79,2.39c-5.42,2.89-8.17,8.19-11.43,12.99c-1.74,2.56-3.13,5.34-4.53,7.76
		c-2.29-0.18-2.83-1.28-2.83-2.72c0.01-6.38-0.06-12.75,0.12-19.12c0.14-4.9,4.52-8.97,9.64-9.05c5.07-0.09,8.23-2.61,9.93-7.23
		l-0.3,0.31c1.4,0.56,2.81,1.12,4.12,1.65c3.11-1.69,5.86-3.49,7.39-6.64l-0.26,0.29c4.22-4.59,9.51-8.35,11.45-14.72l-0.26,0.3
		c0.59-0.41,1.42-0.68,1.74-1.24c1.48-2.61,3.13-1.75,4.87-0.41c0,0-0.17-0.24-0.17-0.24c0.22,1.36,0.22,2.82,1.78,3.5
		c0,0-0.27-0.28-0.26-0.28c0.61,1.73,1.99,1.94,3.54,1.81L260.87,275.4z"/>
	<path class="st0" d="M233.31,542.65c0.7,13.94-0.06,27.14-2.11,40.28c-0.57,3.65-0.54,7.39-0.78,11.09
		c-0.17,2.64-0.33,5.25-1.13,7.83c-0.85,2.74-1.17,5.66-3.22,8.63c-0.75-6.86-1.9-13.06-1.66-19.44c0.16-4.24-0.19-8.49-0.28-12.74
		c-0.03-1.32-0.41-2.88,0.14-3.92c5.08-9.54,5.31-20.33,8.09-30.46C232.41,543.72,232.64,543.55,233.31,542.65z"/>
	<path class="st0" d="M212.87,667.58c0.09,0.98,0.17,1.97,0.28,3.16c3.22-0.61,1.62-5.37,5.06-5.37l0.14-0.1
		c-1.1,11.85-2.75,23.65-2.44,35.6c0.05,1.9-0.01,3.78-2.29,4.83c-3.83-18.56-8.89-36.92-9.69-56.63c3.59,3.76,3.31,8.76,5.87,12.37
		l-0.12-0.31c0.59,1.15,1.18,2.31,1.77,3.46l-0.15-0.26c0.25,1.33,0.54,2.65,1.78,3.48L212.87,667.58z"/>
	<path class="st0" d="M241.19,459.72c-0.09,25.74,1.56,51.51-1.95,76.2c-0.81-13.57-3.45-28.03-1.43-42.59
		C239.36,482.17,237.43,470.67,241.19,459.72z"/>
	<path class="st0" d="M188.68,612c0.87-0.17,1.55,0.18,1.94,0.91c2.51,4.63,4,9.79,7.42,13.99c0.73,0.89,0.6,2.51,0.79,3.81
		c0.88,5.74,1.79,11.47,2.55,17.22c0.2,1.47,0.53,3.1-0.86,4.87c-2.57-1.99-4.62-4.36-5.19-7.55c-2-11.18-5.23-22.12-6.44-33.45
		L188.68,612z"/>
	<path class="st0" d="M232.49,610.57c0.3,9.27-0.84,17.12-2.16,24.93c-0.91,5.4-1.72,10.94-6.42,15.04
		C222.67,636.5,226.03,623.85,232.49,610.57z"/>
	<path class="st0" d="M234.68,453.14c0.97,7.65,0.16,15.27,0.42,22.76c-1.24,0.37-2.14,0.11-2.18-0.67
		c-0.35-6.85-0.6-13.71-0.81-20.57C232.08,453.85,232.63,453.23,234.68,453.14z"/>
	<path class="st0" d="M184.27,587.47c-2.62-5.83-2.6-12.08-2.81-18.29c1.46,6.06,3.35,12.06,2.63,18.44L184.27,587.47z"/>
	<path class="st0" d="M184.08,587.62c2.94,2.19,0.61,4.96,0.54,7.47c-0.12-2.54-0.23-5.08-0.35-7.62L184.08,587.62z"/>
	<path class="st0" d="M202.86,540.64c0.46,1.21,0.66,2.43-0.06,3.97c-1.23-1.51-0.83-2.65,0.27-3.76L202.86,540.64z"/>
	<path class="st0" d="M186.63,601.69C186.63,600.74,186.63,601.22,186.63,601.69C186.6,601.22,186.58,600.75,186.63,601.69z"/>
	<path class="st0" d="M188.89,611.8c-1.04-0.53-1.45-1.26-0.7-2.36c0.96,0.72,0.68,1.64,0.49,2.55L188.89,611.8z"/>
	<path class="st0" d="M215.15,537.3c-0.41,0.17-0.82,0.34-1.23,0.5c-0.08-0.22-0.28-0.48-0.23-0.67c0.18-0.62,0.64-0.78,1.2-0.44
		C215.04,536.79,215.07,537.1,215.15,537.3z"/>
	<path class="st0" d="M218.2,665.37c0-0.44,0-0.89,0-1.33c-0.08,0.19-0.24,0.39-0.22,0.56c0.04,0.24,0.23,0.45,0.35,0.67
		L218.2,665.37z"/>
</g>
</svg>
