<?xml version="1.0" encoding="utf-8"?>
<!-- Generator: Adobe Illustrator 24.1.1, SVG Export Plug-In . SVG Version: 6.00 Build 0)  -->
<svg version="1.1" id="Layer_1" xmlns="http://www.w3.org/2000/svg" xmlns:xlink="http://www.w3.org/1999/xlink" x="0px" y="0px"
	 width="1050.37" height="823.87" viewBox="0 0 1050.37 823.87" style="enable-background:new 0 0 1050.37 823.87;" xml:space="preserve">
<style type="text/css">
	.st0{fill:#1A1A1A;}
</style>
<g>
	<path d="M628.96,459.18c-1.98,2.85-3.02,6.06-7,4.61c-1.39-0.51-2.53,0.19-3.47,1.31c-2.31,2.74-5.93,0.3-8.11,1.73
		c-2.16,1.42-3.67,3.76-6.68,3.6c-0.5-0.03-1,0.09-2.2,0.21c0.33,4.71-0.3,9.34-4.34,12.73c-0.68,0.57-0.83,1.92-0.96,2.95
		c-1.89,14.74-4.67,29.38-4.93,44.32c-0.09,4.99,0.99,9.33,3.66,13.58c5.97,9.49,10.88,19.48,13.95,30.37
		c4.3,15.22,4.06,30.46,1.13,45.8c-3.04,15.92-6.15,31.82-9.31,47.71c-1.35,6.79-2.25,13.63-2.58,20.55
		c-0.49,10.35-0.9,20.7-1.47,31.04c-0.36,6.49,1.02,12.69,2.76,18.85c0.29,1.02,0.27,2.33,0.92,3c5.45,5.67,6.44,13.11,7.9,20.25
		c1.38,6.8,0.97,13.73,0.11,20.63c-0.56,4.48-0.96,9.01-0.92,13.51c0.05,6.14-0.58,12.17-1.72,18.37
		c-4.91,2.37-10.17,2.73-15.46,3.14c-7.95,0.61-15.87,1.47-23.81,2.24c-3.74,0.36-6.86-0.49-8.25-4.93
		c-5.75,1.74-11.11,3.21-16.37,4.98c-7.4,2.49-15.03,3.52-22.76,3.8c-7.94,0.29-15.87,0.41-23.83,0.29
		c-6.89-0.1-11.02-3.37-14.31-8.34c-3.07-4.64-5.52-9.71-7.23-15.07c-1.53-4.79-1.04-9.29,1.38-13.83
		c7.66-14.39,20.43-18.46,35.52-18.02c2.12,0.06,4.24,0.58,6.35,0.57c6.21-0.04,12.08-1.17,17.15-5.22c3.5-2.8,7.61-4.81,10.82-8.11
		c-3.21-2.61-3.58-3.55-2.09-5.52c1.62-2.15,3.51-4.03,6.06-5.08c2.17-0.9,4.37-1.73,6.46-2.56c3.8-11.53,3.12-23.28,2.81-34.97
		c-0.25-9.29-0.95-18.56-1.47-27.84c-0.61-10.9-2.43-21.65-4.13-32.4c-2.57-16.27-5.6-32.47-8.35-48.71
		c-0.49-2.88-0.44-5.84-0.85-8.73c-1.01-7.07-1.44-14.31-6.13-20.32c-1.5-1.92-2.05-4.38-1.84-6.83c0.77-8.67-1.88-16.88-3.5-25.19
		c-3.1-15.91-5.46-31.92-7.44-47.99c-0.63-5.09-1.62-9.93-4.23-14.51c-2.64-0.26-4.53,2.6-7.47,1.79c-2.65-0.73-3.48-3.12-5.01-4.81
		c-3.14,0.33-5.1,3.25-8.24,2.94c-2.63-0.26-4.05-2.42-6.24-3.75c-1.43,1.08-2.82,2.31-4.37,3.27c-4.67,2.87-6.39,2.27-9.27-3.02
		c-0.25-0.47-0.44-0.96-0.81-1.77c-2.82,1.81-5.14,4.86-9,4.13c-3.92-0.74-4.36-4.12-4.93-7.48c-2.29,1.16-4.08,2.34-6.04,3.01
		c-4.42,1.51-8.07-1.09-8.21-5.8c-0.04-1.56,0.1-3.28,0.71-4.69c4.52-10.5,7.88-21.43,12.67-31.85c4.08-8.87,7.33-18.13,9.52-27.78
		c3.78-16.68,10.69-32.29,17.94-47.71c4.1-8.71,6.93-17.82,8.73-27.23c1.05-5.52,1.06-11.09-1.97-16.3
		c-2.63-4.52-2.78-9.68-2.87-14.76c-0.09-5.56-0.02-11.13-0.02-16.6c-0.96-1.14-2.11-1.65-3.46-1.97c-2.84-0.68-5.67-1.43-8.45-2.32
		c-10.16-3.22-15.78-9.02-16.88-24.24c-0.78-10.8,3.45-19.42,10.69-27.35c5.13-5.63,10.96-9.99,17.19-14.08
		c2.67-1.75,5.31-3.57,7.84-5.52c6.05-4.66,10.92-10.25,12.23-18.06c0.65-3.88,4.56-5.95,4.93-9.85c-0.43-0.28-0.95-0.88-1.25-0.79
		c-7.04,2.19-11.78-0.79-15.42-6.59c-1.69-2.7-3.64-5.24-5.62-8.06c-1.29,0.08-2.65-0.06-3.87,0.29
		c-6.05,1.72-10.44-0.71-15.27-4.37c-6.73-5.11-12.64-11.12-19.32-16.23c-3.93-3-6.61-6.93-8.5-11.4
		c-1.68-3.97-2.51-8.06-0.49-12.46c7.49-4.38,17-3.62,24.89-8.51c-1.39-27.07,8.3-49.81,27.67-68.65
		c-1.43-5.03-2.63-9.93-2.11-15.04c0.13-1.32,0.1-2.69,0.42-3.96c1.09-4.39,5.17-6.16,9.3-4.24c3.62,1.68,5.78,4.71,7.39,8.1
		c1.32,2.8,2.17,5.83,3.26,8.84c2.39-1.2,3.54-4.06,6.39-4.73c3.32,0.28,4.58,3.12,6.48,5.6c2.73,0,5.61,0,8.64,0
		c11.73-12.27,25.9-20.93,42-26.43c10.06-3.44,25.58-5.43,32.14-4.45c0.78,1.78-0.73,2.23-1.73,2.97
		c-14.3,10.63-22.65,25.15-27.26,42.03c-0.9,3.29-1.14,6.78-1.54,10.19c-0.23,1.97,0.95,3.53,1.93,5.12
		c4.45,7.24,6.08,15.08,6.02,23.6c-0.06,9.12-1.1,18.02-2.86,26.92c-1.86,9.38-3.73,18.74-3.75,28.4
		c-0.01,8.46,1.86,16.31,5.7,23.76c2.32,4.5,4.85,8.89,7.01,13.46c1.27,2.67,3.15,4.22,5.95,4.72
		c18.42,3.23,32.89,13.42,45.41,26.54c10.22,10.7,17.56,23.33,22.14,37.47c0.14,0.42-0.19,0.98-0.4,1.95
		c-3.8-2.61-6.6-6.16-10.76-8.14c-9.02-4.29-18.7-6.04-28.27-8.22c-7.32-1.67-14.85-1.07-22.3-1.09c-1.94,0-3.72,0.29-5.08,2.16
		c-0.77,1.87,0.82,3.34,1.48,4.94c5.26,12.8,10.89,25.43,17.88,37.42c1.51,2.6,3.23,4.75,5.66,6.52c4.55,3.31,8.63,7.13,11.41,12.13
		c2.32,4.18,6.3,6.38,10.25,8.62c8.11,4.59,16.2,9.2,24.35,13.71c7.32,4.05,13.59,9.42,19.12,15.57
		c8.88,9.89,17.48,20.04,26.21,30.07c0.7,0.8,1.54,1.5,2.17,2.35c4.79,6.58,4.43,8.53-2.54,13.2c2,7.11,4.74,13.92,9.41,19.26
		c-0.3,3.18-3.15,3.18-4.45,4.86c2.61,7.4,7.07,13.77,10.84,20.46c8.78,15.56,18.98,30.21,29.48,44.64
		c3.93,5.4,8.87,9.93,13.63,14.59c2.92,2.86,6.11,3.57,10.21,2.5c8.51-2.22,17.28-3,26.02-3.9c1.96-0.2,4.15-0.86,5.95,0.85
		c-9.04,8.73-11.52,10.72-13.97,18.74c7.95,5.29,16.92,6.16,26.54,5.76c1.98-19.05,9.95-35.72,19.3-51.86
		c12.6-21.73,28.6-40.95,44.44-60.3c9.99-12.21,21.24-23.07,33.48-33c7.63-6.19,14.76-13.01,22.19-19.45
		c6.84-5.93,13.75-11.76,22.3-15.23c1.93-0.78,3.68-2.01,5.55-3.05c1.71,1.21,0.25,2.35-0.29,3.19
		c-10.67,16.58-20.03,33.91-29.2,51.34c-7.33,13.93-12.71,28.64-16.68,43.89c-4.02,15.44-8.03,30.86-10.33,46.68
		c-0.55,3.74-0.6,7.35-0.21,10.63c1.6,2.25,4.55,0.92,5.71,3.11c0.51,2.63-1.9,4.28-2.24,7.3c9.3,8.04,17.47,17.89,29.43,23.45
		c13.76,6.39,27.31,13.1,42.13,16.89c13.48,3.44,27.26,4.55,41.01,5.89c2.52,0.25,5.12-0.35,7.6-0.55c0.49,1.82-0.47,2.02-1.57,2.21
		c-5.64,0.95-10.53,3.88-15.27,6.7c-10.7,6.36-22.35,9.82-34.32,12.54c-13.76,3.12-27.63,5.7-41.75,6.25
		c-7.43,0.29-14.92-0.05-22.34-0.65c-12.72-1.03-25.41-2.36-37.82-5.65c-14.77-3.92-28.68-9.88-41.94-17.36
		c-4.39-2.48-8.66-5.33-11.78-9.43c-1.24-1.63-2.59-2.67-4.62-2.55c-10.97,0.69-21.73-0.94-32.47-2.82
		c-0.72-0.13-1.51,0.13-2.56,0.23c0.46,6.73,4.02,11.86,8.24,17.08c-1.41,0.25-2.26,0.68-2.88,0.47
		c-10.4-3.6-19.19-9.42-24.34-19.44c-2.72-5.29-6.61-8.7-11.98-10.98c-18.08-7.68-33.73-19.42-48.84-31.51
		c-12.42-9.94-23.49-21.67-33.13-34.53c-1.6-2.13-3.42-4.09-4.87-6.31c-2.2-3.37-4.97-4.62-9.2-2.9c-1.29,2.93-1.23,6.83-5.27,8.86
		c-2.79,1.41-3.33,6.1-7.78,5.95c-1.51-0.05-1.49,1.97-2.22,3.01c-2.36,3.31-5.22,5.35-9.51,3.39c-1.57-0.72-3.05-0.63-4.48,0.49
		c-1.78,1.39-3.8,1.92-5.99,1.07c-1.72-0.67-3.06-0.22-4.22,1.17C635,461.4,632.24,460.87,628.96,459.18z M587.06,265.75
		c0,2.65,0.17,5.32-0.05,7.96c-0.23,2.8-0.83,5.57-1.22,8.08c6.06,3.14,11.94,5.14,19.32,4.83
		C600.01,278.7,594.36,271.89,587.06,265.75z"/>
	<path class="st0" d="M610.23,385.95c0.34,5.34,2.37,10.24,3.89,15.29c4.3,14.24,7.38,28.78,10.39,43.33
		c1.23,5.97,0.51,7.49-4.88,10c-8.53,3.98-17.61,6.14-26.88,7.23c-6.52,0.77-13.07,2.23-20.12,1.43c-0.38-3.93,1.21-7.38,1.24-11.02
		c0.1-10.69-1.69-21.13-3.28-31.61c-1.22-8.04-2.5-16.07-3.89-25c-1.32,7.86,0.77,14.6,1.4,21.4c0.92,9.99,2.94,19.87,4.18,29.84
		c0.52,4.19,0.26,8.43-1.19,12.58c-1.86,5.3-2.68,6.24-8.48,6.61c-5.84,0.37-11.69,0.63-17.54,0.7c-8.79,0.11-17.59,0.07-26.38,0.02
		c-9.71-0.06-12-1.57-13.46-12.6c-0.62-4.68-0.1-9.51-1.47-14.28c0,6.94,0,13.87,0,21.2c-16.87,4.99-32.45,2.39-48.47-3.92
		c0.96-11.29,7.02-20.63,9.89-30.82c3.28-1.31,3.46,3.13,6.21,2.72c2.26-0.34,3.6-2.23,5.66-2.74c5.31,7.38,6.98,7.29,15.4-0.91
		c2.15-0.2,1.54,2.2,2.69,3.08c2.55,1.95,4.8,1.56,7.39,0.2c4.05-2.13,5.67-6.2,8.35-10.04c3.81,1.1,7.64,1.36,10.51-2.48
		c2.51-3.36,3.8-6.83,1.93-10.67c1.18-1.54,2-0.53,2.92-0.17c4.88,1.91,7.84,0.71,9.06-4.04c0.65-2.53,0.56-5.26,0.8-7.9
		c10.34-5.9,11.09-8.45,4.92-16.92c8.87-6.87,9.77-10.2,4.93-18.33c5.86-9.55,5.8-9.58-0.5-17.22c2.87-8.41,1.68-10.06-3.1-15.55
		c2.75-4.53,1.3-8.88-2.18-12.98c5.48-2.22,11.03-3.1,15.98-5.73c4.91-2.62,10-4.91,15.19-7.44c0.62,0.05,1.49-0.09,2.17,0.21
		c6.71,2.92,12.39-0.54,18.2-2.95c1.8-0.75,2.63-2.48,3.15-4.39c0.41-1.49-0.44-3.23,0.93-4.49c12.09,0.62,13.72,1.8,16.28,13.05
		c2,8.78,5.85,16.01,12.88,22.2c11.76,10.36,22.61,21.76,34.22,33.1c-1.93,2.61-4.76,4.77-3.21,8.29c1.47,3.34,4.54,4.19,8.56,4.81
		c-4.6,8.81-8.92,17.09-13.2,25.29c10.12,9.46,14.96,21.77,20.3,33.66c-6.32,6.19-11.27,13.21-19.58,16.36
		c-7.72,2.93-15.5,5.46-23.7,6.52c-1.98-2.62-1.34-5.41-1.9-7.91c-4.08-18.12-7.77-36.35-13.99-53.91
		c-0.42-1.18-0.54-2.67-2.21-2.95c-0.53-1.79,1.44-4.19-1.34-5.42c0.08-0.81,0.58-1.7-0.45-2.34c-0.88,1.09-0.17,1.63,0.67,2.13
		C609.49,382.3,609.86,384.13,610.23,385.95z M634.42,359.83c0.83,0.32,1.66,0.65,2.48,0.97c-0.48,1.4,0.33,2.55,0.75,3.77
		c0.68,0.67,1.45,1.14,2.46,1.01c-0.82,1.5,0.4,2.67,0.64,4c0.73,0.35,1.46,0.7,2.19,1.05c-0.28,1.41,0.73,2.41,1.16,3.59
		c0.52,0.72,1.07,1.38,2.11,1.14c-0.38,1.41,0.44,2.36,1.26,3.32c0.53,1.31,1.05,2.61,1.58,3.92c-0.11-0.65,0.37-0.59,0.25-0.22
		c-0.33,0.99,0.54,0.01-0.53,0.04c-0.32-1.26,0.93-3.21-1.55-3.53c0.1-1.29,0.71-2.76-1.19-3.34c-0.27-1.28-0.89-1.84-2.17-1.06
		c-0.09-1.3,1.09-2.99-1.1-3.66c-0.21-1.44-0.93-1.82-2.19-1.04c-0.04-1.37,1.04-2.92-0.68-4c-0.63-0.83-1.38-1.37-2.49-0.98
		c-0.13-1.29,0.67-2.75-0.73-3.8c-0.63-0.85-1.35-1.48-2.5-0.94c0.28-1.26-0.21-1.88-1.52-1.81c-0.22-1.13,0.92-2.77-1.19-3.2
		c-0.15-1.29-0.93-1.66-2.12-1.43c-0.7-1.09,0.66-2.66-0.82-3.58c-0.66-0.58-1.32-1.17-1.98-1.75c-0.13-0.1-0.25-0.19-0.38-0.29
		c0.12-0.11,0.25-0.32,0.36-0.31c1.06,0.11-0.31-0.53,0.24,0.38c0.66,0.59,1.31,1.18,1.97,1.76c0.27,1.2,0.55,2.41,0.82,3.61
		c0.7,0.46,1.4,0.92,2.1,1.37c0.41,1.07,0.83,2.14,1.24,3.21C633.41,358.63,633.92,359.23,634.42,359.83z M601.58,360.45
		c0.13,1.45-0.29,3.02,0.98,4.2c0.27,0.45,0.44,1.01,0.82,1.31c0.36,0.29,0.73-0.18,0.39-0.81c-0.15-0.27-0.89-0.23-1.37-0.33
		c0.5-1.58-0.32-2.84-0.97-4.15c-0.82-0.82-0.8-2.3-2.14-2.72c-0.06-0.64-0.11-1.27-0.07-0.75c-0.27-0.5,0.01,0.03,0.3,0.55
		C600.21,358.66,600.89,359.56,601.58,360.45z M605.52,373.26c-0.01-0.49-0.12-1.01,0-1.47c0.19-0.76-0.05-1.12-0.39-0.69
		c-0.66,0.82,0.05-0.4,0.3,0.63c0.11,0.44,0.04,0.92,0.05,1.38c0.52,0.49,1.04,0.98,1.56,1.47c0.07-0.24,0.23-0.49,0.19-0.71
		C607.01,372.7,606.23,373.07,605.52,373.26z M562.11,374.97c0.38-2.22,0.7-4.45,0.09-6.68c-0.18,0.41-0.54,0.84-0.52,1.24
		c0.09,1.77,0.29,3.54,0.45,5.31c0.55,1.63,1.09,3.25,1.79,5.32C563.46,378.05,565.55,375.54,562.11,374.97z M560.37,363.05
		c0.69-0.61,0.38-1.31,0.16-2.01C559.97,361.68,559.99,362.35,560.37,363.05z M565.51,384.87c-0.11-0.18-0.22-0.36-0.32-0.54
		c-0.14,0.15-0.43,0.37-0.39,0.44c0.11,0.25,0.34,0.46,0.52,0.68C565.38,385.26,565.45,385.07,565.51,384.87z M565.14,389.95
		l0.3-0.43l-0.37-0.13L565.14,389.95z M558.83,355.77l0.29-0.43l-0.45-0.07L558.83,355.77z"/>
	<path class="st0" d="M794.66,492.19c0.2,0.47,0.26,1.14,0.61,1.39c12.93,9.22,26.98,14.65,43.4,12.91
		c-1.22-3.39-0.55-6.39,0.18-9.42c4.18-17.28,12.32-32.79,21.38-47.89c15.4-25.67,35.31-47.86,54.84-70.27
		c6.57-7.54,15.13-13.34,22.75-19.97c8.63-7.5,17.2-15.07,25.84-22.56c3.81-3.3,7.95-6.14,12.59-8.21c1.52,1.9-0.35,3.02-1.02,4.22
		c-6.87,12.31-14.01,24.48-20.75,36.86c-10.89,20.01-17.88,41.5-23.39,63.51c-2.19,8.76-4.15,17.59-5.97,26.44
		c-1.46,7.08-1.32,14.23-0.45,21.58c1.48,0.32,2.74,0.6,4,0.88c1.04,1.76-1.01,2.82-0.99,4.53c-0.12,1.35,0.99,2.25,1.84,3.21
		c10.48,11.87,22.19,21.99,37.11,28.19c9.82,4.08,19.32,8.9,29.65,11.65c14.17,3.77,28.52,6.41,43.33,6.48
		c0.02,2.64-2.2,2.73-3.66,3.44c-21.25,10.41-44.01,15.39-67.24,18.82c-10.92,1.61-21.76,0.59-32.63-0.04
		c-20.86-1.22-41.19-4.9-60.5-13.22c-10.03-4.32-20.04-8.69-28.5-15.84c-0.78-0.66-1.49-1.4-2.98-2.81
		c8.56-2.76,16.95-1.83,24.7-4.21c0.4,0.74,0.8,1.48,1.2,2.22c0.43,0.8,0.85,1.59,1.28,2.39c1.51,0.19,3.01,0.38,4.52,0.57
		c-0.71,2.82,2.24,2.72,3.29,4.14c1.31,0.35,2.62,0.7,3.92,1.06c1.43,2.43,3.58,3.43,6.34,3.23c2.08,2.59,5.22,3.33,8.06,4.51
		c3.83,1.59,7.78,2.92,11.67,4.36c2.5,0.24,5,0.48,7.5,0.72c3.04,1.85,6.32,2.02,9.72,1.39c1.2,1.23,2.84,1.38,4.36,1.49
		c6.75,0.52,13.51,0.94,20.28,1.32c1.81,0.1,3.7,0.23,5.16-1.24c3.86,0.71,7.52,0.11,11.01-1.64c3.77,0.88,7.47-0.42,11.21-0.38
		c1.99-0.63,3.95-1.36,5.97-1.87c2.04-0.52,4.13-0.83,6.21-1.22c1.72-0.33,3.92,0.39,5-2.81c-6.1,1.85-11.78-0.54-17.52,0.37
		c-0.64,0.1-0.88,0.38-0.67,1.06c0.79,0.53,2.03,0.23,2.52,1.56c-1.43,0.44-2.1,1.38-1.48,2.91c-3.73-0.9-7.45-1.71-11.02,0.55
		c-2.29,0.47-4.54,0.88-6.92,0.37c-1.47-0.31-3.13-0.36-4.14,1.26c-1.59,0-3.27,0.32-4.77-0.05c-8.36-2.09-16.87-1.36-25.33-1.5
		c-2.93-2.73-6.48-1.05-9.75-1.35c-2.14-3.26-4.89-1.28-7.46-0.87c-0.06-0.73,0.06-2.03-0.22-2.12c-6.52-2.2-12.41-6.33-19.58-6.59
		c-1.15-2.97-3.56-3.45-6.34-3.24c-0.79-2.3-2.48-1.35-3.98-1.09c0.89-2.95-2.26-2.83-3.28-4.32c-1.45-0.14-2.9-0.28-4.35-0.42
		c-0.03-1.05-0.43-1.87-1.42-2.34c-0.32-0.74-0.65-1.49-0.97-2.23c11.26-4.54,22.49-9.19,32.94-15.41
		c4.6-2.73,10.14-4.42,12.59-9.92c0.7,0.17,1.45,0.55,1.9-0.39c0.01-0.03-0.45-0.39-0.52-0.35c-0.42,0.28-0.78,0.63-1.17,0.96
		c-9.85,5.26-19.73,10.46-29.52,15.82c-4.15,2.27-8.17,3.6-12.85,1.48c-1.59-0.72-3.46-1.02-5.44-0.65
		c-12.63,2.38-25.41,2.02-38.19,2.18c-5.06,0.06-10.03,0.17-14.95-1.17c-1.1-0.3-1.93-0.8-2.54-1.72l-0.16,0.19
		c2.4,0.05,4.92-0.38,7.16,0.23c10.51,2.86,20.56-0.17,30.68-2.08c2.58-0.49,5.12-1.51,7.5-2.65c4.81-2.3,9.59-4.57,14.94-5.41
		c0.65-0.1,1.19-0.97,1.78-1.48c3.88,0.89,7.22-1.1,10.68-2.17c9.34-2.87,18.17-7.01,26.86-11.43c-0.04,0.06-0.08,0.12-0.12,0.18
		c-3.39-1.27-6.17,0.61-8.98,1.89c-7.46,3.39-15.16,6.16-22.83,9.02c-1.84,0.68-4.29,0.5-5.44,2.7c-1.56-0.15-3.12-0.3-4.95-0.47
		c1.56-4.09,4.68-6.76,6.94-9.98c8.28-11.81,15.01-24.5,22-37.06c6.59-11.86,12.64-24.03,20.34-35.26
		c6.48-9.44,13.67-18.33,20.83-27.3c-0.98-1.43-2.03-0.35-2.53,0.05c-18.34,14.83-34.37,31.76-46.62,52.03
		c-2.33,3.85-4.25,7.98-6.05,12.12c-5.75,13.24-12.9,25.67-21.17,37.47c-5.2,7.42-12.26,12.71-20.69,15.52
		c-7.48,2.49-15.54,1.62-22.81-0.97c-11.74-4.19-23.57-8.22-34.33-14.92c-9.78-6.09-18.33-13.65-27.12-20.95
		c-17.08-14.2-29.55-31.95-39.64-51.52c-1.34-2.59-2.78-5.12-4.13-7.59c0.74-2.2,1.27-4.26,2.13-6.17c0.7-1.55,0.43-4.07,3.02-4.1
		c2.65-0.03,2.33-3.46,4.36-3.82c2.08,0.45,2.74,1.92,3.42,3.38c9.41,20.4,21.62,39.08,34.66,57.29
		c4.97,6.94,9.87,13.91,16.19,19.69c3.48,3.18,6.6,6.94,11.4,8.36l-0.13-0.27c1.35,2.86,3.48,4.67,6.7,5.04L794.66,492.19z
		 M886.16,522.44c0.27,0.85,0.54,1.7,0.81,2.55c1.56-0.16,3.11,1.59,4.68,0.02c-0.24,0.98-0.52,1.99,0.54,2.68
		c2.07,1.36,4.03,2.99,6.73,2.94c0.05,0.89,0.62,1.31,1.37,1.66c14.64,6.7,30.17,9.78,46.09,11.18c1.78,0.16,3.72,0.51,5.42-0.65
		c-0.45-0.26-0.85-0.7-1.3-0.75c-16.67-1.7-33.07-4.52-48.64-11.08c-0.9-0.38-2.05-0.15-3.08-0.21c-1.15-3.48-5.47-2.92-7.2-5.67
		c-1.56-0.02-3.11-0.04-4.67-0.06c0.62-1.18,0.37-2.01-0.98-2.39c-0.52-0.59-1.03-1.18-1.55-1.77c-0.28-0.17-0.57-0.34-0.85-0.52
		c0.35,0.1,0.69,0.2,1.04,0.31C884.86,521.48,885.1,522.33,886.16,522.44z M963.38,542.58c1.24,0.17,2.26,0.7,3.42-0.36
		C965.55,541.95,964.55,541.78,963.38,542.58z M914.33,485.17l-0.35-0.26l-0.07,0.37L914.33,485.17z"/>
	<path class="st0" d="M588.04,161.32c-1.01-0.12-2.02-0.24-3.04-0.35l0.34,0.28c0.05-1.3-0.72-1.8-1.88-1.91l0.32,0.26
		c-0.57-1.79-2.07-1.8-3.55-1.84l0.37,0.23c-1-2.03-3.09-2.24-4.72-1.91c-5.98,1.22-12.41-1.97-18.08,1.9l0.39-0.2
		c-1.89,0.14-4.08-0.57-5.19,1.81l0.35-0.23c-2.54-0.07-4.25,1.07-5.11,3.48l0.31-0.28c-1.31-0.05-1.95,0.58-1.9,1.9l0.29-0.3
		c-1.31-0.05-1.94,0.59-1.9,1.89l0.3-0.3c-2.13,0.16-2.51,2.67-5,3.33c-2.53-1.2-4.21-3.28-5.13-6.72
		c-2.03-7.67-1.57-15.22-0.43-22.9c1.24-8.41,3.43-16.63,4.59-25.09c1.13-8.27,0.37-16.47,0.67-24.69c0.11-3.06-1.63-5.62-3.24-8.03
		c-1.92-2.87-4.04-5.62-6.29-8.24c-5.67-6.63-11.89-12.82-15.91-21.69c-4.88,5.43-10.22,9.17-15.18,13.32
		c-2.61,2.18-6.93,1.83-8.16,5.71c-0.96,3.04-1.76,6.13-2.74,9.16c-1.23,3.8-2.02,7.69-2.87,11.59c-1.06,4.86-2.04,10-8.05,12.5
		c-1.61-2.34-1.65-5.06-1.41-7.46c2.25-22.38,10-42.17,27.35-57.59c6.17,1.1,11.02,4.45,16.17,7.08c5.08,2.6,8.84,6.73,12.95,10.51
		c4.26,3.91,7.31,9.06,12.28,12.34c3.25-1.08,4.17-3.7,4.52-6.25c0.46-3.38,0.69-6.84-0.97-10.17c-1.26-2.54-3.93-1.05-5.5-2.4
		c-1.92-8.12-1.92-8.12-8.42-10.72c-0.28-1.78-0.9-3.57-0.2-5.42c1.68-1.25,3.61-0.94,5.38-0.61c11.86,2.21,23.32,5.48,32.98,13.18
		c11.62,9.26,18.25,21.21,19.08,36.17c0.61,11.03-2.16,21.63-4.07,32.35c-1.4,7.85-2.99,15.67-2.88,23.71
		c0.08,6.15,0.56,12.2,2.54,18.07c0.5,1.47,1.39,2.94,0.37,4.54L588.04,161.32z"/>
	<path class="st0" d="M585,160.97c8.06,6.18,11.78,15.52,16.84,23.8c3.4,5.56,4.01,12.19,2.63,18.57
		c-1.47,6.76-6.62,10.56-12.62,13.3c-1.95,0.89-4.39-1.04-6.3,1.78c-1.13,1.68-4.23,1.96-6.35,3.05c-2.35,1.2-4.6,2.59-6.89,3.91
		c-1.83,1.05-3.93,1.81-5.43,3.21c-4.51,4.18-9.2,3.12-14.08,1.03c-1.45-0.62-3-0.99-4.51-1.48l0.29,0.27
		c-0.67-1.64-2.09-1.78-3.57-1.8l0.22,0.28c0.3-1.08,0.2-2.13-0.6-2.94c-14.37-14.53-12.62-35.26-2.61-51.96
		c1.21-2.01,3-3.74,3.35-6.22c0,0-0.3,0.3-0.3,0.3c1.13-0.13,1.68-0.85,1.9-1.89c0,0-0.29,0.3-0.29,0.3c1.06-0.21,1.69-0.85,1.9-1.9
		l-0.31,0.28c2.19-0.44,4.11-1.29,5.11-3.48c0,0-0.35,0.23-0.35,0.23c1.97,0.08,3.93,0.14,5.19-1.81l-0.39,0.2
		c7.6-0.82,15.2-1.09,22.8,0.01c0,0-0.37-0.23-0.37-0.23c0.49,1.96,2.03,1.87,3.55,1.84c0,0-0.32-0.26-0.32-0.26
		c-0.02,1.27,0.85,1.67,1.88,1.91L585,160.97z M572.58,218.53c-0.53,0.24-0.59,0.15-0.18-0.29c0.11,0.15,0.23,0.29,0.34,0.44
		c0,1.06,0.87,1.22,1.59,1.54c0.12,0.83,0.29,1.01,0.46,0.52c0.01-0.02-0.45-0.21-0.68-0.32
		C573.6,219.79,573.09,219.16,572.58,218.53z M556.73,221.69l-0.39-0.03l0.62,0.04c0.36,0.67,0.72,1.34,1.08,2.01
		c0.38,0.71,0.75,1.41,1.13,2.12c1.45,0.08,2.84,1.31,4.35,0.22c-0.27,0.55-1.3,1.2,0.19,1.54c-0.13-0.46-0.26-0.92-0.39-1.39
		c-1.29-1.12-2.69-0.61-4.08-0.28c-0.46-0.67-0.92-1.34-1.39-2.01C557.49,223.17,557.11,222.43,556.73,221.69z M585.86,207.97
		C586.02,206.8,585.94,207.39,585.86,207.97C585.96,207.39,586.05,206.81,585.86,207.97z M596.04,208.92
		c-0.1-0.18-0.21-0.36-0.31-0.55c-0.14,0.15-0.43,0.36-0.4,0.44c0.1,0.25,0.32,0.46,0.49,0.68
		C595.9,209.31,595.97,209.12,596.04,208.92z"/>
	<path class="st0" d="M548.29,228.12c1.19,3.18,4.31,3.68,6.9,4.76c1.69,0.7,3.65,0.76,5.42,2.2c0.11,1.33,0.28,2.9,0.34,4.47
		c0.08,2.28,0.91,4.08,2.85,5.4c2.27,1.55,4,0.26,5.85-0.81c0.41-0.24,1.02-0.16,1.93-0.27c2.17,2.72,4.48,5.6,6.54,8.17
		c-0.91,8.31-1.96,16.16-3.75,23.91c-0.54,2.32-1.2,4.61-1.73,6.92c-0.85,3.72-3,5.99-6.36,7.63c-11.35,5.52-23.4,8.61-36.12,11.25
		c-0.9-7-3.68-13.02-6.24-19.08c-3.48-8.25-4.09-16.45-0.6-24.82c2.75-6.59,2.63-13.34,1.88-20.35c-0.82-7.72-1.7-15.29-5.3-22.31
		c-0.63-1.23-0.64-2.65-0.04-3.88c3.32-6.88,6.42-13.88,12.33-21.31c-0.77,15.19,1.6,27.81,13.04,36.87c0,0-0.22-0.28-0.22-0.28
		c0.89,1.2,1.99,1.97,3.57,1.8L548.29,228.12z"/>
	<path class="st0" d="M683.01,340.36c-1.19,1.68-1.98,3.72-4.74,4.94c-2.4-2.81-5.09-5.62-7.39-8.73
		c-7.52-10.16-14.38-20.76-20.63-31.75c-0.5-0.88-0.7-1.94-1.03-2.91l-0.19,0.14c1.77-0.82,3.02,0.35,4.36,1.14
		c8.24,4.88,16.38,9.95,24.74,14.6c7.1,3.95,12.97,9.19,18.11,15.37c7.3,8.78,13.56,18.43,22.37,25.92
		c3.21,2.73,2.05,6.21,0.53,9.93c-9.13-4.54-18.26-9-27.31-13.61c-2.88-1.47-2.95-2.63-1.13-6.96c0.54-0.2,0.61,0.2,0.14,0.24
		c-1.04,0.09,0.29,0.53-0.26-0.38c-1.9-3.27-4.44-5.91-7.79-7.72c-0.59-0.65-1.18-1.29-1.77-1.94c-0.54-0.53-1.08-1.05-1.62-1.58
		c-0.53-0.54-1.06-1.07-1.59-1.61c-0.47-0.6-0.93-1.2-1.4-1.8c-0.57-0.5-1.14-1.01-1.71-1.51c-0.52-0.55-1.03-1.1-1.55-1.65
		c-0.61-0.46-1.22-0.91-1.84-1.37c-0.13-0.15-0.26-0.3-0.39-0.44c0.2,0.08,0.4,0.16,0.6,0.24c0.44,0.67,0.83,1.41,1.81,1.37
		c0.29,0.77,0.47,1.63,1.55,1.65c0.34,0.76,0.65,1.55,1.69,1.51c0.23,0.79,0.32,1.7,1.43,1.79c0.34,0.73,0.58,1.55,1.59,1.61
		c0.35,0.72,0.61,1.53,1.62,1.58C681.83,339.06,682.42,339.71,683.01,340.36z"/>
	<path class="st0" d="M811.09,512.87c-7.85,0.15-15.08-1.83-21.82-5.92c-3.85-2.33-7.96-4.26-11.96-6.35
		c-10.63-5.57-20.78-11.73-28.88-20.88c-3.68-4.16-7.92-7.86-12.19-11.44c-6.77-5.69-12.3-12.45-17.62-19.41
		c-6.9-9.03-13.59-18.24-20.84-28.01c4.32-0.71,8.43-0.35,9.68-4.76c2.72,0.61,3.44,2.76,4.6,4.49
		c7.24,10.81,13.77,22.08,21.04,32.89c7.69,11.43,17.46,20.68,27.76,29.48c9.52,8.13,20.09,14.85,30.74,21.39
		c4.08,2.51,8.63,4.02,13.08,5.75c2.13,0.83,4.77,0.73,6.25,2.97L811.09,512.87z"/>
	<path class="st0" d="M782.87,512.24c-8.85-4.83-18.33-8.47-26.76-14.12c-16.34-10.97-32.71-21.88-46.33-36.33
		c-8.21-8.71-15.82-17.92-23.09-27.41c-1.67-2.18-3.32-4.42,0.04-7.6c2.25,0.08,5.6,1.49,8.24-1.69c4.42,4.27,6.79,9.68,10.23,14.29
		c12.9,17.3,26.93,33.47,43.61,47.36c10.27,8.55,20.97,16.27,32.74,22.54c1.3,0.69,2.2,1.49,1.19,3.06L782.87,512.24z"/>
	<path class="st0" d="M525.77,155.66c1.06,4.84,0.04,8.79-2.43,12.93c-5.85,1.05-12.18,5.89-17.39-2.61
		c2.11-3.44,4.29-6.98,6.66-10.85C516.67,154.97,521.02,153.22,525.77,155.66z"/>
	<path class="st0" d="M788.4,487.67c0.98-1.65,2.18-2.9,4.25-3.25c8.04-1.37,16.09-2.49,25.14-3.02c-2.54,3.15-4.65,5.5-6.46,8.06
		c-1.67,2.36-3.04,4.95-4.69,7.69c-4.71,0.3-7.31-5.01-11.99-4.96l0.31,0.24c-1.21-3.03-3.34-4.85-6.7-5.04L788.4,487.67z"/>
	<path class="st0" d="M801.3,521.37c-0.25,4.72,1.98,8.44,2.42,13.12c-8.95-2.94-13.32-10.05-19.04-17.87
		C791.01,517.59,795.66,519.83,801.3,521.37z"/>
	<path class="st0" d="M507.57,201.22c4.6-4.42,6.52-10.1,9-15.32c2.38,0.6,3.49,2.04,5.02,3.66c-1.47,4.43-4.87,7.8-7.86,11.27
		C513.1,201.55,510.2,202.63,507.57,201.22z"/>
	<path class="st0" d="M782.75,512.34c1.47-0.59,3.08-1.51,3.02,1.34l0.07,0.08c-0.7-1.07-1.75-1.45-2.96-1.52L782.75,512.34z"/>
	<path class="st0" d="M785.76,513.68c0.66,0.04,1.31,0.07,1.97,0.11c-0.63-0.01-1.26-0.02-1.9-0.02L785.76,513.68z"/>
	<polygon class="st0" points="587.81,161.33 588.41,161.29 588.04,161.32 	"/>
	<path class="st0" d="M649.22,301.91c-0.77-0.73-0.52,0.74-0.63-0.32c-0.02-0.16,0.07-0.47,0.1-0.47c0.61,0.04,0.72,0.36,0.35,0.93
		L649.22,301.91z"/>
</g>
</svg>
