<?xml version="1.0" encoding="utf-8"?>
<!-- Generator: Adobe Illustrator 24.1.1, SVG Export Plug-In . SVG Version: 6.00 Build 0)  -->
<svg version="1.1" id="Layer_1" xmlns="http://www.w3.org/2000/svg" xmlns:xlink="http://www.w3.org/1999/xlink" x="0px" y="0px"
	 viewBox="0 0 3386.36 2059.33" style="enable-background:new 0 0 3386.36 2059.33;" xml:space="preserve">
<style type="text/css">
	.st0{fill:#1A1A1A;}
</style>
<g>
	<path d="M1483.59,693.65c2.52-2.2,0.71-4.6,2.22-6.37c1.9-1.46,4.17-1.09,6.47-0.62c13.02,2.68,26.04,5.33,39.06,8.01
		c0.98,0.2,1.91,0.63,2.89,0.79c6.8,1.1,12.42-0.26,15.96-6.98c3.58-6.79,8.36-12.74,13.25-18.68c6.23-7.55,9.55-16.62,9.03-26.47
		c-0.25-4.69,1-7.62,4.92-9.84c2.3-1.3,4.61-2.72,6.33-5.78c-0.41-2.96-0.29-6.37,0.73-9.98c2.73-9.66-1.99-18.18-5.35-26.81
		c-0.64-1.64-2.11-2.45-3.81-2.91c-9.32-2.56-15.53-10.05-23.14-15.24c-3.7-2.53-5.27-8.19-7.85-12.51
		c-2.86-1.11-4.48,2.61-7.28,1.94c-2.64-0.64-4.1,1.28-5.97,2.69c-1.85,1.4-3.9,0.19-5.28-1.39c-2.92-3.34-4.08-7.55-5.48-11.65
		c-2.04-5.94-2.81-12.36-6.59-17.74c-3.34,1.73-3.76,5.35-5.47,8.11c-1.75,2.82-3.39,5.73-5.39,8.36c-2.14,2.81-5.02,4.32-9.23,3.05
		c-8.21-12.78-10.83-27.99-15.27-42.78c-5.09,3.73-4.63,10.11-9.04,14.22c-4.06-3.25-4.18-7.84-4.3-12.22c-0.2-7.66,0-15.33-0.09-23
		c-0.04-2.93,0.6-5.94-1.13-9.74c-5.59,4.93-10.78,9.84-16.33,14.32c-4.29,3.46-7.96,8.2-14.04,8.46c-3.83-1.69-4.33-4.81-4.5-8.33
		c-0.44-9.03,0.65-18,2.18-26.78c3.24-18.68,7.84-37.05,16.92-53.95c0.1-0.18-0.15-0.54-0.5-1.65c-16.6,5.2-33.53,9.22-51.15,8.38
		c-0.63-0.03-1.21-1.38-2.14-2.53c7.61-9.65,15.14-19.12,24.66-27.01c9.42-7.81,19.68-14.52,29.2-22.04
		c-2.15-3.5-5.07-2.61-7.61-2.65c-9.66-0.14-19.29-0.61-28.73-2.77c-6.07-1.39-12.05-3.15-17.67-6.48
		c2.03-7.67,8.95-10.48,12.61-16.35c-5.44-1.93-9.87,2.71-14.94,2.12c-2.44-2.78-1.32-5.76,0-8.38
		c6.03-11.89,12.56-23.38,23.39-31.87c5.42-4.26,10.12-9.44,15.13-14.18c-4.67-5.25-4.95-7.12-0.26-10.32
		c5.75-3.92,11.99-7.15,18.09-10.54c3.77-2.1,7.67-3.94,11.55-5.92c-0.15-4.32-5.89-2.61-6.57-7.02c9.8-2.09,19.26-5.49,29.45-6.52
		c14.35-1.45,27.75-6.35,42.03-13.34c-8.02-2.79-14.85-5.03-21.57-7.54c-7.16-2.68-14.25-5.58-21.33-8.45
		c-6.6-2.68-13.93-4.02-20.19-10.11c7.46-4.54,14.99-5.62,22.03-7.6c7.36-2.08,14.67-4.27,21.99-6.46
		c6.99-2.09,14.19-3.46,21.31-5.14c7.44-1.76,14.83-3.74,22.33-5.21c7.39-1.45,14.89-2.39,24.01-3.81
		c-8.15-5.71-15.37-10.04-21.69-15.41c-6.47-5.49-13.28-10.83-18.07-17.59c1.02-3.49,3.27-3.87,5.71-3.63
		c7.93,0.78,15.88,1.4,23.77,2.53c13.78,1.97,27.76,2.79,41.18,7.07c3.04,0.97,6.56,0.46,9.83,0.63c0.57-3.72,3.1-4.7,6.14-5.28
		c-10.48-12.7-18.05-26.98-25.15-41.7c4.34-4.15,9.04-3.14,13.38-1.91c8.3,2.35,16.74,4.58,24.61,8.02
		c18.9,8.26,38.04,15.92,57.29,23.27c10.35,3.95,19.6,9.77,28.92,15.56c1.39,0.87,2.57,2.14,5.34,1.91
		c-4.4-18.6-7.7-37.34-9.97-56.41c4.11-1.02,6.61,0.37,8.71,2.58c6.86,7.23,14.31,13.82,20.28,21.99
		c5.83,7.99,11.47,16.1,17.49,25.71c5.34-16.32,3.76-31.82,4.03-47.07c2.43-1.69,3.8,0.26,5.16,1.43c2.8,2.39,5.09,5.19,6.66,8.62
		c7.85,17.24,16.43,34.16,22.21,52.3c1.24,3.88,1.7,7.74,1.98,11.74c1.04,14.56-2.99,28.25-7.05,41.94
		c-1.13,3.81-2.42,7.58-3.62,11.31c1.03,1.92,2.29,0.8,3.33,0.28c15.51-7.78,29.58-17.55,41.54-30.22c0.91-0.96,1.98-1.81,2.7-2.9
		c1.27-1.92,1.88-5.11,3.56-5.79c8.21-3.31,11.87-12.7,20.78-15.01c2.48,0.78,1.92,3.04,2.03,4.91c0.46,8.39-1.21,16.35-3.64,24.43
		c-5.51,18.35-12.32,35.82-26.22,49.67c-0.43,0.43-0.54,1.18-0.8,1.78c1.09,0.97,2.39,1.12,3.65,0.58
		c13.36-5.73,27.2-10.48,38.9-19.51c1.03-0.79,2.23-1.53,3.46-1.86c1.9-0.52,3.9-0.66,6.07-1c3.16,5.14-0.05,9.56-2.43,12.85
		c-10.53,14.56-21.83,28.54-36.97,38.76c-6.03,4.07-12.06,8.12-18.02,12.13c0.6,3.73,2.56,6.32,5.03,8.66
		c5.3,1.09,10.63,0.15,16.6,0.32c-1.84,5.78-8.37,6.32-11.48,11.63c2,7.16,4.2,15.04,6.43,23.01c3.54,1.12,6.64,2.34,9.84,3.09
		c15.98,3.75,28.94,12.86,41.57,22.78c9.52,7.48,14.87,17.88,20.25,28.14c8.19,15.62,12.05,32.34,10.05,50.12
		c-0.94,8.34-1.23,8.87-9.92,8.62c-8.28-0.23-16.54-1.2-24.83-1.64c-11.94-0.64-23.89-1.13-35.84-1.58
		c-2.26-0.08-4.69-0.57-6.82,1.03c-0.61,2.6-0.43,5.14,0.92,7.78c0.81,0.32,1.74,1.06,2.6,0.97c10.25-0.98,20.57,0.12,30.84-1.56
		c13.64-2.23,27.21,0.44,40.61,2.57c12.11,1.93,24.06,4.99,35.52,9.62c3.42,1.38,6.8,2.75,9.52,5.31
		c6.31,5.93,13.16,11.4,18.74,17.94c9.66,11.33,12.94,24.45,7.88,38.99c-1.16,3.33-3.14,5.85-7.65,6.17
		c-3.2-1.91-5.23-5.02-6.05-9.17c-1.68-8.41-5.87-15.95-11.57-21.83c-9.01-9.29-19.19-18.17-33.3-17.61
		c-7.57,0.31-15.23,0.96-22.8,1.86c-2.91,0.35-5.73,1.4-8.92,2.21c-1.08,11.28-8.14,17.22-17.25,22.75
		c-12.67,7.69-26.54,12.15-39.99,17.79c-2.94,1.23-6.6,0.07-9.66,2.77c1.04,3.76,5.36,5.91,5.55,10.12
		c-3.37,5.12-3.37,5.12-14.62,8.92c-0.61,6.49,4.15,12.41,2.69,18.83c-2.8,3.44-5.77,0.34-8.91,0.8c-0.72,3.07-1.97,6.25-2.11,9.47
		c-0.2,4.53-2.26,7.15-5.96,9.56c-8.01,5.21-12.52,12.2-10.6,22.49c1.09,5.83-1.83,11.34-4.8,15.96
		c-4.69,7.27-1.48,13.55,1.24,19.76c2.77,6.34,8.14,10.55,14.9,12.29c12.84,3.31,25.95,5.72,38.61,9.58
		c9.6,2.93,18.99,2.7,28.62,1.55c2.63-0.31,5.27-1.01,7.88-0.9c13.71,0.56,27.2-1.84,40.75-3.08c8.62-0.79,17.23-1.13,25.84-1.62
		c5.63-0.32,11.22-0.3,16.88-1.04c7.94-1.04,16.08,0.54,23.44,3.47c4.34,1.73,7.79,5.88,11.4,9.2c8.45,7.76,18,13.31,28.89,17.19
		c14.08,5.02,27.88,10.9,41.51,17.04c5.82,2.62,11.69,4.71,17.8,6.3c10.29,2.69,20.67,5.06,30.88,8.03
		c8.08,2.35,16.43,2.97,24.6,3.33c14.67,0.65,28.95,4.08,43.58,4.74c14.27,0.64,28.57,1.1,42.78,2.5
		c12.96,1.28,25.97,0.28,38.85,1.4c19.21,1.68,38.37,4.28,55.67,13.99c1.99,1.12,4.28,2.14,6.5,2.32
		c8.69,0.71,16.88,3.64,25.34,5.24c16.64,3.14,30.59,11.76,42.73,22.54c9.52,8.46,18.82,17.88,24.15,30.05
		c1,2.28,2.31,3.98,4.75,4.71c0.63,0.19,1.15,0.7,1.78,0.9c12.88,4.07,21.71,13.52,31.23,22.43c12.45,11.65,23.74,24.06,34.02,37.69
		c8.16,10.82,18.28,20.16,27.52,30.16c7.45,8.06,14.99,16.04,22.3,24.22c15.27,17.1,25.42,37.28,34.49,58.08
		c0.92,2.12,1.51,4.62,3.03,6.21c5.48,5.74,8.34,12.84,10.65,20.12c2.46,7.72,6.6,14.58,10.54,21.47
		c6.19,10.8,10.59,22.17,13.34,34.24c0.96,4.22,1.41,8.6,2.85,12.64c4.02,11.3,4.57,22.6,1.37,34.15c-0.64,2.33,0.5,4.55,1.1,6.8
		c3.19,11.89,5.74,23.93,7.15,36.16c0.44,3.78,1.79,7.04,3.66,10.2c8.14,13.74,16.3,27.34,27.7,38.89
		c7.21,7.3,12.69,16.25,17.68,25.34c2.24,4.08,4.26,8.29,6.72,12.22c12.87,20.6,26.01,41.02,38.72,61.72
		c6.61,10.76,12.66,21.89,18.74,32.97c7.71,14.04,16.76,27.19,25.75,40.41c13.68,20.11,28.74,39.11,44.95,57.24
		c12.19,13.64,24.28,27.38,36.48,41.01c1.97,2.2,4.31,4.06,6.68,6.26c5.79-2.64,11.75-2.44,17.71-2.74
		c10.94-0.55,21.83-1.86,32.8-2.4c3.71-0.18,7.19,0.37,10.75,0.57c16.94,0.92,33.73,3.05,50.25,7c1.98,0.47,3.72,0.62,5.8,0.21
		c19.56-3.86,39.28-6.16,59.22-7.57c29.2-2.07,58.36-4.15,87.64-3.65c5.42,0.09,10.4-1.81,15.69-2.35
		c10.97-1.12,21.8-1.67,32.75,0.08c3.9,0.62,8.02,0.53,11.97,0.11c6.65-0.7,11.66,1.78,15.72,6.8c1.03,1.27,2.2,2.42,3.39,3.71
		c18.71,0.43,37.12,2.51,55.21,7.34c6.1,1.63,11.2,4.1,14.03,9.54c24.82-1.74,48.77-7.27,73.07-10.38
		c4.59-0.59,9.33-0.42,13.97-0.16c9.69,0.54,12.98,6.78,11.38,16.92c-1.76,11.13-8.65,20.3-17.32,27.26
		c-9.31,7.48-19.35,14.15-29.52,20.46c-12.75,7.92-26.8,13.23-40.74,18.69c-1.8,0.7-3.93,0.81-4.7,3.68
		c6.98,0.71,13.8,0.36,20.65-0.32c11.88-1.19,23.7-3.32,35.72-2.82c1.66,0.07,3.35-0.11,5,0.07c4.03,0.45,8.11,1.08,9.69,5.64
		c1.52,4.4,1.16,8.64-2.3,12.06c-5.21,5.15-10.66,10.05-17.13,13.62c-4.66,2.57-9.5,4.81-14.03,7.57
		c-8.97,5.48-19.44,6.66-29.01,10.42c-11.72,4.61-23.72,8.48-36.15,12.87c4.72,6.31,6.54,13.4,9.04,20.19
		c0.91,2.47,1.38,5.13,1.84,7.74c0.54,3.04,0.6,5.93-2.92,7.58c-3.4,1.6-6.58,1.36-9.19-1.2c-2.12-2.08-3.83-4.6-5.61-7
		c-6.38-8.62-14.87-14.11-25.09-17.08c-3.5-1.02-7.02-1.59-10.44-0.71c-0.53,2.37,0.5,3.74,1.48,5.06
		c5.69,7.65,8.49,16.41,10.4,25.64c3.47,16.7-6.52,31.97-23.32,35.6c-6.29,1.36-12.41,1.71-18.74,0.3
		c-3.54-0.78-7.28-1.03-10.91-0.96c-5.62,0.11-10.47,2.24-13.22,7.44c-1.67,3.16-4.32,4.86-7.21,6.61
		c-12.47,7.59-25.88,7.2-39.53,4.85c-3.59-0.62-7.09-1.95-10.7-2.29c-8.57-0.8-16.92-1.12-25.28,2.79
		c-10.44,4.88-21.58,5.5-33.11,2.99c-9.4-2.05-18.74-4.27-27.97-6.95c-5-1.45-9.47-1.34-14.53,0.43
		c-19.88,6.93-40.38,10.74-61.52,10.72c-5.63-0.01-11.32-0.64-16.87,1.09c-1.23,0.38-2.68,0.37-3.97,0.16
		c-15.56-2.61-31.24-0.75-46.85-1.24c-5.33-0.17-10.58-0.34-15.87-1.44c-4.84-1.01-9.91-0.93-14.89-1.23
		c-3.62-0.22-7.12-0.16-10.76-1.42c-9.12-3.15-18.35-0.24-27.48,0.76c-19.78,2.15-39.41,5.42-59.44,5.58
		c-9.34,0.07-18.4-0.62-27.49-2.29c-1.61-0.3-3.7-0.32-4.68-1.33c-6.28-6.41-13.51-3.54-20.63-2.6c-15.86,2.1-31.72,3.19-47.35-1.55
		c-2.85-0.86-5.63-1.99-8.34-3.23c-6.07-2.78-8.99-7.82-9.23-14.28c-0.19-5.31-0.4-10.74,0.49-15.93c0.8-4.68,0.43-9.22,0.72-13.16
		c-1.1-2.19-2.62-2.08-3.78-1.8c-9.96,2.4-20.26,2.39-30.3,4.95c-8.14,2.08-17.19,2.41-25.58-0.36c-4.66-1.53-9.16-1.64-13.75-0.73
		c-22.79,4.52-45.79,7.69-68.89,10.05c-13.86,1.41-27.74,2.54-42.22,3.85c-4.78,6.1-10.7,11.93-14.33,19.49
		c-2.08,4.33-5.92,7.17-8.99,10.63c-9.25,10.44-18.55,20.86-29.99,29.1c-4.6,3.32-9.28,6.5-14.39,8.93
		c-4.71,2.24-7.9,5.37-9.93,10.39c-6.04,14.93-15.2,27.96-25.53,40.26c-7.7,9.16-15.07,18.61-22.36,28.09
		c-3.27,4.26-6.96,7.97-11.59,10.84c0.22,4.92,0.13,9.58,0.69,14.17c0.69,5.61,2.11,6.56,7.4,7.82c2.92,0.7,6.33-0.79,8.73,1.29
		c7.77,6.72,18.03,9.99,24.77,18.1c3.4,4.09,7.25,7.87,10.19,12.26c9.68,14.46,14.32,30.56,14.56,47.94c0.07,4.67,0.14,9.33,0.03,14
		c-0.07,3.11,0.87,5.67,3.11,8.42c9.61-6.25,15.39-14.84,18.77-25.14c2.28-6.95,3.74-14.03,3.54-21.5
		c-0.2-7.09,3.22-11.24,9.66-13.24c3.74-1.16,11,1.9,13.96,5.87c5.11,6.85,8.15,14.66,8.72,23.03c1.06,15.39,0.08,30.73-6.18,45.09
		c-4.53,10.4-11.35,19.47-17.98,28.68c-6.31,8.77-14.62,14.45-24.19,18.55c-8.65,3.7-17.51,5.31-27.21,3.64
		c-9.47-1.63-19.02-2.9-28.52-4.52c-11.51-1.97-22.74-5-33.78-8.59c-15.22-4.95-31.15-6.87-46.4-11.63
		c-2.77-0.86-5.95-0.54-8.94-0.5c-15.03,0.21-29.8-2.25-44.55-4.54c-13.65-2.12-25.81-8.51-37.83-14.99
		c-2.05-1.1-3.83-2.84-5.97-3.61c-14.33-5.15-26.06-14.63-38.34-23.08c-12.62-8.68-23.66-19.32-34.09-30.54
		c-6.48-6.98-10.17-15.58-13.42-24.32c-2.45-6.58-5.36-12.85-8.9-18.9c-6.37-10.91-11.91-22.21-16.44-34.05
		c-2-5.24-4.64-10.26-7.95-14.93c-3.83-5.42-6.72-11.42-9.27-17.58c-0.82-1.99-1.21-4.62-5.02-4.33c-0.49,5.43,4.66,9.21,4.83,15.12
		c-4.24-0.54-7.41-2.18-10.34-4.11c-9.19-6.06-18.95-10.91-28.97-15.45c-13.41-6.07-25.39-14.44-35.17-25.56
		c-4.85-5.52-9.94-10.7-15.5-15.51c-3.74-3.24-6.66-7.45-10.45-10.61c-6.06-5.05-12.44-9.05-20.7-10.86
		c-7.2-1.58-13.65-6.61-20.4-10.18c-1.46-0.77-2.66-2.11-4.17-2.71c-11.36-4.52-20.91-11.55-28.46-20.92
		c-3.82,1.6-3.16,6.45-7.14,7.4c-4.85-0.67-5.73-5.8-9.26-9.02c-3.65,0.1-7.3,2.45-11.85,1.02c-5.57-1.75-5.84-0.87-6.14-6.94
		c-0.03-0.63-0.15-1.25-0.22-1.85c-2.31-2.63-5.45-2.83-8.31-1.94c-7.1,2.22-14.58,1.05-21.71,2.88c-1.88,0.48-4.05,0.41-5.97,0.03
		c-12.23-2.41-24.58-0.81-36.86-1.2c-2.3-0.07-4.63,0.31-6.91,0.69c-18.01,2.98-36.18,5.09-54.37,4.31
		c-10.85-0.46-21.78,2.02-32.6-0.87c-2.07-0.55-4.56,0.45-6.85,0.77c-10.6,1.49-22-4.95-25.25-15.04
		c-3.26-10.12-5.92-20.63-6.27-31.18c-0.31-9.51,1.58-19.19,4.22-28.44c1.07-3.76,1-6.84-0.15-10.54
		c-2.56-8.21-3.37-16.58-2.89-25.37c0.63-11.45,3.11-22.21,6.53-33.08c3.27-10.39,1.83-21.8,5.59-32.25
		c0.61-1.7-0.24-3.24-0.73-4.82c-3.19-10.22-5.15-20.63-4.94-31.39c0.09-4.43-1.09-8.51-3.29-12.36
		c-3.91-6.85-3.99-13.89-0.69-20.97c1.54-3.31,3.19-6.57,5.02-9.73c6.19-10.72,10.91-22.03,14.16-33.98
		c0.72-2.67,1.05-5.04,0.08-7.74c-2.61-7.29-2.58-15.01-3.03-22.61c-0.15-2.57,0.63-5.27,1.35-7.8c2.34-8.3,4.08-16.67,5.51-25.21
		c1.4-8.32,3.69-16.94,10.79-22.93c1.97-1.66,2.41-4.01,2.01-6.39c-3.41-20.18-1.2-40.54-1.93-60.8
		c-0.48-13.28-0.96-26.58-2.19-39.8c-0.55-5.86-2.37-11.79-4.61-17.28c-6.65-16.33-11.25-33.34-17.04-49.95
		c-3.94-11.29-6.76-22.96-11.88-33.85c-1.61-3.42-3.8-6.14-6.54-8.66c-12.73-11.7-25.77-23.12-37.89-35.43
		c-6.52-6.62-13-13.34-19.45-20.07c-1.29-1.35-2.48-3.05-4.32-2.97c-1.63,1.09-1.24,2.11-0.58,2.84c4.76,5.27,7.79,11.4,10.39,18
		c9.3,23.56,15.73,47.97,22.05,72.41c1.7,6.57,4.08,12.61,7.86,18.18c2.06,3.03,3.91,6.2,5.76,9.36c6.33,10.81,6.22,22.16,2.26,33.6
		c-1.28,3.72-1.92,6.93,1.2,9.87c-10.82,13.86-18.72,28.96-23.03,45.25c-2.54,9.64-8.12,17.28-11.85,26.02
		c-2.04,4.78-6.24,8.23-10.39,11.78c-12.7,10.87-26.59,19.92-40.5,29.04c-7.48,4.9-15.07,7.78-24.3,6.89
		c-9.28-0.9-18.52-0.18-27.43,3.67c-4.61,1.99-8.08,4.56-10,9.04c-2.86,6.7-5.55,13.47-8.21,20.25
		c-10.57,26.94-21.65,53.66-33.95,79.88c-2.8,5.97-4.8,12.35-6.84,18.65c-2.37,7.32-5.43,14.28-9.4,20.87
		c-10.99,18.23-21.92,36.49-32.85,54.75c-1.02,1.71-2.27,3.43-2.71,5.31c-1.4,6.04-4.89,10.82-8.45,15.67
		c-4.92,6.71-9.84,13.44-14.3,20.44c-5.05,7.93-11.28,14.84-17.83,21.44c-9.37,9.45-19.09,18.54-28.86,27.57
		c-10.79,9.97-22.37,18.88-34.21,27.3c-6.59,4.69-14.35,8.12-21.47,12.32c-2.32,1.37-4.47-0.47-7.35-0.9
		c-4.39,7.32-10.74,13.29-15.63,20.39c-3.9,5.65-8.76,10.37-14.78,13.1c-13.95,6.33-26.37,15.55-40.67,21.17
		c-4.32,1.7-8.46,3.95-12.88,5.33c-13.68,4.27-26.94,9.64-40.06,15.32c-6.69,2.9-13.05,6.57-19.62,9.75
		c-9.3,4.5-18.8,8.55-29.08,10.16c-7.92,1.24-15.91,1.9-23.69-0.95c-5.71-2.09-7.32-5.32-7.15-11.31
		c0.35-12.64,7.89-20.68,16.92-27.96c10.6-8.55,21.19-17.11,31.75-25.71c0.73-0.59,1.16-1.54,1.71-2.28
		c-1.09-1.42-2.46-1.17-3.56-0.67c-8.2,3.7-17.09,5.4-25.3,9.17c-5.07,2.32-10.84,3.08-16.26,4.65
		c-13.15,3.81-25.11,10.57-37.9,15.27c-16.54,6.08-33.17,11.95-49.43,18.69c-12,4.98-24.48,8.47-36.64,12.93
		c-8.3,3.04-17.27,4.35-26.01,6.07c-15.97,3.15-32.1,5.55-47.95,9.19c-14.61,3.36-29.46,5.01-44.15,7.72
		c-8.11,1.5-16.08,3.73-24.2,5.11c-7.51,1.28-15.14,1.48-22.72,0.49c-2.78-5.29-1.87-9.33,2.22-12.76c1.53-1.28,3.03-2.62,4.69-3.71
		c16.45-10.7,32.02-22.77,49.31-32.14c6.96-3.77,9.67-9.91,10.39-17.04c0.3-2.99,1.23-5.06,3.3-6.83c3.79-3.24,7.49-6.62,11.54-9.5
		c10.55-7.51,20.32-15.96,29.91-24.63c6.22-5.62,13.15-10.16,20.53-14.08c3.82-2.03,7.67-4.04,11.24-6.46
		c2.43-1.66,4.73-3.72,5.9-6.62c5.22-12.9,15.95-21.13,25.81-29.97c16.14-14.48,34.2-26.37,53.29-37.94
		c-0.67-7.12,3.18-13,6.91-18.77c4.87-7.53,10.13-14.83,15.5-22.03c2.77-3.71,5.73-7.43,10.32-9.19c2.61-1,4.53-2.97,6.05-5.09
		c9.81-13.71,23.11-23.8,35.65-34.68c5.02-4.35,9.82-8.96,14.89-13.25c3.72-3.14,6.18-6.94,6.98-11.68
		c2.03-11.96,8.68-21.47,16.11-30.52c7.6-9.27,15.43-18.35,24.24-26.53c2.72-2.52,4.9-5.28,5.75-9.11
		c3.62-16.3,10.07-31.65,16.03-47.16c0.36-0.93,0.88-1.81,1.15-2.77c6.51-22.72,21.09-40.43,36.08-57.84
		c2.44-2.84,4.02-5.55,4.85-9.4c2.03-9.38,4.85-18.63,7.82-27.77c3.49-10.75,7.48-21.34,11.23-32.01
		c1.99-5.67,3.11-11.49,3.34-17.53c0.19-4.96,0.81-9.91,1.29-14.86c1-10.38-1.94-20.46-2.41-30.75
		c-0.52-11.53-2.59-22.87-2.31-34.62c0.24-10.12,0.09-20.56-1.03-30.39c-2.18-2.45-4.71-1.99-6.89-1.74
		c-11.86,1.36-23.83-1.57-35.68,1.14c-2.85,0.65-6.01,0.39-8.97,0.06c-16.56-1.83-33.19-1.79-49.81-2
		c-4.29-0.05-8.6-0.66-12.85-1.31c-23.49-3.59-47.15-2.36-70.75-2.66c-3.96-0.05-7.98,0.62-11.84-0.62
		c-1.74-2.27-0.62-4.54-0.12-6.69c4.03-17.32,9.65-33.95,21.37-47.84c2.62-3.11,4.29-6.73,5.67-10.49
		c5.95-16.23,15.86-29.76,27.55-42.35c8.69-9.36,18.36-17.32,28.84-24.41c3.38-2.29,5.81-5.17,8.14-8.54
		c9.66-14.03,20.46-27.01,35.65-35.6c3.45-1.95,6.93-4.2,9.65-7.03c9.46-9.85,21.57-15.43,33.45-21.35
		c3.06-1.53,5.67-3.28,8.11-5.58c11.13-10.49,22.42-20.81,34.35-30.41c5.7-4.58,10.99-9.66,16.52-14.44
		c3.78-3.27,7.66-6.46,12.21-8.59c3.72-1.74,6.63-4.4,9.44-7.24c6.6-6.68,14.2-11.99,22.29-16.72
		c12.63-7.39,24.98-15.27,38.39-21.26c0.91-0.41,1.85-0.8,2.66-1.37c16.14-11.24,33.63-20.21,50.57-30.1
		c12.3-7.18,22.4-16.61,30.86-27.95c10.66-14.27,23.19-26.55,38.51-35.79c4.26-2.57,8.65-4.99,13.17-7.06
		c3.63-1.66,7.4-2.58,8.55-7.35c0.57-2.33,3.53-2.85,5.63-3.76c3.04-1.32,6.59-1.21,9.98-3.88c0.52-1.97-1.4-6.62,3.57-6.71
		C1463.04,694.17,1473.13,690.21,1483.59,693.65z M2504.7,1541.95c2.96,1.96,5.28,1.73,7.51,1.05c10.82-3.3,22.34-2.84,33.15-6.25
		c1.85-0.59,3.94-0.4,5.92-0.61c10.55-1.1,21.11-2.12,31.65-3.35c12.51-1.45,24.95-3.71,37.5-4.43c9.97-0.57,19.8-2.08,29.71-2.88
		c2.24-0.18,4.61-0.17,5.71-2.74c-14.85-17.51-21.68-23.33-39.97-34.01c-4.59-2.68-9.29-5.18-13.77-8.04
		c-8.08-5.17-16.92-9.19-23.59-16.5c-2.71-2.97-6.63-4.63-10.78-4.39c-4.27,0.24-7.68-1.68-11.22-3.45c-2.66-1.33-5.14-3.41-7.95-4
		c-4.52-0.94-7.71-3.75-11.19-6.25c-1.83-1.32-2.93-3.73-5.65-3.8c-2.13,1.82-2.65,4.43-3.56,6.89
		c-3.85,10.34-4.93,21.32-7.59,31.92c-4.26,16.99-5.32,34.82-13.25,50.89C2505.92,1534.91,2505.62,1538.35,2504.7,1541.95z
		 M1458.17,981.33c-3.45-1.29-5.99,0.54-8.49-1.87c-4.4-4.22-4.77-4.01-8.9-1.17c-6.53,4.49-12.55,9.94-19.54,13.52
		c-9.47,4.85-16.36,12.35-23.61,19.61c-2.1,2.1-4.1,4.34-4.66,7.37c1.05,2.31,2.83,3.75,4.89,4.94c7.2,4.17,14.47,8.16,22.53,10.51
		c10.51,3.07,20.85,6.81,31.5,9.23c16.58,3.78,32.56,9.23,48.36,15.35c1.47,0.57,3.04,1.56,4.63-0.9c-1.2-3.28-4.18-5.53-6.76-7.96
		c-6.1-5.73-11.4-12.11-15.95-19.1c-3.44-5.29-6.43-10.87-9.88-16.15C1465.59,1004.49,1458.82,994.32,1458.17,981.33z
		 M2283.27,1706.09c-3.7,8.38-3.7,8.38,0.64,55.48c1,10.87,8.12,36.91,11.43,41.69c2.73-2.05,2.65-5.02,2.64-7.97
		c-0.02-6.07,1.53-11.91,3.18-17.64c2.94-10.21,6.7-20.19,9.48-30.44c1.85-6.83,5.97-13.29,3.83-20.97
		c-1.71-6.15-1.01-12.34,0.51-18.48c0.27-1.1,1.37-2.46-1.1-4.25c-4.5,1.54-9.77,4.87-15.07,4.03
		C2293.48,1706.71,2287.95,1711.15,2283.27,1706.09z M2090.47,1288.38c3.66-3.94,3.77-7.3,4.43-10.53
		c1.28-6.24,2.69-12.38,10.4-14.11c2.34-0.53,3.2-2.82,3.56-5.42c1.03-7.51,2.46-14.97,3.71-22.46c0.33-1.98,0.46-3.96-1.18-6.59
		c-3.43-2.23-7.76-4.71-11.69-7.71c-3.82-2.92-6.46-7.3-11.82-10C2084.35,1237.3,2086.74,1262.04,2090.47,1288.38z"/>
	<path d="M1816.64,601.2c-0.66,4.1-4.75,2.14-4.64,6.83c-0.77-2.43-1.23-3.1-1.12-3.64C1811.52,601.44,1813.01,599.83,1816.64,601.2
		z"/>
	<path d="M2393.31,1955.8c0-1.92,0-3.84,0-5.75c0.14,0,0.28,0,0.42,0c0,1.89,0,3.77,0,5.66
		C2393.59,1955.74,2393.45,1955.77,2393.31,1955.8z"/>
</g>
<g>
	<path class="st0" d="M1982.66,1481.95c0.32-7.2,2.15-14.23,0.47-21.68c-1.02-4.51-2.01-9.03-3.28-13.48
		c-2.16-7.59-5.76-13.59-14.47-13.07c8.62-20,8.13-38.86-2.51-58.2c8.88-9.02,7.92-21.78,9.32-33.88c0.15-1.32-0.12-2.68,0.05-3.99
		c1.33-10.26-2.66-17.92-10.78-24.15c-6.61-5.07-6.48-6.51-3.04-14.38c3.89-8.91,7.98-17.58,16.38-23.35
		c5-3.43,10.03-6.08,16.33-6.73c10.22-1.06,20.33-3.05,30.68-2.92c4.37,0.06,8.51,0.92,12.77,1.69
		c17.12,3.06,25.83,14.72,32.12,29.57c4.72,11.14,7,23.02,8.75,34.63c1.61,10.68-1.91,21.72-9.23,30.65
		c-5.5,6.71-11.42,13.01-18.66,17.93c-1.63,1.11-3.34,2.2-4.4,4.62c6.43,1.56,9.99-4.57,15.06-5.4c14.39,17.8,5.72,44-3.82,56.64
		c-1.34,1.77-3.95,2.7-3.73,5.53c-0.83,0.14-1.67,0.29-2.5,0.43c0.26,0.34,0.51,0.96,0.78,0.97c1.01,0.04,1.65-0.48,1.54-1.61
		c3.45,0.62,5.12-2.71,8.33-3.64c6.88,1.68,10.25,7.63,13.1,13.42c2.15,4.36,4.75,8.75,5.37,13.81c0.16,1.29,0.59,2.65,1.27,3.75
		c5.22,8.43,6.15,18.03,7.67,27.47c0.87,5.46,3.9,9.82,7.43,13.77c8.16,9.14,16.45,18.14,22.99,28.6c1.86,2.97,4.04,6.07,8.03,6.74
		c0.14,0.83,0.29,1.67,0.43,2.5c0.34-0.26,0.96-0.51,0.97-0.78c0.04-1.02-0.48-1.65-1.61-1.54c-0.07-4.65-0.22-9.31-2.47-13.53
		c-2.94-5.5-1.7-11.07,0.07-16.37c4.44-13.27,2.41-25.44-5.63-36.63c-2.23-3.11-3.73-5.65-2.75-9.89
		c3.45-14.83-0.84-28.18-9.01-40.55c-0.54-0.81-1.06-1.63-1.69-2.6c8.8-15.15,6.77-30.99,3.39-48.01
		c4.96-8.88,1.96-19.69,2.37-30.11c0.4-10.21,0.94-20.58-3.58-30.58c5.1-3.45,6.5-9.09,8.55-14.21c2.34-5.84,3.96-11.96,5.82-17.98
		c2.59-8.41,1.95-10.18-5.45-15.95l0.29,0.17c3.43-5.77,9.17-7.7,15.2-7.82c15.31-0.3,30.7-0.85,45.94,0.23
		c15.83,1.13,29.96,8.58,40.07,20.26c10.43,12.04,15.42,27.12,11.38,43.7c-1.02,4.19-2.06,8.41-3.55,12.44
		c-4.52,12.29-13.8,19.99-25.27,25.44c-4.42,2.1-8.85,4.16-15.22,7.14c7.88,1.41,12.76-1.68,18-2.92
		c9.78,5.75,10.91,14.86,8.62,24.28c-1.8,7.37-2.18,15.14-5.48,22.14c-1.57,3.34-1.14,6.33,0.94,9.37
		c4.81,7.03,6.81,14.97,7.93,23.36c0.87,6.55,2.59,13.02,4.39,19.39c2.16,7.69,3.5,15.54,5.31,23.29
		c1.78,7.67,4.77,15.06,11.01,20.61c6.03,5.37,11.15,11.41,13.24,19.53c0.57,2.22,1.63,4.38,2.77,6.4
		c11.46,20.27,17.18,42.32,20.53,65.14c0.67,4.59,2.02,9.08,2.54,13.68c0.82,7.2,0.94,14.35,0.39,21.71
		c-1.15,15.24-1.68,30.49-4.86,45.51c-2.14,10.14-2.11,20.46-2.16,30.79c-0.04,8.62,0.25,17.21-0.91,25.88
		c-0.72,5.36,0.7,11.3,2.29,16.64c3.81,12.78,5.56,25.97,8.41,38.94c1,4.56,2,9.08,3.66,13.41c3.81,9.94,7.13,19.96,9.75,30.33
		c2.02,8.02,4.23,15.99,6.03,24.09c1.91,8.57,1.42,17.09,1.39,26.13c-5.09,1.38-8.96,3.75-11.86,8.28
		c-2.22,3.46-6.22,5.89-9.67,8.44c-10.41,7.69-17.63,17.93-23.79,29.06c-1.95,3.53-3.39,7.18-2.41,11.33c2.34,0.89,3-0.75,3.48-2.26
		c3.84-12.09,12.44-20.16,22.59-26.94c5.23-3.49,9.59-8.07,15.51-10.76c8.1-3.66,15.5-3.39,23.87-0.32
		c20.52,7.53,32.51,23.54,43.07,41.16c1.84,3.08,2.87,6.72,3.1,10.45c0.45,7.28,0.24,14.56,1.33,21.86
		c0.74,4.9-1.05,9.82-4.64,14.23c-5.95-5.43-12.19-4.18-18.46-0.89c-6.89,3.61-12.98,7.93-16.3,15.46c-1.18,2.67-2.18,6.74-6.9,5.33
		l0.26,0.16c1.26-9.41,0-11.64-9.71-11.19c-1.66,0.08-3.37,0.14-4.99-0.16c-6.12-1.11-11.89-0.47-17.32,2.77
		c-1.06,0.63-2.5,0.64-3.62,0.91c-9.49-10.63-11.05-10.97-23.94-5.49c-0.6-0.2-1.5-0.22-1.75-0.64c-4.44-7.4-11.04-9.91-19.43-9.46
		c-7.56,0.41-15.27-2.12-23.04,1.46c-3.55-6.22-7.83-11.34-14.97-13.78c-6.93-2.36-12.92-2.34-17.78,3.57
		c-10.52-5.86-20.03-13.8-32.86-7.54c-3.74-1.87-7.54-3.86-11.42-5.69c-9.29-4.37-9.31-4.34-18.71-2.86
		c-1.03-12.04-7.51-21.45-23.31-22.25c-0.14-7.9-2.93-14.45-9.84-19.25c-4.01-2.79-6.55-7.45-11.34-9.57
		c-3.37-1.49-3-4.83-3.01-7.83c-0.03-8.87-2.5-16.98-7.14-24.56c-2.49-4.06-5.01-7.87-9.13-8.74
		c-2.68-26.21-14.61-47.05-31.65-66.15c3.28-6.37,2.43-13.31-1.16-19.52c-3.29-5.68-7.07-11.29-13.49-14.67
		c3.65-11.37-0.11-21.21-5.59-30.46c-3.71-6.27-8-12.27-12.6-17.93c-4.64-5.7-10.29-10.3-18.27-10.43
		c0.46-6.19,1.3-12.17-3.24-17.65c2.42-2.69,6.66-2.89,7.54-6.35c0.48-1.89,0.85-4.01,0.5-5.89c-1.18-6.47-4.63-10.93-11.2-11.06
		c-4.75-17.02-8.84-33.53-25.97-42.8c-1.13-17.27-11.81-29.94-23.39-42.11c-3.3-3.47-8.58-3.17-12.76-6.38
		c5.12-8.29,2.9-15.83-1.87-23.24c-5.58-8.67-10.58-17.82-21.24-21.32c8.23-18.5-7.24-42.04-25.51-43.91
		c-1.18-8.75-2.67-17.44-6.83-25.62c-2.44-4.79-4.94-8.46-10.86-9.13c1.24-7.72,2.06-14.9-0.14-22.07
		c-2.04-6.65-3.66-13.42-6.66-18.94c-2.98-2.82-6.54-0.86-9.25-2.99c-0.11-0.76-0.55-1.79-0.32-2.62
		c2.83-9.93,6.71-19.48,11.33-28.7c3.52-7.02,9.01-12,16.03-15.78c12.62-6.8,25.8-10.24,40.18-9.81
		c12.83,0.38,23.09,5.11,30.95,15.39c6.98,9.13,12.19,18.89,13.92,30.45c2.33,15.54,0.67,29.78-11.62,41.12
		c-0.47,0.44-0.78,1.08-1.07,1.67c-0.08,0.17,0.19,0.51,0.45,1.12c4.63-1.49,6.96-5.82,11.01-8.94c4.66,3.53,8.55,7.76,10.86,13.4
		c1.26,3.08,2.78,6.06,3.85,9.2c2.52,7.4,5.81,14.75,2.04,23.35c5.02-3.2,2.47-8.15,5.03-12.02c7.29,4.56,14.99,8.41,19.76,15.98
		c6.01,9.53,12.56,18.91,15.21,30.03c1.59,6.66,5.38,11.51,10.39,15.35c7.47,5.73,13.98,12.29,19.87,19.56
		c0.33,0.41,1.16,0.43,1.75,0.63c-0.06,1.42,0.52,2.19,2.04,1.98c0.99,6.78,4.15,12.06,10.13,15.75
		c6.13,3.78,12.66,7.11,17.16,13.06c0.43-0.61,0.56-0.62,0.39-0.05c-0.21-0.06-0.41-0.13-0.62-0.19c0.13-0.93,0.69-2.11,0.31-2.76
		c-3.02-5.24-7.04-10.15-12.44-12.34c-5.36-2.18-8.46-5.92-11.64-10.07c-0.97-1.26-1.63-2.91-3.5-3.2c0.09-1.42-0.5-2.17-2-2.01
		c0.58-2.26-0.95-3.76-2.02-5.38c-3.59-5.49-9.12-9.74-10.58-16.62c-0.19-0.87-1.03-1.83-1.83-2.31c-4.2-2.5-7.4-5.42-5.72-10.95
		c-5.15-5.55-5.53-13.46-9.67-19.55c-1.86-2.74-3.15-5.85-4.89-8.68c-1.31-2.14-1.66-4.3-1.04-6.67l-0.28,0.25
		c0.88-0.25,1.77-0.51,2.65-0.76c-0.49,1.48-0.15,2.44,1.58,2.55c0.85,3.13,2.66,5.3,5.97,5.97c-0.06,1.42,0.52,2.19,2.04,1.98
		c-0.26,1.78-0.26,3.45,1.85,4.18c-0.22,3.96,1.89,7.02,3.88,10.13c0,3.87,0,7.73,0,12.46c5.18-2.23,6.77,2.64,10.24,3.27
		c3.22,8.13,6.44,16.27,9.68,24.39c0.32,0.8,0.87,1.52,1.52,2.63c-0.1-8.25-2.87-17.32-7.18-23.21c-1.08-1.48-1.78-3.62-4.2-3.65
		c0.6-5.47-5.04-4.8-7.54-7.5c-0.22-1.48-0.45-3.05-0.68-4.62c-0.22-1.46,0.23-3.32-2.08-3.56c1.1-4.29-0.06-7.72-3.85-10.16
		c0.43-1.84,0.5-3.53-1.83-4.16c0.08-1.42-0.51-2.17-2-2.01c-0.03-3.98-2.41-5.58-6.01-5.94c0.25-1.34-0.64-1.94-1.62-2.49
		c-0.79-0.61-1.58-1.21-2.37-1.82L1982.66,1481.95z M2220.45,1907.62c1.53,0.04,2.1-0.71,1.8-2.18c1.61,0.01,2-0.92,1.79-2.32
		c1.92,0.82,3.82,0.7,5.8,0.06c4.71-1.52,9.59-2.62,14.17-4.47c8.56-3.46,17.36-3.73,26.35-3.05c3.29,0.25,6.61,0.36,9.91,0.33
		c1.6-0.02,3.38-0.31,2.93-2.87c-3.32-1.63-6.99-1.36-10.58-1.71c-17.56-1.76-33.1,4.47-48.33,12.01c-0.59,0.77-1.18,1.54-1.77,2.31
		c-1.22,0.19-2.07,0.69-1.86,2.13c-0.3,0.05-0.63,0.04-0.89,0.18c-0.14,0.07-0.14,0.4-0.2,0.61
		C2220.16,1908.8,2220.45,1908.46,2220.45,1907.62z M2124.71,1710.31c0.59-0.88,1.17-1.77,1.76-2.65c1.83,0.26,3.1-0.78,4.44-1.79
		c7.42-5.62,14.73-11.39,20.01-19.16c3.11-4.56,7.21-6.44,12.49-6.6c3.31-0.1,6.61-0.42,9.91-0.72c1.86-0.17,3.66-0.59,4.77-3.34
		c-9.25,3.19-18.7-0.41-27.75,3.14c-3.37,6.87-8.94,12.09-14.1,17.67c-3.3,3.56-7.86,6.06-9.55,11.02
		c-1.34,0.12-1.87,0.88-1.74,2.18c-0.53,0.54-0.94,0.12-0.55-0.11C2125.54,1709.28,2123.87,1709.28,2124.71,1710.31z"/>
	<path class="st0" d="M1082.83,1643.6c-4.56-0.4-7.4,3.05-10.35,5.38c-12.63,10-27.22,16.46-41.36,23.75
		c-2.36,1.22-4.87,2.17-7.11,3.56c-11.65,7.2-24.41,12.01-36.97,17.26c-23.85,9.98-48.1,18.93-71.06,31.1
		c-19.61,10.4-40.13,19.09-60.15,28.74c-7.48,3.6-14.78,7.57-22.94,9.44c-3.78,0.86-7.65,1.36-12.38,2.18
		c2.81,3.82,6.84,1.43,9.31,3.26c-9.05,4.08-9.05,4.08-25.04,1.01c-3.1-4.09-2.08-8.09,0.94-11.64c3.01-3.54,6.27-6.91,9.73-10.02
		c14.1-12.64,28.82-24.55,44.89-34.62c7.58-4.75,15.5-9.06,23.57-12.92c20.68-9.9,40.5-21.42,60.78-32.08
		c1.77-0.93,3.57-1.81,4.17-3.96c2.5,0.37,4.39-0.91,6.42-2.1c14.28-8.38,28.03-17.58,41.61-27.03c2.85-1.98,6.52-3.31,7.69-7.18
		c2.66,0.58,4.36-1.3,6.21-2.58c16.62-11.59,33.84-22.43,49.65-35.04c31.9-25.45,64.45-50.2,93.79-78.69
		c17.16-16.66,34.48-33.2,50.4-51.1c1.71-1.93,4.23-3.43,3.87-6.59c1.46,0.11,2.14-0.55,2.01-2.02c1.26,0,1.84-0.85,2.32-1.83
		c0.64-0.69,1.28-1.38,1.93-2.07c1.14-0.08,1.76-0.78,2.14-1.78c0.98-0.55,1.64-1.31,1.54-2.52c1.26,0.17,1.89-0.63,2.44-1.56
		c2.94-2.06,5.63-4.27,5.49-8.35c1.55,0.42,2.16-0.37,2.27-1.78c2.4-1.33,4.29-2.99,3.86-6.11c3.13-0.98,4.28-3.11,3.62-6.28
		c4.39-0.38,4.51-3.19,3.7-6.52c4.56,1.09,3.81-2.72,4.66-5.05c1.04-0.43,2.55-0.65,0.94-2.21c-0.22,0.83-0.44,1.66-0.66,2.49
		c-2.27,1.02-3.48,3.05-4.75,5.02c-1.21,2.17-2.42,4.35-3.63,6.52c-1.69,1.8-3.95,3.26-3.68,6.21c-3.04,0.94-4.21,3.06-3.86,6.14
		c-1.52-0.39-2.11,0.42-2.28,1.78c-2.68,2.23-5.67,4.27-5.42,8.4c-1.27-0.19-2.18,0.18-2.45,1.56c-1.32,0.35-1.77,1.22-1.54,2.52
		c-1.5-0.37-2.47-0.08-2.13,1.77c-1.35,0.04-2.09,0.64-1.91,2.09c-1.31-0.09-2.24,0.33-2.36,1.8c-1.45-0.13-2.12,0.54-2.05,1.98
		c-5.29,1.99-7.57,7.19-11.32,10.81c-17.51,16.86-34.81,33.94-52.11,51.02c-9.96,9.83-20.34,19.14-31.58,27.5
		c-5.06,3.77-9.95,7.76-14.78,11.82c-14.5,12.2-28.83,24.63-44.15,35.79c-15.32,11.15-30.98,21.82-46.47,32.73
		c-1.56,1.1-3.66,1.83-3.54,4.33c-3.03-0.56-4.83,1.72-6.97,3.11c-11.63,7.55-23.37,14.93-34.74,22.84
		c-4.82,3.35-10.85,4.82-14.69,9.62c-2.77,0.08-4.99,1.53-7.33,2.81c-15.68,8.59-31.41,17.1-47.14,25.6
		c-0.83,0.45-1.84,0.54-3.02,0.86c-3.52-2.56-3.27-5.92-0.78-8.49c5.52-5.69,9.75-12.41,15.98-17.61
		c18.58-15.49,37.45-30.51,57.92-43.44c0.84-0.53,1.64-1.18,2.55-1.53c11.03-4.23,18.56-13.57,28.42-19.53
		c2.32-1.4,5.31-2.94,5.61-6.42c3.07,0.29,5.08-1.04,6.05-3.96c4.58-1.11,7.77-3.96,10.07-7.95c7.28-3.66,13.37-8.95,19.41-14.29
		c0.38-0.33,0.3-1.18,0.43-1.8c5.44-1.62,9.43-4.95,11.94-10.05c3.74-0.55,6.82-2.01,8.13-5.92c3.58-0.78,6.76-2.09,8-6
		c4.56-1.14,7.85-3.87,10.03-8c10.92-4.85,20.01-12.14,27.85-21.06c0.17-0.19,0.04-0.64,0.04-0.97c6.46-2.89,11.85-7.62,15.99-14.03
		c4.83-0.48,7.45-3.19,8.03-7.96c1.51,0.16,2.1-0.59,2-2.02c0.62-0.17,1.41-0.14,1.83-0.52c10.5-9.64,20.36-19.9,29.7-30.66
		c0.53-0.61,0.32-1.85,0.45-2.8c2.49-0.16,3.83-1.49,4.05-3.97c5.25-2.2,8.29-6.83,11.73-10.94c1.74-2.08,4.9-3.5,4.24-7.08
		c4.83-3.71,9.52-9.96,11.99-16.01c1.5,0.17,2.09-0.58,2.02-2c5.52-3.35,9.86-7.71,11.98-13.97c3.38-1.63,5.61-4.12,6-7.99
		c3.04-1.15,4.33-3.25,3.53-6.49c1.5,0.63,2.35,0.2,2.45-1.48c0.3-0.09,0.63-0.12,0.87-0.29c0.13-0.09,0.08-0.42,0.11-0.63
		c-0.6-0.08-0.85,0.3-0.76,1.14c-1.35-0.34-1.92,0.54-2.41,1.54c-1.54,1.94-3.98,3.37-3.6,6.38c-3.64,1.43-5.28,4.37-6.01,8
		c-4.81,1.79-6.51,6.89-10.36,9.73c-1.33,0.98-2.1,2.43-1.65,4.23c-1.49-0.16-2.08,0.59-2.02,2c-5.99,3.84-9.87,9.26-11.98,16.01
		c-6.57,4.57-11.74,10.47-16.15,17.07c-0.13,0.19,0.09,0.62,0.15,0.94c-3.14-0.48-4,1.33-4.01,4c-1.5-0.17-2.45,0.8-3.35,1.73
		c-8.73,9.03-17.45,18.06-26.15,27.13c-1.36,1.42-2.82,2.86-2.48,5.13c-1.44-0.11-2.1,0.56-2.03,1.99c-3.95,1.39-6.6,4.06-8.01,8
		c-6.83,2.96-12.26,7.52-16,14.02c-1.39-0.31-2.62,0.04-3.6,1.05c-5.99,6.22-13.25,10.83-20.07,15.99
		c-1.73,1.31-4.28,2.12-4.21,5.01c-4.75,0.9-8.17,3.47-10.04,7.99c-3.98,0.26-6.72,2.14-8,6c-4.09,0.08-6.76,2.09-8.12,5.92
		c-5.34,1.73-9.67,4.66-11.95,10.03c-5.75,1.18-9.38,5.62-13.55,9.1c-2.36,1.97-6.06,3.02-6.29,6.99
		c-5.22,1.78-6.93,3.13-10.08,7.95c-3.11-0.37-5.15,0.93-6.07,3.94c-2.32-0.62-3.69,1.1-5.26,2.22
		c-7.31,5.2-14.66,10.33-21.84,15.71c-2.63,1.97-5.17,2.65-8.94,1.7c0.75-5.67,3.61-10.01,7.03-13.79
		c7.11-7.88,14.18-15.86,21.99-23.02c11.26-10.32,21.42-21.7,32.57-32.1c2.66-2.48,5.42-4.85,8.22-7.17
		c18.91-15.68,35.77-33.65,55.32-48.68c11.55-8.88,21.88-19.35,32.55-29.33c3.06-2.86,6.91-5.25,8.16-9.7
		c2.43-0.23,3.87-1.45,4.06-3.97c5.92-2.68,9.43-8.01,13.61-12.57c9.4-10.24,16.04-22.68,25.85-32.62c0.55-0.56,0.38-1.84,0.55-2.79
		c1.5,0.17,2.09-0.58,2-2c2.96-0.31,4.51-2.71,6.02-4.68c3.43-4.47,7.54-8.25,11.48-12.21c10.21-10.26,20.49-20.45,30.66-30.74
		c1.75-1.77,4.45-3.15,3.78-6.42c1.51,0.16,2.1-0.59,2-2.02c3.56-1.49,5.37-4.29,5.99-7.98c1.44,0.1,2.11-0.57,2.02-2.01
		c1.73-0.79,3.36-1.65,3.1-4.06c-2.54,0.47-2.87,2.27-2.87,4.29c-1.47-0.16-2.14,0.51-2.05,1.98c-3.74,1.35-5.52,4.17-5.99,7.98
		c-1.44-0.11-2.1,0.56-2.03,1.99c-0.61,0.15-1.42,0.1-1.81,0.48c-17.02,16.47-33.66,33.3-49.71,50.72c-0.53,0.58-0.34,1.83-0.5,2.76
		c-1.57-0.24-2.15,0.52-2,2c-6.19,2.54-9.13,8.39-12.83,13.25c-7.83,10.29-15.22,20.9-24.74,29.77c-1.41,1.32-3.09,2.65-2.37,5.03
		c-3.15-0.47-4.01,1.34-4.01,4.01c-3.95-0.16-5.6,3.19-8,5.33c-18.35,16.4-36.36,33.2-55.94,48.17c-0.77,0.59-1.7,0.98-3.25,1.85
		c-0.71-6.27,1.67-11.11,4.84-15.53c7.35-10.26,14.95-20.28,23.66-29.54c7.94-8.44,13.78-18.95,22.1-26.93
		c11.1-10.64,20.41-22.81,31.19-33.67c1.6-1.61,3.62-3.09,3.25-5.84c4.35-3.4,15.36-16.48,18.29-21.73c0.31-0.1,0.71-0.1,0.93-0.3
		c16.72-14.57,29.95-32.12,42.69-50.08c0.31-0.43,0.05-1.26,0.06-1.9c3.99-1.2,5.79-4.02,5.95-8.05
		c7.07-4.96,11.16-12.24,11.47-20.41c0.52,0,1.03,0,1.55-0.01c-0.16-0.08-0.37-0.26-0.49-0.21c-0.29,0.1-0.54,0.31-0.8,0.48
		c-1.87,3.83-4.03,7.47-6.37,11.05c-1.91,2.93-4.94,5.38-5.16,9.28c-3.43,1.61-5.66,4.11-5.97,8.04c-2.37-0.1-3.38,1.75-4.47,3.3
		c-11.14,15.9-23.22,30.98-37.61,44.1c-1.23,1.12-2.25,2.39-2.33,4.17c-5.99,3.68-9.71,9.46-13.79,14.92
		c-1.7,2.28-4.38,4.08-3.76,7.52c-4.19,0.41-5.72,4.18-8.08,6.72c-6.55,7.07-12.79,14.43-19.2,21.63
		c-3.27,3.66-6.78,7.06-12.68,11.28c2.24-7.02,3.62-12,5.4-16.84c8.85-24.06,20.14-46.95,34.18-68.4
		c3.98-6.08,8.85-11.63,13.66-17.12c11-12.52,19.22-27.1,29.96-39.82c9.44-11.17,18.78-22.42,28.73-33.14
		c1.79-1.93,4.03-3.59,4.07-6.6l-0.36,0.38c1.45-0.13,2.24-0.92,2.37-2.37l-0.37,0.37c1.45-0.13,2.24-0.92,2.37-2.37l-0.37,0.37
		c1.45-0.13,2.24-0.92,2.37-2.37l-0.37,0.37c1.45-0.1,2.11-0.99,2.33-2.32l-0.33,0.34c0.79-0.79,1.58-1.58,2.37-2.37l-0.26,0.25
		c4.26,2.23,5.77,6.23,6.31,10.56c1.45,11.5,2.39,23,5.49,34.32c1.61,5.89,0.56,12.57,0.31,18.88c-0.48,12.31-1.35,24.57,3.45,36.43
		c1.07,2.64,0.57,5.91,0.85,8.88c0.59,6.16,0.26,12.45,4.41,17.87c1.86,2.43,1.04,5.76,0.44,8.7c-1.47,7.23-1.23,14.53-0.85,21.83
		c0.07,1.32,0.09,2.68,0.44,3.94c1.12,4.03,4.33,5.12,7.58,2.47c2.77-2.26,5.33-4.76,8.15-7.3c0.58,1.21,1.09,1.76,1.05,2.25
		c-0.72,8.58-1.19,17.2-2.39,25.72c-0.95,6.69-1.81,13.19,1.59,19.42c1.64,3,0.76,5.5-0.64,8.4c-7.74,16.02-18.48,29.92-29.68,43.6
		c-12.03,14.7-25.3,28.29-38.97,41.32c-15.85,15.1-31.9,30.09-49.33,43.53c-19.47,15.01-38.19,31.01-57.26,46.56
		c-1.54,1.25-3.43,2.19-3.04,4.65l0.39-0.31c-4.85,1.05-7.92,4.3-10.38,8.33L1082.83,1643.6z"/>
	<path class="st0" d="M1250.46,1183.84c-6.98,12-9.69,25.15-10.13,38.84c-0.2,6.21-0.03,12.43-0.03,19.1
		c-4.09-3.42-3.79-8.03-4.82-12c-3.05-11.83-6.9-23.62-8.33-35.67c-1.63-13.7-3.42-27.58-1.83-41.5c1.26-3.45,0.88-7.08,1.21-10.64
		c1.2-0.57,1.89-1.35,0.83-3.34c-0.24,1.55-0.4,2.58-0.56,3.6c-2.72,3.3-2.41,6.94-1.24,10.69c-1.01-0.12-1.95,0.14-2.32,1.12
		c-0.65,1.71,0.15,3.84-1.47,5.29c-1.11-0.53-2.2-1.05-3.29-1.57l0.28,0.34c-0.29-2.94,1.11-6.33-2.24-8.47l0.24,0.47
		c0.57-8.86-2.06-17.41-2.52-26.17c-0.02-0.43-0.47-0.83-0.73-1.28c-1.94,1.58,0.26,4.58-2.09,5.84c-2.46,0.33-2.94-2.55-4.96-2.84
		l0.32,0.4c-0.2-2.96-1.2-5.38-4.3-6.4l0.33,0.37c-1.52-6.7-3.27-13.29-8.31-18.4l0.34,0.41c0.64-1.24,1.5-2.38,3.04-1.94
		c2.56,0.73,5.3,0.74,7.75,1.41c6.83,1.88,13.79,2.08,20.73,2.43c4.29,0.22,7.42,1.98,10.65,4.63c7.71,6.32,15.74,12.27,23.71,18.27
		c2.38,1.79,4.93,4.53,7.51,4.65c6.45,0.31,8.95,4.84,12.33,8.94c4.86,5.9,10.14,11.46,15.26,17.14c2.62,2.91,5.72,4.42,9.69,2.48
		c4.37,8.45,9.91,15.5,16.53,21.57c2.91,2.67,4.25,5.54,4.93,9.32c1.45,8.07,1.65,8.03,6.26,12.72c3.65-0.48,2.36-5.49,6.38-6.39
		c4.08,6.01,6.31,13.58,12.22,18.57c3.8-1.45,3.8-1.45,7.72-6.47c3.46,8.85,5.06,18.31,10.08,27.71
		c7.07-8.68,10.16-18.57,15.88-27.14c3.16,4.53,3.95,9.59,6.22,13.98c1.76,3.42,3.82,3.64,8.33,1
		c5.51,14.13,11.75,27.83,21.83,39.54c4.36-5.05,4.36-5.05,5.39-24.77c2.55-1.35,3.51,0.99,4.81,2.21c2.92,2.73,5.57,5.76,8.56,8.41
		c3.79,3.35,8.11,5.34,13.4,3.72c2.54,3.86,5.08,7.74,7.81,11.89c5.6-2.32,3.69-9.11,8.39-12.53c1.21,5.51,0.97,10.61-0.34,15.57
		c-3.22,12.21-6.51,24.41-10.19,36.48c-1.55,5.07-3.09,9.96-3.72,15.34c-0.68,5.82-3.23,11.46-5.27,17.07
		c-5.59,15.33-13.1,29.82-19.82,44.66c-4.38,9.68-8.34,19.54-12.77,29.2c-3.59,7.84-6.98,15.84-13.08,22.25
		c-0.88,0.92-1.88,2.24-1.9,3.39c-0.09,7.42-6.33,9.41-11.23,13.76c-1.95-3.44-2.78-6.5-3.03-9.72c-0.69-8.6-1.41-17.2-1.94-25.82
		c-1.27-20.58,3.86-40.19,9.05-59.83c2.4-9.1,3.84-18.45,5-27.87c-2.8,3.88-3.47,8.42-4.7,12.8c-3.78,13.42-7.29,26.94-11.73,40.15
		c-2.53,7.51-6.26,14.71-10.16,21.66c-8.62,15.34-16.22,31.32-28.09,44.68c-4.46,5.03-9.73,9.07-14.51,13.7
		c-1.39,1.35-3.33,2.15-6.01,1.65c-3.87-8.66-2.16-17.86-0.81-26.78c1.93-12.79,4.19-25.6,7.37-38.13
		c4.99-19.61,10.66-39.07,19.32-57.48c3.26-6.93,6.2-13.98,8.21-21.39c0.62-2.29,1.02-4.54,0.52-6.88c0.5-0.39,1.03-0.74,1.46-1.18
		c0.09-0.1-0.14-0.52-0.23-0.79c-0.32,0.74-0.64,1.49-0.96,2.23c-6.47,10.81-10.82,22.61-15.86,34.07c-4.4,10.02-8.18,20.3-11,30.95
		c-1.85,7-3.6,14.23-8.12,20.24c-9.58,12.75-19.09,25.56-28.83,38.18c-4.11,5.33-11.07,10.04-18.79,13.61
		c-3.76-3.85-5.46-7.89-4.35-13.94c1.61-8.77,1.8-17.8,2.56-26.72c0.62-7.31,2.02-14.38,4.67-21.31c2.7-7.08,4.16-14.63,6.74-21.77
		c9.46-26.1,23.29-49.87,39.18-72.53c5.13-7.31,10.29-14.65,13.83-22.94c1.02-0.2,1.56-0.83,1.4-1.84c-0.03-0.2-0.72-0.29-1.1-0.44
		c-0.02,0.82-0.04,1.65-0.06,2.47c-3.3-0.06-4.22,2.94-5.57,4.87c-10.12,14.44-20.45,28.76-29.87,43.65
		c-12.5,19.76-21.18,41.37-27.84,63.72c-1.98,6.65-4.72,12.35-10.45,16.34c-2.28,1.59-2.97,5.4-7.76,4.94
		c-0.92-6.47-0.85-13.02-0.24-19.47c2.45-26.15,10.85-50.5,22.82-73.73c7.46-14.48,14.9-28.98,22.24-43.52
		c2.21-4.39,4.05-8.97,6.2-13.77c-3.1-0.14-3.17,2.09-3.94,3.5c-9.35,17.25-19.04,34.32-27.86,51.83
		c-7.62,15.14-14.44,30.69-18.38,47.32c-0.67,2.85-1.65,5.62-2.54,8.61c-2.22-2.3-2.72-4.81-2.81-7.57
		c-0.85-25.44,1.11-50.49,9.67-74.72c4.36-12.32,10.82-23.53,17.58-34.62c1.84-3.01,4.85-5.65,4.34-9.76
		c2.05-0.39,2.82-1.72,2.82-3.73c-2.69,0.21-2.91,1.9-2.62,3.92c-3.93,1.05-5.36,4.66-7.3,7.54c-15.38,22.69-24.6,47.64-27.14,74.99
		c-0.24,2.63,0.04,5.37-3.1,7.06c-0.62-9.35,0.2-18.45,0.97-27.63c1.29-15.53,4.01-30.71,8.21-45.7c1.51-5.38,5.06-10.22,4.4-16.19
		c2.28-1.56,1.56-3.97,1.71-6.13c2.03-0.78,1.66-2.75,2.14-4.3c2.18-0.96,1.21-3.59,2.63-4.96c-0.5-1.16,1.75-2.39-0.26-3.73
		c0.13,1.47,0.25,2.72,0.36,3.97c-2.84,0.66-2.69,2.8-2.45,4.98c-2.2,0.69-1.86,2.66-2.15,4.3c-2.49,1.48-2.2,3.76-1.75,6.08
		c-4.09,3.66-4.86,8.95-6.37,13.75c-2.69,8.52-5.17,17.13-6.46,26.03c-0.12,0.84-0.92,1.59-2.03,3.41
		c-1.78-2.81-1.67-5.24-1.92-7.61c-0.25-2.29-1.03-4.54-1.18-6.83c-0.76-11.24-1.8-22.48-1.97-33.73
		c-0.23-14.95,0.81-29.82,6.84-43.85c0.83-1.92,0.75-3.88,0.26-5.86c2.29,0.1,2.15-1.92,2.82-3.23c0.83-1.16,1.07-2.79,2.64-3.36
		c0-0.55-0.03-1.11-0.01-1.66c0.04-1.33,1.11,0.05,0.12-0.83c-0.51-0.46-0.93,0.06-0.66,0.91c0.18,0.57,0.36,1.13,0.54,1.7
		c-2.52,0.04-2.89,1.5-2.37,3.56C1250.76,1180.35,1251.02,1182.46,1250.46,1183.84z"/>
	<path class="st0" d="M2348.58,1673.9c-4.05,0.61-5.59,4.39-8.28,6.69c-3.66,3.14-6.61,7.13-11.96,10.13
		c2.49-8.62,4.39-16.32,6.93-23.8c7.26-21.42,13.94-42.97,17.85-65.3c0.63-3.58,2.01-7.03,2.93-10.57
		c3.69-14.24,5.31-28.66,4.88-43.44c-0.67-23.28,2.29-46.53,1.18-69.83c-0.54-11.27-1.04-22.59-2.57-33.75
		c-1.8-13.12-1.58-25.52,4.18-37.94c3.87-8.35,6.17-17.5,7.57-26.81c1.43-9.49,3.76-18.84,5.78-28.23c0.56-2.61,1.47-5.22,3.7-6.91
		c9.04-6.84,13.05-17.39,19.46-26.18c9.99-13.69,15.56-29.15,18.99-45.56c2.07-9.93,7.09-18.19,13.16-26.42
		c7.8-10.58,14.88-21.94,19.53-34.44c0.94-2.53,2.38-4.62,3.25-7.1c1.89,1.02,3.09,2.35,2.97,4.1c-0.91,12.81,1.2,25.71-1.37,38.5
		c-0.84,4.19-0.53,8.62-0.61,12.94c-0.69,34.93-1.1,69.86-2.16,104.78c-0.36,11.91-2.46,23.75-3.52,35.64
		c-2.21,24.79-3.97,49.63-6.49,74.39c-1.51,14.84-3.74,29.64-6.35,44.34c-1.29,7.25-1.2,14.54-2.24,21.78
		c-2.1,14.51-6.08,28.59-9.18,42.85c-1.68,7.76-2.93,15.64-4.94,23.36c-3.43,13.18-5.87,26.61-9.55,39.71
		c-2.62,9.33-3.85,18.87-5.83,28.29c-3.91,18.61-11.84,35.94-16.98,54.15c-2.46,8.73-6.89,16.59-11.55,24.25
		c-5.01,8.25-9.81,16.6-14.15,25.21c-0.75,1.49-1.71,2.91-2.19,4.48c-5.69,18.58-17,33.66-29.71,47.88
		c-4.18,4.68-8.36,9.36-13.26,14.83c-0.15,0.13-1.14-1.03-1.86-0.86c-5.33,1.28-8.06-1.6-9.69-5.98
		c-1.97-5.29-3.67-10.68-5.48-16.03c-0.43-1.26-0.86-2.52-1.44-4.23c8.24-23.47,12.83-48.29,18.63-72.8
		c1.22-5.17,2.87-10.24,4.49-15.3c1.03-3.21,2.42-6.63,1.24-9.73c-2.05-5.42,0.62-8.94,3.76-12.5c7.78-8.8,13.49-18.94,18.95-29.24
		c0.91-1.71,2.32-3.34,1.74-5.55c2.44-0.18,3.06-2.73,4.85-3.75c-0.79-0.07-0.82-0.21-0.08-0.41c-0.05,0.23-0.11,0.47-0.16,0.7
		C2350.14,1669.8,2348.49,1670.78,2348.58,1673.9z"/>
	<path class="st0" d="M1312.47,1480c4.99-2.39,4.95-8.33,8.92-12.14c5.63,0.35,10.96-1.71,15.64-5.86
		c11.72-10.39,22.08-21.8,29.23-35.93c4.75-9.4,9.96-18.57,15.48-28.78c1.54,2.56,1.26,4.78,1.18,6.84
		c-0.51,12.96,1.52,25.79,1.92,38.71c0.12,3.83,1.32,7.15,3.36,10.23c1.92,2.9,5.03,3.74,7.66,1.64c3.33-2.67,6.84-5.32,8.6-9.47
		l-0.27,0.25c0.69,3.03,0.18,5.86-1.09,8.71c-7.26,16.34-14.8,32.57-21.54,49.12c-4.92,12.1-11.92,22.8-19.03,33.6
		c-6.74,10.23-12.38,21.17-18.57,31.76c-15.45,26.4-33.03,51.31-54.28,73.34c-17.3,17.93-37.46,32.63-57.2,47.74
		c-2.32,1.78-4.49,4.05-7.78,4.02l0.21,0.23c-1.23-3.36,0.06-6.52,0.7-9.77c1.14-5.78,3.32-11.47,2.27-17.49
		c-3.33-1.04-3.51,1.77-4,3.25c-6.46,19.79-20.24,34.96-32.34,51.14c-4.55,6.09-10.39,10.99-17.53,14.43
		c-16.13,7.79-31.31,17.57-48.52,23.1c-6.84,2.2-13.62,4.57-20.81,6.99c-0.71-5.35,6-8.18,3.11-13.28c-2.64-0.58-3.4,1.75-4.29,3.21
		c-7.3,11.99-18.29,19.33-31.22,23.4c-9.54,3-18.47,7.32-27.64,11.06c-7.26,2.96-14.18,1.75-20.77,1.7
		c-2.44-3.93-1.54-6.48,0.34-9.17c3.45-4.94,7.29-9.49,11.81-13.48c16.97-14.94,34.1-29.67,50.37-45.42
		c18.87-18.26,38.33-35.91,57.61-53.74c4.63-4.28,9.46-8.37,14.35-12.35c12.98-10.55,23.14-23.9,35.25-35.29
		c4.11-3.87,8.41-7.58,12.27-11.68c3.81-4.05,7.53-8.05,10.48-13.06c3.28-5.57,9-9.68,13.52-14.55c2.65-2.86,6.49-4.89,6.93-9.39
		l-0.36,0.38c1.45-0.13,2.24-0.92,2.37-2.37l-0.37,0.37c1.45-0.13,2.24-0.92,2.37-2.37l-0.37,0.37c1.45-0.13,2.24-0.92,2.37-2.37
		l-0.36,0.38c5.08-2.77,8.47-6.95,10.35-12.38l-0.34,0.39c4.57-2.02,7.19-5.6,8.32-10.38l-0.32,0.39c3.03-1.06,4.25-3.34,4.32-6.4
		l-0.33,0.37c2.86-0.04,4.05-1.75,4.35-4.35l-0.36,0.36c1.45-0.13,2.24-0.92,2.37-2.37l-0.37,0.37c1.45-0.13,2.24-0.92,2.37-2.37
		l-0.36,0.38c6.47-5.31,12.47-11.09,17.73-17.61c0.53-0.66,0.42-1.83,0.61-2.76l-0.33,0.38c0.84-0.41,2.01-0.59,2.48-1.26
		c6.32-9.11,12.57-18.27,18.75-27.48c0.67-1.01,0.75-2.42,1.1-3.64L1312.47,1480z"/>
	<path class="st0" d="M2375.36,1773.21c-0.89-3.32,1.61-5.49,3.08-7.89c2.1-3.44,4.03-6.89,4.92-10.85
		c3.35-14.94,10.54-28.53,15.02-43.1c4.88-15.84,10.54-31.32,12.86-47.96c1.87-13.42,6.27-26.47,9.35-39.74
		c3.97-17.13,7.91-34.27,11.52-51.48c1.36-6.49,3.14-12.89,4.54-19.37c2.76-12.7,3.2-25.65,5.37-38.4
		c2.38-14.05,3.94-28.26,5.5-42.43c1.35-12.2,2.16-24.46,3.31-36.69c0.87-9.24,2.36-18.45,2.74-27.7
		c0.51-12.63,2.29-25.12,3.25-37.7c2.09-27.55,1.98-55.16,2.01-82.76c0.02-13.62,0.07-27.21,1.46-40.83
		c1.73-16.88,0.54-33.92-0.54-50.8c-0.48-7.53,1.25-14.2,4.75-19.65c10.58-16.5,16.46-34.68,21.6-53.25
		c0.71-2.57,0.91-5.25,3.1-7.18c1.69,0.71,2.39,2.44,2.48,3.77c1,14.42,6.95,27.63,10.02,41.54c4.65,21.06,10.82,41.82,11.18,63.63
		c4.97,17.63,3.23,35.69,3.12,53.59c-0.08,13.34,2.63,26.42,2.48,39.76c-0.24,21.97,0.23,43.95,0.2,65.93c0,3.26-0.86,6.58-1.7,9.77
		c-3.67,13.84-5.38,27.98-6.7,42.19c-1.13,12.24-2.98,24.4-6.1,36.28c-2.04,7.77-3.38,15.62-3.76,23.54
		c-0.65,13.63-3.93,26.92-4.76,40.48c-1.19,19.55-9.38,37.26-14.13,55.87c-3.87,15.13-10.51,29.35-15.68,44.05
		c-4.08,11.6-8.32,23.11-13.18,34.42c-7.37,17.14-15.31,33.9-26.34,49.06c-8.8,12.09-17.08,24.58-26.88,35.91
		c-5.91,6.83-12.76,12.61-20.38,17.45C2377.95,1773.38,2376.88,1774.16,2375.36,1773.21z"/>
	<path class="st0" d="M1494.23,351.27c-9.09,7.26-19.17,12.62-30.59,16.03c-2.35-2.86-0.87-5.66,0.73-7.95
		c4.91-7.01,8.35-15.01,14.29-21.33c1.08-1.14,2.34-2.39,2.15-4.26l-0.39,0.34c5.45,0.36,8.31-4.11,11.28-7.13
		c9.99-10.14,22.11-16.46,34.92-21.94c1.37-0.59,4.31,0.33,4.02-3.22c-8.58-0.09-17.13-0.34-25.62-1.5
		c-8.84-1.21-17.73-2.86-25.01-8.03c-4.38-3.11-8.55-4.61-13.64-4.44l0.35,0.27c-0.53-2.76-2.93-3.12-4.97-4.19
		c-2.19-1.15-5.25-1.38-6.53-5.18c10.01-4.37,20.76-2.32,30.88-4.21c10.43-1.95,21.07,1.65,31.64,1.34c0.59-2-1.11-2.69-1.89-2.79
		c-8.91-1.15-17.14-4.78-25.71-7.1c-6.03-1.63-12.62-3.37-16.94-8.89c11.73-3.77,23.73-5.44,35.9-5.2
		c19.2,0.38,38.45,0.08,57.4,4.29c8.25,1.83,16.71,2.73,25.62,2.7c-4.68-4-9.41-7.95-14.02-12.03c-3.47-3.07-6.78-6.31-10.18-9.45
		c-4.72-4.36-8.24-9.44-9.49-15.86c-0.8-4.13-3.55-7.8-3.1-12.07c1.28-1.57,2.75-1.07,3.7-0.34c10.12,7.74,22.19,11.77,33.3,17.63
		c11.63,6.13,21.73,13.87,27.73,26c0.21-0.8,0.38-0.84,0.49-0.11c-0.25-0.04-0.5-0.09-0.75-0.13c1.31-2.63,1.03-5.31-0.45-7.63
		c-8.47-13.24-7.99-27.62-5.83-42.34c1.39-9.51,2.7-19.02,4.73-28.43c0.83-3.85,0.76-7.89,1.09-11.81c2.31-0.82,2.99,0.64,3.51,2.29
		c4.4,13.94,10.68,27.05,16.88,40.27c7.18,15.31,10.58,32.02,14.49,48.46c1.01,4.26-0.13,8.57,0.3,12.69
		c2.55,1.14,3.25-0.51,3.71-2.01c3.58-11.73,7.09-23.48,10.61-35.22c0.66-2.19,1.25-4.4,2.35-8.27c6.77,15.53,5.44,30.59,5.9,45.76
		c4.4-0.11,5.72-2.9,7.22-5.27c1.16-1.82,2.31-3.25,4.73-2.45l-0.24-0.26c-0.07,1,0.11,2.1-0.26,2.97
		c-6.06,14.46-13.73,27.97-23.12,40.57c-5.99,8.03-14.9,10.71-23.53,14.03c-6.69,2.57-13.47,4.93-19.84,8.29
		c-1.26,0.66-2.3,1.18-2.33,2.74c-2.26-0.46-4.74-1.88-6.14,1.4c-0.5,0.05-1,0.1-1.5,0.15c0.18-0.14,0.37-0.41,0.54-0.4
		c0.25,0.02,0.47,0.24,0.71,0.38c2.1-0.53,4.2-1.05,6.3-1.58c1.36-1.17,2.8-1.62,4.8-0.18c0.58,3.51-2.19,5.92-4.23,8.02
		c-5.05,5.18-10.05,10.82-16.16,14.43c-8.15,4.81-13.12,12.32-19.38,18.76c-1.4,0.48-1.33,1.55-1.07,2.69
		c-1.6-0.05-2.41,0.7-2.34,2.33c-0.62,0.55-1.45-1.07-2,0.19c0.61-0.17,1.22-0.34,1.82-0.5c0.38-1.12,1.11-1.85,2.27-2.13
		c0.36-0.93,0.73-1.87,1.09-2.8c2.49,1.03,3.77-2.6,6.25-1.62l-0.19-0.19c1.9,2.54,0.9,5.06-0.1,7.55
		c-4.08,10.16-9.26,19.8-15.32,28.86c-7.51,11.21-14.27,23.01-24.85,31.97c-4.41,3.73-6.61,8.83-4.43,15.24
		c1.25,3.69,1.45,8.15-2.35,10.99c-4.25,3.18-5.05,7.23-3.17,12.26c-1.81-0.23-2.78-0.35-3.76-0.47c-0.19-1.01-0.38-2.03-0.66-3.57
		c-1,2.02-0.33,2.81,0.94,3.32c-0.52,9.15,2.85,17.61,4.87,26.28c1.65,7.09,3.83,14.06,5.9,21.05c0.76,2.58,1.25,5.11,0.75,7.76
		c-2.6,0.15-3.7-1.66-4.86-3.2c-11.7-15.67-23.76-31.09-31.59-49.29c-1.78-4.13-0.22-8.61-3.24-14.02
		c0.31,16.64,4.08,31.66,1.64,47.68c-12.34-18.63-15.79-38.58-14.23-59.82c-2.35,9.43-0.63,19.02-2.01,29.69
		c-9.38-17.28-12.63-34.49-11.56-52.66c0.66-11.3,2.16-22.42,6.16-33.08c0.86-2.28,1.14-4.48-0.52-6.54
		c0.15-0.14,0.3-0.28,0.44-0.42c0.08,0.14,0.17,0.28,0.25,0.42c-0.16-0.07-0.31-0.13-0.47-0.2c-8.12,14.65-11.99,19.43-22.42,27.68
		c-2.02-1.64-0.72-3.52-0.15-5.09c4.56-12.74,8.85-25.48,16.6-36.97c3.47-5.15,6.2-10.78,10.72-15.24c1.22-1.21,1.84-2.75,0.91-4.5
		c0.66-0.38,0.92,0.11,0.53,0.19C1493.2,351.96,1494.86,352.45,1494.23,351.27z M1530.22,277.09c-1.34-0.51-2.5-1.33-3.77-0.14
		C1527.63,277.81,1528.85,277.33,1530.22,277.09z M1507.42,453.42c0.15-0.06,0.3-0.12,0.45-0.17c-0.06-0.82-0.11-1.64-0.17-2.46
		c-0.09,0.01-0.19,0.02-0.28,0.03C1507.42,451.69,1507.42,452.56,1507.42,453.42z M1536.72,301.13l-0.62-0.42l-0.17,0.56
		L1536.72,301.13z"/>
	<path class="st0" d="M2882.22,1560.03c1.83-0.61,3.66-1.23,6.2-2.08c3.38,4.97,7.1,9.99,10.33,15.31
		c6.91,11.38,14.54,22,25.41,30.1c4.73,3.52,9.07,7.82,12.72,12.46c5.16,6.55,11.82,9.56,19.69,9.48
		c7.02-0.08,13.76,1.33,20.59,2.31c2.26,0.32,4.76,0.71,6.58,1.93c5.73,3.81,11.19,8.03,16.75,12.09l0.33-0.35
		c-1.19,1.82-2.39,3.64-3.64,5.55c-3.45-1.23-6.79-2.42-10.12-3.61c-5.22-2.1-10.44-4.2-15.67-6.3c-5.06-0.71-9.65-4.34-15.83-2.27
		c5.46,2.92,10.52,4.04,16.01,2.14c4.33,5.22,7.82,6.58,15.79,6.18c-0.95,2.71,2.32,2.95,2.82,4.81l0.34-0.25
		c-2.22,1.86-2.18,4.43-2.19,6.98c-0.02,3.17-0.02,6.35-0.04,9.52l0.25-0.29c-1.16,0.84-1.7,2.01-1.71,3.4
		c-0.09,11.91-1.57,23.82,1.21,35.69c0.96,4.11,0.11,8.61,0.46,12.9c0.46,5.53,1.29,11.04,2.02,17.02
		c-7.22,2.26-13.99,4.31-21.32,5.12c-19.19,2.13-38.44,1.79-57.67,2.5c-17.67,0.65-34.89-1.77-52.27-3.88
		c-10.85-1.32-21.81-1.71-32.73-2.32c-6.33-0.36-12.57,1.32-18.72,2.3c-13.84,2.2-27.66,3.3-41.63,3.02
		c-1.66-0.03-3.44-0.17-4.96,0.34c-10.26,3.44-20.36,0.17-31.24-0.15c-4.69-15.2-6.83-30.31-2.72-46.65
		c8.42-1.8,16.89-5.03,23.2-11.49c6.25-6.4,8.38-14.9,8.61-23.96c5.19-2.94,11.11-1.84,16.43-3.46c1.85-0.56,4.04-0.2,5.02-2.47
		l-0.34,0.28c2.26-0.25,4.68-0.06,6.74-0.83c9.75-3.64,19.46-7.39,29.06-11.41c4.14-1.73,8.39-3.65,10.62-8.05l-0.39,0.36
		c1.45-0.13,2.25-0.92,2.38-2.37l-0.37,0.37c1.5-0.08,2.29-0.86,2.37-2.37l-0.36,0.4c8.29-8.26,8.88-16.5,2.03-28.45l0.31,0.44
		c-0.47-2.78-1.16-5.42-4.32-6.39l0.37,0.43c-0.35-2.42,0.31-4.54,1.88-6.39l-0.26,0.27c2.14-0.73,4.73-0.16,6.41-2.23l-0.4,0.26
		c4.6-1.13,8.52-3.61,12.36-6.25l-0.36,0.23c1.6-0.48,3.66-0.09,4.37-2.27l-0.43,0.29c1.78-0.12,3.6-0.18,4.37-2.26l-0.34,0.23
		c1.59-0.52,3.64-0.13,4.4-2.25l-0.42,0.29c1.73-0.27,3.64-0.22,4.44-2.3l-0.4,0.33c1.44-0.13,2.23-0.91,2.34-2.35l-0.4,0.33
		c1.73-0.3,3.69-0.17,4.46-2.32l-0.43,0.3c1.95,0.17,3.66-0.11,4.41-2.27l-0.42,0.3c3.62-1.01,7.19-2.1,8.4-6.33L2882.22,1560.03z
		 M2948.15,1632.44l-0.01-0.63l0.15,0.36c0.42,0.17,0.83,0.34,1.2,0.49C2949.08,1632.59,2948.61,1632.51,2948.15,1632.44z"/>
	<path class="st0" d="M1236.81,1573.61c-1.8,0.2-2.95,1.46-4.07,2.66c-9.49,10.23-18.95,20.49-28.4,30.77
		c-1.12,1.22-1.92,2.79-3.16,3.85c-19.79,16.8-35.68,37.62-56.21,53.71c-9.91,7.77-19.13,16.54-27.92,25.57
		c-6.46,6.64-14.06,11.06-22.26,14.68c-15.8,6.98-31.78,13.54-47.56,20.54c-8.54,3.79-17.79,5.44-26.33,9.06
		c-25.39,10.76-51.52,19.54-77.44,28.87c-12.16,4.38-24.73,7.59-37.08,11.45c-23.44,7.31-46.8,14.86-70.28,22.02
		c-14.64,4.46-29.97,5.7-44.92,8.79c-12.04,2.49-24.15,4.65-36.51,4.49c-4.27-0.05-8.13,3.42-12.57,1.28
		c0.03-2.06,1.6-2.72,3.03-3.54c16.7-9.63,33.41-19.24,50.07-28.93c5-2.91,10.35-4.81,16.05-4.67c13.52,0.34,26.01-4.41,39.56-6.8
		c-3.05-2.68-6.28-1.43-9.31-2.39c2.06-3.9,6.26-3.44,9.28-4.96c11.27-5.67,22.88-10.68,34.08-16.48
		c28.33-14.67,56.92-28.71,86.82-40c13.66-5.16,27.29-10.57,40.41-16.95c16.12-7.84,31.69-16.82,47.51-25.3
		c7.6-4.07,15.42-7.79,21.3-14.4c0.88-0.99,1.89-1.87,1.92-3.33l-0.38,0.38c4.81-1.1,8.5-3.58,10.38-8.33l-0.39,0.31
		c1.84,0.29,3.08-0.77,4.4-1.84c21.15-17.2,42.09-34.65,63.55-51.45c24.43-19.12,46.54-40.75,67.66-63.26
		c15.38-16.4,30.73-33.21,41.2-53.56c1.51-2.94,3.02-5.89,4.56-8.9c12.48-5.56,23.54-13.09,31.42-24.74
		c4.84-7.16,9.82-14.21,14.7-21.34c1.3-1.9,2.26-4.1,5.4-4.76c-0.45,5.31-0.88,10.36-2.05,15.45c-1.71,7.43-2.94,14.98-4.05,22.53
		c-0.48,3.26-1.01,6.94,0,9.9c2.35,6.87-0.29,12.33-3.45,17.9c-1.46,2.56-3.67,4.82-3.32,8.13l0.32-0.39
		c-5.47,4.65-9.07,10.8-12.99,16.64c-3.39,5.05-7.72,9.62-9.34,15.75l0.33-0.38c-7.36,5.27-12.96,12.19-18.22,19.42
		c-0.16,0.23-0.08,0.63-0.11,0.95c0,0,0.36-0.38,0.36-0.38c-1.45,0.13-2.25,0.92-2.37,2.37c0,0,0.37-0.37,0.37-0.37
		c-1.45,0.13-2.25,0.92-2.37,2.37c0,0,0.36-0.36,0.36-0.36c-2.67,0.23-4.42,1.38-4.35,4.35l0.33-0.37c-3.03,1.06-4.25,3.34-4.32,6.4
		l0.32-0.39c-4.48,2.09-7.05,5.72-8.32,10.38l0.34-0.39c-5.04,2.8-8.17,7.2-10.35,12.38c0,0,0.36-0.38,0.36-0.38
		c-1.45,0.13-2.25,0.92-2.37,2.37c0,0,0.37-0.37,0.37-0.37c-1.45,0.13-2.25,0.92-2.37,2.37c0,0,0.37-0.37,0.37-0.37
		c-1.45,0.13-2.25,0.92-2.37,2.37L1236.81,1573.61z"/>
	<path class="st0" d="M3114.21,1550c0.95-0.21,2.35-0.09,2.8-0.69c6.16-8.2,15.41-8.18,24.24-9.21c11.85-1.38,23.73-2.59,35.57-4.07
		c4.27-0.53,8.53-1.44,12.7-2.52c16.14-4.17,32.82-4.62,49.21-7.02c20.02-2.93,39.95-6.31,59.91-9.6
		c17.68-2.92,35.35-5.87,53.08-8.45c5.51-0.8,11.19-0.73,16.8,0.25c3.08,5.81,0.33,10.86-1.44,15.55c-1.85,4.9-4.68,9.6-8.99,12.97
		c-11.99,9.4-23.42,19.71-37.41,26.17c-17.49,8.08-35.21,15.68-52.81,23.52c-8.57,3.82-17.87,4.98-26.82,7.42
		c-0.76-1.1-1.07,1.92-0.18,0.92c0.89-0.99-0.33-0.16,0.77,0.59c0.49,0.33,0.95,0.71,1.52,1.13c-8.06,3.64-16.71,4.23-25.18,4.36
		c-21.36,0.32-42.3,3.94-63.26,7.33c-13.42,2.17-26.71,5.19-40.03,7.96c-7.49,1.56-15.08,2.18-22.67,2.9
		c-4.62,0.44-9.21,1.2-13.8,1.89c-16.08,2.4-32.35,3.01-48.45,4.96c-10.19,1.23-20.55,0.23-30.58,2.83
		c-2.41,0.62-4.82,0.25-6.62-1.34c-7.56-6.66-16.92-6.95-26.16-7.74c-0.33-0.03-0.67-0.02-1-0.02c-9.82-0.1-17.82-3.7-24.53-11.13
		c-6.23-6.9-13.73-12.65-19.9-19.6c-7.03-7.91-12.47-17.06-18.15-26.22c3.68-2.4,7.14-3.06,10.78-2.99
		c6.74,0.12,13.18-1.32,19.55-3.41c8.23-2.71,16.7-4.13,25.34-4.91c20.48-1.86,40.92-4.19,61.41-5.88
		c8.9-0.73,17.85-0.89,26.72-2.13l-0.29-0.13c1.15,6.23-4.3,11.52-2.91,18.2c5.48-1.15,9-4.75,12.87-7.62
		c11.16-8.27,11.08-8.7,23.8-9.89c5.94-0.56,12.18-2.46,18.18,0.31c0,2.07,0,3.72,0,5.36l0.3-0.43c-3.02,1.06-4.25,3.33-4.31,6.39
		l0.32-0.39c-3.47,1.76-5.97,4.27-6.32,8.38l0.31-0.39c-4.77,3.42-8.19,7.52-7.54,14.99c6.13-4.34,11.8-7.47,15.59-12.95l-0.38,0.32
		c7.76-3.61,13.75-9.21,18.38-16.34L3114.21,1550z"/>
	<path class="st0" d="M2428.56,1199.88c-2.7,5.72-2.74,12.07-4.22,18.09c-3,12.25-5.17,24.7-8.06,36.98
		c-3.56,15.15-6.78,30.41-13.28,44.72c-2.34,5.15-4.4,10.42-7.87,14.96c-4.59,6-7.74,13.07-13.65,18.31
		c6.27-24.12,9.11-48.69,13.22-73.04c4.12-24.34,1.86-48.76,1.53-74.49c-2.08,4.01-1.33,6.96-1.39,9.78
		c-0.29,14.31-0.14,28.65-0.83,42.94c-0.43,8.92-1.65,17.86-3.3,26.64c-3.12,16.63-5.4,33.44-9.88,49.8
		c-1.14,4.16-2.37,8.3-3.75,12.38c-4.82,14.2-8.25,28.75-10.59,43.53c-2.73,17.25-8.49,33.46-16.44,48.88
		c-2.03,3.93-2.96,8.72-6.74,11.66c-2.58-1.84-2.21-4.41-2.35-6.62c-1.31-20.91-5.36-41.47-7.81-62.22
		c-1.08-9.19-1.3-18.53-2.15-27.8c-0.69-7.6-0.79-15.27-2.35-22.77c-2.87-13.81-1.37-27.86-2.46-41.77
		c-1.47-18.86-1.43-37.8-3.11-56.68c-1.12-12.55-0.57-25.26-0.36-37.9c0.16-9.62,0.61-19.24,1.16-28.86
		c1.22-21.22,6.44-41.18,14.93-60.51c1.99-4.53,3.16-9.46,6.31-13.4c1.46-1.83,1.01-3.76,1-5.69c-0.03-4.24,0.01-8.46,1.2-12.73
		c3.57,0.82,4.43,3.62,4.99,5.97c2,8.35,7.41,14.78,11.73,21.81c3.1,5.05,7.8,5.23,11.02,0.39c1.8-2.71,2.74-5.98,4.38-9.71
		c6,10.66,8.41,22.95,16.99,31.74c5.48-2.7,6.32-7.33,7.24-11.24c2.94-12.6,5.37-25.32,5.15-38.38c-0.11-6.66-0.02-13.31-0.02-20.25
		c3.26,0.35,3.62,2.94,4.44,4.85c3.68,8.56,7.59,16.99,13.3,24.4c1.94,2.51,3.02,5.43,3.22,8.24c0.6,8.59,2.83,16.99,2.49,25.7
		c-0.35,8.98-0.43,18-0.07,26.99c0.73,18.67-1.82,37.19-2.28,55.8c-0.16,6.57-1.47,13.18-1.62,19.83L2428.56,1199.88z
		 M2395.18,1179.88c1.27-0.77,1.03-2.07,0.9-3.15c-0.09-0.76,0.82-2.33-1.54-2.26C2394.88,1176.32,2393.91,1178.15,2395.18,1179.88z
		"/>
	<path class="st0" d="M1774.6,239.97c13.22-1.67,25.27-6.41,36.3-13.84c2.39-1.61,4.24-4.27,7.6-4.11c0.81-0.07,0.84,0.53,0.18,0.48
		c-1.3-0.1,0.1,0.76-0.11-0.56c0.52-3.45,3.8-4.5,5.96-6.28c10.01-8.24,20.21-16.24,28.38-26.46c0.79-0.99,2.02-1.65,3.1-2.38
		c0.2-0.14,0.64,0.08,1.82,0.28c-2.07,17.77-9.37,33.58-18.49,48.55c-9.24,15.15-22.36,26.17-39.12,33.22
		c7.18,0.91,23.74-1.97,37.22-7.12c11.72-4.48,23.16-9.7,34.86-14.66c1.18,2.85-1.23,4.4-2.47,5.95
		c-10.25,12.85-22.57,23.52-36.04,32.81c-7.54,5.2-16.52,6.76-25.34,8.38c-8.48,1.56-17.01,2.87-25.93,4.37
		c3.38,5.87,9.77,4.74,14.56,6.78c5.48,2.33,11.23,3.94,17.1,5.29c5.58,1.28,11.26,0.16,18.02,1.78c-6.5,4.2-12.86,5.88-19.16,7.18
		c-8.77,1.81-17.65,3.13-26.72,2.71c-13.27-0.61-26.52,0.47-39.82-1.79c-11.6-1.98-22.77-4.48-33.03-10.38
		c-11.23-6.46-22.72-12.26-35.4-12.7c-2.2-3.16-0.77-5.19,0.32-7.2c2.83-5.23,5.68-10.45,8.6-15.63c5.94-10.5,8.86-22.06,11.82-33.6
		c0.2-0.79-0.4-1.79-0.69-2.95c-8.71,2.78-8.32,13.49-16.26,17.42c-1.64-3.09-1.15-6.47-0.84-9.52
		c1.65-15.93-3.41-30.04-11.91-44.95c-1.63,15.88-3.54,30.41-9.24,44.03c-2.64-0.34-2.86-2.42-3.4-4.29
		c-2.78-9.56-5.4-19.17-8.42-28.65c-2.22-6.97-4.94-13.77-9.06-19.91c-5.08-7.55-8.27-15.8-9.01-24.96
		c2.12-2.06,4.28-0.79,6.44-0.07c11.83,3.97,23.66,7.94,35.65,11.96c0.22-2.75-1.62-3.12-3.03-3.57
		c-11.09-3.52-19.46-11.14-27.87-18.61c-4.98-4.42-9.61-9.22-14.33-13.92c-7.36-7.35-13.38-15.64-17.55-25.22
		c-0.65-1.5-1.49-2.95-0.75-4.74c2.19-1.23,4.38-0.73,6.67-0.05c6.38,1.88,12.55,4.21,18.64,6.95
		c11.51,5.17,23.14,10.15,34.98,14.47c12.98,4.73,24.33,12.29,35.66,19.78c9.14,6.03,19.15,10.76,27.5,18.01
		c0.7,0.61,1.84,0.79,3.58-0.62c0.28-6.52-2.76-13.26-4.19-20.06c-1.42-6.78-3.06-13.61-3.94-20.45
		c-0.93-7.22-2.86-14.19-5.36-22.98c8.95,6.82,15.3,13.42,20.55,20.88c8.33,11.85,13.8,24.98,15.5,39.51
		c0.64,5.44-0.86,10.56-2.47,15.61c-0.61,1.92-1.43,3.71-1,5.77c-2.07,0.65-1.71,2.44-1.87,3.99c-1.93,0.6-1.4,2.86-2.64,3.91
		c0.64,0.47,0.19,0.79-0.11,0.28c-0.65-1.13-0.48,0.54,0.36-0.49c1.22-1.04,1.96-2.34,2.12-3.96c1.79-0.76,2.03-2.26,1.91-3.95
		c3-0.99,3.47-3.81,4.08-6.22c3.91-15.42,7.94-30.83,11.33-46.37c1.33-6.1,1.09-12.53,1.57-18.83c1.54-0.42,2.45,0.46,2.98,1.76
		c6.69,16.27,12.82,32.72,16.87,49.9c1.1,4.64,1.15,9.24,0.95,13.85c-0.55,12.6-1.74,25.13-6.12,37.11
		c-0.65,1.77-0.99,3.93-3.29,4.57c-0.37,0.62-0.47,0.59-0.31-0.1c0.18,0.12,0.36,0.23,0.54,0.35c-1.82,5.34-7.19,8.66-8.22,14.46
		c-1.28-0.53-2.44-0.2-3.56,0.47c0.49,0.29,0.96,0.77,1.47,0.82C1773.68,241.56,1774.5,241.16,1774.6,239.97z"/>
	<path class="st0" d="M1891.64,496.77c0.89,2.91,2.11,6.13-1.47,7.92c-7.43,3.72-13.06,10.04-21,13.22
		c-13.57,5.43-26.97,10.87-41.97,10.39c-6.66-0.21-13.33-0.13-19.99-0.01c-6.37,0.12-12.4-1.62-18.57-2.64
		c-11.64-1.92-21.88-7.54-33.17-10.25c-11.66-2.8-21.78-9.27-31.53-16.2c-9.52-6.76-20-11.61-31.12-15.18
		c-14.22-4.56-28.35-9.44-42.57-14.01c-3.31-1.06-5.93-2.83-8.3-5.26c-2.84-2.91-3.46-6.39-2.84-10.16c0.8-4.91,4.27-7.52,9.23-6.8
		c2.26,0.33,4.48,1.21,6.63,2.06c4.39,1.75,8.96,2.03,13.61,2.58c9.68,1.15,17.12-4.53,25.56-7.14c2.19-4.3,8.91-5.1,8.69-11.27
		c-0.01-0.31-0.01-0.82,0.16-0.91c6.19-3.22,6.19-8.65,5.28-14.48c-0.47-2.99,1.62-4.95,3.26-6.99c6.04-7.5,12.37-14.78,18.12-22.49
		c2.88-3.86,5.95-7.08,10.44-8.87c3.44-1.37,6.8-2.85,7.27-7.22c6.25-5.48,10.01-14.3,19.87-14.94c2.6-0.17,4.2-1.86,5.94-3.35
		c3.43-2.94,7.48-4.07,11.84-4.7c14.51-2.08,29.1-3.09,43.71-2.34c19.3,1,36.99,6.89,52.66,18.59c8.83,6.59,17.13,13.38,23.19,22.93
		c10.66,16.8,13.89,34.83,11.7,53.76c-1.8,1.59-3.33,2.79-4.96,2.41c-9.13-2.14-18.6-0.4-27.74-2.55c-2.86-0.67-5.94-0.56-8.93-0.59
		c-19.29-0.18-38.55,0.47-57.83,1.14c-18.35,0.64-36.3,3.43-54.29,6.45c-18.04,3.03-35.47,8.66-53.21,12.94
		c-7.75,1.87-15.41,3.67-23.55,3.59c-8.47-0.08-16.41-2.15-24.43-4.26c-2.98-0.78-5.45-2.39-7.62-4.55
		c-1.87-1.86-3.73-3.78-6.43-4.46c-3.1,5.11-2.8,8.02,1.6,10.44c2.89,1.59,6.09,2.74,9.27,3.66c15.64,4.51,31.57,7.81,47.64,10.32
		c6.9,1.08,13.77,2.22,20.51,4.04c14.12,3.81,28.57,5.94,42.96,8.33c14.73,2.45,29.47,4.91,44.28,6.72
		c13.13,1.61,26.16,3.87,39.55,3.92c9.9,0.04,19.89,0.74,29.84,1.14c4.35,0.17,6.85-1.56,8.8-4.96L1891.64,496.77z M1848.39,378.26
		c0.58-0.47,0.79-0.01,0.24,0.18c-1.24,0.41,0.49,0.56-0.44-0.4c-0.62-1.2-1.44-1.85-2.92-1.03
		C1846.36,377.44,1847.38,377.85,1848.39,378.26z M1786.29,371.8c-7.66,0.05-15.65-1.48-21.96,5.02c7.18-1.05,14.24-2.71,21.3-4.41
		c0.2-0.05,0.29-0.56,0.43-0.86c3.27,0.04,6.54,0.11,9.81,0.1c3.2-0.01,6.4-0.1,9.6-0.16
		C1798.97,370.45,1792.46,368.67,1786.29,371.8z"/>
	<path class="st0" d="M1246.65,853.86c0.7-3.06,3.58-3.71,5.75-5.03c20.99-12.77,41.97-25.55,63.08-38.12
		c12.49-7.43,25.21-14.47,37.69-21.61c3.07,2.28,2.15,4.56,1.18,7.24c-8.08,22.25-21.58,40.94-37.53,58.09
		c-5.42,5.83-10.66,11.82-15.97,17.76c-12.53,14.02-27.75,24.63-43.6,34.45c-12.41,7.69-24.87,15.29-37.15,23.18
		c-7.56,4.86-14.46,10.71-20.52,17.3c-6.35,6.91-13.67,12.55-20.99,18.27c-4.36,3.41-9.56,6.02-8.97,13.13
		c0.15,1.75-2.23,3.98-3.87,5.55c-4.83,4.63-9.13,9.71-12.6,15.37c-2.18,3.55-6.05,5.08-8.35,8.3l0.34-0.28
		c-2.46,0-4.43,1.24-6.39,2.52c-21.12,13.84-42.26,27.64-63.34,41.53c-13.31,8.78-26.49,17.76-39.79,26.54
		c-14.22,9.39-24.65,22.08-32.74,36.88c-0.79,1.45-1.68,2.85-2.67,4.53c-3.79-0.07-7.6,1.5-12.3-0.23
		c4.31-5.08,11.72-6.1,13.86-12.49c-3.22-2.65-6.77,0.49-10.22-1.31c6.47-17.92,16.45-33.1,32.41-43.97
		c4.67-3.18,9.24-6.5,13.78-9.87c2.06-1.53,4.64-2.72,4.84-5.84c1.39,0.3,2.5-0.22,3.67-0.99c21.36-14.04,42.75-28.05,64.13-42.06
		c1.09-0.71,2.32-1.32,2.2-2.94c3.05,0.25,5.13-0.97,6.02-3.98c4.54,0.04,7.62-2.31,9.86-6.03c3.69-1.24,8.44-1.06,8.94-6.62
		c1.91,0.08,3.79,0.02,5.42-1.17c-0.19-0.74,0.36-0.81,0.38-0.16c0.03,1.3,0.68-0.25-0.55,0.27c-1.69,0.35-3.37,0.7-5.06,1.06
		c-2.52,2.87-7.26,2.85-8.91,6.85c-4.41,0.16-7.82,1.99-9.92,5.98c-3.05-0.25-5.13,0.97-6.02,3.99c-1.36-0.32-2.64-0.11-3.81,0.65
		c-21.15,13.86-42.29,27.72-63.43,41.59c-1.36,0.9-2.88,1.74-2.75,3.76c-2.66-0.59-4.34,1.32-6.21,2.57
		c-6.08,4.04-12.1,8.19-19.21,13.03c1.75-7.71,4.22-13.79,8.24-19.36c12.33-17.13,27.5-31.33,44.09-44.28
		c14.67-11.45,30.02-21.88,45.38-32.34c14.44-9.82,30.57-15.89,46.88-21.59c5.95-2.08,11.92-4.06,17.9-6.04
		c1.31-0.43,2.47-0.86,2.34-2.55c2.49,0.84,4.84,0.95,6.72-1.32c2.87-0.47,5.75-0.94,8.62-1.42c3.28-2.04,7.82-1.65,10.26-5.31
		c0.6-0.39,1.67,0.85,1.97-0.57c-0.57,0.23-1.13,0.46-1.7,0.69c-2.96,0.9-6.17,0.78-8.97,2.42c-1.31,0.76-1.73,1.57-1.35,2.93
		c-3.09-0.74-6.29-2.12-8.62,1.5c-2.48-0.8-4.8-0.77-6.74,1.29c-8.98,1.1-17.39,4.34-25.81,7.3c-20.16,7.08-39.32,16.24-56.65,28.96
		c-4.55,3.34-9.41,6.24-15.12,10c0.43-4.39,3.06-6.28,5.19-8.21c9.15-8.27,19.14-15.45,29.5-22.15
		c9.22-5.97,18.56-11.72,28.48-16.41c9.67-4.58,17.81-11.54,27.11-16.69c16.87-9.35,33.84-18.48,51.13-27.05
		c1.64-0.81,3.95-1.13,4.33-3.59c2.44,0.64,4.54-0.38,6.63-1.4c19.95-9.8,41.23-16.16,62.01-23.82c0.04,0.09,0.09,0.17,0.13,0.26
		c-2.58-1.08-5.11-0.84-7.76-0.02c-15.83,4.9-31.56,10.13-46.65,17c-4.93,2.24-10.62,3.47-14.19,8.19
		c-3.27-0.93-5.79,1.05-8.37,2.38c-14.41,7.43-28.7,15.09-43.15,22.43c-2.69,1.37-5.18,4.69-8.96,2.34l-0.24,0.23
		c11.24-11.85,24.38-21.42,37.46-31.04c13.62-10.02,27.74-19.39,42.54-27.54c22.12-12.18,45.58-21.18,70.23-26.92
		c1.56-0.36,3.36-0.27,4.07-2.2c1.85,0.01,3.86,0.75,5.34-1.23c-1.86,0.14-3.96-0.86-5.09,1.49c-9.1-0.42-17.46,2.85-25.96,5.32
		c-16.17,4.69-31.55,11.4-46.65,18.79c-1.71,0.84-3.19,2.5-5.42,1.66L1246.65,853.86z"/>
	<path class="st0" d="M2219.12,1132.81c4.3-0.86,7.53-0.8,10.54,0.5c0.15,0.92,0.54,1.68,0.31,2.09
		c-3.76,6.64-7.45,13.31-11.44,19.81c-4.75,7.73-10.45,14.59-19.73,18.86c-6.32-5.6-14.84-7.95-23.32-7.52
		c-8.78,0.44-17.5,2.21-25.9,6.3c-8.2,3.99-13.4,10.54-18.89,16.53c-3.81,0.56-3.25-4.35-6.9-4.21c-1.69,2.93-1.21,6.36-0.82,9.44
		c0.74,5.86-0.62,11.08-3.16,16.21c-1.47,2.97-2.73,6.04-4.33,9.59c-7-2.69-12.39-7.41-17.56-12.35c-2.39-2.28-4.23-5.13-6.49-7.55
		c-5.02-5.38-6.74-11.76-7.33-19.01c-2-24.54-6.36-48.68-13.73-72.22c-0.7-2.23-1.39-4.39-1.59-6.75c-0.57-6.94-0.88-13.89-4-20.41
		c-0.93-1.95-0.64-4.59-0.54-6.9c0.72-15.99-0.85-31.9-1.5-47.84c-0.33-7.94-1.42-15.86-3.37-23.64c-0.64-2.55-0.84-5.24-0.98-7.88
		c-0.4-7.24,0.2-14.66-4.97-20.78c-1.15-1.36-0.84-3.24-0.36-4.82c3.79-12.49,4.45-25.44,5.7-38.3c0.03-0.29,0.37-0.54,0.98-1.37
		c5.05,1.22,10.5,2.91,15.88-0.22c1.23-0.72,3.36-0.58,4.83-0.09c7.47,2.46,15.14,1.94,22.79,1.95c5.29,0.01,10.72,0.7,15.27-3.15
		c0.68-0.57,1.88-0.73,2.84-0.73c12.34-0.03,24.43-2.35,36.58-4.04c0.95-0.13,1.96,0.21,2.95,0.34c0.82,2.65-0.72,4.43-2,6.3
		c-2.81,4.12-5.85,8.1-8.39,12.38c-6.97,11.75-14.54,23.04-23.09,33.72c-2.83,3.53-6.06,7.13-6.67,12.07
		c-0.22,1.77-1.64,3.48-3.17,3.41c-4.42-0.21-5.58,3.23-7.13,5.95c-2.3,4.03-4.46,8.21-6.04,12.57
		c-3.16,8.75-7.47,16.93-11.76,25.14c-1.05,2.02-2.7,3.91-1.97,6.49c1.72,6.02,1.87,12.33,4.43,18.26
		c5.02,11.62,10.06,23.12,18.63,32.72c3.89,4.36,8.88,7.59,11.32,13.47c1.56,3.77,6.86,3.56,10.36,5.39
		c1.99,1.04,4.59,0.83,6.76,1.61c3.49,1.26,5.98,3.19,7.46,7.22c2.36,6.42,4.98,13.26,12.98,15.12c5.99,7.71,13.99,9.5,23.52,10.3
		c13.12,1.09,23.31-2.54,31.64-12.34C2218.18,1133.88,2218.63,1133.38,2219.12,1132.81z"/>
	<path class="st0" d="M2534.63,1399.72c-2.61,8.11-5.83,16.08-7.72,24.35c-7.56,33.24-15.4,66.39-25.16,99.34
		c-1.89-1.61-1.22-3.25-1.01-4.68c2.3-15.73,2.35-31.77,6.05-47.28c2.93-12.28,5.46-24.59,6.69-37.16
		c0.51-5.28,0.86-10.6,1.74-15.83c1.22-7.17,2.7-14.31,4.38-21.38c2.41-10.09,3.26-20.32,3.18-30.64
		c-0.12-15.31,0.59-30.63-0.67-45.92c-0.92-11.23-2.03-22.45-3.01-33.67c-0.2-2.31-0.28-4.65-0.29-6.97
		c-0.04-6.66-0.25-13.33,0.03-19.98c0.82-19.71-2.55-39.06-4.93-58.48c-2.66-21.77-9.11-42.79-14.52-63.95
		c-2.44-9.56-3.42-19.63-7.7-28.73c-1.18-2.52-1.29-5.29-0.61-7.83c2.02-7.52,1.6-15.18,1.75-22.82c0.06-2.97,0.44-5.94,0.72-8.91
		c0.12-1.32,0.74-2.7,0.5-3.92c-1.69-8.59,0.22-17.05,0.79-25.55c0.67-10.03-2.53-19.63-3.16-29.68c4.55-1.79,7.75,0.72,10.59,3.41
		c7.47,7.08,14.78,14.31,23.7,19.64c6.99,4.18,10.19,10.21,8.84,18.44c-0.27,1.63-0.25,3.3-0.39,5.27
		c-6.66,2.97-13.82,0.3-21.25,2.04c2.49,4.96,6.25,7.17,11.54,7.12l-0.39-0.21c0.66,2.23,2.79,1.62,4.3,2.21l-0.29-0.16
		c6.76,3.42,13.53,6.84,20.29,10.26l-0.3-0.4c3.76,14.74,7.52,29.47,11.29,44.21c5.93,23.23,9.05,46.79,8.56,70.81
		c-0.21,10.27-0.64,20.52-1.17,30.79c-1.24,24.2-3.94,48.16-7.95,72.04c-1.71,10.16-4.61,20.01-6.49,30.11
		c-1.94,10.41-4.5,20.67-7.51,30.84c-3.47,11.71-7.41,23.34-8.69,35.6l0.25-0.47c-3.01,2.21-1.73,5.56-2.24,8.43L2534.63,1399.72z"
		/>
	<path class="st0" d="M2485.12,1607.39c10.16-4.26,20.24-6.47,30.46-7.13c11.3-0.74,22.34-2.91,33.42-4.77
		c19.56-3.29,39.06-6.91,58.71-9.74c9.56-1.38,19.07-2.2,28.71-2.36c5.27-0.09,10.59-0.69,15.76-1.72
		c5.58-1.11,11.16-1.29,16.78-1.7c12.19-0.9,24.35-2.31,36.52-3.56c4.22-0.43,5.79,0.37,7.05,5c0.81,2.97,1.54,5.43,4.43,7.3
		c3.02,1.95,2.85,5.65,3.25,9.01c0.73,6.21,2.6,7.43,9.19,6.89c3.27-0.27,3.27-0.27,10.57,3.29c0,5.24,0,10.79,0,16.61
		c-4,2.6-8.97,2.27-13.35,2.63c-17.84,1.49-35.47,5.31-53.54,4.46c-9.27-0.44-18.41,2.37-27.78,2.03
		c-6.96-0.25-13.95,0.37-20.93,0.5c-14.24,0.27-28.37,1.67-42.51,3.31c-5.91,0.68-11.96,0.1-17.92,0.44
		c-16.54,0.92-33.04,2.85-49.64,1.7c-4.27-0.3-8.52-1.29-12.78-1.35c-6.93-0.1-13.94-0.81-20.76,1.41
		c-1.48,0.48-3.31,0.38-5.42-1.05C2476.88,1628.04,2482.15,1618.4,2485.12,1607.39z"/>
	<path class="st0" d="M2524.71,1065.94c-1.02-2.04-4.57-1.64-4.57-5.23c4.74-2.08,10.28,0.27,15.45-1.71
		c1.84-5.28,0.21-10.7,1.26-16.41c4.61,0.57,7.32,3.92,10.28,6.71c1.93,1.82,3.54,3.96,5.35,5.91
		c11.35,12.21,23.46,23.55,37.24,33.03c3,2.07,5.81,4.46,8.5,6.92c3.15,2.88,5.34,5.79,5.86,10.79c0.74,7.13,3.86,14.02,5.95,21.01
		c1.82,6.09,2.51,12.32,2.8,18.68c1.07,23.38-1.56,46.47-5.11,69.49c-2.38,15.41-4.47,30.91-7.88,46.1
		c-5.6,24.96-12.73,49.5-23.67,72.8c-10.91,23.23-23.85,45.3-37.25,67.13c-0.88,1.44-1.75,2.79-3.46,3.33
		c-1.14-1.44-0.91-3.12-0.85-4.77l-0.27,0.29c3.31-2.13,1.8-5.54,2.24-8.43l-0.25,0.47c1.39-0.5,1.93-1.61,2.31-2.95
		c1.71-6.03,3.62-12.01,5.2-18.07c6.35-24.31,12.69-48.61,17.55-73.29c4.68-23.79,7.26-47.79,8.64-71.92
		c0.75-13.26,0.78-26.57,0.71-39.86c-0.1-17.88-0.83-35.52-5.6-53.15c-3.88-14.33-7.01-28.97-10.61-43.43
		c-1.06-4.27-1.29-9.35-6.23-11.72l0.3,0.4c0.66-3.08-0.64-4.97-3.59-5.77c-5.56-1.52-11.13-3-16.7-4.49l0.29,0.16
		c-1.07-1.43-2.67-1.86-4.3-2.21L2524.71,1065.94z"/>
	<path class="st0" d="M1144.79,1007.74c1.3,0.43,2.66,1.01,2.06,2.67c-4.23,11.79-7.93,23.73-10.82,35.92
		c-0.14,0.61-0.5,1.23-0.92,1.69c-7.96,8.78-14.17,19-22.76,27.3c-6.86,6.63-13.15,13.85-20.45,20.04
		c-0.65,0.55-0.78,1.71-1.15,2.58c-1.44-0.1-2.12,0.57-2.02,2.02c0,0-0.27-0.27-0.27-0.27c1.49,0.2,2.16-0.48,2.09-1.95
		c6.32-1.29,9.26-7.13,14.01-10.55c2.33-1.68,3.73-4.65,5.18-6.54c13.77,1.93,25.51,5.11,36.64,10.36c5.13,2.42,10.33,4.35,16,5.24
		c10.64,1.66,14.87,7.15,14.17,17.69c-0.22,3.3-0.41,6.61-0.6,9.66c-2.2,2.52-4.97,2.71-7.57,2.48
		c-19.62-1.67-39.22,0.82-58.83,0.12c-11.83-0.42-23.59-1.43-35.38-2.51c-20.12-1.85-40.24-4.58-60.55-3.55
		c-2.62,0.13-5.33,0.42-7.85-0.73c-1.71-2.14-0.09-3.77,0.91-5.34c9.01-14.09,19.16-26.88,33.86-35.86
		c15.29-9.34,29.78-19.98,44.71-29.92c16.58-11.04,33.3-21.86,49.84-32.96c3.51-2.36,7.77-3.9,10.03-7.88L1144.79,1007.74z"/>
	<path class="st0" d="M3046.6,1543.81c-7.67-3.31-15.79-1.94-23.55-1.31c-6.26,0.51-12.58,0.77-18.84,1.47
		c-19.12,2.14-38.27,3.98-57.4,6.05c-3.29,0.36-6.81,0.68-9.71,2.08c-9.92,4.8-20.93,3.24-31.19,5.88
		c-1.52,0.39-3.27-0.09-5.03-0.17c-3.86-5.21-6.07-11.08-8.77-16.23c1.13-2.74,2.97-3.2,5.03-3.49
		c27.93-3.91,55.81-8.14,83.78-11.67c13.16-1.66,26.48-2.47,39.75-2.79c15.67-0.38,30.98-3.61,46.54-4.81
		c4.6-0.36,9.29-0.88,13.88-1.05c16.97-0.62,33.65-3.54,50.47-5.34c14.19-1.52,28.18-4.29,42.49-5.13
		c21.88-1.29,43.69-3.59,65.66-3.19c9.77,0.18,18.86,2.84,28.09,6.19c-1.61,3.9-5.01,5.92-5.89,9.53
		c-17.01,1.62-33.14,5.64-49.8,6.63c-10.86,0.64-21.57,3.75-32.33,5.83c-10.12,1.96-20.23,3.67-30.59,3.97
		c-6.61,0.19-13.3,0.83-19.77,2.15c-6.69,1.36-12.08,5.2-15.2,11.61l0.38-0.38c-7.74,3.63-13.19,9.84-18.38,16.34l0.38-0.32
		c-3.62-0.69-5.13,4.12-8.99,3.39c0.32-1.85,0.63-3.64,0.94-5.43l-0.31,0.39c3.8-1.52,5.67-4.49,6.32-8.38l-0.32,0.39
		c3.03-1.06,4.25-3.33,4.31-6.39l-0.3,0.43c3.16-2.29,4.71-5.13,3.5-8.96c-6.96-2.46-13.39,0.38-19.9,0.44
		c-10.63,0.09-19.91,3.42-27.89,10.56c-1.73,1.55-3.45,3.95-6.55,3.39c0.83-3.89,1.56-7.29,2.25-10.55
		c-1.54-0.57-2.45-0.9-3.36-1.24L3046.6,1543.81z"/>
	<path class="st0" d="M2536.49,1681.88c4.29,2.93,8.57,5.86,12.78,8.74c-1.01,2.76-3.07,2.62-4.99,2.82
		c-11.21,1.15-22.55,0.16-33.73,2.33c-7.14,1.38-14.43,1.99-21.63,3.05c-12.87,1.9-25.77,1.23-38.62,1.18
		c-1.06-3.85,1.27-6.25,2.36-8.78c7.03-16.4,12.41-33.52,21.04-49.38c17.57,0,34.82-0.45,52.04,0.12
		c17.63,0.59,35.05-1.84,52.58-2.57c16.91-0.7,33.8-2.21,51.16-3.43c-1.54,4.06-4.7,4.09-6.97,4.95
		c-18.85,7.09-29.42,21.82-36.93,39.43c-0.63,1.47-0.5,3.25-0.81,4.87c-1.13,5.93-2.21,6.71-8.82,5.25
		c-11.63-2.56-23.2-5.38-34.82-8.01c-1.57-0.36-3.25-0.25-4.88-0.35c-0.13-0.37-0.27-0.74-0.4-1.1c-0.01,0.17-0.09,0.4-0.01,0.48
		C2536.01,1681.66,2536.27,1681.75,2536.49,1681.88z"/>
	<path class="st0" d="M3199.32,1492.09c0.59,9.59-0.38,11.23-7.83,11.29c-29.68,0.27-58.71,6.23-88.02,9.76
		c-8.56,1.03-17.22,1.42-25.8,1.9c-15.29,0.86-30.32,3.66-45.55,4.72c-12.59,0.87-25.24,1.09-37.76,2.51
		c-13.83,1.57-27.69,2.83-41.51,4.69c-18.42,2.48-36.65,6.05-55.04,8.59c-2.93,0.41-5.88,0.97-9.29-0.21
		c-0.32-4.96-1.22-9.6-4.23-13.86c-5.59-7.94-5.32-8.13-7.36-20.81c11.15-1.04,22.15-3.1,33.38-3.18
		c17.63-0.13,35.22,0.77,52.79,2.1c3.64,0.28,7.28,0.81,11.14,3.23c-4.61,1.67-8.47,3.23-13.21,1.65c-2.37-0.79-5.35-0.49-7.89,0.08
		c-9.07,2.02-18.16,4.04-27.07,6.66c-8.3,2.44-17.05,2.97-25.11,6.31c-1.49,0.62-3.33,0.5-4.74,2.8c7.7-0.02,14.64-2.26,21.63-3.63
		c7.73-1.52,15.78-2.17,22.78-6.62c1.82-1.16,4.84-1.91,6.74-1.24c7.85,2.76,15.17-0.46,22.53-1.66
		c12.11-1.98,24.18-4.09,36.41-5.35c14.84-1.53,29.6-3.99,44.45-5.37c15.21-1.41,30.48-2.22,45.74-2.91
		c19.92-0.89,39.87-1.15,59.78-2.19c7.61-0.4,15.2-1.64,22.85-1.16C3185.71,1490.61,3192.25,1491.41,3199.32,1492.09z"/>
	<path class="st0" d="M3349.84,1592.42c1.61,4.18-0.58,6.35-3.04,8.13c-10.51,7.63-21.46,14.53-33.59,19.34
		c-4.94,1.96-9.96,3.69-14.89,5.66c-15.47,6.15-31.73,9.52-47.56,14.06c-1.08-0.68-2.03-1.07-2.71-1.74
		c-17.92-17.46-39.07-19.88-61.85-12.62c-5.97,1.9-11.07,2.17-17.26,0.86c-21.53-4.54-42.33-2.14-61.21,10.06
		c-4.61,2.98-9.37,4.94-14.73,5.56c-13.17,1.51-26.31,3.88-39.59,0.52c-3.17-0.8-6.71-1.16-9.91-0.67
		c-10.23,1.57-19.74-0.96-29.16-4.28c-2.57-0.91-5.16-1.12-7.82-1.28c-2.39-0.14-4.46-1.02-5.49-3.65
		c4.13-1.31,8.22-2.15,12.59-2.36c26.17-1.23,52.11-4.93,78.15-7.42c22.26-2.13,43.71-8.23,65.75-11.13
		c21.34-2.81,42.45-7.42,64.14-7.47c10.31-0.02,20.22-3.57,30.37-5.25c3.18-0.53,6.34-1.22,11.01-2.13
		c-9.29,10.09-17.44,18.94-27.27,29.61c6.46-2.33,10.19-4.94,13.98-7.27c10.48-6.44,20.58-13.44,30.25-21.05
		c3.24-2.55,6.6-3.77,10.9-3.92c16.26-0.56,32.49-1.71,48.74-2.47C3342.88,1591.37,3346.27,1590.9,3349.84,1592.42z"/>
	<path class="st0" d="M1218.47,1157.76c0.28,2.29,0.2,4.69,0.89,6.84c3.04,9.49,4.17,19.27,5.55,29.09
		c1.88,13.4,5.01,26.61,8.8,39.61c1.05,3.61,1.62,7.01,0.84,10.64l0.26-0.25c-0.79,0.79-1.58,1.58-2.37,2.37
		c0,0,0.33-0.34,0.33-0.34c-1.45,0.1-2.21,0.89-2.33,2.32c0,0,0.37-0.37,0.37-0.37c-1.45,0.13-2.25,0.92-2.37,2.37
		c0,0,0.37-0.37,0.37-0.37c-1.45,0.13-2.25,0.92-2.37,2.37c0,0,0.37-0.37,0.37-0.37c-1.45,0.13-2.25,0.92-2.37,2.37l0.36-0.38
		c-8.64,5.28-14.06,13.75-20.73,20.96c-12.83,13.85-23.84,29.16-34.88,44.43c-1.22,1.69-1.72,4.49-4.83,4.02l-0.12,0.25
		c6.88-24.34,17.78-47.08,27.98-70.1c2.25-5.08,6.35-9.4,6.34-15.41c3.91-2.2,5.91-5.54,5.97-10.04c5.18-4.1,8.18-9.61,10.09-15.8
		c2.34-1.23,1.34-3.15,1.01-4.92c1.39,0.71,2.61-0.02,3.87-0.46c-0.78-0.27-0.82-0.44-0.13-0.52c-0.03,0.24-0.06,0.49-0.09,0.73
		c-1.17,0.12-2.35,0.23-3.52,0.35c-0.31,1.68-0.61,3.36-0.92,5.04c-5.44,3.92-8.45,9.41-10.15,15.75
		c-3.95,2.19-5.97,5.52-5.95,10.06c-3.66,1.2-4.31,4.79-5.72,7.6c-3.68,7.35-7.03,14.87-11.41,24.26
		c-0.61-7.69,1.46-12.84,3.08-17.74c4.12-12.46,4.78-25.4,5.31-38.17c0.55-13.24,2.2-26.37,3.3-39.52
		c1.08-12.9,0.52-25.77,1.23-38.63c3.94-0.58,1.88-2.5,1.31-4.62c-1.61,1.74-1.8,3.21-1.09,4.81c-3.08,2.47-2.15,5.93-2.2,9.12
		c-0.29,18.17-3.03,36.1-4.49,54.31c-2.94-1.01-3.22-3-3.07-5.05c1.16-16.03-1.81-31.83-3.06-47.68
		c-1.01-12.76,1.39-25.03,1.9-37.53c0.11-2.66,0.6-5.22-0.25-7.85c-0.8-2.48-0.94-5.1-4.63-5.42c-2.41-0.21-3.37-2.99-5.51-4.93
		c9.4,0.13,16.35,3.74,21.38,11.1l-0.34-0.41c1.69,7.06,3.25,14.13,2.65,21.47c-0.04,0.45,0.3,0.93,0.43,1.31
		c1.58-1.27,0.16-3.91,2.3-4.92c0.99,0.18,1.96,0.36,2.92,0.54c0,0-0.33-0.37-0.33-0.37c-0.23,3.25,2.01,4.84,4.3,6.4l-0.32-0.4
		c0.16,0.63,0.12,1.46,0.51,1.87c5.67,5.98,7.85,13.3,8.45,21.28c0.03,0.46,0.87,0.86,1.34,1.28c0,0-0.24-0.47-0.24-0.47
		c0.08,3-0.78,6.24,2.24,8.47C1218.75,1158.09,1218.47,1157.76,1218.47,1157.76z"/>
	<path class="st0" d="M2669.99,1543.99c3.32-0.1,6.66-0.41,9.97-0.25c4.76,0.23,7.92,2.73,9.56,7.78
		c-15.49,1.77-30.62,3.28-45.53,6.29c-11.69,2.36-23.22,5.41-35.13,6.85c-16.77,2.03-33.43,4.94-50.18,7.12
		c-17.05,2.22-34.14,4.29-52.74,4.56c5.05,2.52,9,0.85,12.81,0.97c4.32,0.13,8.83,0.78,12.94-0.18c8.79-2.04,17.77-1.59,26.62-2.93
		c12.1-1.83,24.14-4.18,36.4-5.19c11.51-0.95,22.99-2.67,34.3-5.22c16.82-3.8,33.65-7.58,50.97-8.35c0.33-0.01,0.7,0.05,0.99-0.06
		c10.95-4.22,17.74,0.48,22.27,10.26c1.21,2.62,4.77,3.83,4.61,7.79c-4.44,0.78-8.91,2.08-13.43,2.26
		c-16.24,0.63-32.35,2.82-48.53,3.94c-19.17,1.32-38.17,3.88-57.2,6.24c-12.81,1.59-25.41,4.77-38.19,6.72
		c-11.76,1.8-23.34,4.7-35.35,5.23c-7.21,0.32-14.34,2.46-21.51,3.76c-1.91,0.35-3.84,0.6-6.71,1.04
		c2.03-11.86,6.65-22.32,9.84-33.39c10.3-3.21,20.94-3.5,31.35-5.07c15.06-2.27,30.21-3.79,45.43-4.88
		c11.51-0.82,22.89-3.29,34.35-4.94c10.82-1.56,21.71-2.69,32.46-4.6c10-1.78,20.3-2.17,29.9-5.94L2669.99,1543.99z
		 M2498.79,1578.91c-0.09-0.2-0.16-0.57-0.26-0.57c-0.28-0.01-0.57,0.12-0.86,0.19c0.09,0.21,0.17,0.59,0.26,0.59
		C2498.21,1579.12,2498.5,1578.99,2498.79,1578.91z"/>
	<path class="st0" d="M2325.45,1644.64c2.83-0.96,5.66-1.83,9.26,0.32c-6.34,16.53-11.77,33.42-17.01,50.85
		c-11.65,0.38-22.79,0.79-34.09-0.3c-1.96-6.54,0.24-12.38,1.39-17.99c1.08-5.24,2.09-10.5,1.88-15.7
		c-0.33-8.4,0.96-16.54,2.13-24.75c0.23-1.6,1.68-3.31,0.55-4.76c-3.13-3.99,0.54-6.47,1.79-9.49c8.17,1.98,16.33,0.22,24.5-0.06
		c-8.11-1.39-16.21-1.04-24.3,0.19c-0.93,0.48-2.34,0.59-2.58-0.24c-0.96-3.28-0.82-6.52,2.02-9.01c2.23-1.95,4.6-3.74,6.8-5.73
		c5.47-4.97,11.19-9.28,19.2-8.6c1.38,0.12,2.54-0.47,3.09-1.89c2.63,0,5.26,0,7.9,0c-2.7-1.31-5.41-2.23-7.65,0.26
		c-2.62,0-5.23,0-8.05,0c4.32-8.03,11.35-14.71,18.71-17.97c0.82-0.37,2.23-0.8,2.28-1.31c0.58-6.08,6.18-8.25,9.41-12.22
		c3.07-3.78,6.48-7.29,10.41-11.66c1.5,3.7,1.16,6.45,0.57,9.25c-2.32,10.85-4.52,21.73-6.95,32.56
		c-1.23,5.48-3.46,10.81-4.03,16.34c-0.32,3.14-4.17,4.73-3.17,6.97c1.57,3.54,0.5,6.41-0.34,9.54c-0.77,2.88-1.54,5.76-2.36,8.63
		c-0.26,0.92-0.7,1.79-0.97,2.49c-2.52,1.87-5.3,1.41-7.88,1.8c-1.6,0.25-2.25,1.09-2.28,2.6c-10.55-2.8-20.67,0.86-30.93,2.26
		C2305.12,1648.4,2315.19,1645.24,2325.45,1644.64z M2333.89,1620.46c-4.65,0-7.83,0-11.02,0
		C2326.08,1621.78,2329.27,1621.71,2333.89,1620.46z M2333.58,1594.7c2.71,1.35,4.55,1.41,6.43,0.37
		C2338.35,1593.48,2336.49,1594.19,2333.58,1594.7z M2339.11,1577.48c0.53-0.21,1.06-0.41,1.59-0.62c-0.58-0.19-1.15-0.43-1.74-0.53
		c-0.27-0.05-0.75,0.09-0.85,0.29C2337.86,1577.14,2338.26,1577.47,2339.11,1577.48z M2347.11,1574.57
		c-0.24-0.07-0.49-0.24-0.72-0.21c-0.91,0.14-0.96,0.49-0.14,0.85c0.2,0.09,0.53-0.02,0.75-0.13
		C2347.11,1575.04,2347.08,1574.75,2347.11,1574.57z M2289.04,1648.64l0.57,0.39l0.09-0.59L2289.04,1648.64z"/>
	<path class="st0" d="M1480.82,333.76c-2.58-0.09-4.39,1.25-5.91,3.15c-5.76,7.2-11.59,14.36-15,23.09c-0.22,0.55-0.9,0.92-2.12,2.1
		c-10.07-2.6-21.11-0.9-31.91-2.17c-6.72-0.79-13.18-3.75-20.53-5.97c5.73-7.56,12.4-12.29,19.24-16.73
		c5.27-3.42,11.47-5.55,15.97-9.97c2.34-2.3,6.4,0.61,7.86-3.75c-5.8-0.22-10.92,1.94-16.2,2.94c-5.19,0.97-10.19,3.02-15.4,3.75
		c-5.28,0.74-9.84,6.12-15.59,2.92c-0.92-2.11-0.65-4.04,0.64-4.99c4.44-3.27,6.73-8.18,9.84-12.42
		c9.8-13.38,22.63-22.93,37.29-30.3c3.29-1.66,6.54-1.68,9.38,0.52c2.58,2,5.24,2.69,8.35,2.19l-0.35-0.27
		c7.02,4.14,14.21,8.03,21.02,12.49c7.09,4.64,15.83,2.9,23.79,6.51c-9.09,7.34-17.64,14.35-26.33,21.18
		c-2.13,1.67-4.33,3.05-4.43,6.09L1480.82,333.76z M1452.76,321.26c4.16,0.8,6.82,1.82,9.07-2.95
		C1458.58,319.37,1456.38,320.08,1452.76,321.26z M1467.46,314.81c0.03,0.21-0.01,0.53,0.11,0.62c0.18,0.13,0.53,0.2,0.72,0.11
		c0.67-0.31,0.62-0.69-0.13-0.93C1467.97,314.54,1467.7,314.73,1467.46,314.81z"/>
	<path class="st0" d="M2428.3,1200.2c2.83-3.77,4.09-8.02,4.56-12.71c2.57-25.87,1.94-51.8,1.94-77.73c0-9.94,0.13-19.89-2.05-29.71
		c-0.56-2.56-0.55-5.35,2.61-6.79c4.52-2.06,5.44-6.52,6.53-10.65c1.79-6.73,2.74-13.62,2.94-20.6c0.05-1.59-0.3-3.39,1.65-4.42
		c2.34-0.17,2.12,1.96,2.66,3.29c5.48,13.53,11.4,26.91,14.3,41.33c0.33,1.63,0.77,3.27,0.81,4.91c0.63,25.89,2.35,51.83-3.93,77.39
		c-2.61,10.62-4.66,21.38-8.16,31.77c-0.53,1.56-1.12,3.1-1.76,4.62c-1.29,3.06-2.13,6.47-4.05,9.06
		c-7.49,10.13-12.02,21.94-18.36,33.33c-4.27-4.36-3.19-8.6-2.59-12.76c1.46-10.17,3.11-20.32,3.16-30.64L2428.3,1200.2z"/>
	<path class="st0" d="M1550.39,155.29c1.45-3.47,4.15-2.93,6.25-2.56c14.99,2.68,30.29,3.34,45.16,6.84
		c1.93,0.45,3.94,0.5,5.92,0.76c6.02,0.8,7.3,2.23,7.04,8.43c-0.14,3.31-0.12,6.76-1.03,9.89c-2.7,9.32-2.71,19.05-4.85,28.45
		c-1.34,5.87-0.63,11.94-0.48,17.93c0.04,1.59,0.48,3.21-0.53,4.51c-0.95,0.05-1.79,0.36-2.19,0.07
		c-9.71-7.16-20.75-11.6-31.82-16.1c-8.83-3.59-17.06-8.34-25.04-16.55c0.19,12.1,3.23,21.72,6.6,31.99
		c-7.98,2.19-15.6,2.56-22.68,0.18c-13.09-4.4-26.93-6.7-39.27-13.19c-3.69-1.94-8.98-0.57-11.55-6.19
		c8.94-5.72,19.69-6.01,29.41-9.21c10.02-3.3,20.34-5.77,30.64-8.15c9.98-2.3,20.03-4.42,30.4-4.33
		c10.49,0.09,20.98,0.02,31.61-0.79c-5.42-5.39-13.06-5.22-19.13-8.46c-6.1-3.26-12.95-5.09-18.29-9.81
		C1561.21,164.27,1555.69,159.76,1550.39,155.29z"/>
	<path class="st0" d="M2408.34,1946.2c5.9,2.67,6.23,6.77,7.37,10.02c3.8,10.89,4.28,21.82,0.83,33.15
		c-3.03,9.94-7.32,19.22-12.04,28.36c-5.96,11.53-14.33,20.59-26.45,26.11c-7.19,3.27-14.46,5.22-22.22,4.13
		c-12.48-1.75-24.94-3.73-37.32-6.08c-7.36-1.4-8.94-5.35-6.18-12.47c0.87-2.25,2.08-4.12,3.75-5.79
		c7.55-7.55,15.67-14.35,24.94-19.74c5.35-3.11,10.18-2.75,16.01-0.44c10.2,4.05,20.31,4.7,29.54-3.86
		c7.65-7.09,14.83-14.09,18.49-24.24c1.96-5.43,3.33-10.72,3.13-16.48C2408.06,1955.01,2408.27,1951.12,2408.34,1946.2z
		 M2381.47,2015.02c-1.73,2.32-5.54,1.92-6.65,5.06c-0.85-0.01-1.71-0.03-2.56-0.04c0.14,0.38,0.22,1.05,0.42,1.08
		c0.98,0.16,1.71-0.22,1.93-1.29c1.75-0.41,3.57-0.65,5.23-1.3c1.41-0.55,2.65-1.58,1.46-3.42c0.63,0.02,1.26,0.04,1.89,0.07
		C2382.61,2015.12,2382.04,2015.07,2381.47,2015.02z M2331.2,2018.38c3.45,6.84,9.88,4.93,14.94,5.33
		c5.05,0.4,10.55,1.99,15.44-1.13c-5.02-0.28-9.93-0.83-14.84-1.54C2341.69,2020.3,2337.15,2016.41,2331.2,2018.38z"/>
	<path class="st0" d="M1439.44,492.09c-2.81-20.74,8.77-66.76,19.82-80.13c3.27,3.94-2.24,8.21,0.77,12.51
		c6.81-2.65,11.56-8.25,16.73-12.89c2.96,1.36,1.82,3.43,1.8,5.26c-0.12,9.32-0.2,18.63-0.24,27.95c-0.01,1.32,0.03,2.71,0.42,3.96
		c3.78,12.33,5.99,25.25,13.19,36.31c7.43,11.4,11.32,24.62,19.12,35.75c-1.47,4.17-3.29,7.64-5.61,10.89
		c-2.29,3.21-4.55,6.45-7.48,10.62c-7.14-10.56-8.21-22.14-11.07-33.02c-2.85-10.84-4.18-21.99-4.94-33.37
		c-4.04,7.9-4.62,16.98-9.26,25.25c-3.9-5.48-0.15-10.37-0.31-15.17c-0.19-5.63,0.71-11.31,0.45-16.93
		c-0.24-5.2,2.57-10.15,0.79-16.73C1464.58,467.98,1452.64,479.83,1439.44,492.09z"/>
	<path class="st0" d="M2780.55,1651.64c-6.85,0.5-13.71,1-21.03,1.54c-3.79-10.48-9.1-20.05-11.66-30.74
		c-1.77-7.41-0.83-9.23,6.46-11.44c12.11-3.67,23.08-10.01,34.63-14.98c7.1-3.05,14.44-4.71,21.86-6.27
		c6.56-1.38,12.42,0.62,17.83,4.28l-0.37-0.43c-0.02,3.12,1.47,5.22,4.32,6.39l-0.31-0.44c0.4,2.59,0.41,5.32,1.29,7.74
		c1.94,5.36,1,10.35-1.08,15.35c-0.74,1.79-2.44,3.18-2.24,5.36c0,0,0.36-0.4,0.36-0.4c-1.57,0.01-2.36,0.79-2.37,2.37
		c0,0,0.37-0.37,0.37-0.37c-1.52,0.06-2.24,0.93-2.38,2.37l0.39-0.36c-11.85,6.32-24.4,11.05-36.84,16.03
		c-3.24,1.3-7.13,1.2-9.58,4.26L2780.55,1651.64z M2808.81,1632.04c8.5,0.26,20.11-7.57,18.95-15.15
		c-1.75-11.4-5.14-19.62-16.9-19.41c-9.56,0.17-18.54,8.37-18.55,17.18C2792.29,1624.62,2799.82,1632.48,2808.81,1632.04z"/>
	<path class="st0" d="M2024.46,1196.37c-0.81,3.94-4.01,3.83-6.33,4.72c-9.98,3.79-15.33,11.05-15.95,21.63
		c-0.58,9.89-1.38,19.76-2.09,29.9c-3.63,0.69-6.95,0.96-10.01,1.99c-8.42,2.84-15.53,7.75-20.32,15.33
		c-4.61,7.29-10.21,13.98-13.45,22.11c-0.47,1.17-1.07,2.48-2.8,2.31c-1.58-0.65-1.24-2.14-1.23-3.32
		c0.05-6.32-0.24-12.69,0.42-18.96c1.89-18,7.18-35.22,14.65-51.55c6.91-15.13,18.59-25.67,35.23-29.86
		c4.41-1.11,8.59-0.2,12.74,1.07C2018.69,1192.76,2022.47,1193.19,2024.46,1196.37z M1966.88,1259.55c0-5.24,0.2-10.49-0.05-15.72
		c-0.26-5.48,2.77-10.74,1.14-16.78C1962.13,1241.15,1961.45,1249.85,1966.88,1259.55z"/>
	<path class="st0" d="M2670.27,1543.8c-12.05-0.37-23.6,3.22-35.45,4.52c-13.13,1.44-26.19,3.61-39.25,5.6
		c-18.66,2.85-37.49,4.13-56.23,6.28c-13.1,1.5-26.15,3.44-39.22,5.18c-1.68-14.04,3.58-17.36,12.36-17.37
		c16.62-0.01,32.98-2.98,49.41-5.31c17.06-2.42,34.04-5.36,51.25-6.99c16.81-1.59,33.76-2,50.43-5.29c8.06-1.59,12.73,3.73,16.66,10
		c-3.06,3.19-7.73,0.24-10.23,3.57L2670.27,1543.8z"/>
	<path class="st0" d="M2195.12,1197.04c-2.26,0.55-3.55-1.31-5.26-2.13c-9.18-4.41-19.19-0.42-22.59,9.21
		c-1.88,5.33-2.86,10.87-3.13,16.57c-0.38,7.89-0.95,15.77,0.98,23.37c-2.58,2.67-5.55,3.26-8.45,3.35
		c-9.76,0.32-19.07,2.04-27.51,7.31c-1.05,0.65-2.46,0.72-3.89,1.11c-1.58-5.33,0.29-10.07,0.86-14.89
		c1.49-12.61,4.28-24.85,10.52-36.05c5.36-9.62,11.86-18.28,21.21-24.45c1.96-1.29,4-2.16,6.45-2.32c3.98-0.27,7.91-0.47,11.92-0.31
		c9.18,0.37,15.78,3.42,19.64,17.51C2196,1195.77,2195.4,1196.44,2195.12,1197.04z M2150.31,1195.5c0.6,0.04,1.24,0.25,1.78,0.1
		c0.91-0.27,1.81-1.04,1.25-1.95c-0.65-1.04-1.58-0.09-2.15,0.42c-0.39,0.35-0.44,1.08-0.64,1.65L2150.31,1195.5z M2144.11,1205.97
		c-7.12,9.21-9.5,22.88-6.25,33.95c3.56-4.98,1.99-10.81,2.57-16.27C2141.04,1217.83,2144.28,1212.54,2144.11,1205.97z"/>
	<path class="st0" d="M1863.23,1290.67c-5.68,6.95-12.55,10.57-15.78,17.21c-3.34,6.87-5.72,14-6.8,21.74
		c-1.06,7.54,0.99,14.32,3.28,21.48c-10.42,2.16-15.46,9.53-18.89,18.03c-2.35,5.81-4.41,11.87-4.79,18.27
		c-0.26,4.39-1.35,8.4-5.27,12.56c-2.77-14.86-8.25-28.23-8.01-42.65c0.22-13.49,3.66-26.3,10.24-38.11
		c4.6-8.25,10.64-15.27,19.4-19.48c6.85-3.29,13-8.16,20.79-9.31C1858.66,1290.23,1859.99,1290.51,1863.23,1290.67z
		 M1813.41,1340.42c-4.37,9.21-1.73,18.45-0.02,27.63c0.36,1.94,0.64,4.89,5.79,3.96
		C1817.12,1361.59,1813.17,1351.3,1813.41,1340.42z M1821.22,1322.77c-1.65,1.84-4.69,3.07-3.63,6.93
		C1819.58,1327.36,1821.73,1325.86,1821.22,1322.77z"/>
	<path class="st0" d="M1595.19,608.82c-2.1-8.93-6.28-15.25-10.52-21.52c-1.49-2.21-2.95-4.7-5.63-5.42
		c-9.22-2.47-13.61-9.94-18.3-17.15c-0.86-1.33-0.53-3.33-2.52-4.2c-2.13-0.37-4.03,2.26-6.57,0.87c-3.41-4.26-2.75-9.87-3.95-15.03
		c-5.05-0.52-4.28,6.07-8.35,6.14c-2.81-5.28-1.49-11.6-4.27-17.89c-4.57,4.18-2.77,10.62-6.51,14.36
		c-7.08-9.77-11.9-29.29-11.64-46.79c2.14-1.06,2.72,0.76,3.72,1.96c9.09,10.96,18.21,21.89,27.32,32.84
		c0.21,0.25,0.35,0.74,0.58,0.78c9.53,1.82,9.03,11.64,13.72,17.32c1.19,1.44,1.16,3.86,3.56,4.4c4.79-3.01,0.14-10.31,6.59-13.07
		c1.5-0.31,3.04,0.93,4.46,2.38c0.93,0.95,1.6,2.52,2.69,2.88c8.53,2.77,9.81,10.81,12.75,17.49c3.77,8.56,5.26,17.78,6.42,27
		C1599.24,600.09,1599.18,604.13,1595.19,608.82z"/>
	<path class="st0" d="M3205.65,1675.16c-7.65-10.65-17.87-16.52-29.24-20.62c-12.11-4.36-23.43-3.22-33.57,5.24
		c-1.28,1.07-2.55,2.14-5.49,2.32c-9.31-5.59-17.96-14.43-30.99-16.58c6.67-6.71,14.18-9.58,21.89-11.26
		c15.42-3.35,30.79-3.94,46.11,1.7c15.85,5.83,25.66,17.2,31.99,32.16C3207.01,1669.65,3207.91,1671.84,3205.65,1675.16z
		 M3147.3,1637.85c-3.9,0-7.8-0.09-11.7,0.02c-4.01,0.12-7.75,1.19-10.87,3.87c-1.12,0.96-2.95,1.75-0.85,4.06
		C3130.99,1641.03,3139.03,1638.94,3147.3,1637.85z M3169.63,1638.87c-0.56-0.27-1.1-0.6-1.69-0.76c-0.19-0.05-0.5,0.39-0.75,0.6
		c0.56,0.27,1.1,0.6,1.69,0.76C3169.07,1639.53,3169.38,1639.09,3169.63,1638.87z"/>
	<path class="st0" d="M1411.85,411.46c3.44-16.19,47.34-42.56,70.02-46.03c-2.5,7.17-7.75,12.42-10.69,18.89
		c-0.54,1.19-1.7,2.12-2.16,3.32c-2.83,7.34-7.88,10.9-15.63,13.52c-9.35,3.17-18.76,6.27-28.16,9.37
		C1419.26,412.49,1419.21,412.32,1411.85,411.46z"/>
	<path class="st0" d="M2647.95,1646.18c-0.48-1.11-0.96-2.23-1.57-3.65c11.68-1.9,21.25,3.65,31.98,7.66
		c-3.44,5.26-9.59,5.13-13.22,8.89c-3.66,3.78-8.13,6.78-12.05,9.97c-3.06,0.41-4.5-1.68-6.1-3.25c-6.12-6.01-13.22-6.78-21.19-4.62
		c-8.25,2.24-15.15,6.65-21.45,12.21c-2.24,1.97-4.39,4.04-6.48,5.97c-2.59-1.02-3.42-2.63-2.39-4.85
		c6.33-13.63,16.44-23.09,30.84-27.77c1.26-0.41,2.74-0.38,3.83-1.03c4.38-2.63,8.6-2.92,13.15-0.29c1.3,0.75,3.26,0.36,4.92,0.49
		c2.5,2.46,5.61,1.39,8.52,1.5c-0.33,2.45,1.97,2.09,3.14,2.93c0.14-0.06,0.27-0.12,0.41-0.18c-0.22,0.1-0.44,0.21-0.65,0.31
		c0.64-2.83-1.55-2.49-3.15-2.79C2653.94,1645.45,2650.91,1646.02,2647.95,1646.18z"/>
	<path class="st0" d="M2990.19,1647.77c4.6,0.76,8.95,2.22,13.82,4.79c-0.07,12.58-2.11,25.43-1.19,38.29
		c0.9,12.62-0.72,25.16-0.12,37.85c-1.55,0.8-2.66,1.42-3.82,1.95c-3.06,1.4-5.27,0.3-6.28-2.7c-0.95-2.8-2-5.76-2.02-8.66
		c-0.08-18.55-3.07-37-2.03-55.58l-0.25,0.29c3.28-5.16,1.64-10.98,2.23-16.49L2990.19,1647.77z"/>
	<path class="st0" d="M2830.53,1587.65c-0.66,0.1-1.32,0.32-1.97,0.3c-10.91-0.33-21.82-0.58-31.93,2.3
		c-2.03-1.77-2.57-3.2-1.56-5.44c7.44-1.32,15.46-0.37,23.16-2.65c7.65-2.26,15.03-4.97,21.43-8.47c1.62-2.8,0.27-4.47-0.52-6.29
		c2.44-2.56,3.99-5.62,4.27-8.99c13.78,0.72,24.83-7.47,36.92-12.09c3.16,2.21,4.19,5.44,5.77,8.18c-0.38,2.56-3.76,2.89-3.89,5.54
		l0.39-0.38c-4.24,0.19-6.12,3.53-8.4,6.33c0,0,0.42-0.3,0.42-0.3c-1.88-0.03-3.93-0.4-4.41,2.27c0,0,0.43-0.3,0.43-0.3
		c-1.82,0.13-3.66,0.22-4.46,2.32c0,0,0.4-0.33,0.4-0.33c-1.43,0.14-2.3,0.84-2.34,2.35c0,0,0.4-0.33,0.4-0.33
		c-1.8,0.15-3.68,0.15-4.44,2.3l0.42-0.29c-1.85,0-3.29,0.8-4.4,2.25c0,0,0.34-0.23,0.34-0.23c-1.61,0.47-3.65,0.08-4.37,2.26
		c0,0,0.43-0.29,0.43-0.29c-1.77,0.15-3.64,0.13-4.37,2.27l0.36-0.23c-4.78,0.78-9.62,1.43-12.36,6.25c0,0,0.4-0.26,0.4-0.26
		c-2.19,0.59-4.9-0.31-6.41,2.23L2830.53,1587.65z"/>
	<path class="st0" d="M3262.18,1674.38c-3.44-0.93-4.82-2.93-6.23-4.7c-13.48-16.85-30.21-25.59-52.79-20.84
		c-4.25-5.8-9.85-10.33-16.07-15.69c7.72-4.24,14.96-5.75,25.11-4.38c-6.16,1.56-10.96,0.23-14.18,3.95
		c0.43,0.27,0.96,0.87,1.25,0.77c12.05-4.06,23.45,1.8,35.19,2.31c0.88,0.04,1.93,0.68,2.55,1.36c7.57,8.29,17.12,14.92,21.89,25.55
		C3260.47,1666.18,3263.18,1669.46,3262.18,1674.38z"/>
	<path class="st0" d="M2756.12,1662.2c-0.75,6.52-3.01,14.3-10.33,19.67c-5.99,4.39-12.52,7.6-20.01,8.17
		c-6.49,0.49-8.01-0.95-10.04-7.05c-2.65-7.98,0.59-15.12,3.24-22.15c2.05-5.44,7.79-6.97,12.85-8.53c4.1-1.27,8.36-2.3,12.62-2.7
		C2753.13,1648.79,2755.99,1651.6,2756.12,1662.2z M2728.08,1678.24c2.04-0.11,4.04-0.08,6-0.34c5.41-0.74,10-3.27,14.02-6.87
		c2.85-2.56,2.98-5.9,1.91-9.13c-1.07-3.22-4.11-4.72-7.15-4.14c-7.49,1.43-14.79,3.63-20.01,9.81c-2.66,3.14-3.54,7.01-1.89,9.05
		C2722.84,1678.94,2725.45,1679.01,2728.08,1678.24z"/>
	<path class="st0" d="M1982.7,1483.72c-0.98-0.12-2.71-0.01-2.83-0.39c-2.13-7.16-8.41-10.76-13.32-15.46
		c-2.52-2.41-4.38-4.7-4.33-8.34c0.09-6.65-1.93-13.01-3.12-20.58c0.27-0.15,1.07-0.73,1.97-1.07c8.42-3.25,10.28-2.54,13.87,5.37
		c4.59,10.12,6.9,20.65,5.64,31.82c-0.29,2.56-1.2,5.37,2.07,6.89c0,0-0.2-0.31-0.2-0.31c-0.01,0.78-0.03,1.55-0.04,2.33
		L1982.7,1483.72z"/>
	<path class="st0" d="M1573.29,249.29c-6.49,1.29-10.75,1.46-14.95,0.29c-12.3-3.43-24.68-4.79-37.28-1.79
		c-0.94,0.22-1.98,0.06-2.97,0.01c-0.97-0.05-1.94-0.2-2.89-0.3c-0.35-1.81,0.99-2.79,2.01-2.74c4.25,0.18,7.6-2.02,11.03-3.87
		c7.4-4,15.64-5.32,23.49-7.88c3.97-1.29,6.43-0.12,8.55,2.82C1563.53,240.37,1567.11,244.63,1573.29,249.29z"/>
	<path class="st0" d="M1835.88,340.76c-4.08,1.02-7.37,0.95-10.54,0.21c-2.33-0.54-4.52-0.86-6.83-0.17c-4.8,1.45-7.52-1.24-9.5-5
		c-1.07-2.03-1.71-4.28-2.87-7.24c7.32-4.62,16.15-5,23.62-9.54C1835.43,325.69,1836.41,332.59,1835.88,340.76z"/>
	<path class="st0" d="M1458.8,270.7c4.1-2.9,8.04-6.59,12.91-6.09c4.78,0.5,10.03,1.06,14.21,4.94c-6.68,0.91-13.34,1.96-20.04,2.66
		C1463.76,272.44,1461.33,273.04,1458.8,270.7z"/>
	<path class="st0" d="M1579.28,658.86c0.54-4.52,4.85-6.95,2.21-10.94c-0.66-1,1.47-1.87,2.68-2.33c3.72-1.41,1.42-3.49,0.62-5.43
		c0.16-2.48,2.73-2.57,4.04-3.93c1.14-1.19,2.61-2.04,4.48-1.56c2.02,2.29,0.45,4.35-0.58,6.33
		C1589.44,647.32,1585.97,653.53,1579.28,658.86z"/>
	<path class="st0" d="M3000.49,1641.62c5.45,0.9,10.9,1.81,16.36,2.71c-2.01,7.33-4.44,8.96-9.9,5.86
		c-1.95-1.11-4.23-1.61-5.98-3.12c-1.03-1.91-0.33-3.86-0.16-5.8L3000.49,1641.62z"/>
	<path class="st0" d="M1557.52,526.96c-8.21-5.12-9.47-13.78-11.03-22.17c-0.43-2.34,1.69-3.27,4.71-3.87
		c1.64,8.82,1.38,18.19,6.19,26.18L1557.52,526.96z"/>
	<path class="st0" d="M1806.52,303.33c3.74-4.27,8.72-2.76,11.95-4.92c3.66,1.38,4.1,4.44,5.7,6.61c-1.02,0.86-1.58,1.67-1.96,1.6
		C1817.18,305.64,1812.17,304.54,1806.52,303.33z"/>
	<path class="st0" d="M1557.39,527.09c2.55,6.22,7.61,11.54,7.1,21.35c-3.9-8.28-8.42-13.85-6.97-21.49L1557.39,527.09z"/>
	<path class="st0" d="M1449.42,281.13c-5.57,2.55-5.57,2.55-9.38,1.04C1444.33,277.44,1444.33,277.44,1449.42,281.13z"/>
	<path class="st0" d="M3262.37,1592.63c-0.04,0.14-0.07,0.41-0.14,0.42c-0.28,0.05-0.58,0.07-0.85-0.01
		c-0.25-0.07-0.46-0.27-0.69-0.42C3261.25,1592.63,3261.81,1592.63,3262.37,1592.63z"/>
	<path class="st0" d="M1689.03,258.58c0.02-0.63,0.03-1.26,0.05-1.89c1.44,0.82-0.28,1.07-0.29,1.63L1689.03,258.58z"/>
	<path class="st0" d="M2457.21,1199.87c0.22,0,0.55-0.08,0.61,0.02c0.15,0.23,0.31,0.59,0.22,0.8c-0.36,0.86-0.8,0.84-1.09-0.04
		C2456.88,1200.44,2457.12,1200.12,2457.21,1199.87z"/>
	<path class="st0" d="M1891.74,496.77c-0.52,0.27-1.02,0.59-1.56,0.8c-0.78,0.3-1.35-0.13-0.97-0.68c0.76-1.08-0.51,0.14,0.82,0.03
		c0.54-0.04,1.07-0.11,1.61-0.16C1891.64,496.77,1891.74,496.77,1891.74,496.77z"/>
	<path class="st0" d="M1590.67,366.06c-0.13-0.88,0.16-1.23,0.83-0.99c0.04,0.02,0.01,0.59-0.12,0.67c-0.25,0.14-0.6,0.1-0.9,0.13
		C1590.48,365.87,1590.67,366.06,1590.67,366.06z"/>
	<path class="st0" d="M1404.46,1445.24c0.08,0.17,0.15,0.34,0.23,0.51c0.29-0.63,0.13-0.72-0.5-0.26L1404.46,1445.24z"/>
	<polygon class="st0" points="1164.37,1323.06 1164.35,1323.86 1164.25,1323.3 	"/>
	<polygon class="st0" points="2114.09,1269.42 2114.44,1269.9 2114.37,1269.59 	"/>
	<path class="st0" d="M1170.18,915.09c-0.08,0.08-0.16,0.15-0.24,0.23L1170.18,915.09z"/>
	<path class="st0" d="M1224.7,1693.77c-0.12,0.23-0.19,0.49-0.36,0.67c-0.08,0.08-0.33,0-0.5-0.01c0.36-0.14,0.71-0.29,1.07-0.43
		L1224.7,1693.77z"/>
	<path class="st0" d="M1246.44,853.66c0.24,0.84,0,1.24-0.69,1.15c-0.02,0-0.08-0.53,0.03-0.62c0.23-0.18,0.57-0.23,0.86-0.34
		C1246.65,853.86,1246.44,853.66,1246.44,853.66z"/>
	<path class="st0" d="M2315.65,2013.09c0.21,0.22,0.65,0.5,0.6,0.64c-0.23,0.8-0.39,0.62-0.34-0.48L2315.65,2013.09z"/>
</g>
</svg>
