<?xml version="1.0" encoding="utf-8"?>
<!-- Generator: Adobe Illustrator 24.1.2, SVG Export Plug-In . SVG Version: 6.00 Build 0)  -->
<svg version="1.1" id="Layer_1" xmlns="http://www.w3.org/2000/svg" xmlns:xlink="http://www.w3.org/1999/xlink" x="0px" y="0px"
	 viewBox="0 0 4271.37 2402.99" style="enable-background:new 0 0 4271.37 2402.99;" xml:space="preserve">
<style type="text/css">
	.st0{fill:#1A1A1A;}
</style>
<g>
	<path d="M2334.18,1982.85c11.99,17.66,20.53,35.44,34.36,49.63c17.57,18.03,31.28,38.68,42.67,61.08
		c8.59,16.89,17.7,33.56,30.03,48.15c4.93,5.84,9.92,11.64,14.92,17.42c3.97,4.6,8.69,8.14,14.29,10.64
		c7.29,3.25,14.47,6.74,21.63,10.26c12.36,6.07,25.66,9.22,38.98,12c14.33,2.99,28.34,7.12,42.42,10.94
		c8.32,2.26,16.18,6.05,21.85,13.13c8,9.99,18.64,12.31,30.4,9.32c5.02-1.28,9-0.56,13.24,1.77c5.15,2.84,11.29,3.59,15.91,7.63
		c1.67,1.46,3.76,0.71,5.73,0.32c5.86-1.17,11.71-2.42,17.61-3.32c4.37-0.66,8.27,0.48,12.36,2.66c9.2,4.92,16.9,11.73,24.85,18.23
		c3.65,2.99,7.38,5.06,12.06,6.38c15.74,4.42,28.66,14.03,40.66,24.63c8.19,7.24,15.73,15.3,22.94,23.53
		c9.28,10.61,16.26,22.56,19.29,36.65c1.5,6.97,1.59,13.9,1.24,20.86c-0.37,7.34-6.51,10.15-12.63,5.79
		c-3.48-2.48-6.56-5.61-9.56-8.7c-12.03-12.39-26.37-21.15-42.85-27.59c-7.44,6.52-15.8,11.76-25.69,12.28
		c-2.21,2.39-0.94,4.19-0.3,6c1.33,3.76,2.4,7.64,4.03,11.26c4.17,9.25,4.94,19.15,6.01,29.01c0.39,3.61-1.09,6.72-3.92,8.62
		c-2.68,1.8-6.06,1.06-8.53-0.67c-4.34-3.05-8.64-6.31-12.36-10.07c-7.32-7.38-15.39-13.55-24.54-18.52
		c-6.7-3.64-13.03-8.01-19.33-12.34c-2.74-1.88-5.18-2.46-8.34-1.25c-24.82,9.51-49.92,9.61-75.23,2.09
		c-0.91-0.27-1.93-0.17-3.66-0.31c0.47,8.71,3.02,17,2.71,25.52c-0.05,1.32,0.32,2.65,0.33,3.98c0.06,11.27-7.93,16.16-17.9,11.17
		c-6.39-3.2-11.21-8.29-16.36-12.95c-12.26-11.08-26.1-19.4-41.57-25.13c-2.91-1.08-5.86-1.69-8.8-1.26
		c-12.08,1.73-23.9-0.5-35.73-2.17c-16.8-2.37-33.43-5.64-49.4-11.59c-4.36-1.62-8.49-3.93-12.93-5.24
		c-8.19-2.41-13.21-8.25-15.45-15.71c-4.48-14.96-13.65-26.23-24.87-36.54c-7.66-7.04-15.91-13.09-24.63-18.63
		c-13.59-8.63-13.81-8.58-18.85-24.08c-7.76-23.87-20.19-45.55-31.07-67.97c-1.66-3.42-4.26-6.13-7.03-8.27
		c-13.03-10.07-20.79-24.08-28.95-37.76c-8.37-14.03-14.81-29.01-20.37-44.35c-4.41-12.17-10.88-22.58-21.74-30.23
		c-21.51-15.15-40.2-33.84-61.36-49.44c-18.73-13.81-37.58-27.48-56.33-41.27c-18.76-13.79-37.96-27.04-56.06-41.66
		c-20.73-16.74-43-31.29-64.3-47.2c-19.7-14.71-41.17-26.96-59.89-43.07c-8.79-7.56-17.88-14.76-26.77-22.2
		c-16.41-13.73-24.82-31.74-27.45-52.59c-1.74-13.82-3.93-27.57-4.42-41.59c-0.4-11.46-6.08-21.66-11.74-31.51
		c-10.47-18.22-22.32-35.52-35.37-51.96c-7.44-9.37-15.64-18.13-22.71-27.82c-1.93-2.64-4.63-4.4-7.92-5.72
		c-24.38-9.81-49.05-18.8-73.93-27.27c-12.89-4.39-25.47-9.73-38.02-15.06c-17.18-7.29-35.06-12.54-52.77-18.24
		c-9.22-2.97-18.36-6.05-26.97-10.38c-25.57-12.84-52.16-23.6-77.11-37.7c-21.21-11.99-41.37-25.46-58.53-43.01
		c-3.37-3.45-3.49-3.32-9.16-2.16c5.57,9.01,11.52,16.84,20.96,22.04c13.65,7.52,27.53,14.78,39.02,25.68
		c4.69,4.44,8.38,9.49,10.94,15.31c2.47,5.6,0.04,9.94-5.9,11.13c-3.75,0.76-7.17-0.38-10.61-1.88c-4.79-2.08-8.94-5.59-15.05-6.95
		c0.32,4.51,0.91,8.14,2.79,11.73c4.34,8.26,7.91,16.89,10,26c1.13,4.92,3.75,8.11,7.77,10.97c15.2,10.82,29.76,22.43,42.45,36.22
		c9.61,10.45,16.65,22.35,20.57,36.04c1.58,5.52,1.51,11.09,1.4,16.79c-0.12,6.03-4.43,8.31-9.23,7.76
		c-4.95-0.57-9.65-1.84-14.05-4.6c-8.19-5.12-15.56-11.33-23.3-16.89c-2.04,0.42-1.89,2.1-1.45,3.03c2.24,4.74,2.73,9.85,3.89,14.85
		c1.2,5.21,1.77,10.45,2.69,15.67c0.87,4.96,1.55,9.9,1.3,14.86c-0.45,8.99,2.59,16.87,6.64,24.59c4.95,9.44,8.9,19.29,12.03,29.51
		c5.61,18.33,7.85,37.01,7.14,56.12c-0.13,3.43-1.05,6.6-2.24,9.66c-2.81,7.18-10.64,9.11-16.05,3.64
		c-3.94-3.98-7.14-8.75-10.37-13.38c-2.05-2.94-3.61-6.22-7.04-8.55c-2.71,2.37-3.82,5.52-4.21,8.75
		c-1.3,10.62-6.35,19.61-12.44,27.94c-2.78,3.81-3.86,7.44-3.72,11.94c0.4,12.99-0.47,25.89-3.98,38.49
		c-3.05,10.95-7.27,21.39-13.35,31.07c-2.71,4.31-6.15,7.75-10.41,10.48c-5.43,3.48-9.27,2.53-11.9-3.42
		c-2.16-4.88-3.26-10.1-3.99-15.4c-0.39-2.88,0.06-6.12-2.81-8.3c-2.96,2.97-5.99,6.02-9.02,9.06c-3.06,3.07-5.65,6.95-9.28,9.04
		c-10.23,5.91-13.27,15.2-15.48,26.03c-2.85,13.99-7.86,27.44-14.39,40.29c-4.16,8.18-10.21,14.71-16.42,21.17
		c-3.11,3.24-6.91,5.45-11.64,3.74c-5.14-1.85-6.79-6.34-6.93-11.15c-0.27-9.32-0.1-18.65,0.04-27.97c0.04-2.62,0.57-5.22-0.53-7.74
		c-3.86-0.29-6.93,1.69-8.9,4.06c-6.24,7.5-15.26,10.28-23.35,14.56c-5.24,2.77-10.89,4.88-16.55,6.7
		c-5.64,1.81-8.83,5.33-10.59,10.87c-3.89,12.24-10.62,22.82-19.28,32.3c-3.98,4.35-8.77,7-14.25,8.54
		c-4.64,1.3-7.59-0.95-8.23-5.91c-1.06-8.23,1.6-15.83,4.36-23.31c1.4-3.78,3.22-7.32,1.26-11.97c-1.05-0.49-2.89-0.18-4.47,1.39
		c-3.94,3.91-9.03,5.56-14.14,7.07c-12.11,3.59-24.35,6.61-36.88,8.37c-6.43,0.91-12.55-1.06-18.75-1.87
		c-4.8-0.63-6.77-5.23-5.21-10.07c0.7-2.17,1.84-4.31,3.23-6.14c5.24-6.91,11.12-13.17,17.91-18.67
		c25.59-20.7,51.8-40.74,76.34-62.64c27.21-24.28,50.21-52.24,64.7-86.4c5.06-11.93,11.15-23.43,14.63-35.99
		c4.38-15.81,4.66-32.1,3.97-48.22c-0.55-12.84-1.52-25.79-4.81-38.46c-1.77-6.8-3.72-13.56-6.54-19.85
		c-10.46-23.36-20.66-46.96-36.21-67.55c-20.65-27.35-40.95-55.05-66.27-78.44c-9.76-9.02-20.13-17.39-30.13-26.16
		c-14.5-12.73-29.29-25.11-44.55-36.91c-3.66-2.83-6.95-5.9-11.93-6.75c-5.37-0.92-7.97-6.84-13.14-8.49
		c-5.41-7.75-14.28-10.53-21.93-14.95c-32.99-19.07-68.72-31.9-104.29-44.99c-10.25-3.77-21.13-5.86-31.72-8.73
		c-4.48-1.21-8.9-2.72-13.43-3.63c-7.17-1.44-14.38-2.55-21.78-2.13c-5.32,0.31-10.66,0.21-15.89-1.16
		c-0.95-0.25-1.95-0.68-2.89-0.59c-16.55,1.44-33.02-1.24-49.57-1.01c-12.82,0.18-24.99,3.32-37.37,5.7
		c-8.25,6.26-18.55,6.84-27.9,10.06c-10.47,3.6-18.39,10.75-25.3,18.87c-4.71,5.52-8.77,11.69-12.08,18.28
		c-2.81,5.6-5.57,11.19-10.03,15.9c-2.36,2.5-3.27,6.37-4.85,9.61c-3.36,6.9-8.97,12.32-12.81,18.82
		c-17.74,30-35.25,60.13-51.06,91.22c-4.37,8.6-8.57,17.28-12.92,25.9c-6.37,12.62-8.79,26.41-11.64,40.03
		c-1.14,5.45-3.21,9.61-7.58,13.42c-8.23,7.18-16.61,14.46-20.71,25.23c-0.85,2.23-1.9,4.34-1.49,6.64
		c0.9,5.02-0.32,9.76-1.34,14.58c-0.89,4.2-1.04,8.34-0.73,12.76c0.72,10.24-1.36,19.51-11.01,26.11
		c-5.44,3.72-10.51,8.15-16.16,11.65c-6.82,4.23-13.41,8.67-18.63,14.89c-0.82,0.97-1.88,2.1-3.02,2.39
		c-9.39,2.39-17.44,8.05-26.7,10.8c-2.92,0.87-5.49,3.43-8.08,4.45c-10.2,4.03-21.31,4.55-32.05,6.51
		c-2.24-2.28-5.01-1.59-7.81-1.82c-8.89-0.73-13.47,4.78-16.89,11.42c-2.87,5.56-4.82,11.66-5.45,17.95
		c-0.93,9.25-1.74,18.52-2.1,27.8c-0.22,5.61-1.64,10.52-5.46,14.57c-7.77,8.23-15.37,16.68-24.89,23
		c-2.59,1.72-4.78,3.81-8.93,2.32c-3.72-1.34-5.63,3.65-8.38,4.76c-1.75,10.23-3.29,19.72-5.02,29.18
		c-0.72,3.96-2.08,7.7-5.33,10.46c-9.37,7.97-17.93,16.96-28.59,23.31c-12.27,7.3-24.16,15.64-38.4,18.61
		c-9.2,1.92-17.73,5.4-26.4,8.71c-7.13,2.72-14.4,4.45-22.3,2.92c-7.23-1.4-14.27-0.5-21.27,2.81c-12.5,5.92-26.29,6.67-39.8,8.29
		c-4.74,0.57-9.27-0.82-13.78-1.83c-9.72-2.18-19.41-4.64-28.17-9.61c-2.58-1.47-4.87-3.46-7.24-5.29
		c-7.92-6.14-9.25-17.48,1.59-25.29c5.33-3.84,11.09-7.2,17.38-9.46c5.01-1.8,9.88-3.96,14.88-5.77c4.65-1.69,9.38-3.14,14.41-4.81
		c-1.75-12.26,2.64-23.21,5.87-34.27c3.17-10.86,9.36-20.18,17.73-27.89c-2.96-2.63-4.96-0.69-7.03,0.03
		c-15.56,5.47-31.45,8.68-47.98,6.17c-11.21-1.71-22.18-4.47-31.8-10.87c-2.47-1.64-4.86-3.56-6.86-5.74
		c-4.66-5.08-3.8-12.66,2-16.37c3.33-2.14,7.08-3.71,10.78-5.18c14.3-5.68,27.34-13.68,40.33-21.78c2.94-1.84,4.95-4.2,6.14-7.53
		c7.81-21.87,20.76-40.82,34.11-59.53c3.09-4.33,6.29-8.59,9.57-12.78c3.65-4.67,6.97-9.84,13.68-10.59
		c10.63-7.48,22.99-11.98,33.42-19.92c4.59-3.49,7.59-7.71,8.89-12.73c4.93-19.12,12.93-36.99,21.43-54.65
		c5.13-10.65,12.59-19.46,22.84-25.78c9.06-5.59,17.85-11.62,26.9-17.23c5.25-3.25,9.02-7.56,12.08-12.91
		c10.26-17.97,18.02-37.1,26.74-55.8c13.42-28.77,21.67-59.29,30.37-89.65c7.61-26.52,13.41-53.53,21.76-79.86
		c4.34-13.7,10.38-26.64,16.18-39.7c3-6.75,8.37-10.8,15.39-13.26c16.04-5.62,31.8-11.92,45.54-22.3
		c11.29-8.53,20-19.37,27.79-31.03c0.75-1.12,1.3-2.31,0.87-4.1c-7.72-0.88-15.52-1.88-23.5-2.04
		c-33.93-0.68-67.66-3.54-100.81-11.34c-19.41-4.57-38.91-8.82-58.23-13.76c-26.12-6.67-51.58-15.48-76.71-25.19
		c-44.82-17.31-86.8-40.17-127.29-65.87c-17.42-11.06-35.23-21.51-52.07-33.45c-17.64-12.51-35.19-25.12-50.91-40.08
		c-2.08-1.98-3.89-4.45-7.33-4.75c-1.42-0.13-2.8-1.62-4.04-2.69c-20.46-17.62-40.51-35.7-54.85-58.93
		c-17.14-27.75-33.93-55.74-45.11-86.61c-5.45-15.04-8.48-30.77-12.3-46.26c-5.26-21.35-8-43.02-8.04-65.12
		c-0.04-25.99,1.22-51.83,5.68-77.44c1.36-7.84,3.39-15.6,5.59-23.26c3.74-13.04,7.84-25.98,11.85-39.16
		c-2.05-1.94-4.2-3.55-5.82-5.59c-3.32-4.21-1.48-9.5,3.61-10.89c1.59-0.43,3.27-0.57,4.88-0.96c1.59-0.38,3.15-0.9,4.92-1.42
		c9.83-20.73,19.49-41.51,30.82-61.31c-1.71-4.06-5.12-5.26-8.48-6.66c-4.29-1.79-8.56-3.65-12.69-5.76
		c-1.81-0.92-3.09-2.71-2.56-4.96c0.48-2.06,1.92-3.63,4.01-4.02c2.93-0.54,5.93-0.93,8.91-0.98c7.97-0.13,15.95-0.04,25.03-0.04
		c17.38-20.79,33.99-43.71,55.76-62.6c-7.75-4.91-15.02-9.51-22.29-14.13c-2.81-1.79-6.39-3.52-5.33-7.5
		c1.06-3.99,5.01-3.69,8.33-3.74c11.65-0.15,23.39-0.66,34.69,2.81c4.68,1.44,7.86,0.65,11.7-2.54
		c19.2-15.95,38.62-31.64,60.22-44.36c0.78-0.46,1.26-1.45,2.33-2.72c-5.42-4.53-10.75-8.92-16-13.4c-3.8-3.24-7.48-6.6-11.24-9.89
		c-3.86-3.38-5.37-7.46-3.86-12.5c3.76-3.07,7.75-2.58,12.18-1.68c17.02,3.48,33.18,9.61,49.47,15.4c2.5,0.89,4.93,2.13,7.5,2.61
		c1.86,0.34,4.65,0.41,5.73-0.68c4.73-4.74,11.16-5.84,16.83-8.4c23.03-10.41,46.04-20.93,70.5-27.66c9.6-2.64,19.38-4.66,29.06-7
		c2.24-0.54,4.44-1.22,6.63-1.83c0.37-3.57-2.2-4.78-4.14-6.42c-5.83-4.94-11.65-9.89-17.5-14.81c-3.5-2.94-5.48-6.49-4.91-11.34
		c2.66-1.77,5.19-2.49,8.41-2.18c21.96,2.09,42.05,9.53,60.59,21.21c3.93,2.47,7.42,2.98,12.06,2.46
		c25.41-2.83,50.14-10.26,75.83-11.1c2.41-0.08,4.55-0.79,6.74-2.2c-0.47-4.13-3.71-6.75-5.76-9.99c-2.84-4.49-5.99-8.8-8.8-13.31
		c-1.21-1.94-2.26-4.11-2.82-6.32c-1.19-4.72,1.89-7.92,6.65-6.67c6.42,1.68,12.99,3.24,19,5.96c13.61,6.14,27.46,11.97,38.74,22.27
		c4.32,3.94,9.51,5.34,15.58,5.06c13.97-0.63,27.96-0.6,41.95-0.78c3.05-0.04,6-0.2,8.63-2.41c0.38-4.21-2.56-7.19-4.41-10.57
		c-2.4-4.38-4.96-8.71-5.62-13.74c-0.77-5.81,2.11-8.89,8.01-8.57c4.37,0.24,8.37,1.77,12.23,3.88
		c12.08,6.61,22.58,15.27,31.99,25.18c3.01,3.17,5.88,5.03,10.25,4.9c16.98-0.52,33.83,1.11,50.65,3.24
		c1.27,0.16,2.62,0.07,3.96-1.4c-3.82-9.26-7.82-18.71-11.61-28.24c-1.47-3.7-2.68-7.53-3.67-11.39c-0.91-3.54-1.11-7.18,0.43-10.7
		c5.49-2.31,10.31-1.43,15.47,0.85c12.88,5.69,22.61,14.9,31.11,25.82c5.93,7.63,11.8,15.3,16.66,23.66
		c2.89,4.97,6.8,7.37,12.7,8.23c18.37,2.71,37,3.69,55.15,7.96c2.41,0.57,5.08,0.08,8.43,0.08c-1.3-4.45-2.28-8.93-3.92-13.15
		c-3.25-8.36-6.73-16.65-10.41-24.83c-1.4-3.1-2.16-6.22-2.63-9.53c-0.38-2.69,0.67-4.58,2.72-5.92c1.94-1.27,3.99-0.53,5.57,0.75
		c3.09,2.51,5.98,5.26,8.97,7.9c13.55,11.99,24.6,26.2,34.77,40.97c6.38,9.27,13.39,15.4,25.09,16.91
		c11.14,1.44,21.99,5.13,32.99,7.73c2.18,0.52,4.45,1.57,6.91,0.08c1.09-10.44-2.75-19.99-5.7-29.74
		c-2.12-6.99-4.04-14.04-5.85-21.12c-0.74-2.9-0.71-5.92,0.28-9.31c6.08-3.41,11.41-1.31,15.83,3.31c4.58,4.8,9.21,9.73,12.75,15.29
		c8.57,13.46,16.64,27.26,24.64,41.07c2.49,4.29,4.13,9.07,6.31,13.97c18.6,6.33,37.43,12.56,56.77,21.1
		c-1.03-6.32-1.78-11.48-2.72-16.6c-1.93-10.45-4.44-20.81-4.28-31.54c0.02-1.67-0.11-3.36,0.17-4.99c1.07-6.31,5.15-8.04,10.77-4.8
		c7.44,4.29,12.58,10.9,17.2,17.78c10.84,16.15,18.32,33.89,23.24,52.69c0.88,3.38,1.87,6.11,5.34,7.8
		c9.76,4.76,19.38,9.82,28.8,14.64c2.13-1.55,1.81-3.32,1.77-4.9c-0.28-10.3,0.51-20.6-0.89-30.92c-1.03-7.55,0.47-15.2,1.65-22.73
		c0.48-3.04,1.69-6.03,5.2-6.53c3.62-0.52,7.21-0.64,9.93,2.93c3.24,4.26,6.21,8.63,8.37,13.54c8.74,19.9,14.02,40.81,18.25,62.03
		c0.71,3.56,1.39,7.13,2.05,10.57c7.27,4.54,14.24,8.9,21.54,13.47c3.59-4.37,4.79-9.17,4.5-14.16c-0.52-8.7,1.53-17.21,1.49-25.86
		c-0.01-3.08,0.73-6.16,2.85-8.34c2.16-2.22,5.13-2.94,9.01-1.61c16.67,23.7,24.11,50.75,24.31,80.61
		c7.93,6,14.93,13.67,25.65,17.58c0.27-7.33,0.38-14.42-0.08-21.48c-0.58-8.95-0.15-17.87,0.78-26.71
		c0.49-4.66,0.59-10.75,6.67-12.3c6.49-1.65,8.51,4.21,10.89,8.3c6.26,10.73,9.75,22.61,12.31,34.63
		c3.11,14.6,6.65,29.13,8.34,44.01c0.73,6.44,3.65,11.66,8.34,16.49c9.26,9.56,20.2,17.38,28.43,28c2.81,3.62,7.27,4.37,11.57,4.49
		c3.04-1.57,2.78-4.5,3.26-7.04c1.98-10.44,3.31-21.02,7.06-31.05c1.79-4.78,1.78-4.79,8.53-7.66c3.63,2.46,6.3,6.47,6.09,10.53
		c-0.43,8.02,3.77,14.71,4.85,22.21c0.42,2.93,2.15,5.73,2.33,8.64c0.79,12.77,6.84,22.51,16.4,30.55c2.52,2.12,4.52,4.89,6.54,7.53
		c1.13,1.48,2.77,3.03,1.37,5.33c-1.51,2.47-0.05,3.85,2.16,4.2c2.18,0.34,3.92-0.99,4.43-3.12c0.45-1.91,0.37-3.96,0.48-5.94
		c0.47-8.96,0.94-17.93,1.38-26.89c0.14-2.81,0.89-5.22,3.84-6.54c3.31,0.14,5.03,2.35,6.68,5.05
		c8.21,13.44,14.54,27.63,17.88,43.08c2.18,10.06,5.26,19.92,6.54,30.6c11.48,7.76,19.17,19.45,28.76,31.03
		c2.09-10.54,2.74-19.71,2.9-28.93c0.07-4.16,0.63-7.97,5.5-9.69c5.38,2.91,7.49,8.23,9.59,13.4c6.01,14.84,10.18,30.22,12.24,46.1
		c0.59,4.56,2.28,7.65,6.05,10.7c7.47,6.04,14.23,12.98,21.05,19.78c6.8,6.78,13.32,13.86,20.22,21.08
		c-1.33-14.36-0.96-28.44-0.73-42.52c0.02-1.33-0.02-2.69,0.24-3.99c1.28-6.27,6.25-8,10.91-3.46c6.36,6.19,9.72,14.31,12.44,22.51
		c2.61,7.87,4.65,15.96,6.39,24.07c2.37,11.06,6.75,21.59,8.28,32.86c0.43,3.13,2.5,5.49,4.91,7.31
		c6.99,5.29,12.21,12.23,17.74,18.87c6.57,7.89,12.92,15.96,19.92,24.65c1.56-5.36,2.99-10.2,4.37-15.04
		c0.55-1.92,0.83-3.93,1.54-5.79c0.91-2.4,1.28-5.41,4.55-5.98c2.41-0.42,5.36,2.36,6.62,6.46c4.22,13.69,7.12,27.65,8.12,41.98
		c0.14,1.98,0.27,3.96,0.42,6.19c10.85,6.99,20.57,15.67,32.33,20.7c3.86-0.52,1.91-6.06,6.12-6.1c3.15-0.04,5.8,1.11,8.57,2.29
		c5.97,2.54,9.94,7.73,15.08,11.34c5.47-6.01,11.5-20.85,13.27-32.64c-5.39-4.24-10.88-8.5-16.31-12.83
		c-4.97-3.97-9.05-8.81-12.98-13.77c-3.12-3.93-4.19-8.16-1.84-13.38c3.49-1.13,6.88-0.49,10.42,0.68c7.9,2.6,15.88,4.94,23.82,7.39
		c1.85,0.57,3.62,1.81,5.76,0.59c-0.78-12.79,3.08-25.28,2.65-38.07c-0.12-1.26-1.42-1.29-2.02-1.99
		c-12.38-14.39-29.69-22.21-44.43-33.44c-2.38-1.81-4.83-3.55-7.11-5.48c-2.27-1.91-2.99-4.32-1.59-7.17
		c1.75-1.8,4.2-2.26,6.39-2.14c10.87,0.57,21.77,0.86,32.51,2.85c3.87,0.72,7.74,1.46,11.64,1.97c1.26,0.17,2.61-0.37,4.36-0.65
		c0-15.96,0-31.85,0-48.15c-9.56-6.23-19.7-11.8-30.34-16.4c-3.72-1.61-7.08-3.54-10.15-6.19c-2.07-1.78-4.42-3.26-4.03-6.36
		c0.49-3.91,4.06-4.04,6.8-4.8c6.85-1.91,13.82-1.36,20.76-0.41c3.95,0.54,7.86,1.41,11.82,1.77c4.74,0.44,6.88-1.31,7.3-6.02
		c0.41-4.63,0.34-9.31,0.63-13.96c0.63-10.24,1.35-20.48,2.04-30.84c-4.36-4.11-9.56-6.28-14.69-8.5
		c-9.16-3.97-18.41-7.7-27.53-11.75c-4.2-1.86-8.56-3.82-9.93-9.32c4.75-3.92,10.16-5.77,16.25-6.25
		c10.66-0.84,21.27-0.66,31.84,1.04c3.26,0.52,6.5,1.44,10.1,0.79c2.71-7.34,5.44-14.73,8.18-22.16
		c-3.29-4.76-7.83-7.49-12.49-10.03c-7.3-3.97-14.67-7.81-21.99-11.73c-2.05-1.1-4.18-2.12-6.01-3.52
		c-3.56-2.72-2.79-7.88,1.37-9.57c1.52-0.61,3.23-1.12,4.84-1.08c12.97,0.29,25.87,1,38.22,5.73c2.79,1.07,4.44,4.27,7.87,3.87
		c5.03-3.88,17.34-20.75,25-34.28c-9.61-12.41-24.22-19.49-34.83-31.59c4.26-4.93,9.05-6.37,14.5-5.1
		c11.64,2.7,23.52,4.5,34.77,8.72c2.87,1.08,5.73,1.65,9.21,1.59c10.79-11.18,21.73-22.71,33.93-32.69
		c-1.19-3.22-4.54-1.37-5.85-3.63c-0.99-1.7-2.41-3.18-3.77-4.64c-6.83-7.35-15.1-13.04-22.77-19.41c-3.09-2.57-6.18-5.01-7.64-9.05
		c2.44-2.81,5.34-3.87,8.83-3.48c1.65,0.18,3.37,0.13,4.96,0.55c13.82,3.65,27.54,7.67,40.78,13.12c3.97,1.63,7.1,5.01,12.24,5.72
		c9.5-6.73,20.52-12.31,29.98-20.26c-0.07-4.28-2.49-6.98-4.78-9.83c-7.32-9.12-15.68-17.2-24.49-24.83
		c-2.3-1.99-4.64-3.77-5.34-7.2c4.69-4.69,9.97-3.38,15.37-1.48c2.98,1.05,5.94,3.42,9.2,0.63c0.77-2.13-0.91-3.11-2.01-4.16
		c-17.14-16.24-34.16-32.61-51.54-48.58c-20.32-18.68-40.78-37.23-61.55-55.42c-13.5-11.83-27.71-22.84-41.5-34.35
		c-6.89-5.75-13.64-11.68-20.29-17.7c-8.9-8.06-18.78-14.86-28.24-22.21c-24.17-18.76-48.31-37.64-73.76-54.61
		c-16.43-10.95-30.84-24.21-46.23-36.34c-4.71-3.71-9.58-7.2-14.26-10.94c-4.66-3.73-9.48-7.38-11.79-13.5
		c1.21-4.92,4.51-6.96,9.46-6.74c5.98,0.26,12.07-0.05,17.93,0.96c27.16,4.67,54.24,9.39,80.86,17.1
		c31.67,9.18,62.77,19.75,93.4,31.83c32.54,12.83,63.83,28.19,94.06,45.81c15.51,9.05,31.58,17.14,47.37,25.71
		c20.52,11.13,39.4,24.81,58.73,37.8c19.33,12.99,37.94,26.93,56.16,41.4c22.67,18,45.32,36.04,65.47,56.94
		c2.67,2.77,5.53,5.35,8.73,7.65c-4.67-15.3-13.39-28.82-16.68-44.41c-0.16-0.77,0.63-1.75,0.92-2.47c2.02-0.61,3.47,0.1,4.88,1.07
		c3.8,2.62,7.37,5.41,12.3,6.13c2.39,0.35,4.7,2.47,6.69,4.2c6.79,5.87,13.98,11.42,19.98,18.03c6.69,7.35,14.72,13.48,20.41,22.2
		c5.26,0.75,10.74,1.54,17.08,2.45c-0.58-7.46-3.68-13.3-5.63-19.44c-1-3.16-2.5-6.17-2.15-9.65c0.36-3.66,3.34-5.75,6.14-3.59
		c9.34,7.21,20.74,11.83,27.81,21.88c3.44,4.89,6.66,9.93,10,14.93c5.2,0.62,10.38,1.24,16.07,1.93c2.06-5.96,2.4-12.37,7.15-17.13
		c2.13-2.14,0.51-5.84,0.01-8.72c-1.07-6.22-2.46-12.38-3.89-18.53c-7.58-32.69-16.24-65.06-26.83-96.94
		c-9.97-30.03-22.13-59.07-35.12-87.91c-10.23-22.71-20.39-45.45-30.74-68.11c-3.85-8.43-6.39-17.45-9.54-26.2
		c-0.91-2.53-1.75-5.04,0.09-7.89c4.16-1.79,8.02-0.99,12,1.49c7.64,4.76,14.82,10.12,21.59,16.03
		c12.53,10.92,25.37,21.53,37.4,32.98c19.6,18.65,35.41,40.55,51.64,62.08c16.82,22.32,33.68,44.59,48.89,68.07
		c9.04,13.96,16.97,28.49,23.55,43.8c5.91,13.74,12.8,27.06,18.8,40.76c13.22,30.17,25.15,60.81,31.33,93.33
		c1.27,6.67,4.5,12.49,7.06,18.59c8.61,20.52,18.37,40.57,24.73,61.99c1.04,3.49,2.55,6.73,5.28,9.47
		c17.09,17.14,30.04,37.28,41.19,58.57c9.56,18.26,19.27,36.47,26.99,55.64c2.73,6.78,5.09,13.7,7.79,20.49
		c2.51,6.31,1.86,12.27-1.18,18.23c-4.37,8.6-8.34,17.41-12.92,25.89c-2.3,4.26-2.74,8.01-0.26,12.19
		c2.36,3.96,3.26,8.44,4.15,13.51c13.57-3.95,22.59-16.86,37.03-18.27c1.74,3.26,0.81,6.07,0.05,8.99
		c-3.83,14.58-9.8,28.25-17.17,41.35c-1.3,2.31-2.56,4.64-4,7.26c4.73,8.72,9.4,17.48,13.06,26.42c3.52,0.51,4.51-2.08,5.81-3.73
		c22.48-28.59,41.77-59.16,57.62-91.94c7.82-16.18,15.26-32.48,20.86-49.59c0.71-2.16,2.24-4.05,3.33-5.98
		c4.28-0.16,6.93,1.52,8.54,5.45c1.79,4.36,3.07,8.81,3.47,13.46c2.49,28.63-0.46,56.86-6.69,84.8
		c-8.01,35.91-21.77,69.76-37.43,102.89c-3.82,8.09-8.63,15.72-12.73,23.1c0.4,3.06,1.4,5.07,3.39,6.56
		c6.1,4.55,9.35,11.16,12.69,17.68c3.83,7.48,3.72,14.57-1.81,21.38c-7.13,8.78-13.74,18-21.87,25.94c-2.87,2.81-5.67,5.67-7.47,9.3
		c-4.91,9.92-11.7,18.59-18.57,27.11c-9.39,11.63-18.9,23.17-31.33,31.98c-5.44,3.86-11.01,5.78-17.46,6.24
		c-7.26,0.51-14.5,1.39-22.09,2.15c-5.72,11.39-16.49,16.02-27.17,20.8c-1.9,0.85-3.85,0.74-5.85,0.86
		c-12.03,0.75-23.87-1.25-35.78-2.21c-19.93-1.6-39.48-5.22-58.8-10.33c-5.39-1.43-9.55-4.08-13.19-8.29
		c-12.78-14.81-21.97-31.6-28.25-50.02c-1.97-5.79-4.98-10.68-9.04-15.26c-12.38-13.95-26.35-26.29-39.28-39.68
		c-2.97-3.08-6.58-4.8-10.44-5.4c-14.11-2.2-27.81-0.74-40.64,6.03c-0.84,0.44-1.49,1.24-2.49,2.11
		c-0.09,8.06,3.02,15.52,5.48,22.99c5.63,17.05,12,33.85,17.78,50.85c11.14,32.76,20.62,65.94,26.9,100.04
		c4.34,23.52,9.78,46.83,14.89,70.2c2.78,12.73,7.52,24.81,13.2,36.49c10.79,22.21,19.34,45.23,25.73,69.07
		c0.52,1.92,1.07,3.84,1.66,5.74c3.16,10.21,4.76,20.53,5.07,31.34c0.42,14.93-0.63,29.74-1.06,44.6
		c-0.18,6.25,0.73,12.54,1.36,18.8c0.87,8.62,1.41,17.24,1.52,25.91c0.13,9.96,0.58,19.91,1.12,29.86
		c0.92,16.85-1.88,33.11-7.1,49.07c-4.64,14.21-8.34,28.74-14.37,42.48c-0.63,1.43-0.91,3.02-1.43,4.79
		c10.46,4.02,18.65,10.58,25.94,18.55c10.29,11.25,20.86,22.15,30.5,34.08c11.42,14.12,23.78,27.6,35.72,41.36
		c8.28,9.54,16.27,19.35,24.24,29.16c9.43,11.61,20.55,21.71,29.73,33.57c9.58,12.38,20.75,23.4,32.19,33.99
		c9.21,8.52,15.89,18.63,22.36,29.06c1.05,1.69,1.68,3.71,2.98,5.17c9.44,10.63,10.18,23.13,8.19,36.33
		c-1.2,7.96-3.63,15.6-6.71,22.92c-8.52,20.23-14.91,41.18-21.81,61.97c-5.55,16.72-11.84,33.21-16.1,50.35
		c-3.11,12.53-6.95,24.92-9.25,37.59c-0.74,4.08-2.46,6.53-4.81,9.16c-7.35,8.22-15.81,15.27-24.37,22.13
		c-4.14,3.33-5.69,6.86-5.15,11.95c0.73,6.92,0.81,13.92,1.69,20.82c0.62,4.84-1.13,8.33-4.34,11.58
		c-6.58,6.66-13.77,12.64-21.56,17.72c-6.71,4.37-14.3,6.87-22.55,6.88C2343.39,1981.81,2339.79,1982.37,2334.18,1982.85z
		 M733.17,934.65c0.18-13.03,1.63-23.87,2.78-34.74c0.95-8.9,1-17.9,2.05-26.79c1.2-10.18,2.31-20.38,5.69-30.22
		c7.83-22.79,18.7-44.02,32.03-64.04c2.68-4.03,5.37-8.06,8-12.02c-8.44-7.61-18-11.72-26.93-16.76
		c-21.14-11.93-42.43-23.6-63.87-34.98c-11.74-6.23-23.73-12.08-35.92-17.38c-23.52-10.23-48.22-17.02-73.05-23.13
		c-14.16-3.48-28.43-6.65-43-8.21c-25.01-2.67-50.05-3.28-75.21-2.8c-18.39,0.35-36.34,3.03-54.44,5.55
		c-8.94,1.24-15.22,5.16-21.34,11.17c-14.9,14.63-19.31,32.11-15.24,52.09c3.93,19.26,14.93,34.6,27.91,48.69
		c2,2.17,4.71,3.31,7.99,3.47c6.28,0.32,12.59,0.93,18.78,2.03c5.37,0.95,11.17,1.32,15.22,5.52c-1.19,10.08-11.52,7.33-16.3,12.24
		c2.41,1.59,4.59,3.01,6.74,4.45c9.12,6.11,18.24,12.21,27.34,18.34c4.82,3.25,9.98,4.88,15.93,4.75c7.64-0.16,15.33,0.01,22.93,0.7
		c4.96,0.45,10.46,0.09,14.59,4.09c-4.32,5.72-4.32,5.72-13.37,10.29c2.9,2.99,6.78,3.85,10.46,5.03
		c11.08,3.56,22.24,6.88,33.24,10.65c4.62,1.59,8.82,1.76,13.58,0.42c12.45-3.53,24.91-2.62,37.19,1.27
		c2.02,0.64,3.6,1.61,3.74,3.63c-0.81,4.14-5.77,4.66-6.89,8.52c19.46,6.65,38.66,12.83,57.54,19.84
		c7.71,2.86,15.32,3.65,23.33,3.49c8.99-0.19,17.99-0.04,26.98-0.03c3.38,0,6.46,0.53,7.75,4.2c-4.5,4.48-10.11,6.57-16.32,10.5
		C707.16,920.4,718.96,927.53,733.17,934.65z M2094.1,1625.97c3.62,6.79,8.06,10.2,12.27,13.81c10.35,8.88,20.69,17.75,30.02,27.73
		c9.54,10.2,19.16,20.33,28.48,30.74c9.97,11.13,19.26,22.82,28.13,34.87c13.25,17.98,24.33,37.32,35.93,56.34
		c4.32,7.08,9.64,13.55,12.74,21.38c5.54,13.96,14.04,26.41,20.48,39.93c1.13,2.37,2.92,4.44,4.46,6.61c1.02,1.44,2.3,2.39,4.2,1.48
		c0.19-0.61,0.59-1.24,0.57-1.86c-0.63-18.21,6.62-33.64,16.96-47.93c3.4-4.7,7.71-8.11,13.84-8.97c3.15-0.44,6.16-1.88,9.24-2.87
		c-4.78-0.9-9.17-2.41-13.72-3.17c-9.14-1.52-16.8-6.08-23.43-12.45c-3.26-3.13-4.01-6.65-1.61-11.26
		c10.42-2.04,21.76,1.78,32.47-3.76c-1.35-16.37,3.73-30.78,14.38-44.01c-11.42-9.54-17.05-21.96-18.05-37.06
		C2236.03,1654.4,2167.82,1634.16,2094.1,1625.97z M1341.82,1256.28c-4.68,18.06-9.61,35.5-16.8,52.22
		c-3.67,8.53-7.77,16.88-11.77,25.26c-1.02,2.13-2.23,4.19-1.28,6.58c1.26,3.17,10.48,8.06,14.2,7.5
		c12.46-1.88,24.71-0.07,37.06,1.5c7.49,0.95,14.49,3.56,23.2,6.01C1370.52,1321.7,1358.89,1287.92,1341.82,1256.28z
		 M1359.59,1374.07c-0.47,2.92,1.32,4.18,2.68,5.47c7.69,7.31,15.46,14.54,23.25,21.75c2.02,1.87,4.54,2.9,7.26,2.93
		c4.6,0.04,9.26,0.67,14.52-0.88c-5.24-13.01-9.57-26.08-16.97-38.79C1382.49,1376.68,1370.43,1373.72,1359.59,1374.07z"/>
</g>
<g>
	<path class="st0" d="M2089.19,466.67c-0.4-2.09-0.56-2.94-0.9-4.7c-10.09,5.98-19.61,12.11-31.19,14.04
		c0.46-1.37,0.83-2.44,1.2-3.54c-3.32-1.88-6.46,0.02-8.07,2.02c-3.2,3.97-7.12,4.14-11.41,4.01c-2.3-0.07-4.59-0.28-6.98-0.44
		c-6.73-12.07-15.87-22.37-21.8-34.91c0.63-1.35,1.32-2.81,2-4.26c9.07,4.16,18.59,4.84,27.74,6.99c5.53,1.3,11.22,0.37,16.85,1.5
		c3.24,0.65,7.32-0.79,10.5-2.35c11.66-5.7,23.07-11.9,33.21-20.13c1.96-1.6,4.37-3.02,4.9-6.05c-3.09-1.34-4.98,0.98-7.05,2.35
		c-8.59,5.69-16.79,11.97-26.02,16.67c-2.7,1.37-5.22,2.69-8.4,2.68c-12.64-0.04-25.27,0.3-37.78-2.31
		c-3.11-0.65-5.33-1.86-7.44-4.31c-12.58-14.59-25.09-29.25-38.19-43.38c-8.12-8.76-17.05-16.82-25.98-24.78
		c-3.25-2.9-5.55-5.67-5.01-10.12c1.23-10.05-4.67-15.2-12.76-19.08c-7.19-3.45-14.35-7.01-21.32-10.88
		c-3.46-1.92-6.67-4.41-9.64-7.05c-22.57-20.14-45.6-39.8-67.38-60.76c-17.57-16.9-37.54-30.74-55.66-46.87
		c-11.17-9.94-22.39-19.84-34.05-29.19c-11.4-9.14-23.37-17.58-35.13-26.28c-13.89-10.29-27.77-20.59-41.76-30.75
		c-5.36-3.89-10.91-7.56-16.56-11.03c-8.26-5.07-15.48-11.44-22.95-17.53c-7.99-6.5-16.06-12.92-24.38-18.98
		c-5.13-3.74-9.88-7.88-14.56-12.11c-2.35-2.12-4.96-4.23-5.19-8.02c24.34,3.87,48.61,7.14,72.62,11.73
		c21.5,4.1,42.48,10.29,62.95,18.33c21.94,8.62,44.19,16.47,66.45,24.26c6.38,2.23,11.94,5.82,17.91,8.69
		c14.06,6.76,28.24,13.28,42.37,19.85c33.67,15.64,64.04,36.49,94.74,56.94c11.63,7.75,23.37,15.32,35.18,22.79
		c25.59,16.19,50.04,33.85,73.23,53.43c17.26,14.57,34.59,29.04,51.41,44.11c6.68,5.98,13.09,12.26,19.62,18.4
		c2.68,2.52,5.21,5.27,9.45,2.74c1.28-0.76,2.52,0.36,3.54,1.22c10.68,9,21.36,17.99,31.99,27.05c1.5,1.28,3.01,2.66,3.65,5.25
		c-3.32,14.9-8.42,29.69-17.26,42.73c-5.93,8.75-12.82,16.9-21.32,23.54C2120.7,449.04,2105.77,458.22,2089.19,466.67z
		 M2061.77,427.77c3.72,0.76,4.76-1.59,6.24-4.98c-2.15,0.9-3.33,1.39-4.51,1.89c-1.21-4.35-4.52-1.37-6.53-1.44
		c-4.37-0.15-7.33,2.57-9,7.18C2053.64,432.2,2057.32,428.06,2061.77,427.77z M2013.34,391.22c9.15,12.62,15.89,18.66,23.14,21.58
		C2029.22,404.69,2021.9,397.31,2013.34,391.22z"/>
	<path class="st0" d="M481.78,1212.08c0.03,1.87,0.8,3.16,2.73,3.58c14.61,3.16,29.12,6.92,44,8.55c15.5,1.69,31.11,2.38,46.57,4.35
		c16.78,2.14,33.86-0.16,50.29,4.59c6.39-8.98,11.09-18.11,14.55-27.81c4.92-13.76,12.85-25.46,23.03-35.78
		c6.78-6.87,13.68-13.59,21.39-19.47c13.04-9.94,27.32-16.32,44.02-16.37c0.57,0,1.13-0.6,2.5-1.37c-0.52-12.04-1.05-24.51-1.6-37.3
		c-27.83-9.84-56.08-17.85-84.49-25.64c-36.81-10.1-73.31-21.67-107.73-38.68c-0.82-0.4-1.48-1.13-2.26-1.74
		c2.23-1.7,3.84-0.07,5.61,0.68c14.4,6.05,28.55,12.72,43.38,17.66c25.52,8.5,51.07,16.9,77.27,23.21
		c21,5.06,41.62,11.45,61.79,19.23c1.79,0.69,3.55,1.89,6.09,1.26c1.14-2.96,0.59-6.27,0.62-9.48c0.26-23.97,0.11-47.96,0.8-71.92
		c0.64-22.23,2.14-44.44,3.28-66.66c0.1-2.04,0.36-4.05,3.04-4.3l-0.26-0.19c-0.02,8.29-0.78,16.56,1.22,24.84
		c0.91,3.74,0.01,7.92-0.05,11.9c-0.6,43.53-2.1,87.06-1.26,130.61c0.21,10.94,1.57,21.85,2.26,32.79
		c1.53,24.25,2.25,48.51-0.99,72.67c-1.09,8.13-3.04,16.12-9.12,22.72c1.25-10.6,2.99-21.17,3.6-31.81
		c0.63-10.96,0.26-21.99,0.14-32.98c-0.12-10.88,0.82-21.84-1.51-33.13c-11.92,0.21-22.23,3.84-31.63,9.54
		c-19.05,11.57-34.43,27.15-46.68,45.72c-2.71,4.11-4.5,8.91-6.26,13.56c-7.89,20.85-20.39,38.91-34.54,55.78
		c-13.64,16.27-31.93,25.83-51.63,32.85c-6.56,2.34-13.18,4.48-19.5,6.62c-4.56,14.19-3.89,34.9,1.27,48.2
		c1.08,2.78,1.99,5.66,2.62,8.57c3.49,16.21,13.07,28.94,23.51,41.12c6.48,7.57,13.49,14.69,20.01,22.22
		c2.71,3.13,6.41,5.56,6.52,10.73c0.05,2.01,3.08,4.12,5.01,5.9c5.17,4.74,5.41,4.98,7.72,13.12c-1.95,2.66-4.11,1.33-6.11,0.17
		c-15.1-8.73-28.55-19.52-40.02-32.66c-6.99-8.02-13.83-16.18-20.53-24.44c-7.41-9.14-13.26-19.1-14.98-31.04
		c-0.28-1.95-0.76-4.05-1.78-5.68c-3.78-6.06-2.35-11.83-0.07-17.97c2.87-7.74,7.32-14.92,8.31-23.37c0.26-2.19,1.79-4.05,0.12-6.5
		c-0.89-1.31,0.46-3.1,1.39-4.53c3.21-4.96,7.66-8.14,13.23-10.06c10.38-3.59,20.6-7.6,30.37-12.66
		c15.05-7.79,27.61-18.43,37.24-32.43c2.59-3.76,6.68-6.59,7.37-12.32c-6.43-0.81-12.73-2.12-19.26-2.15
		c-40.37-0.18-80.16-5.04-119.46-14.35c-28.15-6.67-56.24-13.44-83.7-22.63c-33.15-11.1-65.31-24.4-96.49-40.34
		c-43.37-22.17-84.2-48.43-124.49-75.54c-16.23-10.92-31.98-22.77-46.04-36.58c-2.32-2.28-4.52-4.72-8.19-5.21
		c-1.42-0.19-2.7-1.8-3.94-2.89c-15.51-13.59-30.95-27.22-43.72-43.6c-5.95-7.64-11.48-15.53-16.33-23.87
		c-12.87-22.15-25.95-44.17-35.8-67.95c-6.02-14.55-9.18-29.84-13.31-44.89C5.7,837.58,1.69,818.3,0.68,798.75
		c-0.92-17.88-1.01-35.88,0.53-53.86c1.13-13.25,2.27-26.44,4.27-39.59c1.31-8.6,3.45-16.95,5.8-25.25
		c3.7-13.08,7.89-26.03,11.85-38.97c-0.77-2.96-3.79-3.72-5.39-5.82c-3.64-4.77-1.94-9.9,3.85-11.36c2.89-0.73,5.81-1.31,9.07-2.03
		c10.1-20.84,19.75-41.97,31.19-61.91c-2.26-3.87-5.64-5.19-9.06-6.57c-4-1.62-8-3.29-11.85-5.23c-1.77-0.89-3.28-2.5-3.01-4.78
		c0.3-2.62,2.07-4.25,4.53-4.65c3.27-0.53,6.61-0.79,9.93-0.85c7.64-0.12,15.28-0.04,23.56-0.04
		c17.39-20.88,33.85-43.53,55.72-62.54c-7.86-5.01-15.29-9.7-22.68-14.45c-2.79-1.79-5.87-3.49-4.8-7.57
		c1.03-1.31,2.37-1.38,3.67-1.38c10.97-0.03,21.94-0.04,32.92-0.01c1.33,0,2.79-0.09,3.95,0.41c7.33,3.18,12.33-0.49,17.68-5.01
		c17.53-14.85,35.67-28.91,55.4-40.8c1.15-0.69,2.37-1.22,2.99-3.34c-4.15-5.06-10.08-8.71-15.17-13.25
		c-3.97-3.54-7.98-7.04-11.96-10.57c-3.9-3.46-4.9-7.62-3.29-12.38c2.94-1.67,5.52-0.98,7.81,0.41c11.95,7.26,25.55,9.23,38.82,12.2
		c7.12,1.6,14.36,2.66,21.55,3.95c3.36,0.6,5.97,0.04,9.02-2.35c3.8-2.98,8.9-4.32,13.47-6.32c16.76-7.32,33.38-14.93,50.56-21.27
		c15.33-5.66,31.15-9.47,46.99-13.22c3.21-0.76,6.42-1.51,9.52-2.24c0.39-3.7-2.24-4.89-4.17-6.53
		c-5.83-4.94-11.66-9.87-17.49-14.82c-3.44-2.93-5.59-6.37-4.78-10.72c2.38-2.32,4.27-0.68,5.97-0.11
		c19.51,6.54,39.54,11.65,58,21.09c5.47,2.8,11.09,0.74,16.59,0.15c16.52-1.8,32.73-5.43,49.05-8.44
		c9.44-1.74,19.15-1.97,28.73-2.89c1.64-0.16,3.27-0.35,4.64-0.49c1.93-2.37,0.57-3.99-0.58-5.62c-3.64-5.17-7.42-10.25-10.92-15.52
		c-2.68-4.04-5.56-8.11-5.28-12.83c1.88-1.71,3.22-1.23,4.38-0.73c11.61,5.01,23.43,9.39,35.51,13.15
		c9.59,2.98,18.18,8.12,26.6,13.53c2.5,1.6,4.9,3.27,8.19,3.2c18.62-0.38,37.25-0.62,56.37-0.91c0.31-5.7-2.87-9.71-5.27-13.74
		c-2.62-4.41-4.12-8.97-4.75-13.98c-0.45-3.51,0.93-5.72,4.21-7.18c0.79,0.3,1.87,0.43,2.57,1.01
		c14.47,11.89,31.34,20.09,46.75,30.52c2.01,1.36,4.02,2.31,6.45,2.23c17.99-0.6,35.8,1.55,53.65,3.32
		c0.95,0.09,1.94-0.23,3.19-0.39c0.39-4-1.97-6.93-3.56-10.04c-4.72-9.22-8.03-18.97-11.27-28.76c-1.06-3.2-1.67-6.46-1.11-9.82
		c0.52-3.06,3.38-4.44,5.96-2.61c4.05,2.88,8.22,5.74,11.74,9.22c16.27,16.1,30.01,34.4,45.1,51.46c-2.16,2.35-4.21,1.13-5.98,0.94
		c-21.1-2.33-42.17-4.89-63.27-7.16c-5.94-0.64-11.97-0.78-17.95-0.76c-30.98,0.14-61.99-0.34-92.93,0.93
		c-15.87,0.65-31.9,0.15-47.7,2.83c-3.57,0.61-7.33,0.02-10.98,0.28c-24.5,1.81-49.04,3.58-73.19,8.16
		c-24.14,4.58-48.54,7.65-72.53,13.14c-29.19,6.69-57.62,15.78-85.74,25.98c-23.78,8.62-47.07,18.4-69.79,29.45
		c-27.01,13.14-52.16,29.41-75.75,47.93c-11.22,8.81-22.31,17.87-32.23,28.28c-8.03,8.43-17.01,15.96-25.06,24.37
		c-24.75,25.83-46.14,54.07-62.5,86.09c-10.76,21.04-21.18,42.24-29.4,64.36c-9.74,26.21-17.13,53.06-20.13,81.06
		c-1.78,16.62-1.25,33.22-1.92,49.82c-1.16,28.59,4,56.19,10.82,83.77c5.63,22.76,13.21,44.64,24.6,65.11
		c10.82,19.45,21.3,39.12,34.28,57.3c9.35,13.1,20.62,24.45,32.34,35.27c13.43,12.4,27.35,24.29,41.49,35.87
		c16.47,13.49,33.54,26.23,51.65,37.49c22.32,13.88,44.46,28.1,67.15,41.35c47.29,27.61,96.96,49.85,149.56,65.49
		c17.54,5.22,35.28,9.52,52.95,14.14c4.06,1.06,7.79,1.14,11.69-0.02L481.78,1212.08z M54.59,543.92c0.68-0.42,0.95-0.59,1.22-0.76
		c-0.19-0.24-0.33-0.56-0.57-0.71c-1.67-1.03-3.25-2.65-5.98-0.97C51.45,542.48,53.14,543.25,54.59,543.92z"/>
	<path class="st0" d="M2245.77,313.43c-0.64-3.79-1.43-6.71-1.57-9.67c-0.92-18.69-5.34-36.81-9.24-54.98
		c-5.52-25.68-13.3-50.76-21.88-75.55c-7.61-21.98-15.81-43.74-27.13-64.21c-4.01-7.25-7.19-15-10.35-22.68
		c-5.97-14.47-13.37-28.21-20.93-41.88c-6.45-11.67-12.11-23.66-15.9-36.48c-0.37-1.25-1-2.52,0.11-3.74
		c0.62,0.04,1.45-0.17,1.83,0.15c18.46,15.7,38.45,29.55,56.17,46.14c8.51,7.97,16.47,16.49,22.69,26.4
		c11.68,18.63,24.15,36.76,39.13,52.81c19.72,21.11,33.63,46.14,49.48,69.89c4.84,7.25,7.91,15.39,11.46,23.26
		c6.04,13.36,13.2,26.12,19.91,39.12c5.19,10.05,8.91,20.77,12.66,31.44c5.63,15.99,11.34,31.95,16.83,47.99
		c0.93,2.73,2.54,5.43,2.03,8.37c-0.91,1.41-1.91,0.7-2.63,0.25c-15.65-9.78-33.01-15.62-50.22-21.78
		c-7.81-2.79-15.68-5.4-23.58-7.92c-14-4.46-28.36-6.76-43.09-6.53C2249.92,313.87,2248.29,313.62,2245.77,313.43z M2248.36,238.5
		c0.69,12.53,3.81,24.34,8.49,35.78C2256.2,261.81,2252.21,250.1,2248.36,238.5z M2257.22,312.56c5.23-0.43,7.85-2.37,10.67-5.85
		C2262.08,308.27,2262.07,308.25,2257.22,312.56z M2264.55,296.43c-1.9,0.97-5.15-1.03-6.41,2.39
		C2261.36,301.28,2263.03,299.18,2264.55,296.43z"/>
	<path class="st0" d="M1770.85,1350.96c4.71-1.49,7.7,0.8,10.81,2.55c16.25,9.17,32.96,17.37,50.9,22.68
		c13.68,4.05,27.5,7.62,41.27,11.36c1.6,0.43,3.28,0.74,4.93,0.75c16.29,0.08,32.65,0.93,48.74-2.35
		c10.08-2.06,20.01-4.86,29.55-8.84c5.3-2.21,9.64-5.96,14.1-9.37c6.32-4.82,12.55-9.54,19.57-13.5c10.1-5.69,19.3-12.9,26.69-22.15
		c2.04-2.55,4.83-4.49,7.8-7.18c2.21,4.07,2.99,8.68,2.81,13.52c-0.17,4.65-0.12,9.33-0.69,13.94c-1.94,15.79-2.5,31.76-5.83,47.38
		c-0.62,2.92-1.29,5.87-2.34,8.65c-8.93,23.44-20.61,45.36-35.93,65.33c-4.77,6.22-10.52,11.06-17.02,15.1
		c-19.44,12.09-40.3,15.09-62.19,8.4c-16.04-4.9-30.27-13.1-43.03-24.26c-7.71-6.74-15.44-13.55-23.28-20.16
		c-13.75-11.59-24.99-25.59-33.83-41.46c-5.81-10.44-12.29-20.5-18.52-30.71c-3.28-5.38-6.64-10.72-10.02-16.04
		C1772.81,1360.65,1771.05,1356.45,1770.85,1350.96z M1961.63,1466.57c-7.12-1.01-13.02-1.59-18.8-2.74
		c-5.15-1.03-9.67-3.67-10.51-9.33c-1-6.72,2.77-12.13,6.33-17.38c0.46-0.68,1.79-1.1,2.7-1.08c7.88,0.14,15.78-0.7,22.61,5.27
		c3.76,3.29,6.1,7.98,10.77,10.44c3.53-3.23,5.06-7.75,7.58-11.59c14.84-22.67,21.53-48.44,27.94-74.31
		c0.6-2.43,0.65-4.61-1.88-6.05c-4.17,0.17-6.22,3.49-8.8,5.98c-10.95,10.59-20.87,22.29-33.78,30.77
		c-13.4,8.8-26.85,16.91-43.59,18.23c-5.31,0.42-10.47,0.1-15.67,0.05c-11.94-0.11-23.74-1.21-35.39-4.39
		c-24.01-6.55-45.9-17.51-66.9-30.56c-1.24-0.77-2.31-2.58-4.19-1.18c-0.88,2.79,1.06,4.63,2.47,6.15c3.53,3.8,5.67,8.22,6.86,13.11
		c1.27,5.22,3.83,9.6,7.51,13.44c6.32-7.58,6.32-7.6,16.04-7.64c2.66-0.01,5.32,0.19,7.99,0.25c3.12,0.07,4.78,1.98,5.9,4.58
		c2.28,5.31,0.16,11.02-5.42,13.12c-3.85,1.45-8.03,2.03-11.86,2.95c-0.19,1.6,0.98,1.92,1.69,2.51
		c11.47,9.57,23.05,18.98,34.82,28.2c12.99,10.18,26.57,18.68,42.16,24.05c13.64,4.7,26.9,3.72,39.61-2.8
		C1952.37,1474.29,1957.61,1472.56,1961.63,1466.57z"/>
	<path class="st0" d="M274.44,1918.19c1.78,2.58,3.66,5.28,5.51,8c2.83,4.14,6.56,6.32,11.75,6.19c6.65-0.17,13.22-0.36,19.79-1.9
		c8.38-1.97,16.8-4.13,25.51-4.1c2.87,0.01,5.12-1.11,7.32-2.66c2.59-1.82,5.49-2.34,8.56-1.87c5.45,0.83,7.27,3.65,6.22,9.14
		c-1.06,5.55-4.42,10.13-6.88,15.76c5.9-0.13,9.86-2.96,13.74-5.95c3.38-2.6,6.36-5.87,11.49-3.31c1.37,0.69,3.77-0.86,5.72-1.1
		c2.56-0.32,5.25-1.51,7.92,0.91c-0.01,4.71-1.84,8.45-5.99,11.48c-3.69,2.7-7.65,5.28-9.6,9.9c-0.73,1.72-2.54,3.32-4.66,3.42
		c-6.89,0.32-12.63,3.99-18.78,6.37c-8.77,3.4-17.49,5.85-27.05,3.94c-6.66-1.33-12.98-0.12-19.29,2.82
		c-12.85,5.98-26.88,7.2-40.76,8.3c-8.36,0.66-16.48-2-24.34-4.6c-6.88-2.27-14.25-3.65-20-8.64c-1.75-1.52-3.72-2.82-5.34-4.46
		c-6.85-6.9-6.82-14.93,0.05-21.97c4.97-5.1,11.51-7.98,17.76-10.71c12.75-5.58,25.98-10.04,39.03-14.92
		C272.69,1918,273.42,1918.19,274.44,1918.19z"/>
	<path class="st0" d="M352.99,1795.57c1.43,14.6-7.33,23.35-16.84,31.27c-8.14,6.79-16.78,13-26.49,17.6
		c-5.37,2.54-10.34,5.93-15.58,8.77c-26.81,14.54-54.55,17.6-83.36,6.54c-5.29-2.03-10.16-4.92-14.32-8.81
		c-7.26-6.78-6.39-14.6,2.15-19.37c2.6-1.45,5.33-2.72,8.09-3.82c15.81-6.3,30.34-14.95,44.34-24.5c2.23-1.52,4.46-2.78,6.91-3.76
		c7.88-3.16,11.06-2.68,16.29,4.23c5.47,7.23,12.51,9.44,20.96,8.07c2.9-0.47,5.73-1.68,8.44-2.88c4.54-2.02,9.01-4.24,13.43-6.51
		c7.07-3.64,14.34-6.68,21.89-9.29C344.74,1791.07,349.07,1791.94,352.99,1795.57z"/>
	<path class="st0" d="M2199.77,1550.96c1.63,1.19,2.78,0.73,4.08,0.26c12.53-4.54,24.47-10.2,35.78-17.31
		c24.6-15.47,51.62-23.96,80.36-27.39c3.59-0.43,6.32,0.41,8.86,3.15c5.62,6.07,11.29,12.09,16.13,18.69
		c-1.11,2.81-3.38,1.89-5.12,1.97c-22.66,1.07-44.85,5.06-66.44,11.84c-9.45,2.97-18.34,7.73-27.54,11.54
		c-16.23,6.72-32.3,13.79-49.75,17.18c-10.32,2.01-20.44,1.78-30.68,0.44c-0.84-0.11-1.56-1.08-2.43-1.71
		c1.65-5.21,6.73-7.23,9.86-10.97c9.68-11.53,17.04-24.52,24.96-37.16c13.59-21.71,30.28-40.41,52.17-53.95
		c7.02-4.34,14.83-7.44,22.32-10.99c2.96-1.4,5.77-0.87,8.39,1.17c4.71,3.68,9.04,7.72,12.56,12.34c-0.13,2.49-2.16,2.58-3.5,3.15
		c-18.79,8.08-35.99,18.64-50.64,33.01c-4.72,4.63-9.22,9.63-13.04,15.01C2218.39,1532.11,2209.82,1542.14,2199.77,1550.96z"/>
	<path class="st0" d="M1151.47,1066.88c1.66-2.14,2.79-2,4.2-1.68c25.56,5.78,49.21,15.36,70.11,31.81
		c17.04,13.42,33.34,27.52,47.83,43.6c7.77,8.63,15.02,17.8,21.8,27.23c11.26,15.64,23.67,30.56,32.69,47.69
		c13.92,26.44,28.89,52.33,39.72,80.36c7.3,18.9,15.96,37.27,24.06,55.86c5.31,12.19,10.84,24.28,16.01,36.52
		c5.56,13.16,12.37,25.69,19.09,38.25c6.26,11.69,16.28,20.22,25.99,28.73c25.47,22.3,54.43,39.17,85.27,52.93
		c7.28,3.25,14.47,6.77,21.45,10.63c19.34,10.68,39.78,18.51,61.13,23.98c18.77,4.81,36.68,12.1,54.16,20.09
		c17.92,8.18,36.51,14.28,54.89,21.09c3.74,1.39,7.49,2.75,11.23,4.12c1.97,0.72,3.46,1.89,3.87,4.07
		c-0.92,1.46-2.01,1.02-3.34,0.56c-15.66-5.56-31.42-10.85-47-16.61c-13.09-4.84-26.07-10-38.93-15.42
		c-17.19-7.24-35.04-12.56-52.77-18.16c-10.19-3.22-20.09-7.06-29.7-11.58c-19.86-9.34-39.64-18.87-59.3-28.64
		c-26.95-13.4-52.1-29.45-73.44-50.97c-2.09-2.11-4.07-4.69-7.6-2.77c-2.08,2.35,1.74,4.11,0.58,6.35c-0.6,0.08-1.23,0.33-1.76,0.2
		c-3.8-0.92-6.13-3.66-8.43-6.61c-10.43-13.4-21.37-26.35-34.61-37.15c-0.71-0.58-1.62-1.35-0.51-3.22
		c5.82-1.3,12.55,1.93,19.24-0.92c1.25-8.24-4.73-14.15-6.71-21.24c-2.09-7.46-5.21-14.3-10.12-20.85
		c-4.18,3.54-7.83,8.29-13.95,8.47c-5.63,0.17-11.27,0.04-16.84,0.04c-1.58,3.44-0.29,6.4,0.14,10.62
		c-7.91-6.71-15.32-12.65-22.32-19.04c-5.41-4.93-10.61-10.02-16.93-13.88c-2.18-1.33-3.7-3.73-5.63-5.75
		c2.45-2.22,3.64,0.21,4.91,1.1c4.45,3.1,9.83,2.29,14.49,2.58c16.11,0.98,31.46,4.71,46.58,9.96c0.47,0.16,1.1-0.11,1.66-0.19
		c-0.06-0.37-0.01-0.8-0.2-1c-0.89-0.95-1.84-1.85-2.76-2.75c1.7-2.86,3.9,1.3,5.87-0.69c-0.06-0.75,0.15-1.83-0.24-2.63
		c-9.98-20.66-18.16-42.09-27.04-63.22c-5.66-13.47-11.83-26.76-18.49-39.76c-8.64-16.84-17.03-33.82-27.49-49.71
		c-4.97-7.54-11.08-14.1-16.29-21.41c-13.12-18.44-26.78-36.48-43.22-52.18c-12.27-11.72-25.08-22.93-38.94-32.66
		c-15.89-11.16-33.87-18.2-52.71-22.96c-2.25-0.57-4.52-1.04-6.75-1.68C1153.59,1068.15,1152.81,1067.58,1151.47,1066.88z"/>
	<path class="st0" d="M2726.3,2399.74c-6.7-0.74-9.9-3.89-12.38-7.21c-7.35-9.82-17.28-16.38-27.4-22.76
		c-9.55-6.02-18.98-12.26-28.82-17.78c-12.42-6.96-24.93-13.93-39.27-16.36c-2.06-0.35-3.88-0.86-4.67-3.11
		c-0.24-2.46,1.57-3.35,3.37-4.3c15.2-8.08,14.95-22.04,9.16-33.06c-1.69-3.22-3.93-6.15-6-9.15c-2.11-3.06-3.87-6.16-2.72-9.92
		c1.86-2.38,4.4-2.02,6.57-1.7c15.54,2.27,30.17,6.75,43.78,15.15c16.45,10.14,27.59,24.44,36.67,40.98
		c5.12,9.31,9.57,18.92,14.15,28.48C2724.77,2371.58,2724.42,2385.16,2726.3,2399.74z"/>
	<path class="st0" d="M2258.56,1613.4c7.16-3.51,13.44-8.25,19.08-13.85c3.3-3.28,6.76-6.43,9.84-9.9
		c8.95-10.09,19.21-18.3,31.88-23.28c0.79-0.31,1.4-1.05,2.96-2.26c-8.95-0.28-15.92,2.87-22.63,6.29
		c-8.87,4.53-17.37,9.78-26.14,14.5c-7.94,4.27-16.7,6.44-25.18,9.3c-6.92,2.33-13.95,4.33-20.85,6.72
		c-14.06,4.87-23.98,15.14-33.2,26.17c-2.75,3.29-5.04,6.97-7.78,10.8c-5.76,0.2-10.75-2.31-15.93-4.4
		c3.49-14.21,12.15-24.77,22.87-33.23c6.35-5.01,13.24-9.79,20.98-12.99c11.36-4.68,22.37-10.23,33.83-14.63
		c14.03-5.39,26.82-13.17,40.2-19.8c20.27-10.04,41.68-10.19,63.36-8.22c7.51,0.68,11.1,3.88,17.06,12.22
		c-0.67,2.21-2.65,2.72-4.48,3.38c-18.36,6.61-34.72,16.53-48.88,29.93c-3.34,3.17-6.06,7.02-8.92,10.67
		c-2.24,2.87-3.76,6.53-6.47,8.77c-4.85,4.02-8.8,9.12-15.03,12.43c-8.82-2.21-17.29-7.12-26.78-8.7L2258.56,1613.4z"/>
	<path class="st0" d="M1608.3,1342.53c-12.43-15.93-23.65-32.72-34.41-49.83c-4.23-6.73-7.92-13.8-11.95-20.66
		c-13.57-23.1-21.57-48.38-28.62-73.98c-4.15-15.08-6.01-30.53-5.26-46.24c0.22-4.63,0.48-9.34-2.02-13.63
		c-0.5-0.85-1.2-1.92-1.06-2.76c2.17-13.03-5.38-23.61-8.77-35.22c-1.12-3.82-2.62-7.54-3.69-11.37c-0.6-2.16-1.61-4.45-0.19-6.85
		c2.88,1.63,3.61,4.74,4.74,7.34c8.45,19.49,16.21,39.24,21.09,59.99c1.16,4.93,3.39,9.37,6.16,13.54
		c18.56,27.86,31.79,58.17,41.53,90.09c2.62,8.58,4.7,17.27,6.46,26.05c2.88,14.37,9.3,27.65,12.98,41.77
		c1.82,6.99,3.4,14.04,5.09,21.06C1609.71,1342.07,1609,1342.3,1608.3,1342.53z"/>
	<path class="st0" d="M399.76,956.44c-4.88,0.85-7.47-1.3-10.14-3.11c-13.25-8.96-25.57-18.96-36.8-30.46
		c-16.08-16.46-30.99-33.83-44.19-52.66c-7.08-10.1-13.04-20.79-17.76-32.26c-5.59-13.57-6.25-27.76-6.5-42
		c-0.35-20.22,7.17-38.05,16.53-55.65c11.02-20.73,26.19-37.59,44.09-52.25c13.63-11.17,29.64-17.83,46.61-21.75
		c18.11-4.18,36.54-6.71,55.08-8.59c21.93-2.22,43.9-1.76,65.79-0.93c20.53,0.77,40.89,3.99,61.06,8.57
		c17.85,4.06,35.49,8.55,52.96,14.03c20.71,6.49,40.67,14.57,59.8,24.75c20.85,11.09,41.85,21.92,61.87,34.48
		c8.87,5.56,17.87,11.11,25.97,18.82c-4.07,1.26-6.38-1.13-8.76-2.54c-32.65-19.36-66.18-37.09-100.26-53.75
		c-9.83-4.8-20.17-8.76-30.59-12.12c-22.12-7.14-44.46-13.54-67.26-18.24c-21.2-4.36-42.57-6.87-64.23-6.98
		c-6.28-0.03-12.56-0.56-18.85-0.65c-26.92-0.37-53.58,2.15-80.03,7.22c-11.73,2.25-23.46,4.1-34.56,9.07
		c-12.02,5.39-22.6,12.64-32.05,21.67c-3.61,3.45-7.17,6.97-10.6,10.61c-16.98,18.02-29.69,38.98-34.97,62.95
		c-6.01,27.31-2.95,54.21,12.77,78.63c10.85,16.85,23.61,32.13,36.87,47.07c15.28,17.21,32.05,32.89,49.24,48.14
		C393.81,951.14,396.78,953.8,399.76,956.44z"/>
	<path class="st0" d="M2695.53,2261.09c2.34-3.67,5.82-2.85,9.06-2.54c3.98,0.39,8.09,4.16,11.78-0.63
		c3.78,1.96,7.91,1.31,11.91,1.65c4.65,6.81,12.8,8.7,18.98,13.41c15.43,11.76,29.21,25.24,41.58,40.05
		c7.88,9.44,13.73,20.16,16.06,32.72c1.01,5.43,0.19,10.57,0.31,15.82c0.07,3.02-3.23,4.51-5.75,2.83c-1.9-1.27-3.62-2.9-5.2-4.57
		c-10.9-11.48-23.98-19.97-37.89-27.2c-9.19-4.78-19.03-7.75-29.47-8.36c-0.99-0.06-2-0.08-2.98-0.25c-6.26-1.09-8.3-3.78-6.02-9.69
		c2.48-6.41,3.43-12.64,2.12-19.42c-0.91-4.74-2.54-8.82-6.1-12.18c-4.35-4.11-8.51-8.44-12.73-12.69
		C2698.63,2267.46,2695.9,2264.97,2695.53,2261.09z"/>
	<path class="st0" d="M2485.97,2350.47c0.33-2.91,1.85-4.25,3.4-5.49c2.18-1.75,3.4-4.17,4.18-6.66
		c3.91-12.51,4.54-24.77-3.35-36.23c-2.98-4.32-5.22-9.17-9.92-12.17c-1.64-1.04-2.72-2.92-2.69-5.72
		c4.15-3.07,8.56-2.88,13.45-0.75c12.67,5.53,23.42,13.69,33.1,23.42c3.98,4,7.96,7.95,12.27,11.64
		c19.63,16.77,31.72,38.06,36.55,63.36c0.92,4.83,1.11,9.95-1.82,14.5c-2.04,3.15-4.24,3.87-7.58,2.17
		c-3.59-1.83-6.42-4.64-9.32-7.4c-5.28-5.02-10.2-10.35-15.98-14.94c-14.08-11.18-30.1-17.91-47.23-22.45
		C2489.04,2353.22,2487.2,2352.64,2485.97,2350.47z"/>
	<path class="st0" d="M2397.12,427.24c-6.85-4.1-11.81-9.95-17.56-14.79c-6.85-5.76-13.17-12.16-19.79-18.2
		c-1.7-1.55-3.51-3.38-5.6-4.03c-4.77-1.47-8-4.57-10.81-8.39c-1.19-1.61-2.38-3.35-4.48-3.76c-5.87-1.14-9.59-5.74-14.36-8.65
		c-4.52-2.76-8.19-5.99-6.5-12.17c-3.52,0.42-1.49,3.64-3.99,4.45c-3.59-2.32-7.37-5-11.37-7.27c-3.95-2.25-7.67-5.47-12.91-3.89
		c-1.09,0.33-2.6-0.22-3.76-0.72c-12.2-5.31-25.06-8.76-37.54-13.26c-7.91-2.85-9.33-7.19-4.6-14.08c0.92-1.33,2-2.56,3.39-4.33
		c15.1-1.15,30.36,0.62,44.78,5.63c22.86,7.95,45.66,16.34,66.66,28.71c3.72,2.19,7.32,4.61,10.75,7.21
		c2.37,1.79,4.92,3.76,5.91,6.64c6.03,17.6,15.36,33.9,20.54,51.82C2396.68,420.92,2398.49,423.61,2397.12,427.24z"/>
	<path class="st0" d="M1842.29,1264.41c-11.44-0.53-23.31-1.59-34.65-5.69c-10.56-3.81-13.03-10.36-7.07-19.98
		c8.21-13.23,16.06-26.68,24.72-39.65c5.47-8.2,12.44-10.48,21.29-9.02c6.58,1.09,12.23,2.8,15.28,10.56
		c2.42,6.17,7.78,11.36,12.41,16.44c8.48,9.3,8.97,19.55,4.18,30.37c-4.86,11-13.53,16.77-25.7,16.95
		C1849.43,1264.46,1846.1,1264.41,1842.29,1264.41z"/>
	<path class="st0" d="M1186.36,1998.88c5.66,2.64,11.76,3.38,18.12,2.39c12.16-1.9,24.11-4.67,35.88-8.27
		c3.75-1.15,7.64-1.83,12.33-2.92c-1.48,4.14-4.65,4.65-7.08,5.45c-13.9,4.57-28.03,8.49-42.62,9.82
		c-5.81,0.53-11.9-0.68-17.71-1.86c-4.36-0.89-6.3-4.95-5.1-9.33c0.6-2.2,1.63-4.4,2.96-6.24c4.89-6.75,10.63-12.72,16.93-18.23
		c16.78-14.67,35.04-27.52,51.94-42.02c11.6-9.95,23.78-19.2,34.76-29.94c26.51-25.93,47.3-55.6,61.27-90.03
		c3.62-8.94,7.77-17.67,9.92-27.12c3.4-14.93,3.92-30.19,3.17-45.31c-0.64-12.84-1.56-25.79-4.84-38.44
		c-1.76-6.8-3.74-13.55-6.55-19.84c-10.59-23.66-20.98-47.52-36.78-68.34c-20.51-27.02-40.62-54.43-65.69-77.58
		c-9.52-8.79-19.62-16.95-29.38-25.47c-13.52-11.81-27.2-23.42-41.36-34.47c-16.29-12.72-33.69-23.67-51.68-33.78
		c-34.06-19.15-70.58-32.5-107.16-45.71c-4.64-1.67-9.41-2.96-14.44-4.53c2.85-1.91,5.32-0.76,7.75-0.09
		c13.13,3.64,26.05,7.86,38.6,13.21c18.65,7.95,37.9,14.43,56.07,23.53c40.41,20.24,77.16,45.74,110.59,76.13
		c5.9,5.36,12.14,10.36,18.36,15.36c19.77,15.91,37.13,34.16,52.97,53.94c12.68,15.83,26.06,31.11,37.07,48.22
		c2.69,4.19,5.46,8.36,7.72,12.79c7.57,14.8,15.35,29.48,21.83,44.84c7.89,18.7,10.75,38.28,11.89,58.26
		c0.47,8.29,0.47,16.59,0.97,24.89c0.51,8.51-0.99,17.37-4.05,25.45c-7.88,20.84-15.92,41.66-26.95,61.1
		c-8.08,14.25-18.74,26.62-29.39,38.98c-21.42,24.89-47.53,44.45-73.1,64.62c-12.28,9.68-24.27,19.7-35.68,30.37
		c-3.37,3.15-6.14,6.98-8.99,10.65C1186.85,1991.96,1185.04,1994.81,1186.36,1998.88z"/>
	<path class="st0" d="M984.04,1136.68c0.77-5.82,1.74-11.22,5.29-16.01c5.34-7.22,10.69-14.33,17.98-19.8
		c3.44-2.58,6.86-5.34,9.67-8.56c5.75-6.58,17-6.15,23.29,0.19c7.1,7.16,11.08,15.91,6.97,26.12c-2.8,6.94-3.7,13.98-3.84,21.35
		c-0.1,5.26-1.08,10.51-1.82,15.74c-0.43,3.05-1.99,5.67-4.28,7.69c-7.66,6.77-16.5,10.16-26.43,6.41
		c-12.9-4.89-23.52-12.46-26.06-27.42C984.48,1140.44,984.28,1138.47,984.04,1136.68z"/>
	<path class="st0" d="M1473.02,1782.08c-2.12,3.25-2.62,6.13-1.78,9.63c3.76,15.67,3.19,31.66,2.69,47.59
		c-0.5,15.97-4.13,31.52-7.19,47.12c-1.34,6.83-3.06,13.59-4.86,20.31c-0.76,2.85-1.93,5.66-3.32,8.27
		c-3.16,5.91-8.96,6.04-12.19,0.24c-1.27-2.28-2.03-4.92-2.67-7.48c-5.12-20.61-8.98-41.37-7.59-62.8
		c1.52-23.48,8.7-44.76,24.14-62.85C1465.16,1776.35,1465.65,1776.41,1473.02,1782.08z"/>
	<path class="st0" d="M1401.45,1875.35c0,5.04,0.19,9.62-0.03,14.18c-1.26,25.89-3.88,51.61-11.41,76.56
		c-1.82,6.03-4.09,11.94-6.48,17.77c-2.33,5.66-6.36,10.2-11.23,13.78c-6.88,5.06-13.82,2.33-16.02-5.99
		c-0.34-1.28-0.55-2.62-0.58-3.94c-0.37-14.95-0.73-29.91,1.9-44.73c0.35-1.95,0.54-4.1,1.51-5.75
		c5.92-10.14,7.93-21.79,12.66-32.37c5.43-12.15,13.04-22.38,25.41-28.29C1398.31,1876.01,1399.65,1875.85,1401.45,1875.35z"/>
	<path class="st0" d="M1498.67,1689.8c4.51,6.35,8.89,12.6,13.35,18.79c8.34,11.55,12.64,24.77,15.98,38.38
		c3.96,16.18,6.28,32.58,6.15,49.29c-0.02,2.63,0.27,5.32,0.87,7.88c0.74,3.16,0.19,5.9-1.8,8.84c-5.45,2.15-9.42-0.61-12.49-4.91
		c-6.36-8.91-12.65-17.89-18.66-27.04c-8.9-13.55-12.6-29.11-15.83-44.64c-2.63-12.65-0.35-25.2,4.05-37.25
		C1491.74,1695.13,1493.87,1691.29,1498.67,1689.8z"/>
	<path class="st0" d="M1127.74,975.86c0.34,4.7-0.98,9.39-4.24,13.46c-2.28,2.84-4.39,5.86-6.93,8.43
		c-5.37,5.42-11.73,7.61-19.65,7.12c-11.88-0.75-22.38-5.84-33.33-9.37c-7.27-2.34-10.34-10.9-7.36-19.33
		c3.87-10.97,8.99-21.35,17.62-29.62c2.76-2.65,5.6-4.59,9.5-4.7c2.64-0.07,5.31-0.82,7.83-0.87c6.95-0.14,13.74,0.57,18.59,6.98
		c3.18,4.2,7.26,7.71,10.91,11.56C1124.89,963.98,1128.01,968.95,1127.74,975.86z"/>
	<path class="st0" d="M1068.16,1062.19c-1-6.74,2.53-12.32,7.63-17.68c6.73-7.07,14.78-12.3,22.56-17.95c2.78-2.02,6-2.91,9.17-3.74
		c7.89-2.08,14.9,1.34,17.66,8.94c6.34,17.49,5.52,34.31-4.76,50.43c-5.34,8.38-21.59,15.58-33.85,11.42
		c-8.63-2.93-16.57-8.46-17.48-19.65C1068.79,1070.35,1068.23,1066.74,1068.16,1062.19z"/>
	<path class="st0" d="M1809.13,1082.46c10.76-0.68,21,2.24,31.32,4.58c3.93,0.89,7.36,2.9,10.82,4.9
		c15.72,9.09,8.49,30.89-2.43,35.06c-9.2,3.51-18.26,7.75-28.05,9.74c-2.35,0.48-4.33,0.48-6.69-0.2
		c-9.68-2.81-18.23-7.69-26.51-13.28c-4.63-3.13-6.51-7.31-6.07-12.66c0.65-7.78,3.2-14.98,7.98-21.12c3.34-4.3,7.89-7.05,13.66-7
		C1805.15,1082.47,1807.14,1082.46,1809.13,1082.46z"/>
	<path class="st0" d="M1322.91,559.85c-5.16,1.48-9.68-0.33-13.91-3.1c-9.58-6.29-17.15-14.71-24.27-23.53
		c-2.91-3.61-3.22-8.11-2.3-12.39c0.67-3.17,2.9-6,3.55-9.17c0.72-3.53,2.92-5.76,5.18-7.8c-2.41-15.56-2-30.84-1.14-46.12
		c0.19-3.29,0.8-6.63,1.76-9.77c1.01-3.28,2.93-6.03,7.09-5.58C1315.44,469.18,1326.05,522.73,1322.91,559.85z"/>
	<path class="st0" d="M2221.67,1461.52c-3.15,5.26-7.71,9.57-12.03,14.06c-12.22,12.69-24.11,25.62-33.89,40.38
		c-5.56,8.4-12.73,15.7-21.11,20.98c-8.33,5.24-11.31,12.83-13.06,21.33c-4.67,22.64-5.43,45.39-0.35,69.04
		c-9.21,1.42-17.62-1.39-26.65-3.31c-0.75-8.73-4.03-16.92-1.43-25.68c0.64-2.15,0.25-4.63,0.22-6.96
		c-0.21-14.99,4.73-28.41,12.27-41.12c2.28-3.84,5.17-6.82,8.83-9.29c4.41-2.97,8.73-6.08,12.95-9.3
		c14.75-11.25,24.61-26.67,35.03-41.56c7.39-10.55,17.06-18.46,27.5-25.63c2.19-1.5,4.43-2.97,6.79-4.17
		C2218.24,1459.5,2219.95,1459.63,2221.67,1461.52z"/>
	<path class="st0" d="M964.53,1093.53c-11.68,0.76-20.55-0.31-29.17-3.15c-10.3-3.39-13.51-13.22-6.78-21.92
		c3.44-4.44,7.77-8.22,11.87-12.11c2.16-2.05,4.85-3.53,7.07-5.53c8.34-7.51,17.97-7.44,28.12-5.21
		c9.02,1.97,16.84,6.06,23.56,12.38c3.35,3.16,5,6.93,4.97,11.55c-0.02,3.91-1.25,7.07-4.46,9.52c-6.64,5.06-13.62,9.55-21.05,13.34
		C973.27,1095.14,967.46,1092.95,964.53,1093.53z"/>
	<path class="st0" d="M1006.8,982.36c-7.93,0.35-14.46-0.36-20.95-2.06c-3.82-1-7.8-1.4-11.73-1.92c-4-0.53-7.81-1.6-11.28-3.64
		c-5.86-3.45-7.58-8.72-5.45-15.24c1.96-6,5.39-10.53,11.32-13.07c7.91-3.39,15.68-7.01,24.12-9.14
		c21.67-5.48,32.8,3.87,42.79,21.46c3.17,5.57,0.16,14.31-5.77,17.12C1022.23,979.46,1014.91,984.98,1006.8,982.36z"/>
	<path class="st0" d="M1917.88,1352.05c-0.65,8.08-3.65,14.69-8.34,20.44c-1.37,1.67-3.74,2.99-5.88,3.48
		c-9.21,2.09-18.42,2.33-27.07-2.26c-4.97-2.63-10.52-4.06-14.99-7.76c-6.15-5.08-9.37-11.06-7.23-19.2
		c0.67-2.56,1.14-5.18,1.61-7.79c1.77-9.78,8.92-15.21,16.52-20.15c1.21-0.79,3.25-0.68,4.83-0.45c16.83,2.39,29.64,10.86,38,25.72
		C1916.78,1346.65,1917.95,1349.48,1917.88,1352.05z"/>
	<path class="st0" d="M1505.43,1634.69c-7.12-25.69-14.36-49.69-23.17-73.4c14.12,12.97,30.23,23.47,42.41,38.26
		c11.01,13.37,20.53,27.73,27.38,43.72c1.17,2.74,2.21,5.58,2.92,8.46c1.28,5.22-1.11,8.43-6.59,8.47
		c-5.36,0.04-10.5-1.27-15.13-4.19C1523.11,1649.62,1513.59,1642.43,1505.43,1634.69z"/>
	<path class="st0" d="M736.64,938.66c-2.42-2.59-3.32-5.67-3.1-9.17c0.2-3.32,0.02-6.69,0.47-9.97c3.09-22.68,2.63-45.74,7.42-68.26
		c1.19-5.59,2.97-10.94,5.04-16.11c12.69-31.76,30.18-60.61,52.43-86.68c18.15-21.27,40.5-37.29,63.04-53.3
		c23.16-16.46,48.53-28.96,73.38-42.42c13.17-7.14,25.6-15.41,37.84-24.06c16.02-11.32,32.41-22.12,51.58-27.73
		c10.9-3.19,14.58-3.58,23.9-0.88c-1.6,2.75-4.41,3.14-6.59,3.4c-22.89,2.66-42.48,13.29-60.74,26.19
		c-21.25,15.02-43.17,28.7-66.44,40.39c-33.13,16.64-63.77,37.34-92.1,61.13c-20.77,17.44-36.74,39.31-50.91,62.43
		c-12.26,20.01-21.39,41.27-26.68,64.15c-2.41,10.42-2.88,21.09-2.84,31.69c0.05,13.69-2.33,27.15-2.83,40.77
		c-0.12,3.12-1.58,5.7-3.12,8.27L736.64,938.66z"/>
	<path class="st0" d="M402.25,1608.6c2.24-3.09,4.93-4.9,8.22-6.12c5.11,2.14,8.12,6.82,12.05,10.26
		c10.01,8.74,21.32,15.95,30.39,25.78c1.8,1.95,3.85,3.75,5.27,5.95c5.48,8.52,12.69,15.3,20.66,21.41
		c7.61,5.83,15.21,11.69,22.53,17.88c1.5,1.27,2.97,0.94,4.34,1.59c8,3.79,15.5,8.37,22.19,13.24c-0.15,4.82-3.05,5.05-5.65,5.24
		c-7.69,0.59-15.22-0.44-22.41-3.18c-12.6-4.8-23.34-12.56-33.32-21.48c-2.23-1.99-4.25-4.29-6.71-5.93
		c-7.1-4.74-12.52-10.97-16.45-18.41c-3.67-6.93-8.87-12.55-14.82-17.33C418.37,1629.34,408.79,1620.75,402.25,1608.6z"/>
	<path class="st0" d="M541.42,1618.61c-4.89,4.61-11.26,3.59-16.96,2.9c-17.44-2.12-35.06-3.45-52.03-8.47
		c-13.39-3.96-26.76-8-39-14.98c-2.3-1.31-4.87-2.24-6.54-5.19c2.13-3.97,5.95-6.48,9.95-9.76c26.04,19.96,57.12,25.01,89.03,30.79
		c-1.08-6.73-5.46-10.55-8.05-15.25c-0.94-1.71-2.64-2.99-3.81-4.6c-6.56-9.03-14.61-16.17-24.72-21.2
		c-12.4-6.17-22.53-15.2-30.52-26.56c-0.56-0.8-0.98-1.71-1.59-2.77c0.57-3.59,2.34-6.65,4.56-9.76c5.21,3.23,7.18,8.75,10.97,12.73
		c7.69,8.07,16.77,14.42,26.37,19.55c18.52,9.88,29.76,26.06,40.32,43.11C541.17,1611.96,543.13,1614.8,541.42,1618.61z"/>
	<path class="st0" d="M480.4,1526.51c1.91-4.43,5.03-5.94,8.92-6.11c13.91-0.62,27.84-1.55,41.64,1.37c2.92,0.62,5.8,1.5,8.75,1.94
		c14.9,2.25,29.55,2.04,43.95-3.37c8.4-3.15,16.64-6.63,24.81-10.31c2.67-1.2,5.27-3.05,8.48-1.3c-0.58,4.7-3.36,7.79-7.2,10.08
		c-4.28,2.55-8.67,4.92-12.92,7.51c-11.76,7.16-24.8,9.09-38.22,9.37c-6.3,0.13-12.6,0.02-19.45,0.02
		c3.69,3.88,19.12,14.09,23.95,16.14c8.57,3.62,18.02,3.78,26.9,6.06c-0.02,4.32-2.57,6.55-3.74,8.98c-3.57,1.17-6.61,1.17-9.5,0.48
		c-12.61-3.02-25.18-5.95-35.64-14.56c-14.55-11.98-32.38-16.41-50.19-20.61C485.29,1530.87,485.25,1531.05,480.4,1526.51z"/>
	<path class="st0" d="M2302.44,1922.87c9.69-1.06,18.62-0.79,26.15,6.19c1.43,1.33,3.41,2.05,5.06,3.16
		c3.75,2.51,7.41,2.44,11.17-0.03c2.21-1.46,4.63-2.61,6.84-4.08c2.82-1.87,5.83-2.94,9.18-3.08c1.91,1.86,1.1,5.26,4.13,6.53
		c-3.03,7.91-8.94,14.01-13.05,21.61c4.02,1.62,5.27-3.53,8.57-3.76c5.56,1.86,11.13,3.71,16.53,5.52c0,1.07,0.25,1.87-0.04,2.34
		c-5.17,8.64-21.46,21.08-30.8,23.61c-7.96,2.16-10.38,1.04-15.01-5.5c-10.97-15.48-19.17-32.52-27.99-49.21
		C2302.75,1925.35,2302.75,1924.31,2302.44,1922.87z"/>
	<path class="st0" d="M2127.78,681.41c-6.25-0.67-12.57-0.97-18.74-2.11c-12.59-2.32-21.11-17.94-16.84-29.93
		c2.84-7.97,8.38-13.4,15.36-17.67c1.49-0.91,3.13-1.42,4.75-0.82c14.67,5.45,29.27,11.06,39.43,23.94
		c0.41,0.52,0.87,1.01,1.24,1.57c5.11,7.71,3.81,14.97-4.36,19.42C2142.26,679.28,2135.36,681.92,2127.78,681.41z"/>
	<path class="st0" d="M1615.89,835.66c-4.54,1.11-7.43-0.03-8.5-3.82c-2.72-9.59-9.42-16.64-14.82-24.58
		c-4.79-7.04-8.72-14.32-8.68-23.68c0.09-20.6-2.65-41.15-1.79-61.8c0.08-2,0-4,0.09-5.99c0.14-3.26,1.59-5.71,4.7-7.04
		c2.68,0.23,4.05,1.97,4.92,4.29c0.58,1.56,1.27,3.09,1.71,4.69c6.1,22.09,13.34,43.89,17.34,66.5c1.38,7.82,1.75,15.82,2.59,23.73
		c0.53,4.95,1.15,9.88,1.6,14.84C1615.43,827.06,1615.61,831.32,1615.89,835.66z"/>
	<path class="st0" d="M1231.29,405.87c18.28,26.02,29.54,77.86,23.28,105.89c-3.8,1.75-6.66-0.31-8.56-3.01
		c-4.45-6.3-9.88-11.41-16.02-16.03c-4.27-3.21-6.92-8.06-9.39-12.75c-3.21-6.12-4.31-12.01,0-18.72c3.51-5.47,5.33-12.33,5.32-18.9
		c-0.01-8.33,1.86-16.45,1.67-24.77C1227.51,413.71,1227.43,409.51,1231.29,405.87z"/>
	<path class="st0" d="M727.29,1521.09c-2.18,4.05-4.35,8.09-6.74,12.53c-10.88-2.58-21.14-0.38-31.5,1.98
		c-8.99,2.04-18.17,3.42-27.59,1.5c14.99,7.26,30.63,12.34,47.03,15.77c-0.6,5.25-3.42,8.95-5.28,12.62
		c-3.12,1.58-5.76,0.84-8.3,0.22c-17.52-4.22-34.41-10.17-49.61-19.99c-9.79-6.32-18.37-14.18-25.37-23.61
		c-1.22-1.65-1.9-3.55-0.1-5.37c1.35-1.38,3-1.3,4.61-0.77c1.25,0.41,2.41,1.1,3.57,1.74c17.5,9.71,36.01,10.66,54.84,5.45
		c12.91-3.57,25.74-6.36,39.2-4.75C723.72,1518.62,725.34,1518.79,727.29,1521.09z"/>
	<path class="st0" d="M1059.3,1202.43c-7.74-11.39-7.45-18.52-0.4-29.29c3.83-5.85,6.36-12.4,8.82-18.95
		c4.09-10.89,8.29-21.75,12.6-32.56c1.49-3.74,3.57-7.26,7.38-9.14c8.04-3.97,19.88,1.3,23.01,9.94c0.78,2.16,0.27,3.94-0.55,5.72
		c-2.09,4.52-4.15,9.08-6.57,13.43c-8.23,14.84-17.44,29.04-28.5,41.98C1069.94,1189.59,1064.91,1195.72,1059.3,1202.43z"/>
	<path class="st0" d="M1190.58,455.84c-1.25,0-2.07,0.26-2.51-0.04c-9.29-6.38-18.69-12.61-27.73-19.33
		c-4.93-3.67-5.31-9.58-5.21-15.22c0.32-17.53,0.52-35.05-0.01-52.59c-0.16-5.21-0.44-11.36,4.26-15.39
		c2.51,0.21,3.01,1.96,3.76,3.34c15.41,28.41,20.71,59.94,27.93,90.87C1191.67,450.07,1191.85,452.72,1190.58,455.84z"/>
	<path class="st0" d="M1919.43,1240.95c11.29-4.71,21.04-8.79,30.79-12.84c5.56-2.31,10.35-0.52,14.71,2.98
		c3.1,2.48,6.01,5.2,9.1,7.68c8.36,6.69,10.74,17.3,5.67,26.65c-1.41,2.6-3.21,5.06-5.22,7.23c-7.29,7.91-12.96,8.78-21.68,2.55
		C1940.08,1266.1,1929.62,1254.7,1919.43,1240.95z"/>
	<path class="st0" d="M1992.17,978.54c-0.09,3.09-0.45,5.99-1.91,8.76c-1.55,2.93-2.83,6-4.2,9.02c-2.97,6.58-7.37,8.72-14.47,6.87
		c-12-3.12-21.36-9.07-24.03-22.32c-0.38-1.91-1.25-3.81-2.26-5.49c-2.97-4.92-2.35-9.41,0.97-13.89
		c2.99-4.02,6.14-7.81,10.07-10.99c8.13-6.59,16.9-4.48,22.78,0.86C1986.94,958.47,1991.13,967.91,1992.17,978.54z"/>
	<path class="st0" d="M1387.1,542.14c5.12,1.39,7.84,5.08,11.69,6.95c2.19,1.07,2.93,3.26,3.42,5.71
		c2.18,10.75,3.34,21.61,3.52,32.55c0.14,8.3-0.24,16.6-0.26,24.91c-0.02,7.29-1.65,14.32-2.57,21.24
		c-4.07,1.59-6.55-0.59-8.02-3.05c-4.63-7.76-10.93-14.15-16.51-21.12c-4.26-5.33-5.2-10.56-3.26-17.44
		c3.49-12.41,5.76-25.18,8.22-37.86C1384.08,550.07,1385.16,546.34,1387.1,542.14z"/>
	<path class="st0" d="M1054.9,930.82c-3.63-0.4-7.33-0.45-10.86-1.28c-5.34-1.25-7.66-4.55-7.83-10.05
		c-0.11-3.75,0.92-7.3,2.56-10.54c2.99-5.92,6.27-11.7,9.62-17.43c3.03-5.19,7.92-7.91,13.62-9.24c3.3-0.78,6.61-0.77,9.67,1.04
		c10.7,6.3,17.51,15.12,17.77,27.99c0.12,6.19-2.32,10.85-8.58,13.1C1072.42,927.42,1064.17,931.11,1054.9,930.82z"/>
	<path class="st0" d="M2039.04,530.09c8.68-0.81,17.28,2.89,25.84,6.51c2.4,1.02,4.59,2.7,6.65,4.35c4.83,3.87,6.53,8.3,4.58,14.86
		c-4.11,13.81-12.34,16.62-23.07,18.57c-4.44,0.8-8.54-1.07-12.13-3.62c-5.95-4.23-11.82-8.59-17.61-13.05
		c-2.77-2.13-4.2-5.08-3.9-8.7c0.16-1.98,0.17-3.99,0.46-5.95c1.46-9.8,5.45-13.24,15.25-13.23
		C2036.09,529.82,2037.08,529.95,2039.04,530.09z"/>
	<path class="st0" d="M813.15,424.14c-7.18,3.54-12.61,2.59-17.91,0.56c-9.27-3.56-18.56-6.94-28.36-8.88
		c-5.64-1.11-10.16-4.1-13.83-8.86c-6.65-8.63-15.1-15.81-20.39-25.59c-2.08-3.84-3.52-7.85-4.66-11.96
		c-0.91-3.26,1.84-5.81,5.23-5.35c3.06,0.41,5.54,2.19,7.99,3.8c5.27,3.44,10.48,7,15.45,10.86c9.93,7.73,20.09,15.02,31.93,19.62
		c0.31,0.12,0.65,0.24,0.88,0.45C797.8,406.26,805.57,414.22,813.15,424.14z"/>
	<path class="st0" d="M1126.39,920.36c-7.31,0.31-12.25-1.7-17.22-3.46c-5.57-1.97-8.29-6.24-9.04-11.96
		c-0.91-7.02,1.21-13.08,5.81-18.3c4.41-5,9.57-9.25,15.2-12.68c7.67-4.67,15.65-2.51,22.53,1.67c5.67,3.45,7.67,9.5,6.61,16.42
		c-0.9,5.93-2.44,11.59-4.67,17.15c-2.79,6.98-7.82,10.36-15.15,10.77C1128.48,920.08,1126.51,920.35,1126.39,920.36z"/>
	<path class="st0" d="M2074.27,704.47c-2.66,0-5.36,0.24-7.99-0.04c-10.77-1.17-20.91-3.5-27.6-13.42c-2.17-3.21-4.5-6.42-7.69-9.01
		c-3.8-3.09-4.16-8.24-4.99-12.73c-1.05-5.73,3.77-10.08,9.21-7.93c18.5,7.31,37.99,12.31,54.97,23.2c1.4,0.9,2.89,1.72,4.06,2.86
		c4.98,4.84,3.86,11.56-2.32,14.86c-2.41,1.29-5.01,1.86-7.67,1.99c-3.32,0.17-6.65,0.04-9.98,0.04
		C2074.27,704.35,2074.27,704.41,2074.27,704.47z"/>
	<path class="st0" d="M312.99,545.96c7.36-5.06,16.2-5.17,24.54-7c20.44-4.47,41.28-6.56,62.09-8.28
		c16.89-1.39,33.88-1.14,50.84-0.45c19.25,0.79,38.55,0.95,57.74,2.42c26.77,2.06,53.52,4.37,80.06,8.86
		c24.22,4.1,48.55,7.51,72.49,13.13c21.06,4.94,41.41,12.13,61.82,19.21c25.74,8.92,51.71,17.17,77.48,25.98
		c27.69,9.47,54.66,20.77,81.4,32.62c1.49,0.66,2.82,1.36,3.66,3.32c-3.91,0.99-6.63-1.52-9.52-2.68
		c-16.64-6.7-33.11-13.84-49.77-20.49c-27.18-10.85-55.28-19.03-83-28.33c-19.21-6.45-38.18-13.64-57.51-19.7
		c-23.8-7.46-48.26-12.29-72.89-16.1c-21.97-3.39-43.93-6.9-65.98-9.65c-13.49-1.68-27.15-1.92-40.71-3.01
		c-23.17-1.86-46.4-2.21-69.62-2.31c-24.12-0.11-48.2,0.41-72.2,3.9c-14.81,2.15-29.33,5.6-44.08,7.92
		C317.59,545.68,315.28,545.75,312.99,545.96z"/>
	<path class="st0" d="M1079.7,552.43c-1.64,1.09-3.27,2.18-5.6,3.74c-8.32-8.44-19.51-13.5-26.43-23.63
		c-2.44-3.56-5.18-6.92-7.91-10.28c-2.33-2.87-4.25-5.96-5.41-9.47c-4.64-13.92-7.1-28.27-8.15-42.87
		c-0.13-1.78-0.02-1.79,2.36-6.06c3.57,0.76,3.75,4.39,5.52,6.64c8.85,11.26,16.6,23.28,24.33,35.32c0.9,1.4,1.59,3.28,2.9,4
		c5.15,2.81,6.78,7.92,8.84,12.73c4.16,9.73,8.85,19.31,9.32,30.18L1079.7,552.43z"/>
	<path class="st0" d="M2301.88,1681.57c-8.99-4.3-17.6-8.42-26.84-12.83c3.09-6,8.02-9.23,13.13-12.17
		c12.58-7.24,26.26-10.99,40.61-12.67c15.55-1.82,31.1-3.14,46.76-1.53c5.28,0.54,10.56,1.03,15.82,1.66
		c1.34,0.16,2.47,0.95,3.3,2.94c-2.38,2.73-5.77,3.03-9.32,3.45c-8.89,1.04-17.83,1.39-26.69,2.95c-7.91,1.39-15.52,3.49-21.97,6.63
		c-4.81-0.27-3.86-6.1-7.99-6.14c-2.2,3.46,2.07,6.16,0.69,10.78C2320.5,1669.33,2309.06,1672,2301.88,1681.57z"/>
	<path class="st0" d="M1887.22,859.79c-7.73,0.47-14.02-2.81-20.33-5.56c-5.51-2.4-7.59-7.41-6.71-13.18
		c1.11-7.23,3.17-14.25,6.77-20.7c2.27-4.06,5.77-6.12,10.48-6.54c12.14-1.07,20.74,5.76,29.06,12.99c1.9,1.65,2.85,4.48,2.84,7.26
		c-0.01,4.63,0.02,9.18-1.16,13.81c-1.51,5.92-5.05,9.13-10.66,10.48C1894,859.2,1890.48,860.33,1887.22,859.79z"/>
	<path class="st0" d="M1618.53,929.95c7.59,2.72,12.73,6.36,17.69,10.08c11.69,8.77,22.29,18.79,32.26,29.48
		c1.79,1.92,3.28,4.19,4.58,6.48c3.46,6.09,3.13,7.38-2.11,12.65c-2.09,2.11-3.75,4.69-5.98,6.6c-6.72,5.75-13.64,5.05-18.62-2.24
		c-6.89-10.1-14.4-19.8-19.5-31.07C1622.45,952.21,1619.71,942.19,1618.53,929.95z"/>
	<path class="st0" d="M41.05,916.63c-3.2-12.38-5.36-22.71-6.95-33.16c-4.23-27.92-1.67-55.58,2.94-83.21
		c6.94-41.61,25.21-78.08,49.97-111.69c14.01-19.02,28.66-37.49,46.41-53.22c15.71-13.92,33.05-25.7,50.12-37.84
		c15.58-11.08,32.53-19.34,50.33-26.04c1.2-0.45,2.47-0.74,3.73-1.01c0.22-0.05,0.54,0.34,1.37,0.9
		c-7.34,3.69-14.36,7.32-21.46,10.77c-14.42,7.01-27.84,15.56-40.54,25.35c-9.75,7.51-19.95,14.43-29.66,21.98
		c-23.88,18.58-42.54,41.94-59.92,66.39c-11.58,16.29-21.79,33.45-30.06,51.67c-6.89,15.18-11.78,31.1-14.9,47.42
		c-4.94,25.83-8.13,51.87-6.24,78.3c0.79,10.98,2.68,21.76,4.78,32.52C41.55,908.68,42.19,911.55,41.05,916.63z"/>
	<path class="st0" d="M1466.05,685.29c-3.26,1.26-6.2,0.99-7.62-1.45c-2.7-4.64-7.15-7.86-9.5-12.77c-2-4.18-4.38-8.26-7.13-11.99
		c-3.42-4.64-4.72-9.87-3.48-15.1c2.4-10.12,0.91-20.34,1.77-30.47c0.76-8.9,1.23-17.83,1.83-26.69c1.9-0.65,2.41,0.84,2.82,1.86
		c6.95,17.27,13.76,34.59,20.75,51.84c2.17,5.36,2.87,10.87,2.82,16.56C1468.23,666.61,1468.1,676.14,1466.05,685.29z"/>
	<path class="st0" d="M1936.49,1516.13c7.99-0.44,14.91,1.74,21.7,4.43c3.09,1.23,6.04,2.88,8.1,5.6c2.26,3,5.36,4.79,8.44,6.78
		c8.44,5.47,13.17,16.82,11.18,25.69c-0.61,2.73-1.91,4.67-4.18,6.43c-3.77,2.92-7.97,4.34-12.48,5.57
		c-6.91,1.87-13.86,1.57-20.65,0.43c-9.79-1.64-14.59-9.51-16.58-17.9c-2.31-9.7-2.29-19.91,0.03-29.88
		C1932.68,1520.55,1934.21,1518.49,1936.49,1516.13z M1945.93,1531.24c-1.57,9.21-0.01,18.1-0.31,26.94
		c-0.07,2.04,0.66,4.3,2.69,4.97c2.62,0.87,3.31,4.34,6.38,4.33c2.73-7.07,11.48-1.65,15.19-7.61c1-6.73-0.87-12.62-6.81-17.13
		c-2.1-1.6-3.8-3.72-5.72-5.57C1954.2,1534.15,1950.53,1532.16,1945.93,1531.24z"/>
	<path class="st0" d="M2271.95,1774.18c4.45-2.58,8.69-3.05,12.94-1.83c5.1,1.47,9.57,0.39,14.3-1.69c4.74-2.08,9.54-4.4,14.9-4.59
		c2.64-0.09,5.48-0.67,7.89,0.08c9.81,3.03,19.51,3.15,29.33,0.27c1.7-0.5,3.27,0.09,4.16,1.17c2.25,2.39-0.23,4.53,0.48,6.91
		c1.2,4-1.51,6.92-4.85,8.79c-14.19,7.94-29.4,12.1-45.71,10.92c-9.76-0.71-18.77-4.2-26.64-10.09
		C2275.67,1781.8,2272.13,1779.47,2271.95,1774.18z"/>
	<path class="st0" d="M678.92,1629.92c-5.8,0.7-9.63-1.82-13.8-2.72c-5.17-1.12-10.17-2.9-15.42-3.89
		c-4.36-0.82-8.4-0.78-12.75,0.03c-18.5,3.44-35.57-1.19-51.76-9.97c-1.95-1.06-4.42-2.29-3.45-5.27c0.76-2.34,3.01-2.38,5-2.33
		c5.64,0.14,11.45-0.38,16.89,0.79c9.75,2.09,19.18,1.01,28.58-1.18c11.97-2.78,23.7-2.28,35.38,1.37
		c5.03,1.57,10.13,2.92,15.93,4.58C681.98,1617.63,680.49,1623.6,678.92,1629.92z"/>
	<path class="st0" d="M1598.03,996.03c2.02-0.57,3.58,0.01,4.88,1.07c11.36,9.2,23.63,17.24,34.48,27.1
		c3.47,3.16,6.55,6.59,9.35,10.31c5.88,7.81,0.96,22.62-8.39,25.4c-2.38,0.71-4.69,0.43-6.71-0.91c-2.48-1.65-5.06-3.3-7.12-5.41
		c-10.1-10.31-17.89-22.25-23.79-35.38C1597.54,1011.14,1596.36,1003.69,1598.03,996.03z"/>
	<path class="st0" d="M960.6,287.17c12.61,9.57,21,22.24,28.6,35.52c6.25,10.91,12.99,21.56,17.93,33.18
		c1.86,4.39,6.6,5.93,10.86,10.37c-16.03-4.07-30.4-7.73-45.26-11.51c-1.85-19.16-8.33-37.04-13.27-55.31
		C958.32,295.23,956.73,291.19,960.6,287.17z"/>
	<path class="st0" d="M1072.97,386.68c1.37-3.83,2.53-6.14,1.83-9.5c-2.43-11.67-4.22-23.47-5.93-35.27
		c-0.89-6.1-1.32-12.33,3.15-18.78c18.98,24.09,33.1,49.73,42.49,80.04C1099.83,397.34,1086.77,392.15,1072.97,386.68z"/>
	<path class="st0" d="M1213.21,1370.54c4.5-1.12,7.41,1.3,10.51,2.95c17.38,9.27,33.18,20.9,48.82,32.76
		c11.39,8.64,22.34,17.81,32.67,27.71c9.41,9.01,17.56,19.13,24.97,29.72c11.62,16.6,22.91,33.46,32.31,51.5
		c4.48,8.6,7.62,17.69,10.91,26.75c7.82,21.54,15.68,43.07,19.14,65.86c2.75,18.09,4.12,36.24,1.86,54.54
		c-0.65,5.26-0.46,10.63-0.61,15.95c-0.66,22.67-3.78,44.97-10.36,66.72c-1.14,3.76-2.85,7.35-4.41,11.3
		c-1.82-2.26-1.06-4.18-0.45-5.93c5.04-14.54,7.21-29.72,9.18-44.82c2.66-20.38,3.08-40.99,3.63-61.53c0.46-17-1.67-33.8-5.73-50.34
		c-6.82-27.83-15.29-55.22-28.79-80.47c-15.53-29.04-33.23-56.85-57.31-79.89c-12.03-11.5-25.09-21.77-38.51-31.59
		c-14.5-10.61-29.23-20.85-45.46-28.73C1214.8,1372.61,1214.28,1371.67,1213.21,1370.54z"/>
	<path class="st0" d="M911.15,459.69c-4,1.71-7.08,0.95-9.89-1.11c-7.59-5.57-16.39-8.78-24.86-12.57c-5-2.24-8.85-5.39-12.08-9.87
		c-9.18-12.69-17.68-25.71-23.1-40.53c-0.8-2.18-2.18-4.24,0.38-7.04c20.4,12.24,36.55,29.46,52.66,47.19
		c1.99-4.38-2.83-6.33-2.05-9.72C901.05,432.46,907.71,444.1,911.15,459.69z"/>
	<path class="st0" d="M649.47,1450.75c-2.82,8.48-8.3,13.58-15.94,18.14c-11.91,7.1-24.67,9.44-37.85,10.55
		c-5.12,0.43-10.59-0.82-15.62-2.28c-8.58-2.49-16.94-5.6-25.04-9.57c-10.98-5.37-22.41-9.81-33.62-14.7
		c-0.84-0.36-2.05-0.48-2.06-2.54c6.13-0.84,12.43-2.02,18.79-2.52c10.03-0.79,19.18,2.92,27.25,8.07
		c21.55,13.74,43.15,12.82,65.25,2.05c3.87-1.88,7.65-3.95,11.56-5.74C644.21,1451.28,646.02,1449.33,649.47,1450.75z"/>
	<path class="st0" d="M2298.93,1907.31c-1.3-2.35-0.66-3.57-0.31-4.83c0.34-1.23,0.57-2.49,0.82-3.64
		c-3.36-2.09-6.98,0.12-11.11-2.26c-6.29-9.98-11.99-21.53-17.76-33.46c5.93-3.99,12.43-4.84,18.99-5.38
		c2.36-0.19,4.46,0.38,6.43,2.04c10.1,8.49,20.62,7.72,31.27,1.05c2.25-1.41,4.28-3.2,6.95-3.74c3.44,0.94,3.9,3.47,3.11,6.24
		c-1.3,4.55-3.58,8.58-7.25,11.72c-5.07,4.33-10.3,8.5-16.23,11.53c-6.66,3.4-10.83,8.39-12.44,15.69
		C2301.07,1903.8,2300,1905.19,2298.93,1907.31z"/>
	<path class="st0" d="M756.37,1469.56c-1.72,4.95-4.53,8.61-6.92,12.1c-3.5,1.53-6.33,0.4-9.11-0.66
		c-15.25-5.81-30.04-12.33-43.19-22.39c-10.01-7.66-21.61-12.95-33.16-19.41c0.96-3.52,2.84-6.34,6.29-8.53
		c14.02,1.66,26.57,7.34,38.51,14.8c11.55,7.21,23.05,14.53,35.95,19.32C748.42,1466.15,752.67,1466.17,756.37,1469.56z"/>
	<path class="st0" d="M1308.08,1340.48c-6.59,14.37-16.41,22.12-31.5,23.06c-18.55,1.15-37.08,3.36-55.72,2.35
		c-3.44-0.19-6.51,0.92-9.69,1.91c-12.04,3.76-23.76,8.62-36.28,10.76c-6.21,1.06-12.39,2.48-18.64,3.05
		c-27.5,2.5-55.03,3.43-82.61,1.28c-6.63-0.52-13.31-0.89-19.94-0.7c-23.95,0.69-47.71-3.11-71.74-2.11
		c-12.35,0.51-24.92-1.94-37.47-1.89c-0.82,0-1.65-0.56-3.23-1.13c10.28-3.97,20.39-3.34,30.07-2.39c13.95,1.38,27.9,0.79,41.84,1.6
		c26.81,1.57,53.66,2.86,80.51,3.57c27.91,0.73,55.79-0.15,83.34-5.5c10.15-1.97,19.61-6.12,29.49-8.96
		c5.05-1.45,9.85-3.86,15.35-1.46c1.29,0.56,3.29-0.16,4.85-0.64c10-3.08,20.29-3.54,30.63-3.31c9.69,0.22,19.22-1.48,28.74-2.62
		c7.53-0.9,12.47-7.17,17.33-12.69C1304.75,1343.11,1304.9,1340.15,1308.08,1340.48z"/>
	<path class="st0" d="M1510.56,653.45c0.31,0.07,0.77,0.07,0.81,0.2c6.12,19.93,14.48,39.22,17.79,59.94
		c1.94,12.18,0.62,24.44-0.86,36.62c-0.06,0.49-0.88,0.88-1.71,1.66c-4.96-1.52-7.39-5.96-9.69-10.19
		c-3.02-5.54-5.86-11.17-9.48-16.36c-3-4.31-3.95-9.21-3.21-14.26c2.58-17.71,2.79-35.61,4.57-53.38
		C1508.94,656.08,1508.89,654.39,1510.56,653.45z"/>
	<path class="st0" d="M1254.03,2018.33c0.66-10.45,4.8-20.71,10.21-30.17c5.07-8.87,10.2-17.77,16.04-26.27
		c4.05-5.9,10.05-7.14,15.53-9.83c2.01-0.98,4.25,1.96,3.46,4.6c-2.07,6.98-4.24,13.94-6.54,20.84
		c-4.12,12.38-11.15,23.3-17.52,34.55c-2.62,4.62-5.56,9.06-8.35,13.57c-1.88,3.03-4.26,5.2-8.15,4.31
		c-3.06-0.69-4.41-3.05-4.66-7.84C1253.99,2021.1,1254.03,2020.1,1254.03,2018.33z"/>
	<path class="st0" d="M1034.95,1037.68c-5.84-1.63-13.33-0.8-20.21-3.53c-6.3-2.5-8.09-5.72-7.05-12.41
		c1.65-10.67,15.97-22.1,26.69-21.23c1.61,0.13,3.25,0.57,4.78,1.13c4.37,1.62,8.79,2.53,13.48,3.04
		c10.28,1.11,12.68,7.63,6.14,15.83c-3.3,4.14-6.8,8.13-10.24,12.15C1045.29,1036.47,1041.13,1038.1,1034.95,1037.68z"/>
	<path class="st0" d="M1941.07,1113.99c-8.46-6.82-16.87-13.26-26.07-18.57c-1.96-1.13-3.46-3.09-5.15-4.68
		c-3.82-3.6-4.69-7.84-2.77-12.71c5.44-13.84,6.34-15.16,21.08-12.6c2.61,0.45,5.27,0.74,7.84,1.36c8.95,2.16,12.54,5.76,13.2,15.04
		c0.67,9.46,0.6,19.04-3.87,27.88c-0.44,0.87-1.02,1.7-1.65,2.45C1943.27,1112.62,1942.63,1112.91,1941.07,1113.99z"/>
	<path class="st0" d="M930.88,1213.87c7.56-0.35,13.78,0.01,19.41,3.63c4.91,3.16,6.72,8.5,4.05,13.66
		c-2.67,5.15-6.61,9.14-12.05,11.41c-5.82,2.42-11.56,5.13-17.56,6.97c-8.01,2.45-15.75-0.22-23.32-2.67
		c-3.03-0.98-3.86-3.63-2.69-6.49c1-2.44,2.18-4.91,3.8-6.96c3.07-3.9,6.66-7.4,9.77-11.28
		C917.41,1215.74,923.43,1211.76,930.88,1213.87z"/>
	<path class="st0" d="M1236.63,575.69c12.01,9.87,23.42,18.73,32.81,29.95c7.68,9.18,13.89,19.36,20.54,29.26
		c2.67,3.97,2.18,8.08,1.85,12.39c-5.52,2.61-10.1,0.57-14.18-2.22c-11.82-8.09-22.81-16.75-28.31-31
		c-3.67-9.52-9.55-18.16-12.47-28.1C1236.01,583.08,1235.05,580.31,1236.63,575.69z"/>
	<path class="st0" d="M2048.9,590.99c7.13,1.86,14.33,3.12,21.03,6.26c2.79,1.3,5.21,2.89,7.34,5c3.83,3.8,4.1,8.55-0.44,10.79
		c-8.51,4.2-15.05,10.77-22.46,16.32c-5.55,4.15-11.99,3.9-17.72-0.16c-5.91-4.19-10.5-9.39-9.22-17.43
		c1.3-8.16,6.45-13.61,13.28-17.57C2043.26,592.71,2046.24,592,2048.9,590.99z"/>
	<path class="st0" d="M2236.32,1285.18c3.55-0.22,5.16-3.49,8.39-2.18c0.39,3.03-0.16,6.57-1.96,8.32c-4,3.88-3.28,8.4-3.4,12.95
		c-0.15,5.59-1.35,10.92-4.05,17.66c-2.67-6.29-3.72-11.26-3.21-16.38c1.08-10.73-3.39-19.26-10.05-27.04
		c-6.77-7.91-17.7-8.71-25.52-1.78c-8.4,7.43-12,20.25-4.64,30.43c1.81,2.5,3.96,4.51,6.69,5.8c1.12,0.53,2.69,0.86,3.81,0.51
		c4.34-1.37,6.11-5.15,6.75-9.11c0.59-3.64-0.33-7.19-4.27-8.41c-4.46,1.08-1.41,5.86-4.47,7.27c-5.2-4.77-5.89-7.18-3.3-11.42
		c2.35-3.86,6.23-4.63,11.36-2.52c4.82,1.99,7.27,5.43,7.59,10.64c0.38,6.17-0.45,11.86-4.78,16.72c-4.34,4.87-8.03,5.95-14.13,3.67
		c-6.94-2.59-11.74-7.38-14.25-14.31c-3.03-8.37-3.52-16.59,0.4-25.07c7.09-15.31,18.95-19.1,34.49-15.8
		c5.83,1.24,9.2,6.28,12.53,10.84C2232.43,1278.92,2234.29,1282.07,2236.32,1285.18z"/>
	<path class="st0" d="M1869.31,1171.81c-5.14,0.27-9.08-1.43-11.52-6.23c-2.39-4.71-1.59-9.15,1.33-13.08
		c2.77-3.72,6.1-7.03,9.23-10.47c3.8-4.18,7.57-8.4,11.52-12.44c4.03-4.11,5.76-4.07,11.45-1.79c5.84,2.34,10.11,5.76,12.63,11.85
		c2.05,4.94,1.74,9.56-1.15,13.23C1894.3,1163.65,1883.8,1171.42,1869.31,1171.81z"/>
	<path class="st0" d="M2400.57,517.46c1.94,4.66,3.46,7.92,2.89,12.25c-8.1,4.46-17.82,3.67-26.54,6.93
		c-1.57,3.57-0.79,6.99,0.3,10.57c2.27,7.49,6.38,13.77,11.54,19.55c8.53,9.57,18.69,16.81,30.4,21.73c-1.6,6-2,6.42-5.88,5.39
		c-10.87-2.89-20.05-9.15-28.12-16.46c-8.8-7.96-16.57-17.1-24.41-26.07c-5.19-5.94-5.59-7.86-6.93-16.39
		C2368.26,526.93,2384.35,523.03,2400.57,517.46z M2366.44,536.91c-2.94,2.26-2.94,2.26,0.2,6.01c0.38-0.92,0.85-1.7,1-2.54
		C2367.88,539.05,2367.6,537.8,2366.44,536.91z"/>
	<path class="st0" d="M936.46,424.24c12.41,12.55,24.95,23.33,37.83,33.69c11.02,8.86,17.08,20.86,22.37,33.45
		c0.68,1.61,1.12,3.24-0.18,4.63c-1.48,1.59-3.29,2.02-5.41,1.02c-2.08-0.98-4.55-1.38-6.33-2.72
		c-6.86-5.18-13.32-10.92-20.31-15.92c-6.44-4.62-10.82-10.73-14.25-17.58c-4.45-8.88-8.47-17.98-12.7-26.98
		C936.21,431.1,935.26,428.33,936.46,424.24z"/>
	<path class="st0" d="M1828.87,1462.85c7.15,1.52,12.31,5.18,16.21,11.7c3.74,6.25,7.58,12.34,10.64,19.01
		c2.8,6.09,3.17,12,1.54,18.28c-0.83,3.19-1.6,6.39-2.4,9.6c-0.91,0.51-1.79,1.42-2.63,1.39c-11.65-0.42-23.18-1.25-31.89-10.64
		c-1.92-2.07-2.74-4.25-2.99-7.07c-0.75-8.45,0.97-16.63,3.42-24.46c1.65-5.29,3.91-10.5,5.83-15.77
		C1826.89,1464.08,1828.02,1463.59,1828.87,1462.85z M1842.9,1512.94c2.2-11.36-1.84-24.67-10.65-35.29
		c-1.3,0.66-2.02,1.8-2.05,3.17c-0.08,4.68-0.97,9.2-1.86,13.78c-0.63,3.2-0.17,6.6-0.27,9.9c-0.09,3.42,1.76,5.6,4.53,7.15
		C1835.86,1513.48,1839.22,1514.64,1842.9,1512.94z"/>
	<path class="st0" d="M1506.3,842.44c-1.06,4.84,1.77,7.7,4.72,10.37c5.9,5.35,11.85,10.65,17.9,15.83c1.74,1.49,3.84,2.6,5.89,3.65
		c8.15,4.19,11.87,13.75,8.42,21.85c-1.48,3.47-5.48,5.62-10.18,4.05c-6.56-2.18-13.47-4.53-17.81-10.37
		c-5.94-7.99-11.79-16.09-15.84-25.32c-1.91-4.35-2.88-8.82-2.92-13.49c-0.02-2.39,0.97-4.62,2.77-6.2
		C1500.92,841.34,1503.02,841.85,1506.3,842.44z"/>
	<path class="st0" d="M2407.47,516.18c3.32-2.3,5.76-1.54,7.29,0.15c7.42,8.18,17.42,13.19,25.21,20.9
		c9.65,9.54,19.43,18.94,29.49,28.73c-12.03,15.5-29.16,21.58-45.42,28.62c-1.13-1.06-1.87-1.43-2.01-1.95
		c-0.34-1.25-0.39-2.58-0.61-4.33c5.89-3.57,12.06-6.73,16.43-12.38c2.53-3.27,4.4-6.62,5.07-10.64c1.03-6.16,0.52-11.7-4.79-16.2
		c-9.06-7.68-16.36-17.37-27.28-22.97C2407.22,524.24,2407.72,519.93,2407.47,516.18z M2450.02,562.62
		c-0.76,3.35-0.38,5.9,0.45,8.56c3.03-1.06,4.78-2.27,4.8-4.89C2454.3,564.28,2452.55,563.52,2450.02,562.62z"/>
	<path class="st0" d="M777.64,1430.77c-0.98,2.64-1.72,5.18-2.86,7.53c-0.99,2.05-2.42,3.88-3.48,5.52
		c-18.69-0.73-73.04-16.22-83.97-23.78c3.46-3.28,3.46-3.28,8.83-4.39c0.77-1.84-1.49-2.81-1.23-4.73c2.86-2.69,6.4-3.7,9.61-1.03
		c14.68,12.23,32.96,13.07,50.45,16.63C762.41,1428.02,770.25,1427.46,777.64,1430.77z"/>
	<path class="st0" d="M1419.68,767.27c-7.58,4.51-18.38,4.61-23.53-0.61c-10.83-10.98-17.84-23.85-16.12-40
		c0.28-2.6,0.99-5.23,1.95-7.67c1.39-3.54,5.6-4.21,7.93-1.16c6.83,8.92,13.57,17.92,20.13,27.03
		C1414.75,751.41,1416.51,759.29,1419.68,767.27z"/>
	<path class="st0" d="M2258.35,1613.34c6.8,5.51,15.94,6.36,23.43,11.57c-10.49,10.83-23.89,18.74-28.62,34.05
		c-2.64-0.54-4.62-0.71-6.44-1.35c-6.2-2.18-12.33-4.53-19.11-7.04c5.46-12.64,13.24-22.6,23.52-30.76
		c2.55-2.03,5.83-3.27,7.43-6.41L2258.35,1613.34z"/>
	<path class="st0" d="M651.76,399.76c-6.86,4.23-13.82,3.04-20.49,2.24c-6.54-0.78-12.98-2.51-19.42-4.01
		c-4.32-1-7.75-3.77-11.03-6.55c-7.59-6.43-15.01-13.04-22.52-19.57c-2.52-2.19-4.79-4.53-5.6-8.19c2.21-2.45,4.76-1.87,7.07-0.56
		c6.37,3.63,13.3,5.95,19.99,8.83c6.7,2.89,13.44,5.61,20.49,7.61c10.04,2.85,18.66,8.49,26.93,14.63
		C648.94,395.52,650.08,397.68,651.76,399.76z"/>
	<path class="st0" d="M1329.59,652.36c-0.09-2.03-0.04-4.01,2.17-5.1c2.24-1.1,3.94,0.16,5.38,1.44c1.71,1.53,3.3,3.31,4.56,5.23
		c4.35,6.68,8.66,13.38,12.73,20.23c3.56,5.99,6.81,12.17,10.11,18.31c2.22,4.14,3.85,8.47,3.57,13.31
		c-0.26,4.62-3.09,7.29-7.03,5.67c-6.37-2.62-12.83-5.01-16.52-11.95c-7.41-13.95-12.28-28.66-14.94-44.16
		C1329.44,654.38,1329.59,653.36,1329.59,652.36z"/>
	<path class="st0" d="M2077.53,732.98c6.13-3.33,12.6-4.7,18.91-6.35c3.15-0.82,6.62-0.29,9.67,1.49
		c12.85,7.5,24.36,16.29,30.12,30.76c1.74,4.38,1.84,4.34-1.27,10.63c-16.38-6.47-30.96-16.23-45.61-25.79
		C2085.05,740.91,2079.99,738.58,2077.53,732.98z"/>
	<path class="st0" d="M1212.37,592.82c2.23,5.8,4.28,10.37,2.52,15.58c-2.41,2.49-5.24,2.34-8.17,1.01
		c-4.58-2.08-9.39-3.06-14.36-3.81c-7.92-1.19-14.37-4.79-17.96-12.51c-2.24-4.81-4.91-9.41-7.31-14.15
		c-2.37-4.7-1.82-9.72-1.19-14.66c0.27-2.1,1.8-3.44,4.09-3.71c2.32-0.27,2.61,0.94,2.23,2.8c-0.04,0.2,0.34,0.57,0.61,0.72
		c11.97,6.87,20.61,17.6,30.7,26.64C1206.11,593.04,1208.37,595,1212.37,592.82z"/>
	<path class="st0" d="M554.27,1503.23c-7.59,0.91-14.51-1.14-20.96-4.5c-14.52-7.58-27.1-17.96-39.52-28.49
		c-1.96-1.66-3.25-4.13-4.78-6.12c0.64-5.52,2.12-10.45,4.37-15.94c5.19,3.02,8.38,7.35,12.17,10.88
		c11.73,10.91,25.31,19.35,38.03,28.94C549.39,1492.38,552.31,1496.44,554.27,1503.23z"/>
	<path class="st0" d="M1916,1308.29c-6.36-0.57-12.49-1.84-16.72-7.27c-3.62-4.63-5.76-9.92-3.43-15.63
		c2.07-5.07,2.96-10.89,8.22-14.32c4.63-3.02,9.55-3.49,13.65-0.04c6.12,5.15,11.11,11.38,14.8,18.46
		c3.12,5.98,1.93,9.73-4.12,13.13C1924.46,1304.84,1921.22,1308.8,1916,1308.29z"/>
	<path class="st0" d="M678.31,1583.2c-23.5,6.36-43.69-1.19-63.08-12.27c-4.87-2.78-9.27-6.42-13.66-9.95
		c-2.04-1.64-3.78-3.84-2.29-6.91c1.56-3.22,4.3-4.42,8.38-3.15c2.52,0.78,5.04,1.79,7.29,3.13c12.62,7.53,25.97,13.14,40.32,16.43
		c5.81,1.33,11.59,2.93,16.85,5.89C674.65,1577.81,677.5,1578.98,678.31,1583.2z"/>
	<path class="st0" d="M1501.89,1520.41c-5.44,4.51-10.26,3.81-15.01,1.63c-5.05-2.32-9.96-4.96-14.77-7.38
		c-1.93,2.14-0.7,6.27-5.75,5.11c-7.14-14.93-12.28-31.37-20.86-45.79c1.46-2.23,2.75-1.59,3.77-0.84
		c13.64,10.02,28.46,18.5,40.25,30.94C1494.14,1508.94,1497.58,1514.57,1501.89,1520.41z"/>
	<path class="st0" d="M1683.27,866.36c-2.46,3.57-4.84,5.84-7.6,7.72c-2.95,2.01-5.92,3.99-8.72,5.87
		c-7.16-5.95-8.13-13.49-6.66-21.14c1.26-6.58,0.79-13.37,3.64-19.85c2.76-6.28,3.84-13.29,5.77-19.96c0.35-1.22,0.99-2.5,1.87-3.39
		c1.32-1.32,3-1.22,4.44,0c1.35,1.14,1.58,2.81,1.97,4.43c2.78,11.63,3.85,23.46,4.06,35.38
		C1682.11,859.06,1682.19,862.67,1683.27,866.36z"/>
	<path class="st0" d="M901.75,331.61c-0.93,2.41-4.51,2.56-3.44,6.13c-10.21-1.82-20.37-2.47-30.23-5.31
		c-0.8-2.92,1.93-4.28,1.88-6.53c-0.05-2.41-1.1-4.45-1.73-6.66c-3.09-10.85-8.06-20.95-12.31-31.33
		c-1.35-3.28-3.14-6.42-1.43-10.63C872.06,294.06,886.79,312.64,901.75,331.61z"/>
	<path class="st0" d="M2337.88,1625.51c5-9,13.44-12.06,20.71-16.39c3.37-2.01,7.03-3.69,10.43-5.77
		c8.69-5.32,18.48-7.28,28.33-8.93c3.56-0.6,6.41,0.42,8.52,3.69c2.14,3.33,4.73,6.38,7.53,10.08c-3.53,2.14-7.14,2.04-10.58,2.13
		c-11.15,0.29-21.67,3.14-31.7,7.79c-6.36,2.94-13,5.06-19.65,7.14C2347.29,1626.56,2342.98,1626.94,2337.88,1625.51z"/>
	<path class="st0" d="M489.75,395.68c-4.73-5.53-11.9-6.67-19.8-11.3c16.23,2.83,28.84,8.42,40.53,16.33
		c0.4,3.01-1.71,4.24-3.77,5.13c-3.99,1.73-8.33,1.92-12.62,2.4c-19.96,2.2-36.19-5.58-50.33-18.82c-3.87-3.62-3.76-4.73-0.59-10.02
		C458.59,384.92,473.32,392.46,489.75,395.68z"/>
	<path class="st0" d="M1746.38,930.74c2.14-0.79,3.99-1.47,6.03-2.22c0.66,0.51,1.48,1.02,2.15,1.68c8.03,8,13.94,17.56,19.53,27.29
		c4.3,7.47,2.01,16.56-4.79,20.92c-5.13,3.29-9.38,2.56-12.92-2.23c-0.39-0.53-0.83-1.06-1.06-1.67
		C1751.23,963.85,1743.47,948.11,1746.38,930.74z"/>
	<path class="st0" d="M1710.52,987.05c3.85-2.07,7.27-2.01,10.1-0.09c8.23,5.55,16.55,11.03,22.29,19.52
		c5.65,8.36,2.22,19.46-7.26,22.79c-2.8,0.98-5.29,0.28-7.44-1.51c-3.07-2.55-6.01-5.26-7.91-8.87c-2.93-5.58-5.75-11.22-8.77-16.76
		C1708.95,997.37,1710,992.47,1710.52,987.05z"/>
	<path class="st0" d="M1441.47,779.18c-2.15,0.83-3.32,1.28-5.2,2.01c6.82,8.64,13.45,16.83,19.83,25.21
		c6.33,8.31,11.48,17.48,19.24,25.65c-8.93,4.51-16.23,1.16-21.55-3.84c-10.4-9.77-18.7-21.4-24.51-34.65
		c-2.42-5.51-2.16-10.84-0.44-16.5C1433.3,775.35,1437.26,774.9,1441.47,779.18z"/>
	<path class="st0" d="M1146.09,968.19c-9.49-0.27-16.9-8.12-16.51-17.48c0.39-9.16,8.69-16.7,17.86-16.22
		c10.57,0.56,18.44,7.52,17.98,15.91C1164.93,959.61,1155.33,968.45,1146.09,968.19z"/>
	<path class="st0" d="M2028.2,1484.34c-2.39-0.23-4.71-0.37-7-0.7c-5.1-0.74-8.28-3.69-9.91-8.56c-2.05-6.11-2.36-12.38-1.57-18.65
		c0.77-6.11,6.87-9.47,12.61-7.12c1.79,0.73,3.77,1.73,4.92,3.19c4.91,6.25,9.9,12.48,14.18,19.16c4.26,6.66,1.58,11.25-6.37,12.06
		C2032.75,1483.96,2030.43,1484.14,2028.2,1484.34z M2028.04,1476.84c-1.36-3.41-2.01-6.12-5.88-7.19
		C2023.2,1472.98,2022.81,1476.24,2028.04,1476.84z"/>
	<path class="st0" d="M254.94,474.49c-1.55,5.71-6.72,6.84-8.07,11.24c-1.21,3.95-6.1,4.8-8.86,8.24
		c-12.86-3.95-25.15-9.73-37.67-14.93c-2.52-1.05-4.47-2.92-4.14-6.7c3.2-3.47,7.05-4.65,12.13-2.79c4.92,1.8,10.09,2.95,14.95,4.32
		c1.23-1.39-0.21-1.85-0.01-3.28C233.8,468.59,243.55,474.56,254.94,474.49z"/>
	<path class="st0" d="M1909.28,1189.77c2.65-0.21,5.44,0.47,8.15,1.96c3.15,1.73,5.35,4.43,5.65,7.7
		c0.64,7.02-2.47,12.81-7.65,17.42c-5.01,4.46-10.85,4.52-16.73,2.32c-5.05-1.89-7.4-6.06-7.27-11.71
		C1891.64,1197.27,1898.96,1189.85,1909.28,1189.77z"/>
	<path class="st0" d="M1598.64,1073.21c6.66-2.39,11.42,0.74,15.64,3.63c7.38,5.05,14.17,10.96,21.22,16.5
		c3.75,2.94,5.11,6.79,4.53,11.44c-0.67,5.36-5.57,8.07-10.04,5.05c-4.66-3.14-8.91-6.9-13.22-10.54
		c-6.37-5.39-11.87-11.57-16.76-18.35C1598.27,1078.52,1597.91,1076.24,1598.64,1073.21z"/>
	<path class="st0" d="M2172.74,605.91c-5.42-2.76-12.12-3.08-18.57-4.46c-1.87-0.4-3.66-1.62-5.24-2.81
		c-3.38-2.54-5.59-5.89-4.75-10.31c0.79-4.16,3.19-7.03,7.41-8.58c7.57-2.78,14.36-2.42,20.06,3.88c3.12,3.45,6.34,6.84,9.14,10.53
		c1.93,2.54,1.76,5.77,0.34,8.51C2179.59,605.65,2176.69,606.43,2172.74,605.91z"/>
	<path class="st0" d="M2243.05,1247.59c-1.02-3.46-4.61-2.54-5.41-5.08c-0.06-1.71,0.19-3.39,1.39-4.65
		c2.38-2.49,5.79-2.32,7.7,0.28c4.03,5.47,1.89,18.88-3.64,22.79c-3.53,2.49-9.17,1.81-12.74-1.7c-7.76-7.65-8.94-18.02-5.32-27.67
		c1.46-3.89,3.53-7.77,6.95-10.78c2.9-2.55,6.08-4.07,9.7-4.66c6.05-0.99,9.02,1.21,10.64,7.3c0.51,1.9,1.55,3.75-0.06,5.64
		c-2.46,0.35-4.24-1.51-6.43-2.05c-6.34-1.56-11.57,1.37-15.02,8.47c-2.7,5.58-1.13,12.64,3.59,16.16
		C2237.81,1254.16,2239.99,1253.14,2243.05,1247.59z"/>
	<path class="st0" d="M1925.92,996.78c3.45,0.74,6.33,1.23,8.98,2.72c6.66,3.73,10.04,12.75,7.04,19.47
		c-0.5,1.13-1.41,2.33-2.45,2.91c-5.9,3.31-12.35,4.86-19.06,4.28c-7.46-0.65-10.98-7.03-7.49-13.67
		C1916.03,1006.62,1920.36,1001.58,1925.92,996.78z"/>
	<path class="st0" d="M365.61,431.91c0.81,2.61,0.6,4.56,0.02,6.49c-0.53,0.41-1.05,1.16-1.56,1.16
		c-5.45-0.06-10.55,1.36-15.31,3.84c-2.32,1.21-4.47,1.22-6.65,0.12c-10.1-5.09-20.18-10.23-30.25-15.38
		c-1.27-0.65-1.81-1.86-2.04-3.89c2.08-2.9,5.17-4.4,9.07-3.35c8.94,2.4,18.06,4.18,26.73,7.58c3.02,1.19,5.92,2.73,9.48,0.69
		C357.46,427.83,357.78,428.28,365.61,431.91z"/>
	<path class="st0" d="M1988.36,1292.26c5.79,0.24,10.45,1.95,14.54,4.88c4.17,2.99,5.51,7.32,4.39,12.31
		c-1.05,4.67-4.61,7.7-10.04,8.19c-6.13,0.56-11.89-1.2-17.08-4.25c-6.45-3.79-7.22-10.07-2.34-15.85
		C1980.74,1294.1,1984.24,1291.79,1988.36,1292.26z"/>
	<path class="st0" d="M634.86,1490.35c1.57-7.85,7.66-5,11.58-6.56c0.46-3.42-3.81-3.38-4.33-6.58c0.31-2.65,1.64-5.11,5.01-6.59
		c6.61,4.01,12.95,8.86,20.28,12.03c2.43,1.05,4.69,2.49,7.15,3.45c2.95,1.15,5.99,2.52,5.16,6.15c-0.83,3.63-4.42,3.41-7.4,3.45
		c-4.32,0.06-8.71,0.5-12.96-0.09C651.26,1494.49,642.97,1494,634.86,1490.35z"/>
	<path class="st0" d="M1157.19,853.65c-6.21-0.07-10.42-6.17-7.89-11.88c1.46-3.3,3.5-6.46,5.8-9.25c2.66-3.24,6.02-5.36,10.42-2.57
		c2.08,1.31,4.36,1.02,6.71,0.76c2.82-0.32,5.22,1.13,7.04,3.12c1.87,2.05,2.62,4.37,1.26,7.3c-1.93,4.16-4.96,6.96-8.92,9.04
		C1167.06,852.57,1161.85,852.05,1157.19,853.65z"/>
	<path class="st0" d="M1795.77,941.87c-9.03-12.26-15.2-32.57-13.05-42.56c2.27-1.34,3.65,0.28,5.2,1.51
		c6.89,5.45,11.7,12.53,15.91,20.1c2.49,4.49,1.8,8.96-0.1,13.39C1802.15,937.99,1800.45,941.59,1795.77,941.87z"/>
	<path class="st0" d="M949.64,1015.51c-2.98,0-6.08,0.53-8.92-0.11c-6.7-1.5-8.55-8.08-3.59-12.82c2.59-2.48,5.92-4.19,8.96-6.17
		c0.52-0.34,1.27-0.35,1.92-0.43c1.99-0.24,16.84,5.71,18.13,7.24c2.52,2.99,1.57,8.42-1.94,10.37
		C959.64,1016.12,954.63,1015.91,949.64,1015.51z"/>
	<path class="st0" d="M918.69,1164.39c-6.49,0.06-11.71-3.97-12.34-8.9c-0.67-5.23,4.63-11.99,10.33-12.89
		c4.74-0.75,9.28,0.14,13.49,2.47c6.64,3.67,7.08,10.85,0.86,15.28C927.14,1163.14,922.62,1164.19,918.69,1164.39z"/>
	<path class="st0" d="M1403.1,1314.85c0.82-11.43,4.38-22.02,8.62-32.4c6.83-16.71,17.24-31.22,27.65-45.82
		c9.09-12.74,18.93-24.71,30.41-35.31c1.91-1.76,3.54-4.01,6.26-4.74c0.21-0.06,0.52,0.31,1.29,0.79
		c-10.98,10.94-21.85,21.84-30.42,34.74c-8.8,13.25-18.41,25.95-26.05,39.98C1413.43,1285.75,1410.56,1301.21,1403.1,1314.85z"/>
	<path class="st0" d="M489.01,1646.87c11.07-2.07,37.53,4.77,52.06,13.36c0.37,3.3-2.16,3.71-4.38,3.94
		c-8.7,0.92-17.26,0.07-25.37-3.29c-6.41-2.65-12.65-5.74-18.91-8.75C490.65,1651.29,488.92,1650.15,489.01,1646.87z"/>
	<path class="st0" d="M118.03,532.74c0.59-2.24,2.44-3.15,4.35-3.59c5.78-1.35,26.61-0.65,32.31,0.91c1.55,1.36,1.3,3.21,0.38,4.44
		c-2.74,3.68-5.68,7.24-8.8,10.62c-1.83,1.99-4.36,3.41-7.13,2.22c-6.35-2.74-12.75-5.47-18.37-9.61
		C119.18,536.54,117.96,534.95,118.03,532.74z M125.92,529.6c-0.2,0.67-0.4,1.34-0.6,2.02c3.69,0.54,7.37,1.07,13.27,1.93
		C133.41,529.06,129.44,530.51,125.92,529.6z"/>
	<path class="st0" d="M625.16,415.44c-14.1,0.76-28.1-2.16-42.32-0.7c-14.06,1.45-28.32,0.89-42.48,1.48
		c-13.91,0.58-27.7,2.43-41.49,4.24c-14.02,1.84-28.04,3.59-42.1,5.06C484.97,415.59,581.15,407.79,625.16,415.44z"/>
	<path class="st0" d="M284.12,725.12c-7.49,0.3-15.36,1.51-23.38,1.03c-13.32-0.81-26.32-3.5-39.13-6.76
		c-24.46-6.23-48.36-14.3-71.48-24.51c-4.78-2.11-9.77-4.04-13.33-8.7c15.97,6.05,31.87,12.28,47.93,18.09
		c15.91,5.75,32.21,10.23,48.6,14.4C250.16,722.96,267.23,724.67,284.12,725.12z"/>
	<path class="st0" d="M953.76,494.22c-0.99-0.01-2.09,0.26-2.96-0.07c-41.32-15.59-83.77-27.49-126.45-38.66
		c-5.35-1.4-10.71-2.79-16.61-4.33c2.9-0.91,5.12-0.44,7.41-0.06c21.61,3.6,42.61,9.64,63.7,15.44
		c22.43,6.16,44.01,14.72,65.83,22.61c3.11,1.12,7.25,1.36,8.9,5.29C953.57,494.43,953.76,494.22,953.76,494.22z"/>
	<path class="st0" d="M1622.36,1140.26c1.92,0,3.08-0.36,3.78,0.06c6.82,4.05,13.78,7.91,20.27,12.46
		c6.53,4.58,9.09,11.04,6.76,19.03C1642.49,1170.91,1626.18,1154.43,1622.36,1140.26z"/>
	<path class="st0" d="M1914.21,948.33c-6.06-0.32-11.59-2.73-17.23-4.57c-3.37-1.1-3.71-4.37-3.51-7.49
		c0.25-3.94,2.23-6.65,5.37-7.52c6.08-1.68,19.02,3.24,22.22,8.57c1.48,2.47,1.28,5.12-0.15,7.56
		C1919.44,947.38,1917.1,948.45,1914.21,948.33z"/>
	<path class="st0" d="M482.06,1212.38c0.3-3.14,3.12-4.17,5.13-5.61c29.04-20.83,50.24-48.21,66.71-79.56
		c1.99-3.79,4.04-7.55,6.09-11.32c0.14-0.26,0.52-0.4,0.81-0.61c1.39,1.99,0.27,3.71-0.55,5.48c-12.56,27.15-28.8,51.78-50.85,72.17
		c-8.23,7.61-16.7,15.25-27.63,19.14L482.06,1212.38z"/>
	<path class="st0" d="M265.18,924.61c-41.06,27.07-86.14,42.6-135.01,47.02c23.59-5.07,47.3-9.87,70.19-17.93
		C222.78,945.82,243.83,934.84,265.18,924.61z"/>
	<path class="st0" d="M1738.17,1095.76c-8.82-6.18-15.21-13.77-20.93-21.94c-1.93-2.76-2.91-6.02,0.33-9.01
		c4.79-0.39,8.18,2.49,11.39,5.23c3.78,3.22,7,7.09,10.71,10.4c2.63,2.35,2.01,5.42,2.66,8.25
		C1743.09,1092,1740.54,1093.33,1738.17,1095.76z"/>
	<path class="st0" d="M1039.28,1218.33c-11.46,10.56-20.75,22.1-33.87,31.37c-0.62-4.45-0.13-7.47,1.7-10.2
		c5.53-8.26,11.77-15.98,18.95-22.83C1030.18,1212.74,1032,1213.14,1039.28,1218.33z"/>
	<path class="st0" d="M1808.5,1318.12c-3.16,0.18-7.17,0.24-9.49-4.03c-1.98-3.64-1.15-10.58,1.67-14.1
		c2.17-2.7,5.55-3.68,8.78-2.31c1.81,0.77,3.55,1.77,5.18,2.86c4.96,3.33,6.5,7.02,5.02,11.68
		C1818.4,1316.21,1815.22,1318.03,1808.5,1318.12z"/>
	<path class="st0" d="M1813.25,1167.28c-6.46,8.24-10.78,9.84-17.96,7.21c-3.02-1.11-5.51-2.71-5.58-6.16
		c-0.08-3.98-0.03-7.96,4.43-10.24c3.84-1.96,7.45-1.85,11.49-0.69C1810.56,1158.82,1812.29,1162.35,1813.25,1167.28z"/>
	<path class="st0" d="M2185.69,777.82c-4.79,0.98-9,0.69-13.24,0.36c-3.62-0.28-6.09-2.36-8.05-5.08
		c-3.35-4.65-2.56-9.42,1.95-12.94c3.94-3.07,8.76-2.9,12.24,1.09C2182.43,765.67,2186.35,770.25,2185.69,777.82z"/>
	<path class="st0" d="M1104.15,578.67c-1.01,2.12-1.22,3.93,1.09,4.96c6.31,2.83,12.14,6.81,19.17,7.94
		c1.34,0.21,2.41,1.03,2.86,2.43c-5.68,9.43-12.77,11.15-20.96,4.88c-5.39-4.12-7.35-10.16-7.93-16.57
		C1098.13,579.5,1100.42,578.41,1104.15,578.67z"/>
	<path class="st0" d="M2135.52,720.45c-4.36,0.32-8.4-0.58-11.32-4.51c-1.95-2.63-2.64-5.21-0.97-8.29
		c1.68-3.11,3.47-5.13,7.64-4.84c4.81,0.34,9.04,1.49,12.75,4.53c2.76,2.26,4.38,6.13,3.22,8.71c-1.33,2.96-3.92,4.33-7.16,4.39
		C2138.36,720.47,2137.03,720.45,2135.52,720.45z"/>
	<path class="st0" d="M1849.09,984.61c-2.26-0.39-4.61-0.51-6.76-1.22c-5.93-1.96-8.14-6.29-6.55-12.34
		c1.78-6.76,6.85-8.8,12.67-4.85c2.42,1.64,4.58,3.75,6.56,5.92c2.1,2.31,3.07,5.01,1.3,8.11
		C1854.7,983.08,1852.5,984.71,1849.09,984.61z"/>
	<path class="st0" d="M592.65,880.05c-10.82-3.37-21.22-5.1-31.39-9.85c18.57-6,26.39-5.88,37.49,0.59
		C596.37,873.69,592.51,875.46,592.65,880.05z"/>
	<path class="st0" d="M535.08,1577.96c1.72-0.72,2.73-1.57,3.41-1.36c11.7,3.68,23.12,8.07,33.64,14.01
		c0.66,3.79-0.71,5.54-4.06,5.68c-0.99,0.04-2.01,0.01-2.99-0.15C556.54,1594.73,541.25,1585.66,535.08,1577.96z"/>
	<path class="st0" d="M705.13,906.38c-3.32,5.34-10.71,4.44-12.42,11.08c-7.99-3.5-14.94-6.44-21.77-9.63
		c-1.64-0.76-3.87-1.02-4.58-3.23C679.42,901.45,692.27,901.87,705.13,906.38z"/>
	<path class="st0" d="M1638.33,1198.62c7.08-2.26,12.07,2.37,17,5.68c4.06,2.72,7.27,7.23,5.91,12.57c-0.9,3.53,3.74,3.62,2.84,6.51
		C1654.88,1221.28,1642.25,1209.22,1638.33,1198.62z"/>
	<path class="st0" d="M1011.19,924.42c-7.13-0.04-10.46-5.7-7.4-11c1.9-3.31,4.59-5.59,8.7-5.58c2.31,0.01,4.64,0.18,6.93-0.06
		c6.03-0.62,7.37,5.11,4.84,8.6C1020.83,921.11,1015.94,923.64,1011.19,924.42z"/>
	<path class="st0" d="M2033.84,1059.02c-9.18-26.04-15.76-52.87-24-79.19C2017.58,990.69,2033.15,1041.99,2033.84,1059.02z"/>
	<path class="st0" d="M426.05,805.26c-5.45-4.89-11.09-8.81-16.36-15.44c9.5-0.13,17.67-0.78,25.57,2.69
		c2.12,0.93,2.78,2.58,2.87,4.68c0.1,2.41-1.48,3.53-3.41,4.22c-1.54,0.55-3.23,0.67-4.75,1.27
		C428.82,803.13,427.85,804.04,426.05,805.26z"/>
	<path class="st0" d="M2364.6,920.98c-10.24,1.62-15.85,9.4-25.77,9.04c2.66-9.08,10.75-13.8,13.37-22.18
		C2358.13,910.45,2359.27,916.13,2364.6,920.98z"/>
	<path class="st0" d="M96.32,587.71c-2.25,5.24-1.75,10.53-6.52,14.19c-5.63-0.06-9.88-3.79-14.24-7.14
		c-1.68-1.29-2.2-3.42-1.48-5.37c0.7-1.89,2.52-3.95,4.4-3.2c4.46,1.77,8.64,1.06,13.02,0.12
		C92.59,586.07,93.94,586.98,96.32,587.71z"/>
	<path class="st0" d="M2184.34,736.31c-2.81-0.3-6.48,0.56-8.26-3.32c-2.03-4.4,0.54-9.84,5.33-10.85c1.88-0.4,3.99-0.28,5.9,0.09
		c4.5,0.85,8.47,5.37,8.04,8.8c-0.36,2.83-3.67,4.87-8.64,5.28C2186.06,736.36,2185.39,736.31,2184.34,736.31z"/>
	<path class="st0" d="M2416.71,570.18c-8.3-0.46-12.8-3.45-14.67-9.14c-2.07-6.3-2.47-12.78,4.06-18.36
		C2409.7,551.8,2409.23,561.64,2416.71,570.18z"/>
	<path class="st0" d="M1697.44,924.02c5.57,4.61,7.2,11.15,10.34,15.91c-0.4,3.8-3.62,3.5-4.99,5.26c-1.21,1.55-2.19,3.42-5.46,2.43
		c-3.29-5.5-0.64-12.44-2.55-18.59C1694.26,927.4,1695.17,925.83,1697.44,924.02z"/>
	<path class="st0" d="M478.25,838.36c11.8,2.48,22.63,0.85,33.21,1.71c0.68,2.64-0.65,3.33-2.35,3.86c-1.56,0.49-3.16,0.98-4.6,1.73
		c-7.36,3.86-7.45,4.11-12.55,1.59C487.47,845.03,482.23,843.82,478.25,838.36z"/>
	<path class="st0" d="M2071.12,647.35c0.24,3.15-3.36,6.75-7.09,7.06c-5.13,0.43-9.93-3.05-10.16-7.35
		c-0.2-3.94,2.36-6.57,6.78-6.96C2065.46,639.68,2070.82,643.4,2071.12,647.35z"/>
	<path class="st0" d="M2412.96,537.54c8.62-0.27,13.93,3.27,16.17,9.84c2.37,6.96-0.5,14.71-7.56,20.39
		C2427.74,549.35,2422.97,545.25,2412.96,537.54z"/>
	<path class="st0" d="M55.48,639.06c-0.32,8.89-2.75,13.29-7.43,14.4c-5.35,1.26-7.23-3.39-10.06-6.23
		C40.43,636.26,49.72,643.92,55.48,639.06z"/>
	<path class="st0" d="M1401.87,1016.03c-3.65,0.26-6.29-2.02-8.79-4c-13.74-10.87-27.99-21-42.87-30.32
		c1.39-2.49,2.84-1.43,4.09-0.65c4.77,2.98,9.65,5.82,14.21,9.11c10.46,7.54,20.75,15.31,31.1,23c1.03,0.76,2.25,1.44,2.09,3.04
		L1401.87,1016.03z"/>
	<path class="st0" d="M876.2,1092.08c4.21,0.03,7.87,3.38,7.79,7.13c-0.08,4.24-3.08,7.04-7.68,7.17c-4.36,0.12-6.83-2.15-6.94-6.37
		C869.26,1095.47,872.2,1092.05,876.2,1092.08z"/>
	<path class="st0" d="M1200.78,946.75c23.57-0.74,46.28,4.7,70.34,9.91c-2.65,0.32-0.65-0.43-1.24,0.76
		c-0.13,0.25-0.58,0.55-0.81,0.5C1246.47,953.25,1223.75,949.41,1200.78,946.75z"/>
	<path class="st0" d="M1234.09,566.96c14.68-4.18,29.12-1.76,44.17-2.56c-2.94,2.68-5.45,4.08-8.55,4.07
		c-11.23-0.05-22.45-0.13-33.68-0.25C1235.58,568.21,1235.13,567.65,1234.09,566.96z"/>
	<path class="st0" d="M1479.24,1388.29c-1.43,16.29-6.22,32.28-5.14,50.15C1469,1429.54,1471.29,1407.9,1479.24,1388.29z"/>
	<path class="st0" d="M1918.9,894.18c1.24,2.2,0.49,4.59,0.12,6.7c-0.67,3.75-7.21,6.06-10.5,4.03c-1.86-1.15-2.54-2.95-2.3-5.06
		C1906.99,893.08,1911.42,891.11,1918.9,894.18z"/>
	<path class="st0" d="M2042.52,1377.08c3.44,14.45,2.99,29.24,4.9,45.22c-3.54-4.73-5.12-11.56-5.3-22.4
		C2041.98,1392.32,2040.5,1384.73,2042.52,1377.08z"/>
	<path class="st0" d="M319.83,1036.01c0.12,1.58-1.02,2.3-2.15,2.91c-15.89,8.59-32.69,15.06-49.72,20.94
		c-1.2,0.41-2.59,0.24-3.9,0.34l0.2,0.23c0.31-2.63,2.8-2.72,4.41-3.27c16.04-5.48,31.62-12.01,46.61-19.94
		c1.49-0.79,2.98-1.47,4.72-1.02L319.83,1036.01z"/>
	<path class="st0" d="M2250.96,572.37c-1.5,3.08-3.81,3.55-6.03,4.27c-7.4,2.38-8.7,1.37-8.97-7.18
		C2243.31,564.27,2244.71,564.53,2250.96,572.37z"/>
	<path class="st0" d="M1662.03,1258.67c4.52-1.49,7.07,0.82,9.57,2.82c4.38,3.52,4.93,8.84,6.9,14.05
		C1671.48,1273.84,1666.08,1268.24,1662.03,1258.67z"/>
	<path class="st0" d="M17.91,727.5c-3.65-0.22-6.44-3.01-6.2-6.19c0.27-3.47,4.14-6.92,7.29-6.5c3.46,0.46,7.31,4.32,7.05,7.07
		C25.78,724.87,21.64,727.73,17.91,727.5z"/>
	<path class="st0" d="M2310.05,887.75c0.63-5.39,2.38-8.88,7.29-10.66c3.1,2.46,7.09,4.04,10.32,7.84
		C2322.15,888.27,2316.8,889.07,2310.05,887.75z"/>
	<path class="st0" d="M2104.57,587.47c-3.89,1.14-8,1.34-12.07,0.57c-1.65-3.16-0.92-5.43,1.78-6.84c2.82-1.47,5.8-3.88,9.1-1.79
		C2106.26,581.24,2106.55,584.13,2104.57,587.47z"/>
	<path class="st0" d="M200.94,818.58c-18.14,0.83-36.29,2.19-54.42,0C164.66,818.58,182.8,818.58,200.94,818.58z"/>
	<path class="st0" d="M1341.86,1960.1c-9.98,6.41-19.78,13.39-31.84,15.32C1320.33,1969.68,1331.19,1965.13,1341.86,1960.1z"/>
	<path class="st0" d="M571.79,616.03c-4.54-7.31-3.44-18.32,1.56-30.53c0.96,5.86-1.54,10.72-1.56,15.79
		C571.77,606.2,571.79,611.11,571.79,616.03z"/>
	<path class="st0" d="M2276.86,793.48c-0.82-3.72-2.01-7.46-0.34-11.67c5.92,0.29,6.82,5.32,9.35,8.81
		C2281.92,793.65,2281.92,793.65,2276.86,793.48z"/>
	<path class="st0" d="M2129.71,542.79c-1.88,2.34-3.86,3.37-6.26,3.53c-3.09,0.2-6.19-3.12-5.74-6.4c0.4-2.9,2.78-3.3,5.18-3.35
		C2126.2,536.49,2126.41,536.71,2129.71,542.79z"/>
	<path class="st0" d="M2181.89,691.87c-3.59,0.33-7.06,1.04-10.23-1.48c-2.04-1.63-2.83-3.72-1.36-6.08
		c1.22-1.97,3.17-2.28,5.19-1.34C2178.99,684.6,2183.05,685.89,2181.89,691.87z"/>
	<path class="st0" d="M1805.5,822.82c4.46-0.68,7.48,1.62,10.65,1.72c1.55,3.36,2.41,6.05-0.25,8.93
		C1809.53,832.97,1808.26,827.67,1805.5,822.82z"/>
	<path class="st0" d="M1707.12,1324.86c-6.54-3.17-10.68-7.67-15.8-12.85c4.85-1.2,7.73,0.45,9.91,3.15
		C1703.38,1317.83,1707.79,1319.3,1707.12,1324.86z"/>
	<path class="st0" d="M1441.71,1048.22c0.65,0.01,1.49-0.25,1.91,0.06c8.12,6.02,15.21,13.09,21.83,20.53
		c-0.89,1.15-1.54,1.29-2.14,0.74c-6.8-6.28-13.6-12.56-20.32-18.92c-0.62-0.59-0.74-1.71-1.09-2.59L1441.71,1048.22z"/>
	<path class="st0" d="M1802.26,865.71c5.21,4.09,7.87,8.05,10.19,12.18c1.26,2.25-0.36,3.55-3.32,4.41
		C1805.94,877.93,1803.42,873.12,1802.26,865.71z"/>
	<path class="st0" d="M264.06,1060.2c-7.96,5.45-17.29,6.84-26.39,8.92c8.82-3,16.67-9.01,26.58-8.69L264.06,1060.2z"/>
	<path class="st0" d="M2210.67,770.83c4.22,0.1,6.37,1.75,7.76,4.62c0.78,1.61,1.03,3.2-0.64,4.28c-1.1,0.71-2.53,0.86-3.67-0.09
		C2211.59,777.55,2209.32,775.3,2210.67,770.83z"/>
	<path class="st0" d="M2275.04,839.1c-5.97,0.25-8.35-0.69-8.68-3.79c-0.32-3.01,1.97-3.77,4.71-4.14c0.96,1.13,2.06,2.32,3.03,3.62
		C2274.87,835.82,2275.78,836.87,2275.04,839.1z"/>
	<path class="st0" d="M1746.96,1142.68c-2.21-0.85-3.32-2.9-4.53-4.73c-1.4-2.13-3.58-3.89-3.7-7.62c5.26,0.79,7.43,4.8,9.79,8.36
		C1749.57,1140.26,1748.93,1141.83,1746.96,1142.68z"/>
	<path class="st0" d="M1425.73,1034.19c6.71,3.11,12.14,7.67,15.99,14.03l0.18-0.19c-6.97-3.19-13.37-8.81-15.99-14.04
		L1425.73,1034.19z"/>
	<path class="st0" d="M512.24,1016.67c5.31,2.65,10.63,5.3,16.52,8.24C522.01,1024.49,519.62,1023.44,512.24,1016.67z"/>
	<path class="st0" d="M1577.61,916.3c-0.92,2.33-2.87,2.22-5.14,2.33c-0.36-1.79-0.87-3.36-0.95-4.96
		c-0.11-1.93-0.44-3.96,0.68-5.78C1576.01,911.34,1575.97,911.37,1577.61,916.3z"/>
	<path class="st0" d="M821.54,425.47c2.88,2.27,5.76,4.53,8.84,6.96c-4.98,1.22-5.47,1.39-6.48-0.05c-1.36-1.94-2.3-4.17-3.43-6.28
		C820.83,425.89,821.19,425.68,821.54,425.47z"/>
	<path class="st0" d="M422.01,1134.21c2.97-5.45,7.98-8.54,13.09-11.52c-3.36,5.03-7.24,9.45-13.26,11.34L422.01,1134.21z"/>
	<path class="st0" d="M1357.95,592.55c2.15-0.6,3.46-1.4,4.55-1.17c2.03,0.42,3.11,2.14,3.29,4.2c0.04,0.51-0.4,1.33-0.85,1.58
		c-1.99,1.08-3.69,0.56-4.96-1.3C1359.44,595.06,1358.98,594.22,1357.95,592.55z"/>
	<path class="st0" d="M1786.71,840.46c0.08,5.19-0.85,9.26-3.37,12.85c-2.23-2.57,0.58-4.45,0.84-6.63
		C1784.45,844.54,1785.83,842.53,1786.71,840.46z"/>
	<path class="st0" d="M1454.56,792.32c-2.84-2.87-5.67-5.73-8.51-8.6C1449.79,785.63,1452.84,788.28,1454.56,792.32z"/>
	<path class="st0" d="M1401.69,1016.22c5.91,1.59,11.09,4.21,14,10l0.17-0.19c-5.67-1.93-10.82-4.58-14-10L1401.69,1016.22z"/>
	<path class="st0" d="M1259.22,866.08c-2.57-2.13-4.49-4.02-5.3-6.81c0.99-1.8,2.29-2.75,3.77-1.04
		C1259.46,860.27,1260.19,862.74,1259.22,866.08z"/>
	<path class="st0" d="M953.57,494.43c5.27-0.76,9.05,2.56,13.18,4.88c0.26,0.15,0.05,1.14,0.05,1.73l0.23-0.16
		c-4.5-2.08-9.49-3.17-13.28-6.66L953.57,494.43z"/>
	<path class="st0" d="M451.82,1104.06c-0.08,4.87-4.47,6.34-7.25,9.07c1.69-3.61,2.8-7.71,7.44-8.89L451.82,1104.06z"/>
	<path class="st0" d="M1492.68,1096.13c2.77,0.94,4.75,2.69,6.23,5.87C1495.53,1100.89,1493.93,1098.71,1492.68,1096.13z"/>
	<path class="st0" d="M2096.6,467.19c-3.12,3.27-5.75,4.65-11.03,4.95C2089.69,469.4,2092.23,467.83,2096.6,467.19z"/>
	<path class="st0" d="M128.55,816.79c3.49,0,6.99,0,12.42,0C135.53,819.06,132.04,815.93,128.55,816.79z"/>
	<path class="st0" d="M1425.9,1033.99c-5.18-1.67-6.98-3.1-10.04-7.96l-0.17,0.19c4.76,1.61,6.73,3.18,10.03,7.97L1425.9,1033.99z"
		/>
	<path class="st0" d="M1485.61,1088.55c-2.95-0.74-4.85-2.68-6.79-5.81C1482.88,1083.49,1483.81,1086.47,1485.61,1088.55z"/>
	<path class="st0" d="M1267.7,511.41c2.15,1.82,2.53,4.23,3.03,7.65C1266.7,517.1,1268.64,513.6,1267.7,511.41z"/>
	<path class="st0" d="M320,1036.2c2.01-4.22,5.96-5.18,10.02-5.94l-0.19-0.21c-2.42,3.52-5.38,6.12-9.99,5.96L320,1036.2z"/>
	<path class="st0" d="M2700.03,2243.34c-2.66-1.89-4.56-2.78-5.69-5.24C2697.84,2237.88,2697.82,2240.93,2700.03,2243.34z"/>
	<path class="st0" d="M1079.48,552.72c1.09-0.65,2.13-1.4,3.29-1.88c0.44-0.18,1.13,0.26,1.73,0.42c1.75,3.41-1.67,3.17-2.4,4.68
		c-1.98-1-2.15-2.27-2.41-3.5L1079.48,552.72z"/>
	<path class="st0" d="M452.01,1104.24c-0.2-3.68,2.78-5.1,5.03-7.03c-0.76,3.01-1.99,5.69-5.22,6.85L452.01,1104.24z"/>
	<path class="st0" d="M1095.45,1394.59c1.2-1.87,2.33-3.77,4.89-4.04C1098.31,1393.58,1098.31,1393.58,1095.45,1394.59z"/>
	<path class="st0" d="M1480.97,1192.08c3.07-2.77,4.68-4.22,6.28-5.66C1487.26,1189.48,1485.81,1191.05,1480.97,1192.08z"/>
	<path class="st0" d="M1211.89,1349.9c-3.3-0.18-5.45-0.52-6.37-3.32C1208.37,1345.52,1210.65,1345.36,1211.89,1349.9z"/>
	<path class="st0" d="M330.01,1030.26c1.04-3.35,3.82-4.45,6.79-5.28c-1.91,2.26-3.34,5.2-6.99,5.07L330.01,1030.26z"/>
	<path class="st0" d="M207.83,816.89c4.62,0,7.07,0,9.6,0C214.99,818.19,212.52,818.01,207.83,816.89z"/>
	<path class="st0" d="M2264.66,589.04c-1.45,0.04-2.51-0.45-2.55-1.48c-0.07-1.51,1.29-2.3,2.55-2.23c0.67,0.04,1.84,1.33,1.76,1.91
		C2266.31,587.98,2265.16,588.57,2264.66,589.04z"/>
	<path class="st0" d="M609.28,1206.46c-0.2,3.59-2.18,4.2-3.3,6.12C605.03,1209.28,607.3,1208.56,609.28,1206.46z"/>
	<path class="st0" d="M702.17,1268.9c0.19-1.6,0.05-2.38,0.38-2.79c0.98-1.23,0.97-3.16,2.72-3.79c0.08-0.03,0.45,0.48,0.53,0.78
		c0.57,2.13,0.06,3.88-1.88,5.09C703.67,1268.34,703.35,1268.42,702.17,1268.9z"/>
	<path class="st0" d="M421.84,1134.02c-1.1,3.4-3.85,4.55-6.97,5.2c1.87-2.39,3.3-5.44,7.14-5.01L421.84,1134.02z"/>
	<path class="st0" d="M966.81,501.04c3.58-1.39,6.45,0.04,10.26,2.44c-4.55,0.69-6.94-2.27-10.04-2.6L966.81,501.04z"/>
	<path class="st0" d="M308.09,627.86c3.47,0.28,3.83,2.73,5.24,4.15C310.77,632.18,309.71,630.41,308.09,627.86z"/>
	<path class="st0" d="M320.81,640.5c3.59,1.02,4.74,3.05,6.99,5.04C324.16,645.84,322.89,643.74,320.81,640.5z"/>
</g>
</svg>
