<?xml version="1.0" encoding="utf-8"?>
<!-- Generator: Adobe Illustrator 23.1.0, SVG Export Plug-In . SVG Version: 6.00 Build 0)  -->
<svg version="1.1" id="Layer_1" xmlns="http://www.w3.org/2000/svg" xmlns:xlink="http://www.w3.org/1999/xlink" x="0px" y="0px"
	 viewBox="0 0 1537.06 1650.21" style="enable-background:new 0 0 1537.06 1650.21;" xml:space="preserve">
<g>
	<path d="M699.83,1565.61c-6.25,1.02-10.7,0.92-15.08-1.36c-4.98-2.59-10.1-4.95-15.26-7.18c-1.16-0.5-2.74-0.03-4.13-0.01
		c0.06,1.27-0.05,2.58,0.24,3.79c0.22,0.93,0.78,1.91,1.48,2.56c5.84,5.42,11.31,11.38,17.76,15.97
		c6.46,4.59,12.04,9.95,17.49,15.54c1.09,1.12,1.68,2.72,3.18,5.26c-3.18-0.24-5.28-0.04-7.16-0.6c-6.97-2.09-13.86-4.47-20.8-6.67
		c-7.76-2.46-15.49-5.01-23.32-7.23c-6.8-1.93-12.99-4.98-18.78-8.94c-2.99-2.04-6.19-3.05-10.04-2.05
		c-0.94,3.26,0.3,5.88,2.07,8.32c6.15,8.47,12.29,16.96,18.56,25.35c2.09,2.79,3.65,5.54,2.31,9.3c-6.71,2.02-12.91-0.32-18.67-3.05
		c-7-3.32-13.55-7.59-20.29-11.46c-3.73-2.14-7.79-3.88-11.11-6.54c-6.21-4.98-12.07-10.4-17.9-15.84c-5.26-4.91-7.41-4.8-9.16,1.94
		c-2.38,9.21-7.48,17.05-12.23,24.88c-3.8,6.26-9.85,11.19-15.12,16.5c-1.85,1.86-4.58,1.73-6.31-0.28
		c-7.46-8.65-16.95-5.44-26.02-4.7c-2.63,0.22-5.26,1.18-7.84,1.05c-6.59-0.35-12.85,1.07-19.18,2.53
		c-3.68,0.85-7.5,1.39-11.28,1.49c-8.33,0.22-16.67,0.27-24.99-0.01c-5.27-0.18-10.5-1.09-15.76-1.64
		c-1.49-0.16-2.98-0.27-4.48-0.27c-7.17-0.03-14.34,0.19-21.5-0.08c-4.6-0.17-9.17-1.39-13.77-1.51c-8.13-0.2-16.26,0.12-24.4,0.13
		c-2.1,0-4.22-0.16-6.29-0.53c-3.04-0.54-6.05-1.96-9.06-1.91c-11.03,0.17-21.76-1.69-32.49-3.81c-4.54-0.9-9.4-0.86-13.64-2.49
		c-7.54-2.89-15.31-3.8-23.17-4.68c-2.76-0.31-5.45-1.15-8.14-1.75c-2.32-9.39-0.16-17.72,5.35-25.36c1.26-1.75,2.11-3.87,3.58-5.4
		c4.78-4.96,4.26-10.86,1.2-15.65c-3.87-6.07-2.37-11.03,0.74-16.15c6.56-10.78,13.05-21.7,22.82-29.99
		c8.71-7.39,17.19-15.13,27.83-19.91c2.32-1.04,4.41-2.93,6.12-4.86c1.83-2.06,1.44-4.08-1.17-5.73c-4.91-3.1-9.83-6.23-14.42-9.78
		c-4.19-3.24-8.03-6.97-11.85-10.65c-1.93-1.86-3.37-4.13-2.34-7.59c1.57-0.08,3.2-0.36,4.8-0.21c11.84,1.1,23.11-1.74,34.31-4.97
		c4.6-1.32,9.06-3.12,13.68-4.36c8.8-2.36,17.65-4.54,26.51-6.67c7.25-1.74,14.55-3.26,21.81-4.97c4.13-0.97,7.21-3.23,10.27-6.44
		c4.72-4.95,7.32-11.01,10.99-16.49c4.77-7.13,9.47-14.32,14.49-21.27c10.02-13.86,20.05-27.73,30.46-41.3
		c5.14-6.7,11.13-12.76,16.77-19.07c6.31-7.06,12.82-13.95,18.92-21.18c1.46-1.73,2.16-4.48,2.34-6.83
		c0.35-4.81,0.01-9.66,0.14-14.49c0.09-3.23-0.99-5.82-3.24-8.06c-8.98-8.94-17.3-18.67-27.05-26.65
		c-11.15-9.12-20.27-20.28-31.29-29.34c-8.5-6.99-15.63-15.97-26.51-19.89c-6.2-2.23-12.35-4.59-18.45-7.07
		c-3.06-1.25-5.91-3.03-8.94-4.36c-5.15-2.25-10.37-4.32-15.55-6.5c-8.73-3.67-16.02-9.25-21.98-16.6c-2.3-2.84-4.91-5.44-7.01-8.41
		c-3.73-5.26-7.43-10.56-10.68-16.12c-4.49-7.69-7.01-16.29-11.79-23.97c-5.42-8.72-4.22-18.55-0.69-27.9
		c3.21-8.5,6.47-16.97,12.12-24.32c4.33-5.62,8.08-11.69,12.21-17.47c1.73-2.43,3.52-4.92,5.73-6.88
		c6.15-5.46,9.18-12.73,12.74-19.85c4.58-9.15,9.7-18.09,15.29-26.66c5.97-9.16,12.39-18.08,19.27-26.58
		c6.57-8.12,13.8-15.73,21.07-23.25c10.4-10.77,21.49-20.7,33.3-30.05c10.48-8.29,21.43-15.74,32.59-22.93
		c7.9-5.09,16.22-9.62,24.7-13.71c15.63-7.54,31.38-14.88,47.34-21.68c7.57-3.23,15.71-5.13,23.65-7.47
		c6.03-1.78,11.83-4.41,18.38-4.26c1.54,0.04,3.36-1.44,4.65-2.65c14.4-13.59,28.83-27.15,42.96-41.01
		c3.23-3.17,5.57-7.33,7.89-11.29c1.23-2.1,1.14-4.46-0.17-7.04c-5.74-11.34-12.04-22.44-14.96-35.05c-0.51-2.2-3.49-4.54-5.85-5.44
		c-5.37-2.04-10.26-4.43-14.38-8.6c-3.15-3.19-5.3-2.97-8.71-0.08c-1.52,1.29-3.09,2.63-4.24,4.23
		c-12.42,17.24-27.93,31.62-42.72,46.68c-6.78,6.9-15.17,11.24-23.57,15.47c-16.23,8.16-33.52,13.72-50.87,18.91
		c-11.1,3.32-22.52,5.62-33.82,8.24c-5.8,1.34-11.66,2.4-17.5,3.57c-0.81,0.16-1.64,0.34-2.46,0.35
		c-10.23,0.09-19.73,2.47-29.21,6.65c-9.37,4.12-19.67,6.09-29.42,9.4c-4,1.36-7.8,3.52-11.4,5.77
		c-10.59,6.62-21.19,13.32-29.24,23.11c-3.33,4.04-6.88,8.2-8.96,12.9c-3.78,8.56-10.17,14.7-16.95,20.51
		c-8.48,7.26-18.56,12.1-28.22,17.55c-5.75,3.24-11.31,2.83-16.87-0.93c-4.51-3.05-9.32-5.68-14.1-8.3
		c-6.79-3.72-10.38-10.14-13.93-16.5c-1.57-2.81-1.76-6.41-3.39-9.18c-1.98-3.36-4.44-6.63-7.36-9.18
		c-5.5-4.8-11.34-9.24-17.32-13.42c-2.02-1.41-4.84-1.96-7.37-2.3c-7.05-0.94-14.17-1.32-21.19-2.4c-5.88-0.9-11.1-3.85-15.41-7.81
		c-6.5-5.97-12.79-12.2-18.77-18.69c-4.84-5.25-5.64-12.29-6.21-19c-0.57-6.79-0.59-13.7-0.01-20.48c0.74-8.64,3.33-16.98,7.6-24.54
		c2.66-4.7,6.09-9.08,9.76-13.05c6.47-6.98,6.69-9.13,2.69-17.97c-7-15.43-6.61-30.9,3.16-44.91c3.74-5.37,9.71-9.68,15.51-13.01
		c9.73-5.58,20.07-10.14,31.14-12.7c4.9-1.13,9,1.25,9.88,6.22c0.26,1.46,0.32,3.03,0.07,4.48c-0.99,5.69-2.63,11.32-3.1,17.05
		c-0.66,8.09-0.76,16.25-0.54,24.37c0.1,3.62,3.91,7.03,7.58,6.74c7.84-0.64,13.94,3.34,20.58,6.31c4.32,1.93,9.13,2.89,13.82,3.77
		c3.57,0.67,6.3-1.25,8.49-4.15c2.5-3.31,5.19-6.5,7.99-9.56c3.39-3.71,7.17-6.93,12.24-8.23c3.04-0.77,4.2-2.77,4-5.95
		c-0.45-7.12-0.94-14.25-0.91-21.37c0.02-5.36-1.78-9.71-5.42-13.42c-3.38-3.45-7.02-6.68-10.18-10.32
		c-2.02-2.33-3.84-5.04-4.97-7.9c-2.31-5.83,0.02-11.28,5.66-14.18c8.51-4.39,17.03-5.71,26.86-3.58
		c9.44,2.05,18.14,5.33,26.31,9.96c10.25,5.82,17.21,14.67,19.58,26.46c1.97,9.78,4.56,19.29,9.06,28.23
		c3.1,6.17,5.47,6.71,10.3,1.66c11.97-12.49,23.65-25.26,35.77-37.61c9.86-10.05,21.73-17.33,34.67-22.79
		c3.03-1.28,6.4-1.72,9.62-2.55c5.39-1.39,7.87-5.22,8.63-10.42c1.93-13.22,5.77-25.88,11.83-37.75c2.36-4.63,2.83-9.34,1.93-14.03
		c-1.79-9.26-4.41-18.35-6.34-27.58c-2.02-9.7-3.19-19.59-5.51-29.2c-3.47-14.36-1.43-28.84-1.67-43.25
		c-0.09-5.15,1.59-10.51,3.32-15.47c4.52-12.9,11.28-24.63,19.42-35.62c4.63-6.25,8.63-12.97,13.12-19.34
		c7.99-11.33,19.25-18,32.26-22.06c0.45-0.14,0.84-0.46,1.77-0.97c-1.95-3.64-3.87-7.23-5.78-10.82c-0.46-0.87-0.93-1.74-1.37-2.63
		c-2.74-5.53-5.57-6.19-9.82-1.81c-3.2,3.3-6.79,4.64-11.23,3.96c-0.46-0.07-0.88-0.37-1.89-0.82c1.97-5.4,3.92-10.76,5.91-16.22
		c-3.72-1.77-5.82,0.6-8.22,2.3c-0.95,0.67-2.29,0.8-3.45,1.18c0.1-1.32-0.15-2.79,0.36-3.93c3.39-7.52,6.94-14.98,10.45-22.45
		c1.58-3.35,0.59-6.43-0.75-9.59c-1.6-3.77-2.94-7.66-4.47-11.46c-0.55-1.38-1.05-2.94-2.05-3.94c-4.57-4.53-8.54-9.68-14.78-12.42
		c-4.48-1.97-7.67-5.74-9.93-10.18c-1.42-2.79-2.75-5.66-4.46-8.27c-1.89-2.91-3-5.89-2.64-9.38c0.37-3.53-1.17-6.22-3.2-9.1
		c-6.29-8.88-11.35-18.33-10.81-29.78c0.29-5.97-0.15-12.03,0.68-17.91c1.38-9.9,8.1-16.5,15.56-22.35
		c4.18-3.28,8.74-6.09,12.71-9.59c1.49-1.31,2.56-4.01,2.46-6.01c-0.19-3.9-2.67-5.76-6.71-5.82c-6.16-0.1-12.34,0.07-18.5-0.12
		c-1.36-0.04-2.68-1.12-4.02-1.72c1.08-0.75,2.1-1.64,3.26-2.22c2.07-1.03,4.33-1.7,6.31-2.86c1.13-0.66,2.76-2.21,2.57-2.97
		c-0.31-1.27-1.71-2.76-2.98-3.22c-8.19-2.92-16.21-6.4-22.7-12.12c-8.6-7.59-16.49-15.98-24.67-24.05
		c-0.35-0.34-0.69-0.81-0.77-1.26c-0.26-1.54-0.41-3.09-0.6-4.64c1.41,0,2.91-0.31,4.21,0.06c4.6,1.32,9.06,3.23,13.71,4.23
		c4.12,0.89,8.43,0.88,13.38,1.33c-0.14-2.83,0.15-4.86-0.4-6.61c-2.73-8.67-1.12-17.53-1.3-26.3c-0.04-1.71,0.67-3.75,1.72-5.12
		c5.66-7.41,11.32-14.94,21.52-16.76c1.29-2.53,0.2-4.87-1.38-6.37c-7.46-7.11-10.35-16.83-15.05-25.52
		c-1.14-2.1-1.96-4.38-2.92-6.58c0.29-0.34,0.58-0.68,0.87-1.02c2.79,1.16,5.52,2.5,8.38,3.42c3.25,1.04,6.59,2.09,9.96,2.45
		c3.96,0.42,7.99,0.04,11.99,0.11c11.86,0.22,23.5-1.59,34.87-4.59c9.1-2.4,18.13-3.99,27.54-3.46c3.99,0.22,8.03,0.36,11.99-0.02
		c14.03-1.35,26.4,4.05,38.81,9.25c2.57,1.08,4.74,3.07,7.2,4.45c1.67,0.93,3.54,1.52,5.51,2.35c1.62-4.1,0.43-7.3-1.39-10.3
		c-2.25-3.69-5.05-7.09-6.94-10.95c-1.48-3.01-2.47-6.48-2.7-9.82c-0.31-4.53,2.11-6.7,6.63-6.91c9.18-0.41,17.86,1.73,25.94,5.89
		c4.99,2.57,9.57,5.92,14.36,8.87c1.81,1.12,3.71,2.09,6.28,3.53c0.95-4.85,0.97-8.98,0-13.18c-0.56-2.41-1.32-4.89-1.22-7.31
		c0.18-4.31,3.83-6.35,7.4-4.08c5.24,3.33,9.19,7.74,12.01,13.57c4.16,8.59,4.93,17.44,4.47,26.66c-0.12,2.45-0.02,4.91-0.02,7.25
		c3.8,1.56,5.97-0.7,8.28-2.07c6.28-3.73,12.35-8.13,19.65-9.4c11.96-2.08,23.88-6.18,36.24-2.13c0.93,0.3,1.98,0.37,2.96,0.34
		c11.16-0.39,21.64,2.64,32.11,6.01c3.72,1.2,7.78,1.37,11.68,2.02c4.06,0.67,8.16,1.22,12.18,2.07c5.67,1.2,11.3,2.59,16.92,3.98
		c1.43,0.35,2.8,0.97,4.19,1.49c2.31,0.86,4.68,1.58,6.9,2.64c2.96,1.41,6.16,2.66,8.61,4.74c10.82,9.13,19.01,20.38,25.26,33.04
		c6.08,12.31,12.08,24.66,18.06,37.01c0.94,1.94,1.43,4.09,2.36,6.03c1.99,4.14,4.14,4.75,7.98,2.75
		c12.9-6.75,23.55-16.03,32.11-27.81c1.6-2.2,3.38-5.56,6.51-4.38c2.03,0.76,3.96,3.57,4.61,5.85c1.54,5.38,2.88,10.95,3.24,16.51
		c0.53,8.13,0.14,16.32,0.14,24.49c0,1.62,0,3.24,0,4.86c0.4,0.22,0.8,0.44,1.2,0.66c1.25-1.28,2.59-2.47,3.72-3.85
		c0.93-1.14,1.45-2.63,2.43-3.72c2.45-2.75,4.84-2.9,7.18-0.14c3.01,3.55,4.79,7.47,5.75,12.36c1.79,9.11,1.49,18.17,1.79,27.28
		c0.12,3.55,2.09,5.73,5.48,6.05c10.13,0.96,19.34,4.59,28.16,9.38c10.29,5.59,19.36,12.81,27.64,21.04
		c1.16,1.16,1.88,2.76,3.45,5.12c-3.13,0.17-5.04,0.41-6.95,0.35c-6.18-0.2-12.24,0.24-18.24,1.99c-5.03,1.47-6.08,4.35-2.42,8.24
		c3.31,3.52,6.84,6.83,10.2,10.31c1.26,1.31,2.53,2.69,3.44,4.25c2.51,4.31,0.39,8.52-4.54,9.15c-1.91,0.24-3.86,0.22-5.79,0.31
		c-0.23,0.38-0.46,0.75-0.69,1.13c1.3,1.52,2.33,3.47,3.95,4.48c14.06,8.78,24.46,21.56,35.87,33.14
		c7.56,7.67,13.44,16.82,17.47,27.03c1.88,4.76,4.53,9.2,6.67,13.86c0.96,2.08,1.78,4.29,2.21,6.53c0.58,2.95,2.21,4.61,4.89,5.76
		c12.62,5.41,23.79,13.21,34.16,22.05c31.75,27.06,59.35,58.39,89.35,87.25c1.08,1.04,1.98,2.39,3.24,3.09
		c1.31,0.72,2.96,0.83,4.46,1.21c0.21-1.57,0.97-3.31,0.53-4.66c-0.81-2.48-2.64-4.61-3.48-7.09c-3.81-11.3-7.3-22.7-11.14-33.99
		c-2.32-6.8-1.95-13.76-1.96-20.73c-0.01-16.5-0.5-33.02,0.19-49.49c0.41-9.66,1.7-19.42,6.22-28.41c2.82-5.6,4.73-11.65,7.35-17.37
		c3.04-6.64,6.33-13.18,11.69-18.37c1.08-1.04,2.23-2.04,3.17-3.19c11.25-13.85,26.38-21.79,42.52-28.4
		c8.14-3.33,11.63-10.24,12.95-18.74c1.45-9.36-3.62-14.92-10.18-20.09c-4.42-3.49-8.75-7.17-12.69-11.19
		c-6.4-6.53-2.99-17.39,5.9-19.75c4.33-1.15,8.57-2.64,12.93-3.69c4.16-1,8.39-1.77,12.63-2.37c9.15-1.32,18.33-2.46,27.49-3.69
		c0.49-0.07,0.98-0.24,1.47-0.27c12.08-0.7,24.15-1.49,36.23-2.03c5.99-0.26,12-0.06,18-0.04c5.64,0.02,11.16,0.4,16.8,1.51
		c6.11,1.2,12.62,0.14,18.93,0.55c7.42,0.48,14.98,0.73,22.17,2.42c11.57,2.72,22.89,6.52,34.31,9.9
		c14.01,4.15,27.59,9.56,40.19,16.85c9.7,5.61,20.5,9.8,28.28,18.33c2.51,2.75,4.24,6.25,6.22,9.46c1.12,1.82,1.87,3.89,3.09,5.64
		c4.65,6.62,2.19,15.47-5.73,18.54c-5.38,2.09-11.17,3.12-16.79,4.56c-1.11,0.29-2.45,0-3.42,0.49c-7.78,3.94-16.67,2.69-24.72,5.33
		c-0.77,0.25-1.66,0.25-2.48,0.18c-6.6-0.54-12.91,0.59-19.04,3.06c-1.22,0.49-2.6,1-3.85,0.88c-6.67-0.64-12.78,1.46-19.03,3.28
		c-4.74,1.38-9.74,1.84-14.6,2.84c-2.43,0.5-4.8,1.31-7.2,1.94c-5.44,1.42-11.02,2.46-16.31,4.31c-4.64,1.63-9.22,3.76-13.39,6.36
		c-9.46,5.89-18.71,12.12-27.95,18.36c-10.31,6.97-20.5,14.09-30.74,21.16c-3.78,2.61-7.85,1.94-12.48,1.29
		c0.1-1.95-0.2-3.84,0.34-5.45c2.89-8.65,1.3-17.53,1.35-26.29c0.02-2.61-1.56-5.37-2.86-7.83c-3.66-6.93-9.18-12.31-15.76-16.31
		c-6.39-3.88-21.44-1.87-26.89,3.14c-10.4,9.56-21.01,18.94-30.87,29.04c-5.14,5.26-9.69,11.48-13.05,18.01
		c-5.3,10.32-8.48,21.27-8.61,33.31c-0.16,13.93,2.2,27.22,7.23,39.9c4.19,10.56,8.66,21.09,14.81,30.82
		c5.55,8.78,10.19,18.14,15.6,27.02c4.64,7.6,9.98,14.77,14.69,22.33c5.76,9.26,11.19,18.72,16.74,28.11
		c2.52,4.26,5.16,8.46,7.4,12.87c7.67,15.14,15.56,30.18,22.61,45.61c3.6,7.88,6.38,16.35,8.08,24.84
		c1.69,8.39,4.52,16.47,5.54,25.14c0.99,8.45,1.14,16.84,1.68,25.26c0.15,2.28,1.45,4.73,2.85,6.64c4.33,5.91,8.75,11.72,10.2,19.13
		c0.35,1.78,0.74,3.58,0.78,5.37c0.11,5-0.01,10,0.05,15c0.11,9.66-1.92,19.04-3.55,28.48c-0.9,5.2-2.61,10.5-2.25,15.64
		c0.7,9.87-4.33,16.78-10.24,23.39c-4.33,4.84-9.11,9.27-13.75,13.83c-4.85,4.77-7.19,11.1-7.9,17.29
		c-0.83,7.28-3.51,13.8-5.6,20.57c-1.4,4.53-4.14,8.65-5.59,13.17c-7.07,22.07-18.07,42.38-28.53,62.86
		c-5.86,11.48-13.25,22.23-20.44,32.98c-7.17,10.72-14.37,21.5-22.62,31.37c-7.45,8.92-16.02,16.98-24.65,24.81
		c-7.6,6.9-15.5,13.68-24.12,19.19c-12.23,7.83-25.01,14.9-38.82,19.78c-2.31,0.82-4.82,1.09-8.2,1.82
		c0.73,2.43,1.12,4.98,2.21,7.17c11.63,23.46,23.28,46.91,35.11,70.27c6.03,11.91,12.66,23.52,18.54,35.51
		c2.68,5.47,4.13,11.53,6.28,17.27c1.55,4.13,3,8.36,5.11,12.21c7.23,13.18,14.5,26.34,22.22,39.23c4.08,6.81,9.1,13.07,13.75,19.54
		c8.43,11.7,17.99,22.61,24.72,35.51c0.98,1.88,2.46,3.58,3.97,5.1c10.61,10.63,18.14,23.12,23.35,37.19
		c6.29,16.99,10.67,34.51,14.9,52.07c1.7,7.07,2.59,14.34,4.35,21.4c1.35,5.43,3.47,10.67,5.27,15.99c0.79,2.33,1.64,4.65,2.46,6.97
		c3.21,9.06,5.96,18.33,9.8,27.12c2.55,5.83,7.32,10.68,9.96,16.49c5.24,11.48,13.97,19.58,23.62,27.08
		c5.24,4.07,10.54,8.14,15.25,12.79c6.64,6.57,14.55,11.01,22.86,14.78c2.73,1.24,6.19,0.78,9.26,1.37c1.67,0.32,4.34,0.93,4.6,1.92
		c0.39,1.51-0.46,3.87-1.6,5.14c-3.66,4.09-7.5,8.08-11.64,11.67c-4.12,3.58-8.55,6.52-14.23,7.76c-10.8,2.36-11.81,5.08-5.16,13.49
		c4.83,6.11,10.33,11.7,15.74,17.32c1.44,1.49,3.87,1.99,5.47,3.37c1.23,1.06,2.57,2.8,2.54,4.22c-0.02,0.98-2.17,2.58-3.54,2.78
		c-6.54,0.96-13.13,1.55-19.71,2.23c-1.49,0.15-3.03-0.05-4.48,0.25c-2.33,0.49-4.35,1.96-3.67,4.48c1.53,5.64-2.17,10.68-1,16.72
		c-6.81,0.19-8.55,5.49-11.03,10.15c-2.87,5.42-5.84,10.8-8.88,16.12c-1.99,3.48-2.97,7.04-1.55,10.94c1,2.74,1.26,5.43,0.14,8.23
		c-0.35,0.88-0.71,2.12-0.37,2.86c3.11,6.7-2.24,12.89-0.12,19.69c-6.36,0.69-11.59,1.04-16.81-1.68c-3.65-1.9-7.76-2.94-11.71-4.24
		c-19.36-6.35-37.99-14.34-56.16-23.6c-8.8-4.48-18.43-7.32-27.65-10.99c-3.57-1.42-6.77-0.75-9.99,1.03
		c-7.24,4-14.48,7.97-21.8,11.81c-2.33,1.23-4.9,2.03-7.36,2.99c-8.5,3.32-15.25,8.57-19.2,17.05c-1.75,3.75-4.41,5.25-8.1,3.41
		c-6.65-3.31-13.1-7.1-19.32-11.18c-9.7-6.37-19.01-13.35-28.74-19.66c-3.83-2.48-8.29-4.09-12.62-5.67
		c-3.87-1.41-6.29-3.82-6.69-7.83c-0.84-8.39-2.65-16.92-1.88-25.19c1.18-12.61,1.17-25.54,6.01-37.63c0.89-2.23,1.27-4.68,2.03-7.6
		c-2.14-0.2-3.56-0.43-4.99-0.44c-6.33-0.04-12.69-0.35-18.99,0.07c-7.25,0.48-14.2-1.14-21.22-2.25c-4.79-0.76-6.24-5.34-2.82-8.85
		c1.58-1.62,3.66-2.86,5.69-3.93c12.24-6.42,22.78-14.79,30.89-26.1c3-4.18,6.36-8.08,9.48-12.18c7.31-9.62,14.85-19.08,21.72-29.01
		c3.74-5.41,6.37-11.61,9.34-17.53c0.56-1.11,0.44-2.59,0.56-3.9c0.11-1.16-0.33-2.68,0.26-3.43c4.73-6.1,3.44-13.68,5.07-20.51
		c1.56-6.55,2.21-13.38,2.59-20.13c0.43-7.64,0.37-15.34,0.03-22.99c-0.4-8.75-1.25-17.49-2.15-26.21
		c-0.19-1.88-1.14-3.88-2.28-5.42c-3.56-4.79-7.02-9.74-11.17-14c-8.05-8.29-14.91-17.28-19.49-27.96
		c-1.65-3.84-4.55-5.75-9.05-5.63c-7.95,0.22-16.12,1.07-23.5-2.93c-6.68-3.62-13.69-6.94-19.62-11.59
		c-10.57-8.28-20.11-17.89-30.71-26.13c-8.97-6.98-17.74-14.43-28.96-18.12c-6.91-2.27-13.3-5.8-18.41-11.39
		c-4.83-5.29-9.79-10.53-15.22-15.17c-8.83-7.53-18.07-14.58-27.18-21.79c-2.25-1.78-4.65-2.39-7.37-0.71
		c-2.69,1.67-5.01,0.76-7.16-1.35c-8.91-8.74-18.06-17.29-24.12-28.44c-2.47-4.55-5.88-7.05-11.29-6.25
		c-4.87,0.72-9.21-1.07-13.27-3.41c-8.89-5.13-17.67-10.46-26.52-15.66c-1.79-1.05-3.69-1.91-6.74-3.46
		c0.45,3.95,0.07,6.99,1.2,9.29c2.33,4.72,5.5,9.02,8.27,13.52c1.46,2.38,2.95,4.76,4.18,7.25c1.47,2.97,0.24,5.61-1.81,7.74
		c-2.2,2.28-5.08,3.8-8.1,2.06c-5-2.88-10.01-5.88-14.49-9.49c-5.15-4.14-7.21-4.01-9.26,2.14c-0.88,2.64-1.63,5.48-1.63,8.23
		c-0.01,11.65-2.16,23.01-3.76,34.48c-1.6,11.47-3.05,23.02-2.7,34.69c0.07,2.28-0.3,4.69-1.03,6.85c-0.89,2.67-2.45,5.04-6.02,5.4
		c-0.88-5.56-1.54-10.93-2.62-16.22c-1.87-9.24-3.96-18.44-6.09-27.63c-0.16-0.67-1.39-1.58-2.04-1.51c-0.65,0.07-1.2,1.21-1.76,1.9
		c-0.09,0.1-0.03,0.32-0.04,0.49c-0.67,9.24-1.24,18.49-2.08,27.72c-0.28,3.11-1.28,6.15-1.9,9.23c-1.35,6.64-2.57,13.31-4.05,19.92
		c-0.57,2.54-1.76,4.94-2.61,7.42c-2.51,7.32-4.93,14.67-7.49,21.97c-2.69,7.67-5.46,15.31-8.33,22.91
		c-0.31,0.83-1.52,1.33-3.12,2.65c-0.2-2.59-0.41-4.16-0.42-5.73c-0.04-7.33,0.05-14.67-0.04-22c-0.08-6.62,0.73-13.3-1.75-19.77
		c-0.62-1.61-0.32-3.64-0.21-5.46c0.54-8.41-1.46-16.42-3.55-24.46c-1.16-4.48-1.71-9.12-2.45-13.7c-0.76-4.73-1.31-9.49-2.19-14.19
		c-0.22-1.16-1.38-2.15-2.1-3.22c-0.37,0.12-0.74,0.24-1.1,0.36c-0.87,4.3-2.37,8.58-2.48,12.9c-0.18,7.09-1.08,14.28,1.48,21.29
		c0.71,1.94,1.17,4.81-1.96,5.87c-2.92,1-4.15-1.14-5.52-3.09c-4.52-6.48-5.84-14.33-9.2-21.29c-5.21-10.82-8.14-22.34-10.98-33.93
		c-4.02-16.45-4.35-33.16-3.99-49.95c0.05-2.45,0.01-4.91,0.01-7.4c-5.26-1.47-9.3-0.67-12.75,3.06c-3.06,3.3-6.43,6.3-9.51,9.58
		c-5.41,5.78-12.85,8.02-19.49,11.7c-10.37,5.75-21.83,7.84-33.05,10.65c-6.05,1.51-12.46,1.52-18.68,2.38
		c-2.1,0.29-4.32,0.78-6.15,1.78c-4.92,2.68-5.77,6.86-2.2,11.19c4.64,5.63,9.38,11.22,14.42,16.49c7.6,7.94,15.47,15.64,23.3,23.36
		c6.35,6.27,14.45,9.85,22.14,14.05c2.41,1.32,4.49,0.54,6.32-1.21c1.68-1.61,3.43-1.9,5.37-0.51c8.59,6.14,18.55,9.46,28.02,13.82
		c4.6,2.12,8.73,5.42,12.7,8.65c1.42,1.16,2.77,4,2.33,5.54c-1.38,4.82,1.16,8.35,2.86,12.2c6.69,15.2,6.68,30.44-2.98,43.99
		c-9.8,13.73-19.23,27.87-32.06,39.34c-5.31,4.75-8.88,11.55-12.86,17.67c-4.87,7.5-9.45,15.19-13.96,22.91
		c-5.18,8.86-10.11,17.84-13.13,27.74c-1.83,6.01-3.71,12.02-6,17.86c-2.18,5.56-2.38,11.25-2.77,17.09
		c-0.76,11.55,1.03,22.92,2.48,34.2c1.49,11.64,5.45,22.96,11.45,33.23c6.12,10.46,12.82,20.55,21.73,28.97
		c3.87,3.66,7.71,7.39,11.25,11.37C697.28,1560.11,698.15,1562.6,699.83,1565.61z M1088.51,854.52c5.86,0.91,10.55-1.61,15.09-4.45
		c15.94-9.97,31.21-20.86,45.74-32.8c3.85-3.16,7.84-6.16,11.45-9.58c6.04-5.73,11.88-11.67,17.68-17.65
		c1.95-2.01,3.72-4.27,5.19-6.65c2.5-4.06,4.53-8.41,7.05-12.45c6.11-9.8,5.77-16.07-2.46-23.75c-6.25-5.84-10.21-12.92-13.06-20.74
		c-4.47-12.25-7.5-25-13.09-36.87c-3.02-6.41-5.31-13.1-12.09-16.95c-6.6-3.74-12.79-8.23-19.36-12.03
		c-10-5.77-17.71-14.17-25.12-22.63c-4.49-5.12-8.12-11.6-10.17-18.08c-1.88-5.94-5.27-9.43-10.25-11.96
		c-3.97-2.02-8.68-2.84-12.21-5.38c-8.47-6.09-16.84-12.45-24.5-19.5c-6.94-6.38-12.92-13.81-19.25-20.83
		c-2.31-2.56-5.06-3.78-8.44-3.32c-3.27,0.45-4.5,2.88-5.43,5.74c-3.54,10.96-6.7,22.01-11.3,32.65
		c-5.34,12.33-11.5,24.26-19.17,35.09c-6.9,9.75-9.43,20.13-9.88,31.51c-0.06,1.64-0.04,3.4,0.47,4.92
		c1.63,4.84,3.56,9.57,5.3,14.38c6.02,16.65,12.09,33.28,17.96,49.99c2.35,6.7,5.74,12.56,11.04,17.38
		c5.39,4.89,8.66,11.34,11.32,17.9c1.95,4.84,3.2,10.13,3.71,15.33c0.4,4.08,1.41,7.32,4.35,10.17c1.51,1.46,2.46,3.49,3.67,5.26
		c1.67,2.44,3.08,5.12,5.06,7.27c11.94,12.91,25.82,23.96,35.44,39.1C1076.43,850.64,1080.92,856.16,1088.51,854.52z"/>
</g>
</svg>
