<?xml version="1.0" encoding="utf-8"?>
<!-- Generator: Adobe Illustrator 24.1.1, SVG Export Plug-In . SVG Version: 6.00 Build 0)  -->
<svg version="1.1" id="Layer_1" xmlns="http://www.w3.org/2000/svg" xmlns:xlink="http://www.w3.org/1999/xlink" x="0px" y="0px"
	 viewBox="0 0 2373.19 1903.59" style="enable-background:new 0 0 2373.19 1903.59;" xml:space="preserve">
<style type="text/css">
	.st0{fill:#1A1A1A;}
</style>
<g>
	<path d="M1391.48,557.78c-0.44-3.02-0.82-5.58-1.15-7.85c-1.3-0.82-2.24-0.62-3.06-0.06c-2.86,1.95-4.6,5.73-7.53,5.84
		c-2.49-0.83-2.69-1.92-2.71-2.84c-0.16-8.7-0.6-17.26-6.03-24.76c-1.29-1.78-2.01-4.42-1.95-6.63c0.24-8.19-4.98-13.33-9.87-19.38
		c-4.55,3.07-4.3,9.14-8.39,12.03c-4.23,2.98-5.83,7.99-9.06,12.57c-6.45-5.68-10.03-12.32-10.84-20.5
		c-0.24-2.43,0.41-4.66,1.6-6.69c4.07-6.91,7.59-13.99,9.2-21.97c0.43-2.12,2.14-4.11,3.62-5.86c1.94-2.28,3.79-4.55,4.91-7.04
		c-2.54-7.3-7.37-11.97-13.45-15.9c-7.26-4.7-13.94-10.16-19.15-17.32c-6.45-8.87-10.23-18.57-10.85-29.51
		c-0.15-2.66-0.31-5.32-0.66-7.96c-0.78-5.83-3.12-11.19-7.89-14.52c-10.33-7.21-18.26-16.38-24.46-27.21
		c-0.26-0.46-1.09-0.59-2.47-1.29c-2.14,15.59-8.73,29.78-11.7,44.89c-1.99,10.1-1.44,20.53,1.22,30.67
		c4.72,18.01,9.2,36.09,14.17,54.03c5.4,19.51,15.21,35.73,33.29,46.66c13.35,8.07,25.95,17.5,37.32,28.34
		c17.53,16.73,26.84,37.69,31.18,61.17c0.24,1.3,0.35,2.63,0.48,3.96c1,10,4.45,18.98,9.07,28c7.96,15.52,11.37,32.55,12.5,49.98
		c0.45,6.9,0.92,13.81,1.34,20.71c0.2,3.36,0.99,6.56,2.67,10.06c7.85,3.37,15.99,7.09,24.31,10.36c8.15,3.2,16.92,3.3,25.48,3.31
		c7.23,0.01,14.45-1.51,21.68-2.32c8.83-0.99,17.59-2.72,26.6-1.28c12.8,2.05,22.35,8.29,27.38,20.5
		c4.31,10.45,8.47,20.96,12.52,31.52c8.93,23.26,21.43,44.28,38.97,62.1c6.77,6.88,10.41,15.2,12.94,24.32
		c3.15,11.38,4.78,22.75,1.92,34.4c-2.63,10.68-7.67,19.74-17.27,25.53c-3.48-0.92-2.02-4.85-4.37-6.26
		c-0.61,0.23-1.46,0.28-1.78,0.71c-4.74,6.45-9.73,12.6-16.13,17.57c-3.86,3-7.8,4.87-13.06,4.38c-3.13-5.57,3.23-10.97-0.54-17.19
		c-0.39-0.41-1.55,0.59-2.76,0.83c-0.92,0.18-1.9,0.04-3.41,0.04c-0.79-5.91-1.45-11.76-2.61-17.54
		c-1.26-6.26-4.14-10.46-10.46-11.79c-8.34-1.75-13.84-7.62-19.53-13.2c-2.42-2.37-3.87-5.36-4.68-8.68
		c-0.79-3.23-2.04-6.36-2.61-9.61c-2.38-13.58-10.76-22.39-22.35-28.75c-2.66,0.49-2.68,2.65-2.87,4.6
		c-0.63,6.54-3.57,12.68-2.84,19.53c0.35,3.26-1.92,6.33-4.13,8.87c-3.5,4.02-7.11,8.01-11.84,10.63
		c-6.23,3.45-8.64,8.86-8.57,15.69c0.02,2,0.12,4.02-0.13,5.99c-0.5,3.92-3.87,5.79-7.28,3.69c-17.62-10.82-25.23-27.2-17.98-48.63
		c1.85-5.47,5.02-10.49,8.59-17.75c-21.4,11.1-42.3,14.91-63.49,12.84c-2.07,2.67-1.18,4.53-1.06,6.47
		c1.01,16.94,1.49,33.89-0.22,50.81c-2.17,21.51-6.08,42.74-10.46,63.9c-1.89,9.15-1.71,18.28,0.66,27.51
		c1.61,6.27,4.64,10.68,10.08,14.06c10.74,6.68,21.2,13.81,31.86,20.62c17.74,11.34,33.5,25.09,49.2,39.03
		c13.49,11.98,25.7,25.11,37.26,38.87c11.16,13.28,20.44,27.94,28.55,43.23c10.28,19.4,20.11,39.06,27.47,59.81
		c2.99,8.45,5.73,17.02,7.92,25.7c1.55,6.14,1.52,12.42-0.73,18.68c-7.66,21.27-16.52,42.11-22.72,63.9
		c-4.55,15.99-14.16,29.23-23.47,42.64c-12.37,17.83-26.79,33.96-41.85,49.47c-13.46,13.86-27.23,27.39-38.7,43.01
		c-1.96,2.67-3.83,5.44-5.38,8.35c-4.61,8.65-2.15,16.91,2.27,24.65c6.43,11.27,13.13,22.39,20,33.4
		c12.69,20.35,26.72,39.77,40.63,59.3c10.42,14.62,20.51,29.52,30.56,44.4c11.51,17.05,17.93,36.11,20.71,56.6
		c0.93,6.82,0.71,13.15-0.88,19.65c-2.14,8.72-3.85,17.53-6.96,26c-2.22,6.04-5.3,11.47-10.23,15.72c-1.3,1.12-2.7,1.94-4.55,1.76
		c-5.84-1.66-1.59-9.03-6.98-11.62c-3.13,8.83-6.36,17.7-11.55,25.54c-5.31,8.02-11.07,15.75-20.05,19.93
		c-4.87-2.11-6.49-5.92-7.04-10.44c-0.2-1.65-0.68-3.34-0.51-4.96c1.07-9.81-3.69-16.42-11.84-21.69c-2.69,1.33-3.36,4.54-5.17,6.7
		c-3.03,3.59-6.06,7.08-10.09,9.55c-5,3.06-8.19,1.92-9.42-3.65c-0.86-3.88-1.03-7.9-1.7-11.83c-1.12-6.5-2.15-12.61-8.01-17.51
		c-5.47-4.58-9.73-10.85-13.72-16.91c-5.43-8.26-6.67-17.95-7.54-27.61c-0.74-8.26-0.91-16.55-1.73-24.83
		c-0.86-8.74-3.58-16.85-5.73-25.65c-4.62,0.29-6.09,2.97-6.66,6.94c-1.38,9.57-1.99,19.08,0.96,28.48c0.4,1.28,0.74,2.55-0.45,4.55
		c-5.61,0.13-10.17-2.74-14.24-6.69c-18.08-17.55-29.81-38.12-30.3-64.01c-0.02-0.98-0.32-1.94-0.7-4.06
		c-2.61,8-5.1,14.93-7.14,21.99c-4.52,15.69-9.91,30.99-17.69,45.45c-7.4,13.76-14.07,27.91-21.26,41.78
		c-9.21,17.79-20.48,34.2-33.06,49.81c-15.71,19.48-32.37,37.98-51.75,53.86c-12.64,10.36-26.28,19.29-40.9,26.67
		c-9.78,4.94-19.38,10.3-29.36,14.8c-24.94,11.23-50.96,19.34-77.61,25.37c-25.31,5.72-50.93,9.1-76.85,11
		c-18.33,1.35-36.65,1.66-54.85,0.79c-38.9-1.85-77.19-7.93-114.76-18.79c-38.01-10.99-72.93-28.54-107.41-47.43
		c-22.83-12.51-44.02-27.4-65.44-42.05c-27.18-18.59-53.89-37.9-82.17-54.86c-9.41-5.65-18.4-12-27.7-17.85
		c-26.79-16.86-55.01-31-83.45-44.82c-22.82-11.09-46.63-19.4-70.43-27.93c-17.7-6.34-36.26-8.04-54.52-11.45
		c-14.42-2.7-29.1-2.75-43.64-3.57c-12.52-0.71-25.25,0.57-37.77,1.98c-22.48,2.53-44.62,7.05-66.25,13.82
		c-15.26,4.78-30.09,10.76-44.38,17.91c-15.07,7.55-25.73,18.92-27.68,36.5c-1.21,10.95,2.28,20.93,7.55,30.32
		c7.49,13.33,18.25,23.73,30.57,32.47c19.71,13.97,41.35,23.72,64.65,30.41c14.39,4.13,28.74,8.12,43.49,10.67
		c18.02,3.11,36.09,5.64,54.45,5.66c4.95,0.01,9.92,1.32,14.85,1.19c51.49-1.39,102.04-7.78,149.71-28.98
		c7.29-3.24,14.63-6.39,21.92-9.63c1.23-0.55,2.4-1.11,4.04-0.39c1.14,2.01-0.49,3.47-1.59,4.83
		c-12.37,15.17-27.42,27.05-44.66,36.23c-35.91,19.12-74.24,30.5-114.35,36.78c-32.13,5.03-64.43,4.75-96.61,3.44
		c-20.12-0.82-40.17-5.16-59.91-9.92c-32.56-7.85-63.61-19.49-92.17-37.19c-20.54-12.73-38.83-28.04-53.1-47.8
		c-9.66-13.38-17.01-27.87-20.39-44.08c-4.54-21.76-2.76-43.06,6.37-63.46c12.52-27.97,32.81-48.76,59.05-64.33
		c21.95-13.02,45.66-21.55,69.73-29.35c25.37-8.23,51.48-13.21,77.78-17.1c10.82-1.6,21.82-2.15,32.72-3.17
		c16.31-1.53,32.59-1.26,48.87-1.01c39.9,0.61,79.69,3.33,118.72,12.14c15.23,3.44,30.73,5.34,45.86,9.2
		c17.44,4.44,34.29,10.73,51.18,16.79c20.65,7.41,41.65,13.86,61.69,22.99c21.77,9.92,43.82,19.26,65.71,28.93
		c12.79,5.65,25.19,12.09,37.49,18.73c27.91,15.07,57.73,25.62,87.42,36.46c21.26,7.76,42.78,14.7,64.99,19.21
		c6.79,1.38,13.69,2.27,19.78,3.26c2.13-1.25,2.35-2.53,2.47-3.86c2.48-27.59,13.26-51.62,29.29-74.12
		c23.94-33.6,48.28-66.98,69.86-102.21c4.52-7.38,8.78-14.91,13.12-22.4c0.83-1.44,1.43-3,2.16-4.5
		c4.92-10.08,2.82-19.09-3.69-27.77c-11.23-14.96-24.08-28.4-37.18-41.69c-15.65-15.87-30.35-32.61-43.54-50.66
		c-12.47-17.07-22.26-35.22-28.28-55.68c-5.05-17.19-11.91-33.87-18.36-50.61c-2.91-7.53-2.87-14.82-0.82-22.4
		c9.2-33.98,24.2-65.44,41.85-95.69c14.88-25.5,34.44-47.1,55.86-67.35c24.36-23.03,51.11-42.73,79.91-59.46
		c13.57-7.89,16.1-19.5,16.18-32.74c0.04-6.88-1.74-13.82-3.15-20.64c-3.77-18.23-7-36.58-8.63-55.1
		c-1.49-16.92-0.76-33.95-0.24-50.93c0.05-1.62,0.01-3.25,0.01-5.43c-10.99-1.39-21.92,0.22-32.69-2.18
		c-10.41-2.32-20.2-6.06-30.4-10.55c-0.85,3.25,1.42,4.68,2.29,6.56c0.98,2.12,2.04,4.19,2.97,6.33c10.3,23.82,2.06,40.5-15,52.01
		c-4.63,3.12-8.35,1.1-8.8-4.56c-0.16-1.99-0.07-4-0.05-6c0.07-6.16-2.24-11.02-7.79-14.02c-4.8-2.6-8.44-6.53-11.91-10.54
		c-2.83-3.28-4.49-6.98-4.62-11.74c-0.17-6.24-1.72-12.45-2.78-18.66c-0.22-1.31-1.11-2.35-2.92-3.18
		c-9.96,6.43-19.3,13.55-21.54,26.66c-0.39,2.28-1.32,4.47-1.8,6.75c-2.99,14.11-12.14,22.54-25.34,26.78
		c-6.11,1.96-9.54,5.47-10.61,11.75c-1,5.83-2.77,11.52-2.69,17.06c-2.89,2.07-4.98-0.27-7.25-0.01
		c-2.69,5.57,3.08,10.89,0.52,16.46c-10.58,0.75-13.23-1.18-30.34-22.16c-2.74,1.08-2.01,4.68-4.84,6.33
		c-10.33-5.46-15.54-15.07-17.63-25.96c-3.36-17.56-0.07-34.42,8.67-50.06c1.6-2.86,3.78-5.5,6.09-7.85
		c17.24-17.65,29.78-38.23,38.65-61.15c3.96-10.23,7.76-20.54,12.06-30.62c7.4-17.35,20.56-24.26,39.74-22.83
		c10.96,0.82,21.7,3.39,32.64,3.72c10.57,0.33,21.28,0.33,31.36-3.85c7.67-3.18,15.27-6.53,22.86-9.79
		c4.22-8.83,2.66-18.34,3.43-27.54c1.82-21.74,5.8-42.85,17.47-61.75c3.15-5.1,3.03-10.84,3.79-16.31
		c1.72-12.29,5.11-23.98,9.82-35.44c6.09-14.83,15.4-27.27,27.55-37.39c11.5-9.57,23.63-18.39,36.24-26.52
		c9.39-6.06,16.36-14.2,21.65-24.23c5.53-10.48,8.19-21.74,11.21-32.95c3.63-13.49,7.21-26.99,10.44-40.58
		c3.04-12.8,2.96-25.63-0.45-38.46c-2.98-11.21-7.65-21.98-8.98-33.64c-0.14-1.25-1.02-2.42-1.7-3.94
		c-3.18,4.48-6.06,8.85-9.28,12.97c-4.3,5.51-9.04,10.6-14.92,14.57c-5.84,3.93-9.19,9.37-9.53,16.62
		c-0.2,4.29-0.88,8.57-1.52,12.83c-2.03,13.44-8.96,24.22-18.79,33.2c-3.67,3.35-7.71,6.41-11.98,8.94
		c-5.76,3.42-9.42,8.23-11.71,14.08c0.17,0.9,0.08,1.7,0.44,2.14c4.89,5.97,8.74,12.35,10.28,20.12c0.62,3.15,2.52,6.18,4.33,8.94
		c5.71,8.69,4.46,17.03-1,25.14c-1.43,2.12-2.66,4.61-6.06,6.02c-4.54-8.59-12.46-14.87-16.35-24.63
		c-5.85,5.97-10.79,11.53-10.96,19.9c-0.05,2.25-0.58,4.85-1.81,6.66c-5.11,7.53-5.95,16-6.28,24.68c-0.03,0.88-0.62,1.75-0.91,2.52
		c-3.04,0.76-4.39-1.4-6.14-2.85c-1.46-1.22-2.44-3.23-4.81-3.15c-3.6,1.66-0.78,5.68-2.82,7.9c-0.62,0.11-1.34,0.5-1.79,0.29
		c-8.76-4.15-13.81-11.4-15.85-20.57c-1.53-6.84-5.91-12.51-6.78-19.7c-0.76-6.32-0.46-11.55,4.01-16.5
		c3.09-3.42,5.24-7.61,6.92-12.05c8.91-23.62,18.17-47.15,24.19-71.72c4.68-19.11,13.05-36.27,25.15-51.63
		c7.11-9.03,12.09-18.97,15.34-29.97c3.33-11.25,9.69-21.14,15.21-31.38c1.74-3.22,3.71-6.31,5.56-9.47
		c4.36-7.45,8.2-15.01,10.55-23.51c3.55-12.88,11.66-23.33,22.12-31.24c7.65-5.79,17.01-8.91,26.87-9.5
		c7.96-0.48,15.85-0.91,23.45-3.96c10.91-4.39,14.72-15.62,8.02-25.12c-1.71-2.42-3.52-5.27-5.99-6.56
		c-7.62-3.98-11.77-10.48-14.9-18c-0.51-1.22-1.26-2.34-2.08-3.81c-5.9-2.45-11.89-5.32-17.26-9.3
		c-10.59-7.85-15.34-17.83-11.4-31.69c5.1,1.78,7.08,7.33,11.48,9.15c4.2,1.74,8.74,3.22,14.11,2.32c-1.23-4.04-4.59-5.4-7.47-7.24
		c-8.35-5.32-14.21-12.86-19.26-21.22c-7.62-12.62-6.48-25.41-0.73-38.17c1.99-4.42,3.38-9.55,8.74-11.8
		c2.7,1.74,3.63,4.37,4.01,7.43c0.57,4.61,1.25,9.22,2.08,13.79c1.91,10.54,5.22,13.51,17.84,15.74
		c-4.24-7.16-7.98-14.04-10.89-21.41c-5.9-14.91-5.79-29.91-1.98-45.03c2.61-10.37,7.15-20.05,12.98-29.05
		c1.93-2.97,3.78-6.35,7.85-6.22c2.8,1.73,2.48,4.14,2.55,6.44c0.35,10.62-0.18,21.27,1.45,31.85c1.12,7.24,1.9,14.51,6.07,20.85
		c7.94,12.08,18.04,20.14,33.54,19.12c6.3-0.41,12.75-0.73,18.97,0.08c16.65,2.17,34.47-14.57,37.47-29.68
		c1.76-8.85,2.6-17.74,2.66-26.73c0.03-5.33,0.23-10.66,0.23-15.99c0-2.46,0.4-4.6,2.93-6.03c3.76,0.1,5.68,3.11,7.42,5.77
		c12.07,18.45,17.91,38.69,15.12,60.7c-1.3,10.23-5.46,19.83-10.76,28.81c-1.1,1.85-3.37,3.26-2.71,5.96
		c10.37-1.32,13.82-3.94,16.05-12.94c1.28-5.14,2.11-10.4,2.86-15.64c0.44-3.02,1.01-5.8,3.56-7.75c0.36,0.09,0.78,0.06,1,0.25
		c10.53,9.27,15.48,30.35,10.23,43.16c-4.81,11.74-12.42,21.17-23.05,28.12c-2.47,1.62-5.25,2.92-6.26,6.62
		c5.22,1.39,9.86-0.65,14.21-2.38c4.19-1.66,5.83-7.1,11.24-9.08c2.39,9.04,2.12,17.02-3.88,24.28
		c-5.2,6.28-11.67,10.83-19.01,14.23c-2.1,0.97-4.23,1.88-6.29,2.78c-1.41,2.85-2.91,5.45-4.02,8.21
		c-2.08,5.15-5.42,9.29-10.24,11.84c-3.74,1.98-6.22,5.04-8.49,8.25c-6.58,9.28-2.62,20.79,8.1,25.05
		c7.26,2.88,14.8,3.48,22.44,4.01c13.74,0.96,25.83,5.74,35.18,16.25c7.61,8.55,13.77,17.91,16.32,29.32
		c0.94,4.21,2.83,8.03,5.06,11.83c6.75,11.46,12.97,23.24,19.48,34.85c4.26,7.61,5.88,16.2,9.25,24.17
		c3.43,8.11,8.53,15.02,13.69,21.92c10.71,14.32,17.99,30.06,22.46,47.45c4.79,18.64,10.53,37.07,18.1,54.85
		c2.47,5.8,4.48,11.8,6.46,17.79c1.49,4.53,3.72,8.77,6.96,12c3.76,3.75,4.36,8.01,4.25,12.71c-0.16,7.38-8.94,31.21-13.6,37.02
		c-1.03,1.29-2.23,2.53-3.58,3.45C1397.44,555.31,1395.51,557.27,1391.48,557.78z M1348.94,1453.76c6.55-1.12,8.11-6,9.53-10.65
		c4.02-13.17,4.94-26.82,3.97-40.38c-1.28-17.9-2.2-35.66,1.72-53.36c1.83-8.28,5.3-15.68,11.16-21.86c2.74-2.9,5.7-5.59,8.42-8.51
		c1.21-1.3,3.44-2.33,1.92-5.4c-20.58-2.24-39.71-10.05-57.79-20.1c-1.58,2.03-0.8,3.25-0.41,4.47
		c8.42,26.64,13.13,54.05,17.62,81.55c1.5,9.17,1.88,18.42,3.26,27.6c1.41,9.33,3.14,18.86,0.84,28.64
		C1347.87,1441.31,1348.94,1447.4,1348.94,1453.76z M1051.84,1292.52c-20.21,11.49-39.59,18.8-61.52,21.44
		c3.66,5.34,7.72,8.77,11.46,12.44c6.39,6.27,10.57,13.96,12.16,22.49c2.49,13.38,3.79,26.9,2.55,40.66
		c-0.57,6.25-2.09,12.62-1.34,18.78c0.77,6.3,0.58,12.6,1.25,18.85c0.7,6.6,1.87,13.19,4.45,19.36c1.51,3.61,3.37,7.27,8.46,6.89
		c1.99-4.23-0.46-8.04-0.59-11.91c-0.48-13.98,0.39-27.75,1.83-41.69c2.77-26.82,8.01-53.11,13.83-79.33
		C1046.29,1311.83,1048.93,1303.32,1051.84,1292.52z"/>
	<path class="st0" d="M469.94,1787.56c0.74,2.12-0.96,2.88-2.18,3.88c-10.37,8.42-21.51,15.7-33.24,22.04
		c-21.16,11.44-43.42,20.34-66.73,26.14c-18.68,4.65-37.6,8.26-56.78,10.54c-17.63,2.09-35.31,1.87-52.84,0.93
		c-31.86-1.71-63.58-5.75-94.11-15.6c-20.56-6.63-40.35-14.95-58.79-26.84c-18.27-11.78-35.69-24.41-50.7-40.02
		c-15.48-16.1-25.94-35.03-30.29-57.36c-4.65-23.83,1.66-44.82,14.98-64.11c13.77-19.94,32.4-34.04,54.54-43.82
		c36.43-16.09,74.47-26.64,113.66-32.99c17.02-2.76,34.19-4.88,51.53-5.07c6.93-0.08,13.89-2.1,20.84-1.13
		c14.17,1.97,28.49,1.06,42.71,2.88c10.14,1.3,20.54,0.8,30.78,2.35c15.43,2.34,30.87,4.47,46.14,7.89
		c14.9,3.33,29.92,6.07,44.73,9.93c17.72,4.62,35.28,9.69,52.27,16.49c26.54,10.62,53.04,21.36,79.3,32.64
		c24.44,10.5,48.58,21.71,72.8,32.72c4.53,2.06,8.84,4.63,13.22,7c28.48,15.43,58.77,26.54,89.08,37.65
		c26.89,9.87,54.15,18.53,82.5,22.97c16.38,2.56,32.91,4.14,49.6,1.72c6.21-0.9,12.64-0.17,18.97-0.36
		c36.07-1.04,69.79-9.99,99.27-31.44c25.45-18.51,45.36-41.68,58-71c7.67-17.79,14.61-35.67,18.12-54.76
		c2.88-15.69,4.98-31.48,5.55-47.44c0.19-5.31,0.4-10.57,1.08-15.88c0.97-7.56-0.31-15.21-0.83-22.84
		c-0.8-11.58-0.28-23.26-0.3-34.89c-0.01-4.33,0.21-8.67,0.05-12.99c-1.02-28.16,3.77-55.61,9.97-82.89
		c7.41-32.61,19.63-63.48,34.13-93.51c13.89-28.77,27.85-57.49,41.62-86.32c9.8-20.5,15.08-42.44,19.74-64.53
		c0.6-2.86,0.33-5.91,1.09-8.94c1.02,5.43,0.81,10.99,1.92,16.41c5.13,24.87,13.42,48.6,24.72,71.33
		c16.74,33.67,33.72,67.23,48.39,101.87c14.47,34.17,24.13,69.66,28.36,106.58c1.7,14.83,3.61,29.63,5.13,44.48
		c0.61,5.94,0.31,11.98,0.57,17.96c0.5,11.61,2.02,23.26,1.5,34.83c-1.56,35.14-1.87,70.44-9.68,104.99
		c-7.65,33.84-17.7,67-34.64,97.39c-15.09,27.09-33.9,51.77-55.04,74.49c-18.57,19.96-40.97,34.93-65.05,47.41
		c-36.04,18.68-74.51,30.05-114.23,37.66c-18.29,3.5-36.76,5.72-55.26,7.09c-17.87,1.32-35.81,1.32-53.78-0.62
		c-12.87-1.39-25.77-2.49-38.57-4.47c-42.99-6.68-84.33-18.68-123.38-38.14c-24.46-12.19-47.91-26.05-71.02-40.63
		c-16.64-10.5-32.15-22.51-48.27-33.7c-11.47-7.97-23.08-15.76-34.93-23.16c-19.21-11.98-37.96-24.65-56.97-36.94
		c-26.3-17-54.13-31.17-82.64-44.2c-25.47-11.64-51.35-21.94-78.24-29.71c-23.05-6.66-46.49-10.68-70.51-12.42
		c-17.99-1.31-35.97-1.59-53.85-0.81c-43.52,1.89-85.63,10.72-125.39,29.22c-7.54,3.51-15.09,6.9-22.27,11.18
		c-14.35,8.55-23.84,21.05-30.24,36.09c-5.37,12.62-5.33,25.79-2.52,38.97c2.84,13.33,9.7,24.3,18.86,34.52
		c20.26,22.59,44.78,38.66,72.8,49.31c14.87,5.65,30.47,9.36,46.24,12c28.35,4.74,56.92,5.46,85.51,3.67
		c20.85-1.3,41.72-2.98,62.45-5.58c36.97-4.64,73.11-12.78,107.1-28.71c1.2-0.56,2.46-1.01,3.69-1.51L469.94,1787.56z
		 M1188.71,1252.87c0.85,21.01-0.35,40.51,1.22,60.1c1.73,21.49,2.47,43.07,4.16,64.59c1.33,16.89,1.34,33.88,1.78,50.79
		c0.61,23.57,0.72,47.19-0.7,70.83c-1.35,22.59-4.02,44.98-7.1,67.32c-4.63,33.61-11.84,66.72-22.59,98.98
		c-0.57,1.7-1.91,3.5,0.11,5.19c2.46-1.23,2.56-3.74,3.34-5.89c6.86-18.8,11.32-38.24,15.4-57.76c4.62-22.11,7.96-44.43,10.83-66.84
		c2.88-22.42,4.85-44.89,4.94-67.47c0.07-16.94-0.33-33.89-0.89-50.84c-0.89-26.91-2.38-53.74-4.05-80.6
		c-1.19-19.21-3.17-38.45-2.32-57.77c0.18-3.99,0.2-8.01-0.03-11.99C1192.48,1265.63,1192.44,1259.66,1188.71,1252.87z"/>
	<path class="st0" d="M1325.65,838.86c1.06-0.24,2.05,0.04,2.55,0.95c0.79,1.45,1.51,2.98,1.99,4.56
		c2.86,9.26,6.78,17.52,17.99,18.69c1.29,11.06,0.62,21.35,0.56,31.6c-0.1,18.08-4.63,35.5-8.53,53c-0.29,1.28-0.78,2.55-1.36,3.73
		c-5.79,11.66-6.53,24.09-6.2,36.82c0.22,8.64,2.95,16.21,7.58,23.3c0.9,1.38,1.63,2.87,2.39,4.24c-1.25,2.68-3-0.8-4.92,1.29
		c4.12,3.96,8.31,8.11,13.44,10.6c15.98,7.74,30.31,17.93,44.25,28.72c13.92,10.78,27.96,21.36,40.99,33.3
		c25.69,23.56,48.07,49.66,65.36,80.03c7.74,13.6,14.37,27.72,20.98,41.88c3.96,8.49,7.07,17.31,9.1,26.31
		c2.19,9.72,1.76,19.89,0.08,29.77c-1.5,8.82-3.77,17.52-5.49,26.31c-0.97,4.92-2.38,9.6-4.76,14.04
		c-6.58,12.27-16.37,18.38-30.66,18.26c-12.6-0.11-25.31,0.4-37.82,1.54c-14.52,1.32-28.61,5.69-40.67,14.79
		c-2.82,2.13-4.3,5.02-5.53,8.13c-4.92,12.44-7.62,25.35-8.83,38.69c-1.39,15.28-4.6,30-12.84,43.5
		c-6.01,9.84-11.74,20.01-14.35,31.56c-1.73,7.65-6.52,13.69-11.88,19.21c-4.4,4.52-8.78,9.05-12.07,14.78
		c4.15,7.75,11.47,11.31,19.16,13.03c10.24,2.3,20.7,3.92,31.4,2.82c4.59-0.47,9.14,1.33,13.57,2.75c2.12,0.68,2.99,2.49,3.96,4.25
		c2.38,4.32,4.79,8.62,7.19,12.92c-2.96,2.03-4.8-0.28-6.64-1.17c-6.19-2.99-12.71-4.22-19.4-3.53
		c-16.91,1.74-33.02-1.45-49.23-7.22c-3.97,3.29-3.44,10.12-9.37,12.66c-5.2-10.11-6.33-21.55-11.9-33.01
		c3.46,1.48,5.19,2.22,7.46,3.19c2.12-2.61,2.65-5.81,3.37-8.96c2.68-11.72,8.62-21.54,17.73-29.33c2.33-1.99,4.4-3.92,5.52-6.86
		c1.2-3.17,3.84-5.37,5.95-7.93c2.05-2.48,5.12-4.45,4.68-8.35c1.12,0.13,1.65-0.47,1.58-1.49c-0.02-0.27-0.92-0.77-0.96-0.72
		c-0.66,0.67-0.97,1.46-0.42,2.37c-2.61-1.31-3.95,1.5-6.03,1.87l0.23,0.25c-0.55-4.84,1.41-9.16,3.17-13.39
		c5.54-13.34,8.19-27.37,10.12-41.53c1.25-9.2,3.33-18.3,2.92-27.74c-0.17-3.85,1.06-7.9,2.31-11.64c2.68-8,4.15-16.09,3.35-24.85
		c3.43-4.78,7.39-9.12,12.67-12.3c4.71,1.92,2.98,7.21,6.08,10.47c2,0.04,3.52-1.79,5.35-2.91c13.49-8.26,27.54-14.07,43.82-14.99
		c11.17-0.63,22.62-0.03,33.59-3.35c14.51-4.39,25.18-12.87,30.04-27.68c0.31-0.94,0.32-2.03,0.8-2.86
		c6.38-11.3,5.6-23.73,5.73-36.01c0.02-1.98-0.07-4.07-0.67-5.94c-3.14-9.76-6.35-19.5-9.76-29.16c-1.33-3.75-3.65-7.16-4.84-10.94
		c-2.61-8.31-7.89-14.68-14.35-20.02c-11.78-9.75-23.88-19.09-37.62-26.07c-9.39-4.77-17.04-11.1-20.67-21.68
		c-2.69-7.84-6.55-15.27-9.83-22.91c-8.6-20.01-24.38-30.11-45.48-32.1c-12.22-1.15-24.53-1.77-36.75,1.11
		c-11.46,2.7-22.34,6.4-31.57,14.08c-3.05,2.54-6.52,4.58-9.83,6.8c-6.38,4.27-12.08,9.07-16.85,15.33
		c-4.73,6.2-10.45,11.93-19.36,12.12c-1.53,0.03-3.05,1.07-5.22,1.88c-2.03-6.45-3.95-12.57-4.42-19.23c0.7-0.65,1.3-1.57,2.14-1.94
		c9.52-4.22,17.56-9.93,24.3-18.28c5.53-6.84,12.74-12.73,21.95-14.88c2.76-0.64,4.37-2.96,6.56-4.43c7.25-4.9,14.81-8.46,23.74-9.7
		c7.72-1.07,15.19-3.97,23.54-6.27c-6.23-6.7-11.75-13.32-17.96-19.21c-20.46-19.43-26.48-43.82-24.83-70.87
		c0.26-4.24,1.53-8.53,2.96-12.58c4.24-12.08,5.45-24.72,5.94-37.25c0.47-11.97,1.74-23.86,2.51-35.79
		c0.67-10.47-0.29-20.55-2.63-30.64L1325.65,838.86z"/>
	<path class="st0" d="M1027.54,1026.87c0.64,1.35,0.34,2.36-0.72,3.49c-5.29,5.65-11.64,9.91-18.08,14.06
		c-8.4,5.41-16.41,11.3-24.1,17.71c-14.34,11.95-22.43,27.88-29.14,44.67c-2.59,6.49-5.27,12.86-8.51,19.08
		c-3.04,5.85-4.83,12.34-7.41,19.2c-4.76,1.92-10.22,3.53-15.1,6.2c-16.94,9.25-33.59,19.01-47.8,32.34
		c-8.47,7.95-14.32,17.4-16.38,28.91c-0.72,4.01-2.33,7.62-3.85,11.27c-3.56,8.53-3.55,17.26-3.13,26.38
		c0.48,10.57,4.8,19.88,7.41,29.74c0.57,2.15,2.23,4.05,3.56,5.94c10.04,14.29,24.52,19.91,41.26,20.1
		c8.67,0.1,17.25,1.08,25.81,1.89c12.08,1.15,22.97,6.43,33.36,12.56c2.54,1.5,4.95,3.22,7.89,5.15c2.91-3.34,1.41-8.34,5.24-10.98
		c5.84,1.77,8.96,7.1,13.29,11.25c-1.17,8.98,0.82,17.38,3.66,25.57c1.34,3.86,1.82,7.74,2.09,11.72
		c1.62,24.27,4.87,48.21,13.87,71.04c1.21,3.08,2.52,6.19,1.75,9.65l0.21-0.17c-2.62,1.31-3.95-1.47-6.01-1.9
		c-0.14-0.21-0.25-0.46-0.43-0.62c-0.08-0.07-0.31,0.02-0.47,0.03c0.37,0.11,0.75,0.23,1.12,0.34c-0.95,4.27,2.18,6.71,4.38,9.49
		c2.87,3.61,6.67,6.51,7.97,11.29c0.31,1.16,1.49,2.23,2.52,3.01c11.13,8.42,17.44,19.75,20.28,33.22c0.34,1.61,0.87,3.19,1.36,4.77
		c0.09,0.3,0.39,0.53,0.59,0.8c2.2,2.24,4-1.21,6.45-0.63c-2.52,10.85-5.78,21.15-9.72,32.01c-5.63-2.84-6.03-8.74-9.48-13.22
		c-8.13,3.14-16.71,5.29-25.49,6.62c-5.6,0.85-11.28,1.8-16.88,1.11c-11.21-1.39-21.85-0.19-31.99,5.79c1.05-5.41,5.1-14.13,7.56-17
		c0.93-1.1,2.04-1.62,3.35-1.9c5.12-1.08,10.02-2.33,15.52-2.33c12.81,0,25.85-0.33,37.69-6.71c3.88-2.09,7.37-4.46,9.78-8.85
		c-1.63-5.39-5.87-9.24-9.75-13.12c-7.7-7.69-13.35-16.39-15.76-27.11c-2.3-10.26-8.46-18.78-13.57-27.61
		c-6.87-11.87-9.85-24.63-11.37-37.85c-1.56-13.55-3.3-26.96-8.19-39.84c-2.22-5.85-5.32-10.23-10.88-13.55
		c-13.46-8.05-27.9-11.96-43.43-12.47c-11.96-0.39-23.92-0.76-35.87-1.41c-8.77-0.48-15.94-4.29-21.18-11.48
		c-4.12-5.66-7.54-11.49-8.72-18.71c-1.66-10.14-4.67-20.06-6.26-30.2c-1.6-10.17-2.18-20.52,1.13-30.57
		c14.23-43.14,35.75-82.18,66.04-116.17c18.41-20.66,38.64-39.3,61-55.74c13.67-10.04,26.81-20.78,41.47-29.39
		c4.01-2.35,8.12-4.52,12.19-6.77L1027.54,1026.87z"/>
	<path class="st0" d="M1116.74,793.43c18.78,8.52,36.79,16.55,53.59,28.21c-3.61,5.68-6.5,10.85-10,15.57
		c-3.8,5.13-3.68,11.24-5.22,16.87c0.52,2.83,2.42,4.73,4.12,6.76c1.71,2.03,3.47,4.04,5.02,6.18c9.06,12.5,7.77,24.97-4.25,36.98
		c-11.49-6.69-23.15-13.48-34.69-20.2C1120.17,853.96,1116.41,824.5,1116.74,793.43z"/>
	<path class="st0" d="M1261.17,794.47c0.34,27.83-2.86,55.34-7.12,82.76c-0.76,4.91-3.08,8.2-7.75,10.61
		c-9.67,5.01-18.97,10.74-28.29,16.1c-11.66-11.66-13-24.5-4.2-36.93c0.96-1.35,2-2.64,2.99-3.98c2.13-2.88,5.86-4.98,5.79-8.98
		c-0.1-5.31-1.08-10.58-3.95-15.23c-3.32-5.36-6.75-10.65-10.11-15.93C1215.05,815.12,1244.41,799.29,1261.17,794.47z"/>
	<path class="st0" d="M1125.52,710.22c16.58,4.49,31.65,11.1,46.91,18.89c-3.45,6.96-7.33,13.09-10.12,19.78
		c-2.53,6.06-3.08,10.85,2.39,16.06c5.28,5.03,6.3,11.89,4.68,19.37c-1.82,8.42-5.69,15.37-11.92,22.05
		c-12.98-7.18-26.16-13.28-39.3-19.04C1116.22,778.13,1120.64,731.18,1125.52,710.22z"/>
	<path class="st0" d="M1252.53,710.67c3.77,12.84,8.84,63.25,7.66,76.25c-12.59,6.46-26.28,11.55-39.16,19.5
		c-8.86-8.52-13.39-18.29-12.72-30.37c0.28-4.96,2.43-9.22,5.97-12.27c4.8-4.12,4.25-8.22,2.11-13.36
		c-2.92-7.03-6.61-13.66-10.36-20.12C1214.76,723.53,1238.61,713.49,1252.53,710.67z"/>
	<path class="st0" d="M1294.9,560.81c2.25,0.56,2.73,2.67,3.41,4.38c2.33,5.88,4.63,11.76,8.13,17.08
		c2.35,3.57,2.68,7.53,1.49,11.52c-1.45,4.86-1.81,9.79-1.76,14.81c0.18,19.67-4.98,37.4-18.9,51.95c-0.91,0.96-1.72,2.02-2.52,3.07
		c-0.19,0.24-0.18,0.63-0.28,1.02c8.9,6.51,20.57,9.32,26.71,19.52c-0.95,8.71-1.89,17.23-2.89,26.4c-3.64-1.64-5.56-4.7-7.98-7.09
		c-3.56-3.5-6.72-7.43-10.49-10.68c-10.07-8.67-21.44-13.2-35.24-9.22c-4.69-7.61-3.83-16.07-5.79-24.38
		c6.46-3.18,11.78-7.69,17.58-11.29c11.7-7.25,16.92-18.45,20.69-30.6c3.74-12.06,5.95-24.48,5.83-37.22
		c-0.05-5,0.02-9.99,0.02-14.99C1292.89,563.36,1293.22,561.8,1294.9,560.81z"/>
	<path class="st0" d="M1084.1,561.27c1.39,2.72,0.97,6.06,0.69,9.13c-1.24,13.79,2.13,27.08,4.2,40.49
		c1.44,9.32,6.48,17.36,10.38,25.76c0.8,1.73,2.39,3.27,3.96,4.44c7.96,5.91,14.87,13.33,25.01,16.97
		c0.65,8.72-1.05,16.88-4.31,25.19c-5.62-0.62-10.82-1.76-16.06-0.69c-8.79,1.78-15.88,6.5-22.23,12.61
		c-5.17,4.98-10.42,9.89-16.24,15.42c-1.54-8.7,0-17.41-3.04-25.5c6.16-10.82,17.6-13.96,27.48-20.38
		c-1.74-2.28-3.47-4.92-5.58-7.23c-11.08-12.16-15.74-26.8-16.01-42.86c-0.12-7.36-0.59-14.62-2.27-21.74
		c-0.82-3.48-0.72-6.76,1.07-9.55c3.99-6.22,6.34-13.16,9.4-19.8C1081.07,562.36,1081.62,561.04,1084.1,561.27z"/>
	<path class="st0" d="M1036.66,1015.89c0.1-0.96-0.14-2.19,0.36-2.83c6.75-8.52,8.56-18.76,8.87-29c0.28-9.22-0.76-18.81-4.24-27.35
		c-2.67-6.53-4.55-13.13-6.24-19.86c-5.95-23.72-7.23-47.85-6.3-71.92c0.71-0.72,1.11-1.47,1.65-1.61
		c9.48-2.29,14.2-8.96,16.78-17.79c0.83-2.84,1.67-5.77,4.01-7.94c1.69,2.68-0.11,5.13-0.76,7.43c-3.35,11.88-0.85,23.79-0.2,35.62
		c0.68,12.25,1.69,24.49,2.42,36.75c0.39,6.59,1.45,13.21,3.73,19.5c5.14,14.14,5.64,28.87,3.23,43.33
		c-2.63,15.83-7.98,30.92-21.11,41.76c-1.31,1.08-2.51,2.18-4.38,1.73l0.17,0.19c-0.15-2.37,1.79-3.23,3.21-4.46
		c1.16-1.01,2.86-1.73,2-3.8l0.75-0.18l-0.51,0.07c-1.21,0.06-2.42,0.11-3.63,0.17L1036.66,1015.89z"/>
	<path class="st0" d="M1225.78,503.29c-1.1-7.19-2.27-12.28-2.59-17.43c-0.85-13.97-4.23-27.54-6.15-41.33
		c-0.29-2.11,0.15-3.91,0.72-5.82c5.8-19.52,8.41-39.63,10.15-59.8c1.06-12.25,0.78-24.62,0.9-36.93c0.05-4.71,0.22-9.29,2.33-13.62
		c1.18-2.43,1.68-5.04,1.69-7.75c0.1-15.97,0.78-32.02-3-47.68c-1.08-4.49-0.09-7.82,2.29-11.14c5.12-7.13,12.02-12.22,19.64-16.37
		c2.9-1.58,6.43-2.37,8.01-5.62c2.28-4.69,6.11-4.45,10.22-3.68c3,0.56,5.63,1.82,7.68,3.97c-0.27,5.62-3.97,8.52-7.73,11.22
		c-1.87,1.34-4.07,2.28-6.22,3.16c-10.92,4.47-17.45,12.71-21.37,24.9c5.76-1.47,9.89-5.16,15.08-5.36
		c4.88-0.19,9.8-1.51,15.25,0.46c-4.1,3.85-1.71,7.92-0.27,11.34c-1.66,0.81-2.36,1.46-2.78,1.31c-6.41-2.24-11.41-0.01-16.44,4.09
		c-4.74,3.85-8.35,8.54-12.34,13.4c0,6.11,0.09,12.43-0.03,18.74c-0.11,5.96,0.04,11.93-3.3,17.38c-1.78,2.91-1.52,6.46-1.3,9.79
		c0.88,13.7-0.26,27.22-3.51,40.53c-2.54,10.4-1.43,21.2-3.85,31.6c-4.36,18.73-2.16,37.79-2.64,56.72
		C1226.03,486.63,1227.41,493.92,1225.78,503.29z"/>
	<path class="st0" d="M1158.88,1083.69c-9.5-6.19-18.38-11.96-27.52-17.92c1.35-26.37,2.71-52.75,4.07-79.19
		c6.68,1.97,22.94,12.07,36.48,22.65c-0.95,5.84-4.22,10.9-7.04,16.05c-2.72,4.97-3.6,9.09,1.55,13.12c2.01,1.57,3.34,4.12,4.7,6.39
		c3.26,5.44,3.79,11.02,1.57,17.19C1169.82,1069.97,1165.49,1076.85,1158.88,1083.69z"/>
	<path class="st0" d="M1246.97,1065.62c-9.9,6.44-18.5,12.04-27.36,17.81c-7.87-6.42-12.39-14.75-14.94-24.14
		c-1.88-6.92,0.57-13.12,4.8-18.61c2.01-2.6,4.34-4.96,6.7-7.63c-2.2-8.46-8.29-15.19-10.14-24.26
		c11.59-7.64,23.15-15.25,35.82-23.6C1244.98,1012.68,1244.11,1039.29,1246.97,1065.62z"/>
	<path class="st0" d="M1151.9,503.74c-1.55-3.39-1.24-6.12-0.93-8.66c2.14-17.82,1.42-35.72,1-53.55
		c-0.23-9.86-2.91-19.65-4.22-29.5c-2.34-17.72-4.51-35.45-6.63-53.2c-0.19-1.56,0.68-3.22,0.82-4.85
		c0.33-3.97,0.91-8.02-0.94-11.78c-4.25-8.66-4.12-17.92-4.22-27.23c-0.05-4.18,1.65-8.68-1.28-12.58
		c-4.64-6.17-9.95-11.66-16.81-15.35c-3.66-1.97-7.66-0.19-10.91,0.17c-2.64-3.1,0.28-4.94,0.16-7.05c-0.1-1.89-0.96-3.74-1.6-6.02
		c9.91-1.7,19.1-0.42,28.46,5.86c-0.56-8.36-4.78-13.65-9.47-18.53c-3.23-3.36-7.35-5.59-11.72-7.34c-4.04-1.62-7.7-3.85-10.6-7.24
		c-1.6-1.86-2.59-3.81-2.38-6.79c2.44-3.13,6.26-4.03,10.26-4.37c2.79-0.24,5.37,0.41,6.81,3.12c1.13,2.14,2.5,4.16,4.84,4.75
		c6.44,1.62,10.5,6.78,15.77,10.12c3.45,2.19,5.78,5.42,8.07,8.71c2.24,3.23,2.72,6.59,1.88,10.42c-3.3,15.02-3.67,30.27-3.4,45.56
		c0.04,2.33,0.06,4.64,1.06,6.84c3.13,6.86,3.04,14.15,2.98,21.5c-0.18,23.62,2.44,47.01,6.1,70.3c0.41,2.62,0.75,5.35,1.76,7.75
		c5.26,12.54,4.15,25.29,1.34,38.04c-1.86,8.45-2.65,17.02-3.76,25.57C1153.7,493.27,1152.8,498.1,1151.9,503.74z"/>
	<path class="st0" d="M1157.99,992.01c-7.7-4.93-14.95-9.57-22.71-14.54c-1.21-27.73-6.03-55.45-8.58-83.64
		c8.11,1.74,31.06,14.86,42.87,24.35c-1.15,4.63-3.69,8.9-6.23,13.05c-2.71,4.42-3.72,9.15-4.27,13.86
		c1.05,2.97,3.75,4.06,5.38,6.13c5.26,6.71,7.07,14.01,4.7,22.4C1167.09,980.85,1162.75,986.45,1157.99,992.01z"/>
	<path class="st0" d="M1251.15,892.3c-2.05,29.83-7.12,57.55-8.56,85.23c-7.71,4.97-14.91,9.62-22.05,14.23
		c-16.1-16.68-16.6-29.53-1.97-45.96c0.56-5.14-1.11-9.72-3.59-14.17c-2.39-4.3-4.58-8.72-7.23-13.81
		C1221.84,909.2,1234.96,900.39,1251.15,892.3z"/>
	<path class="st0" d="M1212.91,719.08c-2.55-3.6-4.41-5.93-5.95-8.46c-3.84-6.28-4.46-12.88,0.86-18.36
		c4.88-5.03,4.51-9.68,1.53-15.21c-3.44-6.39-6.56-12.95-10.19-20.16c13.08-6.52,26.14-11.69,40.84-15.95
		c2.45,21.48,9.15,41.23,12.25,62.52C1239.07,708.34,1225.99,712.68,1212.91,719.08z"/>
	<path class="st0" d="M1178.51,657.74c-3.11,6.11-6.22,12.32-9.42,18.48c-2.99,5.74-4.08,10.94,1.34,16.29
		c5.23,5.16,4.65,11.45,1.11,17.46c-1.67,2.83-3.76,5.42-6.13,8.78c-12.8-4.9-25.02-10.8-37.7-14.22
		c-2.49-3.64-1.09-6.94-0.43-10.07c2.53-12.02,5.33-23.99,7.91-36c0.76-3.56,1.21-7.2,1.64-10.82c0.24-2,0.38-3.95,1.95-5.32
		C1147.64,642.95,1169.69,651.48,1178.51,657.74z"/>
	<path class="st0" d="M993.4,663.18c8.97,12.71,21.23,18.91,34.68,23.35c12.39,4.09,24.35,8.91,33.06,19.33
		c1.51,1.81,2.94,3.42,3.06,6.01c0.59,13.58,1.33,27.15,1.98,40.72c0.04,0.9-0.19,1.81-0.46,4.15c-3.38-9.27-7.11-16.88-12.36-23.71
		c-4.1-5.34-8.71-9.85-14.7-13.13c-10.52-5.75-21.26-10.88-32.83-14.2c-4.83-1.38-9.22-3.79-13.26-6.74
		c-4.67-3.42-6.98-7.91-5.49-13.81C988.85,678.1,989.91,670.84,993.4,663.18z"/>
	<path class="st0" d="M1384.84,663.2c3.63,10.2,6.18,19.04,6.38,28.54c-3.93,8.19-11.61,11.55-19.58,14.08
		c-11.16,3.54-21.75,8.19-31.91,13.98c-13.17,7.51-20.87,19.13-25.46,33.17c-0.2,0.61-0.21,1.29-0.45,1.89
		c-0.09,0.24-0.55,0.34-1.08,0.65c-1.38-11.75,0.25-23.31,0.71-34.89c0.03-0.65,0.55-1.31,0.49-1.92
		c-1.32-12.55,7.48-18.4,16.29-23.79c5.92-3.62,12.49-6.18,19.2-8.26C1362.99,682.46,1375.23,676.12,1384.84,663.2z"/>
	<path class="st0" d="M1360.59,383.71c-0.82-0.46-1.94-0.72-2.4-1.41c-5.23-7.94-13.19-11.7-21.77-14.75
		c-8.51-3.03-16.38-7.39-23.06-13.53c-3.66-3.36-6.78-7.29-10.21-10.9c-0.89-0.94-2.03-1.65-3.57-2.87c-1.86,3.4-3.76,6.4-5.21,9.61
		c-2,4.43-5.14,6.83-10.72,6.61c-2.5-2.44-4.82-5.54-6.05-9.89c11.78-5.63,12.37-15.94,10.44-27c-1.49-8.56-4.22-16.78-9.09-24.06
		c-3.77-5.63-3.34-11.11-0.3-17.56c4.57,2.28,7.45,5.67,9.87,9.51c3.55,5.63,6.55,11.54,9,17.74c0.85,2.15,1.91,4.26,3.16,6.22
		c1.94,3.05,4.51,3.7,7.67,1.97c4.1-2.25,7.13-5.71,9.89-10.34c4.26,4.92,6.88,9.66,8.58,15.08c-3.91,6.16-9.51,9.28-16.48,10.76
		c-0.85,3.43,1.6,5.54,3.46,7.59c5.62,6.21,12.33,11.1,19.66,15.14c3.03,1.67,12.87,10.26,14.84,13.17
		c4.22,6.25,10.04,11.5,12.08,19.14L1360.59,383.71z"/>
	<path class="st0" d="M1020.65,379.94c2.71-8.35,8.47-14.54,14.28-20.8c3.9-4.21,8.68-6.86,13.46-9.74
		c10.6-6.38,15.14-10.98,20.17-19.89c-6.86-2.17-13.55-4.76-17.43-11.51c1.96-5.46,4.7-10.32,8.4-15.14c3,3.87,5.47,7.88,9.62,10.23
		c3.76,2.13,6.22,1.71,8.4-1.94c1.52-2.55,2.46-5.44,3.79-8.11c3.98-8.02,7.25-16.51,14.23-22.65c0.98-0.86,1.83-1.96,3.82-1.93
		c3.29,5.58,3.84,10.91-0.23,17.01c-4.82,7.23-7.27,15.52-9.05,24.11c-2.39,11.5-1.03,21.12,10.4,26.94
		c-1.11,4.07-3.45,6.85-5.66,9.7c-5.48,0.85-8.84-1.41-11.06-6.27c-1.48-3.24-2.78-6.73-6.09-9.61c-3.18,3.18-6.58,5.91-9.14,9.26
		c-5.88,7.69-13.96,12.14-22.39,16.15c-3.6,1.71-7.31,3.22-11.06,4.55c-4.81,1.7-9.07,4.01-12.05,8.35
		c-0.45,0.65-1.69,0.76-2.57,1.12C1020.45,379.76,1020.65,379.94,1020.65,379.94z"/>
	<path class="st0" d="M1169.47,645.94c-10.09-3.78-19.7-7.39-29.24-10.96c-1.59-1.69-1.3-3.74-1.33-5.7
		c-0.19-10.62-0.61-21.24-0.42-31.85c0.1-5.86,0.29-11.87,2.99-17.36c8.72,2.88,25.49,12.12,33.23,18.36
		c-0.35,3.85-2.83,7.11-4.53,10.59c-1.78,3.64-2.13,6.89,0.69,10.1c0.65,0.74,1.13,1.64,1.63,2.5
		C1178.75,632.33,1178.41,635.45,1169.47,645.94z"/>
	<path class="st0" d="M1209.53,615.11c-0.63-6.19-4.64-10.63-6.5-16.87c9.47-7.94,21.58-11.9,31.64-18.49
		c3.42,1.11,3.4,3.61,3.69,5.83c0.86,6.52,0.94,13.04,0.62,19.65c-0.47,9.59-0.12,19.21-0.12,29.3
		c-10.49,3.94-20.58,7.73-30.16,11.32c-1.06-0.62-1.4-0.74-1.62-0.97c-6.96-7.33-7.33-15.08-1.56-23.29
		C1207.04,619.43,1208.31,617.09,1209.53,615.11z"/>
	<path class="st0" d="M1212.74,82.98c4.27-2.89,8.3-5.78,12.5-8.4c3.79-2.36,5.09-7.83,10.62-8.18c0.89-0.06,1.95-2.6,2.38-4.14
		c3.53-12.79,6.08-25.75,5.97-39.1c-0.03-3.97,0-7.94,0-11.82c3.4-0.71,3.53,1.82,4.41,3.36c9.23,16.02,12.23,33.46,11.52,51.67
		c-0.32,8.13-3.47,15.49-7.39,22.47c-2.59,4.62-5.5,9.06-8.28,13.57c-2.73,4.42-12.68,4.51-14.96,0.27
		C1225.29,94.89,1217.95,89.93,1212.74,82.98z M1236.42,97.69c0.88-0.34,2.05-0.43,2.61-1.05c9.26-10.36,15.87-22.06,17.08-36.17
		c0.36-4.22,2.02-8.68-0.51-13.26c-0.59,1.04-1.17,1.59-1.18,2.15c-0.18,15.47-5.49,29.14-14.48,41.54
		c-1.54,2.13-3.48,4.07-3.3,7.02c-1.02,0.3-1.18,0.54-0.47,0.67C1236.21,98.59,1236.34,98,1236.42,97.69z"/>
	<path class="st0" d="M1165.54,82.93c-5.5,6.95-12.5,12.2-17.07,19.75c-2.85,4.71-11.34,4.32-14.81-0.41
		c-6.9-9.42-13.59-19.39-14.95-31.17c-2.5-21.65,1.24-42.26,13.39-60.81c2.87,0.42,2.01,2.45,2.06,3.84
		c0.29,7.97,0.45,15.95,0.7,23.93c0.27,8.72,3.4,16.84,5.4,25.2c0.36,1.51,0.56,2.98,2.9,3.21c3.21,0.32,4.73,3.43,6.8,5.47
		C1154.49,76.4,1160.16,79.25,1165.54,82.93z M1141.68,99.06c-0.24-3.83-1.78-5.81-3.3-7.88c-8.83-12.03-14.48-25.2-14.25-40.45
		c0.02-1.53-0.22-3.35-3.13-2.64C1121,67.5,1126.49,84.6,1141.68,99.06z"/>
	<path class="st0" d="M1475.82,747.8c13.59-3.47,25.47-5.4,37.75,0.66c4.52,2.23,6.54,5.35,8.07,9.29c3,7.74,5.95,15.52,8.37,23.45
		c4.2,13.72,10.54,26.5,16.63,39.38c3.86,8.16,9.45,15.22,15.23,22.11c0.97,1.15,2.76,1.91,2.18,4.66
		c-8.61-6.13-15.83-13.03-21.06-21.95c-6.07-10.34-13.01-20.01-22.23-28.13c-0.77-5.08-1.82-10.22-2.13-15.56
		c-0.41-7.03-2.99-13.71-6.34-19.81c-3.95-7.2-10.43-9.8-18.4-7.78c-2.51,2.69-1.62,5.83-1.73,8.74
		c-0.31,7.77-2.35,15.06-5.98,21.91c-1.09,2.06-2.38,4.07-6.15,3.75C1482.34,775.02,1482.5,761.59,1475.82,747.8z"/>
	<path class="st0" d="M1204.58,1153.76c11.44,4.29,21.64,8.12,32.26,12.11c-0.44,7.03-0.83,13.62-1.27,20.2
		c-0.18,2.64-0.68,5.27-0.67,7.9c0.01,6.82,0.78,7.71,7.48,9.68c12.16,3.57,14.46,6.18,15.68,18.49c0.29,2.93,0.59,5.97-0.52,8.82
		c-1.97,1.7-3.71,0.45-5.54-0.22c-10.53-3.83-19.02-9.01-23.75-20.55c-5.26-12.83-12.51-24.91-17.98-37.75
		C1207.85,1166.79,1204.89,1161.14,1204.58,1153.76z"/>
	<path class="st0" d="M814.69,845.91c0.17-0.62,0.15-1.4,0.53-1.84c16.89-19.56,26.22-42.94,34.1-67.08
		c1.96-6,4.69-11.77,6.32-17.84c1.87-6.94,6.79-10.92,12.81-12.69c10.93-3.23,22.05-2.6,33.48,1.48c-2.6,6.94-4.51,13.5-5.38,20.42
		c-0.87,6.96,1.42,13.65,1.14,21.33c-7.61-3.78-8.03-10.82-10.32-16.78c-2.29-5.96,0.46-12.65-2.59-18.36
		c-11.49-1.8-16.61,0.82-20.63,10.74c-3,7.41-5.56,14.92-5.37,23.14c0.13,5.47-2.03,9.52-6.38,13.65
		c-6.92,6.57-12.65,14.54-17.24,23.07c-4.54,8.42-11.33,14.66-18.74,20.36c-0.44,0.34-1.28,0.15-1.93,0.21L814.69,845.91z"/>
	<path class="st0" d="M1121.16,1231.72c-1.54-4-1.07-7.97-0.65-11.87c1.11-10.22,3.58-13.03,13.56-15.86
		c1.27-0.36,2.61-0.52,3.87-0.92c3.16-1.02,5.02-2.99,4.91-6.57c-0.24-8.28-0.18-16.59-1.53-24.79c-0.28-1.67-0.54-3.25,0.31-5.68
		c9.39-5.03,20.72-6.76,31.21-12.67c0.82,4.41-0.61,7.58-1.76,10.81c-5.15,14.43-12.43,27.86-19.23,41.52
		c-1.33,2.67-3.52,5.07-4.23,7.87c-1.94,7.73-7.71,11.26-14.26,13.99C1129.48,1229.18,1125.88,1231.86,1121.16,1231.72z"/>
	<path class="st0" d="M1107.71,1269.92c0.79-8.87,0.47-18.23,3.65-27.67c8.36-2.98,16.94-6.4,25.22-10.49
		c2.09,2.76,0.07,4.9-0.78,6.6c-10.62,21.09-20.52,42.51-29.84,64.11c-6.69,2.78-13.08,5.43-19.53,8.1
		C1081.98,1293.4,1087.93,1282.1,1107.71,1269.92z"/>
	<path class="st0" d="M1292.01,1310.09c-1.12,0-1.49,0.1-1.77-0.02c-5.79-2.44-12.41-3.87-17.12-7.66
		c-4.78-3.84-5.82-10.94-8.34-16.66c-6.15-13.96-12.73-27.7-19.67-41.28c-1.9-3.71-3.98-7.41-4.64-12.76
		c9.63,3.96,18.31,7.52,27.14,11.15c1.06,9.38,2.99,18.42,2.95,27.43C1289.39,1280.85,1294.48,1290.33,1292.01,1310.09z"/>
	<path class="st0" d="M1074.09,557.5c-1.71,6.95-5.42,13.34-6.62,21.14c-8.01,0.56-15.71,2.01-22.69,5.93
		c-6.64,3.72-14.7,5.02-20.25,10.36c-5.64,5.43-10.28,11.9-15.39,17.97c-1.75-2.03-0.46-3.91,0.06-5.59
		c2.21-7.27,4.6-14.49,7.02-21.7c3.68-10.98,10.53-18.17,21.9-22.41c11.11-4.14,22.53-4.8,33.88-6.69
		C1072.5,556.42,1073.14,557.03,1074.09,557.5z"/>
	<path class="st0" d="M1370.42,612.32c-9.27-7.32-14.19-18.72-26.08-22.77c-10.84-3.7-20.18-11.9-32.87-9.95
		c-2.63-7.79-5.02-14.88-7.82-23.18c10.77,1.73,20.68,0.9,30.01,4.74c2.45,1.01,4.91,2.05,7.47,2.72
		c10.31,2.69,16.3,9.97,19.81,19.32C1364.52,592.75,1367.29,602.6,1370.42,612.32z"/>
	<path class="st0" d="M1171.96,326.15c-8.82-2.17-15.2-7.33-21.58-13.28c-0.42-13.45,0.79-26.87,3.35-41.17
		c9.95,4.8,17.77,12.25,28.41,14.59c-1.88,6.99-6.05,12.11-6.6,18.84C1182.9,315.82,1182.8,316.56,1171.96,326.15z"/>
	<path class="st0" d="M1195.94,285.98c10.68-2.49,18.75-8.98,27.83-14.44c0.84,3.21,1.84,5.7,2.1,8.26
		c0.91,8.91,1.55,17.84,2.33,26.77c0.38,4.3-0.9,7.44-4.68,10.13c-5.43,3.87-10.54,8.05-17.64,9.36c-1.2-1-2.66-1.88-3.67-3.13
		c-5.4-6.65-8.05-7.89-0.58-15.81c0.43-0.45,0.55-1.18,0.96-2.12C1202.11,298.86,1198.07,293.63,1195.94,285.98z"/>
	<path class="st0" d="M1201.1,546.82c6.49-4.26,14.33-6.28,20.92-11.53c4.58,13,10.73,25.13,13.21,38.86
		c-8.87,4.59-17.34,8.98-26.15,13.54c-3.14-2-4.67-5.32-6.53-8.36c-1.69-2.75-1.6-5.42-0.52-8.51c1.39-3.98,5.13-7.43,3.81-12.04
		C1204.66,554.69,1202.71,550.81,1201.1,546.82z"/>
	<path class="st0" d="M1065.62,1378.85c-3.31-3.55-3.02-7.09-3.2-10.28c-0.29-5.21,1.1-9.99,6.55-12.25
		c5.76-2.39,7.55-7.12,7.64-12.77c0.12-7.61,0.03-15.22,0.03-22.63c8.29-4.91,16.24-8.72,24.46-11.4c2.02,1.82,0.93,3.3,0.45,4.82
		c-4.13,13.28-8.33,26.53-12.27,39.87c-1.45,4.92-3.63,8.92-7.99,12C1075.91,1370.01,1071,1374.46,1065.62,1378.85z"/>
	<path class="st0" d="M966.4,739.69c-0.6,4.47-4.72,6.46-7.46,8.73c-8.4,6.99-12.02,16.2-12.41,26.22
		c-0.61,15.51-2.17,31.29,3.87,46.33c0.19,0.48-0.29,1.22-0.59,2.3c-6.28-3.74-10.91-8.68-12.97-15.59
		c-2.75-9.22-5.45-18.47-7.59-27.84c-1.33-5.82-1.68-11.84,2.12-17.27c1.32-1.89,2.35-4.05,3.14-6.22c2.01-5.49,5.6-8.45,11.58-9.37
		c3.84-0.59,7.44-2.72,11.12-4.25c3.03-1.26,5.78-3.4,9.36-2.84L966.4,739.69z"/>
	<path class="st0" d="M1155.83,535.16c6.75,5.3,14.54,7.42,21.33,11.79c-1.28,2.64-2.72,5.23-3.82,7.96
		c-1.4,3.51-1.88,7.22,0.3,10.56c5.71,8.75,2.39,15.62-4.41,22.24c-8.51-4.33-17.03-8.67-26.09-13.28
		c-0.13-6.88,3.27-13.02,5.5-19.45C1150.82,548.73,1153.15,542.53,1155.83,535.16z"/>
	<path class="st0" d="M1406.43,737.96c4.33-0.82,7.68,1.86,11.23,3.41c5.8,2.53,11.44,5.43,17.73,6.53c2.9,0.5,4.87,1.95,6.13,4.52
		c0.29,0.6,0.53,1.24,0.92,1.77c8.13,11.22,8.41,23.06,3.38,35.64c-1.83,4.57-2.42,9.65-3.52,14.5
		c-1.92,8.45-6.69,14.66-14.66,19.31c-0.6-3.95,1.54-6.38,2.17-9.17c3.09-13.78,3.17-27.74,1.75-41.65
		c-1.53-15.06-10.88-25.14-22.98-33.08c-0.83-0.55-1.73-0.91-1.92-2.01L1406.43,737.96z"/>
	<path class="st0" d="M1060.67,1390.23c7.61-6.43,15.11-12.77,22.59-19.09c1.81,1.8,0.68,3.26,0.43,4.79
		c-2.32,14.34-4.77,28.67-5.47,43.21c-0.33,6.92-1.96,13.76-1.38,20.74c0.17,2.1-0.51,3.92-2.2,5.26c-2.78,2.2-5.58,4.38-8.66,6.79
		c-2.1-6.8-3.77-12.79-5.82-18.65c-2.06-5.86-1.65-11.11,2.96-15.52c3-2.87,3.59-5.98,2.37-9.9
		C1063.72,1402.25,1062.35,1396.49,1060.67,1390.23z"/>
	<path class="st0" d="M1313.8,1379.01c-8.1-4.48-13.45-10.49-19.86-15.12c-2.53-1.83-3.9-4.74-4.54-7.48
		c-3.7-15.73-9.92-30.7-14.45-47.32c9.72,2.61,17.74,6.72,25.89,11.55c0,5.07,0.1,10.03-0.03,14.98c-0.11,4.01,0.67,7.87,1.26,11.8
		c0.55,3.63,2.1,6.48,5.29,7.88c8.37,3.69,9.49,10.13,7.51,18.02C1314.48,1374.91,1314.26,1376.55,1313.8,1379.01z"/>
	<path class="st0" d="M1213.42,1094.97c-0.46,11.01-0.84,20.18-1.22,29.21c6.14,3.95,13,6.51,15.22,13.9
		c1.79,5.97,0.63,11.65-2.08,17.32c-8.87-1.6-16.25-5.96-23.78-10.27c-4.23-13.01-6.59-26.21-6.71-40.19
		C1200.9,1101.7,1206.6,1098.64,1213.42,1094.97z"/>
	<path class="st0" d="M1182.42,1104.62c1.51,13.27-1.65,25.77-5.21,38.22c-0.61,2.12-2,3.41-3.84,4.29
		c-6.54,3.09-12.71,7.13-20.06,8.1c-7.36-13.26-4.02-21.59,12.69-31.05c0.28-8.93-2.22-18.08-1.03-27.92
		C1171.66,1097.29,1176.56,1101.79,1182.42,1104.62z"/>
	<path class="st0" d="M1294.59,1371.13c7.32,6.1,14.62,12.17,21.56,17.96c1.62,5.49-1.3,9.65-2.42,14.04
		c-1.54,6.05-2.66,11.34,2.72,16.44c3.69,3.5,2.85,8.73,1.64,13.26c-1.62,6.06-3.78,11.97-5.89,18.49
		c-6.3-2.8-9.52-6.61-10.23-13.87c-2.11-21.73-3.85-43.54-8.35-64.97C1293.59,1372.26,1294,1371.94,1294.59,1371.13z"/>
	<path class="st0" d="M1260.19,105.64c0.81,0.5,1.63,1.01,2.42,1.5c5.7-6.53,8.95-14.81,12.57-32.12c4.07,3.69,4.94,8.59,6.2,13.15
		c3.95,14.24,3.44,14-4.55,26.39c-6.31,9.79-15.05,16.55-24.4,22.85c-2.15,1.45-4.38,3.18-7.59,1.39c-0.39-4.05,5.21-3.56,5.59-6.94
		c4.59-1.1,8.11-3.54,10.01-8.01c1.42,0.08,2.09-0.58,2.01-2c0.51-0.21,1.02-0.43,1.54-0.64c-0.31-0.27-0.63-0.54-0.94-0.81
		c-0.15,0.54-0.29,1.07-0.44,1.61c-1.48-0.14-2.15,0.52-2.01,2c-4.87,1.68-6.79,3.24-9.97,8.07c-2.77-0.9-4.84,2.04-7.84,1.33
		c-0.7-7.59,1.31-14.86,2.68-22.69c5.03-1.62,9.98-3.22,14.92-4.82C1260.4,105.9,1260.19,105.64,1260.19,105.64z"/>
	<path class="st0" d="M1077.56,1528.21c-0.83,21.16-3.06,39.46-6.7,57.6c-0.39,1.95-0.85,3.89-1.11,5.85
		c-1.36,10.5-8.99,15.35-17.98,20.37c-2.4-6.34-1.79-12.19-1.05-17.94c0.39-3.02,2.3-5.49,5.26-6.79c4.41-1.94,5.41-5.42,4.58-9.8
		c-0.92-4.87-1.47-9.84-2.83-14.58c-1.4-4.89-0.93-8.9,2.44-12.89C1065.68,1543.53,1070.82,1536.72,1077.56,1528.21z"/>
	<path class="st0" d="M1122.66,127.78c1.55,5.52,7.76,5.68,11.03,9.9c-1.03,2.82-3.3,2.32-5.34,1.21
		c-7.33-3.98-14.18-8.85-19.84-14.87c-4.73-5.03-8.22-11.23-12.3-16.88c-1.43-1.97-2.31-4.18-1.92-6.53
		c1.45-8.71,2.39-17.62,8.76-26.51c0.9,4.66,1.37,8.02,2.22,11.28c0.84,3.2,2.03,6.3,3.13,9.43c0.99,2.81,1.7,5.81,3.22,8.31
		c1.28,2.12,2.41,3.92,6.57,2.96c3.8-0.87,8.6,2.65,13.37,4.38c3.99,6.85,2.61,15.01,4.3,23.01c-5.9,0.85-8.48-5.28-13.4-5.49
		c-3.49-5.14-3.45-5.19-9.52-7.15C1116.78,123.66,1117.9,128.09,1122.66,127.78z"/>
	<path class="st0" d="M1301.61,1616.53c-3.92-6.45-4.77-13.06-3.21-20.66c3.88-18.83,5.95-37.93,6.61-57.17
		c0.02-0.49,0.63-0.95,1.34-1.96c5.38,4.94,9.85,10.43,13.68,16.92c-2.56,4.66-5,9.34-7.67,13.89c-2.41,4.1-2.34,7.68,0.03,12.07
		c9.46,17.52,6.79,20.63-5.93,33.68C1305.11,1614.69,1303.84,1616.39,1301.61,1616.53z"/>
	<path class="st0" d="M1076.02,1448.84c3.69,22.25,1.69,42.89,2.1,63.44c0.03,1.59-0.5,3.28-1.14,4.78
		c-3.02,7.08-7.52,13.1-13.41,18.96c-4.75-8.45-4.12-16.07,1.25-22.73c3.16-3.92,3.97-7.35,2.23-11.83
		c-0.59-1.52-0.4-3.34-0.95-4.89c-2.89-8.06-2.87-16.15-0.58-24.31c0.27-0.96,0.74-2,0.58-2.91
		C1064.64,1460.95,1070.18,1455.97,1076.02,1448.84z"/>
	<path class="st0" d="M890.07,1876.94c-6.68,3-12.98,5.83-19.65,8.82c-4.21-2.57-8.41-5.15-12.62-7.71
		c-4.84-2.96-9.91-3.51-15.27-1.54c-4.69,1.72-9.54,2.71-14.52,3.25c-6.01,0.66-11.17-0.68-15.28-5.35
		c-2.4-2.73-4.92-5.35-7.55-8.21c6.55-4.4,13.37-5.64,21.42-3.47c19.52,5.27,39.31,9.43,59.49,11.33
		C887.46,1874.2,888.71,1874.53,890.07,1876.94z"/>
	<path class="st0" d="M1054.62,1489.74c1.04-8.19,3.37-16.27,1.92-24.65c-0.11-0.65-0.25-1.29-0.66-3.32
		c-2.84,11.33-2.31,22.35-9.1,32.15c-3.7-4.96-4.78-10.89-7.84-15.73c-3.21-5.08-7.03-9.64-11.89-14.8
		c4.58-2.01,9.13-2.82,12.62-5.62c3.71-2.97,6.55-6.69,8.48-10.97c1.9-4.22,3.31-8.65,5.05-13.32c2.33,1.45,2.65,3.67,3.3,5.75
		c4.55,14.61,4.64,29.42,2.06,44.34c-0.44,2.53-0.76,5.39-4.16,5.97L1054.62,1489.74z"/>
	<path class="st0" d="M1323.79,1489.91c-8.21-10.43-7.68-40.14,0.73-55.83c3.9,5.97,4.73,13.06,8.93,18.71
		c4.32,5.82,10.29,7.9,17.04,10.3c-3.67,4.81-7.63,9.24-10.68,14.21c-3.1,5.04-5.32,10.62-8.17,16.48
		c-7.69-8.66-5.61-20.18-10.05-30.47C1319.48,1472.96,1322.03,1481.26,1323.79,1489.91z"/>
	<path class="st0" d="M1150.26,319.87c9.51,5.91,17.45,10.61,26.81,12.72c-0.19,4.84-3.04,8.38-4.04,12.47
		c-0.79,3.26-1.15,6.2,1.34,9.33c6.19,7.81,5.91,8.72-1.92,16.25c-2.67,0.2-4.94-1.23-7.29-2.34c-6.96-3.28-11.98-7.23-11.43-16.49
		c0.3-5.05-0.91-10.51-0.83-15.81C1152.99,331.06,1152.41,326.2,1150.26,319.87z"/>
	<path class="st0" d="M624.68,1758.9c-8.5,0-16.99,0-25.52,0c-2.7-1.78-3.72-4.68-4.53-7.52c-2.04-7.23-6.87-10.17-14.11-9.9
		c-2.33,0.09-4.68,0.07-6.99-0.17c-10.25-1.07-14.82-5.16-17.91-16.33c8.2-2.16,16.02-3.05,23.64,2.02
		c15.2,10.12,30.48,20.12,45.72,30.17C624.89,1757.74,624.79,1758.32,624.68,1758.9z"/>
	<path class="st0" d="M1205.7,370.78c-4.13-2.31-5.32-5.77-6.59-8.59c0.32-5.42,5.24-7.32,6.91-11.55
		c-0.26-5.88-3.66-11.03-5.32-17.36c8.5-3.44,17.28-6.26,24.38-12.19c0.72,0.78,1.52,1.32,1.44,1.61
		c-2.82,10.41-1.28,21.13-2.16,31.68c-0.43,5.23-2.01,8.81-6.66,11.19C1213.88,367.53,1210.37,370.15,1205.7,370.78z"/>
	<path class="st0" d="M1254.39,1142.93c-10.53-5.85-13.2-10.79-9.64-20.37c2.2-5.93,0.42-10.38-2.47-14.84
		c-3.59-5.55-7.63-10.81-11.47-16.2c-1.12-1.57-2.2-3.17-3.5-5.05c6.25-5.34,13-9.29,20.46-14.09c0.93,4.78,1.89,8.48,2.34,12.24
		c1.67,13.76,3.04,27.54,5.66,41.19C1256.77,1131.08,1257.43,1136.9,1254.39,1142.93z"/>
	<path class="st0" d="M739.56,1830.96c-6.95,2.12-13.59,3.48-20.59,2.98c-0.8-1.24-1.69-2.27-2.19-3.46
		c-2.92-7.02-7.94-10.1-15.64-9.17c-6.72,0.81-13.1-0.87-19.35-3.35c-8.02-3.19-10.4-5.73-13.59-16.13
		c6.65-0.84,13.22-0.45,19.75-0.26c1.55,0.04,3.22,0.79,4.57,1.64c14.65,9.1,29.61,17.61,45.03,25.33
		C738.31,1828.91,738.74,1829.95,739.56,1830.96z"/>
	<path class="st0" d="M1129.14,1072.7c8.92,3.91,15.14,8.57,21.56,13.73c-4.38,6.23-8.44,12.2-12.7,18.02
		c-4.49,6.14-6.9,12.11-4.08,20.21c3.05,8.79-1.55,15.09-11.53,17.46C1121.28,1118.99,1128.19,1096.92,1129.14,1072.7z"/>
	<path class="st0" d="M1038.91,1874.87c4.43-6.66,9.69-10.28,17.07-11.95c15.57-3.51,30.65-8.79,45.62-14.33
		c2.59-0.96,5.22-2.96,9.24-1.57c-3.47,5.19-6.74,10.08-9.44,14.12c-2.82,2.2-4.66,0.6-6.55,0.39c-4.13-0.44-7.62,0.25-11.05,3.16
		c-5.06,4.28-10.73,7.91-16.87,10.57C1056.62,1879.74,1053.66,1881.7,1038.91,1874.87z"/>
	<path class="st0" d="M1198.03,134.9c7.65-2.83,15.67-4.13,23.96-5.81c3.95,10.1,1.43,20.07,2.26,29.7
		c-4.43,3.84-9.37,5.71-14.3,7.57c-7.43,2.79-7.47,2.76-12.59-4.84c-0.07-2.72,1.37-4.99,3.02-7c2.94-3.58,2.92-7.04,0.77-11
		C1199.77,140.98,1197.9,138.47,1198.03,134.9z"/>
	<path class="st0" d="M1295.47,1620.15c0.94,2.42,2.03,4.81,2.8,7.28c3.37,10.73,3.51,10.88-3.65,19.49
		c-4.79,5.76-7.23,11.75-4.87,19.22c0.59,1.87,0.66,3.92,0.86,5.9c1.35,13.69-1.08,17.91-15.11,25.35
		c-1.75-7.81-3.64-14.87,0.22-22.79c6.84-14.06,9.89-29.49,14.6-44.33c1.08-3.4,2.22-6.78,3.33-10.16
		C1294.26,1620.13,1294.86,1620.14,1295.47,1620.15z"/>
	<path class="st0" d="M1155.42,128.86c8.85,1.99,16.53,3.72,24.53,5.53c0.3,5.98-4.78,9.73-4.97,15.4c0.32,2.8,2.96,4.68,4.36,7.27
		c1.64,3.04,1.53,5.55-0.7,8.17c-2.19,2.58-4.76,3.55-7.93,2.27c-5.49-2.23-11.18-4.1-16.49-8.31
		C1154.56,149.65,1153.28,139.78,1155.42,128.86z"/>
	<path class="st0" d="M1062.28,1611.51c-0.66,8.77-5.06,16.29-8.55,24.01c-3.53,7.81-8.35,15.03-12.25,22.69
		c-3.44,6.74-8.85,10.44-16.04,12c-1.92,0.42-3.78,1.07-5.87,1.67c-2.72-4.7,0.47-8.5,1.68-12.28c1.1-3.42,3.6-6.43,7.26-7.72
		c7.81-2.74,11.27-8.65,12.65-16.34c0.46-2.59,1.39-5.1,2.18-7.62c0.81-2.57,2.09-4.73,4.51-6.27c4.96-3.17,9.76-6.58,14.63-9.9
		C1062.48,1611.74,1062.28,1611.51,1062.28,1611.51z"/>
	<path class="st0" d="M1176.52,539.96c-7.55-0.76-13.69-4.5-19.76-8.79c-1.9-12.04,1.03-23.72,2.48-36.35
		c7.51,3.42,13.93,7.75,20.74,11.92c-0.95,1.74-1.59,3.27-2.54,4.57c-3.77,5.14-4.66,9.84,0.37,15.03
		C1182.1,530.78,1180.19,535.42,1176.52,539.96z"/>
	<path class="st0" d="M719.69,1688.32c1.75-2.24,3.96-2,5.74-2.77c7.16-3.11,13.22-1.62,17.27,4.94c4.3,6.95,10.29,8.69,17.81,7.6
		c1.92-0.28,3.9-0.04,6.26-0.04c3.13,6.14,6.11,12.01,9.08,17.85c-2.66,2.11-4.74,0.12-6.65-0.54c-12.84-4.45-25.49-9.46-38.4-13.68
		C724.07,1699.48,719.78,1696.03,719.69,1688.32z"/>
	<path class="st0" d="M1221.93,530.68c-10.61,7.18-11.47,7.55-20.54,8.98c-3.74-4.1-4.94-8.98-1.02-13.22
		c4.87-5.28,4.13-9.88,0.4-15.02c-0.95-1.31-1.61-2.83-2.67-4.73c6.66-4.04,13.09-7.93,20.19-12.23
		C1220.66,506.72,1222.92,518.29,1221.93,530.68z"/>
	<path class="st0" d="M788.57,1864.92c-1.8-2.08-3.14-3.53-4.36-5.07c-3.28-4.14-6.65-5.78-12.68-4.99
		c-7.69,1.01-15.76-0.81-23.66-1.46c-1.71-0.14-3.28-0.92-4.22-2.35c-2.5-3.79-5.53-7.43-5.06-12.42
		c6.98-3.31,13.28-2.73,20.07,0.53c13.46,6.44,27.54,11.43,41.73,16.06c2.18,0.71,4.62,0.89,6.23,3.44
		C801.06,1861.51,795.15,1863.07,788.57,1864.92z"/>
	<path class="st0" d="M946.38,1890.7c-4.69-2.95-8.48-5.74-13.44-6.44c-2.95,0.39-5.23,2.47-7.61,4.22
		c-9.1,6.69-24.49,7.61-33.99-4.33c3.64-2.32,7.22-4.69,10.91-6.87c1.09-0.64,2.58-1.21,3.76-1.01c18.49,3.13,37.17,1,56.91,2.02
		C958.12,1884.05,952.48,1887.15,946.38,1890.7z"/>
	<path class="st0" d="M1180.31,1806.61c-2.97,7.85-4.88,14.54-8.48,20.53c-3.56,1.78-7.28,0.83-10.86,0.82
		c-4.97-0.01-9.08,1.45-12.43,5.18c-3.99,4.45-8.66,8.24-12.31,13.05c-2.19,2.89-4.77,5.68-7.72,7.75
		c-4.78,3.36-10.03,5.46-15.51,0.42c0.56-1.59,1.29-3.1,1.61-4.69c1.16-5.87,5.19-8.7,10.36-10.96
		c18.64-8.14,35.81-18.84,52.17-30.87C1177.64,1807.46,1178.34,1807.35,1180.31,1806.61z"/>
	<path class="st0" d="M963.98,1886.84c5.15-7.74,11.36-10.85,20.25-11.29c15.84-0.8,31.56-3.42,47.07-7
		c1.25-0.29,2.58-0.27,4.46-0.44c-1.74,4.74-5.32,7.12-8.46,9.83c-1.85,1.59-3.96,2.4-6.42,1.19c-4.72-2.33-9.13-0.65-13.34,1.38
		c-5.07,2.45-9.89,5.42-14.96,7.88C981.8,1893.6,975.93,1893.25,963.98,1886.84z"/>
	<path class="st0" d="M1269.91,1693.56c2.11,5.86-0.08,12.26,1.74,18.28c-2.69,2.07-5.34,4.01-7.88,6.07
		c-4.85,3.94-8.11,8.63-7.66,15.33c0.15,2.26-0.69,4.56-0.83,6.85c-0.68,11.54-8.18,16.4-18.21,19.36
		c-2.11-8.72-0.53-15.71,4.65-22.78c9.2-12.55,17.74-25.63,24.51-39.75C1266.9,1695.55,1267.13,1693.64,1269.91,1693.56z"/>
	<path class="st0" d="M1204.44,391.96c-1.66-4.27-3.21-8.26-5.02-12.91c7.28-3.32,14.6-6.67,22.66-10.35
		c1.33,12.23-1.67,23.41-2.09,34.7c-4.8,4.39-10.59,5.77-16.26,7.34C1197.39,403.19,1197.39,403.02,1204.44,391.96z"/>
	<path class="st0" d="M1229.67,1753.04c2.45,7.05-0.54,13.69-1.29,20.28c-2.35,3.01-5.6,3.87-8.65,5.13
		c-5.84,2.41-9.98,6.25-11.32,12.84c-0.72,3.54-2.11,6.99-3.49,10.35c-3.73,9.06-8.59,11.94-20.08,11.75
		c-0.29-6.35,0.61-11.74,5.84-16.56c14.43-13.3,27.54-27.86,39.24-43.64L1229.67,1753.04z"/>
	<path class="st0" d="M610.43,1763.97c9.2,0.55,17.05,1,24.89,1.49c2.1,0.13,3.66,1.42,5.26,2.63
		c11.91,9.01,23.96,17.82,36.82,25.48c0.19,0.11,0.17,0.56,0.46,1.64c-3.34,1.64-6.85,0.21-10.21,0.15c-3.3-0.06-6.59,0.2-9.83-1.11
		c-2.06-0.83-3.26-2.13-4.13-3.98c-0.85-1.8-1.66-3.62-2.54-5.41c-1.96-3.98-4.86-6.1-9.59-5.29c-2.6,0.44-5.31,0.24-7.95,0.46
		C622.43,1780.99,615.46,1775.58,610.43,1763.97z"/>
	<path class="st0" d="M1158.91,404.32c-3.15-11.83-1.81-23.53-4.61-36.22c8.89,3.95,16.35,7.26,23.61,10.48
		c0.94,2.93-0.95,4.74-1.87,6.73c-1.94,4.23-2.42,7.87,0.88,11.95c3.4,4.19,2.1,8.73-1.11,12.72
		C1167.98,409.31,1167.64,409.2,1158.91,404.32z"/>
	<path class="st0" d="M561.13,1717.8c-6.27-0.35-12.15,2.86-18.63,1.76c-3-3.29-4.14-7.51-6.16-11.25c-2.21-4.08-3.37-4.5-8-3.59
		c-0.32,0.06-0.62,0.25-0.94,0.31c-13.93,2.9-19.31,0.55-27.1-11.83c10.08-5,19.01-4.64,28.14,1.22
		c10.3,6.6,20.57,13.25,30.86,19.86c0.84,0.54,1.78,0.91,2.67,1.35C561.7,1716.36,561.41,1717.08,561.13,1717.8z"/>
	<path class="st0" d="M542.68,1615.62c-8.9-1.42-16.42-6.54-24.88-9.21c-5.98-1.89-11.63-4.81-17.61-6.65
		c-7.83-2.41-13.01-7.32-16.2-14.75c3.06-2.44,6.46-3.43,10.14-2.74c3.95,0.74,8.23,2.02,10.38,5.31c4.92,7.5,11.62,9.08,19.78,7.86
		c3.94-0.59,7.08,0.75,9.2,4.35c3.11,5.28,8.59,9.22,9,16.03L542.68,1615.62z"/>
	<path class="st0" d="M1303.6,1452.19c6.12,4.72,9.57,9.52,8.62,16.58c-0.13,0.96-0.05,2.04,0.25,2.96
		c3.21,9.92,1.52,19.55-1.43,29.18c-1.42,4.61-0.99,8.65,2.54,12.84c5.35,6.36,4.96,13.85,1.68,21.38
		c-8.01-5.43-10.28-9.3-10.4-17.5c-0.23-15.92-0.66-31.83-0.56-47.75C1304.33,1464.26,1301.6,1458.85,1303.6,1452.19z"/>
	<path class="st0" d="M709.76,1678.81c1.31,5.01,4,9.63,4.44,15.07c-4.11,0.67-6.99-1.34-9.82-2.62
		c-12.99-5.88-25.76-12.25-38.75-18.14c-5.35-2.43-7.31-6.18-6.78-11.93c8.08-3.27,14.96-2.66,20.37,4.64
		c0.39,0.53,1.02,0.9,1.35,1.46c7.49,12.73,10.05,9.8,21.44,10.12C704.3,1677.47,706.67,1677.01,709.76,1678.81z"/>
	<path class="st0" d="M1164.47,236.2c6,3.73,11.01,6.86,15.53,9.67c1.49,3.61-0.59,5.79-1.65,8.03c-2.66,5.65-3.47,10.79,2.18,14.59
		c0.35,4.87-3.19,6.61-5.54,9.71c-7.1-3.75-13.48-7.67-19.21-12.66c0.11-5.29,2.07-9.87,3.55-14.53
		C1160.82,246.36,1162.52,241.79,1164.47,236.2z"/>
	<path class="st0" d="M1197.1,269.67c5.74-7.56,5.74-7.56-0.08-22.58c4.87-4.28,10.73-7.15,16.77-10.73
		c2.72,9.83,6.99,18.72,8.8,28.9c-5.66,5.19-12.26,8.81-18.71,12.65C1200.42,275.89,1198.05,273.33,1197.1,269.67z"/>
	<path class="st0" d="M411.23,1638.97c-7.55,1.02-14.8,0.35-21.77,2.13c-2.49,0.64-4.34-1.27-6.29-2.48
		c-4.2-2.62-7.51-6.58-12.78-8.45c-6.32,1.35-11.73,7.55-19.25,5.6c-5.26-1.36-9.34-4.76-13.93-8.96c3.92-1.61,7.32-3.15,10.82-4.4
		c4.4-1.57,8.73-1.97,13.52-0.71c14.75,3.89,29.36,8.22,43.78,13.19C407.39,1635.6,409.91,1635.77,411.23,1638.97z"/>
	<path class="st0" d="M841.39,1733.55c-8.42-1.5-16.91-2.71-25.25-4.57c-8.41-1.87-16.59-4.8-25.02-6.48
		c-5.69-1.13-8.81-4.07-10.35-9.81c2.73-3.81,7.35-4.72,11.06-6.52c7.54,2.01,10.45,8.54,15.16,13.21
		c6.02,1.15,11.67-2.06,18.55-1.67c5.19,4.3,10.96,9.07,16.73,13.84C841.96,1732.21,841.68,1732.88,841.39,1733.55z"/>
	<path class="st0" d="M599.67,1632.83c12.34-4.21,18.9,0.76,23.72,8.25c4.79,7.46,4.95,7.46,13.6,5.63c2.66-0.56,5.2-0.9,8.44,0.06
		c3.63,5.04,5.18,11.27,7.05,17.77c-3.89,0.22-6.35-1.44-8.97-2.64c-10.87-4.95-21.72-9.94-32.64-14.79
		C602.04,1643.2,602,1643.28,599.67,1632.83z"/>
	<path class="st0" d="M1027.6,1675.2c-10.16,13.95-36.25,34.06-51.19,40.22c-2.97-1.28-6.28-2.71-9.54-4.12
		c1.55-7.75,3.82-10.34,10.13-11.37c2.29-0.37,4.68-0.76,6.94-0.47c6.97,0.88,11.88-2.32,14.39-8.23c2.65-6.23,6.81-9.23,13.26-10.5
		C1016.33,1679.8,1020.81,1677.61,1027.6,1675.2z"/>
	<path class="st0" d="M1160.18,488.33c1.08-12.14,2.09-23.63,3.17-35.75c5.83,1.52,10.48,4.97,15.81,7.81
		c-0.43,1.56-0.51,2.93-1.13,3.97c-3.33,5.49-4.17,10.28,0.08,16.33c4.44,6.31,2.99,9.05-4.96,16.07
		C1169.18,494.17,1165.08,491.51,1160.18,488.33z"/>
	<path class="st0" d="M480.83,1591.46c-2.38,1-4.51-0.1-6.74-0.71c-14.08-3.81-27.91-8.58-42.26-11.34
		c-5.97-1.15-8.36-6.02-11.65-10.09c7.06-5.79,10.98-6.44,17.73-2.49c3.13,1.83,6.13,4.03,8.75,6.54c3.72,3.56,7.76,5.23,12.64,3.19
		c5.15-2.15,8.84-0.53,12.24,3.48c3.19,3.76,6.91,7.06,9.06,11.62L480.83,1591.46z"/>
	<path class="st0" d="M1205.23,496.65c-9.2-7.68-9.24-8.43-1.73-23.3c-0.41-4.36-3.41-7.76-4.69-12.35
		c4.22-4.03,10.01-5.55,14.94-8.86c3.31,11.02,1.67,22.09,4.25,32.64c0.41,1.66-0.25,3.39-1.68,4.41
		C1212.6,491.82,1208.78,494.29,1205.23,496.65z"/>
	<path class="st0" d="M453.59,1668.28c3.98-2.56,8.59-3.31,13.1-4.13c2.21-0.4,4.63-0.9,6.85,0.31
		c11.32,6.16,23.61,10.46,34.94,17.91c-2.85,3.84-6.63,2.67-9.92,3.08c-3.28,0.4-6.53,0.97-10.19,1.53
		c-0.72-0.78-1.73-1.63-2.44-2.68c-5.68-8.41-5.66-8.42-15.9-6.41C460.7,1679.72,457.73,1678.01,453.59,1668.28z"/>
	<path class="st0" d="M908.17,1734.04c-7.41,0-12.7-0.04-18,0.01c-4.63,0.05-9.22-0.03-13.86,1c-7.27,1.61-14.72-0.09-21.67-1.62
		c-4.59-1.01-8.34-5.85-12.61-9.08c10.86-8.5,16.39-8.88,24.73-0.71c3.87,3.79,7.6,4.88,12.49,3.69c0.97-0.23,1.94-0.43,2.91-0.64
		C894.21,1724.08,895.68,1724.44,908.17,1734.04z"/>
	<path class="st0" d="M401.37,1645.97c7.37-0.93,13.85-1.73,20.32-2.59c2.37-0.31,4.68-0.09,6.87,0.77
		c5.58,2.17,11.19,4.26,16.65,6.7c5.11,2.29,10.03,5.01,15.78,7.92c-6.46,4.41-13.64,3.58-18.65,7.23c-4.47-1.85-5.6-5.72-8.18-8.2
		c-2.78-2.68-5.57-4.41-9.78-2.87C414.7,1658.5,408.02,1653.66,401.37,1645.97z"/>
	<path class="st0" d="M1203.95,112.23c-1.53-4.94-5.36-8.26-5.82-13.52c4.46-1.88,9.21-2.5,14.35-2.91
		c5.95,8.43,8.25,17.8,9.26,27.57c-6.36,3.22-11.87,4.51-20.94,4.97C1196.33,121.45,1196.33,121.45,1203.95,112.23z"/>
	<path class="st0" d="M546.54,1608.54c4-3.39,8.3-2.98,12.92-1.13c4.51,1.8,7.73,5.15,10.81,8.59c3.99,4.46,8.2,7.93,14.65,5.45
		c4.31,5.65,7.95,10.91,10.31,18.34c-5.7-2.45-10.46-4.47-15.19-6.55c-5.76-2.54-11.33-5.61-17.27-7.59
		C554.19,1622.8,548.58,1617.62,546.54,1608.54z"/>
	<path class="st0" d="M1156.51,124.83c0.05-10.94,3.69-19.65,8.23-28.35c5.39-1.35,10.25,0.78,15.24,2.03
		c-0.33,5.12-4.14,8.43-5.69,13.19c1.56,5.15,11.46,9.17,2.66,16.82C1170.46,128.83,1164.06,126.17,1156.51,124.83z"/>
	<path class="st0" d="M1176.67,206.66c-8.24-3.62-13.78-8.51-15.32-17.37c-1.22-7.03-4.31-13.72-4.67-21.73
		c8.28,2.57,15.21,6.49,23.13,7.44c0.2,3.9-1.84,6.67-2.9,9.72c-0.95,2.71-0.6,4.93,1.27,7.35
		C1183.11,198.46,1182.98,198.56,1176.67,206.66z"/>
	<path class="st0" d="M1201.7,206.92c-7.17-8.73-7.17-8.73,0.26-18.1c0.38-4.6-3.7-8.26-3.57-13.58c7.76-1.5,14.79-4.99,23.44-7.88
		c-1.83,10.64-4.06,20.17-7.68,29.24C1212.1,201.76,1206.7,203.82,1201.7,206.92z"/>
	<path class="st0" d="M277.07,1620.86c2.48-3.22,5.52-4.71,8.13-6.74c2.59-2.02,5.48-2.25,8.51-1.98
		c11.87,1.08,23.75,2.16,35.62,3.33c3.95,0.39,7.93,0.81,12.53,3.14c-6.22,2.45-11.78,4.66-17.35,6.83
		c-1.98,0.77-3.96,0.49-5.78-0.48c-1.76-0.94-3.52-1.92-5.1-3.13c-3.67-2.81-6.85-2.78-10.78,0.08
		C291.4,1630.23,290.11,1630.03,277.07,1620.86z"/>
	<path class="st0" d="M1285.26,1239.51c0.91-7.01,1.91-12.88,1.6-18.87c3.03,0.05,3.04,2.35,3.9,4.01
		c8.35,16.25,15.33,33.09,22.1,50.05c2.17,5.44,2.67,10.6,0.98,17.28c-6.61-5.29-10.13-11.28-11.28-18.73
		c-0.35-2.29-0.45-4.63-0.52-6.95c-0.29-10.36-5.16-18.14-13.4-24.06C1287.55,1241.47,1286.56,1240.57,1285.26,1239.51z"/>
	<path class="st0" d="M1090.18,1219.62c1.04,7.48,1.81,13.02,2.61,18.74c-4.17,4.39-8.2,8.71-12.32,12.95
		c-2.43,2.51-3.48,5.4-3.69,8.93c-0.31,5.27-0.32,10.6-1.89,15.75c-1.86,6.13-4.53,11.64-11.08,15.9c-1.32-4.65-1.72-8.68-0.2-12.67
		C1071.16,1259.46,1079,1239.83,1090.18,1219.62z"/>
	<path class="st0" d="M1212.07,447.63c-2.51,1.36-5.11,2.77-7.72,4.19c-2.61-2.15-3.93-4.8-5.24-7.4c-1.09-2.18-1.54-4.82,0.28-6.58
		c5.2-5.01,3.33-10.2,1.05-15.59c-0.62-1.47-1.79-2.86-0.98-5.14c5.46-2.33,11.28-4.57,18.23-5.88
		C1217.26,423.71,1214.27,435.46,1212.07,447.63z"/>
	<path class="st0" d="M1159.81,412.48c7.05-1.75,12.42,2.94,18.26,4.34c1.06,2.19,0.26,3.67-0.32,5.21
		c-3.56,9.39-3.55,9.39,2.15,17.87c0.57,2.52-0.92,4.47-1.93,6.5c-0.87,1.74-2.13,3.29-3.63,5.54c-2.88-1.47-5.7-2.92-8.83-4.52
		c-1.83-11.76-3.65-23.44-5.48-35.13L1159.81,412.48z"/>
	<path class="st0" d="M362.29,1557.64c3.76-3.75,7.77-4.46,12.09-2.67c3.03,1.26,6.1,2.69,8.7,4.65c4.95,3.73,9.97,4.94,15.72,2.2
		c0.87-0.41,1.91-0.46,3.3-0.78c5.66,3.13,9.43,8.47,14.67,13.67c-5.59,1.22-9.61-0.65-13.68-1.31c-9.11-1.48-18.07-4.05-27.21-5.16
		C369.15,1567.43,364.81,1564.67,362.29,1557.64z"/>
	<path class="st0" d="M944.15,1723.15c5.55-1.61,8.16-5.75,12.15-9.09c3.82,1.33,7.82,2.71,12.12,4.21
		c-1.64,3.06-4.62,3.36-7.13,4.32c-11.52,4.4-23.63,6.51-35.63,9.05c-6.26,1.32-10.91-1.59-16-5.21
		C920.46,1713.67,932.77,1718.75,944.15,1723.15z"/>
	<path class="st0" d="M348.51,1552.53c2.05,1.91,3.86,3.38,5.4,5.09c1.75,1.95,3.26,4.11,5.26,6.67c-2.79,1.63-5.25,1.01-7.67,0.66
		c-10.16-1.47-20.31-3.01-30.63-2.93c-10.7,0.09-8.05-0.05-15.44-8.08c7.84-7.32,8.36-7.41,17.07-3c1.18,0.6,2.46,1.09,3.5,1.88
		c5.35,4.05,11.02,4.05,16.97,1.59C344.5,1553.79,346.09,1553.35,348.51,1552.53z"/>
	<path class="st0" d="M200.22,1560.73c6.64-7.61,12.75-9.85,20.64-6.5c4.71,2,8.89,2.24,13.35-0.07c1.45-0.75,3.01-1.3,4.29-1.85
		c5.47,1.68,10.31,3.63,14.29,7.15c-0.8,2.76-2.77,1.78-4.18,1.92c-10.58,1.01-21.19,1.75-31.74,2.95
		C208.27,1565.3,208.29,1565.53,200.22,1560.73z"/>
	<path class="st0" d="M1242.31,159.67c0.16-2.32,0.24-4.65,0.5-6.96c0.4-3.54-0.4-6.74-3.13-9.02c-5.27-4.4-5.92-9.95-4.91-16.26
		c0.57-3.54,0.49-7.19,0.72-10.96c-0.92-0.16-1.84-0.31-3.31-0.56c-2.17,9.75-1.21,19.64-2.5,30.12
		c-3.48-9.18-3.19-18.24-4.79-26.92c-1.56-8.46-4.61-16.31-9.24-26.1c7.16,5.47,10.03,11.04,13.56,16.43
		c3.08,1.69,7,0.08,10.99,1.62c0.24,8.97-3.63,17.35-3.77,25.98c2.83,4.31,9.54,5.27,9.5,11.13c-0.03,3.94,0.14,8.48-3.88,11.29
		C1242.06,159.46,1242.31,159.67,1242.31,159.67z"/>
	<path class="st0" d="M225.85,1622.92c1.65-5.54,4.52-8.78,10.52-8.95c13.26-0.37,26.44-2.91,40.65-1.55
		c-2.46,4.63-6.78,6.42-10.46,8.65c-4.59,2.79-7.92-2.27-12.71-2.75c-5.43,1.67-9.37,7.94-16.3,7.73
		C233.44,1625.92,229.84,1624.3,225.85,1622.92z"/>
	<path class="st0" d="M222.46,1616.14c-2.53,4.37-5.41,6.61-8.1,9.17c-4.11,0.19-7.2-3.48-11.64-2.98
		c-3.41,1.11-5.21,4.64-8.12,6.77c-6.94,5.07-14.13,8.89-23.1,4.05c1.26-5.64,4.47-8.53,10.02-9.6c11.73-2.26,23.38-4.96,35.08-7.38
		C218.19,1615.86,219.9,1616.14,222.46,1616.14z"/>
	<path class="st0" d="M1142.77,137.85c-1.92-8.68-3.84-17.36-5.72-25.83c3.64-3.02,7.62-0.87,11.86-2.66
		c3.32-4.4,5.87-10.61,12.98-15.82c-8.73,17.96-10.82,35.55-12.39,53.33c-1.52-5.1-0.99-10.43-2.31-15.56
		c-1.26-4.9,0.57-10.38-1.77-15.1c-2.37-0.13-2.96,0.99-2.81,2.41c0.5,4.59-0.12,9.25,1.36,13.8c0.53,1.63,0.99,4-1.42,5.17
		L1142.77,137.85z"/>
	<path class="st0" d="M1211.58,206.75c0.33,1.91,0.55,2.56,0.55,3.21c0.02,6.97,0.01,13.94,0.01,21.36
		c-3.47,2.47-6.88,5.59-11.59,7.21c-3.57-2.65-4.38-5.63-2.64-9.58c3.03-6.9,2.95-6.93-0.25-14.03
		C1201.68,211.79,1206.01,209.07,1211.58,206.75z"/>
	<path class="st0" d="M303.9,1560.98c-2.2,0.19-3.54,0.59-4.76,0.36c-10.49-1.94-21.08-1.35-31.62-1.18
		c-5.11,0.09-8.69-1.72-11.56-6c3.92-4.57,9.12-4.23,13.51-2.28c5.78,2.56,10.83,2.39,15.98-0.78c3.29-2.02,6.21-1.83,8.95,0.92
		C297.14,1554.79,301.14,1556.16,303.9,1560.98z"/>
	<path class="st0" d="M1164.92,230.91c2.14-8.28,0.73-15.67,1.63-23.58c5.67,1.1,9.25,5,13.98,6.88c-1.43,3.59-2.53,6.33-3.81,9.56
		c2.96,4.34,6.91,9.04,1.34,14.75C1172.86,237.38,1169.55,233.51,1164.92,230.91z"/>
	<path class="st0" d="M84.9,1592.26c5.52,0.07,10.74-1.17,15.68,0.92c0.25,2.9-1.96,2.77-3.18,3.3c-9.7,4.17-19.28,8.61-27.74,14.99
		c-3.59,2.71-7.08,2.95-11.1,2.07c1.21-7.2,4.29-11.16,9.44-11.98c2.26-0.36,4.61-0.13,6.91-0.34c2.12-0.2,3.5-1.74,4.85-3.17
		C81.35,1596.37,82.83,1594.61,84.9,1592.26z"/>
	<path class="st0" d="M152.88,1570.82c1.58-3.55,4.74-5.34,7.93-7.09c2.49-1.36,5.08-1.79,7.47-0.07c5.22,3.76,9.89,2.27,14.5-1.14
		c0.78-0.58,1.75-0.9,2.9-1.48c3.77,1.33,7.92,2.22,11.85,5.97c-12,2.65-23.07,5.17-34.19,7.49
		C159.7,1575.27,157.97,1574.42,152.88,1570.82z"/>
	<path class="st0" d="M23.11,1655.08c-1.35-5.56,0.49-9.93,2.12-14.18c1.33-3.48,4-6.54,7.74-7.12c6.86-1.06,10.29-5.35,12.42-11.59
		c3.06-1.1,6.14-1.89,10.42-1.93c-5.56,6.44-10.39,12.45-15.68,18.03C34.82,1643.9,32.56,1652.57,23.11,1655.08z"/>
	<path class="st0" d="M1423.07,1747.43c2.77-2.17,5.79-4.53,8.63-6.75c0.73,0.34,1.15,0.39,1.31,0.62
		c7.57,11.22,7.56,12.15-0.9,22.05c-1.87,2.19-3.72,4.51-7.07,6.01c-1.51-3.84-0.38-7.45-0.84-10.88
		C1423.72,1754.93,1421.8,1751.54,1423.07,1747.43z"/>
	<path class="st0" d="M103.43,1586.73c3.75-6.47,8.8-8.67,15.33-6.46c3.76,1.27,7.52,1.89,10.26-1.03
		c5.82-6.19,12.05-5.8,18.86-2.17c-0.04,2.06-1.78,2.27-3.34,2.76c-6.65,2.1-13.42,3.9-19.91,6.44
		C117.91,1588.89,111.36,1590.04,103.43,1586.73z"/>
	<path class="st0" d="M1108.11,155.59c-5.85-3.29-9.52-7.78-8.45-15.76c4.9,3.6,9.32,6.88,13.77,10.12
		c2.25,1.64,4.25,1.22,6.02-0.82l-0.23,0.04c2.62,0.24,5.25,0.49,8.24,0.77c0.71,3.86,3.23,7.17,2.94,11.03
		c-2.12,1.87-4.11,0.75-5.99,0.79l0.36,0.24c-3.46-2.67-7.35-4.43-12.1-6.05c0.81,1.86,1.3,2.97,1.79,4.09l0.21-0.33
		c-3.18-0.01-4.78-2.49-6.79-4.33C1107.95,155.45,1108.03,155.52,1108.11,155.59z"/>
	<path class="st0" d="M113.76,1657.47c-9.1,0.58-9.61,0.99-11.09,8.6c-0.13,0.65-0.16,1.31-0.28,1.96
		c-1.71,9.25-3.42,10.66-13.98,11.48c-2.36-2.33-1.58-4.98-0.13-7.18c6.62-10.01,15.23-17.68,26.33-22.68
		C116.15,1652.92,114.25,1654.82,113.76,1657.47z"/>
	<path class="st0" d="M1254.78,161.8c-2.23-0.2-4.51,1.04-7.31-0.56c0.5-3.9,1.71-7.74,4.08-11.9c3.06,0.87,6.96-1.27,9.38,2.84
		c-0.51,0.55-0.92,0.14-0.54-0.1c1.12-0.69-0.54-0.68,0.3,0.35c5.75-3.7,11.74-7.07,16.67-12.85c1.42,9.96,0.47,11.53-8.91,16.18
		l0.25,0.25c-0.78-1.26-1.57-0.93-2.37-0.02l0.3-0.21c-4.7,0.89-8.88,2.83-12.3,6.24L1254.78,161.8z"/>
	<path class="st0" d="M17.07,1664.84c2.49-1.64,4.38-3.57,7.16-4.17c-1.4,11.45-7.14,34.36-9.73,39.02
		c-6.38-6.17-7.01-10.75-1.78-17.15c1.61-1.97,2.2-4.01,2.59-6.26C15.93,1672.72,16.42,1669.12,17.07,1664.84z"/>
	<path class="st0" d="M1462.18,1770.17c6.29-1.59,12.2-3.45,16.92-8.07c2.51,9.29-3.42,19.09-15.64,25.54
		c-0.45-3.03-1.01-5.82-1.23-8.64C1462.02,1776.39,1462.18,1773.75,1462.18,1770.17z"/>
	<path class="st0" d="M22.02,1740.9c-4.66-2.54-8.31-5.34-5.55-11.54c1.02-2.29,0.18-4.52-1.09-6.57c-1.56-2.51-3.09-5.05-4.78-7.82
		c1.23-3.44,3.52-6,7.01-8.92c2.55,9.02,5.02,17.31,7.19,25.68C25.58,1734.76,24.88,1736.03,22.02,1740.9z"/>
	<path class="st0" d="M1253.77,1164.02c1.9-6.28,3.52-11.64,5.45-18.06c4.39,6.45,4.77,13.37,6.54,19.63
		c1.76,6.27,3.76,12.46,5.29,18.95C1265.39,1177.83,1259.73,1171.1,1253.77,1164.02z"/>
	<path class="st0" d="M1106.58,1185.56c-0.26-5.88,3.52-10.58,4.68-16.11c1.6-7.63,4.07-15.08,6.49-23.76
		c3.98,5.96,3.81,12.22,6.9,17.96c-6.1,7.2-12.21,14.42-18.33,21.65L1106.58,1185.56z"/>
	<path class="st0" d="M1348.78,1650.56c6.45,3.87,11.51,5.94,17.53,4.01c1,7.75-0.46,15.17,4.03,22.43
		C1360.85,1672.9,1354.01,1664.58,1348.78,1650.56z"/>
	<path class="st0" d="M83.58,1682.14c0.91,5.83,2.71,9.61-1.48,13.31c-2.72,2.4-2.09,5.9-0.36,9.11c1.23,2.3,2.36,4.76,2.91,7.29
		c0.8,3.61,0.69,7.26-2.71,10c-3.42-1.86-5.3-4.75-5.47-8.59C76.02,1703.04,75.85,1692.85,83.58,1682.14z"/>
	<path class="st0" d="M1565.22,921.71c1.69,0.38,2.72,1.35,2.38,2.79c-1.52,6.51-11.73,18.15-18.71,21.54
		c-0.12-0.31-0.36-0.62-0.34-0.92c0.15-3.92,0.33-7.85,0.53-12.41c2.94-1.53,6.69-1.78,9.41-4.28
		C1560.86,926.26,1562.17,922.97,1565.22,921.71z"/>
	<path class="st0" d="M1329.73,1332.1c-1.3-1.69-2.45-2.9-3.26-4.31c-2.81-4.87-8.36-8.44-9.01-14.08
		c-0.58-5.01,1.2-10.3,1.96-15.53C1324.14,1304.54,1329.13,1320.74,1329.73,1332.1z"/>
	<path class="st0" d="M1106.32,1185.3c-0.45,3.61-1.07,7.44,0.54,10.69c3.42,6.95,0.24,11.97-4.05,16.86
		c-1.07,1.22-2.2,2.46-4.61,2.81c-2.71-3.59-2.26-7.93-0.69-11.66c2.65-6.3,4.68-12.98,9.08-18.44L1106.32,1185.3z"/>
	<path class="st0" d="M102.73,1762.03c-11.59-8.19-17.64-19.53-22.79-32.57c7.49,2.65,8.33,2.69,8.15,7.15
		c-0.26,6.34,3.39,8.83,8.07,11.15c3.29,1.63,6.5,3.53,7.8,7.3C104.59,1756.92,105.42,1758.85,102.73,1762.03z"/>
	<path class="st0" d="M1503.55,1753.75c-0.24-6.02-0.92-11.78-3.39-17.67c5.53-2.41,10.76-3.84,16.31-8.54
		C1514.2,1738.62,1508.75,1745.93,1503.55,1753.75z"/>
	<path class="st0" d="M145.6,1634.76c0.79,1.21,0.86,2.35-0.12,3.54c-2.07,2.52-3.99,5.18-6.14,7.64c-6.94,7.92-8.47,8.08-18.6,1.88
		c7.21-6.86,17.1-8.08,24.97-12.98L145.6,1634.76z"/>
	<path class="st0" d="M828.43,931.76c0.84,5.83-0.22,10.18,2.17,14.57c-5.24-1.86-7.3-3.11-12.75-9.99
		c-3.23-4.07-8.35-7.66-6.61-15.1C817.83,924.42,820.44,932.54,828.43,931.76z"/>
	<path class="st0" d="M1049.42,1332.38c-0.99-2.18-1.32-4.46-0.69-6.77c2.52-9.18,4.5-18.54,9.01-28.6c0.94,4.14,1.64,7.06,2.27,10
		c1.08,5.06,0.76,9.55-3.15,13.76c-3.1,3.33-5.18,7.62-7.71,11.49L1049.42,1332.38z"/>
	<path class="st0" d="M1279.97,1215.89c-10.77-7.2-11.41-9.66-7.01-25.93c3.48,1.22,3.3,4.77,4.57,7.36
		c1.44,2.92,2.78,5.85,3.6,9.11C1282.01,1209.94,1281.09,1212.74,1279.97,1215.89z"/>
	<path class="st0" d="M29.66,1742.79c2.83,4.64,5.65,9.07,8.28,13.6c2.44,4.21,6.57,7.33,8.3,12.16c-6.68,1.44-9.3,0.82-10.45-3.76
		c-1.33-5.3-3.1-9.75-7.58-13.33C25.05,1748.93,26.06,1745.62,29.66,1742.79z"/>
	<path class="st0" d="M52.35,1774.75c6.05,4.79,12.15,9.52,18.12,14.4c1.56,1.28,2.39,3.12,1.38,5.42
		c-2.86,1.11-6.32,1.74-7.51-1.73c-2.47-7.18-8.12-11.6-13.53-16.33C51.33,1775.92,51.84,1775.33,52.35,1774.75z"/>
	<path class="st0" d="M130.38,1780.35c-2.64,1.3-4.81,1.46-6.44,0.36c-5.68-3.83-11.43-7.64-15.92-12.88
		c1.96-2.53,4.87-2.16,5.28-0.72c1.86,6.57,6.8,6.21,11.9,6.38C129.14,1773.62,131.32,1775.7,130.38,1780.35z"/>
	<path class="st0" d="M146.61,1793.77c3.92-0.26,7.58-2.04,11.62-1.75c3.54,0.25,6.35,1.42,8.03,4.71c0.99,1.94-0.09,4.13-2.24,4.4
		c-0.65,0.08-1.39,0.32-1.94,0.11c-5.36-2.03-11.39-2.75-15.29-7.69L146.61,1793.77z"/>
	<path class="st0" d="M1436.45,912.81c-6.45-4.58-11.02-8.34-13.95-15.08c5.16,0.18,9.1,2.68,13.72,1.98
		C1437.22,903.76,1436.77,907.25,1436.45,912.81z"/>
	<path class="st0" d="M955.21,898.39c-2.34,6.09-7.2,9.76-12.85,13.72c-2.35-4-1.17-7.7-1.32-12.09c5.15,0.21,9.41-2.65,14.32-1.42
		L955.21,898.39z"/>
	<path class="st0" d="M216.7,1815.53c-8.21-0.61-14.9-1.78-21.48-4.17C203.77,1806.29,209.07,1807.1,216.7,1815.53z"/>
	<path class="st0" d="M1140.61,140.25c-1.16,1.58-2.18,3.29-3.51,4.71c-2.26,2.42-2.68,5.25-1.98,8.24
		c0.81,3.5,1.98,6.92,2.85,10.41c1.04,4.18,0.84,4.41-4.98,7.45c-0.55-3.49,2.59-6.21,1.73-9.57c-0.73-2.85-1.48-5.71-2.02-8.61
		c-1.46-7.77,0.08-10.06,8.1-12.39C1140.8,140.52,1140.61,140.25,1140.61,140.25z"/>
	<path class="st0" d="M1198.46,84.02c5.89,0.97,5.89,0.97,10.98,7.61c-4.88,0.12-9.63,4.31-13.55-1.84
		c-0.22-2.43,1.86-3.93,2.76-5.96L1198.46,84.02z"/>
	<path class="st0" d="M1182.2,89.8c-3.87,5.76-8.56,2.63-13.64,1.56c2.79-4.06,5.39-7.39,10.53-8.04
		C1180.76,85.03,1181.47,87.39,1182.2,89.8z"/>
	<path class="st0" d="M164.55,1629.65c-2.85,8.11-2.85,8.12-10.46,6.74c-2.83-0.51-5.66-1.08-8.49-1.63l0.1,0.08
		c4.4-1.47,8.81-2.92,13.21-4.4c1.9-0.64,3.78-1.33,5.81-0.6L164.55,1629.65z"/>
	<path class="st0" d="M1045.46,1347.17c3.35,6.86,3.15,8.56-2.08,17.58C1042.14,1358.21,1042.14,1358.21,1045.46,1347.17z"/>
	<path class="st0" d="M1037.21,1435.16c0-5.51,0-11.02,0-18.11C1041.95,1424.07,1041.66,1429.62,1037.21,1435.16z"/>
	<path class="st0" d="M1334.69,1363.97c-3.31-4.81-5.66-9.83-2.85-17.18C1335.17,1353.13,1336.04,1358.33,1334.69,1363.97z"/>
	<path class="st0" d="M800.32,920.69c-0.16,3.8-0.9,5.52-2.84,6.99c-2.82-3.44-5.22-7.04-6.58-12.48
		C795.15,916.77,796.85,920.39,800.32,920.69z"/>
	<path class="st0" d="M146.79,1793.57c-5.64,0.03-9.25-3.91-14.27-7.02c2.5-0.94,4.25-1.61,6.77-2.56c2.45,3.27,4.89,6.53,7.32,9.78
		L146.79,1793.57z"/>
	<path class="st0" d="M1586.96,916.37c-1.53,4.37-3.59,8.39-6.94,11.84c-1.87-2.3-1.99-4.6-2.09-7.5c3.44-0.25,4.92-4.76,9.09-4.08
		L1586.96,916.37z"/>
	<path class="st0" d="M1340.18,1418.76c0.96,6.08,0.89,11.24,0.03,17.57C1335.57,1430.02,1336.02,1424.86,1340.18,1418.76z"/>
	<path class="st0" d="M187.37,1809.43c-5.26-0.8-9.35-1.93-14.95-3.59C180.55,1803.07,180.55,1803.07,187.37,1809.43z"/>
	<path class="st0" d="M1242.06,159.46c1.1,3.72,2.2,7.45,3.35,11.34c-7-2.4-7-2.4-3.1-11.13
		C1242.31,159.67,1242.06,159.46,1242.06,159.46z"/>
	<path class="st0" d="M1124.4,161.77c0.39,1.86,2.75,1.39,3.46,2.9c-5.62,1.69-6.74,1.27-13.2-4.95l-0.21,0.33
		c3.49,0.39,6.62,2.64,10.31,1.97L1124.4,161.77z"/>
	<path class="st0" d="M1400.34,543.08c0.24,3.48-2.21,5.11-4.53,7.39C1394.72,543.67,1394.79,543.57,1400.34,543.08z"/>
	<path class="st0" d="M89.14,1803.47c3.28,2.04,6.55,4.07,10.84,6.74c-7.89-0.12-9.75-1.52-10.57-6.89L89.14,1803.47z"/>
	<path class="st0" d="M998.64,546.15c-4.88-0.16-6.72-1.77-7.62-5.54C994.91,540.41,997.08,541.62,998.64,546.15z"/>
	<path class="st0" d="M977.99,542.06c5.35,3.18,5.35,3.18,3.71,7.89C979.12,547.81,977.13,545.89,977.99,542.06z"/>
	<path class="st0" d="M1487.84,1749.35c0.97,3.45,0.01,5.93-2.31,8.21C1484.11,1754.22,1485.37,1751.82,1487.84,1749.35z"/>
	<path class="st0" d="M1260.37,161.81c-2.89,3.63-6.47,4.81-11.53,4.23c1.69-3.41,4.86-2.03,5.94-4.24l-0.44,0.22
		c2.09,0,4.17,0.01,6.26,0.01L1260.37,161.81z"/>
	<path class="st0" d="M1386.58,539.75c-0.31,4.87-2.66,5.83-5.23,6.64C1378.8,541.25,1383.16,541.62,1386.58,539.75z"/>
	<path class="st0" d="M87.05,1800.79c-2.21,0.37-4.5,1-6.62-0.01c-1.2-0.57-1.72-1.83-0.92-3.3c3.13-0.2,4.56,3.31,7.5,3.52
		L87.05,1800.79z"/>
	<path class="st0" d="M966.58,739.89c0.7-2.87,3.46-2.06,6.21-3.43c-1.59,3.69-3.94,3.55-6.38,3.23L966.58,739.89z"/>
	<path class="st0" d="M981.83,516.22c-0.33,0.41-0.64,1.16-0.99,1.18c-1.49,0.08-2.19-0.94-2.33-2.28c-0.02-0.17,1-0.64,1.53-0.64
		C981.07,514.5,981.65,515.21,981.83,516.22z"/>
	<path class="st0" d="M1405.34,529.91c0.98,0.4,1.4,1.12,1.09,2.14c-0.4,1.32-1.25,2.19-2.69,1.73c-0.38-0.12-0.67-1.04-0.69-1.61
		C1403,530.67,1403.84,529.91,1405.34,529.91z"/>
	<path class="st0" d="M231.76,1816.2c-0.42,1.32-1.38,1.15-2.14,1.06c-0.68-0.08-2.12,0.17-1.32-1.35c0.25-0.47,1.04-1.08,1.41-0.98
		C230.47,1815.13,231.12,1815.77,231.76,1816.2z"/>
	<path class="st0" d="M1337.5,1387.59c1.38,1.5,1.7,2.95-0.07,4.39C1336.19,1390.49,1336.62,1389.06,1337.5,1387.59z"/>
	<path class="st0" d="M1039.76,1392c-1.23-1.44-1.09-2.89-0.11-4.38C1040.88,1389.06,1040.78,1390.5,1039.76,1392z"/>
	<path class="st0" d="M1016.85,386.23c-0.37-3.09,0.79-5.25,3.79-6.29c0,0-0.19-0.18-0.19-0.18c0.39,3.2-2.46,4.55-3.86,6.73
		L1016.85,386.23z"/>
	<path class="st0" d="M1034.47,1023.71c-0.96,4.03-3.53,4.51-6.94,3.15l0.11,0.1c2.68-0.22,3.77-4.09,7-3.06L1034.47,1023.71z"/>
	<path class="st0" d="M113.33,1821.06c0.41-0.38,0.78-1.01,1.12-1c1.39,0.04,2.2,0.89,2.3,2.28c0.01,0.21-0.38,0.62-0.6,0.64
		C114.71,1823.09,114.01,1822.1,113.33,1821.06z"/>
	<path class="st0" d="M974.14,534.33c-2.15-0.77-2.73-2.12-2.82-4.22C975.38,529.62,974.9,531.67,974.14,534.33z"/>
	<path class="st0" d="M250.55,1818.59c-1.44,1.06-2.84,1.09-4.25-0.05C247.74,1817.47,249.14,1817.37,250.55,1818.59z"/>
	<path class="st0" d="M1540.59,924.48c0.37,0.36,1.01,0.7,1.02,1.06c0.03,0.75-0.54,0.97-1.08,0.45c-0.33-0.32-0.47-0.85-0.7-1.28
		C1540.09,924.63,1540.35,924.55,1540.59,924.48z"/>
	<path class="st0" d="M1325.78,838.64c-0.11-1.03-0.22-2.05-0.39-3.59c1.12,1.63,0.67,2.72,0.26,3.81
		C1325.65,838.86,1325.78,838.64,1325.78,838.64z"/>
	<path class="st0" d="M1037.36,517.13c-0.24-0.53-0.72-1.1-0.65-1.58c0.15-1.06,0.99-1.42,1.89-0.87c0.27,0.17,0.36,1.1,0.15,1.47
		C1038.5,516.59,1037.85,516.81,1037.36,517.13z"/>
	<path class="st0" d="M1339.64,517.02c-0.28-0.51-0.81-1.04-0.78-1.53c0.09-1.18,0.89-1.47,1.97-1.07c0.79,0.3,0.98,0.86,0.37,1.52
		C1340.79,516.4,1340.17,516.67,1339.64,517.02z"/>
	<path class="st0" d="M1397.33,517.55c-1.06-1.17-0.8-2.25,0.42-2.99c0.34-0.21,1.57,0.25,1.58,0.44
		C1399.39,516.34,1398.62,517.18,1397.33,517.55z"/>
	<path class="st0" d="M1264.35,159.84c-0.87,1.59-2.3,2.02-3.98,1.97c0,0,0.23,0.23,0.23,0.23c0.53-2.34,2.47-1.81,4.06-1.98
		L1264.35,159.84z"/>
	<path class="st0" d="M1012.48,1443.81c1.11-0.13,1.64,0.47,1.58,1.48c-0.02,0.27-0.91,0.76-0.96,0.71
		c-0.66-0.67-0.96-1.46-0.41-2.36L1012.48,1443.81z"/>
	<path class="st0" d="M1054.4,1489.54c-0.16,0.57-0.33,1.15-0.49,1.72c-1.32-1.23,0.13-1.17,0.71-1.52L1054.4,1489.54z"/>
	<path class="st0" d="M838.25,924.96c-0.22,0.48-0.48,1.05-0.74,1.61c-0.21-0.25-0.49-0.47-0.61-0.75
		c-0.33-0.74-0.08-1.33,0.69-1.57C837.72,924.21,838.01,924.7,838.25,924.96z"/>
	<path class="st0" d="M275.71,1820.34c0.28-0.09,0.59-0.3,0.83-0.24c0.93,0.23,1.01,0.65,0.22,1.01c-0.23,0.1-0.62,0.01-0.86-0.13
		C275.75,1820.91,275.76,1820.56,275.71,1820.34z"/>
	<path class="st0" d="M1360.36,383.93c0.83,0.01,1.17,0.29,1.01,0.86c-0.21-0.06-0.53-0.07-0.6-0.2c-0.14-0.25-0.13-0.58-0.18-0.88
		L1360.36,383.93z"/>
	<path class="st0" d="M1016.6,386.49c-0.53-1.22,1.04-0.85-0.2-0.43c-0.46,0.16-0.16,0.67,0.45,0.18L1016.6,386.49z"/>
	<polygon class="st0" points="1160.04,412.31 1160.44,411.96 1159.81,412.48 	"/>
	<path class="st0" d="M1446.7,1581.61c-1.22-0.55,0.29-1.25-0.5-0.21c-0.38,0.5,0.16,0.83,0.78,0.36L1446.7,1581.61z"/>
	<path class="st0" d="M1446.97,1581.77c-0.9,0.99-1.29-0.52-0.32,0.35c0.42,0.37,0.75-0.16,0.04-0.5L1446.97,1581.77z"/>
	<path class="st0" d="M480.61,1591.67c0.23,0.12,0.5,0.19,0.68,0.36c0.08,0.08,0,0.34-0.01,0.51c-0.15-0.36-0.3-0.72-0.44-1.08
		L480.61,1591.67z"/>
	<path class="st0" d="M1036.47,1015.7c-0.2,0.43-0.41,0.87-0.61,1.3c-1.11-1.36,0.11-1.04,0.8-1.11L1036.47,1015.7z"/>
	<path class="st0" d="M1062.48,1611.74c0.12-0.23,0.19-0.49,0.36-0.67c0.08-0.08,0.33,0,0.5,0.01c-0.36,0.14-0.71,0.29-1.07,0.43
		L1062.48,1611.74z"/>
	<polygon class="st0" points="1587.01,916.63 1586.67,915.83 1586.96,916.37 	"/>
	<path class="st0" d="M1364.6,1445.73c-0.13,0.22-0.22,0.47-0.39,0.64c-0.08,0.08-0.31,0-0.47,0c0.36-0.13,0.73-0.26,1.09-0.39
		L1364.6,1445.73z"/>
	<path class="st0" d="M164.73,1629.83c-0.08-0.75,0.16-1.05,0.71-0.87c0.03,0.01,0,0.49-0.12,0.55c-0.22,0.12-0.51,0.09-0.77,0.13
		C164.55,1629.65,164.73,1629.83,164.73,1629.83z"/>
	<path class="st0" d="M955.36,898.6c-0.16-0.16-0.32-0.32-0.48-0.48c0.11,0.09,0.22,0.18,0.33,0.27L955.36,898.6z"/>
	<path class="st0" d="M542.5,1615.81c0.75-0.1,1.06,0.13,0.88,0.69c-0.01,0.03-0.49,0-0.55-0.11c-0.12-0.21-0.11-0.51-0.15-0.77
		C542.68,1615.62,542.5,1615.81,542.5,1615.81z"/>
	<path class="st0" d="M814.49,845.71c0.28,0.76-0.38,1.76-0.63,1.52c-1.53-1.42-0.04-1.23,0.84-1.32
		C814.69,845.91,814.49,845.71,814.49,845.71z"/>
	<path class="st0" d="M1260.4,105.9c-0.07-0.08-0.14-0.17-0.2-0.25C1260.19,105.64,1260.4,105.9,1260.4,105.9z"/>
	<path class="st0" d="M1049.15,1332.25c0.09,0.04,0.17,0.08,0.26,0.13L1049.15,1332.25z"/>
	<path class="st0" d="M1229.92,1753.19c-0.08-0.05-0.17-0.1-0.25-0.15L1229.92,1753.19z"/>
	<polygon class="st0" points="470.19,1787.45 470.69,1787.36 469.94,1787.56 	"/>
	<path class="st0" d="M1140.8,140.52c0.66-0.89,1.31-1.78,1.97-2.67c0,0-0.23-0.24-0.23-0.24c-0.64,0.88-1.29,1.77-1.93,2.65
		C1140.61,140.25,1140.8,140.52,1140.8,140.52z"/>
	<path class="st0" d="M1119.44,149.14c-0.19,0.13-0.38,0.26-0.57,0.38c-0.05,0.03-0.12,0.03-0.18,0.05
		c0.17-0.13,0.35-0.25,0.52-0.38C1119.21,149.18,1119.44,149.14,1119.44,149.14z"/>
	<path class="st0" d="M1268.46,155.75c0,1.34-0.71,1.98-2.02,2l0.22,0.27c-0.01-0.75-0.01-1.49-0.02-2.24c0,0-0.3,0.21-0.3,0.21
		c0.79,0.01,1.58,0.01,2.37,0.02L1268.46,155.75z"/>
	<path class="st0" d="M89.41,1803.32c-1.38-0.29-1.82-1.46-2.37-2.53l-0.04,0.21c0.71,0.82,1.42,1.65,2.14,2.47L89.41,1803.32z"/>
	<path class="st0" d="M1406.66,737.72c-0.85,0.13-1.22-0.13-1.05-0.76c0.01-0.02,0.55-0.01,0.63,0.11c0.15,0.24,0.14,0.58,0.19,0.88
		C1406.43,737.96,1406.66,737.72,1406.66,737.72z"/>
	<path class="st0" d="M1266.44,157.75c-0.07,1.32-1,1.77-2.08,2.09c0,0,0.31,0.22,0.31,0.22c-0.04-1.37,0.71-1.97,2-2.04
		L1266.44,157.75z"/>
	<path class="st0" d="M1198.65,83.84c-0.75,0.1-1.06-0.13-0.88-0.69c0.01-0.03,0.49,0,0.55,0.11c0.12,0.21,0.11,0.51,0.15,0.77
		C1198.46,84.02,1198.65,83.84,1198.65,83.84z"/>
</g>
</svg>
