<?xml version="1.0" encoding="utf-8"?>
<!-- Generator: Adobe Illustrator 24.1.1, SVG Export Plug-In . SVG Version: 6.00 Build 0)  -->
<svg version="1.1" id="Layer_1" xmlns="http://www.w3.org/2000/svg" xmlns:xlink="http://www.w3.org/1999/xlink" x="0px" y="0px"
	 viewBox="0 0 2369.37 1903.59" style="enable-background:new 0 0 2369.37 1903.59;" xml:space="preserve">
<style type="text/css">
	.st0{fill:#1A1A1A;}
</style>
<g>
	<path d="M1391.48,557.78c-0.44-3.02-0.82-5.58-1.15-7.85c-1.3-0.82-2.24-0.62-3.06-0.06c-2.86,1.95-4.6,5.73-7.53,5.84
		c-2.49-0.83-2.69-1.92-2.71-2.84c-0.16-8.7-0.6-17.26-6.03-24.76c-1.29-1.78-2.01-4.42-1.95-6.63c0.24-8.19-4.98-13.33-9.87-19.38
		c-4.55,3.07-4.3,9.14-8.39,12.03c-4.23,2.98-5.83,7.99-9.06,12.57c-6.45-5.68-10.03-12.32-10.84-20.5
		c-0.24-2.43,0.41-4.66,1.6-6.69c4.07-6.91,7.59-13.99,9.2-21.97c0.43-2.12,2.14-4.11,3.62-5.86c1.94-2.28,3.79-4.55,4.91-7.04
		c-2.54-7.3-7.37-11.97-13.45-15.9c-7.26-4.7-13.94-10.16-19.15-17.32c-6.45-8.87-10.23-18.57-10.85-29.51
		c-0.15-2.66-0.31-5.32-0.66-7.96c-0.78-5.83-3.12-11.19-7.89-14.52c-10.33-7.21-18.26-16.38-24.46-27.21
		c-0.26-0.46-1.09-0.59-2.47-1.29c-2.14,15.59-8.73,29.78-11.7,44.89c-1.99,10.1-1.44,20.53,1.22,30.67
		c4.72,18.01,9.2,36.09,14.17,54.03c5.4,19.51,15.21,35.73,33.29,46.66c13.35,8.07,25.95,17.5,37.32,28.34
		c17.53,16.73,26.84,37.69,31.18,61.17c0.24,1.3,0.35,2.63,0.48,3.96c1,10,4.45,18.98,9.07,28c7.96,15.52,11.37,32.55,12.5,49.98
		c0.45,6.9,0.92,13.81,1.34,20.71c0.2,3.36,0.99,6.56,2.67,10.06c7.85,3.37,15.99,7.09,24.31,10.36c8.15,3.2,16.92,3.3,25.48,3.31
		c7.23,0.01,14.45-1.51,21.68-2.32c8.83-0.99,17.59-2.72,26.6-1.28c12.8,2.05,22.35,8.29,27.38,20.5
		c4.31,10.45,8.47,20.96,12.52,31.52c8.93,23.26,21.43,44.28,38.97,62.1c6.77,6.88,10.41,15.2,12.94,24.32
		c3.15,11.38,4.78,22.75,1.92,34.4c-2.63,10.68-7.67,19.74-17.27,25.53c-3.48-0.92-2.02-4.85-4.37-6.26
		c-0.61,0.23-1.46,0.28-1.78,0.71c-4.74,6.45-9.73,12.6-16.13,17.57c-3.86,3-7.8,4.87-13.06,4.38c-3.13-5.57,3.23-10.97-0.54-17.19
		c-0.39-0.41-1.55,0.59-2.76,0.83c-0.92,0.18-1.9,0.04-3.41,0.04c-0.79-5.91-1.45-11.76-2.61-17.54
		c-1.26-6.26-4.14-10.46-10.46-11.79c-8.34-1.75-13.84-7.62-19.53-13.2c-2.42-2.37-3.87-5.36-4.68-8.68
		c-0.79-3.23-2.04-6.36-2.61-9.61c-2.38-13.58-10.76-22.39-22.35-28.75c-2.66,0.49-2.68,2.65-2.87,4.6
		c-0.63,6.54-3.57,12.68-2.84,19.53c0.35,3.26-1.92,6.33-4.13,8.87c-3.5,4.02-7.11,8.01-11.84,10.63
		c-6.23,3.45-8.64,8.86-8.57,15.69c0.02,2,0.12,4.02-0.13,5.99c-0.5,3.92-3.87,5.79-7.28,3.69c-17.62-10.82-25.23-27.2-17.98-48.63
		c1.85-5.47,5.02-10.49,8.59-17.75c-21.4,11.1-42.3,14.91-63.49,12.84c-2.07,2.67-1.18,4.53-1.06,6.47
		c1.01,16.94,1.49,33.89-0.22,50.81c-2.17,21.51-6.08,42.74-10.46,63.9c-1.89,9.15-1.71,18.28,0.66,27.51
		c1.61,6.27,4.64,10.68,10.08,14.06c10.74,6.68,21.2,13.81,31.86,20.62c17.74,11.34,33.5,25.09,49.2,39.03
		c13.49,11.98,25.7,25.11,37.26,38.87c11.16,13.28,20.44,27.94,28.55,43.23c10.28,19.4,20.11,39.06,27.47,59.81
		c2.99,8.45,5.73,17.02,7.92,25.7c1.55,6.14,1.52,12.42-0.73,18.68c-7.66,21.27-16.52,42.11-22.72,63.9
		c-4.55,15.99-14.16,29.23-23.47,42.64c-12.37,17.83-26.79,33.96-41.85,49.47c-13.46,13.86-27.23,27.39-38.7,43.01
		c-1.96,2.67-3.83,5.44-5.38,8.35c-4.61,8.65-2.15,16.91,2.27,24.65c6.43,11.27,13.13,22.39,20,33.4
		c12.69,20.35,26.72,39.77,40.63,59.3c10.42,14.62,20.51,29.52,30.56,44.4c11.51,17.05,17.93,36.11,20.71,56.6
		c0.93,6.82,0.71,13.15-0.88,19.65c-2.14,8.72-3.85,17.53-6.96,26c-2.22,6.04-5.3,11.47-10.23,15.72c-1.3,1.12-2.7,1.94-4.55,1.76
		c-5.84-1.66-1.59-9.03-6.98-11.62c-3.13,8.83-6.36,17.7-11.55,25.54c-5.31,8.02-11.07,15.75-20.05,19.93
		c-4.87-2.11-6.49-5.92-7.04-10.44c-0.2-1.65-0.68-3.34-0.51-4.96c1.07-9.81-3.69-16.42-11.84-21.69c-2.69,1.33-3.36,4.54-5.17,6.7
		c-3.03,3.59-6.06,7.08-10.09,9.55c-5,3.06-8.19,1.92-9.42-3.65c-0.86-3.88-1.03-7.9-1.7-11.83c-1.12-6.5-2.15-12.61-8.01-17.51
		c-5.47-4.58-9.73-10.85-13.72-16.91c-5.43-8.26-6.67-17.95-7.54-27.61c-0.74-8.26-0.91-16.55-1.73-24.83
		c-0.86-8.74-3.58-16.85-5.73-25.65c-4.62,0.29-6.09,2.97-6.66,6.94c-1.38,9.57-1.99,19.08,0.96,28.48c0.4,1.28,0.74,2.55-0.45,4.55
		c-5.61,0.13-10.17-2.74-14.24-6.69c-18.08-17.55-29.81-38.12-30.3-64.01c-0.02-0.98-0.32-1.94-0.7-4.06
		c-2.61,8-5.1,14.93-7.14,21.99c-4.52,15.69-9.91,30.99-17.69,45.45c-7.4,13.76-14.07,27.91-21.26,41.78
		c-9.21,17.79-20.48,34.2-33.06,49.81c-15.71,19.48-32.37,37.98-51.75,53.86c-12.64,10.36-26.28,19.29-40.9,26.67
		c-9.78,4.94-19.38,10.3-29.36,14.8c-24.94,11.23-50.96,19.34-77.61,25.37c-25.31,5.72-50.93,9.1-76.85,11
		c-18.33,1.35-36.65,1.66-54.85,0.79c-38.9-1.85-77.19-7.93-114.76-18.79c-38.01-10.99-72.93-28.54-107.41-47.43
		c-22.83-12.51-44.02-27.4-65.44-42.05c-27.18-18.59-53.89-37.9-82.17-54.86c-9.41-5.65-18.4-12-27.7-17.85
		c-26.79-16.86-55.01-31-83.45-44.82c-22.82-11.09-46.63-19.4-70.43-27.93c-17.7-6.34-36.26-8.04-54.52-11.45
		c-14.42-2.7-29.1-2.75-43.64-3.57c-12.52-0.71-25.25,0.57-37.77,1.98c-22.48,2.53-44.62,7.05-66.25,13.82
		c-15.26,4.78-30.09,10.76-44.38,17.91c-15.07,7.55-25.73,18.92-27.68,36.5c-1.21,10.95,2.28,20.93,7.55,30.32
		c7.49,13.33,18.25,23.73,30.57,32.47c19.71,13.97,41.35,23.72,64.65,30.41c14.39,4.13,28.74,8.12,43.49,10.67
		c18.02,3.11,36.09,5.64,54.45,5.66c4.95,0.01,9.92,1.32,14.85,1.19c51.49-1.39,102.04-7.78,149.71-28.98
		c7.29-3.24,14.63-6.39,21.92-9.63c1.23-0.55,2.4-1.11,4.04-0.39c1.14,2.01-0.49,3.47-1.59,4.83
		c-12.37,15.17-27.42,27.05-44.66,36.23c-35.91,19.12-74.24,30.5-114.35,36.78c-32.13,5.03-64.43,4.75-96.61,3.44
		c-20.12-0.82-40.17-5.16-59.91-9.92c-32.56-7.85-63.61-19.49-92.17-37.19c-20.54-12.73-38.83-28.04-53.1-47.8
		c-9.66-13.38-17.01-27.87-20.39-44.08c-4.54-21.76-2.76-43.06,6.37-63.46c12.52-27.97,32.81-48.76,59.05-64.33
		c21.95-13.02,45.66-21.55,69.73-29.35c25.37-8.23,51.48-13.21,77.78-17.1c10.82-1.6,21.82-2.15,32.72-3.17
		c16.31-1.53,32.59-1.26,48.87-1.01c39.9,0.61,79.69,3.33,118.72,12.14c15.23,3.44,30.73,5.34,45.86,9.2
		c17.44,4.44,34.29,10.73,51.18,16.79c20.65,7.41,41.65,13.86,61.69,22.99c21.77,9.92,43.82,19.26,65.71,28.93
		c12.79,5.65,25.19,12.09,37.49,18.73c27.91,15.07,57.73,25.62,87.42,36.46c21.26,7.76,42.78,14.7,64.99,19.21
		c6.79,1.38,13.69,2.27,19.78,3.26c2.13-1.25,2.35-2.53,2.47-3.86c2.48-27.59,13.26-51.62,29.29-74.12
		c23.94-33.6,48.28-66.98,69.86-102.21c4.52-7.38,8.78-14.91,13.12-22.4c0.83-1.44,1.43-3,2.16-4.5
		c4.92-10.08,2.82-19.09-3.69-27.77c-11.23-14.96-24.08-28.4-37.18-41.69c-15.65-15.87-30.35-32.61-43.54-50.66
		c-12.47-17.07-22.26-35.22-28.28-55.68c-5.05-17.19-11.91-33.87-18.36-50.61c-2.91-7.53-2.87-14.82-0.82-22.4
		c9.2-33.98,24.2-65.44,41.85-95.69c14.88-25.5,34.44-47.1,55.86-67.35c24.36-23.03,51.11-42.73,79.91-59.46
		c13.57-7.89,16.1-19.5,16.18-32.74c0.04-6.88-1.74-13.82-3.15-20.64c-3.77-18.23-7-36.58-8.63-55.1
		c-1.49-16.92-0.76-33.95-0.24-50.93c0.05-1.62,0.01-3.25,0.01-5.43c-10.99-1.39-21.92,0.22-32.69-2.18
		c-10.41-2.32-20.2-6.06-30.4-10.55c-0.85,3.25,1.42,4.68,2.29,6.56c0.98,2.12,2.04,4.19,2.97,6.33c10.3,23.82,2.06,40.5-15,52.01
		c-4.63,3.12-8.35,1.1-8.8-4.56c-0.16-1.99-0.07-4-0.05-6c0.07-6.16-2.24-11.02-7.79-14.02c-4.8-2.6-8.44-6.53-11.91-10.54
		c-2.83-3.28-4.49-6.98-4.62-11.74c-0.17-6.24-1.72-12.45-2.78-18.66c-0.22-1.31-1.11-2.35-2.92-3.18
		c-9.96,6.43-19.3,13.55-21.54,26.66c-0.39,2.28-1.32,4.47-1.8,6.75c-2.99,14.11-12.14,22.54-25.34,26.78
		c-6.11,1.96-9.54,5.47-10.61,11.75c-1,5.83-2.77,11.52-2.69,17.06c-2.89,2.07-4.98-0.27-7.25-0.01
		c-2.69,5.57,3.08,10.89,0.52,16.46c-10.58,0.75-13.23-1.18-30.34-22.16c-2.74,1.08-2.01,4.68-4.84,6.33
		c-10.33-5.46-15.54-15.07-17.63-25.96c-3.36-17.56-0.07-34.42,8.67-50.06c1.6-2.86,3.78-5.5,6.09-7.85
		c17.24-17.65,29.78-38.23,38.65-61.15c3.96-10.23,7.76-20.54,12.06-30.62c7.4-17.35,20.56-24.26,39.74-22.83
		c10.96,0.82,21.7,3.39,32.64,3.72c10.57,0.33,21.28,0.33,31.36-3.85c7.67-3.18,15.27-6.53,22.86-9.79
		c4.22-8.83,2.66-18.34,3.43-27.54c1.82-21.74,5.8-42.85,17.47-61.75c3.15-5.1,3.03-10.84,3.79-16.31
		c1.72-12.29,5.11-23.98,9.82-35.44c6.09-14.83,15.4-27.27,27.55-37.39c11.5-9.57,23.63-18.39,36.24-26.52
		c9.39-6.06,16.36-14.2,21.65-24.23c5.53-10.48,8.19-21.74,11.21-32.95c3.63-13.49,7.21-26.99,10.44-40.58
		c3.04-12.8,2.96-25.63-0.45-38.46c-2.98-11.21-7.65-21.98-8.98-33.64c-0.14-1.25-1.02-2.42-1.7-3.94
		c-3.18,4.48-6.06,8.85-9.28,12.97c-4.3,5.51-9.04,10.6-14.92,14.57c-5.84,3.93-9.19,9.37-9.53,16.62
		c-0.2,4.29-0.88,8.57-1.52,12.83c-2.03,13.44-8.96,24.22-18.79,33.2c-3.67,3.35-7.71,6.41-11.98,8.94
		c-5.76,3.42-9.42,8.23-11.71,14.08c0.17,0.9,0.08,1.7,0.44,2.14c4.89,5.97,8.74,12.35,10.28,20.12c0.62,3.15,2.52,6.18,4.33,8.94
		c5.71,8.69,4.46,17.03-1,25.14c-1.43,2.12-2.66,4.61-6.06,6.02c-4.54-8.59-12.46-14.87-16.35-24.63
		c-5.85,5.97-10.79,11.53-10.96,19.9c-0.05,2.25-0.58,4.85-1.81,6.66c-5.11,7.53-5.95,16-6.28,24.68c-0.03,0.88-0.62,1.75-0.91,2.52
		c-3.04,0.76-4.39-1.4-6.14-2.85c-1.46-1.22-2.44-3.23-4.81-3.15c-3.6,1.66-0.78,5.68-2.82,7.9c-0.62,0.11-1.34,0.5-1.79,0.29
		c-8.76-4.15-13.81-11.4-15.85-20.57c-1.53-6.84-5.91-12.51-6.78-19.7c-0.76-6.32-0.46-11.55,4.01-16.5
		c3.09-3.42,5.24-7.61,6.92-12.05c8.91-23.62,18.17-47.15,24.19-71.72c4.68-19.11,13.05-36.27,25.15-51.63
		c7.11-9.03,12.09-18.97,15.34-29.97c3.33-11.25,9.69-21.14,15.21-31.38c1.74-3.22,3.71-6.31,5.56-9.47
		c4.36-7.45,8.2-15.01,10.55-23.51c3.55-12.88,11.66-23.33,22.12-31.24c7.65-5.79,17.01-8.91,26.87-9.5
		c7.96-0.48,15.85-0.91,23.45-3.96c10.91-4.39,14.72-15.62,8.02-25.12c-1.71-2.42-3.52-5.27-5.99-6.56
		c-7.62-3.98-11.77-10.48-14.9-18c-0.51-1.22-1.26-2.34-2.08-3.81c-5.9-2.45-11.89-5.32-17.26-9.3
		c-10.59-7.85-15.34-17.83-11.4-31.69c5.1,1.78,7.08,7.33,11.48,9.15c4.2,1.74,8.74,3.22,14.11,2.32c-1.23-4.04-4.59-5.4-7.47-7.24
		c-8.35-5.32-14.21-12.86-19.26-21.22c-7.62-12.62-6.48-25.41-0.73-38.17c1.99-4.42,3.38-9.55,8.74-11.8
		c2.7,1.74,3.63,4.37,4.01,7.43c0.57,4.61,1.25,9.22,2.08,13.79c1.91,10.54,5.22,13.51,17.84,15.74
		c-4.24-7.16-7.98-14.04-10.89-21.41c-5.9-14.91-5.79-29.91-1.98-45.03c2.61-10.37,7.15-20.05,12.98-29.05
		c1.93-2.97,3.78-6.35,7.85-6.22c2.8,1.73,2.48,4.14,2.55,6.44c0.35,10.62-0.18,21.27,1.45,31.85c1.12,7.24,1.9,14.51,6.07,20.85
		c7.94,12.08,18.04,20.14,33.54,19.12c6.3-0.41,12.75-0.73,18.97,0.08c16.65,2.17,34.47-14.57,37.47-29.68
		c1.76-8.85,2.6-17.74,2.66-26.73c0.03-5.33,0.23-10.66,0.23-15.99c0-2.46,0.4-4.6,2.93-6.03c3.76,0.1,5.68,3.11,7.42,5.77
		c12.07,18.45,17.91,38.69,15.12,60.7c-1.3,10.23-5.46,19.83-10.76,28.81c-1.1,1.85-3.37,3.26-2.71,5.96
		c10.37-1.32,13.82-3.94,16.05-12.94c1.28-5.14,2.11-10.4,2.86-15.64c0.44-3.02,1.01-5.8,3.56-7.75c0.36,0.09,0.78,0.06,1,0.25
		c10.53,9.27,15.48,30.35,10.23,43.16c-4.81,11.74-12.42,21.17-23.05,28.12c-2.47,1.62-5.25,2.92-6.26,6.62
		c5.22,1.39,9.86-0.65,14.21-2.38c4.19-1.66,5.83-7.1,11.24-9.08c2.39,9.04,2.12,17.02-3.88,24.28
		c-5.2,6.28-11.67,10.83-19.01,14.23c-2.1,0.97-4.23,1.88-6.29,2.78c-1.41,2.85-2.91,5.45-4.02,8.21
		c-2.08,5.15-5.42,9.29-10.24,11.84c-3.74,1.98-6.22,5.04-8.49,8.25c-6.58,9.28-2.62,20.79,8.1,25.05
		c7.26,2.88,14.8,3.48,22.44,4.01c13.74,0.96,25.83,5.74,35.18,16.25c7.61,8.55,13.77,17.91,16.32,29.32
		c0.94,4.21,2.83,8.03,5.06,11.83c6.75,11.46,12.97,23.24,19.48,34.85c4.26,7.61,5.88,16.2,9.25,24.17
		c3.43,8.11,8.53,15.02,13.69,21.92c10.71,14.32,17.99,30.06,22.46,47.45c4.79,18.64,10.53,37.07,18.1,54.85
		c2.47,5.8,4.48,11.8,6.46,17.79c1.49,4.53,3.72,8.77,6.96,12c3.76,3.75,4.36,8.01,4.25,12.71c-0.16,7.38-8.94,31.21-13.6,37.02
		c-1.03,1.29-2.23,2.53-3.58,3.45C1397.44,555.31,1395.51,557.27,1391.48,557.78z M1348.94,1453.76c6.55-1.12,8.11-6,9.53-10.65
		c4.02-13.17,4.94-26.82,3.97-40.38c-1.28-17.9-2.2-35.66,1.72-53.36c1.83-8.28,5.3-15.68,11.16-21.86c2.74-2.9,5.7-5.59,8.42-8.51
		c1.21-1.3,3.44-2.33,1.92-5.4c-20.58-2.24-39.71-10.05-57.79-20.1c-1.58,2.03-0.8,3.25-0.41,4.47
		c8.42,26.64,13.13,54.05,17.62,81.55c1.5,9.17,1.88,18.42,3.26,27.6c1.41,9.33,3.14,18.86,0.84,28.64
		C1347.87,1441.31,1348.94,1447.4,1348.94,1453.76z M1051.84,1292.52c-20.21,11.49-39.59,18.8-61.52,21.44
		c3.66,5.34,7.72,8.77,11.46,12.44c6.39,6.27,10.57,13.96,12.16,22.49c2.49,13.38,3.79,26.9,2.55,40.66
		c-0.57,6.25-2.09,12.62-1.34,18.78c0.77,6.3,0.58,12.6,1.25,18.85c0.7,6.6,1.87,13.19,4.45,19.36c1.51,3.61,3.37,7.27,8.46,6.89
		c1.99-4.23-0.46-8.04-0.59-11.91c-0.48-13.98,0.39-27.75,1.83-41.69c2.77-26.82,8.01-53.11,13.83-79.33
		C1046.29,1311.83,1048.93,1303.32,1051.84,1292.52z"/>
	<path class="st0" d="M469.94,1787.56c0.74,2.12-0.96,2.88-2.18,3.88c-10.37,8.42-21.51,15.7-33.24,22.04
		c-21.16,11.44-43.42,20.34-66.73,26.14c-18.68,4.65-37.6,8.26-56.78,10.54c-17.63,2.09-35.31,1.87-52.84,0.93
		c-31.86-1.71-63.58-5.75-94.11-15.6c-20.56-6.63-40.35-14.95-58.79-26.84c-18.27-11.78-35.69-24.41-50.7-40.02
		c-15.48-16.1-25.94-35.03-30.29-57.36c-4.65-23.83,1.66-44.82,14.98-64.11c13.77-19.94,32.4-34.04,54.54-43.82
		c36.43-16.09,74.47-26.64,113.66-32.99c17.02-2.76,34.19-4.88,51.53-5.07c6.93-0.08,13.89-2.1,20.84-1.13
		c14.17,1.97,28.49,1.06,42.71,2.88c10.14,1.3,20.54,0.8,30.78,2.35c15.43,2.34,30.87,4.47,46.14,7.89
		c14.9,3.33,29.92,6.07,44.73,9.93c17.72,4.62,35.28,9.69,52.27,16.49c26.54,10.62,53.04,21.36,79.3,32.64
		c24.44,10.5,48.58,21.71,72.8,32.72c4.53,2.06,8.84,4.63,13.22,7c28.48,15.43,58.77,26.54,89.08,37.65
		c26.89,9.87,54.15,18.53,82.5,22.97c16.38,2.56,32.91,4.14,49.6,1.72c6.21-0.9,12.64-0.17,18.97-0.36
		c36.07-1.04,69.79-9.99,99.27-31.44c25.45-18.51,45.36-41.68,58-71c7.67-17.79,14.61-35.67,18.12-54.76
		c2.88-15.69,4.98-31.48,5.55-47.44c0.19-5.31,0.4-10.57,1.08-15.88c0.97-7.56-0.31-15.21-0.83-22.84
		c-0.8-11.58-0.28-23.26-0.3-34.89c-0.01-4.33,0.21-8.67,0.05-12.99c-1.02-28.16,3.77-55.61,9.97-82.89
		c7.41-32.61,19.63-63.48,34.13-93.51c13.89-28.77,27.85-57.49,41.62-86.32c9.8-20.5,15.08-42.44,19.74-64.53
		c0.6-2.86,0.33-5.91,1.09-8.94c1.02,5.43,0.81,10.99,1.92,16.41c5.13,24.87,13.42,48.6,24.72,71.33
		c16.74,33.67,33.72,67.23,48.39,101.87c14.47,34.17,24.13,69.66,28.36,106.58c1.7,14.83,3.61,29.63,5.13,44.48
		c0.61,5.94,0.31,11.98,0.57,17.96c0.5,11.61,2.02,23.26,1.5,34.83c-1.56,35.14-1.87,70.44-9.68,104.99
		c-7.65,33.84-17.7,67-34.64,97.39c-15.09,27.09-33.9,51.77-55.04,74.49c-18.57,19.96-40.97,34.93-65.05,47.41
		c-36.04,18.68-74.51,30.05-114.23,37.66c-18.29,3.5-36.76,5.72-55.26,7.09c-17.87,1.32-35.81,1.32-53.78-0.62
		c-12.87-1.39-25.77-2.49-38.57-4.47c-42.99-6.68-84.33-18.68-123.38-38.14c-24.46-12.19-47.91-26.05-71.02-40.63
		c-16.64-10.5-32.15-22.51-48.27-33.7c-11.47-7.97-23.08-15.76-34.93-23.16c-19.21-11.98-37.96-24.65-56.97-36.94
		c-26.3-17-54.13-31.17-82.64-44.2c-25.47-11.64-51.35-21.94-78.24-29.71c-23.05-6.66-46.49-10.68-70.51-12.42
		c-17.99-1.31-35.97-1.59-53.85-0.81c-43.52,1.89-85.63,10.72-125.39,29.22c-7.54,3.51-15.09,6.9-22.27,11.18
		c-14.35,8.55-23.84,21.05-30.24,36.09c-5.37,12.62-5.33,25.79-2.52,38.97c2.84,13.33,9.7,24.3,18.86,34.52
		c20.26,22.59,44.78,38.66,72.8,49.31c14.87,5.65,30.47,9.36,46.24,12c28.35,4.74,56.92,5.46,85.51,3.67
		c20.85-1.3,41.72-2.98,62.45-5.58c36.97-4.64,73.11-12.78,107.1-28.71c1.2-0.56,2.46-1.01,3.69-1.51L469.94,1787.56z
		 M1164.71,1671.08c3.28-1.58,3.42-4.07,4.2-6.23c6.92-19.12,11.47-38.88,15.59-58.74c4.59-22.12,7.85-44.45,10.82-66.84
		c2.67-20.1,4.3-40.28,4.69-60.5c0.36-18.93-0.11-37.88-0.8-56.84c-0.99-26.9-2.38-53.74-4.05-80.6
		c-1.2-19.21-3.17-38.45-2.33-57.77c0.17-3.99,0.2-8.01-0.03-11.99c-0.35-5.87-0.37-11.84-3.74-18.12
		c-0.58,24.43-0.38,47.92,1.34,71.39c1.31,17.87,2.46,35.75,3.77,53.62c1.19,16.24,1.09,32.55,1.68,48.8
		c1.04,28.9,1.08,57.88-1.57,86.76c-1.88,20.49-4.37,40.91-7.55,61.23c-4.47,28.6-10.69,56.8-19.36,84.45
		C1166.33,1663.12,1164.41,1666.36,1164.71,1671.08z"/>
	<path class="st0" d="M1370.63,1443.85c-2.61-1.31-3.95,1.5-6.03,1.87l0.23,0.25c-0.55-4.84,1.41-9.16,3.17-13.39
		c5.54-13.34,8.19-27.37,10.12-41.53c1.25-9.2,3.33-18.3,2.92-27.74c-0.17-3.85,1.06-7.9,2.31-11.64c2.68-8,4.15-16.09,3.35-24.85
		c3.43-4.78,7.39-9.12,12.67-12.3c4.71,1.92,2.98,7.21,6.08,10.47c2,0.04,3.52-1.79,5.35-2.91c13.49-8.26,27.54-14.07,43.82-14.99
		c11.17-0.63,22.62-0.03,33.59-3.35c14.51-4.39,25.18-12.87,30.04-27.68c0.31-0.94,0.32-2.03,0.8-2.86
		c6.38-11.3,5.6-23.73,5.73-36.01c0.02-1.98-0.07-4.07-0.67-5.94c-3.14-9.76-6.35-19.5-9.76-29.16c-1.33-3.75-3.65-7.16-4.84-10.94
		c-2.61-8.31-7.89-14.68-14.35-20.02c-11.78-9.75-23.88-19.09-37.62-26.07c-9.39-4.77-17.04-11.1-20.67-21.68
		c-2.69-7.84-6.55-15.27-9.83-22.91c-8.6-20.01-24.38-30.11-45.48-32.1c-12.22-1.15-24.53-1.77-36.75,1.11
		c-11.46,2.7-22.34,6.4-31.57,14.08c-3.05,2.54-6.52,4.58-9.83,6.8c-6.38,4.27-12.08,9.07-16.85,15.33
		c-4.73,6.2-10.45,11.93-19.36,12.12c-1.53,0.03-3.05,1.07-5.22,1.88c-2.03-6.45-3.95-12.57-4.42-19.23c0.7-0.65,1.3-1.57,2.14-1.94
		c9.52-4.22,17.56-9.93,24.3-18.28c5.53-6.84,12.74-12.73,21.95-14.88c2.76-0.64,4.37-2.96,6.56-4.43c7.25-4.9,14.81-8.46,23.74-9.7
		c7.72-1.07,15.19-3.97,23.54-6.27c-6.23-6.7-11.75-13.32-17.96-19.21c-20.46-19.43-26.48-43.82-24.83-70.87
		c0.26-4.24,1.53-8.53,2.96-12.58c4.24-12.08,5.45-24.72,5.94-37.25c0.47-11.97,1.74-23.86,2.51-35.79
		c0.67-10.47-0.29-20.55-2.63-30.64l-0.13,0.22c1.06-0.24,2.05,0.04,2.55,0.95c0.79,1.45,1.51,2.98,1.99,4.56
		c2.86,9.25,6.78,17.52,17.99,18.69c1.29,11.06,0.62,21.35,0.56,31.6c-0.1,18.08-4.63,35.5-8.53,53c-0.29,1.28-0.78,2.55-1.36,3.73
		c-5.79,11.66-6.53,24.09-6.2,36.82c0.22,8.64,2.95,16.21,7.58,23.3c0.9,1.38,1.63,2.87,2.39,4.24c-1.25,2.68-3-0.8-4.92,1.29
		c4.12,3.96,8.31,8.11,13.44,10.6c15.98,7.74,30.31,17.93,44.25,28.72c13.92,10.78,27.96,21.36,40.99,33.3
		c25.69,23.56,48.07,49.66,65.36,80.03c7.74,13.6,14.37,27.72,20.98,41.88c3.96,8.49,7.07,17.31,9.1,26.31
		c2.19,9.72,1.76,19.89,0.08,29.77c-1.5,8.82-3.77,17.52-5.49,26.31c-0.97,4.92-2.38,9.6-4.76,14.04
		c-6.58,12.27-16.37,18.38-30.66,18.26c-12.6-0.11-25.31,0.4-37.82,1.54c-14.52,1.32-28.61,5.69-40.67,14.79
		c-2.82,2.13-4.3,5.02-5.53,8.13c-4.92,12.44-7.62,25.35-8.83,38.69c-1.39,15.28-4.6,30-12.84,43.5
		c-6.01,9.84-11.74,20.01-14.35,31.56c-1.73,7.65-6.52,13.69-11.88,19.21c-4.4,4.52-8.78,9.05-12.07,14.78
		c4.15,7.75,11.47,11.31,19.16,13.03c10.24,2.3,20.7,3.92,31.4,2.82c4.59-0.47,9.14,1.33,13.57,2.75c2.12,0.68,2.99,2.49,3.96,4.25
		c2.38,4.32,4.79,8.62,7.19,12.92c-2.96,2.03-4.8-0.28-6.64-1.17c-6.19-2.99-12.71-4.22-19.4-3.53
		c-16.91,1.74-33.02-1.45-49.23-7.22c-3.97,3.29-3.44,10.12-9.37,12.66c-5.2-10.11-6.33-21.55-11.9-33.01
		c3.46,1.48,5.19,2.22,7.46,3.19c2.12-2.61,2.65-5.81,3.37-8.96c2.68-11.72,8.62-21.54,17.73-29.33c2.33-1.99,4.4-3.92,5.52-6.86
		c1.2-3.17,3.84-5.37,5.95-7.93c2.05-2.48,5.12-4.45,4.68-8.35c1.12,0.13,1.65-0.47,1.58-1.49c-0.02-0.27-0.92-0.77-0.96-0.72
		C1370.4,1442.15,1370.09,1442.94,1370.63,1443.85z"/>
	<path class="st0" d="M1027.54,1026.87c0.64,1.35,0.34,2.36-0.72,3.49c-5.29,5.65-11.64,9.91-18.08,14.06
		c-8.4,5.41-16.41,11.3-24.1,17.71c-14.34,11.95-22.43,27.88-29.14,44.67c-2.59,6.49-5.27,12.86-8.51,19.08
		c-3.04,5.85-4.83,12.34-7.41,19.2c-4.76,1.92-10.22,3.53-15.1,6.2c-16.94,9.25-33.59,19.01-47.8,32.34
		c-8.47,7.95-14.32,17.4-16.38,28.91c-0.72,4.01-2.33,7.62-3.85,11.27c-3.56,8.53-3.55,17.26-3.13,26.38
		c0.48,10.57,4.8,19.88,7.41,29.74c0.57,2.15,2.23,4.05,3.56,5.94c10.04,14.29,24.52,19.91,41.26,20.1
		c8.67,0.1,17.25,1.08,25.81,1.89c12.08,1.15,22.97,6.43,33.36,12.56c2.54,1.5,4.95,3.22,7.89,5.15c2.91-3.34,1.41-8.34,5.24-10.98
		c5.84,1.77,8.96,7.1,13.29,11.25c-1.17,8.98,0.82,17.38,3.66,25.57c1.34,3.86,1.82,7.74,2.09,11.72
		c1.62,24.27,4.87,48.21,13.87,71.04c1.21,3.08,2.52,6.19,1.75,9.65l0.21-0.17c-2.62,1.31-3.95-1.47-6.01-1.9
		c-0.14-0.21-0.25-0.46-0.43-0.62c-0.08-0.07-0.31,0.02-0.47,0.03c0.37,0.11,0.75,0.23,1.12,0.34c-0.95,4.27,2.18,6.71,4.38,9.49
		c2.87,3.61,6.67,6.51,7.97,11.29c0.31,1.16,1.49,2.23,2.52,3.01c11.13,8.42,17.44,19.75,20.28,33.22c0.34,1.61,0.87,3.19,1.36,4.77
		c0.09,0.3,0.39,0.53,0.59,0.8c2.2,2.24,4-1.21,6.45-0.63c-2.52,10.85-5.78,21.15-9.72,32.01c-5.63-2.84-6.03-8.74-9.48-13.22
		c-8.13,3.14-16.71,5.29-25.49,6.62c-5.6,0.85-11.28,1.8-16.88,1.11c-11.21-1.39-21.85-0.19-31.99,5.79c1.05-5.41,5.1-14.13,7.56-17
		c0.93-1.1,2.04-1.62,3.35-1.9c5.12-1.08,10.02-2.33,15.52-2.33c12.81,0,25.85-0.33,37.69-6.71c3.88-2.09,7.37-4.46,9.78-8.85
		c-1.63-5.39-5.87-9.24-9.75-13.12c-7.7-7.69-13.35-16.39-15.76-27.11c-2.3-10.26-8.46-18.78-13.57-27.61
		c-6.87-11.87-9.85-24.63-11.37-37.85c-1.56-13.55-3.3-26.96-8.19-39.84c-2.22-5.85-5.32-10.23-10.88-13.55
		c-13.46-8.05-27.9-11.96-43.43-12.47c-11.96-0.39-23.92-0.76-35.87-1.41c-8.77-0.48-15.94-4.29-21.18-11.48
		c-4.12-5.66-7.54-11.49-8.72-18.71c-1.66-10.14-4.67-20.06-6.26-30.2c-1.6-10.17-2.18-20.52,1.13-30.57
		c14.23-43.14,35.75-82.18,66.04-116.17c18.41-20.66,38.64-39.3,61-55.74c13.67-10.04,26.81-20.78,41.47-29.39
		c4.01-2.35,8.12-4.52,12.19-6.77L1027.54,1026.87z"/>
	<path class="st0" d="M1170.31,821.62c-6.63,11.49-15.54,20.35-14.78,34.02c1.52,3.88,5.39,6.76,8.13,10.49
		c9.59,13.03,8.66,25.38-3.59,37.89c-11.49-6.68-23.15-13.46-34.7-20.17c-5.29-29.83-8.82-59.33-8.72-90.47
		C1135.46,801.92,1153.48,809.94,1170.31,821.62z"/>
	<path class="st0" d="M1217.8,904.17c-12.26-14.07-12.77-26.01-2.46-39.36c0.41-0.53,0.88-1,1.26-1.54c2.22-3.17,6.36-5.28,5.99-9.9
		c-0.42-5.3-1.31-10.52-4.31-15.14c-3.39-5.24-6.68-10.55-9.96-15.74c9.1-8.51,34.96-22.25,53.11-28.26
		c-0.45,12.62-0.36,25.08-1.49,37.43c-1.29,14.15-3.91,28.18-5.43,42.32c-0.79,7.29-3.75,11.89-10.59,15.16
		C1235,893.4,1226.7,898.97,1217.8,904.17z"/>
	<path class="st0" d="M1172.47,729.14c-3.74,7.29-7.61,13.43-10.32,20.2c-2.29,5.73-2.95,10.25,2.21,15.21
		c5.56,5.34,6.8,12.39,4.88,20.24c-2.03,8.3-5.43,15.48-12.24,21.43c-12.82-7.23-26.08-13.22-40.16-19.42
		c0.97-25.52,4.24-50.63,8.1-76.77C1141.99,714.74,1157.25,721.28,1172.47,729.14z"/>
	<path class="st0" d="M1252.34,711.09c3.82,9.86,9.28,63.58,7.63,76.01c-12.52,6.3-25.97,11.27-37.93,18.81
		c-14.61-9.88-18.24-30.05-7.34-42.51c3.76-4.3,3.8-7.74,1.82-12.55c-2.91-7.07-6.46-13.79-10.32-20.25
		C1213.63,723.77,1239.22,713.03,1252.34,711.09z"/>
	<path class="st0" d="M1311.21,684.2c-1,8.89-1.96,17.41-3.04,27.07c-3.27-3.3-5.97-6.02-8.66-8.74c-3.28-3.31-6.35-6.87-9.87-9.9
		c-10.11-8.66-21.55-12.96-34.8-9.22c-4.02-7.72-4.81-11.31-5.45-24.72c5.89-2.98,11.35-7.31,17.15-10.92
		c11.38-7.08,16.6-17.97,20.3-29.73c3.78-12.01,6.11-24.45,6.03-37.18c-0.03-5-0.01-9.99,0.02-14.99c0.01-2-0.17-4.12,2.33-5.12
		c2.04,1.16,2.65,3.45,3.53,5.57c2.17,5.22,4.09,10.54,7.34,15.26c2.6,3.77,3.1,8.08,1.8,12.43c-1.36,4.53-1.78,9.12-1.72,13.81
		c0.28,20.02-4.83,38.1-19.07,52.88c-1.15,1.19-2.42,2.31-2.68,4.09C1293.6,671,1305.06,674.14,1311.21,684.2z"/>
	<path class="st0" d="M1084.2,559.29c1.11,8.12,0.38,14.38,0.69,20.58c0.96,19.38,4.32,38.16,13.7,55.48
		c1.64,3.03,3.9,5.55,6.56,7.41c7.57,5.31,14.03,12.27,23.53,15.54c-0.13,8.76-1.11,17.08-4.9,25.25
		c-16.15-4.25-28.34,1.91-39.09,12.62c-4.68,4.66-9.67,9-14.89,13.83c-2.37-7.72-0.14-16.52-3.25-24.91
		c5.68-11.08,17.89-13.76,27.45-20.55c-5.15-6.9-11.23-13.41-15.31-21.52c-4.48-8.91-5.92-18.32-6.31-27.91
		c-0.31-7.66-0.43-15.3-2.36-22.73c-0.82-3.17-0.66-6.11,0.92-8.61c4.12-6.53,6.61-13.77,9.83-20.69
		C1081.15,562.28,1082.02,561.68,1084.2,559.29z"/>
	<path class="st0" d="M1034.65,1023.91c-0.15-2.37,1.79-3.23,3.21-4.46c1.16-1.01,2.86-1.73,2-3.8l0.75-0.18l-0.51,0.07
		c-1.21,0.06-2.42,0.11-3.63,0.17l0.19,0.19c0.1-0.96-0.14-2.19,0.36-2.83c6.75-8.52,8.56-18.76,8.87-29
		c0.28-9.22-0.76-18.81-4.24-27.35c-2.67-6.53-4.55-13.13-6.24-19.86c-5.95-23.72-7.23-47.85-6.3-71.92
		c0.71-0.72,1.11-1.47,1.65-1.61c9.48-2.29,14.2-8.96,16.78-17.79c0.83-2.84,1.67-5.77,4.01-7.94c1.69,2.68-0.11,5.13-0.76,7.43
		c-3.35,11.88-0.85,23.79-0.2,35.62c0.68,12.25,1.69,24.49,2.42,36.75c0.39,6.59,1.45,13.21,3.73,19.5
		c5.14,14.14,5.64,28.87,3.23,43.33c-2.63,15.83-7.98,30.92-21.11,41.76c-1.31,1.08-2.51,2.18-4.38,1.73L1034.65,1023.91z"/>
	<path class="st0" d="M1277.89,240.38c-1.4,6.78-5.94,9.98-11.1,12.66c-4.11,2.13-8.49,3.68-12.13,6.78
		c-5.95,5.08-9.82,11.23-12.02,19.21c15.02-5.86,18.43-6.39,29.3-4.76c0.27,2.26-2.31,3.79-1.62,6.21c0.52,1.83,2.51,3.34,0.98,5.77
		c-0.24,0.15-0.91,0.92-1.28,0.79c-7.24-2.47-12.85,0.5-18.12,5.1c-4.05,3.54-7.34,7.69-11.04,12.57c0,4.98,0.02,10.61,0,16.24
		c-0.03,6.97,0.18,13.94-3.55,20.33c-1.53,2.64-1.28,5.85-1.08,8.83c0.96,14.37-0.46,28.54-3.8,42.51
		c-2.34,9.75-1.21,19.87-3.51,29.64c-4.41,18.71-2.35,37.78-2.65,56.72c-0.12,7.28-0.02,14.56-0.76,21.93
		c-0.86-5.56-2.27-11.09-2.46-16.67c-0.42-12.71-4.42-24.85-5.33-37.49c-0.21-2.98-0.64-5.65,0.19-8.66
		c8.48-31.01,11.38-62.7,10.96-94.75c-0.07-5.35-0.08-10.63,2.52-15.58c1.42-2.7,1.51-5.76,1.5-8.78
		c-0.05-15.95,0.77-31.98-3.44-47.61c-0.9-3.33,0.39-5.91,1.95-8.44c4.85-7.87,12.37-12.75,20.06-17.36
		c2.82-1.69,6.55-2.25,8.11-5.48c2.5-5.14,6.64-4.81,11.06-3.86C1273.23,236.8,1275.62,237.91,1277.89,240.38z"/>
	<path class="st0" d="M1158.89,1083.69c-9.49-6.18-18.37-11.96-27.53-17.92c1.35-26.36,2.71-52.74,4.07-79.18
		c6.62,1.92,22.78,11.96,36.48,22.63c-0.94,5.84-4.22,10.9-7.03,16.05c-2.71,4.96-3.21,8.68,1.49,13.16
		c8.76,8.34,9.77,18.28,4.13,29.1C1167.55,1073.19,1164.04,1078.32,1158.89,1083.69z"/>
	<path class="st0" d="M1216.04,1032.14c-2.44-7.54-7.74-14.24-9.89-22.11c5.04-5.02,27.67-20,35.81-23.71
		c3.21,26.61,1.96,53.31,5.08,79.3c-9.83,6.35-18.67,12.07-27.69,17.9c-6.05-5.59-10.04-11.91-13.05-19.03
		c-3.94-9.3-2.14-17.46,4.11-25C1212.29,1037.22,1215.01,1035.6,1216.04,1032.14z"/>
	<path class="st0" d="M1107.35,287.74c-2.09-5.42,4.42-9.56-3.31-13.43c12.39-1.75,21.64-0.54,31.4,6
		c-2.82-11.8-8.52-19.27-17.67-24.2c-2.92-1.57-6.14-2.65-8.92-4.42c-4.18-2.66-8.3-5.58-8.35-11.6c2.94-3.26,6.77-4.15,10.78-4.39
		c2.37-0.14,4.88,0.23,6.04,2.65c1.9,3.98,5.53,5.45,9.17,7.15c6.69,3.12,12.1,8.06,17.16,13.25c4.36,4.47,5.71,9.71,4.22,16.43
		c-3.32,14.96-3.41,30.3-2.91,45.6c0.04,1.3,0.25,2.72,0.81,3.86c3.86,7.82,2.94,16.2,3.13,24.47c0.68,29.24,2.81,58.31,10.78,86.64
		c1.1,3.9,1.32,7.66,0.68,11.72c-2.88,18.29-5.47,36.62-8.2,55.15c-2.26-2.21-1.42-4.76-1.18-6.92c2.04-17.82,1.4-35.72,1.02-53.56
		c-0.21-9.54-2.86-19-3.82-28.55c-1.81-18.13-5.98-35.94-6.99-54.17c-0.12-2.1,0.67-3.88,0.81-5.83c0.25-3.63,0.9-7.38-0.79-10.81
		c-4.4-8.97-5.4-18.66-4.08-28.16c1.35-9.8-3.73-15.63-9.85-21.4C1121.77,288.04,1115.87,283.87,1107.35,287.74z"/>
	<path class="st0" d="M1126.57,892.37c16.15,7.4,28.99,16.77,43.01,24.87c-2.08,10.11-10.71,17.38-10.41,28.58
		c5.72,5.31,11.02,11.56,11.04,20.64c0.02,10.04-5.66,17.39-11.88,25.6c-7.41-4.67-14.86-9.37-23-14.51
		C1134.05,950,1129.3,922.28,1126.57,892.37z"/>
	<path class="st0" d="M1250.64,893.36c0.45,14.57-2.8,28.45-4.1,42.47c-1.28,13.86-2.85,27.68-4.33,41.94
		c-7.15,4.6-14.61,9.4-22.55,14.51c-3.02-4.5-5.93-8.49-8.47-12.71c-4.54-7.57-5-22.09,3.77-29.47c4.93-4.14,4.3-8.62,2.21-13.37
		c-2.67-6.05-5.79-11.9-8.67-17.74C1213.78,913.31,1239.09,897.85,1250.64,893.36z"/>
	<path class="st0" d="M1199.4,656.79c12.86-6.67,26.15-11.31,40.66-16.13c2.28,21.9,9.26,41.63,12.14,63.02
		c-13.4,4.42-26.26,9.32-38.46,14.89c-3.98-2.53-5.58-5.89-7.36-8.99c-3.25-5.68-3.19-11.39,0.83-16.79
		c0.79-1.06,1.68-2.05,2.53-3.07c2.35-2.83,2.63-5.61,1.04-9.16c-2.84-6.38-5.91-12.61-9.34-18.68
		C1200.66,660.46,1200.22,658.86,1199.4,656.79z"/>
	<path class="st0" d="M1140.56,641.48c12.46,4.2,25.55,8.71,38.37,15.5c-2.72,5.27-5.19,9.93-7.53,14.65
		c-1.47,2.98-2.69,6.08-4.13,9.08c-1.63,3.41-1.08,6.44,1.27,9.27c0.64,0.77,1.23,1.57,1.89,2.32c4.88,5.55,4.65,11.51,1.19,17.54
		c-1.64,2.85-3.74,5.43-6.12,8.82c-12.84-4.64-24.95-10.8-37.67-14.07c-2.67-3.58-1.23-6.9-0.58-10.01c2.52-12.02,5.34-23.99,7.9-36
		c0.83-3.89,1.25-7.86,1.74-11.82C1137.15,644.69,1137.6,642.84,1140.56,641.48z"/>
	<path class="st0" d="M993.47,663.11c8.45,12.47,20.2,18.51,32.89,22.82c5.99,2.04,11.74,4.53,17.58,6.86
		c7.32,2.92,12.69,8.36,17.99,13.91c1.45,1.52,2.21,3.21,2.26,5.33c0.06,2.99,0.53,5.97,0.43,8.95c-0.37,11.44,2.55,22.79,1.15,35.9
		c-3.46-9.55-7.28-17.13-12.53-23.98c-4.1-5.35-8.74-9.81-14.74-13.09c-10.24-5.58-20.67-10.62-31.89-13.87
		c-5.17-1.5-9.89-3.93-14.19-7.09c-4.66-3.43-6.89-7.95-5.33-13.87C988.95,677.95,989.88,670.66,993.47,663.11z"/>
	<path class="st0" d="M1384.96,663.4c2.78,8.19,4.78,15.35,5.98,22.85c0.92,5.77-1.34,9.67-5.53,12.75
		c-4.28,3.14-9.03,5.54-14.2,7.01c-10.58,3.01-20.46,7.67-30.1,12.89c-14.57,7.89-22.77,20.63-27.68,36.09
		c-1.83-1.07-0.83-3.09-1.11-4.65c-0.29-1.61-0.22-3.32-0.12-4.97c0.65-11.23,1.39-22.45,1.98-33.69c0.13-2.56,1.51-4.21,3-6.03
		c8.16-9.98,19.42-14.83,31.21-18.49c8.67-2.69,16.51-6.81,24.16-11.48C1377.3,672.8,1380.53,668.2,1384.96,663.4z"/>
	<path class="st0" d="M1360.59,383.71c-0.82-0.46-1.94-0.72-2.4-1.41c-5.23-7.94-13.19-11.7-21.77-14.75
		c-8.51-3.03-16.38-7.39-23.06-13.53c-3.66-3.36-6.78-7.29-10.21-10.9c-0.89-0.94-2.03-1.65-3.57-2.87c-1.86,3.4-3.76,6.4-5.21,9.61
		c-2,4.43-5.14,6.83-10.72,6.61c-2.5-2.44-4.82-5.54-6.05-9.89c11.78-5.63,12.37-15.94,10.44-27c-1.49-8.56-4.22-16.78-9.09-24.06
		c-3.77-5.63-3.34-11.11-0.3-17.56c4.57,2.28,7.45,5.67,9.87,9.51c3.55,5.63,6.55,11.54,9,17.74c0.85,2.15,1.91,4.26,3.16,6.22
		c1.94,3.05,4.51,3.7,7.67,1.97c4.1-2.25,7.13-5.71,9.89-10.34c4.26,4.92,6.88,9.66,8.58,15.08c-3.91,6.16-9.51,9.28-16.48,10.76
		c-0.85,3.43,1.6,5.54,3.46,7.59c5.62,6.21,12.33,11.1,19.66,15.14c3.03,1.67,12.87,10.26,14.84,13.17
		c4.22,6.25,10.04,11.5,12.08,19.14L1360.59,383.71z"/>
	<path class="st0" d="M1020.65,379.94c2.71-8.35,8.47-14.54,14.28-20.8c3.9-4.21,8.68-6.86,13.46-9.74
		c10.6-6.38,15.14-10.98,20.17-19.89c-6.86-2.17-13.55-4.76-17.43-11.51c1.96-5.46,4.7-10.32,8.4-15.14c3,3.87,5.47,7.88,9.62,10.23
		c3.76,2.13,6.22,1.71,8.4-1.94c1.52-2.55,2.46-5.44,3.79-8.11c3.98-8.02,7.25-16.51,14.23-22.65c0.98-0.86,1.83-1.96,3.82-1.93
		c3.29,5.58,3.84,10.91-0.23,17.01c-4.82,7.23-7.27,15.52-9.05,24.11c-2.39,11.5-1.03,21.12,10.4,26.94
		c-1.11,4.07-3.45,6.85-5.66,9.7c-5.48,0.85-8.84-1.41-11.06-6.27c-1.48-3.24-2.78-6.73-6.09-9.61c-3.18,3.18-6.58,5.91-9.14,9.26
		c-5.88,7.69-13.96,12.14-22.39,16.15c-3.6,1.71-7.31,3.22-11.06,4.55c-4.81,1.7-9.07,4.01-12.05,8.35
		c-0.45,0.65-1.69,0.76-2.57,1.12C1020.45,379.76,1020.65,379.94,1020.65,379.94z"/>
	<path class="st0" d="M1142.04,579.16c10.92,6.43,22.51,11.11,32.63,18.73c-0.44,4.81-3.31,8.24-4.97,12.12
		c-1.28,2.99-1.51,5.68,0.66,8.36c1.03,1.28,1.84,2.76,2.66,4.2c5.69,10.04,5.25,13.21-3.55,23.27
		c-9.67-3.58-19.54-7.24-29.31-10.86c-1.82-2.48-1.2-5.22-1.25-7.82c-0.2-9.62-0.49-19.24-0.4-28.86
		C1138.55,592.11,1138.69,585.82,1142.04,579.16z"/>
	<path class="st0" d="M1209.53,614.96c-0.71-6.21-4.8-10.62-6.41-16.68c9.55-8.05,21.63-12.06,32.26-18.96
		c5.08,5.64,2.36,12.57,4.51,18.28c-2.15,10.86-0.5,21.85-1.08,32.76c-0.07,1.3-0.3,2.59-0.51,4.39
		c-9.83,3.7-19.66,7.41-29.37,11.06C1196.95,632.99,1199.95,631.55,1209.53,614.96z"/>
	<path class="st0" d="M1212.65,82.84c6.98-4.38,13.77-8.12,18.49-14.29c1.84-2.4,5.91-1.18,6.62-4.87c0.5-2.59,1.15-5.17,1.94-7.68
		c3.44-10.85,4.36-22.03,4.49-33.32c0.04-3.86,0.01-7.71,0.01-11.55c3.16-0.16,3.45,1.76,4.2,3.08
		c9.18,16.01,12.31,33.39,11.81,51.63c-0.16,5.77-1.81,11.2-4.15,16.28c-2.91,6.3-6.34,12.43-10.11,18.27
		c-4.82,7.47-13.06,7.62-17.72,0.2C1224.08,94,1217.66,89.59,1212.65,82.84z M1236.42,97.69c0.88-0.34,2.05-0.43,2.61-1.05
		c9.26-10.36,15.87-22.06,17.08-36.17c0.36-4.22,2.02-8.68-0.51-13.26c-0.59,1.04-1.17,1.59-1.18,2.15
		c-0.18,15.47-5.49,29.14-14.48,41.54c-1.54,2.13-3.48,4.07-3.3,7.02c-1.02,0.3-1.18,0.54-0.47,0.67
		C1236.21,98.59,1236.34,98,1236.42,97.69z"/>
	<path class="st0" d="M1165.49,83.08c-5.7,6.88-12.59,12.23-17.15,19.79c-2.58,4.28-11.04,4.18-14.14-0.05
		c-8.29-11.31-15.5-23.09-16.09-37.89c-0.76-18.79,3.11-36.31,12.51-52.59c0.46-0.8,1.22-1.42,2.78-3.18
		c1.73,10.37,0.39,19.83,1.32,29.13c0.97,9.68,4.18,18.7,6.21,27.9c6.27,0.26,8.08,5.96,12.13,8.6
		C1157.17,77.45,1161.21,80.22,1165.49,83.08z M1142.13,99.35c-0.87-4.04-2.07-5.94-3.45-7.79c-9.16-12.25-14.82-25.75-14.57-41.32
		c0.02-1.55-0.88-2.35-2.35-2.57C1120.98,68.29,1124.98,81.9,1142.13,99.35z"/>
	<path class="st0" d="M1492.82,754.28c-0.87,10.01-0.97,19.73-5.61,28.43c-0.93,1.74-2.04,3.42-3.3,4.92
		c-0.55,0.65-1.71,0.79-2.87,1.28c-2.26-7.05,2.12-13.57,0.45-20.63c-1.52-6.42-2.39-13.01-4.84-19.12
		c0.85-2.32,2.71-2.77,4.78-3.01c7.52-0.87,14.81-2.44,22.65-0.88c9.22,1.84,15.8,5.5,18.64,14.96c2.47,8.26,5.4,16.39,8.44,24.47
		c8.29,22.05,16.96,43.92,33.22,61.84c-8.84-5.25-16.06-12.01-21.23-20.89c-5.53-9.49-11.69-18.51-19.95-25.88
		c-1.84-1.64-2.91-3.43-3.08-5.96c-0.22-3.29-1.11-6.54-1.22-9.83c-0.26-7.87-3.03-15.03-6.46-21.82
		C1508.68,754.76,1502.11,752.25,1492.82,754.28z"/>
	<path class="st0" d="M1204.32,1153.21c11.35,5.27,21.49,8.42,31.78,12.05c0.86,7.25,0.1,14.09-0.55,20.94
		c-0.28,2.96-0.69,5.94-0.64,8.91c0.11,5.54,0.99,7.21,6.64,8.24c13.72,2.5,15.29,7.74,16.58,21.93c0.18,1.93-0.22,3.92-0.38,6.38
		c-6.14-0.21-10.82-3.32-15.89-5.4c-5.62-2.31-8.71-6.36-11.21-11.83c-6.21-13.58-13.22-26.79-19.68-40.25
		c-2.15-4.48-3.71-9.24-5.36-13.94C1204.99,1158.43,1204.9,1156.46,1204.32,1153.21z"/>
	<path class="st0" d="M814.69,845.91c0.17-0.62,0.15-1.4,0.53-1.84c16.89-19.56,26.22-42.94,34.1-67.08
		c1.96-6,4.69-11.77,6.32-17.84c1.87-6.94,6.79-10.92,12.81-12.69c10.93-3.23,22.05-2.6,33.48,1.48c-2.6,6.94-4.51,13.5-5.38,20.42
		c-0.87,6.96,1.42,13.65,1.14,21.33c-7.61-3.78-8.03-10.82-10.32-16.78c-2.29-5.96,0.46-12.65-2.59-18.36
		c-11.49-1.8-16.61,0.82-20.63,10.74c-3,7.41-5.56,14.92-5.37,23.14c0.13,5.47-2.03,9.52-6.38,13.65
		c-6.92,6.57-12.65,14.54-17.24,23.07c-4.54,8.42-11.33,14.66-18.74,20.36c-0.44,0.34-1.28,0.15-1.93,0.21L814.69,845.91z"/>
	<path class="st0" d="M1140.85,1166.15c10.71-4.91,21.53-7.14,30.94-12.15c3.41,1.67,1.22,3.96,0.76,5.29
		c-2.34,6.9-4.76,13.83-7.88,20.4c-6.25,13.18-12.96,26.16-19.54,39.18c-0.73,1.44-1.59,3.2-2.88,3.91
		c-6.61,3.66-13.11,7.67-20.95,9.18c-1.74-4.16-1.21-8.12-0.81-11.99c1.07-10.26,3.58-13.15,13.45-15.96
		c0.96-0.27,1.98-0.31,2.93-0.61c4.95-1.58,6.02-2.56,5.9-7.78c-0.18-7.94-0.87-15.88-1.38-23.81
		C1141.3,1170.2,1141.09,1168.59,1140.85,1166.15z"/>
	<path class="st0" d="M1107.72,1269.92c0.77-8.87,0.47-18.23,3.55-27.35c8.39-3.49,16.92-7.03,25.49-10.59
		c1.91,2.56-0.09,4.7-0.95,6.4c-10.63,21.09-20.52,42.51-29.84,64.1c-6.7,2.78-13.09,5.43-19.54,8.1
		C1082,1293.37,1087.92,1282.12,1107.72,1269.92z"/>
	<path class="st0" d="M1291.81,1310.29c-6.28-1.15-11.48-5.08-17.5-6.8c-1.69-0.48-2.75-1.91-3.37-3.46
		c-8.92-22.15-20.09-43.27-29.93-64.99c-0.25-0.56-0.18-1.27-0.39-2.89c9.44,2.55,17.33,8.1,26.65,9.86
		c1.58,9.61,3.26,18.67,3.17,27.22c1.06,2.95,3.4,2.93,5.05,3.87C1289.45,1281.16,1294.72,1292.97,1291.81,1310.29z"/>
	<path class="st0" d="M1067.14,578.3c-24.22,4.7-44.86,12.94-57.37,34.84c-2.77-1.92-1.09-3.94-0.66-5.39
		c2.25-7.61,4.64-15.18,7.28-22.66c3.71-10.49,10.06-18.1,21.37-21.61c14.81-4.59,21.11-6.24,36.45-6.41
		C1071.78,564.35,1069.44,571.37,1067.14,578.3z"/>
	<path class="st0" d="M1304.36,557.03c15.08-0.03,28.82,2.82,41.87,8.73c6.66,3.02,11.21,8.61,13.75,15.12
		c4.06,10.39,7.1,21.18,11.32,34.07c-10.18-9.42-14.67-21.22-26.48-25.18c-10.86-3.64-20.18-11.92-33.07-10.17
		C1308.79,572.03,1306.03,564.88,1304.36,557.03z"/>
	<path class="st0" d="M1182.11,286.61c-2.08,6.77-5.87,12.04-6.76,18.38c7.65,10.67,7.47,11.85-3.4,21.01
		c-8.37-1.43-14.52-6.98-21.44-12.77c-0.74-13.46,0.68-27.1,3.31-41.75C1163.63,276.96,1171.89,283.59,1182.11,286.61z"/>
	<path class="st0" d="M1228.61,312.17c-7.08,6.35-13.39,11.66-21.25,13.69c-1.98,0.07-3.05-0.74-3.96-1.72
		c-9.96-10.64-7.07-10.24-0.89-18.4c0.14-6.69-4.72-12.02-6.2-18.69c3.99-3.66,9.74-3.9,14.08-6.95c4.05-2.85,8.27-5.45,13.2-8.67
		C1228,285.38,1226.45,299.24,1228.61,312.17z"/>
	<path class="st0" d="M1222.18,535.13c4.16,11.54,8.22,22.71,12.16,33.93c0.53,1.5,0.41,3.23,0.63,5.23
		c-8.57,4.44-17.03,8.82-25.83,13.38c-3.21-1.88-4.68-5.25-6.55-8.27c-1.69-2.73-1.68-5.4-0.59-8.5c1.4-3.98,5.13-7.44,3.86-12.03
		c-1.14-4.11-3.12-8-4.74-12.02C1207.49,542.51,1215.42,540.6,1222.18,535.13z"/>
	<path class="st0" d="M966.4,739.69c-0.6,4.47-4.72,6.46-7.46,8.73c-8.4,6.99-12.02,16.2-12.41,26.22
		c-0.61,15.51-2.17,31.29,3.87,46.33c0.19,0.48-0.29,1.22-0.59,2.3c-6.28-3.74-10.91-8.68-12.97-15.59
		c-2.75-9.22-5.45-18.47-7.59-27.84c-1.33-5.82-1.68-11.84,2.12-17.27c1.32-1.89,2.35-4.05,3.14-6.22c2.01-5.49,5.6-8.45,11.58-9.37
		c3.84-0.59,7.44-2.72,11.12-4.25c3.03-1.26,5.78-3.4,9.36-2.84L966.4,739.69z"/>
	<path class="st0" d="M1065.4,1379.03c-3.12-4.53-3.06-8.59-2.93-12.5c0.13-4.11,1.46-8.07,5.7-9.73c7.16-2.8,8.54-8.69,8.65-15.29
		c0.12-6.95,0.03-13.9,0.03-20.73c8.14-4.73,16.04-8.64,24.31-11.23c1.99,1.88,0.84,3.35,0.37,4.86
		c-4.12,13.28-8.34,26.53-12.26,39.87c-1.45,4.94-3.7,8.89-8.03,11.97C1075.87,1370.06,1070.95,1374.5,1065.4,1379.03z"/>
	<path class="st0" d="M1169.22,587.62c-8.6-4.35-17.37-8.79-26.34-13.33c0.6-7.24,3.68-13.53,5.98-20.03
		c2.18-6.18,4.54-12.3,7.01-18.97c6.55,5.01,14.27,7.24,21.29,11.61c-1.25,2.57-2.67,5.11-3.74,7.79
		c-1.39,3.49-2.05,7.22,0.13,10.57C1179.16,573.91,1176.42,580.91,1169.22,587.62z"/>
	<path class="st0" d="M1084.18,1370.34c-1.61,12.32-2.71,23.49-4.62,34.51c-1.72,9.87-2.01,19.84-2.4,29.74
		c-0.26,6.73-1.91,11.52-7.68,14.84c-1.12,0.64-1.94,1.87-3.73,1.61c-1.91-6.13-3.74-12.4-5.83-18.58
		c-1.89-5.6-1.1-10.54,3.17-14.65c3.01-2.89,3.63-6,2.39-9.94c-1.7-5.37-3.01-10.87-4.62-16.82
		C1067.06,1383.06,1076.16,1378.11,1084.18,1370.34z"/>
	<path class="st0" d="M1406.43,737.96c4.33-0.82,7.68,1.86,11.23,3.41c5.8,2.53,11.44,5.43,17.73,6.53c2.9,0.5,4.87,1.95,6.13,4.52
		c0.29,0.6,0.53,1.24,0.92,1.77c8.13,11.22,8.41,23.06,3.38,35.64c-1.83,4.57-2.42,9.65-3.52,14.5
		c-1.92,8.45-6.69,14.66-14.66,19.31c-0.6-3.95,1.54-6.38,2.17-9.17c3.09-13.78,3.17-27.74,1.75-41.65
		c-1.53-15.06-10.88-25.14-22.98-33.08c-0.83-0.55-1.73-0.91-1.92-2.01L1406.43,737.96z"/>
	<path class="st0" d="M1300.47,1320.48c1.2,8.91-0.45,17.2,1.34,25.44c1,4.6,2.46,8.05,6.8,10.13c6.83,3.27,8.18,8.9,6.45,15.75
		c-0.54,2.16,0.05,4.62-1.95,6.74c-7.63-4-13.55-10.35-20.18-15.69c-2.09-1.68-3.3-5.01-3.95-7.81c-3.5-15.2-9.65-29.56-13.67-44.57
		C1280.99,1310.29,1287.73,1312.95,1300.47,1320.48z"/>
	<path class="st0" d="M1152.59,1155.33c-5.36-16.67-3.16-21.69,13.47-31.24c0.1-8.92-2.21-18.06-1.07-27.87
		c6.67,1.15,11.61,5.57,17.44,8.44c1.57,12.98-1.65,25.17-4.9,37.33c-0.51,1.9-1.34,3.71-3.37,4.69
		C1167.36,1149.98,1160.91,1154.13,1152.59,1155.33z"/>
	<path class="st0" d="M1195,1104.79c6.36-3.37,11.84-6.28,18.34-9.73c-0.4,10.51-0.77,19.88-1.12,29.11
		c6.08,3.98,12.97,6.5,15.19,13.89c1.8,5.98,0.61,11.65-2.13,17.49c-3.03-0.9-5.99-1.44-8.65-2.64c-5.11-2.3-10.06-4.98-14.97-7.44
		C1197.53,1132.12,1194.76,1118.98,1195,1104.79z"/>
	<path class="st0" d="M1312.14,1451.44c-7.08-3.22-9.49-8.16-10.27-15.73c-2.18-21.32-3.81-42.75-8.78-65.73
		c8.48,6.99,15.58,12.71,22.49,18.64c1.6,1.37,1.4,3.67,0.84,5.66c-1.08,3.83-2.37,7.61-3.36,11.47c-1.19,4.63-1.69,9.06,2.63,12.8
		c4.03,3.5,3.78,8.48,2.64,13.02C1316.63,1438.28,1314.24,1444.8,1312.14,1451.44z"/>
	<path class="st0" d="M1250.63,132.06c-2.77-0.92-4.85,1.97-7.83,1.42c-0.7-7.68,1.31-14.95,2.67-22.77
		c5.03-1.62,9.98-3.22,14.92-4.82c0,0-0.2-0.25-0.2-0.25c0.81,0.5,1.63,1.01,2.9,1.8c7.69-9.35,8.59-21.11,12.13-32.38
		c4.03,3.65,4.89,8.55,6.16,13.1c3.95,14.24,3.44,14-4.55,26.39c-6.31,9.79-15.06,16.53-24.39,22.86c-2.18,1.47-4.44,2.91-7.57,1.63
		c-0.41-4.3,5.19-3.8,5.56-7.18c4.59-1.1,8.12-3.54,10-8.02c1.42,0.09,2.1-0.58,2.01-2c0.51-0.21,1.03-0.42,1.54-0.64
		c-0.31-0.27-0.62-0.54-0.93-0.82c-0.15,0.54-0.3,1.07-0.45,1.61c-1.48-0.14-2.15,0.52-2.01,2
		C1255.73,125.69,1253.81,127.24,1250.63,132.06z"/>
	<path class="st0" d="M1051.79,1612.06c-2.27-6.22-1.66-11.51-1.3-16.72c0.24-3.45,1.95-6.42,5.27-7.88
		c4.95-2.17,5.65-5.99,4.7-10.67c-0.99-4.85-1.68-9.78-2.92-14.56c-1.17-4.53-0.59-8.28,2.5-11.97
		c5.48-6.55,10.63-13.38,16.58-20.93c2.01,3.35-0.01,5.77,0.2,8.05c0.24,2.62,0.06,5.3-0.16,7.94c-1.19,14.84-4.06,29.44-6.26,44.14
		C1068.74,1600.51,1061.94,1606.78,1051.79,1612.06z"/>
	<path class="st0" d="M1122.66,127.78c1.55,5.52,7.76,5.68,11.03,9.9c-1.03,2.82-3.3,2.32-5.34,1.21
		c-7.33-3.98-14.18-8.85-19.84-14.87c-4.73-5.03-8.22-11.23-12.3-16.88c-1.43-1.97-2.31-4.18-1.92-6.53
		c1.45-8.71,2.39-17.62,8.76-26.51c0.9,4.66,1.37,8.02,2.22,11.28c0.84,3.2,2.03,6.3,3.13,9.43c0.99,2.81,1.7,5.81,3.22,8.31
		c1.28,2.12,2.41,3.92,6.57,2.96c3.8-0.87,8.6,2.65,13.37,4.38c3.99,6.85,2.61,15.01,4.3,23.01c-5.9,0.85-8.48-5.28-13.4-5.49
		c-3.49-5.14-3.45-5.19-9.52-7.15C1116.78,123.66,1117.9,128.09,1122.66,127.78z"/>
	<path class="st0" d="M1305.18,1535.55c6.6,5.94,10.51,11.59,15.01,17.83c-2.45,4.43-4.88,9.06-7.54,13.56
		c-2.58,4.37-2.7,8.19-0.13,12.97c9.52,17.65,6.11,20.29-4.84,32.27c-1.54,1.68-3.44,3.02-5.97,5.19
		c-2.79-6.82-5.29-12.34-3.65-19.87C1302.35,1577.77,1304.39,1557.67,1305.18,1535.55z"/>
	<path class="st0" d="M1076.23,1449.66c3.4,21.18,1.49,41.5,1.93,61.74c0.04,1.61-0.22,3.36-0.83,4.84
		c-3.06,7.42-7.63,13.79-13.84,19.69c-4.62-8.43-4.06-16.08,1.41-22.74c3.23-3.94,3.79-7.4,2.15-11.85
		c-0.68-1.84-0.37-4.08-1.14-5.86c-3.22-7.42-2.12-14.87-0.68-22.39c0.43-2.27,1.01-4.59,0.93-6.86
		C1065.9,1458.66,1071.05,1454.72,1076.23,1449.66z"/>
	<path class="st0" d="M870,1885.66c-3.84-2.43-7.48-4.75-11.13-7.04c-5.39-3.38-10.95-4.22-17.08-1.88c-4,1.53-8.27,2.25-12.57,2.86
		c-6.79,0.96-12.51-0.38-17.02-5.76c-2.13-2.54-4.29-5.05-6.61-7.78c5.72-4.13,12.26-5.69,19.85-3.63
		c20.17,5.47,40.6,9.71,61.43,11.79c0.88,0.09,1.7,0.83,3.38,1.69c-3.15,3.05-6.92,4.02-10.19,5.65
		C876.83,1883.17,873.36,1884.31,870,1885.66z"/>
	<path class="st0" d="M1054.62,1489.74c1.04-8.19,3.37-16.27,1.92-24.65c-0.11-0.65-0.25-1.29-0.66-3.32
		c-2.84,11.33-2.31,22.35-9.1,32.15c-3.7-4.96-4.78-10.89-7.84-15.73c-3.21-5.08-7.03-9.64-11.89-14.8
		c4.58-2.01,9.13-2.82,12.62-5.62c3.71-2.97,6.55-6.69,8.48-10.97c1.9-4.22,3.31-8.65,5.05-13.32c2.33,1.45,2.65,3.67,3.3,5.75
		c4.55,14.61,4.64,29.42,2.06,44.34c-0.44,2.53-0.76,5.39-4.16,5.97L1054.62,1489.74z"/>
	<path class="st0" d="M1350.08,1464.53c-8.58,7.95-14.02,18.12-18.13,29.68c-8.07-9.07-5.86-20.75-10.42-30.92
		c-2.2,9.66,0.84,18.05,2.85,27.42c-4.38-2.03-4.93-5.6-5.21-8.38c-1.62-16.2-2.47-32.41,4.31-47.95c3.71,0.65,3.34,4.1,4,6.25
		c3.47,11.29,9.88,19.34,21.91,22C1349.69,1462.69,1349.78,1463.67,1350.08,1464.53z"/>
	<path class="st0" d="M1171.78,371.14c-2.82-1.25-5.26-2.29-7.66-3.42c-6.37-3.01-10.45-6.87-10.31-15.1
		c0.1-5.82-0.99-11.85-0.91-17.82c0.06-4.33-0.59-8.54-2.06-13.07c4.27-0.83,6,2.66,8.7,3.9c2.72,1.25,5.35,2.7,8.11,3.85
		c3.04,1.26,6.18,2.27,9.45,3.45c-0.31,4.63-3.15,8.18-4.13,12.33c-0.78,3.29-0.96,6.19,1.54,9.29
		C1180.62,362.11,1180.26,363.36,1171.78,371.14z"/>
	<path class="st0" d="M624.7,1758.88c-8.49,0-16.98,0-25.57,0c-2.92-1.97-3.84-5.27-4.83-8.4c-2.01-6.31-6.26-9.05-12.73-8.9
		c-2.66,0.06-5.34-0.01-7.98-0.28c-10.24-1.05-14.83-5.13-17.97-16.32c8.2-2.21,16.02-3.06,23.63,1.99
		c15.21,10.1,30.48,20.11,45.73,30.16C624.88,1757.72,624.79,1758.3,624.7,1758.88z"/>
	<path class="st0" d="M1227.14,319.25c-3.07,14.01-1.96,25.93-2.98,37.73c-0.24,2.82-1.24,5.22-3.66,6.7
		c-4.74,2.92-9.19,6.53-15.06,6.98c-3.75-2.24-5.58-5.61-6.34-9.35c0.81-4.56,4.95-6.5,6.91-10.51c-0.03-6.03-3.99-11.39-5.25-17.84
		C1209.68,329.97,1218.32,326.78,1227.14,319.25z"/>
	<path class="st0" d="M1248.23,1072.97c1.54,11.12,3.18,21.51,4.34,31.95c0.73,6.57,1.56,13.1,2.96,19.57
		c1.26,5.83,0.81,11.65,0.11,17.62c-9.49-2.34-14.62-8.91-11.68-16.25c3.69-9.19,0.31-15.9-4.79-22.76
		c-3.94-5.31-7.73-10.72-11.87-16.47C1233.59,1081.24,1240.15,1076.62,1248.23,1072.97z"/>
	<path class="st0" d="M739.9,1831.13c-7.07,1.78-13.47,3.22-20.09,2.88c-0.58-0.42-1.29-0.69-1.6-1.2
		c-6.75-11.29-6.74-11.52-20.29-11.36c-7.24,0.08-13.71-2.3-20.01-5.11c-5.85-2.61-8.06-8.23-10.71-14.91
		c7.45,0,13.7-0.02,19.95,0.01c2.03,0.01,3.81,0.71,5.56,1.82c14.6,9.17,29.58,17.66,45.01,25.37
		C738.27,1828.89,738.59,1829.58,739.9,1831.13z"/>
	<path class="st0" d="M1122.34,1142.53c-0.84-23.93,5.68-45.94,6.92-69.49c8.7,3.07,14.51,8.34,21.49,13.14
		c-3.33,4.82-6.44,9.34-9.58,13.85c-1.32,1.9-2.72,3.75-4.05,5.65c-3.95,5.65-5.89,11.18-3.29,18.51
		C1136.93,1132.92,1132.88,1138.9,1122.34,1142.53z"/>
	<path class="st0" d="M1110.55,1847.59c-3.32,4.91-6.64,9.82-9.62,14.22c-3.08,1.27-5.2-0.37-7.5-0.45
		c-3.48-0.12-6.36,0.7-9.17,2.98c-5.69,4.62-12.01,8.28-18.59,11.57c-9.12,4.57-17.8,4.12-26.86-1.1
		c4.43-5.83,9.03-10.08,16.64-11.77c15.89-3.53,31.35-8.77,46.53-14.72c2.38-0.93,4.94-1.44,7.42-2.14
		C1109.78,1846.66,1110.16,1847.12,1110.55,1847.59z"/>
	<path class="st0" d="M1198.03,134.9c7.65-2.83,15.67-4.13,23.96-5.81c3.95,10.1,1.43,20.07,2.26,29.7
		c-4.43,3.84-9.37,5.71-14.3,7.57c-7.43,2.79-7.47,2.76-12.59-4.84c-0.07-2.72,1.37-4.99,3.02-7c2.94-3.58,2.92-7.04,0.77-11
		C1199.77,140.98,1197.9,138.47,1198.03,134.9z"/>
	<path class="st0" d="M1275.44,1696.96c-2.29-7.92-3.15-15.44,0.78-23.6c6.64-13.77,9.59-28.9,14.19-43.42
		c1.06-3.34,2.27-6.63,3.88-11.31c3.96,6.38,4.83,12.21,6.34,17.78c0.54,1.99-0.26,3.86-1.73,5.45c-1.57,1.7-2.9,3.63-4.46,5.35
		c-5.06,5.6-6.89,11.83-4.65,19.28c0.85,2.81,0.71,5.91,1.06,8.87c0.89,7.61-1.53,13.65-8.17,17.86
		C1280.5,1694.61,1278.98,1697.11,1275.44,1696.96z"/>
	<path class="st0" d="M1154.21,159.14c0.39-9.53-0.96-19.41,1.09-29.62c8.66,0.5,16.44,3.02,24.7,5.07
		c0.17,5.79-4.84,9.57-5.02,15.21c0.38,2.82,2.99,4.72,4.39,7.31c1.65,3.05,1.46,5.55-0.77,8.16c-2.21,2.59-4.8,3.49-7.94,2.2
		C1165.17,165.22,1159.47,163.37,1154.21,159.14z"/>
	<path class="st0" d="M1062.28,1611.51c-0.66,8.77-5.06,16.29-8.55,24.01c-3.53,7.81-8.35,15.03-12.25,22.69
		c-3.44,6.74-8.85,10.44-16.04,12c-1.92,0.42-3.78,1.07-5.87,1.67c-2.72-4.7,0.47-8.5,1.68-12.28c1.1-3.42,3.6-6.43,7.26-7.72
		c7.81-2.74,11.27-8.65,12.65-16.34c0.46-2.59,1.39-5.1,2.18-7.62c0.81-2.57,2.09-4.73,4.51-6.27c4.96-3.17,9.76-6.58,14.63-9.9
		C1062.48,1611.74,1062.28,1611.51,1062.28,1611.51z"/>
	<path class="st0" d="M1176.55,540.03c-7.63-0.84-13.44-4.62-19.62-8.53c-2.21-12.19,0.77-24.07,2.47-37.09
		c7.08,4.19,13.53,8,19.74,11.67c0.79,2.25-0.48,3.6-1.37,4.77c-4.16,5.42-5.03,10.36,0.28,15.85
		C1182,530.78,1180.13,535.24,1176.55,540.03z"/>
	<path class="st0" d="M1218.24,494.43c2.61,12.18,4.45,23.74,3.79,36.02c-5.98,4.79-12.4,8.47-20.25,9.53
		c-4.37-4.62-5.26-9.65-0.99-14.23c4.29-4.6,3.75-8.71,0.65-13.33c-1.09-1.63-2.04-3.36-3.4-5.61
		C1204.68,502.73,1211.06,498.82,1218.24,494.43z"/>
	<path class="st0" d="M719.71,1687.93c1.13-0.73,1.64-1.16,2.23-1.43c9.48-4.28,17.42-2.84,22.96,6.53c2.55,4.32,6.51,5.29,11,5.34
		c3.31,0.04,6.62,0.01,10.42,0.01c4.03,5.24,6.57,11.6,9.45,17.97c-3.15,1.14-5.55-0.54-7.87-1.35
		c-12.53-4.35-24.85-9.29-37.43-13.45C723.74,1699.32,719.6,1695.78,719.71,1687.93z"/>
	<path class="st0" d="M806.84,1858.94c-6.31,2.22-12.05,4.69-18.47,5.78c-1.2-1.4-2.29-2.62-3.3-3.89
		c-3.67-4.6-7.27-7.13-14.26-5.92c-7.25,1.26-15.08-0.79-22.65-1.43c-2.1-0.18-3.93-1.19-4.99-2.93c-2.21-3.62-4.97-7.1-4.64-11.9
		c6.74-3.03,12.94-2.94,19.86,0.38c13.74,6.61,28.12,11.75,42.67,16.37C802.95,1856,804.96,1856.31,806.84,1858.94z"/>
	<path class="st0" d="M891.02,1884.38c4.03-2.56,7.6-4.94,11.29-7.12c1.09-0.64,2.59-1.19,3.77-0.98
		c18.46,3.27,37.14,0.76,56.87,2.24c-4.98,5.43-10.44,8.77-16.34,12.01c-4.57-2.23-8.45-5.65-13.64-6.25
		c-2.36,0.25-4.23,1.72-6.05,3.14C915.61,1896.24,900.81,1895.17,891.02,1884.38z"/>
	<path class="st0" d="M1180.4,1805.93c-2.86,8.43-5.07,14.96-8.39,21c-2.8,1.96-5.93,1.24-8.8,1.01
		c-6.92-0.57-12.24,1.85-16.66,7.11c-3.41,4.06-7.6,7.4-10.82,11.72c-1.97,2.64-4.36,5.15-7.05,7.02c-4.77,3.34-9.94,5.57-15.3,1.01
		c-0.38-2.67,1.42-4.53,1.81-6.77c0.79-4.47,3.9-6.68,7.74-8.3C1142.96,1831.33,1160.85,1819.27,1180.4,1805.93z"/>
	<path class="st0" d="M1271.29,1712.17c-2.54,1.94-5.2,3.87-7.74,5.94c-4.86,3.97-8.06,8.77-7.39,15.42
		c0.1,0.98,0.01,1.99-0.08,2.98c-1,11.69-6.04,20.1-19.05,22.68c-1.43-7.21-1.62-13.81,3.13-20.32
		c10.17-13.93,19.63-28.35,27.07-43.99c0.27-0.56,0.87-0.96,1.86-2.02c2.32,3,1.59,6.28,1.75,9.32
		C1271.01,1705.47,1271.14,1708.74,1271.29,1712.17z"/>
	<path class="st0" d="M1035.78,1868.8c-2.82,4.67-6.62,8.17-11.79,11.17c-7.08-3.88-13.76-1.14-20.33,2.39
		c-4.38,2.35-8.66,4.92-13.16,7.04c-9.2,4.35-17.94,2.72-26.54-2.18c4.69-7.65,10.58-11.17,19.61-11.57
		c15.85-0.71,31.55-3.59,47.1-6.9C1032.29,1868.4,1033.82,1867.85,1035.78,1868.8z"/>
	<path class="st0" d="M1220.02,403.74c-5.61,4.03-10.91,5.71-16.37,6.94c-6.25-7.63-6.25-7.64,0.31-17.99
		c0.12-4.85-3.19-8.59-4.49-13.71c7.24-3.29,14.57-6.61,22.66-10.28C1223.41,381.01,1220.38,392.19,1220.02,403.74z"/>
	<path class="st0" d="M677.81,1795.33c-3.98,1.46-7.6-0.27-11.22,0.06c-7.56,0.69-12.61-2.01-15.09-9.67
		c-1.6-4.94-5.45-7.25-11.01-6.02c-2.23,0.49-4.66,0.06-6.95,0.36c-9.53,1.23-18.96-4.15-22.1-14.82c1.75-1.94,4.24-1.41,6.27-1.07
		c4.25,0.71,8.37,1.08,12.74,0.82c3.44-0.21,7.04,0.55,10.24,3.06c11.75,9.22,23.92,17.88,36.75,25.56
		C677.61,1793.72,677.57,1794.18,677.81,1795.33z"/>
	<path class="st0" d="M1229.67,1753.04c2.45,7.05-0.54,13.69-1.29,20.28c-2.35,3.01-5.6,3.87-8.65,5.13
		c-5.84,2.41-9.98,6.25-11.32,12.84c-0.72,3.54-2.11,6.99-3.49,10.35c-3.73,9.06-8.59,11.94-20.08,11.75
		c-0.29-6.35,0.61-11.74,5.84-16.56c14.43-13.3,27.54-27.86,39.24-43.64L1229.67,1753.04z"/>
	<path class="st0" d="M1175.17,410.56c-5.79-0.53-10.83-2.93-15.91-5.7c-3.62-11.58-2.27-23.61-4.6-36.51
		c8.46,3.71,15.87,6.96,23.08,10.12c1.35,2.92-0.73,4.71-1.62,6.66c-1.92,4.2-2.6,7.82,0.7,11.97
		C1180.47,401.68,1179.04,406.4,1175.17,410.56z"/>
	<path class="st0" d="M561.13,1717.8c-6.27-0.35-12.15,2.86-18.63,1.76c-3-3.29-4.14-7.51-6.16-11.25c-2.21-4.08-3.37-4.5-8-3.59
		c-0.32,0.06-0.62,0.25-0.94,0.31c-13.93,2.9-19.31,0.55-27.1-11.83c10.08-5,19.01-4.64,28.14,1.22
		c10.3,6.6,20.57,13.25,30.86,19.86c0.84,0.54,1.78,0.91,2.67,1.35C561.7,1716.36,561.41,1717.08,561.13,1717.8z"/>
	<path class="st0" d="M542.68,1615.62c-8.9-1.42-16.42-6.54-24.88-9.21c-5.98-1.89-11.63-4.81-17.61-6.65
		c-7.83-2.41-13.01-7.32-16.2-14.75c3.06-2.44,6.46-3.43,10.14-2.74c3.95,0.74,8.23,2.02,10.38,5.31c4.92,7.5,11.62,9.08,19.78,7.86
		c3.94-0.59,7.08,0.75,9.2,4.35c3.11,5.28,8.59,9.22,9,16.03L542.68,1615.62z"/>
	<path class="st0" d="M1314.68,1536.13c-6.19-6.01-10.29-11.42-10.02-20.1c0.49-15.56-0.25-31.16-0.47-46.75
		c-0.04-2.65-0.1-5.26-0.85-7.87c-0.78-2.74-0.79-5.61,0.33-9.3c5.18,4.49,9.31,8.39,8.57,15.27c-0.21,1.94-0.13,4.09,0.5,5.91
		c3.14,8.98,0.98,17.63-1.38,26.26c-1.47,5.37-1.46,9.83,2.55,14.7C1318.86,1520.26,1318.79,1527.65,1314.68,1536.13z"/>
	<path class="st0" d="M658.58,1661.27c8.39-3.34,15.29-2.73,20.68,4.6c0.39,0.53,1.02,0.9,1.35,1.46
		c7.4,12.43,9.48,9.81,21.46,10.07c1.66,0.04,3.32,0.07,4.97,0.23c0.62,0.06,1.22,0.45,2.34,0.9c0.81,2.07,1.84,4.47,2.68,6.93
		c0.85,2.49,1.51,5.05,2.21,7.44c-1.87,2.61-3.77,0.81-5.35,0.19c-15.14-5.96-29.65-13.28-44.23-20.49
		C660.07,1670.31,658.81,1666.77,658.58,1661.27z"/>
	<path class="st0" d="M1163.81,235.85c6.57,4.06,11.79,7.28,16.4,10.13c0.99,3.51-0.63,5.44-1.65,7.4
		c-3.08,5.9-3.48,11.32,2.07,15.37c-0.06,4.49-2.91,6.43-5.69,9.16c-6.91-2.81-12.7-7.64-19.15-11.82
		C1156.23,255.68,1161.98,247.15,1163.81,235.85z"/>
	<path class="st0" d="M1196.82,247.22c5.16-4.37,10.96-7.36,17.02-10.82c2.69,9.82,6.96,18.74,8.73,28.76
		c-5.65,5.38-12.29,8.93-18.61,12.69c-3.46-1.68-5.29-4.35-6.96-7.69c0.53-3.94,6.9-5.69,4.83-10.85
		C1200.24,255.34,1198.57,251.41,1196.82,247.22z"/>
	<path class="st0" d="M369.64,1629.87c-11.3,7.99-22.33,8.84-31.93-3.2c0.29-0.25,0.5-0.54,0.77-0.64
		c16.52-6.26,16.58-6.44,33.37-1.64c11.47,3.28,22.77,7.12,34.13,10.77c1.79,0.57,4.05,0.56,4.84,3.54
		c-7.4,0.84-14.71,1.77-22.05,2.44c-2.43,0.22-4.24-1.67-6.18-2.92C378.72,1635.7,375.58,1632.09,369.64,1629.87z"/>
	<path class="st0" d="M780.75,1711.99c3.76-2.81,7.38-4.39,11.09-5.76c7.65,1.57,10.4,8.86,15.28,13.19
		c6.4,1.02,12.02-2.49,18.74-1.52c4.91,4.77,11.59,8.45,17.15,15.21c-9.86-0.17-18.16-2.45-26.48-4.09
		c-8.76-1.73-17.24-4.88-25.99-6.66C784.72,1721.18,782.06,1717.9,780.75,1711.99z"/>
	<path class="st0" d="M599.67,1632.83c12.34-4.21,18.9,0.76,23.72,8.25c4.79,7.46,4.95,7.46,13.6,5.63c2.66-0.56,5.2-0.9,8.44,0.06
		c3.63,5.04,5.18,11.27,7.05,17.77c-3.89,0.22-6.35-1.44-8.97-2.64c-10.87-4.95-21.72-9.94-32.64-14.79
		C602.04,1643.2,602,1643.28,599.67,1632.83z"/>
	<path class="st0" d="M1026.56,1677.87c-14.69,14.8-30.49,28.17-49.54,37.83c-3.73-1.67-7.27-3.26-10.94-4.9
		c1.99-7.59,6.59-11.04,13.75-11.32c1-0.04,2.02-0.21,2.99-0.06c8.76,1.35,13.82-3.31,16.93-10.68c1.74-4.12,4.66-6.06,8.83-7.18
		c5.66-1.52,11.17-3.61,16.75-5.45C1025.75,1676.69,1026.15,1677.28,1026.56,1677.87z"/>
	<path class="st0" d="M1179.22,460.93c-0.55,1.57-0.76,2.97-1.47,4.03c-3.55,5.23-3.48,9.81,0.23,15.4
		c4.37,6.58,3.22,8.95-4.31,16.08c-4.99-0.92-7.9-5.58-12.5-7.11c-1.79-6.72,0.41-12.8,0.97-18.96c0.53-5.82,0.69-11.68,1.1-19.05
		C1169.03,455.36,1174.73,456.95,1179.22,460.93z"/>
	<path class="st0" d="M480.83,1591.46c-2.38,1-4.51-0.1-6.74-0.71c-14.08-3.81-27.91-8.58-42.26-11.34
		c-5.97-1.15-8.36-6.02-11.65-10.09c7.06-5.79,10.98-6.44,17.73-2.49c3.13,1.83,6.13,4.03,8.75,6.54c3.72,3.56,7.76,5.23,12.64,3.19
		c5.15-2.15,8.84-0.53,12.24,3.48c3.19,3.76,6.91,7.06,9.06,11.62L480.83,1591.46z"/>
	<path class="st0" d="M1198.95,460.26c4.69-2.55,9.54-5.19,14.85-8.07c2.5,8.28,2.15,16.45,2.98,24.45c1.25,12,1.23,12.02-9.1,18.53
		c-0.81,0.51-1.8,0.72-2.64,1.04c-8.98-6.65-9.1-8.42-1.62-22.51C1203.53,468.94,1199.53,465.51,1198.95,460.26z"/>
	<path class="st0" d="M453.59,1668.28c3.98-2.56,8.59-3.31,13.1-4.13c2.21-0.4,4.63-0.9,6.85,0.31
		c11.32,6.16,23.61,10.46,34.94,17.91c-2.85,3.84-6.63,2.67-9.92,3.08c-3.28,0.4-6.53,0.97-10.19,1.53
		c-0.72-0.78-1.73-1.63-2.44-2.68c-5.68-8.41-5.66-8.42-15.9-6.41C460.7,1679.72,457.73,1678.01,453.59,1668.28z"/>
	<path class="st0" d="M1221.89,124.24c-7.13,2.41-13.78,3.94-20.5,4.49c-5.08-6.75-5.08-6.75,2.43-16.78
		c-1.02-4.65-5.65-8.02-5.54-13.57c4.79-1.29,9.42-2.91,14.79-2.12C1218.23,104.47,1220.76,113.53,1221.89,124.24z"/>
	<path class="st0" d="M842.02,1724.13c2.21-2.87,4.5-3.48,6.54-4.51c6.52-3.27,12.7-2.28,17.2,3.05c4.68,5.54,9.99,6.24,16.01,4.06
		c9.51-3.45,17.32-0.42,24.7,5.4c-0.55,2.56-2.55,1.81-3.96,1.85c-9.61,0.3-19.19-0.07-28.82,1.13c-6.11,0.76-12.51-0.67-18.77-1.32
		c-1.19-0.12-2.41-1.02-3.41-1.81C848.44,1729.55,845.45,1726.98,842.02,1724.13z"/>
	<path class="st0" d="M461.21,1659.52c-7.4,2.34-13.59,4.29-19.73,6.23c-3.69-1.87-4.87-5.68-7.51-8.13
		c-2.26-2.1-4.56-3.69-7.96-3.24c-13.87,1.85-13.88,1.8-23.6-7.19c11.9-4.71,21.68-4.77,32.93-0.43
		C443.92,1650.08,452.28,1653.8,461.21,1659.52z"/>
	<path class="st0" d="M585.41,1621.77c4.15,6.04,7.46,10.97,9.68,17.04c-3.02,0.67-4.99-1.4-7.26-2.27
		c-2.47-0.96-4.9-2.02-7.32-3.09c-5.75-2.56-11.32-5.64-17.27-7.61c-8.5-2.82-14.25-7.88-16.76-17.17c3.71-3.47,7.96-3.16,12.5-1.46
		c4.19,1.57,7.45,4.4,10.22,7.72C573.48,1620.05,578.28,1623.65,585.41,1621.77z"/>
	<path class="st0" d="M1164.67,96.12c6.07-0.36,10.74,0.95,15.36,2.47c-0.59,5.03-4.01,8.52-5.55,12.13
		c0.12,3.76,2.75,5.09,4.36,7.08c2.18,2.67,2.24,5.36,0.57,8.23c-1.6,2.75-3.98,2.95-6.81,2.27c-5.1-1.21-10.23-2.24-15.69-3.42
		C1155.95,114.11,1160.52,105.41,1164.67,96.12z"/>
	<path class="st0" d="M277.21,1620.81c1.86-2.9,4.95-4.33,7.52-6.39c2.85-2.3,6.02-2.54,9.43-2.21c11.21,1.08,22.41,2.17,33.63,3.19
		c4.63,0.42,9.24,0.83,14.3,3.22c-6.11,2.4-11.59,4.53-17.06,6.68c-2.33,0.91-4.57,0.73-6.7-0.54c-2-1.2-3.99-2.42-5.92-3.71
		c-3.21-2.16-5.99-1.61-9.13,0.55C290.79,1630.21,289.56,1630.09,277.21,1620.81z"/>
	<path class="st0" d="M1181.07,174.5c-3.9,9.05-8.78,16.71,1.45,21.83c-1.16,4.7-2.64,7.84-6.02,10.17
		c-7.92-3.26-13.36-8.14-15.07-16.94c-1.36-7.03-4.09-13.8-4.94-21.74C1165.01,169.47,1171.52,174.73,1181.07,174.5z"/>
	<path class="st0" d="M1222.31,167.16c-2.52,9.82-4.38,17.83-6.66,25.72c-1.9,6.57-3.18,7.56-13.55,13.45
		c-7.78-6.56-7.8-7.89-0.28-17.32c0.86-2.52-1.08-4.39-1.57-6.6c-0.48-2.2-2.22-4.08-1.85-7.17
		C1206.12,173.73,1213.17,170.3,1222.31,167.16z"/>
	<path class="st0" d="M1314.24,1292.29c-6.78-5.34-10.21-11.06-11.52-18.09c-0.49-2.6-0.61-5.28-0.69-7.93
		c-0.28-10.39-5.22-18.12-13.44-24.05c-1.08-0.78-2.09-1.66-3.08-2.45c0.6-6.7,1.15-12.92,1.7-19.16c2.66,0.11,2.69,2.4,3.56,4.09
		c8.35,16.25,15.31,33.11,22.12,50.04C1315.1,1280.23,1315.11,1285.36,1314.24,1292.29z"/>
	<path class="st0" d="M1089.94,1221.37c0.57,5.93,3.1,11.58,2.45,17.42c-3.82,4.02-7.36,7.94-11.11,11.64
		c-3,2.97-4.35,6.32-4.55,10.6c-0.23,4.93-0.38,9.9-1.77,14.76c-1.78,6.24-4.77,11.53-10.77,16.3c-1.76-5.08-1.91-9.28-0.27-13.63
		C1071.29,1258.98,1079.19,1239.73,1089.94,1221.37z"/>
	<path class="st0" d="M1199.47,417.2c5.49-2.35,11.34-5.04,18.47-5.82c-1.17,12.46-3.39,24.07-5.84,35.75
		c-2.06,2.19-4.89,3.15-7.5,4.36c-0.68-0.31-1.49-0.41-1.76-0.84c-1.42-2.24-2.87-4.48-3.99-6.88c-0.86-1.84-1.16-4.24,0.37-5.68
		c5.64-5.3,3.32-10.84,0.96-16.49C1199.69,420.41,1198.71,419.33,1199.47,417.2z"/>
	<path class="st0" d="M1159.81,412.48c7.05-1.75,12.42,2.94,18.26,4.34c1.06,2.19,0.26,3.67-0.32,5.21
		c-3.56,9.39-3.55,9.39,2.15,17.87c0.57,2.52-0.92,4.47-1.93,6.5c-0.87,1.74-2.13,3.29-3.63,5.54c-2.88-1.47-5.7-2.92-8.83-4.52
		c-1.83-11.76-3.65-23.44-5.48-35.13L1159.81,412.48z"/>
	<path class="st0" d="M362.22,1557.69c3.54-3.67,7.49-4.55,11.83-2.83c3.05,1.2,6.16,2.61,8.73,4.58
		c5.24,4.03,10.58,5.13,16.64,2.22c0.84-0.4,1.9-0.35,2.6-0.47c3.35,0.99,5.02,3.61,7.13,5.65c2.33,2.26,4.47,4.73,7.37,7.83
		c-5.59,1.41-9.95-0.38-14.05-1.43c-8.99-2.29-18.1-3.98-27.24-5.04C368.25,1567.39,364.71,1563.85,362.22,1557.69z"/>
	<path class="st0" d="M944.46,1723.14c5.73-2.16,8.4-6.21,11.89-9.24c4.36,1.63,8.29,3.1,12.59,4.71c-3.82,3.25-8.07,4.2-12.14,5.56
		c-9.78,3.27-19.94,4.97-29.95,7.3c-6.5,1.51-11.69-0.83-17.07-5.04C920.42,1713.65,932.67,1718.94,944.46,1723.14z"/>
	<path class="st0" d="M305,1553.84c8.92-7.2,10-7.7,19.65-1.66c6.62,4.15,12.81,4.9,19.75,1.75c1.17-0.53,2.47-0.8,3.84-1.23
		c4.63,3.03,7.93,7,10.69,11.76c-2.86,1.51-5.34,0.66-7.88,0.34c-9.53-1.2-19.03-3.29-28.66-2.63
		C315.05,1562.68,309.46,1560.54,305,1553.84z"/>
	<path class="st0" d="M199.67,1560.37c6.64-6.4,13.4-10.3,22.35-5.71c3.55,1.82,7.38,2.17,10.52,0.11
		c5.5-3.62,10.13-1.46,14.87,1.13c1.94,1.06,4.47,1.53,5.38,4.9c-9.17,0.89-18.2,1.77-27.22,2.65c-2.98,0.29-6.15,0.02-8.9,0.97
		C210.2,1566.65,205.12,1564.39,199.67,1560.37z"/>
	<path class="st0" d="M1242.31,159.67c0.16-2.32,0.24-4.65,0.5-6.96c0.4-3.54-0.4-6.74-3.13-9.02c-5.27-4.4-5.92-9.95-4.91-16.26
		c0.57-3.54,0.49-7.19,0.72-10.96c-0.92-0.16-1.84-0.31-3.31-0.56c-2.17,9.75-1.21,19.64-2.5,30.12
		c-3.48-9.18-3.19-18.24-4.79-26.92c-1.56-8.46-4.61-16.31-9.24-26.1c7.16,5.47,10.03,11.04,13.56,16.43
		c3.08,1.69,7,0.08,10.99,1.62c0.24,8.97-3.63,17.35-3.77,25.98c2.83,4.31,9.54,5.27,9.5,11.13c-0.03,3.94,0.14,8.48-3.88,11.29
		C1242.06,159.46,1242.31,159.67,1242.31,159.67z"/>
	<path class="st0" d="M277.63,1612.54c-7.53,7.64-14.29,12.58-23.65,5.05c-8.48,6.93-17.22,12.25-28.05,4.61
		c1.73-5.19,4.8-8.14,10.81-8.28C249.94,1613.61,263.07,1611.03,277.63,1612.54z"/>
	<path class="st0" d="M171.35,1632.93c1.43-4.09,3.14-7.16,6.99-8.59c5.92-2.19,35.42-7.83,42.96-8.09
		c-2.03,4.87-2.08,4.83-7.72,9.19c-3.52-0.64-6.52-3.19-10.48-3.2c-3.65,0.98-5.5,4.45-8.29,6.73
		C186.9,1635.44,180.48,1636.64,171.35,1632.93z"/>
	<path class="st0" d="M1142.77,137.85c-1.92-8.68-3.84-17.36-5.72-25.83c3.64-3.02,7.62-0.87,11.86-2.66
		c3.32-4.4,5.87-10.61,12.98-15.82c-8.73,17.96-10.82,35.55-12.39,53.33c-1.52-5.1-0.99-10.43-2.31-15.56
		c-1.26-4.9,0.57-10.38-1.77-15.1c-2.37-0.13-2.96,0.99-2.81,2.41c0.5,4.59-0.12,9.25,1.36,13.8c0.53,1.63,0.99,4-1.42,5.17
		L1142.77,137.85z"/>
	<path class="st0" d="M1197.31,214.69c4.7-2.78,8.92-5.27,13.97-8.25c1.47,4.5,0.77,8.4,0.89,12.18c0.12,3.97,0.03,7.95,0.03,12.62
		c-3.2,2.52-6.78,5.34-11.47,7.32c-3.48-2.4-5.32-5.83-2.78-9.18C1201.89,224.19,1200.75,219.67,1197.31,214.69z"/>
	<path class="st0" d="M303.26,1560.77c-5.1,1.78-9.51-0.74-14.09-0.71c-6.94,0.05-13.91-0.3-20.83,0.1
		c-5.11,0.3-8.96-1.39-12.42-5.43c1.83-3.76,5.36-4.08,8.91-3.94c1.94,0.08,4.12,0.36,5.75,1.31c4.94,2.91,9.6,2.07,14.06-0.65
		c4.03-2.45,7.34-2.14,10.61,1.29C297.81,1555.44,302.14,1556.48,303.26,1560.77z"/>
	<path class="st0" d="M1166.64,207.29c1.71,0.34,2.44,0.31,2.96,0.62c3.41,2.01,6.79,4.1,10.66,6.45c-1.15,3.12-2.25,6.11-3.45,9.37
		c2.63,4.59,7.03,9.27,1.07,14.88c-4.98-1.59-8.69-4.81-12.84-7.94C1167.09,223.03,1165.58,215.36,1166.64,207.29z"/>
	<path class="st0" d="M58.09,1613.15c2.77-9.13,4.92-11.21,13.48-11.65c3.59-0.19,6.77-0.91,8.55-3.92
		c3.25-5.49,8.16-6.05,13.66-5.5c2.48,0.25,5.41-0.9,7.1,2.12c-1.07,1.93-3.16,2.37-4.86,3.02c-9.3,3.54-18,8.22-26.03,14.02
		C66.12,1614.01,62.46,1614.79,58.09,1613.15z"/>
	<path class="st0" d="M185.96,1560.96c3.66,1.7,7.66,2.3,11.36,5.87c-3.27,0.89-5.86,1.72-8.5,2.3c-7.72,1.69-15.45,3.29-23.18,4.89
		c-5.85,1.21-6.02,1.16-12.86-3.05c1.98-4.1,5.64-6.08,9.52-7.87c2.04-0.94,4.01-0.72,5.64,0.45c5.59,4,10.53,2.39,15.37-1.37
		C183.81,1561.79,184.49,1561.62,185.96,1560.96z"/>
	<path class="st0" d="M45.95,1621.71c3.12-0.57,5.99-1.1,10.23-1.87c-5.94,6.87-10.76,12.93-16.1,18.49
		c-5.34,5.56-7.44,14.4-16.33,16.5c-2.14-11.33,1.36-18.01,11.2-21.5C40.91,1631.21,40.91,1631.21,45.95,1621.71z"/>
	<path class="st0" d="M1424.97,1769.87c-0.85-8.08-1.59-15.09-2.33-22.11c3.06-2.44,5.87-4.69,8.98-7.18
		c3.79,1.84,4.24,6.27,6.61,9.2c1.06,1.31,0.89,3.18,0.01,4.71C1434.98,1760.18,1431.16,1765.39,1424.97,1769.87z"/>
	<path class="st0" d="M103.45,1586.57c3.4-5.67,8.02-8.68,14.18-6.5c5.84,2.06,10.3,0.97,14.46-3.19c2.9-2.89,6.18-3.55,10.03-1.84
		c1.78,0.79,3.8,1.02,5.63,1.48c0.23,2.61-1.58,2.78-3.08,3.26c-7.27,2.35-14.67,4.35-21.77,7.15
		C116.39,1589.5,110.25,1589.44,103.45,1586.57z"/>
	<path class="st0" d="M1108.11,155.59c-5.85-3.29-9.52-7.78-8.45-15.76c4.9,3.6,9.32,6.88,13.77,10.12
		c2.25,1.64,4.25,1.22,6.02-0.82l-0.23,0.04c2.62,0.24,5.25,0.49,8.24,0.77c0.71,3.86,3.23,7.17,2.94,11.03
		c-2.12,1.87-4.11,0.75-5.99,0.79l0.36,0.24c-3.46-2.67-7.35-4.43-12.1-6.05c0.81,1.86,1.3,2.97,1.79,4.09l0.21-0.33
		c-3.18-0.01-4.78-2.49-6.79-4.33C1107.95,155.45,1108.03,155.52,1108.11,155.59z"/>
	<path class="st0" d="M87.23,1678.99c1.37-11.1,13.5-23.47,27.61-28.72c1.6,2.4-0.7,4.28-0.84,6.37c-1.27,1.59-2.89,1.25-4.53,1.01
		c-3.32-0.49-4.89,1.79-5.83,4.3c-0.8,2.12-0.88,4.51-1.31,6.78C100.66,1677.5,97.76,1679.58,87.23,1678.99z"/>
	<path class="st0" d="M1254.78,161.8c-2.23-0.2-4.51,1.04-7.31-0.56c0.5-3.9,1.71-7.74,4.08-11.9c3.06,0.87,6.96-1.27,9.38,2.84
		c-0.51,0.55-0.92,0.14-0.54-0.1c1.12-0.69-0.54-0.68,0.3,0.35c5.75-3.7,11.74-7.07,16.67-12.85c1.42,9.96,0.47,11.53-8.91,16.18
		l0.25,0.25c-0.78-1.26-1.57-0.93-2.37-0.02l0.3-0.21c-4.7,0.89-8.88,2.83-12.3,6.24L1254.78,161.8z"/>
	<path class="st0" d="M24.32,1660.49c-2.1,14.99-6.99,34.24-9.92,39.26c-6.27-6.52-6.78-10.78-1.61-17.29
		c1.32-1.67,1.7-3.45,2.41-5.28c1.49-3.83,0.64-7.93,1.69-11.73C18.88,1663.1,21.33,1661.71,24.32,1660.49z"/>
	<path class="st0" d="M1479.93,1761.8c0.5,11.32-4.47,19.22-15.8,25.63c-3.01-5.11-1.37-10.85-2.38-16.83
		C1468.06,1768.69,1474.43,1766.46,1479.93,1761.8z"/>
	<path class="st0" d="M10.79,1714.16c1.43-2.8,3.25-5.42,6.06-7.3c2.75,0.72,1.86,3.07,2.34,4.73c1.56,5.37,3.04,10.76,4.65,16.11
		c1.36,4.51,2.12,8.9-1.15,13c-7.18-4.03-7.4-4.17-6.16-11.1c0.51-2.86-0.22-5.1-1.5-7.5C13.66,1719.52,11.18,1717.53,10.79,1714.16
		z"/>
	<path class="st0" d="M1271.1,1184.63c-5.7-6.78-11.4-13.55-17.22-20.47c1.7-5.88,3.34-11.56,5.43-18.75
		C1265.57,1158.73,1265.69,1172.48,1271.1,1184.63z"/>
	<path class="st0" d="M1106.58,1185.56c-0.26-5.88,3.52-10.58,4.68-16.11c1.6-7.63,4.07-15.08,6.49-23.76
		c3.98,5.96,3.81,12.22,6.9,17.96c-6.1,7.2-12.21,14.42-18.33,21.65L1106.58,1185.56z"/>
	<path class="st0" d="M1349.05,1650.7c6.28,3.65,11.05,5.96,16.65,3.8c1.92,4.08,0.61,8.12,1.22,11.94
		c0.56,3.48,1.6,6.87,2.79,11.81C1359.82,1670.81,1352.61,1663.31,1349.05,1650.7z"/>
	<path class="st0" d="M83.58,1682.14c0.91,5.83,2.71,9.61-1.48,13.31c-2.72,2.4-2.09,5.9-0.36,9.11c1.23,2.3,2.36,4.76,2.91,7.29
		c0.8,3.61,0.69,7.26-2.71,10c-3.42-1.86-5.3-4.75-5.47-8.59C76.02,1703.04,75.85,1692.85,83.58,1682.14z"/>
	<path class="st0" d="M1548.92,932.28c7.59-0.52,11.63-5.84,15.6-10.58c2.5,0.32,3.61,1.36,2.92,3.34c-0.65,1.85-1.44,3.72-2.57,5.3
		c-4.34,6.08-9.04,11.85-15.94,16.82C1548.92,941.67,1548.92,937.25,1548.92,932.28z"/>
	<path class="st0" d="M1106.32,1185.3c-0.45,3.61-1.07,7.44,0.54,10.69c3.42,6.95,0.24,11.97-4.05,16.86
		c-1.07,1.22-2.2,2.46-4.61,2.81c-2.71-3.59-2.26-7.93-0.69-11.66c2.65-6.3,4.68-12.98,9.08-18.44L1106.32,1185.3z"/>
	<path class="st0" d="M1319.92,1298.12c5.62,10.3,7.86,21.49,10.71,33.49c-3.89-1.89-4.74-5.13-6.62-7.42
		c-2.1-2.56-4.06-5.25-5.84-8.04c-0.66-1.03-1.21-2.64-0.9-3.72C1318.6,1307.8,1318.59,1302.95,1319.92,1298.12z"/>
	<path class="st0" d="M80.61,1728.63c5.36,2.03,8.16,4.82,7.73,9.93c-0.33,3.94,2.04,6.04,5.15,7.73c2.33,1.27,4.7,2.53,6.82,4.1
		c3.45,2.55,4.94,5.95,4.02,10.16c-3.69,1.41-5.27-1.09-7.08-2.84C89.38,1750.14,83.54,1740.11,80.61,1728.63z"/>
	<path class="st0" d="M829.9,947.98c-8.12-6.42-14.26-13.09-18.75-21.21c-0.93-1.68-1.36-3.81,1.83-5.2
		c4.61,3.85,7.79,10.45,15.4,10.35C828.88,937.21,829.33,941.98,829.9,947.98z"/>
	<path class="st0" d="M145.71,1634.85c1.24,1.74,0.19,3.04-0.84,4.32c-1.84,2.3-3.63,4.63-5.58,6.84
		c-6.92,7.86-8.53,8.03-18.52,1.72c7.39-6.61,16.96-8.37,25.16-12.7L145.71,1634.85z"/>
	<path class="st0" d="M1500.33,1735.22c6.16-0.93,10.59-3.47,16.02-7.38c-2.07,10.76-7.6,18.03-12.55,27.61
		c-1.57-4.53-0.54-7.66-1.09-10.52C1502.17,1742.07,1501.35,1739.28,1500.33,1735.22z"/>
	<path class="st0" d="M1049.42,1332.38c-0.99-2.18-1.32-4.46-0.69-6.77c2.52-9.18,4.5-18.54,9.01-28.6c0.94,4.14,1.64,7.06,2.27,10
		c1.08,5.06,0.76,9.55-3.15,13.76c-3.1,3.33-5.18,7.62-7.71,11.49L1049.42,1332.38z"/>
	<path class="st0" d="M1279.95,1216.17c-12.18-7.03-11.25-16.42-6.25-27.15C1277.06,1197.69,1284.13,1205.01,1279.95,1216.17z"/>
	<path class="st0" d="M47.27,1768.68c-8.43,1.18-10.72,0.4-11.89-5.08c-1.03-4.79-2.73-8.57-6.72-11.59
		c-3.27-2.47-2.78-5.63,0.57-9.14C35.42,1751,39.64,1760.18,47.27,1768.68z"/>
	<path class="st0" d="M71.99,1794.63c-3.44,1.14-6.68,1.34-7.9-2.11c-2.32-6.56-7.01-10.93-12.18-15.05
		c-0.36-0.29-0.27-1.13-0.65-2.98c7.35,4.28,12.6,9.95,18.8,14.25C71.7,1789.87,72.69,1791.7,71.99,1794.63z"/>
	<path class="st0" d="M107.48,1767.31c3.35-1.54,5.73-1.71,6.39,0.54c1.46,4.96,4.93,5.7,9.24,5.55c2.32-0.08,4.67-0.1,6.44,1.91
		c1.22,1.39,1.6,2.99,0.83,4.58c-0.63,1.3-2.08,1.51-3.45,1.4c-0.98-0.08-2.15,0-2.89-0.5
		C118.35,1776.92,112.62,1773.1,107.48,1767.31z"/>
	<path class="st0" d="M146.61,1793.77c3.92-0.26,7.58-2.04,11.62-1.75c3.54,0.25,6.35,1.42,8.03,4.71c0.99,1.94-0.09,4.13-2.24,4.4
		c-0.65,0.08-1.39,0.32-1.94,0.11c-5.36-2.03-11.39-2.75-15.29-7.69L146.61,1793.77z"/>
	<path class="st0" d="M1436.43,899.67c0.45,4.65,0.76,7.87-0.39,11.73c-6.59-2.23-10.04-7.21-13.76-13.66
		C1427.67,897.9,1431.6,900.43,1436.43,899.67z"/>
	<path class="st0" d="M955.21,898.39c-2.34,6.09-7.2,9.76-12.85,13.72c-2.35-4-1.17-7.7-1.32-12.09c5.15,0.21,9.41-2.65,14.32-1.42
		L955.21,898.39z"/>
	<path class="st0" d="M216.09,1815.22c-7.49-0.2-14.43-1.43-21.35-4.09C204.67,1806.36,209.93,1807.33,216.09,1815.22z"/>
	<path class="st0" d="M1140.61,140.25c-1.16,1.58-2.18,3.29-3.51,4.71c-2.26,2.42-2.68,5.25-1.98,8.24
		c0.81,3.5,1.98,6.92,2.85,10.41c1.04,4.18,0.84,4.41-4.98,7.45c-0.55-3.49,2.59-6.21,1.73-9.57c-0.73-2.85-1.48-5.71-2.02-8.61
		c-1.46-7.77,0.08-10.06,8.1-12.39C1140.8,140.52,1140.61,140.25,1140.61,140.25z"/>
	<path class="st0" d="M1198.46,84.02c5.89,0.97,5.89,0.97,10.98,7.61c-4.88,0.12-9.63,4.31-13.55-1.84
		c-0.22-2.43,1.86-3.93,2.76-5.96L1198.46,84.02z"/>
	<path class="st0" d="M1168.34,91.57c3.31-4.68,6.1-7.83,10.88-8.27c2.01,1.51,1.1,4.49,3.35,5.55
		C1178.91,95.73,1173.95,92.2,1168.34,91.57z"/>
	<path class="st0" d="M145.94,1635.04c6.34-1.48,11.89-5.78,18.8-5.2l-0.18-0.19c-2.83,8.11-2.83,8.11-10.38,6.76
		c-2.82-0.51-5.64-1.04-8.46-1.56L145.94,1635.04z"/>
	<path class="st0" d="M1043.62,1366.65c-2.89-8.23,0.93-13.61,1.01-21.13C1050.48,1353.47,1046.35,1358.97,1043.62,1366.65z"/>
	<path class="st0" d="M1037.36,1417.14c4.52,7.19,4.4,12.66,0,18.17C1037.36,1429.83,1037.36,1424.36,1037.36,1417.14z"/>
	<path class="st0" d="M1333.67,1347.79c-0.23,5.84,4.45,10.71,0.99,16.8C1329.29,1354.94,1329.12,1352.82,1333.67,1347.79z"/>
	<path class="st0" d="M790.39,914.4c4.31,3.02,6.92,4.85,9.49,6.65c1.05,2.59-0.48,4.35-1.9,6.97
		C794.51,924.42,792.51,920.65,790.39,914.4z"/>
	<path class="st0" d="M1586.96,916.37c-1.53,4.37-3.59,8.39-6.94,11.84c-1.87-2.3-1.99-4.6-2.09-7.5c3.44-0.25,4.92-4.76,9.09-4.08
		L1586.96,916.37z"/>
	<path class="st0" d="M146.79,1793.57c-5.64,0.03-9.25-3.91-14.27-7.02c2.5-0.94,4.25-1.61,6.77-2.56c2.45,3.27,4.89,6.53,7.32,9.78
		L146.79,1793.57z"/>
	<path class="st0" d="M1340.26,1436.29c-4.74-6.3-4.17-11.42-0.11-17.56C1341.18,1424.81,1341.03,1429.93,1340.26,1436.29z"/>
	<path class="st0" d="M187.3,1809.63c-5.13-1.35-9.5-1.52-13.68-4.35C180.76,1803.13,180.76,1803.13,187.3,1809.63z"/>
	<path class="st0" d="M1124.4,161.77c0.39,1.86,2.75,1.39,3.46,2.9c-5.62,1.69-6.74,1.27-13.2-4.95l-0.21,0.33
		c3.49,0.39,6.62,2.64,10.31,1.97L1124.4,161.77z"/>
	<path class="st0" d="M1242.06,159.46c1.1,3.72,2.2,7.45,3.35,11.34c-7-2.4-7-2.4-3.1-11.13
		C1242.31,159.67,1242.06,159.46,1242.06,159.46z"/>
	<path class="st0" d="M89.14,1803.47c3.28,2.04,6.55,4.07,10.84,6.74c-7.89-0.12-9.75-1.52-10.57-6.89L89.14,1803.47z"/>
	<path class="st0" d="M990.54,539.65c4.1,1.71,7.57,1.4,7.17,6.25C993.96,546.33,992.14,544.58,990.54,539.65z"/>
	<path class="st0" d="M1400.04,541.44c0.73,4.65-1.32,6.55-3.71,8.39C1394.72,545.59,1394.72,545.59,1400.04,541.44z"/>
	<path class="st0" d="M976.45,542c7.79,2.77,7.72,2.85,4.96,7.56C978.97,548.2,978.11,545.84,976.45,542z"/>
	<path class="st0" d="M1487.84,1749.35c0.97,3.45,0.01,5.93-2.31,8.21C1484.11,1754.22,1485.37,1751.82,1487.84,1749.35z"/>
	<path class="st0" d="M1260.37,161.81c-2.89,3.63-6.47,4.81-11.53,4.23c1.69-3.41,4.86-2.03,5.94-4.24l-0.44,0.22
		c2.09,0,4.17,0.01,6.26,0.01L1260.37,161.81z"/>
	<path class="st0" d="M1381.13,546.25c-2.05-5.13,2.22-4.55,5.25-6.82C1384.91,544.2,1384.91,544.2,1381.13,546.25z"/>
	<path class="st0" d="M87.05,1800.79c-2.21,0.37-4.5,1-6.62-0.01c-1.2-0.57-1.72-1.83-0.92-3.3c3.13-0.2,4.56,3.31,7.5,3.52
		L87.05,1800.79z"/>
	<path class="st0" d="M1406.5,531.58c-0.28,1.3-0.82,2.57-2.36,2.37c-1-0.13-1.14-1.27-1.13-2.23c0.01-1.23,0.9-1.64,1.84-1.73
		C1405.85,529.9,1406.73,530.24,1406.5,531.58z"/>
	<path class="st0" d="M966.58,739.89c0.7-2.87,3.46-2.06,6.21-3.43c-1.59,3.69-3.94,3.55-6.38,3.23L966.58,739.89z"/>
	<path class="st0" d="M981.84,516.27c-0.35,0.39-0.69,1.12-1.05,1.13c-1.47,0.03-2.18-0.97-2.24-2.32c-0.01-0.19,1.01-0.62,1.55-0.6
		C981.14,514.52,981.68,515.26,981.84,516.27z"/>
	<path class="st0" d="M1337.52,1387.48c1.31,1.29,1.28,2.69,0.51,4.21C1335.56,1390.56,1337.02,1388.98,1337.52,1387.48z"/>
	<path class="st0" d="M1016.85,386.23c-0.37-3.09,0.79-5.25,3.79-6.29c0,0-0.19-0.18-0.19-0.18c0.39,3.2-2.46,4.55-3.86,6.73
		L1016.85,386.23z"/>
	<path class="st0" d="M1039.82,1387.87c0.94,1.5,1.09,2.92-0.24,4.29C1038.75,1390.66,1038.44,1389.23,1039.82,1387.87z"/>
	<path class="st0" d="M112.99,1820.18c2.31-0.28,3.29,0.29,3.64,1.62c0.08,0.3-0.55,1.14-0.81,1.12
		C114.46,1822.85,113.71,1821.91,112.99,1820.18z"/>
	<path class="st0" d="M231.93,1816.5c-1.19,1.12-2.33,0.81-3.55,0.55c-0.67-1.56,0.63-2.08,1.58-2.11
		C230.59,1814.91,231.26,1815.93,231.93,1816.5z"/>
	<path class="st0" d="M974.76,532.16c-0.16,0.85-0.25,2.08-1.37,1.83c-1.32-0.29-1.91-1.61-1.95-2.92c-0.01-0.4,0.65-1.15,1.06-1.19
		C974.03,529.75,974.72,530.68,974.76,532.16z"/>
	<path class="st0" d="M1034.47,1023.71c-0.96,4.03-3.53,4.51-6.94,3.15l0.11,0.1c2.68-0.22,3.77-4.09,7-3.06L1034.47,1023.71z"/>
	<path class="st0" d="M246.29,1818.58c1.4-1.15,2.79-1.18,4.21-0.04C249.1,1819.7,247.71,1819.62,246.29,1818.58z"/>
	<path class="st0" d="M1340.16,514.23c0.43,0.35,1.26,0.76,1.22,1.04c-0.16,1.02-0.86,1.74-1.99,1.73c-0.16,0-0.38-0.52-0.46-0.83
		C1338.64,515.1,1338.91,514.34,1340.16,514.23z"/>
	<path class="st0" d="M1397.29,517.53c-0.99-1.18-0.76-2.26,0.48-2.98c0.33-0.19,1.53,0.28,1.54,0.49
		C1399.38,516.38,1398.59,517.2,1397.29,517.53z"/>
	<path class="st0" d="M1038.05,514.38c0.33,0.38,1,0.83,0.94,1.13c-0.17,0.88-0.71,1.78-1.79,1.41c-0.34-0.12-0.62-1.15-0.49-1.66
		C1036.8,514.89,1037.57,514.67,1038.05,514.38z"/>
	<path class="st0" d="M1541.66,925.32c-0.09,0.25-0.17,0.5-0.26,0.75c-0.46-0.17-0.99-0.25-1.35-0.53c-0.71-0.57-0.54-1.1,0.35-1.05
		C1540.83,924.51,1541.24,925.03,1541.66,925.32z"/>
	<path class="st0" d="M1325.78,838.64c-0.11-1.03-0.22-2.05-0.39-3.59c1.12,1.63,0.67,2.72,0.26,3.81
		C1325.65,838.86,1325.78,838.64,1325.78,838.64z"/>
	<path class="st0" d="M1264.35,159.84c-0.87,1.59-2.3,2.02-3.98,1.97c0,0,0.23,0.23,0.23,0.23c0.53-2.34,2.47-1.81,4.06-1.98
		L1264.35,159.84z"/>
	<path class="st0" d="M1054.4,1489.54c-0.16,0.57-0.33,1.15-0.49,1.72c-1.32-1.23,0.13-1.17,0.71-1.52L1054.4,1489.54z"/>
	<path class="st0" d="M1012.48,1443.81c1.11-0.13,1.64,0.47,1.58,1.48c-0.02,0.27-0.91,0.76-0.96,0.71
		c-0.66-0.67-0.96-1.46-0.41-2.36L1012.48,1443.81z"/>
	<path class="st0" d="M277.24,1820.68c-0.25,0.15-0.51,0.43-0.76,0.43c-0.89-0.02-1.13-0.41-0.6-0.91c0.17-0.16,0.6-0.17,0.87-0.09
		C276.95,1820.17,277.08,1820.48,277.24,1820.68z"/>
	<path class="st0" d="M837.59,926.55c-0.25-0.56-0.56-1.1-0.71-1.68c-0.04-0.16,0.41-0.62,0.65-0.63c0.25,0,0.75,0.42,0.71,0.57
		C838.12,925.41,837.83,925.97,837.59,926.55z"/>
	<path class="st0" d="M480.61,1591.67c0.23,0.12,0.5,0.19,0.68,0.36c0.08,0.08,0,0.34-0.01,0.51c-0.15-0.36-0.3-0.72-0.44-1.08
		L480.61,1591.67z"/>
	<path class="st0" d="M1062.48,1611.74c0.12-0.23,0.19-0.49,0.36-0.67c0.08-0.08,0.33,0,0.5,0.01c-0.36,0.14-0.71,0.29-1.07,0.43
		L1062.48,1611.74z"/>
	<path class="st0" d="M542.5,1615.81c0.75-0.1,1.06,0.13,0.88,0.69c-0.01,0.03-0.49,0-0.55-0.11c-0.12-0.21-0.11-0.51-0.15-0.77
		C542.68,1615.62,542.5,1615.81,542.5,1615.81z"/>
	<path class="st0" d="M1406.66,737.72c-0.85,0.13-1.22-0.13-1.05-0.76c0.01-0.02,0.55-0.01,0.63,0.11c0.15,0.24,0.14,0.58,0.19,0.88
		C1406.43,737.96,1406.66,737.72,1406.66,737.72z"/>
	<path class="st0" d="M164.73,1629.83c-0.08-0.75,0.16-1.05,0.71-0.87c0.03,0.01,0,0.49-0.12,0.55c-0.22,0.12-0.51,0.09-0.77,0.13
		C164.55,1629.65,164.73,1629.83,164.73,1629.83z"/>
	<path class="st0" d="M814.49,845.71c0.28,0.76-0.38,1.76-0.63,1.52c-1.53-1.42-0.04-1.23,0.84-1.32
		C814.69,845.91,814.49,845.71,814.49,845.71z"/>
	<path class="st0" d="M955.36,898.6c-0.16-0.16-0.32-0.32-0.48-0.48c0.11,0.09,0.22,0.18,0.33,0.27L955.36,898.6z"/>
	<polygon class="st0" points="1587.01,916.63 1586.67,915.83 1586.96,916.37 	"/>
	<path class="st0" d="M1036.47,1015.7c-0.2,0.43-0.41,0.87-0.61,1.3c-1.11-1.36,0.11-1.04,0.8-1.11L1036.47,1015.7z"/>
	<path class="st0" d="M1049.15,1332.25c0.09,0.04,0.17,0.08,0.26,0.13L1049.15,1332.25z"/>
	<path class="st0" d="M1229.92,1753.19c-0.08-0.05-0.17-0.1-0.25-0.15L1229.92,1753.19z"/>
	<path class="st0" d="M1198.65,83.84c-0.75,0.1-1.06-0.13-0.88-0.69c0.01-0.03,0.49,0,0.55,0.11c0.12,0.21,0.11,0.51,0.15,0.77
		C1198.46,84.02,1198.65,83.84,1198.65,83.84z"/>
	<path class="st0" d="M1260.4,105.9c-0.07-0.08-0.14-0.17-0.2-0.25C1260.19,105.64,1260.4,105.9,1260.4,105.9z"/>
	<polygon class="st0" points="470.19,1787.45 470.69,1787.36 469.94,1787.56 	"/>
	<path class="st0" d="M1364.6,1445.73c-0.13,0.22-0.22,0.47-0.39,0.64c-0.08,0.08-0.31,0-0.47,0c0.36-0.13,0.73-0.26,1.09-0.39
		L1364.6,1445.73z"/>
	<path class="st0" d="M1140.8,140.52c0.66-0.89,1.31-1.78,1.97-2.67c0,0-0.23-0.24-0.23-0.24c-0.64,0.88-1.29,1.77-1.93,2.65
		C1140.61,140.25,1140.8,140.52,1140.8,140.52z"/>
	<path class="st0" d="M1119.44,149.14c-0.19,0.13-0.38,0.26-0.57,0.38c-0.05,0.03-0.12,0.03-0.18,0.05
		c0.17-0.13,0.35-0.25,0.52-0.38C1119.21,149.18,1119.44,149.14,1119.44,149.14z"/>
	<path class="st0" d="M89.41,1803.32c-1.38-0.29-1.82-1.46-2.37-2.53l-0.04,0.21c0.71,0.82,1.42,1.65,2.14,2.47L89.41,1803.32z"/>
	<path class="st0" d="M1268.46,155.75c0,1.34-0.71,1.98-2.02,2l0.22,0.27c-0.01-0.75-0.01-1.49-0.02-2.24c0,0-0.3,0.21-0.3,0.21
		c0.79,0.01,1.58,0.01,2.37,0.02L1268.46,155.75z"/>
	<path class="st0" d="M1266.44,157.75c-0.07,1.32-1,1.77-2.08,2.09c0,0,0.31,0.22,0.31,0.22c-0.04-1.37,0.71-1.97,2-2.04
		L1266.44,157.75z"/>
	<path class="st0" d="M1360.36,383.93c0.83,0.01,1.17,0.29,1.01,0.86c-0.21-0.06-0.53-0.07-0.6-0.2c-0.14-0.25-0.13-0.58-0.18-0.88
		L1360.36,383.93z"/>
	<path class="st0" d="M1016.6,386.49c-0.53-1.22,1.04-0.85-0.2-0.43c-0.46,0.16-0.16,0.67,0.45,0.18L1016.6,386.49z"/>
	<polygon class="st0" points="1160.04,412.31 1160.44,411.96 1159.81,412.48 	"/>
	<path class="st0" d="M1446.7,1581.61c-1.22-0.55,0.29-1.25-0.5-0.21c-0.38,0.5,0.16,0.83,0.78,0.36L1446.7,1581.61z"/>
	<path class="st0" d="M1446.97,1581.77c-0.9,0.99-1.29-0.52-0.32,0.35c0.42,0.37,0.75-0.16,0.04-0.5L1446.97,1581.77z"/>
</g>
</svg>
