<?xml version="1.0" encoding="utf-8"?>
<!-- Generator: Adobe Illustrator 24.1.2, SVG Export Plug-In . SVG Version: 6.00 Build 0)  -->
<svg version="1.1" id="Layer_1" xmlns="http://www.w3.org/2000/svg" xmlns:xlink="http://www.w3.org/1999/xlink" x="0px" y="0px"
	 viewBox="0 0 2375.75 1903.33" style="enable-background:new 0 0 2375.75 1903.33;" xml:space="preserve">
<style type="text/css">
	.st0{fill:#1A1A1A;}
</style>
<g>
	<path d="M1270.95,350.33c-0.65,12.91-5.59,23.97-9.06,35.37c-4.43,14.54-4.04,28.85-0.39,43.25c4.49,17.72,9.07,35.43,14.05,53.02
		c5.23,18.45,14.71,33.68,31.68,44.25c12.66,7.88,24.63,17.14,35.9,26.94c18.51,16.09,28.62,37.22,33.21,61.11
		c0.13,0.65,0.27,1.31,0.34,1.97c1.27,11.23,4.12,21.68,9.49,32.01c8.33,16.02,11.91,33.75,12.7,51.93
		c0.33,7.57,1.22,15.12,1.76,22.68c0.32,4.49,2.25,7.27,6.81,8.63c4.43,1.32,8.78,3.17,12.88,5.33c10.06,5.3,20.99,6.15,31.92,6.04
		c7.9-0.08,15.77-1.74,23.66-2.57c10.81-1.14,21.51-3.1,32.36,0.83c8.67,3.14,15.28,8.13,18.92,16.53
		c4.63,10.68,9.12,21.42,13.22,32.31c9.02,23.96,21.35,45.8,39.8,63.85c7.44,7.28,10.84,16.61,13.27,26.36
		c3.19,12.78,3.89,25.56-0.81,38.22c-3.13,8.44-8.34,14.6-16.26,18.95c-2.4-1.46-1.22-4.9-3.51-6.6c-3.36,2.07-4.94,5.55-7.09,8.39
		c-3.49,4.61-7.92,8.1-12.3,11.63c-3.38,2.72-7.38,4.45-11.54,2.52c-2.09-3.23,0.02-5.62,0.32-8.14c0.32-2.63,1.03-5.25-0.15-7.85
		c-2.21-1.13-4.41,1.94-7.07-0.46c-0.51-5.72-1.06-11.95-2.59-18.05c-1.34-5.37-4.18-9.05-9.66-10.21
		c-6.82-1.45-11.86-5.68-16.89-10.1c-4.41-3.87-7.34-8.53-8.74-14.22c-0.87-3.55-1.74-7.11-2.82-10.6
		c-4.19-13.54-7.85-17.78-21.71-25.5c-2.48,0.77-2.24,2.98-2.52,4.88c-1.01,6.88-3.66,13.46-3.43,20.57c0.1,3.19-1.9,5.67-3.86,7.91
		c-3.52,4.01-7.23,7.84-11.94,10.52c-5.74,3.27-8.33,8.19-8.15,14.83c0.1,3.85,1.11,8.2-3.37,10.71
		c-10.57-2.87-20.92-13.67-23.11-23.62c-2.37-10.78-2.02-21.05,3.84-30.8c2.04-3.39,3.54-7.11,5.32-10.73
		c-1.57-1.94-2.7-0.19-4.02,0.44c-14.92,7.08-30.46,11.39-47.15,11.08c-4.21-0.08-8.54-1-13.26,0.36
		c1.74,12.12,0.9,24.02,1.19,35.91c0.39,16.38-2.48,32.42-4.61,48.55c-2.04,15.48-6.62,30.51-8.08,46.11
		c-0.8,8.55,1.6,16.41,4.33,24.19c1.25,3.54,4.87,5.32,7.95,7.32c10.06,6.52,20.07,13.11,30.15,19.59
		c16.28,10.45,31.23,22.57,45.68,35.41c15.96,14.18,30.9,29.28,44.2,45.99c11.22,14.1,20.79,29.3,28.95,45.35
		c6.18,12.15,12.2,24.37,17.71,36.86c6.21,14.06,10.72,28.63,15.08,43.26c1.9,6.39,1.72,12.95-0.69,19.59
		c-7.94,21.88-16.53,43.51-23.56,65.72c-3.33,10.52-8.87,20-14.83,29.31c-16.62,25.95-37.06,48.66-58.83,70.23
		c-9.72,9.63-18.66,19.9-27.14,30.59c-1.86,2.35-3.8,4.67-5.36,7.21c-4.56,7.46-6.25,15.13-2.41,23.65
		c3.98,8.84,8.97,17.09,13.99,25.32c15.62,25.59,32.95,50.01,50.25,74.48c9.79,13.84,19.59,27.7,29.07,41.77
		c12.88,19.12,19.37,40.65,22.03,63.41c0.19,1.64,0.32,3.4-0.04,4.98c-3.15,13.58-5.4,27.42-11.42,40.19
		c-2.49,5.27-5.78,9.68-11.27,11.74c-7.2-1.15-2.13-9.56-7.61-11.89c-3.07,6.95-5.29,14.18-8.88,20.85
		c-4.16,7.74-9.61,14.34-15.87,20.37c-1.18,1.13-2.54,2.19-4,2.9c-3.44,1.67-6.63,0.49-8.34-2.92c-1.84-3.67-2.56-7.85-2.17-11.66
		c0.88-8.38-3.06-13.94-8.99-18.79c-0.77-0.63-1.56-1.23-2.95-2.33c-6.32,7.25-10.58,17.58-22.32,18.17
		c-3.06-5.08-3.62-10.08-3.86-14.98c-0.19-4.06-1.16-7.88-2.15-11.73c-0.41-1.57-0.96-3.69-2.14-4.39
		c-6.03-3.57-8.14-10.47-13.04-14.85c-6.09-5.45-8.31-12.62-10.23-20.07c-2.1-8.12-2.31-16.47-2.5-24.75
		c-0.31-13.38-2.85-26.26-6.9-39.27c-5.53,1.14-6.75,4.81-7.24,9.48c-1.02,9.63-0.83,19.11,1.95,28.46
		c0.15,0.52-0.32,1.22-0.66,2.41c-5.44-0.07-9.95-2.41-13.86-6.11c-18.38-17.36-29.7-38.14-30.8-63.84
		c-0.06-1.31-0.36-2.6-0.73-5.21c-3.38,10.25-6.9,19.14-9.22,28.33c-3.85,15.3-10.31,29.47-17.38,43.39
		c-8.29,16.31-16.99,32.4-25.53,48.58c-5.46,10.34-12.33,19.74-19.37,29.03c-11.45,15.14-23.49,29.79-36.78,43.34
		c-15.67,15.99-32.92,30.14-52.48,41.1c-25.26,14.16-51.15,27.04-78.95,35.67c-30.23,9.38-60.97,16.02-92.48,19.65
		c-26.21,3.01-52.46,4.1-78.67,2.87c-39.23-1.83-77.85-8.12-115.7-19.17c-36.68-10.7-70.39-27.7-103.7-45.9
		c-23.99-13.11-46.57-28.29-68.79-44.13c-16.25-11.59-32.76-22.83-49.35-33.94c-8.84-5.93-18.14-11.16-27.11-16.89
		c-15.44-9.84-30.31-20.69-46.28-29.56c-36.05-20.03-72.14-40.18-111.2-54.01c-17.83-6.31-35.35-13.86-54.2-16.85
		c-20.32-3.22-40.57-6.54-61.26-7.53c-51.42-2.44-100.43,6.99-147.59,27.11c-8.88,3.79-17.81,7.6-25.1,14.16
		c-11.31,10.19-16.84,22.61-14.6,38.12c2.04,14.1,8.98,25.6,18.45,35.77c14.52,15.59,31.98,27.1,51.36,35.59
		c32.51,14.24,66.58,22.51,101.86,26.26c16.2,1.72,32.47,3.45,48.67,3c47.08-1.3,93.38-7.63,137.37-25.73
		c9.53-3.92,18.92-8.19,28.35-12.33c1.5-0.66,2.86-1.8,5.22-0.55c-0.07,2.11-1.44,3.79-2.86,5.46
		c-12.88,15.13-28.21,27.09-45.83,36.33c-31.2,16.37-64.29,26.89-98.83,33.47c-30.25,5.76-60.76,6.99-91.39,6.16
		c-58.47-1.58-113.85-15.18-164.98-44.12c-23.4-13.25-43.86-30.13-59.67-52.18c-16.33-22.77-24.4-48.03-21.43-76.09
		c2.56-24.25,13.23-45.11,29.11-63.4c16.45-18.94,36.86-32.38,59.58-42.58c40.35-18.1,82.71-29.14,126.37-35.26
		c11.14-1.56,22.47-2.24,33.72-3.2c15.32-1.32,30.6-1.26,45.87-0.96c37.55,0.73,75.04,2.76,111.91,10.65
		c23.04,4.93,46.59,7.59,69.07,14.98c20.22,6.65,40.29,13.77,60.39,20.78c36.17,12.62,70.56,29.46,105.62,44.72
		c12.23,5.32,23.95,11.6,35.69,17.87c27.98,14.93,57.78,25.51,87.46,36.37c18.76,6.86,37.78,12.87,57.17,17.6
		c9.31,2.27,18.7,4.28,27.76,4.73c2.26-2.16,1.94-4.3,2.16-6.22c2.77-24.64,11.49-46.9,25.95-67.09
		c17.82-24.89,35.56-49.84,52.74-75.17c11.39-16.79,22.34-33.91,32.11-51.73c1.44-2.62,2.44-5.46,3.78-8.13
		c4.56-9.09,2.35-17.42-3.2-25.08c-7.81-10.79-16.08-21.23-25.67-30.53c-16.02-15.54-31.09-31.97-45.2-49.25
		c-11.39-13.95-21.46-28.81-29.62-44.89c-4.99-9.83-7.55-20.6-11.22-30.93c-5.35-15.03-10.56-30.13-16.51-44.92
		c-3.06-7.62-2.82-14.85-0.7-22.35c10.4-36.74,26.5-70.95,46.66-103.26c13.83-22.17,31.18-41.42,50.57-58.87
		c11.37-10.23,22.37-20.87,34.82-29.86c14.58-10.52,29.07-21.34,44.87-29.8c14.18-7.59,16.65-19.71,16.76-33.42
		c0.07-9-2.43-17.76-4.35-26.51c-7.41-33.7-9.63-67.76-7.54-102.15c0.06-0.93-0.32-1.88-0.61-3.44
		c-10.81-0.66-21.72,0.56-32.47-1.93c-10.36-2.39-20.29-5.76-31.78-11.63c2.56,5.29,4.08,8.71,5.85,12.01
		c10.94,20.36,5.63,44.6-17.6,55.55c-3.77-0.87-5.28-3.43-5.21-7.19c0.03-2-0.03-4-0.02-6c0.03-5.48-2.31-9.66-7.04-12.35
		c-3.82-2.18-6.96-5.09-10.05-8.15c-4.42-4.38-6.83-9.21-7.18-15.79c-0.36-6.77-1.66-13.7-4.12-20.24
		c-10.89,4.02-18.63,11.78-21.72,21.63c-1.29,4.12-2.76,8.23-3.6,12.45c-2.64,13.18-11.6,21.19-23.29,25.03
		c-8.9,2.92-12.44,8.25-13.35,16.4c-0.51,4.58-2.24,8.93-1.68,13.19c-2.92,1.8-5.01-0.42-7.23-0.1c-2.68,5.56,3.12,10.92,0.42,16.39
		c-10.74,0.59-13.38-1.36-30.76-22.78c-1.25,2.43-2.41,4.69-3.76,7.33c-10.96-6.3-16.35-15.97-18.42-27.41
		c-2.82-15.52,0.26-30.5,6.42-44.79c1.95-4.53,4.92-8.64,8.59-12.18c17.83-17.22,29.71-38.24,38.64-61.1
		c3.99-10.22,7.77-20.54,12.08-30.63c7.23-16.92,20.17-23.92,38.86-22.7c11.3,0.73,22.37,3.18,33.64,3.8
		c12.02,0.67,23.85-0.27,35.05-5.35c6.35-2.88,12.79-5.54,19.31-8.36c1.83-5.73,2.86-11.53,2.86-17.59
		c0.02-20.83,3.66-41,11.69-60.28c1.02-2.45,1.88-5.1,3.44-7.18c4.6-6.14,5.77-13.27,6.56-20.55c1.47-13.7,5.4-26.74,11.23-39.14
		c6.92-14.69,17.03-26.98,29.98-36.77c10.88-8.23,21.76-16.45,33.11-24.07c8.88-5.96,15.91-13.65,20.84-23.62
		c5.69-11.51,8.61-23.7,11.83-35.89c3.31-12.54,6.84-25.02,9.81-37.64c3.09-13.13,2.91-26.34-0.6-39.46
		c-3-11.2-7.65-21.96-9.02-33.6c-0.11-0.92-0.88-1.75-1.4-2.75c-2.73,1.71-3.72,4.63-5.27,7.03c-4.76,7.36-10.51,13.76-17.62,18.87
		c-6.53,4.69-11.15,10.29-11.09,18.92c0.02,3.61-0.85,7.23-1.36,10.84c-1.93,13.79-8.62,25.04-18.8,34.26
		c-3.44,3.11-7.18,6.01-11.16,8.38c-6.3,3.75-10.76,8.8-13.16,15.78c0.55,2.76,2.91,4.29,4.73,6.17c2.15,2.22,3.88,4.7,4.27,7.74
		c0.79,6.13,3.39,11.62,6.69,16.53c5.22,7.75,4,14.98,0.07,22.54c-1.56,3-3.59,5.54-6.39,8.71c-5.56-8.88-13.64-15.39-17.02-26.08
		c-5.85,7.31-11.84,13.53-11.5,23.08c0.06,1.56-0.55,3.43-1.47,4.7c-5.4,7.41-6.09,15.94-6.22,24.64c-0.01,0.64-0.35,1.27-0.66,2.29
		c-4.96,0.51-6.13-5.74-10.55-6.07c-1.06,1.31-3.2,5.96-3.82,8.46c-6.99-1.89-11.86-6.76-14.13-12.92
		c-3.53-9.59-8.73-18.63-10.02-29.05c-0.65-5.22-0.11-9.8,3.41-13.86c3.98-4.58,6.65-9.92,8.73-15.58
		c5.5-14.97,11.27-29.85,16.47-44.92c2.7-7.83,4.66-15.94,6.57-24.01c4.27-18.09,11.74-34.64,23.3-49.22
		c7.96-10.03,13.71-21.05,17.5-33.34c4.14-13.44,12.15-25.11,18.7-37.44c2.03-3.81,4.52-7.38,6.62-11.15
		c1.45-2.6,3.25-5.25,3.74-8.07c1.89-10.9,7.55-19.93,14.1-28.31c9.76-12.48,23.05-18.91,38.86-19.4
		c7.76-0.24,15.16-1.51,22.37-4.24c8.98-3.4,13.15-13.44,8.81-22c-2.26-4.45-5.15-8.49-9.64-11.18c-5.6-3.36-9.83-8.14-11.8-14.37
		c-1.47-4.67-4.43-7.12-8.8-8.62c-4.78-1.64-8.77-4.69-12.76-7.72c-10.01-7.6-13.83-17.34-10.6-30.26c5.35,1.46,7.28,7.12,11.69,9
		c4.21,1.79,8.7,3.43,13.7,2.23c-0.15-4.01-3.45-5.24-6.1-6.8c-9.22-5.45-15.18-13.79-20.55-22.7c-6.35-10.54-5.18-21.56-1.99-32.64
		c0.82-2.86,2.14-5.6,3.49-8.27c1.65-3.27,3.81-6.15,7.75-7.56c3.47,6.64,3.73,13.66,5.01,20.39c2.1,11.04,5.21,14.03,18.83,16.5
		c-11.75-17.26-18.37-35.5-15.77-55.75c1.97-15.36,8.2-29.42,16.89-42.26c1.39-2.06,3.19-4.43,7.25-3.48
		c1.39,3.35,1.36,7.4,1.37,11.19c0.03,9.32,0.64,18.58,1.43,27.86c0.76,8.85,2.88,17.64,8.58,24.08
		c8.38,9.47,18.28,17.34,32.72,14.75c4.84-0.87,10.05-0.73,14.95-0.06c9.08,1.24,16.41-1.37,24.04-6.5
		c12.09-8.13,16.07-19.85,17.62-33.03c0.82-6.92,0.86-13.97,0.7-20.94c-0.14-6.06,1.45-11.74,2-17.69c4.98-0.09,7.03,3.16,8.87,6.21
		c10.34,17.15,17.01,35.29,15.21,55.84c-1.05,11.93-5.7,22.46-11.26,32.75c-1.07,1.98-3.09,3.51-2.83,6.11
		c8.19-0.21,14.01-3.77,15.96-10.21c1.05-3.47,1.48-7.14,2.08-10.74c0.86-5.18,1.48-10.42,4.73-15.42
		c8.43,6.26,11.08,15.13,12.57,24.36c3.22,19.96-7.67,33.41-21.63,45.26c-2.97,2.52-7.28,3.52-8.96,8.31
		c5.06,2.08,9.6-0.15,13.84-1.86c4.44-1.79,6.36-7.48,11.68-9.02c3.38,11.6,0.13,20.7-8.18,28.14c-4.71,4.22-9.74,8.14-15.88,10.14
		c-4.12,1.34-6.8,3.87-8.11,8.01c-2.11,6.65-6.44,11.57-12.4,15.05c-3.3,1.92-5.44,4.91-7.46,7.95
		c-6.82,10.27-2.94,21.01,8.61,25.33c6.66,2.49,13.38,3.56,20.44,3.8c16.98,0.58,30.76,7.67,40.86,21.44
		c5.73,7.82,10.49,16.08,12.3,25.89c0.58,3.13,2.68,6.04,4.34,8.9c8.16,14.1,16.59,28.08,23.02,43.09
		c2.22,5.17,3.91,10.57,5.84,15.86c3.82,10.51,10.97,18.97,17.34,27.87c6.64,9.28,12.19,19.07,15.39,30.06
		c3.25,11.16,6.25,22.4,9.56,33.54c1.61,5.4,3.61,10.69,5.54,16c4.42,12.19,8.83,24.38,13.42,36.51c1.53,4.05,3.43,8.1,6.61,11.08
		c4.11,3.84,4.65,8.54,4.41,13.62c-0.03,0.66-0.18,1.32-0.29,1.98c-2.04,11.19-6.63,21.45-11.68,31.51
		c-2.49,4.96-6.76,8.02-12,10.06c-3.28-2.09-0.63-5.96-2.94-8.28c-5.24-1.16-6.63,5.82-10.51,6.05c-2.09-0.72-2.23-1.83-2.23-2.75
		c0-8.73-0.37-17.27-6.03-24.7c-1.31-1.72-1.92-4.41-1.9-6.64c0.09-8.48-5.44-13.69-10.97-20.75c-3.1,10.99-12.15,16.57-16.19,26.32
		c-6.93-5.98-9.53-13.28-10.97-21.17c-0.51-2.81,0.84-5.24,2.21-7.52c3.79-6.3,7.16-12.73,8.45-20.1c0.93-5.29,5.71-8.01,8.95-12.22
		c-1.7-6.71-5.45-11.78-11.32-15.55c-8.72-5.6-16.76-11.91-22.78-20.63c-5.86-8.49-8.79-17.8-9.64-27.91
		c-0.31-3.65-0.14-7.41-1.02-10.91c-1.24-4.92-4-9.36-8.2-12.23c-10.12-6.93-17.77-15.94-23.82-26.46
		C1273.53,351.49,1272.73,351.32,1270.95,350.33z M1388.55,1314.49c-6.44-3.17-12.63-2.52-18.39-4
		c-12.3-3.17-23.83-8.25-35.18-13.84c-2.5-1.23-4.75-3.34-8.53-3.05c13.96,53.01,25.9,105.8,21.06,161.17
		c7.31-1.09,9.49-5.9,10.97-11.05c4.16-14.54,4.71-29.44,4.08-44.45c-0.51-12.21-2.1-24.29-0.56-36.68
		c2.18-17.58,7.35-33.03,22.44-43.75C1385.73,1317.92,1386.67,1316.5,1388.55,1314.49z M990.33,1313.26
		c1.1,4.93,4.19,6.01,6.36,7.94c8.16,7.21,14.47,15.7,16.7,26.51c2.48,12.02,4.33,24.15,3.12,36.53
		c-0.71,7.25-1.81,14.56-1.46,21.78c0.54,11.21,0.67,22.52,3.41,33.54c0.97,3.89,1.95,7.68,4.32,11.03c1.86,2.63,4,4.21,7.68,3.23
		c0.4-7.65-0.99-15.15-1.5-22.7c-0.83-12.3,0.94-24.58,2.35-36.68c3.77-32.26,9.61-64.22,19.17-95.37c0.5-1.64,2.2-3.55-0.35-5.96
		C1031.57,1302.78,1012.29,1311.41,990.33,1313.26z"/>
	<path class="st0" d="M362.22,1817.98c-6.13,3.08-12.23,4.24-18.31,5.52c-14.66,3.07-29.61,4.82-44.44,5.16
		c-11.44,0.26-23.12,2.03-34.63-0.68c-3.17-0.75-6.64-0.24-9.97-0.22c-10.68,0.09-21.28-0.86-31.72-2.93
		c-4.28-0.85-8.6-1.5-12.84-1.46c-8.78,0.08-17.18-1.66-25.49-4.02c-11.83-3.36-23.68-6.66-35.19-11.1
		c-24.66-9.52-45.71-24.34-63.93-43.31c-7.48-7.79-11.72-17.71-16.93-26.98c-4.83-8.6-6.18-17.81-6.74-27.7
		c-0.93-16.5,4.07-30.84,12.37-44.42c7.07-11.56,16.55-20.85,28.55-27.26c29.82-15.92,61.14-27.77,94.49-33.89
		c15.69-2.88,31.44-4.87,47.41-5.85c13.64-0.84,27.25-1.28,40.86-0.99c35.69,0.77,70.74,5.49,104.99,16.28
		c30.25,9.53,59.1,22.22,87.64,35.83c23.15,11.04,45.59,23.32,67.15,37.18c22.11,14.21,44,28.77,66.11,42.99
		c20.17,12.96,39.28,27.44,59.06,40.92c27.76,18.92,56.67,36.05,86.98,50.8c33.77,16.43,69.28,27.04,106.06,33.89
		c24.53,4.57,49.24,7.66,74.2,7.94c33.77,0.38,66.93-4.15,99.51-13.06c10.58-2.89,21.25-5.46,31.74-8.64
		c26.24-7.94,51.19-18.62,73.43-35.06c6.94-5.13,14.59-9.25,21.54-14.45c25.16-18.81,44.17-43.12,62.17-68.43
		c16.15-22.71,28-47.44,36.59-73.94c5.85-18.05,11.58-36.13,14.39-54.89c2.45-16.39,5.05-32.76,5.83-49.43
		c0.7-14.94,1.79-29.88,1.64-44.82c-0.32-30.91-1.96-61.79-7-92.33c-1.53-9.25-1.36-18.51-2.53-27.74
		c-3.28-25.95-11.16-50.62-19.55-75.15c-4.4-12.88-9.05-25.81-15.07-37.98c-7.39-14.92-13.59-30.31-20.35-45.48
		c-5.8-13.03-10.87-26.33-13.73-41.64c2.71,2.49,3.47,4.67,4.48,6.83c3.52,7.54,7.34,14.93,10.98,22.42
		c16.42,33.81,33.46,67.35,47.21,102.39c10.85,27.64,18.87,56.18,22.5,85.62c2.03,16.44,4.37,32.9,5.44,49.52
		c1.07,16.62,0.97,33.24,1.9,49.81c1.02,18.29-1.33,36.42-1.1,54.66c0.12,9.86-2.16,19.76-3.37,29.63
		c-2.6,21.16-6.78,42.01-13.67,62.19c-6.01,17.6-11.78,35.3-19.82,52.14c-7.8,16.33-18.47,30.83-28.75,45.56
		c-9.71,13.92-20.45,27.1-32.02,39.53c-13.47,14.47-29.41,25.93-46.1,36.4c-26.15,16.41-54.57,27.56-84,36.36
		c-32.26,9.65-65.18,15.52-98.79,18.26c-16.64,1.36-33.22,1.88-49.78,0.91c-25.2-1.48-50.17-5.18-74.93-10.25
		c-29.13-5.97-57.2-15.3-84.27-27.36c-25.86-11.52-50.4-25.64-74.35-40.75c-18.31-11.55-35.63-24.53-53.44-36.8
		c-21.09-14.53-42.81-28.16-64.25-42.18c-7.8-5.1-15.68-10.1-23.37-15.35c-25.36-17.31-52.5-31.39-80.06-44.76
		c-17.67-8.57-35.72-16.26-54.1-23.15c-24.34-9.13-49.26-16.35-74.93-20.42c-15.38-2.44-30.93-4.18-46.59-4.1
		c-8.66,0.04-17.33-0.03-25.99,0.01c-54.14,0.24-105.33,12.42-153.55,37.27c-18.89,9.73-31.09,24.93-37.66,44.54
		c-2.91,8.69-4.32,18.05-2.27,27.54c3.14,14.52,8.25,27.9,18.47,39.17c22.64,24.96,49.78,43.15,81.74,53.5
		c19.57,6.33,39.67,10.63,60.42,12.23c22.94,1.77,45.83,2.32,68.73,0.92c17.2-1.05,34.32-3.31,51.49-4.93
		C355.66,1817.74,358.66,1817.98,362.22,1817.98z"/>
	<path class="st0" d="M350.13,1842.49c-11,3.66-22.52,4.69-33.86,6.6c-18.51,3.1-37.24,2.71-55.79,1.76
		c-30.87-1.58-61.52-5.6-91.35-14.18c-16.98-4.88-33.73-10.83-49.06-19.52c-27-15.31-52.47-32.95-72.43-57.19
		c-14.28-17.34-22.55-37.48-25.09-59.88c-0.57-5.02,0.52-9.89,1.19-14.85c2.8-20.71,13.17-37.42,26.99-52.33
		c11.23-12.12,24.73-21.18,39.68-28.07c31.57-14.56,64.61-24.56,98.69-31.17c24.82-4.82,49.8-7.81,75.13-8.76
		c19.3-0.73,38.36,1.43,57.53,1.9c20.4,0.5,40.46,3.04,60.35,6.79c38.22,7.19,76.33,15.05,112.74,29.27
		c35.63,13.92,70.94,28.55,105.69,44.6c24.15,11.16,48.61,21.65,72.26,33.88c25.2,13.03,51.94,22.28,78.42,32.19
		c26.53,9.92,53.58,18.13,81.49,22.98c18.04,3.13,36.32,3.74,54.63,1.69c5.6-0.63,11.31-0.2,16.96-0.44
		c28.24-1.21,55.11-7.14,80.28-20.83c24.55-13.36,44.15-31.81,59.98-54.44c9-12.85,15.17-27.28,21.1-41.79
		c8.51-20.8,13.02-42.46,15.34-64.75c2.09-20.19,4.43-40.43,2.97-60.66c-1.49-20.65-0.59-41.25-1.09-61.86
		c-0.18-7.33,0.91-14.54,1.69-21.82c4.64-43.41,16.81-84.62,34.75-124.3c13.99-30.93,28.78-61.47,43.95-91.83
		c2.05-4.1,4.02-8.23,6.8-13.93c0.87,6.95-1.41,11.48-2.83,16.09c-4.3,14.02-10.5,27.3-16.41,40.68
		c-11.94,27.04-24.62,53.79-33.48,82.08c-6.66,21.26-12.89,42.69-16.2,64.74c-2.07,13.77-2.85,27.76-2.94,41.74
		c-0.08,12.33,0.69,24.72-0.22,36.98c-0.91,12.2,1.04,24.38-0.9,36.59c-0.92,5.77-0.55,11.88,0.63,17.88
		c0.89,4.5,0.79,9.32,0.39,13.93c-1.7,19.84-3.05,39.75-7.56,59.22c-5.51,23.8-14.73,46.14-26.22,67.7
		c-11.03,20.7-27,36.95-44.32,52.17c-1.49,1.31-3.11,2.57-4.86,3.48c-14.14,7.35-28.12,14.79-43.36,20.06
		c-19.69,6.81-39.78,10.4-60.32,12.44c-2.97,0.3-5.98,0.34-8.97,0.42c-7.96,0.22-15.89,0.05-23.88,1.06
		c-6.82,0.86-13.95,1.14-20.86-0.68c-1.26-0.33-2.64-0.37-3.96-0.34c-25.03,0.66-48.77-6.19-72.28-13.33
		c-30.24-9.18-59.86-20.22-88.86-32.81c-9.45-4.1-18.68-8.75-27.88-13.43c-23.45-11.92-47.48-22.54-71.58-33.05
		c-17.68-7.71-35.15-15.92-52.95-23.34c-31.61-13.17-63.3-26.21-96.58-34.76c-9.96-2.56-19.95-5.1-30.04-7.11
		c-24.42-4.86-48.89-9.37-73.63-12.43c-13.92-1.72-27.86-1.64-41.78-2.44c-5.63-0.32-11.24-1.33-16.85-1.24
		c-48.48,0.72-95.93,7.88-142.11,22.96c-11.08,3.62-21.97,7.67-32.86,11.8c-15.12,5.74-28.84,13.82-40.95,24.35
		c-17.29,15.04-29.68,33.28-32.39,56.67c-1.55,13.39,0.45,26.35,5.8,38.95c7.13,16.77,16.6,32,29.87,44.34
		c15.13,14.07,31.89,26.15,49.75,36.66c21.43,12.62,44.7,20.31,68.72,26.06c2.91,0.7,5.87,1.3,8.66,2.34
		c14.89,5.56,30.54,6.16,46.11,7c9.95,0.54,19.94,0.14,29.81,1.98c1.29,0.24,2.67,0.23,3.99,0.09c21.15-2.28,42.5-1.13,63.64-3.76
		C342.93,1842.85,346.33,1840.39,350.13,1842.49z"/>
	<path class="st0" d="M1336.3,1015.07c4.17,5.84,10,9.61,16.2,12.86c12.11,6.35,23.86,13.35,34.51,21.9
		c13.22,10.61,27.44,19.91,40.13,31.22c27.97,24.91,53.46,51.83,72.37,84.54c9.34,16.16,17.48,32.86,24.98,49.89
		c6.81,15.45,10.42,31.57,7.62,48.57c-1.08,6.54-2.63,12.99-3.92,19.5c-0.58,2.92-1.21,5.85-1.56,8.81
		c-1.01,8.55-4.94,15.8-9.94,22.55c-5.34,7.21-13.01,10.23-21.6,10.75c-12.26,0.74-24.55,1.03-36.83,1.49
		c-16.31,0.6-31.29,5.23-44.83,14.5c-3.53,2.42-5.42,5.81-6.88,9.54c-4.02,10.25-7.17,20.77-7.69,31.83
		c-0.47,10.03-2.87,19.71-4.74,29.48c-0.88,4.56-2.41,9.05-4.94,13.01c-4.48,7-7.32,14.89-12.25,21.67
		c-2.95,4.05-3.82,9.17-5.09,13.96c-2.45,9.29-7.51,16.94-14.16,23.65c-3.99,4.02-7.75,8.19-10.91,13.53
		c5.34,8.67,13.75,12.56,22.96,13.96c10.76,1.64,21.63,3.14,32.61,2.87c6.99-0.17,12.13,2.39,14.74,9.41
		c1.21,3.27,3.37,6.18,4.73,9.92c-12.32-6.08-25.06-5.45-38.01-4.99c-9.94,0.35-19.79-2.07-29.32-5.21
		c-2.47-0.82-4.94-1.64-7.61-2.52c-3.55,3.64-3.58,9.56-8.08,12.19c-2.97-0.28-2.72-2.82-3.32-4.42
		c-3.23-8.59-4.93-17.67-9.46-27.46c3.2,1.43,5.03,2.24,7.56,3.37c1.14-3.3,2.62-6.23,3.14-9.33c1.86-11,7.66-19.89,15.36-27.37
		c8.39-8.15,14.23-18.05,22.12-28.2c-4.43-0.39-5.81,3.56-8.85,3.2c-0.05-0.9-0.39-1.93-0.12-2.76c2.66-8.21,5.9-16.27,8.04-24.61
		c4.13-16.09,7.01-32.45,7.54-49.11c0.16-5.04,1.04-9.9,2.41-14.68c2.19-7.64,4.99-15.13,3.7-23.33c-0.33-2.07,0.37-4,1.92-5.45
		c3.37-3.15,6.03-7.13,10.41-9.24c4.67,2.26,3.43,7.75,6.6,11.22c10.47-8.39,22.3-14.32,35.53-16.93
		c10.06-1.98,20.21-3.91,30.58-2.43c0.65,0.09,1.32,0.55,1.91,0.45c17.11-2.97,33.57-7.78,42.22-24.52
		c3.86-7.47,7.53-15.73,7.83-24.37c0.2-5.61,1.89-10.97,1.52-16.69c-0.51-7.78-3.01-14.86-5.13-22.21
		c-2.76-9.59-6.4-18.75-10.2-27.94c-3.41-8.26-8.5-15.13-15.29-20.62c-11.89-9.62-23.88-19.1-37.69-26
		c-9.11-4.55-16.45-10.8-19.91-21.03c-2.44-7.23-6.19-14-8.8-21.18c-5.07-13.95-15.2-23-27.78-29.85
		c-7.24-3.94-15.41-4.23-23.24-4.88c-11.56-0.96-23.24-1.02-34.72,1.82c-8.14,2.01-15.93,4.8-22.98,9.32
		c-6.98,4.48-13.9,9.09-20.59,13.99c-4.54,3.33-8.98,6.95-11.99,11.87c-3.26,5.33-8.69,8.24-13.44,11.73
		c-3.04,2.23-7.7,0.67-11.56,3.13c-2.09-7.05-4.54-13.14-3.94-20.21c1.41-0.78,2.78-1.74,4.28-2.35c8.5-3.46,15.03-9.05,20.95-16.19
		c5.44-6.56,12.36-12.23,20.88-14.88c3.34-1.04,5.85-3.12,8.47-5.1c6.51-4.92,13.72-7.76,21.79-9.24
		c8.44-1.54,16.68-4.12,25.93-6.49c-6.89-7.23-13.33-13.9-19.66-20.67c-2.45-2.62-5.84-4.61-6.34-8.67
		C1335.07,1015.44,1335.68,1015.26,1336.3,1015.07z"/>
	<path class="st0" d="M972.94,1325.25c2.17-3.5,1.5-7.77,4.86-10.21c9.43,3.85,12.88,8.58,12.9,18.16
		c0.01,6.09,1.88,11.78,3.67,17.46c1.42,4.48,2.25,8.98,2.53,13.66c1.41,23.62,4.74,46.88,13.52,69.07c1.19,3.02,3.08,6,1.59,9.48
		c-1.48,0.35-2.57-0.27-3.63-1.15c-0.75-0.63-1.61-1.13-2.43-1.69c-0.27,0.59-0.88,1.37-0.71,1.64c2.13,3.36,4.02,6.96,6.67,9.87
		c5.53,6.06,9.28,13.39,15.57,19.04c7.44,6.69,12.3,15.57,13.76,25.94c0.4,2.84,1.8,5.54,2.59,7.86c2.78,1.43,3.96-1.32,6.66-1.06
		c-2.93,10.5-5.62,20.91-9.9,31.31c-5.84-2.57-5.58-8.95-9.34-12.83c-7.82,2.37-15.62,5-23.8,6.38c-4.96,0.84-10,1.73-14.83,1.32
		c-12.39-1.03-24.41-0.68-36.73,4.33c2.67-4.79,5.04-9.77,8.09-14.3c2.38-3.54,6.51-4.43,10.59-4.36
		c11.32,0.19,22.46-1.53,33.64-2.86c7.87-0.93,14.28-4.99,20.23-9.83c1.17-0.96,1.67-2.75,2.53-4.26c-2.38-4.73-5.6-8.48-9.13-11.99
		c-7.66-7.61-13.61-16.03-16.02-26.96c-2.23-10.15-8.38-18.8-13.63-27.55c-7.43-12.39-10.19-25.85-11.94-39.74
		c-1.49-11.85-3.23-23.53-6.48-35.15c-3.74-13.37-13.42-19.4-24.79-23.62c-11.85-4.4-24.13-6.89-37.09-6.27
		c-9.9,0.47-19.9-0.56-29.81-1.4c-11.04-0.93-19.33-6.24-24.5-16.37c-2.58-5.05-5.28-9.95-5.9-15.72
		c-1.18-10.89-4.46-21.4-5.91-32.28c-1.34-10.1-0.82-19.65,2.15-29.44c3.89-12.81,9.78-24.65,15.25-36.77
		c7.57-16.75,16.82-32.46,27.05-47.62c13.83-20.51,30.38-38.68,48.85-55.12c2.73-2.43,5.11-5.27,7.9-7.63
		c21.85-18.46,44.22-36.24,68.67-51.21c3.54-2.17,7.15-4.52,12.79-5.89c-5.5,6.97-11.53,10.87-17.46,14.88
		c-11.58,7.84-23.05,15.75-32.94,25.81c-6.15,6.26-11.22,13.19-15.05,20.98c-3.23,6.55-6.29,13.24-8.7,20.13
		c-4.27,12.23-12.11,22.91-14.49,35.38c-23.39,8.1-42.88,21.34-61.12,36.45c-9.95,8.24-16.58,18.83-18.74,31.95
		c-0.59,3.55-2.27,6.94-3.63,10.32c-3.56,8.84-4.07,17.73-2.83,27.27c1.12,8.65,3.22,16.73,6.01,24.96
		c5.35,15.76,16.31,24.3,31.83,28.14c7.38,1.82,14.75,2.21,22.42,2.33c20.95,0.32,40.78,5.34,57.56,18.97
		C971.5,1325.24,971.9,1325.15,972.94,1325.25z"/>
	<path class="st0" d="M1169.6,822.14c-3.38,5.27-6.33,10.1-9.52,14.77c-2.9,4.26-3.79,9.21-5.02,14.01
		c-0.77,2.99,0.15,5.69,2.52,8.14c2.99,3.08,5.54,6.62,8.02,10.15c5.19,7.41,5.92,15.34,2.03,23.56c-1.7,3.59-3.34,7.26-7.07,10.57
		c-11.52-6.61-23.25-13.33-34.87-20c-6.06-30.29-9.8-70.19-8.29-88.1C1128.51,797.67,1159.65,813.63,1169.6,822.14z"/>
	<path class="st0" d="M1252,883.52c-11.39,6.56-22.88,13.18-34.3,19.76c-11.83-13.05-12.55-23.9-2.7-37.66
		c1.16-1.62,2.07-3.58,3.59-4.76c5.11-3.98,4.84-9.06,3.35-14.41c-1.16-4.16-2.75-8.12-5.35-11.71c-2.9-4-5.33-8.34-8.38-13.19
		c16.05-11.13,33.53-18.91,50.98-27.05C1262.93,807.86,1258.84,857.12,1252,883.52z"/>
	<path class="st0" d="M1206.11,729.54c14.51-8.79,29.63-14.5,45.07-19.2c2.24,0.97,2.75,2.75,2.97,4.83
		c2.11,19.42,4.28,38.84,6.4,58.27c0.47,4.29,0.55,8.58-0.22,13.23c-13.48,5.61-26.68,11.64-39.22,18.69
		c-15.22-14.79-16.14-30.77-2.64-47.04C1217.13,748.18,1211.77,739.41,1206.11,729.54z"/>
	<path class="st0" d="M1157.39,805.62c-13.07-7.37-26.29-13.46-40.61-19.28c1.38-25.47,4.19-50.62,8.4-76.4
		c16.84,4.68,32.01,10.92,46.74,19.49c-5.21,9.6-11.1,18.47-12.3,28.95C1172.57,774.2,1172,788.63,1157.39,805.62z"/>
	<path class="st0" d="M1123.66,682.56c-6.26-0.32-12.11-1.41-18.04,0.18c-8.03,2.15-14.36,6.79-20.13,12.43
		c-4.92,4.8-9.73,9.71-14.46,14.45c-2.8-1.59-1.98-3.79-2.11-5.64c-0.33-4.64,0.38-9.58-0.97-13.88c-2.06-6.57,1.14-10,5.63-13.31
		c6.41-4.74,13.31-8.66,20.94-11.87c-1.81-2.48-3.11-4.86-4.96-6.7c-12.29-12.28-16.57-27.73-17.21-44.38
		c-0.28-7.33-0.53-14.61-2.15-21.75c-0.7-3.07-0.88-6.16,0.81-8.67c4.32-6.42,6.81-13.65,9.84-20.65c0.43-0.99,1.1-1.59,2.65-1.55
		c1.82,0.55,1.46,2.5,1.27,3.95c-2.19,16.85,2.2,32.97,5.2,49.27c1.54,8.38,6.41,15.26,9.73,22.84c0.82,1.88,2.39,3.14,4.05,4.31
		c8.08,5.74,15.24,12.82,24.96,16.78C1128,666.8,1127.97,675.03,1123.66,682.56z"/>
	<path class="st0" d="M1295.63,560.01c4.52,8.37,6.97,17.11,11.98,24.59c1.55,2.32,1.11,5.28,0.33,7.78
		c-1.84,5.84-1.61,11.8-1.8,17.78c-0.47,14.43-3.07,28.24-11.37,40.58c-3.31,4.92-8.41,8.4-11.07,14.3
		c7.54,3.06,14.36,7.08,20.85,11.7c4.71,3.36,6.75,7.29,5.89,13.52c-0.89,6.42-2.47,12.76-1.54,19.56
		c-4.93-4.35-9.11-7.97-13.21-11.68c-2.22-2.01-4.23-4.24-6.47-6.22c-9.82-8.68-21.15-12.04-34.4-9.15
		c-5.35-7.25-3.86-15.85-5.7-24.13c5.09-2.65,9.76-5.75,14.51-8.65c16.43-10.04,23.06-25.82,26.29-43.63
		c1.65-9.1,2.91-18.29,4.06-27.48c0.49-3.92,0.6-7.92-0.7-11.86c-0.48-1.46-0.1-3.25,0.12-4.86
		C1293.45,561.68,1294.28,561.28,1295.63,560.01z"/>
	<path class="st0" d="M1049.64,842.42c0.5,1.18,1.02,1.78,0.93,2.27c-3.15,16.93-0.12,33.67,1.44,50.47
		c0.52,5.62,0.89,11.31,0.67,16.94c-0.36,9.15,1.71,17.82,4.31,26.42c5.77,19.06,5.41,37.74-1.25,56.71
		c-3.66,10.41-8.94,19.18-17,26.46c-0.9,0.81-1.7,2.18-3.64,1c1.01-2.6,4.71-3.3,4.95-6.41c-1.12-0.59-2.24-1.18-3.28-1.72
		c0.05-0.56-0.04-0.95,0.11-1.17c9.62-14.46,10.76-30.25,7.35-46.74c-1-4.86-1.76-9.72-4.26-14.22c-2.77-4.99-3.07-10.83-4.35-16.31
		c-2.96-12.62-5.29-25.25-5.7-38.36c-0.29-9.26-1-18.55-1.01-27.84c0-1.96,0.24-3.92,0.36-5.68c4.22-3.68,10.76-2.91,13.43-8.45
		C1044.82,851.38,1047.19,847.11,1049.64,842.42z"/>
	<path class="st0" d="M1336.3,1015.07c-0.61,0.18-1.22,0.36-1.84,0.54c-3.69-1.97-5.94-5.29-7.54-8.9
		c-9.24-20.85-14.16-42.23-6.73-64.79c4.61-14.02,5.42-28.51,6.05-43.09c0.33-7.61,1.45-15.19,1.89-22.8
		c0.7-11.91,1.85-23.86-2.25-36.84c3.89,3.11,4.58,6.27,5.62,9.09c2.55,6.91,6.34,12.31,14.1,13.88c0.9,0.18,1.66,1.05,2.69,1.75
		c1.13,6.16,0.38,12.48,0.52,18.77c0.51,22.12-3.53,43.64-8.93,64.94c-1.62,6.38-4.84,12.15-6.03,18.87
		c-3.01,17-2.66,33.09,8.05,47.44C1340.13,1016.26,1338.1,1014.97,1336.3,1015.07z"/>
	<path class="st0" d="M1131.34,1065.34c1.83-26.94,3.62-52.7,3.73-78.66c6.83,1.87,26.46,14.35,36.6,23.22
		c-2.59,5.78-5.11,11.84-8.02,17.71c-1.91,3.86-1.59,6.94,1.6,9.83c1.46,1.33,2.94,2.73,4.05,4.35c4.13,6.02,6.04,12.32,3.35,19.7
		c-2.91,7.97-7.28,14.85-13.32,21.07C1149.31,1077.81,1141.03,1070.48,1131.34,1065.34z"/>
	<path class="st0" d="M1216.1,1032.37c-2.35-7.63-6.4-14.52-9.58-21.68c4.51-5.49,24.5-19.25,35.62-24.41
		c1.9,26.49,1.98,52.76,4.65,78.76c-9.4,6.06-18.29,11.8-27.46,17.72c-6.22-5.37-10.25-11.99-13.23-19.51
		c-3.44-8.68-1.72-16.13,3.96-23.17C1211.91,1037.77,1214.94,1036.49,1216.1,1032.37z"/>
	<path class="st0" d="M1277.57,240.34c-0.13,4.76-3.28,7.59-7,9.89c-2.82,1.75-5.74,3.39-8.77,4.74
		c-10.18,4.52-15.81,12.73-19.03,22.97c-0.06,0.19,0.32,0.52,0.94,1.47c8.18-5.31,17.36-6.8,28.06-5.74
		c-2.36,4.26-0.77,8.11,0.2,11.79c-1.06,0.54-1.71,1.19-2.16,1.07c-7.6-2.03-13.64,0.57-18.8,6.06c-1.82,1.94-3.77,3.76-5.63,5.67
		c-3.35,3.45-5.37,7.16-4.67,12.41c0.65,4.9,0.24,9.97,0.12,14.96c-0.09,3.64,0.17,7.55-1.67,10.74c-3.2,5.54-3.11,11.44-2.92,17.42
		c0.38,11.67-0.64,23.16-3.19,34.59c-3.61,16.2-3.41,32.95-6.71,49.24c-1.71,8.45-2.35,17.25-1.24,25.74
		c1.25,9.62,0.59,19.23,1.39,28.82c0.19,2.29,0.03,4.6-0.44,6.93c-2.31-5.06-2.21-10.64-2.8-15.83c-1.49-13.18-3.8-26.2-6.09-39.23
		c-0.5-2.83,0.48-5.29,1.22-7.79c8.65-29.25,10.27-59.42,10.93-89.59c0.16-7.39-0.35-14.46,2.96-21.3c0.68-1.41,0.58-3.26,0.59-4.91
		c0.04-15.61,1.08-31.34-2.54-46.66c-1.83-7.74,1.21-13.32,6.42-17.46c5.89-4.68,11.09-10.68,18.77-12.82
		c2.05-0.57,3.82-1.7,4.55-3.59c2.16-5.62,6.4-4.98,10.73-3.73C1273.26,236.91,1275.88,237.74,1277.57,240.34z"/>
	<path class="st0" d="M1106.77,285.78c1.24-6.44,1.24-6.44-0.3-11.82c10.17-1.9,19.43,0.29,29.65,6.37
		c-3.67-11.86-9.07-19.94-18.7-24.89c-3.25-1.67-6.58-3.21-9.68-5.12c-3.69-2.26-7.3-4.78-7.11-9.85c6.52-4.96,6.52-4.96,15.12-4.35
		c1.8,4.5,5.99,6.68,10.39,9.23c7.64,4.43,15.51,8.96,20.25,17.09c1.79,3.06,2.6,6.02,1.8,9.47c-3.54,15.35-3.51,30.97-3.33,46.59
		c0.03,2.67-0.06,5.34,1.28,7.79c3,5.52,2.71,11.5,2.7,17.51c-0.02,30.63,2.32,61,10.48,90.68c1.27,4.63,1.27,8.9,0.4,13.67
		c-2.09,11.39-3.52,22.92-4.78,34.45c-0.68,6.25-1.65,12.38-3.14,18.78c-1.39-2.19-1.08-4.26-0.82-6.16
		c2.29-16.84,1.79-33.76,1.53-50.66c-0.07-4.28-0.65-8.65-1.71-12.8c-2.75-10.71-1.6-21.86-3.92-32.58
		c-3.6-16.64-5.63-33.38-4.72-50.43c0.12-2.27,0.08-4.87-0.88-6.83c-5.69-11.64-4.92-23.83-3.61-36.11
		c0.03-0.31-0.12-0.64-0.33-1.62c-1.49-1.85-3.22-4.28-5.24-6.47C1121.92,286.72,1120.62,286.14,1106.77,285.78z"/>
	<path class="st0" d="M1189.54,1057.92c1.51-11.95,0-26.28,1.05-40.9c3.5-1.93,6.9-3.81,10.48-5.78c5.48,6.4,7,14.08,10.47,20.47
		c-0.84,2.72-2.85,4.05-4.42,5.72c-6.2,6.61-7.94,14.44-5.97,23.08c1.34,5.87,3.76,11.35,7.4,16.23c1.97,2.65,3.95,5.29,6.14,8.22
		c-3.08,4.33-7.82,6.15-12,8.65c-4.27,2.56-8.7,4.83-13.1,7.25c-9.47-3.84-17.96-8.86-26.13-15.06c0.74-3.36,3.21-5.26,4.93-7.5
		c3.51-4.55,6.09-9.54,7.72-14.98c3.1-10.31,1.6-19.61-6.53-27.31c-0.95-0.9-1.72-2-2.54-3.04c-0.19-0.25-0.25-0.61-0.56-1.44
		c2.88-6.23,5.91-12.81,9.01-19.52c4.35,0.06,7.13,2.58,10.48,4.14C1191.28,1030.53,1186.28,1045.69,1189.54,1057.92z"/>
	<path class="st0" d="M1126.77,893.55c9.74,3.5,32.88,17.04,42.65,24.73c-2.34,4.53-4.78,9.14-7.09,13.81
		c-1.16,2.36-2.5,4.77-2.99,7.3c-0.69,3.58-0.9,7.37,2.91,9.78c0.55,0.35,1.08,0.8,1.5,1.29c7.37,8.59,8.55,18.55,3,28.6
		c-2.22,4.02-5.15,7.65-8.08,11.93c-8.39-3.87-14.84-10.26-23.52-13.62C1135.12,949.43,1129.13,922.21,1126.77,893.55z"/>
	<path class="st0" d="M1219.65,991.19c-2.85-4.02-5.84-7.59-8.09-11.57c-5.71-10.1-4.87-21.15,3.23-29.37
		c5.3-5.38,4.76-10.46,2.05-16.16c-2.53-5.33-5.46-10.48-8.16-15.61c8.73-7.29,32.59-21.36,41.98-24.62
		c0.2,14.18-2.53,27.75-4.32,41.32c-1.82,13.78-2.69,27.62-3.96,41.84C1235.03,981.6,1227.51,986.29,1219.65,991.19z"/>
	<path class="st0" d="M1178.04,657.12c-3.11,6.53-6.03,13.19-9.43,19.6c-2.98,5.63-3.35,10.46,1.56,15.33
		c5.7,5.65,4.44,12.05,0.82,18.24c-1.48,2.54-3.48,4.78-5.79,7.89c-12.92-4.96-25.49-10.62-38.77-14.71
		c-0.08-7.83,2.25-14.47,3.55-21.22c1.31-6.82,3.22-13.55,5.35-20.16c2.12-6.6-0.21-14.06,4.03-20.17
		C1149.67,643.82,1169.52,651.61,1178.04,657.12z"/>
	<path class="st0" d="M1213.23,718.11c-3.27-3.08-5.25-6.12-6.92-9.34c-3.02-5.82-3.32-11.77,1.48-16.65
		c4.77-4.85,5.02-9.42,1.79-15.2c-3.53-6.33-6.33-13.08-9.79-20.35c12.66-6.3,25.38-11.44,39.13-15.32
		c3.87,10.13,2.4,20.79,6.25,30.37c3.86,9.6,4.42,20.04,6.96,30.46c-5.38,4.68-12.71,4.93-18.89,7.79
		C1226.93,712.8,1220.37,715.2,1213.23,718.11z"/>
	<path class="st0" d="M1066.07,753.79c-2.11-1.38-2.69-3.21-3.39-5.06c-6.37-16.81-18.3-28.11-34.73-34.93
		c-7.04-2.92-13.9-6.3-21.28-8.36c-2.23-0.62-4.45-1.4-6.55-2.37c-11.59-5.38-14.23-10.17-11.57-22.49
		c1.17-5.44,1.58-11.19,4.88-16.86c8.96,12.11,21.47,18.45,35.04,22.85c4.43,1.44,8.78,3.03,12.98,4.93
		c3.9,1.77,7.76,3.85,11.22,6.36c7.13,5.17,12.55,10.98,11.83,21.2C1063.7,730.5,1066.77,741.98,1066.07,753.79z"/>
	<path class="st0" d="M1312.02,751.3c0.45-9.92,0.88-19.84,1.37-29.76c0.07-1.31,0.9-2.68,0.68-3.89
		c-1.7-9.12,4.19-14.19,10.2-18.99c6.84-5.46,14.77-9.01,23.15-11.32c6.81-1.88,13.08-4.87,19.25-8.14
		c6.76-3.58,12.7-8.24,17.78-15.6c3.8,9.32,6.03,17.78,6.24,26.71c0.08,3.28-2.19,5.49-4.51,7.4c-4.41,3.64-9.45,6.09-14.94,7.79
		c-9.87,3.05-19.16,7.45-28.41,12.03c-10.93,5.4-18.6,13.74-24.19,24.28c-1.68,3.17-3.19,6.42-4.78,9.64
		C1313.25,751.4,1312.63,751.35,1312.02,751.3z"/>
	<path class="st0" d="M1283.37,355.8c-2.71-2.99-4.75-5.59-5.69-9.31c0.59-0.49,1.25-1.28,2.1-1.7c6.82-3.41,9.06-9.44,9.01-16.45
		c-0.07-9.74-2.09-19.11-6.8-27.76c-1.27-2.34-2.88-4.52-3.87-6.97c-2.05-5.06-3.16-10.19,1.28-15.01
		c5.38,2.15,8.01,6.9,10.55,11.49c3.37,6.1,6.36,12.42,9.3,18.75c1.32,2.85,2.8,5.27,6.32,6.06c5.36-2.04,8.86-6.45,12.51-11.76
		c4.41,4.14,6.44,9.15,8.81,13.84c-3.8,7.42-10.29,9.82-16.93,11.6c-0.91,3.06,1.06,4.74,2.54,6.33
		c5.69,6.09,11.58,12.1,19.35,15.48c5.47,2.37,9.73,6.22,13.39,10.5c5.3,6.22,9.82,13.12,15.04,20.24
		c-1.57-0.11-2.48,0.08-2.69-0.22c-5.07-7.09-12.32-10.77-20.29-13.61c-11.11-3.95-21.01-9.79-28.74-19.02
		c-2.51-2.99-5.08-6.19-8.84-7.88C1294.24,345.43,1294.95,356.71,1283.37,355.8z"/>
	<path class="st0" d="M1069.23,329.73c-12.7-5.32-12.89-5.46-17.78-12.48c1.17-4.98,4.8-8.97,7.6-14.61
		c4.3,4.61,7.41,9.78,13.07,12.15c3.28-0.18,5.02-2.25,6.4-5.21c3.08-6.62,6.19-13.25,9.76-19.62c2.54-4.54,4.96-9.51,10.69-11.35
		c4.78,5.97,2.85,11.88-0.44,17.27c-4.24,6.95-6.41,14.46-8.3,22.26c-2.85,11.75-1.66,21.76,10.28,28.14
		c-1.15,3.91-3.28,6.73-5.53,9.17c-5.48,1.38-8.58-1.16-10.84-5.35c-1.71-3.17-3.46-6.33-5.7-10.42c-3.31,3.11-6.42,5.48-8.83,8.42
		c-7.85,9.61-18.17,15.31-29.55,19.53c-6.86,2.55-13.76,5.12-17.94,11.74c-2.41-1.71-0.81-3.05-0.02-4.19
		c4.87-7.04,9.96-13.89,16.22-19.84c2.26-2.15,4.96-3.22,7.55-4.63C1055.03,345.71,1062.84,339.23,1069.23,329.73z"/>
	<path class="st0" d="M1195.51,658.09c5.01,9.34,9.48,17.46,12.32,26.28c-10.06,16.06-10.09,18.67,0,36.02
		c-4.75,4.3-10.82,6.57-16.68,10.58c-2.19-7.84,0.35-15.2-2.34-23.78c-3.73,8.11-0.47,15.23-2.67,21.7
		c-3.49,1.04-5.28-2.16-7.88-3.29c-2.73-1.18-5.4-2.6-7.89-5.33c3.25-5.48,6.58-11.2,7.61-17.79c1.1-7.09-3.94-11.65-7.73-17.49
		c2.46-9.28,7.24-17.83,12.67-26.86C1187,661.26,1191.04,660.94,1195.51,658.09z"/>
	<path class="st0" d="M1169.62,645.47c-10.05-3.78-19.7-7.41-29.43-11.07c-2.39-9.91-1.67-43.33,1.21-54.07
		c6.38,1.66,26.45,12.6,33.1,18.19c-1.56,3.39-3.15,6.96-4.85,10.49c-1.57,3.26-1.95,6.35,0.78,9.22c0.45,0.48,0.77,1.09,1.12,1.65
		C1179.02,632,1177.98,634.78,1169.62,645.47z"/>
	<path class="st0" d="M1208.61,645.35c-0.84-0.62-1.15-0.78-1.37-1.02c-7.59-8.25-6.66-16.63-0.39-25.11
		c1.17-1.59,2.22-3.26,3.17-4.65c-0.98-6.07-4.63-10.66-6.56-16.39c9.53-7.98,21.59-11.5,31.46-18.63
		c4.08,2.68,3.73,6.68,3.79,10.06c0.24,14.63,0.1,29.27,0.1,44.43C1228.47,637.9,1218.36,641.69,1208.61,645.35z"/>
	<path class="st0" d="M1192.1,920.3c-1.55-9.6-1.99-64.56-0.9-86.21c3.53-3.65,7.63-6.86,12.62-9.36
		c7.64,7.29,11.75,16.19,14.32,25.96c0.66,2.5,0.01,4.54-1.6,6.45c-2.34,2.79-4.86,5.48-6.86,8.51c-7.06,10.7-7.48,21.67-1.07,32.91
		c1.44,2.53,3.9,4.6,4.1,8.42C1206.29,911.14,1199.65,915.42,1192.1,920.3z"/>
	<path class="st0" d="M1213.41,82.13c8.85-3.84,14.48-12.28,24.3-15.84c1.88-8.62,4.36-17.8,5.57-27.44
		c1.15-9.16-0.18-18.41,1.74-29.08c7.55,11.55,11.78,22.69,13.53,34.45c-1.3,2.09-3.44-1.29-3.93,1.21
		c-0.76,3.89-1.51,7.84-1.64,11.79c-0.37,11.12-5.09,20.51-11.01,29.51c-2.82,4.3-6.08,8.37-7.04,13.61
		c14.54-12.95,22.09-29.16,22.18-48.6c2.81-0.31,2.9,1.35,3.05,3.01c1.68,18.05-5.64,33.1-15.96,47.04
		c-3.43,4.64-10.69,5.29-13.85,0.51C1225.54,95.03,1218.1,90.16,1213.41,82.13z"/>
	<path class="st0" d="M1120.53,43.52c0.26-12.28,5.6-22.58,13.25-32.25c0.35,9.47,0.59,18.94,1.09,28.4
		c0.49,9.35,3.23,18.24,5.82,27.05c9.58,2.5,14.41,11.68,24.37,15c-3.02,3.75-5.12,6.98-7.83,9.55c-2.92,2.76-5.49,5.68-7.84,8.94
		c-5,6.98-11.74,6.78-16.78-0.31c-2.12-2.98-4.22-6-6.08-9.15c-8.7-14.72-10.47-30.43-6.45-46.92c0.06-0.25,0.51-0.41,0.77-0.61
		c-1.51,22.54,5.25,41.83,22.37,57c-1.25-5.44-4.7-9.77-7.7-14.31c-6.32-9.58-10.41-19.9-10.91-31.48
		c-0.11-2.64-0.34-5.29-0.59-7.92C1123.82,44.45,1122.02,44.13,1120.53,43.52z"/>
	<path class="st0" d="M1165.11,906.92c0.18-3.33,2.25-4.81,3.4-6.76c8.15-13.83,8.35-24.96-3.09-38.37
		c-7.6-8.9-5.77-9.29-3.03-18.48c2.1-7.06,6.19-13.03,11.63-18.26c4.64,1.23,7.56,4.41,10.7,7.29c2.88,2.64,2.1,6.11,2.11,9.34
		c0.05,21.24,0.08,42.48-0.01,63.72c-0.02,4.52,0.71,9.14-0.98,14.69C1178.45,915.4,1171.63,911.06,1165.11,906.92z"/>
	<path class="st0" d="M1216.1,808.23c-8.12,5.51-15.72,10.66-23.15,15.7c-2.93-1.21-2.03-3.49-2.04-5.25
		c-0.07-19.25-0.16-38.5,0.01-57.75c0.06-7.28-1.47-14.53-0.32-22.53c3.19-2.12,6.7-4.46,10.14-6.75
		c7.05,7.47,8.56,10.3,13.34,24.89C1197.67,773.87,1202.73,791.12,1216.1,808.23z"/>
	<path class="st0" d="M1203.3,921.45c6.88,5.84,8.3,14.54,11.67,21.94c-16.83,18.99-12.61,32.32,1.35,50.69
		c-7.49,5.84-15.64,10.62-23.88,15.69c-2.47-1.92-1.52-4.39-1.53-6.45c-0.07-21.9-0.06-43.79-0.04-65.69
		C1190.89,927.08,1191.91,925.77,1203.3,921.45z"/>
	<path class="st0" d="M884.85,753.96c-12.54-1.26-16.97,1.2-21.22,11.85c-2.58,6.47-4.88,13-4.82,20.18
		c0.05,6.44-1.69,11.67-7.13,16.51c-6.06,5.4-11.05,12.53-14.92,19.75c-4.86,9.1-12.12,15.6-19.26,22.62
		c-2.36-2.64,0.16-3.89,1.11-5.06c14.69-18.15,22.85-39.5,30.28-61.23c2.47-7.22,5.38-14.29,7.71-21.56
		c2.22-6.93,7.9-9.77,13.9-11.32c9.4-2.42,19-1.66,28.37,0.96c0.91,0.25,1.67,1.02,2.78,1.72c-6.09,12.73-6.65,26.04-3.59,39.36
		c-3.16,1.98-4.15-0.45-5.04-1.84c-4.38-6.87-6.27-14.55-6.8-22.62C886.04,760.36,886.9,757.3,884.85,753.96z"/>
	<path class="st0" d="M1492.72,754.32c-1.83,22.16-3.73,27.86-11.55,34.26c-2.23-6.97,2.29-13.51,0.56-20.37
		c-1.61-6.39-1.61-13.18-5.06-18.77c0.73-2.73,2.74-3.14,4.66-3.46c8.15-1.36,16.32-2.76,24.56-0.67
		c6.92,1.76,13.12,4.4,15.66,11.99c2.42,7.23,5,14.41,7.57,21.58c7.86,21.9,15.91,43.71,31.12,61.91c0.75,0.9,2.18,1.76,0.68,3.83
		c-6.57-5.45-13.04-10.91-17.27-18.45c-5.55-9.9-12.05-19.04-20.48-26.7c-2.14-1.94-2.51-4.39-3.15-7.03
		c-1.64-6.77-0.56-13.96-3.36-20.53c-0.91-2.13-1.46-4.41-2.34-6.55C1510.12,755.1,1505,752.4,1492.72,754.32z"/>
	<path class="st0" d="M1121.24,1231.68c-1.58-4.65-0.85-8.25-0.56-11.88c0.71-8.66,4.94-13.96,13.63-16.09
		c8.61-2.11,8.76-2.44,8.48-11.58c-0.25-8.26-0.09-16.58-1.99-24.97c4.21-4.4,10.18-4.57,15.28-6.62
		c5.13-2.06,10.39-3.78,15.75-5.71c1.35,4.57-0.69,8.15-2.09,11.77c-5.75,14.9-12.59,29.29-20.8,43.01
		c-0.17,0.29-0.45,0.53-0.54,0.84c-3.23,11.73-12.82,16.05-22.95,19.75C1124.27,1230.65,1123.05,1231.05,1121.24,1231.68z"/>
	<path class="st0" d="M1257.14,1231.67c-7.67-1.98-13.96-5.64-20.36-9.04c-1.56-0.83-2.17-2.36-2.95-3.86
		c-5.98-11.51-12.38-22.82-18-34.5c-4.16-8.64-8.41-17.34-10.12-26.94c-0.1-0.57,0.12-1.21,0.28-2.52
		c10.27,3.64,20.38,7.23,30.78,10.92c-0.94,7.22,0.09,13.86-1.51,20.41c-0.46,1.9-0.38,3.96-0.4,5.95
		c-0.08,8.93,0.08,9.44,8.72,11.66c8.02,2.06,12.76,6.39,13.5,15.03C1257.43,1222.7,1258.86,1226.53,1257.14,1231.67z"/>
	<path class="st0" d="M1186.42,824.81c-8.77-5.92-16.16-10.91-23.42-15.81c-0.39-3.35,2.04-5,3.45-7.12
		c2.78-4.18,5.12-8.48,6.48-13.4c2.75-10.01,1.69-19.26-5.35-27.09c-3.14-3.49-3.69-6.53-1.84-10.76
		c2.92-6.66,5.5-13.44,10.83-18.86c3.79,1.45,6.69,3.58,9.85,6.23C1186.42,766.3,1186.42,794.85,1186.42,824.81z"/>
	<path class="st0" d="M1174.71,921.29c4.85,0.74,7.87,3.92,11.67,6.66c0,26.79,0,53.69,0,80.65c-6.75-1.84-16.72-8.07-23.91-14.87
		c15.61-24.79,15.74-31.59,0.68-49.96C1165.94,935.94,1168.17,927.63,1174.71,921.29z"/>
	<path class="st0" d="M1116.62,1234.2c-6.59,2.18-12.47,4.13-19.13,6.33c0-6.25,0-11.73,0-16.94c3.42-3.64,6.91-7.15,10.17-10.86
		c4.23-4.82,6.24-10.17,3.05-16.42c-2.38-4.67-1.74-8.55,1.89-12.64c4.82-5.43,8.4-11.92,14.13-17.19c2.93,0.35,6.13,0.74,9.19,1.11
		c2.74,6.45,3.57,19.82,1.97,30.33c-1.47,2.13-4.08,2.22-6.19,2.64c-9.34,1.86-12.75,8.7-14.73,16.81
		C1115.72,1222.56,1116.46,1227.9,1116.62,1234.2z"/>
	<path class="st0" d="M1270.21,1270.64c17.84,8.63,25.47,23.26,21.77,38.51c-6.82-1.08-12.64-4.81-18.87-7.36
		c-1.02-0.42-1.71-2.01-2.22-3.21c-9.18-21.68-19.55-42.81-29.76-64.01c-0.13-0.27-0.02-0.66-0.02-1.96
		c5.01,0.35,8.79,3.81,13.24,5.14c4.4,1.32,8.65,3.15,13.33,4.9C1268.16,1251.99,1270.78,1260.93,1270.21,1270.64z"/>
	<path class="st0" d="M1280.43,1240.67c-7.2-2.5-13.06-4.53-19.25-6.68c0.51-6,1.06-11.47-0.27-16.98
		c-2.02-8.35-5.76-14.69-14.88-16.58c-2.18-0.45-4.69-0.64-6.7-3.56c-1.78-9.14,1.44-18.77,1.35-28.83
		c3.73-0.63,6.92-1.18,10.14-1.72c6.63,5.29,10.47,12.82,15.92,19c2.52,2.85,2.64,6.18,1.19,9.31c-4,8.67-1.03,15.3,5.44,21.24
		c2.42,2.22,4.51,4.79,7.06,7.54C1280.43,1228.4,1280.43,1233.96,1280.43,1240.67z"/>
	<path class="st0" d="M1137.14,1232.17c-2.18,8.89-6.89,15.7-10.28,23.05c-3.61,7.83-7.27,15.64-10.84,23.48
		c-3.44,7.55-6.79,15.14-10.31,23.02c-6.2,2.59-12.55,5.24-18.88,7.88c-6.61-14.96,6.46-33.34,20.81-38.86
		c1.57-4.51,0.18-9.23,0.85-13.85c0.67-4.59,2.34-8.99,1.79-13.94C1119.13,1239.4,1127.61,1235.99,1137.14,1232.17z"/>
	<path class="st0" d="M1074.56,556.08c-3,8.34-5.45,15.14-8.17,22.71c-11.95-0.96-21.55,6.41-32.4,10.01
		c-11.69,3.88-16.06,15.3-24.53,22.6c-1.26-2.44-0.27-4.23,0.34-6.1c2.16-6.62,4.15-13.29,6.39-19.88
		c3.74-11,10.49-18.83,22.13-22.34c8.27-2.5,16.26-5.62,25.13-5.32C1066.63,557.86,1069.84,556.83,1074.56,556.08z"/>
	<path class="st0" d="M1368.62,612.04c-3.15-3.79-6.54-7.4-9.38-11.4c-3.79-5.34-8.59-9.08-14.65-11.53
		c-5.84-2.36-11.66-4.88-17.22-7.83c-4.96-2.63-10.46-1.33-16.1-2.76c-1.12-7.45-5.97-13.72-6.74-21.85
		c12.58,1.12,24.52,2.15,36.17,6.6c10.19,3.9,16.88,10.48,20.51,20.28c3.32,8.98,5.91,18.24,8.82,27.37
		C1369.57,611.3,1369.1,611.67,1368.62,612.04z"/>
	<path class="st0" d="M1162.33,1122.23c-17.03,6.47-18.47,19.04-14.1,33.84c-5.87,3.62-11.68,5.52-18.3,5.57
		c-3.89-3.31-3.84-8.27-5.7-12.73c3.95-5.17,11.28-7.06,13.11-14.34c1.65-6.56,0.73-12.43-2.5-18.31
		c4.9-9.21,11.98-16.73,18.07-24.94c2.08-2.81,5.75-2,6.96,1.25c0.11,0.31,0.2,0.64,0.22,0.97
		C1160.84,1103.05,1161.58,1112.56,1162.33,1122.23z"/>
	<path class="st0" d="M1253.59,1148.3c-0.73,4.44-2.12,8.74-4.53,12.9c-6.79,1.3-12.31-1.86-17.75-3.93
		c-1.62-3.12-0.54-5.74-0.09-8.28c2.11-11.83-0.56-18.19-10.53-24.39c-1.12-0.7-2.35-1.23-4.25-2.22
		c-0.19-9.56-0.27-19.45,1.81-29.25c0.37-1.76,1.32-3.11,3.11-3.49c1.85-0.4,3.04,0.68,4.11,2.12c5.75,7.72,12.24,14.9,17.05,23.17
		C1239.41,1131.13,1235.64,1135.49,1253.59,1148.3z"/>
	<path class="st0" d="M1081.06,1312.23c-4.08,3.31-7.72,6.06-13.25,4.83c-1.76-6.61-3.46-13.27-3.32-20.31
		c2.09-2.24,4.08-4.42,6.13-6.55c6.55-6.82,9.9-15.12,9.41-24.39c-0.35-6.67,2-11.5,6.52-15.86c2.14-2.06,4.01-4.39,6.05-6.65
		c2.36-1.13,2.65,2.57,4.9,2.15c1.88-0.35,3.59-1.86,6.18-0.93c0,7.13,0,14.32,0,22.19
		C1087.62,1277.19,1078.35,1291.88,1081.06,1312.23z"/>
	<path class="st0" d="M1274.5,1266.95c0-7.94,0-14.88,0-21.54c2.19-2.19,3.95-0.47,5.67-0.01c2.06,0.55,2.56-1.95,5.41-1.82
		c2.89,3.26,6.32,7.18,9.8,11.05c1.85,2.06,3.06,4.32,2.78,7.19c-1.39,14.51,4.62,25.77,15.75,34.73
		c-0.9,7.06-1.72,13.87-3.92,20.42c-5.39,1.47-8.95-1.58-13.27-4.86C1299.55,1292.55,1291.23,1277.72,1274.5,1266.95z"/>
	<path class="st0" d="M1155.24,272.36c7.88,5.28,16.13,10.58,25.53,14.08c-0.83,6.89-5.2,12.05-5.75,18.16
		c0.24,0.81,0.26,1.56,0.63,2.05c6.85,8.95,6.86,8.94-2.97,18.66c-7.3-1.06-13.21-5.2-18.82-9.88c-2.4-2-3.85-4.38-3.54-7.75
		c0.95-10.54,1.75-21.09,2.62-31.64C1153.03,274.69,1153.39,273.45,1155.24,272.36z"/>
	<path class="st0" d="M1197.21,314.98c0.41-4.77,6.59-6.61,5.39-11.53c-1.01-4.14-2.79-8.1-4.25-12.13
		c-0.45-1.23-0.96-2.44-1.61-4.1c3.67-4.17,9.62-3.88,13.84-6.87c4.02-2.85,8.26-5.39,13.15-8.54c1.96,7.56,2.9,14.54,3.13,21.66
		c0.15,4.6-0.56,9.25,0.98,13.79c0.96,2.86-0.54,5.07-2.54,7.05c-5.53,5.45-11.95,9.27-19.64,11.17
		C1201.54,322.77,1199.13,318.91,1197.21,314.98z"/>
	<path class="st0" d="M1329.91,1394.58c-4.56-4.33-8.57-8.13-12.85-12.19c1.76-5.58,1.87-11.17,1.81-16.78
		c-0.05-5.44-1.96-9.85-7.04-12.12c-5.34-2.39-7.08-6.51-6.99-11.96c0.1-5.62,0.02-11.24,0.02-16.15c1.94-2.72,4.16-1.75,5.98-2.03
		c2.15-0.34,3.19-2.08,5.36-3.3c5.23,4.53,8.47,10.64,11.56,16.79c1.21,2.4,1.56,5.21,0.48,7.76c-3.48,8.15-1.41,15.85,2.61,22.85
		C1336.19,1376.72,1333.19,1385.12,1329.91,1394.58z"/>
	<path class="st0" d="M967,739.67c-3.33,3.36-5.69,6.03-8.34,8.38c-7.97,7.06-11.56,16.3-12.22,26.47
		c-0.62,9.61,0.05,19.29,0.03,28.94c-0.02,6.35,2.62,12.18,4.2,19.55c-6.72-3.7-11.18-7.82-13.04-13.93
		c-3.1-10.16-5.82-20.43-8.44-30.73c-1.43-5.65-0.97-11.21,2.5-16.22c2.84-4.1,3.64-9.35,8.66-13.88c3.08-1.46,8.3-1.22,12.76-3.66
		C957.06,742.42,961.08,740.12,967,739.67z"/>
	<path class="st0" d="M1169.23,586.89c-8.91-4.53-17.41-8.85-26.22-13.34c1.09-6.94,3.81-12.96,6-19.12
		c2.11-5.92,4.27-11.82,6.66-18.42c7.05,3.33,14.07,6.51,20.66,11.15c-1.16,2.55-2.46,4.88-3.28,7.36
		c-1.16,3.53-1.19,7.02,0.32,10.65C1178.11,576.6,1178.01,576.64,1169.23,586.89z"/>
	<path class="st0" d="M1203.2,647.12c-4.86,3.75-9.39,6.28-14.21,8.33c-4.96-2.14-9.51-4.69-13.91-8.17
		c1.41-2.62,2.84-4.8,3.81-7.18c2.55-6.23,2.54-12.82-1.56-17.99c-5.88-7.41-4.4-13.76,0.95-20.76c4.64,1.36,7.93,3.85,8.6,9.23
		c0.53,4.2,1.46,8.34,2.96,12.52c0.43-5.01,0.85-10.01,1.33-15.62c2.04-2.35,4.49-4.91,7.63-6.46c3.25,1.27,3.19,4.33,4.46,6.52
		c2.22,3.83,2.14,7.22-0.69,11c-3.66,4.88-5.11,10.56-4.53,16.86C1198.43,639.62,1200.69,642.81,1203.2,647.12z"/>
	<path class="st0" d="M1222.09,535.3c4.4,13.37,10.27,25.25,12.82,38.31c-8.93,4.56-17.17,8.77-25.34,12.94
		c-3.09-0.62-4.12-3.36-5.71-5.38c-2.95-3.73-3.5-8.43-1.03-12.09c5.18-7.65,3.13-14.44-1.26-21.58
		C1207.42,542.29,1214.97,540.41,1222.09,535.3z"/>
	<path class="st0" d="M1076.74,1321.07c8.25-5.09,16.22-8.24,23.98-11.41c2.6,2.03,0.82,3.84,0.27,5.55
		c-4.16,12.91-9.1,25.57-12.18,38.83c-1.09,4.7-4.43,8.05-7.57,11.42c-4.52,4.85-10.06,8.4-15.44,12.25
		c-5.54-10.15-4.4-16.35,4.51-21.82c4.57-2.81,6.29-6.65,6.39-11.51C1076.86,1336.78,1076.74,1329.16,1076.74,1321.07z"/>
	<path class="st0" d="M1225.43,1154.73c-8.34-1.36-14.52-5.4-21.03-8.64c-1.87-0.93-3.06-2.49-3.7-4.49
		c-3.75-11.77-5.19-23.88-5.92-36.43c5.52-3.69,11.1-6.31,17.3-8.54c2.15,9.38-0.75,18.35,0.43,27.87
		c5.7,3.65,12.92,6.48,15.14,14.22C1229.19,1144.09,1227.44,1149.14,1225.43,1154.73z"/>
	<path class="st0" d="M1060.17,1383.16c-3.45,3.22-7.48,6.98-12.14,11.34c-3.67-9.98-5.57-18.78-0.28-28.14
		c3.85-6.81,5.17-14.39,1.96-22c-1.52-3.61-0.02-6.72,1.52-9.47c2.88-5.18,6.42-9.99,10.16-15.67c3.17,3.98,6.94,4.67,11.43,4.21
		c0,7.57,0.02,14.2-0.01,20.83c-0.02,3.59-1.25,6.66-4.71,8.13c-8.7,3.7-9.62,10.93-9.28,19.06
		C1058.96,1375.11,1061.15,1378.43,1060.17,1383.16z"/>
	<path class="st0" d="M1428.25,822.35c1.26-7.03,2.48-12.75,3.28-18.53c1.36-9.92,1.18-19.97,0.3-29.86
		c-1.22-13.62-8.47-24.18-19.33-32.32c-1.33-0.99-2.68-1.95-5.26-3.83c6.58,1.06,11.19,3.49,15.72,5.82
		c4.82,2.47,9.97,3.58,15.35,4.69c4.92,5.91,7.57,13.1,10.72,19.99c1.93,4.21,0.01,8.56-0.89,12.6c-2.01,9.05-4.91,17.9-7.26,26.88
		C1439.18,814.28,1434.9,818.34,1428.25,822.35z"/>
	<path class="st0" d="M1076.88,1442.48c-3.82,2.95-7.17,5.54-11.37,8.79c-1.27-7.35-3.21-13.53-5.46-19.6
		c-1.79-4.82-1.63-9.34,2.4-12.74c4.31-3.63,4.29-7.78,2.89-12.57c-1.48-5.06-2.72-10.2-4.1-15.41c5.5-8.24,15.34-11.45,21.38-19.36
		C1080.39,1395.26,1076.25,1418.26,1076.88,1442.48z"/>
	<path class="st0" d="M1165.68,1096.7c5.95,1.21,10.77,4.88,16.7,7.61c1.19,10.15-1.09,20.08-2.95,30.15
		c-1.42,7.67-5.2,12.46-12.44,15.15c-4.59,1.71-8.75,4.6-13.83,4.86c-6.72-13.81-3.69-21.02,12.64-29.92
		C1167.56,1115.48,1162.9,1106.32,1165.68,1096.7z"/>
	<path class="st0" d="M1276.52,1309.31c8.43,3.29,15.92,6.67,23.39,10.84c1.74,4.99,0.72,10.32,0.89,15.54
		c0.13,4.3,0.19,8.53,1.24,12.78c0.78,3.17,2.14,5.71,5.04,6.9c8.58,3.53,9.26,10.23,7.64,17.98c-0.2,0.96-0.49,1.91-0.77,2.85
		c-0.09,0.31-0.32,0.58-0.94,1.65c-10.89-7.41-21.84-14.02-25.15-28.51c-2.42-10.6-6.51-20.81-9.91-31.18
		C1277.14,1315.69,1275.86,1313.35,1276.52,1309.31z"/>
	<path class="st0" d="M1294.87,1370.67c7.1,8.02,15.6,12.23,21.68,19.76c-0.14,4.63-2.29,8.85-3.32,13.32
		c-1.38,5.97-2.33,11.6,3.33,16.41c3.42,2.9,2.67,7.42,1.58,11.29c-1.78,6.36-4,12.6-6.06,18.98c-7.25-3.22-9.46-8.65-10.17-16.37
		c-1.76-19.12-3.07-38.33-7.01-57.2C1294.6,1375.38,1294.87,1373.8,1294.87,1370.67z"/>
	<path class="st0" d="M1056.99,1554.14c6.1-7.63,11.88-14.85,17.54-21.93c3.28,1.13,2.35,3.5,2.27,5.17
		c-1.02,19.94-3.99,39.61-8.54,59.04c-0.46,1.98-0.97,3.98-2.69,5.19c-4.31,3.04-7.54,7.54-12.69,9.45
		c-5.09-9.85-3.85-17.87,4.3-24.04c3.92-2.97,4.1-6.68,3.55-10.65C1059.72,1569.15,1058.33,1562,1056.99,1554.14z"/>
	<path class="st0" d="M1245.43,137.59c7.08-6.13,15.52-10.84,20.21-19.45c-7.94,4.05-12.96,12.6-22.95,14.8
		c0.85-7.39,1.67-14.52,2.54-22.18c5.78-1.43,10.75-6.19,17.72-2c7.81-9.17,7.89-21.44,12.75-32.14c3.44,3.08,4.17,7.37,5.42,11.42
		c2.75,8.92,2.42,16.49-3.78,24.91c-7.52,10.21-16.15,18.4-26.87,24.72C1249.19,138.43,1247.73,139.88,1245.43,137.59z"/>
	<path class="st0" d="M1113.29,118.29c3.66,9.06,12.64,13.01,19.51,19.45c-1.57,0.64-2.33,1.24-2.68,1.05
		c-9.81-5.09-18.8-11.21-25.25-20.45c-0.76-1.09-1.32-2.37-2.24-3.3c-12.35-12.42-7.2-25.19-0.83-39.65
		c5.42,11.61,5.47,23.84,13.15,33.39c5.96-4.7,10.89,0.31,16.52,1.2c1.76,3.62,2.56,7.45,2.84,11.42c0.26,3.61,0.51,7.23,0.82,11.54
		C1125.84,130.45,1120.2,123.48,1113.29,118.29z"/>
	<path class="st0" d="M1189.45,563.21c-4.03,6.21-2.24,11.96-2.53,17.34c-0.3,5.61-0.07,11.25-0.07,17.72
		c-5.19-1.85-8.24-5.27-11.84-7.23c0-1.32-0.26-2.13,0.04-2.57c5.37-7.98,7.37-16.01,2.26-25.14c-3.26-5.84,0.77-10.67,3.79-16.04
		c5.2,1.73,10.26,2.13,14.77,0.09c3.35,2.08,3.73,5.27,5.15,7.82c1.4,2.52,1.47,5.08,0.02,7.6c-5.02,8.72-4.11,17.04,1.6,25.08
		c0.35,0.5,0.34,1.26,0.67,2.67c-3.42,2.45-7.08,5.07-11.53,8.27c-1.53-4.1-0.77-7.69-0.89-11.13c-0.15-3.99,0.04-7.98-0.06-11.97
		C1190.75,572.1,1191.4,568.4,1189.45,563.21z"/>
	<path class="st0" d="M1301.63,1616.95c-2.86-6.23-4.15-11.51-3.11-17.37c3.65-20.5,6.24-41.13,6.49-61.89
		c2.9-1.48,3.61,0.94,4.73,2.34c3.32,4.12,6.54,8.31,10.02,12.75c-2.42,4.39-4.75,8.76-7.21,13.05c-2.87,5.01-2.78,9.53,0.05,14.91
		c8.78,16.73,6.53,17.91-4.43,30.42C1306.48,1613.08,1304.31,1614.6,1301.63,1616.95z"/>
	<path class="st0" d="M1063.41,1535.16c-4.05-7.85-3.82-15.07,1.62-21.42c3.26-3.81,4.08-7.66,2.39-11.92
		c-5-12.64-2.6-25.43-1.08-38.17c0.71-5.96,5.93-9.09,8.8-13.79c1.83,1.53,1.66,2.87,1.69,4.12c0.46,17.21,0.71,34.43,1.47,51.63
		c0.28,6.31-1.33,11.75-4.56,16.93C1070.96,1527.02,1067.95,1531.34,1063.41,1535.16z"/>
	<path class="st0" d="M870.42,1885.17c-4.1-2.47-7.72-4.25-10.88-6.65c-5.32-4.03-11.06-4.07-17.08-2.64
		c-3.55,0.84-7,2.17-10.58,2.78c-7.88,1.34-15.31,0.73-20.8-6.19c-1.63-2.06-4.15-3.39-5.16-6.44c6.39-3.82,12.57-5.56,20.49-3.32
		c18.52,5.24,37.42,9.03,56.62,11c2.04,0.21,3.96,0.38,6.01,2.54C883.59,1880.71,876.8,1882.05,870.42,1885.17z"/>
	<path class="st0" d="M1226.02,320.42c1.19,6.52-2.47,11.61-1.96,17.33c0.5,5.57,0.11,11.24-0.18,16.86
		c-0.27,5.38-2.92,9.25-8.07,11.35c-3.34,1.37-6.58,3-9.67,4.43c-3.98-1.88-5.11-5.49-7-7.97c-0.03-3.87,2.02-6.07,4.19-8.1
		c2.75-2.58,3.37-5.39,1.96-8.95c-1.44-3.63-2.49-7.43-3.91-11.74C1209.83,329.8,1218.51,326.75,1226.02,320.42z"/>
	<path class="st0" d="M556.18,1724.15c4.08-0.39,7.37-0.7,10.66-1.03c3.79-0.38,7.14,0.6,10.34,2.7
		c15.5,10.22,31.08,20.34,46.59,30.55c0.42,0.28,0.45,1.14,0.86,2.25c-8.98,1.73-17.58-1.66-26.16-1.08
		c-4.74-4.06-3.49-11.17-10.71-15.7c-2.45-0.93-7.45-0.43-12.37-0.83c-8.76-0.72-16.18-3.7-18.95-13.16
		C556.16,1726.94,556.29,1725.91,556.18,1724.15z"/>
	<path class="st0" d="M1172.3,370.08c-6-1.5-11.38-4.55-16.87-8.73c-3.05-12.85,1.26-26.78-5.37-41.69
		c9.61,6.06,17.3,10.77,26.72,13.45c-1.35,4.09-2.62,7.76-3.76,11.47c-1,3.26-1.12,6.22,1.22,9.32
		C1180.42,362.08,1180.28,362.19,1172.3,370.08z"/>
	<path class="st0" d="M1046.95,1492.7c-3.17-5.93-5.79-10.84-8.41-15.75c-2.62-4.93-6.1-9.23-11.95-13.6
		c17.29-3.84,22.54-16.16,26.76-30.75c8.21,19.22,8.94,37.24,2.38,55.51c-0.96-9.07,5.06-17.68,1.81-26.93
		c-0.4-1.14-0.72-2.55-2.61-2.91C1053.19,1469.61,1053.95,1481.53,1046.95,1492.7z"/>
	<path class="st0" d="M718.93,1833.74c-3.9-10.97-11.25-14.19-21.96-13.24c-6.84,0.61-13.8-1.91-20.04-5.13
		c-5.09-2.63-6.42-7.98-8.78-12.86c11.75-2.32,20.8-0.91,29.11,3.84c12.12,6.92,24.35,13.68,36.53,20.49
		c1.69,0.95,3.87,1.28,4.56,4.07c-3.51,0.75-6.98,1.64-10.5,2.2C725.28,1833.53,722.63,1833.5,718.93,1833.74z"/>
	<path class="st0" d="M1109.63,1846.77c-2.19,5.64-5.48,10.42-9.39,14.78c-1.64,1.11-3.18,0.12-4.75-0.17
		c-4.47-0.81-8.28,0.09-11.96,3.14c-5.35,4.43-11.42,7.86-17.65,11c-8.98,4.52-17.68,4.52-26.66-0.9c3-5.64,7.29-9.23,13.42-10.73
		c18.65-4.56,36.86-10.52,54.75-17.48C1107.87,1846.21,1108.58,1846.58,1109.63,1846.77z"/>
	<path class="st0" d="M1228.13,1086.46c5.9-5.31,12.12-8.98,19.19-13.11c2.36,5.37,1.87,10.75,2.71,15.72
		c2.11,12.44,2.87,25.07,5.55,37.46c1.03,4.75,1.62,9.79-0.89,14.43c-8.62-1.84-13.48-8.12-10.4-15.37
		c3.74-8.8,0.8-15.21-4.18-21.89C1236.15,1098.38,1232.53,1092.82,1228.13,1086.46z"/>
	<path class="st0" d="M1302.97,1622.92c4.87-5.39,9.04-10.11,13.31-14.73c6.43-6.96,7.89-15.28,2.75-22.78
		c-7.07-10.31-3.73-18.61,2.35-27.19c0.38-0.54,0.82-1.03,1.24-1.55c0.3-0.15,0.64-0.5,0.88-0.43c1.89,0.5,3.76,1.07,6.42,1.86
		c-0.58,15.71-2.87,31.3-6.45,46.66c-3.05,13.07-6.03,26.26-12.98,39.72C1306.4,1636.83,1305.26,1629.75,1302.97,1622.92z"/>
	<path class="st0" d="M1321.58,1457.4c-2.73,10.78-0.65,19.63,0.67,28.56c-4.69-4.72-3.58-10.68-3.66-16.2
		c-0.09-5.97-0.92-11.97,0.19-17.95c1.07-5.78,2.37-11.46,5.24-17.6c4.48,5.98,4.84,12.96,8.97,18.25c4.38,5.6,9.67,8.91,17.67,9.98
		c-8.28,9.17-14.64,18.66-18.79,30.08c-4.92-4.84-5.27-10.87-6.82-16.39C1323.5,1470.6,1325.59,1464.38,1321.58,1457.4z"/>
	<path class="st0" d="M1130.44,1072.73c7.48,5.14,13.99,8.44,19.04,13.44c-5.35,11.09-14.93,19.2-18.63,31.2
		c2.68,5.64,5.83,11.39,1.92,17.81c-2.14,3.52-4.53,6.57-9.39,5.89c-1.99-4.32-1.54-8.77-0.98-12.94
		C1124.8,1110.12,1127.58,1092.16,1130.44,1072.73z"/>
	<path class="st0" d="M1197.6,161.12c5.85-13.25,5.85-13.25,1.1-24.57c0.6-2.47,2.75-2.55,4.64-2.97c6.08-1.35,12.18-2.67,18.72-4.1
		c1.13,8.04,2.56,15.75,2.12,23.68c-0.24,4.3-1.59,7.58-6.18,8.99c-3.14,0.96-6.06,2.61-9.15,3.75
		C1201.91,168.45,1201.89,168.4,1197.6,161.12z"/>
	<path class="st0" d="M1185.51,375.68c-3.17,0.3-5.47-1.63-7.92-3.22c7.51-12.6,7.26-11.38-1.08-22.49
		c-0.5-3.14,1.06-5.85,1.89-8.68c0.73-2.48,1.98-4.81,3.02-7.27c5,0,9.58,0,14.47,0c3.95,4.15,4.46,9.88,6.09,15.2
		c-1.36,4.51-7.05,6.44-7,11.68c0.04,4.57,3.55,7.64,5.63,11.31c-2.77,1.99-5.09,3.87-8.27,3.32c-1.96-1.3-1.08-3.82-2.41-5.32
		C1185.69,369.96,1187.85,374.55,1185.51,375.68z"/>
	<path class="st0" d="M1295.64,1620.22c1.5,4.75,3.05,9.68,4.62,14.59c0.8,2.5-0.12,4.56-1.6,6.48c-1.82,2.37-3.57,4.82-5.53,7.07
		c-4.3,4.94-5.1,10.62-3.82,16.8c0.2,0.98,0.48,1.93,0.72,2.9c3.11,12.61-0.9,22.07-13.07,28.45c-2.42-5.32-5.25-10.78-2.77-16.49
		c7.98-18.37,12.79-37.73,18.5-56.81C1293.04,1622.02,1293.05,1620.48,1295.64,1620.22z"/>
	<path class="st0" d="M1155.1,129.2c8.95,2.36,16.78,3.09,23.69,5.85c1.04,2.44-0.03,3.97-0.85,5.22
		c-3.69,5.65-3.86,10.7,0.53,16.37c3.42,4.42,2.86,4.84-2.96,10.87c-4.83-0.04-9-3.12-13.68-4.46c-5.53-1.59-8.08-5.07-7.66-10.98
		C1154.67,144.85,1154.77,137.59,1155.1,129.2z"/>
	<path class="st0" d="M1199.07,506.71c5.4-5.27,13.01-6.72,18.22-12.37c3.39,10.67,5.17,26.07,4.27,35.65
		c-5.38,5.1-11.98,7.81-19.23,9.17c-5.26-7.18-5.69-8.11-1.13-13.5c3.64-4.3,3.57-8.22,1.22-12.71
		C1201.36,510.91,1200.25,508.9,1199.07,506.71z"/>
	<path class="st0" d="M891.82,1884.48c6.65-6.4,13.9-8.43,22.37-7.46c12.58,1.43,25.24,0.51,37.87,0.75
		c2.88,0.06,5.86-0.61,9.48,1.05c-3.89,5.48-9.3,8.24-14.72,11.3c-4.72-2.08-8.63-5.5-13.82-6.14c-2.71,0.26-4.71,2.15-6.88,3.62
		C914.39,1895.55,901.91,1895.29,891.82,1884.48z"/>
	<path class="st0" d="M1179.25,506.32c-1.7,3.15-3.23,5.35-4.13,7.79c-1.42,3.84-1.83,7.75,1.53,11.04
		c4.81,4.7,3.95,9.26-0.24,13.76c-10.46-2.15-10.46-2.15-19.66-8.68c-2.18-11.76,1.91-23.18,2.51-35.88
		C1166.14,498.47,1172.25,502.13,1179.25,506.32z"/>
	<path class="st0" d="M805.61,1858.7c-5.61,1.93-11.01,4.38-18.07,5.48c-0.75-1.11-1.65-2.51-2.61-3.87
		c-3.49-4.96-7.24-6.9-14.18-5.78c-7.58,1.22-15.75-0.94-23.62-1.92c-1.89-0.24-3.53-1.72-4.61-3.55
		c-1.84-3.14-4.03-6.12-3.83-10.67c6.45-2.44,12.4-3.2,19.4,0.34c13.02,6.59,26.87,11.38,40.74,16.01
		C801.21,1855.54,804.27,1855.39,805.61,1858.7z"/>
	<path class="st0" d="M775.13,1715.26c-5.68,0.58-9.2-1.58-12.8-2.84c-10.91-3.83-21.57-8.43-32.59-11.92
		c-6.33-2-9.5-5.4-9.48-11.99c2.54-3.18,6.51-2.7,9.91-3.72c3.86-1.16,7.16,0.07,9.9,2.75c1.89,1.84,3.54,3.92,5.22,5.97
		c3.18,3.87,7.22,5.57,12.16,4.71c2.97-0.52,5.88-0.62,9.24,0.19C769.28,1703.57,771.92,1708.85,775.13,1715.26z"/>
	<path class="st0" d="M1018.37,1671.06c1.23-9.5,3.83-16.83,12.83-20.33c4.98-1.94,7.71-6.04,9.16-11.05
		c0.55-1.9,1.14-3.8,1.62-5.72c1.63-6.55,3.79-12.4,11.03-15.23c3.18-1.24,5.55-4.54,8.3-6.92c1.77,2.27,0.09,3.91-0.55,5.63
		c-4.63,12.44-10.95,24.08-16.93,35.88C1038.77,1663.29,1031.29,1670.15,1018.37,1671.06z"/>
	<path class="st0" d="M1031.99,1621.88c-1.42-2.07-1.71-4.19-0.87-5.94c2.88-5.96,4.03-12.62,7.74-18.26
		c3.94-5.99,4.58-12.83,4.73-19.82c0.16-7.21,0.77-14.42,1.21-22.03c3.62-0.18,6.3,2.3,10.14,0.99c-1.72,9.27,3.08,17.09,1.45,26.08
		c-10.09,4.07-10.92,12.76-9.98,22.16c0.36,3.62,0.94,7.22-0.45,11.26C1041.52,1618.36,1037.5,1622,1031.99,1621.88z"/>
	<path class="st0" d="M1038.59,1627.37c0.4,6.11-2.14,10.82-3.91,15.63c-0.5,1.35-2.12,2.63-3.53,3.25
		c-10.87,4.73-15.8,13.44-17.04,24.76c-0.07,0.64-0.4,1.25-0.76,2.34c-5.63,2.75-11.61,5.05-18.06,4.22c-1.3-2.42-0.39-3.7,0.73-5
		c5.79-6.74,9.83-14.92,17.15-20.43c3.03-2.28,3.89-6.17,4.95-9.58c1.88-6.08,5.31-11.22,8.87-17.4
		C1030.33,1628.6,1034.39,1627.33,1038.59,1627.37z"/>
	<path class="st0" d="M1178.47,1807.32c-1.15,7.8-3.82,13.69-6.86,19.14c-3.45,2-6.9,1.49-10.1,1.18
		c-6.33-0.61-10.9,2.22-14.86,6.55c-4.03,4.4-7.92,8.92-11.87,13.39c-3.33,3.77-6.98,6.96-11.95,8.6c-3.66,1.21-6.41,0.54-8.9-2.16
		c0.31-4.12,2.49-7.55,3.77-11.56c10.26-5.05,20.86-9.73,30.81-15.7C1158.36,1820.83,1168.2,1814.89,1178.47,1807.32z"/>
	<path class="st0" d="M1035.54,1868.42c-3.76,5.64-6.74,8.6-11.13,10.96c-6.98-3.19-13.75-1.45-20.38,2.41
		c-4.3,2.5-8.85,4.58-13.33,6.78c-9.12,4.49-17.88,3.45-26.5-1.54c4.37-8.6,11.49-10.97,20.32-11.46
		c12.57-0.69,25.03-2.72,37.42-5.08C1025.8,1869.75,1029.72,1869.29,1035.54,1868.42z"/>
	<path class="st0" d="M1159.43,404.43c-3.41-11.93-2.4-23.58-4.63-36.12c8.19,3.81,15.45,7.18,22.47,10.45
		c0.65,2.61-0.76,4.24-1.5,6c-1.89,4.53-2.45,8.64,1.04,12.94c3.11,3.84,2.5,7.98-1.46,11.85
		C1169.85,409.36,1164.89,406.85,1159.43,404.43z"/>
	<path class="st0" d="M678.25,1795.05c-5.95,0-10.26,0.12-14.55-0.03c-5-0.18-8.9-2.07-10.76-7.21c-1.26-3.48-3.31-6.54-6.9-8.99
		c-4.84,0.29-10.12,0.92-15.38,0.86c-9.81-0.12-15.12-4.59-18.7-15.85c7.17,1.66,14.02,1.34,20.87,1.23
		c3.31-0.05,5.64,1.63,8.07,3.38c8.91,6.41,17.88,12.75,26.74,19.23C670.75,1789.93,674.77,1790.95,678.25,1795.05z"/>
	<path class="st0" d="M1222.36,368.51c0.5,11.01-1.68,20.74-2.25,30.59c-0.21,3.66-2.02,6.21-5.69,7.26
		c-3.77,1.08-7.26,3.22-11.57,3.24c-3.49-2.82-5.4-6.84-2.39-10.22c5.34-6.01,3.55-11.45,0.57-17.32c-0.28-0.55-0.23-1.27-0.5-2.9
		C1207.23,375.89,1214.2,372.49,1222.36,368.51z"/>
	<path class="st0" d="M1228.16,1774.4c-3.51,1.51-6.17,2.83-8.95,3.83c-5.81,2.09-9.22,6.2-10.77,12.05
		c-0.68,2.56-1.41,5.1-2.18,7.63c-3.06,10.08-9.9,15.07-21.1,15.32c-0.31-5.91,0.44-11.51,4.64-15.45
		c14.03-13.14,26.71-27.49,38.97-42.24c0.15-0.18,0.63-0.07,1.21-0.12C1231.28,1761.74,1228.68,1767.57,1228.16,1774.4z"/>
	<path class="st0" d="M529.78,1595.46c5,5.54,8.79,11.66,12.34,17.74c-1.64,2.43-3.07,1.04-4.47,0.48
		c-12.89-5.11-25.68-10.51-38.71-15.22c-7.08-2.56-11.57-7.1-14.57-13.69c8.88-3.86,14.6-2.94,20.58,3.18
		c0.92,0.95,1.78,1.96,2.62,2.98c2.96,3.59,6.56,5.18,11.35,4.62C522.49,1595.12,526.14,1595.46,529.78,1595.46z"/>
	<path class="st0" d="M1213.5,236.07c3.28,10.13,6.22,19.19,9.23,28.5c-5.74,5.23-12.06,8.68-18.73,12.29
		c-3.03-1.21-5.47-3.12-6.62-6.63c-0.17-3.78,4.58-4.52,5.27-8.84c-0.4-4.48-3.58-8.97-5.14-14.42
		C1201.91,242.53,1207.94,240.45,1213.5,236.07z"/>
	<path class="st0" d="M1156.49,265.95c0.25-6.58,4.71-21.51,8.7-29.25c4.99,3.12,9.97,6.22,15.46,9.64
		c-1.95,5.37-3.83,10.54-5.59,15.37c0.89,3.5,4.34,4.54,5.46,7.26c0.13,4.1-2.73,5.86-5.7,7.8
		C1167.92,274.46,1162.38,269.77,1156.49,265.95z"/>
	<path class="st0" d="M562.1,1717.03c-7.06,0.99-12.85,1.81-18.3,2.57c-3.55-2.7-4.38-6.41-6.05-9.58
		c-3.45-6.51-3.53-6.56-10.75-5.24c-2.6,0.47-5.26,0.99-7.87,0.88c-8.66-0.35-15.32-3.79-18.34-13.5
		c9.28-3.23,18.01-4.27,26.82,1.78c9.28,6.37,18.94,12.17,28.39,18.3C557.86,1713.44,559.51,1714.97,562.1,1717.03z"/>
	<path class="st0" d="M1236.7,1758.59c0-2.88,0.42-5.29-0.09-7.49c-1-4.36,0.54-7.8,3-11.12c9.93-13.37,18.33-27.71,26.52-42.17
		c0.64-1.13,1.01-2.46,3.56-2.54c0.17,2.65,0.35,5.43,0.53,8.22c0.17,2.64,1.03,5.25,0.41,7.25c-0.69,2.48-2.45,2.97-3.74,3.93
		c-7.87,5.85-12.93,12.75-12.26,23.47C1255.35,1749.45,1248.6,1755.77,1236.7,1758.59z"/>
	<path class="st0" d="M410,1638.57c-6.91,0.66-13.67,1.38-20.44,1.91c-1.23,0.1-2.62-0.32-3.74-0.89c-1.76-0.9-3.61-1.87-4.96-3.26
		c-6.42-6.59-12.97-8.26-20.79-1.99c-2.91,2.34-6.98,2.1-10.47,0.49c-4.15-1.91-8.2-4.08-11.75-8.09c9.58-4.39,18.39-6.95,28.75-3.8
		c12.32,3.75,24.76,7.16,36.95,11.33C405.83,1635.05,408.95,1635.06,410,1638.57z"/>
	<path class="st0" d="M792.42,1705.92c7.15,2.83,9.73,9.18,14.47,13.36c6.36,1.13,12.35-2.33,18.96-1.74
		c4.79,5.22,11.48,8.56,16.51,15.75c-9.6-1.79-18.04-3.12-26.36-4.98c-8.1-1.81-16.1-4.08-24.1-6.3c-6.77-1.88-6.74-1.98-11.01-9.28
		C783.28,1708.26,788.15,1707.83,792.42,1705.92z"/>
	<path class="st0" d="M1199.66,452.66c-2.83,3.63-6.76,4.76-9.94,7.16c-4.3-1.44-7.95-3.44-11.3-6.99
		c5.72-7.22,8.29-14.53-0.15-21.34c1.32-4.55,2.29-8.68,5.32-12.78c3.49,1.73,7.28,1.06,10.91-0.03c2.96,3.91,3.93,8.05,5.13,12.7
		C1192.04,438.1,1193.46,445.46,1199.66,452.66z"/>
	<path class="st0" d="M708.66,1677.55c2.33,5.3,4.27,10.05,4.91,15.13c-2.45,1.53-4.1-0.11-5.84-0.8
		c-14.55-5.71-28.39-12.92-42.41-19.77c-4.53-2.21-6.14-5.46-6.41-9.95c10.12-4.48,14.61-4.2,20.18,3.51
		c10.06,13.91,7.73,11.03,24.83,11.47C705.24,1677.17,706.54,1677.36,708.66,1677.55z"/>
	<path class="st0" d="M600.32,1632.78c11.59-2.73,16.25-1.09,22.22,7.36c0.77,1.08,1.57,2.17,2.17,3.35
		c1.99,3.95,5.33,4.56,9.27,3.99c3.55-0.51,6.91-2.7,11.3-0.9c2.73,4.94,5.38,10.44,6.64,16.47c-2.61,1.34-4.27,0.02-6.04-0.77
		c-12.12-5.42-24.18-10.98-36.4-16.16C603.64,1643.64,600.5,1639.78,600.32,1632.78z"/>
	<path class="st0" d="M1315.39,1534.99c-10.57-6.43-11.82-15.71-10.33-25.6c1.45-9.63,1.2-19.07,0.12-28.71
		c-1.03-9.17-0.43-18.5-2.27-28.84c5.93,4.74,8.75,9.21,9.56,16.16c1.36,11.67,1.58,22.94-1.87,34.28
		c-1.02,3.35-1.29,7.23,1.67,10.35C1318.3,1519,1317.71,1526.4,1315.39,1534.99z"/>
	<path class="st0" d="M1024.5,1678.41c-13.56,15.68-29.61,26.71-46.82,36.78c-3.69-1.59-7.26-3.13-10.99-4.74
		c1.76-6.98,5.88-10.56,12.65-11.06c1.99-0.15,4.02-0.49,5.97-0.25c7.12,0.89,11.5-2.67,13.91-8.8c2.18-5.54,6.03-8.33,11.72-9.32
		C1015.11,1680.31,1018.76,1677.25,1024.5,1678.41z"/>
	<path class="st0" d="M1335.3,1398.07c3.73,7.35,3.74,13.53,0.29,19.92c-3.33,6.16-3.44,12.51-0.28,19.05
		c1.31,2.7,3.97,5.54,1.93,9.26c-4.58-1.74-4.94-6.13-6.06-9.74c-1.28-4.16-2.03-8.32-6.48-10.54c-1.01-0.5-1.88-1.98-2.13-3.16
		c-0.9-4.18-4.22-6.64-6.53-9.73c0.97-10.33,1.64-12.66,5.28-18.51C1325.92,1396.05,1327.94,1406.02,1335.3,1398.07z"/>
	<path class="st0" d="M1173.51,496.37c-4.49-3.02-8.57-5.76-13.26-8.91c1.34-11.46,2.7-23.1,4.15-35.41
		c5.14,3.01,9.62,5.63,13.87,8.12c0.46,2.98-1.24,4.8-2.21,6.8c-2.05,4.24-1.99,7.87,0.75,12.04
		C1181.94,486.83,1181.4,489.31,1173.51,496.37z"/>
	<path class="st0" d="M1041.42,1446.23c-2.35-3.36-0.12-6.02,1.06-8.54c3.36-7.19,3.22-14.22-0.58-21.06
		c-3.42-6.17-2.09-11.93,0.29-17.95c6.31,2.92,6.3,2.91,11-1.32c1.21-1.09,2.21-2.55,4.44-2.59c2.93,5.11,3.3,11.09,5.11,17.2
		c-5.52,4.56-6.38,12.57-12.89,16.9c-1.99,1.32-2.26,5.34-3.12,8.19C1045.69,1440.54,1044.89,1444.1,1041.42,1446.23z"/>
	<path class="st0" d="M420.32,1568.38c6.61-4.49,12.89-4.38,19.05-0.49c3.34,2.11,6.43,4.66,9.44,7.24c2.79,2.39,5.8,3.47,9.13,1.82
		c6.72-3.33,11.23-0.89,15.08,4.84c2,2.97,4.69,5.48,7.08,8.2c-1.9,2.42-3.69,0.78-5.35,0.33c-13.4-3.68-26.78-7.45-40.17-11.15
		C426.39,1576.91,426.38,1576.94,420.32,1568.38z"/>
	<path class="st0" d="M1217.72,487.6c-4.53,2.96-8.67,5.66-12.72,8.3c-8.91-7.25-8.94-8.02-0.87-22.43
		c-0.57-1.78-1.16-4.01-1.99-6.14c-0.84-2.16-1.92-4.23-2.91-6.37c4.24-3.4,8.77-6.01,14.41-8.23c0.81,5.9,1.67,11.59,2.34,17.3
		C1216.63,475.61,1217.1,481.21,1217.72,487.6z"/>
	<path class="st0" d="M1189.33,486.19c-4.56,5.82-0.7,12.06-3.53,17.06c-3.32,0.26-5.6-1.3-7.23-4c6.83-12.39,6.83-12.39-0.14-26.25
		c0.17-3.74,2.86-6.51,4.3-10.64c3.91,0.44,8.07,5.45,11.57-1.77c2.39,4.9,3.95,8.1,5.59,11.47c-0.97,4.88-4.95,8.46-5.77,13.54
		c-0.94,5.83,3.67,8.9,5.63,13.11c-1.59,3.27-4.06,4.55-7.75,4.7C1189.2,498.35,1192.46,492.33,1189.33,486.19z"/>
	<path class="st0" d="M507.81,1682.13c-3.38,3.57-6.86,2.73-10.09,3.03c-2.95,0.28-5.88,0.83-9.11,1.3
		c-0.55-0.48-1.52-0.96-1.93-1.74c-3.58-6.89-7.81-10.33-16.6-7.48c-8.55,2.77-12.49-0.29-15.87-8.65
		c4.78-4.29,11.37-2.51,16.74-4.87c0.71-0.31,1.96,0.17,2.79,0.59C484.9,1670.03,496.47,1674.96,507.81,1682.13z"/>
	<path class="st0" d="M459.77,1658.78c-5.66,3.5-12.28,3.35-18.93,6.71c-1.09-1.5-2.19-3.15-3.41-4.7
		c-4.16-5.26-8.67-8.21-16.18-5.98c-7.86,2.34-13.77-2.47-19.44-8.78c13.2-2.64,25.5-4.3,37.6,2.07
		C446.09,1651.63,453.49,1653.81,459.77,1658.78z"/>
	<path class="st0" d="M905.31,1731.93c-2.28,2.77-4.75,1.76-6.88,1.78c-11.96,0.11-23.93-0.19-35.88,0.15
		c-6,0.17-11.07-0.72-14.98-5.74c-1.36-1.74-4.03-2.36-4.7-5.55c3.57-2.64,7.65-4.43,12.31-4.75c5.1-0.36,9.02,2.2,12.08,5.86
		c3.21,3.82,6.99,4.64,11.56,3.52c1.92-0.48,3.91-0.73,5.81-1.28C892.85,1723.54,899.09,1727.13,905.31,1731.93z"/>
	<path class="st0" d="M594.85,1639.2c-13.97-6.22-26.07-11.53-38.09-16.98c-5.15-2.34-5.08-2.48-9.71-13.97
		c5.83-4.44,11.13-1.99,16.38,1.25c2.01,1.24,3.47,2.98,4.97,4.77c4.17,4.97,8.75,9.3,16.13,7.14
		C588.97,1626.47,591.72,1631.86,594.85,1639.2z"/>
	<path class="st0" d="M1176.38,205.88c-8.16-3.35-12.66-8.58-14.28-16.83c-1.3-6.67-3.72-13.13-4.67-20.81
		c7.56,2.63,14.49,5.03,21.06,7.32c1.25,2.22,0.16,3.77-0.47,5.09c-2.38,4.94-2.51,9.01,1.86,13.34
		C1183.32,197.39,1182.57,198.67,1176.38,205.88z"/>
	<path class="st0" d="M339.59,1618.73c-5.41,3.27-11.99,3.62-16.6,6.8c-4.43-0.06-6.83-2.59-9.53-4.37
		c-3.87-2.56-7.42-2.29-10.95,0.5c-0.26,0.2-0.54,0.38-0.82,0.56c-10.69,7.19-12.37,7.1-23.76-1.68c3.09-3.97,6.62-7.14,11.89-7.35
		c15.58-0.62,31.01,0.99,46.33,3.67C337.3,1617.05,338.68,1617.01,339.59,1618.73z"/>
	<path class="st0" d="M1156.91,121.87c0.81-8.83,3.2-17.32,8.39-25.59c4.22,0.63,8.66,1.29,13.07,1.95
		c1.39,3.63-0.93,5.93-2.33,8.33c-2.08,3.57-2.78,6.61,1.08,9.52c1.23,0.93,2.1,2.57,2.71,4.06c1.32,3.22-1.04,7.5-4.36,7.33
		c-3.92-0.2-7.79-1.33-11.68-2.05C1161.24,124.94,1158.48,124.86,1156.91,121.87z"/>
	<path class="st0" d="M1197.66,411.57c-5.71,5.14-11.22,5.31-16.67,0.63c-0.6-2.05,0.25-3.51,0.87-5.04
		c1.48-3.65,0.83-6.96-1.05-10.43c-3.94-7.29-3.15-10.19,4.25-17.09c2.95,4.64,2.73,9.98,4.48,16.26c1.17-5.79,0.36-10.61,2.21-14.9
		c1.61-1.12,3.28-1.01,4.27,0.6c3.16,5.15,6.41,10.21,0.84,16.09c-2.39,2.52-2.36,6.01-0.65,9.32
		C1196.95,408.42,1197.2,410.08,1197.66,411.57z"/>
	<path class="st0" d="M1202.09,205.72c-2.76-1.01-3.74-3.16-4.84-5.21c-1.23-2.3-1.32-4.96,0.67-6.43
		c5.65-4.18,4.39-8.95,1.96-14.08c-0.54-1.14-1.39-2.28-0.41-4.42c6.15-2.52,13.39-3.84,19.63-7.29c2.31,1.84,1.2,3.87,0.77,5.62
		c-1.35,5.48-3.4,10.83-4.3,16.37C1214.23,198.59,1208.98,202.86,1202.09,205.72z"/>
	<path class="st0" d="M1178.58,148.78c1.73-4.25,2.93-8.43,5.43-11.95c2.83-1.97,5.94-0.16,8.73-1.45
		c3.64,3.78,4.56,8.43,6.62,12.98c-1.97,3.97-4.01,8.09-6.08,12.27c1.19,3.13,2.34,6.15,3.53,9.28c-5.31,3.7-10.24,2.85-15.56,0.44
		c0.12-4.05,4.75-6.99,2.92-11.18C1182.7,155.84,1180.73,152.73,1178.58,148.78z"/>
	<path class="st0" d="M1220.13,124.05c-5.22,1.17-10.03,2.25-14.83,3.33c-2.44,0.55-4.61,0.27-6.13-1.98c-1.69-2.5-1.27-5,0.08-7.47
		c1.25-2.3,4.43-3.08,4.81-6.47c-0.42-4.33-5.06-7.39-4.99-12.32c3.67-2.8,8.48-0.84,12.18-3.11
		C1217.73,102.95,1220.73,112.01,1220.13,124.05z"/>
	<path class="st0" d="M1218.05,411.4c-2.19,12.54-4.1,23.53-6.08,34.84c-2.37,1.59-4.78,3.2-6.87,4.6c-2.45-0.47-6.88-7.14-6.69-9.6
		c0.3-3.9,4.11-5.9,5.26-9.36c-0.25-4.72-2.82-8.75-4.08-13.68C1204.66,414.56,1210.71,413.39,1218.05,411.4z"/>
	<path class="st0" d="M416.56,1575.37c-13.02-2.55-24.33-4.77-35.64-6.98c-1.3-0.25-2.6-0.47-3.91-0.68
		c-8.82-1.36-8.82-1.36-14.27-10.04c3.44-4.15,7.64-4.71,12.34-2.46c3.27,1.57,6.56,3.18,9.59,5.17c3.87,2.53,7.81,3.75,12.17,1.76
		c3.99-1.82,7.08-0.3,9.93,2.28C409.93,1567.28,413.25,1570.01,416.56,1575.37z"/>
	<path class="st0" d="M1196.82,540.9c-7.49,5.39-7.49,5.39-15,0.8c-0.87-2.09,0.59-3.86,1.22-5.58c1.4-3.8,0.76-7-1.24-10.36
		c-4.85-8.13-4.75-8.17,0.78-15.59c0.63-0.84,1.27-1.45,3.06-1.54c3.59,6.72-1.62,15.56,4.05,22.29c1.3-4.16,1.08-8.14,1.21-12.11
		c0.11-3.48-0.79-7.17,1.4-10.82c3.99,2.01,5.41,5.44,7.25,8.44c1.15,1.88,0.88,4.02-0.6,5.57
		C1193.38,527.83,1193.19,534.33,1196.82,540.9z"/>
	<path class="st0" d="M1180.29,440.93c-1.74,4.16-3.65,7.17-6.12,9.75c-6.6-1.43-8.74-5.99-9.56-11.93
		c-1.21-8.72-2.8-17.39-4.38-27.05c6.75,1.19,12.09,3.27,17.2,5.31c1.78,3.19-0.35,5.49-1.32,7.68c-2.11,4.76-1.87,8.83,1.75,12.67
		C1178.73,438.3,1179.33,439.52,1180.29,440.93z"/>
	<path class="st0" d="M1191.21,288.05c4.82,5.47,5.74,10.36,7.73,15.22c-2,3.32-4.03,6.69-5.94,9.85c-0.41,5.93,4.46,8.94,6.82,13.8
		c-6.7,5.64-13.57,5.01-20.7,1.13c-1.25-2.31,0.55-3.65,1.67-5.22c5.35-7.5,5.36-8.35,0.4-15.88c-0.55-0.83-1.13-1.64-1.97-2.86
		c1.17-4.82,2.76-9.73,6.79-15.64c1.99,12.3-0.99,23.62,3.64,34.4C1191.63,311.77,1190.42,300.92,1191.21,288.05z"/>
	<path class="st0" d="M1089.79,1221.05c0.61,1.25,0.91,1.56,0.87,1.83c-0.71,5.02,2.69,9.93,1.04,14.73
		c-1.65,4.79-6.32,7.62-9.73,11.17c-4.52,4.7-6.1,9.78-5.88,16.16c0.34,9.6-2.73,17.99-11.08,24.97c-1.87-5.31-1.93-9.69,0.04-13.94
		c6.43-13.86,10.52-28.73,18.08-42.07C1085.4,1229.92,1086.01,1225.08,1089.79,1221.05z"/>
	<path class="st0" d="M1288.18,1219.74c5.03,10.36,9.77,18.77,13.26,27.67c3.51,8.97,7.13,17.88,10.84,26.77
		c2.52,6.05,2.42,6.09,1.26,15.09c-6.5-3.57-9.37-9.24-10.67-15.75c-0.71-3.55-0.72-7.29-0.62-10.93c0.12-4.22-0.74-7.86-3.93-10.84
		c-1.2-1.12-1.83-2.93-3.13-3.85C1285.67,1241.14,1284.88,1231.96,1288.18,1219.74z"/>
	<path class="st0" d="M1200.16,111.15c-6.01,5.49-8.41,11.14-3.78,17.71c-6.88,3.65-6.88,3.65-14.75,0.53
		c1.41-3.07,3.26-6.18,2.52-9.88c-0.71-3.53-4.36-4.91-5.6-8.72c1.15-4,4.1-7.51,6.32-11.35c2.95,0,5.55,0,8.45,0
		C1195.46,103.1,1197.61,106.76,1200.16,111.15z"/>
	<path class="st0" d="M910.6,1725.38c10.79-10.85,22.58-5.44,34.16-2.44c5.05-1.28,7.62-6.18,11.6-8.45
		c4.39,0.63,8.09,1.63,11.81,4.24c-7.85,5.05-16.45,6.34-24.68,8.52c-4.79,1.27-9.87,1.56-14.59,3.03
		C921.87,1732.46,915.99,1731.36,910.6,1725.38z"/>
	<path class="st0" d="M305.42,1553.59c5.16-5.82,11.55-6.18,16.61-2.83c8.07,5.35,15.77,6.11,24.38,2.51
		c0.83-0.35,1.93-0.05,3.27-0.05c2.89,3.36,5.84,6.79,9.96,11.57c-6.75-0.68-11.88-0.76-16.81-1.8c-6.26-1.31-12.53-1.49-18.79-1.13
		C316.56,1562.29,310.33,1560.43,305.42,1553.59z"/>
	<path class="st0" d="M1196.72,208.41c-5.15,4.32-9.88,4.36-15.07,0.43c0.8-4.23,4.03-7.61,4.29-11.96
		c-1.06-3.59-3.88-6.1-5.73-8.52c0.14-4.89,2.39-8.2,3.92-11.97c3.3,0,6.21,0,9.21,0c2.79,3.08,3.21,7.16,5.28,11.17
		C1190.74,193.71,1191.46,200.95,1196.72,208.41z"/>
	<path class="st0" d="M1185.69,282.83c-2.21-0.49-4.51-0.84-6.25-2.59c-0.45-2.86,2.2-3.85,3.42-5.67c1.8-2.69,2.95-5.82,0.45-8.19
		c-4.79-4.55-2.93-8.85-0.49-13.4c0.62-1.16,1.22-2.34,1.81-3.46c3.07-1.31,5.87,0.22,8.79-0.2c1.85,4,3.5,7.56,4.82,10.41
		c-0.16,4.56-4.62,5.75-4.79,9.41c-0.39,4.37,3.5,6.74,5.2,9.9c-1.23,3.72-4.44,2.74-6.37,4.1c-2.43-2.91-0.5-6.37-2.54-9.1
		C1185.1,275.42,1188.17,280.45,1185.69,282.83z"/>
	<path class="st0" d="M1060.03,1493.62c3.26,6.85,6.59,13.29,0.24,20.64c-4.27,4.95-4.4,11.63-2.54,18.02
		c0.73,2.53,1.65,5.01,2.64,7.99c-2.68,4.02-4.96,8.78-10.01,11.74c-3.64-1.94-4.06-5-3.73-8.45c0.59-6.31,2.04-12.52,4.38-18.29
		C1055.17,1515.05,1057.45,1504.43,1060.03,1493.62z"/>
	<path class="st0" d="M1317.54,1492.05c0.82,2.16,1.54,3.32,1.7,4.56c1.67,12.56,6.42,24.24,10.11,36.23
		c2.15,7,1.98,11.06,0.03,18.36c-2.26,1.3-3.8,0.05-5.07-1.59c-2.23-2.87-4.34-5.83-6.9-9.3c2.63-4.81,3.75-10.18,3.51-15.9
		c-0.16-3.77-0.64-7.59-3.06-10.29c-4.71-5.26-4.11-10.79-2.16-16.69C1316.18,1495.96,1316.7,1494.49,1317.54,1492.05z"/>
	<path class="st0" d="M251.19,1559.93c-13.29,1.29-26.29,2.75-39.22,4.87c-2.95,0.48-2.99,0.24-10.64-4.41
		c4.92-6.98,10.94-9.71,18.14-6.82c5.59,2.24,10.52,2.57,16.13,0.35C242.07,1551.35,246.69,1555.59,251.19,1559.93z"/>
	<path class="st0" d="M277.13,1611.78c-3.72,5.12-8.79,6.45-11.97,10.18c-3.75-1.55-6.78-2.8-9.8-4.05
		c-2.92-0.03-5.08,1.68-7.11,3.33c-6.86,5.6-13.9,5.57-21.67,0.92c1.3-5.35,4.02-8.18,10.11-8.53c10.6-0.6,21.28,0.07,31.82-1.79
		C270.98,1611.41,273.59,1611.78,277.13,1611.78z"/>
	<path class="st0" d="M903.64,1724.19c-4.91-2.61-9.32-4.91-13.67-7.31c-0.81-0.45-1.41-1.28-2.09-1.92
		c0.71-1.87,2.25-1.2,3.32-1.14c15.11,0.8,29.76-2.18,44.4-5.26c8.83-1.86,8.8-1.96,16.33,3.6c-1.76,2.9-4.2,4.95-8.03,6.37
		c-6.24-2.57-12.86-5.9-20.43-5C915.82,1714.44,910.26,1719.39,903.64,1724.19z"/>
	<path class="st0" d="M172,1632.3c1.69-5.42,5.05-7.73,10.05-8.93c12.49-2.98,24.96-5.88,38.23-7.28c-0.22,4.7-3.4,6.47-6.42,8.95
		c-3.36-1.08-6.76-2.18-9.81-3.16c-3.37,0.28-4.92,2.63-6.79,4.44c-3.9,3.77-8.48,6.24-13.62,7.91
		C179.57,1635.56,175.87,1635.5,172,1632.3z"/>
	<path class="st0" d="M1149.42,145.27c-0.67-8.2-2.96-16.16-2.62-24.43c0.09-2.18,0.39-4.89-3.54-5.13
		c-1.68,6.74,0.2,13.47,0.22,20.26c-3.69-7.9-4.67-16.34-5.95-24.54c3.61-2.88,7.64,0.13,11.63-2.27
		c3.01-4.48,5.64-10.26,12.52-15.34C1153.04,111.15,1151.03,128.12,1149.42,145.27z"/>
	<path class="st0" d="M1229.94,144.87c-4.5-16.47-3.77-34.06-12.57-49.46c5.84,3.09,8.2,8.86,11.52,13.67
		c3.29,2.43,7.23,0.15,10.77,1.46c1.93,4.58-0.77,8.53-1.24,12.63c-0.48,4.17-1.78,8.25-3.16,12.3c-0.92-6.24-0.51-12.37,0.78-18.39
		c-2.76-2.4-4.67-1.55-4.92,1.47c-0.57,6.92-0.66,13.88-0.94,20.83C1230.11,141.21,1230.02,143.04,1229.94,144.87z"/>
	<path class="st0" d="M1301.71,1644.48c3.39,1.32,4.36,4.44,6.89,6.61c-2.9,10.33-7.36,20.02-12.86,30.97
		c-1.11-7.43-2.07-13.15-2.78-18.89c-0.55-4.38-0.09-8.58,3.17-12.06C1298.12,1648.98,1299.89,1646.66,1301.71,1644.48z"/>
	<path class="st0" d="M303.29,1559.91c-12.18-0.97-23.78,0.08-35.34-0.08c-4.91-0.07-9.11-0.83-11.26-6.27
		c3.61-3.78,8.65-3.76,11.98-2c7.41,3.94,13.41,1.1,19.75-1.84c0.29-0.14,0.65-0.13,1.33-0.27
		C295.4,1551.21,298.68,1556.43,303.29,1559.91z"/>
	<path class="st0" d="M1196.16,240.6c-5.26,4.72-9.29,4.8-13.73,0.15c2.51-5.32,3.73-10.77-0.79-16.32
		c-2.11-2.59,0.38-5.58,2.27-7.85c3.31-1.43,6.68,1.72,9.35-0.98c3.07,3.05,4.93,6.41,2.7,9.4
		C1191.94,230.4,1192.59,235.37,1196.16,240.6z"/>
	<path class="st0" d="M1200.99,238.8c-3.08-3.82-4.97-6.14-2.97-9.97c3.39-6.51,3.22-6.6,0.04-14.38c3.69-2.24,7.49-4.55,11.98-7.28
		c1.15,8.11,2.65,15.17,2.28,23.01C1209.72,233.76,1205.11,235.1,1200.99,238.8z"/>
	<path class="st0" d="M1168.37,1832.64c-0.87,3.74-1.94,6.8-4.98,8.64c-8.93,5.42-18,10.57-28.64,14.66
		c0.16-3.42,1.85-4.93,3.26-6.49c2.66-2.94,5.71-5.56,8.06-8.72C1151.51,1833.43,1158.15,1829.71,1168.37,1832.64z"/>
	<path class="st0" d="M1177.41,238c-4.81-2.12-8.23-4.66-11.81-7.56c0.56-7.37,1.13-14.77,1.78-23.18
		c4.62,2.33,8.35,4.22,11.58,5.85c1.75,2.81-0.45,4.19-1.05,5.87c-1.08,3.03-1.46,5.71,0.86,8.33
		C1182.11,231.1,1181.08,234.48,1177.41,238z"/>
	<path class="st0" d="M152.84,1570.75c1.95-3.66,4.8-5.89,8.31-7.17c2.12-0.77,4.38-1.87,6.64-0.27c5.54,3.94,10.67,2.1,15.75-1.03
		c0.55-0.34,1.23-0.49,2.32-0.91c3.13,1.49,7.41,1.39,10.36,5.43c-10.78,2.36-21.1,4.57-31.4,6.92
		C160.25,1574.75,156.46,1573.38,152.84,1570.75z"/>
	<path class="st0" d="M45.72,1621.39c3.01-0.17,5.28-0.29,7.51-0.41c0.14,0.85,0.5,1.65,0.28,1.87
		c-7.94,7.96-15.39,16.3-21.56,25.76c-1.99,3.05-4.88,5.04-8.83,5.55c-1.18-5.25,0.88-9.49,2.56-13.69c1.4-3.49,4.06-6.43,7.88-6.91
		C40.56,1632.68,43.83,1628.31,45.72,1621.39z"/>
	<path class="st0" d="M98.95,1593.74c-11.07,5.76-21.41,11.48-31.19,18.2c-3.02,2.08-5.91,2.5-9.1,0.69
		c2.48-8.77,4.43-10.64,12.48-11.45c2.63-0.27,5.6,0.24,7.29-2.19c4.52-6.45,11.05-6.29,17.74-5.82
		C97.11,1593.22,98.03,1593.54,98.95,1593.74z"/>
	<path class="st0" d="M1432.17,1739.92c2.64,4.58,4.75,8.25,6.78,11.78c-3.11,6.8-7.34,12.03-13.64,16.74
		c-0.88-7.17-1.67-13.53-2.47-20C1425.86,1745.68,1428.72,1743.07,1432.17,1739.92z"/>
	<path class="st0" d="M87.84,1678.65c-1.9-3.18-0.07-5.72,1.59-8.14c6.16-8.96,14.21-15.65,24.41-20.25
		c1.67,2.45,0.46,4.41-0.52,6.54c-0.87,0.15-1.82,0.37-2.79,0.48c-6.3,0.7-6.51,0.85-7.69,6.77c-0.32,1.63-0.34,3.32-0.7,4.93
		C100.44,1676.76,97.08,1679.01,87.84,1678.65z"/>
	<path class="st0" d="M104.06,1585.3c3.12-4.62,6.99-6.7,12.63-5.79c10.7,1.73,10.72,1.61,19.95-5.65c3.01,0.85,6.34,1.79,9.62,2.71
		c-0.4,2.93-2.34,2.7-3.8,3.17c-5.67,1.86-11.39,3.57-16.98,5.63C118.59,1587.91,111.77,1590.17,104.06,1585.3z"/>
	<path class="st0" d="M1463.9,1787.2c-1.92-5.52-1.94-10.97-1.44-17.01c5.71-2.17,12.47-2.08,16.72-8
		C1480.26,1772.35,1475.09,1780.73,1463.9,1787.2z"/>
	<path class="st0" d="M1206.87,1808.34c1.99-6.16,3.84-12.38,6.02-18.47c1.99-5.57,3.56-6.5,13.09-9c1.32,5.17,0.27,9.57-3.5,13.44
		c-4.8,4.92-9.47,9.96-14.2,14.95C1207.81,1808.96,1207.34,1808.65,1206.87,1808.34z"/>
	<path class="st0" d="M1118.43,153.55c1.46-4.81,4.67-4.81,8.73-3.58c2.13,2.74,1.43,6.65,3.09,9.43c-1.47,2.14-3.1,2.06-4.67,1.42
		c-6.61-2.68-12.53-6.66-19.89-8.01c-5.69-1.04-5.6-7.12-6.26-12.63c4.77,1.08,6.52,5.1,9.73,7.07
		C1112.22,149.13,1115.11,151.28,1118.43,153.55z"/>
	<path class="st0" d="M25.01,1660.98c-4.9,13.1-5.94,25.81-9.89,38.35c-6.68-6.92-7.45-10.91-2.67-16.19
		c3.5-3.86,4.12-8.17,3.89-12.88C16.07,1665.06,18.79,1662.65,25.01,1660.98z"/>
	<path class="st0" d="M10.76,1714.01c1.79-3.3,3.73-5.41,7.11-7.21c2,8.44,3.68,16.67,6.55,24.57c1.09,3-0.1,5.83-2.45,8.69
		c-3.66-1.16-6.93-4.2-5.86-7.48C18.62,1724.98,14.37,1719.98,10.76,1714.01z"/>
	<path class="st0" d="M971.44,1698.22c-0.7-1.42-0.19-2.44,0.98-3.37c5.71-4.54,11.74-8.69,16.23-14.1
		c3.52,1.14,5.41,3.64,8.87,3.74c-0.88,2.04-1.45,3.23-1.91,4.45c-1.73,4.62-4.77,6.62-9.95,6.34c-4.91-0.26-10.03-0.16-14.47,2.73
		L971.44,1698.22z"/>
	<path class="st0" d="M1248.39,160.72c-0.13-4.19,0.76-7.57,2.63-10.58c3.94-1.86,6.79-0.75,8.96,2.87
		c6.57-3.13,11.64-8.4,17.71-13.15c1.54,4.4-0.15,7.55-1.82,10.64c-0.44,0.81-1.45,1.89-2.17,1.87c-8.13-0.2-13.75,5.8-20.78,8.26
		C1251.61,161.1,1250.42,161.37,1248.39,160.72z"/>
	<path class="st0" d="M864.08,1886.92c-0.31,2.02-1.98,2.78-3.52,2.82c-9.26,0.2-18.04-2.33-27.25-4.8
		C847.38,1876.4,853.02,1877.3,864.08,1886.92z"/>
	<path class="st0" d="M1108.71,1179.13c2.86-10.42,5.72-20.83,8.73-31.81c3.93,4.92,3.47,11.05,6.83,15.82
		c-4.99,5.92-9.78,11.61-14.58,17.3C1109.37,1179.99,1109.04,1179.56,1108.71,1179.13z"/>
	<path class="st0" d="M1368.79,1676.46c-9.61-6.26-14.39-13.79-19.24-23.45c6.41,0.66,11.14,3.61,16.5,1.33
		C1367.07,1661.77,1366.29,1668.37,1368.79,1676.46z"/>
	<path class="st0" d="M1254.17,1163.57c1.17-3.44,2.03-5.92,2.86-8.4c0.81-2.44,1.59-4.89,2.86-8.78
		c4.38,11.88,6.16,23.12,8.79,34.43C1263.89,1175.14,1259.11,1169.46,1254.17,1163.57z"/>
	<path class="st0" d="M1258.9,1746.52c0.39-4.77,1.37-8.22,1.39-11.82c0.07-9.84,0.56-10.35,9.58-16.52
		c1.73,0.02,1.97,1.36,2.33,2.62c0.36,1.25,0.79,2.48,1.42,4.46C1269.78,1732.07,1265.35,1739.21,1258.9,1746.52z"/>
	<path class="st0" d="M706.91,1672.56c-5.59,1.06-11.36,0.54-17.18,0.18c-3.69-4.85-7.27-9.56-10.86-14.27
		c2.17-1.93,3.77-0.12,5.43,0.65c6.6,3.05,13.19,6.12,19.72,9.32C705.34,1669.09,707.3,1669.51,706.91,1672.56z"/>
	<path class="st0" d="M145.17,1635.69c-1.65,5.27-4.23,7.84-6.53,10.58c-4.98,5.92-7.17,6.44-14.33,3.46
		c-0.9-0.38-1.75-0.88-3.36-1.69C127.7,1641.65,136.13,1639.57,145.17,1635.69z"/>
	<path class="st0" d="M82.91,1684.23c4.96,6.32-0.62,9.88-3.87,14c0.88,7.65,10.43,14.15,3.13,22.86
		C74.08,1713.28,74.49,1696.32,82.91,1684.23z"/>
	<path class="st0" d="M88.78,1742.62c14.89,10.48,14.89,10.48,15.14,17.63c-3.31,0.31-5.28-1.5-7.25-3.91
		c-6.64-8.13-13.71-15.98-15.62-27.18C87.95,1733.07,87.95,1733.07,88.78,1742.62z"/>
	<path class="st0" d="M1565.15,920.67c2.05,3.8,1.58,5.65,0.37,7.38c-4.53,6.45-8.9,13.05-16.27,18.49c0-5.29,0-9.63,0-14.59
		C1556.67,931.91,1561.05,927.06,1565.15,920.67z"/>
	<path class="st0" d="M827.82,930.93c1.9,5.79,0.08,10.13,2.87,15.75c-8.88-4.18-12.23-11.07-16.84-16.61
		c-2.37-2.85-2.11-3.08-1.87-8.5C817.91,924.28,819.35,933.81,827.82,930.93z"/>
	<path class="st0" d="M1103.62,1190.34c6.61,13.72,5.08,19.03-6.11,24.41C1095.1,1205.76,1100.3,1198.81,1103.62,1190.34z"/>
	<path class="st0" d="M1292.52,1689.95c-4.49,11.14-9.6,19.1-14.72,28.67c-2.05-3.49-1.51-6.04-1.6-8.41
		c-0.09-2.29-0.02-4.58-0.02-7.12C1281.11,1699.13,1285.92,1695.27,1292.52,1689.95z"/>
	<path class="st0" d="M1024.37,1889.21c3.29-4.96,7.01-8.07,11.11-11.84c4.97,3.82,11.59,3.53,17.71,7.33
		C1043.3,1886.1,1034.74,1889.79,1024.37,1889.21z"/>
	<path class="st0" d="M1504.03,1751.81c-1.33-5.36-0.76-10.68-3.42-15.03c2.61-2.59,5.32-2.81,7.79-3.59
		c2.4-0.76,3.67-4.01,7.39-3.03C1512.84,1737.9,1509.06,1745.01,1504.03,1751.81z"/>
	<path class="st0" d="M1019.07,1883.92c-1.92,6.16-5.44,8.89-11.12,9.23c-4.9,0.29-9.76,1.07-14.73,1.64
		C1000.11,1887.43,1010.02,1883.18,1019.07,1883.92z"/>
	<path class="st0" d="M1273.99,1190.95c4.47,7.54,8.52,14.73,6.04,23.99C1268.81,1207.06,1268.06,1204.09,1273.99,1190.95z"/>
	<path class="st0" d="M516.88,1710.5c5.99-1.07,10.14-1.81,14.63-2.61c3.22,3.3,5.31,7.15,5.75,12.1
		c-4.52,3.41-7.18-0.76-10.23-2.51C523.99,1715.73,521.22,1713.52,516.88,1710.5z"/>
	<path class="st0" d="M757.14,1859.53c5.58-0.34,9.44,0.17,12.77-0.94c7.17-2.39,10.57,1.08,13.1,6.88
		C776.07,1869.06,775.14,1868.87,757.14,1859.53z"/>
	<path class="st0" d="M1048.65,1328.79c2.37-10.9,4.29-20.42,8.82-29.36C1063.58,1311.59,1058.11,1320.03,1048.65,1328.79z"/>
	<path class="st0" d="M618.83,1628.82c8.31,2.93,16.31,6.15,24.96,10.81c-5.19,3.54-9.45,3.89-14.24,3
		C626.3,1637.82,623.36,1632.77,618.83,1628.82z"/>
	<path class="st0" d="M1319.94,1299.3c5.45,8.77,6.8,18.02,9.12,28.55C1319.08,1319.76,1315.83,1311.12,1319.94,1299.3z"/>
	<path class="st0" d="M821.56,1711.74c-4.4,3.96-8.17,3.31-12.17,3.84c-3.13-3.51-6.37-7.15-10.65-11.95
		C807.4,1705.53,815.13,1705.56,821.56,1711.74z"/>
	<path class="st0" d="M29.39,1743.56c5.35,8,10.29,15.36,15.16,22.76c0.31,0.47,0.12,1.28,0.18,2.28c-3.51,2.11-6.11,0.67-8.05-2.41
		c-0.85-1.35-1.46-3.08-1.52-4.65c-0.15-4.05-2.12-6.72-5.37-8.88C26.43,1750.42,25.93,1747.61,29.39,1743.56z"/>
	<path class="st0" d="M1069.45,1878.68c6.48-4.12,12.45-7.48,17.63-12c2.37-2.07,5.39-2.17,8.28-0.57
		C1090.89,1874.6,1083.36,1878.39,1069.45,1878.68z"/>
	<path class="st0" d="M1233.55,1779.05c0.6-4.2,1.19-8.4,1.85-13.05c4.76-2.49,9.55-5,16.01-8.38
		C1246.01,1766.85,1240.24,1773.37,1233.55,1779.05z"/>
	<path class="st0" d="M944.03,1894.16c-7.28,6.06-14.23,2.87-23.11,2.57c5.14-3.81,8.66-6.43,11.92-8.84
		C936.93,1889.09,940.09,1890.73,944.03,1894.16z"/>
	<path class="st0" d="M709.14,1825.71c2.16,2.53,4.25,5.03,5.33,8.88c-9.12,2.91-13.83-3.98-19.87-7.82
		C699.47,1825.83,704.14,1824.33,709.14,1825.71z"/>
	<path class="st0" d="M1181.1,1819.77c5.44-0.93,9.93-1.7,16.05-2.75c-6.38,7.41-13.3,11.26-21.02,16.42
		C1176.84,1827.52,1179.87,1824.19,1181.1,1819.77z"/>
	<path class="st0" d="M571.26,1745.61c6.71-0.67,11.65-0.97,16.47,0.56c2.65,3.27,3.26,7.2,4.59,12.09
		C584.01,1755.96,578.65,1750.6,571.26,1745.61z"/>
	<path class="st0" d="M631.45,1785.56c2.5-0.25,4.13-0.31,5.71-0.6c9.01-1.62,9.01-1.64,13.5,7.72
		C643.15,1794.47,637.27,1792.51,631.45,1785.56z"/>
	<path class="st0" d="M358.24,1640.29c4.69-2.62,8.06-4.5,11.32-6.32c4.27,1.76,7.5,4.24,10.39,7.84
		C370.68,1644.67,370.68,1644.67,358.24,1640.29z"/>
	<path class="st0" d="M157.85,1641.17c-1.85,9.12-10.13,7.65-16.51,11.02C147.14,1639.04,147.85,1638.59,157.85,1641.17z"/>
	<path class="st0" d="M778.19,1707.67c-2.89-3.79-4.67-7.21-5.52-11.76c6.57,0.03,11.88,2.75,18.83,5.5
		C786.34,1703.84,782.63,1705.58,778.19,1707.67z"/>
	<path class="st0" d="M799.05,1867.64c3.87,3.45,7.3,6.5,11.19,9.97c-8.01,0.08-14.24-1.81-22.78-6.83
		C791.86,1869.59,795.74,1868.54,799.05,1867.64z"/>
	<path class="st0" d="M283.29,1546.39c-2.8,3.09-5.78,3.65-9.7,2.43c-11.64-3.64-12.09-3.48-22.19,2.17
		c-2.02-0.22-3.7-1.11-5.19-2.57c0.36-0.4,0.63-0.96,1.07-1.15c1.2-0.52,2.53-1.39,3.7-1.24c10.22,1.26,20.33-1.39,30.51-0.74
		C282,1545.32,282.46,1545.87,283.29,1546.39z"/>
	<path class="st0" d="M874.48,1892.43c3.08-4.28,7.51-4.65,11.43-6.66c3.17,2.77,6.06,5.3,9.85,8.61
		C887.59,1896.23,881.25,1892.45,874.48,1892.43z"/>
	<path class="st0" d="M650.31,1642.92c8.31,3.02,14.1,5.76,19.86,9.79c-4.71,1.64-8.73,3.15-13.88,2.72
		C654.74,1652.18,653.06,1648.67,650.31,1642.92z"/>
	<path class="st0" d="M941.3,900.73c0.76-0.61,0.99-0.94,1.25-0.97c3.78-0.53,7.56-1.02,11.99-1.61
		c-2.69,6.56-6.56,10.79-13.08,13.19C940.72,907.18,940.66,903.74,941.3,900.73z"/>
	<path class="st0" d="M591.28,1615.61c5.87,2.83,11.74,5.66,19.12,9.21c-5.81,0.91-9.62,2.91-14.68,2.74
		c-1.84-3.38-3.82-7.03-5.8-10.67C590.37,1616.47,590.83,1616.04,591.28,1615.61z"/>
	<path class="st0" d="M1435.77,899.07c1.57,4.69,1.04,8.13,0.58,11.79c-8.22-3.96-9.49-5.28-12.56-13.1
		C1427.78,898.44,1431.46,899.99,1435.77,899.07z"/>
	<path class="st0" d="M733.48,1838.85c1.22,3.59,2.25,6.61,3.34,9.83c-7.03-0.89-8.1-1.36-17.69-7.83
		C723.93,1839.02,728.3,1839.13,733.48,1838.85z"/>
	<path class="st0" d="M866.25,1715.69c6.89-1.3,13.1-1.06,18.15,4.72c-2.49,3.78-6.53,3.33-9.7,2.9
		C870.78,1722.77,868.12,1719.59,866.25,1715.69z"/>
	<path class="st0" d="M465.17,1682.5c5.18-0.99,8.98-1.72,12.43-2.38c3.26,1.78,3.78,4.74,5,6.92c-1.27,2.79-3.26,3.02-5.13,2.28
		C473.58,1687.78,469.69,1686.15,465.17,1682.5z"/>
	<path class="st0" d="M826.7,1710.62c7.86,0.09,13.95,1.84,20.76,3.59c-2.85,3.11-6.44,3.97-10,6.15
		C834.21,1717.42,830.94,1714.45,826.7,1710.62z"/>
	<path class="st0" d="M147.02,1793.31c2.88-0.49,5.75-1.12,8.65-1.43c5.09-0.54,8.77,1.4,10.96,6.84
		c-8.15,2.49-14.09-0.35-19.32-5.66C147.3,1793.06,147.02,1793.31,147.02,1793.31z"/>
	<path class="st0" d="M970,1896.97c-6.43,0-12.86,0-20.06,0c2.05-3.51,5.38-5.17,8.99-7.53c3.69,2.02,7.54,4.13,11.39,6.23
		C970.21,1896.11,970.11,1896.54,970,1896.97z"/>
	<path class="st0" d="M764.57,1692.35c-11.16,4.44-11.92,4.2-19.24-6.38C752.65,1686.46,758.42,1689.3,764.57,1692.35z"/>
	<path class="st0" d="M1185.03,94.23c1.5-3.47,1.34-6.53-0.49-9.5c2.65-3.33,5.34-3.6,9-0.54c-1.16,3.02-2.86,6.31-0.75,9.34
		C1190.4,96,1188.26,95.41,1185.03,94.23z"/>
	<path class="st0" d="M556.17,1600.37c-4.62,2.22-8.38,3.22-13.1,2.69c-2.33-2.11-4.13-5.15-6.31-9.23
		C543.59,1595.29,549.34,1597.33,556.17,1600.37z"/>
	<path class="st0" d="M437.23,1668.92c-7.18-2.26-12.53-4.15-17.66-7.44c2.38-2.52,5.04-2.68,7.75-3.62
		C431.02,1660.15,434.99,1662.31,437.23,1668.92z"/>
	<path class="st0" d="M971.19,1698c-4.32,2.3-6.35,6.57-8.69,10.47c-3.9,0.98-6.14-1.93-9.76-2.64c8.49-6.13,11.59-7.35,18.7-7.62
		L971.19,1698z"/>
	<path class="st0" d="M210.37,1630.59c-4.18,4.71-9.42,4.86-15.18,4.66c0.79-3.94,4.24-4.62,6.04-6.84
		c1.02-1.26,2.45-2.59,4.17-2.06C207.16,1626.9,209.29,1627.33,210.37,1630.59z"/>
	<path class="st0" d="M214.22,1813.7c-6.47-0.05-12.83-0.33-19.11-3.05C202.76,1806.06,208.87,1807.95,214.22,1813.7z"/>
	<path class="st0" d="M403.99,1655.65c-7.76-2.72-13.52-4.73-19.53-6.84C395.35,1643.2,396.97,1646.24,403.99,1655.65z"/>
	<path class="st0" d="M307.4,1623.34c3.87,0.81,6.35,2.65,8.51,5.43c-4.71,4.07-9.34,2.25-14.65,1.3
		C302.21,1625.93,305.24,1624.87,307.4,1623.34z"/>
	<path class="st0" d="M1120.99,1862.46c-6.54,2.59-11.54,4.57-17.45,6.91c0.93-5.28,4.15-7.46,6.43-10.04
		C1113.68,1858.95,1116.6,1860.22,1120.99,1862.46z"/>
	<path class="st0" d="M489.05,1577.16c-3.17,2.61-6.07,2.84-8.85,3.54c-3.15-1.9-5.58-4.46-7.76-7.42
		C478.37,1572.94,478.37,1572.94,489.05,1577.16z"/>
	<path class="st0" d="M507.59,1583.66c6.37,1.03,11.69,2.77,17.08,6.35C514.28,1592.6,513.69,1592.38,507.59,1583.66z"/>
	<path class="st0" d="M582.59,1618.03c-8.6-0.59-10.93-7.26-16.05-11.16C574.94,1606.39,577.52,1608.13,582.59,1618.03z"/>
	<path class="st0" d="M59.63,1780.9c4.66,3.71,8.05,6.2,11.16,8.99c1.21,1.08,1.75,2.95,0.19,4.34c-1.4,1.25-3.17,1.01-4.54-0.05
		C62.6,1791.21,62.12,1786.55,59.63,1780.9z"/>
	<path class="st0" d="M714.46,1673.41c5.28,1.48,9.3,2.63,13.28,4.96c-2.22,3.57-6.14,2.97-9.01,4.39
		C715.88,1680.49,715.37,1677.61,714.46,1673.41z"/>
	<path class="st0" d="M382.55,1552.47c5.17,1.32,10.71,0.05,15.47,3C392.63,1560.92,391.15,1560.65,382.55,1552.47z"/>
	<path class="st0" d="M1169.29,90.85c4.4-5.2,4.4-5.2,9.44-6.91c2.15,0.85,2.31,3.01,3.2,4.94
		C1178.76,93.63,1174.47,91.43,1169.29,90.85z"/>
	<path class="st0" d="M1208.41,90.66c-4.36,0.88-7.98,2.4-11.44-0.51c-0.99-2.83,0.29-4.58,2.48-6.4
		C1203.23,84.41,1206.49,85.9,1208.41,90.66z"/>
	<path class="st0" d="M665.96,1810.28c-5.57-3.6-9.57-6.18-14.26-9.22C662.24,1799.2,662.46,1799.33,665.96,1810.28z"/>
	<path class="st0" d="M324.43,1631.47c0.5-0.43,0.92-1.01,1.5-1.25c1.53-0.63,3.13-1.11,5.38-1.89c2.28,2.07,5.92,2.87,8.29,6.24
		C331.37,1635.4,329.87,1635.08,324.43,1631.47z"/>
	<path class="st0" d="M542.32,1727.3c3.41-2.19,5.82-2.53,8.97-1.31c0.82,2.28,1.77,4.92,3.14,8.72
		C549.32,1733.1,546.35,1730.38,542.32,1727.3z"/>
	<path class="st0" d="M164.63,1629.01c-1.3,3.8-2.48,6.06-5.16,7.76c-3.08-0.55-6.41-1.15-10.83-1.94
		C153.86,1631.62,158.59,1630.73,164.63,1629.01z"/>
	<path class="st0" d="M218.49,1631.25c-0.03-3.12,2.08-4.22,3.84-5.44c1.91-0.59,3.31,0.36,4.74,1.15c1.37,0.75,3.21,0.98,3.6,3.71
		C226.56,1631.1,222.61,1632.04,218.49,1631.25z"/>
	<path class="st0" d="M126.94,1658.44c-3.29,1.63-6.18,3.06-9.47,4.69c-1.71-4.06-0.14-7.01,1.95-10.24
		C122.51,1654.02,125.52,1654.78,126.94,1658.44z"/>
	<path class="st0" d="M117.08,1773.08c2.92,0.07,5.86-0.07,8.74,0.27c2.85,0.34,4.71,1.98,4.55,5.18
		c-8.23,1.93-10.23,1.05-13.03-5.69L117.08,1773.08z"/>
	<path class="st0" d="M1242.33,159.39c0.08-1.3,0.07-2.62,0.27-3.9c0.82-5.34,0.44-10.34-6.17-15.19
		c9.08,3.72,10.72,5.82,8.89,11.58c-0.77,2.42,0.65,6.18-3.23,7.3L1242.33,159.39z"/>
	<path class="st0" d="M267.45,1629.1c1.83-3.76,3.81-4.94,5.86-6.09c2.95,0.44,4.03,2.89,6.29,5.12
		C275.38,1629.81,271.92,1628.78,267.45,1629.1z"/>
	<path class="st0" d="M446.39,1565.64c6.09-0.08,10.33,2.02,16.06,3.43C453.46,1573.64,453.46,1573.64,446.39,1565.64z"/>
	<path class="st0" d="M246.77,1628.88c2.11-3.71,4.81-4.94,7.28-6.4c1.85,0.68,4.07,0.65,4.51,2.67c0.3,1.67-0.58,2.31-1.36,2.81
		C254.18,1629.9,250.86,1628.99,246.77,1628.88z"/>
	<path class="st0" d="M118.23,1574.47c4.42-2.28,8.14-4.2,12.69-2.76C126.63,1578.11,125.95,1578.27,118.23,1574.47z"/>
	<path class="st0" d="M328.22,1547.95c4.99,0,9.56,0,15.27,0C335.08,1553.33,335.08,1553.33,328.22,1547.95z"/>
	<path class="st0" d="M168.14,1635.92c2.91,1.31,6.17,1.09,7.75,4.8c-3.26,0.91-6.29,1.8-9.35,2.55c-0.5,0.12-1.15-0.42-1.75-0.66
		C164.52,1640.06,166.21,1638.43,168.14,1635.92z"/>
	<path class="st0" d="M1044.9,1346.66c4.63,6.9,1.62,11.44-1.04,17.16C1041.72,1357.67,1044.51,1353.11,1044.9,1346.66z"/>
	<path class="st0" d="M7.06,1681.47c1.07-5.61,0.9-10.08,5.82-14.37C11.47,1672.57,14.53,1678,7.06,1681.47z"/>
	<path class="st0" d="M409.37,1557.72c4.54-1.11,7.85,2.77,12.17,1.93C414.84,1565.47,414.27,1565.35,409.37,1557.72z"/>
	<path class="st0" d="M498.84,1699.37c-5.07-0.07-7.27-3.49-11.14-4.54C494.85,1691.02,494.85,1691.02,498.84,1699.37z"/>
	<path class="st0" d="M1578.77,921.12c1.81-1.59,3.46-3.59,6.61-3.59c-0.5,3.86-2.54,6.61-4.87,10.17
		C1578.42,925.45,1578.39,923.4,1578.77,921.12z"/>
	<path class="st0" d="M1339.96,1433.76c-4.8-5.28-2.79-9.34-0.14-14.75C1341.57,1424.41,1339.82,1428.47,1339.96,1433.76z"/>
	<path class="st0" d="M40.42,1620.57c-0.61,6.72-0.61,6.72-6.17,8.16C35.69,1623.85,35.68,1623.84,40.42,1620.57z"/>
	<path class="st0" d="M139.5,1567.94c3.92-2.7,7.06-3.33,10.26-4.07C148.54,1570.34,148.54,1570.34,139.5,1567.94z"/>
	<path class="st0" d="M793.04,917.55c3.03,0.6,4.78,2.05,6.46,3.59c0.32,2.07-0.54,3.82-1.76,6.29
		C794.86,924.56,793.39,921.57,793.04,917.55z"/>
	<path class="st0" d="M1333.65,1350.02c0.56,3.46,1.88,7.43,0.31,12.6c-2.61-4.31-4.13-7.97-3.07-12.27
		C1331.12,1349.42,1331.98,1348.8,1333.65,1350.02z"/>
	<path class="st0" d="M147.3,1793.06c-5.05-0.47-9.17-2.74-13.29-6.64c2.96-1.79,5.18-1.67,7.17,0.35c2.04,2.08,3.9,4.35,5.83,6.53
		L147.3,1793.06z"/>
	<path class="st0" d="M451.85,1675.78c-4.58-0.26-7.25-1.96-9.88-3.93C446.87,1667.73,447.36,1667.9,451.85,1675.78z"/>
	<path class="st0" d="M45.73,1614.92c2.26-3.65,4.33-6.13,7.77-7.2C53.14,1614.39,53.14,1614.39,45.73,1614.92z"/>
	<path class="st0" d="M86.66,1696.21c2.32,3.43,1.72,6.22,1.18,9.08C82.55,1700.62,82.51,1700.39,86.66,1696.21z"/>
	<path class="st0" d="M7.12,1709.55c-0.85-5.49-1.48-9.55-2.45-15.83C8.56,1699.58,11.65,1703.27,7.12,1709.55z"/>
	<path class="st0" d="M117.34,1772.85c-4.98,1.24-6.11-3.48-10.58-5.53c4.05-1.81,6.34-2.25,7.36,1.01
		c0.61,1.94,1.38,3.54,2.96,4.76L117.34,1772.85z"/>
	<path class="st0" d="M1134.06,156.11c4.16,2.22,1.84,7.1,4.31,9.48c-0.86,3.01-2.66,4.33-5.97,6.4c2.57-6.01,2.64-11.03,1.89-16.09
		L1134.06,156.11z"/>
	<path class="st0" d="M12.84,1661.9c1.15-4.99,2.29-7.9,5.1-10.3C18.67,1655.72,18.77,1659.24,12.84,1661.9z"/>
	<path class="st0" d="M170.29,1558.93c3.89-1.67,6.73-2.3,9.79-1.27C176.16,1561.8,176.16,1561.8,170.29,1558.93z"/>
	<path class="st0" d="M1037.42,1418.75c4.12,4.43,3.62,8.68,2.18,13.08C1038.55,1427.88,1036.15,1424.19,1037.42,1418.75z"/>
	<path class="st0" d="M1242.09,159.18c0.43,3.83,1.54,7.48,3.71,11.26c-6.76-2.47-6.76-2.47-3.47-11.05L1242.09,159.18z"/>
	<path class="st0" d="M100.07,1581.43c-1.44,6.63-5.26,5.74-9.34,5.39C92.69,1583.04,96.21,1583.13,100.07,1581.43z"/>
	<path class="st0" d="M88.33,1721.61c2.65,1.73,2.52,4.06,2.6,6.31c-1.45,1.59-2.34-0.03-3.18-0.66
		C84.69,1724.96,85.65,1723.21,88.33,1721.61z"/>
	<path class="st0" d="M152.06,1788.15c-3.33,1.76-5.32,0.28-6.94-2.56C148.52,1784.77,148.52,1784.77,152.06,1788.15z"/>
	<path class="st0" d="M175.06,1804.72c5.06-1.18,5.06-1.18,8.7,1.93C179.02,1806.94,179.02,1806.94,175.06,1804.72z"/>
	<path class="st0" d="M1134.29,155.9c-3.11-8.8-3.11-8.8,3.03-14.29c1.09,3.11-2.42,4.3-2.4,6.75c0.02,2.58-0.55,5.17-0.87,7.75
		L1134.29,155.9z"/>
	<path class="st0" d="M89.59,1691.34c-1.14-2.56-1.71-4.86-0.53-7.28c1.57-1.33,3.12-0.85,4.88-0.19
		C93.35,1686.7,92.63,1689.41,89.59,1691.34z"/>
	<path class="st0" d="M295.38,1545.93c3.15,0,5.75,0,8.26,0c0.52,1.39-0.48,1.79-1.1,2.29
		C299.86,1550.39,297.73,1549.61,295.38,1545.93z"/>
	<path class="st0" d="M606.42,1768.23c-2.56,0-3.95-1.86-5.88-3.41C605.58,1764.17,605.58,1764.17,606.42,1768.23z"/>
	<path class="st0" d="M107.21,1669c-0.27-1.14-0.78-2.08-0.62-2.9c0.34-1.72-0.16-4.08,2.48-4.51c0.5-0.08,1.42,0.28,1.6,0.68
		c0.85,1.89,0.38,3.73-0.9,5.24C109.21,1668.16,108.21,1668.44,107.21,1669z"/>
	<path class="st0" d="M198.65,1554.11c-2.82,4.15-5.35,4.41-9.25,1C192.53,1553.38,195,1552.93,198.65,1554.11z"/>
	<path class="st0" d="M93.41,1736.18c2.97,1.17,4.15,3.33,4.72,5.99c-0.67,0.23-1.35,0.73-1.81,0.57
		C93.08,1741.65,91.43,1739.79,93.41,1736.18z"/>
	<path class="st0" d="M70.89,1596.72c1.28-3.18,4.11-3.52,5.92-4.98c1.56,0.99,1.42,2.06,0.62,2.64
		C75.69,1595.65,74.47,1598.3,70.89,1596.72z"/>
	<path class="st0" d="M355.16,1550.14c2.41-1.36,4.84-1.35,7.26-0.36c0.61,1.19-0.08,1.85-0.86,2.3
		C358.29,1553.95,358.28,1553.93,355.16,1550.14z"/>
	<path class="st0" d="M978.21,542c3.13,1.43,5,2.84,3.8,6.53C979.08,547.23,977.81,545.47,978.21,542z"/>
	<path class="st0" d="M108.95,1756.54c2.66,1.16,4.22,2.09,4.15,4.77C109.82,1761.79,108.52,1760.55,108.95,1756.54z"/>
	<path class="st0" d="M1400.29,541.6c-0.17,4.2-1.59,5.96-4.97,6.93C1395.06,544.94,1396.93,543.49,1400.29,541.6z"/>
	<path class="st0" d="M187.38,1801.96c3.6,0.22,5.69,0.9,8,2.69C192,1806.33,189.81,1805.29,187.38,1801.96z"/>
	<path class="st0" d="M1386.01,541.71c-0.21,0.81-0.19,1.17-0.36,1.37c-1.03,1.15-2.08,2.42-3.85,1.74
		c-0.38-0.15-0.77-1.08-0.67-1.55c0.41-1.92,2.13-1.96,3.64-2.2C1384.99,541.03,1385.28,541.32,1386.01,541.71z"/>
</g>
</svg>
