<?xml version="1.0" encoding="utf-8"?>
<!-- Generator: Adobe Illustrator 24.1.2, SVG Export Plug-In . SVG Version: 6.00 Build 0)  -->
<svg version="1.1" id="Layer_1" xmlns="http://www.w3.org/2000/svg" xmlns:xlink="http://www.w3.org/1999/xlink" x="0px" y="0px"
	 width="2375.75" height="1903.27" viewBox="0 0 2375.75 1903.27" style="enable-background:new 0 0 2375.75 1903.27;" xml:space="preserve">
<style type="text/css">
	.st0{fill:#1A1A1A;}
</style>
<g>
	<path d="M967.2,1487.87c-9.24-8.78-17.52-18.31-25.17-28.37c-2.62-3.44-5.55-6.77-7.5-10.58c-8.15-15.98-20.89-28.3-32.65-41.34
		c-13.89-15.39-25.68-32.28-36.91-49.59c-4.92-7.58-8-16.17-10.46-24.77c-5.7-19.86-13.67-38.89-20.84-58.2
		c-3.32-8.94-3.43-17.44-0.23-26.24c2.95-8.12,4.33-16.71,7.65-24.75c15.56-37.62,33.02-74.13,59.74-105.45
		c14.09-16.51,30.09-31.02,46.31-45.33c18.55-16.36,39.47-29.37,60.1-42.81c15.34-9.99,14.75-7.16,18.57-27.06
		c1.56-8.12-0.1-15.94-1.8-23.55c-4.72-21.12-8.36-42.45-10.06-63.92c-1.27-16.15-1.7-32.58,0.73-48.82
		c0.13-0.89-0.29-1.86-0.56-3.35c-11.23-0.47-22.47,0.49-33.62-1.9c-10.85-2.33-20.52-7.08-30.52-12.85
		c-0.76,3.69,1.48,5.49,2.57,7.69c1.03,2.08,1.79,4.33,3,6.3c6.18,10.04,6.54,20.8,3.57,31.75c-2.89,10.65-10.86,17.23-19.89,22.57
		c-2.42,1.43-4.72-0.35-5.55-2.68c-0.76-2.11-0.81-4.56-0.78-6.86c0.1-7.23-2.37-12.83-8.95-16.54c-2.84-1.6-5.19-4.12-7.7-6.28
		c-5.36-4.61-8.08-10.16-7.51-17.55c0.54-6.96-1.09-13.67-5.24-20.21c-10.65,6.65-19.8,13.43-22.2,26.1
		c-0.37,1.95-1.41,3.78-1.72,5.73c-2.51,15.55-12.2,24.61-26.58,29.21c-5.74,1.84-8.9,5.34-9.92,11.19
		c-1.02,5.84-2.64,11.58-2.19,16.85c-2.8,2.93-5.01-0.2-7.2,0.77c-2.61,5.32,1.66,10.3,0.83,15.88c-4.88,2.44-9.04,0.33-12.66-2.56
		c-4.39-3.51-8.94-6.94-12.17-11.75c-1.82-2.7-4.07-5.12-6.22-7.8c-3.12,1.37-1.78,5.22-4.68,6.59c-8.06-3.97-12.58-11.1-15.8-19.29
		c-4.82-12.28-4.1-24.76-1.08-37.25c2.95-12.19,8.65-22.55,17.72-31.69c16.39-16.54,27.13-36.85,35.36-58.53
		c3.54-9.33,7.03-18.68,10.91-27.86c7.78-18.43,19.76-25.21,40.07-23.87c6.66,0.44,13.23,1.05,19.79,2.19
		c11.83,2.05,23.68,1.84,35.57,0.27c3.37-0.44,6.48-1.43,9.55-2.69c6.15-2.53,12.21-5.27,18.4-7.68c3.11-1.21,5.06-3.11,5.53-6.4
		c0.57-3.94,1.53-7.89,1.49-11.82c-0.22-20.8,3.14-40.91,10.95-60.23c0.62-1.54,1-3.27,1.96-4.57c6.98-9.51,7.98-20.73,9.86-31.86
		c4.77-28.34,17.75-52.04,41.11-69.49c10.67-7.97,21.24-16.03,32.32-23.46c8.6-5.76,15.59-13.19,20.23-22.87
		c4.2-8.77,7.42-17.74,9.76-27.14c4.32-17.42,9.22-34.71,13.16-52.22c2.42-10.76,2.2-21.78-1.03-32.53
		c-1.24-4.14-2.43-8.3-3.75-12.42c-2.63-8.21-5.55-16.35-6.12-24.96c-2.43-0.54-3.01,1.05-3.86,2.49
		c-5.49,9.27-12.39,17.28-21.23,23.57c-6.62,4.71-10.29,10.92-10.36,19.36c-0.13,14.46-4.76,27.4-14.33,38.42
		c-5.08,5.85-11.22,10.45-17.71,14.5c-5.96,3.72-9.85,8.72-12.02,14.92c0.52,2.91,2.52,4.33,4.2,5.85c2.86,2.59,4.62,5.84,5.14,9.48
		c0.83,5.8,3.36,10.92,6.52,15.53c4.79,6.98,3.84,13.64,0.63,20.66c-1.8,3.93-4.21,7.29-7.73,11.1
		c-4.37-10.08-13.27-15.77-16.47-26.66c-5.49,6.98-10.95,12.2-10.94,20.67c0,2.53-0.85,5.52-2.34,7.52
		c-4.92,6.61-5.5,14.08-5.46,21.82c0.01,1.55-0.46,3.09-0.74,4.84c-5.36-0.4-6.68-6.48-11.65-6.35c-2.86,1.92-0.51,5.65-2.58,8.12
		c-0.82-0.1-1.91,0.05-2.7-0.36c-7.19-3.71-11.66-9.66-14.1-17.28c-1.41-4.4-2.69-8.78-4.94-12.95c-2.54-4.68-3.3-10.13-3.06-15.5
		c0.16-3.59,0.86-6.93,3.76-9.88c5.24-5.31,7.69-12.38,10.22-19.25c4.83-13.09,9.79-26.15,14.27-39.37
		c2.87-8.48,5.41-17.13,7.31-25.87c3.98-18.26,11.93-34.53,23.4-49.12c7.92-10.07,13.46-21.18,17.34-33.4
		c4.35-13.71,12.47-25.69,19.27-38.26c2.05-3.8,4.49-7.39,6.68-11.12c1.51-2.58,2.98-5.18,3.54-8.2c2-10.79,7.68-19.79,14.36-28.13
		c10.09-12.61,24.46-16.65,39.63-18.25c6.31-0.67,12.35-2.08,18.51-3.35c8.14-1.69,10.09-7.79,12.89-13.74
		c0.8-1.69,0-3.21-0.35-4.82c-1.36-6.16-4.78-11.2-9.81-14.57c-6.33-4.25-11.24-9.25-13.53-16.63c-1.19-3.81-4.09-5.77-7.75-7.09
		c-7.35-2.65-13.45-7.3-18.71-12.96c-6.56-7.05-8.5-15.37-6.02-25.61c5.27,2.14,7.13,7.81,11.56,9.34
		c4.53,1.56,9.29,3.73,14.53,2.14c-0.69-3.92-3.82-5.36-6.61-7.08c-8.46-5.22-14.22-12.82-19.24-21.21
		c-9.19-15.36-5.46-30,2.2-44.43c1.2-2.26,2.97-4.48,6.48-4.48c-0.74,8.59,2.72,16.28,5.22,24.14c2.49,7.82,8.94,10.62,18.1,12.42
		c-8.7-15.21-15.88-29.23-15.55-45.85c0.19-9.43,1.15-18.53,4.46-27.39c3.28-8.77,7.17-17.2,12.47-24.93
		c1.28-1.86,2.84-3.77,5.62-3.69c2.84,1.18,2.17,3.8,2.18,5.99c0.08,9.64-0.27,19.29,1.46,28.85c0.95,5.23,1.32,10.66,2.99,15.65
		c5.17,15.42,15.85,24.88,31.99,27.97c1.68,0.32,3.22,0.31,4.89-0.07c5.93-1.36,11.95-0.88,17.89-0.3
		c14.35,1.41,27.13-5.09,34.15-17.43c5.06-8.9,7.03-18.64,7.91-28.58c0.73-8.27,0.55-16.63,0.78-24.95
		c0.07-2.61-0.51-5.45,2.44-7.22c3.42,0.01,5.31,2.6,6.76,5.08c9.18,15.64,16.48,31.86,16.17,50.62c-0.24,14.43-5,27.32-12.12,39.56
		c-1.13,1.95-3.05,3.51-2.94,6.87c8.21-1.92,15.16-4.77,17.72-13.65c2.17-7.54,5.53-14.81,4.68-23.34c3.86,0.47,5.71,2.94,7,5.42
		c7.91,15.2,11.06,30.52,0.55,46.04c-5.08,7.5-10.43,14.63-18.46,19.29c-2.54,1.47-5.32,2.83-6.27,6.02
		c10.4,1.94,14.64,0.14,24.08-10.23c2.6-0.08,3.55,1.74,3.55,3.8c0.02,7.84-1.58,15.2-7.23,21.13
		c-5.11,5.36-10.81,10.01-17.76,12.65c-4.68,1.78-7.92,4.24-9.48,9.25c-1.84,5.91-5.9,10.45-11.17,13.63
		c-3.26,1.97-5.6,4.66-7.72,7.65c-7.72,10.85-4.2,22.46,8.22,27.55c4.43,1.82,9.08,2.29,13.7,2.09c11-0.48,20.88,3.39,30.79,7.3
		c5.78,2.28,10.21,6.46,13.89,11.15c6.8,8.65,12.89,17.82,14.94,28.97c0.69,3.73,2.78,6.7,4.61,9.86
		c8.17,14.1,16.54,28.09,23.13,43.05c2.41,5.48,3.55,11.36,6.11,16.86c3.13,6.71,6.71,13.04,11.29,18.76
		c12.47,15.62,20.48,33.2,25.35,52.59c4.36,17.36,9.5,34.57,16.71,51.06c1.46,3.34,2.26,6.96,3.53,10.39
		c2.89,7.8,5.62,15.69,11.28,22.09c3.82,4.32,4.73,9.45,3.39,14.88c-1.11,4.48-1.6,9.25-4.63,13.07c-1.97,2.49-1.89,5.62-2.79,8.44
		c-2.73,8.53-7.26,15.63-16.03,19.22c-3.87-1.64-0.11-6.72-4.1-8.35c-4.63-0.3-5.94,5.74-10.85,6.37c-1.62-3.28-1.05-6.61-0.98-9.77
		c0.1-5.16-0.78-9.9-4.14-14.02c-1.92-2.36-3.52-5.16-3.43-8.16c0.29-9.58-5.68-15.79-11.84-23.53
		c-2.24,11.41-11.56,16.82-16.42,25.48c-10.47-8.28-12.69-18.76-6.79-29.73c2.83-5.26,5.93-10.43,6.75-16.54
		c0.46-3.43,2.28-6.17,4.71-8.6c1.62-1.63,3.63-3,4.41-5.85c-2.15-6.13-5.96-11.11-11.88-14.91c-8.99-5.75-17.31-12.31-23.07-21.7
		c-4.61-7.52-7.7-15.4-8.38-24.23c-0.33-4.29-0.63-8.63-1.5-12.83c-1.03-4.98-3.36-9.44-7.76-12.36
		c-10.77-7.14-18.74-16.78-24.85-27.76c-1.63-0.02-2.03,0.98-2.15,1.81c-1.72,12.24-6.42,23.67-9.64,35.5
		c-3.31,12.17-3.42,24.57-0.68,36.56c4.96,21.7,10.59,43.29,16.98,64.62c4.3,14.37,13.39,26.01,26.03,34.35
		c13.63,9,26.93,18.48,39.23,29.17c17.4,15.12,27.53,34.78,32.58,57.1c1.54,6.79,2.86,13.68,3.57,20.6
		c0.39,3.82,1.54,7.05,3.43,10.22c8.14,13.65,12.37,28.62,14.86,44.16c1.53,9.51,2.57,19.06,2.23,28.75
		c-0.18,5.3,0.7,10.59,2.91,15.39c8.12,3.51,15.95,7.2,24,10.3c9.45,3.64,19.57,3.61,29.45,3.48c7.24-0.1,14.42-2.2,21.68-2.88
		c7.19-0.68,14.38-1.69,21.68-0.85c14.55,1.67,24.72,8.93,30.08,22.71c3.97,10.23,8.03,20.42,11.99,30.65
		c7.14,18.44,16.52,35.59,29.17,50.86c1.91,2.3,3.77,4.71,6.02,6.65c11.85,10.21,16.32,24,18.6,38.68
		c1.49,9.59,1.44,19.28-1.99,28.6c-3.06,8.3-7.64,15.47-15.58,20.08c-3.17-0.86-2.62-4.41-4.66-6.06c-0.45,0.16-1.17,0.19-1.45,0.56
		c-4.83,6.36-9.7,12.59-16.13,17.58c-3.9,3.02-7.82,4.78-12.84,4.75c-3.45-5.65,2.13-11.01,0.17-16.99
		c-1.88-1.37-3.98,1.56-6.86,0.06c-0.61-3.48-1.31-7.56-2.05-11.62c-0.42-2.29-0.92-4.56-1.37-6.83c-1.07-5.4-4.1-9-9.57-10.31
		c-4.6-1.1-8.68-3.17-12.44-6.08c-7.36-5.71-12.5-12.75-14.13-22.1c-0.29-1.64-0.85-3.22-1.15-4.86
		c-2.41-13.28-11.33-21.23-22.42-27.8c-4.56,4.93-5.96,10.94-5.29,16.79c1.46,12.59-5.39,20.37-14.68,26.23
		c-7.13,4.5-10.13,10.12-9.52,18.17c0.3,3.86-0.25,7.37-5.34,9.53c-11.26-6.7-20.85-14.94-22.47-29.87
		c-1.17-10.76,1.42-20.41,6.68-29.61c1.64-2.86,3.92-5.41,4.74-9.96c-10.45,5.25-20.04,10.79-31.1,13
		c-10.91,2.18-21.8,1.99-32.65,1.76c-2.36,1.84-1.5,4.21-1.5,6.48c0.04,16.32,0.84,32.69-0.23,48.94
		c-1.27,19.21-4.68,38.23-8.83,57.07c-1.28,5.84-2.18,11.73-2.89,17.68c-0.94,7.89,1.36,15.14,3.21,22.53
		c1.24,4.93,5.15,7.52,9.1,10.1c11.14,7.29,22.04,14.97,33.39,21.91c16.3,9.96,30.4,22.6,44.67,35.08
		c13.55,11.85,25.99,24.81,37.58,38.58c13.36,15.87,24.34,33.29,33.83,51.68c9,17.44,17.68,35.06,24.24,53.58
		c3.1,8.75,5.45,17.76,8.15,26.65c2.13,7,1.12,13.65-1.44,20.41c-6.11,16.17-11.93,32.44-17.79,48.71
		c-1.58,4.37-2.89,8.84-4.27,13.28c-6.9,22.11-21.02,39.92-34.97,57.7c-10.88,13.86-22.67,27-35.24,39.4
		c-2.15,2.12-3.88,4.49-5.43,7.1c-8.91,14.93-19.32,28.76-31.78,40.87c-4.55,4.42-5.13,8.81-3.27,14.3
		c2.58,7.64,6.79,14.45,10.89,21.28c15.43,25.7,32.05,50.61,49.71,74.85c12.14,16.67,24.03,33.55,35.19,50.88
		c11.3,17.54,18,36.96,20.1,57.85c0.2,1.95,0.62,3.88,1.05,6.5c8.14,0.76,15.8-1.39,23.41-3.02c25.09-5.4,49.28-13.81,73.34-22.62
		c26.57-9.73,53.05-19.66,78-33.17c37.81-20.47,77.73-36.33,117.13-53.26c15.55-6.68,31.81-11.74,47.84-17.29
		c15.08-5.22,30.22-10.29,45.45-15.09c11.1-3.5,22.69-4.91,34.12-6.95c11.76-2.1,23.42-4.81,35.19-6.9
		c24.88-4.41,49.9-7.15,75.23-7.91c16.95-0.51,33.9-1.23,50.86-1.04c27.3,0.31,54.35,3.35,81.15,8.43
		c26.17,4.96,51.86,11.8,76.82,21.21c22.49,8.48,44.35,18.18,63.31,33.35c23.55,18.84,40.77,42.01,47.33,71.89
		c4.84,22.05,2.6,43.65-6.8,64.35c-12.81,28.21-33.82,49.17-59.07,66.19c-30.45,20.53-64.17,33.48-99.69,42.12
		c-18.44,4.48-37.26,6.72-55.93,9.84c-1.96,0.33-3.98,0.53-5.96,0.5c-21.98-0.24-44.01,1.07-65.95-0.7
		c-53.33-4.31-104.15-17.33-150.83-44.4c-14.3-8.3-26.27-19.21-36.81-31.8c-1.04-1.24-1.64-2.85-2.43-4.25
		c2.66-2.12,4.57-0.13,6.56,0.8c27.19,12.76,55.18,23.21,84.77,28.92c21.55,4.16,43.2,7.47,65.25,7.55
		c5.29,0.02,10.59,1.36,15.85,1.19c35.93-1.16,71.67-4.19,106.41-14.09c25.65-7.31,50.58-16.45,72.59-32.11
		c12.6-8.96,23.72-19.27,32.08-32.44c5.7-8.98,9.04-18.99,8.88-29.2c-0.19-11.9-5.58-22.5-14.81-30.59
		c-4.52-3.96-9.62-7.09-15.05-9.69c-32.68-15.64-66.98-25.49-102.96-29.93c-13.87-1.71-27.84-3.05-41.67-2.85
		c-20.53,0.29-41.02,2.59-61.4,5.93c-37.49,6.14-72.16,20.26-106.48,35.69c-25.23,11.35-49.2,25.09-73.6,38.01
		c-6.45,3.41-12.45,7.72-18.51,11.83c-15.43,10.46-31.35,20.15-47.16,30.02c-11.84,7.39-23.12,15.67-34.62,23.61
		c-20.26,14-39.8,29.21-60.91,41.78c-28.83,17.17-57.99,33.94-89.08,47c-35.12,14.76-71.55,24.51-109.23,29.85
		c-13.16,1.87-26.38,2.91-39.6,4.17c-18.65,1.78-37.32,1.8-55.86,0.83c-50.7-2.64-100.22-11.76-147.78-30.33
		c-23.65-9.23-46.21-20.63-67.47-34.29c-17.06-10.95-32.24-24.39-46.31-39.27c-12.63-13.35-23.83-27.77-35.3-42
		c-9.84-12.21-17.25-26.09-24.5-39.96c-7.4-14.14-14.23-28.58-21.61-42.73c-6.97-13.36-11.71-27.48-15.51-41.99
		c-1.99-7.6-4.05-15.17-6.24-23.34c-2.14,2.48-1.62,4.49-1.67,6.37c-0.76,26.55-12.57,47.78-31.62,65.45
		c-3.44,3.19-7.61,5.37-13.04,5.32c-1.5-4.96,1.01-9.69,1.79-14.29c1.15-6.81-0.92-13.15-0.98-19.72c-0.03-3.07-2.28-5.42-6.52-6.32
		c-2.3,7.03-4.7,14.11-5.52,21.55c-0.97,8.9-1.58,17.86-2.04,26.8c-0.21,4-0.91,7.91-1.3,11.85c-1.26,12.77-7.58,22.95-17.23,30.39
		c-7.83,6.04-9.61,13.9-10.79,22.43c-0.77,5.56-0.92,11.2-3.55,16.19c-8.93,0.21-12.76-2.77-22.62-17.51
		c-3.14,1.27-4.7,4.44-7.23,6.41c-3.42,2.66-4.71,6.16-4.75,10.45c-0.04,3.98-0.28,8.03-1.09,11.9c-1.8,8.57-6.97,10.27-13.37,4.42
		c-6.41-5.87-11.86-12.55-16-20.28c-3.62-6.75-6.09-13.97-8.88-21.23c-5.63,2.25-0.85,9.56-7.5,12.05c-4.13,0.16-6.6-4.13-9.24-7.78
		c-4.36-6.02-6.08-13.26-8.23-20.23c-1.37-4.44-2.11-9.07-3.4-13.53c-3.33-11.58-1.71-22.94,1.03-34.35
		c5.14-21.38,15.4-39.98,28.07-57.92c24.75-35.05,50.19-69.68,72.26-106.56c3.25-5.42,6.46-10.88,9.38-16.48
		C964.94,1499.4,967.26,1494.56,967.2,1487.87z"/>
	<path class="st0" d="M1424.35,1337.34c6.38-3.87,11.06-9.91,17.67-14.57c3.85,7.18,5.31,14.63,7.16,21.83
		c9.84,38.24,2.04,73.13-20.87,104.86c-9.93,13.76-20.67,26.88-33.77,37.84c-12.92,10.8-26.97,19.15-43.9,22.41
		c-13.73,2.64-27.33,5.84-41.41,5.17c-8.28-0.4-16.57-1.14-24.79-2.2c-15.49-2.01-30.63-5.78-45.8-9.41
		c-9.69-2.32-19.41-4.48-31.06-7.15c5.33-1.07,8.86-1.94,12.45-2.44c3.57-0.51,7.3,0.56,11.92-1.25
		c-23.57-5.68-45.65-0.76-67.72,3.29c-0.32-2.99,1.53-3.47,2.74-4.44c1.03-0.83,2.04-1.67,3.19-2.62c-2.67-1.89-4.46,0.31-6.31,1.06
		c-12.02,4.81-23.52,10.82-36.1,14.37c-15.73,4.43-31.71,7.33-47.86,9.32c-7.21,0.89-14.46,1.84-21.83,1.64
		c-18.8-0.5-37.02-4.27-54.62-10.39c-9.39-3.26-17.64-9.5-25.15-16.04c-20.51-17.87-37.63-38.51-49.31-63.31
		c-5.43-11.52-9.02-23.5-10.19-36.28c-1.82-19.82,0.73-39.01,7.25-57.72c0.86-2.46,0.66-5.33,3.27-7.95
		c7.17,3.7,11.84,10.95,18.85,15.13c1.6-2.27-0.49-3.13-1.45-4.12c-14.68-15.17-26.7-32.27-36.17-51.06
		c-11.36-22.55-15.19-46.46-12.15-71.65c1.27-10.55,2.15-21.09,4.2-31.57c8.67-44.36,34.63-76.38,71.85-99.89
		c20.85-13.17,43.23-23.53,67.36-29.53c7.06-1.75,14.14-3.4,21.02-5.05c3.32,2.65,2.51,7.24,5.72,9.55c1.8-3.32,0.23-6.47-0.38-9.67
		c-0.58-3.06,1.38-4.1,4.26-4.77c4.99,7.31,10.83,14.06,17.9,19.78c1.59-2.71-0.64-3.9-1.83-5.21c-4.08-4.46-7.14-9.61-10.35-14.66
		c-1.11-1.75-1.63-3.61-0.72-6.47c12.86,12.18,23.76,26.39,41.39,32.09c-2.71-2.62-5.2-5.54-8.17-7.82
		c-28.9-22.12-42.94-52.76-49.34-87.39c-6.52-35.31,0.67-68.73,16.51-100.48c9.66-19.37,26.51-31.14,44.85-41.25
		c14.53-8.01,30.41-10.98,46.52-13.86c16.86-3.02,32.96,0.13,49.29,3.14c22.68,4.17,41.34,15.98,58.68,30.33
		c7.03,5.82,11.88,13.51,16.11,21.45c9.95,18.69,15.97,38.61,17.8,59.78c0.37,4.28,0.73,8.57,1.43,12.86
		c1.24,7.59-0.15,15.22-1.51,22.78c-3.66,20.42-9.39,40.11-19.9,58.19c-7.27,12.52-16.85,23.03-27.8,32.35
		c-2.94,2.5-6.02,4.78-9.23,9.91c17.92-7.09,29.56-18.69,40.02-32.05c-1.76,6.59-4.06,12.63-8.27,17.85
		c-3.47,4.3-6.66,8.82-8.8,15.38c11.17-6.88,16.05-17.79,24.04-26.12c4.7,4.86-1.11,9.34,1.01,14.02c3.78-1.94,3.13-6.74,6.15-9.44
		c25.48,4.41,49.74,12.93,72.72,25.25c14.11,7.56,27.68,15.86,39.68,26.63c25.05,22.48,41.79,49.66,48.37,82.94
		c3.7,18.71,5.02,37.56,4.43,56.56c-0.53,16.95-5.69,32.78-13.46,47.62c-9.44,18.02-20.98,34.7-35.17,49.42
		C1424.19,1334.88,1423.24,1335.49,1424.35,1337.34z M1147.74,912.13c12.44-6.47,24.36-11.64,38.21-11.31
		c13.64,0.32,25.96,4.42,38.11,10.01c0.9-2.63,1.05-4.8,0.56-6.99c-2.91-1.86-6.27-2.26-9.38-3.36
		c-9.46-3.35-16.85-9.33-21.39-18.34c-3.6-7.14-6.09-14.67-6.4-22.79c-0.1-2.75-0.13-5.61-2.2-9.21c-2.5,4.82-2.23,8.81-2.24,12.57
		c-0.03,13.23-4.82,23.79-16.05,31.32c-5.02,3.36-10.46,5.68-16.78,8.37C1154.62,906.93,1146.54,906.68,1147.74,912.13z
		 M1194.43,1199.63c8.38-22.77,19.34-44.17,31.75-64.87c12.42-20.72,28.58-38.55,44.54-56.95c-2.75-0.85-3.83,0.65-5.08,1.56
		c-7.59,5.51-13.35,12.85-19.71,19.61c-10.52,11.17-19.7,23.24-27.09,36.7c-7.67,13.96-15.93,27.63-21.26,42.74
		C1195.2,1185.16,1192.9,1191.98,1194.43,1199.63z M1101.7,1066.95c1.6,3.95,3.41,5.41,5.31,6.77c10.6,7.55,20.04,16.41,28.89,25.89
		c9.49,10.17,19.08,20.19,25.44,32.93c5.05,10.12,10.13,20.12,12.92,31.15c0.45,1.77,0.28,4.09,2.77,5.37
		c0.58-3.43,0.65-6.69,0-9.98c-1.93-9.82-4.82-19.27-9.9-28c-11.84-20.35-27.27-37.48-46-51.68
		C1115.42,1075.05,1110.13,1070.03,1101.7,1066.95z M1140.89,1360.74c0.58,0.26,1.3,0.89,1.72,0.73
		c25.71-9.96,52.45-16.28,79.23-22.46c0.55-0.13,1.03-0.76,1.44-1.25c0.18-0.21,0.12-0.64,0.16-0.97
		C1206.13,1334.33,1149.65,1350.72,1140.89,1360.74z M1146.13,1081.72c13.32,11.25,54.57,13.33,72.46,3.53
		C1193.28,1088.62,1169.65,1087.47,1146.13,1081.72z M979.93,1356.27c2.82,4.25,5.39,5.16,7.82,6.09
		c13.91,5.37,28.22,9.4,42.83,12.33c2.88,0.58,5.94,0.27,8.92,0.25c2.84-0.02,5.68-0.18,8.52-0.29
		C1025.17,1371.34,1003.62,1364.04,979.93,1356.27z M1389.45,1357.74c-21.83,6.33-43.4,13.5-66.05,16.29
		C1341.82,1376.16,1375.46,1368.11,1389.45,1357.74z M1196.28,1318.45c1.43-13.96,1.23-25.88,1.2-37.79
		c-0.02-11.89,0.55-23.81-1.3-33.75c-1.89,10-1.4,21.97-1.34,33.92C1194.91,1292.68,1194.26,1304.58,1196.28,1318.45z
		 M1174.85,1120.33c13.5,1.18,32.98-4.14,40.03-11.97c-13.78,4.67-26.13,7.87-38.78,9.67c-0.27,0.04-0.56,0.38-0.73,0.65
		C1175.2,1118.93,1175.16,1119.28,1174.85,1120.33z M1195.53,1367.82c-1.33,18.28,2.6,36.33,2.37,54.57
		C1200.14,1408.39,1198.97,1381.9,1195.53,1367.82z M1179.52,1359.45c12.18-0.72,23.39-2.81,34.55-5.32
		c-10.73-2.35-21.07,0.29-31.5,1.72C1181.19,1356.04,1180.14,1356.78,1179.52,1359.45z"/>
	<path class="st0" d="M1185.85,1560.44c-1.56-15.83-3.13-31.66-4.66-47.49c-0.45-4.61-0.8-9.24,0.18-13.47
		c2.22-2.43,4.53-1.85,6.8-1.36c21.76,4.65,43.59,8.99,65.14,14.64c18.35,4.82,37.2,6.59,56.78,8.69c-0.43,3.35-0.9,6.48-1.21,9.62
		c-0.32,3.3-0.29,6.6-0.7,9.92c-2.96,23.82-4.81,47.71,1.42,71.29c6.52,24.67,16.56,47.56,34.42,66.54
		c12.83,13.63,26.14,26.51,42.76,35.48c2.14,1.15,3.74,2.49,4.61,4.89c2.6,7.13,7.77,12.7,13.53,16.95
		c7.59,5.61,9.57,13.06,10.53,21.48c0.49,4.28,1.04,8.57,1.87,12.8c0.99,5.02,4.26,6.5,8.82,3.94c5.33-3,9.2-7.62,12.69-12.54
		c1.13-1.59,2-3.36,3.25-5.49c1.93,2.09,3.31,4.05,5.12,5.44c4.56,3.52,6.62,7.83,6.41,13.72c-0.14,3.91,0.85,7.91,1.69,11.79
		c1.39,6.47,6.78,8.46,11.93,4.14c7.2-6.05,12.84-13.48,17.3-21.77c3.79-7.04,6.44-14.56,9.26-22.47c1.75,2.8,2.54,5.52,3.12,8.49
		c1.03,5.28,4.25,6.2,8.46,2.71c3.13-2.6,5.44-5.86,7.08-9.56c1.33-3,2.5-6.08,3.75-9.16c12.84-1.99,25.41-2.74,37.75-5.43
		c21.16-4.61,41.97-10.46,62.27-17.89c23.73-8.69,47.66-16.89,70.66-27.44c3.33-1.53,6.64-3.09,9.9-4.75
		c25.82-13.08,52.08-25.2,78.55-36.92c20.37-9.02,40.5-18.59,61.21-26.84c19.46-7.75,38.78-15.92,58.53-22.84
		c25.12-8.8,51.11-14.53,77.16-19.99c21.15-4.43,42.38-8.52,63.9-10c16.56-1.14,33.11-2.9,49.76-2.7c4.28,0.05,8.58-1.31,12.84-1.16
		c12.27,0.45,24.59,0.84,36.79,2.18c20.12,2.21,40.17,5.04,60,9.35c32.3,7.02,63.73,16.78,93.51,31.08
		c21.72,10.43,39.15,26.27,51.81,47.03c7.61,12.49,11.6,26.36,12.22,40.67c0.57,13.33-3.05,26.34-8.47,38.66
		c-8.91,20.25-23.05,36.29-39.83,50.41c-28.61,24.07-60.21,42.55-96.36,52.75c-19.2,5.42-38.65,9.51-58.55,11.61
		c-15.53,1.64-31.03,3.05-46.65,3.54c-30.86,0.96-60.93-3.65-90.7-11.32c-29.83-7.68-58.29-18.58-84.4-35.13
		c-4.49-2.85-8.82-5.96-13.15-9.05c-1.3-0.93-2.82-1.78-3.23-3.59c2.48-1.28,4.45,0.32,6.54,1.2c26.8,11.38,54.74,18.43,83.53,22.45
		c14.15,1.97,28.41,2.79,42.59,4.25c13.87,1.43,27.73,2.94,41.65,3.46c18.61,0.69,37.19-0.09,55.81-1.29
		c20.44-1.32,39.99-6.35,59.6-11.39c12.99-3.34,24.88-9.55,36.4-16.15c19.18-10.99,36.42-24.54,50.44-41.86
		c14.93-18.44,22.24-48.33,9.39-72.95c-8.2-15.71-19.46-27.44-35.15-35.45c-33.49-17.09-68.78-28.18-106.04-33.31
		c-19.5-2.68-39.03-3.13-58.66-3.35c-42.35-0.49-83.27,6.64-123.23,20.59c-44.16,15.42-86.24,35.21-126.06,59.59
		c-28.07,17.19-54.99,36.26-82.98,53.58c-24.95,15.44-47.68,33.98-72.46,49.64c-35.54,22.46-72.07,42.87-111.78,57.01
		c-24.79,8.83-50.37,14.72-76.32,19.03c-22.98,3.81-46.12,6.2-69.37,6.4c-15.25,0.13-30.58-0.98-45.74-2.67
		c-20.46-2.28-40.76-5.83-60.81-10.64c-27.57-6.63-54.39-15.59-79.99-27.74c-25.07-11.9-48.41-26.75-68.35-46.23
		c-15.74-15.38-29.2-32.8-41.62-50.94c-8.45-12.35-17.61-24.33-23.73-38.1c-12.43-27.97-23.88-56.33-31.86-85.94
		c-5.27-19.56-10.34-39.18-15.04-58.88c-2.36-9.89-3.66-20.03-5.55-30.64c11.05-1.43,21.22-2.49,31.3-4.09
		c17.41-2.78,34.61-6.64,51.24-12.59c4.5-1.61,9.16-1.4,13.7-2.36c5.43-1.14,10.96-1.79,16.89-2.72c0.98,8.19,1.83,15.73,2.78,23.25
		c1.41,11.17,2.89,22.32,4.34,33.49c0.23,1.78,1.02,3.13,2.84,3.68c-1.09,3.56-0.83,7.07,0.19,11.53
		C1187.1,1567.28,1186.97,1563.84,1185.85,1560.44z M1330.72,1775.44c-0.8,0.4-1.1,0.55-1.4,0.7c0.15,0.22,0.25,0.54,0.46,0.66
		c1.69,1.02,3.32,2.2,5.12,2.97c20.1,8.63,40.91,15.02,62.38,19.19c1.88,0.36,4.07,1.42,5.94-1.38
		C1377.84,1793.28,1353.71,1785.49,1330.72,1775.44z M1423.86,1801.89c28.92,1.71,57.86,1.26,86.8,0
		C1481.72,1801.89,1452.79,1801.89,1423.86,1801.89z M1538.78,1800.51c-0.02-0.16-0.04-0.33-0.05-0.49c-3.03,0-6.06,0-9.1,0
		c0.02,0.36,0.04,0.71,0.06,1.07C1532.72,1800.9,1535.75,1800.7,1538.78,1800.51z M1417.82,1799.96c-3.3-0.18-5.84-0.99-8.4,0.44
		C1411.97,1800.17,1414.49,1801.97,1417.82,1799.96z"/>
	<path class="st0" d="M945.75,1665.4c1.42-8.66,3.54-16.16,6.73-23.55c4.73-10.98,8.26-22.41,8.59-34.62
		c0.11-4.22,1.13-8.43,1.86-13.52c-6.48,1.28-10.97,4.34-14.44,8.66c-3.29,4.1-6.24,8.34-7.93,13.66
		c-1.98,6.24-5.38,11.95-9.66,17.28c-6.88,8.57-11.53,18.62-16.03,28.65c-3.37,7.52-6.79,15.03-10.64,23.55
		c-0.85-3.67-0.65-5.92-0.24-8.26c3.04-17.46,8.08-34.15,16.27-50.03c5.44-10.55,8.31-22.15,8.46-34.45
		c-6.43,3.57-12.75,11.38-26.51,31.68c-7.64,11.27-14.68,22.9-21.85,35.67c-1.74-3.81,0.13-6.29,0.55-8.86
		c1.68-10.38,6.58-19.18,11.95-28.16c11.82-19.76,26.23-37.65,39.04-56.68c5.95-8.83,13.62-16.26,21.47-24
		c-2.52-9.7,5.01-15.75,8.62-24.4c4.47,5.89,4.56,13.16,9.42,17.89c3.44,0.75,6.31-1.04,9.1-2.64c7.66-4.4,16.08-6.59,24.66-7.47
		c12.18-1.25,24.13-3.8,37.09-5.71c-0.15,5.59-2.13,10.31-4.44,14.9c-0.99,1.96-3.23,2.11-5.09,2.82
		c-7.84,2.96-16.14,3.88-24.24,5.64c-8.83,1.92-17.41,4.53-24.34,10.67c-4.62,4.09-7.19,8.79-6.93,15.65
		c0.32,8.55,2.4,17,1.21,25.73c-0.44,3.24-0.83,6.55-1.74,9.63c-6.4,21.48-15.48,41.69-29.14,59.64
		C947.39,1665.01,946.94,1665.02,945.75,1665.4z"/>
	<path class="st0" d="M1332.09,1520.05c14.41,3.21,29.15,4.79,43.77,7.12c5.29,0.84,10.24,2.78,15.03,5.2
		c3.23,1.63,6.62,2.94,9.94,4.4c5.52-5.04,6.55-11.81,9.07-17.83c7.23,6.78,10.85,15.07,9.99,23.18
		c5.58,6.77,12.86,12.26,17.92,19.73c11.93,17.6,25.99,33.72,36.58,52.27c1.48,2.6,2.99,5.24,4.89,7.53
		c9.02,10.88,12.62,23.82,14.97,39.04c-6.63-8.26-10.06-16.75-15.12-24.18c-5.06-7.43-9.71-15.16-15.04-22.39
		c-5.45-7.4-11.51-14.36-18.45-22.93c-1.05,7.6-1.02,13.48,0.91,18.87c3.46,9.65,7.24,19.18,11.75,28.48
		c6.11,12.6,9.19,26.31,11,40.23c0.12,0.93-0.29,1.93-0.45,2.92c-2.69-0.28-2.85-2.55-3.57-4.25
		c-5.03-11.97-10.27-23.83-16.85-35.05c-2.18-3.71-4.29-7.43-7.25-10.7c-4.75-5.26-7.04-11.95-9.62-18.46
		c-3.7-9.36-10.01-16.17-20.97-19.85c1.48,11.28,1.58,21.88,4.53,32.08c2.03,7.02,4.39,13.93,7.49,20.61
		c2.64,5.68,4.19,11.81,4.55,20.17c-8.06-11.02-14.91-20.61-19.67-31.45c-3.34-7.6-5.6-15.66-8.83-23.32
		c-3.59-8.53-3.98-17.41-3.83-26.4c0.08-4.99-0.16-10.08,0.78-14.93c1.42-7.29-1.89-12.03-6.92-16.33
		c-6.79-5.81-15.02-8.3-23.47-10.26c-7.45-1.72-14.95-3.21-22.42-4.8c-5.35-1.14-8.92-3.99-9.92-9.7
		C1332.42,1526.24,1330.16,1523.68,1332.09,1520.05z"/>
	<path class="st0" d="M1184.24,582.49c0.99,13.48-0.17,27.15,1.64,40.81c3.01,0.25,2.83-2.09,2.86-3.81
		c0.12-7.66,0.03-15.32,0.12-22.98c0.05-4.28,0.31-8.56,1.55-12.85c0.35,3.21,1.05,6.43,1,9.64c-0.22,12.68,1.71,25.13,3.24,37.65
		c0.92,7.54,0.66,15.24,0.83,22.87c0.11,4.99-0.1,9.99,0.04,14.99c0.63,21.26,0.79,42.54,2.17,63.75
		c1.27,19.53,3.03,39.03,3.95,58.59c0.22,4.61,1.63,9.16,1.11,13.84c-0.14,1.26-0.6,2.49-1.1,4.48c-9.94-0.84-19.71-1.42-29.76-0.31
		c-2.39-8.85-0.59-17.15-0.04-25.27c0.38-5.6,0.6-11.25,1.09-16.86c3.34-38.1,4.96-76.25,4.64-114.5
		c-0.1-11.54,0.76-23.05,2.95-34.45c0.81-4.21,0.92-8.61,0.92-12.92C1181.46,597.58,1181.43,590,1184.24,582.49z M1183.14,640.31
		c2.8,1.83,4.82,3.65,7.75,2.65c1.37-1.42,2.15-3.04,1.72-5.4C1189.33,636.72,1186.31,637.04,1183.14,640.31z"/>
	<path class="st0" d="M1095.24,242.16c4.87-2.65,9.41-3.43,14.9-4.82c-1.08,6.6-0.75,12.43,2.13,17.77
		c2.68,4.98,5.79,9.76,8.11,14.89c2.48,5.49,5.75,10.22,9.88,14.88c3.8-2.99,5.44-6.65,7.44-10.05c3.39-5.76,7.16-11.2,12.24-15.68
		c4.82-4.25,4.74-4.34,12.33-0.42c-4.63,7.29-9.11,14.66-13.9,21.81c-8.01,11.97-9.38,25.06-7.89,39.04
		c1.18,11.06,3.04,21.72,9.04,31.29c1.72,2.74,1.28,5.79,1.29,8.76c0.04,12.66,0.12,25.33-0.03,37.99
		c-0.07,6.4,0.4,12.66,2.77,18.64c2.6,6.55,1.69,12.73-0.21,19.44c-4.25,15-8.05,30.16-10.39,45.62c-1.19,7.86-1.5,15.83-3.39,23.63
		c-1.59,6.55-0.98,13.29,0.35,19.85c0.53,2.61,1.15,5.1,0.9,8.39c-6.6-1.23-12.15-3.74-18.37-6.47c2.93-2.01,4.88-3.79,4.45-7.21
		c-0.94-7.43,1.21-14.52,2.95-21.63c0.47-1.93,0.95-3.89,1.12-5.86c1.34-15.95,5.01-31.38,9.64-46.66
		c3.02-9.99,3.79-19.96,0.64-30.41c-3.16-10.47-4.13-21.47-4.52-32.5c-0.27-7.59-1.24-15.09-0.03-22.72c0.5-3.11-0.57-6.48-0.93-9.7
		c1.03-0.49,1.92-0.91,2.81-1.34c0.44-0.41,0.24-0.94-0.67-1.06c-2.24-0.31-3.7-1.6-4.34-3.61c-2.92-9.18-6.47-18.19-6.75-28.03
		c-0.18-6.36-2.26-12.09-4.89-17.99c-5.35-12.01-13.44-22.12-20.56-32.91C1096.84,258.24,1094.21,250.96,1095.24,242.16z"/>
	<path class="st0" d="M1211.06,258.75c4.85-4.03,8.69-3.82,12.58,0.54c3.54,3.97,7.34,7.6,9.97,12.38c2.39,4.33,4.75,8.79,8.64,12.7
		c4.22-1.72,5.95-5.83,8.17-9.28c2.51-3.9,4.42-8.18,6.75-12.2c4.41-7.61,7.56-15.53,6.05-25.3c5.5,1.06,10.25,1.9,14.95,4.73
		c1.23,8.16-1.62,15.47-5.88,22.24c-3.53,5.61-7.61,10.88-11.52,16.25c-5.13,7.04-7.94,15.32-12.2,22.83
		c-1.53,2.7-1.58,6.43-1.69,9.71c-0.32,10.13-3.51,19.58-6.58,29.06c-0.59,1.82-1.11,3.9-3.18,4.84c-0.87,0.39-1.66,0.67-1.04,1.95
		c2.58,5.32-0.32,10.98,0.97,16.42c1.25,5.29-0.19,10.61-0.33,15.92c-0.29,11.64-1.47,23.32-4.9,34.4
		c-2.81,9.09-2.57,17.79,0.22,26.38c3.71,11.41,5.51,23.22,8.44,34.79c1.05,4.13,0.74,8.58,1.38,12.84
		c1.62,10.8,5.88,21.17,5.12,32.36c-0.13,1.94,1.59,2.74,3.46,3.83c-5.21,4.31-11.63,4.68-17.49,7.82
		c-1.01-4.68-0.04-8.27,0.73-11.63c1.47-6.34,1.28-12.45-0.25-18.71c-2.99-12.27-2.55-25.09-5.9-37.34
		c-3.15-11.52-4.76-23.44-8.84-34.72c-1.44-3.99-1.39-7.72,0.04-11.65c3.81-10.48,4.55-21.36,4.1-32.42
		c-0.24-5.99-0.05-11.99-0.04-17.99c0.02-9.25,0.25-18.04,4.7-26.99c6.8-13.68,7.02-28.93,4.96-43.97
		c-0.72-5.25-2.69-10.26-5.62-14.82C1221.65,275.63,1216.56,267.46,1211.06,258.75z"/>
	<path class="st0" d="M1335.84,1031.02c-2.16-9.61-2.27-17.57,4.34-24.94c1.67,4.95,3.14,9.28,4.54,13.42
		c-0.37,2.49-2.98,1.37-4.06,3.13c4.31,2.35,8.52,4.87,12.93,7c9.39,4.53,16.97,11.28,24.75,18.12
		c23.18,20.37,46.12,41.1,72.07,58.08c6.76,4.43,11,11.51,16.59,17.18c6.69,6.78,11.42,14.73,12.87,24.25
		c1.86,12.17,8.99,21.11,17.22,29.53c9.86,10.08,17.56,21.65,23.23,34.56c0.37,0.84,0.42,1.82,0.77,3.48
		c-5.7-2.61-10.09-5.61-14.08-9.84c-4.22-4.48-8.91-8.85-14.85-11.33c-4.78,3.84-4.37,9.3-4.52,13.93
		c-0.48,14.65-2.23,29.09-4.55,43.54c-1.1,6.85-4.5,12.22-7.45,18.32c-2.51-1.82-0.76-3.29-0.45-4.45
		c4.4-16.6,4.71-33.46,3.92-50.49c-0.93-20.05-4.11-39.61-10.89-58.55c-6.71-18.76-17.26-35.03-30.63-49.76
		c-17.77-19.59-39.27-33.74-62.99-44.85c-5.73-2.69-11.06-5.85-15.78-10.2C1351.27,1044.17,1343.37,1037.57,1335.84,1031.02z"/>
	<path class="st0" d="M1033.5,1023.07c-2.31-1.36-3.39-2-4.99-2.94c1.46-4.44,2.95-8.99,4.62-14.08c3.84,3.36,5.02,7.39,5.55,10.93
		c0.92,6.12,1.02,12.44-4.76,17.18c-7.96,6.53-15.5,13.56-23.4,20.16c-1.98,1.66-4.62,2.56-7,3.71c-15.3,7.36-30.5,14.89-44.19,25.1
		c-34.56,25.77-56.89,59.21-64.01,102.14c-2.45,14.76-3.68,29.64-3.77,44.61c-0.06,10.29,1.91,20.39,3.41,30.77
		c-2.6-0.37-3.34-2.34-3.53-3.81c-1.07-8.22-3.62-16.15-4-24.53c-0.44-9.6-2.14-19.13-2.2-28.79c-0.02-3.23-0.01-6.8-3.69-9.53
		c-6.1,1.15-10.54,6.07-14.49,10.49c-4.28,4.78-10.15,6.97-15.73,12.57c1.98-7.03,4.36-12.12,7.35-17.08
		c6.92-11.47,15.47-21.65,24.76-31.18c3.65-3.74,6.03-7.83,7.43-12.68c0.83-2.87,1.88-5.71,2.41-8.64
		c1.93-10.58,7.86-18.76,14.82-26.6c7.33-8.26,15.01-15.81,24.63-21.53c6.23-3.71,11.65-8.82,17.34-13.42
		c6.2-5.02,12.63-9.82,18.59-15.05c10.96-9.6,22.73-18.32,32.68-29.07c2.52-2.72,5.45-4.84,8.7-6.62
		C1017.26,1031.19,1024.06,1026.39,1033.5,1023.07z"/>
	<path class="st0" d="M1494.29,749.83c-6.78,1.93-14.24,0.37-21.2,3.13c-11.97,4.74-22.46,11.47-30.25,21.97
		c-4.38,5.9-8.16,12.12-10.87,18.98c-1.18,2.98-1.73,6.5-5.2,8.1c-2.74-0.81-1.94-3.14-1.91-4.88c0.36-18.45,8.31-33.2,22.12-45.08
		c1.83-1.57,3.77-2.8,6.21-2.85c10.34-0.23,20.43-2.42,30.53-4.24c6.7-1.21,13.22-0.95,19.67,0.27c6.95,1.32,12.92,4.29,15.77,11.8
		c6.49,17.08,11.48,34.71,19.1,51.36c-1.28,10.87,5.76,18.64,10.15,27.41c1,1.99,1.57,4.2,2.55,6.87
		c-5.84-0.92-8.11-5.15-10.45-8.75c-6.14-9.45-12.01-19.09-17.63-28.86c-2.19-3.8-4.49-7.37-7.81-10.22
		c-3.26-2.8-6.6-5.51-10.09-8.42c-4.77,1.76-6.2,5.19-6.25,9.98c-0.14,11.68-0.19,23.27,4.54,34.31c0.57,1.32,1.89,2.88,0.63,4.59
		c-0.63-0.08-1.57,0.05-1.75-0.26c-7.96-13.45-16.12-26.83-14.73-43.48c0.25-2.99,0.49-5.91,1.3-8.83
		c2.48-8.92,3.17-18.28,6.56-27.01C1495.81,754.29,1496.58,752.56,1494.29,749.83z"/>
	<path class="st0" d="M821.82,843.34c2.23-5.58,4.48-10.57,7.35-15.38c2.94-4.94,7.51-9.58,4.98-16.38
		c-0.35-0.93,0.79-2.42,1.24-3.65c5.89-15.89,12.12-31.66,17.55-47.71c3.31-9.76,9.53-13.91,19.52-15.48
		c8.21-1.29,15.85,0.24,23.64,1.31c7.55,1.04,15.02,2.69,22.67,3.04c2.33,0.11,4.61,0.42,6.54,2.02
		c15.27,12.61,23.16,28.77,23.4,48.6c0.01,0.62-0.35,1.26-0.64,1.84c-0.12,0.24-0.51,0.34-0.85,0.55c-3.87-0.92-4.41-4.58-5.52-7.45
		c-1.95-5.01-4.52-9.65-7.29-14.18c-7.73-12.67-18.89-21.31-32.51-26.86c-2.74-1.11-5.72-1.84-8.65-2.22
		c-4.86-0.63-9.77-0.84-14.32-1.2c-2.4,1.91-1.71,4.1-0.98,5.78c3.73,8.64,4.9,17.97,6.58,27.02c2.19,11.77,2.4,23.76-4.18,34.89
		c-3.48,5.89-5.05,12.91-10.28,18.07c-1.7-2.74-0.39-4.83,0.47-6.91c4.32-10.4,4.57-21.3,4.42-32.35
		c-0.07-4.99-2.01-8.18-6.57-10.34c-7.96,6.46-15.51,12.93-20.12,22.78c-4.19,8.95-10.31,17.01-15.8,25.32
		C828.93,839.8,828.75,839.67,821.82,843.34z"/>
	<path class="st0" d="M1388.67,688.59c-8.35-8.23-16.88-7.58-25.04-7.08c-10.36,0.63-20.18,3.65-29.3,8.87
		c-4.27,2.44-8.83,4.37-14.34,7.06c0.63-9.35-1.56-17.7,1.06-25.99c0.38-1.2,1.13-2.47,2.09-3.26c4.35-3.58,8.37-7.62,13.68-9.9
		c8.62-3.71,17.86-5.11,26.93-7.01c2.81-0.59,6.04-0.07,8.88,0.68c3.89,1.02,7.38,2.88,8.86,7.21
		C1384.47,667.89,1387.37,676.63,1388.67,688.59z"/>
	<path class="st0" d="M1053.43,697.51c-6.07-3.05-10.76-5.43-15.47-7.76c-11.78-5.84-23.99-9.31-37.4-8.21
		c-5.46,0.45-10.36,1.54-14.29,5.73c-1.86-3.54-0.94-6.18-0.28-8.68c1.43-5.46,3.49-10.76,4.71-16.25
		c1.77-7.98,7.42-11.39,14.51-10.96c13.94,0.84,27.45,3.61,39.45,11.85c7.27,4.98,9.33,11.4,8.82,19.53
		C1053.21,687.03,1053.43,691.33,1053.43,697.51z"/>
	<path class="st0" d="M1116.85,45.52c2.14-12.79,5.77-23.8,13.98-35.54c0,8.14-0.18,14.04,0.04,19.92
		c0.48,13.24,4,25.47,11.85,36.41c2.61,3.63,5.97,6.21,9.34,8.87c3.37,2.66,6.94,5.08,10.79,7.87c-4.94,6.95-10.97,12.62-15.8,19.29
		c-4.45,6.14-11.16,5.47-15.5-0.59c-5.23-7.3-9.86-14.92-12.99-23.5c-3.06-8.4-3.42-16.87-2.76-25.55c0.03-0.45,0.9-0.83,2.22-1.99
		c1.17,9.82,2.15,19.22,6.02,27.76c3.84,8.46,9.79,15.52,16.65,21.87c-0.84-5.37-4.08-9.45-6.9-13.73
		c-5.18-7.84-9.53-16.03-10.73-25.53c-0.67-5.26-1.08-10.56-1.98-15.77C1120.7,43.23,1119.14,44.83,1116.85,45.52z"/>
	<path class="st0" d="M1354.38,815.67c-5.64-18.11-8.02-34.31,2.07-50.2c5.26-8.28,11.63-15.35,19.39-21.23
		c2.65-2.01,5.67-3.53,8.23-5.63c5.45-4.47,11.55-4.96,17.81-2.8c7.05,2.44,14.37,4.47,20.56,9.14c-0.8,0.98-1.12,1.79-1.57,1.86
		c-16.01,2.77-29.21,11.84-41.1,21.55C1365.81,779.77,1355.24,794.6,1354.38,815.67z"/>
	<path class="st0" d="M951.42,745.65c8.34-6.15,17.31-9.91,27.32-11.08c2.48-0.29,4.64,0.55,6.62,1.69
		c11.02,6.38,21.04,13.96,28.52,24.49c8.67,12.21,12.17,25.56,8.91,40.41c-0.83,3.77-1.6,7.55-2.94,11.53
		c-2.49-17.8-11.83-32.3-24.75-43.13C982.57,759.08,968.54,749.55,951.42,745.65z"/>
	<path class="st0" d="M1254.83,43.03c3.99,9.11,3.4,18.73,1.89,28.02c-1.89,11.66-8.21,21.66-15.1,31.07
		c-3.9,5.32-12.1,5.05-16.22-0.88c-4.21-6.05-9.41-11.15-14.02-16.7c0.24-2.97,2.8-3.68,4.66-4.76
		c15.01-8.66,21.49-22.78,25.31-38.75c1.72-7.21,1.45-14.49,1.49-21.78c0.01-1.97,0-3.93,0-6.42c6.88,6.29,11.9,19.09,12.32,30.48
		c-3.49,0.61-3.66,3.17-3.68,5.99c-0.1,15.1-5.12,28.49-14.03,40.58c-2.24,3.04-3.91,6.5-5.84,9.76
		C1249.58,84.87,1256.38,65.59,1254.83,43.03z"/>
	<path class="st0" d="M1360.66,590.13c3.93,10.71,7.82,20.56,8.95,32.29c-8.11-3.37-10.23-11.93-16.89-15.16
		c-1.89,0.47-0.5,2.31-1.49,3.11c-13.55-4.27-23.8-13.96-35.17-21.78c-4.76-3.28-8.12-7.92-8.54-14.01
		c-0.21-3.1-1.59-5.73-2.72-8.49c-1.22-2.98-2.29-6.03-4.01-10.59c6.22,4.96,11.65,7.98,15.72,12.74
		c10.23,11.97,23.97,17.47,38.79,20.94C1356.9,589.53,1358.54,589.75,1360.66,590.13z"/>
	<path class="st0" d="M1071.51,557.81c-2,7.34-5.87,14.01-7.05,21.73c-0.72,4.69-5.08,7.76-8.93,10.35
		c-10.69,7.18-20.21,16.28-33.17,20.3c-0.52-0.64-1.3-1.6-2.14-2.64c-6.32,4.23-9.57,11.26-16.41,16.03
		c0.38-12.15,5.09-22.25,8.45-33.16c5.78-1.31,11.53-2.77,17.19-4.58c10.07-3.21,18.76-8.41,25.92-16.14
		c4.09-4.42,8.71-8.16,13.68-11.52c0.89-0.6,1.77-0.7,2.7-0.12L1071.51,557.81z"/>
	<path class="st0" d="M1213.01,190.72c2.66,0.9,5.21,1.08,7.39-1.17c0.56,2.52-0.7,4.5-1.85,6.51c-0.91-0.37-1.79-0.73-2.66-1.09
		c-1.41,0.32-2.19,1.34-2.75,2.56c-2.35,5.12-6.75,6.28-11.67,5.44c-9.93-1.69-19.78-1.77-29.69,0.05
		c-6.63,1.22-10.65-2.31-13.06-8.07c-2.77,1.66-4.53,1.43-5.23-1.57c0.49-0.68,0.85-1.61,1.22-1.62c4.9-0.1,8.14-1.97,8.93-7.25
		c0.28-1.91,1.34-3.7,2.31-6.23c5.86,6.58,13.71,5.31,20.51,5c6.85-0.31,14.85,2.86,20.24-4.99
		C1210.09,182.8,1209.57,187.79,1213.01,190.72z"/>
	<path class="st0" d="M1099.37,340.91c-0.82,6.89-3.6,10.59-6.48,14.24c-10.18,1.72-17.79-2.53-24.91-9.28
		c-8.37-7.95-14.1-17.48-19.06-28.97c3.05-7.48,8.14-14.96,13.17-22.61c-4.36,14.68,1.86,25.6,11.75,35.26
		c2.84,2.77,6.01,5.21,8.82,8.01C1087.15,342.01,1092.01,344.74,1099.37,340.91z"/>
	<path class="st0" d="M1280.94,355.3c-4.06-3.83-6.01-8.51-7.71-14.85c7.2,4.05,12.27,2.15,16.93-2.48c4-3.98,8.38-7.58,12.44-11.52
		c5.99-5.81,8.14-13.52,10.34-21.24c0.92-3.23-1.81-5.6-1.45-8.67c1.07,0.99-0.69-0.55,0.63-0.44c0.31,0.03,0.72,0.22,0.86,0.46
		c3.88,6.57,7.74,13.16,11.69,19.9c-4.64,10.61-9.99,20.33-18.29,28.41C1299.4,351.67,1291.94,356.52,1280.94,355.3z"/>
	<path class="st0" d="M1100.42,76.05c0.9,3.62,2.71,6.88,2.22,9.74c-1.01,5.88,2.16,9.33,5.51,13.01c3.89,4.28,8.39,7.61,14.15,8.82
		c6.04,1.27,9.18,4.72,9.14,11.03c-0.02,2.61,0.33,5.22,0.51,7.63c-2.34,2.14-4,0.31-5.51-0.63c-4.24-2.62-8.23-5.59-11.78-9.17
		c-2-2.02-3.56-4.69-8.01-5.95c6.17,10.6,15.8,15.75,23.91,22.02c-0.24,2.6-1.26,4.16-3.81,5.71c-9.02-6.28-19.27-11.22-25.2-21.51
		c-0.83-1.44-1.59-3.04-2.79-4.12c-8.3-7.49-6.81-16.48-3.94-25.59C1095.96,83.38,1096.48,79.25,1100.42,76.05z"/>
	<path class="st0" d="M1265.83,111.27c-8,4.92-13.5,13.34-23.7,16.05c0.44-5.81,0.83-10.97,1.17-15.51
		c2.26-2.87,5.02-3.46,7.48-4.04c6.13-1.44,10.64-5.03,14.8-9.48c3.28-3.5,5.56-7.02,5.27-12.21c-0.17-3,0.06-6.49,2.39-9.89
		c3.83,4.01,4.8,8.47,5.87,12.84c0.63,2.56,0.98,5.2,1.6,7.76c0.82,3.4,0.25,6.51-1.54,9.48c-7.82,12.99-17.77,23.84-31.28,31.1
		c-0.53,0.29-1.28,0.19-1.93,0.26c-2.19-0.81-2.89-2.54-2.94-5.16C1251.15,126.32,1260.22,120.72,1265.83,111.27z"/>
	<path class="st0" d="M1072.86,1621.03c-3.23-1.28-5.22-3.01-7.22-4.77c-6.75-5.91-10.65-12.61-6.92-21.88
		c0.85-2.12,0.93-4.54,1.51-6.79c1.14-4.37,0.58-8.43-1.29-12.56c-2.98-6.6-5.58-13.38-8.4-20.21c3.21-3.53,6.04-6.64,9.25-10.16
		c3.51,5.88,3.88,11.89,5.43,17.5c3.1,11.15,5.21,22.65,9.19,33.47C1077.67,1604.49,1076.78,1612.26,1072.86,1621.03z"/>
	<path class="st0" d="M1505.31,1884.9c-4.29-1.78-8.89-3.63-13.44-5.6c-1.79-0.78-3.46-1.83-5.19-2.75c1.6-2.83,3.9-2.77,6.19-3.01
		c18.53-1.95,36.69-5.88,54.73-10.39c10.75-2.69,10.71-2.85,21.64,2.45c-6.78,11.96-14.1,15.75-26.56,12.52
		C1519.3,1872.04,1523.46,1874.56,1505.31,1884.9z"/>
	<path class="st0" d="M1210.85,128.23c2.78-1.78,5.62-3.47,8.33-5.35c4.46-3.09,8.85-4.46,13.04,0.28c2.05-2.81,0.84-5.57,1.73-8.2
		c-1.19-0.53-2.01-1.17-2.87-1.22c-2.95-0.18-5.98,0.35-9.24-1.21c-4.68-8.24-9.53-16.81-16.56-23.91c2.33-1.79,3.4-0.05,4.44,0.98
		c4.01,3.95,8.13,7.76,11.17,12.63c5.36,8.58,5.49,8.5,15.93,10.29c0.24,5.6,3.04,11.07,1.45,17.18c-0.69,2.66,0.1,5.2,1.48,7.59
		c1.45,2.52,3.33,4.92,3.09,8.22c-2.36,1.14-3.12-1.77-4.9-1.85c-0.58,0.23-1.5,0.31-1.69,0.72c-3.41,7.41-9.12,12.32-16.93,14.12
		c-5.72,1.32-8.25,4.9-9.67,9.98c-0.59,2.11-0.41,4.6-3.12,6.32c-2.7-2.63-0.65-5.69-1-8.31c-0.39-2.94-0.33-5.94-0.46-8.91
		c3.9-0.62,7.87-0.96,11.69-1.93c10.22-2.58,17.9-10.84,19.83-20.91c-11.75-7.59-20.55-3.64-26.02,7.35
		c-2.51,5.04-5.53,9.86-5.17,15.81c-3.38-3.3-2.02-7.49-1.58-11.17c0.75-6.23,2.46-12.31,6.17-17.6
		C1210.33,128.89,1210.62,128.58,1210.85,128.23z"/>
	<path class="st0" d="M1750.97,1756.76c15.8-10.33,31.61-20.63,47.37-31.01c3.18-2.1,6.51-3.21,10.31-2.81
		c3.56,0.38,7.13,0.75,10.7,1.12c-1.89,11.52-6.86,15.88-18.83,16.81c-2.31,0.18-4.65,0-6.97,0.17c-2.31,0.17-4.6,0.57-6.55,0.82
		c-5.56,3.59-5.32,10.09-8.93,15.07C1769.38,1757.15,1760.47,1759.85,1750.97,1756.76z"/>
	<path class="st0" d="M1707.18,1801.69c-2.35,8.79-6.59,14.31-15.22,16.14c-5.14,1.09-10.02,2.73-15.5,2.25
		c-9.7-0.85-16.67,3.34-19.35,12.72c-7.21,1.76-13.16-0.87-19.32-1.8c-0.43-2.98,1.93-3.16,3.44-4.02
		c13.02-7.37,26.12-14.59,39.05-22.12c3.56-2.07,6.99-3.82,11.2-3.29C1696.44,1802.2,1701.39,1800.14,1707.18,1801.69z"/>
	<path class="st0" d="M1276.46,1862.31c-4.96-4.99-7.95-10.07-10.42-15.5c2.25-1.77,3.95,0.11,5.6,0.73
		c16.41,6.19,33.05,11.65,50.09,15.82c6.5,1.59,11.33,4.91,14.73,10.98c-7.6,4.82-15.36,5.89-23.58,2.35
		c-6.71-2.89-13.24-6.27-18.76-11.04C1288.81,1861.08,1283.27,1859.62,1276.46,1862.31z"/>
	<path class="st0" d="M1483.79,1884.34c-13.54,11.67-19.44,11.59-40.16-0.42c-5.62-0.09-9.69,3.89-14.68,5.98
		c-5.53-2.57-10.16-6.11-14.33-9.99c0.8-3.54,3.3-2.24,4.95-2.27c14.62-0.34,29.26-0.09,43.84-0.9
		C1471.65,1876.28,1478.07,1878.82,1483.79,1884.34z"/>
	<path class="st0" d="M1636.82,1837.42c0.69,5.54-2.03,9.03-4.46,12.5c-1.35,1.93-3.59,2.93-6.08,2.92
		c-6-0.03-11.91,0.64-17.76,1.99c-0.32,0.07-0.67,0-0.99,0.04c-3.91,0.52-7.97-3.11-11.57-0.31c-3.09,2.4-5.45,5.75-7.89,8.43
		c-3.91,1.45-6.81-0.78-9.92-1.64c-2.73-0.76-5.35-1.89-8.01-2.85c1.11-2.76,3.3-2.8,5.14-3.42c15.42-5.19,30.8-10.54,45.32-17.94
		C1626.49,1834.13,1631.41,1837.45,1636.82,1837.42z"/>
	<path class="st0" d="M1655.38,1688.23c0.07,6.26-2.62,9.86-9.08,11.93c-12.89,4.13-25.49,9.18-38.2,13.87
		c-1.84,0.68-3.63,1.55-6.42,0.99c-0.45-3.46,1.94-5.86,3.33-8.58c1.34-2.63,2.57-5.33,3.65-7.59c3.32-1.87,6.29-1.36,9.19-0.85
		c5.41,0.94,9.65-0.83,12.93-5.14c1-1.31,2.04-2.6,3.13-3.85c3.55-4.06,7.68-5.96,13.18-4.09
		C1649.85,1685.86,1653.04,1685.63,1655.38,1688.23z"/>
	<path class="st0" d="M1099.31,1696.46c-1.46-0.54-1.8-0.61-2.08-0.78c-10.8-6.31-14.88-15.61-11.51-27.63
		c2.47-8.81,1.01-16.44-5.47-22.8c-5.15-5.06-6.55-10.34-2.89-16.84c1.1-1.96,1.48-4.33,2.32-6.93c2.34,2.59,2.72,5.4,3.52,8.08
		c4.55,15.23,9.84,30.25,16.49,44.64C1103.31,1682.03,1101.68,1688.64,1099.31,1696.46z"/>
	<path class="st0" d="M1204.63,1827.22c-3.61-6.3-6.14-12.24-7.56-20.03c19.78,13.82,39.2,25.59,60.59,34.69
		c1.57,3.68,3.53,7.49,4.17,11.8c-2.77,3.37-5.92,3.45-9.81,2.01c-4.24-1.57-7.44-4.28-10.37-7.48c-3.8-4.16-7.8-8.16-11.27-12.59
		c-4.69-5.99-10.39-8.99-18.09-8.11C1210.02,1827.77,1207.67,1827.36,1204.63,1827.22z"/>
	<path class="st0" d="M1341.64,1868.46c4.48,0.69,8.37,1.31,12.27,1.87c12.14,1.74,24.23,4.02,36.43,5
		c8.7,0.7,16.12,2.56,21.28,11.06c-7.93,5.22-16.19,6.57-24.94,2.69c-6.38-2.82-12.57-6.06-18.75-9.29
		c-3.69-1.93-7.75-3.39-11.47-1.84c-5.11,2.12-8.24-0.04-11.35-3.32C1343.77,1873.23,1341.95,1872.11,1341.64,1868.46z"/>
	<path class="st0" d="M1763.99,1763.47c-4.52,12.3-9.54,16.13-20.27,16.04c-4.63-0.04-9.25-0.63-13.73-0.96
		c-3.57,1.95-5.68,4.98-6.94,8.44c-2.16,5.92-6.54,7.93-12.36,7.9c-3.97-0.02-7.94,0-11.9,0c-0.31-1.04,0.05-1.99,0.94-2.49
		c10.18-5.73,19.68-12.46,28.72-19.83c6.64-5.42,13.76-9.1,22.74-7.7C1755.07,1765.48,1758.98,1764.4,1763.99,1763.47z"/>
	<path class="st0" d="M1313.75,1544.28c3.98,4.73,6.88,8.19,9.33,11.1c-0.09,1.31,0.01,1.71-0.14,1.96
		c-4.03,6.64-3.32,12.37,1.16,19.07c6.94,10.37,3.45,19.37-3.1,27.29c-2.17,2.62-5.93,1.76-7.18-1.41c-0.36-0.91-0.59-1.92-0.67-2.9
		c-1.23-15.5-2.25-31.01-1.52-46.57C1311.72,1550.58,1312.69,1548.38,1313.75,1544.28z"/>
	<path class="st0" d="M1191.01,1813.04c-11.02-0.19-17.97-4.46-21.16-14.2c-0.52-1.57-1.19-3.13-1.46-4.74
		c-1.57-9.52-7-15.4-16.35-17.79c-1.25-0.32-2.34-1.21-3.75-1.97c-2.22-6.09-3.1-12.48-2.83-20.66
		c5.77,6.75,10.61,12.48,15.53,18.14c6.93,7.98,14.01,15.85,22.06,22.71C1188.55,1799.22,1190.29,1805.24,1191.01,1813.04z"/>
	<path class="st0" d="M1833.6,1613.39c3.09-6.46,7.37-12.26,11.83-17.72c3.14-1.07,6.25-1.18,9.08-0.56
		c6.79,1.49,11.59-1.19,15.39-6.4c1.61-2.21,3.59-3.9,6.09-4.9c5.04-2.01,10.1-3.4,15.28,0.68c-2.83,6-6.57,10.74-13.4,13.25
		c-13.94,5.13-27.61,10.96-41.41,16.49C1835.53,1614.62,1834.58,1614.52,1833.6,1613.39z"/>
	<path class="st0" d="M1814.75,1716.89c0.97-2.82,3.22-3.73,5.1-4.94c9.18-5.93,18.71-11.36,27.54-17.77
		c6.84-4.97,13.98-5.31,21.67-4.04c1.92,0.32,3.77,1.09,5.63,1.65c-2.41,11.34-12,14.15-21.3,13.62c-2.28-0.13-4.52-0.95-6.78-1.48
		c-3.37-0.79-5.89,0.37-7.45,3.39c-1.97,3.81-3.81,7.69-5.54,11.23c-3.91,1.31-7.09,0.25-10.31-0.35
		C1820.51,1717.68,1817.67,1717.33,1814.75,1716.89z"/>
	<path class="st0" d="M1104.91,1711.99c0.31-6.02,0.58-11.3,0.85-16.48c2.41-0.98,2.97,0.66,3.78,2.1
		c8.18,14.47,16.59,28.8,26.51,42.18c2.46,3.31,4.03,6.74,3.03,11.11c-0.51,2.2-0.09,4.61-0.09,6.86c-2.91,0.89-4.65-1.01-6.74-1.72
		c-7.71-2.6-11.52-8.67-10.98-16.04C1122.24,1726.84,1115.82,1718.65,1104.91,1711.99z"/>
	<path class="st0" d="M2037.96,1626.3c-3.8,4.49-8.18,6.83-12.72,8.66c-3.9,1.57-8.1,0.92-11.4-1.67
		c-6.56-5.16-11.9-3.57-17.49,1.75c-4.44,4.22-9.65,6.49-16.34,4.71c-4.41-1.17-9.24-0.78-13.91-1.08
		c-0.38-2.82,1.83-3.03,3.56-3.66c14.38-5.27,29.07-9.49,43.88-13.33C2022.22,1619.42,2029.59,1623.33,2037.96,1626.3z"/>
	<path class="st0" d="M1071.74,558.07c-0.57-1.73-0.28-3.33,1.04-4.57c2.17-2.04,4.29-4.2,6.71-5.91
		c11.13-7.86,22.61-15.13,35.57-20.24c6.89,3.09,13.67,6.13,21.57,9.68c-5.95,3.06-11.4,2.78-16.42,3.74
		c-6.97,1.32-13.49,3.38-19.69,6.7c-1.46,0.78-3.09,2.31-4.42,2.09c-5.81-0.92-9.17,3.02-13.02,6.07c-1.85-0.81-3.54-2.13-5.27-2.19
		c-2.9-0.09-4.58,2.35-6.31,4.38L1071.74,558.07z"/>
	<path class="st0" d="M1300.04,552.35c-8.8,2.52-15.87,2.28-22.06-1.88c-10.56-7.11-22.45-9.69-34.7-11.34
		c-1.61-0.22-3.36,0.07-4.57-1.4c-0.21-0.25-0.34-0.57-0.74-1.26c6.6-2.98,13.17-5.94,20.15-9.08
		C1272.87,533.27,1286.28,541.56,1300.04,552.35z"/>
	<path class="st0" d="M1534.16,1731.23c2.65-2.4,5.28-4.83,7.97-7.18c2.49-2.18,5.06-4.27,7.77-6.54
		c6.17-1.17,12.11,2.81,18.83,1.57c4.67-3.71,7.09-10.22,13.88-13.06c4.1,0.53,8.15,2.4,12.33,5.68c-1.55,4.63-3.52,8.21-8.73,9.69
		C1569.32,1726.18,1552.23,1729.98,1534.16,1731.23z"/>
	<path class="st0" d="M1661.9,1693.24c1-5.89,2.76-10.72,4.89-15.15c3.49-1.86,6.94-1.42,10.12-1.05c7.78,0.9,13.62-1.45,17.32-8.56
		c0.6-1.16,1.5-2.19,2.37-3.19c6.2-7.09,10.54-7.8,20.25-3.19c-0.5,3.98-1.51,7.35-5.73,9.44c-15.16,7.54-30.26,15.19-46.05,21.37
		C1664.47,1693.15,1663.75,1693.06,1661.9,1693.24z"/>
	<path class="st0" d="M1775.34,1633.23c-0.13,5.75-2.57,9.79-8.12,12.22c-13.07,5.72-26.05,11.66-39.08,17.48
		c-1.17,0.52-2.46,1-3.81,0.23c-1.34-2.06,0.32-3.83,0.95-5.46c1.55-3.96,2.72-8.17,5.34-11.34c3.67-1.69,6.79,0.04,9.97,0.73
		c4.69,1.02,8.53,0.33,10.85-4.49c0.85-1.78,2.11-3.4,3.36-4.94C1760.25,1630.99,1765.98,1629.72,1775.34,1633.23z"/>
	<path class="st0" d="M1139.02,113.35c0.28,3.26,0.56,6.52,0.85,9.9c7.99-4.16,8.83-3.82,16.23,0.83
		c9.74,6.13,13.58,14.95,13.38,26.07c-0.15,8.14-3.29,16.04-1.15,24.51c-4.11-0.22-4.1-3.15-4.5-5.02
		c-1.29-6.07-4.31-9.96-10.66-11.47c-4.86-1.16-9.22-3.71-12.44-7.82c-1.32-1.68-1.52-3.63-1.83-5.59
		c8.11,6.57,16.15,13.31,28.07,12.44c0.94-8.1-3-13.88-6.94-19.41c-4.96-6.95-10.99-8.5-18.98-5.46c-2.12,0.81-4.03,2.16-6.04,3.27
		c0.17-5.25,0.36-10.5,0.51-15.75c0.08-2.78,0.71-5.21,3.7-6.26L1139.02,113.35z"/>
	<path class="st0" d="M941.06,1721.16c3,9.66,9.72,14.28,15.35,20.21c-4.66,8.08-4.79,17.02-5.84,26.01
		C931.97,1753.51,930.05,1741.14,941.06,1721.16z"/>
	<path class="st0" d="M1894.13,1591.58c4.77-5.55,8.26-9.48,11.59-13.55c2.48-3.03,5.7-3.76,8.91-2.22
		c6.09,2.92,10.55,1.29,15.01-3.37c2.93-3.06,6.69-5.58,10.89-6.79c4.95-1.43,9.83-1.09,14.63,2.33
		c-2.44,5.42-5.73,8.98-11.88,10.52c-14.44,3.61-28.7,7.93-43.04,11.94C1899.01,1590.79,1897.72,1590.92,1894.13,1591.58z"/>
	<path class="st0" d="M1432.21,1722.26c10.45,16.13,9.92,30.1-8.87,45.4c-2.77-8.59-0.88-18.06-6.51-25.99
		C1422.65,1735.54,1429.07,1730.43,1432.21,1722.26z"/>
	<path class="st0" d="M1887.54,1686.6c-6.12-2.45-13.04-0.21-19.49-3.88c2.63-3.08,5.89-4.58,9.05-6.19
		c5.01-2.55,10.44-4.49,15.01-7.67c9.56-6.66,19.05-4.95,28.86-1.34c-1.56,7.43-3.6,9.69-9.57,10.17c-3.31,0.27-6.64-0.11-9.77-1.34
		c-4.11-1.62-7.03-0.11-9.33,3.29C1890.83,1681.81,1889.34,1683.97,1887.54,1686.6z"/>
	<path class="st0" d="M1974.12,1645.28c-5.88,7.4-12.41,11.62-21.01,9.24c-5.8-1.61-9.51,0.02-13.01,4.18
		c-1.69,2.01-3.68,3.76-5.81,5.91c-5.83-1.7-11.77-3.44-18.96-5.53c9.05-6.81,18.66-9.75,27.75-13.75
		C1953.22,1640.87,1963.15,1645.14,1974.12,1645.28z"/>
	<path class="st0" d="M1008.47,1674.62c1.11-9.56,0.83-18.65-1.59-28.09c8.77-4.05,14.1-11.56,19.44-18.58
		c1.52,0.07,2.57,0.47,2.64,1.53C1030.19,1648.18,1023.55,1663.36,1008.47,1674.62z"/>
	<path class="st0" d="M1364.65,1675.42c-11.01-8.9-17.23-18.84-19.21-31.02c-0.88-5.42-4.57-11.35,0.94-17.08
		c5.86,7.26,10.89,15.15,20.14,18.96C1363.77,1655.52,1365.23,1664.73,1364.65,1675.42z"/>
	<path class="st0" d="M1781.15,1638.98c2.28-7.27,5.97-11.62,8.52-16.99c8.62,0.96,14.04-3.64,19.31-9.71
		c4.95-5.7,11.53-8.8,19.67-4.61c-2.09,8.27-6.34,13.66-14.67,16.69C1803.23,1628.26,1793.01,1633.61,1781.15,1638.98z"/>
	<path class="st0" d="M2097.88,1620.14c-2.53,3.32-5.44,4.18-8.03,5.58c-4.64,2.49-8.89,1.96-12.89-1.35
		c-0.77-0.63-1.58-1.21-2.32-1.87c-4.67-4.2-9.33-4.29-14.24-0.31c-1.77,1.43-3.69,2.84-6.7,3.22c-5.6-2.13-11.68-4.45-18.79-7.15
		c9.29-3.77,18-3.26,26.38-4.49c6.83-1,13.89-0.37,20.81-0.9C2088.7,1612.36,2093.48,1615.13,2097.88,1620.14z"/>
	<path class="st0" d="M1381.42,465.33c-4.18-3.55-4.98-7.45-6.03-11.22c-3.74-13.42-5.48-27.23-7.97-40.89
		c-1.09-5.95-2.77-11.54-6.03-16.69c-5.14-8.12-10.14-16.33-15.15-24.53c-2.21-3.61-4.71-7.1-5.6-10.89
		c0.56-1.26,1.38-1.64,1.83-1.04c6.99,9.25,14.35,18.25,19.6,28.7c9,17.92,14.93,36.76,16.65,56.78
		C1379.25,451.8,1382.14,457.66,1381.42,465.33z"/>
	<path class="st0" d="M992.32,465.44c-0.52-1.42-0.77-1.75-0.73-2.04c3.94-25.87,7.18-51.91,20.02-75.44
		c5.72-10.48,12.95-19.81,21.64-30.94c-0.58,6.36-2.88,9.55-4.89,12.84c-5.02,8.22-9.84,16.57-15.16,24.6
		c-4.54,6.85-6.53,14.36-7.91,22.31c-2.28,13.06-4.03,26.24-7.84,39C996.49,458.97,995.39,461.96,992.32,465.44z"/>
	<path class="st0" d="M2012.84,1557.41c-2.68,7.55-7.93,9.44-14.75,10.38c-11.44,1.57-22.7,4.39-34.04,6.7
		c-1.28,0.26-2.51,0.52-3.95-0.6c2.16-4.19,5.92-6.94,9.3-10.03c2.64-2.42,5.57-3.56,9.08-1.99c4.79,2.13,8.94,0.8,13.06-2.01
		c2.72-1.85,5.73-3.31,8.71-4.72C2004.87,1552.94,2009.16,1553.19,2012.84,1557.41z"/>
	<path class="st0" d="M2070.13,1553.65c-4.76,6.52-10.95,8.6-18.44,7.99c-11.27-0.92-22.25,2.15-34.19,2.82
		c1.41-5.3,6.18-7.48,8.07-10.98c3.53-1.08,5.96,0.11,8.45,0.99c5.68,2.01,11.07,1.54,16.04-2.03c3.04-2.19,6.35-3.43,10.16-3.51
		C2064.1,1548.85,2067.43,1549.68,2070.13,1553.65z"/>
	<path class="st0" d="M897.02,1747.94c4.91,7.23,9.35,14.53,16.8,19.78c-0.42,6.12,0.09,12.37-1.65,18.49
		c-5.55-1.6-9.12-4.78-13.08-11C893.65,1766.65,895.62,1757.47,897.02,1747.94z"/>
	<path class="st0" d="M1462.04,1787.05c-2.6-6.24-2.83-12.14-2.6-19.12c6.43-5.05,12.08-11.76,15.66-20.4
		C1482.26,1761.24,1477.15,1776.72,1462.04,1787.05z"/>
	<path class="st0" d="M2175.14,1559.54c-5.3,4.73-10.27,5.15-16.28,4.28c-11.31-1.65-22.68-3.21-34.49-3.1
		c4.56-6.53,9.7-9.14,15.72-6.94c5.66,2.07,10.55,1.78,16.15-0.38C2163.43,1550.62,2169.57,1553.65,2175.14,1559.54z"/>
	<path class="st0" d="M2149.17,1621.53c-10.7,8.22-18.93,1.59-26.63-3.69c-4.61-0.35-7.31,2.97-11.82,3.45
		c-3.49-2.44-7.49-5.23-13.44-9.38c4.92-0.14,7.78-0.74,10.41-0.21c10.21,2.06,20.56,1.03,30.83,1.7
		C2144.55,1613.8,2147.51,1616.33,2149.17,1621.53z"/>
	<path class="st0" d="M1346.97,1667.28c-5.87-0.36-7.87-3.44-9.9-6.37c-7.6-11.02-13.52-22.9-17.96-35.51
		c-1.51-4.29-3.75-8.47-3.52-13.99c4.04,1.99,7.5,3.7,10.45,5.16c0.6,1.22,1.17,1.82,1.14,2.38c-0.63,9.62,1.98,18.04,7.41,26.2
		C1338.98,1651.7,1341.44,1659.52,1346.97,1667.28z"/>
	<path class="st0" d="M1537.88,926.76c-1.15-6.14-2.59-10.44-5.24-14.4c-2.49-3.71-2.85-7.7-0.38-12.04
		c2.27-3.99,3.6-8.52,5.58-13.39c6.12,2.84,9.12,8.4,8.41,13.51C1545.09,908.77,1544.03,917.58,1537.88,926.76z"/>
	<path class="st0" d="M1157.28,250.86c0.8-2.66,0.88-5.35,2.24-6.93c3.26-3.8,2.32-7.56,1.2-11.65c-1.89-6.92-3.58-13.9-5.46-21.28
		c3.97,0.93,5.92,3.35,8.4,4.91c1.71,1.08,2.74,2.63,3.13,4.79c1.29,7.16,2.59,14.31,2.65,21.6c0.04,4.33-0.37,8.62-3.49,12.19
		C1162.95,254.27,1160.19,253.44,1157.28,250.86z"/>
	<path class="st0" d="M835.86,887.92c2.39,5.77,4.79,11.57,7.4,17.89c-2.71,6.17-5.55,12.66-8.68,19.77
		c-5.07-7.99-5.74-16.38-7.48-24.4c-0.82-3.75,1.2-7.18,3.33-10.17C831.63,889.34,832.65,886.63,835.86,887.92z"/>
	<path class="st0" d="M2172.78,1621.4c-3.71,1.18-7.13,2.27-10.69,3.4c-3.11-1.96-5.96-4.03-7.1-8.67
		c9.06,0.39,17.3,2.34,25.56,3.89c4.55,0.86,8.95,2.46,13.5,3.29c5.16,0.94,8.22,3.78,9.52,8.73
		C2194.09,1637.13,2190.02,1635.77,2172.78,1621.4z"/>
	<path class="st0" d="M1216.84,211.76c0.57,6.45-1.69,12.05-3.52,17.55c-1.99,5.97-2.48,11.38,1.24,16.8c0.87,1.27,1.05,3,1.46,4.27
		c-2.01,3.36-5.39,3.04-8.02,4.4c-0.75-0.69-1.78-1.21-2.13-2.03c-4.05-9.37-1.01-18.75,0-28.16
		C1206.59,217.85,1210.39,214.07,1216.84,211.76z"/>
	<path class="st0" d="M2119.38,1552.96c-2.5,4.98-5.69,6.72-10.08,6.64c-5.31-0.09-10.63-0.05-15.95,0
		c-6.91,0.06-13.85-0.51-22.05,1.66c4.42-6.03,9.31-9.05,13.58-11.74c2.97-0.32,4.7,0.8,6.44,1.7c4.31,2.23,8.3,3.13,13.19,0.77
		C2108.98,1549.85,2114.08,1549.84,2119.38,1552.96z"/>
	<path class="st0" d="M1067.73,1652.53c1.04-3.06,2.5-5.93,5.68-8.24c7.16,6.09,11.61,12.78,8.48,22.88
		c-1.24,4-0.93,8.47-1.32,12.71C1076.24,1675.87,1071.85,1666.53,1067.73,1652.53z"/>
	<path class="st0" d="M1207.67,1832.35c9.92-2.83,16.69,0.82,21.9,8.29c3.39,4.86,8.94,7.9,11.41,13.51
		c-1.49,1.85-2.95,0.74-4.32,0.04c-7.33-3.78-14.71-7.48-21.94-11.46C1210.13,1840.21,1210.23,1840.01,1207.67,1832.35z"/>
	<path class="st0" d="M1422.44,876.09c3.04,6.74,6.02,13.02,10.89,18.07c1.23,1.27,1.67,2.7,1.62,4.48
		c-0.11,3.92-0.03,7.85-0.03,12.04C1420.35,905.5,1414.91,890.35,1422.44,876.09z"/>
	<path class="st0" d="M938.36,895.92c5.52-5.56,9.44-12.24,12.81-20.89c5.97,18.23,2.25,28.61-11.82,35.76
		C939.04,906.07,938.74,901.55,938.36,895.92z"/>
	<path class="st0" d="M2223.34,1570.42c-4.95,3.15-9.2,4-14,2.86c-9.67-2.29-19.39-4.35-29.18-6.52c3.54-3.38,3.54-3.38,10.02-5.53
		c2.15,1.03,4.53,2.18,6.91,3.32c2.55,1.23,5.24,1.48,7.67,0.04C2212.69,1559.9,2217.75,1564.29,2223.34,1570.42z"/>
	<path class="st0" d="M876.05,1735.16c-3.73,5.69-3.12,11.4-3.27,18.03c-4.55-3.65-5.5-8.59-8.07-12.44
		c-5.72-8.57-5.88-17.07,0-26.24C867.49,1721.8,870.11,1728.88,876.05,1735.16z"/>
	<path class="st0" d="M2320.04,1620.68c4.46,0.23,6.72,0.35,9.69,0.5c1.89,6.55,5.41,11.6,13.15,12.46
		c3.39,0.38,5.75,3.33,7.05,6.46c1.74,4.2,3.67,8.46,2.71,13.84c-3.92-0.37-6.8-2.34-8.76-5.34
		C2337.54,1638.91,2329.87,1630.35,2320.04,1620.68z"/>
	<path class="st0" d="M1386.51,1707.78c-13.67-8.53-25.15-17.74-35.03-29.23c2.62-1.15,4.69-0.47,6.55,0.84
		c4.6,3.24,9.35,6.19,14.75,7.89c2.08,0.65,3.24,2.18,4.13,3.99c1.51,3.05,3.65,5.7,6.65,7.13
		C1387.49,1700.28,1387.33,1703.17,1386.51,1707.78z"/>
	<path class="st0" d="M2317.13,1612.73c-3.75,1.17-6.39,1-9.12-0.91c-9.5-6.62-19.65-12.09-30.36-16.51
		c-0.42-0.18-0.59-0.99-1.32-2.33c4.28,0,8.14,0.04,11.99-0.01c2.55-0.03,4.43,1.21,5.95,3.03c2.92,3.51,6.43,4.93,11.15,5.12
		C2312.4,1601.42,2314.56,1604,2317.13,1612.73z"/>
	<path class="st0" d="M1501.48,1752.79c-0.79-6.67-0.84-12.27-4.05-17.39c4.19-6.38,9.55-12.08,9.82-20.61
		c6.12,7.26,6.49,9.13,4.25,16.69C1509.36,1738.68,1507.12,1745.8,1501.48,1752.79z"/>
	<path class="st0" d="M2229.48,1576.27c3.14-0.85,6.27-1.71,9.55-2.6c1.14,0.83,2.34,1.45,3.22,2.38c4.31,4.57,9.15,5.85,15.28,3.73
		c6.02-2.08,10.85-0.01,14.21,5.81c-7.07,3.39-13.42,2.77-20.11,0.08c-7.25-2.92-14.84-5-22.28-7.44
		C2229.4,1577.58,2229.44,1576.92,2229.48,1576.27z"/>
	<path class="st0" d="M1072.13,1625.73c-1.66,9.81-1.66,9.81-6.17,16.94c-4.57-4.16-7.77-12.75-11.9-32.35
		C1060.46,1615.88,1064.29,1623.07,1072.13,1625.73z"/>
	<path class="st0" d="M2289.41,1678.63c-11.16-0.03-14.19-2.18-15.91-10.05c-0.07-0.32-0.07-0.66-0.12-0.99
		c-1.6-10.35-0.15-9.38-11.24-11.27c-0.7-1.84-1.67-3.64-0.44-6.5C2273.74,1656.39,2284.84,1663.41,2289.41,1678.63z"/>
	<path class="st0" d="M1052.32,1603.36c-4.11-15.43-6.85-37.17-5.29-45.63c3.85,8.89,7.3,16.39,9.96,24.24
		c0.39,1.15,0.04,2.65-0.27,3.91C1055.35,1591.59,1053.87,1597.27,1052.32,1603.36z"/>
	<path class="st0" d="M826.45,931.63c0.13,1.31,0.36,2.61,0.38,3.92c0.06,3.26,0.02,6.52,0.02,9.96
		c-10.29-5.81-18.13-17.14-17.93-25.64c0.02-0.96,0.14-1.9,1.3-2.49c3.48,1.43,4.42,5.51,7.46,7.55
		C820.7,926.93,823.46,929.31,826.45,931.63z"/>
	<path class="st0" d="M1150.05,1780.64c6.98,1.01,11.92,4.16,13.69,11.75c1.24,5.35,3.39,10.49,5.7,17.42
		c-8.27-6.18-13.94-12.59-19.14-19.45c-0.71-0.94-0.65-2.51-0.81-3.8C1149.25,1784.65,1148.37,1782.68,1150.05,1780.64z"/>
	<path class="st0" d="M1546.8,931.22c6.45-3.78,11.45-8.47,16.44-14.69c2.01,4.24,2.26,7.67,0.24,10.81
		c-4.42,6.92-9.36,13.45-16.69,19.08C1546.8,940.68,1546.8,935.96,1546.8,931.22z"/>
	<path class="st0" d="M2361.34,1699.17c-3.96-5.99-3.47-12.83-5.17-19.02c-1.64-5.97-3.12-11.98-4.92-18.95c4.9,1.03,8.1,2.65,8,7.5
		c-0.13,6.18,0.47,11.87,5.86,16.07c1.62,1.26,1.91,3.56,1.01,5.53C2364.9,1692.96,2365.12,1696.28,2361.34,1699.17z"/>
	<path class="st0" d="M2353.71,1739.83c-2.68-2.94-3.54-6.27-2.07-10.04c2.86-7.35,4.29-15.09,6.06-22.89
		c3.42,0.88,4.87,3.55,6.72,5.74c0.39,3.04-1.79,4.88-3.19,7c-2.11,3.2-2.8,6.44-2.15,10.31
		C2360.01,1735.45,2359.74,1735.49,2353.71,1739.83z"/>
	<path class="st0" d="M1510.94,1886.95c10.03-9.48,20-10.1,30.96-2.79c-4.68,3.59-10.43,3.08-15.54,4.26
		C1521.55,1889.53,1516.14,1891.84,1510.94,1886.95z"/>
	<path class="st0" d="M1251.8,159.38c-1.05-3.37-2.89-5.8-1.61-9.44c8.65-1.53,18.08-1.85,24.93-9.66
		c0.37,9.88-0.61,10.86-8.67,13.08C1261.78,154.64,1257.41,157.02,1251.8,159.38z"/>
	<path class="st0" d="M1667.69,1671.43c7.86-5.48,23.01-12.42,29.33-13.47c-3.75,4.97-7.27,9.65-10.96,14.54
		C1680.19,1672.76,1674.17,1674.02,1667.69,1671.43z"/>
	<path class="st0" d="M1097.75,140.18c7.17,7.27,16.08,8.59,24.8,9.39c1.43,3.54,0.53,6.29-0.39,9.05
		c-2.94,0.72-5.07-1.13-7.41-2.17c-2.69-1.2-5.22-2.84-7.99-3.82C1098.44,149.68,1098.4,149.77,1097.75,140.18z"/>
	<path class="st0" d="M1104.85,1717.45c7.79,3.82,11.3,9.17,10.61,16.93c-0.32,3.61,0.69,7.07,1.59,11.99
		c-6.58-6.63-10.37-13.44-14.24-20.11C1101.23,1723.5,1103.65,1720.79,1104.85,1717.45z"/>
	<path class="st0" d="M2255.56,1647.72c-3.56,1.56-5.58,2.76-7.76,3.32c-3.37,0.86-6.67,0.16-8.92-2.65
		c-2.83-3.55-6.26-6.73-8.4-12.27C2239.81,1638.63,2247.54,1642.15,2255.56,1647.72z"/>
	<path class="st0" d="M2271.19,1760.04c-0.62-10.94,10.02-11.83,15.34-17.42c1.48-9.85,1.48-9.85,8.23-13.9
		c-1.95,10.97-8.53,18.72-15.05,26.57C2277.55,1757.88,2275.61,1760.39,2271.19,1760.04z"/>
	<path class="st0" d="M2292.61,1683.65c8.24,12.39,8.9,27.56,1.89,36.91c-4.92-4.91-4.92-4.91,2.18-21.95
		C2294.57,1694.2,2287.65,1690.94,2292.61,1683.65z"/>
	<path class="st0" d="M1323.07,1884.56c5.12-4.22,11.98-2.89,16.43-7.43c4.7,3.2,8.27,6.81,11.87,11.92
		C1340.97,1889.56,1332.41,1886,1323.07,1884.56z"/>
	<path class="st0" d="M1085.09,1691.36c4.59,3.65,9.19,7.31,13.99,11.12c0.57,4.78,0.73,9.6-0.32,15.89
		C1092.17,1709.52,1088.12,1700.79,1085.09,1691.36z"/>
	<path class="st0" d="M1383.98,1894.84c-6.17-0.75-10.7-1.61-15.27-1.79c-5.99-0.24-10.1-2.59-11.85-8.5
		C1364.38,1882.13,1368.95,1883.78,1383.98,1894.84z"/>
	<path class="st0" d="M1049.95,1521.7c6.6-0.15,6.62-0.16,7.43,3.93c0.5,2.56,1.02,5.13,1.35,7.72c0.46,3.54-0.52,6.49-3.9,8.26
		C1048.87,1534.24,1048.35,1532.26,1049.95,1521.7z"/>
	<path class="st0" d="M1318.41,1542.33c-5.8-6.98-3.03-13.35-1.56-19.52c0.41-1.75,2.47-1.91,4.18-1.69c2.33,0.3,3.59,1.92,3.59,4
		C1324.62,1531.07,1323.56,1536.73,1318.41,1542.33z"/>
	<path class="st0" d="M1617.72,1860.36c-8.54,2.7-15.34,9.74-25.29,6.04c4.91-8.94,4.9-8.91,13.76-7.77
		c1.97,0.25,3.98,0.18,5.98,0.27C1613.78,1858.98,1615.47,1858.69,1617.72,1860.36z"/>
	<path class="st0" d="M1838.61,1721.39c-0.17-6.09,2.37-9.51,4.96-13.56c4.48,0.71,9.04,1.43,15.32,2.42
		C1851.68,1714.88,1846.97,1720.3,1838.61,1721.39z"/>
	<path class="st0" d="M1731.59,1640.29c8.7-6.15,17.25-8.19,25.26-11.71c-4.56,4.02-7.46,9.14-10.52,13.55
		C1741.39,1643.87,1737.44,1642.26,1731.59,1640.29z"/>
	<path class="st0" d="M1554.49,1711.99c5.58-7.32,14.02-6.16,22.59-8.91c-4.02,4.68-7,8.15-9.95,11.59
		C1560.36,1714.95,1560.36,1714.95,1554.49,1711.99z"/>
	<path class="st0" d="M2346.04,1743.65c3.37,2.6,3.84,5.67,0.97,7.71c-4.45,3.14-6.15,7.18-7.19,12.27c-1,4.89-2.29,5.2-8.58,4.88
		c-0.1-0.62-0.5-1.44-0.25-1.83C2335.94,1759.02,2340.96,1751.4,2346.04,1743.65z"/>
	<path class="st0" d="M1139.22,113.58c0.1-1.1,0.73-1.9,1.79-1.9c4.91-0.02,7.88-2.41,9.91-6.86c2.5-5.48,7.22-9.45,10.77-14.23
		c1.66-2.24,4.11-3.26,7.71-4.65c-1.44,4.22-4.73,5.94-6.66,8.6c-2.14,2.96-4.22,5.96-6.15,9.05c-1.92,3.07-3.62,6.27-5.19,9.02
		c-4.45,1.71-8.43,0.96-12.37,0.74L1139.22,113.58z"/>
	<path class="st0" d="M1442.62,1887.66c3.4,2.38,6.86,4.8,11.51,8.05c-6.68,2.19-12.36,2.05-18.02,1.58
		c-1.61-0.13-2.97-1.31-3.33-3.81C1434.95,1890.36,1438.69,1889.21,1442.62,1887.66z"/>
	<path class="st0" d="M1140.24,1765.76c0.67,4.76,1.3,9.21,2.1,14.86c-7.2-6.99-12.3-14.09-18.47-23.33
		C1130.65,1760.79,1135.41,1763.26,1140.24,1765.76z"/>
	<path class="st0" d="M1280.39,1865.9c2.91-1.55,5.9-1.44,8.28,0.64c5.17,4.52,11.1,7.94,17.87,12.05
		C1291.82,1878.05,1284.72,1874.45,1280.39,1865.9z"/>
	<path class="st0" d="M795.67,927.83c-8.22-12.72-9.17-16.03-7.37-25.72c3.33,5.52,6.47,10.33,9.19,15.36
		C799.26,920.75,796.86,923.7,795.67,927.83z"/>
	<path class="st0" d="M1178.63,1816.65c6.37,1.21,10.86,2.06,15.7,2.97c1.73,3.8,3.49,7.64,5.41,11.85
		C1191.83,1828.99,1185.76,1824.83,1178.63,1816.65z"/>
	<path class="st0" d="M1578.07,927.12c-3.63-5.56-3.57-9.98,0.84-14.65c2.36-2.5,3.36-6.29,4.93-9.41
		C1587.85,908.66,1586.7,913.87,1578.07,927.12z"/>
	<path class="st0" d="M1680.92,1826.6c-5.69,4.11-10.63,9.89-19.27,8.26c-0.07-4.41,3.24-6.47,4.45-9.13
		C1671.46,1824.09,1676.03,1825.72,1680.92,1826.6z"/>
	<path class="st0" d="M1783.22,1758.68c1.43-5.45,2.12-9.28,4.57-12.59c4.93-1.76,9.96-1.24,17.37-0.66
		C1796.99,1750.36,1791.54,1755.36,1783.22,1758.68z"/>
	<path class="st0" d="M1743.42,1786.02c-7.57,7.39-7.57,7.39-18.01,6.39c3.41-9.23,3.63-9.36,12.52-7.73
		c1.61,0.3,3.25,0.47,4.86,0.76C1743.03,1785.48,1743.21,1785.82,1743.42,1786.02z"/>
	<path class="st0" d="M1996.59,1640.83c0.86-1.92,2.65-2.86,4.25-3.97c1.6-1.12,3.31-2.07,5.12-3.19c3.48,1.96,6.84,3.85,10.48,5.9
		C2005.06,1645.34,2003.73,1645.4,1996.59,1640.83z"/>
	<path class="st0" d="M1519.91,1735.13c-1.5-7.55,1.32-11.85,2.24-16.98c4.23,0.6,7.68,1.89,11.21,4.66
		C1529.72,1727.46,1525.16,1730.3,1519.91,1735.13z"/>
	<path class="st0" d="M1584.62,1701.58c5.09-3.43,9.78-3.91,13.94-5.68c1.11-0.47,2.51-0.96,4.24,0.53
		c-0.43,3.95-2.51,7.36-5.3,10.96C1593.42,1705.55,1589.59,1703.82,1584.62,1701.58z"/>
	<path class="st0" d="M2234.51,1650.13c-6.53-1.49-14.8-0.02-16.68-9.12c8.65-2.26,9.09-2.17,12.97,3.3
		C2232.12,1646.19,2233.27,1648.19,2234.51,1650.13z"/>
	<path class="st0" d="M1575.49,1867.25c4.55,1.14,8.39,2.1,13.06,3.26c-6.97,4.99-14.68,6.03-23.08,8.49
		C1568.19,1873.71,1572.17,1871.18,1575.49,1867.25z"/>
	<path class="st0" d="M1502.63,1892.52c-7.98,0.74-14.5,2.68-22.04,2.07c2.16-4.18,6.06-5.67,8.75-8.8
		C1493.74,1887.29,1498.19,1888.13,1502.63,1892.52z"/>
	<path class="st0" d="M2092.13,1545.76c9.28-0.39,33.29-0.55,37.4,2.01c-0.77,2.14-2.92,2.19-5.05,3.3
		c-4.34-1.97-8.38-5.92-14.19-4.84c-2.95,0.55-5.74,1.3-8.5,2.43C2098.02,1550.22,2094.91,1549.26,2092.13,1545.76z"/>
	<path class="st0" d="M1538.31,1720.02c-4.02-1.98-7.77-3.82-12.38-6.09c3.99-0.9,6.83-1.7,9.73-2.17
		c3.88-0.63,7.79-1.02,12.63-1.63C1545.31,1714.52,1541.68,1717.05,1538.31,1720.02z"/>
	<path class="st0" d="M1327.33,1557.85c5.71,5.46,2.96,11.81,3.21,18.6C1321.49,1567.82,1321.22,1566.17,1327.33,1557.85z"/>
	<path class="st0" d="M1719.65,1655.29c-5.47,0.28-9.51-1.04-14.17-2.85c5.87-3.84,11.57-6.78,19.37-9.45
		C1722.75,1647.97,1721.28,1651.44,1719.65,1655.29z"/>
	<path class="st0" d="M1779.75,1628.01c-4.84-1.18-8.66-2.11-14.11-3.43c7.14-3.47,13.04-6.34,21.2-10.31
		C1783.87,1620.04,1782.01,1623.64,1779.75,1628.01z"/>
	<path class="st0" d="M1426.63,1896.76c-8.11,0-14.52,0-20.94,0c-0.1-0.42-0.2-0.84-0.3-1.26c3.61-2.03,7.22-4.06,10.93-6.15
		C1420.06,1890.87,1422.92,1893.37,1426.63,1896.76z"/>
	<path class="st0" d="M2228.49,1792.99c-5.38,5-11.27,8.17-19.48,5.5c2.33-5.41,6-7.37,11.1-6.78c2.91,0.34,5.77,1.01,8.66,1.54
		L2228.49,1792.99z"/>
	<path class="st0" d="M1638.89,1848.15c1.08-3.04,2.16-6.09,3.28-9.26c4.77-0.24,9.15,0.25,14.87,1.42
		c-5.77,4.82-11.51,6.69-16.77,9.46C1639.82,1849.23,1639.35,1848.69,1638.89,1848.15z"/>
	<path class="st0" d="M1897.79,1679.76c4.18,0.89,7.83,1.67,12.93,2.77c-6.12,3.46-10.28,7.83-16.87,6.31
		C1894.41,1684.2,1894.39,1684.19,1897.79,1679.76z"/>
	<path class="st0" d="M1832.78,1602.91c-5.03,0.45-8.79-0.55-12.76-2.49c1.32-0.8,2.33-1.66,3.49-2.07
		c4.62-1.63,9.28-3.11,14.27-4.76c0.62,2.55-1.06,3.8-1.94,5.25C1835,1600.25,1833.88,1601.48,1832.78,1602.91z"/>
	<path class="st0" d="M1610.7,1692.24c6.6-3.34,12.38-5.29,18.54-7.13C1626,1695.21,1622.95,1696.47,1610.7,1692.24z"/>
	<path class="st0" d="M1947.64,1657.42c3.02,0.98,5.48,1.78,7.92,2.57c-0.25,0.97-0.22,1.89-0.58,2.08
		c-4.8,2.63-9.78,4.8-15.84,6.35C1939.85,1661.92,1945.03,1660.84,1947.64,1657.42z"/>
	<path class="st0" d="M2182.08,1635.05c-7.35,0.19-12.62,0.11-16.6-4.49c0.56-3.64,3.3-3.89,6.36-4.66
		C2174.71,1628.46,2177.77,1631.19,2182.08,1635.05z"/>
	<path class="st0" d="M1972.21,1655.18c7.74-10.6,7.74-10.6,19.67-6.77C1985.28,1650.68,1979.27,1652.75,1972.21,1655.18z"/>
	<path class="st0" d="M2059.97,1628.73c1.84-3.54,5.04-4.36,7.66-5.58c3.31,1.15,5.36,2.97,6.97,6.2
		C2069.35,1631.47,2064.67,1632.31,2059.97,1628.73z"/>
	<path class="st0" d="M2180.17,1810.49c-5.96,2.89-12.42,2.86-19.37,4.45C2166.25,1807.2,2170.47,1806.39,2180.17,1810.49z"/>
	<path class="st0" d="M1904.11,1571.58c-2.78,4.45-5.44,6.87-8.51,8.91c-2.88-0.68-5.85-0.85-8.61-3.31
		c2.18-2.75,5.55-2.24,8.07-3.38C1897.4,1572.75,1900.11,1572.52,1904.11,1571.58z"/>
	<path class="st0" d="M1265.72,1859.09c1.4,1.52,3.01,3.12,4.42,4.87c0.8,0.99,1.29,2.24,2.4,4.24c-6.46-0.33-11.17-3.48-16.55-5.48
		C1260.4,1859.79,1260.38,1859.73,1265.72,1859.09z"/>
	<path class="st0" d="M1850.58,1590.2c5.51-4.08,10.9-5.22,16.46-6.87c-2.48,5.71-3.09,6.42-5.25,7.34
		C1858.31,1592.16,1855.03,1591.47,1850.58,1590.2z"/>
	<path class="st0" d="M1808.42,1606c-4.17,4.5-6.58,11.28-14.75,11.72C1795.27,1608.74,1801.58,1607.03,1808.42,1606z"/>
	<path class="st0" d="M2316.4,1780.14c-2.14,5.09-3.3,8.03-4.61,10.9c-0.85,1.85-2.2,3.3-4.33,3.69c-1.37,0.25-2.77-0.06-3.32-1.4
		c-0.32-0.79-0.29-2.28,0.23-2.76C2307.66,1787.51,2311.14,1784.64,2316.4,1780.14z"/>
	<path class="st0" d="M1647.68,1678.57c3.83-2.93,8.14-3.44,12.05-5.05c0.36,4.04,0.43,4.07-2.18,8.78
		C1654.05,1681.9,1650.63,1681.2,1647.68,1678.57z"/>
	<path class="st0" d="M1709.54,1810.59c3.5-10.82,3.5-10.82,13.78-10.57C1720.09,1804.76,1715.09,1806.12,1709.54,1810.59z"/>
	<path class="st0" d="M1378.1,1684.43c2.79-0.83,4.31-1.29,6.49-1.94c0.91,3.83,2.28,7.47,1.37,12.17
		C1380.78,1692.88,1380.26,1688.52,1378.1,1684.43z"/>
	<path class="st0" d="M1381.94,1676.44c-4.66,1.49-7.12,1.24-9.92-0.3c-0.33-3.41-0.66-6.87-1.07-11.05
		C1375.97,1668.04,1377.26,1672.95,1381.94,1676.44z"/>
	<path class="st0" d="M1993.61,1552.13c-4.42,4.48-8.69,9.47-16.68,4.38C1982.17,1551.71,1988.48,1554.06,1993.61,1552.13z"/>
	<path class="st0" d="M2036.03,1634.79c2.02-3.74,5.72-4.23,7.91-6.42c2.8,0.35,5.26,1.16,7.39,2.67c-0.25,0.82-0.32,1.79-0.58,1.85
		C2046.11,1633.78,2041.63,1636.24,2036.03,1634.79z"/>
	<path class="st0" d="M2258.39,1772.7c-2.98,6.78-4.87,7.59-13.09,5.63c-0.11-3.18,1.73-4.84,4.6-5.17
		c2.89-0.33,5.83-0.17,8.74-0.23C2258.64,1772.94,2258.39,1772.7,2258.39,1772.7z"/>
	<path class="st0" d="M2215.71,1636.55c-2.16-2.13-3.49-3.95-4.15-6.2c0.52-0.31,1.07-0.94,1.48-0.85
		c4.44,0.93,8.81,2.12,14.18,5.13C2222.33,1635.44,2218.82,1636.03,2215.71,1636.55z"/>
	<path class="st0" d="M2144.6,1630.54c1.76-3.74,4.92-4,7.45-5.24c2.71,0.8,4.69,2.24,5.25,5.61
		C2153.07,1632.04,2149.13,1630.76,2144.6,1630.54z"/>
	<path class="st0" d="M2256.17,1652.75c2.35,3.21,3.09,5.93,2.84,9.86c-4.06-0.79-7.1-2.56-10.29-4.79
		C2250.49,1654.53,2253.36,1653.86,2256.17,1652.75z"/>
	<path class="st0" d="M1833.48,1726.57c-3.86,3.77-7.12,6.11-11.56,7.85c0.29-3.49,1.36-6.08,2.55-8.46
		C1827.25,1724.28,1829.71,1725.24,1833.48,1726.57z"/>
	<path class="st0" d="M1210.85,128.23c-0.24,0.35-0.52,0.65-0.86,0.91c-1.57,0.46-3.14,0.91-4.71,1.38
		c-2.25,0.67-2.25,0.63-5.29-4.09c5.41,0.9,8.49-3.23,13.02-4.3C1213.87,124.74,1210.53,125.88,1210.85,128.23z"/>
	<path class="st0" d="M2116.88,1626.35c0.59-3.41,2.88-3.33,4.71-4.03c2.55,1.4,5.18,2.74,6.84,5.39
		C2121.96,1629.49,2121.96,1629.44,2116.88,1626.35z"/>
	<path class="st0" d="M1929.32,1564.44c-5.77,8.39-5.77,8.39-15.11,5.74C1918.25,1565.86,1923.58,1566.71,1929.32,1564.44z"/>
	<path class="st0" d="M2096.04,1628.93c2.06-3.7,3.86-5.09,5.84-6.3c2.34,1.4,4.81,2.4,5.65,5.56
		C2103.98,1629.65,2100.53,1628.6,2096.04,1628.93z"/>
	<path class="st0" d="M2244.5,1571.9c4.84-2.16,8.66,0.17,12.52,2.3C2250.22,1578.19,2250.22,1578.19,2244.5,1571.9z"/>
	<path class="st0" d="M1050.61,1547.4c-1.33,2.1-2.2,3.9-5.02,4.61c-1.46-4.06-0.34-8.16-0.97-13.51
		C1048.94,1541.33,1049.05,1544.94,1050.61,1547.4z"/>
	<path class="st0" d="M2199.68,1640.72c1.83-3.72,4.77-3.6,7.2-4.88c2.47,1.59,4.1,3.61,4,7.09
		C2206.79,1643.59,2203.72,1641.28,2199.68,1640.72z"/>
	<path class="st0" d="M1328.31,1538.94c0.72,4.06,0.64,7.56,0.19,10.94c-2.5,2.09-3.24-1.03-5.76-0.43
		C1324.05,1544.94,1324.14,1541.18,1328.31,1538.94z"/>
	<path class="st0" d="M2047.8,1548.08c-5.2,5.26-9.81,4.66-15.45,0.24c3.04-1.07,5.56-0.62,7.94-0.74
		C2042.54,1547.46,2044.82,1546.33,2047.8,1548.08z"/>
	<path class="st0" d="M2368.06,1679.72c-7.03-1.94-3.84-7.25-5-12.46C2368.17,1670.9,2366.41,1675.85,2368.06,1679.72z"/>
	<path class="st0" d="M1877.59,1700.28c-0.4-4.53,1.43-6.35,3.13-8.21c2.57-0.75,4.56,0.18,6.83,2.25
		C1884.44,1696.19,1881.51,1697.94,1877.59,1700.28z"/>
	<path class="st0" d="M1968.07,1556.63c-7.65,8.22-7.65,8.22-14.45,3.21C1958.13,1558.84,1962.05,1557.97,1968.07,1556.63z"/>
	<path class="st0" d="M2223.92,1563.46c4.98,0.82,8.2,1.75,11.53,3.67C2228.73,1570.17,2228.73,1570.17,2223.92,1563.46z"/>
	<path class="st0" d="M2342.42,1628.66c-6.36-1.39-6.36-1.39-7.34-8.82C2338.69,1621.81,2341.04,1624.23,2342.42,1628.66z"/>
	<path class="st0" d="M2329.76,1614.46c-6.52,0.04-6.52,0.04-8-7.02C2325.68,1608.66,2327.79,1611.25,2329.76,1614.46z"/>
	<path class="st0" d="M1135.21,135.28c1.6,2.55,2.05,5.44,2.49,8.33c-3.23-1.44-4.48,2.22-7.73,2.85
		C1130.67,142.01,1132.15,138.32,1135.21,135.28z"/>
	<path class="st0" d="M1169.48,131.14c-3.18-1.42-6.13-3.26-8.04-6.57c2.46-2.49,3.92,0.49,5.79,0.97c1.76,0.45,3.54,0.85,5.31,1.27
		C1173.27,129.41,1171.56,130.28,1169.48,131.14z"/>
	<path class="st0" d="M1935.09,1670.19c-3.58,3.47-6.52,5.07-10.31,5.4C1927.09,1669.02,1927.09,1669.02,1935.09,1670.19z"/>
	<path class="st0" d="M2288.64,1695.89c3.9,3.54,3.9,3.54,0.31,9.09C2287.66,1701.2,2287.66,1701.2,2288.64,1695.89z"/>
	<path class="st0" d="M2228.77,1793.25c1.89-2.22,3.75-4.46,5.69-6.64c1.74-1.96,3.85-2.1,6.99-0.66c-3.43,4.5-7.99,6.1-12.96,7.04
		L2228.77,1793.25z"/>
	<path class="st0" d="M2258.64,1772.94c1.49-1.28,2.46-2.77,2.91-4.8c0.67-3.03,2.93-2.85,5.99-1.73c-2.24,3.62-4.17,6.94-9.15,6.29
		L2258.64,1772.94z"/>
	<path class="st0" d="M2357.53,1651.1c3.07,2.99,4.28,5.78,5.04,9.2C2357.91,1658.6,2357.91,1658.6,2357.53,1651.1z"/>
	<path class="st0" d="M2371.05,1693.79c-0.99,6.11-1.64,10.13-2.55,15.72C2364.21,1703.08,2366.96,1699.4,2371.05,1693.79z"/>
	<path class="st0" d="M2275.59,1581.14c3.89,1.88,7.52,1.68,9.28,5.38C2280.84,1587.14,2277.08,1587.81,2275.59,1581.14z"/>
	<path class="st0" d="M1327.98,1603.84c0.26,0.87,0.68,1.7,0.72,2.55c0.06,1.26-0.15,2.54-0.22,3.53c-2.78,2.04-3.65-0.32-5.09-0.94
		C1323.86,1605.95,1325.18,1604.36,1327.98,1603.84z"/>
	<path class="st0" d="M2195.09,1557.73c3.35-1.37,6.33-0.79,9.51,0.78C2200.36,1562.02,2200.35,1562.03,2195.09,1557.73z"/>
	<path class="st0" d="M2286.88,1721.68c3.53,3.09,3.53,3.09-1.76,6.95C2284.43,1725.82,2284.88,1723.6,2286.88,1721.68z"/>
	<path class="st0" d="M2200.92,1804.49c-2.61,2.93-5.59,3.16-9.3,2.43C2194.05,1802.47,2197.1,1802.52,2200.92,1804.49z"/>
	<path class="st0" d="M2279.86,1683.29c3.67,0,4.95,0,6.27,0c2.03,2.42,0.97,4.93,0.21,7.7
		C2282.82,1689.98,2283.22,1686.46,2279.86,1683.29z"/>
	<path class="st0" d="M2070.95,1545.75c3.6,0,6.2,0,9.17,0c-0.68,1.03-1.01,1.95-1.67,2.47
		C2075.62,1550.48,2073.62,1548.78,2070.95,1545.75z"/>
	<path class="st0" d="M2231.72,1783.15c-2.53,4.92-4.49,6.44-8.2,4.9C2224.48,1784.52,2227.31,1784.58,2231.72,1783.15z"/>
	<path class="st0" d="M1398.5,542.02c-0.6,2.64-1.67,4.89-4.26,6.11C1393.75,543.95,1393.75,543.95,1398.5,542.02z"/>
	<path class="st0" d="M1775.43,1763.8c-2.07,2.62-3.7,4.1-6.56,4.35C1768.62,1763.64,1771.29,1763.46,1775.43,1763.8z"/>
	<path class="st0" d="M2186.63,1554.87c-4.48,3.47-7.05,3.1-9.29-0.59C2180.24,1552.05,2182.78,1553.53,2186.63,1554.87z"/>
	<path class="st0" d="M1384.18,537.03c0.65,5.34-1.62,6.76-4.46,8.29C1378.01,540.83,1380.58,539.37,1384.18,537.03z"/>
	<path class="st0" d="M994.49,545.07c-4.3-0.85-5.81-2.79-5.13-7.37C992.78,539.15,994.74,540.74,994.49,545.07z"/>
	<path class="st0" d="M2277.45,1743.28c0.4-4.17,2.22-5.88,4.7-7.63C2284.47,1740.39,2281.86,1741.73,2277.45,1743.28z"/>
	<path class="st0" d="M2268.58,1668.39c-3.28-0.02-3.7-2.35-3.98-4.89c-0.13-1.18,0.45-1.78,1.42-2.04
		c1.01-0.28,1.98,0.08,2.32,1.08C2268.96,1664.32,2269.66,1666.16,2268.58,1668.39z"/>
	<path class="st0" d="M2297.36,1591.46c3.49,0.83,5.67,2.16,7.31,4.59C2300.84,1596.5,2300.84,1596.5,2297.36,1591.46z"/>
	<path class="st0" d="M2012.53,1550.08c3.16-1.74,5.56-1.18,8.13-0.31C2017.34,1553.84,2017.34,1553.84,2012.53,1550.08z"/>
	<path class="st0" d="M980.19,548.49c-3.42-1.67-5.51-3.38-4.5-7.96C978.03,543.12,980.93,544.36,980.19,548.49z"/>
	<path class="st0" d="M1243.99,155.88c1.44,2.86,0.87,5.74,0.39,8.86C1241.67,161.73,1244.56,158.76,1243.99,155.88z"/>
	<path class="st0" d="M1035.52,516.08c-2.71-1.8-2.11-3.5,0.02-5.25C1037.29,512.49,1037.45,514.17,1035.52,516.08z"/>
	<path class="st0" d="M2188.28,1801.4c-2.17,3.65-4.28,4.57-7.15,3.54C2182,1801.91,2184.74,1802.38,2188.28,1801.4z"/>
	<path class="st0" d="M2262.18,1761.02c0.77-2.68,2.11-3.88,4.34-4.45C2267.15,1759.58,2266.87,1761.66,2262.18,1761.02z"/>
</g>
</svg>
