<?xml version="1.0" encoding="utf-8"?>
<!-- Generator: Adobe Illustrator 24.1.1, SVG Export Plug-In . SVG Version: 6.00 Build 0)  -->
<svg version="1.1" id="Layer_1" xmlns="http://www.w3.org/2000/svg" xmlns:xlink="http://www.w3.org/1999/xlink" x="0px" y="0px"
	 viewBox="0 0 2392 1904.01" style="enable-background:new 0 0 2392 1904.01;" xml:space="preserve">
<style type="text/css">
	.st0{fill:#1A1A1A;}
</style>
<g>
	<path d="M1119.99,351.56c-7.68,11.2-15.86,21.01-26.67,28.67c-4.64,3.29-7.07,8.72-7.5,14.69c-0.31,4.31-0.36,8.68-1.13,12.92
		c-2.61,14.32-9.68,26.06-21.21,35.03c-2.89,2.25-5.61,4.8-8.76,6.59c-6.07,3.46-10.18,8.4-12.78,14.89
		c-0.01,2.47,1.64,4.28,3.22,5.84c3.72,3.67,5.63,8.02,6.62,13.11c0.89,4.58,3.02,8.82,5.69,12.69c5.47,7.95,4.13,15.74-0.62,23.3
		c-1.71,2.71-3.14,5.86-6.84,7.6c-3.83-8.98-12.65-14.43-15.78-24.85c-5.72,4.82-10.01,9.47-10.7,16.47
		c-0.36,3.7-0.91,7.59-2.87,10.48c-4.76,7.06-5.56,14.79-5.56,22.86c0,1.29-0.03,2.66-1.76,4.07c-4.63,0.68-6.03-5.25-10.31-6.36
		c-3.83,1.6,0.03,6.54-3.77,8.47c-9.59-3.23-14.1-11.18-16.89-20.25c-1.07-3.49-2.04-6.86-3.76-10.15
		c-2.49-4.75-3.51-10.05-3.37-15.45c0.1-3.99,0.72-7.56,3.99-10.79c5.06-4.98,7.29-11.87,9.67-18.42
		c8.5-23.41,17.32-46.71,23.23-70.99c4.16-17.09,12.63-32.19,23.46-45.89c7.34-9.29,12.46-19.55,15.77-30.84
		c3.12-10.65,9.16-19.93,14.28-29.62c3.57-6.75,7.53-13.32,11.62-19.78c2.02-3.2,2.91-6.71,3.81-10.22
		c3.61-14.06,11.75-25.16,22.32-34.7c5.41-4.88,12.54-6.03,19.1-8.18c4.34-1.42,8.97-2.29,13.73-2.22
		c6.03,0.09,11.72-1.95,17.54-3.33c7.85-1.85,10.21-7.88,12.79-14.01c0.44-1.05-0.01-2.57-0.26-3.82
		c-1.32-6.54-4.95-11.72-10.53-15.08c-6.02-3.63-10.06-8.6-12.47-15.02c-1.6-4.27-4.41-6.96-8.76-8.66
		c-7.2-2.82-13.17-7.49-18.56-13.15c-5.21-5.47-6.3-12.3-7.53-19.1c-0.36-1.98,0.16-4.68,3.11-6.29c4.72,1.46,5.79,7.91,10.77,9.28
		c4.44,1.22,8.8,3.1,14.08,2.34c-0.53-3.96-3.63-5.28-6.26-6.91c-7.82-4.86-13.63-11.65-18.59-19.23
		c-8.91-13.6-8.09-27.65-1.52-41.8c1.89-4.07,3.44-8.65,9.05-10.77c0.13,8.94,2.68,16.72,5.3,24.49
		c2.61,7.74,8.33,11.41,17.65,13.18c-5.14-9.09-9.15-17.19-12.26-25.71c-3.3-9.04-2.55-18.36-2.61-27.65
		c-0.06-9.56,3.19-18.36,6.84-26.9c3.59-8.39,7.16-17.04,14.6-22.36c3.66,1.17,3.4,3.19,3.31,5.23c-0.63,14.35,0.72,28.5,3.64,42.59
		c2.81,13.55,11.44,22.11,22.74,28.65c3.85,2.23,8.37,2.31,12.66,2.35c8.62,0.08,17.21,0.07,25.85,0.54
		c7.11,0.39,14.41-2.8,19.93-7.97c6.4-5.99,11-13.19,13.14-21.92c2.7-11.05,4.13-22.19,4-33.57c-0.06-4.91-0.7-9.91,0.45-14.49
		c2.46-1.73,4.13-0.7,5.72,0.66c3.39,2.9,5.06,6.99,7.2,10.72c9.2,16.02,13.68,33.29,11.72,51.7c-1.17,10.97-5.4,21.21-11.03,30.77
		c-1.28,2.18-2.56,4.36-4.54,7.75c9.58-2.19,15.99-5.77,18.48-14.57c2.14-7.54,5.47-14.79,4.39-22.67c3.28-1.03,4.48,0.98,5.46,2.45
		c5.63,8.46,8.9,17.77,9.41,27.98c0.44,8.79-3.38,16.2-8,23.15c-4.81,7.24-10.52,13.73-18.31,18.05c-2.31,1.28-4.62,2.67-5.78,5.96
		c5.13,1.55,9.61-0.88,14.18-1.89c5.21-1.15,6.28-7.58,10.93-9.44c3.83,1.8,3.52,4.92,3.19,7.83c-1.18,10.55-6.46,18.71-15.13,24.63
		c-3.55,2.42-7,5.14-11.27,6.33c-3.8,1.07-6.22,3.48-7.62,7.19c-2.78,7.39-7.36,13.24-14.54,16.99c-1.64,0.86-2.75,2.82-3.99,4.36
		c-8.89,11.08-4.85,24.54,8.63,29.14c3.55,1.21,7.14,1.58,10.81,1.37c12.02-0.67,22.88,3.58,33.68,7.96
		c2.08,0.84,3.93,2.46,5.64,3.99c10.64,9.55,18.4,20.95,21.66,35.04c0.92,3.98,2.67,7.43,4.7,10.91
		c8.23,14.06,16.91,27.9,23.05,43.08c1.74,4.31,2.75,8.91,4.54,13.19c3.22,7.69,7.26,14.88,12.49,21.49
		c12.14,15.32,20.55,32.47,25.22,51.59c6.01,24.57,15.25,48.1,24.17,71.73c1.68,4.44,3.74,8.72,6.89,12.06
		c4.65,4.91,5.38,10.4,4.23,16.51c-0.8,4.24-1.56,8.54-4.16,12.18c-1.59,2.22-2.16,4.71-2.72,7.38c-2.1,9.88-7.06,15.82-16.76,20.82
		c-3.62-1.61,0.2-6.73-3.86-8.22c-2.57,0.1-3.62,2.48-5.37,3.86c-1.53,1.21-2.82,2.97-5.43,2.1c-1.89-2.88-0.95-6.26-1.04-9.46
		c-0.14-5.09-0.89-9.9-4.2-14.04c-2.35-2.95-3.73-6.48-3.75-10.16c-0.06-8.44-5.19-13.89-11.19-20.43
		c-3.31,10.51-11.62,16.46-17.02,24.68c-10.2-8.85-12.4-19.5-6.55-30.2c1.44-2.63,3.42-5.13,4.12-7.95
		c2.11-8.52,5.32-16.38,11.75-22.29c-2.41-6.82-5.88-11.66-11.57-15.28c-9.3-5.91-17.7-12.81-23.7-22.46
		c-4.34-6.98-6.91-14.32-7.9-22.34c-0.08-0.66-0.01-1.33-0.06-2c-0.79-11.6-3.26-21.57-14.68-28.53
		c-8.65-5.28-14.6-14.39-19.24-23.57c-2.35-0.21-2.24,1.6-2.39,2.51c-2.15,12.83-6.96,24.92-10.14,37.45
		c-2.83,11.15-2.76,22.63-0.2,33.65c4.82,20.72,10.44,41.26,16.15,61.75c4.45,15.96,13.96,28.58,27.69,37.83
		c14.36,9.68,28.78,19.32,41.37,31.27c18.09,17.17,27.26,38.97,31.45,63.16c0.74,4.25,1.64,8.51,1.86,12.8
		c0.17,3.17,1.17,5.87,2.79,8.39c8.48,13.14,12.35,27.95,15.14,43.02c1.81,9.78,2.94,19.7,2.59,29.73
		c-0.19,5.34,0.88,10.57,2.71,16.46c8.95,3.76,18.16,8.51,27.92,11.45c8.18,2.46,17.04,3.24,25.64,2.5
		c11.89-1.02,23.63-3.63,35.59-4.15c15.69-0.68,29.52,5.13,35.62,18.52c3.86,8.46,7.48,17.06,10.65,25.8
		c8.46,23.34,19.42,45.21,36.16,63.84c1.56,1.73,3.13,3.44,4.68,5.19c16.86,18.98,20.78,41,14.48,65
		c-2.53,9.66-7.96,15.35-16.57,20.24c-1.14-1.98-2.27-3.96-3.38-5.89c-0.53-0.5-1.09-0.43-1.61,0.27
		c-4.8,6.38-9.64,12.64-16.09,17.61c-3.9,3-7.79,4.92-12.9,4.85c-3.74-5.76,2.71-11.57-0.02-17.26c-2.26-0.45-4.35,1.93-6.61,0.44
		c-1.24-6.16-2.63-12.26-3.66-18.42c-0.93-5.56-3.84-9.22-9.32-10.38c-6.83-1.45-11.89-5.64-16.91-10.05
		c-4.4-3.86-7.32-8.55-8.65-14.26c-0.6-2.59-1.52-5.12-1.97-7.73c-2.36-13.62-11.06-22.16-22.69-28.81
		c-4.82,4.7-5.94,10.94-5.24,16.61c1.64,13.21-6.16,20.51-15.41,26.84c-4.42,3.02-7.76,6.29-8.61,11.52
		c-0.48,2.93-0.08,5.99-0.27,8.98c-0.4,6.21-4.16,8.05-9.34,4.47c-4.95-3.43-9.53-7.41-12.91-12.4c-7.73-11.44-7.43-23.8-3-36.21
		c1.66-4.64,4.67-8.8,6.99-13.21c0.58-1.11,1.46-2.31,0.04-4.15c-19.05,12.26-40.46,14.92-62.01,13.61c-2.16,2.4-1.27,4.4-1.25,6.32
		c0.09,8.66-0.08,17.33,0.24,25.99c0.89,23.79-3.22,47.02-7.45,70.26c-1.72,9.47-4.17,18.8-4.96,28.46
		c-0.64,7.88,1.58,15.13,3.63,22.47c1.26,4.5,5.06,6.82,8.72,9.18c9.51,6.14,18.94,12.41,28.51,18.45
		c26.06,16.45,48.86,36.85,70.48,58.6c21.27,21.4,38.4,45.86,51.9,72.87c8.18,16.37,16.47,32.71,22.54,50.01
		c3.18,9.07,5.67,18.39,8.48,27.59c2.14,6.99,1.12,13.65-1.44,20.41c-6.11,16.17-11.94,32.45-17.8,48.71
		c-1.58,4.37-2.89,8.84-4.27,13.28c-6.9,22.11-21,39.94-34.97,57.7c-13.79,17.53-29.06,33.82-45.14,49.31
		c-9.87,9.51-18.19,20.34-26.27,31.33c-5.38,7.31-7.1,15.3-3.05,24.25c3.45,7.61,7.52,14.85,11.87,21.91
		c15.01,24.39,30.81,48.25,47.74,71.38c12.18,16.65,24.01,33.59,35.21,50.91c11.15,17.25,17.64,36.4,19.78,56.94
		c0.23,2.24-0.06,4.71,1.81,7.1c7.07,0.49,14.11-1.58,21.17-2.98c25.53-5.05,49.98-13.7,74.36-22.62
		c25.95-9.49,51.96-18.88,76.22-32.23c30.1-16.56,62.07-28.99,93.15-43.38c24.49-11.35,50.07-19.76,75.47-28.67
		c16.32-5.72,32.49-11.93,49.31-16.09c6.11-1.51,12.32-2.67,18.52-3.8c24.81-4.54,49.36-10.6,74.47-13.32
		c11.2-1.21,22.39-2.89,33.74-2.77c16.96,0.18,33.86-1.6,50.84-1.69c43.84-0.23,86.86,5.62,129.17,16.51
		c24.16,6.22,47.75,14.55,70.28,25.4c24.29,11.69,45.63,27.28,61.67,49.37c16.68,22.98,24.78,48.47,21.89,76.94
		c-1.99,19.68-9.92,37.2-21.24,53.18c-17.52,24.71-40.9,42.61-67.33,56.79c-35.58,19.09-73.77,29.62-113.49,36.2
		c-32.21,5.33-64.46,4.86-96.57,2.66c-40.64-2.79-80.14-12.1-117.56-28.89c-13.07-5.87-25.85-12.28-37.81-20.23
		c-11.48-7.62-21.07-17.26-29.82-27.79c-0.75-0.9-0.96-2.26-1.39-3.33c2.44-1.74,4.1-0.22,5.84,0.6
		c27.46,12.98,55.78,23.52,85.69,29.3c20.89,4.04,41.89,7.23,63.26,7.47c5.29,0.06,10.58,1.33,15.85,1.2
		c36.62-0.95,73.01-4.12,108.41-14.17c25.65-7.28,50.56-16.5,72.55-32.22c12.57-8.99,23.7-19.29,31.96-32.55
		c5.43-8.72,8.8-18.4,8.74-28.25c-0.08-12.28-5.39-23.29-15.11-31.43c-5.36-4.49-11.39-8.01-17.78-11
		c-28.52-13.35-58.41-22.16-89.43-27.07c-11.47-1.82-23.02-3.25-34.71-3.28c-5.28-0.01-10.59-1.33-15.85-1.16
		c-11.95,0.4-23.93,0.86-35.79,2.22c-13.18,1.51-26.22,4.23-39.37,6.1c-11.95,1.7-23.21,5.74-34.54,9.56
		c-37.94,12.78-73.75,30.18-109.14,48.83c-26.61,14.02-51.18,31.09-76.59,46.9c-34.18,21.28-66.89,44.77-99.89,67.83
		c-15.86,11.09-33.22,19.64-49.99,29.14c-18.52,10.49-37.61,20.23-57.48,27.77c-23.9,9.08-48.48,16.41-73.72,21.18
		c-21.56,4.08-43.22,6.89-65.13,8.62c-19,1.5-37.99,1.72-56.86,0.78c-48.01-2.4-94.95-11.01-140.3-27.6
		c-25.73-9.41-50.03-21.68-73.17-36.13c-17.53-10.94-32.88-24.66-47.18-39.74c-11.49-12.12-21.7-25.2-32.29-38.02
		c-11.32-13.7-19.86-29.14-28.2-44.67c-7.39-13.77-13.84-28.03-21.09-41.87c-9.5-18.14-15.15-37.55-19.73-57.35
		c-0.37-1.61-0.76-3.22-1.23-4.8c-0.27-0.92-0.72-1.78-1.19-2.92c-2.08,0.85-1.62,2.67-1.53,3.93c1.12,15.26-4.34,28.76-11.29,41.78
		c-5.06,9.48-11.71,17.8-19.86,24.85c-3.81,3.3-7.97,5.94-13.8,5.73c-0.9-4.74,1.15-9.18,1.86-13.55c0.83-5.1-0.04-9.87-0.41-14.74
		c-0.34-4.47,0.32-9.68-6.17-11.97c-3.55,6.64-5.08,14.02-6.11,21.35c-1.25,8.86-1.95,17.84-2.13,26.79
		c-0.12,6.08-1.39,11.89-2.5,17.74c-2.09,11.04-9.03,19.31-17.43,25.96c-4.63,3.67-6.9,7.96-7.96,13.19
		c-1.19,5.85-1.62,11.84-2.72,17.71c-1.51,8.02-4.95,9.32-11.65,4.5c-5.49-3.95-9.38-9.35-13.09-15.57
		c-7.37,5.1-12.64,10.67-12.38,20.75c0.27,10.47-0.72,11.06-7.43,17.04c-17.55-10.31-25.24-27.64-31.64-45.77
		c-5.32,2.39-1.33,9.58-7.13,11.84c-5.18-0.79-7.87-5.11-10.58-9.23c-3.89-5.93-5.63-12.75-7.51-19.49
		c-1.07-3.84-1.64-7.82-2.83-11.62c-3.82-12.21-2.14-24.18,0.77-36.27c4.98-20.74,14.92-38.75,27.14-56.18
		c25.02-35.68,51.03-70.74,73.37-108.25c3.91-6.57,7.55-13.32,11.05-20.12c4.8-9.32,3.01-18.08-3.11-26.12
		c-8.46-11.12-17-22.18-27.07-31.96c-18.16-17.65-35.3-36.24-50.54-56.49c-6.4-8.5-12.27-17.42-18.14-26.3
		c-5.19-7.84-8.44-16.69-11.02-25.6c-5.77-19.84-13.7-38.89-20.85-58.21c-3.44-9.29-3.43-18.02-0.09-27.2
		c2.49-6.86,3.86-14.13,6.45-20.94c11.9-31.17,26.26-61.15,45.36-88.61c12.77-18.35,27.75-34.81,44.51-49.69
		c12.19-10.83,23.98-22.08,37.26-31.62c14.61-10.49,29.5-20.6,44.95-29.78c7.59-4.51,11.11-10.54,12.92-18.89
		c2.05-9.42,1.04-18.48-0.95-27.53c-4.64-21.12-8.45-42.45-10.2-63.91c-1.34-16.47-1.74-33.25,0.71-49.82
		c0.13-0.91-0.25-1.89-0.47-3.33c-11.22-0.81-22.49,0.38-33.63-2.09c-10.73-2.38-20.62-6.51-32.03-12.95
		c3.17,6.21,5.11,10.66,7.61,14.77c6.43,10.56,5.9,21.91,2.54,32.81c-2.93,9.5-10.71,15.87-19.26,20.75
		c-2.91,1.67-6.03-0.41-6.41-3.92c-0.29-2.64,0.04-5.34-0.21-7.99c-0.51-5.52-2.46-10.32-7.59-13.19
		c-4.43-2.48-8.01-5.95-11.38-9.65c-3.68-4.04-5.76-8.35-5.26-14.35c0.57-6.88-0.47-13.91-4.55-19.96
		c-10.2,3.64-18.15,11.33-21.2,20.64c-1.44,4.42-2.84,8.88-3.87,13.41c-2.95,12.94-11.64,20.95-23.4,25.09
		c-7.53,2.65-11.66,6.31-12.92,14.34c-0.81,5.17-1.3,10.43-2.16,15.17c-2.58,2.19-4.78-0.92-6.93,0.35
		c-2.43,5.37,2,10.34,0.85,15.97c-4.97,1.99-9.03-0.09-12.79-2.92c-5.34-4.02-10.04-8.72-14.05-14.09c-1.35-1.81-2.02-4.26-4.6-5
		c-2.5,1.15-1.45,4.27-3.85,6.29c-8.2-3.52-12.62-10.69-15.87-18.64c-4.98-12.17-4.47-24.74-1.49-37.23
		c2.81-11.79,7.89-22.15,16.67-31.17c16.67-17.13,28.39-37.59,36.68-60.03c3.57-9.67,7.67-19.14,11.28-28.79
		c5.91-15.79,18.43-22.12,34.02-23.45c5.51-0.47,11.2,0.83,16.78,1.54c7.23,0.92,14.42,2.76,21.66,2.93
		c11.22,0.27,22.55,0.13,33.17-4.65c5.46-2.45,10.9-5.07,16.59-6.83c4.75-1.47,6.2-4.54,6.52-8.86c0.57-7.9,1.16-15.79,1.75-23.69
		c1.57-20.79,6.04-40.76,16.92-58.87c1.92-3.19,2.88-6.46,3.24-10.26c1.41-14.98,4.91-29.48,11.1-43.27
		c7.11-15.83,17.76-28.88,31.45-39.37c10.56-8.09,21.21-16.07,32.46-23.26c8.8-5.62,15.35-13.44,20.45-22.74
		c6.52-11.89,9.15-24.91,12.65-37.71c2.46-8.98,4.28-18.15,7.08-27.02c6.01-19.01,6.52-37.74-0.43-56.68
		C1124.72,370.95,1121.78,361.51,1119.99,351.56z M1065.75,1293.13c-10.66,5.58-20.08,10.1-29.8,13.93
		c-10.01,3.95-20.85,4.84-32.36,7.97c4.45,4.34,7.88,7.91,11.55,11.22c5.89,5.31,9.85,12.04,11.67,19.42
		c3.1,12.54,5.35,25.45,4.05,38.39c-0.67,6.6-1.24,13.24-1.4,19.81c-0.3,12.92-0.02,25.88,3.73,38.47c1.06,3.55,2.19,6.97,4.84,9.67
		c1.98,2.01,4.14,3.22,6.94,1.35c1.12-8.04-0.69-15.88-1.15-23.78c-0.72-12.31,0.81-24.54,1.71-36.76
		c1.85-24.87,7.66-49.08,13.08-73.34C1060.47,1311.18,1063.05,1303.03,1065.75,1293.13z M1341.83,1293.83
		c-0.7,1.32-1.05,1.67-0.98,1.89c5.66,19.12,9.68,38.6,13.67,58.15c4.2,20.6,6.74,41.26,7.17,62.19
		c0.26,12.52-0.46,25.06-0.73,37.48c2.64,1.4,4.7,0.73,6.54-1.03c2.22-2.13,3.49-4.8,4.48-7.67c4.48-13.1,5.22-26.9,4.59-40.32
		c-0.79-16.95-2.08-33.7,0.73-50.6c1.82-10.9,5.96-20.28,13.83-28.02c3.49-3.43,6.9-6.96,11.43-11.53
		C1379.89,1311.79,1360.52,1304.4,1341.83,1293.83z"/>
	<path class="st0" d="M1265.29,1161.91c2.97,2.11,2.22,5.46,2.37,8.26c1.34,24.41,9.52,46.76,20.26,68.35
		c1.33,2.67,2.9,5.31,4.83,7.57c12.17,14.24,18.74,31.43,24.71,48.68c7.29,21.06,12.17,42.82,15.84,64.83
		c0.93,5.58,1.08,11.28,1.46,16.84c1,14.57,3.33,29.1,2.42,43.79c-0.23,3.72-0.73,7.03-2.66,10.39
		c-9.62,16.75-11.05,34.52-5.61,52.88c1.73,5.83,2.36,11.39,1.31,17.59c-2.88,17.01-5.74,34.05-6.79,51.31
		c-0.42,6.95-1.43,13.88-1.58,20.84c-0.38,17.75,2.06,35.06,8.19,51.86c3.29,9.02,5.72,18.26,10.61,26.75
		c14.43,25.08,34.21,44.89,58.29,60.53c4.57,2.97,8.37,6.11,10.92,11c2.8,5.35,6.77,10.11,11.59,13.55
		c7.28,5.2,9.27,12.49,10.3,20.55c0.63,4.94,1.22,9.89,2.19,14.77c0.7,3.51,3.48,4.88,6.83,3.64c3.85-1.43,6.86-4.12,9.35-7.27
		c2.87-3.64,5.45-7.5,8.05-11.11c3.14,2.98,6.18,5.95,9.33,8.82c1.94,1.77,1.99,4.07,2.25,6.39c0.55,4.94,0.91,9.92,1.76,14.81
		c1.24,7.09,6.82,9.14,12.36,4.42c6.13-5.21,10.97-11.54,15.09-18.47c4.79-8.06,8.02-16.75,10.88-25.92
		c4.4,3.74,0.91,11.33,7.6,13.88c8.59-3.97,11.32-12.31,14.88-20.83c3.45-0.68,7.29-2.03,11.15-2.07
		c12.78-0.14,24.98-3.42,37.33-6.05c25.15-5.36,49.14-14.38,73.2-23.13c25.02-9.09,49.81-18.82,73.3-31.5
		c23.46-12.66,48.17-22.58,72.44-33.47c16.39-7.35,32.71-14.85,49.24-21.87c41.06-17.44,82.8-32.98,126.68-41.84
		c23.43-4.73,46.91-9.3,70.68-12.15c0.66-0.08,1.33-0.1,1.99-0.13c15.59-0.89,31.18-1.75,46.77-2.67
		c6.29-0.37,12.58-1.39,18.85-1.23c18.92,0.5,37.85,1.61,56.6,4.16c25.04,3.4,49.83,8.22,74.07,15.56
		c19.76,5.98,39.3,12.59,57.99,21.4c23.83,11.23,43.09,27.97,55.97,50.98c12.9,23.04,14.32,47.53,4.47,72.16
		c-7.5,18.75-18.95,34.68-34,48.51c-15.82,14.54-33.35,26.49-51.5,37.52c-15.37,9.33-32.26,15.88-49.5,21.05
		c-27.47,8.24-55.61,12.74-84.25,14.75c-10.64,0.75-21.25,0.71-31.86,1.16c-21.1,0.89-41.82-2.08-62.37-6.14
		c-24.19-4.79-47.78-11.78-70.41-21.72c-16.51-7.25-32.2-15.99-46.85-26.52c-2.65-1.9-5.08-4.1-7.73-6.26
		c2.53-1.51,4.19,0.01,5.95,0.8c28.14,12.62,57.69,20.19,88.15,24.35c22.04,3.01,44.27,4.22,66.41,6.33
		c21.29,2.03,42.53,2.19,63.78,0.98c16.89-0.96,33.69-3.2,50.17-7.48c17.42-4.52,34.66-9.42,50.47-18.33
		c23.12-13.04,44.14-28.66,59.37-50.8c8.48-12.34,11.44-26.28,11.15-41.4c-0.36-18.66-9-33.13-20.95-46.09
		c-8.24-8.93-19.2-14.19-30.09-19.27c-27.58-12.88-56.33-22.07-86.42-26.83c-9.17-1.45-18.41-2.49-27.64-3.58
		c-16.57-1.95-33.22-1.5-49.85-1.35c-34.11,0.32-67.52,5.52-100.03,15.87c-47.44,15.1-92.26,36.12-135.31,60.97
		c-11.51,6.65-22.41,14.36-33.58,21.6c-15.92,10.32-31.66,20.92-47.78,30.92c-20.39,12.66-39.35,27.34-59.13,40.84
		c-31.93,21.79-65.05,41.69-100.3,57.67c-31.32,14.2-64.15,23.83-98.03,29.97c-18.65,3.38-37.43,5.79-56.27,7.19
		c-18.21,1.35-36.47,0.88-54.78-0.77c-20.57-1.85-40.95-4.48-61.1-8.77c-47.22-10.07-92.16-25.84-132.53-53.17
		c-20.64-13.97-37.94-31.3-53.26-50.74c-14.01-17.78-27.12-36.22-38.38-55.92c-5.14-9-8.79-18.66-12.68-28.19
		c-11.95-29.28-20.98-59.48-29.35-90c-7.32-26.72-11.46-53.92-16.47-81.01c-1.4-7.56-0.92-14.97,1.19-22.64
		c4.84-17.59,3.71-34.94-5.58-51.14c-1.9-3.31-2.53-6.66-2.64-10.42c-0.43-15.67,0.87-31.23,2.36-46.8
		c3.67-38.4,13.21-75.2,29.97-110.02c1.43-2.98,3.11-5.92,5.15-8.5c11.12-14.02,18.45-29.92,23.95-46.82
		c3.82-11.74,7.2-23.55,7.27-36.02c0.02-3.09,0.98-5.87,2.03-8.67l-0.23,0.25c0.61-0.15,1.17-0.03,1.66,0.36
		c0.56-0.44,0.64-0.35,0.25,0.25c-0.15-0.16-0.3-0.32-0.45-0.48c0.78-3.66-1.41-6.42-3-9.25c-7.57-13.55-10.95-28.49-14.12-43.41
		c-2.52-11.89-0.83-23.03,8.05-32.44c9.34-9.91,18.49-20.02,27.32-30.39c18.09-21.23,32.57-44.47,38.91-72.11
		c0.88-3.82,1.33-7.93,4.3-11.61c3.97,5.56,5.09,12.14,6.85,18.18c8.39,28.88,25.14,52.51,44.96,74.42
		c7.35,8.12,15.18,15.81,21.9,24.54c6.36,8.26,8.09,17.01,6.08,27.14c-3.24,16.35-7.06,32.45-15.22,47.19
		c-0.96,1.73-2.12,3.43-1.58,5.6c-0.43,0.32-0.89,0.61-1.27,0.98c-0.07,0.07,0.18,0.66,0.23,0.66
		C1265.63,1163.55,1265.34,1162.67,1265.29,1161.91z M1353.58,1779.85c0.38,2.6,2.36,2.05,4.05,2.07c1.8,2.92,4.29,2.12,6.78,1.27
		c-0.35,1.33-0.09,2.28,1.37,2.84c2.27,0.87,4.48,1.91,6.71,2.88c2.43,0.32,4.85,0.64,7.28,0.96c4.21,2.97,8.78,4.66,14.02,3.95
		c5.32,3.32,11.26,4.24,17.38,4.46c2.4,2.04,5.01,2.05,9.08,0.84c-3.91-1.24-6.57-1.42-9.29-0.61c-0.2-0.54-0.33-1.51-0.63-1.57
		c-5.57-1.11-10.96-3.29-16.79-2.84c-4.28-2.73-8.84-4.43-14.02-3.95c-2.01-2.92-4.64-1.86-7.22-1.11c-0.76-4.75-5.22-4.08-8.2-5.6
		c-2.14-0.98-4.32-1.69-6.72-1.25c-0.44-2.47-2.39-1.99-4.05-2.07c-0.69-1.01-1.34-2.14-3.79-0.5
		C1351.44,1779.73,1352.51,1779.79,1353.58,1779.85z M1335.58,1771.61c-0.49,0.62-0.59,0.55-0.31-0.2c0.17,0.15,0.34,0.31,0.52,0.46
		c1.17,0.9,2.33,1.79,3.5,2.69c0.46-0.68,0.83-0.25,0.31,0.09c-1.08,0.71,0.55,0.44-0.53-0.35
		C1337.91,1773.4,1336.75,1772.5,1335.58,1771.61z M1181.61,1152.04c-0.26-1.05-1.01-1.44-1.99-1.27c-0.18,0.03-0.26,0.71-0.38,1.09
		c0.86-0.02,1.72-0.05,2.58-0.07c0.25,1.53,1.3,2.21,2.71,2.36c12.09,1.25,24.2,1.23,36.3,0.11c2.46-0.23,4.75-1,7.75-4.43
		c-6,2.24-10.58,1.97-15.15,1.99C1202.82,1151.87,1192.22,1151.96,1181.61,1152.04z M1200.76,1557.26
		c-0.17-10.51-1.26-21.01-2.13-31.49c-1.1-13.21-2.72-26.43-2.67-39.65c0.09-24.25-0.94-48.5,0.96-72.77
		c1.22-15.52,0.93-31.15,1.91-46.75c1.19-18.86,3.1-37.74,2.36-56.72c-0.32-8.09-0.05-16.2-0.05-24.89
		c-2.33,11.76-2.08,23.06-2.95,34.29c-1.66,21.48-2.79,43.01-4.31,64.52c-1.24,17.55-1.02,35.17-1.75,52.75
		c-0.81,19.2-0.33,38.49,0.63,57.78C1193.81,1515.55,1197.57,1536.29,1200.76,1557.26z M1522.93,1803.57c0-0.24,0-0.48,0.01-0.73
		c-23,0-46.01,0-69.01,0c0,0.24,0,0.48-0.01,0.73C1476.92,1803.57,1499.93,1803.57,1522.93,1803.57z M1193.08,1163.48
		c9.15,1.52,12.63,1.43,19.14-0.52C1199.7,1160.58,1199.7,1160.58,1193.08,1163.48z M1212.71,1621.75c0-0.35,0.09-0.69-0.02-0.94
		c-0.24-0.56-0.48-0.35-0.51,0.59c-0.01,0.29,0.09,0.58,0.14,0.87C1212.47,1622.08,1212.61,1621.89,1212.71,1621.75z
		 M1214.26,1629.23c0.14,0,0.28,0,0.41,0c0-0.3,0-0.61-0.01-0.92c-0.16,0.01-0.32,0.01-0.48,0.02
		C1214.22,1628.64,1214.24,1628.94,1214.26,1629.23z M1573.17,1797.09c-0.61,0-1.21,0-1.82,0
		C1571.96,1797.09,1572.57,1797.09,1573.17,1797.09z M1548,1801.83c0.46-0.22,0.91-0.45,1.37-0.67c-0.2-0.18-0.41-0.53-0.61-0.52
		c-0.55,0.01-1.09,0.16-1.64,0.25C1547.42,1801.2,1547.71,1801.51,1548,1801.83z M1441.5,1802.27c-0.27,0.16-0.55,0.31-0.82,0.47
		c0.43,0.3,0.86,0.82,1.3,0.84c0.43,0.01,0.87-0.5,1.31-0.78C1442.7,1802.62,1442.1,1802.45,1441.5,1802.27z M1218.44,1643.99
		c0,0.61,0,1.21,0,1.82C1218.44,1645.2,1218.44,1644.6,1218.44,1643.99z M1538.15,1803.25c-0.04-0.23-0.04-0.65-0.12-0.67
		c-0.59-0.13-1.26-0.37-1.8-0.21c-0.85,0.25-0.8,0.89,0.12,1.13C1536.89,1803.64,1537.54,1803.35,1538.15,1803.25z M1210.36,1612.03
		c-0.06,0.31-0.16,0.6-0.15,0.88c0.04,1.02,0.25,1.18,0.51,0.44c0.09-0.27,0.07-0.61,0.02-0.9
		C1210.71,1612.3,1210.5,1612.18,1210.36,1612.03z M1216.57,1637.76c-0.14,0.2-0.37,0.39-0.39,0.6c-0.02,0.22,0.17,0.45,0.26,0.68
		c0.14-0.19,0.38-0.38,0.39-0.58C1216.85,1638.24,1216.67,1637.99,1216.57,1637.76z M1220.29,1652.24c0.16-0.07,0.46-0.14,0.47-0.23
		c0.01-0.24-0.09-0.48-0.15-0.72c-0.18,0.07-0.52,0.15-0.51,0.21C1220.1,1651.75,1220.22,1651.99,1220.29,1652.24z M1202.15,1566.06
		l0.52,0.08l-0.19-0.76L1202.15,1566.06z M1561.52,1799.55c0.28-0.11,0.56-0.22,0.84-0.32c-0.43-0.6-0.96-0.66-1.57-0.17
		C1561.04,1799.22,1561.28,1799.38,1561.52,1799.55z M1432.5,1800.9c-0.22-0.08-0.45-0.25-0.66-0.23c-0.9,0.1-0.97,0.44-0.18,0.85
		c0.19,0.1,0.51,0.04,0.71-0.06C1432.48,1801.4,1432.46,1801.09,1432.5,1800.9z M1556.06,1801.06c-0.24-0.17-0.48-0.44-0.73-0.47
		c-0.27-0.03-0.56,0.19-0.84,0.29c0.24,0.16,0.47,0.44,0.72,0.46C1555.49,1801.38,1555.78,1801.17,1556.06,1801.06z M1202.37,1572.4
		c0.2-0.09,0.57-0.17,0.57-0.26c0.01-0.28-0.12-0.57-0.19-0.86c-0.21,0.09-0.59,0.17-0.59,0.26
		C1202.15,1571.83,1202.29,1572.11,1202.37,1572.4z M1204.24,1584.43l0.55,0.05l-0.23-0.77L1204.24,1584.43z M1206.19,1595.01
		l0.42,0.31l0.07-0.48L1206.19,1595.01z M1208.88,1605.06l-0.43-0.29l-0.05,0.48L1208.88,1605.06z M1566.35,1799.34l0.3-0.42
		l-0.48-0.07L1566.35,1799.34z M1204.75,1579.16l-0.42-0.31l-0.07,0.48L1204.75,1579.16z M1206.07,1591.11l0.43,0.29l0.05-0.48
		L1206.07,1591.11z"/>
	<path class="st0" d="M1271.62,1065.46c-1.03,0.53-1.91,0.16-2.64-0.56c-23.97-23.68-42.51-51.03-55.38-82.18
		c-3.16-7.66-4.59-15.99-8.89-23.31c-3.14,0.1-4.59,1.92-5.62,4.59c-2.51,6.51-5.35,12.9-7.79,19.43
		c-10.42,27.84-26.29,52.16-47,73.4c-2.98,3.06-5.79,6.28-9.94,10.81c0.68-5.31,2.6-8.26,4.29-11.12
		c9.67-16.38,17.38-33.71,24.33-51.32c3.76-9.54,5.86-19.73,8.53-29.68c5.7-21.25,7.6-43.06,10-64.85
		c2.84-25.81,3.06-51.71,4.55-77.57c1.04-17.94,0.65-35.89,1.83-53.8c0.94-14.23,2.5-28.42,3.39-42.65
		c0.88-14.2,1.47-28.44,1.82-42.66c0.44-17.64,0.32-35.29,0.81-52.93c0.2-6.95,1-13.93,2.26-20.77c1.09-5.94,1.61-11.92,1.49-17.84
		c-0.18-8.71,1.55-17.11,2.77-25.63c1.57,14.92-0.46,29.98,1.87,44.95c3.14-1.13,2.82-3.63,2.83-5.92c0.03-8-0.03-15.99,0.04-23.99
		c0.03-3.64,0.3-7.27,0.47-11.28c2.44,2.3,1.65,4.9,1.71,7.09c0.5,15.95,2.26,31.77,4.03,47.61c0.92,8.23,0.23,16.64,0.43,24.96
		c0.4,16.28,0.76,32.56,1.45,48.83c0.62,14.59,1.02,29.23,2.71,43.71c1.74,14.87,1.22,29.82,2.88,44.7
		c1.32,11.86,0.57,23.94,0.95,35.91c0.57,17.93,0.39,35.96,2.22,53.77c2.61,25.39,3.76,51.02,9.38,76.02
		c5.33,23.7,12.24,46.86,23.01,68.84c5.56,11.35,12.45,22,17.31,33.69L1271.62,1065.46z M1209.15,638.63
		c-3.35-0.99-6.03-0.58-8.45,1.33c-0.34,0.27-0.27,1.05-0.4,1.61c1.94,1.09,3.82,2.33,6.39,2.13
		C1207.43,642.19,1208.2,640.59,1209.15,638.63z"/>
	<path class="st0" d="M866.91,1217.23c7.05-17.97,18.46-33.02,31.8-46.65c4.37-4.46,7.75-9.3,8.82-15.29
		c2.68-14.94,9.93-27.03,20.57-37.76c5.42-5.46,10.68-10.84,17.07-15.15c5.78-3.91,11.37-8.12,16.9-12.37
		c8.16-6.28,15.85-13.13,24.07-19.37c8.68-6.59,16.84-14.04,24.58-21.65c10.88-10.69,23.38-18.34,36.94-24.71
		c-5.75-6.52,1.28-11.54,1.65-17.4c5.44,6.5,7.07,13.8,5.75,21.91c-0.72,4.42-4.14,6.81-7.24,9.09c-5.64,4.15-10.92,8.65-16.16,13.3
		c-4.54,4.04-8.31,8.56-11.89,13.35c-14.97,20.05-15.15,20-21.81,44.15c-2.55,9.26-6.27,18.26-7.05,27.99
		c-0.27,3.32-2.51,5.15-5.6,6.29c-5.3,1.96-10.53,4.1-15.73,6.32c-13.84,5.9-27.05,12.72-37.5,24c-2.38,2.57-4.21,5.09-4.59,8.54
		c-1.24,11.2-2.61,22.4-3.55,33.63c-0.27,3.22,0.68,6.57,1.2,9.83c1.85,11.76,2.9,23.62,6.36,35.15c2.8,9.32,6.35,18.36,11.22,26.57
		c3.6,6.07,8.62,11.77,15.81,14.57c1.82,0.71,3.41,2.02,5.86,3.52c-4.95,2.57-9.42,4.89-13.68,7.1c-3.04-0.65-5.33-2.24-7.1-4.11
		c-11.4-12.05-22.85-23.96-30.58-39.03c-5.61-10.93-8.14-22.35-9.21-34.32c-0.89-9.92-2.37-19.77-2.27-29.79
		c0.06-5.78-0.42-5.78-4.97-10.15c-5.56,3.04-10.35,7.22-14.57,11.85c-4.28,4.7-9.47,7.68-14.98,10.39L866.91,1217.23z"/>
	<path class="st0" d="M1537.62,1215.84c-5.09-2.16-9.73-4.63-13.57-9.04c-4.07-4.67-9.4-8.24-13.77-11.94
		c-3.47,0.7-4.7,2.48-5.13,4.97c-0.45,2.61-1.38,5.23-1.28,7.82c0.38,10.03-1.12,19.89-2.11,29.8c-1.02,10.3-3.23,20.08-7.85,29.6
		c-7.7,15.89-19.59,28.3-31.37,40.9c-1.75,1.87-4.36,2.93-6.68,4.43c-4.59-2.27-9.01-4.45-13.44-6.65c0.48-2.42,2.63-3.01,4.15-3.69
		c8.96-3.99,14.41-11.14,18.95-19.45c6.47-11.83,10.63-24.66,12.72-37.65c2.4-14.89,5.82-30.06,1.84-45.44
		c-1.15-4.42-0.69-9.26-0.97-13.91c-0.34-5.56-2.68-9.99-6.71-13.92c-10.19-9.94-22.31-16.66-35.3-22.04
		c-6.75-2.8-13.53-5.54-20.64-8.45c-3.16-15.23-7.94-30.04-12.37-44.97c-2.4-8.09-5.3-15.66-10.97-22.06
		c-2.41-2.72-4.29-5.92-6.39-8.92c-6.93-9.93-15.92-17.77-25.45-25.06c-1.58-1.21-3.24-2.33-4.8-3.57
		c-6.63-5.24-6.87-12.37-5.23-19.68c0.84-3.78,2.31-7.57,5.28-11.5c1.68,5.66,3.12,10.55,4.51,15.23c-0.34,1.96-2.16,1.49-3.11,2.37
		c0.21,0.47,0.31,1.24,0.68,1.42c13.6,6.37,25.63,14.63,36.95,24.79c21.96,19.71,44.13,39.33,68.9,55.62
		c7.39,4.86,12.28,12.12,18.33,18.26c0.92,0.94,1.47,2.27,2.43,3.15c5.84,5.39,8.61,12.28,10.72,19.8
		c5.28,18.8,5.53,18.69,18.9,32.96c9.39,10.03,16.99,21.29,22.26,34.03c0.36,0.87,0.24,1.95,0.34,2.93L1537.62,1215.84z"/>
	<path class="st0" d="M1442.68,1668.76c-3.21-7.74-8.31-14.38-12.68-21.43c-8.69-14.03-13.62-29.55-18.12-45.16
		c-1.6-5.56-0.69-11.89-0.68-17.87c0.01-4.65-0.15-9.4,0.72-13.93c1.44-7.45-2.56-11.97-7.52-16.12c-5.2-4.34-11.37-6.86-17.87-8.43
		c-8.07-1.94-16.15-3.95-24.33-5.22c-7.89-1.23-12.69-4.96-13.85-13.06c-0.32-2.2-1.75-4.23-1.05-7.28
		c15.34,4.09,31.1,5.37,46.68,7.9c5.29,0.86,10.17,3.07,14.89,5.54c2.94,1.54,5.75,3.33,9.27,2.71c3.91-5.1,6.2-10.93,8.12-17.03
		c6.48,6.94,8.85,12.08,10.12,21.61c0.27,2.03,1.13,3.84,2.7,5.22c14.19,12.46,23.21,29.03,34.73,43.61
		c10.76,13.63,18.93,28.91,28.9,43.02c1.14,1.61,2.18,3.43,2.69,5.31c2.07,7.63,3.91,15.32,5.19,23.29
		c-14.98-23.34-29.08-47.16-48.81-69.11c-0.44,7.23-1.22,13.24,1.1,18.45c4.32,9.67,7.28,19.83,12.18,29.34
		c6.09,11.83,8.52,25.13,10.52,38.31c0.43,2.86,0.56,5.82,1.71,9.27c-3.07-1.75-3.59-3.97-4.45-6.07
		c-5.54-13.55-11.8-26.77-19.1-39.48c-2.16-3.76-4.31-7.38-7.4-10.55c-4.01-4.12-5.59-9.68-7.57-14.99
		c-3.73-9.98-9.57-18.11-20.29-21.56c-0.47,0.64-1.18,1.15-1.14,1.59c1.52,16.87,3.73,33.53,11.05,49.19
		c3.32,7.1,6.77,14.6,4.03,22.95L1442.68,1668.76z"/>
	<path class="st0" d="M895.26,1661.96c1.86-13.24,5.32-25.63,12.93-37.19c14.45-21.97,30.03-43.09,45.35-64.42
		c3.54-4.93,8.24-8.68,12.26-13.11c1.56-1.71,3.86-3.24,3.52-5.77c-1.18-8.97,5.39-14.59,9.04-22.53
		c4.37,5.77,4.55,13.08,10.25,17.65c1.82,0.49,4.11-0.34,5.97-1.52c9.59-6.1,20.42-7.64,31.34-8.98
		c10.83-1.33,21.66-2.72,32.93-6.14c0.22,5.85-2.56,10.44-3.95,15.3c-0.72,2.53-3.43,3.12-5.62,3.68
		c-7.08,1.8-14.21,3.41-21.35,4.97c-6.16,1.35-12.38,2.54-18.08,5.34c-2.97,1.46-5.96,3.07-8.51,5.14
		c-5.08,4.11-8.58,8.97-7.64,16.24c0.89,6.89,1.01,13.89,1.41,20.84c0.32,5.7-0.76,11.21-2.46,16.63
		c-6.72,21.39-16.12,41.43-29.8,59.24c-0.45-6.16,0.9-12.65,3.88-20.11c2.47-6.16,4.48-12.52,7.12-18.6
		c2.07-4.76,1.69-9.78,2.5-14.67c1.02-6.15,1.84-12.33,2.84-19.15c-10.86,2.33-16.93,9.49-20.43,17.98
		c-3.71,8.99-8.34,17.02-13.86,25.01c-7.14,10.35-12.55,21.92-17.43,33.62c-2.02,4.84-4.18,9.63-7.49,14.26
		c0-2.39-0.41-4.86,0.07-7.14c3.38-16.27,7.12-32.33,14.91-47.36c6.01-11.6,10.27-24.13,9.65-37.67c-2.66-0.11-3.41,2.02-4.64,3.5
		c-15.59,18.74-29.11,38.87-40.86,60.21c-0.93,1.7-1.71,3.64-3.65,4.59L895.26,1661.96z"/>
	<path class="st0" d="M1227.65,259.09c1.77-2.18,4.29-2.76,7-2.84c11.76,6.4,16.01,19.08,23.66,28.7c3.32-0.94,4.55-3.46,5.83-5.69
		c4.8-8.33,9.57-16.68,14.04-25.2c2.38-4.53,1.6-9.72,1.43-15.31c5.57-0.4,9.73,2.45,14.41,3.58c2.96,9.25-1.02,16.42-5.57,23.44
		c-7.56,11.67-16.35,22.57-21.84,35.55c-1.57,3.72-3.14,7.33-3.28,11.38c-0.34,10.06-2.75,19.68-6.06,29.12
		c-3.1,8.87-4.09,17.84-3.76,27.38c0.54,15.92-0.6,32.02-5.26,47.32c-2.9,9.51-2.39,18.48,0.41,27.32
		c5.04,15.88,7.68,32.21,10.38,48.53c0.54,3.28,1.09,6.48,2.06,9.66c2.23,7.38,1.93,15.08,2.29,21.64c1.01,2.62,3.58,1.59,3.98,3.8
		c-5.66,3.52-12.29,4.53-19.35,8.01c0.92-5.98,1.45-10.78,2.44-15.49c0.77-3.66,1.06-7.3,0.33-10.88
		c-4.1-20.14-5.66-40.75-11.32-60.59c-1.46-5.1-2.75-10.25-4.34-15.31c-1.45-4.6-1.63-9,0.03-13.64c3.52-9.82,4.52-20.01,4.04-30.43
		c-0.29-6.31,0.1-12.66-0.09-18.98c-0.28-9.3,0.44-18.01,4.68-26.87c6.45-13.46,6.59-28.34,5-43.01c-0.53-4.86-1.95-9.64-4.92-13.95
		c-5.09-7.37-9.64-15.12-14.47-22.67C1228.5,262.27,1227.41,261.01,1227.65,259.09z M1251.85,349.47l0.05-0.55l-0.77,0.24
		L1251.85,349.47z"/>
	<path class="st0" d="M1112,242.85c4.08-2.53,8.81-3.46,14.96-5.1c-2.73,9.59,0.32,16.89,4.49,23.66c4.85,7.88,7.87,16.95,15,23.47
		c3.86-1.27,4.95-5.05,6.72-8.06c3.57-6.04,7.44-11.76,12.71-16.52c5.39-4.86,5.27-5,13.21-0.89c-4.33,6.7-8.58,13.39-12.95,20.01
		c-5.79,8.76-9.2,17.92-9.34,28.85c-0.14,10.74,0.83,21.09,3.7,31.31c0.98,3.49,2.28,7.08,4.31,10.01c2.09,3.01,2.41,5.98,2.37,9.36
		c-0.1,10.66,0.09,21.32-0.09,31.98c-0.16,9.7,0.21,19.25,3.62,28.52c1.91,5.18,1.15,10.41-0.43,15.67
		c-6.02,20.07-10.59,40.44-12.53,61.35c-0.15,1.65-0.34,3.33-0.84,4.9c-2.71,8.53-2.07,17.07-0.32,25.64
		c0.45,2.22,1.63,4.44-0.09,7.28c-3.23-1.07-6.63-2.11-9.95-3.33c-2.76-1.02-5.44-2.26-8.59-3.58c1.89-1.17,3.21-1.98,5.17-3.2
		c0-2.28-0.02-4.91,0.01-7.54c0.03-2.33-0.39-4.81,0.27-6.96c3.7-12.12,4.15-24.81,6.67-37.14c2.26-11.07,5.28-21.91,8.08-32.83
		c1.86-7.27,1.81-14.22-0.24-21.57c-3.13-11.2-4.52-22.75-4.86-34.45c-0.22-7.57-1.26-15.02-0.24-22.73
		c0.62-4.65-1.41-9.78-2.79-14.55c-3.14-10.84-6.38-21.51-7.37-32.96c-1.02-11.77-7.58-21.79-14.07-31.49
		c-4.24-6.34-9.16-12.26-12.93-18.86C1112.21,257.1,1109.43,250.52,1112,242.85z"/>
	<path class="st0" d="M1567.51,844.07c-5.47-0.25-8.04-4.67-10.26-8.38c-6.29-10.55-14.18-20.13-19.14-31.48
		c-0.66-1.5-1.41-3.14-2.57-4.22c-4.81-4.48-9.8-8.77-14.61-13.03c-4.83,3.34-5.89,7.49-5.94,12.49
		c-0.09,10.37,0.12,20.6,4.34,30.36c0.95,2.19,2.91,4.68,0.65,7.34c-7.98-8.21-15.86-26.31-16.2-37.35
		c-0.23-7.33,0.01-14.6,2.14-21.74c2.18-7.3,2.8-15.01,5.57-22.18c0.48-1.24,0.34-2.61-0.87-4.4c-19.78-0.81-36.46,6.31-49.32,21.82
		c-5.5,6.63-10.35,13.81-13,22.25c-0.94,3.01-2.25,6.18-5.88,8.07c-2.58-4.82-1.17-9.43-0.56-13.74
		c2.09-14.73,8.92-26.93,20.5-36.42c2.38-1.95,4.83-3.44,8.02-3.56c11.32-0.43,22.36-2.96,33.47-4.86
		c6.86-1.17,13.38,0.22,19.61,1.82c6.02,1.55,10.76,5.71,12.87,12.56c3.52,11.42,7.78,22.61,11.91,33.83
		c2.3,6.24,4.81,12.41,7.59,18.45c1.06,2.31,0.38,3.73-0.91,5.34l0.25-0.74l-0.3,0.47c1,4.59,3.55,8.42,5.81,12.43
		c2.68,4.78,6.4,9.16,6.63,15.04L1567.51,844.07z"/>
	<path class="st0" d="M848.78,813.64c5.48-10.3,9.37-21.25,13.19-32.24c2.62-7.54,5.46-15,7.96-22.58
		c2.73-8.29,9.15-11.17,16.93-13.08c9.44-2.31,18.46,0.15,27.61,1.31c6.9,0.87,13.66,2.85,20.69,2.84c3.14,0,5.72,1.26,8.15,3.24
		c10.74,8.75,17.64,19.98,20.1,33.46c0.96,5.26,3.36,10.86,0.83,16.73c-4.43-0.47-5.4-4.23-6.21-7c-1.84-6.23-5.47-11.35-8.73-16.74
		c-7.01-11.57-17.39-19.06-29.49-24.49c-7.78-3.49-16.16-2.98-24.11-3.87c-2.27,1.71-1.88,3.55-1.08,5.54
		c3.37,8.39,4.77,17.35,6.27,26.11c2.14,12.48,2.47,25.18-4.34,36.91c-3.29,5.67-4.97,12.25-10.15,17.91
		c-1.75-3.39-0.66-5.96,0.37-8.54c3.75-9.43,4.8-19.22,4.56-29.34c-0.13-5.49-1.73-9.57-6.56-12.89
		c-6.97,7.11-15.2,12.35-19.47,22.2c-4.05,9.35-10.53,17.67-16.18,26.28c-2.55,3.89-5.93,7.14-9.94,9.63
		c-2.63-2.03-0.35-3.71,0.35-5.08c2.89-5.62,6.33-10.96,9.08-16.64c1.47-3.03,4.22-6.45,0.44-9.91L848.78,813.64z"/>
	<path class="st0" d="M1335.88,697.86c0-6.82-0.33-13.33,0.11-19.79c0.32-4.66,2.14-8.98,6.24-11.91c1.34-0.96,2.46-2.25,3.84-3.15
		c11.76-7.77,25.13-10.31,38.79-10.87c8.36-0.34,11.98,3.05,14.36,11.15c1.97,6.69,3.4,13.53,5.12,20.29
		c0.33,1.29,0.89,2.52-0.18,3.76c-17.2-8.59-33.83-5.47-50.3,2.41C1348.23,692.44,1343.01,696.08,1335.88,697.86z"/>
	<path class="st0" d="M1038.03,608.96c-3.45-1.19-4.58,1.96-6.23,3.64c-3.66,3.72-6.96,7.8-11.66,13.15
		c-0.07-13.63,5.28-23.84,8.6-34.67c5.94-1.86,11.84-2.68,17.47-4.74c8.25-3.02,16.01-6.76,22.18-12.97
		c6.77-6.82,14.89-12.12,21.13-19.52c3.88-4.6,8.95-7.91,14.14-10.92c9.16-5.31,17.54-12.13,28.69-14.65
		c6.33,2.94,13.03,6.04,21.94,10.18c-7.78,1.47-13.15,2.54-18.54,3.5c-6.25,1.11-12.23,2.92-17.82,6.05
		c-3.08,1.72-5.89,3.63-10.07,3.16c-3.67-0.41-6.07,3.57-8.73,5.68c-2.37-0.01-2.75-3.09-5.09-2.68c-2.48,0.42-4.47,1.79-5.45,3.95
		c-2.18,4.83-4.71,9.59-5.51,14.9c-1.53,10.1-7.69,16.53-16.2,21.27c-1.74,0.97-3.63,1.88-4.99,3.27
		c-5.24,5.36-11.54,8.86-18.43,11.59c-2.13,0.84-3.98,2.38-5.96,3.59l0.2-0.27c0.08-1.25,0.15-2.5,0.23-3.76l-0.26-0.49
		L1038.03,608.96z"/>
	<path class="st0" d="M1001.46,687.86c0.37-10.45,3.52-19.5,6.79-28.47c1.45-3.97,4.8-6.24,9.07-6.91c0.66-0.1,1.31-0.21,1.97-0.3
		c13.06-1.73,36.28,6.4,45.95,15.43c3.02,2.82,4.08,5.83,4.42,9.53c0.62,6.62-0.98,13.2,0.41,20.13c-4.56-0.3-7.57-2.21-10.72-3.82
		c-5.91-3.02-11.76-6.13-18.11-8.25c-8.72-2.91-17.62-2.94-26.6-2.54C1009.98,682.86,1006.32,686.06,1001.46,687.86z"/>
	<path class="st0" d="M1180.54,83.5c-6.28,6.99-12.5,12.41-16.72,19.79c-3.69,6.46-10.9,6.41-15.62,0.16
		c-11.06-14.66-18.5-30.65-16.37-49.77c1.55-13.98,4.88-27.38,12.03-39.62c0.6-1.03,0.91-2.57,3.28-2.43
		c0,5.09,0.04,10.24-0.01,15.38c-0.09,9.42,1.96,18.44,5.16,27.23C1157.23,67.79,1167.04,76.81,1180.54,83.5z M1155.54,98.08
		c0.05,0.24,0.07,0.5,0.18,0.71c0.06,0.11,0.3,0.13,0.46,0.19c-0.29-0.22-0.58-0.45-0.87-0.67c0.19-4.11-2.98-6.52-4.96-9.46
		c-7.76-11.55-12.48-24.05-12.63-38.11c-0.01-1.06,0.18-2.59-1.66-2.69c-2.87,19.78,5.8,37.22,17.66,49.53
		C1154.09,97.98,1154.92,97.93,1155.54,98.08z"/>
	<path class="st0" d="M1247.23,107.57c-5.48-1.95-6.62-7.81-10-11.74c-3.22-3.74-6.72-7.23-9.77-10.48c0.1-2.8,1.96-3.3,3.31-4.02
		c15.41-8.16,22.58-22.15,26.18-38.18c2.39-10.62,3.5-21.53,1.17-32.46c2.57-0.21,2.9,1.54,3.7,2.89
		c9.96,16.93,13.06,35.33,11.97,54.69c-0.31,5.44-1.95,10.47-4.3,15.25c-2.49,5.06-5.62,9.8-8.11,14.86
		C1258.46,104.3,1253.96,107.46,1247.23,107.57z M1269.48,48.12c-1.88,5.9-1.89,12.07-3.46,18.02c-1.55,5.85-3.97,11.17-6.61,16.52
		c-2.67,5.41-7.62,9.58-8.69,15.79C1265.15,84.76,1271.38,67.84,1269.48,48.12z"/>
	<path class="st0" d="M967.34,745.87c8.5-6.11,18.01-9.32,28.13-10.97c1.17-0.19,2.61,0.44,3.76,1.02
		c20.47,10.4,35.71,25.19,40.91,48.52c0.66,2.97,1.14,5.77,0.56,8.82c-1.36,7.17-2.44,14.4-3.74,21.59
		c-0.23,1.26-0.8,2.54-2.56,3.09c-0.19-0.83-0.61-1.67-0.51-2.45c1.66-13.76-5.14-24.26-12.98-34.45
		c-6.38-8.29-14.04-14.94-23.18-20.12c-9.24-5.24-17.98-11.4-28.81-13.12C968.47,747.73,968.15,746.9,967.34,745.87z"/>
	<path class="st0" d="M1438.91,746.04c-0.96,1.03-1.33,1.81-1.82,1.88c-15.33,2.46-27.56,11.49-39.46,20.18
		c-11.6,8.46-19.54,20.6-24.93,34.13c-0.9,2.25-0.81,4.53-0.93,6.84c-0.15,2.95,0.54,5.98-0.78,8.89c-2.61-6.55-6.1-23.79-5.8-29.32
		c0.62-11.43,6.02-21.02,12.58-29.83c7.22-9.69,16.9-16.69,27.54-22.34c2.75-1.46,5.35-1.57,8.52-0.9
		C1422.87,737.47,1431.23,740.6,1438.91,746.04z"/>
	<path class="st0" d="M1317.35,556.34c6.01,4.54,12.03,9.04,17.33,14.49c10.32,10.62,23.33,16.12,37.59,19.06
		c1.28,0.26,2.58,0.47,3.71,0.68c6.66,12.82,9.81,24.75,8.61,32.91c-6.37-4.23-9.39-11.86-16.29-15.97
		c-0.2,1.65-0.32,2.61-0.44,3.52c-0.62,0-1.29,0.17-1.83-0.02c-12.13-4.24-21.31-13.22-31.91-19.92
		c-5.83-3.69-9.65-8.99-10.59-16.08c-0.88-6.63-5.33-12.15-5.99-18.86C1317.55,556.13,1317.35,556.34,1317.35,556.34z"/>
	<path class="st0" d="M1237.04,188.39c0.96,3.96-1.19,5.97-1.89,8.46c-2.01-0.64-4.02-1.91-5.09,0.72
		c-2.73,6.74-8.36,7.08-14.14,6.09c-8.59-1.47-17.05-1.49-25.64,0.01c-8.07,1.41-10.22,0.13-16.25-7.76
		c-0.78,0.46-0.93,1.79-2.45,1.5c-2.11-2.4-3.22-5.36-3.71-9.01c2.88,2.09,5.7,2.87,8.81,2.62c3.18-3.22,3.6-7.7,5.54-12.31
		c5.83,6.68,13.91,5.24,20.9,5.23c7.1-0.01,15.14,0.82,21.33-5.42c1.09,4.87,1.46,9.27,4.82,12.42
		C1232.17,191.55,1234.77,191.17,1237.04,188.39z"/>
	<path class="st0" d="M1145.55,130.22c2.37,3.13,2.18,6-1.41,9.05c-8.14-3.83-16.02-8.65-22.21-15.51
		c-4.64-5.14-8.23-11.25-12.21-16.98c-1.35-1.94-2.38-4.19-1.77-6.57c2.12-8.25,2.82-17,8.67-25.47c1.1,4.64,2.6,8.2,2.67,11.78
		c0.19,10.14,6.8,15.35,14.44,19.67c3.71,2.1,7.97,3.23,12.42,4.96c2.22,4.12,2.29,9.2,3.48,13.96c0.88,3.51-1.37,4.73-4.28,5.3
		c-0.82-3.11-3.14-3.99-6.01-4.06c-1.5-3.52-4.05-5.67-7.96-6.01c0.16-1.49-0.59-2.09-2.01-2.01c0.08-1.44-0.59-2.1-2.04-1.97
		c-0.22-1.62-1.4-1.66-2.64-1.59c-0.6-0.96-0.33-0.81,0.28-0.22c0.86,0.53,1.73,1.06,2.59,1.58c-0.11,1.45,0.54,2.13,2,2
		c-0.13,1.45,0.54,2.12,1.98,2.04c1.12,4.04,4.06,5.66,7.97,5.99C1140.49,129.09,1142.8,129.99,1145.55,130.22z"/>
	<path class="st0" d="M1263.43,128.28c-1.61,0.23-3.22,0.46-5.51,0.79c-0.6-5.99-0.12-11.7,1.69-17.38c2.21-2.3,5.46-2.17,8.14-3.38
		c3.33-1.51,6.74-2.86,9.53-5.28c5-4.34,9.92-8.54,9.34-16.35c-0.26-3.49,1.19-7.1,1.87-10.66c2.76-0.25,3.01,2.14,3.86,3.8
		c3.08,6,3.79,12.68,5.26,19.13c0.87,3.83-0.82,7.02-2.8,10.25c-7.99,13.04-18.36,23.42-32.48,29.95c-2.68-0.59-3.11-2.97-3.71-5.18
		c0.42-2.88,4.55-2.78,4.63-5.89c3.06,0.3,5.24-0.78,6.15-3.88c6.41-2.52,8.34-4.69,9.25-10.42c0.76-0.29,0.94-0.17,0.55,0.35
		c-0.1-0.2-0.19-0.39-0.29-0.59c-1.38,2.73-3.67,4.58-6.05,6.37c-1.52,1.15-3.42,2.08-3.3,4.47
		C1266.47,124.03,1264.76,125.86,1263.43,128.28z"/>
	<path class="st0" d="M1340.74,317.61c-3.84,10.43-9.19,19.37-16.97,26.93c-10.58,10.27-10.45,10.4-25.82,12.2
		c-5.43-6.29-5.43-6.29-7.84-14.76c3.58-0.58,6.58,3.21,10.38,1.05c2.96-1.68,5.24-4,7.85-6c7.47-5.74,13.73-12.35,17.6-21.15
		c2.78-6.32,4.79-12.34,0.36-18.73c-0.7-1.01-0.99-2.47,0.22-4.74C1332.18,300.77,1336.79,309.11,1340.74,317.61z"/>
	<path class="st0" d="M1115.36,342.17c0.51,5.87-3.32,9.8-6.33,14.23c-9.94,1.15-17.67-2.63-24.7-9.64
		c-8.36-8.33-15.07-17.47-19.08-29.13c3.91-8.66,8.86-17.12,14.5-26.21c1.47,3.23,0.23,5.37-0.72,7
		c-3.24,5.57-1.96,10.82,0.39,16.15c2.84,6.44,6.45,12.33,11.87,16.96c2.26,1.94,4.81,3.65,6.69,5.91
		c4.8,5.79,10.66,7.06,17.57,4.93L1115.36,342.17z"/>
	<path class="st0" d="M1066.63,1556.29c3.27-3.97,6.16-7.47,9.23-11.2c2.47,2.48,2.77,5.1,3.42,7.51
		c4.06,15.07,7.49,30.35,12.3,45.18c2.79,8.6,1.37,16.1-1.68,24.94c-7.19-3.58-11.85-8.94-15.75-15.1c-1.11-1.76-0.9-3.83-0.52-5.84
		c0.74-3.92,0.93-8.03,2.28-11.72c2.04-5.54,0.8-10.4-1.4-15.4C1071.83,1568.63,1069.29,1562.53,1066.63,1556.29z"/>
	<path class="st0" d="M1235.34,122.49c4.44-0.89,9-3.72,12.96,1.2c2.08-2.71,1.7-5.15,0.56-8.19c-8.75,0.83-13.28-4.13-16.78-11.84
		c-2.84-6.28-7.76-11.55-13.02-16.27c2.23-1.86,3.7-0.23,5,1.08c4.66,4.73,10.3,8.71,13.35,14.72c3.15,6.2,7.21,10.24,14.7,9.11
		c2.45,4.94,3.27,9.86,3.06,14.79c-0.23,5.47,0.45,10.53,3.38,15.24c0.64,1.03,0.65,2.45,0.98,3.8c-2.6,1.36-3.48-1.53-5.11-1.54
		c-2.2,0.11-2.71,1.8-3.46,3.23c-2.92,5.59-7.32,9.6-13.46,11.06c-7.49,1.78-11.28,6.38-12.12,13.81c-0.14,1.28-0.46,2.61-2.43,2.95
		c-0.48,0.06-1.09-0.26-1.11-1.04c-0.2-6.27-0.77-12.46-1.78-18.7c-1.47-9.1,1.33-17.71,5.58-25.8l-0.37,0.35
		c1.45-0.13,2.24-0.92,2.37-2.37l-0.37,0.37c1.44-0.14,2.31-0.86,2.37-2.38c0,0-0.37,0.35-0.37,0.35c3.25,0.23,4.83-2.02,6.4-4.3
		L1235.34,122.49z M1253.76,136.41c-2.62-1.61-4.16-3.04-5.96-3.57c-5.99-1.78-11.39-1.55-16.2,3.63
		c-4.44,4.79-6.51,10.63-9.16,16.28c-0.86,1.83-0.35,3.13,1.07,4.3C1238.21,157.57,1247.38,149.96,1253.76,136.41z"/>
	<path class="st0" d="M1522.22,1886.19c-6.96-2.48-13.76-4.96-19.88-8.74c0.58-3.09,2.67-2.88,4.58-3.07
		c19.55-1.97,38.75-5.97,57.67-11.04c8.06-2.16,14.98-1.53,22.21,3.22c-0.77,2.54-3.3,3.68-4.92,5.48
		c-1.77,1.98-3.71,3.83-5.75,5.53c-2.67,2.22-5.87,2.76-9.33,2.86c-5.81,0.16-11.27-1.43-16.54-3.35
		c-6.6-2.41-12.38-1.25-17.98,2.41C1528.96,1881.68,1525.66,1883.91,1522.22,1886.19z"/>
	<path class="st0" d="M1793.03,1759.26c-8.71,0-17.2,0-25.63,0c-0.49-2.79,1.55-2.99,2.83-3.83c12.78-8.44,25.54-16.89,38.34-25.29
		c11.5-7.55,12.97-7.78,27.13-4.95c-0.93,9.93-5.78,14.92-16.23,16.4c-2.62,0.37-5.32,0.33-7.98,0.24
		c-7.23-0.24-12.11,2.65-14.11,9.9C1796.67,1754.27,1795.68,1756.78,1793.03,1759.26z"/>
	<path class="st0" d="M1724.56,1801.75c-3.08,8.91-7.05,14.56-15.41,17.02c-5.79,1.7-11.44,3.68-17.44,2.88
		c-8.6-1.15-13.98,2.37-17,10.22c-0.34,0.87-1.2,1.54-1.87,2.37c-6.95,0.76-13.46-1.15-20.08-2.56c0.51-3.13,2.81-3.38,4.48-4.22
		c13.94-6.98,27.42-14.77,40.66-22.98c2.61-1.62,5.16-2.81,8.3-2.76C1711.81,1801.82,1717.42,1801.75,1724.56,1801.75z"/>
	<path class="st0" d="M1173.28,124.18c0.51,0.8,0.85,1.84,1.56,2.35c8.69,6.22,11.42,14.98,10.81,25.15
		c-0.26,4.27,0.32,8.7-1.44,12.73c-1.63,3.74,1.89,7.67-0.71,11.7c-2.97-0.8-3.21-3.39-3.49-5.32c-0.89-6.36-4.29-9.9-10.52-11.45
		c-5.57-1.39-10.29-4.49-13.32-9.58c-0.63-1.06-0.6-2.52-0.88-3.79c8.24,5.75,16.17,12.2,26.45,12.11c1.89-1.4,2.25-2.84,1.87-4.02
		c-1.9-5.96-4.06-11.81-8.38-16.57c-6.98-7.68-13.66-7.87-21.78-0.63c-1.03,3.58,1.79,6.24,2.19,9.47
		c-1.13-0.63-2.26-1.26-3.64-2.04c-1.57,0.9-3.26,1.88-4.97,2.86c-0.26-0.53-0.81-1.13-0.69-1.52c0.58-1.89,1.03-3.95,2.11-5.55
		c2.38-3.51,2.81-7.25,2.66-11.34c-0.12-3.29,0.26-6.63,0.79-9.89c0.63-3.84,2.2-6.95,7-6.76c3.39,0.14,5.55-1.89,7.01-4.73
		c2.46-4.77,6.15-8.61,9.35-12.84c3.19-4.21,7.15-6.8,11.92-8.53l-0.21,0.19c-5.84,7.9-12.98,14.88-16.9,24.15
		c-1.27,3-3.78,4.32-7.16,4.37c-2.22,0.03-4.42,0.76-6.29,1.1c-1.29,2.8-0.57,5.05-0.71,8.58c6.69-6.33,12.12-2.01,17.74,0.14
		L1173.28,124.18z"/>
	<path class="st0" d="M1353.04,1875.15c-9.68,6.1-18.83,5.63-27.95,0.49c-4.63-2.61-9.51-4.98-13.62-8.29
		c-5.81-4.68-11.64-7.65-19.47-3.81c-3.78-5.61-7.22-10.72-10.78-16.01c3.59-1.73,5.96,0.23,8.22,1.07
		c15.28,5.68,30.69,11.07,46.58,14.67C1343.4,1864.95,1348.67,1868.57,1353.04,1875.15z"/>
	<path class="st0" d="M1500.84,1884.64c-14.01,13.12-20.04,13.11-40.67,0.18c-5.87-0.54-9.49,3.99-14.58,6.67
		c-5.66-3.44-11.35-7.19-16.94-12.5c2.57-1.67,4.84-0.57,6.88-0.6c16.57-0.25,33.17,0.77,49.66-1.72c1.73-0.26,3.31,0.1,4.75,1.01
		C1493.56,1879.96,1497.16,1882.29,1500.84,1884.64z"/>
	<path class="st0" d="M1615.88,1717.02c3.16-6.36,6.06-12.18,9.01-18.11c3.93-0.81,7.53-0.36,11.14-0.24
		c4.48,0.15,8.06-1.24,11.1-5.16c8.8-11.35,9.84-10.59,23.75-6.24c0.57,0.18,0.99,0.85,1.38,1.2c0.18,7.61-3.9,11.19-10.66,13.41
		c-12.28,4.03-24.32,8.77-36.5,13.11C1622.4,1715.94,1619.73,1717.32,1615.88,1717.02z"/>
	<path class="st0" d="M1653.17,1838.31c-1.39,12.47-4.75,16.07-15.89,15.95c-7.21-0.08-14.32,3.09-21.63,0.39
		c-1.94-0.72-3.68,1.09-5.05,2.59c-2.23,2.43-4.44,4.88-6.95,7.63c-6.19-0.5-11.78-3.43-17.91-5.31c0.21-2.69,2.32-2.94,3.96-3.44
		c16.17-4.99,31.96-11.01,47.25-18.2C1642.84,1835.14,1647.78,1837.74,1653.17,1838.31z"/>
	<path class="st0" d="M1096.89,1620.67c5.62,20.23,13.24,39.01,20.69,57.84c1.27,3.21,1.87,6.21,0.8,9.66
		c-0.87,2.82-1,5.86-1.46,8.83c-10.27-2.69-15.75-9.07-15.7-18.55c0.02-3.98,0.06-8.1,1.1-11.89c2.08-7.56,0.11-13.72-5-19.26
		c-0.9-0.97-1.46-2.3-2.45-3.15c-4.13-3.53-5.03-7.55-2.51-12.45C1094,1628.5,1093.22,1624.36,1096.89,1620.67z"/>
	<path class="st0" d="M1368.65,1880.58c-4.87-4.59-8.43-7.95-12.46-11.75c4.96-0.6,9.25,1.12,13.52,1.92
		c13.01,2.43,26.09,4.25,39.24,5.5c11,1.04,11.01,0.88,18.68,10.4c0.16,1.6-0.88,2.36-2.12,2.9c-8.67,3.77-17.23,4.26-25.76-0.55
		c-4.04-2.28-8.27-4.2-12.42-6.28C1381.05,1879.58,1374.81,1875.89,1368.65,1880.58z"/>
	<path class="st0" d="M1220.7,1828.38c-4.11-6.96-6.1-13.6-8.76-20.84c3.2-0.15,4.29,2.22,6,3.32
		c16.21,10.4,32.03,21.59,50.11,28.59c7.53,2.92,8.7,9.15,10.96,15.3c-5.59,4.96-10.78,2.83-15.59-0.51
		c-2.69-1.87-5.09-4.37-7.07-7.01c-3.62-4.84-8.3-8.63-12.23-13.13c-3.83-4.37-8.49-6.11-14.18-5.77
		C1227,1828.53,1224.02,1828.38,1220.7,1828.38z"/>
	<path class="st0" d="M1121.63,1693.53c2.9,0.78,3.36,2.03,3.92,3.21c7.03,14.72,15.95,28.32,25.56,41.42
		c4.96,6.75,5.53,13.62,3.92,21.45c-4.2-0.43-7.3-2.5-10.32-4.37c-3.75-2.31-6.46-5.65-7.14-10.29c-0.48-3.27-1.85-6.56-1.59-9.75
		c0.73-8.8-3.91-14.36-10.32-19.1c-1.58-1.17-3.24-2.22-4.98-3.4C1120.99,1706.42,1121.3,1700.21,1121.63,1693.53z"/>
	<path class="st0" d="M1336.18,1569.09c1.83,3.21,3.93,6.6,5.76,10.13c4.7,9.1,2.6,19.46-5.14,26.01c-2.89,2.44-6.84,1.02-7.39-2.91
		c-0.74-5.24-1.43-10.53-1.53-15.81c-0.22-11.98-0.07-23.96-0.05-35.94c0-1.65-0.01-3.36,2.31-5.03c3.07,3.41,6.22,6.92,8.99,10
		C1339.83,1560.79,1336.6,1564.4,1336.18,1569.09z"/>
	<path class="st0" d="M1162.21,1753.38c10.96,15.56,23.78,29.52,37.72,42.38c5.36,4.94,7.51,10.44,7.48,17.29
		c-8.74,1.67-15.66-1.19-19.21-8.35c-1.9-3.84-3.53-7.97-4.34-12.16c-1.45-7.39-5.9-11.66-12.6-14.12
		c-2.51-0.92-4.92-1.96-7.38-4.16c-1-6.68-4.06-13.57-1.44-20.96L1162.21,1753.38z"/>
	<path class="st0" d="M1714.13,1795.63c0.31-1.14,0.3-1.59,0.48-1.7c12.85-7.66,24.9-16.47,36.82-25.48c1.6-1.21,3.16-2.5,5.26-2.63
		c7.84-0.49,15.68-0.94,23.73-1.42c-3.15,10.9-9,15.72-19.02,15.97c-3.32,0.08-6.73,0.29-9.95-0.33c-5.6-1.08-9.38,1.18-10.98,6.11
		c-2.49,7.66-7.58,10.31-15.12,9.62C1721.75,1795.41,1718.13,1797.18,1714.13,1795.63z"/>
	<path class="st0" d="M1892.18,1692.67c-8.09,13.18-13.61,15.64-27.44,12.76c-6.44-1.34-6.63-1.23-9.82,4.9
		c-1.66,3.19-2.67,6.76-5.27,9.37c-3.42,1.18-6.65,0.02-9.88-0.4c-2.92-0.38-5.81-1-8.7-1.52c-0.63-1.61,0.5-2.37,1.54-3.04
		c9.99-6.47,20.45-12.32,29.88-19.52c7.78-5.93,15.84-5.37,24.37-4.17C1888.45,1691.28,1889.98,1691.99,1892.18,1692.67z"/>
	<path class="st0" d="M1849.5,1616.16c1.17-7.98,7.03-13.12,11.68-18.95c0.68-0.86,2.32-1.17,3.56-1.31
		c1.96-0.23,4.01-0.38,5.94-0.06c6.55,1.07,11.55-0.91,15.4-6.47c2.77-3.99,7.19-5.74,11.79-6.75c3.74-0.82,6.98,0.7,10.29,2.42
		c-3.34,7.77-8.63,12.39-16.33,15.13c-12.75,4.53-25.23,9.84-37.8,14.87c-1.54,0.62-2.96,1.47-4.7,0.94L1849.5,1616.16z"/>
	<path class="st0" d="M1733.32,1661.62c-0.03,4.71-0.69,8.57-5.32,10.92c-15.09,7.66-30.25,15.16-46.01,21.36
		c-1.12,0.44-2.39,1.19-4.45-0.43c1.5-4.56,3.11-9.46,4.74-14.4c4.2-2.29,8.63-1.41,12.82-1.22c6.21,0.28,11.07-1.24,14.1-7.08
		c0.9-1.73,2.48-3.09,3.67-4.68C1718.32,1658.79,1725.18,1658.28,1733.32,1661.62z"/>
	<path class="st0" d="M2054.72,1626.84c-10.45,11.66-21.13,11.99-31.66,3.55c-6.13,1.22-9.35,5.35-13.44,8.07
		c-3.09,2.05-5.85,3.37-10.05,2.45c-5.93-1.29-12.18-1.1-18.76-1.58c1.79-3.91,5.22-3.95,7.78-4.76
		c13.27-4.21,26.66-8.02,39.98-12.07c5.94-1.8,11.63-1.67,17.3,1.04C2048.52,1624.82,2051.41,1625.63,2054.72,1626.84z"/>
	<path class="st0" d="M1548.42,1732.99c6.96-5.77,12.5-10.37,17.75-14.73c6.49-0.98,12.12,2.39,18.82,1.54
		c4.39-4.08,7.19-10.75,14.69-13.2c3.85,0.92,7.88,2.9,11.59,5.84c-1.29,5.58-3.85,8.68-9.56,10.27
		c-15.99,4.46-32.16,7.93-48.46,10.9C1552.33,1733.78,1551.31,1733.38,1548.42,1732.99z"/>
	<path class="st0" d="M1315.54,554.12c-2.17,0.78-4.62-0.78-6.77,1.99c-1.93,2.49-3.08-2.14-5.22-2.03l0.11,0.28
		c-0.3-1.24-1.01-2.02-2.37-2.05c-0.15-0.11-0.31-0.23-0.46-0.34c0.14-0.13,0.29-0.39,0.43-0.38c1.33,0.02-0.5-0.61,0.36,0.41
		c-0.1,0.77-0.21,1.55-0.31,2.32l0.15-0.25c-3.35,0.57-5.67-1.79-8.07-3.27c-11.01-6.79-23.19-9.44-35.77-10.95
		c-1.24-0.15-2.72,0.06-3.49-2.2c5.61-4.31,13.23-5.03,18.65-9.46c5.57,1.22,10.47,3.03,15.02,5.93c8.1,5.16,16.73,9.5,24.19,15.65
		c1.5,1.24,3.38,2.19,3.38,4.54L1315.54,554.12z"/>
	<path class="st0" d="M1792.44,1632.75c-0.38,8.15-4.48,12.19-11.41,14.93c-11.1,4.38-21.8,9.75-32.7,14.64
		c-2.57,1.15-5.25,2.07-8.7,3.42c1.37-7.31,3.71-12.97,6.54-18.23c3.94-1.94,7.41-0.79,10.94,0.22c4.79,1.37,8.27-0.03,10.66-4.69
		C1772.86,1633.06,1781,1629.69,1792.44,1632.75z"/>
	<path class="st0" d="M1911.38,1592c2.53-5.13,6.76-8.87,10.5-13.04c2.53-2.82,5.47-3.97,8.9-2.54c6.49,2.71,11.54,0.94,16.01-4.12
		c1.28-1.46,3.2-2.34,4.79-3.54c6.6-5.02,13.22-5.2,20.34-0.09c-3.38,6.69-7.98,10.43-15.64,12c-12.96,2.66-25.61,6.84-38.38,10.44
		c-2.23,0.63-4.36,1.71-6.74,0.68L1911.38,1592z"/>
	<path class="st0" d="M1438.98,1770.11c-1.71-10.18-0.68-19.65-5.87-27.73c5.68-6.58,13.37-10.9,14.5-20.84
		C1461.03,1741.26,1456.83,1753.54,1438.98,1770.11z"/>
	<path class="st0" d="M967.64,1770.58c-9.16-6.71-13.63-14.31-17.1-22.59c-0.61-1.46-0.86-3.31-0.59-4.86
		c1.23-7.06,2.49-14.16,6.42-20.73c4.3,2.86,4.72,7.7,7.65,10.85c2.68,2.88,6.59,4.59,8.53,9.11
		C968.99,1750.45,967.19,1759.42,967.64,1770.58z"/>
	<path class="st0" d="M1021.44,1678.89c4.77-11.59,4.93-21.23,1-31.34c8.64-4.58,15.35-11.1,19.8-19.32
		c3.02-0.25,4.48,1.2,4.35,3.41C1045.53,1650.16,1040,1666.51,1021.44,1678.89z"/>
	<path class="st0" d="M1951.21,1666.26c-6.98-2.13-12.93-3.94-20.34-6.2c11.21-7.58,22.23-12.49,33.78-15.68
		c8.29-2.29,16.73,0.83,25.94,2.2c-6.81,7.43-13.48,12.33-23.18,8.66c-3.73-1.41-6.56-0.13-8.97,2.42
		C1955.97,1660.28,1953.77,1663.18,1951.21,1666.26z"/>
	<path class="st0" d="M1903.71,1687.71c-6.4-2.79-13.72-0.27-20.96-4.8c5.14-2.82,9.38-5.31,13.75-7.51
		c5.33-2.69,11.02-4.75,16.12-7.8c6.24-3.73,12.29-4.24,18.95-1.55c2.1,0.85,4.55,0.86,6.4,2.45c-3.02,9.56-6.19,11.56-15.51,9.81
		c-0.65-0.12-1.31-0.24-1.96-0.38c-8.56-1.89-8.55-1.89-13.6,5.5C1905.98,1684.77,1904.95,1686.04,1903.71,1687.71z"/>
	<path class="st0" d="M1362.16,1628c6.9,6.55,10.9,16.04,21.02,18.93c-2.82,9.83-2.66,19.23-0.94,28.77
		C1367.2,1668.96,1355.6,1641.74,1362.16,1628z"/>
	<path class="st0" d="M1845.92,1608.85c-1.08,2.26-1.9,3.7-2.47,5.23c-1.98,5.3-5.62,8.31-11.02,10.44
		c-11.67,4.61-22.98,10.11-35.64,15.78c1.92-7.07,5.66-11.94,9.12-17.16c1.54-1.44,3.63-0.81,5.53-0.7c3.33,0.2,5.65-1.33,7.79-3.61
		c2.5-2.65,4.95-5.43,7.8-7.68C1832.47,1606.85,1838.36,1604.27,1845.92,1608.85z"/>
	<path class="st0" d="M2048.96,1618.8c13.62-3.75,25.88-4.18,38.09-5.03c1.99-0.14,4.19,0.47,5.96-0.18
		c9.43-3.42,15.85,1.22,22.15,7.74c-2.47,1.62-4.65,3.11-6.89,4.49c-5.4,3.3-10.65,3.42-15.68-0.82c-1.27-1.07-2.68-1.97-3.94-3.05
		c-2.93-2.51-5.93-2.71-9.11-0.51c-1.37,0.95-2.82,1.77-4.18,2.73c-3.31,2.33-6.56,2.44-10.31,0.71
		C2060.54,1622.81,2055.77,1621.33,2048.96,1618.8z"/>
	<path class="st0" d="M1343.53,1472.03c-1.78,1.95-3.51,3.94-5.34,5.83c-0.89,0.92-1.96,1.66-3.84,3.22
		c-4.49-15.72-3.09-30.03,3.34-45.63c3.74,5.64,4.29,11.39,8,15.4c3.81,4.11,8.1,7.67,12.96,11.29c-4.3,5.19-8.66,9.28-15.29,10.05
		c-1.54-5.59-3.08-11.18-4.62-16.77C1337.71,1461.81,1337.87,1467.81,1343.53,1472.03z"/>
	<path class="st0" d="M1007.99,465.87c-0.17-1.39-0.58-2.42-0.37-3.31c2.13-9.39,3.16-18.98,4.9-28.42
		c4.22-22.79,12.42-44.06,26.48-62.78c2.96-3.94,5.93-7.88,9.01-11.97c2.54,2.73,0.76,4.72-0.32,6.5
		c-5.51,9.1-10.95,18.26-16.83,27.12c-5.29,7.96-7.87,16.65-9.34,25.98c-2.01,12.77-4.21,25.53-7.65,38.03
		C1012.91,460.57,1011.9,463.92,1007.99,465.87z"/>
	<path class="st0" d="M1357.65,359.21c11.59,14.73,21.6,28.97,27.62,45.76c4.84,13.49,8.45,27.22,10.03,41.5
		c0.69,6.19,2.17,12.29,3.29,18.39c-2.51,1.61-3-0.58-3.8-1.7c-3.42-4.76-3.96-10.55-5.13-16.01c-2.36-11.03-4.29-22.16-6.15-33.28
		c-1.06-6.34-3.12-12.2-6.55-17.63c-5.68-9.01-11.32-18.04-16.87-27.13C1358.5,366.52,1356.21,363.98,1357.65,359.21z"/>
	<path class="st0" d="M1065.89,1466.51c-3.62-0.3-2.48,4.51-6.43,4.94c-4.71-0.54-7.93-4.93-12.3-8.81
		c8.5-7.11,17.5-13.67,19.2-25.15c1.56-0.51,2.49-0.1,2.96,0.78c5.17,9.84,6.19,29.79,2.18,41.39c-0.63-0.07-1.46,0.09-1.85-0.25
		c-1.99-1.73-3.86-3.6-5.67-5.32c-0.12-2.96,2.6-4.99,1.68-7.78c2.52-3.52,3.72-7.31,2.79-12.56
		C1065.37,1458.29,1064.86,1462.26,1065.89,1466.51z"/>
	<path class="st0" d="M1342.78,1386.46c-4.15-21.82-6.28-43.76-11.4-65.66c5.12,1.08,8.31,3.45,11.46,5.79
		c0.15,0.73,0.47,1.39,0.4,2.01c-1.78,15.16-4.7,12.77,3.3,27.59c2.61,4.84,3.26,10.51,1.61,16.44
		C1346.84,1377.31,1346.13,1382.1,1342.78,1386.46z"/>
	<path class="st0" d="M2029.8,1557.99c-2.77,7.03-7.12,9.69-13.81,10.63c-13.01,1.83-25.87,4.76-39.06,7.28
		c2.54-6,4.29-7.94,12.99-14.54c1.55,0.43,3.49,0.79,5.29,1.5c4.46,1.75,8.41,0.8,12.13-1.93c3.21-2.36,6.6-4.39,10.39-5.73
		C2022.17,1553.64,2026.05,1554.37,2029.8,1557.99z"/>
	<path class="st0" d="M2086.93,1554.24c-4.32,6.69-9.94,8.79-17.26,8.29c-9.63-0.65-19.14,1.38-28.65,2.65
		c-2.59,0.35-5.04,0.74-7.77,0.12c1.05-3.35,3.26-5.38,5.09-7.69c3.05-3.84,6.37-5.03,11.14-2.76c5.83,2.77,11.63,2.17,16.88-1.94
		c0.77-0.6,1.82-0.84,2.64-1.39C2075.51,1547.12,2081.37,1547.59,2086.93,1554.24z"/>
	<path class="st0" d="M1063.15,1326.9c3.57-2.91,6.27-5.26,11.13-5.67c-4.56,21.52-7.17,42.82-9.81,64.12
		c-0.06,0.45-0.98,0.79-2.09,1.62c-4.79-11.33-8.46-22.31-1.53-33.98c3.31-5.58,5.39-11.27,2.96-17.94
		C1062.96,1332.66,1063.35,1329.82,1063.15,1326.9z"/>
	<path class="st0" d="M1492.47,1746.09c6.56,16.77,1.14,32.12-13.86,41.79c-3.84-5.86-2.47-12.47-3.19-18.89
		c3.31-3.33,6.91-6.18,9.73-9.87C1487.98,1755.42,1488.9,1750.76,1492.47,1746.09z"/>
	<path class="st0" d="M2191.78,1561.08c-4.99,3.84-10.1,4.94-16.69,3.79c-11.7-2.04-23.67-2.5-35.56-3.63
		c3.75-4.93,3.75-4.93,14.12-8.53c1.44,0.62,3.27,1.36,5.06,2.2c3.84,1.79,7.46,1.67,11.51,0.07
		C2179.25,1551.41,2184.93,1553.23,2191.78,1561.08z"/>
	<path class="st0" d="M930.57,1769.01c-0.52,5.67-1.02,11.25-1.59,16.83c-0.06,0.56-0.59,1.06-0.91,1.59
		c-15.6-6.84-20.15-23.37-15.05-40.68c3.33,1.89,3.37,5.57,5.06,8.06c1.68,2.47,3.2,5.1,5.17,7.32
		C925.45,1764.59,928.06,1766.67,930.57,1769.01z"/>
	<path class="st0" d="M1343.14,1617.07c1.46,6.02-0.37,12.28,2.09,17.79c2.44,5.45,5.68,10.53,8.24,15.93
		c2.7,5.71,5.84,11.14,9.4,16.23c-1.91,2.88-3.88,1.08-5.15,0.18c-1.84-1.3-3.41-3.16-4.69-5.06
		c-9.57-14.15-16.59-29.51-21.33-45.91c-0.26-0.89-0.04-1.93,0.05-2.89c0.03-0.29,0.36-0.54,0.81-1.17
		C1336.02,1613.77,1339.54,1615.4,1343.14,1617.07z"/>
	<path class="st0" d="M2166.08,1622.64c-10.87,7.51-19.63,2.21-27.52-4.24c-12.25,4.86-12.25,4.86-24.12-5.41
		c3.62-0.23,6.35-0.48,9.09-0.56c3-0.09,6.01-0.19,8.99,0.02c7.61,0.55,15.2,1.61,22.82,1.81
		C2161.38,1614.43,2164.32,1617.52,2166.08,1622.64z"/>
	<path class="st0" d="M1554.41,926.67c-0.79-7.81-7.55-12.92-8.2-21.05c3.69-4.96,4.48-11.78,7.52-17.45
		c3.3-0.87,4.33,1.46,5.66,3.24c2.23,3,4.2,6.59,3.48,10.1C1561.1,910.1,1560.19,919.09,1554.41,926.67z"/>
	<path class="st0" d="M850.58,926.83c-4.33-7.06-5.24-14.66-6.92-21.98c-1.62-7.09,0.94-12.79,6.75-17.08
		c4.11,1.56,3.39,5.58,4.92,8.28c4.33,7.68,5.56,15.3-0.82,22.61C852.56,920.91,854.24,924.74,850.58,926.83z"/>
	<path class="st0" d="M1178.37,239.51c-2.36-9.27-4.71-18.55-7.19-28.33c9.82,4.75,10.81,5.84,12.9,14.59
		c1.63,6.84,1.97,13.8,1.61,20.79c-0.15,3.02-1.01,5.89-3.43,8.7c-3.03,0.06-5.98-0.76-8.84-3.17c1.7-4.34,1.59-9.19,4.96-12.8
		l-0.56,0.66L1178.37,239.51z"/>
	<path class="st0" d="M2189.53,1622.6c-4.46-0.01-7.49,2.42-11.2,3.27c-3.46-1.98-5.63-5.29-8.48-8.07
		c1.95-2.27,4.06-1.53,5.66-1.21c11.72,2.34,23.36,5.09,35.09,7.34c5.22,1,8.31,3.78,9.79,8.68
		C2211.36,1638.38,2206.71,1636.89,2189.53,1622.6z"/>
	<path class="st0" d="M1232.31,252.28c-2.61,2.61-5.76,2.13-8.36,3.58c-2.94-3.79-4.04-7.56-4.08-11.57
		c-0.08-7.99,1.3-15.81,3.38-23.48c1.44-5.29,7.01-6.65,9.89-10.62c3.16,1.91,0.4,3.67,0.45,5.3c0.06,1.91-0.87,3.84-1.35,5.77
		c-1.26,5.15-2.54,10.29-3.76,15.45C1227.14,242.36,1232.5,246.31,1232.31,252.28z"/>
	<path class="st0" d="M1348.4,1443.32c-4.52-8.54-8.5-17.25-5.95-27.27c0.82-3.22-0.58-5.86-0.6-8.78
		c-0.03-4.29-0.01-8.59-0.01-12.86c4.5-0.56,5.81,3.65,9.09,4.15c0,2.12,0.4,3.87-0.07,5.36c-2.47,7.88-2.51,15.64,0.09,23.52
		c1.26,3.83,1.03,7.9,0.62,11.88C1351.4,1441.03,1350.61,1442.45,1348.4,1443.32z"/>
	<path class="st0" d="M1057.41,1444.71c-4.55-5.59-4.51-10.81-2.95-15.42c2.99-8.81,3.36-17.39,0.76-26.23
		c-0.27-0.91-0.04-1.97-0.04-2.68c0.53-2.03,2.06-2.83,3.33-3.84c1.27-1.01,2.5-2.25,4.43-1.63c1.13,1.71,0.85,3.74,0.86,5.69
		c0.03,7.59,0.08,15.18-0.01,22.77C1063.71,1430.7,1061.22,1437.3,1057.41,1444.71z"/>
	<path class="st0" d="M2088.8,1560.09c2.49-4.01,7.22-6,10.82-9.19c1.59-1.4,3.84-1.26,5.6-0.06c6.08,4.14,12.18,3.86,18.76,1.06
		c4.08-1.74,8.36-1.29,12.46,2.86c-2.84,2.71-5.05,5.63-9.48,5.66c-11.87,0.09-23.78-0.54-35.59,1.27
		C2090.5,1561.82,2089.43,1561.83,2088.8,1560.09z"/>
	<path class="st0" d="M955.83,912.46c-0.61-5.74-1.12-10.57-1.69-15.9c5.94-5.27,9.89-12.3,13.19-20.35
		C974.52,891.73,971.42,901.7,955.83,912.46z"/>
	<path class="st0" d="M880.79,1712.67c3.08,9.61,5.99,16.88,11.14,23.03c-2.36,6.05-3.24,12.07-3.24,18.49
		c-5.79-6.61-9.69-14.19-12.4-22.14C874.28,1726.16,877.9,1720.58,880.79,1712.67z"/>
	<path class="st0" d="M1388.89,1341.56c4.78-8.04,10.16-15.47,17.72-21.31c5.97-4.62,12.97-4.57,19.72-5.84
		c3.48-0.66,7.09-1.38,10.19,0.82c-0.04,3.32-2.59,3.31-4.16,4c-2.72,1.19-5.68,1.83-8.54,2.68c-10.98,3.24-20.9,8.32-29.18,16.4
		c-1.48,1.45-2.51,4.24-5.55,3.06L1388.89,1341.56z"/>
	<path class="st0" d="M2288.9,1594.5c7.52-3,12.73-1.87,18.05-1.86c1.55,1.71,3.12,3.37,4.61,5.11c2.26,2.63,4.85,4.27,8.55,4.03
		c7.93-0.52,12.05,3.86,14.09,11.45c-3.69,1.75-7.29,1.86-10.29-0.37C2313.81,1605.37,2302.48,1600.15,2288.9,1594.5z"/>
	<path class="st0" d="M967.86,1316.12c9.24-4.68,17.58-1.53,24.75,0.81c11.69,3.81,18.47,13.87,23.5,24.89
		c-7.69-5.05-13.7-12.07-22.53-15.74C985.49,1322.7,976.5,1321.51,967.86,1316.12z"/>
	<path class="st0" d="M1451.6,896.85c-0.27,4.66-0.56,9.57-0.86,14.55c-14.53-3.67-20.03-23.47-12.14-34.78
		c1.87,3.68,3.39,7.34,5.49,10.62C1446.22,890.54,1448.94,893.48,1451.6,896.85z"/>
	<path class="st0" d="M2194.62,1567.46c3.79-4.08,8.05-4.14,11.28-6.33c2.61,1.46,4.9,2.73,7.18,4.01c2.46,1.38,5.2,1.93,7.54,0.39
		c8.26-5.45,13.37-0.6,18.91,5.4c-3.6,3.94-7.54,4.76-12.34,3.65C2216.63,1572.16,2206.03,1569.94,2194.62,1567.46z"/>
	<path class="st0" d="M2369.01,1655.53c-4.26-1.38-7.16-2.98-9.04-5.84c-6.73-10.26-14.81-19.4-23.76-28.37
		c3.92-1.88,6.65,1.53,9.91,0.27c2.5,6.64,5.74,11.66,13.12,12.59c3.4,0.43,5.88,3.35,7.21,6.36
		C2368.42,1645.02,2370.15,1649.73,2369.01,1655.53z"/>
	<path class="st0" d="M1516.94,1754.41c1.7-6.62-1.08-12.45-3-18.59c4.79-6.44,8.98-13.16,10.07-22.57
		c4.26,5.89,6.63,11.12,4.98,17.13C1526.63,1738.98,1523.34,1747.25,1516.94,1754.41z"/>
	<path class="st0" d="M1404.17,1707.46c-1.2,0.79-2.55,0.99-3.72,0.19c-12.05-8.27-23.3-17.5-33.57-27.9
		c-0.65-0.66-1.17-1.53-0.29-3.34c2.76,0.97,5.95,1.23,8.35,3.71c4.34,4.49,9.89,6.39,16.14,7.56c2.26,3.84,4.33,8.28,8.41,10.65
		c3.87,2.25,4.06,5.69,4.45,9.3L1404.17,1707.46z"/>
	<path class="st0" d="M2243.67,1577.78c2.55-2.23,5.43-1.82,7.82-2.87c2.75-1.21,5.34-0.46,7.37,1.52
		c4.67,4.54,9.47,6.39,16.19,3.89c5.67-2.11,10.13,1.11,13.54,6.6c-6.34,2.69-12.06,3.18-18.26,0.82
		c-8.37-3.17-16.95-5.77-25.44-8.64C2244.63,1579.01,2244.46,1578.65,2243.67,1577.78z"/>
	<path class="st0" d="M843.58,948.2c-8.06-6.59-13.55-12.65-17.85-19.76c-2.22-3.67-2.56-7.49,0.58-11.87
		c4.87,5.65,9.34,11.65,16.52,14.72C843.06,936.43,843.27,941.34,843.58,948.2z"/>
	<path class="st0" d="M2278.11,1657.72c-0.61-2.41-1.12-4.29-1.54-6.19c-0.05-0.22,0.35-0.53,0.73-1.06
		c4.96,0.89,8.8,4.06,12.5,7.19c4.02,3.4,7.81,7.13,11.41,10.98c2.72,2.92,4.46,6.41,3.35,10.61c-9.55,0.81-13.12-1.43-14.79-9.06
		c-0.21-0.96-0.13-1.98-0.31-2.95C2287.91,1658.75,2287.56,1658.45,2278.11,1657.72z"/>
	<path class="st0" d="M1334.6,1313.59c-2.62,0.58-4.29,0.05-4.88-1.66c-3.84-11.1-7.54-22.25-11.48-33.96
		C1331.82,1286.38,1337.45,1298.91,1334.6,1313.59z"/>
	<path class="st0" d="M1088,1278.65c-3.72,10.18-8.47,20-10.71,30.7c-0.2,0.95-0.49,1.94-1,2.75c-0.72,1.15-1.88,1.92-3.28,1.87
		c-1.47-0.05-2.3-1.14-2.72-2.42c-0.3-0.92-0.51-1.96-0.42-2.91c1.13-12.27,4.91-23.15,16.13-29.98c0.41-0.25,1.18,0.11,1.78,0.19
		L1088,1278.65z"/>
	<path class="st0" d="M1580.33,916.51c2.53,6.41,1.18,11.28-2.51,15.68c-4.6,5.49-8.83,11.36-15.46,15.48
		c0.37-5.54,0.7-10.44,1.07-16C1569.95,928.26,1574.63,922.02,1580.33,916.51z"/>
	<path class="st0" d="M2367,1661.08c3.86,0.43,5.44,2.87,7.73,3.83c0.34,1.25,0.78,2.19,0.82,3.16c0.3,6.32,0.48,12.62,6.07,17.12
		c1.33,1.07,1.67,3.01,1.23,4.63c-1.01,3.74-1.13,7.92-4.86,10.9c-5.5-5.64-3.88-13.2-5.8-19.65
		C2370.31,1674.77,2368.86,1668.33,2367,1661.08z"/>
	<path class="st0" d="M1277.75,160.38c0.35-0.91,0.7-1.81,1.3-3.35c-4.52-0.76-7.33,4.52-12.44,2.84c-1.56-2.5-0.47-5.75-1-9.39
		c9.68-1.23,18.98-2.37,26.05-9.91c0.85,8.67,0.85,8.69-7.65,15.21c-0.13,0.04-0.27,0.08-0.4,0.11c0.22-0.09,0.43-0.18,0.65-0.28
		c-2.03,1.83-3.61,4.34-6.77,4.47L1277.75,160.38z"/>
	<path class="st0" d="M2370.05,1741.47c-3.64-3.4-3.5-6.91-2.74-10c2.02-8.16,4.56-16.18,6.98-24.57c3.64,1.53,4.88,4.71,6.91,7.21
		c-0.06,3.71-2.98,5.87-4.45,8.72c-1.27,2.47-2.19,4.83-1.05,7.52C2378.18,1736.18,2374.23,1738.6,2370.05,1741.47z"/>
	<path class="st0" d="M1123.54,156.11c-9.17-4.58-9.77-5.53-9.34-15.29c7.29,7.09,16.43,8.62,25.93,9.63
		c-0.23,3.44-0.43,6.31-0.66,9.73c-5.68,1.16-9.19-4.15-14.07-4.07l0.26,0.23c-0.8-0.91-1.59-1.24-2.37,0.02L1123.54,156.11z"/>
	<path class="st0" d="M1070.24,1543.98c-8.02-11.98-5.67-23.1,0.44-34.2c1.57,0.47,2.17,2.22,2.21,3.51
		c0.21,6.99,0.9,13.91,2.38,20.73C1076.19,1538.29,1073.93,1540.91,1070.24,1543.98z"/>
	<path class="st0" d="M1335.61,1543.7c-4.65-3.18-5.61-6.7-4.61-11.56c1.46-7.09,2.07-14.35,3.07-21.81
		C1341.71,1520.48,1344.14,1530.45,1335.61,1543.7z"/>
	<path class="st0" d="M2308.4,1682.55c7.55,10.14,7.43,19.96,7.24,29.82c-0.08,4.29-1.76,7.6-5.57,10
		c-4.5-4.56-3.69-9.65-1.22-14.57c2.49-4.97,4.58-9.31-0.65-14.13C2305.5,1691.19,2307.75,1687.48,2308.4,1682.55z"/>
	<path class="st0" d="M2312.47,1728.31c-5.45,14.74-11.84,25.98-24.01,34.78c-1.96-6.65-0.07-10.13,3.83-12.77
		c2.2-1.49,4.53-2.77,6.86-4.05c2.82-1.55,4.82-3.64,4.49-7.09C2303.15,1734,2305.99,1731.16,2312.47,1728.31z"/>
	<path class="st0" d="M2245.95,1635.51c8.34,3.68,17.1,6.52,25.56,11.96c-2.88,3.13-5.62,4.69-9.32,4.95
		c-3.81,0.27-6.13-1.85-8.25-4.45c-2.48-3.04-4.88-6.16-7.36-9.2c-0.94-1.15-1.14-2.26-0.32-3.52L2245.95,1635.51z"/>
	<path class="st0" d="M2362.44,1742.89c3.64,3.73,4.21,6.89,0.97,9.4c-3.94,3.05-5.76,6.75-6.77,11.57
		c-1.16,5.52-3.39,6.3-10.79,5.37c1.61-5.26,6.04-8.53,8.57-12.99C2356.86,1751.94,2359.5,1747.76,2362.44,1742.89z"/>
	<path class="st0" d="M1601.07,899.88c3.05,11.3,1.27,17.54-6.92,28.01c-3.02-3.66-4.33-7.58-1.26-11.52
		C1596.36,911.91,1598.38,906.79,1601.07,899.88z"/>
	<path class="st0" d="M804.58,902.03c2.92,6.23,6.74,11.85,10.6,17.86c-0.8,2.72-1.63,5.53-2.46,8.33
		C807.18,926.64,802.86,913.79,804.58,902.03z"/>
	<path class="st0" d="M1550.25,1724.36c-5.26,3.32-8.33,8.67-15.18,10.07c-0.41-5.97,1.94-10.56,3.73-15.64
		C1543.11,1719.66,1546.71,1720.85,1550.25,1724.36z"/>
	<path class="st0" d="M2284.37,1767.52c-4.94,5.97-10.87,10-16.93,13.83c-0.74,0.47-1.95,0.28-2.94,0.28
		c-1.39,0-2.58-0.43-3.05-1.93c-0.44-1.39-0.07-2.59,0.76-3.71c1.33-1.78,3.22-2.28,5.28-2.21c4.87,0.17,9.48,0.03,10.91-6.09
		C2278.62,1766.79,2279.01,1766.88,2284.37,1767.52z"/>
	<path class="st0" d="M2319.61,1794.98c2.47-7.03,2.47-7.03,20.2-19.62c1.81,1.88,0.08,3.06-1.07,3.87
		c-4.67,3.3-8.35,7.17-10.31,12.79C2327.26,1795.39,2326.73,1795.21,2319.61,1794.98z"/>
	<path class="st0" d="M2245.21,1793.93c-3.9,4.94-9.9,5.75-15.3,7.64c-1.46,0.51-3.33,0.09-4.22-1.66
		c-0.89-1.75,0.06-3.19,1.11-4.46c2.06-2.49,4.89-3.34,7.96-3c3.57,0.39,7.09,1.1,10.64,1.68L2245.21,1793.93z"/>
	<path class="st0" d="M1057.1,1476.35c5.77,6.79,11,11.85,9.58,21.41C1061.88,1491.18,1055.68,1486.68,1057.1,1476.35z"/>
	<path class="st0" d="M2175.2,1816.13c7.3-8.38,11.49-9.18,22.32-4.93C2190.59,1814.52,2183.61,1814.73,2175.2,1816.13z"/>
	<path class="st0" d="M1348.41,1477.31c3.35,9.32-5.27,12.8-7.89,18.97C1337.65,1487.68,1343.24,1482.83,1348.41,1477.31z"/>
	<path class="st0" d="M1027.37,1446.12c-3.62-1.7-5.2-4.52-5.64-8.53c-0.55-4.98-0.3-9.85,0.75-16.43
		c2.41,9.32,3.82,17.21,4.66,25.22L1027.37,1446.12z"/>
	<path class="st0" d="M1379.52,1444.16c0.18-7.92,2.81-15.57,2.33-24.03c3.93,7.03,2.85,13.89,1.58,20.73
		c-0.39,2.11-1.56,3.65-4.12,3.13L1379.52,1444.16z"/>
	<path class="st0" d="M2227.28,1630.18c6.89-0.55,12.45,3.55,18.67,5.32l0.31-0.26c-2.93,0.54-5.86,1.11-8.8,1.62
		c-7.07,1.25-7.07,1.24-10-6.87L2227.28,1630.18z"/>
	<path class="st0" d="M1171.87,119.67c5.88,2.65,10.82,7.48,17.78,7.48c-0.18,2.36-1.28,3.87-3.34,4.84
		c-3.53-0.35-5.59-3.09-7.98-5.29c-1.45-1.33-2.7-3.01-5.05-2.52l0.37,0.36c-0.51-1.54-1.03-3.08-1.54-4.62L1171.87,119.67z"/>
	<path class="st0" d="M1225.65,130.1c-2.09,0.68-4.19,1.36-6.02,1.96c-2.18-1.22-3.09-2.83-3.4-5.43c3.83,0.94,6.91-0.69,9.88-2.64
		c1.65-1.08,3.31-2.1,5.43-1.6c0,0-0.16-0.25-0.16-0.25c-0.7,1.42-1.39,2.85-2.09,4.27c0,0,0.37-0.35,0.37-0.35
		c-1.45,0.14-2.25,0.92-2.37,2.38c0,0,0.37-0.37,0.37-0.37c-1.45,0.13-2.25,0.92-2.37,2.37L1225.65,130.1z"/>
	<path class="st0" d="M2245.4,1794.13c1.28-3.83,5.4-5.43,6.31-8.84c3.15-0.66,5.12,0.2,7.17,2c-4.42,2.73-8.03,6.67-13.66,6.65
		L2245.4,1794.13z"/>
	<path class="st0" d="M1399.97,536.16c2,6.66-0.13,9.12-4.94,10.72C1392.83,541.76,1396.74,540.13,1399.97,536.16z"/>
	<path class="st0" d="M2205.35,1808.97c5.77-5.18,5.77-5.18,12.49-4.13C2214.11,1808.13,2214.11,1808.13,2205.35,1808.97z"/>
	<path class="st0" d="M996.64,551.18c-3.79-3.06-5.6-5.9-6.67-9.49C995.94,542.47,996.79,543.55,996.64,551.18z"/>
	<path class="st0" d="M1005.96,537.35c4.81,4.25,4.81,4.25,4.91,9.35C1006.11,545.6,1004.39,542.96,1005.96,537.35z"/>
	<path class="st0" d="M1409.8,550.21c-2.86-5.94,2.16-6.91,4.85-10.91C1415.74,545.38,1413.48,547.86,1409.8,550.21z"/>
	<path class="st0" d="M2302.68,1803.74c0.09,0.9,0.61,2.19,0.2,2.65c-2.37,2.69-5.17,4.78-10.38,5.39
		c3.17-4.53,7.17-5.75,10.44-7.88L2302.68,1803.74z"/>
	<path class="st0" d="M1259.67,167.27c-0.26-0.11-0.73-0.18-0.77-0.35c-0.94-4.18,1.37-7.9,1.35-11.96
		C1261.54,161.16,1261.54,161.16,1259.67,167.27z"/>
	<path class="st0" d="M1146.29,169.27c-1.23-5.92-3.25-9.77-2.14-14.22c2.27,1.11,1.28,3.59,2.3,5.26c0.81,1.33,0.85,3.16,1.07,4.79
		C1147.61,165.66,1147.2,166.3,1146.29,169.27z"/>
	<path class="st0" d="M1277.48,160.09c-2.43,3.79-5.94,5.47-11.83,6c4.3-3.85,8.17-4.84,12.1-5.71L1277.48,160.09z"/>
	<path class="st0" d="M2305.3,1801.67c2.47-1.15,4.25-3.61,7.08-4.05c0.9,1.62,0.42,3.16-0.74,3.42c-2.1,0.47-4.36,0.25-6.55,0.32
		L2305.3,1801.67z"/>
	<path class="st0" d="M1354.25,517.65c-2.52-2.3-3.37-4.55-0.09-7C1356.47,513,1357.57,515.24,1354.25,517.65z"/>
	<path class="st0" d="M1052.71,518.18c-4.32-3.46-3.3-5.4-0.46-7.36C1054.5,513.01,1053.47,515.07,1052.71,518.18z"/>
	<path class="st0" d="M1131.56,162.29c1.99-0.21,3.91,0.01,5.62,1.11c0.69,0.44,1.69,0.79,1.18,2.63c-2.72-0.45-5.31-0.89-6.59-3.98
		L1131.56,162.29z"/>
	<path class="st0" d="M2275.97,1823.36c-0.19-0.48-0.67-1.21-0.52-1.39c0.55-0.63,1.27-1.17,2.03-1.53c0.22-0.1,1.18,0.66,1.13,0.82
		C2278.2,1822.49,2277.37,1823.31,2275.97,1823.36z"/>
	<path class="st0" d="M2145.7,1819.01c-1.43,0.86-2.81,1.13-4.15-0.18C2142.98,1817.81,2144.35,1817.72,2145.7,1819.01z"/>
	<path class="st0" d="M2164.11,1816.82c-1.14,1.11-2.27,0.87-3.49,0.61c-0.83-1.63,0.69-2.06,1.54-2.19
		C2162.72,1815.16,2163.44,1816.24,2164.11,1816.82z"/>
	<path class="st0" d="M1059.98,331.05c-0.28,0.07-0.79,0.13-0.79,0.2c0.01,0.96,0.3,1,0.79,0.14L1059.98,331.05z"/>
	<path class="st0" d="M1344.98,329.37c0.74,0.97,1.49,1.93,2.23,2.9l0.13,0.21c-0.83-1.1-1.67-2.19-2.5-3.29
		C1344.85,329.19,1344.98,329.37,1344.98,329.37z"/>
	<path class="st0" d="M1062.21,327.26c-1.57,0.77-2.38,2-2.23,3.79l0,0.33c0.71-1.32,1.41-2.64,2.12-3.96
		C1062.1,327.42,1062.21,327.26,1062.21,327.26z"/>
	<path class="st0" d="M1344.85,329.19c0.75-0.79,0.1-1.42-0.24-2.09c0.12,0.76,0.25,1.52,0.37,2.27
		C1344.98,329.37,1344.85,329.19,1344.85,329.19z"/>
	<path class="st0" d="M1062.1,327.42c0.09-0.72,0.18-1.45,0.27-2.17c-0.05,0.67-0.1,1.34-0.15,2.01L1062.1,327.42z"/>
	<path class="st0" d="M1126.76,161.21c1.74-0.25,3.67-1.35,4.81,1.08l0.21-0.24c-1.64-0.33-3.29-0.66-4.93-0.99L1126.76,161.21z"/>
	<path class="st0" d="M1539.32,1220.37c-0.8-1.42-1.85-2.75-1.7-4.53l-0.19,0.18c1.84,0.85,1.2,2.75,1.76,4.15L1539.32,1220.37z"/>
	<path class="st0" d="M867.07,1217.04c-0.05,0.51-0.09,1.02-0.14,1.54c0.14-0.2,0.4-0.41,0.38-0.59c-0.03-0.27-0.25-0.51-0.4-0.76
		C866.91,1217.23,867.07,1217.04,867.07,1217.04z"/>
	<path class="st0" d="M1379.32,1443.99c0.55,0.9,0.24,1.69-0.41,2.36c-0.05,0.05-0.94-0.44-0.96-0.71
		c-0.06-1.01,0.47-1.61,1.57-1.48L1379.32,1443.99z"/>
	<path class="st0" d="M2114.87,1820.73c0.28-0.1,0.58-0.33,0.83-0.28c0.92,0.18,1.02,0.61,0.25,1.03c-0.21,0.11-0.62-0.01-0.87-0.14
		C2114.94,1821.26,2114.94,1820.94,2114.87,1820.73z"/>
	<path class="st0" d="M1236.22,120.47c-0.29,0.67-0.58,1.34-0.88,2.01c0,0,0.34-0.36,0.34-0.36c-1.44,0.01-2.88,0.02-4.32,0.02
		c0,0,0.16,0.25,0.16,0.25c0.8-2.43,2.74-1.68,4.44-1.61L1236.22,120.47z"/>
	<path class="st0" d="M1911.15,1591.79c-0.14,0.37-0.27,0.73-0.41,1.1c-0.02-0.17-0.11-0.42-0.03-0.5c0.18-0.18,0.44-0.26,0.67-0.39
		L1911.15,1591.79z"/>
	<path class="st0" d="M1303.56,554.08c-0.7,0.5-1.41,1.66-2.09-0.02c0,0-0.15,0.25-0.15,0.25c0.78,0.02,1.56,0.03,2.35,0.05
		L1303.56,554.08z"/>
	<path class="st0" d="M1315.37,554.29c1.44-0.07,2.11,0.6,1.98,2.04c0,0,0.2-0.2,0.2-0.2c-1.41,0.07-2.16-0.52-2.01-2.01
		C1315.54,554.12,1315.37,554.29,1315.37,554.29z"/>
	<path class="st0" d="M1849.32,1615.97c0.08,0.75-0.16,1.05-0.71,0.87c-0.03-0.01,0.01-0.49,0.12-0.55
		c0.21-0.12,0.51-0.09,0.77-0.13C1849.5,1616.16,1849.32,1615.97,1849.32,1615.97z"/>
	<path class="st0" d="M1037.49,612.73c-0.78-1.08,0.81-1.11-0.27-0.37c-0.42,0.28,0.01,0.71,0.48,0.1L1037.49,612.73z"/>
	<path class="st0" d="M1087.79,1278.86c0.07-0.07,0.14-0.14,0.21-0.2C1088,1278.65,1087.79,1278.86,1087.79,1278.86z"/>
	<path class="st0" d="M2227.46,1630c-0.75,0.1-1.06-0.13-0.88-0.69c0.01-0.03,0.49,0,0.55,0.11c0.12,0.21,0.1,0.51,0.15,0.77
		C2227.28,1630.18,2227.46,1630,2227.46,1630z"/>
	<path class="st0" d="M849.03,813.4c-0.08,0.08-0.17,0.16-0.25,0.25C848.78,813.64,849.03,813.4,849.03,813.4z"/>
	<path class="st0" d="M1567.32,844.26c0.87-0.12,1.21,0.16,0.97,0.82c-0.02,0.04-0.58,0.01-0.66-0.12
		c-0.13-0.25-0.09-0.59-0.12-0.89C1567.51,844.07,1567.32,844.26,1567.32,844.26z"/>
	<path class="st0" d="M895.47,1661.8c-0.17,0.12-0.34,0.25-0.51,0.37c0.57,0.47,0.67,0.4,0.3-0.21L895.47,1661.8z"/>
	<path class="st0" d="M1442.44,1668.8c0.28-0.07,0.57-0.14,0.85-0.21c-0.2,0.06-0.4,0.12-0.61,0.18L1442.44,1668.8z"/>
	<polygon class="st0" points="1271.74,1065.7 1271.81,1066.21 1271.62,1065.46 	"/>
	<polygon class="st0" points="1403.94,1707.64 1403.54,1707.99 1404.17,1707.46 	"/>
	<path class="st0" d="M1389.11,1341.35c-0.07,0.07-0.14,0.14-0.22,0.2L1389.11,1341.35z"/>
	<path class="st0" d="M1139.83,1163.87c-0.37-0.11-0.74-0.23-1.11-0.34c0.16-0.01,0.38-0.1,0.45-0.02c0.18,0.16,0.29,0.4,0.42,0.61
		C1139.6,1164.13,1139.83,1163.87,1139.83,1163.87z"/>
	<path class="st0" d="M1162.45,1753.3c-0.31,0.1-0.61,0.2-0.92,0.31c0.23-0.08,0.46-0.15,0.68-0.23L1162.45,1753.3z"/>
	<path class="st0" d="M1187.18,85.98c0.17,0.05,0.33,0.11,0.5,0.16c-0.1-0.13-0.19-0.26-0.29-0.39c-0.14,0.14-0.28,0.28-0.43,0.41
		C1186.96,86.18,1187.18,85.98,1187.18,85.98z"/>
	<path class="st0" d="M1172.1,119.92c-1.19-0.61,0.62-0.85-0.54-0.23c-0.42,0.22-0.13,0.57,0.31-0.01L1172.1,119.92z"/>
	<path class="st0" d="M1539.19,1220.16c0.63,1.18-0.98,0.68,0.31,0.52c0.64-0.08,0.52-0.62-0.18-0.31L1539.19,1220.16z"/>
	<path class="st0" d="M1235.98,120.79c0.22-1.32,1.19,0.06,0.07-0.62c-0.39-0.24-0.6,0.29,0.17,0.3L1235.98,120.79z"/>
	<path class="st0" d="M1027.14,1446.37c0.37,0.11,0.74,0.22,1.11,0.33c-0.15,0.01-0.37,0.1-0.45,0.03c-0.18-0.16-0.29-0.4-0.43-0.61
		C1027.37,1446.12,1027.14,1446.37,1027.14,1446.37z"/>
	<path class="st0" d="M1125.4,156.11c-0.04,0.73-0.08,1.46-0.12,2.2l0.25-0.24c-1.3-0.01-1.99-0.64-1.98-1.97
		c0,0-0.25,0.25-0.25,0.25c0.79-0.01,1.58-0.01,2.37-0.02C1125.66,156.34,1125.4,156.11,1125.4,156.11z"/>
	<path class="st0" d="M2302.94,1803.91c0.79-0.74,1.57-1.49,2.36-2.23l-0.2-0.31c-0.59,1.02-1.08,2.13-2.42,2.38L2302.94,1803.91z"
		/>
	<path class="st0" d="M1125.28,158.31c1.76,0.32,1.73,1.56,1.48,2.9l0.09-0.15c-0.44-1-0.88-1.99-1.32-2.99
		C1125.53,158.08,1125.28,158.31,1125.28,158.31z"/>
	<path class="st0" d="M1347.22,332.27c0.11,0.2,0.22,0.41,0.32,0.61c0.58-0.57,0.52-0.7-0.19-0.4
		C1347.35,332.48,1347.22,332.27,1347.22,332.27z"/>
	<path class="st0" d="M1115.56,342.37c0.31-1.3-1.04-0.14,0.19-0.63c0.39-0.16,0.41,0.35-0.39,0.43L1115.56,342.37z"/>
</g>
</svg>
