<?xml version="1.0" encoding="utf-8"?>
<!-- Generator: Adobe Illustrator 24.1.2, SVG Export Plug-In . SVG Version: 6.00 Build 0)  -->
<svg version="1.1" id="Layer_1" xmlns="http://www.w3.org/2000/svg" xmlns:xlink="http://www.w3.org/1999/xlink" x="0px" y="0px"
	 viewBox="0 0 1749.87 1414.65" style="enable-background:new 0 0 1749.87 1414.65;" xml:space="preserve">
<style type="text/css">
	.st0{fill:#1A1A1A;}
</style>
<g>
	<path d="M72.88,468.36c-2.34-1.89-5.05-3.46-6.97-5.71c-9.98-11.65-5.79-28.48,8.48-34.53c7.96-3.37,16-6.56,23.95-9.94
		c2.4-1.02,5.08-1.7,6.67-4.04c0.04-0.69,0.26-1.38,0.08-1.95c-3.5-11.03,0.36-18.78,10.45-23.86c1.48-0.74,2.83-1.75,4.22-2.66
		c2.86-1.89,4.43-4.16,5.05-7.95c1.72-10.49,4.46-20.79,8.06-30.83c5.79-16.14,16.27-28.87,28.94-40c1.49-1.31,3.3-2.24,4.33-4.61
		c0.05-3.8-2.85-6.95-4.03-10.69c-7.91-24.89-21.27-47.26-32.9-70.42c-5.67-11.29-11.6-22.44-17.71-33.5
		c-5.17-9.36-6.86-19.18-5.49-29.71c1.5-11.51,2.79-23.06,4.24-34.58c0.29-2.29,0.55-4.69,1.44-6.79
		c9.76-22.95,22.61-43.77,42.53-59.41c13.59-10.67,29.11-17.35,46.08-20.32c7.83-1.37,15.82-1.92,23.77-2.43
		c6.2-0.4,12.4,0.01,19.16,3.95c-5.62,3.73-8.85,8.26-12.5,12.44c-1.74,1.99-3.33,4.18-4.64,6.48c-4.29,7.54-2.63,11.67,5.86,13.76
		c5.79,1.43,11.69,2.69,17.62,3.17c20.56,1.67,41.2,3.35,61.79,1.87c12.18-0.88,24.2-4.12,36.27-6.38c2.71-0.51,4.77-2.19,6.49-4.34
		c14.03-17.55,33.19-28.75,51.9-40.01c20.59-12.39,43.26-20.67,67.18-24.17c17.95-2.63,35.92-0.8,53.41,3.92
		c5.95,1.6,11.43,4.95,17.03,7.46c-0.54,4.12-3.65,4.26-5.92,5.05c-3.75,1.31-7.74,1.94-11.5,3.23
		c-7.15,2.45-14.72,10.33-18.15,18.48c1.73,1.64,3.67,0.87,5.56,0.46c28.27-6.09,56.77-10.56,85.54-13.64
		c19.87-2.13,39.71-3.2,59.68-3.27c11.31-0.04,22.65-1.08,33.91,0.21c15.91,1.82,31.91,1.17,47.81,2.18
		c16.61,1.06,33.26,0.67,49.81,1.92c14.28,1.08,28.59,0.81,42.81,2.01c6.91,0.58,13.85,1.43,20.73,2.44
		c4.68,0.68,9.45,1.35,13.89,0.52c9.93-1.86,19.92-0.95,29.86-1.59c15.91-1.02,31.89-1.26,47.84-1.52
		c23.65-0.38,47.3-0.38,70.95-0.73c23.04-0.34,45.83,1.91,68.22,7.21c6.24,1.48,12.48,0.83,18.72,2.26
		c22.09,5.06,43.6,11.9,64.86,19.66c53.51,19.51,105.09,43.5,156.68,67.43c29.58,13.72,59.02,27.77,88.27,42.17
		c33.17,16.33,65.06,35.01,96.24,54.84c11.2,7.12,22.04,14.88,32.28,23.47c7.62,6.4,16.21,11.63,24.2,17.61
		c17.87,13.36,34.52,28.19,50.98,43.2c22.13,20.19,44.3,40.37,65.08,61.96c21.91,22.77,43.89,45.52,61.89,71.7
		c2.12,3.08,4.64,5.83,2.12,9.77c-0.32,0.5-1.02,0.76-1.54,1.13c-2.25,0.34-3.64-1.12-5.26-2.33
		c-23.71-17.66-49.93-30.42-77.85-39.92c-10.7-3.64-21.23-7.79-31.72-12c-4.59-1.84-9.19-3.88-13.88-8.07
		c0-7.53,0.01-15.8-0.01-24.08c-0.01-3.98-0.49-7.91-0.94-11.87c-0.66-5.81-3.57-8.85-8.6-10.99c-8.71-3.7-17.57-5.95-27.16-5.21
		c-9.3,0.71-16.38,4.54-21.29,12.69c-6.21,10.3-8.49,21.71-9.14,33.32c-0.59,10.59-1.2,21.22-0.45,31.92
		c1.34,19.19,6.25,37.37,13.96,54.79c7.54,17.03,15.12,34.06,24.84,50.03c6.57,10.8,12.97,21.69,20.44,31.92
		c14.32,19.62,29.16,38.9,42.6,59.1c19.17,28.82,39.68,56.73,57.95,86.16c17.84,28.74,31.16,59.46,40.95,91.78
		c0.99,3.28,1.54,6.46-0.13,9.76c-3.8,1.64-5.34-1.32-7.06-3.63c-3.97-5.34-7.56-10.99-11.8-16.09
		c-13.48-16.24-29.39-29.87-46.61-41.96c-11.44-8.03-23.11-15.72-34.65-23.61c-1.92-1.31-3.68-2.84-5.52-4.27
		c-5.82-4.54-7.43-10.19-6.36-17.63c1.84-12.82,1.87-25.8,1.51-39.06c-24.83-11.56-49.63-21.55-77.46-20.61
		c-8.32,0.28-16.68-0.24-24.99,0.13c-7.28,0.33-14.6,0.97-21.78,2.21c-18.89,3.28-30.34,15.61-37.53,32.46
		c-5.25,12.3-8.07,25.34-10.41,38.45c-4.39,24.62-3.36,48.98,3.92,73.02c1.93,6.36,3.55,12.82,5.14,19.28
		c3.54,14.45,10.94,26.91,18.99,39.25c18.05,27.67,32.94,57.03,44.57,87.98c4.21,11.19,7.96,22.56,10.52,34.26
		c0.96,4.4,2.11,9.03-0.06,13.73c-4.19,0.22-5.39-2.94-6.98-5.17c-7.9-11.13-16.43-21.76-25-32.38
		c-9.53-11.82-21.18-21.08-33.52-29.65c-10.39-7.21-20.75-14.47-31.13-21.72c-1.64-1.14-3.44-2.12-4.85-3.49
		c-2.49-2.43-3.54-5.08-2.49-8.95c2.42-8.94,4.27-18.05,6.09-27.14c1.04-5.2,1.85-10.5,0.27-16.58
		c-13.49-7.56-27.25-15.64-41.33-23.11c-35.17-18.67-72.78-30.85-111.12-40.99c-16.96-4.48-34.11-4.1-51.46-2.6
		c-11.93,1.03-22.78,4.18-32.9,10.4c-3.14,1.93-6.14,3.96-8.74,6.91c1.75,4.87,8.82,4.81,9.75,10.36c-1.89,3.32-5.32,3.78-8.5,4.55
		c-1.93,0.47-3.95,0.63-5.94,0.77c-9.73,0.69-17.15,4.6-20.4,15.04c3.42,5.44,10.12,7.56,15.12,11.73
		c4.82,4.02,10.51,7.03,14.62,11.95c1.84,2.2,4.45,2.84,6.88,3.86c7.32,3.11,14.44,7.48,22.08,8.83c7.83,1.38,15.65,2.84,23.45,4.4
		c8.5,1.7,16.65,4.46,24.79,7.46c8.65,3.18,15.81,8.48,22.6,14.38c3.83,3.33,7.02,7.23,5.22,13.64c-8.12,1.37-16.35-4.65-25.05-0.7
		c7.09,10.31,17.86,18.46,17.53,32.7c4.71,5.44,10.37,9.83,17.16,12.87c6.4,2.87,12.19,6.82,17.33,11.63
		c1.88,1.76,4.29,3.41,3.47,6.63c-1.87,2.58-5.11,0.78-7.43,2.51c0.19,0.81,0.09,2.03,0.66,2.64c7.79,8.35,11.34,18.57,13.4,29.52
		c1.05,5.6,3.4,10.63,6.36,15.57c6.88,11.5,11.6,24.06,14.28,37.1c2.42,11.8,6.25,23.05,9.97,34.42c5.08,15.51,8.33,31.37,9.28,47.8
		c0.52,8.96,1.44,17.91,1.02,26.86c-0.99,20.99-4.48,41.63-11.29,61.53c-8.42,24.58-22.27,46-39.89,65.01
		c-4.96,5.35-9.87,10.77-15.08,15.87c-17.85,17.45-39.25,29.51-61.5,40.28c-14.98,7.25-30.42,13.45-46.24,18.45
		c-10.4,3.29-21.29,5.21-32.07,7.1c-20.6,3.6-41.23,7.12-61.96,9.89c-11.82,1.58-23.84,1.91-35.79,2.26
		c-12.65,0.37-25.33,0.13-37.99,0.06c-5.97-0.03-11.96,0.51-17.87-1.16c-1.86-0.52-3.99-0.37-6.34,1.08
		c-2.58,5.87-1.27,12.68-1.53,19.12c-0.35,8.53-3.88,15.36-8.4,21.99c-2.1,3.08-5.04,5.67-8.69,6.38c-6.16,1.2-12.48,2.51-18.7,2.35
		c-11.56-0.29-22.76-2.84-33.23-9.37c-9.65,5.26-20.27,7.66-31.29,7.98c-6.97,0.21-14.04,0.34-20.92-0.56
		c-8.87-1.16-16.89-4.32-19.22-14.8c-3.79,0.78-7.32,1.34-10.75,2.26c-3.31,0.89-6.63,1.16-9.84,0.15
		c-4.89-1.54-9.85-1.83-14.82-1.12c-5.14,0.73-8.28-1.64-10.4-5.88c-4.4-8.8-4.9-17.9-1.34-27.05c2.7-6.94,6.97-12.81,12.94-17.44
		c2.24-1.74,5.3-2.82,6.3-6.87c-10.48-2.12-20.76-4.27-31.08-6.27c-25.8-4.99-51.46-10.6-76.61-18.22
		c-7.51-2.27-12.74-0.54-17.66,4.92c-3.12,3.46-6.12,8.16-10.1,9.45c-7.68,2.49-11.34,8.36-15.77,13.93
		c-1.22,1.53-2.82,2.88-4.49,3.91c-10.46,6.46-22.2,9.93-34.13,8.76c-8.05-0.79-15.37,0.13-22.35,2.84
		c-12.57,4.87-25.38,4.6-38.38,3.92c-6.28-0.33-11.75-2.11-15.8-7.65c-2.15,1.18-4.08,2.43-6.15,3.35c-5.79,2.55-8.01,1.33-9.74-5.2
		c-0.17-0.63-0.13-1.31-0.31-1.93c-0.08-0.27-0.46-0.46-1.43-1.35c-4.23-1.86-9.75-3.36-13.39-7.13c-6.76-0.4-11.37,5.68-17.75,3.93
		c-0.84-0.23-1.49-1.17-2.67-2.14c2.98-10.79,7.54-20.52,17.82-26.3c8.43-4.74,15.98-10.72,23.9-16.19
		c4.09-2.82,8.28-5.91,13.39-6.35c5.46-0.48,10.25-1.97,14.33-5.74c2.18-2.02,4.94-1.47,7.62-1.27c2.3,0.17,4.69,0.17,6.49-3.06
		c-8.37-1.61-16.29-3.23-24.25-4.64c-25.84-4.56-51.66-9.26-77.56-13.45c-15.39-2.49-30.82-5-46.56-4.54
		c-11.99,0.35-24,0.14-35.99,0.05c-20.43-0.15-40.64,2.81-60.02,8.45c-16,4.66-30.31,13.77-39.22,29.01
		c-3.06,5.23-2.65,7.02,1.88,11.21c5.9,5.47,13.46,7.23,20.95,8.6c9.8,1.79,19.71,3.32,29.74,2.71c11.7-0.71,23.22,1.2,34.79,2.22
		c2.25,0.2,4.42,1.28,6.54,1.93c0.05,3.45-2.66,3.84-4.63,4.59c-2.78,1.06-5.72,1.82-8.66,2.31c-18.01,3.02-36.1,6.01-54.37,6.13
		c-12.87,0.08-25.74-1.5-39.29-2.38c-2.71,4.43-2.9,10.29-5.03,15.41c-2.21,5.29-4.06,10.12-2.16,16.13
		c1.39,4.4-0.89,8.56-4.79,11.22c-6.08,4.14-9.36,9.96-11.25,16.91c-2.82,10.31-11.37,13.2-20.47,14.74
		c-4.56,0.77-9.3,0.41-13.96,0.6c-1.72,0.07-3.2-0.44-4.72-1.25c-4.09-2.18-8.27-4.18-12.88-6.49c-9.77,4.79-20.51,6.33-31.61,5.87
		c-4.05-0.17-7.8,2.35-12.29-0.15c-3.22-1.8-6.6-3.26-8.84-6.15c-2.78-3.58-6.07-4.97-10.43-3.9c-6.58,1.61-13.14,1.7-19.47-0.88
		c-2.81-1.15-4.98,2.31-7.8,0.23c-5.92-13.64-4.19-26.35,7.24-36.85c10.26-9.42,21.84-15,37.24-8.71c-1.35-4.2-3.87-7.13-4.03-11.1
		c-0.45-10.91,3.97-19.35,11.65-26.46c4.91-4.54,10.29-8.48,16.44-11.2c4.74-2.1,8.28-5.22,10.52-10.06
		c1.96-4.22,4.71-7.97,8.59-10.84c2.46-1.82,4.14-4.33,3.45-7.76c-1.5-7.42,2.3-12.91,7.15-17.62c1.96-1.9,3.01-3.81,2.32-6.04
		c-1.92-6.22-0.62-12.6-1.41-18.85c-2.83-22.4-5.64-44.81-10.21-66.95c-3.9-18.92-2.72-37.7,1.16-56.44
		c0.61-2.93,1.08-5.91,1.97-8.75c1.38-4.39,0.52-8.16-1.31-12.39c-5.86-13.55-8.08-28.02-9.29-42.63c-0.36-4.28-0.51-8.39-1.9-12.67
		c-1.49-4.58-0.85-9.84-1.14-14.84c-1.77-0.14-1.98,1.5-2.13,2.41c-1.35,8.17-3.9,16.46-3.38,24.55c0.58,9.17-3.01,17.48-2.99,26.39
		c0,2.94-0.7,5.91-0.13,8.89c2.06,10.66,1.46,21.26-1.64,31.57c-2.7,9.01-3.24,18.32-4.47,27.49c-0.84,6.32-1.84,12.4-4.05,18.38
		c-2.3,6.22-4.13,12.62-6.08,18.96c-3.83,12.47-9.26,24.25-15.66,35.56c-2.48,4.38-4.53,8.88-6.18,13.6
		c-0.18,2.26,1.83,3.45,2.55,5.23c1.55,3.85,2.34,7.89-1.17,11.08c-4.09,3.71-4.77,8-2.36,12.61c2.79,5.36,0.97,9.88-0.81,15.12
		c-3.81,11.22-8.51,22.31-8.69,34.51c-0.28,19.06-10.2,31.85-26.94,39.57c-3.22,1.48-5.43,3.68-7.79,5.83
		c-6.95,6.35-14.9,8.88-24.36,9.62c-12.8,0.99-25.92,0.81-38.22,5.71c-6.59,2.63-13.83,2.67-20.62,2.72
		c-7.86,0.06-15.72-2.49-21.57-8.35c-8.42,4.53-16.27,0.97-24.06-0.65c-3.76-0.78-5.4-4.6-7.51-7.85c-3.1,1.19-6.1,2.35-8.75,3.36
		c-3.22-1.81-2.81-4.25-2.08-6.42c2.71-7.99,6.65-15.33,13.36-20.67c7.53-5.99,15.28-11.7,23.02-17.42
		c5.63-4.17,11.72-6.01,18.69-3.4c2.79,1.04,5.82,1.42,8.67,2.3c5.5,1.7,10.42,0.73,15.11-2.83c0.38-1.94,0.9-3.87,1.12-5.84
		c0.51-4.55,2.59-7.25,7.46-7.8c5.07-0.57,7.95-3.76,10.1-8.45c3.6-7.85,7.96-15.35,12.01-23c4.04-7.63,8.09-15.26,12.2-22.99
		c-1.71-3.3-3.39-6.53-4.99-9.61c0.64-3.65,3.71-4.88,6.06-6.5c3.82-2.63,4.75-6.14,4.29-10.33c-1.64-14.83-3.35-29.66-4.98-44.49
		c-1.2-10.9-0.16-21.94-1.99-32.82c-0.84-4.99,1.24-9.84,1.18-14.51c-0.5-0.89-0.67-1.73-1.16-2c-5.5-3.05-7.18-7.5-5.31-13.47
		c1.33-4.24,1.23-8.77,0.36-12.89c-2.6-12.39-0.56-24.53,1.26-36.65c1.2-8.01,1.58-15.8-0.73-23.65
		c-2.26-7.69-3.05-15.64-3.68-23.58c-0.61-7.66-2.08-15.09-4.8-22.18c-17.08-10.99-23.25-21.49-20.62-35.26
		c5.29-3.86,10.78,1.89,16.1,0.09c2.21-3.14,1.14-6.57,1.34-9.82c0.24-3.98-0.51-8.22,0.61-11.91c1.65-5.49-0.46-8.88-4.19-12.2
		c-4.76-4.23-8.76-9.14-12.07-14.56c-2.47-4.05-4.27-8.32-2.1-12.95c2.87-3.43,7.33-0.76,10.83-3.47
		c-1.94-18.79-1.9-37.84,3.01-56.2c-1.55-1.17-2.49-0.76-3.26-0.27c-7.66,4.89-13.94,1.68-19.8-3.42c-3.25-2.83-6.16-6.04-9.4-8.89
		c-6.33-5.55-8.66-12.51-6.98-20.59c0.9-4.34,0.55-8.61,0.64-12.92c0.03-1.27-0.1-3.29-0.85-3.7c-5.73-3.16-4.64-8.12-3.34-13.09
		c-1.43-1.36-2.63-2.47-3.8-3.62c-3.21-3.16-4.44-6.57-1.45-10.61c2.18-2.94,1.88-5.96,0.93-9.45c-2.45-8.97-4.64-18.04-6.4-27.17
		c-1.05-5.45-2.24-10.95-1.28-16.72c0.46-2.79,0.6-5.96-0.87-8.81c-2.51-4.86-0.55-8.24,3.73-10.83c1.41-0.85,2.73-1.87,4.54-3.14
		c-0.64-3.36-0.75-6.83,2.35-9.73c1.92-1.8,2.41-4.29,1.97-7.3c-2.76-18.76-0.31-37.04,5.82-54.84c-0.87-2.9-2.02-5.7-2.5-8.62
		c-0.36-2.2-0.92-5.15,1.3-6.52c5.39-3.32,4.38-8.72,4.4-13.4c0.05-8.53,1.71-16.61,5.57-24.07c4.17-8.06,6.68-16.47,8.32-25.36
		c1.32-7.18,3.98-14.06,7.51-20.55c1.9-3.49,3.5-7.13,5.16-10.55c-1.52-2.5-3.82-2.95-5.97-3.76c-12.31-4.64-15.45-9.49-14.7-22.49
		c0.04-0.66-0.07-1.32-0.11-1.98C72.46,469.62,72.67,468.99,72.88,468.36z M685.93,1204.89c-1.14-0.86-1.61-1.45-2.2-1.61
		c-17.39-4.73-33.9-11.88-50.51-18.69c-17.9-7.33-35.32-15.75-49.49-29.35c-6.46-6.2-12.2-13.15-19.65-18.29
		c-7.18-4.96-12.26-12.11-18.49-18.4c-4.98,3.02-7.78,8.62-14.17,10.09c-5.03-6.62-8.71-12.79-4.22-22.21
		c4.25-8.9,3.86-19.27,4.99-28.74c-1.96-1.19-4.11-1.72-4.54-2.88c-2.53-6.87-4.91-13.85-0.95-21.08
		c3.67-6.71,7.25-13.48,10.89-20.21c2.64-4.9,4.88-9.9,5.11-15.76c-9.49,0.9-9.46,0.94-16.18,5.39c-1.93,1.28-4.06,2.25-6.14,3.3
		c-11.13,5.63-23.39,7.39-35.32,10.3c-4.89,1.19-9.86,2.09-14.81,1.39c-4.67-0.66-9.22-0.18-13.79,0.26
		c-10.02,0.97-19.97,0.95-29.74-1.69c-7.51-2.03-15.05-2.2-22.35-1.44c-2.54,2.74-4.79,5.15-7.01,7.58
		c-1.48,1.62-3.58,2.64-5.38,1.84c-6.92-3.08-14.43-1.08-21.44-2.89c-1.99-0.52-3.84-1.22-5.75,1.06c0.14,4.9,1.12,10.53-0.97,15.29
		c-2.23,5.09-1.6,9.58-0.46,14.5c1.95,8.44,2.92,16.98,0.52,25.52c-3.09,11.02-3.45,22.27-3.38,33.61
		c0.06,9.65-0.35,19.3-0.65,28.95c-0.06,1.98-0.35,3.98-0.81,5.9c-5.41,22.94-9.88,46.12-17.43,68.52
		c-0.72,2.14-2.26,4.22-0.53,6.58c2.73-0.33,4.83-2.05,7.17-3.25c15.09-7.75,30.2-15.21,46.49-20.48
		c37.12-12.02,75.53-14.76,113.99-16.92c21.93-1.23,43.96-0.99,65.94-0.71c12.93,0.17,25.91,1.2,38.75,2.82
		c12.5,1.57,24.84,4.46,37.27,6.63c11.68,2.04,23.39,3.91,36.44,6.07C684.61,1211.5,685.81,1207.92,685.93,1204.89z M879.74,968.28
		c-2.52,7.02-4.76,13.58-7.23,20.04c-2.5,6.53-4.98,13.05-6.35,19.94c-1.32,6.65-6.01,12.32-6.25,19.92
		c8.95-0.36,17.09,0.94,25.22,2.84c21.47,5.01,35.79,18.34,44.47,38.03c5.1,11.56,9.43,23.45,14.07,35.21
		c3.92,9.93,8.19,19.67,14.46,28.39c2.53,3.51,5.28,6.73,9.37,7.92c4.26-1.88,5.35-5.56,6.67-8.88c2.48-6.2,3.87-12.66,4.4-19.37
		c0.43-5.47,0.59-11.16,3.69-15.8c1.21,0,2.12-0.28,2.47,0.04c8.99,8.11,12.66,19.82,19.82,30.48c1.77-4.62,3.05-8.27,4.55-11.82
		c2.22-5.25,2.4-5.28,10.4-4.52c4.91,11.88,7.95,24.5,9.75,37.28c1.81,12.81,2.55,25.75,2.73,38.75
		c0.18,12.91-2.88,25.51-3.17,38.92c5.18,0.63,9.51,1.34,14.1-0.76c3.89-1.78,8.12-3.04,12.33-3.86c4.64-0.91,8.58-2.91,12.99-5.62
		c-3.56-5.01-6.67-9.73-10.12-14.18c-3.54-4.56-10.59-5.21-13.65-10.86c10.02-5.89,19.5-2.69,28.8-0.81
		c8.24,1.67,15.53,5.65,22.35,10.65c2.79,2.05,5.59,4.49,9.93,3.56c10.05-2.14,20.2-3.77,30.01-5.56
		c8.18-10.41,16.08-20.48,23.97-30.53c-6.58-5.37-15.06-4.74-21.33-9.19c4.3-8.06,7.06-9.15,31.73-12.75
		c1.15-4.02-0.2-7.82-1.84-11.37c-9.99-21.61-22-41.8-40.84-57.1c-9.57-7.77-19.19-15.44-30.5-20.63
		c-19.95-9.17-40.04-18-60.39-26.25c-29.32-11.88-59.54-21.04-89.82-30.09c-23.03-6.88-45.44-15.28-64.03-31.38
		C882.09,968.54,881.27,968.61,879.74,968.28z M742.98,1172.11c6.67-4.43,10.33-10.4,14.98-15.47c4.97-5.41,4.98-13.74,10.98-18.22
		c4.76,1.46,3.78,6.35,6.34,8.86c4.4,4.32,4.99,10.01,5.17,15.68c0.23,6.99-0.16,13.99,0.12,20.97c0.62,15.78-0.89,31.16-7.69,45.49
		c3.07,2.53,6.36,2.78,9.72,2.9c5.65,0.19,11.38-0.06,16.93,0.83c23.59,3.76,47.13,7.78,70.89,10.31
		c16.17,1.72,32.34,3.56,48.64,3.4c2.29-0.02,4.72,0.38,6.54-1.64c3.43-13.6,4.45-27.42,4.42-41.45c-0.02-6.8-2.5-10.57-8.63-12.71
		c-22.27-7.78-44.27-16.4-66.82-23.26c-21.89-6.67-42.42-15.48-60.39-29.78c-1.87-1.48-3.69-2.78-6.28-2.15
		c-5.18,1.26-9.78-0.83-14.48-2.5c-14.17-5.03-27.21-12.01-39.82-20.31c-8.68-5.71-14.36-12.45-16.58-22.42
		c-0.86-3.85-2.01-7.66-6.08-9.65c-5.4,3.51-10.53,7.24-16.04,10.3c-5.47,3.04-11.32,5.4-17.1,8.11
		c26.35,9.88,31.62,9.61,45.22,46.38c3.21-0.31,3.54-5.02,7.97-4.63C738.67,1149.05,739.92,1160.08,742.98,1172.11z M183.87,362.21
		c-1.41-5.97-2.47-11.52-4.06-16.92c-1.64-5.56-1.91-11.65-5.48-16.73c-7.25,7.01-10.18,23.01-7.47,39.21
		C173.71,370.33,179.21,368.51,183.87,362.21z M98.8,489.2c1.7,10.41,1.7,10.41,10.34,15.94c5.42-6.91,13.34-10.87,20.79-14.86
		c-2.22-6.52-7.01-5.72-11.07-5.14C112.1,486.11,105.45,487.82,98.8,489.2z"/>
	<path class="st0" d="M442.06,165.83c7.04-2.13,11.92-2.58,16.88-3c11.23-0.95,22.4-2.64,33.63-3.52c8.95-0.7,17.96-0.59,26.94-0.95
		c37.58-1.47,75.18-2.79,112.79-1.84c13.93,0.35,27.94-0.43,41.83,1.77c4.9,0.77,9.96,0.43,14.94,0.75
		c20.21,1.28,40.46,1.73,60.68,2.94c18.6,1.12,37.06,3.38,55.53,5.3c36.35,3.78,72.37,9.54,107.71,19.48
		c29.42,8.28,59.18,15.47,88.99,22.24c27.18,6.17,52.18,17.61,76.87,29.88c16.68,8.29,33.01,17.29,49.43,26.1
		c15.24,8.18,30.42,16.49,45.58,24.81c16.91,9.28,33.94,18.35,50.61,28.02c30.52,17.7,60.18,36.8,90.04,55.58
		c27.33,17.19,54.93,33.93,82.4,50.9c20.1,12.42,40.47,24.4,60.19,37.46c10.3,6.82,20.16,14.11,29.13,22.56
		c13.57,12.78,26.93,25.77,40.58,38.46c13.91,12.93,27.43,26.23,40.18,40.29c15.65,17.26,32.94,32.97,47.84,50.91
		c6.59,7.93,12.86,16.12,19.25,24.21c0.77,0.98,1.81,1.9,0.95,4.27c-2.9-1.18-5.91-2.25-8.79-3.58
		c-26.93-12.49-55.35-16.33-84.69-14.31c-7.94,0.54-15.87,0.48-23.84,1.51c-19.92,2.57-33.55,13.4-43.22,30.19
		c-1.65,2.87-3.06,5.94-4.17,9.06c-10.83,30.53-16.06,61.76-10.41,94.06c1.71,9.8,4.77,19.36,7.29,29.01
		c0.48,1.86,1.42,3.61,0.31,5.63c-2.77-1.21-3.99-3.65-5.5-5.77c-12.49-17.66-25.04-35.29-37.41-53.04
		c-15.62-22.41-32.95-43.47-50.7-64.18c-14.72-17.18-30.19-33.68-45.76-50.1c-10.31-10.88-20.7-21.68-31.43-32.13
		c-32.2-31.34-66.09-60.79-101.31-88.67c-40.95-32.41-82.12-64.53-123.18-96.79c-9.68-7.6-18.9-15.86-29.05-22.77
		c-9.31-6.34-19.32-11.81-29.48-16.72c-28.16-13.59-56.36-27.08-84.95-39.77c-35.26-15.65-70.82-30.52-106.68-44.75
		c-34.95-13.88-70.28-26.65-106.03-38.25c-45.87-14.88-92.3-27.84-138.87-40.3c-25.69-6.88-51.59-12.88-77.53-18.79
		C480.96,177.76,462.66,171.69,442.06,165.83z"/>
	<path class="st0" d="M1100.53,827.64c-5.06-4.28-8.99-6.93-12.07-10.35c-11.3-12.52-24.9-22.05-39.16-30.7
		c-17.63-10.68-35.38-21.3-54.96-28.08c-21.69-7.51-43.82-13.74-66.5-17.21c-21.95-3.35-43.04,1.08-63.11,10.33
		c-4.21,1.94-8.33,4.01-13.06,4.47c2.17-6.69,5.93-11.92,13.07-18.56c5.78-5.38,12.62-9.32,18.79-14.32
		c-5.99,0.79-11.32,2.97-15.92,6.86c-8.41,7.11-16.38,14.66-21.46,24.62c-1.95,3.82-4.61,5.18-8.55,4.52
		c-3.27-4.2,2.27-8.3,0.04-12.64c-3.44,4.22-3.33,9.28-4.14,13.26c-2.06,3.11-7.27-3.11-6.54,3.2c-2.16,0.76-3.29-0.13-4.24-0.94
		c-11.52-9.79-24.54-17.13-38.52-22.64c-13.97-5.5-28.8-7.95-43.48-10.77c-15.04-2.88-30.4-3.16-45.61-4.03
		c-10.14-0.58-20.53,0.35-30.82,1.15c-31.18,2.41-60.45,12.46-90.14,20.96c-6.07,1.74-12.13,3.55-18.1,5.63
		c-14.27,4.96-29.32,5.46-44.03,7.88c-4.91,0.81-9.88,1.32-14.79,2.13c-21.5,3.51-43.11,2.99-64.73,1.85
		c-17.48-0.92-18.97-7.41-18.61-20.63c0.22-8.04,3.41-14.67,8.51-20.74c6.02-7.16,12.96-13.32,19.67-19.78
		c10.28-9.9,19.51-20.92,30-30.58c9.33-8.6,17.8-17.88,26.25-27.28c12.07-13.42,22.05-28.32,32-43.28
		c10.33-15.55,19.11-31.94,26.99-48.85c2.23-4.79,5.29-9.19,7.67-13.27c9.59-4.69,18.98-1.76,28.02-1.25
		c39.61,2.23,77.42,11.83,112.98,29.73c0.59,0.3,1.22,0.53,1.81,0.84c3.05,1.62,6.5,3.21,9.09,0.06c2.49-3.04,0.46-6.5-1.37-9.22
		c-6.18-9.16-13.76-17.17-22.02-24.43c-27.79-24.41-59.34-42.55-93.94-55.48c-3.12-1.16-6.16-2.53-9.28-3.67
		c-10.82-3.97-16.39-12.22-18.22-23.1c-1.16-6.89-2.59-13.68-4.24-20.46c-3.42-14.07-9.16-27.17-17.14-39.12
		c-13.5-20.21-25.66-41.31-40.18-60.84c-20.44-27.5-40.47-55.31-62.67-81.47c-2.01-2.37-5.05-4.37-5.19-8.01
		c2.19-1.67,3.89-0.27,5.66,0.52c12.15,5.41,24.4,10.63,36.44,16.29c26.81,12.6,53.56,25.39,78.83,40.92
		c20.69,12.72,41.08,25.94,61.42,39.23c37.08,24.23,72.97,50.15,108.71,76.31c24.17,17.7,47.23,36.8,71,54.99
		c19.28,14.75,38.7,29.33,57.9,44.18c9.23,7.14,17.18,15.61,24.78,24.5c9.72,11.37,19.64,22.58,28.79,34.42
		c17.49,22.64,34.55,45.62,52.34,68.03c35.19,44.32,69.7,89.14,102.46,135.27c10.2,14.36,18.98,29.73,28.36,44.66
		C1099.77,823.5,1099.77,824.53,1100.53,827.64z"/>
	<path class="st0" d="M463.84,210.44c8.72,1.77,17.44,3.55,26.16,5.32c44.02,8.94,87.21,21.16,130.24,33.87
		c41.45,12.24,82.94,24.41,123.62,39.09c33.16,11.97,65.8,25.26,98.37,38.74c48.56,20.09,96.93,40.54,144.34,63.31
		c24.8,11.92,47.43,26.35,68.69,43.85c21.53,17.73,44.25,34.07,65.99,51.59c40.39,32.55,81.49,64.23,120.37,98.61
		c12.95,11.46,25.35,23.55,37.9,35.46c18.12,17.2,35.21,35.37,52.19,53.62c21.07,22.63,41.24,46.09,60.24,70.52
		c3.26,4.19,6.7,8.27,10.3,12.18c15.45,16.74,26.16,36.81,39.52,55.31c-3.08,1.56-4.75-0.7-6.47-1.76
		c-25.55-15.88-52.56-28.55-81.24-37.74c-18.36-5.89-36.49-12.58-55.36-16.74c-24.5-5.4-48.83-4.93-72.88,2.61
		c-2.21,0.69-4.48,1.42-6.5,2.52c-18.15,9.94-32.94,23.17-43.05,41.64c-7.5,13.7-11.65,27.95-12.68,43.53
		c-0.62,9.3-1.58,18.46,0.16,27.71c0.23,1.23-0.12,2.56-0.2,3.93c-2.55-0.67-2.98-2.79-3.86-4.52c-3.02-5.93-6.06-11.86-9.01-17.82
		c-25.04-50.52-54.33-98.38-88.15-143.56c-29.11-38.89-59.2-77.01-89.27-115.15c-13.59-17.24-27.49-34.23-41.06-51.48
		c-21.25-27.02-44.98-51.52-71.98-72.88c-28.44-22.48-56.69-45.21-84.84-68.04c-56.19-45.58-115.85-86.23-177.36-124.16
		c-34.58-21.32-70.79-39.68-108.22-55.57c-8.83-3.75-17.47-7.93-26.2-11.91C463.67,211.82,463.76,211.13,463.84,210.44z"/>
	<path class="st0" d="M450.01,127.86c5.92-5.01,13.19-7.29,20.41-9.19c27.65-7.25,55.56-13.36,83.79-17.88
		c28.51-4.57,57.02-9.16,85.59-13.36c17.4-2.56,34.89-4.49,52.36-6.5c23.4-2.7,46.79-5.45,70.23-7.73
		c14.21-1.38,28.55-1.43,42.73-2.97c14.87-1.61,29.86-0.79,44.68-3.04c5.22-0.79,10.64-0.31,15.96-0.5
		c20.26-0.75,40.52-1.32,60.76-2.38c31.59-1.65,63.21-1.21,94.81-1.28c13.63-0.03,27.12,1.97,40.68,2.86
		c13.01,0.85,25.68,3.42,38.44,5.5c18.11,2.95,35.42,8.87,52.41,15.67c25.01,10,50.18,19.61,74.87,30.35
		c31.09,13.53,61.85,27.85,92.59,42.18c28.34,13.21,56.54,26.72,84.66,40.38c21.25,10.32,41.72,22.13,62.34,33.66
		c18.59,10.4,36.78,21.49,54.51,33.28c10.5,6.99,20.25,15.09,30.5,22.47c12.7,9.14,24.61,19.24,36.2,29.72
		c4.39,3.97,8.35,8.43,13.67,13.86c-8.16-2.54-15.03-2.86-21.95-2.65c-13.82,0.41-26.32,9.39-31.36,22.33
		c-4.54,11.64-5.79,23.89-6.37,36.13c-1.01,21.68,0.64,43.1,6.88,64.13c3.33,11.22,7.45,22.06,12.46,32.53
		c9.04,18.88,17.35,38.17,29.2,55.59c0.55,0.81,1.13,1.65,0.23,2.88c-1.81,0.59-2.58-1.21-3.49-2.23
		c-15.25-17.18-31.74-33.1-48.62-48.66c-7.34-6.77-14.43-13.85-21.26-21.14c-20.44-21.79-44.24-39.25-69.53-54.87
		c-44.17-27.27-88.35-54.51-132.41-81.94c-48.3-30.07-97.08-59.33-146.5-87.53c-12.98-7.41-25.79-15.13-38.87-22.38
		c-20.68-11.46-42.62-20.28-64.1-30.07c-7.55-3.45-15.11-6.89-22.69-10.26c-17.38-7.72-35.47-13.2-54.23-16.23
		c-6.62-1.07-12.87-3.29-19.23-5.11c-32.28-9.27-65.25-15.49-97.99-22.73c-17.2-3.8-34.39-7.5-52-8.9
		c-9.91-0.79-19.86-1.47-29.69-2.93c-16.14-2.41-32.52-1.22-48.64-3.73c-4.58-0.71-9.29-0.78-13.94-0.76
		c-20.29,0.06-40.59-0.83-60.81-1.79c-23.95-1.14-47.88-2.12-71.8-1.43c-21.26,0.61-42.53,1.16-63.79,1.97
		c-19.89,0.76-39.76,2.34-59.6,3.96C464.87,127.72,457.64,128.58,450.01,127.86z"/>
	<path class="st0" d="M1254.21,1318.51c-3.17,0.99-4.8-1.55-7.46-3.5c-1.31,4.8-2.05,9.76-7.67,11.52
		c-2.64,0.82-4.26-0.27-6.22-1.36c-1.94,1.61-0.06,5.66-4.77,6.14c-5.83-12.28-5.15-27.64-15.04-39.52
		c-6.62,7.81-3.49,17.52-8.01,25.27c-4.29-1.48-2.14-8.19-6.94-9.48c-2.18,0.26-3.25,1.81-3.96,3.77
		c-2.61,7.24-4.19,14.67-4.35,22.4c-0.07,3.28,0.62,6.64-0.74,9.81c-1.92,0.59-3.77,1.48-5.75,0.4c-0.14-0.93-0.28-1.84-0.44-2.89
		c-4.15-1.51-7.18,3.23-11.33,2.13c-1.6-2.78-1.21-5.67-0.46-8.42c3.42-4.37,10.32-3.48,13.17-9.44
		c-6.73-2.06-10.61,2.43-14.99,4.91c-1.81,6.02-0.74,12.31-4,17.54c-2.73-0.31-2.29-1.83-2.12-3.58c1.05-11.2,1.97-22.4,2.32-33.7
		c-4.4,5.87-3.57,13.03-5.04,19.57c-1.43,6.38-2.08,12.92-3.04,19.15c-3.46,0.61-4.19-1.17-4.78-3.15
		c-2.26-7.65-4.53-15.3-6.81-22.94c-0.55-1.83-0.69-3.97-3.71-4.73c0.03,10.83,3.51,20.92,5.16,31.5c-1.29,0.68-2.42,1.26-3.44,1.8
		c-0.68-0.51-1.44-0.78-1.59-1.23c-1.61-5.06-2.87-10.25-4.76-15.2c-1.39-3.64-1.92-7.76-4.79-10.64c-2.91-0.33-3.72,1.62-3.98,3.6
		c-0.68,5.26-2.48,10.33-2.29,15.76c0.1,2.92-0.63,5.88-1.04,9.26c-3.98,1.13-7.73,2.03-12.27,1.2c0.93-4.31,6.81-4.3,7.15-9.07
		c-4.02-2.51-7.22,1.52-11.48,1.46c-1.24-4.99-0.26-9.12,4.9-11.94c2.28-1.25,4.81-2.4,5.94-5.21c-2.82-3.7-5.92,1.49-8.85-0.1
		c15.32-23.16,17.35-29.28,12.68-38.64c-6.08,0.83-9.76,5.14-13.27,9.53c-8.16,10.21-14.84,21.4-19.22,33.67
		c-2.24,6.28-5.91,10.08-12.41,12.82c-4.36-12.76-4.64-26.25-9.17-38.59c-2.4,0.13-2.92,1.51-2.69,3.37
		c1.64,13.13,3.31,26.27,4.99,39.6c-4.79,5.61-10.93,5.33-17.97,4.28c-6.68-13.09-14.52-25.83-15.9-40.85
		c0.81-0.91,1.17-1.72,1.68-1.84c23.09-5.22,43.51-16.23,63.02-29.15c10.53-6.97,21.57-13.31,30.06-22.98
		c0.82-0.94,1.89-2.21,3.33-1.58c5.99,2.6,7.27-1.98,7.78-5.76c0.76-5.61,3.58-9.97,6.7-14.27c6.88-9.49,12.35-19.68,16.19-30.79
		c2.39-6.9,6.02-13.46,7.65-20.51c3.68-15.91,5.18-31.85,1-48.23c-4.91-19.27-15.3-35.19-27.03-50.64
		c-6.08-8.01-13.2-14.84-21.23-20.8c-1.05-0.78-2.09-1.53-2.14-3.4c6.82-0.69,11.53,6.57,20.58,5.1
		c-32.92-17.72-66.99-28.14-98.56-43.12c-0.66-2.29,0.66-2.95,1.69-3.57c22.92-13.68,39.54-33.15,51.84-56.54
		c4.8-9.13,9.31-18.39,12.46-28.28c0.86-2.71,1.42-5.89,4.94-8.31c8.27,2.68,17.05,5.53,25.83,8.37c2.04,0.66,3.06,2.42,4.42,3.87
		c14.33,15.21,24.91,32.77,32.96,51.97c2.82,6.73,6.38,13.14,8.22,20.3c0.67,2.59,2.14,5.09,6.2,3.57
		c6.57-21.09-1.2-41.63-3.84-62.1c2.19-2.27,3.96-0.79,5.74-0.23c32.13,10.12,63.31,22.64,92.71,39.07
		c23.43,13.09,43.55,30.38,59.41,52.3c3.51,4.85,7.21,9.56,10.64,14.46c14.41,20.62,22.27,43.84,25.61,68.47
		c2.05,15.17,1.39,30.49-1.56,45.7c-5.8,29.96-17.8,57.06-37.16,80.6c-17.66,21.48-38.19,39.94-62.83,53.15
		c-6.22,3.33-12.61,6.56-18.15,9.92c-5.2-3.35,2.13-9.87-5.21-12.55c-0.71,3.95-2.51,7.28-4.92,10.26
		C1255.26,1317.66,1254.73,1318.09,1254.21,1318.51z M1234.08,1306.33c-0.45-2.17-1.8-3.63-3.98-3.66
		c-2.48-0.03-5.49,4.52-5.02,7.46c0.22,1.39,1.35,2.32,2.73,2.52C1230.57,1313.07,1234.09,1309.44,1234.08,1306.33z
		 M1289.25,1232.17c-0.02-0.11-0.04-0.23-0.07-0.35c-0.07,0.29-0.18,0.59-0.22,0.88c-0.28,2.54-1.14,5.09,0.19,7.71
		C1291.21,1237.63,1289.52,1234.89,1289.25,1232.17z"/>
	<path class="st0" d="M410.9,138.87c2.18,4.62,5.13,6.37,9.85,4.52c1.82-0.71,3.93-1.04,5.88-0.94c11.4,0.54,22.44-2.32,33.66-3.36
		c24.46-2.25,48.95-4.04,73.53-4.96c34.27-1.28,68.53-1.96,102.81-1.75c13.62,0.08,27.26,0.11,40.82,1.91
		c4.27,0.57,8.63,0.53,12.95,0.71c20.9,0.9,41.79,1.77,62.68,3.04c23.24,1.41,46.24,4.72,69.37,6.98
		c31.14,3.05,61.69,9.21,91.92,17.41c31.44,8.53,63.13,16.11,94.8,23.78c13.28,3.22,26.1,7.34,38.69,12.8
		c27.84,12.06,54.4,26.54,81.15,40.71c19.7,10.44,38.93,21.77,58.63,32.15c39.79,20.98,77.65,45.05,115.68,68.93
		c32.98,20.71,66.27,40.92,99.42,61.37c20.68,12.76,41.66,25.05,61.72,38.79c6.57,4.5,13,9.04,18.76,14.72
		c9.47,9.33,19.6,18,28.96,27.47c6.31,6.39,13.06,12.34,19.51,18.59c1.58,1.53,3.72,2.83,3.88,6.29c-2.44-0.53-4.09-1.87-5.74-3.25
		c-12.49-10.45-24.97-20.92-37.5-31.33c-14.11-11.73-29.44-21.74-45.01-31.37c-48.12-29.77-96.42-59.26-144.32-89.38
		c-36.64-23.04-73.98-44.87-111.28-66.79c-23.22-13.65-46.41-27.43-70.19-40.06c-17.31-9.19-35.52-16.69-53.42-24.74
		c-9.7-4.36-19.37-8.83-29.12-13.04c-16.19-6.98-33.11-12.04-50.51-15.23c-4.92-0.9-9.74-2.01-14.55-3.39
		c-18.84-5.4-37.73-10.63-57.01-14.37c-14.02-2.72-27.91-6.08-41.83-9.29c-26.91-6.19-54.17-10.14-81.63-12.65
		c-15.21-1.39-30.59-1.19-45.74-3c-16.88-2.02-33.9-0.54-50.69-3.09c-0.65-0.1-1.33-0.06-2-0.04c-32.97,0.91-65.82-3.29-98.81-2.05
		c-23.26,0.88-46.55,1.1-69.8,2.14c-20.23,0.91-40.44,2.37-60.62,3.98c-12.63,1.01-24.92,3.99-36.79,8.54
		c-1.86,0.71-3.63,1.67-5.39,2.61c-2.31,1.24-3.26,3.25-2.86,5.83c0.34,2.19,1.76,3.57,3.79,4.2c4.77,1.47,9.51,3.06,14.36,4.18
		c6.82,1.57,13.4,3.82,20.06,5.89c11.41,3.55,22.9,7.02,34.58,9.5c40.04,8.49,79.49,19.17,118.78,30.53
		c37.38,10.81,74.64,21.98,111.6,34.15c38.87,12.8,76.95,27.74,114.66,43.62c28.51,12,57.16,23.67,85.63,35.76
		c22.05,9.36,43.76,19.49,65.21,30.17c5.36,2.67,10.81,5.16,16.28,7.6c17.5,7.78,33.07,18.56,47.53,30.96
		c18.44,15.82,38.37,29.72,57.21,45.01c36.9,29.93,74.09,59.49,110.98,89.44c14.45,11.74,28.03,24.52,41.86,36.99
		c15.35,13.84,30.37,28.01,44.56,42.97c26.08,27.49,51.98,55.15,76.38,85.71c-3.29-0.1-4.76-1.81-6.31-3.01
		c-10.6-8.18-19.13-18.46-28.21-28.18c-8.18-8.75-16.24-17.61-24.46-26.31c-8-8.47-15.86-17.11-24.29-25.14
		c-19.5-18.59-38.69-37.5-59.18-55.07c-26.01-22.32-52.48-44.04-79.49-65.13c-35.4-27.64-71.41-54.55-106.01-83.16
		c-24.01-19.86-51.64-32.58-79.11-45.99c-27.51-13.43-55.45-25.92-83.55-38.04c-24.12-10.41-48.47-20.31-72.82-30.17
		c-14.17-5.74-28.58-10.87-42.84-16.41c-34.13-13.27-68.99-24.39-104-34.99c-49.64-15.03-99.55-29.19-150.07-40.99
		c-23.61-5.52-47.41-10.21-71.11-15.35c-4.22-0.92-8.4-2.07-12.51-3.38c-3.6-1.15-7.17-1.27-10.85-0.7
		c-4.76,0.74-7.92,3.12-8.94,8.45c4.21,5.78,10.56,8.74,16.78,11.66c17.16,8.07,34.39,15.99,51.66,23.81
		c30.64,13.88,60.89,28.63,89.42,46.45c55.64,34.74,109.93,71.49,162.52,110.75c24.54,18.32,48.23,37.69,72.46,56.4
		c17.9,13.83,35.85,27.59,53.96,41.14c10.47,7.83,19.47,17.07,28.16,26.76c22.92,25.54,42.92,53.4,64.03,80.37
		c26.65,34.05,53.12,68.25,79.4,102.59c11.33,14.8,22.04,30.06,32.91,45.2c2.03,2.83,4.24,5.8,4.16,9.86
		c-3.07-0.58-4.23-2.68-5.75-4.32c-14.68-15.93-27.01-33.72-40.31-50.75c-21.29-27.27-42.33-54.76-64.17-81.59
		c-14.71-18.06-28.65-36.72-43.36-54.77c-22.56-27.67-47.45-52.86-75.74-74.81c-25.74-19.97-50.78-40.84-76.07-61.39
		c-27.91-22.68-57.1-43.63-86.37-64.51c-31.46-22.45-63.91-43.39-96.82-63.57c-31.79-19.49-64.99-36.46-99.2-51.4
		c-6.39-2.79-12.98-5.17-18.7-9.36c-1.59-1.16-3.45-2.04-5.3-2.77c-15.14-5.97-30.31-11.87-45.47-17.8c-1.58-0.62-3.2-0.86-5.1-0.34
		c-3.61,2.72-2.58,6-0.86,9.48c8.24,16.76,17.24,33.19,28.37,48.12c19.92,26.73,38.18,54.51,55.57,82.9
		c9.04,14.75,19.05,28.9,27.23,44.19c5.35,9.99,9.63,20.39,13.22,31.16c6.96,20.9,20.4,37.04,38.07,49.81
		c1.85,1.33,4.13,2.15,6.3,2.93c22.27,8.05,42.62,20.11,63.74,30.56c6.37,3.16,11.02,8.42,16.42,12.86
		c-1.61,2.37-2.97,0.71-4.14,0.14c-18.34-9.06-37.9-14.64-57.87-17.96c-11.25-1.87-23.03-3.97-34.61-0.58
		c-13.43,3.93-26.45,8.19-36.53,19.08c-8.79,9.49-19.07,17.59-28.28,26.72c-9.69,9.6-18.68,19.9-28.34,29.54
		c-21.73,21.69-38.98,47.16-59.54,69.82c-0.86,0.94-1.52,2.2-3.91,2.12c-0.58-9.29-1.61-18.66-4.58-27.64
		c6.24-7.53,12.69-14.31,17.98-21.89c11.11-15.9,24.71-29.6,37.45-44.07c3.95-4.49,8.06-8.85,12.15-13.22
		c11.16-11.94,23.62-22.48,35.97-33.11c11.21-9.64,24.41-15.89,38.24-20.84c2.18-0.78,4.58-1.02,6.55-3.17
		c-4.34-5.64-8.87-11.23-13.08-17.05c-7.24-10.02-13.12-20.83-17.87-32.25c-4.97-11.96-9.97-23.9-15-35.84
		c-4.29-10.19-10.82-19.1-16.54-28.44c-13.21-21.57-26.63-43.02-40.27-64.32c-7.89-12.32-16.66-24.09-24.55-36.42
		c-12.57-19.61-24.28-39.73-34.51-60.7c-4.38-8.98-9.57-17.56-15.52-25.58c-2.61-3.52-4.81-7.17-6.67-11.07
		c-2.29-4.8-4.65-9.52-7.41-14.1c-4.38-7.24-6.45-15.37-6.72-23.78c-0.36-11.29,0.12-22.56,1.7-33.81
		c2.17-15.49,8.3-29.38,16.19-42.62c4.73-7.92,17.13-17.87,27.1-22.24c1.01,1.49-0.35,2.48-0.96,3.36
		c-8.31,12.05-12.25,25.77-14.94,39.86c-0.98,5.16-0.76,10.63-0.48,15.92c0.27,5.07,3.52,8.37,8.04,10.51
		c5.89,2.79,11.56,1.92,17.39-0.38c18.25-7.23,36.83-13.54,55.64-19.18c23.6-7.09,47.68-12.12,71.82-16.8
		c22.16-4.3,44.45-8.04,66.75-11.52c20.99-3.27,42.05-6.06,63.13-8.71c26.67-3.35,53.36-6.51,80.08-9.43
		c12.21-1.34,24.5-1.93,36.76-2.82c17.21-1.25,34.42-2.68,51.65-3.63c16.59-0.92,33.19-1.75,49.78-2.58
		c20.61-1.03,41.26-0.71,61.8-2.04c28.97-1.87,57.91-0.6,86.86-0.94c9.26-0.11,18.55,1.17,27.8,2.16
		c14.85,1.59,29.54,4.24,44.26,6.83c11.54,2.03,22.81,5.08,33.62,9.16c26.13,9.85,51.96,20.52,77.82,31.06
		c30.5,12.44,60.24,26.58,90.06,40.52c32.25,15.07,64.45,30.28,96.48,45.81c21.56,10.45,42.41,22.29,63.21,34.21
		c10.96,6.28,22.38,11.81,31.98,20.25c2.25,1.98,4.69,3.72,6.06,6.48c-0.74,0.87-1.71,1.12-2.6,0.67
		c-18.08-9.15-36.44-17.8-54.12-27.68c-18.92-10.56-38.42-19.91-57.76-29.58c-35.12-17.55-70.86-33.83-106.71-49.82
		c-22.17-9.89-44.19-20.17-66.68-29.28c-28.95-11.73-57.93-23.44-88.09-32c-15.11-4.28-30.54-6.25-45.8-9.39
		c-25.26-5.18-50.69-6.58-76.35-6.23c-26.98,0.36-53.99-0.16-80.94,0.93c-17.27,0.7-34.55,1.07-51.82,1.85
		c-23.22,1.06-46.45,2.15-69.61,4.04C767.15,62.1,731.07,65,695.16,69.27c-39.54,4.7-78.99,10.29-118.33,16.65
		c-29.54,4.77-59.2,8.92-88.06,16.72c-24.02,6.49-47.94,13.91-69.31,27.42C416.09,132.18,412.49,134.08,410.9,138.87z"/>
	<path class="st0" d="M396.69,1024.32c-9.57-16.5-18.2-32.58-25.13-49.55c-1.65-4.06-2.65-7.98-1.91-12.47
		c0.8-4.88-0.15-9.99,1.69-14.81c3.35-1.89,6.71-3.79,10.21-5.76c-2.74-2.69-5.42,0.26-7.86-0.75c-0.11-0.57-0.51-1.4-0.29-1.64
		c4.76-5.09,9.59-10.11,16.05-16.87c-12.09,3.99-19.15,10.84-25.2,18.7c-3.23-0.85-2.11-3.23-2.28-4.97
		c-0.2-1.98-0.15-3.99-0.04-5.99c0.8-14.4-0.03-28.5-7.17-41.54c-0.75-1.36-0.74-3.14-1.19-5.23c48.44-2.44,95.94-9.14,143.66-15.67
		c4.38,10.72,5.31,21.64,6.56,32.42c1.42,12.24,1.47,24.65,0.59,36.88c-1.84,25.49-8.98,49.56-21.84,71.82
		c-5.08,8.8-12.53,15.46-19.74,22.35c-3.06,2.92-6.72,3.98-10.99,3.52c-8.9-0.96-17.81-1.78-26.55-3.86
		C415.91,1028.69,406.52,1026.58,396.69,1024.32z"/>
	<path class="st0" d="M882.38,960.59c-1-3.76-0.16-7.39,0.67-10.91c2.69-11.41,3.77-22.94,3.49-34.64
		c-0.13-5.33,0.34-10.7-0.12-15.99c-0.53-6.09,1.48-10.74,5.38-15.36c7.1-8.39,12.03-18.3,17.28-26.98c2.13-1.42,3.24-0.5,4.31,0.17
		c37.14,23.07,77.5,38.02,119.92,47.91c10.33,2.41,20.51,5.49,30.91,8.3c0.9,3.35-0.35,6.03-1.4,8.75
		c-7.42,19.1-18.07,36.18-31.15,51.98c-8.38,10.13-17.72,18.87-28.85,25.73c-2.82,1.74-5.82,3.2-8.71,4.84
		c-3.09,1.75-6.01,1.6-9.5,0.54c-20.05-6.07-40.25-11.65-59.95-18.81C908.9,980.41,894.24,972.77,882.38,960.59z"/>
	<path class="st0" d="M340.9,895.64c-4.14-14.02-12.91-25.34-21.74-36.54c-4.93-6.24-10.52-11.96-15.86-17.88
		c-1.33-1.48-2.74-2.92-4.29-4.17c-7.55-6.05-10.96-5.92-18.18,0.43c-11.72,10.3-24.44,19.45-34.98,31.09
		c-1.49,1.64-2.88,0.07-4.78-1.54c10.97-14.81,24.66-26.41,39.43-37.02c-6.59-0.26-10.25,5.73-16.11,6.66l0.2,0.22
		c-0.05-3.52,2.85-5.09,5.02-6.83c6.22-4.96,12.51-9.9,21-12.65c9.56,3.73,17.17,11.15,24.5,18.72
		c16.61,17.14,28.74,37.26,38.23,59.06c2.14,4.93,3.69,9.74,2.85,15.37c-0.73,4.89-0.52,9.97-0.23,14.94
		c0.93,15.99-1.01,31.86-2.31,47.71c-0.84,10.19-4.07,20.17-8.81,29.4c-1.46,2.85-3,5.91-6.74,7.8c-6.29-8.18-6.83-21.03-18.2-24.96
		c-2.77,1.29-2.9,3.45-3.87,5.13c-2.09,3.61-2.85,7.77-7.49,10.24c-2.83,1.5-3.88,6.7-5.31,10.39c-2.03,5.25-3.66,10.66-5.57,16.32
		c-4.36-1.26-6.19-4.9-8.87-7.65c-3.6-3.7-5.17-9.32-10.62-11.24c-2.37-6.13-2.37-6.13-8.58-9.75c3.06,4.23,4.4,8.19,8.76,9.59
		c-0.71,3.25,2.19,4.64,3.61,6.71c2.76,4.04,5.85,7.87,8.38,12.1c-15.85-10.51-24.85-26.34-32.41-44.05
		c-2.97,4.96,0.93,8.02,0.19,12.25c-3.22,4.23-5.08,9.89-7.2,15.56c-5.2-5.27-7.84-13.24-14.91-45.39
		c-3.4-15.48-6.72-30.99-7.16-46.96c1.81,5.9,2.3,12.2,6.99,19.71c-0.79-16.25-5.45-29.92-3.4-44.28c3.98,1.33,3.54,4.52,3.44,7.23
		c-0.64,17.11,2.97,33.68,6.19,50.3c0.88,4.55,2.33,9,3.61,13.47c1.56,5.4,3.55,10.6,1.15,16.45c-1.06,2.57-1.06,5.67,1.69,8.22
		c2.77,2.58-1.71,6.37,1.22,9.83c3.55-5.86,5.37-12.21,4.54-18.49c-0.74-5.64-0.11-10.45,2.7-15.61c2.55,0.7,2.97,3.1,3.95,4.92
		c5.52,10.24,10.6,20.71,17.28,30.3c3.16,4.54,6.85,8.38,12.61,13.09c-0.88-4.69-2.46-6.61-4.24-8.49
		c-8.1-8.56-13.9-18.56-18.6-29.31c-2.75-6.29-5.33-12.76-10.33-17.81c-4.63,2.09-3.09,7.61-7.17,10.25
		c-6.03-21.9-9.28-43.98-11.24-67.36c4.52,3.12,8.23,5.83,14.26,6.91c-5.82-5.75-11.88-9.92-14.67-16.55
		c-2.66-6.32-5.3-12.79-3.47-20.45c7.41,1.74,12.33,8.35,20.33,8.85c-0.98-4.05-5.32-4.09-6.82-6.9c0.04-0.62-0.17-1.48,0.17-1.87
		c11.56-13.44,25.54-24.03,39.59-34.32c7.42,3.37,13.02,7.85,17.59,13.77c10.34,13.41,21.27,26.39,29.59,41.25
		c1.09,1.95,2.04,4.4,5.16,3.55c-0.05,6.28-0.9,12.48-0.64,18.86c0.67,16.92,1.06,33.93-1.94,50.73c-0.8,4.48-1.44,9.12-4.68,13.48
		c-5.38-6.56-8.7-14.55-17.7-18.33c-5.1,11.35-10.2,22.39-15.03,33.55c-2.36,5.46-5.58,10.6-6.71,16.55
		c-0.1,0.51,0.46,1.15,0.88,2.14c6.17-6.63,8.39-15.19,12.23-22.79c3.77-7.46,6.53-15.43,9.76-23.23
		c9.36,4.63,12.46,13.63,17.97,20.61c4.27-5.53,6.71-10.23,7.26-16.18C344.69,945.7,347.59,920.57,340.9,895.64z M292.94,961.56
		c2.42-3.51,1.86-6.55,1.53-9.23c-1.16-9.39-4.44-17.23-14.92-20.03c-5.09-1.36-9.92-3.8-14.14-7.17c-1.29-1.03-2.58-2.15-5.19-1.09
		c-1.45,18.86,4.56,34.76,19.7,46.96c1.13,0.91,2.69,2.17,4.38-0.2c-4.32-6.08-11.08-10.3-14.41-17.4
		c-3.37-7.17-6.35-14.3-5.17-22.82c5.43,2.14,10.19,4.68,15.27,5.84c6.19,1.41,8.91,5.37,10.22,10.85
		C291.26,951.68,291.93,956.18,292.94,961.56z M295.52,869.21c3.57,1.77,4.74,4.65,6.69,6.81c1.77,1.95,3.38,4,6.13,4.87
		c5.93,1.89,9.97,6.23,13.48,11.73c1.49-5.62-2.63-8.01-5.22-10.5c-5.48-5.27-11.79-9.65-16.47-15.81c-1.5-1.97-3.89-2.42-6.28-1.18
		c-4.08,6.17-3,13.43-4.47,20.13c-2.21,10.06,3.3,16.45,9.26,22.72c1.6,1.68,4.38,3.01,7.75,1.6
		C292.16,899.13,289.44,885.65,295.52,869.21z M265.62,894.05c1.13-10.47,1.13-10.47-3.37-12.95
		C261.98,885.31,263.33,888.76,265.62,894.05z"/>
	<path class="st0" d="M560.4,856.14c17.51-5.78,89.63-24.01,97.11-24.44c-1.58,11.89-0.85,23.75-0.94,35.61
		c-0.04,4.97,0.03,9.89,0.99,14.88c0.86,4.48,0.48,9.22-0.26,13.89c-1.36,8.57-1.43,17.28-0.02,25.81
		c0.96,5.81,0.53,11.24-1.51,16.61c-1.88,4.97-3.8,9.95-6.02,14.78c-1.4,3.05-1.85,3-7.65,2.53c0.61-6.45,7.23-10.11,7.48-16.73
		c-3.42,4.16-6.76,8.3-10.41,12.19c-13.5,14.37-28.44,26.86-45.31,37.12c-9.38,5.7-18.49,11.83-28.53,16.38
		c-7.89,3.58-16.09,6.01-24.8,8.13c-1.05-4.05,0.85-6.49,2.7-9.12c8.32-11.79,14.6-24.54,17.96-38.64
		c3.78-15.86,5.9-31.92,6.82-48.22c1.11-19.54-2.43-38.34-7.2-57.06C560.5,858.65,560.53,857.34,560.4,856.14z"/>
	<path class="st0" d="M466.19,508.07c-0.67,2.93-2.14,4.21-3.92,5.25c-12.51,7.25-22.33,17.82-33.14,27.13
		c-18.68,16.09-35.64,33.95-51.81,52.56c-3.55,4.08-7.35,7.67-13.64,7.49c-1.12-2.63,0.4-5,1.22-7.23
		c9.89-26.87,18.4-54.15,24.3-82.18c4.73-22.44,8.39-45.05,9.38-68.01c0.24-5.63,1.35-11.15,1.44-16.85
		c0.35-22.3-1.86-44.45-3.27-66.65c-1.23-19.3-3.87-38.31-8.29-57.1c-1.21-5.13-2.51-10.23-3.79-15.44
		c2.56,0.68,2.63,2.87,3.45,4.62c10.45,22.46,14.98,46.79,22.24,70.25c7.37,23.83,12.79,48.15,17.86,72.56
		c3.19,15.33,8.1,30.14,16.01,43.86c4.52,7.85,10.01,14.9,15.94,21.65C462.36,502.47,464.84,504.71,466.19,508.07z"/>
	<path class="st0" d="M388.07,675.36c-1.77-0.78-3.19,0.04-4.59,0.98c-7.44,4.99-14.81,10.11-22.38,14.9
		c-4.83,3.06-7.45,7.23-8.47,12.75c-1.21,6.52-3,12.95-3.94,19.5c-0.76,5.27-3.66,8.32-8.15,10.39c-1.51,0.69-2.96,1.5-4.5,2.11
		c-14.16,5.64-28.34,11.25-42.24,16.76c-3.39-2.23-1.22-5.19-1.81-7.65c0.93-0.85-1.87-0.92-0.9-0.01c0.97,0.91,0.14-0.45-0.48,0.73
		c-0.29,0.56-0.6,1.12-0.9,1.68c-0.61,0.45-1.11,0.27-1.55-0.49c-4.17-7.18-7.94-14.54-11.01-22.27c-1.15-2.9-1.49-5.77-0.53-8.76
		c0.77-2.41,2.68-2.59,5.68-2.25c-5.47-10.33-4.59-20.91-3.99-33.12c5.71,5,6.35,12.03,12.7,14.89c0.69-3.5-2.92-5.24-2.78-8.79
		c2.5-6.56,6.75-12.75,12.34-19.77c3.41,6.93,4.98,13.64,9.63,18.75c-1.79-11.67-8.72-21.93-7.81-34.35
		c0.87-11.87,0.55-23.8,4.53-36.59c6.2,12.86,11.98,24.64,19.42,35.56c2.48-1.69,1.04-3.1,0.69-4.48c-0.31-1.24-0.56-2.5-0.85-3.81
		c14.89-11.1,29.79-21.47,48.08-25.41c3.69,3.37,4.68,7.63,5.8,11.74c2.79,10.23,5.63,20.45,7.98,30.78
		c1.23,5.45,2.34,11.13-0.15,16.66L388.07,675.36z M361.92,632.27c1.23,0.09,2.47,0.17,3.75,0.27c3.21,4.49,3.36,10.84,8.48,14.22
		c0.97,4.61-2.04,7.33-4.79,10.2c-1.9,1.98-4.83,3.25-5.13,7.63c5.99-2.61,10.14-6.02,12.66-11.19c1.51-3.1,0.99-5.66-2.96-6.45
		c0.29-7.58-4.32-13.2-6.87-19.53c-3.43,0.81-4.65,2.52-4.92,5.04c-6.13,7.8-8.62,16.57-6.39,24.17c1.13-6.9,2.58-12.98,5.04-18.73
		C361.58,636.07,362.66,634.38,361.92,632.27z M337.05,714.57c1.71-10.54-1.9-21.44-9.19-28.25
		C327.78,697.21,338.22,704.01,337.05,714.57z M323.61,696.27c-5.71,8.1-5.01,16.65-1.48,25.34
		C322.3,713.19,322.45,704.78,323.61,696.27z M330.57,655.55c1.02,3.9,3,7.41,1.85,11.72c3.73-2.14,4.36-4.66,3.7-7.92
		C335.56,656.6,333.7,655.98,330.57,655.55z M288.43,710.79c3.22-4.52,6.37-6.74,4.8-11.5
		C290.04,703.59,290.04,703.59,288.43,710.79z"/>
	<path class="st0" d="M723.64,1008.54c-15.97-7.94-29.04-19.63-41.21-32.4c-4.79-5.02-9.88-9.82-13.75-15.69
		c-1.85-2.8-3.86-5.57-3.99-9c-0.33-8.96-2.38-17.75-2.24-26.78c0.17-10.97-0.54-21.95-0.53-32.92c0.02-12.97,0.11-25.96,0.74-38.91
		c0.37-7.59,1.56-15.17,2.92-22.66c1.72-9.47,7.66-16.91,13.7-23.85c7.2-8.27,14.98-16.16,23.3-23.29
		c8.3-7.11,17.55-13.11,26.44-19.51c4.84-3.48,9.83-6.77,15.15-10.43c3.78,2.12,5.9,6.06,8.99,8.91
		c17.35,16.03,33.13,33.54,47.86,51.98c4.77,5.97,9.85,11.76,13.86,18.21c2.94,4.73,3.23,10.71,2.38,16.2
		c-2.19,14.08-4.85,28.09-7.32,42.13c-1.09,6.21-2.71,12.37-3.16,18.62c-0.84,11.51-5.67,21.76-8.9,32.55
		c-3.2,10.69-8.95,18.81-18.24,24.92C760.21,979.4,743.45,995.79,723.64,1008.54z M708.33,784.48c-3.2,3.16-3.95,7.5-5.41,11.48
		c-0.68,1.84-0.66,3.85-2.13,5.47c-7.17,7.86-13.83,16.23-21.52,23.55c-4.2,3.99-6.67,7.96-6.86,13.61
		c-0.48,14.27-2.36,28.46-1.98,42.79c0.16,6.23,1.14,12.62-1.42,18.76c-0.55,1.32,0,3.3,0.52,4.81c4.48,13.03,5.23,26.74,6.36,40.21
		c0.75,8.91,4.37,15.08,10.75,20.29c9.26,7.58,18.52,15.17,28.55,21.77c2.81,1.85,5.51,3.61,9.22,3.83
		c18.88-11.73,36.21-25.75,53.78-39.42c2.33-1.82,4.61-3.95,5.63-6.88c2.62-7.53,5.7-14.95,7.58-22.67
		c6.12-25.21,9.55-50.83,10.75-76.77c0.22-4.7-0.86-8.4-3.72-11.93c-5.01-6.2-9.94-12.45-14.76-18.8
		c-9.92-13.06-22.25-23.82-33.58-35.53c-2.74-2.83-5.86-5.32-7.31-9.36c-10.41,2.69-16.78,11.06-25.27,16.1
		c-2.54-0.72-3.76-3.78-7.05-3.88c-0.71,0.82-1.56,1.8-2.4,2.78L708.33,784.48z"/>
	<path class="st0" d="M709.76,769c-5.23,4.37-8.6,7.04-11.81,9.89c-3.22,2.87-6.9,5.5-9.31,8.98c-8.04,11.63-8.35,9.11-20.4,12.36
		c-26.6,7.17-53.35,13.8-79.99,20.83c-12.51,3.3-25.43,4.41-37.88,8.5c-5.97-9.78-15.71-8-23.76-8.24
		c-11.54-0.35-23.05,2.22-33.67,7.59c-4.89,2.47-9.06,5.53-11.79,10.81c-19.12,2.45-38.33,5.93-57.94,7.22
		c-3.28-7.13-4.82-14.2-6.98-21.79c5.1-0.76,9.87-1.7,14.7-2.16c30.45-2.87,60.6-7.83,90.05-15.85
		c19.16-5.22,38.49-9.91,57.47-15.98c14.46-4.62,29.75-6.67,44.7-9.71c26.01-5.29,52.24-9.16,78.57-12.44
		C703.68,768.79,705.68,769,709.76,769z"/>
	<path class="st0" d="M561.73,63.73c-26.34,5.6-52.76,10.49-78.83,17.06c-26.12,6.58-51.42,15.69-75.99,24.38
		c-4.08-1.72-5.77-4.13-6.16-7.28c-0.61-4.95-1.37-10.04,1.19-14.67c5.2-9.37,11.07-18.52,20.28-24.26
		c28-17.43,54.41-32.52,94.66-39.57c-0.15,2.8-2.56,3.61-3.91,5.04c-3.66,3.86-7.83,7.27-10.41,12.06
		c-3.46,6.41-2.56,11.45,3.07,15.88c4.25,3.35,9.11,5.26,14.49,6.29C533.86,61.28,547.65,63.2,561.73,63.73z"/>
	<path class="st0" d="M350.39,1326c-7.55-0.29-15-1.22-20.21-8.67c0.9-7.26,1.63-14.82,2.87-22.31c0.47-2.87,2-5.48,3.96-7.92
		c9.63-11.96,21.35-20.66,36.13-25.4c15.23-4.89,30.76-8.27,46.49-11.01c21.04-3.67,42.24-4.68,63.53-4.45
		c13.64,0.15,27.3-0.57,40.93,0.59c36.03,3.08,71.96,7.05,107.78,12.06c8.14,1.14,16.24,2.55,24.56,3.86
		c-1.34,3.37-3.74,4.9-6.33,5.14c-7.08,0.68-8.61,5.13-8.41,11.1c0.04,1.31,0.29,2.67-1.27,4.35c-2.7-0.32-5.93-0.46-9.06-1.11
		c-29.59-6.15-59.51-10.36-89.27-15.48c-17.34-2.98-34.71-5.59-52.18-7.66c-2.63-0.31-5.32-0.23-7.98-0.23
		c-10.66-0.02-21.33,0.29-31.97-0.09c-12.34-0.44-24.52,1.56-36.82,1.75c-5.87,0.09-11.74,2.09-17.56,3.41
		c-6.15,1.39-12.26,2.97-18.38,4.52c-12.22,3.09-22.71,9.41-31.97,17.74c-5.3,4.77-8.22,11.31-10.59,17.87
		c-2.12,5.86-0.56,10.92,4.65,14.97C342.75,1321.75,347.05,1322.71,350.39,1326z"/>
	<path class="st0" d="M163.59,136.65c-2.43-2.55-3.18-5.26-2.69-8.4c2.95-18.88,10.51-35.59,23.84-49.4
		c5.3-5.49,10.85-10.88,16.97-15.4c5.84-4.32,12.57-7.44,18.96-11.11c2.07,2.13-0.49,3.52-1.01,5.04c-3.4,9.89-0.46,16.5,9.61,19.04
		c11.61,2.93,23.51,4.57,35.5,4.53c8.99-0.03,17.85,0.67,28.74,2.3c-16.27,5.17-31.35,7.71-45.51,13.35
		c-14.52,5.78-29.04,11.53-43.41,17.67C190.19,120.41,176.78,128.32,163.59,136.65z"/>
	<path class="st0" d="M748.77,1307.48c2.86-6.42,2.8-13.14,3.85-19.86c7.25-0.11,13.11,3.46,19.48,4.83
		c22.06,4.73,44.09,9.59,66.15,14.32c17.83,3.82,35.56,8.18,53.74,10.08c3.25,0.34,5.83,1.26,6.17,5.54
		c-3.37,3.23-6.88,6.68-10.51,10.01c-0.93,0.85-2.22,1.87-3.34,1.87c-6.86,0.01-13.58,1.51-20.6,0.07
		c-34.13-6.98-68.31-13.75-102.14-22.11C757.45,1311.23,753.02,1310.86,748.77,1307.48z"/>
	<path class="st0" d="M136.5,1003.29c0.38,4.89,4.8,6.87,5.86,11.29c-7.5,5.77-5.88,15.1-7.68,23.29
		c-0.78,3.54-0.54,7.29-1.07,10.91c-0.29,1.97-1.22,3.96-3.61,4.17c-0.84,0.07-2.2-0.45-2.56-1.11c-1.15-2.14-3.29-4.69-0.87-6.85
		c1.94-1.73,2.86-3.75,3.16-5.94c1.56-11.49,2.88-23.02,4.29-34.64c-3.13,1.18-3.08,4.28-5.06,7.35c-0.93-7.8,0.71-14.12,3.57-21.21
		c5.11,4.02,6.88,10.21,11.57,13.49c2.65-1.09,1.63-2.76,0.95-4.11c-2.86-5.62-5.83-11.17-11.42-14.89
		c-6.11,2.56-6.84,7.87-7.63,13.14c-1.13,7.53-2.25,15.07-3.38,22.6c-0.19,1.3-0.28,2.65-1.76,3.52c-2.05,0.3-4.22-0.34-4.04-2.84
		c0.77-10.71-2.79-20.97-2.77-30.94c-11.15-8.42-19.72-17.95-23.95-32.21c7.2,0.36,13.55,0.68,19.35,0.97
		c4.15,4.1,1.35,9.66,4.48,13.4c2.04,0.26,2.19-1.24,1.9-2.45c-1.16-4.99,0.17-10.73-4.76-14.65c-0.99-0.79-1.03-3.09-1.06-4.69
		c-0.11-6.97-0.05-13.95-0.05-20.54c2.33-1.81,4.02-0.41,4.66,0.67c8.26,13.84,19.4,25.24,30.92,36.37
		c-1.94,9.92-0.86,19.38,1.55,30.66c2.34-8.31,3.65-14.91,2.71-22.03c4.42,3.8,3.17,9.07,4.96,13.28c2.88-0.87,1.07-4.19,3.57-6.72
		c-0.46,14.1-1.75,26.7-2.99,41.59C146.73,1017.16,144.74,1007.84,136.5,1003.29z"/>
	<path class="st0" d="M221.34,486.24c4.21,2.84,4.62,6.57,5.02,10.1c0.38,3.29,0.04,6.65,0.27,9.96c0.28,3.99-1.42,6.53-4.31,9.36
		c-7.12,6.96-15.87,10.61-24.79,14.21c-18.73,7.55-37.43,15.17-56.4,22.86c-3.84-5.22-3.5-10.99-4.73-16.32
		c-0.7-3.04,0.86-6.83-3.02-9.38c-2.57,8.33,1.59,16.18,1.16,24.22c-17.01-3.91-26.28-20.99-23.45-40.43
		c0.84,4.11,1.95,6.13,3.68,7.84c7.05,6.95,11.02,7.8,16.36,0.68c0.55-0.73,1.6-1.09,2.55-1.71c1.69,1.06,3.45,2,5.02,3.18
		c5.17,3.9,11.07,4.61,17.07,3.28c19.35-4.28,37.08-12.38,53.26-23.78C214.09,496.73,219,492.81,221.34,486.24z"/>
	<path class="st0" d="M290.2,762.62c-6.6-4.58-9.57-11.82-13.11-18.51c-2.62-4.96-4.38-10.38-6.31-15.67
		c-0.79-2.16-1.01-4.52-3.33-5.75c-1.91,0.2-1.71,1.67-2.06,2.8c-0.58-4.45,1.32-7.51,6.31-10.34
		c-1.32,18.99,10.92,30.22,20.16,43.03c9.15-2,16.46-6.05,24.06-9.19c10.12-4.18,19.98-8.99,29.65-14.18
		c5.22-2.8,7.65-6.81,8.53-12.43c0.92-5.9,2.91-11.67,3.38-17.58c0.4-5.02,2.86-7.85,6.74-10.15c-0.01,6.75-3.73,12.48-5.15,18.84
		c-0.3,1.34-1.21,3.05,0.97,4.08c3.25-1.93,3.1-5.53,4.33-8.44c2.64-6.22,3.46-13.5,9.96-17.62c0.45-0.29,0.09-1.86,0.1-2.84
		c2.16-3.42,5.19-5.84,8.7-7.75c2.29-1.25,4.96-2.23,4.94-5.55l-0.18,0.45c4.04-17.57,1.77-34.76-4.03-52.15
		c3.3,1.15,3.74,3.87,6.44,6.08c-1.24-9.65-5.32-16.56-10.94-23.24c-2.79,0-5.72,0-8.65,0c-0.01-1.64,0.95-1.72,1.8-1.97
		c7.19-2.16,9.66-1.69,13.68,4.01c9.38,13.3,14.77,28.14,15.66,44.44c0.32,5.97-0.33,12,0.16,17.95c0.5,6.01-1.71,10.29-6.45,13.56
		c-6.55,4.53-12.89,9.44-19.78,13.36c-4.22,2.4-6.46,5.51-7.37,9.9c-1.42,6.81-2.64,13.66-4.04,20.48c-0.6,2.91-1.29,5.82-2.19,8.66
		c-0.93,2.96-2.95,4.91-5.78,6.45c-16.65,9.04-33.63,17.38-50.84,25.29c-2.38,1.09-5.19,1.27-7.53,2.43
		c-6.8,3.39-9.72,2.41-14.26-4.03c-6.89-9.78-12.89-20.1-17.05-31.38c-0.45-1.23-0.74-2.57,0.59-4.16c2.43,5.16,4.6,10.24,7.17,15.1
		c3.1,5.86,6.47,11.59,11.46,16.16c1.6,1.47,2.85,1.23,4.05-0.4c7.51,1.94,14.92,0.15,21.16-5.12
		C303.88,757.43,296.45,759.34,290.2,762.62z"/>
	<path class="st0" d="M353.4,1118.59c1.23,7.93,2.13,15.78-0.97,23.46c-1.27,3.15-3,5.93-5.45,8.23
		c-8.8,8.24-18.65,15.02-29.82,19.51c-13.85,5.56-27.81,10.82-39.78,20.05c-6.85-4.6-11.91-10.36-16.97-16.04
		c-4.69-5.25-5.06-12.12-5.73-18.69c-0.4-3.94-0.07-7.96-0.07-11.84c3.13-1.42,3.45,1.37,4.45,2.65
		c4.74,6.12,10.41,11.07,16.69,14.64c1.27-0.09,2.05,0.08,2.54-0.22c13.53-8.13,28.5-12.38,43.61-16.27
		c5.17-1.33,10.14-3.26,14.73-5.97C344.26,1133.58,350.05,1127.41,353.4,1118.59z"/>
	<path class="st0" d="M789.85,1018.35c-1.61-13.31-6.31-25.1-9.26-37.33c-1.5-6.21-1.39-6.24,4.6-10.51
		c3.49,4.94,4.96,10.78,7.25,16.2c3.49,8.27,6.54,16.72,10.11,24.95c1.49,3.43,1.51,6-0.82,9.15c-3.95,5.33-6.37,12.14-11.13,16.44
		c-8.41,7.59-12.96,17.54-18.95,26.6c-2.92,4.41-4.98,9.39-7.42,14.11c-1.07,2.07-2.19,4.1-4.63,5.78
		c-19.1-7.76-38.01-16.44-55.45-28.06c-3.31-2.21-6.39-4.77-9.5-7.27c-4.35-3.49-6.96-7.71-6.9-13.66
		c0.04-3.58-0.99-7.23-1.96-10.73c-3.01-10.94-3.54-22.26-5.18-33.4c-0.22-1.52,0.16-3.12,0.35-5.92c3.51,3.01,6.17,5.29,8.57,7.35
		c-0.56,16.67,2.99,32.14,7.17,47.5c0.71,2.61,2.41,4.69,4.63,6.34c13.77,10.26,29.42,16.74,45.41,22.52
		c2.33,0.84,4.62,0.52,6.42-1.43c2.03-2.19,4.52-4.14,5.95-6.68c6.44-11.37,15.99-20.38,23.11-31.21
		C784.58,1025.5,787.19,1022.07,789.85,1018.35z"/>
	<path class="st0" d="M343.27,1019.18c1.48,10.53-0.47,19.57,1.7,28.65c3.44-3.57,2.89-8.07,3.61-12.63
		c4.93,14.26,1.05,38.51-7.5,51.11c-3.22,0.13-4.1-2.97-6.1-4.52c-2.63-2.03-4.93-4.52-7.72-6.27c-3.49-2.2-6.05-1.55-8.6,1.77
		c-4.5,5.87-7.54,12.55-10.16,19.39c-2.52,6.58-5.84,12.59-11.08,18.06c-10.45-13.21-15.49-29.54-26.55-41.33
		c-4.73,1.16-5.94,5.51-10.54,6.7c1.73-4.92,4.45-8.57,7.31-12.01c2.44-2.93,6.24-2.48,8.4,0.67c1.67,2.43,2.17,5.64,5.55,7.78
		c0.31-6.15-2.91-10.06-6.81-13.29c-1.91-1.59-4.55-0.51-6.43,1.02c-3.38,2.74-6.26,5.93-8.52,9.71c-1.63,2.72-2.81,5.85-6.56,8.66
		c-4.76-18.46-6.52-35.91-1.85-54.83c0.23,2.72,0.29,4.41,0.54,6.07c0.88,5.94,0.57,11.8,3.64,17.69c2.72,5.23,3.8,11.95,0.25,17.8
		c3.24,1.32,4.01-0.24,4.94-1.54c3.84-5.38,7.69-10.76,11.33-15.85c3.13,0.28,3.5,2.31,4.43,4c4.83,8.73,9.76,17.4,14.7,26.06
		c1.14,2,2.3,4.08,5.59,4.81c7.17-6.23,11.04-15.01,15.09-23.64c0.84-1.8,1.3-3.77,2-5.63c1.03-2.75,3.17-4.1,6.52-4.7
		c6.32,7.02,10.83,15.99,19.49,23.27c-0.69-10.6,0.87-19.59,1.85-28.65c0.64-5.89,1.15-11.85-0.77-17.81
		C340.12,1026.89,339.44,1023.31,343.27,1019.18z M299.63,1096.22c6.14-8.88,11.75-17.92,17.32-29.35
		C308.65,1074.14,300.91,1087.3,299.63,1096.22z"/>
	<path class="st0" d="M675.8,1233.17c-1.11,3.65-2.95,4.72-6.09,4.3c-8.88-1.19-17.85-1.87-26.67-3.39
		c-12.14-2.09-24.39-2.75-36.63-3.58c-18.86-1.28-37.7-3.15-56.58-3.84c-23.95-0.87-47.93-0.67-71.9,0.06
		c-15.95,0.49-31.92,0.89-47.61,3.75c-21.21,3.87-42.63,7.28-62.06,17.61c-9.98,5.31-20.35,9.97-27.95,18.81
		c-0.6,0.7-1.64,1.04-2.32,1.45c-2.06-0.38-3.09-1.51-3.51-3.29c0.28-1.78,1.55-2.91,2.85-3.92c16.7-13.02,34.85-23.17,55.54-28.41
		c20-5.06,40.28-8.39,60.8-10.56c17.18-1.82,34.37-4.61,51.62-3.11c24.59,2.14,49.26-0.3,73.79,1.92
		c25.77,2.33,51.5,5.14,77.21,8.06C662.75,1229.76,669.08,1231.71,675.8,1233.17z"/>
	<path class="st0" d="M257.26,448.99c10.01,14.88,19.98,28.56,33.01,39.97c-4.49,5.98-8.63,11.48-13.06,17.37
		c-4.43-3.84-5.54-9.96-10.79-13.75c-11.95,1.13-21.42,9.89-33.16,14.49c-1.39-10.24,0.05-20.69-10.15-26.36
		c0.35-2.27,0.97-4.22,0.88-6.14c-0.36-7.34,3.67-10.09,10.2-12.27C242.33,459.58,249.63,454.68,257.26,448.99z"/>
	<path class="st0" d="M184.24,387.63c15.99-11,29.91-23.18,43.5-38.59c-5.07,1.18-6.34,4.44-8.56,6.3c-2.8,2.34-5.52,4.78-8.24,7.21
		c-2.48,2.2-4.87,4.51-7.39,6.66c-2.53,2.16-5.14,4.22-7.77,6.25c-2.89,2.24-5.75,4.54-8.79,6.55c-2.7,1.77-5.17,4.09-8.47,4.88
		c-2.35-6.86-1.21-12.28,3.42-15.87c3.15-2.44,6.51-4.61,9.81-6.84c22.98-15.54,36.68-36.97,40.97-64.4
		c0.15-0.94,0.62-1.83,1.02-2.71c0.11-0.25,0.51-0.38,1.16-0.83c2.33,2.51,1.75,5.91,2.24,8.76c2.62,15.22,2.14,30.42-1.24,45.51
		c-0.29,1.28-0.73,2.57-1.36,3.71c-6.74,12.28-14.6,23.75-24.24,33.98c-3.6,3.83-7.57,5.57-12.41,3.35
		C193.9,389.73,189.12,391.6,184.24,387.63z"/>
	<path class="st0" d="M373.83,821.76c-6.61,0.55-13.11,3.04-19.46-0.56c-1.08-0.61-1.5-0.11-2.36,0.21
		c-7.67,2.87-15.46,1.35-23.9,0.95c4.6-11.71,8.93-22.75,13.73-34.99c0.98-1.49,4.51,0.5,6.48-1.84c-1.87-0.79-3.67-1.55-6.05-2.56
		c1.08-7.83-2.25-15.19-3.52-23.16c5.39-3.64,10.64-6.94,17-9.34c5.59,9.3,11.3,18.02,10.26,29.54c-0.98,10.79,1.9,21.09,5.7,31.14
		C372.85,814.19,375.07,817.02,373.83,821.76z"/>
	<path class="st0" d="M713.16,1254.4c7.1-6.22,14.35-12.52,21.54-18.91c2.51-2.23,5.19-4.17,8.29-5.47
		c5.98-2.51,9.52-0.69,10.8,5.82c0.57,2.91,0.58,5.95,0.74,8.93c0.1,2.01,0.29,3.91,0.41,4c2.57,1.43,3.2,1.17,3.18,0.26
		c-0.2-7.82,2.67-14.75,5.42-21.92c4.63-12.07,8.17-24.56,8.95-37.62c0.43-7.25,2.53-14.44,0.89-21.79
		c-2.2-0.72-2.79,0.81-3.45,2.38c-1.42,3.37-3.07,6.64-4.37,10.05c-5.86,15.37-17.12,26.02-30.97,33.8
		c-9.85,5.53-21.04,6.13-32.04,4c-4.88-0.94-10.27-2.39-11.68-8.71c0.96-0.24,1.71-0.69,2.17-0.49c16.95,7.42,32.15,3.19,47.11-6.11
		c11.94-7.43,19.33-17.87,23.9-30.79c2.2-6.21,4.1-12.57,7.51-18.61c3.56,1.59,3.84,5.18,4.09,7.6c0.75,7.15,2.71,14.23,1.11,21.62
		c-1.54,7.13-0.73,14.54-2.09,21.79c-0.92,4.93-1.82,9.82-3.72,14.44c-4.42,10.77-8.21,21.76-11.06,33.04
		c-0.74,2.92-2.18,4.52-5.03,5.26c-1.57-4.8-2.81-9.63-4.72-14.18c-2.77-6.62-5.61-7.43-11.46-3.28
		c-5.41,3.84-10.67,7.92-14.36,13.65c-1.79,2.77-3.32,5.8-6.6,8.07c-16.07-4.89-32.27-11.15-49.45-8.42
		c-2.23-2.78-2.19-5.22-0.63-7.01c1.76-2.02,4.51-2.89,7.22-2.5c8.53,1.22,17.02,2.53,25.01,6.2
		C704.01,1251.42,708.04,1253.97,713.16,1254.4z"/>
	<path class="st0" d="M1255.73,858.45c7.14,8.65,16.92,14.54,24.45,22.63c-1.55,2.38-3.2,1.44-4.7,1.17
		c-0.65-0.12-1.25-0.62-1.88-0.64c-17.52-0.66-32.15-9.7-47.59-16.37c-4.28-1.85-8.46-3.89-12.7-5.82
		c-14.77-6.73-21.9-12.91-31.86-27.79c1.84-2.08,4.15-1.15,6.26-0.81c11.23,1.79,22.15,4.78,32.36,9.77
		c10.44,5.1,21.33,9.31,31.28,15.41c0.81,0.5,1.91,0.52,2.88,0.76C1254.72,857.32,1255.23,857.88,1255.73,858.45z"/>
	<path class="st0" d="M275.24,525.49c-2.21,0.07-2.53-1.53-2.96-3.19c-1.76-6.69-3.59-13.37-6.57-19.35
		c-3.13-0.74-4.97,1.04-6.66,2.43c-11.12,9.1-21.06,19.06-26.68,32.82c-6.99,17.12-14.69,33.96-22.2,51.18
		c-2.69-0.65-2.14-3.05-2.57-4.55c-3.91-13.59-4.83-27.28-1.78-41.25c1.49-6.82,4.78-12,9.93-16.67
		c12.47-11.3,27.88-17.81,41.85-26.65c1.94-1.23,4.01-2.25,6.66-3.72c6.45,8.84,9.68,18.57,10.84,29.14L275.24,525.49z"/>
	<path class="st0" d="M130.79,1166.92c-2.77-10.69-3.05-20.14-2.49-29.61c2.54-0.6,2.04,3,6.25,1.14
		c8.9-5.49,20.59-9.54,33.47-10.33c5.93-0.36,11.85-1.01,17.8-1.4c7.65-0.5,14.89-2.97,21.24-7.59c1.45-1.05,2.27-3.21,4.79-2.83
		c-1.7,15.54-11.01,24.33-25.45,27.79c-7.99,1.92-15.91,4.44-24.41,4.31c-6.42-0.1-12.14,3.19-17.44,6.65
		C139.86,1158.12,135.38,1161.52,130.79,1166.92z"/>
	<path class="st0" d="M884.16,752.71c2.81-3.04,5.74-2.42,8.17-3.21c4.94-1.61,9.64-1.52,13.67,2.8c2.74,2.94,6.56,4.5,10.44,5.58
		c16.61,4.62,32.89,10.39,49.95,13.41c3.71,0.66,7.06,0.84,10.73,0c6.14-1.4,12.45-2.02,18.57-3.47c2.51-0.6,4.72-0.69,6.59,0.75
		c3.27,2.52,6.89,4.41,12.86,6.62c-13.13,2.75-23.95,5.02-34.76,7.29c-2.27,0.48-4.55,0.91-6.81,1.45c-4.6,1.11-8.95,1.03-13.66-0.4
		c-11.1-3.37-22.39-6.08-33.63-8.95c-5.78-1.48-11.27-3.9-16.93-5.52C899.3,766.16,892.19,759.5,884.16,752.71z"/>
	<path class="st0" d="M276.14,377.38c-3.48,6.77-6.6,13.75-10.5,20.26c-6.98,11.65-15.74,21.07-30.12,23.84
		c-7.11,1.37-13.89,4.4-20.82,6.71c-2.99,1-5.84,1.19-8.48-0.94c-3.31-2.67-7.98-3.44-10.49-7.43c3.11-6.26,6.18-12.44,9.61-19.34
		c25.83,0.35,49.3-7.34,69.08-25.38C274.99,375.86,275.57,376.62,276.14,377.38z M202.69,419.53c12.32,1.54,36.53-5.02,44.38-10.16
		c-1.09-0.97-2.4-0.92-3.69-0.58C229.81,412.35,216.25,415.94,202.69,419.53z"/>
	<path class="st0" d="M315.39,826.99c1.68-1.16,3.69-0.39,5.53-0.08c12.83,2.2,25.76,1.31,38.65,1.26
		c7.57-0.03,15.16-0.84,22.54-2.69c2.89-0.72,5.52-0.74,6.71,2.3c2.62,6.69,4.51,13.59,5.54,21.01c-5.66,1.8-10.59,1.41-15.4,1.4
		c-13.53-0.04-27.08,0.62-40.6-0.74c-2.77-0.28-5.18-0.36-6.9-2.82c-4.39-6.3-10.18-11.32-15.38-16.88
		C315.42,829.05,314.74,828.24,315.39,826.99z"/>
	<path class="st0" d="M781.9,1120.12c4.62-14.44,9.85-28.03,14.52-41.84c3.3-9.77,4.02-18.32-1.87-27.09
		c-3.09-4.6-2.11-8.78,2.86-12.17c4.94,6.3,7.11,14.04,10.73,21c1.42,2.72,0.44,5.91-0.16,8.81c-1.41,6.8-2.77,13.55-5.81,19.97
		c-3.26,6.88-5.53,14.22-8.32,21.33c-2.67,6.8-3.3,14.09-4.91,21.81c-17.13-5.68-33.2-12.19-48.56-21.01
		c-10.95-6.28-18.08-13.87-19.2-26.66c-0.33-3.79-2.38-7.4-1.9-11.53c3.66,0.24,5.71,2.57,8.25,3.99c0.64,1.94,1.53,3.78,1.85,5.72
		c1.3,7.96,5.72,13.64,11.81,18.78c10.64,8.97,22.94,14.48,35.9,18.84C778.27,1120.46,779.69,1120.12,781.9,1120.12z"/>
	<path class="st0" d="M568.54,1098.19c3.53-4.63,7.36-7.26,10.77-10.16c0.87,0.29,1.7,0.3,2.09,0.73
		c8.41,9.11,19.42,12.06,31.18,13.55c4.45,0.57,8.72,1.25,12.36,5.09c2.77,2.91,7.42,2.2,11.02-0.31c9.93-6.92,21.03-7.2,32.28-5.21
		c9.9,1.75,18.61,6.78,27.39,11.47c10.47,5.59,15.07,15.12,17.29,26.46c-1.57-2.14-3.11-4.31-4.72-6.43
		c-8.37-11.01-18.05-20.18-31.67-24.62c-4.6-1.5-8.89-2.16-13.58-1.3c-12.06,2.23-24.04,4.53-35.73,8.53
		c-17.73,6.07-33.99,2.28-48.6-9.11C575.26,1104.25,572.14,1101.3,568.54,1098.19z"/>
	<path class="st0" d="M854.95,1048.82c8.17-0.23,9.51-7.78,13.7-12.05c7.04-1.26,13.12,0.94,20.34,3.5
		c-4.88,5.34-7.58,10.87-10.3,16.41c-0.82,1.68-2.42,3.28-4.06,4.23c-18.84,10.95-38.58,12.76-59.56,5.71
		c0.34-7.99-5.95-13.72-6.93-21.44c4.33-1.28,7.56,0.97,10.96,1.85c6.73,1.75,13.31,4.16,20.1,5.59c2.81,0.59,4.48,1.26,6.23,3.74
		c2.13,3.02,5,2.27,7.03-1.06c0.34-0.56,0.63-1.17,0.86-1.79C853.78,1052.28,854.19,1051.03,854.95,1048.82z"/>
	<path class="st0" d="M140.52,372.75c-3.2,2.05-5.66,3.45-9.66,3.64c3.44-13.34,6.08-26.3,12.25-38.02
		c11.92-22.63,6.71-17.79,31.59-32.6c3.28-1.95,6.92-3.29,11.02-4.29c-17.12,18.8-27.27,40.02-25.71,66.15
		c-4.83,2.03-9.27,3.73-14.65,2.77c-2.8-11.03,3.35-20.59,4.41-30.91C142.59,349.31,140.24,360.48,140.52,372.75z"/>
	<path class="st0" d="M1266.6,950.72c2.77-4.81,5.24-9.11,7.87-13.68c7.91-0.72,14.05,1.84,18.14,9.09
		c3.93,6.97,9.49,11.94,18.12,12.7c4.41,7.88,8.58,15.76,10.61,25.31c-5.28,0.67-10.35,1.31-15.59,1.98
		c-2.03-4.3-2.1-8.76-4.29-12.57c-3.62-6.3-8.26-10.38-16.04-9.3c-0.99,0.14-2.02,0.02-2.98,0.23c-4.67,1.05-7.53-1.13-9.78-4.99
		C1271,956.64,1268.91,954.02,1266.6,950.72z"/>
	<path class="st0" d="M919.02,1267.47c-3.38,5.25-7.91,7.37-14.29,6.46c-18.37-2.63-36.79-4.91-55.17-7.45
		c-23.97-3.31-47.93-6.75-71.89-10.09c-4.27-0.6-8.43-1.52-12.17-2.99c-1.33-3.34-0.24-5.02,2.76-5.06c2.3-0.03,4.66,0.3,6.92,0.83
		c17.18,4.01,34.75,5.05,52.19,7.08c3.95,0.46,7.87,1.17,11.81,1.71c16.09,2.19,32.16,4.59,48.29,6.43
		c6.91,0.78,13.95,0.4,20.93,0.48C912.06,1264.91,915.75,1264.67,919.02,1267.47z"/>
	<path class="st0" d="M531.69,1071c-2.29-4.97-1.82-9.19-1.49-14.21c7.21-0.91,13.24-4.91,19.34-8.69
		c11.63-7.19,23.89-13.08,36.72-17.69c5.07-1.82,8.58-4.72,10.56-9.64c2.85-7.07,5.88-14.08,8.57-21.21
		c1.43-3.77,3.94-4.79,8.34-4.56c-4.9,13.55-11,26.09-11.85,40.23c-12.45,5.29-24.67,10.38-36.81,15.67
		C553.27,1056.05,542.63,1063.27,531.69,1071z"/>
	<path class="st0" d="M919.93,1340.53c3.37-4.76,7.27-6.23,11.09-7.72c1.21-0.47,2.68-0.25,3.91-0.68
		c12.47-4.3,23.53-1.18,33.66,6.43c3.22,2.42,6.44,4.12,10.6,3.31c0.9-0.18,2.19,0.42,2.77-0.03c7.73-5.93,17.4-5.12,26.07-7.74
		c4.41-1.33,7.68-0.02,10.94,2.69c2.5,2.08,4.42,4.99,8.54,6.26c0.43-5.63-2.3-11.31,2.24-16.42c0.92,10.67,7.95,21.8-5.44,30.34
		c-4.26-1.85-6.74-6.1-10.52-8.68c-3.73-2.55-6.88-4.01-11.84-2.37c-5.64,1.86-11.42,3.42-17.03,5.44
		c-5.66,2.04-10.69,2.25-15.51-2.61c-3.46-3.49-8.14-5.73-12.01-8.86c-8.48-6.85-17.68-6.56-27.23-3.07
		C927.2,1337.92,924.56,1340,919.93,1340.53z M983.52,1345.66c8.19-0.71,15.27-3.22,17.64-6.25
		C991.94,1339.34,989.84,1340.08,983.52,1345.66z"/>
	<path class="st0" d="M1081.43,1213.77c20.94-7.62,42.76-10.93,66.14-13.91c-5.64,7.36-11.88,12-17.63,17.11
		c-0.92,0.81-2.39,1.03-3.63,1.45c-9.08,3.11-18.16,6.2-27.79,9.49c-8.74-3.32-18-6.52-27.66-8.1c0.12-3.8,4.83-2.32,5.39-5.31
		C1077.89,1213.64,1079.63,1213.47,1081.43,1213.77z"/>
	<path class="st0" d="M1186.88,920.93c5.22,5.38,10.82,9.98,17.19,13.59c3.57,2.02,7.12,3.44,11.19,0.98
		c1.34-0.81,3.15-0.97,4.78-1.14c11.33-1.23,15.62,1.76,19.33,13.35c-0.86,2.12-2.83,2.52-4.71,3.2c-4.03,1.45-8.16,2.77-11.94,4.73
		c-2.72,1.41-5.03,1.03-7.57,0.13c-6.54-2.32-13.02-4.83-19.66-6.84c-4.25-1.29-6.82-3.55-7.82-7.95
		c-1.18-5.15-2.63-10.24-4.22-15.28C1182.63,923.09,1183.78,922.02,1186.88,920.93z"/>
	<path class="st0" d="M1275.03,897.78c-6.38-3.02-13.42-3.4-20.18-4.81c-3.3-0.69-6.48-1.31-9.13-3.53
		c-6.46-5.41-14.17-8.68-21.75-11.96c-13.75-5.97-26.7-13.4-39.29-21.39c-6.15-3.9-9.74-10.63-14.59-15.94
		c0.93-3.36,1.72-6.18,2.56-9.21c3.78,1.63,5.77,4.73,8.19,7.4c3.77,4.17,7.24,8.56,11.33,12.5c6.3,6.09,13.16,10.86,21.26,14.22
		c14.38,5.96,28.59,12.36,42.86,18.6c1.83,0.8,3.6,1.81,5.67,1.52c4.13-0.56,7.62,1.66,12,2.16c-2.13,4.07,1.2,7.06,0.95,10.58
		L1275.03,897.78z"/>
	<path class="st0" d="M645.26,1318.72c-3.9-5.27-6.95-9.59-10.21-13.75c-3.44-4.39-7.73-6.28-13.1-3.42
		c-1.91,1.02-3.67,1.47-5.62-0.4c0.5-5.9,5.54-6.8,9.82-7.91c4.39-1.13,8.5,0.05,11.6,3.84c3.56,4.35,6.73,9.07,11.18,12.53
		c2.59,0.82,4.67-0.71,6.75-1.44c7.17-2.52,13.06-0.51,18.14,4.59c3.51,3.53,6.71,7.36,10.15,10.97c1.99,2.09,4.01,4.3,7.22,4.11
		c1.17-1.46,0.58-2.7-0.1-3.83c-1.52-2.55-1.34-4.82,0.19-7.44c3.67-6.29,7.02-12.76,10.54-19.23c3.76-0.92,5.04,1.24,4.31,4.31
		c-0.91,3.85-2.51,7.56-3.95,11.27c-2.65,6.82-5.74,13.43-10,19.44c-1.33,1.88-2.49,3.98-5.31,4.14c-2.9-1.13-3.93-4.29-6.25-6.15
		c-2.33-1.86-4.26-4.23-6.65-5.99C665.42,1318.07,656.51,1313.1,645.26,1318.72z"/>
	<path class="st0" d="M1238.5,935.1c-10.28-6.26-19.67-6.37-28.9-1.2c-6.74-4.13-13.06-8.31-18.55-14.04
		c0.46-3.52,1.43-7.06-0.57-10.83c9.21-3.72,18.11-2.69,27.12-2.55c4.17,6.17,9.05,11.31,15.54,15.08
		C1237.41,924.05,1237.56,929.08,1238.5,935.1z"/>
	<path class="st0" d="M269.51,1270.04c-3.56-5.95-3.11-11.55-2.56-17.97c7.78,3.05,11.34,9.87,16.16,15.81
		c6.85-7.13,14.9-10.32,24.42-9.68c4.14,0.28,7.77-1.52,11.42-3.12c3.33-1.46,6.64-2.99,9.96-4.49c0.29,9.98-4.72,17.17-13.36,20.26
		C300.14,1276.34,284.96,1275.3,269.51,1270.04z"/>
	<path class="st0" d="M134.7,1226.63c-0.72-9.54-0.49-9.96,6.12-13.06c6.82-3.2,13.86-4.75,21.2-2.26c3.41,1.16,6.43,0.82,9.6-0.62
		c7.55-3.44,15.17-6.72,20.99-12.96c1.09-1.17,2.49-2.06,3.66-3c2.53,1.75,0.89,3.02,0.15,4.28c-3.34,5.72-6.58,11.45-11.22,16.37
		c-5.82,6.17-12.59,9.63-21.08,9.45c-6.35-0.13-12.51,0.34-18.44,3.09C142.59,1229.37,142.41,1228.96,134.7,1226.63z"/>
	<path class="st0" d="M85.14,567.85c-2.89-24.3,0.84-45.19,9.63-65.67c4,1.97,6.68,4.38,9.57,7.37c-1.43,7.75,1.26,15.34,3.05,23.42
		C97.01,541.79,91.69,553.94,85.14,567.85z"/>
	<path class="st0" d="M1000.36,871.08c-10.15,5.4-20.63,5.74-30.57,7.85c-5.13,1.08-9.95-2.79-14.55-4.61
		c-0.84-3.43,1.45-4.65,3.03-6.15c3.59-3.43,7.36-6.66,10.94-10.11c6.13-5.91,14.85-6.98,21.52-2.04
		C995.58,859.61,999.09,864.35,1000.36,871.08z"/>
	<path class="st0" d="M907.76,746.81c28.85-3.28,54.49,6.68,80.46,17.21c-6.47,1.39-12.92,2.9-19.43,4.09
		c-1.51,0.28-3.27-0.33-4.83-0.81c-16.47-5.08-32.95-10.14-49.35-15.44C912.33,751.13,909.15,751.22,907.76,746.81z"/>
	<path class="st0" d="M1246.69,966.05c4.2,2.24,6.89-0.34,9.44-3.05c2.25-2.4,3.69-5.56,7.33-7.4c5.01,2.77,7.54,8.57,13.21,12.66
		c2.98,0,6.95,0.18,10.89-0.05c4.18-0.24,6.92,1.53,8.88,5.06c2.24,4.03,4.91,7.92,3.39,13.26c-4.59,2.46-8.77,3.18-13.87,0.36
		c-11.01-6.09-22.08-12.16-33.87-16.7c-2.31-0.89-3.46-2.89-5.15-4.37L1246.69,966.05z"/>
	<path class="st0" d="M138.23,440.53c-2.79,0.05-4.13,1.38-4.27,4.26c-0.16,3.28,0.58,6.64-0.71,9.83
		c-0.11,0.27-0.42,0.46-0.63,0.69c-0.63,0.05-1.32,0.29-1.89,0.12c-3.16-0.94-6.22-2.37-9.44-2.88c-3.5-0.55-4.31,3.73-7.1,4.87
		c-3.39,1.4-6.81,2.57-10.47,2.97c-5.59,0.61-11.16,1.58-16.77,1.81c-4.17,0.18-7.94,0.55-9.96,4.97
		c-10.23-5.64-11.47-13.78-9.64-23.86c5.51,0.32,10.21-2.03,14.75-4.08c2.12,1.45-0.03,3.24,1.03,4.53
		c1.62,2.07,3.75,0.08,5.27,0.54c0.97,0.54,0.9,1.1,0.86,1.87c-0.32,6.67,1.65,9.96,7.39,10.43c7.58,0.63,15.42,1.18,21.06-5.8
		c0.61-0.75,1.51-1.28,2.31-1.86c0.25-0.19,0.62-0.21,1.45-0.48c2.36,0.88,5.11,1.91,8.08,3.02c1.98-4.06,0.21-8.97,3.61-12.51
		c1.87-0.5,3.67-0.28,4.82,1.82L138.23,440.53z"/>
	<path class="st0" d="M983.12,883.2c7.01-2.37,14.16-3.62,20.89-6.35c6.39-2.59,11.72-7.48,18.97-8.82
		c3.93,5.46,4.51,11.75,5.46,17.86c1.8,11.61,1.19,12.08-10.28,8.83c-9.55-2.71-19.08-5.47-28.63-8.2
		C987.3,885.88,985.04,885.33,983.12,883.2z"/>
	<path class="st0" d="M914.28,851.73c-0.35-3.67,1.06-5.58,2.16-7.89c7.34-2.41,14.81-4.86,22.87-7.51
		c5.8,10.99,8.11,22.74,11.3,35.95C936.99,865.94,925.12,859.85,914.28,851.73z"/>
	<path class="st0" d="M129.94,824.73c-0.36-1.56-0.55-2.2-0.65-2.85c-0.03-0.21,0.14-0.46,0.22-0.69c0.64-0.05,1.41-0.36,1.89-0.11
		c8.33,4.31,16.52,3.43,24.95-0.01c9.81-4.01,20.04-7,29.5-11.92c0.4-0.21,1.16,0.29,2.31,0.63c-5.38,3.23-10.43,6.26-15.39,9.23
		c0.34,2.86,2.72,1.11,3.77,2.06c0.77,0.34,0.77,0.87-0.1,1.34c-10.19,5.55-20.39,11.08-30.76,16.71
		c-12.57-5.76-24.16-12.6-36.04-23.21C118.16,817.55,122.5,823.46,129.94,824.73z"/>
	<path class="st0" d="M1255.73,858.45c-0.5-0.56-1.01-1.12-1.51-1.69c-0.24-1.25-1.86-2.01-0.98-4.38
		c15.75,1.68,30.66,6.69,44.62,14.21c5.88,3.16,13.13,5.4,15.67,12.98c-3,1.71-5.25-0.64-7.66-1.23c-5.25-1.28-10.52-2.31-15.73-0.8
		c-4.46,1.3-7.55,0.11-10.72-2.99c-6.21-6.07-13.9-10.25-20.85-15.38C1257.84,858.63,1256.68,858.67,1255.73,858.45z"/>
	<path class="st0" d="M182.82,455.43c4.21-6.94,13.41-9.54,15.13-18.79c-4.13-4.69-11.85-6.32-13.26-13.99
		c0.26-6.6,6.38-11.11,7.93-18.02c-8.19-5.61-18.7-4.84-27.01-10.67c1.2-5.78-1.87-12.71,5.5-16.59c1.32,1.74,0.83,3.41,0.67,5.03
		c-0.88,8.7,0.23,10.32,8.85,12.04c4.88,0.97,9.82,1.63,14.73,2.45c1.55,0.26,3.35-0.17,4.84,2.05c-2.25,7.51-5.89,14.86-9.56,22.1
		c1,3.2,3.54,4.88,5.75,6.87c2.2,1.99,5.47,2.5,7.38,5.53c-0.67,8.95-9.22,13.13-12.64,19.48c-1.84,3.98,2.04,5.99,1.6,8.96
		c-0.73,0.28-1.45,0.85-1.9,0.68C187.29,461.22,185.06,458.43,182.82,455.43z"/>
	<path class="st0" d="M1027.43,1287.49c1.06,10.48-8.54,12.74-12.68,19.4c-11.59-4.12-23-6.03-34.32-8.35
		c-18.33-3.76-36.55-6.08-54.56,0.13c-3.05-2.83-1.64-4.46,1.04-5.22c7.69-2.19,15.59-3.18,23.57-3.18c6.63,0,13.27,0.49,19.9,0.58
		c3.08,0.04,6.5,2.28,9.23-1.24c0.36-0.46,1.89-0.32,2.75-0.05c9.77,3.1,19.52,6.24,29.22,9.53c0.6,0.2,0.77,1.7,1.27,2.93
		C1019.48,1299.14,1021.74,1291.85,1027.43,1287.49z"/>
	<path class="st0" d="M1231.74,914.96c-5.22-2.74-7.49-5.45-9.42-8.34c-2.3-3.45-5.36-4.48-9.32-4.41
		c-7.27,0.13-14.5,0.44-21.43,1.95c-3.35-2.57-4.56-5.31-2.63-8.88c2.33-4.32,4.72-8.6,7.29-13.26c7.45,1.87,14.21,4.37,20.62,7.79
		c1.14,0.61,2.36,1.41,3.06,2.45C1224.3,898.81,1227.73,905.85,1231.74,914.96z"/>
	<path class="st0" d="M1071.26,811.24c-1.89,2.88-3.99,1.77-5.76,1.27c-9.26-2.64-18.49-5.42-27.72-8.17
		c-0.63-0.19-1.34-0.38-1.81-0.8c-1.74-1.53-3.69-2.95-5.03-4.8c-4.23-5.82-10.77-9.81-13.94-16.96c4.42-1.43,7.97-1.05,11.74,0.94
		c8.54,4.53,16.91,9.23,24.5,15.29C1059.08,802.67,1065.27,806.87,1071.26,811.24z"/>
	<path class="st0" d="M1016.15,844.8c1.97,5.43,3.75,10.31,5.73,15.75c-5.39,3.16-10.41,6.1-15.76,9.23
		c-4.66-4.74-6.3-11.19-11.01-15.3c-4.66-4.06-10.84-4.45-16.6-6.42c2.28-4.44,5.36-7.82,8.51-11.15
		C1001.1,848.3,1001.1,848.3,1016.15,844.8z"/>
	<path class="st0" d="M1069.15,901.62c-4.52,4.01-9,4.55-14.24,2.88c-7.25-2.31-14.69-4.07-22.21-6.1
		c7.83-9.42,22.57-15.23,37.98-15.21C1072.49,888.61,1072.49,888.61,1069.15,901.62z"/>
	<path class="st0" d="M533.23,1123.05c-4.72-9.2-4.24-11.14,3.82-16.18c9.58-5.99,17.88-13.59,26.3-21.04
		c3.5-3.09,4.96-6.68,4.61-11.39c-0.39-5.24,0.22-10.53-0.83-15.44c1.47-2.09,3.11-2.98,5.3-2.72c0.41,0.45,1.14,0.89,1.16,1.35
		c0.36,7.6,0.57,15.21,0.94,22.81c0.16,3.28-1.15,5.52-3.61,7.67c-8.97,7.83-17.64,16-26.65,23.77
		C540.3,1115.3,538.27,1120.66,533.23,1123.05z"/>
	<path class="st0" d="M1297.43,993.71c5.56-0.94,8.74-1.47,11.92-2.02c7.61-1.32,8.82-0.85,12.86,5.89
		c1.87,3.12,3.37,6.47,5.04,9.71c1.21,2.34,2.05,4.95,5.06,6.37c0.6-0.05,1.55-0.14,2.5-0.22c8.25-0.73,12.68,2.1,14.97,9.64
		c0.38,1.25,0.71,2.62,0.61,3.91c-0.23,2.95,2.37,5.66,0.41,9.16c-6.99-2.83-9.84-10.24-15.7-14.33
		c-6.21-4.34-11.46-10.04-17.52-14.64C1311.82,1002.81,1305.57,999.1,1297.43,993.71z"/>
	<path class="st0" d="M122.32,726.62c3.25-0.97,5.63,1.66,8.54,2.07c3.06,0.44,2.36-2.28,3.25-3.99
		c14.96,0.17,29.39-3.41,43.78-7.49c6.14-1.74,11.84-5.42,19.03-3.08c3.42,1.11,7.03-3.14,12.35-2.94
		c-9.93,6.43-19.95,9.65-29.91,12.83c-10.43,3.33-21.12,5.82-31.6,8.99c-9.89,2.99-17.87-0.47-25.26-6.61L122.32,726.62z"/>
	<path class="st0" d="M933.8,1359.81c1.55,7.6,0.32,15.04,0.17,22.01c-6.97,6.65-13.58,12.96-20.35,19.43
		C908.12,1382.88,914.44,1368.53,933.8,1359.81z"/>
	<path class="st0" d="M938.71,1257.36c0.05-1.54,0.93-2.2,2.34-2.7c9.43-3.29,18.92-6.16,29.08-5.81c1.61,0.06,3.23-0.22,5.22-0.37
		c-0.33-1.32-0.54-2.16-0.76-3.01c0.5-0.16,1.18-0.65,1.65-0.5c6.67,2.12,13.87,1.01,20.5,3.43c2.34,0.85,4.61,0.14,6.45-1.58
		c2.42-2.26,4.81-4.57,7.39-7.02c1.63,0.9,3.19,1.76,5.18,2.86c-3.59,5.17-6.46,10.72-11.22,15.43
		c-21.93-4.15-43.95-6.03-66.03-1.06L938.71,1257.36z"/>
	<path class="st0" d="M188.38,1234.41c1.59,3.09,2.64,5.11,3.71,7.17c-0.7,0.89-1.2,1.81-1.95,2.41c-2.42,1.95-5.28,2.86-8.35,2.83
		c-10.64-0.13-21.3,0.6-31.93-0.5c-4.87-0.5-9.6-1.26-14.58-5.7c12.39,2.59,23.68,2.08,34.83,3.33c0.47,0.05,1.03-0.7,1.53-1.07
		c0.14-1.76-1.05-2.38-2.4-2.41c-6.64-0.15-13.11-1.84-19.81-1.74c-7.39,0.11-14.42-2.06-21.03-5.42c-1.5-0.76-2.88-1.72-3-4.39
		C145.98,1233.92,166.51,1239.08,188.38,1234.41z"/>
	<path class="st0" d="M646.4,1279.36c-0.42-3.7,0.28-5.85,3.76-6.43c7.76-1.31,15.19-0.24,22.45,2.64
		c9.88,3.92,19.6,8.33,30.34,9.52c0.64,0.07,1.25,0.42,1.88,0.64c2.11,0.75,3.42,1.99,2.75,4.46c-0.69,2.52-2.77,2.88-4.72,2.44
		c-7.12-1.6-14.25-3.21-21.26-5.24c-8.64-2.49-17.3-4.71-26.31-5.22C652.24,1282,649.51,1280.88,646.4,1279.36z"/>
	<path class="st0" d="M249.81,1340.91c6.51-1.28,11.95,0.45,17.28,2.09c7.92,2.44,15.82,5.03,23.49,8.15
		c11.02,4.48,19.22,12.24,24.99,21.7c-1.4,3.67-3.06,5.11-5.53,5.52c-0.65-0.24-1.45-0.29-1.82-0.71
		c-5.45-6.3-11.04-12.4-18.89-15.84c-0.6-0.26-1.27-0.6-1.65-1.1C278.46,1348.47,263.78,1346.82,249.81,1340.91z"/>
	<path class="st0" d="M261.07,1279.12c12.24,5.05,24.66,6.9,38.32,5.16c-1.13-1.31-1.67-1.95-2.89-3.37
		c13.06-1.15,25.51-3,37.79-5.84c2.04,1.54,1.69,3.46,0.65,5.3c-1.84,3.28-4.3,5.67-8.28,6.49c-15.05,3.1-30.15,3.05-45.27,0.83
		c-4.24-0.62-8.37-2.05-12.61-2.65C265.16,1284.52,262.77,1282.57,261.07,1279.12z"/>
	<path class="st0" d="M138.98,1108.12c-2.35,0.93-4.2,0.89-6.18-1.38c1.54-6.2,6.01-11.63,7.36-18.31
		c1.38-6.79,3.8-13.35,5.26-20.13c1.39-6.45,2.04-13.07,3.19-19.58c1.18-6.66-0.13-13.65,2.36-20.1c3.39,0.25,4.19,2.68,4.55,4.86
		c0.48,2.91,0.8,6.04,0.28,8.9c-3.2,17.51-4.46,35.47-12.18,51.97C141.56,1098.78,140.45,1103.66,138.98,1108.12z"/>
	<path class="st0" d="M846.19,1392.84c-0.23-19.16,9.41-30.63,23.65-40.76c1.55,7-0.28,13.06,0.15,19.05
		c0.12,1.68-0.93,3.19-2.24,4.26C860.96,1380.95,854.11,1386.44,846.19,1392.84z"/>
	<path class="st0" d="M1022.09,1220.42c0.79-14.28-0.24-28.48-1.21-42.74c-0.86-12.59-2.37-25.09-3.14-37.62
		c-2.4-0.47-3.01,1.06-3.49,2.68c-1.13,3.78-2.46,7.45-5.72,11.13c-0.02-5.85,2.69-10.23,3.8-14.96c1.13-4.81,3.12-9.42,4.74-14.15
		c1.81,0.56,2.47,2,2.75,3.57c2.99,16.98,5.84,33.91,6.25,51.28c0.3,12.69,0.18,25.19-2.29,37.65c-0.26,1.34-0.3,2.59-1.9,2.95
		L1022.09,1220.42z"/>
	<path class="st0" d="M141.25,1323.36c1.84,5.37,4.76,9.38,8.12,13.55c-4.25,2.76-7.91,0.28-11.47-0.29
		c-3.56-0.56-9.01-1.39-9.54-4.24c-1.01-5.45-5.04-7.18-8.36-9.66c-6.11-4.57-12.4-8.95-19.35-12.27
		c-4.16-1.99-8.06-4.44-11.07-7.93c1.04-3.08,3.02-2.65,4.83-1.8c1.48,0.69,2.76,1.83,4.11,2.8
		C111.32,1312.75,125.33,1319.4,141.25,1323.36z"/>
	<path class="st0" d="M988.36,1123.02c-0.77,7.73,0.18,15.7-4.67,22.37c-2.83-0.07-4.76-1.1-6.28-3.46
		c3.56-10.83,7.04-21.79,7.26-33.34c3.31-0.64,3.25,2.02,4.08,3.58c3.42,6.4,6.59,12.94,10.12,19.28c2.62,4.7,2.8,9.29,0.36,14.29
		c-2.84,1.88-6.07,1.21-10.18,0.52C990.24,1138.53,993.47,1130.68,988.36,1123.02z"/>
	<path class="st0" d="M1081.43,1213.77c-1.8-0.3-3.54-0.13-5.17,0.74c-2.66,0.09-5,0.33-6.52-2.97c-3.06-6.62-7.39-12.46-13.1-17.35
		c9.84-3.89,26.01,0.82,39.76,11.32C1092.09,1209.52,1084.66,1207.84,1081.43,1213.77z"/>
	<path class="st0" d="M185.11,314.93c5.53,11.04,10.96,21.9,16.2,32.36c-2.52,5.74-7.06,7.88-11.78,11.52
		c-1.31-4.79-2.38-8.8-3.5-12.79c-1.97-7.03-4.1-14.02-5.93-21.08C178.85,320.11,179.02,320.06,185.11,314.93z"/>
	<path class="st0" d="M201.1,462.08c-1.91-2.82-3.75-5.52-5.97-8.79c5.76-2.84,9.25-7.75,14.04-11.83
		c8.65,8.7,19.57,10.18,31.9,9.45C233.4,457.93,216.61,462.47,201.1,462.08z M218.43,455c-5.59-0.59-11.18-1.18-16.78-1.77
		C206.75,458.8,212.59,456.81,218.43,455z"/>
	<path class="st0" d="M1149.39,1207.48c-4.95,8.48-9.17,17.03-19.19,21.16c-9.27,3.82-19.06,5.55-28.43,8.8
		c-1.33,0.46-2.51,0.52-3.84,0.14c-4.45-1.3-8.93-2.49-13.37-3.82c-1.34-0.4-1.29-0.54-2.02-5.02
		C1108.74,1234.04,1129.94,1223.8,1149.39,1207.48z"/>
	<path class="st0" d="M94.46,437.03c-0.89-3.24,1.68-3.59,3.26-4.18c5.67-2.13,10.68-5.39,15.8-8.51c4.9-2.99,9.67-6.04,9.03-12.72
		c2.95-0.05,3.37,1.54,3.31,3.24c-0.1,2.57-0.43,5.12-0.72,8.4c12.41-4.94,24.23-10.04,34.61-19.91
		c-5.98-1.91-11.04,1.13-15.62-1.26c6.29-4.29,6.59-3.94,18.88,0.59c-0.68,4.56-4.08,7.36-7.38,9.7
		c-10.67,7.52-22.36,13.03-35.1,16.12c-5.84,1.42-11.44,3.41-17.01,5.65C100.64,435.31,97.92,437.67,94.46,437.03z"/>
	<path class="st0" d="M839.22,1277.52c4.68,1,7.95,3.39,11.23,5.58c3.06,2.04,2.78,6.37-0.39,8.17c-2.84,1.62-5.7,3.46-9.17,3.23
		c-12.28-8.71-12.28-8.71-22.9-4.34c-8.49-9.39-8.3-12.78,0.93-16.35C828.62,1284.58,828.85,1284.62,839.22,1277.52z"/>
	<path class="st0" d="M865.26,1281.29c7.88,10.62,9.08,10.88,19.76,4.85c1.42-0.8,2.84-1.6,4.32-2.43c3.49,1.67,6.07,4.14,8.67,6.51
		c0.04,7.34-5.28,9.45-10.46,12c-3.35-2.35-6.48-4.77-9.83-6.83c-5.96-3.65-6.98-3.46-12.01,1.27c-0.88,0.83-1.68,1.74-2.86,2.99
		c-2.37-4.19-4.46-7.89-6.44-11.39C857.59,1283.37,861.91,1283.46,865.26,1281.29z"/>
	<path class="st0" d="M1333.07,1009.82c-0.89-2.22-1.61-4.04-2.56-6.41c2.66-3.76,5.49-7.76,8.63-12.2
		c6.99,7.05,9.84,16.4,15.04,24.25c5.2,7.86,7.7,16.56,8.8,26.07c-3.55-0.11-5.72-1.42-7.61-3.2c-0.27-0.65-0.7-1.24-0.73-1.84
		c-0.13-2.65-0.05-5.31-0.21-7.96C1353.64,1015.48,1347.33,1009.71,1333.07,1009.82z"/>
	<path class="st0" d="M581.89,1317.48c-2.28,6.82-5.5,12.54-9.81,18.23c-7.49,1.13-15.16,2.82-23.77,5.84
		c1.32-7.81,5.61-12.51,10.71-15.76C565.73,1321.51,572.27,1315.69,581.89,1317.48z"/>
	<path class="st0" d="M774.42,1281.73c-2.54-3.49-4.86-7.08-5.45-11.33c1.79-2.08,3.72-3.24,6.09-3.64
		c9.77,10.05,12.62,10.53,23.35,3.54c4.04,3.51,10.79,5.02,9.12,13.42c-3.42,1.08-6.83,2.16-9.96,3.14
		C788.23,1280.63,788.23,1280.63,774.42,1281.73z"/>
	<path class="st0" d="M980.02,1405.91c0.14-20.51,3.69-27.42,17.58-33.79c1.34,6.61,2.87,13.81-0.58,19.2
		C993.11,1397.41,987.97,1403.53,980.02,1405.91z"/>
	<path class="st0" d="M1072.67,1268.84c2.62,2.01,4.42,4.67,5.69,8.19c-2.72,3.49-5.57,6.33-10.65,5.39
		c-11.5-2.13-19.21,2.74-23.92,13.11c-0.39,0.87-1.16,1.56-1.32,1.77c-2.65,0.78-3.85-0.61-5.27-1.26
		c-1.13-2.32-0.61-4.55,0.23-6.77c0.68-1.81,0.15-4.06,2.63-5.93c1.12-0.82,3.18-0.35,5.14-0.48c5.64-0.37,10.01-3.32,13.87-7.05
		C1064.71,1270.37,1064.63,1270.28,1072.67,1268.84z"/>
	<path class="st0" d="M184.85,507.28c-0.9-3.71,0.78-6.07,1.3-8.61c1.06-5.19,2.28-10.19,2.08-15.67
		c-0.22-5.99,1.23-11.99,7.61-15.12c1.91-0.94,3.72-0.89,5.31-0.52c1.94,2.61,1.02,4.98,0.53,7.13c-1.92,8.42-4.62,16.61-7.37,24.8
		C192.73,504,189.88,506.42,184.85,507.28z"/>
	<path class="st0" d="M1062.31,1233.76c-11.12,9.56-21.91,13.83-35.03,7.98c-1.76-4.11-2.6-8.13,0.85-11.91
		C1039.37,1229.52,1050.08,1232.28,1062.31,1233.76z"/>
	<path class="st0" d="M254.96,446.03c-10.03,0.43-17.92,0.85-26.09-1.78c-2.04-3.57,0-8.15-1.95-12.43
		c4.32-3.37,9.31-4.53,14.68-5.92C245.87,432.33,249.98,438.53,254.96,446.03z"/>
	<path class="st0" d="M147.97,626.69c11.86,3.47,23.75,6.41,35.86,6.73c11.86,0.31,23.78-0.11,35.75-0.71
		c-1.88,2.84-4.57,1.9-6.94,2.23c-2.6,0.37-5.17,1.01-7.78,1.32c-3.26,0.38-6.63,0.08-9.13,2.97c-1.48,1.72-3.71,1.33-5.63,1.03
		c-12.41-1.95-24.81-3.93-37.18-6.06C149.41,633.6,146.78,631.92,147.97,626.69z"/>
	<path class="st0" d="M608.67,1348.32c-8.81-0.61-16.75,2.34-25.44,6.59c0.6-6.17,3.59-9.89,6.85-13.29
		c6.22-6.47,12.24-9.14,22.66-10.64c2.05,1.43,1.74,3.46,1.04,5.31C612.38,1339.98,611.83,1344,608.67,1348.32z"/>
	<path class="st0" d="M1081,1281.75c1.94,0.96,3.21,2.32,3.05,5.27c-7.99,5.93-17.35,10.05-26.53,14.43
		c-3.9,1.87-6.8-0.99-9.98-2.44c5.3-12.78,7.71-13.92,25.23-12.18C1076.06,1286.01,1077.52,1282.21,1081,1281.75z"/>
	<path class="st0" d="M281.14,577.99c-9.7,3.18-19.46,6.22-29.09,9.61c-4.18,1.47-9.24,2.09-10.46,7.88
		c-0.2,0.93-1.96,1.68-3.13,2.24c-6.23,2.96-12.51,5.82-20.22,9.39c1.19-3.5,1.87-6.01,3.95-7.39c10.76-7.16,21.02-15.2,33.53-19.34
		C263.95,577.66,272.36,576.42,281.14,577.99z"/>
	<path class="st0" d="M995.03,1172.72c-3.17,13.42-10.18,23.82-22.72,29.58c0.58,1.22,0.72,1.84,1.09,2.2
		c0.44,0.42,1.09,0.63,1.72,0.96c-0.23,0.47-0.33,1.17-0.7,1.38c-8.39,4.54-17.07,6.64-26.73,4.49
		c-6.55-1.46-10.76-4.59-11.97-11.68c2.77-1.13,2.87,1.98,4.07,2.87c11.21,8.33,24.86,3.98,33.68-3.95
		c4.19-3.77,8.33-7.69,11.92-12.01C988.97,1182.25,991.84,1177.35,995.03,1172.72z"/>
	<path class="st0" d="M598.38,991.4c9.61-6.14,16.58-13.93,27.5-15.41c5.06-0.69,7.71-5.06,9.89-9.15
		c2.31-4.33,5.26-5.62,10.13-3.49c-1.12,4.86-4.41,8.67-6.55,12.99c-0.67,1.34-2.26,2.55-3.7,3.13
		c-11.35,4.56-22.38,9.98-34.38,12.77C600.98,992.3,600.63,992.07,598.38,991.4z"/>
	<path class="st0" d="M1012.84,839.72c-10.08,5.49-14.55,4.19-22.12-6.77c2.71-5.7,8.56-9.73,9.69-16.48
		C1005.69,818.62,1007.52,822.2,1012.84,839.72z"/>
	<path class="st0" d="M231.18,1375.12c1.91,6.01,0.01,11.74-1.01,17.48c-0.11,0.61-0.51,1.26-0.97,1.7
		c-4.48,4.34-8.99,8.63-13.79,13.21C211.71,1391.39,216.85,1381.03,231.18,1375.12z"/>
	<path class="st0" d="M369.51,987.59c5.38,6.78,7.96,14.7,11.75,21.65c-0.34,1.51-1.43,1.33-2.87,1.9
		c2.61,10.3,12.16,17.32,14.63,27.63c-2.57,1.28-2.87-0.29-3.54-1.29c-7.21-10.75-15.08-21.04-19.92-33.28
		C367.35,998.62,366.58,993.57,369.51,987.59z"/>
	<path class="st0" d="M276.58,674.06c-10.4,0.75-20.95-0.89-30.87,2.46c-2.92-5.59-3.06-6.87,0.21-8.27
		c13.71-5.86,27.61-9.31,41.77-1.27c0.38,0.22,0.36,1.14,0.71,2.36c-11.82-0.82-23.38-4.47-35.06-1.29
		c-0.79,0.22-1.38,1.19-2.29,2.02c8.49,2.68,17.28-1.41,25.25,2.47C276.46,672.62,276.42,673.16,276.58,674.06z"/>
	<path class="st0" d="M382.81,738.9c-3.17-4.99-6.33-9.98-9.52-14.95c-1.14-1.77-1.38-3.71-1.17-5.74c0.45-4.27,0.95-8.54,1.4-12.56
		c2.57-1.69,4.75-3.3,8.03-2.22c1.06,11.66,2.14,23.46,3.22,35.26C384.12,738.76,383.47,738.83,382.81,738.9z"/>
	<path class="st0" d="M1099.71,1260.05c2.85-6.47,7.88-11.36,12.27-16.67c3.05-3.68,7.43-5.31,12.24-5.89
		c2.43,2.15,2.68,5.13,3.34,7.82c-1.72,4.72-5.2,7.73-8.92,10.77c-5.84-1.87-11.12-1.03-15.68,3.08c-1.05,0.94-2.13,1.47-3.48,0.63
		L1099.71,1260.05z"/>
	<path class="st0" d="M839.64,1298.51c4.97,0.96,8.52-3.3,13.68-3.66c1.77,3.56,4.82,6.63,5.58,10.91
		c-2.08,1.46-4.11,0.71-5.96,0.32c-8.4-1.75-16.73-3.8-25.14-5.49c-3.6-0.72-6.07-2.31-6.99-5.95
		C828.33,1289.45,828.33,1289.45,839.64,1298.51z"/>
	<path class="st0" d="M1171.53,1150.54c0.62,6.15,1.62,11.28-3.18,16.1c-7.78-4.15-15.21-9.22-25.91-10.34
		C1152.26,1150.5,1161.16,1149.78,1171.53,1150.54z"/>
	<path class="st0" d="M35.61,1359.44c4.75-12.49,13.52-18,23.43-23.52c2.77,5.73,1.27,10.22-0.73,14.68c-0.71,1.59-2,2.92-3.61,3.08
		C48.55,1354.29,42.86,1356.65,35.61,1359.44z"/>
	<path class="st0" d="M837.75,1273.54c-2.51,1.81-4.88,3.53-7.18,5.19c-3.32-1.15-5.38-3-6.16-6.13c2.62-3.75,6.25-4.79,10.43-4.26
		c4.27,0.54,8.52,1.27,12.78,1.94c6.07,0.95,12.14,1.93,19.11,3.04c-3.77,3.89-8.11,4.86-11.84,7.26
		C849.16,1279.18,844.87,1274.16,837.75,1273.54z"/>
	<path class="st0" d="M215.4,1346.99c20.83-4.87,40.79-2.61,61.38,9.19c-6.9-0.01-11.49-1.96-16.19-3.31
		c-8.97-2.58-18.04-4.86-27.45-3.87c-5.25,0.55-10.39,2.12-15.64,2.8C214.44,1352.19,214.65,1349.86,215.4,1346.99z"/>
	<path class="st0" d="M905.92,1279.05c-1.51,3.03-3.38,5.2-5.77,6.76c-4.13-0.44-5.56-5.11-9.46-5.45c-4.02-0.35-6.48,3.08-9.92,4.3
		c-7.13,2.53-8.17,2.2-10.34-5.27c3.19-4.09,7.68-4.89,12.47-4.44c6.93,0.65,13.83,1.55,20.73,2.42
		C904.21,1277.44,904.7,1278.12,905.92,1279.05z"/>
	<path class="st0" d="M30.65,1328.51c-3.03,13.19-8.8,21.79-22.7,21.07C8.47,1339.48,15.49,1332.57,30.65,1328.51z"/>
	<path class="st0" d="M1213.53,1302.9c3.72,11.25,6.41,21.28,7.36,31.76c-1.16,0.72-1.93,1.4-2.83,1.71c-2.17,0.73-4.4,1.28-6.6,1.9
		C1208.78,1329.04,1209.43,1315.87,1213.53,1302.9z"/>
	<path class="st0" d="M895.13,1302.97c0.85,3.39,0.98,5.66-0.27,8.57c-8.26,0.2-16.57-1.35-24.75-3.34c-3.35-0.81-4.31-4.9-2.66-8.3
		c1.5-3.08,4.02-3.84,7.45-1.9c2.29,1.3,4.32,3.05,6.52,4.53c1.9,1.28,3.87,2.47,5.94,3.77
		C889.88,1305.23,892.25,1304.21,895.13,1302.97z"/>
	<path class="st0" d="M1349.55,989.22c-8.19-7.32-8.02-18.18-14.4-25.45c-5.99-6.84-11.27-14.31-16.35-22.01
		c4.8,2.12,8.64,5.31,12.01,9.15c2.83,3.23,5.66,6.47,8.67,9.53c2.36,2.4,5,4.4,2.79,8.4c-0.86,1.55,0.01,3.45,1.36,4.45
		C1348.82,977.1,1349.27,982.54,1349.55,989.22z"/>
	<path class="st0" d="M221.3,919.56c2.26,7.82,0.98,12.64-3.03,16.82c-3.25,3.38-5.47,7.44-7.53,11.61
		c-5.29,10.69-11.86,20.56-19.17,30.8c-2.27-3.35-0.56-5.5,0.77-7.44c7.32-10.68,13.72-21.91,20.16-33.13
		C215.6,932.81,217.38,926.77,221.3,919.56z"/>
	<path class="st0" d="M182.43,1370.64c0.52,6.32-0.95,11.3-3.14,16.73c-4.33,2.55-9.04,5.32-14.49,8.52
		C165.8,1383.78,170.14,1375.09,182.43,1370.64z"/>
	<path class="st0" d="M282.14,1382c-0.41,6.04,1.32,12.02-2.19,17.25c-2.68,3.99-5.41,8.31-10.97,9.16
		C267.14,1395.6,271.15,1387.38,282.14,1382z"/>
	<path class="st0" d="M156.99,1261.55c1.29,3.71-3.74,4.32-1.72,8.55c0.11,0.24,1.94-2.04,2.49-0.23
		c-12.03,18.9-8.96,17.47-12.24,33.46c-4.45-4.42-3.66-9.71-3.46-14.69c0.21-5.46,2.99-10.15,5.41-14.88
		C149.8,1269.2,151.75,1264.28,156.99,1261.55z"/>
	<path class="st0" d="M1279.56,921.79c10.58,9.38,21.15,17.14,26.12,29.9c-2.3,1.46-3.64,0.1-4.69-0.95
		c-1.62-1.63-3.04-3.5-4.29-5.44c-4.07-6.34-8.99-11.37-17.04-12.11c-0.92-0.08-1.78-0.71-2.81-1.14
		C1275.59,928.44,1277.84,925.76,1279.56,921.79z"/>
	<path class="st0" d="M1074.05,1237.57c-8.03,4.65-14.97,9.13-22.32,12.78c-6.78,3.37-14.15,2.31-21.33,0.89
		c-0.41-0.08-0.64-1.06-1.25-2.16c5.3-0.75,10.38-1.78,15.51-2.08c3.82-0.23,7.01-1.41,10.22-3.37c3.67-2.24,7.64-4.02,11.54-5.89
		C1068.51,1236.74,1070.7,1235.81,1074.05,1237.57z"/>
	<path class="st0" d="M779.79,1264.55c4.09-2.64,7.73-2.84,11.25-1.84c6.8,1.93,13.72,2.13,20.68,2.22c1.72,0.02,3.2,0.72,5.09,2.2
		c-1.64,2.87-4.35,4.23-7.02,5.27c-2.55-0.05-3.83-1.7-5.31-2.98c-3.65-3.14-6.87-4.06-11.43-0.67
		C787.71,1272.7,785.08,1271.53,779.79,1264.55z"/>
	<path class="st0" d="M809.82,1288.35c2.57,2.03,3.55,4.9,5.23,7.38c-8.41,1.02-28.46-3.53-35.59-8.02c3.5-3.75,6.88-5.1,9.56-2.1
		c5.56,6.22,11.43,5.32,17.97,2.79C807.85,1288.06,808.94,1288.35,809.82,1288.35z"/>
	<path class="st0" d="M227.01,867.23c-4.43-9.7-6.94-28.34-4.53-37.14c3.6,8.94-1.65,18.62,6.06,26.81c0-9.54,0-17.64,0-25.73
		c1.88,9.17,0.87,18.45,3.03,27.59C232.27,861.76,229.25,864.57,227.01,867.23z"/>
	<path class="st0" d="M1128.95,1251.3c-3.45,8.71-10.29,13.77-17.59,18.15c-2.49,1.49-5.76,1.34-8.59-0.23
		c2.04-10.08,3.74-11.13,15.3-9.51c2.49-0.37,3.84-2.5,5.71-3.81C1125.65,1254.59,1127.24,1252.85,1128.95,1251.3z"/>
	<path class="st0" d="M117.7,512c3.72-6.23,9.57-8.9,15.32-12.05c3.26,10.02-1.35,15.55-9.42,19.5
		C121.38,517.66,119.46,515.55,117.7,512z"/>
	<path class="st0" d="M731.39,1303.68c1.5,10.75-4.49,16.85-12.87,23.01c-0.76-10.13-3.44-19.55,7.33-25.98
		c1.37,6.26-4.11,10.68-3.75,16.64c3.46-1.34,3.7-4.25,5.05-6.35C728.56,1308.83,727.82,1305.58,731.39,1303.68z"/>
	<path class="st0" d="M87.24,1304.83c9.73,9.26,22.34,13.94,32.43,22.66c-0.91,0.28-1.66,0.8-2.09,0.6
		c-8.98-4.1-18.12-7.87-26.49-13.19C87.6,1312.68,84.44,1310.34,87.24,1304.83z"/>
	<path class="st0" d="M1197.76,1314.67c2.09,8.22,4.17,16.45,6.25,24.61c-2.57,2.35-5.24,3.2-8.74,2.45
		C1193.1,1332.57,1195.57,1323.73,1197.76,1314.67z"/>
	<path class="st0" d="M269.61,530.09c-5.81-4.38-10.84-8.18-16.16-12.19c2.4-3.82,5.21-6.76,9.48-9.15
		C266.81,515.27,268.55,521.98,269.61,530.09z"/>
	<path class="st0" d="M1105.65,1335.68c-1.46,7.37-2.65,13.39-3.87,19.55c-3.18,1.38-6.2,1.49-9.56-0.26
		C1093.24,1346.52,1096.82,1340.1,1105.65,1335.68z"/>
	<path class="st0" d="M1040.76,1278.89c0.61-4.76,3.14-7.7,6.95-9.14c6.99-2.64,14.17-4.8,21.69-7.3c-0.24,1.39-0.21,2.3-0.45,2.38
		c-5.38,1.78-9.9,4.43-13.59,9.09C1052,1278.17,1046.92,1279.92,1040.76,1278.89z"/>
	<path class="st0" d="M85.39,686.16c-5.82,1.28-11.19,1.09-16.54,0.11c-0.5-0.09-0.68-1.99-1.09-3.31
		c-4.68,1.06-9.39,2.13-14.4,3.28C61.56,676.29,78.06,677.62,85.39,686.16z"/>
	<path class="st0" d="M158.25,1339.8c0-6.05,0-10.91,0-16.29c2.26-2.35,4.69-4.87,8.36-5.79
		C169.88,1326.13,167.9,1331.74,158.25,1339.8z"/>
	<path class="st0" d="M89.93,633.67c1.81-1.14,3.45-0.79,4.98-0.35c4.6,1.32,8.4,1.49,12.73-2.1c3.31-2.74,8.6-3.07,13.17-4.53
		c2.19,3.19,2.08,5.88-1.63,7.04c-5.67,1.77-11.44,3.71-17.28,4.21C97.85,638.29,93.48,636.64,89.93,633.67z"/>
	<path class="st0" d="M936.74,829.47c-1.49,1.18-2.17,2-3.04,2.34c-1.18,0.47-2.51,0.59-4.1,0.92c-2.11-4.33-3.39-8.84-6.65-12.4
		c0.57-3.6,1.14-7.12,1.84-11.53C931.24,814.71,932.9,822.29,936.74,829.47z"/>
	<path class="st0" d="M1102.88,1327.44c4.38-11.02,8.86-21.65,17.83-29.92C1120.33,1307.38,1115.61,1315.51,1102.88,1327.44z"/>
	<path class="st0" d="M259.78,762.23c-8.13-0.56-14.25-5.04-20.37-9.37c-1.94-1.37-2.63-3.67-1.82-6.35
		c5.43-2.08,8.14,3.17,12.56,4.4c-0.52,1.11-0.88,1.88-1.41,3.03C251.42,757.88,257.76,757.1,259.78,762.23z"/>
	<path class="st0" d="M1274.91,897.92c3.3-1.35,4.53-4.48,5.99-7.51c8.2,1.44,14.48,4.73,17.26,13.84
		c-8.26-1.79-15.17-6.17-23.13-6.48L1274.91,897.92z"/>
	<path class="st0" d="M938.5,1257.04c-0.86,1-1.55,2.27-2.61,2.95c-2.95,1.87-5.3,0.81-5.74-2.37c-0.39-2.75,0.23-5.24,2.17-8.09
		c8.02-1.77,15.92-6.49,26.44-4.56c-8.12,3.39-16.64,3.19-22.17,9.18c-0.27,1.95,1.52,2.14,2.12,3.2
		C938.71,1257.36,938.5,1257.04,938.5,1257.04z"/>
	<path class="st0" d="M132.76,624.63c2.19-1.76,1.25-4.55,3.99-5.43c2.35,2.1,3.71,4.93,4.62,8.04c-0.73,2.2-3.62,1.32-4.65,3.46
		c-0.84,2.6,3.24,1.71,3.12,5.46c-0.01,0.29-1.02,1.45-2.91,2.19c-2.6-1.75-2.55-6.49-7.38-6.4c-1.72,0.03-3.05-3.2-2.11-5.74
		c0.43-1.16,0.85-2.63,2.34-2.7C130.66,623.48,131.57,624.16,132.76,624.63z"/>
	<path class="st0" d="M1058.85,877c2.74-3.58,5.47-7.16,8.09-10.59c3.6,0.25,5.78,2.2,8.01,4.08c0.5,2.73-0.51,5.13-1.3,7.85
		c-4.77,0.85-9.59-1.04-14.39,0.8C1059.12,878.42,1058.99,877.71,1058.85,877z"/>
	<path class="st0" d="M90.49,895.59c7.97-1.49,8.41-1.58,9.45,3.55c1.17,5.79,4.99,10.67,6.15,17.98
		C98.54,910.44,93.48,903.91,90.49,895.59z"/>
	<path class="st0" d="M912.14,1332.57c-0.36,4.46,4.76,6.11,5.26,10.13c-4.36,1.94-4.36,1.94-12.1-5.37
		c-3.28-1.3-4.85,5.35-9.11,1.24c4.25-5.7,9.86-6.77,16.31-5.65L912.14,1332.57z"/>
	<path class="st0" d="M187,984.07c-13.3-3.97-25.7-9.5-36.24-18.65c6.73,1.59,12.23,5.75,18.15,8.91
		C175,977.59,182.63,977.69,187,984.07z"/>
	<path class="st0" d="M1049.83,1225.21c8.29-1.86,16-0.73,23.5,0.08c1.65,2.38,1.19,4.74-1.18,4.58c-7.08-0.5-14.1-1.73-21.14-2.71
		C1050.82,1227.14,1050.69,1226.66,1049.83,1225.21z"/>
	<path class="st0" d="M627.01,1253.07c3.8-4.53,6.93-6.25,10.49-3.63c3.96,2.91,7.92,4.28,12.83,3.27c1.75-0.36,2.85,1.25,3.25,3.5
		C645.01,1256.99,636.96,1254.46,627.01,1253.07z"/>
	<path class="st0" d="M1065.59,1249.05c0.83,2.96,1.34,4.81,1.89,6.77c-5.76,3.62-11.95,5.3-19.06,6.54
		C1051.44,1254.14,1059.38,1253.8,1065.59,1249.05z"/>
	<path class="st0" d="M1159.33,1181.18c1.46,1.72,2.49,2.92,3.65,4.28c-4.04,6.28-9.53,9.22-18.19,8.9
		C1150.04,1189.6,1154.35,1185.69,1159.33,1181.18z"/>
	<path class="st0" d="M68.24,596.34c6.1-0.95,8.51,4.62,12.6,5.52c1.58,3.45,1.14,6.38,0.81,9.38c-3.33,0.64-5.39-1.77-8.11-3.04
		c0.78-1.08,1.44-2,2.11-2.93C74.16,601.72,68.99,601.16,68.24,596.34z"/>
	<path class="st0" d="M1246.93,965.81c-6.55,0.73-11.58-2.78-17.19-5.68c4.17-3.15,8.76-3.39,12.68-5.04
		c3.43,3.23,0.68,8.28,4.27,10.96L1246.93,965.81z"/>
	<path class="st0" d="M1195.31,826.28c-8.09-1.07-13.89-1.83-19.54-2.57c-1.07-2.83-0.01-4.76,1.85-7.02
		C1183.93,817.38,1188.46,821.7,1195.31,826.28z"/>
	<path class="st0" d="M912.51,1332.92c-4.18-5.14-4.38-5.21-8.5-3.54c-4.28,1.73-7.67,4.94-11.86,7.77
		c2.16-11.83,16.2-17.21,23.6-5.51c-0.93,1.35-2.43,0.52-3.61,0.93L912.51,1332.92z"/>
	<path class="st0" d="M1341.61,944.47c-2.97,2.78-5.74-1.37-8.08,1.85c-3.29-4.46-6.17-8.38-9.29-12.62
		C1331.52,935.41,1334.99,937.58,1341.61,944.47z"/>
	<path class="st0" d="M1197.85,870.39c5.48,3.98,12.41,4.61,16.48,11.54c-6.51-0.58-11.43-2.94-16.31-5.27
		C1195.68,875.54,1196.22,873.54,1197.85,870.39z"/>
	<path class="st0" d="M1193.06,787.41c2.29-2.27,4.57-4.53,6.77-6.71c3.97,0.13,6.32,2.57,9.55,4.86
		C1204.35,789.27,1198.86,788.21,1193.06,787.41z"/>
	<path class="st0" d="M328.2,622.75c3.08,1.24,4.49,3.63,5.76,6.39c-2.28,3.3-5.81,4.85-9.24,7.9
		C324.38,631.2,324.04,626.52,328.2,622.75z"/>
	<path class="st0" d="M121.48,816.02c-7.05-2.32-11.8-7.59-16.77-12.35c-0.1-2.13,1.07-3.21,2.83-4.32
		C112.67,804.41,115.93,811.15,121.48,816.02z"/>
	<path class="st0" d="M160.96,1265.64c2.76-6.39,8.44-8.77,14.44-10.47c3.44-0.97,5.03-0.2,12.36,4.51
		c-6-0.96-10.24-1.72-14.43-0.37C168.84,1260.74,164.92,1263.06,160.96,1265.64z"/>
	<path class="st0" d="M755.07,1275.72c0.58-3.91,1.04-7.03,1.5-10.18c7.32,1.76,7.32,1.76,8.26,8.63
		C761.82,1274.65,758.8,1275.13,755.07,1275.72z"/>
	<path class="st0" d="M1367.86,1062.19c9.46,2.67,9.24,10.43,10.61,18.46c-4.6-2-4.34-6.05-5.95-8.85
		C1370.75,1068.72,1369.39,1065.41,1367.86,1062.19z"/>
	<path class="st0" d="M752.37,1280.87c5.34-0.37,8.83-2.48,13.06-1.92c2.58,1.19,3.01,3.91,4.23,6.98
		C763.67,1286.1,758.46,1285.07,752.37,1280.87z"/>
	<path class="st0" d="M1292.7,909.55c2.37-0.89,3.59-0.32,4.49,0.61c4.16,4.35,8.79,8.3,11.95,13.62
		C1302.34,920.7,1295.8,917.39,1292.7,909.55z"/>
	<path class="st0" d="M1293.22,918.01c-6.61-2.05-10.25-7.48-15.2-12.21C1286.66,905.41,1286.75,905.48,1293.22,918.01z"/>
	<path class="st0" d="M754.73,1178.15c-2.23-0.83-3.73-1.38-6.33-2.34c4.88-4.19,7.65-9.42,13.02-13.1c0.28,3.6-1.52,5.58-2.68,7.8
		C757.54,1172.8,756.33,1175.1,754.73,1178.15z"/>
	<path class="st0" d="M265.01,588.16c5.28-3.22,10.43-4.11,15.06-5.37c2.45,1.44,1.64,3.05,1.22,4.85
		C276.16,588.81,270.97,588.21,265.01,588.16z"/>
	<path class="st0" d="M209.63,1331.04c1.41,4.38,0.91,8.06,2.76,10.98c-2.01,2.22-3.51,3.87-5.11,5.64
		c-0.62-0.87-1.61-1.63-1.66-2.44C205.34,1340.37,205.49,1335.56,209.63,1331.04z"/>
	<path class="st0" d="M729.24,1146.33c3.37,3.21,3.94,6.76,5.05,10.87c-2.67,0.68-5.18-1.67-7.26,0.62
		C725.05,1153.36,726.17,1150.16,729.24,1146.33z"/>
	<path class="st0" d="M203.12,642.09c5.75-3.62,12.01-3.42,20.12-3.48C215.92,644.62,209.2,641,203.12,642.09z"/>
	<path class="st0" d="M1121.93,917.29c2.15,3.29,4.28,6.57,6.17,9.46c-2.94,0.99-6.05-1.85-9.44-2.74
		C1118.31,921.38,1118.37,919.46,1121.93,917.29z"/>
	<path class="st0" d="M555.36,1232.93c-3.11,0.95-6.24-0.86-9.37,0.52c-2.42,1.07-4.88,3.81-8.03,1.08
		C543.62,1229.2,543.73,1229.19,555.36,1232.93z"/>
	<path class="st0" d="M257.24,1024.31c-0.88-1.11-1.92-1.82-1.97-2.58c-0.2-3.38,3.71-15.24,6.49-19.99
		c1.11,4.65-1.81,8.05-2.15,11.89C259.31,1017.08,258.13,1020.46,257.24,1024.31z"/>
	<path class="st0" d="M1181.44,916.15c-2.69-5.79-2.69-5.79,1.48-11.12c2.21,2.11,3.08,4.8,3.96,7.38
		C1185.92,915.2,1183.76,915.79,1181.44,916.15z"/>
	<path class="st0" d="M1092.68,1275.14c3.57-1.2,6.43-1.16,9.38-0.4c-3.42,4.18-3.42,4.18-10.8,7.63
		C1089.43,1279.09,1092.82,1277.36,1092.68,1275.14z"/>
	<path class="st0" d="M608.54,1234.76c-8.29,6.46-8.29,6.46-13.89,1.87C598.51,1233.51,602.7,1235.38,608.54,1234.76z"/>
	<path class="st0" d="M515.56,1233.9c-1.77-2-0.98-3.37,0.15-3.8c5.32-2,10.64-1.92,15.84,1.02
		C525.95,1231.44,520.3,1231.08,515.56,1233.9z"/>
	<path class="st0" d="M772.52,1260.19c-1.12,3.36-3.7,4.21-5.81,5.78c-2.79-0.49-4.43-2.47-6.09-4.67
		C764.17,1256.09,768.63,1262.18,772.52,1260.19z"/>
	<path class="st0" d="M127.72,1107.72c0.24,3.48-1.68,5.89-4.45,7.85c-3.01-0.6-5.12-1.83-4.34-5.58c1.33-0.35,2.79-0.63,4.18-1.12
		C124.5,1108.37,125.32,1106.25,127.72,1107.72z"/>
	<path class="st0" d="M615.95,1242.2c-5.57,5.66-5.57,5.66-11.35,1.31C607.9,1241.24,611.07,1238.52,615.95,1242.2z"/>
	<path class="st0" d="M638.39,1243.5c6.81-1,6.81-1,10.76,3.97c-0.79,1.7-2.5,1.88-4.04,2.41
		C642.62,1248.49,640.06,1247.19,638.39,1243.5z"/>
	<path class="st0" d="M1635.17,614.71c-7.25-1.78-8.45-6.86-13.02-11.25C1629.02,606.71,1629.02,606.71,1635.17,614.71z"/>
	<path class="st0" d="M122.51,726.42c-6.99-0.92-11.25-5.75-15.26-10.93c5.44,3.13,10.72,6.49,15.08,11.14L122.51,726.42z"/>
	<path class="st0" d="M918.84,835.45c0.38-3.44,0.6-6.24,3.37-8.26c2.5,1.41,3.59,3.46,3.55,6.26
		C924.13,835.21,922.1,835.76,918.84,835.45z"/>
	<path class="st0" d="M1254.21,1318.51c0.52-0.42,1.05-0.85,1.57-1.27c3.36-0.68,4.45,1.24,3.68,3.94
		c-0.76,2.69-4.73,4.08-6.47,2.39C1250.95,1321.59,1253.26,1320.09,1254.21,1318.51z"/>
	<path class="st0" d="M1037.5,1308.01c-1.25-2.24-1.07-3.75,0.07-5.2c3.17-0.81,5.6,1.24,9.5,2.47
		C1043.65,1307.23,1041.14,1308.66,1037.5,1308.01z"/>
	<path class="st0" d="M243.34,1361.85c1.97-4.9,4.77-5.69,8.71-4.21C249.48,1363.09,249.48,1363.09,243.34,1361.85z"/>
	<path class="st0" d="M464.78,1233.31c4.45-4.76,9.93-0.97,14.73-1.92c-2.27,1.28-5.04,0.09-7.37,1.73
		C470.08,1234.58,467.51,1235.53,464.78,1233.31z"/>
	<path class="st0" d="M659.31,1252.54c-2.99-0.26-3.42-2.82-4.27-4.84c-0.59-1.41,0.2-2.51,1.63-3.03c1.57-0.57,2.69,0.36,3.18,1.56
		C660.68,1248.32,661.34,1250.58,659.31,1252.54z"/>
	<path class="st0" d="M934.29,1245.25c0.85-4.55,1.61-8.6,2.5-13.34C939.81,1241.62,939.81,1241.62,934.29,1245.25z"/>
	<path class="st0" d="M1367.72,1047.97c3.12,2.08,3.5,5.03,4.18,8.14C1366.28,1055.66,1366.28,1055.66,1367.72,1047.97z"/>
	<path class="st0" d="M620.61,1241.11c3.95-2.33,5.46,0.93,7.55,3.02C623.57,1248.16,623.57,1248.16,620.61,1241.11z"/>
	<path class="st0" d="M948.39,1325.71c5.24-2.15,9.83-1.49,14.44,3.46C957.12,1328.94,953.14,1325.66,948.39,1325.71z"/>
	<path class="st0" d="M197.04,978.58c-0.64,3.53-1.69,6.78-6.94,7.64C191.45,981.79,194.26,980.22,197.04,978.58z"/>
	<path class="st0" d="M590.99,1238.81c1.55,0.39,2.96,1.39,3.05,3.13c0.1,1.82-1.29,3.02-3.02,3.29c-1.7,0.26-3.49-2.32-3.12-4.19
		C588.13,1239.93,589.71,1238.72,590.99,1238.81z"/>
	<path class="st0" d="M137.97,440.81c3.52,1.19,4.8-2.37,7.27-3.51c1,2.24,1.16,4.33-0.61,6.3c-2.45-0.36-4.94-0.62-6.4-3.08
		L137.97,440.81z"/>
	<path class="st0" d="M285.36,680.56c-2.89-1.76-3.45-4.37-4.71-7.02c3.05-1.39,5.36-0.45,7.42,1.31
		C288.47,677.44,286.92,678.7,285.36,680.56z"/>
	<path class="st0" d="M1163.31,1201.42c-1.29,3.22-2.57,6.44-4.07,10.19C1158.06,1206.21,1158.08,1206.21,1163.31,1201.42z"/>
	<path class="st0" d="M934.52,1214.61c2.9,3.68,4.33,6.3,2.15,9.56c-2.93-0.74-1.93-2.7-2.11-4.09
		C934.39,1218.79,934.52,1217.47,934.52,1214.61z"/>
	<path class="st0" d="M1075.21,855.44c1.7,3.67,1.73,6.29-0.18,8.97c-2.97,0.16-4.39-1.11-3.25-4.01
		C1072.43,858.74,1073.83,857.38,1075.21,855.44z"/>
	<path class="st0" d="M564.63,1236.83c0-0.98,0-1.95,0-3.41c3-1.22,5.73-1.08,8.22,1.78c-2.83,2.81-5.84,0.84-8.56,1.29
		L564.63,1236.83z"/>
	<path class="st0" d="M219.05,393.8c-2.61-0.56-3.15-2.16-3.23-3.75c-0.06-1.28,0.69-2.51,2.26-2.6c1.09-0.06,1.68,0.75,2.04,1.67
		C220.75,390.74,220.76,392.27,219.05,393.8z"/>
	<path class="st0" d="M131.83,405.74c-3.14,1.13-5.86,1.76-8.54,0.18c-0.72-0.43-1.43-1.27-0.51-2.92
		C125.55,403.83,128.46,404.72,131.83,405.74z"/>
	<path class="st0" d="M213.23,481.71c-0.72-4.33-1.8-8.77-0.15-14.63C215.33,472.82,213.16,477.26,213.23,481.71z"/>
	<path class="st0" d="M85.27,747.35c-2.23,4.63-5.8,3.55-9.18,3.11C78.66,748.33,81.15,745.98,85.27,747.35z"/>
	<path class="st0" d="M944.42,1285.37c4.12,0,8.24,0,14.7,0c-6.46,0.28-10.58,0.46-14.69,0.64
		C944.42,1285.8,944.42,1285.58,944.42,1285.37z"/>
	<path class="st0" d="M627.49,1238.95c4.68-3.07,7.28-1.11,10.54,0.79C634.5,1241.32,631.72,1241.06,627.49,1238.95z"/>
	<path class="st0" d="M195.6,815.4c-2.51-6.33-2.51-6.33-0.56-10.41C196.33,809.17,196.33,809.17,195.6,815.4z"/>
	<path class="st0" d="M564.29,1236.49c-0.13,0.97-0.1,1.99-0.42,2.89c-0.52,1.43-1.71,1.94-3.14,1.43
		c-1.32-0.46-2.37-1.45-2.03-2.91c0.34-1.42,1.64-1.93,3.07-1.73c0.96,0.13,1.91,0.43,2.86,0.66L564.29,1236.49z"/>
	<path class="st0" d="M496.09,1241.63c-3.16,0.62-5.34,1.11-7.36-0.43C491.31,1239.02,491.31,1239.02,496.09,1241.63z"/>
	<path class="st0" d="M567.01,1245.11c3.11-3.58,5.41-2.06,7.82,0.6C571.89,1247.22,569.46,1245.77,567.01,1245.11z"/>
	<path class="st0" d="M88.32,1319.4c-2.74,1.96-5.2,1.68-7.78,0.83c0.18-0.58,0.17-1.37,0.51-1.58
		C83.56,1317.12,86.13,1315.69,88.32,1319.4z"/>
	<path class="st0" d="M903.65,1297.76c1.22,4.65-0.8,8.49,0.37,12.3C901.86,1304.72,901.86,1304.72,903.65,1297.76z"/>
	<path class="st0" d="M603.45,1249.29c-3.57,1.68-5.98-0.28-9.41-1.78C598.21,1245.73,601.06,1245.73,603.45,1249.29z"/>
	<path class="st0" d="M1361.8,1051.92c-3.14-1.62-4.08-3.7-5.07-7.02C1361.01,1046,1362.47,1047.78,1361.8,1051.92z"/>
	<path class="st0" d="M122.59,1099.67c0.79-2.42,1.59-4.85,2.51-7.67C127.83,1095.86,124.88,1097.92,122.59,1099.67z"/>
	<path class="st0" d="M575.63,1239.45c2.91-2.08,4.85-1.27,6.79,0.16C580.24,1243.6,580.23,1243.6,575.63,1239.45z"/>
	<path class="st0" d="M242.81,1339.73c-4.18,1.04-7.2,1.16-11.26-0.14C235.67,1338.64,238.69,1338.53,242.81,1339.73z"/>
	<path class="st0" d="M1099.48,1259.8c1.34,4.11-0.68,7.3-2.8,10.45c-1.32-4.09,1.26-7.02,3.03-10.19L1099.48,1259.8z"/>
	<path class="st0" d="M512.51,1241.63c3.9-4.2,6.19-1.8,9.4-0.03C518.43,1243.07,516.02,1242.13,512.51,1241.63z"/>
	<path class="st0" d="M275.1,525.68c0.43,4.4,0.86,8.8,1.29,13.2c-2.74-4.41-2.35-8.9-1.15-13.4L275.1,525.68z"/>
	<path class="st0" d="M620.3,1251.2c-2.63,1.39-4.28,1.04-5.99-0.08C617.04,1248.28,617.04,1248.28,620.3,1251.2z"/>
	<path class="st0" d="M1167.4,1173.65c0.55,2.21,0.26,3.49-1,4.13c-0.76,0.39-1.8,0.22-2.79,0.31
		C1163.86,1175.71,1165.43,1174.74,1167.4,1173.65z"/>
	<path class="st0" d="M1021.87,1220.22c0.82,3.55-0.81,6.41-2.99,10.05c-0.99-4.55,0.69-7.33,3.21-9.84L1021.87,1220.22z"/>
	<path class="st0" d="M497.97,1235.61c1.52-0.93,3.04-1.1,4.42,0.13c0.12,0.11-0.37,1.34-0.83,1.6
		C499.68,1238.4,498.51,1237.61,497.97,1235.61z"/>
	<path class="st0" d="M647.94,1239.64c2.13-1.41,3.9-0.33,5.92-0.68C651.79,1243.46,650.03,1241.44,647.94,1239.64z"/>
	<path class="st0" d="M264.38,836.68c-1.35,2.3-3.49,3.74-5.77,5.46c1.93-3.91,1.93-3.91,5.97-5.24L264.38,836.68z"/>
	<path class="st0" d="M226.83,885.47c1.5,3.42,1.19,5.69,0.73,8.1C225.12,891.6,226.52,889.26,226.83,885.47z"/>
	<path class="st0" d="M1012.5,1124.68c0.21-5.06,0.22-7.54,3.66-10.07C1014.88,1118.13,1014.06,1120.39,1012.5,1124.68z"/>
	<path class="st0" d="M415.76,1245.5c2.47-1.62,4.78-1.69,7.21,0.1C420.49,1246.69,418.16,1247.67,415.76,1245.5z"/>
	<path class="st0" d="M551.11,1237.5c-1.32,2.25-2.9,3.71-6.07,1.97C546.36,1236.37,548.38,1236.07,551.11,1237.5z"/>
	<path class="st0" d="M488.1,1232.67c2.96-1.95,4.73-2.57,7.4-1.4C493.45,1233.09,491.91,1234.68,488.1,1232.67z"/>
	<path class="st0" d="M708.08,784.69c6.26,3.05,7.12,9.95,10.48,15.03c4.41,6.67,8.66,13.42,13.87,19.49
		c1.79,2.08,3.57,4.56,8.78,5.26c-8.4-11.41-16.77-20.76-22.12-32.64c5.62-6.45,13.22-10.64,20.3-16.82
		c21.42,20.99,41.98,42.46,59.89,66.31c-3.51,25.87-6.21,51.61-11.54,76.94c-1.57,7.46-4.1,14.72-6.27,22.04
		c-0.87,2.93-2.6,5.19-5.16,7.09c-14.43,10.71-28.72,21.59-43.09,32.38c-1.59,1.2-3.29,2.28-5.02,3.27
		c-3.78,2.14-7.34,2.18-11.19-0.37c-11.69-7.74-22.27-16.85-32.99-25.81c-1.8-1.5-3.29-3.25-3.51-5.81
		c-0.6-7.22-3.06-14.31-1.42-22.63c3.21,3.93,6.09,7.45,8.97,10.97c3.58-3.31,0.77-4.38-0.21-5.58
		c-7.49-9.18-12.56-19.37-14.41-32.39c6.94,3.1,13.32,3.37,19.74,3.55c7.5,0.21,7.49,0.31,9.52,7.34c0.63,2.17,1.37,4.31,2.59,8.14
		c2.07-6.18,0.77-10.28-1.12-14.34c-1.13-2.41-3.27-2.98-5.63-3.55c-7.08-1.7-14.5-1.86-21.22-4.68c-1.8-2.07-1.43-4.49-1.4-6.78
		c0.18-16.31,0.42-32.63,0.66-48.94c0.08-5.48,1.64-10.41,5.47-14.52c4.99-5.35,9.87-10.8,14.83-16.17
		c1.11-1.21,2.29-2.46,4.47-2.02c-1.4,23.77,4.55,45.12,21.52,62.7c2.27-1.3,0.81-2.75,0.28-4.06c-0.5-1.23-1.07-2.47-1.83-3.54
		c-10.15-14.23-14.48-30.48-16.42-47.53c-0.3-2.63-0.83-5.49-0.15-7.94c2.23-8.07,1.36-16.55,3.6-24.58L708.08,784.69z
		 M768.43,899.19c-10.36,4.2-19.51-2.16-29.62-2.92c-2.06,15.01,1.21,27.82,8.6,39.68c1.91,3.06,5.69,3.15,8.77,4.11
		c1.84,0.57,4.03,0.32,5.27-2.76c-5.38-0.31-10.69-1.65-13.06-6.59c-4.44-9.26-7.55-18.98-5.82-30.09c7.94,3.23,15.7,3.56,22.64,1.7
		c4.28,2.24,4.07,7.24,8.53,9.47C773.59,906.47,771.44,903.27,768.43,899.19z M744.51,865.11c-3.82,3.61-7.64,7.23-10.98,10.39
		c-2.62,0.92-4.7-1.73-6.84,0.26c1.86,1.9,3.4,3.63,6.58,4.45C739.03,877.21,743.86,872.88,744.51,865.11z M749.05,845.6
		c1.56-10.88,0.68-13.85-5.96-18.31C746.22,833.49,744.36,840.19,749.05,845.6z"/>
</g>
</svg>
