<?xml version="1.0" encoding="utf-8"?>
<!-- Generator: Adobe Illustrator 24.1.2, SVG Export Plug-In . SVG Version: 6.00 Build 0)  -->
<svg version="1.1" id="Layer_1" xmlns="http://www.w3.org/2000/svg" xmlns:xlink="http://www.w3.org/1999/xlink" x="0px" y="0px"
	 width="2375.75" height="1903.4" viewBox="0 0 2375.75 1903.4" style="enable-background:new 0 0 2375.75 1903.4;" xml:space="preserve">
<style type="text/css">
	.st0{fill:#1A1A1A;}
</style>
<g>
	<path d="M1576.97,937.61c-2.7-1.51-1.94-4.47-3.53-6.13c-1.09-0.31-2,0.1-2.56,0.91c-4.56,6.61-9.75,12.63-16.19,17.51
		c-4.73,3.59-5.29,3.8-13.24,3.51c-1.63-5.39,3.32-10.78,0.73-16.12c-2.14-1.13-3.84,1.61-6.58-0.23
		c-0.81-4.67-2.05-10.04-2.61-15.49c-0.78-7.66-4.89-11.44-12.1-13.9c-12.26-4.17-21.12-12.24-24.15-25.53
		c-0.74-3.24-1.95-6.37-2.61-9.62c-2.5-12.29-11.65-18.61-21.96-25.19c-3.28,7.22-4.54,14.52-4.94,21.44
		c-0.43,7.46-3.47,12.6-8.59,17.16c-2.23,1.99-4.43,4.13-7,5.58c-6.19,3.48-8.72,8.75-8.79,15.61c-0.04,3.86,1.18,8.64-3.68,10.39
		c-4.09,1.48-6.72-2.38-9.42-4.56c-15.49-12.5-19.1-29.9-10.28-48.13c2.02-4.17,4.02-8.35,6.04-12.55
		c-2.24-2.05-3.55,0.46-5.09,1.16c-14.41,6.51-29.31,10.79-45.3,10.45c-4.29-0.09-8.58-0.01-12.66-0.01
		c-2.08,1.75-1.58,3.72-1.03,5.61c1.33,4.59,0.57,9.28,0.77,13.92c1.38,32.49-3.65,64.28-10.4,95.89
		c-2.37,11.08-3.38,22.09-0.18,33.38c1.67,5.88,4.4,10.12,9.49,13.32c10.15,6.37,20.1,13.06,30.19,19.53
		c16.57,10.62,31.8,22.92,46.51,35.97c14.97,13.29,28.96,27.49,41.74,42.86c11.1,13.34,20.5,27.92,28.62,43.2
		c10.46,19.67,20.41,39.65,27.88,60.7c3,8.44,5.67,17.04,7.84,25.72c1.53,6.15,1.33,12.42-0.95,18.67
		c-7.63,20.92-16.32,41.46-22.39,62.94c-4.52,16.01-14.02,29.3-23.29,42.74c-12.13,17.6-26.68,33.14-41.02,48.88
		c-2.23,2.45-4.6,4.71-6.29,7.69c-10.7,18.96-23.91,36.01-39.47,51.24c-0.7,0.68-1.21,1.55-1.97,2.53
		c-0.16,6.12,2.38,11.55,5.31,16.76c15,26.74,31.93,52.24,49.62,77.26c14.02,19.83,28.23,39.54,41.65,59.77
		c11.17,16.84,17.39,35.65,20.05,55.79c0.86,6.47,0.57,12.41-0.84,18.64c-2.14,9.4-4.15,18.81-7.55,27.86
		c-1.78,4.73-4.09,9.1-7.73,12.67c-1.88,1.85-3.68,4.36-6.7,3.58c-3.11-0.81-3.33-3.71-3.53-6.44c-0.14-1.97-0.22-4.06-2.84-5.27
		c-3.12,7.08-6.04,14.27-9.43,21.23c-3.84,7.87-9.67,14.3-15.98,20.29c-0.95,0.91-2.03,1.77-3.19,2.36
		c-3.76,1.93-7.15,0.61-8.94-3.39c-1.52-3.41-2.25-7.19-1.91-10.72c0.96-10.03-4.33-16.1-12.01-21.26
		c-6.4,7.24-10.56,17.1-21.94,18.04c-3.64-4.75-3.75-9.84-4.16-14.69c-0.31-3.68-0.77-7.27-1.85-10.76
		c-0.58-1.87-1.12-4.34-2.52-5.28c-6.3-4.22-8.83-11.55-14.26-16.51c-5.33-4.86-7.27-11.77-8.93-18.63
		c-1.89-7.81-2.39-15.79-2.53-23.75c-0.25-13.73-2.64-27.01-6.86-40.37c-5.5,0.79-6.78,4.47-7.26,9.11
		c-0.98,9.61-1.01,19.12,1.93,28.46c0.17,0.54-0.22,1.25-0.52,2.67c-5.88,0.15-10.41-2.71-14.52-6.62
		c-18.33-17.46-29.33-38.39-30.35-64.06c-0.04-0.98-0.32-1.95-0.68-4.02c-2.63,7.93-5.15,14.83-7.19,21.86
		c-4.35,15.04-9.34,29.78-16.71,43.68c-7.62,14.4-14.64,29.12-22.18,43.56c-9.11,17.45-20.1,33.63-32.46,49.01
		c-15.68,19.51-32.27,38.04-51.58,54.02c-11.31,9.36-23.46,17.55-36.37,24.52c-23.13,12.49-46.73,23.91-71.91,31.89
		c-29.89,9.48-60.32,16.06-91.43,19.88c-27.16,3.34-54.43,4.36-81.65,3.06c-32.86-1.57-65.41-6.13-97.41-14.32
		c-17.42-4.46-34.52-9.95-51.38-16.03c-11.82-4.26-23.04-10.3-34.34-15.91c-24.45-12.12-48.56-25-71.38-39.91
		c-27-17.65-53-36.83-79.57-55.15c-7.94-5.47-16.39-10.19-24.51-15.4c-13.17-8.45-26.18-17.14-39.4-25.5
		c-7.3-4.62-14.78-9-22.38-13.11c-23.7-12.84-47.49-25.56-72.14-36.51c-24.04-10.68-48.72-19.79-74.07-26.72
		c-12.11-3.31-24.84-4.35-37.25-6.58c-14.43-2.6-29.1-2.89-43.64-3.64c-12.86-0.66-25.93,0.49-38.77,2
		c-22.12,2.59-43.95,6.88-65.29,13.53c-15.61,4.86-30.67,11.06-45.34,18.16c-15.26,7.4-25.68,18.94-27.68,36.45
		c-1.29,11.29,2.3,21.62,7.91,31.21c7.52,12.87,18.03,23.07,30.08,31.6c19.72,13.96,41.34,23.74,64.63,30.45
		c14.71,4.24,29.37,8.38,44.46,10.9c17.7,2.95,35.45,5.47,53.48,5.45c4.95,0,9.92,1.32,14.85,1.19
		c51.49-1.37,102.04-7.75,149.73-28.92c8.43-3.74,16.98-7.2,26.24-11.11c0.25,3.66-1.55,5.43-3.12,7.32
		c-12.7,15.38-28.39,26.88-45.99,36.1c-35.15,18.42-72.59,29.29-111.67,35.42c-32.11,5.03-64.42,4.82-96.61,3.46
		c-19.1-0.81-38.13-5.04-56.97-9.33c-31.72-7.22-61.86-18.33-89.97-34.67c-22.67-13.17-42.65-29.52-58.23-50.88
		c-10.35-14.18-18.06-29.71-21.08-46.97c-3.63-20.71-1.74-41.13,7.02-60.57c12.6-27.97,32.89-48.73,59.1-64.31
		c23.38-13.9,48.67-23.04,74.51-30.77c26.78-8.01,54.15-13.35,81.94-16.73c26.83-3.27,53.75-4.01,80.66-3.03
		c14.6,0.53,29.28,0.51,43.8,1.98c19.48,1.96,38.9,4.65,58.14,8.38c16.61,3.23,33.19,6.62,49.84,9.7
		c10.39,1.92,20.47,5.77,30.54,9.18c18.27,6.19,36.36,12.91,54.66,19.01c15.82,5.28,30.99,12.07,46.2,18.78
		c19.47,8.6,38.85,17.42,58.38,25.89c11.93,5.18,23.22,11.59,34.7,17.62c26.91,14.12,55.5,24.1,83.89,34.6
		c18.73,6.93,37.78,12.85,57.16,17.65c9.33,2.31,18.8,3.92,27.77,4.73c2.65-1.81,2.19-4,2.42-5.89
		c2.95-24.56,11.42-46.81,25.77-67.16c24.93-35.35,50.43-70.32,73.21-107.14c4.55-7.35,8.84-14.88,13.09-22.41
		c1.46-2.59,2.5-5.43,3.63-8.2c2.5-6.11,1.61-10.99-3.5-15.98c-11.71-11.41-21.66-24.36-30.01-38.46
		c-2.39-4.04-5.33-7.56-8.61-10.92c-20.96-21.47-40.25-44.29-56.5-69.61c-5.09-7.94-8.87-16.46-11.53-25.37
		c-6.19-20.74-14.23-40.81-21.86-61.01c-3.37-8.93-3.59-17.24-0.4-26.12c3.37-9.37,5.05-19.29,9-28.5
		c12.23-28.46,25.13-56.56,43.05-82.02c12.69-18.03,27.33-34.35,43.76-49.06c11.39-10.2,22.37-20.89,34.77-29.93
		c14.8-10.79,29.66-21.64,45.7-30.37c14.06-7.65,16.57-19.75,16.6-33.48c0.02-8.33-2.22-16.43-4-24.55
		c-7.51-34.33-10.08-69.04-7.87-104.11c0.06-0.91-0.38-1.86-0.7-3.29c-10.88-0.63-21.79,0.59-32.56-1.92
		c-10.32-2.41-20.18-5.89-31.48-11.4c2.72,5.79,4.51,9.87,6.53,13.83c10.13,19.81,3.73,43.3-18.53,53.58
		c-3.65-1.03-5.18-3.59-5.08-7.36c0.05-2,0.08-4-0.04-6c-0.32-5.29-2.34-9.71-7.15-12.35c-4.17-2.29-7.45-5.57-10.71-8.91
		c-3.84-3.93-5.95-8.31-6.32-14.12c-0.45-7.14-1.65-14.36-4.24-21.23c-12.01,5.07-18.52,11.96-21.89,22.95
		c-0.98,3.18-2.1,6.33-2.8,9.57c-3.12,14.4-12.2,23.29-25.89,27.52c-6.24,1.93-9.46,5.87-10.59,11.9
		c-1.08,5.79-1.96,11.62-2.88,17.16c-2.58,1.69-4.65-1.02-6.88-0.12c-2.44,5.56,3.28,10.9,0.51,16.43c-11,0-12.24-0.92-30.66-22.76
		c-1.33,2.32-2.6,4.54-4.03,7.03c-11.2-6.59-16.43-16.66-18.41-28.57c-2.54-15.25,0.66-29.82,6.71-43.77
		c1.96-4.53,4.96-8.62,8.62-12.16c17.81-17.24,29.64-38.28,38.56-61.15c3.99-10.22,8.14-20.38,12-30.65
		c5.79-15.38,18.1-21.65,33.21-23.02c6.82-0.62,13.89,0.74,20.75,1.83c4.27,0.68,8.64,0.86,12.81,1.76
		c9.36,2.01,18.5,0.02,27.72-0.59c2.28-0.15,4.64-0.66,6.75-1.52c8.6-3.5,17.12-7.2,25.39-10.71c4.2-9.19,2.63-18.68,3.39-27.87
		c1.79-21.75,5.98-42.78,17.47-61.77c1.56-2.58,2.26-5.34,2.71-8.4c1.94-13.13,4.14-26.16,9-38.73
		c7.05-18.25,18.23-33.16,33.58-44.97c10.81-8.32,21.76-16.44,33.1-24.07c8.86-5.96,15.79-13.74,20.79-23.67
		c6.25-12.39,8.86-25.73,12.62-38.78c2.3-7.99,3.74-16.24,6.38-24.1c4.12-12.24,4.83-24.74,4.4-37.45c-0.1-3.02-0.57-5.89-1.49-8.8
		c-2.6-8.24-4.5-16.72-7.5-24.81c-1.86-5-0.37-10.78-4.19-15.57c-2.3,3.39-4.5,6.64-6.7,9.89c-4.34,6.41-9.68,11.87-15.96,16.37
		c-6.55,4.69-10.97,10.37-11.03,18.96c-0.03,4.61-0.8,9.27-1.77,13.79c-2.74,12.78-9.23,23.44-19.2,31.88
		c-3.55,3-7.37,5.7-11.18,8.37c-7.73,5.42-7.76,5.38-12.31,15.1c0.61,2.83,2.97,4.35,4.79,6.24c2.14,2.23,3.84,4.72,4.23,7.76
		c0.79,6.13,3.42,11.6,6.71,16.53c4.94,7.37,4.11,14.35,0.43,21.65c-1.66,3.29-3.51,6.41-7.04,9.29
		c-5.26-8.71-13.5-15.15-16.86-26.11c-3.09,4.24-5.62,7.69-8.12,11.15c-0.58,0.81-1.57,1.68-1.56,2.51
		c0.13,9.64-5.76,17.39-8.16,26.24c-1.33,4.91-0.59,9.93-1.6,15.08c-5.29,0.41-6.51-5.76-11.14-6.11c-1.63,0.44-2.31,1.76-2.37,3.61
		c-0.05,1.62,0.21,3.37-1.44,4.87c-6.75-1.93-11.71-6.76-13.93-12.97c-3.45-9.62-8.77-18.61-10.02-29.06
		c-0.58-4.87-0.23-9.39,2.92-13.03c5.15-5.95,8.02-12.99,10.71-20.15c5.04-13.37,10.18-26.71,14.78-40.23
		c2.78-8.16,4.88-16.57,6.83-24.97c4.2-18.13,11.82-34.6,23.34-49.19c7.94-10.05,13.61-21.1,17.48-33.35
		c4.44-14.03,12.62-26.36,19.78-39.12c4.38-7.79,9.27-15.22,11.29-24.21c1.93-8.62,7.27-15.75,12.7-22.44
		c9.75-12,22.85-18.1,38.25-18.55c7.76-0.23,15.16-1.48,22.37-4.24c8.94-3.42,13.09-13.48,8.76-22.03c-2.1-4.15-4.7-8.08-8.84-10.59
		c-6.21-3.77-10.79-8.93-12.96-15.89c-1.24-3.95-3.9-6.05-7.53-7.3c-5.13-1.76-9.42-4.88-13.69-8.09
		c-10.06-7.58-13.96-17.28-10.44-30.22c5.22,1.48,7.16,7.12,11.58,9c4.21,1.8,8.71,3.42,13.72,2.22c-0.22-3.98-3.49-5.24-6.14-6.81
		c-9.22-5.46-15.18-13.79-20.54-22.7c-6.35-10.54-5.17-21.56-1.97-32.64c0.82-2.86,2.16-5.59,3.48-8.27c1.63-3.31,3.9-6.05,7.72-7.6
		c3.5,6.72,3.76,13.74,5.04,20.47c2.1,11.02,5.26,14.05,18.81,16.45c-11.74-17.25-18.36-35.49-15.75-55.75
		c1.98-15.36,8.2-29.42,16.9-42.25c1.39-2.06,3.19-4.43,7.38-3.41c0.42,3.5,1.29,7.34,1.27,11.17c-0.06,9.32,0.6,18.58,1.4,27.86
		c0.76,8.85,2.89,17.65,8.59,24.07c8.39,9.46,18.28,17.35,32.73,14.74c4.84-0.88,10.05-0.73,14.95-0.06
		c9.09,1.24,16.41-1.39,24.03-6.52c12.1-8.13,16.05-19.87,17.61-33.04c0.82-6.92,0.75-13.96,0.74-20.95
		c-0.01-6,0.87-11.81,2.26-17.67c4.7-0.05,6.75,3.19,8.59,6.25c10.33,17.16,17.01,35.29,15.19,55.84
		c-1.05,11.93-5.71,22.46-11.27,32.75c-1.06,1.97-3.11,3.5-2.8,6.1c8.73-0.3,14.16-3.95,16.19-11.22c0.89-3.18,1.29-6.5,1.84-9.77
		c0.87-5.17,1.46-10.41,4.74-15.39c8.41,6.3,11.07,15.15,12.55,24.38c3.21,19.97-7.69,33.4-21.65,45.25
		c-2.97,2.52-7.29,3.51-8.93,8.32c5.07,2.02,9.62-0.16,13.86-1.9c4.42-1.81,6.37-7.46,11.83-9.07c2.89,12,0.1,21.51-9.06,28.92
		c-4.65,3.77-9.34,7.59-15.18,9.44c-4.13,1.3-6.8,3.87-8.11,8.01c-2.11,6.65-6.44,11.57-12.41,15.05c-3.3,1.92-5.44,4.91-7.46,7.95
		c-6.82,10.27-2.93,21.01,8.62,25.33c6.66,2.49,13.38,3.55,20.44,3.8c16.97,0.59,30.79,7.58,40.85,21.42
		c5.7,7.84,10.5,16.08,12.3,25.89c0.57,3.13,2.67,6.04,4.33,8.9c8.17,14.1,16.59,28.08,23.03,43.09c2.22,5.17,3.91,10.57,5.84,15.86
		c3.83,10.5,10.95,18.98,17.34,27.88c7.66,10.65,13.68,22.06,16.94,34.78c2.56,9.98,6.17,19.64,8.27,29.77
		c1.07,5.15,3.46,10.03,5.28,15.03c4.45,12.18,8.83,24.38,13.42,36.51c1.53,4.05,3.42,8.1,6.6,11.09c4.41,4.14,4.85,9.16,4.32,14.6
		c-0.06,0.66-0.2,1.32-0.29,1.98c-0.67,4.83-8.98,26.42-11.47,30.56c-2.86,4.76-6.84,7.98-12.11,10.07
		c-3.22-2.08-0.65-5.93-2.98-8.36c-0.69,0.05-1.65-0.05-2.49,0.22c-3.41,1.11-4.75,5.53-9.09,5.99c-1.87-2.89-1.08-5.94-1.25-8.8
		c-0.35-5.67-0.61-11.29-4.47-16.04c-2.16-2.65-3.2-6.15-3.23-9.31c-0.08-8.49-5.52-13.68-10.97-20.73
		c-3.21,10.88-12.14,16.53-16.27,26.23c-6.93-5.91-9.49-13.23-10.95-21.1c-0.52-2.81,0.82-5.24,2.18-7.52
		c3.78-6.3,7.22-12.71,8.45-20.1c0.89-5.34,5.84-7.92,8.91-12.43c-1.62-6.5-5.36-11.58-11.23-15.35
		c-8.72-5.6-16.81-11.87-22.78-20.63c-5.78-8.48-8.91-17.69-9.74-27.88c-0.48-5.87,0.07-11.96-3.96-17.19
		c-1.84-2.39-3.44-4.96-5.92-6.64c-9.86-6.69-17.29-15.5-23.08-25.81c-0.27-0.47-1.06-0.65-2.42-1.43
		c-2.37,15.9-9.55,30.27-12.09,45.75c-1.77,10.74-0.9,21.86,2.1,32.65c4.9,17.62,9.18,35.41,14.16,53
		c5.22,18.46,14.71,33.68,31.67,44.25c12.66,7.89,24.63,17.14,35.9,26.94c18.52,16.09,28.63,37.21,33.21,61.11
		c0.31,1.63,0.48,3.29,0.67,4.94c1.2,10.27,4.36,19.67,9.22,29c8.05,15.46,11.42,32.53,12.6,49.95c0.53,7.87,1.13,15.73,1.62,23.6
		c0.32,5.17,2.15,8.89,7.85,9.96c2.57,0.48,5.23,1.44,7.42,2.86c10.21,6.64,21.89,7.83,33.43,8.37c8.17,0.38,16.49-1.19,24.67-2.4
		c9.19-1.36,18.4-2.62,27.59-1.18c12.64,1.98,22.24,8.44,27.12,20.81c4.03,10.21,8.2,20.35,12.15,30.59
		c9.08,23.54,21.2,45.14,39.42,62.95c6.9,6.74,10.26,15.28,12.74,24.42c3.09,11.4,4.69,22.8,1.65,34.4
		C1591.78,923.09,1586.91,932.24,1576.97,937.61z"/>
	<path class="st0" d="M363.14,1818.11c-16.9,6.08-32.73,7.98-48.57,9.4c-11.82,1.06-23.77,1.96-35.58,1.38
		c-19.2-0.95-38.55-0.44-57.56-4.31c-3.89-0.79-7.93-1.43-11.86-1.24c-6.44,0.32-12.7-0.78-18.73-2.39
		c-22.5-5.99-45.1-11.99-65.26-24.23c-15.41-9.36-30.17-19.88-41.64-33.89c-8.84-10.81-15.26-23.34-20.1-36.58
		c-1.06-2.9-1.49-5.77-1.48-8.79c0.01-2.33,0.24-4.69-0.04-6.99c-1.97-16.44,3.74-30.82,12-44.44c7.04-11.6,16.51-20.89,28.48-27.33
		c30.08-16.18,61.77-28.01,95.42-34.2c15.35-2.82,30.8-4.7,46.44-5.65c13.97-0.85,27.92-1.3,41.86-0.98
		c35.35,0.81,70.08,5.54,104,16.21c30.57,9.62,59.72,22.46,88.55,36.25c22.83,10.93,44.98,23.05,66.27,36.72
		c22.12,14.21,44.02,28.75,66.12,42.97c20.16,12.98,39.32,27.38,59.05,40.94c27.15,18.66,55.5,35.52,85.14,50.04
		c38.24,18.74,78.64,30.35,120.64,36.86c22.03,3.42,44.11,5.98,66.43,5.85c32.07-0.18,63.6-4.52,94.51-13.06
		c10.89-3.01,21.95-5.31,32.74-8.78c25.78-8.28,50.47-18.66,72.46-34.82c6.96-5.11,14.6-9.23,21.55-14.43
		c25.42-19.03,44.61-43.6,62.75-69.22c15.93-22.48,27.58-46.92,36.1-73.08c5.88-18.04,11.58-36.12,14.42-54.88
		c2.53-16.72,5.1-33.42,5.88-50.43c0.68-14.94,1.92-29.88,1.62-44.82c-0.63-31.55-1.93-63.09-7.56-94.25
		c-1.48-8.21-0.96-16.54-1.96-24.82c-3.1-25.64-10.92-49.99-19.12-74.23c-4.47-13.21-9.28-26.43-15.42-38.92
		c-7.35-14.94-13.58-30.32-20.35-45.48c-5.82-13.04-10.82-26.38-13.63-40.61c2.42-0.3,2.54,1.69,3.02,2.67
		c10.54,21.52,21.13,43.02,31.35,64.68c13.2,27.96,26.8,55.75,36,85.42c6.32,20.36,12.07,40.9,14.44,62.05
		c1.88,16.82,4.42,33.56,5.6,50.5c1.19,16.95,1.02,33.9,1.91,50.82c0.96,18.28-1.32,36.42-1.09,54.66
		c0.12,9.53-2.13,19.09-3.34,28.64c-2.66,21.15-6.77,42-13.64,62.2c-5.99,17.61-11.8,35.29-19.8,52.15
		c-7.9,16.65-18.8,31.41-29.28,46.4c-9.54,13.63-20.09,26.54-31.43,38.73c-13.7,14.72-29.94,26.3-46.94,36.93
		c-25.9,16.2-54.02,27.2-83.1,35.93c-32.57,9.77-65.82,15.69-99.78,18.35c-16.64,1.3-33.23,1.86-49.77,0.86
		c-20.86-1.27-41.63-3.93-62.21-7.83c-19.95-3.78-39.63-8.63-58.84-15.18c-26.52-9.03-51.88-20.66-76.33-34.35
		c-30.54-17.11-59.4-36.71-87.86-57.05c-21.1-15.08-43.3-28.61-65.02-42.83c-7.52-4.92-15.16-9.67-22.58-14.74
		c-26.45-18.08-54.75-32.75-83.59-46.57c-16.83-8.07-33.95-15.32-51.36-21.94c-24.3-9.24-49.24-16.38-74.91-20.51
		c-15.05-2.42-30.28-4.08-45.59-4.11c-8.66-0.02-17.33-0.01-25.99,0c-54.14,0.07-105.36,12.08-153.7,36.7
		c-19.25,9.8-31.94,24.93-38.65,44.92c-3.02,9.02-4.43,18.67-2.21,28.51c3.2,14.16,8.25,27.19,18.2,38.22
		c22.34,24.78,49.18,42.84,80.72,53.27c19.84,6.56,40.27,10.96,61.35,12.61c23.27,1.82,46.49,2.17,69.73,0.94
		c12.24-0.65,24.41-2.77,36.65-3.45C346.29,1819.09,353.8,1817.12,363.14,1818.11z"/>
	<path class="st0" d="M351.67,1842.1c-12.79,4.04-24.04,5.15-35.14,6.99c-18.51,3.07-37.23,2.73-55.79,1.78
		c-31.2-1.6-62.17-5.66-92.31-14.41c-16.65-4.84-33.02-10.77-48.12-19.18c-26.26-14.63-50.83-31.91-70.68-54.75
		c-15.38-17.7-24.38-38.7-27.01-62.2c-0.56-5.02,0.43-9.89,1.1-14.86c2.71-19.95,12.37-36.33,25.5-50.95
		c11.27-12.55,24.9-22.04,40.12-29.14c32.12-14.98,65.8-25.12,100.56-31.83c24.5-4.73,49.15-7.72,74.15-8.59
		c19.28-0.67,38.37,0.46,57.53,2.03c9.59,0.79,19.19,0.56,28.83,1.84c18.45,2.46,36.74,5.61,54.98,9.32
		c34.94,7.09,69.4,15.88,102.35,29.62c27.93,11.64,56.29,22.25,83.51,35.61c17.6,8.64,35.75,16.18,53.63,24.26
		c3.93,1.78,7.87,3.58,11.67,5.61c30.62,16.33,62.87,28.76,95.43,40.59c26.63,9.68,53.62,18.04,81.53,22.83
		c17.7,3.04,35.66,3.63,53.65,1.6c5.93-0.67,11.97-0.21,17.95-0.5c27.87-1.38,54.44-7.19,79.31-20.72
		c24.55-13.35,44.21-31.73,60.05-54.36c8.8-12.58,14.87-26.68,20.75-40.85c8.74-21.09,13.43-43.03,15.8-65.65
		c2.15-20.52,4.48-41.1,2.96-61.65c-1.31-17.66-0.67-35.25-1.01-52.87c-0.2-10.3,0.51-20.51,1.67-30.82
		c4.81-42.71,16.63-83.33,34.21-122.41c13.93-30.96,28.75-61.48,43.92-91.85c2.2-4.41,4.3-8.87,6.61-13.62
		c2.05,2.66,0.79,4.75,0.24,6.83c-4.39,16.82-11.69,32.52-18.65,48.34c-11.91,27.06-24.61,53.79-33.5,82.08
		c-6.67,21.26-12.86,42.69-16.24,64.73c-2.11,13.77-2.85,27.76-2.97,41.73c-0.11,12.33,0.62,24.7-0.2,36.98
		c-0.81,12.19,0.86,24.38-0.93,36.59c-0.85,5.8-0.83,11.93,0.65,17.88c0.63,2.53,0.52,5.3,0.43,7.94
		c-1.47,40.87-8.19,80.44-25.85,117.92c-12.62,26.78-30.38,49.07-52.87,67.9c-5.16,4.32-11.53,6.62-17.35,9.82
		c-19.97,10.96-41.38,17.84-63.76,22.02c-16.43,3.07-32.92,4.56-49.6,4.05c-5.35-0.16-10.47,1.47-15.85,1.45
		c-31.52-0.09-62.17-5.28-92.12-14.89c-30.1-9.66-59.77-20.49-88.84-32.91c-5.5-2.35-10.9-4.98-16.22-7.71
		c-26.67-13.66-53.87-26.16-81.35-38.1c-18.91-8.22-37.68-16.76-56.68-24.78c-30.95-13.06-62.15-25.5-94.73-34.01
		c-9.95-2.6-19.95-5.12-30.05-7.07c-24.77-4.79-49.57-9.4-74.65-12.44c-12.93-1.57-25.88-1.28-38.8-2.18
		c-5.95-0.41-11.91-1.34-17.85-1.26c-48.48,0.68-95.94,7.85-142.13,22.88c-11.4,3.71-22.6,7.89-33.79,12.18
		c-14.79,5.67-28.18,13.64-40.06,23.92c-17.34,15.01-29.72,33.23-32.53,56.59c-1.61,13.38,0.35,26.37,5.69,38.96
		c7.11,16.77,16.56,32,29.79,44.4c15.08,14.13,31.89,26.16,49.72,36.7c21.4,12.65,44.67,20.36,68.7,26.13
		c3.55,0.85,7.04,1.98,10.55,2.98c9.93,2.82,19.97,4.45,30.32,5.46c14.89,1.45,29.88,0.36,44.72,2.79
		c5.08,0.83,10.53-0.82,15.82-1.05c8.31-0.36,16.64-0.59,24.96-0.66c10.97-0.1,21.78-1.62,32.59-3.26
		C347.26,1841.68,348.61,1841.96,351.67,1842.1z"/>
	<path class="st0" d="M1336.33,1015.09c4.17,5.84,10,9.61,16.2,12.86c12.11,6.35,23.86,13.35,34.51,21.9
		c13.22,10.61,27.44,19.91,40.13,31.22c27.97,24.91,53.46,51.83,72.37,84.54c9.34,16.16,17.48,32.86,24.98,49.89
		c6.81,15.45,10.42,31.57,7.62,48.57c-1.08,6.54-2.63,12.99-3.92,19.5c-0.58,2.92-1.21,5.85-1.56,8.81
		c-1.01,8.55-4.94,15.8-9.94,22.55c-5.34,7.21-13.01,10.23-21.6,10.75c-12.26,0.74-24.55,1.03-36.83,1.49
		c-16.31,0.6-31.29,5.23-44.83,14.5c-3.53,2.42-5.42,5.81-6.88,9.54c-4.02,10.25-7.17,20.77-7.69,31.83
		c-0.47,10.03-2.87,19.71-4.74,29.48c-0.88,4.56-2.41,9.05-4.94,13.01c-4.47,7-7.32,14.89-12.25,21.67
		c-2.95,4.05-3.82,9.17-5.08,13.96c-2.45,9.29-7.51,16.94-14.16,23.65c-3.99,4.02-7.75,8.19-10.91,13.53
		c5.34,8.67,13.75,12.56,22.96,13.96c10.76,1.64,21.63,3.14,32.61,2.87c6.99-0.17,12.13,2.39,14.74,9.41
		c1.21,3.27,3.37,6.18,4.73,9.92c-12.32-6.08-25.06-5.45-38.01-4.99c-9.94,0.35-19.79-2.07-29.32-5.21
		c-2.47-0.82-4.94-1.64-7.61-2.52c-3.55,3.64-3.58,9.56-8.08,12.19c-2.97-0.28-2.72-2.82-3.32-4.42
		c-3.23-8.59-4.93-17.67-9.46-27.46c3.2,1.43,5.03,2.24,7.56,3.37c1.14-3.3,2.62-6.23,3.14-9.33c1.86-11,7.66-19.89,15.35-27.37
		c8.39-8.15,14.23-18.05,22.12-28.2c-4.43-0.39-5.81,3.56-8.85,3.2c-0.05-0.9-0.39-1.93-0.12-2.76c2.66-8.21,5.9-16.27,8.04-24.61
		c4.13-16.09,7.01-32.45,7.54-49.11c0.16-5.04,1.04-9.9,2.41-14.68c2.19-7.64,4.99-15.13,3.7-23.33c-0.33-2.07,0.37-4,1.92-5.45
		c3.37-3.15,6.03-7.13,10.41-9.24c4.67,2.26,3.43,7.75,6.6,11.22c10.47-8.39,22.3-14.32,35.53-16.93
		c10.06-1.98,20.21-3.91,30.58-2.43c0.65,0.09,1.32,0.55,1.91,0.45c17.11-2.97,33.57-7.78,42.22-24.52
		c3.86-7.47,7.53-15.73,7.83-24.37c0.2-5.61,1.89-10.97,1.52-16.69c-0.51-7.78-3.02-14.86-5.13-22.21
		c-2.76-9.59-6.4-18.75-10.2-27.94c-3.41-8.26-8.5-15.13-15.29-20.62c-11.89-9.62-23.88-19.1-37.7-26
		c-9.1-4.55-16.45-10.8-19.91-21.03c-2.44-7.23-6.19-14-8.8-21.18c-5.07-13.95-15.2-23-27.78-29.85
		c-7.24-3.94-15.41-4.23-23.24-4.88c-11.56-0.96-23.24-1.02-34.72,1.82c-8.14,2.01-15.93,4.8-22.98,9.32
		c-6.98,4.48-13.9,9.09-20.6,13.99c-4.54,3.33-8.98,6.95-11.99,11.87c-3.26,5.33-8.69,8.24-13.44,11.73
		c-3.04,2.23-7.7,0.67-11.56,3.13c-2.09-7.05-4.54-13.14-3.94-20.21c1.41-0.78,2.78-1.74,4.28-2.35c8.5-3.45,15.03-9.05,20.95-16.19
		c5.44-6.56,12.36-12.23,20.88-14.88c3.34-1.04,5.85-3.12,8.47-5.1c6.51-4.92,13.72-7.76,21.79-9.24
		c8.44-1.54,16.68-4.12,25.93-6.49c-6.89-7.23-13.33-13.9-19.66-20.67c-2.45-2.62-5.84-4.61-6.34-8.67
		C1335.11,1015.45,1335.72,1015.27,1336.33,1015.09z"/>
	<path class="st0" d="M1026.43,1027.6c-3.62,6.84-9.65,10.98-15.74,15.05c-11.9,7.97-23.55,16.18-33.57,26.6
		c-6.1,6.34-10.76,13.49-14.7,21.22c-0.6,1.18-1.1,2.42-1.58,3.66c-6.65,16.98-15.44,33.05-21.18,50.63
		c-22.39,7.67-41.63,20.63-59.71,35.38c-10.29,8.39-17.52,18.91-19.86,32.4c-0.62,3.55-2.18,6.96-3.51,10.36
		c-3.6,9.15-3.8,18.32-3.1,28.21c0.71,9.96,4.64,18.58,6.94,27.82c1.33,5.33,5.09,9.52,8.86,12.98
		c6.33,5.81,13.38,10.68,22.49,12.09c7.15,1.11,14.12,1.96,21.44,2.11c21.28,0.42,41.55,5.05,58.54,19.55
		c4.2-2.53,1.99-8.63,6.99-10.85c4.86,1.51,7.76,6.2,11.22,10.07c0.93,1.04,1.05,3.2,0.87,4.76c-0.88,7.53,1.54,14.49,3.7,21.43
		c1.41,4.51,2.1,9.01,2.4,13.68c1.5,23.27,4.67,46.21,13.32,68.1c1.19,3.01,3.12,5.98,1.95,9.65c-3.01,2-4.02-2.54-6.53-2.12
		c-0.66,0.44-0.84,1.06-0.37,1.73c2.87,4.07,5.87,8.05,8.65,12.19c4.4,6.57,9.6,12.42,15.1,18.08c6.41,6.58,10.62,14.35,12.05,23.59
		c0.45,2.89,1.78,5.65,2.64,8.27c2.49,2.19,4.06-1.64,6.79-0.46c-3.41,10.22-5.35,20.91-10.19,30.94c-5.58-2.86-5.38-9.28-9.1-12.99
		c-11.18,3.88-22.31,7.1-34.06,7.61c-2.66,0.12-5.27,0.26-7.94,0.02c-11.11-1.02-21.96-0.19-32.09,5.69
		c0.8-4.56,5.35-14.91,7.61-16.68c2.96-2.32,6.49-3.26,10.27-3.22c10.98,0.13,21.81-1.3,32.65-2.86
		c9.54-1.37,17.43-5.43,23.36-13.15c-1.76-5.44-5.28-8.99-8.76-12.46c-7.9-7.87-14.11-16.51-16.53-27.79
		c-2.19-10.2-8.47-18.77-13.7-27.52c-7.25-12.13-9.89-25.29-11.69-38.8c-1.58-11.84-3.15-23.55-6.32-35.18
		c-3.62-13.26-12.98-19.83-24.43-24.01c-11.84-4.32-24.08-7.07-37.07-6.43c-10.22,0.5-20.56-0.58-30.81-1.46
		c-10.65-0.91-18.73-6.09-23.79-15.8c-2.77-5.32-5.46-10.52-6.38-16.61c-1.64-10.81-3.71-21.56-5.69-32.31
		c-1.72-9.32-1.11-18.41,1.62-27.53c4.03-13.44,10.08-25.94,15.91-38.65c7.81-17.02,17.22-33.01,27.68-48.41
		c13.52-19.9,29.7-37.52,47.6-53.58c5.44-4.88,10.48-10.27,16.24-14.75c19.4-15.1,38.19-31.06,59.44-43.64
		C1018.3,1031.9,1022.4,1029.8,1026.43,1027.6z"/>
	<path class="st0" d="M1169.72,822.05c-3.33,5.19-6.35,9.97-9.45,14.7c-2.24,3.4-3.17,7.25-4.37,11.07
		c-1.56,4.97-1.14,8.82,2.96,12.55c2.9,2.64,5.1,6.14,7.24,9.49c4.39,6.86,5.51,14.21,2.11,21.84c-1.76,3.93-3.59,7.87-7.19,11.51
		c-12.19-5.64-23.15-13.71-35.5-19.7c-5.03-29.2-8.89-58.38-8.58-88.09C1127.21,797.09,1158.17,812.7,1169.72,822.05z"/>
	<path class="st0" d="M1260.67,794c1.09,31.19-2.99,60.03-8,89.13c-11.77,6.79-23.47,13.53-35.07,20.23
		c-11.91-14.14-12.44-23.99-2.38-37.99c1.36-1.89,2.54-4.04,4.3-5.47c3.71-3,3.83-6.76,2.99-10.82c-0.95-4.57-2.31-8.98-4.97-12.93
		c-3.11-4.63-6.03-9.4-9.44-14.76C1224.68,810.61,1241.87,802.28,1260.67,794z"/>
	<path class="st0" d="M1253.43,709.73c2.92,26.24,7.2,50.95,7.48,76.55c-13.58,6.1-27,11.69-39.95,19.29
		c-7.31-6.17-10.36-14.4-11.92-23.28c-1.72-9.79,2.95-17.31,9.59-23.73c-1.7-10.74-7.06-19.51-12.42-28.96
		C1220.57,720.72,1235.91,714.96,1253.43,709.73z"/>
	<path class="st0" d="M1116.78,786.42c1.3-25.61,4.42-50.46,8.07-75.22c11.45,0.68,36.15,10.8,46.8,19
		c-5.09,8.83-10.51,17.58-12.08,28.41c6.16,6.13,10.55,13.13,9.41,22.75c-1.1,9.3-4.75,17.08-11.21,24.25
		C1144.65,798.67,1131.62,792.21,1116.78,786.42z"/>
	<path class="st0" d="M1083.44,560.92c1.97,1.98,1.46,4.02,1.26,5.93c-1.11,10.69-0.08,21.21,2.21,31.65
		c0.64,2.91,1.18,5.86,1.52,8.82c1.29,11.18,6.61,20.81,11.67,30.53c0.59,1.13,1.59,2.19,2.64,2.92
		c8.41,5.89,15.66,13.44,25.73,17.42c-0.07,8.4-0.66,16.51-4.63,24.28c-5.82-0.26-11.44-1.38-16.94-0.12
		c-8.01,1.83-14.6,6.26-20.46,11.89c-5.24,5.04-10.49,10.08-15.77,15.15c-2.43-0.98-1.59-3.25-1.71-5.08
		c-0.35-4.98,0.29-10.21-1.06-14.88c-1.67-5.73,0.88-8.85,4.68-11.83c6.55-5.14,13.72-9.27,21.46-12.38
		c-0.53-3.05-2.55-4.99-4.27-6.72c-12.25-12.3-16.68-27.68-17.38-44.34c-0.32-7.65-0.42-15.28-2.23-22.75
		c-0.75-3.11-0.55-6.09,1.21-8.6c4.06-5.8,6.2-12.47,9.01-18.84C1080.92,562.75,1081.34,561.53,1083.44,560.92z"/>
	<path class="st0" d="M1295.44,560.38c3.69,4.14,4.19,9.74,6.88,14.27c1.35,2.28,2.23,4.86,3.75,7c2.29,3.24,3.08,6.76,1.97,10.4
		c-1.89,6.17-1.58,12.47-1.89,18.77c-0.7,14.02-2.75,27.77-11.29,39.55c-3.48,4.81-7.39,9.31-11.2,14.06
		c5.39,3.03,10.49,5.99,15.68,8.79c2.97,1.59,5.46,3.73,7.94,5.95c2.66,2.38,3.62,4.98,3.36,8.77c-0.51,7.26-2.46,14.32-1.77,21.46
		c-3.48,0.68-3.86-1.86-5.19-3.14c-5.26-5.07-10.43-10.24-15.82-15.17c-8.37-7.64-18.32-10.42-29.51-8.93
		c-0.65,0.09-1.29,0.41-1.94,0.43c-0.63,0.02-1.26-0.23-2.1-0.4c-4.87-6.81-3.04-15.24-5.46-23.2c9.34-4.21,16.74-10.86,24.67-16.78
		c1.87-1.39,3.83-2.64,4.88-4.86c4.24-8.98,9.45-17.51,10.76-27.7c1.35-10.49,3.45-20.88,4.9-31.35c0.54-3.9,0.46-7.93-0.93-11.83
		C1292.52,564.75,1292.83,564.63,1295.44,560.38z"/>
	<path class="st0" d="M1034.6,1023.02c1.85-2.7,4.67-3.72,5.64-6.47c-1.13-0.69-2.17-1.32-3.16-1.93c0-0.64-0.26-1.45,0.04-1.84
		c6.52-8.59,8.4-18.7,8.98-29.01c0.53-9.35-0.91-18.9-4.43-27.34c-4.44-10.61-5.97-21.73-8.75-32.62
		c-2.31-9.06-2.13-18.44-2.97-27.69c-0.85-9.31-0.84-18.57-0.99-27.86c-0.02-1.32,0.21-2.64,0.32-3.91
		c3.86-3.85,10.57-2.85,13.29-8.27c2.2-4.38,4.46-8.73,7.21-14.11c1.42,3.88,0.61,6.7-0.05,9.3c-1.19,4.63-0.92,9.26-0.59,13.89
		c1.15,16.21,2.72,32.39,3.49,48.61c0.39,8.06,1.46,15.94,4.08,23.45c4.62,13.23,5.56,26.82,3.47,40.37
		c-2.56,16.59-7.68,32.37-21.16,43.88c-0.74,0.63-1.57,1.18-2.4,1.69C1036.42,1023.29,1036.04,1023.13,1034.6,1023.02z"/>
	<path class="st0" d="M1336.33,1015.09c-0.61,0.18-1.22,0.36-1.84,0.55c-3.69-1.97-5.94-5.29-7.54-8.9
		c-9.24-20.85-14.16-42.23-6.73-64.79c4.61-14.02,5.42-28.51,6.05-43.09c0.33-7.61,1.45-15.19,1.89-22.8
		c0.7-11.91,1.85-23.86-2.25-36.84c3.89,3.11,4.58,6.27,5.62,9.09c2.55,6.91,6.34,12.31,14.1,13.88c0.9,0.18,1.66,1.05,2.69,1.75
		c1.13,6.16,0.38,12.48,0.52,18.77c0.51,22.12-3.53,43.64-8.93,64.94c-1.62,6.38-4.84,12.15-6.03,18.87
		c-3.01,17-2.66,33.09,8.05,47.44C1340.17,1016.27,1338.14,1014.98,1336.33,1015.09z"/>
	<path class="st0" d="M1131.3,1065.37c1.98-26.82,3.68-52.62,3.79-79.13c7.88,1.72,12.95,7.29,19.02,10.98
		c5.93,3.61,11.59,7.67,17.57,11.66c-1.19,6.45-4.88,11.33-7.21,16.7c-2.24,5.15-2.63,8.74,2.1,13.13
		c7.43,6.89,9.45,15.5,5.12,25.41c-2.99,6.83-6.97,12.78-12.29,18.4C1149.39,1077.99,1141.24,1070.48,1131.3,1065.37z"/>
	<path class="st0" d="M1216.16,1032.67c-2.26-8.12-6.84-15.13-10.13-23.49c11.82-7.89,23.29-15.55,34.21-22.83
		c1.31,0.38,1.71,0.39,1.91,0.59c0.22,0.21,0.35,0.59,0.36,0.91c1.25,25.75,2.49,51.5,3.75,77.58
		c-8.75,5.65-17.64,11.38-26.84,17.32c-7.41-6.16-11.95-14.08-14.49-23.14c-1.93-6.89,0.26-13,4.44-18.65
		C1211.35,1038.28,1214.62,1036.79,1216.16,1032.67z"/>
	<path class="st0" d="M1225.53,499.7c-0.9-5.96-2.08-11.44-2.51-16.99c-1-12.91-3.53-25.56-5.76-38.27
		c-0.43-2.43,0.11-4.58,0.78-6.82c8.74-29.56,10.69-60.02,11.27-90.55c0.14-7.36-0.53-14.47,2.82-21.31
		c0.69-1.41,0.72-3.24,0.72-4.88c0.03-15.61,1.16-31.34-2.45-46.67c-1.9-8.09,1.11-13.94,6.75-18.29
		c5.96-4.6,11.19-10.55,18.91-12.61c2.05-0.55,3.54-1.97,4.28-3.89c1.76-4.57,5.35-4.43,9.09-3.59c2.91,0.65,5.78,1.6,8.12,4.31
		c0.22,4.71-2.96,7.54-6.58,9.88c-3.06,1.98-6.32,3.7-9.64,5.23c-10.07,4.64-15.42,12.92-19.01,24.01c5.3-1.94,9.64-4.17,14.23-5.04
		c4.79-0.91,9.83-1.91,15.21,0.02c-2.3,3.75-1.44,7.47,0.45,10.81c-0.97,0.74-1.58,1.54-1.95,1.45c-8.44-2.19-14.86,1.11-20.35,7.22
		c-2,2.23-4.27,4.22-6.21,6.48c-2.2,2.56-3.4,5.33-3.01,9.06c0.55,5.27,0.35,10.64,0.13,15.96c-0.15,3.62,0.03,7.71-1.56,10.73
		c-3.17,5.98-3.18,12.12-2.98,18.44c0.35,11.33-0.41,22.55-3.2,33.58c-3.35,13.26-2.45,27.07-5.26,40.41
		c-2.4,11.41-3.75,23.06-2.68,34.58c0.89,9.62,0.67,19.22,1.33,28.81C1226.65,494.25,1227.13,496.84,1225.53,499.7z"/>
	<path class="st0" d="M1151.96,501.55c-1.53-2.32-1.2-4.39-0.95-6.27c2.29-16.84,1.77-33.76,1.53-50.66
		c-0.06-4.28-0.66-8.65-1.71-12.79c-2.73-10.72-1.62-21.86-3.92-32.58c-3.57-16.64-5.65-33.38-4.73-50.43
		c0.12-2.27,0.09-4.87-0.87-6.83c-5.7-11.64-4.94-23.82-3.62-36.11c0.03-0.31-0.11-0.64-0.2-1.09c-2.3-4.4-6.14-7.64-9.53-11.29
		c-5.57-6-11.88-9.57-19.98-6.69c-2-1.73-1.77-3.39-0.63-4.72c2.4-2.79-0.68-4.93-0.68-8.11c9.99-1.82,19.29,0.11,29.58,6.68
		c-3.77-12.16-9.16-20.24-18.79-25.2c-3.25-1.67-6.58-3.21-9.68-5.11c-3.7-2.26-7.3-4.78-7.11-10.29c4.09-3.65,8.74-5.49,15.08-3.95
		c1.84,4.5,5.92,6.81,10.42,9.25c7.5,4.07,14.8,8.78,19.72,16.24c2.35,3.56,3.1,7.05,2.14,11.3c-3.58,15.69-3.31,31.66-3.09,47.61
		c0.02,1.32-0.05,2.83,0.55,3.91c4.1,7.41,3.2,15.39,3.22,23.38c0.07,23.28,2.44,46.39,6.29,69.34c1.04,6.19,3.02,12.23,4.67,18.3
		c0.98,3.58,1.24,7.07,0.63,10.82c-1.98,12.09-3.9,24.2-5.31,36.36C1154.27,488.85,1153.11,494.95,1151.96,501.55z"/>
	<path class="st0" d="M1189.62,1057.85c1.25-11.79,0.22-25.86,0.83-40.08c2.9-2.86,6.59-4.27,10.22-6.25
		c3.9,2.38,4.66,6.45,6.28,9.94c1.66,3.58,3.25,7.21,4.87,10.82c-1.11,1.31-1.86,2.41-2.82,3.31c-9.19,8.57-10.44,18.76-6.26,30.1
		c1.5,4.08,3.53,7.89,6.11,11.4c1.93,2.63,3.86,5.27,6.1,8.32c-7.71,6.52-16.25,10.8-25.24,15.29c-9.64-3.18-17.85-9.11-26.23-14.56
		c1.07-3.93,3.5-5.83,5.22-8.16c4.02-5.43,6.77-11.35,8.25-17.96c1.88-8.38,0.08-15.71-5.52-22.14c-1.52-1.74-3.19-3.35-5.04-5.28
		c2.98-7.12,5.43-14.25,9.7-20.57c3.78,0.29,6.44,2.38,9.86,4.08C1191.41,1030.17,1186.26,1045.5,1189.62,1057.85z"/>
	<path class="st0" d="M1158.06,991.22c-3.97-2.63-7.48-5.07-11.1-7.32c-3.64-2.26-7.4-4.33-11.84-6.9
		c0.32-27.62-6.4-54.98-8.08-84.23c15.57,7.62,28.8,16.26,42.76,24.92c-2.77,5.31-5.27,10.24-7.91,15.09
		c-1.62,2.96-2.68,5.99-2.79,9.42c-0.08,2.48,0.29,4.6,2.32,6.21c0.78,0.62,1.61,1.2,2.25,1.95c7.18,8.43,8.64,17.71,3.7,27.7
		C1165.02,982.8,1161.84,987.01,1158.06,991.22z"/>
	<path class="st0" d="M1208.6,918.43c10.27-8.23,33.5-21.76,42.26-24.47c-1.35,28-7.88,55.17-8.1,83.39
		c-8.38,3.44-14.95,9.68-23.24,13.64c-2.61-3.69-5.35-7.04-7.52-10.74c-6.23-10.64-5.15-21.06,2.85-30.3
		c4.7-5.44,5.26-9.5,1.93-16.08C1214.24,928.86,1211.52,923.92,1208.6,918.43z"/>
	<path class="st0" d="M1137.9,640.76c15.51,4.6,27.95,9.86,40.49,15.61c-3.68,7.79-6.94,15.03-10.51,22.1
		c-2.4,4.75-1.74,8.53,1.58,12.76c6.35,8.1,6.18,11.98,0.45,20.59c-1.27,1.91-2.68,3.73-3.92,5.44
		c-4.98-0.89-33.38-11.48-39.55-14.75C1128.03,681.89,1137.6,662.75,1137.9,640.76z"/>
	<path class="st0" d="M1239.52,641.75c2.86,10.56,2.22,21.06,6.03,30.77c3.65,9.3,4.13,19.42,6.62,29.56
		c-5.71,4.69-13.27,5.25-19.76,8.2c-6.28,2.86-12.81,5.19-19.23,7.75c-3.15-2.96-5.15-5.99-6.82-9.2
		c-3.01-5.81-3.36-11.76,1.43-16.65c4.75-4.84,5.08-9.4,1.85-15.19c-3.54-6.33-6.33-13.08-9.43-19.59
		C1207.46,652.05,1227.16,644.16,1239.52,641.75z"/>
	<path class="st0" d="M1064.85,753.5c-0.89-2.11-1.79-4.23-2.69-6.34c-6.84-16.14-18.61-27.11-34.82-33.6
		c-7.08-2.83-13.91-6.27-21.32-8.28c-5.21-1.41-9.88-4.01-13.99-7.4c-3.72-3.06-6.01-6.65-4.48-12.14
		c1.94-6.97,2.39-14.35,4.9-20.24c0.94-1.43,1.54-1.47,2.06-0.75c8.87,12.2,21.86,18.01,35.57,22.37
		c11.92,3.79,22.75,9.1,31.21,18.58c1.58,1.78,2.84,3.49,2.95,6.05c0.62,13.87,1.37,27.74,2.08,41.61
		C1065.84,753.41,1065.34,753.46,1064.85,753.5z"/>
	<path class="st0" d="M1312.33,751.47c0-3.86-0.19-7.74,0.04-11.59c0.52-8.93,1.37-17.85,1.79-26.78c0.15-3.2,1.16-5.57,3.29-7.96
		c8.03-9.03,18.32-14.22,29.59-17.68c5.43-1.67,10.7-3.59,15.74-6.18c8.02-4.13,15.72-8.67,20.57-16.35
		c3.12,0.42,3.12,2.58,3.54,4.49c1.2,5.51,2.43,11.01,3.64,16.51c1.23,5.59-1.06,9.6-5.51,12.8c-4.1,2.95-8.49,5.17-13.31,6.67
		c-9.86,3.07-19.16,7.43-28.44,11.96c-11.63,5.68-19.59,14.57-25.28,25.87c-1.43,2.84-2.88,5.67-4.32,8.5
		C1313.22,751.64,1312.77,751.55,1312.33,751.47z"/>
	<path class="st0" d="M1361.55,1366.87c-2.61,0.91-4.45,1.74-6.38,2.17c-3.18,0.71-6.42,1.16-9.67,1.72
		c-0.68-1.05-1.21-1.87-1.74-2.69c0,0-16.45-74.46-16.61-75.18c18.99,10.46,38.58,18.02,60.61,20.79
		c-6.23,9.03-15.16,14.38-19.54,23.68C1363.87,1346.62,1363.06,1356.49,1361.55,1366.87z"/>
	<path class="st0" d="M1034.15,1369.18c-2.56,1.39-4.56,0.73-6.43,0.35c-3.54-0.72-7-1.78-10.43-2.68
		c-2.91-9.92-2.78-20.05-7.2-29.25c-4.46-9.27-13.15-14.8-19.71-23.86c21.95-2.78,41.38-10.49,62.06-21.45
		C1043.03,1318.85,1039.81,1344.53,1034.15,1369.18z"/>
	<path class="st0" d="M1299.6,340.43c-5.25,5.18-4.71,16.29-15.99,15.38c-2.78-2.54-4.91-5.39-5.91-9.54
		c12.17-5.95,12.36-16.52,10.26-27.99c-1.52-8.27-4.43-15.92-8.87-23.09c-3.34-5.39-4-11,0.22-16.72c5.56,2.51,8.26,7.17,10.77,11.8
		c3.33,6.13,6.35,12.43,9.3,18.75c1.33,2.85,2.82,5.27,6.29,5.89c5.41-2.11,8.86-6.6,12.13-11.16c3.55,0.54,3.67,3.8,5.13,5.79
		c1.55,2.12,2.56,4.63,3.84,7.05c-2.79,8.2-10.29,9.74-16.92,12.37c-0.6,2.82,1.29,4.49,2.81,6.1c5.48,5.82,11.26,11.29,18.47,15.04
		c8.24,4.29,13.2,8.63,18.56,16.43c3.29,4.8,7.55,8.99,9.81,14.54c-1.42,0.49-2.29-0.11-2.78-0.89
		c-3.95-6.29-10.17-9.58-16.75-11.87c-12.84-4.45-24.1-10.99-32.9-21.56C1304.98,344.27,1302.87,341.53,1299.6,340.43z"/>
	<path class="st0" d="M1101.15,346.09c-1.61,2.77-2.48,4.56-3.62,6.17c-3.56,5-8.27,5.01-11.94-0.12c-1.73-2.42-3.02-5.16-4.45-7.78
		c-0.79-1.44-1.24-3.13-3.85-3.89c-2.49,2.47-5.58,4.99-8.01,8.03c-7.34,9.17-17.15,14.61-27.81,18.63
		c-7.45,2.81-14.65,5.75-19.72,12.36c-1.76-2.23-0.21-3.57,0.69-4.71c4.85-6.22,8.95-12.96,15.08-18.27
		c2.55-2.21,5.08-4.06,7.99-5.52c7.57-3.78,13.76-9.27,19.5-15.33c1.56-1.65,3.19-3.38,3.35-6.57c-6.24-2.71-13.83-4.19-16.94-11.86
		c1.64-5.26,4.99-9.38,7.83-14.52c4.34,4.68,7.3,10.15,13.32,12.12c3.33-0.51,4.83-2.79,6.17-5.71c3.04-6.64,6.22-13.24,9.79-19.61
		c2.55-4.54,5.14-9.37,10.79-10.98c4.25,6.38,2.55,12.48-1,17.85c-5.12,7.75-6.76,16.53-8.83,25.22c-1.01,4.22-0.85,8.47,0.51,12.77
		C1091.69,339.77,1094.87,343.64,1101.15,346.09z"/>
	<path class="st0" d="M1191.02,730.92c-1.67-7.81,0.05-15.06-2.14-21.94c-3.71,6.31-0.54,13.41-2.7,19.9
		c-3.45,1.04-5.3-2.02-7.84-3.24c-2.67-1.28-5.12-3-8.22-4.87c3.46-5.94,6.81-11.64,7.87-18.21c1.21-7.47-4.57-12.08-7.8-17.94
		c3-9.23,7.35-17.69,12.66-26.48c4.13,3,8.16,2.92,12.33,0.13c5.56,8.43,9.34,17.17,12.73,25.99c-10.3,16.57-10.3,16.6-0.14,36.72
		C1202.46,724.14,1197.12,727.31,1191.02,730.92z"/>
	<path class="st0" d="M1175.04,597.45c-1.09,2.49-1.58,3.7-2.14,4.88c-4.58,9.69-7.08,11.45,0.41,20.7
		c6.15,7.59,2.89,14.96-3.18,22.11c-10.26-2.56-19.94-7.65-31.08-10.88c0.54-18.14-2.12-36.27,2.31-55.27
		C1152.93,585.33,1163.6,591.18,1175.04,597.45z"/>
	<path class="st0" d="M1210.03,614.68c-0.44-3.3-1.69-5.99-3.04-8.67c-1.2-2.37-2.27-4.81-3.52-7.49
		c4.35-4.83,10.4-6.95,15.81-10.03c5.19-2.95,10.48-5.71,15.67-8.52c2.95,0.76,3.03,3.22,3.3,5.45c0.33,2.64,0.59,5.3,0.61,7.95
		c0.06,13.6,0.03,27.2,0.03,40.71c-10.7,3.99-20.57,7.68-30.11,11.23c-0.77-0.48-1.15-0.59-1.31-0.84
		c-6.64-10.15-9.04-11.2-0.68-25.03C1207.81,617.75,1209.01,616.16,1210.03,614.68z"/>
	<path class="st0" d="M1191.23,920.46c0-29.93,0-58.16,0-86.44c3.58-3.65,7.65-6.46,12.24-9.29c8.6,7.25,12.36,16.99,14.94,27.34
		c0.52,2.07-0.75,3.8-2.09,5.37c-2.14,2.52-4.43,4.97-6.27,7.7c-7.4,10.96-8.02,22.24-1.16,33.74c1.35,2.26,2.7,4.52,4.32,7.24
		C1206.65,911.35,1199.77,915.59,1191.23,920.46z"/>
	<path class="st0" d="M1237.36,67.07c5.98-18.62,7.54-37.03,7.58-55.84c7.77,9.95,11.71,21.19,13.68,32.8
		c-1.33,2.59-2.31-0.33-3.79,1.01c-1.94,9.4-1.56,19.83-5.87,29.39c-4.05,8.98-10.73,16.47-14.22,25.79
		c7.76-5.9,13.43-13.53,17.2-22.2c3.62-8.32,5.31-17.35,6.12-26.59c3.09,6.29,2.59,12.68,1.3,19.01
		c-2.3,11.29-7.59,21.24-14.45,30.38c-4.16,5.55-11.67,6.49-15.1,0.91c-4.44-7.23-12.1-11.48-16-19.2
		c3.95-2.86,8.04-5.67,11.95-8.71C1229.28,71.08,1232.1,67.25,1237.36,67.07z"/>
	<path class="st0" d="M1120.56,43.54c0.26-12.28,5.6-22.58,13.25-32.25c0.35,9.47,0.59,18.94,1.09,28.4
		c0.49,9.35,3.23,18.24,5.82,27.05c9.58,2.5,14.41,11.68,24.37,15c-3.02,3.75-5.12,6.98-7.83,9.55c-2.92,2.76-5.49,5.68-7.84,8.94
		c-5,6.98-11.74,6.78-16.78-0.31c-2.12-2.98-4.22-6-6.08-9.15c-8.7-14.72-10.47-30.43-6.45-46.92c0.06-0.25,0.51-0.41,0.77-0.61
		c-1.51,22.54,5.25,41.83,22.37,57c-1.25-5.44-4.7-9.77-7.7-14.31c-6.32-9.58-10.41-19.9-10.91-31.48
		c-0.11-2.64-0.34-5.29-0.59-7.92C1123.86,44.46,1122.06,44.14,1120.56,43.54z"/>
	<path class="st0" d="M1185.85,920.09c-7.37-4.69-14.19-9.02-21.29-13.54c1.7-2.83,3.01-5.09,4.39-7.3
		c7.54-12.1,6.55-23.84-1.55-35.2c-1.72-2.41-3.97-4.42-5.82-6.74c-1.47-1.84-2.25-3.82-1.56-6.41c2.58-9.72,6.35-18.72,14.12-25.81
		c4.55,1.21,7.48,4.39,10.62,7.27c2.88,2.64,2.1,6.12,2.11,9.35c0.05,21.9,0.06,43.81,0,65.71
		C1186.85,911.27,1187.43,915.23,1185.85,920.09z"/>
	<path class="st0" d="M1214.53,756.63c-7.68,7.53-11.36,15.86-10.39,26.31c0.9,9.78,6.37,17.2,11.96,25.38
		c-8.18,5.49-15.97,10.71-25.05,16.81c0-30.01,0-58.39,0-87.17c3.05-1.97,6.36-4.1,9.99-6.45
		C1208.19,738.39,1210.86,747.24,1214.53,756.63z"/>
	<path class="st0" d="M1214.72,943.93c-14.78,17.97-14.55,25.79,1.34,50.25c-7.45,5.87-15.47,10.88-23.71,15.51
		c-2.38-2.23-1.39-4.66-1.4-6.78c-0.08-21.56,0.45-43.14-0.28-64.68c-0.32-9.44,3.57-14.13,11.69-16.72
		C1208.99,926.88,1209.44,927.7,1214.72,943.93z"/>
	<path class="st0" d="M898.19,789.57c-7.83-4.06-8.24-10.93-10.43-16.91c-2.21-6.04-0.65-12.51-2.09-18.34
		c-12.61-1.97-17.5,0.59-21.81,11.01c-2.93,7.09-5.18,14.3-5.11,22.13c0.05,5.79-1.93,10.29-6.67,14.66
		c-6.5,5.99-11.78,13.46-16.15,21.35c-4.77,8.6-9.66,14.07-19.02,21c-1.37-2.02,0.51-3.08,1.42-4.21
		c14.86-18.43,23.32-39.99,30.7-62.11c2.31-6.92,5.38-13.61,7.39-20.61c1.92-6.69,7.19-9.85,12.66-11.38
		c10.6-2.97,21.48-2.69,32.79,1.78C895.46,761.07,895.29,774.67,898.19,789.57z"/>
	<path class="st0" d="M1493.15,753.9c-3.74,27.14-4.66,29.71-13.17,35.11c2.69-14.25,2.84-27.66-3.51-40.39
		c5.04-4.56,11.61-4.03,17.13-4.23c6.6-0.24,13.69,0,20.09,3.97c3.33,2.07,5.87,4.09,7.18,7.6c2.77,7.45,5.54,14.92,8.1,22.44
		c5.35,15.74,11.47,31.16,19.68,45.62c3.88,6.83,8.81,13.05,13.54,19.97c-6.34-3.11-14.15-10.2-17.73-16.49
		c-5.94-10.43-12.57-20.29-21.58-28.35c-1.86-1.67-2.22-3.86-2.76-6.18c-1.6-6.77-0.59-13.94-3.29-20.53
		c-0.88-2.14-1.43-4.42-2.3-6.56C1510.29,755.31,1505.87,752.78,1493.15,753.9z"/>
	<path class="st0" d="M1121.35,1231.94c-1.64-4.92-0.93-8.52-0.63-12.15c0.71-8.67,4.96-13.95,13.65-16.07
		c8.48-2.07,8.64-2.4,8.47-10.6c-0.18-8.6-0.17-17.24-2.04-26.58c9.42-5.43,20.57-6.68,30.63-12.07c2.14,3.95,0.28,7.24-0.92,10.32
		c-5.05,13.01-10.62,25.79-17.59,37.92c-2.15,3.74-4.98,7.3-6.19,11.34c-2.07,6.89-7.31,9.89-13.02,12.6
		C1129.86,1228.49,1125.87,1230.03,1121.35,1231.94z"/>
	<path class="st0" d="M1257.14,1231.36c-7.81-1.42-14.27-5.5-20.87-9.18c-1.02-0.57-1.63-2.01-2.22-3.16
		c-8.43-16.21-18.02-31.84-24.46-49.05c-1.74-4.64-3.72-9.17-3.92-15.17c10.47,3.64,20.58,7.16,31.15,10.83
		c-0.43,6.73-0.8,12.99-1.24,19.25c-0.14,1.98-0.59,3.94-0.67,5.92c-0.35,9.91-0.06,10.46,9.4,13.12
		c7.54,2.12,12.05,6.38,12.75,14.57C1257.42,1222.7,1259.23,1226.81,1257.14,1231.36z"/>
	<path class="st0" d="M1186.46,823.87c-1.51-0.28-1.89-0.25-2.13-0.41c-7.14-4.84-14.27-9.7-21.3-14.49
		c-0.39-3.31,2.04-4.96,3.46-7.08c2.78-4.18,5.12-8.48,6.48-13.4c2.75-10.01,1.69-19.26-5.35-27.1c-3.14-3.49-3.66-6.52-1.85-10.77
		c2.85-6.71,5.69-13.33,10.48-18.68c4.39,0.88,6.76,3.88,10.21,5.66C1186.46,766.31,1186.46,794.86,1186.46,823.87z"/>
	<path class="st0" d="M1163.11,943.88c2.85-8.02,5.29-15.94,10.98-22.15c6.08,1.49,6.08,1.49,12.31,6.58c0,26.72,0,53.58,0,81.62
		c-9.15-4.59-16.43-10.22-24.67-15.54c2.85-4.21,5.65-7.84,7.9-11.78c6.24-10.9,6.99-24.59-3.36-34.89
		C1165.12,946.58,1164.19,945.21,1163.11,943.88z"/>
	<path class="st0" d="M1126.89,1166.39c3.41,0.47,6.31,0.87,9.09,1.25c2.72,6.36,3.56,19.7,1.97,30.27
		c-1.46,2.14-4.08,2.23-6.18,2.64c-9.34,1.86-12.76,8.69-14.74,16.8c-1.27,5.2-0.55,10.54-0.4,15.69c-2.48,2.99-5.96,3.5-9.05,4.13
		c-3.23,0.65-5.85,3.41-10.05,2.47c0-5.34,0-10.82,0-15.8c3.48-3.78,6.92-7.35,10.16-11.08c4.21-4.83,6.25-10.16,3.06-16.42
		c-2.37-4.66-1.77-8.55,1.88-12.65C1117.47,1178.27,1121.04,1171.77,1126.89,1166.39z"/>
	<path class="st0" d="M1241.67,1232.05c8.48,4.24,16.87,7.36,25.76,10.4c0.76,9.09,3.67,17.97,2.44,27.49
		c15.58,8.61,25.81,19.99,22.28,39.46c-6.51-1.24-11.81-4.87-17.74-6.74c-1.64-0.52-2.57-2.06-3.27-3.59
		c-10.01-21.65-20-43.3-29.97-64.97C1241.07,1233.88,1241.3,1233.51,1241.67,1232.05z"/>
	<path class="st0" d="M1137.23,1232.18c-2.29,8.96-6.99,15.79-10.38,23.17c-3.6,7.83-7.26,15.64-10.84,23.49
		c-3.44,7.55-6.79,15.14-10.26,22.89c-6.31,2.63-12.66,5.27-19,7.92c-6.2-15.47,6.32-32.89,21.51-39.25
		c-0.39-9.04,0.61-18.23,2.79-27.73C1119.27,1239.37,1127.73,1235.98,1137.23,1232.18z"/>
	<path class="st0" d="M1239.38,1196.93c-1.79-9.13,1.39-18.76,1.35-28.85c3.66-0.65,6.84-1.21,10.07-1.78
		c6.65,5.26,10.47,12.81,15.93,18.97c2.52,2.85,2.71,6.17,1.25,9.3c-4.01,8.65-1.12,15.3,5.36,21.26c2.42,2.22,4.49,4.82,7.13,7.7
		c0,4.81,0,10.38,0,16.69c-6.78-1.83-12.96-3.52-19.07-6.47c-0.33-5.32,0.92-10.37-0.23-15.69c-2.03-9.4-6.22-15.86-15.99-17.89
		C1243.27,1199.77,1241.22,1199.49,1239.38,1196.93z"/>
	<path class="st0" d="M1009.85,611.22c0.73-11.69,7.17-29.75,11.92-36.6c3.14-4.53,7.05-7.98,12.2-9.84
		c9.34-3.36,18.49-7.38,28.81-6.98c3.48,0.13,7.01-0.89,10.75-1.41c0.1,4.65-1.97,8.06-3.33,11.7c-1.26,3.37-2.28,6.83-3.33,10.02
		C1043.55,582.05,1023.25,590.34,1009.85,611.22z"/>
	<path class="st0" d="M1311.6,578.66c-2.63-7.46-5.03-14.28-7.66-21.76c15.51,0.23,29.62,2.6,42.88,9.05
		c6.3,3.06,10.67,8.39,13.13,14.55c4.02,10.04,6.93,20.53,8.83,31.62c-3.32-3.98-6.88-7.78-9.9-11.97
		c-3.63-5.04-8.25-8.51-13.92-10.9c-6.11-2.58-12.18-5.3-18.13-8.23C1322.15,578.72,1317.01,579.81,1311.6,578.66z"/>
	<path class="st0" d="M1134.88,1115.98c5.3-8.98,11.92-16.44,17.82-24.42c1.08-1.46,2.35-2.36,4.2-1.8c1.69,0.51,2.8,1.68,3.16,3.46
		c0.07,0.33,0.17,0.65,0.19,0.98c0.71,9.2,1.41,18.4,2.11,27.69c-6.82,3.43-12.99,7-15.27,14.1c-2.09,6.51-0.49,13.14,0.95,20.01
		c-5.69,3.62-11.64,5.9-18.67,5.5c-2.96-4-3.75-8.51-5-13.09c4.77-4.68,11.51-7.14,13.23-14.46
		C1139.15,1127.42,1137.71,1121.55,1134.88,1115.98z"/>
	<path class="st0" d="M1242.85,1115.18c-5.36,17.63-3.98,21.77,10.82,33.1c-0.79,4.34-2.07,8.67-4.52,12.88
		c-6.73,1.46-12.23-1.84-17.72-3.84c-1.77-3-0.65-5.64-0.21-8.17c2.17-12.29-0.57-18.54-11.21-24.98c-1.09-0.66-2.23-1.22-3.65-1.99
		c0.04-9.48-0.15-18.73,1.73-27.91c0.61-2.96,1.58-5.09,5.53-4.51C1230.21,1097.69,1236.93,1105.88,1242.85,1115.18z"/>
	<path class="st0" d="M1093.91,1242.15c2.35,6.36,6.63,0.79,10.01,2.59c0,7.16,0,14.43,0,21.91c-16.09,10.68-25.53,24.9-22.7,45.18
		c-3.95,3.72-7.73,6.6-13.47,5.16c-1.41-6.59-3.48-12.89-3.14-19.96c0.42-2.25,2.9-3.11,4.46-4.74c7.45-7.81,11.69-17,11.06-27.85
		c-0.33-5.56,1.71-9.6,5.35-13.32C1088.02,1248.53,1090.45,1245.84,1093.91,1242.15z"/>
	<path class="st0" d="M1274.31,1266.88c0.12-7.89-0.73-15.15,0.54-22.27c3.57-1.25,7.54,4.43,9.53-2.16
		c2.94,3.08,4.92,5.31,7.05,7.38c4.73,4.59,7.48,9.67,6.91,16.72c-0.9,11.12,4.68,19.71,12.37,27.13c0.94,0.91,1.93,1.77,2.9,2.66
		c-0.12,7.11-1.56,13.8-3.3,20.39c-6.62,0.09-6.62,0.09-13.47-4.38C1299.55,1292.91,1291.57,1277.92,1274.31,1266.88z"/>
	<path class="st0" d="M1172.46,325.48c-5.17-1.26-9.21-3.39-13.19-5.84c-6.45-3.98-9.53-8.69-8.71-17.05
		c0.83-8.53,1.66-17.1,2.34-25.67c0.13-1.68,0.25-3.32,2.41-4.56c7.9,5.34,16.15,10.68,25.54,14.03
		c-0.85,7.04-5.36,12.17-5.73,18.53c0.2,0.62,0.24,1.37,0.61,1.85C1182.62,315.67,1182.62,315.68,1172.46,325.48z"/>
	<path class="st0" d="M1223.94,271.72c2.11,9.79,3.26,18.27,2.96,26.91c-0.02,0.66-0.17,1.38,0.03,1.98
		c4.13,12.31-4.35,17.28-12.99,21.88c-2.51,1.34-5.24,2.86-8.79,2.72c-3.56-2.67-6.2-6.33-7.99-10.57
		c6.39-10.92,6.39-10.92,1.18-23.5c-0.5-1.21-0.97-2.43-1.58-3.95c3.86-4.12,9.76-3.93,14.02-6.94
		C1214.79,277.43,1219.02,274.89,1223.94,271.72z"/>
	<path class="st0" d="M1304.9,1324.12c2.55-0.38,4.46-0.69,6.38-0.94c2-0.26,3.23-1.85,4.53-3.6c5.49,5.18,8.83,10.85,11.8,16.73
		c1.37,2.72,1.79,5.83,0.56,8.71c-3.35,7.83-1.36,15.24,2.51,21.9c5.35,9.21,2.76,17.72-0.57,27.45
		c-4.49-4.05-8.49-7.66-12.79-11.53c1.06-5.53,1.73-11.06,1.62-16.67c-0.11-5.82-1.93-10.44-7.46-12.91
		c-4.93-2.2-6.63-6.11-6.6-11.17C1304.93,1336.16,1304.9,1330.21,1304.9,1324.12z"/>
	<path class="st0" d="M951.05,823.74c-8.71-5.66-13.13-11.39-14.89-19.37c-1.71-7.77-3.93-15.44-6.18-23.08
		c-2.07-7.03-2.16-13.62,2.19-19.99c2.78-4.06,3.76-9.24,8.03-13.14c9-0.05,16.45-6.73,27.35-8.89c-3.81,3.8-6.19,6.43-8.84,8.76
		c-8.28,7.31-11.65,16.92-12.33,27.45c-0.55,8.62-0.09,17.31-0.09,25.96C946.3,808.44,948.64,815.02,951.05,823.74z"/>
	<path class="st0" d="M1176.55,546.72c-1.48,3.35-2.79,5.68-3.56,8.18c-1.09,3.54-1.44,7.22,0.68,10.59
		c5.23,8.29,2.88,15.03-4.51,21.25c-8.34-4.18-16.86-8.44-26.16-13.1c2.52-13.04,9-24.71,12.52-38.02
		C1162.6,539.35,1169.25,542.86,1176.55,546.72z"/>
	<path class="st0" d="M1203.12,647.8c-5.11,2.91-9.4,5.36-13.65,7.77c-5.17-1.99-9.61-4.75-14.32-8.2
		c1.29-3.81,4.59-6.64,4.97-10.65c0.4-4.32,0.69-8.63-1.55-12.62c-1.93-3.44-3.86-6.89-5.87-10.47c0.63-4.34,3.3-7.82,4.8-12.28
		c12.53,2.95,8.7,14.03,12.22,22.74c0.59-6.32,1.07-11.47,1.56-16.78c2.31-2.21,4.3-4.88,8.02-6.38c3.38,2.79,4.26,7.02,5.54,10.94
		c0.96,2.93-1.19,4.98-2.65,7.16c-3.67,5.49-4.81,11.47-3.93,18.01C1198.77,640.78,1201.54,643.44,1203.12,647.8z"/>
	<path class="st0" d="M1208.71,587c-1.95-2.32-3.52-4.01-4.89-5.85c-2.85-3.82-2.66-7.99-1.09-12.23c3.99-10.76,4-10.75-0.93-21.66
		c5.71-4.94,13.25-6.87,19.34-11.23c5.42,8.8,12.78,30.33,12.96,38.02C1225.96,578.2,1217.73,582.4,1208.71,587z"/>
	<path class="st0" d="M1076.88,1320.85c8.62-4.77,16.26-8.45,25.02-11.36c0.16,5.8-2.13,10.27-3.81,14.7
		c-2.93,7.77-5.85,15.57-7.41,23.67c-1.88,9.8-7.62,16.68-14.86,22.7c-3.02,2.51-6.4,4.59-9.61,6.85
		c-5.83-8.02-4.97-16.42,2.84-20.74c5.81-3.21,7.76-7.76,7.8-13.78C1076.92,1335.64,1076.88,1328.37,1076.88,1320.85z"/>
	<path class="st0" d="M1061.72,1319.69c2.85,3.43,6.56,4.28,11.12,3.68c0,7.56,0.02,14.18-0.01,20.81
		c-0.02,3.57-1.17,6.69-4.65,8.16c-8.67,3.68-9.97,10.89-9.22,19.01c0.33,3.6,1.12,7.16,1.79,11.27c-3.96,3.72-7.98,7.5-12.65,11.9
		c-3.76-9.95-5.58-18.73-0.36-28.09c3.8-6.81,5.33-14.36,2.02-21.99c-1.56-3.6-0.03-6.68,1.44-9.49
		C1053.97,1329.69,1057.26,1324.69,1061.72,1319.69z"/>
	<path class="st0" d="M1195.14,1104.56c5.66-2.82,10.94-5.44,16.71-8.31c2.72,9.92-0.76,19.2,0.73,28.16
		c12.51,7.3,19.96,12.26,12.81,30.05c-8.4-0.61-15.2-5.41-22.3-9.36c-1.02-0.57-1.81-2.01-2.19-3.21
		C1197.11,1129.82,1195.14,1117.49,1195.14,1104.56z"/>
	<path class="st0" d="M1429.5,821.89c-1.71-3.17-0.43-4.93,0.05-6.81c3.58-14.04,3.45-28.33,2.01-42.55
		c-1.35-13.32-8.81-23.34-19.44-31.13c-0.8-0.59-1.63-1.15-2.39-1.78c-0.38-0.32-0.65-0.77-1.58-1.92
		c11,2.84,19.65,9.87,30.37,10.62c4.67,6.07,7.23,12.95,10.38,19.48c2.37,4.91,0.15,9.93-1.08,14.52
		c-2.06,7.68-4.43,15.29-6.09,23.09C1440.21,812.6,1435.95,817.73,1429.5,821.89z"/>
	<path class="st0" d="M1061.16,1390.69c2.14-2.24,3.67-4.63,5.85-5.96c5.88-3.6,10.09-9.27,16.87-13.72
		c-3.67,24.45-7.47,47.62-7,71.19c-3.74,3.14-6.74,6.67-11.57,8.38c-0.98-6.6-2.92-12.57-5.12-18.44
		c-1.91-5.11-1.84-9.88,2.65-13.57c3.66-3,3.96-6.7,2.93-10.78C1064.41,1402.33,1062.86,1396.93,1061.16,1390.69z"/>
	<path class="st0" d="M1349.53,1453.08c-1.51-1.15-1.2-2.84-1.16-4.44c0.16-5.64,0.28-11.29,0.52-16.93
		c0.72-16.98-1.52-33.75-3.6-50.53c-0.66-5.34-0.17-6.13,5.3-7.44c2.58-0.62,5.17-1.15,7.77-1.69c0.31-0.06,0.66,0.07,1.43,0.17
		c2.44,4.37,1.22,9.56,1.68,14.28c1.79,18.51,2.45,37.08-2.67,55.31c-1.1,3.9-2.43,7.59-5.61,10.32
		C1352.14,1453.03,1351.03,1453.67,1349.53,1453.08z"/>
	<path class="st0" d="M1165.92,1124.72c1.3-9.37-2.6-18.19-0.44-27.74c6.29,0.76,11.18,4.69,16.96,7.44
		c1.15,12.84-1.49,25.05-5.11,37.14c-0.71,2.36-2.26,4.01-4.48,5.05c-6.29,2.95-12.16,6.91-19.24,8.01
		C1145.86,1142.31,1149.39,1133.33,1165.92,1124.72z"/>
	<path class="st0" d="M1312.27,1377.43c-6.25-3.57-12.2-8.22-17.23-13.8c-3.26-3.61-5.66-7.81-6.82-12.98
		c-2.18-9.65-5.2-19.13-8.87-28.39c-1.43-3.61-3.18-7.28-3.17-12.28c8.89,1.88,16.35,6.3,24.7,10.71c0,5.46,0.02,11.05-0.01,16.65
		c-0.01,3.65,0.27,7.2,1.14,10.8c0.76,3.13,1.86,5.91,4.8,7.06c9.22,3.63,9.46,10.79,7.85,18.8
		C1314.42,1375.24,1314.36,1376.64,1312.27,1377.43z"/>
	<path class="st0" d="M1029,1453.58c-4.37-0.25-6.27-3.09-7.52-6.07c-1.52-3.64-2.8-7.49-3.41-11.37
		c-1.9-12.03-3.63-24.06-2.06-36.36c0.88-6.88,0.64-13.89,0.93-20.84c0.1-2.29-0.41-4.67,1.12-6.98c4.67-1.12,8.76,2.08,13.04,2.09
		c2.25,2.11,1.98,4.54,1.62,6.78c-1.5,9.47-2.2,19.04-3.25,28.54c-1.37,12.46-1.27,25.15,0.18,37.71
		C1029.87,1449.06,1030.51,1450.92,1029,1453.58z"/>
	<path class="st0" d="M1295.71,1371.71c6.46,7.11,15.32,11.4,21.21,19.19c-1.27,4.49-2.55,8.6-3.59,12.77
		c-1.48,5.92-2.53,11.61,3.21,16.42c3.45,2.89,2.75,7.39,1.66,11.27c-1.78,6.36-3.99,12.61-6.09,19.1c-7.2-3.23-9.44-8.6-10.16-16.3
		c-1.77-19.12-3.06-38.33-7-57.2C1294.65,1375.46,1294.19,1373.77,1295.71,1371.71z"/>
	<path class="st0" d="M1075.65,1531.51c2.38,5.82,0.92,10.72,0.54,15.49c-1.2,14.9-3.86,29.58-6.55,44.27
		c-1.24,6.74-4.44,11.64-9.84,15.3c-2.37,1.6-4.15,4.41-8.15,4.25c-1.76-4.25-1.48-8.84-1.29-13.35c0.17-4.18,1.53-8,5.62-9.89
		c5.45-2.52,5.42-7.09,4.7-11.85c-1.08-7.19-2.4-14.33-3.63-21.59C1063.41,1546.89,1068.36,1538.68,1075.65,1531.51z"/>
	<path class="st0" d="M1245.22,110.53c5.96-0.99,10.73-6,17.65-1.83c7.86-8.72,8.26-20.89,12.38-31.6c2.98,0.23,2.88,2.94,3.84,4.85
		c2.74,5.48,2.9,11.56,4.27,17.36c0.52,2.22,0.02,3.91-0.99,5.63c-8.05,13.64-17.83,25.62-32.27,33.02
		c-1.41,0.72-2.9,1.84-4.68-0.88c7.57-5.31,15.52-10.47,20.11-19.11c-7.4,4.72-12.82,12.27-22.22,15.04
		C1242.85,125.7,1244.65,118.75,1245.22,110.53z"/>
	<path class="st0" d="M1102.09,75.28c4.9,12.14,5.49,23.82,12.6,33.32c6.43-3.97,11.57,0.29,16.93,1.75
		c3.49,7.14,2.36,14.59,3.96,22.6c-9.89-2.23-15.26-9.56-22.21-14.67c3.68,9.01,12.39,13.22,19.25,18.98
		c-1.7,2.07-2.94,1.69-4.11,0.98c-10.02-6.04-18.34-13.61-26-22.74C1091.36,102.19,1095.18,90.1,1102.09,75.28z"/>
	<path class="st0" d="M1181.38,547.34c5.05,1.76,10.11,2.04,14.66,0.08c3.21,2.18,3.66,5.33,5.07,7.89c1.4,2.54,1.38,5.1-0.07,7.6
		c-5.1,8.75-3.92,17.05,1.68,25.09c0.35,0.5,0.32,1.27,0.65,2.72c-3.44,2.4-7.13,4.97-11.88,8.28c-1.43-12.05,0.25-23.24-1.1-34.29
		c-3.16,0.01-3.32,2.24-3.37,3.98c-0.19,5.98-0.11,11.97-0.13,17.96c-0.01,3.63,0,7.26,0,11.82c-5.1-2.23-8.46-5.21-11.7-7.64
		c-0.73-2.8,0.86-4.34,1.89-5.91c3.99-6.09,4.79-12.49,1.31-18.86C1174.56,559.04,1176.92,553.43,1181.38,547.34z"/>
	<path class="st0" d="M1305.12,1535.56c6.86,5.71,9.96,11.98,14.81,17.09c-2.44,4.36-4.64,8.43-6.96,12.43
		c-3.04,5.24-3.34,9.99-0.27,15.81c8.68,16.49,6.59,17.71-4.58,30.39c-1.51,1.72-3.42,3.09-5.17,4.59
		c-0.21,0.18-0.62,0.13-1.39,0.26c-2.77-4.82-4.1-9.99-3.1-15.7C1302.13,1579.59,1304.75,1558.64,1305.12,1535.56z"/>
	<path class="st0" d="M1076.04,1448.68c0.47,2.93,0.8,4.14,0.83,5.36c0.48,16.88,0.58,33.78,1.52,50.63
		c0.46,8.23-2.26,14.93-6.83,21.24c-2.3,3.17-4.93,6.09-7.88,9.7c-4.28-8.3-4.05-15.53,1.43-21.89c3.28-3.81,4.03-7.67,2.35-11.92
		c-4.99-12.64-2.6-25.43-1.05-38.18C1067.12,1457.69,1072.27,1454.5,1076.04,1448.68z"/>
	<path class="st0" d="M870.45,1885.11c-3.73-2.21-7.37-3.94-10.5-6.33c-5.6-4.28-11.6-4.42-17.98-2.71
		c-3.2,0.85-6.37,1.92-9.62,2.53c-8.28,1.56-15.92,0.74-21.64-6.49c-1.42-1.8-3.14-3.36-5.25-5.59c6.7-4.25,12.73-6.1,20.55-3.88
		c18.52,5.27,37.44,8.92,56.6,11.14c1.62,0.19,3.22,0.59,4.78,1.05c0.57,0.17,1,0.82,1.87,1.58c-1.51,0.93-2.81,1.95-4.27,2.59
		C880.14,1881.12,875.23,1883.11,870.45,1885.11z"/>
	<path class="st0" d="M1199.01,360.95c0.35-0.86,0.42-1.67,0.87-2.06c7.07-6.27,7.07-13.41,2.83-21.19
		c-0.59-1.09-0.82-2.38-1.4-4.13c8.72-3.62,17.16-6.99,25.27-13.41c-0.59,8.14-3.03,14.74-2.48,21.74
		c0.52,6.55,0.57,13.23-2.07,19.78c-4.68,4-10.21,6.79-16.65,8.63C1202.47,367.65,1199.87,364.82,1199.01,360.95z"/>
	<path class="st0" d="M624.96,1758.7c-9.49,1.49-17.89-1.71-26.51-1.1c-4.52-4.06-3.69-10.94-9.3-15.2
		c-3.7-1.49-8.7-0.98-13.61-1.36c-8.77-0.68-16.22-3.6-19.05-13.05c-0.27-0.92-0.18-1.94-0.28-3.28c9.43-2.78,17.72-1.83,26,4.18
		c11.53,8.36,23.81,15.68,35.68,23.58C620.26,1754.03,623.27,1754.98,624.96,1758.7z"/>
	<path class="st0" d="M1151.52,321.2c8.11,4.81,16.08,9.06,25.21,12.07c-1.36,4.15-2.64,7.83-3.76,11.57
		c-0.99,3.28-0.95,6.22,1.46,9.27c5.85,7.44,5.68,7.57-1.37,15.82c-6.63-0.75-11.97-4.48-17.6-8.55
		C1152.48,348.31,1156.68,334.42,1151.52,321.2z"/>
	<path class="st0" d="M1027.22,1463.02c16.92-3.69,21.85-15.95,26.12-30c4.81,9.59,6.52,18.77,6.84,28.2
		c0.32,9.18-0.31,18.28-4.53,28.83c-1.24-7.24,1.24-12.09,1.91-17.04c0.72-5.35,2.03-10.24-2.38-15.41
		c-2.01,11.89-1.17,23.79-7.49,34.06c-2.62-0.02-2.72-2.26-3.46-3.96C1040.41,1478.87,1035.42,1470.79,1027.22,1463.02z"/>
	<path class="st0" d="M668.63,1801.91c7.11,0,13.7-0.07,20.27,0.07c1.24,0.03,2.54,0.75,3.68,1.4c15.02,8.54,30.01,17.13,45,25.72
		c0.25,0.14,0.36,0.53,0.53,0.8c-8.37,3.66-9.05,3.78-18.62,3.22c-0.55-0.66-1.45-1.31-1.75-2.17
		c-3.25-9.26-10.75-11.02-19.15-10.55c-7.55,0.42-14.43-1.83-21.04-4.79C671.97,1813.11,670.12,1807.66,668.63,1801.91z"/>
	<path class="st0" d="M1039.14,1874.58c3.85-6.34,8.71-9.57,15.25-11.14c17.7-4.25,34.94-10.05,51.92-16.59
		c0.91-0.35,1.75-0.97,3.24,0.22c-2.25,5.5-5.49,10.56-10.27,15.47c-7.14-3.25-13-0.64-18.81,4.13c-4.29,3.52-9.46,6.03-14.4,8.7
		C1057.26,1880.13,1048.44,1880.21,1039.14,1874.58z"/>
	<path class="st0" d="M1228.26,1086.51c5.88-5.46,12.2-9.37,19.61-13c1.52,10.6,3.21,20.36,4.24,30.18
		c0.8,7.63,2.11,15.14,3.44,22.68c0.89,5.05,2.25,10.46-1.6,15.13c-9.29-3.99-12.84-9.61-9.24-17.67c3.15-7.06,0.87-12.12-2.8-17.48
		C1237.45,1099.8,1232.93,1093.29,1228.26,1086.51z"/>
	<path class="st0" d="M1322.91,1556c2.41,0.72,4.27,1.28,6.1,1.83c2.69,15.21-9.69,74.39-18.97,85.73
		c-3.66-6.62-4.65-13.73-7.06-20.57c4.19-4.66,8.23-9.45,12.6-13.94c7.25-7.44,8.57-16.14,3.14-24.45
		c-5.99-9.16-3.91-16.71,1.6-24.57C1321.08,1558.95,1321.76,1557.8,1322.91,1556z"/>
	<path class="st0" d="M1321.59,1457.14c-2.67,11.15-0.52,19.87,1.45,28.84c-3.01-0.06-3.34-2.07-3.46-3.16
		c-1.47-14.56-2.8-29.15,2.28-43.36c0.53-1.49,1.26-2.92,2.07-4.79c3.49,2.22,3.33,5.95,4.4,8.85
		c3.72,10.09,10.07,17.02,22.02,19.13c-7.58,9.16-14.64,18.15-18.25,30.3c-4.93-5.27-5.53-11.12-7-16.59
		C1323.62,1470.76,1325.52,1464.58,1321.59,1457.14z"/>
	<path class="st0" d="M1131.03,1117.01c5.88,14.57,4.09,20.57-7.62,24.31c-2.07-5.44-1.54-11.03-0.57-16.42
		c2.69-15.06,4.76-30.19,6.08-45.42c0.18-2.06,0.56-3.95,2.55-5.67c6.25,3.36,12.2,7.43,18.01,11.98
		C1144.67,1097.01,1134.82,1104.9,1131.03,1117.01z"/>
	<path class="st0" d="M1198.75,134.92c7.68-1.83,15.25-3.64,23.29-5.56c1.04,7.78,2.46,15.14,2.23,22.75
		c-0.15,5.16-1.72,8.88-7.05,10.49c-2.83,0.85-5.48,2.29-8.27,3.31c-6.96,2.54-6.97,2.5-11.32-4.72c0.3-4.76,5.19-7.5,5.31-12.5
		C1203.07,143.83,1198.84,140.47,1198.75,134.92z"/>
	<path class="st0" d="M1196.15,333.81c1.04,1.94,2.21,3.61,2.87,5.45c1.21,3.4,2.13,6.92,3.09,10.14c-8.8,11.6-8.8,11.6-1.68,22.97
		c-2.3,1.68-4.51,3.42-7.59,3.27c-2.9-0.9-1.14-4.43-3.38-5.61c-3.36,0.27-1.81,3.86-3.57,5.36c-3.34,1.33-5.31-1.76-8.05-2.26
		c0.14-0.95,0.07-1.64,0.35-2.11c0.86-1.41,1.93-2.68,2.8-4.09c2.77-4.5,2.87-8.95-1.28-12.56c-3.66-3.19-3.6-6.57-2.1-10.71
		c1.13-3.1,2.05-6.26,3.83-9.14c2.43-1.55,5.15-0.4,7.74-0.67C1191.47,333.62,1193.8,333.81,1196.15,333.81z"/>
	<path class="st0" d="M1294.81,1619.96c2.41,1.92,1.92,4.56,2.98,6.58c4.08,7.73,2.84,14.41-3.49,20.6
		c-5.42,5.29-6.86,11.96-4.6,19.31c0.19,0.63,0.25,1.3,0.41,1.95c3.1,12.7-1.09,22.05-13.32,28.19c-2.45-6.49-5.07-12.71-1.63-19.73
		c8.1-16.54,11.61-34.6,17.14-51.99C1292.78,1623.32,1292.76,1621.56,1294.81,1619.96z"/>
	<path class="st0" d="M1155.52,129.35c8.35,1.91,15.94,3.64,23.22,5.31c0.27,1.36,0.66,2.08,0.46,2.56
		c-4.73,11.45-4.74,11.44,1.32,23.57c-0.4,3.25-2.45,5.24-5.47,6.81c-5.41-0.97-10.36-3.67-15.59-5.64
		c-3.69-1.39-5.06-3.86-5.19-7.53C1154.01,146.49,1154.49,138.59,1155.52,129.35z"/>
	<path class="st0" d="M946.45,1889.93c-4.27-1.79-8.15-5.29-13.47-5.92c-2.59,0.22-4.59,2.11-6.76,3.58
		c-11.94,8.1-24.36,7.59-34.33-3.04c5.71-5.45,12.06-8.05,20.28-7.61c14.59,0.79,29.23,0.59,43.86,0.84
		c1.58,0.03,3.27-0.38,4.69,0.74C957.55,1883.96,956.13,1885.1,946.45,1889.93z"/>
	<path class="st0" d="M1221.96,530.29c-3.82,2.39-6.76,4.63-10.03,6.15c-2.95,1.37-6.27,1.94-9.38,2.85
		c-5.58-7.36-5.81-7.7-0.73-14.32c2.85-3.71,2.97-7.15,1.07-11.02c-1.16-2.37-2.45-4.68-3.97-7.57c6.22-3.81,12.35-7.56,19.39-11.87
		C1220.02,506.61,1223.03,517.95,1221.96,530.29z"/>
	<path class="st0" d="M1176.15,539.44c-7.7-1.77-14.05-4.3-19.45-9.45c-1.96-11.67,1.96-23.04,2.66-35.58
		c6.97,4.17,13.09,7.83,18.54,11.08c1.05,2.29,0.23,3.42-0.46,4.48c-3.75,5.8-4.98,11.15,0.6,16.93
		C1182.11,531.12,1179.45,535.35,1176.15,539.44z"/>
	<path class="st0" d="M805.65,1858.72c-5.61,1.93-11.01,4.38-18.07,5.47c-0.75-1.11-1.65-2.51-2.61-3.87
		c-3.49-4.96-7.24-6.9-14.18-5.78c-7.58,1.22-15.75-0.94-23.62-1.92c-1.89-0.24-3.53-1.72-4.61-3.55
		c-1.84-3.14-4.03-6.12-3.83-10.67c6.45-2.44,12.4-3.2,19.4,0.34c13.02,6.59,26.87,11.38,40.74,16.01
		C801.24,1855.55,804.31,1855.41,805.65,1858.72z"/>
	<path class="st0" d="M766.24,1698.44c0.61,0.78,1.36,1.49,1.79,2.37c2.19,4.42,4.3,8.89,6.38,13.2c-1.74,2.52-3.69,1.35-5.42,0.72
		c-13.99-5.05-27.89-10.35-41.95-15.2c-5.56-1.92-6.22-6.2-6.88-10.88c3.15-3.75,7.87-3.3,11.89-4.22c2.75-0.63,5.86,0.67,8.01,3.05
		c1.77,1.96,3.52,3.94,5.2,5.98c3.17,3.86,7.16,5.64,12.14,4.79C760.37,1697.75,763.3,1697.42,766.24,1698.44z"/>
	<path class="st0" d="M1061.48,1611.82c-4.6,16.49-11.52,31.1-19.89,44.94c-6.59,10.89-7.5,10.97-22.71,14.27
		c-0.15-8.74,2.86-15.85,10.7-19.48c6.4-2.96,9.93-7.3,11.29-13.92c0.4-1.93,1.31-3.77,1.67-5.71c1.09-5.94,4.15-10,9.74-12.74
		C1055.72,1617.49,1058.44,1614.32,1061.48,1611.82z"/>
	<path class="st0" d="M1056.52,1582.97c-9.85,3.75-10.73,11.86-10.2,20.57c0.24,3.95,1.15,7.88-0.17,12.47
		c-4.08,2.47-8.36,5.47-13.59,6.04c-2.25-1.63-2.27-4.12-1.58-5.57c2.83-5.99,3.94-12.69,7.63-18.31c4.13-6.3,4.84-13.36,4.92-20.72
		c0.08-7.18,0.92-14.36,1.43-21.58c3.49-0.07,6.05,2.29,9.7,1.17C1053.57,1565.59,1057.66,1573.42,1056.52,1582.97z"/>
	<path class="st0" d="M1026.98,1625.19c3.37,3.35,7.4,2.21,11.6,2.17c0.58,5.78-2.06,10.15-3.31,14.78
		c-0.54,2.01-2.17,3.35-4.04,4.15c-10.91,4.64-15.84,13.37-17.08,24.69c-0.07,0.64-0.39,1.25-0.75,2.36
		c-5.62,2.78-11.6,5.05-18.03,4.25c-1.36-2.39-0.45-3.68,0.67-4.98c5.8-6.73,9.81-14.93,17.14-20.43c3.03-2.28,3.91-6.16,4.96-9.57
		C1020.01,1636.51,1023.46,1631.38,1026.98,1625.19z"/>
	<path class="st0" d="M1178.98,1807.04c-1.92,8.37-4.39,14.34-7.43,19.6c-3.8,1.72-7.2,1.3-10.43,1.03
		c-5.92-0.49-10.28,2.09-14.03,6.14c-4.05,4.38-7.93,8.91-11.9,13.35c-3.33,3.73-6.82,7.12-11.79,8.84
		c-3.54,1.23-6.41,1.09-9.35-1.85c-0.04-4.19,2.54-7.79,3.68-11.87C1138.93,1833.09,1158.61,1821.58,1178.98,1807.04z"/>
	<path class="st0" d="M1035.19,1868.63c-2.97,5.34-6.26,7.95-10.25,10.77c-8.29-3.69-15.79-0.7-23.14,3.64
		c-3.14,1.85-6.52,3.31-9.82,4.87c-10.66,5.02-15.92,4.84-27.94-1.19c4.01-5.89,8.54-10.43,16.14-10.8
		c16.27-0.79,32.25-3.72,48.26-6.51C1030.04,1869.11,1031.68,1869.02,1035.19,1868.63z"/>
	<path class="st0" d="M1159.45,404.4c-3.39-12.06-2.45-23.7-4.58-36.12c8.21,3.87,15.49,7.3,23.18,10.92
		c-0.72,1.86-1.23,3.39-1.89,4.85c-2.17,4.76-2.98,9.15,0.8,13.83c3.1,3.84,2.33,8.02-1.62,11.74
		C1169.78,409.22,1164.77,406.85,1159.45,404.4z"/>
	<path class="st0" d="M676.78,1795.07c-4.3,0-8.61,0.13-12.91-0.03c-4.95-0.19-8.93-1.92-10.85-7.08c-1.4-3.76-3.47-7.2-7.2-9.13
		c-23.99,1.97-28.81-0.02-33.79-14.62c7.74,1.36,15.22,0.68,22.69,0.99c2.54,0.1,4.22,1.86,6.08,3.19
		c8.68,6.17,17.27,12.46,25.97,18.59c3.44,2.42,7.09,4.54,10.65,6.8C677.21,1794.21,677,1794.64,676.78,1795.07z"/>
	<path class="st0" d="M1202.94,409.69c-3.96-3.45-5.16-7.68-2.23-10.9c4.83-5.3,3.56-10.17,0.95-15.5c-0.58-1.19-1.22-2.36-0.6-4.45
		c6.6-3.16,13.64-6.53,21.3-10.19c0.64,10.97-1.7,20.99-2.31,31.11c-0.19,3.18-2.01,5.47-5.26,6.49
		C1211.03,407.4,1207.49,409.32,1202.94,409.69z"/>
	<path class="st0" d="M1230.01,1754.21c0.83,7.75-0.75,13.78-2.08,19.44c-2.49,2.69-5.46,3.38-8.23,4.37
		c-6.14,2.2-9.78,6.46-11.36,12.74c-0.8,3.2-1.98,6.3-3.02,9.44c-3.16,9.6-10.54,12.53-20.58,13.21c0.72-7.02,1.67-12.85,6.72-17.46
		c12.23-11.15,23.46-23.25,33.61-36.34C1226.27,1758.07,1227.71,1756.72,1230.01,1754.21z"/>
	<path class="st0" d="M484.39,1584.59c9.19-3.66,15.14-3.06,20.58,3.61c4.96,6.07,10.5,8.53,18.13,7.03
		c2.19-0.43,4.58,0.17,6.88,0.29c4.76,5.73,8.99,11.56,12.13,18.02c-1.75,1.98-3.16,0.64-4.58,0.08
		c-12.89-5.11-25.67-10.53-38.71-15.22C491.69,1595.84,487.36,1591.18,484.39,1584.59z"/>
	<path class="st0" d="M1180.82,246.43c-2.18,5.78-4.03,10.7-5.72,15.19c0.87,3.63,4.43,4.59,5.47,7.57c0.1,3.9-2.74,5.66-5.71,7.59
		c-6.92-2.29-12.45-7-19.03-11.26c1-10.22,6.83-18.93,8.18-29.56C1170.23,239.82,1175.21,242.93,1180.82,246.43z"/>
	<path class="st0" d="M1202.91,261.13c-1.66-4.35-3.42-8.97-5.31-13.92c1.74-2.86,4.95-3.94,7.65-5.66c2.5-1.59,5.02-3.14,7.89-4.94
		c3.06,4.14,2.99,9.23,4.77,13.61c1.85,4.56,4.02,9.07,4.43,14.62c-5.45,5.04-11.95,8.73-18.6,12.07c-3.13-1.78-5.83-3.62-6.36-7.33
		C1198.03,266.41,1201.75,265.51,1202.91,261.13z"/>
	<path class="st0" d="M500.92,1692.17c3.88-1.56,7.68-2.28,11.72-2.48c5.54-0.28,10.29,1.06,14.9,4.18
		c9.33,6.3,18.93,12.19,28.39,18.3c1.87,1.21,3.59,2.66,6.41,4.78c-7.22,1.05-12.96,1.89-18.42,2.69c-3.36-2.32-4.14-5.69-5.62-8.58
		c-3.86-7.57-3.83-7.54-12.08-6.05c-2.27,0.41-4.62,0.8-6.91,0.69C510.25,1705.27,503.4,1701.72,500.92,1692.17z"/>
	<path class="st0" d="M1237.21,1758.22c-0.13-0.64-0.28-1.27-0.39-1.92c-1.39-8.02,1.2-14.49,6.12-21.04
		c8.57-11.41,15.67-23.88,22.68-36.34c0.77-1.37,1.04-3.21,3.75-3.82c1.53,2.48,0.62,5.47,0.86,8.2c0.23,2.63,1.08,5.25,0.63,6.72
		c-0.81,3.46-3.02,4.01-4.53,5.15c-7.59,5.73-11.74,12.54-11.76,22.75C1254.53,1749.85,1252.2,1754.11,1237.21,1758.22z"/>
	<path class="st0" d="M338.36,1626.21c3.88-1.35,7.61-2.74,11.4-3.95c3.87-1.23,7.84-1.5,11.83-0.51
		c15.17,3.79,30.14,8.24,44.85,13.55c1.59,0.57,2.97,1.28,3.9,3.31c-6.97,0.62-13.49,1.08-19.98,1.84c-2.2,0.26-3.94-0.31-5.58-1.48
		c-3.25-2.32-6.42-4.74-9.64-7.09c-2.93-2.14-5.99-2.81-9.25-0.68c-1.11,0.73-2.28,1.37-3.4,2.08c-5.72,3.64-11.41,3.2-16.83-0.48
		C343.03,1631.03,339.5,1630.09,338.36,1626.21z"/>
	<path class="st0" d="M780.94,1712.81c0.55-1.09,0.62-1.51,0.86-1.66c10.64-6.9,12.71-6.62,20.64,2.99c1.47,1.79,2.56,3.9,4.82,5.17
		c2.87,0.79,5.79-0.19,8.72-0.58c2.95-0.39,5.86-1.04,9.08-1.63c5.48,5.11,12.01,8.96,17.29,16.06
		c-18.9-2.98-36.32-6.88-53.52-11.79C784.41,1720.12,782.68,1716.69,780.94,1712.81z"/>
	<path class="st0" d="M1178.26,453c6.11-7.48,8.2-14.79,0.13-21.54c1.09-4.68,2.52-8.64,4.87-12.57c3.93,0.65,7.73,2.11,11.06-0.9
		c3.01,4.79,4.34,8.77,5.13,12.93c-6.32,10.31-6.32,10.31-0.17,22.33c-2.58,3.04-6.38,4.34-9.57,6.52
		C1185.28,458.48,1181.9,456.03,1178.26,453z"/>
	<path class="st0" d="M659.01,1662.26c9.38-4.59,15.09-4.59,19.78,3.33c6.32,10.66,14.99,12.84,25.93,11.59
		c0.95-0.11,1.96,0.21,3.41,0.4c3.45,4.3,4.07,9.84,5.82,14.8c-2.53,1.84-4.21,0.32-5.97-0.37c-14.54-5.72-28.38-12.94-42.42-19.76
		C661.06,1670.06,659.19,1666.9,659.01,1662.26z"/>
	<path class="st0" d="M600.36,1632.79c11.6-2.72,16.25-1.08,22.23,7.38c0.77,1.08,1.57,2.17,2.16,3.35c2,3.95,5.34,4.54,9.28,3.97
		c3.54-0.52,6.91-2.71,11.33-0.87c2.67,4.94,5.35,10.43,6.61,16.46c-2.63,1.32-4.3,0.01-6.06-0.78
		c-12.12-5.42-24.18-10.98-36.4-16.16C603.66,1643.65,600.53,1639.79,600.36,1632.79z"/>
	<path class="st0" d="M1315.5,1535.29c-1.8-1.12-2.39-1.41-2.89-1.82c-7.51-6.17-8.99-14.47-7.57-23.38
		c1.63-10.28,1.3-20.4,0.04-30.7c-1.08-8.77-0.93-17.7-1.34-26.95c5.32,4.17,9.21,8.71,8.54,15.9c-0.18,1.95-0.1,4.11,0.55,5.92
		c2.88,8.03,0.73,15.73-1.25,23.42c-1.63,6.31-2.21,11.88,2.65,17.64C1318.83,1520.8,1317.35,1527.74,1315.5,1535.29z"/>
	<path class="st0" d="M977.48,1715.24c-3.87-1.7-7.17-3.15-10.73-4.72c1.74-7.49,6.38-10.8,13.43-11.24
		c1.99-0.12,4.02-0.36,5.98-0.13c6.29,0.74,9.82-2.71,12.68-7.68c1.76-3.05,2.14-7.4,6.3-8.49c6.15-1.61,11.86-5.23,19.62-4.75
		C1010.82,1694.16,994.69,1705.51,977.48,1715.24z"/>
	<path class="st0" d="M1337.3,1446.21c-3.86-1.11-4.37-4.61-5.43-7.66c-1.7-4.9-1.99-10.59-7.82-13.09
		c-0.72-0.31-1.26-1.58-1.44-2.49c-0.82-4.2-4.1-6.71-6.91-10.27c0.83-6.1,1.75-12.49,5.23-18.35c8.64,7.06,8.64,7.06,14.92,4.63
		c3.12,6.32,3.35,12.52-0.18,18.9c-3.62,6.54-3.45,13.25,0.12,19.93c1.07,2,1.57,4.32,2.16,6.53
		C1338.08,1444.86,1337.55,1445.55,1337.3,1446.21z"/>
	<path class="st0" d="M1173.52,496.25c-4.22-2.77-8.55-5.62-13.27-8.72c1.36-11.5,2.7-22.89,4.11-34.79
		c5.5,1.75,9.78,5.07,14.53,7.94c-0.9,2.11-1.53,3.98-2.46,5.7c-2.41,4.45-2.5,8.39,0.57,12.91
		C1181.82,486.39,1181.69,489.35,1173.52,496.25z"/>
	<path class="st0" d="M1041.51,1446.25c-2.44-3.36-0.17-6,0.99-8.51c3.35-7.19,3.26-14.21-0.54-21.06
		c-3.41-6.16-2.18-11.93,0.43-18.27c2.8,1.4,5.09,4.03,8.02,1.85c2.35-1.74,3.62-4.84,7.15-5.58c3.09,5.18,3.35,11.19,5.23,17.27
		c-5.48,4.6-6.38,12.57-12.88,16.91c-1.99,1.33-2.29,5.33-3.13,8.18C1045.75,1440.52,1044.92,1444.06,1041.51,1446.25z"/>
	<path class="st0" d="M480.28,1590.4c-2.26,1.54-4,0.34-5.84-0.17c-13.39-3.74-26.74-7.61-40.21-11.03
		c-6.14-1.56-10.93-4.24-13.57-10.99c5.54-4,11.43-4.21,17.34-1.05c3.47,1.86,6.81,4.21,9.66,6.92c3.55,3.36,7.07,4.66,11.64,2.44
		c5.48-2.67,9.46-0.4,12.84,3.99C474.74,1583.87,477.54,1587.08,480.28,1590.4z"/>
	<path class="st0" d="M1204.67,496.09c-8.26-8.01-8.26-8.01-0.51-23.03c-0.65-1.85-1.34-4.05-2.2-6.19
		c-0.74-1.85-1.67-3.62-2.76-5.97c4.41-3.26,8.91-6.25,14.51-8.07c0.83,6.1,1.7,11.91,2.38,17.74c0.65,5.57,1.09,11.16,1.65,17.05
		C1213.33,490.46,1208.94,493.32,1204.67,496.09z"/>
	<path class="st0" d="M1199.69,498.58c-0.92,2.65-2.49,3.37-3.94,4.13c-1.15,0.61-2.43,1.16-4.42,0.02
		c-0.3-4.9-0.62-10.25-1.06-17.37c-5.46,6.38-1.85,12.58-4.16,17.69c-3.39,0.84-5.43-1.16-7.31-3.32c0.04-0.82-0.2-1.73,0.13-2.06
		c6.96-6.87,6.42-14,0.97-21.43c-0.76-1.03-1.11-2.37-1.58-3.39c0.98-3.88,2.81-7.02,5.05-10.61c3.74,2.46,7.73,2.74,11.63-0.33
		c1.92,4,3.49,7.26,4.98,10.38C1190.82,490.17,1193.42,489,1199.69,498.58z"/>
	<path class="st0" d="M507.77,1682.27c-3.54,3.49-7.01,2.58-10.24,2.91c-2.95,0.3-5.87,0.84-9.24,1.33
		c-0.66-0.81-1.66-1.69-2.24-2.79c-3.3-6.3-7.28-9.03-15.16-6.58c-9.28,2.88-13.36-0.03-16.61-8.68c4.92-4.08,11.48-2.43,16.92-4.77
		c0.7-0.3,1.93,0.29,2.78,0.73C485.06,1670.24,496.79,1674.85,507.77,1682.27z"/>
	<path class="st0" d="M401.81,1645.65c7.76-0.8,14.83-1.6,21.91-2.19c1.58-0.13,3.32,0.18,4.82,0.73
		c10.56,3.83,21.11,7.72,30.91,14.15c-2.15,3.13-5.61,2.69-8.47,3.57c-3.13,0.96-6.25,1.94-9.92,3.08c-1.47-1.67-3.04-3.35-4.5-5.12
		c-3.84-4.67-7.93-7-14.6-5.09C413.77,1657.1,407.44,1652.78,401.81,1645.65z"/>
	<path class="st0" d="M905.31,1731.9c-2.14,2.84-4.63,1.79-6.74,1.81c-11.96,0.11-23.93-0.17-35.88,0.15
		c-5.96,0.16-11.1-0.59-15.01-5.66c-1.35-1.75-4.02-2.37-4.63-4.9c10.81-7.83,15.24-7.8,24.86,1.05c3.03,2.79,5.97,3.88,9.86,2.97
		c2.25-0.53,4.58-0.74,6.8-1.39C892.79,1723.54,899.06,1727.14,905.31,1731.9z"/>
	<path class="st0" d="M585.83,1621.87c2.9,5.97,6.71,10.22,8.14,15.79c-2.31,1.29-3.85-0.34-5.47-1.07
		c-8.44-3.79-16.63-8.24-25.29-11.38c-8.43-3.06-14.08-7.99-16.16-16.84c5.29-4.39,10.47-2.36,15.47,0.58
		c1.95,1.15,3.88,2.7,5.18,4.51C572.08,1619.54,577.68,1622.92,585.83,1621.87z"/>
	<path class="st0" d="M1182.27,196.53c-1.6,4.36-2.42,7.6-6.37,9.24c-6.53-3.07-11.84-7.07-13.37-15.23
		c-1.36-7.29-4.3-14.27-4.96-22.74c7.54,3.47,14.59,5.77,22.37,7.91C1175.95,183.76,1174.05,190.93,1182.27,196.53z"/>
	<path class="st0" d="M321.22,1625.9c-2.48-1.49-4.86-2.66-6.95-4.23c-4.45-3.35-8.55-2.82-12.61,0.6c-0.76,0.64-1.59,1.2-2.33,1.86
		c-4.56,4.13-9.51,4.25-14.61,1.25c-2.22-1.3-5.03-1.86-6.61-5.06c3.01-3.71,6.49-6.93,11.8-7.13c15.58-0.58,31.01,1,46.33,3.7
		c1.13,0.2,2.55,0.08,3.36,2.05C333.78,1621.14,327.97,1623.34,321.22,1625.9z"/>
	<path class="st0" d="M1185.48,379.22c1.72,5.68,3.16,10.33,4.22,15.31c0.57-4.51,1.14-9.02,1.67-13.18
		c1.99-1.48,3.68-1.36,4.66,0.22c3.16,5.13,6.49,10.18,0.89,16.08c-2.37,2.5-2.43,5.99-0.69,9.31c0.74,1.41,0.99,3.07,1.48,4.67
		c-5.69,4.9-11.19,5.49-16.77,0.33c-0.53-1.77,0.3-3.23,0.93-4.76c1.48-3.64,0.87-6.96-1.01-10.43
		C1176.91,389.45,1177.66,386.7,1185.48,379.22z"/>
	<path class="st0" d="M1165.62,95.68c4.73,2.3,9.36,0.98,13.23,3.23c0.54,3.32-1.64,5.63-3.07,8.17c-1.83,3.24-2.37,6.12,1.08,8.72
		c1.01,0.76,1.72,1.98,2.42,3.09c1.39,2.17,1.36,4.35-0.21,6.47c-1.29,1.75-2.96,2.59-5.15,2.18c-5.49-1.03-11.04-1.86-16.63-4.17
		C1157.03,113.44,1160.31,104.7,1165.62,95.68z"/>
	<path class="st0" d="M1201.66,205.61c-2.32-1.02-3.36-3.13-4.43-5.21c-1.2-2.32-1.19-4.95,0.81-6.42c5.71-4.21,4.17-9.02,1.82-14.1
		c-0.42-0.9-0.7-1.86-1.23-3.31c6.32-4.33,14.52-4,20.4-8.57c2.27,2.23,1.32,4.23,0.87,6.04c-1.38,5.48-2.89,10.92-4.45,16.34
		C1212.6,200.28,1212.09,200.8,1201.66,205.61z"/>
	<path class="st0" d="M1199.12,98.95c4.02-2.41,8.91-0.81,13.14-3.3c5.41,8.72,8.91,17.33,8.35,27.64
		c-5.23,2.59-10.8,3.3-16.22,4.14c-4.85,0.76-7.59-3.92-5.62-8.59c1.19-2.82,4.81-3.67,5.33-7.29
		C1203.71,107.18,1199.05,104.13,1199.12,98.95z"/>
	<path class="st0" d="M1178.52,148.66c1.78-4.06,3.5-7.99,5.07-11.56c3.21-2.08,6.29-0.8,9.44-1.39c3.66,3.62,4.32,8.69,6.38,12.61
		c-6.16,12.23-6.16,12.23-3.01,21.57c-6.83,3.04-6.83,3.04-15.06,0.32c-0.02-3.87,4.72-6.79,2.9-10.95
		C1182.77,155.93,1180.79,152.82,1178.52,148.66z"/>
	<path class="st0" d="M1217.98,412c-2.1,12.01-4.02,23.01-5.99,34.29c-2.41,1.6-4.83,3.2-6.94,4.6c-2.5-0.65-6.83-7.33-6.6-9.72
		c0.38-3.87,4.18-5.86,5.26-9.31c-0.3-4.74-2.83-8.78-3.98-13.21C1205.17,414.82,1207.44,413.97,1217.98,412z"/>
	<path class="st0" d="M362.74,1557.39c4.46-4.06,8.81-4.06,13.37-1.86c2.09,1.01,4.33,1.84,6.14,3.23
		c5.09,3.88,10.32,5.75,16.61,2.88c2.3-1.05,4.39,0.16,6.39,1.63c4.03,2.96,7.23,6.64,11.75,11.3c-6.86,0.32-11.69-1.56-16.61-2.41
		c-7.82-1.36-15.55-3.69-23.41-4.23C369.7,1567.43,365.52,1564.15,362.74,1557.39z"/>
	<path class="st0" d="M1185.76,507.83c2.75,8.04-1.18,16.23,3.88,23.19c2.55-7.57,0.02-15.38,2.31-23.22
		c4.38,2.21,5.8,5.65,7.64,8.65c1.15,1.88,0.86,4.03-0.61,5.57c-5.58,5.84-5.72,12.35-2.12,18.92c-7.51,5.37-7.51,5.37-15,0.75
		c-0.85-2.09,0.6-3.86,1.23-5.58c1.4-3.81,0.74-7-1.26-10.36C1176.6,516.94,1176.67,516.9,1185.76,507.83z"/>
	<path class="st0" d="M1161.7,411.78c5.49,1.56,11.21,2.87,15.53,5.32c1.43,1.83,0.96,2.81,0.52,3.63
		c-3.78,7.05-4.7,13.76,2.27,19.28c-0.16,4.78-3.91,7.1-5.07,11c-6.96-1.69-9.43-5.94-10.27-11.91c-1.01-7.17-2.51-14.26-3.68-21.41
		C1160.7,415.81,1159.91,413.78,1161.7,411.78z"/>
	<path class="st0" d="M1177.54,327.14c7.24-7.61,10.75-15.02,1.49-22.53c1.52-5.44,3.02-10.37,7-16.09
		c2.05,12.28-1.01,23.6,3.64,34.27c2.16-10.94,0.64-21.95,1.59-33.43c4.67,5.11,4.67,5.11,7.43,14.61c-1.9,3.08-3.96,6.42-5.69,9.22
		c-0.12,6.22,4.9,9.12,6.88,14.06C1192.95,332.16,1186.08,332.01,1177.54,327.14z"/>
	<path class="st0" d="M1089.74,1221.05c0.62,1.11,0.9,1.39,0.93,1.69c0.44,4.93,1.89,10.06,0.99,14.73
		c-0.94,4.88-6.17,7.62-9.55,11.21c-4.41,4.69-6.24,9.67-6.01,16.11c0.35,9.57-2.59,18.09-10.92,25.04
		c-2.3-5.06-2.1-9.47-0.16-13.67c6.42-13.86,10.54-28.71,18.06-42.08C1085.35,1230.06,1086.08,1225.29,1089.74,1221.05z"/>
	<path class="st0" d="M1313.32,1289.4c-6.44-3.77-9.2-9.55-10.45-16.08c-0.74-3.88-0.64-7.95-0.62-11.93
		c0.02-3.52-0.9-6.46-3.38-9.04c-2.99-3.11-5.5-6.72-8.67-9.61c-3.31-3.02-4.39-6.34-3.74-10.66c0.52-3.44,0.56-6.96,0.83-10.6
		c1.19,0.45,2.15,0.52,2.31,0.92c4.16,10.15,10.04,19.49,13.73,29.88c2.78,7.81,6.3,15.36,9.37,23.07
		C1314.88,1280.79,1314.79,1280.82,1313.32,1289.4z"/>
	<path class="st0" d="M944.8,1723.04c5.18-1.78,7.63-6.22,11.86-8.48c3.93,0.42,7.59,1.68,11.15,3.69c-2.08,3.46-5.7,3.77-8.63,4.75
		c-11.01,3.68-22.48,5.59-33.8,8.1c-5.95,1.32-10.13-1.64-14.36-4.9C918.61,1717.35,924.83,1716.75,944.8,1723.04z"/>
	<path class="st0" d="M1196.16,129.57c-5.14,3.23-9.59,3.01-14.69-0.26c5.69-7.31,1.88-12.93-3.33-18.26
		c2.27-4.03,4.35-7.72,6.45-11.43c3.09,0,5.96,0,9.14,0c1.56,4.08,4.94,7.05,5.86,11.92
		C1193.75,116.34,1192.69,122.58,1196.16,129.57z"/>
	<path class="st0" d="M350.06,1553.65c2.5,2.89,5.45,6.31,9.6,11.1c-6.71-0.65-11.82-0.72-16.73-1.74
		c-6.25-1.3-12.52-1.48-18.78-1.14c-7.45,0.4-13.76-1.3-18.42-7.97c1.66-3.45,4.74-4.71,8.65-4.77c3.76-0.06,7.29,0.6,10.33,2.9
		c5.87,4.43,12.1,4.81,18.75,1.99C345.28,1553.25,347.24,1552.75,350.06,1553.65z"/>
	<path class="st0" d="M1198.3,187.72c-6.86,8.88-6.86,8.88-1.96,21.03c-4.69,4.03-9.42,4.01-14.65,0.13
		c0.76-4.23,4.03-7.6,4.28-11.74c-0.79-3.95-4.23-6.08-5.69-9.32c0.08-4.3,2.38-7.6,3.72-11.02c3.42-0.93,6.35-0.73,9.35-0.41
		C1195.98,179.53,1196.92,183.38,1198.3,187.72z"/>
	<path class="st0" d="M1198.8,279.44c-1.78,2.69-4.09,2.95-6.44,3.35c-0.39-0.42-1.03-0.81-1.17-1.33
		c-0.68-2.49,0.34-5.32-1.56-7.59c-4.24,1.6-1.67,6.04-3.69,8.77c-2.43-0.33-4.97-0.43-6.53-2.86c0.18-2.7,2.66-3.72,3.82-5.65
		c1.47-2.43,2.53-5.4,0.37-7.36c-5.29-4.81-3.07-9.45-0.53-14.29c0.6-1.15,1.33-2.24,2.12-3.56c2.71,0.17,5.29,0.32,8.16,0.5
		c1.75,3.56,3.48,7.07,4.9,9.95c0.14,5.07-5.59,6.65-4.8,11.23C1194.07,274.26,1197.55,276.41,1198.8,279.44z"/>
	<path class="st0" d="M1060.57,1540.23c-3.18,4.76-5.75,8.93-9.95,12.06c-3.83-2.41-4.33-5.41-3.94-8.89
		c0.67-5.96,1.97-11.81,4.16-17.34c4.18-10.52,6.71-21.43,8.42-32.78c4.59,5.17,6.75,13.05,3.62,16.89
		C1055.12,1519.71,1055.61,1529.55,1060.57,1540.23z"/>
	<path class="st0" d="M1317.56,1491.57c1.1,3.13,1.77,4.33,1.94,5.6c1.45,11.25,5.11,21.88,8.98,32.45
		c2.09,5.71,2.72,11.6,2.35,17.62c-0.1,1.65-0.21,3.35-2.83,4.61c-5.36-1.13-6.11-7.51-9.69-9.98c-0.98-3.36,1.23-5.06,1.66-7.24
		c1.36-6.93,2.55-14.28-1.99-20.19c-4.49-5.86-4.31-11.43-2-17.65C1316.43,1495.57,1316.74,1494.3,1317.56,1491.57z"/>
	<path class="st0" d="M200.32,1559.77c6.92-6.64,13.73-9.27,22-5.13c3.54,1.77,7.31,1.77,10.54,0.2c7.67-3.71,13.09-0.19,18.33,4.05
		c0.02,2.02-1.06,2.17-1.98,2.15c-11.27-0.32-22.38,1.51-33.42,3.12C209.88,1565.03,205.61,1563.6,200.32,1559.77z"/>
	<path class="st0" d="M277.08,1612.89c-4.39,3.17-8.31,6-12.36,8.92c-3.35-1.4-6.37-2.67-10.21-4.28
		c-8.26,4.48-16.58,13.18-27.84,4.24c1.33-4.92,4.05-7.79,10.14-8.12c10.6-0.57,21.27,0.01,31.82-1.75
		C271.03,1611.5,273.76,1611.15,277.08,1612.89z"/>
	<path class="st0" d="M952.07,1712.39c-2.23,2.58-4.23,4.77-7.89,6.05c-6.55-2.18-13.39-6.04-21.32-4.84
		c-7.57,1.15-12.95,6.42-19.03,10.28c-5.97-1.98-10.74-5.61-16.03-8.44c0.8-2.63,2.81-1.65,4.08-1.6
		c15.11,0.7,29.83-1.97,44.33-5.63C942.39,1706.66,947.21,1707.3,952.07,1712.39z"/>
	<path class="st0" d="M1149.1,109.47c2.93-5.06,6-10.4,11.24-14.17c-7.41,15.91-9.18,32.9-11.45,49.98
		c-0.67-8.21-1.33-16.42-2.02-24.63c-0.19-2.2,0.27-4.9-3.74-4.84c-1.1,6.5-0.19,12.94,1.28,20.13c-4.04-5.86-5.59-12.38-6.29-24.96
		C1141.14,108.89,1144.66,111.11,1149.1,109.47z"/>
	<path class="st0" d="M172.08,1632.27c1.38-4.89,4.47-7.52,9.52-8.79c12.2-3.06,24.53-5.42,36.94-7.41c0.49-0.08,1.1,0.53,1.97,0.99
		c-0.82,3.87-3.73,5.89-6.84,7.95c-3.53-1.14-6.94-2.23-9.82-3.16c-3.49,0.69-5,3.03-6.89,4.83c-3.94,3.74-8.6,6.11-13.73,7.72
		C179.12,1635.69,175.4,1635.38,172.08,1632.27z"/>
	<path class="st0" d="M1229,144.25c-1.38-8.41-3.1-16.79-4.06-25.24c-0.95-8.36-4.17-15.86-8.82-24.76
		c7.27,4.11,9.36,10.07,12.69,14.68c3.31,2.8,7.34,0.01,11.31,2.09c0.38,8.39-3.04,16.25-4.77,24.43
		c-0.98-6.23-0.55-12.37,0.73-18.48c-2.78-2.16-4.7-1.51-4.94,1.62c-0.53,6.94-0.66,13.91-0.92,20.87c-0.06,1.65-0.01,3.3-0.01,4.96
		C1229.81,144.37,1229.41,144.31,1229,144.25z"/>
	<path class="st0" d="M1295.27,1680.45c-0.49-4.59-0.38-9.35-1.61-13.73c-2.13-7.61,0.02-13.63,5.2-19.04
		c0.91-0.95,1.8-1.93,2.9-3.1c3.45,0.98,4.46,4.47,6.99,6.75C1305.58,1661.49,1301.2,1671.04,1295.27,1680.45z"/>
	<path class="st0" d="M303.57,1559.53c-12.29-0.59-23.88,0.47-35.45,0.31c-4.9-0.07-9.18-0.7-11.38-6.31
		c4.2-4.23,9.54-3.36,13.78-1.53c5.23,2.26,9.6,2.01,14.09-0.76c4.09-2.52,7.43-1.66,10.75,1.43
		C297.97,1555.1,300.83,1557.26,303.57,1559.53z"/>
	<path class="st0" d="M1182.34,240.57c3.08-5.4,3.69-10.83-0.8-16.31c-1.8-2.19,0.39-5,2.25-7.65c3.09-1.32,6.76,1.06,9.75-0.78
		c2.93,3.08,4.72,6.47,2.37,9.4c-4.32,5.39-2.7,10.41,0.02,15.37C1189.14,245.14,1189.14,245.14,1182.34,240.57z"/>
	<path class="st0" d="M1200.62,238.13c-2.79-3.24-5.21-6.05-2.34-9.33c4.17-4.76,2.49-9.17-0.26-14.32
		c3.83-2.32,7.66-4.64,12.15-7.36c0.99,8.25,2.62,15.34,2.11,23.3C1209.34,233.43,1205.45,235.77,1200.62,238.13z"/>
	<path class="st0" d="M1168.11,1831.71c-0.14,4.88-1.85,7.89-5.15,9.93c-8.67,5.36-17.75,9.9-26.43,13.88
		c-1.65-0.54-1.97-1.07-1.53-1.7c4.9-7.08,11.16-12.98,17.05-19.17C1156.62,1829.86,1162.44,1832.42,1168.11,1831.71z"/>
	<path class="st0" d="M1177.55,237.83c-4.66-1.44-8.09-4.53-11.87-7.17c0.51-7.49,1.01-14.69,1.53-22.41
		c5.03,0.16,8.29,3.64,12.03,5.16c1.27,2.64-0.73,4.04-1.35,5.74c-1.12,3.06-1.27,5.69,1,8.3
		C1182.22,231.27,1181.07,234.62,1177.55,237.83z"/>
	<path class="st0" d="M153.02,1570.49c1.81-3.39,4.66-5.62,8.18-6.9c2.12-0.77,4.39-1.86,6.64-0.26c5.54,3.94,10.67,2.08,15.75-1.04
		c0.56-0.34,1.23-0.49,2.26-0.89c3.32,1.22,7.31,1.72,10.71,5.34c-11.07,2.43-21.37,4.76-31.7,6.92
		C160.11,1574.66,160.08,1574.52,153.02,1570.49z"/>
	<path class="st0" d="M23.15,1654.1c-1.2-5.15,0.88-9.39,2.55-13.59c1.39-3.49,4.05-6.45,7.86-6.93c6.99-0.89,10.31-5.2,11.93-11.27
		c2.87-1.68,5.57-1.28,9.6-0.83c-9.41,9.09-17.11,18.02-23.7,27.89C29.59,1652.09,26.77,1653.8,23.15,1654.1z"/>
	<path class="st0" d="M58.72,1612.59c2.46-8.73,4.41-10.59,12.46-11.41c2.63-0.27,5.59,0.24,7.3-2.18
		c4.52-6.45,11.05-6.3,17.74-5.83c0.93,0.07,1.85,0.38,2.72,0.56c0.18,1.39-0.71,1.86-1.61,2.22c-10.14,4.08-19.71,9.23-28.67,15.48
		C65.5,1613.63,62.34,1614.83,58.72,1612.59z"/>
	<path class="st0" d="M1432.03,1739.99c2.37,3.85,4.59,7.45,6.97,11.32c-2.73,6.92-7.06,12.36-13.78,16.98
		c-1.13-6.7-0.44-13-2.99-18.92C1425.62,1746.12,1428.61,1743.26,1432.03,1739.99z"/>
	<path class="st0" d="M135.92,1573.58c3.9,1.16,7.18,2.15,10.47,3.13c-0.95,3.22-3.3,2.75-5.02,3.34
		c-5.33,1.82-10.68,3.58-16.03,5.35c-9.7,3.21-9.7,3.21-21.51,0.74c2.77-4.99,6.69-8.29,12.03-6.55
		C124.23,1582.31,130.81,1580.75,135.92,1573.58z"/>
	<path class="st0" d="M114.14,1650.3c1.15,2.49,0.16,4.29-0.5,6.11c-1.13,0.93-2.42,0.97-3.76,0.82c-4.14-0.46-6.17,1.73-6.82,5.54
		c-0.34,1.96-0.43,3.98-0.84,5.92c-1.67,7.91-4.63,10.03-14.15,10.19c-1.62-2.17-1.07-4.33,0.21-6.39
		C94.54,1662.35,103.12,1654.97,114.14,1650.3z"/>
	<path class="st0" d="M1464.33,1788.18c-2.39-6.85-2.29-12.33-1.85-18.2c6.29-1.47,12.49-2.43,17.71-8.38
		C1479.99,1774.21,1473.16,1780.99,1464.33,1788.18z"/>
	<path class="st0" d="M1226.12,1780.68c0.94,4.95,0.3,9.03-2.95,12.94c-4.64,5.59-9.94,10.44-15.41,15.98
		c0.26-3.91,4.93-20.42,6.34-22.47C1216.91,1783.06,1221.11,1781.53,1226.12,1780.68z"/>
	<path class="st0" d="M1118.62,153.21c1.31-4.5,4.54-4.44,8.62-3.21c1.9,2.8,1.73,6.54,2.96,9.56c-1.41,1.98-3.02,1.91-4.6,1.27
		c-6.6-2.69-12.54-6.64-19.89-8.01c-5.67-1.06-5.62-7.11-6.26-13.17C1106.67,144.02,1111.38,150.21,1118.62,153.21z"/>
	<path class="st0" d="M25.04,1661.5c-5.22,12.85-5.81,25.54-9.94,37.72c-6.61-6.67-7.41-10.79-2.65-16.04
		c3.5-3.86,4.09-8.15,3.93-12.87C16.2,1665.25,18.41,1662.33,25.04,1661.5z"/>
	<path class="st0" d="M971.48,1698.23c-0.7-1.42-0.19-2.44,0.98-3.37c5.71-4.53,11.73-8.7,16.25-14.1c3.51,1.13,5.4,3.64,8.85,3.74
		c-0.88,2.04-1.45,3.23-1.91,4.45c-1.73,4.62-4.77,6.62-9.95,6.34c-4.91-0.26-10.03-0.16-14.47,2.73L971.48,1698.23z"/>
	<path class="st0" d="M17.86,1706.65c1.97,8.17,3.45,15.87,6.13,23.25c1.39,3.83,1.1,3.93-2.09,10.32c-4.16-2.13-7.04-4.76-5.39-10
		c1.33-4.2-0.13-7.75-2.54-11.12c-1.13-1.58-2.06-3.31-3.11-5.02C12.32,1710.74,14.57,1708.6,17.86,1706.65z"/>
	<path class="st0" d="M1277.63,139.64c1.58,4.52,0.07,7.52-1.46,10.4c-0.56,1.06-1.89,2.48-2.82,2.45
		c-7.1-0.22-12.05,4.81-18.11,7.05c-2.03,0.75-3.89,2.81-6.61,0.96c-0.86-3.58,0.84-6.81,2.1-10.26c3.6-1.41,6.91-1.97,8.77,3.03
		C1266.28,149.97,1271.77,144.84,1277.63,139.64z"/>
	<path class="st0" d="M833.18,1884.74c11.42-7.58,21.58-7.65,31,2.08c-0.78,2.92-3.19,3.29-5.5,3.09
		C850.18,1889.19,841.84,1887.59,833.18,1884.74z"/>
	<path class="st0" d="M1124.19,1163.32c-4.98,5.93-9.61,11.42-14.24,16.92c-0.41-0.16-0.82-0.32-1.23-0.48
		c2.81-10.51,5.61-21.02,8.63-32.3C1121.49,1152.54,1121.27,1158.7,1124.19,1163.32z"/>
	<path class="st0" d="M1366.41,1654.82c0.38,7.29,0.14,13.54,1.82,19.86c-8.26-3.49-14.65-11.59-17.21-22.16
		C1355.99,1654.64,1360.71,1655.69,1366.41,1654.82z"/>
	<path class="st0" d="M1268.76,1180.74c-4.78-5.6-9.55-11.19-14.47-16.96c1.72-5.33,3.43-10.6,5.61-17.33
		C1264.35,1158.2,1266.04,1169.45,1268.76,1180.74z"/>
	<path class="st0" d="M708.76,1672.78c-7.57,0-13.14,0-18.95,0c-3.6-4.7-7.2-9.39-11.35-14.8c6.49-0.19,10.74,3.69,15.37,6
		C698.37,1666.22,703.91,1666.91,708.76,1672.78z"/>
	<path class="st0" d="M1259.69,1745.23c0.02-3.69,0.85-7.17,0.56-10.78c-0.62-7.78,2.87-13.1,9.82-16.39
		c3.02,1.43,1.92,4.74,3.64,6.83C1270.21,1732.32,1264.94,1738.59,1259.69,1745.23z"/>
	<path class="st0" d="M82.07,1721.47c-7.76-9.08-7.43-23.39,0.34-37.14c3.06,5.95,3.06,5.95-3.29,14.5
		C80.39,1706.05,88.98,1712.21,82.07,1721.47z"/>
	<path class="st0" d="M88.55,1742.2c6.04,6.15,16.52,7.17,16.01,18.04c-4.46,0.33-6.4-2.18-8.55-4.78
		c-6.52-7.85-13.1-15.59-15.01-26.42C88.7,1730.81,88.53,1736.57,88.55,1742.2z"/>
	<path class="st0" d="M120.61,1647.55c7.89-5.37,15.56-8.54,24.33-11.59c-1.85,6.41-5.61,10.54-9.73,13.9
		C130.69,1653.54,125.95,1651.11,120.61,1647.55z"/>
	<path class="st0" d="M1549.12,946.79c0-5.71,0-9.96,0-14.91c7.75,0.33,11.62-5.27,15.7-10.03c2.6,1.22,2.26,3.26,1.62,4.4
		C1562.23,933.77,1556.99,940.48,1549.12,946.79z"/>
	<path class="st0" d="M828.94,930.57c0,4.32-0.06,6.6,0.02,8.87c0.07,1.92,0.3,3.83,0.53,6.67c-7.65-3.6-11-10.49-15.61-16.03
		c-2.38-2.85-2.11-3.08-1.87-8.5C817.94,924.3,819.39,933.82,828.94,930.57z"/>
	<path class="st0" d="M1097.51,1215.38c-2.03-9.66,2.58-16.71,6.05-24.38C1109.56,1200.08,1111.7,1206.14,1097.51,1215.38z"/>
	<path class="st0" d="M1276.55,1702.62c5.24-4.06,9.8-7.59,15.88-12.3c-4.41,10.71-9.33,18.92-15.23,29.07
		C1275.81,1712.43,1276.21,1707.7,1276.55,1702.62z"/>
	<path class="st0" d="M1053.02,1884.75c-9.88,1.41-18.34,5.15-28.44,4.43c2.95-5.14,7.12-7.79,10.67-11.99
		C1040.36,1881.31,1047.02,1880.78,1053.02,1884.75z"/>
	<path class="st0" d="M992.03,1894.97c12.52-9.61,17.64-11.7,26.86-11.12c-1.27,5.96-4.76,8.85-10.73,9.29
		C1003.27,1893.5,998.4,1894.23,992.03,1894.97z"/>
	<path class="st0" d="M1515.22,1729.93c-2.89,7.97-5.64,15.69-11.74,23.57c-1.04-6.83,0.04-12.2-3.25-17.28
		C1505.49,1733.87,1510.48,1732.42,1515.22,1729.93z"/>
	<path class="st0" d="M531.86,1707.83c2.81,3.96,5.5,7.57,5.21,13.24c-8.41,0.08-12.76-6.17-20.17-10.39
		C522.95,1709.52,527.28,1708.7,531.86,1707.83z"/>
	<path class="st0" d="M759.26,1858.94c3.3,0,6.87,0.83,9.83-0.16c7.29-2.43,11.45,0.18,14.11,7.42c-9.82,4.93-16.3-3.86-24.53-4.71
		C758.87,1860.64,759.07,1859.79,759.26,1858.94z"/>
	<path class="st0" d="M1280.14,1215.43c-11.76-8.37-11.69-13.71-6.49-24.68C1278.65,1198.19,1282.28,1205.56,1280.14,1215.43z"/>
	<path class="st0" d="M629.58,1642.64c-3.37-4.84-5.98-9.87-11.51-13.42c9.39,1.94,19.71,6.75,24.35,11.13
		C636.64,1643.15,636.63,1643.11,629.58,1642.64z"/>
	<path class="st0" d="M1057.5,1299.73c6.34,11.88,0.31,20.1-7.44,28.1C1049.88,1319.96,1052.31,1310.78,1057.5,1299.73z"/>
	<path class="st0" d="M1328.37,1327.42c-9.42-7.87-12.12-16.59-8.73-27.68c4.11,3.3,4.43,8.16,5.63,12.55
		C1326.55,1316.95,1328.76,1321.44,1328.37,1327.42z"/>
	<path class="st0" d="M798.59,1703.13c8.6,2.76,16.53,2.11,22.12,8.35c-4.17,3.39-4.17,3.39-11.75,3.76
		C806,1711.79,802.88,1708.15,798.59,1703.13z"/>
	<path class="st0" d="M29.68,1743.84c5.25,7.95,10.15,15.34,14.98,22.77c0.3,0.46,0.04,1.28,0.03,1.93
		c-6.11,0.74-7.16,0.61-8.35-3.54c-1.56-5.42-2.89-10.51-8.13-13.98C25.87,1749.46,26.53,1746.31,29.68,1743.84z"/>
	<path class="st0" d="M1070.72,1878.78c5.25-4.22,11.05-7.29,15.88-11.74c2.45-2.26,5.31-2.09,8.97-1.35
		c-1.1,4.24-3.18,7.36-6.92,8.74C1082.89,1876.55,1077.14,1878.88,1070.72,1878.78z"/>
	<path class="st0" d="M932.9,1887.89c4.08,1.25,7.26,2.85,9.84,5.14c0.27,3.47-1.74,4.48-4.22,4.6c-5.18,0.25-10.39,0.37-16.71-1.53
		C926.1,1892.92,929.64,1890.31,932.9,1887.89z"/>
	<path class="st0" d="M1250.13,1758.99c-4.75,7.63-9.33,15.1-16.71,21.52c0.72-5.19,1.29-9.37,1.93-13.97
		C1239.51,1762.78,1245.13,1761.59,1250.13,1758.99z"/>
	<path class="st0" d="M1181.07,1819.81c5.34-0.96,9.84-1.76,14.8-2.65c-3.88,6.09-8.3,9.52-19.52,15.29
		C1176.71,1827.64,1179.94,1824.35,1181.07,1819.81z"/>
	<path class="st0" d="M709.06,1825.31c2.23,3.24,4.49,5.32,5.06,8.41c-6.4,2.69-7.86,2.19-20.2-7.2c3.05-0.47,5.45-0.97,7.87-1.16
		C704.07,1825.17,706.39,1825.31,709.06,1825.31z"/>
	<path class="st0" d="M592.64,1758.7c-8.46-2.89-13.71-8.18-21.86-12.88c7.08-0.96,12-1.1,16.84,0.28
		C590.64,1749.51,590.94,1753.66,592.64,1758.7z"/>
	<path class="st0" d="M358.32,1640.38c4.56-2.6,7.9-4.51,11.32-6.46c3.86,1.99,7.59,3.88,9.95,7.81
		C370.97,1644.71,370.97,1644.71,358.32,1640.38z"/>
	<path class="st0" d="M650.55,1793c-7.88,1.02-13.89-0.59-18.28-6.61C646.32,1782.42,646.32,1782.42,650.55,1793z"/>
	<path class="st0" d="M792.11,1701.3c-5.96,2.7-9.79,4.43-13.77,6.23c-3.09-3.19-4.23-6.9-5.98-11.22
		C779.3,1695.41,784.35,1698.95,792.11,1701.3z"/>
	<path class="st0" d="M158.12,1640.91c-2.78,9.39-10.42,8.49-17.35,10.86C148.23,1639.06,148.23,1639.06,158.12,1640.91z"/>
	<path class="st0" d="M251.88,1551.14c-2.65-0.54-4.43-1.23-5.94-3.17c1.21-0.55,2.29-1.15,3.44-1.55c0.92-0.32,1.97-0.67,2.88-0.52
		c10.16,1.71,20.28-1.76,31.15-0.38c-1.73,3.41-4.22,4.13-7.17,3.99c-0.64-0.03-1.32-0.2-1.9-0.48
		C266.22,1545.07,258.47,1545.26,251.88,1551.14z"/>
	<path class="st0" d="M894.46,1895.06c-1.63,0-3.29,0.19-4.89-0.04c-5.08-0.72-10.13-1.59-15.97-2.53
		c3.47-4.37,8.08-4.54,12.15-6.62c2.95,2.41,5.97,4.88,8.98,7.35C894.64,1893.84,894.55,1894.45,894.46,1895.06z"/>
	<path class="st0" d="M785.5,1871.3c6.18-1.68,9.86-2.68,13.99-3.8c3.85,2.72,7.21,6.27,10.83,10.95
		C801.62,1877.85,794.83,1874.43,785.5,1871.3z"/>
	<path class="st0" d="M954.66,897.89c-2.46,6.81-6.74,10.46-12.81,13.71c-1.4-3.85-0.8-7.24-0.7-11.04
		C945.3,898.54,949.79,899.27,954.66,897.89z"/>
	<path class="st0" d="M656.26,1655.53c-1.61-3.54-3.21-7.05-4.92-10.83c7.6,1.04,7.75,1.1,18.59,8.01
		C665.42,1654.66,661.24,1655.74,656.26,1655.53z"/>
	<path class="st0" d="M1424.07,897.95c3.84,2.1,7.97,0.71,11.95,1.82c1.37,3.5,0.82,7.02,0.4,11.25
		C1429.74,908.92,1426.11,904.43,1424.07,897.95z"/>
	<path class="st0" d="M608.97,1624.99c-4.24,1.02-8.25,1.98-12.23,2.93c-3.67-3.14-4.18-7.66-7.22-10.98
		c4.86-1.68,7.48,1.5,10.47,3.04C602.87,1621.46,606.54,1621.54,608.97,1624.99z"/>
	<path class="st0" d="M836.89,1720c-3.13-2.86-5.79-5.28-8.43-7.74c-0.21-0.19-0.21-0.6-0.46-1.37c6.57-0.64,12.45,2.14,19.75,2.76
		C844.14,1717.45,840.65,1719.07,836.89,1720z"/>
	<path class="st0" d="M866.07,1715.77c7.44-1.46,13.33-0.82,18.43,4.43c-2.32,4.05-6.36,3.38-9.47,3.16
		C870.93,1723.07,868.51,1719.64,866.07,1715.77z"/>
	<path class="st0" d="M147.05,1793.32c2.88-0.49,5.75-1.12,8.65-1.43c5.09-0.54,8.77,1.41,10.96,6.84
		c-8.15,2.49-14.09-0.35-19.32-5.66L147.05,1793.32z"/>
	<path class="st0" d="M737.55,1850.51c-7.5-3.01-12.83-5.37-18.84-9.55c5.33-1.88,9.69-1.87,14.65-2.04
		C734.5,1842.04,735.66,1845.28,737.55,1850.51z"/>
	<path class="st0" d="M477.73,1679.95c2.96,2.27,4.21,4.79,4.87,8.34c-7.07,3.05-11.16-2.36-17.89-5.46
		C470.05,1681.65,473.65,1680.85,477.73,1679.95z"/>
	<path class="st0" d="M959.3,1889.55c3.71,2.04,7.34,4.05,10.98,6.06c-0.08,0.42-0.17,0.84-0.25,1.26c-6.55,0-13.09,0-20.82,0
		C952.69,1893.62,955.57,1891.2,959.3,1889.55z"/>
	<path class="st0" d="M1194.01,84.64c-3.28,2.91-1.49,6.6-1.57,9.66c-2.36,1.41-4.25,0.82-6.97,0.65c0.22-3.78,2.14-7.57-1.14-10.05
		C1187.62,81.36,1190.15,81.35,1194.01,84.64z"/>
	<path class="st0" d="M744.69,1684.41c7.91,2.96,13.62,5.1,19.84,7.42C754.15,1697.12,752.04,1696.43,744.69,1684.41z"/>
	<path class="st0" d="M543.24,1603.1c-2.59-2.37-4.45-5.22-6.23-9.25c6.88,1.68,12.74,3.39,18.74,6.46
		C551.56,1602.96,547.58,1603.52,543.24,1603.1z"/>
	<path class="st0" d="M195.2,1633.72c2.91-2.53,5.81-5.06,8.58-7.46c2.72,0.12,4.72,1.02,6.62,3.36
		C207.17,1636.07,201.08,1634.89,195.2,1633.72z"/>
	<path class="st0" d="M971.23,1698.02c-4.32,2.3-6.35,6.57-8.69,10.47c-3.9,0.98-6.14-1.93-9.76-2.64
		c8.49-6.13,11.59-7.35,18.7-7.62L971.23,1698.02z"/>
	<path class="st0" d="M436.72,1668.42c-6.58-1.03-11.38-4.26-18.22-6.39c3.56-2.98,6.32-3.43,9.4-4.07
		C430.96,1660.72,435.62,1662.26,436.72,1668.42z"/>
	<path class="st0" d="M404.33,1655.68c-7.87-2.7-13.63-4.68-19.61-6.74C394.73,1644.28,394.73,1644.28,404.33,1655.68z"/>
	<path class="st0" d="M316.67,1628.28c-5.54,4.47-10.13,2.85-15.86,1.61c1.64-3.32,3.74-4.97,6.36-6.28
		C310.9,1623.25,312.85,1626.17,316.67,1628.28z"/>
	<path class="st0" d="M194.95,1810.44c10.83-3.65,14.35-2.87,20.17,4.56C208.1,1813.71,201.7,1813.45,194.95,1810.44z"/>
	<path class="st0" d="M1110.07,1859.31c3.65-0.29,6.59,0.9,10.27,2.83c-5.39,3.3-10.62,5.02-16.7,6.95
		C1104.51,1864.1,1107.71,1861.9,1110.07,1859.31z"/>
	<path class="st0" d="M471.82,1571.92c6.53,1.31,11.59,2.56,16.58,4.71C480.57,1582.53,480.1,1582.41,471.82,1571.92z"/>
	<path class="st0" d="M506.9,1583.14c7.25,1.91,12.57,3.17,17.48,6.62C514.79,1592.8,514.11,1592.57,506.9,1583.14z"/>
	<path class="st0" d="M582.47,1617.42c-6.79-0.55-8.36-1.77-15.66-11.89C574.22,1606.79,579.76,1609.33,582.47,1617.42z"/>
	<path class="st0" d="M61.25,1782.02c3.28,2.7,6.62,5.33,9.81,8.14c1.03,0.91,1.21,2.54,0.41,3.63c-1.1,1.5-2.79,1.49-4.44,0.73
		c-1.58-0.73-2.58-2.06-3.26-3.57c-1.2-2.65-2.28-5.35-3.41-8.04C60.65,1782.62,60.95,1782.32,61.25,1782.02z"/>
	<path class="st0" d="M727.97,1678.32c-2.95,3.76-6.7,2.76-9.15,4.61c-2.82-2.53-3.54-5.28-4.05-8.96
		C719.58,1674.41,723.6,1676.24,727.97,1678.32z"/>
	<path class="st0" d="M1196.35,89.74c0.42-2.82,1.07-4.63,3.05-5.82c3.9,0.09,6.54,2.23,9.2,6.1
		C1204.3,92.03,1200.68,92.93,1196.35,89.74z"/>
	<path class="st0" d="M665.89,1810.28c-5.53-3.62-9.49-6.21-14.22-9.3C662.46,1799.31,662.54,1799.36,665.89,1810.28z"/>
	<path class="st0" d="M331.25,1628.45c2.62,1.81,5.85,2.79,7.91,5.63c-4.92,1.31-4.92,1.31-14.97-1.27
		C325.07,1628.91,328.83,1629.85,331.25,1628.45z"/>
	<path class="st0" d="M380.42,1550.85c6.85,3.28,12.86,1.33,17.84,4.95C391.92,1560.79,390.4,1560.45,380.42,1550.85z"/>
	<path class="st0" d="M1179.77,83.83c0.96,2.15,1.62,3.62,2.31,5.15c-3.62,4.49-7.67,2.61-12.37,1.66
		C1171.76,86.06,1174.73,84.06,1179.77,83.83z"/>
	<path class="st0" d="M218.38,1630.8c0.71-3,2.43-4.35,4.89-5.22c2.73,0.61,5.42,1.53,7.85,4.59c-2.17,1.44-4.47,0.84-6.49,1.04
		C222.71,1631.4,220.75,1632.35,218.38,1630.8z"/>
	<path class="st0" d="M119.61,1653.03c2.78,0.95,5.56,1.72,7.36,4.92c-2.9,2.36-6.05,3.76-9.71,4.93
		C115.78,1658.94,117.29,1655.93,119.61,1653.03z"/>
	<path class="st0" d="M551.47,1725.96c0.88,2.75,1.65,5.17,2.31,7.22c-0.37,1.2-0.85,1.28-1.63,0.82c-3.25-1.95-6.78-3.56-9.23-6.95
		C545.66,1725.05,548.07,1724.86,551.47,1725.96z"/>
	<path class="st0" d="M117.12,1773.09c2.92,0.07,5.86-0.07,8.74,0.27c2.85,0.34,4.71,1.98,4.55,5.18
		c-8.23,1.93-10.23,1.05-13.03-5.69L117.12,1773.09z"/>
	<path class="st0" d="M164.36,1629.82c-0.93,2.95-2.16,5.19-4.79,6.94c-3.1-0.54-6.47-1.12-11.3-1.96
		C154.29,1632.05,158.79,1629.68,164.36,1629.82z"/>
	<path class="st0" d="M267.98,1628.95c1.21-3.73,3.49-4.88,5.75-5.98c2.52,0.74,3.52,2.99,5.02,4.07c0.19,1.41-0.15,1.89-0.95,1.9
		C274.83,1628.96,271.87,1628.95,267.98,1628.95z"/>
	<path class="st0" d="M1242.36,159.4c0.08-1.3,0.07-2.62,0.27-3.9c0.82-5.34,0.44-10.34-6.17-15.19c9.08,3.72,10.72,5.82,8.89,11.58
		c-0.77,2.42,0.65,6.18-3.23,7.3L1242.36,159.4z"/>
	<path class="st0" d="M253.88,1622.53c2.08,0.48,4.09,0.74,4.73,2.55c0.27,1.65-0.54,2.35-1.33,2.87
		c-3.03,1.99-6.36,1.05-10.22,0.97C248.28,1625.18,251.55,1624.28,253.88,1622.53z"/>
	<path class="st0" d="M461.84,1570.3c-6.57,3.23-11.26,2.5-14.52-3.52C453.3,1566.02,454.17,1566.21,461.84,1570.3z"/>
	<path class="st0" d="M131.19,1571.97c-5.33,6.39-5.39,6.4-12.52,2.5C122.56,1572.13,126.39,1570.09,131.19,1571.97z"/>
	<path class="st0" d="M175.67,1640.1c-3.44,1.39-6.56,3.44-9.87,3.25c-0.59-0.58-0.98-0.78-0.99-0.99c-0.08-2.53,1.59-4.16,3.1-5.98
		C171.01,1636.14,173.25,1637.88,175.67,1640.1z"/>
	<path class="st0" d="M326.92,1547.18c6.56,0.38,11.02,0.64,16.06,0.93C335.34,1553.34,335.34,1553.34,326.92,1547.18z"/>
	<path class="st0" d="M1043.45,1362.98c-1.87-5.03,1.36-9.46,1.09-14.76c3.32,3.96,3.39,3.97,2.55,7.15
		C1046.37,1358.11,1046.51,1361.28,1043.45,1362.98z"/>
	<path class="st0" d="M487.97,1694.63c2.36-2.04,4.1-2.85,6.25-2.58c2.98,0.96,3.06,3.98,4.47,5.78c-0.66,1.42-1.56,1.92-2.49,1.44
		C493.57,1697.9,491.03,1696.37,487.97,1694.63z"/>
	<path class="st0" d="M11.59,1668.54c-0.05,4.2,2.78,9.35-3.34,12.68C6.74,1675.86,9.22,1672.23,11.59,1668.54z"/>
	<path class="st0" d="M421.49,1560.14c-6.95,4.84-6.95,4.84-12.2-2.14C413.8,1556.39,417.25,1560.38,421.49,1560.14z"/>
	<path class="st0" d="M1339.89,1419.29c1.92,4.94-0.39,9.08,0.67,14.77C1335.04,1428.37,1337.17,1424.23,1339.89,1419.29z"/>
	<path class="st0" d="M139.23,1568.06c4.29-2.72,7.56-3.5,10.93-4.17c0.95,2.75-0.8,4.34-2.07,5.21
		C145.77,1570.68,143.09,1569.53,139.23,1568.06z"/>
	<path class="st0" d="M1579.71,927.23c-2.81-5.86,0.32-8.21,5.85-10.28C1584.58,921.46,1583.59,924.96,1579.71,927.23z"/>
	<path class="st0" d="M40.71,1620.08c-1.12,7.47-1.12,7.47-7.28,8.68C34.49,1624.55,36.92,1622.14,40.71,1620.08z"/>
	<path class="st0" d="M797.54,927.22c-2.69-2.24-3.29-5.55-5.33-9.07c3.67-0.67,5.3,1.49,7.25,2.88
		C799.81,923.37,799.3,925.47,797.54,927.22z"/>
	<path class="st0" d="M54.48,1606.44c-2.14,8.34-2.14,8.34-8.26,8C47.61,1611.18,50.33,1609.41,54.48,1606.44z"/>
	<path class="st0" d="M147.34,1793.08c-5.05-0.47-9.17-2.74-13.29-6.64c2.96-1.79,5.18-1.67,7.17,0.35c2.04,2.08,3.9,4.35,5.83,6.53
		L147.34,1793.08z"/>
	<path class="st0" d="M441.18,1670.59c5.76-2.74,8.77-0.81,10.35,4.15C446.79,1674.78,446.79,1674.78,441.18,1670.59z"/>
	<path class="st0" d="M1332.49,1349.23c2.17,3.96,2.7,7.93,2,12.46C1330.27,1355.75,1330.27,1355.75,1332.49,1349.23z"/>
	<path class="st0" d="M87.11,1705.13c-2.35-2.59-5.65-5.03-1.5-8.76C88.09,1699.66,88.09,1699.66,87.11,1705.13z"/>
	<path class="st0" d="M1134.1,156.13c4.16,2.22,1.84,7.1,4.31,9.48c-0.86,3.01-2.66,4.33-5.97,6.4c2.57-6.01,2.64-11.03,1.89-16.09
		L1134.1,156.13z"/>
	<path class="st0" d="M18.12,1651.1c0.35,4.9,0.77,8.53-4.53,10.16C13.45,1657.21,15.22,1654.47,18.12,1651.1z"/>
	<path class="st0" d="M4.68,1693.96c4.07,5.63,6.83,9.32,2.54,15.74C6.32,1704.11,5.67,1700.08,4.68,1693.96z"/>
	<path class="st0" d="M117.37,1772.86c-5.03,1.32-5.93-3.76-9.24-5.27c2.71-2.06,5-2.51,6.03,0.75c0.61,1.94,1.38,3.54,2.96,4.76
		L117.37,1772.86z"/>
	<path class="st0" d="M91.01,1586.22c1.97-3.12,5.32-3.16,8.43-4.5C97.47,1586.93,97.47,1586.93,91.01,1586.22z"/>
	<path class="st0" d="M1039.41,1431.72c-0.64-3.93-3.47-7.6-2.05-12.13C1041.24,1424.3,1041.26,1424.3,1039.41,1431.72z"/>
	<path class="st0" d="M1242.12,159.19c0.43,3.83,1.54,7.48,3.71,11.26c-6.76-2.47-6.76-2.47-3.47-11.05L1242.12,159.19z"/>
	<path class="st0" d="M171.09,1558.59c3.27-1.38,6.25-2.06,9.62-0.65C175.28,1562.24,175.27,1562.22,171.09,1558.59z"/>
	<path class="st0" d="M88.68,1721.41c2.02,2.47,2.71,4.52,2.11,6.94c-1.98,0.56-3.08-0.94-4.05-1.99
		C84.76,1724.24,86.48,1722.91,88.68,1721.41z"/>
	<path class="st0" d="M184.66,1807.13c-4.43,0.4-7.35,0.63-9.5-2.17C180.04,1803.55,180.04,1803.55,184.66,1807.13z"/>
	<path class="st0" d="M1134.33,155.92c-3.11-8.8-3.11-8.8,3.03-14.29c1.09,3.11-2.42,4.3-2.4,6.75c0.02,2.58-0.55,5.17-0.87,7.75
		L1134.33,155.92z"/>
	<path class="st0" d="M304.35,1546.32c-4.62,3.45-4.62,3.45-8.65-0.02C298.65,1545.27,301.45,1545.72,304.35,1546.32z"/>
	<path class="st0" d="M89.96,1691.65c-1.68-2.55-1.59-4.78-1.29-7.05c1.54-1.94,3.35-1.56,5.3-0.6
		C93.65,1687.05,92.1,1689.35,89.96,1691.65z"/>
	<path class="st0" d="M144.63,1784.51c4.21-0.54,5.9,1.14,8.36,3.34C148.51,1789.79,146.48,1788.33,144.63,1784.51z"/>
	<path class="st0" d="M189.61,1555.13c3.05-1.67,5.45-2.21,7.74-1.45c0.88,0.52,0.95,1.06,0.43,1.75
		C195.5,1558.44,193.06,1558.34,189.61,1555.13z"/>
	<path class="st0" d="M107.32,1668.79c-1.24-2-0.58-3.57-0.3-5.11c0.25-1.37,1.02-2.35,2.6-2.05c1.75,0.33,1.55,1.64,1.39,2.94
		C110.77,1666.63,109.99,1668.22,107.32,1668.79z"/>
	<path class="st0" d="M93.44,1736.26c2.94,0.83,3.97,3.2,4.83,5.78C92.75,1741.74,92.77,1741.72,93.44,1736.26z"/>
	<path class="st0" d="M606.53,1768.12c-2.7,0.42-3.78-1.95-6.11-3.09C605.5,1764.13,605.5,1764.13,606.53,1768.12z"/>
	<path class="st0" d="M79.38,1590.89c-2.54,4.83-4.53,6.57-8.67,6.41C72.12,1593.75,74.81,1592.99,79.38,1590.89z"/>
	<path class="st0" d="M354.84,1550.12c3.28-1.23,5.69-1.44,8.08,0.06C358.74,1554.05,358.74,1554.05,354.84,1550.12z"/>
	<path class="st0" d="M978.12,541.99c3.32,1.45,5.02,2.94,4.14,6.47C979.23,547.41,977.98,545.64,978.12,541.99z"/>
	<path class="st0" d="M195.65,1804.61c-3.79,1.74-5.87,0.53-7.84-2.08C190.73,1801.57,192.79,1803.13,195.65,1804.61z"/>
	<path class="st0" d="M113.63,1761.16c-4.28,0.73-5.03-1.03-4.62-4.13C111.52,1757.02,112.5,1758.53,113.63,1761.16z"/>
	<path class="st0" d="M1395.37,548.68c-0.37-4.18,2.07-5.2,4.39-7.04C1400.81,545.68,1398.74,547.23,1395.37,548.68z"/>
	<path class="st0" d="M1385.89,541.78c0,0.31,0.12,0.7-0.02,0.91c-0.87,1.34-1.93,2.53-3.69,2.38c-0.38-0.03-0.97-0.81-1.01-1.28
		c-0.19-2.23,1.63-2.34,3.12-2.6C1384.78,541.1,1385.36,541.56,1385.89,541.78z"/>
</g>
</svg>
