<?xml version="1.0" encoding="utf-8"?>
<!-- Generator: Adobe Illustrator 24.0.2, SVG Export Plug-In . SVG Version: 6.00 Build 0)  -->
<svg version="1.1" id="Layer_1" xmlns="http://www.w3.org/2000/svg" xmlns:xlink="http://www.w3.org/1999/xlink" x="0px" y="0px"
	 width="1301.95" height="1877.08" viewBox="0 0 1301.95 1877.08" style="enable-background:new 0 0 1301.95 1877.08;" xml:space="preserve">
<g>
	<path d="M539.02,1068.76c-2.97,0.74-6.43,1.06-9.38,2.44c-8.14,3.81-16.85,5.59-25.44,7.83c-1.88,0.49-3.65,1.38-5.51,1.93
		c-14.47,4.24-29.16,6.43-44.34,6.12c-21.49-0.44-42.99,0.05-64.49-0.21c-6.79-0.08-12.85,1.87-18.78,4.58
		c-3.37,1.54-6.57,3.53-9.67,5.59c-2.27,1.51-4.07,1.21-5.61-0.74c-3.14-3.97-6.36-7.9-9.15-12.11c-5.89-8.9-9.64-18.81-13.02-28.87
		c-2.37-7.07-5.04-14.05-7.03-21.22c-1.35-4.84-2.28-9.93-2.42-14.94c-0.11-3.97-2.65-4.82-5.17-6.23
		c-5.55-3.1-11.08-6.21-17.25-9.67c0.4,3.34,0.83,6.63,1.17,9.93c0.37,3.59,0.74,7.19,0.98,10.79c0.39,5.76,0.86,11.53,0.94,17.3
		c0.05,3.43-0.86,6.86-0.88,10.3c-0.09,18.33-0.45,36.67,0.08,54.99c0.42,14.58,4.42,28.3,13.23,40.32
		c3.04,4.15,5.66,8.61,8.62,12.82c3.68,5.24,9.12,8.17,14.45,11.51c4.18,2.62,8.84,3.24,13.06,5.34c2.39,1.19,5.38,1.18,8.12,1.65
		c8.95,1.55,17.65,4.47,27.04,1.15c5.23-1.85,11.16-1.72,17.02-2.52c0.55,7.44-4.09,10.84-9.02,14.27c-1.87,1.3-4.01,3.3-4.47,5.34
		c-1.37,6.04-4.92,9.88-10.22,12.55c-1.41,0.71-2.63,1.81-3.92,2.71c10.73,9.35,18.18,20.84,23.64,33.63
		c4.34,10.17,3.93,21.07,3.04,31.7c-0.34,4.01-3.69,7.84-6.01,11.54c-0.6,0.97-2.47,1.14-3.74,1.68c-3.96-5.89-5.29-13.5-13.95-15.7
		c0,4.48,0.1,8.42-0.05,12.35c-0.07,1.76-0.36,3.62-1.06,5.21c-1.96,4.52-4.45,5.04-8.3,1.87c-3.26-2.69-6.38-5.56-9.7-8.18
		c-0.85-0.67-2.21-0.68-3.75-1.1c0.13,7.62-1.77,14.11-5.08,20.2c-3.9,7.18-9.87,12.49-16.17,17.41c-1.2,0.94-3.45,0.55-5.08,0.76
		c-4.73-10.15-9.64-19.74-15.87-28.39c-5.32,6.32-10.03,12.13-14.96,17.74c-7.01,7.96-14.17,15.77-23.69,20.94
		c-1.33,0.72-2.16,2.36-3.22,3.57c-4.17,4.76-8.62,8.97-14.4,12.02c-3.45,1.82-5.79,5.74-8.61,8.74c-3.16,3.36-6.57,6.54-9.36,10.18
		c-4.91,6.42-11.32,11.12-17.74,15.68c-2.81,1.99-6.77,2.98-10.29,3.22c-6.22,0.43-12.5,0.04-18.56,2.04
		c-0.55,0.18-1.39,0.03-1.89-0.3c-5.57-3.56-11.84-2.06-17.84-2.67c-8.87-0.9-16.47,1.81-23.57,6.76c-1.03,0.72-2.27,1.31-3.5,1.54
		c-5.43,1.01-10.89,1.93-16.35,2.76c-3.08,0.47-6.36,0.2-9.25,1.15c-5.21,1.71-10.03,0.36-14.97-0.78
		c-6.77-1.56-13.55-3.11-20.45-4.69c0.94,4.04-2.38,5.29-5.43,7.04c-4.66,2.67-9,5.89-13.67,8.53c-3.53,1.99-7.51,5.02-11.03,4.69
		c-3.54-0.33-5.74,2.06-8.71,1.85c-3.86-0.28-7.69-0.78-11.84-1.22c-1.28,1.75-2.64,4.23-4.57,6.13
		c-5.02,4.91-10.12,3.87-12.41-1.63c-1.25-3-2.13-5.96-1.04-9.5c0.82-2.65,0.16-5.76,0.16-8.94c-2.65,2.81-4.78,5.89-9.35,4.61
		c-5.22-1.46-7.43-3.88-8.4-9.15c-2.06-11.12-0.51-21.83,3-32.41c0.38-1.15,0.92-2.73,0.44-3.59c-3.19-5.68-0.38-10.85,1.15-16.09
		c1.8-6.2,5.97-10.98,9.89-15.92c6.21-7.82,12.28-15.76,18.46-23.61c0.86-1.09,1.87-2.27,3.07-2.87c8.17-4.03,16.28-8.24,24.7-11.69
		c3.77-1.54,7.17-3.43,10.71-5.33c8.73-4.69,17.86-8.84,27.21-12.1c5.01-1.74,10.82-1.04,15.84,1.72c6.3,3.46,12.61,6.9,18.76,10.61
		c3.78,2.29,7.58,2.47,11.78,1.79c9.73-1.57,18.93-4.57,27.55-9.37c4.82-2.68,10.08-4.73,14.52-7.92c4.66-3.35,8.84-7.5,12.76-11.73
		c5.18-5.59,10.16-11.41,14.76-17.49c5.07-6.71,9.38-14,14.43-20.73c5.74-7.66,4.43-16.02,2.85-24.3
		c-2.34-12.31-4.7-24.67-7.97-36.75c-4.2-15.52-7.93-31.18-14.15-46.16c-8.55-20.57-16.24-41.5-24.35-62.25
		c-5.14-13.15-10.46-26.24-15.51-39.43c-3.48-9.08-6.6-18.3-9.94-27.44c-1.23-3.35-2.71-6.61-3.97-9.95
		c-3.03-8.04-6.19-16.05-8.93-24.19c-2.9-8.6-5.43-17.33-8.02-26.03c-2.83-9.49-5.59-19-8.31-28.53
		c-1.88-6.56-3.81-13.11-5.41-19.74c-2.36-9.76-4.66-19.46-9.59-28.4c-3.38-6.12-3.69-12.81-2.93-19.9
		c0.66-6.13,1.64-12.04,4.33-17.45c2.86-5.78,6.08-11.49,9.93-16.65c4.88-6.55,10.27-12.79,15.98-18.63
		c4.17-4.26,8.77-8.53,13.98-11.23c6.77-3.5,14.28-4.95,22.24-3.41c7.69,1.5,15.62,1.78,23.33,3.24c7.66,1.45,15.2,3.58,22.73,5.62
		c9.89,2.68,19.81,5.28,29.56,8.42c14.51,4.66,28.9,9.71,42.2,17.38c6.31,3.64,12.91,6.8,19.1,10.61
		c7.47,4.6,14.65,9.68,21.96,14.53c4.19,2.78,8.37,5.57,12.64,8.22c1.06,0.66,2.51,1.22,3.68,1.06c6.63-0.88,11.5,2.98,16.82,5.81
		c7.4,3.94,13.01,10.17,19.68,15.03c0.73,0.53,1.56,0.9,2.75,1.57c-0.97-9.91-2.06-18.84-1.02-28.15
		c1.07-9.66,2.63-19.12,5.42-28.33c2.35-7.77,5.56-15.28,8.46-22.87c0.98-2.56,2.37-4.98,3.19-7.58c1.04-3.31,0.08-4.16-3.39-5.49
		c-9.5-3.65-18.87-7.65-28.35-11.37c-8.04-3.16-16.07-6.35-24.26-9.07c-3.36-1.11-7.11-1.21-10.7-1.44
		c-13.86-0.89-26.48-5.66-38.14-12.82c-6.8-4.18-12.67-9.85-19.44-14.08c-10.01-6.25-19.51-13.53-31.28-16.64
		c-4.45-1.18-8.84-2.53-13.44-2.34c-2.15,0.09-4.23,1.31-6.38,1.87c-3.46,0.9-7.12,1.28-10.39,2.61c-4.77,1.94-9.37,4.34-13.87,6.87
		c-5.73,3.22-11.63,4.85-18.32,4.62c-8.15-0.28-15.61-1.69-20.94-7.76c-3.79,0.59-7.14,1.45-10.5,1.52
		c-2.35,0.05-4.99-0.53-5.39-3.84c-0.37-3.07-0.51-5.95,2.43-8.04c2.81-2,5.25-4.08,7.13-7.38c1.93-3.39,6.03-5.56,9.24-8.3
		c-3.82-3.76-6.99-4.08-10.74-2.88c-3.51,1.12-7.06,2.63-10.94,0.69c-2.96-1.48-3.85-3.68-2.12-6.53c2.34-3.85,5.71-6.53,9.55-8.75
		c5.02-2.91,9.87-6.13,14.97-8.89c5.15-2.78,10.28-5.52,16.4-6.06c5.16-0.46,10.25-1.83,15.33-2.99c7.2-1.64,14.35-3.17,21.86-3
		c6.88,0.16,13.78-0.6,20.67-0.95c0.15-0.35,0.3-0.7,0.45-1.05c-1.32-0.95-2.54-2.1-3.98-2.8c-4.37-2.13-8.81-4.13-13.26-6.09
		c-4.28-1.88-8.48-4.2-12.96-5.23c-2.16-0.5-5.49,0.87-7.27,2.51c-4.8,4.4-10.12,7.6-16.42,8.97c-9.06,1.96-18.3,2.92-27.33,0.45
		c-2.59-0.71-4.61-3.85-6.64-6.1c-1.04-1.16-1.52-2.83-2-3.77c-3.67,1.47-6.94,3.1-10.4,4.08c-2.54,0.72-3.77-0.71-4-3.57
		c-0.4-5.03,3.02-8.12,5.3-11.81c0.39-0.63,1.47-0.92,1.71-1.56c2.55-6.83,8.7-9.5,14.2-13.25c4.1-2.8,8.28-4.87,12.91-6.26
		c4.16-1.25,8.33-2.57,12.59-3.39c7.05-1.36,14.16-2.41,21.27-3.46c1.7-0.25,3.64-0.47,5.19,0.08c5.51,1.95,10.83,4.47,16.37,6.35
		c9.31,3.17,18.77,5.92,28.1,9.06c2.43,0.82,4.51,2.63,6.89,3.63c2.6,1.09,5.38,1.77,8.08,2.62c0.26-0.39,0.51-0.77,0.77-1.16
		c-2.17-3.3-3.99-6.91-6.59-9.82c-5.11-5.7-10.39-11.27-16.9-15.55c-2.11-1.39-3.45-3.92-5.31-5.75c-2.6-2.56-5.33-3.56-9.21-1.92
		c-7.21,3.05-14.88,4.73-22.25,0.72c-6.58-3.58-13.42-7.46-15.94-15.11c-1.26-3.83-0.79-8.24-1.19-13.5
		c-3.02-1.1-7.31-2.67-11.47-4.19c-0.52-4.75,0.46-7.28,4.64-8.95c3.86-1.54,8.07-2.48,12.21-3.01c4.32-0.55,8.9,0.74,12.75-2.54
		c0.74-0.63,2.21-0.57,3.33-0.54c5.89,0.17,11.48,1.44,16.87,3.98c13.84,6.51,25.84,15.51,37.17,25.73
		c9.12,8.23,19.1,15.5,28.61,23.31c2.12,1.74,3.97,3.84,5.77,5.93c5.58,6.47,11.27,12.9,12.59,21.83c0.05,0.31,0.45,0.62,0.41,0.89
		c-1.41,8.31,4.84,13.34,8.74,19.06c9,13.18,18.97,25.7,28.1,38.81c2.13,3.06,4.99,4.41,7.81,5.25c14.65,4.37,29.78,3.2,44.79,3.01
		c0.39,0,0.78-0.54,0.78-0.54c-3.22-17.85-9.29-35.06-6.05-53.34c-7.06-3.7-14.54-6.65-20.87-11.19c-7.76-5.56-14-12.79-18.17-21.75
		c-4.75-10.22-5.67-20.9-4.83-31.79c0.41-5.31,1.37-10.8,3.31-15.73c2.96-7.54,6.68-14.83,10.64-21.9
		c3.81-6.81,9.84-11.79,16.17-16.16c12.48-8.61,25.18-16.92,37.72-25.45c3.59-2.44,7.01-5.15,10.39-7.87
		c2.38-1.92,2.3-3.36-0.25-5.04c-5.41-3.56-11.52-5.25-17.86-6c-4.88-0.58-9.8-0.78-14.77-1.16c5.09-10.74,11.07-19.2,34.3-28.31
		c-3.64-6.45-7.97-12.64-8.07-21.24c-1.75,1.03-2.98,1.68-4.13,2.45c-5.78,3.87-12.24,7.18-18.87,7.81
		c-6.39,0.62-13.46-0.18-19.38-3.94c-2.29-1.45-4.32-3.32-6.43-5.04c-2.44-1.99-6.13-1.86-9.67-0.13c-2.94,1.44-6.07,2.59-9.23,3.48
		c-9.33,2.62-18.71-0.5-28.09-0.06c-1.59,0.07-3.3-1.11-4.87-1.9c-5.98-3.01-12.82-1.85-18.95-4c-9.28-3.25-18.59-6.38-25.71-13.79
		c-4.99-5.19-6.43-11.22-5.46-18.1c0.16-1.15,0-2.34,0.13-3.49c0.47-4.2,2.89-7.33,6.36-9.25c7.26-4.01,14.74-7.6,22.14-11.35
		c6.83-3.46,14.47-5.57,19.68-11.74c1.54-1.82,2.97-3.72,4.39-5.5c-4.66-1.19-9.42-2.77-14.31-3.58
		c-12.53-2.08-20.89-10.06-27.05-20.1c-4.39-7.16-9.17-13.31-16.36-17.73c-7.34-4.51-11.24-11.88-14.86-19.4
		c-5.25-10.93-5.78-22.59-4.9-34.3c0.57-7.66,3.74-14.73,7.24-21.57c0.85-1.66,1.35-3.51,2.02-5.27c-0.47-0.28-0.93-0.57-1.4-0.85
		c-4.09,5.29-8.49,10.37-12.21,15.91c-5.88,8.76-8.5,18.75-11.02,28.97c-3.34,13.61-2.59,27.23-2.71,40.91
		c-0.02,2.42,0.67,4.83,0.83,7.26c0.06,0.86-0.51,1.75-0.97,3.2c-5.25-8.36-7.75-16.99-8.86-26.04c-0.6-4.9-0.9-9.85-1.01-14.79
		c-0.19-8.74,1.54-17.21,3.55-25.71c4.88-20.65,15.98-37.93,27.98-54.95c6.38-9.06,13.58-17.33,20.8-25.64
		c0.39-0.45,0.5-1.16,0.75-1.78c-2.98-2.17-6.02-4.03-8.63-6.35c-6.15-5.47-8.78-13.07-11.22-20.54c-2.5-7.66-3.71-15.6-3.34-23.78
		c0.33-7.18,3.71-9.64,10.98-8.22c7.84,1.53,15.8,2.41,23.7,3.64c2.13,0.33,3.15-0.74,4.31-2.34c7.97-10.95,18.92-17.73,31.29-22.84
		c13.7-5.66,28.25-7.67,42.55-10.71c11.96-2.55,24.13-4.07,36.19-6.16c3.19-0.55,6.31-1.53,9.55-2.34c1.81-7.85,3.2-15.9,5.59-23.63
		c2.48-8.03,4.57-16.52,11.08-22.52c2.17-2.01,5.17-3.41,8.04-4.3c2.92-0.91,5.21,0.59,6.72,3.49c5.19,9.97,10.48,19.9,15.88,29.76
		c1.64,2.99,3.32,6.21,5.81,8.38c2.04,1.78,5.21,2.55,8.02,3.12c9.1,1.84,18.33,3.09,27.39,5.1c10.63,2.35,21.23,4.94,31.67,8
		c9.93,2.91,19.35,7.06,26.67,14.84c0.64,0.69,1.58,1.33,2.48,1.5c7.99,1.51,13.41,6.45,18.79,12.27
		c5.82,6.29,11.14,12.72,14.86,20.43c1.94,4.02,3.87,8.05,6.08,12.68c1.28-1.86,2.08-3,3.36-4.86c4.25,20.2,6.9,39.87,5.6,59.97
		c0.42,0.08,0.84,0.17,1.26,0.25c2.86-10.01,5.73-20.03,8.67-30.32c4.38,0.81,5.87,4.52,7.33,7.47c8.23,16.59,8.98,34.51,8.01,52.49
		c-0.58,10.76-3.19,21.27-6.98,31.41c-0.56,1.49-1.79,2.72-2.64,4.11c-0.91,1.48-1.75,3.01-2.62,4.52c0.24,0.28,0.49,0.57,0.73,0.85
		c0.88-0.57,2.03-0.94,2.61-1.73c7.23-9.84,12.18-20.81,14.92-32.64c1.62-6.98,2.17-14.21,3.11-21.34c1.04-7.94,2-15.89,2.89-23.85
		c0.12-1.07-0.48-2.21-0.52-3.32c-0.05-1.16,0.18-2.32,0.35-4.14c10.04,7.56,15.39,17.03,19.71,27.72
		c3.91,9.7,5.98,19.75,7.23,29.82c1.15,9.27,0.01,18.86-0.46,28.29c-0.38,7.53-2.07,14.84-5.11,21.8c-0.29,0.66,0.05,1.6,0.14,2.96
		c21.66-14.63,44.26-19.15,69.44-8.34c-2.86,2.08-5.29,3.85-7.72,5.61c-6.07,4.42-12.45,8.49-18.06,13.43
		c-2.14,1.89-3.06,5.67-3.61,8.76c-1.1,6.12-1.58,12.35-2.25,18.54c-0.12,1.13,0.11,2.29,0.23,4.33
		c5.62-5.68,8.04-12.52,11.63-19.82c5.78,9.78,4.94,19.7,5.84,29.01c0.93,9.59,0.25,19.49-2.71,28.82
		c-2.87,9.07-6.54,17.89-10.18,27.68c9.38-8.05,15.83-17.53,22.97-27.53c3.19,6.88,2.67,12.9,1.86,18.61c-2,14-7,27.07-13.59,39.57
		c-2.04,3.87-3.49,8.06-4.97,12.19c-0.41,1.14-1.4,2.53,0.24,3.97c0.66,0.58,0.24,2.41,0.28,3.66c0,0.14-0.19,0.27-0.24,0.43
		c-2.13,6.96-5.52,13.4-6.22,20.96c-0.65,7.11-4.23,13.64-8.5,19.44c-1.96,2.65-1.91,4.94-0.96,7.78c2.88,8.63,5.57,17.32,8.4,25.97
		c2.69,8.23,2.03,16.58,0.68,24.86c-0.68,4.15-1.27,8.15-0.9,12.39c0.43,4.8,0.29,9.67,0.06,14.49c-0.56,12.13,2.11,23.84,4.4,35.59
		c2.38,12.19,6.08,24.13,5.72,36.79c-0.16,5.59,0.99,11.21,0.81,16.8c-0.25,7.71-1.6,15.39-1.74,23.1
		c-0.11,6.35,0.96,12.67,3.34,18.7c1.37,3.47,1.96,7.29,3.63,10.58c2.57,5.06,5.24,10.25,8.84,14.57
		c4.94,5.91,10.85,10.99,16.23,16.54c2.78,2.87,5.31,5.98,8.16,9.22c-4.3,2.5-9.3,2.14-14.22,1.87c-2.08-0.11-4.19-0.73-6.17-1.42
		c-3.08-1.07-3.95,0.38-3.96,3.06c-0.02,4.5-0.03,9-0.01,13.5c0.06,11.61-3.39,22.21-9.52,31.95c-3.34,5.31-6.92,10.5-10.75,15.47
		c-1.35,1.76-3.77,2.7-6.11,4.3c-0.62-6.15-0.96-11.36-1.74-16.51c-0.44-2.92-1.91-5.07-5.14-6.43c-7.44-3.14-13.2-8.68-18.63-14.78
		c-8.27,8.15-15.23,18.13-28.32,21.3c3.08-9.11,4.53-17.56,4.26-26.3c-0.09-3.04-1.18-4.15-4.16-4.05
		c-11.57,0.39-22.96-0.65-34.19-5.37c-2.13,5.05-0.6,9.78-0.18,14.42c0.92,10.03,5.54,18.99,8.47,28.44
		c3.39,10.93,6.01,22.02,7.02,33.45c0.38,4.35,0.82,8.69,1.28,13.56c0.19,0.04,1.22,0.62,1.98,0.37
		c11.74-3.81,23.71-7.08,35.09-11.8c11.53-4.78,22.59-10.77,33.61-16.69c7.29-3.91,14.35-8.33,21.15-13.06
		c6.44-4.48,12.6-9.41,18.53-14.56c12.28-10.65,23.98-22,36.58-32.26c11.96-9.74,24.59-18.68,37.23-27.54
		c10.54-7.39,21.29-14.56,32.38-21.1c10.31-6.08,20.99-11.63,31.88-16.61c9.86-4.5,20.06-8.44,30.41-11.65
		c9.3-2.88,18.97-4.62,28.54-6.51c7.99-1.58,16.09-2.69,24.14-3.94c1.3-0.2,2.66-0.1,3.99-0.11c9.33-0.01,18.67-0.24,27.99,0.05
		c13.14,0.42,26.16,2.09,39.22,3.65c14.82,1.77,29.17,5.46,43.69,8.46c6.82,1.41,13.4,4,20.03,6.25c8.92,3.03,17.93,5.69,26.77,9.09
		c12.31,4.75,24.4,9.77,35.92,16.22c5.51,3.08,11.55,5.26,16.9,8.55c7.08,4.36,13.85,9.26,20.53,14.22
		c5.66,4.2,11.1,8.71,16.46,13.3c4.11,3.52,8.28,6.98,12.27,10.68c6.93,6.43,13.44,13.19,19.57,20.32
		c6.35,7.38,12.67,14.82,17.49,23.37c6.04,10.72,11.81,21.56,15.47,33.37c3.19,10.27,6.29,20.6,6.76,31.43
		c0.3,7.02,0.22,14.06-0.05,21.08c-0.11,2.68-0.97,5.48-3.97,7.03c-4.99-3.52-6.98-9.88-11.87-13.37c-0.29,0.19-0.58,0.38-0.87,0.57
		c1.08,5.51,2.23,11.01,3.22,16.53c1.27,7.07,2.47,14.15,3.59,21.24c1.96,12.38,3.46,24.79,3.07,37.38
		c-0.28,9.02,0.19,18.07-0.15,27.09c-0.24,6.55-0.81,13.15-2.04,19.58c-1.56,8.13-3.5,16.24-6.06,24.1
		c-3.65,11.24-7.4,22.52-12.26,33.26c-4.18,9.23-9.94,17.74-15.08,26.52c-8.04,13.72-18.6,25.39-30.21,36.08
		c-6.13,5.64-12.7,10.82-19.36,15.83c-7.24,5.45-14.72,10.58-22.27,15.59c-2.63,1.74-5.78,2.69-8.7,3.99
		c-3.4,1.52-6.79,3.03-10.19,4.55c-2.76,1.23-5.42,3.02-8.31,3.59c-5.19,1.03-8.2,4.71-10.86,8.45
		c-9.14,12.88-20.25,23.97-31.91,34.37c-7.48,6.67-16.05,12.68-25.11,16.86c-8.81,4.07-18.16,7.88-28.46,7.73
		c-7.93-0.12-15.86,0.68-23.8,0.86c-4.36,0.1-5.61-2.05-2.98-5.41c3.52-4.49,7.59-8.54,11.37-12.83c3.78-4.29,7.48-8.64,10.62-13.65
		c-2.11,1.32-4.49,2.36-6.29,4.02c-7.93,7.32-17.87,11.33-27.45,15.32c-9.12,3.8-18.81,6.95-28.98,7.64
		c-6.55,0.44-13.05,1.49-19.6,1.89c-5.25,0.32-10.52,0.08-14.99-3.44c-2.68-2.11-2.42-3.14-0.06-5.56c3.59-3.67,8.16-5.63,12.5-7.94
		c10.8-5.76,19.35-14.15,27.58-22.94c4.86-5.18,9.97-10.21,14.17-15.9c5.32-7.19,10.15-14.8,12.86-23.49
		c0.29-0.93,0.56-1.88,1.02-2.73c6.25-11.45,9.06-23.85,11.15-36.64c1.49-9.12,3.06-18.25,2.64-27.39
		c-0.61-13.05-2.85-25.92-6.03-38.68c-3.19-12.78-9.37-23.95-16.18-34.9c-2.41-3.88-5.29-7.49-8.06-11.14
		c-0.71-0.93-1.84-1.54-3.42-2.8c2.35,12.32-0.75,22.83-5,33.21c-1.51,3.69-4.22,3.66-7.22,3.29c-3.9-6.09-7.32-12.49-11.78-18.05
		c-3.02-3.77-7.12-7.16-11.43-9.29c-6.3-3.11-13.22-5.21-20.47-4.48c-4.21,0.42-8.48,1.01-12.54,2.18
		c-8.23,2.37-16.45,4.88-24.47,7.88c-9.78,3.65-19.17,8.4-29.07,11.67c-12.52,4.13-25.2,7.97-38.61,8.26
		c-6.44,0.14-12.88,1.02-19.3,0.88c-11.15-0.25-22.22-1.57-33.08-4.31c-4.19-1.06-8.45-1.89-13.45-2.99
		c1.33,3.4,2.08,6.05,3.36,8.41c2.26,4.16,2.02,8.59,1.9,13.03c-0.1,3.81-3.54,3.73-5.95,4.85c-4.16-3.23-8.31-6.46-12.48-9.66
		c-2.24-1.71-4.56-3.32-6.8-5.03c-6.7-5.13-13.52-9.91-21.34-13.42c-5.29-2.37-10.28-5.13-16.13-5.9c-1.18-0.15-2.19-1.35-3.38-1.82
		c-3.42-1.36-5.72,0.28-5.28,3.92c0.31,2.57,1.18,5.07,1.67,7.63c1.61,8.3,3.35,16.58,4.67,24.92c1.31,8.25,2.16,16.56,3.21,24.85
		c0.27,2.1,0.58,4.2,0.84,6.31c1.38,11.22,2.65,22.45,4.18,33.65c0.66,4.83,1.6,9.65,2.87,14.35c2.34,8.66,5.21,17.1,9.83,24.92
		c1,1.7,0.2,4.5,0.12,6.79c-0.01,0.39-0.55,0.81-0.92,1.14c-7.31,6.75-5.98,14.96-4.24,23.43c0.85,4.16,1.03,8.51,1.12,12.78
		c0.42,20.43,0.79,40.86,0.98,61.3c0.05,5.26-1.02,10.55-0.84,15.8c0.21,6.21,0.98,12.43,1.96,18.57
		c1.03,6.43,2.38,12.82,3.99,19.12c1.33,5.21,2.72,10.53,5.08,15.32c1.55,3.15,4.76,5.56,7.42,8.09
		c8.47,8.03,16.26,16.57,22.66,26.41c4.9,7.52,10.54,14.55,15.61,21.96c11.92,17.42,21.29,36.11,27.47,56.33
		c2.89,9.46,5.77,18.93,8.23,28.5c1.29,5.04,1.83,10.3,2.41,15.5c0.56,5.08,1.26,10.23,0.94,15.28c-0.54,8.66-1.84,17.27-2.8,25.91
		c-0.38,3.43-0.74,6.86-1.07,10.3c-1.39,14.33-2.23,28.66-2.22,43.08c0,6.46,2.67,10.88,6.06,15.76
		c5.43,7.81,13.87,11.29,21.62,15.4c5.24,2.78,11.78,3.12,17.74,4.53c0.64,0.15,1.74-0.11,1.91,0.21c2.29,4.21,7.27,2.93,10.37,5.12
		c-0.55,1.29-1.07,2.52-1.66,3.92c-9.46,5.67-20.18,9.47-32.42,11.09c2.69,3.63,5.09,6.76,7.38,9.98
		c5.46,7.66,8.76,16.12,10.29,25.47c2.42,14.84-0.62,28.62-7.02,41.88c-1.16,2.39-2.51,4.76-4.15,6.84
		c-1.98,2.51-4.33,2.17-5.57-0.87c-1.65-4.04-2.77-8.3-4.32-12.38c-1.41-3.7-2.95-7.42-7.48-9.23c-0.52,3.54-0.83,7.03-1.57,10.42
		c-1.15,5.23-2.59,10.4-3.92,15.59c-0.16,0.62-0.25,1.63-0.63,1.78c-7.33,2.79-6.04,9.91-7.24,15.36
		c-2.53,11.52-4.83,23.18-5.93,34.9c-1.48,15.72-2.84,31.55,1.33,47.23c1.6,6-0.11,12.08-1.33,18.04c-0.62,3.02-1.44,6.01-2.27,8.99
		c-0.75,2.67-1.89,5.01-4.38,6.71c-1.96,1.34-4.03,3.08-5.02,5.13c-1.56,3.24-4.38,4.51-7.19,5.57c-7.23,2.71-14.73,4.08-22.52,4.33
		c-11.71,0.37-23.41,1.23-35.1,1.95c-8.8,0.54-17.38-0.04-26-2.45c-4.32-1.21-8.12-2.8-12.05-4.81c-1.72-0.88-5.46-1.67-7.84-0.57
		c-4.94,2.3-10.03,1.51-15.09,1.86c-1.76,0.12-3.46,1.03-5.21,1.55c-0.61,0.18-1.54,0.57-1.84,0.31c-2.53-2.19-5.31-3.03-8.56-1.98
		c-1.15-4.13-4.62-1.11-6.86-2.15c-2.75-1.27-5.8-2.03-8.79-2.57c-1.47-0.27-3.12,0.47-4.38,0.69c-0.27-0.79-0.3-1.69-0.74-2.03
		c-2.72-2.02-5.67-3.74-8.28-5.88c-2.72-2.24-6.76-3.68-6.09-8.69c-1.33,2.85-3.82,5.06-2.77,8.72c-0.75-0.64-1.49-1.29-2.18-1.88
		c-2.03,1.12-3.94,2.38-6.02,3.27c-3.9,1.66-6.64,0.16-6.94-4.09c-0.4-5.75-0.18-11.51,2.73-16.78c1.75-3.19,4.33-6.26,4.93-9.66
		c0.56-3.2,2.92-3.9,4.53-5.6c2.66-2.81,5.17-5.56,7.28-8.96c3.83-6.18,8.87-11.27,16.5-13.43c5.68-1.61,11.56-3.53,15.41-8.65
		c1.72-2.29,3.47-4.6,4.88-7.09c5.69-10.05,13.97-16.15,25.19-19.55c4.77-1.45,9.07-6.32,12.29-10.6
		c7.6-10.13,12.11-21.82,15.32-34.1c3.04-11.61,6.78-23.03,10.15-34.56c2.73-9.33,5.55-18.64,7.98-28.06
		c2.44-9.43,4.95-18.9,6.45-28.51c0.7-4.51-0.34-9.53-1.56-14.05c-2.15-7.98-4.91-15.8-7.66-23.6
		c-5.4-15.32-10.51-30.76-16.57-45.81c-8.65-21.45-18.1-42.58-27.11-63.89c-3.47-8.2-6.64-16.53-9.99-24.78
		c-3.72-9.17-7.66-18.25-11.2-27.49c-4.37-11.38-8.47-22.86-12.59-34.34c-1.59-4.43-3-8.92-4.31-13.44
		c-1.41-4.87-5.85-6.9-9.09-10.03c-3.99-3.85-8.34-7.35-12.13-11.39c-5.14-5.48-9.27-11.77-13.18-18.19
		c-4.8-7.88-6.12-16.77-7.31-25.67c-1.09-8.12-2.05-16.25-2.95-24.4c-0.49-4.41-0.99-8.85-0.99-13.28c0-5.75-3.45-9.68-6.26-14.14
		c-6.46-10.26-14.11-19.86-17.87-31.68c-1.28-4.01-2.91-7.94-4.72-11.74c-0.58-1.21-2.15-2.43-3.48-2.72
		c-11.83-2.63-22.93-7.23-33.95-12.1c-1.57-0.7-3.44-0.98-4.72-2c-2.28-1.82-2.43-4.56-1.95-7.26c1.27-7.22,1.7-14.75,4.11-21.57
		c2.78-7.88,1.88-15.72,1.55-23.47c-0.44-10.44-2.31-20.82-3.59-31.22c-0.72-5.85-1.65-11.68-2.17-17.54
		C540.87,1093.05,540.01,1081.22,539.02,1068.76z M363.44,223.17c-1.06,0.08-2.22-0.04-3.25,0.28c-11.66,3.6-23.29,7.21-34.35,12.53
		c-3.42,1.65-5.85,3.87-7.42,7.11c-3.38,7.01-4.89,14.18-3.67,22.17c1.4,9.18,3.99,17.74,9.27,25.34c2.61,3.76,5.74,7.15,8.56,10.76
		c3.3,4.21,7.68,7.09,12.7,8.23c3.72,0.85,7.88,2.94,11.5-1.73c5.61-7.24,10.99-14.59,15.35-22.61c1.81-3.32,4.53-6.63,3.72-10.84
		c-0.84-4.29-1.7-8.63-3.15-12.74c-2.91-8.26-6.88-16.18-7.94-25.03C364.26,232.27,363.9,227.86,363.44,223.17z"/>
</g>
</svg>
