<?xml version="1.0" encoding="utf-8"?>
<!-- Generator: Adobe Illustrator 24.0.2, SVG Export Plug-In . SVG Version: 6.00 Build 0)  -->
<svg version="1.1" id="Layer_1" xmlns="http://www.w3.org/2000/svg" xmlns:xlink="http://www.w3.org/1999/xlink" x="0px" y="0px"
	 width="939.26" height="1081.99" viewBox="0 0 939.26 1081.99" style="enable-background:new 0 0 939.26 1081.99;" xml:space="preserve">
<g>
	<path d="M631.38,264.17c3.23,1.15,6.65,2.67,10.22,3.53c2.54,0.61,3.39,2.17,4.88,4.02c2.49,3.1,6.22,5.3,9.66,7.51
		c14.91,9.57,21.61,24.78,27.92,40.27c0.17,0.41-0.04,0.97-0.12,2.07c-0.68-1.08-1.18-1.69-1.48-2.39
		c-0.32-0.74-0.45-1.57-0.87-3.12c-0.34,1.41-0.52,2.12-0.94,3.84c-1.4-3.92-2.65-7.01-3.6-10.2c-2.31-7.78-7.4-13.66-13.25-18.84
		c-9.22-8.16-20.01-13.84-31.28-18.62c-0.76-0.32-1.61-0.97-2.3-0.84c-4.39,0.82-7.16-1.81-10.02-4.38
		c-0.7-0.63-1.57-1.09-2.88-1.97c-0.11,1.66-0.31,2.73-0.24,3.78c0.56,7.88,0.3,15.66-2.83,23.07c-0.71,1.69-0.28,2.48,1.37,3.48
		c9.77,5.93,16.98,14.51,23.76,23.51c6.51,8.64,13.11,17.22,19.66,25.84c0.49,0.64,1.12,1.36,1.2,2.09
		c0.75,6.76,5.86,11.08,9.15,16.4c4.86,7.86,10.01,15.55,14.68,23.52c4.02,6.85,7.45,14.05,11.32,20.99
		c7.16,12.84,13.26,26.22,21.18,38.68c8.27,13.01,14.28,27.19,18.61,42.06c0.53,1.81,2.18,3.3,3.33,4.92
		c0.55,0.77,1.33,1.42,1.72,2.26c2.72,5.94,5.28,11.96,8.08,17.86c1.32,2.79,2.91,5.51,4.72,8c0.5,0.7,2.4,0.96,3.39,0.62
		c3.91-1.31,7.87-2.64,11.52-4.53c3.48-1.8,6.35-1.88,9.62,0.41c4.07,2.86,8.78,4.12,13.61,5.49c7.21,2.05,14.61,4.77,18.08,12.64
		c1.01,2.28,2.42,4.41,3.19,6.76c3.05,9.26,10,15.55,16.57,22.15c0.35,0.35,0.7,0.82,1.14,0.93c4.98,1.3,7.45,5.43,10.48,9.01
		c1.44,1.71,3.29,3.34,5.3,4.25c6.54,2.96,8.86,9.26,11.72,14.88c2.34,4.6,3.35,9.87,4.94,14.85c0.15,0.47,0.38,0.98,0.31,1.43
		c-0.33,1.9-0.12,4.59-1.28,5.48c-2.11,1.62-3.32-1.18-4.72-2.39c-7.95-6.87-13.36-15.7-18.97-24.41c-1.74-2.71-4.37-4.83-6.37-7.39
		c-4.29-5.48-7.98-11.53-12.78-16.5c-4.77-4.93-10.3-9.29-16.07-13.02c-6.24-4.04-13.62-2.43-20.48-1.77
		c-4.32,0.42-5.92,6.65-3.07,11.1c2.6,4.06,5.45,7.99,8.53,11.7c3.25,3.91,7.99,6.11,12.8,5.66c7.4-0.7,11.92,3.44,16.63,7.76
		c1.47,1.35,2.69,3.02,4.27,4.2c3.01,2.24,2.31,5.44-2.02,6.17c-3.22,0.55-6.68,0.31-9.94-0.16c-4.36-0.64-8.61-2.03-12.96-2.76
		c-6.67-1.12-9.52-6.65-13.3-11.09c-2.44-2.87-4.61-5.96-7.75-8.58c0.18,0.98,0.2,2.03,0.57,2.94c4.21,10.34,8.51,20.63,12.69,30.98
		c2.64,6.52,5.01,13.15,7.69,19.64c3.23,7.82,6.86,15.48,9.96,23.35c5.18,13.15,9.88,26.49,15.16,39.6
		c3.86,9.6,8.33,18.96,12.52,28.43c0.4,0.89,1.21,1.83,1.12,2.67c-1.28,12.24,6.1,21.94,9.6,32.76c1.91,5.91,3.98,11.85,6.83,17.34
		c2.28,4.41,4.39,8.7,5.18,13.64c0.15,0.91,1.22,2.13,2.1,2.39c3.04,0.89,2.44,3.24,2.65,5.4c0.13,1.4,0.08,3.22,0.91,4.09
		c3.38,3.53,4.53,8.03,6.21,12.36c3.97,10.2,8.2,20.31,12.31,30.46c5.88,14.53,11.78,29.05,17.55,43.63
		c0.99,2.49,1.07,5.35,2.07,7.83c3.41,8.43,7.08,16.74,10.58,25.13c4.05,9.73,8.16,19.44,11.96,29.26
		c2.67,6.9,4.62,14.07,7.36,20.94c2.26,5.66,5.23,11.03,7.85,16.55c0.4,0.84,0.64,1.75,0.99,2.72c-7.13,0.3-12.98-1.95-18.63-5.86
		c-6.27-4.34-13.45-7.37-19.71-11.73c-8.04-5.6-15.71-11.76-23.23-18.06c-7.81-6.54-15.64-13.13-22.7-20.44
		c-5.07-5.26-11.29-9.09-16.17-14.57c-4.91-5.5-10.63-10.28-15.91-15.46c-8.78-8.62-17.65-17.16-26.16-26.04
		c-5.34-5.58-9.98-11.81-15.14-17.56c-2.36-2.63-5.49-4.57-7.83-7.21c-11.73-13.23-23.37-26.56-34.92-39.95
		c-2.57-2.97-4.53-6.46-7.02-9.5c-1.36-1.66-2.44-4.13-5.73-3.58c4.4,26.13,8.78,52.15,13.17,78.17c-0.28,0.18-0.56,0.37-0.84,0.55
		c-2.8-2.79-5.66-5.53-8.4-8.37c-5.2-5.39-10.24-10.94-15.53-16.24c-6.08-6.08-12.58-11.74-18.49-17.97
		c-6.94-7.31-13.39-15.08-20.15-22.56c-3.41-3.77-7.36-7.08-10.51-11.03c-7.46-9.37-15.65-18.21-20.9-29.23
		c-1.37-2.88-4.15-5.05-2.42-8.6c-7.91,0-15.67,0.34-23.39-0.09c-7.72-0.43-15.44-1.41-23.37-4.99c-0.7,2.58-1.5,5.01-1.99,7.49
		c-1.31,6.61-2.09,13.35-3.8,19.84c-3.57,13.53-7.78,26.89-11.34,40.43c-0.98,3.71-0.81,7.77-0.82,11.68
		c-0.02,8.02-2.93,16.35,1.77,23.93c2.15,3.46,1.47,5.71-0.7,9.09c-2.87,4.47-4.21,9.92-6.21,14.96c-0.71,1.81-1.51,3.59-2.08,5.44
		c-0.42,1.37-1.04,2.96-0.71,4.22c0.92,3.51-0.43,6.4-1.42,9.61c-0.89,2.9-0.59,6.22-0.52,9.34c0.06,2.62,0.59,5.23,0.83,7.86
		c0.69,7.35,1.16,14.72,2.07,22.04c0.67,5.4,1.75,10.77,2.95,16.08c0.6,2.65,1.83,5.16,2.85,7.71c1.14,2.84,2.22,5.73,3.6,8.45
		c1.05,2.06,2.35,4.06,3.88,5.79c1.65,1.85,3.69,3.36,5.35,4.83c-1.23,3.28,0.17,10.48,2.09,10.43c5.1-0.12,8.41,5.25,13.52,3.91
		c2.22-0.58,4.26-1.84,6.23-2.72c0.36,2.22,0.88,5.22,1.32,8.22c0.07,0.45-0.1,1.02-0.34,1.42c-3.41,5.82-5.82,12.37-13.27,14.74
		c-7.65,2.43-14.64,6.01-20.32,12.1c-3.39,3.63-7.49,2.91-11.68,0.43c-4.82-2.86-10.05-5.05-15.17-7.39
		c-3.51-1.61-5.4-3.64-5.51-8.05c-0.14-5.47-1.94-10.88-2.66-16.36c-0.4-3.05-0.07-6.19-0.07-9.38c7.59,2.28,7.59,2.28,8.79-1.37
		c-0.88,0.06-1.68,0.12-2.58,0.18c0-0.77-0.06-1.25,0.02-1.7c0.05-0.31,0.25-0.62,0.44-0.89c3.41-4.92,5.84-9.62,5.56-16.38
		c-0.47-11.11,1.65-22.3,1.87-33.48c0.21-10.45-0.6-20.92-1.02-31.38c-0.26-6.59,0.35-13.29-2.19-19.61
		c-0.49-1.23-1.19-2.47-2.1-3.41c-3.8-3.89-7.82-7.56-11.55-11.51c-1.67-1.76,0.54-8.48,2.83-11.38c5.32-6.73,9.72-13.94,8.72-23.08
		c-0.16-1.45-0.3-3.19-1.15-4.25c-7.25-9.03-11.37-19.85-17.21-29.65c-7.56-12.68-11.86-26.61-17.81-39.89
		c-3.1-6.93-3.55-14.4-6.69-21.14c-0.61-1.3-1.18-2.62-1.93-4.28c-3.47,9.47-6.48,18.54-10.11,27.37
		c-3.78,9.2-8.17,18.14-12.25,27.22c-0.33,0.72-0.52,1.62-0.44,2.4c0.78,7.3-2.99,13.12-6.12,19.16
		c-3.28,6.34-6.55,12.69-9.78,19.05c-0.36,0.71-0.44,1.55-0.81,2.93c4.82,0.72,9.38,1.81,13.97,1.96c3.44,0.11,4.92,1.6,5.19,4.56
		c0.23,2.45,0.33,5.04-0.19,7.41c-1.24,5.67-2.95,11.24-4.32,16.89c-0.71,2.9-1.17,5.87-1.63,8.82c-2.05,13.14-2.78,26.29-2.1,39.65
		c0.39,7.73,1.83,15.21,2.84,22.78c0.97,7.22,2.92,14.32,4.81,21.38c1.13,4.22,2.98,8.24,4.45,12.37c0.91,2.56,1.67,5.17,2.59,7.72
		c0.42,1.16,1.03,2.27,1.65,3.34c0.38,0.65,1.22,1.13,1.39,1.8c1.75,6.75,8.35,10.44,10.64,16.97c0.42,1.19,4.04,1.26,6.69,1.98
		c-1.59,1.73-3.51,3.36-4.85,5.37c-1.96,2.95-3.69,6.08-5.2,9.29c-2.32,4.94-6.36,8.94-7.11,14.79c-1.05,8.23-2.89,16.35-4.11,24.56
		c-0.63,4.26-1.93,5.78-5.64,4.12c-9.28-4.15-17.06-0.34-24.89,3.89c-8.62,4.66-17.23,9.32-25.85,13.96
		c-2.8,1.51-5.51,1.31-8.61,0.43c-4.91-1.39-10.01-2.39-15.09-2.8c-8.45-0.68-16.96-0.69-25.43-1.16c-2.22-0.12-4.41-0.9-6.98-1.46
		c1.38-6.08,5.42-8.67,10.22-9.6c8.3-1.61,16.72-2.65,25.11-3.74c4.8-0.62,8.92-2.22,12.27-5.9c1.27-1.4,3.27-2.17,5-3.11
		c0.71-0.38,1.91-0.2,2.33-0.72c1.28-1.57,2.9-3.27,3.17-5.11c0.14-0.95-2.09-2.81-3.58-3.34c-4.05-1.47-8.28-2.45-12.44-3.62
		c-7.93-2.24-15.76-4.91-23.81-6.58c-6.14-1.27-12.54-1.26-18.83-1.85c-2.25-0.21-4.5-0.49-7.53-0.82
		c6.02-5.63,12.97-7.08,19.54-9.09c6.15-1.88,12.59-2.82,18.84-4.41c2.02-0.51,4.3-1.36,5.66-2.8c2.6-2.75,5.23-2.14,7.93-0.89
		c6.36,2.94,12.79,5.78,18.89,9.21c3.48,1.96,7.26,3.29,10.75,5.3c3.5,2.02,8.57,1.31,12.04,1.69c3.78-5.33,7.07-9.78,10.14-14.39
		c1.47-2.2,2.55-4.67,3.71-7.07c0.17-0.36-0.28-0.98-0.36-1.5c-0.22-1.37-1-3.1-0.45-4.04c0.91-1.54,1.89-2.54-0.04-3.91
		c-0.28-0.2-0.4-1.05-0.21-1.39c3.38-6.01-1.28-11.76-0.56-17.67c0.05-0.42-0.59-0.94-0.51-1.34c1.6-8.17-3.97-14.91-4.44-22.79
		c-0.46-7.76-1.71-15.65-3.95-23.08c-2.5-8.31-3.87-16.82-6.11-25.12c-1.51-5.59-4.8-10.94-8.27-15.7
		c-2.86-3.94-5.81-7.64-7.25-12.35c-0.34-1.1-0.82-2.21-1.48-3.15c-1.68-2.37-3.31-2.39-5.1,0c-2.88,3.85-5.63,7.81-8.47,11.69
		c-0.46,0.63-1.12,1.1-2.54,2.46c-1.28-5.79-2.44-10.8-3.49-15.83c-0.98-4.72-1.94-9.45-2.74-14.2c-0.86-5.18-1.76-10.38-2.19-15.61
		c-0.26-3.24-1.34-5.15-4.53-6.18c-1.95-0.63-3.96-1.84-5.35-3.34c-5.3-5.72-10.14-11.89-15.59-17.47
		c-4.16-4.26-9.02-7.83-13.47-11.82c-1.71-1.53-3.55-3.14-4.65-5.09c-5.8-10.27-11.38-20.66-17.04-31
		c-1.88-3.44-3.76-6.87-6.1-11.13c-1.9,4.02-4.13,5.96-7.44,7.55c-3.81,1.82-6.51,5.86-9.92,8.66c-2.6,2.13-5.54,3.85-8.35,5.72
		c-0.53,0.36-1.3,0.43-1.73,0.86c-10.69,10.54-23.41,18.51-35.17,27.7c-3.44,2.69-6.77,5.73-10.63,7.61
		c-5.52,2.68-9.21,7.73-14.99,10.17c-3.9,1.65-6.82,5.55-10.32,8.25c-5.39,4.16-10.92,8.15-16.37,12.24
		c-6.54,4.9-13.02,9.88-19.59,14.74c-3.02,2.24-6.2,4.25-9.26,6.43c-6.14,4.37-13.59,6.76-18.96,12.24c-2.1,2.14-3.76,4.74-5.53,7.2
		c-1.21,1.69-2.3,3.34-4.84,2.62c-0.51-0.15-1.58,0.13-1.74,0.5c-2.31,5.14-8.67,5.71-11.47,10.28c-0.75,1.23-1.85,2.25-2.75,3.31
		c-3.87-0.58-4.81,3.5-7.18,5.28c-2.35,1.77-4.29,4.09-6.91,6.65c-3.56-0.23-3.71,0.4-5.63,5.13c-0.75,1.83-3.87,2.73-5.95,3.98
		c-1.14,0.69-2.68,0.96-3.47,1.9c-1.97,2.34-3.57,5-5.44,7.44c-0.68,0.89-1.61,1.99-2.58,2.19c-1.93,0.39-3.01,1.15-3.16,3.17
		c-0.03,0.43-0.39,1.04-0.76,1.21c-7.46,3.46-10.49,11.7-17.06,15.91c-3.61,2.32-5.26,6.84-9.75,7.91
		c-0.31,0.07-0.78,0.25-0.83,0.47c-1.01,4.24-5.17,5.56-7.67,8.4c-2.26,2.57-4.17,5.43-6.37,8.06c-1.6,1.91-3.06,3.62-5.73,4.79
		c-2.81,1.23-4.53,4.95-6.79,7.66c-0.37-3.38-1.15-7.03-1.1-10.68c0.2-14.58,0.61-29.16,1.05-43.73c0.12-3.79,0.57-7.57,1.07-11.33
		c0.14-1.04,1.12-1.94,1.55-2.98c1.24-2.97,2.86-5.97-0.03-8.96c-0.28-0.29-0.42-0.87-0.38-1.29c0.54-5.7,0.91-11.42,1.76-17.08
		c1.33-8.85,2.96-17.67,4.54-26.48c0.72-3.99,1.54-7.97,2.52-11.91c0.36-1.43,1.32-2.71,1.98-4.06c0.33-0.68,0.97-1.42,0.89-2.06
		c-1.4-11.63,3.09-22.23,5.76-33.12c2.6-10.6,5.25-21.2,8.28-31.68s6.85-20.75,9.76-31.26c1.43-5.16,4.4-9.99,3.87-15.69
		c-0.09-1,0.68-2.12,1.18-3.12c2.25-4.5,4.89-8.84,6.74-13.5c1.91-4.82,2.75-10.05,4.59-14.9c3.21-8.48,5.32-17.41,10.37-25.18
		c1.35-2.07,1.2-5.05,2.13-7.45c3.99-10.33,8.05-20.64,12.25-30.89c3.72-9.09,8.09-17.94,11.34-27.19
		c2.49-7.08,6.54-13.41,8.6-20.71c1.49-5.27,4.53-10.12,6.97-15.11c1.59-3.25,3.51-6.35,5.02-9.63c3.01-6.51,5.71-13.16,8.78-19.64
		c3.8-8,7.69-15.96,11.84-23.79c2.69-5.07,6.12-9.75,8.81-14.82c1.96-3.7,3.1-7.84,4.88-11.65c2.26-4.82,4.77-9.52,7.24-14.23
		c1.5-2.85,2.47-6.77,4.87-8.19c4.62-2.73,4.34-7.47,6.4-11.2c2.88-5.23,5.96-10.31,8.53-15.75c2.77-5.84,7.28-10.83,10.93-16.27
		c1.08-1.61,1.79-3.46,2.66-5.21c-0.29-0.32-0.59-0.64-0.88-0.97c-6.4,2.33-12.8,4.62-19.18,6.99c-2.18,0.81-4.22,2-6.42,2.69
		c-5.19,1.64-10.35-1.52-11.43-6.91c-0.68-3.39-2.37-5.9-5-8.3c-4.74-4.32-10.23-7.11-15.92-9.73c-1.17-0.53-2.14-1.49-3.22-2.21
		c-0.67-0.44-1.36-1.12-2.08-1.16c-8.54-0.42-16.98-0.08-24.84,3.88c-1.16,0.59-2.19,1.42-3.3,2.13c-1.79,1.13-3.47,2.54-5.4,3.32
		c-3.97,1.59-7.86,3.68-11.75,4.98c-6.41,2.14-11.52,6.4-17.63,8.87c-3.31,1.34-6.28,3.51-9.34,5.27c-2.77-3.84-3.26-7.14-0.91-9.34
		c4.96-4.63,9.83-9.56,15.53-13.09c4.48-2.78,10.11-3.79,15.3-5.34c6.1-1.83,12.29-3.39,18.44-5.06c2.61-0.71,5.56-2.5,7.78-1.85
		c5.23,1.53,9.9-0.39,14.79-0.93c1.11-0.12,2.18-0.61,3.29-0.83c2.06-0.41,3.91-4.18,6.38-0.35c0.23,0.35,2.51-0.32,3.64-0.9
		c4.4-2.26,8.8-4.13,12.34-8.21c3.92-4.52,9-8.7,14.43-11.06c4.67-2.04,9.83,0.98,14.1,4.04c4.9,3.5,6.5,8.12,5.91,14.08
		c-0.69,7.03,2.18,10.81,9.09,12.82c2.66,0.77,5.5,0.95,7.31,1.25c2.26-3.44,5.02-6.12,5.91-9.31c2.03-7.2,7.31-12.12,11.17-18.03
		c1.68-2.57,2.98-5.27,5.91-7c1.59-0.93,2.82-3.33,3.23-5.28c1.86-8.9,2.07-17.79-1.78-26.33c-1.01-2.24-1.89-4.72-3.49-6.5
		c-8.69-9.7-17.95-18.71-29.65-24.94c-5.26-2.8-10.08-6.43-15.05-9.76c-3-2.02-4.05-4.67-3.18-8.43c0.66-2.87,0.2-5.97,0.46-8.95
		c0.44-5.08,1.02-10.15,1.61-15.21c0.68-5.79,1.4-11.57,2.18-17.34c0.24-1.77,0.77-3.51,1.28-5.79c1.57,0.7,2.81,1.25,4.08,1.82
		c0.15-0.16,0.47-0.35,0.54-0.61c2.93-11.43,12.72-14.62,22.07-18.1c7.51-2.8,15.56-2.5,23.44-2.96c2.17-0.13,4.37-0.17,5.72,2.55
		c-1.01,0.56-1.96,1.15-2.95,1.64c-10.4,5.15-20.74,10.43-31.24,15.37c-5.8,2.73-8.86,7.92-10.55,13.19
		c-3.09,9.65-5.57,19.68-2.37,29.99c0.19,0.62,0.17,1.32,0.2,1.98c0.21,4.45,0.21,4.45,5.41,7.07c0-2.57,0.16-5-0.03-7.4
		c-0.49-5.97-0.08-11.79,1.63-17.59c1.01-3.44,1.12-7.13,1.83-10.68c0.35-1.78,1.18-3.37,3.41-3.6c0.6-0.06,1.31-0.54,1.7-1.04
		c6.85-8.91,16.1-14.14,26.77-16.67c7.2-1.71,14.62-2.49,21.96-3.55c1.84-0.27,3.74-0.04,5.62-0.04c0.16,0.56,0.32,1.12,0.49,1.68
		c-4.52,2.57-8.93,5.35-13.58,7.67c-6.73,3.36-14,5.8-20.35,9.73c-7,4.33-12.7,10.48-18.2,16.64c-0.89,1-1.92,2.8-1.59,3.83
		c1.7,5.33-1.71,10.04-1.46,15.15c0.09,1.82-0.15,3.66-0.15,5.49c0,5.92,2.65,9.38,8.24,11.69c4.04,1.67,7.89,3.83,12.63,6.17
		c-2.47-6.75-4.73-12.56-6.68-18.46c-0.79-2.4-1.46-5.07-1.24-7.54c0.44-5.08,1.51-10.11,2.33-15.15c0.05-0.33,0.11-0.66,0.23-0.96
		c1.91-4.62,5.98-8.13,8.55-6.88c3.82,1.86,3.01,5.73,3.3,9.18c0.7,8.28,2,16.53,2.5,24.82c0.43,7.16,2.92,13.54,5.63,20.02
		c1.51,3.6,3.85,5.06,7.39,5.54c5.55,0.76,6.32,1.83,5.13,7.42c-0.45,2.12-1.32,4.14,1.06,6.46c1.88-2.59,3.47-5.15,5.43-7.39
		c2.68-3.07,5.96-5.65,8.37-8.89c2.09-2.81,3.21-6.31,4.96-9.39c1.94-3.43,4.85-12.97,4.31-17.03c-1.56-11.7,3.72-20.23,11.98-27.64
		c1.23-1.1,1.71-3.05,2.53-4.6c-0.38-0.31-0.76-0.62-1.15-0.93c-1.88,1.42-3.76,2.83-5.66,4.26c-1.88-2.09-1.01-3.68,0.98-5.46
		c4.87-4.34,9.49-8.97,14.39-13.27c1.53-1.34,3.72-1.9,5.46-3.05c0.84-0.56,1.33-1.64,1.97-2.49c-0.23-0.28-0.46-0.55-0.69-0.83
		c-6.9,0.82-13.79,1.64-20.69,2.47c-0.15-0.56-0.3-1.12-0.44-1.69c12.16-5.92,24.32-11.83,36.49-17.75
		c0.01-0.39,0.01-0.78,0.02-1.16c-1.26-0.28-2.51-0.71-3.78-0.82c-2.1-0.18-4.4,0.44-5.49-2.32c-0.18-0.45-1.47-0.73-2.19-0.64
		c-11.87,1.39-21.56-3.87-30.73-10.31c-7.86-5.53-15.42-11.54-20.42-19.97c-2.28-3.84-3.93-8.06-5.88-12.12
		c2.78-2.15,4.29-2.24,6.12,0.32c6.14,8.64,14.55,14.84,23.34,20.48c2.11,1.35,4.8,1.96,7.32,2.45c2.5,0.49,3.88-1.12,3.16-3.47
		c-3.27-10.61,1.91-18.85,7.7-26.67c1.55-2.1,4.95-3.62,7.66-3.91c5.58-0.61,11.3-0.63,16.89-0.11c5.06,0.47,8.81-0.57,11.25-5.23
		c0.84-1.6,2.07-2.99,2.99-4.56c2.85-4.83,3.25-4.95,6.55-3.14c5.4-4.52,10.31-8.64,15.71-13.16c-7.26-0.98-12.9-4.11-16.98-9.69
		c-5.76-7.88-9.71-16.41-9.22-26.49c0.08-1.66-0.05-3.34,0.03-5c0.29-5.85,1.94-11.04,6.56-15.1c4.19-3.68,8.29-7.4,13.77-9.34
		c-7.23,5.37-14.28,10.23-16.83,20.02c-2.47,9.51-0.9,18.19,2.72,26.37c3.7,8.37,9.53,15.59,20.39,16.33
		c-0.29,0.12-0.1,0.1,0.01-0.01c0.78-0.83,1.54-1.67,2.68-2.92c-3.59-4.82-10.41-8.31-7.69-17.02c0.78,2.31,1.3,3.87,1.96,5.81
		c0.5-1.33,1.15-2.34,1.24-3.39c0.71-8.65,6.75-14.12,12.59-19.05c5.55-4.69,12.42-7.8,18.72-11.6c0.3,0.51,0.61,1.02,0.91,1.54
		c-3.15,1.89-6.29,3.81-9.46,5.66c-9.57,5.57-16.66,13.18-19.46,24.13c-0.72,2.81-0.68,5.81-0.49,8.99
		c10.42-8.2,17.72-19.79,30.25-25.89c0.18,1.53,0.29,2.47,0.42,3.59c0.46-0.24,0.89-0.37,1.19-0.64c10.6-9.55,20.96-19.4,31.86-28.6
		c9.21-7.78,18.94-14.97,28.63-22.16c18.61-13.8,38.33-25.94,58.68-36.93C589,24.53,601.05,19.8,612.96,15
		c14.89-6,30.48-9.77,46.25-12.57c7.65-1.36,15.51-2.69,23.19-2.34c10.32,0.47,20.91-0.32,30.92,3.42c0.31,0.12,0.64,0.39,0.92,0.35
		c7.32-0.98,12.56,3.75,18.47,6.67c2.33,1.15,4.79,2.04,7.17,3.07c0.6,0.26,1.53,0.52,1.67,0.98c1.6,5.19,6.54,7.23,10.03,10.57
		c3.38,3.24,5.16,7.12,6.46,11.34c1.21,3.94,1.66,8.14,3.13,11.97c4.41,11.52,1.64,22.86-0.79,34.07
		c-1.97,9.07-4.94,17.95-7.77,26.81c-0.82,2.57-0.35,4.23,1.66,5.55c10.63,7.02,17.43,17.3,23.91,27.87
		c2.48,4.05,4.92,8.13,7.44,12.15c4.08,6.51,6.55,13.66,8.79,20.95c0.94,3.05,2.93,5.83,3.57,8.91c1.07,5.13,1.77,10.39,2.04,15.62
		c1.41,26.75-4.37,52.33-13.08,77.38c-5.54,15.92-13.57,30.66-21.46,45.47c-2.77,5.21-5.03,10.69-7.86,15.87
		c-3.61,6.61-7.79,12.91-11.33,19.55c-8.94,16.77-16.37,34.16-20.03,52.93c-0.41,2.09-0.05,4.32-0.09,6.48
		c-0.05,2.26-0.16,4.52-0.24,6.77c-0.56,0.16-1.12,0.32-1.68,0.48c-0.96-1.65-2.17-3.21-2.83-4.98c-1.27-3.39-2.15-6.94-3.4-10.34
		c-0.24-0.65-1.47-0.94-1.78-1.12c-1.38-3.69-2.44-7.46-4.13-10.93c-7.49-15.36-14.53-30.87-18.5-47.6
		c-2.86-12.08-2.23-23.81,1.18-35.87c4.22-14.91,12.83-27.37,20.28-40.49c10.97-19.33,22.21-38.51,28.47-60.04
		c3.04-10.48,5.35-21.2,4.46-32.17c-1.08-13.33-4.08-26.09-14.54-36.23c-1.39,1.71-2.76,3.28-3.99,4.95
		c-5.48,7.42-10.49,15.24-16.48,22.22c-10.03,11.69-20.35,23.19-31.16,34.16c-10.93,11.09-22.64,21.41-33.94,32.15
		c-4.15,3.94-8.22,7.98-12.12,12.16C632.6,254.6,630.02,258.46,631.38,264.17z M467.31,127.24c2.73-0.79,4.77-1.07,6.51-1.94
		c9.88-4.96,20.52-7.59,31.05-10.64c10.68-3.09,21.13-6.96,31.79-10.1c9.08-2.67,18.28-4.94,27.5-7.1
		c16.33-3.83,32.58-8.32,49.11-10.94c23.71-3.76,47.67-4.21,71.59-1.33c2.19,0.26,3.58-0.1,5.08-1.93
		c7.41-9.06,12.87-19.21,16.58-30.21c3.78-11.21,0.27-21.72-9.4-28.85c-12.43-9.16-26.14-10.28-40.67-8.16
		c-1.29,0.19-2.75,0.38-3.93-0.03c-6.26-2.18-12.02,0.2-17.59,2.19c-10.37,3.71-20.48,8.18-30.77,12.13
		c-2.55,0.98-5.62,0.7-8.07,1.84c-6.7,3.12-13.19,6.69-19.77,10.07c-6.37,3.27-12.77,6.47-19.09,9.83
		c-3.18,1.69-6.64,3.22-9.18,5.64c-3.13,2.99-5.88,5.95-10.58,6.29c-1.18,0.09-2.22,1.73-3.36,2.62c-2.68,2.09-5.1,5.19-8.13,6
		c-5.61,1.49-9.26,5.52-13.46,8.73c-3.94,3.02-7,7.18-10.53,10.75c-3.82,3.87-7.61,7.79-11.66,11.41
		c-5.23,4.67-9.13,10.67-15.62,14.16C471.51,119.37,468.3,122.23,467.31,127.24z M534.21,179.54c-0.26-0.34-0.19-0.15-0.05-0.08
		c5.2,2.49,12.03,0.11,16.29,5.44c4.21-1.32,5.78,2.36,7.88,4.49c6.07,6.17,13.77,9.72,21.15,13.81c0.32,0.18,0.9-0.09,1.59-0.19
		c-0.75-8.95,2.72-16.76,6.44-24.45c1.06-2.19,2.43-4.34,4.07-6.13c5.76-6.32,11.67-12.51,17.58-18.7
		c8.92-9.34,19.5-16.69,29.51-24.74c8.56-6.88,16.61-14.39,24.88-21.64c0.47-0.41,0.81-0.98,1.54-1.88
		c-6.45-0.76-12.42-1.87-18.42-2.08c-9.81-0.34-19.63-0.13-29.45-0.06c-2.1,0.01-4.34,1.01-6.26,0.54
		c-3.76-0.93-7.41-0.51-11.11-0.18c-2.63,0.24-5.26,0.51-7.89,0.83c-5.8,0.7-11.69,1-17.36,2.26c-12.47,2.76-25.32,3.6-37.43,8.32
		c-11.27,4.39-22.95,7.73-34.36,11.75c-2.02,0.71-3.65,2.52-5.45,3.83c0.15,0.42,0.29,0.85,0.44,1.27c1.59-0.19,3.31-0.87,4.73-0.47
		c8.51,2.41,17.42,3.87,24.92,8.94c3.38,2.29,6.5,5.09,9.29,8.08c4.98,5.33,7.03,11.63,3.97,18.66
		C538.87,171.34,536.47,175.27,534.21,179.54z"/>
</g>
</svg>
