<?xml version="1.0" encoding="utf-8"?>
<!-- Generator: Adobe Illustrator 24.0.2, SVG Export Plug-In . SVG Version: 6.00 Build 0)  -->
<svg version="1.1" id="Layer_1" xmlns="http://www.w3.org/2000/svg" xmlns:xlink="http://www.w3.org/1999/xlink" x="0px" y="0px"
	 viewBox="0 0 3536.92 2935.96" style="enable-background:new 0 0 3536.92 2935.96;" xml:space="preserve">
<g>
	<path d="M2833.71,2667.55c-2.03,5.92-3.3,9.61-4.57,13.31c-4.38,1.61-8.04-3.54-13-0.9c-2.34,1.24-6.58-0.08-9.56-1.25
		c-7.43-2.91-14.84-6.01-21.9-9.73c-31.35-16.53-60.97-35.65-87.38-59.46c-23.78-21.44-46.8-43.62-67.71-67.94
		c-8.68-10.1-18.24-19.45-27.07-29.43c-8.83-9.97-17.37-20.07-21.62-33.24c-2.64-8.19-8.25-13.21-20.87-23
		c-3.68,2.26-2.18,5.86-1.84,8.78c3.84,33.2,3.84,66.52,3.58,99.86c-0.16,20.09-2.54,39.9-7.87,59.29
		c-2.65,9.65-6.23,19.01-11.87,27.4c-6.82,10.13-17.1,12.87-27.83,6.88c-46.78-26.09-90.27-56.68-128.33-94.61
		c-3.3-3.29-6.25-6.93-9.59-10.19c-1.33-1.29-3.25-1.98-5.03-3.01c-3.73,6.31-3.32,13.14-4.4,19.65
		c-4.23,25.62-8.09,51.31-12.97,76.81c-1.86,9.71-5.58,19.18-9.45,28.34c-2.56,6.04-6.61,11.54-10.54,16.88
		c-4.54,6.18-10.91,9.18-18.71,10.09c-18.8,2.2-37.2,0.6-55.46-4.11c-31.13-8.02-60.75-19.82-89.05-35
		c-8.8-4.72-17.53-9.59-26.44-14.11c-2.9-1.47-6.21-2.23-9.41-2.94c-1-0.22-2.67,0.48-3.32,1.32c-0.67,0.86-0.71,2.43-0.55,3.63
		c0.17,1.28,0.82,2.53,1.4,3.71c6.75,13.75,13.42,27.55,20.36,41.21c2.09,4.12,4.75,8.01,7.49,11.75
		c7.08,9.68,14.22,19.33,21.62,28.77c3.25,4.14,7,7.95,10.85,11.55c6.38,5.97,12.09,12.56,15.04,20.74
		c1.93,5.36,5.53,8.81,9.09,12.77c6.21,6.9,12.6,13.88,17.47,21.73c13.02,21.01,23.31,43.43,30.97,66.95
		c2.88,8.83,5.46,17.87,4.98,27.4c-0.34,6.77-4.75,11.03-11.67,10.8c-3.32-0.11-6.71-0.27-9.91-1.04
		c-19.44-4.64-38.9-9.33-57.32-17.28c-7.31-3.16-15.06-6.21-21.09-11.16c-8.75-7.18-18.4-10.24-29.24-11.2
		c-3.38,2.09-2.75,5.67-2.92,8.77c-0.76,13.4-3.37,26.43-7.85,39.05c-1.54,4.35-3.58,8.65-6.1,12.51c-4.88,7.47-12.79,9.82-21,6.82
		c-7.64-2.8-14.11-7.47-20.06-12.88c-9.45-8.61-16.94-18.83-23.4-29.76c-4.4-7.45-8.04-15.18-15.65-20.29
		c-3.91-2.63-5.43-7.39-6.34-12.13c-3.16-16.47-4.64-32.95-1.24-49.61c1.2-5.86,1.82-11.84,2.48-17.79
		c0.12-1.11-0.86-2.35-1.33-3.53c-1.19,0.41-2.63,0.52-3.51,1.28c-3.11,2.68-6.08,2.39-8.78-0.29c-7.79-7.7-12.42-17.16-15.23-27.66
		c-3.71-13.84-3.88-27.66-0.13-41.49c1.22-4.49,3.84-9,3.64-13.4c-0.56-12.75,4.76-23.1,11.86-32.97
		c-2.78-10.77-7.51-20.2-13.27-29.24c-6.09-9.55-12.1-19.16-17.8-28.94c-3.35-5.74-6.32-11.73-8.96-17.83
		c-4.2-9.68-2.85-11.43,9.19-13.24c0.57-0.09,1.08-0.56,2.49-1.32c-1.31-13.42-6.35-26.44-7.75-39.31
		c-13.26-12.62-25.8-24.53-38.31-36.47c-11.91-11.36-22.33-24.21-34.93-37.18c-1.05,3.79-1.93,5.48-1.9,7.15
		c0.11,6.66,0.45,13.31,0.83,19.96c0.11,1.96-0.06,4.61,1.09,5.74c9.49,9.41,6.43,21.16,5.76,32.09
		c-0.81,13.27-2.87,26.59-7.56,39.1c-3.42,9.12-3.56,17.24-0.74,26.82c4.24,14.42,2.27,29.36-5.31,42.6
		c-5.93,10.36-12.83,20.26-20.14,29.71c-5.68,7.35-12.2,14.21-19.18,20.34c-7.22,6.34-12.32,13.76-16.39,22.31
		c-2.85,5.98-6.79,11.44-10.17,17.18c-2.95,5.02-6.89,7.92-13.23,5.01c-8.37,15.77-16.15,30.41-23.92,45.05
		c-0.62,1.18-0.98,2.65-1.91,3.49c-9.6,8.66-14.39,20.61-21.36,31.06c-4.97,7.45-11.9,12.53-19.8,16.35
		c-3.59,1.73-7.33,3.46-11.19,4.23c-8.1,1.63-14.86,5.07-20.76,11.02c-8.33,8.4-19.34,11.36-30.62,13.46
		c-14.4,2.68-28.73,5.81-43.2,8.03c-8.02,1.23-15.41,4-23,6.47c-17.09,5.56-34.25,10.89-51.41,16.24
		c-5.76,1.8-11.62,2.85-17.71,1.76c-2.98-0.53-6.11-4.01-5.73-7.12c0.4-3.27,0.7-6.69,1.91-9.69c3.73-9.24,7.87-18.32,11.86-27.46
		c-1.81-2.83-4.17-2.07-6.7-1.16c-13.17,4.72-26.3,9.52-39.57,13.96c-7.57,2.53-15.29,4.69-23.06,6.5
		c-7.51,1.75-12.94-3.52-12.17-11.41c0.26-2.63,0.73-5.27,1.4-7.83c3.07-11.7,7.94-22.67,14.69-32.67
		c15.88-23.54,35.51-43.17,60.6-56.97c7.5-4.13,15.09-7.94,20.84-14.79c3.76-4.49,19.67-9.15,25.68-8.66
		c1.99,0.16,3.96,0.57,5.91,0.99c6.99,1.48,13.21-0.52,18.97-4.28c19.54-12.75,39.06-25.41,53.84-44.11
		c14.46-18.29,29.83-35.86,44.39-54.09c10.86-13.6,19.14-28.82,26.01-44.83c2.14-4.98,3.76-9.98,3.74-15.39
		c-0.08-28.71-2.19-57.25-7.71-85.47c-0.5-2.58-1.46-5.06-2.34-8.03c-2.18,0.72-4.82,0.75-5.59,1.97
		c-11.39,18-24.09,35.17-33.83,54.23c-7.58,14.82-15.63,29.43-24.05,43.79c-5.04,8.6-10.95,16.72-16.93,24.71
		c-5.22,6.97-11.7,12.68-19.46,16.94c-12.82,7.03-24.33,5.9-34.37-4.79c-4.96-5.28-9.57-11.3-12.73-17.78
		c-5.54-11.33-10.74-22.98-14.5-35c-9.96-31.83-16.74-64.41-21.4-97.46c-5.31-37.64-9.2-75.39-11.24-113.34
		c-0.1-1.88-0.79-3.73-1.21-5.6c-1.47,0.28-3.21,0.09-3.78,0.82c-3.69,4.71-7.58,9.35-10.57,14.5
		c-19.52,33.64-44.53,63.14-69.93,92.25c-59.33,67.98-124.36,129.99-195.97,184.98c-51.53,39.57-107.04,72.34-167.19,97.07
		c-8.06,3.32-15.58,7.46-22.77,12.35c-8.27,5.62-16.76,10.68-26.67,13.3c-5.7,1.51-10.91,4.87-16.35,7.38
		c-11.5,5.3-22.89,10.69-36.03,10.89c-3.75,0.06-7.54,2.12-11.19,3.56c-5.57,2.2-10.92,5.01-16.58,6.9
		c-7.01,2.34-14.63,3.98-21.57,1.15c-5.98-2.44-11.17-2.19-17.24-0.98c-14.37,2.87-28.91,4.88-43.66,4.74
		c-5.32-0.05-10.66,0.29-15.97,0.73c-21.91,1.81-43.81,3.76-65.72,5.59c-4.65,0.39-9.33,0.86-13.97,0.69
		c-40.68-1.53-81.15-4.95-120.67-15.46c-4.23-1.13-9.26-1.11-11.93-5.66c0.77-3.04,3.16-4.17,5.75-4.98
		c12.72-3.96,25.5-7.71,38.16-11.84c27.3-8.9,53.49-20.48,79.13-33.3c35.47-17.73,66.69-41.51,96.01-67.91
		c7.92-7.13,16.86-13.77,22.7-22.41c7.98-11.8,19.21-19.87,28.66-29.9c7.75-8.22,15.3-16.76,21.82-25.96
		c26.21-36.98,50.27-75.37,73.94-114.01c28.22-46.09,53.87-93.49,75.24-143.19c7.89-18.35,16.51-36.41,25.29-54.35
		c17-34.74,31.77-70.42,45.97-106.37c8.07-20.44,16.65-40.69,25.48-60.81c8.57-19.53,16.96-39.11,23.15-59.56
		c1.16-3.82,2.34-7.66,3.85-11.35c17.51-42.66,28.53-87.31,40.41-131.7c1.38-5.15,2.5-10.4,4.33-15.38
		c4.41-11.97,6.68-24.08,6.65-37.01c-0.03-14.07,4.14-27.59,10.64-40.22c1.52-2.94,3.09-5.86,4.29-8.15
		c-1.43-10.73-3.26-20.56-3.92-30.47c-0.66-9.9-0.14-19.88-0.14-30.52c-10.66-4.75-13.83-14.41-14.39-25.43
		c-0.82-16.21,2.09-31.9,7.71-47.01c3.47-9.35,7.53-18.53,11.98-27.45c11.18-22.4,16.21-46.39,19.25-70.96
		c1.47-11.82-0.15-22.76-9.18-31.33c-6.94-6.59-6.54-15.7-8.93-23.84c-0.52-1.76-0.11-4.01,0.49-5.83c1.02-3.16,2.2-6.35,3.88-9.19
		c6.2-10.45,4.1-20.24-1.55-30.09c-6.63-11.56-12.75-23.33-23.05-32.38c-5.6-4.92-8.61-11.22-8.34-19.44
		c0.21-6.46-2.19-12.99-3.3-19.51c-0.44-2.61-1.6-5.79-0.61-7.83c4.46-9.29,0.79-18.27-0.02-27.41
		c-4.51-51.11,10.73-95.99,43.36-135.17c5.53-6.64,11.76-12.74,19.9-16.4c4.52-2.03,10.23,0.84,10.32,5.72
		c0.08,4.6-0.59,9.22-0.94,13.83c-0.86,11.25-1.75,22.5-2.55,33.76c-0.04,0.54,0.55,1.49,1.03,1.62c1.14,0.31,2.4,0.38,3.59,0.28
		c0.57-0.05,1.13-0.67,1.61-1.13c12.93-12.19,28.48-19.46,45.35-24.34c3.17-0.92,6.22-2.2,8.79-3.13
		c6.4-12.51,12.48-24.29,18.39-36.17c0.4-0.81-0.53-2.29-0.84-3.45c-1.14,0.49-2.66,0.67-3.35,1.53c-2.05,2.52-3.66,5.41-5.75,7.89
		c-0.38,0.45-3.02,0-3.29-0.61c-1.56-3.59-3.48-7.28-3.9-11.08c-1.73-15.87,3.14-30.33,10.9-43.86c4.96-8.65,10.53-16.95,16.13-25.9
		c0.15-7.38-4.67-15.18,0.87-24.3c3.81-2.94,9.22-6.81,14.28-11.08c11.89-10.05,21.89-21.36,24.88-37.45
		c0.59-3.15,2.73-6.02,4.49-9.71c-1.23-5.86-2.59-12.31-3.99-18.93c-3.21-0.63-6.65-0.46-8.94-2.01c-1.82-1.23-2.77-4.45-3.19-6.94
		c-2.57-15.04-0.53-29.2,8.77-41.81c1.55-2.1,2.91-4.34,4.68-7c-4.98-8.79-7.25-18.33-8.52-29.01c1.78-2.14,3.54-5.05,6.01-7.08
		c17.23-14.15,30.22-31.83,42.42-50.2c4.42-6.66,9.05-13.2,13.2-20.03c8.37-13.77,18.12-26.32,30.64-36.59
		c0.94-0.77,1.27-2.27,1.79-3.23c-5.11-7.87-10.38-15.51-15.14-23.46c-3.45-5.76-5.63-12.02-4.53-19.05
		c0.4-2.57,0.32-5.34-0.14-7.91c-4.58-25.69-5.3-51.71-5.83-77.67c-0.3-14.73-6.34-25.51-17.49-34
		c-5.81-4.43-12.07-8.29-18.24-12.24c-2.79-1.79-5.93-3.05-8.75-4.81c-5.58-3.48-10.76-7.75-16.65-10.56
		c-5.33-2.54-11.38-3.55-16.86-5.16c-1.26-6.03,5.38-5.22,6.59-9c-0.56-0.78-0.99-2.06-1.84-2.46c-5.99-2.83-12.18-4.99-17.12-9.95
		c-2.67-2.68-6.93-3.83-10.53-5.53c-7.23-3.42-14.58-6.57-21.7-10.2c-2.22-1.13-5.09-3.18-5.5-5.24c-0.92-4.55-3.41-7.05-7.35-8.44
		c-12.72-4.51-23.62-12.13-34.69-19.6c-55.72-37.59-115.99-65.21-181.02-82.4c-19.4-5.13-39.17-8.19-59.04-10.09
		c-24.53-2.36-49.18-3.45-73.79-4.94c-8.65-0.52-17.32-0.83-25.98-0.83c-9.31,0-18.62,0.42-27.92,0.76
		c-9.92,0.36-19.71,2.29-29.75-0.7c-4.85-1.44-10.57-0.11-15.89,0.19c-41.14,2.29-80.97-4.86-120.11-16.78
		c-3.11-0.95-5.98-2.66-8.23-3.68c-1.91-4.4-1.09-7.62,1.19-10.19c2.18-2.45,4.7-4.82,7.52-6.46c10.92-6.37,21.7-13.12,33.11-18.49
		c41.65-19.62,84.29-36.66,129.2-47.48c3.17-0.76,6.48-1.86,9.14-3.66c15.15-10.26,32.27-15.64,49.57-20.65
		c21.88-6.34,44.33-9.24,66.96-10.83c15.27-1.07,30.59-1.54,46.02-2.29c-7.22-3.61-15.76,0.91-22.87-3.4c0.8-1,1.36-2.47,2.25-2.7
		c46.55-12.4,93.16-15.31,139.93-0.98c16.69,5.11,32.42,12.21,47.12,21.52c9,5.7,17.61,12.02,26.46,17.96
		c2.59,1.74,5.41,3.13,8.15,4.7c4.84-9.14-2.1-12.66-6.3-17.42c-0.48-0.54,0.17-2.26,0.58-3.33c0.19-0.5,1.03-0.97,1.63-1.05
		c1.3-0.17,2.66-0.22,3.96-0.06c15.42,1.93,29.89,6.87,43.24,14.71c34.12,20.04,61.5,46.54,78.34,82.96
		c0.55,1.2,1.18,2.37,1.86,3.51c0.34,0.56,0.87,1.01,1.27,1.46c2.54-1.1,4.94-2.14,7.24-3.14c4.25,2.99,2.94,7.36,2.86,11.08
		c-0.21,9.8,2.54,18.05,9.3,25.5c5.32,5.87,9.42,12.88,13.81,19.55c1.9,2.89,3.9,5.38,7.4,6.16c5.84,1.31,8.72,5.79,11.29,10.53
		c5.47,10.09,8.17,21.05,10.03,32.28c0.65,3.92,0.72,8.2,2.42,11.63c6.81,13.69,7.17,28.25,6.82,42.98
		c-0.06,2.66,0.01,5.36-0.39,7.98c-0.73,4.87,3.15,6.85,5.97,10.01c-1.67,12.23-3.51,24.72-5.02,37.25
		c-0.63,5.26-1.44,10.74-0.67,15.9c4.42,29.64,8.51,59.36,15.89,88.47c1.31,5.16,2.88,10.3,4.96,15.19
		c1.24,2.91,3.24,5.97,5.76,7.74c2.41,1.68,3.88,3.31,4.23,6.07c0.49,3.96,0.65,7.99,1.44,11.89c2.01,9.86,8.39,16.58,16.92,21.08
		c2.68,1.41,6.59,1.57,9.65,0.94c7.16-1.46,14.22-3.52,21.19-5.74c15.21-4.84,29.6-12.09,45.48-15.03c3.08-0.57,6-2.82,8.63-4.79
		c3.67-2.76,6.99-5.98,10.72-9.23c3.34,2.72,6.41,5.21,10.32,8.38c7.64-0.12,16.05-3.33,24.72-0.05c4.83,1.83,8.95-1.53,11.16-6.22
		c2.27-4.81,4.71-9.61,6.35-14.64c2.73-8.35,8.68-12.73,16.6-15.31c2.39-0.78,5.06-1.7,6.77-3.39
		c35.64-35.22,68.87-72.46,96.01-114.8c1.8-2.81,3.45-5.72,5.41-8.4c9.59-13.05,12.62-27.63,10.45-43.49
		c-0.27-1.98-0.41-3.98-0.62-5.97c-1.46-13.98-1.46-13.98-8.04-26.01c1.93-1.63,3.85-3.25,6.47-5.47
		c-1.97-4.57-3.79-9.47-6.12-14.11c-10.48-20.87-22.2-41.01-36.11-59.83c-4.94-6.69-5.88-11.07-3.33-12.08
		c4.24-1.68,8.02-0.01,11.04,2.4c5.55,4.44,11.58,5.44,18.47,4.02c1.64-2.29,0.5-4.76-0.72-7.03c-9.8-18.17-19.38-36.48-29.61-54.41
		c-13.64-23.91-32-44.22-50.68-64.2c-7.74-8.27-15.72-16.32-23.48-24.57c-2.64-2.81-5.89-5.43-5.49-10.41
		c7.27-3.35,12.61,1.83,18.22,4.72c5.78,2.98,11.12,6.82,17.15,10.59c0.28-2.1,0.93-3.49,0.49-4.13
		c-9.79-14.4-21.93-26.77-33.96-39.24c-3.65-3.78-7.3-7.24-7.61-13.42c-0.18-3.53-3.1-7.21-5.48-10.28
		c-12.66-16.33-25.59-32.45-38.31-48.73c-5.29-6.78-11.21-13.07-14.13-21.6c-1.19-3.48-4.49-6.59-7.51-9.02
		c-10.48-8.41-19.13-18.51-27.94-28.52c-22.46-25.51-45.08-50.89-67.58-76.36c-13.26-15-25.68-30.66-36.6-47.46
		c-9.86-15.17-8.24-22.28,11.5-25.16c5.24-0.77,10.64-0.65,15.96-0.7c12.66-0.12,25.33-0.06,38-0.13
		c26.3-0.13,51.66,5.38,76.44,13.5c46.12,15.12,88.03,37.82,124.23,70.56c5.15,4.66,9.22,11.85,18.26,10.35
		c1.51-0.25,3.51,1.71,5.1,2.9c40.56,30.25,75.95,64.98,97.08,112.06c2.99,6.67,5.94,13.36,8.92,20.05
		c3.65,0.18,6.88,1.49,8.08,4.88c3.09,8.73,5.74,17.61,8.93,27.58c1.46,1.13,3.65-0.49,6.07-1.43c0.78-0.3,2.53,0.6,3.12,1.45
		c0.67,0.97,0.85,2.53,0.71,3.78c-0.71,6.62-1.53,13.24-2.42,19.84c-0.96,7.12-2.18,14.22-0.68,22.47c2.39-1.69,4.02-2.62,5.4-3.84
		c4.51-3.98,4.47-4.02,11.78-0.33c2.25-6.66-0.77-12.9-1.16-19.28c-0.11-1.87,0.41-3.93,1.22-5.63c0.4-0.83,2.18-1.46,3.26-1.36
		c1.21,0.12,2.59,0.92,3.44,1.85c17.12,18.68,28.39,40.26,30.88,65.69c0.97,9.88,0.16,19.94,0.16,30.35c3.4-0.81,5.88-1.4,9.06-2.16
		c0.64,1.54,2.12,3.31,1.88,4.81c-1.25,7.86-2.41,15.79-4.59,23.42c-4.75,16.65-9.96,33.17-15.25,49.66
		c-1.85,5.76-3.36,11.44-3.28,17.56c0.27,18.47-5.39,35.41-13.82,51.57c-3.34,6.41-8.41,12.22-6.89,20.28
		c-3.22,5.79-5.79,12.08-9.77,17.29c-13.77,17.99-27.75,35.83-42.22,53.26c-7.26,8.74-14.13,17.63-20.24,27.22
		c-30.17,47.37-64.19,91.7-104.43,131.06c-5.63,5.5-11.34,10.92-16.84,16.22c1.68,3.67,8.74,2.36,6.08,8.77
		c-1.06,2.55,1.14,5.19,4.05,5.81c7.17,1.52,14.38,2.85,21.6,4.07c5.44,0.92,9.62,3.55,13.87,7.16
		c12.79,10.82,24.55,22.47,33.77,36.54c1.08,1.65,2.48,3.09,3.64,4.52c23.58,0.37,40.94,12.77,56.21,27.94
		c18.04,17.92,32.88,38.58,44.4,61.3c5.08,10.02,8.37,20.96,12.7,32.06c3.65,2.4,7.94,5.21,13.19,8.66
		c0.78-1.05,1.89-2.72,3.18-4.23c2.07-2.42,4.68-2.56,6.93-0.6c5.17,4.48,8.2,10.43,10.54,16.73c10.82,29.22,16.96,58.91,8.75,89.99
		c-0.16,0.6,0.1,1.31,0.16,1.96c0.57,3.79,3.95,4.98,6.38,7.15c5.44,4.87,12.06,9.22,15.51,15.3c5.43,9.56,13.34,16.48,20.59,24.19
		c15.25,16.21,25.99,35.38,35.86,55.08c3.28,6.55,5.91,13.42,9.2,19.97c3.58,7.14,7.52,14.1,11.39,21.09
		c4.02,7.27,9.75,12.62,17.8,15.16c5.35,1.69,9.81,3.93,8.88,10.88c-0.13,0.96,1.38,2.18,2.21,3.23c0.83,1.04,1.77,1.99,2.61,3.02
		c29.19,35.77,28.71,34.85,47.5,80.29c0.76,1.85,1.38,3.75,2.15,5.6c11.48,27.58,14.11,31.19,38.41,49.55
		c10.61,8.02,21.68,15.44,32.48,23.22c10.87,7.84,22.5,14.37,34.97,19.17c22.99,8.86,45.86,18.14,69.26,25.79
		c48.11,15.74,96.27,31.43,144.92,45.37c29.67,8.51,57.95,19.69,85.24,33.8c17.21,8.9,33.55,19.2,48.81,31.14
		c6.28,4.91,12.07,10.45,17.99,15.81c2.64,2.39,2.27,3.45-2.18,7.52c0.05,6.03,7.61,8.92,6.51,15.83c-5.98,0.63-9.38-4.2-13.9-6.39
		c-4.66-2.26-8.96-5.49-15.31-4.47c0.82,1.83,1.2,3.71,2.29,4.98c19.54,22.73,39.46,45.13,58.69,68.11
		c31.32,37.42,57.61,78.37,82.66,120.12c26.74,44.57,53.33,89.23,79.68,134.03c26.03,44.24,53.14,87.79,81.36,130.66
		c34.46,52.34,67.37,105.64,98.53,159.99c36.55,63.76,78.43,123.8,124.12,181.29c45.64,57.43,92.83,113.51,143.2,166.86
		c16.91,17.91,34.28,35.39,51.45,53.06c9.71,10,19.25,20.1,28.48,30.59c16.72,18.99,35.44,36.17,55.89,51.32
		c13.88,10.28,29.02,18.92,41.31,31.31c0.91,0.92,2.36,1.26,3.4,2.07c2.78,2.17,9.12,2.16,6.75,7.65c-1.77,4.1-7.14,3.25-10.72,2.61
		c-15.84-2.82-30.1,1.71-44.62,7.35c-32.59,12.67-66.87,17.68-101.52,20.44c-59.95,4.76-119.91,3.61-179.82-0.47
		c-51.29-3.49-101.9-11.86-151.74-24.42c-48.45-12.21-96.43-26.11-143.55-42.82c-7.53-2.67-14.99-5.58-22.33-8.72
		c-12.28-5.25-24.13-11.2-33.83-20.8C2844.56,2675.14,2839.98,2672.34,2833.71,2667.55z M1847.56,2381.92
		c-8.7,21.68-20.42,40.04-16.2,62.14c4.81,5.51,9.08,10.58,13.56,15.46c2.23,2.43,4.66,4.74,7.31,6.7c7.7,5.67,15.72,6.6,23.84,0.8
		c5.36-3.83,10.62-7.79,16.12-11.84c1.42,3.41,2.64,6.35,4.2,10.11c2.92-2.07,5.48-3.88,8.81-6.24
		c-7.37-8.66-14.36-16.47-20.87-24.66c-6.2-7.78-12.07-15.84-17.77-24C1860.51,2401.76,1854.83,2392.86,1847.56,2381.92z
		 M1191.81,325.9l0.28,0.59l1.25-0.24L1191.81,325.9z"/>
</g>
</svg>
