<?xml version="1.0" encoding="utf-8"?>
<!-- Generator: Adobe Illustrator 24.1.3, SVG Export Plug-In . SVG Version: 6.00 Build 0)  -->
<svg version="1.1" id="Layer_1" xmlns="http://www.w3.org/2000/svg" xmlns:xlink="http://www.w3.org/1999/xlink" x="0px" y="0px"
	 width="431.03" height="290.99" viewBox="0 0 431.03 290.99" enable-background="new 0 0 431.03 290.99" xml:space="preserve">
<g>
	<g>
		<path d="M178.71,287.23c-0.63,0-1.14,0.26-1.66,0.4c-0.54,0.15-1.13,0.35-1.58-0.1c-0.5-0.49-0.31-1.12-0.08-1.68
			c0.21-0.52,0.49-1,0.83-1.45c1.18-1.53,2.57-2.84,4.12-3.98c0.96-0.71,1.94-1.41,3.06-1.87c0.49-0.2,0.91-0.51,1.25-0.91
			c0.4-0.46,0.89-0.81,1.39-1.13c1.21-0.77,2.5-1,3.88-0.5c0.33,0.12,0.63,0.21,1.03,0.07c1.11-0.4,2.14-0.11,2.96,0.71
			c0.93,0.93,1.97,0.9,3.09,0.51c1.73-0.6,3.21-1.59,4.52-2.85c1.96-1.89,3.76-3.91,5.48-6.02c1.09-1.33,2.21-2.62,3.15-4.07
			c0.99-1.52,1.53-3.15,1.42-4.98c-0.02-0.36-0.08-0.71-0.17-1.06c-0.52-1.97-1.19-3.89-2.09-5.73c-1.36-2.8-2.52-5.7-3.97-8.46
			c-1-1.91-2-3.81-2.96-5.65c-0.48-0.25-0.88-0.12-1.26-0.07c-1.89,0.29-3.79,0.48-5.69,0.67c-1.79,0.17-3.48,0.64-5.01,1.76
			c-2.48,1.82-5.34,2.82-8.33,3.5c-3,0.68-6.03,0.67-9.06,0.46c-2.8-0.2-5.49-0.92-8.12-1.94c-2.82-1.09-5.39-2.59-7.67-4.59
			c-1.99-1.75-3.82-3.63-5.08-6c-0.75-1.41-1.29-2.92-1.7-4.46c-0.15-0.58-0.3-1.15-0.52-1.71c-1.26-3.21-2.07-6.54-2.62-9.94
			c-0.42-2.56-0.74-5.13-0.81-7.72c-0.01-0.52-0.11-1.03-0.15-1.54c-0.09-1.24-0.05-2.47-0.02-3.71c0.05-1.76,0.04-3.52-0.08-5.27
			c-0.21-3.16-0.82-6.23-1.98-9.2c-0.72-1.83-1.56-3.59-2.72-5.18c-0.85-1.16-1.77-2.27-2.67-3.39c-0.95-1.19-1.77-2.46-2.58-3.88
			c-0.34,1.14,0.18,2.33-0.44,3.49c-0.66-1.04-0.22-2.08-0.43-3.02c-0.22-0.97-0.02-1.99-0.31-2.87c-0.23-0.33-0.51,0.03-0.7-0.18
			c-0.04-0.06-0.1-0.13-0.11-0.2c-0.16-2.16-0.76-4.23-1.32-6.31c-0.69-2.59-1.22-5.21-1.48-7.87c-0.21-2.18-0.35-4.37-0.3-6.57
			c0.04-2.12,0.02-4.23,0.25-6.34c0.14-1.28-0.15-2.54-0.08-3.82c-0.55-1.62-0.54-3.37-1.33-4.94c-0.73-1.45-1.24-3.02-1.85-4.54
			c-0.07-0.18-0.11-0.39-0.35-0.53c-1.11,0.64-2.23,1.32-3.29,2.1c-0.48,0.36-0.97,0.71-1.52,0.95c-0.26,0.11-0.51,0.22-0.71,0.43
			c-0.22,0.23-0.46,0.66-0.67,0.64c-0.7-0.04-1.22,0.56-1.93,0.43c-0.62-0.76-1.09-1.66-1.71-2.41c-0.6-0.72-0.75-1.45-0.82-2.27
			c-0.09-1.02-0.56-1.98-0.38-3.04c0.18-1.1,0.22-2.21,0.58-3.29c0.33-0.98,0.51-2.01,0.73-3.02c0.07-0.33,0.05-0.67,0.07-1.12
			c-0.73,0.45-0.97,1.31-1.72,1.45c-0.29-0.17-0.14-0.43-0.29-0.61c-1.53,1.93-2.51,4.28-4.44,5.9c-0.12,0.1-0.26,0.19-0.45,0.11
			c-0.02-0.1-0.08-0.22-0.05-0.33c0.56-2.77-0.31-5.3-1.45-7.73c-0.61-1.29-1.47-2.47-2.22-3.69c-0.03-0.05-0.13-0.07-0.31-0.15
			c-0.12,0.96,0.01,1.9-0.08,2.8c-0.17,0.09-0.27,0.05-0.32-0.07c-0.85-1.98-1.9-3.87-2.58-5.93c-0.4-1.21-0.79-2.41-0.52-3.73
			c0.09-0.44,0.01-0.91,0.01-1.49c-0.72,0.52-0.88,1.32-1.52,2.02c-0.25-2.28,0.5-4.09,1.37-6c-0.67,0.09-1.01,0.67-1.58,0.66
			c-0.2-0.22,0.02-0.38,0.12-0.51c1.9-2.35,3.26-5.02,4.62-7.69c0.63-1.25,1.39-2.41,2.39-3.64c-0.92,0.05-1.44,0.58-2.06,0.87
			c-0.63,0.31-1.2,0.7-1.77,1.15c0.29-1.8,1.23-3.18,2.43-4.44c1.19-1.25,2.52-2.29,4.1-3.16c-0.6-0.22-1.06,0.01-1.54,0.04
			c0.01-0.11-0.01-0.22,0.03-0.24c2.25-1.21,4.5-2.41,6.92-3.25c1.83-0.64,3.71-0.96,5.65-0.75c0.11,0.01,0.22-0.03,0.44-0.07
			c-0.85-1.1-1.82-2.05-2.36-3.56c2.54,1.19,4.94,2.07,7.71,1.65c-0.61-1.81-0.7-3.67-0.92-5.5c-0.22-0.15-0.36,0.17-0.58,0.05
			c-0.16-0.13-0.15-0.34-0.14-0.53c0.06-1.76,0.6-3.37,1.56-4.83c0.34-0.53,0.67-1.06,0.84-1.67c-0.49-0.16-0.65,0.37-1.09,0.32
			c0.02-1.18,1.07-1.76,1.63-2.69c-0.63-0.32-1.25-0.06-1.82-0.24c0.5-0.58,0.96-0.75,3.04-1.06c0.26-0.71,0.08-1.48,0.14-2.22
			c0.05-0.73,0.09-1.47,0.15-2.42c0.7,0.9,0.43,1.89,1.04,2.67c0.66-1.16,0.88-2.36,0.61-3.67c0.61-0.07,0.52,0.69,1.03,0.76
			c1.09-2.66,2.49-5.13,4.82-6.94c0.06-0.13,0.01-0.25-0.08-0.32c-0.84-0.69-0.93-1.62-0.85-2.61c0.03-0.36,0.12-0.7,0.35-1
			c0.83-1.08,0.95-2.33,0.8-3.64c-0.13-1.17,0.14-2.2,1.14-2.95c0.38-0.29,0.74-0.61,1.07-0.96c0.43-0.44,0.73-0.95,0.72-1.6
			c-0.01-1.04,0.52-1.73,1.4-2.19c0.57-0.3,1.11-0.62,1.64-0.98c0.59-0.41,1.25-0.72,2.02-0.64c0.7,0.07,1.24-0.2,1.64-0.78
			c0.98-1.41,1.98-2.81,2.95-4.22c0.82-1.2,0.94-2.61,1.15-3.99c0.21-1.38,0.41-2.76,0.52-4.15c0.06-0.68,0.27-1.21,0.76-1.68
			c0.2-0.19,0.33-0.45,0.48-0.66c0.6-0.22,1.25-0.15,1.81-0.46c0.16,0.03,0.11,0.24,0.16,0.27c0.96,0.51,0.98,1.52,1.08,2.35
			c0.12,1.03,0.35,2.04,0.52,3.06c0.28,1.69,0.48,3.4,0.43,5.12c-0.01,0.32,0,0.63,0,1.01c0.57-0.04,0.92-0.41,1.35-0.58
			c1.15-0.45,2.28-0.92,3.53-1.1c2.05-0.29,3.9-1.12,5.59-2.31c0.32-0.23,0.67-0.44,1.04-0.58c0.96-0.37,1.54,0.07,1.58,1.14
			c0.01,0.35-0.08,0.65-0.18,0.99c-0.67,2.28-1.98,4.18-3.49,5.94c-1.53,1.79-3.39,3.11-5.68,3.82c-1.15,0.35-2.3,0.64-3.5,0.74
			c-0.38,0.03-0.76,0.15-1.17,0.24c0.07,0.17,0.09,0.3,0.16,0.38c1.53,1.92,1.21,3.93,0.3,5.96c-0.2,0.43-0.51,0.81-0.73,1.24
			c-0.33,0.66-0.34,1.25,0.23,1.86c2.07,2.23,4.15,4.44,6.51,6.36c3.37,2.75,6.78,5.46,10.16,8.2c0.59,0.48,1.14,1,1.69,1.52
			c0.38,0.35,0.74,0.71,1.28,0.96c0.13-0.73-0.09-1.39-0.13-2.04c-0.09-1.24,0.01-2.48,0.06-3.71c0.03-0.68,0.3-1.32,0.66-1.9
			c0.46-0.75,0.89-1.51,1.54-2.13c0.28-0.27,0.44-0.66,0.69-0.97c0.42-0.53,0.83-1.09,1.58-1.05c0.51,0.29-0.11,0.8,0.37,1.13
			c0.43-0.29,0.65-0.75,0.83-1.22c0.89-2.21,0.9-2.24,2.84-3.57c0.01-0.16,0.04-0.36,0.03-0.56c-0.02-0.73,0.24-1.33,0.78-1.81
			c0.58-0.52,0.96-1.15,1.25-1.87c0.51-1.28,1.35-2.36,2.24-3.38c0.65-0.75,1.08-1.57,1.36-2.5c0.78-2.65,2.11-4.99,4.02-6.99
			c1.5-1.57,3.26-2.81,5.21-3.79c0.89-0.45,1.77-0.92,2.73-1.22c0.58-0.18,0.93-0.55,1.18-1.1c0.47-1.05,1-2.09,1.49-3.13
			c1.53-3.24,3.73-6.04,5.98-8.79c2.23-2.74,4.87-5.07,7.57-7.31c2.73-2.27,5.55-4.44,8.33-6.65c0.16-0.12,0.33-0.23,0.51-0.32
			c0.88-0.44,1.56-0.17,1.87,0.77c0.29,0.88,0.45,1.79,0.36,2.71c-0.28,3-1.1,5.87-2.24,8.66c-0.16,0.4-0.36,0.79-0.55,1.19
			c0.32,0.17,0.47-0.07,0.65-0.19c1.17-0.76,2.32-1.56,3.52-2.29c1.61-0.98,3.13-2.07,4.58-3.26c0.96-0.79,1.92-1.56,3-2.18
			c0.35-0.2,0.7-0.4,1.07-0.53c0.63-0.24,1.14-0.04,1.37,0.57c0.26,0.71,0.43,1.43,0.32,2.22c-0.25,1.97-1.01,3.75-1.87,5.52
			c-1.25,2.57-2.81,4.93-4.5,7.2c-1.68,2.27-3.42,4.53-5.61,6.37c-0.33,0.27-0.61,0.6-1.03,1.01c1.07,0.14,1.96,0.04,2.85-0.12
			c0.48-0.08,0.95-0.16,1.43-0.1c0.5,0.06,0.71,0.38,0.55,0.84c-0.13,0.38-0.31,0.77-0.62,1.02c-0.8,0.65-1.12,1.63-1.8,2.41
			c0.65,0.74,1.16,1.54,1.88,2.19c2.1,1.89,3.35,4.23,3.57,7.09c0.13,1.63,0.5,3.23,0.94,4.8c0.09,0.34,0.32,0.64,0.46,0.96
			c0.22,0.5,0.59,0.98,0.32,1.58c-0.12,0.27,0.05,0.46,0.17,0.66c0.21,0.34,0.46,0.66,0.65,1.01c0.34,0.65,0.31,0.89-0.11,1.7
			c0.9,1.44,1.62,3,1.96,4.68c0.31,1.56,0.5,3.15,0.56,4.74c0.08,1.99,0.07,3.99,0,5.98c-0.01,0.4,0.02,0.8,0.07,1.19
			c0.42,2.81,0.13,5.58-0.64,8.29c-0.49,1.74-0.72,3.51-0.8,5.31c-0.02,0.36-0.03,0.72-0.11,1.07c-0.08,0.39-0.26,0.75-0.63,0.97
			c-0.42,0.25-0.65,0.24-1.06-0.12c-0.12-0.1-0.14-0.3-0.38-0.3c-0.22,1.34-0.42,2.71-0.47,4.09c0.55,0.23,0.97,0.09,1.39-0.01
			c0.86-0.2,1.69-0.49,2.49-0.86c3.38-1.58,6.61-3.39,9.23-6.12c0.94-0.98,1.79-2.03,2.43-3.25c0.34-0.65,0.45-1.31,0.2-1.96
			c-0.72-1.89-0.85-3.89-1.11-5.86c-0.28-2.15-0.76-4.24-1.53-6.26c-0.69-1.84-1.2-3.72-1.09-5.71c0.08-1.45,0.4-2.84,0.99-4.16
			c0.08-0.18,0.16-0.37,0.28-0.53c0.24-0.32,0.49-0.68,0.95-0.64c0.51,0.05,0.53,0.51,0.65,0.89c0.26,0.79,0.27,1.65,0.76,2.43
			c0.59-0.02,1.15-0.34,1.76-0.19c0.99,0.24,1.93,0.55,2.58,1.4c0.43,0.56,0.99,0.71,1.68,0.74c1.79,0.07,3.48-0.32,5.07-0.89
			c0.15-0.22,0.15-0.38,0.1-0.53c-0.41-1.3-0.59-2.65-0.88-3.97c-0.19-0.88-0.09-1.76,0.01-2.63c0.17-1.36,0.64-2.63,1.26-3.85
			c0.2-0.4,0.44-0.77,1-0.81c0.57,0.42,0.66,1.08,0.78,1.75c0.12,0.65,0.2,1.34,0.56,1.91c2.57-0.37,3.29,0.01,5.19,2.73
			c0.58-0.02,1.01-0.37,1.42-0.76c1.21-1.12,2.22-2.4,3.32-3.62c1.83-2.01,3.61-4.05,5.49-6.01c1.49-1.55,3.02-3.07,4.5-4.64
			c1.31-1.4,2.64-2.79,4.01-4.12c3.03-2.95,6.04-5.94,9.17-8.79c3.95-3.61,8.03-7.06,12.36-10.23c0.96-0.7,1.85-1.49,2.67-2.38
			c2.19-2.37,4.9-3.94,8.09-4.59c1.68-0.34,3.37-0.61,5.06-0.91c0.27-0.05,0.55-0.1,0.82-0.18c3.18-0.92,6.42-1.63,9.65-2.36
			c2.25-0.51,4.54-0.86,6.81-1.32c3.56-0.72,7.14-1.28,10.72-1.87c1.34-0.22,2.68-0.37,4.03-0.5c2.9-0.28,5.79-0.55,8.69-0.76
			c1.71-0.13,3.43-0.11,5.14-0.22c2.04-0.13,4.07,0.03,6.11,0.01c0.84-0.01,1.67-0.03,2.49-0.26c1.9-0.54,3.81-0.29,5.7,0.04
			c1.62,0.29,3.16,0.81,4.63,1.58c1.81,0.95,3.72,1.66,5.64,2.34c4.33,1.52,8.67,3,12.93,4.74c1.72,0.7,3.55,1.19,5.39,1.59
			c2.44,0.53,4.59,1.57,6.21,3.56c0.5,0.62,1.18,1.07,1.7,1.68c1.66,1.92,2.72,4.12,3.23,6.59c0.11,0.55,0.15,1.11,0.01,1.66
			c-0.16,0.61-0.52,0.76-1.08,0.48c-0.25-0.13-0.47-0.3-0.71-0.45c-0.47-0.3-0.96-0.58-1.42-0.89c-0.69-0.46-1.33-0.49-2.12-0.12
			c-0.96,0.46-2.03,0.33-3.05,0.06c-0.38-0.1-0.74-0.32-1.15-0.26c-0.85,0.82-1.22,1.6-1.45,3.16c1.27,0.72,2.47,1.69,3.91,2.17
			c2.35,0.78,4.1,2.28,5.4,4.32c1.33,2.1,2.31,4.37,2.79,6.84c0.15,0.76,0.11,1.51,0.07,2.26c-0.01,0.15-0.08,0.31-0.14,0.45
			c-0.24,0.53-0.64,0.66-1.17,0.41c-0.4-0.19-0.72-0.5-1.05-0.79c-0.71-0.64-1.45-1.26-2.4-1.61c-1.61,0.77-3.23,0.69-4.82-0.02
			c-0.45,0.27-0.4,0.71-0.49,1.08c-0.34,1.31-0.29,2.58,0.24,3.86c0.74,1.77,1.58,3.49,2.5,5.17c1.73,3.16,3.18,6.44,4.44,9.81
			c0.86,2.28,1.72,4.56,2.38,6.9c1.1,3.92,1.57,7.91,1.23,11.97c-0.21,2.46-0.38,4.92-0.86,7.36c-0.31,1.56-0.39,3.16-0.57,4.74
			c-0.16,1.38-0.38,2.76-0.45,4.16c-0.14,2.71-0.06,5.42,0.02,8.12c0.05,1.46,0.36,2.91,0.94,4.3c0.46,1.1,0.71,2.28,0.7,3.5
			c-0.01,1,0.06,2,0.07,3c0.01,2.01-0.52,3.87-1.6,5.56c-0.26,0.4-0.49,0.88-1.07,0.82c-0.57-0.06-0.75-0.56-0.88-1.02
			c-0.26-0.98-0.68-1.87-1.27-2.69c-0.32-0.44-0.69-0.75-1.19-0.95c-2.68-1.07-3.88-3.24-4.11-5.96c-0.09-0.99-0.49-1.57-1.28-1.96
			c-1.61-0.8-3.26-0.98-4.97-0.31c-0.94,0.37-1.8,0.85-2.65,1.37c-0.91,0.56-1.56,1.39-2.11,2.26c-1.9,2.98-3.46,6.11-4.25,9.59
			c-0.17,0.75-0.08,1.33,0.36,2.01c1,1.54,1.83,3.16,2.05,5.06c0.11,0.95-0.01,1.82-0.37,2.67c-0.24,0.56-0.35,1.12-0.42,1.72
			c-0.27,2.12-1.14,3.98-2.72,5.46c-0.45,0.42-0.97,0.87-1.74,0.55c-0.22-0.46-0.3-0.95-0.33-1.47c-0.05-1.08-0.29-2.13-0.59-3.17
			c-0.07-0.27-0.17-0.55-0.48-0.64c-0.78-0.21-1.27-0.79-1.81-1.43c-0.35,0.33-0.38,0.74-0.47,1.09c-0.56,2.29-0.95,4.6-1.3,6.93
			c-0.28,1.85-0.4,3.72-0.6,5.58c-0.1,0.95-0.03,1.92-0.06,2.88c-0.11,3.31-0.37,6.61-0.24,9.93c0.08,2.15,0.17,4.31,0.3,6.46
			c0.11,1.87,0.39,3.72,0.59,5.58c0.04,0.4,0.07,0.8,0.11,1.19c0.06,0.72,0.21,1.4,0.54,2.06c1.09,2.18,1.42,4.46,0.96,6.87
			c-0.13,0.7-0.14,1.43-0.13,2.15c0.01,1.34-0.35,2.61-0.78,3.85c-0.34,0.96-0.96,1.75-1.87,2.26c-0.77,0.43-1.41,0.15-1.41-0.71
			c0-0.94-0.27-1.81-0.48-2.7c-0.08-0.35-0.23-0.68-0.33-1.02c-0.2-0.65-0.61-1.03-1.23-1.35c-2.26-1.15-3.35-3.1-3.49-5.6
			c-0.08-1.33,0.09-2.64,0.58-3.88c0.29-0.74,0.2-1.37-0.14-2.06c-2.16-4.46-4.96-8.44-8.32-12.1c-2.33-2.53-5.1-4.46-7.84-6.46
			c-1.88-1.37-3.85-2.57-6.01-3.6c-0.82,0.68-1.48,1.54-2.21,2.33c-2.56,2.77-4.64,5.89-6.63,9.09c-0.84,1.36-1.83,2.62-2.69,3.97
			c-1.34,2.09-2.49,4.28-3.63,6.48c-1.55,2.97-3.13,5.93-4.73,8.88c-0.5,0.92-0.86,1.89-1.09,2.9c-0.38,1.7-1.01,3.31-2.14,4.63
			c-1.82,2.12-4.04,3.72-6.76,4.55c-0.08,0.02-0.16,0.04-0.23,0.05c-0.39,0.04-0.8,0.21-1.13-0.15c-0.35-0.4,0-0.74,0.14-1.09
			c0.39-0.96,0.78-1.92,1.18-2.92c-0.67-0.85-1.05-1.84-1.23-2.92c-0.27-1.63,0.07-3.08,1.05-4.4c0.17-0.22,0.32-0.47,0.52-0.65
			c0.83-0.7,1.26-1.63,1.58-2.69c-1.18-2.93-2.48-5.83-4.5-8.36c-0.55-0.69-1.02-1.43-1.55-2.13c-0.9-1.22-1.89-2.37-2.95-3.46
			c-1.53-1.58-3.05-3.16-4.76-4.55c-1.9-1.54-3.94-2.86-6.02-4.12c-3.83-2.32-7.96-3.85-12.25-5.06c-2.77-0.78-5.6-1.28-8.43-1.75
			c-1.33-0.22-2.7-0.25-4.05-0.37c-2.51-0.23-5.02-0.26-7.54-0.24c-1.87,0.02-3.75,0.07-5.6,0.43c-0.82,0.16-1.66,0.13-2.5,0.23
			c-3.16,0.39-6.33,0.73-9.5,1.08c-1.94,0.22-3.88,0.44-5.82,0.64c-3.22,0.34-6.45,0.39-9.69,0.29c-2.27-0.07-4.52-0.33-6.76-0.66
			c-0.07,0.38,0.22,0.52,0.4,0.7c3.86,4.08,6.85,8.71,8.86,13.97c0.97,2.54,1.75,5.14,2.14,7.84c0.24,1.66,0.48,3.31,0.45,5
			c-0.03,1.72,0.06,3.44-0.08,5.16c-0.17,2.15-0.62,4.26-1.13,6.35c-0.03,0.12-0.05,0.24-0.09,0.35c-0.55,1.46-0.64,2.89-0.15,4.42
			c0.73,2.29,0.97,4.68,1.23,7.06c0.19,1.74,0.2,3.5,0.56,5.23c0.17,0.82,0.37,1.64,0.65,2.42c0.33,0.93,0.96,1.59,1.9,2.03
			c2.09,0.97,4.23,1.86,6.13,3.23c2.49,1.8,4.6,3.93,6.29,6.5c1.74,2.64,3.26,5.4,4.49,8.31c0.31,0.73,0.62,1.47,0.86,2.23
			c0.87,2.74,2.38,5.14,4.01,7.46c1.06,1.5,2.05,3.05,3.02,4.61c0.44,0.71,0.95,1.39,1.5,2.02c0.63,0.72,1.38,1.29,2.36,1.56
			c1.97,0.56,3.67,1.61,4.98,3.18c1.42,1.7,2.24,3.67,2.27,5.92c0.01,0.65,0.14,1.28,0.34,1.88c0.91,2.73,1.99,5.39,3.33,7.94
			c0.35,0.68,0.83,1.26,1.49,1.69c1.99,1.31,2.96,3.3,3.55,5.5c0.53,1.97,0.1,3.79-1.05,5.45c-0.2,0.3-0.41,0.59-0.58,0.91
			c-0.47,0.88-1.25,1.34-2.16,1.57c-1.01,0.25-1.97,0.61-2.93,1.01c-0.58,0.24-1.23,0.33-1.84,0.48c-0.39,0.1-0.8,0.13-1.13,0.38
			c-1.65,1.25-3.57,1.52-5.55,1.55c-1.88,0.03-3.74-0.25-5.57-0.68c-0.86-0.2-1.65-0.21-2.55,0.04c-2.07,0.58-4.18,0.59-6.18-0.43
			c-0.87-0.44-1.79-0.64-2.77-0.6c-0.48,0.02-0.96,0.03-1.44-0.01c-0.94-0.08-1.24-0.64-0.83-1.49c0.61-1.25,1.59-2.19,2.63-3.08
			c0.98-0.84,2.05-1.55,3.2-2.1c1.09-0.52,2.01-1.3,3.06-1.88c0.6-0.33,1.25-0.51,1.89-0.73c0.63-0.22,1.17,0.15,1.83,0.28
			c0.42-0.29,0.94-0.56,1.53-0.72c0.13-1.73,0.08-3.39-0.44-5.02c-0.76-2.42-1.85-4.68-3.53-6.61c-0.34-0.39-0.71-0.75-1.05-1.14
			c-0.93-1.05-1.56-2.32-2.3-3.5c-1.59-2.51-3.48-4.77-5.47-6.96c-1.53-1.69-3.17-3.26-4.82-4.84c-0.79-0.75-1.67-1.36-2.54-2
			c-3-2.19-6-4.39-8.74-6.9c-2.66-2.44-4.97-5.2-6.79-8.33c-0.56-0.96-1.03-1.98-1.48-3.01c-0.44-1.02-1.11-1.86-1.95-2.54
			c-1.46-1.18-2.97-2.29-4.14-3.83c-0.57,0.3-0.88,0.78-1.22,1.18c-1.88,2.24-3.98,4.27-6.21,6.15c-3.77,3.17-7.77,6.01-12.33,7.95
			c-0.11,0.05-0.19,0.14-0.28,0.2c-0.14,0.36-0.08,0.72-0.09,1.08c-0.07,1.95,0,3.91-0.1,5.86c-0.07,1.29,0.09,2.62,0.1,3.94
			c0.01,0.8,0,1.6,0.08,2.39c0.28,2.83,0.83,5.6,1.95,8.23c0.58,1.36,1.07,2.76,1.99,3.95c0.46,0.6,0.95,1.18,1.44,1.76
			c2.02,2.35,2.79,5.12,2.43,8.13c-0.32,2.73-1.69,4.87-4.22,6.17c-1.1,0.56-2.2,1.13-3.38,1.53c-1.98,0.66-3.57,1.93-5.09,3.3
			c-0.96,0.86-1.71,1.89-2.41,2.97c-0.48,0.75-0.68,1.62-1.02,2.42c-0.95,2.21-2.62,3.57-4.82,4.37c-3.04,1.11-6.09,1.09-9.14,0.05
			c-0.43-0.15-0.84-0.24-1.27-0.03c-0.11,0.05-0.22,0.1-0.34,0.12c-1.49,0.24-2.97,0.5-4.26,1.37c-2.26,0.59-4.51,0.97-6.85,0.39
			c-1.37-0.34-2.77-0.23-4.17-0.13c-1.48,0.11-2.92,0.37-4.34,0.78c-0.45,0.13-0.95,0.17-1.43,0.04c-0.73-0.2-1.04-0.74-0.77-1.45
			c0.18-0.48,0.45-0.93,0.68-1.4C178.55,287.83,178.81,287.64,178.71,287.23z M195.72,163.7c-0.07-0.18-0.08-0.22-0.11-0.25
			c-0.22-0.29-0.44-0.57-0.65-0.86c-1.99-2.6-3.43-5.47-4.38-8.6c-0.66-2.18-1.13-4.41-1.31-6.68c-0.07-0.89-0.2-1.73-0.55-2.55
			c-1.25-3.01-1.73-6.16-1.28-9.38c0.26-1.84,0.23-3.64,0.1-5.46c-0.05-0.73-0.08-1.51-0.59-2.16c-1.6,0.22-3.17,0.47-4.75,0.64
			c-4.65,0.49-9.21,1.41-13.76,2.47c-0.51,0.12-1.01,0.25-1.45,0.54c-0.7,0.46-1.38,0.94-2.1,1.14c-0.27,0.66-0.06,1.14,0.2,1.6
			c0.59,1.05,1.01,2.18,1.28,3.34c0.14,0.65,0.41,1.2,0.79,1.72c1.18,1.61,2.4,3.19,3.54,4.83c1.54,2.19,3.09,4.38,4.32,6.76
			c1.62,3.12,2.94,6.38,3.99,9.74c1.46,4.69,2.71,9.42,3.13,14.34c0.24,2.75,0.31,5.49,0,8.24c-0.1,0.87-0.09,1.76,0,2.63
			c0.41,4,0.27,7.95-0.7,11.87c-0.43,1.74-0.09,3.41,0.85,4.95c0.38,0.61,0.91,0.99,1.66,1.04c1.8,0.1,3.48-0.3,5.02-1.22
			c-0.79-6.69-0.63-13.3,0.5-19.92C190.62,175.85,192.79,169.6,195.72,163.7z M175.01,86.16c-0.99-0.46-2.01-0.91-3-1.41
			c-1.03-0.53-2.08-1.07-2.84-1.96c-1.27-1.48-2.5-3.01-3.67-4.57c-2.01-2.68-3.93-5.44-5.95-8.12c-2.46-3.25-5.05-6.39-7.76-9.43
			c-0.66-0.74-1.4-1.42-2.13-2.1c-0.39-0.37-0.69-0.31-0.98,0.13c-0.24,0.37-0.42,0.77-0.69,1.12c-0.25,0.32,0.16,0.47,0.11,0.72
			c-0.87,0.37-0.87,0.37-1.09,1.12c2.12,1.5,2.58,2.05,2.79,3.32c-0.45,0.19-0.75-0.39-1.24-0.25c0.18,0.55,0.71,0.89,0.66,1.45
			c1.13,0.62,2.25,0.74,3.43,0.53c0.59-0.11,1.18-0.26,1.77-0.27c1.32-0.01,1.86,0.2,2.1,1.13c0.24,0.91,0.38,1.88,0.35,2.82
			c-0.04,1.27-0.62,2.34-1.58,3.24c-0.69,0.65-1.65,1.01-2.06,1.93c-0.75-0.24-1.16-0.21-1.58,0.09c-0.44,0.31-0.67,1.04-0.41,1.36
			c0.28,0.35,0.67,0.54,1.1,0.69c0.4,0.15,0.57-0.22,0.87-0.3c0.38,0.21,0.72,0.48,1.12,0.67c0.68,0.32,0.8,0.81,0.47,1.48
			c-0.12,0.25-0.27,0.49-0.37,0.75c-0.42,1.16-1.33,1.68-2.48,1.76c-0.88,0.06-1.74,0.24-2.62,0.25c-1.1,0.01-1.67,0.71-2.07,1.56
			c-0.41,0.87-0.06,1.72,0.34,2.52c0.05,0.1,0.16,0.17,0.26,0.24c0.53,0.37,0.98,0.32,1.6-0.25c0.52-0.48,0.95-1.08,1.76-1.09
			c1.1-0.85,2.41-0.59,3.65-0.71c0.36-0.04,0.74,0.01,1.04,0.19c0.33,0.19,0.67,0.24,1.02,0.32c1.26,0.28,2.43,0.75,3.53,1.43
			c0.89,0.55,1.86,0.94,2.9,1.06c0.72,0.08,1.42,0.24,2.12,0.35c2.8,0.42,5.58,0.95,8.24,2c0.23,0.09,0.45,0.16,0.68,0.01
			C174.72,89.01,175.06,86.9,175.01,86.16z M165.73,118.47c0.39,0.41,0.79,0.71,1.04,1.11c0.46,0.73,1.11,0.84,1.86,0.75
			c0.39-0.04,0.79-0.11,1.17-0.2c4.03-0.96,7.85-2.55,11.72-4.06c-0.35-0.81-0.73-1.55-1.33-2.16c-0.7-0.72-1.27-1.54-1.6-2.49
			c-0.14-0.4-0.35-0.71-0.73-0.91c-0.52-0.27-0.73-0.76-0.75-1.28c-0.04-0.71-0.08-1.42,0.1-2.14c0.23-0.93,0.72-1.56,1.64-1.88
			c0.89-0.31,1.44-1.01,2.1-1.88c-1.57,0.02-2.89-0.37-4.23-0.71c-0.31-0.08-0.63-0.11-0.95-0.1c-0.77,0.03-1.51-0.14-2.24-0.32
			c-0.94-0.23-1.9-0.29-2.84-0.33c-2.04-0.08-4.04-0.36-6.05-0.66c-0.4-0.06-0.78-0.14-1.2,0.05c0.06,0.2,0.1,0.39,0.17,0.57
			c0.46,1.2,0.77,2.43,0.69,3.73c-0.02,0.31,0.03,0.64,0.1,0.95c0.26,1.13,0.54,2.24,0.8,3.37c0.31,1.36,0.46,2.75,0.52,4.14
			C165.78,115.49,165.73,116.97,165.73,118.47z M194.55,68.08c-0.42-0.1-0.79-0.07-1.17,0.07c-0.6,0.21-1.22,0.4-1.84,0.49
			c-0.76,0.11-1.12,0.53-1.22,1.24c-0.03,0.2-0.04,0.4-0.07,0.59c-0.01,0.06-0.09,0.11-0.14,0.16c-0.37,0.07-0.24-0.51-0.67-0.44
			c-0.77,0.76-1.69,1.47-1.98,2.68c3.17,0.46,6.24,1.16,9.29,1.92c1.43,0.35,2.85,0.83,4.35,0.66c1.34-0.16,2.68-0.36,4.02-0.54
			c0.48-0.06,0.8-0.31,1.01-0.74c0.38-0.8,0.72-1.61,0.9-2.47c0.18-0.82,0.27-1.64,0.05-2.48c-0.22-0.86-0.83-1.33-1.61-1.63
			c-0.67-0.26-1.15,0.12-1.61,0.52c-0.24,0.21-0.46,0.45-0.65,0.69c-0.4,0.5-0.77,1.02-1.18,1.51c-1.15,1.39-2.31,2.77-4.26,3.07
			c0.04,0.35,0.11,0.62,0.09,0.89c-0.02,0.24-0.15,0.47-0.49,0.35c-0.29-0.29-0.12-0.79-0.54-1.13c-0.52,0.07-1.06-0.25-1.61-0.31
			c-0.14,0.17-0.23,0.29-0.48,0.6c-0.08-0.61-0.39-0.83-0.82-1.02c-0.82-0.37-1.08-1.07-0.83-1.98c0.24-0.84,0.52-1.67,0.79-2.52
			C194.13,68.2,194.34,68.14,194.55,68.08z M187.07,98.32c1.21-0.81,2.2-1.46,3.17-2.13c0.16-0.11,0.27-0.29,0.38-0.45
			c0.81-1.18,1.57-2.4,2.58-3.44c0.12-0.12,0.16-0.27,0.13-0.44c-1.84-0.61-5.58-1.45-6.47-1.42
			C186.87,92.97,187.22,95.5,187.07,98.32z M193.18,67.39c0.76-0.04,1.07-0.5,1.41-0.94c0.31-0.4,0.3-0.88,0.39-1.34
			c0.02-0.11-0.08-0.23-0.21-0.24c-0.11,0-0.27,0.01-0.31,0.08c-0.13,0.19-0.24,0.41-0.3,0.63c-0.07,0.23-0.11,0.44-0.38,0.54
			C193.22,66.33,193.25,66.82,193.18,67.39z M192.57,66.73c-0.4,0.2-0.24,0.53-0.19,0.81c0.06,0.29,0.25,0.23,0.44,0.1
			C192.74,67.34,192.65,67.04,192.57,66.73z"/>
		<path d="M129.48,159.12c0,1.28,0,2.57,0,3.85C129.35,161.69,129.23,160.4,129.48,159.12z"/>
		<path d="M129.69,163.5c0,0.52,0,0.82,0,1.11C129.59,164.32,129.49,164.03,129.69,163.5z"/>
		<path d="M174.37,144.86c0.55,0.26,0.53,0.63,0.81,1.03C174.62,145.62,174.64,145.26,174.37,144.86z"/>
	</g>
	<g>
		<path fill="#1A1A1A" d="M256.33,80.36c-0.07-0.09-0.14-0.2-0.22-0.28c-1.68-1.63-2.22-3.72-2.43-5.95
			c-0.19-1.98-0.44-3.94-0.97-5.88c-0.24-0.88-0.52-1.73-0.83-2.58c-0.11-0.3-0.23-0.59-0.16-0.98c2.34-1.27,3.16-3.22,2.37-5.79
			c0.97-0.68,1.9-0.5,2.75,0.01c1.28,0.77,2,1.93,2.04,3.45c0.02,0.75,0.07,1.51-0.13,2.26c-0.27,0.98-0.76,1.82-1.54,2.55
			c0.66,0.22,0.9-0.34,1.35-0.55c0.35,0.56,0.59,1.19,1.01,1.72c0.31,0.39,0.31,0.87,0.26,1.37c-0.04,0.46-0.34,0.91-0.12,1.46
			c0.65-0.6,0.28-1.44,0.57-2.08c2.27,0.38,3.57,2.13,3.89,4.28c0.2,1.33-0.03,2.6-0.47,3.86c-0.1,0.28-0.33,0.56-0.2,0.9
			c0.26-0.03,0.34-0.23,0.42-0.39c0.89-1.84,1.11-3.73,0.4-5.68c-0.05-0.15-0.11-0.31-0.2-0.44c-0.25-0.37,0.13-0.88-0.3-1.2
			c-0.32-0.24-0.61-0.51-1.01-0.84c0.44-0.08,0.79-0.14,1.29-0.23c-0.66-0.67-1.38-1.02-2.18-1.33c0.06-0.43,0.46-0.62,0.69-0.92
			c0.24-0.31,0.5-0.61,0.72-0.87c0.34-0.04,0.41,0.35,0.77,0.24c-0.77-2.32-0.12-4.16,1.97-5.46c-0.14,0.35-0.46,0.54-0.69,0.81
			c-0.49,0.59-0.91,1.21-1.02,1.99c-0.03,0.22-0.05,0.43,0.25,0.63c0.28-1.1,0.8-1.98,1.46-2.79c0.15-0.18,0.32-0.37,0.22-0.64
			c0.4-0.91,1.26-1.17,2.09-1.41c1.02-0.3,1.62-0.21,3.03,0.21c0.16-0.22,0.07-0.58,0.46-0.6c-0.37-0.55-0.9-0.23-1.28-0.43
			c-0.1-0.22,0.04-0.38,0.17-0.51c1.69-1.75,3.16-3.7,4.76-5.53c2.08-2.37,4.16-4.74,6.33-7.03c2.14-2.26,4.28-4.53,6.43-6.78
			c0.74-0.78,1.55-1.51,2.28-2.29c2.56-2.75,5.35-5.27,8.05-7.87c2.44-2.35,4.89-4.7,7.61-6.75c0.96-0.72,1.86-1.51,2.74-2.32
			c1.71-1.57,3.6-2.9,5.44-4.31c0.64-0.49,1.17-1.03,1.7-1.62c1.13-1.25,2.48-2.27,3.97-3.06c1.34-0.71,2.72-1.34,4.23-1.63
			c0.27-0.05,0.55-0.14,0.83-0.13c1.21,0.05,2.36-0.26,3.52-0.55c4.21-1.08,8.41-2.2,12.69-2.99c3.49-0.65,6.98-1.3,10.46-1.97
			c3.29-0.63,6.61-1.09,9.94-1.45c2.06-0.22,4.13-0.33,6.19-0.52c4.1-0.38,8.21-0.37,12.32-0.44c0.28-0.01,0.58-0.05,0.83,0.04
			c0.65,0.21,1.25,0.06,1.88-0.09c1.84-0.45,3.7-0.59,5.58-0.25c2.05,0.37,4.06,0.91,5.85,2.03c1.07,0.67,2.27,0.97,3.42,1.4
			c4.04,1.49,8.11,2.93,12.16,4.38c1.54,0.55,3.02,1.27,4.52,1.92c0.68,0.3,1.31,0.62,2.15,0.47c0.58-0.1,1.25,0.11,1.82,0.43
			c-0.19,0-0.41-0.04-0.4,0.39c0.97,0.25,1.72,1.07,2.98,1.33c-0.8-0.97-1.79-1.23-2.61-1.74c1.72,0.25,3.14,1.12,4.43,2.23
			c0.59,0.51,0.75,1.26,0.78,1.96c0.07,1.5,0.48,2.91,0.82,4.35c0.07,0.27,0.15,0.54,0.18,0.82c0.12,1.16-0.34,1.69-1.13,1.99
			c-1.2,0.45-2.33,0.29-3.52-0.24c0.5-0.93-0.07-1.53-0.6-2.12c-0.8-0.9-1.72-1.67-2.66-2.41c-3.11-2.42-6.51-4.34-10.19-5.75
			c-3.39-1.3-6.79-2.59-10.29-3.57c-0.58-0.16-1.29-0.07-1.69-0.73c-0.06-0.11-0.38-0.12-0.56-0.08c-1.86,0.39-3.64-0.1-5.43-0.48
			c-1.73-0.36-3.41-0.87-5.02-1.56c-1.41-0.6-2.85-0.87-4.4-0.88c-1.92-0.01-3.83-0.04-5.74,0.17c-0.75,0.08-1.52,0.07-2.27,0.09
			c-3.67,0.08-7.32,0.46-10.96,0.85c-3.1,0.33-6.15,0.89-9.22,1.42c-3.03,0.53-6.05,1.06-9.04,1.78c-3.96,0.95-7.93,1.86-11.78,3.2
			c-0.11,0.04-0.26,0.14-0.33,0.1c-0.78-0.42-1.16,0.24-1.64,0.59c-2.96,2.15-6.05,4.03-9.69,4.81c-0.23,0.05-0.47,0.1-0.7,0.14
			c-0.59,0.11-1.05,0.35-1.52,0.81c-0.87,0.86-1.94,1.54-2.89,2.33c-3.1,2.58-6.21,5.14-9.06,8.02c-1.46,1.48-3.07,2.8-4.54,4.26
			c-2.52,2.5-5.12,4.94-7.52,7.56c-0.89,0.97-1.86,1.87-2.8,2.8c-1.96,1.95-3.61,4.16-5.42,6.24c-2.61,2.99-4.8,6.29-7.09,9.51
			c-0.51,0.72-1.15,1.45-1.02,2.47c-0.67-0.04-0.81-0.65-1.15-0.94c-0.32,0.16-0.24,0.35-0.16,0.54c0.21,0.48,0.67,0.75,1.09,1.17
			c-0.49,0.17-0.86,0.23-1.26,0.15c-0.38-0.29-0.16-0.96-0.71-1.16c0.09,1.28,0.09,1.28-0.75,2.04c0.14,0.24,0.32,0.11,0.49,0.06
			c0.49-0.15,0.98-0.32,1.49-0.44c1.13-0.26,2.13-0.03,3.08,0.57c0.1,0.06,0.21,0.11,0.31,0.16c0.03,0.02,0.08,0.01,0.19,0.03
			c0.01-0.67,0.44-0.87,1.04-1.03c1.81-0.5,3.57-1.14,5.34-1.79c2.29-0.84,4.64-1.46,6.99-2.12c3.42-0.96,6.82-1.98,10.28-2.81
			c4-0.95,7.98-1.97,11.98-2.9c5.09-1.18,10.19-2.33,15.37-3.05c0.75-0.1,1.49-0.26,2.25-0.26c0.38,0,0.78-0.15,1.15-0.28
			c2.48-0.9,5.05-1.18,7.66-1.05c3.11,0.16,6.07,0.89,8.73,2.62c0.33,0.21,0.64,0.45,1.1,0.33c0.24-0.06,0.54,0.08,0.8,0.16
			c3.33,0.97,6.7,1.82,10.06,2.67c2.59,0.66,5.18,1.34,7.73,2.16c4.87,1.56,9.71,3.21,14.55,4.84c4.51,1.52,8.88,3.37,13.19,5.39
			c2.02,0.95,4.02,1.96,6.03,2.95c0.35,0.17,0.79,0.28,0.68,0.84c2.15,0.44,4.02,1.37,5.7,2.72c1.79,1.44,3.06,3.24,3.98,5.32
			c0.14,0.33,0.27,0.67,0.43,0.99c0.15,0.3,0.2,0.69,0.72,0.63c0.14-0.01,0.34,0.3,0.48,0.49c2.02,2.83,3.94,5.72,5.67,8.75
			c1.19,2.08,2.41,4.15,3.43,6.32c1.18,2.49,2.41,4.96,3.41,7.53c0.36,0.92,0.61,1.85,1.42,2.49c1.24,2.19,1.98,4.44,1.05,6.97
			c-0.3,0.82-0.8,1.47-1.43,2.03c-0.75,0.67-1.65,0.77-2.59,0.53c-2.73-0.71-4.2-2.71-4.52-5.41c-0.21-1.77-0.05-3.5,0.63-5.18
			c0.33-0.82,0.26-0.83,0.05-1.97c-0.32-1.7-0.9-3.31-1.57-4.89c-0.6-1.44-1.32-2.82-2.08-4.18c-1.51-2.68-3.02-5.36-4.89-7.82
			c-0.29-0.38-0.58-0.76-0.88-1.14c-0.24-0.32-0.59-0.6-0.71-0.96c-0.28-0.85-0.96-1.21-1.68-1.55c-3.01-1.41-5.26-3.72-7.31-6.25
			c-0.73-0.9-1.53-1.74-2.16-2.71c-0.12-0.19-0.33-0.43-0.53-0.46c-1.07-0.19-1.84-0.93-2.74-1.43c-1.86-1.03-3.79-1.89-5.73-2.72
			c-3.05-1.3-6.18-2.4-9.26-3.61c-3.95-1.55-7.98-2.82-12.05-3.99c-4.91-1.41-9.85-2.72-14.84-3.81c-2.07-0.45-4.09-1.09-6.18-1.42
			c-0.31-0.05-0.62-0.14-0.89-0.48c-0.3-0.38-0.9-0.22-1.37-0.19c-1.4,0.1-2.8,0.11-4.2,0.06c-2.79-0.11-5.57-0.41-8.27-1.2
			c-0.74-0.22-1.46-0.42-2.19,0c-2.55,0.24-5.02,0.92-7.53,1.36c-3.7,0.64-7.32,1.62-10.98,2.45c-5.02,1.14-9.98,2.54-14.95,3.88
			c-3.28,0.88-6.56,1.76-9.77,2.84c-2.04,0.69-4.06,1.43-6.08,2.18c-0.71,0.26-1.29,0.61-1.75,1.16c-0.7,0.84-1.06,1.71-0.5,2.85
			c0.34,0.69,0.73,1.15,1.37,1.54c1.27,0.77,2.61,1.38,3.97,1.95c2.36,0.99,4.76,1.85,7.16,2.73c2.21,0.81,4.36,1.78,6.52,2.73
			c2.56,1.12,5.14,2.19,7.74,3.22c3.49,1.39,6.86,3.05,10.28,4.59c0.87,0.39,1.75,0.78,2.61,1.2c0.35,0.17,0.81,0.25,0.72,0.81
			c2.39,0.21,4.63,0.81,6.77,1.7c2.84,1.18,5.33,2.89,7.24,5.36c0.61,0.79,1.26,1.55,1.87,2.34c0.2,0.26,0.36,0.51,0.77,0.41
			c0.2-0.05,0.37,0.12,0.52,0.25c2.41,2.09,4.84,4.17,7.24,6.27c1.89,1.66,3.76,3.34,5.64,5.02c2.02,1.81,4.01,3.66,6.05,5.45
			c1.86,1.64,3.7,3.3,5.43,5.07c2.62,2.69,5.29,5.33,7.89,8.04c1.19,1.24,2.37,2.5,3.36,3.89c0.99,1.39,2.3,2.39,3.6,3.42
			c3.28,2.58,5.65,5.83,7.19,9.7c0.23,0.58,0.5,1.09,1.01,1.56c0.56,0.51,0.87,1.32,1.25,2.02c1.97,3.61,3.64,7.37,5.28,11.14
			c1.02,2.35,2,4.71,2.83,7.12c0.56,1.64,1.4,3.1,2.35,4.52c1.02,1.52,1.43,3.23,1.46,4.99c0.04,2.12-0.85,3.82-3.21,4.47
			c-0.48,0.13-0.93,0.09-1.41,0c-1.59-0.3-2.76-1.1-3.55-2.55c-0.55-1.01-0.87-2.07-0.96-3.18c-0.07-0.79,0.13-1.58,0.33-2.36
			c0.3-1.12,0.7-2.21,1.17-3.23c-0.01-0.32-0.3-0.45-0.34-0.76c-0.37-2.63-1.22-5.12-2.3-7.53c-1.16-2.59-2.33-5.17-3.74-7.64
			c-0.52-0.9-1.1-1.76-1.62-2.66c-0.28-0.49-0.79-0.9-0.64-1.59c0.05-0.23-0.23-0.4-0.4-0.57c-0.75-0.77-1.62-1.42-2.42-2.14
			c-3.09-2.73-5.31-6.04-6.93-9.8c-0.09-0.22-0.17-0.45-0.23-0.68c-0.09-0.4-0.27-0.63-0.66-0.87c-0.52-0.32-0.87-0.92-1.26-1.42
			c-0.69-0.88-1.48-1.68-2.27-2.47c-1.81-1.8-3.65-3.58-5.41-5.43c-1.6-1.68-3.28-3.27-4.93-4.9c-1.28-1.26-2.64-2.43-3.97-3.64
			c-2.46-2.23-5.03-4.31-7.54-6.48c-3.5-3.03-6.96-6.11-10.47-9.13c-0.59-0.51-1.39-0.79-1.74-1.59c-0.07-0.17-0.4-0.25-0.62-0.32
			c-3.24-1.04-6.04-2.89-8.81-4.79c-1.35-0.93-2.69-1.88-3.7-3.21c-0.12-0.15-0.29-0.36-0.49-0.28c-0.63,0.23-1.07-0.21-1.56-0.43
			c-3.17-1.42-6.32-2.89-9.51-4.26c-1.94-0.83-3.95-1.51-5.93-2.27c-2.95-1.13-5.89-2.26-8.83-3.39c-3.2-1.23-6.42-2.43-9.7-3.46
			c-0.38-0.12-0.77-0.16-1.03-0.53c-0.17-0.24-0.51-0.19-0.78-0.23c-0.83-0.12-1.66-0.21-2.53-0.31c-0.11-0.18-0.22-0.38-0.36-0.61
			c0.18-0.24,0.33-0.47,0.52-0.67c1.12-1.17,1.1-3.61-0.11-4.97c-0.47-0.53-0.96-1.04-1.36-1.71c-0.13,0.42-0.42,0.59-0.73,0.81
			c0.23,0.13,0.39,0.25,0.57,0.32c1.97,0.81,2.92,4.02,0.48,5.98c-1.08,0.86-2.34,1.36-3.69,1.63c-0.47,0.1-0.94,0.18-1.42,0.22
			c-1.27,0.1-2.47-0.12-3.49-0.93c-0.27,0.26-0.01,0.39,0.09,0.5c0.49,0.53,1.13,0.73,1.82,0.82c0.38,0.05,0.78,0.06,1.3,0.1
			c-0.39,0.42-0.81,0.52-1.18,0.71c-0.09-0.13-0.16-0.31-0.21-0.31c-0.51,0.04-1.03,0.1-1.35,0.58c-0.16,0.23-0.3,0.47-0.46,0.7
			c-1.1,1.59-2.73,2.81-4.41,3.29c0.58,0.22,0.58,0.22,1.48,0.03c0.17,0.2-0.12,0.33-0.06,0.55c0.14,0.01,0.29,0.02,0.45,0.03
			c0.01,0.07,0.05,0.15,0.03,0.22c-0.9,4.09-1.6,8.22-2.38,12.34c-0.8,4.2-1.75,8.37-3.12,12.42c-0.7,2.07-1.26,4.21-2.2,6.2
			c-1.69,3.57-3.93,6.77-6.8,9.49c-0.93,0.88-2.01,1.59-3.15,2.17c-1.32,0.66-2.74,0.5-4.11,0.17c-1.2-0.29-2.35-0.73-3.48-1.26
			c-2.69-1.25-5.25-2.71-7.69-4.39c-2.86-1.98-5.76-3.89-8.71-5.72c-3.4-2.1-6.8-4.18-10.36-6.01c-0.85-0.44-1.73-0.82-2.61-1.19
			c-1.72-0.73-3.07-1.86-3.86-3.58c-0.52-1.14-0.73-2.36-0.87-3.59c-0.02-0.22,0.07-0.48-0.23-0.67c-0.22,1.56,0.03,3.02,0.58,4.46
			c0.57,1.48,1.7,2.43,3.13,3.4c-1-0.04-1.59-0.66-2.4-0.66c0.49,0.57,0.49,0.57,1.07,0.8c0.45,0.18,0.9,0.33,1.34,0.5
			c0.05,0.21-0.08,0.29-0.23,0.37c-0.14,0.07-0.28,0.16-0.32,0.35c0.29,0.32,0.66-0.23,0.97,0.08c-0.03,0.33-0.28,0.56-0.46,0.8
			c-2.29,3.16-3.77,6.67-4.43,10.51c-0.74,4.31-0.23,8.43,2.13,12.21c0.16,0.26,0.42,0.49,0.39,0.88c-0.69,0.27-1.38-0.36-2.1-0.07
			c0.19,0.34,0.5,0.4,0.8,0.46c1.25,0.24,2.51,0.46,3.79,0.55c3.69,0.27,7.27,1.02,10.63,2.61c2.02,0.95,3.72,2.33,5.23,3.95
			c1.56,1.67,2.9,3.49,3.91,5.57c1.21,2.47,1.89,5.08,2.27,7.78c0.19,1.34,0.36,2.69,0.39,4.04c0.02,1.31-0.13,2.62-0.36,3.92
			c-0.53,2.93-1.38,5.75-2.98,8.29c-0.74,1.18-1.6,2.3-2.39,3.45c-0.33,0.48-0.73,0.93-0.93,1.46c0.23,0.27,0.39-0.13,0.58,0.04
			c-2.17,6.5-5.1,12.65-8.88,18.37c-1.85,2.8-3.75,5.57-5.68,8.31c-1.17,1.67-2.46,3.25-3.67,4.89c-0.77,1.03-1.39,2.15-1.71,3.4
			c-0.14,0.55-0.2,1.09,0.38,1.65c-0.05-1.14,0.16-2.1,0.8-2.96c0.01,0.63,0.78,1.1,0.27,1.82c-0.12,0.17,0.1,0.37,0.25,0.49
			c0.59,0.41,1.14,0.87,1.77,1.22c2.01,1.12,3.8,2.5,5.24,4.31c1.97,2.45,3.16,5.25,3.68,8.35c0.33,1.97,0.56,3.95,0.46,5.95
			c-0.09,1.67,0.07,3.35-0.14,5.03c-0.1,0.74-0.04,1.51,0.07,2.27c0.11,0.74,0.06,1.51,0.06,2.27c0.01,4.51,1.08,8.77,3,12.83
			c0.32,0.68,0.74,1.33,0.96,2.06c0.11,0.36,0.39,0.58,0.67,0.82c1.34,1.14,2.33,2.51,2.83,4.21c0.66,2.25,0.77,4.46-0.18,6.67
			c-0.68,1.58-1.78,2.75-3.27,3.53c-1.49,0.78-2.99,1.51-4.69,1.76c-0.66,0.1-1.29,0.35-1.82,0.79c0.1,0.35,0.34,0.1,0.6,0.21
			c-1.92,1.34-3.54,2.93-5.08,4.63c-0.08-0.02-0.18-0.06-0.34-0.1c-0.09,0.3-0.21,0.59-0.25,0.9c-0.45,3.28-2.38,5.26-5.41,6.4
			c-2.06,0.77-4.14,0.73-6.26,0.49c-0.48-0.05-0.95-0.12-1.42-0.23c-0.57-0.13-0.63-0.21-1.04-0.86c-1.08,0.31-2.06,1.06-3.3,0.93
			c-0.06-0.13-0.12-0.28-0.19-0.44c-2.49,2.02-5.36,2.42-8.44,2.09c0.02-0.15,0-0.26,0.04-0.28c1.55-0.86,1.77-2.29,1.54-3.83
			c-0.14-0.94-0.32-1.89-0.53-2.82c-0.31-1.37-1.09-2.39-2.73-2.61c0.88-1.25,1.97-1.95,3.37-2.1c1.36-0.15,2.6,0.23,3.71,1.06
			c0.4,0.3,0.77,0.69,1.33,0.86c0.11-0.56-0.59-0.65-0.54-1.16c1.25-0.07,2.49-0.26,3.83-0.92c-1.22-0.15-2.17,0.35-3.3,0.3
			c0.45-0.43,0.91-0.48,1.32-0.5c1.19-0.06,1.61-0.2,2.28-1.07c0.15-0.2,0.34-0.33,0.53-0.47c2.26-1.62,4.06-3.71,5.86-5.79
			c0.89-1.03,1.73-2.09,2.62-3.12c0.76-0.88,1.43-1.82,2.06-2.8c0.59-0.92,1.07-1.87,1.33-2.93c0.03-0.12,0.01-0.27,0.08-0.35
			c0.59-0.67,0.36-1.4,0.2-2.15c-0.54-2.6-1.55-5.03-2.67-7.42c-1.02-2.17-1.99-4.36-3.04-6.51c-0.93-1.9-1.98-3.74-2.92-5.64
			c-1.44-2.9-2.84-5.81-4.23-8.73c-1.07-2.24-2.15-4.46-3.35-6.63c-0.26-0.46-0.68-0.89-0.46-1.52c0.09-0.25-0.15-0.44-0.29-0.62
			c-0.67-0.84-1.34-1.69-2.05-2.5c-2.23-2.55-3.44-5.52-3.91-8.85c-0.15-1.1-0.06-2.14,0.1-3.21c0.1-0.71,0.22-1.41,0.33-2.1
			c0.15-0.28,0.36,0.13,0.56-0.13c-0.09-0.41-0.18-0.88-0.3-1.33c-0.59-2.29-0.86-4.63-0.88-6.99c-0.02-2.44,0.03-4.88,0.08-7.32
			c0.02-0.75,0.11-1.51,0.2-2.26c0.27-2.5,0.69-4.98,1.23-7.43c0.54-2.46,1.15-4.9,1.96-7.28c1.03-3.07,2.34-6.03,3.74-8.95
			c1.3-2.71,2.33-5.51,3.33-8.34c0.57-1.61,0.65-3.28,0.55-4.97c-0.03-0.39-0.06-0.79-0.11-1.35c-0.33,0.55-0.49,0.97-0.39,1.46
			c0.34,1.59-0.05,3.1-0.5,4.59c-0.79,2.56-1.84,5.02-2.97,7.45c-0.05,0.1-0.16,0.17-0.31,0.33c-3.69-4.59-5.46-9.86-6.09-15.56
			c0.22-0.18,0.25,0.18,0.48,0.01c0.11-0.58-0.25-1.09-0.51-1.6c-0.77-1.51-1.29-3.11-1.61-4.75c-0.49-2.5-0.41-5,0.1-7.5
			c0.11-0.54,0.22-1.09,0.32-1.55c-0.07-0.3-0.37-0.13-0.39-0.29c-0.1-0.67-0.23-1.38,0.07-1.99c0.15-0.31,0.15-0.49,0.02-0.73
			c-1.28-2.32-1.8-4.85-2.08-7.44c-0.08-0.71-0.25-1.41-0.2-2.22c0.74-0.01,1.41,0.27,2.09,0.37c2.34,0.35,4.53-0.08,6.65-1.02
			c3.13-1.39,5.3-3.79,6.82-6.79c0.34-0.67,0.83-1.26,1.09-1.97c-0.27-0.19-0.59-0.25-0.55-0.68c0.03-0.42,0.09-0.87-0.09-1.3
			c-0.21,0.12-0.19,0.28-0.19,0.43c0.05,1.84-0.64,3.44-1.64,4.92c-2.17,3.19-5.15,5.24-8.96,5.89c-2.21,0.38-4.37,0.01-6.34-1.18
			c-1.1-0.67-2.16-1.36-2.93-2.43c-0.23-0.33-0.48-0.63-0.61-1.11c0.78-0.32,1.63-0.55,2.23-1.19c-0.18-0.27-0.37-0.16-0.54-0.08
			c-0.29,0.13-0.57,0.29-0.86,0.41c-0.7,0.3-1.36,0.18-1.87-0.36c-0.55-0.58-0.92-1.27-1.17-1.99c0.57-0.62,1.57,0.43,1.9-0.7
			c-0.04-0.15-0.24-0.22-0.42-0.38c-0.68,0.35-1.39,0.47-2.13,0.1c-0.58-0.29-0.98-0.86-0.79-1.44c0.17-0.52,0.15-1.02,0.14-1.53
			c-0.03-1.11,0.81-1.61,1.66-1.64c0.65-0.03,1.24,0.17,2,0.67c-0.26-0.83-0.84-0.96-1.18-1.3c0.06-0.78,0.73-0.08,1.03-0.44
			c0.24-0.29,0.65-0.44,0.99-0.66c0.35-0.23,0.82-0.3,1.07-0.67c-0.27-0.35-0.55,0.19-0.68,0.02c-0.18-0.15-0.16-0.21-0.08-0.27
			c0.57-0.42,1.16-0.49,1.79-0.14c0.17,0.09,0.34,0.2,0.56,0.1c-0.16-0.59-0.81-0.48-1.14-0.93c0.77-0.99,1.72-1.82,2.72-2.6
			c1.45-1.13,2.99-2.14,4.53-3.14c0.5-0.32,0.95-0.73,1.41-1.11c0.13-0.11,0.33-0.22,0.28-0.47c-0.32-0.18-0.47,0.25-0.85,0.18
			c0.24-0.52,0.53-0.97,1.01-1.24c0.42-0.24,0.8-0.4,0.86-1.02c0.03-0.37,0.47-0.62,0.92-0.56c2.26,0.27,4.53,0.48,6.44,1.93
			c0.51,0.38,1.08,0.68,1.63,1.01c0.17,0.1,0.35,0.19,0.65,0.02c-0.85-0.66-1.82-1.11-2.53-1.93c0.25-0.36,0.68,0.04,0.94-0.22
			c0.06-0.06,0.05-0.13-0.05-0.17c-1.16-0.49-2.41-0.56-3.63-0.72c-4.08-0.53-8.11-1.36-12.06-2.52c-3.1-0.91-6.18-1.91-9.17-3.14
			c-1.62-0.67-3.29-1.24-4.85-2.06c-1.21-0.64-2.26-1.45-3.15-2.51c-2.78-3.31-5.26-6.84-7.81-10.32c-2.41-3.28-4.93-6.49-7.61-9.55
			c-1.37-1.56-2.85-3.02-4.29-4.52c-0.16-0.17-0.37-0.3-0.54-0.43c-0.29,0.07-0.37,0.41-0.75,0.31c-2.49-0.66-4.83-1.64-6.99-3.06
			c-0.06-0.04-0.1-0.12-0.15-0.18c0-0.16,0.23-0.22,0.16-0.4c-0.22-0.29-0.57-0.24-0.86-0.35c-1.78-0.64-2.11-2.51-0.67-3.77
			c0.12-0.1,0.24-0.2,0.34-0.29c-0.03-0.27-0.08-0.51-0.07-0.74c0.01-0.23-0.01-0.48,0.14-0.7c0.44-0.18,0.74,0.47,1.2,0.21
			c-2.39-2.22-1.36-4.5,1.1-5.07c-0.18-0.28-0.29-0.56,0.24-0.76c0.44,0.54,0.9,1.13,1.69,1.69c-0.15-0.62-0.47-0.89-0.73-1.2
			c-0.56-0.69-0.73-1.46-0.59-2.34c0.15-0.9,0.65-1.44,1.49-1.67c0.46-0.13,0.94-0.16,1.41-0.23c0.22-0.16,0.15-0.34,0.03-0.54
			c0.64-0.66,1.42-0.79,2.32-0.72c0.2,0.84-0.25,1.61-0.08,2.4c0.04,0.17-0.38,0.14-0.32,0.45c0.12,0.29,0.43,0.41,0.68,0.6
			c0.32,0.24,0.7,0.44,0.93,0.75c0.56,0.78,1.35,1.04,2.24,1.22c0.86,0.17,1.7,0.43,2.55,0.65c0.51,0.13,1.02,0.17,1.56,0.06
			c0.47-0.73,0.99-1.42,1.64-2.03c0.92,0.65,1.24,1.53,1.32,2.44c0.15,1.72-0.18,3.34-1.45,4.63c-0.08-0.05-0.17-0.11-0.33-0.2
			c-0.16,0.66-0.21,1.26,0.23,1.82c0.35,0.44,0.64,0.92,1.02,1.33c2.12,2.29,4.31,4.49,6.76,6.43c1.69,1.34,3.34,2.72,5.02,4.08
			c1.39,1.13,2.81,2.24,4.19,3.39c1.51,1.25,2.98,2.54,4.35,3.94c0.73,0.74,1.34,1.57,1.96,2.36c-0.09,0.19-0.33,0.13-0.35,0.33
			c0.05,0.17,0.17,0.25,0.33,0.31c0.99,0.32,1.98,0.62,3.01,0.77c4.77,0.71,9.54,1.44,14.23,2.64c0.23,0.06,0.47,0.1,0.69,0.33
			c-0.5,0.16-0.97,0.31-1.46,0.47c0.05,0.49,0.38,0.65,0.69,0.81c1.4,0.69,2.79,1.39,4.2,2.05c2.92,1.36,5.38,3.27,7.25,5.91
			c0.18,0.26,0.33,0.55,0.49,0.82c0.14,0.24,0.21,0.53,0.5,0.69c0.47,0,0.88-0.29,1.33-0.43c1.5-0.47,3.02-0.72,4.59-0.38
			c0.68,0.15,1.27,0.47,1.83,0.85c0.54,0.37,0.76,0.91,0.77,1.54c0.01,0.89-0.3,1.32-1.18,1.51c-1.43,0.3-2.75,0.83-3.9,1.75
			c-0.34,0.27-0.71,0.52-0.87,1.05c0.39,0.06,0.57-0.25,0.78-0.42c1.14-0.93,2.4-1.58,3.87-1.78c2.39-0.33,4.53,0.25,6.32,1.87
			c1.96,1.77,3.07,4.07,3.82,6.55c0.28,0.92,0.59,1.82,0.96,2.7c0.13,0.29,0.22,0.52,0.67,0.42c0.28-0.07,0.48,0.36,0.7,0.59
			c2.09,2.21,4.22,4.37,6.52,6.36c1.61,1.39,3.47,2.41,5.29,3.49c0.1,0.06,0.2,0.13,0.3,0.2c0.12,0.41-0.23,0.66-0.33,0.99
			c-0.17,0.54-0.25,1.08-0.12,1.64c0.52,0.08,0.33,0.6,0.55,0.91c0.16-1.11,0.45-2.15,0.86-3.16c0.19,0.7-0.21,1.32-0.27,1.99
			c-0.06,0.67-0.1,1.34,0.04,2.09c0.42-0.41,0.28-0.87,0.34-1.27c0.34-2.13,1.23-4.05,2.29-5.89c1.54-2.66,3.16-5.28,4.77-7.9
			c0.79-1.3,1.55-2.61,2.13-4.02c0.55-1.33,1.22-2.6,1.65-3.98c0.98-3.14,1.59-6.34,1.99-9.6c0.1-0.79,0.03-1.6,0.02-2.4
			c0-0.53,0.11-1,0.64-1.26c0.31,0.23,0.62,0.48,1.09,0.31C257.02,80.49,256.69,80.4,256.33,80.36z M311.61,18.2
			c-1.14,0.69-1.29,0.83-1.66,1.58c0.74-0.4,1.38-0.77,1.83-1.39c0.48-0.2,0.82-0.59,1.19-0.92c0.15-0.13,0.24-0.31,0.03-0.49
			C312.44,17.27,311.99,17.71,311.61,18.2z M171.15,66.7c-0.16-0.36-0.34-0.7-0.84-0.82c0.12,0.47,0.38,0.73,0.67,0.97
			c-0.04,0.16-0.04,0.31,0.06,0.45c0.29,0.43,1.53,1.58,2.26,2.04C172.65,68.24,171.83,67.53,171.15,66.7z M211.39,92.93
			c0.42-1.09,1.54-1.49,2.25-2.3c-1.22,0.33-2.12,1.05-2.69,2.19c-0.01,0.03,0.01,0.08,0.02,0.12c0.06,0.39-0.37,0.68-0.26,1.18
			C211.16,93.79,211.35,93.41,211.39,92.93z M206.48,164.54c-0.14,0.33-0.02,0.51,0.02,0.7c0.35,1.56,0.25,3.1-0.46,4.54
			c-0.69,1.39-1.51,2.72-2.49,3.94c-0.72,0.9-1.46,1.79-2.37,2.52c-0.45,0.37-0.91,0.77-1.21,1.29c0.17,0.14,0.33,0.14,0.48,0.07
			c0.87-0.4,1.77-0.72,2.61-1.2c3.25-1.86,6.12-4.19,8.74-6.85c0.53-0.54,1.08-1.07,1.58-1.64c1.31-1.48,2.15-3.26,3.14-4.94
			c0.99-1.68,1.54-3.49,1.78-5.41c0.03-0.26,0.12-0.55-0.17-0.71c-0.23,0.04-0.29,0.19-0.37,0.33c-1.53,2.75-3.81,4.68-6.58,6.09
			c-0.89,0.46-1.83,0.78-2.8,1.04C207.76,164.49,207.11,164.36,206.48,164.54z M191.08,183.09c0.38-1.7,0.53-3.43,0.98-5.12
			c0.46-1.73,0.98-3.44,1.54-5.14c0.54-1.64,1.31-3.2,1.65-4.91c-0.58,0.55-0.76,1.29-1.05,1.97c-1.48,3.49-2.62,7.09-3.14,10.86
			C190.94,181.51,190.86,182.3,191.08,183.09z M216.15,260.29c-0.26-1.81-0.79-3.33-1.33-3.96c-0.25,0.35,0.26,0.85,0.01,0.99
			c-0.57,0.31-0.22,0.65-0.17,0.98c0.1,0.55,0.21,1.1,0.33,1.64c0.19,0.87,0.47,1.7,1.12,2.34c0.12,0.12,0.25,0.33,0.48,0.14
			c-0.91-1.7-1.2-2.46-1.02-2.69C215.72,259.88,215.86,260.01,216.15,260.29z M203.34,143.79c-0.99,1.44-2.12,7.83-1.64,9.91
			c0.64-3.27,0.84-6.38,1.68-9.36c0.04-0.14,0.02-0.31,0.03-0.46C203.41,143.85,203.36,143.82,203.34,143.79z M182.63,74.49
			c1.4,0.4,2.81,0.72,4.25,0.92c1.47,0.21,2.92,0.64,4.43,0.61C188.5,75.04,185.61,74.48,182.63,74.49z M175.91,84.73
			c-0.1-0.38-0.28-0.45-0.48-0.5c-0.62-0.15-1.24-0.3-1.86-0.45c-1.31-0.31-2.32-1.01-2.98-2.21c-0.36-0.66-0.78-1.3-1.18-1.94
			c-0.09-0.14-0.19-0.36-0.49-0.18c0.47,0.88,0.91,1.77,1.41,2.62c0.66,1.11,1.67,1.82,2.92,2.13
			C174.08,84.41,174.94,84.54,175.91,84.73z M185.03,101.76c2.15-1.93,4.79-3.12,7.45-4.71C190.28,97.32,186.07,99.98,185.03,101.76
			z M205.44,271.88c2.04-1.73,3.8-3.72,5.55-6.02c-0.56,0.12-0.74,0.39-0.94,0.6C208.45,268.21,206.86,269.96,205.44,271.88z
			 M263.49,82.55c0.2-0.21,0.07-0.46,0.03-0.66c-0.21-1.07,0.23-1.95,0.81-2.78c0.46-0.66,1.1-1.13,1.82-1.5
			c0.37-0.19,0.81-0.29,1.09-0.7c-1.26-0.05-2.88,0.99-3.64,2.32C263.02,80.26,262.96,81.79,263.49,82.55z M212.83,229.59
			c-0.43-1.34-0.99-2.65-1.33-4.02c-0.35-1.41-0.65-2.83-1-4.35C210.24,223.32,211.57,228.22,212.83,229.59z M334.65,50.67
			c2.09-0.57,4.23-0.31,6.58-0.42C339.39,49.42,336.15,49.63,334.65,50.67z M269.59,73.05c0.38,0.48,0.91,0.37,1.29,0.56
			c-0.27,0.63-0.87,1.06-0.59,1.98c0.59-1.77,2.16-2.16,3.42-2.97c-0.72-0.16-1.3,0.31-1.97,0.33
			C271.07,72.95,270.4,73,269.59,73.05z M267.73,70.69c0.26-0.69,0.02-1.39,0.28-2.04c0.26-0.64,0.79-1.14,1.04-2.09
			c-0.95,0.73-1.8,1.02-2.79,0.99c0.39,0.49,0.96,0.31,1.35,0.58C267.35,69,267.05,69.84,267.73,70.69z M246.62,108.42
			c-1.54,1.77-2.6,4.93-2.24,6.78C244.71,112.64,245.86,110.61,246.62,108.42z M189.33,133.77c-1.09,1.96-1.44,5.27-0.28,6.35
			C188.49,137.98,189.08,136.02,189.33,133.77z M198.79,214.73c-0.41,2.16,0.26,5.9,1.3,7.21c-0.18-1.2-0.61-2.35-0.82-3.55
			C199.06,217.18,198.86,215.97,198.79,214.73z M197.7,133.03c0-0.11,0.02-0.24,0-0.34c-0.41-1.6-0.56-3.21-0.25-4.85
			c0.05-0.26,0.11-0.57-0.14-0.95C196.47,129.11,196.64,131.12,197.7,133.03z M322.21,10.51c-0.22-0.11-0.26-0.15-0.28-0.14
			c-1.86,0.58-3.46,1.58-4.85,2.93c-0.12,0.12-0.15,0.27,0.06,0.46C318.64,12.48,320.4,11.57,322.21,10.51z M375.42,136.57
			c-0.06,0.12-0.1,0.17-0.09,0.18c1.33,1.52,2.77,2.95,4,4.55c0.03,0.04,0.13,0.03,0.3,0.07c-0.36-1.15-1.19-1.91-1.87-2.73
			C377.1,137.84,376.33,137.12,375.42,136.57z M230.59,104.35c0.03,0.33,0.01,0.43,0.04,0.47c1.19,1.46,2.51,2.78,4.01,3.91
			c0.17,0.13,0.34,0.37,0.69,0.07C233.7,107.46,232.2,105.99,230.59,104.35z M392.76,172.25c-0.13,0.02-0.22,0.01-0.26,0.05
			c-0.95,0.99-1.36,2.22-1.59,3.53c-0.07,0.42,0.01,0.84,0.49,1.25c0.08-0.94,0.05-1.77,0.37-2.57
			C392.08,173.76,392.65,173.11,392.76,172.25z M328.19,93.37c-0.88-0.95-2.02-1.49-3.2-1.93c-0.56-0.21-1.13-0.55-2.06-0.35
			C324.85,91.88,326.5,92.62,328.19,93.37z M190.86,213.01c0.05-0.6-0.17-1.16-0.13-1.75c0.04-0.59,0.03-1.19,0.03-1.78
			c0-0.55,0.36-1.08,0.1-1.83C190.05,209.57,189.92,211.3,190.86,213.01z M422.41,109.78c-0.35-1.87,0.47-3.37,0.81-4.97
			c-0.92,0.92-1.16,2.11-1.34,3.31C421.81,108.62,421.74,109.2,422.41,109.78z M407.63,73.91c-0.92-1.09-2.09-1.83-3.46-2.25
			c-0.26-0.08-0.53-0.19-0.76,0.22C404.96,72.27,406.16,73.3,407.63,73.91z M212.92,94.58c0.67-0.51,1.27-1.11,2.02-1.49
			c0.71-0.36,1.44-0.68,2.31-1.09C215.36,92.04,213.47,93.16,212.92,94.58z M207.14,154.14c-0.22,1.89,0.11,3.65,1.24,5.22
			C208.02,157.61,207.24,155.96,207.14,154.14z M275.59,53.55c-1.36,1.01-2.32,2.35-3.24,3.74c-0.06,0.09-0.04,0.23,0.15,0.38
			C273.6,56.37,274.51,54.9,275.59,53.55z M383.79,1.52c0.87,0.03,1.74,0.03,2.6,0.11c0.89,0.08,1.75,0.39,2.66,0.25
			C387.36,1.11,385.61,0.91,383.79,1.52z M279.42,65.52c0.48,1.83-0.69,3.06-1.65,4.54C279.66,68.86,280.31,67.02,279.42,65.52z
			 M211.82,137.6c0.17,0.12,0.22,0.19,0.27,0.19c1.59-0.01,3.16,0.22,4.73,0.49c0.15,0.03,0.35,0.07,0.48-0.18
			C215.52,137.48,213.75,137.32,211.82,137.6z M269.09,68.24c0.82-1.39,2.18-2.24,3.62-3.32C270.92,65.29,269.4,66.7,269.09,68.24z
			 M280.38,63.84c1.62-0.27,3.57-0.98,4.33-1.54C283.83,62.25,281.68,62.99,280.38,63.84z M192.34,154.87
			c-0.14-1.33-0.57-2.61-0.63-3.95c0-0.11-0.09-0.21-0.14-0.32c0-0.01-0.05,0.01-0.14,0.03
			C191.28,152.14,191.53,153.56,192.34,154.87z M192.55,279.15c-1.56-0.75-2.89-0.48-3.45,0.76
			C190.2,279.2,191.36,279.32,192.55,279.15z M264.3,81.32c0.25-1.4,1.22-2.19,1.88-3.2c-0.83,0.22-1.27,0.86-1.7,1.5
			C264.18,80.07,263.97,80.58,264.3,81.32z M143.62,41.72c-0.11-0.89,0.18-1.68,0.6-2.5c-0.56-0.08-0.75,0.17-0.88,0.53
			C143.07,40.44,143.03,41.1,143.62,41.72z M207.84,186.52c-1.15,1.56-1.6,2.84-1.33,3.73C206.8,188.99,207.45,187.94,207.84,186.52
			z M197.29,279.51c1.15-0.2,1.98-0.47,2.75-1.22C199.01,278.38,198.2,278.73,197.29,279.51z M256.45,82.44
			c-0.4,0.41-0.24,0.82-0.27,1.2c-0.03,0.43,0.06,0.87-0.08,1.3c-0.12,0.35-0.13,0.71,0.1,1.27
			C256.47,84.84,256.73,83.7,256.45,82.44z M188.03,125.23c-0.11-1.06-0.36-2.09-0.86-3.05
			C187.2,123.26,187.35,124.31,188.03,125.23z M271.76,75.27c0.6-0.68,1.52-0.85,2.24-1.45C272.81,73.74,272.07,74.2,271.76,75.27z
			 M219.26,268.81c0.65-0.91,1.18-1.64,1.7-2.37C220.12,266.96,219.31,267.49,219.26,268.81z M219.79,261.03
			c0.25-1.17,0.01-1.96-0.74-2.67C219.32,259.33,219.55,260.18,219.79,261.03z M205.27,139.01c0.67-0.55,1.46-0.89,2.44-1.43
			C206.41,137.61,205.75,138.18,205.27,139.01z M199.24,139.46c-0.11,1.05,0.04,2.28,0.35,3.11
			C199.7,141.53,199.58,140.61,199.24,139.46z M254.27,71.05c-0.4,0.63-0.65,1.26-0.04,2.1C254.39,72.34,254.34,71.69,254.27,71.05z
			 M158.5,53.98c-0.77-1-1.1-1.3-1.73-1.56C157.42,53.37,157.69,53.61,158.5,53.98z M255.46,75.03c-0.43,0.53-0.55,0.93-0.47,1.6
			c0.04,0.32-0.03,0.72,0.52,0.95C255.36,76.68,255.29,75.87,255.46,75.03z M149.35,54.32c0.32-0.64,0.56-1.3,0.55-2.16
			C149.26,52.85,149.13,53.53,149.35,54.32z M140.63,46.49c-0.05-0.85-0.08-1.41-0.11-2.05C139.93,45.12,139.94,45.46,140.63,46.49z
			 M204.65,283.79c0.05,0.07,0.1,0.14,0.15,0.21c0.59-0.44,1.19-0.87,1.78-1.31C205.68,282.66,205.11,283.13,204.65,283.79z
			 M179.94,106.23c-0.59-0.28-1.06-0.16-1.51,0.15c-0.17,0.12-0.28,0.29-0.03,0.5C178.87,106.64,179.45,106.64,179.94,106.23z
			 M152.01,43.93c-0.56-0.96-0.56-0.96-1.49-0.78C151.05,43.43,151.53,43.68,152.01,43.93z M328.71,51.52
			c-0.73-0.24-1.41-0.06-2.19,0.31C327.37,52,328.02,51.65,328.71,51.52z M266.38,73.82c-0.11,0.53-0.23,1.07-0.33,1.6
			c-0.02,0.1,0.06,0.21,0.12,0.42C266.58,75.14,266.69,74.49,266.38,73.82z M213.24,107.88c-0.06,0.07-0.12,0.14-0.18,0.2
			c0.33,0.5,0.59,1.08,1.35,1.13C214,108.74,213.62,108.31,213.24,107.88z M378.09,1.42c0.48,0.38,0.68,0.01,0.94,0.02
			c0.27,0.02,0.54-0.02,0.82-0.04C379.32,1.35,378.79,1.24,378.09,1.42z M201.49,95.67c0.21,0.92,0.69,1.22,1.27,1.45
			C202.57,96.54,202.16,96.16,201.49,95.67z M284.51,74.33c0.54,0.35,1,0.87,1.72,0.73C285.72,74.69,285.22,74.26,284.51,74.33z
			 M353.18,53.49c-0.65-0.38-1.21-0.56-2.03-0.33C351.87,53.47,352.43,53.68,353.18,53.49z M145.69,44.84
			c-0.29-0.44-0.56-0.94-1.26-1.13C144.75,44.34,145.07,44.74,145.69,44.84z M338.42,100.95c0.36,0.42,0.65,0.95,1.47,1.16
			C339.44,101.45,338.99,101.13,338.42,100.95z M210.19,108.59c-0.4-0.56-0.65-0.94-0.92-1.3c-0.03-0.04-0.12-0.05-0.32-0.12
			C209.17,107.8,209.37,108.28,210.19,108.59z M186.36,106.46c-0.01,0.5-0.38,1.01,0,1.77
			C186.36,107.47,186.36,106.96,186.36,106.46z M377.53,1.39c-0.56-0.24-1.02-0.2-1.76-0.02c0.63,0.08,0.98,0.13,1.33,0.15
			C377.2,1.54,377.31,1.47,377.53,1.39z M202.12,98.43c0.16-0.2,0.11-0.3,0.03-0.39c-0.24-0.29-0.49-0.58-0.73-0.87
			C201.41,97.75,201.62,98.18,202.12,98.43z M268.51,73.54c-0.48-0.51-0.79-0.85-1.11-1.18C267.44,72.95,267.72,73.32,268.51,73.54z
			 M341.14,103.43c-0.14-0.62-0.43-0.78-0.63-0.99c-0.13-0.14-0.3-0.26-0.52,0.02C340.3,102.72,340.62,102.99,341.14,103.43z
			 M201.19,94.73c0.25,0.36,0.49,0.77,1.16,0.87C202,95.07,201.66,94.82,201.19,94.73z M265.72,74.33c0.18-0.71,0.18-0.71-0.08-1.32
			C265.49,73.48,265.63,73.89,265.72,74.33z M252.72,65.17c-0.07,0.94-0.07,0.94,0.42,1.5C253.09,66.15,252.99,65.75,252.72,65.17z
			 M175.76,78.2c0.34,0.24,0.63,0.7,1.28,0.47C176.6,78.38,176.23,78.2,175.76,78.2z M256.17,59.53c-0.41-0.41-0.78-0.52-1.32-0.3
			C255.27,59.54,255.63,59.68,256.17,59.53z M391.63,169.86c0.45-0.05,0.68-0.22,0.86-0.6C391.99,169.2,391.77,169.37,391.63,169.86
			z M282.88,75.12c-0.43,0.37-0.64,0.68-0.64,1.19C282.66,76.04,282.89,75.76,282.88,75.12z M139.28,50.92
			c-0.34,0.71-0.34,0.71,0.1,1.03C139.5,51.6,139.4,51.29,139.28,50.92z M386.13,151.33c-0.11-0.56-0.24-0.92-0.79-1.31
			C385.53,150.58,385.59,150.98,386.13,151.33z M203.39,284.09c0.77-0.55,0.76-0.56,0.89-1.1
			C203.86,283.17,203.56,283.42,203.39,284.09z M423.25,101.88c-0.65,0.13-0.65,0.13-0.89,0.69
			C422.76,102.41,423.05,102.26,423.25,101.88z M279.87,69.52c0.33-0.5,0.33-0.5,0.23-0.94C279.95,68.86,279.74,69.06,279.87,69.52z
			 M261.72,79.75c-0.25-0.19-0.42-0.03-0.57,0.06c-0.1,0.06-0.29,0.13-0.19,0.34C261.29,80.15,261.54,80.04,261.72,79.75z
			 M171.35,81.03c-0.28-0.68-0.28-0.68-0.73-0.93C170.66,80.5,170.91,80.72,171.35,81.03z"/>
		<path fill="#1A1A1A" d="M179.2,204.52c0.35,0.02,0.18-0.42,0.53-0.5c0.21,0.96,0.32,1.99,1.14,2.9c-0.05-1.31-0.68-2.34-0.65-3.52
			c0.02-1.13,0.04-2.22,0.56-3.36c0.36,0.84,0.38,1.71,0.81,2.42c0.15,0.25-0.34,0.34-0.13,0.74c2.45,1.68,5,0.84,7.65-0.14
			c0.15,0.78,0.15,1.48,0.03,2.18c-0.25,1.5-0.41,3-0.43,4.52c-0.03,2.43,0.71,4.64,1.74,6.78c0.4,0.82,0.89,1.61,1.45,2.34
			c1.52,1.96,2.81,4.07,3.91,6.3c0.73,1.47,1.5,2.91,2.24,4.37c0.18,0.35,0.4,0.69,0.37,1.18c-1.24,0.58-2.48,1.2-3.75,1.75
			c-2.91,1.27-5.61,2.89-8.18,4.73c-2.75,1.97-5.64,3.62-8.9,4.6c-2.15,0.64-4.34,1.08-6.57,1.27c-1.24,0.11-2.46-0.17-3.69-0.27
			c-2.55-0.21-4.74-1.32-6.78-2.78c-1.85-1.33-3.69-2.65-5.27-4.32c-1.72-1.83-3.05-3.88-3.81-6.29c-0.72-2.27-1.08-4.58-0.97-6.96
			c0.09-2.08,0.37-4.13,0.96-6.13c0.11-0.36,0.29-0.73,0.02-1.23c-1.12,2.96-1.59,5.91-1.56,9c-0.31-0.18-0.36-0.42-0.42-0.64
			c-0.65-2.59-1.42-5.16-1.79-7.81c-0.32-2.29-0.57-4.59-0.68-6.9c-0.06-1.43-0.29-2.86-0.21-4.3c0.08-1.6,0.04-3.19,0-4.79
			c-0.09-3.78-0.64-7.47-2.06-11c-0.41-1.03-0.73-2.11-1.37-3.18c2.84,2.02,5.83,4.4,8.12,7.94c0.25-0.21,0.1-0.43-0.01-0.63
			c-0.89-1.58-1.96-3-3.35-4.18c-1.67-1.42-3.42-2.77-4.99-4.3c-3.28-3.21-6-6.83-7.73-11.14c-1.51-3.77-2.44-7.67-3.04-11.67
			c-0.38-2.53-0.65-5.06-0.62-7.62c0-0.27-0.08-0.55,0.16-0.9c0.97,1.28,1.8,2.63,2.92,3.74c1.17,1.15,2.27,2.38,3.51,3.44
			c1.2,1.03,2.38,2.09,3.75,3.08c0.14-0.8,0.25-1.45,0.37-2.1c0.53-2.89,1.76-5.46,3.49-7.81c0.57-0.77,1.15-1.53,1.77-2.26
			c1.55-1.84,3.39-3.39,5.21-4.94c2.07-1.77,4.06-3.61,5.81-5.7c0.79-0.94,1.86-1.36,3.02-1.57c0.61-0.11,1.17,0.06,1.7,0.41
			c1.7,1.12,2.98,2.63,4.2,4.23c2.29,3.01,3.43,6.47,3.94,10.15c0.16,1.14,0.2,2.31,0.12,3.47c-0.03,0.36-0.05,0.72-0.05,1.08
			c-0.01,0.36,0.01,0.72,0,1.08c-0.01,0.36,0.19,0.42,0.49,0.56c0.21,0.1,0.16,0.65,0.51,0.91c0.17-0.69-0.14-1.29-0.23-1.9
			c-0.1-0.72-0.15-1.43-0.13-2.15c0.05-2.74-0.4-5.39-1.26-8c-0.82-2.47-2.23-4.59-3.81-6.61c-0.51-0.66-1.06-1.28-1.67-2.03
			c0.95-0.05,1.65,0.22,2.16,0.86c2.44,3.07,4.66,6.29,6.59,9.71c1.04,1.84,1.86,3.8,2.64,5.77c1.61,4.09,2.86,8.3,3.72,12.62
			c0.48,2.39,0.85,4.79,1.07,7.21c0.17,1.87,0.1,3.75-0.02,5.63c-0.43,0.03-0.34-0.32-0.38-0.49c-0.5-2.02-1.28-3.95-2.17-5.82
			c-0.99-2.09-2.01-4.18-3.57-5.94c-0.31-0.35-0.57-0.74-1.06-0.88c-0.15,0.3,0.07,0.4,0.19,0.53c0.85,0.96,1.54,2.03,2.18,3.14
			c1.82,3.17,3.17,6.53,4.13,10.05c0.5,1.82,0.69,3.69,0.77,5.56c0.08,1.99,0.03,3.99-0.21,5.98c-0.22,1.83-0.67,3.61-1.24,5.36
			c-0.44,1.33-0.82,2.67-1.12,4.03c-0.09,0.39-0.16,0.78-0.05,1.19c-0.25,0.59-0.25,0.59-0.01,1.35
			C179.2,205.29,179.2,204.91,179.2,204.52z M181.22,223.19c-0.15-0.37,0.35-0.99-0.41-1.15c-0.06,0.57-0.06,0.57,0.25,1.29
			c0.12,0.8,0.67,1.11,1.43,1.21C182.07,224.08,181.64,223.63,181.22,223.19z M155.3,212.04c0.89-1.66,1.36-3.48,1.89-5.26
			c0.82-2.76,1.04-4.54,0.75-5.36c-0.04,0.14-0.09,0.25-0.11,0.36c-0.43,2.76-1.13,5.45-2.05,8.09c-0.23,0.67-0.61,1.31-0.64,2.04
			c-0.33,0.58-0.65,1.15-0.56,2.03C154.99,213.24,155.23,212.67,155.3,212.04z M177.18,181.57c0.2-0.21,0.15-0.38,0.11-0.52
			c-1.35-4.84-3.92-8.87-7.96-11.92c-0.14-0.1-0.28-0.14-0.41,0.01C173.2,173.52,173.56,173.12,177.18,181.57z M163.03,158.32
			c-2.68-2.2-4.5-4.91-5.24-8.55C157.28,152.47,160.5,157.72,163.03,158.32z M135.11,167.57c-0.39-1.52-0.78-2.8-0.93-4.13
			c-0.15-1.33-0.29-2.66-0.44-4.06C133.45,162.79,133.94,165.97,135.11,167.57z M175.81,162.39c0.01,2.24,0.47,4.38,1.35,6.61
			c0.08-0.29,0.16-0.4,0.14-0.49C176.81,166.47,176.31,164.43,175.81,162.39z M159.94,153.1c-0.12-0.86-0.64-1.57-0.87-2.38
			c-0.23-0.83-0.38-1.68-0.57-2.52C158.13,150.08,158.77,151.67,159.94,153.1z M187.04,205.04c-0.77,0.11-1.55,0.2-2.32,0.35
			c-0.8,0.15-1.52-0.27-2.43-0.33c0.53,0.68,1.14,0.76,1.79,0.76C185.11,205.8,186.18,205.89,187.04,205.04z M147.83,201.53
			c-0.08-0.02-0.16-0.03-0.25-0.05c-0.26,1.72-0.55,3.44-0.06,5.19C147.63,204.96,147.73,203.24,147.83,201.53z M180.32,223.04
			c-0.44-0.96-0.69-2.02-1.67-2.92C178.89,221.45,179.35,222.4,180.32,223.04z M167.15,145.15c-0.33-0.83-0.53-1.73-1.41-2.2
			C166,143.81,166.52,144.51,167.15,145.15z M171.59,147.47c0.37,0.93,0.83,1.78,1.56,2.47
			C172.96,148.92,172.33,148.15,171.59,147.47z M162.26,139.9c0.33,0.25,0.65,0.53,1,0.75c0.34,0.21,0.57,0.59,1.2,0.75
			C163.91,140.37,163.15,140.04,162.26,139.9z M159.34,163.12c-0.77-0.88-1.36-1.26-2.44-1.56
			C157.7,162.31,158.35,162.76,159.34,163.12z M178.72,205.73c-0.74,0.9-0.26,1.55,0,2.22C178.72,207.3,178.72,206.65,178.72,205.73
			z M155.81,160.13c-0.04,0.31,0.18,0.47,0.36,0.65c0.03,0.03,0.13,0,0.19,0c0.11-0.18,0.01-0.3-0.09-0.41
			C156.15,160.25,156.06,160.05,155.81,160.13z M153.67,200.91c-0.08,0.41-0.08,0.41,0.03,0.7
			C153.78,201.37,153.73,201.14,153.67,200.91z M158.18,199.95c-0.06,0.31-0.23,0.56,0.08,0.9
			C158.32,200.51,158.36,200.26,158.18,199.95z M178.22,218.42c0.03,0.02-0.45,0.34,0,0.48
			C178.35,218.66,178.23,218.44,178.22,218.42z M178.13,212.2c-0.03,0.17-0.32,0.27-0.17,0.49
			C178.22,212.61,178.18,212.4,178.13,212.2z M183.25,225c0.01,0.37,0.25,0.5,0.48,0.62c0.1,0.05,0.22,0.01,0.26-0.12
			C183.84,225.21,183.62,225.03,183.25,225z M152.69,196.24c-0.06,0.29-0.21,0.61,0.04,0.94
			C152.95,196.81,152.81,196.53,152.69,196.24z"/>
		<path fill="#1A1A1A" d="M338.58,180.05c0.34-0.68,0.82-1.24,1.51-1.67c0.52,1.06,0.71,2.22,1.28,3.11
			c0.38,0.05,0.51-0.09,0.63-0.25c0.44-0.59,0.73-1.26,0.85-1.96c0.17-1.01,0.33-2,0.72-2.98c0.35-0.87,0.42-1.87,0.5-2.81
			c0.1-1.07,0.3-2.14,0.25-3.22c-0.01-0.27,0.03-0.57-0.39-0.79c-0.08,1.08-0.14,2.11-0.24,3.14c-0.11,1.03-0.26,2.05-0.42,3.29
			c-0.52-1.18-0.14-2.41-1-3.43c-0.01,0.77,0.14,1.39,0.21,2.01c0.19,1.67,0.2,3.35-0.2,4.99c-0.11,0.44-0.13,0.96-0.66,1.23
			c-0.37-0.29-0.45-0.74-0.57-1.14c-0.6-2.03-1.34-4.01-2.22-5.94c-0.66-1.46-1.44-2.85-2.37-4.16c-1.46-2.05-2.89-4.13-4.58-6
			c-1.34-1.48-2.75-2.89-4.25-4.22c-1.34-1.2-2.72-2.35-4.22-3.35c-3.64-2.41-7.44-4.49-11.6-5.9c-3.64-1.23-7.35-2.17-11.13-2.78
			c-1.92-0.31-3.88-0.44-5.83-0.6c-2.75-0.23-5.5-0.27-8.26-0.26c-1.8,0.01-3.58,0.24-5.36,0.44c-2.22,0.25-4.43,0.5-6.65,0.76
			c-1.58,0.18-3.17,0.38-4.75,0.56c-2.22,0.24-4.44,0.46-6.66,0.7c-2.35,0.25-4.7,0.33-7.06,0.25c-2.87-0.09-5.74-0.25-8.57-0.76
			c-0.38-0.07-0.68-0.21-0.96-0.43c-0.79-0.62-1.57-1.23-2.35-1.86c-0.09-0.07-0.14-0.18-0.24-0.32c0.35-0.23,0.72-0.12,1.05-0.15
			c0.36-0.04,0.72-0.06,1.08-0.07c1.12-0.01,2.24-0.02,3.36,0c2.27,0.03,4.54-0.12,6.81-0.26c1.83-0.11,3.64-0.4,5.46-0.68
			c1.93-0.29,3.88-0.47,5.81-0.73c2.41-0.32,4.81-0.69,7.18-1.26c1.35-0.32,2.75-0.5,4.12-0.75c2.71-0.5,5.41-1,8.1-1.59
			c2.88-0.63,5.81-1.02,8.73-1.43c2.6-0.37,5.22-0.67,7.83-0.93c1.7-0.17,3.43-0.13,5.13-0.32c1.91-0.22,3.82-0.21,5.73-0.33
			c2.58-0.17,5.18-0.15,7.77,0.09c1.87,0.17,3.73,0.32,5.6,0.49c2.9,0.27,5.76,0.78,8.63,1.29c5.43,0.96,10.74,2.42,16.04,3.92
			c4.45,1.27,8.83,2.8,13.03,4.78c0.47,0.22,0.93,0.46,1.39,0.7c0.07,0.03,0.11,0.11,0.21,0.23c-0.99,1.12-1.99,2.24-2.98,3.36
			c-1.62,1.83-2.98,3.86-4.34,5.88c-1.83,2.72-3.71,5.41-5.34,8.25c-0.77,1.35-1.48,2.74-2.2,4.12c-1.27,2.4-2.52,4.8-3.85,7.18
			c0.27-1.39,0.81-2.68,1.25-4.01c0.33-0.97,0.92-1.87,0.84-2.97c-0.02-0.24,0.21-0.51,0.34-0.75c0.27-0.53,0.55-1.06,0.83-1.6
			c0.15-0.29,0.27-0.58,0.15-0.92c-0.27-0.24-0.51-0.17-0.69,0.11c-0.08,0.13-0.17,0.29-0.16,0.44c0.02,0.88-0.43,1.6-0.79,2.36
			c-0.32,0.67-0.79,1.3-0.56,2.13c0.04,0.12-0.09,0.3-0.15,0.45c-1.25,3.28-2.32,6.63-3.19,10.03c-0.27,1.05-0.63,2.06-1.16,3.01
			c-0.1,0.18-0.18,0.35-0.37,0.44c-0.14-0.02-0.21-0.12-0.24-0.24c-0.18-0.73-0.74-1.04-1.39-1.15c-1.58-0.27-3.02,0.03-4.2,1.18
			c-0.29,0.28-0.58,0.55-0.89,0.84c-0.29-0.06-0.35-0.37-0.45-0.6c-0.92-1.97-0.75-3.87,0.45-5.68c0.08-0.12,0.25-0.19,0.37-0.29
			c-0.03,0.38-0.34,0.62-0.48,0.94c-0.31,0.7-0.64,1.41-0.31,2.42c0.39-1.18,0.71-2.19,1.22-3.11c0.04-0.06,0.06-0.17,0.03-0.23
			C338.74,180.21,338.65,180.13,338.58,180.05z M347.21,160.37c0.4-0.68,0.31-1.39,0.13-2.1c-0.12,0.7-0.26,1.4-0.11,2.11
			c-0.32,0.67-0.32,0.67-0.07,1.45c0.04-0.35,0.09-0.61,0.11-0.88C347.26,160.76,347.23,160.56,347.21,160.37z M348.69,160.09
			c0.84-1.88,1.68-5.66,1.52-6.77C349.6,155.72,348.97,157.87,348.69,160.09z M344.69,171.67c0.43-1.73,0.74-3.46,0.49-5.24
			C344.81,168.16,344.69,169.92,344.69,171.67z M345.85,160.66c-0.17,2.05-0.21,4.1,0.01,6.15
			C346.15,164.76,346.14,162.71,345.85,160.66z M351.85,165.59c0.48-0.6,0.96-1.22,1.11-2.23
			C352.3,164.1,351.98,164.78,351.85,165.59z M348.55,156.04c-0.04,0.07-0.1,0.13-0.1,0.2c0,0.34,0.03,0.67,0.04,1
			c0.12-0.34,0.16-0.69,0.18-1.03C348.67,156.15,348.59,156.1,348.55,156.04z"/>
		<path fill="#1A1A1A" d="M288.27,244c-0.18,0.08-0.28,0.12-0.39,0.17c-0.12,0.29,0.28,0.22,0.29,0.41
			c-0.03,0.06-0.05,0.17-0.1,0.18c-0.42,0.11-0.86,0.18-1.28,0.29c-1.07,0.28-1.72,1.09-2.37,1.9c-0.1,0.12-0.13,0.29,0,0.45
			c0.48-0.15,0.65-0.79,1.31-0.85c-0.97,0.96-1.95,1.83-2.15,3.5c0.53-0.75,0.88-1.28,1.26-1.78c1.05-1.39,2.35-2.37,4.15-2.57
			c0.94-0.11,1.84,0.07,2.7,0.37c3.03,1.05,5.1,3.11,5.92,6.24c0.41,1.54,0.48,3.15,0.01,4.73c-0.03,0.11-0.07,0.23,0.03,0.34
			c0.32-0.02,0.55-0.23,0.71-0.52c0.93,2.2,1.82,4.34,2.73,6.46c0.22,0.51,0.51,1,0.81,1.47c0.17,0.27,0.17,0.51,0.03,0.81
			c0.41,0.22,0.83,0.42,1.23,0.66c2.05,1.26,3.04,3.19,3.52,5.47c0.48,2.32-0.18,4.27-1.92,5.84c-0.83,0.75-1.83,1.24-3.08,1.24
			c-0.02-0.4-0.38-0.63-0.29-1.07c0.07-0.38,0.37-0.73,0.12-1.21c-0.48,0.48-0.51,1.15-0.86,1.65c-0.34,0.5-0.7,0.97-1.43,1.32
			c0.45-1.19,1.11-2.22,0.64-3.42c-0.31,0.11-0.36,0.41-0.37,0.66c-0.03,2.65-2.63,5.08-5.53,5.4c-1.31,0.15-2.63,0.18-3.94,0.01
			c-1.17-0.15-2.12-0.67-2.78-1.66c-0.09-0.13-0.2-0.25-0.31-0.38c-0.09,0.53-0.09,0.53,0.23,1.2c-1.29,0.48-2.29-0.33-3.36-0.74
			c0.03,0.25,0.15,0.63,0.25,0.78c-0.02,0.19-0.19,0.26-0.32,0.3c-1.4,0.37-2.8,0.48-4.26,0.18c-2.25-0.46-2.53-1.97-2.23-3.53
			c0.15-0.78,0.47-1.52,0.96-2.17c0.89-1.2,1.96-2.2,3.21-3.02c0.65-0.42,1.37-0.65,2.12-0.79c0.66-0.13,1.24,0.09,1.76,0.47
			c0.02,0.23-0.27,0.36-0.09,0.61c0.39-0.02,0.66-0.44,1.08-0.39c0.65,0.6,0.19,1.39,0.28,2.25c0.56-0.74,0.57-1.5,0.92-2.12
			c0.33-0.58,0.66-1.17,0.97-1.73c-0.22-0.3-0.38,0.05-0.56-0.02c-0.03-0.07-0.1-0.14-0.08-0.2c0.15-0.5,0.24-1.01,0.19-1.53
			c-0.02-0.26-0.14-0.45-0.45-0.49c-0.05,0.1-0.11,0.2-0.17,0.31c-0.06,0.01-0.07-0.04-0.08-0.14c-0.24-2.32-0.72-4.56-1.95-6.59
			c-0.4-0.67-0.95-1.29-0.97-2.14c0-0.1-0.12-0.2-0.2-0.29c-0.13-0.15-0.29-0.28-0.41-0.44c-0.51-0.66-1.52-0.89-1.75-1.74
			c-0.22-0.82-0.71-1.52-0.9-2.34c-0.03-0.14-0.13-0.28-0.2-0.42c-0.13,0.08-0.23,0.13-0.35,0.2c-0.21-0.5-0.42-0.99-0.64-1.51
			c-0.17,0.16-0.27,0.25-0.4,0.37c-0.85-1.17-1.67-2.34-2.56-3.47c-1.5-1.92-3.19-3.68-4.89-5.42c-0.35-0.36-0.98-0.59-0.78-1.32
			c0.02-0.08-0.18-0.25-0.3-0.34c-0.44-0.34-0.88-0.69-1.34-1.01c-3.97-2.68-7.74-5.64-11.43-8.7c-1.69-1.41-3.03-3.17-4.4-4.89
			c-1.25-1.57-2.3-3.26-3.19-5.06c-0.62-1.25-1.27-2.49-1.93-3.72c-0.24-0.45-0.54-0.87-0.89-1.2c-0.36,0.08-0.06,0.37-0.31,0.52
			c-1.41-0.99-2.77-2.06-3.73-3.58c6.04-7.14,10.62-15.03,13.56-24.01c0.45,0.82,0.59,1.59,0.75,2.34c0.38,1.75,0.7,3.51,0.82,5.32
			c0.15,2.18,0.25,4.38,0.82,6.51c0.04,0.15,0.06,0.32,0.04,0.47c-0.02,0.15-0.12,0.28-0.19,0.44c0.41,0.51,0.84,0.97,1.19,1.5
			c0.43,0.65,0.96,1.19,1.89,1.3c0.68,0.08,1.31,0.55,1.97,0.84c4.12,1.79,7.25,4.7,9.79,8.37c2.47,3.58,4.28,7.47,5.82,11.52
			c0.42,1.12,0.91,2.22,1.38,3.31c0.23,0.55,0.59,1,0.99,1.46c0.71,0.8,1.26,1.75,1.85,2.64C285.73,240.15,286.98,242.05,288.27,244
			z M283.13,254.7c0.08-0.4,0.11-0.8-0.13-1.17c-0.03,0.4-0.31,0.83,0.14,1.16c-0.23,3.79,4.01,7.67,6.09,7.1
			c-0.22-0.27-0.56-0.29-0.84-0.42c-0.99-0.44-1.88-1.03-2.66-1.79c-1.08-1.07-1.6-2.45-2.15-3.82
			C283.44,255.4,283.53,254.94,283.13,254.7z M251.12,219.28c-0.12,0.9-0.14,0.9,0.06,1.51c0.39,1.19,0.79,2.38,1.63,3.37
			C252.44,222.51,251.8,220.96,251.12,219.28z M263.59,218.44c-1.15-1.4-2.2-2.87-3.28-4.65
			C260.53,215.36,261.92,217.31,263.59,218.44z M284.82,249.51c-1.08,1.28-1.09,3.71,0.02,4.96
			C284.39,252.75,284.49,251.2,284.82,249.51z M289.87,270.72c-0.97,0.6-1.23,0.85-1.61,1.5c-0.43,0.73-0.55,1.3-0.39,1.97
			C288.33,272.98,288.95,271.91,289.87,270.72z M281.73,273.8c-1.26,0.5-2.2,1.34-2.72,2.33c-0.08,0.16-0.34,0.36,0.01,0.62
			C279.78,275.63,280.85,274.81,281.73,273.8z M287.14,264.57c-0.23-1.32-0.71-2.47-1.95-3.12
			C285.97,262.42,286.56,263.51,287.14,264.57z M291.45,266.97c-0.34,0.7-0.84,1.32-1.08,2.32
			C291.36,268.6,291.5,267.82,291.45,266.97z M253.87,210.77c-0.03,0.11-0.08,0.23-0.08,0.34c0.03,0.91,0.07,1.82,0.11,2.73
			C254.28,212.81,254.26,211.79,253.87,210.77z M284.58,245.46c0.63-0.19,1.3-0.28,1.73-0.91
			C285.39,244.51,285.34,244.54,284.58,245.46z M295.16,268.57c0.76,0.33,1.52,0.66,2.28,0.99
			C296.9,268.7,296.09,268.48,295.16,268.57z M279.76,239.97c-0.55,0.09-0.67,0.21-1.51,1.42
			C279.09,241.11,279.1,241.1,279.76,239.97z M255.34,208.89c-0.15,0.8-0.1,1.43,0.42,2.16
			C255.87,210.19,255.82,209.57,255.34,208.89z M246.34,217.97c-0.08-0.73-0.31-1.21-0.91-1.71
			C245.5,217.04,245.7,217.53,246.34,217.97z M300.74,268.08c0.41-1.14,0.41-1.14,0.33-1.94
			C300.51,266.67,300.58,267.25,300.74,268.08z M293.07,262.53c0.63,0.16,0.97-0.11,1.36-0.65
			C293.77,261.87,293.39,262.06,293.07,262.53z M301.66,267.35c0.07,0.45,0.13,0.89,0.21,1.34c0.01,0.05,0.09,0.09,0.21,0.2
			C302.13,268.3,302.19,267.78,301.66,267.35z M284.99,243.88c-0.88,0.26-0.88,0.26-1.17,0.72
			C284.27,244.56,284.55,244.31,284.99,243.88z"/>
		<path fill="#1A1A1A" d="M210.18,20.45c-0.06-0.45,0.23-0.74,0.47-1.06c1.13-1.5,2.38-2.9,3.65-4.27c2.37-2.55,4.98-4.83,7.7-7
			c1.34-1.07,2.71-2.11,4.07-3.15c0.22-0.17,0.46-0.28,0.73-0.38c0.93-0.38,1.76-0.91,2.26-1.83c0.59-0.07,0.82,0.28,0.94,0.73
			c0.21,0.81,0.35,1.65,0.25,2.49c-0.22,1.86-0.55,3.7-1.11,5.5c-0.86,2.76-2.15,5.32-3.38,7.91c-1.51,3.17-3.08,6.32-4.87,9.34
			c-2.43,4.1-5.2,7.95-8.45,11.44c-0.38,0.41-0.74,0.83-1.12,1.25c-0.79,0.87-1.36,1.86-1.6,3.03c-0.05,0.27-0.16,0.53-0.23,0.8
			c-0.32,1.24-0.95,2.27-1.99,3.04c-0.15,0.11-0.26,0.29-0.39,0.44c-0.02,0.02,0.01,0.08,0.01,0.15c0.31,0.25,0.72,0.27,1.09,0.36
			c1.02,0.26,1.95,0.73,2.81,1.31c1.33,0.89,1.86,2.25,2.02,3.78c0.12,1.18-0.11,2.29-0.78,3.31c-0.86,1.31-1.84,2.51-2.93,3.63
			c-1.52,1.58-3.19,3.03-4.59,4.73c-1.04,1.26-1.98,2.6-3,3.88c-0.47,0.59-0.98,1.16-1.53,1.68c-0.75,0.73-1.23,0.93-2.31,1.12
			c-0.14-0.32,0.03-0.62,0.07-0.92c0.08-0.53,0.05-1.04-0.12-1.54c-0.38-1.12-0.39-1.11,0.18-2.24c0.53,0.8,0.05,1.85,0.57,2.64
			c0.43-0.16,0.49-0.45,0.51-0.71c0.03-0.52,0.08-1.06-0.04-1.55c-0.39-1.53-0.13-3,0.39-4.43c0.27-0.74,0.49-1.46,0.57-2.24
			c0.14-1.31,0.65-2.45,1.76-3.25c0.21-0.15,0.49-0.29,0.43-0.69c-1.75,0.53-3.06,1.62-4.18,3c-1.89,2.32-4.14,4.2-6.89,5.44
			c-1.86,0.83-3.82,1.19-5.83,1.02c-1.67-0.13-3.19-0.77-4.4-1.96c-1.02-1.01-1.43-2.57-0.34-3.88c0.35-0.42,0.7-0.88,1.26-1.07
			c-0.27,0.39-0.55,0.78-0.8,1.19c-0.22,0.36-0.52,0.72-0.28,1.36c0.67-1.42,1.76-2.36,2.8-3.43c-0.73-0.13-0.93,0.57-1.46,0.62
			c0.35-0.5,0.87-0.81,1.34-1.17c0.51-0.39,0.98-0.82,1.45-1.24c0.99-0.88,1.66-1.93,1.89-3.25c0.04-0.23,0.14-0.45,0.2-0.63
			c0.23-0.22,0.52,0.01,0.71-0.2c-0.01-0.06,0-0.17-0.03-0.18c-0.77-0.3-1.26-0.79-1.29-1.68c-0.03-0.9,0.27-1.62,1-2.18
			c1.03-0.8,2.15-1.36,3.43-1.63c0.73-0.15,1.45-0.31,2.22-0.69c-1.05-0.07-3.1,0.39-4.6,1c0.14-0.94,1.21-2.66,2.38-3.84
			c0.15-0.02,0.25,0.22,0.46,0.05c0.47-0.58,0.49-1.37,0.67-2.1c0.62-2.49,1.78-4.68,3.47-6.61c1.82-2.09,4.02-3.63,6.55-4.7
			c0.58-0.24,1.05-0.75,1.87-0.69c-0.63,1.81-1.44,3.52-1.95,5.34c-0.51,1.8-1.14,3.57-1.71,5.35c-0.91,0.37-1.81,0.72-2.57,1.32
			c-0.11,0.09-0.25,0.18-0.19,0.44c0.85-0.22,1.49-0.91,2.45-1.01c-0.14,1.34-0.38,2.6-1.73,3.54c0.56,0.09,0.98-0.35,1.28,0.04
			c0.23-0.08,0.24-0.25,0.28-0.4c1.07-4.3,2.44-8.51,4.01-12.65c0.63-1.68,1.31-3.34,2.14-4.93c0.07-0.14,0.17-0.26,0.26-0.39
			c-0.04,0.8-0.78,1.42-0.65,2.32c0.1-0.07,0.15-0.08,0.16-0.11c1.32-2.77,2.77-5.47,4.47-8.03
			C210.22,20.92,210.29,20.7,210.18,20.45z M204.24,46.29c0.63-0.26,0.85-0.84,1.08-1.38c0.16-0.36,0.27-0.75,0.38-1.14
			c0.47-1.71,1.41-3.14,2.67-4.33c1.8-1.7,3.66-3.33,5.5-4.98c1.9-1.72,3.64-3.6,5.11-5.7c3.04-4.32,5.41-9.04,7.73-13.77
			c1.18-2.41,2-4.96,2.37-7.63c0.12-0.85,0.29-1.72,0.04-2.54c-0.39-0.04-0.16,0.46-0.48,0.41c-0.44-0.06-0.14-0.49-0.42-0.71
			c-0.4,0.36-0.79,0.74-1.22,1.08c-1.66,1.32-3.32,2.62-4.98,3.93c-1.53,1.21-3.03,2.49-4.41,3.87c-2.21,2.21-4.11,4.68-5.76,7.33
			c-1.79,2.86-3.22,5.88-4.11,9.14c-0.49,1.81-0.95,3.63-1.2,5.49c-0.16,1.14-0.38,2.28-0.5,3.43c-0.19,1.87-0.45,3.71-1,5.52
			C204.84,44.99,204.48,45.6,204.24,46.29z M196.61,51.87c-0.22-0.66-0.24-0.67,0.02-1.15c0.44-0.85,0.77-1.72,0.77-2.91
			c-0.31,0.51-0.53,0.83-0.71,1.18c-0.36,0.71-0.94,1.21-1.62,1.55c-1.22,0.59-2.44,1.2-3.77,1.53c-0.59,0.14-1.13,0.39-1.65,0.69
			c-0.64,0.37-1.15,0.84-1.24,1.63c0.39,0.22,0.41,0.57,0.41,0.94c0,0.38-0.16,0.68-0.43,0.96c-0.92,0.94-1.87,1.86-2.91,2.68
			c-0.97,0.77-1.91,1.57-2.85,2.38c-0.16,0.14-0.39,0.3-0.19,0.64c0.6-0.2,0.91-0.84,1.57-0.98c0.71-0.14,1.28,0.44,1.96,0.32
			c0.17-1.31,0.27-1.48,1.38-2.21c0.17-0.11,0.35-0.2,0.52-0.3c1-0.6,2.11-0.95,3.21-1.31c1.77-0.59,3.35-1.49,4.67-2.81
			c1.1-1.1,2.23-2.17,3.51-3.08c0.22-0.15,0.49-0.28,0.56-0.66C198.61,50.74,197.8,51.84,196.61,51.87z M199.31,33.71
			c-0.04-0.03-0.09-0.07-0.1-0.06c-0.21,0.11-0.43,0.2-0.61,0.35c-1.39,1.13-2.69,2.36-3.77,3.8c-0.65,0.87-1.2,1.78-1.54,2.82
			c-0.17,0.52-0.17,0.52,0.01,1.19c0.42-1.58,1.26-2.87,2.25-4.07c1.04-1.26,2.24-2.37,3.42-3.5
			C199.12,34.09,199.39,34.01,199.31,33.71z M203.47,51.02c-0.37-0.07-0.49-0.13-0.59-0.1c-1.72,0.41-3.29,1.13-4.6,2.35
			c-0.09,0.08-0.09,0.2,0.11,0.3C199.85,52.47,201.53,51.75,203.47,51.02z M187.02,51.93c0.38-0.58,0.5-1.12,0.82-1.56
			c0.34-0.47,0.96-0.67,1.24-1.35c-0.91,0.12-1.39,0.68-1.81,1.28C186.97,50.73,186.74,51.21,187.02,51.93z M202.9,58.31
			c-0.59,0.3-1.04,0.75-1.38,1.29c-0.31,0.5-0.78,0.97-0.58,1.86C201.5,60.21,202.36,59.38,202.9,58.31z M209.69,39.21
			c-0.06-0.06-0.11-0.12-0.17-0.18c-0.6,0.54-1.19,1.09-1.64,1.77c-0.11,0.16-0.2,0.34,0.04,0.56
			C208.51,40.64,209.1,39.92,209.69,39.21z M189.52,59.16c-0.94,0.14-1.48,0.42-1.96,1.02c-0.1,0.13-0.27,0.3,0.06,0.52
			C188.02,59.96,188.94,59.84,189.52,59.16z M182.8,63.15c0.51-0.27,1.03-0.53,1.53-0.81c0.14-0.08,0.21-0.25,0.12-0.41
			c-0.09-0.15-0.28-0.22-0.41-0.11C183.58,62.2,183.02,62.49,182.8,63.15z M200.66,43.79c0.27-0.67,0.75-1.29,0.59-2.23
			C200.74,42.32,200.51,43,200.66,43.79z M189.48,47.37c0.41-0.44,0.64-0.71,0.5-1.18C189.66,46.44,189.46,46.69,189.48,47.37z"/>
		<path fill="#1A1A1A" d="M235.41,168.73c0.27,0.26,0.27,0.64,0.33,0.97c0.35,1.88,0.75,3.76,0.97,5.66
			c0.37,3.25,0.48,6.51,0.15,9.79c-0.31,3.17-1.25,6.17-2.12,9.19c-1.07,3.74-2.62,7.29-4.46,10.71c-1.09,2.04-2.41,3.95-3.76,5.84
			c-1.65,2.31-3.54,4.43-5.41,6.56c-0.52,0.59-1.14,1.11-1.78,1.48c-0.39-0.05-0.58-0.27-0.75-0.48c-1.27-1.65-2.95-2.83-4.75-3.79
			c-1.49-0.79-1.87-2.12-2.1-3.53c-0.11-0.66,0.28-1.31,0.7-1.86c1.05-1.4,2.13-2.79,3.14-4.23c2.2-3.14,4.41-6.28,6.52-9.48
			c2.93-4.45,5.28-9.21,7.15-14.2c0.43-1.16,0.89-2.31,1.35-3.46c0.52-1.3,1.06-2.57,1.9-3.72c1.1-1.52,1.94-3.21,2.59-4.98
			c0.05-0.15,0.13-0.29,0.2-0.43C235.28,168.74,235.34,168.75,235.41,168.73z M219.61,200.19c1.35-0.67,3.7-3.77,3.91-5.12
			C222.11,196.8,220.96,198.57,219.61,200.19z"/>
		<path fill="#1A1A1A" d="M154.14,103.33c-0.68-0.55-1.51-0.35-2.28-0.28c-0.94,0.08-1.91,0.19-2.78,0.63
			c-0.32,0.16-0.68,0.21-1.04,0.22c-2.17,0.04-4.15,0.66-6,1.78c-1.33,0.8-2.78,1.39-4.13,2.32c-0.47-0.67-0.92-1.27-0.85-2.13
			c0.07-0.82,0.02-1.66,0.12-2.48c0.2-1.64,0.84-3.14,1.6-4.6c0.35-0.67,0.76-1.31,1.13-1.97c0.19-0.34,0.46-0.49,0.85-0.56
			c1.43-0.26,2.87-0.32,4.3-0.18c0.84,0.08,1.65,0.52,2.48,0.8c0.29,0.1,0.52,0.37,0.88,0.33c0.11-0.27-0.12-0.33-0.25-0.43
			c-0.26-0.19-0.58-0.3-0.79-0.53c-0.51-0.53-1.16-0.68-1.84-0.74c-1.16-0.1-2.32,0-3.46,0.14c-0.44,0.05-0.87,0.05-1.36,0.04
			c0.11-0.85,0.41-1.56,0.82-2.27c0.66,0.09,1.12,0.65,1.79,0.68c0-0.5-0.43-0.52-0.68-0.68c-1.28-0.82-1.4-1.19-1.12-2.65
			c0.2-1.03,0.57-2,0.95-2.94c0.35-0.87,0.98-1.73,1.9-2.21c0.82-0.43,1.45-0.38,2.11,0.37c1.12,1.25,1.75,2.74,2.22,4.32
			c0.03,0.11,0.07,0.23,0.11,0.34c0.01,0.03,0.05,0.06,0.08,0.09c0.34-0.32,0.05-0.77,0.27-1.18c0.56,0.27,1.14,0.5,1.68,0.95
			c-0.27,0.88-0.53,1.75-0.82,2.62c-0.34,1.06-0.08,1.99,0.6,3.07c0.12-1.13-0.19-2.04,0.01-2.97c0.19-0.89,0.34-1.79,0.7-2.63
			c0.54-0.09,0.97,0.17,1.42,0.28c0.73,0.17,1.43,0.45,2.14,0.7c0.22,0.08,0.45,0.18,0.63,0.33c0.7,0.59,1.38,1.19,2.07,1.81
			c0.53,0.48,0.86,1.11,0.75,1.8c-0.06,0.39,0.03,0.6,0.23,0.84c0.64,0.77,1.26,1.55,1.93,2.29c1.31,1.45,1.53,3.18,1.36,5.01
			c-0.06,0.68-0.64,1.15-0.87,1.79c-0.6,1.65-2.07,2.54-3.33,3.59c-0.42,0.35-0.93,0.6-1.4,0.9c-0.16-0.18-0.28-0.32-0.5-0.56
			c-0.02,0.79-0.58,1.11-1.05,1.57c-0.95-0.57-1.67-1.63-2.93-1.59c-0.09-0.4,0.15-0.48,0.39-0.48c0.23-0.01,0.47,0.09,0.7,0.11
			c1.18,0.1,2.36,0.15,2.99-0.94c0.41-0.29,0.64,0.12,0.97-0.05c0.04-0.06,0.13-0.16,0.14-0.26c0.11-0.6-0.15-1.09-0.55-1.51
			c-0.49-0.52-0.99-1.04-1.66-1.35c-0.39-0.18-0.75-0.43-1.1-0.64C153.63,103.81,154.21,103.89,154.14,103.33z M153.58,99.59
			c-0.35-0.54-0.75-1.03-1.24-1.46c0.08-0.1,0.15-0.19,0.22-0.28c0.07-0.09,0.16-0.18,0.07-0.4c-0.63-0.37-1.42-0.09-2.28-0.45
			c0.3,0.44,0.56,0.52,0.84,0.57c0.39,0.08,0.03,0.52,0.32,0.65c0.25,0.11,0.5,0.23,0.75,0.34c0.13,0.85,0.18,1.71,0.9,2.31
			c0.36-0.41-0.23-0.69-0.05-1.03C153.26,99.8,153.45,99.9,153.58,99.59z M161.46,102.96c-0.42,0.41-0.42,0.41-0.32,0.78
			C161.31,103.57,161.41,103.37,161.46,102.96z M149.08,94.59c-0.32,0.07-0.55,0.14-0.71,0.49c0.28,0,0.32,0.32,0.6,0.18
			C149.04,95.09,149.17,94.93,149.08,94.59z"/>
		<path fill="#1A1A1A" d="M119.37,100.84c-0.15-1.62-0.84-3.05-0.9-4.73c-1.12,0.57-1.55,1.53-2.07,2.69
			c-0.49-1.88-0.89-3.57-0.08-5.4c-0.89,0.05-1.54,0.47-2.37,0.65c0.37-1.98,1.64-3.28,2.94-4.59c-0.35-0.23-0.66-0.12-0.95-0.06
			c-0.26,0.05-0.5,0.23-0.8,0.03c1.03-1.11,2.12-2.11,3.65-2.89c-0.95-0.29-1.69-0.1-2.44-0.12c0.33-0.64,0.54-0.73,2.43-1.75
			c0.96-0.51,1.95-0.6,3-0.64c1.05-0.04,2.04,0.22,3.18,0.56c-0.18-0.61-0.61-0.85-0.89-1.18c-0.28-0.33-0.57-0.67-0.87-0.99
			c-0.32-0.34-0.67-0.66-0.84-1.11c0.29-0.18,0.5-0.01,0.72,0.06c1.6,0.55,3.23,0.89,4.93,0.83c0.54-0.02,1.04,0.02,1.33,0.58
			c0.18,0.35,0.51,0,0.8,0.17c0.38,1.15,1.06,2.23,1.32,3.51c0.24,1.21,0.33,2.44,0.45,3.68c0.23,0.09,0.44,0.18,0.58,0.23
			c0.65,1.52-0.13,2.7-0.8,3.86c-0.59,1.03-1.6,1.52-2.71,1.82c-1.19,0.32-2.38,0.66-3.57,0.99c-0.11,0.03-0.28,0.06-0.32,0.14
			c-0.28,0.57-0.87,0.45-1.33,0.64c-0.11,0.05-0.21,0.12-0.3,0.17c-0.12,0.33,0.31,0.33,0.34,0.62c-0.56,0.73-1.61,0.96-2.08,1.9
			c-0.47-0.38-0.17-0.89-0.41-1.34C120.6,99.6,120.29,100.48,119.37,100.84z"/>
		<path fill="#1A1A1A" d="M165.64,119.25c0.96,0.71,1.45,1.56,1.9,2.43c0.29,0,0.57,0,0.84,0c0.23-0.26-0.19-0.4-0.11-0.63
			c0.11-0.23,0.33-0.18,0.51-0.21c2.49-0.41,4.86-1.24,7.22-2.11c1.98-0.73,3.95-1.48,5.98-2.25c0.85,0.93,1.86,1.56,2.89,2.16
			c0.3,0.17,0.46,0.43,0.49,0.77c0.24,2.58,0.64,5.14,1.42,7.67c-1.02,0.39-2.05,0.44-3.06,0.56c-5.03,0.61-10.03,1.34-14.92,2.68
			c-0.11,0.03-0.24,0.01-0.34,0.02c-0.3-0.13-0.41-0.4-0.45-0.66c-0.04-0.27,0.02-0.55-0.24-0.86c-0.44,0.95-0.64,2.01-1.66,2.54
			c-0.42,0.22-0.78,0.55-1.32,0.52c-0.86-1.2-0.72-2.56-0.59-3.9c0.14-1.51,0.2-1.56,0.93-2.31c-0.31-0.37-0.46-0.76-0.34-1.33
			C165.13,122.72,165.35,121.06,165.64,119.25z M172.19,121.18c0.99,0.06,1.86-0.29,2.74-0.62c0.85-0.32,1.76-0.52,2.47-1.17
			C175.58,119.77,173.87,120.43,172.19,121.18z M165.79,120.19c0,0.59,0.26,0.85,0.37,1.17c0.11,0.31,0.2,0.64,0.6,0.92
			C166.82,121.39,166.53,120.78,165.79,120.19z M166.24,127.86c0.06-0.06,0.12-0.13,0.19-0.19c-0.19-0.6-0.5-1.07-1.09-1.07
			C165.61,126.98,165.93,127.42,166.24,127.86z M165.91,125.2c0.6,0.09,0.89-0.2,0.95-0.79
			C166.54,124.67,166.23,124.94,165.91,125.2z"/>
		<path fill="#1A1A1A" d="M235.36,58.69c0,0.2,0.03,0.4-0.01,0.6c-0.08,0.49-0.48,0.7-0.97,0.55c-0.5-0.15-0.95-0.41-1.39-0.69
			c-1.56-1-2.91-2.24-4.13-3.61c-1.09-1.22-2.11-2.5-3.16-3.75c-1.65-1.95-3.59-3.5-5.98-4.47c-0.89-0.36-1.77-0.74-2.61-1.18
			c-1.32-0.7-1.71-1.52-1.34-2.96c0.35-1.4,1.19-2.52,2.28-3.44c0.25-0.21,0.56-0.27,0.88-0.33c2-0.37,3.98-0.81,5.92-1.43
			c0.37-0.12,0.69-0.12,1.03,0.04c0.25,0.12,0.52,0.21,0.76,0.35c2.86,1.69,4.93,4.01,5.81,7.28c0.47,1.73,0.87,3.48,1.16,5.25
			c0.23,1.42,0.52,2.82,1,4.18C235.01,56.25,235.33,57.44,235.36,58.69z M222.56,41.19c0.95,0.65,1.79,1.23,2.63,1.82
			c0.32,0.23,0.65,0.46,0.94,0.73c0.71,0.69,1.4,1.4,2.1,2.1c0.02,0.02,0.07,0.02,0.11,0.02c0.16-0.02-0.07-0.14,0.08-0.09
			C227.46,43.84,224.44,41.42,222.56,41.19z"/>
		<path fill="#1A1A1A" d="M221.62,28.75c0.18-0.77,0.59-1.27,0.88-1.83c1.3-2.56,2.65-5.1,3.93-7.67c0.28-0.57,0.66-0.98,1.17-1.31
			c0.66-0.44,1.32-0.88,1.98-1.33c-0.26-0.4-0.47-0.16-0.64-0.07c-0.44,0.23-0.87,0.49-1.35,0.67c0.18-0.42,0.54-0.64,0.87-0.89
			c1.45-1.14,3.05-2.05,4.6-3.03c1.18-0.75,2.32-1.55,3.41-2.44c0.93-0.76,1.9-1.46,2.86-2.18c0.29-0.21,0.59-0.41,0.91-0.58
			c1.12-0.59,1.62-0.33,1.76,0.94c0.14,1.3-0.21,2.53-0.62,3.75c-0.69,2.06-1.77,3.93-2.89,5.77c-1.92,3.14-4.15,6.07-6.64,8.78
			c-0.83,0.91-1.81,1.68-2.74,2.5c-0.34,0.3-0.72,0.37-1.21,0.31C225.79,29.85,223.78,29.21,221.62,28.75z M231.42,16.39
			c-1.55,0.49-3.77,2.14-4.46,3.21C227.68,19.26,230.37,17.34,231.42,16.39z M227.8,28.88c0.96-0.19,1.22-0.86,1.65-1.32
			c0.46-0.49,0.9-1,1.29-1.55c0.37-0.51,0.92-0.94,0.87-1.7C230.39,25.78,229.16,27.25,227.8,28.88z M236.96,11.45
			c1.3-0.75,1.65-1.06,2.06-1.73C238.13,10.09,237.67,10.45,236.96,11.45z"/>
		<path fill="#1A1A1A" d="M231.32,76.89c-0.63,0.05-0.95-0.41-1.21-0.91c-0.45-0.85-0.87-1.71-1.31-2.56
			c-1-1.96-2.32-3.72-3.52-5.56c-1.3-1.98-2.44-4.02-3.35-6.21c-0.18-0.44-0.32-0.9-0.44-1.36c-0.28-1.17-0.39-2.36-0.47-3.55
			c-0.14-2.12,1.82-4.25,3.94-4.35c0.36-0.02,0.61,0.11,0.84,0.36c0.61,0.69,1.23,1.36,1.82,2.06c1,1.2,2.01,2.38,3.24,3.34
			c0.79,0.62,1.26,1.45,1.52,2.38c0.47,1.69,0.86,3.39,1.01,5.15c0.19,2.22-0.14,4.37-0.54,6.53c-0.24,1.3-0.61,2.56-1.05,3.8
			C231.7,76.32,231.65,76.65,231.32,76.89z M229.09,63.2c-0.12-1.68-0.73-3.22-1.41-4.72c-0.59-1.31-1.2-2.64-2.3-3.65
			c0.09,0.64,0.53,1.11,0.77,1.67c0.24,0.55,0.54,1.06,0.79,1.61c0.26,0.58,0.5,1.17,0.74,1.76c0.22,0.55,0.43,1.11,0.65,1.67
			C228.56,62.1,228.61,62.74,229.09,63.2z"/>
		<path fill="#1A1A1A" d="M225.14,86.39c-0.61-0.3-0.66-0.86-0.81-1.34c-0.64-2.06-1.44-4.07-2.54-5.93
			c-0.65-1.1-1.27-2.21-1.87-3.34c-0.92-1.72-1.36-3.59-1.47-5.51c-0.06-1.06,0.11-2.15,0.25-3.21c0.06-0.47,0.34-0.88,0.71-1.22
			c0.7-0.64,1.55-0.98,2.45-1.2c0.5-0.12,0.91-0.03,1.21,0.5c1.59,2.77,3.36,5.43,5.12,8.1c0.3,0.46,0.45,0.94,0.39,1.47
			c-0.21,1.94-0.25,3.9-0.69,5.81c-0.39,1.71-0.83,3.42-1.79,4.93C225.86,85.83,225.66,86.22,225.14,86.39z M221.79,66.83
			c0.09,2.62,0.13,5.25,0.93,7.77c0.36,1.12,0.71,2.26,1.57,3.16c-0.24-1.24-0.82-2.37-1.14-3.58c-0.32-1.19-0.57-2.4-0.77-3.62
			C222.19,69.32,222.28,68.03,221.79,66.83z"/>
		<path fill="#1A1A1A" d="M206.53,74.69c0.36-0.87,0.74-1.69,0.98-2.58c0.22-0.85,0.13-1.78,0.58-2.71
			c-0.26-0.42-0.79-0.87-1.04-1.51c0.2-0.35,0.67-0.23,0.91-0.51c-0.27-0.25-0.64-0.01-0.94-0.25c0.71-0.44,1.62-0.48,2.33-1.33
			c-1.59,0.38-2.94,0.9-4.45,0.98c0.86-1.3,1.97-2.27,2.97-3.32c1.24-1.3,2.53-2.55,3.71-3.9c0.71-0.82,1.56-0.73,2.31-0.1
			c0.53,0.45,0.87,1.03,1.09,1.69c0.46,1.35,0.58,2.73,0.2,4.11c-0.36,1.3-0.67,2.62-1.22,3.87c-0.73,1.66-1.66,3.17-2.83,4.55
			c-0.57,0.67-1.22,1.1-2.16,1.03C208.18,74.65,207.39,74.69,206.53,74.69z M209.66,69.07c-0.67-0.7-0.67-0.7-1.27-0.81
			C208.61,69.16,209.01,69.45,209.66,69.07z M208.65,72.28c0.1-0.87,0-1.13-0.58-1.38C208.22,71.42,208.14,71.95,208.65,72.28z
			 M210.06,67.34c-0.37-0.08-0.77-0.4-1.14,0.1C209.36,67.61,209.72,67.64,210.06,67.34z"/>
		<path fill="#1A1A1A" d="M213.94,39.27c2.61-2.85,4.63-5.91,6.57-8.97c0.94-0.08,1.75,0.17,2.55,0.37
			c1.01,0.25,2.01,0.53,2.98,0.87c1.71,0.59,3.44,1,5.27,0.92c0.2-0.01,0.4,0.02,0.59,0.05c0.07,0.01,0.13,0.08,0.2,0.13
			c0.21,0.4-0.02,0.67-0.26,0.95c-0.69,0.8-1.55,1.4-2.46,1.89c-2.55,1.34-5.23,2.35-8.07,2.91c-2.03,0.41-4.08,0.7-6.13,0.99
			C214.84,39.42,214.49,39.45,213.94,39.27z M221.45,31.29c0.36,0.58,0.85,0.42,1.21,0.54c0.41,0.14,0.84,0.31,1.46-0.01
			c-0.51-0.15-0.83-0.28-1.17-0.34C222.51,31.4,222.05,31.36,221.45,31.29z"/>
		<path fill="#1A1A1A" d="M424.66,39.86c-1.52,0.64-2.74,0.4-3.94-0.47c0.06-0.19,0.08-0.35,0.15-0.48
			c0.48-0.77,0.28-1.46-0.24-2.09c-0.56-0.66-1.15-1.3-1.72-1.93c-0.34,0.18-0.38,0.39-0.2,0.62c0.15,0.18,0.35,0.32,0.53,0.48
			c0.3,0.26,0.57,0.55,0.81,0.88c0.46,0.63,0.6,1.28,0.28,2.01c-0.37,0.87-0.66,1.77-0.81,2.79c-1.5-2.53-2.39-11-1.61-14.8
			c0.9,0.17,1.81,0.65,2.21,1.29c0.13,0.2,0.28,0.25,0.45,0.31c0.26,0.09,0.54,0.13,0.81,0.19c2.25,0.52,3.93,1.82,5.14,3.6
			c0.02,0.24-0.02,0.31-0.12,0.32c-1.43,0.14-2.01,1.18-2.42,2.34c-0.24,0.67-0.36,1.39-0.45,2.1
			C423.41,38.08,423.81,38.98,424.66,39.86z M420.01,29.66c1.47,0.51,2.68,0.94,4.06,1.42C423.1,30.02,421.51,29.46,420.01,29.66z
			 M419.56,37.09c-0.3-0.51-0.52-1.12-1.46-1.2C418.57,36.51,418.92,36.96,419.56,37.09z"/>
		<path fill="#1A1A1A" d="M130.98,66.9c-0.19-0.46-0.55-0.55-0.9-0.73c0.62-0.32,1.2-0.43,1.8,0.13c0.18-1.03-0.33-1.95-0.02-2.91
			c0.55,0.54,0.61,1.28,0.96,2.1c0.08-1,0.15-1.81,0.68-2.69c0.07,1.3-0.18,2.41-0.14,3.53c0.04,1.15-0.04,2.3-0.07,3.58
			c-0.62-0.47-0.59-1.09-0.69-1.72c-0.26,0.65-0.27,0.65-0.21,1.22c0.06,0.6,0.04,1.18-0.41,1.65c-0.47-0.18-0.07-0.8-0.61-1.03
			c-0.29,1.17-0.29,2.32-0.04,3.48c-0.17,0.25-0.34-0.11-0.59,0.07c-0.17,0.45,0,1,0.08,1.53c0.09,0.59,0.23,1.17,0.34,1.76
			c0.06,0.33-0.28,0.19-0.42,0.37c0.27,1.13,0.74,2.22,1.37,3.24c0.37,0.6,0.77,1.15,0.59,1.96c-0.1,0.43,0.06,0.96,0.23,1.4
			c0.32,0.82,0.21,1.71,0.5,2.52c0.22,0.62,0.12,1.27,0.1,1.9c-0.02,0.51-0.15,1.02-0.23,1.54c-0.33-0.06-0.3-0.32-0.3-0.54
			c-0.01-0.51,0-1.03,0-1.56c-0.53,0.02-0.28,0.61-0.67,0.64c-0.12-0.74-0.25-1.47-0.36-2.21c-0.11-0.7-0.3-1.34-0.68-1.99
			c-0.59-1.02-1.02-2.16-1.23-3.36c-0.08-0.46-0.2-0.91-0.33-1.49c-0.42,0.6-0.1,1.25-0.59,1.79c-0.75-2.4-0.81-4.78-0.57-7.29
			c-0.49,0.14-0.52,0.62-0.83,0.79c0.44-2.06,1.69-4.59,3.11-6.3c-0.47-0.28-0.9,0.33-1.38,0.07
			C130.18,67.28,130.18,67.28,130.98,66.9z"/>
		<path fill="#1A1A1A" d="M403.28,120.54c1.29,1.41,2.44,2.71,3.13,4.36c0.2,0.48,0.36,0.97,0.55,1.45
			c0.48,1.19,0.57,2.38,0.08,3.66c-0.31-0.25-0.61-0.49-0.91-0.73c-0.66-0.53-1.38-0.53-2.14-0.24c-1.33,0.51-2.11,1.51-2.57,2.8
			c-0.06,0.18-0.02,0.4-0.24,0.57c-0.76-0.14-1.15-0.72-1.5-1.36c-0.21-0.38-0.13-0.77,0-1.16c0.37-1.14,0.71-2.28,1.13-3.4
			C401.54,124.56,402.3,122.64,403.28,120.54z M402.98,122.53c-0.13,0.72,0.12,1.29,0.22,1.85c0.11,0.58-0.05,1.22,0.4,1.94
			C403.74,124.91,403.85,123.71,402.98,122.53z"/>
		<path fill="#1A1A1A" d="M247.18,87.66c0.29-0.65,0.83-1.06,1.4-1.44c1.79-1.22,3.44-2.59,4.71-4.39
			c-0.12,0.61-0.33,1.17-0.67,1.68c-1.58,2.43-3.42,4.62-5.73,6.39c-2.37,1.8-5.06,2.87-7.97,3.38c-1.09,0.19-2.22,0.18-3.35,0.1
			c-0.39-0.03-0.69-0.18-0.97-0.42c-0.55-0.47-1.11-0.91-1.74-1.17c-0.18-0.45-0.2-0.82,0.01-1.24c0.85,0.4,1.71,0.71,2.63,0.76
			c0.24,0.01,0.45,0.12,0.66,0.26c1.23,0.79,1.67,0.68,2.36-0.62c0.38-0.08,0.81-0.16,1.23-0.25c2.1-0.46,3.95-1.48,5.8-2.51
			c0.34-0.19,0.64-0.49,1.07-0.49c-0.54,0.4-1.08,0.79-1.61,1.2c-0.13,0.1-0.36,0.2-0.11,0.54
			C245.69,88.86,246.63,88.53,247.18,87.66z"/>
		<path fill="#1A1A1A" d="M265.18,56.64c1.79-1.15,2.92-2.7,2.92-4.87c0.35-0.1,0.3,0.24,0.57,0.36c0.52,0.04,1.03-0.28,1.6-0.52
			c1.24,0.59,1.97,1.57,2.27,2.97c-2,1.78-4.2,3.23-6.71,4.3C265.41,58.13,265.17,57.44,265.18,56.64z M266.28,57.91
			c0.18-0.48,0.15-0.81-0.18-1.33C266.06,57.12,265.91,57.45,266.28,57.91z"/>
		<path fill="#1A1A1A" d="M198.11,63.11c0.33-0.13,0.26-0.48,0.45-0.69c-0.04-0.37-0.59-0.25-0.57-0.79c0.2-0.38,0.65-0.69,1-1.03
			c0.36,0.06,0.37,0.27,0.38,0.47c0.05,0.77-0.1,1.55-0.44,2.2c-0.29,0.54-0.33,1.04-0.27,1.45c-0.23,0.58-0.82,0.56-1.02,1
			c-0.11,0.33,0.23,0.56,0.26,0.83c-0.2,0.45-0.56,0.43-0.92,0.48c-0.86,0.11-0.99,0.44-0.47,1.18c0.09,0.13,0.21,0.24,0.32,0.35
			c-0.31,0.54-0.52,0.62-0.87,0.37c-0.25-0.18-0.33-0.43-0.41-0.7c-0.64-1.91,0.11-4.35,1.74-5.68
			C197.65,62.59,197.75,63.05,198.11,63.11z M195.55,66.94c0.47-0.59,0.47-1.13,0.65-1.6c0.18-0.49,0.56-0.93,0.49-1.65
			C195.96,64.67,195.5,65.59,195.55,66.94z"/>
		<path fill="#1A1A1A" d="M239.7,86.27c-0.52-0.65-0.8-1.24-0.57-2.02c0.26-0.88,0.42-1.78,0.65-2.67c0.17-0.66,0.26-1.33,0.24-2.01
			c-0.01-0.36,0.06-0.7,0.19-1.04c0.56-1.49,1.21-2.95,1.5-4.52c0.02-0.1,0.14-0.18,0.28-0.36c0.05,1.29-0.1,2.45-0.31,3.61
			c-0.17,0.94-0.46,1.85-0.71,2.77c-0.41,1.51-0.5,3.05-0.55,4.6C240.4,85.22,240.44,85.82,239.7,86.27z"/>
		<path fill="#1A1A1A" d="M143.07,64.78c0.3-1.06,0.89-1.96,1.37-2.9c0.16-0.31,0.48-0.42,0.83-0.35c0.27,0.05,0.55,0.11,0.8,0.22
			c1.14,0.51,2.14,1.2,2.99,2.38c-1.09-0.1-2-0.46-3.19-0.48c0.88,0.56,1.8,0.67,2.27,1.44c-0.29,0.28-0.49,0.04-0.66-0.07
			c-0.97-0.64-1.98-0.76-3.08-0.41C144,64.73,143.59,64.94,143.07,64.78z"/>
		<path fill="#1A1A1A" d="M221.11,29.46c0.48-0.21,0.87-0.08,1.25,0.01c1.05,0.24,2.09,0.52,3.14,0.75c1.48,0.33,2.97,0.6,4.5,0.56
			c0.59-0.02,1.19-0.11,1.75,0.22c0.29,0.17,0.63,0.04,0.9-0.15c0.2-0.13,0.38-0.3,0.58-0.42c0.14-0.08,0.31-0.05,0.45,0.05
			c0.15,0.11,0.18,0.27,0.13,0.43c-0.17,0.46-0.49,0.82-0.87,1.11c-0.11,0.09-0.31,0.14-0.44,0.11c-1.33-0.31-2.71-0.07-4.03-0.42
			c-0.27-0.07-0.55-0.11-0.81-0.2c-2.09-0.69-4.19-1.31-6.33-1.81C221.26,29.69,221.22,29.59,221.11,29.46z"/>
		<path fill="#1A1A1A" d="M229.93,40.17c-1.17-1.21-2.4-1.86-3.64-2.65c0.86-0.56,1.73-0.84,2.56-1.18c0.33-0.13,0.7-0.01,1.05,0.11
			c0.72,0.25,1.35,0.66,2.06,1.09c-0.34,0.51-0.79,0.6-1.34,0.39C230.84,38.84,230.1,39.26,229.93,40.17z"/>
		<path fill="#1A1A1A" d="M186.74,280.16c-0.36-0.87-0.43-1.93-1.55-2.25c1.56-2.04,4.42-2.29,6.04-0.4
			C188.97,278.17,189.29,277.72,186.74,280.16z M189.36,277.18c-1.16-0.58-2.08-0.37-2.83,0.58
			C187.45,277.35,188.27,277.26,189.36,277.18z"/>
		<path fill="#1A1A1A" d="M404.45,121.21c-0.1-0.18-0.19-0.36-0.3-0.53c-0.16-0.27-0.44-0.47-0.5-0.81c0.91-2.75,3.36-6.84,5.02-8.2
			c-0.91,1.69-1.74,3.11-2.37,4.64c-0.64,1.55-1.16,3.13-1.55,4.77C404.66,121.12,404.55,121.17,404.45,121.21z"/>
		<path fill="#1A1A1A" d="M146.4,66.18c-1.65,0.47-3.2,1.11-4.56,2.43C142.33,66.71,143.8,65.95,146.4,66.18z"/>
		<path fill="#1A1A1A" d="M232.79,37.29c-1-0.54-1.86-1-2.79-1.5c0.48-0.57,0.98-0.5,1.52-0.27
			C232.52,35.96,232.7,36.17,232.79,37.29z"/>
		<path fill="#1A1A1A" d="M194.11,277.75c-1.12,0.16-1.7-0.11-2.66-1.14c0.29-0.39,0.63-0.18,0.97-0.09
			C193.13,276.7,193.67,277.11,194.11,277.75z"/>
		<path fill="#1A1A1A" d="M145.16,71.48c-0.53,0.38-1.08,0.27-1.62,0.19c-0.19-0.03-0.34-0.22-0.36-0.42
			c-0.03-0.23,0.06-0.35,0.34-0.28c0.22,0.06,0.23-0.17,0.29-0.3c0.1-0.22,0.2-0.43,0.52-0.52
			C144.61,70.58,144.88,71.03,145.16,71.48z"/>
		<path fill="#1A1A1A" d="M233.03,89.42c0.21-0.38,0.45-0.72,1-0.73c0.14,0.52,0.07,1-0.22,1.44
			C233.32,89.94,233.32,89.94,233.03,89.42z"/>
		<path fill="#1A1A1A" d="M195.79,69.71c-0.21,0.47-0.51,0.63-0.91,0.72c-0.4-0.18-0.6-0.53-0.72-0.98
			C194.76,69.34,195.22,69.57,195.79,69.71z"/>
		<path fill="#1A1A1A" d="M196.5,72.3c-0.32-0.12-0.62-0.01-0.93,0.06c-0.42,0.11-0.84,0.14-1.49-0.1c0.46-0.18,0.75-0.17,1.02-0.25
			c0.3-0.1,0.58-0.25,0.89-0.33c0.32-0.09,0.5,0.18,0.47,0.65L196.5,72.3z"/>
		<path fill="#1A1A1A" d="M240.79,57.48c0.21,0.86,0.37,1.51,0.53,2.16C241.01,59.01,240.39,58.46,240.79,57.48z"/>
		<path fill="#1A1A1A" d="M151.26,67.4c-0.87,0.02-1.53-0.16-2.11-0.62C149.8,66.97,150.45,67.17,151.26,67.4z"/>
		<path fill="#1A1A1A" d="M190.29,67.17c0.43-0.22,0.71-0.49,1.1-0.32c0.14,0.06,0.24,0.2,0.21,0.38
			C190.99,67.4,190.99,67.4,190.29,67.17z"/>
		<path fill="#1A1A1A" d="M288.19,245.34c-0.52,0.17-1.03,0.34-1.65,0.54C286.99,245.47,286.99,245.47,288.19,245.34z"/>
		<path fill="#1A1A1A" d="M235.26,90.71c-0.69-0.07-0.82-0.28-0.57-0.72C235.04,90.05,235.05,90.33,235.26,90.71z"/>
		<path fill="#1A1A1A" d="M196.46,72.34c0.31-0.06,0.45,0.12,0.38,0.38c-0.08,0.31-0.36,0.17-0.53,0.2
			c-0.22-0.35,0.22-0.39,0.2-0.61L196.46,72.34z"/>
		<path fill="#1A1A1A" d="M208.01,23.35c-0.23,0.61-0.47,1.21-0.96,1.67C207.21,24.38,207.53,23.82,208.01,23.35z"/>
		<path fill="#1A1A1A" d="M145.4,60.66c0.23-0.43,0.48-0.38,0.82-0.27C146.01,60.66,145.79,60.76,145.4,60.66z"/>
		<path fill="#1A1A1A" d="M196.56,69.91c0.17-0.19,0.33-0.39,0.5-0.58C197.03,69.63,196.94,69.9,196.56,69.91z"/>
		<path fill="#1A1A1A" d="M196.73,67.66c0.23-0.23,0.43-0.2,0.67,0C197.16,68.07,196.96,67.99,196.73,67.66z"/>
		<path fill="#1A1A1A" d="M192.02,52.98c1.08-0.44,1.95-0.8,2.82-1.15c0.58,0.85,0.62,1.44,0.09,2.07
			c-0.51,0.61-1.06,1.19-1.96,1.47C192.92,54.52,192.72,53.74,192.02,52.98z"/>
	</g>
</g>
</svg>
