<?xml version="1.0" encoding="utf-8"?>
<!-- Generator: Adobe Illustrator 24.0.2, SVG Export Plug-In . SVG Version: 6.00 Build 0)  -->
<svg version="1.1" id="Layer_1" xmlns="http://www.w3.org/2000/svg" xmlns:xlink="http://www.w3.org/1999/xlink" x="0px" y="0px"
	 viewBox="0 0 1597.22 1532.6" style="enable-background:new 0 0 1597.22 1532.6;" xml:space="preserve">
<style type="text/css">
	.st0{fill:#1A1A1A;}
</style>
<g>
	<path d="M654.95,356.01c-9.79-4.28-16.25-12.5-23.38-19.9c-1.83-1.9-3.03-4.38-6.91-5.45c-16.34,8.66-32.27,19.3-47.51,31.13
		c-15.13,11.74-27.6,26.27-41.24,39.74c-2.71-3.49-0.26-5.18,1.01-6.78c7.69-9.66,16.21-18.59,25.46-26.71
		c17.3-15.2,36.19-28.21,56.35-39.36c1.15-0.63,2.15-1.53,3.95-2.83c-9.99-14.55-19.06-29.5-24.06-46.88
		c-14,0.23-26.77,3.8-39.46,7.43c-12.62,3.61-25.05,7.92-37.54,11.92c-1.32-3.77,1.11-4.09,2.78-4.77
		c20.97-8.65,42.48-15.38,65.06-18.32c1.65-0.21,3.27-0.62,4.88-1.07c0.58-0.16,1.07-0.69,2.29-1.52
		c-10.52-43.93,2.41-83.95,23.67-122.76c-14.32,5.8-27.59,23.77-38.31,51.29c-2.43-0.42-1.73-2.47-1.66-3.76
		c1.7-32.75,10.39-63.03,33.2-87.64c13.39-14.45,29.88-24.32,49.21-29c2.84-0.69,5.71-1.28,9.4-2.11
		c-6.08-5.03-11.72-9.56-17.21-14.28c-15.69-13.49-25.76-30.13-29.24-50.8C624.94,9.11,626.7,5.2,625.7,0
		c4.18,5.16,7.44,9.73,11.26,13.78c13.23,14.03,29.33,23.97,46.82,31.69c14,6.18,28.35,11.46,43.36,14.81
		c6.43,1.43,12.6,3.78,19.57,7.49c-1.99-12.36-8.42-23.07-3.75-35.36c3.17,2.01,4.55,4.94,6.34,7.54
		c11.26,16.32,24.58,30.53,41.37,41.37c3.69,2.38,7.27,4.53,11.61,5.44c2.9,0.61,5.7,1.73,8.67,2.66c1.61-1.96,2.49-5.5,6.4-3.68
		c6.73,3.13,12.69,7.27,17.3,13.17c2.8,3.58,5.54,7.22,9.49,12.37c0.03-13.85-2.33-25.25-6.8-37.71
		c12.17,5.76,18.98,15.1,26.2,23.91c1.59,0,2.94,0.23,4.19-0.04c11.46-2.49,23.05-3.19,34.75-2.87c4.3,0.12,8.67,0.43,13.05-2.57
		c1.09,4.86,1.96,8.62,2.78,12.4c1.55,7.13,2.68,14.33,5.19,21.26c1.1,3.04,0.99,6.54,1.38,9.83c0.32,2.7-0.47,5.13,3.07,7.31
		c2.37,1.46,3.12,6.46,1.75,10.23c-1.2,3.3-0.46,6.43,0.15,9.75c1.61,8.9,1.43,17.84-0.24,26.79c-2.08,11.1-4.74,22.05-8.39,33.9
		c17.91-1.8,35.17-3.31,52.76-1.46c-1.29,3.11-3.5,2.41-5.3,2.53c-14.91,0.99-29.88,1.21-44.69,3.72c-4.44,0.75-7.49,2.34-8.91,6.63
		c-0.09,0.28,0.02,0.63,0.04,1.03c1.29,1.51,2.77-1.22,4.42,0.42c0.91,2.77-2.27,4.95-2.23,7.58c0.65,0.93,1.23,1.03,1.92,0.54
		c4.02-2.85,6.63-7.39,11.22-9.77c4.22,11.54,3.13,17.57-9.52,53.15c19.29,3.58,38.33,7.72,56.78,14.25
		c18.29,6.47,36.45,13.08,53.45,25.72c-6.04,1.44-9-0.99-12.22-2.59c-26.34-13.09-53.84-22.91-82.64-28.96
		c-6.79-1.42-13.61-2.92-20.57-2.77c-5.1,6.01-9.94,11.7-15.07,17.73c8.22,4.12,16.97-3.33,24.94,2.82
		c-10.28,3.76-20.07,6.89-28.36,14.45c3.67,2.84,8.22,2.39,11.87,4.2c20.58,10.2,42.98,15.89,63.71,25.8
		c13.26,6.34,25.97,13.51,38.03,21.86c1.08,0.75,2.05,1.69,2.92,2.69c0.37,0.42,0.33,1.2,0.5,1.9c-2.43,2.57-4.13,0.09-5.87-1
		c-18.68-11.66-38.2-21.65-58.68-29.72c-2.92-1.15-5.72-3.54-9.94-2.16c18.89,22.48,33.12,46.97,40.02,75.72
		c27.24,4.3,53.54,11.04,76.69,26.29c1.32-1.01,2.36-1.42,2.79-2.18c8.84-15.66,21.98-27.32,35.32-38.95
		c13.32-11.61,25.11-24.71,34.05-39.69c-0.21-1.15-0.14-1.9-0.47-2.42c-8.7-13.73-16.52-28.12-29.14-38.92
		c-3.6-3.08-6.42-6.93-8.2-11.2c-8.02-19.22-12.6-39.23-12.56-60.13c0.02-9.29,6.08-19.04,14.55-24.51
		c0.56,0.29,1.22,0.47,1.67,0.88c5.88,5.3,9.45,5.15,13.52-1.16c4.17-6.47,7.53-13.16,5.01-21.46c-1.03-3.41-0.6-7.26-0.81-10.91
		c-0.5-8.6,2.14-15.63,9.68-20.57c2.74-1.8,4.9-4.46,7.91-7.29c3.19,4.99,9.62,5.11,13.12,9.48c3.58,4.46,5.28,9.82,5.83,15.19
		c3.2,1.99,6.1,0.92,9.51,1.06c0.97-4.54,0.53-8.92,2.08-12.95c2.11-5.49,4.76-10.66,11.02-11.77c4.21-0.75,6.23-4.96,10.98-5.55
		c1.88,3.65,4.81,6.57,8.82,8.33c4.21,1.84,5.59,5.5,5.62,9.76c0.02,2.99-0.09,5.99-0.42,8.96c-0.77,7.02-0.83,7.01,6.78,10.66
		c2.03-1.44,2.65-3.63,3.11-5.9c0.87-4.32,3.25-8,5.08-11.91c2.46-5.25,6.22-8.39,12.4-8.41c2.92-0.01,5.85-1,9.24-1.64
		c2.23,3.07,4.25,6.4,6.94,9.26c5.6,5.96,6.53,12.92,2.62,20.24c-1.88,3.51-4.06,6.86-6.08,10.29c-2.84,4.84-2.22,8.53,2.32,13.98
		c2.22-0.55,2.79-2.58,3.82-4.22c2.79-4.47,6.06-8.04,12.12-6.44c2.73,0.72,4.53-2.8,7.93-1.58c-0.03,3.78,1.21,7.19,3.71,10.59
		c4.27,5.81,3.89,13.16-1.15,18.35c-5.09,5.24-7.62,11.63-10.37,17.99c-3.29,7.63-5.95,15.53-9.26,23.14
		c-7.3,16.75-14.78,33.42-22.3,50.07c-6.23,13.79-16.22,24.41-29.12,31.98c-7.3,4.28-9.44,9.84-9.48,18
		c-0.11,23.25-1.78,46.4-5.66,69.4c-4.23,25.09-16.98,45.15-35.2,62.16c-11.11,10.37-24,17.8-38.52,22.35
		c-2.54,0.8-5.11,1.33-7.13,3.35c-3.93,3.93-9.21,4.76-13.98,3.41c-8.67-2.45-17.24-1-25.73-0.4c-26.84,1.92-53.14-0.41-78.98-7.92
		c-1.2-0.35-2.44-1.1-4.39,0.43c6.74,34.66,4.73,68.83-12.74,100.51c1.92,3.59,5.24,3.86,7.9,4.88c5.91,2.26,11.69,4.73,17.29,7.69
		c2.62,1.39,5.42,2.6,8.29,3.32c18.92,4.81,36.01,13.64,52.54,23.68c38.23,23.2,69.13,54.13,93.68,91.23
		c25.05,37.86,41.4,79.45,50.36,123.99c5.22,25.93,7.03,52.12,5.56,78.39c-1.41,25.17-5.36,50.08-11.2,74.7
		c-8.94,37.64-20.88,74.24-36.78,109.49c-3.64,8.06-4.02,15.24,0.47,22.69c7.78,12.89,16.02,25.42,30.19,32.28
		c11.97,5.79,24.13,11.3,37.44,13.17c45.35,6.39,88.17-1.53,128.14-23.82c36.32-20.25,63.81-49.7,85.95-84.46
		c18.58-29.18,28.4-61.38,32.69-95.49c3.38-26.88,3.43-53.95,0.92-80.71c-4.68-49.97-18.09-97.83-39.23-143.54
		c-20.69-44.74-47.58-85.33-79.86-122.41c-10.91-12.53-22.36-24.62-35.4-35.11c-5.37-4.32-9.94-9.64-15.04-14.67
		c2.35-3.01,4.9-2.11,6.69-1.38c6.14,2.51,12.4,4.97,18.1,8.32c36.83,21.63,71.15,46.77,103.1,75.11
		c9.45,8.39,18.94,16.79,27.75,25.83c35.92,36.83,67.38,76.93,91.39,122.77c21.6,41.25,37.3,84.45,46.72,129.94
		c7.26,35.08,8.68,70.67,5.88,106.25c-2.58,32.86-9.88,64.94-19.93,96.38c-18.52,57.91-48.37,109.48-88.6,154.74
		c-25.04,28.17-53.18,53.24-86.14,72.21c-36.68,21.11-75.86,35.26-117.71,41.95c-19.4,3.1-38.94,5.17-58.55,5.07
		c-41.92-0.2-82.68-7.5-121.98-22.29c-10.24-3.85-20.29-8.23-31.5-12.81c2.5,9.6,9.12,17.3,9.07,26.1c-2.89,3.21-5.03-0.4-7.55,1.27
		c0.47,3.99,0.95,8.21,1.48,12.42c1.22,9.69,0.39,18.7-8.3,24.68c0.33,11.35-1.82,15.57-14.17,17.84
		c-11.16,2.05-22.46,1.91-34.3,2.87c-4.02,6.81-11.52,8.51-19.09,9.87c-26.7,4.79-53.67,4.55-80.63,4.09
		c-4.95-0.08-9.94-0.82-14.83-1.73c-8.73-1.63-16.35-5.37-21.39-13.43c-1.11,1.03-2.24,1.56-2.41,2.31
		c-1.8,7.98-6.91,11.75-14.88,12.16c-2.98,0.15-5.95,0.64-8.93,0.75c-19.98,0.72-39.94-0.62-59.89-1.27
		c-8.25-0.27-16.72-1.23-23.69-6.59c-2.45-1.89-5.04-1.55-7.62-1.07c-18.45,3.43-37.11,3.3-55.72,2.8
		c-10.59-0.29-21.15-2.01-31.72-3.1c-0.66-0.07-1.44-0.04-1.94-0.38c-8.46-5.68-17.94-3.42-27.11-3.5c-8-0.07-16,0.16-23.99-0.07
		c-7.32-0.21-14.68-0.67-21.09-4.87c-1.8-1.18-3.57-1.38-5.65-1.27c-2.64,0.13-5.31-0.12-7.95-0.37
		c-7.43-0.71-12.45-4.55-14.09-11.92c-0.54-2.42-1.27-4.42-3.07-6.02c-9.29-8.25-10.32-18.84-8.44-30.17
		c0.48-2.93,1.3-5.79,0.67-8.8c-2.63-2.25-6.02,1.1-8.96-2c2.82-9.29,7.65-17.84,15.68-24.19c3.23-2.55,5.62-5.36,7.57-8.95
		c7.32-13.5,15.9-26.12,26.79-37.06c5.04-5.06,10.3-9.58,18.22-8.14c2.22,0.4,3.85-0.84,5.41-2.05
		c14.29-11.09,30.23-12.62,47.23-8.29c0.94,0.24,1.96,0.14,2.85,0.19c2.3-0.93,2.55-3.06,3.17-4.89
		c12.27-36.6,22.67-73.65,28.88-111.84c2.45-15.07,4.92-30.13,6.97-45.25c1.13-8.31-0.2-16.6-1.73-24.8
		c-5.61-30.09-12.14-59.96-21.77-89.05c-4.07-12.3-8.96-24.34-13.46-36.5c-2.92-7.88-4.03-16.21-3.89-24.43
		c0.09-5.29-1.47-8.93-5.15-12.05c-2.53-2.15-5.2-4.16-7.96-6.02c-9.97-6.74-19.02-14.65-27.38-23.19
		c-9.75-9.96-19.02-20.46-26.3-32.5c-1.38-2.28-2.94-4.44-4.55-6.87c-4.13-0.8-8.27-0.02-12.58,0.38
		c-10.1,0.94-20.34,3.62-30.45-0.19c-0.93-0.35-1.94-0.76-2.89-0.71c-10,0.53-17.57-5.43-25.83-9.55c-3.14-1.56-5.12-4.12-6.84-7.04
		c-14.29-24.23-2.86-54.54,15.38-67.72c2.4-1.74,4.95-3.36,8.08-3.69c1.62-0.17,3.27-0.48,4.79-1.05c1.85-0.7,3.58-1.73,5.15-2.51
		c1.47-1.01,1.1-2.55,1.63-3.68c5.14-10.99,1.18-20.49-4.26-30.08c-9.19-16.2-18.23-32.49-26.79-49.02
		c-8.09-15.64-16.3-31.33-19.39-48.97c-1.6-9.15-3.32-18.29-2.95-27.67c0.17-4.32,0.03-8.64,0.03-13.18
		c-4.19-3.89-8.29-7.7-12.69-11.78c-10.08,2.66-18.13-0.54-24.13-9.12c-4.98-7.13-5.85-17.73-0.43-24.3
		c3.84-4.65,4.28-8.71,3.48-14.4c-1.81-12.92-0.96-25.75,2.69-38.54c2.44-8.53,2.72-17.66,4.46-26.42
		c5.47-27.54,18.45-51.21,38.19-71.04c30.24-30.37,66.84-48.84,108.78-56.98c3.92-0.76,7.81-1.87,11.77-2.17
		c8.68-0.65,12.86-6.59,15.26-13.57c6.23-18.16,8.53-36.84,5.4-56c-2.28-0.92-3.84,0.49-5.3,1.79
		c-22.32,19.77-41.77,41.9-56.1,68.25c-1.09,2-2,4.27-4.55,5.06c-2.11-1.01-1.43-2.8-0.78-4.09c2.22-4.46,4.48-8.94,7.1-13.18
		c12.85-20.84,28.69-39.15,47.19-55.19c1.99-1.73,3.62-3.87,5.42-5.82c2.76-1.68,6.38-2.88,5.52-7.14
		c-2.08-10.3-4.94-20.35-10.33-29.24c-3.43-0.04-5.56,1.27-7.43,4c0.12,3.72,2.25,7.15,3.5,10.86
		C648.48,341.67,653.5,348.1,654.95,356.01z M715.18,356.52c-4.83-10.45-14.63-13.74-21.61-20.14c-2.92-2.68-6.37-0.79-7.19,3.31
		c-0.19,0.97-0.06,1.99-0.16,2.99c-1.99,19.6-6.4,38.54-14.92,56.42c-0.76,1.6-2.46,3.13-1.12,5.92c6.78-5,14.71-6.82,22.78-8.44
		C697.16,381.17,705.38,368.36,715.18,356.52z M822.55,996.03c5.8-8.99,11.56-17.26,19.78-23.99c-6.26-5.71-11.84-10.8-17.98-16.4
		c-5.11,8.88-11.44,17.92-18.41,27.51C812.85,985.87,816.97,991.08,822.55,996.03z M837.14,1163.42c3.72-1.39,6.25-2.83,8.39-5.78
		c-1.97-6.78-4.31-13.61-10.38-20.9C835.2,1146.86,833.5,1155.02,837.14,1163.42z M641.3,317.27c2.75-1.5,5.38-2.09,6.6-5.22
		c-2.31-3.8-4.69-7.78-7.16-11.7c-0.28-0.45-1.07-0.57-1.66-0.86C638.45,305.14,638.93,310.67,641.3,317.27z"/>
	<path class="st0" d="M953.81,1164.95c5.56-10.45,11.41-19.71,17.38-28.92c6.34-9.76,12.84-19.45,18.6-29.55
		c6.6-11.59,11.74-23.83,13.61-37.27c0.56-4.03,0.29-7.8-0.01-11.8c-1.51-20.35-9.36-38.63-17.73-56.79
		c-0.83-1.81-1.68-3.61-2.58-5.53c1.91-3.61,5.65-4.68,8.53-6.71c30.16-21.26,54.88-47.34,70.83-80.94
		c13.27-27.97,20.56-57.28,20.64-88.56c0.08-28.21-5.77-54.94-17.17-80.36c-10.62-23.69-26.46-43.69-47.33-59.47
		c-4.49-3.39-8.89-6.9-14.96-11.62c9.84,1.99,16.94,5.6,23.82,9.34c19.32,10.51,37.83,22.33,54.56,36.7
		c28.81,24.74,52.28,53.76,70.66,87.06c19.83,35.93,32.4,74.25,38.95,114.58c3.31,20.39,4.11,41.02,2.97,61.67
		c-2.92,53.25-16.21,104.17-34.69,153.95c-7.06,19.03-15.79,37.33-23.83,55.92c-0.37,0.85-0.65,1.73-1.61,4.3
		c5.03-4.09,5.31-9.64,9.91-13.24c-0.77,14.25-6.01,26.36-9.94,39.02c4.22-1.23,3.78-4.99,5.07-7.57c1.32-2.65,1.87-5.68,3-8.44
		c1.85-4.53,1.48-9.85,5.19-14.51c2.51,9.39,4.86,18.18,7.36,27.52c3.03-4.89-2.5-9.13,0.23-13.41c0.58,0.43,1.34,0.7,1.57,1.21
		c4.57,9.99,14.05,14.4,22.69,19.55c26.03,15.5,54.61,17.99,83.92,15.22c24.3-2.3,47.72-8.16,70.01-18.54
		c17.64-8.22,33.8-18.63,48.59-31.11c23.37-19.73,42.22-43.31,57.62-69.68c13.74-23.54,21.91-49.03,26.55-75.79
		c4.52-26.02,5.43-52.19,3.96-78.51c-2.95-52.65-15.57-102.88-36.55-151.25c-22.21-51.19-52.67-96.95-89.77-138.32
		c-11.95-13.33-25.59-25.14-39.05-38.21c4.09-0.56,6.96,1.34,9.74,2.99c12.87,7.66,25.8,15.21,38.19,23.67
		c24.75,16.92,48.4,35.27,70.81,55.16c31.2,27.7,58.97,58.54,83.26,92.51c29.87,41.78,51.79,87.46,67.41,136.27
		c8.12,25.37,13.62,51.28,16.69,77.77c1.34,11.6,1.05,23.25,2.11,34.79c1.04,11.34-0.03,22.5-0.6,33.69
		c-1.32,25.94-6.11,51.37-12.56,76.51c-10.66,41.55-27.06,80.71-49.56,117.19c-14.51,23.53-30.83,45.76-49.8,66.04
		c-22.85,24.43-47.56,46.49-76.18,63.97c-32.67,19.95-67.79,33.74-105.2,41.63c-22.82,4.82-45.98,7.42-69.24,8.02
		c-22.98,0.6-45.79-1.99-68.42-6.25c-31.57-5.94-61.74-15.91-90.6-29.99c-6.26-3.05-10.7-7.03-13.35-13.85
		c-3.11-8.01-6.86-15.88-12.16-22.86c-7.75-10.19-17.76-16.38-30.67-15.51c-9.3,0.62-15.64-2.83-21.52-9.54
		c-18.33-20.92-28.56-44.63-26.25-72.86c0.68-8.32,3.34-16.22,6.26-24.01c1.87-4.98,4-9.87,5.58-14.94
		c2.77-8.92,4.19-17.81,2.45-27.4c-1.95-10.78-3.82-21.53-6.74-32.1c-2.09-7.56-5.72-14.06-11.13-19.71
		C960.14,1172.74,957.3,1169.06,953.81,1164.95z"/>
	<path class="st0" d="M629.91,268.04c0.11,1.37,0.13,2.82-1.62,3.05c-1.97,0.26-3.97,0.3-5.96,0.33c-6.63,0.11-13.28-0.4-19.43,1.1
		c-3.19-1.56-3.59-4.18-4.24-6.8c-3.53-14.13-3.46-28.54-1.42-42.68c3.88-26.95,13.2-52.08,27.99-75.1
		c2.99-4.65,6.63-7.97,11.61-10.47c9.86-4.96,20.42-7.93,30.68-11.75c1.19-0.44,2.69-0.19,3.34-1.68
		c-7.34-0.57-18.45,3.05-33.39,10.21c-11.22,5.38-21.23,12.39-30.33,20.76c-8.87,8.16-15.46,18.13-21.57,28.76
		c-1.75-4.14,0.16-7.54,0.85-10.94c3.49-17.06,8.98-33.43,18.87-47.94c13.57-19.92,31.87-33.63,55.1-40.41
		c9.52-2.78,18.75-3.09,27.88,2.44c5.89,3.57,12.68,5.7,20,5.53c-7.03-2.93-14.07-5.79-20.87-9.18
		c-16.98-8.47-31.12-20.56-43.39-34.69C634,37.03,629.33,22.83,626.5,6.84c1.8,1.25,2.84,1.6,3.25,2.31
		c6.04,10.43,15.59,16.99,25.12,23.81c12.53,8.96,26.13,15.77,40.32,21.37c8.29,3.27,17.09,5.38,25.79,7.48
		c12.43,3,24.04,7.71,34.59,14.98c1.61,1.11,3.11,2.58,5.31,2.4c0.29-0.02,0.55-0.35,0.83-0.54
		c-12.11-10.95-17.76-23.92-16.38-38.78c12.31,17.44,25.81,32.77,44.28,44.13c-2.33,2.06-4.66,1.42-6.68,1.42
		c-10.72,0.01-20.07,4-28.98,9.53c-2.44,1.51-3.95,3.46-4.5,6.23c-0.88,0.54-1.75,1.08-2.63,1.62c-5.24,1.77-7.37,6.53-9.68,10.77
		c-6.73,12.38-10.89,25.56-10.89,39.83c0,3.3-0.49,6.16-2.53,9.27c-16.31,24.96-27.91,51.93-33.28,81.4
		c-0.41,2.27-1.32,4.57-1.21,6.81c0.53,10.43-5.65,18-10.64,26.65c-5.64-0.97-11.13-1.97-16.63-2.84c-7.2-1.13-14.39-2.6-21.64-3.03
		c-4.03-0.24-7.37-1.34-10.62-3.38c2.11-4.87,0.19-9.72-0.09-14.58C628.1,258.5,628.36,263.28,629.91,268.04z"/>
	<path class="st0" d="M746.81,102.79c0.88-0.54,1.75-1.08,2.63-1.62c1.4-0.89,2.87-1.7,4.19-2.69c14.4-10.87,30.78-11.52,47.6-8.81
		c7.22,1.16,13.27,5.62,19.71,9.27c1-3.21-2.13-4.81-1.82-8.02c11.28,4.06,16.01,14.13,22.76,22.36
		c-2.99,6.85-6.43,13.01-7.06,20.08c-0.2,2.26-1.92,3.27-3.45,4.58c-10.28,8.82-17.18,19.76-22.65,32.25
		c-9.63,21.99-21.74,42.68-39.4,59.46c-9.71,9.23-20.48,16.94-33.62,20.68c-1.24,0.35-2.54,0.49-5.66,1.08
		c9.45-10.94,15.21-22.15,18.73-34.52c3.53-12.41,6.16-24.87,3.47-37.97c-8.55,9.77-8.49,23.88-17.32,33.22
		c-3.45-1.39-2.67-4.03-2.62-6.15c0.32-12.99-1.73-25.75-3.05-38.62c-2.19-21.37,1.57-41.74,14.95-59.42
		C745.41,106.37,746.97,105.03,746.81,102.79z"/>
	<path class="st0" d="M880.34,333.3c10.71,2.82,22.11,6.41,33.76,8.73c11.38,2.27,19.81,8.09,27.05,16.88
		c14.98,18.18,25.83,38.5,33.16,60.78c0.7,2.13,0.97,4.39,1.42,6.51c-2.98,1.95-5.37,1.08-7.7-0.46
		c-8.89-5.89-18.19-10.9-28.49-13.91c-2.97-0.87-5.08-3.08-7.43-4.9c-13.75-10.67-29.44-15.22-46.58-13.4
		c-10.63,1.13-19.13-2.98-26.24-9.45c-6.84-6.22-7.21-15.28-5.9-24.12c0.98-6.6,3.78-11.76,10.65-14.13c4.1-1.41,7.54-4,10.1-7.74
		C875.43,336.22,877.07,334.45,880.34,333.3z"/>
	<path class="st0" d="M1136.76,285.43c2.15-9.6,9.49-12.8,16.57-15.37c13.64-4.97,27.43-4.02,40.8,1.55
		c5.25,2.19,10.05,5.22,13.1,10.32c1.58,2.63,3.85,4.4,6.44,6.05c5.73,3.66,8.32,9.08,8.56,15.95c0.75,21.17-14.6,35.24-35.79,32.46
		c-2.94-0.39-5.8-1.35-8.04-1.89c-3.37-2.15-0.19-5.58-2.58-7.44c-1.59,0.38-1.52,1.97-2.2,3.03c-2.87,4.47-3.82,5-8.93,3.86
		c-2.88-0.64-5.78-1.59-8.41-2.91c-7.43-3.72-14.84-7.36-22.59-10.44c-14.49-5.77-17.87-18.62-9.12-32.31
		c8.01-0.11,15.85,1.26,23.44,3.64c7.65,2.39,13.26,8.14,19.38,12.99C1161.11,292.32,1148.64,289.04,1136.76,285.43z
		 M1185.85,302.12c13.29-1.57,16.23-3.04,21.21-10.83C1201.32,296.45,1193.57,297.57,1185.85,302.12z"/>
	<path class="st0" d="M922.86,174.09c2.46-1.66,1.57-4.89,4.87-6c0.13-0.04,0.42,0.31,0.43,1.26c0.27,17.13-4.28,33.35-9.22,49.51
		c-0.69,2.27-1.4,4.68-3.85,5.44c-6.27,1.94-12.62,3.61-19.58,5.57c-1.32-7.56-0.98-14.76-2.36-21.77
		c-1.34-6.81-3.17-13.37-6.24-19.58c19.19-6.97,27.14-9.63,38.28-38.13c1.62,4.96,1.4,4.92,0.03,11.41
		C924.41,165.65,922.13,169.18,922.86,174.09z"/>
	<path class="st0" d="M755.05,381.96c-17.41,11.64-43.72,18.36-58.61,15.14c4.01-14.37,11.38-26.64,21.36-38.1
		C729.99,366.75,740.54,376.61,755.05,381.96z"/>
	<path class="st0" d="M893.63,236.86c6.4-4.15,12.32-5,18.76-7.11c-0.24,7.15-6.16,11.21-7.51,17.53c3.76,0.92,5.65-2.8,8.45-3.56
		c1.4,2.57-0.63,4.47-0.39,6.85c7.01-0.73,11.04-6.71,16.78-10.23c0.67,14.4-5.36,34.16-14.12,46.68c-4.17,0.7-8.22-0.43-13.01-2.13
		C906.89,267.69,898.7,252.73,893.63,236.86z"/>
	<path class="st0" d="M629.96,275.46c3.83,5.4,5.2,10.65,5.01,16.48c-0.19,5.94-0.04,11.86,1.08,17.79
		c0.59,3.11,1.51,6.51,0.15,9.93c-2.34,2.41-5.76,2.71-8.36,4.26c-10.04-7.93-21.42-28.57-25.39-46.15
		C611.49,273.61,621,276.1,629.96,275.46z"/>
	<path class="st0" d="M651.7,311.37c-7.43-10.83-13.16-22.51-18.07-35.75c15.55-0.63,29.3,2.16,42.93,6.07
		c0.7,7.4-2.65,13.69-1.37,20.76C667.38,305.41,659.73,308.32,651.7,311.37z"/>
	<path class="st0" d="M1015.05,1515.18c-3.64,6.77-8.74,8.62-13.97,9.16c-15.15,1.58-29.99,5.74-45.44,5
		c-15.26-0.73-30.6,0.88-45.84-0.99c-4.26-0.52-8.55-1.39-12.61-2.74c-4-1.33-8.05-3.07-9.89-8.07
		C929.73,1526.79,971.65,1523.8,1015.05,1515.18z"/>
	<path class="st0" d="M675.87,307.72c2.11,9.02,10.53,16.01,5.54,27.68c-4.16,3.15-9.62,7.28-14.97,11.33
		c-2.02-1.4-1.68-3.19-2.08-4.67c-1.58-5.82-0.61-12.5-7.28-16.45c-2.04-1.21-2.82-5.13-2.82-8.84
		C660.05,311.31,667.74,309.76,675.87,307.72z"/>
	<path class="st0" d="M664.77,1511.06c31.91,9.44,62.2,6.44,92.51,1.59c2.29-0.37,4.59-1.25,6.84-1.11
		c3.64,0.22,5.33,2.39,4.17,6.58c-6.62,3.99-14.41,3.94-21.9,4.16c-14.65,0.44-29.34,0.51-43.98-0.01
		c-8.93-0.32-17.84-1.8-26.7-3.18C670.02,1518.2,669.26,1517.31,664.77,1511.06z"/>
	<path class="st0" d="M874.52,1521.37c-2.05,5.36-5.51,6.57-9.72,7.1c-11.95,1.49-23.96,1.03-35.9,0.58
		c-7.3-0.27-14.61-0.39-21.92-0.66c-8.63-0.31-17.25-0.95-25.66-3.09c-5.26-1.34-5.25-1.36-9.1-7.75
		C806.3,1523.61,839.99,1525.01,874.52,1521.37z"/>
	<path class="st0" d="M662.56,406.74c0.82-5.16,1.53-10.34,2.47-15.47c1.73-9.51,1.83-19,0.31-28.56
		c-0.76-4.79,0.58-9.06,4.39-12.44c3.44-3.05,6.81-6.15,12.03-8.7c0.8,12.52-2.31,23.4-5.23,34.36
		C673.62,386.83,668.83,396.9,662.56,406.74z"/>
	<path class="st0" d="M817.33,1492.59c-7.02-15.62-6.46-30.3,3.65-45.05c8.01,8.92,11.93,18.53,9.24,29.95
		C828.59,1484.44,825.18,1490.39,817.33,1492.59z"/>
	<path class="st0" d="M1240.83,202.48c-0.06,5.59-1.76,10.84-6.82,13.31c-4.71,2.31-9.04-1.34-12.48-4.07
		c-4.29-3.39-6.42-8.36-4.92-14.12c1.85-7.11,6.05-10.79,11.48-9.87C1235.38,188.97,1241.88,193.94,1240.83,202.48z"/>
	<path class="st0" d="M665.88,1477c-1.56-15.69,7.53-35.23,19.97-42.74c2.07,10.23,1.73,19.76-3.21,28.97
		C678.23,1471.49,675.6,1473.86,665.88,1477z"/>
	<path class="st0" d="M1193.52,206.43c3.9,2.43,7.29,5.94,12.24,5.16c0.59,13.15-8.79,36.33-18.35,46
		C1187.17,250.19,1191.6,212.58,1193.52,206.43z"/>
	<path class="st0" d="M1163.89,203.9c-0.25,15.94-1.66,31.31-8.07,47.54c-4.8-15.68-5.95-30.35-8.52-44.74
		c-0.13-0.74,0.85-1.68,1.7-3.22C1153.5,205.95,1158.23,202.83,1163.89,203.9z"/>
	<path class="st0" d="M1120.84,263.87c-0.02,0.25-0.02,1.6-0.26,2.89c-1.44,7.74-7.68,10.25-14,5.66
		c-6.79-4.92-9.49-14.61-6.22-22.28c2.15-5.03,5.35-6.34,10.38-4.22C1117.04,248.58,1120.95,255.09,1120.84,263.87z"/>
	<path class="st0" d="M1192.84,192.47c0,0.99,0.05,1.99-0.01,2.97c-0.38,6.37-2.86,9-9.24,8.99c-4.29-0.01-8.48-0.98-12.32-3.15
		c-3.15-1.78-4.95-4.34-4.93-7.97c0.02-4.31,1.82-7.91,5.75-9.62c2.96-1.29,6.35-1.98,9.58-2.13
		C1190.08,181.16,1192.83,184.03,1192.84,192.47z"/>
	<path class="st0" d="M662.38,1514.6c-16.63,2.82-32.78,2.14-48.93,0.46c-3.99-0.42-7.84-1.74-10.71-4.79
		c-1.55-1.65-3.21-3.48-1.4-6.29c8.07,1.09,16.22,2.1,24.33,3.33c9.58,1.44,19.21,1.02,28.83,1.14c1.98,0.02,4.02,0.02,5.94,0.46
		C663,1509.49,662.84,1511.64,662.38,1514.6z"/>
	<path class="st0" d="M977.69,1476.72c-7.73-1.58-12.09-5.99-14.82-12.42c-4.39-10.33-0.59-19.28,4.5-28.14
		C976.16,1446.09,980.11,1461.12,977.69,1476.72z"/>
	<path class="st0" d="M600.5,1423.69c1.24,14.81-3.38,25.62-9.51,35.89c-2.14,3.59-4.73,4.12-11.28,4.39
		c-1.24-0.79-1.74-1.91-1.44-3.35C581.19,1446.59,588.43,1435.17,600.5,1423.69z"/>
	<path class="st0" d="M1134.07,186.64c6.44,0,9.93,4.25,10.13,11.99c0.18,7.21-2,10.11-10.99,10.67
		c-6.69,0.41-12.5-4.85-12.23-10.35C1121.33,191.94,1126.96,186.64,1134.07,186.64z"/>
	<path class="st0" d="M1117.75,221.98c7.55,19.38,11.14,38.86,8.34,59.38c-5.79-2.47-6.41-3.15-5.02-6.76
		c1.31-3.4,2.97-6.63,3.14-10.4c0.43-9.5-2.85-16.84-11.84-21c-1.18-0.55-2.33-1.16-4.06-2.02c1.11-3.61,3.83-6.1,5.35-9.2
		C1115.24,228.76,1116.4,225.32,1117.75,221.98z"/>
	<path class="st0" d="M1255.45,229.48c6.8,0.12,12.66,8.96,10.1,15.28c-0.85,2.11-2.26,4.08-3.74,5.83
		c-3.12,3.67-6.93,3.73-10.3,0.4c-6.36-6.27-6.79-13.74-1.17-19.26C1251.82,230.25,1253.47,229.32,1255.45,229.48z"/>
	<path class="st0" d="M1231.39,230.53c3.78,2.67,3.73,8.24,9.17,9.43c-6.55,12.24-12.31,23.7-23.24,33.41
		c0.82-8.69,4.3-15.19,6.64-22.01C1226.32,244.49,1228.83,237.67,1231.39,230.53z"/>
	<path class="st0" d="M1075.78,1456.62c-14.54-6.06-19.07-14.01-16.58-29.04c2.25-1,3.87,0.05,5.02,1.8
		c5.25,7.98,9.66,16.38,12.39,25.58C1076.73,1455.4,1076.07,1456.07,1075.78,1456.62z"/>
	<path class="st0" d="M1061.53,1501.73c1.87,3.24,1.2,5.6-1.36,7.21c-1.64,1.03-3.58,1.72-5.48,2.19
		c-8.06,1.99-16.29,2.41-24.56,2.26c-2.72-0.05-4.34-1.19-3.66-4.9C1038.18,1506.48,1050.54,1507.33,1061.53,1501.73z"/>
	<path class="st0" d="M558.47,863.44c1.91,2.62,4.23,4.48,3.48,7.41c-0.97,3.79-1.37,7.83-3.82,11.08c-1.1,1.46-2.84,1.59-4.48,1.04
		c-6.97-2.35-8.82-10.64-3.62-15.96C552.2,864.78,554.93,863.95,558.47,863.44z"/>
	<path class="st0" d="M843.84,81.3c5.92,5.73,12.34,10.82,16.75,18.48c-4.47,2.52-8.39,4.73-13.13,7.41
		C845.77,98.14,846.27,89.54,843.84,81.3z"/>
	<path class="st0" d="M890.74,315.64c0.77,2.26,2.52,1.84,3.96,1.15c4.41-2.11,8.92-1.12,15.62-1.36
		c-7.58,5.25-13.85,8.73-18.95,13.8c-2.49,2.47-5.49,0.04-9.01-0.67c2.4-4.99,3.86-9.87,8.66-12.64L890.74,315.64z"/>
	<path class="st0" d="M891.02,315.92c-1.02-2.55,0.64-4.48,1.6-6.51c2.68-5.69,5.47-11.34,8.33-17.23
		c2.93-1.33,6.03-0.75,10.09,0.09c-5.19,9.85-12.65,16.69-20.3,23.37L891.02,315.92z"/>
	<path class="st0" d="M578.44,1499.93c5.68,0.52,11.19,0.69,16.56,1.62c3.91,0.68,3.74,3.71,2.73,6.67
		C584.71,1510.29,582.4,1509.32,578.44,1499.93z"/>
	<path class="st0" d="M630.33,328.74c2.46-2.25,4.61-3.65,8.36-3.2c2.46,5.83,5.09,12.04,7.91,18.72
		C639.63,341.36,639.5,341.23,630.33,328.74z"/>
	<path class="st0" d="M572.26,1433.97c-1.86,5.1-3.56,10.28-5.65,15.28c-1.16,2.77-3.57,2.27-6.21,1.03
		C562.17,1443.51,566.28,1438.28,572.26,1433.97z"/>
</g>
</svg>
