<?xml version="1.0" encoding="utf-8"?>
<!-- Generator: Adobe Illustrator 24.0.2, SVG Export Plug-In . SVG Version: 6.00 Build 0)  -->
<svg version="1.1" id="Layer_1" xmlns="http://www.w3.org/2000/svg" xmlns:xlink="http://www.w3.org/1999/xlink" x="0px" y="0px"
	 viewBox="0 0 1419.28 1899.26" style="enable-background:new 0 0 1419.28 1899.26;" xml:space="preserve">
<style type="text/css">
	.st0{fill:#1A1A1A;}
</style>
<g>
	<path d="M653.21,1536.83c-2.06-3.54-4.22-6.53-7-8.92c-18.1-15.63-32.24-34.53-44.5-54.81c-13.19-21.82-24.79-44.52-33.76-68.43
		c-8.63-22.99-14.33-46.78-17.98-71.08c-4.58-30.5-5-61.09-1.98-91.71c2.93-29.64,9.56-58.46,20.01-86.4
		c11.33-30.28,25.87-58.87,45.32-84.7c12.01-15.95,24.08-31.9,37.37-46.86c3.76-4.24,7.34-8.58,12.13-11.75
		c1.96-1.29,3.48-3.15,4.74-5.1c13.3-20.56,29.12-39.36,42.23-60.07c3.32-5.25,5.03-10.46,3.94-16.82
		c-1.86-10.82-2.86-21.77-7.04-32.11c-2.92-7.24-7.44-13.34-12.13-19.41c-16.19-20.95-32.5-41.81-47.06-63.97
		c-4.31-6.56-7.85-13.53-11.84-20.25c-0.77-1.3-1.53-2.51-2.76-3.47c-15.32-12.03-26.24-27.74-36.46-43.98
		c-5.98-9.5-10.49-19.67-12.98-30.68c-1.44-6.38-1.53-12.89-2.27-19.34c-1.31-11.41-2.81-22.8-3.88-34.23
		c-0.5-5.3,1.04-10.55,1.57-15.84c1.06-10.61,4.64-20.44,10.02-29.6c6.01-10.23,15.72-15.51,26.52-19.11
		c10.78-3.59,21.88-5.59,33.14-7.17c7.96-1.11,15.59,0.02,23.29,1.1c8.02,1.13,14.7-6.18,12.31-13.9
		c-2.75-8.87-7.58-16.62-13.15-23.96c-4.02-5.3-8.5-10.27-11.97-15.99c-0.94-1.56-2.23-2.31-4.03-2.51
		c-2.32-0.25-4.6-0.75-6.91-1.08c-9.37-1.34-17.75-5.13-26.09-9.48c-13.62-7.1-26.61-15.19-39.24-23.85
		c-13.77-9.44-26.52-20.16-37.77-32.54c-3.75-4.12-5.72-9.19-6.25-14.88c-1.32-14.2-0.41-28.28,1.81-42.31
		c0.22-1.41-0.02-2.7-0.54-3.89c-6.75-15.42-9.69-31.77-12.09-48.28c-0.93-6.41-0.5-12.79,0.05-19.15c0.26-3.04-1.57-4.24-3.47-5.45
		c-6.89-4.35-13.78-8.74-20.84-12.8c-15.61-8.98-28.75-21-41.5-33.48c-8.71-8.52-16.16-18.15-23.34-27.99
		c-12.38-16.97-19.06-36.13-21.87-56.75c-3.62-26.55-3.39-53.14-0.61-79.77c1.34-12.92,1.97-25.94,4.61-38.69
		c4.64-22.37,10.39-44.43,20.42-65.13c1.37-2.83,2.74-5.67,6.04-6.96c3.07-1.21,5.46-0.67,7.19,2.14c1.33,2.16,1.91,4.6,2.41,7.06
		c2.59,12.73,4.18,25.64,6.61,38.41c2.47,12.99,7.35,24.88,14.37,35.95c4.01,6.32,8.38,12.42,11.92,19.04
		c0.45,0.84,1.3,1.46,2.04,2.27c2.06-0.74,2.59-2.46,3.33-4.11c1.56-3.5,3.28-6.92,4.87-10.4c1.91-4.17,4.97-6.83,9.42-8.2
		c4.54-1.41,9.93,0.39,12.33,4.53c2.99,5.15,4.11,10.88,5.11,16.63c1.46,8.38,2.87,16.74,6.87,24.42c2.1,4.03,4.48,7.86,7.6,11.09
		c6.33,6.57,11.54,14.23,19.19,19.51c2.06,1.42,3.43,3.61,4.82,5.69c1.02,1.53,2.08,3.01,3.84,3.72c1.8-0.82,2.12-2.51,2.59-4.09
		c0.39-1.27,0.59-2.61,1.09-3.84c1.69-4.22,3.38-8.38,8.99-8.73c5.19-0.33,9.06,1.91,11.9,5.91c4.57,6.43,9.89,12.05,16.19,16.84
		c2.08,1.58,3.68,1.83,5.78,0.41c8.57-5.77,17.65-10.68,26.63-15.76c1.34-0.76,2.48-1.66,3.05-3.39c-2.84-3.34-6.08-6.53-8.59-10.22
		c-12.68-18.65-21.62-38.83-25.96-61.13c-1.93-9.92-5.73-19.47-8.46-29.24c-4.57-16.38-8.59-32.87-10.31-49.85
		c-0.46-4.56,0.16-9,0.97-13.4c0.84-4.56,3.56-5.59,7.68-3.49c4.4,2.25,7.03,6.11,9.11,10.3c1.8,3.64,4.28,6.69,6.76,9.83
		c13.02,16.45,28.97,29.83,44.93,43.21c0.24,0.2,0.6,0.25,0.88,0.36c2.05-1.13,1.48-3.2,1.7-4.92c0.63-4.97,1.15-9.93,3.5-14.48
		c3.28-6.35,8.66-7.53,14.29-3.06c1.04,0.82,2.09,1.7,2.88,2.75c12.26,16.33,27.24,30.15,41.41,44.7
		c11.9,12.23,20.2,26.37,24.82,42.7c0.81,2.87,1.92,4.76,5.24,4.96c7.96,0.5,13.49,5.69,18.4,10.99
		c7.68,8.31,14.77,17.2,19.18,27.84c0.53,1.27,1.42,2.25,2.48,3.08c11.44,8.9,21.94,18.92,33.36,27.86
		c5.68,4.45,9.07,10.14,9.47,17.87c0.95,18.29,5.1,36.21,7.21,54.38c0.91,7.83,4.39,15,6.66,22.49c0.56,1.85,2.05,2.99,3.27,4.35
		c5.67,6.32,11.87,12.14,17.09,18.89c5.13,6.63,6.4,14.34,5.93,22.16c-0.41,6.77-0.64,13.67-2.54,20.29
		c-0.61,2.14,0.4,3.15,2.03,3.91c0.74,0.34,1.58,0.54,2.4,0.62c11.1,1.08,22.06,3.21,33.22,3.91c8,0.5,15.43,2.95,19.83,10.57
		c1.77,3.06,2.53,6.51,3.32,9.91c2.32,9.94,2.9,19.84,1.43,30.12c-2.09,14.56-4.57,28.94-9.74,42.75c-0.46,1.23-0.98,2.54-1.81,3.53
		c-8.96,10.73-17.27,22.01-27.97,31.22c-6.55,5.64-14,9.6-22.36,10.13c-6.86,0.44-13.81-1.7-19.77-5.78
		c-1.64-1.13-3.24-2.32-5.03-3.61c-1.98,1.48-4.55,2.07-5.79,4.68c1.98,3.05,5.3,4.5,7.96,6.66c2.74,2.23,5.35,4.48,7.2,7.52
		c1.06,1.73,2.54,3.04,4.17,4.24c3.01,2.23,3.47,4.12,1.58,7.17c-1.57,2.55-3.32,5.05-5.62,6.99c-6.76,5.69-13.63,11.49-21.94,14.61
		c-7.03,2.63-14.33,4.97-22.25,2.71c-5.59-1.59-11.41-2.38-16.97-4.16c-3.87-1.24-6.13,0.67-5.25,4.59
		c2.53,11.23,8.33,20.63,16.54,28.54c7.06,6.81,15.34,11.68,24.75,14.56c1.11,0.34,2.41,0.52,3.26,1.22c4.26,3.52,8.01,1.61,11.61-1
		c5.79-4.21,11.38-8.68,17.42-12.56c8.73-5.61,17.84-10.65,27.66-13.75c12.34-3.9,24.97-3.79,37.19,1.22
		c14.61,5.99,26.93,15.12,36.9,27.38c0.74,0.91,1.37,1.88,2.74,2.6c3.62-2.57,4.8-6.95,6.84-10.57
		c25.68-45.68,58.02-85.63,99.74-117.76c25.38-19.55,51.96-37.14,80.04-52.59c18.43-10.14,38.02-17.75,56.61-27.5
		c6.76-3.55,14.35-5.4,22.01-6.3c3.23-0.38,7.23-0.98,9.03,2.27c1.87,3.37-1.49,5.88-3.6,7.95c-3.55,3.49-7.6,6.47-11.42,9.68
		c-12.97,10.91-22.84,24.66-34.09,37.15c-17.36,19.28-31.36,40.92-43.97,63.53c-10.07,18.06-18.48,36.92-27.29,55.59
		c-1.16,2.45-0.89,4.12,1.38,5.45c2.11,1.24,3.37,3.25,4.46,5.26c5.52,10.28,10.99,20.63,13.16,32.25
		c0.79,4.22,3.66,7.03,5.75,10.37c8.64,13.84,12.84,29.03,14.98,45.11c2.3,17.27-1.77,32.92-9.95,47.82
		c-1.15,2.09-1.63,3.85-0.51,5.99c0.37,0.7,0.66,1.45,0.44,2.37c-2.08,9.05-3.48,18.17-7.18,26.93
		c-4.19,9.95-7.42,20.31-12.69,29.81c-1.38,2.49,0.49,4.17,1.56,5.85c6.78,10.71,14.21,20.93,22.42,30.6
		c7.76,9.14,16.32,17.58,23.77,26.99c1.97,2.48,4.96,2.53,7.77,2.68c10,0.51,19.89,1.9,29.72,3.75
		c12.17,2.29,21.89,8.75,29.59,18.13c4.43,5.39,9.1,9.43,16.02,11.79c8.28,2.83,15.92,7.64,22.61,13.44
		c2.68,2.32,4.38,5.81,6.42,8.83c0.95,1.41,1.88,2.56,3.59,3.24c21.86,8.6,36.15,23.76,40.46,47.34c0.75,4.08,1.07,8.26,1.3,12.41
		c0.14,2.51,1.1,3.84,3.46,4.78c13.27,5.29,20.02,15.74,23.11,29.23c3.52,15.36-0.43,28.96-8.99,41.64
		c-1.77,2.62-3.55,5.23-5.38,7.92c5.86,9.65,11.92,19.2,17.54,29c11.96,20.83,22.37,42.41,30.56,65.01
		c1.71,4.72,1.46,9.87,2.6,14.74c2.72,11.68,6.21,23.16,8.44,34.96c2.55,13.46,3.87,27.01,4.81,40.66
		c2.34,33.74-3.12,66.35-13.34,98.39c-6.69,20.99-14.7,41.4-24.79,61c-23.77,46.17-56.11,85.24-97.01,117.25
		c-26.3,20.58-54.7,37.9-83.44,54.75c-14.54,8.52-30.09,15.09-44.75,23.27c-26.62,14.84-55.61,22.88-84.46,31.5
		c-5.77,1.72-6.02,2.43-3.98,8.09c4.67,12.99,9.92,25.77,12.64,39.44c1.78,8.94,0.03,17.24-2.93,25.41
		c-4.62,12.73-13.36,21.57-26.06,26.58c-2.59,1.02-4.8,0.64-6.99-0.01c-1.74,0.82-2.07,2.34-2.59,3.74
		c-5.85,15.66-15.62,28.58-29.93,36.96c-15.27,8.94-31.95,12.13-49.44,6.22c-3.21-1.08-6.07-2.78-8.73-4.77
		c-3.75-2.8-5.31-7.96-4.16-12.46c0.88-3.42,2.66-6.42,4.37-9.29c-0.74-2.32-2.19-2.34-4.02-2.06
		c-15.02,2.33-27.95-2.34-39.14-12.18c-3.5-3.08-6.22-6.98-8.1-11.26c-1.74-3.97-0.27-7.87,3.36-10.35
		c10.39-7.09,18.1-16.62,24.59-27.22c2.69-4.39,4.7-9.2,8.08-13.16c1.09-1.27,0.97-2.75,1.19-4.21c0.88-5.81,0.64-11.6,0.06-17.44
		c-0.31-3.16-1.48-4.27-4.61-4.4c-9.32-0.38-18.63-1.11-27.95-1.58c-37.91-1.88-75.28-7.09-111.72-18.03
		c-7.49-2.25-14.89-4.82-22.32-7.24c-1.8,1.04-2.48,2.22-2.04,4.5c3.97,20.61,6.86,41.4,10.22,62.11
		c3.15,19.42,7.74,38.5,12.68,57.54c2.8,10.79,7.62,20.54,12.29,30.45c3.47,7.38,7.06,14.69,10.23,22.23
		c7.27,17.34,4.02,33.89-2.66,50.36c-2.38,5.88-5.28,11.48-9.22,16.5c-1.87,2.39-4.01,4.49-6.66,5.96c-4.08,2.26-6.85,1.2-8.66-3.16
		c-1.99-4.78-3.19-9.81-4.72-14.73c-1.31-4.19-2.38-8.57-5.47-12.11c-2.53,2.07-2.59,4.68-2.8,7.11
		c-1.38,16.45-7.19,31.28-17.87,43.69c-6.6,7.66-15.13,13.48-24.47,17.71c-2.37,1.07-5.11-1.06-6.04-4.25
		c-2.59-8.85-3.38-17.99-4.39-27.09c-0.96-8.62-2.32-17.17-4.09-25.65c-0.39-1.88-0.4-4.05-2.52-5.11
		c-1.12,0.19-1.75,0.99-2.34,1.79c-10.52,14.44-25.71,19.93-42.58,22.01c-2.96,0.36-5.99-0.41-8.85-1.32
		c-3.87-1.24-5.82-5.24-4.5-9.1c2.1-6.15,4.17-12.31,6.5-18.36c4.49-11.65,5.74-23.92,7.31-36.15c1.83-14.22,2.75-28.5,3.63-42.8
		c1.08-17.48-1.61-34.48-5.04-51.53c-5.39-26.84-13.42-52.93-21.08-79.15c-4.02-13.74-7.46-27.64-8.99-41.95
		c-1.3-12.12,1.13-23.51,6.02-34.5C647.95,1542.41,651.01,1540.14,653.21,1536.83z"/>
</g>
<g>
	<path class="st0" d="M1192.95,1228.21c-5.19-7.35-10.79-13.05-16.75-18.29c-15.51-13.64-29.57-28.74-44.06-43.4
		c-8.09-8.18-15.64-16.94-23.16-25.71c-5.03-5.87-10.18-11.68-15.24-17.54c-6.42-7.46-12.69-15.06-18.79-22.78
		c-7.5-9.49-15.3-18.79-21.88-28.95c-5.07-7.82-11.33-14.79-15.98-22.87c-6.01-10.46-12.75-20.49-18.43-31.15
		c-4.07-7.63-9.05-14.81-12.72-22.61c-8.79-18.69-17.29-37.52-24.24-57.01c-2.52-7.06-5.08-14.06-7.18-21.26
		c-0.74-2.53,0.24-3.56,1.72-4.36c14.64-7.96,27.87-18.17,42.39-26.32c7.55-4.24,13.96-10.19,21.35-14.73
		c12.82-7.88,24.61-17.22,36.58-26.33c13.97-10.63,28.18-20.91,40.47-33.57c6.86-7.06,12.44-15.05,17.89-23.84
		c4.69,8.95,9.93,16.95,15.91,24.45c3.37,4.23,6.58,8.59,10.18,12.62c7.37,8.27,15.19,16.13,22.37,24.56
		c10.24,12.02,21.21,23.38,31.16,35.69c7.11,8.8,13.41,18.36,21.78,26.12c5.38,4.99,6.61,11.52,7.62,18.46
		c2.15,14.83,1.97,29.71,1.83,44.6c-0.02,2.56,1.24,4.76,1.21,7.24c1.33-0.01,0.5-1.4,1.36-1.9c1.73,0.66,2.37,2.95,4.67,2.94
		c-7.12,15.28-15.17,29.65-18.17,46c5.22-2.82,5.94-8.35,8.46-13.16c2.66,3.99,6.04,6.77,10.94,6.98c0.14,1.94-1.8,3.19-1.23,5.29
		c1.68,1.08,3.13,0.63,4.69-0.73c2.58-2.25,5.62-2.91,9.1-2.77c16.45,0.65,32.08-3.37,47.79-9.07c2.45,4.79,3.48,9.91,4.12,14.98
		c0.62,4.91,1.18,9.81,2.05,14.7c1.09,6.11,2.98,12.01,4.37,18.03c0.32,1.36,1.36,2.56,2.08,3.86c1.15-0.9,0.05-2.38,1.27-3.24
		c3.18,1.14,6.49,1.15,9.65,0.01c1.11,0.68,0.26,2.14,2.09,2.91c1.22-5.68,6.37-7.76,10.41-11.06c2.68,0.51,3.37,3.09,4.5,4.89
		c9.87,15.78,19.36,31.81,27.45,48.59c4.66,9.68,9.38,19.45,12.63,29.64c3.74,11.75,6.92,23.73,9.76,35.78
		c2.88,12.24,4.99,24.59,6.95,37c2.34,14.83,1.78,29.71,1.9,44.6c0.16,19.66-3.33,38.74-8.54,57.64
		c-4.11,14.93-8.81,29.68-14.68,43.95c-7.4,17.96-16.06,35.34-26.2,52.01c-6.8,11.18-14.13,21.96-21.96,32.38
		c-5.82,7.74-12.4,14.94-18.93,22.11c-4.12,4.52-7.82,9.41-12.39,13.55c-11.1,10.04-22.29,19.95-34.06,29.23
		c-21.6,17.04-44.91,31.4-68.4,45.58c-17.36,10.48-35.08,20.25-53.34,29.05c-6.31,3.04-12.81,5.71-19.09,8.82
		c-5.76,2.86-11.55,5.48-16.1,10.6c-2,2.25-6.6,2.37-10.04,3.24c-14.19,3.62-28.03,8.47-42.29,11.82c-1.41,0.33-3.05-0.18-4.43,1.21
		c-2.83-5.68-3.81-11.83-5.4-17.74c-4.04-15.08-7.51-30.31-12.01-45.27c-1.38-4.58-4.28-8.34-6.09-12.65
		c-3.39-8.12-6.03-16.58-10.54-24.19c-7.95-13.43-13.2-27.97-17.75-42.77c-2.79-9.07-5.14-18.29-4.73-27.96
		c0.2-4.66,1.6-8.9,3.5-13.23c2.83,0,5.49,0.09,8.14-0.02c5.11-0.21,10.19,0.32,15.33-0.84c5.37-1.22,10.76,1.22,16.27,0.93
		c9.58-0.5,18.9,2.01,28.32,3.27c10.02,1.35,19.87,3.74,29.98,4.86c6.98,0.77,13.89,0.81,20.82,0.72
		c12.86-0.16,24.92-3.3,35.31-11.26c4.5-3.45,7.32-8.4,10.15-13.2c1.74-2.95,3.14-6.11,4.54-9.25c4.7-10.54,10.85-20.37,13.98-31.68
		c3.41-12.29,6.21-24.6,7.81-37.28c1.61-12.78,0.73-25.55,0.72-38.3c0-6.45-1.63-12.89-2.56-19.67c2.87,1.92,3.28,5.68,6.44,7.56
		c-0.08-2.3-0.79-4.13-1.75-5.84c-5.44-9.75-8.86-20.28-12.46-30.78c-3.96-11.57-9.16-22.65-15.39-33.21
		c-0.05-0.08,0.12-0.28,0.29-0.66C1181.43,1221.66,1186.28,1225.62,1192.95,1228.21z M1221.35,1261.48
		c-1.63-5.27-8.53-16.49-12.05-19.6C1213.29,1249.22,1215.48,1256.47,1221.35,1261.48z"/>
	<path class="st0" d="M597.53,1108.7c-2.42,9.07-4.03,18.22-5.37,27.34c-0.64,4.33-1.64,8.76-1.28,13.27
		c0.46,5.68-0.3,11.35-0.15,17.06c0.43,15.82,2.33,31.35,6.67,46.58c7.54,26.43,19.35,50.86,34.83,73.5
		c3.31,4.84,6.89,9.66,11.36,13.63c3.05,2.71,4.34,6.56,6.21,9.95c9.37,17.02,18.05,34.39,25.41,52.4
		c2.65,6.47,6.22,12.56,9.39,18.81c2.07,4.08,1.34,8.32,0.85,12.58c-1.04,8.93-1.14,17.93-0.09,26.81
		c1.68,14.25,5.84,28.09,7.57,42.36c0.24,1.94,0.8,3.82,1.06,5.78c1.2,9.11-2.35,16.52-7.21,23.87
		c-9.19,13.91-19.33,27.08-30.24,40.89c-54.64-57.42-89.29-124.36-100.63-202.96C544.54,1251.83,558.36,1177.82,597.53,1108.7z"/>
	<path class="st0" d="M937.92,1631.79c-3.95-0.19-7.29,0.46-10.8-0.64c-2.44-0.76-5.28-0.35-7.94-0.27
		c-12.59,0.38-25.07-1.4-37.59-2.18c-10.6-0.66-21.17-2.27-31.68-3.91c-14.16-2.22-28.28-4.8-42.03-8.99
		c-9.64-2.93-19.29-5.87-28.9-8.9c-3.06-0.97-6.03-2.24-8.62-3.22c-2.16-10.73-1.63-21.04-1.4-31.29
		c0.42-19.2,5.67-37.01,16.1-53.28c4.49-7.01,8.6-14.24,13.66-20.91c3.47-4.57,6.97-9.16,10.85-13.31
		c7.36-7.88,14.64-15.83,22.19-23.55c13.92-14.21,26.08-29.85,35.6-47.42c0.29-0.54,0.74-1,1.08-1.46
		c4.61,12.45,10.09,24.4,17,35.74c2.62,4.3,5.13,8.75,7.33,13.31c5.33,11.05,11.49,21.65,17.06,32.56
		c5.95,11.63,11.87,23.34,16.67,35.47c3.27,8.26,4.77,17.19,5.6,26.25c0.76,8.3,0.33,16.56,0.85,24.81c0.2,3.23-1,6.15-1.15,9.3
		c-0.41,8.84,2.24,17.2,3.5,25.78C936.05,1620.84,936.96,1625.97,937.92,1631.79z"/>
	<path class="st0" d="M1091.05,623.04c-0.1-1.36-0.19-1.99-0.2-2.63c-0.19-9.67-4.56-14.23-13.98-13.26
		c-5.13,0.53-10.44,0.45-15.44,2.5c-2.42,0.99-4.86,1.89-7.11,3.23c-2.22,1.32-4.38,2.73-6.72,4.2c1.5-3.24,5.05-7.27,11.33-11.53
		c4.78-3.24,8.12-7.63,11.83-12.34c-3.51,0.18-5.99,2.21-8.22,3.96c-9.82,7.7-18.66,16.55-26.9,25.85
		c-4.7,5.31-8.13,11.83-12.65,17.42c-5.76,7.12-11.16,14.51-16.16,22.15c-4.91,7.5-9.45,15.23-14.12,22.88
		c-5.12,8.38-11.2,16.07-16.92,24.03c-0.57,0.8-1.31,1.58-2.15,2.07c-9.17,5.46-17.29,12.33-25.72,18.78
		c-0.77,0.59-1.76,0.87-2.95,1.43c1.8-5.6,1.03-11.21,1.65-16.73c1.23-10.92,2.99-21.73,5.5-32.36c2.32-9.79,5.4-19.44,8.8-28.93
		c3.76-10.51,7.95-20.85,12.78-30.98c8.09-16.96,17.3-33.25,27.8-48.75c6.46-9.53,13.5-18.7,20.42-27.93
		c9.67-12.9,20.37-24.76,32.11-35.66c10.11-9.39,20.38-18.59,31.46-26.92c9.87-7.42,19.19-15.62,29.63-22.27
		c15.13-9.64,30.28-19.25,45.97-27.98c13.56-7.55,27.35-14.68,41.01-22.05c9.79-5.28,19.83-9.76,30.58-12.69
		c2.83-0.77,5.59-0.3,8.78-0.49c-1.96,4.22-5.96,5.91-8.92,8.52c-8.96,7.9-17.5,16.16-25.18,25.32c-1.92,2.29-4.25,4.23-6.3,6.41
		c-14.84,15.83-27.84,33.06-39.2,51.54c-9.07,14.75-17.68,29.78-25.02,45.47c-9.28,19.81-18.03,39.87-27.97,59.37
		c-4.67,9.16-10.09,17.9-15.74,26.48C1092.78,621.68,1092.18,622.03,1091.05,623.04z"/>
</g>
</svg>
