<?xml version="1.0" encoding="utf-8"?>
<!-- Generator: Adobe Illustrator 24.1.1, SVG Export Plug-In . SVG Version: 6.00 Build 0)  -->
<svg version="1.1" id="Layer_1" xmlns="http://www.w3.org/2000/svg" xmlns:xlink="http://www.w3.org/1999/xlink" x="0px" y="0px"
	 width="124" height="197.32" viewBox="0 0 124 197.32" style="enable-background:new 0 0 124 197.32;" xml:space="preserve">
<path d="M54.6,1.24C41.7,5.34,33,15.54,33,26.64c0,8.7,1.8,12.9,8.3,19.3c3.5,3.4,5.7,6.5,5.5,7.5c-0.2,0.9-2.4,2.4-5.3,3.4
	c-10.6,3.8-12.5,5-12.5,7.4c0,1.7,1.6,3.4,6,6.4c6.9,4.7,11.4,10.4,13.2,16.4s1.5,25-0.5,31.6c-2.2,7.5-6.5,13.7-12.8,18.5
	c-2.8,2.1-5.8,5.4-6.5,7.1c-1,2.5-2.4,3.6-6,4.8c-9.2,3.1-16,10.8-18.4,20.6c-1.1,4.5-1,5.3,0.9,8.4l2.1,3.4l-3.5,2.1
	c-2.8,1.6-3.5,2.6-3.5,5.1c0,2.6,0.6,3.3,3.3,4.5c11.8,4.9,105.9,5.8,117.2,1.1c2.7-1.2,3.5-2.1,3.5-4c0-2.5-0.3-2.9-4.9-6.5
	l-2.5-1.8l2.2-2.8c2.6-3.3,2.7-4.5,0.7-11.2c-2.5-8.5-10.1-16.3-17.8-18.4c-2.9-0.8-4.2-1.8-5.2-4.2c-0.7-1.8-4.2-5.6-7.6-8.6
	c-4.5-4-7-7.2-9.3-12c-3-6.4-3.1-7.1-3.1-20.1c0-16.7,1.4-21.5,8.3-28.2c2.6-2.5,6.6-5.8,9-7.2c7.1-4.4,5.3-7.7-6.4-11.6
	c-3.4-1.2-6.8-2.8-7.5-3.7c-1.1-1.3-0.9-1.9,1.6-4c9.7-8,12.4-12.4,13.2-21.3c0.9-9.9-5.7-20.4-16.1-25.5
	C71.8-0.16,61.5-0.96,54.6,1.24z"/>
</svg>
