<?xml version="1.0" encoding="utf-8"?>
<!-- Generator: Adobe Illustrator 24.1.1, SVG Export Plug-In . SVG Version: 6.00 Build 0)  -->
<svg version="1.1" id="Layer_1" xmlns="http://www.w3.org/2000/svg" xmlns:xlink="http://www.w3.org/1999/xlink" x="0px" y="0px"
	 viewBox="0 0 193 407.94" style="enable-background:new 0 0 193 407.94;" xml:space="preserve">
<g>
	<path d="M87.8,0.48c-6.1,1.1-7,2.5-6.6,9.9l0.3,6.6l-5-0.3c-7.2-0.5-9,1.2-9,8.2c0,7.3,2.4,10,9.2,10.2c2.7,0.1,4.9,0.2,5,0.3
		c0.2,0-0.6,2.4-1.7,5.1c-1.1,2.8-2,6.1-2,7.3c0,1.4-1.2,3.2-3,4.5c-3.1,2.4-3.8,5-1.8,7c1.8,1.8,0.2,2.7-9.7,5
		c-16.2,3.9-22.5,8.4-22.5,16.1c0,9.3,7,30.7,16.2,49.1c4.4,8.9,6.3,13.9,5.7,14.6c-0.5,0.6-2.9,1.9-5.4,2.8c-4,1.6-4.5,2.1-6,7.1
		c-1.3,4.5-2.1,5.6-5.2,7.2c-2,1-4,2.8-4.5,4.1c-1.1,3.2,2.8,7,8.1,7.8c3.4,0.5,4.2,1.1,4.7,3.3c0.9,3.5,3.8,6.5,8.4,8.6
		c2.1,1,4.1,2.4,4.5,3.2c2.6,7,1,59.6-2.5,77.6c-4.4,22.8-12.9,41.9-25.6,57.5c-2.4,2.9-4.6,6.7-4.9,8.5c-0.9,4.3-2.1,5.7-8.5,9.9
		c-14.3,9.3-23.9,25.9-21.1,36.5c0.6,2.2,1.8,4.6,2.6,5.3c2.4,2,1.8,3.4-3,6.8c-3.9,2.7-4.5,3.7-4.5,6.6c0,6.3,3.2,7.7,22,9.8
		c15.7,1.7,107.2,1.7,132-0.1c21.1-1.4,33.1-3.3,36.6-5.6c1.8-1.1,2.4-2.4,2.4-5.1c0-3.5-0.6-4.4-6.9-9.2l-2.3-1.8l2.1-3.4
		c2.5-4.2,2.8-10.9,0.6-17c-3-8.5-12.9-20-20.5-24c-4.1-2.1-8-6.2-8-8.5c0-2.2-1.5-4.4-9.3-14.4c-12.9-16.4-22.9-43.4-25.7-69.6
		c-1.3-12.5-2.5-55.3-1.6-58.8c0.4-1.8,1.7-2.9,4.1-3.7c3.9-1.3,8.5-6.2,8.5-9.1c0-2.1,0.6-2.4,6.3-3.4c7.7-1.3,8.6-8.9,1.3-11.9
		c-2.9-1.2-3.7-2.3-4.9-6.3c-1.2-4.3-1.8-5.1-6.5-7.3c-2.8-1.4-5.4-2.9-5.8-3.2c-0.3-0.4,1.7-5.3,4.4-11c9.8-19.9,14.9-35.8,15.9-49
		l0.6-7.8l-3.7-3.5c-3.6-3.4-16-8.2-25.8-10c-4.3-0.8-4.2-0.6-2.6-4c1-2.3,0.8-2.9-2-5.8c-1.8-1.8-3.2-4-3.2-4.9s-0.9-3.8-2-6.4
		c-1.1-2.6-1.9-5.2-1.7-5.8c0.2-0.6,2.3-1.1,4.7-1.2c3.4,0,4.8-0.6,6.6-2.8c3.1-3.5,3.2-9.3,0.3-13c-1.9-2.5-2.7-2.7-7.3-2.4
		l-5.1,0.3l0.3-5.8c0.4-6.8-1.1-9.2-6.2-10.2c-1.7-0.4-3.8-0.8-4.6-0.9C92.2-0.12,89.8,0.08,87.8,0.48z"/>
</g>
</svg>
