<?xml version="1.0" encoding="utf-8"?>
<!-- Generator: Adobe Illustrator 24.1.1, SVG Export Plug-In . SVG Version: 6.00 Build 0)  -->
<svg version="1.1" id="Layer_1" xmlns="http://www.w3.org/2000/svg" xmlns:xlink="http://www.w3.org/1999/xlink" x="0px" y="0px"
	 viewBox="0 0 152.93 339.64" style="enable-background:new 0 0 152.93 339.64;" xml:space="preserve">
<path d="M69.3,1.51c-3.2,1.6-6.3,6.6-6.3,10.2c0,1,1.3,3.6,3,5.6l2.9,3.8l-2,5.1c-2.2,5.8-5.7,11.4-16.4,26.3
	c-11.8,16.3-13.9,20.6-13.9,28.3c-0.1,5.6,0.4,7.5,3.2,12.6c1.8,3.3,5.2,8.7,7.7,12s4.5,6.5,4.5,7.1s-1.1,1.6-2.5,2.2
	c-3.4,1.5-3.2,4.7,0.3,6.4c2,1,2.7,2,2.7,4.3c0,2.5-0.7,3.3-4.4,5.1c-3.7,1.7-4.7,2.8-5.5,5.9c-0.8,2.6-2.1,4.4-4.1,5.5
	c-3.4,1.9-4.5,6-2,8c0.8,0.7,3,1.6,4.8,1.9c2.1,0.5,3.3,1.4,3.5,2.6c0.6,2.8,3.1,5.4,6.8,7c3.1,1.3,3.2,1.5,3.9,9.7
	c0.7,8.8-0.8,39.8-2.5,50.3c-2.8,17.2-10.9,36.9-19.8,48c-2.6,3.3-5.3,7.6-5.8,9.5c-0.7,2.6-2.3,4.4-5.8,6.7
	c-7.3,4.7-11.4,9.1-14.6,15.7c-3.3,6.6-4,13.9-1.5,17.2c2.1,2.8,1.8,3.7-2,6.2c-2.6,1.7-3.5,2.9-3.5,5.1c0,6.4,5.3,7.6,40,9.2
	c25,1.2,72,0.6,92.3-1.2c12.8-1.1,18.4-2.5,20-5s0-6.6-3.3-8.6c-3.4-2-3.7-3.3-1.4-6.9c2.5-3.7,1.2-11.4-2.8-18.1
	c-3.8-6.3-6.8-9.3-13.4-13.7c-3.5-2.2-5.2-4.2-6.1-6.8c-0.7-2-3.4-6.4-6.1-9.7c-5.6-7-12-19.4-15.5-30.1
	c-4.3-13.2-5.8-24.8-6.4-50.7l-0.6-24.2l4.7-2.8c3.1-1.9,4.9-3.8,5.7-6c0.7-2.2,1.7-3.3,2.9-3.3c2.7,0,6.8-2,7.4-3.7
	c0.8-2.1-1-5-4.1-6.5c-1.8-0.9-3-2.6-3.7-5.2c-0.9-3.2-1.9-4.2-5.6-6c-3.8-1.8-4.5-2.6-4.5-5.1c0-2.3,0.7-3.3,2.8-4.3
	c3.4-1.7,3.6-4.9,0.2-6.4c-1.4-0.6-2.5-1.5-2.5-1.9s2.9-5.1,6.5-10.3c8-11.9,10.1-18.3,8.5-26c-1.2-5.9-3.7-10.2-17.7-29.7
	c-4.9-7-10.2-15.7-11.8-19.3l-2.8-6.7l2.5-2.7c3.5-3.7,4.1-6.4,2.4-10.6C84.8,0.81,76.3-1.99,69.3,1.51z"/>
</svg>
