<?xml version="1.0" encoding="utf-8"?>
<!-- Generator: Adobe Illustrator 23.1.0, SVG Export Plug-In . SVG Version: 6.00 Build 0)  -->
<svg version="1.1" id="Layer_1" xmlns="http://www.w3.org/2000/svg" xmlns:xlink="http://www.w3.org/1999/xlink" x="0px" y="0px"
	 viewBox="0 0 1465.15 2082.7" style="enable-background:new 0 0 1465.15 2082.7;" xml:space="preserve">
<g>
	<path d="M630.09,2055.4c-0.37,6.12-4.98,10.81-9.94,14.93c-3.09,2.57-7.65,3.42-10.61,6.09c-5.18,4.67-10.87,2.39-16.32,2.16
		c-3.66-0.15-7.29-1.55-10.89-2.55c-7.8-2.16-15.31-1.06-22.54,2.13c-7.89,3.49-15.73,5.44-24.62,4.13
		c-8.45-1.24-16.78-2.28-24.64-5.88c-1.4-0.64-3.28-0.34-4.93-0.31c-8.92,0.16-17.82,0.03-26.57-2.04
		c-1.89-0.45-3.74-1.11-5.54-1.84c-4.89-2-9.81-3.5-15.25-3.2c-6.03,0.34-11.03-2.68-16.3-5.24c-6.55-3.18-11.11-8.31-15.62-13.58
		c-1.3-1.51-2.44-3.77-2.42-5.68c0.07-5.46-0.04-11.13,1.41-16.31c2.26-8.1,2.88-16.56,6.73-24.38c2.75-5.58,6.94-9.39,11.17-13.26
		c6.89-6.31,15.52-9.52,24.57-11.25c3.7-0.71,7.67,0.08,11.45-0.35c2.3-0.26,4.98-0.99,6.63-2.47c5.13-4.6,10.15-9.4,14.61-14.64
		c2.82-3.32,5.05-7.36,6.68-11.43c5.07-12.65,9.5-25.56,14.6-38.19c6.64-16.44,13.12-32.9,22.83-47.99
		c3.71-5.77,4.87-13.41,6.25-20.38c2.13-10.73,4.21-21.57,4.86-32.45c0.51-8.63,2.98-17.34,0.39-26.12
		c-0.68-2.3-0.16-4.97-0.11-7.47c0.19-10.08-1.53-19.95-2.71-29.92c-1.49-12.56-4.41-24.75-7.42-36.92
		c-2.56-10.4-5.78-20.69-9.39-30.78c-6.9-19.29-14.27-38.4-21.49-57.58c-3.49-9.27-7.34-18.41-10.54-27.78
		c-3.05-8.93-5.18-18.1-6.61-27.49c-1.35-8.87-2.38-17.71-1.75-26.61c0.65-9.14,1.79-18.28,3.29-27.32
		c2.21-13.37,6.51-26.18,11.63-38.71c1.53-3.75,3.45-7.34,5.04-11.07c0.56-1.31,1.06-2.87,0.88-4.23c-1.2-9.06-2.02-18.24-4.12-27.1
		c-1.41-5.93-4.25-11.67-7.28-17.02c-7.13-12.6-9.04-26.23-7.2-40.09c0.84-6.33-0.87-10.75-4.08-15.38
		c-9.88-14.24-18.69-29.11-26.6-44.52c-3.94-7.68-8.45-15.11-11.88-23.01c-7.52-17.32-15.17-34.64-21.54-52.4
		c-5.53-15.43-9.65-31.39-13.85-47.26c-2.63-9.9-4.41-20.05-6.29-30.13c-0.75-4.02-0.66-8.2-1.1-12.29
		c-2.05-19.32-2.43-38.71-1.91-58.1c0.15-5.53,1.39-11.04,2.15-16.55c0.56-4.05,1.36-8.08,1.69-12.14
		c1.34-16.41,6.63-31.83,11.56-47.35c0.24-0.76,0.34-1.56,0.6-2.77c-85.41-6.31-153.33-44.91-206.63-111.89
		c-5.72,4.57-11.14,8.7-16.29,13.15c-1.2,1.04-2.15,3.19-2.06,4.77c1.01,17.27-7.06,31.32-15.89,45.02
		c-5.08,7.88-7.64,16.55-9.14,25.57c-1.29,7.78-4.38,14.72-9.29,20.66c-4.06,4.92-5.43,10.67-6.75,16.52
		c-2.45,10.9-2.21,22-2.05,33.07c0.13,8.63-2.29,16.42-7.79,23.17c-1.76,2.16-3.5,4.34-5.17,6.58c-2.82,3.79-4.43,3.86-7.84,0.91
		c-5.27-4.56-8.27-10.56-11.11-16.67c-0.45-0.97-0.14-2.39,0.06-3.56c0.55-3.18,1.39-6.32,1.82-9.52
		c1.01-7.46,2.02-14.94,2.69-22.43c0.37-4.12,0.07-8.29,0.07-13.8c-1.47,1.55-2.49,2.13-2.68,2.9c-1.12,4.75-2.38,9.5-2.98,14.33
		c-0.95,7.66-1.15,15.41-2.13,23.07c-1.77,13.9-8.7,24.44-21.3,30.97c-3.18,1.65-7.02,0.55-9.16-3.24
		c-3.99-7.05-6.43-14.16-4.87-22.89c1.34-7.45,3.78-14.5,5.29-21.81c2.37-11.48,4.12-23.09,6.14-34.64
		c-0.48-0.17-0.96-0.33-1.45-0.5c-2.78,5.48-5.57,10.96-8.34,16.45c-2.64,5.23-5.34,10.43-7.87,15.72
		c-1.6,3.34-3.32,6.71-4.31,10.25c-1.94,6.9-4.41,13.4-10.12,18.13c-1.5,1.25-3.03,2.64-4.8,3.37c-5.69,2.37-11.41,4.72-17.27,6.6
		c-4.53,1.45-5.77,0.67-6.64-3.36c-2.23-10.27-2.29-20.72,2.52-30.34c6.42-12.85,13.38-25.44,20.34-38.02
		c2.52-4.56,5.88-8.65,8.52-13.15c1.44-2.45,3.38-5.03,1.62-9.16c-3.42,2.31-7.28,4.01-9.87,6.86c-7.06,7.77-13.76,15.9-20.23,24.18
		c-2.46,3.15-4.11,7-5.72,10.71c-2.76,6.38-8.06,9.89-13.96,12.5c-4.87,2.15-9.96,4.25-15.17,5.09c-5.73,0.93-7.84-1.2-7.17-6.84
		c0.9-7.58,2.14-15.23,4.33-22.52c1.46-4.86,4.28-9.57,7.43-13.62c5.16-6.62,11.23-12.53,16.66-18.95
		c7.3-8.64,14.37-17.47,21.51-26.25c2.85-3.51,5.62-7.09,8.69-10.97c-1.4-0.37-1.97-0.73-2.32-0.59
		c-5.67,2.34-11.63,1.86-17.55,1.95c-5.38,0.08-10.36-1.28-15.09-3.68c-5.87-2.98-11.67-5.79-18.6-5.46
		c-3.91,0.19-5.43-2.36-3.59-5.83c1.39-2.63,3.59-4.9,5.7-7.07c2.42-2.48,4.92-4.97,7.75-6.94c8.89-6.17,19.1-9.56,29.24-12.96
		c5.07-1.7,10.32-3.01,15.58-3.94c8.95-1.58,15.64-7.1,22.61-12.17c8.92-6.49,15.29-16.03,25.24-21.28
		c5.62-2.97,11.18-6.14,17.04-8.55c7.77-3.18,13.8-8.71,20.25-13.7c6.86-5.32,13.65-10.75,20.38-16.24
		c4.33-3.53,8.76-7.01,12.57-11.05c1.22-1.29,1.07-4.39,0.73-6.53c-0.51-3.18-1.86-6.22-2.68-9.37c-2.48-9.55-2.66-19.43-4.21-29.09
		c-1.83-11.38-1.74-22.72-1.82-34.13c-0.07-10.24,1.76-20.29,2.68-30.42c1.08-11.87,4.56-23.02,7.21-34.44
		c2.63-11.35,6.9-22.13,12-32.47c6.19-12.55,13.01-24.83,20.29-36.78c4.66-7.64,10.42-14.66,16.12-21.61
		c7.82-9.54,15.76-19,24.18-28.01c5.15-5.51,11.25-10.14,16.99-15.09c3.35-2.89,6.93-5.51,10.23-8.46
		c10.41-9.29,21.48-17.69,33.5-24.76c11.67-6.87,23.42-13.61,35.3-20.1c18.69-10.22,38.77-16.79,59.35-21.96
		c8.51-2.14,16.93-4.73,25.51-6.53c7.51-1.57,15.17-2.46,22.8-3.36c4.61-0.54,5.75-1.23,7.07-5.51c1.49-4.87,2.37-10.11,4.83-14.45
		c4.87-8.62,10.28-17,16.21-24.92c2.68-3.58,7.13-5.84,10.79-8.68c3.18-2.46,6.57-4.67,9.53-7.36c6.27-5.68,14.35-7.29,21.88-10.17
		c2.6-0.99,5.23-1.97,7.92-2.65c6.12-1.54,12.24-3.23,18.46-4.22c6.6-1.05,13.31-1.36,20.87-2.08
		c-11.75-21.72-10.43-44.03-6.46-66.85c-5.13,5.18-10.77,8.56-17.3,10.37c-6.58,1.83-13.2,2.49-19.77,0.05
		c-0.49-2.63,1.29-3.49,2.98-4.65c5.24-3.61,10.94-6.83,15.4-11.26c6.93-6.87,11.38-15.44,13.46-25.14c1.92-8.95,2.09-17.99,2-27.09
		c-0.12-11.5-0.16-23,0.01-34.5c0.15-10.1-0.01-20.27,1.11-30.29c1.99-17.83,4.67-35.67,11.04-52.54
		c4.28-11.33,10.34-21.99,18.51-31.01c4.23-4.67,9.7-8.33,14.98-11.91c3.66-2.48,5.65-5.27,5.36-9.73c-0.18-2.82,0.06-5.67-0.05-8.5
		c-0.31-8.12,2.03-15.97,2.63-23.9c1.02-13.43,7.31-24.63,12.58-36.31c2.12-4.69,5.42-8.95,8.68-13c2.9-3.59,5.56-3.78,8.7-0.56
		c7.37,7.58,14.36,15.53,21.6,23.25c3.76,4.01,7.63,7.91,11.64,11.67c0.8,0.75,2.62,1.13,3.65,0.77c5.04-1.77,10.14-3.51,14.9-5.9
		c4.2-2.12,8.03-5,11.92-7.69c3.83-2.64,7.68-2.47,11.29,0.02c3.64,2.51,7.24,5.17,10.37,8.27c3.92,3.87,8.31,5.78,13.77,6.61
		c5.06,0.77,9.9,3.04,14.83,4.68c2.01,0.67,4.03,1.31,5.97,2.13c4.91,2.07,8.07-0.5,10.94-3.97c1.67-2.03,3.28-4.11,5.07-6.03
		c10.17-10.9,20.34-21.8,30.61-32.6c4.55-4.78,9.29-4.43,12.73,1.44c4.36,7.44,8.49,15.08,11.95,22.97
		c4.53,10.3,7.52,21.28,8.89,32.36c1.4,11.35,2.64,22.93-0.4,34.42c-1.29,4.87-1.51,10.01-2.32,15.01
		c-0.74,4.57,1.67,7.87,4.25,11.12c9.08,11.47,16.37,23.99,21.82,37.56c2.79,6.94,5.8,13.85,7.79,21.03
		c2.36,8.49,4.29,17.15,4.18,26.1c-0.09,7.33,0.21,14.67-0.07,22c-0.49,12.87-1.22,25.74-1.99,38.6
		c-0.53,8.88-1.38,17.73-1.94,26.61c-0.55,8.74-1.14,17.5-1.31,26.25c-0.25,13.3,1.31,26.33,7.1,38.57
		c4.67,9.87,12.16,17.12,21.59,22.09c4.04,2.13,9.05,2.55,13.68,3.38c17.42,3.14,32.59,11.24,46.65,21.51
		c14.72,10.76,24.67,25.21,30.63,42.4c1.06,3.07,1.74,6.27,2.75,9.36c0.7,2.14,2.17,3.46,4.57,3.84c10.32,1.62,20.66,3.15,30.92,5.1
		c5.09,0.97,10.04,2.72,15.04,4.19c21.3,6.27,42.1,13.81,61.71,24.41c14.52,7.85,28.55,16.46,41.95,26.09
		c10.26,7.37,20.64,14.55,29.65,23.54c6.25,6.23,13.45,11.52,19.47,17.94c9.46,10.07,18.63,20.46,27.26,31.25
		c6.61,8.27,12.46,17.18,18.16,26.12c7.84,12.27,14,25.43,19.15,39.04c2.7,7.15,5.7,14.25,7.54,21.63
		c2.84,11.34,6.07,22.55,7.73,34.26c2.55,17.9,1.39,35.76,1.61,53.63c0.08,6.35-0.95,12.78-2.08,19.07
		c-1.61,8.96-3.49,17.91-5.81,26.71c-2.31,8.8-4.9,17.56-8.08,26.08c-7.58,20.28-18.44,38.87-30.88,56.52
		c-4.42,6.28-9.17,12.4-14.32,18.08c-8.37,9.21-16.96,18.26-25.9,26.92c-12.87,12.47-27.23,23.12-42.59,32.31
		c-9.1,5.44-18.33,10.78-27.92,15.26c-18.18,8.5-37.02,15.23-56.85,18.9c-7.04,1.3-14.03,2.88-21.55,4.44
		c1.6,5.63,3.42,11.13,4.7,16.75c2.31,10.16,4.53,20.35,6.36,30.61c1.64,9.17,2.71,18.44,4.02,27.67c0.05,0.33,0.03,0.67,0.03,1
		c0.34,18.43,1.04,36.87,0.85,55.3c-0.1,9.48-1.69,18.95-2.82,28.4c-1.22,10.24-2.34,20.51-4.13,30.65
		c-1.72,9.77-4.23,19.41-6.39,29.1c-4.66,20.85-11.26,41.13-18.56,61.16c-4.84,13.3-10.4,26.34-15.88,39.4
		c-1.4,3.33-1.62,6.6-1,9.89c1.83,9.76,3.78,19.51,5.99,29.19c0.86,3.77,2.37,7.42,3.9,11c3.73,8.71,7.98,17.22,13.86,24.66
		c4.09,5.17,8.97,9.72,13.59,14.46c2.45,2.52,5.03,4.9,7.63,7.25c0.93,0.83,2.07,1.47,3.19,2.04c8.86,4.48,17.76,8.88,26.59,13.4
		c1.43,0.73,3.34,1.7,3.77,2.98c1.88,5.59,7.13,6.55,11.42,8.41c8.03,3.5,16.48,6.05,24.55,9.47c12.19,5.17,23.41,12.1,34.72,19.03
		c13.03,7.98,26.53,15.57,41.4,19.91c6.55,1.91,13.3,3.08,19.9,4.83c2.21,0.59,5.36,1.39,6.1,3.01c1.46,3.19-1.95,5.09-4.11,6.52
		c-2.74,1.8-6.07,2.72-10.03,4.39c3.04,1.08,5.49,1.78,7.78,2.81c5.93,2.66,11.85,5.37,17.68,8.24
		c12.01,5.92,24.03,11.86,35.92,18.02c4.91,2.55,9.48,5.75,14.26,8.56c10.27,6.02,20.36,12.42,30.96,17.81
		c7.37,3.75,15.39,6.44,23.89,6.53c2.31,0.02,4.33,0.85,4.65,2.8c0.2,1.24-1.31,3.28-2.6,4.15c-6.12,4.12-13.33,4.89-20.36,6.12
		c-1.79,0.31-3.58,0.7-6.47,1.27c5.09,3.03,9.26,5.23,13.13,7.87c6.34,4.33,12.66,8.72,18.64,13.52c4.89,3.92,9.34,8.41,13.86,12.78
		c4.89,4.72,9.78,9.46,14.41,14.45c4.36,4.7,8.26,9.83,12.56,14.59c5,5.52,10.19,10.87,15.36,16.24c3.06,3.18,6.28,6.2,9.35,9.38
		c5.04,5.22,10.07,10.36,17.14,12.98c1.36,0.5,2.64,2.38,3.03,3.87c0.19,0.71-1.63,2.57-2.82,2.89c-2.66,0.73-5.48,0.97-8.25,1.13
		c-3.13,0.18-6.27,0.04-10.5,0.04c1.12,1.58,1.6,2.43,2.24,3.13c6.08,6.73,12.29,13.34,18.23,20.18c3.64,4.19,6.63,8.97,10.39,13.04
		c2.4,2.6,5.78,4.27,8.52,6.58c1.35,1.15,2.26,2.83,3.37,4.26c-1.81,0.93-3.61,2.64-5.42,2.66c-6.08,0.07-12.17-0.48-18.26-0.76
		c-0.28-0.01-0.58,0.25-1.3,0.58c0.51,1.73,1.2,3.51,1.56,5.35c1.23,6.23,2.79,12.44,3.42,18.74c1.51,15.04,5.26,29.2,14.75,41.29
		c2.18,2.77,4.99,5.05,7.52,7.55c-1.68,3.44-4.09,4.09-7.12,2.92c-6.06-2.34-12.11-4.73-18.16-7.1c-1.34-0.52-2.67-1.07-5.01-2.01
		c0.52,4.23,0.93,7.67,1.37,11.12c0.57,4.55,1.5,9.08,1.67,13.64c0.44,11.68,1.76,23.17,6.2,34.09c1.22,2.99,3.15,5.71,4.25,8.74
		c0.55,1.51,0.61,4.35-0.25,4.94c-1.28,0.88-3.77,0.84-5.37,0.22c-3.74-1.46-7.26-3.51-11.85-5.81c0.44,2.99,0.95,5.09,1.03,7.21
		c0.15,3.99,0.07,8,0.04,12c-0.07,9.4,3.29,17.91,7.05,26.26c0.7,1.56,2.11,3.13,3.6,3.94c2.44,1.32,4.66,2.46,4.16,5.74
		c-0.52,3.4-2.84,5.42-5.88,6.05c-5.52,1.13-11.12,2.03-16.73,2.51c-10.7,0.91-21.29-0.06-31.94-2.85c-0.12,1.14-0.27,2.1-0.31,3.06
		c-0.25,6.03-3.54,8.09-9.36,6.01c-7.34-2.62-14.59-5.71-22.13-7.5c-9.34-2.21-18.91-3.7-28.46-4.76
		c-13.42-1.49-26.75-3.25-39.73-7.1c-0.73-0.22-1.46-0.42-2.5-0.72c0.42,3.02,1.02,5.61,1.09,8.22c0.15,5.49-3.15,8.1-8.4,6.48
		c-2.99-0.92-5.68-2.75-8.62-3.88c-20.87-8.04-42.65-11.55-64.84-13.07c-6.14-0.42-12.27-1.07-19.14-1.68
		c-2.52,5.63-7.57,4.79-12.92,4c-5.4-0.8-10.9-1.07-16.37-1.24c-13.93-0.44-27.89-0.34-41.79-1.18c-7.93-0.48-15.9-1.75-23.35-5.02
		c-1.25-0.55-2.7-0.65-4.85-1.14c1.2,2.62,2.02,4.35,2.8,6.1c5.25,11.77,13.43,21.35,22.66,30.11c0.8,0.76,2.31,0.98,3.52,1.06
		c6.96,0.5,14.04,0.25,20.87,1.43c13.88,2.4,23.46,11.11,30.56,22.83c1.56,2.57,2.64,5.42,4.13,8.04c4.4,7.77,2.26,16.77,4.8,24.93
		c1.24,4-0.06,7.86-2.78,11.19c-2.83,3.46-5.35,7.2-8.32,10.53c-3.01,3.37-7.14,4.63-11.57,5.09c-2.43,0.25-4.82,0.96-7.26,1.18
		c-2.25,0.21-4.53,0.04-7.16,0.04c-5.72,6.99-13.97,10.34-23.11,11.71c-8.26,1.24-16.58,2.04-24.87,3.07
		c-1.1,0.14-2.25,0.39-3.25,0.86c-11.78,5.61-24.34,7.13-37.06,5.93c-7.23-0.68-14.26-3.28-21.42-4.86
		c-1.62-0.36-3.6-0.64-5.02-0.02c-4.96,2.14-9.99,3.03-15.41,3.21c-6.5,0.21-12.79-0.46-19.12-1.75c-8.9-1.81-14.11-7.86-17.53-15.5
		c-1.67-3.73-3.17-5.81-7.68-6.05c-3.02-0.16-6.3-2.04-8.81-3.99c-12.84-9.95-18.02-23.54-17.52-39.43
		c0.12-3.75-1.14-6.04-4.37-7.53c-2.57-1.18-5.07-2.56-7.72-3.52c-10-3.6-15.04-11.14-16.84-21.15c-1.68-9.29-0.86-18.6,0.35-27.87
		c2.4-18.4,7.73-36.08,13.35-53.69c0.5-1.58,0.95-3.18,1.52-5.09c-1.26-1.02-2.51-2.03-3.87-3.13c-0.42,0.49-0.91,0.8-0.97,1.19
		c-0.4,2.39-1.02,5.24-3.7,5.16c-1.89-0.06-4.06-1.84-5.52-3.41c-10.4-11.19-20.4-22.71-33.75-30.78
		c-4.22-2.55-7.31-6.95-10.93-10.49c-0.68-0.67-1.44-1.26-2.52-2.21c-0.78,2.33-1.27,4.36-2.11,6.23c-1.63,3.65-3.6,4.1-6.14,1.06
		c-3.14-3.76-5.86-7.86-8.72-11.84c-3.14-4.36-5.93-9.03-9.44-13.08c-5.47-6.32-11.29-12.36-17.2-18.27
		c-5.86-5.86-12.33-11.12-17.94-17.2c-4.36-4.73-7.8-10.32-11.82-15.75c-0.52,1.21-1.31,2.43-1.55,3.75
		c-0.48,2.66-1.73,4.06-4.58,4.24c-3.24,0.2-3.72-2.2-4.5-4.31c-3-8.09-5.74-16.27-8.96-24.27c-2-4.96-4.41-9.82-7.14-14.42
		c-7.4-12.48-15.1-24.79-22.6-37.22c-2.07-3.43-3.85-7.04-5.96-10.93c-1.64,2.72-2.97,5.33-4.68,7.67
		c-1.32,1.81-2.73,4.11-5.58,3.34c-2.4-0.65-3.15-2.53-3.24-4.96c-0.1-2.76-0.89-5.52-0.83-8.27c0.3-14.13-2.78-27.53-7.48-40.8
		c-2.92-8.25-4.44-16.99-6.58-25.51c-2.29-9.11-4.57-18.21-6.78-27.05c-9.21-0.67-8.92-0.69-9.29-9.51
		c-0.56-13.44-2.81-26.64-6.3-39.65c-3.08-11.47-5.78-23.03-8.65-34.55c-0.12-0.48-0.14-1.01-0.37-1.43
		c-6.62-12.03-9.23-25.32-11.45-38.59c-1.06-6.35-0.15-13.03-0.28-19.55c-0.04-1.93-0.9-3.87-0.81-5.78
		c0.21-4.59,0.75-9.17,1.19-13.76c0.29-3.05,0.64-6.1,1.07-10.17c-2.57,1.7-4.07,2.9-5.74,3.76c-4.99,2.58-7.84,1.07-7.52-4.33
		c0.42-7.04,1.34-14.05,2.1-21.06c0.19-1.78,0.78-3.55,0.79-5.32c0.07-11.33,0.08-22.67,0-34c-0.02-1.99-0.58-3.98-1.04-6.91
		c-5.12,6.72-6.89,13.79-8.69,20.57c-3.26,12.26-5.79,24.74-8.07,37.24c-1.29,7.09-1.56,14.37-2.14,21.58
		c-0.46,5.76-0.65,11.54-1.04,17.3c-0.21,3.05,0.94,5.38,3.09,7.46c13.7,13.27,22.63,29.43,29.03,47.25
		c4.38,12.19,7.27,24.63,8.96,37.44c1.74,13.21,1.26,26.21-1.74,39.22c-2.15,9.37-3.45,18.93-5.35,28.36
		c-1.61,7.98-3.57,15.88-5.3,23.83c-3.59,16.55-7.35,33.06-10.62,49.67c-2.36,12.01-4.21,24.13-5.96,36.25
		c-0.78,5.37-0.9,10.85-1.07,16.29c-0.42,13.26-1.32,26.56-0.84,39.79c0.44,12.1,2.06,24.19,3.84,36.18
		c1.89,12.73,5.73,25.27,6.59,38.04c0.96,14.1,7.54,26,12.06,38.67c7,19.61,14.06,39.17,17.56,59.76c1.68,9.86,2.2,19.86-0.07,29.77
		c-1.85,8.06-6.64,13.47-14.3,16.67c-3.64,1.52-7.15,3.55-10.32,5.9c-1.26,0.94-2.17,3.42-1.99,5.06c0.6,5.28-0.1,10.26-1.94,15.16
		c-0.35,0.93-0.91,1.87-0.97,2.82c-0.7,10.98-8.59,17.33-15.91,23.69C639.15,2053.74,634.81,2053.91,630.09,2055.4z"/>
</g>
</svg>
