<?xml version="1.0" encoding="utf-8"?>
<!-- Generator: Adobe Illustrator 24.0.2, SVG Export Plug-In . SVG Version: 6.00 Build 0)  -->
<svg version="1.1" id="Layer_1" xmlns="http://www.w3.org/2000/svg" xmlns:xlink="http://www.w3.org/1999/xlink" x="0px" y="0px"
	 viewBox="0 0 160 262.1" style="enable-background:new 0 0 160 262.1;" xml:space="preserve">
<style type="text/css">
	.st0{fill:#1A1A1A;}
</style>
<g>
	<g>
		<path d="M55.57,195.15c3.78-1.47,7.24-0.4,10.67,0.95c0.06-0.06,0.14-0.11,0.15-0.17c0.7-4.38,2.21-8.51,3.95-12.55
			c0.95-2.2,1.59-4.47,1.72-6.82c0.12-2.11-0.33-4.21-0.97-6.23c-1.34-4.19-2.73-8.35-3.98-12.57c-0.49-1.64-1.24-3.2-1.68-4.87
			c-0.25-0.93-0.48-1.86-0.62-2.81c-0.28-1.89-0.5-3.79-0.96-5.66c-0.55-2.26,0.13-4.52,0.58-6.75c0.28-1.41,0.73-2.78,1.31-4.11
			c0.31-0.72,0.29-1.49,0.37-2.24c0.18-1.59,0.34-3.18,0.49-4.77c0.18-1.79,0.41-3.56-0.04-5.36c-0.3-1.22,0.01-2.47,0.34-3.67
			c0.21-0.76,0.05-1.14-0.78-1.38c-2.77-0.81-5.34-2.1-7.91-3.38c-1.01-0.5-1.78-1.35-3.05-1.53c-0.81-0.12-1.52-1.1-1.79-2.09
			c-1.01,0.44-2.04-0.05-2.36-1.19c-0.19-0.67-0.38-1.29-0.95-1.73c-0.33-0.26-0.32-0.61-0.23-0.98c0.13-0.59,0.38-1.13,0.69-1.65
			c1.17-2,2.32-4.02,2.99-6.34c-1.03-0.75-0.82-1.65-0.11-2.56c-0.49-0.46-0.91-0.87-1.34-1.27c-0.45-0.41-0.46-0.79,0.01-1.2
			c0.72-0.63,1.42-1.29,2.16-1.91c0.46-0.38,0.71-0.77,0.63-1.43c-0.19-1.69,0.28-3.33,0.51-4.98c0.15-1.09,1.14-1.58,1.99-2.1
			c1.15-0.71,1.22-0.84,0.99-2.18c-0.21-1.2,0.06-2.39,0.19-3.57c0.44-4.04,1.69-7.87,3.2-11.62c0.27-0.68,0.45-1.33,0.28-2.08
			c-0.14-0.61-0.1-1.26-0.15-2.02c-1.32,0.96-2.58,1.88-3.85,2.79c-0.83,0.6-1.74,0.94-2.79,0.89c-1.01-0.05-1.7-0.71-1.73-1.71
			c-0.02-0.62,0.08-1.24,0.45-1.71c0.58-0.74,0.71-1.58,0.85-2.45c-0.18-0.26-0.51-0.22-0.72-0.38c-1.25-0.94-1.83-1.67-1.15-3
			c0.12-0.24,0.15-0.54,0.22-0.81c0.15-0.66,0.3-1.32,0.48-2.11c-3.71-0.9-5.57-3.79-7.26-6.82c-0.55-0.99-1.03-2.04-1.08-3.11
			c0.47-0.45,0.78,0.09,1.21-0.12c0,0,0.02-0.06-0.03-0.16c-1.36-2.63-2.21-5.42-2.18-8.38c0.03-2.76-0.21-5.5-0.31-8.25
			c-0.01-0.38-0.05-0.86,0.36-1.07c0.5-0.25,0.8,0.18,1.12,0.47c0.26,0.23,0.44,0.57,0.88,0.73c0.11-0.49,0.22-0.98,0.33-1.46
			c0.45-1.89,1.51-3.35,2.9-4.71c2.4-2.34,4.26-5.08,5.08-8.39c0.14-0.57,0.05-1.19,0.04-1.79c-0.01-0.67-0.02-1.32,0.95-1.29
			c-0.21-0.84-0.43-1.57-0.57-2.31C54.89,4.4,55.36,4,56.15,4.18c0.52,0.11,0.96,0.38,1.4,0.66c1.91,1.25,3.72,2.61,5.27,4.6
			c0.18-1.08,0.47-1.94,0.28-2.9c-0.47-2.34,0.54-4.71,2.57-6.01c1.37-0.87,2.76-0.57,4.06,0.18c1.01,0.58,1.86,1.37,2.7,2.17
			c0.3,0.28,0.61,0.47,1,0.61c1.74,0.59,3.07,1.68,3.84,3.36c0.16,0.34,0.35,0.62,0.62,0.86c0.78,0.72,1.42,1.52,1.58,2.62
			c0.02,0.43-0.47,0.58-0.61,1.02c0.54,0.78,0.63,1.59-0.24,2.35c0.65,1.27,1.46,2.57-0.35,3.63c0.75,0.91,1.46,1.72,1.99,2.65
			c0.72,1.28,0.63,1.74-0.44,2.7c-0.5,0.45-1,0.54-1.65,0.32c-1.32-0.44-2.67-0.67-4.18-0.43c0.41,0.49,0.78,0.9,1.11,1.33
			c0.91,1.18,0.89,1.58-0.17,2.66c-0.17,0.17-0.36,0.32-0.58,0.52c0.12,0.39,0.52,0.64,0.5,1.05c-0.02,0.45-0.37,0.69-0.63,0.98
			c-0.11,0.13-0.24,0.31-0.16,0.42c0.54,0.71-0.09,1.46,0.08,2.23c0.13-0.09,0.28-0.15,0.3-0.22c0.3-1.69,1.43-2.83,2.64-3.89
			c1.69-1.49,3.57-2.69,5.67-3.52c1.39-0.55,2.45-1.46,3.24-2.72c1.26-2,2.62-3.94,4.48-5.44c1.86-1.5,3.89-2.27,6.34-1.52
			c1.44,0.44,2.92,0.44,4.34-0.17c0.18-0.08,0.39-0.14,0.57-0.13c1.46,0.14,2.46,2.29,1.6,3.49c-0.81,1.14-1.64,2.27-2.81,3.17
			c0.18,0.44,0.41,0.86,0.52,1.3c0.36,1.57,0.28,3.07-0.74,4.45c-2.06,2.8-4.25,5.52-6.02,8.52c-1.25,2.12-2.63,4.2-3.01,6.74
			c-0.16,1.04-0.18,2.07-0.1,3.11c0.07,1.06,0.86,1.68,1.66,2.22c0.72,0.49,1.51,0.88,2.12,1.57c-0.36,1.29-1.57,1.46-2.51,1.98
			c0,0.28,0.2,0.43,0.36,0.6c1.31,1.44,1.63,3.25,1.87,5.08c0.09,0.72-0.32,1.11-1.06,1.18c0.35,0.63,0.81,1.1,1.31,1.47
			c0.8,0.59,0.91,1.24,0.44,2.06c-0.12,0.2-0.21,0.42-0.21,0.44c1.22,1.3,2.32,2.57,3.51,3.75c2.13,2.1,3.9,4.41,5,7.23
			c0.8,2.03,0.75,4.02,0.31,6.11c-0.48,2.3-1.37,4.32-3.45,5.74c1.38,1.22,2.93,1.87,4.42,2.57c3.69,1.73,7.46,3.28,11.35,4.53
			c1.83,0.59,3.71,0.97,5.59,1.35c0.76,0.16,1.47,0.37,2.05,0.91c1.86,1.7,3.94,3.14,5.96,4.63c0.64,0.48,1.22,1.03,1.81,1.57
			c1.14,1.04,1.86,2.29,2.02,3.83c0.14,1.3,0.66,2.45,1.22,3.61c0.79,1.64-0.66,3.99-2.49,3.84c-0.69-0.06-1.04,0.18-1.45,0.54
			c-0.21,0.18-0.42,0.37-0.63,0.56c-1.6,1.42-2.6,1.26-4.2-0.05c-1.23-1-1.95-2.25-1.97-3.92c-0.02-1.46-0.12-1.46-1.4-2.19
			c0.35,1,0.8,1.78,1.04,2.63c0.22,0.77,0.16,1.46-0.2,2.08c-0.79,1.38-1.82,2.5-3.5,2.86c-0.45,0.1-0.79,0.05-1.11-0.18
			c-0.97-0.72-1.9-1.48-1.98-2.83c-0.07-1.05-0.6-1.89-1.28-2.65c-1.3-1.47-2.6-2.93-3.59-4.64c-0.21-0.36-0.5-0.51-0.97-0.55
			c-2.66-0.24-5.34-0.35-8.02-0.74c-1.33,1.22-1.24,2.85-1.25,4.42c0,0.66,0.27,1.33,0.2,2.02c-0.04,0.41,0.11,0.77,0.39,1.09
			c1.12,1.29,1.35,2.8,0.85,4.38c-0.44,1.41-0.55,2.79-0.18,4.24c0.38,1.54,0.19,3.1-0.19,4.69c1.41,0.67,2.96,0.84,4.49,1.07
			c1.74,0.26,2.15,0.46,3.09,1.6c-0.22,0.23-0.44,0.45-0.65,0.7c-0.18,0.21-0.46,0.32-0.57,0.68c1.41,1.39,3.28,2.39,4.13,4.37
			c-0.1,0.49-0.66,0.67-0.85,1.18c0.82,1.09,1.75,2.13,2.47,3.35c-0.21,0.25-0.42,0.49-0.68,0.8c0.4,0.62,0.81,1.25,1.2,1.84
			c0.25,0.03,0.36-0.08,0.46-0.21c1.77-2.29,3.91-4.21,6.06-6.13c3.24-2.89,7.65-2.27,10.22,1.25c1.28,1.75,2.18,3.7,3.24,5.57
			c0.92,1.63,1.92,3.22,2.88,4.83c0.22,0.36,0.58,0.54,0.91,0.75c1.12,0.73,1.92,1.71,2.2,3.02c0.21,0.99,0.75,1.75,1.4,2.46
			c1.28,1.43,2.39,2.99,3.53,4.53c0.63,0.85,0.98,1.83,1.19,2.86c0.18,0.9,0.37,1.8,0.53,2.71c0.31,1.76,0.23,3.4-1.24,4.72
			c-0.56,0.5-0.72,1.31-1.3,1.85c-1.11,1.03-1.07,1.06-2.3,0.09c-1.62,1.41-3.23,0.65-4.83-0.18c-0.39-0.01-0.61,0.37-1.01,0.41
			c-0.07-0.03-0.21-0.04-0.29-0.11c-0.45-0.45-0.97-0.86-1.32-1.38c-0.25-0.37-0.52-0.55-0.92-0.66c-2.12-0.58-3.77-1.87-5.18-3.51
			c-0.81-0.94-1.23-2.02-1.41-3.25c-0.28-1.95-1.18-3.68-1.88-5.47c-0.08,0-0.16,0.01-0.24,0.01c-0.31,1.1-0.64,2.19-0.91,3.29
			c-0.83,3.36-2.49,6.3-4.58,9.02c-0.42,0.54-0.98,0.96-1.82,1.4c0.51,0.75,0.85,1.62,1.55,2.23c2.6,2.24,4.25,5.16,5.88,8.1
			c0.5,0.91,1,1.82,1.5,2.73c0.29,0.53,0.66,0.96,1.25,1.23c1.19,0.54,1.7,1.59,1.64,2.82c-0.03,0.65,0.2,1.04,0.58,1.47
			c1.33,1.49,2.62,3.02,3.5,4.84c0.78,1.61,1.02,3.28,0.48,4.99c-0.43,1.36-0.74,2.79-2.09,3.65c-0.42,0.27-0.46,0.82-0.64,1.26
			c-0.64,1.59-1.79,2.68-3.28,3.44c-0.64-0.35-0.98-0.92-1.56-1.37c-0.78,0.29-1.62,0.45-2.32-0.33c-0.07-0.08-0.21-0.17-0.3-0.16
			c-2.22,0.26-3.5-1.14-4.73-2.64c-1.41,0.62-2.51,0.03-2.8-1.54c-0.1-0.57-0.33-1.01-0.71-1.46c-0.89-1.04-1.56-2.23-1.7-3.63
			c-0.14-1.39-0.47-2.77-0.22-4.17c0.08-0.44-0.08-0.76-0.35-1.09c-0.63-0.78-0.93-1.67-0.77-2.68c0.16-0.94-0.53-1.52-0.85-2.48
			c-0.37,0.82-0.37,1.43-0.31,2.07c0.39,4.06,0.91,8.1,1.76,12.09c0.08,0.36,0.17,0.72-0.16,1c-0.73,0.64-0.32,1.05,0.23,1.53
			c1.97,1.7,3.83,3.51,5.52,5.5c1.69,1.99,3.15,4.1,4.19,6.53c2.09,4.9,1.48,9.35-1.92,13.43c-1.51,1.81-2.97,3.66-4.83,5.15
			c-0.78,0.62-1.46,1.3-1.87,2.27c-0.51,1.2-1.39,2.21-2.27,3.35c2.07,0.56,4.02,0.88,6,1.07c1.75,0.17,3.49,0.35,5.26,0.14
			c1-0.12,1.8-0.64,2.69-0.96c1.33-0.48,2.44-0.02,3.52,0.58c2.88,1.6,4.91,4.06,6.63,6.78c0.53,0.84,1.14,1.62,1.52,2.57
			c0.33,0.83,0.12,1.35-0.49,1.88c-0.7,0.61-1.31,0.73-2.06,0.35c-0.17-0.09-0.3-0.27-0.61-0.24c-0.66,0.55-1.48,0.97-1.99,1.85
			c-0.38,0.63-0.95,1.37-1.96,0.86c-0.24-0.12-0.49,0.01-0.66,0.18c-1.17,1.17-2.69,1.52-4.22,1.84c-0.11,0.02-0.21,0.1-0.36,0.17
			c0.09,1.14,0.61,2.21,0.44,3.4c-0.14,0.93-0.47,1.59-1.36,1.92c-0.18,0.07-0.37,0.06-0.51,0.24c-1.07,1.45-2.56,2.44-4,3.44
			c-1.85,1.27-3.9,1.83-6.1,0.85c-0.34-0.15-0.58-0.12-0.88,0.05c-1.49,0.82-2.99,0.77-4.63,0.37c-4-0.96-8.05-1.7-12.1-2.46
			c-5-0.94-10.01-1.06-15.05-0.73c-0.16,0.01-0.33-0.01-0.48,0.05c-1.51,0.62-2.99,0.15-4.46-0.14c-2.22-0.45-3.79-1.78-4.76-3.82
			c-0.3-0.64-0.29-1.3,0.1-1.95c-1.15-0.56-1.9-1.46-2.72-2.28c-0.57,0.17-0.74,0.84-1.33,0.97c-0.49-0.08-0.74-0.58-1.28-0.79
			c-1.81,1.05-3.81,1.85-5.93,2.29c-1.09,0.23-2.2,0.44-3.31,0.56c-0.81,0.09-1.56-0.1-2.17-0.76c-0.35-0.38-0.49-0.69-0.15-1.32
			c-2.6,0.67-4.99,0.25-7.33-0.44c-2.04-0.6-4.01-1.37-5.58-2.89c-0.99-0.96-0.98-0.97-0.04-1.97c0.11-0.11,0.2-0.24,0.34-0.41
			c-1.47-1.1-2.78-2.31-3.86-3.76c-2.06-2.78-3.28-5.93-4.01-9.28c-0.12-0.56,0.03-1.02,0.43-1.42c0.37-0.36,0.71-0.75,1.2-1.02
			c-0.34-1.15-0.92-2.16-1.26-3.27c-0.76-2.48-0.92-5.04-0.92-7.59c-0.01-2.44,0.2-4.87,0.68-7.27c0.33-1.63,0.88-2.49,2.26-3.53
			c0.61,0.14,0.81,0.87,1.47,1.06c0.52-1.25,0.91-2.54,1.52-3.74c2.68-5.28,6.71-9.3,11.6-12.52
			C54.05,192.39,55.33,193.11,55.57,195.15z"/>
	</g>
</g>
<g>
	<path class="st0" d="M53.83,194.35c-1.29,2.23-2.73,4-4.93,5.43c0.7,0.07,0.97-0.17,1.28-0.35c1.75-1.03,3.39-2.25,5.4-2.79
		c1.84-0.5,3.65-0.7,5.59-0.42c1.93,0.28,3.81,0.68,5.5,1.56c3.14,1.62,5.83,3.81,7.95,6.73c1.04,1.42,2.12,2.84,2.94,4.37
		c1.03,1.92,1.9,3.94,2.51,6.05c0.35,1.24,0.8,2.47,0.73,3.79c-0.01,0.19,0.05,0.4-0.24,0.63c-1.27-0.93-2-2.33-2.95-3.58
		c-0.58,0.33-0.2,0.83-0.13,1.13c0.82,3.39,1.33,6.81,1.16,10.3c-0.06,1.21-0.37,2.37-0.81,3.71c-0.61-2.12-0.44-4.16-1.12-6.07
		c-0.7,0.42-0.53,1.01-0.43,1.47c0.71,3.48,0.39,6.87-0.83,10.18c-0.24,0.65-0.67,1.24-1.06,1.83c-0.19,0.29-0.46,0.59-0.96,0.36
		c-0.24-1.98,0.15-4.04-0.4-6.08c-0.77,2.57-0.79,5.36-2.39,7.59c-0.32,0.02-0.49-0.12-0.56-0.3c-0.85-2.35-2.46-4.07-4.39-5.58
		c-0.93-0.73-1.62-1.73-2.76-2.22c-2.5-1.05-5.03-1.36-7.66-0.52c-1.88,0.6-3.07,1.81-3.47,3.75c-0.07,0.35-0.13,0.73,0.28,0.96
		c0.25-0.06,0.39-0.21,0.39-0.47c0.01-2.48,2.12-3.47,4-3.95c2.3-0.59,4.5-0.07,6.57,1.05c1.21,0.65,1.48,1.23,1.19,2.54
		c-0.38,1.69-0.75,3.38-0.24,5.12c0.14,0.47,0.29,1.02,0.72,1.16c0.6,0.2,0.72,0.57,0.81,1.08c0.37,2.04,0.94,4.02,1.86,5.85
		c-1.82,1.47-6.23,2.93-8.38,2.78c0.62-0.72,1.49-0.92,2.22-1.31c0.76-0.41,1.52-0.79,2.23-1.32c-0.14-0.3-0.27-0.42-0.63-0.35
		c-2.3,0.47-4.58,1.1-6.9,1.31c-3.74,0.33-7.38-0.23-10.95-2.32c1.61-0.1,2.93,0.34,4.28,0.23c1.36-0.11,2.74,0.05,4.29-0.1
		c-0.58-0.84-1.28-0.73-1.84-0.85c-2.73-0.58-5.33-1.55-7.85-2.69c-1.37-0.63-2.31-1.85-3.16-3.11c-1.49-2.2-2.6-4.54-3.21-7.13
		c-0.04-0.19-0.14-0.37-0.13-0.57c0.01-0.28,0.03-0.55,0.05-1.01c2.07,1.5,3.96,3.06,6.32,4.01c-7.4-7.03-8.17-15.58-6.07-24.81
		c0.42,5.15,1.13,7.95,2.19,9.51c0.47-0.13,0.38-0.52,0.38-0.85c0.01-1.48,0.01-2.96,0-4.44c-0.02-3.12,0.84-6.02,2.09-8.86
		c1.56-3.54,3.86-6.51,6.73-9.05C50.45,196.48,51.81,195.16,53.83,194.35z M76.83,224.2c-0.19-0.11-0.31-0.24-0.43-0.23
		c-0.11,0.01-0.22,0.16-0.33,0.25c0.09,0.11,0.16,0.29,0.27,0.3C76.44,224.53,76.56,224.38,76.83,224.2z"/>
	<path class="st0" d="M103.77,97.83c-0.42-1.77-2.08-3.82-5.35-6.09c0.25,0.37,0.45,0.79,0.76,1.1c1.06,1.07,1.94,2.29,2.93,3.42
		c1.36,1.55,0.85,4.19-0.44,5.11c-0.84,0.6-1.54,1.51-2.78,1.33c-0.58-0.08-0.78-0.17-0.65-0.88c0.14-0.8,0.36-1.61,0.35-2.45
		c-0.02-1.3-0.48-2.31-1.47-3.19c-0.72-0.65-1.26-1.49-1.9-2.23c-0.15-0.17-0.3-0.38-0.59-0.35c-0.25,0.33-0.1,0.56,0.12,0.84
		c0.7,0.9,1.28,1.89,2.06,2.72c0.75,0.8,1.06,1.7,0.93,2.7c-0.14,1.09-0.03,2.22-0.78,3.23c-0.48,0.65-1,1.07-1.7,0.92
		c-0.86-0.19-1.61-0.79-1.7-1.73c-0.08-0.78-0.32-1.54-0.3-2.35c0.02-1.13-1.2-2.38-2.34-2.78c-1.37-0.48-2.54-1.26-3.26-2.59
		c-0.09-0.17-0.17-0.36-0.28-0.52c-1.34-1.83-1.04-1.65-2.9-0.86c-1.94,0.82-3.81,1.8-5.67,2.79c-2.65,1.42-5.37,2.73-8.06,4.08
		c-0.7,0.35-1.35,0.77-2.09,1.04c-0.67,0.25-1.33,0.43-2.06,0.42c-1.21-0.01-2.39,0.2-3.62,0.03c-0.94-0.13-1.86-0.32-2.74-0.61
		c-1.74-0.58-2.17-2.1-2.47-3.67c-0.05-0.25,0.11-0.56-0.21-0.77c-0.9,0.7-0.49,1.92-1.12,2.76c-1.22-2.15-0.32-4.08,0.47-6.08
		c-0.63,0.6-1.26,1.2-1.9,1.81c0.48-1.39,1.57-2.39,2.26-3.77c-0.99,0.24-1.82,0.77-2.95,0.89c1.28-1.16,2.27-2.38,3.2-3.65
		c0.84-1.15,2.16-1.66,3.37-2.29c2.39-1.25,4.76-2.64,7.48-3.01c2.18-0.29,4.39-0.69,6.61-0.16c0.34,0.08,0.73,0.09,1.07,0.03
		c2.85-0.48,5.73-0.16,8.59-0.22c2.34-0.05,4.69-0.08,7.03,0.22c0.33,0.04,0.59,0.11,0.86,0.32c1.38,1.03,2.83,1.97,4.18,3.04
		c0.93,0.74,1.99,1.26,2.97,1.9c1.91,1.24,3.55,2.79,4.74,4.68c0.84,1.34,0.51,2.98,0,4.47c-0.05,0.14-0.21,0.24-0.33,0.34
		C104.01,97.81,103.91,97.9,103.77,97.83z"/>
	<path class="st0" d="M91.61,114.09c0.79,0.69,1.64,0.57,2.45,0.6c0.82,0.04,1.66-0.19,2.39,0.23c1.78-1.43,2.94-3.3,4.29-4.99
		c1.12,0.89,1.63,2.63,1.09,3.97c-0.68,1.68-1.86,3.03-3.24,4.17c-0.42,0.34-1.07,0.44-1.66,0.45c-1.35,0.04-2.69-0.03-3.99-0.41
		c-0.47-0.14-0.95-0.07-1.66-0.01c1.48,1.19,3.11,1.14,4.64,1.21c1.62,0.08,3.2-0.28,4.16-1.74c0.39,0.01,0.66,0.25,0.6,0.41
		c-0.33,0.91-0.45,1.94-1.12,2.66c-1.01,1.07-2.28,1.65-3.82,1.48c-0.79-0.09-1.58,0.2-2.35,0.2c-2.11,0-4.14-0.27-6.09-1.35
		c-3.01-1.66-6.23-2.84-9.66-3.46c-2.06-0.37-4.09-0.98-6.09-1.68c-1.51-0.52-3.1-0.84-4.58-1.43c-2.36-0.94-4.82-1.62-7.07-2.85
		c-1.52-0.84-2.8-1.91-3.56-3.51c-0.16-0.34-0.21-0.76-0.71-1.01c0.07,0.74-0.37,1.36,0,2.17c-1.62-1.37-1.26-3.08-1.22-4.84
		c-0.9,0.7-0.93,1.8-1.65,2.49c-0.23-1.5,0.42-2.76,1.06-4.25c-0.66,0.42-1.07,0.68-1.49,0.94c1.24-1.64,1.73-3.66,2.75-5.6
		c0.42,0.62,0.26,1.24,0.67,1.73c0.84,1.03,0.82,1.1,1.67,0.14c1.88,1.77,4.23,2.4,6.7,2.59c1.81,0.14,3.63,0.03,5.34-0.71
		c0.29-0.12,0.64-0.21,0.82-0.43c0.6-0.75,1.2-0.53,1.89-0.16c2.8,1.51,5.3,3.49,8,5.14c1.61,0.98,3.28,1.84,5,2.58
		c0.83,0.36,1.5,0.03,2.09-0.73c0.86-1.12,1.56-2.37,2.83-3.13c0.25-0.15,0.35-0.52,0.56-0.75c0.47-0.51,1.23-0.48,1.67,0.03
		c0.58,0.68,0.65,1.97,0.11,2.75c-0.44,0.65-0.95,1.24-1.4,1.89c-0.26,0.39-0.55,0.8-0.32,1.39c1.01,0.17,2.09,0.07,3.15,0.06
		c0.69,0,1.17-0.55,1.56-0.98c0.56-0.6,1.27-1.11,1.64-1.84c0.3-0.6,0.86-0.83,1.32-1.13c0.38-0.25,1-0.28,1.45,0.12
		c0.61,0.53,0.87,1.3,0.57,1.94c-0.72,1.53-1.4,3.02-2.75,4.28c-1.39,1.3-2.65,1.39-4.24,1.01
		C92.83,113.6,92.27,113.85,91.61,114.09z"/>
	<path class="st0" d="M95.74,159.18c-3.36,3.28-5.72,7.08-7.49,11.28c0.44,1.08-0.66,2.07-0.19,3.19c1.04-2.57,1.86-5.19,3.29-7.55
		c1.48-2.44,3.25-4.64,5.29-6.65c1.09,0.17,2.11,0.51,3.15,0.81c2.13,0.62,4.29,1.14,6.44,1.7c0.57,0.15,1.1,0.31,1.59,0.7
		c0.67,0.53,1.58,0.31,2.38,0.48c1.87,0.4,3.77,0.71,5.3,1.95c0.9,0.73,1.87,1.39,2.53,2.42c0.46,0.72,1.16,1.31,1.79,1.92
		c1.97,1.87,3.36,4.14,4.68,6.48c0.81,1.43,1.46,2.93,2.36,4.31c0.33,0.51,0.77,0.75,1.29,0.96c1.03,0.4,1.37,0.97,1.27,2.05
		c-1.03,0.41-2.02-0.18-3.04-0.15c-3.04,0.1-5.87,0.85-8.51,2.37c-0.24,0.14-0.49,0.24-0.75,0.34c-0.44,0.17-0.88,0.76-1.37,0.2
		c-0.43-0.49-0.8-1.03-0.48-1.8c0.31-0.76,0.2-1.46-0.2-2.29c-0.68-1.4-1.48-2.74-2.14-4.15c-0.02-0.04-0.03-0.08-0.05-0.11
		c-1.04-0.85-1.71-2.05-2.79-2.88c-0.43-0.33-0.92-0.19-1.32-0.46c-0.08-0.05-0.35,0.16-0.33,0.52c0.64,0.09,1.25,0.37,1.76,0.89
		c-0.5,0.48-0.92-0.11-1.37-0.08c-2.02,0.14-4.06-0.23-6.08,0.22c-0.57,0.13-1.2,0.01-1.8,0.03c-0.75,0.02-1.49-0.05-2.24,0.2
		c-0.9,0.3-1.79-0.23-2.72-0.2c-2.03,0.06-4.06-0.04-6.09,0.01c-0.93,0.02-1.83-0.35-2.82,0.16c-0.82,0.42-2-0.65-1.96-1.65
		c0.14-3.89,1.24-7.46,3.56-10.64c0.83-1.14,1.71-2.23,2.74-3.19c0.83-0.78,1.75-1.43,2.9-1.68
		C94.76,158.82,95.19,158.75,95.74,159.18z M125.89,180.28c-2.31-0.66-4.84-0.16-7.94,1.31c-0.57,0.27-1.36,0.33-1.68,1.36
		c1.74-0.53,3.07-1.63,4.65-1.89C122.57,180.77,124.19,180.32,125.89,180.28z"/>
	<path class="st0" d="M140.1,147.27c-4.77-0.59-9.14-0.07-12.6,3.59c-0.54-0.35-0.47-0.88-0.28-1.26c0.26-0.52,0.62-1.07,1.09-1.37
		c1.24-0.79,2.35-1.81,3.87-2.14c0.85-0.18,1.67-0.59,2.46-1.15c-2.82-0.51-6.19,1.59-7.74,3.57c-0.59,0.06-0.92-0.4-1.1-0.77
		c-0.96-1.96-2.36-3.68-2.96-5.82c-0.12-0.42-0.33-0.8-0.27-1.25c0.05-0.43-0.23-0.7-0.42-1.06c-0.84,1-0.71,0.9,0.41,4.28
		c-1.2-0.48-0.73-2.18-2.08-2.57c-0.24,1.38,0.49,2.37,1.21,3.29c0.53,0.67,1.17,1.28,1.94,1.73c1.33,0.78,1.87,2.84,1.38,4.29
		c-0.32,0.95-0.71,1.9-0.76,2.93c-0.03,0.67-0.36,1.29-0.54,1.9c-0.75,2.5-1.78,4.91-3.33,7.04c-0.6,0.83-1.38,1.56-2.17,2.22
		c-0.42,0.36-0.97,0.6-1.6,0.07c-1.62-1.36-3.54-2.12-5.59-2.59c-0.99-0.23-0.97-0.29-0.78-1.26c0.31-1.69,0.48-3.41,0.84-5.09
		c0.24-1.11,0.15-2.21,0.24-3.31c0.09,0.01,0.2-0.02,0.24,0.02c0.83,0.85,0.83,0.85,1.44-0.25c0.06-0.1,0.12-0.23,0.22-0.28
		c1.15-0.57,1.04-1.56,0.81-2.55c-0.1-0.44-0.08-0.87-0.09-1.3c-0.02-1.42,0.13-2.85-0.46-4.21c-0.06-0.13-0.02-0.32,0-0.47
		c0.01-0.07,0.08-0.13,0.12-0.2c0.61-0.16,0.82,0.38,1.16,0.68c0.82,0.71,1.37,0.3,1.56-0.58c0.07-0.31,0.1-0.67,0-0.95
		c-0.6-1.69,0.55-2.77,1.45-3.81c1.69-1.96,3.6-3.72,5.57-5.39c2.33-1.98,5.8-1.56,7.65,0.92c1.15,1.54,2.14,3.15,2.87,4.94
		c0.78,1.9,1.94,3.61,3.18,5.25c0.45,0.59,1.23,0.82,1.82,1.28C139.4,146.04,139.86,146.46,140.1,147.27z"/>
	<path class="st0" d="M75.98,82.04c-2.21,0-4.29,0-6.36,0c-0.2,0-0.39-0.02-0.58-0.11c-1.41-0.7-2.93-0.87-4.47-0.84
		c-1.3,0.03-2.62-0.19-3.9,0.22c-0.18,0.06-0.4,0.02-0.57-0.22c0.08-1.13-0.1-2.3,0.04-3.51c0.32-2.69,0.78-5.34,1.44-7.96
		c0.49-1.96,1.32-3.72,2.35-5.45c1.34-2.25,3.34-3.54,5.76-4.14c2.66-0.65,5.28-0.58,7.7,1.08c1.38,0.96,2.1,2.29,2.72,3.75
		c0.19,0.44,0.09,1.05,0.66,1.32c0.51-0.14,0.12-0.67,0.48-0.94c0.32,0.28,0.93,0.08,1.17,0.56c0.54,1.09,1.17,2.13,1.49,3.31
		c0.06,0.22,0.01,0.48,0.02,0.72c0.03,0.74-0.16,1.23-1.01,0.92c-0.19,0.57-0.11,1.14-0.88,1.37c-0.34,0.1-0.53,0.73-0.77,1.12
		c-1.05,1.71-1.65,3.63-2.35,5.49c-0.25,0.65-0.23,1.41-0.26,2.13c-0.06,1.18-0.08,1.21-1.4,1.05c-0.01-0.14-0.08-0.32-0.03-0.44
		c0.72-1.83,1.11-3.74,1.44-5.66c0.07-0.42,0.53-0.58,0.7-0.94c0.65-1.34,1.24-2.69,1.6-4.14c0.04-0.17,0.08-0.31-0.03-0.43
		c-0.07-0.08-0.18-0.13-0.3-0.22c-0.67,1.07-0.68,2.39-1.43,3.49c-0.23-1.01,0.46-1.87,0.03-2.97c-0.15,1.43-0.73,2.59-0.88,3.87
		c-0.16,1.36-0.39,2.74-0.95,3.97C76.87,79.6,76.08,80.62,75.98,82.04z"/>
	<path class="st0" d="M45.48,27.29c1.01,0.55,1.11,1.85,2.08,2.34c0.32-0.17-0.18-0.41,0.04-0.57c0.27-0.11,0.3,0.19,0.45,0.26
		c0.05-0.1,0.1-0.16,0.11-0.22c0.13-0.92-0.14-1.81-0.34-2.68c-0.41-1.8,0.01-3.37,1.27-4.68c1.27-1.31,2.56-2.59,3.67-4.04
		c1.09-1.43,1.93-3.02,2.58-4.71c0.25-0.64-0.37-1.2-0.16-1.84c0.24,0.02,0.16,0.24,0.25,0.37c0.63-0.29,0.31-0.92,0.5-1.39
		c0.64,0.17,0.28,0.96,0.79,1.2c0.18-0.08,0-0.39,0.24-0.48c0.39,0.15,0.32,0.49,0.34,0.8c0.03,0.4-0.8,0.39-0.44,0.9
		c0.31,0.44,0.13,0.93,0.2,1.39c0.19,1.44,0.33,2.89,0.2,4.6c0.93-1.03,0.9-2.06,0.72-2.97c-0.3-1.47-0.16-2.93-0.19-4.4
		c-0.03-1.51-0.22-2.97-0.7-4.4c-0.05-0.14-0.01-0.31-0.01-0.47c0.39-0.2,0.67,0.07,0.87,0.22c2.43,1.83,3.99,4.26,5.16,7.07
		c0.77,1.85,0.07,3.54,0.07,5.3c0,0.67-0.26,1.33,0.01,2.07c-1.35-0.13-2.3,0.89-3.52,1.2c-1.37,0.34-2.17,1.33-2.76,2.54
		c-0.14,0.28-0.23,0.58-0.55,0.84c0.04-1.29,0.99-2.22,1.13-3.51c-0.54,0.1-0.76,0.39-0.92,0.82c-0.8,2.08-1.51,4.15-1.74,6.42
		c-0.25,2.41,0.04,4.68,0.43,7.02c0.18,1.08,0.63,2.2,0.15,3.37c-0.17,0.41-0.03,0.94-0.03,1.55c0.94-0.73,0.66-1.91,1.35-2.63
		c0.3,1.5-0.05,2.99-0.27,4.46c-0.08,0.52-0.09,1.08-0.32,1.61c-0.11,0.26-0.42,0.95,0.38,1.09c0.05,0.01,0.06,0.38,0.04,0.57
		c-0.13,1.44,0.42,2.84,0.24,4.27c-0.04,0.33,0.36,0.55,0.11,0.92c-4.27-1.27-7.27-4.12-9.7-7.91c1.43,0.52,2.64,1.19,3.85,2.06
		C46.4,40.41,45.37,34.07,45.48,27.29z"/>
	<path class="st0" d="M100.15,85.94c4.31,2.56,8.92,4.4,13.55,6.2c2.5,0.97,5.09,1.54,7.68,2.07c1.48,0.3,2.49,1.17,3.48,2.06
		c2.02,1.82,4.21,3.43,6.34,5.11c0.29,0.23,0.47,0.48,0.49,0.9c0.11,1.57,0.54,3.08,1.12,4.53c0.26,0.65,0.76,1.21,0.46,1.99
		c-0.47,0.45-1.06,0.41-1.75,0.32c-0.35-1-0.77-1.94-0.65-3.16c0.11-1.15-0.26-2.38-1.13-3.33c-1.74-1.91-3.6-3.66-5.87-4.93
		c-0.05-0.03-0.15,0.02-0.41,0.06c1.27,0.91,2.24,1.97,3.25,2.99c1.05,1.07,2.22,2.04,2.96,3.39c0.18,0.33,0.29,0.61,0.33,0.98
		c0.12,1.32-0.23,2.65,0.37,3.99c0.24,0.54-0.44,1.42-1.09,1.83c-0.56,0.35-1.31,0.45-1.87,0.05c-0.8-0.58-1.64-1.33-1.47-2.41
		c0.32-2.05-0.95-3.06-2.37-3.98c-0.79-0.51-1.66-0.89-2.5-1.31c-0.33-0.16-0.72-0.21-0.99,0.11c-0.29,0.34-0.22,0.7,0.03,1.08
		c0.75,1.19,1.43,2.44,1.85,3.79c0.43,1.38-0.24,3.03-1.72,3.38c-0.66,0.16-1.13-0.07-1.29-0.73c-0.26-1.09-0.16-2.38-1.11-3.14
		c-0.81-0.66-1.37-1.48-2.03-2.25c-1.26-1.46-2.18-3.18-3.53-4.57c-0.11-0.11-0.23-0.22-0.35-0.32c-0.51,0.79-1.3,0.4-1.88,0.33
		c-0.75-0.09-1.49-0.23-2.24-0.17c-0.77,0.07-1.46-0.35-2.23-0.27c-0.75,0.08-1.5,0.03-2.21-0.35c0.15-0.8,0.44-1.49,1.27-1.83
		c0.22-0.09,0.31-0.33,0.41-0.56c0.82-1.81,0.98-3.55-0.1-5.36c-0.62-1.04-1.4-1.9-2.25-2.71C101.6,88.63,100.94,87.25,100.15,85.94
		z"/>
	<path class="st0" d="M80.35,81.67c0.54-1.34,0.7-2.79,1.2-4.13c0.46-1.23,1.1-2.39,1.63-3.6c0.46-1.04,0.92-2.07,1.3-3.14
		c0.25-0.71,0.64-1.46,0.12-2.12c0.17-0.29,0.33-0.35,0.48-0.3c1.79,0.66,3.72,0.53,5.56,0.89c1.06,0.21,2.19,0.12,3.3-0.15
		c1.53-0.38,3.06-0.67,4.36-1.75c1.68,1.35,2.81,3.04,3.63,5c0.67,1.58,0.84,3.22,0.68,4.87c-0.23,2.38-1.36,4.26-3.25,5.77
		c-1.17,0.94-2.23,1.29-3.75,0.79c-0.85-0.28-1.68-0.49-2.47-0.97c-1.11-0.68-2.33-1.06-3.69-1.04c-2.64,0.05-5.28,0.02-7.92,0.01
		C81.16,81.8,80.76,81.9,80.35,81.67z"/>
	<path class="st0" d="M89.87,122.8c1.06,0.19,2.19,0.08,3.22,0.78c0.42-0.57,1.05-0.56,1.75-0.45c0.34,1.24,0.02,2.45-0.22,3.73
		c-0.42,0.07-0.85,0.25-0.88-0.5c-0.02-0.59-0.47-0.37-0.81-0.35c-0.21,0.34-0.16,0.67,0.03,1.06c-0.61,0.11-1.2,0.25-1.8,0.32
		c-0.33,0.04-0.67,0.11-0.8-0.44c-0.11-0.5-0.56-0.2-0.85-0.2c-0.11,0.33,0,0.58,0.09,0.89c-0.96,0-1.84,0-2.71,0
		c-0.32,0-0.56,0.05-0.73-0.44c-0.15-0.47-0.68-0.31-1.12-0.09c-1.25,0.64-2.55,0.28-3.79-0.03c-0.3-0.08-0.37-0.81-0.97-0.86
		c-1.12,1.55-2.46,0.08-3.7,0.18c-0.69,0.06-0.48-0.68-0.65-1.05c-0.32-0.2-0.64-0.08-0.91-0.1c-0.36,0.24-0.09,0.65-0.37,0.91
		c-0.99-0.25-2-0.51-3.03-0.77c0.14-0.23,0.65-0.12,0.54-0.59c-0.06-0.26-0.2-0.44-0.44-0.5c-0.56-0.14-0.7,0.38-0.92,0.74
		c-0.69-0.22-1.32-0.43-1.94-0.63c0.23-1.04,0.1-1.16-1-1.01c-0.34-0.21-0.18-0.58-0.29-0.87c0.13,0.08,0.26,0.18,0.4,0.24
		c0.41,0.15,0.7,0,0.82-0.4c0.09-0.3-0.05-0.56-0.34-0.67c-0.4-0.16-0.69,0.01-0.82,0.41c-0.05,0.14-0.02,0.31-0.03,0.47
		c-0.81-1.78-0.56-3.54,0.08-5.33c0.11,0.78,0.61,1.16,1.24,1.48c2.93,1.47,6.05,2.22,9.28,2.71c3.01,0.46,6.02,0.71,9.07,0.71
		c0.91,0,1.78,0.39,2.64,0.69c-0.51,0-1.05,0.07-0.9,0.74c0.14,0.62,0.66,0.5,1.09,0.38C90.25,123.48,90.12,123.12,89.87,122.8z
		 M71.65,121.88c0.42-0.01,0.76-0.16,0.69-0.53c-0.05-0.28-0.14-0.72-0.66-0.68c-0.42,0.03-0.72,0.17-0.71,0.62
		C70.99,121.75,71.31,121.9,71.65,121.88z M76.76,122.36c-0.36-0.39-0.58-1.02-1.27-0.53c-0.3,0.21-0.31,0.58-0.03,0.81
		C75.93,123,76.38,122.95,76.76,122.36z M79.81,125.28c0.44,0.57,0.89,0.63,1.34,0.18c0.2-0.2,0.23-0.47-0.1-0.69
		C80.43,124.33,80.15,124.76,79.81,125.28z M81.21,122.64c-0.55-0.05-1.05-0.11-1.11,0.56c-0.03,0.36,0.22,0.61,0.58,0.58
		C81.35,123.72,81.33,123.24,81.21,122.64z M84.6,123.55c0.43,0.64,0.8,0.59,1.23,0.17c0.33-0.32,0.08-0.68-0.09-0.77
		C85.15,122.63,84.95,123.19,84.6,123.55z M71.08,123.54c0.53,0.04,1.02,0.09,1.07-0.61c0.03-0.4-0.41-0.48-0.56-0.46
		C71.04,122.53,70.8,122.88,71.08,123.54z M76.54,124c-0.63-0.6-1.11-0.65-1.55,0.17C75.56,124.56,76.03,124.77,76.54,124z
		 M85.55,124.75c-0.28,0.26-0.64,0.41-0.64,0.83c0.62,0.4,1.25,0.28,1.34-0.29C86.05,125.14,85.92,124.88,85.55,124.75z
		 M93.74,124.51c-0.04-0.25-0.24-0.47-0.61-0.45c-0.36,0.03-0.55,0.25-0.56,0.62c0,0.4,0.41,0.3,0.57,0.5
		C93.36,125,93.8,125.07,93.74,124.51z M68.35,120.46c0.38-0.24,0.59-0.51,0.37-0.9c-0.18-0.31-0.47-0.41-0.8-0.24
		c-0.17,0.09-0.31,0.23-0.3,0.47C67.79,120.06,67.99,120.28,68.35,120.46z M89.21,125.52c0.23,0.38,0.51,0.58,0.89,0.35
		c0.3-0.18,0.4-0.45,0.17-0.84C89.87,125.01,89.44,124.9,89.21,125.52z"/>
	<path class="st0" d="M89.54,27.33c-0.61-0.21-1.08-0.65-1.84-0.45c0.27-0.66,0.72-1.09,0.64-1.76c-0.87,0.47-1.31,1.26-2.03,1.76
		c-0.95,0.64-2.03,0.99-3,1.58c-1.09,0.67-2.09,1.39-2.88,2.42c1.93-1.24,3.95-2.29,6.05-3.24c0.15,0.5,0.31,1,0.52,1.68
		c-0.56-0.38-1.07-0.32-1.57-0.31c-1.47,0.03-1.92,0.71-1.37,2.08c-0.78-0.2-1.52,0.07-2.27,0.14c-0.6,0.05-0.97,0.66-0.66,1.27
		c0.4,0.79-0.11,1-0.62,1.23c-1.09,0.47-2.27,0.45-3.38,0.23c-0.46-0.09-1.06,0.1-1.47-0.4c0.15-1.57,0.79-3.01,1.69-4.24
		c0.91-1.23,2.33-1.96,3.68-2.7c1.4-0.78,2.92-1.32,4.23-2.31c0.89-0.67,1.45-1.53,2.06-2.38c1.06-1.46,2.02-3.01,3.31-4.29
		c1.71-1.69,3.75-2.08,6.1-1.71c1.48,0.23,3.02,0.69,4.52-0.02c0.35-0.16,0.63-0.11,0.82,0.2c0.17,0.29,0.16,0.61-0.03,0.9
		c-1.15,1.76-2.78,2.73-4.87,2.87c-1.43,0.09-2.76,0.51-4.08,0.99c-0.14,0.05-0.34,0.13-0.39,0.24c-0.46,1.16-1.28,0.64-1.97,0.37
		c-0.48-0.19-0.95-0.17-1.41-0.12c-0.91,0.1-1.16,0.7-0.67,1.45c0.32,0.49,0.68,0.96,0.96,1.48C90.13,25.26,89.91,26.26,89.54,27.33
		z M99.28,17.89c-0.18-0.14-0.29-0.13-0.47-0.06c-1.61,0.64-3.32,0.87-5.02,1.08c-1.46,0.18-2.61,0.8-3.48,2.12
		c0.28,0.13,0.47-0.12,0.63-0.22c1.47-0.87,2.99-1.47,4.75-1.43c0.93,0.02,1.82-0.35,2.71-0.65C98.85,18.59,99.14,18.32,99.28,17.89
		z"/>
	<path class="st0" d="M84.92,65.19c-1.46,0.19-2.59-0.25-3.73-0.69c-0.54-0.21-0.87-0.67-1.1-1.16c-1.6-3.49-6.41-4.79-9.55-4.17
		c-2.71,0.53-4.81,1.82-6.63,3.92c-0.57-1.63-0.48-3.14-0.1-4.66c1.33-0.5,2.72-0.37,4.09-0.38c2.12-0.01,4.24-0.01,6.36,0
		c2.22,0.01,4.41-0.3,6.61-0.52c0.14-0.02,0.28-0.12,0.5-0.22C82.15,60.07,83.26,62.67,84.92,65.19z M81.75,64.04
		c0.64-0.24,1.12-0.66,0.92-1.23c-0.18-0.52-0.62-1.05-1.26-1.14c-0.3-0.04-0.73,0.09-0.82,0.5C80.39,63.12,81,63.6,81.75,64.04z"/>
	<path class="st0" d="M78.64,97.72c0.37-1.13,1.51-1.49,2.36-1.91c1.59-0.77,3.17-1.53,4.83-2.48c0.97,1.61,2.01,3.21,3.74,4.29
		C88.01,98.28,79.55,98.33,78.64,97.72z M80.06,96.99c2.61,0.65,5.22,1.06,7.82,0C85.27,96.99,82.66,96.99,80.06,96.99z"/>
	<path class="st0" d="M67.23,82.39c-3.04,0.83-9.21,4.08-10.49,5.51c-0.35-1.42-0.31-1.38,0.84-2.04c1.06-0.61,2.34-0.6,3.36-1.33
		c-1.48-0.32-2.78,0.14-4.05,0.83c-0.09-1.76,0.95-3.1,2.7-3.27c1.06-0.1,2.1-0.4,3.19-0.29c0.75,0.08,1.53-0.05,2.27,0.04
		C65.78,81.92,66.48,82.19,67.23,82.39z"/>
	<path class="st0" d="M79,21.25c-2.37-0.54-4.65-0.84-7.01-0.55c-0.17-0.94-0.1-1.88,0.41-2.79c0.55-0.98,1.81-1.46,2.9-1.01
		C76.46,17.39,78.81,19.58,79,21.25z"/>
	<path class="st0" d="M88.6,62.37c1.2,0.61,2.11,0.17,2.39-1.13c0.1-0.02,0.22-0.06,0.33-0.07c1.29-0.03,2.29,0.47,2.42,1.26
		c0.13,0.83-0.34,2.06-1.59,2.64c-0.85,0.4-1.75,0.59-2.64,0.32C88.14,64.99,87.74,63.65,88.6,62.37z"/>
	<path class="st0" d="M89.1,22.14c1.92-0.18,3.58,0.71,4.35,2.2c-0.69,0.85-1.29,1.78-2.27,2.47C91.01,25.02,90.16,23.61,89.1,22.14
		z"/>
	<path class="st0" d="M72.54,100c1.37-0.69,2.64-1.32,4.01-2.01c0.33,1.15,0.52,2.22,1.09,3.22C75.84,101.21,74.05,101.62,72.54,100
		z"/>
	<path class="st0" d="M75.97,12.88c-0.13-0.64-0.68-0.91-1.16-1.25c0.07-0.56,0.59-0.74,0.83-1.15c0.07-0.47-0.38-0.7-0.53-1.07
		c0.27-0.4,0.32-0.91,0.77-1.25c0.86,0.24,1.85,0.33,2.02,1.52c0.06,0.39-0.09,0.45-1.48,0.9c-0.05,0.22,0.18,0.19,0.27,0.27
		c0.44,0.42,0.92,0.91,0.71,1.52c-0.22,0.64-0.92,0.48-1.47,0.47L75.97,12.88z"/>
	<path class="st0" d="M89.11,56.84c2.71,0.49,3.19,0.82,4.89,3.18c-0.39,0.62-0.86,0.4-1.42,0.23c-0.47-0.15-1.01-0.09-1.58,0.22
		C90.71,59.14,90.05,58.02,89.11,56.84z"/>
	<path class="st0" d="M75.94,12.85c0.1,0.68,0.8,0.8,1.15,1.25c0.56,0.71,0.65,0.91,0.36,1.85c-0.51-0.19-1.05-0.12-1.59-0.15
		c-0.83-0.05-1.78-0.84-1.99-1.61c-0.16-0.63,0.07-0.96,0.75-1.02c0.46-0.04,0.96,0.13,1.34-0.28L75.94,12.85z"/>
	<path class="st0" d="M71.33,25.43c-0.08-1.04-0.26-1.93,0.03-2.83c1.41,0.3,2.09,1.27,2.77,2.42
		C73.19,25.35,72.21,24.89,71.33,25.43z"/>
	<path class="st0" d="M102.17,122.18c-0.03,1.17-1.58,2.35-4.81,3.73c0.19-0.6,0.37-1.14,0.48-1.49
		C99.67,124.32,100.72,122.86,102.17,122.18z"/>
	<path class="st0" d="M89.82,61.54c-0.58-2.88-1.31-3.71-3.63-4.08c0.86-0.62,2.28-0.43,3.16,0.43
		C90.21,58.73,90.45,60.55,89.82,61.54z"/>
	<path class="st0" d="M85.31,31.55c-0.22-0.68-0.83-0.95-0.78-1.62c0.81-0.47,1.59-0.15,2.41,0.12
		C86.67,30.77,85.88,30.91,85.31,31.55z"/>
	<path class="st0" d="M89.48,28.17c-0.33,0.77-1.01,0.89-1.55,1.42c-0.24-0.69-0.44-1.29-0.65-1.88
		C88.16,27.27,88.74,27.9,89.48,28.17z"/>
	<path class="st0" d="M73.21,27.93c-0.65,0.17-1.15,0.08-1.73,0.1c-0.01-0.63-0.14-1.18-0.35-1.87
		C72.03,26.6,72.67,27.08,73.21,27.93z"/>
	<path class="st0" d="M82.32,33c-0.33-0.27-0.41-0.56-0.43-0.92c0.76-0.38,1.56-0.12,2.47-0.21C83.77,32.68,82.97,32.74,82.32,33z"
		/>
	<path class="st0" d="M94.04,23.55c-0.68-0.46-0.56-1.16-0.93-1.61c0.49-0.79,0.95-0.12,1.23,0.12
		C94.98,22.62,94.32,23.03,94.04,23.55z"/>
</g>
</svg>
