<?xml version="1.0" encoding="utf-8"?>
<!-- Generator: Adobe Illustrator 23.1.0, SVG Export Plug-In . SVG Version: 6.00 Build 0)  -->
<svg version="1.1" id="Layer_1" xmlns="http://www.w3.org/2000/svg" xmlns:xlink="http://www.w3.org/1999/xlink" x="0px" y="0px"
	 viewBox="0 0 818.07 821.9" style="enable-background:new 0 0 818.07 821.9;" xml:space="preserve">
<path d="M396.48,737.79c2.12-4.85,2.85-10.61,3.09-16.55c0.2-4.91,0.96-9.8,1.42-14.7c0.52-5.61-0.53-11.07-1.84-16.47
	c-3.06-12.69-6.32-25.33-9.36-38.02c-2.33-9.73-4.77-19.45-6.5-29.3c-0.69-3.96-2.48-7.39-3.47-11.15
	c-0.65-2.44-1.54-4.82-2.57-7.25c0.17,5.7-1.76,10.76-4.79,16.03c-0.77-3.03-1.78-5.76-2.1-8.58c-0.94-8.13-3.81-15.66-6.89-23.1
	c-6.22-15.01-12.06-30.15-15.47-46.08c-1.43-6.7-2.13-13.55-3.23-20.32c-2.74-16.88-2.45-33.91-2.14-50.9
	c0.12-6.86,1.36-13.69,2.09-20.54c0.49-4.57,0.99-9.13,1.55-14.32c-1.37,2.01-2.38,3.49-3.56,5.21c0.04-5.25,2.17-10.44,7.96-19.66
	c-2.46-0.79-4.93-1.59-7.83-2.52c2.85-1.15,5.11-2.15,7.44-2.98c2.7-0.96,3.35-3.12,2.62-5.37c-1.65-5.12,0.35-10.03,0.48-15.03
	c0.04-1.65,0.64-3.29,1.06-5.3c-1.26,1.05-2.26,1.88-3.5,2.92c-0.49-4.12,2.23-6.82,3.39-10.35c-1.88,0.52-3.65,1.02-4.96,1.38
	c2.22-3.98,4.79-7.87,6.6-12.08c1.92-4.46,0.71-6.61-3.4-8.83c-10.49-5.67-16.44-14.47-17.51-26.38c-0.28-3.11-0.3-6.3,0.06-9.4
	c0.18-1.55,1.26-3.14,2.29-4.43c3.52-4.39,8.09-7.63,12.82-10.52c2.9-1.78,3.97-4.37,5.13-7.95c-1.68,1.49-2.89,2.56-4.15,3.68
	c0.86-7.77,9.63-18.59,20.22-24.91c-4.74-1.86-10.08-2.03-13.94-6.01c4.38,0.69,8.35-0.41,12.36-1.04
	c4.25-0.67,7.67-3.02,11.23-5.18c3.33-2.02,4.68-5.13,5.48-8.66c0.83-3.66-1.24-6.48-4.92-6.39c-5.95,0.15-11.9,0.52-17.85,0.7
	c-3.42,0.1-6.85,0.02-10.52,0.02c0,0.81,0,2.22,0,3.98c-4.3-1.19-6.75-4.48-9.05-7.53c-1.81-2.39-3.26-4.58-6.19-6.01
	c-4.94-2.42-6.04-7.71-7.45-12.48c-1.47-4.98-0.19-9.97,0.84-14.84c0.81-3.83,3.45-4.82,7.21-4.52c7.65,0.62,15.42,1.25,22.43-3.08
	c0.63-0.39,1.57-0.59,1.85-1.14c2.32-4.61,4.52-9.28,6.76-13.94c-0.35-0.24-0.71-0.49-1.06-0.73c-3.9,4.16-7.8,8.32-12,12.79
	c-2.2-4.94-0.48-9.07,1.2-12.93c1.59-3.67,3.97-6.99,6.24-10.87c-9.72-1.6-19.01-1.06-28.03,4.11c0.49-6.59,5.01-10.11,9.06-13.5
	c4.12-3.45,9.04-5.93,13.96-9.05c-0.68-1.04-1.64-2.41-2.51-3.84c-4.44-7.24-7.79-14.74-8.96-23.42
	c-1.32-9.86,0.55-18.79,4.92-27.38c2.06-4.05,5.08-6.56,10.28-6.43c6.53,0.17,12.69,1.66,18.59,3.99
	c7.56,2.99,14.77,6.84,20.32,13.02c2.59,2.89,4.82,6.1,7.58,9.63c1.96-10.93,3.91-21.39,8.81-30.91c0.34,0.02,0.69,0.04,1.03,0.07
	c0.78,3.86,1.56,7.71,2.47,12.21c1.87-3.04,1.41-5.9,1.01-8.39c-1.95-12.12-6.91-23.14-13.43-34.22c4.81,1.44,7.73,4.77,10.99,7.55
	c-2.05-16.45-2.09-32.56,4.29-48.08c-0.63,6.69,3.82,11.45,6.13,17c0.55-9.32,4.2-16.98,10.61-23.66c5.85-6.1,8.9-13.63,9.31-22.16
	c0.03-0.68,0.37-1.35,0.76-2.71c1.22,1.33,2.21,2.19,2.92,3.23c6.88,9.98,12.08,20.69,13.55,32.89c0.61,5.01,1.14,10.03,1.42,15.06
	c0.12,2.09,0.76,3.22,3.24,3.54c-4.41-17.41-2.37-34.19,4.13-51.45c2.39,6.17,4.43,11.45,6.43,16.62c2.1-3.05,3.98-6.46,6.5-9.31
	c4.47-5.05,10.4-7.03,17.1-7.29c9.7-0.38,19.15,1.07,28.63,2.9c9.59,1.85,19.32,3.22,29.12,2.29c4.46-0.42,8.84-1.79,13.25-2.76
	c2.48-0.54,4.94-1.13,7.57-1.74c1.03,4.68-1.41,8.06-3.32,11.55c-3.31,6.05-8.38,10.48-13.77,14.59c-0.38,0.29-0.65,0.72-1.43,1.59
	c3.74-0.1,6.72,0.64,8.68,4.24c-2.74,0.62-5.14,1.17-8.1,1.84c4.5,2.62,8.57,4.77,12.41,7.27c8.39,5.48,16.84,10.9,24.93,16.82
	c5.56,4.06,10.84,8.61,15.7,13.48c5.13,5.14,9.52,11.01,14.4,16.41c3.01,3.33,6.14,6.61,9.54,9.53c6.78,5.83,11.3,13.22,15.71,20.84
	c5.75,9.95,11.98,19.61,17.96,29.43c7.38,12.11,14.69,24.27,22.1,36.36c3.45,5.63,7.18,11.09,10.59,16.74
	c4.92,8.16,9.59,16.48,14.49,24.65c5.85,9.75,11.83,19.43,17.76,29.14c7.45,12.21,14.89,24.44,22.34,36.64
	c4.33,7.09,8.7,14.16,13.05,21.25c1.73,2.82,3.95,5.46,5.02,8.51c1.1,3.15,1.28,6.69,1.49,10.08c0.22,3.77,0,7.57,0.01,11.35
	c0,1.24,0.16,2.48,0.16,3.72c0.01,20.49,0.17,40.98-0.09,61.47c-0.08,6.1,1.37,11.58,3.57,17.14c3,7.59,5.61,15.35,8.18,23.1
	c0.72,2.18,1,4.59,1.05,6.9c0.33,15.94,0.52,31.89,0.8,47.83c0.2,11.45,0.47,22.89,0.75,34.34c0.21,8.45,0.47,16.89,0.75,25.34
	c0.21,6.45,0.47,12.9,0.76,19.34c0.19,4.2,0.85,8.42,0.62,12.59c-0.18,3.26,2.33,4.62,3.76,6.5c6.1,8.02,9.13,17.23,11.33,26.82
	c1.93,8.42,2.17,17.06,1.34,25.53c-0.82,8.35-2.71,16.65-4.82,24.8c-1.73,6.7-4.45,13.15-6.76,19.71c-1.69,4.79-2.68,9.64-2.54,14.8
	c0.41,15.66-3.32,30.44-10.52,44.28c-3.8,7.31-8.6,13.98-14.31,20.01c-8.2,8.67-17.26,16.21-27.57,22.22
	c-11.25,6.56-23.2,11.49-35.84,14.64c-8.35,2.08-16.76,3.77-25.43,3.82c-4.45,0.03-8.94,0.96-13.34,0.6
	c-8.81-0.72-17.59-1.84-26.33-3.2c-5.29-0.82-10.56-2.09-15.67-3.71c-6.61-2.1-13.1-4.62-19.55-7.2
	c-17.01-6.79-32.73-15.99-47.73-26.39c-7.25-5.03-14.02-10.76-20.99-16.2c-11.58-9.05-22.07-19.3-32.09-29.98
	c-6.9-7.35-13.12-15.35-19.59-23.1c-2.9-3.47-5.67-7.06-8.73-10.89c0.99,4.06,1.9,7.78,2.81,11.5c-0.11,0.07-0.22,0.14-0.33,0.22
	c-2.4-3.31-4.79-6.61-7.19-9.92c-0.23,0.08-0.46,0.17-0.69,0.25c0.58,2.99,1.22,5.97,1.72,8.98c0.51,3.02,1.18,6.06,1.25,9.1
	c0.34,13.96,3.75,26.95,12.09,38.3c3.28,4.46,7.21,8.43,11.15,12.98c-6.96-3.78-13.88-6.62-22.12-7.94
	c4.46,10.17,10.88,16.72,21.05,19.07c5.54,1.28,11.07,2.55,16.8,3.86c-6.69,3.27-13.91,4.48-21.69,5.39
	c6.88,4.53,12.42,9.78,14.44,18.85c-3.4-1.55-6.22-2.58-8.78-4.06c-6.63-3.82-13.76-6.15-21.24-7.54c-0.35-0.07-0.73,0.07-1.68,0.17
	c6.61,3.54,13.05,6.59,17.43,13.54c-2.38-0.7-4.1-1.34-5.88-1.71c-7.41-1.55-14.9-2.78-22.24-4.6c-4.01-0.99-7.79-2.93-11.72-4.46
	c3.11,6.13,9.35,9.11,14.56,13.6c-12.15-0.39-23.03-3.15-31.63-12.17c-3.16-3.31-6.63-6.35-10.1-9.34c-0.81-0.7-2.36-1.21-3.34-0.95
	c-8.48,2.24-17.12,2.42-25.78,2.09c-3.41-0.13-6.8-0.89-10.2-1.32c-0.71-0.09-1.43-0.01-2.19-0.01c-0.35,3.4-0.69,6.65-1.03,9.9
	c-0.34,0.06-0.68,0.11-1.02,0.17c-1.08-4.04-2.17-8.09-3.24-12.11c-3.64,1.87-7.51,1.4-12.05,0.33c-0.7,2.84-1.41,5.71-2.16,8.76
	c-2.18-2-2.34-4.81-2.5-7.47c-0.14-2.21-0.26-3.95-2.61-5.21c-1.02-0.54-1.16-2.71-1.84-4.51c-1.61,3.72-3.24,7.46-4.96,11.42
	c-1.83-3.19-1.58-6.4-0.85-9.3c1.6-6.37,3.34-12.75,5.74-18.85c2.53-6.41,5.67-12.6,8.97-18.66c2.34-4.29,6.17-7.56,10.54-9.55
	C388.46,738.56,392.23,738.56,396.48,737.79z M789.26,590.65c0.29-0.31,0.58-0.61,0.87-0.92c-1.23-2.21-2.65-4.34-3.66-6.64
	c-4.32-9.89-8.87-19.66-15.66-28.17c-0.92-1.16-2.2-2.24-3.54-2.81c-5.18-2.17-10.56-2.18-15.94-0.82
	c-7.7,1.95-15.67,3.49-19.84,11.54c-0.04,0.08-0.23,0.09-0.69,0.24c0.41-1.78,0.94-3.36,1.1-4.98c0.42-4.15,1.49-8.45,0.81-12.44
	c-1.11-6.47-4.93-11.98-9.16-16.91c-4.05-4.71-9.25-7.05-15.74-7.67c-8.22-0.78-16.33-0.97-24.25,1.12
	c-8.32,2.19-15.22,6.62-18.75,15.04c-0.4,0.95-1.12,1.77-1.69,2.64c0.14-3.93,0.53-7.69,1.18-11.4c1.36-7.7,2.89-15.36,4.23-23.07
	c0.14-0.8-0.3-2.11-0.92-2.58c-5.16-3.9-10.25-8-16.77-9.48c-2.62-0.59-5.3-0.93-7.95-1.38c-7.65-1.3-15.29-0.98-22.88,0.43
	c-7.61,1.42-14.03,5.58-20.61,9.32c-8.38,4.76-16.64,9.74-25.16,14.25c-5.06,2.67-10.45,4.77-15.8,6.85
	c-13.49,5.24-27.5,7.26-41.96,6.8c-4.46-0.14-8.87,0.02-13.46-2.81c0,1.89-0.39,3.36,0.07,4.49c2.35,5.77,4.92,11.45,7.4,17.16
	c0.68,1.56,1.79,2.36,3.46,2.89c3.95,1.24,7.98,2.41,11.65,4.27c15.02,7.6,27.12,18.85,37.63,31.76
	c5.16,6.34,9.52,13.33,11.93,21.33c0.45,1.49,0.96,2.73-0.69,3.95c-0.64-0.73-1.21-1.36-1.77-2.01c-1.32-1.55-2.51-3.24-3.98-4.64
	c-3.35-3.18-7.6-3.22-11.83-2.97c-7.28,0.43-13.55,3.17-18.57,8.52c-1.31,1.39-2.03,2.88-0.96,4.96c1.49,2.91,2.56,6.02,3.89,9.02
	c6.84,15.46,14.51,30.47,24.58,44.46c6.78-2.72,13.7-1.88,20.49-0.82c6.49,1.01,12.9,2.69,19.27,4.35
	c9.06,2.36,17.63,5.9,25.01,11.82c1.59,1.28,3.04,2.81,2.55,5.52c-14.74-5.83-27.03-2.73-37.63,9.38c3.73,2.79,6.96,5.45,10.42,7.75
	c7.24,4.81,14.39,9.79,21.97,14.01c5.93,3.31,11.7,7.12,19.52,5.7c5.47-0.99,11.35,0.26,17.05,0.51c7.41,0.32,14.5,2.22,21.46,4.59
	c1.99,0.68,3.79,1.92,5.68,2.9c-0.05,0.25-0.1,0.5-0.15,0.75c-5.29-0.12-10.65-0.47-15.11,3.81c2.79,0.26,5.38,0.34,7.9,0.77
	c8.79,1.51,17.66,1.17,26.29-0.27c13.09-2.19,25.66-6.36,36.19-14.88c6.48-5.25,12.61-10.78,11.24-20.7
	c-0.85-6.12-3.14-10.74-8.55-11.83c-7.44-1.49-14.99-2.87-22.54-3.23c-11.51-0.55-23.09,0.28-34.55-1.63
	c-12.93-2.15-24.27-7.07-32.78-17.63c-6.5-8.06-9.43-17.34-10.32-27.37c-0.42-4.71-0.21-9.49-0.03-14.23
	c0.16-4.14,1.15-8.14,3.4-12.5c0.75,1.91,1.68,3.2,1.71,4.52c0.14,7.02,3.17,13.06,6.36,18.99c4.19,7.79,10.32,13.8,18.29,17.65
	c8.9,4.29,18.54,4.91,28.19,4.24c8.82-0.61,17.59-1.92,26.39-2.9c3.62-0.4,7.26-0.74,10.88-1.11c-7.94-0.9-15.91-1.4-23.88-1.52
	c-6.46-0.1-12.93,0.33-19.4,0.32c-1.81,0-3.61-0.75-5.41-1.16c4.42-3.89,9.93-3.64,15.3-5.81c-9.23-1.57-18.06-1.88-25.52-8.48
	c2.98-1.49,5.45-2.96,8.1-4c5.42-2.13,11.11-2.99,16.93-2.98c1.25,0,2.58,0.25,3.73-0.09c6.07-1.78,12.06,0.1,18.01,0.57
	c4.98,0.4,9.84,2.19,14.34,3.26c-2.6-4.67-5.51-9.87-8.41-15.08c0.29-0.27,0.58-0.54,0.87-0.82c6.38,4.58,12.54,9.5,19.19,13.66
	c6.77,4.24,13.65,8.25,19.37,14.07c0.42-0.65,0.94-1.1,1.02-1.62c0.81-5.37,1.29-10.92-0.25-16.06c-1.85-6.15-4.34-12.23-7.42-17.87
	c-4.8-8.81-10.25-17.27-13.91-26.66c-3.1-7.93-5.64-15.96-5.24-24.64c0.14-3.11,0.02-6.24,0.02-9.35
	c5.43,7.05,9.09,15.37,15.92,21.04C774.57,580.58,782.06,585.44,789.26,590.65z M535.89,78.09c-0.25-0.05-0.5-0.1-0.75-0.15
	c-0.14,0.58-0.4,1.17-0.38,1.75c0.06,1.59,0.47,3.19,0.32,4.75c-0.63,6.6-1.9,13.18-2.05,19.78c-0.44,19.35,0.93,38.77-2.39,57.98
	c-1.16,6.72-2.66,13.4-4.42,19.99c-3.13,11.69-8.51,22.33-15.68,32.1c-5.68,7.74-12.3,14.48-20.23,19.89
	c-4.06,2.77-8.22,5.39-12.65,8.27c1.86,0.45,3.44,0.82,5.55,1.33c-7.63,5.16-16.23,5.56-24.2,7.82c3.09,1.04,4,2.42,3.42,6.01
	c-0.55,3.37-1.32,6.7-2.11,10.02c-0.71,3-1.56,5.97-2.44,9.27c6.96-3.42,13.74-5.77,21.47-7.12c-1.51,2.54-2.66,4.54-3.88,6.51
	c-3.8,6.13-7.67,12.21-11.37,18.4c-0.53,0.88-0.78,2.56-0.3,3.31c5.73,9.03,7.87,18.93,7.7,29.48c-0.02,1.03,0.2,2.31,0.81,3.06
	c2.52,3.1,5.24,6.04,7.95,9.11c0.33-0.84,0.69-1.62,0.94-2.44c3.37-10.82,6.7-21.66,10.08-32.47c4-12.79,8.06-25.56,12.06-38.36
	c4.77-15.24,9.48-30.5,14.26-45.74c4.49-14.31,9.07-28.59,13.58-42.89c3.63-11.51,7.24-23.04,10.79-34.57
	c0.42-1.37,0.93-3.02,0.56-4.29c-3.34-11.4-3.77-23.22-5.03-34.91C536.59,95.4,536.4,86.73,535.89,78.09z M456.69,120.32
	c7.36-8.18,13.41-16.82,17.57-26.73c-1.66,1.48-3.06,3.16-4.52,4.77c-2.91,3.2-5.79,6.42-8.79,9.53
	C457.69,111.28,456.24,115.24,456.69,120.32z M462.84,94.92c3.53-1.32,6.85-2.76,10.29-3.78c1.71-0.51,2.21-1.36,2.08-2.89
	c-0.26-2.94-0.57-5.87-0.88-9.03C470.42,84.56,466.77,89.54,462.84,94.92z"/>
</svg>
