<?xml version="1.0" encoding="utf-8"?>
<!-- Generator: Adobe Illustrator 24.1.1, SVG Export Plug-In . SVG Version: 6.00 Build 0)  -->
<svg version="1.1" id="Layer_1" xmlns="http://www.w3.org/2000/svg" xmlns:xlink="http://www.w3.org/1999/xlink" x="0px" y="0px"
	 width="573.03" height="1230.68" viewBox="0 0 573.03 1230.68" style="enable-background:new 0 0 573.03 1230.68;" xml:space="preserve">
<style type="text/css">
	.st0{fill:#1A1A1A;}
</style>
<g>
	<path d="M90.92,240.26c1.26-1.6,3.42-0.79,4.46-2.58c0.99-1.7,0.7-3.39,0.55-5.1c-0.11-1.34,0.03-2.52,0.81-3.64
		c2.48-3.53,4.84-7.21,8.78-9.3c2.55-1.36,3.73-3.34,3.68-6.17c-0.03-1.45-0.09-3.16,1.49-3.75c1.94-0.71,3.31,0.67,4.48,2.02
		c0.51,0.59,0.91,1.3,1.24,2.02c1.6,3.5,2.46,7.14,2.77,11.01c0.33,4.24,0.51,8.6,3.06,12.35c0.42,0.62,0.69,1.47,0.7,2.22
		c0.04,2.52,1.02,4.76,2.52,6.57c2.6,3.13,3.28,6.82,3.88,10.61c0.3,1.89,0.59,3.78,0.97,5.65c0.84,4.09,2.06,8.2,5.01,11.16
		c3.67,3.68,4.71,8.25,5.42,12.94c0.36,2.36,1.25,4.2,2.57,6.02c1.39,1.91,3.54,3.22,4.35,5.59c0.14,0.41,0.6,0.9,0.99,1
		c3.49,0.89,4.18,4.16,5.58,6.7c2.08,3.77,3.82,7.72,6.28,11.27c1.26,1.82,2.3,3.83,4.36,4.99c1.2,0.68,1.63,1.96,1.86,3.22
		c0.51,2.78,1.84,5.06,3.8,7.05c1.2,1.22,1.87,2.8,2.44,4.73c0.51-0.88,0.79-1.38,1.12-1.96c0.81,1.28-0.15,2.84,0.74,4.05
		c1.25,0.05,1.38-1.05,1.78-1.83c2.28-4.41,4.32-8.9,4.54-13.98c0.04-1,0.55-1.79,0.9-2.68c1.42-3.54,2.5-7.18,3.06-10.88
		c-0.92-0.52-0.89,0.25-1.27,0.58c-1.12-0.47,0.07-1.76-0.86-2.39c-0.97-0.58-1.98-0.6-2.92,0.44c-0.85-0.78-0.48-2.21-1.94-2.84
		c-1.86-0.8-3.39-2.35-5.12-3.49c-2.74-1.82-3.94-4.48-4.34-7.61c-0.18-1.42-0.48-2.83-0.65-4.25c-0.62-5.15,4.78-9.38,10.1-7.85
		c0.2,2.38-1.66,3.65-2.89,5.23c-1.21,1.56-2.09,3.2-1.91,5.42c2.52,2.8,6.11,3.69,9.62,4.7c1.18,0.34,2.25-0.13,2.93-1.16
		c2.54-3.88,6.3-6.75,8.6-10.85c2.26-4.04,5.21-7.64,8.34-11c-0.08-1.4-0.09-2.68-0.25-3.94c-0.32-2.51-2.29-4.66-4.85-5.18
		c-3.44-0.7-6.85-1.39-10.14-2.77c-3.12-1.31-6.25-2.39-8.26-5.37c-0.42-0.63-1.14-1.15-1.84-1.49c-2.04-1-3.02-2.68-3.59-4.79
		c-0.76-2.78-2.42-5.18-3.41-7.9c-1.87-5.15-1.81-10.34-1.11-15.59c0.51-3.77,1.49-7.46,0.6-11.32c-0.33-1.42-0.44-3.09-1.49-3.96
		c-2.74-2.28-4.13-5.69-6.94-7.87c-1.82-1.4-2.89-3.31-3.69-5.48c-1.48-4.03-3.2-7.98-4.79-11.98c-1.82-4.59-0.39-9.06,0.7-13.49
		c0.27-1.09,1.32-1.77,2.43-2.16c1.72-0.61,3.15-0.07,3.92,1.64c0.45,1,0.45,2.21,1.49,3.02c2.21-1.44,4.41-2.98,7.95-3.3
		c-2.49,1.85-2.9,4.36-4.3,6.35c-1.67,2.36-1.24,4.92,0.21,7.2c1.81,2.86,4.38,5.07,6.93,7.26c0.87,0.75,1.89,0.98,3.12,0.81
		c11.64-1.64,16.05-8.26,18.44-18.51c0.37-1.6,0.06-3.17-0.79-4.61c-2.25-3.82-3.89-8.07-7.82-10.72c-0.88-0.59-1.53-1.64-2.05-2.61
		c-2.34-4.36-4.91-8.59-6.82-13.19c-0.83-2-1.24-3.9-0.89-6.03c0.45-2.72,0.35-5.4-0.69-8.01c-0.55-1.37-0.4-2.83-0.46-4.27
		c-0.1-2.54,0.37-5.12-0.54-7.61c-0.16-0.43-0.13-0.96-0.06-1.43c1.51-10.12,3.36-20.13,8.98-28.97c1.34-2.11,1.79-2.48,4.84-3.74
		c-0.79-1.36-1.62-2.67-2.34-4.04c-1.46-2.79-1.48-5.49,0.69-7.99c0.62-0.71,1.26-1.4,1.8-2.17c2.89-4.19,6.75-5.05,10.94-2.11
		c2.75,1.93,5.45,3.85,8.97,5.14c0.45-3.17,1.8-5.93,2.28-8.77c0.7-4.17,3.24-6.55,6.51-8.27c2.7-1.43,5.15-3.13,7.66-4.82
		c6.84-4.62,14.2-7.74,22.63-8.29c7.68-0.51,15.29-0.79,22.92,0.43c2.54,0.41,4.99,1.06,7.43,1.8c0.75,0.23,1.53,0.51,2.52-0.09
		c0.74-2.95,0.5-6.1,0.33-9.26c-0.1-1.81-1.11-2.98-2.75-3.54c-2.75-0.93-5.16-2.5-7.68-3.88c-2.35-1.28-3.9-3.19-4.96-5.72
		c1.3-1.68,2.21-3.57,4.36-4.23c4.13-1.26,8.27-2.49,12.58-0.86c4.57,1.73,8.57,4.18,11.14,8.6c1.58,2.73,3.29,5.38,4.52,8.26
		c1.32-0.35,1.08-1.28,1.04-1.98c-0.23-3.39,0.21-6.77,1.12-9.94c1.09-3.8,2.94-7.39,5.7-10.38c0.65-0.7,1.43-1.31,1.94-2.09
		c4.01-6.15,9.7-9.33,16.96-9.98c3.36-0.3,6.7-0.46,10.02,0.13c2.67,0.48,3.61,1.36,3.91,3.47c0.3,2.08-0.37,3.53-2.55,4.63
		c-2.42,1.21-4.97,2.15-7.44,3.25c-1.86,0.83-3.83,1.45-4.65,3.74c-0.44,1.24-1.97,1.56-3.04,2.21c-3.81,2.32-6.04,5.81-7.79,9.78
		c1.49,0.83,2.27-0.25,3.2-0.72c6.65-3.39,13.55-5.22,21.17-4.78c6.2,0.36,12.46-0.11,18.67-0.47c7.28-0.43,13.47,2.07,18.97,6.55
		c1.62,1.32,3.33,2.46,5.1,3.36c0.23,2.53,1.12,5.02-0.73,7.21c2.93,3.23,6.01,5.75,8.27,9.1c2.85,4.22,5.09,8.85,4.98,13.73
		c-0.18,8.04,1.67,16.22-1.31,23.86c0.78,1.35,1.79,2.18,2.05,3.78c3.1,0.16,6.29,1.85,9.29,0.96c3.08-0.91,5.91,1.8,8.63-0.42
		c2.4,5.87-0.15,11.15-5.9,12.79c-1.68,0.48-3.18,1.36-4.94,1.72c-4.19,0.88-8.25,0.02-12.34-0.54c-1.38-0.19-2.75-0.53-4.1-0.79
		c-0.73,1.54,0.48,2.64,0.28,3.89c-0.1,0.61,0.02,1.44,0.65,1.69c3.38,1.3,2.64,4.02,2.1,6.45c-0.41,1.83-0.07,3.39,0.45,5.09
		c2.27,7.34,3.99,14.78,3.8,22.54c-0.11,4.47-0.25,8.94-0.3,13.42c-0.02,2.29-0.57,4.61,0.8,6.84c0.5,0.82,0.23,2.2,0.12,3.31
		c-0.62,6.48-0.54,13.09-3.41,19.17c-0.26,0.55-0.54,1.18-0.05,1.87c2.07-0.08,3.12-2.56,5.48-2.43c0.68,1.43-0.16,2.2-1.21,3.01
		c-3.66,2.83-7.25,5.75-10.9,8.59c-1.03,0.8-2.02,1.55-1.81,3.44c2.61,0.49,5.3-0.33,7.9,0.26c2.53,0.58,5.26-0.93,8.12,0.38
		c-1.04,1.55-2.09,1.06-3.1,0.82c-4.55-1.1-8.85-0.27-13.04,1.6c-1.99,0.89-3.56,2.11-4.04,4.7c2.27-0.44,4.44-0.83,6.64-0.61
		c2.98,0.3,5.96,0.63,8.93,1.21c-2.77,1.3-5.78,0.24-8.62,1.14c-2.73,0.87-5.54,1.43-7.95,3.36c-0.43,9.16-2.59,17.92-6.62,26.19
		c-0.99,2.03-0.74,4.27-0.03,6.03c1.02,2.53,1.01,4.95,0.77,7.48c-0.39,4.14,0.86,7.84,2.73,11.46c2.47,4.78,6.45,8.26,10.14,11.97
		c1.8,1.81,3.7,3.53,5.22,5.57c1.42,1.9,3.24,3.16,5.46,3.65c2.02,0.44,3.48,1.52,4.78,2.97c2.07,2.31,4.43,4.1,7.62,4.61
		c1.28,0.2,2.35,0.93,3.24,1.92c7.2,7.93,14.05,16.07,18.46,26.02c2.01,4.53,3.85,9.1,5.4,13.81c1.24,3.77,2.63,7.43,2.46,11.58
		c-0.11,2.81,0.64,5.68,1.22,8.47c0.24,1.19,0.48,2.55,1.69,3.32c5.87,3.73,10.02,9.28,14.51,14.03c1.83,0.45,2.85-1.1,4.45-0.82
		c1.35,0.24,2.19-1.04,2.96-2.1c1.78-2.48,4.15-4.39,6.25-6.56c4.76-4.89,8.74-10.43,11.68-16.71c-3.49-1.56-6.88-2.97-10.16-4.57
		c-1.26-0.62-2.57-1.49-3.4-2.59c-2.02-2.66-4.21-5.34-5.5-8.36c-1.41-3.31-3.24-6.52-3.9-10.14c-0.11-0.62-0.27-1.36-0.68-1.76
		c-2.77-2.73-2.63-6.7-4.32-9.87c-0.9-1.69,0.59-2.6,1.1-3.53c-0.89-3.28-3.22-5.43-4.22-8.35c-1.35-3.95-2.34-8-2.91-12.07
		c-0.58-4.15-2.12-7.86-3.58-11.69c-1.37-3.59-1.87-7.44-1.59-11.31c0.12-1.76,0.68-2.61,3.28-5.47c0.91,2.31,0.11,5.02,2.24,6.85
		c1.84-0.93,3.63-2.11,6.02-2.06c7.27,0.15,12.33,3.9,15.96,9.71c1,1.6,1.96,3.22,3.07,4.76c0.91,1.27,1.99,2.41,2.3,4.11
		c0.88,4.8,1.71,5.39,6.8,5.21c0.86-1.37,2.02-2.75,2.67-4.33c3.45-8.39,8.78-15.81,12.31-24.15c0.95-2.23,1.73-4.3,1.34-6.83
		c-0.67-4.36,1.22-8.24,3.47-11.68c2.1-3.21,2.83-6.33,1.72-9.83c1.8-1.67,3.45-3.14,5.03-4.69c1.03-1.01,1.99-2.09,3.49-2.39
		c0.83-0.16,1.47-0.44,1.62-1.43c0.31-2.04,2.05-2.61,3.66-3.6c2.97,2.24,5.05,4.85,5.72,8.54c0.31,1.7,0.82,3.44,1.62,4.96
		c2.92,5.51,3.35,11.56,4.02,17.56c0.27,2.43-0.21,4.7-1.42,6.91c-0.8,1.46-1.68,3.15-0.68,4.92c0.41,0,0.87,0.12,0.98-0.02
		c1.96-2.7,3.97-5.36,5.76-8.17c0.75-1.17,0.98-2.64,1.23-4.08c0.54-3.13,1.37-6.2,2.54-9.2c2.35-6.02,6.38-10.18,12.85-12.08
		c0.32-1.49,0.63-3.04,1-4.56c0.35-1.41,1.26-2.15,2.77-2.13c1.34,0.02,1.94,0.84,2.37,1.97c0.62,1.64,0.59,3.46,1.5,5.02
		c0.56,0.96,0.8,2.1,1.35,3.06c2.1,3.66,5.06,3.79,7.32,0.22c0.72-1.14,1.26-2.14,2.96-2.06c1.34,1.82,0.85,3.99,0.69,5.95
		c-0.25,2.98,0.48,5.72,1.49,8.4c0.59,1.57,2.03,2.88,0.72,4.75c-0.19,0.27,0.04,0.94,0.25,1.34c3.65,6.94,3.95,14.64,4.92,22.16
		c0.22,1.67-0.44,3.46-0.76,5.19c-0.55,3.01-0.84,5.86,0.69,8.83c1.17,2.28,0.37,5.04,0.42,7.58c0.03,1.9,0.29,3.83-0.52,5.68
		c-0.51,1.16-0.6,2.51-1.7,3.36c-1.38,1.08-1.97,2.75-1.95,4.24c0.04,2.88-1.51,4.95-3.18,6.76c-3.08,3.31-4.58,7.28-5.5,11.49
		c-0.71,3.24-2.42,5.87-4.32,8.38c-1.29,1.7-2.13,3.29-2.24,5.54c-0.15,3.05-1.46,5.96-3.16,8.43c-3.77,5.49-7.64,10.94-12.82,15.29
		c-1.72,1.45-3.63,2.52-5.48,3.37c-0.41,1.41,0.27,2.4,0.49,3.48c0.19,0.92,0.43,1.94,0.24,2.82c-1.69,7.78-3.14,15.62-5.83,23.15
		c-0.5,1.39-1.04,2.89-2.17,3.66c-2.15,1.46-2.39,3.52-2.78,5.75c-0.39,2.18-0.88,4.46-1.91,6.39c-2.59,4.84-3.89,10.11-5.73,15.2
		c-1.25,3.46-2.66,6.85-3.79,10.35c-1.37,4.25-4.91,6.92-7.43,10.3c-3.23,4.33-7.32,8-10.85,12.12c-4.13,4.8-8.93,8.9-13.64,13.05
		c-2.64,2.32-6.24,3.24-9.79,3.35c-2.69,0.08-5.4-0.23-8.08-0.58c-3-0.4-5.95-1.18-8.96-1.56c-4.66-0.6-8.89-1.8-12.7-4.92
		c-4.45-3.64-10.05-5.52-15.02-8.38c-6.1-3.51-12.54-6.32-18.75-9.58c-2.4-1.26-4.92-2.39-7.11-3.95c-3.77-2.7-7.59-5.29-11.73-7.39
		c-3.08-1.56-5.35-3.86-6.6-7.22c-0.84-2.26-2.43-4.09-4.88-5.45c-1.41,1.66-3.25,3.01-2.35,5.66c0.25,0.72-0.19,1.18-0.56,1.7
		c-2.2,3.13-4.33,6.32-6.6,9.4c-0.96,1.3-1.7,2.7-2.38,4.14c-0.47,1.01-0.64,2.31-1.38,3.02c-2.64,2.53-2.78,5.43-1.98,8.73
		c0.33,1.36,0.14,2.87,0.05,4.31c-0.26,4.16,1.62,7.3,4.4,10.18c3.45,3.58,7.61,6.21,11.47,9.25c4,3.16,8.04,6.4,11.4,10.2
		c3.02,3.41,5.54,7.41,6.65,12.02c0.98,4.07,3.53,7.27,5.81,10.61c2.5,3.67,4.85,7.31,6.02,11.77c0.98,3.72,3.92,6.63,6.78,9.12
		c4.48,3.91,8.1,8.51,11.76,13.1c1.13,1.42,2.46,2.57,4.02,3.34c4.75,2.36,9.07,5.36,13.1,8.75c2.31,1.94,4.97,3.36,7.15,5.53
		c3.87,3.85,6.54,8.66,10.41,12.48c5.34,10.12,11.86,19.62,16.06,30.33c0.87,2.22,1.34,4.6,1.97,6.91c0.54,2,0.93,4.05,1.56,6.02
		c2.31,7.17,3.66,14.47,3.38,22.04c-0.16,4.3,0.14,8.62-0.68,12.89c-0.27,1.42-0.17,2.63,0.52,4.08c1.33,2.81,0.13,5.68-1.15,8.22
		c-0.76,1.51-2.02,3.18-3.48,3.84c-3.85,1.74-5.57,5.21-7.42,8.46c-4.52,7.92-8.33,16.21-9.42,25.39
		c-0.42,3.54-1.89,6.74-2.48,10.21c-1.72,10.05-4.97,19.72-7.8,29.48c-1.77,6.11-4.44,11.97-6.85,17.88
		c-0.78,1.93-1.24,3.87-1.72,5.88c-0.87,3.64-1.62,7.48-4.88,10.12c-0.93,0.75-1.7,2.07-1.92,3.25c-1.12,5.95-4.4,10.94-7.47,15.85
		c-4.15,6.64-7.83,13.52-11.8,20.25c-2.52,4.27-5,8.57-7.94,12.54c-2.2,2.98-4,6.15-5.69,9.39c-5.31,10.2-10.13,20.63-12.52,31.95
		c-1.11,5.27-2.15,10.66-0.78,16.1c0.11,0.43,0.12,0.96-0.03,1.37c-1.24,3.42-0.25,6.6,0.9,9.8c2.65,7.36,6.04,14.36,10.18,21.01
		c1.26,2.03,2.31,4.2,3.42,6.32c1.1,2.13,2.1,4.31,4.04,5.87c0.77,0.62,1.06,1.55,1.41,2.45c3.06,7.88,6.2,15.73,9.24,23.61
		c0.62,1.62,0.93,3.38,1.33,5.08c0.9,3.73,1.99,7.33,4.17,10.6c1.89,2.84,2.62,5.97,1.76,9.58c-1.21,5.06-0.86,5.65,2.15,10.76
		c-0.13,2.01-1.51,3.11-3.1,3.92c-2.04,1.04-2.9,2.57-3.34,4.84c-2.46,12.69-5.15,25.33-7.67,38c-0.4,2.03-1.41,3.52-2.9,4.79
		c-1.68,1.43-2.46,3.27-2.76,5.41c-1.18,8.38-3.15,16.57-5.72,24.64c-1.74,5.47-3.11,11.05-4.05,16.73
		c-0.39,2.39-1.12,4.65-2.51,6.65c-1.49,2.14-2.3,4.57-2.79,7.08c-1.04,5.31-2.3,10.61-2.85,15.98c-0.51,4.9-0.32,9.89,0.04,14.84
		c0.48,6.47,2.43,12.48,5.16,18.29c0.61,1.29,1.09,2.64,1.2,4.11c0.19,2.54,0.64,5.07,0.71,7.61c0.06,2.17,0.54,4.41-1.16,6.41
		c-0.59,0.7-0.34,2.15-0.38,3.26c-0.08,2.26-0.62,4.41-1.29,6.55c-0.81,2.61-2.43,4.01-5.23,3.87c-0.53,5.54-3.15,9.69-8.09,12.35
		c0.77,3.51,3.33,6.79,0.1,10.34c-2.5,0.19-5.38,2.27-8-1.3c-3.98,4.37-9.84,5.94-13.79,10.23c-0.56,0.61-1.33,0.82-2.15,0.9
		c-6.3,0.61-16.54,4.15-21.3,7.63c-1.51,1.11-2.93,1.75-4.8,1.63c-2.55-0.17-5.1,0-7.66-0.29c-5.27-0.6-10.53,0.28-15.81,0.29
		c-0.44,0-1.2,0.19-1.27,0.44c-0.4,1.37-1.46,1.1-2.33,0.97c-8.58-1.26-17.22-0.81-25.83-0.89c-4.45-0.04-8.87,0.1-13.29-1.07
		c-2.88-0.76-6.01-0.67-9.04-0.77c-5.59-0.18-11-2.13-16.66-1.63c-0.46,0.04-0.99-0.05-1.4-0.25c-4.72-2.33-9.62-4.43-13.79-7.65
		c-2.02-1.56-4.48-3.14-4.47-6.39c0-0.85-1.47-1.19-1.66-2.55c1.43-1.32,1.52-3.1,0.82-5.04c-1.32-3.67-0.39-7.41,3.32-11.76
		c1.16-1.35,1.21-2.8,1.27-4.34c0.73-0.43,1.13,0.23,1.85,0.62c1.67-1.77,3.47-3.52,5.06-5.44c1.52-1.84,2.85-3.85,4.22-5.81
		c1.27-1.81,3.51-2.31,5.05-3.95c1.71-1.81,3.63-3.52,5.29-5.38c1.11,0.09,0.37,1.03,1.06,1.62c3.54,0.08,7.35,0.78,11.19-0.28
		c2.05-0.56,4.3-1.15,5.35-2.86c1.05-1.72,2.68-1.52,4.2-2.43c-0.6-2.24-1.89-4.22-3.19-6.13c-1.46-2.14-1.81-4.31-1.14-6.76
		c2.28,0.2,1.24,2.99,3.28,3.42c0.57-1.45-0.13-3.12-0.72-4.19c-1.29-2.33-1.64-4.75-2.11-7.27c-1.59-8.61-3.34-17.2-5.04-25.79
		c-0.44-2.2-0.82-4.45-0.53-6.67c1.32-10.18,0.11-20.35-0.17-30.51c-0.24-8.58-1.54-17.17-4.07-25.44
		c-1.2-3.91-2.11-7.96-4.23-11.55c-1.17-1.98-1.62-4.33-1.63-6.44c-0.03-5.79-2.02-10.95-4.17-16.11
		c-2.45-5.89-4.63-11.87-6.64-17.93c-1.16-3.47-2.81-6.78-4.3-10.13c-0.79-1.76-1.41-3.49-1.42-5.5c-0.02-3.18-1.25-6.07-3.76-7.98
		c-3.66-2.79-5.87-6.67-8.52-10.23c-3.46-4.65-7.49-8.72-12.14-12.15c-2.82-2.09-5.47-4.32-7.78-7c-1.66-1.92-3.63-3.6-5.6-5.22
		c-5.3-4.35-10.72-8.59-15.96-13c-5.96-5-13.01-8.77-17.76-15.19c-3.78-1.99-5.85-5.65-8.59-8.68c-2.12-2.35-4.75-4.24-6.69-6.82
		c-2.18-2.91-4.43-5.76-6.71-8.59c-1.04-1.28-1.7-2.64-1.78-4.31c-0.1-2.09-0.66-4.06-1.67-5.92c-0.43-0.8-0.58-1.61-0.38-2.68
		c0.48-2.49,0.18-5.02-0.45-7.54c-1.89-7.53-1.73-15.13-0.69-22.79c0.34-2.47,0.02-5.09-0.38-7.58c-1.38-8.66-0.87-17.48-2.62-26.14
		c-0.96-4.77-0.51-9.86-0.38-14.79c0.19-7.17,0.93-14.33,0.94-21.5c0.01-8.49,1.56-16.78,2.57-25.14c0.02-0.16,0.07-0.31,0.11-0.47
		c0.45-1.8-1.36-3.21-0.8-5.08c0.5-1.67,2.28-2.59,2.28-4.62c0-2.05,0.57-4.09,0.83-6.14c0.43-3.31,0.8-6.6,1.65-9.85
		c0.58-2.22,0.82-4.52,0.64-7c-0.21-2.86,1.08-5.9,2-8.78c1.6-5.01,2.94-10.08,4.22-15.17c0.53-2.14,1.5-4.17,2.32-6.23
		c0.35-0.89,1.22-1.74,1.2-2.58c-0.13-4.86,2.94-8.64,4.18-13.02c0.78-2.76,1.79-5.48,1.72-8.41c-0.04-1.83,0.8-3.42,1.32-5.07
		c1.1-3.5,2.44-6.92,3.62-10.39c0.56-1.65,1.23-3.24,1.02-5.11c-0.2-1.77,0.88-3.35,1.4-5.02c0.88-2.8,3.07-5.31,1.84-8.63
		c-0.2-0.55,0.47-1.47,0.83-2.17c0.8-1.56,1.74-3.05,2.48-4.64c1.13-2.4,2.8-3.82,5.77-3.41c1.11-3.22,1.99-6.44,3.33-9.46
		c1.17-2.65,1.66-5.82,5-7.17c0.91-0.37,1.36-2.07,1.86-3.22c1.9-4.37,4.98-8.17,6.18-12.87c0.34-1.33,1.18-2.69-0.03-4.07
		c-0.29-0.33-0.55-0.96-0.43-1.34c1.57-5.12-0.89-10.07-0.59-15.12c0.09-1.43-0.16-3.03,0.38-4.26c3.38-7.71,3.42-16.13,5.34-24.14
		c1.47-6.14,4.01-11.67,7.34-17c2.02-3.22,3.43-6.83,5.03-10.31c0.32-0.7,0.42-1.58,0.35-2.36c-0.76-7.84,1.46-15.57,0.81-23.41
		c-0.2-2.38-0.17-4.77-0.77-7.11c-1.03-4.07-1.32-8.15-0.36-12.3c0.28-1.19,0.35-2.52-0.25-3.75c-1.53-0.32-2.3,0.94-3.25,1.67
		c-7.55,5.83-15.68,5.67-23.93,2.03c-5.23-2.31-10.2-5.21-15.33-7.76c-4.93-2.45-8.98-6.06-13.06-9.64
		c-2.04-1.79-4.04-3.63-6.12-5.36c-7.02-5.85-11.42-13.17-12.9-22.26c-0.61-3.76-1.34-7.51-1.9-11.29
		c-0.65-4.39-1.59-8.74-3.22-12.95c-1.18-3.05-2.43-6.09-1.92-9.71c0.31-2.19-0.74-4.71-1.61-6.9c-1.51-3.76-1.66-7.76-2.47-11.63
		c-0.85-4.05-2.49-7.69-5.06-10.76c-1.05,0.3-0.55,1.39-1.62,1.49c0.22-2.53-1.15-4.46-2.36-6.5c-3.4-5.75-7.6-11.04-9.91-17.61
		c-6.45-0.24-12.46-2.67-18.84-2.95c-1.09-0.05-2.43-0.17-3.2-0.81c-4.33-3.57-10.23-4.37-14.29-8.51
		c-1.83-1.86-4.52-2.88-6.52-4.73c-0.77-0.71-1.86-1.28-3.49-0.93c-1.77,2.82-5.14,4.16-8.09,5.89c-1.84,1.07-4.54,0.93-6.84,0.9
		c-4.9-0.06-8.4-2.59-10.76-6.98c-1.68-0.16-3.5-0.04-4.76-1.58c-2.07-2.54-1.95-5.33,0.69-7.56c2.32-1.97,4.55-4,6.38-6.45
		c0.66-0.89,1.53-1.47,2.6-1.97c3.01-1.41,5.88-3.11,9.1-4.86c-2.32-3.34-5.72-3.62-8.52-2.65c-4.14,1.45-8.17,0.87-12.43,0.97
		c-1.29-1.94-2.61-3.83-4.51-5.29c-1.74-1.34-3.36-2.95-3.92-5.38c-2.88,0.55-5.58,0.4-8.25,0.15c-2.53-0.24-3.25-1.81-1.95-4.05
		c1.8-3.13,4.38-5.15,7.86-6.52c4.81-1.89,9.75-3.72,13.76-6.9c0-1.38-0.78-1.52-1.58-1.67c-2.08-0.38-3.26-1.8-4.18-3.57
		c-1.32-2.55-2.61-5.09-5.33-6.6c-1.35-0.75-1.92-2.38-1.33-3.8c1.21-2.86-0.3-5.22-0.5-7.38c-1.47-1.18-2.67-0.48-3.71-0.82
		c-2.14-0.69-2.67-2.91-1-4.46c2.62-2.44,5.58-4.43,9.23-4.69c3.35-0.24,6.59-0.87,9.81-1.69c4.52-1.16,8.86-0.1,13.19,1.07
		c1.54,0.42,3.05,0.92,4.64,1.41c1.02-1.22,1.16-2.28-0.15-3.23c-0.91-0.65-1.9-1.18-2.82-1.82c-3.95-2.76-5.79-6.68-6.09-11.38
		c-0.09-1.43-0.06-2.84,0.84-4.14c0.52-0.76,0.88-1.73,1-2.65c0.16-1.24,0.87-2.47,0.13-3.9c-4.41-3.7-4.41-3.7-2.36-9.54
		c4.5-0.36,8.4,0.91,12.55,3.1c5.55,2.94,10.59,6.34,15.35,10.35c1.58,1.33,3.62,2.02,5.69,2.43c2.16,0.43,3.86,1.56,4.93,3.46
		c0.58,1.02,1.04,1.97,2.44,1.85c1.76-0.15,2.65,1.06,3.2,2.41c1.23,2.99,3.16,5.55,5,8.14c0.98,1.38,1.46,2.69,1.22,4.43
		c-0.33,2.41,0.61,3.84,2.82,3.85C87.31,238.19,88.93,238.88,90.92,240.26z M290.14,892.43c0.87-1.89,0.9-3.29,0.77-4.65
		c-0.46-4.62-0.24-9.23-0.01-13.86c0.13-2.7,0.4-5.56-0.32-8.09c-1.87-6.55-3.24-13.24-5.88-19.6c-2.98-7.19-6.05-14.4-7.77-22.05
		c-0.72-3.19-1.2-6.43-1.81-9.79c-0.68,0.23-1.16,0.3-1.54,0.54c-10.08,6.33-18.67,14.78-29.18,20.51c-0.4,0.22-0.66,0.69-1.04,0.98
		c-3.37,2.62-6.71,5.28-10.14,7.81c-0.77,0.57-1.13,0.98-0.54,2.32c4.21-0.13,8.44,1.05,12.73,1.88c1.89,0.36,3.72,0.7,5.36,1.59
		c5.34,2.91,10.35,6.3,14.68,10.61c0.9,0.9,1.75,1.91,2.79,2.61c6.19,4.16,10.38,10.29,15.41,15.58c0.61,0.64,0.9,1.69,1.1,2.6
		C285.66,885.37,288.35,888.34,290.14,892.43z"/>
	<path class="st0" d="M450.06,568.74c1.43-0.22,2.12,0.81,2.41,1.83c0.36,1.3,0.96,2.33,1.9,3.23c3.63,3.46,6.2,7.66,8.48,12.07
		c0.65,1.25,1.35,2.4,2.38,3.48c2.44,2.57,3.5,6.05,4.99,9.2c2.12,4.46,3.75,9.12,5.15,13.87c0.63,2.13,0.29,4.38,1.08,6.52
		c0.98,2.64,1.14,5.48,2.4,8.14c1.37,2.88,1.41,6.25,1.07,9.41c-0.71,6.48-1.74,12.92-2.64,19.37c1.32,0.35,1.34-0.94,2.3-1.66
		c-0.04,1.21,0.07,2.14-0.29,3.17c-0.6,1.71-0.76,3.4,0.7,4.91c0.86,0.89,0.74,2.02,0.3,3.15c-1.13,2.89-2.79,5.29-6.07,6.94
		c0.24-4.17,3.44-7.17,3-11.1c-1.03-0.54-1.3,0.45-1.78,0.94c-0.21,0.22-0.3,0.56-0.41,0.86c-3.14,8.34-8.47,15.24-14.29,21.82
		c-0.3,0.34-0.45,0.8-0.65,1.17c0.84,1.32,2.22-0.31,3.13,0.74c-0.22,1.41-1.27,2.45-1.83,3.72c-1.06,2.42-2.67,4.8-0.88,7.59
		c0.22,0.34,0.31,1.06,0.1,1.35c-1.52,2.08-1.06,4.58-1.39,6.85c-0.65,4.48-3.04,8.32-4.12,12.64c-1.13,4.56-2.86,8.97-4.41,13.41
		c-0.48,1.4-0.64,2.79-0.58,4.23c-1.12,1.2-2.12,2.43-1.66,4.59c0.76-0.7,1.19-1.1,1.63-1.5c-2.76,10.03-5.56,20.04-11.52,28.49
		c0.25,1.44,2.57-0.15,1.98,1.79c-0.41,1.34-1.11,2.6-1.57,3.62c-1.17,0.86-1.63-0.51-2.5-0.25c-1,0.62-0.71,1.39-0.39,2.38
		c0.53,1.66,0.47,3.09-2.03,2.77c-0.95-0.12-1.23,0.9-1.5,1.61c-1.15,3.09-3.25,5.8-3.53,9.23c-0.09,1.04-1.03,1.55-1.55,2.33
		c-0.53,0.78-1.56,1.53-1.16,2.49c1.07,2.61-0.69,4.18-2,5.81c-1.89,2.35-3.55,4.64-4.16,7.77c-0.37,1.92-1.88,3.63-2.95,5.38
		c-0.22,0.36-0.92,0.44-1.12,0.8c-1.17,2.12-1.78,4.84-3.49,6.3c-2.01,1.73-3.37,3.72-4.74,5.83c-0.59,0.86-1.19,1.71-1.78,2.57
		c-1.01,0.38-1.29,1.37-1.74,2.19c-0.77,1.39-1.23,3-2.17,4.25c-3.64,4.85-6.04,10.43-9.35,15.47c-1.81,2.76-2.95,5.96-4.39,8.98
		c-0.75,1.57-1.4,3.19-2.11,4.77c-1.16,2.58-1.86,5.44-1.58,8.35c0.35,3.66,0.42,7.32,0.26,11.09c0.84,0.9,1.79,1.74,2.51,2.75
		c0.64,0.89,1.03,1.88,0.52,3.11c-1,2.45-0.6,4.97-0.2,7.52c0.23,1.48,1.17,3.07-0.16,4.57c-0.25,0.28-0.28,0.95-0.13,1.34
		c1.5,4.02,2.35,8.53,4.79,11.88c2.19,3.03,3.66,6.58,6.35,9.22c1.97,1.94,2.31,5.28,5.4,6.23c0.1,1.85,1.1,3.46,1.51,5.18
		c0.63,2.63,1.38,4.85,3.37,7c1.97,2.12,2.83,5.33,3.35,8.33c0.41,2.42,1.16,4.74-0.15,7.38c-1.05,2.12,1.1,4.5,1.1,6.91
		c0,0.45,1.25,0.27,1.33,1.42c0.2,2.69,0.94,5.33,1.11,8.02c0.16,2.55,0.2,4.99,1.44,7.39c0.86,1.67,0.56,3.74,0,5.62
		c-0.18,0.59-0.61,1.16,0.29,1.97c2.07-5.09,0.53-10.11,0.15-15.01c-0.37-4.82-1.39-9.59-1.79-14.45
		c4.43,8.88,8.34,17.89,8.27,28.05c-0.01,1.67,0.51,3.03,1.3,4.48c1.46,2.68,1.04,3.83-1.62,5.49c-1.35,0.84-2.78,1.57-4.19,2.29
		c-0.23,0.12-0.6-0.03-0.89-0.05c-1.43-1.32,0.33-3-0.55-4.52c-0.81,1.29,0.09,2.96-1.15,4.03c-0.3,0.26-0.38,1.25-0.46,1.24
		c-2.67-0.38-1.46,3.79-4.05,3.42c-6.72,3.58-13.76,5.8-21.49,5.35c-1.75-0.1-3.49-0.1-5.22-0.56c-2.54-0.67-5.04-0.26-7.46,0.7
		c-4.54,1.8-5.32,1.76-9.97-0.57c-1.09-2.21-2.25-4.46-3.3-6.77c-0.81-1.77-2.01-3.22-3.26-4.68c-1.41-1.64-3.36-2.73-4.1-5.12
		c-0.37-1.2-2-2.25-3.47-3.04c-5.32-2.85-10.52-5.94-15.78-8.9c-2.34-1.31-4.68-2.64-7.27-3.44l0.14,0.16
		c-2.51-3.29-6.29-4.77-9.85-6.29c-3.22-1.38-5.82-3.17-7.76-6c-4.14-6.02-8.31-12.02-11.8-18.45c-2.69-4.96-4.2-10.25-4.44-15.9
		c-0.19-4.58-0.82-9.1-0.47-13.76c0.24-3.15-1.27-6.45-2.1-9.66c-0.28-1.1-1.2-0.7-1.94-0.46c1.15-0.82,1.05-2.27,1.66-3.33
		c0.96-1.63-2.25-3.1-0.07-4.67c0.06-0.04-0.03-0.3-0.05-0.46c-1.73,0.66-2.14-2.71-4.43-1.25c1.19,3.18,3.48,6.06,2.95,9.69
		c1.87,3.3,2.19,6.8,1.49,10.39c-3.59,1.83-3.59,1.83-8.13,0.08c-1.25,2.42-3.22,3.26-5.85,2.28c-1.98-0.74-0.62-2.51-1.11-3.71
		c0,0-0.12,0.08-0.12,0.08c1.66-0.52,3.31-1.03,5.15-1.6c-1.14-0.67-2.4,0.21-3.66-1.1c-0.78-0.53-0.25-2.33-1.49-3.22l0.14,0.08
		c-1.11-5.11-3.35-9.82-5.52-14.6c3.21-2.81,6.58,0.56,10.02-0.75c-3.06-2.25-6.36-1.78-9.06-1.98c-1.1-0.35-1.41-0.96-1.56-1.55
		c-1.4-5.51-5.13-9.42-9.04-13.2c-1.6-1.55-3.03-3.25-4.57-4.84c-3.49-3.61-6.96-7.3-11.37-9.8c-0.7,0.48-0.45,0.94-0.08,1.22
		c5.58,4.26,10,9.69,14.82,14.71c0.99,1.03,1.92,2.13,2.91,3.16c4.19,4.38,4.19,4.38,5.72,10.74c-1.52,1.55-3.71,1.71-5.63,2.17
		c-7.13,1.7-13.17,5.43-18.9,9.76c-0.31,0.24-0.38,0.8-0.56,1.21l0.18-0.15c-0.64-0.1-1.29-0.03-1.74,0.44
		c-1.96,2.03-4.25,3.63-6.55,5.24c-0.3,0.21-0.36,0.78-0.53,1.18l0.18-0.18c-1.06-0.17-1.79,0.41-2.47,1.1
		c-2.66,2.68-5.88,4.81-8.07,7.93c-1.35,1.92-2.98,2.08-4.97,1.56l0.13,0.14c-1.66-2.77-4.85-3.4-7.22-5.18
		c-2.21-1.28-4.41-2.57-6.62-3.85c-1.67-0.97-3.34-1.89-5.38-1.67c-1.38-1.17-2.7-2.54-5.23-1.39c1.78,1.27,3.3,1.85,5.12,1.53
		c0.17,0.42,0.26,1.16,0.52,1.21c3.14,0.72,5.82,2.39,8.55,3.96c1.03,0.59,2.06,0.76,3.14,0.16c-1.76,1.99-1.75,2.1,0.4,3.2
		c0.27,0.14,0.59,0.2,0.88,0.29c0.09,0.34,0.18,0.69,0.27,1.03c1.1,0.91,2.2,1.81,3.15,2.6c-1.5,3-1.57,3.11-3.07,2.16
		c-2.68-1.71-5.29-3.54-7.89-5.39c-1.44-1.03-2.96-1.68-4.71-2.13c-4.81-1.22-9.19-3.45-13.48-5.97
		c-6.56-3.86-13.08-7.83-20.19-10.65c-2.65-1.05-4.81-3.08-7.36-3.5c-0.74-1.5-0.85-2.53-0.2-3.58c1.45,0.13,0.85,2.06,2.11,2.34
		c0.43-0.65,0.91-1.28,1.7-1.33c0.4-0.44,0.25-0.53-0.07-0.77c-0.82-0.61-3.86-4.86-3.79-5.49c0.28-2.61-2.08-3.81-2.67-6.29
		c-1.65,4.81,1.48,8.91,0.44,13.26c-4.22-2-4.99-3.2-4.8-7.19c0.07-1.43,0.13-2.86,0.03-4.28c-0.17-2.4-0.22-2.4,1.77-3.76
		c-2.49-5.12-1.03-9.84,0.66-14.33c1.08-0.78,1.71-0.27,2.47-0.02c2.27,0.76,2.48,0.51,2.72-2.58c-2.39-0.37-2.84-0.29-4.87,0.52
		c-1.36-1.88,0.22-3.2,0.91-4.68c0.67-1.44,1.38-2.85,2.17-4.46c-2.22-3.29-2.64-7.39-4.82-10.75l0.09,0.15
		c-0.34-1.51-0.38-3.17-2.07-3.98l0.15,0.11c-0.27-1.65,0.61-2.33,2.21-2.45c0.75-3.15,0.64-6.41,0.22-9.48
		c-0.71-5.06-0.75-10.06-0.49-15.12c0.15-3.01-0.01-6.08-1.07-8.97c-0.84-2.29-1.08-4.67-1.09-7.06
		c-0.02-7.34-0.02-14.68,0.11-22.02c0.04-2.02,0.54-4.02,0.85-6.24c0.26-0.18-1.07-0.39-0.64,0.09c0.03,0.03-0.2,0.24-0.24,0.39
		c-0.12,0.38-0.31,0.51-0.68,0.34c1.04-4.77,2.3-9.52,3.08-14.35c1.31-8.18,3.45-16.15,5.48-24.15c0.3-1.19,0.57-2.4,0.74-3.61
		c0.93-6.69,3.59-12.74,6.49-18.77c2.44-5.08,4.38-10.4,6.57-15.61c0.32-0.76,0.72-1.59,0.38-2.29c-1.63-3.37,1.01-6.08,1.27-9.14
		c1.6-0.86,1.06-2.08,1.01-3.52c-0.03-0.84-0.86-2.56,0.79-3.33c0.31-0.15,0.56-0.8,0.55-1.22c-0.08-6.2,2.72-11.69,4.18-17.51
		c0.42-1.69,0.42-3.5,0.93-5.16c0.48-1.57-0.4-4.1,2.54-4.25c0.6-1.67,1.98-2.94,2.61-4.52c2.07-5.16,5.1-9.91,6.66-15.28
		c0.27-0.94,0.57-1.76,1.33-2.38c1.89-1.56,3.04-3.66,3.98-5.83c1.77-4.08,3.67-8.11,4.87-12.42c0.68-2.48,1.46-4.86,0.42-7.46
		c-0.49-1.22-0.01-2.5,0.47-3.72c0.81-2.04,2.23-3.86,2.06-6.26c-0.06-0.87,0.85-1.27,1.43-1.81c1.32-1.21,2.86-1.97,4.61-2.35
		c-0.4-1.32-0.24-2.25,1.27-2.86c4.43-1.8,8.86-3.61,13.5-4.77c10.53-2.64,21.2-4.53,31.98-5.78c1.58-0.18,3.18-0.12,4.77-0.23
		c1.59-0.11,3.36,0.13,4.72-0.51c3.87-1.82,8.04-0.84,11.98-1.69c2.12,1.21,4.93,0.42,6.75,1.73c2.52,1.81,5.29,1.85,8.04,2.42
		c5.15,1.07,10.28,2.26,15.41,3.44c3.26,0.75,6.55,1.43,9.73,2.45c3.74,1.19,7.53,1.2,11.37,1.16c2.54-0.03,5.09-0.01,7.41-0.01
		c0.95,1.5,1.35,2.86,0.95,4c-1.01,2.85,0.82,4.59,2.36,6.23c1.98,2.09,2,2.01,2.46,2.85c2.16,3.95,2.74,8.49,5.07,12.43
		c1.77,3,1.66,6.72,1.93,10.19c0.46,6.02,0.27,12.06,1.09,18.07c0.42,3.14-0.32,6.38-0.23,9.49c0.2,6.58-3.39,12.53-2.63,19.09
		c-2.09,6.31-3.6,12.86-7.6,18.39c-0.72,1-1.65,1.9-1.85,3.64c2.76-0.4,2.97-4.37,5.84-3.74c0.08-1.03-1.23-0.64-1.02-1.54
		c2.21-1.02,4.41-1.34,7.03-1.06c2.39,0.25,4.77-0.26,7.35,0.47c2.46,0.7,5.37,0.11,8.03-0.29c3.2-0.48,6.4-0.51,9.56-0.24
		c9.23,0.78,18.5,0.27,27.72,1.01c1.91,0.15,3.61-1.45,5.54-0.42c0.4-2.04,2.53-1.07,3.49-2.03c0.38-0.38,0.35-1.17,0.5-1.78
		c0,0-0.14,0.15-0.14,0.15c2.52-0.7,3.41-3.03,4.75-4.86c2.76-3.77,4.26-8.17,5.83-12.5c2.61-7.19,4.83-14.5,6.5-21.97
		c1.37-6.13,1.33-12.35,1.16-18.58c-0.22-7.73-2.26-15.09-4.77-22.33c-0.16-0.45-0.23-0.95-0.48-1.35
		c-2.81-4.59-5.44-9.29-8.86-13.5c-3.27-4.02-7.59-6.77-11.58-9.89c-5.02-3.92-10.35-7.44-15.52-11.18
		c-2.42-1.75-4.93-3.46-6.41-6.42c3.05-1.88,6.48-2.01,9.66-2.93c3.08-0.89,6.14-1.3,9.43-0.75c2.28,0.38,4.73-0.27,7.11-0.46
		c1.85-0.14,2.29-2.11,3.66-2.85c1.54,0.05,2.69,1.01,3.99,1.57c1.39,0.61,2.57,1.92,4.41,0.91c0.45-0.25,1.5,0.4,2.17,0.8
		c1.29,0.78,0.26,1.42-0.36,2.26c1.64,1.22,2.21,3.77,5.15,3.36c1.08-0.15,1.75,1.24,2.56,1.99c3.51,3.25,7,6.53,10.51,9.77
		c0.76,0.7,1.4,0.59,1.73-0.47L450.06,568.74z M309.33,770.55c-0.28-0.02-0.74-0.17-0.83-0.05c-1.38,1.88-2.76,3.77-4.04,5.73
		c-0.44,0.68-0.32,1.51,0.26,2.17c-1.08-0.64-1.71-0.07-2.33,0.77c-4.16,5.71-8.69,11.12-13.35,16.42c-0.69,0.79-1.7,1.57-0.78,2.83
		c-1.84-0.74-2.53,0.89-3.46,1.81c-8.12,8.09-16.82,15.47-26.19,22.09c-3.56,2.52-7.14,5.11-10.07,8.43l0.18-0.18
		c-4.37,0.92-7,4.74-10.81,6.22c0,0.93,0,1.54,0,2.49c-2.19,0.02-4.22,0.31-5.35,2.81c-0.81,1.79-3.05,2.29-4.84,2.78
		c-2.32,0.64-4.56,1.41-6.71,2.46c-1.04,0.5-2.12,0.67-3.24,0.7c0.34-0.53,0.58-1.19,1.05-1.56c5.16-4.08,9.49-8.98,13.92-13.79
		c1.63-1.77,2.48-3.99,4.16-5.77c6.93-7.33,13-15.33,17.72-24.29c0.5-0.95,1.03-1.81,0.25-2.87c-1.83,1.03-2.44,2.74-3.37,4.21
		c-1.87,2.96-3.68,5.97-5.61,8.88c-4.42,6.65-10.24,12.19-14.93,18.64c-3.01,4.14-6.89,7.53-10.54,11.1
		c-1.25,1.22-2.69,2.31-3.34,4.01c-0.23,0.61-0.03,1.25,0.81,1.37c0.2,0.75,0.77,0.94,1.44,0.88c1.91-0.17,3.81-0.51,5.72-0.51
		c4.33-0.01,8.68-2.31,12.86,0.2c-0.15,0.17-0.43,0.5-0.89,1.03c3.76,2.47,8.08,3.06,12.25,3.45c3.49,0.33,6.42,1.48,9.32,3.18
		c3.46,2.03,5.72,5.59,9.42,7.3c0.24,0.11,0.4,0.48,0.53,0.77c1.87,4.08,5.67,6.33,8.88,9.05c2.6,2.21,3.9,5.36,6.42,7.55
		c0.2,0.18,0.36,0.64,0.28,0.88c-1.02,3.02,1.29,5.01,2.03,7.51c1.22-0.48,2.12-0.56,2.39,0.77c0.29,1.48,0.01,3.2,2.03,4.23
		c0.96-5.07-0.13-9.96,0.05-14.82c0.19-4.98,0.33-9.97,0.52-15.64c3,3.58,3.15,7.64,4.99,10.84c0.73,0.35,1.13-0.46,1.97-0.42
		c0.78,1.2,1.55,2.57,2.5,3.8c0.66,0.85,1.56,1.04,2.48-0.28c-1.18-1.93-2.19-4.14-3.7-5.93c-2.83-3.34-4.77-7.2-6.32-11.16
		c-3.49-8.89-6.9-17.84-9.74-26.95c-2.39-7.68-4.99-15.46-3.07-23.83c0.41-1.77,0.87-3.25,1.98-4.65c1.88-2.38,4.35-4.24,5.89-6.9
		c1.52-1.6,3.04-3.19,4.55-4.8c4.44-4.7,8.28-9.88,11.95-15.19c1.51-2.64,3.86-4.78,4.57-7.89c0.95-1.26,2.11-2.43,2.06-5.27
		C310.26,767.58,308.45,768.52,309.33,770.55z M371.42,923.83c0.58,3.2,1.89,6.07,3.84,8.67c-0.26,1.09-0.44,2.18-0.06,3.29
		c2.89,8.37,3.07,17.19,3.82,25.84c0.75,8.69,0.65,17.51-0.74,26.23c-0.55,3.44-0.58,6.92,0.03,10.46c0.88-0.44,0.92-1.05,0.92-1.67
		c-0.04-5.74,1.23-11.38,1.48-17.08c0.25-5.71,0.59-11.45-0.32-17.17c-0.62-3.91-1.36-7.93-1.06-11.82
		c0.31-3.94-0.4-7.58-1.47-11.18c-0.69-2.32-0.73-4.99-2.71-6.83c-0.11-3.92-1.16-6.27-3.85-8.65c0.05-0.61,0.29-1.27,0.12-1.81
		c-1.56-4.97-4.89-8.46-9.4-10.91c-2.15-4.41-1.75-9.21-1.61-13.81c0.1-3.31,0.55-6.65,0.61-9.99c0.16-9.57-0.65-19.06-1.82-28.56
		c-0.58-4.68-1.32-9.64,3.56-12.95c0.36-0.25,0.48-0.83,0.79-1.19c4.02-4.77,6.7-10.42,10.19-15.54c1.14-1.67,2.59-3.54,2.14-6.75
		c-2.38,3.61-4.58,6.49-6.28,9.64c-3.05,5.62-6.87,10.67-10.78,15.68c-1.4,1.8-2.33,3.82-1.63,6.19c0.55,1.86,0.53,3.77,0.67,5.68
		c0.39,5.4,0.76,10.81,1.43,16.18c0.9,7.18,0.81,14.34-0.63,21.39c-0.98,4.82-0.4,9.34,0.86,13.89c1.07,0,1.86,0,2.66,0
		c-0.76,1.71-0.32,2.99,1.36,3.84c2.31,1.16,4.05,2.78,5.03,5.3C369.12,921.61,370,922.99,371.42,923.83z M176.84,901.91
		c4.08,0.69,7.38,3.15,10.98,4.9c2.82,1.37,6.03,2.78,8.87,2.98c-5.01-3.37-9.98-5.86-14.99-8.24c-2.25-1.07-4.38-2.66-7.07-2.65
		c-0.81,0.08-1.13,0.68-0.92,1.3c0.56,1.63,1.73,2.67,3.64,3.48C177.1,902.79,176.97,902.35,176.84,901.91z M321.4,741.32
		c0.31-0.54,0.72-1.04,0.92-1.62c3.05-8.86,5.71-17.83,7.81-26.96c0.6-2.63,1.4-5.22,1.98-7.85c0.27-1.23,0.01-2.6,0.41-3.76
		c0.42-1.23,1.33-2.29,2.03-3.43c-2.7,1.37-5.14,2.91-7,5.21c0.43,0.9,1.69,1.18,1.55,2.34c-0.34,2.83,0.12,5.69-0.69,8.53
		c-1.67,5.79-3.17,11.64-4.61,17.49c-0.83,3.37-2.38,6.59-2.26,10.18c-1.08,0.4-1.07,1.47-1.39,2.32
		c-1.73,4.57-2.84,9.38-5.12,13.75c-0.23,0.43-0.42,1.12,0.69,1.6c1.82-4.38,3.65-8.73,5.45-13.1
		C321.77,744.48,321.72,742.9,321.4,741.32z M280.27,746.29c1.37-2.14,2.81-4.23,4.09-6.42c2.05-3.5,4.59-6.84,3.45-11.39
		c-0.29-1.15,0.05-2.58,0.46-3.75c0.74-2.09,1.8-4.06,2.66-6.11c2.64-6.31,5.23-12.62,6.81-19.34c1.71-7.27,3.62-14.49,5.32-21.77
		c1.03-4.41,1.51-8.76,1.17-13.27c-0.68-8.89-1.83-17.72-3.3-26.51c-1.15-6.9-2.41-13.78-4.99-20.34c-0.69-1.75-1.05-3.69-1.25-5.57
		c-0.79-7.56-3.57-14.47-6.78-21.25c-0.21-0.45-0.54-0.74-1.08-0.71c0.2-3.9-1.5-7.15-3.34-10.43c-0.97,0.62-1.23,1.76-0.93,2.18
		c1.82,2.54,1.53,6.2,4.37,8.17c0.04,3.11,1.3,5.97,2.47,8.66c1.68,3.85,2.72,7.78,3.44,11.86c0.44,2.51,0.74,5.08,1.52,7.48
		c3.22,9.87,4.4,20.13,6.21,30.28c0.73,4.08,0.83,8.22,1.37,12.32c0.59,4.52,1.19,9.21-0.26,13.78c-2.17,6.82-3.11,13.94-4.82,20.88
		c-2.35,9.51-6.05,18.44-9.57,27.47c-0.9,2.31-1.81,4.51-1.37,6.85c0.55,2.93-0.26,5.3-1.96,7.54c-0.58,0.76-1.15,1.52-1.69,2.3
		c-1.48,2.16-2.41,4.48-1.87,7.18c-0.51-0.14-0.9,0.03-1.19,0.46c-2.78,4.09-4.73,8.6-6.55,13.16c-0.15,0.37-0.1,0.88,0.52,1.2
		c0.93-1.82,2.07-3.56,2.73-5.48C277.07,752.45,279.6,749.79,280.27,746.29z M407.87,718.29c-1.46,1.93-1.16,3.27-1.07,4.48
		c0.69,9.66-1.02,19.1-2.99,28.42c-2.03,9.61-5.03,19-7.48,28.52c-1.48,5.73-4.1,11.01-6.21,16.49c-0.51,1.31-0.59,2.76-1.57,3.94
		c-3.3,3.96-4.73,8.98-7.42,13.3c-0.09,0.14,0.19,0.51,0.35,0.87c1.37-0.37,1.97-1.54,2.54-2.61c3.11-5.9,6.61-11.64,9.12-17.79
		c3.01-7.35,5.3-15,7.63-22.61c1.07-3.48,1.45-7.16,2.19-10.74c1.51-7.3,3.26-14.55,4.51-21.89
		C408.58,732.23,408.1,725.69,407.87,718.29z M304.26,908.41c-0.8-2.67,1.04-5.13,0.31-7.63c-0.73-2.51-0.08-5.38-2.11-8
		c-0.31,5.2,0.71,9.97,0.77,14.78C303.24,907.86,303.9,908.13,304.26,908.41z M235.46,857.58c3.21,2.64,6.73,4.64,10.9,5.29
		C243.16,860.21,239.33,858.84,235.46,857.58z M219.26,852.16c2.88,2.59,3.99,2.89,7.09,1.96
		C223.69,853.52,221.48,852.98,219.26,852.16z M160.82,821.66c-0.16-2.34,0.62-4.69-0.32-7.99
		C160.01,817,160.44,819.33,160.82,821.66z M281.55,579.64c1.26-3.37,1.26-3.37-0.3-5.4C280.9,575.83,281.17,577.34,281.55,579.64z
		 M346.33,911.78c1.91,0.81,3.84,0.56,5.77,0.16C350.19,911.14,348.26,911.37,346.33,911.78z M217.38,596.35
		c-0.03-0.02-0.06-0.05-0.1-0.07c0,1.23,0,2.47,0,3.7c0.03,0,0.06,0,0.1,0C217.38,598.77,217.38,597.56,217.38,596.35z
		 M164.4,822.35c-0.34,2.49-0.96,4.05,0.36,5.91C165.44,826.29,165.06,824.79,164.4,822.35z M379.45,898.41
		c-0.5,1.5-0.44,2.63,1.27,3.59C380.81,900.45,380.17,899.51,379.45,898.41z M165.53,845.06c-0.23,0.26-0.38,0.36-0.42,0.49
		c-0.2,0.79-0.01,1.54,0.61,2.04c0.34,0.27,0.91,0.17,1.11-0.33c0.31-0.8,0-1.47-0.61-2.01
		C166.12,845.17,165.93,845.17,165.53,845.06z"/>
	<path class="st0" d="M302.19,33.07c-0.02-0.47,0.12-1.01-0.07-1.38c-2.17-4.24-1.2-8.35,0.57-12.35c2.85-6.42,5.44-9.24,9.56-12.43
		c2.98-2.31,6.14-4.38,10.34-3.93c2.01,0.21,3.35,0.89,4,2.75c0.63,1.8,0.22,3.49-1,4.88c-0.61,0.7-1.59,1.06-2.33,1.66
		c-4.35,3.51-8.84,6.91-10.54,12.64c-0.4,1.36-1.91,2.2-1.77,4.07c3.21-0.24,6.34-1.18,8.92-2.85c3.18-2.06,6.64-2.15,10.01-2.29
		c2.52-0.1,5.09-0.3,7.59-0.18c2.96,0.14,5.94,0.4,8.91,0.5c0.79,0.03,1.61,0.11,2.36-0.08c3.89-1,7.69-0.48,11.62-0.01
		c2.89,0.34,5.55,0.04,7.3,2.96c0.64,1.06,2.57,0.36,3.18,1.8c-0.26,0.12-0.53,0.34-0.78,0.34c-1.15-0.01-2.3-0.08-2.58,1.45
		c-0.12,0.63,1.1,3.21,1.73,3.59c2.05,1.23,4,2.69,6.18,3.63c2.99,1.3,5.01,3.22,5.33,6.28c1.1,0.62,1.18-0.65,1.98-0.39
		c4.97,4.52,7.11,10.61,8.59,17.01c0.21,0.9,0.09,1.92-0.1,2.84c-0.77,3.66-1.91,7.22-0.54,11.06c0.43,1.2-0.23,2.78-0.39,4.15
		c-2.64,0.47-2.64,0.47-7.46,6.88c1.36,2.4,4.03,3.34,6.28,3.73c3.09,0.55,6.03,1.87,9.22,1.85c2.25-0.02,4.04,0.86,5.06,2.97
		c0.45,0.93,1.29,1.11,2.35,1.16c-0.35,0.43-0.74,0.74-0.91,1.14c-0.94,2.21-1.89,4.41-4.41,5.25c-3.51,1.17-7.08,2-10.79,0.93
		c-3.06-0.88-6.11-1.77-9.18-2.61c-2.21-0.61-3.64-2.3-5.3-3.68c-1.55-1.29-2.74-3.07-4.72-3.63c-1.01,0.26-1.27,1.08-1.7,1.71
		c-0.44,0.64-0.74,1.37-1.27,2.4c2.29,0.52,3.51,2.59,5.79,2.68c1.37,2.3,3.7,3.68,5.44,5.61c0.44,0.49,0.42,1.17,0.07,1.79
		c-0.84,1.48,0.01,2.8,0.46,4.13c0.51,1.5,0.57,1.47,3.27,2.15c1.48,3.45,2.94,6.9,3.79,10.64c0.54,2.39,0.5,4.74,0.7,7.11
		c0.12,1.41-0.36,3.04,0.54,4.2c2.25,2.89,1.51,6.08,1.47,9.31c-0.07,6.1-1.16,12.06-2.06,18.05c-0.41,2.73-1.3,5.03-3.35,7.16
		c-2.02,2.1-3.47,4.77-2.72,8.18c0.63,2.87-0.6,5.63-1.54,8.36c-0.64,1.85-2.27,3.72-0.39,5.77c-0.44,2.65-0.82,5.31-1.36,7.94
		c-0.1,0.51-0.61,1.07-1.33,1.25c-6.8,1.7-9.42,7.5-12.49,12.84c-0.32,0.55-0.56,1.16-0.76,1.76c-0.81,2.32-2.01,4.16-4.32,5.44
		c-2.14,1.18-2.76,3.78-3.68,5.91c-0.63,1.45-0.89,3.04-1.67,3.9c-0.92,0.86-1.53,0.53-2.15,0.52c-3.19-0.07-4.28-1.38-3.31-4.19
		c0.25-0.73,0.89-1.33,1.2-2.05c0.21-0.49-0.21-0.86-0.8-1.14c-0.7-0.17-0.9,0.51-1.17,1.05c-0.88,1.76-2.41,2.03-4.07,1.57
		c-1.61-0.44-2.15-1.75-2.13-3.34c0.02-1.43,0-2.86,0-4.09c-2.49-1.81-2.49-1.81-5.36-7.37c-1.09,0.56-0.61,1.59-0.73,2.39
		c-0.42,2.72-0.94,3.23-3.62,3.3c-0.62,0.02-1.24-0.14-2.02-0.24c-1.22-2.21-2.56-4.34-3.62-6.61c-1.07-2.29-1.86-4.7-2.75-6.99
		c-4.52-0.11-4.55-0.1-6.34-4.25c-1.58-3.66-3.15-7.32-4.61-11.03c-0.68-1.72-1.63-3.08-3.4-3.74c-3.5-1.3-5.49-4.06-7.31-7.15
		c-2.5-4.25-4.03-9.04-7.38-13.19c-3.77,1.04-5.83-1.4-7.92-4.25c-3.51-4.78-6.44-9.89-9.45-14.97c-0.57-0.95-0.91-2.04-1.38-3.05
		c-1.15-2.45-1.3-4.76,0.27-7.19c0.72-1.11,1.7-2.43,0.84-4.17c-1.36,0.11-0.46,3.27-2.9,1.9c0.03,0.04-0.33-0.17-0.34-0.4
		c-0.08-3.19-0.12-6.39-0.14-9.58c0-0.63-0.14-1.56,0.21-1.86c2.29-1.96,2.17-5.14,4.11-8.07c0.53,4.03-0.95,7.19-1.07,10.41
		c1.39,0.59,2.1-0.24,2.23-1.16c0.5-3.56,1.81-7.03,1.1-10.72c-0.45-2.34,1.51-4.15,1.31-6.47c-1.21-0.48-2.66-1.11-3.2-2.58
		c-1.21-3.28-4.05-5.02-6.4-7.24c-1.72-1.62-3.97-2.21-6.11-2.23c-2.96-0.02-5.64-0.86-8.31-1.8c-6.48-2.3-13.09-3.8-19.95-4.44
		c-5.61-0.52-10.66-3.2-15.94-5c-1.02-0.35-1.08-1.49-1.56-2.29c-0.94,1.98-3.66,2.42-3.97,0.64c-0.5-2.84-2.84-3.07-4.37-4.45
		c-0.46-0.42-0.92-0.85-1.53-1.41c0.56-1.49,0.89-3.08,1.7-4.36c1.31-2.05,2.04-4.21,2.45-6.58c0.52-3.02,2.51-4.83,5.3-5.86
		c-0.59,1.46,0.38,1.84,1.47,2.14c3.59-1.85,7.19-3.71,10.81-5.58c-0.75-1.02-1.97-0.45-2.98-1.25c4.44-1.37,8.35-3.3,12.38-4.86
		c5.71-2.21,11.69-3.63,17.95-2.39c-1.71,0-3.43,0-5.58,0c1.15,1,2.11,0.77,2.88,0.71c5.62-0.45,10.79,1.31,15.71,3.56
		c2.84,1.31,6.02,1.39,8.7,3.02c0.58,0.35,1.21,0.2,1.76-0.25c1.15-0.95,2.66-0.87,4.05-1.32c0.71-1.37-0.24-2.78,0.05-4.23
		c-0.4-0.25-0.76-0.62-1.18-0.72c-2.33-0.55-3.68-1.73-3.31-4.37c0.13-0.93-0.23-1.91-0.16-2.86c0.25-3.43-1.48-5.76-4.06-7.65
		c-0.77-0.56-1.63-1.01-2.44-1.52c-2.57-1.61-3.92-3.69-2.79-6.83c0.38-1.07,0.21-2.13-0.58-3.12c0.66-0.14,1.33-0.16,1.9-0.42
		c5.01-2.27,9.34-0.61,13.43,2.31c0.91,0.65,1.67,1.49,2.57,2.15c2.88,2.13,3.73,5.06,3.68,8.49c-0.03,1.71,0.32,3.42,0.48,4.98
		c1.43,1.11,2.15-0.33,3.14-0.51c-0.01,2.16-1.44,4.28-0.37,6.92c1.8-1.53,2.04-3.86,3.21-4.78
		C301.59,37.31,301.88,35.3,302.19,33.07z M380.39,84.52c-0.6-0.1-1.2-0.19-1.91-0.31c0.41,1.5-1.7,2.81-0.15,4.37
		c1.08-1.25-0.21-3.64,2.16-4.12c-0.52,3.25,0,6.5,0.02,9.74C380.6,90.97,381.52,87.73,380.39,84.52z M293.9,80.62
		c-0.14,3.73-0.26,6.6-0.36,9.47c-0.02,0.47,0.08,0.95,0.12,1.43c0.11,1.67,1.27,2.9,1.84,4.37c0.17,0.44,0.27,0.93,0.26,1.4
		c-0.02,2.13,0.96,3.49,2.88,4.43c0.8,0.39,1.25,1.43,1.95,2.07c0.63,0.58,1.24,1.61,2.34,0.64
		C297.35,98.35,295.8,94.35,293.9,80.62z M332,112.78c5.69,0.89,19.03-0.37,18.87-1.68c-1.51-0.08-1.33-1.34-1.74-2.85
		c-1.73,3.26-4.51,3.47-7.48,3.6c-2.53,0.11-5.05,0.31-7.57-0.03C333.37,111.71,332.88,111.9,332,112.78z M348.62,60.37
		c3.91,2.64,6.5,6.46,9.6,10.43c0.55-2.41-1.23-3.31-1.47-4.78c1.4-1.33,1.79-2.59-0.24-3.78c-0.25,0.76-0.48,1.48-0.78,2.41
		C353.35,63.13,351.69,60.66,348.62,60.37z M351.25,219.19c0.65-3.03,2.98-5.53,1.52-9.09c-2.47,4.26-2.39,8.61-2.24,12.96
		c1.13,0.39,1.37-1.41,2.39-0.97c0.87,0.37,1.08,0,1.17-0.7c0.11-0.82-0.36-1.14-1.1-1.13C352.32,220.25,351.8,219.97,351.25,219.19
		z M255.61,58.19c-3.05-2.86-4.4-3.02-8.94-1.43C249.49,57.1,252.04,58.5,255.61,58.19z M240.65,49.91
		c3.89,0.76,6.74-1.81,9.34,0.56c0.71-1.4,0.49-2.27-0.78-2.3C246.57,48.11,243.96,48.43,240.65,49.91z M285.71,84.01
		c0.03,2.51,0.03,2.51,2.98,4.79C287.94,87.01,287.48,85.24,285.71,84.01z M285.71,97.19c2.08,0.55,2.75-1.13,3.58-2.29
		c0.76-1.06,0.02-1.63-1.14-1.84C287.36,94.39,286.57,95.73,285.71,97.19z M284.67,79.03c0.41-1.98-0.17-3.46-2.05-4.3
		C283.3,76.17,283.98,77.6,284.67,79.03z M280.96,67.34c-0.11-1.99-0.21-3.97-0.3-5.61C281.02,63.33,280.23,65.25,280.96,67.34z
		 M283.64,97.31c-0.87,1.58-2.11,2.53-1.31,4.33C283.82,100.52,285.13,99.67,283.64,97.31z M321.42,112.32
		c2.55,0.38,4.07,0.69,6.06-0.22C325.39,111.66,323.87,111.64,321.42,112.32z M373.49,135.27c0.65-1.74,0.73-3.38,0-4.96
		C373.49,131.97,373.49,133.62,373.49,135.27z M218.85,71.83c0.99-1.09,0.43-2.32,0.36-3.29c-0.04,0.31-0.12,0.88-0.18,1.45
		C218.97,70.6,218.92,71.22,218.85,71.83z M281.45,81.01c-0.48,2.44-0.48,2.44,1.44,2.27C282.84,82.47,282.33,81.91,281.45,81.01z"
		/>
	<path class="st0" d="M357.09,436.03c-1.25,0.55-2.11,1.57-2.5,2.76c-0.39,1.19-2.07,0.62-2.22,2.15c-0.13,1.33-1.79,1.81-2.61,1.3
		c-1.7-1.03-4.12-0.9-5.18-2.95c-1.25-2.4-3.71-3.44-5.56-5.17c-0.23-0.22-0.58-0.57-0.77-0.51c-3.93,1.1-7.25-1.52-11.04-1.81
		c-7.66-0.59-15.26,0.66-22.93,0.03c-0.76-1.09-1.55-2.01-1.28-3.77c0.68-4.39,1.29-8.83,1.07-13.31c-0.02-0.48-0.01-0.96,0-1.44
		c0.24-6.18,0.9-6.69,6.96-6.88c5.59-0.17,11.15-0.42,16.66,0.9c2.55,0.61,5.24,0.86,6.87,3.33c0.86-0.56,1.55-1.19,1.96-2.11
		c-0.13-1.59-2.09-0.34-2.47-1.58c-0.32-1.06-0.84-2.08-1.05-3.16c-0.75-3.75-2.51-7.19-3.22-10.98c-0.29-1.54-0.55-2.64,0.43-3.88
		c0.86-1.09,0.74-2.38,0.59-4.12c-2.13,0.31-4.36,0.94-6.6-1.67c1.01,5.63-1.96,7.71-5.75,9.11c-1.56,0.57-2.62,1.71-3.85,2.73
		c-2.77,2.29-4.94,5.52-8.99,5.96c-0.94,0.1-1.6,0.96-2.12,1.82c-0.68,1.12-1.69,1.86-3.07,2.12c1.89,2.13,2.9,4.15,2.25,7.06
		c-0.62,2.76-0.57,5.71-0.5,8.56c0.1,4.01-0.42,7.87-1.99,11.94c-2.71-1.8-5.45-0.79-8.24-0.45c-5.51,0.68-11.04,1.13-16.58,1.58
		c-0.91,0.07-1.93-0.19-2.76-0.6c-1.07-0.53-2.06-0.72-3.21-0.41c-2.06,0.56-3.68-0.2-4.77-1.94c-2.65,0.44-3.7,2.56-5.12,4.1
		c-5.73,1.54-11.7,2.01-16.99,4.91c-1.09,0.6-2.44,0.95-3.67,0.99c-4.07,0.1-7.75,1.63-11.58,2.7c-2.35,0.66-4.43,1.61-6.31,3.06
		c-3.76,2.91-8.65,3.78-11.94,7.32c-1.18-1.45-0.36-2.25-0.02-3.08c0.85-2.06,1.73-4.1,2.62-6.14c0.32-0.73,0.58-1.56,1.11-2.11
		c4.42-4.55,6.29-10.97,11.14-15.2c1.18-3.53,3.77-5.85,6.35-8.43c2.86-2.87,6.04-4.69,9.69-5.71c6.45-1.81,12.99-3.25,19.5-4.83
		c0.95-0.23,1.9-0.31,2.81,0.3c1.17,1.5,0.68,3.34,0.89,5.05c0.11,0.88-0.31,1.98,0.95,2.41c-1.13,1.18-1.2,2.32,0.06,3.79
		c0.5-1.54,1.1-2.71-0.17-3.73c1.02-1.24,0.79-2.72,0.71-4.13c-0.16-3.14,1.01-5.21,3.83-6.97c2.46-1.54,5.17-3.17,6.52-6.1
		c0.71-1.54,2.25-2.17,3.64-2.95c4.62-2.6,8.87-5.76,12.01-10.03c2.54-3.45,5.1-6.87,7.68-10.28c3.44-4.53,7.05-8.93,11.14-12.91
		c1.86-1.8,4.09-2.09,6.33-1.3c1.19-1.29,0.43-2.34,0.04-3.28c-1.08-2.57-1.31-5.3-0.79-7.9c0.52-2.6,0.25-4.94-0.79-7.18
		c0.02,1.5-0.05,3.14-0.54,4.73c-0.5,0.24-0.98,0.09-1.15-0.37c-1.84-5.08-3.79-10.12-5.41-15.27c-1.58-5-2.81-10.12-4.18-15.18
		c-0.29-1.06-0.36-2.23-0.85-3.19c-2.16-4.26-3.43-8.84-4.84-13.35c-1.23-3.93-4.01-7.15-4.8-11.25c-0.13-0.69-0.93-1.24-1.4-1.87
		c-1.43-1.91-2.88-3.76-3.55-6.16c-0.6-2.13-1.74-4.08-3.3-5.72c-2.65-2.79-3.68-6.77-6.66-9.28c-3.91-3.28-7.38-7.29-12.78-8.33
		c-0.32,0.85-0.02,1.94-1.5,1.66c-1.09-0.2-0.95-1.98-2.58-1.51c-1.86,0.54-3.03-2.65-5.21-1.34c-1.86,1.12-3.75-0.07-5.62,0.22
		c-0.98,0.15-1.91,0.04-2.52-0.92l-0.12,0.13c0.75-0.23,1.51-0.46,2.41-0.73c1.16-1.71,0.62-3.92,1.23-6.05
		c3.05-2.81,5.98-5.99,10.14-7.54c0.34-0.13,0.86,0.24,1.58,0.47c-0.37,1.68-0.59,3.36-1.13,4.93c-0.59,1.71,0.11,3.74-0.78,5.13
		c-1.28,2,2.64,2.14,0.27,4.13c2.43,0.08,4.08,0.66,5.74,0.1c0.38-1.65-1.51-0.97-1.63-1.75c-0.64-1.82,1.56-3.07,0.27-4.62
		c1.65-1.2,3-2.23,4.17-3.59c1.18-1.38-1.07-2.98,0.7-4.02c1.08,0.37,2.08,0.84,1.29,2.94c6.32-3.55,12.92-3.99,18.94-6.33
		c1.37-0.53,2.67-0.96,3.6-2.13c1.04,0.86,0,1.76,0.1,2.62c-0.01,0.37,0.2,0.48,0.63,0.44c6.99-0.59,14-1.23,20.85-2.73
		c5.88-1.29,11.69-1.39,17.58-0.67c6.8,0.83,13.63,1.61,20.16,3.81c4.59,1.54,8.94,3.51,11.08,8.32c-0.3,2.15-1.8,2.83-3.6,3.34
		c-1.85,0.52-3.08-0.3-4.23-1.5c-2.57-2.68-5.96-3.63-9.41-4.34c-2.49-0.51-5.06-0.68-7.58-1.07c-2.19-0.35-4.46-0.3-6.46-1.56
		c-0.63-0.39-1.53-0.45-2.32-0.48c-6.37-0.23-12.74-0.82-19.08,0.68c-6.52,1.54-13.23,2.12-19.74,3.8c-2.35,0.61-4.69-0.94-7.1-0.29
		c-0.99,1.1,2.76,0.5,0.17,2.35c3.27,0.22,5.87,1.16,8.33,2.5c1.28,0.7,2.73,1.35,3.3,2.66c1.19,2.72,3.43,4.58,5.23,6.77
		c3.76,4.6,6.96,9.49,9.23,15.01c0.91,2.2,2.05,4.34,3.34,6.35c5.04,7.85,8.5,16.4,11.34,25.22c1.38,4.29,3.55,8.18,5.65,12.1
		c1,1.86,1.69,3.76,2.26,5.76c1.25,4.36,2.25,8.76,2.61,13.6c1.7-0.41,2.83-1.44,4.22-2.28c-0.13-2.8,1.38-4.62,3.34-6.46
		c3.74-3.5,6.1-7.97,7.76-12.81c0.36-1.04,0.63-2.17,1.26-3.03c2.24-3.04,3.01-6.5,3.65-10.15c1.37-7.82,1.58-15.76,2.77-23.6
		c0.4-2.67,0.56-5.34,1.44-7.94c0.5-1.46,0.96-3.04,0.51-4.69c-0.48-1.75,0.27-3.12,1.54-4.24c1.19-1.04,2.51-1.42,3.91-0.37
		c0.89,0.67,1.8,1.34,2.57,2.14c2,2.05,3.76,4.36,6.52,5.5c0.14,0.06,0.32,0.14,0.39,0.27c2.4,4.06,6.15,7.3,7.39,12.07
		c0.6,2.31,1.17,4.63,1.73,6.84c-2.02,6.95-3.33,13.99-4.54,21.03c-0.45,2.63-0.27,5.35-2.22,7.5c-0.2,0.22-0.39,0.6-0.34,0.86
		c0.63,3.79-1.98,6.63-2.9,9.96c-1.06,3.84-4.2,6.51-5.94,10c-3.23,6.5-8.63,11.38-12.92,17.1c-0.88,1.17-1.71,2.33-2.06,3.72
		c-0.31,1.26-0.59,2.42-1.58,3.39c-0.52,0.51-0.91,1.4-0.93,2.13c-0.07,2.5,0.77,5.06-0.49,7.48c0.93,5.47,1.82,10.96,2.84,16.41
		c0.2,1.06,0.62,2.37,1.39,2.98c2.34,1.82,2.27,4.29,2.47,6.82c0.43,5.38,2.09,10.6,2.22,16.03c-0.47,0.41-0.94,0.81-1.38,1.2
		c1.62,2.78,2.29,5.59,1.11,8.72c-0.38,1.01-0.27,2.2-0.38,3.31C357.91,431.34,358.17,433.96,357.09,436.03z M335.35,412.47
		c-0.73,2.99-0.01,5.31,0.07,6.65C335.36,417.79,336.62,415.49,335.35,412.47z M344.5,373.8c-1.96,0.21-2.64,1.21-3.56,2.66
		C342.66,376.01,343.69,375.46,344.5,373.8z"/>
	<path class="st0" d="M419.65,677.87c-2.85,1.7-6.06,1.75-9.2,1.75c-6.53,0-13.05-0.12-19.58-0.37
		c-10.84-0.42-21.71-0.13-32.57-0.17c-1.71-0.01-3.6,0.45-4.96-1.76c1.15-5.8,3.04-11.68,5.02-17.53c2.31-6.84,4.2-13.71,3.31-21.05
		c-0.11-0.94,0.02-1.91,0.08-2.87c0.34-5.27,0.3-10.47-0.81-15.72c-1.34-6.37-2.16-12.86-3.99-19.14c-0.75-2.59-1.5-5.26-3.15-7.44
		c-2.12-2.81-3.6-5.99-5.51-8.94c0.46-0.97,0.86-2.15,1.87-2.56c4.1-1.67,6.85-5.2,10.52-7.4c1.24-0.74,1.76-1.84,2.31-2.93
		c3.53-6.96,9.52-10.95,16.45-13.8c2.36-0.97,4.76-1.61,7.42-1.02c1.79,0.39,3.14,0.99,4.41,2.43c3.08,3.49,7.06,5.98,10.75,8.76
		c5.34,4.03,10.9,7.77,16.03,12.08c0.97,0.82,2.05,1.56,2.84,2.54c8.4,10.4,13.68,22,14.75,35.58c0.98,12.42-1.54,24.09-5.61,35.61
		c-1.43,4.05-2.56,8.18-4.27,12.15c-1.4,3.27-2.92,6.34-5.24,9.02c-0.72,0.83-1.61,1.62-1.05,2.92L419.65,677.87z"/>
	<path class="st0" d="M555.65,295.06c2.6-2.17,2.73-2.24,4.97,0.07c0.95,0.98,2.24,1.1,3.3,1.79c3.59,2.32,4.19,6.1,1.15,9.11
		c-1.35,1.34-2.81,2.51-3.36,4.48c-0.19,0.69-0.95,1.25-1.51,1.82c-2.09,2.13-2.72,3.48-2.94,6.51c-0.28,3.88-1.58,7.32-4.34,10.12
		c-1.62,1.64-1.17,3.78-1.49,5.74c2.61,1.88,0.67,4.2-0.23,5.41c-2.25,3.01-3.88,6.44-6.41,9.24c-1.88,2.08-2.41,5.06-5.11,6.72
		c-2.38,1.46-4.28,3.71-6.5,5.72c-0.88-0.59-1.65-1.12-1.57-2.44c0.09-1.51-1.26-4.09-2.42-4.65c-0.88-0.42-1.8-0.82-2.29-1.64
		c-2.12-3.58-5.92-5.68-8.05-9.24c-0.08-0.13-0.13-0.29-0.22-0.42c-1.28-1.82-4.01-1.43-5.18-3.74c-0.98-1.93-3.56-1.82-5.37-2.71
		c-0.28-0.14-0.6-0.33-0.89-0.32c-6.43,0.26-12.95-1-19.27,1.18c-1.37,0.47-2.83,0.82-3.76-0.87c0.88,0.08,1.76,0.63,2.64,0.01
		c0.51-0.81,0.25-1.42-0.51-1.94c-0.76,0.57-0.71,2.01-2.04,1.97c-0.25,1.39-1.2,2.41-2.37,2.78c-1.84,0.6-2.83,1.83-3.3,3.63
		c-1.46-0.72-2.06-1.83-2.75-2.85c-1.58-2.36-2.4-5.51-6.41-5.04c-1.42,0.17-2.22-2.22-4.03-2.1l0.15,0.18
		c-0.26-2.1-1.51-3.61-2.98-4.99c-0.52-0.68-1.03-1.35-1.55-2.03c-0.5-1.17-0.13-2.51-0.86-3.69c-1.58-2.56-0.61-5.74-1.9-8.4
		c0.92-1.27-0.04-2.04-0.74-2.91c-1.6-1.99-2.31-4.51-4.02-6.49c-1.28-1.47-0.56-4.75,1.44-6.44c2.92-2.47,6.07-4.68,9.16-6.94
		c0.48-0.35,1.15-0.57,1.75-0.6c2.13-0.09,4-1,5.91-1.76c1.35-0.54,2.84-1.42,4.12-0.97c2.94,1.02,4.09-0.76,5.11-2.78
		c0.84-1.65,1.44-3.42,2.31-5.55c1.27,1.71,0.77,3.3,0.84,4.75c0.08,1.59,0.02,3.2,0.19,4.79c0-5.31,0-10.63,0-16.25
		c2.67-2.03,4.22-5.19,6.19-8.04c1.45-2.09,2.95-4.08,5.07-5.62c1.93-1.39,3.9-1.92,6.18-1.41c2.48,0.56,5.06,0.86,7.22,2.37
		c0.82,0.57,1.7,0.65,2.66,0.8c3.96,0.61,5.77,3.15,5.24,7.03c-0.13,0.94-0.26,1.88-0.35,2.83c-0.01,0.11,0.17,0.25,0.41,0.57
		c1.26,0.28,2.73,0.4,3.82-0.7c1.31-1.32,2.9-2.38,3.38-4.49c0.87-3.84,2.78-7.24,6.76-8.48c4.38-1.37,8.86-0.41,13.25,0.5
		c1.01,0.21,1.51,1.12,2.06,1.9c1.17,1.7,2.34,3.4,3.49,5.09c-0.59,2.52-2.83,4.41-2.39,7.47c1.48-0.63,2.84-1.22,4.43-1.89
		c0.68,1.47,1.78,2.34,3.5,3.06c3.25,1.36,5.88,3.84,6.75,7.6c0.38,1.62,0.35,2.99-1.01,4.35c-1.59,1.59-2.78,3.58-4.23,5.31
		c-0.9,1.08-1.12,2.26-1,3.57c-2.17,0.86-2.29,2.39-1.55,5.13C555.36,298.14,556.85,296.99,555.65,295.06z M504.14,299.24
		c-4.38,3.86-5.04,9.38-6.46,14.55c-0.34,1.22-0.74,2.46,0.43,3.69c3.71-0.05,7.48-0.49,11.29-0.38c7.19,0.22,12.51,3.19,16.18,9.3
		c0.98,1.63,1.95,3.25,3.65,4.35c2.36,1.52,4.59,3.25,5.04,6.34c0.01,0.09,0.53,0.11,0.95,0.19c0.31-1.56-1.52-2.79-0.71-4.38
		c1.26-0.6,2.53-1.21,3.95-1.89c0-1.62-0.29-3.27,0.05-4.77c1.08-4.62-1.38-8.38-2.86-12.32c-0.87-2.31-3.04-3.54-5.41-4.3
		c-0.53-0.17-0.81-0.98-1.31-1.36c-6.01-4.73-12.46-8.31-20.48-7.82c-1.26,0.08-2.55-0.04-3.81-0.21c-0.26-0.04-0.42-0.74-0.63-1.13
		c2.2-2.53,5.42-0.88,7.93-1.82c0.11-0.67-0.19-1.23-0.67-1.15c-2.32,0.39-4.64,0.83-6.91,1.44
		C503.69,297.75,503.99,298.64,504.14,299.24z M524.84,279.32c-0.7-1.4-1.52-3.01-2.24-4.45c-1.08-0.23-1.8-0.12-2.42,0.42
		c0.96,1.77,1.92,3.53,3.06,5.63c1.41-0.98,3.31,1.83,4.71-0.85C527.09,279.2,525.85,280.34,524.84,279.32z M553.88,320.6
		c0.58-1.97,1.17-3.94,1.78-5.98C552.62,314.68,552.38,315.28,553.88,320.6z M539.52,285.03c0.14,5.05,0.14,5.05,3.3,4.88
		C542.74,287.85,540.65,287.18,539.52,285.03z M475.96,291.66c-1.86-1.2-1.86-1.2-3.59-0.7
		C473.24,291.76,474.24,291.98,475.96,291.66z M552.82,301.19c-0.57,0.28-0.54,0.74-0.3,1.16c0.2,0.35,0.53,0.62,0.8,0.93
		c0.06-0.59,0.17-1.17,0.16-1.76C553.48,301.18,553.16,301.08,552.82,301.19z"/>
	<path class="st0" d="M136.21,885.39c-1.88-2.67-2.34-5.88-3.03-8.93c-0.34-1.5-0.49-3.12-0.85-4.66
		c-1.42-6.14-0.41-12.38-0.83-18.55c-0.05-0.75,0.04-1.86,0.52-2.25c1.99-1.62,1.6-3.77,1.43-5.77c-0.57-6.66-0.84-13.34-2.09-19.94
		c-0.27-1.42-0.6-2.79-1.08-4.12c-0.86-2.34-0.99-4.83-0.51-7.09c1.42-6.68,0.5-13.37,0.57-20.04c0.02-1.86-0.18-3.45,0.64-5.38
		c0.95-2.21,0.75-4.96,1.07-7.46c0.69-5.33,0.37-10.77,1-16.15c-2.27,5.21-1.37,10.94-2.87,16.08c-1.86-4.21-1.37-8.74-0.3-13.19
		c1.46-6.05,1.59-12.22,2.17-18.36c0.26-2.79,1.25-5.55,2.15-8.25c1.78-5.34,2.46-10.85,2.86-16.42c0.07-0.94,0.22-1.97-0.06-2.84
		c-1.2-3.76,0.16-7.05,1.45-10.45c0.85,0.47,0.52,1.25,1.12,2.25c0.28-1.44,0.45-2.53,0.71-3.6c2.19-8.91,4.5-17.78,7.18-26.55
		c0.68-2.24,1.35-4.43,2.66-6.46c0.6-0.93,1.98-2.12,0.71-3.7c-0.28-0.34-0.03-1.27,0.2-1.83c2.7-6.66,3.8-13.81,6.32-20.53
		c0.33-0.89,0.78-1.86,0.72-2.76c-0.28-4.51,1.72-8.37,3.25-12.34c2.75-0.28,5.19,0.38,7.57,1.56c1.85,0.92,3.77,1.74,5.71,2.43
		c2.42,0.87,4.91,1.34,7.72-0.03c-0.02,2.03,0.03,3.76-1.05,5.53c-0.61,1-0.78,2.34-0.89,3.65c-0.35,4.48-1.77,8.62-4.31,12.39
		c-0.78,1.16-1.39,2.61-1.53,3.98c-0.46,4.59-1.8,9.01-1.96,13.68c-0.14,4.14-0.09,8.42-1.58,12.46c-1.43,3.89-2.76,7.81-4.2,11.7
		c-1.98,5.35-4.82,10.4-5.68,16.14c-0.05,0.31-0.19,0.61-0.33,0.89c-4.57,9.36-5.91,19.68-8.84,29.51
		c-1.75,5.88-1.82,11.9-3.23,17.75c-0.58,2.41-0.4,5.09-0.32,7.54c0.09,2.81-0.43,5.38-1.23,7.86c-1.15,3.58-1.37,7.18-1.34,10.85
		c0.02,2.87,0.3,5.71-0.57,8.55c-0.52,1.72,0.06,3.69,1.18,4.93c1.22,1.34,0.89,2.95,1.82,4.23c-0.75,0.87-1.36,1.57-2.05,2.37
		c1.07,6.63,1.91,13.37,4.22,19.82c0.42,1.17,0.12,2.59,0.54,3.77c1.84,5.21-1.62,8.44-4.27,12.01c-0.74,1-2.5-0.3-2.97,1.64
		c-0.24,1-1.7,1.71-2.73,2.67c1.09,4.44,5.48,4.27,8.42,6.14c0.63,1.29-0.35,2.42-0.62,3.59c-0.44,1.92-0.69,3.7,0.36,5.48
		c0.59,1,0.67,2.05,0.44,3.22c-0.62,3.24-1.56,6.48-0.02,9.77c0.3,0.64-0.01,1.57-0.09,2.36c-0.28,2.82,0.25,5.41,2.06,7.66
		c0.72,0.89,1.29,1.92,1.33,3.03c0.09,2.79,1.51,5.05,2.65,7.45c0.79,1.66,1.59,3.04,3.75,2.66c1.61-0.28,2.68,0.84,3.85,1.61
		c5.37,3.52,11.64,5.11,17.23,8.14c4.54,0.18,7.62,3.39,11.37,5.27c5.13,2.56,9.43,6.45,14.84,8.54c1.98,0.77,3.4,2.88,5.29,4.03
		c2.58,1.56,4.36,4,6.93,5.65c2.46,1.58,4.29,4.24,6.19,6.59c2,2.47,3.82,5.08,5.58,7.73c0.9,1.36,1.9,2.55,3.11,3.34
		c0.53,1.27-1,1.77-0.19,3.73c0.33,0.42,1.24,1.71,2.27,2.91c0.77,0.91,1.14,1.88,1.08,3.06c-0.15,2.9-2.51,4.3-5.02,2.9
		c-0.68-0.38-1.24-0.99-1.79-1.57c-1.35-1.41-2.69-2.72-4.94-2.18c-0.78,0.19-1.72-0.12-2.16-0.79c-1.91-2.9-5.17-4.15-7.65-6.35
		c-1.73-1.52-3.17-3.04-3.37-5.4c-2.46,0.59-4.21,0.32-6.05-1.58c-3.41-3.5-7.08-6.81-11.59-8.95c-2.36-1.12-3.92-3.25-5.84-4.91
		c-1.53-1.32-2.76-2.98-4.13-4.5c0.1-0.1,0.39-0.39,0.73-0.73c-3.94-0.98-7.23-3.11-9.89-6.09c-1.91-2.14-4.58-2.85-6.87-4.26
		c-0.96-0.03-1.69-0.45-2.21-1.25c-1.52-2.45-3.19-4.72-6.38-5.09l-0.22,0l-0.15-0.38c-0.75-2.48-2.57-3.78-4.95-4.46l0.16,0.1
		c0.17-1.07-0.53-1.75-1.1-2.48c-3.88-4.89-7.76-9.77-11.65-14.65C139.3,891.11,137.85,888.18,136.21,885.39z M213.84,944.79
		c-2.25,2.7-1.38,4.83-0.17,7.88c0.28-2.61,0.49-4.32,0.63-6.03C214.33,946.22,214.1,945.78,213.84,944.79z M215.75,940.09
		c-1.8,1.94-1.8,1.94-1.84,3.71C215.07,942.89,215.91,941.91,215.75,940.09z"/>
	<path class="st0" d="M209.21,271.17c-1.15,1.02-1.64,2.7-3.35,3.28c-2.87-2-2.63-5.08-2.59-8.18c-2.22-1.73-4.7-2.29-7.48-2.45
		c-6.57-0.38-12.54-2.49-16.88-7.68c-2.37-2.83-4.65-5.9-6.17-9.23c-1.43-3.13-2.77-6.5-2.97-10.03c-0.24-4.13-0.55-8.3,0.57-12.39
		c0.46-1.69,0.76-3.42,1.23-5.11c0.73-2.6,1.54-5.18,2.27-7.63c0.88-0.42,1.78,0.18,2.7-0.84c-2.15-0.2-4.06-0.39-6.24-0.6
		c-0.75-2.84-3.61-3.9-5.76-5.11c-4.76-2.69-5.98-7.09-7.41-11.63c-0.76-2.41-0.16-4.87-0.59-7.33c-0.41-2.37,1.22-4.54,2.56-6.53
		c0.61-0.89,1.68-0.77,2.63-0.7c0.64,0.64,0.67,1.48,0.55,2.24c-0.59,3.64,2.01,6.24,3,9.35c0.12,0.38,0.66,0.9,0.99,0.89
		c2.33-0.09,2.79,2.61,5.15,3.01c4.87,0.84,9.11-0.73,13.45-2.17c2.73-0.9,4.4-3.26,5.71-5.59c1.54-2.75,2.56-5.8,3.8-8.72
		c0.72-1.7,0.44-3.55,0.17-5.2c-0.67-4-1-8.16-3.97-11.43c-1.68-1.85-2.85-4.07-4.73-5.88c-1.85-1.78-3.23-4.27-3.72-7.06
		c-0.23-1.31-0.11-3.3-2.51-2.83c-1.17-1.38-2.14-2.94-1.95-4.75c0.26-2.47-0.34-4.72-1-7.03c-0.73-2.58-0.07-5.4-1.33-7.94
		c-0.25-0.5-0.15-1.33,0.09-1.87c1.72-3.82,1.38-7.79,1.03-11.77c-0.14-1.63-0.27-3.42,0.8-4.61c1.24-1.37-0.67-2.65,0.38-3.93
		c0.89-1.09,1.49-2.44,2.12-3.73c0.27-0.55,0.59-1.35,0.39-1.81c-1.12-2.54,0.01-4.37,1.83-5.86c1.52-1.24,1.94-4.14,4.55-2.91
		c0.87-1.24-0.51-2.35,1.03-3.22c0.92,0,2.16-0.01,3.4,0c3.39,0.04,4.75,1.68,4.26,5.1c-0.07,0.46-0.14,0.93-0.17,1.4
		c-0.01,0.14,0.11,0.3,0.21,0.55c0.41-0.23,0.81-0.43,1.19-0.67c0.26-0.16,0.5-0.37,0.85-0.63c1.76,1.82,3.33,3.78,4.54,6.03
		c1.12,2.09,3.44,3.34,3.84,5.77c3.56,0.08,6.66,0.4,8.64,3.81c1.43,2.46,3.41,4.61,5.13,6.91c0.93,1.25,1.85,2.46,3.04,3.55
		c2.52,2.29,3.96,5.4,4.83,8.65c0.54,2.01,0.5,4.03-1.65,5.53c-1.4,0.98-2.41,2.51-3.64,3.75c-1.35,1.37-2.64,2.81-4.13,4
		c-1.66,1.33,0.76,3.55-1.22,4.69c0.29,2.16-0.76,3.15-2.65,4.22c-1.47,0.83-2.49,2.35-4.57,1.6c0,1.25,0.21,2.25-0.04,3.13
		c-1.14,4.15,0.4,7.8,2.07,11.39c0.42,0.91,0.73,1.73,0.72,2.69c-0.06,3.83-0.08,7.66-0.23,11.49c-0.04,0.92-0.35,1.91-0.8,2.72
		c-1.91,3.47-3.34,7.23-6.26,10.1c-1.01,1-1.78,2.25-2.67,3.37c-1.74,2.19-2.97,4.88-6.13,5.64c-0.81,0.19-1.43,1.23-2.13,1.88
		c-2.58,2.38-5.25,4.67-7.71,7.17c-1.33,1.36-2.78,2.02-4.88,1.81c0.93,1.83,3.46,1.95,3.21,4.54c-0.13,1.28,1.05,2.87,2.56,3.81
		c3.29,2.07,5.75,4.96,7.66,8.34c0.47,0.83,0.85,1.95,1.82,2.1c2.51,0.41,3.83,1.66,4.33,4.23c0.24,1.23,1.78,1.69,3.05,2.06
		c2.09,0.62,4.43,0.88,5.38,3.35c3.86,2.05,6.68,6.05,11.58,6.2c0.77,0.02,1.59,0.34,2.27,0.72c7.62,4.2,15.67,4.63,23.99,2.81
		c0.45-0.1,0.93-0.01,1.52-0.01c1.46,2.55-0.73,4.13-1.51,6.04l0.12-0.13c-2.28-0.58-2.71,2.43-4.9,2.43
		c-1.68,0-3.48,0.17-5.13,0.91c-1.72,0.78-3.48,1.59-5.31,1.98c-1.49,0.32-2.56,2.33-3.6,1.83c-1.97-0.93-1.75,1.49-3.21,1.49
		c-1.41,0.01-2.8,1.28-4.22,1.97c-1.29,0.63-2.63,1.15-3.88,1.83c-1.39,0.76-2.69,1.7-4.07,2.48c-0.82,0.46-1.69,0.87-2.59,1.13
		c-0.7,0.21-1.17-0.29-1.4-0.95c1.9,0.22,2.62-1.07,3.16-2.56C211.36,269.53,209,268.88,209.21,271.17z M192.75,145.59
		c-0.5-0.99-0.91-2.03-1.52-2.94c-0.78-1.16,0.62-2.37-0.17-3.52c-1.6,0.91-2.32,2.28-2.27,3.98c0.05,1.84-0.69,3.74,0.65,5.5
		c0.86,1.13,1.44,2.48,2.09,3.76c1.22,2.4,3.32,2.98,5.86,3.15c-0.72-2.29-0.69-2.34-1.52-2.82c-2.1-1.23-3.79-2.74-4.09-5.33
		c1.57,0.27,2.73,1.77,4.79,1.7C195.41,147.44,194.49,146.08,192.75,145.59z M186.63,150.14c-0.52,1.03-0.38,1.98,0.06,3.04
		C186.94,152.1,187.49,151.13,186.63,150.14z"/>
	<path class="st0" d="M55.4,240.2c-0.04-2.75,1.39-4.79,3.22-6.62c2.14-2.13,4.52-3.98,6.35-6.46c2.15-2.9,9.83-2.26,10.72,2.87
		c0.35,2.02,1.25,3.53,2.2,5.15c0.86,1.47,0.75,3.32,1.96,4.68c-1.82,1.39-3.09,3.15-3.14,5.49c-0.05,2.26,1.49,3.72,2.91,5.29
		c2.1,2.32,4.57,2.01,7.06,1.26c2.17-0.66,2.67-2.53,2.69-4.58c0.01-0.47,0.13-0.93,0.26-1.82c4.26,2.44,8.39,0.29,12.33,0.5
		c0.93-1.59-0.59-2.41-0.25-3.52c0.29-0.15,0.56-0.4,0.84-0.41c2.84-0.07,5.69,0.34,8.45,0.69c4.14,0.53,7.74,2.94,10.7,5.91
		c1.31,1.32,2.7,2.71,3.76,4.2c1.03,1.44,1.47,3.46,2.01,5.15c1.02,3.21,0.92,6.78,1.28,10.09c-0.43,1.13-1.61-0.07-2.12,1
		c0.03,1.19,0.75,2.08,1.83,2.76l-0.1-0.16c0.21,0.71,0.71,1.49,0.01,2.11c-0.72,0.64-1.61,0.85-2.49,0.16
		c-0.35-0.28-0.71-0.56-1.06-0.85c-0.44-0.54-0.89-1.07-1.33-1.61c-1.31-1.58-3-2.85-3.67-4.93c-0.44-1.37-1.81-1.46-3.42-2.1
		c1.06,3.79,4.36,6.23,4.35,9.99c-0.43,0.73-1.04,1.15-2.16,1.14c-1.38-1.5-2.87-3.01-3.73-5.2c-0.74-1.87-1.93-3.72-3.36-5.13
		c-1.76-1.73-4.16-2.38-6.58-1.29c-2.9,1.3-5.73,2.75-8.54,4.23c-1.1,0.58-2.03,0.79-2.92-0.11c-0.53-0.94,0-1.55,0.47-2.21
		c0.36-0.51,0.57-1.12,0.82-1.63c-0.2-0.52-0.4-0.59-0.68-0.35c-3.4,2.85-7.07,5.45-8.98,9.7c-0.24,0.54-0.84,0.92-1.26,1.38
		c-0.89,0.98-1.52,3.3-0.71,3.89c1.47,1.06,1.17,1.93,0.47,3.2c-1.58,2.87-1.14,4.78,1.57,6.28c1.81,1,3.7,1.82,5.14,3.38
		c1.13,1.23,1.84,2.53,1.24,4.03c-1.76,1.27-2.77-0.94-4.65-0.3c1.57,1.6,2.56,3.55,4.74,4.16c1.76,0.49,2.44,1.75,2.86,3.43
		c0.14-2.81,1.54-4.69,2.99-6.87c5.05-7.57,12.24-12.4,19.99-17.1c2.1,1.16,3.89,1.34,6.07-0.86c4.11-4.14,9.48-3.45,14.54,1.29
		c-0.01,2.08,0.39,4.21,1.3,6.3c1.22,2.79,0.31,5.68-0.4,8.41c-0.42,1.6-2.05,2.51-3.65,2.78c-6.26,1.05-11.38,4.86-17.16,7.04
		c-1.65,0.62-2.8,2.07-4.09,3.26c-2.32,2.15-4.45,4.58-7.55,5.56c-0.27,4.37-2.65,7.7-4.75,11.12c-0.34,0.56-0.9,0.89-0.37,1.51
		c1.26,1.47,0.28,3.08,0.32,4.61c0.01,0.56-0.36,1.44-0.8,1.64c-2.38,1.1-4.7,3.13-7.44,2.3c-3.64-1.11-7.21-1.03-10.88-0.63
		c-1.39,0.15-2.89,0.57-4-0.8c-0.88-1.65-2.68-2-4.09-2.91c-2.03-1.19-4.09-2.34-6.09-3.58c-2.42-1.5-4.69-3.15-6.3-5.62
		c-0.84-1.3-1.91-2.56-3.76-2.46l0.18,0.17c0.15-0.88-0.07-1.69-0.96-1.91c-1.22-0.31-2.5-0.39-3.89-0.59
		c-1.55-1.52-2.63-3.36-3.2-5.6c-0.39-1.52-1.12-2.96-1.7-4.44c-0.24-0.59-0.57-1.15-0.75-1.75c-1.06-3.68,0.03-5.07,4.17-5.36
		c-4.59-0.36-6.87-3.38-8.54-7.15c-0.48-1.09-0.59-2.23-0.05-3.23c1.27-2.35,0.98-4.98-0.1-6.9c-2-3.55-0.82-6.68-0.07-10.2
		c0.81,0.24,1.39,0.41,1.97,0.58c-0.1,2.73-1.95,5.47,0.2,9.03c0.64-3.56,0.5-6.24-0.3-8.91c-0.57-1.63,0.06-2.57,1.73-2.29
		c2.1,0.35,4.15,1.03,7.07,1.8c-3.21-3.09-7.12-2.19-9.72-4.41c0.51-0.48,0.92-0.87,1.34-1.26c-0.74-1.02-1.8-1.12-2.95-1.19
		c-2.39-0.14-3.06-0.8-3.32-2.89c-0.21-1.68,0.34-3.15,1.16-4.54c1.3-2.18,2.62-4.35,3.98-6.49c1.89-2.99,4.02-3.58,7.3-2.1
		c4.21,1.9,4.21,1.9,8.72,0.95c-0.91-2.25-1.85-4.46-2.7-6.7c-0.49-1.3-1.4-2.08-2.66-2.55L55.4,240.2z M111.41,259.79
		c1.61-0.13,1.68,1.38,2.32,2.22c1.55-0.24,1.22-2.03,2.3-2.63c0.22,0.2,0.47,0.36,0.74,0.49c1.19,2.15,3.36,3,5.39,4.12
		c-0.72-1.35-1.6-2.53-2.56-3.66c-0.85-0.99-1.87-1.04-2.95-0.34c0.74-0.79,0.8-1.62,0.11-2.46c-1.49-1.8-3.43-3.09-5.31-4.44
		c-0.63-0.45-1.48-0.36-2.23-0.06c-0.6-2.59-2.35-3.05-4.87-2.81c1.46,1.77,2.89,2.89,4.99,2.67c2,1.87,4.79,2.97,5.78,5.85
		c-1.59-0.8-2.93-0.8-3.64,1.16c-1.79-1.58-3.83-1.62-6.13-1.16c0.33,0.33,0.5,0.67,0.69,0.68
		C107.84,259.52,109.59,260.16,111.41,259.79z M78.08,264.66c-0.16-3.21-2.24-4.8-4.22-6.37c-2.76-2.18-6.56-1.05-7.73,2.24
		c-0.69,1.93-1.24,3.92-1.66,5.93c-0.45,2.17,0.22,3.62,1.78,4.52c3.85,2.22,8.53,0.78,10.43-3.21
		C77.16,266.77,77.59,265.75,78.08,264.66z M69.18,282.72c0.15-4.17-1.32-5.59-5.77-6.03c-2.38-0.23-4.51,0.21-5.78,2.34
		c-1.06,1.78-2.1,4.1-0.47,5.75c1.87,1.89,3.41,4.84,6.93,4.16c0.61-0.12,1.41-0.13,1.78-0.52
		C67.47,286.75,69.53,285.27,69.18,282.72z M60.57,298.8c-0.54,2.09-0.39,4-0.27,5.88c0.12,1.9,1.34,3.13,3.04,3.88
		c1.25,0.55,2.5,0.11,3.74-0.01c3.66-0.35,5.31-2.59,4.98-6.58c-0.26-3.05-2.62-5.14-5.84-4.86
		C64.37,297.28,62.42,297.41,60.57,298.8z M77.22,286.97c0.84,1.22,1.76,2.16,2.22,3.3c0.59,1.48,1.37,1.88,2.86,1.38
		c-1.54-3.02-1.53-3.02-0.87-6.06c0.04-0.17-0.23-0.41-0.36-0.63c-0.35,0.3-0.67,0.58-0.97,0.85c-1.56-1.04,0.61-3.06-1.45-4.39
		C78.4,283.55,78.47,285.47,77.22,286.97z M70.79,252.23c1.07,0.82,1.99,1.1,3.12,1.01c-0.21-0.5-0.26-0.91-0.46-1.02
		C72.75,251.84,71.97,251.85,70.79,252.23z"/>
	<path class="st0" d="M297.66,541.21c1.54,0.98,2.78-0.19,4.08,0.27c0.97,1.34,1.49,2.96,2.02,4.74c0.22-1.35,0.23-2.69,0.69-3.85
		c0.53-1.35,1.77-1.67,3.18-1.21c-2.93,5.05-3.11,10.21-3.37,16.01c-3.07,1.24-6.17,0.08-9.21-0.26
		c-6.63-0.75-13.19-1.94-19.96-1.26c-2.6,0.26-5.33,0.11-8,0.19c-8.16,0.26-16.17,1.68-24.1,3.53c-1.26,0.29-2.62,0.5-3.42,2.13
		c-0.67,1.36-1.36,1.29-4.54,2.22c-0.92-0.59,0.53-0.93,0.11-1.52c-2.62-1.92-3.76,0.98-5.52,1.86c-1.82,0.9-3.58,1.89-5.23,2.77
		c-0.82-0.55-0.05-1.39-0.87-1.73c-1.55,0.58-3.14,1.11-4.34,2.54c-1.67,2-4.1,2.91-6.44,3.84c-1.87,0.74-2.94,0.13-3.49-1.98
		c-0.55-2.12-0.97-4.3-1.17-6.48c-0.19-2.06-1.27-3.71-1.35-5.71c-1.81,0.56-0.88,2.13-2.21,2.52c-0.09-2.11-0.34-4.12-1.3-6.03
		c-0.8-1.59-2.27-3.51,0.81-4.55c0.25-0.08,0.36-0.84,0.37-1.29c0.06-2.92,1.88-4.39,4.25-5.62c2.13-1.11,4.21-2.26,6.64-2.55
		c2.29-0.27,3.97-1.96,6.15-2.54c9.4-2.49,18.8-4.89,28.48-6.12c3.76-0.48,7.42-1.74,11.1-2.74c4.01-1.09,7.99-2.1,12.04-0.19
		c0.25,0.12,0.71,0.11,0.92-0.05c1.6-1.2,2.13,0.05,2.27,1.17c0.2,1.57-0.04,3.19-0.01,4.79c0.11,5.92,4.16,9.9,10.08,10.24
		c3.21,0.19,6.19-0.63,9.24-1.39c0.29-1.17-0.61-1.44-1.35-1.43c-2.71,0.05-5.37,0.47-7.89,1.95c-2.31-2.22-5.36-3-7.85-4.94
		c-0.66-3.1-0.37-6.31-0.28-9.47c0.09-3.24,3.05-5.84,6.21-5.7c9.1,0.42,17.58-2.07,25.9-5.39c2.81-1.12,5.59-2.44,8.51-3.13
		c2.84-0.68,5.44-1.82,8.06-2.96c4.54-1.98,9.35-3.07,14.05-4.57c0.45-0.14,1.02-0.03,1.4-0.26c3.78-2.33,7.95-1.83,12.07-1.71
		c0.8,0.02,1.6,0,2.39-0.07c3.44-0.28,6.91-1.11,10.08,1.21c0.57,0.42,1.54,0.33,2.33,0.38c6.25,0.38,12.21,2.29,18.35,3.29
		c2.67,0.43,4.45,1.62,4.35,4.67c-0.02,0.6,0.41,1.2,1.12,1.4c1.04-0.79-0.18-2.2,0.79-2.97c1.4-0.69,2.79,0.65,4.18-0.34
		c0.08,2.37,2.58,3,2.86,5.09c0.26,1.9-0.35,3.84,0.1,5.6c0.38,1.48,0.67,2.39-1.06,2.91c-0.62,1.19,1.38,0.98,1.13,2.15
		c-0.23,1.06-0.06,2.23,0.02,3.34c0.07,0.95,0.27,1.88,0.46,3.07c1.46-2.17,0.17-4.57,1.26-6.5c2.33-0.34,3.75,0.81,4.6,2.7
		c1.86,4.14,4.61,7.62,8.1,11.07c-2.7-0.02-4.93-0.66-6.97-1.53c-4.93-2.1-10.16-2.34-15.34-2.74c-4.13-0.32-8.31-0.16-12.47-0.02
		c-1.88,0.06-4.33-0.65-4.89,2.43c-0.07,0.4-1.23,0.47-1.53-0.26c-0.26-0.63-0.45-1.14-1.21-1.2c-1.61-0.11-1.4,0.71-0.7,2.02
		c-1.68,0.28-3.29,1.85-4.4-0.83c-2.16-0.02-4.36,0.42-6.39-0.44c-0.9-0.91,1.33-2.48-0.86-3.11c-0.78-0.23-0.84-1.47-0.58-2.15
		c0.77-1.98,0.38-4.07,0.73-6.04c1.3-7.27-3.59-12.9-8.32-14.52c-4.43-1.52-8.66-2.09-12.92,0.27c-0.96,0.53-1.8,1.08-2.28,2.28
		c-2.61,6.37-8.14,9.56-14.05,12.03c-2.38,0.99-4.65,1.73-6.36,3.85c-1.13,1.41-2.06,0.32-2.7-0.9c-0.89,0.92-1.86,1.75-2.26,3
		c-0.33,1.02-0.94,1.47-2.06,1.61c-1.48,0.19,0.11,1.27-0.68,2.07C305.06,536.89,301.77,539.93,297.66,541.21z M299.44,531.19
		c1.62,0.06,2.66-0.53,2.73-2.5c-2.9-0.72-5.99,0.36-8.64-1.22c-0.46-0.79-1.2-1.01-2.03-0.98c-3.93,0.11-7.17,1.78-9.27,4.99
		c-0.83,1.26-2.12,2.22-2.84,3.5c5.32,4.51,6.8,6.71,15.56,1.62c0.41-0.24,0.9-0.33,1.31-0.56c0.86-0.49,0.58-1.38,0.69-2.14
		C297.78,533,298.61,532.1,299.44,531.19z M368.19,525.05c1.86-1.27,3.99-0.88,6.02-0.9c4.49-0.05,8.98-0.02,13.46-0.02
		c-6.17-0.56-12.34-0.6-18.52-0.34c-0.79,0.03-1.05,0.52-0.94,1.25c-1.73-0.19-3.25-1.71-5.71-0.8
		C364.6,525.63,366.48,524.76,368.19,525.05z M391.86,521.17c2.43,0.5,4.24,0.87,6.06,1.24
		C396.19,521.62,394.65,519.93,391.86,521.17z M366.93,521.55c1.2-0.13,2.4-0.26,3.76-0.4
		C369.29,521.15,368.06,520.56,366.93,521.55z M257.93,541.09c2.41,0.77,2.41,0.77,4.18,0
		C260.54,541.09,259.34,541.09,257.93,541.09z"/>
	<path class="st0" d="M359.09,1036.49c-0.3,4.95-1.22,9.76-2.5,14.56c-1.12,4.18-4.05,5.98-7.74,6.8c-2.16,0.48-4.02,1.36-6.01,2.17
		c-3.8,1.55-7.85,2.67-12.04,2.82c-2.07,0.07-4.13,0.08-6.2,0.12c-2.27,2.74-5.14,1.09-7.82,1.2c-3.87,0.16-7.11-1.59-10.54-2.8
		c-2.46-0.87-3.51-2.91-2.69-5.34c0.77-2.27,1.57-4.51,1.92-6.89c0.09-0.6,0.34-1.49,0.77-1.69c2.56-1.18,2.61-3.76,3.5-5.88
		c2.8-6.66,6.03-13,12.08-17.46c2.52-1.86,5.23-3.4,7.68-5.45c3.56-2.98,9.98-2.15,13.73,1.06c1.9,1.62,3.84,2.51,6.4,2.73
		c5.54,0.48,9.25,4.7,9.46,10.21C359.13,1033.93,359.09,1035.21,359.09,1036.49z M340.13,1057.66c1.38-2.5,1.38-2.5,0.88-4.42
		C339.66,1054.32,339.13,1055.61,340.13,1057.66z M341.61,1032.02c-0.12-2.41,0.42-4.04-1.74-5.58
		C339.61,1028.58,340.43,1029.87,341.61,1032.02z"/>
	<path class="st0" d="M316,1114.46c0-0.63,0-1.26,0-2.3c5.74-2.69,12.09-4.06,18.48-5.85c0.45,0.22,1.13,0.37,1.56,0.78
		c1.98,1.89,3.92,1.63,6.03,0.21c1.42-0.96,2.72-2.34,5.39-1.82c2.95,4.04,6.12,8.54,7.77,13.94c0.37,1.22,1.02,2.47,0.95,3.67
		c-0.09,1.45,1.32,0.83,1.74,1.83c2.65,6.36,2.07,12.81,0.85,19.25c-0.37,1.98-1.63,3.46-3.61,4.72
		c-5.66,3.58-11.78,4.61-18.25,4.41c-3.74-0.12-7.55,0.85-11.55-0.82c-0.39-3.42,0.08-7.03,0.47-10.63
		c0.14-1.27,0.72-2.34-0.94-3.18c-0.52-0.27-0.44-1.76-0.59-2.7c-1.14-7.33-3.94-14.1-6.98-20.79c-0.23-0.5-0.56-1.19-1.4-0.88
		L316,1114.46z"/>
	<path class="st0" d="M246.53,906.65c1.77,0.02,2.85-1.29,4.12-2.19c4.74-3.33,9.77-6.01,15.53-7.18c1.86-0.38,3.64-1.11,5.66-1.75
		c2.46,4.6,3.2,9.78,4.26,14.8c0.83,3.93-1.51,7.42-5.41,8.98c-3.33,1.33-6.21,3.21-8.6,5.89c-3.29,3.7-6.68,7.3-9.98,10.99
		c-1.17,1.3-2.02,2.82-2.89,4.36c-1.09,1.94-2.43,1.92-4.88,0.11c-2.81,2.26-6.51,0.69-10.09,1.83c-0.48-2.57-2.02-4.37-4.71-5.47
		c-3.42-1.4-5.65-4.6-9.05-6.62c1.2-1.76,2.31-3.4,3.36-4.94c2.69-0.15,3.69,3.06,6.39,3c-0.43-1.82-2.3-1.98-2.88-3.6
		c0.87-2.31,3.04-3.79,4.76-5.62c1.94-2.06,4.57-3.45,5.95-6.05l-0.18,0.18c3.76-1.23,6.62-3.62,8.81-6.87L246.53,906.65z"/>
	<path class="st0" d="M315.91,1114.31c-0.69,2.19,0.56,4.04,1.13,5.97c1.53,5.19,3.93,10.12,4.95,15.47
		c1.09,5.69,1.15,11.4-0.63,17.15c-3.13,0.03-6.12,0.45-9.11,0.82c-3.83,0.47-7.75,0.17-11.35-1.16
		c-5.61-2.08-10.34-5.41-12.59-11.35c-0.85-2.23-1.86-4.4-2.56-6.68c-1.85-6.04-1.43-11.94,1.67-17.5c1.4-2.51,6.84-4.16,9.43-2.62
		c3,1.78,5.64,2.6,8.47-0.12c0.38-0.36,1.21-0.31,1.83-0.33c1.26-0.05,2.32-0.22,3.5-1.02c2.49-1.68,3.13-1.34,5.33,1.52
		L315.91,1114.31z"/>
	<path class="st0" d="M177.51,610.9c1.35-1.89,2.86-3.68,2.11-6.35c-0.16-0.57,0.54-1.43,0.92-2.11c1.54-2.77,3.03-5.57,4.72-8.25
		c0.87-1.38,2.01-2.66,3.24-3.74c2.29-2.01,4.19-4.32,5.99-7.11c-0.98-0.17-1.96-0.34-3.02-0.53c-1.46-1.71-0.37-3.93-1.07-5.89
		c-0.65-1.81-0.1-3.96-1.75-5.66c-0.86-0.89-0.73-2.49-0.38-3.7c1.38-4.69,3.47-9.08,6.06-13.87c1.98,2.75,3.5,5.27,4.6,7.74
		c1.22,2.76,0.97,6.14,1.57,9.21c0.58,2.98-0.4,5.89-0.15,8.92c-0.76,0.66-1.55,1.35-2.35,2.04c0.8,1.14,1.93-0.37,2.8,0.83
		c-0.23,4.62-0.76,9.51-0.81,14.34c-0.05,5.79-2.06,10.88-3.58,16.19c-0.47,1.67-1.09,3.29-1.93,4.86c-0.96,1.8-1.73,3.82-2.04,5.83
		c-0.67,4.41-2.3,8.12-6.17,10.63c-0.36,0.23-0.56,0.71-0.77,0.98c-5.16-1.24-9.88-3.68-14.99-4.13c-1.61-0.88-1.39-2.57-2.07-3.73
		c-1.2-0.51-2.36-1.01-3.54-1.51c-0.41-0.47,0.07-0.81,0.23-1.16c0.97-2.14,3.26-0.72,4.83-1.82c2.11-5.16,2.85-11.16,6.96-15.76
		c1.38,1.39,0.01,2.74,0.69,3.86c-1.65,1.77-1.65,1.77-1.4,4.26C176.85,613.57,177.78,612.44,177.51,610.9z M172.45,630.18
		c0-2.55,0-4.66,0-7.02c-0.91,1.28-2.45,1.38-3.16,2.85C171.64,626.29,169.97,629.09,172.45,630.18z"/>
	<path class="st0" d="M300.45,1160.11c5.47,2.39,11.15,3.87,16.97,4.82c4.66,0.76,7.84,3.34,9.56,7.73
		c0.23,0.59,0.26,1.36,0.66,1.79c4.69,4.9,4.02,11.12,4.19,17.09c0.05,1.71-0.32,3.53-0.93,5.14c-1.29,3.35-4.89,5.37-8.56,4.67
		c-5.01-0.95-9.88-2.4-13.8-5.95c-0.34-0.31-0.73-0.6-1.14-0.76c-6.21-2.46-10.02-7.04-12-13.32c-0.36-1.13-0.44-2.53-1.89-3.08
		c-0.96-0.36-0.7-1.37-0.78-2.06c-0.18-1.58-0.01-3.2-0.2-4.78c-0.64-5.4,1.78-8.74,6.8-10.43
		C299.73,1160.8,300.05,1160.41,300.45,1160.11z M330.63,1190.79c0.25-1.65,0.25-1.65-0.47-2.95
		C330.34,1188.97,330.46,1189.73,330.63,1190.79z"/>
	<path class="st0" d="M358.87,1199.4c0.54-0.44,1.08-0.89,1.64-1.34c0.22,0.61,0.43,1.18,0.63,1.76c0.4,0.02,0.5-0.19,0.51-0.62
		c0.13-6.06-0.2-12.08-1.61-18.01c-1.34-5.66-3.47-10.92-7.54-15.22c-0.32-0.33-0.46-0.83-0.86-1.59c0.97-0.65,2.02-1.22,3.16-1.57
		c3.82-1.17,7.51-2.54,10.8-4.92c1.75-1.26,2.82-1.1,4.14,0.56c1.01,1.28,2.22,2.31,3.44,3.28c4.83,3.83,6.89,9.04,7.68,14.89
		c0.57,4.23,0.65,8.49-0.73,13.3c1.74-1.66,1.83-3.16,1.85-4.7c0.05-3.19,0.03-6.39,0.18-9.58c0.15-3.04-0.75-5.87-2.55-8.07
		c-2.62-3.18-3.11-7.28-5.7-10.46c2.41-2.02,4.92-2.26,7.4-1.71c2.75,0.61,5.6,1.23,7.57,3.62c1.04,1.27,1.91,2.52,1.59,4.29
		c-0.63,3.48-0.36,7.24-3.36,9.96c-0.39,0.35-0.37,1.18-0.49,1.8c-0.64,3.33-1.8,6.53-2.56,9.85c-1.27,5.59-4.39,10.22-10.09,12.49
		c-0.29,0.12-0.71,0.14-0.86,0.35c-3.11,4.43-8.4,4.82-12.78,6.89c-1.04,0.49-2.41,1.14-3.23-0.53l-0.11,0.13
		c1.02-1.53,1.89-3.12,2.03-5L358.87,1199.4z"/>
	<path class="st0" d="M357.09,1204.12c-5.49,0.65-10.97,1.61-16.53,0.98c-2.07-0.24-4.05-0.89-5.88-1.89
		c-2.36-1.29-2.97-2.65-1.94-5.07c2.39-5.57,1.71-11.29,0.7-16.9c-0.81-4.51-2.38-8.9-4.14-13.22c1.25-1.16,2.84-1.52,4.4-1.23
		c4.64,0.86,9.2-0.07,13.75-0.59c2.06-0.24,3.42,0.33,4.47,1.85c1.72,2.48,3.37,5.01,4.96,7.59c1.35,2.19,1.89,4.62,2.28,7.19
		c0.84,5.57,0.73,11.06-0.29,16.57l0.14-0.16c-1.63,1.28-1.87,3.13-2.03,5L357.09,1204.12z"/>
	<path class="st0" d="M362.83,1139.57c-1.05-4.8-2.23-9.57-3.12-14.4c-1.46-7.99-3.13-12.26-8.44-20.5
		c7.38-4.06,15.43-2.52,19.12,4.23c2.79,5.1,3.36,10.92,2.65,16.67c-0.43,3.43-2.59,6.25-5.36,8.21
		C365.47,1135.32,363.94,1137.08,362.83,1139.57z"/>
	<path class="st0" d="M357.09,436.03c1.09-2.07,0.83-4.7,2.65-6.46c1.76-0.95,2.19-2.55,2.24-4.4c0.03-1.21-0.42-2.55,0.63-3.57
		c1.1-0.41,2.29,0,2.47,0.83c0.67,3.12,4.98,3.6,4.95,7.06c-0.01,0.72,0.08,1.44-0.38,2.22c-0.89,1.5-1.6,3.13-2.88,4.33
		c-2.14,2-3.54,4.39-4.59,7.11c-0.98,2.52-2.49,4.77-4.71,6.35c-1.28-0.19-2.15-0.92-2.97-1.64c-2.07-1.79-2.4-4.83-0.44-6.7
		C355.59,439.69,356.93,438.26,357.09,436.03z"/>
	<path class="st0" d="M176.74,283.07c-1.69,2.15-3.26,3.95-4.13,6.22c-1.04,2.71-0.2,5.25,2.52,6.08c2.33,0.71,4.38,1.7,6.35,3.11
		c1.37,0.99,2.98,1.55,4.73,0.55c0.24-0.14,0.83,0.34,1.57,0.67c-0.72,2.32-0.17,4.92-1.84,7.14c-1.16,0.28-2.3,0.35-3.39-0.61
		c-0.83-0.73-1.92-1.03-2.99-1.4c-2.75-0.94-5.1-2.54-6.59-5.17c-0.39-0.69-0.71-1.59-1.32-1.97c-3-1.85-2.27-4.88-2.61-7.59
		c-0.32-2.52,1.38-4.19,2.6-5.98C172.91,282.28,174.14,282.12,176.74,283.07z"/>
	<path class="st0" d="M0.81,282.98c2.45-6.88,4.41-7.89,10.85-8.39c2.05-0.16,4.16-0.28,6.16,0.5c1.39,0.54,1.88,2.14,0.81,3.06
		c-2.61,2.25-4.85,5.14-8.86,5.09c-1.4-0.02-2.81,0.54-4.23,0.76C3.84,284.28,3.77,284.23,0.81,282.98z"/>
	<path class="st0" d="M511.54,216.35c2.31-0.38,3.2,0.62,3.73,2.09c0.64,1.79,1.31,3.57,1.82,5.4c1.05,3.74-0.67,6.86-2.71,9.68
		c-1.27,1.76-3.43,1.15-5.45,0.9C506.44,227.87,511.57,222.62,511.54,216.35z"/>
	<path class="st0" d="M31.29,199.08c4.17,0.73,7.63,1.54,11.01,2.79c0.89,0.33,0.74,0.97,1.03,1.6c0.77,1.69,2.02,3.16,3.03,4.75
		c0.72,1.12,1.1,2.33,0.29,3.56c-0.97,1.47-2.33,1.07-3.81,0.95c-2.6-0.21-3.57-2.49-5.25-3.78
		C34.56,206.62,32.95,203.22,31.29,199.08z"/>
	<path class="st0" d="M4.1,240.77c4.68-6.04,10.9-6.78,17.67-2.01c-2.26,3.08-5.84,4.17-9.01,4.27C10,243.13,6.25,244.14,4.1,240.77
		z"/>
	<path class="st0" d="M110.52,221.77c0-3.97,0-7.42,0-10.63c1.2-0.91,2.23-0.95,2.83-0.08c1.61,2.31,3.44,4.59,4.44,7.17
		c0.82,2.12,0.74,4.68-0.22,6.95c-0.55,1.29-2.35,1.68-3.08,0.48C113.45,223.95,111.6,223.22,110.52,221.77z"/>
	<path class="st0" d="M551.53,237.43c-2.87-0.1-2.91-2.09-3.74-3.57c-2.99-5.35-0.9-10.39,0.59-15.96c2.32,2.41,3,5.23,3.3,7.87
		C552.13,229.53,553.3,233.44,551.53,237.43z"/>
	<path class="st0" d="M461.03,326.58c0.52,0.68,1.03,1.35,1.55,2.03c0.11,2.19,0.79,4.04,2.98,4.99l-0.15-0.18
		c-0.07,1.97-0.45,4.02,1.95,5.1c0.66,0.3,1.28,0.93,1.05,1.9c-0.91,0.39-1.45-0.23-2.01-0.74c-1.41-1.29-2.84-2.55-4.18-3.91
		c-1.1-1.11-1.8-2.38-2.29-3.98c-0.68-2.2-1.37-4.52-2.99-6.41c-0.87-1.01-1.38-2.17-0.82-3.88c0.48-1.47-1.24-2.78-2.16-4.01
		c-1.07-1.42-0.96-2.56,0.43-4.01c1.85,1.37,3.04,3.24,3.23,5.39C457.88,321.91,459.46,324.21,461.03,326.58z"/>
	<path class="st0" d="M439.8,258.25c1.65,3.58,2.82,7.27,2.71,11.26c-0.02,0.63,0.01,1.27-0.05,1.9c-0.07,0.7-0.52,1.2-1.16,1.36
		c-0.67,0.17-1.28-0.17-1.57-0.77c-1.63-3.36-2.63-6.85-1.51-10.58C438.55,260.33,438.11,258.74,439.8,258.25z"/>
	<path class="st0" d="M159.46,915.18l0.22,0c1.96,1.91,4.01,3.7,6.38,5.09c0.52,0.8,1.25,1.22,2.21,1.25
		c1.73,1.59,3.35,3.24,3.59,6.16c-3.37-1.01-5.65-2.96-7.86-4.9c-1.79-1.56-3.33-3.41-4.93-5.17c-0.6-0.66-0.64-1.41,0.13-2.05
		L159.46,915.18z"/>
	<path class="st0" d="M21.82,314.93c1.3-4.38,4.59-7.18,8.68-7.28c0.02,1.67,0.49,3.44-1.09,4.69
		C27.23,314.09,25.05,316.05,21.82,314.93z"/>
	<path class="st0" d="M563.91,227.25c1.1,1.85,1.44,3.7,1.19,5.62c-0.3,2.31-2.04,3.17-4.12,2.11c-0.56-0.29-1.11-0.62-1.58-1.03
		c-1.15-1.01-1.19-2.23-0.01-3.23C560.82,229.5,562.37,228.42,563.91,227.25z"/>
	<path class="st0" d="M251.24,91.81c5.98-0.05,10.85,2.77,16.13,5.22C263.2,98.32,255.82,95.87,251.24,91.81z"/>
	<path class="st0" d="M484.47,342.77c5.17-2.5,9.07-5.61,14.56-5.26c-0.5,0.82-0.79,1.36-1.15,1.87c-0.18,0.25-0.45,0.59-0.7,0.61
		C493.12,340.2,489.71,343.07,484.47,342.77z"/>
	<path class="st0" d="M211.22,440.38c-1.87,4.34-3.66,8.45-6.68,11.76c-0.44,0.48-0.82,0.96-1.55,0.92
		c-0.97-1.23-0.57-2.33,0.32-3.38C205.95,446.58,208.59,443.48,211.22,440.38z"/>
	<path class="st0" d="M136.21,885.39c1.65,2.79,3.09,5.71,5.57,7.92c0.25,0.66,0.24,1.31-0.59,1.37c-0.76,0.06-1.53-0.15-2.59-0.28
		c-1.08-2.65-3.51-4.83-3.31-8.18C135.33,885.63,135.77,885.53,136.21,885.39z"/>
	<path class="st0" d="M157.34,846.95c-0.34,1.2-0.68,2.4-1.02,3.6c-1.25,0.83-2.16-0.18-3.03-0.67c-1.58-0.9-2.06-2.69-0.92-3.96
		c0.9-1,1.5-2.5,3.14-2.69c0,0-0.15-0.11-0.15-0.11c0.1,1.06,0.14,2.14,0.33,3.19c0.18,0.98,0.89,1.11,1.74,0.79L157.34,846.95z"/>
	<path class="st0" d="M294.59,920.91c1.01,3.45,0.82,6.86,1.05,10.62C293.5,927.59,293.29,925.23,294.59,920.91z"/>
	<path class="st0" d="M220.2,59.49c-1.09-0.3-2.06-0.69-1.47-2.14c1.59-1.28,3.15-2.6,4.8-3.8c0.65-0.47,1.47-0.52,2.19,0.73
		C223.4,55.45,221.86,57.53,220.2,59.49z"/>
	<path class="st0" d="M344.07,987.56c3.13,1.06,5.8,2.7,7.88,5.2C348.63,992.07,345.8,990.61,344.07,987.56z"/>
	<path class="st0" d="M159.46,915.18l-0.28,0.38c-2.34,0.83-3.86-0.77-5.26-2.08c-0.92-0.86-1.04-2.31,0.6-3.04l-0.16-0.1
		c1.31,1.87,2.67,3.67,4.95,4.46L159.46,915.18z"/>
	<path class="st0" d="M250.46,438.73c3.01-1.99,5.62-1.82,9.05-2.27C256.57,439.37,253.83,438.5,250.46,438.73z"/>
	<path class="st0" d="M526.61,356.62c-3.24-1.56-4.01-4.63-6.13-7.77C523.43,350.27,523.78,350.75,526.61,356.62z"/>
	<path class="st0" d="M55.26,240.06c0.93,1.65,0.24,3.58,1.51,5.53c-2.06-0.37-2.98-1.32-3.93-2.32c0.38-1.45,1.35-2.36,2.56-3.08
		L55.26,240.06z"/>
	<path class="st0" d="M450.16,568.65c-2.52-1.06-3.41-3.74-5.36-5.37c2.53,1.07,4.76,2.43,5.26,5.45L450.16,568.65z"/>
	<path class="st0" d="M217.14,923.21c-0.09-0.34-0.18-0.68-0.27-1.03c1.28-0.31,2.37,0.3,3.35,0.92c0.8,0.51,1.6,0.72,2.49,0.81
		l-0.13-0.14c-0.03,0.3,0,0.62-0.11,0.88c-0.12,0.26-0.38,0.46-0.76,0.9C220.23,924.8,218.68,924.01,217.14,923.21z"/>
	<path class="st0" d="M406.05,828.61c0.59-0.86,1.19-1.71,1.78-2.57c1.66,2.16-0.75,2.94-1.63,4.32
		C406.16,829.78,406.1,829.19,406.05,828.61z"/>
	<path class="st0" d="M58.35,317.99c-0.12,1,1.28,1.4,0.97,2.47c-2.8-0.52-2.8-0.52-4.21-2.86c1.35-1.03,2.18,1.05,3.42,0.57
		L58.35,317.99z"/>
	<path class="st0" d="M303.99,958.81c-1.83-1.13-3.02-2.77-3.89-5.69C302.75,954.79,303.29,956.82,303.99,958.81z"/>
	<path class="st0" d="M331.09,977.5c-0.08,0.52-0.42,0.88-0.9,0.81c-1.83-0.28-3.67-0.58-5.06-2.33c2.44-0.58,3.88,2.07,6.1,1.68
		L331.09,977.5z"/>
	<path class="st0" d="M74.5,329.65c1.41,0.91,3.21,1.25,4.09,2.91c-1.41,0.24-2.66-0.07-3.78-0.98
		C74.11,331.01,74.02,330.39,74.5,329.65z"/>
	<path class="st0" d="M181.64,340.61c-1.64-2-0.55-3.21,0.14-5.2C182.01,337.48,182.21,338.79,181.64,340.61z"/>
	<path class="st0" d="M239.25,1006.64c-1.52-1.14-1.52-2.29-0.98-3.61C239.56,1003.81,239.51,1004.99,239.25,1006.64z"/>
	<path class="st0" d="M191.37,296.29c-0.05,1.01,0.83,2.14-0.72,3.35C190.95,298.26,191.16,297.27,191.37,296.29z"/>
	<path class="st0" d="M123.49,271.46c0.44,0.54,0.89,1.07,1.33,1.61c-0.08,0.45-0.16,0.89-0.33,1.86c-1.15-0.89-1.96-1.65-2.02-2.91
		C122.44,271.51,122.99,271.39,123.49,271.46z"/>
	<path class="st0" d="M277.97,107.94c-1.79-0.76-1.32-2-1.27-3.35C278.58,105.4,278.63,106.49,277.97,107.94z"/>
	<path class="st0" d="M279.32,916.16c-1.1-1.99-1.09-3.67,0.02-5.77l-0.14-0.08c0,1.98,0,3.95,0,5.93L279.32,916.16z"/>
	<path class="st0" d="M128.46,271.82c0.14-0.41,0.29-0.82,0.43-1.23c1.46,0.46,1.63,1.6,2,2.8c-1.68,0.31-1.81-1.1-2.53-1.73
		L128.46,271.82z"/>
	<path class="st0" d="M176.92,671.84c-1.24-1-0.46-1.75,0.18-2.78C177.55,670.22,177.12,671.01,176.92,671.84z"/>
	<path class="st0" d="M187.83,584.37c0.27,0.1,0.69,0.13,0.78,0.32c0.38,0.8,0.01,1.42-0.66,1.89c-0.33,0.23-0.5,0.09-0.64-0.31
		C187.02,585.49,187.01,584.83,187.83,584.37z"/>
	<path class="st0" d="M151.86,787.29c0.06-0.91,0.12-1.82,0.26-3.88c0,2.04,0,2.95,0,3.86
		C152.03,787.28,151.94,787.28,151.86,787.29z"/>
	<path class="st0" d="M441.83,561.05c-0.94-0.77-1.88-1.53-2.81-2.29c0.2-0.61,0.7-0.66,1.02-0.42c0.84,0.65,1.59,1.41,2.38,2.13
		C442.22,560.66,442.02,560.86,441.83,561.05z"/>
	<path class="st0" d="M204.68,277.88c1.52-1.36,2.32-2.07,3.12-2.78C207.74,276.52,207.05,277.35,204.68,277.88z"/>
	<path class="st0" d="M296.95,533.9c-1.19,0.31-1.65-0.44-1.92-1.38c-0.21-0.73-0.34-1.48-0.5-2.22c1.8-0.57,3.56-1.79,5.54-0.44
		c-0.25,0.52-0.44,0.92-0.63,1.33C298.61,532.1,297.78,533,296.95,533.9z"/>
	<path class="st0" d="M285.43,846.84c-4.07-10.67-9.8-20.84-9.28-32.6c-1.5-0.78-2.29,0.7-3.67,0.29c0.82-1.93,2.69-2.49,4.47-4.11
		c1.43,6.58,1.64,12.83,3.26,18.87C281.8,835.2,284.78,840.67,285.43,846.84z"/>
	<path class="st0" d="M248.56,830.76c1.09,0.17,1.79-1.26,3.25-0.69c-1.06,1.86-2.64,2.75-4.85,3.58c0.05-1.63,1.65-1.97,1.79-3.07
		L248.56,830.76z"/>
	<path class="st0" d="M293.71,527.34c0.54,0.95,1.13,1.88,0.96,3.06c-1.01-1.17-2.25-2.01-4.16-2.4
		C291.87,527.32,292.77,527.24,293.71,527.34z"/>
</g>
</svg>
