<?xml version="1.0" encoding="utf-8"?>
<!-- Generator: Adobe Illustrator 24.0.2, SVG Export Plug-In . SVG Version: 6.00 Build 0)  -->
<svg version="1.1" id="Layer_1" xmlns="http://www.w3.org/2000/svg" xmlns:xlink="http://www.w3.org/1999/xlink" x="0px" y="0px"
	 width="1031.26" height="753.89" viewBox="0 0 1031.26 753.89" style="enable-background:new 0 0 1031.26 753.89;" xml:space="preserve">
<g>
	<path d="M0,339.41c12.27,3.44,21.82,11.9,33.05,17.91c0.84-2.85,0.91-5.3,0.41-7.41c-2.27-9.45-0.62-18.74,1.28-27.88
		c2.67-12.9,4.95-25.92,8.83-38.55c5.49-17.87,8.79-36.4,16.11-53.7c3.51-8.3,7.35-16.86,13.15-23.45
		c8.58-9.74,17.02-19.83,27.5-27.84c3.11-2.38,5.99-5.16,8.95-7.79c13.33-11.86,26.38-24.05,39.9-35.68
		c8.32-7.16,16.91-13.99,24.64-21.8c7.25-7.33,11.4-16.01,12.98-26.33c0.72-4.7,0.39-9.45,1.5-14.17c0.64-2.68,1.96-5.06,2.9-7.4
		c1.78-4.44,1.15-8.67,1.11-13.64c11.38,17.94,20.95,36.14,26.58,57.16c3.27-4.01-1.37-7.7,1.59-11c1.76,2.66,1.98,5.8,2.61,8.53
		c1.33,5.71,1.93,11.61,2.6,17.47c0.95,8.28,1.16,16.56,0.75,24.81c-0.49,9.82-1.3,19.63-2.66,29.42
		c-1.94,13.94-4.74,27.65-8.24,41.23c-3.53,13.7-7.26,27.36-11.14,40.97c-2.55,8.95-5.35,17.78-5.89,27.18
		c-0.48,8.27,2.59,15.44,6.56,22.27c1.31,2.24,2.36,4.66,4.22,7.18c5.3-9.8,5.19-20.35,5.89-30.86c2.43,4.48,2.96,9.41,4.39,14.05
		c2.45,7.93,5.06,15.71,9.35,23.02c3.85,6.56,5.89,14.15,9.66,20.84c5.26,9.35,10.74,18.58,16.52,28.54
		c1.47-3.57,2.8-6.17,2.05-9.44c-1.12-4.84-1.14-9.7,0.67-14.39c4.28,11.62,8.44,23.27,13.44,34.59
		c5.41,12.23,10.76,24.48,16.35,36.62c4.36,9.46,11.43,16.11,21.2,20.08c10.86,4.41,21.56,9.21,32.3,13.92
		c1.63,0.71,3.32,1.58,4.55,2.81c2.32,2.32,5.03,1.64,8.19,2.06c-3.29-5.9-8.6-9.47-11.45-15.35c4.85,0.77,9.43,0.23,13.93-0.54
		c4.52-0.77,9.04,2.61,13.5-0.3c-1.48-1.85-4.16-2.06-6.58-4.46c22-0.83,42.87,1.39,64.53,5.13c-5.02-6.72-11.44-10.75-16.03-17.54
		c10.11,2.81,19.91,2.05,29.66,2.26c9.91,0.22,18.19-3.03,24.99-10.37c4.95-5.34,10.38-10.24,14.94-15.96
		c0.64-0.8,1.07-1.64,1.51-2.51c7.78-15.68,17.1-30.43,26.46-45.2c7.44-11.75,16.41-22,25.67-32.23
		c6.19-6.84,13.09-12.86,19.61-19.3c3.35-3.3,6.97-6.43,10.68-9.23c5.8-4.37,10.11-10.04,14.56-15.46
		c3.89-4.73,8.11-9.24,12.38-13.41c12.69-12.39,25.35-24.81,37.97-37.27c5.97-5.89,10.92-12.71,17.03-18.3
		c-0.49-1.78-2.75-2.22-2.56-4.52c3.1,0.03,6.14,1.41,9.35-0.16c3.7-1.81,7.4-3.49,10.31-6.46c5.93-6.06,11.6-12.29,16.65-19.18
		c2.69-3.68,6.17-7.77,11.98-7.54c2.37,0.09,4.05-1.91,5.74-3.42c1.04-2.64-2.7-5.79,0.7-8.7c3.88,2.89,6.68,7.62,12.43,5.96
		c0.51-0.76-0.75-1.46,0.52-2.66c0.74-0.49,2.28-0.12,3.7-0.04c5.75,0.33,5.75,0.38,10.02-4.41c-0.42-2.87-3.82-5.07-2-8.64
		c5.09,3.38,10.83,3.41,16.86,4.17c0.02-1.82-3.02-3.91,0.1-4.88c1.84-0.57,3.93-0.32,6.18-0.46c0.77-3.22-1.58-4.81-3.57-5.67
		c-6.67-2.86-10.56-8.01-13.23-14.43c-1.43-3.45-3.7-6.48-5.1-9.98c-0.73-1.81-0.97-3.43-0.53-5.53c2.35,0.15,4.05,1.28,5.8,4
		c-0.71-5.59-5.05-8.06-6.93-11.63c1.52-1.98,2.72-1.37,4.27-0.91c5.63,1.69,11.44,2.62,17.26,3.29c5.45,0.63,6.26-0.12,8.06-5.29
		c0.32-0.93-0.23-2.04,0.82-2.9c0.75,1.38-0.01,2.95,0.53,4.15c0.62,1.36,0.76,2.81,1.28,4.48c1.85-3.11-1.55-5.75-0.2-8.47
		c6.11,5.79,6.16,6.04,4.4,15.09c-0.24,1.23,0.11,2.47,2.16,2.97c0.2-4.99,0.88-9.75-0.77-14.94c2.41,2.57,4.43,4.73,5.98,6.38
		c1.19,9.36-3.15,19.12,4.17,27.59c2.45-0.29,3.62-1.57,2.34-3.96c-1.07-2,0.07-3.09,1.4-4.62c-2.74-0.47-2.77-3.28-4.51-4.75
		c-0.89,1.69,0.1,3.56-1.06,5.21c0.72-5.7-0.57-11.35-0.36-17.17c1.69,5.96,9.22,4.23,11.31,9.32c0.27-3.51-1.53-6.4-1.81-9.87
		c2.39,2.33,4.67,4.6,7.47,6.27c3.64,2.18,5.01,2.18,7.39-1.42c1.2-1.81,3.01-3.4,2.82-6.1c-0.22-3.17,3.7-3.73,4.66-6.35
		c3.34-9.09,8.68-17.18,12.87-25.85c0.67-1.39,1.38-2.61,3.07-3.48c0,2.16-1.58,4.08-0.27,6.21c2.07-0.7,3.28-2.78,4.9-4.26
		c8.05-7.42,17.91-12.3,26.4-19.1c4.19-3.35,8.75-6.25,13.01-10.11c0.52,4.8-2.06,8.48-2.9,12.34c2.94,1.7,3.86-1.13,5.63-1.63
		c1.73-0.49,2.36-3.44,4.93-2.46c1.51,1.15-1.42,2.34,0.63,3.88c5.78-6.97,10.13-15.02,16.18-22.05c-1.77-1.6-2.31-3.26-0.73-5.07
		c4.86-5.56,7.79-12.45,12.48-18.14c3.62-4.39,7.35-8.56,13.56-8.92c2.02-0.12,0.07-3.51,2.09-2.71c1.85,0.73,2.34-0.84,3.88-1.21
		c0.55,3.78,1.92,7.34,1.15,11.46c2.2-0.9,0.43-2.96,2.4-3.78c-0.96,7.78,1.03,15.22,0.99,22.82c-0.04,6.39,1.79,12.64,2.26,19.04
		c0.37,5.06,2.09,10.11,1.52,15.14c-0.73,6.44,2.43,10.77,6.33,15c1.58,1.71,3.24,3.35,5.13,5.28c3.09-2.44,4.37-5.99,6.35-8.91
		c1.47,0.32,1.83,0.75,1.72,2.37c-0.31,4.48,1.32,8.79,1.82,13.2c0.51,4.52,6.03,5.64,5.73,11.32c9.71-4.64,16.5-11.86,25.18-16.1
		c8.93-4.36,17.69-9.23,25.99-14.68c8.19-5.37,17.65-8.48,25.17-14.75c3.51,2.76,2.62,6.06,1.7,9.69
		c-3.94,15.65-13.32,28.57-20.96,42.36c-3.32,6-6.58,12.04-9.95,18.01c-0.84,1.48-0.04,3.05-0.58,4.49
		c-1.36,3.64-1.86,7.7-5.26,10.31c-0.81,0.62-1.66,1.55-1.16,2.54c1.2,2.38-0.53,3.16-1.97,4.17c-1.79,1.26-2.83,3.31-1.92,5.05
		c1.47,2.83,0.2,5.07-0.53,7.52c-1.07,1.01-1.72-0.56-2.98-0.39c-2.12,2.58-3.05,5.74-2.69,9.75c-3.28-1.22-4.42,0.76-5.51,3.06
		c-2.98,6.29-1.06,12.12,1.5,17.91c1.38,3.13,2.94,6.14,3.13,9.73c0.14,2.54,2.16,4.34,4.62,6.57c-5.61,0.61-5.92,4.24-5.7,8.04
		c0.12,2.06-1.04,3.75-1.23,5.75c-0.14,1.52-2.54,0.57-3.69,2.29c-3.43,5.13-3.3,10.2-1.66,15.79c2.11,7.16,3.07,14.61,6.15,21.57
		c1.17,2.64,0.86,6.1,1.34,9.18c0.3,1.92-0.81,3.56-2.13,4.8c-6.78,6.41-14.75,11-23.75,13.17c-6.33,1.53-12.96,2.31-19.51,0.24
		c-5.04-1.59-8.74-5.24-12.39-8.6c-4.26-3.92-9.04-7.28-12.87-11.65c-1.35-1.54-2.82-2.26-4.82-1.48c0.26,2.04,2.48,2.3,3.51,3.49
		c-0.67,2-2.55,0.6-3.37,1.66c4.56,4.28,5.96,12.58,2.79,17.29c-1.88-1.57-1.44-5.34-5.26-5.25c0.27,1.51,1.43,3.26-0.61,4.56
		c-1.33,0.84-2.15,2.8-4.41,1.1c0.14,2.81,0.12,5.34,3.26,6.29c-2.73,2.32,0.79,4.71-0.59,7.36c2.46-1.05,3.6-2.64,4.68-4.33
		c1.29,1.51,0.14,2.79-0.55,3.54c-4.4,4.77-5.06,10.83-5.86,16.76c-2.1,15.52-7.71,29.65-16.82,42.3c-2.36,3.28-2.49,5.94,0.11,8.56
		c4.63,4.65,8.66,9.79,13.63,14.24c8.63,7.72,16.84,15.97,24.5,24.78c5.52,6.35,11.46,12.42,18.15,17.7
		c3.9,3.08,7.08,7.04,10.74,10.44c4.48,4.17,8.46,8.82,13.27,12.72c2.41,1.95,4.57,5.13,4.37,8.92c-0.64,12.13,1.31,24.17,1.17,36.3
		c-0.07,5.99,2.25,11.9,1.99,18.08c-0.08,1.89,1.06,3.81,3.09,5.1c1.92,1.22,3.28,3.29,5.04,4.82c1.41,1.22,1.78,2.63,1.72,4.4
		c-0.26,7.58,2,14.17,7.32,19.79c4.18,4.42,4.7,9.3,1.81,15.02c-2.24,4.42-4.36,9.04-4.32,14.42c0.03,3.96-2.82,7.21-4.86,10.51
		c-3.39,5.46-7.06,10.7-14.48,10.53c1.22-6.73,0.05-9.21-6.71-12.42c-4.55-2.16-7.76-5.98-11.83-8.73c-1.8-1.21-0.85-3.41-0.9-5.15
		c-0.16-4.89-0.19-5.23-5.1-6.05c-1.77-0.3-2.71-1.66-2.53-2.45c1.08-4.86-2.89-7.37-5.01-10.42c-3.18-4.58-3.85-9.63-4.27-14.71
		c-0.38-4.59-1.56-9.1-1.24-13.79c0.16-2.41-5.32-5.8-9.04-5.64c-6.69,0.28-13.27-0.82-19.92-1.09c-4.02-0.16-6.67-2.54-7.96-6.52
		c-0.94-2.9-3.49-4.71-5.32-6.93c-1.13-1.37-3.95-1.03-4.57,1.69c-0.58,2.54-2.39,4.61-2.24,7.49c0.08,1.6-0.88,3.47-3.28,4.52
		c-1.22-3.22-2.59-6.24-3.49-9.4c-0.62-2.19-1.64-3.91-3.89-3.73c-4.92,0.4-6.94-4.07-7.59-6.59c-2-7.78-7.73-11.46-13.37-15.65
		c-2.86,3.32-5.1,3.68-7.9,0.88c-2.51-2.51-6.58-2.85-8.11-6.84c-1.95-5.09-5.18-9.7-6.18-15.17c-0.39-2.13-1.51-2.66-3.42-2.73
		c-1.71-0.06-3.21,0.63-4.8,0.9c-3.37,0.57-6.82,0.7-11.14,1.09c2.66-1.88,2.37-4.46,3.08-7.01c-0.8-0.65-2.03-2.2-1.71-4.17
		c0.97-6.04-3.62-10.23-4.91-15.45c-2.13-8.59-10.32-8.96-16.1-12.51c-2.34-1.44-5.1-2.68-6.76-4.6c-3.77-4.36-8.6-7.17-13.17-10.35
		c-3.93-2.74-8.59-1.74-13.51-1.85c1.2,1.57,3.45,0.47,4,2.36c-2.4,5.49-7.68,8.12-12.19,11.44c-5.54,4.08-5.84,5.88-0.47,10.16
		c7.17,5.71,15.3,9.98,22.94,15c2.88,1.89,5.85,3.63,7.85,6.54c-1.03,2.44-3.46-0.78-4.68,1.34c1.48,3.17,3.91,5.85,6.04,8.68
		c5.17,6.88,6.1,14.05,2.94,22.08c-6.13,15.54-13.68,30.37-21.98,44.83c-5.36,9.33-11.45,18.26-16.09,27.99
		c-8.12,17-6.12,35.39,7.69,48.71c0.24,0.23,0.47,0.47,0.71,0.71c5.5,5.5,5.97,5.53,11.34-0.07c2.63-2.75,5.14-5.61,7.61-8.5
		c1.83-2.13,3.95-3.42,6.85-3.29c4.15,0.18,7.93-0.73,11.93-2.24c4.56-1.72,9.69-2.68,14.89-0.83c6.78,2.42,13.54,4.69,19.29,10.91
		c-3.86,0-6.89,0-10.14,0c0.41,3.19,1.68,4.49,4.39,5.57c4.48,1.77,8.64,4.46,11.74,8.79c-2.76,1.62-5.59,0.07-8.15,1.35
		c1.92,4.6,0.49,8.82-1.34,13.12c-3.36,7.92-8.45,14.54-15.01,19.96c-2.91,2.4-4.66,4.86-3.76,8.36c-1.15,2.27-4.24,0.42-4.82,2.8
		c-0.34,1.39-0.73,3.1,0.48,4.27c2.98,2.88,4.73,6.93,8.23,9.22c6.81,4.46,13.14,9.64,20.67,13.08c3.88,1.77,7.56,3.09,11.81,2.65
		c5.91-0.63,11.31,0.13,14.48,5.48c0.65,0.08,0.82,0.15,0.95,0.11c6.12-1.8,6.04-1.77,8.52,4.03c2.03,4.75,5.12,8.8,9.03,12.2
		c6.14,5.35,9.81,12.14,12.11,19.88c0.61,2.04,0.29,4.17,1.36,6.19c0.93,1.75-1.01,2.78-2.35,3.95c-1.66-4.2-5.53-5.61-8.88-7.51
		c-2.31-1.31-4.17-0.06-4.57,2.59c-0.99,6.58-5.63,11.09-11.73,13.2c-5.07,1.75-9.33-0.21-13.75-1.48c-2.35-0.67-3.41-0.75-4.6,1.7
		c-2.18,4.47-5.37,4.77-8.88,1.17c-2.03-2.08-4.85-2.36-7.25-2.39c-9.14-0.11-15.23-4.66-20.24-11.85
		c-3.19-4.59-8.16-7.7-11.39-12.43c-1.47-2.16-3.19-0.24-4.59,0.9c-1.13-2.87-4.27-3.46-6.17-5.46c-0.69-0.72-2.16-0.38-3.3,0.15
		c-4.69,2.16-13.43-0.42-15.76-4.82c-0.82-1.54-0.59-3.89-3.22-3.52c-2.22,0.32-2.31,2.54-3.07,4.1c-0.27,0.55-0.09,1.31-1.09,1.8
		c-3.64-1.72-3.3-5.48-3.94-8.67c-0.65-3.26-0.67-3.35-4.7-2.78c-2.28-3.81-4.56-7.57-3.46-12.47c0.54-2.42-1.21-3.05-3.37-3.08
		c-1.69-0.02-2.18,2.11-4.6,1.81c-0.29-5.8-5.12-9.18-8.29-13.66c-0.28-0.4-0.42-0.88-0.65-1.32c-3.32-6.54-5.1-6.96-11.29-3
		c-5.22,3.35-10.94,5.97-15.3,11.01c1.45-3.06-1.54-3.81-2.32-5.72c0.9-1.53,1.04-3.3,0.96-5.12c-0.17-3.8-2.76-5.47-5.94-3.38
		c-3.41,2.24-7.01,4.38-9.66,7.55c-3.16,3.79-3.48,8.66-4.38,13.26c-0.3,1.55,0.3,3.21-0.63,5.55c-2.02-6.54-5.69-11.52-8.43-17.02
		c-3.63-7.3-5.05-15.4-8.71-22.7c-0.92-1.84-1.94-3.36-3.29-4.73c-1.11-1.12-1.99-2.93-4.04-2.41c-2.34,0.6-1.81,2.81-2.1,4.64
		c-5.18,0.62-9.2,0.02-13.22-4.22c-4.08-4.29-10.32-6.19-15.92-8.43c-8.12-3.25-12.67-9.27-12.67-17.86c0-4.81-0.74-9.86,3.92-13.3
		c1.96-8.25,4.83-16.44,2.05-25.05c-1.44-4.44-3.83-8.27-7.88-10.83c-2.34-1.48-4.5-1.64-5.3,1.6c-0.83,3.36-3.54,5.38-5.26,8.51
		c-0.37-1.13-0.61-1.89-0.99-3.06c-5.81,5.11-8.86,11.7-11.31,18.53c-2.55,7.13,0.3,14.1,2.09,21.83
		c-7.36-2.87-10.19-9.72-15.98-12.91c-1.01,1.51,1.47,1.9,1.2,3.17c-2.66,1.15-3.28-1.76-5.03-2.3c-1.48,0.79,1.28,2.14-0.81,3.05
		c-3.76-2.33-8.64-2.18-12.86-4.35c-4.27-2.2-8.88-3.81-11.09-8.63c-0.19-0.42-0.64-1-1.01-1.03c-6.89-0.69-11.57-5.31-16.63-9.26
		c-0.08-0.07-0.31,0.05-0.93,0.17c0,3.26,0,6.65,0,10.38c-4.97-1.48-7.11-5.46-9.5-8.7c-0.77-1.04-2.01-2.42-2.66-4.05
		c-1.17-2.96-2.5-5.82-1.95-8.9c0.98-5.45-3.89-8.81-3.63-14.12c-2.42,1.46,0.12,2.4-0.88,3.54c-5.98-2.73-4.81,3.65-7.08,5.99
		c-1.74-3.19,1.84-6.08-0.26-9.66c-6.28,2.97-13.22,2.01-20.11,2.67c3.28-1.98,7.19-2.53,9.63-6.03c-1.23-5.9-1.89-12.14-1.66-18.4
		c0.19-5.13-1.63-9.72-2.74-14.53c-0.79-3.45-3.02-5.82-4.94-8.33c-1.81-2.36-4.95-1.54-7.38-0.62c-3.71,1.41-7.45,2.43-11.42,2.42
		c-3.6-0.01-6.05,2.2-7.67,4.78c-4.42,7.04-9.31,13.69-14.33,20.31c-4.02,5.31-9.06,9.41-13.81,14.01c-0.4-4.47,0.76-8.4,2.4-13.22
		c-3.83,0.94-7.17,2.05-9.65,4.27c-6.62,5.92-13.15,11.84-22.02,14.24c-1.94,3.87-5.66,2.16-8.49,3.09
		c-4.16,1.37-8.78,1.92-12.52,4.07c-3.01,1.74-6.23,3.45-9.32,4.03c-2.47,0.46-3.23,3.15-5.9,2.92c-1.04-0.09-2.4,0.48-4.15,0.3
		c6.11-4.25,9.6-10.24,13.76-15.63c0.52-0.67,2.68-2.77-0.72-2.94c0.63-1.82,0.94-3.84,1.95-5.42c1.73-2.71,1.14-5.62,2-9.28
		c-8.09,3.73-15.15,7.49-22.13,11.45c-5.56,3.16-11.17,6.46-18.07,5.08c-1.11-0.22-2.21,0.04-3.32,0.69
		c-1.31,0.76-3.61,0.29-4.32,0.61c-4.28,1.95-8.9-0.27-13.02,1.61c-1.66,0.76-3.08,1.1-5.1,0.34c-1.99-0.75-4.57-0.92-6.71,0.58
		c-2.05,1.44-4.52,1.54-6.71,1.05c-6.74-1.51-13.54-0.66-20.31-0.93c-0.77-0.03-1.66,0.21-2.74-1.57
		c8.86-0.15,16.62-3.19,24.53-5.64c-1.93-3.07-4.98-2.94-8.07-2.78c-8.63,0.44-17.15-1.32-25.8-1.1
		c-12.21,0.31-24.27-1.42-35.81-5.59c-4.3-1.55-7.95-4.51-11.54-7.37c-7.53-5.99-14.75-12.43-22.68-17.82
		c-4.49-3.05-8.1-7.75-13.52-9.09c-9.17-2.26-17.68-6.58-26.76-8.78c-9.86-2.39-19.35-5.97-29.45-7.8
		c-8.85-1.6-17.75-3.71-26.51-6.03c-5.77-1.53-10.92-4.06-12.5-11.03c-0.57-2.52-2.65-4.91-4.06-7.35
		c-1.91-3.3-2.73-7.18-5.37-10.05c-2.65-2.88-4.3-6.4-6.48-9.56c-5.34-7.73-8.42-16.54-12.27-24.95c-4-8.74-7.49-17.72-11.8-26.33
		c-7.38-14.75-13.91-29.85-19.52-45.35c-1.85-5.1-4.37-9.86-7.34-14.35C7.06,343.04,3.43,341.32,0,339.41z M685.65,607.88
		c1.72-1.56,1.08-4.35,2.26-5.34c4.04-3.37,3.85-7.93,3.43-12.05c-1.42-13.73-7.55-25.4-17.1-35.28c-3.33-3.44-4.46-3.34-6.36,0.94
		c-4.22,9.51-7.55,19.34-9.81,29.53c-1.14,5.13-0.1,8.1,3.96,11.13C669.19,602.15,677.52,604.88,685.65,607.88z"/>
</g>
</svg>
