<?xml version="1.0" encoding="utf-8"?>
<!-- Generator: Adobe Illustrator 24.0.2, SVG Export Plug-In . SVG Version: 6.00 Build 0)  -->
<svg version="1.1" id="Layer_1" xmlns="http://www.w3.org/2000/svg" xmlns:xlink="http://www.w3.org/1999/xlink" x="0px" y="0px"
	 viewBox="0 0 1896.9 1450.34" style="enable-background:new 0 0 1896.9 1450.34;" xml:space="preserve">
<style type="text/css">
	.st0{fill:#1A1A1A;}
</style>
<g>
	<path d="M302.52,1381.28c-2.36,0.62-3.26,2.35-4.57,3.53c-6.69,6.08-14.01,5.88-19.35-1.38c-2.1-2.86-1.93-5.96-1.11-9.38
		c1.42-5.88,4.93-10.66,7.99-15.56c4.86-7.78,7.53-16.26,9.32-25.03c1.28-6.25,2.66-12.65,2.02-19.06
		c-0.96-9.75-2.5-19.44-4.36-29.08c-2.69-13.93-7.9-26.89-14.66-39.25c-5.01-9.16-10.36-18.14-15.81-27.04
		c-1.71-2.79-3.64-5.63-4.81-8.5c-2.61-6.4-7.32-10.14-13.04-13.14c-11.6-6.09-20.45-15.24-28.91-25.04
		c-5.88-6.81-10.03-14.5-14.04-22.38c-0.99-1.93-1.84-3.88-0.77-6.56c9.93,0.1,19.95,3.11,30.69,1.52
		c-1.26-11.76-2.95-23.34-2.09-34.99c-13.81-3.72-27.06-7.66-38.19-16.7c-2.76,1.8-3.09,5.03-4.66,7.43c-2.31,3.54-4.1,7.42-6.37,11
		c-1.26,1.98-0.78,3.18,0.64,4.76c5.03,5.61,9.47,11.71,13.84,17.84c2.69,3.77,2.06,5.29-2.13,7c-7.63,3.11-15.51,2.5-23.34,1.37
		c-2.34-0.34-3.31,0.25-4.1,2.23c-4.29,10.76-7.81,21.73-9.82,33.16c-1.05,5.99-2.26,11.96-1.96,18.09
		c0.08,1.62-0.86,2.76-2.06,4.97c-2.28-5.7-6.08-9.61-10.36-14.01c-1.88,4.36-6.62,6.13-9.05,10.27c-1.92-0.5-3.06-1.56-3.49-3.29
		c-0.96-3.85-3.48-6.59-6.58-8.72c-3.04-2.08-5.23-4.85-7.57-7.58c-6.83-7.99-15.7-13.36-24.57-18.7
		c-8.43-5.07-15.59-11.51-21.56-19.32c-0.8-1.05-1.79-1.97-2.75-2.89c-11.66-11.27-20.88-24.37-28.98-38.34
		c-8.96-15.45-15.81-31.8-21.28-48.77c-4.5-13.97-8.08-28.21-10.47-42.63c-1.71-10.32-2.82-20.81-3.49-31.34
		c-0.52-8.12-0.77-16.21-0.7-24.31c0.09-11.19,1.47-22.29,2.79-33.41c1.91-16.09,5.16-31.88,9.19-47.53
		c4.47-17.34,9.9-34.37,16.33-51.11c5.74-14.96,12.22-29.54,19.57-43.76c8.95-17.3,19.27-33.69,31.26-49.08
		c10.34-13.28,21.05-26.25,33.17-37.9c12.45-11.96,25.41-23.33,39.28-33.73c14.43-10.82,29.49-20.56,45.4-28.89
		c13.82-7.24,28.27-13.25,42.96-18.6c12.54-4.57,25.34-8.35,38.27-11.59c9.31-2.33,18.78-4.14,28.32-5.52
		c12.58-1.81,25.25-2.18,37.87-3.26c11.12-0.95,22.05,0.27,32.99,0.66c11.17,0.39,22.39,2.26,33.52,4.39
		c11.57,2.22,22.89,5.17,33.99,8.88c22.46,7.52,43.06,18.77,61.94,33c7.86,5.93,15.11,12.66,22.85,19.21
		c2.01-3.39,1.08-7.82,4.73-11.55c0.47,7.74,3.11,13.79,8.84,18.38c14.91-42.64,40.34-76.98,79.26-101.73
		c-2.69-0.89-4.78-2.16-6.83-2.09c-2.19,0.07-4.33,0.71-6.7-0.25c-0.08-1.6-0.16-3.24-0.23-4.8c-14.37,1.34-27.76-1.13-39.92-8.83
		c-3.51-2.22-6.36-5.38-8.79-8.71c-1.27-1.74-2.14-2.86-4.27-1.67c-1.38,0.77-2.58,0.54-3.47-0.75c-0.76-1.11-0.33-2.06,0.37-3.15
		c4.65-7.26,6.97-15.29,8.28-23.8c2.1-13.73,5.42-27.18,12.2-39.49c1.25-2.27,1.83-4.5,1.73-7.05c-0.93-23.6,6.88-44.64,18.61-64.64
		c5.53-9.43,11.78-18.27,19.89-25.53c8.89-7.95,18.39-15.17,28.76-21.23c14.59-8.53,29.9-15.25,46.1-20.06
		c9.09-2.7,18.22-4.87,27.68-5.94c7.69-0.87,15.34-1.94,23.11-1.92c4.36,0.01,7.26-2.06,9.49-6.05c6.15-10.97,12.58-21.75,21-31.27
		c4.79-5.41,9.13-11.23,14.5-16.32c-5.32-6.74-10.28-13.4-6.92-23.42c-0.82-2.21-3.13-4.61-5.13-7.08
		c-3.46-4.29-4.39-8.67-3.32-14.06c0.76-3.81,0.04-7.47-2.39-11.21c-6.91-10.64-9.36-22.61-8.45-35.28
		c0.13-1.83,0.53-3.87,1.24-5.18c3.18-5.78,4.4-12.24,6.89-18.21c4.51-10.82,13.86-14.67,24.68-15.83c8.4-0.9,16.16,1.43,23.82,4.77
		c7.12,3.11,14.55,5.5,22.09,8.29c0.9-9.32,0.08-18.13-2.11-26.79c-0.59-2.35-1.35-4.45,1.14-6.33c1.88,0.88,3.79,1.78,5.72,2.69
		c1.28-0.47,1.28-1.57,1.59-2.71c2-7.39,5.6-13.56,11.79-18.59c6-4.87,12.4-9.07,18.62-13.56c1.47-1.06,2.94-2.32,3.91-3.81
		c1.29-1.97,2.29-3.87,5.02-4.22c1.66-0.21,1.66-2.3,2.67-3.39c13.95-15.06,26.74-31.23,42.11-44.91
		c8.74-7.78,16.82-16.3,26.2-23.38c7.35-5.56,13.85-1.33,16.62,5.4c1.69,4.12,1.98,8.55,2.98,12.81c2.16,9.2,0.03,18.4-0.05,27.6
		c-0.03,3.08-1.89,5.88-1.93,9.3c2.36-0.1,4.49,0.24,3.99,3.4c-0.23,1.48,0.38,2.7,1.56,3.43c5.81,3.63,6.91,9.46,7.48,15.59
		c0.03,0.28,0.22,0.54,0.33,0.81c6.55-4.84,7.81-4.56,12.64,2.57c1.94,2.86,3.59,5.82,3.99,9.32c0.31,2.77,2.3,4.7,3.77,6.78
		c1.39,1.97,3.26,3.65,4.53,5.86c17.14-3.32,31.89-11.68,46.45-20.28c18.12-10.7,36.06-21.68,54.01-32.66
		c7.37-4.51,14.57-9.3,21.77-14.09c3.07-2.04,6.56-3,9.99-3.78c4.8-1.09,10.39,2.86,12.25,8.49c2.83,8.54,4.96,17.27,5.19,26.34
		c0.07,2.65,1.05,5.09,1.11,7.8c0.35,15.33-2.97,29.88-8.47,44.07c-5.69,14.69-12.23,29.09-22.42,41.09
		c-9.29,10.93-19.84,20.82-31.81,29.04c-7.45,5.11-15.02,9.74-23.99,11.3c-0.9,2.67-0.15,4.5,1.68,6.36
		c7.12,7.26,11.28,15.92,11.97,26.19c0.15,2.26,1.31,4.39,0.96,7.37c2.84-1.52,5.13-2.92,7.56-4.01c6.35-2.84,10.82-1.52,10.53,6.39
		c-0.17,4.62-0.39,9.12-2.72,14.29c4.64-1.92,8.34-3.58,12.15-4.97c3.01-1.1,5.97-2.66,9.44-1.47c5.47,1.89,5.76,6.58,5.98,11.11
		c0.63,13.37-4.4,25.05-11.85,35.67c-5.38,7.67-11.47,14.85-19.19,20.46c-2.15,1.56-4.71,2.28-6.79,3.93
		c-0.19,1.71,1.76,2.26,2.08,3.8c0.18,0.83,1.27,2.09,1.96,2.1c7.89,0.11,12.51,6.78,19.2,9.39c6.99,2.73,13.44,6.78,20.26,9.97
		c18.83,8.8,36.7,19.4,55.07,29.06c11.11,5.84,22.27,11.6,33.3,17.6c14.93,8.12,29.2,17.39,40.19,30.48
		c5.91,7.04,13.18,10.95,21.26,14.18c1.21,0.48,2.36,1.14,3.49,1.79c3.53,2.05,3.68,2.88,1.27,6.52c1.69,2.37,4.52,2.61,6.92,3.33
		c3.69,1.1,5.89,3.13,6.89,6.84c2.47,9.1,3.94,18.13,2.18,27.67c-0.82,4.45-1.65,8.98-2.32,13.9c3.9,0.72,4.9,3.68,5.07,7.06
		c0.39,8.1,0,16.1-2.9,23.83c-1.05,2.79-2.05,5.52-4.32,7.59c-0.99,0.91-1.98,1.82-1.75,3.36c0.49,3.3-2.15,5.68-4.11,6.17
		c-5.73,1.43-7.45,6.59-10.51,10.23c-8.1,9.63-15.73,19.67-23.14,29.85c-7.96,10.95-15.87,21.94-22.8,33.61
		c-9.46,15.95-15.86,33.22-22.4,50.44c-1.09,2.87-2.69,5.58-3.06,8.79c9.81,6.06,18.79,13.07,27.5,20.55
		c8.86,7.6,17.07,15.84,24.93,24.36c10.98,11.91,20.62,24.95,29.77,38.38c13.15,19.31,25.32,39.21,36.36,59.76
		c10.11,18.83,18.93,38.31,27.6,57.86c4.29,9.69,9.06,19.23,14.95,28.12c1.68,2.54,4.57,4.45,3.74,8.1c-2.83,2.02-4.8-1.3-7.69-1.19
		c2.24,4.43,5.8,7.69,7.53,12.06c1.75,4.41,3.68,8.72,3.39,13.68c-0.12,2.12-0.39,3.63-3.27,3.22c2,8.25,4.63,15.81,5.63,23.72
		c0.51,4.06,1.62,8.04,1.58,12.18c-0.1,10.44,0.59,20.92-1.03,31.29c-2.33,14.98-5.15,29.85-10.73,44.07
		c-4.13,10.51-8.54,20.88-15.15,30.11c-4.37,6.1-8.41,12.48-14.8,16.91c-1.99,1.38-2.3,4.27-3.14,6.5
		c-4.2,11.14-9.08,21.98-14.06,32.78c-5.62,12.19-9.71,24.76-11.3,38.26c-0.89,7.52-0.73,14.66,1.11,21.9
		c0.38,1.5,0.25,3.11-1.4,3.89c-1.44,0.68-2.45-0.28-3.47-1.22c-3.69-3.42-5.53-8.07-8.25-12.13c-2.54-3.79-4.41-7.88-5.72-13.13
		c-3.38,5.02-6.22,9.13-8.95,13.31c-7.53,11.54-16.81,21.44-27.35,30.32c-4.13,3.48-8.29,6.74-10.78,12.36
		c-7.61,17.17-16.01,34.03-26.92,49.45c-3.87,5.46-9.08,9.66-13.74,14.37c-4.85,4.89-5.39,6.6-2.53,13.18
		c3.06,7.02,6.5,13.88,9.01,21.13c4.63,13.37,6.46,26.43-1.19,39.69c-6.28,10.88-11.08,22.59-18.18,33.06
		c-7.75,11.43-16.97,21.32-28.61,28.89c-3.4,2.21-6.22,5.28-10.42,6.24c-1.12,0.26-2,0.78-3.25,0.3c-3.53-1.33-7.35-1.04-10.81-0.39
		c-3.15,0.59-6.24,0.46-9.34,0.78c-12.08,1.24-24.26,0.13-36.28,1.21c-11.14,1-22.23,0.76-33.32,0.63
		c-10.31-0.12-20.56,0.82-30.78,1.46c-5.3,0.33-10.78,0.11-16.15,1.51c-5.91,1.53-9.21-2.72-8.09-8.67
		c3.12-16.54,15.42-23.32,29.54-28.08c5.13-1.73,10.64-1.71,16.01-2.31c4.67-0.52,9.09-0.04,13.58,0.47
		c2.09,0.24,3.85-0.18,4.35-2.01c1.18-4.38,3.86-7.9,6.02-11.73c4.82-8.56,6.19-18.14,8.12-27.53c1.77-8.62,3.72-17.24,4.81-25.96
		c0.63-5.01,0.98-10.26-0.43-15.34c-0.22-0.78-0.35-1.63-0.32-2.44c0.34-10.62-2.13-20.75-5.37-31.04
		c-7.58,6.52-13.17,14.02-17.04,23.26c-3.85,9.21-5.88,18.26-3.48,28.1c-3.61-0.12-3.61-0.12-7.72-7.27
		c-1.3,3.53-3.64,6.29-5.64,9.25c-1.09,1.62-2.48,3.03-4.46,3.79c-2.91,1.12-4.4,0.6-4.2-2.41c0.74-10.94-3.88-20.82-5.74-31.24
		c-0.41-2.27-0.36-4.61-0.57-7.44c-7.08,6.39-15.55,9.74-23.88,13.33c-8.69,3.74-17.74,4.7-26.91,2.3
		c-2.96-0.77-5.48-2.88-7.74-5.09c-0.9-0.88-1.57-1.85-1.1-3.07c0.45-1.16,1.47-1.55,2.76-1.72c5.77-0.78,7.24-1.62,12.9-6.97
		c-4.72,0-8.97-0.03-13.22,0c-20.36,0.15-40.09-3.54-59.25-10.13c-5.81-2-11.37-4.82-16.79-7.88c-8.51-4.8-17.3-9.1-26.21-13.74
		c-4.17,3.74-7.26,8.7-10.8,13.15c-4.19,5.27-9.43,9.17-14.34,13.5c-7.13,6.28-15.33,11.07-23.32,16.14
		c-3.32,2.11-3.56,3.29-1.82,6.98c1.61,3.4,3.36,6.74,4.93,10.16c2.62,5.7,0.15,10.6-2.88,15.14c-9.7,14.57-20.2,28.55-31.11,42.23
		c-8.57,10.75-16.58,21.98-25.64,32.3c-6.31,7.19-12.89,14.33-20.75,20.03c-3.02,2.2-6.39,3.09-10.12,3.11
		c-8.1,0.04-16.1-0.43-24.12-1.86c-5.31-0.95-10.83-0.37-16.29-1.04c-14.53-1.78-29.2-0.55-43.77-1.31
		c-10.47-0.54-21-0.9-31.44-2.59c-4.5-0.73-8.99-1.69-13.53-2.27c-3.15-0.4-3.98-2.04-3.6-5.33c1.12-9.77,7.26-16.74,13.66-23.17
		c3.51-3.53,9.15-3.91,14.18-4.44c2.12-0.22,3.93-0.47,5.97-1.68c5.99-3.53,12.38-5.87,19.66-3.51c2.9,0.94,6.25-0.69,8.95,1.13
		c8.71-12.06,13.85-25.4,17.96-39.19c2.33-7.82,4.14-15.72,5.05-23.88c1.1-9.86,2.36-19.7,1.8-29.6
		c-0.61-10.96-1.93-21.84-3.71-32.71c-2.56-15.66-6.8-30.85-11.28-45.98c-4.49-15.13-9.42-30.13-14.67-45.03
		c-9.08-25.78-18.22-51.53-27.91-77.08c-2.24-5.91-4.88-11.71-6.61-17.85c-0.88-3.15-2.68-5.6-6.88-5.81
		c-3.03-0.15-6.56-0.58-8.9-3.46c1.29-3.73,4.77-4.3,7.85-5.75c-5.13-6.92-10.46-13.27-17.66-18.24
		c-7.93-5.47-15.62-11.34-24.19-15.73c-8.83-4.53-18.1-8.37-27.83-10.43c-9.62-2.04-19.4-3.54-29.34-3.22
		c-12.54,0.41-24.66,3.12-36.35,7.38c-13.84,5.05-26.91,11.75-38.93,20.42c-6.52,4.7-12.72,9.77-18.86,14.95
		c-4.19,3.53-8.24,7.19-11.97,11.16c-14.83,15.76-26.49,33.51-34.97,53.53c-7.02,16.57-12.23,33.67-16.28,51.09
		c-2.72,11.73-5.12,23.59-6.52,35.62c-1.29,11.06-3.01,22.07-4.02,33.18c-0.8,8.81-1.84,17.62-2.99,26.39
		c-1.27,9.69-3.24,19.31-5.22,28.89c-2.55,12.28-5.55,24.53-10.8,35.93c-4.47,9.7-2.79,19.16-1.21,28.92
		c0.7,4.3,1.53,8.91-2.22,12.62c-3.21,3.17-4.94,2.7-6.6-1.56c-1.52-3.91-1.48-8.1-0.49-11.71c1.4-5.13,0.19-9.83-0.5-14.63
		c-0.38-2.62-3.12-3.63-5.39-2.86c-7.01,2.39-11.89,7.33-15.12,13.94c-1.04,2.12,0.72,3.75,1.18,5.58c0.84,3.31,2.24,6.3,0.73,9.98
		c-0.86,2.1-2.09,3.1-3.78,3.01c-2.13-0.12-3.43-1.68-3.47-4.06C302.86,1385.96,303.2,1383.79,302.52,1381.28z M1134.4,584.67
		c5.51-22.38,9.62-44.55,19.97-64.33c-27.67-16.08-57.48-27.59-86.47-41.71c-0.06,10.49,2.37,20.73,1.23,31.33
		c-1.13,10.5-2.61,20.89-4.74,31.05C1096.03,541.93,1120.6,553.79,1134.4,584.67z"/>
</g>
<g>
	<path class="st0" d="M150.82,1200.31c-2.06-5.51-6.52-8.79-10.28-13.29c-2.03,4.63-6.77,6.41-9.32,10.48
		c-1.74-0.96-3.04-1.84-3.3-3.73c-0.43-3.15-2.71-5.6-4.82-7.17c-3.72-2.78-6.84-5.99-9.84-9.42c-6.81-7.8-15.58-13.01-24.28-18.27
		c-8.28-5-15.27-11.39-21.2-18.99c-1.02-1.31-2.23-2.47-3.42-3.63c-11.41-11.06-20.43-23.92-28.34-37.6
		c-8.94-15.44-15.85-31.77-21.27-48.77c-4.5-14.14-8.2-28.51-10.59-43.1c-1.72-10.49-2.8-21.14-3.49-31.84
		c-0.5-7.79-0.72-15.55-0.65-23.32c0.1-11.35,1.36-22.63,2.79-33.91c1.99-15.74,5.13-31.2,9.06-46.54
		c4.53-17.67,10.08-34.98,16.56-52.06c5.98-15.76,12.81-31.1,20.64-45.96c8.6-16.34,18.39-31.97,29.95-46.46
		c7.18-9.01,14.77-17.64,22.2-26.43c8.2-9.69,17.6-18.04,26.95-26.36c20.2-17.97,42.05-33.77,66.13-46.32
		c15.02-7.83,30.54-14.45,46.42-20.32c12.39-4.58,25.02-8.38,37.78-11.5c11.86-2.9,23.96-4.9,36.11-6.6
		c12.09-1.69,24.28-2.25,36.31-2.35c9.93-0.08,20.09-0.08,30.12,1.32c6.31,0.88,12.71,1.37,19.07,2.16
		c10.88,1.35,21.49,3.84,32.03,6.73c15.95,4.37,31.21,10.51,45.73,18.39c11.06,6,21.47,13,31.48,20.7
		c6.92,5.33,13.02,11.58,20.28,17.01c2.36-3.16,0.84-8.03,4.4-10.73c1.34,1.11,0.69,2.53,0.88,3.74c0.73,4.71,2.93,8.7,6.29,11.96
		c1.69,1.64,1.99,3.44,1.57,5.42c-2.41,11.3-4.75,22.62-7.52,33.84c-0.56,2.26,0.85,3.71,0.69,5.7c-0.61,7.91-0.04,15.85-0.57,23.81
		c-0.42,6.31,0.83,12.96,2.82,19.24c1.98,6.24,2.94,12.7,3.69,19.19c0.61,5.24,3.86,9.36,6.38,13.62
		c7.04,11.88,12.32,24.47,15.44,37.8c3.3,14.1,6.95,28.13,9.86,42.3c2.73,13.3,2.83,26.9,1.87,40.48
		c-1.67-10.11-4.29-20.09-3.41-31.55c-8.48,8.04-16.3,15.12-22.88,24.5c9.9,4.38,18.76,9.61,27.09,15.7
		c0.33,0.24,0.58-1.15,1.59-0.91c-0.65,9.67,3.59,18.45,5.43,27.7c0.76,3.83,1.38,7.7,2.14,11.53c1.37,6.9,5.15,12.92,6.87,19.68
		c3.61,14.18,8.68,27.98,10.71,42.59c0.85,6.09,4.37,11.46,6.26,17.32c2.29,7.1,5.68,13.78,7.99,20.89
		c2.31,7.15,3.68,14.5,5.55,21.74c0.32,1.24,0.05,2.64,0.05,3.93c-1.16,0.28-1.77-0.43-2.18-1.07
		c-4.78-7.44-12.55-11.32-19.29-16.46c-12.08-9.23-25.5-15.69-40.02-19.96c-6.74-1.98-13.59-3.28-20.63-3.99
		c-4.45-0.45-8.86-0.92-13.31-0.82c-13.37,0.31-26.19,3.36-38.67,8.01c-13.38,4.99-25.89,11.6-37.56,19.88
		c-6.43,4.56-12.45,9.59-18.47,14.66c-3.68,3.1-7.25,6.27-10.59,9.71c-15.68,16.16-27.84,34.55-36.65,55.36
		c-7.02,16.57-12.21,33.68-16.24,51.1c-2.71,11.72-5.16,23.58-6.47,35.64c-1.19,10.9-3.04,21.73-3.96,32.69
		c-0.92,11.1-2.06,22.22-4.02,33.17c-3.5,19.54-6.6,39.27-14.88,57.56c-4.41,9.76-3.17,19.47-1.43,29.41
		c0.79,4.5,1.63,9.23-2.32,13.03c-3.04,2.92-4.9,2.48-6.35-1.49c-1.54-4.2-1.36-8.52-0.35-12.66c1.19-4.89,0.09-9.54-0.77-14.16
		c-0.44-2.37-3.05-3.46-5.56-2.56c-6.81,2.46-11.46,7.29-14.83,13.61c-1.09,2.05,1.21,3.38,0.27,5.59c-1.12-0.7-2.22-1.38-3.7-2.3
		c1.44-1.59,0.77-3.76,1.87-5.73c3.07-5.48,7.3-9.68,12.85-12.44c2.68-1.33,6.15-1.75,8.59-0.67c2.08,0.92,3.14,3.98,3.61,6.84
		c0.82,5.05-0.42,9.99-1.27,14.7c-0.71,3.96,1.09,6.88,0.95,10.37c4.99-0.9,5.88-1.37,5.32-5.73c-0.68-5.3,0.04-10.83-2.45-15.91
		c-1.49-3.05,0.51-6.19,0.54-9.34c0.06-4.61,1.61-8.97,3.01-13.38c3.39-10.69,5.96-21.6,8.29-32.59c1.11-5.22,1.82-10.56,3.25-15.76
		c1.2-4.37,1.21-9.11,1.45-13.7c0.59-11.12,0.04-22.26-1.13-33.28c-1.06-9.91-1.59-19.92-3.73-29.72c-0.24-1.12-0.08-2.32-0.1-3.49
		c-0.06-5.01-0.78-5.91-5.9-6.43c-5.3-0.54-9.93-2.85-14.66-5.02c-4.41-2.03-8.83-3.95-12.86-6.74
		c-8.75-6.04-16.61-13.09-24.23-20.45c-5.56-5.37-8.64-12.35-10.89-19.4c-1.67-5.25-2.16-11.16-1.06-16.78
		c0.47-2.42,3.09-3.44,5.2-2.51c8.15,3.56,17.03,3.12,25.5,4.47c8,1.27,16.52,1.42,24.74-0.47c0.96-0.22,2-0.03,2.99-0.13
		c4.05-0.45,5.16-1.6,5.17-5.62c0.03-10.83,0.01-21.65,0.01-32.44c-8.3-4.46-15.39-9.88-21.39-17.28
		c-5.47-6.75-10.49-13.7-14.4-21.32c-5.29-10.32-8.84-21.29-10.4-32.93c-0.71-5.3-1.12-10.45-0.26-15.68
		c0.53-3.22,2.62-4.1,5.25-2.32c13.55,9.17,28.49,14.99,44.38,18.56c2.06,0.46,4.16-0.2,6.33,0.75c1.68,0.74,2.5-0.99,2.4-3.08
		c-3.25-1.98-7.28-2.01-10.87-3.38c-10-3.8-19.8-7.95-29.25-12.94c-3.46-1.83-6.88-3.63-9.68-6.52c-1.38-1.42-3.31-0.64-5.13-0.32
		c-6.05,1.08-11.15,4.51-16.82,6.52c-0.16,0.06-0.33,0.07-0.49,0.1c-8.1,1.8-12.14,8.01-15.94,14.56
		c-2.05,3.54-3.73,7.35-6.01,10.64c-1.95,2.81-1.58,4.61-0.03,7.03c3.87,6.07,7.85,12.03,12.57,17.5
		c4.8,5.57,8.96,11.63,12.98,17.79c4.18,6.4,8.12,12.92,13.33,18.66c5,5.5,2.56,7.82-4.04,10.59c-7.66,3.22-16,3.83-24.23,3.06
		c-10.08-0.94-20.26-1.45-30.09-4.27c-4.31-1.24-5.12-0.65-5.19,3.62c-0.24,15.37,2,30.45,6.27,45.15
		c2.29,7.87,5.52,15.49,8.3,23.21c5.17,14.37,13.73,26.73,21.11,39.83c3.37,6,7.2,11.72,10.63,17.67
		c5.12,8.9,8.76,18.33,12.51,27.76c0.63,1.58,1.57,3.29,1.18,5.21c-0.42,2.04,0.25,4.03,1.11,5.72c1.88,3.7,3.17,7.65,3.49,11.64
		c0.53,6.55,3.09,12.78,2.5,19.52c-0.31,3.56,0.51,7.21,0.8,10.82c0.04,0.49,0.12,1.04-0.03,1.49c-3.39,10.4-4.27,21.66-10.16,31.18
		c-3.45,5.57-7,11.05-9.74,17.02c-1.71,3.71-1.82,7.59-0.51,11.26c1.38,3.82,7.84,6.01,11.31,3.67c2.34-1.59,5.17-1.94,7.52-4.45
		c0.41,2.88-1.45,3.78-2.61,4.71c-3.77,3.03-9.5,4.29-13.64,1.77c-5.34-3.25-6.69-7.98-5.29-14c1.34-5.78,4.75-10.4,7.73-15.14
		c4.89-7.78,7.57-16.25,9.39-25.02c1.33-6.4,2.75-12.98,2.03-19.55c-1.07-9.73-2.62-19.41-4.46-29.05
		c-2.67-13.97-7.99-26.87-14.71-39.23c-4.98-9.17-10.52-18.04-15.8-27.05c-1.65-2.81-3.71-5.48-4.84-8.49
		c-2.42-6.46-7.41-9.93-13.14-13c-11.36-6.08-20.18-15.07-28.51-24.78c-5.85-6.83-10.07-14.47-14.08-22.35
		c-0.99-1.95-1.8-3.9-0.97-6.7c9.92-0.1,19.93,3.17,30.7,1.48c-0.91-11.63-3.09-23.17-1.82-34.98
		c-13.82-3.67-27.08-7.57-38.13-16.53c-1.34,0.25-1.71,1.26-2.26,2.34c-1.86,3.63-3.88,7.19-5.91,10.73
		c-4.56,7.95-4.62,7.98,1.47,14.77c3.73,4.16,6.82,8.8,10.11,13.28c2.55,3.47,1.79,4.93-2.14,6.68c-7.46,3.33-15.31,2.57-22.91,1.61
		c-3.28-0.41-4.22,0.54-5.1,2.75c-3.44,8.62-6.17,17.5-8.3,26.52c-1.8,7.64-3.29,15.41-3.05,23.34
		C153.02,1197.4,152.15,1198.79,150.82,1200.31z M244.33,1033.05c-22.19,14.87-38.14,34.91-51.84,57.06
		c6.86,5.42,14,8.8,21.64,11.34c10.84,3.62,21.9,6.15,33.18,8.02c11.2,1.85,22.37,2.9,33.67,1.83c5-0.47,9.8-1.85,14.1-4.81
		c-0.97-3.55-3.46-5.83-5.3-8.43c-6.33-8.92-12.12-18.23-19.19-26.64c-4.63-5.5-9.07-11.2-13.11-17.14
		C252.92,1047.56,248.9,1040.47,244.33,1033.05z M344.39,1207.45c-1.79-20.79-3.52-40.89-5.28-61.29
		c-20.46,5.06-39.52-0.5-58.95-2.72c-1.35,12.01,2.66,21.95,10.05,30.6c5.26,6.16,11.68,11.16,18.05,16.15
		C318.91,1198.52,330.87,1204.11,344.39,1207.45z M349.61,1039.69c-19.35-1.93-35.77-10.71-53.29-19.56
		c3.22,33.7,14.85,61.65,43.48,81.46C342.79,1080.4,344.84,1059.91,349.61,1039.69z M353.06,1027.92
		c2.01-5.52,3.31-10.09,5.31-14.33c1.96-4.15,3.03-7.7,0.61-12.29c-4.29-8.13-7.79-16.68-11.84-25.53
		c-13.49,12.35-28.55,21.31-44.52,30.21C318.85,1015.92,335.07,1023.76,353.06,1027.92z M473.96,868.98
		c4.27,5.92,8.46,11.89,12.82,17.72c1.26,1.69,15.25,1.1,16.67-0.5c0.31-0.35,0.37-0.91,0.64-1.3c6.52-9.61,8.45-21.29,15.25-31.91
		C502.68,856.13,487.99,861.06,473.96,868.98z M248.6,1196.01c-7.11-14.63-12.68-29.63-16.07-45.45
		c-9.18-1.79-18.36-1.36-27.99-2.69C214.46,1168.78,228.8,1184.81,248.6,1196.01z M357.06,966.75c3.36,8.2,5.39,16.61,10.99,24.2
		c8.09-14.37,16.52-27.93,26.28-40.75c-3.43-1.99-6.64-2.98-8.79-5.66c-1.29-1.59-2.65-1.48-4.24-0.12
		C373.03,951.49,364.9,958.69,357.06,966.75z M523.72,852.46c-7.04,10.69-9.71,22.79-15.87,33.7c11.43,1.6,22.78,1.52,34.42,4.6
		c-3.61-14.15-7.22-27.02-12.74-39.81C527.53,852.61,525.53,852.32,523.72,852.46z M570.74,863.96
		c-11.5-5.72-22.42-12.26-36.38-12.63c4.4,12.92,8.4,25.18,12.08,38.68C553.22,879.44,562.7,872.46,570.74,863.96z M454.9,899.26
		c9.89-4.76,19.16-8.05,29.23-10.71c-4.11-5.66-7.81-10.76-11.53-15.85c-1.04-1.42-2.25-1.74-3.84-0.69
		c-3.54,2.33-7.24,4.41-10.69,6.87c-1.52,1.08-3.26,2.27-3.2,4.71C454.98,888.39,454.9,893.2,454.9,899.26z M402.3,940.64
		c10.66-11.31,21.38-21.66,34.23-30.38c-3.51-1.96-5.67-4.57-8.42-7c-2.08,3.41-5.29,4.95-7.88,7.23
		c-6.52,5.74-13.12,11.39-19.8,16.94c-1.56,1.29-1.88,2.85-1.43,4.4C399.79,934.59,400.44,937.44,402.3,940.64z M176.7,1117.87
		c-3.75,7.23-6.71,14.1-9.55,21.07c8.39,2.09,16.33,2.14,23.99-2.16C186.66,1129.93,181.63,1124.37,176.7,1117.87z M430.74,901.04
		c5.95,7.48,7.44,7.79,14.76,3.48c1.4-0.82,2.9-1.51,4.4-2.12c1.42-0.58,2.39-1.66,1.92-3.03c-1.63-4.69-0.39-9.64-1.25-14.76
		C443.1,889.59,437.33,895.81,430.74,901.04z"/>
	<path class="st0" d="M1298.49,1182.54c-10.65,17.48-23.08,32.83-39.25,45.47c-1.53-4.41,0.15-8.65,0.85-12.5
		c0.9-4.89,0.88-9.84,1.37-14.68c0.88-8.49,2.24-16.98,2.35-25.56c0.08-6.62-1.42-13.05-2.43-19.51c-0.84-5.45-0.9-11.12-3.06-16.31
		c-3.19-7.67-6.54-15.27-9.9-22.86c-7.8-17.65-18.35-33.81-27.61-50.68c-2.19-4-0.82-7.51,1.01-11.08
		c6.33-12.35,14.96-23.43,20.31-36.31c3.62-8.71,8.93-16.74,11.02-26.04c1.25-5.56,1.77-11.29,2.63-16.94
		c1.25-8.23,2.82-16.43,3.68-24.71c0.69-6.69,1.89-13.31,2.47-20.02c0.79-9.14,1.4-18.31,2.61-27.43c0.71-5.33,0.84-10.9-0.41-16.34
		c-1.03-4.5-0.7-9.19-1.06-13.75c-0.48-5.9-1.16-11.82-1.42-17.77c-0.45-10.77-1.9-21.2-7.16-31.2
		c-6.96-13.24-12.43-27.28-18.58-41.06c0.47-2.69,3.38-1.19,4.88-2.59c-2.52-5.09-5.11-10.15-7.51-15.29
		c-1.34-2.86-2.72-5.91,1.57-8.26c-7.17-8.57-14.19-16.95-21.2-25.33c-3.37-4.03-6.69-8.1-10.08-12.11
		c-1.38-1.63-1.17-3.7-0.63-5.22c3.65-10.44,6.31-21.22,10.95-31.31c0.12-0.26,0.48-0.42,0.87-0.75c4.13,0.7,7.12,3.7,10.38,6
		c15.33,10.83,28.77,23.83,41.49,37.51c11.5,12.36,21.54,25.92,31,39.93c12.79,18.94,24.78,38.37,35.47,58.55
		c7.86,14.83,15.21,29.93,21.96,45.34c6.08,13.89,12.32,27.79,20.66,40.58c1.7,2.6,5.02,4.6,3.76,8.61
		c-2.68,1.53-4.54-0.97-7.02-1.47c-0.25,1.77,0.91,2.76,1.81,3.97c4.86,6.52,8.52,13.48,8.59,21.96c0.02,2.45-1.07,3.15-3.21,3.5
		c1.99,7.93,4.48,15.52,5.56,23.43c0.54,3.89,1.58,7.72,1.55,11.68c-0.08,10.6,0.61,21.24-1.02,31.78
		c-2.32,14.98-5.17,29.84-10.75,44.05c-4.13,10.51-8.52,20.88-15.15,30.1c-4.38,6.09-8.4,12.48-14.8,16.9
		c-1.98,1.37-2.29,4.27-3.13,6.49c-4.2,11.14-9.07,21.97-14.05,32.78c-5.62,12.18-9.71,24.76-11.3,38.25
		c-0.89,7.52-0.74,14.66,1.11,21.89c0.38,1.49,0.26,3.11-1.39,3.89c-1.44,0.68-2.45-0.26-3.47-1.2c-3.69-3.41-5.48-8.1-8.26-12.12
		C1301.95,1191.03,1300.25,1186.87,1298.49,1182.54z"/>
	<path class="st0" d="M1087.25,1294.23c-14.77,14.18-23.96,30.58-20.63,52.04c-5.29-0.04-4.92-4.98-7.41-7.54
		c-1.4,3.51-3.75,6.39-5.86,9.42c-0.91,1.31-2.09,2.49-3.69,3.25c-3.34,1.59-5.01,0.98-4.75-2.56c0.77-10.62-3.79-20.18-5.61-30.28
		c-0.45-2.5-0.03-4.96-0.8-7.97c-5.03,4.73-10.99,7.55-16.93,10.38c-8.65,4.11-17.54,7.21-27.4,6.41c-5.09-0.42-9.52-2.1-13.28-5.51
		c-1.08-0.98-2.51-1.93-1.95-3.72c0.55-1.77,2.09-1.85,3.65-1.82c5.07,0.08,7.84-4.03,11.59-6.99c-4.22,0-8.43-0.06-12.65,0.01
		c-16.2,0.27-32-2.47-47.62-6.47c-9.98-2.56-19.36-6.52-28.43-11.5c-8.41-4.62-17.09-8.76-25.5-13.62c-0.68-2.7,1.79-4.06,2.81-5.95
		c6.77-12.5,12.56-25.45,18.62-38.3c7.14-15.15,11.21-31.19,15.88-47.1c1.58-5.37,1.83-11.02,2.29-16.49
		c0.75-8.85,3.02-17.69,2.13-26.56c-1.8-17.9-1.13-36.11-6.63-53.58c-1.94-6.17,1.79-10.99,4.73-15.88c0.42-0.7,0.9-1.36,1.48-2.22
		c4.26,2.87,6.95,7.3,10.12,11.12c5.14,6.19,10.49,12.2,15.74,18.3c13.16,15.32,27.2,29.83,41.11,44.48
		c9.84,10.37,19.06,21.39,28.43,32.23c15.11,17.48,29.59,35.49,43.2,54.16c2.7,3.71,4.29,8.05,6.66,11.99
		c8.11,13.45,13.85,28.02,19.26,42.72C1086.75,1289.16,1086.71,1291.75,1087.25,1294.23z"/>
	<path class="st0" d="M309.3,1383.98c2.93,2.21,1.1,4.74,0.12,6.84c-0.47,1-2.33,2.05-3.89,1.29c-2.66-1.3-3.1-3.61-2.37-6.29
		c2.13,0.04,1.47,2.94,3.37,3.19C308.29,1387.83,308.49,1385.75,309.3,1383.98z"/>
	<path class="st0" d="M623.42,1079.48c0.33,2.11,2.14,3.92,1.05,6.63c-2.7,0.74-4.76-0.39-6.83-2.68
		C619.36,1081.74,620.11,1079.1,623.42,1079.48z"/>
</g>
</svg>
