<?xml version="1.0" encoding="utf-8"?>
<!-- Generator: Adobe Illustrator 23.1.0, SVG Export Plug-In . SVG Version: 6.00 Build 0)  -->
<svg version="1.1" id="Layer_1" xmlns="http://www.w3.org/2000/svg" xmlns:xlink="http://www.w3.org/1999/xlink" x="0px" y="0px"
	 width="1024.36" height="1166.99" viewBox="0 0 1024.36 1166.99" style="enable-background:new 0 0 1024.36 1166.99;" xml:space="preserve">
<path d="M530.18,953.91c-5.42,1.17-10.6,2.4-15.83,3.4c-10.55,2.04-21.1,4.11-31.7,5.88c-9.19,1.54-18.42,2.85-27.66,3.95
	c-5.56,0.66-11.18,0.83-16.78,1.06c-9.92,0.41-19.85,0.65-29.77,1.07c-1.2,0.05-2.62,0.54-3.51,1.32
	c-5.18,4.58-11.55,6.68-17.99,8.38c-2.05,0.54-4.58-0.71-7.5-1.26c2.1-3.78,3.72-6.69,5.61-10.1c-1.15-0.17-1.88-0.4-2.61-0.38
	c-12.77,0.48-25.03-2.52-37.34-5.27c-1.44-0.32-3.06,0.19-4.6,0.24c-2.94,0.09-3.25-0.29-3.24-3.37
	c-14.26-3.49-28.45-6.95-42.75-10.45c-1.47,4.24,0.27,7.67,2.1,11.02c1.09,2,2.46,3.84,3.68,5.77c1.59,2.5,2.58,5.01,2.69,8.18
	c0.16,4.55,3.6,7.85,6,11.49c1.26,1.9,2.62,3.74,3.88,5.64c1.2,1.8,1.61,3.61-0.31,5.41c-4.56-0.27-8.24-2.33-11.25-5.73
	c-7.49-8.45-14.97-16.9-22.74-25.66c-0.47,1.29-1.13,2.88-1.64,4.52c-5.26,16.67-12.5,32.23-24.43,45.33
	c-6.32,6.95-12.3,14.2-18.55,21.22c-4.29,4.82-8.69,9.53-13.17,14.17c-16.21,16.78-34.94,30.24-54.68,42.59
	c-17.07,10.68-35.28,18.9-53.98,25.82c-11.7,4.33-24.01,8.1-36.97,6.93c-2.25-0.2-4.47-0.7-7.99-1.26c2.01-2.29,3.09-3.82,4.46-5.02
	c8.39-7.35,16.99-14.47,25.24-21.97c19.06-17.33,32.32-38.85,43.06-61.91c5.06-10.87,8.99-22.36,12.43-33.87
	c2.41-8.07,3.32-16.61,4.56-24.99c1.35-9.08,2.5-18.2,3.36-27.33c0.53-5.62,0.58-11.31,0.41-16.95c-0.2-6.54,2.53-11.18,8.04-14.41
	c3.59-2.11,7.36-3.96,10.7-6.39c6.44-4.68,5.59-8.68-0.32-12.19c-6.7-3.98-12.83-8.88-20.66-10.78c-3.64-0.88-5.65-3.94-6.34-7.49
	c-1.84-9.44-3.56-18.9-5.1-28.39c-0.63-3.88-0.7-7.85-1.04-11.78c-0.3-3.42,0.18-6.52,4.03-8.36c-2.63-0.69-4.73-1.24-6.59-1.73
	c-0.51-4.02-1.16-7.58-1.39-11.17c-0.32-5.21,0.07-5.58,5.2-7.4c1.33-0.47,2.64-0.99,3.87-2.34c-2.85,0-5.7,0.08-8.55-0.02
	c-5.19-0.18-6.25-1.83-7.47-6.71c-2.5-9.97-4.97-20.05-8.62-29.63c-18.53-48.59-47.36-90.31-85.47-125.61
	c-12.21-11.31-24.89-22.11-37.34-33.16c-1.2-1.06-2.27-2.27-3.61-3.62c2.64-2.52,5.33-1.96,7.82-1.35
	c12.76,3.12,25.52,6.22,38.21,9.61c25.56,6.83,49.56,17.3,72.16,31.08c13.21,8.06,26.73,15.59,39.95,23.64
	c5.94,3.61,11.45,7.92,17.18,11.89c1.21,0.84,2.5,1.58,4.5,2.83c0-1.93,0.13-3.32-0.02-4.67c-7.14-64.74-5.24-129.7-4.65-194.62
	c0.08-8.35,2.34-16.77,4.33-24.98c3.52-14.54,7.98-28.86,11.36-43.43c3.96-17.02,9.17-33.63,15.09-50.02
	c3.98-11.01,9.1-21.62,12.69-32.75c1.66-5.14,1.03-11.07,1.19-16.65c0.18-6.34-0.6-12.79,0.28-19.02c1.37-9.65,3.55-19.21,5.81-28.7
	c4.35-18.3,12.35-35.01,23.33-50.22c3.57-4.95,8.04-9.27,12.29-13.71c4.6-4.8,7.25-10.58,9.5-16.7c1.77-4.83,4-9.49,6-14.24
	c0.7-1.67,1.67-3.34,1.9-5.09c1.3-10.19,7.53-17.91,12.73-26.19c2.34-3.73,4.82-7.62,5.99-11.79c1.5-5.34,8.21-8.98,13.27-7.32
	c2.95,0.97,4.4,0.09,5.86-1.79c2.11-2.71,4.67-3.74,8.15-3.65c1.64,0.04,3.62-1.28,4.93-2.54c1.68-1.62,3.33-2.75,5.67-2.28
	c3.77,0.75,6.28-1.06,8.55-3.75c2.28-2.7,4.97-4.41,8.62-1.99c10.97-15.07,24.14-27.78,37.03-40.76
	c5.72-5.75,11.23-11.71,16.71-17.69c6.82-7.44,15.89-10.66,25.07-13.75c5.39-1.82,10.78-3.61,16.15-5.48
	c2.86-0.99,4.04-3.21,4.03-6.11c-0.01-4.42,0.59-8.92-2.08-12.98c-0.65-0.99-1.16-2.8-0.69-3.67c2.26-4.24-0.25-5.64-3.57-6.82
	c-2.13-0.76-4.22-1.63-7.26-2.8c1.37-0.9,2.23-1.92,3.19-2.01c6.65-0.69,12.68,1.34,17.98,5.15c1.7,1.22,2.85,3.5,3.72,5.53
	c3.07,7.12,4.35,14.98,9.18,21.41c0.76,1.02,0.46,3.25,0,4.71c-4.44,14.12-9.04,28.19-13.52,42.29c-0.62,1.95-0.8,4.04-1.07,5.48
	c4.72,1.68,8.76,3.32,12.93,4.51c2.63,0.76,5.7,0.29,8.15,1.34c8.59,3.69,18.09,5.35,25.64,11.41c1.21,0.97,2.97,1.23,4.41,1.94
	c3.75,1.86,7.47,3.8,11.21,5.69c1.72,0.87,3.49,1.64,5.2,2.53c5.03,2.61,10.01,5.19,14,9.48c1.61,1.73,4.54,2.18,6.77,3.4
	c1.86,1.02,3.57,2.31,5.35,3.49c3.26-1.44,6.64-2.94,10.33-4.57c-2.57-6.24-3.31-12.78-7.41-18.04c-0.66-0.85-0.94-2.08-1.17-3.18
	c-0.92-4.42-2.55-8.38-6.28-11.27c-0.84-0.65-1.61-1.84-1.76-2.88c-0.68-4.78-3.9-7.77-7.09-10.9c-7-6.87-13.91-13.82-20.81-20.79
	c-1.8-1.82-4.52-3.85-2.86-6.61c1.79-2.98,4.91-1.09,7.16-0.17c6.72,2.74,13.31,5.84,19.95,8.79c2.79,1.24,5.97,1.96,8.3,3.78
	c6.93,5.39,13.5,11.22,20.26,16.84c2.76,2.3,6.06,4.09,8.37,6.76c6.97,8.05,13.66,16.36,20.3,24.69c2.94,3.69,5.7,7.56,8.16,11.57
	c1.67,2.73,2.63,5.88,4.01,8.8c1.29,2.75,2.67,5.46,4.08,8.14c2.73,5.17,5.48,10.33,8.3,15.45c0.73,1.32,1.58,2.66,2.68,3.65
	c3.67,3.34,5.22,10.23,3.94,15.23c-0.71,2.8-2.31,6,0.66,8.8c0.73,0.69,1.29,2.19,1.1,3.14c-1.31,6.32,3.43,10.28,5.68,15.2
	c0.07,0.14,0.28,0.23,0.33,0.37c3.76,11.86,15.67,13.55,24.65,20.26c2.26-7.24,4.52-13.79,6.35-20.45
	c3.78-13.72,3.84-27.85,2.86-41.81c-1.48-21.01-5.07-41.78-11.12-62.03c-0.23-0.78-0.32-1.67-0.77-2.3
	c-4.52-6.34-3.1-13.44-1.65-20.01c1.86-8.39,2.8-16.56-0.35-24.63c-1.96-5.04-0.24-9.25,2.45-12.83c3.79-5.05,8.47-9.44,12.73-14.14
	c2.21-2.44,4.27-5,6.5-7.42c1.83-1.99,3.95-3.46,7.88-2.45c-1.07,2.97-1.67,6.02-3.2,8.49c-1.42,2.28-1.96,4.25-0.48,6.36
	c2.9,4.12,1.81,8.36,0.7,12.62c-2.41,9.25-0.26,15.89,7.75,21c12.23,7.8,24.65,15.29,37.1,22.73c11.75,7.02,23.66,13.77,35.47,20.7
	c10.68,6.27,21.35,12.56,31.95,18.96c10.61,6.4,21.27,12.73,31.63,19.52c7.9,5.17,15.47,10.87,23,16.58
	c9.38,7.11,15.9,16.28,20.04,27.41c3.95,10.61,8.74,20.91,13.15,31.35c5.58,13.19,11.38,26.3,16.66,39.61
	c7.26,18.28,14.38,36.63,21.06,55.13c5.25,14.53,9.86,29.3,14.53,44.03c9.03,28.5,17.95,57.03,26.84,85.57
	c4.8,15.4,9.75,30.75,14.1,46.28c13.02,46.55,25.78,93.14,32.18,141.24c5.82,43.75,10.2,87.6,12.91,131.64
	c0.46,7.48,1.13,14.94,1.67,22.41c1.07,14.62-1.08,28.91-4.81,42.97c-8.53,32.13-16.94,64.3-26.01,96.29
	c-2.7,9.52-7,18.69-11.36,27.62c-4.58,9.38-9.55,18.66-15.35,27.31c-8.49,12.66-17.84,24.78-29.64,34.64
	c-2.29,1.92-5.42,2.93-8.28,4.02c-0.74,0.28-2.41-0.47-2.83-1.21c-0.39-0.69-0.02-2.27,0.58-2.99c2.85-3.42,5.7-6.87,8.91-9.94
	c6.06-5.82,7.79-13.71,10.94-21.02c-5.07-5.57-4.97-11.8-3.2-18.41c1.64-6.09,3.55-12.19,4.34-18.41
	c1.81-14.3-2.26-27.05-10.88-38.66c-4.1-5.53-8.56-10.09-14.69-13.38c-6.59-3.54-13.52-4.22-20.56-3.54
	c-8.67,0.84-16.9,3.77-24.43,8.12c-3.23,1.86-6.5,4.38-8.54,7.41c-4.73,7-9.08,14.31-12.91,21.85c-3.68,7.24-8.07,13.17-16.08,16.08
	c-2.38,0.87-4.53,3.29-6.02,5.52c-3.2,4.78-6.73,8.91-12.64,10.18c-1.88,0.4-3.8,0.56-5.71,0.83c-0.28-0.35-0.56-0.7-0.85-1.05
	c1.02-1.43,1.81-3.12,3.09-4.25c3.02-2.66,4.47-5.51,4.43-9.84c-0.06-8.43,4.57-15.49,8.22-22.77c0.94-1.87,1.93-3.74,2.52-5.73
	c4.45-14.9,3.47-29.9,1.09-45.01c-2.67-16.95-6.88-33.38-15.05-48.6c-7.51-13.99-18.47-24.03-34.01-28.28
	c-7.33-2-14.9-2.36-22.46-0.73c-0.58,0.12-1.25-0.17-1.92-0.28c-4.56,12.81-12.36,24.08-19.27,35.84c-1.18,2.01-2.19,4.54-2.12,6.79
	c0.38,11.44-0.88,22.62-3.98,33.64c-0.64,2.27-0.69,4.71-1.19,8.3c-7.15-6.71-10.43-14.81-16.5-21.14
	c-2.06,2.44-3.94,4.88-6.04,7.11c-7.15,7.58-15.72,13.34-24.43,18.92c-9.34,5.97-18.66,11.96-27.94,18.02
	c-0.85,0.56-1.56,1.6-1.93,2.57c-2.15,5.62-4.42,11.21-6.18,16.95c-2.16,7.06-7.28,11.37-12.91,15.45
	c-3.97,2.87-7.73,6.04-11.7,9.17c2.2,2.71,4.41,5.27,6.45,7.96c6.87,9.1,8.79,18.76,3.18,29.25c-5.16,9.65-10.21,19.41-12.95,30.04
	c-2.67,10.38-4.32,21.03-7,31.41c-2.25,8.73,0.24,16.89,1.74,25.22c0.12,0.65,0.38,1.3,0.34,1.93c-0.43,5.91-0.49,11.88-1.46,17.7
	c-1.92,11.51-10.96,15.44-20.76,17.99c-2.22,0.58-3.24,1.02-3.94,3.4c-1.4,4.79-3.44,9.32-5.95,13.76c-1.98,3.5-2.03,8.12-2.8,12.27
	c-0.48,2.56-0.74,5.17-1.01,7.77c-0.61,5.87-4.45,9.73-9.57,10.4c-7.08,0.93-12.22,3.54-15.45,9.91c-0.5,0.99-1.54,1.72-2.24,2.47
	c-3.89-0.47-4.11-3.31-4.75-5.95c-0.6-2.5-0.91-5.29-2.27-7.34c-1.92-2.9-2.85-5.66-1.63-8.95c-5.45-1.08-6.19-0.59-7.08,4.47
	c-0.67,3.87-4.1,7.48-7.81,7.81c-5.25,0.48-10.52,0.98-15.77,0.95c-3.8-0.02-6.76,0.6-8.53,4.37c-0.49,1.04-1.8,1.7-3.08,2.83
	c-6.03-5.28-1.02-11.99-2.05-18.66c-1.21,1.15-2.37,1.72-2.59,2.53c-1.05,3.94-3.93,4.98-7.46,5.01
	c-6.99,0.05-13.99,0.06-20.98-0.01c-1.9-0.02-3.14,0.4-4.45,2.09c-2.05,2.65-4.76,4.8-7.79,7.75c-0.91-6.96-0.64-12.66,2.66-17.98
	c-5.52-0.14-10.81,1.4-15.77-1.58c-0.82-0.49-2.52,0.17-3.68,0.62c-2.27,0.9-4.45,2.03-6.76,3.11c-2.24-1.2-2.01-2.91-1.39-5.02
	c1.52-5.19,4.5-9.47,8.29-13.13c5.97-5.77,10.36-12.55,13.95-19.97c1.12-2.32,2.71-4.5,4.45-6.4c3.66-3.99,6.67-4.43,11.45-2.13
	c1.04,0.5,2,1.17,3.07,1.58c5.78,2.22,10.41,0.82,13.18-4.87c2.89-5.94,6.89-10.85,11.79-15.03c2.76-2.35,3.5-5.37,4.28-8.53
	c2.01-8.2,3.62-16.53,6.08-24.59c4.36-14.31,9.04-28.53,13.95-42.66c2.67-7.67,5.71-15.27,9.32-22.54c1.98-3.98,2.2-7.81,1.49-11.75
	C533.36,966.8,531.73,960.68,530.18,953.91z M505.66,851.8c0-7.61,0.01-14.25-0.02-20.89c0-0.81-0.17-1.64-0.41-2.41
	c-1.16-3.84-2.3-7.7-3.6-11.5c-0.5-1.47-1.11-3.09-2.17-4.12c-1.48-1.45-3.61-2.23-5.15-3.64c-4.44-4.05-10.33-6.88-12.27-13.14
	c-2.3-7.43-4.22-14.98-6.4-22.46c-0.49-1.68-0.97-3.69-2.16-4.77c-4.71-4.29-7.63-9.78-11.1-14.94c-2.42-3.59-3.23-7.35-3.73-11.44
	c-0.43-3.52-0.26-7.66-2.09-10.35c-6.47-9.51-11.71-19.53-15.32-30.41c-6.54,1.71-11.6,4.49-15.49,8.16
	c-10.29,9.72-13.45,22.37-15.06,35.78c-1.21,10.05,2.37,19.51,3.13,29.3c0.07,0.85,0.9,1.68,1.45,2.46c1.92,2.74,3.87,5.46,5.96,8.4
	c-3.62,2.45-6.5,1.72-9.36,0.14c-1.42-0.79-2.71-2.23-4.19-2.42c-4.28-0.55-7.49-2.78-10.79-5.31c-1.82-1.4-4.58-2.85-6.59-2.49
	c-5.82,1.05-11.07,3.8-15.4,8c-8.13,7.9-13.9,17.19-17.22,28.12c-2.45,8.07-4.08,16.27-3.76,24.6c0.27,6.98,1.51,13.98,2.94,20.84
	c1.35,6.49,2.85,12.94,7.41,18.37c2.58,3.06,3.83,7.24,6.04,11.64c7.4,1.4,15.82,1.87,25.06-0.52c-1.26-2.98-2.35-5.56-3.5-8.27
	c7.2-0.85,13.84,0.68,20.38,2.97c3.01,1.05,5.62,3.54,9.15,2.78c7.47-1.61,14.95-3.16,22.37-4.99c3.24-0.8,3.99-3.69,1.97-6.35
	c-0.97-1.27-2.11-2.41-3.7-4.22c2.34-0.58,4.06-1.5,5.65-1.31c4.67,0.55,9.95,0.4,13.78,2.62c5.82,3.37,10.68,2.27,15.99-0.08
	c2.38-1.06,4.79-2.05,7.17-3.11c3.58-1.59,4.81-4.06,3.16-7.87c-1.25-2.88-3.3-5.4-5.06-8.17
	C490.28,847.2,497.66,847.77,505.66,851.8z M463.89,215.29c9.3-3.57,17.47-6.74,25.67-9.83c1.82-0.68,3.81-0.91,5.59-1.67
	c1.59-0.67,3.68-1.44,4.34-2.77c2.14-4.3,3.72-8.88,5.59-13.53c-5.83-2.95-10.02-6.86-13.9-11.4c-3.91-4.57-7.06-9.36-8.9-15.05
	c-0.78-2.43-2.03-5.08,0.14-7.23c2.36-2.33,4.61,0.09,6.67,0.97c6.8,2.9,13.5,6.06,20.11,9.07c3.56-4.81,3.6-8.91-0.07-13.02
	c-2.29-2.56-4.22-5.43-6.5-8c-7.04-7.95-14.09-15.88-21.29-23.68c-2.49-2.69-5.32-5.12-8.24-7.36c-2.7-2.08-5.7-3.77-8.61-5.57
	c-2.15-1.33-4.37-2.54-7.15-4.16c-1.22,3.82-2.22,6.85-3.14,9.89c-3.61,11.87-6.32,23.92-7.49,36.3c-0.62,6.53-0.74,13.19-2.27,19.5
	c-0.98,4.05-0.68,7.76,0.85,10.96C451.26,191.21,457.79,203.43,463.89,215.29z M634.29,617.26c0.15,2.99,0.15,5.29,0.4,7.56
	c0.91,8.13,2.39,16.22,2.75,24.37c0.54,12.17,0.67,24.39-2.87,36.31c-3.24,10.89-6.19,21.87-9.43,32.76
	c-1.56,5.23-5.01,10.06-3.01,16.33c1.25-0.41,2.54-0.65,3.64-1.23c11.71-6.25,23.86-11.21,37.11-13.19c1.65-0.25,3.9-1.61,4.46-3.02
	c1.48-3.75,2.74-7.75,3.07-11.74c0.71-8.55,0.99-17.16,1.02-25.75c0.01-3.53-0.85-7.11-1.71-10.57
	c-2.6-10.42-7.97-19.56-13.64-28.55C650.39,631.5,643.76,623.38,634.29,617.26z M636.21,460.37c0.78-0.74,1.88-1.74,2.92-2.79
	c2.95-2.98,3.2-6.5,0.74-10.08c-2.1-3.04-5.46-4.13-9.02-1.78c-4.35,2.88-8.14,6.62-12.39,10.16
	C624.75,457.47,630.31,458.88,636.21,460.37z M638.52,781.19c-6.64-1.32-12.37,0.46-18.16,2.78c1.06,3.5,1.95,6.41,2.95,9.69
	C630.89,792.4,633.67,785.6,638.52,781.19z"/>
</svg>
