<?xml version="1.0" encoding="utf-8"?>
<!-- Generator: Adobe Illustrator 23.1.0, SVG Export Plug-In . SVG Version: 6.00 Build 0)  -->
<svg version="1.1" id="Layer_1" xmlns="http://www.w3.org/2000/svg" xmlns:xlink="http://www.w3.org/1999/xlink" x="0px" y="0px"
	 width="1082" height="1119.14" viewBox="0 0 1082 1119.14" style="enable-background:new 0 0 1082 1119.14;" xml:space="preserve">
<g>
	<path d="M433.21,1100.86c-0.08-2.26-0.48-3.95-0.14-5.47c1.09-4.94,3.96-9.07,7.5-12.41c5.48-5.16,9.39-11.38,13.35-17.6
		c1.56-2.44,2.39-5.36,4.02-7.75c3.88-5.66,7.75-6.52,14-3.52c8.19,3.92,12.52,2.48,16.58-5.87c2.53-5.2,6.42-9.23,10.66-12.87
		c2.76-2.37,3.53-5.38,4.31-8.52c2.04-8.2,3.63-16.54,6.09-24.61c4.36-14.32,9.05-28.55,13.96-42.7c2.67-7.68,5.66-15.31,9.3-22.56
		c2.01-4,2.22-7.81,1.53-11.76c-1.09-6.22-2.73-12.35-4.3-19.22c-4.25,0.95-8.3,1.97-12.4,2.76c-11.68,2.25-23.36,4.56-35.09,6.56
		c-9.19,1.56-18.43,2.84-27.69,3.96c-5.4,0.65-10.86,0.84-16.29,1.06c-10.1,0.41-20.2,0.65-30.3,1.07c-1.21,0.05-2.64,0.5-3.53,1.28
		c-5.2,4.55-11.53,6.74-17.99,8.42c-2.07,0.54-4.59-0.65-7.61-1.17c2.12-3.81,3.74-6.72,5.88-10.58c-2.53,0-4.4-0.01-6.28,0
		c-11.07,0.08-21.72-2.6-32.43-4.92c-1.77-0.38-3.69-0.1-5.54-0.09c-2.48,0.01-4.96,0.05-3.86-3.33
		c-11.34-2.85-22.68-5.78-34.07-8.51c-3.57-0.86-7.04-2.68-11-1.38c-0.84,0.28-2.33-0.73-3.22-1.5c-0.94-0.81-1.53-2.03-2.67-3.63
		c-5.33,14.32-10.31,27.99-15.53,41.57c-3.24,8.45-7.98,16.06-13.62,23.17c-7.52,9.46-14.88,19.02-23.59,27.47
		c-4.51,4.37-8.51,9.25-12.88,13.78c-16.69,17.29-36.06,31.03-56.45,43.63c-16.57,10.24-34.24,18.1-52.32,24.81
		c-11.7,4.34-24.04,8.1-37.01,6.9c-2.24-0.21-4.45-0.72-7.95-1.31c2.07-2.3,3.18-3.82,4.56-5.03c8.64-7.59,17.51-14.92,25.97-22.69
		c18.74-17.2,31.76-38.51,42.35-61.29c4.99-10.74,8.8-22.11,12.2-33.47c2.42-8.07,3.49-16.58,4.76-24.96
		c1.38-9.08,2.48-18.21,3.34-27.36c0.53-5.62,0.66-11.32,0.44-16.96c-0.26-6.96,2.61-11.79,8.56-15.12
		c3.63-2.03,7.36-3.98,10.65-6.48c5.68-4.32,5.41-7.62-0.49-11.52c-6.65-4.4-13.07-9.12-21.04-11.17c-2.79-0.72-4.85-2.81-5.7-6.18
		c-3.42-13.5-6.53-27.01-6.75-41.03c-0.06-3.58,0.06-6.89,4.03-8.82c-2.61-0.67-4.72-1.22-6.58-1.69c-0.51-4.26-0.98-8-1.4-11.75
		c-0.38-3.41,0.63-5.76,4.47-6.4c1.66-0.27,3.19-1.29,4.65-2.79c-3.22,0-6.45,0.16-9.66-0.04c-3.78-0.24-5.82-1.97-6.24-5.29
		c-1.39-10.99-4.92-21.35-8.9-31.61c-18.64-48.06-47.11-89.44-84.76-124.5c-12.31-11.46-25.14-22.37-37.72-33.56
		c-1.31-1.17-2.49-2.48-3.89-3.89c2.72-2.52,5.42-1.92,7.93-1.3c12.92,3.19,25.84,6.4,38.71,9.8c25.95,6.86,50.15,17.74,73.03,31.73
		c12.65,7.74,25.58,15.01,38.22,22.75c6.21,3.8,11.9,8.45,18.09,12.3c26.19,16.3,44.29,40.02,59.88,65.83
		c22,36.42,36.01,75.96,44.2,117.63c0.22,1.14,0.53,2.26,0.86,3.65c4.81,1.21,9.64,2.42,15.17,3.81c-0.31-3-0.57-5.47-0.86-8.3
		c8.82,2.42,16.03,6.72,21.96,13.19c0.38,0.42,1.03,0.74,1.59,0.81c6.19,0.72,12.39,1.37,18.59,2.05c3.25,0.36,6.5,0.74,10,1.13
		c1.72-3.31,1.25-6.17-1.42-9.09c4.85-2.32,8.6-0.09,12.04,2.06c3.19,2,5.76,4.97,8.9,7.07c1.96,1.31,4.45,2.41,6.74,2.51
		c7.04,0.31,14.18,1.38,21.94-1.27c-1.1-2.67-2.12-5.11-3.26-7.87c4.67-1.64,9.47-0.18,14.1,0.77c3.59,0.74,6.86,2.99,10.45,3.8
		c2.7,0.61,5.74,0.35,8.52-0.14c6.09-1.06,12.15-2.33,18.14-3.85c4.12-1.05,4.79-3.92,2.02-7.14c-0.84-0.98-1.71-1.93-2.67-3.02
		c3.49-3.1,7.51-2.25,11.03-1.74c3.78,0.56,7.5,2.14,10.98,3.84c3.06,1.5,5.73,1.48,8.71,0.1c3.25-1.51,6.5-3.21,9.94-4.06
		c5.84-1.44,7.26-7.03,2.83-12.2c-1.05-1.23-2.7-1.94-4.79-3.38c8.9-4.78,16.28-4.07,24.43-0.09c0-7.84,0.48-15.1-0.17-22.25
		c-0.43-4.73-2.42-9.33-3.87-13.94c-0.32-1.02-1.14-2.04-2-2.7c-3.62-2.79-7.36-5.42-11.01-8.17c-5.74-4.33-7.78-10.87-9.74-17.27
		c-1.47-4.8-1.88-9.93-3.32-14.75c-0.66-2.21-2.47-4.19-4.06-6c-5.31-6.05-9.94-12.51-12.23-20.33c-0.82-2.8-1.57-5.81-1.4-8.67
		c0.21-3.48-1.59-5.74-3.08-8.48c-4.5-8.29-8.74-16.74-12.76-25.28c-2.76-5.86-5.14-11.91-7.4-17.98
		c-3.89-10.46-6.13-21.31-6.92-32.44c-0.71-10.03-1.82-20.06-1.88-30.1c-0.08-13.81,2.03-27.46,5.33-40.86
		c2.53-10.26,5.56-20.4,8.21-30.63c0.38-1.48,0-3.22-0.3-4.79c-1.47-7.77-3.05-15.55-2.32-23.51c0.96-10.45,3.25-20.59,7.42-30.28
		c1.99-4.63,3.67-9.39,5.51-14.08c0.47-1.19,1.06-2.34,1.64-3.6c-4.61-8.46-6.33-17.85-6.64-27.62c-0.12-3.77-0.85-7.53-0.87-11.3
		c-0.02-3.26,0.82-6.53,0.81-9.79c-0.01-1.62-0.75-3.47-1.71-4.83c-5.52-7.86-9.34-16.44-11.16-25.86
		c-0.81-4.17-1.86-8.38-1.88-12.58c-0.02-4.88,0.93-9.76,1.55-14.63c0.21-1.64,0.05-2.58-1.22-4.14
		c-4.35-5.36-6.75-11.84-8.47-18.52c-0.64-2.48-1.11-5.01-1.58-7.15c-4.31,1-8.25,1.92-12.76,2.97c1.59,1.39,2.96,2.6,5.12,4.5
		c-1.99,0.69-3.41,1.68-4.69,1.53c-3.54-0.41-7.16-0.92-10.49-2.12c-3.04-1.09-5.58-1.07-8.72,0.96c2.74,1.5,5.13,2.81,7.5,4.11
		c-0.96,2.94-3.66,4.8-6.8,4.07c-6.12-1.43-12.46-1.75-18.35-4.54c-2.43-1.15-5.86-0.19-9.03-0.19c-0.32,3.91,1.95,4.94,5.21,4.9
		c-0.23,1.61-0.42,3-0.64,4.55c-0.57,0.11-1.2,0.32-1.84,0.34c-6.36,0.16-12.26-1.17-17.54-5c-4.41-3.19-9.27-3.07-14.47-1.98
		c-11.35,2.39-22.58,1.92-33.63-2.1c-2.45-0.89-5.43-0.33-8.16-0.46c-4.2-0.2-8.55,0.17-12.56-0.83c-3.24-0.8-5.91-3.24-6.8-7.11
		c-1.41-6.17-3.14-12.27-4.81-18.37c-0.29-1.06-0.7-2.19-1.39-3.01c-6.07-7.19-6.09-7.17-8.16-17.75
		c-13.9,14.41-23.96,30.59-31.41,48.74c-0.89-4.72-4.03-8.6-3.35-13.44c-5.28-6.08-1.77-13.66-3.26-20.45
		c-1.19-5.43-0.15-11.53,0.77-17.19c1.59-9.8,3.43-19.6,5.92-29.21c4.66-18.01,12.47-34.69,23.48-49.71
		c3.71-5.06,8.27-9.54,12.66-14.07c4.17-4.3,6.43-9.59,8.61-14.98c2.12-5.24,4.37-10.42,6.53-15.64c0.63-1.53,1.48-3.06,1.68-4.66
		c1.28-10.2,7.46-17.96,12.68-26.24c2.36-3.73,4.94-7.61,6.04-11.78c1.4-5.31,8.07-9.04,13.2-7.48c2.85,0.87,4.37,0.32,5.91-1.65
		c2.08-2.67,4.56-3.91,8.12-3.75c1.64,0.07,3.63-1.24,4.96-2.46c1.69-1.54,3.25-2.83,5.64-2.38c3.7,0.7,6.38-0.84,8.58-3.67
		c2.41-3.1,5.46-3.94,9.1-2.32c0.55,0.25,1.19,0.43,1.61,0.82c2.52,2.32,4.97,4.71,7.48,7.04c6.09,5.67,11.1,12.47,14.15,19.9
		c2.58,6.29,5.11,13.33,3.7,20.7c-0.12,0.64,0.54,1.44,0.89,2.14c0.65,1.32,1.42,2.58,2.01,3.93c2.36,5.38,1.09,8.51-4.29,10.42
		c-5.42,1.93-10.48,4.02-13.84,9.35c-2.43,3.85-5.44,3.46-10.71,0.05c-3.74,2.37-7.83,4.11-10.73,7.03
		c-3.03,3.06-4.85,7.28-7.29,10.94c-4.99,7.51-5.7,16.53-8.75,24.72c-0.2,0.53-0.27,1.27-0.07,1.77
		c4.7,11.92,11.36,22.71,18.81,33.29c8.44-7.18,18.17-10.97,28.25-13.76c5-1.38,10.31-1.94,15.51-2.26
		c4.43-0.27,6.32-3.65,8.44-6.28c11.71-14.53,26.5-22.64,45.32-22.77c3.92-0.03,7.85,0.81,11.78,0.84c1.86,0.01,3.96-0.57,5.55-1.54
		c10.86-6.63,22.35-11.65,34.8-14.49c1.53-0.35,3.32-1.72,4.03-3.11c2.05-4.04,3.61-8.32,5.46-12.77c-1.85-1.2-3.55-2.11-5.04-3.28
		c-7.95-6.29-14.53-13.64-17.72-23.52c-0.4-1.24-0.68-2.53-0.83-3.82c-0.4-3.37,1.2-4.68,4.43-3.71c0.94,0.28,1.91,0.48,2.79,0.88
		c6.8,3.13,13.58,6.31,20.34,9.45c4.33-6.55,4.19-8.62-2.18-16.21c-5.41-6.44-11.62-12.25-16.64-18.96
		c-4.32-5.79-9.43-10.91-14.9-15.14c-5.35-4.14-10.64-9.13-17.79-10.75c-2.14-0.48-4.11-1.86-6.07-2.98
		c-6.35-3.62-12.67-7.29-18.97-11.01c-0.75-0.45-1.27-1.29-1.92-1.98c7.48-4.08,14.88-0.51,22.17-0.86
		c1.36-0.07,2.72-0.13,4.07-0.01c2.59,0.22,5.26,0.25,7.74,0.93c4.38,1.19,9.01,2.08,13.1,3.48c8.17,2.79,16.96,4.56,24.16,9.99
		c2.14,1.61,4.96,2.31,7.41,3.55c3.6,1.82,7.14,3.78,10.72,5.63c1.71,0.89,3.49,1.65,5.21,2.54c5.03,2.61,10.02,5.19,14.02,9.49
		c1.61,1.73,4.54,2.18,6.77,3.41c1.86,1.02,3.57,2.31,5.36,3.5c3.26-1.44,6.65-2.94,10.34-4.58c-2.57-6.25-3.31-12.79-7.41-18.06
		c-0.66-0.85-0.94-2.08-1.17-3.18c-0.92-4.43-2.55-8.39-6.29-11.28c-0.84-0.65-1.61-1.84-1.76-2.88c-0.68-4.79-3.9-7.78-7.09-10.91
		c-7.01-6.87-13.93-13.83-20.83-20.81c-1.8-1.82-4.52-3.86-2.85-6.62c1.8-2.98,4.91-1.09,7.17-0.17c6.73,2.75,13.32,5.84,19.96,8.8
		c2.79,1.24,5.97,1.96,8.31,3.78c6.93,5.39,13.51,11.23,20.27,16.85c2.77,2.3,6.07,4.1,8.38,6.77c6.98,8.06,13.67,16.37,20.31,24.71
		c2.94,3.69,5.7,7.56,8.17,11.58c1.67,2.73,2.63,5.89,4.01,8.81c1.29,2.75,2.67,5.46,4.09,8.15c2.73,5.17,5.48,10.34,8.31,15.46
		c0.73,1.32,1.58,2.66,2.68,3.66c3.67,3.34,5.23,10.24,3.93,15.25c-0.73,2.81-2.25,6.01,0.67,8.8c0.73,0.7,1.29,2.19,1.09,3.14
		c-1.3,6.32,3.43,10.29,5.69,15.21c0.07,0.14,0.29,0.23,0.33,0.37c2.65,9.76,12,12,18.95,16.95c5.19,3.69,10.28,7.52,15.35,11.38
		c3.39,2.58,7.24,4.85,9.84,8.09c2.87,3.58,6.75,3.18,10.2,3.98c9.24,2.14,17.67,5.83,24.9,11.93c6.35,5.34,9.42,12.94,12.72,20.25
		c4.33,9.6,5.64,19.86,5.05,30.3c-0.48,8.43-2.48,16.48-7.92,23.4c1.1,2.65,2.2,5.31,3.32,8.01c2.54-2.14,4.96-4.18,8.06-6.8
		c0.99,5.49,0.54,9.47-1.07,13.58c-1.52,3.87-2.62,8.06,0.22,12.29c2.4-2.29,4.66-4.44,7.75-7.39c0.27,2.76,1.05,4.78,0.53,6.4
		c-1.82,5.71-3.52,11.58-6.36,16.8c-1.83,3.37-1.65,5.6,0.62,9.06c2.92-3.62,5.54-6.88,8.45-10.49c0.49,0.63,1.28,1.16,1.31,1.74
		c0.68,11.43-0.06,22.44-9.18,31.04c-1.02,0.96-1.8,2.99-1.57,4.33c1.03,5.88,2.6,11.62,2.09,17.74c-0.16,1.88,1.45,3.91,2.22,5.88
		c1.13,2.87,2.58,5.68,3.27,8.66c1.04,4.47,0.29,8.79-2.4,12.71c-0.99,1.44-1.83,3.11-2.22,4.79c-0.56,2.44-0.02,4.68,2.89,5.42
		c4.71,1.2,9.37,2.98,14.15,3.39c8.72,0.76,17.44,0.12,25.82-2.86c1.37-0.49,2.78-0.92,4.1-1.53c9.69-4.44,18.67-10.07,27.31-16.29
		c1.17-0.84,2.47-1.5,4.82-1.85c-0.44,2.04-0.52,4.25-1.39,6.09c-4.82,10.25-12.17,18.53-21.95,24.03
		c-12.48,7.02-25.35,13.37-38.24,19.62c-7.17,3.47-14.55,6.73-22.15,9c-10.58,3.17-21.42,5.58-32.25,7.79
		c-3.99,0.81-8.29,0.13-13.46,0.13c1.4,1.03,1.98,1.77,2.7,1.94c8.85,2.17,17.31,5.1,25.52,9.27c7.72,3.92,15.22,8.2,22.29,13.05
		c4.61,3.16,8.57,7.23,12.2,11.92c5.28,6.81,8.67,14.63,13.62,21.53c1.46,2.04,2.02,4.73,2.99,7.11c1.78,4.34,3.59,8.67,5.34,13.02
		c1.57,3.89,3.44,7.71,4.52,11.73c1.65,6.11,2.88,12.35,4.04,18.58c0.89,4.81,1.94,9.69,1.94,14.54
		c-0.01,12.43-0.17,24.89-1.02,37.29c-0.59,8.61-2.43,17.13-3.7,25.7c-1.39,9.37-2.57,18.78-4.23,28.11
		c-1.82,10.26-3.86,20.5-6.19,30.66c-1.95,8.54-4.41,16.97-6.69,25.44c-1.65,6.11-3.16,12.28-5.14,18.28
		c-1.26,3.82-2.97,7.57-5.03,11.02c-4.59,7.7-9.59,15.17-14.27,22.82c-0.9,1.46-1.67,3.4-1.52,5.04
		c1.14,13.17-2.21,25.83-4.17,38.65c-0.17,1.09-0.87,2.1-1.61,3.8c-6.49-5.99-9.78-14.08-15.89-20.55
		c-1.92,2.32-3.48,4.85-5.64,6.67c-6.89,5.82-13.71,11.79-21.09,16.94c-10.3,7.18-21.09,13.63-31.61,20.5
		c-0.95,0.62-1.67,1.86-2.1,2.97c-2.12,5.46-4.35,10.9-6.08,16.49c-2.18,7.04-7.32,11.38-12.88,15.52
		c-4.05,3.01-7.96,6.2-11.95,9.33c4.91,5.43,9.74,10.61,11.85,17.58c1.88,6.21,1.63,12.23-1.42,18.12
		c-5.25,10.15-10.73,20.26-13.57,31.4c-2.65,10.4-4.39,21.03-7.03,31.43c-2.25,8.89,0.12,17.23,1.86,25.71
		c0.23,1.12,0.32,2.32,0.2,3.46c-0.61,6.03-1.17,12.07-2.03,18.06c-0.56,3.92-2.83,7.15-6.01,9.3c-4.58,3.08-9.27,6.12-15.07,6.66
		c-0.97,0.09-2.47,0.92-2.68,1.68c-1.53,5.69-4.14,10.81-6.79,16.05c-1.96,3.89-1.81,8.89-2.37,13.43
		c-0.65,5.24-0.79,10.86-5.88,13.91c-3.09,1.85-6.79,3.06-10.36,3.64c-2.89,0.46-4.73,1.2-6.23,3.87c-1.5,2.67-3.85,4.87-5.7,7.13
		c-4.21-0.07-4.12-3.22-4.86-5.74c-0.77-2.63-1.08-5.58-2.52-7.78c-1.84-2.81-2.69-5.4-1.38-8.51c-5.37-1.27-6.26-0.71-7.11,4.28
		c-0.71,4.18-4.14,7.59-8.23,7.93c-5.26,0.43-10.53,0.97-15.79,0.93c-3.49-0.03-6.07,0.83-7.97,3.82c-0.74,1.17-1.82,2.11-3.06,3.52
		c-6.11-5.36-1.28-12.04-2.27-18.64c-1.14,1-2.33,1.52-2.53,2.3c-1.08,4.23-4.14,5.13-7.89,5.12c-6.67-0.02-13.33,0.06-20-0.04
		c-2.25-0.03-3.84,0.29-5.33,2.4c-1.84,2.6-4.48,4.64-7.41,7.56c-1.1-7.07-0.69-12.75,2.61-18.08c-5.47-0.23-10.76,1.41-15.74-1.55
		c-0.93-0.55-2.82,0.2-4.13,0.71C438.52,1098.22,436.36,1099.37,433.21,1100.86z M634.3,569.08c0.12,2.79,0.11,5.08,0.34,7.36
		c0.92,8.8,2.41,17.57,2.77,26.39c0.45,11.18,0.37,22.3-2.7,33.38c-3.61,13-6.22,26.27-11.45,38.78c-1.54,3.68-2.38,7.32-1.2,11.53
		c1.08-0.32,1.9-0.43,2.59-0.79c12.2-6.36,24.74-11.71,38.5-13.69c2.59-0.37,4.39-1.66,4.88-4.59c0.7-4.17,2.24-8.24,2.51-12.42
		c0.6-9.24,1.66-18.63,0.64-27.75c-1.26-11.26-6.73-21.34-12.65-31.01C652.21,585.89,645.18,576.17,634.3,569.08z M663.98,357.57
		c-6.81,9.7-14.35,17.02-24.02,22.05c-3.27,1.7-5.37,4.53-6.43,8.16c-1.55,5.31-3.55,10.27-8.45,13.68
		c-2.4,1.66-4.14,4.28-5.98,6.25c5.78,1.47,11.4,2.91,17.28,4.4c6.12-6.81,12.57-13.43,15.7-22.65c3.21-9.45,8.26-18.05,14.48-26.13
		C665.82,361.71,665.05,359.99,663.98,357.57z M620.3,735.8c1.13,3.73,2.01,6.62,2.87,9.45c4.82-0.48,11.67-6.13,15.28-12.59
		C631.96,731.52,626.31,733.82,620.3,735.8z"/>
</g>
</svg>
