<?xml version="1.0" encoding="utf-8"?>
<!-- Generator: Adobe Illustrator 24.1.1, SVG Export Plug-In . SVG Version: 6.00 Build 0)  -->
<svg version="1.1" id="Layer_1" xmlns="http://www.w3.org/2000/svg" xmlns:xlink="http://www.w3.org/1999/xlink" x="0px" y="0px"
	 width="3249.18" height="3752.78" viewBox="0 0 3249.18 3752.78" style="enable-background:new 0 0 3249.18 3752.78;" xml:space="preserve">
<style type="text/css">
	.st0{fill:#1A1A1A;}
</style>
<g>
	<path d="M3236.65,3208c3.6,2.23,5.26-3.84,8.8-1.91c0.3,1.06,1.25,2.5,0.9,3.45c-3.06,8.3-3.19,16.64-2.26,25.42
		c2.74,26.07-0.18,51.7-5.8,77.34c-10.69,48.78-33.99,90.75-66.26,128.2c-7.39,8.57-15.08,16.9-22.81,25.17
		c-12.78,13.67-26.64,26.13-42.17,36.65c-15.45,10.46-30.94,20.85-46.4,31.29c-24.45,16.51-51.52,27.76-78.52,39.14
		c-31.92,13.46-64.28,25.71-97.74,34.88c-2.29,0.63-5.6,0.11-6.43,4.31c11.62,2.88,23.34,2.54,35.11,1.84
		c2.62-0.16,5.26-0.15,7.89-0.08c0.39,0.01,0.9,0.72,1.11,1.22c0.24,0.58,0.54,1.62,0.26,1.88c-7.26,6.81-14.97,12.74-24.97,15.22
		c-21.97,5.43-43.78,11.5-65.8,16.72c-58.35,13.85-117.26,24.7-176.69,32.76c-27.74,3.76-55.5,6.9-83.51,7.86
		c-11.3,0.39-22.58,1.65-33.87,2.38c-38.74,2.53-77.16-1.25-115.61-5.46c-25.88-2.83-51.42-7.26-76.67-13.4
		c-32.57-7.92-63.19-20.88-92.28-37.35c-15.7-8.89-30.1-19.69-42.4-33.08c-2.23-2.43-4.63-4.69-7.6-7.68
		c-9.81,10.85-9.55,26.32-19.22,37.52c-1.09-2.89-1.82-4.67-2.42-6.49c-0.61-1.84-1.09-3.73-1.63-5.6c-5.93-0.71-8.78,5.7-14.51,5.4
		c-1.72-0.09-3.98,3.12-5.38,5.23c-11.59,17.38-19.72,36.11-22.52,57.04c-1.34,9.99-5.37,19.18-10.31,27.98
		c-3.35,5.96-7.96,10.67-13.46,14.54c-13.96,9.83-29.97,7.3-40.66-6.33c-7.75-9.88-10.23-21.63-11.09-33.67
		c-0.66-9.27-0.13-18.62-0.13-27.7c-4.56-1.77-4.86,1.73-5.5,3.53c-2.24,6.25-4.06,12.67-5.97,19.04
		c-2.3,7.65-4.48,15.34-6.82,22.97c-2.56,8.34-5.25,16.86-13.24,21.66c-9.76,5.86-20.05,10.31-31.94,9.9
		c-10.3-0.35-17.93-4.54-22.56-13.76c-2.37-4.71-4.4-9.59-7.08-15.47c-3.05,4.03-5.28,7.07-7.6,10.04
		c-10.54,13.43-29.7,9.76-38.27-1c-6.38-8.02-10.83-16.95-12.24-26.99c-1.85-13.14-3.29-26.36-2.47-39.71
		c0.51-8.26-1.47-10.24-10.23-10.6c-3.99-0.16-8.02,0.1-11.99-0.26c-15.77-1.44-25.42-12.08-24.99-27.96
		c0.14-5.27,0.56-10.89,2.5-15.68c6.53-16.13,14.64-31.38,28.19-43.02c10.09-8.67,19.95-17.63,32.65-23.3
		c-1.26-25.34-5.38-49.36-11.33-72.72c-17.69-4.53-20.94-5.95-36.96-16.02c-14.72-9.25-28.2-20-40.61-32.24
		c-19.99-19.71-38.17-40.91-54.11-64.06c-15.73-4.14-26.33-15.26-37.45-25.87c-34.39-32.78-57.28-73.09-77.8-115.31
		c-29.92-61.56-49.28-126.49-63.55-193.1c-5.72-26.69-10.16-53.65-14.86-80.54c-1.49-8.51-1.9-17.21-2.86-25.81
		c-0.37-3.3-0.84-6.61-3.64-8.83c-1.19-0.66-2.16-0.12-2.45,1.66c-4.92,30.4-14.19,59.55-25.31,88.16
		c-2.64,6.78-4.98,13.71-9.63,19.66c-2.37,3.03-3.84,7.03-4.86,10.83c-9.05,33.53-22.78,65.36-35.21,97.67
		c-23.43,60.92-46.57,121.94-67.57,183.76c-19.13,56.3-32.64,113.93-40.82,172.79c-2.01,14.5-2.81,29.16-4.12,43.75
		c-0.36,3.98-0.38,7.83,1.21,11.75c2.25,5.52,3.83,11.31,5.39,16.06c2.62,4.01,6.21,3.8,9.29,4.85
		c30.38,10.34,50.32,31.41,62.22,60.73c3.7,9.11,3.35,18.2-0.06,27.24c-2.59,6.85-7.91,10.65-14.94,11.75
		c-5.28,0.83-10.64,0.49-15.81-1.26c-5.04-1.71-10.1-3.38-15.17-5.02c-2.53-0.82-5.09-1.5-8.29,0.51
		c-1.9,7.85-0.34,16.51-0.57,25.07c-0.5,18.41-5.29,35.44-15.12,51.07c-6.19,9.86-14.59,17.27-24.65,22.83
		c-2.85,1.58-6.1,2.72-9.3,3.32c-5.56,1.05-10.65-0.31-14.37-4.89c-2.06-2.54-3.82-5.33-6.15-8.61c-3.91,4.69-6.87,9.09-10.65,12.6
		c-10.58,9.79-23.07,13.81-39.27,0.2c-7.28-6.12-13-13.41-13.94-23.44c-0.25-2.68-0.98-5.21-3.67-6.89c-4.11,0.86-3,4.97-4.31,7.53
		c-1.51,2.96-2.49,6.18-3.87,9.21c-3.73,8.14-9.37,14.47-17.58,18.39c-5.74,2.74-11.28,3.13-17.25,0.33
		c-11.34-5.32-19.66-13.74-25.33-24.63c-6.76-12.99-12.95-26.27-19.26-39.49c-2.29-4.81-4.07-9.86-6.35-14.67
		c-1.42-2.98-2.88-6.18-5.14-8.46c-9.96-10.04-17.22-22.01-24.99-33.63c-1.46-2.19-3.24-4.17-4.81-6.16
		c-4.85,1.75-9.04,2.39-13.61-0.35c-7.11-4.27-12.68-9.87-16.04-17.31c-3.28-7.26-6.14-14.75-8.7-22.3
		c-10.48-30.9-20.52-61.94-31.22-92.76c-6.77-19.49-14.29-38.73-21.76-57.97c-1.66-4.28-4.26-8.27-6.9-12.07
		c-4.94-7.11-10.28-13.94-15.36-20.96c-20.47-28.26-36.37-58.94-47.41-92.01c-14.84-44.48-23.54-90.15-24.97-137.1
		c-0.92-29.95-3.99-59.82-3.1-89.84c0.37-12.67,0.6-25.27,7.29-36.75c1.19-2.05,1.19-5.12,0.94-7.63
		c-3.5-34.59-2.32-69.23-0.74-103.82c0.94-20.61,3.94-41.1,8.16-61.34c0.65-3.12,2.56-5.98,4.01-8.9c0.25-0.51,1.21-1.14,1.62-1.01
		c1.2,0.37,2.77,0.82,3.31,1.76c0.95,1.63,1.55,3.61,1.75,5.5c0.61,5.96,0.84,11.97,1.47,17.93c0.48,4.58,1.33,9.12,5.67,12.96
		c0.67-35.97,8.27-70.36,15.74-104.77c2.69-12.4,5.89-24.64,11.01-36.26c2.28-5.17,3.03-9.93,0.98-15.36
		c-8.27-21.91-13.37-44.6-16.3-67.82c-0.74-5.89-1.92-11.39-6.46-16.28c-3.42-3.68-5.05-9.27-6.76-14.26
		c-8.24-24.02-12.88-48.86-16.98-73.88c-4.89-29.81-4.47-59.77-4.1-89.74c0.7-56.05,7.22-111.61,14.84-167.09
		c-0.58-2.79-2.5-4.48-4.92-5.8c-3.15-1.72-6.36-2.23-9.26,0.22c-4.06,3.43-7.95,7.06-11.82,10.7c-4,3.75-10.49,2.1-14.62,7.18
		c0.7,6.72,1.5,13.94,2.17,21.18c0.18,1.97-0.01,3.98-0.08,5.97c-0.09,2.38-3.56,4.56-5.77,3.71
		c-10.49-4.04-18.08-11.04-22.05-21.68c-1.63-4.36-2.63-9.02-4.74-13.12c-10.83-21.03-16.9-43.34-18.78-66.87
		c-0.15-1.94-0.98-3.83-1.48-5.67c-2.46-0.16-3.65,1.32-4.62,3.03c-3.63,6.36-6.97,12.9-10.89,19.07
		c-11.55,18.17-16.66,21.34-38.4,24.58c-8.99,10.19-14.49,21.94-14.57,35.97c-0.03,4.75-0.76,9.32-4.75,12.6
		c-3.79,0-6.29-2.23-7.85-5.25c-4.91-9.49-8.78-19.34-10.26-30.06c-0.72-5.23-1.64-10.56-3.41-15.51
		c-5.54-15.5-5.62-31.35-3.97-47.38c0.4-3.92,1.19-7.8,1.79-11.69c-3.2-2.28-4.73,0.28-6.36,1.91c-5.65,5.64-10.93,11.68-16.85,17
		c-7.77,6.98-8.05,6.78-22.06,10.47c-6.93,10.04-10.33,22.07-12.42,34.6c-0.54,3.25-1.04,6.52-1.74,9.74
		c-0.43,1.96-4.76,3.35-6.85,2.54c-3.24-1.25-5.67-3.35-7.51-6.26c-4.74-7.49-6.68-15.93-8.14-24.49
		c-1.92-11.23-1.72-22.57-1.38-33.91c0.42-13.98,1.28-27.96,1.28-41.93c-0.01-16.29,3.19-31.81,9.86-46.56
		c4.94-10.92,10.4-21.6,15.73-32.33c2.05-4.13,4.35-8.13,6.33-11.81c-1.64-2.5-3.14-3.39-5.27-2.55c-7.4,2.91-14.45,6.69-22.73,7.02
		c-10.36,0.42-19.98-0.75-27.31-9.18c-0.81-0.93-2.18-1.38-3.35-2.08c-9.38,2.39-16.1,8.97-23.33,14.83
		c-4.1,3.32-9.56,0.61-10.11-4.77c-0.14-1.32-0.27-2.65-0.31-3.98c-0.33-9.37,0.6-18.51,3.09-27.67
		c3.19-11.67,7.64-22.71,13.68-33.12c7.87-13.55,18.55-24.35,32.35-31.87c8.19-4.46,16.46-8.76,24.82-12.87
		c18.84-9.27,35.03-21.53,47.26-38.96c4.14-5.9,10.12-10.51,15.25-15.72c10.27-10.44,20.88-20.58,30.72-31.43
		c10.37-11.44,17.82-24.63,22.71-39.53c18.71-57.09,43.64-111.61,69.64-165.65c32.34-67.22,64.64-134.45,97.2-201.56
		c41.41-85.36,75.48-173.4,96.98-265.96c6.93-29.81,12.69-59.92,18.09-90.06c6.34-35.39,11.84-70.94,17.41-106.46
		c2.08-13.25,6.3-25.79,10.43-38.47c15.72-48.24,43.3-87.96,82.9-119.79c38.21-30.72,81.27-50.37,129.22-59.55
		c6.07-1.16,11.69-2.71,16.5-6.45c19.35-15,42.17-22.3,65.02-29.57c4.4-1.4,8.81-2.78,13.21-4.17c0.49-2.44,1.24-4.35,1.19-6.24
		c-0.22-8.01-0.85-15.98-4.24-24.4c-10.94-3.2-22.78-4.5-34.57-5.45c-8-0.64-15.81-2.16-23.71-3.22
		c-16.55-2.22-30.35-9.44-42.25-20.82c-4.33-4.15-8.8-7.53-14.89-9.47c-9.81-3.13-17.05-10.36-22.22-19.2
		c-8.8-15.04-13.91-31.45-17.57-49.83c-9.4-6.53-14.65-16.91-16.64-29.29c-0.62-3.88-2.3-7.6-3.61-11.35
		c-0.18-0.51-1.04-0.79-2.21-1.63c-2.37,5.91-1.74,13.02-7.66,17.35c-1.43,1.05-1.02,4.94-1.03,7.53
		c-0.02,10.66,0.17,21.32,0.19,31.99c0.01,1.98-0.33,3.96-0.58,5.93c-0.3,2.34-4.48,3.85-6.48,2.21c-2.55-2.09-5.22-4.13-7.32-6.63
		c-19.2-22.88-31.72-49.03-38.37-78.13c-12.29-53.82-10.25-107.03,5.63-159.88c12.14-40.4,27.73-79.18,51.35-114.4
		c0.72-1.08,1.1-2.38,1.81-3.97c-5.82-8.54-12.47-16.88-17.53-26.1c-5.2-9.47-6.08-20.28-5.99-31.08
		c0.09-10.68-0.32-21.38,5.44-30.36c-1.77-4.29-2.92-7.38-4.31-10.36c-11.24-24.11-15.01-49.6-13.86-75.94
		c1.81-41.43,14.35-79.76,34.13-115.9c4.16-7.61,9.23-14.63,15.79-20.49c3.77-3.37,7.86-4.83,12.82-3.72
		c0.65,0.15,1.32,0.2,1.97,0.34c35.8,7.98,71.22,17.16,103.95,34.34c18.87,9.91,37.66,19.96,55.18,32.23
		c13.14,9.2,25.29,19.48,34.55,30.5c5.21,2.17,8.15,0.09,11.07-1.18c25.95-11.25,53.38-16.2,81.21-19.7
		c33.38-4.2,66.43-1.25,99.44,3.87c9.95,1.54,19.38,4.66,28.84,7.9c30.52,10.43,58.83,24.87,83.79,45.54
		c4.57,3.79,9.44,7.22,13.26,10.12c5.14,0.47,7.32-2.35,9.85-4.35c42.53-33.64,91.08-54.72,143.09-68.53
		c4.48-1.19,9.12-1.91,13.73-2.51c8.52-1.11,17-2.31,24.22-6.06c6.45,2.96,7.79,8.86,8.83,13.5c1.93,8.63,5.51,16.37,9.54,23.95
		c24.12,45.36,28.51,93.72,22.14,143.73c-1.01,7.92-2.29,15.85-4.17,23.6c-5.47,22.67-15.73,42.35-36.78,55.27
		c4.06,26.38-2.34,50.2-17.78,71.68c0.84,2.89,1.19,5.59,2.35,7.87c18.93,37.25,29.44,77.26,35.98,118.08
		c9.86,61.52,6.42,122.21-17.94,180.56c-8.25,19.75-18.77,38.24-31.03,55.78c-5,7.16-11.03,13.3-17.78,18.78
		c-1.79,1.45-6-0.32-6.22-2.73c-0.55-5.94-1.23-11.9-1.23-17.85c0.01-9.32,0.61-18.64,0.76-27.96c0.02-0.93-1.2-2.42-2.11-2.66
		c-0.96-0.26-2.29,0.58-3.37,1.11c-0.56,0.28-0.9,0.96-1.38,1.42c-4.05,3.88-5.99,10.88-13.73,9.35
		c-3.56-5.28,0.02-10.23,0.96-15.18c1.25-6.52,3.13-12.94,5.07-19.3c1.98-6.48,2.33-13.09,2.39-19.77
		c0.07-7.04-0.73-7.69-10.69-7.98c-5.7,9.35-6.2,21.08-11.45,31.04c-5.35,10.13-13.12,18.3-20.61,26.69
		c0.81,4.01,1.1,7.34,2.17,10.4c4.44,12.74,4.95,26.15,6.72,39.31c1.53,11.38-0.94,22.56-3.32,33.65c-0.84,3.9-2.22,7.73-2.59,11.66
		c-0.14,1.44,1.69,3.32,3.03,4.56c0.86,0.79,2.45,0.95,3.75,1.09c21.54,2.36,41.31,10.12,60.21,20.2
		c11.74,6.26,23.2,13.08,34.53,20.07c11.43,7.06,21.38,15.96,29.21,26.94c5.5,7.71,12.41,13.89,19.6,19.84
		c38.58,31.96,79.74,60.15,123.34,84.85c52.27,29.61,106.13,55.65,163.25,74.6c3.79,1.26,7.63,2.36,11.41,3.63
		c2.54,0.85,5.03,1.81,7.59,0.19c4.43-2.81,9.08-1.6,13.58-0.51c8.54,2.08,17.26,2.39,25.84,1.56c25.85-2.48,51.79-4.55,77.42-8.56
		c40.11-6.27,79.96-14.23,120-21.03c24.33-4.14,48.82-7.03,73.61-4.84c7.41,0.66,14.47-0.48,21.59-2.87
		c11.34-3.81,22.94-6.86,34.42-10.23c4.66-1.37,9.31-1.82,13.14,1.83c3.65,3.49,8.05,4.03,12.78,4.64
		c28.17,3.69,54.18,13.68,78.24,28.5c22.1,13.62,44.57,26.74,65.07,42.82c2.09,1.64,4.27,3.24,6.6,4.5
		c18.11,9.77,25.23,26.52,28.89,45.42c0.84,4.36-0.37,6.26-5.94,11.48c-2.88-0.18-4.73-1.9-6.56-3.95
		c-3.06-3.44-7.02-3.75-10.92-1.85c-3.53,1.72-6.72,3.58-6.23,8.85c0.77,8.19-2.21,15.67-6.31,22.7c-2.8,4.8-6.67,8.44-11.9,10.17
		c-22.23,7.34-42.3,19.39-63.56,28.83c-9.73,4.32-19.3,9.06-29.21,12.93c-12.47,4.87-25.21,8.28-38.95,5.26
		c-5.95-1.31-10.6,4.97-7.58,10.02c11.64,19.49,5.08,37.11-5.08,54.42c-2.81,4.78-7.37,7.79-12.51,9.48
		c-8.85,2.9-17.83,5.42-26.79,7.99c-6.4,1.83-12.92,3.26-19.25,5.27c-8.63,2.74-15.17,8.13-19.19,16.39
		c-1.75,3.59-3.73,7.07-5.44,10.68c-4.32,9.12-10.31,17.12-16.77,24.76c-13.91,16.45-31.16,26.78-52.97,28.77
		c-7.94,0.72-15.71,1.63-23.83,0.69c-25.13-2.9-50.38-4.78-75.55-7.46c-8.67-0.92-17.26-1.24-25.91-0.54
		c-2.63,0.21-5.61,1.53-7.81,0.71c-9.69-3.63-18.46,0.53-27.23,2.95c-18.04,4.98-34.86,13.08-51.29,22
		c-8.77,4.76-17.74,9.16-26.71,13.53c-20.46,9.97-41.27,8.9-62.1,1.39c-6.25-2.26-12.21-5.32-18.35-7.91
		c-9.19-3.89-18.35-7.87-27.65-11.49c-12.5-4.88-25.3-7.82-38.97-6.96c-14.6,0.92-29.27,1.2-43.91,1.13
		c-15.31-0.07-30.69-0.11-45.91-1.55c-20.79-1.96-40.3-8.55-58.04-19.89c-3.36-2.15-6.74-4.25-10.16-6.3
		c-0.28-0.17-0.93,0.27-1.41,0.43c-0.23,1.25-0.94,2.64-0.61,3.73c4.72,16.04,11.19,31.32,19.79,45.7
		c11.31,18.91,23.82,36.9,38.32,53.57c14.87,17.09,29.32,34.55,43.61,52.13c13.07,16.08,23.8,33.72,33.33,52.12
		c4.97,9.6,9.05,19.33,8.07,30.45c-0.5,5.58,1.2,10.48,4.47,14.96c4.85,6.65,6.96,14.1,7.68,22.33c1.82,20.78,7.32,40.49,17.5,58.92
		c6.48,11.73,9.75,24.73,12.46,37.82c1.37,6.6,1.69,13.16-0.17,19.77c-2.04,7.27-5.08,13.64-12.47,17c-0.99,0.45-1.44,2.1-2.17,3.24
		c-0.28,5.62,3.05,10.05,5.28,14.78c21.93,46.35,44.61,92.37,65.84,139.04c26.57,58.41,45.81,119.27,57.54,182.47
		c6.22,33.5,9.06,67.3,10.95,101.23c0.48,8.61-0.13,17.31-0.62,25.95c-3.2,56.22-14.59,110.83-32.55,164.12
		c-4.25,12.62-8.54,25.23-12.71,37.88c-1.45,4.4-2.32,8.95-6.45,12.02c-3.53,2.63-3.43,7.05-4.19,10.89
		c-4.91,24.82-10.13,49.6-14.45,74.52c-7.74,44.61-15.03,89.3-22.27,133.99c-3.3,20.38-6.35,40.79-6.68,61.53
		c-0.25,15.96-1.43,31.91-2.1,47.87c-0.11,2.63,0.27,5.28,0.47,8.75c4.99,3.42,9.97,6.96,12.16,13.87
		c5.5,17.33,8.07,35.06,8.75,53.06c0.48,12.62,0.78,25.3-1.27,37.9c-1.63,10-0.25,19.66,2.55,29.49
		c3.46,12.13,5.27,24.73,7.87,37.11c0.95,4.54,1.59,9.24,3.26,13.51c10.14,25.98,25.39,48.26,48.24,64.82
		c22.82,16.53,47.39,29.3,74.52,37.59c44.22,13.5,89.33,21.17,135.42,23.57c5.32,0.28,10.67,0.43,15.95,1.08
		c3.73,0.46,8.87-0.18,9.73,4.82c0.74,4.28-2.93,7.43-6.13,9.65c-6.54,4.55-13.45,8.58-20.28,12.71c-2.82,1.71-5.99,2.96-6.56,6.87
		c6.82,2.92,14.07,3.9,21.39,4.43c35.46,2.57,70.55-0.22,105.27-7.77c8.53-1.86,16.58-4.8,23.13-11.01c1.37-1.3,3.52-1.76,5.25-2.57
		c5.73,4.7-1.81,8.22-0.83,12.42c7.22,0.61,7.21,0.59,21.49-7.2c6.41-3.5,12.89-6.89,20.16-10.77c4.33-6.9,5.79-15.33,6.46-24.01
		c2.24-28.77,0.52-57.28-6.54-85.3c-6.35-25.18-13.22-50.23-19.7-75.38c-1.32-5.12-3.72-10.95-2.42-15.56
		c2.64-9.39-2.13-15.19-6.88-21.69c-13.83-18.91-24.26-39.71-34.33-60.8c-16.53-34.6-27.63-70.6-31.19-108.86
		c-1.91-20.55-4.08-41.08-6.03-61.63c-1.77-18.64-1.09-37.33,0.11-55.92c4.25-65.93,12.43-131.28,30.95-194.95
		c9.87-33.93,22.49-66.89,35.34-99.77c0.97-2.47,2.16-4.86,3.4-7.21c1.87-3.55,5.67-5.57,7.91-4.34c2.6,1.44,3.5,3.86,3.58,6.63
		c0.61,20.64,0.8,41.3,1.9,61.92c0.74,13.95,2.52,27.85,4.29,41.72c0.65,5.05,1.74,10.3,5.83,14.65c1.78-19.14,2.94-37.76,5.4-56.2
		c2.47-18.46,6.04-36.78,9.58-55.08c0.99-5.14,3.39-10.06,5.47-14.94c1.62-3.8,7.33-4.91,10.14-2.06c2.31,2.34,4.47,4.9,6.39,7.57
		c15.97,22.21,33.97,42.78,51.6,63.64c0.75,0.89,2.32,1.1,3.49,1.62c1.74-2.38,1.3-4.93,0.55-7.48
		c-3.19-10.86-6.51-21.68-9.56-32.59c-1.79-6.41-3.95-12.87-4.56-19.43c-1.52-16.49-2.58-21.66,17.49-13.71
		c20.62,8.17,39.01,20.26,55.81,34.62c27.47,23.48,51.9,49.79,72.39,79.64c2.07,3.02,3.17,7.17,7.87,7.52
		c1.52-4.14-0.74-7.83-1.16-11.72c-0.56-5.26-0.81-10.56-0.88-15.85c-0.01-0.91,1.37-2.31,2.38-2.63c1.02-0.33,3.27,0.11,3.46,0.7
		c2.37,7.46,8.1,11.36,14.41,15.18c7.39,4.48,14.52,9.49,21.3,14.85c55.83,44.21,103.58,95.7,142.16,155.79
		c41.53,64.67,68.7,135.17,87.11,209.33c10.12,40.77,17.19,82.13,21.16,123.99c1.89,19.89,4.01,39.75,5.83,59.65
		c0.67,7.29,1.11,14.64,1.09,21.96c-0.12,35.3,1.43,70.66-3,105.83c-2.16,17.17-4.58,34.32-6.78,51.49
		c-0.84,6.58-1.41,13.19-2.11,19.78c-0.28,1.06-3.64,1.66-0.49,3.24C3236.64,3210.41,3236.64,3209.2,3236.65,3208z"/>
	<path class="st0" d="M2725.36,2977.14c7.58,2.96,13.63,9.77,22.68,9.07c0.06-1.17,0.64-2.75,0.1-3.43
		c-3.76-4.67-7.72-9.17-11.67-13.68c-24.03-27.37-41.67-58.5-54.36-92.52c-4.65-12.47-9.1-25.02-13.63-37.53
		c-7.97-22.05-12.29-44.95-15.16-68.12c-2.37-19.16-4.67-38.35-6.2-57.59c-2.16-27.26-2.22-54.64,0.07-81.87
		c2.68-31.84,6.21-63.62,10.18-95.33c6.06-48.4,18.03-95.48,33.9-141.56c0.98-2.84,1.1-6.74,5.91-8.33
		c1.23,13.43,2.91,26.57,3.53,39.75c0.86,18.12,4.95,35.57,9.43,53.01c5.04,19.62,14.57,37.13,25.17,54.13
		c1.73,2.77,4.09,5.23,6.52,7.45c2.38,2.17,5.23,3.84,7.58,5.53c2.19-1.28,2.62-2.42,1.81-3.72
		c-11.29-18.04-14.98-38.25-16.37-58.99c-0.58-8.63-0.64-17.36,0.01-25.98c2.53-33.85,6.24-67.56,11.84-100.68
		c3.44-1.66,5.54-0.54,7.39,1.66c23.6,28.04,47.08,56.18,70.9,84.02c5.81,6.79,8.82,14.77,12.43,22.61
		c2.19,4.77,4.76,9.37,7.26,13.99c0.17,0.31,1.23,0.26,1.84,0.16c0.55-0.09,1.41-0.36,1.53-0.73c2.27-7.25,1.57-14.02-1.79-21.05
		c-16.43-34.33-27.8-70.51-38.3-106.98c-0.29-1.03,0.24-2.74,1.01-3.49c0.74-0.72,2.57-1.19,3.45-0.77
		c4.21,1.98,8.31,4.2,12.35,6.51c33.36,19.16,60.8,45.14,85.96,73.91c17.22,19.69,31.27,41.44,44.2,64.03
		c5.29,9.25,10.51,18.55,15.82,27.79c0.99,1.72,1.9,3.79,3.44,4.82c1.46,0.97,3.73,1.16,5.55,0.95c0.81-0.09,2.09-2.08,1.99-3.09
		c-0.39-3.92-0.83-7.93-1.99-11.68c-5.32-17.16-10.93-34.24-16.35-51.37c-0.78-2.47-1.9-5.06,0.28-8.09
		c1.51,0.41,3.56,0.43,4.86,1.42c8.46,6.47,17.15,12.71,25.05,19.83c60.96,54.92,111.21,118.48,150.14,190.63
		c26.97,50,46.83,103.03,61.12,158.04c11.9,45.82,20.39,92.31,25.13,139.45c1.93,19.21,4.65,38.38,5.82,57.63
		c1.34,21.93,1.9,43.94,1.78,65.91c-0.12,22.63-1.03,45.24-3.63,67.8c-3.75,32.51-9.54,64.49-19.12,95.85
		c-4.71,15.42-12.1,29.55-18.43,44.19c-1.86,4.3-4.27,8.38-3.3,13.27c0.24,1.22,1.11,3.17,1.85,3.25c1.75,0.19,4.34,0.1,5.3-1
		c6.71-7.69,9.69-17.38,13.08-26.72c4.81-13.23,11.47-25.48,18.34-37.66c1.02-1.8,2.9-2.48,5.44-1.63
		c2.2,19.31-0.82,38.35-5.18,57.19c-11.48,49.65-34.3,93.6-67.61,132.06c-10.46,12.08-21.22,23.94-32.44,35.3
		c-7.46,7.55-15.54,14.67-24.14,20.87c-18.9,13.63-38.12,26.85-57.6,39.65c-9.99,6.56-20.5,12.49-31.29,17.62
		c-49.35,23.48-99.69,44.42-152.99,57.44c-5.14,1.26-10.2,2.98-15.18,4.8c-3.33,1.22-5.37,4.93-4.98,7.84
		c0.39,2.96,2.28,5.12,4.76,5.83c7,2.03,14.1,3.8,21.27,5.11c5.17,0.95,10.51,0.99,15.72,1.43c0.01,2.94-1.92,3.23-3.6,3.68
		c-29.59,7.96-59.6,14.07-89.68,19.79c-40.57,7.72-81.46,13.42-122.41,18.64c-14.53,1.85-29.13,3.15-43.73,4.41
		c-47.83,4.12-95.79,6.52-143.73,4.38c-48.57-2.16-96.95-7.32-144.27-19.41c-31.78-8.12-61.88-20.6-90.45-36.63
		c-13.99-7.84-26.83-17.38-37.73-29.28c-1.78-1.94-3.17-4.23-5.24-7.04c1.21-8.37,5.66-15.88,9.26-23.58
		c11.57-24.72,23.67-49.2,35.2-73.94c8.16-17.5,15.94-35.17,23.54-52.92c11.6-27.1,17.75-55.71,23.2-84.55
		c4.22-22.37,5.23-45.01,6.21-67.56c0.66-15.18-1.85-30.52-3.26-45.75c-0.3-3.23-1.71-6.45-3.09-9.44
		c-1.37-2.96-3.36-5.63-5.07-8.43c-4.3-0.53-8.15-1.01-11.91-1.47c-0.53-1.37-1.4-2.56-1.35-3.72c0.11-2.64,0.9-5.26,1.01-7.9
		c1.47-33.93,5.23-67.74,4.99-101.75c-0.1-14.66-0.12-29.3-2.25-43.86c-0.25-1.73,0.48-3.59,0.74-5.33
		c2.63-0.01,4.05,1.14,5.23,2.94c24.1,36.76,58.73,59.21,99.78,72.41c38.23,12.29,77.52,19.1,117.73,20.23
		c9.98,0.28,19.97,0.62,29.94,1.19c3.74,0.22,7.91,0.03,10.44,4.49c-5.15,5.45-12.36,7.38-18.73,10.78
		c-5.83,3.12-11.99,5.88-15.86,11.78c-1.84,2.81-1.61,6.51,0.79,9.05c3.31,3.49,7.31,5.58,11.9,6.9
		c15.45,4.46,31.27,6.53,47.28,7.12c26.16,0.95,51.96-2.13,76.99-9.58c7.35-2.19,12.74-0.41,18.98,3
		c10.79-5.05,21.53-10.29,32.46-15.11c7.91-3.49,15.95-6.73,24.14-9.47c6.15-2.06,10.21-5.75,12.96-11.51
		c4.05-8.47,7.11-17.16,8.66-26.47c4.67-28.02,3.31-55.84-3.26-83.3c-4.65-19.41-10.46-38.54-15.86-57.76
		c-1.26-4.49-3.07-8.84-1.62-13.63L2725.36,2977.14z"/>
	<path class="st0" d="M2197.95,1825.28c3.83,7.3,7.42,13.6,10.51,20.12c20.55,43.33,41.44,86.5,61.35,130.11
		c25.26,55.32,44.18,112.79,55.87,172.58c6.92,35.38,11.87,70.93,12.35,107.04c0.24,18-0.96,35.88-2.53,53.82
		c-5.12,58.3-22.83,113.41-41.56,168.3c-0.85,2.5-1.73,5.09-3.15,7.28c-3.44,5.3-7.77,8.47-14.89,7.68
		c-17.87-1.97-35.81-3.32-53.73-4.84c-37.17-3.14-74.35-6.13-111.67-6.63c-23.99-0.32-48.05,0.55-71.94-1.15
		c-26.7-1.9-53.22,0.87-79.83,0.49c-26.63-0.38-53.32,0.15-79.93,1.4c-26.6,1.24-53.14,3.74-79.69,5.94
		c-18.58,1.54-37.15,3.31-55.69,5.35c-27.14,2.99-54.28,6.07-81.35,9.59c-24.43,3.17-48.78,6.99-73.16,10.5
		c-1.98,0.29-3.97,0.51-5.96,0.7c-10.36,0.99-19.44,6.71-30.67,6.03c-10.34-0.62-20.95,3.17-31.43,5.08
		c-10.48,1.91-20.97,3.83-31.42,5.88c-10.45,2.05-20.88,4.24-31.32,6.39c-9.78,2.01-19.55,4.05-29.33,6.07
		c-10.43,2.16-20.88,4.23-31.29,6.47c-10.41,2.24-20.79,4.65-31.19,6.99c-10.39,2.35-20.77,4.73-31.17,7.06
		c-10.4,2.33-20.83,4.49-31.2,6.92c-77.1,18.14-154.01,37.08-230.35,58.24c-21.15,5.86-42.02,12.76-63.04,19.12
		c-1.21,0.37-2.58,0.19-3.87,0.26c-3.05-0.69-3.96-3.22-4.89-5.71c-6.78-18.16-11.39-36.94-14.72-55.97
		c-5.63-32.2-9.54-64.65-7.93-97.41c2.06-41.89,4.25-83.73,9.27-125.46c11.48-95.49,31.68-189.14,58.03-281.47
		c15-52.55,33.81-103.85,57.33-153.3c2.29-4.81,4.76-9.54,7.24-14.24c1.22-2.31,5.19-3.08,6.83-1.38c2.77,2.87,5.53,5.76,8.12,8.78
		c22.74,26.45,51.32,44.03,83.9,55.69c20.15,7.21,41.09,11.19,61.99,15.24c30.83,5.96,62.01,8.52,93.39,8.5
		c23.99-0.02,48.01,0.27,71.96-0.74c21.28-0.89,42.54-2.91,63.71-5.26c27.79-3.09,55.58-6.47,83.22-10.67
		c33.57-5.1,67.1-10.6,100.45-16.95c91.59-17.43,182.35-38.64,272.33-62.99c65.56-17.74,130.25-38.44,194.35-60.92
		C2166.34,1838.53,2180.98,1832.06,2197.95,1825.28z"/>
	<path class="st0" d="M1418.63,818c7.99-4.14,15.27-7.29,23.24-8.48c0.49-0.07,1.1,0.68,1.97,1.26c-0.73,6.56-4.64,11.89-7.74,17.51
		c-23.3,42.26-39.81,87.12-51.78,133.77c-5.49,21.37-8.09,43.2-10.02,65.09c-1.17,13.25-1.13,26.61-1.76,39.92
		c-1.44,30.22,2.03,60.04,9.76,89.09c11.08,41.67,31.84,77.42,68.49,102.25c15.67,10.62,33.17,17.05,51.36,21.37
		c6.99,1.66,14.55,1.1,21.86,1.2c7.31,0.1,14.63-0.23,21.94-0.39c1.97-0.04,4.05,0.21,5.9-0.3c26.9-7.54,53.65-15.55,78.58-28.48
		c38.29-19.85,71.41-46.08,99.82-78.68c24.71-28.36,44.62-59.76,62.08-92.8c19.05-36.04,33.15-74.09,43.75-113.44
		c1.21-4.49,2.18-9.06,3.69-13.45c8.31-24.11,12.46-49,14.15-74.35c0.79-11.88,0.8-23.85,4.02-35.25
		c10.54-2.12,14.53-1.86,33.58,2.09c2.7,0.56,4.97,1.79,6.85,5.3c-4.4,10.97-8.65,22.79-13.82,34.2
		c-17.98,39.65-29.27,81.36-39.21,123.56c-8.57,36.38-14.44,73.21-18.41,110.28c-4.19,39.06-6.27,78.29-5.21,117.67
		c0.63,23.32,1.92,46.56,3.54,69.81c3.89,55.63,16.39,109.28,37.67,160.74c14.07,34.02,32.1,65.69,57.25,93.15
		c20.13,21.98,43.68,38.89,70.16,52.06c5.36,2.67,10.81,5.17,16.24,7.7c24.85,11.59,26.36,12.09,53.29,15.08
		c4.59,0.51,9.35,0.5,13.92-0.11c19.27-2.57,37.64-8.39,55.29-16.43c1.53-0.7,2.42-2.8,3.68-4.33c-7.47-3.81-14.37,2.68-22.21,0.45
		c-0.8-12.02-1.86-23.87-5.41-35.43c-4.22-13.72-11.15-25.48-21.23-35.64c-10.81-10.9-22.01-21.31-34.02-30.88
		c-11.99-9.55-23.9-19.2-35.71-28.96c-5.07-4.18-10.74-7.88-11.52-15.58c-0.22-2.16-2.82-4.27-4.68-6.04
		c-9.67-9.2-18.72-18.96-26.4-29.9c-2.39-3.41-3.21-7.17-0.8-11.17c4.64-7.7,5.15-16.44,5.56-25.07c0.5-10.64,0.59-21.3,0.68-31.95
		c0.03-3.68,1.16-6.37,4.67-7.92c3.46-1.53,6.58-0.71,9.31,1.44c9.43,7.43,18.09,15.66,26.18,25.13
		c1.02,15.85,4.27,31.46,8.64,46.85c3.11,10.93,7.03,21.57,12.67,31.43c11.92,20.84,24.89,40.88,41.19,58.79
		c19.72,21.67,38.9,43.87,57.49,66.51c10.11,12.32,18.64,25.95,27.63,39.16c2.2,3.23,4.47,7.03,4.86,10.76
		c2.05,19.82,8.74,38.8,9.13,59.01c0.28,14.66,5.39,28.71,12.09,41.96c4.21,8.32,8.15,16.77,12.09,25.22
		c4.26,9.12,6.49,18.84,8.47,28.67c2.33,11.54-0.75,14.92-9.19,19.06c-21.57,10.57-43.73,19.54-66.44,27.31
		c-65.5,22.4-131.43,43.42-198.37,61.08c-70.16,18.51-140.76,35.27-211.85,49.92c-50.23,10.35-100.68,19.43-151.4,26.89
		c-27,3.97-54.17,6.86-81.33,9.63c-25.16,2.57-50.37,4.97-75.63,6.22c-19.92,0.99-39.95,1.3-59.91-0.51
		c-9.28-0.84-18.61-1.12-27.92-1.62c-37.43-2.03-73.87-9.46-109.79-19.87c-24.71-7.16-46.46-19.92-66.66-35.39
		c-6.81-5.21-12.92-11.57-18.44-18.17c-6.85-8.19-13.53-16.36-21.97-23.08c-5.18-4.13-9.28-9.47-12.34-15.53
		c-2.74-5.42-2.26-10.51,1.51-14.88c3.9-4.52,8.31-8.63,12.76-12.63c15.08-13.59,13.36-17.38,1.22-30.95
		c-3.1-3.47-5.98-7.15-8.76-10.89c-4.51-6.06-4.29-12.45-0.37-18.63c3.21-5.05,6.73-9.91,10.28-14.74
		c11.64-15.83,18.83-33.62,23.38-52.59c1.41-5.89,2.39-11.99-0.69-17.54c-3.12-5.61-3.18-11.52-2.86-17.48
		c1.29-24.6,1.23-49.25,3.75-73.81c2.38-23.18,3-46.53,5.15-69.73c3.26-35.14,6.77-70.27,10.94-105.31
		c3.78-31.73,8.11-63.42,13.09-94.99c4.35-27.62,9.94-55.03,14.98-82.54c1.68-9.17,3.94-18.29,4.84-27.54
		c1.64-16.86,6.82-32.58,14.06-47.65c15.6-32.45,32.77-64.01,52.92-93.94c19.36-28.76,39.36-57.02,60.62-84.4
		c12.26-15.79,24.57-31.57,36.03-47.94c24.52-35.04,46.24-71.64,58.9-112.91c1.37-4.46,2.91-8.87,3.99-13.4
		C1417.04,828.39,1417.62,823.79,1418.63,818z M1402.67,1428.29c-2.72,29.57-1.12,136.07,3.1,164.36c0.17,1.12,1.38,2.09,2.13,3.15
		c3.63,2.2,7.66,1.56,11.57,1.35c31.87-1.72,63.73-3.42,95.59-5.3c38.49-2.27,76.97-4.7,115.45-7.06c1.33-0.08,2.72,0.04,3.96-0.35
		c1.1-0.34,2.52-1.04,2.91-1.96c0.89-2.1-0.3-3.74-2.12-4.9c-2.8-1.79-5.6-3.59-8.43-5.33c-33.38-20.62-66.76-41.25-100.16-61.85
		c-40.76-25.14-81.52-50.29-118.69-80.72C1407.07,1428.96,1405.54,1429.02,1402.67,1428.29z M1423.31,1413.52
		c0.44,4.58,4.38,6.3,7.38,8.65c19.9,15.57,40.67,29.93,62.08,43.32c39.98,25.01,80.11,49.78,120.18,74.64
		c8.46,5.25,16.95,10.47,25.43,15.7c1.7,1.05,3.45,2.01,5.12,3.08c2.29,1.47,4.92,2.81,7.09,0.7c1.15-1.12,1.4-3.67,1.28-5.53
		c-2.01-31.8-4.31-63.58-6.16-95.39c-0.66-11.26,0.06-22.6-0.46-33.88c-0.66-14.14,0.46-20.37-17.8-16.99
		c-2.58,0.48-5.3,0.18-7.96,0.21c-43.85,0.48-87.69,0.91-131.54,1.46c-19.26,0.24-38.51,0.71-57.77,1.12
		C1427.58,1410.66,1424.86,1410.72,1423.31,1413.52z M1685.07,1578.93c4.14,3.01,8.94,2.04,13.43,1.74
		c29.2-1.91,58.39-4.03,87.56-6.23c1.05-0.08,1.99-1.61,3.32-2.76c-0.81-5.32-4.63-9.19-7.65-13.42
		c-32.49-45.57-65.03-91.11-97.56-136.66c-1.94-2.71-3.89-5.41-5.95-8.03c-0.79-1.01-1.74-2.11-2.87-2.6
		c-1.06-0.47-2.46-0.31-3.69-0.17c-0.37,0.04-0.85,0.91-0.92,1.45c-1.59,11.37,1.01,22.53,1.85,33.77c3.04,40.51,6.33,81,9.62,121.5
		C1682.55,1571.41,1682.2,1575.58,1685.07,1578.93z M1267.28,1604.45c1.21,0.36,2.5,1.11,3.74,1.05
		c33.19-1.68,66.37-3.45,99.55-5.22c0.66-0.04,1.3-0.28,1.95-0.4c4-0.73,5.88-3.46,5.84-8.95c-0.3-47.88-0.62-95.77-0.97-143.65
		c-0.01-1.98-0.3-3.96-0.62-5.92c-0.07-0.47-0.76-1.18-1.16-1.18c-1.21,0-2.89-0.14-3.53,0.56c-2.22,2.43-4.24,5.09-6.05,7.84
		c-24.13,36.66-48.22,73.34-72.31,110.02c-8.03,12.23-16.05,24.46-24.07,36.69C1267.84,1598.06,1265.85,1600.8,1267.28,1604.45z"/>
	<path class="st0" d="M1521.11,1235.73c-9.17-4.8-14.39-12.67-21.13-18.74c-6.92-6.24-13.53-12.83-20.46-19.06
		c-6.93-6.23-14.01-12.29-21.18-18.24c-7.17-5.95-14.51-11.71-21.84-17.48c-7.33-5.76-14.72-11.44-22.1-17.14
		c-7.38-5.69-14.77-11.36-22.58-17.36c-3.68-11.86-5.83-24.28-6.17-36.91c-1.1-40.68-0.06-81.29,8.41-121.25
		c7.32-34.57,18.24-68.11,32.06-100.67c0.5-1.17,1.57-2.09,2.33-3.08c2.71-1.42,5.01-0.3,7.52,0.73
		c20.92,8.57,41.86,17.06,62.87,25.39c1.56,0.62,3.67-0.16,7.38-0.43c-12.38-8.6-25.07-12.45-36.99-17.74
		c-12.1-5.37-24.53-9.98-36.56-14.82c0-1.77-0.44-3.28,0.07-4.35c7.38-15.61,14.84-31.18,22.45-46.68c0.43-0.88,2.24-1.56,3.37-1.5
		c1.06,0.06,2.41,1.01,2.98,1.97c0.64,1.06,0.39,2.61,0.8,3.87c1.26,3.93,4.63,5.41,7.05,3.07c1.89-1.83,3.73-3.75,5.26-5.88
		c1.54-2.13,2.66-4.56,4.37-7.56c24.85-8.6,51.24-12.19,77.61-15.09c37.15-4.08,74.49-3.98,111.64,0.03
		c26.35,2.84,52.62,6.82,78.56,15.23c0.71,8.55-1.19,16.73,2.33,24.17c1.44,3.05,3.19,5.71,7.13,5.56c3.1-5.25-1.49-12.1,4.24-17.63
		c18.54,5.89,37.54,11.9,56.52,17.98c2.51,0.8,5.61,1.29,7.26,3.03c4.7,4.97,10.6,4.79,16.55,5.24c2.51,0.19,4.96,1.09,7.03,1.57
		c5.38,20.45-12.14,110.34-22.51,141.68c-19.22,58.08-56.2,126.88-81.5,152.46c-15.48,2.14-31.42,3.9-46.69,8.73
		c-14.56,4.6-28.95,9.79-43.31,15.01c-15.04,5.47-29.27,12.76-43.17,20.62c-13.32,7.53-26.55,15.24-39.63,23.18
		c-13.63,8.27-25.63,18.71-37.21,31.15c-2.27-13.34,5.26-35.23,22.37-69.84c10.98-22.21,24.58-42.59,41.37-60.9
		c-1.48-0.94-2.84-2.31-3.34-2.05c-7.88,4.09-13.31,10.96-18.75,17.61c-6.73,8.24-12.78,17.03-19.29,25.45
		c-0.58,0.76-2.51,1.05-3.55,0.72c-0.96-0.31-1.95-1.62-2.25-2.69c-0.55-1.89-0.59-3.93-0.85-5.91c-1.15-8.56-2.23-17.13-3.55-25.67
		c-0.15-0.99-1.6-1.79-3.26-3.53c-1.16,15.17-1.5,29.49,1.85,43.63c1.76,7.44,1.31,14.06-2.2,21.15
		c-7.99,16.15-13.39,33.3-17.28,50.92C1524.27,1227.52,1522.65,1231.17,1521.11,1235.73z M1710.58,906.41
		c10.68-2.78,15.9-7.75,21.87-10.72c5.94-2.96,11.67-6.34,17.57-9.37c6.5-3.34,13.24-6.22,19.59-9.79
		c6.18-3.47,13.86-4.38,18.5-10.54c-2.34-2.74-4.93-1.4-7.2-0.5C1742.74,880.5,1726.54,889.59,1710.58,906.41z"/>
	<path class="st0" d="M1275.99,593.81c-2.61,0.27-5.64-0.31-6.78,2.82c-1.36,3.72-3.04,7.52-3.33,11.39
		c-0.8,10.59-1.05,21.24-1.3,31.86c-0.19,7.97-0.04,15.95-0.04,23.87c-2.78,2.21-4.91,1.05-6.53-1.24c-15.29-21.49-25-45-28.6-71.42
		c-7.45-54.59-0.91-107.53,15.89-159.61c7.99-24.75,16.28-49.42,28.89-72.23c28.86-52.19,63.05-100.4,108.32-139.87
		c10.01-8.73,20.85-16.61,31.9-24c8.02-5.36,14.39-11.87,18.31-20.43c1.7-3.71,3.49-7.14,6.23-10.03
		c11.48-12.1,23.67-23.11,38.04-32.07c32.37-20.17,67.71-30.6,105.11-35.52c38.03-5,75.95-3.24,113.32,4.18
		c38.83,7.71,75.42,21.83,107.5,45.9c2.05,1.54,3.94,3.3,5.91,4.96c-0.98,6.54-6.41,8.79-9.81,12.6c-4,4.47-8.31,8.68-12.05,13.35
		c-3.25,4.06-7.64,7.44-8.88,12.98c5.64,7.89,13.61,12.74,22.28,16.26c41.44,16.83,72.75,46.37,100.05,80.52
		c38.18,47.78,66.05,101.51,88.23,158.26c8.26,21.13,12.46,43.5,17.29,65.61c8.3,38.01,10.94,76.53,7.5,115.22
		c-3.88,43.64-15.85,85.01-38.48,122.91c-2.72,4.56-5.16,9.37-9.64,12.58c-0.39,0.28-1.24-0.09-2.88-0.27
		c-2.56-10.05-0.17-20.48-0.45-30.8c-0.29-10.51,2.39-21.1-0.26-31.6c-1.77,0.19-3.59-0.11-3.99,0.5c-2.9,4.44-5.38,9.16-8.28,13.6
		c-1.01,1.55-2.84,2.57-4.23,3.77c-2.17-1.82-1.23-3.64-0.85-5.44c1.66-7.81,4.43-15.59,4.7-23.45c0.6-17.32,3-34.34,5.55-51.43
		c4.15-27.78-0.85-54.48-12.8-79.64c-3.69-7.76-4.89-14.75-2.82-22.9c3.83-15.04,3.42-30.37,2.32-45.71
		c-0.28-3.88-2.02-7.85,0.22-11.71c3.93-4.28,9.89-3.52,14.62-5.88c7.45-3.72,11.05-10.31,8.89-17.99
		c-1.43-5.1-3.29-10.15-5.62-14.9c-4.84-9.88-12.24-12.9-23.21-9.59c-3.75,1.13-7.21,3.19-10.73,4.79c-3.92-0.6-5.16-3.96-6.96-6.58
		c-19.93-29.1-46.44-49.14-80.57-58.82c-3.81-1.08-7.48-2.71-11.18-4.16c-0.38-0.15-0.54-0.84-0.82-1.3
		c4.08-2.14,8.42-3.89,12.17-6.5c6.93-4.81,8.49-11.78,5.06-19.31c-1.96-4.29-4.04-8.62-7.96-11.32
		c-9.82-6.76-19.64-13.26-30.91-17.92c-13.76-5.7-27.98-7.87-42.37-9.7c-26.49-3.36-52.4-9.25-78.2-15.99
		c-25.37-6.63-49.33-16.09-70.76-31.43c-1.88-1.35-5.42-0.8-5.25,0.61c0.14,1.22,0.23,2.56,0.8,3.59c0.96,1.73,2.05,3.5,3.49,4.82
		c3.92,3.6,7.9,7.15,12.11,10.39c14.5,11.17,31.25,17.59,48.64,22.5c5.1,1.44,10.46,2.05,14.74,5.68
		c-14.43,7.62-25.74,9.8-39.02,8.77c-17.27-1.34-34.59-2.18-51.53-6.11c-17.49-4.06-35.12-7.75-52.32-12.86
		c-19.88-5.91-38.23-15.55-55.47-27.08c-10.05-6.72-18.17-15.56-25.46-25.18c-1.47-1.95-1.89-5.19-5.33-5.11
		c-3.37,3.96-1.35,7.89,0.69,11.03c6.55,10.08,13.98,19.51,23.91,26.6c2.66,1.9,5.27,3.73,6.67,8.33
		c-14.79-1.31-27.26,3.15-39.15,9.38c-3.45,1.81-6.82,4.36-9.3,7.34c-9.04,10.86-7.72,20.96,3.56,31.02
		c0.97,0.87,2.05,1.64,2.94,2.57c0.38,0.4,0.42,1.12,0.7,1.94c-2.65,4.92-8,3.3-12.12,4.63c-4.44,1.43-9.02,2.42-13.42,3.94
		c-4.4,1.52-8.73,3.3-12.95,5.25c-4.23,1.95-8.37,4.12-12.4,6.46c-4.03,2.34-7.98,4.85-11.75,7.57c-3.78,2.72-7.42,5.65-10.9,8.75
		c-3.47,3.09-6.76,6.4-9.95,9.78c-3.2,3.39-6.24,6.93-9.23,10.5c-2.95,3.53-5.76,7.18-8.34,10.42c-7.24,0.46-11.97-3.74-17.42-5.91
		c-9.05-3.59-17.59,1.14-19.48,10.86c-0.51,2.61-0.33,5.36-0.96,7.93c-2.82,11.55,2.23,19.24,11.81,24.84
		c2.27,1.33,4.54,2.67,6.42,3.78c2.21,3.55,1.29,6.84,0.83,10.11c-1.11,7.9-2.21,15.8-3.39,24.19
		c-21.1,23.6-33.55,51.84-39.28,83.24c-1.32,7.21-2.66,14.41-3.65,21.67C1281.39,583.3,1279.41,588.82,1275.99,593.81z"/>
	<path class="st0" d="M1592.95,2717.79c3.27,0.29,3.98,2.79,4.83,5.35c6.13,18.31,11.95,36.74,18.56,54.88
		c26.76,73.41,59.9,143.81,99.97,210.94c28,46.91,55.88,93.89,83.38,141.09c35.7,61.26,61.9,126.77,85.1,193.56
		c1.75,5.03,3.25,10.15,4.61,15.3c0.68,2.55,1.91,5.77,0.97,7.8c-4.13,8.9-0.24,16.95,1.76,25.22
		c5.47,22.65,11.08,45.27,16.47,67.94c1.2,5.06,3.12,10.25,0.58,15.48c-5.74,0.64-7.84-4.72-11.88-6.74
		c-4.15-2.06-8.01-4.79-11.76-7.55c-15.05-11.07-29.07-23.23-41.81-37.03c-26.34-28.54-49.07-59.68-68.81-93.05
		c-22.41-37.88-42.97-76.7-59.32-117.64c-0.98-2.44-2.2-4.79-3.25-7.04c-3.65,0.17-5.44,2.35-4.98,5.07
		c1.11,6.52,2.42,13.07,4.47,19.35c6.22,19.01,13.87,37.51,23.1,55.24c9.83,18.9,20.42,37.4,30.62,56.12
		c1.85,3.41,5.04,6.4,3.94,10.89l0.43-0.39c-1.27,0.03-2.84,0.56-3.76,0c-2.24-1.36-4.46-2.97-6.19-4.91
		c-23.94-26.95-45.62-55.4-61.85-87.89c-20.85-41.71-40.52-83.89-55.26-128.18c-15.14-45.49-27.03-91.88-36.78-138.8
		c-7.72-37.13-13.89-74.54-19-112.12c-0.9-6.65-1.43-13.26-0.36-19.88c5.23-32.31,6.28-64.86,5.85-97.52
		c-0.12-8.63,0.55-17.28,0.86-25.92L1592.95,2717.79z"/>
	<path class="st0" d="M1962.45,1263.85c2.58,0.66,4.88,0.59,6.16,1.69c14.59,12.61,29.16,25.24,43.45,38.19
		c11.42,10.35,23.91,19.06,37.33,26.59c26.41,14.79,55.02,23.46,84.19,30.53c32.48,7.86,65.62,11.27,98.93,12.39
		c24.62,0.82,49.3,0.54,73.94,0.02c27.31-0.58,54.4-4.04,81.52-7.28c36.42-4.36,72.34-11.25,108.02-19.5
		c50.62-11.7,100.2-26.96,149.2-44.16c13.19-4.63,26.19-9.99,39.65-13.57c18.06-4.81,35.02-11.81,51.04-22.04
		c3.28,4.71,0.86,9.33,1.51,13.59c0.69,4.57,0.79,9.36,0.23,13.94c-0.64,5.23-2.01,10.42-3.59,15.46
		c-2.56,8.12-7.86,13.62-16.27,16.15c-17.19,5.16-34.3,10.56-51.68,15.94c-8.03,6.93-13.6,15.97-18.72,25.36
		c-6.41,11.78-14.27,22.43-24,31.73c-11.5,10.99-24.96,17.17-40.89,18.71c-17.38,1.68-34.59-0.27-51.82-1.55
		c-15.26-1.13-30.48-2.96-45.69-4.75c-34.7-4.09-67.55,2.36-98.95,17.09c-7.22,3.39-14.17,7.37-21.32,10.94
		c-7.14,3.57-14.41,6.88-21.54,10.46c-19.23,9.65-38.61,8.35-58.02,0.76c-6.19-2.42-12.12-5.5-18.26-8.06
		c-8.6-3.58-17.29-6.93-25.92-10.44c-13.83-5.63-28.22-7.68-43.04-6.42c-27.32,2.32-54.58-0.06-81.83-1.15
		c-15.29-0.61-30.27-4.35-44.48-10.53c-7.92-3.45-16.25-6.23-21.24-14.07c-16.68-10.13-28.38-25.83-42.9-38.38
		c-4.03-3.48-7.94-7.11-12.12-10.4c-2.05-1.61-4.6-2.57-6.4-3.55c-7.84,1.38-15.02,2.52-22.14,3.95c-3.4,0.68-6.42,0.35-9.68-0.9
		c-6.93-2.65-8.82-4.99-7.55-11.76c1.22-6.53,2.67-13.04,4.4-19.46C1958.81,1301.36,1962.42,1283.17,1962.45,1263.85z"/>
	<path class="st0" d="M1860.86,1427.68c-1.26-3.04-2.65-5.98-3.71-9.04c-10.23-29.72-15.55-60.48-19.44-91.56
		c-3.63-29.09-4.2-58.34-5.6-87.57c-0.83-17.34,0.41-34.48,0.67-51.72c0.03-1.89,0.33-4.35,2.58-4.5c1.7-0.11,3.94,0.8,5.18,2.03
		c3.75,3.75,7.51,7.6,10.6,11.88c18.17,25.17,30.7,52.76,35.83,83.6c1.55,9.3,1.7,18.51,1.03,27.82c-0.24,3.31-0.83,6.6-1.02,9.91
		c-0.34,5.78,1.68,10.9,6.86,13.45c12.97,6.38,24.64,15.91,39.94,16.93c1.8,0.12,3.66,1.34,5.25,2.42c3.83,2.6,7.26,5.9,11.33,8.01
		c4.06,2.11,8.68,3.11,12.74,4.48c0.99,1.39,2.21,2.37,2.41,3.53c2.33,13.26,0.27,26.49-0.63,39.71c-0.43,6.4-5.08,10.7-9.1,15.07
		c-1.21,1.31-3.57,2.15-5.42,2.18c-9.92,0.13-19.61,2.39-29.74,1.56c-15.2-1.25-30.55-0.87-45.83-0.75
		C1870.38,1425.14,1865.96,1426.69,1860.86,1427.68z"/>
	<path class="st0" d="M1392.29,1142.37c4.18,2.68,7.08,4.24,9.66,6.23c30.56,23.56,61.45,46.72,89,73.9
		c7.1,7,13.99,14.2,20.96,21.33c6.74,6.89,18.47,8.16,25.02,1.29c28.13-29.53,63.61-47.84,99.31-65.72
		c26.24-13.14,53.83-22.82,82.59-28.97c4.51-0.97,9.1-2.23,13.65-0.13c0.77,2.91-0.65,5.04-2.34,7.13
		c-37.19,46.21-83.59,79.49-139.44,99.54c-5,1.8-10.18,3.13-15.12,5.07c-19.63,7.74-40.23,9.01-60.86,8.21
		c-20.38-0.79-38.63-9.27-56.01-19.32c-15.8-9.14-28.58-21.57-38.38-37.08c-12.85-20.34-24.44-41.21-28.91-65.24
		C1391.19,1147.42,1391.73,1146.09,1392.29,1142.37z"/>
	<path class="st0" d="M1936.87,1438.12c6.95-5.03,15.09-3.1,22.29-4.22c6.06,6.56,11.24,12.6,16.89,18.16
		c7.13,7,14.22,13.79,17.87,23.56c2.11,5.66,6.97,9.64,11.57,13.54c10.67,9.03,21.21,18.22,32,27.1
		c13.91,11.43,26.99,23.75,39.32,36.85c15.37,16.33,21.84,36.14,21.59,58.32c-0.01,1.25-0.76,2.48-1.21,3.85
		c-3.24,3.91-8.01,4.09-12.55,4.5c-13.8,1.25-24.11,0.09-41.45-4.31c-4.78-3.94-6.62-9.82-9.19-15.14
		c-16.24-33.7-35.63-65.42-58.42-95.1c-8.51-11.09-16.66-22.45-24.74-33.86c-3.64-5.15-9.34-9.74-5.81-17.57
		c0.54-1.19-1.27-3.57-2.22-5.28C1940.97,1445.12,1937.13,1442.91,1936.87,1438.12z"/>
	<path class="st0" d="M1757.46,788.11c12.35,0,22.88-0.03,33.41,0.01c17.6,0.06,34.1-4.19,49.9-11.93
		c10.94-5.36,20.9-11.96,27.99-21.85c5.75-8.02,13.41-12.41,21.91-15.82c1.26,1.33,2.63,2.08,2.75,3
		c2.65,19.75,5.55,39.5,4.55,59.53c-0.3,5.97-0.52,11.96-1.21,17.89c-1.1,9.5-3.64,11.58-12.65,11.46
		c-7.95-0.11-15.91-0.18-23.86-0.02c-3.26,0.07-6.61,0.42-9.73,1.31c-3.35,0.96-6.46,1.17-9.68-0.15
		c-25.29-10.38-51.92-16.21-78.27-23c-4.05-1.04-5.68-3-5.99-6.85c-0.05-0.66-0.11-1.33-0.06-1.99
		C1756.78,796.42,1757.05,793.14,1757.46,788.11z"/>
	<path class="st0" d="M1856.51,1019.72c3.2-8.71,6.4-17.42,9.59-26.13c2.98-8.13,6.71-15.87,11.61-23.05
		c2.24-3.28,4.44-6.65,6.15-10.22c10.13-21.18,24.82-39.21,39.86-56.89c6.4-7.52,14.44-13.65,21.74-20.4
		c3.41-3.15,7.15-6.02,10.17-9.51c2.97-3.42,5.22-7.47,7.8-11.27c4.78,2.42,10.45,3.25,13.08,9.46c-3.43,3.66-6.96,7.58-10.65,11.33
		c-13.96,14.2-28.33,28-41.87,42.58c-23.13,24.91-43.31,52-58.27,82.72c-1.73,3.55-3.77,6.97-5.98,10.23
		c-0.47,0.69-2.31,0.46-3.52,0.66L1856.51,1019.72z"/>
	<path class="st0" d="M1390.08,834.85c4.78-4.13,8.1-7.46,12.85-8.57c0.78,0.93,2.37,2.03,2.2,2.73
		c-4.85,20.75-11.41,40.88-22.39,59.31c-0.48,0.81-1.86,1.1-3.49,2C1382.12,871.49,1389.27,854.06,1390.08,834.85z"/>
	<path class="st0" d="M1592.29,2676.06c1.11,3.57,2.06,6.45,2.87,9.38c0.09,0.33-0.61,1.27-0.86,1.24c-0.99-0.12-2.6-0.29-2.81-0.86
		C1590.45,2682.91,1589.73,2679.87,1592.29,2676.06z"/>
	<path class="st0" d="M1856.23,1019.24c0,1.49-0.01,2.99-0.01,4.48c-0.19-0.31-0.57-0.66-0.52-0.93c0.19-1.04,0.53-2.05,0.81-3.07
		L1856.23,1019.24z"/>
	<path class="st0" d="M1593.46,2717.35c-0.66-0.99-1.32-1.97-1.97-2.96c3.4-0.12,1.32,2.12,1.46,3.41L1593.46,2717.35z"/>
	<path class="st0" d="M2725.77,2976.75c-0.58-0.21-1.17-0.41-1.75-0.62c0.68-1.35,1.13-1.01,1.34,1.01L2725.77,2976.75z"/>
	<path class="st0" d="M1769.52,3332.97c1.47-0.51,3.18,0.86,2.65,1.33c-2.44,2.18-2.76,0.57-2.22-1.72
		C1769.95,3332.58,1769.52,3332.97,1769.52,3332.97z"/>
</g>
</svg>
