<?xml version="1.0" encoding="utf-8"?>
<!-- Generator: Adobe Illustrator 24.0.2, SVG Export Plug-In . SVG Version: 6.00 Build 0)  -->
<svg version="1.1" id="Layer_1" xmlns="http://www.w3.org/2000/svg" xmlns:xlink="http://www.w3.org/1999/xlink" x="0px" y="0px"
	 viewBox="0 0 501.63 753.13" style="enable-background:new 0 0 501.63 753.13;" xml:space="preserve">
<style type="text/css">
	.st0{fill:#1A1A1A;}
</style>
<g>
	<path d="M151.27,753.13c-3.42-3.16-3.21-6.7-3.72-9.77c-2.77-16.4-2.15-32.35,7.54-46.79c0.36-0.54,0.72-1.1,1.14-1.6
		c3.14-3.73,2.97-3.61,0.3-7.61c-3.01-4.51-3.31-9.89-2.22-14.82c2.19-9.92,3.51-19.93,4.85-29.98c0.83-6.19,2.1-12.32,1.91-18.6
		c-0.04-1.26,0.48-2.72-1.59-4.12c-1.31,3.76-3.07,7.21-5.54,10.18c-4.25,5.11-9.2,8.89-16.36,8.6c-6.5-0.27-8.97-4.35-6.77-10.48
		c4.27-11.93,8.19-23.99,12.23-36c0.09-0.27-0.12-0.63-0.25-1.27c-2.44,1.71-3.15,4.48-4.58,6.64
		c-7.07,10.65-16.28,19.2-25.83,27.51c-4.76,4.14-10.06,7.25-15.51,10.29c-9.01,5.02-18.72,5.8-28.68,5.22
		c-1.69-0.1-3.33-0.92-5.86-1.66c7.55-3.26,10.9-9.77,15.48-14.91c8.91-10.01,15.69-21.67,22.48-33.18
		c8.62-14.62,16.63-29.57,23.05-45.36c2.82-6.93,6.04-13.77,8.57-20.79c2.47-6.85,4.39-13.93,7.25-20.66
		c2.1-4.96,3.56-10.14,5.42-15.17c0.56-1.51,0.17-2.1-0.85-2.88c-1.31,0.72-2.06,1.81-2.78,3.19c-6.2,11.88-12.47,23.73-18.84,35.52
		c-11.02,20.4-22.27,40.71-36.64,58.98c-12.89,16.39-28.55,29.68-47.12,39.53c-4.91,2.6-9.95,4.88-14.92,7.32
		c-6.67,3.27-13.95,3.47-21.23,3.07c-0.93-0.05-1.35-0.84-2.15-1.69c1.58-2.91,4.09-5.19,6.63-7.11c7.87-5.94,13.55-13.86,20-21.1
		c11.14-12.51,20.23-26.51,29.33-40.48c4.54-6.96,8.63-14.23,12.58-21.55c5.36-9.93,10.21-20.13,15.61-30.04
		c7.73-14.19,15.89-28.15,23.64-42.33c7.2-13.17,14.84-26.09,22.48-39c2.25-3.81,2.24-7.72,1.56-11.48
		c-0.51-2.81-0.85-5.57-0.69-8.33c0.58-9.81-0.38-19.6-1.25-29.28c-1.55-17.26-2.79-34.61-6.7-51.59c-0.29-1.26-0.04-2.65-0.04-3.95
		c-3.68-2.06-7.18-4.02-8.3-8.45c-0.46-1.8-2.01-2.77-3.77-3.48c-7.44-2.99-14.59-6.55-21.45-10.74c-2.21-1.35-3.81-3.02-5.34-5.48
		c-3.23,3-7.21,4.98-10.26,9.19c2.21-11.11,4.66-21.43,9.08-31.3c-1.35-0.56-1.69,0.95-2.95,0.93c1.4-4.64,4.18-8.35,6.75-12.22
		c2.49-3.74,5.71-6.96,7.97-11.38c-4.6,0.83-8.31,4.28-13.16,2.64c0.26-1.02,0.27-1.92,1.66-2.8c16-10.14,31.47-21.13,46.5-32.6
		c9.75-7.44,20.36-13.85,29.08-22.64c2.55-2.57,4.92-5.19,6.67-8.5c2.58-4.86,6.69-8.41,11.78-10.96c-1.58-0.1-3.17-0.2-5.14-0.32
		c2.83-4.45,7.56-4.59,11.54-5.72c5.91-1.67,11.93-1.24,17.87,0.67c3.92,1.26,6.93-1.58,10.03-3.2c2.74-1.43,5.14-3.27,8.39-3.79
		c1.92-0.31,3.74-1.29,4.16-4.15c0.37-2.5,0.73-5.12,1.63-7.62c0.71-1.96,0.29-4.21-0.83-6.21c-1.35-2.4-2.74-4.8-3.47-8.09
		c-22.46,5.8-32.08-7.61-38.5-25.96c5.3,0.21,10.13-2.04,15.5-2.2c-7.18-2.44-13.79-5.8-17.08-12.87
		c-3.08-6.63-5.73-13.56-3.79-21.47c3.97,0.9,7.89,2.55,11.81,4.47c3.78,1.86,7.37,4.65,12.84,3.99
		c-13.53-8.95-16.47-22.02-16.61-36.64c14.28,2.86,28.57,5.7,43.61,4.83c-2.84-4.21-6.18-7.92-7.31-12.9
		c-1.76-7.72-1.25-15.34,0.51-22.96c1.17-5.06,1.85-10.28,5.26-14.57c0.53-0.66,0.32-1.91,0.49-3.13c3.54,1.95,5.69,5.11,7.55,8.27
		c4.87,8.24,10.44,15.68,17.93,21.88c5.57,4.61,10.21,10.83,16.62,13.88c7.6,3.61,14.41,8.28,21.42,12.68
		c5.13,3.22,9.82,7.08,14.23,11.33c4.84,4.66,10.06,8.82,13.7,14.69c4.51,7.28,7.61,14.86,7.23,23.51c-0.13,2.93,0.84,4.94,2.97,6.9
		c5.73,5.28,10.35,11.27,12.38,19.1c1.77,6.8,1.44,18.17-1.29,22.77c-3.69,0.22-6.94-2.05-10.69-2.25c1.71,8.29,0.41,9.59-7.81,9.96
		c-11.14,0.5-21.95-1.13-32.65-3.99c-0.62-0.17-1.32-0.02-2.24-0.02c-1.83,4.7-1.34,8.28,2.78,12.13c5.19,4.85,11.03,6.74,17.7,6.75
		c5.17,0.01,10.04,1.12,14.95,2.52c3.66,1.04,6.51,2.98,8.69,6.02c-1.16,1.35-1.98-0.9-3.53-0.02c1.05,1.14,2.02,2.28,3.09,3.31
		c1.95,1.9,3.6,4.38,3.52,6.83c-0.13,4.37,2.23,5.88,5.59,7.6c12.95,6.65,25.24,14.47,36.58,23.57c3.69,2.97,6.53,7.28,9.07,11.51
		c0.35,0.58,0.75,1.09,1.58,1.29c2.48-8.91,7.56-16.43,13.04-23.71c1.11-1.47,2.44-2.94,2.26-4.78c-0.85-8.52,3.49-15.06,7.9-21.64
		c2-2.98,3.59-6.24,6.09-8.87c1.04-1.09,1.06-2.06,0.69-3.55c-1.22-4.86-2.94-9.8,0.14-14.52c-7.08-8.34-13.77-16.59-19.51-25.6
		c-1.2-1.89-1.23-3.07-0.28-4.87c2.39-4.52,5.84-8.27,8.86-12.32c1.57-2.11,3.96-3.5,5.31-5.89c0.62-1.1,2.25-2.12,3.26-1.7
		c4.31,1.76,7.14-1.24,10.08-3.07c7.48-4.66,16.02-6.2,24.17-8.9c1.07-0.35,2.56-0.6,3.3,0.4c1.71,2.31,4.17,2.21,6.58,2.73
		c7.55,1.65,14.47,4.95,21.24,8.61c1.69,0.91,3.56,2.08,3.88,3.62c0.9,4.31,4.19,6.59,6.85,9.46c4.28,4.62,7.43,9.89,9.61,15.82
		c0.69,1.89,0.78,3.55-0.49,4.91c-2.14,2.29-1.93,4.71-1.07,7.35c0.25,0.77,0.38,1.6,0.45,2.42c0.65,8.68-1.4,11.81-11.66,15.22
		c-3.78,1.26-5.75,3.12-7.5,6.56c-3.69,7.27-8.89,13.52-15.17,18.75c-2.45,2.04-3.5,4.17-3.79,7.51
		c-0.93,10.48-2.99,20.68-10.62,28.83c-3.27,3.49-2.66,8.29-3.17,12.58c-1.14,9.72-0.65,19.54-1.23,29.28
		c-0.57,9.53-0.94,19.11-1.94,28.6c-1.27,12.07-2.38,24.17-4.02,36.19c-1.37,10.02-2.56,20.08-4.68,30.01
		c-1.33,6.23-1.2,12.75-2.27,19.05c-1.13,6.62-1.78,13.3-2.64,19.93c-0.99,7.63-2.06,15.25-3.29,22.84
		c-2.92,18.08-6.7,35.92-15.56,52.22c-4.35,8.01-9.74,15.17-17.38,20.45c-6.35,4.39-13.55,6.2-20.98,7.45
		c-0.16,0.03-0.36,0.07-0.49,0c-4.8-2.52-7.87,0.83-11.22,3.28c-2.38,1.73-4.62,3.81-7.26,4.99c-4.09,1.83-5.86,5.14-5.91,9.04
		c-0.06,4.66-1.61,9.11-1.22,13.8c0.5,6.11-0.54,12.12-1.51,18.15c-0.51,3.17,1.1,6.32,1.73,9.45c1.24,6.13,0.88,12.23,0.77,18.32
		c-0.24,12.92,1.34,25.59,5.21,37.87c2.01,6.37,5.07,12.42,8.53,18.16c3.61,5.98,6.16,12.07,6.49,19.24
		c0.21,4.42,2.57,8.67,4.22,12.79c1.2,3.02,5.83,3.46,9.11,3.78c14.86,1.43,18.97,11.68,21.34,21.98c1.1,4.8,3.63,9.68,1.52,15.25
		c-6.76-2.2-13.96-2.62-20.88-4.59c-2.04,4.22-0.97,9.15-2.44,13.65c-1.02,3.12-2.98,4.02-5.44,1.81
		c-6.83-6.12-15.7-6.53-24.42-9.51c-0.35,7.67,0.53,15.07-4.09,21.2c-1.57-0.34-2.99-0.61-3.59-1.78
		c-4.21-8.14-11.61-12.62-19.05-17.21c-4.16-2.56-8.04-5.65-11.71-8.88c-1.2-1.06-2.35-2.65-2.97-4.42
		c-2.15-6.11-5.24-12.02-2.92-18.85c0.55-1.61-0.2-2.73-1.82-3.56c-9.51-4.9-11.24-14.27-12.94-23.44
		c-1.37-7.39-1.45-14.98-2.91-22.4c-0.66-3.36-0.79-6.89-0.98-10.29c-0.57-10.23-3.61-19.9-5.63-29.81
		c-0.92-4.51-3.01-8.5-5.14-13.1c-4.54,13.48-11.18,24.78-24.18,31.61c-1.44-2.09-2.56-3.31-1.64-5.94
		c1.28-3.69,0.93-7.86,1.15-11.73c0.39-6.92,1.25-13.82,1.43-20.78c0.28-10.53,1.52-21.04,2.21-31.57c0.12-1.76,0.41-2.96-1.31-3.37
		c-1.88-0.46-3.62-0.16-4.07,2.38c-0.54,3.04-1.45,6.02-1.94,9.07c-1.42,8.87-1.84,18.01-4.28,26.59
		c-3.21,11.3-5.85,23.19-14.91,31.84c-1.1,1.05-0.75,2.06-0.85,3.12c-1.33,14.07-0.99,28.19-1.01,42.3
		c-0.02,14.24,2.06,20.98,10.09,33.16c9.14,13.87,11.99,29.25,10.84,45.55c-0.11,1.57-0.89,3.1-1.38,4.71
		c-3.61,0.3-5.85-2.24-8.12-4.11c-3.3-2.72-6.22-5.89-9.63-8.53c-3.55-2.75-6.32-6.35-8.67-10.11c-1.7-2.72-3.62-3.6-6.73-2.86
		c-1.72,11.37-1.84,23.57-13.38,31.17c-9.05-8.25-12.37-19.57-19.09-29.22c-2.32,1.02-5.15,2.26-8.33,1.83
		c-1.36-0.19-2.19,0.84-2.82,1.75c-3.71,5.36-7.73,10.48-11.35,15.93C157.54,743.77,155.1,748.75,151.27,753.13z M411.88,290.39
		c-12.09,3.77-21.22-2.19-30.39-7.81c-0.83,2.47,1.55,2.52,1.86,3.98c-3.37,0.31-6.08-1.21-8.71-2.85c-4.49-2.8-8.02-6.88-12.3-9.84
		c-9.64-6.67-19.67-12.78-29.6-19.01c-6.28-3.94-11.39-9.33-17.5-14.02c-0.36,6.49-4,11.19-7.73,15.65
		c-1.88,2.25-2.59,4.33-2.5,7.12c0.2,5.94-0.74,11.65-2.81,17.33c-1.93,5.31-2.76,10.96,2.15,15.59c0.68,0.64,0.89,1.77,1.5,2.52
		c2.83,3.4,3.68,8.56,7.28,10.88c6.31,4.07,7.51,9.96,7.84,16.47c0.11,2.22,0.81,3.93,1.83,5.92c2.77,5.41,5.06,11.15,1.74,17.28
		c-0.63,1.16-0.35,2.07,0.05,3.25c6.03,17.89,11.33,36,16.59,54.12c3.24,11.16,5.4,22.49,6.85,33.99
		c0.76,6.05,1.59,12.08,2.47,18.78c5.04-5.09,10.17-9.26,14.02-14.39c7.61-10.17,14.65-20.82,19.45-32.69
		c3.72-9.2,7.07-18.5,9.19-28.27c1.87-8.62,3.06-17.34,4.69-25.98c1.51-8.01,3.82-15.83,5.29-23.85c1.79-9.75,3.37-19.55,6.31-29.1
		C410.88,300.91,412.21,296.08,411.88,290.39z M204.72,297.56c-4,0.74-7.34-0.21-9.83-2.77c-1.91-1.96-3.43-4.4-4.71-6.84
		c-6.57-12.48-10.46-25.83-12.37-40.24c-11.13,8.72-23.05,15.61-35.63,23.54c22.48,8.59,42.85,18.32,61.41,31.13
		C205.49,301.03,205.12,299.55,204.72,297.56z"/>
</g>
<g>
	<path class="st0" d="M168.39,501.37c-11.19-6.11-20.56-13.94-25.32-26.22c-3.82-9.86-5.25-20.13-6.08-30.62
		c-1.21-15.19-1.36-30.4-2.15-45.59c-0.53-10.29-1.28-20.64-2.52-30.94c-1.24-10.24-2.12-20.52-4.25-30.63
		c-0.91-4.29-1.95-8.55-3.03-13.24c6.2-1.35,12.01,0.26,17.69,1.95c1.45,0.43,2.78,2.08,3.42,4.02c0.98,2.99,2.88,5.53,5.5,7.35
		c1.76,1.23,3.04,2.78,2.1,4.84c-3.35,7.37-0.39,14.01,2.1,20.73c0.23,0.61,0.73,1.16,0.8,1.78c0.51,4.04,2.74,5.7,6.77,4.83
		c1.41,4.45,1.81,8.81,1.69,13.27c-0.13,5-0.04,10-0.03,15c0.04,13.88-1.57,27.63-2.99,41.4c-0.72,6.99,0.72,13.88,1.22,20.78
		c0.52,7.07,1.9,14.19,4.71,20.9c3.52,8.42,7.07,16.81,12.35,24.38c1.51-1.29-0.04-2.27-0.43-2.93
		c-7.62-13.05-11.23-27.5-13.59-42.12c-1.45-8.99-2.58-18.3-0.41-27.59c0.88-3.78,0.43-7.83,0.95-11.79
		c1.72-13.18,1.61-26.52,0.92-39.76c-0.2-3.91,0.15-8.21-1.55-12.11c-0.48-1.11-0.5-2.58,0.63-3.72c1.39-1.4,2.09-3.3,3.59-4.67
		c4.48-4.07,9.17-8.05,8.61-16.18c2.13,2.26,3.03,3.48,2.97,5.23c-0.18,4.85,2.11,8.99,4.56,12.76c4.34,6.67,7.34,13.7,8.43,21.57
		c1.43,10.37,4.84,20.27,7.51,30.32c4.65,17.51,11.14,34.42,19.61,50.47c7.06,13.38,16.15,25.11,29.07,33.52
		c7.59,4.94,16.01,7.42,24.83,8.17c10.09,0.85,20.29,0.3,30.26-1.1c10.7-1.5,20.72-5.74,30.17-11.01
		c8.94-4.99,17.27-10.86,23.99-18.74c6.07-7.11,12.02-14.31,14.52-23.59c0.71-2.64,2.94-4.7,2.7-7.94
		c-23.51,44.46-59.88,63.45-109.49,56.17c7.94-0.1,15.71-2.44,23.64-3.63c13.65-2.05,25.71-7.69,37.43-14.71
		c14.76-8.85,26.33-21.32,37.29-33.97c11.04-12.75,19.43-27.45,23.84-44.43c2.94-11.33,6.32-22.6,8.39-34.09
		c2.58-14.29,6.71-28.25,8.9-42.56c1.98-12.99,7.19-25.04,9.57-37.86c1.88-10.09,3.86-20.16,5.74-30.26
		c1.62-8.65,3.1-17.32,5.28-25.86c0.97-3.8,3.85-6.37,5.86-9.48c3.63-5.62,7.83-10.87,11.82-16.25c0.37-0.5,0.82-1.08,1.7-1.01
		c1.3,2.96-0.54,5.72-0.96,8.47c-0.35,2.28-0.8,4.55-0.66,6.82c0.54,8.97-0.91,17.86-1.25,26.79c-0.42,11.03-1.17,22.08-1.99,33.09
		c-0.72,9.63-1.43,19.31-2.57,28.94c-0.92,7.81-1.65,15.7-2.41,23.55c-1.01,10.39-2.48,20.77-4.42,31.06
		c-1.09,5.78-1.56,11.68-2.41,17.51c-1.06,7.29-1.63,14.63-2.7,21.93c-0.83,5.66-1.45,11.38-2.28,17.05
		c-3.15,21.51-6.66,42.94-17.58,62.23c-5.8,10.25-13.65,18.41-25.17,22.19c-3.04,1-6.32,1.29-9.92,1.58
		c21.75-23.18,26.04-52.23,28.53-81.88c-3,3.41-3.07,7.87-3.74,11.92c-2.38,14.53-5.92,28.65-11.62,42.28
		c-4.07,9.72-9.92,18.1-17.49,25.23c-6.2,5.84-13.59,10.18-20.87,14.56c-12.95,7.8-26.86,13.25-41.73,16.09
		c-10.47,2-21.02,3.21-31.65,4.2c-7.47,0.69-14.92,0.11-22.31,0.87c-11.6,1.2-22.82-0.43-33.67-4.16
		c-12.11-4.17-23.66-9.7-33.01-18.74c-8.62-8.34-14.33-18.68-18.72-29.71c-6.01-15.12-9.99-30.96-16.05-46.07
		c-1.53-3.83-3.03-7.67-5.2-11.25C152.57,454.51,158.22,478.56,168.39,501.37z M429.71,260.69c-6.07,42.68-13.34,85.04-22.37,127.1
		C419.75,346.25,427.24,303.85,429.71,260.69z"/>
	<path class="st0" d="M5.9,630.66c7.57-6.92,13.96-13.29,19.99-20.11c6.98-7.89,13.34-16.19,19.45-24.72
		c7.13-9.94,13.83-20.16,19.96-30.76c8.76-15.14,16.51-30.82,24.8-46.21c6.65-12.34,13.98-24.35,20.51-36.74
		c6.46-12.24,13.9-23.85,20.87-37.1c0.64,4.38,1.4,7.61,1.54,10.87c0.49,11.38,2.79,22.35,7.18,32.84c0.82,1.95,0.77,3.36-0.15,5.03
		c-3.79,6.86-6.43,14.35-11.33,20.58c-2.17,2.75-2.93,6.15-4.56,9.16c-9.89,18.21-19.24,36.72-31.01,53.85
		c-6.5,9.46-13.36,18.66-21.31,26.95c-9.15,9.53-19.98,16.87-31.31,23.57c-7.62,4.51-15.42,8.49-23.96,10.93
		C13.31,629.74,10.06,630.57,5.9,630.66z"/>
	<path class="st0" d="M297.14,339.62c8.31,0.38,15.55-2.07,21.52-7.85c3.37,3.69,3.25,8.34,4.22,12.52
		c0.37,1.58-1.26,3.22-2.52,4.59c-9.24,9.98-20.16,17.78-31.68,24.84c-5.14,3.15-10.08,6.57-15.83,8.71
		c-2.81,1.04-5.71,1.71-8.5,2.04c-5.8,0.68-11.65,1.85-17.57,0.2c-7.5-2.09-15.36-2.52-22.65-5.84c-7.42-3.38-13.3-8.68-19.88-13.18
		c2.45-6.19,3.48-12.25,4.12-19.32c2.46,4.15,4.12,7.91,6.19,11.41c2.24,3.78,4.11,7.79,5.51,12c1.21,3.62,2.71,4.1,5.08,1.25
		c9.12-10.97,12.81-25.07,4.22-38.48c-0.89-1.39-1.91-2.62-2.19-4.53c3.58-0.54,6.69,1.23,9.94,1.85
		c6.26,1.18,12.36,0.91,18.63,0.11c6.17-0.79,12.39-1.12,18.28-3.25c10.25-3.7,20.77-6.72,30.7-11.28c3.58-1.65,6.99-0.84,9.66,1.31
		c3.04,2.45,3.51,6.42,2.46,9.99c-0.67,2.26-2.87,3.83-5.14,5.06C306.85,334.36,302.56,337.97,297.14,339.62z"/>
	<path class="st0" d="M68.89,637.5c10.17-7.9,16.38-17.77,23.05-27.25c9.41-13.38,17.44-27.62,24.76-42.18
		c6.65-13.23,12.46-26.92,17.89-40.7c4.4-11.17,7.72-22.77,11.46-34.19c0.27-0.81,0.36-1.61,1.55-2.16
		c1.91,0.91,2.57,2.54,2.52,4.88c-0.13,5.66-0.53,11.38,0.08,16.98c0.77,7.02,0.6,14.1,2.34,21.12c1.4,5.64,1.66,11.58,3.43,17.25
		c1.12,3.61-1.81,6.63-3.17,9.59c-5.96,13.05-11.28,26.54-19.94,38.12c-5.93,7.93-12.9,14.99-20.71,21.25
		c-5.9,4.72-11.74,9.38-18.62,12.61C85.98,636.35,78.1,637.92,68.89,637.5z"/>
	<path class="st0" d="M180.5,292.97c-19.06,0.78-29.26,12.64-36.71,28.21c-6.87,1.69-13.86,0.42-20.81,0.37
		c-3.37-0.02-6.36-2.86-5.61-6.03c0.71-3.03-0.11-5.91,0.58-8.87c3.18-13.65,11.88-22.89,23.33-30.04c0.93-0.58,1.69-1,3.1-0.38
		c8.91,3.95,17.97,7.55,26.88,11.5C174.47,289.16,177.42,291.21,180.5,292.97z"/>
	<path class="st0" d="M419.91,182.18c6.75,10.47,15.08,18.18,27.05,21.25c-8.57,8.78-16.18,18.2-21.79,29.38
		c-5.44-3.35-10.99-4.88-14.79-10c-4-5.4-5.17-10.85-3.27-16.89C409.8,197.36,414.25,189.67,419.91,182.18z"/>
	<path class="st0" d="M157.5,556.97c2.1,6.18,2.24,12.43,3.42,18.49c0.31,1.61,0.63,3.24-1.53,4.64c-2.28,1.48-2.63,4.27-1.24,6.91
		c2.95,5.58,3.78,11.31,2.1,17.54c-0.72,2.65-0.35,5.61-0.36,8.42c-0.01,4.88-3.37,8.05-6.2,11.21c-4,4.47-7.66,9.6-14.06,11.18
		c-2.64,0.65-5.11,0.21-6.82-1.72c-1.36-1.54-1.07-3.61,0.11-5.5c4.97-7.96,7.19-17.03,10.04-25.8
		c4.76-14.66,9.49-29.35,13.38-44.28C156.46,557.67,157.03,557.4,157.5,556.97z"/>
	<path class="st0" d="M215.39,170.95c5.06-3.31,4.79-3.18,7.31,1.81c7.32,14.47,8.28,29.96,7.19,45.63
		c-0.48,6.92-3.44,13.46-6.07,19.96c-4.52,11.2-11.51,20.51-20.44,28.5c-2.5,2.24-2.4,2.34-5.82,3.38c-0.48-1.16-1.25-2.3-1.36-3.5
		c-0.23-2.54-0.42-4.65,2.56-6.66c4.46-3.01,7.52-7.79,11.18-11.81c7.13-7.84,10.21-17.33,11.82-27.35
		c0.81-5.03,0.2-10.28,0.3-15.42c0.17-8.72,0.09-17.38-2.86-25.8C218.17,176.72,216.39,174.18,215.39,170.95z"/>
	<path class="st0" d="M255.18,614.26c3.19-23.07,3.1-45.97,5.51-68.66c0.04-0.34,0.71-0.6,1.7-1.39
		c5.05,9.95,4.69,21.61,10.99,31.54c0.78-2.61,1.38-4.63,2.15-7.22c3.18,3.91,1.81,8.08,1.11,11.64
		c-2.13,10.91-7.1,20.55-14.54,28.88C260.23,611.16,258.05,612.87,255.18,614.26z"/>
	<path class="st0" d="M241.21,544.14c2.71,1.94,5.3,1.23,7.57,1.64c-1.27,8.21-3.05,16.04-3.59,23.95
		c-0.89,13-4.84,24.88-11.19,36.09c-0.62,1.1-1.57,2.03-2.76,2.98c1.21-6.06,0.59-12.19,1.29-18.27c0.59-5.12,1.93-10.4-1.14-15.34
		c-1.33-2.14,0.48-4.14,0.76-6.18C233.37,560.36,237.64,552.8,241.21,544.14z"/>
	<path class="st0" d="M188.34,236.91c3.07,7.48,5.7,13.89,8.34,20.32c-1.19,3.43-5.34,1.7-7.54,4.2c0.25,3.77-1.22,7.99,2.18,11.98
		c2.76-2.72,5.95,2.08,9.17-1.31c2.49,7.54,6.59,14.04,5.37,22.04c-3.95,1.3-6.87,0.33-9.67-2.75c-3.97-4.37-5.82-9.74-8.08-14.95
		c-3.91-9-5.1-18.76-7.79-28.09c-0.44-1.51,0.07-2.47,1.04-3.52C183.59,242.38,185.75,239.86,188.34,236.91z"/>
	<path class="st0" d="M449.77,228.05c-1.83-8.17,1.2-16.01,0.19-23.8c3.05-1.26,5.92,0.39,8.6-1.51
		C457.41,211.88,455.62,220.62,449.77,228.05z"/>
	<path class="st0" d="M303.14,175.89c1.79,7.77,3.8,14.43,4.75,21.23c0.97,6.91,2.68,13.8,2,21.5c-2.35-2.47-3.96-4.49-3.9-7.79
		c0.17-9.71-1.6-19.11-5.39-28.09C299.38,179.86,300.38,177.99,303.14,175.89z"/>
</g>
</svg>
