<?xml version="1.0" encoding="utf-8"?>
<!-- Generator: Adobe Illustrator 24.0.2, SVG Export Plug-In . SVG Version: 6.00 Build 0)  -->
<svg version="1.1" id="Layer_1" xmlns="http://www.w3.org/2000/svg" xmlns:xlink="http://www.w3.org/1999/xlink" x="0px" y="0px"
	 width="1103.28" height="2379.75" viewBox="0 0 1103.28 2379.75" style="enable-background:new 0 0 1103.28 2379.75;" xml:space="preserve">
<path d="M790.7,2327.29c-2.93-0.88-2.75,2.95-5.37,2.73c-0.43-0.5-1.55-1.19-1.57-1.9c-0.14-5.99-0.36-11.99,0.02-17.96
	c0.32-5.02,1.44-10.3,5.55-13.5c3.2-2.48,4.54-5.39,5.49-8.96c1.81-6.83,5.22-12.95,8.96-18.87c3.67-5.82,8.67-10.18,15.51-11.66
	c2.48-0.54,4.12-1.54,5.73-3.4c4.19-4.82,8.67-8.61,15.87-9.07c4.55-0.29,8.2-4.37,8.98-9.41c1.52-9.84,2.85-19.71,3.98-29.6
	c1.13-9.9,1.93-19.82,2.41-29.79c0.6-12.25,2.34-24.43,3.36-36.66c0.77-9.26,1.19-18.55,1.75-27.83c0.25-4.08-0.8-7.63-2.87-11.33
	c-4.93-8.81-8.17-18.31-6.78-28.64c0.57-4.26-1.71-6.96-3.97-9.78c-9.36-11.68-18.99-23.15-28.17-34.97
	c-21.86-28.14-45.99-54.29-69.78-80.75c-20.89-23.25-42.18-46.13-62.94-69.51c-10.1-11.38-22.78-20.31-35.35-29.08
	c-14.2-9.92-26.98-21.6-40.16-32.79c-8.76-7.44-13.4-17.14-16.72-27.83c-5.64-18.14-8.93-36.8-12.42-55.41
	c-0.92-4.88-1.36-9.88-1.59-14.84c-0.63-13.68-7.22-25.51-11.79-37.91c-6.93-18.82-11.33-38.23-14.74-57.88
	c-1.76-10.14-4.1-20.17-5.11-30.47c-1.25-12.63-1.31-25.19-0.1-37.8c0.35-3.63,0.64-7.31,0.49-10.94
	c-0.85-20.67,2.07-41.17,2.51-61.79c0.13-6.26-0.07-12.57,1.27-18.86c0.63-2.98-0.99-6.44-1.83-10.99
	c-3.4,6.82-6.16,12.58-9.11,18.24c-9.57,18.35-20.71,35.68-33.66,51.83c-16.86,21.01-33.94,41.84-51.02,62.67
	c-13.72,16.73-28.2,32.76-42.59,48.88c-6.43,7.2-14.41,12.87-22.9,17.54c-16.4,9.03-33.83,15.59-51.9,20.38
	c-11.84,3.14-23.51,6.72-34.78,11.18c-0.29,3.28,1.81,5.29,3.03,7.56c6.1,11.38,9.04,23.29,7.9,36.32
	c-0.43,4.87,1.16,9.89,1.08,14.83c-0.41,24.32-3.59,48.32-8.75,72.07c-2.4,11.04-5.36,21.98-4.55,33.47
	c0.21,3.03,0.95,5.57,2.48,8.35c15.04,27.45,28.73,55.55,38.96,85.2c1.62,4.69,4.05,7.95,8.43,10.39
	c13.43,7.49,25.57,16.72,36.47,27.66c8.33,8.36,14.96,17.84,20.64,28.05c7.62,13.69,8.73,27.69,1.38,41.94
	c-3.36,6.51-6.23,13.3-10.02,19.54c-3.63,5.96-5.01,12.19-4.98,18.99c0.05,16.33,0.02,32.66,0.01,48.99
	c0,15.85-5.74,29.34-17.61,39.75c-3.87,3.4-5.52,6.96-6.38,11.76c-2.17,12.09-5.47,24.01-7.15,36.16
	c-2.7,19.48-7.08,38.55-12.4,57.42c-5.97,21.18-14.89,41.28-23.25,61.57c-1.13,2.73-2.96,5.22-4.71,7.65
	c-1.98,2.76-3.25,5.65-3.9,9.04c-2.4,12.66-11.3,19.06-23.35,18.33c-4.38-0.26-8.5,0.58-12.78,1.38
	c-18.09,3.39-36.29,3.3-54.63,1.52c-10.78-1.05-21.42-3.67-32.59-1.76c-10.67,1.83-21.24-1.03-31.04-5.47
	c-4.17-1.89-8.18-2.38-12.54-2.2c-6.32,0.26-12.64,0.48-18.96,0.53c-2.64,0.02-5.32-0.3-7.93-0.74c-5.31-0.89-9.29-3.44-10.62-9.09
	c-0.29-1.25-0.92-2.42-1.29-3.36c-2.91-1.39-3.26,2.05-5.12,2.05c-1.77,0.26-2.8-1.13-2.95-2.17c-1.32-8.63-1.47-17.26,1.78-25.55
	c1.18-3,2.2-6.33,6.11-7.34c2.15-0.55,2.66-2.74,3.4-4.6c3.23-8.09,7.68-15.41,13.3-22.1c9.91-11.8,17.32-16.01,32.37-17.71
	c2.91-3.71,5.92-7.66,9.05-11.52c3.01-3.72,7.29-5.63,11.28-7.22c5.59-13.45,7.09-27.43,10.36-40.97
	c8.43-34.92,17.46-69.66,30.14-103.34c0.94-2.49,1.5-5.13,2.57-7.55c2.82-6.35,3.14-12.41,0.51-19.16
	c-3.82-9.82-2.92-20.33-0.96-30.37c0.98-5,0.23-8.97-1.52-13.34c-13.26-33.03-26.28-66.15-39.69-99.12
	c-10.67-26.21-18.91-53.29-28.89-79.74c-2.58-6.84-5.09-13.72-7.71-20.55c-5.02-13.08-8.89-26.52-11.42-40.26
	c-2.44-13.24-7.89-25.32-12.96-37.58c-4.58-11.06-9.57-21.96-13.9-33.12c-4.22-10.86-8.23-21.88-6.26-33.93
	c2.26-13.82,5.37-27.4,11.02-40.29c8.28-18.91,17.41-37.41,27.1-55.63c2.98-5.6,4.81-11.61,6.19-17.83
	c6.68-30.18,12.32-60.62,21.5-90.18c8.15-26.26,19.68-50.58,38.11-71.67c19.26-22.04,38.3-44.24,58.62-65.33
	c12.23-12.69,24.01-25.83,35.95-38.79c8.61-9.35,18.82-16.87,28.43-25.08c4.32-3.69,8.32-7.62,12.13-11.78
	c-2.38-18.67,2.9-35.48,11.28-51.69c9.82-19.01,21.33-36.88,35.37-53.02c5.01-5.77,10.29-11.39,16.02-16.43
	c8.02-7.07,17.76-10.19,29.08-9.84c3.18-6.48,6.66-12.86,9.52-19.51c8.05-18.72,18.73-35.99,29.05-53.46
	c3.22-5.44,6.6-10.79,9.79-16.25c1.99-3.41,4.46-6.8,1.74-11.06c-1.02-1.6-0.05-3.28,0.68-4.73c1.66-3.29,3.1-6.22,1.09-10.23
	c-2.2-4.39,2.68-6.94,4.65-10.86c-26.92-34.68-39.81-75.47-50.16-117.25c-3.21,0.1-2.8,2.62-3.39,4.34
	c-10.42,30.59-26.51,58.01-46.52,83.23c-12.61,15.89-25.19,31.81-37.95,47.59c-4.46,5.52-7.53,11.45-9.73,18.28
	c-3.76,11.7-6.61,23.73-10.82,35.21c-7.61,20.73-18.19,39.59-35.52,54.48c-25.77,22.15-52.39,43.13-80.12,62.71
	c-12.85,9.08-23.62,20.2-33.63,32.25c-3.07,3.69-4.08,7.25-3.77,11.77c0.41,5.97,0.49,11.97,0.58,17.96
	c0.06,4.03-0.48,7.91-2.88,11.42c-2.09,3.07-2.83,6.51-2.17,10.34c1.03,5.97,0.44,11.91-1.01,17.8c-0.8,3.22-1.54,6.48-1.89,9.77
	c-0.63,5.86-2.9,10.9-6.87,15.18c-4.86,5.23-7.86,11.26-9.61,18.26c-2.09,8.37-5.13,16.51-7.81,24.73
	c-1.86,5.72-3.79,11.4-9.29,14.9c-2.74,1.75-2.82,5.18-4.4,7.69c-3.6,5.73-7.8,10.51-15.2,11.38c-0.5-4.61,3.85-6.27,4.6-10.3
	c-8.9-5.2-13.97-13.67-15.75-23.6c-1.94-10.8,3.91-19.14,11.54-26.66c-1.69-4.36-6.06-7.3-5.56-12.69
	c-5.08,2.3-7.17,6.95-11.25,9.14c-4.2,2.26-9.05,1.81-13.9,3.05c-2.9,7.3-2.69,15.76-7.18,22.46c-4.24,6.33-9.05,12.28-13.47,18.2
	c0.25,3.23,2.08,5.34,3.73,7.26c6.14,7.15,7.08,16.31,9.98,24.71c0.21,0.6,0.26,1.35,0.1,1.96c-2.39,9.06-5.62,17.63-14.35,24.06
	c-4.7-6.98-13.42-6.75-18.43-12.33c-7.25,1.74-13.11,5.8-19.73,8.24c-1.14-1.31-2.54-2.18-2.75-3.28
	c-0.89-4.48-4.23-7.33-6.42-10.94c-4.07-6.69-9.39-11.42-16.02-15.28c-5.14-2.99-7.15-8.33-5.62-13.84
	c2.81-10.12,0.78-20.55,2.85-30.72c1.34-6.55-0.34-13.28-1.33-19.81c-1.29-8.47,1.39-15.72,5.37-22.79
	c0.49-0.87,1.01-1.73,1.61-2.52c8.23-10.81,16.03-21.99,24.92-32.23c3.76-4.33,6.64-8.83,8.98-13.86
	c7.03-15.12,18.37-26.87,30.35-37.98c9.26-8.59,18.88-16.81,28.72-24.72c4.19-3.37,4.4-8.1,5.38-12.29
	c1.41-6.01,2.97-11.3,8.55-14.83c3.62-2.29,4.09-6.72,5.4-10.39c4.94-13.77,9.45-27.7,14.49-41.44
	c6.89-18.78,15.07-36.93,26.39-53.58c9.05-13.31,19.87-24.98,31.86-35.57c7.02-6.21,15.17-10.78,24.32-13.2
	c10.88-2.88,19.73-9.33,28.64-15.77c3.3-2.38,4.17-5.86,4.9-9.46c2.57-12.7,5.16-25.4,7.63-38.11c3.69-18.96,8.68-37.5,15.32-55.69
	c10.75-29.43,26.67-55.71,46.2-80.01c10.44-13,21.79-25.16,33.79-36.69c3.73-3.58,5.6-6.9,3.67-12.21
	c-2.27-6.24-0.84-12.62,1.53-18.54c7.69-19.25,17.16-37.52,31.42-52.87c7.14-7.69,15.67-13.4,25.82-16.29
	c5.28-1.5,9.63-4.02,13.47-8c6.7-6.96,13.05-14.2,19.53-21.35c14.96-16.51,29.55-33.42,46.6-47.91c0.74-0.63,1.22-1.56,2.1-2.72
	c-12.19-11.34-15.33-26.63-17.85-42.09c-2.89-0.79-3.29,1.84-4.48,3.14c-8.35,9.15-18.22,16.54-27.77,24.31
	c-3.45,2.8-7.1,4.36-11.96,2.78c-3.7-1.2-8-0.46-11.84-1.39c-11.62-2.83-21.88-7.96-28.09-18.93c-1.07-0.17-2.07-0.54-3.01-0.43
	c-20.55,2.28-37.83-5.2-53.4-17.8c-3.1-2.51-6.08-5.17-9.07-7.81c-9.53-8.43-11.54-11.83-15.02-25.21
	c1.39-4.76,3.82-9.07,7.06-12.94c6.69-7.98,10.96-17.32,15.81-26.43c4.16-7.82,4.96-15.55,4.85-23.96
	c-0.22-16.96-0.55-33.93-2.25-50.79c-1.17-11.62-5.17-22.65-9.13-33.61c-3.05-8.44-5.84-16.99-9.13-25.33
	c-4-10.15-1.38-18.98,4.93-27.05c6.48-8.29,13.29-16.32,20.34-24.93c-8.78-3.79-16.89-8.31-23.95-14.39
	c-16.57-14.27-30.93-30.54-39.28-50.89c-6.29-15.33-11.25-31.38-13.22-47.95c-2.19-18.45-5.18-36.87-4.4-55.58
	c1.12-26.95,3.64-53.71,11.53-79.65c2.99-9.83,6.51-19.51,10.95-28.72c5.41-2.39,9.89-0.93,14.32,1.92
	c11.3,7.25,21.13,16.22,30.17,26.03c11.27,12.22,22.46,24.53,33.27,37.15c23.14,27.03,46.03,54.27,68.96,81.48
	c1.5,1.78,2.74,3.7,5.81,4.98c0.12-6.04,0.41-11.53,0.29-17.02c-0.6-28.53,3.74-56.35,12.14-83.53c8.8-28.44,20.56-55.5,38.51-79.56
	c3.01-4.03,6.19-7.87,10.08-11.03c5.14-4.17,8.11-4,13.06,0.74c2.15,2.06,4.05,4.42,5.83,6.82c4.38,5.91,7.89,12.35,10.87,19.05
	c11.49,25.82,22.94,51.63,30.7,78.94c4.54,15.98,10.06,31.69,15.39,47.44c7.17,21.18,12.13,42.79,14.27,65.08
	c0.57,5.93,1.82,11.81,1.95,18.71c33.87,22.4,55.14,54.53,65.54,93.83c10.33,39.03,9.68,77.64-7.67,114.97
	c1.18,1.66,1.97,3.18,3.12,4.32c12.08,11.93,15.57,27.45,18.2,43.33c2.6,15.72,5.11,31.46,7.79,47.17
	c1.69,9.89,5.12,19.31,8.84,28.56c3.7,9.2,6.69,18.63,10.04,28.87c8.89-3.61,16.78-0.63,24.23,3.03
	c10.72,5.27,21.78,10.04,31.06,17.87c17.92,15.1,38.54,26.07,58.42,38.2c8.84,5.39,17.25,11.4,22.61,20.63
	c1.29,2.23,3.36,2.84,5.58,3.73c6.78,2.72,13.49,5.67,20.09,8.82c11.77,5.61,20.68,14.4,27.36,25.5
	c12.34,20.52,19.26,43,23.74,66.33c1.11,5.78-0.94,11.12-3.21,16.16c7.7,10.4,14.68,20.97,22.81,30.57
	c17.77,20.99,31.28,44.68,44.32,68.63c6.82,12.54,12.61,25.64,17.48,39.15c5.54,15.34,11.54,30.54,13.74,46.8
	c1.8,13.33,6.3,25.46,12.44,37.43c8.34,16.26,14.58,33.48,19.39,51.2c4.54,16.78,6.75,33.89,7.69,51.13
	c0.49,8.94,1.88,17.81,1.6,26.85c-0.78,25.24-1.61,50.44-5.2,75.49c-1.97,13.8-3.16,27.71-4.7,41.57
	c-0.37,3.29-0.76,6.57-1.23,10.63c5.66,4.82,5.88,12.08,5.54,19.08c10.1,11.23,15.64,24.17,19.47,38.17
	c6.3,23.08,7.26,46.58,6.65,70.26c-0.16,6.04-1.24,11.97-4.63,17.13c-2.99,4.56-2.81,9.3-1.57,14.24
	c1.61,6.45,3.45,12.85,4.76,19.36c1.99,9.85,3.1,19.76-1.32,29.37c-0.14,0.3-0.38,0.62-0.37,0.92
	c0.65,16.41-12.22,26.49-18.61,39.59c-2.29,4.7-6.83,7.13-11.6,8.96c-3.07,1.18-6.14,2.12-8.98,4.09
	c-4.88,3.39-10.16,2.26-14.05-2.34c-1.28-1.52-2.28-3.28-3.43-4.91c-1.15-1.62-2.33-3.21-3.43-4.71c-0.89,0.12-1.85-0.02-2.08,0.32
	c-5.6,8.46-14.43,9.89-23.46,10.93c-7.05,0.81-8.55,0.04-11.32-6.65c-0.9-2.18-1.75-4.3-3.5-5.95c-2.29-0.5-3.8,1.15-5.31,2.24
	c-9.88,7.12-21.21,6.62-32.5,6.47c-3.45-0.05-5.4-2.37-7.08-4.88c-7.95-11.84-3.78-32.32,8.26-40.16c3.34-2.17,7-3.83,10.91-5.93
	c1.94-7.04-0.01-14.79,2.24-22.32c2.2-7.38,6.2-14,8.03-22.42c-3.42-5.84-6.3-12.84-9.58-20.8c-2.53,4.25-4.68,7.71-6.67,11.25
	c-6.27,11.13-16.11,16.34-28.52,17.34c-1.29,0.1-2.57,0.27-3.61,0.38c-1.49,2.57,0.21,4.77,0.2,6.62c-2.02,1.94-3.48,0.95-4.73-0.09
	c-7.22-6.04-9.14-13.31-6.55-22.29c1.84-6.35,5.5-11.42,10.26-15.65c5.59-4.96,8.08-10.56,8.01-18.3
	c-0.07-8.9,0.02-17.93,1.63-26.82c0.72-3.99,1.52-7.78,4.15-11.01c2.31-2.83,4.57-5.71,6.71-8.67c2.76-3.81,6.27-6.86,9.52-10.18
	c3.13-3.19,1.88-8.2,3.94-12.06c2.06-3.86,4.47-7.4,7.5-10.52c2.32-2.39,4.6-4.84,7.09-7.04c3.65-3.23,3.97-6.14,2.37-11.22
	c-7.07-22.52-20.67-41.52-31.83-61.82c-4.97-9.04-10.24-17.93-15.81-26.6c-8.38-13.06-11.68-27.37-11.63-42.67
	c0.04-14.33-0.62-28.69,0.15-42.98c1.2-22.31-4.71-42.72-14.39-62.41c-7.49-15.25-15.41-30.23-24.9-44.37
	c-11.97-17.82-21.57-36.71-24.55-58.35c-0.14-0.99-0.34-1.97-0.62-2.93c-0.74-2.49-1.53-4.97-2.3-7.44
	c-2.68,0.44-2.72,2.67-3.4,4.49c-12.68,33.76-28.25,66.04-48.74,95.85c-4.38,6.37-9.6,11.92-15.14,17.21
	c-2.61,2.49-3.61,5.02-2.89,8.85c3.48,18.59,6.77,37.23,9.8,55.9c3.31,20.38,5.33,40.85,1.93,61.47c-0.27,1.61-0.43,3.43,0.03,4.95
	c4.06,13.38,4.39,27.53,8.34,40.69c2.85,2.69,5.91,1.41,8.77,1.06c9.61-1.17,15.83,3.27,20.13,11.46c5.15,9.8,8.76,20,10.58,30.99
	c2.12,12.78,4.43,25.51,5.58,38.43c0.77,8.6,0.13,17.23,1.42,25.87c1.22,8.22-0.7,16.6-2.2,24.72c-2.26,12.21-8.42,17.2-21.05,18.68
	c-0.61,0.07-1.18,0.51-2.23,0.99c-0.03,4.22,2.11,8.03,3.59,11.92c5.79,15.27,10.34,30.91,14.29,46.72
	c1.6,6.42,2.75,13.04,3.24,19.63c1.09,14.54,4.15,28.97,2.63,43.68c-1.09,10.6-2.47,21.19-5.78,31.3
	c-6.1,18.63-11.24,37.58-18.88,55.73c-4.89,11.63-8.74,23.72-12.76,35.69c-5.31,15.82-4.71,32.25-3.43,48.47
	c0.58,7.28,0.22,14.6,1.27,21.87c0.53,3.62,0.93,7.21,2.36,11.28c7.91,3.87,16.19,8.04,24.4,12.3
	c16.25,8.42,28.21,21.17,37.84,36.11c21.59,33.48,34.02,70.52,40.91,109.55c0.81,4.57,1.25,9.2,1.92,13.79
	c0.78,5.4-2.06,9.6-4.71,14.25c5.24,8.29,11.11,16.22,17.39,24.01c11.7,14.5,25.51,27.19,36.24,42.51c1.88,2.69,4.52,4.84,7.09,7.54
	c11.5-2.68,21.98,0.36,32.08,6.26c11.26,6.58,20.28,15.07,25.41,27.22c5.38,12.73,6.21,26.07,1.9,38.99
	c-4.07,12.19-2.57,23.5,1.34,35.1c2.44,7.24,4.55,14.6,6.74,21.93c3.78,12.65,3.95,25.66,2.94,38.62
	c-0.88,11.28-5.65,21.24-13.52,29.36c-3.37,3.48-4.6,7.05-4.12,11.62c1.92,18.21,2.01,36.46,1.41,54.76
	c-0.46,13.95-0.22,27.91-1.33,41.86c-0.53,6.67-1.73,13.18-2.79,19.73c-1.11,6.84-2.37,13.55-2.22,20.63
	c0.23,11.19-8.27,17.39-19.3,15.03c-3.32-0.71-6.57-0.93-9.91-0.39c-13.43,2.19-26.81,4.71-40.38,5.97
	c-2.25,0.21-4.47,1.21-6.58,2.14c-2.18,0.96-4.35,1.63-6.74,1.5c-18.56-1.01-37.12,0.51-55.68,0.11c-4.13-0.09-8.18-0.54-11.51-2.61
	c-5.49-3.41-11.09-3.48-17.21-2.97c-7.62,0.63-15.35,0.42-22.92-0.81c-10.43-1.68-12.55-4.24-13.54-15
	C791.27,2328.85,790.89,2328,790.7,2327.29z"/>
</svg>
