<?xml version="1.0" encoding="utf-8"?>
<!-- Generator: Adobe Illustrator 24.1.1, SVG Export Plug-In . SVG Version: 6.00 Build 0)  -->
<svg version="1.1" id="Layer_1" xmlns="http://www.w3.org/2000/svg" xmlns:xlink="http://www.w3.org/1999/xlink" x="0px" y="0px"
	 viewBox="0 0 4402.47 2196.72" style="enable-background:new 0 0 4402.47 2196.72;" xml:space="preserve">
<style type="text/css">
	.st0{fill:#1A1A1A;}
</style>
<g>
	<path d="M3512.45,2149.93c-6.44-6.7-6.68-16.3-12.58-23.13c-5.49,1.06-10.75,2.97-16.37,3.63c-19.72,2.33-39.02-0.95-58.41-3.44
		c-2.3-0.3-4.58-0.85-6.88-1.18c-0.6-0.09-1.26,0.22-2.23,0.42c-1.64,5.06-1.2,10.45-0.68,15.62c0.58,5.72-0.05,11.31-0.35,16.93
		c-0.23,4.25-1.42,8.46-5.34,11.8c-7.88-3.19-11.86-10.47-16.87-16.34c-4.97-5.82-12.69-8.78-15.19-15.57
		c-52.9-2.41-101.92-14.77-147.04-41.84c-36.58,13.76-71.76,8.46-105.66-10.4c-6.07-3.38-10.24-8.37-12.78-14.78
		c-1.1-2.78-2.43-5.52-3.17-8.4c-2.45-9.64-7.53-17.72-14.44-24.67c-3.55-3.57-6.48-7.57-8.95-11.2c-1.83-1.57-2.84,0.19-5.37-0.25
		c-1.46-1.51-1.34-5.52-4.55-7.09c-0.91-0.45-1.63-2.19-1.67-3.37c-0.24-7.24-1.81-14.32-1.44-21.7c0.74-14.36,3.48-28.31,6.47-42.3
		c1.68-7.84,1.39-15.96,0.02-23.88c-10.39-60-31.13-116.11-63.34-167.91c-12.86-20.68-27.63-39.96-42.17-59.42
		c-6.97-9.34-13.88-18.71-20-28.66c-8.74-14.21-12.59-29.19-8.37-45.73c0.33-1.28,0.43-2.63,0.51-3.96
		c0.04-0.63-0.19-1.28-0.48-2.95c-15.53-3.99-30.98-9.54-45.25-21.46c2.21,7.26,7.08,10.74,9.9,17.05
		c-11.22-3.3-20-8.86-28.48-14.82c-8.5-5.97-15.55-13.47-21.64-21.92c-6.27-8.69-7.76-19.55-12.93-29.32
		c-1.93,4.15,0.67,8.67-2.97,11.67c-3.24-1.52-2.91-4.64-3.56-6.91c-3.97-13.94-10.28-26.73-18.8-38.36
		c-17.14-23.4-35.49-45.73-58.32-63.98c-10.17-8.13-21.49-14.54-32.25-21.79c-4.34-2.92-9.01-2.09-13.54-1.77
		c-15.22,1.08-30.42,2.51-45.63,3.81c-5.61,0.48-11.23,0.93-16.84,1.44c-0.98,0.09-2,0.3-2.88,0.7
		c-34.52,15.59-66.38,34.98-93.02,62.47c-13.5,13.93-26.17,28.37-36.6,44.72c-5.57,8.73-10.1,17.99-14.14,27.5
		c-3.97,9.35-5.52,19.11-5,29.27c0.18,3.45,1.06,6.36,2.93,9.31c6.41,10.12,15.15,17.59,25.42,23.48
		c10.39,5.96,21.36,10.88,31.32,17.59c2.21,1.49,4.44,2.94,6.71,4.34c7.84,4.83,12.14,11.04,12.73,20.99
		c0.62,10.37-0.83,20.46-1.13,30.67c-0.15,5.07-2.8,9.49-5.48,13.75c-11.04,17.52-23.91,33.6-38.02,48.72
		c-4.3,4.6-8.79,8.93-11.55,14.82c-1.21,2.58-3.83,4.54-5.92,6.67c-10.04,10.22-20.48,20.08-30.08,30.69
		c-13.01,14.37-23.34,30.71-32.75,47.62c-7.28,13.09-14.36,26.28-21.8,39.28c-9.8,17.12-13.58,35.95-16.27,55.14
		c-1.43,10.23-2.34,20.41-0.01,30.69c1.42,6.24,3.79,12.05,6.53,17.74c3.32,6.9,6.83,13.71,10.21,20.58
		c0.68,1.4,2.08,2.72,0.74,4.88c-4.88-1.28-7.66-5.83-12.51-8.35c0.61,4.15,0.99,7.9,1.74,11.58c1.76,8.61-0.8,16.34-4.5,23.89
		c-0.29,0.59-0.56,1.57-1,1.67c-6.98,1.63-5.64,8.42-7.96,12.76c-2.67,1.59-3.13-1.19-4.42-2.82c-2.34,3.2-4.13,5.96-6.23,8.47
		c-6.07,7.23-13.48,11.72-23.37,11.09c-3.65-0.24-7.33-0.07-10.99-0.1c-7.32-0.07-14.46,0.63-21.73,2.15
		c-21.45,4.49-43.07,8.19-64.67,11.96c-9.52,1.66-18.91,3.66-27.95,7.18c-13.94,5.42-28.53,9.03-42.21,15.18
		c-6.67,3-13.47,5.74-20.01,9c-16.98,8.44-35.01,12.49-53.84,13.13c-8.65,0.29-17.36,0.45-25.98-0.13
		c-5.22-0.35-9.81,0.7-14.52,2.51c-11.49,4.41-22.92,9-34.58,12.92c-28.14,9.47-54.44,5.15-78.9-11.39
		c-0.83-0.56-1.7-1.06-2.57-1.55c-0.28-0.16-0.62-0.21-1.67-0.54c-14.6,11.33-25.21,26.35-33.68,42.64
		c-4.29-0.45-4.47-3.69-5.1-5.97c-2.95-10.59-4.86-21.38-4.82-32.44c0.02-4.27,0-8.54,0-13.51c-15.78-1.65-29.77-6.38-42.99-14.82
		c-13.56,14.33-24.75,29.84-33.16,46.91c-3.83-0.03-4.37-2.76-5.04-4.71c-2.18-6.29-3.53-12.79-4.28-19.43
		c-0.66-5.92-1.47-11.82-2.28-18.18c-5.87,1.85-6.68,9.1-12.96,11.06c-2.34-9.26-1.64-18.18-0.16-26.85
		c2.81-16.45,7.11-32.51,16.45-46.73c1.28-1.95,1.89-4.19,2.73-6.35c7.1-18.5,16.53-35.55,31.12-49.39
		c8.1-7.69,17.15-13.75,27.7-17.3c3.59-1.21,6.51-2.97,9.33-5.41c8.3-7.19,16.88-14.02,26.47-19.5c8.19-4.67,16.89-7.82,26.15-9.4
		c7.76-1.32,15.23,0.76,22.56,2.81c6.71,1.88,13.37,4.16,19.75,6.96c4.04,1.77,7.41,1.65,11.43,0.14
		c13.78-5.18,26.6-12.13,39.12-19.79c49.51-30.3,96.16-64.51,140.17-102.32c12.61-10.83,24.57-22.43,36.86-33.63
		c6.39-5.83,12.73-11.68,18.76-17.92c12.59-13.03,22.76-27.72,31.42-43.52c5.31-9.68,8.84-20.03,10.9-30.9
		c1.33-7.01-1.01-12.31-6.8-16.38c-6.59-4.63-13.71-8.44-21.15-11.16c-12.27-4.48-22.38-11.58-30.53-21.65
		c-2.38,2.33,0.64,5.12-0.78,8.01c-11.43-4.9-17.01-14.33-22.48-24.58c0.33,6.26,0.66,12.53,1.09,20.56
		c-5.23-5.52-9.06-9.95-13.32-13.93c-4.24-3.96-6.96-9.61-13.12-12.75c-1.65,8.65-2.37,16.48-2.73,24.18
		c-3.08,1.4-4.64-0.87-6.46-2.01c-12.17-7.62-20.45-18.93-28.37-30.48c-6.2-9.03-11.96-18.37-18.32-28.19
		c-3.67,5.45-5.33,11.09-6.36,16.77c-3.82,21.27-6.34,42.71-6.67,64.35c-0.1,6.62,1.39,13.25,0.07,19.9
		c-3.25,1.23-4.94-1.2-6.88-2.8c-12.88-10.65-23.99-23.02-34.67-35.8c-1.26-1.51-2.08-3.43-5.19-4.05
		c-5.63,18.01-5.39,36.53-3.68,56.07c-8.63-2.95-14.58-7.8-20.03-12.91c-12.72-11.92-22.74-25.91-30.65-41.52
		c-14-27.63-22.09-57.04-25.98-87.55c-2.14-16.81-1.95-33.84,0.57-50.79c-3.23-0.83-4.49-3.3-5.28-6.27
		c-3.85-14.5-7.22-29.05-5.03-45.18c-5.79,3.61-8.65,9.51-14.06,12.27c-1.31-1.99-0.34-3.46,0.12-5.03
		c6.11-21.12,9.94-42.71,12.63-64.49c2.97-24.05,5.27-48.18,8.35-72.21c2.89-22.56,9.09-44.21,18.68-64.93
		c7.28-15.74,15.96-30.68,24.42-45.77c0.86-1.53,3.17-2.78,1.88-5.22c-3.71,1.86-5.13,6.75-10.89,7.78
		c3.68-14.56,8.88-27.68,15.05-40.48c6.04-12.53,12.36-24.85,22.34-34.62c-1.61-2.35-3.43-0.01-5.35-1.72
		c0.21-2.62,2.33-4.6,4.24-6.75c27.15-30.66,52.57-62.72,76.87-95.66c13.24-17.95,26.21-36.09,35.54-56.52
		c5.02-11,7.57-22.56,9.32-34.49c4.29-29.23,5.42-58.8,10-87.99c2.84-18.08,6.41-36.03,11.03-53.68
		c3.63-13.87,2.59-25.93-6.24-37.63c-6.02-7.97-9.32-17.62-12.93-26.93c-4.7-12.13-9.98-23.96-17.02-34.95
		c-1.2-1.87-1.93-4.03-3.03-6.4c6.55,1.3,7.91,1.98,13.69,7.46c3.63,3.44,7.2,6.95,10.6,10.61c3.58,3.85,6.92,7.91,10.48,12
		c0.61-0.91,1.27-1.46,1.18-1.81c-6.45-25.46-5.5-51.45-5.57-77.37c-0.01-4.21,0.73-8.57-1.56-13.1
		c-17.48,5.98-34.83,12.76-53.13,2.85c-0.61,4.14,3.76,5.55,3.55,9.75c-13.32,1.65-26.06-0.05-37.87-6.9
		c-3.72-2.16-6.96-5.12-10.52-7.57c-3.97-2.73-6.99-5.96-7.83-10.98c-0.55-3.27-2.64-5.06-6.16-5.49
		c-10.42-1.28-19.91-5.23-28.75-10.76c-2.46-1.54-4.77-1.89-7.55-1.25c-12.5,2.88-25.23,2.02-37.76,1.01
		c-39-3.13-73.88-18.56-107.49-37.38c-8.15-4.56-15.78-9.99-21.94-17.15c-4.01-4.66-7.17-9.69-4.75-16.63
		c7.29-2.63,14.93-4.87,22.14-8.09c33.17-14.79,65.89-30.47,94.42-53.43c11.72-9.44,21.89-20.35,30.04-33.15
		c4.2-6.6,6.78-13.69,8.46-21.19c0.96-4.26,0.91-8.55-0.01-12.88c-3.27-15.36-8.28-30.1-14.9-44.34
		c-2.76-5.94-6.3-10.56-12.69-13.29c-9.86-4.22-18.37-10.81-26.26-17.98c-12.83-11.63-25.49-23.5-35.12-38.08
		c-11.18-16.94-17.56-35.76-20.64-55.69c-0.53-3.43-2.25-7.01-0.92-10.65c3.17-0.95,4.22,1.68,5.79,3.12
		c16.34,14.99,34.11,27.66,55.46,34.61c7,2.28,14.09,3.8,22.24,2.9c2.34-11.62,6.22-22.84,10.7-33.85
		c2.14-5.27,3.84-10.65,4.37-16.3c0.3-3.21,0.05-6.48,0.84-9.83c6.91,11.08,9.55,23.51,12.7,36.67c3.89-5.25,4.92-9.72,2.63-15.36
		c-8.66-21.36-10.53-43.83-9.72-66.57c0.84-23.78,5.77-46.8,14.28-69c2.49-6.51,5.65-12.78,8.74-19.04c1.44-2.92,3.06-5.9,6.05-7.44
		c2.79,0.81,4.08,2.61,4.62,5.06c0.94,4.22,1.76,8.46,2.81,12.65c6.24,24.99,18.81,46.8,34.06,67.23c0.37,0.49,1.09,0.72,2.28,1.48
		c6.36-9.49,13.37-18.53,20.93-27.15c17.8-20.31,37.25-38.98,56.69-57.67c16.08-15.47,32.78-30.2,50.3-44
		c15.72-12.38,32.12-23.81,49.85-33.11c22.26-11.67,46.12-18.86,70.71-23.7c7.74-1.53,15.53-3.15,24.55-1.22
		c-5.6,10.19-15.63,14.79-24.44,23.46c7.61-1.69,13.34-3.41,19.19-4.13c6.19-0.76,12.51-0.83,18.22,1.02
		c1.59,2.82-0.22,4.26-1.04,5.99c-4.25,9.03-8.46,18.08-12.65,27.13c-0.41,0.89-1.21,2.26-0.88,2.74c4.13,5.93,0.76,11.81-0.7,17.22
		c-2.96,10.96-2.41,21.82-0.79,32.67c3.16,21.16,4.12,42.32,1.28,63.55c-1.19,8.93-3.79,17.5-7.79,25.42
		c4.98,5.82,4.27,11.6-3.34,29.45c1.81,1.42,3.87,0.7,5.71,0.38c34.74-5.98,69.09-13.72,103.18-22.7
		c33.11-8.72,66.1-17.96,99.5-25.54c17.61-4,35.43-5.86,53.45-4.95c35.05,1.76,67.4,11.38,95.24,33.64
		c1.81,1.45,3.53,3.01,5.17,4.64c0.32,0.32,0.11,1.19,0.18,2.5c-10.18-2.06-20.34-1.56-33.1-1.25c12.39,6.99,23.26,12.23,31.9,22.57
		c-8.57,1.22-15.52-3.46-23.03-2.25c1.27,3.49,4.6,4,7.04,5.33c11.76,6.43,20.5,15.78,27.26,27.16
		c8.66,14.59,17.39,29.15,25.85,43.86c3.5,6.08,7.42,11.84,11.48,17.53c1.11,1.57,2.97,2.83,2.31,5.78
		c-10.44,1.05-19.54-5.23-30.61-6.32c4.36,8.45,11.75,13.44,17.25,19.78c-0.8,3.08-3.22,2.37-4.94,2.22
		c-6.44-0.58-11.56,1.81-16.25,6.03c-6.66,6.01-13.77,11.53-20.34,17.64c-8.57,7.98-18.4,12.96-30.02,14.23
		c-21.87-14.06-42.71-29.4-63.01-45.53c-6.49-5.16-13.63-9.55-20.68-13.97c-4.49-2.82-9.33-5.16-14.97-3.87
		c-3.02,3.74-2.26,7.88-1.2,11.59c3.74,13.11,7.48,26.27,15.2,37.8c12.16,18.15,28.14,30.8,50.06,35.07
		c2.51,0.49,5.31,0.77,7.57,3.17c0.66,5.09-1.82,9.39-5,13.23c-2.1,2.54-4.64,4.79-7.27,6.8c-7.41,5.66-15.09,10.95-22.43,16.7
		c-13.54,10.61-28.89,16.11-45.95,17.38c-4.55,0.34-9.18,0.69-13.5,2.87c1.81,2.6,4.66,3.66,7.16,5.22
		c3.01,1.88,5.86,2.39,9.39,1.08c11.69-4.34,23.92-5.46,36.3-5.36c14.32,0.12,28.66-0.56,42.95,0.7
		c18.91,1.66,37.64,4.45,55.45,11.42c4.79,1.87,10.35,2.92,13.18,8.45c-1.2,4.17-4.83,5.04-8.2,6.4
		c-17.27,6.98-34.5,14.07-51.77,21.04c-4.73,1.91-9.13,3.99-10.56,9.68c8.43,2.82,17.08,2.81,25.57,3.21
		c1.36,2.95-1.18,3.68-2.57,4.69c-6.8,4.94-14.34,8.41-22.42,10.68c-3.19,0.9-6.41,1.72-10.45,2.79c5.94,4.15,12.79,5.06,17.82,9.37
		c4.72,4.06,9.67,7.86,15.49,12.56c-4.69,2.18-8.26,0.71-11.61,0.93c-3.98,0.26-8-0.07-11.99,0.1c-3.45,0.15-7.05-0.74-11.74,1.23
		c12.3,4.61,23.36,8.76,34.79,13.05c28.69-23.07,52.84-49.65,71.26-83.13c2.19,6.76,0.86,12.31,0.12,17.49
		c-0.71,4.99-0.89,9.91-0.98,14.89c-0.28,15.62-0.25,31.28-2.48,46.77c-1.37,9.5-3.38,18.9-5.11,28.37c2.71,2.15,5.8,1.13,8.66,1.25
		c12.23,0.52,23.53,4.12,34.13,10.06c2.56,1.44,5.39,2.74,6.61,6.59c-4.87,6.69-14.45,5.3-21.49,11.61
		c22.25-1.84,43.13-4.26,64.14-4.23c21.13,0.03,42.27-0.04,63.59,1c-15.67,9.87-30.06,20.88-44.87,31.29
		c-14.87,10.46-28.57,22.64-47.27,30.42c33.9,9.32,65.27,18.89,98.14,22.1c12.54,1.22,24.94,3.82,37.4,5.85
		c15.11,2.47,30.38,3.42,45.63,3.82c19.65,0.52,39.34,0.57,58.98,0c18.18-0.53,35.32-5.95,51.78-13.53c2.1-0.97,4.28-1.77,6.44-2.6
		c0.18-0.07,0.51,0.29,0.78,0.45c2.02,2.56-2.65,4.52-0.31,7.52c4.99-1.57,9.31-3.71,11.52-9.32c3.14-7.95,8.58-14.17,15.98-18.57
		c36.14-21.55,73.66-40.05,114.53-50.89c19.01-5.04,38.27-8.35,58.11-6.96c4.7,0.33,9.17,1.47,13.72,2.4
		c1.27,0.26,2.35,1.14,2.72,3.67c-33.01,22.54-59.87,52.48-87.96,81.83c1.73,3.36,2.6,6.85,1.49,10.47
		c-1.28,4.22-3.76,8.26,0.06,12.68c1.01,1.17-1.42,3.66-0.23,5.71c20.98,4.31,54.32,4.39,110.76,0.18
		c-1.54,6.44-7.81,7.65-11.5,11.3c-0.37,1.54,0.87,1.69,1.72,1.67c10.07-0.23,19.84,1.82,29.55,4.04
		c24.3,5.56,48.81,10.35,72.68,17.61c34.5,10.49,67.71,23.96,97.91,44.12c9.51,6.35,17.78,14.03,25.42,22.4
		c4.23,4.63,8.08,9.71,9.63,15.75c-0.61,2-2.06,2.08-3.27,1.84c-14.72-2.92-29.62-3.53-44.56-4.47c-22.21-1.4-44.42-2.59-66.63-3.98
		c-19.21-1.2-38.4-2.8-57.62-4.05c-17.61-1.14-35.2-1.65-52.82-1.78c-2.99-0.02-5.93-0.2-8.91-0.87c-3.77-0.84-7.68-0.84-12.13,0.23
		c3.12,5.36,6.72,7.77,12.44,9.32c17,4.6,33.81,10.02,50.41,15.92c40.4,14.34,77.97,34.08,112.32,59.89
		c29.89,22.45,52.28,50.96,69.29,83.97c1.51,2.93,3.1,5.86,3.25,9.21c-1.28,2.54-3.53,3.08-5.94,2.84c-2.3-0.22-4.64-0.61-6.83-1.31
		c-29.49-9.34-59.08-18.37-88.38-28.24c-25.54-8.6-51.02-17.34-76.92-24.78c-11.18-3.21-22.5-5.93-33.71-9.05
		c-6.71-1.86-13.09-4.9-20.05-5.91c-4.56-0.66-9.12-1.78-14.56-0.67c3.15,8.91,4.01,18.08,10.05,27.42
		c-7.47-1.49-11.7-6.15-17.12-7.76c-0.95,2.35,2.09,3.71,0.25,6.12c-5.43-0.11-8.67-7.07-16.47-5.83
		c11.18,9.03,21.43,17.15,30.17,26.86c8.91,9.91,17.25,20.28,24.11,31.76c7.03,11.76,12.4,24.24,16.88,37.19
		c4.37,12.63,7.63,25.52,9.56,38.68c1.92,13.07,4.61,26.16,3.28,39.26c-1.64,1.22-2.86,0.91-3.87-0.1
		c-11.46-11.41-25.29-19.48-39.15-27.42c-18.47-10.59-37.34-20.51-55.21-32.13c-8.07-5.25-16-10.74-23.91-16.07
		c-3.31,2.69,1.25,5.77-1.22,8.92c-9.01-3.47-18.12-7.29-27.9-8.9c-9.51-1.57-18.96-3.48-28.05-7.7c-1.94,2.69,1.94,5.82-0.75,8.21
		c-0.52-0.04-1.26,0.13-1.66-0.16c-9.85-7.1-20.97-11.6-32.42-15.16c-19.67-6.13-39.1-13.05-59.2-17.84
		c-7.39-1.76-14.61-4.62-21.57-7.72c-14.83-6.59-29.65-13.22-45.78-22.26c5.04,9.86,12.86,15.66,15.17,24.46
		c-1.63,1.91-2.79,0.38-3.62-0.18c-35.17-24.08-71.87-45.77-107.62-68.93c-6.82-4.42-7.31-4.41-13.94,1.02
		c-15.7,12.84-26.11,28.91-29.77,49.1c6.14,6.08,14.74,9.61,17.31,18.88c-5.2,3.23-10.71,1.78-16.57,2.89
		c4.03,5.58,9.48,8.41,15.33,10.28c18.37,5.88,36.82,11.49,55.24,17.2c0.95,0.3,1.89,0.64,2.85,0.92
		c6.39,1.86,12.68,4.51,19.19,5.32c6.29,0.77,11.96-3.37,18.03-4.95c23.93-6.21,48.23-9.43,72.91-9.92
		c5.31-0.1,10.67-0.97,15.86-0.97c18.93,0,37.92,0.73,55.72,8.51c2.13,0.93,4.22,1.99,6.25,3.13c0.82,0.46,1.43,1.31,2.47,2.29
		c-2.22,4.51-5.62,8.01-9.04,11.54c-5.79,5.98-11.5,12.03-17.16,18.13c-1.34,1.44-2.55,3.09-3.43,4.84
		c-2.89,5.72-1.07,10.3,5.02,12.61c22.7,8.63,45.36,17.32,68.13,25.75c21.51,7.96,43.03,15.95,65.36,21.49
		c4.77,1.19,9.89,1.21,14.27,3.87c0.17,2.54-1.82,3.33-3.5,4.36c-1.35,0.83-3.2,1.07-3.81,3.86c10.84,1.84,21.33,5.3,32.67,2.44
		c10.34-2.61,21.09-2.51,31.66-3.04c16.94-0.86,33.93-1.52,50.91-0.16c25.23,2.03,50.3,4.89,73.77,15.35
		c6.41,2.85,12.54,6.17,17.34,11.48c1.37,1.51,2.6,3.05,2.29,5.45c-1.44,3.37-4.9,4.06-7.91,5.27
		c-11.79,4.75-22.58,11.28-33.27,18.07c-6.76,4.3-10.38,9.99-10.09,18.28c2.26,3.59,6.52,4.18,10.06,5.69
		c20.84,8.89,41.17,18.78,60.55,30.52c12.25,7.42,24.18,15.35,35.68,23.9c3.19,2.37,6.43,4.69,9.46,6.89
		c12.38-2.22,24.11,0.5,35.81,2.53c22.8,3.96,44.38,11.61,64.35,23.38c10.36,6.1,19.99,13.23,27.19,23.15
		c2.35,3.24,4.7,6.46,5.2,10.56c-0.93,2.7-3.24,2.88-5.56,3.45c-15.54,3.86-27.42,12.57-35.49,26.63
		c10.12,13.48,19.89,26.5,29.84,39.75c18.96,3.69,36.63,10.89,52.08,23.09c3.42,2.7,6.6,5.56,7.66,10.38
		c-3.02,5.47-8.91,7.63-13.68,11.08c-3.84,2.78-7.4,5.49-8.39,10.62c-0.47,2.42-0.63,4.5,0.59,6.64
		c4.29,7.51,8.43,15.11,12.96,22.48c1.34,2.18,3.62,3.87,5.7,5.49c23.11,17.96,49.46,26.8,78.58,27.84
		c22.45,0.81,44.39-2.95,66.25-7.35c32.03-6.46,64.27-10.84,97.05-9.28c32.52,1.54,63.78,8.86,93.95,20.98
		c1.16,0.47,2.11,1.45,3.63,2.53c-6.87,4.74-15.28,3.17-22.88,7.75c17.23,4.11,32.69,10.22,48.16,16.35
		c12.46,4.94,24.07,11.33,35.21,18.65c11.96,7.85,23.75,15.99,35.77,23.74c11.21,7.23,23.11,13.14,35.46,18.24
		c22.57,9.32,45.93,9.94,69.68,6.98c2.55-0.32,5-1.18,8.1-0.05c-4.33,5.69-10.18,8.61-16.25,11.19c-9.88,4.2-20.38,5.98-30.89,7.63
		c-5.58,0.88-11.18,1.6-16.75,2.47c-1.24,0.19-2.69,0.38-3.05,2.66c8.48,3.22,17.23,6.12,25.4,10.44
		c15.34,8.11,28.29,18.72,36.84,34.06c7.25,13,11.25,26.96,11.3,41.92c0.04,12.3-0.2,24.58-1.85,36.82
		c-0.75,5.58-0.45,11.3-0.82,16.94c-0.51,7.9,3.48,12.51,10.6,14.86c1.89,0.63,3.83,1.04,5.54,3.12c-6.04,2-11.39-0.86-18.68-2.43
		c4.88,5.68,8.52,9.84,12.07,14.07c7.31,8.69,13.96,17.8,18.42,28.36c3.13,7.41,5.19,15.11,6.15,23.06
		c1.16,9.56,2.06,19.12,2.01,28.81c-0.08,14.97,0.61,30,4.71,44.49c6.81,24.03,22.15,39.79,46.74,45.71
		c4.63,1.12,9.56,0.98,15.92,1.57c-10.09,7.15-20.55,6.63-30.47,8.33c-10.38,1.78-20.54-0.1-30.76-1.02
		c-10.22-0.92-19.91-4.32-30.32-6.48c5.54,6.41,11.23,12.7,16.6,19.25c8.66,10.57,16.98,21.41,22.41,34.1
		c1.69,3.96,3.37,7.98,4.52,12.12c2.82,10.09,0.66,15.53-8.26,21.16c-8.3,5.23-17.52,8.32-27.16,9.35
		c-22.5,2.4-45.04,3.42-67.66,1.02c-6.59-0.7-13.32-0.22-19.98-0.19c-12.57,0.05-24.96-1.7-37.36-3.65
		c24.16-2.02,48.41-0.07,72.87-1.26c0.76-6.35-2.51-10.32-5.69-13.89c-8.17-9.17-16.77-17.91-26.99-24.95
		c-17.17-11.81-36.02-19.99-55.62-26.68c-13.85-4.72-27.84-9.07-41.55-14.2c-21.62-8.09-41.92-18.71-59.86-33.46
		c-11.13-9.15-21.17-19.26-28.35-31.92c-0.64-1.13-1.45-2.16-2.4-3.56c-0.67,13.23,18.87,50.38,37.55,71.91
		c-2.01,2.19-3.61-0.05-5.02-0.73c-11.48-5.54-21.56-13.02-30.92-21.7c-20.67-19.17-34.66-42.81-46.5-67.97
		c-10.21-21.7-18.36-44.22-26.69-66.67c-7.91-21.32-17.55-41.71-32.37-59.27c-15.02-17.8-32.83-32.03-53.74-42.32
		c-1.33-0.66-2.68-2.24-4.85-0.66c3.85,6.44,8.66,12.62,9.39,20.35c0.43,4.6,2.54,9.05,1.4,13.75c-0.3,1.22-1.28,2.28-2.06,3.6
		c-8.59-23.31-26.74-34.16-49.4-39.01c-5.07-1.08-10.28-1.15-15.68-0.68c-8.52,0.73-17.19,0.79-25.87-0.51
		c-8.5-1.27-17.18-1.24-25.78-2.36c-29.58-3.85-57.85-12.12-85.13-24.05c-31.57-13.8-60.56-32.05-88.89-51.45
		c-39.55-27.09-77.83-56.01-118.04-82.15c-39.23-25.5-80.49-46.87-125.2-61.15c-25.05-8-50.59-14.11-76.33-19.35
		c-19.53-3.98-39.1-7.79-58.72-11.32c-9.39-1.69-18.87-3.48-27.86-2.51c-2.94,2.08-2.37,4.68-2.86,6.87
		c-3.46,15.57-7.08,31.12-10.18,46.76c-3.47,17.51-1.66,34.15,7.5,50.09c19.32,33.63,42.27,64.57,67.75,93.69
		c11.39,13.02,22.76,26.08,35.12,38.19c24.02,23.52,49.36,45.55,75.43,66.78c22.95,18.69,45.63,37.7,67.36,57.84
		c10.26,9.5,22.54,16.51,34.11,24.34c3.11,2.1,6.61,2.36,10.45,1.36c8.07-2.08,16.32-3,24.71-2.76c25.91,0.75,44.91,13.1,57.79,35
		c6.98,11.87,10.36,25.18,12.33,38.77c0.85,5.91,1.33,11.87,2.04,17.8c0.4,3.29,0.71,6.58,2.33,9.63
		c9.75,18.32,10.74,38.15,9.9,58.27c-0.52,12.42-2.7,24.43-9.05,35.38c-1.66,2.86-2.91,6.01-6.62,7.35
		c-5.6-3.52-6.47-10.36-10.26-15.88c-12.61,5-25.35,8.5-39.03,5.23c-3.04,6.58-3.35,12.98-5.22,18.91
		C3517.43,2138.01,3516.4,2144.28,3512.45,2149.93z M4278.34,1818.3c-1.91-17.2-6.38-33.34-15.84-47.82
		c-6.41-9.81-14.91-16.71-26.05-20.66c-14.22-5.05-29.01-3.29-43.85-4.32C4223.17,1767.46,4254.33,1788.42,4278.34,1818.3z
		 M2244.9,644.17c-16.85-9.3-33.55-18.91-49.76-29.31c-0.72-0.46-1.89-0.23-3.02-0.34c-3.33,12.28,1.75,22.65,7.46,32.68
		c-6.09,3.09-10.67-0.93-15.88-1.77c5.35,10.79,12.77,18.48,18.93,19.92c1.98-4.36-0.86-8.45-0.71-12.73
		c0.16-4.65-0.05-9.32,0.06-13.98c0.09-4.06-0.48-8.21,0.67-13.42c6.63,7.21,10.04,14.85,14.8,21.54
		c4.63,6.5,8.96,13.22,13.57,19.74c4.57,6.48,8.3,13.62,14.97,20.65C2245.59,671.81,2246.82,658.21,2244.9,644.17z M2808.21,885.49
		c3.25,4.17,6.88,8.1,9.64,12.57c2.94,4.76,6.89,7.82,11.88,9.98c5.8,2.5,11.44,5.51,16.03,9.82c4.32,4.07,9.01,4.93,14.44,3.86
		c3.14-0.62,6.27-1.33,10.77-2.29C2850.52,905.7,2829.78,895.12,2808.21,885.49z"/>
</g>
<g>
	<path class="st0" d="M3943.74,1745.61c-3.78-2.81-8.32-3.99-12.59-5.71c-24.12-9.71-47.51-20.8-68.73-36.04
		c-12.2-8.76-23.5-18.51-33.26-29.97c1.63-0.67,3.53,1.34,5.51-0.78c-2.54-1.2-4.84-2.3-7.15-3.39
		c-12.22-9.15-20.64-21.6-29.04-33.97c-17.4-25.63-32.79-52.51-48.69-79.08c-0.5-0.83-0.67-1.86-0.99-2.79
		c2.31-2.34,3.76,0.24,5.05,1.08c26.75,17.25,56.12,23.59,87.62,21.68c20.33-1.23,40.22-5.23,60.11-9.18
		c32.17-6.39,64.59-9.09,97.3-6.5c25.34,2,49.86,8.09,73.75,16.72c1.75,0.63,4.09,0.76,4.81,3.55c-10.9,4.56-23.05,5.01-35.48,9.59
		c2.49,0.71,3.53,1.4,4.31,1.18c10.19-2.91,19.91,0,29.37,2.94c29.07,9.04,56.66,21.09,81.46,39.27
		c18.26,13.38,37.54,25.27,58.71,33.83c22.24,8.99,45.05,11.07,68.56,7.01c1.29-0.22,2.62-0.2,4.73-0.36
		c-2.43,4.19-6.29,5.28-9.66,6.76c-9.81,4.29-20.27,6.38-30.73,8.36c-9.38,1.78-18.9,3.01-28.29,6.84c3.25,2.41,6.63,2.59,9.73,3.57
		c14.4,4.57,27.86,10.91,39.67,20.5c17.5,14.21,26.07,33.1,29.37,54.94c2.42,16.01,1.12,31.8-1.61,47.61
		c-2.15,12.44-1.51,17.33,2.77,27.03c-3.6-0.08-6.02-2.52-8.7-4.28c-2.69-1.76-5.15-3.88-8.63-4.97c2.28,2.57,4.57,5.14,6.84,7.73
		c2.42,2.75,4.72,5.61,7.25,8.24c7.63,7.95,14.5,16.5,20.57,25.69c7.69,11.63,11.79,24.5,13.49,38.25
		c1.64,13.24,1.54,26.55,2.04,39.84c0.49,13.01,1.96,25.93,6.77,38.13c8.37,21.26,23.16,35.34,46.05,40.01
		c1.93,0.39,3.81,1.06,6.04,1.7c-22.53,9.21-72.46,4.23-92.94-11.91c-2.21,2.4,0.39,3.48,1.47,4.62
		c7.29,7.76,15.22,14.92,22.02,23.17c9.76,11.84,19.32,23.8,25.57,37.99c1.47,3.34,2.87,6.75,3.86,10.26
		c2.79,9.9,0.86,14.62-8.13,19.95c-9.35,5.54-19.69,7.76-30.38,9.07c-13.27,1.62-26.57,1.31-39.87,1.35c-7,0.02-13.99,0-20.99-0.56
		c3.64,0,7.32,0.32,10.92-0.07c5.5-0.6,7.56-4.2,5.17-9.16c-3.49-7.25-8.12-13.82-14.09-19.23c-18.98-17.19-40.56-30.13-64.74-38.63
		c-18.53-6.52-37.14-12.78-55.62-19.43c-24.43-8.8-46.06-22.33-65.22-39.77c-11.27-10.26-19.26-22.86-24.88-36.98
		c-0.74-1.85-1.46-3.71-2.28-5.52c-0.25-0.56-0.81-0.97-1.79-2.11c-1.69,3-0.85,5.75-0.27,8.35c2.77,12.39,7.1,24.26,12.07,35.91
		c5.77,13.53,12.87,26.31,21.89,37.97c0.63,0.81,1.11,1.58,0.23,2.84c-3.07,0.06-5.14-2.29-7.41-3.91
		c-23.31-16.55-40.33-38.4-53.72-63.43c-14.34-26.81-24.88-55.18-35.42-83.58c-8.27-22.27-18.35-43.51-33.84-61.9
		c-16.4-19.46-36.23-34.17-59.44-44.43c-1.2-0.53-2.31-1.27-4.36-2.42c5.53-4.13,12.75-1.92,17.38-6.26
		c-2.17-1.6-4.42-0.75-6.68-0.3c-20.24,4.06-40.6,6.6-61.3,7.53c-59.87,2.67-115.12-12.52-167.27-40.99
		c-37.82-20.64-72.47-46.05-107.49-70.92c-1.35-0.96-2.63-2.04-3.84-3.17c-24.59-22.97-47.62-47.41-70.02-72.53
		c-20.18-22.63-38.86-46.45-58.17-69.78c-27.4-33.12-59.68-60.57-95.95-83.56c-25.92-16.43-52.7-31.19-80.73-43.69
		c-17.95-8-36.28-15.01-54.89-21.32c-3.45-1.17-6.89-2.38-10.78-3.72c-7.23-28.88-17.91-56.45-30.68-83.22
		c-12.64-26.49-31.96-48.55-48.92-72.36c2.16-0.85,3.21,0.07,4.31,0.72c31.94,18.78,65.98,33.18,99.92,47.79
		c9.59,4.13,19.92,5.19,30.01,7.22c8.13,1.64,16.34,2.92,24.78,4.41c7.59,14.93,21.75,21.49,36.24,26.34
		c11.52,3.85,23.75,2.85,34.41-4.65c0.54-0.38,1.06-0.81,1.61-1.18c10.08-6.64,19.96-12.38,33.28-9.46
		c9.95,2.18,20.49,1.74,30.78,2.28c2.83,0.15,4.9,0.97,6.99,3c3.08,3,6.35,5.77,8.83,9.55c-5.78,13.16-20.23,16.63-29.48,26.41
		c13.54,2.43,24.44-2.8,38.99-18.13c2.54-1.28,5.15-0.19,7.74,0.13c2.3,0.28,4.65,1.32,6.87,1.05c12.72-1.55,23.05,4.77,33.81,9.79
		c7.23,3.37,14.51,6.66,21.81,9.87c1.75,0.77,3.66,1.79,6.11-0.06c-1.49-3.13-4.81-4.19-7.32-6.03c-2.68-1.97-5.51-3.75-8.4-5.4
		c-8.11-4.64-15.74-9.98-23.32-15.4c-3.17-2.27-5.59-4.81-4.13-9.81c10.94-2.23,21.94,2.05,33.03,1.18
		c2.64-0.72,1.05-3.66,3.32-5.51c3.05-1.32,6.17,0.52,7.6,3.44c1.84,3.75,4.75,4.1,8.06,4.59c7.89,1.18,15.74,2.6,23.65,3.67
		c4.78,0.65,8.6,2.25,12.1,5.97c4.27,4.54,9.63,8.04,14.54,12.01c-0.77,6.37-2.05,12.08-5.37,17.17
		c-6.25,0.92-12.29,0.14-18.11-0.67c-14.95-2.07-29.93-0.61-44.88-1.27c-4.99-0.22-10,0.18-14.99,0.1
		c-19.64-0.32-39.21,2.44-58.86,1.33c-16.58-0.93-33.14-2.21-49.72-3.12c-9.96-0.54-19.89-1.21-29.84-2.04
		c-38.91-3.23-75.83-13.67-111.42-29.35c-2.63-1.16-5.01-3.49-8.68-2.31c1.34,2.52,3.78,3.56,5.85,4.96
		c10.21,6.9,20.43,13.79,30.67,20.64c8.41,5.62,18.3,7.89,27.41,11.94c3.94,1.75,8.1,3.02,12.2,4.39c11.98,4,23.87,7.98,36.67,9.21
		c16.57,1.59,32.71,5.87,48.83,9.98c17.73,4.52,35.59,8.52,53.78,10.71c4.51,0.54,8.13,2.11,11.58,5.08
		c4.26,3.68,8.51,7.43,13.48,10.27c4.38,2.49,8.96,4.32,13.73,5.86c3.5,1.13,6.33,0.67,9.21-1.78c3.53-3.01,7.36-5.7,11.21-8.31
		c10.65-7.21,10.71-7.47,23.06-6.3c15.54,1.47,31.07,3.09,46.4,6.33c25.56,5.39,49.8,14.48,73.35,25.54
		c10.23,4.81,20.14,10.3,30.37,15.1c5,2.35,8.84,5.62,12.08,10.02c17.58,23.9,33.6,48.81,48.22,74.63
		c21.99,38.82,44.49,77.35,68.68,114.84c13.96,21.63,30.12,41.48,49.02,59.03c13.75,12.77,29.15,23.22,45.57,32.16
		c16.09,8.76,32.83,16.16,50.13,22.25c2.17,0.76,4.51,1.03,6.77,1.52c4.1,3.42,9.1,3.95,14.1,4.55
		C3953.02,1748.24,3948.67,1746.17,3943.74,1745.61z M3989.37,1764.08c-2.54-3.72-6.42-3.9-10.43-4.29
		c-13.67-1.34-26.24,2.57-38.59,7.67c-1.37,0.57-3.31,0.67-3.01,3.12c2.76,0.51,5.07-0.82,7.46-1.75
		c12.85-5.01,25.92-8.07,39.8-4.83c1.55,0.36,3.28-0.07,4.93-0.13c2.29,2.79,5.82,3.03,8.88,4.15c6.9,2.52,13.5,5.64,19.48,9.89
		c7.3,5.19,14.45,10.59,21.63,15.95c9.92,7.41,18.58,16.01,25.21,26.57c0.82,1.31,1.42,3.52,4.35,3.09
		c-6.2-11.5-14.46-20.5-24.01-28.34c-7.44-6.11-15.49-11.51-22.59-17.98c-7.11-6.48-15.49-10.01-24.31-12.97
		C3995.29,1763.28,3992.32,1762.95,3989.37,1764.08z M4188.65,1744.08c2.34,4.94,5.82,6.42,8.71,8.45
		c28.53,20.08,57.52,39.63,78.67,68.24c1.12,1.51,2.4,3.3,4.84,2.77c0.34-0.56,0.9-1.09,0.95-1.67c0.11-1.31,0.09-2.66-0.09-3.96
		c-1.96-14.61-6.13-28.61-12.98-41.62c-6.65-12.62-15.73-23.2-29.72-28.07C4223.06,1742.66,4206.57,1742.3,4188.65,1744.08z
		 M4081.41,1797.6c0,8.54,0,17.08,0,25.99c7.57,0.19,6.4,9.97,13.71,13.31c-3.67-7.16-7.02-12.8-9.5-18.79
		C4082.94,1811.65,4083.12,1804.57,4081.41,1797.6z M3920.33,1777.08c-4.93-2.13-7.72,0.52-12.87,2.49
		C3913.31,1780.46,3916.33,1778.71,3920.33,1777.08z M4205.9,1692.22c-2.61,0-3.87-0.08-5.12,0.02c-1.25,0.1-2.64-0.31-3.93,1.15
		c1.52,0.19,2.79,0.42,4.08,0.5C4202.18,1693.96,4203.52,1694.64,4205.9,1692.22z M3845.23,1678.42c-0.3,0.32-0.6,0.63-0.89,0.95
		c0.68,0.58,1.29,1.33,2.07,1.7c0.93,0.44,2.12,1.28,2.97-0.51C3847.97,1679.83,3846.6,1679.12,3845.23,1678.42z M4079.94,1838.55
		c1.68-3.57,1.89-5.85,0.76-8.78C4078.75,1832.53,4079.51,1834.76,4079.94,1838.55z"/>
	<path class="st0" d="M2448.16,867.21c23.15,11.94,46.02,14.26,69.68,1.16c0.82-0.26,1.88,0.65,3.05,1.25
		c1.15,0.59,2.36,1.07,3.42,1.54c1.85-1.66,1.85-1.66-0.1-7.4c1.47-3.05,4.05-5.12,6.66-7.11c3.03-0.55,5.13,1.46,7.34,2.72
		c14.48,8.22,28.58,17.02,40.75,28.54c1.68,1.59,3.26,3.34,4.63,5.21c9.21,12.63,18.5,25.15,24.99,39.57
		c5.87,13.03,8.78,26.23,7.04,40.58c-0.81,6.61-2.46,13.12-2.95,19.67c-1.45,19.13-7.27,37.67-7.34,56.96
		c-0.02,6.02,0.4,11.92,2.23,17.55c1.66,1.59,3.2,0.2,5.54,0.03c-1.36,11.2-4.61,21.64-10.25,31.16c3.79,2.54,5.08-0.04,6.73-1.33
		c1.76-1.38,2.93-3.61,6.18-3.95c1.34,8.57,1.73,16.96,1.04,25.58c-0.71,8.71-4.76,15.39-10.14,21.73
		c-6.66,7.85-14.72,13.43-24.82,15.75c-10.66,2.45-19.51-0.8-27.08-8.18c0.26-6.63,4.62-12.02,3.6-18.99
		c-3.78,1.57-3.78,4.63-4.65,6.85c-8.21,21.13-20.44,39.61-36.79,55.22c-18.41,17.57-39.53,30.24-65.04,34.74
		c-28.29,4.99-52.52-3.4-73.8-21.83c-12.67-10.97-22.67-24.28-32.54-37.69c-1.6-2.17-2.62-4.35-2.48-7.31
		c1.05-22.25,3.06-44.42,5.34-66.57c0.28-2.69,0.68-5.22,2.2-7.49c4.74,0.05,6.51,5.26,11.66,6.9c-0.95-4.78-4.31-6.6-6.54-9.13
		c-2.64-2.99-5.35-5.93-8.25-8.66c-2.65-2.5-5.69-4.59-8.38-7.06c-2.94-2.7-5.69-5.62-8.51-8.45c-2.56-2.58-5.32-5.02-6.72-8.68
		c2.26-1.44,3.57,0.65,5.08,1.41c17.73,8.89,36.4,14.85,56.14,16.54c13.49,1.16,26.56-1.85,38.54-8.29
		c9.41-5.06,17.91-11.49,25.59-18.99c9.78-9.55,19.26-19.35,27.33-30.44c0.96-1.32,2.09-2.5,2.92-3.49c3.22-0.4,4.63,1.8,6.42,3.09
		c12.79,9.23,27,13.98,42.8,14.38c15.99,0.41,30.24-4.62,42.82-13.99c16.97-12.65,29.38-28.81,35.2-49.51
		c1.16-4.12,2.34-8.24,1-12.72c-3.76,0.39-3.16,3.38-3.6,5.2c-4.16,16.92-12.42,31.55-24.62,43.87
		c-14.2,14.33-31.29,22.59-51.74,21.97c-15.31-0.46-29.34-5.42-41.62-14.83c-1.84-1.41-3.63-2.87-5.37-4.25
		c-3.23,1.35-4.46,4.25-6.31,6.54c-11.11,13.72-22.59,27.02-36.59,38.04c-13.2,10.39-27.79,17.03-44.5,18.34
		c-8.99,0.7-17.88-1.2-26.63-3.19c-16.35-3.72-31.79-9.64-45.89-18.94c-9.42-6.22-16.68-14.11-21.62-24.29
		c-4.35-8.99-8.91-17.86-12.58-27.17c-5.37-13.61-10.89-27.17-16.32-40.76c-6.85-17.13-10.39-35.03-12.23-53.31
		c-0.3-2.97-0.69-5.97,0.59-9.59c7.76,3.89,14.02,9.94,21.7,13.67c7.8,3.79,15.73,7.09,24.05,9.61c8.33,2.52,16.87,4.05,25.43,4.91
		c8.91,0.9,17.99,1.01,26.92-0.18c8.55-1.13,17.11-2.34,25.38-5.08c8.22-2.72,16.46-5.4,24.04-9.62c7.55-4.2,15.04-8.44,21.91-13.84
		C2434.91,879.88,2440.99,873.74,2448.16,867.21z"/>
	<path class="st0" d="M2344.22,1174.06c3.82,2.46,5.54,6.21,7.97,9.28c9.31,11.79,19.38,22.81,31.63,31.65
		c29.83,21.53,61.59,23.14,94.52,8.48c31.25-13.9,54.1-37.02,70.74-66.59c0.64-1.15,1.37-2.24,1.92-3.15
		c2.78-1.07,3.75,1.18,5.27,2.21c12.3,8.35,24.91,8.31,37.67,1.24c6.17-3.42,11.49-7.91,15.84-13.55c1.32-1.71,1.96-4.33,4.74-4.6
		c1.19,1.47,0.89,3.18,0.81,4.75c-1.04,19.17,3.19,37.61,6.79,56.28c6.89,35.68,16.54,70.58,27.02,105.3
		c0.76,2.53,1.32,5.12,1.91,7.46c-17.22,24.74-54.09,32.09-75.1,15.95c-0.5-5.8,7.15-8.68,5.9-14.95c-3.08-0.09-3.6,2.21-4.71,3.7
		c-24.46,32.84-56.5,54.17-96.53,62.96c-30.25,6.65-58.19,1.88-82.49-18.59c-2.57-2.16-4.85-4.51-6.93-7.14
		c-4.74-5.99-9.33-12.14-15.43-16.89c-2.21-1.72-2.97-4.35-4.19-6.69c-6.04-11.58-10.03-23.98-13.49-36.45
		c-7.85-28.27-13.1-56.99-14.53-86.41c-0.45-9.29-1.12-18.58-1.07-27.89C2342.48,1178.49,2341.92,1176.39,2344.22,1174.06z"/>
	<path class="st0" d="M2375.68,700.01c2.93,2.63,2.62,7.53,7.19,10.08c3.25-6.53-0.14-12.49-0.49-18.39
		c-0.36-6.23-0.9-12.44-0.26-20.49c4.98,14.22,9.55,26.65,13.66,39.24c3.23,9.9,4.34,20.14,3.38,30.57
		c-0.21,2.24-1.18,4.55,0.82,7.38c8.94-4.97,11.8-13.67,13.79-22.62c1.92-8.64,2.87-17.47,0.86-26.16c2.07-0.54,2.49,0.45,2.86,1.34
		c4.99,12.02,11.6,23.21,17.98,34.49c8.66,15.32,15.18,31.12,13.99,49.19c-0.09,1.31,0.06,2.65,1.34,3.65
		c3.84,1.7,3.11-3.68,5.75-3.9c11.38,40.59,28.75,69.32,45.77,82.18c2.35-0.66,1.8-2.56,1.37-3.99c-1.13-3.76-2.55-7.44-2.66-11.94
		c3.93,4.45,7.86,8.91,11.76,13.32c-2.01,4.2-6.1,4.38-9.35,5.36c-14.19,4.27-28.3,3.27-42.13-1.82c-4.34-1.6-8.55-3.54-13.15-5.46
		c-5.31,4.69-10.38,9.44-15.73,13.87c-18.8,15.57-39.97,26.46-64.11,30.7c-38.15,6.69-73.36,0.01-104.55-24.11
		c-5.15-3.98-7.59-8.27-7.47-15.11c0.76-42.8,6.7-84.79,18.37-125.98c1.81-6.4,3.6-12.8,5.42-19.2c0.07-0.25,0.37-0.44,0.71-0.82
		c4.25,8.13,1.02,17.86,5.95,26.75c3.05-6.73,1.32-12.78,0.73-18.36c-1.61-15.19-4.36-30.25-6.61-45.37
		c-2.03-13.6-6.94-25.63-18.31-34.22c-0.16-0.12-0.02-0.62-0.02-1.42c39.97,0.01,58.97-24.87,69.26-59.91
		c18.86,4.76,30.92-4.79,41.46-19.17c2.3,4.98,1.63,9.24,1.06,13.36c-1.79,13.17-3.61,26.34-5.74,39.46
		c-3.82,23.46-1.36,46.4,5.02,69.09c0.81,2.88,1.54,5.78,2.31,8.67c-3.02-0.44-4.95,1.13-6.74,3.33
		c-11.77,14.51-22.07,30.01-31.38,46.18c-0.66,1.15-1.2,2.4-0.1,3.45c1.4,0.42,1.96-0.55,2.5-1.34
		C2352.04,734.6,2363.86,717.31,2375.68,700.01z"/>
	<path class="st0" d="M3147.23,953.45c-44.39-1.42-82.12-17.83-111.91-51.07c-11.71-13.07-19.34-28.67-22.69-46.06
		c-0.75-3.88-0.9-7.96-0.74-11.92c0.17-4.06,2.33-5.92,6.51-5.93c2.62-0.01,5.29,0.5,7.86,1.1c9.11,2.13,17.7,5.74,26.27,9.41
		c17.3,7.41,35.27,11.7,54.19,12.07c8.56,0.17,15.68-2.62,21.59-8.55c4.22-4.24,8.11-8.81,12.15-13.23c2.92-3.19,5.92-6.3,8.74-9.58
		c7.86-9.16,18.19-12.09,29.65-11.21c30.24,2.33,56.75,13.22,78.58,34.8c8.44,8.35,15.18,17.52,18.68,29.03
		c1.72,5.64,0.87,10.29-2.62,14.95c-9.69,12.93-20.68,23.97-35.73,31.03c-19.63,9.21-39.11,18.47-60.71,22.19
		C3167.2,952.18,3157.35,953.7,3147.23,953.45z"/>
	<path class="st0" d="M2138.82,2149.25c-6.31,1.06-12.07-0.08-17.57,1.63c-1.12,0.35-2.67-0.14-3.86-0.63
		c-7.69-3.21-14.95-1.34-21.95,2.01c-5.95,2.86-11.98,3.74-18.41,2.33c-3.9-0.85-7.74-1.57-11.65,0.35
		c-3.95,1.94-6.61-2.44-10.23-2.47c-2.57-0.04-1.17,2.82-3.09,3.88c-11.47-0.86-20.65-7.26-29.29-14.63
		c-3.03-2.58-5.91-5.45-8.36-8.57c-3.99-5.09-8.44-9.37-15.65-10.85c-0.74-11.44,2.4-22.6,0.58-33.8
		c-1.74-10.74-3.26-21.49-6.35-33.26c-6.37,5.77-10.77,12.08-17.47,15.58c-1.82-1.78-0.26-3.2,0.36-4.47
		c9.2-18.73,21.04-35.68,37.51-48.55c14.25-11.14,30.76-16.09,49.37-14c12.19,1.37,22.11,6.32,31.37,13.86
		c8.23,6.7,17.45,11.79,27.62,15.16c5.98,1.98,11.69,4.8,17.64,6.9c3.56,1.26,5.21,3.89,6.59,6.99c3.15,7.07,5.03,14.54,5.19,22.22
		c0.38,17.62,1.37,35.3-2.56,52.71C2146.5,2131.05,2144.01,2140.35,2138.82,2149.25z"/>
	<path class="st0" d="M3358.21,891.63c-3.3-11.05-12.48-15.87-17.7-23.39c1.24-2.39,3.07-1.7,4.48-1.29
		c59.19,17.07,115.69,39.77,164.79,78.16c28.05,21.93,49.08,49.41,65.19,80.91c0.75,1.46,1.22,3.06,1.76,4.62
		c0.09,0.25-0.15,0.62-0.28,1.11c-3.31,3.07-6.84,0.85-10.11-0.14c-12.08-3.67-24-7.87-36.12-11.39
		c-30.35-8.79-59.94-19.88-89.98-29.59c-19.61-6.33-39.29-12.43-59.32-17.33c-7.1-1.74-14.15-3.65-21.02-6.26
		c-5.92-2.25-12.2-3.29-18.52-3.66c-3.37-0.2-6.52-0.84-9.77-2.21c-1.03-3.14,0.42-6.26-0.78-9.58c-2.17-6.01-2.61-12.52-7.79-17.34
		c-4.6-4.28-8.6-9.22-12.94-13.79c-1.82-1.92-3.86-3.63-5.76-5.41c0.07-3.01,2.7-2.41,4.3-3.14c4.88-2.24,9.2-5.26,13.23-8.81
		c5.57-4.91,11.65-8.84,19.49-9.05c1.62-0.04,3.41-0.44,4.78-1.26C3349.61,890.74,3353.27,890.08,3358.21,891.63z"/>
	<path class="st0" d="M3387.16,2043.17c-0.59,0.74-1.17,1.49-2.16,2.73c-6.39-6.72-11.02-14.92-18.94-21.39
		c-4.69,29.37-12.6,57.91-7.01,87.08c-2.23,2.66-3.26,0.81-4.71-0.29c-1.7,1.33-3.46,2.72-5.62,4.42c-3.18-5.09-6.67-1.38-10.2-0.49
		c-4.84,1.22-9.66,2.42-14.72,2.58c-17.71,0.56-35.33-0.2-52.55-4.56c-13.69-3.47-25.96-10.12-37.25-18.28
		c-1.46-3.3-0.16-6.1,0.9-8.85c4.38-11.31,5.21-23.29,6.65-35.14c0.64-5.3-0.41-10.58-1.17-15.87c-1.59-10.99-6.13-21.06-9.42-31.5
		c-1.68-5.34-5.37-9.92-9.51-13.91c-2.37-2.29-4.64-4.69-7.1-7.19c2.54-4.93,6.93-6.04,11.74-6.26c12.75-0.59,24.27,3.01,34.94,9.93
		c2.96,1.92,5.38,4.94,9.64,5.76c3.9-8.31-3.36-14.67-3.06-22.04c1.05-2.69,3.56-3.81,5.89-5.02c7.41-3.85,15.15-6.81,23.26-8.88
		c10.6-2.7,20.45-1.18,29.71,4.56c7.99,4.95,14.98,11.11,21.28,18.03c15.83,17.41,28.84,36.55,36.29,59.14
		c0.65,1.97,0.61,4.78,3.33,5.73L3387.16,2043.17z"/>
	<path class="st0" d="M3513.16,2021.17c0,3.64,0,7.28,0,11.06c-3.03,0.54-3.08-1.92-3.82-3.4c-4.02-8.06-8.58-15.8-13.66-23.21
		c-3.56-5.19-7.29-10.37-13.69-13.37c-5.21,15.9-9.46,31.77-11.59,48.35c-1.51,11.76-0.44,23.17,0.65,34.72
		c0.51,5.4,0.29,10.63-3.83,14.88c-2.7-0.92-1.32-4.4-3.81-5.42c-2.63-0.25-2.98,2.22-3.57,3.81c-3.07,8.33-9.1,13.73-16.74,17.65
		c-8.56,4.39-17.58,7.61-26.1,10.65c-3.18-1.89-2.92-4.48-3.15-6.67c-1.33-12.79-5.45-24.65-11.85-35.72
		c-5.16-8.92-10.34-17.78-12.85-27.92c-0.3-1.23-1.3-2.29-1.98-3.42l0.18,0.27c1.05-4.2-0.89-7.9-2.22-11.59
		c-7.43-20.64-18.91-38.83-34.18-54.56c-6.19-6.38-12.69-12.45-19.26-18.86c8.24-6.6,17.39-10.45,26.78-13.66
		c21.19-7.24,42.9-11.95,65.37-12.6c4.92-0.14,9.76-0.65,14.79-0.25c10.88,0.86,19.83,5.2,27.68,12.31
		c10.68,9.67,19.79,20.66,27,33.17c6.16,10.69,11.66,21.68,15.45,33.48c1.17,3.66,1.58,7.71,4.59,10.6L3513.16,2021.17z"/>
	<path class="st0" d="M2570.55,1331.98c31.75,18.92,57.72,10.5,82.16-11.93c4.98,14.13,8.08,28.12,14.5,40.86
		c6.43,12.78,14.75,24.43,22.14,36.39c-4.71,9.36-7.44,10.78-17.3,9.19c-2.67,2.62-3.19,6.42-4.86,9.61
		c-4.88,9.33-12.33,14.62-22.96,15.06c-25.59,1.05-51.18,3.28-76.78,1.93c-35.2-1.86-70.3-4.79-103.92-16.81
		c-27.95-10-50.94-26.79-70.02-49.94c2.95-1.18,3.86,1.02,5.15,2.08c16.37,13.37,35.22,19.63,56.24,19.83
		c31.47,0.31,59.2-10.64,84.83-28c8.85-5.99,17.18-12.6,24.4-20.51C2566.36,1337.3,2568.37,1334.64,2570.55,1331.98z"/>
	<path class="st0" d="M2032.53,1480.5c0.91,2.32,1.27,3.24,1.64,4.17c2.44,0.23,2.55-1.95,3.15-3.21
		c3.04-6.31,6.82-12.18,10.25-18.25c5.31-9.4,13.36-15.41,22.57-20.57c0.94,1.59,1.74,2.93,2.71,4.57c4.81-1.2,5.24-6.61,9.16-9.27
		c3.57,4.54,3.31,10.26,4.49,15.4c0.8,3.48,0.36,7.03,3.34,10.03c1.35,1.36,1.3,4.37,1.41,6.65c1.75,36.44,12.51,70.43,27.6,103.33
		c5.55,12.1,11.48,24,18.05,35.56c1.98,3.49,2.32,6.34,1,10.24c-7.07,20.94-9,42.76-10.56,64.64c-0.72,10.16-0.37,20.34-0.44,31.96
		c-5.63-3.98-9.76-7.63-13.75-11.48c-26.95-25.99-46.97-56.74-62.23-90.74c-8.04-17.91-15.22-36.13-19.51-55.38
		c-3.78-16.95-5.82-34.06-4.9-51.42C2026.98,1498.07,2029.02,1489.68,2032.53,1480.5z"/>
	<path class="st0" d="M3329.54,852.2c0-2.2,0-3.46,0-4.97c-0.74-1.68-2.66-1.23-4.15-1.69c-3.48-1.09-7.13-1.79-10.45-3.25
		c-17.68-7.74-18.72-17.56-16.7-34.06c0.69-5.63,5.64-9.87,10.42-12.83c9.47-5.86,17.87-12.79,24.53-21.7
		c5.13-6.86,12.14-7.65,19.68-6.36c8.52,1.45,16.99,3.18,25.42,5.07c28.56,6.41,57.29,12.25,84.94,22.12
		c27.64,9.86,54.52,21.38,78.97,37.93c8.59,5.82,16.39,12.55,23.4,20.18c3.35,3.65,6.6,7.42,8.29,12.02
		c-1.56,2.91-3.8,1.28-5.46,1.09c-21.15-2.39-42.41-3.16-63.62-4.64c-23.85-1.67-47.74-2.82-71.58-4.86
		c-21.51-1.84-43.12-3.13-64.76-2.96C3355.54,853.4,3342.76,850.75,3329.54,852.2z"/>
	<path class="st0" d="M2541.42,322.43c12.68-5.34,22.44-14.51,30.11-25.42c10.58-15.05,9.85-31.19,1.04-46.96
		c-9.91-17.73-26.06-26.93-45.03-32.05c-1.85-0.5-4.06-0.07-5.32-2.01c-0.12-1.31,0.85-1.72,1.71-1.98
		c21.74-6.66,43.81-11.17,66.71-8.9c16.23,1.61,31.13,6.67,43.47,17.92c7.55,6.88,13.23,15.18,16.57,24.63
		c8.84,25.06,13.38,50.74,8.42,77.36c-1.8,9.69-5.56,17.89-11.36,25.15c-3.16-0.34-5.11-2.81-7.4-4.6
		c-8.39-6.56-16.77-13.12-25.78-18.81c-5.64-3.56-11.44-6.79-18.2-7.78c-4.89-0.72-6.89,0.53-7.43,5.34
		c-0.56,5,0.08,9.89,1.53,14.77c4.38,14.76,9.99,28.9,19.31,41.33c0.76,1.01,1.21,2.25,1.79,3.35
		c-31.18,20.92-81.69,31.66-115.47,21.54c2.24-2.91,5.78-3.19,8.73-4.51c13.98-6.23,25.91-14.73,33.57-28.52
		c5.41-9.74,6.68-20.03,5.73-30.87c-0.57-6.54-4.57-10.84-9.12-14.88C2537.14,325.17,2539.28,323.8,2541.42,322.43z"/>
	<path class="st0" d="M2541.42,322.43c-2.14,1.37-4.27,2.74-6.41,4.11c-0.99,0-1.97,0-2.91,0c-1.18,1.05-0.28,1.73,0.44,2.25
		c7.24,5.22,9.3,12.49,8.88,21.03c-0.66,13.37-6.27,24.42-15.79,33.43c-10.91,10.32-24.4,15.9-38.75,19.61
		c-2,0.52-3.93,0.44-5.9-0.07c-20.71-5.37-40.38-13.29-58.99-23.85c-0.53-0.3-0.85-0.97-1.27-1.47c15.43-4.6,26.21-15,18.13-29.8
		c2.34-2.54,5.67-3.34,8.62-4.8c13.23-6.54,25.55-14.3,34.81-26.1c1.84-2.34,3.56-4.84,4.94-7.47c5.54-10.59,4.15-21.58-3.87-30.52
		c-6.51-7.26-14.42-12.77-22.66-17.86c-1.63-1.01-3.93-1.19-4.63-3.59c2.09-4.74,6.72-7.17,10.32-10.49
		c11.31-10.45,23.84-19.19,37.93-25.53c3.3-1.48,6.57-2.89,10.51-2.4c18.74,2.31,35.49,8.61,48.31,23.17
		c9.79,11.12,14.25,24,11.92,38.73c-1.74,11.03-8.53,19.29-16.33,26.78C2553.24,312.84,2546.19,316.31,2541.42,322.43z"/>
	<path class="st0" d="M2333.71,582.86c-2.45-4.52,0.21-9.35-2.79-13.03c-2.56,1.21-1.96,3.41-2.21,5.31
		c-2.07,16.06-6.7,31.23-16.34,44.45c-13.89,19.06-33.02,25.78-55.94,22.98c-4.27-0.52-8.46-1.29-12.35-3.5
		c-14.46-8.19-29.03-16.19-43.52-24.35c-2.29-1.29-4.34-3-6.45-4.48c-0.9-6.59,1.91-12.12,4.26-17.44
		c11.08-25.07,28.1-43.95,55.1-52.76c13.24-4.32,25.98-10.18,39.03-15.13c22.92-8.71,38.73-25.16,50.58-45.99
		c1.31-2.3,2.31-4.77,3.5-7.14c0.12-0.24,0.53-0.32,1.55-0.89c4.04,10.6,3.32,21.36,2.16,32.04c-1.18,10.91-4.42,21.38-8.66,31.63
		c1.18,0.75,2.22,1.85,2.72,1.65c8.73-3.67,18.71-4.53,25.94-12.53c3.89,5.19,5.01,10.31,5,15.46
		c-0.03,12.64-3.54,24.32-11.36,34.42C2356.5,583.14,2345.16,586.57,2333.71,582.86z"/>
	<path class="st0" d="M3391.07,1155.78c-24.64-20.74-53.36-33.55-80.09-49.64c-14.58-8.77-28.26-18.82-42.45-28.15
		c-1.11-0.73-2.21-1.53-3.12-2.5c-11.7-12.46-21.55-26.19-28.56-41.85c-3.82-24.41,0.17-43.34,21.09-55.3
		c12.16-6.95,22.6-5.57,33.68,0.28c17.19,9.08,32.62,20.54,45.89,34.84c15.77,17,28.78,35.8,37.43,57.41
		c8.96,22.39,14.55,45.64,16.17,69.72C3391.43,1145.13,3394,1149.65,3391.07,1155.78z"/>
	<path class="st0" d="M2324.57,2089.58c-10.04-5.05-15.55-12.98-20.4-21.38c-3.66-6.34-6.33-13.16-8.37-20.23
		c-1.1-3.82-2.3-7.69-4.07-11.22c-4.1-8.18-10.79-13.27-19.74-15.47c-3.88-0.95-7.78-1.59-11.58-1.67
		c-1.48-2.84,0.96-3.72,1.99-5.14c7.64-10.48,15.35-20.91,23.01-31.37c3.03-4.14,4.3-8.76,4.72-13.93
		c0.54-6.61-0.68-13.32,1.01-19.73c16.56-9.4,32.44-1.11,37.28,12.07c2.43,6.62,6.38,12.41,9.58,18.6c1.39,2.69,2.97,5.21,5.91,6.75
		c2.33-0.27,4.08-2.51,7.11-1.72c9,2.34,17.97,4.5,26.51,8.46c10.57,4.89,21.13,9.5,30.2,17.14c12.55,10.56,17.73,23.66,15.55,39.8
		c-0.36,2.66-1.1,5.2-3.33,7.89c-3.6-4.73-3.3-11.49-9.47-16.6c2.24,9.66,4.63,17.8,1.53,25.99c-2.95-0.47-1.33-3.98-3.8-4.33
		c-1.48,0.38-1.87,1.52-2.2,2.86c-4.98,20.06-18.59,28.36-38.77,23.69c-1.3-0.3-2.68-0.4-3.88-0.91
		C2350.43,2083.72,2337.51,2083.8,2324.57,2089.58z"/>
	<path class="st0" d="M3131.66,703.83c3.41-4.65,7.42-7.5,11.73-10.11c29.09-17.63,59.43-32.68,91.7-43.53
		c23.06-7.75,46.58-13.48,71.19-13.23c5.69,0.06,11.24,0.52,16.67,2.21c0.72,2.72-1.55,3.45-3.01,4.55
		c-23.5,17.63-44.1,38.33-64.25,59.62c-11.41,12.05-22.08,24.89-35.07,35.43c-6.76,5.49-14.12,9.79-21.97,13.55
		c-15.51,7.44-31.77,6.68-47.96,4.44c-11.3-1.56-20.32-7.8-26.66-17.58c-2.62-4.04-3.26-7.6,0.21-11.71
		c4.1-4.86,6.49-10.74,8.56-16.78C3133.7,708.06,3132.37,706.33,3131.66,703.83z"/>
	<path class="st0" d="M3380.95,1534.87c0.08,6.65,0.31,13.31,0.19,19.96c-0.09,5.2-1.98,9.83-6.09,13.19
		c-3.18,2.59-6.54,3.96-11.01,2.5c-33.88-11.1-68.64-18.61-103.61-25.25c-1.67-0.32-3.21-0.75-4.69-2.48
		c16.13-10.57,18.79-27.43,19.64-44.58c0.36-7.12-1.96-14.38-3.16-22.18c17.45-9.02,19.45-25.01,17.3-42.28
		c3.55-1.35,5.68,0.59,7.84,1.85c30.5,17.83,60,37.09,86.23,60.97c1.97,1.79,3.64,3.95,5.74,5.55c6.14,4.68,7.3,10.75,5.35,17.77
		c-2.03,7.32-6.03,10.75-14.59,12.67c-0.29,1.07,0,1.94,0.93,2.57L3380.95,1534.87z"/>
	<path class="st0" d="M3195.91,1535.14c-0.46-17.23,2.29-33.63,0.82-50.28c-1.44-16.19-1.99-32.46-4.35-48.61
		c-2.41-16.48-6.49-32.59-10.24-48.85c2.63-2.21,5-0.66,7.38,0.14c23.98,8.08,47.47,17.36,70.18,28.54
		c6.87,3.38,13.62,7.01,20.57,10.21c4.46,2.05,6.73,5.56,7.02,10.06c0.53,8.36-0.16,16.64-3.92,24.37
		c-3.05,6.27-7.31,10.97-15.25,11.66c0.71,3.19,1.42,6.34,2.11,9.5c3.05,13.94,2.41,27.61-2.54,41.1c-1.29,3.52-3.04,6.73-5.28,9.55
		c-5.56,6.98-12.66,10.46-21.9,8.84c-9.82-1.73-19.68-3.2-29.54-4.64C3206.4,1536.04,3201.78,1535.74,3195.91,1535.14z"/>
	<path class="st0" d="M2048.66,1998.91c-8.77,2.81-16.8,4.8-24.54,7.91c-11.3,4.53-19.18,13.06-26.86,21.73
		c-12.87,14.54-23.51,30.55-29.72,49.19c-0.62,1.85-1.51,3.76-2.78,5.2c-9.73,11.02-17.99,23.03-24.11,35.9
		c-3.78,1.37-5.56-0.9-7.46-2.67c-4.62-4.3-8.66-9.22-14.17-12.54c-2.71-1.63-3.99-4.39-4.69-7.4c-1.41-6.14-2.38-12.2-2.28-18.68
		c0.24-15.88-1.14-31.73-4.38-47.54c-8.17-1.48-10.2,8.17-16.89,8.53c-0.81-0.9-0.58-1.86-0.05-2.73
		c15.37-25.62,35.72-46.23,61.89-60.83c6.08-3.4,12.63-5.72,19.66-6.91c6.73-1.13,13.3-0.55,19.68,0.99
		c14.28,3.46,27.89,8.8,40.67,16.14C2038.42,1988.52,2043.57,1992.63,2048.66,1998.91z"/>
	<path class="st0" d="M2130.51,1415.48c1.69,6.64,1.92,12.32,4.15,17.54c4.47-0.6,3.05-5.51,6.16-6.26
		c3.54,2.81,0.4,7.97,3.75,10.81c3.69,0.99,3.25-3.74,6.25-4.17c-4.92,22.27-5.08,44.87-5.8,67.37c-0.23,7.21,0.19,14.57,1.29,21.86
		c1.34,8.85,1.81,17.84,2.38,26.78c0.71,11.03,3.5,21.63,5.98,32.32c1.22,5.25,3.16,10.19,5.85,14.8
		c9.55,16.37,18.4,33.21,30.44,47.98c3.39,4.15,4.98,8.31,3.92,13.71c-1.02,5.18-1.35,10.49-1.98,15.71
		c-2.83,1.14-4.41-0.97-6.21-2.2c-6.67-4.59-11.76-10.75-16.57-17.15c-17.86-23.76-32.41-49.46-45.1-76.3
		c-8.41-17.77-15.96-35.83-21.37-54.74c-6.54-22.84-9.95-46.08-9.27-69.89c0.12-4.21,1.32-7.67,3.84-11.02
		c5.45-7.27,11.44-13.92,19.73-17.94C2122.46,1422.5,2125.74,1418.67,2130.51,1415.48z"/>
	<path class="st0" d="M2099.37,519.89c-0.37-6.9,1.97-13.5,2.67-20.27c0.19-1.88,1.86-2.6,2.94-3.82
		c5.96-6.72,11.8-13.54,17.76-20.26c3.78-4.27,8.54-7.38,13.1-10.74c12.05-8.89,24.17-17.62,34.87-28.25
		c11.17-11.1,17.71-23.96,18.03-39.8c0.01-0.58-0.38-1.18-0.82-2.48c-5.84,1.63-11.91,2.39-18.47,1.19
		c-0.42-8.67,4.28-16.34,2.96-25.32c-18.84-0.49-37.6-0.74-55.7,3.72c-2.25-3.43-0.34-5.27,0.65-7.2
		c6.63-12.99,16.73-23.14,27.18-32.97c4.36-4.1,8.63-8.35,13.34-12.02c19.74-15.38,42.16-23.98,67.2-24.74
		c11.28-0.34,22.82,0.81,33.54,4.06c19.48,5.9,31.11,19.69,34.6,39.95c0.48,2.81,0.48,5.71,0.73,8.78c-3.92-1.06-3.08-5.37-6.8-7.17
		c-0.77,12.08,4.69,24.04-0.53,36.35c-2.22-8.85-3.52-17.05-6.34-24.9c-2.95-8.2-5.67-16.51-13.85-21.17
		c-9.82-5.6-20.4-8.36-31.67-6.34c-14.58,2.62-26.8,9.69-36.54,20.91c-5.03,5.79-5.14,13.28-4.45,19.88
		c1.14,10.98,0.25,21.96,1.4,32.87c0.87,8.27-1.22,15.7-5.27,22.91c-11.34,20.22-27.25,36.02-46.48,48.59
		c-5.65,3.69-10.67,7.82-14.76,13.2c-8.06,10.6-16.26,21.09-24.44,31.59C2103.08,517.9,2102.49,520.18,2099.37,519.89z"/>
	<path class="st0" d="M3513.34,2021.47c0.96-3.74-0.08-7.22-1.26-10.72c-6.95-20.68-16.6-39.84-30.83-56.61
		c-6.73-7.93-14.41-14.66-23.2-20.72c3.71-3.16,8.13-2.98,12.08-3.76c11.36-2.24,22.45-5.98,34.31-5.55
		c22.6,0.83,40.14,10.81,52.99,29.04c9.02,12.79,12.69,27.74,15.3,42.88c0.88,5.13,2.78,10.27,1.47,16.54
		c-4.83-4.54-9.28-8.73-13.89-13.07c-3.79,8.34-5.53,17.03-7.04,25.76c-2.19,12.62-6.11,24.49-13.93,34.86
		c-2,2.65-3.34,5.67-4.13,8.99c-1.22,5.08-1.37,5.04-8.2,8.63c-5.45-15.68-9.23-31.74-10.97-48.26c-0.31-2.98-0.66-5.98-2.88-8.32
		L3513.34,2021.47z"/>
	<path class="st0" d="M3184.95,2035.78c-1.68-3.76-5.4-5.61-8.01-8.5c-3.1-3.45-6.89-6.37-7.78-11.32
		c-0.25-1.37-1.06-2.37-2.25-3.13c-7.48-4.79-9.39-12.65-10.52-20.53c-3.56-24.9,3.31-46.95,20.03-65.53
		c12.7-14.12,29.24-16.35,45.33-8.23c6.92,3.49,12.91,8.22,17.9,14.15c11,13.1,19.7,27.57,25.72,43.61
		c1.03,2.76,2.51,5.42,1.95,9.16c-3.52-1.9-6.87-3.73-10.23-5.53c-10.26-5.48-21.21-7.53-32.77-6.67
		c-8.65,0.65-12.58,3.61-15.4,11.74c-1.77,5.1-2.23,10.44-2.16,15.73c0.08,6.03-0.66,11.94-1.57,17.84
		c-1.71,11.09-6.17,15.32-17.52,16.78c-0.99,0.13-1.99,0.19-2.98,0.28L3184.95,2035.78z"/>
	<path class="st0" d="M2167.25,2033.48c-1.85-3.69-0.26-6.85,0.54-9.99c6.02-23.52,18.47-43.34,35.81-60.02
		c11.28-10.86,23.93-20.09,37.67-27.7c8.18-4.53,16.61-8.4,25.99-9.69c7.92-1.09,13.18,1.53,15.95,8.57
		c4.88,12.41,5.22,25.33,3.09,38.31c-0.52,3.14-2.16,6.24-5.97,7.47c-0.56-1.81-1.11-3.57-1.66-5.33
		c-0.8,16.65-11.06,28.13-21.17,39.57c-5.05,5.72-10.5,11.15-17.36,14.86c-4.71,2.54-5.1,2.69-11.12,2.31
		c-1.62-1.61-1.14-3.71-1.19-5.64c-0.1-3.66,0.1-7.33-0.09-10.98c-0.69-13.32-8.7-17.29-20.45-11.79
		c-6.07,2.84-11.14,7.22-16.07,11.7c-4.68,4.24-9.16,8.71-13.97,12.8C2174.34,2030.38,2171.64,2033.64,2167.25,2033.48z"/>
	<path class="st0" d="M3155.94,2059.33c-2.88,0.02-1.56-3.78-4.59-3.68c-2.63,3.31-2.8,8.53-7.48,10.95
		c-8.69,4.5-17.54,7.72-27.23,6.9c-2.86-3.21-3.77-6.77-4.91-10.22c-3.16-9.57-7.27-18.5-14.82-25.61
		c-7.75-7.29-12.87-15.93-12-27.14c0.01-0.15-0.46-0.35-0.73-0.54c-4.31-0.3-1.53,4.47-4.49,5.8c0-3.19,0.11-6.13-0.03-9.06
		c-0.16-3.56,0.97-6.61,3.5-9c20.11-19.05,40.87-37.16,67.62-46.58c1.61-0.57,3.16-0.96,5.24-0.4c1.69,3.2-0.5,6.32-1.3,9.23
		c-2.97,10.85-2.56,21.82-1.41,32.71c1.31,12.41,8.38,22.42,16.39,31.33c4.65,5.18,5.66,9.94,3.98,16.26
		c-1.56,5.86-3.89,11.2-8.44,17.15c-0.73-3.32-1.24-5.62-1.65-7.49c-0.8-0.93-1.43-0.88-1.78-0.04
		C3160.32,2053.47,3159.97,2057.77,3155.94,2059.33z"/>
	<path class="st0" d="M2074.9,1727.66c-14.25-7.89-23.48-18.69-31.85-30.35c-17-23.67-26.42-50.57-33-78.6
		c-4.57-19.49-7.19-39.24-6.22-59.33c0.22-4.65,0.23-9.36,1.08-13.91c0.98-5.27,1.31-10.53,1.28-16.29
		c5.4-5.81,10.89-11.91,16.08-18.89c0.34,4.15,0.8,8.29,0.99,12.45c1.32,29.65,9.27,57.63,21.24,84.6
		c9.05,20.41,19.03,40.31,31.91,58.62c2.36,3.35,4.19,6.59,3.01,11.03c-3.77,14.27-4.37,28.86-4.01,43.53
		C2075.45,1722.46,2075.14,1724.39,2074.9,1727.66z"/>
	<path class="st0" d="M2436.88,298.57c-7.13-4.2-13.69-4.28-19.24-7.08c-0.44-1.08,0.15-1.91,0.9-2.39
		c10.16-6.48,19.05-14.43,27.47-23c4.95-5.04,6.07-5.24,12.16-2.07c8.89,4.62,17.19,10.14,23.49,18.14
		c7.13,9.06,7.6,18.01,1.31,27.61c-4.03,6.16-9.05,11.49-14.93,15.96c-10.11,7.68-20.83,14.28-33.02,18.2
		c-1.86,0.6-3.9,0.93-5.27,2.6c0.01,2.66,2.61,2.56,3.99,3.7c5.08,4.18,5.65,7.28,2.61,12.91c-5.19,9.61-21.64,13.65-29.67,7.74
		c-7.75-5.71-16.06-10.66-23.98-16.16c-7.37-5.12-14.58-10.47-21.8-15.8c-1.79-1.32-4.24-2.13-4.57-5.81
		c6.56-0.76,12.76,2.34,19.15,1.89c6.44-0.45,12.98-0.11,19.85-1.54c-1.8-5.05-6.91-3.81-9.35-7.65
		c13.43-4.42,23.85-13.71,35.68-20.69C2425.89,302.64,2430.72,301.19,2436.88,298.57z"/>
	<path class="st0" d="M1885.39,574.09c11.31,6.72,18.72,18.75,30.94,24.04c1.99-0.99,2.46-2.64,3.14-4.13
		c6.75-14.78,19.06-21.53,35.24-19.79c9.3,1,18.22,3.77,27.39,5.3c5.53,0.92,11,1.73,16.75,0.86c-0.72-2.9-2.62-2.26-4.02-2.36
		c-9.67-0.67-18.98-3.28-28.46-5.03c-5.87-1.09-11.86-3.06-17.65-2.65c-12.95,0.92-23.33,7.15-30.54,18.25
		c-1.05,1.61-0.88,4.04-3.06,4.81c-1.97,0.22-3.24-1-4.44-2.04c-7.23-6.29-14.38-12.67-21.65-19.1c1.63-2.73,4.1-2.77,6.11-3.5
		c11.27-4.1,22.25-8.86,32.89-14.39c3.88-2.02,7.79-3.89,12.32-3.32c14.48,1.82,29.17,2.02,43.43,5.58
		c8.54,2.13,16.13,6.05,23.01,11.52c2.96,2.36,5.2,5.07,6.22,8.59c-1.36,3.72-5.64,1.6-7.64,4.04c0.41,0.45,0.75,1.16,1.13,1.19
		c2.94,0.23,5.88,0.32,9.27,0.48c3.67,9.62,5.78,19.46,6.48,30.69c-13.07-2.84-25.32-5.37-37.68-7.26
		c-12.17-1.86-23.37-6.95-33.78-12c-3.49,1.59-3.78,3.94-3.74,6.29c0.04,3.05,0.93,5.86,2.87,8.34
		c5.26,6.73,12.17,10.22,20.66,10.45c5.62,0.15,11.25,0.03,16.59,0.03c4.48,4.15,4.84,8.82,3.74,13.73
		c-2.49,1.81-4.77,0.98-6.94,0.36c-28.67-8.15-55.61-20.22-80.83-36.08c-7.06-4.44-13.62-9.62-17.72-17.2
		C1884.49,578.06,1883.19,576.34,1885.39,574.09z"/>
	<path class="st0" d="M3449.22,1259.29c-21.86-9.02-42.08-17.36-62.36-25.73c1.06-1.6,3.57-0.24,4.16-3.19
		c-15.46-20.67-37.62-30.95-63.3-37.03c5.5-3.54,10.67-2.64,15.47-2.95c13.92-0.92,27.86-1.89,41.8-1.91
		c29.01-0.03,57.79,2.36,85.68,11.14c7.31,2.3,14.42,5.17,20.89,9.35c3.33,2.15,6.79,4.26,8.45,8.03c-0.67,2.96-3.18,3.42-5.25,4.28
		c-10.49,4.32-20.4,9.72-29.96,15.8C3457.06,1241.99,3449.56,1247.01,3449.22,1259.29z"/>
	<path class="st0" d="M2846.24,947.55c7.76-2.18,15.27,3.86,22.72-0.26c-1.09-8.32-7.94-13.15-11.16-20.33
		c3.8-4.53,9.45-1.87,13.83-3.7c2.53-1.06,5.19,0.5,7.45,2.01c7.47,4.98,14.94,9.96,22.38,14.98c12.96,8.73,25.92,17.46,38.83,26.27
		c2.12,1.45,4.71,2.43,6.27,5.5c-16.87,13.47-29.43,30.16-34.57,51.01c-2.94,1.36-4.55-0.03-6.3-0.9
		c-8.05-3.99-16.26-7.73-24.98-9.91c-4.01-1-6.42-3.12-8.23-6.46c-3.16-5.84-6.56-11.57-9.43-17.56
		C2856.76,975.05,2851.01,961.66,2846.24,947.55z"/>
	<path class="st0" d="M2060.5,105.7c3.46,2.27,3.24,5.66,3.78,8.41c4.48,22.96,14.44,43.56,27.72,62.48
		c4.32,6.15,4.38,11.01,1.34,17.29c-5.57,11.48-12.88,21.8-20.87,31.58c-9.67,11.83-19.37,23.6-27.4,37.29
		c-3.39-3.08-3.93-6.79-4.78-10.11c-5.74-22.43-7.1-45.13-4.83-68.23c2.2-22.42,7.92-43.8,16.81-64.38
		C2054.44,115,2056.41,109.67,2060.5,105.7z"/>
	<path class="st0" d="M2069.52,392.97c-2.43-5.52-5.28-10.74-7.07-16.3c-5.12-15.86-8.34-32.07-8-48.88
		c0.2-9.9,3.4-18.45,11.45-24.33c15.36-11.23,31.73-20.61,50.62-24.71c0.91-0.2,1.92,0.07,3.71,0.17
		c-2.28,10.92-12.25,17.92-14.26,29.26c12.31-10.55,25.9-14.93,40.82-14.97c1.51,3.19-0.22,4.61-1.25,6.21
		c-8.87,13.67-18.15,27.04-29.91,38.45c-6.19,6.01-12.44,11.97-18.81,17.79c-9.45,8.65-16.36,19.14-22.46,30.25
		C2073.11,388.19,2072.57,390.92,2069.52,392.97z"/>
	<path class="st0" d="M3184.68,2035.63c4.19,3.98,8.95,2.88,12.94,0.39c8.65-5.4,15.65-2.59,22.81,2.92
		c6.26,4.82,10.68,10.92,14.01,17.89c1.89,3.96,2.5,8,1.28,12.57c-1.37,5.12-2.75,10.27-3.94,15.43
		c-1.9,8.26-7.15,12.05-14.98,13.98c-12.46,3.08-24.98,3.7-37.66,2.42c-18.08-1.83-35.25-6.61-51.07-15.78
		c-2.89-1.67-5.86-3.19-7.5-6.29c0.27-0.58,0.46-1.55,0.78-1.59c12.79-1.8,23.8-7.97,34.9-13.97c1.46-0.79,3.25-2.38,4.42-2.03
		c6.38,1.93,8.26-3.01,10.63-6.76c1.93-3.06,3.69-6.47,4.44-9.96c1.15-5.33,4.27-7.96,9.23-9.06L3184.68,2035.63z"/>
	<path class="st0" d="M3381.03,1535.11c11.78-2.78,14.71-5.93,16.56-17.73c0.15-0.95,0.59-1.86,1.01-3.12
		c4.14-0.63,5.8,2.84,7.73,5.09c10.14,11.87,20.28,23.75,29.96,35.98c17.12,21.63,35.12,42.5,53.89,62.71
		c10.4,11.2,20.91,22.29,31.36,33.44c0.85,0.91,2.03,1.68,1.36,4.09c-19.53-13.4-38.71-26.83-59.54-38.84
		c2.21-4.13,9.11-4.27,7.93-11.1c-7.62,8.79-15.38,6.68-23.47,2.2c-18.33-10.14-37.12-19.35-56.47-27.38
		c-5.44-2.26-11.33-3.54-16.73-6.99c11.9-11.53,12.12-24.61,6.35-38.59L3381.03,1535.11z"/>
	<path class="st0" d="M3384.88,1271.13c-3.3,4.18-7.21,5.36-10.71,7.15c-16.25,8.3-32.72,16.22-47.8,26.63
		c-7.37,5.09-15.9,5.43-23.99,3.99c-12.17-2.16-23.59-6.78-32.63-15.85c-9.06-9.08-8.55-18.09,1.63-26.1
		c7.13-5.61,15.34-9.21,23.77-12.33c30.58-11.35,58.69-5.27,85.12,12.23C3381.88,1267.92,3383.16,1269.51,3384.88,1271.13z"/>
	<path class="st0" d="M3016.03,1084.23c8.79-4.57,16.38-5.72,23.78-7.15c22.2-4.29,44.58-7.16,67.25-6.76
		c14.59,0.26,29.29-1.34,43.72,2.07c4.84,1.14,9.62,2.55,14.38,3.97c3.19,0.95,6.23,2.29,9.35,4.72c-1.41,4.09-4.42,7.01-7.32,10.04
		c-5.04,5.29-9.84,10.82-15.07,15.92c-4.48,4.38-7.43,9.28-7.06,16.78c-21.94-6.96-42.95-13.78-64.07-20.26
		C3060.1,1097.14,3039.1,1091.07,3016.03,1084.23z"/>
	<path class="st0" d="M2730.79,488.67c-1.24,3.34-4.65,3.5-7.22,4.56c-16.88,6.98-33.85,13.76-50.81,20.55
		c-3.46,1.38-6.69,2.98-8.72,6.29c-2.54,4.14-6.24,4.42-10.45,3.27c-5.12-1.41-10.37-2.47-15.38-4.19
		c-14.16-4.88-28.73-7.82-45.78-9.57c16.07-7.53,29.35-15.41,37.98-31.43c-14.59,5.06-27.56,4.13-40.71-1.53
		C2613.72,462.97,2709.34,471.38,2730.79,488.67z"/>
	<path class="st0" d="M2317.79,2091.73c-19.23,6.68-38.72,8.82-58.44,2.23c-11.2-3.74-19.87-10.93-24.31-22.12
		c-4.25-10.72-9.37-21.41-6.48-34.05c8.15-2.57,15.66-6.61,22.61-11.83c3.78-2.84,8.53-3.6,13.28-2.92
		c2.95,0.42,5.93,0.98,8.75,1.92c7.93,2.64,13.81,7.24,16.55,15.76c2.63,8.19,4.97,16.51,8.92,24.28
		c4.41,8.69,9.49,16.77,16.99,23.14c0.73,0.62,1.33,1.43,1.92,2.2C2317.75,2090.55,2317.68,2090.94,2317.79,2091.73z"/>
	<path class="st0" d="M3511.35,2143.5c-1.76-3.86-3.57-7.69-5.27-11.58c-6.03-13.79-13.44-26.74-23.57-37.95
		c-8.83-9.77-9.38-21.46-8.11-33.58c0.12-1.14,1.29-2.11,0.81-3.61c-3.32-10.22-1.51-20.41,0.73-30.45
		c2.08-9.32,4.13-18.71,7.91-27.45c3.14,0.14,4.29,2.24,5.64,4.09c15.89,21.78,26.77,45.88,32.64,72.13
		c1.79,8.02,2.5,16.3,1.17,24.63C3520.94,2114.47,3517.77,2129,3511.35,2143.5z"/>
	<path class="st0" d="M1904.31,2034.4c4.09,17.51,4.27,26.03,0.9,36.84c1.92,0.62,3.49,1.24,3.6,3.87
		c0.43,9.83-1.31,19.23-5.32,28.14c-5.06,11.24-10.94,22.01-19.1,31.43c-9.81,11.33-18.51,23.49-25.53,36.6
		c-3.31-0.01-2.89-2.5-3.33-4.2c-4.99-19.21-6.48-38.61-2.33-58.15c5.53-26.09,19.99-46.8,39.48-64.37c1.94-1.75,4.4-2.79,5.59-5.48
		C1899.21,2036.97,1901.18,2035.57,1904.31,2034.4z"/>
	<path class="st0" d="M3197.22,1183.71c-9.62,8.8-17.95,17.86-28.02,24.99c-7.44,5.26-15.78,8.6-24.62,10.51
		c-5.56,1.2-11.2,1.03-16.81-0.5c-14.74-4.01-27.52-11.64-39.29-21.1c-5.61-4.51-6.77-6.51-9.66-13.53
		c1.01-4.14,4.37-5.59,7.94-6.66c22.06-6.67,44.43-11.35,67.67-10.48C3169.42,1167.51,3186.37,1173.98,3197.22,1183.71z"/>
	<path class="st0" d="M2002.12,305.88c2,13.56,1.58,27.31,5.41,40.42c3.7,12.67,10.77,23.95,16.38,36.74
		c-4.34-0.19-5.61-2.85-7.67-4.2c-2.64-1.72-4.3-0.52-5.97,1.98c-9.03-3.68-16.54-9.72-23.77-16.04
		c-15.31-13.39-30.02-27.4-40.11-45.37c-8.85-15.78-13.83-32.87-16.71-51.32c4.43,0.5,6.37,3.5,8.75,5.42
		C1961.13,291.9,1974.3,298.76,2002.12,305.88z"/>
	<path class="st0" d="M3408.57,2167c-3.18-0.83-4.59-3.73-6.5-5.91c-5.03-5.75-10.13-11.38-15.69-16.66
		c-8.73-8.3-15.81-18.25-21.26-28.78c-5.66-10.92-6.11-23.3-4.01-35.24c3.73-0.92,3.56,3.56,6.34,2.95
		c0.09-0.38,0.33-0.82,0.21-0.97c-6.43-7.69-6.11-16.35-3.8-25.36c1.94-7.6,1.64-15.7,4.81-23.18c8.8,6.64,25.97,31.59,33.79,48.98
		c10.72,23.81,10.3,49.15,10.04,74.44C3412.46,2161.27,3411.8,2162.21,3408.57,2167z"/>
	<path class="st0" d="M1943.61,2192.3c-3.6-10.62-4.98-21-5.79-31.52c-2.11-27.21,7.93-50.12,24.99-70.46
		c5.33-6.35,11.28-12.19,16.98-18.23c2.94-3.12,6.3-5.66,10.58-8.13c4.33,13.99,9.78,27.06-0.84,39.8c1.54,0.95,2.13-0.02,2.89-0.49
		c0.82-0.51,1.68-0.96,3.41-1.95c-0.32,11.76-0.11,22.8-4.27,33.46c-2.02,5.17-5.55,9.13-9.62,12.52
		c-14.47,12.03-26.71,25.87-35.71,42.47C1945.82,2190.53,1944.93,2191.05,1943.61,2192.3z"/>
	<path class="st0" d="M3657.25,1413.52c-13.34-15.31-25.9-30.29-39.91-43.96c-13.78-13.45-28.37-25.96-42.97-38.12
		c0.89-2.14,2.25-2.51,3.56-2.4c29.84,2.43,58.33,9.83,84.71,24.22c11.12,6.06,21.5,13.32,29.4,23.57c2.04,2.65,3.83,5.33,5.13,9.4
		C3680.94,1390.22,3668.47,1399.59,3657.25,1413.52z"/>
	<path class="st0" d="M2051.82,1276.48c-0.43-0.5-1.2-0.99-1.15-1.39c1.43-13.52,2.51-27.08,4.91-40.5
		c0.83-4.64,3.72-7.64,6.34-11.22c-1.33-2.18-4.04,0.66-5.61-1.71c-1.46-2.21-3.27-4.16-3.97-6.8c-0.62-2.31-0.77-4.67,0.28-6.85
		c7.49-15.38,15.71-30.16,31.78-38.5c2.62-1.36,5-3.22,7.41-4.96c0.35-0.25,0.27-1.1,0.53-2.31c-6.67,0.53-11.44,5.45-17.5,6.73
		c-1.61-1.07-0.81-2.37-0.04-3.29c12.99-15.58,26.03-31.11,39.07-46.64c0.6-0.72,1.27-1.43,3.07-0.79
		c-1.91,5.18-3.65,10.45-5.79,15.56c-1.61,3.85-2.32,7.65-0.91,11.63c4.65,13.13,1.73,25.55-3.46,37.77
		c-0.38,0.89-0.55,1.87-0.95,3.29c7.5,6.01,16.56,9.49,24.51,14.77c7.69,5.11,15.73,9.73,22.49,16.42
		c-18.76-3.69-36.06-12.19-54.21-15.94c-3.09,0.6-4.24,2.71-5.74,4.48c-3.89,4.58-8.05,9-13.19,12.11
		c-5.17,3.12-7.91,7.66-10.25,12.98c-5.64,12.81-9.93,26.1-14.56,39.27C2054.16,1272.68,2054.07,1275.16,2051.82,1276.48z"/>
	<path class="st0" d="M2225.5,207.19c-13.57-4.81-25.71-3.35-38.48-1.71c4.25-8.47,13.63-13.11,14.66-23.94
		c-7.4,2.12-11.51,8.93-18.6,9.69c-1.97-2.35,0.27-3.91,1.31-5.07c4.23-4.68,8.45-9.47,13.28-13.48
		c17.98-14.9,37.28-27.76,59.08-36.53c1.84-0.74,3.74-1.35,5.65-1.87c0.89-0.25,1.88-0.16,2.84-0.22c1.53,4.08-1.02,7.16-2.29,10.37
		c-3.41,8.64-7.41,17.06-10.74,25.74c-5.03,13.12-7.85,26.71-7.49,40.87c0.07,2.62,0.39,5.35-1.6,8.29
		c-10.59,2.24-21.11-1.86-33.24-2.11C2214,211.74,2220.48,212.16,2225.5,207.19z"/>
	<path class="st0" d="M3550.14,2048.86c1.68,0.64,2.6,0.98,3.63,1.38c0.53,0.01,0.95-0.47,0.6-1.22c-1.77-3.82-1.64-7.53-0.53-11.6
		c1.75-6.39,2.76-12.98,4.23-19.45c0.79-3.49,1.04-7.22,3.26-10.07c2.73-0.87,3.85,1.14,5.1,2.43c8.47,8.73,14.74,18.54,17.33,30.79
		c3.97,18.8,4.38,37.56,1.04,56.4c-1.74,9.82-4.95,16.04-11.19,22.65c-6.19-8.83-8.84-19.43-15.36-27.78
		c-6.31-8.09-12.39-16.36-18.93-25.03C3542.81,2061.4,3546.3,2055.43,3550.14,2048.86z"/>
	<path class="st0" d="M3529.03,1365.74c-2.77,4.35-5.64,4.63-8.08,5.4c-15.47,4.85-28.87,13.56-41.59,23.17
		c-4.63,3.5-8.75,4.61-13.68,2.72c-13.53-5.18-23.8-14.47-31.29-26.68c-3.61-5.88-2.01-10.45,4.15-14.24
		c7.22-4.45,15.48-5.95,23.63-7.48c23.26-4.38,43.86,2.76,63.21,15.03C3526.52,1364.37,3527.72,1364.99,3529.03,1365.74z"/>
	<path class="st0" d="M2799.09,1106.76c-5.58-5.02-10.01-10.77-13.07-17.43c-2.09-4.55-5.01-8.52-7.97-12.55
		c-4.28-5.82-8.92-10.12-16.35-11.93c-6.63-1.61-11-7.14-13.74-12.9c-6.74-1.23-12.73,0.96-19.54-0.63
		c5.43-4.8,12.45-4.44,18.7-8.28c2.62-5.76,5.79-12.36,12.35-17.26c-4.24-11.39-8.61-22.41-12.45-33.62
		c-3.86-11.29-7.19-22.75-11.33-35.98c4.43,3.13,5.31,6.6,6.71,9.51c7.21,14.97,13.18,30.46,18.88,46.06
		c1.24,3.41,2.14,7,5.09,10.13c7.66-0.65,14.66,1.53,20.44,7.35c2.72,2.73,6.33,1.68,9.49,0.9c6.52-1.61,13.04-2.41,21.14-1.21
		c-9.46,1.96-16.54,6.04-23.64,9.8c-0.16,1.42-0.56,2.46-0.32,3.33c2.1,7.54,1.53,14.44-4.27,20.33c-1.8,1.83-1.59,4.07-1.26,6.51
		c1.31,9.58,3.1,18.98,7.27,27.81C2796.73,1099.95,2797.81,1103.41,2799.09,1106.76z"/>
	<path class="st0" d="M2081.26,607.96c12.34-11.71,23.48-23.55,38.8-30.1c4.86-2.08,9.69-4.34,16.12-2.87
		c3.5,9.99,5.31,20.82,9.38,30.92c4.07,10.1,9.57,19.43,15.84,28.73C2142.43,637.93,2099.49,623.64,2081.26,607.96z"/>
	<path class="st0" d="M2863.83,945.14c-6.69-0.71-12.89-1.35-19.08-2.03c-9.56-1.05-19.1-2.61-28.68-3.04
		c-8.65-0.39-16.28-2.86-23.24-7.78c-4.34-3.07-8.68-6.15-12.82-9.47c-2.04-1.64-3.82-3.7-5.38-5.82c-6.4-8.64-4.35-13.8,6.34-15.97
		c8.34-1.69,16.6-0.44,24.71,1.46c22.41,5.25,41.39,16.01,55.09,35.04C2862.12,939.42,2863.63,941.19,2863.83,945.14z"/>
	<path class="st0" d="M2982.54,1222.81c6.07,4.62,12.07,9.33,18.22,13.84c6.93,5.08,13.65,10.34,22.43,12.45
		c4.69,1.13,8.88,4.35,13.5,6.74c7.61-4.65,12.67-12.09,20.32-17.07c-3.64,8.03-7.28,16.06-10.92,24.09
		c-0.02,2.22,1.53,3.61,2.79,5.11c4.17,4.97,7.38,10.25,6.49,17.15c-0.36,2.82,0.94,5.2,2.59,7.33c4.04,5.25,8.2,10.42,12.23,15.68
		c2.09,2.73,5,4.99,6.28,9.83c-4.93-2.11-6.98-5.62-9.87-8.07c-2.78-2.37-5.76-4.57-8.17-7.28c-4.41-4.95-9.16-8.15-16.33-7.6
		c-4.61,0.35-9.31-1.55-13.09-4.26c-4.1-2.94-7.89-2.37-12.16-0.95c-8.41,2.79-16.89,5.33-26.81,8.42
		c6.27-9.63,15.14-14.19,21.66-21.59c-2.79-6.75-6.05-13.33-5.65-20.89c0.13-2.43-1.95-4.08-3.44-5.88
		c-7.13-8.63-14.2-17.31-21.29-25.97C2981.72,1223.53,2982.13,1223.17,2982.54,1222.81z"/>
	<path class="st0" d="M2927.2,1043.41c-3.34,2.4-6.41,2.36-9.32,2.42c-12.61,0.26-25.13,1.51-37.61,3.19
		c-2.75,0.37-5.26-0.26-7.77-1.24c-9.7-3.81-18.33-9.39-26.03-16.32c-2.17-1.95-3.87-4.59-5.29-7.19
		c-2.79-5.11-1.35-9.13,4.22-11.01c3.71-1.25,7.64-2.41,11.67-1.97c21.47,2.36,41.42,9.02,59.35,21.27
		C2920.52,1035.35,2924.45,1038.35,2927.2,1043.41z"/>
	<path class="st0" d="M3087.55,804.08c9.74,0.13,19.25,1.49,28.41,4.7c7.12,2.5,8.33,6.79,4.08,13.05c-1.9,2.8-4.37,5.17-7.36,6.6
		c-17.41,8.33-34.94,10.1-52.34,0.02c-3.42-1.98-6.72-4.3-8.98-7.75c-2.14-3.25-2.08-5.59,1-7.7c2.71-1.85,5.73-3.4,8.82-4.5
		c4.05-1.43,8.26-2.61,12.49-3.3C3078.24,804.47,3082.92,804.43,3087.55,804.08z"/>
	<path class="st0" d="M3416.25,1311.66c-1.67-5.57-5.6-7.96-8.45-11.07c-2.34-2.55-4.52-4.95-4.65-8.43
		c-0.13-3.82-2.21-6.04-5.17-7.89c-3.91-2.45-6.97-5.83-10.25-8.48c1.41-3.31,3.11-3.55,5.24-2.5c3.87,1.91,7.78,3.76,11.61,5.77
		c2.96,1.56,5.69,2.87,9.38,2.07c6.75-1.47,12.96,1.81,19.27,3.5c6.51-4.32,8.31-11.95,13.82-18.03c-0.05,8.6-3.42,15.25-5.03,21.98
		c1.01,2.98,3.33,4.51,5.03,6.51c2.23,2.63,3.9,5.51,3.56,9.03c-0.55,5.74,2.34,9.37,6.82,12.31c2.75,1.8,5.32,3.88,8.86,6.49
		c-4.51,1.08-6.88-1.45-9.55-2.62c-4.78-2.09-8.96-4.43-15.01-2.96c-6.32,1.53-12.98-1.62-20.35-2.99
		c-7.43,7.1-14.37,15.94-25.93,18.96c1.09-3.44,4.04-4.8,6.25-6.77c2.72-2.42,5.8-4.46,8.35-7.04
		C3412.36,1317.17,3414.16,1314.35,3416.25,1311.66z"/>
	<path class="st0" d="M3416.31,2121.08c7.52-4.45,15.83-5.77,23.25-9.26c7.27-3.41,14.06-7.45,18.78-13.63
		c2.8,0.58,0.64,3.61,4.01,3.89c4.68-2.72,6.74-8.64,11.09-13.56c10.7,9.67,17.82,21.65,24.17,33.96c-2.53,3.83-6.09,4.36-9.2,4.58
		c-7.56,0.55-15.05,1.48-22.75,1.07c-11.3-0.6-22.58-1.17-33.79-2.71c-4.27-0.59-8.52-1.44-12.74-2.34
		C3418.28,2122.91,3417.57,2122.01,3416.31,2121.08z"/>
	<path class="st0" d="M1982.09,2152.59c3.74-4.4,7.64-8.09,10.4-12.5c2.57-4.1,3.92-8.95,5.8-13.47c5.31-0.23,8.44,2.56,11.39,5.82
		c3.78,4.18,7.35,8.63,11.57,12.32c11.26,9.83,23.69,16.81,39.54,14.85c2.63-0.33,5.45,0.85,9.75,1.6
		C2038.34,2175.41,2009.77,2171.42,1982.09,2152.59z"/>
	<path class="st0" d="M2123.22,651.77c-8.36,1.86-17.83,0.79-38-3.66c-9.2-2.03-17.66-5.45-24.96-11.3
		c2.67-11.78,6.19-16.84,17.54-25.03c5.44,3.15,11.16,6.4,16.81,9.76c5.67,3.36,12.96,4.37,17.16,9.58
		c3.9,4.83,6.27,10.89,9.3,16.42C2121.7,648.7,2122.26,649.89,2123.22,651.77z"/>
	<path class="st0" d="M2749.72,612.61c16.92-1.14,31.91,2.71,45.3,11.97c-0.33,2.27-1.38,3.04-2.63,3.58
		c-7.62,3.22-15.85,5.1-22.52,10.44c-0.94,0.75-2.52,0.78-3.82,1.01c-10.2,1.86-20.08,4.66-29.34,9.44
		c-0.46,0.24-1.21-0.07-2.58-0.19c0.95-6.75,5.8-11.7,7.92-17.77C2744.22,624.85,2747.09,618.86,2749.72,612.61z"/>
	<path class="st0" d="M1938.1,2124.54c0.2,5.37-2.25,10.24-3.19,15.34c-11.38,2.39-30.24-3.52-39.75-12.64
		c4.6-9.61,10.4-18.85,14.43-29.88C1918.23,2107.92,1927.97,2116.35,1938.1,2124.54z"/>
	<path class="st0" d="M3693.44,1461.77c17.11,0.67,44.16,15.23,52.01,27.79c-5.35,8.1-16.65,9.69-21.39,19.56
		c-6.75-7.35-10.4-15.94-15.44-23.58C3703.54,1477.83,3698.67,1469.98,3693.44,1461.77z"/>
	<path class="st0" d="M3212.78,1986.78c7.17,5.38,12.86,10.37,14.07,19.16c0.48,3.47,2.68,6.72,4.24,10.01
		c4.26,8.95,7.98,21.96,5.33,35.66c-7.74-10.32-15.99-19.21-28.38-22.33C3207.82,2018.62,3210.45,1993.76,3212.78,1986.78z"/>
	<path class="st0" d="M2406.11,563.82c-3.43-1.38-7.84,0.85-11.3-2.32c0.76-0.95,1.24-2.21,1.98-2.39
		c8.67-2.04,11.11-9.43,14.37-16.23c1.08-2.25,0.91-4.45,0.95-6.77c0.1-5.62,0.41-11.23,0.67-16.84c0.01-0.12,0.51-0.22,1.33-0.56
		c4.02,9.95,1.67,22.12,11.4,31.17c5.37,2.42,13.26-0.23,20.52,4.21c-4.34,3.24-9.3,4.04-13.82,4.83
		c-7.84,1.38-9.49,4.15-9.39,12.53c0.1,7.9,1.14,15.8,0.18,23.72c-3.04-0.13-2.97-2.5-3.58-4.24c-0.76-2.18-1.49-4.39-2.01-6.64
		C2415.67,576.78,2413.06,569.72,2406.11,563.82z"/>
	<path class="st0" d="M2268.86,1182.28c-3.02,14.22-12.13,24.75-21.1,36.08c3.29,14.59,13.91,24.89,23.94,37.13
		c-8.85-1.03-14.43-5.61-19.96-10c-5.49-4.37-8.57-10.83-13.19-17.27c-7.95,8.05-18.55,9.81-27.94,14.44
		c4.31-8.55,12.64-13.11,18.69-19.83c6.43-7.15,13.58-13.64,20.32-20.51C2256.1,1195.7,2262.45,1188.96,2268.86,1182.28z"/>
	<path class="st0" d="M3527.64,2086.28c7.11-1.1,7.64-7.62,10.94-12.95c9,9.78,17.32,19.38,22.78,31.7
		c-11.14,6.62-22.44,8.28-34.82,5.58C3524.64,2102.24,3528.94,2094.67,3527.64,2086.28z"/>
	<path class="st0" d="M1871,2062.3c-3.49,5.68-6.92,10.96-10.03,16.42c-6.62,11.65-11.2,23.99-12.16,37.5
		c-0.65,9.14-2.91,17.53-11.26,23.1c-2.23-0.36-1.72-2.35-1.66-3.78c1.04-24.97,6.49-48.55,22.06-68.89
		c2.24-2.92,4.51-5.81,7.69-7.67C1868.47,2057.34,1869.87,2059.2,1871,2062.3z"/>
	<path class="st0" d="M3361.3,2116.93c3.83,5.45,7.79,11.08,12.11,17.23c-3.83,2.41-7.54,1.83-10.9,1.47
		c-9.22-0.99-18.39-2.39-27.57-3.75c-12.16-1.8-24.04-4.93-35.85-8.25c-1.87-0.53-3.65-1.34-7.76-2.89c5.04,0,7.75-0.2,10.43,0.04
		c8.92,0.77,17.81,0.29,26.71-0.23c1.32-0.08,2.94-0.68,3.93-0.14C3342.47,2125.97,3350.82,2119.01,3361.3,2116.93z"/>
	<path class="st0" d="M2623.13,623.61c0.14-3.97,2.31-5.7,3.84-7.77c2.23-3,4.03-6.01,2.59-10.04c-0.82-2.28-0.04-4.68,0.83-6.79
		c3.37-8.22,2.56-16.17-1.01-24.06c-0.67-1.48-1.58-2.93-0.93-5.68c2.7,4.13,4.86,7.87,7.46,11.27c2.85,3.72,6.5,6.29,11.08,8
		c4.35,1.62,8.82,2.28,13.38,2.95c-0.38,3.99-1.25,7.53-0.59,11.32c-5.93,4.63-11.65,9.07-19,10.56c-2.76,0.56-4.71,2.26-6.88,3.76
		C2630.66,619.37,2627.76,622.18,2623.13,623.61z"/>
	<path class="st0" d="M2673.83,1412.58c8.22,0.48,14.19-3.2,18.79-10.5c7.38,8.19,15.09,15.29,24.8,22.73
		c-17.99,2.41-34.55,2.98-52.19,4.53C2667.24,1422.48,2672.33,1418.62,2673.83,1412.58z"/>
	<path class="st0" d="M2898.42,765.59c2.68-12.35,11.41-22.66,11.32-36.15c-5.18-3.42-11.34-4.56-15.81-9.01
		c6.94-1.38,44.33,4.18,55.2,8.17c-5.68,2.75-11.4,3.73-17.25,3.28c-6.03-0.47-9.56,2.09-12.94,7.02
		C2912.59,748.14,2905.31,756.73,2898.42,765.59z"/>
	<path class="st0" d="M1908.96,2004.17c-13.69,15.88-24.23,33.72-32.48,51.98c-3.92,1.17-3.75-2.16-5.52-2.77
		c-3.09-1.15-4.93,3.49-8.14,1.82c-0.21-0.64-0.72-1.35-0.55-1.82C1869.15,2034.52,1890.83,2009.52,1908.96,2004.17z"/>
	<path class="st0" d="M3019.81,1089.98c-2.72,2.56-4.71-0.64-6.9,0.25c-1.83,0.74-3.83,1.04-5.74,1.58
		c-6.56,1.83-13.13,1.56-19.68,0.04c-10.6-2.44-20.86-5.85-30.87-10.1c0.47-3.76,2.48-6.99-2.65-10.53
		c9.79-0.05,16.21,3.62,23.04,5.46c7.37,1.99,14.69,4.2,21.9,6.68C3005.68,1085.71,3013.13,1086.11,3019.81,1089.98z"/>
	<path class="st0" d="M2217.75,362.11c0.14-3.7-0.01-6,0.96-8.23c2.36-5.39,7.99-7.81,13.09-5c7.23,3.99,11.13,10.49,11.32,18.67
		c0.19,8.25-8.06,13.06-15.44,9.13C2221.43,373.35,2217.46,368.29,2217.75,362.11z"/>
	<path class="st0" d="M2004.66,1351.17c1.49-19.89,7.7-38.23,16.92-58c2.09,10.88-1.75,19.3-1.6,28.43
		c7.16,5.07,16.67,5.72,25.88,12.22c-10.7-1.31-19.27-2.36-27.79-3.41c-3.86,3.01-4.14,7.68-6.17,11.38
		C2010.01,1345.24,2008.14,1348.67,2004.66,1351.17z"/>
	<path class="st0" d="M2908.71,1326.84c-4.54,5.34-11.35,4.57-16.09,7.89c-2.08,2.5-1.34,5.78-2.47,8.75
		c-3.59-0.84-7.5-0.93-10.48-2.63c-5.66-3.23-11.22-3.38-17.2-1.83c-0.35,0.09-0.92-0.66-1.9-1.41c3.53-2.06,7.59-2.72,10.78-5.75
		c1.11-3.6-0.88-8.56,4.11-11.77c4.27-0.27,9.1,0.43,12.92,4.17c2.37,2.32,5.17,2.67,8.24,2.6
		C2900.45,1326.78,2904.29,1326.84,2908.71,1326.84z"/>
	<path class="st0" d="M2172.68,561.45c2.95,7.63,7.52,13.41,8.87,20.62c-12.54,4.11-26.13,0.82-38.37-9.37
		C2152.31,567.51,2162.52,566.13,2172.68,561.45z"/>
	<path class="st0" d="M2185.92,479.95c-2.28,8.92-4.63,18.13-7.23,28.33c-7.21-11.12-8.86-22.69-9.69-34.51
		c3.82-2.08,6.02,0.83,8.54,1.87C2180.25,476.76,2183.35,477.21,2185.92,479.95z"/>
	<path class="st0" d="M2568.42,551.6c-5.18-0.22-7.94-3.48-10.17-7.3c-2.34-4.02-4.82-8.02-4.4-13c0.44-5.08,5.08-7.85,9.25-5.11
		c5,3.29,6.56,8.97,8.65,14.18c1.51,3.77,0.77,7.15-1.83,10.19C2569.71,550.79,2569.39,550.93,2568.42,551.6z"/>
	<path class="st0" d="M3592.72,1353.81c-11.75-1.69-22.54-4.36-33.92-6.45c0.87-4.93,2.65-8.94,5.83-12.2
		C3576.31,1337.39,3585.67,1343.48,3592.72,1353.81z"/>
	<path class="st0" d="M2185.37,1040.82c-0.05,7-7.5,16.17-14.09,17.37c-4.28,0.77-7.5-2.28-6.18-6.31
		c1.98-6.06,5.76-11.15,10.14-15.69c1.99-2.06,4.72-2.3,7.39-1.22C2185.3,1036.04,2185.28,1038.48,2185.37,1040.82z"/>
	<path class="st0" d="M2751.64,1160.46c4.37,0.54,7.61,2.87,9.7,7.09c2.5,5.03,2.52,10.26,1.37,15.52
		c-0.48,2.18-3.84,3.48-5.77,2.21c-4.89-3.22-7.39-8.29-9.59-13.49c-1.64-3.87-0.08-7.1,2.35-10.05
		C2750.08,1161.27,2750.77,1161.03,2751.64,1160.46z"/>
	<path class="st0" d="M2475.7,481.45c5.69-0.19,13.22,6.6,13.6,12.28c0.41,6.16-4.93,10.01-10.45,7.3
		c-5.11-2.51-7.87-6.95-8.57-12.53C2469.85,484.94,2472.65,481.55,2475.7,481.45z"/>
	<path class="st0" d="M2199.38,1384.65c-0.06,3-0.45,5.91-2.05,8.55c-2.06,3.4-5.76,3.7-8.08,0.65c-4.24-5.57-4.59-15.78-0.74-21.56
		c2.4-3.6,6.69-3.28,8.49,0.81C2198.61,1376.74,2199.44,1380.63,2199.38,1384.65z"/>
	<path class="st0" d="M2859.29,1099.26c-0.12,5.49-4.59,8.42-9.47,6.19c-4.76-2.17-9.13-12.07-7.54-17.08
		c0.94-2.96,4.08-4.58,7.13-3.67C2855.14,1086.41,2859.43,1092.73,2859.29,1099.26z"/>
	<path class="st0" d="M2972.1,769.82c-12.51,5.79-20.77,2.69-25.03-8.92c3-3.54,6.78-4.64,11.33-3.25
		C2964.58,759.54,2969.81,762.51,2972.1,769.82z"/>
	<path class="st0" d="M2082.76,1291.92c-0.18,4.76-1.31,8.55-3.8,11.82c-1.83,2.41-4.79,2.43-6.88,0.24
		c-4.57-4.77-3.51-15.6,1.93-19.62c2.2-1.63,5.63-1,6.82,1.55C2081.8,1287.99,2082.26,1290.3,2082.76,1291.92z"/>
	<path class="st0" d="M3003.85,730.91c4.66,0.24,8-0.39,10.97,1.68c2.5,1.75,2.73,5.12,0.08,6.49c-6.19,3.19-12.62,3.16-19.07,0.69
		c-1.68-0.64-2.58-2.07-2.66-3.81c-0.11-2.28,1.33-3.9,3.3-4.32C2999.33,731.03,3002.32,731.04,3003.85,730.91z"/>
	<path class="st0" d="M2264.13,372.96c-6.27-3.1-9.59-8.17-11.2-14.58c-0.64-2.55,0.24-4.56,2.34-6.08c2.35-1.69,4.6-0.76,6.43,0.71
		c3.75,3.01,6.17,7.04,6.86,11.8C2269.07,368.31,2267.83,371.27,2264.13,372.96z"/>
	<path class="st0" d="M2737.84,704.17c-1.37,3.29-3.76,4.5-6.17,5.65c-2.57,1.23-5.15,1.01-7.72-0.08c-4.24-1.79-6.92-6.57-5.8-10.4
		c1.05-3.59,6.43-5.45,11.09-3.64C2733.11,697.21,2735.96,699.9,2737.84,704.17z"/>
	<path class="st0" d="M2852.18,718.93c-8.53,3.73-15.47,1.89-21.69-3.4c-2.75-2.34-1.84-5.84,1.57-6.92
		c4.33-1.37,8.51-0.9,12.35,1.55C2847.48,712.11,2850.27,714.39,2852.18,718.93z"/>
	<path class="st0" d="M3246.52,1216.33c-0.14,4.68-4.32,6.96-8.43,4.45c-4.52-2.76-7.02-6.96-7.55-12.2
		c-0.35-3.39,2.43-5.93,5.54-5.3C3241.19,1204.29,3246.68,1211.16,3246.52,1216.33z"/>
	<path class="st0" d="M2228.55,710.66c0.16-2.14,0.42-4.6,2.69-5.84c2.75-1.51,5.28-0.24,7.1,1.8c3.12,3.51,5.6,7.46,4.82,12.52
		c-0.65,4.21-4.67,5.92-8.21,3.58C2231.63,720.53,2228.64,714.99,2228.55,710.66z"/>
	<path class="st0" d="M2506.66,668c6.75-1.94,13.24,0.24,15.94,5.35c1.53,2.9,1.38,6.81-0.57,8.24c-2.63,1.92-5.45,1.99-8.35,0.36
		C2509.14,679.39,2506.82,674.86,2506.66,668z"/>
	<path class="st0" d="M2869.94,1235.02c-0.18,0.78-0.38,2.08-0.79,3.31c-1.1,3.26-4.21,4.35-7.07,2.39
		c-4.06-2.79-5.94-6.99-6.55-11.67c-0.32-2.43,1.13-4.32,3.34-5.59c2.35-1.35,4.38-0.74,6.44,0.59
		C2869.15,1226.53,2869.22,1230.63,2869.94,1235.02z"/>
	<path class="st0" d="M2911.18,1145.76c7.83,3.26,15.32,5.2,23.78,0.55c-1.94,4.31-5.08,3.95-7.34,5c-5.8,2.7-6.17,3.05-6.11,10.3
		c-3.97-2.73-7.53-6.61-14.73-4.14C2910,1153.87,2909.52,1150.29,2911.18,1145.76z"/>
	<path class="st0" d="M2922.28,1262.64c0.51,0.16,1.5,0.33,2.36,0.77c3.75,1.95,7.15,8.38,6.69,12.52
		c-0.41,3.76-4.04,5.72-7.25,3.76c-4.15-2.54-6.89-6.19-7.48-11.11C2916.22,1265.36,2918.84,1262.54,2922.28,1262.64z"/>
	<path class="st0" d="M2169.95,1108.94c-4.13-3.43-4.1-6.77-2.96-10.55c1.19-3.95,3.05-7.31,6.68-9.42
		c2.52-1.46,5.67,0.37,5.53,3.41C2178.89,1099.19,2176.79,1105.15,2169.95,1108.94z"/>
	<path class="st0" d="M2111.11,201.49c-5.3,3.99-10.22,7.69-16.7,12.57c2.07-9.11,3.72-16.34,5.61-24.63
		C2104.14,193.92,2107.43,197.5,2111.11,201.49z"/>
	<path class="st0" d="M2755.18,646.34c3.6-2.49,7.83-2.88,11.99-3.41c2.74-0.35,4.31,1.23,5.15,3.6c0.92,2.58-0.19,4.44-2.35,5.82
		C2764.39,655.9,2758.87,653.77,2755.18,646.34z"/>
	<path class="st0" d="M3130.02,1392.77c0.54,0.22,1.56,0.39,2.27,0.95c3.28,2.64,4.47,6.34,4.63,10.36
		c0.08,2.16-1.33,3.65-3.32,4.36c-1.7,0.61-3.37,0.02-4.4-1.32c-2.72-3.54-3.63-7.59-2.36-11.93
		C3127.2,1393.97,3128.13,1392.94,3130.02,1392.77z"/>
	<path class="st0" d="M2035.12,602.14c0.96-5.04,2.65-8.46,5.55-11.31c3.62,1.71,4.37,5.07,5.56,8.08c0.78,1.97,0.46,3.92-1.04,5.51
		c-1.66,1.75-3.54,1.4-5.41,0.37C2038.37,604.02,2036.99,603.2,2035.12,602.14z"/>
	<path class="st0" d="M2226.75,1282.15c-0.34,1.04-0.67,2.64-1.37,4.07c-0.87,1.79-2.25,3.45-4.42,3.26
		c-2.51-0.22-3.94-2.1-4.64-4.4c-0.6-1.97,0.06-3.87,0.77-5.69c1.02-2.62,2.65-4.66,5.81-3.92
		C2226.05,1276.2,2226.4,1278.92,2226.75,1282.15z"/>
	<path class="st0" d="M2304.51,1168.26c1.83,5.06,0.67,9.48-3.02,13.28c-2.1,2.15-5.14,1.2-6.28-1.6c-1.14-2.8-0.07-5.07,1.36-7.34
		C2298.74,1169.13,2299.42,1168.73,2304.51,1168.26z"/>
	<path class="st0" d="M2445.09,622.4c6.5,0.62,9.27,4.14,11.04,8.55c0.81,2.01-0.31,3.91-2.23,5.01c-1.67,0.96-3.28,0.31-4.62-0.72
		C2445.05,632,2445.16,627.59,2445.09,622.4z"/>
	<path class="st0" d="M2171.04,1429.82c6.02,8.08,5.62,11.11-1.96,16.1C2167.6,1440.38,2166.33,1435.38,2171.04,1429.82z"/>
	<path class="st0" d="M2513.91,844.02c5.11,3.58,8.74,6.13,12.29,8.62c-1.19,3.18-2.87,5.02-5.93,5.92
		C2517.58,854.63,2515.16,850.61,2513.91,844.02z"/>
	<path class="st0" d="M3068.33,1146.35c1.75,0.13,3.4,0.45,4.43,1.89c0.53,0.75,1.06,1.8,0.96,2.64c-0.16,1.32-1.12,2.54-2.53,2.61
		c-1.58,0.07-3.3-0.06-4.76-0.62c-1.84-0.7-3.59-1.95-2.93-4.38C3064.21,1145.87,3066.53,1146.51,3068.33,1146.35z"/>
	<path class="st0" d="M3004.53,1371.24c0.68-1.07,1.26-1.86,1.71-2.71c1.19-2.29,2.78-3.79,5.33-2c2.1,1.47,2.64,3.78,1.35,5.96
		c-1.31,2.21-3.55,2.74-5.81,1.38C3006.07,1373.24,3005.35,1372.09,3004.53,1371.24z"/>
	<path class="st0" d="M2244.69,1335.12c-2.36-0.1-3.48-1.63-3.9-3.73c-0.5-2.48-0.06-4.91,2.7-5.52c2.37-0.53,3.51,1.31,3.75,3.51
		C2247.5,1331.73,2247.58,1334.08,2244.69,1335.12z"/>
	<path class="st0" d="M2036.51,627.25c-0.21-2.96,0.67-4.93,2.29-6.75c3.12-0.05,4.98,1.56,4.37,4.62
		C2042.47,628.65,2039.63,628.05,2036.51,627.25z"/>
	<path class="st0" d="M2040.7,1278.46c0.28,0.19,0.62,0.32,0.81,0.57c1.74,2.3,2.73,4.68,0,6.93c-1.24,1.02-2.61,0.64-3.41-0.64
		C2036.51,1282.78,2036.92,1281.85,2040.7,1278.46z"/>
	<path class="st0" d="M1954.38,607.77c-3-2.77-4.07-5.24-2.98-8.42C1957.83,600.21,1957.83,600.21,1954.38,607.77z"/>
	<path class="st0" d="M3225.82,1252.07c3.61-3.4,6.3-2.7,8.68,0.21c0.27,0.33,0.08,1.34-0.24,1.77
		C3232.67,1256.19,3230.72,1255.76,3225.82,1252.07z"/>
	<path class="st0" d="M2008.8,316.64c-2.64-3.09-3.68-6.46-1.72-11.4C2010.81,309.21,2008.87,313.08,2008.8,316.64z"/>
	<path class="st0" d="M3565.69,1330.88c-1.49,0.45-3.02,0.91-4.49,1.35c-2.05-1.91-1.06-3.51,0.21-5.1
		C3563.65,1327.13,3565.07,1328.18,3565.69,1330.88z"/>
</g>
</svg>
