<?xml version="1.0" encoding="utf-8"?>
<!-- Generator: Adobe Illustrator 24.1.1, SVG Export Plug-In . SVG Version: 6.00 Build 0)  -->
<svg version="1.1" id="Layer_1" xmlns="http://www.w3.org/2000/svg" xmlns:xlink="http://www.w3.org/1999/xlink" x="0px" y="0px"
	 width="611.35" height="1210.62" viewBox="0 0 611.35 1210.62" style="enable-background:new 0 0 611.35 1210.62;" xml:space="preserve">
<style type="text/css">
	.st0{fill:#1A1A1A;}
</style>
<g>
	<path d="M93.4,831.91c-6.92,1.95-13.79,4.02-20.57,6.44c-6.63,2.37-13.21,4.79-19.36,8.09c-1-0.46-0.62-1.02-0.22-1.49
		c5.45-6.35,11.78-11.71,18.71-16.37c7.44-5,15.24-9.39,23.15-13.58c2.11-1.12,4.36-2,6.63-2.75c5.77-1.89,11.56-3.73,17.38-5.43
		c2.74-0.8,5.58-1.25,8.39-1.86c0.33-0.76-0.34-0.74-0.7-0.76c-4.01-0.3-7.98,0.21-11.94,0.71c-2.02,0.25-4.03,0.67-6,0.32
		c-0.2-0.73,0.09-1.15,0.48-1.4c0.81-0.51,1.65-0.97,2.51-1.38c10.31-4.89,21.08-8.32,32.29-10.41c4.24-0.79,8.48-1.59,12.74-2.24
		c6.33-0.97,12.69-1.57,19.09-1.69c0.63-0.01,1.25-0.15,1.9-0.22c-0.19-1.08-1.04-1.29-1.76-1.5c-5.06-1.52-10.25-2.47-15.49-3.12
		c-1.58-0.2-3.19-0.21-4.57-1.05c-0.2-0.91,0.49-1.19,0.97-1.39c1.17-0.5,2.37-1.04,3.61-1.22c7.59-1.12,15.19-2.17,22.89-2.17
		c5.91,0,11.83,0.01,17.74-0.01c1.43,0,2.85-0.08,4.09-0.11c0.93-0.82,0.66-1.61,0.46-2.35c-0.64-2.31-1.38-4.59-1.98-6.91
		c-2.59-10.06-5.19-20.12-7.71-30.2c-1.9-7.6-2.93-15.37-4.18-23.1c-0.43-2.67-0.37-5.42-0.59-8.13
		c-0.81-9.57-0.64-19.17-0.44-28.75c0.12-5.9,0.96-11.78,1.45-17.67c0.17-2.07,0.28-4.15,0.37-6.22c0.02-0.45-0.17-0.91-0.25-1.29
		c-0.35-0.22-0.59-0.5-0.86-0.53c-6.06-0.56-9.51-4.32-11.21-9.72c-1.07-3.42-2.67-6.49-4.55-9.46c-1.82-2.87-2.97-3.19-5.93-1.84
		c-2.5,1.14-4.79,2.58-6.58,4.7c-1.55,1.83-3.03,3.72-4.61,5.52c-2.49,2.85-3.86,6.22-4.8,9.82c-0.2,0.77-0.48,1.55-0.5,2.33
		c-0.11,5.43-0.47,10.87-0.04,16.3c0.02,0.31,0.14,0.62,0.27,1.19c1.54,1.52,3.32,3.13,4.93,4.89c4.89,5.36,8.78,11.34,11.43,18.15
		c1.59,4.1,1.93,8.03,0.08,12.07c-0.26,0.57-0.41,1.2-0.59,1.72c2.37,4.67,7.05,9.39,11.92,12.07c0.02,0.56-0.3,0.9-0.8,0.94
		c-7.55,0.62-13.67-2.4-18.98-7.48c-0.11-0.11-0.2-0.25-0.31-0.37c-1.6-1.79-3.02-3.78-4.84-5.3c-1.81-1.52-4.02-2.56-6.07-3.83
		c-1.1-0.02-1.54,0.96-2.24,1.55c-0.61,0.51-1.16,1.09-1.66,1.57c-0.12,1.03,0.44,1.61,1.01,2.18c1.91,1.93,3.83,3.85,5.72,5.8
		c0.15,0.16,0.18,0.65,0.05,0.81c-0.16,0.2-0.55,0.24-0.84,0.3c-0.15,0.03-0.33,0-0.47-0.06c-5.95-2.73-12.05-5.28-16.36-10.52
		c-1.89-2.29-4.23-3.3-7.09-3.13c-0.73,0.04-1.19-0.17-1.66-0.58c-2.43-2.1-4.59-4.47-6.4-7.1c-4.47-6.51-7.53-13.71-9.76-21.26
		c-0.36-1.21-0.48-2.51-0.51-3.78c-0.08-4-0.12-7.99-0.07-11.99c0.05-4.02-0.63-7.96-1.17-11.92c-0.3-2.22-0.62-4.44-1.09-6.62
		c-0.98-4.57,0.55-8.52,2.99-12.19c1.77-2.66,3.76-5.17,5.67-7.73c5.03-6.77,8-14.52,10.79-22.37c0.59-1.65,1.21-3.3,1.71-4.98
		c0.41-1.37,0.82-2.77,0.98-4.19c0.75-6.67,1.66-13.33,2.04-20.03c0.62-10.85,1.29-21.7,1.12-32.57c-0.1-6.39-0.49-12.78-0.82-19.16
		c-0.23-4.47-0.58-8.93-0.88-13.39c-0.04-0.64-0.16-1.28-0.14-1.91c0.15-5.45-0.7-10.85-0.92-16.27c-0.27-6.7-0.84-13.41-0.13-20.12
		c0.46-4.3,1.12-8.55,2.57-12.64c0.15-0.42,0.17-0.97,0.81-1.09c0.05,0.02,0.25,0.07,0.25,0.12c0.1,2.06,0.18,4.13,0.27,6.19
		c0.01,0.15,0.12,0.29,0.27,0.61c1.89-3.74,1.36-8.24,4.19-11.47c0.08-0.09,0.29-0.1,0.44-0.11c0.13,0,0.27,0.06,0.43,0.1
		c0.85,2.67-1.01,5.34-0.1,8.01c0.57,0.03,0.96-0.27,1.07-0.73c2.42-10.04,7.1-19.12,11.7-28.27c3.52-6.99,6.67-14.17,8.67-21.79
		c2.07-7.88,4.3-15.72,6.39-23.6c1.39-5.25,2.67-10.52,3.95-15.8c1.2-4.99,2.96-9.78,4.82-14.55c0.93-2.38,1.74-4.69,1.42-7.41
		c-0.24-1.99,0.12-4.05,0.01-6.13c-0.12-2.33,0.66-4.72,1.08-7.08c0.15-0.89,0.8-1.72,0.29-2.66c-1.47-0.16-1.33,2.2-3.03,1.84
		c-0.07-2.3,0.95-4.33,1.51-6.45c0.53-2.01,1.23-3.97,1.82-5.96c0.62-2.1,1.76-4.06,2.01-6.3c-1.26-0.52-1.78,0.57-2.6,0.78
		c-0.29,0.07-0.66,0.16-0.88,0.03c-0.2-0.12-0.39-0.59-0.31-0.78c1.48-3.36,2.95-6.73,5.2-9.69c2.61-3.43,5.05-7,8.06-10.12
		c0.77-0.8,0.45-1.29-1.03-1.73c-0.15-0.04-0.29-0.14-0.43-0.2c-0.05-0.15-0.18-0.33-0.14-0.45c0.82-2.48,2.58-4.37,4.1-6.4
		c1.24-1.65,2.66-3.21,4.16-4.63c1.27-1.2,2.76-2.17,4.2-3.18c1.69-1.18,3.44-2.27,5.24-3.46c-1.96-1.99-4.66-0.48-6.73-1.57
		c0.35-1.05,1.18-1.25,1.88-1.55c5.36-2.32,11.01-3.23,16.81-3.41c1.44-0.04,2.87-0.09,4.3-0.16c0.11-0.01,0.3-0.19,0.31-0.31
		c0.02-0.28,0.07-0.67-0.08-0.84c-0.54-0.58-1.2-1.05-1.73-1.63c-0.14-0.15-0.04-0.56,0.02-0.84c0.02-0.1,0.29-0.26,0.37-0.22
		c3.4,1.52,7.15,1.64,10.69,2.61c3.81,1.04,7.59,0.74,11.19-1.07c0.85-0.43,1.75-0.78,2.64-1.14c1.12-0.46,1.82-1.2,1.95-2.48
		c0.08-0.78,0.35-1.55,0.51-2.26c-0.56-0.98-1.51-1.47-1.57-2.81c-0.1-2.37-0.71-4.72-1.08-7.08c-0.41-2.59,0.02-5.07,1.02-7.49
		c0.58-1.41,1.51-2.69,1.66-4.29c-2.78,0.25-3.51,0.54-10.47,4.21c-0.93-0.1-1.3-0.81-1.62-1.54c-1.1-2.44-1.1-4.97-0.51-7.51
		c0.58-2.51,1.41-4.92,3.22-6.86c0.15-0.16,0.11-0.51,0.17-0.84c-2.05-0.45-3.39,1.7-5.44,1.47c-1.36-4.62,1.59-8.19,2.99-12.05
		c-1.26-0.66-1.93,0.49-2.81,0.51c-0.8-0.5-1.12-1.23-1.04-2.05c0.2-1.82,1.02-3.33,2.45-4.51c1.51-1.24,3.22-2.1,5.06-2.66
		c1.94-0.59,3.93-1.04,5.9-1.55c-0.12-0.37-0.12-0.8-0.32-0.93c-2.51-1.7-5.1-3.27-7.32-5.38c-0.55-0.52-1.41-0.72-2.15-1.02
		c-1.63-0.66-3.28-1.26-4.91-1.92c-1.66-0.67-3.12-1.63-4.07-3.2c-0.22-0.37-0.27-0.84-0.4-1.26c1.74-0.78,3.57,0.31,5.2-0.56
		c-0.14-1.49-2.36-1.07-2.38-2.65c0.22-0.2,0.41-0.54,0.66-0.58c5.79-0.86,11.08-2.96,15.89-6.31c1.04-0.72,2.25-1.18,3.35-1.81
		c0.54-0.31,1-0.74,1.5-1.11c-7.55-9.88-9.03-12.68-9.46-17.89c1.19-0.35,1.57,0.84,2.35,1.26c0.7,0.38,1.29,0.96,1.99,1.33
		c0.84,0.44,1.75,0.74,2.59,1.09c1.1-1.22-0.3-1.73-0.52-2.51c-0.26-0.91-0.82-1.74-1.09-2.65c-0.22-0.75-0.24-1.58-0.25-2.37
		c-0.01-0.91-0.36-1.91,0.69-2.84c2.19,0.76,4.47,2,7.2,1.31c-0.27-0.6-0.39-1.07-0.66-1.45c-1.29-1.83-2.61-3.63-3.92-5.45
		c-0.56-0.78-1.08-1.59-1.66-2.35c-4.8-6.29-6.64-7.71-14.14-11c-0.72-0.32-1.43-0.66-2.14-1.02c-0.12-0.06-0.29-0.27-0.26-0.36
		c0.08-0.27,0.18-0.67,0.38-0.75c2-0.78,4.1-0.52,6.17-0.44c1.42,0.05,2.83,0.4,4.22-0.09c0.33-0.99-0.44-1.5-0.91-2.08
		c-3.85-4.76-6.98-9.93-9.06-15.71c-0.15-0.41-0.06-0.9-0.04-1.36c0.01-0.12,0.18-0.23,0.29-0.36c2.46,0.61,3.24,3.33,5.56,4.79
		c-0.05-2.7-0.89-4.77-1.29-6.92c-0.39-2.04-0.93-4.05-1.38-6.07c-0.89-4.05-1.87-8.07-1.44-12.31c0.22-2.21-0.1-4.47-0.08-6.7
		c0.06-6.11,0.89-12.08,2.79-17.92c1.54-4.72,3.19-9.36,5.37-13.83c2.59-5.32,4.94-10.77,8.15-15.74
		c3.9-6.04,7.46-12.32,12.29-17.71c4.16-4.64,8.45-9.17,13.62-12.74c1.06-0.73,2.13-1.4,3.43-1.65c1.78-0.34,3.14,0.4,3.69,2.19
		c0.23,0.73,0.3,1.51,0.42,2.16c1.18,0.66,1.97-0.11,2.83-0.38c0.91-0.29,1.75-0.78,2.64-1.12c0.84-0.32,1.58-1.23,2.76-0.46
		c-0.68,0.7-1.33,1.39-2,2.05c-0.57,0.56-1.18,1.07-1.77,1.62c-8.12,7.52-5.47,19.17-0.34,24.68c1.64,1.76,3.38,3.4,5.49,4.61
		c0.56,0.32,1.07,0.7,1.64,1c4.86,2.59,8.96,6.08,12.36,10.41c0.17,0.22,0.56,0.27,0.9,0.42c0.81-1.52,1.65-3.03,2.44-4.57
		c1.19-2.32,3.16-3.99,4.88-5.88c0.44-0.48,1.45-0.21,1.47,0.42c0.06,2.18,1.19,3.95,2.06,5.83c0.81,1.73,2.17,3.02,3.22,4.52
		c1.29-0.94,1.08-1.97,1.06-2.83c-0.03-1.1-0.3-2.21-0.57-3.3c-1.05-4.25-1.01-8.56-0.75-12.88c0.2-3.25,1.52-6.2,2.56-9.21
		c0.62-1.8,1.52-3.52,2.38-5.23c2.33-4.59,5.9-7.89,10.62-9.93c0.1-0.04,0.27,0.08,0.43,0.13c0.6,0.71-0.11,1.14-0.43,1.58
		c-1.78,2.48-3.26,5.07-4.18,8.03c-1.07,3.41-1.42,6.87-1.39,10.4c0,0.78,0.14,1.63,0.48,2.32c0.75,1.58,1.44,3.27,2.55,4.59
		c2.68,3.19,5.83,5.92,9.45,8.04c1.02,0.6,2.24,0.43,3.08-0.41c0.56-0.56,1.07-1.18,1.57-1.8c4.34-5.36,8.03-11.17,11.3-17.22
		c1.98-3.67,2.84-7.79,3.85-11.82c0.23-0.93,0.32-1.9,0.67-2.78c0.95-2.41,3.29-3.17,5.47-1.72c2.4,1.59,4.58,3.42,6.39,5.73
		c3.5,4.49,5.92,9.36,7.06,15.02c1.07,5.33,2.14,10.64,2.63,16.07c0.39,4.31,0.51,8.6,0.01,12.91c-0.07,0.62-0.01,1.26-0.01,1.91
		c1.99,0.16,2.4-2.02,3.9-2.41c0.69,0,0.74,0.52,0.76,0.97c0.22,4.35-0.51,8.6-1.23,12.86c-0.16,0.93-0.28,1.87-0.41,2.75
		c0.63,0.22,1.05,0.37,1.51,0.54c0.9,2.93,1.22,5.9,0.49,8.95c-0.41,1.71-0.64,3.46-0.91,5.19c-0.2,1.25-0.34,2.5-0.48,3.54
		c0.53,0.87,1.14,0.87,1.8,0.85c0.93-0.04,1.89-0.33,2.76,0.3c-0.23,1.08-1.4,1.23-1.94,1.95c-0.55,0.74-0.66,1.82-1.21,2.56
		c-2.1,2.81-3.93,5.83-6.78,8.04c-0.79,0.62-1.74,1.39-1.7,2.71c1.09,0.23,1.65-0.66,2.4-1.06c0.98-0.53,1.9-1.18,2.84-1.78
		c0.76-0.48,1.32-1.33,2.56-1.37c-0.35,3.23-1.41,5.95-3.64,8.16c-1.35,1.34-2.76,2.63-4.2,3.99c2.55,3.28,4.47,6.77,5.57,10.66
		c0.13,0.46,0.21,0.93,0.27,1.4c0.02,0.12-0.11,0.33-0.22,0.39c-0.26,0.14-0.66,0.39-0.81,0.3c-0.81-0.5-1.61-1.03-2.31-1.66
		c-1.47-1.3-3.03-2.33-5.05-2.42c-1.06,1.01-0.55,2.1-0.19,3.12c0.43,1.2,0.9,2.4,1.51,3.51c0.53,0.98,1.19,1.91,1.94,2.73
		c0.73,0.8,1.65,1.44,2.59,2.24c-0.94,2.5-3.58,2.86-5.19,3.87c-0.53,0.86-0.25,1.29,0.03,1.66c1.58,2.12,3.75,3.41,6.13,4.47
		c1.21,0.54,1.28,0.8,1.09,2.25c-0.25,1.88,0.11,2.87,1.53,3.46c1.61,0.68,3.29,1.22,4.96,1.76c0.89,0.29,1.81,0.46,2.52,0.64
		c0.44,0.73,0.21,1.17-0.05,1.57c-0.98,1.49-2.34,2.61-3.73,3.7c-1.5,1.18-3,2.37-4.49,3.55c-0.1,0.78,0.43,1.12,0.98,1.46
		c3.13,1.93,5.87,4.37,8.75,6.51c-0.69,2.54-1.41,3.75-3.26,5.18c-1.14,0.87-2.37,1.62-3.59,2.38c-1.62,1.02-3.27,1.99-4.96,3.01
		c-0.78,2.11-1.51,4.23-2.85,6.05c-1.21,1.64-2.46,3.26-3.53,5.3c2.28,0.46,4.15,0.19,5.99-0.28c2.65-0.67,5.29-0.48,7.97-0.25
		c-0.06,0.44-0.01,0.8-0.16,1.01c-1.25,1.7-2.95,2.91-4.61,4.17c-2.92,2.23-5.85,4.45-8.75,6.7c-0.22,0.17-0.29,0.52-0.43,0.77
		c0.06,0.65,0.58,0.68,1.02,0.69c2.39,0.08,4.77,0.23,7.16,0.55c4.28,0.56,7.96,2.28,11.25,4.95c1.36,1.11,2.62,2.34,3.87,3.57
		c0.31,0.3,0.45,0.81,0.6,1.25c0.12,0.37-0.77,0.93-1.5,0.85c-3.52-0.37-7.03-0.1-10.53,0.24c-1.53,0.15-3.07,0.3-4.68,1.3
		c3.41,1.97,7.32,2.43,9.75,5.45c0.16,0.2,0.12,0.58,0.2,1.03c-5.08,0.24-10.06,1.14-14.99,2.3c-0.13,0.03-0.24,0.19-0.34,0.31
		c-0.09,0.12-0.14,0.27-0.3,0.6c1.33,0.82,2.69,1.62,4.02,2.48c4.53,2.95,8.18,6.64,9.98,11.89c0.47,1.37,0.79,2.72,0.71,4.21
		c-0.12,2.39-0.03,4.78-0.03,7.06c-0.81,0.53-1.32,0.39-1.76-0.21c-1.51-2.08-3.14-4.03-5.16-5.65c-1.11-0.89-1.88-1.19-2.01-0.69
		c-0.2,0.75,0.32,1.15,0.63,1.63c2.18,3.39,3.8,7.02,4.76,10.94c0.15,0.6,0.43,1.17,0.66,1.79c1.64,0.25,2.86-0.53,4.04-1.27
		c2.99-1.88,6.19-3.32,9.43-4.69c0.57-0.24,1.17-0.41,1.74-0.61c1.41,1.96-1.49,3.06-0.83,4.82c12.05-0.71,18.6-0.39,26.81,1.82
		c-0.82,2.14-2.79,2.31-4.54,2.82c0.16,0.25,0.27,0.6,0.5,0.75c3.39,2.11,6.64,4.53,10.25,6.17c3.02,1.37,5.48,3.36,7.69,5.57
		c3.84,3.83,7.32,8.03,10.93,12.09c0.63,0.7,1.15,1.5,1.65,2.15c-0.36,1.01-1.02,1.04-1.58,0.75c-1.53-0.8-3.01-1.69-4.43-2.51
		c-0.53,0.22-0.58,0.45-0.38,0.8c4.52,7.76,7.98,16,11.12,24.38c1.36,3.62,2,7.31,1.64,11.1c-1.35,0.42-1.5-1.11-2.34-1.32
		c-0.25,0.4-0.54,0.64-0.53,0.87c0.22,4.15,0.68,8.29,0.68,12.44c0,5.41-0.1,10.83-1.04,16.18c-0.1,0.59,0.02,1.24,0.13,1.85
		c0.08,0.47,0.26,0.93,0.47,1.35c3.08,6.16,5.37,12.65,7.77,19.09c0.17,0.45,0.37,0.89,0.54,1.33c1.39,3.56,2.82,7.1,3.77,10.83
		c1.7,6.66,3.69,13.25,4.43,20.11c0.6,5.56,1.16,11.12,1.26,16.73c0.1,5.59,0.28,11.17,0.43,16.82c0.94,0.76,1.75,1.52,2.66,2.14
		c5.73,3.93,10.27,9.13,14.99,14.12c3.18,3.37,5.44,7.49,7.73,11.53c5.02,8.83,8.21,18.36,10.82,28.1
		c1.86,6.94,3.51,13.94,4.98,20.99c2.23,10.69,6.07,20.85,11.36,30.44c0.78,1.42,1.87,2.18,3.35,2.39
		c4.11,0.59,8.19,1.43,12.39,1.18c3.86-0.23,7.52-0.76,10.83-3.2c2.69-1.99,5.87-3.21,9.31-3.55c1.59-0.16,3.15-0.54,4.73-0.79
		c2.39-0.37,4.74-0.57,7.07,0.48c0.83,0.37,1.88,0.22,2.82,0.39c4.39,0.76,8.28,2.41,10.81,6.34c0.33,0.52,0.52,1.15,0.66,1.76
		c0.04,0.19-0.33,0.69-0.47,0.67c-1.87-0.2-3.78-0.27-5.58-0.75c-2.32-0.62-3.95,0.42-4.86,2.02c-0.63,1.11-1.34,2.19-1.89,3.33
		c-2.47,5.09-6.86,7.85-11.88,9.82c-3.15,1.23-6.44,1.85-9.84,1.86c-1.43,0-2.87,0.1-4.3,0.24c-1.03,0.1-1.97,0.79-1.8,1.21
		c0.23,0.58,0.49,1.19,0.91,1.64c3.94,4.28,8.92,6.52,14.74,7.53c0.95-1.34,1.85-2.64,2.79-3.91c0.86-1.15,1.74-2.25,2.86-3.2
		c3.69-3.12,7.76-3.41,12.13-1.86c3.17,1.13,6.03,2.81,8.59,4.88c0.73-0.03,0.86-0.55,0.87-0.99c0.05-3.2,0.08-6.4,0.08-9.59
		c0-2.12-0.79-4.06-1.48-6.02c-0.27-0.76-0.42-1.53-0.1-2.33c0.14-0.35,0.36-0.53,0.74-0.41c0.29,0.09,0.61,0.22,0.83,0.42
		c3.91,3.66,6.78,8.02,8.85,12.95c1.1,2.61,1.07,5.35,1.04,8.02c-0.04,3.49,0.08,7.05-1,10.46c-0.29,0.93-0.31,1.89-0.03,2.83
		c0.82,2.8,0.06,5.41-1.25,7.82c-1.69,3.11-3.95,5.81-6.69,8.09c-1.24,1.03-2.6,1.81-4.12,2.4c-2.53,0.98-5,2.1-7.23,3.04
		c-0.81,0.83-0.81,1.65-1.01,2.42c-0.72,2.77-2.48,4.81-4.86,6.29c-3.04,1.89-6.38,2.93-9.95,3.18c-0.78,0.05-1.58-0.09-2.37-0.17
		c-1.11-0.12-2.21-0.32-3.33-0.39c-2.87-0.19-2.87-0.17-5.07-1.78c-0.73,0.13-0.96,0.76-1.31,1.28c-0.79,1.2-1.6,2.39-2.4,3.59
		c-1.75,2.59-3.96,4.59-7.01,5.53c-0.45,0.14-0.86,0.39-1.35,0.62c0.22,0.48,0.32,0.99,0.62,1.32c5.97,6.49,11.09,13.65,16.21,20.8
		c2.13,2.98,3.87,6.24,5.71,9.42c1.28,2.22,2.06,4.64,2.57,7.24c-1.39-0.35-1.59-1.66-2.41-2.38c-0.93-0.81-1.43-2.09-2.75-2.47
		c-0.07,0.31-0.28,0.67-0.17,0.86c5.51,9.67,8.92,20.13,11.53,30.88c0.53,2.18,1.25,4.27,2.09,6.35c1.14,2.81,2.16,5.68,3.07,8.57
		c0.86,2.74,1.46,5.56,1.16,8.46c-0.52,0.22-0.89,0.08-1.23-0.3c-3.41-3.81-6.81-7.63-10.25-11.42c-0.63-0.7-1.38-1.28-2-1.85
		c-0.74,0.28-0.88,0.71-0.66,1.15c8.53,17.39,15.23,35.53,21.63,53.77c1.06,3.01,1.94,6.1,2.17,9.32c0.06,0.89-0.24,1.54-1.2,1.67
		c-0.59,1.16,0.19,2.19,0.25,3.27c0.06,1.11,0.27,2.22,0.38,3.33c0.96,8.93,0.93,17.86-0.05,26.8c-0.8,7.34-2.67,14.45-4.58,21.55
		c-0.79,2.93-1.6,5.86-2.36,8.8c-1.01,3.9-2.79,7.47-4.58,11.04c-0.64,1.28-1.4,2.49-2.12,3.72c-0.05,0.09-0.34,0.16-0.43,0.1
		c-0.22-0.14-0.58-0.39-0.55-0.54c0.42-2.67,0.89-5.34,1.35-8.01c0.4-2.36,0.75-4.72,0.29-7.1c-0.75,0.03-0.79,0.57-0.96,0.99
		c-1.12,2.82-2.25,5.64-3.34,8.47c-1.5,3.9-3.4,7.59-5.96,10.91c-1.89,2.45-3.01,5.2-3.94,8.14c-2.26,7.16-4.67,14.27-7.17,21.35
		c-0.95,2.69-2.21,5.3-4.08,7.53c-0.07,0.08-0.33,0.06-0.46,0c-0.12-0.05-0.25-0.19-0.29-0.32c-0.33-1,0.24-1.86,0.48-2.76
		c0.86-3.24,1.72-6.49,2.09-9.83c0.05-0.45,0.28-0.94-0.17-1.33c-0.26,0.15-0.63,0.23-0.76,0.46c-0.54,0.98-1.08,1.97-1.5,3
		c-2.41,5.95-5.68,11.44-8.71,17.07c-5.84,10.84-12.32,21.31-18.64,31.87c-4.62,7.71-9.94,14.89-16.17,21.38
		c-0.43,0.45-0.93,0.85-1.42,1.24c-0.1,0.08-0.31,0.01-0.65,0.01c-0.45-1.56,0.04-3.05,0.45-4.54c0.83-3.08,1.74-6.15,2.45-9.26
		c0.93-4.05,1.72-8.13,2.54-12.2c0.08-0.41-0.1-0.86-0.17-1.33c-0.96,0.33-1.22,1.12-1.54,1.83c-2.48,5.6-6.04,10.48-9.75,15.33
		c-8.36,10.93-18.49,19.88-29.87,27.48c-5.86,3.91-12.01,7.31-18.48,10.12c-3.66,1.59-7.36,3.11-11.04,4.65
		c-1.03,0.43-2.1,0.78-3.1,1.27c-1.03,0.51-1.85,1.22-1.97,2.51c-0.13,1.43-0.46,2.85-0.51,4.28c-0.16,4.47-0.28,8.94-0.33,13.41
		c-0.05,4.8,0,9.6,0.03,14.4c0.04,5.94,0.66,11.76,2.51,17.47c0.74,2.29,1.54,4.51,2.52,6.69c1.51,3.35,2.96,6.72,4.42,10.09
		c1.04,2.39,1.38,4.92,1.45,7.49c0.13,5.12-0.1,10.23-0.55,15.33c-0.21,2.39-0.48,4.77-0.55,7.16c-0.09,3.2,0.27,6.29,1.49,9.36
		c3.54,8.91,6.82,17.92,10.22,26.88c1.08,2.84,2.25,5.64,3.26,8.5c1.39,3.92,3.02,7.73,4.89,11.45c1.22,2.42,2.16,4.98,3.07,7.53
		c0.71,1.97,1.57,3.83,2.75,5.84c2.53,0.47,5.01,1.41,7.18,3.16c1.66,1.34,3.01,2.86,3.84,4.81c0.56,1.32,1.13,2.66,1.49,4.04
		c0.74,2.79,1.79,5.46,2.95,8.1c1.3,2.95,1.84,6.1,2,9.32c0.16,3.31-0.23,6.4-2.84,8.67c-0.05,2.69,1.59,5.09,0.58,7.66
		c-0.18,0.02-0.43,0.1-0.49,0.03c-1.64-1.92-3.27-3.86-4.81-5.69c-0.95-0.53-1.61,0.14-2.35,0.29c-1.56,0.3-3.14,0.55-4.72,0.72
		c-1.58,0.17-3.2,0.09-4.76,0.36c-1.55,0.27-2.84-0.15-3.96-0.92c-1.27,0.08-1.42,1.42-2.3,1.73c-0.88,0.32-1.9,0.24-2.77,0.58
		c-1.92,0.74-4.17,0.39-6.07,1.92c-0.47,3.37-0.17,7.12-2.51,10.38c-1.79-3.6-2.55-7.42-4.52-10.71c-2.82-0.26-5.62,0.5-8.03-1.17
		c-1.16,0.4-0.4,2.3-1.98,2.45c-0.58-0.66-1.21-1.36-1.88-2.12c-1.51-0.21-2.35,1.5-3.88,1.38c-1.49-0.12-2.67,0.99-4.06,1.34
		c-1.38,0.35-2.79,0.64-4.26,0.97c-1.13,2.51-0.63,5.43-2.16,7.85c-1.91-0.64-1.66-2.54-2.21-3.91c-0.53-1.32-0.77-2.76-1.07-3.89
		c-0.92-1.06-1.97-0.74-2.87-0.96c-1.08-0.26-2.19-0.46-3.25-0.79c-1.06-0.32-2.07-1.01-3.13-1.09c-1.05-0.09-2.14,0.38-3.07,0.58
		c-1.28-0.62-1.31-1.97-2.2-2.7c-0.28-0.07-0.6-0.28-0.86-0.22c-2.99,0.71-6.01,0.64-8.67,0.19c-1.22,0.46-1.43,1.26-1.7,1.99
		c-0.5,1.34-0.95,2.71-1.54,4.02c-0.16,0.36-0.75,0.75-1.12,0.72c-0.32-0.02-0.82-0.57-0.87-0.93c-0.26-1.73-0.39-3.49-0.59-5.23
		c-0.07-0.62-0.18-1.23-0.26-1.72c-0.47-0.22-0.74-0.45-1.02-0.46c-1.28-0.05-2.61,0.09-3.57-0.99c-1.08-1.21-1.83-2.61-1.98-4.27
		c-0.36-3.73-0.07-7.38,1.62-10.77c1.42-2.86,2.91-5.7,4.59-8.42c1.93-3.12,4.05-6.14,6.19-9.13c3.21-4.51,5.1-9.53,6.03-14.96
		c1.38-8.05,1.72-16.21,2.18-24.34c0.42-7.5,0.64-15.01,0.91-22.51c0.05-1.27-0.02-2.56-0.21-3.81c-0.91-6.05-2.58-11.85-5.54-17.25
		c-1.38-2.52-2.73-5.06-4.03-7.63c-1.66-3.3-3.25-6.64-2.96-10.48c0.31-4.13,0.72-8.25,2.07-12.23c0.45-1.34,0.64-2.81,0.71-4.23
		c0.21-4.47,0.37-8.95,0.42-13.42c0.07-6.4-0.01-12.79,0.03-19.19c0.02-4.34-0.8-8.54-1.61-12.43c-0.9-0.98-1.72-0.86-2.49-0.75
		c-9.17,1.37-18.33,2.8-27.5,4.12c-6.01,0.86-12.05,1.58-18.14,1.54c-5.76-0.04-11.52-0.03-17.28,0c-3.54,0.02-7.02-0.4-10.49-1.01
		c-1.12-0.2-2.15-0.59-3.02-1.34c-0.1-0.09-0.22-0.28-0.18-0.37c0.11-0.27,0.24-0.69,0.45-0.74c2.15-0.56,4.34-0.98,6.47-1.62
		c1.15-0.35,2.53-0.31,3.36-1.45c-0.53-0.54-1.15-0.58-1.79-0.58c-1.6-0.01-3.2,0.01-4.8-0.02c-5.59-0.11-11.18-0.27-16.78-0.34
		c-1.88-0.03-3.8-0.21-5.2,0.16c-1.02,0.78-0.96,1.45-1.02,2.07c-0.45,4.99,0.59,9.88,1.07,14.8c0.15,1.54,0.82,3.08,1.47,4.52
		c1.68,3.8,3.49,7.54,5.23,11.32c0.94,2.03,1.99,4.03,2.75,6.12c2.03,5.56,4.38,10.94,7.45,16.03c2.66,4.39,2.44,9.17,1.1,13.93
		c-0.25,0.87-0.82,1.84-1.54,2.35c-4.31,3.07-6.83,7.57-9.59,11.86c-2.43,3.78-4.08,7.9-5.35,12.25
		c-3.04,10.45-5.36,21.06-7.73,31.67c-0.88,3.93-1.09,7.91-1.37,11.89c-0.25,3.51-0.3,7.02-0.49,10.53
		c-0.07,1.27-0.29,2.54-0.43,3.81c-0.46,4.15-2.02,7.77-5.4,10.32c-2.2,1.65-3.33,3.6-3.56,6.38c-0.29,3.42-2.29,6-5.32,7.51
		c-4.13,2.05-7.76,5.06-12.26,6.39c-0.14,0.04-0.24,0.2-0.48,0.41c-0.48,2.08-0.41,4.31-0.55,6.54c-0.05,0.76-0.38,1.51-0.61,2.26
		c-0.04,0.13-0.23,0.33-0.33,0.32c-0.29-0.03-0.66-0.07-0.84-0.26c-1.01-1.1-1.33-2.52-1.67-3.91c-0.46-1.85-0.89-3.7-1.29-5.37
		c-1.39-0.77-2.6-1.12-3.91-1.1c-1.59,0.03-3.19-0.04-4.78,0.09c-3.92,0.3-7.63-0.28-10.8-2.3c-1.38,0-1.28,1.46-2.42,1.64
		c-2.6,0.4-4.22,2.26-5.23,4.51c-0.93,2.08-2.03,3.94-3.75,5.47c-0.54,0.48-0.74,1.33-1.18,2.17c-1.57-1.71-1.82-3.78-2.18-5.79
		c-0.36-2.01-0.05-4.15-0.99-6.06c-1.52-0.73-2.9,0.14-4.29,0.09c-1.42-0.04-2.84-0.34-4.3-0.53c-0.97,0.56,0.18,1.49-0.33,2.1
		c-0.17,0.2-0.58,0.41-0.75,0.34c-0.41-0.19-0.81-0.49-1.1-0.84c-1.31-1.58-2.58-3.2-3.75-4.65c-0.91-0.05-0.97,0.44-1.06,0.89
		c-0.23,1.2,0.27,2.59-0.81,3.58c-1.34-0.18-1.02-2-2.44-2.13c-0.36,0.4-0.75,0.88-1.2,1.31c-1.69,1.63-2.51,3.65-2.7,5.96
		c-0.06,0.79-0.21,1.57-0.41,2.33c-0.06,0.24-0.4,0.5-0.66,0.57c-0.26,0.07-0.65-0.01-0.87-0.17c-1.08-0.81-1.56-2.04-1.87-3.26
		c-0.64-2.46-1.63-4.87-1.17-7.5c-0.81-0.6-1.38-1.22-2.08-1.5c-2.45-0.99-3.72-2.93-4.52-5.28c-0.2-0.6-0.34-1.21-0.56-2.05
		c-2.32,1.3-3.73,3.1-4.63,5.39c-0.23,0.58-0.5,1.15-0.86,1.66c-0.09,0.13-0.67,0.11-0.82-0.04c-0.32-0.32-0.65-0.75-0.73-1.17
		c-0.78-4.5-0.59-8.9,1.39-13.13c2.05-4.38,4.33-8.55,8.35-11.51c0.61-0.45,1.02-1.19,1.48-1.82c0.28-0.39,0.49-0.82,0.71-1.25
		c2.91-5.63,7.41-9.5,13.19-12.01c1.34-0.58,2.7-1.22,4.13-1.12c3.46,0.25,5.76-1.81,7.66-4.06c6.4-7.59,11.96-15.81,16.47-24.67
		c3.76-7.41,7.3-14.93,10.88-22.43c3.02-6.34,6.01-12.7,8.9-19.11c1.11-2.47,1.93-5.07,2.85-7.63c0.43-1.22-0.06-2.48,0.23-3.78
		c0.66-2.95,1.07-5.97,1.44-8.98c0.35-2.85,0.54-5.72,0.76-8.59c0.13-1.75,0.2-3.51,0.27-5.27c0.04-0.95,0.09-1.9,0.01-2.84
		c-0.56-6.36-1.23-12.71-2.24-19.03c-0.45-2.84-0.81-5.69-1.26-8.53c-0.1-0.61-0.4-1.18-0.64-1.87c-0.86-0.07-1.64-0.17-2.42-0.19
		c-8.81-0.29-17.56,0.59-26.31,1.49c-6.37,0.65-12.66,1.76-18.89,3.23c-1.24,0.29-2.5,0.58-3.67,1.08
		c-7.2,3.04-14.45,5.93-20.96,10.43c-4.34,2.99-8.82,5.77-13.12,8.84c-6.19,4.41-11.3,9.89-16.16,15.63
		c-4.55,5.38-8.46,11.25-12.02,17.32c-1.37,2.33-2.48,4.83-3.64,7.29c-1.64,3.47-3.21,6.97-4.82,10.45c-0.27,0.57-0.59,1.15-1.62,1
		c-0.11-6.46,1.23-12.78,2.81-19.37c-1.34,0.56-1.69,1.29-2.09,1.97c-3.99,6.82-6.76,14.11-8.45,21.82
		c-0.21,0.93-0.35,1.89-0.64,2.8c-0.52,1.63-1.13,3.23-1.91,5.43c-0.59-1.78-0.38-3-0.42-4.18c-0.04-1.12,0.01-2.24-0.02-3.36
		c-0.03-1.27-0.11-2.53-0.21-4.71c-1.8,4.58-1.74,8.53-2.17,12.41c-0.46,4.16-0.42,8.32-0.21,12.46c0.21,3.97,1.07,7.91,1.51,11.88
		c0.44,3.97,1.81,7.7,2.84,11.47c-0.96,0.62-1.36-0.05-1.67-0.44c-1.39-1.75-2.69-3.57-4.07-5.33c-0.31-0.39-0.82-0.4-1.28-0.13
		c0.02-0.32,0.53-0.67-0.06-0.95c0.04,0.28,0.08,0.56,0.12,0.85c1.17,3.99,2.56,7.9,4.21,11.71c1.85,4.26,4.01,8.35,6.6,12.21
		c0.88,1.32,1.96,2.55,2.3,4.16c0.05,0.24-0.19,0.56-0.35,0.8c-0.05,0.07-0.33,0.07-0.44,0c-3.27-2.06-5.99-4.75-8.6-7.55
		c-0.96-1.03-1.85-2.12-2.78-3.2c-0.52,0.57-0.46,1.05-0.23,1.48c1.3,2.38,2.44,4.88,3.97,7.11c4.9,7.13,10.23,13.91,17.15,19.25
		c3.29,2.54,6.55,5.11,9.92,7.54c5.44,3.92,11.27,7.21,17.37,9.72c0.17,0.87-0.27,0.92-0.75,0.96c-7.88,0.71-15.6-0.24-23.25-2.18
		c-8.39-2.13-16.34-5.49-24.3-8.78c-0.74-0.3-1.46-0.65-2.15-1.05c-10.59-6.01-20.63-12.83-29.91-20.71
		c-3.17-2.69-6.27-5.47-9.26-8.35c-4.14-3.99-8.33-7.94-11.64-12.71c-1.09-1.57-2.33-3.05-3.57-4.51
		c-5.52-6.5-9.75-13.81-13.54-21.42c-3.13-6.3-6.18-12.62-8.52-19.27c-1.49-4.22-3.06-8.4-3.8-12.85c-0.18-1.06-0.62-2.08-0.99-3.28
		c-0.84,0.89-0.42,1.82-0.51,2.65c-0.09,0.79-0.04,1.6-0.04,2.4c0,0.96-0.02,1.92,0.01,2.88c0.03,0.96,0.07,1.92,0.16,2.87
		c0.08,0.79,0.28,1.57,0.37,2.37c0.11,0.94,0.15,1.88,0.24,3.08c-0.66-0.36-1.2-0.47-1.39-0.79c-0.57-0.95-1.1-1.95-1.47-2.99
		c-2.45-6.94-4.37-13.99-5.71-21.25c-1.63-8.86-2.16-17.75-1.94-26.72c0.03-1.28,0.06-2.56,0.2-3.83
		c1.08-9.52,1.99-19.07,4.42-28.38c0.07-0.28-0.07-0.61-0.14-1.17c-1.63,1.3-2.06,3.16-2.87,4.76c-0.86,1.71-1.67,3.45-2.45,5.2
		c-0.78,1.75-1.51,3.52-2.22,5.3c-0.78,1.93-1.54,3.86-2.25,5.81c-0.65,1.8-1.29,3.61-1.82,5.45c-0.53,1.84-1.01,3.7-1.37,5.58
		c-0.36,1.87-0.46,3.81-1.49,5.45c-0.82,0.03-1.26-0.42-1.4-1.07c-0.35-1.72-0.69-3.44-0.93-5.18c-1.09-8.11-0.79-16.27-0.7-24.42
		c0.03-2.86,0.48-5.73,0.85-8.58c0.9-6.97,1.68-13.96,3.37-20.8c0.11-0.43-0.05-0.92-0.08-1.44c-1.46,0.82-1.92,2.27-2.39,3.56
		c-1.76,4.79-4.26,9.3-5.35,14.35c-0.23,1.05-0.91,2.01-1.41,2.99c-0.05,0.09-0.28,0.12-0.42,0.11c-0.13-0.01-0.34-0.09-0.36-0.17
		c-0.15-0.78-0.35-1.56-0.37-2.35c-0.19-7.71,0.61-15.33,2.2-22.86c2.22-10.5,5.58-20.65,9.48-30.63c1.86-4.77,4.27-9.29,6.76-13.75
		c1.4-2.51,2.84-5,4.26-7.5c0.24-0.43,0.4-0.86-0.04-1.5c-1.04,0.12-1.76,0.98-2.6,1.56c-0.92,0.64-1.78,1.36-2.64,2.07
		c-0.86,0.71-1.68,1.47-2.54,2.19c-0.86,0.72-1.74,1.4-2.6,2.12c-0.86,0.71-1.73,1.42-2.55,2.18c-0.82,0.76-1.59,1.57-2.39,2.36
		c-0.79,0.79-1.6,1.57-2.37,2.38c-0.77,0.81-1.52,1.64-2.27,2.47c-0.75,0.83-1.49,1.67-2.24,2.5c-0.75,0.83-1.52,1.64-2.25,2.49
		c-0.73,0.85-1.38,1.76-2.14,2.58c-0.71,0.76-0.94,2.07-2.32,2.11c-0.49-1.36,0.15-2.56,0.63-3.69c2.77-6.45,5.29-13.02,8.76-19.16
		c1.73-3.06,3.3-6.21,5-9.28c3.41-6.17,7.35-11.98,11.83-17.43c0.71-0.86,1.44-1.72,2.1-2.62c9.02-12.32,19.82-22.98,30.99-33.29
		c7.55-6.96,15.85-12.91,24.67-18.15c2.88-1.71,5.75-3.46,8.62-5.2c0.59-0.36,0.93-0.84,0.51-1.54c0.13,0.02,0.27,0.05,0.4,0.04
		c0.23,0,0.47-0.03,0.7-0.04C94.06,831.91,93.73,831.91,93.4,831.91z M244.34,473.35c-0.82-1.76-1.57-3.35-2.3-4.95
		c-1.51-3.35-3.31-6.6-4.45-10.08c-2.58-7.89-5.01-15.81-5.81-24.17c-1.06-10.97-2.55-21.91-2.75-32.95
		c-0.04-1.92-0.14-3.83-0.15-5.75c-0.01-1.14-0.16-2.23-0.8-3.21c-0.33-0.5-0.66-1.05-1.56-0.87c-1.72,4.9-3.34,9.91-5.23,14.82
		c-2.07,5.36-4.09,10.78-6.7,15.89c-3.33,6.54-6.91,12.98-11.14,19.02c-1.1,1.57-2.04,3.25-3.03,4.89
		c-2.66,4.41-3.75,9.1-2.78,14.24c1.39,7.34,0.76,14.7-0.59,21.93c-2.49,13.35-5,26.69-8.07,39.93c-2.63,11.32-3.55,13.5-8.47,25.86
		c-2.3,5.79-4.66,11.55-6.95,17.35c-3.6,9.12-5.89,18.54-6.37,28.66c1.35,1.17,2.2,2.86,2.99,4.61c0.45,1.01,1.15,1.93,1.86,2.78
		c4.64,5.49,9.31,10.97,14,16.42c0.62,0.72,1.37,1.34,2.11,1.95c1.84,1.54,3.7,3.05,5.57,4.56c0.36,0.29,0.79,0.57,1.31,0.32
		c0.14-0.25,0.38-0.49,0.41-0.76c0.97-7.29,2.41-14.49,4.07-21.66c1.91-8.26,4.1-16.42,7.66-24.17c1.4-3.05,2.56-6.2,3.89-9.28
		c1.96-4.55,4.09-9.02,6.84-13.17c1.5-2.26,2.81-4.65,4.2-6.98c0.9-1.51,1.73-3.05,2.67-4.53c2.28-3.55,3.93-7.38,4.24-11.59
		c0.34-4.51,1.6-8.79,2.68-13.13c1.81-7.29,4.18-14.42,6.59-21.54C240.93,489.92,243.33,481.98,244.34,473.35z M482.74,541.18
		c-0.15-1.32-0.83-1.82-1.41-2.33c-4.97-4.32-9.29-9.22-13.09-14.59c-0.65-0.91-1.31-1.82-2.03-2.67c-1.79-2.08-3.17-4.41-4.34-6.86
		c-1.65-3.46-3.38-6.89-4.76-10.46c-2.7-6.99-5.88-13.81-7.55-21.17c-0.14-0.62-0.23-1.37-0.63-1.79c-1.67-1.79-2.11-4.23-3.51-6.17
		c-2.14-2.98-4.13-6.07-6.13-9.14c-1.3-2.01-2.56-4.05-3.76-6.12c-4.26-7.38-6.9-15.43-9.58-23.45c-1.67-4.99-3.02-10.09-4.56-15.12
		c-1.08-3.52-1.79-7.09-2.16-10.77c-0.3-2.99-1.02-5.94-1.6-8.89c-0.03-0.13-0.51-0.17-0.89-0.28c-0.12,1.45-0.2,2.88-0.36,4.31
		c-0.41,3.65-0.81,7.3-1.29,10.93c-0.46,3.48-1.18,6.93-1.47,10.43c-0.79,9.45-4.33,17.93-8.98,26.03
		c-2.14,3.74-4.35,7.44-6.52,11.16c-0.32,0.55-0.7,1.12-0.79,1.73c-0.41,2.51-0.89,5.03-1.03,7.56c-0.36,6.89,0.37,13.71,1.68,20.47
		c0.79,4.07,1.62,8.15,2.74,12.14c2.33,8.29,3.96,16.77,6.64,24.97c0.29,0.89,0.17,1.94,1.38,2.85c3.36,0.71,7.12,1.44,10.85,2.32
		c9.81,2.31,19.77,3.71,29.74,4.99c8.88,1.14,17.83,1.36,26.78,1.16C478.34,542.37,480.53,542.06,482.74,541.18z M335.77,779.08
		c0.22-0.9-0.19-1.38-0.53-1.89c-1.17-1.71-2.33-3.44-3.52-5.14c-1.53-2.2-2.08-4.63-1.83-7.27c0.09-1,0.76-1.51,1.58-1.09
		c0.99,0.51,2,1.01,2.92,1.62c2.28,1.53,4.8,2.58,7.39,3.37c4.42,1.36,8.91,2.5,13.39,3.68c1.36,0.36,3.06,1.12,4.1,0.14
		c1.28-1.21,0.36-2.96-0.14-4.45c-2.63-7.87-5.18-15.76-7.92-23.59c-3.16-9.04-6.44-18.05-9.76-27.04
		c-1.88-5.09-3.15-10.4-5.6-15.27c-0.72-1.42-1.19-2.93-1.64-4.46c-0.59-1.99-1.32-3.94-2.15-5.84c-3.44-7.9-6.95-15.78-10.43-23.67
		c-0.45-1.02-0.83-2.08-1.35-3.07c-0.52-0.99-1.26-1.83-2.58-2.24c-1.62,1.61-3.3,3.28-5.08,5.05c-0.28,2.82-0.51,5.68-0.87,8.52
		c-0.56,4.44-1.16,8.87-1.82,13.29c-0.23,1.57-0.75,3.1-1.02,4.67c-1.2,6.93-2.12,13.91-3.57,20.78c-2.11,10-3.85,20.06-5.43,30.15
		c-1.38,8.83-2.66,17.69-4.82,26.37c-0.15,0.61-0.37,1.22,0.2,2.02c4.4,0.49,8.97,1,13.54,1.5c4.45,0.48,8.91,0.82,13.34,1.45
		C326.74,777.33,331.25,778.27,335.77,779.08z M487.28,545.6c-3.63,1.6-6.87,2.91-10.29,3.72c-0.54,0.13-1.06,0.82-0.82,0.99
		c0.35,0.24,0.74,0.55,1.13,0.57c3.07,0.19,5.96,1.11,8.76,2.29c3.08,1.3,6.09,2.77,9.13,4.16c0.44,0.2,0.88,0.16,1.22-0.35
		C494.17,552.71,490.52,549.56,487.28,545.6z"/>
	<path class="st0" d="M82.35,918.67c-0.46,0.04-1.01-0.07-1.36,0.15c-0.81,0.5-1.55,1.12-2.26,1.77
		c-5.9,5.4-11.84,10.75-16.86,17.01c-0.9,1.12-1.85,2.21-2.84,3.25c-0.29,0.3-0.81,0.38-1.47,0.66c0-0.81-0.12-1.46,0.02-2.04
		c2.24-9.36,5.31-18.35,10.18-26.76c6.94-11.99,15.16-22.92,25.08-32.57c2.29-2.22,4.79-4.22,7.24-6.28
		c1.35-1.13,2.81-2.11,4.16-3.24c1.97-1.65,4.04-3.12,6.42-4.15c0.42-0.18,0.73-0.59,1.08-0.88c-0.52-0.81-1.13-0.59-1.66-0.38
		c-5.04,2.05-9.95,4.36-14.68,7.04c-2.36,1.34-4.76,2.6-7.16,3.87c-0.39,0.21-0.87,0.25-1.22,0.35c-0.43-0.22-0.49-0.49-0.23-0.81
		c1.5-1.87,3.15-3.6,4.93-5.22c6.88-6.25,14.19-11.95,22.16-16.75c2.46-1.48,4.99-2.86,7.58-4.1c7.94-3.82,16.26-6.61,24.74-8.98
		c1.41-0.39,2.79-0.64,4.24-0.64c2.21,0.01,4.42-0.16,7.64,0.7c-2.23-1.89-3.93-1.57-5.4-1.94c-1.55-0.39-3.13-0.65-4.7-0.94
		c-1.41-0.25-2.83-0.54-4.26-0.67c-1.59-0.14-3.19-0.12-4.79-0.19c-1.5-0.06-3.04,0.3-4.66-0.04c0.63-1.23,1.61-1.41,2.43-1.77
		c7.75-3.44,15.73-6.26,23.88-8.57c6.47-1.83,13.1-2.97,19.78-3.63c5.08-0.5,10.2-0.66,15.31-0.97c6.31,0.97,12.8,0.27,18.94,1.85
		c0.81,0.59,0.9,1.4,1.11,2.16c0.71,2.62,1.44,5.24,2.18,7.85c0.17,0.61,0.52,1.19,0.61,1.81c1.26,8.25,4.3,16.03,6.31,24.08
		c1.98,7.89,4.58,15.63,6.94,23.43c1.16,3.82,2.41,7.6,3.59,11.41c0.43,1.37,0.93,2.75,1.12,4.16c0.56,4.12,2.25,8.01,2.46,12.2
		c0.04,0.78,0.36,1.55,0.55,2.33c1.94,7.58,3.93,15.15,5.81,22.75c0.88,3.56,1.53,7.17,2.37,10.74c1.97,8.4,4.08,16.77,5.95,25.2
		c1.55,7.02,2.84,14.09,4.22,21.15c0.09,0.45-0.03,0.94-0.05,1.29c-0.37,0.79-1,0.92-1.62,0.99c-0.63,0.08-1.28,0.12-1.91,0.1
		c-9.63-0.32-19.16,0.82-28.68,1.97c-9.38,1.13-18.61,3.06-27.26,7.09c-3.04,1.41-6.06,2.92-8.89,4.7
		c-6.49,4.08-12.94,8.22-19.12,12.79c-5.98,4.42-11.03,9.72-15.75,15.36c-4.42,5.28-8.24,11.01-11.7,16.96
		c-1.2,2.06-2.09,4.31-3.19,6.44c-0.65,1.26-0.89,2.74-2.05,3.81c-0.87-0.52-0.47-1.34-0.34-1.95c1.31-6.1,3-12.1,5.07-17.99
		c0.46-1.3,0.94-2.61,1.65-4.98c-2.7,3.45-3.69,6.52-5.35,9.2c-1.67,2.72-3.75,5.19-5.37,7.93c-2.44,4.13-4.4,8.51-5.85,13.11
		c-0.38,1.2-0.8,2.39-1.2,3.56c-0.89,0.16-0.68-0.52-0.7-0.85c-0.16-2.88,0.01-5.75,0.44-8.61c0.14-0.94,0.24-1.88,0.37-2.86
		c-0.97-0.33-1.08,0.49-1.26,0.87c-1.1,2.31-1.94,4.71-2.58,7.2c-2.86,11.11-3.56,22.39-2.67,33.78c0.26,3.33,1.11,6.61,1.62,9.93
		c0.13,0.84,0.65,1.78-0.16,2.59c-0.17-0.06-0.39-0.07-0.45-0.17c-2.83-4.51-4.97-9.3-5.49-14.66c-0.26-2.7-0.36-5.42-0.43-8.14
		c-0.07-3.03-0.02-6.07-0.02-9.28c-1.35,0.97-0.83,2.23-1.05,3.26c-0.27,1.24-0.45,2.53-0.48,3.8c-0.18,8.35,0.58,16.6,2.81,24.68
		c2.05,7.42,4.8,14.57,8.56,21.3c0.23,0.42,0.42,0.86,0.59,1.3c0.04,0.11-0.05,0.28-0.08,0.42c-0.14,0.37-0.42,0.46-0.73,0.14
		c-3.6-3.69-6.64-7.75-8.55-12.6c-1.17-2.98-2.35-5.94-3.19-9.03c-0.5-1.83-1.22-3.6-2.05-5.35c-0.15,3.29,0.23,6.51,0.86,9.7
		c1.15,5.85,3.4,11.27,6.15,16.56c5,9.63,11.51,18.05,19.7,25.13c5.08,4.4,10.47,8.41,16.2,11.94c2.31,1.42,4.74,2.64,7.1,3.96
		c0.39,0.22,0.96,0.27,0.95,1.04c-0.35,0.12-0.76,0.4-1.15,0.37c-5.42-0.43-10.8-1.01-16.07-2.48c-8.18-2.28-16.03-5.42-23.78-8.83
		c-2.48-1.09-4.84-2.46-7.17-3.85c-7.57-4.5-14.86-9.43-21.68-14.98c-7.07-5.75-14-11.72-20.04-18.56
		c-4.11-4.65-8.24-9.36-11.49-14.72c-0.16-0.27-0.37-0.52-0.56-0.78c-3.48-4.61-6.22-9.65-8.88-14.77
		c-3.99-7.68-7.3-15.63-10.08-23.81c-1.13-3.34-2.02-6.72-2.63-10.19c-0.69-3.93-1.55-7.84-2.15-11.78
		c-0.89-5.86-1.12-11.77-0.88-17.69c0.15-3.83,0.18-7.67,0.95-11.45c0.15-0.75,0.02-1.56-0.19-2.38c-0.71,1.39-1.3,2.8-1.42,4.34
		c-0.39,4.93-1.33,9.83-1.02,14.82c0.11,1.75,0.16,3.52,0.37,5.26c0.55,4.45,0.96,8.88,0.38,13.38c-0.26,2.05-0.14,4.15-0.16,6.23
		c-0.02,1.75,0,3.51,0,5.21c-0.72,0.18-1.16-0.05-1.31-0.52c-0.69-2.29-1.51-4.57-1.95-6.92c-1.57-8.32-3.44-16.6-3.48-25.14
		c-0.01-1.11-0.27-2.22-0.32-3.34c-0.1-2.24-0.18-4.47,1.11-6.5c0.91-1.44,0.82-3.09,0.49-4.66c-0.98-4.64-0.13-9.26,0.42-13.81
		c1.12-9.24,3.93-18.1,6.93-26.88c0.62-1.81,1.44-3.55,2.18-5.32c3.84-9.15,8.35-17.96,13.66-26.34c1.02-1.62,2.12-3.2,3.34-4.68
		c3.36-4.07,6.82-8.05,10.19-12.11c4.71-5.68,10.34-10.45,15.38-15.8c0.63-0.66,1.6-1.1,1.61-2.22c0.28,0.61,0.56,1.22,0.83,1.83
		c-1.26,0.54-1.8,1.57-1.97,2.86c-0.14,0.08-0.32,0.13-0.41,0.24c-3.83,5.28-5.86,11.28-6.92,17.64c-0.18,1.07,0.01,2.2,0.03,3.46
		c0.31-0.24,0.46-0.29,0.49-0.38c0.1-0.29,0.19-0.6,0.24-0.9c0.92-5.88,2.62-11.49,5.68-16.66c0.56-0.94,1.28-1.86,1.27-3.06
		c1.08-0.67,1.67-1.67,1.93-2.88c2.25-1.76,3.95-3.97,5.42-6.3c-0.47-0.62-0.98-0.61-1.36-0.33c-1.67,1.21-3.3,2.47-4.92,3.75
		C82.42,917.98,82.43,918.39,82.35,918.67z M207.16,992.49c-0.29,0.71-0.31,1.53-1.13,1.98c-1.94,1.07-3.85,2.19-5.75,3.35
		c-0.31,0.19-0.78,0.5-0.25,1.45c3.21-1.85,6.59-3.39,9.78-5.34c-0.46-1.54-1.68-1.29-2.74-1.35c-0.24-0.38-0.4-0.88-0.74-1.12
		c-3.79-2.66-7.82-4.91-12.07-6.74c-9.73-4.17-19.82-6.91-30.41-7.69c-0.21-0.02-0.4-0.26-0.6-0.4c0.58-0.93,1.51-1.11,2.44-1.33
		c0.77-0.18,1.53-0.45,2.3-0.63c0.93-0.21,1.87-0.39,2.81-0.55c0.94-0.16,1.89-0.31,2.84-0.42c0.95-0.12,1.9-0.2,2.85-0.27
		c0.79-0.06,1.59-0.07,2.39-0.1c0.96-0.03,1.92,0.02,2.86-0.08c0.84-0.09,1.81,0.65,2.6-0.45c-0.35-0.31-0.64-0.67-1.01-0.87
		c-0.97-0.54-1.97-1.01-2.95-1.51c-0.34-0.32-0.65-0.69-1.02-0.97c-5.41-4-11.33-7.13-17.38-10.04c-10.07-4.84-20.71-7.32-31.79-8.1
		c-1.57-0.11-3.14-0.18-4.62-0.27c-0.28-0.71-0.04-1.15,0.39-1.37c2.71-1.36,5.46-2.63,8.16-4.02c2.26-1.16,4.46-2.44,6.66-3.71
		c0.19-0.11,0.28-0.59,0.22-0.85c-0.06-0.24-0.39-0.57-0.62-0.59c-2.86-0.2-5.72-0.46-8.59-0.51c-9.58-0.16-19.16-0.24-28.74-0.36
		c-4.33-0.06-8.62,0.29-12.87,1.09c-3.92,0.73-7.83,1.57-11.53,3.11c-0.58,0.24-1.46,0.4-1.45,1.61c1.69-0.07,3.14-0.78,4.63-1.2
		c6.17-1.75,12.45-2.91,18.86-2.91c11.5,0,22.99,0.16,34.49,0.26c0.31,0,0.61,0.15,0.92,0.23c-0.07,0.28-0.06,0.71-0.24,0.82
		c-1.08,0.67-2.21,1.26-3.33,1.87c-3.49,1.93-6.97,3.87-10.46,5.8c-0.64,0.36-0.85,0.86-0.52,1.69c0.87,0.13,1.8,0.3,2.75,0.39
		c3.81,0.37,7.65,0.55,11.44,1.11c10.99,1.6,21.43,4.92,31.19,10.28c3.64,2,7.27,3.99,10.9,6c0.84,0.46,1.65,1,2.67,0.55
		c-0.8,0.48-1.42,1.24-2.47,1.33c-1.27,0.11-2.52,0.49-3.78,0.52c-5.03,0.11-9.67,1.82-14.35,3.37c-0.56,0.19-1.1,0.52-0.95,1.44
		c3.15,0.86,6.27,1.95,9.62,2.42c4.56,0.65,9.13,1.56,13.52,2.9c7.15,2.19,14.15,4.85,20.68,8.59c0.96,0.55,1.96,1.07,2.98,1.5
		C206.17,992.59,206.69,992.47,207.16,992.49z"/>
	<path class="st0" d="M565.04,877.29c-0.51-3.4,0.5-6.64,0.99-9.94c0.02-0.15-0.32-0.38-0.53-0.51c-0.07-0.04-0.28,0.11-0.4,0.21
		c-0.12,0.1-0.23,0.24-0.28,0.39c-2.52,6.75-6.43,12.86-9.12,19.53c-0.18,0.44-0.36,0.9-0.6,1.31c-4.18,7.18-7.75,14.7-12.23,21.72
		c-0.95,1.48-1.82,3.01-2.68,4.54c-4.53,8.1-9.44,15.96-14.53,23.71c-2.02,3.09-4.37,5.91-6.76,8.71c-0.39,0.45-0.76,0.94-1.45,0.93
		c-0.06-0.16-0.19-0.32-0.16-0.45c0.44-1.86,0.96-3.71,1.36-5.58c1.03-4.84,2.14-9.68,2.96-14.56c0.58-3.47,0.53-7.01,0.2-10.53
		c-0.02-0.25-0.27-0.48-0.42-0.73c-0.27,0.12-0.68,0.18-0.79,0.39c-0.3,0.55-0.52,1.16-0.69,1.77c-2.35,8.45-6.47,15.95-12.04,22.7
		c-3.66,4.44-7.07,9.1-11.33,13.01c-1.41,1.3-2.81,2.64-4.36,3.74c-4.29,3.06-8.37,6.39-12.35,9.84c-3.15,2.74-6.89,4.64-10.48,6.73
		c-7.19,4.19-14.75,7.64-22.42,10.86c-0.73,0.31-1.44,0.73-2.48,0.3c-0.39-3.7-0.36-7.49,0.04-11.29
		c0.77-7.31,1.96-14.57,3.09-21.83c1.13-7.26,2.69-14.44,3.86-21.68c0.86-5.36,2.07-10.66,2.9-16.02c0.73-4.73,0.91-9.54,1.48-14.3
		c0.55-4.6,1.04-9.21,1.23-13.84c0.13-3.19,0.47-6.38,0.54-9.57c0.18-7.67,0.52-15.34,0.08-23.02c-0.27-4.64-1.02-9.2-1.99-13.74
		c-1-4.69-1.89-9.4-2.84-14.09c-0.38-1.88-0.69-3.78-1.19-5.63c-0.96-3.54-1.92-7.08-3.07-10.56c-1.31-3.93-2.34-7.98-4.49-11.58
		c-1.58-2.64-1.55-5.5-0.89-8.34c1.79-7.8,2.55-15.76,3.78-23.65c0.94-6,1.65-12.03,2.43-18.05c0.63-4.91,1.37-9.81,2.03-14.71
		c0.6-4.41,0.67-8.93,0.56-13.4c-0.16-6.71-0.22-13.41-0.66-20.12c-0.57-8.72-1.32-17.51-2.84-25.18c-0.4-2.04-0.74-4.09-1.15-6.12
		c-0.83-4.08-2.11-8.02-3.52-11.93c-2.66-7.36-4.75-14.92-7.87-22.11c-1.08-2.49-2.25-4.94-3.4-7.39c-1.01-2.17-2.28-4.21-2.96-6.54
		c-0.3-1.04-1-1.97-1.55-2.94c-2.58-4.6-5.14-9.21-7.78-13.78c-0.83-1.44-1.15-2.94-1.27-4.56c-0.25-3.35-0.35-6.72-0.89-10.03
		c-1.02-6.3-1.71-12.67-3.28-18.88c-0.78-3.1-1.4-6.24-2.07-9.36c-0.09-0.44-0.01-0.91-0.01-1.22c0.65-0.65,1.31-0.58,1.94-0.53
		c4.48,0.32,8.85,1.28,13.18,2.43c2.62,0.69,5.21,1.53,7.82,2.27c6.78,1.91,13.22,4.72,19.7,7.44c2.65,1.11,5.28,2.27,7.92,3.41
		c1,0.43,2.08,0.73,2.97,1.89c-4.75-0.08-9.06-2.42-13.66-1.82c-0.12,0.77,0.24,1.09,0.64,1.33c1.23,0.73,2.45,1.5,3.74,2.13
		c7.79,3.77,15.08,8.39,22.3,13.11c7.79,5.09,14.95,10.95,21.68,17.36c2.2,2.1,4.4,4.19,6.57,6.32c0.71,0.7,1.52,1.14,2.48,1.33
		l0.26,0.32c0.01,1.48,1.1,2.48,1.69,3.69c-1.59-0.38-2.8-1.41-4.05-2.39c-2.62-2.05-5.28-4.05-7.93-6.06
		c-0.64-0.49-1.33-0.87-2.18-0.58c0.26-1.12-0.91-0.93-1.32-1.43c-0.08,0.1-0.22,0.2-0.23,0.3c-0.01,0.13,0.06,0.3,0.15,0.41
		c0.38,0.48,0.8,0.89,1.49,0.63c0.2,0.4,0.29,0.92,0.6,1.18c1.46,1.23,2.98,2.39,4.48,3.57c2.26,1.78,4.33,3.74,6.16,5.97
		c1.21,1.48,2.56,2.83,3.83,4.27c0.95,1.07,1.97,2.11,2.76,3.29c5,7.38,10.7,14.28,15.02,22.12c1.84,3.34,3.74,6.66,5.49,10.05
		c2.99,5.8,5.88,11.64,8.81,17.47c0,0,0.06-0.13,0.06-0.13c-0.6-0.1-1.2-0.19-1.93-0.31c0.12,0.5,0.16,0.98,0.35,1.38
		c1.71,3.6,3.34,7.25,5.2,10.77c5.76,10.86,11.64,21.66,18.08,32.14c2.35,3.83,4.02,7.96,5.76,12.08c0.04,0.1-0.11,0.28-0.19,0.46
		c-1.78-0.43-2.21-2.5-3.8-3.15c-0.54,0.21-0.6,0.61-0.32,1.03c3.1,4.72,5.13,9.85,6.33,15.38c2.37,10.94,3.96,21.99,5.03,33.13
		c0.38,3.97,0.95,7.93,1.23,11.91c0.68,9.57,1.07,19.14-0.7,28.65c-0.34,1.82-0.29,3.83-1.96,5.24c-0.4,0.34-0.46,1.17-0.53,1.8
		c-0.38,3.17-0.78,6.34-1.04,9.52c-0.17,2.08-0.52,4.11-1.12,6.11c-2.88,9.47-5.75,18.94-8.64,28.4c-0.33,1.06-0.74,2.1-1.19,3.12
		c-0.08,0.19-0.52,0.22-0.8,0.32L565.04,877.29z"/>
	<path class="st0" d="M344.46,808.1c-0.75-1.15-2.01-1.49-3.17-1.97c-2.5-1.02-5.01-2.01-7.49-3c0.04-0.27,0.03-0.42,0.09-0.53
		c0.07-0.14,0.17-0.28,0.29-0.36c0.27-0.17,0.55-0.35,0.85-0.42c7.45-1.89,14.54-4.82,21.65-7.64c2.06-0.82,4.08-1.74,6-2.56
		c1.1,0.73,1.23,1.74,1.47,2.63c1.26,4.8,2.9,9.47,4.88,14.01c0.66,1.5,0.79,2.97,0.65,4.64c-0.91,10.18-1.74,20.37-2.41,30.56
		c-0.32,4.94,0.01,9.9,0.55,14.82c0.07,0.64,0.24,1.26,0.26,1.9c0.24,5.75,1.39,11.39,2.08,17.08c0.99,8.1,2.66,16.07,3.97,24.11
		c0.7,4.25,1.81,8.43,2.86,12.61c1.48,5.89,3.08,11.74,4.61,17.61c2.91,11.12,5.92,22.21,9.28,33.2c2.53,8.25,4.74,16.59,6.45,25.05
		c0.19,0.94,0.46,1.87,0.54,2.82c0.44,4.82,0.6,4.35-3.93,5.07c-5.05,0.8-10.1,1.59-15.16,2.31c-6.17,0.88-12.34,1.71-18.51,2.53
		c-1.58,0.21-3.18,0.38-4.77,0.42c-9.26,0.21-18.53,0.32-27.8,0.11c-0.76-0.02-1.53-0.15-2.35-0.23c0.53-1.14,1.54-1.26,2.42-1.49
		c2.94-0.74,5.9-1.39,8.85-2.12c0.76-0.19,1.52-0.48,2.21-0.85c0.62-0.33,0.75-0.97,0.57-1.86c-12.82-0.6-25.73-0.43-38.71-1.24
		c-0.74-2.41-0.73-4.62-0.7-6.84c0.11-7.54,1.22-14.97,2.57-22.36c1.74-9.58,3.9-19.08,6.45-28.48c0.71-2.61,1.05-5.33,1.56-7.99
		c0.39-2.04,0.73-4.09,1.18-6.11c2.24-9.98,4.05-20.03,5.5-30.15c0.66-4.58,0.89-9.22,1.25-13.84c0.35-4.46,0.65-8.92,0.89-13.39
		c0.39-7.28-0.87-14.3-3.38-21.13c-1.06-2.88-2.47-5.54-4.33-7.97c-3.88-5.08-7.84-10.1-11.61-15.26c-2.26-3.09-4.33-6.33-6.29-9.62
		c-1.31-2.2-1.91-4.72-2.19-7.29c-0.07-0.62,0.54-1.24,1.18-1.17c2.86,0.28,5.74,0.45,8.57,0.89c5.55,0.86,11.16,0.65,16.74,1.02
		c6.69,0.44,13.42,0.33,20.05,1.55c2.03,0.37,4.06,0.81,6.08,1.22c0.46,1.05,1.59,0.77,2.37,1.19c0.36,0.2,0.69,0.1,0.68-0.29
		c-0.01-0.24-0.32-0.6-0.57-0.68C345.97,808.39,345.21,808.27,344.46,808.1z"/>
	<path class="st0" d="M361.21,276.24c-2.78,0.71-5.55,1.49-8.35,2.12c-1.71,0.39-3.46,0.58-5.19,0.82
		c-0.61,0.08-1.28-0.57-1.26-1.15c0.02-0.64,0.01-1.28,0.12-1.9c0.7-3.79,0.77-7.63,0.78-11.47c0-2.55,0.12-5.11,0.06-7.66
		c-0.04-1.59-0.08-3.23-0.5-4.74c-2.08-7.61-1.62-15.19,0.02-22.77c0.78-3.59,1.56-7.19,2.53-10.73c0.86-3.16,1.14-6.25,0.14-9.43
		c-0.33-1.05-0.3-2.2-0.47-3.3c-0.35-2.17,0.89-3.64,2.25-5.02c0.29-0.29,0.88-0.39,1.33-0.38c0.63,0.01,1.26,0.18,1.89,0.31
		c5.96,1.29,11.75,0.61,17.39-1.55c0.84-0.32,1.49-0.28,2.23,0.16c0.87,0.52,1.74-0.36,2.65-0.37c0.17,1.65-0.84,2.59-1.33,3.71
		c-0.5,1.13-1.14,2.19-1.71,3.26c1.56-0.31,1.56-0.31,4.48-2.7c1.83,0.08,3.88,0.17,5.93,0.25c0.03,1.41,0.03,1.41-2.36,2.02
		c-0.39,0.45-0.17,0.86,0.11,1.22c0.29,0.37,0.68,0.79,0.38,1.22c-0.83,1.21-0.13,1.7,0.87,2.11c0.29,0.12,0.58,0.25,0.99,0.43
		c-0.48,0.64-0.93,1.25-1.33,1.78c-1.18,0.64-2.27-0.6-3.36,0.06c0.02,1.24-0.25,2.38-1.27,3.22c0.19,1.17,1.54,1.03,2.03,1.77
		c-2.63,3.63-6.73,3.88-10.65,4.55c0.16,0.98,0.87,0.84,1.36,0.82c1.55-0.06,3.1-0.21,4.74-0.34c-0.85,1.7-2.8,1.63-3.86,2.81
		c-0.1,0.11-0.22,0.36-0.17,0.42c0.15,0.19,0.36,0.36,0.59,0.47c0.12,0.05,0.31-0.03,0.46-0.09c0.45-0.17,0.89-0.36,1.33-0.54
		c4.6-1.8,7.42-1.03,11,3.08c-0.58,0.8-1.17,1.61-1.79,2.45c-0.75-0.1-1.51-0.2-2.24-0.29c-0.95,0.94,0.73,1.32,0.36,2.11
		c-1.81,0.93-1.81,0.93-5.78,0.84c-0.02,0.13-0.09,0.3-0.04,0.39c1.33,2.18,2.67,4.34,4,6.52c0.41,0.68,0.86,1.35,1.13,2.09
		c0.14,0.38-0.02,0.9-0.13,1.32c-0.1,0.35-0.41,0.36-0.79,0.22c-1.06-0.39-2.14-0.65-3.28-0.34c-0.04,1.02,0.86,2.25-1.32,2.79
		c2.09,1.14,3.61,1.93,5.08,2.79c1.26,0.73,2.39,1.57,2.68,3.19c0.11,0.58,0.63,1.09,0.97,1.63c0.25,0.4,0.57,0.84,0.22,1.28
		c-0.39,0.49-0.81,0.02-1.22-0.08c-0.94-0.23-1.09-0.13-1.14,0.76c-0.01,0.15,0.07,0.31,0.08,0.47c0.01,0.15-0.02,0.31-0.03,0.47
		c-0.54,0.72-1.15-0.01-1.72,0.09c-0.29,0.05-0.79,0.19-0.8,0.31c-0.07,1.03,0.19,2.13-0.92,2.84c-0.04,0.02,0.17,0.52,0.34,0.74
		c0.28,0.38,0.62,0.72,0.98,1.12c-0.48,0.58-0.94,1.14-1.39,1.69c4.25,4.58,6.08,8.1,7.32,14.1c-2.08-0.63-3.82-2.36-6.46-1.92
		c0.49,1.95,1.69,3.28,2.41,4.83c0.66,1.44,1.45,2.82,2.15,4.15c-0.37,0.55-0.68,0.75-1.23,0.57c-2.72-0.87-5.45-1.71-8.16-2.55
		c-2.11,2.28-2.11,2.28-1.8,6.76c-1.46-0.29-1.73-1.78-2.66-2.6c-0.14-0.13-0.55,0-0.82,0.07c-0.12,0.03-0.2,0.23-0.3,0.35
		c0.81,4.11,2.32,7.91,5.08,11.05c-0.5,1.03-1.14,0.27-1.67,0.33c-0.55,0.07-1.02,0.48-0.88,0.84c0.11,0.29,0.18,0.62,0.37,0.86
		c0.8,1.03,1.44,2.04,0.9,3.45c-0.13,0.35,0.21,0.91,0.41,1.34c0.46,0.96-0.35,1.42-0.74,2.04c0.06,1.7,1.4,2.86,1.81,4.38
		c-0.37,0.88-0.93,0.51-1.52,0.3c-0.43-0.16-0.9-0.21-1.35-0.26c-0.11-0.01-0.25,0.15-0.42,0.27c0.79,1.17,1.59,2.33,2.46,3.62
		c-1.76,0.48-3.34-1.09-4.77,0.19c0.23,2.66,3.6,3.23,3.81,5.8c-0.45,1.38-2.01,1.63-2.66,2.92c-0.22,1.39,0.46,3.09-0.96,4.39
		c-0.23,0.21-0.08,0.91,0.02,1.36c0.17,0.76,0.75,1.43,0.44,2.29c-1.08,0.49-1.35-1.18-2.42-0.97c-0.59,1.46,0.56,3.34-1.15,4.41
		c-0.5,1.63-2.16,1.66-3.28,2.43c-0.73-0.27-1.45-0.54-2.16-0.81c-0.28,0.45-0.52,0.85-0.77,1.26c-1.11-0.28-0.99-1.9-2.27-2.03
		c-0.71,0.29-0.72,0.98-0.66,1.59c0.17,1.91,0.37,3.82,0.63,5.72c0.16,1.15,0.04,2.2-0.51,3.24c-0.59,1.13-1.09,2.31-1.57,3.49
		c-0.42,1.03-0.76,2.1-1.15,3.21c-3.46,1.07-5.94,3.3-7.08,6.53c-1.52-0.22-1.17-1.02-1.29-1.55c-0.14-0.61-0.19-1.24-0.34-1.85
		c-0.09-0.38-0.4-0.49-0.76-0.36c-0.14,0.05-0.34,0.09-0.4,0.19c-0.23,0.4-0.43,0.82-0.62,1.25c-0.26,0.57-0.34,1.39-0.78,1.69
		c-1.15,0.79-1.51,2.01-2.14,3.1c-0.47,0.8-0.79,1.77-1.81,2.12l0.12,0.11c-0.45-0.14-0.89-0.29-1.37-0.44
		c-0.5,0.63-0.98,1.24-1.46,1.87c-0.3,0.4-0.64,0.73-1.19,0.5c-1.23-0.52-2.4,0.53-3.68,0.12c-0.41-0.13-1.06,0.49-1.6,0.77
		c-0.26-0.53-0.52-1.07-0.77-1.59c-1.13,0.36-1.46,1.32-1.89,2.1c-0.73,1.31-1.89,1.87-3.22,2.35c-0.18-0.52-0.27-1-0.5-1.41
		c-0.25-0.45-0.71-0.61-1.16-0.29c-0.24,0.17-0.41,0.48-0.54,0.76c-0.26,0.6-0.55,1.23-1.29,1.15c-0.4-0.04-0.77-0.46-1.19-0.73
		c-0.9,1.63-1.8,3.26-2.71,4.91c-0.21-0.03-0.58,0.03-0.78-0.13c-1.28-1.01-1.27-1.03-2.55-0.16c-0.27-0.14-0.67-0.21-0.8-0.44
		c-0.79-1.37-0.97-3.03-2.08-4.25c-1.68-0.09-2.76,0.86-3.59,2.49c-0.57-1.59-1.01-2.78-1.44-3.97c-1.81-0.78-1.68-2.51-2.03-4.04
		c-0.17-0.74-0.58-1.42-0.87-2.11c-1.09,0.23-1.07,1.8-2.4,1.5c-0.42-0.1-0.68,0.52-0.78,1.02c-0.12,0.61-0.3,1.21-0.45,1.78
		c-1.75,0.04-0.49-2.01-1.89-2.24c-0.2,0.9-0.41,1.81-0.62,2.73c-0.69-0.2-0.98-0.75-1.18-1.33c-0.53-1.51-1.08-3.01-1.54-4.54
		c-0.43-1.43-2.17-1.89-2.38-3.49c-0.16-1.26-0.53-2.49-0.83-3.72c-0.22-0.92-0.86-1.01-1.71-1.16c-0.65-0.11-1.08-1-2.03-0.91
		c-0.64,0.06-1.43-0.51-1.36-1.09c0.21-1.59-1.74-1.03-1.95-2.21c-0.17-0.92-0.67-1.79-1.02-2.68c-0.42-1.07-1.19-1.72-2.15-2.4
		c-1.22-0.86-1.57-2.66-2.99-3.58c-0.36,0.43-0.72,0.87-1.13,1.35c-0.56-0.52-1.12-1.05-1.74-1.62c-1.36,1.19-0.47,3.34-2.01,4.7
		c-0.83-1.92-1.61-3.66-2.34-5.42c-0.87-2.09-1.21-4.25-1.1-6.54c0.15-3.35,0.35-6.71-0.16-10.05c-0.07-0.47-0.12-0.93-0.62-1.16
		c-0.93,0-0.79,1.22-1.54,1.46c-0.46-1.17-0.42-2.57-1.99-2.91c-0.12-0.03-0.21-0.58-0.18-0.87c0.06-0.63,0.2-1.26,0.31-1.85
		c-0.31-0.77-1.54-0.32-1.65-1.39c-0.11-1.08-0.4-2.15-0.61-3.17c0.21-1.65,2.31-2.89,0.89-4.92c1.09-1.51,3.14-2.07,4.13-3.79
		c0.55-0.95,0.4-1.82-0.71-2.29c-0.43-0.18-0.91-0.23-1.37-0.35c-0.3-0.08-0.6-0.17-0.92-0.26c0.18-1.56,1.53-2.37,2.32-3.54
		c0.58-0.87,0.42-1.5-0.34-2.54c-0.63-0.85-1.39-1.27-2.42-1.33c-0.27-1.03,0.69-1.59,0.94-2.43c0.28-0.91-0.01-1.23-1.2-1.21
		c-0.44,0.01-0.87-0.04-1.57-0.08c0.45-1.5,1.12-2.82,1.2-4.18c0.1-1.63,1.83-2.24,1.9-3.79c-0.3-1.4-1.84-1.68-2.54-2.78
		c-0.02-1.19,0.42-2.11,1.66-2.5l-0.15-0.09c1.07,0.3,2.12,0.7,3.21,0.88c2.82,0.48,5.65,0.86,8.39,1.73
		c0.75,0.24,1.56,0.37,2.34,0.35c3.82-0.11,7.65-0.27,11.47-0.45c0.25-0.01,0.48-0.35,0.71-0.54c-1.82-2.36-1.88-2.41-1.9-4.95
		c-0.02-2.08,0.01-4.16,0.12-6.23c0.05-1.02,0.86-1.2,1.72-1.13l-0.16-0.15c4.47,5.95,11.04,9.79,17.94,10.72
		c6.92,0.94,13.74,0.2,20.44-1.4c5.27-1.25,10.57-2.49,15.61-4.58c0.39-0.16,0.88-0.1,1.51-0.16c0.29,2.99-0.35,5.74-0.89,8.28
		c-0.95,0.79-1.75,0.53-2.52,0.44c-1.58-0.18-3.16-0.43-4.75-0.57c-3.77-0.34-7.26,0.73-10.71,2.08c-2.35,0.92-4.05,2.5-5.26,4.66
		c-0.93,1.66-1.83,3.35-2.69,4.93c-1.15,0.32-1.53-0.51-2.06-1c-6.76-6.27-14.78-9.22-23.96-9.38c-4.32-0.07-8.11,1.23-11.66,3.5
		c0.22,1.14,0.99,0.82,1.4,0.62c5.17-2.53,10.52-2.02,15.96-1.23c7.93,1.16,14.33,5.09,19.92,10.6c0.22,0.21,0.53,0.32,0.83,0.49
		c1.05-0.65,1-1.86,1.4-2.83c0.79-1.94,1.83-3.69,3.17-5.32c2.73-3.3,6.4-4.8,10.45-5.24c5.49-0.6,10.83,0.09,15.63,3.2
		c0.39,0.26,0.86,0.24,1.31-0.26c-0.6-0.85-1.22-1.74-1.87-2.66c5.24-1.27,6.79-1.86,11.63-4.41c0.44-0.23,0.74-0.56,0.62-1.11
		c0.14-0.03,0.28-0.06,0.42-0.09c-0.1,0.12,0.91-0.18,0.07,0.2C361.5,276.43,361.33,276.29,361.21,276.24z M314.65,321.4
		c0.34-0.5,0.61-0.72,0.65-0.97c0.94-6.61,1.87-13.23,2.77-19.85c0.11-0.78,0.05-1.59,0.03-2.39c-0.01-0.31-0.08-0.62-0.16-0.92
		c-0.04-0.14-0.18-0.38-0.27-0.37c-0.27,0.02-0.71,0.07-0.76,0.22c-1.29,4.06-2.79,16.51-2.58,21.24
		C314.38,319.29,314.53,320.22,314.65,321.4z"/>
	<path class="st0" d="M32.01,953.72c3.34-7.2,7.21-14.13,10.8-21.44c-2.11-0.36-2.42,1.85-4.06,1.88c0-2.22,1.02-4.13,2-6.04
		c2.25-4.41,4.54-8.8,6.76-13.23c0.71-1.42,1.27-2.93,1.85-4.41c0.1-0.25-0.06-0.6-0.12-1.08c-2.21,0.93-2.9,3.29-4.56,4.6
		c-1.64,1.3-2.52,3.22-4.07,4.68c-0.09-0.43-0.28-0.77-0.19-1c1.35-3.43,2.98-6.72,5.33-9.59c0.2-0.25,0.4-0.5,0.59-0.76
		c3.08-4.14,3.08-4.14,5.13-9.62c-0.93-0.71-2.12-1.04-2.37-2.57c-0.15-0.92-1.23-1.36-2.32-1.2c-1.46,0.21-2.74,0.74-3.93,1.63
		c-0.95,0.71-1.74,1.8-3.1,1.96c-0.2-0.91,0.36-1.32,0.68-1.8c1.65-2.52,3.71-4.75,4.66-7.75c0.4-1.29,1.62-2.32,2.56-3.58
		c-0.59-0.14-1.03-0.32-1.47-0.34c-0.49-0.02-0.9-0.1-1.27-0.68c2.09-2.93,4.32-5.84,6.32-8.91c2.54-3.91,5.58-7.37,8.79-10.73
		c1.53-1.6,3.21-3,4.26-5.1c0.67-1.33,2.2-2.28,3.45-3.27c2.12-1.69,4.26-3.39,6.5-4.91c7-4.76,13.66-10.02,20.94-14.39
		c0.52-0.31,1.21-0.83,1.26-1.31c0.13-1.36,1.05-1.89,2.04-2.42c2.39-1.27,4.58-2.94,7.29-3.56c0.3-0.07,0.73-0.2,0.84-0.43
		c0.99-2.15,3.45-2.79,4.72-4.63c0.08-0.12,0.13-0.38,0.06-0.45c-0.18-0.2-0.42-0.44-0.67-0.49c-0.96-0.17-1.89,0-2.81,0.37
		c-0.86,0.36-1.73,0.87-2.72,0.37c0.1-0.25,0.11-0.62,0.29-0.73c2.03-1.27,4.09-2.49,6.13-3.75c0.4-0.25,0.72-0.62,1.07-0.94
		c0.49-0.45,0.26-1.28-0.43-1.45c-0.6-0.15-1.21-0.21-1.81-0.31c0.09-0.79,0.63-1.09,1.22-1.39c4.56-2.34,9.4-3.99,14.24-5.65
		c3.02-1.04,6.13-1.74,9.29-2.3c2.62-0.46,5.17-1.25,7.9-1.93c-0.38-0.44-0.64-0.74-0.9-1.04c0.05-0.36,0.27-0.49,0.67-0.49
		c1.27,0.01,2.55,0.05,3.82-0.01c1.01-0.05,1.49-1.28,0.81-2.18c-0.35-0.46-0.95-0.72-1.99-1.46c2.24-0.18,3.68-0.21,5.09-0.44
		c0.92-0.15,1.82-0.53,2.69-0.9c0.55-0.23,0.54-0.81,0.23-1.2c-0.36-0.47-0.88-0.83-1.49-1.38c0.68-0.39,1.18-0.81,1.75-0.97
		c1.07-0.31,2.19-0.46,3.29-0.68c2.75-0.55,2.75-0.55,4.75-2.94c5.92-0.62,11.99-0.31,18.06-0.36c6.09-0.05,12.09,0.87,18.07,1.59
		c0.89-0.96,1.69-1.93,3.08-1.97c-0.18-0.24-0.33-0.5-0.54-0.7c-0.27-0.26-0.36-0.66-0.03-0.75c0.59-0.17,1.25-0.09,1.88-0.16
		c1.68-0.2,1.91-0.94,0.84-2.63c-0.09-0.13-0.19-0.26-0.38-0.52c1.19-1.74,2.48-3.36,5.02-3.58c1.27,5.41,2.59,10.81,3.43,16.34
		c0.58,3.82,0.7,7.63,0.96,11.45c0.08,1.19-0.47,1.84-1.59,1.95c-5.73,0.6-11.41,1.44-16.99,2.87c-1.57,0.4-3.13,0.39-4.73,0.16
		c-1.84-0.26-3.7-0.41-6.25,0.44c7.04,0.94,13.23,2.44,19.39,4.04c0.57,0.15,1.3,0.05,1.65,0.77c-0.61,0.64-1.41,0.44-2.11,0.37
		c-6.23-0.66-12.46-0.25-18.68,0.13c-6.55,0.39-13.05,1.37-19.38,3.05c-10.04,2.66-19.9,5.93-29.17,10.73
		c-1.7,0.88-3.31,1.93-4.93,2.94c-0.4,0.25-0.62,0.7-0.42,1.41c5.19,0.01,10.54-1.82,16.09,0.53c-9.61,2.17-18.4,5.49-26.86,9.69
		c-4.59,2.28-8.78,5.23-13,8.12c-5.15,3.53-9.94,7.53-14.45,11.84c-3.7,3.53-6.96,7.44-9.44,11.87c0.17,0.26,0.31,0.51,0.32,0.5
		c4.78-2.43,9.32-5.32,14.24-7.62c0.44,0.94-0.3,1.19-0.67,1.52c-7.88,7.08-14.79,15.03-20.94,23.64
		c-4.1,5.74-7.63,11.82-10.86,18.07c-3.39,6.57-5.42,13.66-6.76,20.91c-0.34,1.85-0.05,3.81-0.05,5.22
		c-0.37,0.78-0.45,1.11-0.65,1.34c-3.91,4.49-6.91,9.58-9.84,14.72c-1.03,1.81-2.05,3.61-3.13,5.39c-0.77,1.27-1.79,2.25-3.36,2.39
		c-0.83-0.31-0.58-0.99-0.6-1.58c-0.03-1.15-0.07-1.14-1.35-2.37c-3.57,1.6-3.57,5.77-5.72,8.45c-0.93-1.08-0.47-2.02-0.16-2.87
		c1.27-3.45,2.61-6.87,3.95-10.29c0.94-2.38,1.81-4.79,2.13-7.34c0.03-0.2-0.33-0.48-0.55-0.67c-0.1-0.09-0.33-0.13-0.46-0.08
		c-0.29,0.12-0.59,0.27-0.82,0.48c-0.93,0.87-1.8,1.8-2.77,2.62c-0.3,0.25-0.86,0.17-1.31,0.25L32.01,953.72z"/>
	<path class="st0" d="M327.6,620.72c6.8-3.43,8.97-7.46,11.36-14.84c0.26,0.11,0.63,0.16,0.75,0.36c1.19,2.07,2.35,4.17,3.5,6.27
		c1.08,1.97,1.78,4.03,2.22,6.27c1.22,6.11,2.61,12.19,4.17,18.21c1.43,5.54,1.58,11.08,0.47,16.62c-0.92,4.58-3.69,8.09-7.46,10.78
		c-4.02,2.88-8.56,3.3-13.29,2.56c-1.76-0.27-3.34-1.07-4.81-2.05c-2.39-1.6-4.76-3.23-7.15-4.83c-0.39-0.26-0.84-0.43-1.27-0.64
		c-0.8,3.15-1.56,4.31-3.91,5.7c-3.82,2.25-7.85,3.52-12.35,2.67c-1.57-0.3-3.19-0.37-4.73-0.75c-4.5-1.13-8.11-3.4-10.58-7.58
		c-2.61-4.41-3.78-9-3.87-14.12c-0.11-6.86,1.23-13.28,3.87-19.58c2.11-5.01,4.35-9.94,7.07-14.5c-0.41-0.88-1.28-1.45-0.75-2.32
		c1.33-2.18,2.71-4.33,4.1-6.48c0.25-0.39,0.63-0.69,0.95-1.02c1.06,0.56,1.1,1.57,1.24,2.47c0.45,3.05,1.69,5.81,2.96,8.57
		c0.89,1.93,2.27,3.41,3.77,4.67c0.62-0.12,0.7-0.32,0.5-0.67c-1.23-2.23-2.55-4.43-3.66-6.72c-2.29-4.72-2.98-9.73-2.5-14.94
		c0.23-2.43,0.84-4.72,2.08-6.82c1.05-1.79,2.11-3.58,3.23-5.33c1.12-1.77,2.55-3.25,4.32-4.42c1.32-0.88,2.55-1.91,3.71-2.99
		c2.57-2.4,5.45-3.22,8.8-1.96c2.39,0.91,4.75,1.89,6.88,3.35c1.87,1.28,3.55,2.64,3.84,5.19c0.12,1.04,0.91,2.01,1.42,3
		c0.73,1.42,1.45,2.85,2.23,4.24c1.83,3.3,2.45,6.95,2.76,10.59c0.49,5.89-1.78,10.92-5.66,15.25c-1.17,1.31-2.49,2.48-3.69,3.77
		C327.7,619.14,327.18,619.62,327.6,620.72z M325.52,630.07c-1.37-0.55-2.74-0.13-4.22-0.02c-0.81,0.9-1.66,1.82-2.49,2.76
		c-0.03,0.04,0.1,0.22,0.17,0.36c0.96,0.34,1.29-0.59,1.87-0.99c0.53-0.37,1.07-0.55,1.7-0.7c0.74-0.17,1.42-0.59,2.11-0.94
		c0.27-0.14,0.49-0.39,0.73-0.59c0.48-0.59,0.96-1.18,1.42-1.78c0.04-0.05-0.07-0.27-0.16-0.34c-0.09-0.07-0.31-0.11-0.38-0.05
		C325.56,628.39,324.78,628.99,325.52,630.07z M317.83,579.6c-0.73,2.1-2.22,2.85-3.33,3.97c-2.33,2.32-3.91,5.08-4.2,8.36
		c-0.36,4.13,0.58,5.58,3.47,7.09c0.56,0.29,1.12,0.6,1.7,0.87c3.43,1.63,8.63-1.23,8.62-5.47c0-3.9-0.57-7.61-3.09-10.78
		C320.11,582.53,319.24,581.4,317.83,579.6z M314.35,632.23c-0.87-1.64-2.06-3.07-3.66-4.04c-0.69-0.42-1.67-0.84-2.49,0.27
		c1.15,1.47,2.43,2.83,3.93,3.95C312.78,632.9,313.56,633,314.35,632.23z"/>
	<path class="st0" d="M510.32,616.88l-0.26-0.32c-1.42-2.33-3.2-4.34-5.15-6.23c-4-3.88-8.02-7.73-12.32-11.29
		c-3.81-3.15-7.72-6.14-11.89-8.79c-3.36-2.13-6.66-4.35-10.08-6.39c-2.73-1.62-5.6-3-8.39-4.53c-0.65-0.36-1.56-0.49-1.63-1.5
		l-0.1,0.11c1.78-0.37,3.49,0.06,5.2,0.48c3.1,0.76,6.19,1.57,9.31,2.25c0.88,0.19,1.74,0.8,2.71,0.43c0-0.29,0.1-0.62-0.02-0.83
		c-0.15-0.25-0.45-0.44-0.73-0.58c-9.48-4.97-19.2-9.42-29.15-13.39c-6.55-2.62-13.3-4.52-20.07-6.37c-4.31-1.18-8.72-2-13.22-2.18
		c-0.78-0.03-1.56-0.19-2.23-0.28c-2.91-5.67-3.92-11.45-3.38-19.39c1.66-1.27,3.64-1.43,5.73-0.98c4.06,0.87,8.24,1.42,12.14,2.76
		c3.44,1.18,7.15,1.74,10.32,3.85c0.25,1.24,0.18,2.7,2,3.17c1.57,0.41,3.14,0.51,4.74,0.55c1.27,0.04,2.55,0.1,3.8,0.28
		c0.55,0.08,1.19,0.34,1.24,1.32c-2.04,0.09-4.09,0.17-7.18,0.3c6.13,2.05,11.6,2.28,16.73,3.83c0.34,0.93-0.8,0.83-0.89,1.39
		c-0.04,0.26,0.07,0.76,0.23,0.81c2.42,0.78,4.83,1.57,7.42,1.62c1.74,0.03,3.53,0,5.18,1.3c-1.63,0.91-3.52,0.1-4.98,1.05
		c-0.12,0.08-0.3,0.24-0.29,0.34c0.04,0.27,0.11,0.69,0.27,0.75c0.6,0.2,1.23,0.34,1.86,0.37c1.44,0.07,2.88,0.06,4.32,0.07
		c1.44,0.02,2.88-0.04,4.32,0.05c2.99,0.19,3.9,0.42,5.76,2.8c1.14,1.46,2.42,2.44,4,3.21c0.42,0.2,0.77,0.51,1.12,0.75
		c-0.36,0.3-0.7,0.6-0.9,0.77c-0.15,0.83,0.33,1.09,0.7,1.27c1.71,0.87,3.45,1.66,5.17,2.49c2.3,1.11,4.65,2.15,6.6,4.2
		c-1.76,0.12-3.03-0.83-4.41-1.36c-1.34-0.52-2.62-1.21-3.98-1.64c-1.44-0.45-2.86-1.34-4.54-0.8c0.39,0.93,1.06,1.35,1.79,1.7
		c1.72,0.84,3.42,1.74,5.17,2.5c3.38,1.48,6.64,3.13,9.62,5.34c1.13,0.84,2.44,1.45,3.65,2.16c0.53,1.21,0.58,2.48,0.68,3.76
		c0.38,4.94,0.66,9.9,1.31,14.8c0.42,3.15,1.31,6.25,2.23,9.3c0.8,2.65,2.45,4.86,4.7,6.51c1.44,1.05,2.64,2.27,3.79,3.61
		c1.35,1.56,3.01,2.86,4.44,4.37c2.53,2.68,5.99,3.57,9.23,4.85c1.2,0.47,2.5,0.17,3.76-0.21c1.85-0.55,3.45-1.61,5.02-2.56
		c2.85,2.07,5.97,5.93,9.56,11.75c-0.16,0.44-0.36,0.45-0.74,0.17c-1.02-0.77-2.07-1.49-3.11-2.22c-0.5-0.35-1.26-0.32-1.23,0.03
		c0.03,0.44,0.07,0.97,0.32,1.27c0.71,0.85,1.51,1.63,2.33,2.39c0.7,0.65,1.51,1.19,2.19,1.85c0.41,0.4,0.68,0.96,1.03,1.46
		c-0.59,0.27-1.01,0.47-1.43,0.66c0.13-0.58-0.19-0.8-0.7-0.83c-0.12-0.01-0.28,0.08-0.37,0.18c-0.19,0.22-0.08,0.47,0.31,0.57
		c0.26,0.07,0.57-0.01,0.85-0.02c-0.04,0.96,0.73,1.35,1.36,1.77c1.73,1.15,3.28,2.45,4.68,4.02c1.79,2.01,3.92,3.73,5.89,5.58
		c0.83,0.78,1.47,1.63,1.46,2.87c-0.01,1.7,1.5,2.79,1.87,4.32c0.26,1.04,0.45,2.25-1.11,2.66c-0.22,0.06-0.56,0.54-0.5,0.63
		c1,1.71-0.43,3.53,0.51,5.4c2.05,4.11,3.36,8.53,4.03,13.11l0.1-0.08c-0.54,0.11-0.82-0.27-1.19-0.57
		c-0.76-0.63-0.92-2.11-2.4-1.75c-0.53,1.28,0.58,2.05,0.97,3.04c0.7,1.77,1.47,3.52,2.18,5.28c0.04,0.09-0.14,0.27-0.23,0.43
		c-1.23,0.35-1.83-1.05-2.92-1.08c-0.39,0.38-0.46,0.87-0.21,1.29c0.49,0.82,1.05,1.6,1.63,2.37c1.85,2.43,3.28,5.01,4.17,8
		c1.14,3.81,2.84,7.46,4.23,11.2c0.49,1.31,1.1,2.62,1.16,4.18c-0.9-0.38-1.62-0.69-2.52-1.06c-0.04,4.21,2.77,7.47,3.53,11.26
		c-0.32,0.15-0.47,0.27-0.51,0.23c-0.5-0.38-1.06-0.73-1.46-1.2c-1.04-1.21-2.01-2.48-2.97-3.68c-0.57,0.03-1.04,0.05-1.65,0.09
		c-0.26-0.25-0.69-0.52-0.92-0.9c-5.57-9.33-11.17-18.64-16.14-28.31c-0.66-1.27-1.33-2.57-1.76-3.93
		c-3.61-11.31-8.93-21.87-14.34-32.38c-4.11-7.97-8.89-15.53-14.3-22.68c-1.16-1.53-2.19-3.15-3.36-4.67
		c-1.61-2.1-2.7-4.35-2.37-6.96c-0.98-1.44-1.96-2.68-3.38-3.49C512.89,619.19,511.5,618.11,510.32,616.88z"/>
	<path class="st0" d="M303.06,65.45c0.96-0.14,1.9-0.2,2.82,0.23c1.13,0.52,2.19,1.23,3.69,1.24c-0.6-0.77-1.39-1.36-1.58-2.11
		c-0.36-1.46-0.79-3.06,0.87-4.24c0.41-0.29,0.44-1.1,0.67-1.76c0.75-0.05,1.55-0.05,2.33-0.15c0.66-0.09,1.19-0.44,1.46-1.09
		c0.23-0.55-0.33-0.81-0.46-1.22c-0.15-0.44-0.27-0.91-0.26-1.36c0-0.23,0.45-0.67,0.47-0.65c1.45,0.87,2.28,0,3.06-1.04
		c1.47,0.76,1.72-0.54,2.54-1.24c0.85-0.74,2.16-1.05,3.17-1.76c0.29-0.21,0.93-0.05,1.36,0.08c0.86,0.25,1.49,1.24,2.58,0.84
		c0.58-1.6-0.11-3.4,0.58-5.06c1.05,0.41,1.13,1.31,1.61,1.9c0.59,0.75,1.11,1.56,1.71,2.31c0.5,0.62,1.08,1.18,1.63,1.75
		c2,2.09,4.25,3.86,6.63,5.5c2.55,1.76,5.26,2.98,8.42,3.05c0.78,0.02,1.56,0.22,2.24,0.32c1.37,2.43,1.37,2.43,3.53,2.8
		c0.11,0.42,0.23,0.86,0.39,1.45c2.11,1.19,4.23,2.56,6.79,3.14c2.44,0.55,4.1,2.03,5.04,4.5c0.61,1.63,1.81,3.03,3.91,3.04
		c0.45,0,0.98,0.15,1.34,0.41c2.06,1.54,3.97,3.36,5.12,5.59c0.88,1.71,1.95,3.26,2.97,4.83c1.11,1.69,1.78,3.35,1.27,5.39
		c-0.15,0.59-0.09,1.24-0.14,1.96c-0.87-0.18-1.59-0.34-2.31-0.49c-1.13,1.38-1.13,1.37-2.63,0.83c-0.28-0.1-0.6-0.09-0.89-0.13
		c0.12-0.39,0.24-0.78-0.31-0.93c-0.02-0.01-0.18,0.26-0.15,0.29c0.17,0.19,0.38,0.35,0.58,0.53c0.22,1.03,0.44,2.05,0.66,3.08
		c0.26,1.17,0.78,2.31,0.34,3.54l0.08-0.07c-1.5,0.49-1.5,0.49-2.16-0.62c-0.13-0.22-0.31-0.4-0.61-0.77
		c-0.13,2.21-0.17,4.25-0.4,6.26c-0.22,1.9-0.64,3.78-1,5.84c-0.51,0.45-1.19,0.9-1.66,1.51c-0.85,1.1-1.85,1.57-3.25,1.47
		c-0.54-0.04-1.12,0.46-1.68,0.71c0,0,0.1,0.09,0.1,0.09c-0.21-1.62,0.11-3.18,0.52-4.73c0.29-1.09,0.42-2.19,0-3.55
		c-0.64,1.94-1.08,3.75-2.21,5.33c-0.56,0.07-1.17,0.14-1.79,0.22c-2.05,1.44-1.95,4.28-3.68,5.91c-0.83-0.43-0.7-1.08-0.68-1.67
		c0.04-0.98-0.03-1.76-1.11-2.36c-1.16-0.63-1.59-1.91-1.7-3.26c-0.05-0.61-0.27-1.22-0.52-1.78c-0.11-0.25-0.49-0.56-0.73-0.55
		c-0.43,0.03-1.01,0.17-1.23,0.47c-0.45,0.64-0.68,1.44-1.06,2.13c-0.19,0.35-0.52,0.64-0.98,1.17c-0.26-1.35-0.47-2.43-0.67-3.52
		c-1.38,0.16-1.11,1.33-1.38,2.13c-0.31,0.91-0.64,1.79-1.44,2.76c-1.67-3.28-2.58-6.71-4.77-9.46c-1.27-1.6-2.57-3.18-4.35-5.39
		c0.49,2.98,0.89,5.15,1.18,7.34c0.27,2.05,0.42,4.12,0.62,6.15c-0.79,0.66-1.46,1.23-2.23,1.87c-0.22,0.09-0.39-0.09-0.64-0.39
		c-2.36-2.86-5.34-5.02-8.32-7.16c-0.72-0.52-1.82-0.81-2.33,0.52c-0.13,0.33-0.39,0.46-0.75,0.27c-1.19-0.64-1.22,1.4-2.33,0.98
		c-0.44-0.16-0.94-0.16-1.38-0.23c-3.36-4.22-3.9-5.71-5.49-15.3c-0.52,1.81-0.35,3.36-0.3,4.89c0.03,0.95,0.27,1.91-0.19,2.83
		l0.07-0.05c-1.58,0.78-1.86,2.41-2.46,4.15c-0.43-0.97-0.85-1.64-1.03-2.36c-0.36-1.47-0.97-2.63-2.49-3.22
		c-0.56-0.22-1-0.76-1.45-1.2c-0.7-0.68-1.18-1.46-1.21-2.49c-0.02-0.74-0.17-1.48-0.64-2.23c-0.21,1.23-0.42,2.45-0.63,3.65
		c-1.86,0.17-2.5-0.72-2.63-2.4c-0.07-0.96-1.1-1.15-1.76-0.42c-0.52,0.58-0.96,1.23-1.45,1.86c-0.87-0.73-0.19-1.97-1.43-2.68
		c-0.47,0.71-1,1.49-1.7,2.52c-1.83-2.65-0.6-5.91-3.04-7.45c0.17-2.62,0.95-4.67,1.98-6.65c0.37-0.7,0.83-1.35,0.65-2.21
		c1.34-0.04,1.62-0.93,1.68-2.13c-1.13,0.4-1.8,1-1.59,2.23c-0.75,0.01-1.06,0.6-1.42,1.1c-1.7,2.36-2.61,5.06-3.45,7.81
		c-0.53,1.75-1.45,2.1-3.29,1.34c-0.27-0.11-0.41-0.49-0.66-0.67c-0.62-0.45-1.16,0.18-1.79,0.18c-1.35-0.6-0.49-2.42-1.67-2.82
		c0-1.51,0.58-2.48,1.23-3.37c1.68-2.32,3.37-4.62,5.18-6.83c0.92-1.12,1.74-2.25,2.21-3.63c0.46-0.58,0.93-1.16,1.39-1.74
		c1.6,0.13,2.53-0.82,3.28-2.06l-0.2,0.15c2.97-0.65,5.44-2.3,7.9-3.96L303.06,65.45z"/>
	<path class="st0" d="M264.43,244.61c-0.48,0.07-1.19,0.1-1.09-0.48c0.26-1.52-0.9-1.35-1.7-1.65c-0.31-0.25-0.35-0.53-0.14-0.85
		c1.04-1.54,1.55-3.13,0.36-4.84c0.19-1.22-0.83-2.01-1.09-3.08c-0.19-0.79-0.2-1.5,0.02-2.32c0.45-1.67,0.05-2.04-1.51-1.79
		c-0.58,0.1-1.1,0.73-1.93,0.11c0.83-1.25,1.95-2.41,2.43-3.8c0.5-1.46,1.43-2.44,2.48-3.42c-0.67-0.56-1.18-0.08-1.74,0.07
		c-1.53,0.43-3.07,0.8-4.61,1.21c-2.36,0.63-3.76-1-5.31-2.26c-0.07-0.06-0.02-0.32,0.03-0.46c0.51-1.31-0.33-1.65-1.34-1.91
		c-0.28-0.07-0.51-0.3-0.76-0.46c-0.06-0.14-0.19-0.3-0.16-0.43c0.83-3.75,0.84-3.75,4.2-5.78c0.67-0.41,1.32-0.85,2-1.28
		c-0.42-0.96-0.97-0.53-1.44-0.3c-1.43,0.7-2.84,1.43-4.27,2.14c-0.56,0.28-1.29-0.25-1.1-0.93c0.24-0.85,0.08-1.37-0.53-2.07
		c-0.93-1.07-0.8-1.63-0.07-2.47c0.85-0.99,0.85-0.99,0.15-2.17c-0.08-0.14-0.14-0.28-0.26-0.52c0-1.46,1.51-2.3,1.74-3.74
		c0.47-0.14,0.92-0.32,1.39-0.39c1.61-0.25,3.18,0.08,4.74,0.42c1.87,0.41,3.73,0.85,5.61,1.22c0.76,0.15,1.57,0.33,2.41-0.22
		c-0.38-0.29-0.7-0.68-1.1-0.8c-1.06-0.32-2.16-0.53-3.25-0.78c-4.12-0.95-4.06-0.99-6.97-5.46c-0.59-0.91-1.59-1.46-1.3-2.79
		c0.07-0.34-0.37-0.84-0.66-1.2c-0.7-0.86-1.46-1.69-2.24-2.58c0.31-0.35,0.83-0.93,1.37-1.54c0.44-0.81-0.84-1.46-0.38-2.15
		c0.92-1.38,0.34-1.98-0.95-2.42c-0.28-0.1-0.5-0.35-0.81-0.59c1.09-1.52,2.35-2.97,2.69-5.04c2.09-1.06,4.22-2.13,6.37-3.22
		c-0.53-1.45-0.07-2.79-0.06-4.08c0.74-0.27,1.47-0.13,1.88-0.99c-0.64-1.88-2.68-2.86-3.7-4.78c0.96-0.48,1.97-0.86,2.83-1.44
		c0.64-0.44,1.05-1.19,1.65-1.71c0.71-0.61,0.47-1.47,0.71-2.19l-0.09,0.1c0.72-0.61,1.96-0.3,2.4-1.38c-0.29-1-1.36-1.25-1.92-1.98
		c0.04-0.29-0.01-0.66,0.15-0.83c0.65-0.69,1.36-1.34,2.07-1.98c0.35-0.32,0.73-0.59,1.12-0.87c0.13-0.09,0.29-0.14,0.44-0.18
		c1.83-0.52,3.67-1.04,5.51-1.53c0.11-0.03,0.28,0.13,0.62,0.31c-0.93,2-2.47,3.65-3.41,5.63c-1.02,2.16-2.01,4.34-2.93,6.55
		c-0.86,2.06-1.6,4.17-2.42,6.25c-0.81,2.08-1.34,4.21-1.68,6.38c1.34,0.63,1.91-0.36,2.65-0.74c0.71-0.36,1.36-0.84,2.02-1.28
		c0.8-0.53,1.57-1.1,2.38-1.61c0.67-0.42,1.37-0.79,2.22-0.62c0.64,1.09,0.19,2.16-0.1,3.23c-0.3,1.08-0.57,2.15-0.41,3.3
		c0.09,0.7,0.95,1.44,1.7,1.4c0.31-0.02,0.67,0.05,0.94-0.07c2.91-1.38,5.92-0.63,8.93-0.66c0.07,0.96,0.12,1.71,0.18,2.5
		c0.76,0.24,1.5,0.47,2.39,0.75c1.09,2.21,1.96,4.59,2.69,7.02c0.31,1.01-0.11,1.87-1.1,2.45c0.36,1.02,0.73,2.04,1.08,3.04
		c-0.51,0.48-0.93,0.15-1.3-0.1c-0.43-0.3-0.86-0.42-1.32-0.16c-0.42,0.23-0.37,0.98,0.01,1.71c0.98,1.88,2.36,3.4,4.1,4.6
		c0.52,0.36,1.07,0.68,1.64,1.05c1.03,3.48,2.24,6.9,2.7,10.54c-1.59,0.07-1.37-1.98-2.76-1.87c-0.3,1.23-0.27,1.88,0.42,3.86
		c0.41,1.16,0.76,2.32,1.48,4.07c-1.53-0.92-2.42-1.46-3.42-2.06c0.11,2.07,1,5.97,1.72,6.95c2.31,3.08,3.1,6.54,3.01,10.35
		c-0.07,2.7,0.23,5.42,0.36,8.12c0.06,1.27,0.1,2.55,0.2,3.82c0.16,2.11-0.26,4.05-1.1,6.03c-2.26,5.33-3.59,10.91-3.68,16.73
		c-0.04,2.39,0.15,4.78,0.22,7.18c0.03,1.1,0.01,2.19,0.01,3.3c-0.61,0.25-1.04,0.57-1.46,0.57c-7.17-0.11-14.33-0.37-21.49-0.82
		l0.15,0.09c-0.75-0.26-1.48-0.61-2.25-0.75c-1.11-0.2-2.04-0.03-3.04,0.84c-1.72,1.51-3.94,1.83-6.19,1.71
		c-0.45-1.96,1.51-2.91,1.44-4.54c-0.36-0.44-0.81-0.39-1.27-0.23c-1.8,0.65-3.58,1.33-5.39,1.94c-0.41,0.14-0.9,0.02-1.41,0.02
		c0.75-2.33,1.67-3.99,3.05-5.24c1.3-1.18,2.7-2.25,4.03-3.4c2.18-1.88,4.36-3.74,6.48-5.68c0.69-0.63,1.22-1.46,1.73-2.26
		c0.42-0.66,0.93-1.46,0.34-2.2c-0.34-0.43-1.02-0.59-1.53-0.87c0.24-1.46,2.1-1.59,2.27-3.26c-0.12-0.95-1.41-0.87-1.85-1.37
		c0-1.24,0-2.29,0-3.56c1.07-0.89,2.33-1.87,3.51-2.94c0.3-0.27,0.34-0.82,0.49-1.24c0.4,0.23,0.8,0.48,1.2,0.01
		c0.01-0.01-0.19-0.27-0.23-0.25C265,244.34,264.72,244.48,264.43,244.61z"/>
	<path class="st0" d="M317.58,466.42c0-3.18,0-6.36,0-9.42c0.53-0.67,1.14-0.78,1.8-0.76c2.39,0.08,4.78,0.16,7.18,0.23
		c1.28,0.04,2.55,0.09,3.83,0.11c4.15,0.07,8.3,0.17,12.46,0.2c1.43,0.01,2.87-0.1,4.3-0.23c4.93-0.44,9.86-0.91,14.79-1.35
		c0.79-0.07,1.61-0.11,2.38,0.03c0.35,0.06,0.79,0.56,0.88,0.93c0.15,0.6,0.1,1.27,0.03,1.9c-0.67,5.87-1.36,11.73-2.07,17.6
		c-0.04,0.3-0.25,0.58-0.43,0.99c-2.86,1.24-6.06,1.58-9.15,2.23c-9.08,1.91-18.3,2.84-27.53,3.6c-2.85,0.24-5.74-0.01-8.61-0.02
		c-1.1-0.01-1.73-0.69-2.34-1.58c-0.35,0.55-0.69,1.06-1.02,1.57c-14.32-1.12-28.54-2.79-42.16-6.28c-1.01-0.78-1.1-1.61-1.21-2.38
		c-0.95-6.96-1.44-13.97-1.88-20.98c-0.05-0.77,0.11-1.57,0.28-2.34c0.05-0.24,0.43-0.53,0.69-0.57c0.45-0.07,0.94-0.02,1.39,0.07
		c3.9,0.86,7.81,1.63,11.67,2.63c5.44,1.4,11,1.88,16.56,2.36c4.93,0.42,9.87,0.78,14.8,1.19c0.29,0.02,0.55,0.27,1.01,0.51
		c0.44,2.68,0.89,5.49,1.35,8.3c0.11,0.67,0.41,1.18,1.13,1.35c-0.2,0.36-0.37,0.73,0.08,1.03c0.01,0.01,0.22-0.19,0.2-0.23
		C317.88,466.87,317.72,466.65,317.58,466.42z"/>
	<path class="st0" d="M366.17,406.11c0.63,0.63,0.51,1.47,0.5,2.24c-0.11,7,0.38,14.02-0.36,20.65c-0.6,0.97-1.26,0.99-1.88,1.09
		c-3.94,0.63-7.87,1.34-11.82,1.89c-8.56,1.18-17.18,1.33-25.81,1.15c-3.03-0.06-6.06-0.24-9.09-0.27c-1.6-0.02-2.3-0.84-2.48-2.32
		c-0.72,0.98-1.03,2.14-2.81,1.92c-3.95-0.49-7.95-0.6-11.93-0.93c-4.46-0.37-8.82-1.33-13.2-2.22c-5.47-1.11-10.98-2.05-16.46-3.08
		c-2.11-0.4-2.55-0.84-2.57-2.75c-0.04-4.15-0.04-8.31,0.01-12.46c0.01-1.08-0.08-2.26,0.87-3.29c1.65,0.16,3.38,0.29,5.11,0.5
		c7.3,0.86,14.61,1.53,21.94,1.88c3.35,0.16,6.68,0.5,10.03,0.67c5.91,0.31,11.8,0.06,17.7-0.51c5.72-0.55,11.46-0.86,17.18-1.45
		c6.34-0.66,12.66-1.52,18.99-2.31c1.74-0.22,3.48-0.49,5.22-0.69C365.57,405.8,365.87,406.01,366.17,406.11z"/>
	<path class="st0" d="M389.73,682c0.44-0.37,0.9-0.27,1.34-0.07c8.75,3.88,17.43,7.93,25.89,12.43c4.1,2.18,7.95,4.74,11.7,7.47
		c1.16,0.85,2.31,1.72,3.5,2.52c0.81,0.54,1.74,0.77,2.72,0.78c1.39,0.01,2.61-0.94,2.55-2.27c-0.3-6.6,1.18-13.02,1.84-19.52
		c0.68-6.66,1.41-13.31,2.11-19.87c0.73-0.26,1.19-0.01,1.3,0.41c1.36,5.25,2.62,10.53,3.41,15.9c0.53,3.63,1.01,7.26,1.5,10.9
		c0.06,0.47,0.13,0.96,0.08,1.43c-0.59,5.6,0.49,11.13,0.73,16.69c0.04,0.95,0.04,1.95,0.31,2.85c1.32,4.41,0.72,8.84,0.4,13.3
		c-0.49,6.84-0.84,13.69-1.26,20.53c-0.02,0.29-0.19,0.57-0.29,0.86c-0.74,0.34-1.18-0.08-1.57-0.61c-2.17-2.96-4.32-5.94-6.52-8.88
		c-4.22-5.64-9.18-10.63-13.88-15.85c-6.74-7.47-13.56-14.86-20.41-22.23c-4.68-5.03-9.47-9.94-14.21-14.91
		C390.46,683.31,389.78,682.86,389.73,682z"/>
	<path class="st0" d="M249.41,673.79c-0.3,0.53-0.58,1.08-0.9,1.6c-2.46,3.92-4.9,7.85-7.42,11.73c-1.65,2.54-3.39,5.02-5.14,7.5
		c-2.66,3.78-5.15,7.68-7.69,11.55c-7.05,10.71-12.25,22.38-17.99,33.77c-2.23,4.43-3.59,9.21-5.07,13.93
		c-0.29,0.92-0.54,1.82-1.22,2.46c-0.69-0.08-0.74-0.58-0.84-0.98c-3.04-11.58-5.87-23.2-7.68-35.05c-0.24-1.58-0.53-3.14-0.84-4.71
		c-1.32-6.79-0.99-13.67-1.18-20.52c-0.01-0.26,0.25-0.53,0.39-0.79c0.27,0.1,0.65,0.12,0.79,0.31c1.29,1.82,2.55,3.66,3.81,5.51
		c0.63,0.92,1.2,1.89,1.85,2.79c1.42,1.98,3.82,2.35,5.85,0.95c0.39-0.27,0.76-0.58,1.13-0.88c10.11-8.06,20.61-15.61,31.05-23.23
		c1.8-1.32,3.66-2.57,5.55-3.75c1.61-1.01,3.32-1.88,4.98-2.81C249.05,673.38,249.23,673.59,249.41,673.79z"/>
	<path class="st0" d="M325.81,387.56c0.51,4.89,2.23,9.27,5.45,13.03c1.76,2.05,3.43,4.17,5.6,5.65c-0.06,1.2-0.88,0.97-1.39,1.04
		c-12.72,1.62-25.46,2.32-38.27,1.19c-6.37-0.56-12.75-0.98-19.13-1.39c-3.03-0.2-6.02-0.57-8.88-1.32
		c-0.21-0.36-0.51-0.63-0.51-0.9c0.16-7.66-0.22-15.33,0.63-22.79c0.58-0.74,1.18-0.79,1.84-0.68c7.58,1.31,15.22,1.89,22.91,1.9
		c0.64,0,1.29,0.06,1.92,0c3.41-0.36,6.17,0.61,8.49,3.32c1.2,1.41,3.04,2.3,4.66,3.31c1.18,0.73,1.89,1.72,2.14,3.03
		c0.36,1.88,0.66,3.77,0.94,5.65c0.07,0.46-0.01,0.94,0.7,1.26c1.94-2.14,3.74-4.53,5.61-6.86c1.84-2.29,3.03-5.12,5.52-7.01
		c0.82,1.42-0.8,2.07-0.59,3.15c0.38,0.48,0.38,0.48,2.49-1.44L325.81,387.56z M296.33,400.32c1.22,0.46,2.15-0.12,3.04-0.85
		c2.89-2.35,5.06-5.27,6.77-8.56c0.4-0.76,0.28-0.96-1-1.58c-1.21,1.66-2.32,3.42-3.67,4.98c-1.45,1.68-3.14,3.15-4.67,4.77
		c-0.28,0.3-0.3,0.84-0.44,1.27c-0.27,0.02-0.55,0.01-0.8,0.07c-0.11,0.03-0.26,0.21-0.24,0.31c0.01,0.11,0.18,0.28,0.29,0.28
		C296.07,401.05,296.47,400.96,296.33,400.32z M315,402.19c1.8-1.4,2.46-3.36,3.35-5.14c0.13-0.27,0.51-0.85-0.26-0.99
		C315.27,398.94,315.14,399.2,315,402.19z"/>
	<path class="st0" d="M278.12,8.94c0.02,1.58,0.05,3.16,0.06,4.74c0.01,1.6,0.03,3.19,0,4.79c-0.11,6.09,0.73,12.07,1.62,18.08
		c1.11,7.58,2.79,15.05,4.04,22.6c0.51,3.09,0.21,5.96-1.08,8.86c-1.81,4.06-3.32,8.26-4.98,12.43c-0.91-0.09-0.6-0.86-0.73-1.34
		c-0.2-0.77-0.25-1.58-0.45-2.35c-0.16-0.6-0.44-1.17-0.75-1.95c-0.73,1.43-0.95,2.89-2.52,3.45c-1.12,0.4-1.57,1.52-2.07,2.52
		c-0.35,0.68-0.54,1.51-1.54,1.73c-0.18-1.57-0.35-3.12-0.56-4.99c-3.35,4.68-1.87,9.84-2.43,14.54c-0.77,0.27-1.04-0.02-1.15-0.5
		c-1.44-6.05-2.98-12.06-3.9-18.23c-1.07-7.15-1.21-14.28-0.97-21.48c0.16-4.79,0.33-9.56,1.14-14.3c0.38-2.22,1.05-4.3,1.87-6.4
		C266.96,22.88,272.11,15.82,278.12,8.94z"/>
	<path class="st0" d="M262.21,904.14c-0.09-0.36-0.32-0.72-0.22-0.92c12.2-24.82,25.83-48.81,41.29-71.67
		c0.85,0.1,1.25,0.56,1.62,1.08c1.41,1.94,2.78,3.91,4.25,5.8c4.12,5.32,6.2,11.43,7.23,18.09c-1.57,1.86-3.29,3.5-5.08,5.08
		c-6.59,5.81-13.31,11.48-19.73,17.48c-8.53,7.97-17.77,15.12-26.34,23.02C264.33,902.92,263.56,903.96,262.21,904.14z"/>
	<path class="st0" d="M370.57,858.43c-0.63-1.4-0.14-2.73-0.82-3.94c-0.44-0.78-0.48-1.84-0.5-2.79c-0.08-4.62-0.08-9.24,0.6-13.85
		c0.35-2.35,0.4-4.75,0.63-7.12c0.01-0.12,0.52-0.33,0.74-0.27c0.28,0.07,0.54,0.33,0.74,0.56c4.35,5.31,8.68,10.63,13.02,15.94
		c2.74,3.35,5.98,6.2,9.11,9.15c1.39,1.31,2.82,2.59,4.17,3.95c7.95,8.08,16.15,15.89,24.48,23.57c2.46,2.27,4.73,4.75,7,7.21
		c3.55,3.87,7.02,7.81,10.52,11.71c-0.47,0.5-0.92,0.56-1.35,0.32c-3.23-1.75-6.47-3.46-9.65-5.28
		c-11.5-6.6-22.55-13.86-33.18-21.79c-3.96-2.95-8.17-5.57-12.28-8.32c-3.84-2.58-7.69-5.14-11.53-7.72
		C371.59,859.33,371.01,858.79,370.57,858.43z"/>
	<path class="st0" d="M371.55,75.2c2.27-2.63,3.97-5.09,3.41-8.38c-1.07-0.22-1.52,0.53-2.1,0.98c-1.61,1.28-3.45,1.65-5.41,1.35
		c-1.57-0.24-3.17-0.51-4.66-1.03c-2.41-0.84-4.74-1.89-7.09-2.88c-0.23-0.1-0.36-0.42-0.54-0.65c0.3-1.3,1.63-1.41,2.45-2.09
		c0.86-0.71,1.85-1.25,2.71-1.97c0.79-0.66,1.85-1.18,1.87-2.62c-0.98,0.23-1.9,0.38-2.79,0.66c-3.24,1.04-6.54,1.17-9.92,1.1
		c-3.97-0.07-7.53-1.24-10.85-3.28c-3.29-2.03-6.11-4.64-8.56-7.59c-1.1-1.33-1.8-2.99-2.65-4.51c-0.3-0.54-0.37-1.44-0.8-1.65
		c-2.05-1-1.6-2.89-1.82-4.54c-1.07-8.01,0.31-15.58,4.24-22.64c1.31-2.36,2.68-4.72,4.91-6.37c0.88,0.49,0.43,1.04,0.2,1.54
		c-2.04,4.45-2.79,9.1-2.43,13.98c0.17,2.31,0.87,4.37,2.17,6.23c3.45,4.93,7.77,8.87,13.31,11.34c4.08,1.82,8.22,3.5,12.3,5.31
		c6.73,2.99,12.07,7.71,16.32,13.65c4.37,6.1,6.06,12.93,5.09,20.39c-0.11,0.84-1.15,1.3-1.79,0.73
		C376.62,80.08,373.82,78.2,371.55,75.2z"/>
	<path class="st0" d="M316.29,434.8c8.95,0,17.22,0.02,25.49-0.01c8.12-0.03,16.05-1.94,24.23-2.83c0.2,0.96,0.43,1.56,0.44,2.16
		c0.12,6.06-0.03,12.1-0.9,17.84c-0.53,0.84-1.13,1.01-1.77,1.08c-11.1,1.35-22.23,1.88-33.41,1.61c-3.82-0.09-7.64-0.26-11.46-0.43
		c-0.45-0.02-0.88-0.28-1.44-0.47C316.39,447.64,316.61,441.47,316.29,434.8z"/>
	<path class="st0" d="M362.19,479.32c0.24,0.58,0.48,0.88,0.46,1.15c-0.44,7.31-0.9,14.63-1.39,21.94
		c-0.07,1.09-0.35,2.16-0.55,3.37c-3.52,1.06-7.04,0.92-10.5,1.22c-3.65,0.32-7.3,0.64-10.96,0.85c-3.49,0.2-6.99,0.27-10.27,0.39
		c-1.21-0.46-1.61-1.34-2.01-2.2c-2.1-4.47-4.2-8.94-6.28-13.41c-1.01-2.16-2.01-4.33-2.97-6.52c-0.36-0.81,0.23-1.65,1.15-1.57
		c5.61,0.5,11.14-0.4,16.68-0.93c8.41-0.81,16.75-2.1,24.99-4.03C361,479.47,361.47,479.43,362.19,479.32z"/>
	<path class="st0" d="M295.45,252.61c-0.33-1.36-2.01-1.52-2.54-2.83c0.34-3.43,0.38-6.89-0.19-10.38
		c-0.28-1.69-0.05-3.47-0.05-5.05c0.97-0.8,1.71-0.3,2.38-0.02c6.98,2.93,14.29,4.41,21.8,4.84c6.54,0.37,13.06-0.06,19.52-1.15
		c1.71-0.29,3.36-0.95,5.04-1.43c0.59-0.17,1.2-0.31,1.69-0.44c0.5,0.47,0.62,0.85,0.61,1.37c-0.04,3.5-0.39,7.03,0.45,10.47
		c0.35,1.42-0.6,2.4-0.89,3.59l0.18-0.12c-0.88-0.13-1.47,0.48-2.14,0.87c-9.81,5.67-20.13,8.54-31.52,5.95
		c-3.13-0.71-6.17-1.54-8.99-3.07c-0.84-0.46-1.61-1.06-2.65-0.86l0.2,0.15c-0.54-1.4-1.73-1.86-3.07-2.08L295.45,252.61z"/>
	<path class="st0" d="M268.75,446.93c-0.24-5.87-0.35-11.92-0.29-17.97c0-0.44,0.27-0.88,0.44-1.41c6.79,1.28,13.56,2.36,20.23,3.85
		c6.41,1.43,12.89,2.12,19.41,2.55c1.59,0.11,3.18,0.21,4.76,0.4c0.67,0.08,1.1,0.6,1.23,1.28c0.09,0.47,0.1,0.95,0.12,1.42
		c0.2,4.78,0.4,9.55,0.59,14.33c0.03,0.64,0,1.27,0,1.83c-0.53,0.88-1.34,0.91-2.14,0.86c-2.07-0.13-4.13-0.29-6.2-0.45
		c-2.07-0.15-4.13-0.32-6.2-0.47c-6.05-0.43-12.07-0.96-17.97-2.51c-3.54-0.93-7.15-1.61-10.74-2.35
		C270.9,448.07,269.83,447.84,268.75,446.93z"/>
	<path class="st0" d="M305.21,791.56c0.26-0.27,0.53-0.46,0.67-0.72c0.36-0.67,0.9-0.86,1.57-0.67c1.67,0.48,3.06,1.79,4.93,1.67
		c0.15-0.01,0.37-0.09,0.42-0.19c0.11-0.25,0.24-0.56,0.18-0.81c-0.07-0.29-0.29-0.56-0.49-0.8c-0.4-0.48-0.83-0.94-1.55-1.75
		c2.13,0.22,3.74,0.84,5.39,1.25c0.46,0.11,0.92,0.26,1.38,0.38c0.82,0.23,1.13-0.08,1.7-1.69c2.41,0.59,4.87,1.21,7.25,1.03
		c1.09-0.92-0.04-1.93,0.47-2.76c0.95-0.55,1.86-0.1,2.75,0.15c2.95,0.79,5.98,0.72,8.98,0.83c0.46,0.02,1-0.05,1.38-0.27
		c1.09-0.64,2.14-0.4,3.22-0.05c0.76,0.25,1.52,0.5,2.29,0.68c1.13,0.27,2.2,0.13,3.19-0.57c0.63-0.45,1.29-0.99,2-1.15
		c0.57-0.13,1.24,0.09,1.83-0.28c0.45-1.68,0.29-3.38-0.01-5c0.87-0.75,1.89-1.01,2-2.48c0.19-2.67,1.67-3.62,4.16-3.08
		c0.46,0.1,0.87,0.36,1.46,0.62c0.76,4.32,1.53,8.7,2.22,12.65c-0.47,1.33-1.31,1.49-2,1.86c-3.8,2.05-7.83,3.59-11.87,5.08
		c-5.38,1.99-10.7,4.17-16.31,5.5c-1.83,0.43-3.41,0.34-5.1-0.36c-2.36-0.97-4.76-1.82-7.17-2.67c-0.39-0.14-0.89,0.06-1.92,0.15
		c5.04,2.63,9.89,4.41,15.32,6.79c-1.27,0.22-1.59,0.36-1.89,0.32c-8.4-1.11-16.86-1.33-25.3-1.87c-4.14-0.26-8.26-0.85-12.38-1.35
		c-0.93-0.11-1.93-0.11-2.89-0.95c-0.69-3.58-0.84-7.37-0.61-11.14c3.7-1.2,5.83-1.18,8.86,0.04
		C301.23,790.7,303.1,791.62,305.21,791.56z"/>
	<path class="st0" d="M289.81,267.05c-1.39-1.52-1.73-3.27-1.23-5.24c0.71-2.75,1.3-5.53,2.11-8.25c0.66-2.21,1.29-2.38,3.42-1.41
		c0.43,0.19,0.89,0.31,1.33,0.46c0,0-0.17-0.17-0.17-0.17c0.67,1.22,1.67,1.94,3.07,2.08l-0.2-0.15c0.13,0.28,0.19,0.66,0.4,0.81
		c5.24,3.6,11.01,5.57,17.4,5.61c6.1,0.04,12-1.05,17.72-3.13c2.84-1.03,5.57-2.31,8.07-4.03c0.78-0.53,1.61-1.05,1.7-2.14
		l-0.18,0.12c0.93,0.21,1.93,0.35,1.95,1.62c0.1,4.92,0.19,9.85,0.25,14.77c0,0.44-0.3,0.88-0.47,1.36
		c-0.43,0.2-0.84,0.45-1.28,0.59c-6.81,2.19-13.72,4.08-20.77,5.27c-4.83,0.81-9.74,1.23-14.71,0.6c-5.4-0.68-10.03-2.85-14.28-6.07
		c-1.38-1.04-2.49-2.49-4.32-2.85L289.81,267.05z"/>
	<path class="st0" d="M275.25,502.68c-0.3-1.01-0.68-1.9-0.81-2.83c-0.97-6.64-1.89-13.28-2.82-19.93c-0.02-0.16,0.01-0.32,0-0.48
		c-0.04-0.64,0.59-1.22,1.23-1.09c2.97,0.59,5.95,1.16,8.92,1.81c9.07,1.98,18.27,2.99,27.51,3.76c0.95,0.08,1.88,0.28,2.82,0.45
		c0.14,0.02,0.26,0.16,0.38,0.23c0.44,0.58,0.35,1.21,0.17,1.83c-0.36,1.23-0.75,2.44-1.15,3.66c-1,3.02-2.19,5.95-2.9,9.09
		c-0.59,2.6-1.94,5.02-2.92,7.42c-1.94,0.83-3.72,0.43-5.41,0.21C291.92,505.71,283.43,505.28,275.25,502.68z"/>
	<path class="st0" d="M382.14,51.34c-0.38,0.24-0.97,0.4-1.09,0.73c-0.84,2.24-1.59,4.51-2.34,6.78c-0.21,0.64-0.6,1.09-1.35,1.53
		c-3.93-4.79-8.5-8.97-13.47-12.68c-0.61-0.91-0.42-1.88-0.2-2.8c1.93-8.1,2.58-16.39,3.75-24.61c0.47-3.31,1.27-6.58,1.76-9.89
		c0.19-1.27,1.48-2.07,1.29-3.57c-0.53,0.08-1,0.07-1.42,0.22c-0.43,0.15-0.8,0.44-1.21,0.67c-0.08-0.34-0.3-0.7-0.2-0.91
		c0.85-1.94,1.81-2.35,3.17-1.26c1.49,1.19,3.03,2.39,4.29,3.81c3.45,3.86,6.06,8.23,7.25,13.33c0.73,3.11,1.36,6.24,2.13,9.33
		c1.28,5.17,1.54,10.42,1.37,15.7c-0.1,3.03-0.42,6.06-0.47,9.09c-0.06,3.42-1.11,6.59-2.22,9.75c-0.19,0.53-0.37,1.21-1.14,1.3
		c-0.16-0.06-0.39-0.07-0.44-0.17c-0.98-1.81-1.93-3.64-2.95-5.58c2.15-3.35,2.9-7.08,3.41-10.87c0.18-0.6,0.48-1.2,0.52-1.81
		c0.31-4.25,0.61-8.51,0.14-12.77c-0.09-0.77,0.15-1.64-0.8-2.81c-0.04,5.9-0.08,11.26-0.09,16.61
		C381.82,50.75,382.03,51.05,382.14,51.34z"/>
	<path class="st0" d="M265.23,93.54c-0.59,0.26-1.23,0.57-1.71-0.1c-1.4-1.94-2.76-3.91-4.12-5.88
		c-6.71-9.72-11.07-20.46-13.97-31.86c-0.27-1.08-0.54-2.16-0.85-3.38c3.02-6.98,5.88-14.09,10.06-20.57
		c3.12-4.83,6.12-9.74,9.53-14.39c1.43-1.94,2.91-3.8,4.61-5.5c2.03-2.04,3.98-4.16,6.01-6.2c1.7-1.7,3.55-3.21,5.75-4.23
		c0.55-0.25,1.37,0.18,1.47,0.79c0.35,2.07,0.21,4.14,0.07,6.21c-0.31,4.63-0.57,9.26-0.03,13.88c0.26,2.22,0.54,4.44,0.87,6.66
		c0.84,5.68,1.18,11.43,2.51,17.06c0.94,3.97,0.79,5.8,0.05,10.45c-0.57-0.01-0.76-0.42-0.84-0.87c-0.5-2.67-1-5.34-1.48-8.01
		c-0.43-2.36-0.83-4.72-1.26-7.07c-1.06-5.82-1.59-11.7-1.97-17.6c-0.32-5.1-0.64-10.2-0.97-15.29c-0.02-0.31-0.09-0.65-0.25-0.91
		c-0.15-0.24-0.43-0.52-0.69-0.56c-0.26-0.04-0.69,0.09-0.84,0.3c-3.26,4.34-6.73,8.56-9.69,13.1c-3.5,5.37-6.31,11.15-7.54,17.5
		c-0.6,3.11-0.79,6.31-0.93,9.49c-0.19,4.31-0.11,8.62-0.22,12.93c-0.16,6.6,0.79,13.09,2.09,19.51c0.91,4.53,2.34,8.95,3.57,13.41
		c0.12,0.43,0.49,0.8,0.74,1.19L265.23,93.54z"/>
	<path class="st0" d="M325.93,387.69c0.38-0.51,0.78-1.01,1.15-1.52c1.11-1.54,2.57-2.16,4.51-2.14c5.58,0.04,11.16,0.04,16.73-0.15
		c4.77-0.16,9.54-0.58,14.3-0.94c2.9-0.22,3.6,0.1,3.72,3.33c0.14,3.82,0.43,7.63,0.65,11.44c0.02,0.32,0.03,0.64,0.02,0.95
		c-0.08,4.87-0.09,4.78-4.99,5.58c-6.14,0.99-12.3,1.73-18.49,2.3c-1.35,0.12-2.49-0.11-3.58-0.92c-3.08-2.3-5.81-4.96-8.16-8.01
		c-1.08-1.39-1.93-2.91-2.61-4.54c-0.68-1.61-1.43-3.19-2.24-4.73c-0.19-0.36-0.75-0.52-1.14-0.78L325.93,387.69z"/>
	<path class="st0" d="M403.47,527.78c0.88,1.05,1.04,2.15,1.02,3.28c-0.07,3.69,0.21,7.33,1.08,10.93c0.26,1.07,0.21,2.22,0.34,3.33
		c0.63,5.31,0.21,5.03-3.22,8.29c-3.36,3.18-6.87,6.2-10.41,9.19c-9.76,8.23-19.57,16.41-29.36,24.61c-0.48,0.4-1.02,0.74-1.5,1.08
		c-0.9-0.43-0.65-1.1-0.39-1.59c1.7-3.25,3.36-6.52,5.2-9.68c4.91-8.42,10.24-16.56,16.14-24.33c1.45-1.91,2.93-3.79,4.5-5.6
		c4.81-5.55,9.54-11.16,14.02-16.99C401.56,529.43,402.02,528.33,403.47,527.78z"/>
	<path class="st0" d="M297.58,216.15c-0.09,0.55,0.21,0.94,0.65,1.12c2.22,0.89,4.4,1.92,6.69,2.56c9.65,2.72,19.47,3.53,29.44,2.27
		c0.79-0.1,1.59-0.12,2.38-0.15c0.15-0.01,0.3,0.1,0.45,0.15c0.98,1.23-0.84,2.35-0.17,3.57c0.64,0.1-0.14,0.5,0.32,0.05
		c0.23-0.22,0.54-0.42,0.64-0.7c1.09-2.93,3.2-4.61,6.21-5.36c0.9-0.22,1.7-0.84,2.68-1.35c0.13,0.53,0.38,0.98,0.3,1.36
		c-0.83,3.91-1.76,7.79-2.55,11.7c-0.28,1.39-0.98,2.34-2.2,2.93c-0.86,0.42-1.75,0.77-2.65,1.06c-3.06,0.99-6.21,1.56-9.41,1.71
		c-4.47,0.2-8.95,0.4-13.42,0.27c-7.73-0.23-15.18-2.02-22.47-4.54c-0.58-0.2-1.1-0.59-1.53-0.83c-0.44-1.27-0.5-2.36-0.02-3.53
		c2.46,0.38,3.23,3.56,5.88,3.6c0.44-2.81,0.01-4.94-3.12-15.2c0.47-0.98,1.38-0.41,2.08-0.57L297.58,216.15z"/>
	<path class="st0" d="M218.84,558.99c2.92-5.23,6.08-10.4,9.77-15.22c0.38-0.49,0.85-0.96,1.56-0.97c0.85,0.16,1.31,0.83,1.85,1.41
		c5.12,5.5,9.8,11.37,14.54,17.2c4.03,4.96,8.1,9.89,12.04,14.92c3.16,4.03,5.86,8.37,8.34,12.85c0.11,0.2,0.1,0.65-0.04,0.77
		c-0.19,0.17-0.56,0.16-0.85,0.17c-0.14,0-0.27-0.15-0.41-0.22c-4.66-2.49-9.12-5.29-13.27-8.57c-1.38-1.09-2.74-2.22-4.23-3.14
		c-9.12-5.6-17.68-12.07-27.03-17.31C220.28,560.41,219.39,560.02,218.84,558.99z"/>
	<path class="st0" d="M307.82,193.88c0.19,0.24,0.34,0.61,0.59,0.69c8.86,2.81,17.91,4.45,27.24,4.39c2.93-0.02,5.62-0.95,8.41-1.93
		c1.7,0.69,3.49,1.3,4.9,2.46c-0.07,0.51-0.02,0.87-0.16,1.11c-0.99,1.63-1.98,3.27-3.06,4.85c-0.76,1.12-1.99,1.57-3.26,1.82
		c-5.5,1.1-11.06,1.41-16.65,0.96c-7.64-0.63-15.19-1.77-22.49-4.2c-1.06-0.35-2.1-0.75-3.25-0.58l0.2,0.18
		c-0.29-1.17-1.24-1.07-2.12-1.1l0.21,0.14c-0.41-0.96-1.26-1.05-2.13-1.1l0.17,0.14c-0.27-0.37-0.5-0.76-0.8-1.1
		c-1.24-1.41-3.1-2.15-4.08-3.84c-2.45-4.19-5.3-8.15-7.14-12.67c-0.25-0.62,0.08-1.21,0.69-1.55c0.24,0.16,0.45,0.35,0.63,0.57
		c0.67,1.91,2.14,2.83,4,3.26l-0.2-0.15c0.37,1.03,1.16,1.24,2.14,1.09l-0.21-0.14c0.27,1.21,1.17,1.21,2.13,1.1l-0.21-0.14
		c0.25,1.26,1.23,1.1,2.12,1.1l-0.21-0.14c0.33,1.1,1.21,1.13,2.12,1.11l-0.21-0.13c1.39,1.36,3.04,2.1,5.02,2.05l-0.22-0.13
		c0.73,1.25,1.98,0.98,3.11,1.07l-0.21-0.12c0.69,1.33,1.96,1.02,3.09,1.08L307.82,193.88z"/>
	<path class="st0" d="M344.67,536.98c-0.45,0.29-0.98,0.29-1.28-0.09c-0.78-1-1.55-2.03-2.18-3.13c-3.9-6.78-7.46-13.73-10.73-20.83
		c-0.25-0.55-0.31-1.19-0.44-1.75c0.43-0.22,0.69-0.47,0.97-0.49c9.38-0.65,18.76-1.29,28.15-1.91c0.28-0.02,0.57,0.2,0.88,0.32
		c0.7,0.6,0.54,1.45,0.46,2.2c-0.63,6.35-1.5,12.67-3.22,18.83c-0.37,1.34-0.45,2.88-2.03,3.63c-0.28,0.13-0.4,0.86-0.38,1.31
		c0.03,0.79,0.29,1.57,0.34,2.36c0.08,1.25,0.04,2.51-0.89,3.66c-2.74-2.08-4.38-5.07-6.49-7.63c-2.1-2.57-3.87-5.41-5.72-8.04
		c-0.46-0.19-0.8-0.05-0.78,0.35c0.27,4,1.4,7.76,3.39,11.25L344.67,536.98z"/>
	<path class="st0" d="M297.75,216.28c-1.05-0.93-2.31-1.55-2.85-3.09c-0.46-1.32-1.52-2.42-2.27-3.65
		c-1.26-2.06-2.24-4.23-2.49-6.66c0.99-1.04,2.11-0.05,3.15-0.24c1.08-0.2,1.91-1.21,3.12-0.93c0,0-0.17-0.14-0.17-0.14
		c0.31,1.15,1.2,1.17,2.13,1.1c0,0-0.21-0.14-0.21-0.14c0.27,1.21,1.16,1.21,2.12,1.1l-0.2-0.18c0.1,0.75,0.67,0.98,1.28,1.22
		c4.33,1.71,8.85,2.71,13.39,3.6c6.95,1.36,13.97,1.44,21.01,1.15c2.39-0.1,4.76-0.11,7.28-0.17c-0.08,0.71-0.02,1.19-0.19,1.58
		c-1,2.35-2.15,4.64-3.04,7.03c-0.59,1.57-1.66,2.28-3.16,2.56c-0.94,0.18-1.89,0.39-2.84,0.41c-4.95,0.09-9.93,0.42-14.85,0.09
		c-6.54-0.44-12.98-1.7-19.12-4.15c-0.72-0.29-1.51-0.43-2.26-0.63L297.75,216.28z"/>
	<path class="st0" d="M292.2,71.17c-0.46,0.58-0.93,1.16-1.39,1.74c-0.6,0.14-1.21,0.28-1.79,0.42c-0.63-0.95-0.39-1.91-0.21-2.81
		c1.54-7.68,0.63-15.27-1.04-22.77c-1.14-5.14-1.6-10.39-2.77-15.52c-0.24-1.06-0.37-2.19-0.2-3.31c0.41,0.02,0.82-0.07,0.92,0.07
		c2.51,3.4,5.83,5.87,9.34,8.11c3.51,2.24,6.78,4.74,9.75,7.68c3.07,3.04,4.73,6.75,5.82,10.8c0.22,0.79-0.5,1.67-1.28,1.62
		c-1.94-0.13-3.73-0.7-5.42-1.69c-1.2-0.71-2.2-1.8-3.81-2.18c-0.6,3.45,0.06,6.45,2.21,9.04c0.81,0.98,0.75,2,0.73,3.08l0.12-0.14
		c-3.18,0.24-5.77,1.64-7.9,3.96c0,0,0.2-0.15,0.2-0.15C294.06,69.28,293.03,70.08,292.2,71.17z"/>
	<path class="st0" d="M524.44,588.55c-0.88-0.82-1.44-1.39-2.05-1.9c-2.18-1.81-2.73-4.17-2.5-6.86c0.09-0.98,0.3-1.88,0.83-2.7
		c2.15-3.35,5.1-5.63,8.99-6.59c0.92-0.23,1.89-0.32,2.84-0.44c1.54-0.19,2.61-0.95,3.06-2.47c4.84-0.8,9.59-0.67,14.33,0.22
		c1.09,0.21,2.14,0.62,3.23,0.89c2.69,0.65,4.47,2.42,5.63,4.79c0.84,1.71,1.5,3.51,1.6,5.47c0.08,1.55-0.74,2.33-2.29,2.17
		c-1.58-0.17-3.17-0.35-4.75-0.39c-3.35-0.07-5.84,1.34-7.24,4.47c-0.13,0.29-0.18,0.62-0.33,0.89c-0.14,0.25-0.38,0.45-0.58,0.67
		c-0.58,0.02-0.84-0.37-1.06-0.8c-1.17-2.26-2.33-4.53-3.54-6.77c-0.21-0.4-0.62-0.73-1-0.99c-0.23-0.16-0.66-0.27-0.88-0.16
		c-0.21,0.11-0.43,0.56-0.37,0.8c0.27,1.23,0.67,2.44,0.95,3.67c0.14,0.64,0,1.26-0.56,1.73c-1.28-0.46-2.26-1.55-3.84-1.67
		c-3.46-0.26-6.27,0.72-8.43,3.47C525.9,586.77,525.29,587.5,524.44,588.55z"/>
	<path class="st0" d="M276.19,505.34c1.79,0.32,3.18,0.57,4.57,0.81c3.3,0.56,6.59,1.19,9.91,1.65c3.63,0.5,7.29,0.85,10.94,1.25
		c0.82,0.09,1.56,0.3,2.08,1.24c-1.57,3.19-3.16,6.49-4.82,9.75c-0.41,0.8-1.25,0.87-2.22,0.76c-2.46,5.3-4.27,10.93-7.17,16.06
		c-0.06,0.1-0.26,0.13-0.55,0.26c0.18-2.46,0.37-4.83,0.53-7.21c0.07-1.03,0.03-1.03-1.15-3.05c-1.46,1.4-1.69,3.38-2.43,5.11
		c-0.74,1.73-1.19,3.59-2.39,5.21c-0.98-1.12-1.16-2.24-1.19-3.32c-0.1-3.41-1-6.63-2.24-9.75c-1.37-3.44-2.2-7.01-2.69-10.65
		C277.02,510.96,275.96,508.56,276.19,505.34z"/>
	<path class="st0" d="M418.18,280.34c3.64-0.03,6.22,0.91,8.82,1.54c7.43,1.82,14.83,3.76,22.22,5.74c1.46,0.39,2.8,0.15,4.43-0.12
		c1.35,1.2,2.32,2.86,3.09,4.57c2.83,6.24,5.55,12.54,8.29,18.82c0.23,0.54,0.41,1.16-0.34,1.71c-1.74-1.55-3.03-3.7-5.35-4.61
		c-0.13,0.24-0.44,0.57-0.37,0.71c0.68,1.41,1.43,2.8,2.09,4.06c-0.24,0.65-0.45,0.68-0.8,0.38c-5.52-4.83-10.91-9.81-16.6-14.42
		c-4.58-3.7-9.38-7.15-14.47-10.19c-3.14-1.88-6.05-4.13-9.05-6.24C419.66,281.93,419.28,281.42,418.18,280.34z"/>
	<path class="st0" d="M285.71,183.11c-0.18-0.22-0.39-0.41-0.63-0.57c-0.14-0.45-0.29-0.89-0.42-1.3c0.17-0.69,0.71-0.54,1.12-0.49
		c5.05,0.59,10.13,0.99,15.08,2.29c0.92,0.24,1.87,0.35,2.81,0.51c9.58,1.64,18.98,4,28.08,7.45c3.11,1.18,6.13,2.62,9.19,3.96
		c0.61,0.27,1.04,0.7,1.03,1.44c-1.97,1.16-4.15,1.35-6.37,1.45c-4.97,0.22-9.84-0.61-14.7-1.44c-3.59-0.62-7.13-1.55-10.71-2.3
		c-0.77-0.16-1.58-0.15-2.37-0.22c0,0,0.16,0.14,0.16,0.14c-0.75-1.17-1.99-0.92-3.09-1.08c0,0,0.21,0.12,0.21,0.12
		c-0.77-1.13-1.93-1.14-3.11-1.07l0.22,0.13c-1.32-1.55-3.03-2.15-5.02-2.05c0,0,0.21,0.13,0.21,0.13
		c-0.25-1.24-1.25-1.05-2.12-1.11c0,0,0.21,0.14,0.21,0.14c-0.34-1.08-1.21-1.13-2.12-1.1c0,0,0.21,0.14,0.21,0.14
		c-0.34-1.08-1.21-1.13-2.13-1.1c0,0,0.21,0.14,0.21,0.14c-0.36-1.05-1.18-1.2-2.14-1.09l0.2,0.15c-0.09-0.27-0.09-0.66-0.27-0.79
		C288.22,184.73,286.96,183.93,285.71,183.11z"/>
	<path class="st0" d="M557.76,609.77c-2.3-0.49-3.97-1.42-5.47-2.61c-1.75-1.4-3.6-2.6-5.43-3.32c-0.83-1.07-0.62-2.05-0.67-2.98
		c-0.07-1.43,0.07-2.9-0.2-4.29c-0.66-3.44,0.46-6.61,1.27-9.83c0.41-1.64,1.5-2.79,3.22-3.21c1.55-0.38,3.11-0.73,4.72-0.54
		c4.16,0.48,7.15,2.5,8.6,6.54c0.37,1.05,0.74,2.11,1.03,3.18c0.47,1.73,0.47,3.47-0.17,5.17c-0.67,1.79-1.37,3.57-2.02,5.37
		C561.7,605.88,560.16,608.04,557.76,609.77z"/>
	<path class="st0" d="M160.93,497.83c-0.13-0.71,0.42-1.08,0.79-1.52c6.47-7.67,13.09-15.22,20-22.5c3.73-3.93,7.62-7.7,11.44-11.54
		c0.33-0.34,0.71-0.65,1.11-0.89c0.24-0.14,0.61-0.23,0.85-0.14c0.23,0.09,0.51,0.42,0.52,0.66c0.37,5.57,0.3,11.14-0.42,16.69
		c-0.15,1.17-0.72,2.01-1.84,2.6c-4.09,2.14-8.13,4.37-12.2,6.54c-6.18,3.29-12.37,6.57-18.56,9.85
		C162.12,497.86,161.61,498.38,160.93,497.83z"/>
	<path class="st0" d="M448.25,463.6c14.64,6.2,28.37,13.22,41.74,20.64c0.06,0.63-0.13,0.9-0.52,0.86
		c-7.47-0.66-14.9-1.65-22.33-2.65c-4.43-0.6-8.86-1.15-13.29-1.67c-1.63-0.19-2.61-0.95-2.97-2.6c-0.91-4.21-1.88-8.4-2.79-12.6
		C447.98,465.15,448.14,464.66,448.25,463.6z"/>
	<path class="st0" d="M284.43,364.25c0.29,0,0.73-0.12,0.86,0.02c0.41,0.47,0.91,0.99,1.02,1.57c0.89,4.41,3.7,7.71,6.32,11.13
		c0.19,0.25,0.49,0.44,0.64,0.71c0.59,1.04,2.52,1.64,1.69,3.06c-0.67,1.14-2.33,0.6-3.56,0.6c-6.4-0.02-12.75-0.67-19.09-1.48
		c-0.77-0.1-1.52-0.42-2.1-0.59c-0.69-0.85-0.65-1.65-0.64-2.44c0.06-4.79,0.13-9.58,0.19-14.37c0.01-0.48-0.05-0.97,0.01-1.44
		c0.58-4.33-0.17-8.55-0.92-12.78c-0.19-1.1-0.49-2.19,0.14-3.36c0.39,0.24,1.01,0.39,1.13,0.72c0.48,1.34,0.85,2.73,1.2,4.12
		c2.36,9.57,7.01,17.75,14.62,24.14c0.21,0.17,0.65,0.28,0.87,0.18c0.46-0.22,0.54-0.71,0.39-1.19c-0.14-0.46-0.34-0.9-0.48-1.35
		c-0.74-2.44-1.46-4.89-2.19-7.33C284.52,364.15,284.43,364.25,284.43,364.25z"/>
	<path class="st0" d="M355.56,360.41c0.53,1.93-0.25,3.22-0.64,4.56c-0.39,1.34-1.2,2.58-1.14,4.12c2.67-0.73,3.05-0.87,4.52-2.37
		c1-1.02,1.89-2.16,2.76-3.3c0.87-1.12,1.66-2.29,2.4-3.32c0.9-0.09,0.99,0.44,1.03,0.88c0.19,2.39,0.28,4.78,0.51,7.16
		c0.33,3.49,0.75,6.98,1.12,10.47c0.14,1.33-0.55,2.4-1.69,2.45c-8.76,0.32-17.5,1.49-26.29,0.95c-0.15-0.01-0.29-0.11-0.43-0.17
		c-0.2-0.49-0.13-0.97,0.24-1.3c1.43-1.28,2.88-2.53,4.34-3.76c4.18-3.54,7.54-7.79,10.72-12.2
		C353.84,363.41,354.51,362.14,355.56,360.41z"/>
	<path class="st0" d="M564.64,564.44c-0.09,0-1.21,0.07-2.31-0.02c-1.55-0.13-2.48-1.21-2.76-2.82c-0.34-1.97-0.03-3.81,0.91-5.54
		c1.99-3.66,4.99-6.29,8.94-7.43c4.15-1.2,8.2-0.53,11.79,2.08c1.07,0.77,1.78,1.8,2.11,3.08c0.37,1.49,0.19,2.84-0.96,3.96
		C579.13,560.9,572.36,565.3,564.64,564.44z"/>
	<path class="st0" d="M581.2,600.73c-6.38,0.46-6.38,0.46-10.23-1.13c-0.11-0.38-0.36-0.83-0.35-1.27c0.13-4.32-0.87-8.53-1.2-12.8
		c-0.02-0.24-0.32-0.49-0.54-0.68c-0.27-0.24-0.84,0.14-0.99,0.67c-0.18,0.61-0.33,1.23-0.5,1.84c-0.21,0.76-0.43,1.52-0.66,2.33
		c-1.41-1.22-1.45-1.2-2.45-3.94c0.12-1.08,0.94-1.64,1.75-2.1c2.77-1.58,5.61-2.97,8.95-2.82c3.25,0.15,5.8,1.54,7.67,4.14
		c0.93,1.28,1.68,2.69,2.56,4.02c1.12,1.71,1.25,3.57,0.91,5.5c-0.2,1.12-0.64,2.11-1.5,2.91
		C583.46,598.48,582.35,599.6,581.2,600.73z"/>
	<path class="st0" d="M181.38,315.01c1.48-4.17,2.63-7.81,4.82-11.21c-2.02-0.8-2.96,1.12-4.4,1.4c-0.48-0.25-0.7-0.67-0.38-1.09
		c2.69-3.56,5.4-7.12,8.14-10.64c0.89-1.15,2.05-1.99,3.42-2.54c6.07-2.41,12.14-4.84,18.21-7.25c0.71-0.28,1.45-0.62,2.33,0.07
		c-2.37,3.04-5.25,5.55-8.18,7.98c-6.02,5.01-11.69,10.37-16.89,16.23c-1.91,2.15-3.75,4.35-5.64,6.5
		C182.63,314.66,182.25,314.69,181.38,315.01z"/>
	<path class="st0" d="M577.21,578.04c1.43-3.16,3.4-5.13,5.9-6.65c1.41-0.86,2.88-1.27,4.53-1.11c3.22,0.32,6.09,1.52,8.67,3.16
		c1.2,5.5-0.78,9.93-3.62,14.07c-0.93,1.36-2.52,1.86-4.18,1.87c-0.28,0-0.63-0.17-0.84-0.37c-0.33-0.33-0.63-0.72-0.83-1.14
		C584.82,583.59,581.81,580.24,577.21,578.04z"/>
	<path class="st0" d="M526.78,592.99c0-0.4-0.02-0.88,0-1.36c0.27-5.31,6.12-8.5,10.86-5.88c0.85,0.47,1.42,1.21,1.43,2.31
		c0.04,3.05-0.26,6.08-0.96,9.03c-0.86,3.55-2.49,6.89-3.01,10.55c-0.07,0.51-1.15,0.95-1.6,0.7c-2.13-1.19-3.93-2.69-4.9-5.02
		C527.24,600.04,526.3,596.68,526.78,592.99z"/>
	<path class="st0" d="M598.38,582.96c0.81,6.75-0.12,12.9-3.64,18.57c-2.41,3.9-4.41,8.11-8.76,10.31
		c-1.82-1.38-1.65-3.48-2.34-5.19c-0.54-1.34-0.51-2.82-0.31-4.24c0.08-0.59,0.37-1.24,0.76-1.67c0.63-0.7,1.39-1.31,2.18-1.84
		c2.72-1.8,4.7-4.26,6.31-7.04c1.43-2.48,2.81-4.98,4.2-7.49C597.09,583.82,597.35,583.25,598.38,582.96z"/>
	<path class="st0" d="M234.4,1160.07c0.86,0.58,1.05,1.53,1.24,2.43c0.3,1.4,0.57,2.81,0.7,4.23c0.33,3.63,0.55,7.27,1.48,10.6
		c-0.3,0.51-0.4,0.93-0.63,1.02c-2.8,1.17-4.63,3.24-5.87,5.97c-0.64,1.4-1.13,2.95-2.41,4.02c-0.34-0.28-0.7-0.42-0.74-0.63
		c-1.5-7.72-0.86-15.2,2.62-22.35c0.63-1.29,1.16-2.62,1.8-3.9C232.94,1160.75,233.5,1160.18,234.4,1160.07z"/>
	<path class="st0" d="M603.55,561.43c0.65-0.21,1.11,0.01,1.34,0.42c1.18,2.08,2.35,4.16,3.44,6.28c0.66,1.29,0.86,2.71,0.99,4.16
		c0.35,3.99,0.08,7.96-0.32,11.93c-0.23,2.27-1.11,4.3-2.2,6.25c-0.13,0.24-0.51,0.33-0.86,0.54c-2.01-1.26-3.69-2.91-5.08-4.61
		c-0.71-2.79-0.37-5.2,0.76-7.63c1.5-3.24,1.68-6.78,1.79-10.3C603.47,566.12,603.23,563.74,603.55,561.43z"/>
	<path class="st0" d="M155.63,675.72c0.65,0.54,1.18,0.89,1.6,1.33c4.34,4.58,7.47,9.94,9.84,15.74c1.41,3.45,1.81,7.09,1.55,10.8
		c-0.03,0.46-0.23,0.92-0.38,1.37c-0.25,0.72-1.34,1.12-1.98,0.77c-1.91-1.03-3.31-2.49-3.85-4.63c-0.27-1.08-0.52-2.18-0.62-3.28
		c-0.5-5.63-2.15-10.92-4.52-16.03c-0.67-1.44-1.22-2.95-1.73-4.45C155.39,676.94,155.57,676.43,155.63,675.72z"/>
	<path class="st0" d="M459.1,1205.38c-0.14-0.04-0.38-0.05-0.42-0.13c-1.87-4.38-3.74-8.77-5.57-13.17
		c-1.51-3.63-1.75-7.4-1.12-11.24c0.13-0.77,0.43-1.52,0.71-2.26c0.23-0.6,1.5-1.01,2.07-0.61c0.64,0.44,1.35,0.91,1.75,1.54
		c1.61,2.59,2.84,5.39,2.88,8.48c0.08,5.72-0.01,11.43-0.04,17.15C459.37,1205.22,459.2,1205.3,459.1,1205.38z"/>
	<path class="st0" d="M242.3,61.78c0,3.17-0.04,6.19,0.01,9.22c0.13,7.38,1.39,14.58,3.66,21.59c0.58,1.8,1.41,3.51,2.09,5.19
		c-0.16,0.56-0.37,0.61-0.71,0.26c-2.26-2.28-4.12-4.83-5.35-7.82c-1.15-2.8-2.63-5.46-3.34-8.42c-0.22-0.92-0.53-1.88-0.47-2.8
		c0.38-5.56,0.88-11.11,2.67-16.45C241.02,62.06,241.26,61.7,242.3,61.78z"/>
	<path class="st0" d="M206.01,1159.3c0.06,0.3,0.17,0.62,0.17,0.93c-0.05,4.63-0.13,9.27-0.15,13.9c-0.01,2.02-0.62,3.67-2.07,5.16
		c-1.18,1.22-2.02,2.79-3.1,4.32c-1.27-1.74-1.86-3.53-1.74-5.45c0.42-6.46,1.91-12.63,5.35-18.2
		C204.81,1159.4,205.27,1158.99,206.01,1159.3z"/>
	<path class="st0" d="M359.4,36.95c-1-1.35-3.02-1.32-3.66-3c0-0.15-0.03-0.32,0.01-0.47c0.08-0.3,0.16-0.62,0.32-0.89
		c2.97-5.04,5.95-10.07,9.37-15.85c-0.41,3.82-0.68,6.8-1.07,9.76c-0.57,4.41-1.2,8.82-1.85,13.22c-0.26,1.73-0.63,3.44-1.01,5.14
		c-0.05,0.21-0.44,0.49-0.66,0.48c-0.26-0.01-0.69-0.25-0.74-0.47c-0.18-0.75-0.29-1.53-0.32-2.31
		C359.7,40.66,359.94,38.74,359.4,36.95z"/>
	<path class="st0" d="M316.68,156.36c-2.32-0.41-4.24-0.58-6.06-1.11c-4.31-1.27-8.33-3.01-11.66-6.28
		c-2.64-2.58-5.42-4.96-6.88-8.46c-0.3-0.73-0.5-1.51-0.67-2.29c-0.1-0.45-0.19-0.96,0.4-1.47c1.01,0.62,1.53,1.82,2.39,2.67
		c1.02,1.01,1.97,2.09,3.02,3.08c0.93,0.88,1.93,1.67,2.91,2.49c0.98,0.82,1.94,1.66,2.95,2.45c1,0.79,2.03,1.55,3.08,2.27
		c1.18,0.81,2.38,1.61,3.62,2.35c1.09,0.65,2.25,1.2,3.37,1.82C314.24,154.5,315.57,154.76,316.68,156.36z"/>
	<path class="st0" d="M171.04,716.17c-0.43-0.07-0.94-0.05-1.35-0.24c-3.17-1.51-6.17-3.3-8.69-5.78c-2.83-2.79-5.52-5.71-8.66-8.17
		c-0.19-0.15-0.35-0.66-0.24-0.79c0.27-0.35,0.66-0.71,1.07-0.82c0.41-0.11,0.95-0.03,1.34,0.17c4.56,2.3,8.82,5.04,12.65,8.43
		c1.8,1.6,3.25,3.47,4.46,5.53C171.99,715.14,171.58,715.69,171.04,716.17z"/>
	<path class="st0" d="M428.47,1205.71c-0.78-0.05-1.1-0.58-1.21-1.21c-0.28-1.57-0.54-3.15-0.75-4.73
		c-0.73-5.4-0.82-10.83-0.8-16.27c0-0.8,0.12-1.59,0.2-2.39c0.11-1.02,0.74-1.93,1.22-1.75c0.8,0.29,1.33,0.87,1.54,1.7
		c0.35,1.39,0.91,2.79,0.95,4.19c0.13,4.15,0.18,8.31-0.01,12.46C429.47,1200.39,428.86,1203.05,428.47,1205.71z"/>
	<path class="st0" d="M557.36,612.21c0.77-0.55,1.27-0.95,1.8-1.28c2.42-1.49,3.99-3.67,4.95-6.28c1.26-3.43,2.4-6.91,3.63-10.36
		c0.08-0.22,0.47-0.32,0.72-0.47c0.05,0.15,0.12,0.3,0.13,0.46c0.23,2.52-0.5,5.02-0.15,7.55c0.08,0.59-0.21,1.25-0.37,1.87
		c-1.06,4.04-3.09,7.68-4.7,11.49c-0.27,0.63-0.94,1.04-1.56,0.83C559.99,615.41,558.24,614.63,557.36,612.21z"/>
	<path class="st0" d="M263.32,1185.46c-1.08-2.95-1.4-5.61-1.53-8.25c-0.21-4.12-0.17-8.26-0.15-12.39
		c0.01-1.42,0.24-2.85,0.46-4.25c0.1-0.64,0.55-1.17,1.25-1.21c0.7-0.04,1.16,0.45,1.47,1.02c0.23,0.41,0.42,0.85,0.58,1.3
		c0.1,0.3,0.13,0.62,0.18,0.93c0.9,5.75,0.86,5.74-0.25,11.74c-0.58,3.12-0.99,6.27-1.49,9.41
		C263.76,1184.17,263.58,1184.58,263.32,1185.46z"/>
	<path class="st0" d="M491.2,1196.22c-1.04-1.34-1.45-2.05-2.03-2.56c-4.85-4.34-6.09-10.23-7.02-16.26
		c-0.05-0.29,0.11-0.61,0.16-0.92c0.06-0.36,0.81-0.76,1.15-0.6c0.42,0.21,0.88,0.38,1.22,0.68c1.46,1.29,2.43,2.96,3.18,4.71
		c1.76,4.1,3.25,8.29,3.56,12.79C491.45,1194.52,491.34,1194.97,491.2,1196.22z"/>
	<path class="st0" d="M397.44,1199.65c-0.51-0.74-0.83-0.98-0.83-1.23c-0.05-5.13,0.58-10.15,2.47-14.96c0.58-1.48,1.07-3,1.67-4.48
		c0.24-0.57,0.64-1.1,1.05-1.58c0.18-0.22,0.65-0.45,0.82-0.36c0.39,0.2,0.88,0.56,0.96,0.93c0.46,2.21,0.51,4.46-0.18,6.62
		c-1.07,3.33-2.22,6.65-3.46,9.92C399.33,1196.13,398.43,1197.65,397.44,1199.65z"/>
	<path class="st0" d="M542.91,607.56c-1.09,0.97-2.12,1.95-3.21,2.84c-0.86,0.7-1.99,0.28-2.23-0.73c-0.33-1.41-0.4-2.82-0.12-4.24
		c0.09-0.46,0.19-0.95,0.41-1.36c2.26-4.09,2.6-8.73,3.85-13.11c0.12-0.41,0.44-0.76,0.72-1.23
		C543.47,593.75,543.67,599.6,542.91,607.56z"/>
	<path class="st0" d="M239.95,99.34c2.19,1.11,3.3,2.76,4,4.71c1.45,4.06,3.23,7.97,5.21,11.8c0.27,0.52,0.62,1.11,0.3,1.77
		c-0.28,0.03-0.64,0.18-0.81,0.06c-1.03-0.75-2.08-1.5-3-2.38c-2.35-2.24-4.25-4.77-4.65-8.12
		C240.7,104.67,239.92,102.21,239.95,99.34z"/>
	<path class="st0" d="M182.88,640.59c0.15,0.04,0.32,0.04,0.45,0.13c3.81,2.55,7.65,5.03,12.13,6.3c1.11,0.32,1.17,0.59,1.51,2.57
		c-2.16,0.8-4.39,0.62-6.54,0.18c-2.53-0.52-4.71-1.64-5.74-4.35c-0.49-1.3-1.46-2.42-2.15-3.65
		C182.29,641.34,182.43,640.89,182.88,640.59z"/>
	<path class="st0" d="M144.01,708.78c-0.43,0-0.76,0.1-0.98-0.02c-2.26-1.23-4.14-2.95-5.89-4.79c-0.48-0.5-0.46-1.46-0.91-1.99
		c-0.37-0.43-1.16-0.47-1.67-0.83c-0.51-0.36-1-0.83-1.34-1.35c-1.3-2-2.22-4.17-2.87-6.46c-0.13-0.46,0.07-0.95,0.54-1.2
		c0.57-0.31,1.33-0.62,1.76-0.11c1.22,1.44,2.57,2.86,3.36,4.54c1.92,4.08,4.48,7.67,7.44,11.03
		C143.72,707.9,143.82,708.35,144.01,708.78z"/>
	<path class="st0" d="M200.58,640.55c4.53,4.87,5.51,6.99,4.57,13.94c-0.34,0.21-0.63,0.18-0.81-0.14c-1.05-1.77-2.4-3.27-3.94-4.64
		c-2.12-1.87-2.31-4.37-2.04-6.96C198.44,642,198.8,641.68,200.58,640.55z"/>
	<path class="st0" d="M301.11,161.05c-3.18,0.24-5.5-1.59-7.9-3.07c-2.9-1.78-5.07-4.39-6.89-7.21c-0.82-1.26-1.82-2.65-1.31-4.7
		c1.8,1.13,2.64,2.87,3.92,4.17c1.23,1.25,2.43,2.54,3.72,3.73c1.41,1.3,2.92,2.48,4.36,3.74
		C298.3,158.87,300.12,159.33,301.11,161.05z"/>
	<path class="st0" d="M240.18,116.32c1.37-0.59,2.38,0.66,3.61,0.68c1.47,0.02,2.14,1.2,3.07,2.02c2.24,2,4.49,3.98,6.73,5.98
		c0.1,0.09,0.08,0.3,0.13,0.51c-1.23,0.64-2.42,0.32-3.5-0.3C244.95,122.25,242.82,121.59,240.18,116.32z"/>
	<path class="st0" d="M242.27,128.82c2.79-0.07,5.18-0.14,7.41-1.11c0.14-0.06,0.31-0.08,0.46-0.1c1.96-0.15,3.75,0.54,5.59,1.03
		c1.7,0.45,3.27,1.1,4.55,2.44c-1.04,0.73-2.04,0.51-2.87,0.26c-2.22-0.66-4.4-0.49-6.61-0.12c-1.1,0.18-2.2,0.32-3.31,0.4
		C245.47,131.77,243.77,131.14,242.27,128.82z"/>
	<path class="st0" d="M447.05,472.73c-2.19-2.7-6.65-9.8-8-12.56c0.3-0.5,0.78-0.51,1.2-0.31c1.57,0.75,3.11,1.56,4.78,2.41
		C446.16,465.37,446.85,468.58,447.05,472.73z"/>
	<path class="st0" d="M594.32,547.65c-0.07,0.09-0.14,0.27-0.21,0.27c-2.24,0.05-4.36,0.34-6.27,1.77
		c-1.21,0.91-2.34,0.33-3.08-1.09c-0.46-0.89-0.59-1.82-0.51-2.77c0.06-0.68,0.46-1.18,1.16-1.32c0.62-0.12,1.29-0.32,1.88-0.2
		c2.48,0.53,4.94,1.17,6.94,2.88C594.32,547.27,594.29,547.49,594.32,547.65z"/>
	<path class="st0" d="M348.22,215.36c-1.88,1.47-3.48,3.04-5.83,3.34c-0.11,0.01-0.24-0.19-0.53-0.43c0.19-0.49,0.35-1.08,0.64-1.59
		c1.27-2.22,2.43-4.47,3.24-6.92c0.29-0.88,0.95-1.64,1.51-2.41c0.1-0.14,0.54-0.02,0.97-0.02
		C348.22,209.87,348.22,212.4,348.22,215.36z"/>
	<path class="st0" d="M145,697.98c1.1,1.14,1.78,1.78,2.39,2.48c0.67,0.78,0.62,1.79-0.16,2.54c-0.56,0.54-1.2,1.01-1.84,1.47
		c-0.47,0.34-0.73,0.25-2.24-0.56C143.7,702.15,144.26,700.36,145,697.98z"/>
	<path class="st0" d="M379.9,150.45c0.54-1.69,0.78-2.92,1.73-3.96c0.39,0.09,0.85,0.11,1.24,0.31c0.66,0.33,0.84,1.06,0.46,1.52
		C382.54,149.26,381.66,150.08,379.9,150.45z"/>
	<path class="st0" d="M374.1,100.83c0.82,1.41,0.82,1.41,0.26,2.6c-0.54-0.86-0.36-1.76-0.18-2.67L374.1,100.83z"/>
	<path class="st0" d="M313.59,100.88c0.96,0.53,1.17,1.19,0.39,2.07c-0.44-0.69-0.52-1.39-0.32-2.13L313.59,100.88z"/>
	<path class="st0" d="M564.94,877.2c0.04,0.31,0.13,0.63,0.09,0.92c-0.04,0.24-0.25,0.46-0.38,0.69c-0.06-0.27-0.21-0.57-0.15-0.8
		c0.08-0.27,0.35-0.49,0.54-0.73L564.94,877.2z"/>
	<path class="st0" d="M31.93,953.63c0.55,1.18,0.43,2.21-0.7,3l0.05,0.13c0.24-1.01,0.49-2.03,0.73-3.04L31.93,953.63z"/>
	<path class="st0" d="M545.1,679.37c0.11,0.23,0.23,0.45,0.31,0.69c0.02,0.07-0.06,0.17-0.09,0.26c-0.05-0.22-0.1-0.44-0.14-0.67
		c-0.02-0.13-0.01-0.27-0.01-0.41L545.1,679.37z"/>
	<path class="st0" d="M567.97,686.34c0.23,0.16,0.54,0.28,0.67,0.5c0.2,0.34,0.02,0.62-0.36,0.65c-0.07,0.01-0.23-0.23-0.24-0.36
		c-0.02-0.29,0.02-0.58,0.04-0.87L567.97,686.34z"/>
	<path class="st0" d="M284.52,364.15c0.11-0.37-0.48-0.75,0.01-1.12c0.07,0.12,0.21,0.25,0.19,0.35c-0.06,0.3-0.19,0.58-0.3,0.87
		L284.52,364.15z"/>
	<path class="st0" d="M338.55,365.72c-0.03,0.29-0.03,0.59-0.08,0.87c-0.07,0.41-0.32,0.57-0.45,0.35c-0.12-0.2-0.16-0.57-0.05-0.75
		c0.12-0.19,0.46-0.25,0.7-0.36C338.67,365.83,338.55,365.72,338.55,365.72z"/>
	<path class="st0" d="M363.43,115.16c0.01,0.27,0.04,0.55,0.01,0.82c-0.01,0.12-0.16,0.34-0.22,0.33c-0.35-0.05-0.52-0.31-0.33-0.61
		c0.13-0.2,0.42-0.3,0.65-0.45C363.54,115.25,363.43,115.16,363.43,115.16z"/>
	<path class="st0" d="M460.59,577.83c-0.3-0.07-0.61-0.14-0.91-0.2c0.57-0.67,0.58,0.12,0.81,0.31L460.59,577.83z"/>
	<path class="st0" d="M376.35,196.71c-0.07-0.13-0.24-0.29-0.2-0.38c0.12-0.34,0.4-0.44,0.72-0.25c0.12,0.07,0.18,0.23,0.26,0.35
		C376.87,196.53,376.61,196.62,376.35,196.71z"/>
	<path class="st0" d="M344.74,537.03c-0.04,0.24-0.2,0.6-0.1,0.7c0.46,0.44-0.5,0.41-0.02-0.01c0.13-0.11,0.04-0.48,0.05-0.73
		L344.74,537.03z"/>
	<path class="st0" d="M440.21,544.94c-0.09-0.07-0.19-0.14-0.28-0.21c0.12-0.04,0.24-0.11,0.35-0.09c0.1,0.02,0.19,0.13,0.29,0.2
		C440.44,544.87,440.33,544.9,440.21,544.94z"/>
	<path class="st0" d="M265.21,93.6c-0.03,0.27-0.04,0.54-0.08,0.8c-0.03,0.2-0.08,0.4-0.12,0.59c-0.07-0.09-0.17-0.17-0.19-0.27
		c-0.02-0.13,0.01-0.28,0.06-0.41c0.1-0.27,0.22-0.52,0.34-0.78L265.21,93.6z"/>
	<path class="st0" d="M259,158.41c-0.29-0.08-0.58-0.15-0.87-0.23c0.57-0.63,0.59,0.06,0.78,0.33L259,158.41z"/>
	<path class="st0" d="M31.23,956.63c-0.02,0.29,0.07,0.68-0.09,0.84c-0.19,0.2-0.24,0.02,0.1-0.31c0.07-0.07,0.02-0.26,0.03-0.4
		L31.23,956.63z"/>
	<path class="st0" d="M317.85,583.66c2.36,1.04,3.49,3.09,4.22,5.4c0.69,2.19,0.54,4.41-0.13,6.56c-0.6,1.91-2.38,3.05-4.39,2.99
		c-4.03-0.11-5.35-1.57-5.16-5.64c0.14-2.96,1.23-5.55,3.07-7.83C316.06,584.41,316.8,583.78,317.85,583.66z"/>
</g>
</svg>
