<?xml version="1.0" encoding="utf-8"?>
<!-- Generator: Adobe Illustrator 24.1.1, SVG Export Plug-In . SVG Version: 6.00 Build 0)  -->
<svg version="1.1" id="Layer_1" xmlns="http://www.w3.org/2000/svg" xmlns:xlink="http://www.w3.org/1999/xlink" x="0px" y="0px"
	 width="51.27" height="51.27" viewBox="0 0 51.27 51.27" style="enable-background:new 0 0 51.27 51.27;" xml:space="preserve">
<style type="text/css">
	.st0{fill:#1A1A1A;}
</style>
<polygon class="st0" points="0.13,15.08 0.13,36.22 15.08,51.15 36.2,51.15 51.15,36.22 51.15,15.08 36.2,0.13 15.08,0.13 "/>
<polygon points="1.4,15.6 15.6,1.4 35.65,1.4 49.87,15.6 49.87,35.68 35.65,49.87 15.6,49.87 1.4,35.68 "/>
<path class="st0" d="M3.48,29.09h2.43v0.67c0,0.63,0.22,1.17,0.67,1.62c0.45,0.45,0.99,0.67,1.63,0.67c0.64,0,1.19-0.22,1.64-0.67
	c0.45-0.45,0.68-0.99,0.68-1.62c0-1.72-0.75-3.03-2.25-3.93l-1.89-1.13C4.99,23.88,4.29,22.64,4.29,21c0-1.19,0.42-2.2,1.27-3.04
	c0.84-0.84,1.87-1.26,3.07-1.26c1.19,0,2.21,0.42,3.06,1.26c0.85,0.84,1.28,1.85,1.28,3.03h-2.45c0-0.51-0.19-0.95-0.56-1.31
	c-0.37-0.36-0.82-0.54-1.34-0.54c-0.52,0-0.97,0.18-1.34,0.55c-0.37,0.37-0.56,0.81-0.56,1.33c0,0.71,0.31,1.25,0.93,1.62l1.87,1.12
	c1.05,0.63,1.88,1.47,2.49,2.52c0.64,1.08,0.95,2.25,0.95,3.5c0,1.3-0.46,2.41-1.39,3.33c-0.93,0.92-2.05,1.39-3.36,1.39
	c-1.31,0-2.42-0.46-3.35-1.38c-0.92-0.92-1.39-2.03-1.39-3.33V29.09z"/>
<polygon class="st0" points="23.89,19.27 20.75,19.27 20.75,34.22 18.32,34.22 18.32,19.27 15.18,19.27 15.18,16.97 23.89,16.97 "/>
<path class="st0" d="M36.1,25.59c0,1.9-0.25,3.77-0.74,5.62c-0.26,0.96-0.78,1.74-1.56,2.36c-0.79,0.62-1.69,0.92-2.71,0.92
	c-1.01,0-1.9-0.31-2.7-0.92c-0.79-0.62-1.32-1.39-1.57-2.34c-0.5-1.85-0.75-3.73-0.75-5.64c0-1.93,0.25-3.82,0.75-5.66
	c0.27-0.94,0.79-1.72,1.58-2.32c0.79-0.6,1.68-0.91,2.69-0.91c1.01,0,1.9,0.3,2.69,0.9c0.79,0.6,1.31,1.37,1.56,2.31
	C35.84,21.74,36.1,23.63,36.1,25.59 M33.67,25.6c0-1.73-0.22-3.41-0.66-5.03c-0.12-0.41-0.35-0.76-0.71-1.03
	c-0.36-0.27-0.76-0.41-1.21-0.41c-0.45,0-0.86,0.14-1.21,0.41c-0.35,0.27-0.59,0.62-0.71,1.04c-0.44,1.63-0.66,3.3-0.66,5.01
	c0,1.69,0.22,3.36,0.66,5c0.11,0.43,0.35,0.78,0.71,1.05c0.35,0.28,0.76,0.41,1.21,0.41c0.45,0,0.86-0.14,1.21-0.41
	c0.35-0.27,0.59-0.62,0.71-1.04C33.45,28.97,33.67,27.3,33.67,25.6"/>
<path class="st0" d="M38.32,34.22V16.97h5.25c0.83,0,1.59,0.23,2.27,0.69c0.68,0.46,1.18,1.06,1.49,1.8
	c0.31,0.74,0.47,1.53,0.47,2.36c0,0.84-0.16,1.63-0.48,2.38c-0.32,0.75-0.82,1.35-1.5,1.8c-0.68,0.45-1.43,0.68-2.27,0.68h-2.81
	v7.53H38.32z M40.75,19.4v4.86h2.83c0.74,0,1.26-0.35,1.53-1.04c0.17-0.45,0.26-0.92,0.26-1.4c0-0.5-0.09-0.97-0.28-1.42
	c-0.27-0.67-0.77-1-1.52-1H40.75z"/>
</svg>
