<?xml version="1.0" encoding="utf-8"?>
<!-- Generator: Adobe Illustrator 24.2.3, SVG Export Plug-In . SVG Version: 6.00 Build 0)  -->
<svg version="1.1" id="Layer_1" xmlns="http://www.w3.org/2000/svg" xmlns:xlink="http://www.w3.org/1999/xlink" x="0px" y="0px"
	 width="1401.57" height="2118.15" viewBox="0 0 1401.57 2118.15" enable-background="new 0 0 1401.57 2118.15" xml:space="preserve">
<g>
	<g>
		<path d="M691.79,2044.01c-3.71,3.22-8.09,3.86-12.29,4.51c-29.25,4.57-57.77,2.19-85.23-9.47c-10.19-4.33-19.52-10.18-27.99-17.22
			c-19.39-16.13-35.95-34.67-47.45-57.36c-0.89-1.75-2.07-3.36-3.05-4.95c-8.08-1.55-15.93-2.98-23.74-4.57
			c-12.81-2.6-24.63-8.18-36.72-12.81c-6.41-2.46-12.14-6.84-17.96-10.68c-7.49-4.95-15.13-9.76-22.04-15.45
			c-19.25-15.83-34.79-34.77-46.14-57.06c-2.72-5.33-6.75-10.12-8.75-15.67c-4.76-13.19-13.04-24.83-17.35-37.99
			c-8.28-25.26-17.83-50.18-22-76.7c-6.16-39.19-4.18-77.61,8.47-115.4c4-11.96,7.63-24.05,9.4-36.7
			c1.6-11.49,0.56-22.66-2.06-33.66c-2.61-10.99-6.16-21.77-9.61-32.54c-7.33-22.85-13.06-46.12-18.62-69.44
			c-2.16-9.05-5.03-17.95-6.72-27.08c-6.19-33.54-7.9-67.42-6.8-101.48c0.24-7.33,0.61-14.65,0.66-21.98
			c0.11-15.39,3.12-30.42,5.27-45.56c2.85-20.13,8.42-39.71,12.07-59.69c6.35-34.82,4.03-68.95-7.4-102.49
			c-11.7-34.34-24.17-68.45-34.61-103.18c-10.92-36.32-23.86-72.09-31.96-109.2c-3.14-14.41-7.64-28.13-14-41.38
			c-8.83-18.41-13.53-38.25-19.04-57.78c-1.18-4.17-2.51-8.13-4.59-12.03c-5.25-9.8-7.14-20.79-9.02-31.57
			c-5.17-29.6-12.46-58.61-22.94-86.77c-8.14-21.87-18.34-42.79-28.94-63.58c-18.21-35.72-41.84-68.04-62.73-102.07
			c-0.35-0.57-0.72-1.13-1.13-1.65c-21.09-26.18-39.03-54.87-62.93-78.81c-1.4-1.41-2.37-3.28-3.87-4.56
			c-6.3-5.38-8.97-12.1-8.01-20.31c0.24-2.02-0.35-3.87-0.86-5.83c-3.34-12.79,0.99-18.36,14.01-18.33c0.67,0,1.33,0,2.33,0
			c2.27-3.81,0.92-8.29,1.61-12.44c3.31-19.66,11.04-37.6,20.61-54.87c15.1-27.22,34.05-51.68,54.18-75.28
			c20.55-24.09,42.5-46.88,65.1-69.04c20.54-20.14,43.25-37.6,67.55-52.84c9.04-5.67,17.65-11.75,26.05-18.27
			c23.52-18.26,48.6-33.88,76.37-44.93c6.51-2.59,13.21-4.58,20.04-6.06c6.22-1.35,12.6-1.82,18.87-0.59
			c4.33,0.85,8.12,1.32,12.33-1.08c4.48-2.55,9,0.3,13.23,2.02c0.27-0.39,0.58-0.62,0.59-0.87c0.58-8.16,2.16-10.34,8.17-11.16
			c5.52-0.76,11.35,2.48,13.45,7.86c10.26,26.38,20.47,52.78,30.61,79.21c3.1,8.07,5.84,16.28,8.84,24.38
			c7.76,20.95,17.08,41.23,27.14,61.15c14.67,29.04,35.42,53.05,61.46,72.53c9.61,7.19,20.11,10.75,32.29,11.56
			c26.99,1.79,53.43,6.66,78.74,16.91c25.91,10.49,52.56,19.17,77.82,31.29c28.59,13.71,56.56,28.55,80.77,49.34
			c29.59,25.41,54.27,54.95,72.88,89.36c7.59,14.04,17,27.13,22.22,42.41c1.61,4.72,3.54,9.37,4.69,14.21
			c3.85,16.18,9.54,31.99,11.65,48.51c2.74,21.46,4.2,42.99,2.49,64.73c-2.19,27.72-8.16,54.54-16.37,81
			c-2.97,9.58-4.19,19.56-4.44,29.56c-0.52,20.97-1.1,41.95,1.41,62.87c2.9,24.2,7.77,47.97,15.21,71.17
			c4.47,13.94,8.92,27.91,14.15,41.57c7.77,20.27,17.66,39.51,30.73,56.95c5.99,7.99,11.85,16.15,18.57,23.5
			c13.91,15.22,31.1,25.97,49.77,34.46c8.25,3.75,16.89,6.02,25.8,7.48c21.11,3.45,40.24,11.65,57.4,24.34
			c7.01,5.18,14.46,9.53,22.21,13.39c17.47,8.72,33.09,19.86,46.17,34.45c1.55,1.73,3.24,3.35,4.94,4.96
			c0.89,0.85,1.71,2.06,3.3,1.09c3.21-1.97,4.82,0.75,6.59,2.49c6.68,6.58,12.26,14.06,17.51,21.78c2.83,4.15,5.98,7.68,10.33,10.57
			c6.16,4.09,9.86,10.65,13.83,16.85c3.62,5.66,3.99,13.6,11.42,16.64c2.56,7.87,8.91,14,10.1,22.56c1.01,7.25,2.62,14.41,2.6,21.78
			c-0.01,1.94-0.43,3.98,0.75,5.79c2.43-3,2.43-3,3.55-10.57c4,10.41,5.78,19.99,5.49,29.65c-0.42,13.97-1.93,27.91-5.93,41.43
			c-2,6.76-2.81,13.66-2.6,20.73c0.1,3.54,1.04,6.38,3.7,8.85c11.51,10.69,16.56,25.48,24.1,38.67c1.43,2.5,1.91,5.73,2.15,8.67
			c0.42,5.05,2.01,9.77,3.41,14.55c2.46,8.39,7.2,14.29,15.78,17.93c25.18,10.68,42.77,29.99,57.09,52.64
			c13.09,20.71,19.04,43.83,22.33,67.73c1.63,11.85,2.96,23.81,3.27,35.75c0.37,14.29-0.74,28.59-3.07,42.74
			c-1.29,7.85-2.53,15.69-4.77,23.37c-5.47,18.8-13.79,36.05-26.7,50.93c-4.15,4.78-8.36,9.51-12.43,14.36
			c-2.57,3.05-5.57,5.97-7.28,9.48c-10.34,21.26-16.77,43.42-14.17,67.45c1.69,15.64,5.52,30.7,10.66,45.58
			c3.76,10.9,8.97,20.73,16.32,29.52c1.07,1.28,2.2,2.51,3.19,3.85c0.57,0.78,1.19,1.66,0.51,2.76
			c-12.29,0.84-28.93-5.86-49.1-18.58c-15.15-9.55-26.84-22.38-37.84-38.33c-1.95,7.69-0.88,13.58-0.09,19.23
			c2.24,16.05,1.21,31.88-1.75,47.69c-0.78,4.16-2.26,8.37,0.78,12.49c0.77,1.04,0.39,3.25-0.01,4.79
			c-1.99,7.62-5.6,14.93-4.15,23.16c-3.77,11.37-7.13,22.93-14.21,32.86c-4.84,6.78-10.06,13.24-16.25,18.41
			c7.7,52.52,34.62,90.98,82.14,114.67c-3.18,3.58-6.65,3.21-9.83,3.53c-23.95,2.41-46.96-1.53-69.65-9.34
			c-23.53-8.09-45.15-19.56-65.57-33.58c-11.31-7.77-21.76-16.49-31.27-26.7c-4.55-0.83-9.16,0-13.76,0.4
			c-5.98,0.52-11.96,1.34-17.94,0.54c-2.42-0.32-4.67,0.02-6.9,0.54c-19.45,4.53-38.2,2.42-56.34-5.72
			c-16.18-7.27-31.36-16.11-44.5-30.01c-2.85,5.57-5.17,10.25-5.56,15.4c-0.44,5.81-2.37,11.02-4.63,16.21
			c-8.56,19.67-20.71,36.39-39.77,47.73c-0.21,4.7,2.81,7.99,5.16,11.43c13.04,19.06,30.05,33.71,50.09,45.05
			c11.06,6.26,22.41,11.71,34.74,15.01c2.49,0.67,5.24,1.13,7.66,3.93c-4.93,3.8-10.48,5.59-16.09,6.97
			c-24.55,6.05-49.26,7.01-74.34,3.29c-32.33-4.8-61.26-17.59-88.16-35.61c-7.47-5.01-15.11-9.8-22.26-15.25
			c-4.64-3.54-9.5-4.66-14.94-3.78c-9.74,1.58-19.11-0.41-28.57-2.28c-23.05-4.57-44.84-12.52-65.5-23.66
			c-4.38-2.36-8.81-4.55-13.74-5.81c-4.89-1.25-8.86-4.51-13-7.32c-4.9-3.32-9.17-7.72-15.7-8.11c-2.37-0.14-3.82-2.53-5.46-4.15
			c-13.76-13.6-26.99-27.76-38.58-43.21c-10.68-14.24-17.17-30.73-21.07-48.14c-0.36-1.62-0.31-3.33-2.65-4.93
			c-4.69,2.26-7.74,7.27-12.32,10.25c-4.44,2.89-8.78,5.94-13.3,9.02c0.17,19.38,7.06,36.54,17.03,52.55
			c13.48,21.67,31.74,38.41,54.1,50.72c3.49,1.92,6.86,4.07,10.26,6.14C691.16,2042.52,691.23,2042.94,691.79,2044.01z"/>
	</g>
	<g>
		<path fill="#1A1A1A" d="M975.51,1618.16c-4.32,1.28-7.4,4.41-10.5,7.36c-9.11,8.67-20.4,13.65-31.66,18.44
			c-10.09,4.29-20.83,6.74-31.83,7.76c-4.01,0.37-7.95,0.11-11.82-1.12c-3.31-3.3-3.33-7.86-4.58-11.92
			c-0.36-1.18-0.49-3.05,0.18-3.83c4.43-5.18,1.49-9.99-0.43-14.87c-1.09-2.77-2.51-5.41-2.82-8.47c-0.47-4.78,0.79-8.5,6.85-8.42
			c7.34,0.1,14.45-1.98,21.66-3.17c4.95-0.82,9.76-2.08,14.38-3.96c14.15-5.75,28.33-11.47,41.87-18.59
			c2.34-1.23,4.66-2.56,6.83-4.09c10.53-7.4,21.64-11.6,34.53-6.62c1.78,11.09-1.96,20.57-8.5,29.24c-0.2,0.26-0.34,0.56-0.49,0.86
			c-0.71,1.43-1.78,2.86,0.18,4.67c1.69-1.45,3.38-2.97,5.15-4.39c7.2-5.76,8.65-13.63,8.17-22.2c-0.19-3.44-1.2-6.48-4.68-8.06
			c-6.19-7.39-13.83-8.12-22.56-5.35c-8.92,2.83-17.18,6.78-25.19,11.62c-9.35,5.65-19.03,10.56-29.63,14
			c-7.48,2.43-14.59,6.2-22.42,7.97c-5.58,1.26-11.15,1.56-15.89,1.31c-3.34-1.15-2.15-5-5.86-5.44c-4.58,1.85-7.17,6.83-11.13,9.41
			c-0.23,6.01-0.71,11.25,1.08,15.72c-1.83,1.99-4.07,0.34-5.25,2.91c2.31,6.72,6.62,13.08,8.71,20.48
			c2.16,7.61-1.22,15.11,1.73,23.01c-12.16-6.08-12.16-6.08-27.91-25.33c-1.17,8.56,0.13,12.38,7.96,18.01
			c10.37,7.44,19.55,16,27.16,26.21c3.97,5.32,7.62,10.89,11.42,16.33c0.75,1.08,1.48,2.94,2.36,3.04
			c6.18,0.65,7.45,6.16,10.11,10.08c3.5,5.17,5.92,11.03,11.02,15.13c1.63,1.31,2.74,3.68,2.44,6.9c-2.82-2.57-5.68-4.59-7.78-7.2
			c-10.99-13.63-24.62-24.44-38.76-34.29c-20.21-14.08-43.17-20.18-67.92-19c-11.94,0.57-23.88,1.06-35.82,1.69
			c-10,0.52-19.92,1.87-29.55,4.62c-17.89,5.11-32.42,15.21-43.33,30.33c-2.92,4.05-5.44,8.38-8.27,12.5
			c-5.1,7.43-5.44,16.28-7,24.65c-0.51,2.74-0.12,5.91-1.1,8.7c-4.4,12.66-2.25,25.15,1.72,37.23
			c4.98,15.16,10.76,30.05,11.41,46.21c2.02,0.62,3.55,1.1,5.45,1.69c0.14,1.48,0.37,3.09,0.44,4.72c0.25,6.4-1.7,13.07,3.73,18.69
			c1.57,1.62,1.4,5.04,1.78,7.67c1.33,9.43,4.97,17.98,10.21,25.79c5.17,7.71,10.5,15.34,16.28,22.59c2.62,3.28,6.28,5.89,9.87,8.19
			c11.35,7.29,20.86,16.45,29.2,27.01c3.62,4.58,6.68,9.82,13.19,11.48c1.7,0.43,2.75,3.52,4.06,5.42c2.43,3.55,4.98,6.95,9.85,8.4
			c2.68-6.14-3.46-10.72-1.85-16.74c2.12,2.95,4,5.61,5.94,8.23c2.79,3.76,5.86,7.07,10.21,9.3c5.74,2.94,9.49,8.23,13.58,13.06
			c1.49,1.76,3.1,3.43,4.77,5.02c0.36,0.34,1.24,0.13,2.48,0.22c0.95-5.89-3.55-10.35-4.81-16.62c4.26,1.84,6.3,4.89,8.78,7.28
			c2.63,2.54,5.15,5.23,7.42,8.1c2.69,3.39,4.98,7.08,7.58,10.54c2.06,2.73,3.21,6.78,8.26,5.48c0.98-0.25,2.68,1.68,3.84,2.81
			c2.85,2.78,5.46,5.84,10.86,7c-6.72,5.59-13.86,7-20.53,9.32c-6.78,2.36-14.56,1.34-20.63,6.44c-1.12,0.94-3.86,0.09-5.82-0.13
			c-4.63-0.5-9.25-1.21-13.89-1.64c-1.36-0.13-2.47,0.79-2.94,2.23c-0.46,1.41-0.18,2.59,0.95,3.55c2.92,2.5,6.47,3.4,10.15,3.72
			c3.91,0.34,7.17,1.46,8.65,5.56c-0.86,2.61-3.2,1.95-4.97,1.97c-22.77,0.28-44.23-4.81-64.12-16.05
			c-4.35-2.46-8.55-5.18-12.87-7.68c-2.01-1.16-4.27-3.12-6.22-2.91c-6.22,0.66-9.7-3.4-13.86-6.61c-4.6-3.54-8.44-7.7-15.3-8.27
			c-4.35-0.36-8.58-4.77-12.44-7.89c-5.18-4.18-9.73-9.06-13.8-14.4c-2.57-3.37-4.76-7.21-8.34-9.24c-3.05,0.56-1.67,2.76-2.35,4.07
			c-0.52-0.07-1.36,0.08-1.65-0.25c-11.79-13.22-22.44-27.2-29.51-43.65c-4.11-9.56-6.2-19.65-8.66-29.66
			c-0.85-3.45,0.3-6.47,2.16-9.44c2.83-4.51,6.04-8.95,7.88-13.87c6.38-17.07,12.89-34.13,14.51-52.56
			c0.44-5.07-0.11-10.01-0.75-14.92c-1.92-14.86-4.02-29.69-7.19-44.35c-2.12-9.83-5.2-19.28-9.59-28.31
			c-3.21-6.61-5.83-13.41-7.9-20.47c-4.45-15.17-11.54-29.05-21.23-41.58c-4.12-5.33-7.35-11.09-8.96-17.68
			c-2.04-8.41-4.08-16.82-6.17-25.22c-0.49-1.97-0.96-3.86,1.29-5.93c8.93,3.82,18.22,7.24,24.43,15.7
			c2.94,4.01,5.95,7.62,4.8,13.49c-0.86,4.41,3.82,13.44,7.38,17.6c4.13-12.86,2.59-18.27-9.25-37.28
			c7.79,0.26,15.27,3.57,22.76-0.23c0.18-3.42-3.97-1.69-5.04-4.65c7.16-5.97,17.36-10.33,17.64-23.76
			c-4.27,4.48-7.73,7.86-10.9,11.48c-5.56,6.37-13.16,8.66-20.86,10.83c-2.42,0.68-4.61,0.01-6.71-1.1
			c-3.54-1.86-7.02-3.82-10.6-5.59c-2.07-1.02-4.28-2.5-6.42-2.49c-7.95,0.04-12.42-5.16-16.95-10.39
			c-2.32-2.68-4.02-6.11-8.17-6.85c-2.36,3.24-0.07,5.26,1.4,7.16c6.1,7.87,9.02,16.93,10.56,26.59c0.77,4.86,0.47,9.65,0.43,16.22
			c-5.32-5.89-7.1-13.57-15.3-13.17c0.26,4.99,2.52,8.18,6.35,11.46c11.72,10.02,21.93,21.41,26.33,36.81
			c0.45,1.59,1.03,3.23,1.92,4.59c11.56,17.65,19.05,37.29,27.2,56.55c9.4,22.23,11.04,45.8,9.65,69.66
			c-0.23,3.91-1.44,8.12,2.92,10.81l-0.11-0.15c-2.05,15.81-8.31,30.01-16.52,43.51c-3.42,5.62-8.46,10.45-8.9,17.59
			c-7.85,7.67-12.77,18.3-22.55,23.61c-6.73-3.61-6.02-12.71-14.08-15.17c4.2,18.18,7.94,35.61,12.33,52.87
			c2.99,11.74,8.76,22.39,16.12,31.93c10.42,13.51,22.25,25.66,36.88,34.79c5.59,3.49,11.01,7.26,16.16,10.68
			c-0.5,3.53-2.66,3.75-4.56,4.08c-2.62,0.46-5.27,0.83-7.93,0.95c-20.13,0.85-40.01-1.1-59.23-7.16
			c-12.09-3.81-23.31-9.88-33.62-17.33c-16.66-12.03-30.52-26.75-41.45-44.2c-4.05-6.46-8.2-12.86-12.82-20.08
			c9.74-5.28,19.93-8.91,26.26-18.37c3.79,2.21,4.78,5.87,6.38,8.95c7.07,13.57,18.98,18.95,33.47,20.03c1.3,0.1,2.64-0.03,3.5-1.46
			c-0.24-2.36-2.31-1.85-3.75-2.14c-5.23-1.04-10.32-2.32-15.23-4.6c-9.52-4.43-14.63-12.26-17.83-21.72
			c-0.52-1.53-0.67-3.28-0.58-4.91c0.2-3.53,2.25-5.36,5.8-5.33c1.66,0.02,3.31,0.4,4.97,0.47c4.13,0.17,7.67-0.88,10.92-3.84
			c3.66-3.34,8.07-5.85,11.75-11.09c0.73,15.47-2.57,30.06,2.82,44.29c3.85-1.32,3.29-4.19,2.93-6.6
			c-1.34-8.96-0.84-17.95-0.78-26.94c0.07-10.19,3.94-19.57,6.81-29.03c1.65-5.45,6.77-9.76,9.74-14.93
			c6.13-10.67,12.16-21.42,17.64-32.43c3.42-6.89,4.18-14.7,5.34-22.27c1.26-8.22,2.21-16.49,3.4-24.72
			c1.2-8.31,1.09-16.6-0.02-24.9c-2.81-21-10-40.67-19.28-59.5c-6.91-14.02-13.89-28.14-22.96-40.9
			c-20.81-29.27-47.06-51.5-82.51-61.16c-7.06-1.92-14.18-3.66-21.25-5.54c-17.23-4.56-34.29-2.79-51.39,1.02
			c-15.25,3.39-28.57,9.73-40.63,20.14c-8.03,6.93-14.97,13.94-19.03,23.69c-1.21,2.89-3.29,4.65-6.26,5.79
			c-2.57,0.99-0.82,6.23-5.4,5.88c-1.5-0.12-1.83,1.56-2.12,2.89c-0.92,4.25-1.57,8.4-0.46,12.82c2.91,11.64,4.32,23.51,5.77,35.44
			c2.2,18.15,6.09,36.15,13.82,52.82c2.63,5.68,4.11,12.43,10.12,16.55c3.3,2.26,3.29,7.08,4.74,10.77
			c1.67,4.26,0.11,10.31,6.56,12.08c0.52,0.14,0.73,1.77,0.91,2.74c3.46,18.02,13.3,33.1,22.44,48.48
			c3.48,5.86,8.65,10.13,14.7,13.2c5.05,2.56,10.21,4.89,15.35,7.27c2.95,1.36,5.7,3.32,9.13,0.43c1.53-1.29,3.85,0.22,5.66,0.94
			c5.67,2.23,10.33,5.98,14.86,9.96c1.84,1.62,3.34,4.4,7.02,3.09c0.85-4.24-4.08-5.64-4.69-9.08c6.05,0.35,10.45,1.81,15.81,5.9
			c4.49,3.42,9.06,6.83,12.31,11.61c0.74,1.1,1.62,2.12,2.55,3.06c4.18,4.22,5.92,3.72,8.66-2.48c4.66,3.2,4.8,10.44,11.07,12.28
			c0.73,0.21,0.91,2.35,1.33,3.59c0.84,2.5,0.27,5.36,1.87,7.65c0.36,0.1,0.83,0.36,0.98,0.24c1.18-0.99,2.3-2.05,3.46-3.11
			c2.71,3.27,1.01,5.73-1.22,7.93c-6.76,6.65-14.41,11.88-23.85,13.9c-3.91,0.84-7.82,1.4-11.44,3.34
			c-4.77,2.56-9.84,1.16-14.68,0.26c-10.84-2.01-21.36-5.3-31.37-9.9c-15.17-6.96-29.98-14.58-41.77-26.87
			c-2.27-2.37-4.71-4.52-8.24-5.31c-4.49-1.01-6.84-5.07-9.68-8.24c-11.41-12.72-19.94-27.45-29.12-41.75
			c-15.7-24.44-24.49-51.62-32.3-79.24c-0.98-3.48-1.79-6.81-4.38-9.83c-3.58-4.17-3.38-9.92-4-15.16
			c-0.67-5.61-0.65-11.31-2.66-16.69c-2.88-0.02-4.73-0.83-5.33-4.14c-1.96-10.83-3.65-21.68-3.77-32.71
			c-0.33-31.94,4.98-62.96,15.33-93.15c1.3-3.79,2.27-7.61,2.8-11.62c1.17-8.91,2.76-17.76,4.05-26.66
			c3.04-20.91,0.8-41.24-7.45-60.72c-4.14-9.78-7.23-20.01-12.74-29.22c-1.67-2.79-2.48-6.2-3.19-9.43
			c-5.3-24.04-10.33-48.15-15.79-72.15c-1.81-7.95-0.91-15.93-1.5-23.88c-0.98-13.28-2.12-26.54-2.12-39.9
			c-0.01-28.49,4.09-56.38,11.13-83.9c1.24-4.83,3.98-10.01,3.17-14.5c-2.18-12.02,3.62-21.89,6.73-32.51
			c1.17-3.99,3.96-7.75-0.03-11.94c-1.33-1.39,0.08-3.83,0.55-5.75c3.78-15.46,3.28-30.93,1.2-46.63
			c-2.45-18.52-6.76-36.52-12.59-54.21c-4.8-14.54-8.03-29.58-13.75-43.83c-10.94-27.23-19.61-55.27-27.7-83.4
			c-6.91-23.99-14.54-47.78-20.97-71.91c-5.67-21.26-13.6-41.79-20.47-62.66c-7.48-22.73-15.81-45.22-19.26-69.1
			c-0.66-4.59-2.33-9.02-3.36-13.56c-0.83-3.64-5.66-4.66-5.22-9.53c0.34-3.78-1.93-7.72-2.36-11.66
			c-1.7-15.74-6.88-30.48-12.58-45.08c-8.11-20.78-13.13-42.61-21.92-63.18c-7.36-17.21-15.7-33.8-25.9-49.5
			c-4.11-6.32-7.63-13.01-10.85-19.91c6.37,5.89,11.46,12.72,15.81,20.08c6.27,10.61,12.24,21.4,18.44,32.05
			c4.52,7.76,8.37,15.89,13.69,23.23c2.28,3.14,3.36,7.19,4.78,10.91c2.72,7.12,4.67,14.52,10.07,20.44c1.86,2.04,2.2,5.48,3.17,8.3
			c6.47,18.88,11.6,38.31,21.35,55.88c5.81,10.47,12.33,20.57,23.24,26.86c2.51,1.44,4.27,4.14,6.48,6.16
			c2.38,2.18,4.11,5.31,7.73,5.6c2.09-0.86,2.1-2.59,2.03-4.24c-0.22-4.66-0.3-9.34-0.84-13.96c-1.41-11.94-1.73-23.9-1.54-35.92
			c0.14-8.98-0.42-17.98-0.76-26.97c-0.12-3.23-0.3-6.5-2.01-9.24c-2.25,0.28-1.85,2.04-2.66,2.99c-0.41-0.39-1.06-0.71-1.2-1.19
			c-5.57-19.53-11.13-39.06-16.56-58.62c-0.8-2.86-0.97-5.9-1.43-8.86c1.9,3.87,3.6,7.87,5.77,11.59c1.96,3.37,1.85,8.41,8.28,10.37
			c-2.62-12.53-7.87-22.88-11.21-33.8c-3.4-11.13-6.05-22.4-8.56-33.77c-2.47-11.21-3.05-22.82-6.49-34.46
			c-5.34,4.38,0.42,10.15-3.84,14.77c-4.52-9.01-10.14-16.78-16.54-23.91c-12.21-13.62-24.44-27.23-37.13-40.4
			c-8.75-9.09-18.25-17.47-27.49-26.09c-1.72-1.61-3.43-3.71-6.51-3.28c0.6,3.21,2.61,4.58,4.23,6.16
			c20.74,20.21,39.63,42.16,59.27,63.41c7.92,8.57,14.68,18.04,21.08,27.79c6.18,9.42,9.69,19.84,10.08,30.9
			c0.18,5.22,0.91,9.77,3.51,14.14c-3.72,3.52-3,8.01-2.21,12.2c1.6,8.5,3.35,16.99,5.58,25.34c3.44,12.86,7.35,25.6,11.03,38.4
			c2.21,7.68,6.81,14.5,8.01,22.54c0.49,3.28,1.93,6.65,1.52,9.79c-1.62,12.42,1.62,24.54,1.68,36.84c0,0.99,0.24,1.98,0.36,2.97
			c0.33,2.71,0.66,5.56-2.48,6.85c-2.88,1.18-5.11-0.5-7.16-2.34c-4.52-4.06-8.04-8.88-10.7-14.32c-2.48-5.09-4.89-10.21-7.29-15.34
			c-1.69-3.62-3.2-7.31-6.61-9.82c-1.93-1.42-2.82-3.67-3.63-5.86c-1.96-5.31-4.44-10.5-5.7-15.97c-4.92-21.45-12.91-42-18.35-63.29
			c-0.72-2.79-1.47-5.69-4.5-8.66c-1.97,6.45,2.6,11.49,1.04,18.25c-3.37-7.81-6.64-14.3-8.99-21.1
			c-3.78-10.9-10.12-20.25-17.04-29.18c-29.4-37.91-59.01-75.65-88.52-113.46c-3.48-4.46-6.94-8.95-10.26-13.54
			c-18.89-26.19-30.17-38.26-54.63-58.21c-1.55-6.27-0.67-12.95-2.5-19.49c-1.96-7.01,2.5-11.82,10.11-12.96
			c2.26-0.34,4.68,0.21,7.17-1.42c0.33-1.27,1-2.83,1.1-4.43c1.37-22.54,10.19-42.56,20.85-61.95
			c14.84-26.99,33.53-51.26,53.48-74.57c24.92-29.13,51.14-57.08,79.74-82.63c18.88-16.87,39.13-32.07,61.34-44.51
			c4.03-2.26,7.58-5.4,11.21-8.31c21.65-17.34,44.58-32.68,69.76-44.49c11.5-5.39,23.26-10,35.85-12.09
			c3.27-0.54,6.63-0.98,9.92-0.85c7.18,0.29,14.14,2.43,21.55-0.48c4.82-1.9,9.43,2.13,13.68,4.58c2.69-2.62-0.52-3.54-1.09-5.07
			c-1.28-3.48-0.74-5.92,2.04-7.77c4.83-3.22,11.93-1.56,14.59,3.59c1.21,2.35,2.09,4.91,2.9,7.44
			c9.52,29.83,20.45,59.15,31.97,88.27c3.18,8.04,5.59,16.38,8.51,24.53c13.43,37.41,32.53,71.53,59.99,100.5
			c8.17,8.62,15.74,18.15,27.01,23.64c-1.87,2.64-3.89,1.43-5.48,1.02c-6.22-1.63-12.57-1.38-18.88-1.6
			c-7.77-0.27-15.08-2.06-22.29-4.96c-13.7-5.51-26.17-13.07-38-21.79c-1.35-1-2.55-2.05-3.34-3.61c-0.74-1.46-1.51-3.12-2.73-4.1
			c-13.14-10.41-22.64-24.42-35.23-35.36c-5.7-8.16-11.36-16.35-17.12-24.47c-5.97-8.42-10.58-17.64-15.84-26.47
			c-4.99-8.38-8.53-17.68-15.6-26.16c-0.76,4.1,0.54,6.5,1.68,8.76c7.33,14.52,14.48,29.16,23.45,42.75
			c6.39,9.69,13.24,19.1,22.14,26.77c0.06,6,2.36,10.87,7.03,14.73c4.63,3.83,8.35,8.48,11.95,13.31
			c3.98,5.35,9.11,9.69,14.35,13.85c8.35,6.63,17.96,11.49,25.98,18.61c1.41,1.25,3.63,1.55,5.42,2.41c2.9,1.39,6.14,2.24,9.16,5.31
			c-8.93,1.73-17.01,2.48-25.27,2.55c-21.67,0.18-43.27,1.41-64.14,8.07c-10.51,3.36-20.45,7.98-29.77,13.91
			c-5.62,3.58-11.22,7.19-16.88,10.7c-14.61,9.06-24.36,22.35-32.45,37.1c-0.77,1.41-1.86,2.78-0.66,5.1
			c3.61-0.75,4.73-4.09,6.38-6.62c6.04-9.27,13.06-17.65,21.43-24.93c9.18-7.98,19.52-13.91,31.05-17.69
			c10.43-3.42,20.41-7.74,29.71-13.6c1.38-0.87,3.03-1.43,4.64-1.79c9.38-2.09,18.84-3.47,28.6-3.31c-0.35,1.79-1.34,2.17-2.29,2.32
			c-15.84,2.56-29.72,9.85-42.61,18.81c-21.1,14.66-40.92,30.94-58.79,49.47c-3.43,3.55-7.04,7.03-8.86,11.77
			c2.15,2.08,3.33,0.14,4.34-0.78c6.13-5.64,12.33-11.22,18.13-17.19c9.55-9.83,19.53-19.1,31.15-26.46
			c4.06-2.57,7.03-8.4,13.44-4.58c0.66,0.4,2.44-0.79,3.55-1.48c2.26-1.4,4.49-2.89,6.62-4.48c26.23-19.65,56.93-26.48,88.43-31.45
			c20.51-3.24,40.49-0.26,60.52,3.26c15.73,2.77,31.33,6.63,47.17,8.37c16.77,1.84,32.54,6.68,48.3,12.1c3.8,1.31,7.45,2.51,10,6.08
			c2.26,3.16,6.13,3.69,9.7,4.54c16.23,3.87,32.12,8.86,47.34,15.72c23.09,10.41,45.54,22.07,66.66,36.1
			c9.66,6.42,19.46,12.85,26.59,22.38c1.19,1.59,2.85,2.76,4.89,3.29c5.41,1.42,9.66,4.96,12.95,9.01
			c6.74,8.31,15.04,15.06,21.9,23.19c3.54,4.19,7.47,8.19,10.01,14.08c-4.68,0.11-5.22-5.1-8.88-4.84
			c-2.76,1.43-1.45,3.52-0.33,4.92c3.94,4.9,8.42,9.38,12.18,14.4c9.53,12.73,21.13,23.96,28.09,38.55
			c0.84,1.76,1.54,3.58,2.29,5.33c-2.22,1.53-2.67-2.25-3.7-1.36c-2.5,1.23-1.99,2.54-1.48,3.73c2.89,6.77,7.1,12.78,10.94,19
			c2.09,3.39,3.92,6.94,5.74,10.49c1.32,2.58,0.32,4.47-2.15,5.71c-0.99-5.85-0.99-5.85-5.12-9.42c2.1,3.69,3.68,6.48,5.27,9.27
			c1.72,2.26,2.7,5.4,7.18,4.12c-1.87,7.51-0.32,13.44,1.62,19.48c2.53,7.87,6.17,15.47,6.89,23.75c-1.75,1.78-3-0.99-4.78-0.02
			c-1.59,1.04-1,2.73-0.49,4.27c5.32,15.97,7.56,32.35,7.07,49.17c-0.39,13.41-3.41,26.37-6.3,39.35
			c-1.45,6.48-3.51,12.83-5.26,19.24c-0.44,1.61-1.13,3.26-1.06,4.87c0.47,10.93-3.92,20.65-7.31,30.63
			c-3.44,10.12-7.9,19.73-13.4,28.91c-3.71,6.2-6.92,12.69-10.13,18.63c1.39,2.22,2.98,0.9,3.77,1.46c1.64,1.02,1.62,2.41,1.63,3.71
			c0.24,21.71,3.62,43.09,6.81,64.48c1.76,11.8,4.03,23.52,6.16,35.27c1.25,6.91,3.55,13.4,6.8,19.72
			c5.77,11.23,10.23,23.1,16.36,34.17c0.95,1.71,1.49,3.76,1.73,5.71c1.23,10.09,6.65,18.03,13.14,25.29
			c9.45,10.58,16.4,22.52,20.71,36.01c1.42,4.44,3.11,8.91,2.52,13.65c-0.61,4.86,1.9,7.53,5.75,9.43
			c4.18,2.05,8.46,3.88,12.67,5.89c16.53,7.88,32.81,16.36,49.64,23.55c18.04,7.7,36.59,14.25,55.67,19.05
			c20.92,5.27,39.75,15.18,58.03,26.21c22.59,13.63,40.13,32.78,56.63,52.96c5.69,6.96,11.17,14.09,16.72,21.15
			c8.88,11.31,15.58,23.81,20.8,37.19c3.75,9.61,8.48,18.82,11.03,28.9c2.87,11.33,5.25,22.69,4.7,34.49
			c-0.19,3.99,0.39,8.05-0.11,11.99c-1.87,14.85,4.24,27.14,11.65,39.23c3.43,5.59,5.96,11.67,11.22,16.02
			c1.4,1.15,1.88,3.42,2.56,4.75c-0.38,2.42-3.18,1.96-3.17,5.77c0.15,1.56,2.73,3.31,4.7,5.52c5.56,6.25,10.51,12.73,12.25,21.35
			c0.83,4.11,3.45,7.88,5.35,11.76c2.28,4.68,4.98,9.19,6.35,13.86c-2.48,2.3-4.59,1.54-6.44,1.22c-4.82-0.83-9.32,0.03-13.58,2.14
			c-4.45,2.2-8.68,5.2-14.47,0.02c1.15,8.27,8.15,11.58,7.26,18.36c-2.06,1.67-3.46,0.15-4.84-1.37c-1.9-2.1-2.87-5.58-7.17-4.47
			c-1.81,3.6-0.17,6.91,1.29,10.22c3.31,7.5,4.15,15.25,2.8,24.17c-3.61-2.26-2.47-5.77-3.7-8.15c-1.35-2.62-1.04-5.95-4.36-8.91
			c-0.14,10.64-1.01,20.48-3.1,30.33c-3.74-1.43-1.27-6.44-5.73-7.15c-4.29,3.8-2.25,9.8-4.17,14.55
			c-1.98,4.88-2.35,10.39-3.95,15.46c-1.57,5.01-1.86,10.44-4.4,15.12c-1.53-0.4-2.74-0.71-4.23-1.1c-1.25,4.62-2.7,8.94-1.82,13.72
			c0.35,1.9,0.14,4-0.23,5.92c-4.38,22.69-1.33,44.91,5.42,66.55c5.14,16.48,15.32,30.34,27.52,42.36
			c13.53,13.33,22.32,28.9,24.97,47.64c0.83,5.85,2.97,11.51,2.14,17.72c-0.52,3.92,2.5,7.29,4.29,11.15
			c6.13-1.27,5.84-7.96,10.3-11.43c0.11,7.24-5.07,11.79-5.35,17.28c1.71,8.76,11.32,7.76,16,13.87
			c-12.16,8.75-24.78,11.22-38.73,6.79c-3.96-1.26-5.83-4.24-6.73-7.99c-2.58-10.73-6.89-20.86-10.75-31.14
			c-8.51-22.7-21.16-43.01-36.57-61.59c-10.48-12.64-22.97-23.05-37.02-31.7c-6.67-4.11-14.53-7.04-18.17-15
			c-0.89-1.93-3.11-2.39-4.94-3.16c-6.44-2.71-12.73-5.77-19.47-7.77c-2.48-0.74-5.26-1.11-7.28-3.12c0.43-2.02,3.01-0.64,3.88-3.01
			c-3.65-4.81-11.39-4.36-14.84-9.57c0.28-3.77,3.57-4.96,5.3-7.3c4.89-6.62,6.94-13.46,3.27-21.45c-2.23-4.85-4.27-9.76-7.27-14.2
			c-4.64-6.89-10.27-12.25-19.12-12.95c-0.88-0.07-1.71-0.85-3.01-1.55c1.37-13.12,11.43-18.8,22.72-24.14
			c-5.06-2.58-8.07-0.06-11.7-0.16c-0.72-2.5,0.83-4.22,2.25-5.91c5.52-6.59,9.39-14.31,16.15-20.17
			c5.12-4.43,8.88-10.77,10.87-17.68c0.45-1.56,1.21-3.1-0.21-4.59c-2.44,0.81-3.39,3.01-4.59,4.96c-1.9,3.09-3.37,6.39-7.86,6.81
			c-2.44,0.23-3.68,2.8-4.58,4.94c-3.91,9.33-10.02,17.29-16.03,25.22c-6.61,8.72-10.98,18.22-12.33,29.01
			c-0.45,3.63-1.99,6.03-4.84,8.22c-14.78,11.33-28.95,23.36-42.19,36.49c-3.09,3.06-6.8,5.28-10.98,6.77
			c-2.48,0.88-4.94,2.09-7.07,3.62c-2.81,2.02-1.93,4.64,2.62,7.33c-6.4,2.16-12.62,0.96-18.71,1.19c-7.88,0.3-8.17,0.34-13.88,5.64
			c-1.77,0.11-3.18-0.72-4.57-1.69c-1.29-0.91-1.5-3.03-4.08-3.11c-3.45,4.25-7.11,8.76-10.76,13.26c2.27,2.15,3.61,0.72,4.95-0.06
			c1.41-0.82,2.72-1.82,3.72-2.51c3.46,0.64,6.4,1.68,9.31,1.62c6.57-0.13,13.13-0.8,19.22-1.22c1.79-1.3,1.33-2.68,1.23-4.34
			c3.14-1.48,6.55-2.3,10.14-2.76c2.61-0.33,5.18-1.15,7.69-1.96c2.69-0.87,4.71-2.46,4.79-5.65c0.07-3.18-3.28-2.58-5.18-3.91
			c2.92-2.24,5.56-3.37,9.13-3.44c2.77,4.54-1.05,11.55,4.76,15.09c3.17-1.49,3.17-4.22,3.19-6.9c0.09-12.32,6.42-21.17,15.32-28.94
			c5.68-4.96,11.78-9.35,16.94-15.05c10.64-11.74,20.68-11.2,31.13,0.75c3.32,3.8,5.76,8.17,7.59,12.85
			c4.66,11.92-1.12,21.67-13.98,23.35c-0.06,3.3,3.45,5.32,2.86,9.13c-0.46,2.96,2.73,5.03,5.19,6.77
			c5.74,4.05,11.86,7.29,18.51,9.69c3.87,1.39,8.5,1.84,11.63,7.09c-8.01,0-15.16-0.1-22.31,0.03c-7.34,0.13-14.67,0.82-21.72,2.91
			c-8.65,2.57-16.95,5.79-23.61,12.43c-4.43,4.41-10.67,6.77-14.33,12.16c-1.48,2.18-4.15,1.68-6.2,2.47
			c-5.77,2.22-8.57,6.75-10.62,12.04c-0.16,0.41,0.53,1.14,0.97,2c-6.66,2.92-13.69,5.13-18.99,10.54c-3.04,3.11-6.27,5.97-8.16,10
			c-0.56,1.2-1.22,2.39-2.02,3.44c-13.43,17.54-16.65,38.13-17.15,59.32c-0.34,14.63-0.31,29.3,2.39,43.81
			c5.42,29.14,17.19,55.16,37.53,77c1.36,1.46,2.74,3,4.39,4.07c10.8,6.98,17.49,17.02,21.97,28.8c0.56,1.48,0.73,3.32,2.53,4.11
			c2.43-0.38,2.05-2.26,1.9-3.82c-0.57-6-2.82-11.53-5.82-17.77c7.45,4.96,9.53,8.33,17.9,27.21c4.54,10.25,4.28,21.3,5.08,32
			c3.05,0.58,3.13-1.38,3.44-2.85c1.35-6.45,2.61-12.92,4.12-20.5c4.17,6.93,3.41,13.92,5.42,19.98c1.99,6,2.42,12.71,6.03,18.46
			c4.6-2.15,1.64-6.26,3.58-9.8c4.31,7.1,10.88,11.28,16.84,16.18c8.22,6.76,12.82,15.28,10.72,26.05c2.73,2.09,4.2,4.93,7.31,5.4
			c0.52,5.56-3.6,10.09-3.23,16.04c6.51-0.09,5.97-7.07,10.68-9.07c9.93,15.31,24.44,23.1,43.12,25.12c-0.36-4.1-3.15-4.31-5-4.85
			c-11.96-3.47-21.14-11.13-29.75-19.57c-3.42-3.36-7.13-6.96-5.89-13.42c14.04,2.72,27.36,0.49,41.37-4.03
			c0.94,8.5,0.56,16.75,6.4,22.93c2.34-1.42,1.6-3.05,1.34-4.59c-0.45-2.62-1.12-5.22-1.27-7.85c-0.79-13.68,1.01-16.44,14.56-22.73
			c5.13,3.14,7,8.56,8.61,13.91c2.1,7.01,4.42,14.07,5.37,21.28c3.37,25.7,16.75,45.9,33.78,64.38
			c9.11,9.88,19.25,18.37,30.69,25.38c1.68,1.03,3.2,2.35,4.75,3.58c0.21,0.16,0.21,0.59,0.31,0.89c-0.39,0.46-0.77,1.31-1.18,1.32
			c-20.16,0.53-39.99-2.15-59.07-8.38c-16.78-5.47-32.64-13.4-47.89-22.38c-19.62-11.55-37.35-25.57-53.64-41.44
			c-0.94-0.91-1.99-1.77-2.02-3.81c2.92-3.47,8.33-4.93,10.56-9.65c0.26-0.56,0.2-1.27,0.28-1.9c-0.65-1.05-1.79-1.2-2.48-0.52
			c-6.92,6.98-16.04,9.26-25.03,11.61c-7.07,1.84-14.41,2.36-21.57,3.99c-5.16,1.18-10.56-0.02-15.82-1.22
			c-3.46-0.79-6.78-2.95-10.36-1.91c-1.26,1.4-0.51,2.74-0.58,4l0.14-0.14c-5.14-1.83-9.81-5.85-15.95-2.42
			c-1.93,1.08-4.51-0.24-6.73-1.05c-16.19-5.89-30.22-15.19-42.8-26.87c-3.26-3.03-4.42-6.49-3.78-10.73c0.35-2.3,0.73-4.6,1.08-6.9
			c0.42-2.7,0.44-5.41-1.45-7.59c-3.19-3.66-2.91-7.94-2.56-12.3c0.71-8.74,0.13-17.29-3.73-25.36c-0.43-0.9-0.89-1.84-1.01-2.81
			c-1.85-15.14-8.39-28.64-14.7-42.22c-0.98-2.11-1.73-4.45-3.18-6.19c-5.9-7.06-8.77-15.54-12.13-23.88
			c-7.12-17.65-17.08-33.83-27.09-49.93c-3.02-4.85-5.66-9.71-7.38-15.15c-3.42-10.8-7.6-21.26-13.55-31
			c-2.8-4.59-6-8.68-9.62-12.62c-6.73-7.33-13.16-14.95-19.51-22.61c-3.78-4.56-4.54-10.26-4.81-15.94
			c-0.15-3.12,2.61-5.51,5.8-5.44c2.9,0.06,4.04,2.22,4.43,4.56c0.43,2.6,0.31,5.3,0.43,7.95c0.1,2.3,0.19,4.6,0.35,6.9
			c0.02,0.26,0.43,0.49,0.96,1.05c3.48-1.74,3.91-5.23,3.63-8.28c-0.87-9.73,4.97-13.62,12.94-15.98c4.78-1.42,9.63-2.66,14.3-4.37
			c12.25-4.47,23.38-11.08,34.04-18.5c4.2-2.92,7.44-6.61,8.82-11.68c3.71-1.3,5.79-4.38,7.23-7.62c1.23-2.76,1.76-6.07-2.14-8.46
			C978.79,1608.35,978.88,1614.02,975.51,1618.16z M781.9,1648.49c-3.18-2.47-6.33-2.15-10.62,0.86c4.38,2.04,7.53,2.81,10.52-1.03
			c2.1,1.68,4.07,4.05,7.43,1.3C786.73,1648.06,784.46,1647.44,781.9,1648.49z M366.28,762.73c-0.34,4.02,1.2,7.34,3.86,10.23
			c1.75,5.73,2.95,11.89,10.42,14.05c-2.1-9.48-3.35-11.07-10.57-13.94c1.42-4.43-0.98-7.41-3.85-10.22
			c0.38-3.33,1.76-6.86-2.34-10.03C362.62,757.07,363.65,760.08,366.28,762.73z M467.94,321.68c1.4-0.81,2.92-1.56,2.03-4.1
			c-6.21-2.25-11.67,1.22-17.36,3.02c-1.54,0.49-2.97,1.19-3.74,2.85c-0.55,1.2-0.14-0.32,0.5,0.93c0.91,0.16,1.87,0.32,2.82,0.48
			c-2.27,2.07-5.23,2.78-7.92,4.02c-5.42,2.5-10.82,5.05-16.15,7.73c-1.26,0.63-3.2,1.35-1.68,4.16c7.83-4.41,16.52-6.32,24.84-9.28
			c5.55-1.98,11.09-4.45,15.39-8.83C467.11,322.33,467.53,322.01,467.94,321.68z M798.58,1646.18c-2.8-1.14-5.29-3.74-9.63-2.18
			c2.08,3.88,2.89,7.75,7.01,9.46c1.36-2.06-1.69-4.98,1.74-6.14c3.87,2.45,7.72,4.96,11.64,7.32c0.8,0.48,1.91,0.52,2.9,0.59
			c2,0.16,3.69-2.36,2.81-4.12c-1.97-3.99-5.86-6.2-10.59-5.39C802.47,1646.06,800.56,1646.23,798.58,1646.18z M818.07,1596.7
			c-2.74-0.64-4.46-5.3-8.42-2.21c0.98,4.92,3.55,7.68,8.63,7.64c2.74,2.42,5.39,4.93,8.23,7.22c2.55,2.06,5.27,2.21,8.33-0.04
			c-1.87-5.86-6.04-9.61-10.29-13.21C822.42,1594.31,820.15,1595.58,818.07,1596.7z M1220.21,1398.92c-3.56-0.29-4.3,2.46-5.16,4.93
			c-3.13,8.97-5.98,18.05-12.63,25.29c-0.73,0.8-1.1,2.43,0.83,3.25c3.1-1.4,4.33-4.68,6.46-7.07c5.98-6.72,11.05-13.89,9.52-23.7
			c-0.14-0.88,0.51-1.88,0.79-2.83c7.4-3.12,7.4-3.12,3.43-7.98C1220.98,1392.98,1217.89,1394.82,1220.21,1398.92z M335.03,1301.2
			c7.54-11.99,12.51-25.3,19.35-37.66c0.73-1.33,2.68-2.89,0.66-5c-5.36,6.68-9.79,13.62-13.74,20.83
			c-3.64,6.63-6.62,13.61-7.48,21.27c-0.89,1.35-1.94,2.64-1.4,4.47c1.33,1.69,3.03,2.88,5.13,3.47
			C339.6,1305.04,337.47,1303.07,335.03,1301.2z M816.25,1024.78c-2.6-1.59-3.2-5.54-6.95-6.32c0.96,5.66,0.96,5.66,7.09,6.17
			c-0.67,1.1-1.34,2.2-1.95,3.21c6.41,10.38,14.09,18.63,26.85,20.43C832.94,1040.44,824.6,1032.61,816.25,1024.78z M773.88,851.19
			c-0.07,1.38,0.07,2.88,1.95,1.95c2.45-1.22,3.48-3.67,4.39-6.12c3.54,0.12,6.23-1.05,8.57-4.02c4.73-6.03,10.53-10.99,16.39-15.96
			c6.32-5.36,11.96-11.56,17.62-17.65c1.8-1.94,4.13-4.28,2.76-8.15c-3.69,1.28-5.82,3.82-8.1,6.14
			c-8.04,8.19-14.17,18.52-25.62,22.93c-0.87,0.33-1.72,1.14-2.22,1.94c-3.27,5.31-7.87,8.68-13.73,10.89
			C772.22,844.52,771.15,847.65,773.88,851.19z M320.25,618.74c0.67,2.63-1.65,5.48,0.85,9c1.72-3.82,2.33-6.53-1.01-8.86
			c2.61-19.6,5.22-39.19,7.9-59.33c-3.33,1.34-4.61,3.29-5.33,5.51c-3.48,10.76-7.18,21.47-10.17,32.37
			c-2.19,7.99-4.61,16.3-3.79,24.52c0.61,6.07,0.65,11.82-0.33,17.75c-0.99,6.01-0.54,8.88,1.41,13.86c2.61-2.23,2.26-5.38,2.9-8.23
			C314.68,636.33,314.85,626.78,320.25,618.74z M1086.04,1389.12c2.51,0.4,3.35-1.3,4.47-2.4c5.38-5.3,10.12-11.65,19.05-10.72
			c0.85,0.09,1.85-0.71,2.7-1.22c6.39-3.8,13.35-5.86,20.64-7.07c2.27-0.37,4.61-1.03,6.64-2.09c18.04-9.53,35.38-20,47.77-36.87
			c3.35-4.56,6.91-8.99,9.99-13.72c5.27-8.11,9.62-16.62,12.04-26.16c4.55-17.94,6.04-36.05,4.67-54.44
			c-1.48-19.75-7.99-37.58-20.34-53.21c-9.52-12.05-20.48-22.74-31.42-33.42c-10.98-10.72-21-22.24-30.4-34.37
			c-8.01-10.33-18.13-18.65-28.89-25.88c-17.17-11.54-36.6-17.49-56.97-20.13c-18.31-2.38-36.5-2.61-53.96,5.22
			c-5.68,2.55-10.3,5.82-13.5,11.25c-4.11,6.99-6.58,15.46-15.55,18.38c-0.28,0.09-0.5,0.43-0.7,0.7
			c-7.43,10.19-16.01,19.57-21.07,31.4c-3.4,7.96-7.07,15.8-9.83,24.02c-1.81,5.4-3.63,11.28-7.79,14.92
			c-6.91,6.04-6.83,16.43-14.64,21.63c-0.83,0.55-0.16,1.77,0.19,2.71c0.98,2.59-0.89,3.72-2.76,4.4c-1.52,0.55-3.3,0.8-4.9,0.62
			c-9.89-1.13-19.2,1.67-28.43,4.4c-5.05,1.49-11.73,2.1-10.81,10.38c0.09,0.83-1.65,1.91-2.6,2.81c-1.43,1.37-3.84,2.48-4.21,4.08
			c-1.23,5.31-5.45,7.61-9.41,9.73c-12.9,6.91-25.92,13.62-40,17.94c-16.54,5.08-33.48,4.6-50.51,4.01
			c-19.59-0.67-39.04-3.55-58.8-1.96c-12.94,1.05-23.92,4.79-33.11,13.85c-0.38,0.37-1.23,0.25-1.72,0.34
			c-0.81-1.12-1.56-2.16-1.84-2.54c-3.97,0.02-3.38,3.86-6.73,4.47c1.4-7.49,0.95-14.71-2.66-21.18
			c-3.32-5.95-4.8-13.56-12.39-16.38c-3.09,3.76-1.16,7.18-0.28,10.04c1.88,6.16,1.88,11.86-1.07,17.83
			c-0.76-1.15-1.39-1.95-1.84-2.83c-8.74-16.99-22.17-28.65-39.7-36.13c-16.32-6.97-33.57-10.8-50.4-16.05
			c-14.85-4.62-30.05-5.7-45.34-5.1c-29.57,1.17-56.86,9.8-81.57,26.35c-27.01,18.1-37.71,47.02-29,78.28
			c2.22,7.97,3.32,16.13,2.24,24.34c-9.14,1.79-8.14-8.84-13.77-10.76c-2.42,1.69-2.05,3.74-1.48,5.62
			c2.55,8.39,2.79,17.09,3.28,25.7c0.46,8.1,0.77,16.32-2.18,24.57c-1.65-3.33,0.25-7.06-2.48-9.72c-3.54,1.78-4.12,5.14-4.9,8.34
			c-3.53,14.62-5.38,29.36-3.84,44.45c0.6,5.91,0.51,11.81,3.13,17.42c4.36,9.35,8.41,18.84,12.51,28.31
			c1.08,2.5,2.4,4.88,4.46,6.55c4.97,4.02,8.42,9.41,12.89,13.85c6.13,6.09,12.04,12.44,19.24,17.38
			c15.73,10.79,33.85,15.22,51.93,19.82c2.88,0.73,4.08-1.21,5.62-3.1c11.95,2.61,22.09,9.32,32.9,16.34
			c1.16-6.75-5.2-8.25-6.29-12.63c3.17-0.58,5.25,1.36,7.36,2.74c6.13,4,12.14,8.19,18.09,12.45c3.52,2.52,7.01,4.81,10.98,4.33
			c1.5-1.36,0.5-3.44,3.03-3.34c3.04,2.8,7.22,4.23,11.44,4.98c13.77,2.48,27.61,4.31,41.68,2.35c5.65-0.79,11.31-1.19,14.99-5.67
			c2.43,0.21,3.61,3.42,5.7,1.18c2.02-4.04-2.05-7.77-0.21-12.18c6.04,4.86,11.52,10.25,17.91,14.17c6.55,4.01,8,13.14,16.26,14.57
			c-0.44,4.27,0.77,7.37,4.83,11.52c0.23-9.63,0.42-17.48,0.65-27.13c3.8,6.01,5.22,11.15,5.55,15.76
			c0.46,6.44,3.91,10.71,6.8,15.49c3.73,0.08,4.81-3.78,7.79-4.42c1.06,11.85,2.9,13.13,14.18,9.86c1.28-0.37,2.56-0.72,3.82-1.15
			c2.66-0.9,5.29-0.79,7.77,0.47c14.92,7.56,31.01,9.7,47.42,10.15c13.95,0.38,27.91,0.49,41.84-0.57
			c3.63-0.28,7.23-1.07,10.82-1.71c13.45-2.37,26.5-6.73,39.81-9.3c13.15-2.54,25.27-8.31,38.45-10.35
			c0.81-0.12,1.48-1.12,2.11-1.63c-0.33-2.98-3.52-2.84-4.58-4.66c5.6,0,11.22,0.2,16.82-0.06c5.45-0.25,11.1,2.29,15.02,0.12
			c3.61-4.23-1.96-5.19-0.44-8.4c2.57,0.24,5.37-0.04,7.77,0.81c7.84,2.78,15.21,0.43,22.46-1.88c3.98-1.27,9.05-2.85,10.21-7.09
			c0.96-3.5,3.21-4.61,5.39-6.32c3.74-2.92,8.24-4.25,12.59-5.94c4.62-1.8,9.33-3.66,10.92-7.44c1.04-4.18-2.97-4.68-2.45-7.39
			c2.37-2.1,5.41-2.49,8.32-3.06c12.19-2.4,23.63-6.73,34.27-13.12c22.01-13.23,34.95-32.2,36.71-58.22
			c0.2-2.96-0.45-6.19,1.41-8.74c4.14-5.7,3.53-11.88,2.42-18.21c-0.07-0.41,0.54-0.94,0.81-1.37c0.73,0.55,1.46,1.09,2.75,2.06
			c3.95-10.22-0.59-22.84,9.62-31.47c1.38,7.49-4.13,14.03-0.33,22.05c4.7-5.93,3.98-12.85,7.36-18.07
			c3.61-5.58,7.53-10.73,13.52-14.24C1088.97,1378.38,1085.59,1383.05,1086.04,1389.12z M454.47,466.63
			c-6.68,10.5-12.43,20.26-18.9,29.52c-9.17,13.12-14.37,27.57-17.03,43.25c-1.95,11.5-1.19,22.51,3.05,33.32
			c0.6,1.54,2,3.37,1.6,4.6c-2.22,6.84,1.87,12.1,3.87,17.91c1.73,5.01,3.75,9.9,1,15.4c-1.33,2.65-0.24,5.89,0.22,8.85
			c0.51,3.28,1.01,6.56,1.35,9.86c0.96,9.34,4.78,17.53,11.62,23.68c9,8.09,19.46,13.85,31.55,16.37
			c13.23,2.76,25.94,0.47,38.01-4.53c16.98-7.03,32.68-16.61,47.17-27.86c16.82-13.05,33.32-26.43,52.62-35.86
			c8.41-4.11,16.78-8.03,26.01-9.98c4.86-1.03,9.66-2.54,14.34-4.24c12.89-4.67,26.21-7.56,39.74-9.32
			c15.78-2.05,31.87-0.6,47.57-4.07c2.86-0.63,5.98-0.26,8.97-0.12c11.62,0.53,23.2,1.78,34.77,2.82c8.9,0.8,17.3,0.06,25.59-2.33
			c10.27-2.97,20.42-6.83,28-14.69c6.7-6.95,11.51-15.61,14.79-24.51c4.72-12.83,7.38-26.46,5.86-40.22
			c-2.01-18.21-5.26-36.21-13.62-52.91c-6.93-13.84-17.08-24.38-30.45-31.97c-4.34-2.46-8.88-4.62-12.99-7.42
			c-3.99-2.71-8.24-4.17-12.94-4.84c-5.97-0.85-11.72-2.51-17.14-5.2c-5.63-2.79-10.73-6.83-17.32-7.34
			c-3.72-4.46-9.67-3.94-14.32-6.42c-19.26-10.28-39.9-16.47-61.37-20.03c-6.84-1.13-13.69-1.39-20.69-1.37
			c-6.91,0.01-14.05,2.16-20.93-0.45c-9.4,2.51-19.21,1.39-28.69,3.38c-14.39,3.02-28.11,8.14-41.96,12.84
			c-3.46,1.17-6.81,3.1-10.35,3.53c-5.61,0.69-10.08,2.71-13.59,7.17c-1.83,2.33-4.1,4.31-6.21,6.42c-2.1,2.11-4.09,4.76-7.36,4.63
			c-3.86-0.15-6.06,2.17-8.5,4.47c-1.93,1.82-3.86,3.93-6.22,4.94c-8.61,3.68-14.34,10.28-19.89,17.47
			c-3.14,4.06-6.23,7.82-6.24,13.14c0,3.13-1.27,4.94-4.3,5.77c-1.55,0.42,0.23,3.35-2.11,3.5c-1.36-1.5-1.81-3.8-4.93-3.85
			c-1.09,7.14-4.83,13.32-7.98,19.8C463.74,464.74,461.35,468.54,454.47,466.63z M317.84,545.11c1.69-10.64,3.63-20,4.57-29.45
			c2.21-22.28,6.65-44.05,14.53-64.99c3.38-8.99,8.52-17.3,12.13-26.21c5.98-14.77,15.41-27.07,25.99-38.68
			c13.12-14.4,28.49-25.89,45.44-35.35c1.63-0.91,3.83-1.67,2.33-4.71c-8.27,1.51-15.52,5.27-22.48,9.9
			c-15.11,10.06-27.29,23.23-39.52,36.42c-5.94,6.4-11.25,13.16-14.94,21.06c-11.1,23.81-21.75,47.69-25.94,74.04
			c-2.56,16.14-4.81,32.18-4.36,48.53C315.68,538.41,314.85,541.42,317.84,545.11z M329.21,854.62c0.44-1.88,0.91-2.83,0.85-3.76
			c-1.37-23.25-2.36-46.53-6.75-69.51c-6.91-36.15-8.92-72.63-6.76-109.36c0.14-2.31-0.41-5.39,0.84-6.78
			c4.25-4.74,1.92-10.18,2.28-15.22c0.36-5.15,1.54-10.44,0.17-15.65c-2.27,0.22-2.41,1.78-2.7,2.96
			c-2.25,9.02-4.21,18.08-5.53,27.32c-4.29,29.97-0.62,59.78,1.25,89.63c0.27,4.31,0.73,8.64,1.53,12.88
			c4.8,25.52,8.2,51.25,11.03,77.05C325.78,847.48,325.95,850.83,329.21,854.62z M252.16,363.92c-2.67-1.63-2.27-3.83-2.57-5.63
			c-1.76-10.49-3.57-20.98-5-31.51c-3.08-22.77-7.47-45.25-13.83-67.33c-0.76-2.64-1.21-5.4-3.55-7.49
			c-1.2,1.92-0.76,3.21-0.45,4.47c4.63,18.4,8.03,37.01,10.08,55.89c2.4,22.13,6.42,44.11,4.75,66.55
			c-0.4,5.36-0.93,10.51-3.19,15.48c-4.3,9.46-6.37,19.57-7.96,29.78c-0.35,2.21-1.23,4.57,1.18,7.31
			c1.27-4.18,2.36-7.93,3.56-11.64c1.13-3.48,2.43-6.9,3.57-10.37c1.25-3.79,2.31-7.64,3.61-11.41c1.3-3.77,2.73-7.5,4.21-11.2
			c1.49-3.7,3.02-7.39,4.71-11c1.55-3.31,3.33-6.52,5.02-9.76c1.85-3.53,3.77-7.03,5.57-10.59c1.65-3.26,4.61-6,4.95-10.58
			C258.23,349.08,256.27,357.4,252.16,363.92z M471.66,312.32c5.84,2.09,9.38,0.35,12.33-1.36c15.21-8.84,32.23-12.46,48.83-17.08
			c16.38-4.55,33.4-5.68,50.36-6.28c11.31-0.4,22.64-0.15,33.96-0.26c2.27-0.02,4.71,0.54,6.66-1.24c-0.23-1.69-1.61-2.29-2.85-2.43
			c-23.55-2.73-46.93-2.81-70.52,1.09C523.08,289.28,498.25,300.06,471.66,312.32z M377.11,1067.42c-0.55,2.39-1.04,3.35-0.94,4.26
			c1.58,14.54,2.18,29.13,2.55,43.74c0.01,0.5,0.66,0.99,0.96,1.41c2.11,0,1.74-2.58,3.8-3.27c0,9.7-0.12,19.26,0.03,28.82
			c0.16,9.72-3.09,19.39-0.94,29.68c3.13-2.15,3.21-4.98,3.49-7.48c1.63-14.53,3.49-29.19,2.36-43.7
			c-0.57-7.3-0.58-15.11-3.57-22.25c-1.54-3.69-1.7-7.75-2.48-11.65C381.14,1080.92,381.69,1074.36,377.11,1067.42z M1049.88,1557.3
			c8.35-2,16.73-3.69,24.22-7.53c3.47-1.78,6.61-2.61,10.26-2.58c2.96,0.02,5.94,0.22,8.51-0.86c1.48-1.26,0.5-3.6,2.67-4.21
			c3.32-0.3,6.41,2.98,10.24,1.2c-4.7-4.05-4.69-4.46-7.4-4.56c-7.05-0.27-13.93-4.73-20.93-1.4c-1.06,2.59,1.24,3.11,1.87,4.62
			c-3.3,0-6.54-0.13-9.76,0.04c-3.35,0.17-7.53,0.66-8.31,4.1c-1.14,5.02-4.38,6.04-8.38,7.06
			C1051.45,1553.54,1049.6,1554.2,1049.88,1557.3z M744.45,1176.05c2.5,7.58,9.43,8.52,13.01,13c3.78,4.73,8.54,8.68,13.09,13.18
			c2.51-8.13-5.18-13.11-4.97-21.58c6.03,5.8,11.18,10.74,16.32,15.69c-0.54-3.1-1.75-5.45-3.18-7.66
			c-4.23-6.53-9.85-11.64-16.6-15.44c-2.24-1.26-4.9-2.53-6.64,0.86c0.88,4.82,6.74,6.52,7.05,11.97
			C755.88,1184.49,751.88,1178.43,744.45,1176.05z M962.96,1643.96c-3.18-0.44-3.7,2.3-4.68,4.19c-7.6,14.71-7.8,30.26-4.9,46.1
			c0.1,0.55,0.82,0.98,1.91,2.2c2.41-9.74,4.05-19.09,4.48-28.52c0.29-6.36,0.36-12.54,3.23-18.41
			C963.81,1647.86,964.78,1645.81,962.96,1643.96z M1013.72,1041.42c-5.53-5.64-12.08-9.05-19.9-9.25c-3.26-0.08-7-1.18-9.75,0.83
			c-3.53,2.59-6.84,3.46-11.05,2.23c-1.58-0.46-3.09,0.84-3.22,3.37c4.12,0.73,8.35,1.26,12.45,2.27
			c5.78,1.42,11.14,1.68,14.64-3.41C1003.26,1037.92,1007.66,1042.42,1013.72,1041.42z M354.88,1624.73
			c-7.51,4.98-11.11,12.21-10.97,20.75c0.07,4.04-0.44,7.87-0.95,11.78c-0.43,3.28-0.91,6.56-1.11,9.85c-0.1,1.56,0,3.39,3.05,3.85
			c3.04-7.08,1.54-15.47,5.07-22.42C353.73,1641.14,350.48,1632.25,354.88,1624.73z M1175.27,1366.99c3.27-0.66,4.39-1.92,5.33-3.25
			c3.65-5.18,8.36-7.97,14.88-8.38c3.93-0.24,7.52-2.05,9.64-6.09c1.36-2.6,3.66-4.69,5.41-7.1c3.34-4.61,4.66-9.84,5.21-15.67
			c-3.1,0.67-3.57,2.82-4.31,4.56c-3.02,7.14-8.03,12.72-13.59,17.92c-1.95,1.82-3.95,2.78-6.74,3.43
			C1183.86,1354.12,1177.93,1358.06,1175.27,1366.99z M1218.03,1338.03c3.75-4.56,6.43-9.72,9.46-14.71
			c5.52-9.09,7.84-19.68,4.5-30.55c-0.38-1.24-1.38-2.35-3.5-0.87c0.34,2.58,0.82,5.44,1.08,8.32c0.37,4.09,0.13,8.76-2.99,11.15
			c-4.93,3.78-5.22,8.94-6.31,14.02C1219.38,1329.58,1218.76,1333.82,1218.03,1338.03z M340.44,1317.33
			c-6.56,7.38-8.44,13.2-5.67,20.28c0.93,2.37,0.69,5.25,0.75,7.9c0.24,10.67,1.72,21.22,3.01,31.79c0.37,3,0.72,6.16,3.59,8.51
			C336.6,1363.79,338.75,1341.64,340.44,1317.33z M372.42,1088.99c3.85-11.91,0.7-34.52-6.65-45.61c2.58,15.03,4.65,28.07,5,41.29
			C370.8,1085.57,371.44,1086.47,372.42,1088.99z M1151.36,1472.98c4.88,0.28,6.94-1.7,6.98-5.73c0.07-6.35-1.83-12.4-2.88-18.58
			c-0.25-1.44-0.44-3.38-3.3-2.85C1150.27,1454.49,1151.66,1463.39,1151.36,1472.98z M463.8,1160.11
			c-6.69-4.08-12.38,0.46-17.81,2.59c-5.65,2.22-11.99,4.76-15.29,10.98C441.95,1169.73,452.26,1163.73,463.8,1160.11z
			 M403.78,1572.89c-6.85-0.02-10.85,0.8-14.62,4.83c-3.76,4.03-9.63,6.78-10.74,13.3c1.42,0.25,2.3,0.67,2.58,0.42
			C388,1585.17,395.11,1579.04,403.78,1572.89z M682.13,1660.25c-6.63,1.32-7.21,5.49-7.29,9.28c-0.05,2.34,0.77,5.12,3.17,6.93
			c2.1-1.45,4.16-2.86,6.23-4.29C684.53,1667.99,681.07,1664.87,682.13,1660.25z M759.23,857.15c-8.03,0.87-9.39,8.23-13.07,13.12
			c-2.25,2.99-4.89,6.86-2.64,12.99C749.29,873.81,753.8,865.29,759.23,857.15z M1208.79,1405.54c-6.47,9.87-11.8,17.99-17.05,26.16
			c-0.17,0.27,0.5,1.09,1.22,2.52C1200.91,1426.71,1207.62,1419.04,1208.79,1405.54z M1156.9,1389.54
			c-2.02,9.67-8.03,18.11-9.62,28.85C1154.56,1409.87,1157.47,1401.32,1156.9,1389.54z M490.77,1161.81
			c6.43,1.54,11.3-0.29,16.27-0.3c4.49-0.01,9.49,1.89,14.65-1.54C512.79,1157.37,500.23,1158.13,490.77,1161.81z M634.24,1250.47
			c2.28-0.9,2.99-2.39,2.14-3.92c-3.18-5.73-7.17-10.92-11.58-15.74c-1.02-1.12-2.92-1.48-4.43,0.95
			C625.35,1237.47,631.14,1242.81,634.24,1250.47z M357.05,1588.74c0.25-0.21,0.67-0.4,0.7-0.64c0.13-0.96,0.46-2.05,0.15-2.89
			c-2.23-6.18-1.51-12.21,0.56-18.24c0.33-0.98-0.04-1.86-1.17-2.21C350.45,1574.11,350.38,1580.74,357.05,1588.74z M672.19,1622.8
			c2.35,0.06,3.14-1.08,3.48-2.32c1.82-6.8,1.58-13.68,0.16-20.5c-0.22-1.04-1.28-2.51-3.4-0.78
			C676.19,1606.84,671.06,1614.84,672.19,1622.8z M966.23,1035.77c-7.58-0.54-13.02-0.89-18.4,0.61c-1.64,0.46-3.14,0.97-2.75,3.59
			C951.97,1041.29,958.82,1042.49,966.23,1035.77z M490.33,1149.77c6.92,6.85,12.78,6.01,18.93,2.83
			C503.85,1150.4,498.23,1149.68,490.33,1149.77z M766.97,898.94c-5.87,5.13-9.01,11.42-8.62,21.42
			C763.21,912.53,765.76,906.05,766.97,898.94z M536.38,1581c-2.98-4-5.6-7.68-8.39-11.21c-1.22-1.54-2.98-3.2-4.92-1.4
			c-1.99,1.85-0.54,3.79,1.17,4.82c3.45,2.06,6.17,4.78,8.66,7.86C533.43,1581.73,534.53,1582.14,536.38,1581z M761.19,982.97
			c0.91-7.02,2.63-14.15,0.32-21.79C755.9,968.5,758.38,975.68,761.19,982.97z M596.35,1585.05c-5.02,4.1-8.68,7.1-8.59,13.97
			C593.28,1595.73,596.47,1592.43,596.35,1585.05z M554.2,1168.1c-6.89-2.86-12.36-3.03-19.73-0.04
			C541.85,1170.35,547.32,1173.12,554.2,1168.1z M611.23,1575.55c1.18-7.32,0.19-12.27-4.77-17.73
			C605.88,1564.83,607.3,1569.66,611.23,1575.55z M692.46,1180.29c4.13,5.37,9.55,5.8,17.38,4.59
			C703.23,1181.7,698.01,1180.45,692.46,1180.29z M995.39,1040.93c3.09,6.19,7.91,7.65,13.53,10.35
			C1005.05,1043.46,1004.75,1043.23,995.39,1040.93z M894.91,1061.62c-6.32-4.27-12.14-1.83-17.66-1.83
			C882.87,1058.96,887.64,1065.26,894.91,1061.62z M325.35,537.46c-5.66,5.89-5.73,11.49-4.83,17.37
			C321.97,549.62,323.41,544.41,325.35,537.46z M357.27,1595.17c-1.94,8.17-1.94,8.17,1.61,12.69
			C362.27,1603.17,358.11,1599.37,357.27,1595.17z M764.12,944.32c3.82-5.32,3.82-5.32,3.06-12.83
			C764.08,935.37,762.47,939.29,764.12,944.32z M799.37,1598.49c-2.41-4.67-6.06-3.05-9.04-3.41c-2.09-0.25-2.81,1-2.04,3.41
			C791.61,1598.49,795.03,1598.49,799.37,1598.49z M756.94,1653.76c-3.94-0.06-8.08-2.98-13.02,1.2
			C749.28,1656.91,753.27,1657.67,756.94,1653.76z M812.69,1175.02c-5.23,1.87-4.28,5.65-3.39,11.76
			C812.66,1182.13,812.74,1178.65,812.69,1175.02z M1151,1478.93c-4.44,4.45-5.34,8.85-6.79,12.98
			C1148.11,1489.38,1151.08,1486.28,1151,1478.93z M572.11,1603.38c1.05,3.68,2.06,7.31,7.02,9
			C578.52,1607.14,576.97,1603.96,572.11,1603.38z M430.27,822.03c3.05,6.73,3.04,6.74,8.66,8.29
			C436.58,826.46,433.7,823.96,430.27,822.03z M531.87,1595.65c0.29-5.08-0.86-8.3-4.38-12.24
			C526.07,1589.18,527.82,1592.17,531.87,1595.65z M472.01,1154.04c4.46,0.69,7.29,1.03,10.99-1.25
			C478.86,1149.82,476.24,1152.02,472.01,1154.04z M1277.73,1370.61c-4.83-2.64-7.46-4.85-12.24-3.65
			C1268.84,1370.58,1271.95,1371.16,1277.73,1370.61z M709.87,1612.72c-5.96,0.75-5.96,0.75-5.29,6.04
			C707.42,1618.15,708.85,1616.26,709.87,1612.72z M765.87,1602.08c2.67-0.14,4.71,3.12,8.73,1.05
			C771.48,1600.27,768.67,1601.18,765.87,1602.08z M752.23,947.34c-0.99,7.26-0.79,8.06,2.08,7.31
			C754.4,952.4,756.04,949.89,752.23,947.34z M603.23,1579.7c2.72-3.27,2.72-3.27-0.44-6.24
			C601.38,1575.65,601.97,1577.69,603.23,1579.7z M957.25,1056.11c-4.13-1.06-6.52-1.39-9.72-0.49
			C950.86,1057.35,953.17,1056.19,957.25,1056.11z M986.71,1612.33c4.8-5.02,5.12-5.98,2.54-7.09
			C986.74,1606.52,985.32,1608.32,986.71,1612.33z M768.69,971.89c1.52-1.53,1.45-3.02,0.21-5.16
			C767.98,968.91,767.38,970.4,768.69,971.89z M838.08,787.45c-1.21-0.89-2-0.23-2.7,0.47c-0.92,0.91-1.94,1.86-0.82,3.29
			c1.03,0.53,1.96,0.17,2.68-0.51C838.23,789.76,838.9,788.65,838.08,787.45z M900.1,1062.27c2.48-0.29,4.75,0.17,6.09-2.77
			C903.2,1058.83,901.3,1059.18,900.1,1062.27z M660.78,1260.6c3.19-0.86,4.69-2.01,4.59-4.9
			C662.64,1256.42,661.39,1257.7,660.78,1260.6z M818.67,1162.82c2.95-0.32,4-1.49,3.36-4.45
			C820.15,1159.08,818.75,1159.84,818.67,1162.82z M841.61,1137.89c-0.32-0.42-0.8-1.23-0.91-1.18c-0.79,0.34-1.61,0.76-2.17,1.38
			c-0.23,0.26,0.03,1.51,0.26,1.56C840.23,1140,840.92,1138.91,841.61,1137.89z M787.94,869.9c0.58-0.07,1.33,0.06,1.67-0.25
			c0.81-0.75,2.45-2,0.02-2.47C788.32,866.93,787.57,868.39,787.94,869.9z M323.45,734.71c-0.4,0.91-0.7,1.25-0.62,1.45
			c0.23,0.63-0.8,1.7,0.62,1.91C323.45,737.17,323.45,736.25,323.45,734.71z M334.96,886.86c0.32-0.55,0.63-0.84,0.58-1.04
			c-0.18-0.69,0.72-1.8-0.73-2.01C334.86,884.73,334.9,885.65,334.96,886.86z M814.35,1167.33c-0.25-0.12-0.7-0.37-0.71-0.34
			c-0.29,0.45-0.53,0.94-0.78,1.42c0.23,0.11,0.65,0.35,0.67,0.31C813.83,1168.28,814.09,1167.8,814.35,1167.33z M1157.51,1478.15
			c-0.37-1.13-1.21-1.57-2.27-1.24c-1.1,0.35-1.42,1.37-1.36,2.41c0.06,1,0.49,2.06,1.69,1.78
			C1156.99,1480.78,1157.66,1479.65,1157.51,1478.15z M769.14,988.03c1.05-2.29,1.09-3.81-0.61-5.7
			C768.17,984.28,767.71,985.74,769.14,988.03z M749.06,1189.32c0.19,0.58,0.21,1.32,0.58,1.61c0.76,0.6,2.05,2.38,2.51,0.2
			C752.45,1189.65,751,1188.43,749.06,1189.32z M962.41,1704.01c-0.16-0.23-0.32-0.46-0.48-0.69c-0.32,0.4-0.69,0.78-0.93,1.23
			c-0.07,0.12,0.26,0.46,0.41,0.69C961.75,1704.83,962.08,1704.42,962.41,1704.01z M832.03,1148.36c-0.04-1-0.39-1.97-1.52-1.77
			c-1.35,0.25-2.18,1.33-2.32,2.71c-0.1,0.99,0.37,1.96,1.5,1.75C831.05,1150.81,831.79,1149.72,832.03,1148.36z"/>
		<path fill="#1A1A1A" d="M941.48,2051.73c-2.98-1.63-5.32-0.63-7.58-0.53c-10.35,0.45-19.75-2.91-28.68-7.47
			c-7.85-4.01-12.57-10.56-13.42-20.77c6.36,1.34,12.13,2.62,18.08,2.28c6.12-0.35,11.51-3.07,17.79-4.9
			c3.49,5.84-0.24,15.02,8.23,19.07c1.85-3.79-0.13-6.75-0.71-9.87c-1.53-8.26-1.02-16.02,6.62-21.49c0.47-0.33,1.21-0.28,2.06-0.46
			c0.46,0.74,1.24,1.49,1.41,2.36c6.26,31.38,25,53.82,50.84,71.21c12.46,8.39,25.37,15.95,39.4,21.47c1.79,0.71,3.9,1.11,5.03,3.55
			c-6.33,4.15-13.78,4.5-20.84,5.84c-23.34,4.43-46.51,1.34-69.53-2.55c-7.14-1.21-14.12-3.95-20.87-6.72
			c-25.1-10.32-48.39-23.83-69.6-40.81c-4.88-3.9-10.17-7.64-12.2-14.63c12.39-5.83,23.38-14.29,36.66-18.17
			C899.38,2053.41,928.36,2062.56,941.48,2051.73z"/>
		<path fill="#1A1A1A" d="M1274.88,1721.09c7.67,0,15.51,0,23.25,0c2.46,4.28,1.31,9.91,6.73,12.54c2.03-2.42,0.56-4.88,0.21-7.24
			c-1.12-7.64-0.53-9.3,6.17-12.84c2.85-1.51,5.16-4.27,9.26-4.39c2.61,5.96-1.51,13.74,4.76,20.41c1.49-9.83-1.65-19.36,6.05-26.79
			c-9.04,45.3,0.29,86.73,21.88,126.36c-1.08,1.7-2.55,0.41-3.94-0.24c-21.9-10.1-42.36-22.22-58.47-40.7
			c-8.17-9.37-13.08-20-13.65-32.43c-0.46-9.97-1.03-19.9-3.01-29.72C1273.8,1724.49,1273.5,1722.76,1274.88,1721.09z"/>
		<path fill="#1A1A1A" d="M660.4,1841.18c0.12-2.3,0.25-4.6,0.37-6.94c1.35,2.41-0.11,4.56-0.49,6.79L660.4,1841.18z"/>
		<path fill="#1A1A1A" d="M1079.75,1978.95c2.25,0.14,4.56,0.07,6.34,1.94c-2.62,0.87-4.28-1.01-6.2-2.08L1079.75,1978.95z"/>
		<path fill="#1A1A1A" d="M452.02,325.01c4.79-3.58,10.15-4.45,15.93-3.33c-0.42,0.33-0.84,0.65-1.26,0.97
			C461.79,323.44,456.9,324.23,452.02,325.01z"/>
		<path fill="#1A1A1A" d="M640.26,1538.03c2.47,2.13,3.97,4.53,4.67,7.99C640.35,1544.48,640.74,1540.9,640.26,1538.03z"/>
	</g>
</g>
</svg>
