<?xml version="1.0" encoding="utf-8"?>
<!-- Generator: Adobe Illustrator 24.0.2, SVG Export Plug-In . SVG Version: 6.00 Build 0)  -->
<svg version="1.1" id="Layer_1" xmlns="http://www.w3.org/2000/svg" xmlns:xlink="http://www.w3.org/1999/xlink" x="0px" y="0px"
	 viewBox="0 0 697.25 810.02" style="enable-background:new 0 0 697.25 810.02;" xml:space="preserve">
<path d="M336.84,122.11c2.07-0.08,4.14-0.19,6.21-0.23c0.8-0.01,1.57,0.62,1.72,1.4c0.34,1.71,0.6,3.44,0.88,5.07
	c1.72,2,4.24,1.1,6.38,1.75c-0.2,0.7-0.28,1.16-0.46,1.57c-0.82,1.84-0.37,3.42,0.96,4.82c0.66,0.69,1.34,1.37,2.06,2.01
	c4.95,4.4,7.79,10.05,9.64,16.28c0.14,0.46,0.26,0.93,0.29,1.41c0.38,6.69,1.47,13.35,0.35,20.09c-0.4,2.39-0.86,4.71-1.87,6.91
	c-1.37,2.99-1.72,6.1-1.47,9.36c0.34,4.46,0.69,8.94,0.71,13.41c0.05,11.76-1.68,23.25-5.9,34.3c-0.97,2.54-2.01,5.05-2.91,7.61
	c-0.53,1.5-1.05,3.06-1.19,4.63c-0.39,4.29-2.15,8.01-4.56,11.44c-1.39,1.98-2.64,3.95-3.52,6.22c-1.78,4.58-4.66,8.34-8.73,11.17
	c-2.49,1.74-4.93,3.56-7.36,5.37c-0.62,0.46-1.14,1.07-1.59,1.5c0.04,1.67,1.16,2.47,1.85,3.5c4.86,7.24,7.42,15.2,7.28,23.92
	c-0.05,2.85-0.5,5.75-1.15,8.53c-0.48,2.06-0.11,3.79,0.84,5.5c0.54,0.97,1.15,1.94,1.88,2.77c4.05,4.55,6.51,9.83,7.37,15.82
	c2.05,1.89,4.1,3.68,6.02,5.58c1.82,1.8,3.45,3.79,5.29,5.56c2.88,2.77,5.84,5.46,8.82,8.12c4.25,3.78,9.1,6.47,14.63,7.88
	c0.61,0.16,1.21,0.37,1.8,0.58c0.14,0.05,0.23,0.21,0.52,0.49c0.21,2.43-0.7,4.85-1.24,7.3c-0.52,2.33-1.3,4.61-1.96,6.91
	c-0.69,2.4-1.85,4.66-2.6,7.17c2.04,0.22,3.15-1.53,4.82-1.18c0.15,0.03,0.28,0.11,0.56,0.23c0.02,0.38,0.17,0.85,0.06,1.25
	c-0.54,2.01-1.16,3.98-1.21,6.09c-0.15,6.92-1.64,13.62-3.47,20.27c-0.34,1.23-0.65,2.47-0.89,3.73c-0.21,1.13-0.05,2.23,0.81,3.48
	c1.26,0.4,2.76,0.91,4.29,1.34c5.08,1.44,10.03,3.23,14.77,5.59c5.06,2.51,9.69,5.6,13.43,9.89c1.95,2.24,4.37,3.11,7.28,2.66
	c1.1-0.17,2.2-0.4,3.29-0.67c3.25-0.82,6.48-1.68,9.66-2.51c0.42-0.77,0.11-1.25-0.44-1.67c-0.63-0.49-1.27-0.98-1.88-1.49
	c-7.49-6.29-11.49-14.39-12.45-24.05c-0.41-4.14-0.57-8.28-0.25-12.45c0.38-4.98,1.32-9.81,3.13-14.47
	c0.23-0.59,0.41-1.19,0.67-1.95c-0.5-0.15-0.9-0.4-1.28-0.36c-1.75,0.16-3.49,0.42-5.24,0.59c-1.93,0.2-3.84,0.06-5.67-0.6
	c-0.24-0.09-0.49-0.42-0.53-0.66c-0.04-0.27,0.11-0.63,0.3-0.84c0.32-0.34,0.73-0.63,1.13-0.87c5.11-3.08,9.5-7.02,13.57-11.34
	c1.64-1.74,3.42-3.36,5.07-5.1c1.51-1.59,2.66-3.46,4.39-4.93c1.66-1.41,2.75-3.5,4.06-5.32c1.22-1.68,2.43-3.37,3.59-5.1
	c1.25-1.86,2.5-3.72,3.62-5.65c3.37-5.8,6.66-11.66,10.02-17.47c2.96-5.12,5.91-10.25,9.01-15.28c3.61-5.86,7.77-11.33,12.22-16.59
	c14.06-16.61,31.65-27.65,52.6-33.4c1.23-0.34,2.53-0.44,3.65-1.56c-1.06-0.48-2.02-1.02-3.05-1.34c-4.27-1.33-8.55-2.61-12.84-3.88
	c-1.06-0.32-2.21-0.43-2.89-1.47c0.31-0.87,1.03-1.2,1.82-1.31c2.69-0.37,5.38-0.9,8.08-0.97c12.31-0.33,24.62-0.71,36.93-0.71
	c9.11,0,18.2,0.63,27.21,2.2c12.03,2.1,23.57,5.73,34.81,10.43c11.68,4.89,22.79,10.84,33.25,17.99c0.77,0.53,1.45,1.25,2.46,1.38
	c0.22-1.73,0.23-1.74-1.85-6.04c-0.91-1.87-1.89-3.7-2.77-5.59c-0.92-1.99-2.26-3.8-2.76-5.9c1.03-0.89,2.04-0.55,2.86-0.2
	c2.35,0.99,4.71,2,6.93,3.26c5.77,3.26,10.64,7.63,14.94,12.64c7.68,8.97,13.41,19.08,17.18,30.26c3.27,9.7,6.04,19.55,7.26,29.75
	c0.89,7.46,1.42,14.94,1.01,22.48c-0.39,7.19-1,14.35-2.35,21.43c-4.61,24.04-14.34,45.64-30.59,64.12
	c-4.98,5.67-10.53,10.72-16.56,15.24c-1.27,0.95-2.47,1.98-3.7,2.98l-0.09,0.15l0.02-0.26c1.21-0.08,2.41-0.16,3.79-0.25
	c-0.85,2.68-3.23,4.07-4.36,6.02c0.07,1.07,0.74,1.27,1.26,1.57c5.39,3.07,11.17,4.65,17.38,4.73c9.18,0.12,18.17-1.02,26.95-3.79
	c0.75-0.24,1.54-0.34,2.31-0.47c0.12-0.02,0.27,0.15,0.41,0.23c-1.34,4.45-2.42,6.27-10.44,17.51c0.61,3.18,0.64,3.33-0.76,5.87
	c-3.05,5.52-7.07,10.26-11.83,14.37c-4.38,3.78-9.2,6.91-14.3,9.63c-7.48,3.98-15.24,7.39-23.05,10.65
	c-2.48,1.04-5.09,1.77-7.66,2.65c0,1.07,0.86,0.78,1.33,0.79c5.62,0.11,11.17-0.52,16.67-1.64c0.93-0.19,1.86-0.51,2.82-0.06
	c0.54,0.82-0.02,1.51-0.38,2.14c-4.55,8.1-10.59,14.78-18.6,19.61c-3.71,2.23-7.62,4.05-11.68,5.53c-3,1.1-6.05,2.04-9.06,3.11
	c-1.79,0.64-3.55,1.38-5.43,2.12c-0.44,1.45-0.92,2.79-1.25,4.17c-1.73,7.21-4.57,13.94-8.26,20.36
	c-8.52,14.82-20.12,26.78-33.92,36.71c-1.82,1.31-3.67,2.57-5.53,3.81c-3.03,2.02-5.05,4.83-6.51,8.11
	c-0.92,2.08-0.73,4.05,0.58,5.9c0.65,0.91,1.37,1.77,2.05,2.66c4.46,5.86,6.9,12.56,8.14,19.75c0.47,2.73,0.3,5.43-0.81,8.01
	c-0.82,1.91-1.54,3.88-2.58,5.66c-3.54,6.09-7.57,11.86-12.03,17.31c-2.73,3.34-5.7,6.49-8.34,9.9
	c-5.18,6.7-10.19,13.54-15.31,20.29c-1.77,2.33-2.96,4.91-3.87,7.66c-1.67,5.02-2.91,10.14-3.53,15.39
	c-0.24,2.05-0.15,4.15-0.15,6.23c0,3.72-0.63,7.31-2.09,10.75c-0.95,2.23-2.1,4.29-4,5.89c-1.95,1.64-3.73,3.51-5.79,5.01
	c-3.79,2.77-7.98,4.67-12.71,5.25c-3.33,0.41-6.64,0.97-9.97,1.37c-1.48,0.18-2.76,0.61-3.9,1.61c-2.57,2.27-5.61,3.76-8.95,4.34
	c-3.14,0.54-6.35,0.81-9.53,0.9c-3.51,0.09-7.03-0.12-10.54-0.28c-1.29-0.06-2.19,0.41-2.72,1.52c-0.82,1.72-1.55,3.48-2.33,5.22
	c-3.52-0.88-4.12-1.49-5.83-6.13c-0.86-0.01-1.83-0.19-2.73-0.02c-5.26,1.01-10.5,0.82-15.74-0.1c-0.29-0.05-0.62,0.09-1.2,0.19
	c-1.85,2.19-1.63,5.21-2.22,7.84c-0.97,0.64-1.68,0.18-2.21-0.37c-1.82-1.86-3.27-3.93-3.34-6.69c-0.02-0.6-0.18-1.19-0.24-1.57
	c-0.96-0.77-1.78-0.47-2.54-0.41c-3.72,0.3-7.34-0.1-10.85-1.42c-0.59-0.22-1.21-0.39-1.83-0.55c-0.61-0.16-1.36,0.29-1.44,0.9
	c-0.2,1.42-0.36,2.85-0.52,4.28c-0.09,0.78-0.14,1.56-0.2,2.32c-2.81,0.38-4.35-0.95-5.26-3.31c-0.74-1.93-1.54-3.83-2.41-5.98
	c-1.25-0.29-2.63-0.62-4.01-0.93c-1.39-0.31-2.79-0.6-4.18-0.9c-1.35,0.63-1.73,1.87-1.92,3.1c-0.19,1.25-0.12,2.55-0.18,3.82
	c-0.07,1.41-1.52,2.08-2.77,1.28c-0.98-0.63-1.62-1.54-1.96-2.64c-0.85-2.77-1.38-5.6-1.2-8.5c0.09-1.5-0.18-2.77-1.06-4.04
	c-2.11-3.04-2.7-6.42-1.92-10.06c0.26-1.2,0.71-2.45,0.22-3.68c-0.73-0.73-1.55-0.43-2.29-0.28c-4.86,0.97-9.71,1.95-14.56,2.96
	c-6.73,1.41-13.5,2.63-20.35,3.25c-7.17,0.65-14.37,0.78-21.54-0.25c-4.58-0.66-9.21-1.03-13.78-1.77
	c-9.33-1.51-18.45-3.91-27.37-7.02c-7.39-2.58-14.74-5.29-22.06-8.05c-8.32-3.13-15.72-7.84-22.51-13.53
	c-3.68-3.08-7.4-6.12-10.57-9.74c-1.99-2.29-3.93-4.62-5.83-6.99c-1.79-2.25-3.51-4.56-5.21-6.87c-0.66-0.89-1.22-1.86-1.77-2.83
	c-0.32-0.55-0.45-1.21-0.78-1.75c-2.49-4.04-3.67-8.52-4.26-13.14c-0.4-3.11-1.8-5.36-4.2-6.96c-0.91-0.19-1.42,0.26-1.81,0.73
	c-9.25,11.23-19.27,21.81-28.09,33.41c-0.87,1.15-1.74,2.3-2.53,3.5c-1.42,2.17-1.31,3.4,0.39,5.61c0.28,0.36,0.56,0.71,0.93,1.18
	c-0.87,1.86-2.39,3.02-4.03,3.96c-5.33,3.07-11.08,5-17.21,5.49c-6.38,0.51-12.78,0.56-19.14-0.48c-2.36-0.39-4.73-0.75-7.12-0.97
	c-1.42-0.13-2.87-0.02-4.3,0.05c-4.31,0.22-8.61,0.48-12.92,0.73c-1.6,0.09-3.19,0.23-4.79,0.3c-2.39,0.1-4.8,0.37-7.17,0.17
	c-2.35-0.2-4.37,0.21-6.39,1.41c-3.86,2.3-8,3.93-12.37,5.07c-6.17,1.61-12.3,1.84-18.47,0.13c-0.61-0.17-1.25-0.43-1.87-0.4
	c-1.92,0.07-3.35-0.84-4.68-2.06c-0.22-0.2-0.57-0.27-0.9-0.42c-1.45,1.08-2.1,2.77-3.06,4.22c-0.79,1.2-1.48,2.47-2.26,3.67
	c-0.73,1.11-2.06,0.97-2.58-0.34c-0.47-1.17-0.86-2.41-1.04-3.66c-0.3-2.05-0.4-4.12-0.61-6.44c-1.27-1.03-2.98-1.44-4.32-2.15
	c-1.16,0.22-1.49,0.99-1.81,1.69c-0.4,0.87-0.73,1.75-1.58,2.32c-0.31,0.21-1.12,0.04-1.21-0.34c-0.17-0.78-0.38-1.55-0.43-2.34
	c-0.09-1.42-0.08-2.85-0.1-4.15c-0.8-0.59-1.33-1.22-2.44-1.19c-0.65,0.93-1.33,1.97-2.08,2.96c-0.13,0.18-0.58,0.27-0.8,0.18
	c-0.26-0.09-0.57-0.4-0.61-0.66c-0.17-1.09-0.25-2.18-0.37-3.34c-0.67-0.59-1.03,0.42-1.57,0.41c-0.38-0.01-0.82-0.36-1.12-0.67
	c-0.19-0.2-0.26-0.61-0.22-0.91c0.56-3.91,0.1-8.01,2.21-11.65c0.38-0.66,0.39-1.53,0.59-2.3c0.44-1.7,0.87-3.4,1.33-5.1
	c0.36-1.32,1.21-2.21,2.46-2.76c1.46-0.64,2.89-1.36,4.36-1.99c2.02-0.86,3.45-2.27,4.2-4.35c0.05-0.15,0.11-0.3,0.17-0.45
	c2.58-5.62,2.61-5.57,8.09-8.16c4.06-1.91,8.2-3.57,12.56-4.65c2.36-0.58,4.49-1.61,6.44-3.08c5.3-3.99,11.27-5.89,17.92-5.68
	c2.08,0.07,4.16,0.08,6.24,0.05c4.21-0.05,8.25-0.86,12.07-2.68c2.45-1.17,4.92-2.29,7.39-3.43c4.79-2.2,9.56-4.44,14.39-6.54
	c1.72-0.74,2.99-1.77,3.76-3.46c8.41-18.29,17.87-36.11,24.62-55.14c1.18-3.31,2.28-6.65,3.47-9.96c0.92-2.58,1.34-5.26,1.69-7.96
	c0.27-2.07,0.19-4.13-0.18-6.21c-1.04-5.82-2.01-11.65-2.98-17.49c-0.29-1.72-0.6-3.45-0.11-5.14c2-0.7,2.65,1.65,4.48,1.75
	c0.03-4.84,0.31-9.61,2.02-14.13c0.27-0.72,0.79-1.34,1.23-2.07c1.1,0.6,2.04,1.12,3.2,1.76c0.95-1.95,0.42-3.89,0.7-5.7
	c0.27-1.73,0.39-3.48,0.57-5.18c1.95-0.57,2.42,2.33,4.48,1.49c0.26-2.58,0.58-5.26,0.78-7.95c0.06-0.77-0.12-1.59-0.34-2.35
	c-1.77-6.08-1.23-12.01,1.04-17.85c0.28-0.73,0.71-1.43,0.28-2.23c-2.07,0-4.13,0.03-6.2-0.01c-1.11-0.02-2.23-0.15-3.33-0.28
	c-0.62-0.07-1.02-1.07-0.63-1.5c0.43-0.47,0.89-0.91,1.33-1.36c4.96-5.1,8.77-10.96,11.53-17.52c1.21-2.88,1.73-5.75,1.17-8.87
	c-0.34-1.87-0.3-3.81-0.36-5.72c-0.03-0.79,0.49-1.21,1.54-1.49c1.69-0.44,1.99-0.75,2.05-2.01c0.14-3.09-0.65-6.03-1.5-8.94
	c-1.43-4.93-3.56-9.58-5.83-14.17c-0.99-2.01-2.01-4-2.98-6.01c-0.41-0.86-0.79-1.75-1.06-2.67c-0.38-1.28-0.3-2.52,0.7-3.58
	c0.43-0.46,0.76-1.01,1.17-1.59c-1.46-3.76-3.09-7.39-4.94-10.93c-1.11-2.13-2.21-4.26-3.22-6.43c-1.41-3.06-2.22-6.28-2.76-9.63
	c-0.88-5.42-0.87-10.82-0.51-16.25c0.3-4.49,0.06-8.94-0.75-13.37c-0.23-1.24-0.25-2.51-0.36-3.74c1.69-0.46,2.01,1.68,3.57,1.44
	c0.1-0.36,0.35-0.78,0.33-1.19c-0.07-1.44-0.15-2.88-0.38-4.3c-1.43-8.85-0.31-17.55,1.66-26.17c1-4.38,2.96-8.45,5.32-12.28
	c1.82-2.94,2.82-6.07,2.83-9.51c0-1.16,0.08-2.15,1.23-2.88c0.37-0.23,0.44-1.14,0.43-1.73c-0.03-1.4-0.9-2.76-0.14-4.42
	c1.24,0.67,2.44,1.33,3.78,2.05c0.7-1.08,1.36-1.97,1.87-2.94c0.29-0.54,0.54-1.23,0.46-1.81c-0.35-2.7-0.74-5.4-2.85-7.44
	c-0.57-0.55-1.13-1.14-1.65-1.74c-1.63-1.89-2.56-4.02-2.26-6.59c0.11-0.94,0.02-1.91,0.02-3.06c-0.56-0.79-1.17-1.71-1.84-2.59
	c-1.08-1.42-1.77-3.03-2.3-4.72c-0.35-1.1-0.44-2.17-0.07-3.29c0.81-2.42,1.58-4.85,2.42-7.48c-0.35-1.95-0.82-4.13-1.12-6.32
	c-0.33-2.38,1.56-4.14,1.97-6.63c-0.23-0.63-0.5-1.55-0.89-2.41c-1.17-2.56-0.74-5.01,0.53-7.37c3.48-6.49,7.17-12.86,12.34-18.2
	c1.03-1.07,1.8-2.23,2.33-3.57c0.64-1.64,1.31-3.27,1.86-4.94c1.85-5.68,4.66-10.87,8.15-15.68c1.97-2.72,4.07-5.34,6.18-7.95
	c2.02-2.5,4.26-4.84,6.96-6.56c6.56-4.19,9.35-10.69,11.29-17.76c0.13-0.46,0.13-0.95,0.25-1.42c0.07-0.3,0.25-0.57,0.4-0.9
	c1.37-0.17,2.29-0.86,2.45-2.34c0.12-1.11,0.24-2.23,0.31-3.34c0.66-11.28,5.3-20.97,12.09-29.73c1.32-1.7,2.52-3.28,2.39-5.53
	c2.08-7.21,5.48-13.63,11.3-18.56c5.22-4.42,11.19-7.36,17.92-8.69c1.72-0.34,3.45-0.65,5.46-1.02c0.56-0.87,1.07-2.09,1.94-2.93
	c0.85-0.82,1.35-1.7,1.69-2.78c0.07-0.21,0.77-0.2,1.16-0.35c0.23-0.09,0.57-0.32,0.57-0.47c-0.01-0.29-0.28-0.56-0.37-0.86
	c-0.13-0.42-0.4-0.96-0.24-1.27c0.14-0.29,0.78-0.54,1.16-0.49c2.36,0.29,4.61,0.97,6.79,2.32c0.14-0.67,0.36-1.13,0.3-1.56
	c-0.2-1.46-0.87-2.7-1.93-3.76c-5.27-5.28-7.29-11.88-7.66-19.13c-0.1-1.91-0.05-3.84-0.11-5.75c-0.04-1.11-0.01-2.26-0.29-3.31
	c-0.51-1.93-0.38-3.82,0.02-5.7c2.44-11.47,6.81-21.95,15.51-30.22c0.91-0.86,1.7-1.92,2.29-3.02c3.77-7.1,8.49-13.54,13.74-19.6
	c1.26-1.45,2.53-2.89,3.79-4.33c0.95-1.08,1.91-2.16,2.84-3.26c4.59-5.46,5.7-7.47,8.48-15.32c0.8-0.33,1.15,0.31,1.46,0.79
	c3.29,4.98,5.67,10.37,7.03,16.19c1.06,4.52,1.89,9.08,1.91,13.75c0,0.3,0.18,0.59,0.28,0.9c0.89,0.47,1.41-0.32,2.08-0.61
	c1.25-0.52,1.78-0.43,2.15,0.78c0.47,1.53,1.44,2.47,2.85,2.94c4.14,1.4,7.87,3.52,11.29,6.21c1.07,0.84,2.26,1.07,3.6,0.93
	c6.79-0.74,13.14-2.62,18.67-6.82c2.27-1.73,4.63-3.35,6.94-5.02c1.16,1.62,1.57,3.28,1.8,6.78c0.16,2.42-0.08,4.81-0.64,7.14
	c-0.55,2.32-1.19,4.65-2.08,6.86c-0.89,2.2-2.15,4.25-3.27,6.42c0.34,0.47,0.71,0.97,1.07,1.47c-0.07,0.3-0.04,0.68-0.21,0.88
	c-1.37,1.56-2.67,3.19-4.2,4.58c-1.2,1.1-2.09,2.36-2.74,3.74c-2.54,1.22-5.13,1.91-7.66,2.29c-1.52,1.77-2.97,3.46-4.63,5.4
	c-0.03,0.81-0.04,1.92-0.11,3.03c-0.06,0.94-0.18,1.87-0.28,2.86c0.61,0.3,1.14,0.56,1.73,0.85c-0.51,3.58-1.01,7.18-1.54,10.78
	c-0.04,0.29-0.23,0.6-0.43,0.83c-0.49,0.59-0.52,1.11,0.11,1.6c0.55,0.43,1.17,0.47,1.8,0.24c2.3-0.84,4.22-2.26,5.85-4.06
	c0.74-0.81,1.41-1.69,2.17-2.61c0.24,0.44,0.51,0.72,0.46,0.89c-0.45,1.36-0.93,2.72-1.46,4.05c-0.35,0.88-0.86,1.69-0.08,2.65
	c0.15,0.19-0.15,0.9-0.41,1.24c-0.86,1.13-1.79,2.21-2.77,3.4c0.64,1.1,1.36,1.98,1.68,2.99c0.34,1.04,0.24,2.21,0.43,3.31
	c0.16,0.94,0.5,1.85,0.7,2.79c0.2,0.93,0.39,1.88,0.46,2.83c0.06,0.78-0.07,1.58-0.11,2.44c-1.69,1.73-3.37,3.43-5,5.17
	c-0.28,0.3-0.32,0.82-0.47,1.24c-0.36,0.1-0.72,0.19-1.08,0.29c0.11,0.05,0.26,0.17,0.31,0.14
	C336.41,122.49,336.62,122.29,336.84,122.11z"/>
</svg>
