<?xml version="1.0" encoding="utf-8"?>
<!-- Generator: Adobe Illustrator 24.1.1, SVG Export Plug-In . SVG Version: 6.00 Build 0)  -->
<svg version="1.1" id="Layer_1" xmlns="http://www.w3.org/2000/svg" xmlns:xlink="http://www.w3.org/1999/xlink" x="0px" y="0px"
	 width="1995.66" height="915.2" viewBox="0 0 1995.66 915.2" style="enable-background:new 0 0 1995.66 915.2;" xml:space="preserve">
<style type="text/css">
	.st0{fill:#1A1A1A;}
</style>
<g>
	<path d="M1305.87,893.77c2.1,6.51,0.89,12.13-0.26,18.12c-3.95-1.85-7.59-3.74-8.7-8.65c-5.26,2.55-10.46,1.13-15.61-0.19
		c-4.31-1.1-7.77,1.81-11.69,2.51c-0.99,0.18-1.53,3.62-1.98,5.63c-0.22,1-0.82,1.28-1.58,1.78c-1.04-1.2-2-2.45-3.12-3.56
		c-2.33-2.32-4.8-3.97-8.49-3.53c-5.35,0.63-9.62-2.51-14.24-5.27c-3.92,5.63-9.96,6.99-15.96,8.3c-3.76,0.82-7.62,0.91-9.54,5.33
		c-0.55,1.27-2.77,1.5-3.88-0.67c-1.7-3.33-4.51-4.79-8.2-5.8c-4.35-1.19-8.21-2.15-12.9-1.06c-3.63,0.85-7.87,1.06-11.74-0.62
		c-0.87-0.38-2.37-0.65-2.96,0.87c-1.01,2.58-3.86,2.96-5.46,4.79c-0.37-0.28-0.76-0.42-0.86-0.68c-1.55-3.9-3.08-7.52-6.58-10.52
		c-3.25-2.79-2.01-7.71-2.23-12.14c-3.96-0.81-7.58-3.64-11.99-1.54c-7.91-3.91-14.2,2.51-21.38,3.45
		c-9.73,1.27-19.17,3.64-29.25,1.86c-7.85-1.39-15.89-1.94-23.81-3.19c-2.88-0.46-5.57-1.27-8.08-2.84
		c-3.1,3.41-2.18,8.1-4.11,11.93c-1.28,2.54-3.04,4-5.15,4.35c-6.42,1.04-12.83,2.3-19.36,2.56c-8.2,0.33-16.24,2.07-24.33,2.96
		c-6.72,0.73-13.34,3.62-20.24,2c-4.5-1.05-6.98,1.56-9.33,4.97c-4.83-2.33-3.89-8.95-10.09-10.53c-2.6,1.74-7.22,1.05-11.41,2.41
		c-0.76,0.25-1.71,0.36-2.46,0.14c-4.8-1.35-8.22-0.1-9.56,5.64c-1.43-1.64-1.92-2.88-2.39-4.28c-1.57-4.69-4.14-5.6-8.65-3.07
		c-1.53,0.86-3.51,0.78-4.65,2.55c-0.96,1.5-2.3,2.76-3.48,4.13c-0.31-0.17-0.61-0.34-0.92-0.52c0-2.55,0-5.09,0-7.54
		c-5.44-1.29-5.75-2-3.74-6.94c1.41-3.47,2.68-7,3.42-10.69c1.08-5.4,4.51-9.14,8.63-12.47c1.86-1.5,3.79-2.8,5.34-4.87
		c2.4-3.21,6.5-4.59,10.4-4.74c3.28-0.12,4.87-1.3,5.69-4.67c-23.88-9.19-42.18-24.85-54.43-48.14c2.93-0.49,3.39,1.75,4.94,2.31
		c1-0.5,1.79-1.02,1.14-2.53c-5.27-12.14-7.64-25.19-11.7-37.71c-4.5-13.87-8.75-27.91-17.23-40.09c-1.75-2.51-4.38-4.52-4.49-9.28
		c5.08,4.78,8.97,9.7,16.15,11.25c-5.63-22.8-6.74-45.07,0.62-67.14c0.03-0.1,0.62-0.01,1.17-0.01c0.42,3.48-1.31,7.28,0.94,10.64
		c11.38-25.94,23.01-51.55,27.86-79.73c0.68,6.58,2.28,12.85,3.45,19.41c3.25-4.57,6.02-9.44,9.72-13.44
		c6.37-6.89,11.57-14.77,18.69-21.04c6.04-5.32,9.84-12.52,13.01-19.77c3.94-9,8.41-17.72,13.01-26.37
		c2.77-5.21,0.21-10.99-5.63-11.77c-4.22-0.57-8.04,1.26-12,2.13c-2.22,0.49-2.19,2.63-1.06,4.23c2.85,4.02,2.08,8.74,2.86,13.15
		c0.3,1.7-0.73,2.74-1.83,3.83c-2.82,2.77-5.65,5.5-7.39,9.18c-1.04,2.19-3.25,3.18-5.45,2.33c-2.17-0.83-4.38,0.08-6.36-1
		c-2.1,2.39-2.81,5.34-4.64,7.68c-0.92,1.16-2.17,2.3-3,1.97c-6.72-2.68-6.68,3.48-8.7,6.62c-2.58,4-4.87,8.08-9.85,9.62
		c-5.88,1.82-9.44-2.59-11.89-5.96c-2.33-3.21-4.77-6.24-7.61-8.87c-2.34-2.17-3.91-4.75-3.94-7.58c-0.07-5.98-1.49-11.7-2.68-17.86
		c-1.25,1.26-3.62,0.45-4.42,2.73c-0.05,0.13-0.35,0.31-0.37,0.29c-3.33-3.14-5-0.16-6.68,1.95c-2.02,2.54-3.48,5.39-4.74,8.45
		c-1.87,4.53-2.97,9.21-4.27,14c-1.38-4.27-4.52-8.15-1.9-13.15c-2.48-1.16-4.09-1.14-5.35,1.47c-3.15,6.52-7.61,12.43-8.99,19.76
		c-0.2,1.09-1.14,0.98-2.43,0.86c-1.3-5.58-2.49-11.3-2.81-17.6c-1,0.86-2.02,1.53-2.78,2.42c-2.52,2.98-4.76,5.91-8.57,7.84
		c-4.22,2.14-4.94,8.17-9.15,10.78c-4.29,2.66-6.73,6.89-9.57,10.75c-1.53,2.09-2.39,4.66-2.54,7.3c-0.1,1.81-0.31,3.28-2.45,3.58
		c-1.75-4.61-1.88-9.47-2.2-14.06c-0.22-3.11,0.16-6.79,1.2-10.13c1.16-3.74-0.35-4.94-4.31-3.83
		c-10.95,3.08-21.52,7.28-31.16,13.22c-7.36,4.54-14.61,9.41-21.11,15.27c-2.48,2.24-5.14,4.45-8.37,5.73
		c-1.42-2.47-0.06-4.64,0.86-5.83c4.71-6.08,8.59-12.78,13.97-18.39c3.53-3.69,6.63-7.81,10.41-11.29c0.94-0.86,1.43-1.81,0.7-3.52
		c-5.29,2.54-10.89,4.24-16.26,6.74c-3.37,1.57-6.67,3.46-10.23,4.7c-0.69,0.24-1.66,0.32-2.02,1.23c-0.83,2.1-2.51,3.89-4.28,4.64
		c-1.74,0.73-3.24,2.08-5.81,2.79c1.16-3.26,1.51-6.17,5.14-6.93c0.74-0.15,1.43-0.78,2.04-1.32c6.65-5.87,13.28-11.77,19.84-17.6
		c-0.45-2.09-1.8-2.43-3.42-2.35c-18.19,0.84-33.7-7.06-48.98-15.37c-2.04-1.11-5.46-1.04-6.19-4.94c4.47,1.45,8.71,1.03,13.15,0.49
		c7.93-0.98,14.29-4.41,20.63-8.99c3.26-2.35,6.51-4.88,9.99-7.03c5.24-3.24,9.09-8.16,13.6-12.29c1.29-1.18-0.1-3.63,2.48-4.12
		c0.73-0.14-0.09-1.96-0.65-2.38c-1.46-1.08-3.2-1.43-5.11-1.42c-17.8,0.08-35.61-0.25-53.39,0.21c-6,0.16-12.1,0.57-18.11,1.74
		c-7.1,1.38-14.33,2.04-21.5,3.09c-8.58,1.25-16.87,3.76-25.19,6.06c-7.19,1.99-14.39,4-21.44,6.45
		c-5.11,1.77-10.25,3.75-14.37,7.51c-0.5,0.45-1.02,0.74-1.66,0.99c-6.52,2.57-12.16,6.67-17.96,10.49
		c-7.37,4.86-14.02,10.69-21.12,15.84c-5.6,4.07-10.69,8.41-14.33,14.01c-4.58,7.04-11.95,12-14.84,20.24
		c-0.21,0.58-1.2,0.34-2.13,0.16c-1.36-6.73,0.29-13.1,2.51-19.48c4.01-11.55,10.34-21.99,15.29-33.07
		c1.86-4.17,4.82-7.63,6.53-11.93c0.76-1.92,3.82-3.39,5.73-5.19c1.58-1.5,3.08-3.12,3.45-5.27c0.26-1.51,1.04-2.49,2.09-3.23
		c3.44-2.43,5.54-6.21,8.78-8.75c4.91-3.85,9.44-8.16,14.65-11.66c2.95-1.98,5.79-4.23,8.25-6.78c0.93-0.97,1.94-2,2.98-2.21
		c4.86-1,8.66-4.06,12.76-6.41c11.21-6.44,23.08-11.09,35.4-14.89c12.94-3.99,26.02-6.04,39.6-6.09c5.71-0.02,11.56-1.22,17.29-0.68
		c11.4,1.07,22.34-1.87,33.5-2.79c5.77-0.47,11.34-1.83,16.98-2.64c5.62-0.81,11.44-2.25,16.8-4.67c0.6-0.27,1.16-0.84,1.76-0.88
		c9.83-0.66,11.39-8.58,13.83-15.7c2.65-7.76,5.3-15.52,7.85-23.32c1.74-5.34,2.86-10.68,2.88-16.47c0.02-4.25,1.19-8.7,1.95-13
		c0.86-4.84,0.28-9.57,0.91-14.67c-12.2-2.06-23.94-0.62-35.76,1.74c-6.56,1.31-13.21,2.57-19.48,4.62
		c-7.51,2.46-15.68,3.93-21.85,9.65c-0.41,0.38-1.12,0.44-2.45,0.92c2.12-6.88,8.93-9.11,11.94-14.52
		c-3.44-2.35-7.33-1.57-10.93-1.07c-5.37,0.75-10.75,1.52-16.14,1.64c-14.51,0.33-28.65,2.68-42.46,7.04
		c-2.72,0.86-5.2,1.87-7.42,4.23c-1.75,1.85-4.68,3.07-7.08,4.61c-3,1.92-5.66,4.18-8.33,6.48c-3.59,3.08-6.89,6.4-9.52,10.37
		c-0.9,1.36-2.08,2.52-3.63,3.55c-1.13-6.68-3.22-12.75-4.37-19.09c-1.2-6.65,0.75-12.64,1.15-18.93c0.4-6.37,4.42-12.12,3.19-19.63
		c-4.79,4.64-8.47,9.42-15.4,11.79c2.96-8.21,8.84-13.72,12.31-20.59c-1.34-0.88-1.64,1.37-3.38,0.45
		c2.43-8.28,4.62-16.76,8.61-24.64c3.84-7.57,9.05-14.39,12.79-23.09c-10.96,5.26-19.46,12.33-26.67,21.14
		c13.32-24.83,32.96-43.78,55.93-59.53c-4.12-3.94-7.89-1.17-11.45-0.87c-6.99,0.59-13.81,2.42-20.87,2.95
		c-4.27,0.32-8.52,0.85-12.81,0.82c-0.65,0-1.31-0.01-2.05-0.79c1.19-1.72,3.17-1.92,4.93-2.15c23.06-3,45.3-9.1,66.97-17.47
		c10.6-4.09,20.78-9.18,31.56-12.84c2.09-0.71,3.96-2.07,5.85-3.48c-9.16,0.75-18.24,1.91-27.1-0.82c-0.16-0.84,0.23-1.25,0.7-1.28
		c13.72-1.09,27.25-3.59,40.68-6.35c8.25-1.69,16.03-5.34,23.85-8.61c17.42-7.28,34.77-14.75,52.71-20.71
		c1.6-0.53,2.7-2.08,4.9-1.76c1.4,0.2-0.93-1.71,1.03-2.58c-9.5-0.72-17.34,3.95-26.01,3.09c8.91-4.66,18.89-5.64,28.45-7.88
		c9.74-2.28,19.81-3.3,29.82-3.23c10.2,0.07,20.32,2.32,30.83,1.81c0.81-2.52-0.05-3.82-2.51-4.99c-5.03-2.41-9.34-6.13-14.5-8.36
		c-0.7-0.3-1.27-1.04-0.91-2.46c8.26,3.07,15.39,8.44,23.77,10.86c8.38,2.42,16.17,6.51,24.76,9.33c0.44-9.02-0.31-17.14-1.59-25.33
		c-0.93-5.97-0.98-12.3,0.93-18.21c1.54-4.77,1.48-8.89-1.56-13.15c-4.75-6.66-6.45-14.7-8.35-22.41
		c-2.07-8.4-3.64-16.99-3.43-25.82c0.06-2.45,2.22-4.84,0.65-7.09c-1.88-2.71,1.59-3.48,1.53-5.52c-0.07-2.43-0.57-5.02,1.35-7.2
		c1.88-0.06,3.01,1.37,4.29,2.58c5.7,5.4,11.31,10.91,17.19,16.11c3.68,3.26,8.29,5.17,12.58,7.55c4.12,2.28,8.03,2.51,12.44,0.36
		c4.22-2.06,8.9-3.11,13.17-5.16c4.79-2.31,9.82-3.63,15.15-2.93c1.68-6.29-6.39-8.21-5.96-14.59c2.94,2.28,5.74,3.81,7.63,6.08
		c2.07,2.48,5.71,2.55,7.36,5.58c0.46,0.85,1.1-2.29,3.27,0.28c-3.18-10.13-1.99-19.27-2.65-28.28c-0.57-7.79,1.3-15.03,3.18-22.32
		c1.31-5.1,3.1-7.44,6.13-9.8c2.12,2.36,2.76,5.43,3.86,8.25c1.83,4.68,4.99,8.61,7.3,12.92c5.51,10.26,14.96,16.47,22.96,24.06
		c6.25,5.92,13.89,10.37,20.97,15.4c5.45,3.87,9.68,8.9,12.66,14.71c2.92,5.68,3.86,12.05,4.1,18.47c0.07,1.89-0.84,4.02,1.15,5.77
		c2.56-0.71,3.43-3.88,5.95-4.57c1.41,0.88,0.51,2.27,1.05,3.28c2.75-0.84,5.62-1.04,8.46-1.46c3.03-0.44,5.82-1.87,9.06-1.97
		c3.22-0.1,6.22,0.82,9.26,1.34c2.83,0.49,5.9,1.44,8.77,4.7c-9.25-2.28-17.34-2.61-24.49,3.82c10.59,0.93,18.56,6.34,26.47,12.33
		c7.74,5.86,14.52,12.84,22.4,18.48c2.71,1.94,5.62,3.77,9.34,3.5c2.08-0.15,4.26-0.44,7.06,0.68c-7.7,3.64-15.27,3.45-23.28,3.21
		c1.79,5.21,3.45,10.04,5.19,15.09c3.15-0.6,5.64-2.7,9.05-2.82c0.05,2.43-2.85,3.17-3.11,5.64c9.21-3.02,19.45-0.14,28.23-5.83
		c-0.77,5.03-7.75,4.44-7.8,9.78c7.89,0.42,15.93,0.86,23.79,1.28c0.44,1.2,0.57,2.1-0.09,2.69c-3.88,3.46-3.9,3.47-0.54,7.33
		c-0.85,1.04-1.22,2.62-3.15,2.35c-1.27-0.18-1.62,0.8-1.78,1.8c-0.27,1.64,1.12,0.83,1.67,1.21c1.31,0.9,2.73,1.89,3.2,3.57
		c-0.39,1.58-2.27,0.41-2.79,1.69c-0.14,4.19,1.86,8.04,2.11,12.28c0.16,2.79,2.53,5.6,4.68,7.02c3.46,2.3,4.31,6.16,6.8,8.99
		c4,4.54,6.46,10.4,9.72,15.62c2.52,4.04,4.6,8.4,7.28,12.26c3.62,5.23,6.09,11.08,9.4,16.46c3.14,5.11,7.02,8.85,11.29,12.63
		c1.93,1.71,4.07,2.59,6.4,3.42c5.72,2.02,11.44,3.93,17.63,3.59c3.14-0.17,6.32-0.17,9.18,1.33c1.64,0.86,3.2,0.55,5.25,0.55
		c-1.73-2.34-3.35-4.36-4.34-6.79c-0.79-1.95-4.28-3.06-1.94-6.03c3.23,0.82,5.65,2.89,8.38,4.09c3.04,1.33,4.06,4.55,7.67,6.14
		c-1.47-5.4-2.56-10.31-3.24-15.29c-0.16-1.14-0.39-2.27-0.39-3.42c-0.01-12-0.41-24.01,0.14-35.99c0.36-7.8,1.86-15.59,3.26-23.3
		c3.46-19.09,8.97-37.68,14.86-56.11c2.36-7.39,4.59-15.07,8.94-21.77c1.15-1.78,1.39-3.97,2.53-5.83c0.95-1.56,1.68-3.12,4.77-3.71
		c-4.71,9.08-5.08,18.82-9.7,27.31c1.92,0.66,3.04,0.54,3.86-1.27c1.97-4.34,5.52-7.69,7.77-11.85c4.39-8.12,10.55-15,16.02-22.3
		c2.83-3.79,6.88-6.9,10.07-10.67c8.7-10.28,18.12-19.94,28.08-28.98c11.63-10.56,24.53-19.55,38.19-27.36
		c1.67-0.95,2.95-2.76,5.12-2.74c0.95,0.01,1.53-1.55,2.97-0.31c-0.05,2.3-2.5,3.4-3.81,4.09c-7.06,3.77-13.63,8.25-20.18,12.8
		c-2.68,1.86-5.45,3.34-6.55,7.09c-0.4,1.37-3.08,2.29-2.05,4.75c16.46-8.58,33.51-15.73,51.13-21.56
		c8.62-2.85,17.37-5.42,25.73-8.93c7.85-3.3,15.59-6.87,23.17-10.94c8.8-4.73,17.9-9.18,27.25-12.91c4.81-1.92,8.87-5.25,13.69-7
		c1.25,1.18,0.37,1.96-0.42,2.5c-5.33,3.65-11.13,6.46-16.82,9.46c-4.22,2.22-8.6,4.29-11.65,8.14c-0.9,1.14-2.72,0.22-3.27,1.81
		c0.36,1.06,0.92,0.82,1.85,0.61c7.34-1.6,14.73-2.77,22.18-3.81c8.23-1.15,16.54-1.79,24.74-3.47c8.77-1.79,17.63-3.11,26.39-5.15
		c10.15-2.36,20.18-5.08,30.2-7.9c6.66-1.88,13.51-3.14,20.06-5.32c7.8-2.59,16.32-2.1,23.81-5.86c0.52-0.26,1.29-0.03,2.3-0.03
		c-0.77,2.18-2.27,2.51-3.98,3.15c-13.4,5.05-27.15,9.02-40.63,13.81c-7.18,2.55-14.23,5.47-22.31,8.61
		c25.44,2.51,48.24-4.46,71.32-11.07c-7.95,9.6-19.05,15.53-27.32,25.42c4.58-0.47,8.2-2.61,12.16-3.36
		c3.99-0.76,8.03-2.8,12.35,0.43c-2.09,1.25-3.59,2.54-5.99,3.17c-9.4,2.49-18.67,5.65-26.5,11.64c-2.23,1.71-5.18,2.77-6.97,5.57
		c4.52,1.94,8.55-1.61,12.64-0.09c0.09,1.55-1.33,1.55-2.24,2.02c-5.55,2.86-11.08,5.77-16.71,8.46c-2.12,1.01-3.45,2.9-5.42,4.06
		c-6.93,4.07-11.29,11.13-17.91,15.6c-2.51,1.7-2.89,4.87-4.37,7.3c-2.01,3.27-4.4,6.44-5.69,10c-3.34,9.23-5.57,18.66-6.83,28.55
		c-0.97,7.59-2.13,15.11-2.3,22.79c-0.07,3.3,0.79,5.39,4.22,6.64c7.05,2.57,13.33,6.47,17.69,12.89c1.79-0.39,3.74-0.68,3.95-2.46
		c0.78-6.62,4.82-11.69,7.82-17.24c4.33-7.99,10.68-14.6,15.4-22.35c1.3-2.14,1.81-4.84,4.55-7.02c0.67,3.6,0.49,6.69,0.36,9.71
		c-0.42,9.63,0.24,19.09,4.04,28.08c4.64,10.98,7.08,22.66,10.9,33.91c1.13,3.34,2.23,6.53,4.86,8.98
		c0.76-10.37,7.33-29.52,11.61-33.31c0.96,1.65,0.26,2.98-0.06,4.58c-2.6,12.64-6.24,25.15-5.33,38.3c0.16,2.34,0.16,4.48,3.63,4.04
		c1.06-5.94,1.7-12.02,3.61-18.21c2.82,3.11,4.96,13.59,4.75,23.45c-0.17,7.81,1.97,15.46,1.49,23.3c5.87,0.52,5.27-7.12,10.9-8.59
		c-7.02,12.48-9.94,25.28-10.46,39.37c5.52-0.88,10.64-0.81,13.91-5.46c1.92-2.73,6.1-2.32,7.46-5.52c1.17-2.75,4.18-4.82,2.21-8.82
		c-0.83-1.68,0.97-4.59,0.25-7.09c-1.82-6.35-6.76-10.07-11.63-14.34c2.39-3.04,5.82-1.66,8.34-0.68
		c12.56,4.89,19.72,14.72,21.27,27.67c0.77,6.43-1.68,13.38-5.98,18.73c-6.64,8.26-14.81,15.02-24.18,19.87
		c-4.11,2.13-8.38,4.29-12.92,5.79c-3.65,1.21-5.91,4.14-6.68,8.33c-1.58,8.57-2.88,17.11-3.01,25.88
		c-0.12,8.36,3.72,15.35,6.95,22.72c0-10.01,0-20.03,0-31.07c4.06,5.72,4.48,45.47,1.31,56.04c0.79,0.74,1.59,1.47,2.38,2.2
		c5.67-8.54,12.66-15.96,21-22.22c-14.66,21.57-27.14,44.14-34.45,69.64c9.5-3.39,18.08-8.1,27.21-12.3
		c0.03,2.43-1.33,2.82-2.56,3.45c-5.06,2.63-9.87,5.73-15.05,8.14c-1.82,0.85-3.07,2.42-3.04,4.78c7.83,0.51,15.51-1.59,23.32-0.96
		c13.34,1.07,26.76,1.21,40.08,2.28c10.62,0.85,20.91,0.34,31.43-1.02c13.24-1.71,25.82-5.42,38.06-10.32
		c9.78-3.91,19.23-8.65,28.82-13.03c1.09-0.5,2.16-1.05,3.4-1.25c-2.58,5.14-8.39,6.37-11.84,10.37c-3.07,3.57-9.62,2.19-11.69,8.02
		c2.05,0,3.71,0.01,5.37,0c14.03-0.08,27.7,2.41,41.35,5.4c6.15,1.35,12.49,2.61,18.31,4.52c5.04,1.65,10.22,3.3,15.34,4.71
		c3.2,0.88,6.47,1.23,9.85,3.35c-3.63,2.12-6.3-0.15-9.02-0.83c-8.12-2.01-16.23-4-24.87-2.93c1.73,4.83,6.58,5.18,10.22,6.53
		c5.77,2.14,10.69,5.97,16.61,7.64c1.19,3.71,5.19,4.59,7.71,6.67c4.58,3.77,8.64,8.2,13.63,11.64c5.08,3.5,10.56,6.88,14.71,11.61
		c4.31,4.9,9.87,8.03,15.26,11.26c6.5,3.9,14.02,5.13,21.54,5.35c5.73,0.17,11.51,0.58,18.15-0.65c-9.16,5.81-18.61,2.87-27.48,3.9
		c1.19,3.81,5.93,3.01,8.64,6.4c-4.09,0.72-7.6,0.91-10.79,0.12c-2.28-0.57-4.04-0.35-6.13,0.24c-6.26,1.77-12.83,1.99-19.11,3.97
		c-8.35,2.64-16.21,6.53-22.93,11.7c-5.14,3.95-10.81,7.4-15.44,12.21c-1.57,1.62-4.25,2.73-6.11,4.73
		c1.39,0.37,6.73-0.73,8.97-1.53c8.98-3.21,17.85-6.87,27.57-7.94c0.53,2.92-1.89,3.1-3.23,3.74c-7.33,3.53-14.68,7.01-21.06,12.12
		c-4.32,3.46-9.68,5.9-11.73,11.74c-0.4,1.13-1.2,1.78-0.8,3.33c0.9,3.53-1.96,6.2-3.55,8.63c-4.94,7.59-6.77,16.01-8.22,24.6
		c-1.31,7.79-2.14,15.66-1.99,23.58c0.03,1.38-1.27,2.34-0.7,3.96c4.63-3.64,8.01-8.79,14.19-11.04c0.05,3.8-2.08,6.93-3.65,8.95
		c-3.79,4.85-4.77,10.54-6.77,15.92c-0.43,1.15-0.78,2.46-1.14,3.7c-1.48,5.06-1.25,5.81,3.33,8.37c1.01,0.56,1.95,1.03,2.67,2.05
		c2.91,4.07,6.27,7.69,10.96,9.78c1.76,0.79,0.93,2.92,2.01,3.86c4.15,3.62,6.67,8.57,10.42,12.49c4.62,4.82,5.07,4.77,5.29,10.32
		c0.07,1.8,0.62,2.62,1.55,3.5c7.37,6.97,12.85,15.42,18.98,23.39c3.4,4.42,4.83,9.65,7.88,14.06c2.73,3.96,4.58,8.4,7.02,12.43
		c4.65,7.66,7.02,16.38,12.03,23.81c3.91,5.8,6.98,12.26,12.53,16.78c3.76,3.06,5.47,7.97,9.77,10.61
		c-6.1-0.34-11.23-3.73-17.27-4.73c-1.57,2.17-0.38,4.04,1.47,6.22c4.33,5.1,9.6,9.44,13.03,15.23c1.8,3.03,5.77,3.73,7.12,7.87
		c-5.19,0.31-6.61-6-11.53-5.47c-1.21,1.62-0.45,3.12,1.17,5.09c3.81,4.63,5.53,10.5,8.42,15.7c3.16,5.69,5.67,11.83,7.81,17.86
		c3.61,10.19,11.5,16.52,18.17,24.04c0.45,0.51,0.5,1.37,0.92,2.62c-3.01-1.1-5.66-1.67-8.17-2.92c-9.46-4.69-19.77-6.3-30-8.37
		c-12.99-2.63-26.06-1.55-39.1-1.94c-6.48-0.19-12.68,1.84-19.08,2.05c-2.35,0.08-2.13,2.75-3.02,3.24
		c-10.92-0.94-20.78-3.86-31.13-4.44c-11.4-0.63-22.94-1.53-33.91-4.97c-7.63-2.39-15.46-2.64-23.19-3.96
		c-15.39-2.64-30.88-3.12-46.4-2.82c-13.83,0.27-27.64,0.82-41.43,2.67c-7.62,1.03-15.21,2.22-22.84,3.18
		c-1.68,0.21-3.05,1.21-4.79,1.25c-0.41,2.51,2.02,3.47,2.83,5.77c-6.13-3.68-12.94-0.66-19.45-2.47c2.33,3.58,7.31,4.34,8.94,8.91
		c-1.42,0.97-3,0.69-4.54,0.35c-5.91-1.31-11.91-1.99-17.88-2.91c-15.01-2.32-30.08-2.09-45.12-1.7
		c-10.65,0.28-21.27,1.89-31.91,2.8c-3.93,0.34-7.87,0.47-11.81,0.89c-10.11,1.07-20.1,2.98-30.18,3.96
		c-12.41,1.21-24.64,3.44-36.92,5.37c-9.99,1.58-20.05,2.84-30.03,4.57c-4.76,0.82-9.77,1.82-14.76,1.26
		c-3.86-0.43-7.69,2.35-11.6,0.08c-0.44-0.25-1.56-0.29-1.78,0.43c-1.32,4.42-4.97,2.64-7.35,2.28c-7.43-1.12-14.75-1.34-22.13,0.11
		c-1.29,0.25-2.66,0.1-3.99,0.1c-15.16,0-30.31-0.12-45.47,0.06c-5.83,0.07-11.45-1.26-17.06-2.25
		c-12.66-2.23-25.33-4.54-37.82-7.69C1311.94,895.41,1309.4,894.21,1305.87,893.77z M1320.69,417.59c0.35-1.34,0.36-2.3,0.02-3.28
		c-2.97-8.56-4.04-17.49-4.62-26.43c-0.39-5.92-1.14-11.27-4.25-16.7c-6.56-11.44-11.45-23.75-15.94-36.18
		c-3.86-10.68-6.05-21.79-8.59-33.76c-4.59,5.19-4.47,10.6-4.22,16.03c1.78,0.66,2.02-2.26,3.54-1.53c1.34,3.39-0.7,6.27-0.73,9.43
		c-0.08,8.61,1.83,17,2.42,25.55c0.73,10.62,1.91,21.26,2.56,31.9c0.4,6.58,1.93,12.95,2.74,19.44c1.01,8.05,3.44,15.87,5.22,23.79
		c2.33,10.35,5.6,20.35,9.23,30.25c2.73,7.45,6.06,14.68,9.12,22.01c2.09,4.99,3.56,10.43,7.34,14.88
		c4.68-5.89,7.68-12.2,9.22-19.36c2.05-9.49,0.72-18.59-3.14-27.18c-3.61-8.03-7.72-15.82-10.93-24.05c-2.34-6-5.1-11.83-7.67-17.74
		C1316.66,407.73,1317.22,413.35,1320.69,417.59z M1248.75,427.32c-7.78,0.18-15.2,1.32-23.15,4.58c6.39,2.15,12.3,3.38,17.6,6.17
		c5.53,2.91,9.03,7.65,11.48,13.36c0.15-6.1-1.27-11.82-2.3-17.59c-1.17-6.58-3.48-12.86-5.28-19.28
		c-4.68-16.64-9.9-33.06-17.64-48.58c-2.77-5.55-5.74-11.01-6.66-17.28c-0.08-0.52-0.77-0.95-1.78-2.1
		c0.44,2.53,1.29,4.16,0.97,5.95c-1.49,8.19-2.83,16.4-4.19,24.62c-2.13,12.84-0.59,24.75,6.55,35.83c1.18,1.83,3.09,3.71,2.3,6.68
		c-4.12-5.51-7.41-11.13-10.34-16.97c-2.8-5.59-4.24-11.83-7.8-17.09c-0.25,13.21-4.48,25.46-7.73,38.78
		C1217.37,422.31,1233.51,418.89,1248.75,427.32z M1260.81,488.6c3.78,11.97,5.65,23.92,7.35,35.9c1.37-2.29,0.8-4.61,1.4-6.91
		c2.43-9.35,0.32-18.28-3.31-26.99C1265.2,488.04,1263.65,487.5,1260.81,488.6z M1287.39,292.68c3.97,10.39,7.01,21.13,14.24,29.89
		c-0.81-2.69-0.64-5.45-1.43-8.12c-2.41-8.09-8.25-14.44-10.89-22.42c-0.83-2.52-5.53-2.96-6.63-0.64
		c-0.98,2.08-3.25,3.79-3.09,6.56c1.98-0.28,3.22-2.03,5.33-1.66c-0.08,2.09-2.11,3.44-1.59,5.38
		C1287.45,299.84,1287.04,296.17,1287.39,292.68z M1220.99,338.04c0-2.31,0-4.62,0-6.93c-0.01-6.04-1.32-7.48-8.29-8.65
		C1215.56,327.78,1218.91,332.52,1220.99,338.04z M1250.33,457.61c1.87-0.49,3.46-1.29,4.39-3.41c-4.28,0.5-4.23-4.61-8.41-6.28
		C1248.72,451.51,1248.81,454.85,1250.33,457.61z"/>
</g>
<g>
	<path class="st0" d="M1659.01,282.06c0.55,1.62,2.01,1.14,2.95,0.95c9.57-1.94,18.9-4.33,25.32-12.69
		c1.57-2.04,2.97-3.97,2.68-6.64c-0.43-3.82,1.42-7.56-0.26-11.52c-1.69-3.98-3.32-7.83-6.72-10.7c-0.83-0.7-1.96-1.36-1.83-3.21
		c4.2,1.36,7.98,3.38,11.28,5.96c5.66,4.44,10.01,10.08,12.07,17.05c2.29,7.76-0.63,14.65-4.56,21.13
		c-4.12,6.79-10.36,11.53-16.84,15.73c-6.96,4.5-14,8.98-22.12,11.39c-4.37,1.29-9.03,1.21-13.45,3.01c1.73,0.85,3.2,0.65,4.77-0.1
		c1.39-0.67,2.9-0.5,4.6,0.14c-2.88,6.71-4.17,13.62-4.24,20.98c-0.04,3.86-0.62,7.85-0.79,11.81c-0.2,4.55,0.92,8.84,2.72,12.87
		c2.24,4.99,3.03,10.31,4.24,15.54c0.65,2.81-0.36,5.71-1.49,8.13c-2.04,4.38-3.2,9.33-7.91,12.9c6.38-1.74,11.15-12.77,11.71-25.5
		c1.44,2.38,1.83,2.43,0.57,12.15c-0.57,4.36-0.98,8.81-1.52,13.16c-0.55,4.42-1.3,8.35-4.15,11.75c-2.82,3.36-5.27,6.94-6.52,11.35
		c7.88-10.48,15.76-20.96,23.64-31.43c-4.93,9.2-9.31,18.6-13.82,27.93c-4.19,8.66-8.19,17.45-9.45,27.15
		c-0.34,2.61-2.37,3.57-4.3,4.29c-6.49,2.39-12.27,6.12-18.37,9.25c-14.6,7.49-27.98,16.84-41.17,26.49
		c-8.72,6.38-17.52,12.65-25.88,19.53c-6.58,5.42-13.24,10.76-19.91,16.06c-9.07,7.21-17.06,15.55-25.72,23.18
		c-5.39,4.75-9.7,10.75-14.38,16.29c-4.34,5.13-8.48,10.43-12.79,15.6c-9.95,11.94-20.78,23.09-31.26,34.56
		c-9.09,9.95-18.67,19.38-28.27,28.79c-6.18,6.05-13.62,10.64-21.31,14.75c-5.47,2.93-10.63,6.43-15.99,9.56
		c-7.92,4.63-16.5,7.01-25.68,7.31c-1.32,0.04-3.05-0.83-3.87,1.13c-1.95-1.5-4.1-2.79-5.81-4.53
		c-15.1-15.35-31.13-29.82-44.22-47.08c-11.73-15.48-20.52-32.52-28.03-50.33c-2.44-5.8-5.38-11.4-8.19-17.31
		c-0.76,1.04-0.54,1.53-0.3,2.21c4.43,12.51,10.75,24.19,16.34,36.15c10.04,21.47,25.4,39.31,41.44,56.49
		c8.59,9.2,18.25,17.3,27.57,25.75c7.44,6.75,15.43,12.74,23.68,18.41c3.69,2.54,8.14,3.91,11.5,7.18c-1.21,1.6-3.24,0.18-4.85,2.17
		c6.56,1.21,13.29-0.06,18.16,5.26c0.65-2.74-2.68-1.93-1.78-4.5c10.22,0.54,20.49-0.18,30.56-2.95
		c9.79-2.69,19.07-6.71,28.43-10.61c-7.16,5.46-15.49,8.76-24.07,13.15c3.96,0.85,6.02-1.49,8.46-2.54
		c3.78-1.63,8.2-1.57,11.62-3.44c8.18-4.45,16.41-8.83,24.5-13.46c9.78-5.6,20.38-9.62,30.96-13.46c3.74-1.36,7.6-2.99,11.95-2.74
		c-13.43,8.06-26.21,16.89-38.56,27.08c1.63,0.85,2.08,0.17,2.58-0.04c0.73-0.3,1.37-0.88,1.98-1.41
		c8.09-7.04,16.99-12.43,27.34-15.76c12.53-4.04,25.32-6.12,38.28-7.96c14.53-2.06,28.97-4.9,43.33-7.96
		c17.42-3.72,34.32-9.37,50.38-17.04c17.76-8.48,36.15-14.94,55.24-19.47c3.76-0.89,7.77-2.72,11.89,0.21
		c1.56,1.11,4.48,1.39,6.24-1.07c-1.76-1.32-3.97,0.18-5.67-1.6c8.25,2.25,16.26-0.3,24.66,0.09c-0.54-1.44-1-1.96-1.72-1.97
		c-6.83-0.04-13.73-0.7-20.47,0.08c-13.14,1.51-25.9,5.12-38.54,8.93c-14.25,4.3-27.29,11.66-41.16,16.96
		c-9.28,3.55-18.37,7.52-28.05,10c-12.17,3.13-24.59,5.04-36.83,7.81c-5.73,1.3-11.55,2.29-17.37,3.07
		c-10.85,1.44-21.71,2.5-32.27,5.76c-3.44,1.06-6.91,2.65-11.78,3c10.61-6.45,20.35-12.04,31.4-15.01
		c-28.3,3.28-53.93,13.91-79.06,28.91c2.82-4.96,8.46-5.43,10.74-10.56c-2.43,0.95-4.07,0.99-5.47,1.91
		c-6.32,4.16-13.26,7.16-20.04,10.42c-8.55,4.11-17.64,6.65-26.91,8.75c-5.53,1.25-11.11,0.62-16.66,1.64
		c-4.44,0.82-9.41,0.45-13.65-1.88c-5.15-2.82-10.26-5.77-15.14-9.04c-8.02-5.37-16.02-10.82-22.78-17.82
		c9.9,0.88,19.52-0.26,28.09-5.52c11.83-7.25,24.3-13.48,35.51-21.69c7.1-5.2,13.37-11.47,19.16-18.06
		c5.43-6.2,11.26-11.98,17.02-17.84c9.61-9.76,18.21-20.39,26.97-30.9c6.32-7.59,13.03-14.86,19.3-22.49
		c2.74-3.34,5.65-6.47,8.65-9.54c12.61-12.87,26.45-24.29,40.43-35.62c12.87-10.43,26.11-20.34,39.55-29.98
		c14.62-10.48,29.99-19.86,46.45-27.31c3.4-1.54,6.69-3.32,10.29-4.64c-8.28,7.49-17.56,13.82-24.91,22.3
		c3.43-0.97,5.47-3.9,8.06-5.93c2.95-2.31,5.81-4.87,8.71-7.3c4.28-3.57,9.79-4.36,15.04-5.33c8.01-1.47,16.2-1.57,24.28-0.99
		c14.36,1.03,28.78,1.11,43.1,2.19c16.05,1.21,31.3-1.55,46.55-5.41c10.3-2.6,20.05-6.81,29.67-11.28c0.65-0.3,1.12-0.61,1.9,0.02
		c-10.9,7.19-23.57,10.28-35.02,16.27c9.77-2.71,19.37-5.95,29.62-6.7c10.5-0.77,20.78,0.63,31.04,1.97
		c10.07,1.31,19.86,4.33,29.6,7.51c-22.33-0.46-44.45,0.52-67.11,5.94c3.38,0.52,5.71-0.13,8.14-0.37
		c10.79-1.07,21.44-3.49,32.38-3.3c7.72,0.13,14.73,2.76,21.88,5.05c9.68,3.1,19.15,6.67,27.32,12.95c2.85,2.19,5.98,4.15,8.42,6.75
		c6.14,6.54,13.77,11.25,20.46,17.1c4.81,4.21,9.77,8.29,15,11.95c5.2,3.63,10.83,6.63,17.56,7.44c-1.46,1.29-2.9,0.7-4.18,0.7
		c-9.2,0.07-18.39,0.03-27.59,0.04c-13.53,0-26.91,1.56-40.16,4.17c-2.36,0.46-5.25,0.84-7.25,4.04c12.77-3.18,25.06-5.34,37.7-5.19
		c12.53,0.15,25.06-0.17,37.94,2.61c-9.98,2.74-19.95,3.92-29.13,7.7c-9.43,3.88-17.7,9.86-25.86,15.87
		c-8.14,5.99-15.68,12.73-22.43,20.26c-6.58,7.34-13.17,14.75-16.48,24.39c3.46-4.88,6.84-9.82,10.41-14.61
		c3.89-5.23,8.1-9.7,14.46-12.62c9.53-4.38,19.42-7.64,29.14-11.39c0.71-0.28,1.63-0.04,3.19-0.04
		c-26.87,13.56-45.44,34.28-58.64,60.09c4.27-4.6,6.5-10.6,10.4-15.59c4.03-5.15,7.57-10.56,14.59-13.5
		c-2.78,6.3-5.61,11.9-7.42,17.97c-2.26,7.61-3.57,15.23-3.89,23.16c-0.36,8.88-2.16,17.67-1.92,26.61
		c0.08,2.92-0.34,5.87,0.63,8.95c-6.38-4.47-12.53-9.01-19.37-13.59c3.99-0.55,6.12,3.74,10.18,2.14
		c-5.83-5.61-12.62-9.07-19.43-12.33c-7.65-3.66-15.72-6.31-24.01-8.17c-5.41-1.21-10.91-2.01-16.34-3.07
		c-9.26-1.8-18.66-1.5-27.94-2.73c-10.02-1.33-20.17-1.35-30.29-1.18c-1.87,0.03-3.48,0.88-5.26,1.18c-2.65,0.44-5.01,1.01-7.4-0.78
		c-0.94-0.7-2.26-0.58-3.35-0.06c-6.62,3.1-13.76,5.09-19.77,9.54c4.06-0.45,7.54-2.62,11.16-4.2c3.69-1.61,7.31-2.49,11.37-2.66
		c10.27-0.41,20.53-1.48,30.8-0.85c13.77,0.85,27.52,1.96,41.24,3.69c11.31,1.43,22.04,4.4,32.69,8.14
		c6.34,2.23,11.96,5.83,17.9,9.14c-19.41-7.06-39.78-7.09-60.24-9.18c0.84,1.42,1.7,2.21,2.82,2.08c4.85-0.55,9.53,0.8,14.3,1.16
		c12.55,0.94,25.22,1.7,36.87,7.19c5.79,2.73,10.89,6.73,15.78,10.73c9.7,7.93,19.28,16.06,28.13,24.97
		c2.75,2.77,5.11,5.91,7.34,9.36c-13.06-11.09-28.58-17.27-44-23.62c-0.19,0.36-0.37,0.73-0.56,1.09c3.71,1.72,7.39,3.54,11.15,5.15
		c6.18,2.64,12.48,5.22,17.94,9.05c7.69,5.38,14.15,12.34,20.24,19.42c3.64,4.23,7.43,8.4,11.18,12.49
		c8.5,9.28,15.36,19.56,21.36,30.51c4.79,8.76,9.94,17.35,14.15,26.38c5.88,12.61,12.89,24.3,22.98,34
		c0.17,0.16,0.16,0.51,0.34,1.13c-5.09-1.84-9.97-3.54-14.53-6.05c-3.05-1.68-4.66-4.59-6.1-7.52c-3.04-6.16-6.06-12.33-8.72-18.66
		c-0.72-1.71-1.87-2.79-3.1-4.01c7.76,19.75,17,38.64,31.68,54.52c-5.16-3.05-10.21-6.23-13.64-11.18
		c-3.44-4.96-6.25-10.35-9.73-15.27c-6.48-9.16-13.62-17.7-22.53-24.75c-3.59-2.84-7.16-5.61-11.28-8.44
		c1.44,3.07,1.44,3.06,3.47,4.43c4.78,3.22,9.23,6.88,13.33,10.91c9.43,9.26,16.98,19.95,23.66,31.32
		c4.57,7.77,10.13,14.85,15.48,22.1c6.82,9.24,11.27,19.88,15.23,30.62c0.56,1.51,2.43,2.67,1.94,5.02
		c-11.15-10.58-20.86-22.07-33.4-30.49c17.5,14.96,32.2,32.56,47.46,49.76c-21.99-11.56-43.83-23.24-67.03-32.09
		c17.57,10.52,37.55,16.37,54.47,28.56c-5.29-0.74-10.34-2.19-15.49-3.08c-7.77-1.35-15.47-2.9-23.42-2.78
		c-8.16,0.12-16.45-0.85-24.46,0.28c-9.06,1.27-18.08,1.34-27.13,1.88c-8.6,0.51-16.17-2.15-23.64-5.65
		c-7.68-3.6-15.06-7.78-22.39-12.09c7.46,7.59,17.63,10.87,26.45,15.94c-29.14,1.28-53.67-11.28-77.32-26.43
		c2.09,3.87,5.91,6.66,14.84,11.08c5.67,2.81,11.38,5.52,17.01,8.45c-11.03-1.58-22.04-2.68-33.1-3.68
		c-12.31-1.11-24.61-1.13-36.81-0.47c-9.95,0.54-19.98,1.04-29.97,2.29c-10.25,1.29-20.4,3.16-30.59,4.69
		c-4.1,0.61-7.83,0.08-11.6-0.45c-3.01-0.43-5.61,0.31-8.47,1.19c5.03,0.65,10.01,1.37,14.88,2.77c-6.45-0.57-12.92,0.87-19.26-2.67
		c-6.52-3.64-14.13-4.86-21.29-7.06c-0.75-0.23-1.63-0.03-2.55,0.35c3.76,2.81,8.55,2.66,12.69,4.37c4.2,1.74,8.73,2.69,12.73,5.01
		c4.07,2.36,8.15,4.72,12.36,7.17c-2.57,2.38-4.79,0.38-6.87-0.02c-5.01-0.98-10.11-1.08-15.14-1.71c-14.52-1.83-29.19-1.67-43.77-1
		c-8.19,0.37-16.43,1.16-24.6,1.99c-10.42,1.06-20.88,1.87-31.27,3.48c-6.27,0.97-12.61,2.1-19.04,2.48
		c-7.16,0.43-14.25,1.96-21.36,3.08c-7.75,1.22-15.47,2.6-23.22,3.75c-9.55,1.41-19.1,3.21-28.71,3.8
		c-7.71,0.48-15.49,0.57-23.32-0.49c-11.04-1.5-21.76-4.48-32.73-6.12c-3.63-0.54-7.43-0.46-11.25-0.52
		c14.11,2.97,28.42,4.91,42.64,9.48c-1.75,1.28-3.08,0.85-4.3,0.85c-21.03,0.03-42.07-0.16-63.1,0.11
		c-9.32,0.12-18.33-1.73-27.37-3.27c-12.99-2.22-25.83-5.31-38.69-8.02c-1.7-8.71-2.95-17.24-8.3-24.54
		c-4.81-6.57-9.12-8.53-16.78-5.85c-3.26,1.14-4.85,0.19-6.39-2.52c-10.37-18.2-19.28-37.07-27.37-56.4
		c-4.91-11.73-10.41-23.25-15.31-35c-5.92-14.21-12.76-27.96-19.33-41.86c-1.98-4.19-3.1-8.52-2.99-13.28
		c0.22-9.33-0.2-18.67,0.13-27.99c0.52-14.67-3.17-28.6-6.75-42.58c-0.85-3.31-1.86-6.59-2.92-9.83c-0.38-1.16-0.51-2.25-0.13-3.38
		c3.72-11.16,6.08-22.66,8.5-34.13c1.79-8.47,2.85-17.09,4.24-25.64c1.78-10.97,2.18-22,2.05-33.1c-0.15-12.22-1.9-24.27-4.43-36.12
		c-3.44-16.07-7.61-31.98-12.06-47.83c-1.9-6.74-0.97-14.22-0.06-21.31c0.19-1.52,0.07-3.28,0.87-4.75
		c13.83-2.6,27.61-5.89,41.48-1.03c-10.77,2.62-21.7,5.06-31.58,10.96c7.51-3.31,14.78-3.28,22.56-0.71
		c7.84,2.59,15.04,5.4,18.78,13.61c-4.67-4.3-9.49-8.3-16.33-9.01c8.47,2.93,11.9,9.55,13.63,17.88c-4.18,1.51-6.35,4.89-8.16,8.91
		c-1.54,3.42-5,5.23-8.39,6.6c-6.47,2.61-9.76,7.69-11.85,13.99c-0.88,2.65-0.5,5.19-0.47,7.65c0.95,0.71,2,0.88,2.44,0.24
		c2.51-3.63,6.13-3.97,10.01-3.61c5.22,0.48,10.05-0.43,14.76-2.97c3.29-1.78,7.21-1.71,11.01-2.11c5.09,12.45,4.96,25.78,8.5,38.49
		c-2.8,0.94-5.12,1.01-6.29-2.41c-0.19-0.57-0.81-1.13-1.37-1.41c-3.45-1.77-4.87-4.6-4.21-8.49c-7.87,2.43-11.05,8.47-8.61,15.7
		c1.1,3.28,2.69,6.26,4.58,9.16c2.51,3.86,5.52,6.44,10.35,7.26c4.96,0.85,9.82,2.36,14.89,2.78c3.39,0.28,6.33-0.19,7.43-4.28
		c6.69,4.19,13.61,2.62,20.35,2.12c2.06-0.15,4.12-1.54,5.02-3.65c1.19-2.78,3.27-3.47,5.99-3.21c0.66,0.07,1.34,0.06,2-0.01
		c6.93-0.7,9.1-3.1,9.1-10.05c0-7.67,0.04-15.33-0.02-23c-0.03-3.61,2.23-7.34-0.82-10.84c-0.79-0.91,0.32-2.13,1.18-2.98
		c5.64-5.6,8.08-12.71,9.67-20.27c2.06-9.76-0.54-18.77-4.35-27.53c-2.16-4.96-4.87-9.66-7.24-14.53c-0.61-1.26-1.86-2.41-0.92-4.88
		c6.8,11.48,13.55,22.38,20.94,32.87c-0.1-3.64-2.51-6.21-4.24-8.96c-4.68-7.49-9.34-14.97-13.24-22.92
		c-4.44-9.05-6.78-18.64-8.01-28.6c-0.87-7.01-2.06-13.99-1.66-21.22c5.01,15.94,13.65,29.64,24.76,41.85
		c-5.94-9.16-12.1-18.15-17.21-27.89c-5.3-10.09-6.49-21.06-8.35-32.03c-3.12,5.11,0.55,10.61-1.23,16.71
		c-10.96-21.33-20.06-42.28-24-65.17c8.36,15.89,18.38,30.51,30.94,43.3c-3.69-4.59-6.81-9.66-10.48-14.21
		c-4.79-5.93-8.17-12.1-8.65-19.74c-0.42-6.65-4.17-11.94-7.16-17.54c-4.1-7.68-8-15.48-12.6-23.01
		c10.15,6.62,19.78,13.7,28.48,22.1c-2.73-4.02-5.81-7.77-9.84-10.42c-2.91-1.91-4.63-4.47-4.82-7.56
		c-0.55-9.21-2.63-18.29-2.19-27.6c0.29-6.15-0.06-12.33,0.08-18.49c0.23-10.03,1.92-19.88,3.59-29.76
		c2.02-11.93,5.6-23.46,8.43-35.18c0.3-1.24,0.9-2.4,1.67-3.55c-2.96,13.93-5.34,27.89-4.25,42.2c0.53-4.52,0.69-9.06,1.47-13.56
		c1.37-7.89,1.4-16.02,3.76-23.71c2.46-7.99,7.09-14.99,11.21-22.19c6.01-10.51,13.34-20.15,20.3-30.02
		c3.31-4.69,7.21-8.97,11.01-13.29c11.32-12.86,23.68-24.73,35.83-36.78c2.09-2.07,4.74-3.64,7.18-5.44
		c-8.56,10.28-17.23,20.31-23.06,32.38c4.87-5.38,8.18-11.93,13.25-17.34c0.31,0.95,0.57,1.71,0.96,2.89
		c7.53-7.98,16.3-13.88,26.12-18.1c15.12-6.49,30.37-12.63,46.19-17.38c13.72-4.12,27-9.58,39.33-17.04
		c0.81-0.49,1.52-0.51,2.87,0.02c-14.92,9.4-30,17.86-45.48,26.98c2.99,0.7,4.54-0.87,6.08-1.75c10.65-6.06,21.43-11.95,31.65-18.69
		c4.81-3.18,9.97-2.98,14.99-3.85c4.66-0.81,9.3-1.83,14.03-2.42c7.47-0.93,14.98-1.63,22.42-2.79c8.87-1.38,17.71-3,26.56-4.57
		c20.09-3.57,39.32-10.48,59.08-15.35c0.45-0.11,0.97,0.05,1.55,0.36c-13.21,4.43-26.23,9.34-39.28,14.18
		c-13.31,4.94-26.22,10.72-39.03,16.84c3.06,0.56,5.42-1.31,7.96-2.33c7.43-2.97,14.84-5.99,22.09-9.36
		c3.98-1.85,7.4,0.46,11.03,0.76c3.31,0.27,6.46,0.77,9.75-0.13c3.99-1.1,8.13-0.42,12.26-1.16c12.53-2.25,24.95-4.79,36.98-9.04
		c0.43-0.15,0.97-0.02,1.82-0.02c-21.5,19.89-44.07,37.55-71.89,47.38c5.61-0.67,10.68-2.75,15.61-5.14
		c7.21-3.5,14.25-7.29,21.21-11.31c9.63-5.57,19.98-9.68,31.14-11.26c0.58-0.08,0.99-0.93,1.76-0.45c0.03,1.57-1.22,1.34-2.22,1.62
		c-7.83,2.26-15.54,4.71-22.59,9.04c-5.29,3.25-9.68,7.44-13.89,11.86c-2.88,3.02-6.17,5.23-10.02,6.88
		c-13.49,5.78-25.71,13.41-36.57,23.48c-9.62,8.92-17.75,18.78-23.38,30.59c-2.58,5.43-4.55,11.07-5.9,17.05
		c-1.22,5.37-2.66,11.01-7.08,15.2c0.34,0.22,0.68,0.45,1.02,0.67c5.94-5.84,11.57-12.04,17.9-17.42
		c6.15-5.22,11.97-11.09,20.75-14.83c-5.23,6.2-9.56,11.62-14.2,16.74c-4.88,5.4-8.82,11.4-12.11,17.82
		c-5.81,11.34-11.36,22.77-15.27,35c-1.51,4.72-3.38,9.54-5.75,14.02c-0.52,0.98-1.47,1.9-0.47,3.44
		c4.58-6.93,6.53-14.82,9.39-22.29c0.99-2.58,2.27-5.06,3.02-7.73c3.17-11.37,13.06-13.75,22.46-16.44
		c8.74-2.5,16.26,1.39,23.33,5.9c11.64,7.43,19.23,18.24,23.7,31.06c2.69,7.7,3.28,15.97,4.57,24.03
		c2.18,13.61,5.01,26.98,12.95,38.66c2.23,3.28,4.54,6.45,7.46,9.15c0.77,0.71,1.49,1.32,2.61,1c1.01,1.81,2.73,2.84,4.37,3.96
		C1643.84,280.41,1651.44,281.17,1659.01,282.06z M1555.03,240.99c-4.39-6.92-11.46-6.44-18.31-6.56c6.4,1.04,12.34,3.34,17.95,6.52
		c0.11,0.06,0.32-0.06,0.48-0.1c-0.26,0.77,0.27,1.23,0.72,1.67c6.6,6.41,12.77,13.21,18.46,20.44c0.58,0.73,1.26,1.65,3.14,1.77
		c-4.4-6.4-9.24-11.47-13.99-16.55C1561,245.52,1559.07,241.93,1555.03,240.99z M1601.03,291.98c-4.15-4.94-8.91-9.24-13.95-13.28
		c4.07,4.74,7.82,9.78,13.13,13.29c0.2,0.13,0.63-0.09,0.95-0.14c0.12,2.11,1.92,3.07,3.24,4.08c7.78,5.95,15.97,11.26,25.3,14.51
		c8.34,2.9,9.76,3.07,14.25,1.96c-12.82-1.79-19.16-4.82-31.84-12.64C1608.24,297.37,1605.42,293.57,1601.03,291.98z M1501.8,237.92
		c-1.09,0.05-2.23-0.08-1.45-1.54c0.53-0.98,1.49-1.7,2.53-2.31c3.19-1.91,5.27-4.92,7.64-7.67c-2.31,0.2-3.36,1.96-4.72,3.28
		c-4.9,4.75-10.49,8.29-17.01,10.43c-4.65,1.52-9.11,3.51-13.5,5.74c-8.9,4.52-17.88,8.87-26.59,13.78
		c-9.31,5.26-16.47,12.91-23.41,20.79c-0.56,0.64-2.12,1.87-0.69,3.48c3.26-4.95,7.75-8.65,11.84-12.72
		c5.01-4.99,10.5-9.36,17.05-12.33c5.52-2.5,11.02-5.12,16.23-8.2c9.65-5.7,19.92-9.58,30.91-11.61c0.74-0.14,1.21-0.4,1.02-1.25
		c3.88,0.36,17.6-2.08,19.6-3.56c-2.8-0.78-5.29,0.66-7.79,0.99C1509.57,235.73,1505.3,235.44,1501.8,237.92z M1674.24,549.58
		c32.95-15.68,67.67-25.57,103.6-31.56c-10.5-2.23-31.83-1.7-45.09,3.94c5.32-0.47,10.54-1.81,15.87-2.28
		c5.35-0.48,10.62-2.1,16.08-1.21C1733.32,525.36,1702.52,533.76,1674.24,549.58z M1739.34,764.82c1.04,0.73,1.28,1.02,1.57,1.07
		c0.65,0.11,1.33,0.15,1.99,0.12c10.88-0.6,20.61,3.51,29.94,8.15c11.43,5.68,22.38,12.26,31.48,21.55
		c1.58,1.62,3.53,3.65,6.44,4.31c-3.06-7.64-32.03-35.09-39.66-37.45c9.66,7.72,18.45,16.39,27.7,24.74
		c-1.44,0.96-1.89-0.01-2.48-0.48c-12.82-10.18-27.09-17.58-42.97-21.56C1749.13,764.2,1744.58,762.73,1739.34,764.82z
		 M1929.45,522.86c-7.08-4.73-51.69,5.9-60.17,14.45C1888.94,529.47,1908.25,522.68,1929.45,522.86z M1771.4,524.08
		c8.98,8.47,21.64,14.35,27.79,13.08C1788.68,535.48,1780.42,528.98,1771.4,524.08z"/>
	<path class="st0" d="M805.97,494.96c-5.21,2.89-9.59,6.85-13.54,11.21c-2.25,2.48-5.04,3.63-8.01,4.56
		c-2.1,0.65-4.02-0.9-6.23-0.85c-10.11,0.25-20.24-0.52-30.28-1.21c-11.47-0.79-22.89-0.42-34.32-0.66
		c-12.87-0.27-25.52,1.96-38.21,3.86c-14.89,2.22-29.33,6.19-43.82,10.07c-21.75,5.83-40.34,17.51-57.95,31
		c-7.45,5.71-15.17,11.17-21.31,18.36c-5.62,6.58-11.35,13.11-15.97,20.53c-1.08-0.12-1.63-0.52-1.67-1.84
		c-0.17-5.78,2.01-10.97,4.14-16.09c3-7.24,6.08-14.47,10.36-21.11c3.11-4.81,4.32-10.53,7.68-15.32c3.51-5,7.05-9.89,11.45-14.15
		c4.79-4.63,9.56-9.3,14.13-14.15c8.1-8.6,17.87-14.89,27.94-20.83c5.3-3.12,10.29-6.75,16.03-9.14
		c12.61-5.25,25.17-10.37,38.65-13.34c14.59-3.22,29.19-1.28,43.78-1.75c8.09-0.26,15.9-2.33,23.91-2.85
		c7.71-0.5,15.26-2.04,22.84-3.3c8.03-1.33,15.93-3.37,23.53-6.4c6.07-2.42,12.4-4.43,17.84-8.05c6.91-4.6,12.27-10.88,17.24-17.56
		c9.28-12.47,17.48-25.84,28.07-37.2c7.44-7.98,15.84-15.25,25.59-20.71c7.97-4.46,16.51-7.66,24.5-11.97c0.9,1.2,0.9,2.39,0.4,3.44
		c-3.47,7.28-6.87,14.61-10.65,21.72c-0.86,1.62-0.97,3.06-1.11,4.67c-0.92,0.45-1.56,1.11-1.94,2.12
		c-2.96,7.92-6.65,15.57-10.73,22.89c-6.89,12.39-13.87,24.78-22.61,36.08c-4.63,5.98-9.79,11.37-14.93,16.85
		c-5.72,6.11-12.27,11.12-19.5,15.66c1.44,0.77,2.19,0.35,3.12-0.24c8.35-5.31,15.51-11.91,22.25-19.15
		c5.63-6.04,10.7-12.47,15.42-19.17c11.33-16.06,20.26-33.48,28.23-51.41c0.58-1.31,0.91-2.43,0.55-3.77
		c1.77-0.08,1.66-1.76,2.22-2.77c7.37-13.34,12.33-27.79,19.15-41.38c8.98-17.92,21.63-32.98,36.29-46.46
		c6.25-5.75,14.16-8.73,21.53-12.63c1.57-0.83,3.61,0.2,5.12-1.35c-5.91-2.56-25.32,5.89-49.45,22.7
		c-15.43,10.75-27.17,25.37-38.3,41.43c-0.24-4.29,2.06-6.63,3.71-9.2c1.61-2.51,3.34-4.95,4.67-7.67
		c-10.65,9.77-20.87,19.85-27.1,33.26c1.54-6.46,1.33-13.52,7.61-18.33c-2.83-0.48-4.46,1.16-6.13,2.13
		c-9.05,5.31-18.32,10.26-28.35,13.33c-10.66,3.26-21.58,5.8-32.89,5.11c-18.37-1.13-35.73,4.09-53.24,8.31
		c-3.83,0.92-7.36,3.1-11.22,4.36c4.65-4.06,7.39-10.54,14.32-11.5c6.83-0.96,13.48-2.58,19.84-5.14c5.23-2.1,10.66-3.92,15.5-7.27
		c-1.98-1.52-3.33-0.21-4.47,0.44c-11.14,6.38-23.35,8.98-35.86,10.92c-13.18,2.05-26.36,3.45-39.7,4.05
		c-12.58,0.56-25.19,2.49-36.92,7.09c-12.1,4.74-21.78,13.38-30.6,22.84c-1.17,1.26-1.15,3.4-3.63,4.86
		c1.57-9.72,4.29-18.36,7.61-26.93c3.27-8.44,7.64-16.34,11.24-24.6c-9.2,13.96-16.09,28.9-19.41,45.56
		c-2.34-1.04-1.06-3.27-1.54-4.78c-2.32-7.21-1.38-14.59-0.3-21.86c2.74-18.33,10.06-35.07,18.65-51.28
		c2.98-5.62,6.47-10.97,9.88-16.35c0.87-1.37,1.57-2.67,1.72-4.28c-4.62,5.31-8.2,11.27-11.65,17.29
		c-4.78,8.36-9.1,16.98-12.08,26.17c-0.64,1.96-2.39,2.13-3.58,3.15c-4.03,3.43-8.08,6.82-11.97,10.54
		c6.08-11.27,14.97-20.94,19.01-33.4c-2.18,4.91-6.08,8.19-10.32,11.23c6.62-21.95,16.95-41.4,36.97-54.48
		c-13.29,4.63-24.56,12.46-35.77,20.46c16.46-21.89,36.11-39.94,61.14-51.94c-4.46,0.93-8.97,0.21-13.47,1.39
		c-4.52,1.19-9.26,1.56-13.95,2c14.19-4.71,28.62-8.65,42.26-14.76c12.2-5.46,25.14-9.25,36.66-16.28c1.6-0.97,3.67-1.45,5.57-1.61
		c12.1-1.02,24.18-2.2,36.21-3.95c2.9-0.42,5.72-0.87,9.4-1.69c-5.72-1.47-10.44,0.24-15.06,0.78c-5.37,0.63-10.81,0.5-16.14,1.64
		c-6.73,1.44-13.72,0.9-20.45,2.71c-3.36,0.9-6.92,0.28-10.42,0.02c8.01-2.04,16.23-2.81,24.15-5.4c6.82-2.23,13.6-4.57,20.16-7.39
		c13.78-5.93,27.65-11.64,41.76-16.74c7.95-2.88,15.84-5.92,24-8.22c10.8-3.04,21.55-3.72,32.46-0.89c0.44,0.11,0.96-0.09,1.48-0.45
		c-9.94-4.08-20.49-3.5-30.93-4.03c20.46-2.95,40.85-1.94,61.38,1.18c-3.6-1.96-5.69-5.27-8.77-8.86
		c9.83,4.05,19.39,6.65,28.02,11.59c3.18,1.82,3.91,4.62,4.48,8.07c1.66,10,5.71,19.29,9.14,28.79c3.47,9.61,7.72,18.68,13.61,26.99
		c2.39,3.36,6.06,5.65,8.05,9.38c0.79,1.49,2.45,2.66,1.14,4.81c-0.79,1.29,0.77,2,1.51,2.79c1.43,1.56,2.95,3.03,4.78,4.89
		c-2.54,0.92-4.46,1.61-6.38,2.31c0.01,3.8,3.89,1.63,5.31,3.68c0.5,1.19-1.27,1.57-1.45,3.34c6.78,5.4,3.74,12.41,1.62,19.09
		c-4.4,13.83-7.97,27.88-11.25,41.98c-2.07,8.89-3.27,18.02-3.59,27.3c-0.31,8.77-3.99,16.73-9.75,23.59
		c-10.26,12.23-19.5,25.18-22.67,41.15c-1.49,7.51-2.48,15.16-4.42,22.58c-3.12,11.96-5.51,24.21-11.74,35.12
		c-2.46,4.31-5.75,8.05-9.45,11.33c-3.35,2.97-4.62,6.23-2.7,10.47c3.4,7.5,1.72,15.08,0.61,22.76c-0.59,4.05-3.01,7.86-1.83,12.18
		c0.09,0.32-0.39,0.89-0.73,1.2c-0.33,0.31-0.82,0.44-1.15,0.61c-1.27-0.53-0.52-1.93-1.46-2.59c-8.03,6.6-14,14.62-16.77,24.92
		c0.6-6.5,0.47-12.97,2.99-19.12c-8.31,9.16-15.12,19.08-20.02,31.35c-1.11-4.96-1.76-8.85-1.68-12.91c0.06-2.61,0.95-4.13,3.14-5.6
		c3.18-2.14,5.95-4.87,7.47-8.7c-3.93,2.31-6.9,5.7-10.14,8.76c-3.24,3.06-6.27,6.3-9.84,9.06c-3.67,2.82-6.78,6.4-9.96,9.81
		c-3.04,3.26-6.38,6.18-9.16,9.76c-2.82,3.63-5.47,7.3-8.06,11.28c-0.26-7.46-0.97-14.89,1.1-22.46c2.11-1.91,5.48-2.04,7.77-4.24
		c-26.69,7.13-51.9,17.2-72.58,36.63c5.21-8.75,11.34-16.58,17.95-24.19c6.82-7.84,14.92-13.38,24.29-17.7
		c-5.1-0.69-9.09,2.72-13.76,3.57c-5.07,0.92-10.12,2.68-14.8,4.86c-4.53,2.12-9.62,3.12-13.63,6.46
		c2.92-5.08,7.97-7.87,12.01-11.69c2.99-2.84,6.35-5.2,10.97-4.19c0.98,0.21,1.77-0.68,2.77-1.74c-11.33-1.02-22.4,0.23-33.48-1.91
		c-11.2-2.16-20.63-7.5-30.46-12.65c8.77-0.55,16.39-4.25,23.87-7.92c7.21-3.54,14.82-6.1,21.93-9.8
		c9.06-4.72,16.72-11.44,24.84-17.51c6.38-4.77,11.28-11.14,17.69-15.85c1.22-0.89,2.8-1.84,2.91-3.75c2.13,0.74,2.9-1.13,4.08-2.16
		c3.98-3.47,7.35-7.54,11.53-10.87c6.03-4.79,12.59-8.8,18.64-13.5c2.25-1.75,5.51-2.74,6.75-6.94
		c-10.62,7.5-20.45,14.77-32.9,19.79c2.01,0.73,3.37-0.84,4.08,1.1C814.4,486.65,809.57,490.25,805.97,494.96z"/>
	<path class="st0" d="M1126.56,821.81c2.51-4.03,2.51-4.03,1.66-19.27c2.82,0.69,3.14,3.62,4.88,5.21
		c5.94,5.46,12.12,10.66,18.63,15.37c12.77,9.25,24.1,20.05,35.11,31.25c1.95,1.98,3.94,3.92,6.29,5.64
		c-0.18-2.37,0.31-4.74-2.14-6.79c4.94,1.6,6.01,3.12,4.79,7.63c-0.52,1.92-0.61,3.88-1.11,5.79c-2.05,0.28-3.42-1.16-5-1.84
		c-8.1-3.52-13.05-2.7-19.34,3.27c-3.83,3.63-5.81,8.25-7.45,13.1c-1.79,5.32-2.23,5.21-7.8,3.91c-7.96-1.86-14.64-5.58-20.08-11.64
		c-0.58-0.65-1.09-1.81-2.64-1.11c1.21,3.59,3.77,6.26,6.79,9.53c-4.05-0.4-6.93-2.04-9.89-3.31c-4.97-2.15-9.35-5.4-13.94-8.19
		c-4.28-2.6-7.6-6.81-9.06-11.94c-0.41-1.44-0.63-2.86-2.47-4.35c1.25,7.82,4.07,14.46,7.41,21.72
		c-6.22-3.22-10.21-8.01-14.19-12.54c-8.62-9.83-14.42-21.33-18.22-33.85c-1.09-3.58-2.31-7.11-3.58-10.64
		c-2.09-5.77-0.07-11.65,1.22-17.24c2.73-11.73,6.52-23.25,8.27-35.17c0.97-6.63,2.43-13.38,2.19-20.04
		c-0.46-12.69-2.45-16.46-16-22.3c-0.29-0.13-0.66-0.07-0.99-0.13c-7.02-1.3-10.75-5.51-12.21-12.52
		c-1.76-8.47-4.53-16.71-4.71-25.49c-0.06-2.73-1.01-5.44-1.57-8.15c-0.57-2.79-0.7-5.62,0.05-8.36c0.31-1.13,0.68-2.22,0.58-3.37
		c-1.5-17.41,3.72-33.44,10.08-49.24c1.4-3.48,2.81-6.95,4.25-10.41c2.93-7.07,8.41-12.43,12.6-18.66
		c5.77-8.58,13.43-15.47,20.69-22.72c0.9-0.9,1.63-2.24,3.3-1.73c0.71,11.72-0.62,23.4-1.25,35.05c-0.86,15.82,1.1,30.94,6.2,45.8
		c0.05,0.15-0.01,0.37,0.07,0.49c4.2,5.85,1.4,11.65,0.1,17.57c-1.29,5.89-2.38,11.82-3.32,17.8c-1.33,8.46-1.84,16.99-2.52,25.46
		c-0.63,7.84-0.38,15.82,0.39,23.81c0.82,8.54,2.45,16.81,4.31,25.11c0.28,1.24,0.63,2.17,2.46,2.77
		c-0.74-5.77-0.46-11.61-1.71-16.81c-2.24-9.29-5.45-20.32-4.54-25.9c1.55-9.43,1.59-18.98,2.73-28.44
		c1.25-10.38,3.14-20.57,5.68-30.97c2.86,1.63,3.12,4.67,4.61,6.84c8.61,12.51,17.44,24.88,25.58,37.69
		c5.58,8.77,13.41,15.71,18.79,24.57c8.58,14.15,15.81,28.85,20.59,44.82c3.69,12.31,8.11,24.41,11.17,36.92
		c1.52,6.21,2.15,12.56,2.87,18.92c0.7,6.21,0.12,12.49,1.61,18.66c0.71,2.93,0.12,6.18,0.12,9.85c-4.11-1.97-7.09-3.71-9.14-7.59
		c-2.83-5.36-6.94-10-11.44-14.21c3.22,7.55,10.64,12.57,12.4,21.05c-3.59-3.39-7.69-6.09-11.15-9.5
		c-8.69-8.56-17.95-16.38-28.02-23.31c-5.12-3.53-9.58-8.02-14.37-12.03c-5.39-4.52-5.84-10.78-6.11-17.1
		c-0.11-2.48-0.02-4.96-0.5-7.47c-0.64,3.93-1.22,7.85-0.26,12.44c-3.07-1.94-2.66-4.76-3.07-6.79c-2.63-13.14-6.13-26.03-10.7-38.6
		c-4.1-11.25-3.72-22.8-3.44-34.41c0.07-2.73,2.55-5.01,1.54-8.8c-5.08,10.1-4.93,20.36-5.74,30.69c1.73-0.93,2.76-1.35,3.08,0.96
		c0.82,5.83,2.88,11.33,4.63,16.92c2.87,9.16,5.33,18.44,7.56,27.8c2.95,12.42,4.7,24.82,3.31,37.57
		C1125.47,821.01,1125.94,821.25,1126.56,821.81z"/>
	<path class="st0" d="M899.91,716.2c-1.17-6.53-2.41-13.06-3.5-19.61c-0.85-5.12-0.12-10.05,1.35-15.06
		c2.36-8.03,6.05-15.48,9.25-23.14c6.04-14.44,11.98-28.91,15.13-44.34c0.15-0.75,0.75-1.41,1.52-2.06
		c1.73,16.57,2.42,33.11-0.64,49.79c2.11-0.72,1.73-2.19,2.1-3.43c2.44-8.07,2.25-16.36,1.85-24.58c-0.43-8.94,3-16.38,8.1-23.16
		c7.04-9.37,14.68-18.27,23.27-26.28c1.95-1.82,2.66-4.62,5.6-6.19c-1.85,5.89-3.22,11.49-4.11,17.19
		c-1.09,6.94-3.09,13.73-2.9,20.88c0.19,7.16,0.29,14.34-0.04,21.48c-0.23,4.9,1.38,9.38,2.13,14.05c0.05,0.32,0.09,0.69,0.27,0.95
		c7.17,10.1,12.74,21.19,19.3,31.68c11.38,18.19,25.34,34.51,36.79,52.59c4.67,7.37,6.44,15.8,7.72,24.48
		c2.16,14.68,2.12,29.39,1.78,44.1c-0.33,14-2.97,27.62-9.35,40.27c-3.23,6.4-5.92,13.07-10.39,18.83c-1.13,1.45-2.24,2.79-3.73,4.1
		c-2.36-3.13-5.19-3.57-8.64-1.81c-4.4,2.24-6.71,1.72-9.32-2.35c-1.1-1.71-2.42-3.11-3.79-4.52c-3.97-4.12-8.54-5.55-13.75-2.52
		c-2.21,1.29-4.03,1.21-6.41,0.29c-10.9-4.22-20.86-10.13-29.99-17.26c-6.96-5.43-12.14-12.7-17.25-19.94
		c10.35,8.82,20.22,18.24,33.3,23.01c-4.07-3.9-9.21-6.25-13.87-9.25c-10.35-6.65-16.53-16.09-20.67-27.28
		c-4.75-12.85-7.48-26.31-11.91-39.25c-2.31-6.73-4.66-13.43-6.66-20.32c7.06,9.07,12.23,19.28,18.09,29.08
		c-5.52-14.88-14.34-27.9-24.14-41.55c8.39,3,13.27,9.28,20.32,13.29c-1.87-3.07-1.93-2.99-3.87-4.49
		c-3.86-2.96-6.51-6.53-7.92-11.47c-3.59-12.55-4.22-25.29-3.82-38.18c0.11-3.42,1.6-6.69,1.22-10.25
		C894.82,694.77,895.1,705.95,899.91,716.2z"/>
	<path class="st0" d="M1035.3,128.94c-2.98-2.04-5.63-1.21-8.24-0.44c-2.49,0.74-5.16,2.63-7.55,1.14
		c-3.92-2.44-9.01-3.23-11.51-7.8c-0.8-1.46-1.99-2.62-3.57-3.45c-2.06,2.79-1.6,6.25-2.65,9.29c-1.54,4.47-5,8.22-5.5,12.93
		c-0.57,5.3-1.51,10.33-3.41,15.37c-0.83,2.2-0.39,5.47,0.64,8.09c0.93,2.35,1.4,4.72,1.08,7.98c-2.91-3.57-4.02-7.46-5.38-11.1
		c-1.47-3.95-2.33-8.14-3.4-12.24c-1.08-4.17-1.41-8.43-0.23-12.22c1.21-3.91,1.42-8.35,4.35-11.85c-3.91,3.29-8.25,5.81-11.96,9.07
		c-3.92,3.44-6.96,7.57-9.74,12.2c-5.2,8.67-6.4,18.01-7.18,27.59c-0.34,4.14,0.01,8.33-0.09,12.49c-0.04,1.51,0.26,2.9-1.26,4.42
		c-2.08,2.08-0.28,5.1,1.04,6.69c4.01,4.82,4.63,10.64,5.92,16.3c0.93,4.08,1.8,8.17,2.86,13.02c-3.58-2.88-4.63-6.55-6.04-9.78
		c-2-4.61-4.17-9.21-5.24-14.18c-0.59-2.71-1.94-5.36-0.81-8.18c0.31-0.77,0-1.22-0.21-1.8c-3.32-9.43-4.11-19.28-3.9-29.11
		c0.09-4.09,2.46-8.13,1.49-12.58c-2.49,2.42-2.45,5.93-2.52,8.6c-0.18,6.68-2.16,13.19-0.64,20.16c0.97,4.47-1.24,9.6-1.99,14.42
		c-1.34,8.61-3.08,17.2-0.91,26.11c0.94,3.86,1.01,8.02,2.15,11.99c-2.4-2.45-3.74-5.37-4.92-8.45c-2.76-7.17-4.68-14.53-5.9-22.12
		c-1.83-11.4-0.81-22.87-0.87-34.3c-0.03-5.21,2.51-10.23,1.91-15.59c-0.09-0.81-0.01-1.65-0.01-2.76
		c-2.05,3.09-4.08,15.24-4.09,23.58c0,8.16,0,16.32-0.51,24.55c-2.88-10.89-5.35-21.78-5.49-33.19
		c-0.14-11.58,3.15-22.59,4.92-33.86c-4.02,6.47-4.3,14.06-6.37,21.1c-1.72-13.95,2.6-26.46,7.86-39.05
		c4.67-11.19,13.85-17.58,22.43-24.92c4.47-3.83,9.67-4.36,15.01-4.94c1.45-0.16,3.09,0.32,3.93-1.83
		c-5.4-0.41-10.44,2.42-16.06,1.52c0.57-0.5,0.87-1,1.28-1.1c8.08-2.05,15.22-6.54,23.22-8.93c1.82-0.54,3.46-0.6,5.16-0.74
		c3.76-0.32,4.31-0.77,4.62-5.16c2.16,1.75,4.02,3.57,6.53,4.53c1.26,0.48,1.87,1.53,1.68,3.5c-0.79,7.98,2.15,12.21,9.91,14.72
		c4.03,1.3,7.97,2.81,12.16,3.71c4.54,0.98,8.11,4.25,11.49,7.19c7.35,6.39,13.1,14.06,17.52,22.9c3.62,7.26,8.4,13.91,11.31,21.61
		c1.88,4.97,2.28,10.21,3.14,15.26c1.41,8.31,0.39,16.77-1.25,25.2c-1.1,5.68-2.98,10.85-4.81,16.22c-1.49,4.38-2.6,9.65-1.71,14.74
		c0.22,1.28,0.03,2.64-0.48,4.05c-1.67-3.29-2.08-6.88-2.39-10.48c-0.77-8.81,1.54-17.51,0.96-26.3
		c-0.83-12.67-3.05-25.07-10.14-35.9c-2.54-3.88-5.19-7.95-9.56-10.47c4.43,7.78,9.73,15.06,12.48,23.68
		c-1.33-1.06-2.3-2.32-3.17-3.78c-4.38-7.34-11.29-12.48-16.82-18.83C1030.57,133.7,1030.53,131.66,1035.3,128.94z"/>
	<path class="st0" d="M1016.52,429.63c-2.77-16.49-0.2-32.23,6-47.56c0.09,7.25,1.29,14.3,2.34,21.4c0.86,5.87,3,11.35,4.14,17.1
		c1.49,7.52,1.6,15.03,0.05,22.55c-0.16,0.78,0.05,1.63,0.44,2.51c6.5-12.38,10.78-25.29,9.71-39.59
		c4.03,11.82,3.98,23.98,3.76,36.15c-0.03,1.59-0.86,2.86-1.75,3.99c-6.06,7.62-10.22,15.96-10.27,25.96
		c-0.01,1.7-0.85,3.18-2.02,4.37c-7.66,7.75-14.29,16.4-21.46,24.58c-8,9.12-14.81,19.12-20.82,29.66
		c-0.15,0.27-0.49,0.44-1.11,0.99c-2.05-4.88-5.57-7.56-10.96-7.83c-5.17-0.26-9.51,2.04-14.36,3.72c-1.76-3.4-3.01-6.6,0.09-10.48
		c5.13-6.42,2.89-13.77,1.38-20.77c-0.67-3.12-1.87-6.3-4.37-8.65c-1.24-1.16-0.89-2.31-0.71-3.93c1.02-9.32,6.61-16.28,11.73-23.4
		c7.86-10.94,15.33-22.06,18.24-35.45c1.42-6.55,2.38-13.25,2.5-20c0.04-2.01,0.4-3.37,2.24-4.9c6.79-5.64,10.51-13.76,15.67-20.73
		c1.62-2.19,2.86-4.66,4.48-6.92C1007.75,392.01,1008.8,411.09,1016.52,429.63z"/>
	<path class="st0" d="M1659.01,282.06c-7.57-0.89-15.18-1.65-21.74-6.13c-1.64-1.12-3.36-2.15-4.37-3.96
		c-1.36-2.54-3.94-3.99-5.61-6.25c-8.75-11.82-12.93-25.33-15.45-39.66c-1.89-10.72-3-21.64-6.71-32.02
		c-1.14-3.2-2.92-5.84-4.94-8.38c-3.22-4.04-2.54-8.33-1.58-12.88c0.96-4.61,3.4-8.49,5.74-12.35c4.38-7.2,9.18-14.13,14.22-20.99
		c-1.38,6.06-3.21,11.88-4.01,18.02c-0.78,6.04-2.63,11.95-0.31,18.08c-0.14-13.95,3.54-27.05,7.84-40.81
		c1.87,3.57-1.84,6.51,0.69,9.19c-0.36,11.32,4.7,21.25,8.11,31.6c2.76,8.35,4.85,16.89,7.77,25.2c0.99,2.81,2.05,5.63,3.67,7.97
		c1.74,2.52,1.66,4.7,1.08,7.4c-0.77,3.65-1.1,7.39-0.97,11.22c3.97-12.86,3.39-26.77,9.32-39.23c-3.79,16.23-3.97,32.39,0.36,48.52
		c2.34-8.72,5.41-17.22,6.01-26.67c3.15,3.77,2.01,8.31,2.43,12.1c0.63,5.68,1.26,11.47,1.39,17.26c0.11,4.67-0.91,9.11-2.09,13.55
		c-0.43,1.61-1.39,2.76,0.18,4.81c1.01,1.33-0.38,4.5-1.8,6.59c-2.72,4-5.02,8.23-6.1,13.04c4.86-8.43,10-16.66,15.33-24.82
		c-2.84,9.6-4.78,19.29-4.75,29.37C1661.3,281.91,1660.16,281.98,1659.01,282.06z"/>
	<path class="st0" d="M1114.58,240.19c-1.59,0.74-2.17,1.02-3.04,1.43c-0.98-0.85,0.03-2.51-1.2-3.37c-4.15,3.53-3,8.63-3.58,13.2
		c-1.97-0.38-1.74-1.84-1.7-3.1c0.35-9.54-0.65-19.07,1.69-28.63c1.19-4.85,2.03-9.87,3.21-14.79c2.15-8.97-1.81-16.05-6.82-22.64
		c-1.39,0.19-0.98,1.69-2.87,1.39c-3.03-3.58-7.56-6.57-11.33-10.3c0.41-0.61,0.52-0.97,0.76-1.1c4.04-2.36,8.92-3.51,9.03-10.03
		c0.04-2.24,3.7-4.33,7.11-4.92c-1.13-4.27-4.8-5.53-7.82-7.78c2.97-1.89,5.74-3.52,9.05-4.23c-7.54-0.01-12.89-3.78-18.05-8.72
		c3.31-2.71,4.76,2.83,7.49,1.21c-0.76-5.47-0.76-5.47-12.21-11.34c1.93-2.11,2.6-4.9,4.09-7.24c0.37-0.58,0.66-1.05,0.41-1.79
		c-0.61-1.75-1.66-3.56-1.54-5.27c0.13-1.79,2.45-3.05,2.07-4.46c8.08-0.37,15.64-3.72,23.66-3.32c-8,1.71-14.87,5.64-21.55,10.26
		c0.98,0.57,1.77,0.56,2.5,0.01c3.19-2.41,6.42-1.39,10-0.78c8.33,1.42,15.8,4.65,21.81,10.32c3.92,3.7,8.71,6.01,12.59,9.66
		c4.05,3.81,8.43,7.26,12.55,10.99c1.32,1.19,3.7,0.41,4.63,2.95c-5.96,0.56-11.08-0.02-15.14-4.86c-3.69-4.41-8.15-7.95-13.81-9.69
		c4.87,5.16,10.81,9.3,14.33,15.64c3.45,6.2,6.79,12.45,8.37,19.62c-7.93-0.01-9.8,8.25-15.89,10.11c-1.07-3.05-1.68-6.3-3.91-9.06
		c-1.37,1.72,0.2,3.19,0.64,4.35c1.8,4.76,2.19,9.31,1.09,14.41c-0.78,3.6-0.73,7.48-1.46,11.2c-1.51,7.72-5.88,14.09-9.6,20.77
		c-2.23,4-5.48,7.5-5.24,12.59C1115.02,235.35,1110.5,237.2,1114.58,240.19z M1114.23,174.36c3.62,7.2,5.39,14.9,6.24,22.84
		C1122.22,188.56,1119.23,181.19,1114.23,174.36z"/>
	<path class="st0" d="M1073.89,821.06c6.67,25.32,19.83,45.93,41.98,60.78c-0.6-4.65-4.2-7.85-5.18-12.18
		c8.86,5.36,17.46,10.73,27.62,14.81c-4.7,2.35-9.11,3.33-13.37,4.25c-7.55,1.63-15.27,3.05-23.04,2.14
		c-11.04-1.3-22.11-2.48-32.95-5.06c-2.56-0.61-4.07-2.07-4-5.3c0.19-8.1,1.96-15.95,3.3-23.85c1.07-6.29,2.06-12.58,2.76-18.91
		C1071.62,832.21,1073.26,826.84,1073.89,821.06z"/>
	<path class="st0" d="M1195.76,440.6c-0.91-4.19-2.36-8.34-2.6-12.57c-0.42-7.64-0.95-15.43,0.08-22.95
		c1.5-11.05,0.58-22.37,3.71-33.23c0.27-0.93,0.1-1.99,0.09-2.99c-0.13-17.39,3.43-34.63,1.71-52.34c4.27,1.01,7.65,2.89,10.65,4.94
		c2.05,1.41,2.84,4.57,4.36,6.84c2.66,3.97,4.1,8.53,6.03,12.83c2.31,5.17,0.58,10.6-0.34,15.91c-1.81,10.47-4.25,20.86-4.48,31.56
		c-0.04,1.94-0.34,3.93,0.57,5.81c-6.26-11.18-8.83-23.37-9.56-36.12c-1.5,5.27-1.06,10.32,0.05,15.29
		c1.76,7.9,0.83,15.62-0.51,23.49c-1.52,8.87-4.64,17.36-6.17,26.11c-1,5.68-3.11,11.29-2.36,17.28
		C1196.57,440.52,1196.16,440.56,1195.76,440.6z"/>
	<path class="st0" d="M1021.15,357.13c3.98-0.26,7.36,0.85,9.16,5.55c1.97,5.14,5.27,9.25,10.02,12.43
		c3.78,2.53,5.13,7.2,6.52,11.34c2.02,6,3.81,12.07,4.27,18.53c0.29,4.16,1.72,8.29,3,12.31c1.4,4.38,1.23,8.16-1.7,12.03
		c-2.13,2.83-4.04,5.83-6.98,9.41c-0.48-20.04-3.98-38.63-11.57-56.39c5.96,16.32,4.48,32.41-0.57,48.52c-1.81-2.21-1.9-5.01-2-7.25
		c-0.35-7.49-4.13-14.09-4.75-21.48c-0.67-7.98-3.3-15.69-1.69-24c1.06-5.47-0.33-11.32,1.38-16.91c-2.66,3.68-2.78,8.02-3.18,12.18
		c-0.28,2.98-0.83,5.6-2.22,8.36c-3.23,6.4-5.24,13.33-5.76,20.5c-0.2,2.84-1.96,5.31-1.55,8.28c-3.79-8.92-2.95-18.25-1.9-27.35
		C1012.67,374.16,1014.27,365.02,1021.15,357.13z"/>
	<path class="st0" d="M1031.08,223.56c3.09,4.33,1.93,9.15,0.08,13.76c-2.04,5.09-4.48,10.03-6.89,14.96
		c-7.38,15.16-8.19,31.42-7.07,47.7c0.57,8.27,2.01,16.69,4.99,24.69c-3.95-3.97-4.97-9.39-7.09-14.24
		c-1.03-2.37-1.55-4.96-2.24-7.47c-1.19-4.28-2.58-8.38-6.59-11.5c-4.8-3.73-6.78-9.43-7.24-15.57c-0.24-3.2-0.64-6.25-0.27-9.6
		c0.49-4.46,1.67-7.94,4.9-10.93c-7.19,3.9-10.33,10.99-13.93,17.99c-0.61-3.51,1.73-11.72,4.01-15.51
		c2.64-4.37,5.66-8.74,9.37-11.87c3.29-2.77,6.94-6.3,11.98-6.38c0.31,0,0.76,0.29,0.81-0.07c0.52-3.39,4.81-4.49,5.06-7.74
		c0.46-6.04-0.05-6.46,7.41-7.86C1029.02,223.81,1029.38,223,1031.08,223.56z M1012.8,245.81c-6.43,14.5-7.19,29.66-4.24,45.13
		C1009.27,275.89,1007.67,260.65,1012.8,245.81z"/>
	<path class="st0" d="M1030.38,77.47c-2.02,1.91-0.99,3.6-1.65,4.91c-1.77,0.34-1.28-2.15-3.17-2.24c-1.36,3.03-0.3,6.12,0.5,9.36
		c-2.82-0.34-3.89-1.55-5.45-3.83c-7.11-10.41-8.62-22.26-10.74-34.15c-1.01-5.66-0.39-11.21-0.81-16.8
		c-0.21-2.78,2.12-4.63,2.29-7.32c0.39,0.22,0.62,0.28,0.66,0.4c2.62,8.25,7.29,15.54,10.86,23.35c2.45,5.35,5.79,10.04,10.37,13.51
		c13.89,10.52,17.83,14.91,25.6,30.13c0.26,1.78-2.88,0.83-2.47,2.99c-1.37-1.92-2.75-3.84-4-5.59c-1.31-0.29-1.36,1.35-1.87,1.41
		c-2.56-1.49-0.28-4.29-2.67-5.6c-1.66,1.51-0.25,3.78-1.39,5.77c-2.75-3.14-6.25-4.93-9.43-7.19
		C1033.88,84.37,1031.22,81.97,1030.38,77.47z"/>
	<path class="st0" d="M960.63,245.65c-8.44-12.5-11.69-26.19-10.18-40.77c0.27-2.58-1.18-6.99,4-8.64
		c2.74,16.71,13.42,30.12,18.58,45.76c-2.6,2.53-5.1-0.41-7.73,0.12c0.83,2.5,4.08,2.3,4.62,4.66
		C966.52,247.72,963.46,246.14,960.63,245.65z"/>
	<path class="st0" d="M930.38,122.24c-10.3-18.26-15.13-36.78-8.48-56.85c1.93,1.59,1.84,4.83,2.64,7.28
		c1.57,4.83,3.59,9.41,5.68,13.99c0.78,1.71,2.34,3.18,0.89,5.34c-0.42,0.62-0.05,1.57,0.57,2.27c2.26,2.51,4.8,4.94,3.44,8.87
		c-0.04,0.12,0.04,0.38,0.14,0.43c5.51,2.68,1.38,5.84,0.12,8.42C933.81,115.17,933.17,118.82,930.38,122.24z"/>
	<path class="st0" d="M994.22,236.01c-2.81,2.48-5.54,1.95-8.15,1.98c-2.47,0.03-4.93,0.01-7.3,0.01c-0.62,2.15,2.01,1.66,2.03,3.2
		c0.06,0.35-0.12,0.62-0.55,0.61c-1.51-0.03-3.18,1.05-4.3-1.11c-1.09-2.09-1.28-4.37-1.89-6.55c-2.16-7.79-4.13-15.63-6.25-23.76
		c5.57,2.85,10.64,5.43,15.83,8.08c0.09,0.37,0.35,0.86,0.29,1.3c-0.63,4.53,0,6.63,4.13,7.65c3.36,0.83,3.85,3.14,4.77,5.45
		C993.24,233.88,993.17,235.11,994.22,236.01z"/>
	<path class="st0" d="M1055.81,627.84c-3.39,9.1-4.9,18.52-6.06,28.42c-2.89-3.12-3.33-7.57-6.99-10.09
		C1047.51,640.17,1051.35,633.85,1055.81,627.84z"/>
	<path class="st0" d="M1858.96,658.91c0-4.91,0.01-9.83-0.01-14.74c0-1.03,0.22-1.89,1-2.67c3.08-3.1,6.11-6.25,9.64-9.05
		C1864.98,640.91,1861.51,649.66,1858.96,658.91z"/>
	<path class="st0" d="M1617.99,62.24c-7.41,5.16-14.96,10.14-21.6,16.33C1600.5,68.99,1609.62,66.11,1617.99,62.24z"/>
	<path class="st0" d="M1072.27,151.45c-1.32-5.3-3.71-10.09-5.49-15.1C1072.63,139.87,1073.31,145.4,1072.27,151.45z"/>
</g>
</svg>
