<?xml version="1.0" encoding="utf-8"?>
<!-- Generator: Adobe Illustrator 24.1.2, SVG Export Plug-In . SVG Version: 6.00 Build 0)  -->
<svg version="1.1" id="Layer_1" xmlns="http://www.w3.org/2000/svg" xmlns:xlink="http://www.w3.org/1999/xlink" x="0px" y="0px"
	 viewBox="0 0 1506.12 1672.17" style="enable-background:new 0 0 1506.12 1672.17;" xml:space="preserve">
<style type="text/css">
	.st0{fill:#1A1A1A;}
</style>
<g>
	<path d="M576.09,958.99c-2.97-1.78-5.47-3.47-9.31-3.85c8.23,73.64-1.38,145.09-26.33,214.51c-5.56,15.48-11.33,31.04-20.42,45.06
		c-2.56-1.27-1.92-3.16-1.74-4.53c2.34-17.73-0.67-35-4.56-52.16c-1.76-7.77-4.23-15.38-6.32-23.08
		c-3.82-14.07-12.21-25.79-19.53-38.05c-15.34-25.71-31.92-50.7-45.3-77.56c-13.31-26.72-22.07-54.84-25.65-84.49
		c-1.64-13.59-0.55-27.29-0.75-40.94c-0.28-19.03,2.01-37.79,5.96-56.37c3.21-15.09,7.73-29.52,17.84-41.73
		c1.74-2.1,4.42-4.25,4.3-7.63c-0.01-0.29-0.29-0.58-0.69-1.32c-7.08,7.11-12.31,15.46-17.95,23.43
		c-19.5,27.59-35.44,57.09-46.28,89.15c-7.24,21.42-12.4,43.33-15.4,65.82c-1.5,11.29-1.38,22.55-1.9,33.83
		c-0.64,13.92-0.28,27.81,0.84,41.64c2.67,33.06,10.46,64.9,24.48,95.07c2.48,5.33,5.59,10.36,8.59,15.86
		c-3.09,0.8-5.26-1.01-7.22-2.48c-33.93-25.42-62.79-55.31-83.25-92.9c-16.6-30.49-26.2-63.07-31.05-97.26
		c-3.09-21.79-4.64-43.71-3.43-65.63c1.48-26.86,5.09-53.49,11.87-79.64c7.82-30.15,19.4-58.71,34.74-85.77
		c10.05-17.71,22.09-34.03,35.45-49.35c15.57-17.85,33.12-33.64,50.92-49.21c20.03-17.52,39.64-35.51,59.5-53.22
		c16.63-14.82,33.35-29.54,50.05-44.29c1.74-1.54,3.6-2.93,5.26-4.27c-1.4-8.05-5.07-14.64-5.23-22.02
		c-0.04-1.97-0.49-3.95-0.83-5.91c-2.73-15.9,3.08-28.78,14.66-39.16c5.22-4.68,10.22-9.55,15.16-14.48
		c13.2-13.18,27.06-25.63,40.94-38.07c8.17-7.33,15.95-15.1,23.87-22.71c2.88-2.77,5.28-6.26,8.58-8.34
		c7.27-4.6,9.22-11.43,10.24-19.29c3.72-28.86,3-57.79,1.83-86.73c-0.21-5.26-1.47-10.47-2.27-15.9c-7.16-1.91-14.23-3.64-20.66-7.2
		c-8.04-4.44-14.48-10.46-19.43-18.22c-3.68-5.77-2.26-11.52-0.08-17.03c1.5-3.8,4.92-6.18,9.09-7.11
		c10.75-2.4,18.99-9.34,27.73-15.37c2.64-1.82,3.89-4.34,3.78-7.67c-0.16-4.66,0.13-9.34-0.06-13.99
		c-0.5-12.44,2.28-24.43,4.81-36.46c1.35-6.39,6.11-10.98,9.05-17.02c-3.94-6.51-10.91-7.61-17.47-9.73
		c-7.17-2.32-13.66,1.09-20.53,1.91c2.43-17.44,24.53-30.14,49.24-28.62c-1.31-27.03,15.59-53.85,39.95-62.27
		c-2.47,6.77-6.88,12.29-7.01,19.2c-0.13,6.67,0.65,13.07,5.34,19.51c17.38-29.29,42.26-46.68,74.81-52.63
		c10.17-1.86,20.6-4.53,33.05,0.82c-16.43,3.1-30.26,6.82-40.77,17.95c1.41,1.05,2.32,0.56,3.23,0.2
		c29.58-11.61,60.1-13.75,91.21-8.54c11.88,1.99,23.75,2.03,35.67,1.52c7.77-0.34,14.61-4.04,21.8-6.57
		c-0.79,5.98-2.35,9.44-6.83,14.26c-5.23,5.63-10.74,10.94-17.81,14.31c-1.76,0.84-3.67,1.62-4.73,4.49c3.2,1.77,6.52,3.69,9.9,5.47
		c13.9,7.32,26.49,16.43,38.32,26.79c33.53,29.37,51.67,66.84,58.73,110.2c0.85,5.21,0.2,10.66,0.73,15.94
		c2.38,23.67-4.8,45.22-14.89,65.96c-18.5,38.04-44.62,69.94-78.31,95.6c-2.9,2.21-5.7,4.57-8.48,6.93c-0.44,0.37-0.54,1.15-0.91,2
		c11.85,3.73,24.11,5.66,36.3,6.21c17.27,0.78,34.62,2.82,51.87,1.25c17.9-1.63,35.9-0.01,53.78-2.68
		c6.43-0.96,13.23,0.48,19.86,0.91c16.25,1.05,32.44,2.74,48.59,4.86c33.05,4.33,65.55,11.31,97.54,20.53
		c19.18,5.53,37.76,12.62,55.5,22.04c11.43,6.07,23.36,11.24,34.66,17.6c22.47,12.64,42.14,28.96,61.37,45.97
		c20.54,18.18,38.91,38.43,54.89,60.51c12.65,17.49,27.33,33.41,38.71,51.87c18.21,29.56,29.96,61.35,34.83,95.71
		c0.14,0.97,0.47,1.91,0.66,2.68c2.12,2.32,4.97,2.2,7.45,3.01c18.46,6.01,27.36,23.81,25.7,36.35
		c-2.24,16.85-7.46,32.68-22.15,43.02c-10.45,7.35-22.17,10.11-35.37,5.5c-2.25,0.43-3.88,2.52-5.46,4.7
		c-12.66,17.44-28.55,31.51-46.11,43.74c-14.09,9.8-29.91,16-46.42,20.22c-8.47,2.16-16.48,5.26-24.32,8.89
		c-25.84,11.96-52.91,19.88-81.05,23.61c-25.48,3.38-51.1,2.7-76.66-0.09c-33.22-3.62-65.73-10.15-96.42-23.82
		c-45-20.04-86.11-46.17-122.69-79.27c-18.53-16.77-36.1-34.47-52.43-53.4c-1.44-1.67-2.24-4.24-4.89-4.41
		c-0.46,21.18,1.09,42.29-0.4,63.53c-2.07,29.41-8.55,57.61-18.6,85.13c-1.28,3.5-2.12,6.87-2.22,10.61
		c-0.59,20.26-2.78,40.36-5.51,60.46c-2.91,21.4-6.29,42.68-10.5,63.85c-3.76,18.92-9.27,37.41-13.69,56.16
		c-7.94,33.64-18.99,66.41-27.53,99.87c-2.22,8.72-3.56,17.57-5.21,26.37c-2.45,13.1-5.72,26.01-10.77,38.29
		c-2.53,6.15-5.12,12.21-6.89,18.64c-6.86,25-12.57,50.27-17.72,75.65c-5.01,24.71-9.51,49.53-14.09,74.33
		c-4.33,23.49-8,47.12-12.87,70.5c-3.11,14.94-5.65,29.97-8.23,44.99c-2.75,16.01-6.24,32-5.55,48.4
		c0.54,12.86,3.15,24.94,12.44,34.85c4.67,4.98,9.77,8.89,16.14,11.29c23.03,8.67,46.27,16.76,69.79,23.98
		c9.15,2.81,15.65,8.61,19.77,17.03c2.68,5.48,1.74,9.18-2.48,13.51c-2.41,2.47-5.38,4.03-8.63,4.8c-7.44,1.77-14.9,3.49-22.6,3.71
		c-14.32,0.41-28.57-0.9-42.84-1.73c-23.6-1.38-47.24-1.86-70.87-1.31c-8.28,0.19-16.62,0.89-24.8,2.23
		c-9.28,1.52-18.57,1.23-27.85,1.77c-20.8,1.21-31.04-14.45-31.94-30.57c-0.65-11.62,0.44-22.95,5.68-33.95
		c6.13-12.88,10.52-26.54,12.38-40.85c0.38-2.95,1.06-5.93,2.07-8.73c2.43-6.75,2.39-13.64,2.17-20.68
		c-0.48-15.29-2.52-30.42-4.31-45.57c-2.54-21.41-5.27-42.83-9.79-63.92c-3.69-17.22-8.14-34.29-12.61-51.33
		c-5.84-22.24-8.92-44.91-11.8-67.66c-1.13-8.93-1.79-17.84-1.34-26.79c1.34-26.77,6.33-52.7,18.19-77.03
		c3.2-6.57,5.58-13.54,8.83-20.09c4.68-9.43,3.98-18.78,0.02-27.98c-4.47-10.39-9.37-20.59-14.27-30.79
		c-14.19-29.52-24.16-60.4-31-92.41c-4.26-19.93-4.7-40.18-6.19-60.34C575.97,968.83,577.56,964.17,576.09,958.99z"/>
	<path class="st0" d="M879.8,622.71c-1.62,28.18,5.46,54.16,7.04,80.21c-3.4,1.83-4.23-0.67-5.45-1.91
		c-7.06-7.21-11.2-16.48-17.17-24.49c-12.55-16.83-24.02-34.42-34.45-52.64c-7.44-13-13.34-26.8-19.46-40.46
		c-3.69-8.24-7.48-16.42-15.45-21.61c-1.64-1.06-3.17-2.6-5.49-1.18c0,0.53-0.24,1.42,0.04,1.64c8.18,6.44,12.93,15.32,16.39,24.69
		c9.07,24.57,22.3,46.83,36.54,68.59c12.59,19.23,25.39,38.32,39.76,56.27c3.57,4.46,4.82,9.35,5.13,14.74
		c1.15,19.97,1.57,39.99,0.7,59.94c-1.03,23.69-5.73,46.87-12.97,69.49c-0.37,1.16-0.26,2.7-2.12,3.45
		c-0.18-17.54,0.11-34.95-1.15-52.4c-2.85,4.1-3.43,8.53-3.58,13.13c-0.83,25.28-1.57,50.57-2.67,75.84
		c-1.04,23.97-4.4,47.69-8.41,71.32c-5.35,31.52-11.78,62.82-19.19,93.9c-2.93,12.29-6.7,24.39-10.32,36.5
		c-5.52,18.49-11.22,36.93-16.9,55.37c-2.26,7.34-3.18,14.94-4.66,22.43c-2.25,11.41-4.62,22.81-7.27,34.14
		c-3.43,14.68-9.72,28.29-16.22,41.82c-1.56,3.26-4.47,6.23-1.3,10.74c1.17,1.66-0.89,5.66-1.61,8.56
		c-6.84,27.79-12.06,55.92-17.68,83.98c-6.53,32.63-11.29,65.57-17.65,98.22c-4.27,21.89-8.72,43.74-12.97,65.64
		c-3.05,15.74-4.43,31.66-3.78,47.69c0.4,9.9,3.75,18.86,9.92,26.69c2.06,2.62,4.17,5.2,6.21,7.83c3.56,4.59,7.98,7.89,13.55,9.77
		c21.11,7.13,41.6,16,63.05,22.18c5.75,1.66,11.36,3.88,16.29,7.43c1.87,1.34,3.8,2.77,5.21,4.55c7.63,9.55,4.72,18.15-7.21,20.37
		c-7.16,1.33-14.51,1.93-21.8,2.29c-15.63,0.77-31.21-0.96-46.81-1.59c-0.33-0.01-0.66-0.09-0.99-0.09
		c-17.96-0.17-35.92-0.38-53.86-1.62c-11.35-0.78-22.62,1-33.81,2.34c-10.3,1.23-20.56,1.71-30.87,1.57
		c-10.62-0.14-16.37-4.46-19.92-14.73c-4.18-12.07-3.6-24.33-0.49-36.43c1.48-5.76,3.88-11.36,6.44-16.75
		c2.82-5.91,6.44-10.99,5.16-18.56c-0.81-4.78,1.79-10.42,3.7-15.34c4.37-11.24,4.47-22.88,3.38-34.48
		c-1.64-17.54-2.64-35.14-5.05-52.63c-3.37-24.43-8.25-48.54-13.41-72.63c-5.3-24.73-12.07-49.13-16.3-74.1
		c-2.62-15.45-4.16-31.04-4.14-46.67c0.04-25.2,4.35-49.65,15.05-72.73c3.92-8.46,7.35-17.14,11.45-25.51
		c5.05-10.33,4.74-20.54,0.32-30.83c-8.02-18.65-16.47-37.13-24.09-55.94c-11.8-29.08-20.96-58.88-23.86-90.41
		c-1.19-12.97-1.86-25.89-1.76-38.88c0.02-2.3,0.19-4.59,0.27-6.43c2.79-2.95,6.31,0.9,9.03-2.57c-5.85-3.25-11.77-6.21-17.35-9.71
		c-12.65-7.93-26.26-14.65-36.51-25.86c-20.59-22.5-33.49-48.32-35.63-79.4c-3.24-47.11,12.97-86.61,44.37-120.88
		c18.01-19.67,39.53-34.5,62.7-47.21c0.53-0.29,1.26-0.19,2.9-0.41c2.91,4.63,6.1,9.61,9.17,14.65c1.3,2.13,0.82,4.49,0.54,6.83
		c-0.96,8.03-3.64,15.53-7.16,22.74c-8.22,16.82-17.69,32.98-30.58,46.59c-11.75,12.42-15.07,26.23-10.31,42.22
		c1.35,4.55,1.94,9.04,1.93,13.73c-0.03,7.37,2.66,13.5,8.25,18.47c5.24,4.66,10.54,9.21,16.8,12.44
		c4.56,2.35,8.02,5.57,10.68,10.08c3.02,5.13,6,10.42,10.6,14.43c4.22,3.68,7.13,2.97,8.81-2.28c1.33-4.17,1.86-8.41,0.97-12.8
		c-1.25-6.19-2.16-12.45-3.49-18.63c-2.19-10.14-1.58-19.74,3.78-28.96c3.64-6.26,6.6-12.92,10.56-19.13
		c0.45,6.09-1.19,11.8-3.7,16.9c-4.67,9.49-3.7,18.93-0.52,28.14c3.57,10.36,8.3,20.32,12.45,30.48c1.48,3.61,3.44,6.89,7.82,6.34
		c4.18-0.53,5.87-4.14,6.86-7.77c0.69-2.54,0.97-5.24,1.12-7.89c0.62-10.96,1.59-21.89,1.74-32.9c0.23-16.81,6.83-31.67,16.01-45.46
		c1.51-2.27,3.61-3.9,6.52-4.25c3.42,1.18,4.03,4.31,4.41,7.2c1.15,8.55,5.86,15.48,10.2,22.49c4.12,6.66,10.1,11.49,17.57,14.15
		c5.45,1.94,8.38,0.21,8.95-5.54c0.39-3.96,0.37-8.02,0.02-11.98c-1.05-11.6-2.46-23.16-3.54-34.76
		c-1.14-12.2-4.59-23.36-12.55-33.04c-8.49-10.32-15.8-21.67-21.17-33.79c-6.2-13.98-13.31-27.52-19.31-41.59
		c-1.81-4.24,1.37-7.79-1.16-11.52c4.17-2.24,7.64-4.09,10.92-5.86c0.72-6.53,0.66-6.6,4.63-10.45c8.69-8.44,18.56-15.13,29.85-19.6
		c1.86-0.74,3.85-1.11,5.35-3.08c1.21-2.51-3.07-4.37-0.73-7.94c10.11-15.46,11.65-32.93,10.26-50.51c1.05-1.76,3.67-0.7,3.96-3.63
		c-2.07-4.71-5.69-9.09-9.1-13.52c-15.28-19.86-28.88-40.71-38.3-64.06c-5.63-13.96-8.48-28.67-11.48-43.33
		c-1.14-5.56,0.54-9.63,5.35-12.79c3.32-2.18,6.51-4.73,9.25-7.6c6.53-6.86,14.43-9.2,23.54-7.83c5.44,0.82,9.86-0.78,13.45-4.79
		c0.81-0.9,1.16-2.2,1.98-3.81c-8.65,5.12-8.65,5.12-19.13,3.38c2.63-5.12,9.22-3.85,12.09-7.98c-0.57-2.21-2.37-2.31-3.92-1.73
		c-3.41,1.27-6.93,2.53-10,4.44c-7.52,4.66-15.29,7.96-24.58,6.04c-0.05,3.64,3.88,2.48,4.47,4.73c-3.54,5.77-6.3,8.28-12.42,11.31
		c-0.42-0.43-1.18-0.85-1.19-1.3c-0.69-21.32-1.11-42.62,3.6-63.64c1.6-7.15,3.4-14.21,5.72-21.18
		c6.25-18.76,25.46-24.91,43.07-17.45c0.92,0.39,1.76,1.01,2.71,1.28c8.47,2.4,13.46,7.85,15.32,16.5c0.6,2.8,2.25,5.38,4.08,7.81
		c0.68-10.45-3.98-19.31-9.27-29.09c16.81,1.21,31.96,3.55,45.65,12.04c10.57,6.56,19.71,14.83,28.08,23.83
		c8.38,9.01,18.26,15.57,29.55,19.78c15.57,5.8,31.52,10.57,47.75,14.22c13.34,3,26.89,4.19,40.6,4.03
		c27.31-0.32,54.63-0.12,81.93-0.61c21.68-0.4,43.31,1.12,64.8,2.96c31.11,2.66,61.71,8.96,91.89,17.55
		c17.61,5.02,34.96,10.4,51.8,17.55c31.07,13.2,60.5,29.24,87.53,49.59c15.99,12.04,31.48,24.68,45.16,39.29
		c14.78,15.79,28.88,32.22,40.69,50.44c4.9,7.56,10.37,14.65,16.31,21.42c21.74,24.79,35.85,53.69,43.76,85.39
		c8.45,33.86,7.69,67.39-8.99,99.14c-17.95,34.17-44.03,59.83-79.74,75.25c-9.51,4.11-19.44,6.84-29.57,8.7
		c-3.34,0.61-6.4,1.38-9.37,3c-27.5,15.04-57.01,23.6-88,27.72c-14.21,1.89-28.51,3.24-42.72,3.2c-31.06-0.1-61.62-4.59-91.31-14.21
		c-35.33-11.45-68.97-26.51-99.72-47.49c-25.6-17.47-49.77-36.74-72.61-57.78c-15.01-13.82-28.24-29.13-41.51-44.5
		c-3.23-3.74-4.75-7.77-5.32-12.57c-2.33-19.81-4.93-39.6-7.27-59.41c-0.62-5.28-0.63-10.62-1-15.93
		C882.58,628.9,883.44,626.1,879.8,622.71z M791.92,646.67c5,3.38,6.25,10.71,12.98,12.3c-3.82-4.64-5.47-11.2-12.03-13.33
		c-16.32-10.05-33.44-14.96-54.71-8.16c3.57,0.34,4.88,0.66,6.15,0.55c15.96-1.35,31.06,2.01,45.66,8.18
		C790.58,646.46,791.27,646.52,791.92,646.67z M841.77,376.76c-0.92,1.36,0.03,2.53,0.56,3.58c4.82,9.49,9.91,18.84,14.56,28.41
		c9.94,20.46,17.05,41.79,19.76,64.52c1.11,9.29,1.49,18.56,1.55,27.88c0.01,1.62-0.85,4.01,1.94,4.58
		c1.65-1.78,1.29-3.85,1.38-5.79c0.86-17.44-1.61-34.48-5.91-51.35c-6.41-25.1-18.69-47.58-30.82-70.14
		C844.16,377.3,843.43,376.18,841.77,376.76z M878.68,612.15c3.12-1.03,2.76-2.92,2.58-4.37c-2.49-20.6,1.04-41.15,0.5-61.73
		c-0.02-0.66,0.05-1.34,0.19-1.98c1.48-6.91,0.68-13.91,0.73-20.87c0.01-1.4,0.25-3.5-2.96-3.09
		C878.86,550.65,877.72,581.21,878.68,612.15z M738.54,386.46c5.6-3.81,6.96-9.78,7.67-15.56c0.69-5.61,3.24-11.7-1.31-18.61
		c-0.71,7.07-0.91,12.71-1.95,18.18C741.93,375.89,740.05,381.14,738.54,386.46z"/>
	<path class="st0" d="M608.33,672.25c-0.76,0.82-1.12,1.47-1.66,1.75c-21.93,11.03-41.06,25.95-58.61,42.89
		c-18.15,17.53-32.44,37.77-41.53,61.56c-8.34,21.82-11.99,44.33-10.24,67.54c2.08,27.5,10.57,52.73,28.45,74.29
		c9.19,11.08,19.09,21.43,31.72,28.59c5.54,3.14,8.08,7.22,8.13,13.59c0.04,5.97,1.48,11.93,1.43,17.89
		c-0.2,22.29,0.78,44.56-1.51,66.88c-2.86,27.91-8.25,55.27-15.16,82.37c-5.76,22.6-13.55,44.55-23.14,65.84
		c-0.67,1.48-0.94,3.26-3.17,3.44c-2.14-2.54-1.23-5.65-1.45-8.51c-2.52-31.97-10.51-62.44-26.99-90.05
		c-7.12-11.93-15.64-23.09-22.67-35.16c-11.39-19.56-22.8-39.09-32.11-59.79c-13.15-29.25-20.17-59.82-20.93-91.83
		c-0.59-25.03,0.89-49.91,5.88-74.51c3.07-15.12,7.08-29.78,17.37-41.94c1.89-2.23,3.68-5.09,4.14-7.89
		c1.17-7.06,5.57-11.9,10.03-16.83c6.46-7.17,12.94-14.32,19.37-21.52c0.83-0.93,1.42-2.07,2.73-4.02c-4.3,0.08-6.11,2.54-8.02,4.54
		c-17.51,18.29-34.21,37.26-48.74,58.06c-17.61,25.22-32.32,51.98-42.95,80.89c-9.34,25.4-15.46,51.55-18.9,78.42
		c-2.56,19.95-2.44,39.99-1.27,59.85c1.87,31.97,7.36,63.48,19.66,93.38c2.9,7.05,6.36,13.88,9.61,20.89
		c-3.05,1.83-4.44-0.88-5.99-2.14c-37.8-30.8-67.99-67.47-85.66-113.39c-10.68-27.77-16.65-56.66-19.5-86.34
		c-2.28-23.67-2.02-47.27,0.48-70.74c7.37-69.15,31.3-131.78,75.78-185.87c9.94-12.09,21.29-22.87,32.68-33.64
		c26.37-24.94,54.06-48.37,81.01-72.64c9.89-8.91,19.83-17.76,29.82-26.55c2.23-1.96,4.58-4.36,7.27-5.08
		c3.67-0.98,5.48-3.53,7.59-6.03c1.5-1.78,2.77-3.79,4.43-5.4c2.28-2.21,4.88-1.8,6.67,0.89c0.92,1.38,1.63,2.9,2.36,4.4
		c10.86,22.22,24.88,42.49,38.78,62.83c13.52,19.79,27.55,39.23,40.06,59.7C605.48,665.95,607.5,668.96,608.33,672.25z"/>
	<path class="st0" d="M871.24,338.77c8.54-25.36,14.32-51.23,13.5-78.18c-0.65-21.29-2.49-42.5-6.32-63.48
		c-1.26-6.91-4.35-13.26-6.78-19.81c-4.65-12.5-10.06-24.64-16.95-36.09c-3.6-5.98-7.12-11.97-9.8-18.48
		c-4.79-11.67-13.86-20.24-22.78-28.58c-13.57-12.68-29.14-22.57-47.9-25.13c-35.64-4.86-69.33,0.66-98.17,23.51
		c-20.19,15.99-32.95,37.22-37.89,62.76c-1.07,5.54-2.1,11.09-2.18,16.81c-0.05,3.91-0.85,7.97-6.33,10.06
		c0-6.06-0.08-11.52,0.02-16.97c0.21-11.73,2.2-23.18,5.94-34.28c2.37-7.04,6.8-12.93,11.71-18.41c2.62-2.93,5.5-5.65,7-10.71
		c-5.61,1.44-7.44,6.59-12.28,8.47c-9.58-7.17-20.86-10.12-34.27-8.63c5.52-9.31,13.5-13.03,21.77-16.41
		c8.35-3.41,16.77-3.07,26.23,0.34c-3.03-25.69,6.28-45.19,25.67-60.75c1.3,2.83,0.5,4.81-0.04,6.61
		c-2.69,8.98-1.03,17.45,4.35,24.61c2.38,3.18-0.01,6.33,1.78,9.22c3.47-2.82,4.96-6.53,6.92-9.96
		c12.59-21.98,30.45-37.55,55.09-44.68c5.89-1.7,11.71-3.97,18.23-3.95c-0.62,3.02-2.79,3.58-4.32,4.75
		c-2.11,1.62-4.9,2.65-6.44,4.67c-6.88,9-16.93,13.73-25.86,20.01c-4.3,3.02-8.2,6.6-12.36,10c2.39,2.29,3.71,0.85,4.87-0.11
		c21.71-18.01,47.44-26.81,74.72-30.81c17.11-2.51,34.53-1.5,51.66,2.01c12.86,2.64,25.79,2.28,38.68,0.24
		c2.96-0.47,5.86-1.04,8.9-0.84c1.44,2.57-0.95,3.59-2.14,4.69c-6.67,6.16-14.06,11.1-23.05,13.4c-3.35,0.86-6.36,0.95-9.73-0.06
		c-6.62-1.99-13.34-3.87-20.54-2.71c0.14,3.29,2.58,3.89,4.73,4.23c33.76,5.32,60.53,23.65,84.02,46.87
		c24.19,23.91,39.73,53.02,47.16,86.45c9.43,42.42,0.72,81.22-22.59,117.17c-11.61,17.91-24.92,34.54-40.06,49.64
		c-9.65,9.63-18.8,19.74-29.72,28.08c-3.9,2.98-7.33,4.06-11.87,2.68c-8.23-2.5-16.89-3.66-24.34-7.68c-1.52-2.9,0.26-4.8,1.26-6.79
		c14.92-29.82,23.26-61.5,26.82-94.55c0.11-0.99,0.09-2,0.24-2.99c0.46-2.93,0.98-5.85,1.8-8.75c0.64,22.76,1.97,45.52-4.54,67.85
		c-2.23,7.64-3.6,15.53-5.37,23.31c-2.19,2.84-3.72,5.85-2.73,9.95C870.07,344.96,870.71,341.89,871.24,338.77z"/>
	<path class="st0" d="M728.52,305.9c-10.24-2.22-18.27-2.24-26.29,1.26c-7.43,3.24-12.64,8.46-16.12,15.52
		c-3.39,6.87-5.96,14.11-7.44,21.63c-4.77,24.21-7.84,48.58-5.77,73.33c0.36,4.33-0.85,7.4-4.07,10.52
		c-14.81,14.38-29.42,28.98-43.89,43.7c-8.85,8.99-17.32,18.34-26.06,27.64c-6.46-0.3-11.62-5.16-18.24-4.73
		c-0.91,2.23,0.95,2.85,2.26,3.31c16.56,5.84,26.23,18.51,33.93,33.42c8.73,16.91,15.43,34.63,21.42,52.61
		c6.42,19.26,13.49,38.25,21.86,56.75c1.36,3.01,2.95,5.95,3.27,10.25c-15.77,6.14-32.35,10.89-47.03,18.43
		c-2.66-0.25-3.84-1.46-4.66-2.91c-15.88-28.19-36.03-53.54-53.69-80.54c-11.13-17.02-21.94-34.15-30.51-52.62
		c-6.65-14.32-11.49-29-10.71-45.15c0.34-7.06,2.57-13.04,7.56-17.87c19.11-18.51,38.23-37.01,57.52-55.33
		c11.81-11.22,23.93-22.12,35.93-33.15c14.41-13.26,27.64-27.68,41.07-41.9c7.54-7.98,14.95-16.1,22.75-23.82
		c11.35-11.24,25.05-15.97,41-13.61c0.98,0.14,1.98,0.34,2.89,0.71C726.04,303.56,726.47,304.14,728.52,305.9z"/>
	<path class="st0" d="M847.15,210.88c-4.08,0.96-7.03,1.05-10.25,0.13c-2.39-5.76-3.6-11.79-3.4-18.22
		c0.63-20.21-3.81-39.63-9.89-58.7c-2.64-8.29-7.07-15.78-12.76-22.43c-7.77-9.09-17.95-10.26-27.42-3.06
		c-7.88,6-13.04,13.77-15.95,23.41c-4.97,16.51-4.08,32.81,0.21,49.19c-0.06,0.33,0,0.75-0.19,0.97c-1.47,1.76-2.98,3.48-4.84,5.62
		c-3.73-0.21-7.71-0.2-11.63-0.73c-3.85-0.52-7.62-1.6-11.32,0.83c1.46,3.56,4.56,3.22,6.84,3.95c4.73,1.53,9.6,2.65,14.47,3.67
		c6.08,1.27,10.29,4.32,11.61,10.7c0.39,1.9,1.1,3.73,1.89,6.31c-4.57-0.4-8.45-0.81-12.35-1.06
		c-24.81-1.57-41.47,20.97-39.61,40.21c1.48,15.26,8.87,27.65,21.15,37.03c5.32,4.06,10.89,7.61,17.18,9.99
		c1.82,0.69,3.55,1.63,5.23,2.41c-0.53,2.6-2.33,3.15-3.88,2.8c-7.49-1.68-15.23-1.38-22.7-2.79c-9.77-1.84-19.54-3.95-29.02-6.88
		c-14.29-4.42-25.95-13.37-36.56-23.63c-3.82-3.69-7.2-7.83-10.64-11.89c-1.02-1.2-1.55-2.82-2.68-4.96
		c14.68-6.69,29.56-12.47,40.36-27.36c-6.1,0.91-7.84,4.96-10.87,7.03c-3.57,2.44-7.06,5.01-10.78,7.2
		c-3.38,1.99-6.82,4.04-11.43,4.99c-1.4-5.52-1.78-11.16-6.05-15.52c8.71-5.57,17.83-9.16,24.05-16.77
		c-2.05-2.31-3.16-0.85-4.45,0.11c-12.7,9.44-26.38,16.7-42.32,18.92c-1.25,0.18-2.7,0.28-3.14,2.36c2.49,2.32,5.18,1.16,7.98,0.37
		c2.49-0.7,5.11-0.92,7.81-1.38c-1.72,13.81-12.7,20.1-25.09,16.92c-11.73-3.01-15.69-3.89-22.85-8.86
		c0.37-1.82,2.26-2.15,3.29-3.33c5.1-5.86,5.01-13.24-0.38-18.76c-1.15-1.18-2.69-1.96-3.93-3.05c-3.56-3.16-3.67-6.12-0.32-9.17
		c0.97-0.89,2.12-1.6,3.25-2.29c3.97-2.43,8.16-4.57,11.91-7.29c4.45-3.23,8.95-3.92,14.09-2.09c2.81,1,5.75,1.75,8.7,2.19
		c5.07,0.76,10,0.14,14.32-2.92c6.01-4.25,5.86-12.9-0.44-16.72c-2.52-1.53-5.46-2.37-8.71-3.74c3.63-8.44,8.97-15.36,16.69-20.33
		c5.28-3.4,8.61-2.21,10.71,3.58c0.11,0.31,0.21,0.63,0.27,0.96c0.7,4.12,1.96,8.39,6.67,8.82c4.56,0.42,8.12-2.7,10.86-6.16
		c4.24-5.34,5.09-11.67,3.31-17.98c-0.95-3.38-0.29-6.26,0.64-9.45c-14.75,2.91-37.2,13.88-54.15,36.4
		c0.06-10.24,2.53-19.18,5.52-27.74c2.72-7.78,6.31-15.33,10.67-22.5c10.42-17.12,25.12-29.12,43.26-37.07
		c20.83-9.12,42.73-12.74,65.3-10.51c21.48,2.11,40.34,10.46,55.19,26.06c0.6,2.93-1.07,4.84-1.56,7.03
		c0.45,0.53,0.79,1.36,1.31,1.5c6.14,1.59,10.18,5.82,14.09,10.47c13.81,16.43,19.03,35.51,17.65,56.62
		c-0.58,8.96-1.27,17.91-2.25,26.83C849.46,204.32,848.12,207.44,847.15,210.88z"/>
	<path class="st0" d="M618.24,675.15c14.99-7.73,30.18-13.33,45.92-17.89c3.12,1.72,4.45,4.71,5.96,7.64
		c5.04,9.74,9.08,19.99,14.93,29.33c1.4,2.23,2.54,4.76,3.17,7.31c4.08,16.59,14.13,30.02,24.36,42.86
		c6.67,8.37,9.91,17.17,11.04,27.14c1.75,15.51,3,31.08,4.39,46.63c0.11,1.25-0.31,2.55-0.55,4.3c-7.62-1.73-12.83-6.07-16.66-12.09
		c-3.58-5.61-6.62-11.53-8.41-18.02c-1.06-3.86-2.36-7.65-4.9-10.85c-3.74-4.71-8.4-5.23-12.92-1.2c-3.25,2.89-5.64,6.51-7.72,10.35
		c-8.58,15.82-13.51,32.59-12.63,50.7c0.47,9.74-2.32,19.11-2.57,28.75c-0.05,1.88-0.71,3.94-2.82,4.99
		c-1.94,0.07-3.1-1.32-3.66-2.8c-4.3-11.52-8.63-23.03-12.6-34.66c-2.21-6.46-2.07-12.69,1.28-19.27c2.8-5.51,3.78-12.01,5.18-18.15
		c0.79-3.49,1.14-7.21-0.76-10.13c-2.74-1.62-4.54-0.49-5.84,0.99c-1.96,2.24-3.87,4.63-5.25,7.25
		c-4.03,7.66-7.95,15.39-11.61,23.23c-3,6.45-4.24,13.15-2.63,20.38c1.66,7.45,2.78,15.03,3.9,22.59c0.61,4.13,1.31,8.39-0.8,12.51
		c-3.71-0.99-4.99-3.8-6.52-6.29c-4.7-7.65-9.33-15.35-13.98-23.03c-4.53-7.49-5.88-15.36-3.41-23.92
		c2.31-8.01,4.51-16.01,9.21-23.07c1.19-1.79,1.74-4.01,3.03-7.11c-7.16,5.49-12.97,15.29-16.29,26.46
		c-3,10.09-2.83,12.07,2.42,29.9c-22.05-7.48-22.48-30.88-14.88-44.73c2.54-4.62,5.15-9.31,8.87-13.25
		c2.28-2.42,3.77-5.39,4.72-9.77c-5.68,2.07-7.41,6.88-10.25,10.48c-3.03,3.84-5.92,7.8-8.71,11.48c-3.11-1.24-3.22-3.33-3.3-5.28
		c-0.3-7.23,1.49-13.87,6.12-19.56c2.94-3.61,5.97-7.14,8.99-10.68c15.29-17.93,26.68-38.07,34.31-60.35
		c0.3-0.87,0.89-1.64,1.27-2.31c1.97-0.25,2.25,1.31,3.14,2.18c0.65,0.63,1.91,1.46,2.43,1.21c1.03-0.5,0.43-1.74,0.22-2.7
		c-0.81-3.64-2.71-6.78-4.52-9.96C625.16,690.1,621.12,683.61,618.24,675.15z"/>
	<path class="st0" d="M670.06,648.97c-2.49-2.25-3.33-5.94-4.84-9.15c-7.23-15.34-12.69-31.38-18.57-47.26
		c-6.34-17.13-11.57-34.68-19.21-51.32c-5.97-13.02-12.61-25.61-23.05-35.75c-0.44-0.43-0.56-1.18-1.01-2.2
		c21.07-25.41,46.07-47.25,69.27-71.43c2.44,2.14,2.55,4.8,2.96,7.31c5.76,35.26,19.97,66.9,42.61,94.33
		c11.01,13.34,12.92,27.89,11.09,43.84c-0.8,6.94-2.59,13.71-4.96,20.31c-3.38,9.42-9.29,17.17-17.74,22.16
		c-12.21,7.2-22.89,15.91-31.82,26.86C673.77,647.9,672.59,649.19,670.06,648.97z"/>
	<path class="st0" d="M800.19,295.99c-5.96,5.63-12.61,4.09-18.59,3.2c-9.16-1.35-18.08-4.17-26.33-8.65
		c-21.59-11.75-28.33-28.39-26.31-49.28c1.07-11.08,14.67-25.35,26.17-24.97c6.39,0.21,12.53,1.07,18.68,2.43
		c5.48,1.21,10.95,2.53,16.39,3.92c11.69,2.98,23.01,1.4,34.2-2.51c7.61-2.66,15.44-3.23,23.39-1.85
		c7.01,1.21,10.54,4.77,11.27,11.82c0.48,4.63,0.31,9.24-1.12,13.81c-3.93,12.58-10.27,23.72-19.42,33.22
		c-4.58,4.76-9.18,9.22-11.77,15.77c-3.02,7.63-14.48,11.78-22.02,6.35C803.43,298.29,802.09,297.34,800.19,295.99z M805.5,267.71
		c3.08,11.02,8.76,14.88,19.17,12.51C816.38,278,811.35,273.27,805.5,267.71z M849.45,224.54c-0.45,3.11,1.61,4.17,3.59,5.07
		c0.9,0.41,1.76-0.27,1.94-1.52C854.02,225.68,852.72,223.73,849.45,224.54z"/>
	<path class="st0" d="M852.61,212.55c4.79-17.87,4.39-35.52,4.24-53.1c3.4-0.32,3.68,2.31,4.28,3.87
		c4.72,12.41,10.4,24.53,11.89,37.95c0.33,2.98,0.87,5.94,1.02,8.93c2.3,44.24-4.83,86.86-22.03,127.74
		c-2.71,6.43-5.75,12.66-11.27,17.15c-5.66-1.41-9.85-4.42-13.74-8.23c-6.66-6.51-13.49-12.85-20.47-19.01
		c-9.32-8.23-19.68-14.75-31.8-18.18c-2.14-0.6-4.49-1.13-6.03-3.61c2.45-3.42,5.9-3.95,9.55-2.8c5.22,1.64,10.53,1.34,15.84,1.46
		c3.96,0.1,7.85,0.13,11.84,1.12c12.09,2.99,20.02-0.46,25.56-11.62c2.31-4.64,5.43-8.25,8.81-11.9
		c7.01-7.6,12.88-15.97,17.65-25.21c4.27-8.27,5.64-16.87,5.62-26.03c-0.02-6.51-1.76-11.73-7.31-15.42
		C855.18,214.94,854.27,213.97,852.61,212.55z"/>
	<path class="st0" d="M827.72,201.29c-9.17-1.93-18.33-5.81-27.91-8.19c-9.53-2.36-19.53-2.22-28.61-4.88
		c-0.52-3.2,4.22-5.19,0.18-7.6c-4.26-18.55-4.17-36.86,3.16-54.73c2.32-5.65,6.02-10.17,11.04-13.8
		c7.12-5.14,16.76-5.28,23.74,3.59c3.71,4.71,6.47,10.04,8.83,15.56c9.02,21.13,12.56,43.25,11.83,66.12
		c-0.03,0.94-0.54,1.87-0.9,2.78C828.98,200.4,828.62,200.56,827.72,201.29z M790.54,187.66c9.58,0.68,17.48,5.88,26.67,5.95
		c-6.39-5.66-14.36-7.15-22.18-8.97C793.5,184.29,791.73,184.13,790.54,187.66z"/>
	<path class="st0" d="M629.4,256.98c8.8-0.63,16.75-0.23,24.94-2.32c12.78,17.54,28.7,31.32,48.33,40.81
		c-2.02,3.66-5.75,3.4-8.44,4.95c-2.58,1.48-4.83,3.54-7.4,5.06c-5.53,3.29-9.82,7.96-14.05,12.63c-12.93,14.27-25.9,28.47-40.84,42
		c-1.89-3.65-1.34-7.27-0.9-10.53c1.94-14.56,1.83-29.17,1.8-43.8c-0.04-14.31-1.27-28.52-3.1-42.69
		C629.53,261.48,629.55,259.83,629.4,256.98z"/>
	<path class="st0" d="M1473.39,703.1c9.37,1.26,14.73,6.09,19.39,12.59c8.23,11.49,7.49,23.7,3.79,36.24
		c-1.61,5.43-4.11,10.61-7.55,15.13c-8.01,10.53-18.64,15.6-31.99,14.5c-1.74-0.14-3.24-0.69-4.58-3.22
		c4.44-11.72,11.09-23.27,14.26-36.23C1469.77,729.53,1473.16,717.07,1473.39,703.1z"/>
	<path class="st0" d="M803.48,218.31c-6.26-0.29-11.93-0.1-17.4-1.89c-5.08-1.66-9.58-9.03-8.43-14.05
		c0.61-2.67,2.49-3.87,5.16-3.56c3.61,0.41,7.25,0.75,10.78,1.55c6.77,1.53,13.51,3.26,20.2,5.11c2.58,0.71,4.76,2.05,5.48,5.14
		c0.99,4.19-0.16,6.38-4.52,6.9C810.82,217.99,806.83,218.09,803.48,218.31z"/>
</g>
</svg>
