<?xml version="1.0" encoding="utf-8"?>
<!-- Generator: Adobe Illustrator 24.0.2, SVG Export Plug-In . SVG Version: 6.00 Build 0)  -->
<svg version="1.1" id="Layer_1" xmlns="http://www.w3.org/2000/svg" xmlns:xlink="http://www.w3.org/1999/xlink" x="0px" y="0px"
	 width="399.09" height="938.3" viewBox="0 0 399.09 938.3" style="enable-background:new 0 0 399.09 938.3;" xml:space="preserve">
<g>
	<path d="M106.82,266.4c-6-5.7-11.81-11.69-16.3-18.87c2.05,5.48,3.9,11,8.62,15.32c-4.67,1.23-7.29-1.86-9.74-4.03
		c-12.03-10.67-21.1-23.47-24.51-39.4c-2.22-10.38-3.3-20.87-2.08-31.76c1.16-10.34,4.08-20.12,6.32-30.12
		c0.43-1.89,2.36-3.25,1.83-5.58c-3.31,2.91-5.79,6.32-8.12,9.89c-2.32,3.56-4.96,6.91-7.24,10.49c-2.31,3.65-3.61,7.83-5.42,12.7
		c-1.1-17.25,5.92-39.6,25.63-62.31c-1.59-2.39-1.4-6.94-7.88-4.43c3.94-3.31,1.88-5.18,0.51-7.25
		c-6.75-10.21-13.42-20.5-18.63-31.6c-4.13-8.8-6.29-18.09-6.83-27.89c-0.32-5.77-1.05-11.51-0.85-17.3
		c0.13-3.76,0.87-7.41,2.33-10.82c2.72-0.51,3.67,1.2,4.7,2.98c1.74,3.01,2.56,6.3,3.36,9.65c2.8,11.69,9.06,21.53,16.59,30.67
		c4.69,5.7,9.35,11.43,14.1,17.08c3.96,4.72,9.39,7.87,13.48,12.46c1.05,1.18,2.13,0.91,3.55,0.41c8-2.79,16.27-3.81,24.73-3.48
		c4.24,0.17,8.3,1.45,12.9,1.91c-5.35-10.19-11.51-19.77-12.84-31.65c2.39,1.02,3.52,2.74,4.89,4.12
		c8.38,8.44,17.29,16.29,26.66,23.6c5.44,4.25,11.96,6.2,18.53,6.79c4.85,0.44,9.39-2.53,13.22-5.61
		c8.28-6.64,15.61-14.22,22.57-22.26c4.32-4.99,8.95-9.74,13.44-14.61c2.13-2.31,4.24-4.55,4.93-7.75c0.07-0.3,0.34-0.56,0.53-0.84
		c6.97-10.44,11.02-22.64,18.85-32.48c4.16-5.22,8.91-10.19,15.03-13.55c2.62-1.43,4.36-1.18,6.39,0.78
		c4.01,3.88,5.99,8.91,7.95,13.9c2.93,7.5,3.59,15.54,4.99,23.38c2.94,16.48,2.77,33.18,3.41,49.85c0.31,8.11-0.68,16.06-0.53,24.11
		c0.14,7.01-2.02,13.92-5.33,20.16c-2.83,5.33-5.2,10.88-8.02,16.2c-4.26,8.02-9.68,15.06-16.76,20.86
		c-2.59,2.13-5.53,4.34-5.67,8.22c1.13,1.66,3.51-0.01,4.48,2.16c0.24,3.17-3.98,4.05-4.04,7.55c0.84,0.9,1.96,2.12,3.59,3.88
		c-2.97,0.02-4.5,1.25-5.91,3.43c-4.25,6.56-10.26,11.45-17.13,16.13c1.55,1.23,4.09-0.05,4.58,2.41c-4.76,0.93-8.84,3.67-13.3,5.54
		c-2.87,1.2-4.63,3.27-4.95,6.17c-0.37,3.36-1.24,6.8,0.58,10.16c0.56,1.04,1.37,2.25,1.1,3.71c-0.64,3.49,0.72,6.04,3.89,7.34
		c-0.09,1.24-0.78,1.76-1.39,2.3c-3.7,3.31-3.52,6.02,1.03,7.77c6.24,2.38,12.47,3.41,19.54,2.71c9.57-0.95,19.64-2.28,28.61,4.37
		c6.62,4.91,9.67,11.58,11.15,18.92c3.17,15.82,10.17,30.18,16.52,44.74c2.77,6.34,7.79,11.66,11.23,17.76
		c3.99,7.07,7.25,14.42,8.5,22.68c1.94,12.84-0.1,25.07-4.01,37.2c-0.38,1.17-0.84,2.09-1.64,2.94c-5.9,6.3-17.83,8.48-25.11,3.9
		c-5.92-3.72-12.36-6.67-17.56-11.56c-2.99-2.81-3.96-6.75-6.34-9.93c-3.25,8.82-5.81,17.91-14.63,23.39
		c7.43,8.71,13.63,18.1,18.63,28.2c2.89,5.83,5.02,12.05,5.51,18.64c0.12,1.58,0.83,2.83,1.46,4.13c3.19,6.62,7.03,12.96,9.48,19.91
		c2,5.67,3.42,11.49,4.27,17.52c0.79,5.63,1.16,11.23,0.76,16.81c-1.07,15.17-3.08,30.18-7.27,44.92
		c-3.49,12.27-8.91,23.76-13.02,35.76c-4.89,14.28-12.51,27.27-19.21,40.71c-5.57,11.18-7.92,22.95,0.73,34.26
		c2.86,3.74,5.37,7.79,7.32,12.14c2.63,5.88,3.87,11.99,4.66,18.39c1.55,12.44,0.45,24.88,0.89,37.31c0.02,0.64,0.14,1.27,0.22,2.07
		c17.17,1.99,34.04,4.73,50.58,9.3c11.76,3.25,23.84,5.63,34.02,13c8.9,6.43,16.23,14.46,23.47,22.65
		c10.53,11.9,16.12,26.44,22.18,40.68c2.78,6.53,4.2,13.67,5.45,20.73c0.12,0.66-0.04,1.31-1.06,2.16
		c-2.1-6.34-5.33-11.95-8.98-17.47c0.68,2.63,1.62,5.22,2.01,7.89c1.75,11.83,1.65,23.6-0.75,35.39c-0.68,3.35-1.35,6.71-1.98,10.07
		c-0.5,2.65-0.58,5.52,0.44,8.34c1.36,3.73,1.8,7.69,1.06,12.63c-5.58-10.94-11.61-20.7-20.36-29.14c-0.36,3.02,2.82,4.94,1.09,8.07
		c-13.96-19.18-35.06-20.58-55.99-22.58c4.73,3.9,11.05,5.41,15.33,10.28c-15.02-2.83-28.95-9.7-44.41-9.98
		c-1.48,2.74,0.42,5.41,0.81,8.04c1.79,12,1.89,24.04,1.86,36.11c-0.01,3.31-0.25,6.53-1.01,9.78c-1.65,7-8.47,13.59-15.9,12.43
		c-2.44-0.38-4.59,0.45-6.96,1.68c-4.1,2.13-8.69,3.06-13.59,2.37c-5.36-0.76-10.91,0.72-16.26-1.05c-0.91-0.3-2.02-0.06-2.69-0.98
		c-1.45-2-3.49-2.28-5.75-2.08c-3.45,0.3-6.26-1.39-9.1-3.02c-1.61-0.92-2.5-2.55-2.59-4c-0.38-5.78-1.27-11.62,0.82-17.31
		c0.98-2.65,1.77-5.07,5.19-5.89c1.84-0.44,3.1-2.45,4-4.66c2.03-4.99,1.8-10.29,2.66-15.4c0.73-4.29,2.44-8.5,2.04-13.39
		c-13.15,4.17-26.45,6.84-39.89,10.05c1.49,7.54,2.64,14.87,6.88,21.29c0.55,0.83,0.87,1.91,1.8,2.24
		c6.64,2.31,6.75,8.11,7.31,13.62c0.19,1.81,0.03,3.66,0.03,5.5c-0.01,7.27-5.29,12.46-12.45,11.88c-1.74-0.14-2.9,0.28-4.37,1
		c-4.89,2.39-10.02,3.9-15.54,2.39c-1.02-0.28-1.84,0.09-2.8,0.28c-3.74,0.74-7.56,1.09-11.17-0.56c-4.38-2.01-8.87-2.76-13.71-3.25
		c-5.36-0.54-9.95-3.76-11.99-9.45c-1.89-5.28-3.38-10.66-2.93-16.3c0.54-6.67-1.25-13.18-1.03-19.8c0.06-1.79-0.45-3.68,1.75-5.63
		c-23.02-5.27-43.11-14.64-59.82-31.92c0.47,3.46,2.73,5.33,2.43,8.13c-13.98-17.11-25.11-35.81-32.2-56.88
		c1.08,8.76,3.36,17.23,6.8,25.55c-4.39-1.62-4.7-1.63-8.8-9.05c-7.94-14.39-13.51-29.69-16.04-45.94
		c-1.19-7.62-1.9-15.38-2.01-23.08c-0.17-12.68,2.57-25.03,5.45-37.31c0.28-1.17,0.4-2.21,0.24-3.58c-1.14,1.5-2.55,2.52-3.56,4.03
		c0.27-4.66,2.04-8.81,3.64-13.02c4.5-11.83,10.54-22.84,18.31-32.8c3.87-4.95,6.73-10.45,9.76-15.83
		c6.08-10.82,12.95-21.14,19.51-31.65c2.96-4.74,5.37-9.7,7.58-14.8c1.56-3.6,3.08-7.25,5.07-10.61c5.83-9.87,6.85-20.71,6.86-31.78
		c0.01-4.31-2.35-8.12-2.97-12.32c-1.09-7.38-2.18-14.76-3.33-22.54c-2.96,2.86-3.22,5.8-2.03,9.2c2.01,5.77,3.36,11.56,1.43,17.76
		c-1.19,3.82-3.08,7.24-5.31,10.4c-3.89,5.51-6.37,11.08-3.86,17.91c0.38,1.03,0.06,2.31,0.1,3.48c0.12,3.32-1.12,5.89-4.43,6.86
		c-3.19,0.94-5.46-0.93-7.65-2.99c-3.65-3.43-3.55-7.96-2.74-12.05c0.82-4.14-0.25-7.59-1.68-11.6c-4.47,5.75-10.95,6.84-17.41,7.92
		c-1.01,0.17-1.8,0.48-2.68,1.04c-3.58,2.29-7.36,4.24-11.45,5.49c-3.61,1.1-6.9,2.62-10.02,4.85c-2.64,1.89-5.85,3.76-9.12,0.62
		c-1.79-1.72-3.25-0.08-4.84,0.53c-3.41,1.3-4.88-0.36-5.65-3.43c-2.51-9.94,5.8-15.61,8.55-23.43c0.21-0.6,0.74-1.07,1.03-1.65
		c0.13-0.27,0.02-0.65,0.02-1.41c-1.84-0.51-3.78-1.12-5.75-1.6c-2.19-0.53-2.53-2.51-3.05-4.12c-0.56-1.73,0.99-2.84,2.23-3.52
		c6.89-3.74,13.82-7.41,20.83-10.93c1.87-0.94,4.14-0.7,6.22-1.26c3.89-1.06,7.23-2.83,10.33-5.33c2.54-2.05,5.05-4.4,7.99-5.64
		c8.42-3.54,12.16-10.41,15.38-18.39c5.02-12.47,8.08-25.41,10.66-38.5c0.51-2.57,0.1-5.31,0.24-7.96c0.95-17.48,5.32-33.8,16.12-48
		c3.55-4.67,4.47-10.51,5.73-15.99c2.44-10.64,3.95-21.48,6.22-32.16c1.31-6.17,0.64-12.45,1.88-18.61
		c2.54-12.63-1.22-24.66-4.04-36.7c-3.35-14.32-2.09-27.84,5.38-40.63C106.57,267.16,106.64,266.87,106.82,266.4z M139.25,390.74
		c-7.95,13.22-9.93,19.5-8.37,26.02c3.18-2.68,5.69-6,9.25-8.13c1.73-1.03,2.37-2.75,1.97-4.71
		C141.27,399.85,140.35,395.79,139.25,390.74z M245.38,411.18c5.22-8.19,6.58-16.96,8.72-25.71c-3.33-0.65-5.1,2.13-7.9,1.98
		c0.06,7.16-1.33,13.79-4.14,20.29C243.15,408.87,244.18,409.93,245.38,411.18z"/>
</g>
</svg>
