<?xml version="1.0" encoding="utf-8"?>
<!-- Generator: Adobe Illustrator 24.0.2, SVG Export Plug-In . SVG Version: 6.00 Build 0)  -->
<svg version="1.1" id="Layer_1" xmlns="http://www.w3.org/2000/svg" xmlns:xlink="http://www.w3.org/1999/xlink" x="0px" y="0px"
	 viewBox="0 0 1244.52 1350.35" style="enable-background:new 0 0 1244.52 1350.35;" xml:space="preserve">
<style type="text/css">
	.st0{fill:#1A1A1A;}
</style>
<g>
	<path d="M463.51,703.9c-1.75,2.12-3.43,3.56-4.34,5.38c-1.39,2.78-3.48,3.92-6.34,3.61c-2.61-0.28-3.56-1.88-4.33-6.5
		c-1.82,0.65-2.9,2.14-4.01,3.42c-7.89,9.11-17.03,16.77-27.23,23.11c-4.84,3.01-9.85,5.7-15.79,6.11
		c-8.59,0.6-12.47-5.53-13.68-13.5c-0.19-1.27-0.03-2.6-0.03-4.28c-2.36,1.04-2.81,3.16-3.92,4.64c-3.62,4.84-7.96,8.96-13.54,11.11
		c-6.66,2.57-11.03,1.51-10.57-6.5c0.08-1.42,0.28-2.92-0.51-4.58c-1.97,0.69-3.36,2.18-5.32,2.6c-1.7,0.37-3.22,0.93-4.56-0.53
		c-1.35-1.47-0.01-2.75,0.42-4.1c0.24-0.76,1.12-1.31,0.5-2.9c-3.81,0-7.89-0.07-11.96,0.01c-14.05,0.28-27.85-1.26-41.7-3.79
		c-23.69-4.33-46.32-11.81-68.65-20.55c-17.98-7.04-35.22-15.63-52.41-24.34c-6.94-3.52-13.57-7.7-21.26-9.56
		c-0.62-0.15-1.2-0.51-1.77-0.83c-2.08-1.19-3.05-2.89-2.73-5.36c0.34-2.56,2.49-2.96,4.27-3.45c2.04-0.55,4.29,0.21,6.7-0.53
		c-1.13-3.45-4.08-5.58-6.18-8.06c-13.03-15.39-25.12-31.47-36.03-48.39c-14.74-22.85-26.7-47.1-34.25-73.31
		c-2.7-9.39-4.6-18.98-5.72-28.78c-0.79-6.98-0.71-13.89-0.67-20.82c0.03-5.29,1.96-10.11,6.52-13.41c1.24-0.9,1.43-2.11,1.39-3.51
		c-0.06-2.33-0.06-4.67-0.01-7c0.32-13.48,1.51-26.91,5.18-39.89c1.84-6.53,5.22-12.63,8.03-18.87c0.86-1.91,2.85-2.64,4.7-3.44
		c2.72,0.68,2.94,3.14,3.77,6.14c1.51-10.65,4.77-19.81,9.37-28.52c0.31-0.58,0.58-1.19,0.96-1.72c1.32-1.86,2.46-4.4,5.2-3.8
		c2.63,0.58,1.42,3.34,2.11,5.52c3.43-5.99,6.77-11.69,9.98-17.46c7.45-13.42,15.25-26.67,22.11-40.39
		c5.43-10.86,10.08-22.13,14.73-33.38c2.41-5.83,3.54-11.8,4.82-17.84c0.58-2.74-0.64-5.22-1.07-7.78
		c-2.04-12.26-5.48-23.99-15.24-32.65c-10.15-9.01-21.74-15.31-34.8-19.27c-9.42-2.86-18.94-4.68-28.65-6.08
		c-7.21-1.03-14.26-3.29-21.01-6.23c-1.66-0.72-3.26-1.62-4.49-4.23c8.41-4.53,18.27-1,26.69-4.78c-8.51-0.17-16.71-2.46-25.48-0.97
		c-7.1,1.21-14.03,2.99-21.08,4.3c-6.21,1.15-9.36-2.36-8.34-8.94c0.63-4.09,1.82-7.88,4.91-11.31c-5.12,0.23-9.52,1.68-14.14,1.39
		c-2.48-0.16-4.85-0.63-7.27-0.99c-1.93-0.29-3.14-1.32-3.82-2.78c-0.91-1.96,1.08-2.81,2.33-4.03c-7.31-1.36-14.65-1.65-21.2-5.48
		c-4.44-2.59-5.57-5.9-1.85-9.76c0.57-0.59,1.09-1.24,1.53-1.93c2.67-4.26,8.28-6.51,9.66-11.1c1.45-4.81,3.51-9.02,5.97-13.26
		c3.91-6.74,9.26-12.35,14.38-18.04c8.42-9.35,17.35-18.36,27.66-25.6c8.78-6.17,17.7-12.27,27.36-17.1
		c2.02-1.01,3.92-1.66,4.22-4.77c0.26-2.76,3.22-4.54,5.48-6.12c9.2-6.38,19.41-10.51,30.28-13.14c11.33-2.74,22.86-3.85,34.41-5.15
		c10.97-1.23,21.94-1.17,32.81-0.58c10.63,0.58,21.31,1.06,31.94,2.57c10.53,1.5,20.91,3.4,31.17,6.16
		c8.81,2.37,17.65,4.84,25.65,9.17c8.18,4.43,16.48,8.64,24.44,13.52c9.73,5.96,19.89,11.19,29.58,17.26
		c8.83,5.54,16.32,12.68,24.4,19.12c9.25,7.36,18.21,14.99,26.59,23.37c10.63,10.63,19.68,22.51,28.45,34.62
		c7.37,10.18,14.47,20.57,21.64,30.88c5.48,7.87,8.91,17.03,11.85,26.25c3.43,10.75,5.99,21.63,7.21,32.91
		c0.67,6.2,1.71,12.49,1.61,18.61c-0.26,15.75-2.62,31.3-9.08,45.88c-5.8,13.09-11.12,26.38-18.32,38.87
		c-5.22,9.06-9.92,18.42-16.46,26.6c-7.47,9.34-13.34,19.76-20.3,29.4c-12.64,17.51-23.37,36.16-34.7,54.47
		c-8.85,14.31-16.73,29.15-25.07,43.73c-4.06,7.1-5.87,14.99-7.06,23.24c-1.92,13.27,1.04,25.66,4.11,38.26
		c1.86,7.61,6.53,12.92,12.84,16.65c15.18,8.95,30.55,17.64,47.75,22.33c7.26,1.98,14.65,3.05,22.11,4.1
		c6.89,0.97,13.46-0.01,20.13-0.38c6.04-0.34,11.74-2.49,17.29-4.9c13.76-5.97,25.91-14.42,37.43-23.9
		c4.06-3.34,8.3-6.45,12.09-10.11c2.76-2.67,4.82-5.76,6.51-9.18c6.1-12.35,14.09-23.49,22.16-34.59
		c5.02-6.91,10.7-13.28,15.86-20.05c3.63-4.77,5.9-10.54,5.92-16.84c0.01-4.95,0.17-9.86,0.89-14.82c1.3-8.86-1.73-17.13-4.43-25.42
		c-3.44-0.02-6.15,1.69-8.5,3.58c-13.38,10.78-27.56,20.43-41.98,29.69c-10.59,6.81-22.03,12.23-34.57,14.34
		c-9.57,1.6-19.3,1.57-28.78-0.96c-2.76-0.74-4.9-2.35-5.86-5.81c-1.54-5.56-2.13-11.04-1.82-16.74c0.19-3.49-0.08-7,0.07-10.5
		c0.34-7.89,1.91-15.49,4.96-22.84c2.67-6.46,4.63-13.22,7.47-19.6c3.32-7.47,8.4-13.96,12.82-20.81
		c8.68-13.43,16.57-27.33,24.93-40.95c7.51-12.23,14.94-24.53,22.9-36.47c6.93-10.4,16.25-18.24,27.97-23.02
		c3.76-1.53,7.73-2.58,11.66-2.76c7.87-0.35,15.73-0.77,23.57,1.74c7.5,2.4,15.43,3.32,23.26,1c4.7-1.39,5.32-2.56,5.44-7.42
		c0.11-4.48-0.16-8.89-1.65-13.41c-2.81,0.81-3.52,3.84-5.29,5.75c-2.63,2.84-4.11,6.59-7.84,8.59c-3.97,2.13-5.04,2.3-8.1-0.82
		c-0.91-0.93-1.8-1.84-2.39-3.11c-0.52-1.12-0.74-2.62-2.16-3.19c-0.76,0.99-1.63,1.94-2.29,3.02c-5.62,9.2-20.18,8.51-25.65,1.85
		c-5.31-6.46-8.49-13.52-7.61-22.07c0.43-4.23-0.06-4.77-4.16-5.14c-6.89-0.62-11.05-4.36-12.36-10.99
		c-0.45-2.27,0.19-5.1,1.83-5.45c4.03-0.86,3.92-3.89,4.69-6.6c0.21-0.75,1.15-1.27,0.54-2.56c-7.41,3.23-15.28,4.4-22.01-0.81
		c-5.56-4.3-8.63-10.71-9.77-18.68c11.47,1.82,20.28-2.62,28.01-10.42c-2.76-4.31-5.16-8.91-7.3-13.62
		c-0.71-1.56-1.93-2.26-3.22-2.75c-15.68-5.91-26.6-16.24-34.77-31.28c-8.55-15.75-14.18-32.42-20.31-48.98
		c-5.05-13.65-6.96-27.99-6.19-42.62c0.35-6.68,4.91-10.97,11.6-11.28c6.66-0.31,12.55,2.17,18.39,4.62
		c13.26,5.57,26.92,9.66,41.03,12.4c6.12,1.19,10.28-2.03,14.32-5.78c1.33-1.23,2.38-2.78,4.19-3.55c-2.29-1.64-4.01-3.64-5.39-6.07
		c-1.43-2.51-0.9-4.77-0.08-7.6c10.38,4.83,19-0.6,27.8-4.41c11.37-4.92,22.76-10.13,34.95-12.24c19.71-3.41,38.99-2.02,56.2,9.75
		c5.5-7.93,1.6-14.35-3.01-20.43c-3.24-4.28-7.64-7.12-12.88-8.68c-5.05-1.5-7.26-0.6-9.64,4.38c-0.38-5.02,2.96-8.21,8-7.22
		c3.31,0.65,6.53,1.58,9.4,3.8c5.21,4.01,9.25,8.82,11.95,14.78c2.13,4.68,0.99,9.26-0.61,14.19c6.65-1.27,13.4-0.36,19.76-2.9
		c7.96-3.17,15.74-1.06,23.16,1.81c7.02,2.72,13.64,6.43,19.21,12c9.35-4.37,17.6-10.43,25.87-16.47c4.59-3.35,9.69-5.33,15.49-5.31
		c4.53,0.02,7.94,2.08,10.18,5.83c3.66,6.13,5.3,12.95,6.05,19.97c1.12,10.36,1,20.76,1.07,31.17c0.11,16.9-4.96,32.51-11.41,47.81
		c-0.82,1.95-1.96,3.74-2.7,5.76c-1.27,3.47-3.43,6.15-7.15,7.56c-4.87,1.84-9.33,4.56-13.64,7.45c1.36,4.73,4.24,7.81,8.9,9.47
		c2.7,0.96,5.05,1.05,7.36-0.7c5.2,13.32-1.38,33.66-19.74,36.34c5.13,7.12,12.83,8.83,20.68,10.43
		c-6.28,10.03-13.87,16.61-25.74,16.01c-0.05,3.08,2.83,4.11,4.13,6.72c-2.15,0.1-4.04,0.19-6.14,0.28
		c5.24,3.7,10.51,1.96,21.1-6.83c2.33,2.56,1.38,5.57,0.95,8.3c-0.53,3.38-2.01,6.5-3.67,9.52c-5.61,10.22-12.61,19.19-22.38,25.87
		c-4.19,2.87-8.94,4.53-13.66,4.71c-4.82,0.19-8.11-3.81-10.91-7.58c-0.85-1.14-0.82-2.88-2.45-3.65c-0.95,0.71-0.41,1.73-0.58,2.57
		c-0.73,3.72-2.86,4.63-6.47,3.14c-2.45-1.02-3.81-3.72-7.03-4.07c-3.48,6.86-6.01,15.49-17.01,12.68c-0.7,2.21-0.49,3.96-0.3,5.95
		c6.76-0.84,12.87-3.55,19.31-4.95c10.74-2.32,20.24,0.33,29.14,5.61c10.78,6.39,17.49,16.28,22.52,27.64
		c3.68,8.33,5,17.12,6.87,25.85c1.09,5.08,3.18,9.86,4.16,15.02c1.37,7.21,2.4,14.48,3.77,21.69c1.77,9.3,3.37,18.63,4.77,27.99
		c0.51,3.4,1.02,6.84,1.19,10.26c0.52,10.36,2.97,20.5,3.12,30.89c0.01,0.96,0.7,1.44,1.53,1.95c4.47-17.02,10.87-33.4,16.52-50.03
		c1.94-5.7,3.9-11.48,4.72-17.38c0.73-5.25,0.84-10.62-2.71-15.64c-3.44-4.86-5.78-10.44-7.58-16.29
		c-1.37-4.44-4.27-8.42-6.63-12.52c-0.43-0.74-1.5-1.2-2.37-1.59c-4.11-1.88-5.49-3.9-4.07-7.88c0.82-2.29,0.02-3.31-1.26-4.71
		c-6.21-6.82-6.39-14.81-4.14-23.1c1.46-5.38,5.75-8.27,10.55-10.29c2.39-1,4.62,0.33,6.17,2.1c2.19,2.51,3.68,2.51,7.02,1.02
		c9.2-4.1,19.04-4.04,28.71-1.12c7.01,2.12,13.98,4.34,20.88,6.79c3.59,1.28,6.03,4.42,9.04,6.63c4.72,3.47,9.48,7.06,14.67,9.71
		c8.12,4.15,11.56,11.37,13.64,19.36c1.39,5.34,1.7,11,2.23,16.54c0.71,7.54-1.37,14.84-4.18,21.51
		c-6.84,16.26-11.59,33.15-16.81,49.92c-5.91,18.99-13.32,37.43-21.27,55.61c-5.57,12.72-13.11,24.35-22.28,34.99
		c-5.36,6.21-10.4,12.85-16.2,18.53c-7.46,7.3-16.37,13.16-27.62,13.08c-4.7-0.03-8.95-1.33-12.31-5.1
		c-3.59-4.02-7.83-7.45-10.92-12.1c0.16,6.18-1.8,12.06-1.39,18.16c0.34,5.13-0.93,10.16-1.12,15.29
		c-0.34,9.52,1.84,18.59,3.65,27.76c1.11,5.62,1.91,11.27,2.56,16.97c0.76,6.6,1.74,12.98,5.92,18.83
		c5.19,7.27,7.93,15.95,11.09,24.31c5.07,13.46,8.23,27.43,10.81,41.5c2.4,13.1,3.65,26.45,3.5,39.72
		c-0.1,8.91,0.55,17.93-0.53,26.77c-1.27,10.4-2.42,20.84-3.53,31.24c-1.44,13.55-4.25,26.82-6.6,40.15
		c-1.77,10.01-4.56,19.94-7.17,29.84c-1.89,7.19-3.94,14.4-5.3,21.79c-1.76,9.6-5.9,18.59-8.78,27.91
		c-3.27,10.57-7.14,20.92-11.01,31.28c-2.88,7.71-2.33,15.97,0.67,23.67c3.91,10.06,6.15,20.55,8.76,30.95
		c0.4,1.59-0.05,3.18-0.62,4.81c-0.34,0.96,1.94,0.87,2.14,2.75c0.16,1.53,0.34,3.2,0.61,4.79c1.29,7.73,2.82,15.42,3.84,23.18
		c0.38,2.92,1,5.9,1,8.78c-0.01,5.65,0.94,11.2,1.32,16.79c0.74,10.7,1.15,21.43,2.06,32.09c0.98,11.47,0.42,22.89,0.69,34.32
		c0.11,4.47,1.53,8.76,1.11,13.3c-1.19,13.01,0.5,26.05-0.05,39.07c-0.18,4.28,0.05,8.51-0.82,12.83
		c-1.08,5.35,0.51,10.89,1.19,16.23c0.58,4.52,0.63,9.12,1.4,13.67c1.29,7.57,2.58,15.09,4.76,22.46
		c1.62,5.45,2.83,11.05,4.82,16.36c0.83,2.24-0.23,3.88-0.5,5.62c-0.89,5.74-0.46,11.83-3.85,17.03c-2.03,3.11-4.08,6.04-6.93,8.64
		c-3.43,3.13-6.23,7.03-8.2,11.51c-4.07,9.23-7.94,18.6-10.77,28.22c-1.81,6.17-5.42,10-9.78,14.13c-2.61,2.47-5.31,4.73-8.23,6.67
		c-3.56,2.35-7.47,4.11-11.97,3.72c-0.66-0.06-1.45-0.23-1.98,0.04c-3.69,1.84-7.08,0.54-10.49-0.81c-0.76-0.3-1.73-1-2.28-0.76
		c-5.53,2.4-11.49,0.71-17.05,1.97c-1.96,0.44-2.96,0.19-4.36-0.9c-2.36-1.84-5.01-3.22-8.16-2.53c-2.12,0.46-3.23-1.31-4.79-2.04
		c-1.7,1.03-3.19,2.05-3.11,3.41c-6.57,1.11-12.52,5.95-19.45,1.97c-0.53,4.92-2.46,6.98-6.75,7.94c-5.39,1.22-10.45,2.7-16.18,1.89
		c-3.86-0.55-6.34-2.39-8.88-5.15c-1.76,1.65-3.42,2.79-5.89,3.16c-16.46,2.52-23.38,0.92-33.79-14.38
		c-5.03-7.4-8.16-15.47-10.17-24.13c-0.7-3.02-3.16-5.39-5.28-7.6c-5.32-5.54-9.5-12.04-15.12-17.32c-2.09-1.97-4.76-2.83-6.97-4.6
		c-8.61-6.9-13.89-15.4-14.42-26.67c-0.49-10.43,3.64-19.38,8.25-28.31c2.61-5.05,5.09-10.17,4.83-16.23
		c-0.59-13.8-1.01-27.56-3.83-41.21c-1.65-7.97-2.74-16.12-3.38-24.32c-0.67-8.7-1.15-17.44-2.08-26.09
		c-1.12-10.48-1.19-20.95-0.54-31.31c0.82-13.08,1.21-26.22,3.5-39.25c1.3-7.37,2.07-14.9,3.16-22.35
		c1.75-11.96,4.48-23.72,7.29-35.43c3.56-14.86,7.38-29.68,12.77-44.03c1.84-4.88,3.13-10.09,6-14.4
		c4.15-6.22,1.32-11.59-1.83-16.34c-3.14-4.73-5.98-9.63-8.72-14.54c-6.04-10.81-11.7-21.84-17.55-32.75
		c-10.71-19.99-19.77-40.63-26.87-62.13c-3.31-10.02-7.11-19.97-8.7-30.42c-2.24-14.7-6.43-28.95-9.17-43.52
		C466.2,722.08,465,713.26,463.51,703.9z M638.31,1042.72c-0.8,0.69-1.33,1.58-1.6,2.79c-2.51,11.6-5.1,23.19-7.67,34.78
		c-1.76,7.94-3.52,15.88-5.33,23.81c-2.31,10.15-4.52,20.33-7.04,30.42c-2.48,9.93-5.67,19.7-7.86,29.69
		c-2.96,13.5-7.75,26.55-9.5,40.35c-1.01,7.99-1.05,15.71,2.39,23.12c3.58,7.7,6.96,15.52,11.07,22.93
		c3.98,7.19,8.23,14.2,14.03,20.33c2.83,2.99,6.31,5.19,8.85,8.41c1.29,1.64,2.89,1.88,4.87,1.22c9.69-3.22,18.22-7.83,23.52-17.19
		c1.92-3.39,4.01-6.71,6.03-10.06c5.54-9.2,8.23-19.08,5.41-29.44c-2.85-10.5-5.9-20.97-8.99-31.41
		c-3.15-10.61-5.45-21.42-7.76-32.23c-2.07-9.71-3.94-19.46-5.95-29.18c-1.65-7.97-3.73-15.88-4.96-23.91
		c-1.49-9.69-3.08-19.37-4.38-29.09C641.88,1066.26,640.44,1054.42,638.31,1042.72z"/>
</g>
<g>
	<path class="st0" d="M84.64,462.5c2.72,3.42,2.44,7.26,4.76,10.03c0.6-1.27,0.64-2.52,0.28-3.54c-3.76-10.57-0.96-21.09-0.16-31.69
		c0.57-7.56,1.75-14.95,3.24-22.34c1.59-7.89,5.07-15.08,7.91-22.51c0.61-1.61,1.78-1.59,3.64-2.21c0.52,7.36,2.85,14.32,1.24,21.79
		c3.49-17.37,5.66-34.99,16.46-49.83c2.15,9.73-3.37,18.63-2.87,28.39c2.36-2.72,2.74-6.2,3.26-9.12
		c1.92-10.73,7.26-19.81,12.61-28.94c6.09-10.4,12.49-20.61,17.78-31.47c2.92-5.99,6.24-11.79,9.3-17.72
		c5.46-10.56,9.52-21.74,14.2-32.64c1.73-4.04,2.18-8.79,2.69-13.4c1.06-9.62,0.24-19.24,0.97-28.81
		c0.44-5.75,1.41-11.62,4.84-16.69c1.35-2,2.42-4.22,3.1-6.64c1.22-4.34,1-4.83-3.36-5.1c-0.66-0.04-1.32-0.07-2.3-0.11
		c3.38-11.47,10.82-19.71,19.67-26.88c8.17-6.62,17.39-11.44,27.21-15.15c1.49-0.56,3.68-3.24,4.56-5.28
		c-1.59-2.25-4.09-2.5-6.44-2.84c-0.91-1.59-0.11-2.6,0.88-3.56c3.42-3.33,7.22-6.19,11.42-8.45c7.49-4.02,15.15-7.71,22.99-11.03
		c2.93-1.24,6.09-1.27,8.74-0.34c11.44,4,22.09,9.77,32.77,15.44c7.24,3.85,14.07,8.4,20.02,14.05c8.5,8.07,14.75,17.88,21.05,27.7
		c7.68,11.98,11.47,25.37,15.95,38.64c4.39,13,7.2,26.36,10.4,39.62c1.47,6.11,2.36,12.55,2.44,19.02
		c0.05,3.88,1.61,7.73,0.53,11.67c-0.34,0.16-0.63,0.42-0.9,0.4c-18.54-1.31-36.45,1.96-53.72,8.31
		c-6.75,2.48-13.49,5.88-17.14,13.03c-1.25,2.44-3.14,4.48-2.51,7.56c1.07,5.21,2.41,10.34,6.83,13.74
		c6.6,5.08,14.06,8.53,21.87,11.54c9.58,3.69,19.59,4.71,29.56,6.3c0.59,1.12,0.62,2.32,0.03,3.32c-4.26,7.27-7.71,15-12.5,22
		c-1.92,2.8-4.51,4.81-6.69,7.29c-1.22,1.39-2.36,0.99-3.91,0.14c-6.63-3.62-13.55-4.51-21.23-3.53c-7.1,0.9-13.89,2.46-20.15,5.54
		c-8.72,4.29-16.71,9.86-21.48,18.71c-4.97,9.21-1.68,19.85,7.73,25c8.49,4.66,17.86,5.97,27.04,8.05c1.64,0.37,3.11,0.78,4.72,1.96
		c-4.54,9.53-8.4,19.35-11.36,29.54c-3.24,11.15-5.28,22.49-6.92,33.98c-1.45,10.13-1.2,20.26-0.68,30.3
		c0.67,12.9,4.3,25.04,13.74,34.78c11.57,11.94,26.16,17.79,41.91,21.55c7.78,1.85,15.6,3.41,23.5,4.61
		c4.05,0.62,8.17,1.38,12.23,1.26c12.1-0.34,23.97,1.38,35.91,2.92c8.7,1.12,17.56,0.03,25.75-3.08
		c11.43-4.35,22.45-9.74,32.55-16.74c9.04-6.27,17.41-13.41,26.06-21c-0.74,4.17-2.93,7.16-5.31,9.84
		c-10.01,11.3-16.46,24.64-22.7,38.18c-3.98,8.63-7.12,17.49-9.2,26.73c-1.61,7.16-2.83,14.39-3.81,21.7
		c-1.58,11.78-0.79,23.55-0.71,35.31c0.05,7.74-2.25,13.83-8.21,18.62c-4.38-1.49-4.04-1.59-3.43-5.58
		c0.74-4.88,3.66-8.72,5.24-13.23c-3.13,2.48-4.8,6.05-7.04,9.17c-5.07,7.06-11.54,12.85-17.85,18.69
		c-6.59,6.1-13.93,11.36-22.14,15.26c-2.4,1.14-4.95,1.73-7.47,2.17c-5.22,0.93-10.21-3.68-11.23-9.92
		c-0.6-3.73-1.59-7.43-0.72-11.85c-4.95,2.59-6.33,7.32-9.13,10.75c-2.86,3.51-6.05,6.5-9.78,8.91c-2.28,1.47-5.13,2.22-7.42,0.45
		c-2.26-1.75-2.43-4.72-1.8-7.34c0.59-2.47,1.82-4.78,3-7.75c-5.16,1.83-7.89,7.78-13.87,6.62c1.45-4.84,2.51-5.94,8.09-8.4
		c-10.43,1.18-20.77,0.59-31.08,0.58c-11.85-0.01-23.48-2.2-35.09-4.35c-11.54-2.13-22.89-5.19-33.99-8.83
		c-12.51-4.1-24.92-8.59-37.08-13.72c-13.94-5.88-27.35-12.83-40.99-19.33c-8.64-4.12-16.1-10.54-25.58-12.99
		c-1.01-0.26-1.89-1.24-2.19-2.6c4.8-3.18,9.4-2.64,14.04,1.22c0.29-3.88-2.98-4.74-4.44-6.73c-7.1-9.61-14.66-18.87-21.85-28.42
		c-5.89-7.83-11.64-15.76-17.14-23.86c-4.21-6.2-8.14-12.62-11.84-19.14c-5.33-9.37-10.3-18.94-14.41-28.92
		c-6.47-15.68-11.88-31.6-14.94-48.41c-1.51-8.32-1.38-16.66-2.46-24.96C79.41,472.88,80.92,467.37,84.64,462.5z"/>
	<path class="st0" d="M216.81,151.07c1.08,1.94,3.53,1.44,5.27,3.17c-24.84,10.9-44.29,26.3-48.08,55.18
		c2.04,1.77,3.71,0.16,5.89-1.64c-1.59,4.62-3.14,8.19-4,11.92c-0.82,3.57,0.72,7.51-1.23,11.69c-3.92-10.48-11.7-16.8-19.23-23.45
		c-12.76-11.26-28.91-14.68-44.39-19.57c-4.15-1.31-8.8-0.26-13.26-1.17c-6.71-1.37-13.34-3-19.97-4.68
		c-0.62-0.16-1.67-0.32-2.06-2.31c5.24-1.18,10.79-0.2,15.99-1.57c5.35-1.41,11.07-0.92,16.85-3.03c-7.68-2.66-15.02-4.3-22.74-4.61
		c-11.8-0.47-23.29,1.19-34.54,4.44c-2.14,0.62-3.36-0.85-5.19-0.59c-1.43-7.45,1.16-13.44,6.14-18.84
		c5.4-5.85,11.69-10.33,19.56-13.44c-3.62-1.26-5.79,0.74-7.9,2.03c-4.04,2.46-8.13,4.89-11.53,8.3c-1.68,1.68-4.09,2.12-6.29,2.37
		c-7.03,0.78-14.07,3.47-22.13-0.02c7.45-5.03,16.01-2.67,23.02-6.17c-6.48,0-12.96-0.04-19.44,0.01
		c-6.29,0.04-12.34-1.27-18.33-3.02c-1.6-0.47-2.98-1.23-4.3-2.29c-2.6-2.07-2.87-3.74-0.91-6.45c4.4-6.1,9.82-11.3,15.41-16.18
		c7-6.11,14.4-11.81,22.4-16.68c10.19-6.2,20.41-12.29,31.55-16.71c2.03-0.81,4.2-1.64,5.6-3.72c-11.31,4.35-22.23,9.48-32.64,15.79
		c-10.44,6.33-20.73,12.82-29.96,20.99C28.27,97.65,46.2,80.03,67.16,65.28c20.76-14.61,42.92-26.22,68.61-30.07
		c-4.11-1.71-8.33-1.2-20.66,2.94c-6.58,2.21-13.01,4.84-19.68,6.92c1.68-3.51,4.62-5.37,7.76-7.08
		c8.92-4.85,17.98-9.18,28.08-11.16c7.53-1.47,15.1-2.63,22.66-3.86c6.96-1.13,14,0.07,20.78-1.06c9.15-1.53,18.15,0.07,27.11,0.49
		c11.4,0.53,22.85,1.52,34.24,3.4c18.22,3.01,35.71,8.09,51.93,16.55c13.86,7.23,27.47,15.06,40.9,23.15
		c4.75,2.86,9.4,5.88,14.19,8.66c0.73,0.42,1.35,0.96,1.72,2.61c-9.2,0.22-17.49,2.39-21,12.57c2.46,3.4,6.53,5.1,9.86,7.61
		c6.02,4.55,11.99,9.08,17.72,14.04c12.92,11.19,23.09,24.55,32.67,38.53c2.86,4.17,5.5,8.54,8.72,12.45
		c8.25,9.97,12.07,22.01,16.43,33.87c4.45,12.08,7.97,24.47,11.12,36.88c2.59,10.22,5,20.61,5.64,31.32
		c0.26,4.43,0.9,8.67-0.06,13.14c-0.5,2.29-0.58,4.89,0.52,7.34c0.74,1.64,0.73,3.64-0.1,5.32c-0.64,1.3-0.61,2.59-0.54,3.89
		c0.35,6.19,2.56,8.25,8.71,8.35c3.93,0.06,7.72,0.73,11.49,2.66c-2.75,8.66-6.57,16.6-10.85,24.27c-1.67,3-3.48,5.95-4.8,9.09
		c-2.35,5.57-6.74,7.8-12.3,7.86c-2.55,0.03-4.88,0.78-7.24,1.29c-2.29,0.5-4.17,1.83-5.17,4.65
		c-5.08,14.31-11.24,28.16-18.87,41.33c-2.99,5.16-2.86,5.7,1.03,8.65c-3.35,6.87-8.11,12.93-11.95,19.53
		c-2.46,4.23-5.54,8.1-7.91,12.38c-1.44,2.59-3.21,3.3-5.96,3.31c-9.26,0.01-12.44,2.97-16.34,11.79
		c-6.14,13.88-11.51,28.01-15.93,42.51c-3.67,12.02-5.49,24.32-4.87,36.91c0.1,2.09,0.59,4.22,1.23,6.23
		c2.35,7.43,3.11,15.25,6.22,23.08c-2.24-0.19-2.79-1.9-4.18-2.33c-0.03,0.48-0.26,1.09-0.05,1.38
		c8.15,11.15,19.07,18.75,31.49,24.39c1.33,0.61,2.58,1.49,3.98,1.86c1.58,0.42,2.04,2.14,3.59,2.61
		c-4.33,1.13-8.24-0.93-12.14-1.73c-12.69-2.6-24.91-6.95-35.29-14.9c-8.21-6.28-14.5-14.21-15.91-25.06
		c-1.54-11.87-1.19-23.69-0.08-35.59c1.53-16.55,5.98-32.34,11.17-47.99c2.22-6.7,6.34-12.45,9.81-18.51
		c0.49-0.86,0.94-1.61,1.18-2.63c1.28-5.51,1.13-5.52-4.55-7.13c-10.81-3.07-22.12-3.98-32.75-7.83c-1.98-0.72-3.91-1.62-5.9-2.32
		c-4.15-1.47-5.29-8.11-2.14-11.89c8.31-10,19.05-15.65,31.84-17.98c9.23-1.68,17.76,0.9,26.42,3.06c3.66,0.92,7.61-0.33,10.45-3.92
		c9.42-11.92,16.14-25.27,20.82-39.67c2.01-6.17,0.44-8.56-5.85-8.33c-9.68,0.36-18.77-2.13-27.94-4.78
		c-7.26-2.11-14.23-4.42-20.35-9.16c-6.39-4.95-6.26-10.88,0.85-15.09c6.28-3.71,13.32-5.31,20.28-6.86
		c7.17-1.59,14.5-2.44,21.8-3.41c6.71-0.89,13.5,0.12,20.13-1.66c4.15-1.11,6.73-3.6,6.81-8.21c0.12-7.1-1.05-14.08-1.82-21.11
		c-1.03-9.46-2.73-18.76-5.23-27.89c-4.21-15.38-8.77-30.66-15.01-45.39c-4.81-11.35-11.71-21.46-18.16-31.81
		c-4.87-7.81-12.65-13.17-19.31-19.41c-4.4-4.12-9.47-7.53-14.27-11.21c-6.98-5.35-15.59-7.26-23.39-10.87
		c-3.22-1.49-6.48-3.03-9.81-4.37c-6.84-2.77-13.38-2.24-20.18-0.22c-8.81,2.61-17.31,5.81-24.68,11.43
		c-6.32,4.81-11.79,10.53-16.89,16.61C216.72,149.99,216.86,150.64,216.81,151.07z"/>
	<path class="st0" d="M556.94,105.33c-3.54,2.55-7.2,4.94-10.58,7.68c-4.36,3.54-9.32,5.92-14.77,5.41c-3.8-0.36-4.26,1.82-4.75,4
		c-1.37,6.13,4.83,17.89,10.7,19.86c5.04,1.69,10.34,1.02,15.84,0.02c-0.75,11.64-6.5,19.6-16.67,24.2
		c6.93,3.9,13.82,2.85,20.31-1.74c1.63,4.09,0.86,7.74,0.9,11.42c0.07,7.35,2.02,14.49,4.95,21.29c0.25,0.58,0.9,1.01,0.7,1.76
		c-5.24-1.18-8.86-3.94-9.09-13.07c-2.97,11.75-3.62,15.86-1.65,25.96c1.16,5.97,7.99,10.74,15.24,10.92
		c3.05,0.07,6.1,0.01,9.18,0.01c-1,6.62-0.04,13.36-2.48,19.8c-2.72,7.17-10.46,14.29-19.23,13.22c-2.77-0.34-5.31-1.41-9.38-4.62
		c1.67,4.39,8.29,7.44,13.28,6.3c3.91-0.9,7.41-2.5,10.3-5.27c1.35-1.29,2.46-1.73,4.36-0.76c4.79,2.45,9.79,4.5,14.63,6.85
		c3.7,1.8,3.75,2.12,1.26,5.8c-2.83,4.19-5.58,8.44-8.68,12.42c-3.41,4.36-6.46,4.28-10.15,0.18c-2.94-3.27-4.83-6.53-2.87-11.35
		c1.1-2.71,1.11-6.11-0.5-9.28c-2.05,0.58-3.45,2.05-4.13,3.47c-1.94,4.02-4.74,3.96-8.42,2.02c3.09,4.93,3.53,4.82,10.81-2.15
		c3.12,7.99-3.35,17.53-9.45,20.86c-5.81,3.17-15.24-0.3-18.87-6.61c-3.32-5.77-5.59-11.71-5.09-18.66
		c0.5-6.96-3.52-13.16-4.31-19.98c-0.63-5.47-1.04-10.92-0.67-16.43c0.17-2.62,0.03-5.26-0.23-7.88
		c-2.6,12.91-0.66,25.54,2.31,38.11c-8.39-0.27-11.62-2.62-13.51-8.86c-0.58-1.91,0.36-3.53,1.1-3.78c5.86-1.97,5.12-7.41,6.3-11.69
		c0.59-2.14,0.1-4.58-0.05-6.88c-1.66,5.87-2.72,6.8-9.24,7.14c-2.56,0.13-4.82,1.39-7.71,0.65c-7.38-1.88-11.59-6.27-12.97-13.63
		c-0.21-1.1-1.27-2-0.47-3.9c9.95,1.71,17.38-4.13,24.7-9.85c3.62-2.83,6.5-6.53,7.79-11.26c-1.83,2.34-3.66,4.69-5.62,7.19
		c-5.13-2.59-5.48-7.84-7.72-12.71c3.3,0.44,5.82,1.3,8.24,3.23c-13.21-25.01-13.55-50.38-3.19-76.28
		c-3.08,1.59-5.73,3.57-7.95,6.46c-0.14-10.71,1.64-20.78,7-30.41c5.34-9.57,11.66-17.97,21.06-23.94
		c-3.27,0.01-5.95,2.32-9.43,1.24c2.42-4.18,7.05-5.79,9.87-9.34c-2.71-2.75-6.97-4.82-7.14-10.42c8.52,2.52,16.18-0.31,23.37-3.38
		c9.87-4.22,19.57-8.75,29.92-11.74c7.26-2.09,14.58-3.29,22.12-4c11.23-1.07,21.6,1.92,31.81,5.49c4.98,1.75,9.33,5.31,14.04,8.09
		c2.35-2.72,5.33-3.79,9.03-2.67c1.98,0.6,3.75,0.52,5.92-0.32c11.78-4.6,23.11-2.73,33.97,3.26c12.25,6.76,22.18,16.01,28.24,28.65
		c3.35,6.98,5.33,14.64,6.54,22.41c0.48,3.1,0.66,6.2,1.02,9.29c1,8.58,7.7,14.48,15.14,16.84c1.47,0.47,3.16,0.19,4.7-0.65
		c3.58,7.42,2.08,14.28-1.05,20.95c-1.07,2.28-3.24,3.67-5.59,4.66c-3.7,1.55-7.65,1.04-11.49,1.43c-3.81,0.39-5.11-2.24-5.72-5.29
		c-1.02-5.03-1.5-10.12-0.92-15.26c0.76-1.67,2.4,0.85,3.3-0.73c0.66-1.17,0.79-1.12-1.07-7.18c-1.41,2.01,0.72,3.99,0.23,6.17
		c-2.72-0.35-3.43-3.89-6.68-3.25c3.48,4.2,2.04,9.45,2.92,14.27c1.59,8.72,3.19,17.19,8.84,24.51c3.73,4.83,8.41,6.07,14.16,6.51
		c0.94,10.25-0.68,20.18-10.26,26.96c-6.17,4.37-16.13,4.38-20.58-0.76c0.64-2.34,2.84-4.45,1.63-7.55c-1.72,2.3-1.4,5.59-4.15,7.15
		c-2.6,1.47-5.05,3.2-8.44,1.59c1.29-4.27,3.99-8.03,5.45-12.34c2.58-7.65,2.73-15.23,1.77-23.26c-0.89-7.49-2.73-14.8-3.48-22.31
		c-0.35-3.59,0.55-6.83,1.54-9.87c1.27-3.94,1.73-8.01,2.39-11.97c0.65-3.9-0.65-8.02-2.47-11.85c1.35,8.28,1.39,16.54-1.45,24.42
		c-2.81,7.78-6.62,15.14-11.46,23.41c-0.19-2.13-0.6-3.24-0.31-4.11c2.72-8.25-0.74-15.82-2.6-23.51
		c-2.11-8.71-6.58-16.23-12.7-22.81c-1.96-2.11-4.29-3.52-6.81-4.78c-1.97-0.98-2.08,0.72-3.01,1.59c6.91-0.92,8.4,4.85,12.23,9.07
		c-3.3,0-5.91-0.52-8.18,0.14c-2.34,0.68-4.38,1.94-6.67-0.15c-0.75,3.63,0.3,7.12-2.2,10.73c-1.9-4.4-3.68-7.98-4.95-11.73
		c-0.6-1.78-1.03-3.21-3.13-3.05c-2.39,0.19-2.8-1.73-3.63-3.46c-0.69,1.68-0.51,3.18-0.36,4.58c0.87,8.3-3.54,14.71-8.49,20.18
		c-3.6,3.97-9.46,6.2-14.95,6.46c-9.67,0.46-19,2.27-28.31,4.74c4.99-3.58,10.67-5.35,16.56-6.52c6.35-1.26,13.08-1.01,18.75-4.92
		c7.16-4.94,12.06-11.08,11.35-20.36c-0.87-0.26-1.4,0.09-1.69,0.71c-4.82,10.33-13.33,15.86-23.7,19.94
		c-11.45,4.5-23.39,8.31-33.08,16.47c-3.46,2.92-7.59,5.09-10.05,9.13c-0.92,1.51-2.35,2.15-4.23,2.04c-2.49-0.14-5-0.02-7.5-0.04
		c-1.35-0.01-2.71-0.09-3.32,1.66c3.64,1.04,7.44-0.79,10.86,0.75c-3.86,8.39-7.5,17.22-16.52,21.79c0.65,1.44,0.77,2.49,1.34,2.86
		c6.1,3.99,4.24,9.83,3.66,15.9c-12.6-7.46-13.12-19.87-14.08-32.61c-1.75,10.19-5.83,13.07-17.21,12.47
		c0.93-2.17,3.08-2.96,4.59-4.15c5.31-4.16,8.08-9.5,9.02-16.08c0.75-5.19,3.81-9.29,7.08-13.2c1.13-1.35,2.73-2.29,3.86-4.62
		c-3.69,1.56-5.51,4.34-7.66,6.62c-1.63,1.72-1.81,4.99-4.47,5.48c-4.5,0.83-9.03,1.89-13.7,0.8c-3.77-0.88-6.49-3.05-8.04-6.44
		c-2.11-4.6-4.22-9.29-2.75-14.66c1.3-0.99,2.87-0.61,4.29-0.5c4.23,0.32,7.51-1.36,10.83-3.85c3.64-2.74,8.09-4.38,11.02-8.15
		c0.71-0.91,1.7-1.6,1.58-2.93c4.86-3.5,7.07-9.15,10.94-13.49c13.52-15.21,29.25-23.16,50.01-16.82c1.51,0.46,3.35,1.88,5.84,0.56
		c-12.3-4.88-24.08-6.32-36.01-0.75c-11.71,5.47-20.86,13.87-27.49,24.88C558.98,101.38,556.09,102.42,556.94,105.33z"/>
	<path class="st0" d="M333.8,87.54c2.79-2.2,5.7-3.85,9.43-3.47c3.18,0.32,6.07-1.63,9.62-0.26c3.05,1.18,5.53,3.03,7.8,4.91
		c5.83,4.82,11.85,9.46,17.17,14.89c3.7,3.78,7.77,7.19,11.57,10.83c5.34,5.1,10.19,10.79,14.73,16.63
		c9.88,12.68,18.47,26.31,27.83,39.37c11.69,16.32,17.65,34.59,20.91,54.13c2.1,12.58,3.3,25.17,2.81,37.88
		c-0.39,9.97-1.39,19.88-4.89,29.4c-1.1,3-2.73,3.72-5.55,3c-2.98-0.77-5.99-1.44-9.42-2.25c1.77-4.45,0.37-8.85,0.04-13.34
		c-0.44-5.8,0.06-11.66-0.14-17.48c-0.47-13.63-3.21-26.88-6.93-39.96c-3.33-11.74-6.98-23.37-10.96-34.91
		c-2.94-8.52-6.47-16.76-11.36-24.29c-2.84-4.38-6.82-8-9.86-12.27c-5.12-7.19-10.2-14.39-15.81-21.22
		c-5.07-6.17-10.55-11.88-16.42-17.32c-8.96-8.3-19.67-14.12-29.09-21.72C334.67,89.57,333.98,89.03,333.8,87.54z"/>
	<path class="st0" d="M692.62,246.92c8.99-9.16,17.71-18.53,24.49-30.24c3.03,6.08,5.66,11.44,12.92,12.63
		c6.8,1.12,11.7-2.47,17.58-5.52c-0.46,4.32-1.32,8.16-3.06,11.47c-5.47,10.4-12.29,19.75-22.58,26.05
		c-2.53,1.55-5.21,2.78-8.01,3.54c-5.85,1.57-11.14-1.35-14.58-7.53c-2.05-3.67-3.3-7.89-6.91-10.54L692.62,246.92z"/>
	<path class="st0" d="M751.35,204.22c-7.4,10.01-13.31,13.21-22.96,12.64c-1.24-1.09-1.37-2.83-2.34-4.16
		c-1.4,4.73,1.47,8.16,3.44,12.02c-5.6-0.44-9.08-3.05-10.31-8.59c-0.26-1.19-0.34-2.06,0.1-3.25c2.44-6.51,0.81-12.82-1.21-19.1
		c-1-3.09-0.49-5.54,3.35-6.35c1.97,1.79,4,3.54,7.09,3.78c2.1,0.17,3.92,1.6,5.14,3.51C737.66,201.03,743.36,204.28,751.35,204.22z
		"/>
	<path class="st0" d="M692.47,246.78c2.33,4.4,2.81,8.93,0.44,14.1c-4.55,1.13-6.63-3.66-10.54-5.41c2.77-3.99,7.01-5.68,10.24-8.55
		L692.47,246.78z"/>
	<path class="st0" d="M680.51,256.63c-1.56,2.99-1.59,6.53-3.9,8.94c-1.43,1.49-2.68,3.05-5.07,3.67c-5.2,1.36-5.87,1.01-5.53-4.83
		C670.97,262.22,675.39,258.91,680.51,256.63z"/>
	<path class="st0" d="M344.71,471.29c3.36-7.47,6.66-14.97,10.12-22.39c0.82-1.76,2.1-3.42,5.17-2.41
		c-4.69,8.71-10.34,16.59-14.19,25.47C345.45,471.74,345.08,471.51,344.71,471.29z"/>
	<path class="st0" d="M408.86,369.6c1.57-4.08,4.87-7.48,5.15-12.22c1.4-0.25,2.78-0.5,5.35-0.97c-3.48,5.03-6.49,9.39-9.5,13.74
		C409.52,369.97,409.19,369.78,408.86,369.6z"/>
</g>
</svg>
