<?xml version="1.0" encoding="utf-8"?>
<!-- Generator: Adobe Illustrator 24.0.2, SVG Export Plug-In . SVG Version: 6.00 Build 0)  -->
<svg version="1.1" id="Ñëîé_1" xmlns="http://www.w3.org/2000/svg" xmlns:xlink="http://www.w3.org/1999/xlink" x="0px" y="0px"
	 width="135.94" height="33.2" viewBox="0 0 135.94 33.2" style="enable-background:new 0 0 135.94 33.2;" xml:space="preserve">
<style type="text/css">
	.st0{fill:#FFFFFF;}
	.st1{fill:#ED1C24;}
	.st2{fill:#009444;}
	.st3{fill:#9A6B37;stroke:#000000;stroke-width:0.13;}
	.st4{fill:#C88912;stroke:#000000;stroke-width:0.13;}
	.st5{fill:#CF7418;stroke:#000000;stroke-width:0.13;}
	.st6{fill:#FFFFFF;stroke:#000000;stroke-width:0.13;}
	.st7{fill:#00A886;stroke:#000000;stroke-width:0.13;}
	.st8{fill:#004FA3;stroke:#000000;stroke-width:0.13;}
	.st9{fill:none;stroke:#000000;stroke-width:0.13;}
	.st10{fill:#BC9408;stroke:#000000;stroke-width:0.13;}
	.st11{fill:#009D57;stroke:#000000;stroke-width:0.13;}
	.st12{fill:#CE6E19;stroke:#000000;stroke-width:0.13;}
	.st13{fill:#009A66;stroke:#000000;stroke-width:0.13;}
	.st14{fill:#00AB67;stroke:#000000;stroke-width:0.13;}
	.st15{fill:#EF3E33;stroke:#000000;stroke-width:0.13;}
	.st16{fill:#559534;stroke:#000000;stroke-width:0.13;}
	.st17{stroke:#000000;stroke-width:0.13;}
	.st18{fill:none;stroke:#E4E5E6;stroke-width:0.13;}
</style>
<g>
	<path d="M0,29.65h0.37v-0.26h0.37v-1.46h0.69v-2.84H2.5v-0.16h0.81v2.7h0.14v-2.46h1.2l0.22,0.33v2.8c0,0,0.26,0.1,0.26,0
		c0-0.1,0-3.17,0-3.17h0.75v-0.35h1.28v0.24l0.57,0.43v3.09h1.32v-0.49h1.38V15.25h2.45l2,0.73v6.47h0.52V9.86h8.94v2.11h0.49v9.39
		h0.6v2.6h1.91v-0.39h1.14l-0.1-5.3l0.53-0.53v-1.4h3.37v1.22h2.64v6.33h0.52l0.46,0.81h2.57v1.14h1.03l0.79,1h0.76v1.49h1.35v0.57
		h0.68v-1.14h0.62V15.39h8.64v2.56h1.99v2.56h1.02v-2.23h0.28V6.49h1.18V5.88h0.93V0h0.12v5.69h1.03v0.84h0.95V6.07h1.11v14.6h2.19
		V5.23h7.42v1.41L72,7.4v6.29h0.92V5.45l1.42-1.67V1.5h0.77v0.45h0.77V1.5h0.65v2.11l1.22,1.63l1.71-1.46V1.52h0.72v0.32h0.87V1.46
		h0.6v2.33l1.44,3.03v11.05h1.49v-1.17l1.68-0.87V7.31l3.66-5.55l3.33,6.12c0,0-0.16,10.94,0,10.94c0.16,0,1.49,0,1.49,0v-3.06h1.54
		v3.01h4.04v0.51h0.95v-5.55h3.64v-3.13l2.64-5.08v-2.8h0.37v2.84l2.76,5v2.15h0.37v4.55h0.49v7.07h1.42v-1.06h2.93v-0.41h1.06
		v-1.26l2.28-3.66l1.91,2.88v0.61h3.66v0.57h0.57V21.5h0.53v1.46h2.44v1.14h3.01v3.82h3.25v0.89h1.38v0.84v3.55H0V29.65z"/>
</g>
</svg>
