<?xml version="1.0" encoding="utf-8"?>
<!-- Generator: Adobe Illustrator 24.0.2, SVG Export Plug-In . SVG Version: 6.00 Build 0)  -->
<svg version="1.1" id="Ñëîé_1" xmlns="http://www.w3.org/2000/svg" xmlns:xlink="http://www.w3.org/1999/xlink" x="0px" y="0px"
	 width="135.93" height="20.5" viewBox="0 0 135.93 20.5" style="enable-background:new 0 0 135.93 20.5;" xml:space="preserve">
<style type="text/css">
	.st0{fill:#FFFFFF;}
	.st1{fill:#ED1C24;}
	.st2{fill:#009444;}
	.st3{fill:#9A6B37;stroke:#000000;stroke-width:0.13;}
	.st4{fill:#C88912;stroke:#000000;stroke-width:0.13;}
	.st5{fill:#CF7418;stroke:#000000;stroke-width:0.13;}
	.st6{fill:#FFFFFF;stroke:#000000;stroke-width:0.13;}
	.st7{fill:#00A886;stroke:#000000;stroke-width:0.13;}
	.st8{fill:#004FA3;stroke:#000000;stroke-width:0.13;}
	.st9{fill:none;stroke:#000000;stroke-width:0.13;}
	.st10{fill:#BC9408;stroke:#000000;stroke-width:0.13;}
	.st11{fill:#009D57;stroke:#000000;stroke-width:0.13;}
	.st12{fill:#CE6E19;stroke:#000000;stroke-width:0.13;}
	.st13{fill:#009A66;stroke:#000000;stroke-width:0.13;}
	.st14{fill:#00AB67;stroke:#000000;stroke-width:0.13;}
	.st15{fill:#EF3E33;stroke:#000000;stroke-width:0.13;}
	.st16{fill:#559534;stroke:#000000;stroke-width:0.13;}
	.st17{stroke:#000000;stroke-width:0.13;}
	.st18{fill:none;stroke:#E4E5E6;stroke-width:0.13;}
</style>
<g>
	<path d="M135.37,15.61h-0.15l-1.35-1.46l-1.54,0.07V13.7h-0.22v-0.28h-0.15v0.23h-0.2v0.59l-1.34,0.1l-0.37,0.37l-1.64-0.01V14.3
		l-0.08-0.09v-2.03l0.07-0.08v-1.03h0.17v-0.06l-0.58-1.27l-0.89-1.34l-0.21,0.08l-0.05,0V6.85c0.08-0.06,0.29-0.2,0.46-0.14
		c0.21,0.07,0.44,0.23,0.58,0.15c0,0-0.08-0.47-0.07-0.61c0,0-0.18,0.09-0.37-0.02c-0.16-0.1-0.49-0.02-0.59,0.05V6.16
		c0.03-0.01,0.05-0.04,0.05-0.08c0-0.05-0.04-0.09-0.09-0.09c-0.05,0-0.09,0.04-0.09,0.09c0,0.04,0.02,0.07,0.05,0.08v2.33
		l-0.3,0.01l-0.84,1.27l-0.63,1.33l0.16,0.01v1.05h0.08V14h-1.17v-0.51h-0.54v0.62h-0.93l-0.32,0.36h-3.85v-0.14h-0.1v-0.09
		l-0.08-0.11l-0.23-0.05l-0.03-0.06v-0.06V13.9l-0.04-0.18h-0.18l-0.07,0.19l-0.2,0.08l-0.06-0.03l-0.2,0.02l-0.08,0.11L116,13.79
		v-0.15l-0.11-0.05v-0.3l-0.05-0.17h-0.04v-0.14h-0.04v-0.12l-0.07-0.03v-0.11h-0.03v-1.87l0.04-0.04v-0.1h-0.04V10.6h0.05v-0.07
		l-0.05-0.04v-0.13l0.21-0.11v-0.06h0.03v-0.04l-0.24-0.1V9.95l-0.05-0.05V9.8h-0.08V9.58h-0.12l-0.05-0.14h0.03l0.05-0.03
		l0.05-0.05l-0.07-0.05l-0.06,0.06l-0.13-0.12V9.12l-0.07-0.04V8.96h-0.05l-0.03,0.03l0.03,0.07L115.05,9c0,0-0.12-0.44-0.42-0.68
		c-0.3-0.25-0.58-0.39-0.58-0.39V7.86h0.03V7.79l-0.08-0.05V7.4l-0.11-0.11V7.16l-0.12-0.1V7.01h-0.02l-0.01-0.12l0.02-0.03
		l0.02-0.2l0.13-0.07l0.03-0.05l-0.06-0.02l-0.04-0.05l-0.03-0.07l0.02-0.07V6.27l-0.05-0.01l-0.04,0.04l-0.04,0.01l0.03-0.12
		l0.04-0.05V5.99h-0.04v0.07l-0.08,0.15l-0.02,0.08c0,0,0.06,0.14,0.05,0.15c-0.01,0.01,0,0.08,0,0.08l-0.05,0.24l0.05,0.13v0.12
		h-0.03v0.05l-0.12,0.1v0.13L113.4,7.4v0.34l-0.08,0.05v0.07h0.03v0.06c0,0-0.28,0.15-0.58,0.39c-0.3,0.25-0.42,0.68-0.42,0.68
		l-0.06,0.05l0.03-0.07l-0.03-0.03h-0.05v0.13l-0.07,0.04v0.13l-0.13,0.12l-0.06-0.06l-0.07,0.05l0.05,0.05L112,9.44h0.03
		l-0.05,0.14h-0.12V9.8h-0.08v0.1l-0.05,0.05v0.09l-0.24,0.1v0.04h0.03v0.06l0.21,0.11v0.13l-0.05,0.04v0.07h0.05v0.13h-0.04v0.1
		l0.04,0.04v1.87h-0.03v0.11l-0.07,0.03v0.12h-0.04v0.14h-0.03l-0.05,0.17v0.3l-0.11,0.05v0.15l-1.14,0.31L110.17,14l-0.2-0.02
		L109.91,14l-0.2-0.08l-0.07-0.19h-0.18l-0.04,0.18v0.06v0.06l-0.03,0.06l-0.23,0.05l-0.06,0.09v-3.53h-0.28v-0.53h-0.84v-0.3h0.14
		V9.31h-0.14V8.99h0.14V8.45h-0.14V8.13h0.14V7.59h-0.14V7.26h0.14V6.72h-0.14V6.4h0.14V5.86h-0.14V5.54h0.14V4.99h-0.14V4.67h0.14
		V4.13h-0.14V3.81h0.14V3.26h-0.14V2.94h0.14V2.4h-0.14V2.08h0.14V1.54h-0.14V1.21h0.14V0.67h-0.14V0.35h-2.74V0.04h-2.99
		l-0.28,0.28h-1.74v0.25h-0.78v0.1h-0.17v0.54h0.17v0.32h-0.17v0.54h0.17V2.4h-0.17v0.54h0.17v0.32h-0.17v0.54h0.17v0.32h-0.17v0.54
		h0.17v0.32h-0.17v0.54h0.17v0.32h-0.17V6.4h0.17v0.32h-0.17v0.54h0.17v0.32h-0.17v0.54h0.17v0.32h-0.17v0.54h0.17v0.32h-0.17v0.54
		h0.17v0.32h-0.17v0.54h0.17v0.32h-0.17v0.54h0.17v0.32h-0.17v0.54h0.17v0.32h-0.17v0.54h0.17v0.32h-0.17v0.2h-0.61v-1.87H98v0.41
		h-1.25v-0.84h-0.87V11h-2.87v0.78h-0.44v-0.53l-0.4-0.5h-1.87v-0.34h-1.9v0.53h-1.09v2.09h-0.19v0.19h0.19v0.34h-1.25v-0.53h-0.56
		v0.5H84.7v-0.31h-0.44v0.37h-0.3v0.2h-0.12v0.02L65.67,5.91l0-4.8h-0.16l-0.4,1.23L65.07,6l-19.23,9.36v-1.22h0.12v-0.18h-0.12
		v-0.13h-0.11v0.13h-0.14v0.18h0.14v1.28l-1.32,0.64h-0.24v0.11l-0.04,0.02h-0.34v-1.55h0.1v-0.36h-0.1v-0.24h0.08V13.6h-0.44
		c0,0,0.06-0.11,0-0.11c-0.06,0-0.33,0-0.33,0v-2.7h-0.41v-0.12h-0.25v0.07h-0.48v0.08h-0.43V9.77H41.4V9.65h-0.06V9.47h0.06V9.13
		h-0.06V8.94h0.06V8.6h-0.06V8.41h0.06V8.07h-0.06V7.89h0.06V7.55h-0.06V7.36h0.06V7.02h-0.06V6.83h0.06V6.49h-0.06V6.31h0.06V5.97
		h-0.06V5.78h0.06V5.44h-0.06V5.25h0.06V4.91h-0.06V4.73h0.06V4.39h-0.06V4.2h0.06V3.86h-0.06V3.67h0.06V3.33h-0.06V3.15h0.06V2.81
		h-0.06V2.62h0.06V2.28h-0.06V2.09h0.06V1.76h-0.06V1.57h0.06V1.23h-0.06V1.16l-2.23-0.42h-1.63v0.2h-0.56v-0.2H35.3l-0.32,0.2H31.7
		v0.99h-0.44V1.16h-0.08V0.93l-0.25-0.19V0.52H30.8V0h-0.16v1.71h-0.18v0.14h-0.28V1.33l-0.12-0.09V1.12h-0.2v0.17l-0.12,0.2h-0.21
		v0.4h-0.79l-0.29,0.22v1.21h-0.43v6.93l-0.17,0.15v1.23h-0.16v-0.1h-0.11v0.08h-0.09v-0.03h-0.05v-0.12h0.05v-0.58h-0.05v-0.12
		h0.05v-0.58h-0.05v-0.12h0.05V9.49h-0.05V9.38h0.05V8.8h-0.05V8.71h-1.44l-0.94-0.8V4.34L22,3.95V3.84h-0.79v0.14h-0.26v-2
		l-4.27-0.49l-4.36,0.31v9.13h-0.45v-0.85h-0.15v0.87h-0.39V9.64h-0.15v1.22H9.7v-0.42H6.9v0.34H6.42v1.52H3.91v4.1H1.79v-0.73H1.66
		v0.73H1.52v-0.16H0.34v0.16H0.1v0.18H0v0.42h0.1v0.18H0v0.42h0.1v0.18H0v0.42h0.1v0.18H0v0.42h0.1v0.18H0v0.42h0.1v0.18H0v0.42h0.1
		v0.54h34.66h1.17h13.73h1.17h1.77v-2h12.07l-0.11,2h1.16l-0.11-2h13.95l-0.11,2h1.17l-0.11-2h13.95l-0.11,2h1.17l-0.11-2h10.01
		l-7.31,2h37.76v-3.92h0.08v-0.11L135.37,15.61z M48.9,16.09l-0.38-0.23h-0.32l-0.18,0.29H47.5l1.99-1.06v0.68l-0.55,0.32H48.9z
		 M47.18,16.61h-0.52l0.52-0.28V16.61z M45.73,16.61h-0.05v-0.24l0.05-0.02V16.61z M49.33,16.09h-0.14l0.31-0.18v0.31L49.33,16.09z
		 M49.5,14.96l-2.25,1.2h-0.07v0.04l-0.78,0.41h-0.56v-0.32l3.66-1.87V14.96z M45.73,15.56v0.65l-0.05,0.02v-0.15h-0.32v0.14H45
		v-0.16h-0.31L45.73,15.56z M53.27,16.75h-0.11v0.72h-0.57v-0.16h-0.29l0.98-0.74V16.75z M53.27,16.42l-1.09,0.82v-0.16h-1.29v-0.32
		h-0.67l3.05-1.94V16.42z M56.93,17.48h-0.09l0.09-0.1V17.48z M57.04,16.75h-0.11v0.44l-0.26,0.28h-2.54l2.91-2.52V16.75z
		 M60.4,17.48h-0.59l0.59-0.97V17.48z M60.81,16.08l-0.21,0.09l0.21-0.35V16.08z M65,13.7l-0.21,0.27h-0.1v-0.13h-0.11v0.13h-0.14
		v0.18h0.14v0.13l-0.19,0.06v0.19l-3.47,1.5v-0.4l4.12-6.84L65,13.7z M65.05,8.56l-4.13,6.84v-1.25h0.12v-0.18h-0.12v-0.13h-0.11
		v0.13h-0.14v0.18h0.14v1.44l-0.4,0.67l-0.25,0.11v0.12h0.11l-0.6,0.99h-2.41V17l7.78-8.58L65.05,8.56z M65.05,8.23l-7.79,8.58
		v-0.07h-0.11v-1.89l7.9-6.84L65.05,8.23z M65.06,7.86l-7.9,6.84v-0.56h0.12v-0.18h-0.12v-0.13h-0.11v0.13H56.9v0.18h0.14v0.65
		l-3.09,2.67H53.5v-0.72h-0.11v-0.26l11.68-8.83L65.06,7.86z M65.06,7.5l-11.68,8.83v-1.58l11.68-7.42L65.06,7.5z M65.06,7.19
		l-11.68,7.42v-0.46h0.12v-0.18h-0.12v-0.13h-0.11v0.13h-0.14v0.18h0.14v0.54l-3.28,2.08h-0.26v-0.36l-0.12-0.1v-0.46l15.45-8.81
		L65.06,7.19z M65.07,6.9l-15.45,8.81v-0.67l15.45-8.24L65.07,6.9z M65.07,6.66L49.61,14.9v-0.54l15.46-7.91L65.07,6.66z
		 M65.07,6.32l-15.46,7.91v-0.08h0.12v-0.18h-0.12v-0.13H49.5v0.13h-0.14v0.18h0.14v0.14l-3.66,1.87V15.5l19.23-9.36L65.07,6.32z
		 M83.97,15.06v0.23h-0.12v0.52h0.12v0.21l-0.42-0.22v-1.06l0.3,0.14v0.17H83.97z M68.47,13.97v-0.13h-0.11v0.13h-0.14v0.18h0.14
		v1.38l-1.98-1.02v-0.08h-0.23v-0.19l-0.46-0.58l0-5.14l4.54,7.98l-1.75-0.9v-1.44h0.12v-0.18H68.47z M69.88,17.48v-0.83h0.38v-0.07
		l0.52,0.91H69.88z M72.12,16.75h-0.11v0.72h-1.09l-5.24-9.22l0-0.24l6.45,7.77V16.75z M72.12,13.84v0.13h-0.14v0.18h0.14v1.45
		l-6.45-7.77V7.74l6.5,6.1H72.12z M72.35,17.48v-0.72h-0.11v-0.83l1.29,1.55H72.35z M75.78,17.48h-2.1l-1.44-1.74v-1.59h0.12v-0.13
		l3.42,3.21V17.48z M72.24,13.97V13.9l0.08,0.07H72.24z M75.9,16.75h-0.11v0.3L65.67,7.58V7.46l10.22,7.77V16.75z M75.9,13.97h-0.14
		v0.18h0.14v0.93L65.67,7.3V7.18l10.22,6.69V13.97z M76.23,17.48l-0.11-0.1v-0.62h-0.11v-1.44l2.84,2.16H76.23z M79.67,16.75h-0.11
		v0.72h-0.5l-3.04-2.31v-1.02h0.12v-0.13l3.54,2.31V16.75z M76.01,13.97v-0.03l0.05,0.03H76.01z M79.67,16.19L65.67,7.04l0-0.17
		l13.99,8.06V16.19z M79.67,13.97h-0.14v0.18h0.14v0.65L65.67,6.73v-0.2l13.99,7.37V13.97z M79.89,17.48v-0.72h-0.11v-0.35
		l1.64,1.07H79.89z M83.32,17.48h-1.69l-1.86-1.21V15l3.54,2.04V17.48z M83.44,16.75h-0.11v0.15l-3.54-2.04v-0.71h0.12v-0.13
		l3.54,1.86V16.75z M79.78,13.97v-0.01l0.03,0.01H79.78z M83.44,15.75L65.67,6.39l0-0.11l17.76,8.41V15.75z M83.44,13.97H83.3v0.18
		h0.14v0.41L65.67,6.15v-0.1l18.18,7.89v0.37h0.12v0.23h-0.12v0.22l-0.3-0.14v-0.47h0.12v-0.18h-0.12v-0.13h-0.11V13.97z
		 M83.55,15.94l0.3,0.16v0.47h0.12v0.23h-0.12v0.4l-0.19-0.11v-0.34h-0.11V15.94z M83.66,17.24l0.31,0.18v0.06h-0.31V17.24z"/>
</g>
</svg>
