<?xml version="1.0" encoding="utf-8"?>
<!-- Generator: Adobe Illustrator 24.0.2, SVG Export Plug-In . SVG Version: 6.00 Build 0)  -->
<svg version="1.1" id="Ñëîé_1" xmlns="http://www.w3.org/2000/svg" xmlns:xlink="http://www.w3.org/1999/xlink" x="0px" y="0px"
	 viewBox="0 0 135.94 48.27" style="enable-background:new 0 0 135.94 48.27;" xml:space="preserve">
<style type="text/css">
	.st0{fill:#FFFFFF;}
	.st1{fill:#ED1C24;}
	.st2{fill:#009444;}
	.st3{fill:#9A6B37;stroke:#000000;stroke-width:0.13;}
	.st4{fill:#C88912;stroke:#000000;stroke-width:0.13;}
	.st5{fill:#CF7418;stroke:#000000;stroke-width:0.13;}
	.st6{fill:#FFFFFF;stroke:#000000;stroke-width:0.13;}
	.st7{fill:#00A886;stroke:#000000;stroke-width:0.13;}
	.st8{fill:#004FA3;stroke:#000000;stroke-width:0.13;}
	.st9{fill:none;stroke:#000000;stroke-width:0.13;}
	.st10{fill:#BC9408;stroke:#000000;stroke-width:0.13;}
	.st11{fill:#009D57;stroke:#000000;stroke-width:0.13;}
	.st12{fill:#CE6E19;stroke:#000000;stroke-width:0.13;}
	.st13{fill:#009A66;stroke:#000000;stroke-width:0.13;}
	.st14{fill:#00AB67;stroke:#000000;stroke-width:0.13;}
	.st15{fill:#EF3E33;stroke:#000000;stroke-width:0.13;}
	.st16{fill:#559534;stroke:#000000;stroke-width:0.13;}
	.st17{stroke:#000000;stroke-width:0.13;}
	.st18{fill:none;stroke:#E4E5E6;stroke-width:0.13;}
</style>
<g>
	<path d="M134.96,37.3h-3.45v1.83h-1.07v-0.45h-0.82v0.56h-1.23v-0.49h-1.14v-1.5l-0.67-0.11v-3.05h-1.41v-0.25h-0.62v-0.85h-0.16
		v-0.33h-1.29v-0.73L122,31.66h-2.58v0.91h0.15v0.36h-0.85V34h-0.62v-2.05l-0.68-0.13v-9.79h-1.75v0.67h-0.69V21.8l-0.74-0.36h-1.45
		v1.34l-0.48-0.1h-3.06v1.63h-0.31v0.19h-0.23v0.14h-0.08v0.33h0.08v0.14h-0.08v0.33h0.08v0.15h-0.08v0.33h0.08v0.15h-0.08v0.33
		h0.08v0.14h-0.08v0.33h0.08V27h-0.08v0.33h0.08v0.15h-0.08v0.33h0.08v0.14h-0.08v0.33h0.08v0.15h-0.08v0.33h0.08v0.15h-0.08v0.33
		h0.08v0.15h-0.08v0.33h0.08v0.15h-0.08v0.33h0.08v0.15h-0.08v0.33h0.08v0.15h-0.08v0.33h0.08v0.15h-0.08v0.33h0.08v0.15h-0.08v0.33
		h0.08v0.15h-0.08v0.33h0.08v0.14h-0.08v0.33h0.08v0.15h-0.08v0.33h0.08v0.15h-0.08v0.33h0.08v0.15h-0.08v0.33h0.08v0.04h-0.51v0.8
		h-0.22v-1.18h-0.26c0,0,0-15.28,0-16.08c0-0.81-0.1-1.69-0.35-1.96c-0.25-0.27-0.52,0.09-0.52,0.09h-3.37c0,0-0.12-0.39-0.77-0.39
		c-0.65,0-0.83,0.42-0.83,0.42s-1.08,0-1.67,0s-0.52,0.82-0.52,0.82v0.83h-0.14v7.11H98.6v-1.47l-0.85-0.16v-1.34l-1.32-0.33
		l-1.34,0.76v0.54H94.6v0.15h-0.18l-0.67,0.43v1.12h-0.47l-0.4,0.27v1.22h-0.94v5.06h-0.38v-0.67h-0.89v-9.46l-2.29-0.57h-0.8v0.16
		h-0.34v-0.16h-0.27v0.15h-0.42v-0.12h-2.94l-0.35,0.36v7.94h-0.17c0,0,0,0.23,0,0.26c0,0.01-0.08,0.02-0.18,0.01V13.83
		c1.32-0.83,2.21-2.29,2.21-3.96c0-2.58-2.1-4.68-4.68-4.68c-2.58,0-4.68,2.1-4.68,4.68c0,1.67,0.89,3.14,2.21,3.96v9.96H77.1v-3.12
		l-4.17-0.87h-1.85v-4.79l-1.2-0.18v-1.67l-0.47-0.54l-0.4,0.47v0.4l-1.45-0.18v-1.02l-0.47-0.07v0.22l-0.83-0.25V4.21L65.2,3.84
		V1.7l-0.29-0.18V0.76L62.55,0l-4.5,0.43v0.94L57.71,1.6v2.88h-0.92v0.17h-0.05v0.17h0.05V5.1h-0.05v0.17h0.05v0.29h-0.05v0.17h0.05
		v0.29h-0.05v0.17h0.05v0.29h-0.05v0.17h0.05v0.29h-0.05v0.17h0.05v0.29h-0.05v0.17h0.05v0.29h-0.05v0.17h0.05v0.29h-0.05v0.17h0.05
		v0.29h-0.05v0.17h0.05v0.29h-0.05V9.4h0.05v0.29h-0.05v0.17h0.05v0.29h-0.05v0.17h0.05v0.29h-0.05v0.17h0.05v0.29h-0.05v0.17h0.05
		v0.29h-0.05v0.17h0.05v0.29h-0.05v0.17h0.05v0.29h-0.05v0.17h0.05v0.29h-0.05v0.17h0.05v0.29h-0.05v0.17h0.05v0.29h-0.05v0.17h0.05
		v0.29h-0.05v0.17h0.05v0.29h-0.05v0.17h0.05v0.29h-0.05v0.17h0.05v0.29h-0.05v0.17h0.05v0.29h-0.05v0.17h0.05v0.29h-0.05v0.17h0.05
		v0.29h-0.05v0.17h0.05v0.29h-0.05v0.17h0.05v0.29h-0.05v0.17h0.05v0.29h-0.05v0.17h0.05v0.29h-0.05v0.17h0.05v0.29h-0.05v0.17h0.05
		v0.29h-0.05v0.17h0.05v0.29h-0.05v0.17h0.05v0.29h-0.05v0.17h0.05v0.29h-0.05v0.17h0.05v0.29h-0.05v0.17h0.05v0.18h-1.62v0.31
		h-0.36l-0.98,0.56v0.11h-0.07v0.21h0.07v0.12h-0.07v0.2h0.07v0.12h-0.07v0.21h0.07v0.12h-0.07v0.21h0.07v0.12h-0.07v0.21h0.07v0.12
		h-0.07v0.21h0.07v0.12h-0.07v0.21h0.07v0.12h-0.07v0.21h0.07v0.12h-0.07v0.21h0.07v0.12h-0.07v0.21h0.07v0.12h-0.07v0.21h0.07v0.12
		h-0.07v0.21h0.07v0.12h-0.07v0.21h0.07v0.12h-0.07v0.2h0.07v0.12h-0.07v0.21h0.07v0.12h-0.07v0.21h0.07v0.12h-0.07v0.21h0.07v0.02
		h-2.32v-0.44h-0.44v0.41h-0.51l-1.18,0.46v0.68H48.9v0.44h-0.94l-0.39,0.27v4.96h-0.44v-0.17h-0.46v0.56h-1.6v-0.24h-0.51v0.82
		h-0.39v0.19h-0.51v2.78h-0.56v-0.48h-0.51v-0.24H42.3V28.9h-2.01v-0.6h-0.1v-0.18h0.1v-0.76h-0.1v-0.18h0.1v-0.76h-0.1v-0.18h0.1
		v-0.76h-0.1v-0.18h0.1v-0.76h-0.1v-0.18h0.1v-0.76h-0.1v-0.17H40v-0.17h-0.36v-0.27h-1.55v0.17h-2.92l-5.42,0.36v12.5h-0.36v5
		h-0.77v-0.39H27.6v-7.71l-0.22-0.14v-6.33h-0.42c0,0,0-1.9,0-2.97c0-1.08-0.34-1.11-0.34-1.11s-2.54,0-2.99,0
		c-0.45,0-0.46,1.9-0.46,1.9v2.17h-0.15v0.33h-0.36v3.8h-4.4l-0.31,0.24v2.97l-0.51,0.34v7.64h-0.39v0.19h-0.17v-0.87l-0.22-0.36
		V24.69l-3.84-8.49l-2.97,5.64H9.55l-1.87,2.29v0.42H6.75v1.31l-0.31,0.31v0.56l-0.42,0.27v16.3h-0.7v-0.56H4.82v-5.9H4.55v-0.22
		h-2.2v-0.24H2.21v0.22H1.48v0.22H0.49v5.05H0.3v0.68H0v5.73h135.94v-9.99L134.96,37.3z M82.9,12.5h1.02v-1.31h0.24V8.46h0.17V7.95
		h-1.38V6.28c1.13,0.79,1.87,2.1,1.87,3.59c0,1.5-0.76,2.83-1.92,3.62V12.5z M77.97,13.49c-1.16-0.79-1.92-2.12-1.92-3.62
		c0-1.48,0.74-2.79,1.87-3.59v1.67h-1.38v0.51h0.17v2.73h0.24v1.31h1.02V13.49z M81.88,6.09h-1.45h-1.45V5.73
		c0.46-0.16,0.94-0.25,1.45-0.25c0.51,0,1,0.09,1.45,0.25V6.09z"/>
</g>
</svg>
