<?xml version="1.0" encoding="utf-8"?>
<!-- Generator: Adobe Illustrator 24.0.2, SVG Export Plug-In . SVG Version: 6.00 Build 0)  -->
<svg version="1.1" id="Ñëîé_1" xmlns="http://www.w3.org/2000/svg" xmlns:xlink="http://www.w3.org/1999/xlink" x="0px" y="0px"
	 viewBox="0 0 136.16 69.2" style="enable-background:new 0 0 136.16 69.2;" xml:space="preserve">
<style type="text/css">
	.st0{fill:#FFFFFF;}
	.st1{fill:#ED1C24;}
	.st2{fill:#009444;}
	.st3{fill:#9A6B37;stroke:#000000;stroke-width:0.13;}
	.st4{fill:#C88912;stroke:#000000;stroke-width:0.13;}
	.st5{fill:#CF7418;stroke:#000000;stroke-width:0.13;}
	.st6{fill:#FFFFFF;stroke:#000000;stroke-width:0.13;}
	.st7{fill:#00A886;stroke:#000000;stroke-width:0.13;}
	.st8{fill:#004FA3;stroke:#000000;stroke-width:0.13;}
	.st9{fill:none;stroke:#000000;stroke-width:0.13;}
	.st10{fill:#BC9408;stroke:#000000;stroke-width:0.13;}
	.st11{fill:#009D57;stroke:#000000;stroke-width:0.13;}
	.st12{fill:#CE6E19;stroke:#000000;stroke-width:0.13;}
	.st13{fill:#009A66;stroke:#000000;stroke-width:0.13;}
	.st14{fill:#00AB67;stroke:#000000;stroke-width:0.13;}
	.st15{fill:#EF3E33;stroke:#000000;stroke-width:0.13;}
	.st16{fill:#559534;stroke:#000000;stroke-width:0.13;}
	.st17{stroke:#000000;stroke-width:0.13;}
	.st18{fill:none;stroke:#E4E5E6;stroke-width:0.13;}
</style>
<g>
	<path d="M135.19,65.1v-3.01l-0.47-0.47v-0.75h-0.81v-5.47l-0.87-1.06H131v-1.86h-0.85v-8.18h-0.5v-1.95h-4.06v2.15l-0.66,0.33v4.72
		h-3.52v-0.79h-2.32v3.48h-0.95v-1.82h-0.5v-5.05h-4.76v-5.72h-0.41v0.29h-2.11V38.1l-0.21-0.21v2.03h-0.25v-5.51h-0.41v5.55h-1.37
		l-1.66,0.75v0.33h0.37v0.46h-0.46v8.58h-3.77v4.23h-1.12l-1.04-2.2v-0.58h-4.14v1.28h-1.57v1.12h-0.62v0.91h-0.87v0.46h-0.95v0.93
		h-1.21v1.12h-0.68v-0.62h-0.34l-1.09-1.49h-2.83v0.19h-1.18v0.5h0.28v0.71H83.4v0.59h-0.75v1.49h-0.25v2.13h-0.59v-0.09h0.06V60.3
		h-0.06v-0.11h0.06v-0.45h-0.06v-0.11h0.06v-0.45h-0.06v-0.08h-0.81v-0.28h-0.44v-0.87H80.1V57.9h-0.7v0.06h-0.15V57.9h-0.7v0.06
		H78.4V57.9h-0.7v0.06h-0.15V57.9h-0.7v0.06H76.7V57.9H76v0.06h-0.08v-0.37H73.4v0.56h-0.22v-0.84H72.9v-3.67h0.28v-0.9h-1.62v-0.62
		h-0.5v-0.28h-7.8l-0.5,0.75v0.05H62.7v0.19h0.08v0.12H62.7v0.19h0.08v0.12H62.7v0.19h0.08v0.12H62.7v0.19h0.08v0.12H62.7v0.19h0.08
		v0.12H62.7v0.19h0.08v0.12H62.7v0.19h0.08v0.12H62.7V55h0.08v0.12H62.7v0.19h0.08v0.12H62.7v0.19h0.08v0.12H62.7v0.19h0.08v0.12
		H62.7v0.19h0.08v0.12H62.7v0.19h0.08v0.12H62.7v0.19h0.08v0.12H62.7v0.19h0.08v0.12H62.7v0.19h0.08v0.12H62.7v0.19h0.08v0.12H62.7
		v0.19h0.08v0.12H62.7v0.19h0.08v0.12H62.7v0.19h0.08v0.12H62.7v0.19h0.08v0.12H62.7v0.19h0.08v0.12H62.7v0.19h0.08v0.12H62.7v0.19
		h0.08v0.12H62.7v0.19h0.08v0.12H62.7v0.19h0.08v0.12H62.7v0.19h0.08v0.12H62.7v0.19h0.08v0.12H62.7v0.19h0.08v0.12H62.7v0.19h0.08
		v0.12H62.7v0.19h0.08v0.12H62.7v0.19h0.08v0.12H62.7v0.19h0.08v0.12H62.7v0.19h0.08v0.12H62.7v0.19h0.08v0.12H62.7v0.06h-0.42v1.06
		h-0.71v-0.16h-0.5v0.5h-1.02v1.24H59.6V51.65h-0.74v-1.09h-0.09l-0.81-20.91l1.18-0.1l0.43-0.54v-0.18l-0.21-0.29v-0.12h-0.19
		l0.54-0.55v-0.73h-0.1v-0.18h0.19v-0.34l-0.88-1V24.9H59v-0.3h-1.3v-0.71l0.12-0.12V23.1l-0.4-0.3l-0.11-7.59l0.27-0.45v-0.41
		l-0.28-0.25v-0.4l-0.21-0.16V8.46l-0.11-0.13V6.21L56.9,6.11V3.68l-0.1-0.12V1.43l-0.06-0.07V0.2L56.61,0l-0.13,0.2v1.16
		l-0.06,0.07v2.13l-0.1,0.12v2.42l-0.09,0.11v2.13l-0.11,0.13v5.06l-0.21,0.16v0.4l-0.28,0.25v0.41l0.27,0.45l-0.1,7.59l-0.4,0.3
		v0.68l0.12,0.12v0.71h-1.3v0.3h0.08v0.72l-0.88,1v0.34h0.19v0.18h-0.1v0.73l0.54,0.55h-0.19v0.12l-0.21,0.29v0.18l0.43,0.54
		l1.18,0.1L54.1,59.71l-0.14-0.06h-1.35v0.76h-1.06v0.74h-1.32v-0.23h-0.89v0.26H48.9v-8.85l-1.09-0.72h-0.69v-1.06h-1.49v0.8h-0.17
		v-0.4h-0.29v0.72h-0.26v-0.23h-0.26v0.2h-0.57l-0.14,7.79c0,0-4.61-3.29-10.45-3.29c-5.84,0-9.99,2.89-9.99,2.89v-2.58h-3.55v5.1
		l-0.54,0.37v0.34h-0.72v0.26h-0.72v-4.95h-2.09v-0.06h-1.9v0.06h-0.07v-1.38h-0.06v1.38h-0.09v-0.32h-0.31v0.32h-0.2v0.2H13.2v0.52
		h0.05v0.23H13.2v0.52h0.05v0.23H13.2v0.52h0.05v0.23H13.2v0.52h0.05v0.23H13.2v0.52h0.05v0.23H13.2v0.52h0.05v0.23H13.2v0.52h0.05
		v0.23H13.2v0.52h0.05v0.23H13.2v0.49h-0.55V54.2h-2v-0.29h-0.31v-0.43H9.99v0.4H9.73v-0.26H8.25v-0.14H7.76v0.26H7.24L6.78,54.2
		H6.44v2.26H4.52v0.49H3.81v-0.11H2.35v-0.17H0.26v10.36H0v0.4h0.26v1.78h135.9v-4.1H135.19z M82.41,61.1h-0.59v-0.12h0.59V61.1z"/>
</g>
</svg>
