<?xml version="1.0" encoding="utf-8"?>
<!-- Generator: Adobe Illustrator 24.0.2, SVG Export Plug-In . SVG Version: 6.00 Build 0)  -->
<svg version="1.1" id="Ñëîé_1" xmlns="http://www.w3.org/2000/svg" xmlns:xlink="http://www.w3.org/1999/xlink" x="0px" y="0px"
	 viewBox="0 0 135.91 38.95" style="enable-background:new 0 0 135.91 38.95;" xml:space="preserve">
<style type="text/css">
	.st0{fill:#FFFFFF;}
	.st1{fill:#ED1C24;}
	.st2{fill:#009444;}
	.st3{fill:#9A6B37;stroke:#000000;stroke-width:0.13;}
	.st4{fill:#C88912;stroke:#000000;stroke-width:0.13;}
	.st5{fill:#CF7418;stroke:#000000;stroke-width:0.13;}
	.st6{fill:#FFFFFF;stroke:#000000;stroke-width:0.13;}
	.st7{fill:#00A886;stroke:#000000;stroke-width:0.13;}
	.st8{fill:#004FA3;stroke:#000000;stroke-width:0.13;}
	.st9{fill:none;stroke:#000000;stroke-width:0.13;}
	.st10{fill:#BC9408;stroke:#000000;stroke-width:0.13;}
	.st11{fill:#009D57;stroke:#000000;stroke-width:0.13;}
	.st12{fill:#CE6E19;stroke:#000000;stroke-width:0.13;}
	.st13{fill:#009A66;stroke:#000000;stroke-width:0.13;}
	.st14{fill:#00AB67;stroke:#000000;stroke-width:0.13;}
	.st15{fill:#EF3E33;stroke:#000000;stroke-width:0.13;}
	.st16{fill:#559534;stroke:#000000;stroke-width:0.13;}
	.st17{stroke:#000000;stroke-width:0.13;}
	.st18{fill:none;stroke:#E4E5E6;stroke-width:0.13;}
</style>
<polygon points="0,28.81 0,28.11 0.22,28.11 0.22,27.38 0.63,27.38 0.63,27.18 0.72,27.18 0.79,27.38 0.79,28.03 0.92,28.03 
	0.92,28.81 1.63,28.81 2.24,29.68 2.67,29.68 2.67,30.19 2.96,30.19 2.96,28.58 4.26,27.86 5.3,27.86 5.3,19.72 5.82,19.72 
	5.82,20.26 12.14,20.26 12.14,19.56 12.33,19.56 12.33,19.36 14.29,19.36 14.29,20.2 16.39,20.2 16.39,19.66 16.96,19.66 
	16.96,30.71 18.72,30.71 18.72,31.82 19.08,31.82 19.08,32.58 19.46,32.58 19.46,24.01 19.84,24.01 19.84,19.09 20.18,19.09 
	20.18,18.61 21.63,18.61 21.63,15.42 21.72,15.42 21.72,17 23.14,17 23.14,18.45 24.55,18.45 24.55,20.36 25.15,20.36 25.15,25.55 
	25.44,25.55 25.44,27.34 25.77,27.34 25.77,25.65 25.7,25.65 25.7,24.92 25.82,24.92 25.82,22.42 26.05,22.04 26.05,20.67 
	26.14,20.67 26.14,20.85 27.59,20.85 27.59,10.85 28.56,10.85 28.56,11.47 28.74,11.47 28.74,11.29 28.88,11.29 28.88,10.36 
	29.19,10.36 29.19,9.07 29.36,8.49 29.36,6.31 29.94,4.94 30.57,6.35 30.57,9.21 30.73,9.21 30.73,10.38 30.9,10.38 30.9,10.18 
	31,10.18 31,11.27 31.55,11.27 31.55,13.93 32.27,13.93 32.27,30.63 32.8,30.63 32.8,26.98 33.24,26.98 33.24,13.45 35.51,13.45 
	35.51,12.82 35.74,12.82 35.74,11.75 35.95,11.19 35.95,8.09 36.23,7.74 36.23,3.13 37.35,3.13 37.35,0.52 38.6,0.52 39.17,0 
	40.34,0 40.34,0.67 41.19,0.67 41.49,1.19 41.49,3.33 42.49,3.33 42.8,4.09 42.8,8.13 43.08,8.65 43.08,27.1 44.66,27.1 
	44.66,17.02 45.4,16.29 46.02,16.29 46.02,11.03 46.15,11.03 46.15,15.91 47.17,16.55 47.7,15.91 47.7,16.94 48.09,16.94 
	48.09,7.22 48.98,7.22 48.98,6.71 50.65,4.63 50.65,2.77 50.75,2.77 50.75,4.66 52.45,6.57 52.45,7.21 55.73,7.21 55.73,20.87 
	55.93,20.87 55.93,18.13 56.21,17.74 56.21,14.56 56.83,13.25 57.26,13.09 57.82,14.64 57.82,17.7 58.54,17.7 58.54,21.59 
	59.59,21.59 59.59,14.88 60,14.52 60,13.41 60.35,13.41 61.38,12.1 65.34,12.1 65.34,13.49 65.62,13.49 65.62,14.6 65.93,14.6 
	65.93,17.66 66.36,17.66 66.79,20.16 67.13,20.16 67.13,24.28 67.38,24.28 67.38,24.96 67.66,24.96 67.66,19.8 68,19.44 
	68.23,19.44 68.23,18.77 68.79,18.77 68.79,18.17 69.73,18.17 69.73,19.32 70.14,19.64 71.09,19.64 71.09,24.68 71.5,24.68 
	71.5,24.21 71.65,24.21 71.65,20.67 75.28,20.67 75.28,21.31 77.86,21.31 77.86,22.1 78.4,22.1 78.4,28.01 81.11,28.01 81.11,25.63 
	81.87,25.63 81.87,26.43 82.41,26.43 82.41,22.98 84.4,22.98 84.4,29.52 84.84,29.52 84.84,23.53 85.27,23.17 85.27,21.94 
	85.73,21.94 85.73,20.36 86.12,19.96 86.12,15.4 86.55,15.4 86.55,13.37 88.29,13.37 88.29,9.05 88.63,9.05 88.63,13.21 88.8,13.21 
	88.8,11.67 88.98,11.67 88.98,13.15 89.23,13.15 89.23,11.37 89.45,11.37 89.45,13.21 89.84,13.21 89.96,13.69 90.27,13.69 
	90.27,10.2 90.36,10.2 90.36,13.69 90.59,13.69 90.59,15.52 90.93,15.52 90.93,18.07 91.15,18.07 91.15,20.14 91.31,20.14 
	91.31,22.25 93.94,22.25 93.94,23.56 94.51,25.79 95.3,25.79 95.3,25.02 96.07,25.02 96.07,24.69 97,24.69 97,25.05 97.35,25.05 
	97.35,16.75 97.6,16.75 97.6,14.16 97.91,14.16 97.91,12.1 98.5,11.09 99.01,10.3 100.13,10.3 100.13,5.82 100.32,5.82 
	100.32,10.44 100.65,10.44 100.65,9.75 100.8,9.75 100.8,10.38 101.14,10.38 101.14,8.77 101.26,8.77 101.26,10.76 101.68,10.76 
	101.68,11.98 102.18,11.98 102.18,14.1 102.43,14.1 102.43,16.83 102.68,16.83 102.68,18.05 108.51,18.05 108.51,18.89 
	108.83,18.89 108.83,22.55 109.02,22.55 109.02,28.59 110.35,28.59 110.35,27.13 110.67,27.13 110.67,19.96 111.88,19.96 
	111.88,19.07 113.11,19.07 113.11,18.23 115.37,18.23 115.37,19.04 115.69,19.04 115.69,17.64 119.32,17.64 119.32,17.04 
	119.97,17.04 119.97,18.47 120.18,18.47 120.18,18.8 120.37,18.8 120.37,16.69 120.49,16.69 120.49,18.95 120.66,18.95 
	120.66,15.61 122.59,15.61 122.59,15.88 122.38,15.88 122.38,17.61 124.4,17.61 124.4,19.04 130.59,19.04 130.59,20.29 131.3,20.29 
	131.3,20.7 131.99,20.7 131.99,20.26 133.94,20.26 133.94,20.82 134.33,20.82 134.33,31.8 134.83,31.8 134.83,33.05 135.33,33.53 
	135.91,33.53 135.91,38.95 0,38.95 "/>
</svg>
