<?xml version="1.0" encoding="utf-8"?>
<!-- Generator: Adobe Illustrator 24.0.2, SVG Export Plug-In . SVG Version: 6.00 Build 0)  -->
<svg version="1.1" id="Layer_1" xmlns="http://www.w3.org/2000/svg" xmlns:xlink="http://www.w3.org/1999/xlink" x="0px" y="0px"
	 viewBox="0 0 355.17 734.74" style="enable-background:new 0 0 355.17 734.74;" xml:space="preserve">
<g>
	<path d="M248.34,282.75c0.89-0.55,1.4-1.47,2.1-2.2c4.06-4.18,8.58-7.83,13.18-11.37c2.09-1.61,4.24-3.13,6.1-5.01
		c0.41-0.42,0.86-0.69,1.43-0.41c0.55,0.28,0.66,0.8,0.62,1.38c-0.13,1.68-0.69,3.28-0.97,4.93c-0.11,0.62-0.28,1.23-0.3,1.89
		c1.75-2.45,3.27-4.99,3.75-8.03c0.03-0.18,0-0.36,0.03-0.54c0.11-0.72,0.52-1.22,1.18-1.46c0.68-0.24,1.28-0.04,1.81,0.47
		c0.83,0.82,1.3,1.87,1.78,2.89c3.19,6.78,5.7,13.82,7.78,21.02c1.37,4.72,2.49,9.5,3.04,14.38c0.4,3.58,0.52,7.18-0.62,10.69
		c-0.38,1.15-0.87,2.24-1.78,3.07c-0.42,0.39-0.62,0.85-0.71,1.41c-0.12,0.77-0.31,1.52-0.49,2.37c1.7,1.26,1.2,3.16,1.1,4.9
		c-0.04,0.77-0.13,1.54-0.16,2.32c-0.13,3.38-0.81,6.63-2.31,9.7c-0.86,1.76-2.07,3.21-3.58,4.44c-0.23,0.18-0.45,0.37-0.65,0.55
		c0.15,0.46,0.57,0.48,0.86,0.67c1.62,1.06,1.9,2.79,0.65,4.29c-1.38,1.65-3.23,2.66-5.13,3.55c-1.46,0.69-2.97,1.27-4.6,1.95
		c-0.98,2.1-2.7,3.6-5.01,4.4c-0.73,0.25-1.48,0.5-2.24,0.66c-0.84,0.18-1.58,0.52-2.28,1.01c-1.43,0.99-2.88,1.94-4.38,2.94
		c-0.13,2.92-2.62,3.88-4.62,5.36c0.37,0.6,0.72,1.14,1.06,1.69c1.46,2.39,1.07,4.87-0.68,6.38c-0.13,0.12-0.24,0.27-0.38,0.44
		c0.17,0.85,0.34,1.71,0.53,2.58c0.64,2.89,0.08,5.74-0.51,8.54c-0.98,4.68-2.11,9.33-3.49,13.92c-1.45,4.84-3.46,9.44-5.97,13.82
		c-4.89,8.53-10.25,16.76-15.98,24.75c-3.14,4.38-6.33,8.72-9.59,13.02c-1.42,1.88-2.53,3.92-3.67,5.95
		c-2.51,4.5-5.35,8.8-8.13,13.14c-4.68,7.32-9.3,14.67-13.82,22.09c-1.09,1.79-2.11,3.62-2.94,5.55c-0.79,1.84-1.18,3.75-1.17,5.76
		c0.02,2.1,0.03,4.2,0,6.3c-0.08,5.8-0.46,11.58-1.3,17.33c-0.2,1.38-0.09,2.66,0.5,4.01c1.72,3.95,3.25,7.98,4.72,12.04
		c0.34,0.95,0.86,1.84,1.26,2.78c2.79,6.5,4.92,13.23,6.72,20.06c1.73,6.54,3.08,13.16,4.22,19.82c0.5,2.95,0.84,5.92,1.26,8.88
		c0.1,0.69-0.07,1.45,0.76,1.88c0.34,0.18,0.22,0.65,0.24,0.99c0.12,1.91,0.28,3.81,0.34,5.72c0.06,2.1,0.03,4.2,0.01,6.3
		c-0.06,4.74-0.49,9.43-1.73,14.02c-0.13,0.46-0.23,0.93-0.4,1.38c-0.33,0.86-0.53,1.72-0.09,2.61c-0.27,1.87,0.92,2.66,2.39,3.26
		c0.83,0.34,1.65,0.72,2.44,1.14c1.33,0.71,2.58,1.51,2.91,3.26c-1.67,1.1-3.39,2.08-4.86,3.37c0.18,1.06-0.23,2.03-0.35,3.02
		c-0.22,1.86-0.25,3.67,0.03,5.53c0.19,1.28,0.56,2.45,1.25,3.52c1.19,1.86,1.61,3.98,2.1,6.07c0.29,1.25-0.16,2.35-1.1,3.25
		c-1.31,1.25-2.83,2.21-4.38,3.12c-0.56,0.33-1.11,0.67-1.69,1.02c2.73,5.38,3.78,11.15,4.99,16.87c1.1,5.21,1.89,10.47,2.43,15.77
		c0.18,1.82,0.32,3.66-0.14,5.53c-0.98,4.01-3.35,6.82-6.92,8.72c-0.85,0.45-1.63,0.91-2.25,1.71c-0.71,0.91-1.8,1.37-2.85,1.83
		c-6.31,2.75-12.63,5.49-18.95,8.21c-3.58,1.54-7.15,3.09-10.76,4.54c-3.39,1.36-6.85,2.55-10.45,3.21
		c-0.41,0.08-0.83,0.15-1.24,0.18c-0.29,0.02-0.59-0.03-0.84-0.05c-0.24-0.32-0.06-0.58,0.01-0.79c-0.1-0.19-0.2-0.23-0.33-0.17
		c-5.99,2.78-12.33,4.18-18.84,4.99c-3.03,0.38-6.07,0.6-9.12,0.76c-2.1,0.11-4.19,0.21-6.28,0.13c-8.4-0.31-16.73-1.12-24.74-3.86
		c-3.02-1.03-5.87-2.4-8.49-4.25c-1.19-0.84-2.22-1.84-3.14-2.94c-1.05-1.26-1.83-2.67-1.71-4.41c0.01-0.17-0.08-0.34-0.13-0.53
		c-1.19-0.48-2.47-0.49-3.71-0.66c-4.41-0.6-8.68-1.75-12.93-3.01c-5.91-1.75-11.75-3.76-17.48-6.03
		c-5.17-2.05-10.31-4.15-15.33-6.54c-4.27-2.03-8.55-4.07-12.6-6.52c-4.41-2.66-8.85-5.29-12.74-8.71
		c-2.46-2.15-4.48-4.67-6.15-7.45c-1.55-2.58-2.63-5.37-3.24-8.34c-0.59-2.85-0.69-5.68,0.13-8.5c0.36-1.22,0.9-2.35,1.68-3.36
		c1.17-1.53,2.7-2.31,4.64-2.27c1.28,0.03,2.49,0.37,3.68,0.77c0.6,0.2,1.11,0.25,1.71-0.03c1.1-0.52,2.31-0.64,3.5-0.71
		c2.15-0.13,4.31-0.18,6.46-0.23c3.54-0.07,7.07-0.05,10.61-0.18c5.08-0.18,10.16-0.47,15.24-0.7c2.87-0.13,5.74-0.24,8.61-0.36
		c1.43-0.06,2.53-0.51,2.96-2.07c0.27-0.98,1.1-1.54,1.98-1.98c0.65-0.33,1.36-0.46,2.11-0.58c-0.18-0.56-0.68-0.63-1.08-0.8
		c-3.59-1.54-7.03-3.34-10.21-5.63c-1.86-1.34-3.55-2.86-4.91-4.71c-1.45-1.99-2.44-4.14-1.88-6.7c0.15-0.67-0.21-1.16-0.46-1.69
		c-0.85-1.77-1-3.59-0.83-5.56c0.19-2.28,2.26-3.95,4.89-3.57c1.48,0.21,2.93,0.58,4.33,1.17c2.56,1.08,4.84,2.64,7.03,4.31
		c3.19,2.43,6.21,5.07,9.12,7.84c1.73,1.65,3.47,3.29,5.2,4.92c0.46-0.16,0.48-0.55,0.57-0.88c0.25-0.86,0.43-1.75,0.75-2.58
		c0.45-1.21,0.57-2.33-0.4-3.16c-0.13-0.64,0.19-0.96,0.43-1.29c1.46-2.01,1.87-4.25,1.23-6.61c-0.26-0.95-0.12-1.75,0.24-2.6
		c0.47-1.1,0.9-2.22,1.58-3.21c1.52-2.22,3.62-3.01,6.24-2.52c1.31,0.24,2.49,0.84,3.7,1.28c0.45-0.29,0.13-0.67,0.19-0.99
		c0.19-1.1,1.02-1.7,2.07-1.38c0.56,0.17,1.11,0.46,1.61,0.78c1.75,1.15,3.48,2.33,5.22,3.5c0.29,0.2,0.59,0.39,0.89,0.59
		c0.37-0.38,0.01-0.55-0.14-0.75c-1.07-1.44-2.17-2.86-3.22-4.31c-0.6-0.83-1.09-1.72-1.4-2.7c-0.62-1.98,0.16-3.6,2.12-4.29
		c0.67-0.24,1.39-0.34,2.1-0.47c1.18-0.22,2.35-0.44,3.53-0.91c0.22-0.46,0.45-0.94,0.7-1.45c0.77-0.36,1.64,0,2.62-0.3
		c3-8.83,5.98-17.78,9.27-26.39c-0.11-0.63-0.5-0.77-0.73-1.12c0.51-2.16,1.03-4.36,1.77-6.6c0.56,0.47,0.19,1.13,0.47,1.57
		c0.32-0.12,0.41-0.34,0.47-0.57c0.61-2.07,1.21-4.14,1.81-6.21c0.29-1.01,0.16-2.07-0.05-3.04c-0.57-2.68-0.12-5.2,0.58-7.79
		c1.47-5.43,2.81-10.89,4.19-16.3c-0.15-0.12-0.25-0.25-0.32-0.24c-1.48,0.27-2.18-0.04-2.84-1.42c-0.86-1.79-1.5-3.66-2.09-5.54
		c-1.76-5.59-3.51-11.19-5.28-16.78c-3.6-11.35-7.32-22.66-10.48-34.15c-0.85-3.11-1.74-6.23-1.99-9.47
		c-0.04-0.48-0.13-0.97,0.1-1.41c0.24-0.47,0.16-0.91,0.06-1.39c-1-5.1-1.86-10.23-3.26-15.26c-0.85-3.05-1.3-6.2-1.64-9.35
		c-0.45-4.15-0.92-8.31-1.31-12.47c-0.24-2.56-0.23-5.14-0.54-7.69c-0.35-2.92-0.12-5.86-0.54-8.76c-0.1-0.71-0.02-1.44-0.02-2.16
		c0-3.12,0.01-6.24,0-9.36c-0.01-3.71,0.23-7.41,0.58-11.1c0.18-1.84,0.22-3.7,0.39-5.55c0.23-2.44,0.5-4.88,0.83-7.3
		c0.51-3.73,1.01-7.46,1.64-11.17c0.75-4.42,1.53-8.84,2.41-13.23c0.16-0.82,0.05-1.41-0.51-1.94c-1.04-0.98-1.97-2.08-3-3.08
		c-1.94-1.86-3.76-3.86-5.53-5.9c-1.21-1.4-1.46-3.13-1.06-4.92c0.39-1.76,1.11-3.41,1.94-5.01c0.36-0.69,0.73-1.37,1.03-2.09
		c2.75-6.75,6.88-12.58,11.92-17.81c1.33-1.38,2.65-2.76,4.05-4.21c-3.33-2.07-7.1-3.71-9.42-6.94c-0.58-0.26-0.88,0.02-1.22,0.11
		c-1.8,0.49-3.18-0.29-4.3-1.56c-1.6-1.81-2.54-3.89-2.4-6.39c0.06-1.07,0.01-2.15,0.01-3.32c-0.71,0.32-1.46,0.61-2.18,0.97
		c-0.67,0.34-1.38,0.39-2.1,0.35c-1.46-0.07-2.42-1.27-2.12-2.69c0.15-0.7,0.49-1.34,0.88-1.95c1.15-1.82,2.26-3.67,3.38-5.51
		c0.12-0.2,0.2-0.43,0.35-0.76c-1.24-1-2.13-2.31-2.96-3.69c-0.89-1.47-1.39-3.06-1.56-4.74c-0.09-0.87,0.02-1.82,0.29-2.65
		c0.83-2.53,1.03-5.15,1.32-7.76c0.16-1.41,0.28-2.79,0.14-4.25c-0.29-3.03-0.15-6.09,0.2-9.14c0.45-3.93,1.04-7.83,1.72-11.71
		c1.31-7.43,2.97-14.78,4.89-22.07c1.58-6.03,3.37-11.99,5.67-17.79c1.04-2.62,2.18-5.19,3.64-7.61c1.12-1.85,2.27-3.67,4.04-4.99
		c0.26-0.19,0.36-0.47,0.33-0.81c-0.25-0.37-0.7-0.42-1.08-0.51c-2.49-0.64-4.9-1.58-7.46-1.96c-0.91-0.14-1.71-0.55-2.08-1.5
		c-0.11-0.28-0.33-0.45-0.56-0.66c-0.91-0.8-0.97-1.38-0.28-2.3c0.75-0.98,1.78-1.53,2.93-1.96c6.81-2.52,13.93-3.94,20.9-5.88
		c5.25-1.47,10.48-3.01,15.48-5.25c0.32-0.14,0.64-0.3,0.93-0.57c-1.39,0.19-2.75-0.13-4.13,0.02c-2.56,0.29-5.14,0.38-7.69-0.19
		c-1.06-0.24-2.06-0.63-2.93-1.3c-1.02-0.78-1.02-1.6,0.08-2.26c1.19-0.71,2.31-1.49,3.28-2.48c1.31-1.34,2.43-2.81,3.28-4.47
		c-0.29-0.4-0.51-0.08-0.73,0.04c-2.1,1.05-4.31,1.78-6.58,2.33c-1.75,0.42-2,0.25-2.67-1.43c-0.06-0.16-0.14-0.32-0.21-0.49
		c0.9-1.15,1.92-2.14,3.05-3.02c0.72-0.56,1.27-1.26,1.86-1.94c0.88-1.02,1.03-2.13,0.51-3.34c-0.26-0.6-0.53-1.21-0.87-1.77
		c-1.71-2.81-3.62-5.5-4.72-8.6c-0.64,0.02-0.54,0.49-0.65,0.78c-0.3,0.78-0.54,1.59-0.85,2.36c-0.98,2.48-3.2,2.33-4.61,1.07
		c-1.2-1.07-2-2.38-2.53-3.87c-0.5-1.41-0.98-2.82-1.39-4.26c-0.94-3.31-1.16-6.67-0.79-10.11c0.29-2.67,0.98-5.15,2.23-7.51
		c0.53-1.01,1.32-1.84,2.07-3.02c-1.18,0.33-2.14,0.59-3.09,0.87c-3.92,1.14-7.9,1.84-11.99,2.08c-4.79,0.29-9.44-0.24-13.95-1.85
		c-5.24-1.87-9.67-4.94-13.34-9.14c-2.39-2.72-4.41-5.66-5.97-8.93c-0.62-1.3-1.08-2.66-1.44-4.05c-0.18-0.7-0.26-1.43-0.16-2.14
		c0.12-0.81,0.42-1.5,1.32-1.48c0.71,0.3-0.14,0.82,0.36,1.13c0.4-0.31,0.8-0.64,1.22-0.95c0.68-0.5,1.41-0.97,2.24-1.11
		c2.65-0.46,5.26-1.18,7.95-1.37c2.09-0.15,4.16-0.46,6.24-0.67c4.51-0.46,8.58-2.05,12.46-4.31c4.19-2.44,8.42-4.84,12.98-6.54
		c2.56-0.95,4.79-2.27,6.81-4.14c2.4-2.22,5.39-3.55,8.54-4.45c0.93-0.27,1.88-0.23,2.85-0.12c3.27,0.37,6.54,0.67,9.82,0.99
		c0.3,0.03,0.61,0.04,0.88,0.14c1.7,0.64,2.96-0.2,4.28-1.19c-0.55-0.41-1-0.78-1.49-1.11c-0.47-0.32-0.71-0.8-0.99-1.26
		c-0.28-0.48-0.04-0.79,0.44-1.09c0.49,0.18,1.03,0.38,1.56,0.57c0.35-0.44,0.17-0.73-0.15-0.95c-0.48-0.32-1.19-0.29-1.38-1.01
		c-0.19-0.7,0.46-1.06,0.65-1.65c-1.29-3.25-3.05-6.21-5.8-8.49c-2.38-1.97-5.15-2.98-8.18-3.41c-2.72-0.39-5.36,0.04-8.01,0.53
		c-0.6,0.11-1.13,0.34-1.58,0.79c-0.42,0.43-0.92,0.77-1.34,1.19c-4.02,4.12-8.12,8.16-12.49,11.91
		c-6.3,5.4-13.02,10.17-20.85,13.19c-3.99,1.54-8.09,2.66-12.35,2.96c-8.42,0.58-16.04-1.54-22.49-7.18
		c-1.5-1.31-2.8-2.81-3.88-4.47c-0.55-0.84-1.17-1.69-1.2-2.76c-0.01-0.46-0.34-0.75-0.56-1.11c-2.87-4.8-4.17-10.01-4.19-15.59
		c-0.03-10.78,3.4-20.34,10.14-28.7C47.81,13,52.24,9.37,57.33,6.55c2.9-1.61,5.9-2.92,9.12-3.73c0.88-0.22,1.76-0.41,2.66-0.3
		c2.03,0.26,2.98,1.92,2.17,3.8c-0.21,0.49-0.5,0.96-0.82,1.39c-4.3,5.67-7.55,11.93-10.33,18.46c-2.16,5.07-4.12,10.21-6.13,15.34
		c-0.71,1.81-0.71,3.57,0.03,5.61c5.58-9.2,13.38-15.13,23.61-17.52c0.27-0.27,0.37-0.5,0.3-0.74c-0.44-1.51-0.4-3.08-0.54-4.62
		c-0.12-1.41,0.09-2.87,0.32-4.27c0.48-2.9,1.3-5.72,2.71-8.32c0.52-0.95,1.06-1.89,1.85-2.64c0.43-0.41,0.89-0.82,1.4-1.11
		c1.4-0.8,2.94-0.35,3.65,1.09c0.31,0.63,0.55,1.34,0.64,2.04c0.14,1.13,0.21,2.28,0.14,3.41c-0.21,3.42-0.09,6.83,0.03,10.24
		c0.04,1.19,0.24,2.38,0.39,3.56c0.02,0.17,0.15,0.33,0.55,0.26c0-1.23,0.02-2.52,0-3.81c-0.06-4.48,0.8-8.81,2.24-13.03
		c0.83-2.44,1.99-4.74,3.62-6.77c0.84-1.05,1.81-1.92,3.05-2.45c1.77-0.75,3.22-0.05,3.81,1.78c0.19,0.58,0.24,1.16,0.25,1.77
		c0.03,3.72-0.02,7.44,0.14,11.15c0.14,3.16,0.49,6.31,0.82,9.46c0.21,2.02,0.54,4.02,0.84,6.03c0.13,0.89,0.41,1.75,0.83,2.55
		c0.41,0.79,0.72,0.91,1.61,0.69c0.71-0.18,1.3-0.5,1.74-1.16c0.89-1.35,1.85-2.65,2.8-3.96c0.35-0.48,0.67-1.04,1.14-1.38
		c1.77-1.28,3-3.08,4.55-4.57c0.65-0.62,1.32-1.22,2.03-1.76c1.02-0.77,2.19-1.27,3.49-1.29c1.85-0.03,3.71-0.04,5.56,0.2
		c3.1,0.4,5.67,1.83,7.94,3.89c1.02,0.92,1.94,1.93,2.71,3.16c0.39-0.57,0.52-1.05,0.52-1.59c0.02-3.23,0.47-6.44,0.86-9.64
		c0.43-3.56,0.95-7.11,1.9-10.58c0.33-1.21,0.64-2.43,1.34-3.5c0.9-1.37,1.89-1.69,3.36-0.99c1.17,0.55,1.98,1.54,2.76,2.52
		c2.23,2.81,3.72,5.99,4.62,9.45c1.03,3.94,1.67,7.95,2.09,12c0.09,0.83,0.22,1.67,0.46,2.47c0.76,2.54,1.03,5.16,1.26,7.77
		c0.29,3.16,0.88,6.27,1.31,9.41c0.63,4.61,1.46,9.2,2.21,13.8c0.02,0.11,0.12,0.21,0.21,0.37c0.74,0.28,1.48-0.15,2.23-0.15
		c0.85,0,1.27-0.57,1.81-1.02c2.17-1.81,4.54-3.32,7.11-4.5c0.7-0.32,1.38-0.67,2.12-1.04c-0.51-2.55-1.03-5-1.5-7.46
		c-0.63-3.35-1.07-6.73-1.03-10.16c0.03-3-0.03-6,0.14-8.99c0.24-4.12,0.75-8.22,1.84-12.22c0.24-0.86,0.62-1.69,0.94-2.52
		c0.27-0.69,0.75-1.23,1.33-1.67c1.03-0.76,2.04-0.55,2.76,0.53c0.31,0.46,0.48,0.97,0.53,1.51c0.14,1.49,0.33,2.98,0.35,4.47
		c0.05,3.24,0,6.48,0.02,9.72c0.01,1.44,0.1,2.87,0.16,4.28c0.59,0.27,0.67-0.2,0.77-0.49c0.43-1.32,1.06-2.54,1.76-3.73
		c2.45-4.1,6.1-6.67,10.56-8.18c2.27-0.77,4.53-1.59,6.94-1.8c0.82-0.07,1.27-0.66,1.72-1.19c1.71-2,3.39-4.03,5.08-6.04
		c1.93-2.3,3.87-4.58,6.22-6.46c1.59-1.28,3.26-2.45,5.25-3.05c1.1-0.33,2.19-0.46,3.33,0.04c1.36,0.6,2.22,2.34,1.98,3.84
		c-0.24,1.44-0.69,2.78-1.48,4.01c-0.7,1.1-1.42,2.19-2.21,3.42c0.77-0.07,1.28-0.5,1.82-0.8c2.84-1.6,5.83-2.79,9.05-3.37
		c0.78-0.14,1.53-0.18,2.3,0.11c1.23,0.46,1.86,1.23,1.95,2.5c0.1,1.41-0.21,2.73-0.71,4.04c-1.47,3.83-3.41,7.39-6.12,10.49
		c-0.1,0.12-0.13,0.31-0.23,0.58c2.73,0.6,5.41,1.06,8.16,1.32c0.55-1.79,0.38-3.48,0.32-5.13c-0.08-1.91-0.34-3.81-0.57-5.7
		c-0.15-1.26-0.22-2.49,0.13-3.73c0.6-2.13,2.23-3.42,4.46-3.5c0.65-0.02,1.31,0,1.94,0c0.19-0.57-0.22-0.85-0.38-1.21
		c-0.22-0.49-0.46-0.98-0.72-1.45c-1.24-2.27,0.06-3.78,2.2-4.15c1.43-0.24,2.85-0.14,4.28,0.16c3.26,0.68,6.26,2.02,9.18,3.55
		c3.46,1.82,6.7,3.95,9.44,6.79c3.63,3.76,5.75,8.2,6.09,13.45c0.01,0.18-0.01,0.37,0.03,0.54c0.1,0.4,0.22,0.8,0.41,1.47
		c0.43-1.23,1.04-2.14,1.57-3.08c1.24-2.18,4.94-2.49,6.55,0.31c0.6,1.04,1.02,2.16,1.25,3.35c1.07,5.57,0.42,10.87-2.68,15.68
		c-1.26,1.96-2.46,3.97-3.85,5.84c-3.27,4.4-7.37,7.68-12.87,8.89c-0.65,0.14-1.27,0.36-1.85,0.68c-1.7,0.97-3.57,1.37-5.49,1.56
		c-4.03,0.4-7.99,0.13-11.89-1.09c-1.85-0.58-3.81-0.83-5.69-1.35c-2.67-0.74-5.21-1.8-7.71-2.94c-4.14-1.89-8.38-3.52-12.58-5.27
		c-1.6-0.67-3.22-1.3-4.83-2.17c-0.92,1.26-1.31,2.79-2.21,4.05c-0.87,1.22-1.78,2.39-2.89,3.38c0.19,0.51,0.6,0.36,0.92,0.37
		c4.56,0.13,8.77,1.46,12.42,4.16c4.22,3.13,8.54,6.2,11.87,10.37c0.04,0.05,0.09,0.08,0.12,0.13c1.09,2.11,2.99,2.86,5.19,3.35
		c3.58,0.8,7.17,1.39,10.84,1.44c1.8,0.02,3.6,0.22,5.39,0.12c1.92-0.11,3.84,0,5.75-0.14c2.17-0.16,3.78,1.11,2.34,3.83
		c-0.31,0.58-0.62,1.17-0.99,1.71c-1.7,2.48-3.68,4.71-6.12,6.51c-0.87,0.65-1.77,1.26-2.95,1.23c1.6,0.47,3.21,0.91,4.79,1.44
		c0.85,0.28,1.66,0.67,2.46,1.07c0.7,0.35,1.29,0.88,1.8,1.48c1.01,1.2,1.08,2.66,0.23,3.98c-0.64,0.99-1.53,1.67-2.61,2.12
		c-2.73,1.15-5.56,1.3-8.45,0.79c-3.24-0.58-6.18-1.87-8.86-3.77c-0.29-0.21-0.59-0.41-0.95-0.66c-0.1,0.57,0.23,0.92,0.45,1.31
		c2.17,3.79,3.62,7.82,3.99,12.19c0.56,6.54-0.81,12.62-4.57,18.08c-0.89,1.29-1.94,2.46-3.24,3.33c-1.1,0.75-2.06,1.63-2.94,2.6
		c-1.5,1.65-3.31,2.74-5.45,3.31c-0.22,0.06-0.44,0.15-0.76,0.26c0.28,1.9-0.83,3.27-1.87,4.67c1.95,2.21,3.72,4.38,6.24,5.8
		c1.13,0.64,2.06,1.64,3.16,2.34c1.87,1.18,3.92,2.06,5.64,3.5c0.49,0.41,1.18,0.56,1.79,0.82c0.78,0.34,1.49,0.77,2.06,1.4
		c1.37,1.51,1.39,3.29,0.84,5.07c-0.64,2.1-1.9,3.87-3.53,5.34c-1.29,1.17-2.65,2.25-4.14,3.16c-0.42,0.25-0.79,0.52-1.08,0.92
		c-0.68,0.93-1.6,1.61-2.5,2.31c-1.13,0.88-2.4,1.32-3.84,1.26c-0.87-0.04-1.75,0.01-2.63,0.02c0.02,0.28-0.01,0.44,0.05,0.5
		c0.69,0.67,1.35,1.35,2.09,1.97c1.86,1.56,4.03,2.55,6.3,3.36c3.67,1.31,7.25,2.83,10.75,4.53c3.51,1.7,6.67,3.97,9.59,6.59
		c2.84,2.55,5.23,5.42,7.04,8.77c1.74,3.21,2.67,6.62,2.69,10.31c0.02,3.35-0.51,6.55-1.77,9.64c-0.27,0.66-0.54,1.36-0.97,1.92
		c-0.82,1.08-1.22,2.29-1.54,3.58c-1.74,7.05-4.24,13.84-7.3,20.42c-1.85,3.97-3.91,7.82-6.24,11.52c-0.83,1.32-1.71,2.61-2.68,3.82
		c-1.25,1.56-2.17,3.29-3.01,5.13c0.78,1.8,1.6,3.59,2.32,5.42c1,2.56,1.95,5.15,2.88,7.74c0.46,1.28,0.42,2.58-0.11,3.86
		c-0.14,0.35-0.6,0.65-0.29,1.12c-0.19-0.04-0.32,0.02-0.46,0.15c-1.56,1.43-3.36,2.47-5.37,3.15c-0.45,0.15-0.89,0.34-1.34,0.52
		c-0.47,0.19-0.82,0.48-0.85,1.17c0.52,0.36,1.01,0.86,1.24,1.57c0.21,0.65,0.1,1.45,0.89,1.89c0.38-0.2,0.5-0.62,0.68-0.98
		c0.7-1.39,1.57-2.68,2.47-3.94C246.52,285.1,247.44,283.93,248.34,282.75z M160.68,638.24c-0.06-0.39-0.29-0.59-0.49-0.8
		c-0.51-0.53-0.91-1.1-0.88-1.89c0.03-0.76,0.46-1.2,1.05-1.55c0.44-0.26,0.41-0.71,0.34-1.12c-0.26-1.59-0.57-3.17-0.81-4.76
		c-0.98-6.61-2.43-13.15-2.4-19.83c-0.34-0.36-0.68-0.6-1.12-0.69c-0.38,0.32-0.49,0.78-0.64,1.23c-1.07,3.23-2.16,6.46-3.24,9.69
		c-0.05,0.16-0.12,0.21-0.22,0.14c-0.21-0.16-0.31-0.55-0.76-0.32c-0.66,1.55-1.27,3.17-2.04,4.73c-0.57,1.15-0.65,2.23-0.2,3.43
		c0.31,0.83,0.48,1.73,0.63,2.61c0.23,1.41-0.24,2.72-0.67,4.03c-1.88,5.87-3.63,11.77-5.26,17.72c-0.1,0.37-0.34,0.78,0.08,1.21
		c0.2-0.01,0.44-0.01,0.66-0.05c2.6-0.38,5.21-0.76,7.81-1.14c1.45-0.21,2.5-1.1,2.52-2.51c0.03-2.1,0.98-3.78,2.06-5.45
		C158.21,641.24,159.48,639.74,160.68,638.24z M188.88,48.97c3.89-0.7,8.91-2.99,10.2-4.68c-2.8-0.03-5.54-0.35-8.04,1.15
		c0.08,0.38,0.13,0.65,0.2,0.99C190,46.77,189.1,47.47,188.88,48.97z"/>
</g>
</svg>
