<?xml version="1.0" encoding="utf-8"?>
<!-- Generator: Adobe Illustrator 24.1.3, SVG Export Plug-In . SVG Version: 6.00 Build 0)  -->
<svg version="1.1" id="Layer_1" xmlns="http://www.w3.org/2000/svg" xmlns:xlink="http://www.w3.org/1999/xlink" x="0px" y="0px"
	 viewBox="0 0 2152.11 585.84" enable-background="new 0 0 2152.11 585.84" xml:space="preserve">
<g>
	<path d="M970.49,367.07c-4.3-2.04-8.06-4.1-12.25-5.41c-4.45-1.4-8.45-3.7-11.25-7.84c-2.68-3.96-7.4-5.56-11.01-8.49
		c-5.16-4.18-9.57-9.27-15.15-12.65c-3.49-0.51-2.98,3.3-5.2,4.31c-2.06-0.23-4.61-1.31-6.44-0.58c-9.62,3.83-19.23,1.36-28.39-0.67
		c-8.89-1.97-18.02-4.36-25.83-9.79c-8.99-6.25-18.41-11.81-26.84-18.95c-3.87-3.28-5.53-6.24-4.61-10.97
		c0.18-0.95,0.03-1.96,0.03-2.88c-10.45-9.54-20.76-18.94-31.04-28.37c-3.45-3.16-6.25-6.86-9.06-10.61
		c-13.68-18.26-30.85-31.12-54.25-33.93c-0.99-0.12-2.02-0.19-2.94-0.52c-16.38-5.83-32.12-1.23-47.87,2.95
		c-1.91,0.51-3.85,1.28-5.46,2.4c-6.95,4.81-15.05,4.75-22.92,5.56c-3,0.31-6.22-0.01-6.58-4.24c-0.1-1.22-1.03-1.92-1.92-1.6
		c-3.75,1.35-5.36-1.55-7.53-3.47c-3.24-2.86-6.41-5.83-9.86-8.42c-2.76-2.08-5.02-4.33-6.12-8.32
		c6.71-12.86,13.62-26.11,20.54-39.37c0.92-1.76,2.21-3.43,2.7-5.31c3.79-14.47,13.75-25.74,20.03-38.91
		c1.93-4.06,5.92-6.25,9.43-8.74c4.82-3.42,9.05-6.54,11.01-13.1c1.47-4.9,6.57-9.12,10.87-12.65c5.32-4.37,8.77-11.04,16-13.2
		c1.3-0.39,2.2-2.35,3.14-3.69c4.79-6.84,10.38-12.97,16.14-18.99c9.43-9.86,18.43-20.13,28.05-29.79
		c6.98-7.01,14.65-13.32,23.01-20.83c0.32,5.48-2.04,8.38-4.45,10.82c-6.39,6.46-11.63,13.76-15.71,21.78
		c-5.23,10.26-9.84,20.84-14.71,31.27c2,1.14,2.74-0.21,3.61-1.01c14.19-13.07,28.01-26.55,44.06-37.45
		c3.55-2.41,6.78-5.4,9.81-8.46C808.39,10,817.1,5.88,825.46,0.97c-9.09,16.06-22.12,29.16-32.17,44.45
		c-9.96,15.16-23.38,27.78-33.03,43.16c2.65,2.53,4,0.42,5.34-0.8c4.08-3.72,7.53-8.26,13.14-9.95c2.39,3.32-1.91,5.77-0.53,8.79
		c1.9,2.09,4.22-2.4,5.49-0.37c2.95,2.81-0.5,5.77,1.8,8.18c4.4-0.87,7.33-5.43,12.8-5.52c-0.52,4.05-4.29,6.08-5.21,10.22
		c3.7,0.85,6.16-4.01,9.83-2.07c2.07,1.65-0.83,4.38,1.27,6.43c1.66-0.68,3.42-1.41,5.57-2.29c2.31,3.78-2.63,6.68-1.05,10.3
		c2.85,1.41,3.99-3.32,7.46-1.85c2.53,2.42-0.26,6.81,2.19,9.8c3.51,0.83,5.59-3.47,9.52-2.64c2.3,3.47-2,6.52-1.41,9.74
		c2.67,0.96,3.56-2.23,5.85-1.55c2.47,1.22,0.8,4.24,2.39,6.05c1.73-0.57,3.5-1.15,5.08-1.67c2.62,2.42-0.88,4.7,0.72,7.07
		c1.27-0.16,2.72-0.35,4.46-0.57c2.15,3.77-0.76,8.96,3.44,12.11c3.32,0.78,3.33-3.81,6.33-3.95c2.15,1.62,0.26,5.19,3.54,7.24
		c2.68,0.22,3.33-4.34,6.54-4.2c2.21,2.2,0.24,5.01,1.07,7.89c7.24-1.75,6,5.3,8.41,8.61c2.75-0.69,2.62-4.15,5.21-4.64
		c2.37,0.07,1.93,2.3,2.81,3.56c2.53-0.48,2.52-3.5,4.43-4.63c3.61-0.09,3.84,4.1,6.32,5.19c2.9-0.73,1.88-4.49,5.33-5.25
		c1.19,1.63,2.65,3.62,4.31,5.87c6.99,0.65,14.55-0.34,20.31,4.16c3.35-0.75,2.19-4.65,5.56-5.16c4.04,2.39,4.41,8.81,9.4,10.55
		c4.04,1.41,8.29,2.25,12.03,3.23c3.52-1.18,5.28-3.59,7.09-6c4.62-6.16,10.7-10.93,15.9-16.49c15-16.02,34.77-22.89,54.68-29.26
		c10.78-3.45,21.58-6.87,31.97-11.23c17.52-7.36,35.39-13.06,54.14-16.51c16.31-3,32.33-7.57,48.52-11.3
		c16.2-3.73,32.59-6.15,49.23-7.06c12.28-0.67,24.53-2.01,35.82-7.65c1.15-0.57,2.56-0.75,3.8,0.33c0.13,3.26-2.54,5.17-3.97,7.67
		c-0.98,1.72-3.06,3.08-3.39,4.84c-1.53,8.26-8.3,11.02-14.59,13.72c-7.92,3.41-16.17,6.12-24.45,8.56
		c-12.79,3.77-24.96,9.09-37.22,14.21c-3.99,1.67-8.1,3.03-12.13,4.6c-1.54,0.6-3.08,1.31-3.28,3.3c6.96,4.38,12.04,3.53,19.77-3.36
		c2.65,0.79,0.7,3.46,2.28,5.19c3.37,2.39,7.7,2.17,12.05,2.28c3.88-2.85,4.48-8.97,9.85-10.42c2.25,3.2-1.7,6.15,0.83,9.4
		c5.23,2.17,10.01-0.28,14.22-3.57c6.02-4.71,11.63-9.93,17.45-14.89c4.26-3.62,8.32-7.66,15.38-8.39c-1.04,2.78-4.96,3.2-3.98,6.4
		c1.86,2.25,4,0.93,6.06-0.02c10.6-4.93,20.49-11.1,29.22-18.83c10.7-9.47,20.9-19.49,31.37-29.21
		c10.58-9.82,23.13-16.48,37.24-23.41c-0.52,3.6-2.87,4.47-3.78,6.14c-1.57,2.88-0.74,5.61,2.36,6.22c4.2,0.82,8.51,1.05,12.77,1.54
		c1.98,1.84-1.49,3.44-0.23,5.68c16.91-5.99,34.3-10.03,49.97-19.16c10.58-6.16,21.75-11.39,34.34-16.11
		c-0.91,6.35-2.46,11.35-6.58,15.36c-2.31,2.25-4.22,5.68-2.55,8.01c2.92,4.07,4.86,9.12,9.8,11.65c10.59,5.42,21.82,7.71,33.65,7.4
		c1.31-0.03,2.62,0.19,3.93,0.29c-0.06,0.81,0.1,1.72-0.17,1.87c-3.67,2.06-7.59,3.33-8.6,8.59c-1.41,7.32-2.56,14.38,0.85,21.42
		c5.04,10.43,13.91,17.45,26.91,20.91c-9.18,5.71-6.78,15.2-8.37,23.74c2.56,2.6,6.44,4.27,6.74,8.19c3.87-0.06,4.09-3.3,6.26-4.17
		c1.37,0.81,3.27,2.63,4,2.25c4.63-2.43,8.34,0.46,12.45,1.42c8,1.87,15.91,4.77,24.41,2.33c2.13-0.61,4.59-0.09,6.81-0.09
		c1.06,3-1.94,3.22-2.68,4.81c-2.42,5.21,0,11.16,5.98,14.01c4.77,2.28,9.97,2.99,15.65,3.47c-6.29,3.99-10.65,9.2-12.66,16.14
		c-0.55,1.89-1.26,3.88-1.19,5.79c0.24,6.41,4.24,9.63,10.57,8.68c2.24-0.34,4.33-1.75,7.12-0.67c-0.74,2.01-1.56,3.99-2.19,6.03
		c-4.38,14.25-1.19,22.2,14.8,30.21c4.98,2.5,10.6,3.73,16.92,5.88c-8.3,4.55-9.29,11.43-7.34,19.59
		c5.27,5.23,12.19,7.11,19.61,7.67c-1.74,7.97,0.75,14.23,7.93,18.45c7.19,4.23,14.71,7.88,23.49,7.18c1.27-0.1,2.58,0.25,3.48,0.36
		c5.17,7.03,0.92,13.61-0.22,19.73c1.84,2.17,3.53,1.41,4.91,0.66c4.57-2.48,9.62-2.75,14.49-2.51c7.04,0.35,13.85-0.27,20.46-2.39
		c7.4,9.52,16.94,15.13,28.09,18.08c2.52,0.67,5.33,0.9,7.91,0.57c4.35-0.55,8.3-0.76,11.89,2.55c1.7,1.57,4.35,1.49,6.7,1.54
		c8.02,0.15,16.1-0.04,23.56-3.13c3.83-1.59,7.17-1.76,10.4,0.28c5.22,3.29,10.74,2.86,16.42,2.22c8.68-0.98,16.82-3.74,25.02-7.52
		c4.78,4.6,9.67,9.12,16.81,9.5c5.86,0.31,11.14-1.3,15.69-4.47c12.16,2.6,23.82,2.97,34.71-3.75c2.4-1.48,4.94-1.82,7.67-1.47
		c1.65,0.21,3.32,0.35,4.97,0.34c10.18-0.03,19.05-2.74,24.33-13.17c7.87,4.69,14.87,3.96,21.14-3.06c6.89,5.4,13.1,2.3,19.53-0.92
		c8.43-4.22,16.18-9.05,21.33-17.29c1.41-2.27,3.09-4.33,3.53-7.06c1.39-8.6,4.64-16.6,7.74-24.68c2.14-5.59,4.29-11.23,5.72-17.02
		c3.1-12.57,9.6-23.29,17.09-33.57c2.54-3.49,4.92-7.1,7.53-10.54c1.39-1.84,2.9-3.72,4.72-5.07c18.86-14.04,39.49-20.2,62.9-13.95
		c5.93,1.58,7.24,2.49,11.69,9.52c-0.84,1.73-1.95,1.01-3.17,0.45c-10.33-4.79-21.25-4.86-32.25-3.77c-2.61,0.26-5.4,0.84-7.67,2.07
		c-16.48,8.89-30.73,19.7-35.18,39.53c-1.81,8.08-5.13,15.82-5.3,24.26c-0.09,4.65-0.24,9.29-0.28,13.94
		c-0.01,1.33,0.12,1.33,3.76,5.31c11.43-3.14,20.69-9.93,30.17-16.78c20.76-14.99,41.91-29.46,65.72-39.46
		c5.48-2.3,11.09-3.73,17.98-4.59c-8.25,8.18-18.8,11.68-25.58,19.77c1.24,1.87,2.64,1.44,3.84,1.46
		c20.59,0.32,24.26,20.26,18.04,32.1c-2.14,4.07-4.83,8.31-8.36,11.08c-8.58,6.74-17.49,12.84-29.21,13.64
		c-10.22,0.7-20.57,1-30.6,3.68c-4.22,1.13-8.34,2.49-11.86,5.07c-2.14,1.57-3.83,3.76-2.7,6.85c0.91,2.48,2.71,3.59,5.31,3.73
		c21.93,1.17,43.23-0.33,62.03-13.62c7.53-5.32,13.56-12.36,17.72-20.02c3.2-5.89,6.89-12.53,6.61-20c2.38,0.4,0.41,3.35,2.62,3.9
		c0.42-2.59,0.83-5.17,1.24-7.69c1.34-0.23,1.86,0.69,2.46,1.42c1.58,1.9,2.12,3.93,1.33,6.44c-5.38,17.18-11.01,34.14-23.62,47.85
		c-5.05,5.49-10.35,10.05-17.24,13.13c-8.78,3.92-17.02,8.8-26.56,11.19c-6.68,1.67-13.07,2.01-19.71,1.03
		c-2.62-0.39-5.26-1.13-7.87-1.04c-8.39,0.29-16.66-0.33-24.65-2.89c-3.81-1.22-7.08-1.08-10.19,1.58
		c-3.32,2.84-6.89,3.23-11.14,1.71c-3.85-1.38-7.93-0.49-11.66,1.23c-9.66,4.47-19.33,8.92-28.92,13.53
		c-2.07,0.99-3.84,2.61-5.74,3.95c-1.9,1.33-3.6,3.21-5.7,3.93c-15.1,5.23-28.77,13.88-44.27,18.16c-4.14,1.14-8.15,2.89-12.08,4.67
		c-5.78,2.61-11.8,4.2-17.95,5.77c-19.6,5.01-39.84,7.46-58.91,14.65c-7.5,2.83-15.53,3.58-23.39,4.84
		c-10.17,1.62-20.22,4.08-30.36,5.55c-14.04,2.04-28.2,4.46-42.54,3.14c-8.66-0.79-17.23-0.9-25.85,0.79
		c-4.19,0.82-8.76,1.25-12.9,0.48c-13.41-2.51-27.17,1.05-40.47-2.7c-1.44-0.41-3.22,0.5-4.85,0.65c-2.98,0.26-6.04,0.66-8.92-0.4
		c-14.99-5.52-30.76-8.29-45.97-13.19c-14.08-4.53-26.48-11.78-39.22-18.78c-7.78-4.28-14.6-10.67-24.02-11.75
		c-1.54-0.18-3.69-1.06-4.32-2.26c-2.96-5.68-9.16-7.44-13.36-11.57c-2.1-2.07-4.58-3.93-7.19-5.31
		c-10.04-5.29-18.94-11.99-27.11-19.88c-7.42-7.17-16.79-11.73-25.48-17.17c-0.54-0.34-1.24-0.61-1.86-0.62
		c-11.87-0.15-22.24-6.25-33.58-8.46c-0.92-0.18-1.94,0.09-2.68,0.13c-1.78,1.32-1.72,3.05-1.63,4.66
		c0.64,11.18-3.46,21.61-5.23,32.39c-0.62,3.75-3.38,7.17-5.22,10.7c-2.78,5.34-5.1,10.81-5.59,16.91c-0.32,4.05,0.95,7.07,4.78,9
		c5.94,3.01,11.52,6.61,16.95,10.51c3.43,2.46,4.79,5.48,4.18,9.38c-0.93,5.9-2.12,11.76-3.23,17.64c-0.37,1.95-1.41,3.95-1.2,5.81
		c1.24,11.17-2.08,21.75-3.84,32.53c-0.75,4.59-1.38,9.19-2.14,13.77c-0.81,4.88-0.87,9.26,1.04,14.36
		c1.93,5.15,2.52,11.74-2.02,17.03c-2.25,2.62-2.52,6.02-2.56,9.44c-0.13,10.65-0.82,21.32-0.52,31.96
		c0.3,10.66-3.5,19.3-10.39,27.1c-2.4,2.71-4.92,4.31-8.49,4.38c-8.32,0.15-16.7,0.96-24.94,0.22c-4.34-0.38-8.46-0.16-12.58,0.44
		c-5.57,0.82-10.96,2.27-16.61,0.08c-1.67-0.65-3.94,0.02-5.89,0.36c-1.64,0.29-3.2,0.89-4.89,0.36c-9.23-2.89-18.16-2.2-26.79,2.78
		c-1.6-3.97-3-7.42-4.51-11.17c-11.19-1.79-21.51,0.9-31.97,6.86c-0.3-3.58,1.63-5.19,3.39-6.09c9.63-4.98,17.83-12.96,29.3-14.15
		c2.45-0.25,4.42-1.62,5.93-3.43c3.44-4.11,7.75-6.03,13.08-6.13c2.29-0.04,5.16-0.01,6.49-2.02c3.98-6,10-8.23,16.43-10.23
		c3.28-1.02,5.27-4.02,6.54-7.19c2.37-5.86,4.47-11.83,6.92-17.66c1.02-2.43,0.25-4.45-0.27-6.73c-2.02-8.81-0.51-16.61,7.38-22.08
		c2.94-2.04,4.52-4.85,5.63-8.01c1.99-5.65,3.66-11.41,5.75-17.02c1.43-3.82,0.62-7.07-1.24-10.46c-2.63-4.8-6.19-8.6-10.75-11.59
		c-3.71-2.44-6.62-5.21-9.2-9.32c-3.14-5-9.49-7.99-15.01-12.28c-7.83,12.86-17.01,24.18-23.11,37.47c-0.69,1.5-1.88,3.55-1.36,4.67
		c2.46,5.37-1.41,8.75-3.55,12.57c-5.38,9.6-10.18,19.44-13.91,29.81c-0.79,2.2-1.82,4.33-1.68,6.72c0.14,2.5-0.33,4.48-2.83,5.81
		c-1.04,0.55-1.97,1.93-2.31,3.12c-3.18,11.24-9.75,21.07-13.34,32.14c-0.98,3.02-0.4,5.92-0.1,8.96
		c-19.71,8.7-40.48,9.54-61.44,8.92c-4.3-0.13-8.24-1.72-11.67-6.3c-1.5,5.18-4.39,6-8.37,6.72c-8.91,1.62-17.86,1.65-26.79,2.18
		c-5.93,0.35-11.98,0.19-14.79-6.97c-0.88-2.23-3.54-2.73-5.99-2.95c-6.16-0.56-11.75,1.48-17.37,3.96
		c0.07-6.59,1.88-9.67,7.68-12.04c5.22-2.13,10.6-3.88,16.3-4.47c7.36-0.76,14.1-3.07,20.55-6.92c4.69-2.8,10.07-4.45,13.81-9.47
		c8.58,6.62,14.51,2.06,21.13-3.46c12.51-10.43,20.41-24.42,30.26-36.9c6.61-8.37,11.82-17.63,16.83-27.04
		c2.97-5.59,4.26-11.77,6.7-17.55c2.12-5.02,0.49-11.31-2.9-16.17c-4.37-6.26-8.96-12.3-15.11-17.15
		c-9.14-7.21-17.48-15.37-25.81-23.52c-4.07-3.98-6.09-8.54-6.2-14.14c-0.14-7.02-0.09-13.89,3.06-20.51
		c2.25-4.73,4.31-9.66,5.19-15.93c-2.98,0.21-5.26,1.04-7.47,2.17c-15.63,7.99-31.49,15.46-46.16,25.34
		c-12.37,8.33-25.87,14.96-40.06,20.65c0.6,5.01,4.45,7.19,7.95,9.52c1.64,1.09,3.66,1.58,5.38,2.56c4.7,2.68,5.69,5.05,3.4,9.84
		c-4.58,9.59-8.68,19.49-15.19,28.02c-2.33,3.05-3.01,6.26-3.64,9.99c-2.09,12.41-2.09,25.06-5.62,37.34
		c-3.02,10.5-3.9,21.6-6.73,32.16c-2.11,7.87-2.32,15.52-1.58,23.48c0.56,5.97,0.22,11.96-3.47,17.26c-0.96,1.38-1.74,2.57-3.3,3.43
		c-6.02,3.34-10.5,8.08-12.45,14.87c-0.91,3.17-3.05,5.06-6.08,6.06c-3.79,1.25-7.51,2.8-11.4,3.61
		c-7.44,1.55-14.99,2.63-22.47,3.97c-5.65,1.01-11.14,0.97-15.87-2.08c-4.7,1.26-7.74,4.59-12.26,7.25
		c-0.81-4.04-2.33-7.2-6.46-7.66c-5.14-0.58-9.94,0.38-14.06,3.59c-2.78,2.17-4.85,5.48-8.99,5.19c-2.73-4.37,1.99-6.77,2.32-10.81
		c-9.91-0.64-16.96,6.28-25.18,9.42c-2.36-2.25-0.39-3.94,0.58-5.29c2.76-3.83,6.5-6.57,10.61-8.92
		c10.92-6.23,21.76-12.6,32.57-19.02c1.18-0.7,2.23-1.3,3.62-1.26c14.92,0.5,26.72-6.75,37.52-15.76
		c5.06-4.23,9.28-9.54,13.55-14.63c3.8-4.53,4.89-10.22,4.62-15.93c-0.76-15.91-1.91-31.79-5.03-47.47
		c-1.33-6.67-6.24-11.64-7.73-18.24c-0.85-3.77-3.03-7.25-4.53-10.69c-3.17-0.39-3.48,2.06-4.36,3.54
		c-5.42,9.16-11.97,17.92-15.69,27.75c-4.14,10.93-12.45,17.72-20.15,25.15c-10.48,10.11-18.84,21.44-24.16,34.98
		c-0.47,1.21-0.44,2.85-1.86,3.26c-5.66,1.63-6.26,6.09-6.45,10.91c-0.27,6.79-3.46,11.8-8.96,15.83c-3.67,2.69-7.67,5.17-10.3,8.8
		c-0.05,1.78,1.19,2.55,2.09,3.7c-2.29,3.38-5.36,5.64-9.33,6.35c-9.12,1.62-18.24,3.21-27.4,4.53c-6.26,0.9-12.46-0.11-18.75-0.69
		c-8.39-0.77-16.95-1.32-25.47-1.33c-5.19,0-10.23,0.58-15.17-3.07c-3.26-2.4-8.4-1.24-12.61,0.01c-3.51,1.04-6.95,2.34-10.73,1.24
		c-0.58-2.96,1.72-4.32,3.49-5.37c7.12-4.25,14.45-8.31,22.51-10.38c3.74-0.96,6.79-2.48,9.49-5.05c2.39-2.29,5.19-3.88,8-5.62
		c6.13-3.79,12.61-3.88,19.14-3.61c14.67,0.62,23.43-8.44,30.38-19.15c5.56-8.59,9.21-18.41,13.77-27.65
		c4.11-8.34,7.99-16.82,12.55-24.9c7.06-12.51,12.99-25.51,17.83-38.98c5.83-16.2,6.06-32.43-1.03-48.48
		C973.07,375.34,972.02,371.47,970.49,367.07z"/>
	<path fill="#1A1A1A" d="M1465.13,280.61c0.47-0.46,1.31-0.89,1.35-1.38c0.54-7.11,3.07-13.88,2.8-21.19
		c-0.49-13.2,0.35-26.44-1.48-39.6c-0.33-2.4-0.3-4.66,2.36-6.08c2.54,1.33,1.21,3.97,1.86,5.92c1.72,5.15,4.95,6.66,9.9,4.5
		c1.8-0.78,3.5-1.78,5.25-2.69c0,0-0.29-0.3-0.29-0.3c4.64,5.89,4.06,13.41,5.8,20.05c9.06,0.08,9.54,0.18,16.26,3.26
		c-0.57,1.16-1.14,2.31-1.71,3.47l0.39-0.35c-1.87,0.11-3.55,1.32-3.18,2.89c0.62,2.6-0.22,6.03,3.17,7.51l-0.34-0.17
		c0.88,2.83,2.87,2.14,4.74,1.39c2.6-1.04,3.9-3.5,5.66-5.47c3.03-3.39,5.19-7.47,9.76-10.87c-5.69-2.6-9.82-0.32-14.1,0.81
		c-2.62-0.77-4.41-2.46-5.43-5.57c8.65-7.56,17.31-15.02,28.94-18.26c9.88-2.75,19.52-6.33,29.99-9.78
		c-0.79,8.41-2.97,16.73,2.54,23.96c5.31,6.98,13.26,9.58,21.09,12.3c-0.74,2.42-4.76,1.18-4.45,4.41c-1-1.35-2.1-2.92-3.84-2.88
		c-8.88,0.19-17.61,1.29-25.77,5.3c8.9-1.09,17.72-2.22,26.67-1.88c0.93,0.04,1.87-0.53,2.81-0.82c1.9-0.71,3.8-0.89,6.41,0.2
		c-0.96,3.69-0.99,7.57-1.23,11.42c-0.34,5.64,1.45,9.64,6.95,11.72c1.5,0.57,2.83,1.61,4.83,2.79c-3.18,1.42-5.75,2.55-8.31,3.69
		c0.11,0.41,0.22,0.81,0.33,1.22c4.11-0.98,8.23-1.95,12.09-2.87c3.14,1.28,1.53,4.37,2.91,6.11c4.08,5.12,6.1,12.23,14.49,13.02
		c2.98,0.28,5.77,2.94,8.57,4.63c1.46,0.89,2.44,2.2,2.05,4.1c-2.13,1.71-4.55,2.75-7.25,3.15c-3.7-0.51-6.2,2-8.91,3.76
		c-3.07,2-6.11,3.93-9.72,4.75c-1-2.8-1.91-5.62-1.43-8.67l-0.31,0.45c2.63-2.03,3.09-4.83,3.56-7.65
		c-2.87-0.99-4.38,0.04-5.75,1.48c-0.51,0.32-0.96,0.71-1.35,1.16c-4.06,1.31-6.47,5.56-10.88,5.74c1,5.07-4.17,10.88,2.92,14.87
		c4.96-1.27,9.72-3.54,13.49-7.67c1.91,3.09,4.75,4.24,8.27,3.96l-0.24-0.26c-0.35,0.89-0.68,1.78-1.06,2.66
		c-1.68,3.82-0.55,7.67,2.82,8.7c4.66,1.42,8.74-0.71,12.84-2.51c-0.42-5.33,3.57-1.92,5.43-2.74c1.33,0.66,2.66,1.33,3.99,1.99
		c0.98,4.64,1.96,9.28,2.89,13.71c4.9,1.2,8.74,0.21,12.38-1.96c-0.4-2.1-1.39-3.98-0.04-5.84c0.28-1.92,0.56-3.85,0.84-5.77
		c2.66-1.85,1.14-5.65,3.6-7.63c4.46,0,8.95-0.03,13.44,0.02c1.41,0.02,2.38,0.78,2.65,2.25c-0.42,0.47-0.9,0.87-1.43,1.19
		c-5.82,1.83-9.78,5.89-13.88,10.41c2.29,1.09,5.08,2.22,5.02,2.41c-1.57,4.75,3.44,7.01,3.22,10.43c6.5,2.8,9.73-2.03,13.2-4.28
		c4.76,2.62,8.94,4.92,13.13,7.22c2.61,4.17,5.88,1.73,8.99,0.89c3.26-1.13,6.64-1.09,10.03-0.96c1.28,4.35,3.8,1.49,5.96,1.14
		c-0.15-1.23,0.29-2.57-1.05-3.11c-1.67,0.61-3.18,1.16-4.7,1.72c-0.02-1.65-0.04-3.3-0.06-4.94c1.19-0.73,2.38-1.45,3.56-2.18
		c2.96-0.23,5.91-0.46,9.03-0.71c1.48-1.55-1.78-3.4,0.57-5.5c7.63,5.27,16.04,5.86,24.93,2.47c2.39-0.91,5.23-0.68,7.88-0.83
		c1.76-0.1,1.66,1.69,2.68,3.13c5.05-4.55,10.55-4.61,16.21-1.07c2.1,1.32,4.21,1.11,6.62,0.47c5.71-1.51,11.48-3.06,18.27-2.8
		c-2.56,5.57-5.9,8.03-11.5,8.7c-8.25,0.99-16.41,2.33-24.76,1.4c-1.59-0.18-3.24,0.13-5.24,0.23c2.28,2.4,4.74,1.94,7.07,1.92
		c11.63-0.12,23.26-0.18,34.88-0.48c3.62-0.09,7.27-0.61,10.82-1.36c11.38-2.41,23.18-1.57,34.49-4.5c1.58-0.41,3.33-0.25,4.39-1.83
		l-0.3,0.26c13.71-2.09,27.41-4.3,41.15-6.24c16.11-2.28,31.46-7.71,47.22-11.42c10.85-2.55,21.25-7.17,31.69-11.27
		c2.9-1.14,5.87-0.79,8.75-1.79c2.72-2.41-0.29-6.65,2.77-9c12.87,2.86,20.34-1.2,27.1-14.77l-0.36,0.36
		c2.27-0.22,3.32-1.97,4.38-3.62c0.88-1.36,1.61-2.81,2.51-4.41c1.94,2.96,4.58,5.43,2.07,9.07c1.41,1.44,3.04,0.26,4.64,0.38
		c1.24-2.51,2.34-5.15,3.79-7.58c3.26-5.49,8.27-8.58,14.5-9.38c4.59-0.59,9.34-1.24,13.88-0.7c12.28,1.46,24.51-0.77,36.77,0.17
		c2.84,0.22,5.76-0.6,8.43-0.92c0.21-1.74-0.15-2.81-1.29-2.53c-9.22,2.26-18.02-1.13-27.15-1.39c0.1-1.47,0.17-2.45,0.24-3.43
		c0.4-0.24,0.76-0.54,1.08-0.87c3.3-2.51,6.8-4.83,8.31-8.99l-0.38,0.33c8.3-3.65,15.08-9.54,22.2-14.95
		c3.93,1.15,7.94,0.43,11.91,0.49c4.72,0.07,8.14,1.99,10.23,6.46c1.93,4.14,1.22,7.42-1.55,10.99c-3.59,4.62-7.72,8.12-13.4,9.8
		c-2.14,0.63-4.71,0.65-6.42,3.59c1.93,1.47,3.13,2.97,6.34,1.34c6.91-3.49,12.54-8.44,18.12-14.36
		c0.15,14.88-9.17,21.86-20.77,26.23c-7.04,2.65-14.54,3.93-22.35,4.13c-14.4,0.38-28.47,2.95-40.12,12.61
		c-2.08,1.72-4.42,2.53-7.24,2.76c-7.84,0.64-14.53,4.24-20.52,9.14c-3.91,3.2-6.72,7.27-7.3,12.08c-3.46,0.12-1.98-2.78-4.19-3.45
		c-0.86,1.84-1.66,3.83-2.71,5.69c-0.9,1.6-2.46,2.2-4.25,1.61c-1.4-0.46-1.99-1.56-2.01-3.05c-0.01-0.94-0.23-1.89-0.43-3.45
		c-5.73,5.12-9.7,11.38-16.21,14.99c-9.03,5.01-18.09,9.91-27.89,13.23c-5.71,1.93-11.14,4.38-16.26,7.5
		c-13.44,8.19-27.74,14.38-43.02,18.12c-12.62,3.09-24.46,8.49-36.95,11.91c-4.16,1.14-8.29,2.36-12.48,3.37
		c-19.02,4.6-38.06,9.12-57.09,13.72c-7.12,1.72-14.35,2.49-21.63,3.19c-16.88,1.64-33.81,2.05-50.75,2.55
		c-11.6,0.34-23.17,1.4-34.81,1.38c-6.52-0.01-12.96-2.23-19.6-0.37c-2.49,0.7-3.2-0.57-5.89-6.28c-1.74,5.17-1.74,5.17-9.71,4.32
		c-2.83-4.63-0.4-10.11-2.04-16.88c-0.56,6.73-0.96,11.63-1.36,16.5c-6.99,5.01-10.94-1.89-16.44-3.42
		c0.09-7.4,2.21-14.93-4.33-23.25c1.62,8.27,2.24,14.3,1.01,20.24c-6.08,5.25-11.16,2.45-16.13-1.05c-1.2-4.14,1.59-8.08-0.41-12.47
		c-2.31,2.49-1.97,5.58-2.98,8.11c-1.22,3.07-3.85,4.6-6.92,3.51c-2.16-0.76-4.19-1.97-6.15-3.19c-2.23-1.39-4.18-2.28-7.18-2.18
		c-9.43,0.29-12.67-4.34-10.7-13.96c0.32-1.59,0.38-3.23,0.6-5.21c-2.53,0.8-1.79,3.07-2.75,4.35c-0.94,1.26-1.21,3.03-1.8,4.67
		c-9.32,3.94-12.75-4.45-18.78-8.61c2.74-6.65,7.7-12.72,4.51-21.8c-0.74,8.56-4.37,14.6-8.33,20.5c-3.71-0.23-6.82-0.96-8.62-4.49
		c0.68-2.81,1.37-5.68,2.07-8.56c2.61-3.07,1.59-6.45,0.23-9.84c0,3.35,0,6.7,0,10.06c-0.33,0.03-0.85-0.05-0.96,0.12
		c-2.35,3.72-4.88,7.13-10.1,5.69c-5.02-1.38-9.7-3.16-9.03-10.24c-8.79-0.27-13.78-4.59-14.67-14.09
		c-4.08,2.74-7.62,0.82-11.57-0.28c-1.23-2.37-2.56-4.93-3.88-7.49c5.3-4.18,7.12-9.85,7.72-18.36c-3.36,7.24-6.96,12-8.3,17.84
		c-10.94-0.61-12.65-3.73-10.3-18.75c-8.43,7.32-11.85,7-17.45-2.05c3.46-4.87,5.92-10.5,8.15-16.97c-3.74,1.71-4.02,5.03-5.42,7.45
		c-1.7,2.94-3.57,5.53-6.45,7.29c-8.87-2.46-8.87-2.46-8-10.89l-0.35,0.44c4.37-2.49,6.25-6.37,6.25-11.28
		C1461.04,288.41,1462.18,283.87,1465.13,280.61z M1534.09,258.03c-1.64,0.28-3.29,0.52-4.92,0.86c-2.01,0.42-3.05-2.51-5.04-1.61
		c-0.78,6.41-1.8,12.7,0.25,18.58c4.72,1.8,7.25-1.91,9.88-2.72c3.65-0.44,5.41,3.55,8.81,2.32c-1.66-3.75-6.44-4.44-6.97-8.77
		c1.14-4.91,6.04-7.4,8.79-12.02c-4.89-1-8.19,0.69-11.11,3.6L1534.09,258.03z M1583.49,296.32c1.64-2.79,3.28-5.57,4.95-8.41
		c-1.97-1.39-3.47-3.14-5.84-3.17c-5.07,1.91-8.98,5.87-15.13,8.29c2.03,1.12,4.06,2.24,5.7,3.14c-1.11,2.57-3.51,2.46-3.5,4.68
		c0.65,1.97,1.27,4.18,3.41,5.52c3.26,0.42,6.53,0.94,9.55-1.81c0.34-2.72,0.71-5.64,1.08-8.56L1583.49,296.32z M1727.19,351.26
		c5.57,2.32,10.41,2.4,15.63,1.02c3.65-0.96,7.73-0.33,11.62-0.41c-4.61-1.75-9.18-2-13.72-1.68
		C1736.46,350.5,1732,346.71,1727.19,351.26z M1549.9,290.17c-2.27-3.81,0.75-6.52,0.97-9.45c-1.1-1.09-2.13-1.87-3.55-1.37
		c-1.14,4.44,0.19,8.39,1.65,11.92c5.4,2.24,9.45,1.65,12.73-2.67c1.21-1.6,0.18-2.25-1.42-3.81
		C1557.91,288.16,1555.37,291.96,1549.9,290.17z M1525.68,347.64c2.82-3.02,1.65-5.87,2.76-8.23c0.91-1.93-0.32-3.52-2.76-3.63
		C1525.68,339.38,1525.68,342.88,1525.68,347.64z M1592.16,380.51c0.1,3.5-3.22,6.43-1.98,11.05
		C1593.1,387.62,1593.81,384.26,1592.16,380.51z M1473.29,231.63c3.06,3.38,4.76,1.65,6.54-0.18
		C1478.05,230.39,1476.3,230.62,1473.29,231.63z"/>
	<path fill="#1A1A1A" d="M1231.5,144.48c2.6-1.49,6.01-1.33,8.03-3.99l-0.36,0.34c4.04,1.45,7.92,1.43,12.02-0.25
		c3.36-1.38,4.53,0.82,4.27,3.98c-2.65,3.89-6.15,7.19-7.87,11.7c-2.83,1.39-3.76,4.3-5.24,6.74c-1.49,2.45,0.28,3.39,2.2,4.15
		l-0.03-0.12c1.23,16.53,4.67,32.7,7.76,48.86c3.22,4.31,8.98,4.2,12.75,7.56c1.15,2.95,0.42,5.97-0.38,8.73
		c-1.26,4.34-0.59,7.73,3.11,10.45c2.58,1.89,3.77,4.69,3.88,7.72c0.21,5.63,0.03,11.28,0.07,16.91c0.02,2.74-2.42,2.79-4.27,3.95
		c1.93,0.66,3.67,1.26,5.7,1.95c1.99,9.67,4.83,19.2,4.48,29.26c-1.87-0.27-3.74-0.53-5.66-0.81c0.08,0.79-0.01,1.49,0.25,2.01
		c0.57,1.16,1.31,2.23,2.02,3.41c1.61-1.48,2.75-2.94,3.16-4.87c2.69,2.8,3.1,6.37,3.73,10.21c-4.76,4.33-9.54-1.09-14.14,0.34
		c-4.42,1.37-9.01,1.98-13.41,0.88c-4.33-3.49,0.4-10.15-5.79-13.75c1.79,4.78,2.93,8.75,1.49,12.79c-1.07,1.66-2.77,1.76-4.36,2.16
		c-9.07,2.27-9.71,1.69-11.22-7.71c-0.68-4.2-1.99-8.33-3.39-12.36c-1.3-3.73-2.97-7.31-2.07-11.98c-4.18,0.72-5.15,3.65-6.78,5.79
		l0.29-0.23c-3.07-0.68-5.78-0.42-8,2.27c-1.23,1.48-2.95,2.56-4.44,3.82l0.27-0.31c-0.96,0.15-2.03,0.09-2.88,0.49
		c-8.51,3.99-16.98,8.06-24.59,11.68c-2.34,3.02,0.42,5.19-0.68,7.35l-0.03,0.23c0.15,5.97,0.19,11.95,0.5,17.91
		c0.31,5.91-2.22,9.41-7.59,10.55c-2.94-0.48-3.66-2.62-3.99-4.42c-0.78-4.3-2.44-8.24-3.96-12.28c-2.42-6.43-1.64-8.06,4.34-11
		c1.29-0.63,3.36,0.21,3.9-1.77c-0.41-1.21-1.13-2.28-2.1-1.95c-3.85,1.31-8.66,1.19-10.43,5.96c-0.67,1.81-1.96,1.41-3.15,1.53
		c-4.24,0.42-7.88,1.97-12.16,5.81c5.32,0.31,7.95-3.23,11.7-3.25c6.25,4.86,7.85,12.06,9.29,19.19c0.93,4.58-1.43,7.6-6.55,9.68
		c-4.08,1.65-6.32,0.95-9.32-3.07c-1.57-2.1-3.01-4.3-4.5-6.46l0.27,0.29c-0.45-3.21-0.55-6.44-1.75-9.57
		c-0.9-2.35-2.51-2.68-4.52-2.75l0.39,0.25c-1.19-1.9-3.06-2.29-5.11-2.4c-10.43-0.58-20.86-1.18-31.28-1.78l0.23,0.24
		c-7.51-3.13-15.03-6.19-23.58-6.59c-4.92-15.85-13.46-31.41-10.1-49.67c-3.33,0.66-4.08,1.97-3.13,4.37
		c2.38,6.01,1.16,11.64-2.03,17.01c-6.67-1.87-11.12-8.53-18.73-8.86c1.06,2.79,3.57,3.24,5.57,4.33
		c9.99,5.44,17.34,13.26,21.81,23.78c1.29,3.03,2.81,5.96,4.1,8.99c0.52,1.22-0.33,1.51-2.8,0.88c-0.16,0.62-0.64,1.39-0.43,1.84
		c3.85,8.11,6.98,16.43,8.91,25.26c1.27,5.81,2.8,11.6,5.89,16.87c1.14,1.94,1.71,4.38,1.97,6.66c0.75,6.74,2.81,13.02,6.23,18.8
		c5.45,9.21,6.36,18.68,2.46,28.67c-0.46,1.19-0.28,2.63-0.39,3.95l0.26-0.34c-2.96,2.35-4.19,5.54-4.79,9.84
		c7.58,0.62,9.32-8.44,16.4-9.09c0.43,27.97-10.25,53.7-12.93,81.77c-10.98-3.41-20.62-1.72-29.67-2.57
		c-3.58-3.7-3.24-8.03-3.19-11.78c0.2-13.46-3.42-26.28-5.82-39.31c-0.18-0.98-0.36-2.03-0.85-2.86
		c-8.05-13.7-6.77-29.58-10.37-44.31c-0.31-1.27-0.78-2.85-0.31-3.9c2.63-5.88-0.42-10.73-3.45-14.81
		c-5.74-7.71-12.37-14.76-18.7-22.02c-0.61-0.7-1.68-0.99-2.53-1.47c-1.48-2.23-2.96-4.47-4.44-6.7c-1.96-2.8-2.78-6.41-5.92-8.38
		l-0.33-0.43c-2.26-5.13-6.25-9.32-7.32-15.15c-2.87-15.72-4.19-31.54-4.2-47.51c0-4.47,0.89-8.31,3.51-12.12
		c3.18-4.62,5.67-9.75,8.12-14.82c1.13-2.33,1.92-5.15-1.35-6.88l0.3,0.31c1.31-1.47,2.46-3.13,3.95-4.39
		c7.77-6.55,15.63-13.01,23.46-19.49c1.74-1.44,3.61-2.78,2.98-6.15c-3.53,0-7.14,0-10.75,0l0.3,0.27c-1.37-2.22-3.03-4.3-3.39-7.84
		c6.95-1.72,14.25,1.62,21.48-0.82c-1.53-2.5-4.52-2.22-6.43-3.68c3.77,0.35,7.51,0.63,10.83-4.34c-4.58,1.57-7.97,2.2-10.68,4.54
		c-3.83-0.46-7.47-1.47-11.54-0.1c-3.02,1.01-6.04-0.54-8.97-2.81c-5.91-4.57-9.41-10-9.64-17.44c-0.05-1.63-0.3-3.83,0.59-4.83
		c6.35-7.13,12.08-15.15,22.75-16.55c5.12-0.67,10-0.32,14.59,1.88c5.62,2.69,12.06,2.54,17.64,6.1c1.7-7.7,8.25-8.02,13.74-10.78
		c7.17,5.31,16.13,6.93,23.18,10.95c4.19,0.1,5.25-3.82,8.24-4.33c2.01,1.11,3.16,2.83,2.67,4.92c-0.55,2.38-2.4,4.6-4.7,4.69
		c-9.56,0.37-11.46,7.56-13.71,14.58c-0.25,0.28-0.49,0.57-0.7,0.88c-3.99,5.88-1.24,12.05,0.78,17.17
		c3.79,9.61,6.51,19.5,9.67,29.26c6.23,19.26,10.99,38.89,12.28,60c3.99,0.49,6.63,4.74,11.35,4.56l-0.39-0.3
		c3.08,5.27,7.15,7.13,13.21,4.72c9.21-3.66,18.61-6.82,27.89-10.31c3.09-1.16,6.16-2.48,9.05-4.08
		c9.85-5.46,19.68-10.96,29.37-16.69c5.38-3.18,10.7-6.55,14.73-11.51c3.49-0.3,5.77-3.19,8.93-4.18c5.45-3.78,9.16-9.03,9.2-15.55
		c0.11-16.62-0.6-33.15-5.61-49.31c-2.43-7.86-6.92-14.3-11.2-21.07c-2.08,0.03-4.12,0.69-6.46,0.15
		c-15.87-3.71-31.97-5.75-48.3-5.7c-2.99,0.01-6.01-0.08-8.96-0.51c-4.27-0.62-8.44-1.72-12.83-1.52
		c-3.95,0.19-7.92-0.02-11.81,1.78c-5.16-7.24-9.94-13.96-14.69-20.63c1.09-3.04,3.31-3.91,5.35-1.89
		c4.43,4.39,8.73,3.54,13.48,0.84c2.21-1.25,4.45-2.99,7.44-1.39c0.48,0.26,1.99-1.39,3.03-2.16c3.47-0.56,3.42,6.14,7.77,3.76
		l-0.24,0.23c5.69-1.15,7.49-5.91,9.66-10.53c3.17-0.94,6.4-0.84,9.65-0.05c1.4,2.37-1.34,4.3-0.41,6.59
		c1.38,3.4,3.29,3.54,5.84,1.31l-0.34,0.31c6.11,0.7,6.33-4.3,7.22-7.81c3.18-1.39,5.75-0.99,8.28-0.4
		c0.68,3.75-4.86,3.61-4.14,7.44c3.16,0,6.35-0.14,9.52,0.03c5.24,0.28,9.06-1.22,10-7.02c0.05-0.28,1.11-0.4,1.77-0.62
		c3.82,1.87-3.27,4.84,1.15,6.81c3.51,1.7,7.46,2.52,11.01-1.16L1231.5,144.48z M1233.45,277.05c3.82,4.28,6.23,0.87,11.13-0.51
		C1239.56,275.96,1236.79,275.72,1233.45,277.05z"/>
	<path fill="#1A1A1A" d="M1296.17,196.66c-0.8-3.02,0.43-5.05,3.02-6.54c5.42-3.11,10.83-6.23,16.19-9.44
		c2.76-1.65,6.05-2.66,7.62-5.87l-0.26,0.25c14.53-0.19,26.73,7.31,39.78,12.03c1.86,0.67,3.67,1.46,5.51,2.19
		c1.44,0.46,2.88,0.93,4.32,1.39c1.37-1.29,2.74-2.58,4.14-3.9c3.11,1.24,3.33,4.56,4.91,6.89c1.19,1.75,1.24,4.53,4.25,4.58
		c1.66,9.87,6.88,20.41,14.77,28.24c-5.22-10.73-8.54-20.19-14.96-28.07c0.62-3.29-1.71-5.59-2.88-8.25
		c-1.05-2.38-1.87-4.68-2.07-8.01c6.97,2.51,8.75,10.48,15.85,11.24c4.12-5.68,3.28-11.91,1.34-18.25
		c-0.19-0.63-0.12-1.61-0.53-1.87c-8.13-5.22-8.68-15.22-14.09-22.12c-0.34-0.44-1.13-0.53-1.71-0.79l0.28,0.26
		c-1.25-3.48,0.75-5.9,2.73-8.33c0.36-0.33,0.69-0.68,1-1.06c1.56-0.35,3.13-0.77,3.7,1.46c0.54,2.09,0.47,4.45,2.52,5.89l-0.22-0.3
		c-0.97,6.97,2.4,12.83,4.44,19.05c0.98-0.17,1.57-0.16,2.08-0.37c9.72-3.99,13.35-2.55,17.56,7.11c0.65,1.49,0.64,3.28,2.85,5.04
		c7.23,0.07,11.58,6.31,16.3,10.65c7.53,22.85,10.14,45.71,8.65,69.05l0.24-0.31c-2.47,2.17-2.32,5.2-0.69,7.15
		c2.34,2.8,1.12,5.33-0.04,7.35c-5.11,8.96-11.18,17.28-18.44,24.67c-0.27,0.27-1.11-0.02-2-0.06c2.3-9.82,6.54-19.38,4.15-29.82
		c-3.53,0.3-2.53,2.85-2.57,4.52c-0.15,6.31,0.09,12.61-2.47,18.65c-2.05,4.83-4.98,7.75-10.65,6.72c-1.72-2.84-0.81-5.75-0.36-8.68
		c0.65-4.22,1.59-8.34-1.8-12.2c-1.75-1.99-1.02-5.13-1.06-7.77c-0.09-5.28-0.03-10.55-1.55-15.84c0,6.15,0,12.29,0,19.05
		c-4.38-3.71-4.22-4.25-4.2-7.26c0.02-2.64,0.14-5.3-1.49-8.11c-1.31,2.22-1.29,4.42-1.03,6.49c1.3,10.5,0.94,21.19,4.03,31.5
		c0.83,2.76,0.63,5.98,0.31,8.92c-0.48,4.45,1.05,7.52,5.1,9.37c-1.44,1.88-3.29,3.35-3.41,5.83c0.01,0.67-0.04,1.33-0.15,1.98
		c-3.14,4.73-4.82,10.01-6.23,15.47c-3.54,13.71-7.75,27.2-14.09,39.93c-0.85,1.71-1.93,3.47-0.75,5.59c4,1.11,1.71-4.9,5.44-4.43
		c2.71,0.96,1.29,3.66,1.79,6.06c-2.95,1.99-7.53,3.16-6.14,8.72c3.62,3.29,8.82,1.24,13.72,3.51c0.85,7.25,3.48,14.83-3.56,21.53
		c-2.54,2.42-4.44,5.85-2.58,10.4c4.16,1.37,7.98,1.36,10.6-3.31l-0.37,0.34c1.93-0.41,3.86-0.82,6.16-1.32
		c3.46,4.56,3.51,10.35,2.23,15c-2.76,10.02-3.05,20.35-5.22,30.39c-0.4,1.86,0.1,4.09-2.21,5.71c-5.9-2.07-12.25-3.96-18.33-6.5
		c-6.51-2.72-13,0.11-20.15-0.02c1.23-9.85,4.88-18.31,7.16-27.99c-11.08-12.6-24.16-23.57-38.19-32.43
		c-1.1-3.26,1.77-2.86,2.46-4.18c-16.63-4.01-22.39-14.35-25.38-32.41c-1.01-6.08-2.31-11.67-5.4-16.78
		c-10.57-17.5-17.18-36.64-23.46-55.93c-0.85-2.61-0.74-5.24-0.8-7.89c-0.3-12.97,0.46-25.94-0.5-38.92
		c-0.4-5.42,1.72-10.07,4.96-14.71c6.79-9.73,15.81-16.95,24.74-24.38c5.73-4.77,12.48-7.62,19.62-9.42
		c5.92-1.49,11.79-1.57,17.38,1.79c2.53,1.52,5.5,2.3,8.27,3.44c4.94,2.04,9.79,4.33,13.6,8.15c4.96,4.97,10.61,9.06,16.1,13.36
		l0.13,0.12c2.35,2.74,4.41,5.78,7.6,7.55c2.45,0.52,3.56-1.32,5.38-2.31c-6.19-10.35-12.17-20.37-18.1-30.29
		c-1.85,0.15-1.85,1.9-3.2,2.8c-4.98-3.31-10.11-6.79-15.42-9.98c-3.65-2.19-8.43-1.79-11.29-5.4c1.29-0.22,2.83-0.06,3.81-0.73
		c2.78-1.87,2.37-3.6-0.7-4.75c-2.67,1.11-2.43,3.59-2.78,5.8c-5.82,0.5-10.67-2.8-16.02-4.13c-2.45-0.61-2.29-2.9-3.04-4.75
		c-0.55,2.35,0.37,5.78-2.52,6.36c-9.85,2-17.69,8.04-26.38,12.37C1301.07,200.51,1298.62,198.58,1296.17,196.66z M1348.68,369.69
		c-0.02,0-0.04,0-0.06,0c-0.1,1.85-0.21,3.7-0.31,5.55c0.03,0,0.05,0,0.08,0C1348.48,373.39,1348.58,371.54,1348.68,369.69z"/>
	<path fill="#1A1A1A" d="M864.35,278.08c-3.27,0.47-5.1,3.04-7.06,5.2c-5.83,6.42-13.55,9.33-21.4,12.12
		c-2.33,0.83-3.79-0.23-5.24-1.73c0.53-2.01,2.82-1.21,3.81-2.41c0.71-1.47-0.53-2.41-1.01-3.84c1.6-2.1,6.12,0.54,6.78-4.39
		c-2.96-0.1-5.78-0.36-8.59-0.27c-6.29,0.2-11.66-1.98-16.34-6c-2.77-2.37-5.61-4.69-8.11-7.33c-7.88-8.34-15.5-16.92-23.43-25.21
		c-11.81-12.35-25.74-21.72-41.37-28.57c-7.61-3.34-15.31-6.04-23.92-5.5c-2.93,0.19-6.8,0.17-8.04-4.01
		c0.37-0.26,0.71-0.55,1.01-0.89c6.46-3.51,11.24-9.63,19.1-11.13c4.29-0.82,8.2-2.03,12.39-0.06c0.47,0.22,1.23-0.18,1.86-0.29
		c1.02-1.64,2.04-3.28,3.05-4.92c-2.6-1.53-4.6-3.29-4.13-6.57l-0.24,0.3c5.74-4.94,3.13-12.36,4.81-18.26
		c4.29-0.51,3.18,5.06,7.48,4.67c-4.12-6.83-4.56-15.18-11.34-20.34c0.66-5.73,1.8-11.27,0.44-17.07c2.01-1.38,3.9-2.66,5.77-3.98
		c8.11-5.71,14.13-13.04,17.49-22.46c1.01-2.84,2.16-5.59,4.89-7.31c2.36-1.48,4.36-1.28,6.02,1.08c-0.28,2.43-3.35,1.91-4.2,4.53
		c3.71,1.81,6.25,5.91,11.89,5.89c1.77-0.53,1.2-4.04,3.91-4.72c2.87,0.09,3.34,2.55,4.32,4.91c-1.2,2.51-2.47,5.16-3.66,7.63
		c5.27,9.45,8.27,9.77,16.45,2.02c3.16,0.21,4.37,2.46,5.29,5.18c-0.83,1.63-1.67,3.29-2.55,5.02c0.88,0.18,1.71,0.62,2.06,0.37
		c3.21-2.3,6.33-4.72,10.4-7.8c0.36,6.51-0.87,11.07-5.67,14.23c-0.88,0.58-1,0.47-4.84-1.97c-1.11,1.91-0.37,3.28,1.49,3.76
		c2.52,0.65,5.31,1.56,7.19-1.36c0.89-1.38,1.37-3.06,3.16-3.89c2.76-0.34,3.87,1.75,5.21,3.94c0.39,3.45-3.22,5.46-3.71,8.82
		c-0.38,2.64-0.01,4.55,2.36,5.88c2.83,1.47,5.02,0.42,6.93-1.76c1.27-1.35,2.55-2.7,4.11-4.35c4.3,3.72,9.98,6.4,7.93,13.78
		l0.32-0.36c-0.67,0.65-1.51,1.19-1.98,1.96c-0.84,1.38-1.45,2.9-2.11,4.26c2.62,3.59,5.44,3.48,8.86,1.89
		c3.41-1.58,3.07-5.71,5.78-7.87c3.95,0.73,5.63,2.93,4.95,6.88c-1.48,2.68-1.11,5.29,0.27,7.87c0.55,2.29,2,3.08,4.28,2.7
		c4.5-0.75,6.41-4.77,9-7.46c4.32,0.44,7.49,1.5,6.89,6.42c0.31,2.97,1.26,5.71,2.91,8.2c4.57-1.01,9.03-2.16,10.09-7.47
		c4.35-0.41,6.56,2.05,8.04,5.09c1.86,3.83,3.41,7.82,4.89,11.82c0.82,2.21,0.69,4.39-0.74,6.56c-3.16,4.82-3.08,4.88-0.74,9.6
		c-4.13,2.26-9.96-0.45-13.15,4.53c-4.25-0.52-7.35,1.93-11.47,3.91c4.65,5.74,9.92,8.5,16.49,8.92c2.04,3.62-0.02,7.01-0.36,10.32
		c-2.55,2.15-4.53-0.81-6.76-0.28c-0.39,0.48-1.01,0.93-1.16,1.49c-1.93,7.72-6.92,13.47-12.07,19.16
		c-5.55,6.14-11.31,12.16-14.22,20.18C864.92,277.63,864.66,277.88,864.35,278.08z"/>
	<path fill="#1A1A1A" d="M1397.78,149.76c-2.45,0.9-4.38-0.52-6.41-1.47l0.22,0.3c-0.65-7.59,0.48-14.65,5.87-20.53
		c0.34-0.37,0.15-1.23,0.21-1.87c0,0-0.37,0.4-0.37,0.4c6.32-2.04,9.97-6.95,13.24-12.28c1.45-1.49,2.89-2.98,4.34-4.47
		c10.09-7.89,16.45-19.64,28.29-26c-2.24-1.44-3.25-0.21-4.35,0.33c-10.52,5.12-20.35,11.29-28.9,19.35
		c-7.75,7.31-15.36,14.76-23.1,22.07c-2.07,1.96-3.69,5.04-7.44,3.81c-2.81-1.47-5.62-2.93-8.43-4.4c-2.35-3.2-0.52-6.23,0.28-9.35
		c0.54-2.13,1.54-4.66-2-5.35c-2.38-1.37-5.47,0.32-7.67-1.8c-4.46-3.62-10.24-1.82-15.16-3.66c-1.46-0.54-3.31,0.05-4.6-1.31
		c-0.72-3.85,2.03-6.21,4.11-8.65c4.52-5.29,9.33-10.34,14.08-15.43c7.2-7.71,14.46-15.37,21.69-23.05l-0.33,0.36
		c11.92-5.22,22.41-12.94,33.59-19.45c6.25-3.63,12.82-6.38,20.23-9.53c0.29,3.99-1.04,6.23-2.75,8.11
		c-2.11,2.31-3.17,5.1-4.07,7.92c-0.48,1.49-0.8,4.11-0.01,4.75c4.08,3.28,5.78,8.65,10.35,11.41c7.86,4.77,16.4,6.96,25.57,6.8
		c2.32-0.04,4.64-0.01,8.66-0.01c-7.18,5.32-7.49,12.15-7.56,18.72c-0.08,7.4,1.51,14.55,6.94,20.25
		c4.81,5.06,9.42,10.34,16.67,13.1c-2.1,7.94-0.48,16.12-2.71,23.7c0.86,2.76,3.36,3.43,4.96,5.03c1.33,1.34,2.12,3.21,3.51,5.45
		c11.35-5.78,21.9-1.06,33.47,2.81c-8.43,4.39-17.5,4.18-25.17,8.12c-7.39,3.79-15.58,5.86-22.53,10.6
		c-7.11,4.85-14.28,9.6-21.84,14.68c-4.97-6.58-12.63-10.4-17.85-16.92c-3.25-4.06-7.6-4.96-12.34-3.82
		c-2.62,2.18,2.13,5.02-1.48,7.54c-1.88-5.49-2.67-10.27,2.03-14.56c4.67-4.26,9.24-8.62,14.29-13.33c-3.7-2.09-5.29,0.15-6.93,1.21
		c-4.08,2.62-7.83,5.95-13.29,4.52c-0.12-0.03-0.52,1.04-0.79,1.6c0,0,0.08-0.15,0.08-0.15c-1.94,1.69-3.88,3.38-6.2,5.4
		c-3.6-3.27-9.26-2.29-12.67-6.27c1.11-3.23,4.15-6,2.81-10.06C1401.98,144.45,1400.5,148.06,1397.78,149.76z"/>
	<path fill="#1A1A1A" d="M1236.5,262.2c-3.16,1-5.44,3.88-8.93,4.18c-1.85,0.68-3.82,1.14-5.54,2.07
		c-14.59,7.88-29.21,15.7-43.64,23.86c-6.38,3.61-12.94,6.7-19.74,9.35c-2.06,0.8-4.16,2.18-6.83,0.09
		c0.39-8.05-0.41-16.28-2.76-24.25c-1.7-5.74-2.55-11.65-4.08-17.37c-1.24-4.64,0.06-9.99-3.57-13.98l0.33,0.43
		c-0.13-8.33-1.31-16.48-4.37-24.28l0.27,0.29c0.04-4.62-0.41-9.07-4.17-12.41c-0.27-1.89-0.54-3.77-0.81-5.66
		c-2.11-3.42-2.06-7.89-5.26-10.78c0.29-3.66-1.92-6.28-3.75-9.06c-0.48-1.93-0.96-3.85-1.57-6.34c4.8-3.32,10.73-2.54,16.01-3.31
		c9.84-1.44,19.81-0.59,29.76,0.46c8.23,0.87,16.61,0.85,24.9,0.49c9.77-0.43,18.97,3.47,28.69,3.06c0.88-0.04,2.33,0.54,2.6,1.2
		c1.92,4.77,7.57,6.14,9.4,11.28c3.26,9.11,5.89,18.24,6.29,27.94c0.21,5.21,1.01,10.55-3.62,14.02c1.29,3.27,3.21,0.81,4.56,1.47
		c1.21,3.49,0.87,6.43-2.93,8.3c1.03,1.68,2.04,3.33,2.9,4.73c0,4.01-4.6,3.56-5.59,6.74
		C1234.08,257.75,1237.71,259.42,1236.5,262.2z M1163.64,228.46c5.79-0.21,11.23-1.53,15.87-5.35c-5.21,1.89-11.48,0.63-15.67,5.58
		c-3.5-0.72-6.26,0.54-8.41,3.33C1158.37,231.34,1161.59,231.29,1163.64,228.46z M1140.44,181.24c-3.36-1.49-6.32-1.12-9.15-0.33
		c-1.21,0.34-2.03,1.79-1.56,3.23c0.28,0.86,0.9,1.82,1.65,2.27c1.87,1.11,3.89,0.35,5.74-0.22
		C1139.11,185.58,1140.51,184.23,1140.44,181.24z"/>
	<path fill="#1A1A1A" d="M1218.79,325.18c15.17-4.23,29.84-6.96,44.89-6.37c5.44,0.21,10.15-3.25,16.37-2.17
		c3,7.56,8.91,13.81,12.13,21.89c3.17,7.99,6.35,16.06,10.78,23.56c1.6,2.71,3.61,6.34,1.45,9.43c-3.64,5.21-1.51,10.28-0.21,15.22
		c0.95,3.6,1.99,6.95,1.11,10.06c-2.33,2.76-5.19-0.1-8.31,2.34c4.05,1.3,7.17,0.99,10.26,0.59c1.76-4.6,2.9-9.13,0.19-15.51
		c5.29,4.78,5.49,9.87,7.95,13.73c2.48,3.88,5.45,7.44,8.36,11.35c-1.81,5.85-5.98,10.24-9.62,14.89
		c-5.3,6.76-10.63,13.61-13.73,21.57c-2.16,5.56-4.52,11.02-6.81,16.53c-0.62,1.5-1.53,2.88-2.65,4.96
		c-2.87-2.83-5.71-5.04-7.8-7.81c-6.2-8.22-14.21-10.05-23.7-7.47c-1.3,0.35-2.58,0.6-3.74-0.41c-0.08-2.63,2.28-3.9,3.4-5.88
		c1.71-3.02,2.68-6.25,1.96-9.58c-1.28-5.9-1.45-11.86-1.58-17.84c-0.04-1.72-0.61-3.19-2.96-3.91c-0.37,2.54,2.51,4.83,1.06,6.49
		c-0.86,1.51-1.4,1.45-1.65,0.45c-1.82-7.31-8.47-11.77-11-18.7c-0.37-1.01-1.97-1.67-3.11-2.29c-10.69-5.84-18.86-14.63-26.96-23.4
		c-6.24-6.75-5.71-15.23-4.44-23.58C1211.87,343.72,1215.41,334.76,1218.79,325.18z M1299.63,420.22c0.15,0.69,0.3,1.38,0.44,2.06
		c3.22,0,6.45,0.05,9.67-0.05c0.5-0.02,0.98-0.71,1.84-1.37c-0.76-2.08,0.59-4.77-1.88-7.17
		C1306.32,415.89,1302.97,418.05,1299.63,420.22z"/>
	<path fill="#1A1A1A" d="M1014.68,344.48l0.33,0.43c1.18,10.7-1.25,20.26-8.81,28.66c-6.14-1.22-12.56-0.64-18.24-4.42
		c-0.16-1.58-0.32-3.2-0.49-4.81c0.79-0.47,1.89-0.75,2.33-1.45c5.15-8.07,5.55-17.21,4.84-26.63c-2.32,9.42-4.64,18.83-6.97,28.25
		c-1.63,1-3.25,2.01-5.29,3.26c-5.48-2.3-12.34-3.02-14.72-10.81c-4.75,3.57-9.8,1.28-14.42-2.07c-5.04-3.65-9.82-7.67-14.57-11.7
		c-4.43-3.76-4.77-5.49-1.26-9.95c5.39-6.82,9.69-14.08,11.61-23.22c-3.72,0.12-4.27,3.11-4.99,5.12
		c-2.6,7.32-7.53,13.1-11.35,19.44c-8.44-3.08-8.64-3.4-7.92-12.16c-1.47,0.51-1.84,2.89-4.19,2.14c-0.95-0.74-0.99-1.94-0.54-3.25
		c0.45-1.43,0.89-2.87,1.34-4.3c4.13-5.01,1.9-11.4,3.63-17.01c1.13-3.66,0.67-7.87,0.65-11.84c-0.07-12.25-0.23-24.5-0.46-36.75
		c-0.11-6.04,1.69-11.72,2.83-17.53l-0.33,0.35c7.21-10.45,7.7-21.52,2.14-32.64c-1.38-2.76-1.48-5.67-2.62-8.23
		c-3.04-2.07-5.72,0.82-8.84,0.3c-0.59-0.44-1.75-0.85-2.1-1.63c-1.48-3.32-2.77-6.72-4.03-10.13c-0.8-2.17-1.45-4.39-2.1-6.61
		c-0.71-2.39-4.05-4.44-1.85-7.16c2.69-3.32,6.06-1.08,9.15-0.16c3.37,1.01,5.51,2.62,6.36,6.62c0.93,4.34,2.33,8.84,4.86,12.45
		c3.44,0.46,5.68-0.25,6.66-3.26c-1.66-1.87-2.97,0.95-5.15-0.42c-3.3-3.83-2.22-9.13-2.14-15.57c6.19,5.7,10.92,12.35,19.91,11.16
		c-0.27,1.68-0.42,2.61-0.57,3.54c-2.49,2.59-4.17,5.95-7.45,7.79c-5.68,7.04-5.75,7.82-1.13,12.85c0.22,0.99,0.44,1.97,0.65,2.96
		c0.05,5.87,3.23,10.72,5.23,15.95c2.13,5.58,5.4,10.9,6.47,16.65c0.96,5.12,2.51,9.54,5.75,13.39c2.41,2.87,2.6,5.96,1.85,9.35
		c-0.43,1.94-1.05,3.86-1.24,5.83c-1.04,10.59,0.18,20.22,8.36,28.48c5.56,5.61,10.77,11.7,15.91,17.8
		c8.08,9.59,17.29,18.24,26.18,27.12C1009.77,342.43,1011.59,344.72,1014.68,344.48z M960.28,321.93c-2.8,6.4-5.6,12.8-8.4,19.19
		C957.51,336,961.67,330.23,960.28,321.93z M975.51,338.9c0.35,0.58,0.48,0.91,0.72,1.12c0.07,0.07,0.56-0.13,0.64-0.3
		c1.62-3.55,3.28-7.11,1.89-11.94C977.52,332,976.48,335.57,975.51,338.9z M922.76,188.53c-0.28-0.51-0.47-1.35-0.87-1.47
		c-1.3-0.38-2.67-0.14-3.37,1.13c-0.61,1.11,0.29,1.79,1.26,2.02C921.19,190.53,922.27,189.99,922.76,188.53z"/>
	<path fill="#1A1A1A" d="M1023.63,454.33c-5.21,7.63-9.01,16.16-15.64,22.9c-6.05,6.15-11.49,12.89-17.28,19.3
		c-1.72,1.91-3.23,4.18-6.53,3.76c-2.74-0.34-2.74,3.67-6.02,3.93c-7.83-4.16-14.15-12.34-24.02-12.85
		c-1.32-3.3,0.61-5.16,1.72-7.03c5.62-9.51,9.52-19.74,12.86-30.2c1.12-3.52,2.06-7.24,4.39-9.97c7.62-8.94,8.16-20.09,9.91-30.77
		c0.68-4.11-0.81-8.57,1.62-12.53c-2.52-9.09,0.94-19.54-6.29-27.6c-0.54-0.61-0.41-1.83-0.74-3.58
		c19.9,4.48,38.77,12.11,59.13,10.91c0.53,1.52,0.77,3.73,1.41,3.85c6.92,1.31,6.76,7.72,6.54,11.73
		c-0.32,5.84,1.66,11.71-0.59,17.61c-2.49,6.51-4.84,13.03-8.61,18.92c-2.51,3.92-5.29,7.69-6.27,12.38
		C1027.48,448.25,1026.3,451.74,1023.63,454.33z"/>
	<path fill="#1A1A1A" d="M1487.18,220.1c1.03-2.67,2.06-5.34,3.09-8.01c2.11-1.44,3.84-3.25,5.16-5.44
		c6.99-6.94,14.69-13.06,22.01-19.75c-9.02,3.77-16.99,9.07-24.17,15.6l0.35-0.37c-5.87-2.07-11.47-2.35-16.31,2.44l0.36-0.34
		c-3.03-0.32-4.62,2.35-6.97,3.41c-6.98-7.05-7.07-14.39,0.39-20.92c6.99-6.12,14.45-11.58,23.1-15.44
		c15.25-6.82,31.3-10.78,47.99-14.79c2.01,4.85-0.22,11.19,4.68,14.5c3.97,2.69,6.9,6.87,11.77,8.24
		c-7.94,15.56-7.94,15.56-2.89,27.97c-4.54,4.05-10.62,5-16.1,6.84c-6.03,2.02-11.73,4.34-17.21,7.59
		c-5.96,3.53-12.06,6.99-18.88,8.78c0.69-3.59,4.98-4.91,5.63-9.06c-3.86-0.69-6.78,0.92-9.59,2.94c-1.3,0.7-2.61,1.39-3.91,2.09
		c-4.03-0.7-5.31-5.07-8.74-6.56L1487.18,220.1z"/>
	<path fill="#1A1A1A" d="M921.39,317.02c-0.45,1.43-0.89,2.87-1.34,4.3c-1.33,1.37-2.44,3.11-5.27,2.69
		c0.34-3.75,0.68-7.54,1.03-11.34c3.15-6.33,3.88-13.18,4.04-20.07c0.2-8.59,0.08-17.19,0.02-25.79c-0.02-2.08,0.39-4.35-2-6.61
		c-1.16,8.44-0.3,16.36-0.68,24.23c-0.29,6.11-0.28,12.42-6.2,17.29c4.69,2.5,4.12,7.11,5.06,11.15c-4.49,2.36-2.27,7.75-5.24,10.82
		c-1.36,1.8-2.44-1.37-3.53-0.67c-3.05,1.55-1.16,4.67-2.96,6.27c-18.19,2.1-49.08-8.86-65.36-23.57c3.73-2.03,8.75-1.34,10.93-5.42
		c5.42-1.58,9.1-5.83,13.57-8.87c6.58-4.65,12.85-9.57,16.17-17.27c6.47-7.07,11.32-15.22,15.87-23.59
		c6.58-0.91,12.08,3.05,18.19,4.33c2.8,0.58,5.56,0.23,8.76,0.86c1.63,10.82,1.75,21.67,1.17,32.55
		C923.11,297.9,921.04,307.37,921.39,317.02z"/>
	<path fill="#1A1A1A" d="M1200.32,548.33c-5.63-12.51-2.37-24.61,10.58-24.72c0.76-7.7,5.14-13.6,10.03-19.03
		c3.8-4.22,7.3-8.62,10.51-13.29c7.44-10.81,16.41-13.44,28.5-8.29c4.59,1.95,9.08,4.2,13.4,6.67c4.72,2.69,5.25,4.59,3.34,9.92
		c-1.23,3.44-2.39,6.98-4.18,10.13c-4.11,7.23-7.57,14.7-10.94,22.3c-3.2,7.22-9.62,11.7-18.21,11.07c-2.2-0.16-3.83,0.71-5.66,1.4
		c-6.57,2.49-13.13,4.68-20.29,2.15c-2.52-0.89-5.23-0.78-7.81,0.38C1206.82,548.27,1203.91,548.82,1200.32,548.33z"/>
	<path fill="#1A1A1A" d="M1025.46,156.41c-1.39-4.1-5.32-5.64-8.33-8.05c-2.82-2.27-5.95-4.16-9.02-6.27
		c1.54-3.45,5.79-2.93,7.47-5.75c0.93-1.04,2.13-0.78,3.29-0.7c17.98-6.55,35.47-14.27,52.93-22.08c4.21-1.88,8.41-3.83,12.71-5.5
		c7.36-2.86,7.6-2.86,12.56,3.08c1.36,1.63,2.78,2.7,4.64,3.41l-0.24-0.26c1.2,4.12,2.39,8.15,5.1,11.71
		c5.02,6.6,2.95,15.05-4.6,18.87c-5.92,2.99-12.08,5.48-18.11,8.26c-6.01,2.77-12.3,5.04-17.6,9.12c-2.37,1.83-5.12,2.56-7.46,1.52
		c-7.76-3.43-16.32-2.5-24.28-4.94c-3.09-0.95-6.24-2.02-9.44-2.77L1025.46,156.41z"/>
	<path fill="#1A1A1A" d="M939.95,190.28c3.27-1.84,4.96-5.2,7.45-7.79c2.94-0.1,4.57-2.05,6.33-4.11c7.64-9,15.41-17.87,24.59-25.41
		c4.29-3.52,8.07-6.8,13.85-2.8c2.1,1.46,3.49-0.7,4.71-2.23l0.2-0.2c3.7-3.52,7.27-3.53,11.21-0.11
		c4.96,4.31,10.54,7.64,17.18,8.78l-0.39-0.35c0.37,1.55,2.44,2.33,1.76,4.95c-6.1,1.17-11.56,4.72-18.03,8.14
		c0.29,3.15-0.98,6.37-2.6,9.55c-1.66,3.24-2.46,6.74-2.41,10.51c0.05,3.81,0.84,6.85,3.64,9.79c3.83,4.03,6.91,8.76,9.87,12.62
		c-0.04,3.96-3.42,4.9-4.05,7.51c-0.24,0.42-0.53,0.81-0.87,1.15c-5.45-0.2-8.54,4.74-14.2,6.58c-6.58-2.78-13.97-5.71-21.7-4.49
		c-3.25-4.89-2.42-10.17-3.98-14.89c-1.62-4.9-4.68-9.45-4.89-15.36c6.77-1.23,13.2-2.4,19.62-3.56c0.33,1.85,0.66,3.69,1.02,5.68
		c2.24,0.02,3.89-0.57,4.38-2.94c-1.01-2.92-3.42-2.55-5.72-2.45c-0.68-4.27-3.97-2.23-6.14-2.34c-5.28-0.27-5.29-0.12-8.67-4.21
		c0.23-3.03,4.11-4.49,3.36-7.93c3.03-0.87,3.87-3.56,5.1-5.92c-2.88,1.06-4.97,2.75-4.91,6.1c-4.12,0.69-5.18,4.78-7.75,7.17
		c-6.76,6.3-17.61,11.01-28.39,11.52C939.66,192.23,939.8,191.26,939.95,190.28z"/>
	<path fill="#1A1A1A" d="M1364.7,564.34c-0.1-3.2,0.99-4.87,2.61-6.08c2.11-1.59,4.31-2.76,4.23-6.09c-0.05-2.06,1.93-3.19,3.91-4
		c3.46-1.41,6.85-2.17,10.41-0.45c2.66-5.74,5.86,1.35,9.2-0.43c-2.33-4.14-6.2-5.96-9.95-7.82c-2.6-1.29-4.14-3.12-3.57-6.76
		c-1.19,1.13-1.77,1.47-2.03,1.97c-5.46,10.38-5.45,10.39-16.88,9.42c-5.14-0.43-5.42-0.8-6.03-7.69c-2.31-0.53-3.6,1.13-4.86,2.49
		c-1.45,1.56-3.77,3.24-5.08,2.69c-5.4-2.29-7.69,2.18-10.64,4.4c-3.11-0.29-4.58-1.8-5.1-4.33c0.71-2.43,2.59-3.81,4.4-5.28
		c11.27-9.12,18.02-21.08,21.85-34.86c0.62-2.24,1.1-4.52,1.82-6.72c1.8-5.52,4.51-8.23,9.88-7.81c4.37,0.34,8.6-0.14,12.87-0.36
		c6.02-0.3,11.12,1.16,15.28,5.71c1.55,1.69,3.48,3.04,5.46,4.74c-1.82,17.77,0.59,35.74-1.46,53.61
		c-4.36,2.71-9.08,4.45-11.43,9.33c-1.61,3.33-5.29,4.02-8.57,4.22C1375.75,564.58,1370.44,564.34,1364.7,564.34z"/>
	<path fill="#1A1A1A" d="M1101.71,114.56c0.82-4.39-3.76-5.98-4.94-9.31c3.6-3.13,8.22-2.8,12.34-3.75
		c18.11-4.18,36.25-8.23,54.49-11.82c6.47-1.27,13.23-0.95,19.84-1.65c3.24-0.34,7.15,0.23,8.48-4.29c0.45-1.54,2.18-1.46,3.41-1.44
		c4,0.04,7.91-1.15,11.78-1.28c10.99-0.36,21.76-2.13,32.48-4.21c1.46,6.81,1.3,7.63-3.46,9.38c-3.12,1.14-6.39,1.79-8.7,4.44
		c-1.28,0.6-2.56,1.2-3.84,1.79c-12,2.06-23.32,6.06-33.96,11.99c-1.41,0.7-2.82,1.39-4.23,2.09c-6.26,0.72-12.49,1.39-16.15,7.73
		c-0.56,0.97-2.14,1.89-3.27,1.92c-10.73,0.29-19.17,6.55-28.37,10.44c-1.12,2.14,1.52,1.62,1.57,2.69
		c0.04,0.82-0.23,1.66-0.36,2.45c3.66,1.26,6.12-2.03,9.83-2.29c-2.87,5.79-8.05,6.98-12.89,8.68c-3.89,1.36-4.76-2.88-7.53-4.03
		c-4.54,1.18-9.24,2.4-14.7,3.83c0.01-10.02-1.97-19.03-12.05-23.59L1101.71,114.56z"/>
	<path fill="#1A1A1A" d="M1381.67,56.39c-7.56,3.47-14.02,8.44-19.9,14.27c-11.32,11.23-22.16,22.95-34.54,32.88
		c-5.31-0.54-9.41-3.69-14.28-5.25c-2.7,1.13-5.44,2.28-8.3,3.48c-2.05-0.79-4.2-1.62-6.5-2.5c-8.09,6.35-17.52,9.14-27.59,10.62
		c12.9-24.23,41.51-52.04,64.95-62.97c1.36,2.65,1.8,6.44,5.56,7.08c3.27,0.55,6.58,0.85,10.04,1.29c0.88,1.51,1.47,3.69,2.88,4.67
		c2.36,1.64,5.24,0.8,7.58-0.47c6.2-3.39,13.08-4.53,20.04-6.81c-0.12,1.71-0.2,2.89-0.28,4.07L1381.67,56.39z"/>
	<path fill="#1A1A1A" d="M970.31,513.36c2.13-2.41-0.34-6.02,2.36-8.1c1.84,0.55,3.91,0.81,4.79,2.99c0.4,1.43-0.12,2.68-1.05,3.66
		c-5.14,5.43-7.12,11.47-5.37,19.07c1.39,6.02-0.98,11.1-6.71,14.24c-1.44,0.79-2.95,1.72-3.97,2.97
		c-9.61,11.8-23.3,12.77-36.85,13.78c-6.27,0.47-12.6,0.08-19.46,0.08c0-6.07,0-11.88,0-18.3c5.29-1.98,11.16-4.07,16.95-6.37
		c5.12-2.03,8.62-5.38,11.14-10.66c2.97-6.22,7.28-11.88,11.47-17.43c3.75-4.96,13.7-5.73,19.15-2.39
		C965.61,508.65,966.71,512.35,970.31,513.36z"/>
	<path fill="#1A1A1A" d="M1294.35,109.76c2.22,1.15,3.75-0.52,5.4-1.41c3.74-2.02,7.29-4.44,11.69-5.38
		c0.71,0.84,1.8,1.51,1.86,2.26c1.6,20.7,7.17,40.67,11.4,60.87c0.77,3.68,0.31,6.33-1.96,8.97l0.26-0.25
		c-3.81-1.5-7.12,0.24-10.35,1.79c-5.96,2.86-11.58,6.29-16.56,10.68c-1.45,1.28-2.7,3.01-5.69,2.42
		c-4.04-16.74-12.47-32.57-12.91-51.4c-4.33,2.13-8.29,0.47-12.34-0.21l0.4,0.34c-0.12-1.68-2.45-2.25-1.87-4.95
		c4.92-5.27,11.94-8.85,18.17-13.49c4.37-3.26,10.07-4.96,12.7-10.36L1294.35,109.76z M1293.36,156.14l-0.3-0.35
		c0.12,6.46,3.03,12.22,4.74,18.26c0.74,2.63,2.82,4.61,6.01,4.14c5.39-0.79,8.49-4.59,7.19-9.82c-2.15-8.69-3.15-17.69-6.71-26
		c-0.76-1.77-0.93-3.99-4.09-5.18c-2.66,1.56-7.1,0.37-10.03,4.19C1289.43,146.63,1289.6,151.74,1293.36,156.14z M1295.71,118.14
		c-1.85,0.97-3.71,1.95-6.33,3.33C1293.46,122.83,1295.56,122.16,1295.71,118.14z"/>
	<path fill="#1A1A1A" d="M711.44,205.23c-0.3,0.34-0.64,0.64-1.01,0.89c-5.72,1.42-11.25,3.02-17.44,2.3
		c-4.97-0.58-9.5,2.47-13.6,5.35c-2.7,1.9-5.69,3.72-7.65,6.28c-5.41,7.08-12.06,4.15-19.08,4.45c0.32-6.37,5.12-8,7.42-11.21
		c0.97-1.35,3.12-3.83,4.66-4.12c5.49-1.02,4.25-4.75,3.81-7.98c3.04-1.95,7.76,1.23,8.99-3.16c1.07-3.8,5.89-2.45,6.54-5.27
		c1.15-4.98,7.88-4.66,8.54-10.03c0.24-1.94,3.2-2.03,4.85-3.07c3.54-2.23,8-3.2,10.2-7.31c5.31-2.65,10.61-5.31,15.92-7.96
		c7.32-1.45,7.32-1.45,13.02-9.99c0.7,1.05,1.21,2.33,2.13,3.12c7.54,6.5,8.81,11.05,5.21,20.3c-0.63,1.63-0.72,3.12-0.48,4.74
		c0,0,0.24-0.3,0.24-0.3c-0.6,0.2-1.38,0.22-1.78,0.61c-5.49,5.43-11.67,8.94-19.68,9.83c-4.26,0.47-8.77,2.56-11.64,6.54
		c-2.8,0.16-5.42-3.22-9.27-0.67c3.55,2.25,6.3,1.31,9.04,0.52c1.74-0.83,3.31-1.08,2.78,1.64
		C712.87,202.28,712.03,203.73,711.44,205.23z"/>
	<path fill="#1A1A1A" d="M2013.8,288.09c-3.62,0.83-4.47,4.65-7.13,6.58c-4.29,3.11-8.42,6.35-14.4,4.75
		c-1.78-7.9-0.07-15.13,1.87-22c3.34-11.78,7.67-23.28,11.67-34.87c6.02-17.44,17.22-31.42,30.18-44.06
		c9.39-9.15,21.54-12.85,33.99-15.55c3.72-0.81,6.96,1.75,10.67,2.43c-4.06,1.15-8.33,0.7-12.43,2.19
		c-20.13,7.3-34.69,20.75-43.84,39.75c-4.76,9.88-6.97,20.93-7.08,31.88c-0.1,10.02-0.48,19.78-3.88,29.27L2013.8,288.09z"/>
	<path fill="#1A1A1A" d="M1039.85,551.44c10.23-7.51,16.56-17.5,22.49-27.94c6.31-11.1,11.05-12.85,23.53-10.86
		c5.97,0.95,8.41,6.11,13.37,9.05c-2.55,3.95-3.85,7.9-3.4,12.3c0.74,7.32-1.71,12.93-8.55,16.51c-2.59,1.36-5.15,3.35-6.86,5.68
		c-3.45,4.73-8.33,7.42-13.55,11.34c-1.21-3.48-2.25-6.42-3.25-9.38c-1.03-3.06-4.03-4.17-6.28-5.63c1.67-5.4,7.64-6.47,10.63-13.22
		c-5.81,4.11-9.55,7.17-13.68,9.57C1049.98,551.37,1045,551.83,1039.85,551.44z"/>
	<path fill="#1A1A1A" d="M2136.73,287.1c1.17,1.38,0.24,2.57-0.32,3.69c-5.78,11.48-13.13,21.68-24.61,28.1
		c-7.54,4.22-15.35,7.96-23,11.98c-2.17,1.14-4.47,1.12-6.79,1.26c-16.02,0.97-31.91-0.13-47.52-3.83
		c-3.59-0.85-7.06-1.67-10.74-1.65c-2.47,0.01-4.57-0.81-5.83-3.13c4.8-10.73,13.85-15.77,23.79-11.12
		c8.01,3.74,15.9,3.55,24.08,3.66c2,0.03,4.18-0.48,5.96,0.14c6.7,2.35,13.06,0.55,19.34-1.28c16.19-4.72,31.17-11.56,41.85-25.43
		c0.6-0.78,1.39-1.45,2.2-2.02C2135.54,287.18,2136.19,287.22,2136.73,287.1z"/>
	<path fill="#1A1A1A" d="M1099.64,193.56c0.22-0.31,0.45-0.6,0.7-0.88c2.09-2.03,3.54-4.81,6.53-5.73c2.4-0.15,3.77,1.15,4.67,3.09
		c1.4,3,3.04,5.93,4.06,9.05c3.17,9.71,6.09,19.5,8.85,28.43c-0.97,2.99-3.73,3.24-3.91,5.55c1.39,1.77,2.97-0.45,4.75,0.35
		c1.44,7.1,2.96,14.47,4.41,21.85c0.73,3.73-0.29,7.16-2.18,9.89c0.47,2.84,3.73,0.71,4.35,3.6c0.72,3.34,0.76,7.19,3.82,9.71
		l-0.29-0.33c-0.65,8.65,3.01,17.02,2.17,25.78c-1.71,0.13-2.98,0.22-4.25,0.32c0,0,0.39,0.3,0.39,0.3c-0.2-2.36-2.01-3.3-3.79-4.16
		c-4.72-2.3-6.76-5.83-6.32-11.22c0.4-4.95-0.48-9.87-1.44-14.78c-1.39-7.17-2.59-14.37-4.83-21.33c-0.9-2.79-0.88-5.43-0.02-8.15
		c-5.86-1.38-4.25-7.02-5.46-10.62c-3.69-10.96-6.15-22.34-10.83-32.98C1099.93,198.79,1099.39,196.27,1099.64,193.56z"/>
	<path fill="#1A1A1A" d="M1370.94,125c2.81,1.47,5.62,2.93,8.43,4.4c0.76,3.3,2.91,4.85,6.22,4.92c-0.08,2.31-0.15,4.62-0.23,6.92
		c-0.31,0.38-0.64,0.73-1,1.06c-3.87-0.6-6.75,3.86-10.85,2.12c-9.55-3.37-18.49-8.06-27.47-12.69c-2.31-1.19-4.79-2.04-7.19-3.04
		c-2.12-2.32-5.14-2.91-7.89-3.93c-12.51-4.62-13.12-5.44-13.48-20.12C1335.13,112.42,1352.01,121.49,1370.94,125z"/>
	<path fill="#1A1A1A" d="M723.34,90.36c-1.81,8.02-1.19,15.27-1.48,22.48c-0.6,15.06-4.86,19.62-19.96,21.74
		c-1.6,0.22-3.22,0.25-4.52,0.34c-2.31-2.1-0.78-4.85-2.42-7.18c-3.78-0.64-7.9-1.33-12.54-2.12c0.96-5.57,3.75-10.15,7.51-13.54
		c6.31-5.7,11.47-13.17,21.62-16.11c-1.37,4.91-7.04,6.7-5.4,12.14c4.12-2.1,6.28-5.8,9.34-8.49
		C718.4,97.08,716.35,91.3,723.34,90.36z"/>
	<path fill="#1A1A1A" d="M1338.86,128.69c2.4,1,4.88,1.85,7.19,3.04c8.97,4.63,17.91,9.32,27.47,12.69c2.7,2.07,5.41,4.14,8.11,6.21
		c0,0-0.28-0.26-0.28-0.26c3.72,9.52,7.47,19.03,11.16,28.56c0.82,2.13,1.71,4.31,0.03,7.61c-5.32-6.84-10.77-12.99-15.2-19.79
		c-4.15-6.37-9.61-10.89-16.16-14.15c-7.39-3.68-14.8-7.64-22.64-9.98c-6.64-1.98-11.12-5.24-13.74-11.46
		c-0.76-1.82-1.82-3.51-3.06-5.88C1328.13,124.62,1333.08,129.06,1338.86,128.69z"/>
	<path fill="#1A1A1A" d="M736.88,92.38c-1.31-1.28-1.19-3.08-1.82-4.56c-2.02-4.72-0.84-8.43,3.1-11.41
		c9.84-7.44,17.38-17.36,27.02-25.02c4.12-3.27,8.3-6.46,13.1-10.2c1.16,4.21,2.24,7.66,5.2,9.61c-2.07,5.07-6.74,6.95-9.74,10.5
		c-6.88,8.15-13.33,16.61-18.89,25.65C749.74,95.25,747.79,96.28,736.88,92.38z"/>
	<path fill="#1A1A1A" d="M1443.24,258.82c3.43-1.83,0.88-5.73,2.98-8.04c1.54-1.5,2.18,2.31,4.89-0.61
		c1.34-4.45-2.4-10.04-1.65-15.91c0.71-5.59,0.99-11.32-0.32-16.89c-1.35-5.7-2.96-11.34-3.95-18.05
		c9.61,3.21,14.92,7.93,16.8,17.42c2.6,13.12,4.41,26.17,3.83,39.52c-0.09,1.97,0.28,4.02-1.24,6.1c-5.52,0.3-10.58-2.04-15.89-4.01
		c-1.43,0.55-1.31,3.17-3.3,3.1c-1.73-0.06-1.61-1.73-1.9-2.94L1443.24,258.82z M1459.52,257.68c1.64-0.09,2-1.38,2.04-2.58
		c0.04-1.26-0.44-2.49-2.08-2.49c-1.64,0-2.1,1.25-2.06,2.51C1457.47,256.33,1457.86,257.6,1459.52,257.68z"/>
	<path fill="#1A1A1A" d="M1129.37,362.28c-0.41,1.24-0.98,2.45-1.22,3.73c-0.76,4.04-3.61,6.11-7.02,7.67
		c-3.13,1.43-5.74,0-8.59-1.71c-1.63-12.21-4.54-24.29-8.98-35.98c-0.84-2.21-1.47-4.34-3.94-5.21l0.25,0.33c0-2.1,0-4.2,0-6.08
		c2.13-1.21,3.93-0.73,5.73-0.47l-0.23-0.24c0.84,1.1,2.01,1.76,3.34,1.61c7.13-0.81,11.55,2.94,14.89,8.62l-0.14-0.29
		c1.82,9.22,3.64,18.44,5.5,27.66c0.05,0.27,0.44,0.47,0.67,0.7L1129.37,362.28z"/>
	<path fill="#1A1A1A" d="M1264.25,211.42c-2.11-12.75-4.04-25.53-6.41-38.22c-1.19-6.35,0.13-11.66,4.07-16.69
		c3.29-4.2,6.88-8.06,11.41-12.24c3.31,6.23,4.07,12.71,5.83,18.83c0.48,1.67-0.34,3.18-1.42,4.57c-6.71,8.64-7.43,18.91-7.91,29.26
		c-0.24,5.19,1.03,10.55-0.79,14.78c-2.84,2.33-3.42-0.69-4.97-0.56L1264.25,211.42z"/>
	<path fill="#1A1A1A" d="M1247.24,471.86c-3.77,3.36-3.77,3.36-7.92,3.93c2-3.36,11.9-14.6,14.38-15.92
		c5.44-2.91,10.96-4.36,17.12-1.7c6.78,2.92,13.34,5.97,18.02,12.94c-3.68,4.63-4.57,10.68-7.85,16.34
		c-5.8-2.92-11.26-5.82-16.85-8.42C1258.85,476.58,1253.41,474.46,1247.24,471.86z M1281.05,472.51c-1.44,0.08-2.66,0.57-2.76,2.06
		c-0.15,2.18,0.94,3.58,3.2,3.85c1.13,0.14,1.92-0.64,2.06-1.51C1283.91,474.83,1283.23,473.15,1281.05,472.51z"/>
	<path fill="#1A1A1A" d="M1115.67,416.53c-4.43,2.39-8.87,4.78-13.43,7.24c-1.16-0.71-0.71-2.05-0.63-3.29l-0.26,0.34
		c5.4-5.26,4.39-12.9,7.04-19.44c2.23-0.49,4.45-0.97,6.68-1.46c-1.01-3.25-3.88-0.57-6.61-3.38c-2.41-5.44-4.98-12.88-9.89-18.89
		c1.97-2.33,3.6-1.31,4.36,0.09c1.63,2.99,2.69-0.53,3.51-0.16c3.08,1.4,6.92,1.81,8.52,5.51c1.12,2.6,2.4,4.5,5.89,3.69
		c2.02-0.47,3.64,1.36,5.13,2.65c1.25,1.09,2.34,2.37,3.52,3.54c0.94,0.93,1.91,1.82,3.6,3.42c-4.63,8.72-9.39,17.7-14.09,26.57
		c-4.22-1-2.62-4.4-3.53-6.62c4.85-2.67,5.99-7.16,5.97-12.21c1.9-1.72,3.84-3.4,5.66-5.2c0.3-0.3,0.04-1.15,0.04-1.8
		c-1.66,0.11-3.24,0.21-5.42,0.35c0,2.42,0,4.66,0,6.9C1118.68,407.94,1115.86,411.58,1115.67,416.53z"/>
	<path fill="#1A1A1A" d="M1239.52,140.49c-0.94-0.23-1.88-0.46-3.69-0.9c2.9-5.49,1.7-10.95,0.47-18.06
		c-5.58,5.85-8.79,14.22-18.3,10.21c0.28-5.03,5.66-5.94,7.9-9.44c2.28-3.57,5.71-6.39,8.73-9.63c10.1,2.71,17.83-2.54,25.42-7.4
		c3.33-2.14,6.42-4.63,10.1-6.27c2.14,2.37-0.49,3.49-1.45,4.83c-4,5.59-9.76,9.95-11.25,17.3c-0.55,2.7-3.91,3.42-5.67,5.51
		c-1.87,4.37,2.24,11.88-6.21,13.1c-3.53-2.81,2.21-6.49-1.66-9.26c-3.49,2.58-2.32,7.36-4.74,10.36L1239.52,140.49z"/>
	<path fill="#1A1A1A" d="M733.14,136.06c-1.45,4.98,3.74,3.97,6.1,6.45c-4.18,5.1-4.91,12.55-11.82,15.69l0.31,0.32
		c-0.35-1.78-1.51-2.79-3.05-3.34c-5.09,2.37-10.01,4.92-15.14,6.95c-4.99,1.97-8.93,6.72-14.66,6.17
		c-2.12-2.01-1.22-4.03-1.21-5.92c2.15-2.05,3.32-4.6,3.79-7.5c4.06-2.43,4.74-7.48,8.09-10.45c1.86-1.04,3.89-0.94,5.91-0.88
		c3.52-1.61,7.99-1.35,10.33-5.27l-0.45,0.33c4.04-0.74,8.08-1.47,12.12-2.21L733.14,136.06z"/>
	<path fill="#1A1A1A" d="M1348.88,492.66c0.67-2,0.68-2.78,1.08-3.11c3.21-2.68,0.47-8.03,4.98-10.33c5.28-2.7,9.58-7.7,15.71-8.24
		c6.2-0.55,12.49-0.87,18.75,1.15c10.16,3.28,17.67,8.46,17.68,21.16c-4.08,0.21-7.06-2.19-9.86-4.7c-3.65-3.27-7.98-3.81-12.62-4.8
		c-12.03-2.57-22.21,0.68-31.92,7.21C1351.89,491.52,1350.91,491.78,1348.88,492.66z"/>
	<path fill="#1A1A1A" d="M657.56,190.42c-8.01,2.53-13.5,9.35-20.72,12.64c-3.27-1.43-3.24-3.85-2.53-6.1
		c1.19-3.77,2.52-7.55,4.28-11.08c1.65-3.31,3.07-6.6,3.5-10.28l-0.29,0.36c4.55-2.5,6.11-7,7.73-11.47l-0.31,0.34
		c2.18-1.97,3.38-5.01,7.1-6.16c3.37-0.29,5.25,4.51,9.63,3.91c-0.31,5.14,2.03,9.54,3,14.42c-1.91,2.72-3.8,5.42-5.7,8.11
		C661.81,187.37,659.9,189.13,657.56,190.42z M648.4,178.36c-3.37,1.78-4.33,4.15-4.78,6.87c2.19,2.8,5,3.98,7.44,0.99
		C653.61,183.09,650.66,180.83,648.4,178.36z M661.67,174.87c-2.51-2.76-4.3-5.28-7.87-5.72c-0.5,3.42-1.61,6.62,1.48,8.49
		C657.62,179.06,659.55,177.25,661.67,174.87z M646.33,190.74c-6.62,0.73-6.62,0.73-5.91,6.41c0.91-0.29,1.99-0.35,2.65-0.9
		C644.55,195.02,645.72,193.49,646.33,190.74z"/>
	<path fill="#1A1A1A" d="M1675.69,324.33c0.54-0.33,1.02-0.72,1.43-1.19c1.19-0.56,2.43-1.04,3.57-1.71
		c3.66-2.15,6.72-1.53,9.8,1.38c3.59,3.39,7.63,6.29,11.26,9.63c2.91,2.68,5.87,3.86,10.03,3.55c2.98-0.22,6.7-0.23,9.33,3.01
		c-0.65,1.31-1.34,2.69-2.03,4.08c-1.19,0.73-2.38,1.45-3.56,2.18c-3.25,1.22-6.57,2.92-9.26-1.39c-0.32,2.64-0.62,5.09-0.91,7.55
		c-3.11,0.84-6.38,3.28-8.99-0.89c-0.47-3.7-1.53-6.75-5.57-8.33c-2.33-0.91-5.16-1.14-7.16-3.57c-0.65-3.79,1-8.1-0.96-12.48
		c-4.89,1.16-7.09,5.11-10.21,7.78c-1.8,1.54-3.35,1.92-4.57-1.04C1670.43,330.09,1673.06,327.21,1675.69,324.33z"/>
	<path fill="#1A1A1A" d="M1170.55,531.92c6.57,2.34,13.06,0.56,19.09,0.51c2.98,3.03,1.39,6.76,2.88,9.8
		c0.64-0.81,1.18-1.49,1.77-2.23c2.29,1.76,0.72,4.18,1.47,5.87c-0.79,0.84-1.14,1.56-1.67,1.72c-2.51,0.79-5.24,1.07-7.56,2.21
		c-4.73,2.32-9.35,2.82-14.37,1.04c-4.51-1.6-9.08-1.13-13.64,0.25c-4.49,1.36-9,2.06-13.67-2.39
		C1154.51,544.34,1163.83,540.25,1170.55,531.92z"/>
	<path fill="#1A1A1A" d="M1147.38,340.28c-0.15,2.73,1.14,5.09,1.81,7.63c1.62,6.16,0.54,9.08-4.84,12.61
		c-3.26,2.14-6.85,3.78-9.47,5.2c-3.41,0.02-3.32-3.17-5.5-3.44c0,0,0.25,0.33,0.25,0.33c-0.01-2.65-0.12-5.31,0-7.96
		c0.34-7.54-1.59-14.36-6.17-20.4l0.14,0.29c-0.49-2.14-0.38-3.71,2.34-4.43c5.22-1.38,10.53-1.35,15.83-1.62l-0.39-0.25
		c1.84,4.24,2.88,8.88,6.28,12.32L1147.38,340.28z"/>
	<path fill="#1A1A1A" d="M2077.29,263.23c-0.32,0.34-0.68,0.63-1.08,0.87c-4.81,3.05-10.07,4.54-15.76,4.5
		c-3.59-0.03-7.13,0.42-10.28,1.53c-0.54-0.85-0.78-1.07-0.83-1.33c-0.06-0.3-0.08-0.79,0.1-0.94
		c14.85-12.72,31.65-22.67,47.91-33.35c7.07-4.64,14.95-8.06,23.84-12.76c-1.01,3.91-3.02,4.87-4.61,6.12
		c-1.82,1.43-3.68,2.81-5.52,4.21c-2.09,1.59-4.63,2.91-3.65,6.28c-1.99-0.09-3.91,0.03-5.6,1.32c-5.95,4.5-12.18,8.68-16.58,14.9
		l0.38-0.33C2080.53,255.11,2078,258.34,2077.29,263.23z"/>
	<path fill="#1A1A1A" d="M739.95,44.11c3.28,3.31,4.03,5.92,2.9,9.72c-2.18,7.32-4.52,14.51-8.25,21.41
		c-7.85,2.34-15.36,11.16-24.7,1.54C718.44,64.44,728.65,54.23,739.95,44.11z"/>
	<path fill="#1A1A1A" d="M657.56,190.42c2.34-1.29,4.24-3.05,5.68-5.31c7.25-2.28,10.57-9.83,16.6-12.82c4.73-0.15,5.93,3.43,9.14,6
		c-6.79,7.81-15.72,12.35-22.9,18.9c-7.3,6.66-15.26,12.58-21.6,20.14c-2.88-1.4,0.17-3.81-1.32-5.19
		c-2.18-2.89-4.07,1.73-6.15,0.13c0.04-0.57-0.14-1.36,0.16-1.67C643.94,203.85,650.75,197.14,657.56,190.42z"/>
	<path fill="#1A1A1A" d="M1123.65,184.68c1.84,2.78,4.04,5.4,3.75,9.06c0.42,4.24,0.88,8.47,5.26,10.78
		c0.27,1.89,0.54,3.77,0.81,5.66c-0.11,4.64,0.93,8.9,4.17,12.41l-0.27-0.29c-0.3,4.89,1.27,9.85-0.08,14.23
		c-2.14,2.41-4.44,2.2-7.01,2.58c-3.97-9.15-3.79-18.99-6.74-28.02c-2.97-9.09-6.21-18.09-11.73-25.73
		c0.96-3.37,3.52-4.21,5.76-5.31C1120.8,180.14,1121.08,183.88,1123.65,184.68z"/>
	<path fill="#1A1A1A" d="M1135.7,278.49c0.84-11.66-3.33-22.79-4.12-33.83c4.98-4.56,7.39-0.57,10.17,1.92c0,0-0.33-0.43-0.33-0.43
		c1.03,8.87,1.83,17.77,3.15,26.59c1.32,8.84,3.19,17.6,4.77,26.41c0.7,3.93-0.15,5.85-2.8,6.38c-3.04,0.61-4.2-1.53-4.86-3.82
		c-1.82-6.34-4.49-12.5-4.48-19.27c0-1.64,0.01-3.35-1.78-4.28L1135.7,278.49z"/>
	<path fill="#1A1A1A" d="M1099.62,330.77c2.1,9,5.99,17.49,7.33,26.75c0.57,3.94,1.01,7.76,1.03,11.41
		c-3.13,2.22-5.53,1.91-7.11-0.96c-1.43-2.6-2.47-5.42-3.59-8.19c-2.12-5.22-4.18-10.44-6.72-15.51c-3.58-7.14-4.6-15.01-5.23-23.59
		c8.09-0.16,11.16,5.34,14.54,10.41L1099.62,330.77z"/>
	<path fill="#1A1A1A" d="M1213.39,298.23c0.29,3.6-0.06,7.4,1.01,10.74c1.49,4.65,1.01,9.03,0.22,13.85
		c-4.57,3.24-9.95,4.26-15.76,6.04c-2.63-8.69-0.31-16.93-2.21-24.54c2.98-3.51,6.69-4.97,10.16-6.78c1.4-0.73,3.13-1.26,2.75-3.44
		l-0.27,0.31c1.44,1.39,2.88,2.78,4.32,4.17L1213.39,298.23z"/>
	<path fill="#1A1A1A" d="M863.45,291.43c-4.47,3.04-8.15,7.29-13.57,8.87c-2.39-0.44-4.47,0.56-6.68,1.26
		c-2.41,0.76-4.99,1.12-7.48-0.91c13.49-3.13,22.79-10.53,28.62-22.57c0.31-0.2,0.58-0.45,0.8-0.75
		c6.73-4.65,12.57-10.08,17.15-17.02c3.55-5.38,6.15-11.53,10.62-16.06c3.69,1.63,2.49,4.18,2.58,6.33
		c-4.54,8.36-9.39,16.52-15.87,23.59c-4.38,4.24-8.73,8.51-13.15,12.7C865.09,288.18,863.28,289.12,863.45,291.43z"/>
	<path fill="#1A1A1A" d="M928.04,233.89c-6.87,3.2-7.27,3.17-18.23-1.28c5.6-9.19,3.76-19.54,4.05-29.95c4.71,0,8.84,0,13.37,0
		c0.97,8.16,2.55,15.83,0.58,23.71c-0.64,2.55-1,5.24-0.1,7.88L928.04,233.89z M922.33,232.09c1-1.17-0.01-1.87-0.68-2.42
		c-1.16-0.96-2.41-0.79-3.22,0.5c-0.6,0.95-0.12,1.87,0.7,2.53C920.42,233.72,921.45,233.09,922.33,232.09z M925.33,219.22
		c-0.24-2.85-1.44-2.93-2.77-2.79c-1.02,0.11-1.77,0.67-1.94,1.66c-0.3,1.73,1.1,2.24,2.28,2.25
		C924.13,220.35,925.34,219.72,925.33,219.22z"/>
	<path fill="#1A1A1A" d="M1627.71,308.33c2.7-0.4,5.12-1.44,7.25-3.15c3.81-1.09,7.61-2.21,11.44-3.23
		c0.54-0.14,1.23,0.24,2.16,0.44c0.49,3.08,1.87,6.17-0.05,9.44c-1.68,2.85-3.36,5.75-2.61,9.09c1.03,2.91,4.78,2.79,5.54,5.67
		l0.17-0.3c-3.45,0.52-6.44,3.32-10.25,2.06c-1.33-0.66-2.66-1.33-3.99-1.99c-1.1-2.21-4.54-1.09-5.35-3.85
		c-0.6-3.5,3.17-6,3.07-9.38c-3.65-1.74-5.32,0.98-7.53,2.02c-3.45,1.62-5.85,5.32-10.22,5.1l0.24,0.26c0.2-4.1,3.27-6.11,6.08-8.3
		C1625.15,311.06,1627.29,310.59,1627.71,308.33z"/>
	<path fill="#1A1A1A" d="M1296.17,196.66c2.45,1.92,4.9,3.85,7.36,5.77c-0.18,1.8-1.45,2.93-2.65,4.02
		c-2.93,2.65-5.94,5.2-8.95,7.81c-2.85-1.5-5.67-1.98-8.57-2.08l0.3,0.3c-0.32-1.17,0.41-2.62-1.36-3.76
		c-3.49,4.93-6.39,10.06-6.88,16.27c-0.22,0.41-0.48,0.8-0.78,1.17c-1.13,2.31-3.59,2.37-5.66,3.47c3.52-13.43,10.6-25,16.55-37.34
		c2.86,0.35,2.86,3.72,4.83,4.27C1292.16,197.06,1294.22,196.66,1296.17,196.66z"/>
	<path fill="#1A1A1A" d="M1465.13,280.61c-2.96,3.26-4.1,7.8-7.56,10.71c-3.06,3.22-5.31,6.89-6.25,11.28l0.35-0.44
		c-2.48,1.71-4.8,3.57-7.99,1.05c-2.64-2.09-6.66-0.67-9.7-3.72c5.51-5.12,9.22-11.61,12.92-18.11c1.13-1.98,1.79-4.67,4.81-4.14
		c3.34,0.59,0.82,4.19,2.57,5.73C1458.52,276.94,1459.11,276.82,1465.13,280.61z"/>
	<path fill="#1A1A1A" d="M1264.05,211.15c-2.1,2.97-4.41,3.7-7.34,0.97c-2.06-1.92-2.88-4.28-3.53-6.93
		c-2.54-10.28-4.11-20.72-5.5-31.2c-0.35-2.62-0.57-5.35-3.17-6.97l0.03,0.12c3.18-1.02,5.99-4.78,10.31-0.72
		c1.26,13.03,4.04,26.51,6.7,40.02c0.39,1.99,0.7,3.91,2.7,4.98L1264.05,211.15z"/>
	<path fill="#1A1A1A" d="M675.48,134.54c1.51-0.6,3.02-1.21,4.42-1.77c3.43,0.18,1.46,8.46,7.25,4.92c0.93-3.12-3.17-3.42-2.89-6.07
		c2.93-1.28,5.68-1.34,8.48,1.49c-0.42,3.96-3.35,6.82-5.67,9.8c-3.47,4.44-7.4,8.52-11.24,12.66c-2.11,2.27-4.76,4.28-7.85,2.4
		c-1.86-1.13-3.14-3.36-4.41-5.27c-1.1-1.64,0.4-3.11,0.86-4.63c2.99-1.86,4.56-5.01,6.88-7.49c2.41-1.48,4.1-3.46,4.52-6.35
		L675.48,134.54z"/>
	<path fill="#1A1A1A" d="M1402.51,408.45c0.27-4.82,2.08-8.48,0.44-12.51c-1.3-3.19-3.35-6.23-3.38-11.03
		c4.5,1.62,8.42,2.81,12.15,4.43c4.11,1.78,6.08,5.32,5.28,9.63c-1.34,7.24-1.28,14.86-5.13,22.04
		C1407.22,417.64,1406.75,411.57,1402.51,408.45z"/>
	<path fill="#1A1A1A" d="M853.88,562.23c1.1-2.61,1.93-3.64,2.81-3.29c7.5,2.94,12.62-1.67,17.89-5.58
		c1.56-1.16,2.62-2.98,3.95-4.45c4.04-4.46,8.65-5.93,14.14-2.63c1.77,1.82,2.14,4.57,1.95,6.48c-0.75,7.55-2.29,10.29-9.14,10
		C875.3,562.33,865.1,562.39,853.88,562.23z"/>
	<path fill="#1A1A1A" d="M1221.44,288.54c4.04,0.37,5.11,3.5,6.35,6.61c1.37,3.43,1.17,6.92,0.84,10.45c4.1,2.4,2.13,6.38,2.76,10.1
		c-3.44,3.22-7.28,5.28-12.53,4.61c-1.65-4.17-1.62-8.22,0.28-12.62c-2.08-2.82-2.13-7.2-5.75-9.47l0.22,0.33
		c0.63-5.06,4.32-7.71,8.13-10.26L1221.44,288.54z"/>
	<path fill="#1A1A1A" d="M1331.41,556.54c2.69-0.02,4.05-1.85,5.18-3.9c1.41-2.56,2.54-5.31,5.64-7.61
		c4.52,1.81,9.07,4.84,14.04,5.79c-2.29,3.12-4.71,6.42-7.12,9.72l0.33-0.34c-0.63,0.14-1.52,0.07-1.86,0.47
		c-5.6,6.58-12.85,6.06-20.4,5.17c-0.44-4.44,4.01-6.12,4.55-9.66L1331.41,556.54z"/>
	<path fill="#1A1A1A" d="M675.82,134.24c-6.04-0.6-8.17-5.89-11.64-9.13c0.26-3.06,1.9-4.76,3.61-6.26
		c5.19-4.58,10.44-9.08,15.75-13.52c3.19-2.67,6.71-4.26,10.9-2.18l-0.28-0.25c-7.8,6.46-11.77,15.51-16.25,24.18
		c-1.18,2.29-1.64,4.96-2.42,7.46C675.48,134.54,675.82,134.24,675.82,134.24z"/>
	<path fill="#1A1A1A" d="M1181.38,313.84l0.03-0.23c0.91-4.09,4.34-5.66,7.58-7.22c2.66-1.29,5.42,0.13,6.04,3.23
		c1.37,6.88,1.33,13.87,0.2,20.77c-0.56,3.42-2.43,3.9-9.17,3.26C1184.71,327.11,1184.44,320.11,1181.38,313.84z"/>
	<path fill="#1A1A1A" d="M671.3,140.58c-2.32,2.47-3.89,5.63-6.88,7.49c-2.08,0.05-3.86,0.59-4.9,2.63
		c-2.32,4.55-6.73,4.19-12.19,5.68c4.85-10.16,8.34-19.16,14.7-27.85C665.65,132.64,670.88,134.54,671.3,140.58z"/>
	<path fill="#1A1A1A" d="M899.71,226.46c-6.58-0.42-11.85-3.18-16.49-8.92c4.13-1.99,7.22-4.43,11.47-3.91
		c3.7-1.59,7.51-1.37,11.05-1.26C910.86,222.35,910.1,223.98,899.71,226.46z"/>
	<path fill="#1A1A1A" d="M1107,155.92c6.2-7,12-7.55,16.85-0.72c2.65,3.73,6.26,6.29,8.74,9.94c0.52,0.77,0.72,1.77,1.24,3.12
		c-2.64,2.62-5.7,3.96-9.87,3.86c-2.74-4.4-6.37-8.28-6.97-13.93C1114.08,157.53,1111.12,156.86,1107,155.92z"/>
	<path fill="#1A1A1A" d="M1296.41,561.35c4.63-5.51,10.77-9.56,15.38-15.23c2.61-3.21,7.34-1.71,12.85,2.95
		c-0.06,0.31-0.06,0.64-0.19,0.91c-2.18,4.78-7.78,3.24-10.97,5.88c-3.19,2.64-4.94,6.83-9.93,7.42
		C1300.8,563.62,1298.39,564.43,1296.41,561.35z"/>
	<path fill="#1A1A1A" d="M1012.38,220.28c0.34-0.35,0.63-0.73,0.87-1.15c2.53-1.42,5.06-2.83,7.77-4.35
		c4.39,0.4,7.81,4.6,12.66,3.78l-0.3-0.27c0.41,1.19,0.82,2.37,1.28,3.7c-7.36,2.98-14.59,5.9-21.9,8.86
		c-0.74-1.12-1.42-2.16-2.4-3.66c-1.71,3.44-3.71,4.78-5.76,0.49C1006.33,224.19,1010.41,223.34,1012.38,220.28z"/>
	<path fill="#1A1A1A" d="M1247.59,156.26c1.72-4.51,5.22-7.82,7.87-11.7c1.18-1.08,2.7-1.95,3.47-3.27
		c1.59-2.72,3.96-2.96,6.62-2.83l-0.4-0.34c0.87,1.36,1.73,2.73,3.04,4.79c-3.68,5.38-7.38,11.15-11.47,16.63
		c-2.24,2.98-2.99,2.86-9.79,2.4C1246,159.9,1247.56,158.17,1247.59,156.26z"/>
	<path fill="#1A1A1A" d="M1020.93,353.29c1.48,2.23,2.96,4.47,4.44,6.7c1.22,5.46-0.72,10.38-2.68,15.96
		c-3.99-0.21-8.23,1.48-12.22-2.28c3.36-6.16,6.35-12.35,7.27-19.32C1017.96,352.8,1019.58,352.81,1020.93,353.29z"/>
	<path fill="#1A1A1A" d="M697.47,154.87c-0.47,2.9-1.64,5.45-3.79,7.5c-2.08,2.04-4.17,4.07-6.25,6.11l0.26-0.17
		c-3.65-0.62-2.67-3.46-1.91-5.24c3.14-7.43,6.65-14.71,10.01-22.02c1.92,0,3.52,0,5.13,0c0.27,0.39,0.48,0.81,0.64,1.26
		C702.41,147.22,697.51,150.25,697.47,154.87z"/>
	<path fill="#1A1A1A" d="M1460.91,199.63c-8.19-6.06-16.41-11.86-26.84-14.27c0.28-4.71-3.11-8.27-1.87-12.71
		c2.97-0.3,4.92,1.32,6.09,3.22C1444.15,185.36,1456.25,188.9,1460.91,199.63z"/>
	<path fill="#1A1A1A" d="M1818.64,333.6c3.81,3.72,8.42,6.15,14.43,8c-9.53,4.8-19.04,1.97-29.35,5.07
		C1808.13,339.99,1812.86,336.45,1818.64,333.6z"/>
	<path fill="#1A1A1A" d="M1361.54,108.5c2.2,2.12,5.3,0.43,7.67,1.8c-0.13,0.98-0.02,2.07-0.42,2.93c-1.46,3.12-2.08,3.1-5.98-0.26
		c-9.4,6.53-17.4,0.92-25.64-3.47C1345.3,107.02,1353.48,109.56,1361.54,108.5z"/>
	<path fill="#1A1A1A" d="M701.56,142.32c-0.16-0.45-0.38-0.87-0.64-1.26c0.14-0.6,0.11-1.59,0.44-1.73
		c9.53-4.08,19.05-8.21,30.33-9.68c-1.75,6.08-8.08,5.13-10.34,8.96l0.45-0.33c-3.99,0.68-8.5,0.34-10.33,5.27
		c-2.02-0.06-4.05-0.16-5.91,0.88C704.23,143.72,702.89,143.02,701.56,142.32z"/>
	<path fill="#1A1A1A" d="M1025.29,570.39c-3.89-0.57-7.22,2.67-11.45,1.55c-0.54-2.96,3.96-2.78,3.67-5.51l-0.36,0.35
		c2.48-0.44,3.89-1.6,4.58-4.34c1.63-6.4,1.84-6.29,8.74-5.52c0.6,0.07,1.34-1.07,2.36-1.95c1.5,4.23-0.12,7.24-2.53,10
		c-1.71,1.96-3.55,3.81-5.33,5.71L1025.29,570.39z"/>
	<path fill="#1A1A1A" d="M1331.77,161.4c8.91,2.52,14.53,8.13,20.83,11.96c0.05,2.61-1.06,4.17-2.86,3.57
		c-5.28-1.76-10.46-3.87-15.59-6.05C1329.99,169.11,1331.24,165.71,1331.77,161.4z"/>
	<path fill="#1A1A1A" d="M1046.71,564.69c0.95-0.18,1.9-0.37,2.85-0.55c2.32-3.17-2.32-5.15-1.17-8.31
		c0.69-0.24,1.71-0.99,2.39-0.75c2.44,0.85,5.02,1.65,6.31,4.27c2.43,4.92,0.39,9.62-5,11.6c-2.79,1.02-5.52,1.82-8.2-0.11
		c-0.45-2.34,1.8-3.5,2.06-5.43C1046.16,565.12,1046.41,564.88,1046.71,564.69z"/>
	<path fill="#1A1A1A" d="M1477.3,204.56c2.84-0.52,5.69-1.04,9.22-1.69c0.24,5.97-1.84,10.97-4.34,15.73
		c-1.3,2.47-5.41,1.99-6.38-0.72c-0.94-2.64-2.62-5.36-0.6-8.39c1.06-1.6,1.65-3.5,2.46-5.27L1477.3,204.56z"/>
	<path fill="#1A1A1A" d="M723.6,164.41c-5.31,2.65-10.61,5.31-15.92,7.96c-3.07,0.3-5.47,2.17-8.11,3.47
		c-1.95,0.95-3.07,0.12-3.79-1.66l-0.27,0.41c1.09-1.18,1.96-2.94,3.3-3.43c9.89-3.66,18.14-11.09,28.93-12.64l-0.31-0.32
		C728.28,161.58,724.73,162.25,723.6,164.41z"/>
	<path fill="#1A1A1A" d="M807.67,20.07c-5.66,6.46-9.79,14.2-17.21,20.75c-1.37-5.86-1.07-10.03,3.14-13.18
		c4.15-3.11,8.39-6.1,12.59-9.14C806.68,19.03,807.17,19.55,807.67,20.07z"/>
	<path fill="#1A1A1A" d="M694.44,103.14c-0.8-2.94-4.62-2.58-5.99-5.88c4.59-3.4,5.18-12.12,15.28-10.52
		c-3.36,5.82-1.93,13.38-9.57,16.15L694.44,103.14z"/>
	<path fill="#1A1A1A" d="M1372.34,190.68c-1.44-0.46-2.88-0.93-4.32-1.39c-2.04-5.05-8.08-5.34-11.19-9.26
		c0.99-3.57,3.14-5,6.51-3.37c2.64,1.28,5.13,2.93,7.5,4.66C1374.36,183.86,1374.87,187.07,1372.34,190.68z"/>
	<path fill="#1A1A1A" d="M1294.53,109.65c-6.63,2.76-12.5,7.24-19.79,8.54c-2.32,0.41-4.47,1.17-6.17-1.18
		c5.46-5.65,17.66-9.07,25.77-7.25L1294.53,109.65z"/>
	<path fill="#1A1A1A" d="M1185.38,106.48c1.41-0.7,2.82-1.39,4.23-2.09c5.34-0.04,10.05-2.35,14.97-4.02
		c4.87-1.65,9.46-4.62,14.98-3.81l-0.39-0.32c-0.15,1.77-0.95,3.4-2.56,3.89c-9.38,2.83-18.81,5.49-28.24,8.15
		C1186.91,108.7,1185.91,107.86,1185.38,106.48z"/>
	<path fill="#1A1A1A" d="M1274.62,226.15c0.3-0.36,0.56-0.75,0.78-1.17c3.12-3.92,4.05-9.29,8.24-12.51l-0.3-0.3
		c0.52,2.51,0.17,5.37,3.07,6.75c-3.55,5.37-6.88,10.41-10.25,15.51C1274.18,231.86,1273.34,229.19,1274.62,226.15z"/>
	<path fill="#1A1A1A" d="M1018.88,135.64c-1.16-0.07-2.37-0.33-3.29,0.7c-2.38-0.14-4.5,0.68-6.69,1.54
		c-2.36,0.92-4.94,1.53-7.86-0.47c10.01-4.95,19.62-9.75,32.47-11.29C1027.75,130.28,1021.37,130.11,1018.88,135.64z"/>
	<path fill="#1A1A1A" d="M1657.43,328.5c-0.28,1.92-0.56,3.85-0.84,5.77c-3.33,1.79-5.61,7.51-10.73,2.82
		c-1.36-5.31,3.63-7.3,5.75-10.8l-0.17,0.3c0.73-0.64,1.39-1.4,2.21-1.87c0.79-0.45,1.76-0.6,2.59-0.87
		C1657.55,325.31,1657.67,326.86,1657.43,328.5z"/>
	<path fill="#1A1A1A" d="M863.21,173.63c-1.39-2.58-1.76-5.19-0.27-7.87c2.8-1.57,2.95-5.81,6.52-6.67
		C873.6,170.15,872.53,172.6,863.21,173.63z"/>
	<path fill="#1A1A1A" d="M1096.17,512.51c-4.04-0.97-4.99-4.35-8.02-6.38c-5.51,0.88-11.62,0.72-17.32,2.49
		c-1.47-2.91,0.08-4.03,1.67-4.08c7.27-0.25,14.56-0.44,21.83-0.17C1098.51,504.52,1098.96,506.84,1096.17,512.51z"/>
	<path fill="#1A1A1A" d="M1397.78,149.76c2.72-1.7,4.2-5.31,8.52-5.39c1.35,4.06-1.7,6.83-2.81,10.06c-2.8,1.79-2.41,6-5.74,7.53
		C1392.64,157.86,1397.78,153.8,1397.78,149.76z"/>
	<path fill="#1A1A1A" d="M1046.71,564.69c-0.3,0.19-0.55,0.43-0.76,0.72c-3.94,1.21-7.09,4.44-11.49,4.45
		c-0.27-0.24-0.49-0.53-0.66-0.85c-0.01-3.75,1.51-6.92,3.72-9.8C1045.44,558.66,1045.44,558.66,1046.71,564.69z"/>
	<path fill="#1A1A1A" d="M1465.61,269.49c-1.13,2.32-1.97,4.06-3.06,6.32c-3.62-0.86-7.04-1.67-10.37-2.46
		C1452.42,265.91,1454.52,265.26,1465.61,269.49z"/>
	<path fill="#1A1A1A" d="M968.74,501.05c0.73,2.9-0.55,3.6-1.74,4.91c-5.83-1.65-11.21-6.77-18.68-3.54
		c-0.14-4.1,1.05-6.2,4.84-6.33c2.37-0.08,4.56,0.33,6.54,1.84C962.49,500.06,965.1,502.66,968.74,501.05z"/>
	<path fill="#1A1A1A" d="M886.3,183.49c-1.66-2.49-2.6-5.23-2.91-8.2c2.87-3.4,1.67-8.42,4.7-11.73
		C891.46,174.15,891.16,177.46,886.3,183.49z"/>
	<path fill="#1A1A1A" d="M1422.29,155.45c2.01,6.94,2.51,13.81-0.53,21.55c-5.01-4.08-4.62-8.42-3.24-12.75
		c0.98-3.08,2.55-5.97,3.85-8.95L1422.29,155.45z"/>
	<path fill="#1A1A1A" d="M1146.38,136.28c0.75,1.68,1.14,2.56,1.54,3.45c2.77,1.85,5.57-1.31,8.37-0.03
		c-0.81,1.63-2.23,3.34-3.65,3.15c-5.45-0.73-9.25,4.12-15.46,5.31C1138.92,142.11,1142.82,140.08,1146.38,136.28z"/>
	<path fill="#1A1A1A" d="M940.62,564.83c-9.48,4-17.67,4.49-27.77,2.91C922.33,563.96,930.55,563.73,940.62,564.83z"/>
	<path fill="#1A1A1A" d="M742.91,105.33c-6.22,4.44-6.22,4.44-12.63-3.09C734.76,97.69,734.82,97.7,742.91,105.33z"/>
	<path fill="#1A1A1A" d="M749.82,112.7c1.95-4.68,7.13-3.74,11.07-7.38c0.36,7.94-4,11.4-8.03,15.21c-2.64-2.47,0.32-6.48-3.27-8.05
		L749.82,112.7z"/>
	<path fill="#1A1A1A" d="M1162.89,149c-2.5-2.53-4.09-5.2-1.43-8.6c2.21-2.82,4.38-5.66,7.32-9.46c1.77,8.35-2.07,13.36-6.13,18.29
		L1162.89,149z"/>
	<path fill="#1A1A1A" d="M835.07,149.58c-1.91,2.18-4.1,3.23-6.93,1.76c-2.24-6.57,2.05-9.38,7.66-12.77
		C835.52,142.83,835.29,146.2,835.07,149.58z"/>
	<path fill="#1A1A1A" d="M1507.23,246.58c4.61,0.21,8.11-4.32,13.72-3.24c-4.19,5.37-8.3,9.88-13.68,13.12l0.34,0.17
		c0-3.47,0.01-6.93,0.01-10.4L1507.23,246.58z"/>
	<path fill="#1A1A1A" d="M1017.51,566.44c-3.07-0.92-5.39,2.43-8.57,1.42c-2.08-1.58-1.37-3.31,0.05-4.91
		c1.51-1.7,3.17-3.27,4.76-4.9l-0.26,0.26c7.13,0.51,7.28,0.85,3.65,8.48L1017.51,566.44z"/>
	<path fill="#1A1A1A" d="M758.27,24.78c-2.93,5.46-4.5,11.74-9.32,15.47c-1.71-0.15-2.7-1.04-2.39-1.88
		C748.69,32.44,752.12,27.48,758.27,24.78z"/>
	<path fill="#1A1A1A" d="M1231.87,144.13c-2.25,0.27-4.56,1.14-6.97-0.79c0.46-5.11,3.57-8.61,7.52-12.09
		c3.35,5.07-0.38,9.02-0.92,13.23L1231.87,144.13z"/>
	<path fill="#1A1A1A" d="M624.28,204.72c0.61-9.23,3.26-13.19,8.95-13.55C631.5,196.23,630.28,201.07,624.28,204.72z"/>
	<path fill="#1A1A1A" d="M1244.69,553.91c0.81-1,0.05-2.62,1.51-3.43c4.61-2.54,9.16-5.17,13.63-7.71c1.6,1.62,1.73,3.15,1.14,5.17
		c-4.63,3.72-11.47,2.17-16.35,5.81L1244.69,553.91z"/>
	<path fill="#1A1A1A" d="M1187.39,146.54c-1.16-0.48-2.65-0.31-3.45-1.89c0.91-5.53,4.65-9.7,7.59-15.01
		c1.18,6.98-0.46,12.42-4.48,17.2L1187.39,146.54z"/>
	<path fill="#1A1A1A" d="M1011.24,178.29c0.27,7.12,0.32,14.25,2.01,21.51c-4.46-1.17-3.85-5.68-6.71-7.07
		c0.86-5.46,1.75-10.22,4.99-14.17L1011.24,178.29z"/>
	<path fill="#1A1A1A" d="M1110.93,164.19c-9.31,2.73-11.12,1.71-10.34-4.93C1106.13,159.53,1106.13,159.53,1110.93,164.19z"/>
	<path fill="#1A1A1A" d="M1204.96,143.18c0.9-4.79,4.68-7.46,7.4-11.58C1214.73,141.84,1213.35,143.85,1204.96,143.18z"/>
	<path fill="#1A1A1A" d="M770.9,94.55c-3.2-0.27-5.18,0.2-7.06-1.75c2.48-4.19,6.92-6.44,10.84-10.68
		C774.98,87.47,771.67,90.39,770.9,94.55z"/>
	<path fill="#1A1A1A" d="M1223.57,92.41c1.28-0.6,2.56-1.2,3.84-1.79c3.61,0.81,6.58-2.93,11.15-1.67
		c-4.93,4.66-10.57,6.3-15.87,8.44c-0.88,0.35-2.34-0.73-3.52-1.15c0,0,0.39,0.32,0.39,0.32
		C1220.9,95.18,1222.23,93.79,1223.57,92.41z"/>
	<path fill="#1A1A1A" d="M1026.8,377.47c-2.56-3.68,0.65-6.35,1.3-9.88c3.61,1.28,5.1,3.99,6.45,7.69
		C1032.22,376.97,1029.77,377.98,1026.8,377.47z"/>
	<path fill="#1A1A1A" d="M1495.63,226.36c1.3-0.7,2.61-1.39,3.91-2.09c1.22,0.04,2.5-0.16,3.41,0.98c-0.48,1.72-0.95,3.45-1.43,5.17
		c-2.91,0.99-3.35,4.99-6.8,5.56C1491.17,232.39,1494.99,229.51,1495.63,226.36z"/>
	<path fill="#1A1A1A" d="M1403.35,424.45c-2.17,0.4-4.34,0.8-7.58,1.4c1.16-4.47,3.51-7.09,6.55-9.28c3.62,3,3.62,3,0.66,8.22
		L1403.35,424.45z"/>
	<path fill="#1A1A1A" d="M1918.03,327.64c0.87-1.86,1.26-3.16,2.02-4.18c0.76-1.03,1.88-1.79,2.62-2.46
		c3.01-0.57,4.45,1.57,6.47,2.26c-0.28,1.01-0.31,2-0.63,2.1C1925.47,326.3,1922.67,328.33,1918.03,327.64z"/>
	<path fill="#1A1A1A" d="M909.04,238.02c2.32-0.17,4.74-0.33,6.69,1.05c1.58,1.11,1.48,2.9,0.12,4.25
		c-2.35,2.33-5.05,1.47-7.15-0.13C906.81,241.75,907.62,239.69,909.04,238.02z"/>
	<path fill="#1A1A1A" d="M847.11,159.01c3.08-1.32,2.35-5.39,5.07-6.95c2.87,8.02,2.74,8.52-3.45,13.05
		c-2.36-1.77-0.65-4.35-1.3-6.46L847.11,159.01z"/>
	<path fill="#1A1A1A" d="M898.49,559.37c-1.07-4.93-1.94-8.3-2.48-11.73c-0.22-1.41,0.85-2.59,2.36-2.43
		c0.8,0.09,1.54,1.05,2.25,1.68c0.22,0.19,0.44,0.76,0.33,0.88C898.32,550.74,901.94,554.66,898.49,559.37z"/>
	<path fill="#1A1A1A" d="M1292.72,559.02c-3.6,3.18-3.6,3.18-12.94,2.56C1283.48,557.58,1283.64,557.55,1292.72,559.02z"/>
	<path fill="#1A1A1A" d="M754.41,102c-0.46-3.55,0.75-5.78,2.14-8.01c2.8,0.82,4.51,2.63,5.47,5.3
		C760.11,101.33,757.84,102.26,754.41,102z"/>
	<path fill="#1A1A1A" d="M749.6,112.48c0.28,2.63,0.84,5.32-0.33,7.84c-0.56,1.19-1.73,1.97-3.23,1.82
		c-1.64-0.17-2.16-1.46-2.37-2.75c-0.62-3.84,0.27-4.76,6.15-6.68L749.6,112.48z"/>
	<path fill="#1A1A1A" d="M1013.76,558.05c-1.78,0.64-3.55,1.29-5.31,1.92c-1.94-2.45-2.11-4.78-0.39-7.14
		c2.42-0.91,4.52-0.47,6.46,0.83c0.84,1.86-0.83,3.08-1.02,4.64L1013.76,558.05z"/>
	<path fill="#1A1A1A" d="M1023.63,454.33c2.67-2.59,3.84-6.09,5.58-9.24c1.09-0.75,2.18-1.5,4.15-2.86
		c-1.46,6.29-4.34,10.71-7.95,14.6C1023.76,456.34,1023.76,455.3,1023.63,454.33z"/>
	<path fill="#1A1A1A" d="M1386.16,229.88l-0.13-0.12c0.21-4.56-3.92-6.54-5.85-9.86c2.15-2.18,3.76-0.03,4.91,1.02
		c2.37,2.19,4.62,4.69,4.74,8.25C1388.71,230.06,1387.49,230.29,1386.16,229.88z"/>
	<path fill="#1A1A1A" d="M1331.76,556.18c-3.53,0.27-6.63,3.47-10.63,1.4c1.51-1.61,4.08-1.24,5.46-3.11
		c1.28-1.74,2.35-4.17,5.35-3.39c1.28,1.99-1.11,3.58-0.54,5.46L1331.76,556.18z"/>
	<path fill="#1A1A1A" d="M783.5,106.09c-2.01-0.36-2.72-1.4-3.23-2.76c1.79-3.35,5.18-4.69,9.36-7.57
		C788.52,101.09,785.92,103.66,783.5,106.09z"/>
	<path fill="#1A1A1A" d="M732.35,117.47c2.01-4.37,6.14-5.35,10.7-8.13C738.86,118.62,738.86,118.62,732.35,117.47z"/>
	<path fill="#1A1A1A" d="M801.93,111.33c-0.69,4.1-2,6.65-4.54,8.72c-2.93-0.74-3.95-2.28-1.93-4.82
		C796.89,113.42,798.8,112.07,801.93,111.33z"/>
	<path fill="#1A1A1A" d="M695.77,174.18c-2.32,2.48-4.65,2.85-7.4,0.48c-2.35-2.02-2.79-3.98-0.68-6.35l-0.26,0.17
		c4.97-0.97,6.24,2.95,8.07,6.11L695.77,174.18z"/>
	<path fill="#1A1A1A" d="M1033.88,577.24c6.19-1.22,11.55-3.79,18.84-1.59C1045.79,576.31,1040.5,579.39,1033.88,577.24z"/>
	<path fill="#1A1A1A" d="M1349.15,560.54c2.94-0.68,5.89-1.36,8.83-2.04c0.88-0.05,1.76-0.1,2.64-0.15
		c0.13,1.28,0.49,2.79-1.13,3.28c-2.77,0.84-5.61,1.42-8.16,2.04c-1.81-0.8-1.28-2.39-1.85-3.48L1349.15,560.54z"/>
	<path fill="#1A1A1A" d="M1138.07,545.51c2.03-4.33,5.3-5.46,10.07-4.83C1145.87,545.77,1142.17,546.17,1138.07,545.51z"/>
	<path fill="#1A1A1A" d="M1033.8,569c0.17,0.32,0.39,0.61,0.66,0.85c-2.44,5.44-4.99,5.59-9.17,0.54l-0.31,0.3
		C1028.14,571.29,1030.53,567.87,1033.8,569z"/>
	<path fill="#1A1A1A" d="M1405.15,320.97c0.11-0.66,0.17-1.32,0.15-1.98c2.47,0.82,2.48,2.94,2.09,4.81
		c-0.66,3.14-1.74,6.2-3.26,11.4C1403.1,328.99,1403.31,324.96,1405.15,320.97z"/>
	<path fill="#1A1A1A" d="M733.54,123.83c-2.75,3.4-5.54,3.41-8.56,4.17C726.16,122.61,726.16,122.61,733.54,123.83z"/>
	<path fill="#1A1A1A" d="M642.08,175.6c-2.36,2.67-4.73,5.34-7.98,9.02c0.31-5.76,2.45-9.19,5.02-12.19
		c3.21,0.08,2.33,2.16,2.66,3.53L642.08,175.6z"/>
	<path fill="#1A1A1A" d="M1056.57,573.78c2.8-5.36,6.79-3.41,11.11-2.61C1064.34,575.08,1060.75,575.06,1056.57,573.78z"/>
	<path fill="#1A1A1A" d="M1360.38,549.25c2.49-4.09,5.69-2.08,8.45-2.2c0.65,2.04,0.62,3.27-0.75,4.55
		C1365.21,552.49,1363.13,549.96,1360.38,549.25z"/>
	<path fill="#1A1A1A" d="M1495.42,206.64c-1.32,2.2-3.04,4-5.16,5.44c-2.65-0.61-3.21-2-1.44-4.11c1.62-1.93,4.73-2.64,4.78-5.86
		l-0.35,0.37C1495.5,203.09,1495.52,204.83,1495.42,206.64z"/>
	<path fill="#1A1A1A" d="M732.42,97.1c-7.69-4.45-3.45-9.88-6.33-13.66c0.84-0.21,1.68-0.43,2.52-0.64
		C729.71,86.93,730.81,91.06,732.42,97.1z"/>
	<path fill="#1A1A1A" d="M1002.81,568.73c1.02,1.63,1.31,3.14,0.69,4.72c-2.15,2.1-4.74,1.07-8.31,2.27
		C997.54,571.56,999.17,569.02,1002.81,568.73z"/>
	<path fill="#1A1A1A" d="M1855.43,342.32c-1.83-0.22-3.92,0.69-5.4-1.16c2.58-3.77,2.58-3.77,9.76-1.61
		c-1.22,1.54-4.09,0.52-4.66,3.02L1855.43,342.32z"/>
	<path fill="#1A1A1A" d="M649.52,164.49c-1.67,0.75-3.34,1.5-5.02,2.26c-0.52-4.24-0.52-4.24,1.98-7.97
		c3.18,0.99,3.43,3.3,2.73,6.05L649.52,164.49z"/>
	<path fill="#1A1A1A" d="M1327.82,193.98c3.47-2.64,6.3-2.3,9.79,0.42C1333.12,196.07,1333.12,196.07,1327.82,193.98z"/>
	<path fill="#1A1A1A" d="M997.08,147.74c0,0-0.2,0.2-0.2,0.2c-2.69-0.72-5.39-1.44-8.46-2.27
		C993.62,142.3,993.62,142.3,997.08,147.74z"/>
	<path fill="#1A1A1A" d="M974.97,573.86c3.44-3.52,6.09-4.97,9.76-5.4C982.27,573.49,982.27,573.49,974.97,573.86z"/>
	<path fill="#1A1A1A" d="M1743.18,413.14c-4.36,1.3-8.75,0.97-13.14,0.2C1734.4,411.99,1738.79,412.26,1743.18,413.14z"/>
	<path fill="#1A1A1A" d="M892.42,335.08c4.16-1.99,7.3,0.23,10.01,0.24C899.69,334.83,896.63,339.29,892.42,335.08z"/>
	<path fill="#1A1A1A" d="M786.58,45.46c-2.67,0.34-3.81-0.94-4.04-3.1c-0.05-0.41,0.63-1.25,1.06-1.31c2.06-0.28,3.46,1,4.5,2.53
		C788.24,43.78,787.03,44.91,786.58,45.46z"/>
	<path fill="#1A1A1A" d="M1266.39,126.08c-0.12-4.07-0.12-4.07,8.09-5.25C1271.59,123.35,1270.37,126.61,1266.39,126.08z"/>
	<path fill="#1A1A1A" d="M733.46,136.4c0.23-1.55,0.45-3.1,0.77-5.25c3.48,1.12,4.64,3.44,5.26,6.28c-3.17,2.16-4.12-1.78-6.35-1.36
		L733.46,136.4z"/>
	<path fill="#1A1A1A" d="M1151.49,133.79c3.66-2.37,6.42-1.55,9.23-0.62C1158,133.64,1155.84,137.55,1151.49,133.79z"/>
	<path fill="#1A1A1A" d="M1297.5,552.31c1.9-3.71,3.66-5.61,8.46-5.84C1302.99,549.46,1303.25,553.88,1297.5,552.31z"/>
	<path fill="#1A1A1A" d="M1355.77,198.24c6.19,0.78,3.66,4.92,4.95,7.44C1355.36,205.79,1357.44,201.31,1355.77,198.24z"/>
	<path fill="#1A1A1A" d="M908.15,247.74c-5.03,0.39-8.63,0.84-10.12-4.11c2.42-0.16,3.08,2.2,4.75,2.68
		C904.11,246.69,905.45,247.02,908.15,247.74z"/>
	<path fill="#1A1A1A" d="M1319.69,569.31c-3.04,1.94-5.05,1.01-7.29-0.17c0.49-0.77,0.79-1.91,1.45-2.19
		C1316.15,565.97,1318.13,566.39,1319.69,569.31z"/>
	<path fill="#1A1A1A" d="M1172.56,557.1c-3.5,0.28-6.35,0.51-9.2,0.74c-0.01-0.25-0.02-0.49-0.03-0.74
		C1166.19,557.1,1169.04,557.1,1172.56,557.1z"/>
	<path fill="#1A1A1A" d="M1359.64,569.05c3.26-1.6,6.35-1.04,9.67-0.51C1363.12,572.07,1363.12,572.07,1359.64,569.05z"/>
	<path fill="#1A1A1A" d="M1384.01,569.58c0.46-3.33,2.56-3.49,4.15-4.55C1389.98,570.57,1389.98,570.57,1384.01,569.58z"/>
	<path fill="#1A1A1A" d="M1244.62,553.76c-2.86,0-5.72,0-8.61,0c3.95-3.01,3.95-3.01,8.68,0.15L1244.62,553.76z"/>
	<path fill="#1A1A1A" d="M994.78,561.58c0.68,3.47-0.37,4.68-3.02,4.28c-0.55-0.08-1.47-0.61-1.48-0.95
		C990.18,562.15,992.3,561.94,994.78,561.58z"/>
	<path fill="#1A1A1A" d="M1325.24,569.92c3.48-1.74,6.91-3.16,11.49,1.78C1331.55,570.9,1328.4,570.41,1325.24,569.92z"/>
	<path fill="#1A1A1A" d="M1011.53,178.56c0.73-1.81,1.33-3.69,2.25-5.4c0.41-0.77,1.44-1.2,3.4-2.72c-1.07,4.49-3.08,6.47-5.94,7.85
		C1011.24,178.29,1011.53,178.56,1011.53,178.56z"/>
	<path fill="#1A1A1A" d="M1360.61,558.35c-0.88,0.05-1.76,0.1-2.64,0.15c-0.64-6.13,3.76-3.46,6.49-4.56
		C1364.55,557.45,1361.65,556.89,1360.61,558.35z"/>
	<path fill="#1A1A1A" d="M1060.4,560.64c1.05,1.37,3.89,2.85,1.35,4.44c-2.23,1.39-1.92-1.43-2.06-2.76
		C1059.63,561.8,1060.14,561.22,1060.4,560.64z"/>
	<path fill="#1A1A1A" d="M1301.28,455.07c0.87,3.8-1.19,5.02-3.13,6.77C1297.3,458.44,1299.11,457.08,1301.28,455.07z"/>
	<path fill="#1A1A1A" d="M1607.65,308.17c-3.31,1.55-2.16,5.2-3.5,7.73c-1.73,3.28-3.75,5.05-7.42,4.92
		c-2.08-4.16,0.04-7.12,1.78-10.31c1.42-2.61,4.81-3.62,5.28-6.89c0.4-0.45,0.85-0.84,1.35-1.16c3.1,1.21,2.15,3.87,2.2,6.17
		L1607.65,308.17z"/>
	<path fill="#1A1A1A" d="M1385.38,134.51c5.62-10.14,20.27-24.86,29.19-29.34c0.92,1.5,0.51,3.09,0.3,4.67
		c-1.45,1.49-2.89,2.98-4.34,4.47c-6.16,2.21-10.09,6.83-13.24,12.28l0.37-0.4c-2.93,0.7-4.02,3.41-5.4,5.5
		C1390.47,134.44,1388.07,134.54,1385.38,134.51z"/>
	<path fill="#1A1A1A" d="M938.82,203.13c-1.04-2.6-1.97-5.99,1.69-6.4c7.23-0.82,14-3.68,20.98-4.75c3.68,5.01,3.57,10.56,5.26,15.5
		c1.71,5,2.96,10.16,4.6,15.89c-5.9,3.2-10.07,8.74-14.91,13.4c-4.38-0.97-4.81-4.76-6.12-7.56c-3.08-6.6-5.79-13.37-8.59-20.11
		c-0.51-1.23-0.85-2.5-2.26-3C939.25,205.11,939.03,204.12,938.82,203.13z M964.35,223.19c-3.15-1.67-4.36,0.2-5.64,2.45
		C961.62,226.95,963.34,226.22,964.35,223.19z"/>
	<path fill="#1A1A1A" d="M1680.99,330.91c0.78,7.43-0.97,12.76-7.94,15.22c-2.7-1.4-2.08-3.58-1.17-5.13
		C1673.97,337.39,1675.7,333.35,1680.99,330.91z"/>
	<path fill="#1A1A1A" d="M1583.72,296c-2.22,0.94-1.71,3.22-2.48,4.89c-1.49,3.25-4.01,3.86-7.65,2.09
		c1.23-4.79,4.84-6.87,9.07-8.27c0.09-0.03,0.54,1.05,0.83,1.61L1583.72,296z"/>
	<path fill="#1A1A1A" d="M1533.77,258.28c0.63,0.19,1.26,0.38,2.86,0.86c-3.9,4.49-5.59,10.01-9.1,15.99
		c-2.98-5.01-3.09-8.34-0.06-11.13c2.18-2.01,4.84-3.5,6.63-5.97L1533.77,258.28z"/>
	<path fill="#1A1A1A" d="M1620.9,329.92c-1.59-5.5-1.59-5.5,7.83-11.17c1.61,3.34-1.12,5.66-2.08,8.23
		C1625.97,328.79,1623.87,329.71,1620.9,329.92z"/>
	<path fill="#1A1A1A" d="M973.26,252.63c1.9-0.28,3.79-0.56,6.05-0.89c1.22,7.72-1.21,14.67-2.2,21.69
		c-0.58,4.08-0.48,7.57,2.28,10.74l-0.31-0.32c0.54,5.76,3.37,10.67,5.86,15.7c2.92,5.91,5.68,11.87,7.59,18.22
		c-2.69,1.81-3.71-0.68-4.75-1.97c-4.36-5.41-8.32-11.14-12.76-16.48c-8.87-10.64-10.02-23.14-9.28-36.2c0.16-2.84,1.22-5,3.57-6.7
		c1.57-1.14,2.84-2.69,4.25-4.05C973.56,252.36,973.26,252.63,973.26,252.63z"/>
	<path fill="#1A1A1A" d="M992.04,278.66c0.6,3.56,1.43,7.11,1.74,10.7c0.69,7.91,1.83,15.71,4.65,23.18
		c0.69,1.83,1.59,3.64,0.58,6.4c-2.77-1.49-3.88-3.99-5.03-6.46c-3.61-7.78-7.14-15.61-10.87-23.33c-0.96-1.97-1.42-4.52-4.04-5.31
		l0.31,0.32c0.17-1.62,0.34-3.24,0.53-5.08c4.13-1.53,8.31-0.2,12.44-0.23L992.04,278.66z"/>
	<path fill="#1A1A1A" d="M992.36,278.85c-3.12-3.33-7.89-3-12.24-5.3c1.75-6.86,2.23-13.99,5.94-20.56
		c5.89,1.93,9.87,5.59,13.02,10.36c-1.32,4.62-2.58,9.03-3.84,13.43l0.28-0.33c-1.16,0.74-2.32,1.48-3.48,2.22L992.36,278.85z"/>
	<path fill="#1A1A1A" d="M1010.38,245.44c-8.95-3.96-17.83-7.82-26.6-11.93c-0.65-0.3-0.44-2.44-0.62-3.65
		c-3.38-0.95-2.81,3.31-5.14,3.61c-3.26-0.86-1.94-3.61-2.76-5.31c0.87-0.72,1.32-1.44,1.8-1.45c11.85-0.39,22.94,1.46,32.03,10.13
		C1012,239.62,1012.75,242.07,1010.38,245.44z"/>
	<path fill="#1A1A1A" d="M960.25,247.56c-1.6-1.8-2.36-2.42-2.81-3.22c-0.63-1.13-1.02-2.38-1.69-4.03
		c4.56-4.33,8.67-9.01,14.64-12.03c2.55,2.81,2.85,5.5,0.01,8.42C967.18,240.02,964.07,243.46,960.25,247.56z"/>
	<path fill="#1A1A1A" d="M1033.25,228.07c-4.16,3.11-8.24,6.34-12.5,9.3c-2.5,1.74-4.01,1.3-7.41-1.28
		C1020.9,230.23,1025.89,227.86,1033.25,228.07z"/>
	<path fill="#1A1A1A" d="M995.25,276.77c4-2.2,2.97-8.04,7.12-10.14c1.37,1.12,1.2,2.39,0.48,3.51c-3.81,5.89-3.8,12.41-3.3,19.02
		c0.28,3.63,0.7,7.25-1.07,11.56c-1.69-8.53-2.62-16.36-2.95-24.28L995.25,276.77z"/>
	<path fill="#1A1A1A" d="M963.28,264.38c0.71,6.44,1.37,11.72-1.71,16.61C959.38,275.55,958.92,270.28,963.28,264.38z"/>
	<path fill="#1A1A1A" d="M1013.44,248c-1.64,3.91-3.17,7.86-4.97,11.7c-0.67,1.42-1.95,2.56-3.24,4.19
		c0.25-5.45,4.06-12.19,8.51-15.58C1013.75,248.31,1013.44,248,1013.44,248z"/>
	<path fill="#1A1A1A" d="M973.56,252.36c-1.55,0.08-3.1,0.15-4.58,0.22c-0.23-0.37-0.56-0.7-0.5-0.81c1.34-2.3,3.64-3.13,5.76-4.15
		c2.6,2.58-1.25,3.25-0.98,5L973.56,252.36z"/>
	<path fill="#1A1A1A" d="M967.85,246.59c0.71-4.18,2.4-5.74,5.1-6.91C974.76,244.41,970.87,244.23,967.85,246.59z"/>
	<path fill="#1A1A1A" d="M974.68,239.89c3.37-1.88,5.34-0.93,8.05-0.77C980.1,241.3,980.1,241.3,974.68,239.89z"/>
	<path fill="#1A1A1A" d="M1293.36,156.14c0.24-2.19,0.49-4.39,0.83-7.46c2.69,5.61,4.09,10.56,4.99,15.85
		c-5.03-1.16-2.31-7.11-6.12-8.74L1293.36,156.14z"/>
	<path fill="#1A1A1A" d="M1300.71,141.61c-1.02,3.05-2.52,4.48-5.2,3.54c-0.86-0.3-1.45-1.51-0.92-2.38
		C1295.95,140.56,1297.83,139.72,1300.71,141.61z"/>
</g>
</svg>
