<?xml version="1.0" encoding="utf-8"?>
<!-- Generator: Adobe Illustrator 24.0.2, SVG Export Plug-In . SVG Version: 6.00 Build 0)  -->
<svg version="1.1" id="Layer_1" xmlns="http://www.w3.org/2000/svg" xmlns:xlink="http://www.w3.org/1999/xlink" x="0px" y="0px"
	 viewBox="0 0 456.52 1038.88" style="enable-background:new 0 0 456.52 1038.88;" xml:space="preserve">
<style type="text/css">
	.st0{fill:#1A1A1A;}
</style>
<g>
	<path d="M87.83,600.02c-6.88-11.9-11.41-24.17-11.73-38.05c-0.31-13.46,2.03-26.15,8.16-38.52c-5.78-4.09-10.36-9.33-15.46-14.22
		c-2.4,2.2-4.31,5.26-8.37,3.09c-0.89-0.48-2.91,0.49-4.06,1.3c-4.44,3.1-9.89,4.15-14.37,6.85c-5.77,3.48-8.99,8.93-5.62,15.9
		c2.84,5.88,6.1,11.56,9.1,17.37c5.94,11.51,9.95,23.73,12.59,36.36c0.73,3.48,0.84,7.37-0.3,10.88c-0.72,2.22-0.45,3.65,1.08,5.32
		c4.2,4.61,6.05,10.36,7.35,16.29c0.59,2.69-0.45,5.2-1.51,7.61c-2.96,6.68-8.08,11.36-14.11,15.21
		c-6.19,3.96-13.08,6.93-17.95,12.79c-2.85,3.43-3.06,5.23-0.71,9.2c1.37,2.31,1.76,5.51,4.77,6.4c4.28,1.26,8.76,2.19,13.13,0.92
		c2.52-0.73,4.93-0.37,7.38-0.59c2.11-0.19,2.77,1.28,3.46,2.88c0.49,1.13-0.59,1.93-0.85,1.79c-4.3-2.27-6.58,2.72-10.57,2.48
		c2.07,2.58,4.96,3.21,7.02,5.15c5.35,5.04,9.33,10.38,7.1,18.25c-0.42,1.48,0.42,2.63,1.01,3.72c3.28,6,2.75,12.34,0.48,18.16
		c-2.31,5.95-6.86,9.67-13.88,10.79c-5.06,0.81-9.76-0.82-14.61-0.24c-1.66,0.2-2.65-1.08-4.26-1.54c1.42-3.24,4.3-2.96,6.71-3.46
		c5.68-1.18,12.83-8.56,11.54-14.79c-0.92-4.46-6.53-11.46-10.61-12.04c-1.9-0.27-3.04,1.42-5.24,1.48
		c-19.37,0.56-28.23-8.12-33.13-24.14c-2.9-9.5-0.74-18.87,2.48-28c3.21-9.1,6.68-18.12,9.48-27.34c0.78-2.57,2.99-1.29,4.03-3.02
		c3.06-5.04,7.74-8.98,10.91-13.88c4.84-7.47,9.65-15.2,8.99-24.79c-0.25-3.56-2.32-6.47-3.72-9.51
		c-4.02-8.71-8.36-17.18-14.37-24.93c-5.92-7.65-8.79-17.21-6.74-27.08c1.11-5.36,3.29-10.59,7.22-14.97
		c8.49-9.46,18.95-16.01,30.55-21.42c-1.9-1.74-3.62-3.24-5.29-4.78c-8.76-8.03-15.58-17.17-15.7-29.9
		c-0.11-12.1,1.97-24.09,5.73-35.24c2.87-8.53,3.35-17.15,5.15-25.66c2.59-12.28,5.47-24.45,8.99-36.49
		c2.51-8.58,4.22-17.44,8.63-25.37c0.72-1.29,0.51-2.58,0.53-3.87c0.04-5.33,0.05-10.67,0.01-16c-0.03-3.81,0.33-7.65,2.01-11.01
		c3.62-7.24,4.57-15.6,9.89-22.17c2.86-3.53,6.17-6.39,9.72-9.04c3.13-2.33,6.4-5.01,9.79-6.37c4.8-1.94,9.87-3.82,15.12-4.57
		c1.65-0.24,3.25-0.07,4.53-1.49c1.08-1.2,2.39-0.29,3.59-0.01c4.65-6.39,11.33-10.33,17.85-14.26
		c8.77-5.28,17.55-10.59,27.12-14.46c2.98-1.21,5.01-4.4,7.46-6.67c2.77-2.57,1.86-6.12,1.25-9.7c-2.3-13.54-7.81-26.2-10.49-39.63
		c-0.84-4.21-6.26-7.78-10.8-7.83c-1.83-0.02-3.68,0.12-5.49-0.08c-1.42-0.15-3.55-0.57-3.35-2.18c0.41-3.24-2.22-4.03-3.71-5.77
		c-6.11-7.15-10.21-15.26-10.39-24.78c-0.11-5.91-0.73-11.86,0.78-17.8c0.85-3.33,1.89-5.7,6.14-5.71c-2.46-2.67-4.77-4.8-6.35-7.53
		c-2.57-4.45-3.42-9.14-2.16-14.19c0.59-2.34,1.32-4.43,4.63-4.13c-1.22-8.82,2.82-15.99,5.41-23.77c3.42,0.14,5.18,3.08,7.62,4.72
		c1.9,1.28,3.48,3.12,4.96,4.9c1.99,2.39,4.37,3.71,7.9,3.66c-2.4-5.4-4.91-10.58-6.53-16.16c-2.36-8.12-1.49-15.76,1.53-23.47
		c2.18-5.57,7.37-6.68,11.94-8.57c5.25-2.17,10.75-3.75,16.09-5.69c4.13-1.5,4.97-1.04,4.93,3.14c-0.01,0.95,0.2,1.95-1.15,3.19
		c6.98-0.88,12.62-5.87,19.37-2.84c6.8-7.43,15.88-10.7,25.33-10.65c13.15,0.07,25.79-1.49,38.37-5.21
		c9.59-2.84,19.53-4.28,29.62-4.05c1.57,0.04,3.14,0.05,4.96-0.19c-2.73,6.31-8.34,9.86-12.59,14.79
		c10.31,2.44,21.34,3.72,30.08,11.79c-11.77,2.17-21.54,8.4-32.86,10.01c0.06,0.44,0.12,0.88,0.18,1.32
		c3.95,0.76,7.95,1.33,11.84,2.33c7.88,2.04,15.71,4.08,22.63,8.83c8.33,5.72,16.09,12.23,24.8,16.72c0.12,1.92-1.64,2.22-1.46,3.52
		c3.89,3.04,5.23,7.08,4.45,13.59c-2.05,0.53-3.49,0.35-4.73-1.96c-2.7-5.03-7.24-8.57-11.18-12.57c-3.41-3.47-8.06-4.49-12.47-4.93
		c-8.01-0.79-15.93-2.7-24.07-2.32c-2.28,0.11-3.58,0.72-4.56,2.87c-1.48,3.29-3.8,6.09-6.89,9.2c2.97-0.52,4.85-1.75,6.78-2.8
		c8-4.36,15.68-3.44,22.86,1.71c4.92,3.52,9.63,7.36,14.28,11.24c9.43,7.86,18.86,15.67,30.64,19.94c3.38,1.23,5.29,3.66,4.57,7.45
		c-1.47,0.74-2.72,0.53-3.26-0.62c-1.71-3.68-4.95-3.87-8.27-3.91c-4.67-0.05-9.36-0.35-13.99,0.06
		c-8.71,0.78-16.04-2.25-22.91-7.16c-6-4.29-12.5-7.63-19.54-9.87c-7.53-2.4-14.41-1.07-20.8,3.43c3.28,5.91,3.28,5.91,1.07,15.93
		c4.76,2.78,9.96,4.6,15.01,6.81c5.56,2.43,10.8,5.47,17.04,5.8c1.72,0.09,3.04,1.13,4.46,1.92c4.14,2.31,5.54,4.89,2.92,8.65
		c-4.52,6.47-4.64,13.7-5.74,20.96c-0.65,4.3-0.86,8.79-2.56,12.93c-0.39,0.94-0.51,2.08-0.02,2.91c2.19,3.65-0.26,5.7-2.74,7.35
		c-1.98,1.32-3.72,2.62-4.72,4.82c-0.26,0.58-0.82,1.05-1.31,1.49c-4.5,4.03-9.71,7.02-14.85,10.14
		c-7.84,4.76-14.93,3.56-22.12-2.62c-0.33,3.46-2.33,6.12-1.11,9.31c0.57,1.49-0.77,2.09-1.37,2.87c-1.81,2.39-2.14,4.99-2.04,7.86
		c0.11,2.98,0.78,5.91,1.39,8.73c1.05,4.91,5.64,6.62,9.76,8.67c12.51,6.25,25.16,12.21,36.43,20.77c3.86,2.93,8.22,5.39,12.78,7.56
		c16.04,7.62,28.64,19.01,32.19,37.22c1.41,7.23,2.08,14.79,0.87,22.57c-1.07,6.93-1.84,13.91-3.24,20.83
		c-0.6,2.95,0.62,6.18,1.09,9.23c1.22,7.87,2.17,16.02,5.03,23.35c3.01,7.74,2.77,15.81,4.39,23.63c1.07,5.17,1.75,10.73,1.39,16.24
		c-0.58,8.75,0.7,17.55-0.93,26.32c-0.59,3.15,0.04,6.48,0.73,9.79c1.45,6.86,1.98,13.91,3.18,20.84c2,11.49,2.92,23.12,3.77,34.71
		c0.55,7.52,0.43,15.15-0.59,22.81c-1.2,9.1-2.84,18.02-5.06,26.91c-2.29,9.19-5.91,17.93-8.57,26.99
		c-1.1,3.75-2.59,7.39-3.43,11.19c-0.46,2.07-0.92,4.16-0.37,6.58c0.8,3.47,0.71,7.35-1.83,10.4c-2.47,2.97-2.13,6.41-0.75,9.2
		c4.66,9.46,5.32,19.91,7.44,29.91c1.48,7.02,0.43,14.61,0.16,21.93c-0.06,1.56,0.04,2.75,0.79,4.06
		c4.91,8.63,5.72,17.38,1.19,26.52c-3.85,7.77-8.65,14.99-12.79,22.58c-5.8,10.66-9.14,22.21-11.99,33.95
		c-2.37,9.79-5.17,19.48-8.62,28.96c-0.06,0.16-0.17,0.31-0.18,0.46c-0.55,9.16-5.85,16.77-8.33,25.31c-2.47,8.5-6.43,16.49-11,24
		c-4.83,7.94-5.77,16.8-7.92,25.43c-0.91,3.67-1.09,7.43-1.78,11.12c-1.04,5.62,0.7,11.08,3.12,16.17
		c4.44,9.3,10.21,17.84,15.48,26.67c10.62,17.78,22.69,34.73,31.5,53.55c2.41,5.14,4.68,10.39,5.37,16.33
		c0.35,2.99,3.61,5.62,5.48,8.46c5.57,8.48,10.84,17.15,13.16,27.16c1.2,5.19,2.61,10.46,0.71,15.92c-1.28,3.68-2.81,4.55-6.6,5.37
		c-8.3,1.8-16.28-0.33-24.42-0.93c-9.61-0.71-19.32-0.15-28.98-0.19c-1.07,0-1.86,0.68-2.78,0.87c-3.4,0.72-6.15-1.47-6.2-4.96
		c-0.07-5.16-0.12-10.33,0.02-15.5c0.09-3.5-1.04-6.82-1.31-10.27c-0.16-2-1.94-4.19-4.35-5.5c-7.43-4.04-13.21-9.91-15.44-18.18
		c-4.89-18.1-15.03-33.52-24.33-49.4c-4.29-7.32-8.68-14.6-12.51-22.16c-2.9-5.72-6.76-10.52-11.45-14.71
		c-4.99-4.45-6.4-10.5-7.55-16.59c-0.63-3.33,1.05-6.05,2.66-9.11c5.81-11.09,15.05-20.24,18.45-32.7c0.44-1.62,0.75-3.15,0.82-4.79
		c0.19-4.61-0.58-9.26,0.94-13.8c0.72-2.16-0.26-4.36-1.1-6.21c-2.24-4.92-3.12-10.02-2.78-15.32c0.14-2.11-0.55-3.99-1.22-5.73
		c-3.26-8.45-4.73-17.22-6-26.16c-1.61-11.29-1.38-22.63-0.55-33.79c0.93-12.48,4.48-24.67,10.47-35.46
		c-16.07-17.84-25.91-39.06-35.41-60.58c-4.24,3.13-4.63,7.71-5.26,11.91c-2.42,16.15-5.69,32.08-11.12,47.51
		c-1.51,4.31-3.29,8.52-6.64,11.91c-2.05,2.07-2.35,4.92-2.34,7.77c0.03,8.67,0.04,17.33,0,26c-0.06,12.54-2.69,24.6-5.69,36.75
		c-2.89,11.71-9.66,21.63-13.22,32.92c-1.52,4.82-2.67,9.67-3.23,14.77c-0.78,7.12-0.82,14.2-0.83,21.32c0,1.45-0.29,2.92,0.56,4.36
		c5.3,8.91,4.31,17.93-0.07,26.74c-3.71,7.47-5.34,15.78-9.48,23.03c-3.69,6.45-3.59,13.77-4.92,20.73
		c-2.3,12.01-5.44,23.83-7.51,35.89c-0.66,3.85-0.53,7.59-0.53,11.36c0.01,6.99-2.64,12.98-8.67,15.87
		c-7.44,3.57-7.63,9.82-8.4,16.27c-0.93,7.79-0.62,15.72-2.96,23.35c-1.18,3.87-3.53,5.68-7.5,6.75
		c-6.17,1.66-12.46,1.09-18.57,2.04c-11.53,1.79-23.08,1.39-34.62,1.94c-8.35,0.4-9.93-5.13-9.15-10.93
		c0.84-6.25,2.33-12.45,4.73-18.4c2.31-5.73,4.18-11.64,6.4-17.41c0.57-1.5,1.26-3.06,2.94-4.1c-3.72-5.42-2.78-10.44,1.03-15.05
		c2.72-3.29,3.36-7.38,4.56-11.19c4.27-13.55,10.33-26.36,15.86-39.39c4.77-11.25,9.5-22.51,14.24-33.77
		c4.3-10.2,8.19-20.56,11.72-31.06c1.35-4.02,1.15-8.39,3.19-12.27c0.6-1.15,0.39-2.95-0.23-4.39
		c-4.83-11.26-7.97-23.06-10.92-34.89c-2.21-8.9-4.14-17.88-3.77-27.2c0.26-6.66,0.03-13.33,0.06-20
		c0.02-6.28,0.55-12.55,0.79-18.81c0.37-9.98-1.37-19.84-4.34-29.5c-2.83-9.2-4.36-18.7-5.57-28.28
		c-1.44-11.35-2.03-22.69-1.89-34.11C80.43,630.57,81.7,613.53,87.83,600.02z M119.68,475.87c1.08-0.72,2.13-1.45,2.53-2.83
		c1.42-4.89,4.74-8.82,6.79-13.38c3.03-6.74,5.07-13.91,5.02-21.21c-0.03-5.64-1-11.44-2.12-16.99c-0.63-3.1,0.19-5.94-0.41-8.92
		c-1.83-9.16-9.34-14.62-13.61-23.23c-0.8,3.62-2.16,5.66-3.16,7.86c-2.09,4.61-5.79,8.5-7.29,13.21
		c-3.19,10.03-5.52,20.34-8.07,30.57c-0.43,1.71-0.46,3.55,1.14,5.07c1.29,1.22,2.26,2.78,3.32,4.23c4.5,6.18,9.24,12.2,12.53,19.2
		C117.37,471.6,117.39,474.32,119.68,475.87z"/>
	<path class="st0" d="M175.88,188.83c-2.28-1.07-2.1-3.15-2.44-4.51c-1.84-7.28-6.22-12.37-12.62-15.9c-2.1-1.16-2.94-3.39-4.65-4.9
		c-3.04-2.68-6.03-4.95-10.46-4.4c-2.71,0.34-5.32-0.08-5.85-3.66c-0.08-0.54-0.8-1.04-1.32-1.45c-8.72-6.93-11.9-16.38-12.29-27.09
		c-0.09-2.5-0.35-5.05,0.07-7.48c0.58-3.4-0.31-7.49,4.84-8.95c2.92-0.82,2.92-4.87,0.39-7.46c-3.01-3.09-5.45-6.43-6.75-10.65
		c-0.98-3.18-0.89-5.77,2.23-7.59c2.47-1.45,2.16-3.82,2.23-6.15c0.16-5.26,1.36-10.2,4.8-15.12c2.59,2.58,4.84,4.74,6.99,7
		c1.95,2.05,3.91,3.7,6.97,4.17c2.41,0.37,4.58,1.07,6.28-1.15c1.57-2.05,1.32-4.35,0.27-6.53c-1.63-3.39-3.15-6.81-4.49-10.32
		c-3.17-8.29-3.52-16.39,0.57-24.51c0.89-1.76,2.01-3,3.76-3.59c6.47-2.21,12.6-5.33,19.29-6.91c1.43,5.5,3.3,6.61,8.65,4.94
		c2.33-0.73,4.58-1.74,6.94-2.32c1.95-0.49,3.72-1.5,6.11-0.33c1.88,0.92,4.36,0.5,6.26-1.62c4.47-5,10.73-6.6,16.94-8.15
		c7.52-1.87,15.18-0.78,22.78-0.95c3-0.07,5.86-0.44,8.68-1.44c9.72-3.47,19.72-5.72,30-6.6c2.19-0.19,4.24-1.96,6.96-0.43
		c-2.07,1.96-3.58,4.23-6.2,5.55c-2.09,1.05-3.09,3.02-2.54,5.42c0.55,2.41,2.23,3.16,4.67,3.53c6.42,0.98,12.67,2.73,19.28,5.23
		c-5.95,3.1-11.71,5.12-17.64,6.57c-1.27,0.31-2.5,0.75-3.72,1.14c-2.88,0.93-4.9,2.7-4.62,6.08c0.21,2.49,2.74,4.82,5.98,4.82
		c7.88,0,15.06,2.88,22.28,5.31c6.52,2.19,11.64,7.01,18.2,11.27c-2.29,0.63-3.66,0.59-5,0.31c-9.85-2.06-19.79-3.12-29.87-2.86
		c-3,0.08-4.36,1.98-5.61,4.14c-1.64,2.84-3.13,5.78-5.64,7.99c-1.8,1.58-1.78,3.61-1,5.46c0.85,2.02,2.73,2.57,4.96,2.5
		c1.95-0.06,3.43-0.98,5.03-1.79c11.21-5.72,14.91-4.15,24.55,3.29c9.8,7.57,19.06,15.84,29.51,23.05
		c-10.44,1.66-19.63-0.34-27.95-6.57c-5.62-4.21-11.82-7.49-18.57-9.59c-8.28-2.57-16.44-2.42-24.23,1.75
		c-1.9,1.02-3.23,2.77-4.31,4.76c-4.9-1.59-9.07-4.51-13.1-7.46c-2.47-1.81-4.84-3.16-7.86-3.54c-2.46-0.31-3.62-1.66-3.42-4.36
		c0.33-4.66-1.95-9.29,0.44-14.03c-2.88-0.81-4.97-1.26-5.94,1.71c-1.81-17.59-9.34-32.72-18.61-47.42
		c-5.57,1.95-8.4,6.07-10.89,10.52c-4.21,7.54-8.77,14.94-11.18,23.34c-1.86,6.47-3.63,13.06-2.7,19.85
		c1.14,8.32-1.46,15.7-5.2,22.74c-2.66,5-6.14,9.56-8.35,14.6c-4.12,0.19-6.31-3.86-10.13-3.78c-0.87,2.28,0.26,4.04,1.47,5.06
		c2.71,2.3,3.68,4.99,3.14,8.34c-0.23,1.41,0.79,2.46,0.91,4.07c-4.2,0.97-7.32-3.71-11.79-2.18c0.59,2.67,1.62,4.91,4.45,5.76
		c4.02,1.21,6.72,3.9,8.38,7.64c2.51,0.06,5.34-2.44,6.79,0.81c1.23,2.76,2.49,5.79-0.74,8.46c-1.95,1.62-1.36,4.05-0.47,5.88
		c5.26,10.84,0.87,21.13-1.74,31.47c-0.41,1.62-0.69,3.17-0.77,4.79C177.15,186.55,177.18,186.55,175.88,188.83z"/>
	<path class="st0" d="M39.68,645.78c5.86-4.8,12.13-9.8,13.14-17.62c0.49-3.79,1.92-8.51-0.77-13.3c-1.39,3-0.54,5.43-0.99,7.71
		c-1.35,6.9-5.77,11.88-10.92,15.89c-5.77,4.49-11.54,9-17.83,13.57c1.14-5.12,3.88-9.04,7.05-12.35
		c5.15-5.37,8.63-12.03,13.97-17.2c0.96-0.93,1.18-1.94,0.43-3.16c-7.92,2.19-8.27,11.17-13.85,15.42c-1.27-0.36-0.08-1.92-1.5-2.31
		c-5.71,6-10.39,12.88-12.14,22.13c-2.6-4.68-1.83-8.77-1.92-12.82c-0.16-7.46,5.16-12.19,8.67-17.72c2.84-4.47,6.53-8.5,9.67-12.71
		c3.8-5.09,8.14-10.6,8.57-17.68c0.56-9.2-0.19-18.13-5.3-26.12c-3.96-6.19-8.26-12.15-12.63-18.07
		c-4.93-6.68-6.96-14.68-7.09-23.06c-0.03-1.77,0.89-3.13,1.78-4.49c0.45-0.68,1.43-1.24,1.15-2.09c-2.12-6.3,3.4-8.68,6.6-11.6
		c4.16-3.8,9.31-6.53,14.16-9.58c11.23-7.06,23.54-10.84,36.2-13.99c5.61-1.4,11.53-0.51,16.99-2.53c3.05-1.13,6.18-1.2,9.28-0.92
		c5.02,0.46,9.8-1.3,14.81-1.15c3.97,0.12,7.75,1.41,11.8,1.14c6.73-0.45,13.31-2.21,20.1-2.07c3.85,0.08,7.52,1.54,11.62,0.21
		c3.72-1.2,5.17,3.03,6.07,5.35c2.22,5.77,5.28,10.83,9.42,15.2c-0.54,2.05-1.95,2.59-3.5,2.21c-10.57-2.61-21.45-3.07-32.18-3.66
		c-11.53-0.63-23.18-1.15-34.8,0.5c-3.86,0.55-7.99,1.26-12.04,0.28c-1.97-0.48-3.83,0.74-5.74,1.09
		c-7.25,1.33-14.48,2.91-21.63,4.59c-6.69,1.57-12.87,5.25-19.33,7.88c-1.6,0.65-2.43,1.96-2.6,3.26c-0.38,2.88-2.91,3.4-4.59,3.67
		c-7.51,1.2-11.19,6.92-9.14,14.45c1.71,6.24,5.38,11.48,8.26,17.11c6.35,12.41,12.15,24.94,14.03,38.98
		c0.71,5.29,2.61,10.41,3.58,15.68c0.75,4.04,1.92,7.85,3.63,11.59c3.02,6.59,0.53,12.32-3.97,16.97
		C51.59,639.22,46.1,643.1,39.68,645.78z"/>
	<path class="st0" d="M28.25,692.75c2.53-0.81,1.87-3.19,3.83-4.02c5.02,5.38,12.94,6.79,19.07,11.33
		c6.96,5.16,10.88,11.67,10.11,20.6c-0.48,5.55-5.36,10.69-11.59,12.07c0.16-1.07,1.1-1.54,1.71-2.26
		c10.9-12.93,0.64-25.65-10.57-29.33c-4.18-1.37-8.58-1.53-12.74-0.87c-4.94,0.78-8.68-1.16-12-3.97
		c-8.66-7.34-12.25-16.51-10.05-28.02c0.89-4.66,1.59-9.28,3.5-13.77c4.01,5.15,7.95,10.12,12.31,14.79
		c4.41,4.72,6.1,10.68,6.4,17.04C28.33,688.31,28.25,690.31,28.25,692.75z"/>
	<path class="st0" d="M58.2,699.81c-6.74-8.16-16.92-8.15-23.66-14.26c5.87,2.15,12.4,1.56,17.94,5.06
		C55.62,692.59,57.59,694.88,58.2,699.81z"/>
	<path class="st0" d="M35.18,648.04c1.18,0.94-0.26,1.67,0.41,2.6c2.58,1.81,4.56-1.17,7.24-1.06c-5.27,3.42-10.05,7.29-13,13
		C27.35,658.01,26.22,655.54,35.18,648.04z"/>
	<path class="st0" d="M36.56,582.54c-2.77-5.92-5.53-11.84-8.3-17.76C32.96,569.75,36.08,575.46,36.56,582.54z"/>
</g>
</svg>
