<?xml version="1.0" encoding="utf-8"?>
<!-- Generator: Adobe Illustrator 24.0.2, SVG Export Plug-In . SVG Version: 6.00 Build 0)  -->
<svg version="1.1" id="Layer_1" xmlns="http://www.w3.org/2000/svg" xmlns:xlink="http://www.w3.org/1999/xlink" x="0px" y="0px"
	 viewBox="0 0 758.37 859.06" style="enable-background:new 0 0 758.37 859.06;" xml:space="preserve">
<g>
	<path d="M285.09,817.96c0.39-6.72,1.69-13.19,2.75-19.7c0.37-2.3-2.08-4.65-5.38-5.15c-3.58-0.54-7.19-0.74-10.83-0.5
		c-12.61,0.84-25.26,1.08-37.84,0.31c-9.38-0.58-18.33-3.79-26.44-8.77c-2.25-1.38-4.22-2.56-6.69-0.42
		c-0.96,0.83-2.41,0.44-3.65,0.47c-2.25,0.05-4.5,0.02-6.75,0.11c-3.59,0.15-3.84,0.45-3.73,3.96c0.1,3.32-0.84,4.51-4.24,4.78
		c-7.53,0.59-14.95-0.37-22.3-1.94c-0.83-0.18-1.62-0.65-2.38-1.07c-2.13-1.17-3.24-2.67-1.8-5.17c1.04-1.81,0.45-3.25-1.6-3.68
		c-5.83-1.23-11.8-1.67-17.45-3.26c-2.36,4.99-2.58,5.17-7.75,4.66c-4.94-0.49-9.52-1.92-13.34-5.31c-3.88-3.45-3.95-3.78-1-7.87
		c0.08-0.67-0.15-1.28-0.64-1.69c-3.36-2.79-6.69-5.62-10.16-8.29c-1.6-1.23-3.4-1.89-4.46,0.83c-0.66,1.69-2.18,1.71-3.48,1.24
		c-5.8-2.11-9.92-6.2-12.54-11.67c-1.01-2.1-0.2-4.16,1.93-5.48c0.83-0.51,1.93-0.62,2.75-1.99c-2.32-4.31-4.75-8.83-7.16-13.3
		c-0.84,0.26-1.26,0.28-1.53,0.49c-3.22,2.37-4.78,2.16-6.72-1.22c-3.11-5.4-3.12-11.27-1.93-17.11c0.72-3.53,2.87-4.38,6.87-3.45
		c1.47-0.69,1.54-2.13,1.75-3.47c0.79-5.21,2.29-10.23,4.18-15.13c1.64-4.27,4.09-8.02,7.64-10.94c2.46-2.03,5.12-3.82,8.52-2.16
		c3.2,1.56,4.13,4.52,4.33,7.76c0.12,1.99-0.01,3.97-0.34,5.97c-1.11,6.73-1.41,13.42,1.8,19.78c0.22,0.43,0.26,1.03,0.58,1.33
		c6.96,6.35,14.26,12.26,23.86,13.98c5.68,1.02,11.46,0.42,17.19-0.12c5.75-0.54,10.8-3.44,16.31-4.8c1.84-0.45,1.6-1.85,1.64-3.26
		c0.25-9.05-0.76-18.08-0.19-27.14c0.77-12.36,3.68-24.15,8.7-35.44c0.76-1.71,1.68-3.35,3.11-4.64c1.96-1.77,1.95-4.49,3.19-6.66
		c4.27-7.51,9.21-14.51,14.93-20.99c5.87-6.66,12.17-12.9,18.89-18.67c8.65-7.43,18.09-13.73,28.4-18.67
		c2.14-1.02,4.27-2.08,6.37-3.19c3.7-1.94,4.14-4.82,1.06-7.74c-3.55-3.37-7.57-6.11-11.98-8.25c-1.93-0.94-3.91-1.81-4.94-3.83
		c-0.83-1.64-2.65-1.08-3.86-1.97c-7.18-5.32-13.86-11.27-18.91-18.57c-3.2-4.62-6.79-9.03-9.39-14.14
		c-2.54-5.01-4.95-10.09-7.33-15.17c-2.22-4.73-3.7-9.81-5.5-14.73c-0.69-1.89-0.5-3.91-0.68-6.16c-7.17-0.59-13.48-3.62-19.97-6.13
		c-4.37-1.68-8.84-1.27-13.24-0.09c-4.03,1.08-8.11,1.4-12.25,1.15c-3.73-0.23-7.16-1.76-10.8-2.44c-2.15-0.41-2.2-1.03-2.08-4.34
		c-2.48-1.8-5.29-3.29-6.47-6.59c-9.05,1.03-18.08,2.09-25.33-4.48c-0.9-1.8,1.47-2.18,0.84-3.86c-3.85,0.87-6.93-0.53-9.62-3.34
		c1.49-1.81,3.34-1.08,4.81-1.63c3.87-1.43,8.03-1.7,11.96-3.04c3.85-1.31,7.63,0.13,11.2,1.78c1.3,0.6,0.77,1.91,0.87,2.77
		c1.32,0.67,2.49,0.61,3.56,0.37c6.16-1.37,12.19-0.15,18.2,0.89c11.89,2.06,21.74-2.25,30.79-9.42c3.02-2.4,6.23-4.57,9.37-6.81
		c2.25-1.61,4.14-3.55,6.14-5.88c-2.31-1.16-2.61-2.93-2.34-5.06c0.36-2.84,0.06-5.74,0.28-8.58c0.54-7.06,1.88-14,3.48-20.93
		c2.35-10.13,5.61-19.93,9.64-29.45c3.06-7.24,7.1-14.01,12.31-20.02c3.44-3.96,6.77-8,10.37-11.83c3.85-4.1,8.4-7.32,13.46-9.33
		c7.09-2.81,12.06-1.14,15.9,5.41c1.65,2.81,3.95,3.8,6.99,2.76c1.6-0.55,1.86-1.87,2.12-3.23c1.56-7.98,4.03-15.72,6.22-23.53
		c2.99-10.7,6.14-21.35,9.18-32.03c1.4-4.93,2.23-9.99,2.95-15.06c0.31-2.22,0.43-4.51,2.7-5.8c-3.59-3.23-4.92-9.62-2.82-13.67
		c0.88-1.69,0.61-3.14-0.16-4.62c-3.13-6.04-5.08-12.49-6.49-19.1c-0.73-3.42-1.16-6.92,1.01-10.23c-1.5-2.55-4.55-2.83-6.7-4.44
		c-6.02-4.51-11.68-9.33-15.19-16.2c-4.49-8.78-6.44-18.12-5.6-27.9c0.75-8.72,3.46-16.68,9.51-23.46
		c3.67-4.11,14.76-6.14,19.95-3.2c2.93,1.66,6,3.07,8.92,4.75c4.34,2.49,8.93,3.81,13.95,3.58c2.25-0.1,4.48-0.07,6.21,1.18
		c0.97-0.13,1.43-0.57,1.76-1.1c4.1-6.36,9.51-11.55,14.88-16.78c7.64-7.45,13.27-16.19,16.71-26.32c0.3-0.89,0.39-2.02,1.94-2.27
		c1.27,2.91,0.02,6.09,0.78,9.17c2.42,1.59,4.34,1.11,6.45-1.01c10.05-10.04,22.55-15.43,36.17-18.53c1.81-0.41,3.71-0.43,5.57-0.07
		c0.56,1.35-0.52,1.83-1.26,2.36c-1.32,0.94-2.76,1.72-4.09,2.65c-3.44,2.41-3.42,2.47-2.02,6.36c0.46,1.28,0.71,2.63,1.05,3.96
		c1.88,0.62,3.76,0.27,5.61,0.21c11.4-0.41,22.67,0.55,33.92,2.56c6.53,1.16,13.01,2.34,19.26,4.59c2.09,0.75,3.42,0.32,4.41-1.96
		c1.68-3.88,5.16-6.35,8.12-9.19c0.89-0.85,1.76-1.34,1.44-3.03c-0.38-2.02,2.23-4.72,4.86-5.41c5.87-1.53,11.42-0.74,16.3,3.01
		c9.02,6.93,13.22,16.33,13.81,27.52c0.36,6.66-0.81,13.19-1.7,19.74c-0.32,2.4-1.65,4.09-3.64,4.99c-0.37,1.22,0.11,1.98,0.58,2.71
		c1.92,2.95,3.32,6.14,4.62,9.4c1.5,3.75,2.16,3.91,5.35,1.69c4.31-3.01,8.44-6.28,12.19-9.92c15.13-14.72,31.37-28.26,46.09-43.41
		c7.83-8.06,15.7-16.1,23.24-24.43c5.59-6.18,7.6-13.65,5.99-21.95c-0.43-2.2-0.77-4.44-1.37-6.6c-1.1-3.97-3.39-6.84-7.59-8.02
		c-2.13-0.6-4.28-1.43-5.64-4.27c7.41-0.63,8.99-7.16,12.44-12.14c-0.74-2.93-3.7-5.37-3.41-9.3c2.08-0.05,3.37,1.8,4.76,1.82
		c4.13-1.31,6.22-5.01,9.97-6.28c1.64-0.56,1.35-2.32,1.35-3.59c0.01-2.99-0.3-5.98-0.38-8.97c-0.04-1.46-0.25-3.02,1.08-4.64
		c3.95,2.25,4.02,6.79,5.9,10.19c4.24-0.89,8.37-1.75,12.72-2.66c0.92-2.09,0.34-4.5,0.59-6.82c0.2-1.79,0.33-3.64,2.65-3.91
		c2.18-0.25,3.28,1.26,3.74,2.99c1.21,4.58,2.3,9.2,3.26,13.83c1.29,6.23,2.46,12.49,3.6,18.75c0.32,1.79,0.83,3.13,2.97,3.11
		c1.52-0.01,2.03,1.28,2.75,2.27c2.88,3.98,6.11,7.59,10.56,9.91c0.54,0.28,1.34,0.63,1.46,1.09c0.9,3.62,3.19,2.67,5.53,1.85
		c2.15-0.76,4.37-1.11,6.64-0.67c1.4,0.27,2.67,0.98,3.2,2.34c0.63,1.62-0.71,2.53-1.73,3.4c-7.12,6.03-14.02,12.15-22.49,16.58
		c-10.26,5.36-17.62,14.15-22.89,24.54c-7.46,14.71-15.84,28.89-24.75,42.76c-5.21,8.1-9.45,16.75-14.34,25.03
		c-7.68,13-15.57,25.89-23.07,38.99c-6.15,10.73-12.18,21.53-18.88,31.92c-8.19,12.7-15.28,26.06-23.31,38.85
		c-2.32,3.7-4.67,7.39-7.01,11.08c-0.46,0.73-1.04,1.41-1.01,2.72c4.35,0.9,7.22-2.79,10.97-3.62c0.52,1.34-0.34,2.04-0.98,2.69
		c-0.95,0.98-2,1.89-3.09,2.7c-4.46,3.33-4.45,4.61-0.15,8.06c5.22,4.19,9.6,9.08,12.44,15.25c2.18,4.73,3.22,9.79,3.7,14.83
		c0.79,8.21,0.72,16.49-1.53,24.55c-0.91,3.26-2.05,6.52-4.15,9.17c-1.94,2.43-1.43,4.09,0.48,6.14c3.82,4.07,6.91,8.69,7.49,14.38
		c0.75,7.39,0.52,14.74-2.46,21.74c-1.64,3.86-2.92,7.29-1.5,12.01c1.85,6.13,1.06,12.89,1.01,19.39c-0.01,1.35-0.33,2.75,0.42,3.97
		c4.91,1.7,9.58,3.34,14.88,1.08c4.71-2.01,8.54-4.9,11.84-9.35c0.74,9.56-8.59,22.35-17.62,24.98c-0.6,1-0.22,1.96,0.23,2.84
		c2.31,4.49,3.6,9.3,4.65,14.2c0.46,2.15,1.16,3.78,3.29,5.33c2.83,2.05,4.87,5.31,6.98,8.24c10.71,14.86,13.31,31.14,8.28,48.71
		c-0.71,2.47-1.69,4.94-1.1,8.08c3.24-2.35,4.95-0.06,6.86,1.83c3.35,3.31,7.79,4.4,12.1,5.63c2.75,0.78,5.59,1.41,8.43,1.69
		c9.07,0.89,18.03,2.63,26.97,4.24c13.6,2.46,27.01,5.76,39.92,11.04c11.46,4.69,22.53,10.17,33.51,15.79
		c4.22,2.16,8.77,3.92,12.66,6.63c5.26,3.66,7.14,3.19,10.37-2.77c6.52-12.03,5.96-23.85-0.29-35.73
		c-2.54-4.83-5.64-9.16-10.32-12.12c-5.3-3.35-11.37-4.08-17.4-4.95c-5.78-0.83-11.68-0.66-17.33-2.7
		c-6.65-2.4-7.85-6.16-3.24-11.63c3.55-4.21,8.13-6.98,13.05-9.24c13.89-6.38,27.94-6.31,42.3-1.43c5.01,1.71,9.79,3.68,14.3,6.39
		c0.74,0.44,1.5,0.92,2.45,0.67c0.19-0.16,0.5-0.28,0.54-0.46c0.81-4.2,3.69-5.45,7.91-3.25c3.63,1.89,6.34,4.83,8.59,8.2
		c1.54,2.3,2.77,4.75,3.44,7.45c0.59,2.37,1.28,4.67-2.14,5.69c-1.63,0.49-1.65,2.07-0.99,3.47c2.08,4.42,3.56,9.06,5.19,13.65
		c0.62,1.72,1.67,2.72,3.62,2.58c3.48-0.26,5.03,2.16,5.78,4.86c1.89,6.84,1.84,13.84,0.81,20.8c-0.31,2.07-0.97,4.18-3.13,5.17
		c-1.52,0.14-1.42-1.71-2.58-1.94c-1.06,0.02-5.58,22.05-5.13,24.98c3.93,0.12,5.25,1.28,5.17,5.38
		c-0.17,9.15-4.42,16.36-11.73,21.5c-2.25,1.58-2.44,2.73-1.63,4.8c1.74,4.43,3.09,8.98,3.86,13.68c0.66,4.02,1.46,8.02,0.8,12.17
		c-0.24,1.54,0.37,3.2,0.38,4.81c0.11,12.01-2.65,23.16-9.2,33.42c-2.04,3.2-4.4,6.02-6.8,8.88c-0.62,0.74-1.53,1.48-0.92,2.61
		c0.54,1,1.58,1.15,2.61,1.14c4.88-0.04,9.66,0.34,14.49,1.35c15.75,3.28,17.04,17.72,10.98,27.53
		c-4.22,6.83-10.58,11.56-17.44,15.6c-5.82,3.42-12.04,5.92-18.48,7.94c-1.67,0.52-4.18-0.81-4.93,1.56
		c-0.5,1.59-0.13,3.46-0.13,5.2c0.02,10.41-5.09,18.56-11.49,26.15c-7.99,9.49-18.63,14.91-29.8,19.52
		c-10.65,4.39-21.92,5.73-33.25,6.79c-1.23,0.11-2.53-0.08-3.53,0.92c0.21,4.12-0.33,5.22-4.31,6.93
		c-8.72,3.76-16.88,1.88-24.58-2.94c-5.1-3.2-9.36-7.11-9.39-13.64c-1.89-0.21-1.91,1.6-3.72,1.83c-2.06-0.36-4.13-2.6-6.6-2.82
		c-1.47,0.68-0.67,2.1-1.7,2.86c-3.05,0.44-5.72-1.01-8.15-2.73c-2.86-2.02-5.34-4.51-7.31-7.46c-0.91-1.37-1.89-2.54-0.5-4.33
		c1.15-1.49-0.48-2.52-1.29-3.49c-2.9-3.45-5.89-6.81-7.81-10.95c-0.31-0.68-0.68-1.34-0.96-2.03c-1.74-4.23-2.31-4.69-6.34-2.96
		c-13.16,5.65-27.07,7.49-41.17,8.79c-7.71,0.71-15.38,1.66-23.13,1.31c-5.98-0.27-11.98-0.45-17.32-3.83
		c-1.89-1.2-3.34-0.04-4.27,1.68c-1.43,2.64-2.78,5.31-4.15,7.98c-1.55,3.01-3.55,5.73-5.45,8.51c-1.38,2.02-1.98,4.06,0.06,6.08
		c1.42,1.41,1.01,2.9,0.2,4.45c-1.99,3.76-5.11,6.44-8.49,8.84c-3.99,2.83-8.11,5.37-13.05,6.25c-4.23,0.76-5.53,0.01-6.63-4.08
		c-2.6-0.3-21.43,6.29-24.63,8.63c2.26,3.21,1.72,6.16-1.59,8.61c-2.05,1.52-4.47,2.3-6.85,2.96c-7.25,2.01-14.58,3.62-22.09,1.12
		c-0.71-0.24-1.47-0.35-2.14-0.67c-2.44-1.17-2.72-2.6-0.91-4.59c0.42-0.46,1-0.75,1-1.59c-0.65-1.43-2.05-0.99-3.21-1.01
		c-3.87-0.07-7.75-0.04-11.62-0.07c-2.24-0.02-4.49,0.01-6.09-1.71c-1.39,0.64-1.74,1.74-2.13,2.79c-1.24,3.36-3.86,4.73-7.21,5.05
		c-8.04,0.76-16.11-4.26-19.95-12.39c-0.63-1.33-0.9-2.88-2.5-3.92c-1.35,2.1-3.05,1.95-4.85,0.54c-1.02-0.8-1.99-1.16-3.42-0.6
		c-1.64,0.65-3.45-0.03-5.18-0.21c-1.76-0.18-3.46-0.36-4.95,0.66c-0.64,1.43,0.34,2.49,0.57,3.68c0.37,1.99,0.63,4.02-1.11,5.58
		c-1.74,1.56-3.69,1.77-5.93,1.04c-8.09-2.66-12.58-8.66-15.32-16.29c-1.01-2.83-1.86-5.71-1.48-8.79
		C278.71,820.3,279.77,819.11,285.09,817.96z"/>
</g>
</svg>
