<?xml version="1.0" encoding="utf-8"?>
<!-- Generator: Adobe Illustrator 24.1.1, SVG Export Plug-In . SVG Version: 6.00 Build 0)  -->
<svg version="1.1" id="Layer_1" xmlns="http://www.w3.org/2000/svg" xmlns:xlink="http://www.w3.org/1999/xlink" x="0px" y="0px"
	 width="205.55" height="263.06" viewBox="0 0 205.55 263.06" style="enable-background:new 0 0 205.55 263.06;" xml:space="preserve">
<style type="text/css">
	.st0{fill:#1A1A1A;}
</style>
<g>
	<path d="M182.07,158.3c1.81,1.25,3.85,1.68,5.92,2.12c1.48,0.32,2.91,0,4.34-0.08c1.73-0.1,3.31,0.72,5.02,0.54
		c0.27-0.03,0.41,0.19,0.56,0.37c1.44,1.82,2.59,3.83,3.79,5.8c0.69,1.13,0.79,2.57,0.41,3.91c-0.26,0.93-1.14,1.15-1.91,1.39
		c-0.35,0.11-0.76,0.08-0.81,0.53c-0.14,1.29-1.15,1.87-2.11,2.29c-1.18,0.52-2.42,1.17-3.84,0.59c-0.38-0.15-0.87-0.02-1.31-0.03
		c-2.92-0.07-5.83-0.15-8.68-0.93c-0.4-0.11-0.7-0.26-1.02-0.51c-2.26-1.75-4.37-3.73-7.03-4.9c-0.45-0.2-0.86-0.59-1.42-0.18
		c-0.16,0.12-0.46,0.07-0.69-0.03c-1.52-0.61-3.13-1.07-4.3-2.34c-0.13-0.14-0.27-0.31-0.57-0.07c5.99,9.29,10.81,19.12,13.48,29.99
		c-1.18,0.24-2.11-0.27-3.04-0.61c-3.63-1.32-7.23-2.75-10.86-4.07c-3.15-1.15-6.34-2.22-9.51-3.33c-0.11-0.04-0.23-0.07-0.41,0.17
		c-0.02,0.04,0.05,0.17,0.17,0.28c3.11,2.87,5.62,6.29,8.69,9.19c2.61,2.47,5.34,4.79,8.32,6.82c1.13,0.77,1.51,0.97,0.79,2.57
		c-0.3,0.68-0.23,1.46-0.61,2.14c2.14,1.82,4.63,2.85,7.33,3.48c1.98,0.46,3.93,0.49,5.98,0.32c1.97-0.17,3.91-0.55,5.9-0.59
		c0.91-0.02,1.54,0.63,2.42,0.69c0.42,0.03,0.5,0.91,0.65,1.48c0.84,0.17,1.65,0.37,2.48,0.5c0.88,0.14,1.44,0.63,1.76,1.43
		c0.09,0.22,0.19,0.44,0.26,0.67c0.58,1.95,1.15,3.84,2.27,5.65c1.31,2.11,1.31,4.68,0.55,7.09c-0.41,1.3-1.76,1.76-2.84,2.41
		c-0.27,0.16-0.6,0.21-0.86,0.29c-0.27,0.31-0.24,0.65-0.2,0.95c0.11,0.93-0.3,1.52-1.12,1.87c-1.19,0.51-2.35,0.79-3.72,0.58
		c-2.3-0.35-4.51-0.97-6.76-1.48c-1.79-0.41-3.33-1.29-4.91-2.17c-3.16-1.78-5.73-4.39-8.84-6.23c-2.93-1.74-5.5-4.03-8.58-5.69
		c-2.99,1.31-6.24,1.74-9.59,1.58c-1.41-0.07-2.81-0.28-4.15-0.76c-0.44-0.16-0.77-0.44-1.02-0.91c-2.18-4.2-4.35-8.41-7-12.36
		c-0.52-0.78-0.93-1.63-1.34-2.48c-1.72-3.54-3.78-6.86-6.11-10.03c-2.41-3.29-4.27-6.93-6.49-10.34c-0.38-0.58-0.77-0.74-1.42-0.82
		c-2.19-0.28-4.4-0.3-6.58-0.67c-0.31-0.05-0.64-0.02-0.96-0.02c-3.4,0-6.8,0.02-10.2-0.01c-2.98-0.02-5.91,0.29-8.86,0.69
		c-2.81,0.38-5.54,0.94-8.21,1.91c-0.94,0.34-1.79,0.79-2.61,1.32c-0.85,0.55-0.7,1.54-0.79,2.36c-0.33,3.02-0.53,6.06-0.81,9.09
		c-0.41,4.41-0.57,8.83-0.34,13.23c0.14,2.79,0.38,5.59,0.65,8.38c0.36,3.68,1.2,7.24,2.2,10.8c0.73,2.6,2.01,4.89,3.04,7.32
		c0.16,0.39,0.54,0.58,0.72,1.12C82.68,237.46,71.57,229.49,63.9,217c-0.3-0.11-0.36-0.07-0.35,0.04c0.26,1.74,0.51,3.48,0.81,5.22
		c0.05,0.27,0.12,0.54,0.12,0.81c0.04,1.31,0.03,2.61,0.2,3.92c0.2,1.6-0.13,3.22-0.39,4.83c-0.15,0.97-0.08,1.96-0.25,2.95
		c-0.44,2.58-0.96,5.14-1.56,7.69c-0.4,1.7-1.15,3.23-1.75,4.84c-0.1,0.27-0.17,0.61-0.55,0.74c0.05-6.17-0.75-12.21-2.66-18.09
		c0,2.35-0.01,4.7,0,7.05c0.02,3.01-0.44,5.97-1.01,8.91c-0.66,3.4-1.96,6.59-3.55,9.65c-0.88,1.7-2.15,3.17-3.29,4.71
		c-0.57,0.77-1.19,1.48-1.89,2.14c-0.31,0.3-0.63,0.53-1.08,0.64c-0.36-0.76,0.1-1.27,0.34-1.79c0.58-1.24,1.11-2.49,1.45-3.83
		c0.19-0.73,0.31-1.52,0.31-2.2c0.02-2.69,0.4-5.4-0.4-8.06c-0.42-1.38-1.05-2.69-1.53-4.03c-1.03-2.91-2.84-5.3-4.48-7.82
		c-0.99-1.52-2.19-2.88-3.36-4.26c-1.15-1.35-2.25-2.74-3.39-4.1c-0.14-0.16-0.25-0.32-0.22-0.53c0.27-1.78-0.78-3.2-1.35-4.74
		c-1.08-2.93-2.39-5.77-2.99-8.86c-0.04-0.2-0.09-0.38-0.43-0.43c0.11,2.19,0.67,4.3,0.95,6.45c-2.33-2.88-3.68-6.05-3.54-9.83
		c0.06-1.66-0.25-3.33-0.26-5.02c-0.01-1.18,0.33-2.25,0.53-3.36c0.31-1.68,0.95-3.31,1.36-4.98c0.22-0.9,0.86-1.55,1.13-2.45
		c0.46-1.52,0.96-3.04,1.58-4.5c0.56-1.34,1.17-2.65,1.51-4.05c0.57-2.38,0.95-4.81,1.04-7.26c0.03-0.82,0.42-1.51,0.75-2.21
		c0.94-2.03,2.05-3.97,3.31-5.83c0.58-0.85,1.1-1.75,1.61-2.68c-2.02,1.08-4.1,2.05-5.07,4.47c-0.37-1.26,0.03-2.19,0.68-3.02
		c2.8-3.65,5.26-7.58,8.6-10.8c0.11-0.11,0.24-0.22,0.08-0.49c-1.69,1.2-3.16,2.63-4.73,3.99c0.54-1.53,1.06-3.08,2.12-4.28
		c1.17-1.32,2.41-2.58,4.03-3.48c1.22-0.67,2.28-1.65,3.47-2.41c1.85-1.17,3.94-1.71,6-2.26c3.67-0.98,7.45-1.43,11.16-2.19
		c3.02-0.62,5.79-1.88,8.46-3.39c1.5-0.85,3.09-1.53,4.51-2.54c1.35-0.95,1.61-1.55,1.26-3.11c-0.18-0.8-0.44-1.6-0.4-2.43
		c0.05-0.8-0.31-1.11-1.13-1.01c-0.14-2.15-1.7-3.47-2.84-5.03c-1.46-2-2.97-3.95-4.46-5.93c-0.36-0.47-0.32-1.06-0.26-1.55
		c0.05-0.49-0.11-0.74-0.4-1.03c-0.73-0.72-1.45-1.46-2.21-2.22c0.76-0.66,1.8,0.05,2.42-0.83c-1.08-1.89-2.07-3.88-3.39-5.7
		c-1.45-2-2.44-4.26-3.35-6.57c-0.75-1.89-1.19-3.87-1.86-5.79c-0.35-0.99-0.29-2.11-0.06-3.2c0.46-2.18,0.8-4.39,1.95-6.36
		c0.62-1.06,1.24-2.09,2.13-2.96c1.3-1.26,2.56-2.58,3.86-3.84c1.45-1.41,2.67-3.02,3.87-4.63c1.15-1.55,2.41-3.01,3.6-4.52
		c0.73-0.93,1.39-1.9,1.89-2.97c0.52-1.13,1.23-2.11,2.12-2.96c2.01-1.92,3.89-3.97,5.65-6.13c0.62-0.77,1.4-1.09,2.4-1.01
		c0.91,0.07,1.84-0.03,2.76,0.03c0.64,0.04,1.06-0.23,1.13-0.79c0.14-1.15,0.88-1.68,1.84-2.05c0.06-0.03,0.1-0.12,0.19-0.23
		c-0.22-0.38-0.59-0.76-0.66-1.18c-0.17-0.97-0.78-0.9-1.42-0.71c-0.7,0.21-1.42,0.43-1.88,1.15c-0.62-0.82-0.55-1.74-0.93-2.51
		c-0.45,0.26-0.35,0.79-0.5,1.33c-0.86-1.39-0.76-2.88-1.11-4.43c-0.23,0.49-0.38,0.8-0.53,1.11c-0.07,0-0.14-0.01-0.21-0.01
		c0-1.34,0-2.68,0-4.13c-1.05-0.41-2.36-0.41-3.6-0.74c-2.76-0.75-5.47-1.63-7.95-3.08c-2.44-1.43-4.55-3.27-6.49-5.3
		c-0.98-1.03-2.13-1.86-3.03-2.98c-1.92-2.39-3.7-4.85-4.99-7.65c-1.13-2.46-2.06-4.97-2.6-7.63c-0.27-1.35-0.22-2.72-0.08-4.07
		c0.1-0.91,0.78-1.21,1.68-0.82c4.23,1.84,8.54,3.49,12.79,5.27c3.38,1.42,6.83,2.68,10.36,3.73c1.46-1.74,3.49-1.05,5.39-1.3
		c-0.13-1.49-0.7-2.82-1.07-4.2c-0.05-0.2-0.3-0.4-0.51-0.48c-0.78-0.33-0.97-1.02-0.79-1.67c0.32-1.22-0.26-2.2-0.67-3.22
		c-0.73-1.81-1.53-3.6-2.29-5.4c-0.71-1.68-0.32-2.71,1.26-3.58c1.75-0.97,3.47-2,5.43-2.49c2.31-0.58,4.63-1.13,6.99-1.49
		c1.94-0.29,3.87-0.67,5.81-0.85c2.22-0.21,4.48-0.16,6.71,0c1.01,0.07,2.05,0.32,3.03,0.84c1.81,0.95,2.62,2.41,2.72,4.34
		c0.04,0.75,0.02,1.43,0.62,2.07c0.48,0.52,0.61,1.33,0.6,2.11c-0.03,2.28,0.03,4.56-0.03,6.84c-0.03,1.08,0.5,2.11,0.08,3.17
		c0.85,0.42,1.56,0.66,2.38,0.1c2.71-1.81,5.77-2.96,8.64-4.46c1.56-0.82,3.15-1.6,4.65-2.54c0.57-0.36,1.29-0.49,1.94-0.73
		c0.86,0.86,0.65,1.93,0.53,2.85c-0.29,2.25-0.71,4.49-1.18,6.71c-0.59,2.85-1.62,5.55-3.12,8.04c-0.86,1.44-1.78,2.86-2.89,4.15
		c0.53,1.05,1.3,1.87,2.08,2.68c1,1.03,2.02,2.05,3.06,3.05c0.69,0.67,1.36,1.35,1.59,2.31c0.11,0.47,0.48,0.55,0.77,0.59
		c0.36,0.06,0.69,0.17,1.02,0.29c0.79,0.28,0.82,0.5,0.14,1.23c1.14,1.44,2.68,2.42,4.07,3.57c2.12,1.77,4.43,3.36,6.02,5.67
		c0.65,0.95,1.07,2.03,0.76,3.29c-0.21,0.84,0.11,1.74-0.18,2.6c-0.72,2.15-2.16,3.87-3.35,5.74c-0.51,0.79-1.25,1.37-1.88,2.05
		c-0.48,0.52-1.18,0.54-1.82,0.7c-2.35,0.6-4.55,1.64-6.83,2.43c-3.08,1.06-5.96,2.57-8.96,3.8c-1.78,0.73-3.25,2.02-4.84,3.09
		c-0.7,0.47-1.23,1.11-1.91,1.59c-0.69,0.49-0.67,1.43,0.05,1.92c0.58,0.4,1.14,0.91,1.79,1.12c0.71,0.23,0.79,0.68,0.79,1.25
		c0.02,2.62-0.25,5.22-0.43,7.83c-0.09,1.22-0.22,2.45-0.32,3.67c-0.18,2.11-0.18,4.21-0.21,6.32c-0.03,2.26,0.58,4.44,0.84,6.67
		c0.16,1.4,0.55,2.77,0.65,4.27c1.3-0.82,2.07-2.09,3.01-3.18c1.13-1.31,2.18-2.69,3.32-4c2.08-2.37,4.34-4.56,6.59-6.77
		c2.14-2.1,4.35-4.13,6.6-6.11c1.14-1.01,2.4-1.9,3.68-2.73c2.31-1.5,4.75-2.06,7.35-0.68c0.59,0.31,1.06,0.71,1.5,1.24
		c1.04,1.24,2.31,2.27,3.7,3.11c1.28,0.77,2.1,1.95,2.51,3.29c0.5,1.64,0.81,3.34,1.07,5.05c0.26,1.7,0.58,3.4,0.87,5.09
		c0.29,1.66,0.52,3.33,0.76,5c0.57,3.87,1.42,7.68,2.31,11.5c0.84,3.59,1.81,7.11,2.96,10.6c0.73,2.24,1.77,4.34,2.74,6.48
		c1.91,4.21,4.67,7.86,7.31,11.6c0.51,0.73,1.05,1.43,1.75,2.01c0.89,0.73,1.48,1.74,2.12,2.68c0.37,0.55,0.46,1.16-0.07,1.74
		C182.45,157.56,182.29,157.93,182.07,158.3z M131.42,132.81c1.31,2.05,2.72,4.04,4.36,5.83c1.57,1.73,3.52,3.09,5.13,4.77
		c2.08,2.16,4.56,3.76,6.89,5.58c3.08,2.4,6.44,4.44,9.56,7.07c0-1.2,0.21-2.31-0.04-3.31c-0.76-2.98-1.7-5.93-2.72-8.83
		c-1.36-3.9-3.27-7.6-4.72-11.48c-1.31-3.49-2.18-7.09-2.81-10.75c-0.32-1.89-0.69-3.76-1.22-5.61c-0.15-0.53-0.39-1.03-1.1-1.33
		C139.88,120.41,136.08,126.89,131.42,132.81z M87.83,86.3c-2.06,1.34-4.02,2.63-5.52,4.38c-1.49,1.74-3.02,3.44-4.53,5.16
		c-0.25,0.29-0.4,0.52-0.23,0.94c1.57,3.83,2.66,7.83,4.01,11.73c0.44,1.27,0.35,2.69,1.12,3.84c0.91-0.16,0.69-1.54,1.73-1.55
		c0.6,0.91,0.42,1.93,0.5,3.03c1.05-0.24,1.34,0.46,1.54,1.22c0.11,0.42,0.24,0.83,0.37,1.23c0.78,2.54,1.03,5.21,1.79,7.76
		c0.26,0.86,0.76,1.87,0.1,2.8c0.3,0.41,0.67,0.53,1.13,0.64c0.63-2.42,1.3-4.82,1.89-7.24c0.76-3.13,1.55-6.27,1.49-9.5
		c-0.03-1.66-0.18-3.32-0.19-4.99c0-0.88-0.01-1.76,0-2.64c0.01-0.35-0.06-0.7-0.41-0.78c-1.11-0.26-2.22-0.65-3.34,0.14
		c-0.31,0.22-0.56,0.66-1.04,0.66c-0.33-0.83-0.33-0.84-0.13-1.59c0.68-2.52,1.23-5.05,1.07-7.68c-0.01-0.24-0.04-0.49,0.02-0.72
		c0.43-1.51,0.05-2.95-0.45-4.35C88.51,88.05,88.16,87.31,87.83,86.3z M133.46,56.18c0.05-0.08,0.11-0.16,0.16-0.25
		c-1.6-1.53-3.19-3.07-4.8-4.61c-0.17,0.12-0.35,0.29-0.11,0.62c0.23,0.33-0.03,0.48-0.27,0.6c-0.69-0.44-1-1.13-1.27-1.83
		c-0.1-0.26-0.13-0.53-0.39-0.7c-0.77-0.5-1.28-1.26-1.79-1.98c-1.21-1.68-2.43-3.36-3.47-5.2c-0.4,0.33-0.85,0.53-1.23,0.87
		c-0.39,0.36-0.88,0.62-1.29,0.9c-0.01,2.53-0.56,4.41-1.11,5.56c-0.34,0.71-0.39,1.15,0.23,1.74c0.82,0.77,0.48,2.09-0.53,2.55
		c-0.15,2.15-1.12,3.51-2.42,3.33c-0.27,2.59-2.34,2.53-4.2,2.79c0.34,0.5,0.86,0.55,1.28,0.39c0.55-0.21,1.12-0.06,1.63-0.22
		c1.08-0.35,2.2-0.13,3.29-0.36c1.53-0.33,3.05-0.66,4.57-1.02c2.62-0.62,5.21-1.34,7.81-2.06
		C130.84,56.95,132.07,56.3,133.46,56.18z"/>
	<path class="st0" d="M165.49,165.65c0.01-0.28,0.28-0.15,0.32-0.38c0-0.04-0.04-0.07-0.15-0.07c-2.1,0.05-4.02-0.49-5.8-1.63
		c-0.64-0.41-0.79-0.85-0.82-1.54c-0.18-4.72-0.41-9.47-1.95-13.98c-1.26-3.69-2.58-7.37-4.23-10.93
		c-1.61-3.46-3.21-6.95-3.98-10.74c-0.55-2.69-1.08-5.37-1.38-8.11c-0.2-1.81-0.72-3.6-1.19-5.38c-0.5-1.89-1.1-3.74-1.64-5.62
		c-0.07-0.25-0.12-0.46-0.51-0.6c0.42,2.07,0.83,4.06,1.24,6.06c-0.06,0.03-0.12,0.05-0.18,0.08c-0.86-1.44-1.73-2.88-2.67-4.45
		c-0.24,0.86-0.25,0.87,0.42,2.05c0.33,0.58,0.74,1.1,0.94,1.75c-0.18,0.32-0.42-0.17-0.58,0.03c-0.58,1.15,0.92,1.22,0.99,1.92
		c-1.41,2.15-3.4,3.74-4.7,5.87c-2.19,3.6-4.99,6.74-7.43,10.15c-1.82,2.54-3.74,5.04-5.7,7.5c-0.27,0.34-0.56,0.68-0.91,1.1
		c-1.35-1.17-2.25-2.52-3.23-3.77c-0.96-1.23-1.59-2.71-2.82-3.76c0.44,1.28,1.02,2.5,1.82,3.59c2.17,2.98,4.25,6.02,6.34,9.05
		c1.77,2.57,3.55,5.15,5,7.94c1.25,2.39,2.93,4.54,4.18,6.94c0.9,1.74,1.77,3.49,2.62,5.26c1.12,2.33,2.34,4.6,3.69,6.81
		c0.88,1.44,1.69,2.92,2.63,4.31c0.94,1.38,2.01,2.66,3.02,3.99c1.76,2.31,3.5,4.64,5.29,6.92c0.57,0.73,1.2,1.43,1.85,2.09
		c1.26,1.27,2.41,2.65,3.62,3.96c1.63,1.75,3.32,3.44,4.97,5.17c3.32,3.48,6.95,6.6,10.95,9.29c-0.55,2.83-1.95,5.32-3.12,7.9
		c-1.25,2.77-3.4,4.63-6.03,5.89c-1.64,0.79-3.51,1.01-5.33,1.32c-1.51,0.26-2.98,0.12-4.47-0.02c-1.52-0.14-2.62-0.68-3.54-2.06
		c-1.52-2.3-2.59-4.84-4.09-7.12c-2.19-3.31-3.96-6.85-5.97-10.26c-2.08-3.54-4.18-7.08-6.63-10.39c-1.4-1.89-2.41-4.03-3.63-6.04
		c-0.83-1.36-1.75-2.66-2.48-4.1c-0.81-1.61-2.04-2.97-3-4.49c-1.18-1.85-2.3-3.74-3.76-5.39c-1.07-1.21-2.17-2.41-3.16-3.69
		c-1.05-1.36-2.25-2.58-3.51-3.73c-2.07-1.9-4.25-3.68-6.28-5.62c-1.61-1.54-3.21-3.09-4.66-4.8c-1.3-1.53-2.53-3.15-3.91-4.58
		c-1.26-1.31-1.21-2.61-0.93-4.1c0.32-1.73,0.57-3.47,0.89-5.21c0.36-1.96,0.8-3.91,1.15-5.87c0.3-1.7,0.55-3.41,0.81-5.11
		c0.19-1.2,0.37-2.4,0.55-3.6c0.58,0.17,1.18,0.16,1.8,0.56c0.19,0.67-0.05,1.52,0.11,2.34c1.81-0.34,1.81-0.34,1.91-2.14
		c2.52-0.68,4.93-1.66,7.06-3.24c1.34-1,2.53-2.11,3.18-3.72c0.69-1.73,1.88-3.16,2.98-4.64c2.14-2.88,4.73-5.39,6.88-8.27
		c0.7-0.94,1.46-1.88,2.36-2.67c1.74-1.53,3.11-3.42,4.79-5c2.75-2.58,5.51-5.14,8.36-7.61c1.21-1.04,2.6-1.89,4-2.67
		c1.97-1.11,4.66-0.41,6.25,1.27c1.29,1.36,2.74,2.58,4.19,3.77c1.1,0.9,1.7,2.11,1.94,3.38c0.67,3.54,1.45,7.07,1.91,10.63
		c0.84,6.58,2.33,13.02,3.95,19.43c1.06,4.2,2.27,8.39,4.32,12.25c2.09,3.95,4.5,7.72,7.06,11.37c1.21,1.73,2.74,3.23,3.82,5.08
		c0.08,0.13,0.21,0.29,0.34,0.32c0.79,0.18,0.56,0.58,0.25,1.01c-1.53,2.14-3.3,4.03-5.5,5.5c-1.56,1.04-3.05,2.18-4.87,2.78
		C169.5,165.85,167.5,165.7,165.49,165.65z"/>
	<path class="st0" d="M93.81,115.96c0,1.38,0,2.76,0,4.39c1.03-5.85-0.23-11.48,0.35-17.08c0.53,0.35,0.26,1.29,1.03,1.65
		c-0.44-1.66-0.66-3.32-1.43-4.82c-0.32-0.64-0.38-1.35-0.55-2.03c-0.63-2.52-1.78-4.83-2.78-7.21c-0.61-1.44-1.17-2.9-1.79-4.33
		c-0.23-0.53-0.13-0.81,0.38-1.03c0.68-0.29,1.38-0.57,2.11-0.69c0.33-0.05,0.58-0.18,0.82-0.39c-0.42-0.35-0.81,0.18-1.25,0.05
		c-0.02-0.81,0.97-0.59,1.17-1.23c-0.6-0.25-1.07,0.07-1.51,0.31c-1.73,0.94-3.27,2.15-4.81,3.37c-1.56,1.23-3.18,2.4-4.42,3.96
		c-1.46,1.84-3.34,3.28-4.78,5.21c-1.34-0.54-2.21-1.78-3.62-2.67c0.41,1.19,0.47,1.26,1.84,2.36c-0.55,0.04-0.99,0.06-1.62,0.1
		c1.2,0.89,2.61,0.68,3.78,1.35c1.1,2.24,4.72,13.23,4.77,14.53c-0.24,0.11-0.32-0.17-0.54-0.21c-0.56,0.36-0.33,1.04-0.58,1.55
		c-0.39,0.77-0.53,0.9-1.31,0.55c-0.49-0.22-0.9-0.63-1.6-0.66c-0.32,0.12-0.53,0.53-0.66,0.93c-0.31,0.91-0.94,1.17-1.82,1.11
		c-0.67-0.04-1.34-0.01-1.95-0.01c-0.27,0.52,0,0.99-0.32,1.46c-0.51-0.4-0.7-1-1.03-1.49c-1.32-2.01-2.28-4.26-3.85-6.12
		c-0.78-0.92-0.99-2.13-1.39-3.22c-0.88-2.42-1.69-4.86-2.33-7.36c-0.17-0.66,0.08-1.17,0.16-1.72c0.3-2.04,0.44-4.14,1.51-5.99
		c0.95-1.64,2.04-3.16,3.32-4.56c0.96-1.05,2.02-1.98,3.02-2.99c1.59-1.6,2.98-3.36,4.27-5.2c0.85-1.22,1.78-2.42,2.81-3.49
		c1.27-1.32,1.89-2.98,2.73-4.53c0.22-0.41,0.49-0.74,0.83-1.07c1.91-1.9,3.97-3.68,5.47-5.96c0.77-1.17,1.71-2,3.35-1.56
		c0.81,0.22,1.74,0.04,2.67,0.04c-0.25,1.67-0.89,3.13-1.02,4.69c-0.15,1.72-0.59,3.4-0.71,5.13c-0.12,1.81-0.09,3.63-0.4,5.43
		c-0.2,1.13-0.08,2.3,0.29,3.4c0.29,0.86,0.65,0.92,1.37,0.41c1.63-1.14,3.14-2.49,5.13-3.04c0.18-0.05,0.33-0.21,0.55-0.19
		c0.2,0.01,0.4,0,0.62,0c0.07,0.37-0.21,0.5-0.4,0.65c-1.93,1.46-3.41,3.35-4.92,5.21c-0.71,0.87-0.91,1.73-0.37,2.92
		c1.44,3.16,2.68,6.42,4,9.63c0.89,2.17,1.34,4.49,2.09,6.71c0.98,2.9,1.51,5.89,1.97,8.91c0.31,2.04-0.11,4.11,0.43,6.12
		c0.34,1.25,0.23,2.52,0.24,3.78c0,0.16-0.05,0.35,0.01,0.48c0.86,1.72,0.05,3.45-0.08,5.15c-0.14,1.86-0.56,3.72-0.85,5.57
		c-0.33,2.17-0.75,4.32-1.23,6.46c-0.47,2.14-0.91,4.29-1.18,6.46c-0.26,2.07-0.82,4.07-1.29,6.08c-0.69,3-1.45,5.99-2.13,9
		c-0.8,3.54-1.75,7.05-2.55,10.59c-0.65,2.86-1.33,5.73-1.68,8.63c-0.22,1.79-0.5,3.59-0.6,5.41c-0.09,1.59-0.26,3.2-0.63,4.78
		c-0.18,0.76-0.16,1.57-0.22,2.35c-0.1,1.26-0.2,2.54-0.35,3.78c-0.45,3.77-0.18,7.56-0.52,11.3c-0.27,3,0.19,5.94,0.15,8.91
		c-0.03,1.99,0.31,4.01,0.43,6.02c0.21,3.54,0.94,6.99,2.04,10.35c0.66,2,1.57,3.92,2.51,5.81c0.17,0.34,0.4,0.65,0.48,1.17
		c-1.73-0.39-3.29-0.99-4.82-1.6c-2.51-1-4.98-2.11-7.35-3.42c-3.31-1.83-6.62-3.66-9.16-6.58c-1.11-1.27-2.44-2.31-3.58-3.56
		c-1.57-1.72-2.89-3.64-4.36-5.43c-2.53-3.09-4.2-6.71-5.96-10.25c-0.64-1.29-1.2-2.63-1.73-3.98c-0.38-0.96-0.34-2-0.16-3
		c0.06-0.31,0.16-0.61,0.14-0.93c-0.14-2.31,0.38-4.55,0.75-6.81c0.39-2.39,1.08-4.72,1.89-7c0.35-0.99,0.74-1.99,1.22-2.92
		c0.98-1.88,1.68-3.89,2.65-5.76c1.08-2.08,2.29-4.11,3.55-6.09c2.23-3.5,4.64-6.88,6.78-10.43c1.31-2.18,2.6-4.38,4.04-6.48
		c1.48-2.17,2.6-4.55,4.05-6.74c0.4-0.6,0.54-1.37,0.8-2.07c0.37,0.11,0.75,0.2,0.9,0.53c0.36,0.8,1.09,1.03,1.8,1.38
		c0.37,0.19,0.92,0.05,1.13,0.54c0.22,0.51,0.73-0.2,1.01,0.28c0.24,0.41,0.78,0.51,1.2,0.71c0.49,0.22,0.96,0.48,1.52,0.6
		c0.71,0.16,1.13,0.83,1.44,1.48c0.43,0.88,1.07,1.36,2.08,1.36c0.6,0,0.85-0.23,0.88-0.84c0.07-1.65-0.49-3.09-1.49-4.36
		c-0.61-0.77-1.01-1.62-1.3-2.53c-0.47-1.46-0.76-2.99-1.56-4.35c0.83,0.23,1.34,0.83,1.99,1.22c0.72,0.44,1.35,0.42,2.09-0.01
		c0.66-0.38,0.66-0.89,0.35-1.38c-1.14-1.81-1.83-3.79-2.51-5.79c-0.57-1.67-1.27-3.33-2.71-4.49c-0.48-0.39-0.66-0.98-1.11-1.38
		C91.96,125.04,92.49,120.4,93.81,115.96z M89.36,67.02c-0.01-1.13,0.37-2.3-0.32-3.46C88.79,64.82,89.15,65.92,89.36,67.02z
		 M91.04,64.77c0.11-1.2-0.59-2.2-1.53-2.15C90.15,63.26,90.7,63.9,91.04,64.77z"/>
	<path class="st0" d="M49.87,153.86c-2.46,0.43-4.3,1.63-6.14,2.88c0.51-0.64,0.99-1.25,1.7-1.69c1.52-0.97,3-1.99,4.45-3.06
		c2.63-1.94,5.72-2.66,8.82-3.33c2.64-0.56,5.32-0.94,7.97-1.47c1.95-0.39,3.86-1,5.7-1.76c2.14-0.89,4.2-1.92,6.14-3.2
		c0.98-0.64,1.84-1.46,3.08-1.97c0.52,2.04,0.05,4.41,2.08,5.89c-1.34,2.42-2.88,4.7-4.23,7.08c-2.56,4.53-5.45,8.87-8.26,13.25
		c-1.48,2.31-3.11,4.52-4.45,6.92c-0.95,1.71-1.93,3.41-2.91,5.11c-1.91,3.31-3.23,6.86-4.33,10.49c-0.8,2.65-1.42,5.36-1.76,8.14
		c-0.15,1.19-0.15,2.37-0.19,3.56c-0.04,1.05-0.3,2.05-0.08,3.15c0.18,0.92,0.54,1.74,0.9,2.53c1.04,2.28,1.96,4.61,3.19,6.81
		c0.61,1.08,0.76,2.45,1.01,3.71c0.48,2.48,0.56,5.01,0.79,7.52c0.25,2.68,0.24,5.34,0.12,8c-0.1,2.21-0.58,4.42-1.3,6.55
		c-0.29,0.85-0.47,1.74-0.56,2.63c-0.03,0.26-0.08,0.48-0.38,0.52c-0.34-1.98-0.77-3.99-0.95-5.98c-0.14-1.44-0.26-2.82-0.81-4.15
		c-1.12-2.71-2.18-5.45-3.66-7.98c-0.8-1.36-1.97-2.48-3.26-3.6c0,0.53,0.25,0.82,0.48,1.16c0.87,1.29,2.02,2.42,2.49,3.95
		c0.43,1.43,0.55,2.92,0.81,4.39c0.35,1.97,0.16,3.97,0.26,5.95c0.17,3.43-0.41,6.75-1.22,10.06c-0.74,3.01-1.81,5.9-3.1,8.7
		c-0.64,1.39-1.66,2.55-2.6,3.79c2.07-5.73,3.93-11.48,2.74-17.68c0.2,4.6-0.46,9.07-1.96,13.42c-0.38-0.14-0.35-0.46-0.35-0.78
		c0-1.01-0.04-2.03,0.01-3.04c0.1-2.22-0.47-4.28-1.47-6.24c-1.15-2.27-1.99-4.7-3.54-6.77c-1.48-1.98-2.91-4-4.47-5.92
		c-1.03-1.27-2.45-2.24-3.04-3.88c-0.13-0.36-0.25-0.75-0.31-1.1c-0.27-1.69-0.56-3.4-0.32-5.21c0.56,0.34,0.54,0.9,0.76,1.33
		c1.45,2.95,2.77,5.97,4.68,8.67c0.36,0.5,0.74,0.86,1.54,0.9c-1.36-1.98-2.6-3.89-3.44-5.98c-1.64-4.11-3.73-8.02-5.37-12.13
		c-0.04-0.1-0.17-0.16-0.48-0.44c0.85,3.18,1.75,6.11,1.14,9.27c-0.98-1.18-1.45-2.64-2-4.04c-0.57-1.45-0.98-2.97-1.5-4.44
		c-0.52-1.48-0.86-3-1.23-4.52c-0.37-1.55,0.18-3.17-0.49-4.78c-0.51,2.78-0.85,5.45-0.68,8.16c-0.52-0.95-0.41-1.96-0.47-2.96
		c-0.12-1.93-0.41-3.86-0.44-5.79c-0.05-3.02,0.88-5.86,1.86-8.69c1.06-3.07,2.48-6,3.53-9.06c0.87-2.54,1.33-5.2,1.07-7.92
		c-0.07-0.73,0.09-1.39,0.45-2.05c0.39-0.72,0.16-1.74,1.1-2.19c1.21-2.48,2.95-4.62,4.48-6.89c1.37-2.04,2.67-4.11,3.91-6.26
		c-1.3,0.75-1.88,2.27-3.14,3.02c-1.27,0.76-2.44,1.68-3.81,2.36c0.67-1.8,2.06-3.09,3.17-4.58c1.16-1.56,2.52-2.94,3.71-4.45
		C46.55,156.21,48.19,155.23,49.87,153.86z"/>
	<path class="st0" d="M180.65,195.74c-0.43,0.29-0.76,0.13-1.14-0.05c-3.38-1.55-6.93-2.66-10.34-4.12
		c-2.19-0.94-4.42-1.79-6.71-2.46c-1.65-0.48-3.24-1.14-4.95-1.43c-1.23-0.2-1.94-1.24-2.63-2.12c-1.92-2.43-3.67-4.99-5.59-7.43
		c-2.87-3.65-5.11-7.69-7.42-11.7c-1.61-2.79-2.65-5.84-4.26-8.6c-1.3-2.23-2.73-4.39-4.12-6.56c-1.16-1.82-1.93-3.88-3.27-5.56
		c-1.57-1.97-2.94-4.06-4.31-6.25c1.79-1.81,3.16-3.99,4.89-5.88c1.37,1.77,2.71,3.52,3.92,5.38c0.63,0.96,1.56,1.78,2.55,2.48
		c0.58,0.41,1.07,0.96,1.56,1.48c2.12,2.2,4.42,4.14,7.06,5.73c1.47,0.89,2.75,2.09,4.15,3.1c1.68,1.22,3.39,2.4,5.12,3.56
		c0.81,0.55,1.55,1.19,2.37,1.73c0.26,0.17,0.28,0.77,0.31,1.19c0.05,0.68,0.07,1.36,0,2.04c-0.1,0.93,0.29,1.79,0.29,2.71
		c0,0.28,0.2,0.66,0.42,0.81c1.35,0.93,2.66,2,4.31,2.3c1.39,0.25,2.72,0.76,4.15,0.76c0.47,0,0.68,0.34,0.91,0.67
		c1.65,2.44,2.99,5.05,4.5,7.57c2.07,3.48,3.32,7.33,4.94,11.01c0.86,1.95,1.29,4.02,2.09,5.97
		C179.93,193.29,180.39,194.49,180.65,195.74z"/>
	<path class="st0" d="M130.64,184.45c-1.82-0.41-3.42-0.45-5-0.73c-1.12-0.2-2.29-0.19-3.43-0.24c-2.3-0.11-4.61-0.44-6.92-0.07
		c-0.86,0.14-1.76,0.07-2.63,0.01c-2.23-0.14-4.46,0.1-6.67,0.28c-4.14,0.35-8.21,1.11-12.04,2.85c-0.53,0.24-0.92,0.75-1.6,0.82
		c-0.12-1.6,0.25-3.15,0.35-4.72c0.12-1.85,0.7-3.62,0.81-5.47c0.03-0.52,0.18-1.02,0.29-1.5c0.91-3.77,1.34-7.64,2.42-11.38
		c0.51-1.76,0.89-3.55,1.37-5.32c0.65-2.41,1.44-4.79,1.81-7.26c0.17-1.13,0.4-2.23,0.95-3.28c1.44,2.35,3.17,4.43,5.05,6.4
		c1.25,1.31,2.38,2.73,3.71,3.96c2.44,2.25,4.76,4.64,7.3,6.76c2.43,2.03,4.14,4.63,6.23,6.92c2.59,2.84,4.21,6.34,6.58,9.31
		C129.8,182.53,130.09,183.4,130.64,184.45z"/>
	<path class="st0" d="M128.87,49.82c0.88-0.54,0.88-0.54,1.57-0.17c0.31-0.22,0.31-0.47,0.21-0.83c-0.28-0.98-0.08-1.45,0.86-1.68
		c1.04-0.26,1.66-0.7,1.67-1.89c0.01-0.64,0.93-0.9,1.72-0.59c0.52,0.2,1.22,0.69,0.9-0.55c-0.09-0.35,0.3-0.52,0.57-0.79
		c1.46,1.14,2.89,2.33,4.31,3.52c1.76,1.47,3.42,3.04,5.15,4.54c1.82,1.58,3.25,3.46,2.53,6.3c-0.32,1.25-0.83,2.35-1.36,3.47
		c-0.59,1.23-1.44,2.32-2.12,3.51c-0.6,1.06-1.6,1.8-2.82,1.98c-3.09,0.46-5.88,1.8-8.78,2.83c-1.88,0.67-3.59,1.71-5.43,2.48
		c-2.32,0.97-4.48,2.21-6.57,3.87c-0.94-2.69-1.91-5.2-3.42-7.51c-1.51-2.32-3.06-4.56-5.3-6.55c0.51,0,0.88-0.02,1.25,0
		c1.47,0.09,2.92-0.15,4.33-0.5c4.32-1.07,8.59-2.32,12.85-3.59c0.72-0.21,1.25-0.77,2.12-0.76c1.07,0.01,1.7,0.43,2.22,1.27
		c0.39,0.63,0.83,1.23,1.31,1.94c0.19-0.64-0.5-0.95-0.29-1.54c0.62,0.33,1.05,0.98,1.96,1.25c-0.58-1-1.31-1.6-1.99-2.21
		c-2.14-1.92-4.35-3.77-6.08-6.1c-0.17-0.22-0.38-0.41-0.59-0.59C129.27,50.63,129.03,50.28,128.87,49.82z"/>
	<path class="st0" d="M114.25,15.13c-0.24-0.94,0.15-1.89-0.3-2.78c-0.18,0.1-0.34,0.13-0.37,0.21c-0.37,1.22-1.29,2.13-1.84,3.24
		c-0.51,1.03-1.35,1.55-2.37,1.75c-1.95,0.39-3.92,0.77-5.9,0.95c-1.08,0.1-2.23-0.19-3.31-0.15c-3.26,0.12-6.27-0.92-9.36-1.64
		c-0.68-0.16-1.05-0.49-1.3-1.12c-0.79-1.96-1.56-3.93-2.49-5.81c-0.42-0.86-0.91-1.64-0.92-2.63c-0.01-0.5,0.06-0.84,0.58-1.16
		c0.64-0.39,1.34-0.67,1.95-1.09c2.59-1.76,5.67-1.94,8.58-2.66c0.19-0.05,0.42,0,0.58-0.09c1.43-0.8,3.05-0.52,4.57-0.85
		c2.55-0.56,5.16-0.17,7.74-0.26c0.67-0.02,1.37-0.21,1.98-0.16c1.53,0.14,2.78,1.07,3.87,2.1c0.65,0.61,0.55,1.65,0.59,2.47
		c0.13,2.77-0.18,5.53-0.36,8.29c-0.03,0.44-0.09,0.44-0.41,0.55c-0.48,0.17-0.64,0.83-1.22,0.89
		C114.46,15.18,114.38,15.15,114.25,15.13z M91.99,7.73c2.19,1.59,4.53,1.3,6.69,1.37c1.75,0.05,3.59-0.23,5.36-0.61
		c2.45-0.53,4.87-1.13,7.09-2.34c0.71-0.39,0.71-0.39,0.96-1.41C105.73,7.82,99.08,8.48,91.99,7.73z M112.73,10.52
		c0.01-1.04-0.76-1.71-2.04-1.77c-0.67-0.03-1.32,0.78-1.32,1.65c0,0.82,0.71,1.87,1.29,1.91
		C111.24,12.34,112.73,11.06,112.73,10.52z"/>
	<path class="st0" d="M96.03,58.85c1.06,2.03,2.27,4.01,3.16,6.12c1.35,3.2,2.55,6.46,3.3,9.87c0.31,1.42,0.45,2.87,0.63,4.3
		c0.41,3.23,0.41,6.49,0.54,9.74c0.11,2.57,0.47,5.12,0.44,7.71c-0.01,0.96-0.41,1.87-0.25,2.83c0.51,3.09,0.13,6.21,0.24,9.31
		c0.09,2.58-0.49,5.14-0.27,7.74c-0.29-0.29-0.2-0.63-0.2-0.95c0.01-6.01-1.37-11.73-3.47-17.33c-0.88-2.34-1.82-4.65-2.6-7.03
		c-0.6-1.82-1.59-3.48-2.47-5.18c-0.4-0.76-0.43-1.34,0.18-2.13c1.43-1.85,3.01-3.56,4.61-5.25c0.65-0.69,1.36-1.34,2.09-2.06
		c-1.77-0.72-3.25-0.4-4.68,0.54c-1.3,0.86-2.66,1.63-4.06,2.48c-0.65-1.29-0.48-2.62-0.35-3.87c0.14-1.33,0.28-2.66,0.43-3.99
		c0.14-1.21,0.25-2.44,0.56-3.6c0.52-1.9,0.58-3.87,1.1-5.76c0.31-1.14,0.55-2.3,0.83-3.46C95.87,58.87,95.95,58.86,96.03,58.85z"/>
	<path class="st0" d="M128.46,33.58c-0.12-0.62-0.12-0.62,0.05-1.31c0.58,0.08,0.09,0.66,0.43,0.85c0.41,0.19,0.5-0.45,0.88-0.37
		c0.12,0.05,0.12,0.09,0.08,0.17c-0.63,1.35-0.59,1.58,0.61,2.8c1.39,1.41,2.78,2.81,4.2,4.19c0.52,0.51,0.82,1.12,1.07,1.8
		c-4.94,0.57-7.49,3.77-9.06,8.11c-0.46-1.72-1.77-2.75-2.54-4.11c-0.99-1.77-2.32-3.34-3.12-5.24c-0.15-0.36-0.27-0.75-0.12-1.02
		c0.25-0.48,0.05-0.75-0.57-1.2c0.86,0.13,1.21-0.02,1.54-0.56C123.35,35.24,126.22,33.93,128.46,33.58z"/>
	<path class="st0" d="M91.03,19.53c5.28,1.83,13.89,2.44,18.97,0.56c0.25,0.52-0.07,0.99-0.12,1.49c-0.05,0.47-0.25,1.18,0.5,1.25
		c0.59,0.05,1.08-0.45,1.12-1.02c0.06-0.87,0.77-1.56,0.55-2.49c-0.07-0.28,0.23-0.48,0.54-0.52c0.52-0.06,0.93-0.4,1.42-0.55
		c0.48-0.15,1.04-0.33,1.29-0.91c0.18-0.41,0.6-0.36,0.97-0.35c0.12,1.4,0.1,1.38-1.21,2.08c-0.88,0.47-0.88,1.46-1.08,2.26
		c-0.15,0.6-0.33,1.2-0.51,1.79c-0.19,0.64-0.56,0.93-1.24,1.14c-1.79,0.55-3.54,1.21-5.39,1.57c-0.35,0.07-0.69,0.16-1.04,0.15
		c-2.38-0.03-4.78,0.17-7.15-0.25c-1.46-0.26-2.91-0.59-4.33-1.03c-0.45-0.14-0.86-0.39-1.34-0.41c-0.6-0.02-0.89-0.39-1.01-0.94
		C91.7,22.12,91.19,20.92,91.03,19.53z"/>
	<path class="st0" d="M121.59,110.2c-1.6-2.3-2.39-4.74-3.1-7.22c-0.46-1.62-0.94-3.22-1.26-4.88c-0.28-1.47-0.41-2.95-0.66-4.42
		c-0.33-1.94-0.08-3.9-0.28-5.83c-0.1-0.92-0.1-1.87-0.37-2.8c-0.18-0.63-0.27-1.42,0.29-2.04c0.38,0.91,0.74,1.83,1.7,2.41
		c0.36-1.5-0.3-2.76-0.79-4.05c-0.15-0.4-0.31-0.8-0.48-1.19c-0.17-0.39,0.18-0.46,0.34-0.71c1.13,0.93,2.4,1.56,3.56,2.35
		c0.73,0.5,0.94,1.04,0.81,1.78c-0.45,2.67-0.31,5.38-0.52,8.06c-0.25,3.05-0.45,6.09-0.43,9.15c0.01,2.7,0.51,5.32,1.08,7.93
		C121.58,109.18,121.59,109.59,121.59,110.2z"/>
	<path class="st0" d="M64.56,22.03c1.23,1.81,2.8,2.85,4.43,3.77c0.9,0.51,1.77,1.11,2.78,1.45c0.81,0.27,1.49,0.76,1.98,1.58
		c0.72,1.21,1.64,2.31,2.64,3.38c-1.02-0.33-2.03-0.65-3.05-0.98c-0.05,0.07-0.1,0.15-0.15,0.22c1.88,1.58,3.93,2.97,5.67,4.76
		c-0.62,0.26-1.04-0.11-1.77-0.4c0.91,1.78,2.24,2.92,3.43,4.17c1.23,1.29,2.56,2.43,4.05,3.45c-1.18-0.25-2.31-0.65-3.29-1.29
		c-2.32-1.51-4.68-3.01-6.85-4.73c-2.4-1.91-4.51-4.15-6.11-6.83c-0.72-1.2-1.66-2.27-2.24-3.58c-0.52-1.17-1.09-2.31-1.44-3.56
		C64.53,23.04,64.49,22.68,64.56,22.03z"/>
	<path class="st0" d="M112.61,26.51c0.31,0.81,0.62,1.5,1.26,1.97c-0.37,0.89-1.18,1.46-1.56,2.34c-0.17,0.39-0.66,0.22-0.98,0.29
		c-2.62,0.5-5.24,0.53-7.9,0.23c-1.52-0.17-3.05-0.31-4.57-0.54c-1.68-0.25-3.25-0.82-4.8-1.46c-1.07-0.44-1.29-1.47-1.51-2.61
		c1.46,0.29,2.79,0.64,4.1,1.07c1.28,0.42,2.58,0.69,3.94,0.59c1.23-0.08,2.43,0.26,3.67,0.27c2.44,0.03,4.73-0.64,7.04-1.25
		C111.8,27.28,112.19,26.93,112.61,26.51z"/>
	<path class="st0" d="M120.34,75.76c-1.91-1.15-3.21-0.22-4.55,1.33c-0.66-5.84-3.2-10.71-5.72-15.64c2.26,0.97,3.3,1.87,4.66,3.83
		c1.43,2.06,3.05,3.98,4.1,6.29C119.42,72.86,119.95,74.19,120.34,75.76z"/>
	<path class="st0" d="M133.19,20.39c-0.36,3.73-2.14,7.86-4.91,11.41c-0.74-0.86-0.89-1.98-1.37-2.93c-0.48-0.93-0.8-1.94-1.22-2.96
		C127.73,23.49,130.8,22.48,133.19,20.39z"/>
	<path class="st0" d="M115.63,37.92c0.94,2.68,0.7,5.45,0.69,8.21c0,0.17-0.12,0.28-0.37,0.41c-0.2-1.42-0.45-2.79-1-4.1
		c-0.56-1.33-1.06-2.67-1.78-3.94c-0.74-1.31-2.22-1.8-3.27-3.08c1.33-0.03,2.39-0.25,3.44-0.51c0.73-0.18,1.16,0.55,1.55,1.04
		c0.54,0.68,1.11,1.17,2.06,1.08c1.15,4.12,1.91,8.18,0.16,12.28c0.06-1.64-0.32-3.29,0.16-4.92c0.16-0.56-0.11-1.09-0.23-1.62
		c-0.28-1.21-0.15-2.5-0.7-3.67C116.15,38.68,116.02,38.24,115.63,37.92z"/>
	<path class="st0" d="M96.83,34.12c1.31,0.33,2.61,0.65,4.09,1.02c-2.31,2.72-4.28,5.41-5.87,8.66c-0.23-1.81,0.06-3.37,0.48-4.81
		c0.44-1.5,0.68-3.03,1.13-4.51C96.69,34.38,96.76,34.28,96.83,34.12z"/>
	<path class="st0" d="M87.69,27.43c0.64,0.41,1.35,0.75,1.91,1.26c1.54,1.4,3.44,2.09,5.32,2.83c1.34,0.53,2.67,1.1,4.06,1.5
		c1.24,0.36,2.51,0.65,3.77,0.83c1.91,0.28,3.83,0.55,5.77,0.55c1.35,0,2.64-0.31,3.92-0.68c0.28-0.08,0.84-0.52,0.98,0.25
		C103.19,36.34,92.08,32.96,87.69,27.43z"/>
	<path class="st0" d="M105.55,72.49c-0.08-2.35,0.09-4.55,0.44-6.75c0.13-0.8,0.62-1.3,1.17-1.88c0.24,2.41,1.51,4.51,1.45,7.01
		C107.17,70.58,106.57,71.85,105.55,72.49z"/>
	<path class="st0" d="M111.77,118.53c0.29,0.27,0.36,0.77,0.84,0.97c0.9-0.35,1.66-1.13,2.83-1.35c-1.04,1.45-4.77,2.77-6.92,2.56
		c-0.26-0.22,0.05-0.64-0.28-0.83c-0.43,0.25-0.57,0.25-1.15-0.03c-0.1,0.11-0.22,0.21-0.31,0.34c-0.09,0.12-0.09,0.31-0.28,0.35
		c-2.05-0.49-2.05-0.49-1.8-2.16C107.03,118.78,109.38,119.42,111.77,118.53z"/>
	<path class="st0" d="M109.23,82.82c-0.34-0.32-0.6-0.56-0.85-0.79c-1.11,0.02-1.3,1.11-2.06,1.6c-0.3-0.74,0.28-1.44,0.2-2.2
		c-0.08-0.74-0.12-1.48-0.25-2.22c-0.1-0.57-0.1-1.19,0.45-1.61c0.8-0.61,1.98-0.26,2.05,0.83
		C108.88,79.87,109.84,81.21,109.23,82.82z"/>
	<path class="st0" d="M92.15,28.72c-1.36,0.1-4.41-2.15-5.26-3.84c1.19-0.64,2.44-0.2,3.72-0.34c-0.02,0.74,0.01,1.37,0.78,1.62
		c0.19,0.06,0.26,0.32,0.21,0.52C91.37,27.46,91.65,28.1,92.15,28.72z"/>
	<path class="st0" d="M111.61,71.11c-0.95-1.1-1.61-0.03-2.48,0.3c0.12-2.56-0.9-4.78-1.39-7.14
		C109.9,66.05,110.72,68.56,111.61,71.11z"/>
	<path class="st0" d="M96.11,34.03c-0.5,0.99-1.02,1.96-0.91,3.12c0.02,0.22-0.01,0.41-0.22,0.61c-1.42,1.37-2.14,3.12-2.66,4.98
		c-0.03,0.11-0.02,0.25-0.33,0.24c0.6-2.82,1.45-5.51,2.93-7.99c-0.52-0.23-0.59,0.46-1.08,0.29c0.1-0.66,0.25-1.29,0.77-1.84
		C95.14,33.59,95.65,33.74,96.11,34.03z"/>
	<path class="st0" d="M110.34,77.34c0.57,0.94,0.76,2.01,1.81,2.62c0.39,0.23,0.47,1.12,0.26,1.87c-1.01-0.12-1.34,0.78-1.86,1.5
		c-0.5-0.65-0.45-1.29-0.47-1.93c-0.04-0.98,0.15-1.97-0.21-2.94C109.73,78.05,109.97,77.64,110.34,77.34z"/>
	<path class="st0" d="M108.02,74.9c0.44,0.11,0.34-0.49,0.79-0.34c0,0.78,0,1.59,0,2.46c-0.88-0.71-1.75-0.39-2.71,0.18
		c-0.29-1.46,0.56-2.8,0.01-4.05c0.15-0.39,0.62-0.31,0.7-0.67C107.59,73.11,107.37,74.27,108.02,74.9z"/>
	<path class="st0" d="M100.43,39.19c0.28-1.08,0.55-2.17,0.85-3.25c0.11-0.4,0.37-0.64,0.86-0.6c0.63,0.05,1.27-0.04,1.85,0.42
		C103.09,37.1,101.58,37.94,100.43,39.19z"/>
	<path class="st0" d="M131.02,44.49c0.6,0.3,0.77,0.95,1.22,1.5c-1.05,0.51-2.4,0.66-2.27,2.33
		C128.59,46.59,128.79,45.93,131.02,44.49z"/>
	<path class="st0" d="M111.55,76.34c-0.59,0.08-1.11,0.01-1.55,0.32c-0.49-1.57-0.41-3.1-0.26-4.68
		C110.41,73.37,111.39,74.63,111.55,76.34z"/>
	<path class="st0" d="M113.89,75.8c-0.49,0.31-1.08,0.41-1.32,1.09c-0.92-1.68-0.37-3.19,0.16-4.72c-0.04,0.7,0.19,1.32,0.63,1.77
		C113.88,74.47,114.01,75.03,113.89,75.8z"/>
	<path class="st0" d="M112.94,77.62c0.35,0.66,0.78,1.23,1.17,1.83c0.49,0.76,0.86,1.65-0.05,2.45c-0.18,0.16-0.13,0.47-0.38,0.58
		C113.25,81.78,112.7,78.62,112.94,77.62z"/>
	<path class="st0" d="M114.78,27.37c-0.42-0.17-0.31-0.79-0.85-0.74c0.37-0.88,0.37-0.88,3.05-2.58c0.07,0.71,0.33,1.35-0.72,1.51
		c-0.29,0.05-0.59,0.34-0.62,0.65C115.58,26.81,115.12,27.04,114.78,27.37z"/>
	<path class="st0" d="M109.55,64.75c2.3,2.73,3.44,5.5,2.8,6.72C112,69.05,110.39,67.19,109.55,64.75z"/>
	<path class="st0" d="M120.25,76.67c-0.58,0.57-1.08,1.07-1.61,1.59c-0.42-0.54-0.47-1.27-1.13-1.57
		C118.25,75.91,119.28,75.89,120.25,76.67z"/>
	<path class="st0" d="M128.75,47.39c0.3,0.46,0.53,0.81,0.81,1.22c-1.13,0.32-1.35,1.25-1.54,2.2
		C127.31,49.78,127.52,48.71,128.75,47.39z"/>
	<path class="st0" d="M132.58,45.14c-0.44-0.27-0.74-0.64-1.06-1c0.32-0.67,1.06-0.72,1.52-1.08c0.45,0.02,0.26,0.5,0.76,0.57
		C133.14,44.07,132.75,44.52,132.58,45.14z"/>
	<path class="st0" d="M135.92,42.01c0.18,0.86-0.51,1.26-0.61,2.01c-0.57-0.45-1.11-0.71-1.8-0.93
		C134.25,42.43,135.16,42.51,135.92,42.01z"/>
	<path class="st0" d="M117.21,76.89c0.58,0.74,0.69,1.53,0.93,2.31C116.38,78.36,116.19,77.92,117.21,76.89z"/>
	<path class="st0" d="M110.31,71.52c1.06,0.02,1.26,0.43,1.18,2.24c-0.02,0.01-0.04,0.03-0.07,0.04
		C111.06,73.05,110.69,72.3,110.31,71.52z"/>
	<path class="st0" d="M115.68,81.8c-0.17-0.82-0.34-1.63-0.53-2.53C116.19,80.48,116.34,81.23,115.68,81.8z"/>
	<path class="st0" d="M113.8,76.3c0.93,0.53,0.49,1.26,0.65,2.08C113.8,77.71,113.61,77.14,113.8,76.3z"/>
	<path class="st0" d="M111.16,76.93c0.45,0.27,0.4,0.62,0.33,0.98C110.85,77.51,110.85,77.51,111.16,76.93z"/>
</g>
</svg>
