<?xml version="1.0" encoding="utf-8"?>
<!-- Generator: Adobe Illustrator 24.1.2, SVG Export Plug-In . SVG Version: 6.00 Build 0)  -->
<svg version="1.1" id="Layer_1" xmlns="http://www.w3.org/2000/svg" xmlns:xlink="http://www.w3.org/1999/xlink" x="0px" y="0px"
	 width="572.72" height="1148.62" viewBox="0 0 572.72 1148.62" enable-background="new 0 0 572.72 1148.62" xml:space="preserve">
<g>
	<path d="M254.69,676.8c-4.49,45.75-10.96,90.28-14.9,135.47c3.17,1.66,3.67,3.95,3.23,8.11c-0.94,8.88-1.44,18.18,4.47,26.11
		c0.09,0.12,0.15,0.3,0.16,0.46c0.39,7.23,6.46,10.96,10.47,15.59c5.6,6.47,11.24,12.96,16.94,19.37c2.78,3.13,4.44,6.92,4.55,11.12
		c0.18,6.99,0.78,14.09-0.12,20.97c-1.36,10.46-0.41,20.89-0.81,31.32c-0.06,1.48-0.51,3.19,0.37,4.41
		c1.34,1.84,0.36,3.54-0.59,4.49c-2.54,2.54-1.62,4.46,0.16,6.83c2.26,3.02,3.71,6.65,8.34,7.14c1.29,0.14,2.57,2.03,3.47,3.37
		c0.54,0.8,0.96,1.72,1.69,2.38c9.57,8.61,7.25,7.68,7.52,19.61c0.09,4,0.1,8,0,12c-0.26,9.93-1.57,19.84-0.97,29.8
		c0.17,2.76-1.32,3.85-3.97,3.85c-0.23,11.62,0.45,22.79,1.87,33.94c0.43,3.42,0.4,6.86,0.86,10.32c1.08,8.18,2.45,16.61,1.01,24.73
		c-1.52,8.61-4.28,16.79-12.5,22.37c-6.63,4.5-13.53,6.23-21.16,6.39c-4.33,0.09-8.67-0.1-13,0.04c-7.29,0.23-14.47-0.27-21.41-2.7
		c-1.99-0.7-3.33-0.35-4.37,1.69c-0.56,1.1-1.63,2.1-2.88,2.61c-1.63-0.56-1.33-2.12-1.85-3.5c-6.11-0.27-12.38,0.15-18.23-2.84
		c-1.27-0.65-3.42,0.74-4.35,2.54c-0.67,1.28-1.37,2.54-2.09,3.89c-1.9-2.07-1.9-2.07-2.17-6.19c-4.58-3.28-8.69-1.82-12.58,1.49
		c-3.54-1.18-1.51-4.35-2.44-6.38c-3.64-0.1-4.26,3.57-6.37,5.33c-2.99-0.61-2.62-2.96-2.3-4.74c0.92-5.09,1.46-10.36,5.51-14.31
		c2.95-2.87,2.06-7.07,3.33-10.56c0.71-1.96,1.22-4.01,1.97-5.99c1.85-4.89,5.24-7.38,10.44-7.33c1.41,0.01,2.5-0.34,3.57-1.34
		c2.88-2.7,6.34-4.46,10.31-3.61c5.61,1.2,9.7-2.18,14.14-4.28c3.27-1.54,2.99-5.71-0.03-9.32c1.38-8.51,2.88-16.84,3.8-25.29
		c0.65-5.94,1.17-11.87,0.85-17.81c-0.68-12.65-1.32-25.3-2.74-37.92c-0.86-7.6-2.31-15.14-5.66-21.64
		c-3.46-6.69-5.65-13.8-8.92-20.47c-9.47-19.35-18.2-39.01-26.04-59.07c-0.63-1.62-0.1-3.29-1-4.88
		c-10.32,0.36-13.73-8.23-17.11-15.11c-4.04-8.22-6.91-17.2-8.96-26.27c-2.03-8.96-4.25-17.92-3.5-27.25
		c0.11-1.44-0.5-3.1,0.98-4.17c5.18-3.73,3.04-8.48,0.91-12.3c-3.83-6.86-5.26-14.33-6.81-21.76c-2.1-10.1-3.28-20.34-4.22-30.64
		c-0.86-9.53-1.63-19.04-2-28.6c-0.18-4.72,0.46-9.4,0.09-14.06c-1.79-23.08-0.47-46.2-1.04-69.29c-0.18-7.17,1.87-13.99,2.47-21.04
		c0.72-8.52,2.67-17.04,4.5-25.49c2.32-10.66,4.61-21.31,7.84-31.74c1.11-3.57,1.69-7.28,3.2-10.73c0.37-0.84,0.83-2.27,0.44-2.7
		c-4.17-4.59-0.85-9.09,1.13-12.53c2.01-3.49,2.3-9.03,7.92-9.94c0.36-0.06,0.46-1.46,0.77-2.2c4.17-9.79,6.12-19.96,5.85-30.63
		c-0.22-8.66-0.07-17.33-0.03-25.99c0.01-2.04-0.33-3.69-1.86-5.37c-2.94-3.24-2.96-7.55-0.68-11.41c2.36-3.98,2.21-9.29-0.62-12.68
		c-3-3.59-4.88-7.7-5.69-12.2c-0.74-4.09,0.32-7.85,3.59-10.5c0.03-0.55,0.08-0.87,0.07-1.19c-0.27-5.31-3.21-8.7-7.39-11.78
		c-3.67-2.7-6.91-6.16-8.91-10.88c-5.34,3.12-10.29,6.45-15.56,9.28c-10.25,5.5-20.95,9.73-32.11,12.77
		c-7.69,2.1-15.48,3.83-23.29,5.49c-7.59,1.61-13.42-0.82-18.94-5.32c-1.77-1.44-3.06-3.26-5.82-3.3c-1.4-0.02-2.94-1.24-4.1-2.54
		c-1.77-1.98-3.6-3.96-5.65-5.65c-5.99-4.92-6.35-11.59-5.53-18.38c0.27-2.23-0.51-4.1-0.64-6.13c-0.6-9.52,1.87-18.59,3.49-27.79
		c2.79-15.9,8.29-31.12,11.9-46.82c1.68-7.3,2.64-14.74,4.61-21.99c0.95-3.52-0.19-7.15-1.87-10.46
		c-8.26-16.3-15.96-32.89-26.42-47.98c-2.56-3.69-3.23-7.29-0.8-11.86c3.14-5.91,5-12.47,4.24-19.43c-0.57-5.26,1.27-10,3.44-14.63
		c1.06-2.27,2.23-4.51,5.36-4.21c-1.72-9.92,1.46-17.87,7.7-24.97c2.78,1.02,3.52,2.82,3.55,5.44c0.04,3.7-0.7,7.52,1.05,11.17
		c1.37-3.72,2.46-7.44,3.84-11.06c1.83-4.8,5.23-8.3,8.84-11.68c1.26-1.18,2.8-1.11,4.11-0.24c1.26,0.84,1.02,2.02,0.66,3.49
		c-0.86,3.48-1.56,7-1.66,10.66c-0.12,3.92,0.92,7.09,3.79,9.75c2.29-7.31,4.51-14.68,11.46-19.63c3.36,3.11,2.29,7.21,1.52,10.25
		c-1.12,4.4-0.15,7.97,1.26,11.88c3.04,8.45,3.88,17.04-0.63,25.25c-4.26,7.75-4.31,15.73-1.7,23.79c1.02,3.14,0.93,6.81,4.08,10.24
		c0.67-4.68-0.21-8.77,1.3-12.53c1.27-3.17,2.01-6.58,3.55-9.59c1.99-3.87,9.53-6.68,14.6-4.81c4.11,1.51,5.81-0.48,7.79-3.01
		c2.02-2.57,4.02-5.16,6.01-7.74c0.97-1.25,2.36-1.73,4.21-2.28c1.68,3.79,1.31,7.95,0.62,11.62c-1.33,7.09-5.24,13.14-10.92,17.57
		c-4.52,3.53-6.35,7.94-6.89,13.33c-0.4,4.03,0.34,7.99,1.43,11.7c1.19,4.07,0.62,7.61-1.56,10.77c-3.19,4.61-4.93,9.98-8.18,14.52
		c-1.67,2.34-2.13,4.84-1.75,7.77c0.4,3.11,0.3,6.34,0.05,9.48c-0.78,10.05,2.23,19.48,4.6,29c1.37,5.51,3.14,10.93,4.74,16.43
		c1.92-0.12,3.12-1.41,4.41-2.66c10.97-10.67,22.56-20.63,35.54-28.77c4.96-3.11,7.78-7.88,11.19-12.17
		c5.61-7.04,11.89-13.39,19.16-18.56c2.99-2.13,4.84-4.93,6.89-7.57c4.11-5.27,8.38-10.06,15.17-11.77c0.46-0.12,1.2-0.27,1.28-0.56
		c1.89-6.69,8.22-6.05,13-7.97c0.28-0.11,0.45-0.48,0.82-0.88c-2.75-3.37-6.58-6.03-7.78-11.54c5.79-1.28,11.47,0.49,17.11,0.92
		c1.43-0.83,0.58-2.56,1.67-3.57c-1.94-0.68-4.06-0.07-5.78-1.36c-5.28-3.94-11.38-6.91-15.56-12.16
		c-3.26-4.11-5.45-8.95-6.92-13.95c-1.32-4.5-1.17-9.43-0.19-13.83c0.86-3.86,5.42-5.38,8.66-7.53c5.44-3.6,11.78-5.53,17.25-9.13
		c1.4-0.92,2.82-1.66,3.54-2.94c-0.91-5.81-3.9-9.04-9.56-11.07c-6.37-2.28-11.49-7.18-15.66-12.52c-3.15-4.04-3.94-9.35-4.43-14.32
		c-0.54-5.54-0.72-11.26,1.44-16.63c0.89-2.22,0.05-3.61-1.37-5.27c-6.47-7.6-10.02-16.46-10.15-26.45
		c-0.09-6.71-0.87-13.5,1.81-20.05c2.01-4.9,4.91-6.77,9.63-4.89c7.11,2.83,14.17,5.83,21.1,9.08c3.97,1.86,7.92,3.72,12.28,5.37
		c11.96-12.96,26.38-20.29,44.79-17.34c1.55-9.44,5.1-17.44,9.29-25.2c3.04-5.64,6.31-11.1,10.97-15.61c3.55-3.43,7-3.47,10.85-0.3
		c3.27,2.7,5.4,6.25,7.1,9.93c4.91,10.62,9.4,21.44,14.28,32.07c1.2,2.6,3.22,4.5,6.14,5.96c13.88,6.92,24.97,16.91,31.46,31.31
		c2.95,6.55,4.32,13.62,6.24,20.51c1.15,4.12,3.07,7.89,5.75,11.26c3.6,4.52,8.31,5.43,13.67,4.35c-2.77,7.58-3.6,8.38-12.93,12.66
		c11.94,17.05,13.64,35.07,5.29,54.09c-0.8-4.72-0.5-9.69-4.81-13.96c0,3.63-0.07,6.81,0.01,9.98c0.21,8.37-1.91,16.2-5.58,23.63
		c-2.24,4.54-4.16,9.2-5.96,13.92c-1.11,2.91-0.51,5.26,2,6.95c3.47,2.34,7.12,3.74,11.53,2.69c2.67-0.63,5.41-2.14,8.38-0.94
		c0.12,4.29-2.45,6.99-5.7,10.34c3.36,0,5.78-0.13,8.19,0.03c3.04,0.21,3.74,1.44,2.38,4.22c-2.19,4.47-5.15,8.26-10.26,10.28
		c6.24,4.8,7.25,11.41,6.92,18.3c-0.19,3.96,0.75,6.93,3.86,9.56c4.58,3.87,6.79,9.57,10.1,14.42c0.76,1.12,1.47,2.22,2.56,2.94
		c13.64,9.08,22.79,21.99,30.84,35.88c6.64,11.47,12.74,23.2,16.81,35.85c3.02,9.39,6.45,18.63,8.08,28.48
		c0.87,5.29,1.62,10.63,2.58,15.92c0.69,3.81-1.2,7.68-2.06,11.48c-0.42,1.86-0.28,3.34-0.05,5.16c1.15,9.03,0.39,17.28-6.86,24.47
		c-7.25,7.19-14.92,13.88-22.24,20.96c-11.59,11.21-22.18,23.38-33.59,34.77c-6.19,6.18-11.33,13.41-16.93,20.18
		c-0.09,0.11-0.03,0.42-0.12,0.47c-6.6,3.31-8.55,10.38-13.27,16.35c6.7,0.19,12.86,0.95,19.46,1.86c-1.59,2.85-3.56,4.3-5.5,5.96
		c15.18,4.33,30.22,8.96,43.53,17.57c4.42,2.86,9.5,5.66,10.85,11.57c0.35,1.52,1.65,1.61,2.53,2.06
		c12.55,6.46,23.77,14.88,35.11,23.17c6.14,4.49,12.12,9.17,17.28,14.63c11.04,11.68,21.43,23.84,29.18,38.19
		c8.48,15.69,14.92,32.23,21.86,48.58c6.69,15.76,11.37,32.22,15.51,48.78c2.09,8.36,3.24,16.98,4.68,25.52
		c1.28,7.62,1.15,15.37,2.79,22.92c0.24,1.12,0.06,2.33,0.06,3.49c0,7.67-0.21,15.34,0.05,22.99c0.43,12.94-1.95,25.55-4.21,38.15
		c-1.98,11.05-4.71,21.97-8.32,32.6c-2.87,8.47-7.19,16.35-11.18,24.34c-3.67,7.34-8.72,13.6-14.95,18.84
		c-3.66,3.08-6.89,6.48-10.16,9.94c-2.55,2.7-3.12,5.89-3.99,8.87c-3.95,0-5.89-2.69-8.03-4.4c-6.57-5.24-12.51-11.15-18.12-17.51
		c-4.85-5.49-10.38-10.61-16.61-14.72c-0.82-0.54-1.79-0.85-2.3-1.75c-4.16-7.38-9.18-14.22-13.28-21.66
		c-6.4-11.58-13.07-22.98-17.82-35.39c-1.64-4.28-2.26-8.85-4.08-13.03c-2.17-4.99-2.16-10.44-3.67-15.52
		c-0.63-2.1,0.54-3.53,0.83-5.2c1.13-6.58,1.2-13.3,3.1-20.37c-7.28,9.17-9.51,22.34-5.44,30.03
		c-11.21-7.04-15.64-15.12-15.81-27.95c-0.15-11.58,1.92-22.82,3.75-34.2c2.95-18.23,2.23-36.4-5.84-53.58
		c-4.61-9.81-10.64-18.64-17.59-26.98c-5.11-6.13-11.05-11.33-17.13-18.07c0.1,6.11-0.9,11.08,0.59,16.09
		c0.41,1.39,0.26,2.96,0.26,4.45c0.01,20.5,0.18,40.99-0.08,61.49c-0.1,7.49,1.23,14.83,1.26,22.3c0.02,4.48,2.09,8.81,3.7,13.17
		c-0.88,2.84-4.07,3.51-6.03,5.84c2.36,2.77,3.54,6.14,4.88,9.45c3.99,9.85,11.01,16.83,20.52,21.34
		c6.81,3.23,13.61,6.55,19.21,11.62c5.11,4.61,9.04,10.29,12.69,16.17c6.9,11.12,9.14,23.56,10.86,36.2
		c1.37,10.06,4.14,19.73,8.27,28.99c1.19,2.66,2.5,5.27,3.86,7.86c0.39,0.74,0.91,1.38,0.81,2.27c-1.06,9.54,2.6,16.73,10.32,22.41
		c3.38,2.48,4.39,7.18,7.44,10.25c2.93,2.95,3.62,6.65,3.38,10.82c-0.34,5.98-0.11,11.99-0.08,17.99c0.05,12.61-1.7,25.17-1.01,37.8
		c0.03,0.5,0.18,1.13-0.06,1.48c-4.15,6.06-0.54,12.14,0.53,17.9c1.19,6.39,1.45,13.08,3.67,19.17c2.7,7.4,2.53,15.4,5.49,22.69
		c0.47,1.17,0.34,2.61,0.35,3.93c0.04,4.83,0.04,9.66,0.01,14.5c-0.05,8.13-4.89,13.06-13.09,13.38c-2.58,2.09-3.06,5.7-5.7,7.99
		c-4.26-1.9-1.19-9.41-8.1-9.41c-3.3,2.41-7.67,3.9-12.38,3.28c-1.29,2.26-1.24,4.69-2.74,6.61c-2.38-0.36-3.06-2.4-3.68-4.06
		c-0.83-2.23-2.65-3.09-4.48-3.36c-1.98-0.29-3.98-0.41-5.6-1.58c-1.34-0.97-2.16-0.05-3.13,0.41c-2.24,1.05-4.72,2.05-7,1.85
		c-4.16-0.37-4.94,1.83-5.62,5.08c-0.43,2.08-0.2,4.78-3.05,5.75c-2.64-1.67-3.39-4.6-4.42-7.35c-1.39-3.71-5.73-6.11-9.8-5.46
		c-0.98,0.16-2.02,0.27-2.98,0.1c-3.01-0.54-4.38,1.39-5.01,3.67c-0.69,2.47-1.51,4.67-3.73,6.14c-3.61-2.55-2.01-7.56-4.03-9.96
		c-2.58-3.06-4.71-5.52-4.48-9.69c0.33-5.93-0.4-11.88,0.96-17.79c0.51-2.2,1.34-3.95,2.81-5.59c5.14-5.74,10.4-11.32,18.03-13.72
		c1.68-0.53,1.22-1.83,1.52-2.76c2.18-6.72,3.42-13.68,3.63-20.69c0.35-11.99,0.41-24-0.01-35.99c-0.32-9.14-1.32-18.35-4.04-27.12
		c-2.23-7.17-1.85-14.35-1.75-21.59c0.05-3.88-3.14-8.27-6.96-8.82c-1.24-0.18-2.43-0.33-2.9-1.52
		c-4.04-10.32-11.63-18.41-17.32-27.69c-5.12-8.34-10.63-16.43-15.87-24.7c-2.17-3.42-5.52-5.69-8.02-8.79
		c-4.5-5.6-6.25-12.46-9.01-18.86c-0.71-1.64-0.94-3.61-2.82-4.4c-5.8-2.43-9.16-7.5-12.66-12.2
		c-7.61-10.21-14.21-21.06-18.64-33.11c-0.47-1.27-1.52-2.9-0.74-3.69c3.94-3.95,0.72-7.57-0.64-10.83
		c-6.65-15.94-13.44-31.83-20.63-47.53c-9.17-20.02-16.47-40.73-23.31-61.62c-3.75-11.44-6.72-23.11-9.47-34.83
		C255.42,680.79,256.05,679.24,254.69,676.8z M352.35,363.77c-3.07,5.15-5.46,10.87-10.59,14.53c-1.55,1.11-2.38,2.44-3.22,4.04
		c-4.57,8.66-9.24,17.27-13.93,25.87c-2.49,4.56-5.17,9.02-3.98,14.61c0.68,3.17-1.09,5.74-2.6,8.26c-1.62,2.69-3.56,5.23-6.09,7.1
		c-4.22,3.11-5.13,7.78-6.21,12.37c-0.28,1.2-0.2,2.51,0.67,3.78c3.33,4.88,3.21,5.69-0.66,10.64c0.96,2.74,1.97,5.48,2.86,8.25
		c0.76,2.36,1.3,4.46,4.44,5.18c1.76,0.41,3.78,2.23,3.59,4.83c-0.12,1.68,0.72,2.42,1.99,3.46c3.37,2.74,7.13,4.33,11.27,5.39
		c3.92,1,8.77,0.58,11.5,3.53c4.07,4.39,9.08,5.4,14.36,6.36c3.57,0.65,4.74-0.31,4.92-4.06c0.04-0.88,0.12-1.68,0.84-2.22
		c2.17-1.62,2.36-4.18,3.17-6.46c2.3-6.43,4.53-12.89,6.99-19.25c5.05-13.05,9.7-26.25,15.74-38.92c1.56-3.28,3.42-5.79,6.09-8.04
		c3.38-2.84,7.11-5.13,11.24-7.21c-15.35-17.13-22.5-37.67-27.18-59.78c-8.61,11.42-18.91,18.76-30.74,21.69
		C349.93,373.11,351.5,368.65,352.35,363.77z"/>
	<path fill="#1A1A1A" d="M446.18,801.82c-9.91,10.54-14.61,23.02-17.94,36.03c-4.81-5.47-6.21-9.21-6.58-17.57
		c-0.53-11.92,1.9-23.5,3.75-35.2c2.32-14.71,2.22-29.47-2.16-44.02c-4.34-14.4-12.28-26.53-21.81-37.92
		c-4.81-5.75-9.98-11.13-15.48-16.13c-4.09-3.72-5.17-8.17-5.28-13.14c-0.28-11.87-1.8-23.62-2.84-35.41
		c-0.62-7.04-1.52-14.06-2.34-21.06c-1.18-10.03-3.24-19.97-5.12-29.91c-1.54-8.15-4.73-15.92-5.79-24.2
		c-0.31-2.38-2.26-3.93-3.79-6.05c6.04-0.38,10.47-2.99,13.13-8.43c4.3,2.67,9.24-0.47,13.12,2.62c-2.98,2.21-6.72,1.79-10.15,2.89
		c19.79,5.06,39.19,10.79,56.34,22.27c-5.4-0.29-10.38-3.11-15.51-3.22c-4.94-0.11-9.72-3.86-15.01-1.23
		c1.43,2.44,4.08,2.9,5.39,2.64c5.01-0.96,9.1,1.57,12.78,3.6c7.06,3.91,14.97,5.44,22.07,9.18c8.38,4.41,16.44,9.26,24.25,14.56
		c8.8,5.98,17.21,12.53,25.29,19.42c6.68,5.69,12.67,12.2,18.05,19.16c9.23,11.95,16.8,24.98,22.77,38.79
		c8.77,20.31,17.66,40.56,23.72,61.98c4.1,14.47,7.2,29.06,9.69,43.86c3.29,19.55,3.49,39.24,2.69,58.89
		c-0.5,12.36-3.12,24.63-5.91,36.73c-2.73,11.85-5.92,23.75-11.39,34.55c-5.48,10.83-9.93,22.56-19.99,30.62
		c-4.23,3.38-7.73,7.67-12.07,11.37c0.13-9.83-1.14-19.46,0.26-29.17c0.75-5.18,0.62-10.51,1.3-15.75c0.18-1.37-0.03-2.66-1.78-3.41
		c-3.7,8.4-2.02,17.5-2.91,26.18c-0.92,8.9-1.3,18.09,0.26,27.37c-25.19-21.97-47.53-45.92-58.59-78.43
		c-2.1,2.23-2.1,2.23,0.76,11.25c-1.89-0.25-1.94-2.05-2.5-3.15c-5.98-11.78-11.33-23.75-14.64-36.7
		c-1.58-6.17-3.13-12.18-2.43-18.37c1.13-10.03,2.31-20.14,6.05-29.65C446.52,805.87,446.81,804.31,446.18,801.82z"/>
	<path fill="#1A1A1A" d="M323.48,286.06c3.03-5.29,3.36-10.42,2.72-16.29c-1.16-10.61-8.12-18.4-11.97-27.65
		c-3.68-8.84-4.43-17.88-1.69-27.2c0.75-2.56,3.07-3.76,4.01-6.1c0.49-1.22,1.57-2.1,0.32-4.02c-6.87,5.42-11.21,12.3-13.51,20.66
		c-6.87-10.84-1.62-27.14,12.09-37.89c-0.84-1.2-1.6-1.99-3.17-0.69c-1.62,1.34-3.64,2.19-5.27,3.51c-2.89,2.35-6.11,2.96-9.71,2.55
		c5.33-8.73,17.02-11.59,24.29-5.99c1.77-1.73,1.77-1.73,2.41-8.45c2.41-0.7,4.88-1.59,7.32-2.17c2.61-0.62,4.46-2.18,5.38-4.02
		c3.52-7.04,8.94-13.48,7.97-22.17c-0.28-2.49,0.87-4.46,2.57-6.16c1.26-1.25,2.43-2.5,1.1-5.19c-4.61,5.8-8.96,11.89-17.19,9.96
		c-5.74-1.35-11.32-3.42-13.29-10.22c2.81-1.19,5.88,0.19,8.69-0.85c8.76-3.26,14.64-9.94,17.64-18.16
		c3.83-10.5,6.85-21.37,6.62-32.92c-0.12-6.05-2.35-11.14-4.61-16.34c-2.08-4.77-4.59-9.35-6.93-14c-0.29-0.58-0.83-1.07-0.04-1.95
		c3.06,0.27,5.46,2.37,7.89,4.01c13.12,8.88,20.91,21.4,24.54,36.69c1.2,5.06,2.45,10.08,4.87,14.79
		c3.07,5.96,7.93,10.36,15.02,11.85c-3.95,3.85-7.68,5.89-13.61,4.8c-4.85-0.89-7.94-5.06-12.82-5.48c1.84,2.86,3.59,5.99,6.8,6.68
		c8.8,1.88,12.52,8.64,15.3,15.85c3.22,8.35,3.8,17.28,3.33,26.22c-0.05,0.91-0.73,1.79-1.37,3.26
		c-3.91-8.78-12.15-13.48-17.17-20.93c-1.1-1.63-2.23-0.87-3.06,0.4c2.09,3.86,5.63,6.52,8.05,10.17c2.49,3.76,3.33,7.68,3.65,11.97
		c0.92,12.35-2.58,23.63-8.01,34.49c-1.09,2.19-2.3,4.31-3.06,6.67c-2.27,7.09,0.95,12.35,8.22,14.44
		c3.94,1.13,7.65,0.68,12.23-0.19c-2.46,4.87-6.25,6.62-10.43,7.51c-1.22,0.26-1.83,0.71-1.81,1.59c0.02,1.04,0.7,1.55,2.03,1.34
		c5.28-0.82,10.59-0.18,16.11-0.38c-1.81,7.02-8.14,8.1-14.72,10.82c10.77,3.84,11.48,11.81,11.39,20.47
		c-1.66-0.82-1.77-2.11-2.02-3.51c-1.48-8.35-6.48-13.14-14.8-14.81c-7.33-1.48-14.6-3.3-21.88-5.01c-4.31-1.01-4.81-1.43-8.66-6.7
		c-1.2,0.72-2.31,1.48-0.88,2.93c3.41,3.46,4,8.07,5.08,12.45c0.79,3.2-0.75,6.06-1.72,8.99c-2.35,7.14-7.61,11.69-13.82,15.27
		C330.57,282.88,326.96,284.37,323.48,286.06z"/>
	<path fill="#1A1A1A" d="M345.8,558.2c4.88-0.4,9.13-0.44,13.56,1.47c0.84,3.39,0.75,7.44,1,11.25c0.39,5.92,1.05,11.85,1.48,17.76
		c0.67,9.14,1.3,18.31,2.54,27.43c0.75,5.5,1.07,11.17,1.19,16.77c0.25,11.82,0.53,23.67-0.08,35.47
		c-0.42,8.14-0.87,16.36-2.64,24.42c-0.8,3.67-0.75,7.55-0.99,11.28c-0.56,8.71-1.42,17.4-2.34,26.06
		c-1.14,10.68-3.28,21.22-6.12,31.65c-3.72,13.66-10.94,25.38-19,36.67c-3.35,4.7-7.91,8.39-13.01,11.23
		c-3.18,1.77-6.53,1.83-9.99,0.68c-6.07-2.02-5.95-2.64-5.16-8.73c1.66-12.79,8.49-23.1,14.98-33.63
		c5.89-9.55,10.01-19.65,11.52-30.9c1.48-11.04,2.63-22.12,4.05-33.16c1.52-11.79,1.17-23.59,0.57-35.28
		c-0.48-9.35-0.01-18.84-1.81-28.08c-1.28-6.6-1.9-13.29-2.69-19.92c-0.82-6.9,0.35-14.03-0.42-20.94
		c-0.56-5.02-0.03-9.66,1.28-14.33c0.55-1.98,0.83-4.18,2.69-5.62C343.32,574.36,345.67,566.92,345.8,558.2z M312.66,796.79
		c-0.03,5.17,3.39,8.15,9.4,8.19c5.54,0.03,8.65-3.45,8.6-9.64c-0.04-4.15-4.18-8.12-8.7-8.35
		C317.98,786.81,312.68,792.39,312.66,796.79z"/>
	<path fill="#1A1A1A" d="M292.86,80.54c-1.07,4.31,2.15,7.68,3.43,11.43c1.35,3.94,3.59,7.65,5.83,11.3c2.35,3.83,5.39,7,8.14,10.59
		c-8.3-3.2-17.01-5.31-24.26-10.88c-7.09-5.45-13.65-11.21-15.09-20.81c-2.68,1.03-2.66,2.83-2.03,4.26
		c2.41,5.4,2.92,11.3,4.68,16.87c0.3,0.95,0.47,2.22-0.59,3.58c-6.38-6.81-11.37-14.21-13.04-23.83c-2.1,2.22-2.95,4.02-2.1,5.29
		c3.94,5.9,1.5,11.29-1.21,16.61c-0.84,1.64-1.71,3.43-3.66,5.03c-0.93-7.54,0.96-14.9-2.26-21.83c-0.76,0.48-1.51,0.73-1.52,0.99
		c-0.13,7.14-4.59,12.32-8.02,17.98c-3.22,5.3-6.5,10.55-9.61,15.92c-3.54,6.13-2.68,12.68-2.96,20.03
		c-3.4-4.79-4.15-9.54-4.95-14.31c-0.84-5.04-1.37-9.94-0.35-15.13c0.88-4.47,4.24-8.41,3.08-13.25
		c-10.65,13.91-6.72,28.5-1.85,43.05c-1.25,1-2.16,0.39-3.26-0.13c-11.47-5.44-17.44-14.27-17.66-27.14
		c-0.2-11.64,4.29-21.68,9.93-31.38c1.47-2.52,3.06-4.99,4.91-7.33c3.9-4.95,3.77-5.09,9.22-3.35c1.83,0.58,4.63,2.72,5.43,0.55
		c1.21-3.29-2.82-2.83-4.55-3.42c-5.47-1.87-8.83-6.42-14.43-9.63c6.11-1.27,10.7,0.53,15.4,1.49c4.53,0.92,8.09,4.66,13.06,4.88
		c-0.18-3.39-3.35-3.4-4.69-5.42c10.94-12.33,24.28-18.57,41.36-16.09c0.82,3.51,0.35,7.22,0.3,11.08
		c-7.44-4.95-7.75-4.63-11.54,2.24c-1.35-1.26-2.68-2.5-4.08-3.8c-2.99,1.37-4.29,4.04-5.76,6.8c-3-1.95-6.05-2.51-8.85,0.2
		c-1.78,1.72-2.38,6.6-1.13,8.92c2.24-2.21,1.43-6.09,4.52-7.84c2.31,0.22,4.16,1.44,5.8,3.51c-0.05,1.91-2.28,4.2,0.97,6.46
		c1.74-4.61-0.39-10.34,4.45-13.93c4.05,3.48,3.02,9.59,6.08,13.81c2.35-1.54,2.27-3.98,1.26-5.35c-3.23-4.42,0.09-7.52,1.23-11.76
		c8.44,4.8,10.39,13.74,15.42,20.17c1.58-0.96,1.83-1.76,1.07-3.39c-0.65-1.37-1.72-2.35-2.4-3.68c-1.39-2.72-1.19-4.97,0.85-7.1
		c2.05-2.14,4.1-3.04,7.39-1.89c8.12,2.84,15.82,6.2,21.78,12.64c5.33,5.75,8.36,12.84,10.95,20.06c1.24,3.46,3.27,6.79,2.98,11.63
		c-4.13-3.72-7.83-7.01-11.85-9.91c-5.52-3.97-11.36-7-17.68-9.26C296.18,84.34,296.15,84.41,292.86,80.54z"/>
	<path fill="#1A1A1A" d="M331.59,160.1c-0.6,1.11-0.25,1.9,0.42,3c0.96,1.58,1.6,3.46,1.73,5.81c-3.84-2.35-7.24-4.43-10.65-6.52
		c-1.89,1.09-1.82,2.95-0.05,3.23c4.32,0.69,5.35,5.43,9.37,6.51c-2.48,1.6-4.75,2.64-7.49,3.02c-2.79,0.39-5.29-1.99-8.16-0.69
		c-0.12,3.16,6.24,3,3.37,7.17c-8.17-3.92-16.2-3.51-24.33,0.76c-10.9,5.72-21.2,12.32-30.38,20.49
		c-7.37,6.56-15.65,11.26-25.32,12.83c-7.24,1.17-14.13,0.05-20.41-4.83c-3.35-2.6-6.78-5.01-9.67-8.04
		c0.45-1.33,0.79-2.57,1.61-3.42c-0.15-1.52-1.51-2.89-2.05-2.72c-3.87,1.24-3.81-1.96-4.49-3.93c-0.55-1.62-1.58-3.22-1.33-5.79
		c3.27,3.6,7.93,3.62,11.03,6.58c0.92,0.87,2.13,0.66,3.13-0.28c3.02-2.8,5.8-5.83,9.11-8.36c1.82-1.39,2.26-4.31,2.56-6.71
		c0.29-2.34,1.5-4.05,3.5-4.19c4.53-0.31,6.74-4.07,10.09-6.09c2.78-1.68,5.12-4.11,7.93-5.73c3.88-2.23,4.57-7.06,8.24-9.39
		c1.36-0.87,2.17-2.41,3.87-3.01c0.94-0.33,1.96-1.13,2.75-0.6c2.47,1.65,5.23,1.63,7.99,2.07c5.42,0.88,8.64,5.12,12.15,8.79
		c1.15,1.2,0.18,2.93,0.81,4.42c9.02-9.16,9.66-21.3,11.91-33.45c5.55,0.59,11.46-1.85,16.47,3.36c-0.64,1.06-2.98,1.2-1.75,3.76
		c3.9,8.13,12.08,13.93,20.78,13.98c2.49,0.01,4.31-1.42,6.75-2.02c2.37,6.14-2.55,10.42-3.6,15.61c-3.09-0.85-1.76-6.2-6.05-5.48
		c0.31-0.92,1.58-1.81,0.11-2.78c-1.39-0.91-1.98,0.21-2.65,1.07C329.46,159.65,330.35,160.18,331.59,160.1z M219.02,208.24
		c0.5,0.32,1.01,0.64,1.51,0.96c0.6-0.79,1.64-1.54,1.74-2.39c0.55-4.82,3.53-3.91,6.35-2.66c5.41,2.4,10.23,2.03,14.86-1.94
		c1-0.86,2.24-1.8,3.62-2.43c1.41-0.65,2.87-1.86,3.32-4.4c-2.91,0.73-4.68,2.12-6.35,3.74c-2.42,2.35-5.7,3.94-8.7,3.61
		c-4.06-0.44-8.29-1.38-11.88-3.83C220.27,201.54,219.01,204.64,219.02,208.24z M241.71,184.28c-0.26-0.54-0.52-0.95-0.67-1.4
		c-0.96-2.81-2.44-3.18-5.27-2.01c-2.84,1.17-4.95,2.47-5.05,5.71c-0.05,1.54,1.02,2.18,2.53,2.49
		C237.26,189.89,239.24,187.16,241.71,184.28z M251.46,190.58c-4.64-4.69-7.82-4.72-12.56-0.05c1.4,2.37,4.02,3.07,5.83,4.56
		c1.31-0.72,2.26-1.43,3.33-1.78C249.39,192.86,250.31,192,251.46,190.58z M238.8,196c-4.6-5.18-7.11-5.44-10.74-1.34
		C232.9,200.07,234.19,200.26,238.8,196z"/>
	<path fill="#1A1A1A" d="M383.07,946.09c-4.82-7.66-9.6-15.02-14.14-22.52c-2.86-4.72-5.58-9.45-10.05-12.92
		c-2.37-1.84-3.8-4.45-5.32-7c-2.78-4.66-3.95-9.91-6.09-14.69c6.54-5.01,14.28-6.91,20.98-10.88c5.82-3.46,10.98-7.69,15.86-12.3
		c3.5-3.3,3.23-3.05,7.13-0.63c13.76,8.55,21.08,21.49,25.48,36.5c1.83,6.26,2.74,12.73,3.64,19.16c0.36,2.58,1.34,5.03,1.2,7.77
		c-0.14,2.62-0.95,4.21-3.3,5.48c-7.2,3.88-14.75,6.89-22.3,9.95c-2.07,0.84-4.12,0.96-6.26,0.97
		C387.62,944.98,385.31,944.65,383.07,946.09z"/>
	<path fill="#1A1A1A" d="M257.45,1096.46c-4.3-5.62-11.57-4.14-17.02-7.04c-5.42-2.89-11.16-5.17-16.99-7.82
		c0.99-2.04,1.82-3.77,2.79-5.77c11.76,4.95,24.19,6.61,36.43,9.02c2.68,0.53,4.55,0.01,5.31-3.42c1.91-8.58,4.53-17.01,8.79-24.75
		c3.45-6.27,7.14-12.49,14.1-15.61c1.16,0.87,0.83,1.96,0.76,2.86c-0.68,8.47,0.68,16.88,1.27,25.26
		c0.54,7.62,1.51,15.29,2.52,22.92c1.35,10.18,0.73,20.51-4.8,29.64c-3.73,6.15-9.76,9.92-16.7,11.06c-12.44,2.05-25,1.75-37.5,0.09
		c-1.42-0.19-2.77-0.85-4.34-1.34c1.87-1.05,2.69-2.37,2.66-4.49c-0.05-3.81-0.5-7.65-1.7-11.13c-2.65-7.7,1.16-13.63,4.8-19.45
		c2.05-3.29,6.05-3.12,9.52-2.16c2.48,0.69,4.89,1.8,7.14,3.07C255.99,1098.24,256.59,1097.55,257.45,1096.46z"/>
	<path fill="#1A1A1A" d="M383.49,450.18c5.82,1.83,8.18,1.05,11.51-3.92c3.98-5.94,8.14-11.77,10.75-18.5
		c0.66-1.69,2.19-2.01,3.75-1.65c8.56,2,17.1,4.05,23.73,10.27c-4.78,5.48-10.37,10.31-14.04,16.72c-0.99,1.73-0.75,3.56,0.45,5.54
		c2.85,4.72,6.59,8.62,10.71,12.55c-0.67,3.28-3.21,5.36-5.59,7.05c-6.16,4.37-10.41,10.56-15.4,15.96
		c-4.66,5.05-9.73,9.8-13.88,15.38c-3.61,4.85-8.31,8.84-11.56,14.34c-3.38-5.37-6.29-11.11-11.21-15.34
		c-0.88-0.76-1.63-1.68-2.58-2.33c-1.56-1.06-3.73-1.13-4.48-3.42c-0.9-2.74-0.68-5.55,0.19-8.01
		c4.92-13.93,10.09-27.78,15.26-41.62C381.47,452.19,381.74,450.9,383.49,450.18z"/>
	<path fill="#1A1A1A" d="M364.36,580.34c2.98,1.68,2.58,5.08,3.02,7.53c2.02,11.25,4,22.5,5.45,33.87
		c1.35,10.56,2.08,21.18,3.7,31.71c0.65,4.21,0.77,8.58,0.86,12.79c0.17,7.95,1.03,15.85,1.39,23.77
		c1.3,28.75,0.27,57.51,1.11,86.24c0.25,8.5-0.53,17.51,3.63,25.63c0.33,0.65,0.04,1.62,0.04,2.6c-2.05,1.04-4.07,2.06-6.26,3.17
		c-2.34-0.99-3.71-3.09-4.52-5.33c-1.6-4.37-4.63-7.54-7.91-10.58c-2.79-2.59-5.78-2.48-8.65,0.15c-2.84,2.61-4.24,6.18-6.36,9.27
		c-4.68,6.84-12.33,9.37-19.33,12.72c-3.95,1.89-8.25,2.93-12.53,3.91c-5.1,1.17-7.6-0.04-9.1-4.38c0.94-0.51,1.77-0.2,2.78,0.02
		c4.24,0.95,8.19,0.95,12.15-1.91c6.47-4.67,12.18-9.8,16.52-16.62c5.7-8.95,11.5-17.85,14.75-28c3.23-10.09,5.33-20.46,6.64-31.02
		c1.3-10.44,1.94-20.93,3.08-31.37c1.2-11.06,2.13-22.18,3.77-33.2c0.17-1.14,0.04-2.33,0.04-3.49c0-9.16-0.02-18.32,0.01-27.48
		c0.03-12.71-1.62-25.27-2.81-37.89c-0.69-7.37-1.72-14.79-1.35-22.26L364.36,580.34z"/>
	<path fill="#1A1A1A" d="M442.08,1075.63c-0.77-1.97-0.42-3.81-0.42-5.6c-0.03-21.99-0.12-43.98,0.06-65.96
		c0.04-5-0.75-9.88-1.53-14.72c-0.39-2.41,0.13-2.85,2.01-3.38c6.78-1.91,14.66-6.18,19.77-10.64c7.29,8.16,10.31,17.89,11.81,28.55
		c1.49,10.62-0.12,21.26,0.99,31.78c1.04,9.85-2.35,18.9-3.78,28.28c-0.37,2.41,0.08,4.86-0.9,7.31c-0.91,2.28-2.01,3.61-4.43,3.69
		C457.92,1075.21,450.21,1076.82,442.08,1075.63z"/>
	<path fill="#1A1A1A" d="M59.73,335.04c4.35-18.73,6.07-37.41,9.87-55.72c0.14-0.67-0.49-1.5-0.85-2.52
		c11.33,1.49,20.27-4.44,29.93-9.4c0,3.63,0.19,6.94-0.03,10.21c-0.82,11.7,2.34,22.68,5.65,33.68c2.9,9.65,5.78,19.37,7.13,29.33
		c0.64,4.78,1.77,9.73,1.1,15.07c-10.07-2.95-20.17-3.54-30.63-1.64c-0.27-4.68-0.42-8.92-1.09-13.14
		c-0.71-4.48-1.47-5.74-6.03-5.84C69.81,334.96,64.85,335.04,59.73,335.04z"/>
	<path fill="#1A1A1A" d="M204.88,934.71c-2.63-1.17-2.15-4.03-3.24-6.04c-7.1-13.06-12.08-27.05-17.57-40.81
		c-0.45-1.13-0.53-2.22-0.04-3.55c7.34-1.65,14.87-2.98,21.88-6.22c1.79-0.83,3.81-1.65,3.6-3.46c-0.49-4.14,2.03-5.85,4.66-7.39
		c19.52,16.75,30.77,37.21,28.09,64.34c-1.08,1.98-4.03,1.64-6.18,2.02c-9.08,1.6-18.29,2.65-27.36-0.17
		c-1.96-0.61-3.14-0.45-3.97,1.42L204.88,934.71z"/>
	<path fill="#1A1A1A" d="M241.89,985.88c7.99,0.63,15.22-0.8,22.13-2.38c4.87,23.87,3.46,48.09,3.66,72.23
		c0.02,2.78-0.24,5.53,0.81,8.33c0.95,2.53-0.06,5.3-1.25,7.61c-1.6,3.12-1.96,6.52-3.05,10.09c-7.1-1.27-14.22-2.63-21.38-3.77
		c-2.54-0.41-3.35-0.89-2.47-3.82c0.64-2.12-0.76-4.69-0.73-7.19c0.12-9.66,0.31-19.33-0.02-28.98
		c-0.42-12.13,0.66-24.21,1.29-36.28C241.15,996.69,241.33,991.56,241.89,985.88z"/>
	<path fill="#1A1A1A" d="M413.35,985.49c7.94,2.67,16.41,0.88,25.24,1.7c-2.44,5.26,0.12,10.27,0.1,15.4
		c-0.11,22.29-0.05,44.58-0.04,66.88c0,2.13-0.47,4.39,1.97,5.99c-6.78,1.62-12.88-0.62-19.08-0.7c-1.71-0.02-3.09-1.34-2.95-3.73
		c0.23-4.15-0.12-8.32,0.11-12.47c0.28-5.03-0.84-9.76-2.45-14.43c-1.67-4.83-2.1-9.83-2.79-14.86c-0.73-5.36-0.09-10.83-1.62-16.13
		c-0.57-1.99-0.76-4.61,0.08-6.38C415.22,999.77,413.11,992.62,413.35,985.49z"/>
	<path fill="#1A1A1A" d="M308,402.5c-5.83,3.05-12.04,3.99-18.75,3.38c3.12-5.28,0.21-9.56-2.18-13.87
		c-0.62-1.12-1.68-2.23-2.81-2.79c-9.5-4.74-7.29-13.61-6.25-20.9c1.37-9.6,4.72-18.75,11.22-26.71
		c8.1-9.93,17.57-17.02,30.23-19.54c0.8-0.16,1.57-0.36,2.36-0.58c5.81-1.6,11.93,1.19,14.54,7.28c0.81,1.88,2.18,3.16,3.14,4.97
		c-1.81,1.2-3.29,3.05-5.75,1.9c-1.13-0.53-1.93,0.25-2.63,0.63c-9.09,4.94-16.76,11.63-23.4,19.51c-4.55,5.4-8.28,11.28-10.5,18.08
		c-1.32,4.07-2.05,8.29-2.44,12.45C294.1,393.84,298.07,399.75,308,402.5z"/>
	<path fill="#1A1A1A" d="M165.19,328.12c8.63,8.02,15.6,16.9,18.69,27.79c3.57,12.59,3.39,25.2-4.05,36.96
		c-2.24,3.53-5.91,4.54-8.75,6.92c-1.22,1.02-2.67-0.21-3.62-0.87c-9.91-6.98-17.25-15.22-16.95-28.64
		c0.23-10.67,0.8-21.02,6.25-30.47C159.12,335.71,161.35,331.47,165.19,328.12z"/>
	<path fill="#1A1A1A" d="M245.35,930.53c2.4-26.92-8.73-47.86-28.9-64.69c8.03-4.96,15.72-9.09,23.64-11.96
		c4.25,4.25,8.07,8.32,12.16,12.12c5.52,5.13,9.31,11.37,12.46,18.1c0.48,1.03,0.95,2.01,0.99,3.24c0.29,8.91-0.68,17.64-2.2,26.46
		c-1.29,7.48-4.76,11.94-11.72,14.16C249.77,928.6,248.1,930.11,245.35,930.53z"/>
	<path fill="#1A1A1A" d="M264.23,323.06c2.51,0.56,4.44-1.37,7.36-2.17c-1.12,1.83-1.88,3.15-2.71,4.41
		c-3.14,4.8-5.4,9.76-7.04,15.47c-1.73,6.03-1.91,11.8-2.23,17.79c-0.41,7.76,3.11,13.95,7.74,19.57c3.55,4.32,8.03,7.74,12.6,11
		c4.13,2.95,7.18,6.76,7.68,12.07c0.37,3.91-0.37,4.9-4.25,4.79c-14.39-0.37-27.62-4.51-36.25-16.45
		c-4.69-6.49-8.69-14.29-8.43-23.03c0.15-4.92-0.41-9.8,0.76-14.78c1.19-5.06,4-8.61,7.81-11.55c5.72-4.41,10.47-9.94,16.55-13.9
		C265.08,325.48,263.32,324.53,264.23,323.06z"/>
	<path fill="#1A1A1A" d="M440.31,920.06c0.76,13.15,2.36,24.8,10.45,34.52c-7.64,7.56-17.23,12.18-27.98,14.89
		c-7.85,1.98-15.48,1.78-23.19-0.41c-1.37-0.39-2.36-0.76-2.99-2.16c-2.98-6.56-7.78-12.01-11.34-18.26
		C406.8,946.15,424.53,936.12,440.31,920.06z"/>
	<path fill="#1A1A1A" d="M333.5,338.56c1.93,6.23,3.8,12.49,3.36,19.55c-0.51,8.24-0.87,16.37-4.19,24.05
		c-3.69,8.54-10.02,14.62-18.72,17.6c-8.5,2.92-17.62-6.28-15.69-15.07c0.7-3.17,1.01-6.44,1.83-9.61
		c2.03-7.83,6.7-14.09,11.98-19.93C318.19,348.4,324.87,342.31,333.5,338.56z"/>
	<path fill="#1A1A1A" d="M392.69,842.07c0.41,3.56,3.84,4.22,6.02,5.81c8.58,6.23,17.92,11.5,25.39,19.15
		c7.57,7.75,12.67,16.77,13.67,27.96c0.56,6.35,2.04,12.62,1.89,19.06c-0.05,1.99-0.2,3.44-2.22,4.9
		c-4.36,3.15-7.21,8.15-12.36,10.52c-1.66-9.68-2.78-19.34-5.35-28.75c-3.77-13.79-10.33-25.63-22.05-34.34
		c-2.8-2.08-5.08-4.81-9.58-5.03c3.69-3.15,3.72-6.04,2.05-10.16c-0.86-2.12-0.66-6.7,2.68-8.96L392.69,842.07z"/>
	<path fill="#1A1A1A" d="M200.92,405.81c-9.68,1.09-18.74-0.91-28.19-4.14c8.27-2.57,11.56-9.15,13.71-15.72
		c4.03-12.36,3.66-24.79-2.15-36.85c-2.87-5.95-6.42-11.38-10.58-16.43c-1.87-2.28-3.99-4.39-7-5.81c4.88-3.4,9.19-6.98,14.13-9.82
		c6.93,5.41,14.07,10.72,17.72,18.93c6.52,14.63,8.82,29.6,2.71,45.19c-1.2,3.06-2.27,5.82-4.32,8.47
		C192.38,395.53,195.48,402.28,200.92,405.81z"/>
	<path fill="#1A1A1A" d="M204.74,934.85c8.66,4.53,17.91,3.6,27.03,2.49c10.64-1.3,20.45-5.24,29.91-11.54
		c-2.41,11.99-0.61,22.54,6.7,31.89c-4.79,3.9-10.62,5.14-16.32,6.09c-5.16,0.86-10.42,1.56-15.76,1.23
		c-6.07-0.37-12.02-1.23-17.77-3.17c-1.96-0.67-3.26-1.84-4.19-4.24c-2.54-6.51-4.92-13.14-8.49-19.23
		c-0.6-1.02-1.67-2.19-0.97-3.67L204.74,934.85z"/>
	<path fill="#1A1A1A" d="M288.08,311.43c-0.18-0.51-0.13-1.03,0.38-1.24c11.16-4.5,21.16-10.67,30.46-18.46
		c3.96-3.32,9.18-6.3,16.02-2.98c8.89,4.32,15.96,10.13,21.8,17.85c2.25,2.97,2.65,6.53,3.86,9.69
		c-5.38,6.75-12.15,11.34-19.53,15.54c-4.1-10.32-12.84-15.8-22.49-19c-8.09-2.68-16.86-4.3-25.65-1.92
		c-1.57,0.42-3.29,0.31-4.94,0.44L288.08,311.43z"/>
	<path fill="#1A1A1A" d="M183.04,308.04c2.35-5.36,0.78-10.57,2-15.42c0.8-3.18,4.32-5.02,6.4-7.7c4.5-5.78,10.41-8.75,18.06-7.96
		c3.52,0.36,7.18,0.56,11.04-0.86c-0.32,12.63,5.02,22.23,15.46,29.74c-6.38,1.59-9.01,7.31-13.7,10.58
		c-1.77,1.23-4.84,3.84-1.35,7.46C210.1,314.51,200.42,304.15,183.04,308.04z"/>
	<path fill="#1A1A1A" d="M384.33,284.56c-5.15,11.27-11.81,21.45-20.8,30.09c-4.81-15.08-16.2-23.38-30.01-29.86
		c8.51-5.03,15.18-11.19,18.21-20.35C364.73,266.49,373.19,269.38,384.33,284.56z"/>
	<path fill="#1A1A1A" d="M148.84,778.32c-3.4-19.03-5.43-38.18-5.94-57.51c1.78,6.94,3.81,13.74,6.7,20.28
		c3.18,7.22,7.39,13.75,12.43,19.81c7.27,8.72,16.46,14.73,26.58,19.6c6.14,2.96,8.81,9,6.97,15.32c-1.11,3.81-4.96,4.37-7.93,4.95
		c-5.4,1.05-10.56-0.42-15.65-2.8c-9.09-4.26-14.65-11.97-20.52-19.47C151.2,778.12,150.12,778.02,148.84,778.32z M170.67,788.39
		c-0.03,4.99,3.08,8.57,7.47,8.59c4.17,0.02,8.61-4.47,8.53-8.61c-0.07-3.5-4.94-7.44-9.11-7.39
		C173.81,781.04,170.7,784.38,170.67,788.39z"/>
	<path fill="#1A1A1A" d="M227.96,338.71c2.22,3.39,4.31,6.67,6.35,9.97c0.9,1.45,2.36,3.7,0.64,5.97c-0.5,0.67-0.38,1.95-0.25,2.92
		c1.02,7.57,0.5,15.44,4.41,22.45c0.54,0.97,0.72,2.15,1.12,3.4c-4.3,2.07-7.5,5.46-10.89,8.94c-6.28,6.46-13.91,11.29-23.16,12.93
		c-1.75,0.31-2.81-0.26-3.89-1.18c-6.02-5.16-5.53-13.28,0.94-17.96c11.27-8.16,18.99-19,23.45-32.11
		C228.34,349.13,228.68,343.97,227.96,338.71z"/>
	<path fill="#1A1A1A" d="M81.21,364.73c-13.57,1.88-26.09,4.29-37.25,11.07c-1.14-2.47-2.13-11.77-1.12-14.79
		c1.3-3.89,2.35-8.04,2.5-11.89c0.23-6.21,4.32-7.57,8.55-8.97c6.46-2.15,13.22-2.44,20.01-2.15c2.35,0.1,3.36,0.77,3.9,3.34
		c1.25,5.93,0.74,11.86,0.88,17.79C78.72,361.12,78.38,363.19,81.21,364.73z"/>
	<path fill="#1A1A1A" d="M464.18,1132.58c-2.77,1.35-5.78,2.34-9.44,2.26c0.21-2.55,1.64-4.41,2.21-6.52
		c1.55-5.71-0.45-11.29-5.46-13.98c-2.42-1.3-5.5,0.27-5.76,3.33c-0.24,2.78-1.47,5.37-1.16,8.27c0.29,2.79,0.06,5.63,0.06,8.57
		c-0.91-0.22-1.57-0.6-2.11-0.48c-4.28,0.97-5.59-2.23-5.65-5.05c-0.1-4.16-1.75-8.15-1.19-12.27c1.12-8.39,0.71-16.97,3.83-25.12
		c1.28-3.33,3.08-5.09,6.42-4.57c5.6,0.87,11.34,1.21,16.55,3.88c4.01,2.06,5.12,3.94,3.51,8.2c-3.34,8.83-3.61,17.97-3.38,27.21
		C462.67,1128.48,463.8,1130.32,464.18,1132.58z"/>
	<path fill="#1A1A1A" d="M321.93,318.29c-15.23,2.71-26.37,10.77-35.59,22.28c-9.43,11.78-12.25,25.27-11.71,40.52
		c-7.77-6.22-12.14-13.33-11.93-22.69c0.1-4.42-0.53-8.82,0.69-13.29c0.62-2.27,1.67-3.75,3.05-5.38
		c12.57-14.83,29.68-20.74,47.88-24.56C315.82,314.84,318.05,315.78,321.93,318.29z"/>
	<path fill="#1A1A1A" d="M270.67,1058.49c0-14.05-0.01-28.19,0.01-42.34c0-2.73,1.57-4.74,3.58-6.21
		c5.32-3.92,11.02-7.09,17.92-6.94c1.4,0.03,2.49-0.79,4.42-0.94c0.36,11.27-2.04,22.38-0.65,33.55c-5.3-0.01-8.19,3.49-11.31,6.06
		c-4.95,4.08-8.96,9.1-11.05,15.38C273.18,1058.22,272.44,1059.11,270.67,1058.49z"/>
	<path fill="#1A1A1A" d="M240.25,985.88c-0.32,1.72-1.72,2.44-1.6,3.99c0.46,6.12-0.68,12.2-1.16,18.25
		c-1.43,17.92-0.47,35.82-0.8,53.73c-0.09,4.86-0.55,9.8,2.41,15.02c-5.93-2.24-11.38-2.9-16.26-5.36c2.27-7.69,2.5-15.54,3.89-23.2
		c1.52-8.41,1.38-16.9,0.77-25.25c-0.82-11.12-0.67-22.34-2.74-33.36c-0.3-1.6-0.04-3.3-0.04-5.04
		C229.9,984.73,234.72,986.58,240.25,985.88z"/>
	<path fill="#1A1A1A" d="M435.03,437.41c3.12,1.52,5.37,3.93,7.75,6.22c2.35,2.27,3.93,2,5.89-0.78
		c4.22-5.97,9.42-10.98,14.82-15.94c3.96,7.65,2.15,17.41-2.8,23.79c-5.75,7.42-13.49,12.62-19.73,19.42
		c-1.3,1.42-3.11,2.38-4.6,3.49c-2.43-2.55-4.95-5-7.23-7.65c-9.73-11.3-9.82-9.54,0.06-20.97c1.19-1.38,2.68-2.52,3.83-3.93
		C433.82,440.08,434.28,438.8,435.03,437.41z"/>
	<path fill="#1A1A1A" d="M411.49,1133.87c-4.08,0.09-4.62-2.7-4.76-4.98c-0.54-8.92,0.79-17.69,1.97-26.53
		c1.29-9.63,7.81-13.17,15.39-16.12c4.54-1.77,7.91-0.86,10.55,2.19c1.29,1.48,1.58,2.89,1.06,4.86
		c-2.14,8.12-2.89,16.46-2.98,24.81c-0.05,4.53,0.87,9.07,1.37,13.89c-2.99,1.77-6.07,3.47-10.24,2.74
		c3.06-5.97,1.57-11.47-1.27-16.78c-1.01-1.89-2.09-3.42-5.04-2.66c-2.37,0.61-3.56,1.22-4,3.77
		C412.74,1123.87,411.56,1128.62,411.49,1133.87z"/>
	<path fill="#1A1A1A" d="M221.32,1131.89c-4.81-0.06-9.14,0.73-13.23-1.43c2.12-4.41,2.24-9.11,0.9-13.77
		c-2.58-8.96-1.86-17.52,3.04-25.46c4.21-6.82,5.48-8.12,13.37-5.19c4.11,1.52,8.3,2.97,12.15,5.53c-0.24,2.33-2.81,3.03-3.71,4.91
		c-1.61,3.38-3.49,6.64-4.2,10.39c-0.72,3.83-1.69,7.49-3.87,10.9C223.14,1121.9,222.29,1126.8,221.32,1131.89z"/>
	<path fill="#1A1A1A" d="M236.75,348.4c-5.89-10.01-10.98-18.8-13.99-28.65c3.79-5.38,10.07-7.87,14.59-12.84
		c6.6,3.51,13.29,6.78,20.79,7.27c0.42,1.16,0.78,2.05,1.06,2.96c1.8,5.88,1.63,5.71-2.99,9.96c-4.97,4.58-9.8,9.33-13.9,14.76
		C240.83,343.83,239.11,345.64,236.75,348.4z"/>
	<path fill="#1A1A1A" d="M484.79,1095.52c-11.35-3.96-11.35-3.96-15.4-2.72c-10.51-8.89-23.69-11.37-31.8-5.93
		c-2.1-0.7-2.93-3.02-4.98-3.91c-4.21-1.85-7.89-0.07-11.7,1.3c-3.24,1.16-5.65,4.77-10.5,3.22c4-11.25,3.17-23.08,5.23-34.65
		c0,6.11-0.01,12.23,0,18.34c0.01,5.32,0.86,6.19,6.07,6.79c11.57,1.34,23.18,1.13,34.78,0.89c3.57-0.07,7.18-0.73,10.79-1.03
		c4.61-0.38,5.82-2.6,6.4-8.64c0.6-6.25,1.5-12.48,3.63-18.55C479.76,1065.55,484.77,1080.01,484.79,1095.52z"/>
	<path fill="#1A1A1A" d="M208.81,239.94c7.17-4.14,15.51-4.24,23.41-6.29c-5.72-2.7-13.58-0.9-16.47-8.96
		c5.34-2.35,10.89,2.14,16.4-0.34c0.2-1.65-1.02-3.19,0.02-5.19c9.94,0.61,19.17-2.66,27.79-8.1c2.67,12.5-4.8,25.88-16.16,29.46
		c-0.97,0.31-1.89,0.53-2.87,0.53c-10.15,0-20.3,0-30.46-0.03C209.88,241.01,209.1,241.13,208.81,239.94z"/>
	<path fill="#1A1A1A" d="M228.11,252.64c-4.81,6.9-6.44,14.46-7.35,22c-7.28-0.62-14.01-1.65-20.55,0.33
		c-6.6,1.99-10.5,7.55-14.98,12.59c-0.71-6.39-2.06-13.32,1.38-18.56c4.74-7.21,10.4-14.27,20.02-16
		c6.05-1.09,12.01-1.66,18.04-0.06C225.51,253.16,226.49,252.8,228.11,252.64z"/>
	<path fill="#1A1A1A" d="M205.41,379.93c2.03-8.57,2.92-16.62,1.51-25.02c-1.41-8.44-2.8-16.62-7.7-23.88
		c-4.63-6.85-11.73-11.46-16.59-18.1c6.99,3.8,14.59,6.14,20.86,11.04c7.54,5.88,14.33,12.44,19.81,20.3
		c1.37,1.96,2.01,4.41,1.25,6.6C221.53,359.61,216.13,372.76,205.41,379.93z"/>
	<path fill="#1A1A1A" d="M204.58,542.63c5.1-2.09,9.19-5.06,13.51-7.61c1.9-1.12,4.06-1.22,5.56-0.32
		c6.26,3.78,13.02,6.71,19.18,11.18c-1.53,4.62-3.04,9.22-4.65,14.09c-11.05,0.34-21.98-1.1-33.15-2.1
		C204.23,552.8,204.95,547.84,204.58,542.63z"/>
	<path fill="#1A1A1A" d="M392.84,842.21c-0.63-1.97,0.36-3.5,1.7-5.56c8.57,6.15,18.37,10.09,26.68,16.99
		c7.3,6.06,12.1,13.75,17.4,21.11c3.79,5.27,4.77,12.04,5.96,18.42c1.31,7.07,2.16,14.26,3.42,21.29c1.38,7.7,4.31,15.37,8.19,22.34
		c2.37,4.27,2.48,7.68-0.27,11.67c-0.9,1.3-2.28,2.4-2.67,4.55c-4.99-6.22-7.7-12.91-8.65-20.48c-1.73-13.69-1.77-27.55-4.08-41.16
		c-1.35-7.96-5.02-14.89-10.14-21.36c-9.71-12.27-23.34-19.34-35.54-28.32c-1.03-0.76-1.43,0.31-2.15,0.37L392.84,842.21z"/>
	<path fill="#1A1A1A" d="M285.2,971.03c12.12,6.98,12.92,17.74,10.95,29.59c-10.14-2.66-17.89,2.79-26.31,8.95
		c-0.2-9.41-0.51-18.1-3.67-26.64C273.07,980.13,279.75,976.47,285.2,971.03z"/>
	<path fill="#1A1A1A" d="M259.16,868.13c4.19,3.52,7.07,8.04,10.52,12.04c2.73,3.18,6.11,5.9,6.54,10.66
		c0.15,1.6,0.39,3.25,0.43,4.88c0.39,16.09-1.74,32.12-0.99,48.21c0.05,1-0.29,2.11,0.06,2.97c2.17,5.43-1.11,7.88-5.46,10.12
		c-1.58-5.34-4.9-9.79-5.91-15.4c-0.56-3.16-0.93-6.29-0.57-9.29c1.12-9.32,2.94-18.57,4.4-27.84c1.92-12.2,1.53-24.42-8.44-33.95
		c-0.45-0.43-1.08-0.84-0.97-1.63C258.8,868.77,258.91,868.63,259.16,868.13z"/>
	<path fill="#1A1A1A" d="M481.77,1132.73c0.38-3.76-0.75-7.15-2.16-10.46c-0.93-2.2-2.38-4.61-4.84-4.1
		c-2.59,0.54-4.36,2.72-4.17,5.9c0.17,2.8,0.03,5.63,0.03,8.77c-3.7-0.69-4.75-3.3-4.92-6.01c-0.58-9.07-0.02-18.06,2.97-26.75
		c1.72-5,3.43-5.71,8.44-4.18c3.82,1.17,6.75,3.9,10.32,5.49c1.28,0.57,1.92,2.2,1.95,3.28c0.2,7.1,1.08,14.28-0.38,21.29
		C487.95,1131.04,487.59,1130.96,481.77,1132.73z"/>
	<path fill="#1A1A1A" d="M315.03,67.15c-4.72-2.52-8.56-4.68-12.49-6.62c-3.93-1.94-8.08-3.26-12.81-3.82
		c-0.59-14.65,3-27.94,11.66-40.56C302.86,34.15,307.93,50.47,315.03,67.15z"/>
	<path fill="#1A1A1A" d="M275.21,541.25c1.43,4.48,3.92,8.6,3.22,13.8c-0.26,1.94-0.74,2.39-2.24,3c-3.56,1.44-7.41,1.49-11.05,1.78
		c-7.58,0.6-15.25,0.18-23.31,0.18c0.49-3.29,1.74-6.08,2.22-8.99c0.73-4.52,3.84-5.78,7.49-5.92
		C259.42,544.78,266.82,541.9,275.21,541.25z"/>
	<path fill="#1A1A1A" d="M302.86,183.26c-4.67,2.61-7.56,7.1-11.72,10.76c3.54,3.33,7.4,1.8,11.27,2.33
		c-1.68,3.66-3.45,7.19-4.05,11.16c-0.3,1.99-2.07,3.21-4.19,3.51c-9.68,1.39-19.05,0.52-28.24-4.13
		C277.68,197.95,288.82,188.48,302.86,183.26z"/>
	<path fill="#1A1A1A" d="M385.74,281.42c-8.88-10.67-18.41-19.35-33.33-19.27c1.11-3.1-0.46-6.8-0.71-11.07
		c5.2,0.39,9.78,1.92,14.45,2.97c4.27,0.96,8.49,2.17,12.77,3.07c5.87,1.24,7.64,6.09,8.52,10.77
		C388.23,272.09,388.37,276.73,385.74,281.42z"/>
	<path fill="#1A1A1A" d="M404.29,1132.6c-1.51,0.47-2.79,0.48-4.44-0.06c1.65-6.17,1.68-12.09-4.15-16.59
		c-5.88,3.32-6.83,9.06-7.2,15.19c-1.17-0.31-1.67-1.34-1.68-2.02c-0.07-7.24-1.12-14.59,1.11-21.65c1.96-6.19,7.36-9.4,12.4-12.71
		c2.32-1.52,4.56-4.1,8.22-2.28C404.35,1105.42,402.36,1118.67,404.29,1132.6z"/>
	<path fill="#1A1A1A" d="M354.2,372.16c0.44-4.1,1.74-7.71,1.58-11.65c-0.1-2.52-1.39-4.8-1.08-7.25c0.28-2.23-1.31-4.23-0.88-6.22
		c0.78-3.58,2.13-7.03,3.31-10.76c5.44,4.02,10.79,8,16.18,11.92c2.43,1.77,2.49,3.65,1.25,6.34c-2.81,6.13-7.79,9.98-13.14,13.52
		C359.16,369.56,356.45,370.27,354.2,372.16z"/>
	<path fill="#1A1A1A" d="M172.45,548.89c1.24-2.88,1.62-5.31,3.04-7.38c1.37-1.99,2.47-4.16,3.79-6.42c3.38-0.11,5.9,2.38,8.95,3.34
		c3.41,1.07,6.66,2.58,10.32,2.59c2.37,0.01,3.17,1.27,3.14,3.47c-0.05,4.3-0.02,8.6-0.02,12.91
		C191.22,556.75,181.94,553.29,172.45,548.89z"/>
	<path fill="#1A1A1A" d="M62.64,273.61c2.21,1.22,3.78,1.37,4.85,2.96c-2.67,8.97-4.01,18.44-5.61,27.82
		c-1.37,8.03-2.48,16.11-3.81,24.15c-0.92,5.57-2.81,9.33-8.66,10.32c-0.45,0.08-0.84,0.48-2.39,1.41
		C52.24,317.6,59.85,296.47,62.64,273.61z"/>
	<path fill="#1A1A1A" d="M332.67,115.91c-6.8-2.26-12.91-4.48-19.53-4.95c-2.83-0.2-4.43-2.97-5.91-5
		c-3.62-4.98-6.29-10.55-8.63-16.47c2.87-0.86,4.93,0.75,7.12,1.61c8.19,3.25,14.75,9.03,21.61,14.29
		C330.44,107.77,332.18,111.35,332.67,115.91z"/>
	<path fill="#1A1A1A" d="M463.78,973.41c2.61-2.24,4.31-5.24,6.42-7.94c1.8,5.58,5.88,9.7,9.02,14.38c1,1.49,1.44,2.82,1.44,4.53
		c-0.04,9.97,0.62,19.99-0.21,29.89c-0.71,8.44-0.66,16.83-0.77,25.25c-0.02,1.94-0.88,3.08-2.04,3.77
		c0-11.72,0.38-23.66-0.13-35.56c-0.35-8.11-2.46-16.04-5.82-23.54C469.84,980.08,466.83,976.84,463.78,973.41z"/>
	<path fill="#1A1A1A" d="M194.45,1128.87c-1.81-0.3-2.16-0.63-2.1-2.28c0.15-4.14,1.42-8.1,1.43-12.26
		c0.01-2.37-1.59-4.35-1.41-6.36c0.52-5.7,2.38-11.12,5.03-16.21c1.5-2.89,3.91-4.19,7.24-3.84c1.77,0.19,3.57,0.03,5.75,0.03
		c-3.37,5.45-5.15,10.92-5.91,16.83c-0.2,1.58-0.53,3.55-2.01,4.87C196.84,1114.67,194.86,1121.29,194.45,1128.87z"/>
	<path fill="#1A1A1A" d="M199.01,56.92c4.17,8.55,10.54,14.67,14.23,22.91c-3.35,3.88-5.28,9.06-8.18,14.16
		C198.22,82.45,196.24,70.54,199.01,56.92z"/>
	<path fill="#1A1A1A" d="M297.66,550.4c-5.61,3.17-11.12,5.75-17.41,6.56c2.71-6.38,0.48-11.59-3.14-16.58
		c6.26-1.49,12.51-2.93,18.32-5.98C295.83,539.81,296.61,544.95,297.66,550.4z"/>
	<path fill="#1A1A1A" d="M112.68,357.62c-0.68,3.58-1.24,7.03-3.6,10.1c-8.72-1.74-17.72-2.76-27.04-2.8
		c-0.6-2.47-0.27-4.75-0.28-7.19c4.96-2.32,10.26-1.37,15.42-1.76C102.38,355.58,107.11,358.71,112.68,357.62z"/>
	<path fill="#1A1A1A" d="M57.92,373.25c-1.16,9.35-0.98,18.38-2.52,27.41c-1.62,0.62-2.84-0.56-3.82-1.36
		c-5.59-4.58-8.27-10.66-8.94-17.8c-0.19-2.01,1.12-2.94,2.33-3.18C49.39,377.46,52.49,373.52,57.92,373.25z"/>
	<path fill="#1A1A1A" d="M281.25,445.64c11.82-8.59,24.33-16.06,36.38-25.54c-0.19,6.23-2.68,11.19-6.56,14.78
		C302.84,442.49,292.29,444.79,281.25,445.64z"/>
	<path fill="#1A1A1A" d="M234.22,244.05c-2.41,2.45-4.47,4.53-6.66,6.75c-15.74-4.85-31.5-1.52-41.64,14.96
		c-0.61-4.87,2.59-7.83,4.68-10.96c5.08-7.61,12.43-11.12,21.71-10.8C219.46,244.25,226.63,244.05,234.22,244.05z"/>
	<path fill="#1A1A1A" d="M171.07,548.06c-4.26-1.66-7.52-4.62-11.28-6.67c-2.03-1.1-1.1-3.46-0.64-5.4
		c1.04-4.38,4.01-7.74,5.94-11.65c4.24,2.73,7.66,6.55,12.16,9.04C174.7,537.94,169.69,541.45,171.07,548.06z"/>
	<path fill="#1A1A1A" d="M182.75,310.57c14.34-4.61,40.61,12.31,41.72,29.89c-6.01-6.31-11.71-12.75-18.32-18.12
		C199.44,316.88,191.91,312.61,182.75,310.57z"/>
	<path fill="#1A1A1A" d="M382.96,448.56c3.36-7.52,6.66-14.91,10-22.38c3.75,0,7.36,0,11.53,0c-4.22,5.25-6.91,10.96-10.08,16.39
		c-1.85,3.16-4.04,6.1-8.42,5.47C384.95,447.89,384.38,449.36,382.96,448.56z"/>
	<path fill="#1A1A1A" d="M340.4,119.63c-4.26-1.22-4.57-4.24-4.93-8c-0.52-5.38-2.32-10.64-3.67-16.41
		c5.66,0.78,9.61,4.49,14.36,7.15c-1.05,3.9-2.15,7.71-5.62,10.51c-0.82,0.67-3.47,2.57,0.4,3.81
		C342.6,117.23,341.44,119.02,340.4,119.63z"/>
	<path fill="#1A1A1A" d="M304.86,313.64c-13.42,4.57-26.68,9.46-36.89,20.57c2.53-11.33,11.28-18.83,22.87-20.19
		C295.42,313.49,299.96,312.53,304.86,313.64z"/>
	<path fill="#1A1A1A" d="M249.43,118.88c-1.41,2.63-4.5,2.74-6.64,4.36c-2.92,2.22-6.4,3.72-10.18,5.83
		c3.47-11.31,11.89-19.2,16.6-30.02c1.24,6.52,0.13,11.86-2.06,17c-1.19,2.78,0.14,3.19,2.42,2.97L249.43,118.88z"/>
	<path fill="#1A1A1A" d="M434.6,475.69c-7.62,6.61-13.33,14.87-20.7,21.56c-8.83,8.02-15.82,17.74-24.2,26.16
		c-1.1,1.1-1.89,2.89-4.34,2.47c6.55-8.33,13.54-16.04,20.6-23.69c6.37-6.9,12.25-14.23,18.85-20.93c2.27-2.3,5.3-3.76,7-6.72
		C432.5,473.35,433.52,474.41,434.6,475.69z"/>
	<path fill="#1A1A1A" d="M249.57,119.02c4.99-6.01,10.1-11.93,13.09-19.61c3.78,3.51,7.42,6.89,11.05,10.27
		c-1.93,2.85-4.5,2.55-6.45,2.98c-6.22,1.38-11.7,4.72-17.84,6.22L249.57,119.02z"/>
	<path fill="#1A1A1A" d="M189.27,438.55c-16.43-4.62-22.95-11.11-21.32-25.81C175.04,422.04,181.37,430.99,189.27,438.55z"/>
	<path fill="#1A1A1A" d="M193.04,1093.15c-2.49,8.46-3.87,17.16-11.14,22.7c-2.2-6.7,1.08-13.05,3.19-19.38
		C186.13,1093.36,189.6,1092.43,193.04,1093.15z"/>
	<path fill="#1A1A1A" d="M417.1,1118.12c1.4-0.2,2.04-0.05,2.67,1.12c2.31,4.32,3.59,8.61,1.57,13.45
		c-1.24,2.97-2.16,6.08-3.58,10.15C413.11,1133.98,414.66,1126.04,417.1,1118.12z"/>
	<path fill="#1A1A1A" d="M197.7,1130.54c-0.27-7.89,2.25-14.08,7.33-20.51c1.09,6.38,2.26,11.7,1.37,17.56
		C203.34,1127.66,200.87,1129.69,197.7,1130.54z"/>
	<path fill="#1A1A1A" d="M449.01,1116.96c5.75,3.5,6.41,5.29,4.72,10.94c-0.79,2.67-1.62,5.28-2.99,7.72
		c-0.41,0.73-0.6,1.53-1.79,1.87C446.45,1130.77,447.74,1124.07,449.01,1116.96z"/>
	<path fill="#1A1A1A" d="M189.93,1126.52c-2.75,0.79-4.28,2.76-7.15,2.18c-0.55-6.93,2.54-12.33,7.3-17.87
		C191.94,1116.56,188.49,1121.36,189.93,1126.52z"/>
	<path fill="#1A1A1A" d="M395.39,1118.93c5.57,8.59,0.17,14.72-3.67,21.58C391.66,1132.94,390.76,1125.7,395.39,1118.93z"/>
	<path fill="#1A1A1A" d="M283.32,311.75c-0.69,2.04-2.71,1.74-4.18,2.26c-5.38,1.88-10.62,3.97-15.14,7.86
		c-1.59-2.2-2.58-4.46-2.11-7.82c7.26,0.54,14.41-0.88,21.57-2.16L283.32,311.75z"/>
	<path fill="#1A1A1A" d="M278.33,109.98c-2.81-3.48-0.9-7.77-2.67-11.45c4.34,3.19,7.68,7.29,12.83,9.47
		C285.11,110.64,281.66,110.07,278.33,109.98z"/>
	<path fill="#1A1A1A" d="M163.15,795.72c-9.58,0.55-9.59,0.55-11.51-7.45c-0.55-2.29-2.07-4.35-1.87-8.03
		C154.06,786.04,157.55,791.15,163.15,795.72z"/>
	<path fill="#1A1A1A" d="M474.29,1121.3c5.82,5.83,5.66,9.17-0.46,16.48C473.54,1131.92,473.55,1126.59,474.29,1121.3z"/>
	<path fill="#1A1A1A" d="M346.06,79.59c-2.81-0.68-5.64-1.28-8.42-2.08c-1.98-0.57-3.88-0.56-5.85-0.06
		c-3.45,0.89-3.46,0.86-4.96-2.81c0.84-1.69,2.58-2.12,3.83-1.43c5.01,2.77,11.63,1.23,16.04,5.46
		C346.49,78.98,346.28,79.29,346.06,79.59z"/>
	<path fill="#1A1A1A" d="M230.73,1116.34c-0.59,4.42,1.24,7.44,0.9,11c-2.13,1.27-4.59,2.23-6.58,4.13
		C226.03,1126.47,226.19,1121.25,230.73,1116.34z"/>
	<path fill="#1A1A1A" d="M234.01,165.37c4.83-0.67,7.33-5.01,11.2-7.29c1.95-1.15,3.89-3.61,6.46-0.24
		c-3.22,1.58-6.65,2.71-9.31,5.08c-1.74,1.56-4.62,2-4.82,5.14c-0.09,1.39-1.51,1.01-2.4,0.94
		C233.98,168.9,233.98,168.79,234.01,165.37z"/>
	<path fill="#1A1A1A" d="M407.79,984.26c2.18-0.49,4.04,0.18,3.58,1.85c-1.56,5.63-0.06,11.38-1.02,17.65
		C407.5,997.15,407.37,990.87,407.79,984.26z"/>
	<path fill="#1A1A1A" d="M324.92,62.21c-2.62-1.27-2.48-2.93-1.7-5.51c4.5,2.68,10.03-0.31,15.28,3.5
		C333.32,62.17,328.18,56.95,324.92,62.21z"/>
	<path fill="#1A1A1A" d="M295.06,464.49c3.29-2.38,5.98-5.53,9.64-7.44C306.21,461.77,306.21,461.77,295.06,464.49z"/>
	<path fill="#1A1A1A" d="M254.04,863.82c-3.33-3.77-7.38-6.72-11.17-10.04c0.6-1.21,1.43-2.51,2.51-1.39
		c3.3,3.43,6.32,7.13,9.46,10.72C254.57,863.35,254.3,863.59,254.04,863.82z"/>
	<path fill="#1A1A1A" d="M174.87,1126.04c-0.43-4.05,1.03-6.87,3.11-9.91C179.41,1123.51,179.27,1123.99,174.87,1126.04z"/>
	<path fill="#1A1A1A" d="M263.84,213.61c0.81-3.97,0.81-3.97,7.99-0.93C269.09,212.29,266.74,215.05,263.84,213.61z"/>
	<path fill="#1A1A1A" d="M235.38,132.25c1.51-2.44,3.9-3.4,5.84-4.92c1.05,0.81,2.08,1.57,2.49,3.3
		C240.9,131.58,237.85,130.31,235.38,132.25z"/>
	<path fill="#1A1A1A" d="M177.43,456.46c-3.81-1.35-6.06-3.76-5.64-7.98c2.28,0.6,2.15,1.95,2.21,3.92
		C174.04,453.78,176.21,455.11,177.43,456.46z"/>
	<path fill="#1A1A1A" d="M348.32,362.79c-0.04,2.8-1.41,4.92-3.41,7.69C345.11,366.88,346.94,364.89,348.32,362.79z"/>
	<path fill="#1A1A1A" d="M309.76,485.76c0.63-2.55,1.9-3.09,3.32-4.15C313.74,484.52,312.39,485.11,309.76,485.76z"/>
	<path fill="#1A1A1A" d="M224.5,165.91c-1.17,1.07-2.09,2.68-4.34,1.85C221.45,166.54,222.76,165.76,224.5,165.91z"/>
	<path fill="#1A1A1A" d="M283.46,311.88c1.42-1.39,3.03-0.86,4.62-0.46l-0.09-0.08c-1.48,1.07-3.07,0.76-4.67,0.4L283.46,311.88z"/>
	<path fill="#1A1A1A" d="M364.5,580.2c-1.38-1.02-0.65-2.24-0.85-4.35c1.35,2.07,0.99,3.29,0.72,4.49L364.5,580.2z"/>
	<path fill="#1A1A1A" d="M261.48,118.44c-0.97,0.56-1.67,0.96-2.58,1.48C258.68,117.55,259.98,118.13,261.48,118.44z"/>
	<path fill="#1A1A1A" d="M327.65,796.12c-0.05,4.12-1.9,5.9-6.09,5.86c-4.32-0.04-6.05-1.61-5.9-5.37c0.12-3.07,3.96-6.8,6.79-6.58
		C325.32,790.26,327.69,793.03,327.65,796.12z"/>
	<path fill="#1A1A1A" d="M233.93,185.73c1.14-1.78,2.2-3.41,4.75-2.1C237.93,186.41,236.1,186.3,233.93,185.73z"/>
	<path fill="#1A1A1A" d="M247.23,190.56c-0.98,0.51-1.7,1.4-2.88,1.4C244.52,189.47,244.52,189.47,247.23,190.56z"/>
	<path fill="#1A1A1A" d="M173.68,789.23c-0.09-3.52,1.31-5.19,4.4-5.24c2.74-0.05,5.66,2.62,5.58,5.12
		c-0.06,2.16-3.07,4.83-5.46,4.85C175.72,793.97,173.74,791.91,173.68,789.23z"/>
</g>
</svg>
