<?xml version="1.0" encoding="utf-8"?>
<!-- Generator: Adobe Illustrator 24.0.2, SVG Export Plug-In . SVG Version: 6.00 Build 0)  -->
<svg version="1.1" id="Layer_1" xmlns="http://www.w3.org/2000/svg" xmlns:xlink="http://www.w3.org/1999/xlink" x="0px" y="0px"
	 width="1002.79" height="840.8" viewBox="0 0 1002.79 840.8" style="enable-background:new 0 0 1002.79 840.8;" xml:space="preserve">
<g>
	<path d="M0,618.38c2.28-4.99,3.29-9.45,6.89-13.14c5.27-5.39,11.54-8.62,18.22-11.29c11.39-4.54,23.21-7.36,35.56-6.01
		c5.95,0.65,11.79,2.34,17.66,3.6c0.62,0.13,1.47,0.38,1.74,0.84c2.58,4.47,7.35,4.91,11.53,6.48c0.89,0.33,1.88,0.77,2.46,1.47
		c2,2.43,4.35,3.56,7.61,3.84c6.49,0.56,12.9,2.09,19.39,2.58c8.91,0.67,17.86,0.71,26.79,1.1c5.77,0.25,11.53,0.88,17.3,0.91
		c4.77,0.02,9.53-0.79,14.3-0.86c3.09-0.04,6.2,0.61,9.3,0.93c2.15,0.22,3.31-0.66,4.75-2.53c6.9-8.94,10.85-19.16,14.69-29.62
		c5.89-16.03,12.57-31.76,18.86-47.64c3.06-7.71,5.91-15.51,9.03-23.2c4.04-9.96,8.26-19.84,12.37-29.76
		c4.24-10.23,8.44-20.47,12.65-30.7c5.63-13.7,11.22-27.42,16.9-41.1c3.32-7.97,6.69-15.93,10.29-23.78
		c0.83-1.8,2.77-3.07,4.05-4.69c2.31-2.93,4.27-6.17,6.8-8.89c6.64-7.13,14.14-13.04,24.03-15.02c2.24-0.45,4.51-0.82,6.78-0.99
		c2.46-0.18,4.59,0.16,6.56,2.34c1.38,1.53,4.07,1.83,6.11,2.82c8,3.9,16.06,7.66,23.92,11.82c11.6,6.14,22.33,13.51,31.83,22.68
		c7.37,7.11,15.14,13.8,22.65,20.76c10.44,9.68,20.84,19.41,31.19,29.19c8.44,7.98,17.35,15.57,24.99,24.27
		c7.63,8.68,13.88,18.57,20.86,27.83c2.76,3.66,5.84,7.1,8.87,10.56c2.24,2.55,5.02,2.46,7.54,0.67c4.4-3.12,8.49-6.68,12.93-9.74
		c4.69-3.24,9.43-6.53,14.53-9.02c2.9-1.42,5.27-2.9,7.04-5.56c1.17-1.77,2.63-3.35,3.95-5.02c1.88-2.37,1.46-3.84-1.41-4.6
		c-2.05-0.54-4.18-0.79-6.2-1.41c-7.09-2.17-11.95-7.14-16.33-12.85c-3.7-4.82-8.03-9.17-11.59-14.08
		c-3.44-4.73-6.57-9.75-9.29-14.93c-5.7-10.84-10.95-21.92-16.6-32.79c-2.33-4.47-6.28-8.32-7.66-12.99
		c-2.67-9.03-7.19-17.13-10.97-25.6c-6.67-14.92-11.78-30.38-14.59-46.46c-1.69-9.67-4.06-19.05-7.12-28.35
		c-3.74-11.36-2.58-22.64,1.55-33.7c1.76-4.72,3.66-9.39,5.47-14.1c1.59-4.12,5.31-6.58,9.85-6.78c8.23-0.37,16.16-2.02,23.6-5.79
		c2.46-1.25,5.15-2.03,7.67-3.17c2.79-1.27,5.51-2.7,9.01-4.44c1.68,2.35,4.66,4.97,5.59,8.18c2.07,7.11-2.04,15.92-10.52,17.37
		c-3,0.51-5.82,2.07-8.76,3c-2.31,0.74-4.79,2.02-7.02,1.73c-6.08-0.79-9.16,2.35-11.71,8.04c1.65-0.16,3.34,0.19,4.18-0.49
		c6.07-4.97,12.95-3.95,19.5-2.23c8.4,2.2,16.92,3.43,25.43,4.87c3.41,0.58,5.23,3.26,5.09,6.76c-0.18,4.61-2.96,8.68-7.35,9.85
		c-4.13,1.1-8.41,1.7-12.42-1.03c2.52,4.47,5.3,8.42,10.81,9.47c5.02,0.96,8.22,4.17,10.42,8.73c1.35,2.81,2.11,5.4,0.97,8.48
		c-0.56,1.49-0.42,3.25-0.71,5.88c-4.01,0.87-8.35,1.85-12.71,2.73c-3.83,0.77-7.7,1.35-11.54,2.12c-7.41,1.5-10.18,9.18-7.43,14.23
		c1.87,3.43,3.3,7.1,4.97,10.64c3.44,7.31,8.97,12.98,14.13,19.06c5.31,6.26,11.28,11.45,18.13,15.68
		c4.83,2.99,10.1,5.26,15.04,8.09c4.52,2.59,8.85,5.51,13.27,8.28c0.55,0.35,1.08,0.83,1.68,0.97c1.18,0.28,3.06,0.91,3.47,0.41
		c0.8-0.96,1.13-2.62,1.04-3.95c-0.47-6.71-1.99-13.46-1.54-20.09c0.6-8.76,2.7-17.41,4.13-26.11c0.9-5.47,1.57-10.99,2.69-16.41
		c2.98-14.36,9.92-26.56,20.93-36.27c6.82-6.02,15.13-9.4,23.52-12.67c4.35-1.69,8.4-4.17,12.51-6.44c2.56-1.41,5.1-2.92,7.42-4.68
		c1.91-1.44,3.57-3.24,5.19-5.02c2.17-2.36,1.81-4.79,0.98-7.89c-1.72-6.44-2.46-13.13-3.61-19.72c-0.39-2.24-0.82-4.47-1.04-5.7
		c-7.16-2.94-13.67-5.61-20.39-8.38c-1.61,3.32,0.27,5.95,1.56,8.89c-2.11-1.95-4.22-3.9-6.8-6.27c0.38-0.88,0.92-2.55,1.78-4.05
		c3.49-6.1,1.77-11.6-1.85-16.87c-1.93-2.81-3.99-5.52-6.51-8.98c-4.59,0.73-9.88,1.63-15.19,2.39c-4.69,0.68-9.4,1.3-14.11,1.78
		c-4.42,0.45-8.86,0.79-13.3,0.96c-2.11,0.08-4.25-0.3-6.36-0.57c-3.24-0.41-6.57-0.55-9.67-1.46c-3.37-1-6.82-2.31-9.67-4.28
		c-4.44-3.07-8.85-6.42-12.49-10.37c-6.1-6.62-10.5-14.21-9.97-23.79c0.24-4.19,3.69-9.41,7.74-10.25
		c12.93-2.67,25.35-6.96,37.86-11.09c6.92-2.29,14.18-3.62,21.35-5.02c2.7-0.53,3.48-1.85,2.97-4.08
		c-1.47-6.52,1.32-11.65,5.12-16.47c0.92-1.17,1.95-2.36,3.18-3.16c3.97-2.6,4.72-6.61,3.67-10.51c-2.24-8.27,1.38-15.03,4.77-21.86
		c1.36-2.74,3.7-4.98,5.33-7.61c0.56-0.91,0.79-2.52,0.38-3.47c-3.58-8.33-8.6-15.8-14.57-22.56c-5.31-6.01-11.01-11.66-16.45-17.56
		c-2.88-3.12-2.91-4.37-0.66-7.84c7.88,3.31,14.69,8.38,21.34,13.62c7.6,5.99,15.36,11.87,22.31,18.56c3.54,3.41,6,4.62,11.03,3.25
		c3.39-0.92,6.38-2.28,9.34-3.8c7.69-3.93,15.34-5.2,23.38-1.09c1.63,0.83,3.5,1.19,6.09,2.04C672.43,23.29,661.01,13.63,656.95,0
		c1.33,0.24,2.4,0.25,3.32,0.63c5.82,2.38,10.09,6.68,13.51,11.75c5.82,8.62,12,17.07,14.7,27.38c0.19,0.74,0.77,1.38,1.22,2.15
		c9.96,0.73,16.42-5.23,22.65-11.13c0.92,1.26,1.99,2.71,3.64,4.97c0.28,3.42-4.29,4.95-6.4,7.98c0.22,0.4,0.43,0.8,0.65,1.2
		c1.76-0.29,3.65-0.27,5.25-0.93c9.83-4.08,20.08-5.66,30.32-2.88c10.89,2.96,18.23,10.5,22.16,21.14c1.18,3.19,1.64,6.72,3.22,9.67
		c2.18,4.08,5.9,6.57,10.69,6.95c1.98,0.16,3.99,0.03,7.1,0.03c-2.37,2.39-3.95,4.49-6.01,5.92c-2.33,1.62-2.64,3.37-1.08,5.34
		c3.86,4.87,5.78,10,3.21,16.11c-0.24,0.56-0.03,1.31-0.03,2.62c5.88,0,11.65-0.13,17.41,0.04c5.6,0.16,11.24,0.24,16.75,1.12
		c3.08,0.49,5.95,2.45,8.82,3.93c0.75,0.39,1.46,1.41,1.64,2.25c0.88,4.32,1.59,8.67,2.34,13.01c0.22,1.29,0.41,2.58,0.62,3.87
		c1.01,6.44,0.28,12.45-4.64,17.27c-1.55,1.52-2.56,2.99-1.63,5.21c2.23,5.34,1.41,10.25-3.01,13.32c-4.89,3.4-9.39,7.5-15.63,8.78
		c-4.42,0.91-4.49,1.75-1.87,6.51c-9.25-5.09-17.15-0.33-25.43,2.01c-1.8,4.55,1.89,7.13,4.25,9.57c3.99,4.12,5.53,8.54,5.49,14.22
		c-0.05,6.57-0.51,12.76-5.13,17.9c-0.87,0.97-1.59,2.3-2.68,2.82c-3.81,1.81-4,5.14-4.32,9.33c3.7-0.48,7.05-1.22,10.4-1.27
		c9.52-0.14,19.1-0.59,28.56,0.21c7.73,0.65,13.32,6.37,19.49,10.68c12.36,8.63,16.26,21.78,19.39,35.2
		c1.81,7.77,2.12,15.88,3.16,23.83c0.91,6.97,1.94,13.93,2.86,20.9c0.45,3.42,0.71,6.86,1.15,10.28c0.22,1.77,0.56,3.53,0.98,5.26
		c2.64,10.9,5.73,21.71,7.9,32.7c3.43,17.37,1.95,35.02,2.02,52.57c0.02,5.23-0.85,10.47-1.34,16.1c8.7-0.16,9.79,6.93,12.11,12.04
		c3.61,7.95,6.45,16.32,8.91,24.71c1.74,5.91,2.32,12.17,3.4,18.27c1.55,8.84,3.21,17.66,4.58,26.52c1,6.47,1.69,12.99,2.41,19.5
		c1.06,9.6,1.13,19.28,3.68,28.73c2.41,8.95,3.67,18.24,6.5,27.04c2.27,7.06,5.89,13.72,9.44,20.28c0.88,1.63,3.71,2.87,5.77,3.07
		c5.41,0.53,10.7-0.51,16.08-1.66c9.7-2.08,19.27-5.09,29.36-5.25c7.5-0.12,13.61,1.15,16.99,9.15c2.77,6.56,7.41,12.34,10.01,18.94
		c1.7,4.31,1.41,9.38-3,13.12c-1.5,1.27-2.51,3.52-2.98,5.5c-1.15,4.88-4.51,6.6-8.93,7.29c-2.25,0.35-4.44,1.03-6.69,1.38
		c-1.39,0.22-2.88,0.36-4.23,0.09c-3.8-0.76-5.95,0.18-7.51,3.61c-2.91,6.41-10.16,9.68-17.19,8.09
		c-12.37-2.79-24.68-6.12-37.21-7.79c-7.37-0.98-12.67-6.31-19.7-7.13c-4.09-0.47-6.53-2.96-8.34-5.95
		c-1.27-2.1-1.64-4.89-1.92-7.43c-1.7-15.58-9.62-28.39-17.02-41.75c-6.36-11.47-14.9-21.36-21.16-32.83
		c-5.74-10.51-12.61-20.4-18.77-30.69c-2.67-4.45-4.76-9.24-7.24-13.82c-0.56-1.04-1.61-1.81-2.44-2.7
		c-0.81,1.09-2.32,2.18-2.31,3.27c0.02,6.26-3.27,11.17-6.09,16.3c-0.47,0.85-0.93,1.79-1.64,2.41
		c-3.74,3.28-23.05,20.73-25.18,21.89s-8.57,3.09-12.35,5.13c-3.79,2.04-13.79,3.04-16.79,4.04s-14,9-16,14s-1,11-2,17s-1,15-3,18
		s-20.85,20.57-26.87,25.29c-8.26,6.49-16.16,13.43-24.27,20.12c-4.98,4.11-9.9,8.33-15.16,12.07c-3.97,2.82-8.66,4.63-12.63,7.46
		c-14.11,10.05-30.11,16.02-46.16,21.95c-9.46,3.5-18.71,7.58-28.21,10.97c-6.72,2.39-13.64,4.28-20.57,5.99
		c-13.26,3.28-26.56,6.38-39.9,9.33c-6.68,1.48-13.48,2.43-20.2,3.72c-7.35,1.42-14.66,3.06-22.03,4.41
		c-4.02,0.74-8.11,1.45-12.17,1.51c-12.16,0.2-24.33-0.05-36.49,0.11c-8.27,0.11-16.54,0.94-24.8,0.87
		c-9.71-0.08-19.11-1.75-27.87-6.52c-10.19-5.55-21.16-9.28-32.06-13.21c-9.76-3.52-19.26-7.77-28.83-11.83
		c-4.5-1.91-8.95-3.98-13.3-6.24c-3.47-1.8-6.64-4.17-10.12-5.93c-5.65-2.86-11.44-5.43-17.17-8.14c-1.18-0.56-2.94-0.91-3.38-1.85
		c-3.94-8.34-12.82-7.96-19.58-11.11c-8.82-4.1-18.08-7.24-27.01-11.11c-2.81-1.22-5.07-1.07-7.32,0.63
		c-8.23,6.19-16.61,12.21-24.53,18.78c-4.16,3.45-7.01,8.58-11.35,11.68c-3.72,2.66-5.45,6.16-6.87,9.83
		c-2.38,6.16-5.72,8.77-12.11,8.09c-0.65-0.07-1.32-0.17-1.93-0.38c-10.14-3.53-20.2,3.46-20.1,14.15
		c0.05,5.43,0.95,10.87,0.71,16.27c-0.23,5.02-1.46,9.99-2.27,14.98c-0.1,0.64-0.39,1.26-0.45,1.91
		c-1.42,14.39-8.45,25.09-21.1,32.09c-4.86,2.69-9.85,5.17-14.64,7.98c-3.08,1.8-5.82,4.18-8.88,6.04
		c-7.04,4.26-13.79,9.23-22.4,9.98c-0.98,0.09-2.18-0.04-2.88,0.47c-4.5,3.26-8.08,0.52-11.64-1.73c-3.16-1.99-3.44-5.22-3.57-8.7
		c-0.16-4.61,1.08-8.34,3.49-12.39c2.49-4.19,3.15-9.48,4.59-14.29c1.53-5.12,3.67-10.15,4.39-15.38
		c1.17-8.58,5.15-16.52,4.73-25.49c-0.69-14.91,4.95-27.53,15.73-37.75c7.07-6.7,14.65-12.86,21.63-19.65
		c4.53-4.4,8.38-9.52,12.58-14.27c1.87-2.11,3.77-4.21,5.82-6.15c3.41-3.23,7.15-6.15,10.38-9.54c3.04-3.19,5.81-6.7,8.28-10.35
		c1.15-1.69,0.99-4.1-1.73-4.7c-5.24-1.15-10.55-2.96-15.81-2.89c-9.99,0.13-19.6-1.63-29.22-3.8c-1.28-0.29-2.62-0.38-3.93-0.37
		c-9.41,0.1-18.62-1.87-27.91-2.71c-14.58-1.32-27.12-7.84-40.02-13.48c-6.83-2.99-13.19-7.16-19.49-11.22
		C3.19,622.94,1.62,620.22,0,618.38z M397.17,626.67c0-1.75,0.69-3.94-0.12-5.11c-3.81-5.6-8.4-10.68-12.03-16.38
		c-8.71-13.7-14.67-28.63-18.99-44.27c-1.77-6.41-3.8-12.75-5.95-19.03c-1.65-4.82-3.83-5.31-7.44-2.07
		c-0.74,0.66-1.38,1.56-2.25,1.94c-6.84,2.95-11.87,8.16-16.98,13.29c-14.74,14.81-29.09,30.05-44.35,44.3
		c-10.17,9.49-17.37,21.33-26.95,31.21c-0.63,0.65-0.34,3.51,0.03,3.63c4.65,1.39,9.43,3.52,14.1,3.34
		c6.24-0.24,12.4-2.42,18.62-3.62c13.3-2.58,26.51-5.69,39.99-7.33c4.7-0.57,9.39-1.5,14.11-1.62c9.82-0.25,19.65-0.27,29.46,0
		C384.28,625.08,390.13,625.98,397.17,626.67z M795.34,418.88c-1.65,1.39-2.6,1.97-3.25,2.78c-7.59,9.43-15.15,18.88-22.7,28.35
		c-5.24,6.57-10.37,13.02-9.54,22.39c0.3,3.38-1.24,7.01-2.33,10.4c-1.83,5.72-4.13,11.29-5.91,17.03
		c-0.97,3.13-1.25,6.48-2.01,10.65c2.46-0.75,3.83-0.87,4.85-1.53c9.06-5.88,19.57-5.69,29.67-6.94c3.39-0.42,6.41-1.1,9.16-2.96
		c1.9-1.28,3.52-3.05,5.52-4.07c3.54-1.81,7.28-3.23,11.15-4.9C810.36,465.7,803.03,442.81,795.34,418.88z M499.24,281.79
		c-2.22,1.14-4.2,1.94-5.94,3.1c-1.84,1.24-3.46,2.82-5.17,4.25c0.1,0.14,0.19,0.28,0.29,0.41c4.56-1.89,9.11-3.77,13.44-5.56
		C501.39,283.6,500.41,282.78,499.24,281.79z"/>
</g>
</svg>
