<?xml version="1.0" encoding="utf-8"?>
<!-- Generator: Adobe Illustrator 24.0.2, SVG Export Plug-In . SVG Version: 6.00 Build 0)  -->
<svg version="1.1" id="Layer_1" xmlns="http://www.w3.org/2000/svg" xmlns:xlink="http://www.w3.org/1999/xlink" x="0px" y="0px"
	 width="2011.06" height="1591.24" viewBox="0 0 2011.06 1591.24" style="enable-background:new 0 0 2011.06 1591.24;" xml:space="preserve">
<g>
	<path d="M679.96,1242.47c-3.08-7.91-6.45-15.47-8.98-23.3c-2.79-8.65-4.92-17.51-7.11-26.34c-1.37-5.52-2.47-11.13-3.43-16.74
		c-0.74-4.36-1.45-8.78-1.53-13.18c-0.21-11.83-0.03-23.66-0.08-35.49c-0.04-10.06,0.55-20.04,3.73-29.67
		c0.88-2.65-0.95-4.06-2.46-4.8c-3.05-1.49-4.02-4.25-5.16-6.87c-2.53-5.78-4.57-11.78-7.23-17.5c-3.52-7.58-5.79-15.39-7.37-23.63
		c-2.47-12.93-6.35-25.59-9.2-38.46c-1.5-6.78-5.27-11.92-9.97-16.56c-1.77-1.75-4.09-2.95-6.16-4.4c-0.37,0.29-0.74,0.58-1.11,0.86
		c0.72,1.69,1.33,3.42,2.16,5.05c5.65,11.1,11.59,22.06,16.94,33.3c2.93,6.17,4.66,12.8,4.91,19.81c0.5,13.91,1.26,27.82,2.13,41.72
		c0.24,3.88,0.79,7.84,1.95,11.53c2.56,8.15-2.02,13.14-7.39,17.75c-1.21,1.04-3.35,1.3-5.09,1.38c-4,0.19-8.01,0.06-11.92,0.06
		c-1.21,2.9-2.15,5.68-3.47,8.25c-3.17,6.16-10.82,8.25-16.32,4.15c-6.83-5.09-13.51-10.41-19.94-15.99
		c-6.38-5.54-12.49-11.4-18.46-17.38c-1.75-1.75-2.92-4.26-3.85-6.62c-1.8-4.57-3.08-9.34-4.84-13.92
		c-3.34-8.7-6.46-17.51-10.41-25.93c-4.91-10.48-6.7-21.5-7.44-32.85c-0.24-3.63-0.74-7.24-1.92-10.94
		c-0.8,4.34-1.58,8.68-2.41,13.01c-0.84,4.39-1.49,8.84-2.68,13.13c-0.99,3.58-0.3,6.77,0.75,10.14
		c3.47,11.11,6.78,22.28,10.15,33.43c0.1,0.32,0.13,0.65,0.23,0.97c2.29,7.77,2.72,7.4,8.33,13.78c3.84,4.37,6.4,9.89,9.31,15.03
		c0.58,1.03,0.6,2.77,0.17,3.92c-2.05,5.59-4.09,11.22-6.66,16.58c-1.14,2.39-8.18,3.46-10.85,2.32c-4.92-2.09-9.92-4-14.71-6.34
		c-1.19-0.58-3.04-0.94-3.27-3.42c-0.14-1.55-2.35-3.21-3.98-4.26c-6.26-4-8.83-10.49-11.31-16.86
		c-4.96-12.73-8.73-25.98-14.47-38.33c-3.73-8.01-7.5-15.87-9.66-24.43c-1.85-7.36-2.78-14.69-1.28-22.4
		c0.83-4.26-0.21-8.87-0.38-13.33c-0.14-3.81-0.42-7.63-0.32-11.43c0.15-5.26,0.84-10.52,0.85-15.78c0-5.09-0.81-10.19-0.82-15.28
		c-0.01-4.6,0.85-9.2,0.82-13.8c-0.04-5.94-0.53-11.87-0.96-17.8c-0.08-1.08-0.77-2.12-0.86-2.38c-7.04,0.95-13.74,2.33-20.49,2.6
		c-4.3,0.17-8.81-0.85-12.98-2.12c-8.66-2.64-17.39-5.29-25.62-8.99c-4.17-1.87-7.98-5.55-10.77-9.29
		c-5.36-7.16-10.23-14.75-14.65-22.54c-6.04-10.64-10.39-22.06-13.58-33.89c-2.03-7.53-2.87-15.09-1.11-22.86
		c0.77-3.39,1.08-6.95,1.05-10.42c-0.06-5.92,3.21-10.05,6.91-13.97c7.52-7.97,15.39-15.63,22.63-23.85
		c4.05-4.59,7.12-10.04,10.63-15.1c0.28-0.4,0.51-0.88,0.88-1.18c7.65-6.35,10.52-16.11,16.86-23.5c6.24-7.28,11.6-15.38,16.8-23.47
		c4.56-7.1,8.1-14.84,12.55-22.01c5.75-9.25,11.84-18.29,18.01-27.26c10.42-15.15,21.92-29.41,35.15-42.25
		c5.22-5.07,9.69-10.94,15.06-15.83c8.5-7.74,17.42-15.03,26.29-22.36c3.33-2.76,7.01-5.09,10.53-7.63
		c4.4-3.17,5.88-8.07,7.82-12.79c2.88-7.02,5.9-14,9.2-20.83c0.88-1.83,2.71-3.56,4.54-4.5c6.4-3.29,11.76-7.93,16.5-13.11
		c4.48-4.9,10.82-6.83,15.6-11.05c4.81-4.26,10.98-5.32,16.56-7.79c6.55-2.9,13.21-5.46,20.31-6.49c9.09-1.32,18.28-1.07,27.4-0.57
		c4.65,0.25,9.21,2.44,13.86,2.62c4.14,0.15,8.44-0.92,12.5-2.05c14.55-4.07,29.1-8.16,43.48-12.75c6.77-2.16,13.38-5.09,19.65-8.44
		c3.14-1.68,6.04-4.49,5.42-9.21c-0.95-7.27-1.39-14.61-2.15-21.91c-0.11-1.08-0.85-2.09-1.05-2.56c-7.91,1.43-15.51,3.7-23.17,3.92
		c-7.39,0.21-14.85-1.71-22.14-2.68c-0.65,1.26-1.31,4.37-2.57,4.63c-3.91,0.83-8.28,1.5-12.03,0.54
		c-7.23-1.85-14.05-5.23-19.67-10.28c-2.54-2.28-4.12-5.45-5.72-8.68c-1.72-3.47-3.87-6.83-5.26-10.55
		c-3.5-9.42-3.04-18.78,0.22-28.47c-10.39-7.13-15.13-17.91-17.57-30.15c-2.33-11.71-2.13-23.24,1.27-34.91
		c-7.95-0.04-15.82-1.1-21.36-7.63c2.78-1.93,4.95-3.23,6.89-4.83c1.79-1.48,3.18-3.46,5.01-4.88c4.89-3.79,6.96-9.32,8.02-14.85
		c1.79-9.32,3.49-18.74,3.21-28.33c-0.07-2.24-0.5-4.48-0.52-6.71c-0.07-6.41-0.03-12.81-0.03-19.38
		c-3.19,5.56-5.16,11.51-5.39,17.93c-0.21,6.06-0.05,12.14-0.05,18.21c-0.37,0.07-0.74,0.14-1.1,0.22
		c-0.69-2.14-1.44-4.26-2.06-6.42c-2.2-7.72-1.86-15.2-0.15-23.2c0.99-4.62,4.74-7.94,4.51-12.75c-0.02-0.47,0.77-1.07,1.29-1.46
		c5.13-3.78,7.7-9.56,11.46-14.41c1.52-1.96,1.17-3.27-0.45-4.65c-1.75-1.48-3.5-2.99-5.37-4.32c-4.03-2.86-6.67-6.84-8.98-11.06
		c-1.63-2.97-2.84-6.17-4.48-9.13c-2.1-3.79-3.62-7.73-3.89-12.05c-0.5-7.85-2.41-15.48-1.18-23.65c0.79-5.24,0.91-10.69,2.49-15.82
		c0.93-3.03,2.37-6.06,4.22-8.63c3.07-4.27,5.89-4.62,10.46-0.89c9.43,7.69,18.54,15.77,27.83,23.63c3.33,2.83,6.79,5.51,10.94,8.87
		c0.2-2.3,0.58-3.57,0.36-4.73c-1.62-8.72-2.14-17.51-1.94-26.37c0.14-6.21-0.39-12.47,0.13-18.64c0.75-8.86,1.5-17.82,3.52-26.45
		c1.93-8.25,4.61-16.4,9.26-23.79c2.17-3.44,3.57-7.32,6.07-10.7c1.49-2.03,1.16-5.3,2.11-7.85c4.96-13.36,11.79-25.62,22.46-35.32
		c3.24-2.94,6.99-5.4,10.75-7.67c2.48-1.49,4.36,0.13,5.94,2.88c-1.87,3.45-3.44,7.48-5.96,10.78
		c-7.49,9.82-10.24,21.26-12.25,33.04c-1.37,8.05-2.74,16.09-4.08,24.14c-0.35,2.09-0.85,4.19-0.87,6.29
		c-0.08,12.16-0.44,24.35,0.07,36.49c0.49,11.59,1.93,23.14,3.01,35.32c3.13-2.08,5.53-4.03,8.22-5.4c4.35-2.21,8.91-4,13.36-6.03
		c1.92-0.88,4.1-1.55,5.61-2.92c4.78-4.34,10.14-4.88,16.08-3.35c5.82,1.5,11.8,2.48,17.49,4.35c4.89,1.61,9.47,4.15,14.11,6.25
		c4.58-0.58,9.41-1.19,14.83-1.87c0.36-3.82,1.08-8.01,1.1-12.21c0.11-24.33,0.42-48.67-0.12-72.99
		c-0.23-10.26-2.4-20.48-3.56-30.73c-0.57-5.07-0.89-10.17-1.25-15.25c-0.14-2-0.55-4.2,0.06-6c0.97-2.84,2.95-3.14,4.74-0.79
		c1.96,2.58,4,5.36,5.01,8.38c4.83,14.5,9.8,28.98,13.82,43.72c4.93,18.04,9.25,36.26,13.29,54.53c1.99,9.04,2.75,18.35,4.05,27.54
		c0.41,2.92,0.57,5.89,1.26,8.74c0.51,2.11,1.65,3.76,3.66,5.35c4.3,3.4,7.85,7.75,11.9,11.93c3.03-3.98,6.27-8.22,9.5-12.47
		c6.22-8.21,12.5-16.37,18.61-24.67c1.61-2.19,2.68-4.79,4.01-7.19c1.19-2.14,2.58-4.18,3.57-6.41c3.03-6.81,12.22-7.26,16.27,0.89
		c4,8.04,6.63,16.52,6.41,25.86c-0.11,4.75,1.84,9.54,2.87,14.31c3.21,14.92,4,29.76,1.3,45c-1.32,7.45-3.39,14.6-5.55,21.7
		c-3.25,10.71-9.76,19.51-18.8,26.15c2.57,6.88,4.96,13.62,7.64,20.23c0.55,1.35,1.98,2.58,3.31,3.32
		c4.88,2.74,9.72,6.07,15.76,4.54c2.29-0.58,4.38-1.91,6.56-2.89c1.56,2.32,0.67,3.79-1.49,4.66c-6.3,2.52-12.64,4.95-19.5,7.63
		c0.02,0.05,0.23,1.08,0.85,1.65c10.13,9.21,10.38,22.53,2.83,31.64c-1.58,1.91-2.57,4.31-4.29,6.38c1.48-7.65,1.46-14.93-3.7-22.37
		c-1.11,3.07-2.19,5.62-2.95,8.26c-2.06,7.15-2.73,14.77-7.01,21.15c-3.4,5.07-6.55,10.43-10.68,14.84
		c-3.58,3.83-6.82,7.72-8.08,12.7c-1.7,6.72-6.97,10.45-11.36,14.93c-1.47,1.5-2.95,2.53-3.17,4.99
		c-0.72,8.06-2.18,16.06-2.64,24.12c-0.73,12.94,0.2,25.85,4.01,38.3c1.84,6.01,4.62,11.75,7.18,17.52
		c0.47,1.06,1.79,1.99,2.94,2.45c11.63,4.64,23.12,9.76,35.03,13.55c11.27,3.58,22.95,5.92,34.52,8.47
		c10.17,2.25,20.44,4.08,30.69,5.98c1.41,0.26,3.08,0.15,4.4-0.37c15.98-6.33,31.5-4.45,46.62,2.68
		c17.35,8.17,31.82,20.1,42.8,35.78c7.38,10.54,11.7,22.59,12.65,35.54c0.87,11.9,5.73,22.32,10.72,32.85
		c4.2,8.87,9.19,17.18,15.11,24.95c4.65,6.12,9.64,12,14.2,18.18c5.82,7.88,11.69,15.74,16.93,24
		c6.55,10.32,12.97,20.78,18.56,31.64c7.83,15.2,12.8,31.58,18.17,47.79c2.45,7.39,6.43,14.26,9.47,21.47
		c5.37,12.75,10.8,25.49,15.73,38.42c2.99,7.84,5.31,15.95,7.53,24.05c1.03,3.75,1.11,7.76,1.62,11.66
		c0.45,3.4,0.96,6.78,1.34,10.19c0.13,1.2,0.29,2.6-0.18,3.62c-2.1,4.58-4.05,9.3-6.79,13.49c-2.1,3.21-5.45,5.41-9.36,4.73
		c-0.14,1.64,0.09,3.06-0.43,4.11c-0.79,1.58-2.23,2.83-3.14,4.37c-0.58,0.98-3.64,1.61-0.78,3.42c-1.32,1.13-2.52,2.47-4.01,3.31
		c-1.1,0.62-2.66,0.36-3.86,0.86c-4.14,1.73-8.22,3.62-12.39,5.48c4.3,1.28,8.55,3.66,12.68,3.47c4.74-0.22,9.68-1.57,13.81-4.93
		c8.88-7.23,17.87-14.35,27.13-21.08c5.76-4.19,12.19-7.45,18.13-11.39c5.03-3.34,9.74-7.17,14.72-10.58
		c4-2.74,8.29-5.06,12.31-7.76c5.2-3.49,10.34-7.09,15.37-10.83c1.63-1.21,3.36-2.79,4.13-4.59c3.29-7.79,7.47-15.49,8.96-23.65
		c1.62-8.82,1.59-18.2-1.36-27.09c-1.09-3.29-2.51-6.48-3.52-9.8c-1.44-4.77-5.8-6.33-9.26-8.91c-1.04-0.77-1.92-1.76-3.25-2.99
		c4.57-2.47,7.26,0.86,9.25,2.48c5.35,4.38,10.4,9.34,14.58,14.83c1.64,2.15,3.94,3.98,4.59,6.58c0.78,0,1.28,0.14,1.42-0.02
		c2.58-3.04,6.34-5.74,7.39-9.26c1.67-5.59,5.93-8.79,9.3-12.68c3.73-4.3,8.67-7.52,12.96-11.35c2.78-2.49,5.3-5.26,8.01-7.83
		c0.88-0.84,2.01-1.42,3.02-2.11c0.36,0.18,0.71,0.35,1.07,0.53c-0.37,3.09-0.2,6.36-1.2,9.23c-3.2,9.19-3.14,18.72-3.65,28.2
		c-0.28,5.22,1.85,9.13,6.84,11.45c1.6,0.74,2.91,2.36,4.05,3.81c2.23,2.81,4.15,5.86,6.42,8.63c0.52,0.63,2.02,0.88,2.93,0.69
		c10.98-2.31,21.88-5.09,32.93-7c6.64-1.15,13.49-1.16,20.26-1.4c11.24-0.39,22.5-0.4,33.74-0.85c6.2-0.24,12.18,0.98,18.24,1.75
		c2.62,0.33,5.3,0.25,7.95,0.27c7.74,0.05,15.49-0.19,23.21,0.15c5.45,0.24,10.95,0.85,16.29,1.96c12.63,2.62,25.4,1.29,38.08,2.05
		c15.75,0.95,31.57,1.75,47.01,5.72c6.14,1.58,12.61,1.87,18.8,3.29c5.24,1.2,10.29,3.2,15.43,4.84c5.25,1.67,10.54,3.22,15.76,4.99
		c8.5,2.87,16.89,6.05,25.43,8.78c10.29,3.28,19.46,8.8,28.73,14.06c4.93,2.8,9.16,6.81,13.79,10.17c6.34,4.6,12.76,9.08,19.1,13.68
		c0.77,0.56,1.22,1.54,1.9,2.25c3.69,3.91,7.06,8.19,11.17,11.6c6.66,5.52,11.21,12.75,16.77,19.15c3.77,4.34,7.68,8.58,11.26,13.08
		c5.99,7.51,11.41,15.37,14.94,24.46c3.69,9.49,7.89,18.77,11.84,28.16c1.69,4,2.92,8.25,5.05,12c3.78,6.66,9.85,10.63,16.84,13.66
		c7.6,3.3,15.36,3.96,23.52,4.14c9.27,0.21,18.51,1.82,27.78,2.74c4.59,0.45,9.23,0.44,13.78,1.14c6.11,0.93,12.15,2.35,18.22,3.55
		c0.81,0.16,1.64,0.44,2.43,0.36c5.77-0.56,10.81,1.52,15.95,3.79c3.79,1.68,7.08,3.71,10.33,6.37c6.26,5.13,13.22,9.4,19.76,14.2
		c2.91,2.14,5.51,4.69,8.24,7.08c0.36,0.32,0.85,0.74,0.89,1.14c0.49,5.1,0.99,10.21,1.3,15.33c0.23,3.76,0.48,7.55,0.19,11.29
		c-0.51,6.59-1.44,13.15-2.17,19.72c-0.09,0.83-0.17,1.68-0.08,2.49c0.88,7.8-3.36,12.78-9.34,16.63
		c-4.9,3.16-10.28,5.65-14.93,9.13c-6.62,4.96-14.63,6.47-21.85,9.86c-6.15,2.89-12.46,4.8-19.26,5.01
		c-0.48,0.01-0.99,0.14-1.44,0.32c-12.3,5.18-24.57,10.44-36.9,15.56c-6.31,2.62-12.74,4.93-19.08,7.48
		c-9.06,3.64-17.93,7.84-27.17,10.93c-9.51,3.19-18.43,7.31-26.92,12.59c-4.17,2.59-9.08,4.15-12.9,7.15
		c-8.94,7.01-10.96,16.89-9.86,27.68c0.08,0.78,0.81,1.84,0.51,2.26c-4.08,5.86-0.56,12.77-2.66,18.97
		c-0.54,1.6,1.04,3.98,1.82,5.93c3.43,8.65,7.33,16.87,14.39,23.47c3.79,3.54,8.27,3.32,12.48,4.51c5.93,1.67,12.15,2.35,18.04,4.14
		c7.29,2.22,14.4,5.04,21.52,7.78c8.06,3.1,14.7,8.68,17.54,16.46c3.53,9.67,7.66,19.22,8.32,30.01c0.55,8.84,1.38,17.49-2.41,25.56
		c-2.81,5.99-4.63,12.73-9.97,17.3c-1.45,1.24-3.17,2.17-4.78,3.24c-6.94,4.59-13.55,9.81-20.92,13.58
		c-8.27,4.23-16.35,9.11-26.08,10.18c-7.58,0.83-15.01,3-22.51,4.57c-8.4,1.77-16.87,3.24-25.17,5.39
		c-7.82,2.03-15.5,4.64-23.16,7.22c-12.83,4.31-25.65,8.64-38.37,13.26c-11.49,4.17-22.99,8.4-34.21,13.23
		c-10.82,4.65-21.15,10.47-31.98,15.1c-9.25,3.96-17.63,9.21-25.64,15.11c-6.2,4.56-12.4,9.23-17.95,14.52
		c-4.81,4.58-9.58,9.28-15.57,11.96c-4.09,1.83-6.59,5.13-9.82,7.71c-1.15,0.91-1.38,3.15-1.73,4.85
		c-1.37,6.73-0.92,13.71-2.95,20.38c-1.51,4.97-3.17,9.44-7.97,12.52c-5.45,3.5-10.32,7.88-15.47,11.86
		c-0.64,0.49-1.34,0.96-2.09,1.23c-7.56,2.74-13.81,7.66-20.22,12.27c-6.06,4.36-12.63,7.09-19.91,8.86
		c-5.44,1.32-10.41,4.47-15.72,6.45c-19.51,7.29-38.92,14.86-59.6,18.5c-6.05,1.06-11.94,3.22-17.77,5.23
		c-5.49,1.89-11.02,2.24-16.7,1.63c-1.32-0.14-2.67,0.07-4-0.04c-7.52-0.65-15.1-0.96-22.53-2.17c-5.24-0.85-9.16-4.05-10.09-9.85
		c-0.2-1.28-0.8-2.5-0.94-3.78c-0.34-3.08-2.07-4.33-5.02-4.18c-0.33,0.02-0.67,0.02-1,0c-3.41-0.26-7.43,0.52-10.11-1.02
		c-4.72-2.72-7.63-7.58-9.86-12.68c-1.16-2.64-2.11-6.07-4.25-7.45c-5.02-3.23-5.5-8.26-6.67-13.06c-1-4.11-1.39-8.37-2.11-12.56
		c-0.83-4.8,1.78-8.78,3.91-12.41c2.82-4.81,3.89-9.88,5.13-15.09c0.7-2.93,2.14-5.7,3.35-8.5c1.79-4.14,3.78-8.19,5.39-12.4
		c0.28-0.74-0.88-2.03-1.38-3.07c0.87-0.8,1.76-1.62,3.07-2.82c-0.93-0.13-1.3-0.27-1.64-0.22c-3.11,0.44-5.58,1.33-7.73,4.27
		c-1.64,2.25-5.24,3.16-8.07,4.42c-7.41,3.3-14.81,6.64-22.35,9.64c-7.54,3-15.47,3.99-23.59,4.02c-5.79,0.02-11.58,0.93-17.36,0.78
		c-4.87-0.13-9.77-0.97-14.56-1.95c-6.68-1.37-13.28-3.16-19.91-4.8c-12.5-3.09-23.88-8.65-34.47-15.85
		c-6.64-4.51-13.01-9.36-17.76-16c-0.52-0.73-1.33-1.35-2.13-1.78c-7.13-3.77-12.7-9.32-17.91-15.33c-1.12-1.29-2.79-2.09-4.17-3.16
		c-5.11-3.95-10.12-7.91-14.45-12.85c-4.54-5.18-10.14-9.44-15.29-14.08c-0.48-0.43-1.29-0.61-1.58-1.12
		c-3.19-5.55-10.32-5.9-14.11-10.71c-0.41-0.52-1.76-0.53-2.62-0.4c-7.43,1.11-14.83,2.41-22.27,3.44
		c-4.97,0.69-10.05,0.71-14.99,1.58c-9.46,1.68-18.87,3.63-28.25,5.71c-5.35,1.18-10.56,2.99-15.9,4.24
		c-14.24,3.35-28.5,6.63-42.8,9.76c-5.52,1.21-11.14,1.98-16.72,2.86c-5.75,0.91-11.54,1.58-17.27,2.61
		c-1.91,0.34-3.75,1.34-5.51,2.25c-10.05,5.22-20.53,6.39-31.54,3.84c-2.89-0.67-5.91-0.86-8.87-1.17
		c-6.44-0.66-12.88-1.6-19.33-1.78c-5.78-0.16-11.59,0.84-17.39,0.81c-9.29-0.05-18.57-0.73-27.86-0.76
		c-7.79-0.03-15.59,0.65-23.38,0.72c-5.81,0.05-11.63-0.42-17.45-0.58c-3.64-0.1-7.3,0.04-10.94-0.05
		c-5.28-0.13-10.57-0.21-15.83-0.61c-4.05-0.31-8.09-0.98-12.09-1.71c-2.38-0.43-4.64-1.54-7.02-1.9
		c-6.97-1.04-13.99-1.8-20.97-2.79c-4.6-0.65-9.17-1.55-13.77-2.25c-6.89-1.05-13.78-2.08-20.68-3c-7.95-1.05-15.9-2.17-23.89-2.89
		c-8.64-0.78-17.32-1.13-25.99-1.66c-2.81-0.17-5.62-0.38-8.44-0.5c-7.58-0.34-15.17-0.64-22.75-0.96
		c-10.55-0.45-21.09-0.95-31.64-1.33c-8.35-0.3-16.71-0.31-25.06-0.71c-8.83-0.42-17.64-1.19-26.47-1.71
		c-2.61-0.15-5.24,0.08-7.85,0c-6.59-0.2-13.17-0.54-19.76-0.64c-1.13-0.02-2.31,0.78-3.4,1.33c-4.15,2.13-8.01,4.72-12.95,5.22
		c-2.8,0.28-5.54,1.83-8.18,3.09c-5.52,2.63-10.75,6.06-16.49,8.01c-5.43,1.84-10.83,3.49-15.72,6.58
		c-0.61,0.39-1.82-0.18-2.87-0.32c-2.48,2.99-3.26,3.28-7.76,3.04c-0.49-0.03-1,0.55-1.52,0.82c-3.44,1.8-6.75,3.95-10.36,5.31
		c-7.03,2.66-13.54,6.26-20.12,9.83c-3.83,2.07-8.41,2.69-12.43,4.48c-5.8,2.58-11.42,5.55-17.06,8.48
		c-3.83,1.99-7.92,3.29-11.84,4.92c-2.36,0.98-4.63,3.51-7.3,4.51c-6.54,2.45-13.26,4.43-19.86,6.74c-1.29,0.45-2.26,1.79-3.55,2.28
		c-4.66,1.79-9.42,3.31-14.08,5.09c-3.63,1.38-7.44,2.23-10.97,3.98c-2.32,1.15-5.07,2.21-7.56,2.08c-4.5-0.24-7.27,3.39-11.27,4.14
		c-1.85,0.35-3.53,1.78-5.23,2.81c-4.82,2.91-9.56,5.96-14.43,8.77c-6.03,3.48-10.13,9.69-16.28,12.58
		c-6.58,3.09-11.29,8.19-16.36,12.78c-2.97,2.68-6.8,4.92-8.5,9.21c-0.82,2.08-2.46,3.97-5.78,4.45c-2.62,0.38-4.92,3.61-7.16,5.78
		c-4.13,4.02-9.25,5.84-14.62,7.48c-9.32,2.84-18.65,5.63-27.17,10.72c-3.09,1.85-7.05,2.45-10.7,3.1
		c-9.63,1.71-19.31,3.07-28.96,4.69c-11.49,1.92-23.06,2.61-34.68,2.75c-4.91,0.06-9.82,0.67-14.72,0.59
		c-9.44-0.15-18.88-0.46-28.3-1.02c-4.04-0.24-8.07-1.1-12.05-1.96c-3.12-0.68-3.95-2.9-3.25-5.94c1.39-6.06-1.06-9.33-7.26-8.94
		c-6.36,0.4-12.67,1.53-19.01,2.31c-4.55,0.56-9.12,1.06-13.67,1.6c-2.87,0.34-4.88-0.81-5.69-3.58c-0.78-2.68-1.33-5.43-1.93-8.16
		c-0.14-0.62,0.09-1.41-0.2-1.91c-3.93-6.67,0.07-11.49,3.79-16.33c5.48-7.13,10.95-14.28,16.59-21.28
		c4.23-5.25,8.7-10.32,13.11-15.42c8.26-9.55,16.12-19.49,24.97-28.47c8.84-8.97,17.47-18.43,29.38-23.8
		c2.77-1.25,5.52-3.29,7.39-5.67c3.66-4.67,8.64-6.08,13.96-7.34c6.96-1.65,13.91-3.38,20.77-5.39c11.02-3.24,22.15-5.81,33.51-7.67
		c7.02-1.15,13.87-3.73,19.39-8.96c5.17-4.9,11.53-7.98,18.46-9.48c7.75-1.68,13.97-5.78,20.55-10.07
		c15.25-9.96,31.34-18.62,47.12-27.78c7.06-4.1,13.95-8.55,21.29-12.06c13.77-6.6,27.71-12.86,41.76-18.84
		c8.83-3.77,17.95-6.89,27.01-10.1c7.96-2.82,15.87-6.11,24.09-7.77c5.6-1.13,7.61-4.8,10.34-8.57
		c8.97-12.35,20.72-20.35,36.12-22.3c4.07-0.52,8.2-1.06,12.28-0.94c10.98,0.33,21.37-2.59,31.89-5.02
		c9.66-2.24,19.43-4.02,29.13-6.07c4.61-0.98,9.18-2.14,13.78-3.18c14.43-3.27,28.87-6.47,43.28-9.81
		c9.98-2.32,19.88-5.03,29.89-7.2c10.03-2.17,20.1-4.24,30.25-5.7c12-1.73,24.1-2.86,36.17-4.05
		C665.01,1243.31,672.16,1243,679.96,1242.47z M640.43,678.05c-1.98,1.5-4.34,3.19-6.6,5.02c-5.78,4.68-12.01,8.75-15.17,16.15
		c-2.72,6.36-6.15,12.54-10.08,18.23c-5.48,7.94-11.57,15.47-17.66,22.96c-5.87,7.21-11.99,14.22-18.17,21.17
		c-4.78,5.38-9.62,10.73-14.79,15.73c-5.5,5.32-11.49,10.13-17.12,15.32c-2.89,2.66-2.18,6.23,1.16,8.45
		c7.71,5.13,15.4,10.29,23.01,15.56c6.39,4.42,12.89,8.72,17.43,15.32c1.33,1.93,3.3,4.45,5.25,4.72c4.57,0.63,9.31,0.05,13.98-0.03
		c3.41-0.05,6.84-0.36,10.21-0.04c6.25,0.6,12.46,1.56,18.68,2.41c4.35,0.6,8.7,1.24,13.05,1.91c5.44,0.84,8.07,4.41,9.26,9.47
		c0.78,3.29,1.11,6.94,2.8,9.72c5.24,8.6,10.8,17.01,17.95,24.26c3.23,3.28,3.08,8.64,0.16,12.16c-4.4,5.31-13.05,7.33-19.45,4.65
		c-2.1-0.88-4.37-1.35-6.45-2.26c-5.2-2.28-10.55-4.34-15.42-7.21c-3.08-1.81-5.41-4.91-8.22-7.57
		c4.58,11.67,9.01,22.97,13.47,34.26c0.35,0.89,0.96,1.7,1.53,2.49c1.15,1.6,2.52,3.05,3.49,4.74c2.83,4.95,5.08,10.31,8.35,14.94
		c5.53,7.82,9.83,16.7,18.08,22.35c0.6,0.41,0.95,1.35,1.18,2.11c1.21,4.04,2.44,8.07,3.47,12.16c2.12,8.36,3.86,16.82,6.25,25.1
		c2.48,8.6,6.59,16.82,4.64,27.4c1.91-2.14,3.11-3.25,4.03-4.56c1.77-2.49,3.02-5.47,5.15-7.57c4.28-4.22,5.84-9.2,5.97-15
		c0.15-6.6,0.48-13.21,0.99-19.79c0.48-6.2,1.33-12.36,1.96-18.55c0.73-7.14,0.96-14.35,2.2-21.39c1.5-8.48,3.62-16.86,5.86-25.18
		c3.68-13.64,8.01-27.12,11.36-40.84c1-4.1,2.33-8.57,0.07-13.3c-1.53-3.21-4.37-6.92-1.26-11.13c-8.01-4.44-13.66-10.79-18.4-17.96
		c-5.87-8.88-9.7-18.7-13.01-28.78c-3.2-9.77-5.59-19.84-13.15-27.73c-4.02-4.2-6-9.94-7.74-15.6c-1.76-5.74-3.4-11.6-5.98-16.99
		c-5.65-11.82-6.38-24.59-7.8-37.19c-0.62-5.46,0.39-11.1,0.67-16.93c-2.56-0.18-4.92-0.35-7.51-0.54
		C646.61,686.24,646.51,680.65,640.43,678.05z M1001.13,764.52c2.3-0.68,4.6-1.01,6.58-2c6.7-3.34,12.4-1.12,17.85,2.83
		c3.44,2.5,6.57,5.5,10.22,7.62c11.24,6.53,22.64,12.78,34.02,19.06c5.44,3,7.19,2.56,11.46-1.92c3.44-3.62,7.08-7.05,10.54-10.64
		c1.11-1.15,2.87-2.62,2.79-3.83c-0.38-5.23,2.27-9.05,4.97-12.29c-5.57-4.54-11.35-8.41-16.09-13.3
		c-8.25-8.51-16.08-17.47-23.69-26.57c-10.6-12.69-19.03-26.78-25.87-41.85c-1.58-3.49-3.61-6.78-5.84-10.92
		c0,2.5,0.26,4.1-0.04,5.57c-2.3,11.21-6.34,21.87-12.56,31.4c-6.54,10.03-12.4,20.37-17.62,31.11c-3.22,6.63-4.7,13.25,0.13,19.91
		C999.33,760.51,1000.17,762.69,1001.13,764.52z M599.61,1073.05c0.53-0.38,1-0.57,0.98-0.72c-0.65-6.62,0.23-13.36-3.66-19.57
		c-3.24-5.16-5.46-10.99-7.93-16.6c-2.32-5.27-4.26-10.71-6.58-15.97c-1.74-3.94-3.82-7.72-5.75-11.57
		c-0.32,0.15-0.65,0.29-0.97,0.44C582.37,1030.83,589.8,1052.33,599.61,1073.05z"/>
</g>
</svg>
