<?xml version="1.0" encoding="utf-8"?>
<!-- Generator: Adobe Illustrator 24.1.2, SVG Export Plug-In . SVG Version: 6.00 Build 0)  -->
<svg version="1.1" id="Layer_1" xmlns="http://www.w3.org/2000/svg" xmlns:xlink="http://www.w3.org/1999/xlink" x="0px" y="0px"
	 viewBox="0 0 337.4 654.29" style="enable-background:new 0 0 337.4 654.29;" xml:space="preserve">
<style type="text/css">
	.st0{fill:#191919;}
	.st1{fill:none;stroke:#000000;stroke-miterlimit:10;}
</style>
<g id="AG-OUTLINE">
	<g>
		<g id="POLYLINE_240_">
			<path class="st0" d="M162,291.49c-0.36,1.99-1.06,3.91-1.38,5.91c-0.34,2.13-0.29,4.29-0.59,6.42c-0.31,2.21-0.49,4.49-1.04,6.66
				c-0.29,1.14-0.87,2.21-0.91,3.4c-0.07,2.05,1.1,4.11-0.2,5.95c-0.51,0.72-1.17,1.31-1.42,2.18c-0.39,1.35-0.05,2.83-0.1,4.21
				c-0.12,2.93-1.74,5.53-1.87,8.47c-0.1,2.4,1.18,4.75,0.73,7.11c-0.56,2.91-2.41,5.45-2.63,8.45c-0.13,1.88-0.05,3.7-0.27,5.58
				c-0.19,1.62-0.03,3.1,0.24,4.71c0.23,1.35,0.32,2.63,0.04,3.98c-0.32,1.53-0.91,3-1.01,4.57c-0.15,2.27,1.12,4.73,0.23,6.92
				c-0.53,1.31-1.56,2.35-1.95,3.73c-0.3,1.04-0.26,2.15-0.18,3.22c0.15,2.22,0.25,4.3-0.15,6.5c-0.37,2.09-0.88,4.11-0.89,6.24
				c0,1.54,0.13,3.12-0.21,4.64c-0.31,1.39-0.95,2.71-1.08,4.15c-0.13,1.53,0.08,3.08-0.12,4.61c-0.13,1.06-0.51,2.05-0.93,3.03
				c-0.49,1.13-1.15,2.29-1.31,3.53c-0.15,1.19,0.27,2.34,0.3,3.53c0.05,1.63-0.45,3.22-0.55,4.83c-0.08,1.32,0.28,2.58,0.36,3.88
				c0.16,2.6-1.57,4.87-1.44,7.46c0.13,2.39,1.84,4.53,1.2,6.98c-0.34,1.3-1.11,2.45-1.48,3.75c-0.27,0.93-0.29,1.89-0.28,2.85
				c0.03,1.9-0.05,3.65-0.51,5.5c-0.43,1.72-1.08,3.47-1.18,5.26c-0.07,1.13,0.41,2.02,0.78,3.06c0.43,1.21,0.5,2.49,0.49,3.76
				c-0.02,1.98-0.24,4.01-0.83,5.9c-0.31,0.99-0.74,1.91-0.61,2.97c0.13,1.09,0.36,2.05,0.15,3.14c-0.25,1.29-0.84,2.52-0.74,3.86
				c0.07,1.05,0.45,2.04,0.34,3.11c-0.16,1.59-0.82,3.09-1.05,4.68c-0.32,2.17-0.75,4.41-0.93,6.6c-0.09,1.02,0.18,1.57,0.5,2.5
				c0.51,1.52-0.7,3.06-0.7,4.62c0,1.39,0.38,2.76,0.35,4.15c-0.02,1.03-0.28,2.01-0.59,2.99c-0.35,1.12-0.7,2.18-0.63,3.35
				c0.09,1.72-0.11,3.38-0.09,5.1c0.01,0.97,0.43,1.85,0.54,2.81c0.16,1.37,0.1,2.84-0.15,4.2c-0.18,0.99-0.66,1.85-0.93,2.81
				c-0.38,1.33-0.28,2.78-0.22,4.14c0.09,2.24,0.29,4.47,0.12,6.71c-0.17,2.21-0.76,4.33-1.37,6.45c-0.78,2.72-1.83,5.58-1.24,8.44
				c0.3,1.43,0.77,2.73,0.66,4.21c-0.1,1.34-0.46,2.66-0.42,4.01c0.05,1.37,0.4,2.71,0.34,4.09c-0.09,2.11-0.76,4.1-1.26,6.14
				c-0.36,1.46-0.59,2.33,0.36,3.41c0.97,1.09,0.19,2.73-0.03,3.99c-0.3,1.69-0.07,3.38-0.04,5.07c0.04,2.11-0.41,4.18-0.44,6.28
				c-0.02,1.93,0,4.03,0.44,5.92c0.22,0.93,0.63,1.35,1.15,2.11c1.55,2.28,0.92,5.35,1.83,7.85c0.33,0.89,1,1.59,1.25,2.52
				c0.48,1.81,0.46,3.8,0.77,5.65c0.44,2.7,0.93,5.4,1.4,8.09c0.33,1.87,0.27,3.77,0.58,5.63c0.29,1.76,0.9,3.44,1.02,5.23
				c0.11,1.58,0.01,3.19-0.28,4.75c-0.23,1.28-0.86,2.57-0.82,3.88c0.03,0.83,0.28,1.53,0.11,2.36c-0.16,0.78-0.4,1.48-0.23,2.27
				c0.15,0.71,0.64,1.41,0.54,2.16c-0.11,0.87-1,1.38-1.72,1.73c-2.67,1.32-5.77,1.61-8.69,1.16c-2.3-0.36-4.53-0.86-6.86-0.96
				c-1.77-0.07-3.75,0.27-5.47-0.21c-1.51-0.41-1.95-1.85-2.26-3.24c-0.41-1.81-0.5-1.83,0.8-3.22c1.32-1.42,2.75-2.84,3.75-4.52
				c0.57-0.95,0.74-2.01,1.21-2.99c0.96-1.99,3.15-2.99,3.47-5.34c0.19-1.46-0.1-2.99-0.31-4.43c-0.3-2.07-0.35-4.08-0.53-6.15
				c-0.22-2.53-0.64-5.04-0.9-7.57c-0.2-1.9,0.07-3.92-0.24-5.78c-0.2-1.23-1.28-1.89-1.36-3.21c-0.07-1.19,0.13-2.35-0.24-3.5
				c-0.27-0.81-0.4-1.27-0.23-2.11c0.16-0.78,0.37-1.49,0.18-2.28c-0.18-0.78-0.76-1.38-0.94-2.16c-0.28-1.25,0.23-2.77,0.47-3.97
				c0.3-1.54,0.24-2.93,0.15-4.48c-0.13-2.18,1.52-3.8,1.27-5.99c-0.16-1.33-0.74-2.63-0.71-3.98c0.02-1.23,0.72-2.38,1.09-3.52
				c0.36-1.09,0.63-2.22,0.59-3.39c-0.04-1.21-0.2-2.29,0.06-3.49c0.18-0.83,0.64-1.94,0.41-2.82c-0.13-0.5-0.55-0.85-0.73-1.33
				c-0.29-0.75-0.16-1.65-0.06-2.41c0.2-1.58,0.15-2.92,0.17-4.48c0.02-1.12,0.61-2.1,1-3.13c0.38-1,0.65-2.05,0.61-3.12
				c-0.06-2.14-1.16-4.11-0.82-6.28c0.22-1.41,0.8-2.73,1.05-4.14c0.18-1.03,0.1-2.09-0.01-3.13c-0.27-2.41-1.08-6.05,0.35-8.29
				c0.36-0.56,0.76-0.88,0.91-1.54c0.2-0.88,0.14-1.91-0.05-2.79c-0.15-0.65-0.51-1.21-0.48-1.89c0.06-1.43,0.77-2.79,0.9-4.22
				c0.12-1.34-0.12-2.69-0.02-4.03c0.11-1.55,0.67-3.06,0.64-4.61c-0.02-1.66-0.43-3.33-0.27-4.99c0.1-0.97,0.41-1.86,0.36-2.84
				c-0.07-1.45-0.51-2.89-0.31-4.35c0.18-1.29,0.73-2.48,0.89-3.78c0.19-1.53,0.04-3.18,0.52-4.67c0.31-0.96,0.74-1.61,0.71-2.64
				c-0.05-1.47-0.33-2.77-0.19-4.24c0.12-1.28-0.21-2.53-0.16-3.81c0.06-1.53,0.69-2.95,1.01-4.43c0.3-1.41,0.16-2.86,0.22-4.28
				c0.1-2.37,0.53-4.7,0.65-7.06c0.07-1.39-0.19-2.76-0.21-4.15c-0.02-1.05,0.41-2.02,0.56-3.05c0.28-1.91,0.14-3.86,0.41-5.78
				c0.22-1.5,0.04-3.04,0.27-4.52c0.17-1.07,0.88-1.99,1-3.05c0.15-1.25-0.98-2.19-0.98-3.47c-0.01-2.67,1.99-4.83,2.85-7.23
				c0.33-0.93,0.6-1.98,0.4-2.96c-0.19-0.95-0.88-1.69-1.13-2.61c-0.4-1.49,0.74-2.88,0.61-4.39c-0.1-1.25-0.54-2.43-0.58-3.69
				c-0.03-0.96,0.09-1.95,0.32-2.88c0.32-1.29,0.96-2.49,1.2-3.8c0.24-1.32-0.14-2.58-0.3-3.89c-0.33-2.78,1.18-5.27,1.48-7.98
				c0.15-1.29-0.11-2.66,0.24-3.91c0.26-0.92,0.9-1.68,1.21-2.59c0.26-0.77,0.44-1.59,0.38-2.4c-0.07-1.09-0.41-2-0.22-3.1
				c0.25-1.46,0.7-2.85,0.63-4.34c-0.06-1.43-0.22-2.73,0.19-4.13c0.36-1.24,1.03-2.49,0.89-3.81c-0.1-1.01-0.58-1.94-0.54-2.97
				c0.09-2.6,1.75-4.88,1.86-7.52c0.07-1.46-0.24-2.92-0.15-4.38c0.09-1.47,0.69-2.82,1.18-4.18c0.88-2.42,0.43-4.26,0.05-6.76
				c-0.37-2.43,0.93-4.61,0.75-7.06c-0.12-1.64-0.09-3.15,0.26-4.76c0.48-2.17,1.26-4.25,1.67-6.43c0.23-1.23,0.3-2.48,0.2-3.73
				c-0.13-1.42-0.57-3-0.23-4.42c0.22-0.92,0.89-1.56,1.31-2.39c0.68-1.35,0.67-3.16,0.87-4.62c0.27-1.93,0.25-3.88,0.5-5.8
				c0.14-1.03,0.67-1.87,1.04-2.83c1.07-2.8-0.08-5.76,0.17-8.63c0.14-1.64,0.89-3.16,1.52-4.66c0.75-1.79,1.25-3.68,1.56-5.6
				c0.4-2.57,0.45-5.16,0.62-7.75c0.08-1.23-0.68-2.31-1.18-3.42c-0.56-1.24-1.09-2.5-1.61-3.76c-2.44,4.33-5.24,8.41-8.15,12.44
				c-2.89,3.99-5.78,8.03-9.06,11.72c-1.64,1.85-6.35,7.75-8.93,3.97c-0.76-1.11-1.15-2.46-1.52-3.73
				c-0.68-2.33-1.19-4.73-1.64-7.12c-0.98-5.29-1.69-10.62-2.39-15.95c-1.12-8.49-1.92-17.01-2.46-25.55
				c-5.1,8.86-9.9,17.94-13.92,27.35c-2,4.69-3.93,9.42-5.4,14.3c-1.42,4.74-2.12,9.46-2.51,14.38c-0.11,1.43-0.06,4.36-1.65,5.18
				c-0.97,0.5-1.56-0.51-1.9-1.31c-0.65-1.56-0.9-3.31-1.13-4.97c-0.34-2.5-0.53-5.02-0.66-7.54c-0.25-4.95-0.28-9.93-0.13-14.88
				c0.31-10.19,1.04-20.44,3.37-30.39c2.23-9.51,5.97-18.52,10.6-27.09c4.79-8.88,10.28-17.36,16.48-25.33
				c3-3.85,6.19-7.57,9.56-11.09c0.81-0.85,1.63-1.7,2.47-2.51c0.75-0.73,2.4-1.82,2.53-2.85c0.28-2.19,0.7-4.37,1.31-6.49
				c1.63-5.59,4.76-10.5,10.04-13.23c-4.85,1.43-9.54,2.99-14.17,5.04c-2.19,0.97-4.37,2-6.52,3.06c-0.72,0.35-1.43,0.71-2.15,1.06
				c-0.45,0.22-1.13,0.38-1.35,0.85c-0.55,1.2-1.11,2.39-1.68,3.58c-4.29,8.78-9.23,17.74-15.89,24.97
				c-2.67,2.89-6.9,6.98-11.26,5.14c-4.76-2.02-5.94-9.02-6.7-13.4c-8.2,5.57-15.88,11.72-22.23,19.38
				c-6.63,8.01-11.44,17.36-16.7,26.28c-2.05,3.48-4.18,7.37-7.19,10.12c-0.81,0.74-2.04,1.68-3.21,1.2
				c-1.26-0.52-1.72-2.33-2.01-3.49c-1.12-4.53-0.99-9.4-0.89-14.03c0.22-9.64,1.63-19.36,4.24-28.65
				c2.56-9.14,6.13-18.25,11.97-25.82c5.96-7.73,14-13.31,23.07-16.83c2.93-1.14,5.93-2.09,8.96-2.91c1.5-0.41,3.01-0.78,4.52-1.13
				c0.6-0.14,0.57-0.11,0.71-0.72c0.09-0.39,0.18-0.77,0.28-1.16c0.17-0.7,0.37-1.4,0.56-2.1c-9.87,2.26-19.21,5.89-28.23,10.47
				c-8.6,4.36-16.78,10.01-23.14,17.32c-6.07,6.97-11.06,15.32-13.62,24.24c-1.22,4.28-1.61,8.52-1.49,12.96
				c0.04,1.45,0.35,3.32-0.13,4.75c-0.09,0.28-0.22,0.57-0.48,0.74c-0.48,0.3-1.05,0.07-1.46-0.23c-0.61-0.44-1.01-1.15-1.33-1.82
				c-0.89-1.81-1.38-3.83-1.86-5.78c-1.2-4.87-2.36-9.87-3.12-14.83c-0.68-4.51-0.16-8.89,1.87-13c0.93-1.89,2.08-3.67,3.31-5.38
				c0.7-0.97,1.43-1.91,2.18-2.84c0.29-0.36,0.78-0.73,0.81-1.2c0.05-0.69,0.09-1.38,0.14-2.07c0.42-5.02,1.05-10.01,2.05-14.94
				c1.97-9.76,5.44-19.6,11.7-27.47c6.31-7.93,15.28-12.51,24.96-14.99c3.18-0.82,6.4-1.4,9.65-1.86
				c-1.79-8.59,1.46-17.52,7.29-23.9c-9.69-3.15-19.49-6.09-29.51-8.04c-9.69-1.88-19.59-2.74-29.26-0.2
				c-4.81,1.26-9.35,3.25-14.06,4.79c-0.52,0.17-3.26,1.37-3.58,0.25c-0.3-1.03,1.71-2.69,2.28-3.21c3.21-2.87,7.42-4.58,11.44-5.98
				c9.25-3.21,19.16-4.96,28.88-5.93c10.11-1.01,20.29-1.16,30.42-0.49c10.12,0.67,20.25,1.9,30.16,4.12
				c5.06,1.13,10.07,2.46,14.99,4.1c0.83,0.28,2.19,1.08,3.04,0.99c1.63-0.17,3.27-0.34,4.9-0.52c2.15-0.23,4.26-0.8,6.42-1
				c5.68-0.52,11.37,0.18,16.59,2.52c-4.01-8.63-9.59-16.37-16.04-23.33c-6.32-6.81-13.42-13.85-21.96-17.79
				c-3.61-1.67-7.59-2.58-11.58-2.25c-4.58,0.39-8.99,2.19-12.9,4.54c-3.85,2.31-7.46,5.23-10.27,8.75
				c-1.57,1.96-2.87,4.09-4.2,6.21c-0.76,1.21-1.57,2.44-2.66,3.39c-0.33,0.29-1.24,1.14-1.78,0.75c-0.15-0.11-0.18-0.32-0.22-0.49
				c-0.35-1.41,0.33-3.53,0.52-4.9c1-7.18,1.64-15.79,8.04-20.42c3.27-2.36,7.25-3.25,11.02-4.45c4.7-1.49,9.55-2.48,14.45-3
				c9.53-1.01,19.23-0.25,28.23,3.17c6.28,2.38,11.96,6.01,17.26,10.08c-5.02-8.37-11.7-15.51-19.24-21.66
				c-3.83-3.13-7.88-5.98-12.12-8.52c-4.03-2.41-8.4-4.57-13.03-5.51c-4.63-0.94-9.2-0.31-13.64,1.19
				c-2.56,0.86-5.05,1.89-7.56,2.87c-1.45,0.57-2.94,1.2-4.49,1.43c-0.49,0.07-1.41,0.25-1.38-0.46c0.02-0.42,0.6-0.91,0.87-1.17
				c1.29-1.28,2.87-2.29,4.43-3.22c8.13-4.86,18.1-7.46,27.5-8.16c9.97-0.74,20.27,0.52,29.49,4.51
				c9.19,3.99,16.28,10.81,20.56,19.89c1.52,3.23,2.75,6.55,3.79,9.96c2.29-6.53,5.69-14.42,13.16-16.07
				c3.58-0.79,7.48-0.37,11.03,0.37c2.52,0.53,5.03,1.12,7.57,1.58c1.48,0.27,2.96,0.54,4.44,0.8c0.44,0.08,0.88,0.17,1.32,0.26
				c0.77,0.16,0.96,0.04,1.61-0.37c3.97-2.46,8.44-4.2,12.89-5.57c1.95-0.6,5.24-1.82,7.21-0.6c1.65,1.03,1.58,3.79,1.69,5.43
				c0.26,3.92,0.34,8.24-1.09,11.96c-0.38,0.98-0.87,1.91-1.35,2.84c-2.54-3.14-5.53-5.63-9.16-7.43c-0.51-0.25-1.81-1.12-2.39-1.03
				c-0.34,0.05-0.99,0.78-1.25,1c-0.42,0.35-0.84,0.71-1.24,1.09c-0.85,0.8-1.64,1.68-2.2,2.71c-0.59,1.07-0.81,2.29-1.07,3.46
				c-0.56,2.5-1.08,5.01-1.66,7.5c-1.2,5.17-2.49,10.31-3.87,15.44c-1.53,5.69-3.32,11.29-5.18,16.88
				c3.18-9.47,8.36-18.31,15.11-25.7c6.21-6.8,13.83-12.25,22.86-14.51c8.89-2.23,18.32-1.49,27.02,1.18
				c4.46,1.36,8.74,3.32,12.86,5.5c4.38,2.32,8.74,4.69,12.82,7.52c3.51,2.44,6.94,5.23,9.48,8.71c1.26,1.73,2.34,3.6,3.13,5.59
				c0.29,0.73,0.86,1.91,0.7,2.73c-0.2,1-1.12,0.06-1.58-0.34c-3.56-3.12-6.65-6.56-10.61-9.22c-6.99-4.69-15.23-7.87-23.6-8.84
				c-8.91-1.03-17.75,1.04-25.59,5.29c-8.63,4.67-16.07,11.41-22.7,18.58c-6.78,7.32-12.95,15.32-17.74,24.09
				c-1.04,1.91-2.03,3.84-3.01,5.77c4.14-2.5,8.48-4.81,13-6.53c2.97-1.13,6.29-2.05,9.48-1.46c0.64,0.12,1.69,0.7,2.29,0.62
				c0.39-0.05,1.11-0.86,1.41-1.1c0.59-0.46,1.18-0.91,1.77-1.37c1.84-1.43,3.81-2.68,5.85-3.79c4.35-2.35,9-4.13,13.67-5.72
				c9.06-3.1,18.74-5.38,28.36-5.44c9.21-0.05,17.77,2.88,24.24,9.59c6.15,6.38,10.03,15.02,11.49,23.71
				c0.76,4.51,0.87,9.14,0.4,13.69c-0.06,0.6-0.74,6.21-1.5,5.76c-0.52-0.31-0.51-2.41-0.57-2.89c-0.33-2.45-0.64-4.91-1.13-7.34
				c-0.91-4.59-2.23-9.1-4.11-13.39c-3.44-7.87-8.39-15.66-15.74-20.4c-7.77-5.01-16.96-4.9-25.72-3.06
				c-5,1.05-9.86,2.62-14.59,4.53c-3.66,1.48-7.97,3.17-10.91,5.9c-1,0.92-1.7,2.16-2.43,3.29c4.5-0.34,8.69-0.22,12.95,1.46
				c0.53,0.21,0.97,0.54,1.51,0.35c0.64-0.23,1.29-0.46,1.94-0.68c1.16-0.39,2.34-0.74,3.53-1.06c2.45-0.65,4.93-1.12,7.45-1.4
				c9.08-0.99,18.29,1.04,26.1,5.76c8.32,5.03,14.47,13.1,16.65,22.61c0.54,2.38,0.83,4.79,0.95,7.23c0.03,0.62,0.04,1.25,0.04,1.87
				c0,0.35-0.18,1.26-0.02,1.55c0.16,0.3,1.11,0.65,1.44,0.85c0.49,0.29,0.99,0.59,1.47,0.9c4.05,2.57,7.87,5.44,11.39,8.71
				c7.08,6.58,12.4,14.66,16.13,23.55c3.76,8.98,6.38,18.73,7.41,28.43c0.47,4.43,0.76,8.94-0.62,13.24
				c-0.45,1.38-0.76,2.92-1.45,4.21c-0.13,0.24-0.35,0.73-0.65,0.83c-0.74,0.25-1.05-1.08-1.2-1.55c-0.64-2.06-0.8-4.27-1.19-6.39
				c-0.42-2.28-1.03-4.52-1.8-6.7c-3.16-8.98-8.21-17.71-14.52-24.83c-3.44-3.88-7.28-7.29-11.53-10.26
				c-1.89-1.32-3.87-2.52-5.9-3.62c-1.08-0.59-2.18-1.15-3.28-1.69c-0.5-0.25-1.01-0.48-1.51-0.71c-0.61-0.28-0.73,0.57-0.99,1.09
				c-0.93,1.83-1.91,3.73-3.23,5.31c-0.39,0.47-1.29,1.81-1.98,1.88c-0.69,0.07-0.43-0.84-0.36-1.33c0.37-2.4,0.99-4.78,1.44-7.18
				c0.11-0.58,0.2-1.17,0.3-1.75c0.03-0.16-1.38-0.59-1.57-0.66c-1.22-0.45-2.44-0.87-3.67-1.27c-4.81-1.57-9.71-2.82-14.66-3.87
				c-6.29-1.34-12.66-2.25-19.06-2.88c8.32,3.96,15.44,10.19,21.29,17.25c1.56,1.89,3.03,3.83,4.44,5.84
				c0.69,0.99,1.34,2.01,1.98,3.02c0.55,0.87,1.04,2.24,1.92,2.78c4.12,2.54,8.11,5.29,11.81,8.43c7.65,6.49,13.8,14.41,19.14,22.86
				c0.59,0.93,7.08,11.16,4.64,11.67c-0.56,0.11-1.3-0.35-1.75-0.59c-1.9-1.01-3.62-2.38-5.31-3.7c-3.93-3.08-7.65-6.44-11.41-9.73
				c-3.28-2.87-6.56-5.73-9.8-8.64c0.43,2.36,0.76,4.74,0.94,7.13c0.1,1.22,0.17,2.44,0.21,3.66c0.04,1.14-0.2,2.53,0.34,3.54
				c2.32,4.37,4.12,8.99,5.65,13.69c3,9.22,5.13,19.32,4.76,29.05c-0.36,9.52-3.37,19.1-7.3,27.72c-0.99,2.16-2.02,4.3-3.29,6.32
				c-0.66,1.06-1.43,2.23-2.43,3.01c-0.66,0.51-1.36,0.75-2.09,0.29c-0.78-0.48-1.26-1.45-1.66-2.23c-1.08-2.09-1.81-4.35-2.55-6.58
				c-1.73-5.22-3.13-10.56-4.65-15.84c-2.72-9.38-5.69-18.67-9.81-27.54c-4.13-8.88-9.32-17.17-15.28-24.93
				c-5.97-7.78-12.7-15.09-20.26-21.36c-7.03-5.83-14.87-10.36-23.05-14.35c-0.52,1.23-1.04,2.46-1.56,3.69
				c-0.32,0.76-0.64,1.51-0.95,2.26c-0.23,0.54-0.51,0.7,0.04,0.98c2.09,1.08,4.11,2.26,6.06,3.57c3.99,2.69,7.57,6.02,10.66,9.7
				c6.39,7.6,11.46,16.3,15.68,25.26c4.28,9.09,7.75,18.64,9.66,28.53c1.92,9.93,1.72,20.1-0.43,29.98
				c-1.03,4.72-2.42,9.39-4.21,13.87c-0.84,2.09-1.76,4.19-2.98,6.1c-0.52,0.81-1.15,1.78-2,2.28c-2.47,1.45-3.25-3.73-3.43-5.01
				c-0.67-4.9-0.58-9.89-0.96-14.82c-0.37-4.8-1.04-9.6-2.21-14.27c-2.53-10.05-6.87-19.52-11.44-28.78
				c-4.85-9.83-10.43-19.32-15.74-28.91c-2.04-3.69-3.99-7.44-5.98-11.17c-1.08,2.21-2.41,5.24-4.81,6.33
				c-2.08,0.94-4.33-0.36-5.93-1.65c-1.13-0.91-2.13-1.97-3.04-3.1c0.38,10.15-0.06,20.32-1.32,30.4
				c-1.28,10.29-3.18,20.49-5.96,30.49c-1.33,4.8-2.88,9.55-4.67,14.2c-0.88,2.29-1.82,4.55-2.88,6.76
				c-0.78,1.65-1.59,3.39-2.75,4.81C163.81,291.29,162.96,291.85,162,291.49z"/>
		</g>
	</g>
</g>
<g id="N-TEXT">
</g>
<g id="AG-PLANTS">
	<g>
		<g id="POLYLINE_239_">
			<path class="st1" d="M221.22,35.71c0.8-1.55,1.56-3.09,1.96-4.8c0.48-2.07,0.57-4.22,0.59-6.34c0.02-2.09-0.03-4.26-0.37-6.33
				c-0.12-0.72-0.3-1.5-0.74-2.1c-1.04-1.45-3.16-1.16-4.69-0.88c-4.52,0.83-9.12,2.7-13.2,4.77c-1.29,0.65-2.54,1.37-3.75,2.16"/>
		</g>
		<g id="POLYLINE_238_">
			<path class="st1" d="M190.31,208.95c-0.45-10.38-0.86-20.75-0.6-31.14c0.27-10.28,1.82-20.46,2.13-30.73
				c0.14-4.67-0.72-8.94-1.92-13.43"/>
		</g>
		<g id="POLYLINE_237_">
			<path class="st1" d="M182.48,110.34c2.63-9.81,5.5-19.52,8.73-29.15c3.29-9.79,6.48-19.58,8.95-29.62
				c1.32-5.32,2.55-10.65,3.72-16.01c0.54-2.5,1.29-4.3,3.16-6.09c0.83-0.8,1.72-1.52,2.63-2.22"/>
		</g>
		<g id="POLYLINE_236_">
			<path class="st1" d="M189.91,208.95c2.06-0.26,3.44-2.27,4.42-3.9c2.35-3.93,3.9-8.42,5.65-12.63c4.12-9.91,8.42-19.76,12-29.88
				c1.66-4.69,3.1-9.5,3.96-14.4c0.68-3.9,0.98-8.13-0.36-11.93c-1.33-3.75-4.37-6.23-8.37-6.43c-4.63-0.24-9.23,1.53-13.57,2.89
				c-3.57,1.12-6.77,1.53-10.44,0.75c-4.95-1.04-9.88-2.09-14.93-2.5c-2.24-0.18-5.72-0.68-7.73,0.75
				c-1.11,0.78-1.17,2.18-1.06,3.43c0.4,4.45,2.35,8.84,3.81,13.02c3.4,9.77,6.34,19.63,9.05,29.61c1.39,5.14,2.65,10.34,4.28,15.41
				c1.35,4.19,3.15,8.23,6.07,11.57C184.35,206.63,187.06,209.29,189.91,208.95z"/>
		</g>
		<g id="POLYLINE_235_">
			<path class="st1" d="M233.29,174.9c1.81-4.48,3.5-8.99,4.63-13.69c1.14-4.76,1.77-9.63,2.13-14.51
				c0.73-9.82,0.57-20.35-2.31-29.85c-1.16-3.82-2.88-7.42-5.18-10.69c-2.58-3.65-5.77-6.76-8.99-9.83"/>
		</g>
		<g id="POLYLINE_234_">
			<path class="st1" d="M155.82,63.11c-2.95-9.25-6.86-17.97-12.68-25.78c-5.85-7.85-13.49-14.62-21.55-20.13
				c-7.68-5.25-16.75-10.63-26.43-9.19c-4.84,0.72-9.4,2.8-13.92,4.57c-1.29,0.51-2.76,1.11-4.18,1.19
				c-0.21,0.01-0.69,0.07-0.87-0.12c-0.59-0.44,0.86-1.65,1.08-1.85c3.24-2.95,7.52-4.91,11.56-6.48
				c9.13-3.56,19.05-5.21,28.84-4.73c9.78,0.48,19.79,3.11,27.98,8.58c8.46,5.65,13.42,14.71,16.53,24.15
				c0.19,0.58,0.37,1.17,0.55,1.76"/>
		</g>
		<g id="POLYLINE_233_">
			<path class="st1" d="M158.17,89.02c-1.52-4.58-3-9.22-3.32-14.07c-0.31-4.85,0.52-9.77,1.46-14.51
				c1.03-5.19,2.28-10.34,3.55-15.47c1.17-4.7,2.47-9.41,4.38-13.87c1.52-3.55,3.47-7.18,6.52-9.66c2.23-1.82,5-2.63,7.84-2.79
				c4.71-0.27,9.38,0.96,13.95,1.92c4.51,0.94,9.18,1.38,13.43,3.26c5.83,2.58,11.23,6.94,15.23,11.89"/>
		</g>
		<g id="POLYLINE_232_">
			<path class="st1" d="M221.22,35.71c-2.22-3.06-5.32-5.39-8.64-7.16c-2.47-1.31-5.26-2.35-8.09-1.85
				c-2.56,0.45-4.76,2.05-6.63,3.77c-3.2,2.95-5.73,6.66-7.79,10.47c-4.66,8.61-6.63,18.43-8.18,28.01
				c-1.73,10.65-3.48,21.29-4.93,31.99c-0.83,6.13-1.59,12.29-1.93,18.48"/>
		</g>
		<g id="POLYLINE_231_">
			<path class="st1" d="M147.56,43.93c-7.83-6.02-16.5-10.79-26.29-12.65c-9.42-1.79-19.45-1.24-28.74,1.04
				c-2.59,0.64-5.14,1.39-7.65,2.29"/>
		</g>
		<g id="POLYLINE_230_">
			<path class="st1" d="M192.32,101.67c4.57-9.01,9.97-17.27,16.47-25.01c6.37-7.59,13.57-14.65,21.77-20.26
				c7.57-5.18,16.37-8.6,25.61-8.74c8.43-0.12,16.88,2.47,24.27,6.4c3.78,2.01,7.29,4.48,10.43,7.4c1.7,1.58,3.26,3.38,5.07,4.83
				c0.18,0.15,0.72,0.65,1.02,0.51c0.89-0.42-0.58-3.43-0.78-3.9c-1.73-3.97-4.53-7.28-7.78-10.1c-3.47-3.02-7.41-5.5-11.4-7.77
				c-4.28-2.44-8.65-4.76-13.19-6.67c-8.56-3.6-18.08-5.38-27.35-4.22c-8.95,1.12-16.96,5.02-23.66,11.03
				c-7.42,6.65-13.37,15.13-17.34,24.25c-0.85,1.94-1.6,3.91-2.27,5.91"/>
		</g>
		<g id="POLYLINE_229_">
			<path class="st1" d="M149.66,83.66c-4.01-8.63-9.59-16.37-16.04-23.33c-6.32-6.81-13.42-13.85-21.96-17.79
				c-3.61-1.67-7.59-2.58-11.58-2.25c-4.58,0.39-8.99,2.19-12.9,4.54c-3.85,2.31-7.46,5.23-10.27,8.75
				c-1.57,1.96-2.87,4.09-4.2,6.21c-0.76,1.21-1.57,2.44-2.66,3.39c-0.33,0.29-1.24,1.14-1.78,0.75c-0.15-0.11-0.18-0.32-0.22-0.49
				c-0.35-1.41,0.33-3.53,0.52-4.9c0.98-7.09,1.61-15.63,7.85-20.28c6.52-4.85,16.06-5.23,23.82-4.3
				c9.38,1.12,17.76,5.56,24.96,11.54c7.71,6.41,14.14,14.15,19.53,22.58c3.64,5.69,6.67,11.74,9.33,17.94"/>
		</g>
		<g id="POLYLINE_228_">
			<path class="st1" d="M127.49,82.05c-10.34,1.03-20.66,2.05-31.02,2.82c-2,0.15-4.01,0.3-6.01,0.45"/>
		</g>
		<g id="POLYLINE_227_">
			<path class="st1" d="M159.94,132.24c-7.15-7.58-14.41-15.08-21.8-22.42c-7.01-6.96-14.36-13.79-23.22-18.31
				c-1.52-0.77-3.08-1.46-4.65-2.11"/>
		</g>
		<g id="POLYLINE_226_">
			<path class="st1" d="M236.57,304.3c2.27-9.84,3.71-19.86,3.24-29.99c-0.46-10.05-2.41-19.95-5.32-29.56
				c-2.87-9.47-6.87-18.65-12.14-27.04c-5.36-8.53-11.82-16.37-19-23.44c-0.98-0.97-1.99-1.91-3-2.85"/>
		</g>
		<g id="POLYLINE_225_">
			<path class="st1" d="M202.71,185.78c4.2,2.17,8.15,4.71,11.68,7.87c3.69,3.3,6.8,7.14,9.7,11.13
				c5.85,8.07,10.43,17.1,14.28,26.27c3.84,9.14,6.65,18.76,7.74,28.63c1.1,9.96-0.21,20.05-3.02,29.63
				c-1.29,4.39-2.79,8.88-5.08,12.86c-0.59,1.02-1.82,3.42-3.33,3.35c-0.84-0.04-1.34-0.93-1.66-1.6
				c-1.41-3.02-1.27-6.83-1.42-10.07c-0.48-10.12-1.45-19.95-4.72-29.61c-3.33-9.84-7.94-19.2-12.78-28.37
				c-4.73-8.97-9.89-17.72-14.67-26.67c-1.23-2.3-2.45-4.59-3.68-6.89"/>
		</g>
		<g id="POLYLINE_224_">
			<path class="st1" d="M181.98,203.89c0.38,10.15-0.06,20.32-1.32,30.4c-1.28,10.29-3.18,20.49-5.96,30.49
				c-1.33,4.8-2.88,9.55-4.67,14.2c-0.88,2.29-1.82,4.55-2.88,6.76c-0.76,1.59-1.53,3.28-2.63,4.67c-2.77,3.44-5.89-2.01-7.21-4.16
				c-5.18-8.45-8.76-18.07-11.78-27.46c-3.15-9.76-5.84-19.68-7.81-29.74c-1.98-10.08-3.57-20.28-4.04-30.55
				c-0.43-9.35-0.68-19.97,3.67-28.55c3.25-6.4,9.47-9.81,16.4-10.91c2.76-0.44,5.73-0.57,8.46,0.15c2.14,0.57,3.93,1.78,5.73,3.03"
				/>
		</g>
		<g id="POLYLINE_223_">
			<path class="st1" d="M167.95,162.22c-2.17,4.49-4.63,8.85-6.25,13.58c-1.54,4.51-2.33,9.25-2.72,13.99
				c-0.85,10.37-0.55,20.8-0.11,31.19c0.39,9.24,1.05,18.48,1.83,27.7c0.97,11.6,1.89,23.21,3,34.81c0.23,2.35,0.5,4.69,0.75,7.03"
				/>
		</g>
		<g id="POLYLINE_222_">
			<path class="st1" d="M175.17,131.81c0.5-8.66,3.59-17.86,9.64-24.24c3.31-3.49,7.47-5.99,11.67-8.26
				c4.17-2.25,8.57-4.52,13.24-5.47c3.29-0.67,6.05-0.07,9.14,1.14c1.56,0.61,3.1,1.21,4.78,1.36c1.97,0.18,3.96-0.09,5.92-0.23
				c9.15-0.61,18.49,3.6,22.49,12.18c3.72,7.97,3.26,17.5,1.38,25.87c-2.17,9.66-5.94,19.16-10.28,28.04
				c-1.1,2.25-2.26,4.47-3.5,6.64c-0.97,1.7-1.97,3.49-3.27,4.96c-0.74,0.84-1.67,1.58-2.84,1.2c-0.93-0.31-1.67-1.11-2.32-1.81
				c-1.28-1.39-2.35-2.99-3.15-4.7c-1.57-3.32-1.76-6.77-1.33-10.39c0.56-4.69,1.33-9.38,0.94-14.12c-0.4-4.8-1.7-9.54-3.34-14.06
				c-1.65-4.54-3.55-8.98-5.7-13.3c-2.15-4.3-4.32-8.79-7.21-12.65c-3.47-4.64-9.75-5.55-15.15-4.32c-0.26,0.06-0.53,0.12-0.78,0.2"
				/>
		</g>
		<g id="POLYLINE_221_">
			<path class="st1" d="M281.77,240c0.65-10.08,0.15-20.08-2.41-29.88c-2.48-9.5-6.5-18.73-11.86-26.97
				c-5.33-8.18-12-15.47-20.27-20.74c-1.07-0.68-2.15-1.33-3.25-1.96"/>
		</g>
		<g id="POLYLINE_220_">
			<path class="st1" d="M249.06,148.32c8.37,3.9,15.41,10.14,21.3,17.18c6.22,7.44,11.17,16.03,14.03,25.32
				c2.87,9.31,3.34,19.27,2.42,28.93c-0.45,4.77-1.21,9.57-2.5,14.19c-0.49,1.74-0.98,3.54-1.87,5.13c-0.22,0.4-0.57,1.05-1.06,1.22
				c-0.89,0.3-1.42-0.91-1.72-1.53c-0.96-2-1.53-4.22-2.2-6.33c-0.78-2.46-1.55-4.92-2.38-7.37c-3.24-9.49-7.17-18.71-12.47-27.25
				c-5.22-8.4-11.71-16.03-18.82-22.9c-1.63-1.58-3.33-3.08-5.05-4.56"/>
		</g>
		<g id="POLYLINE_219_">
			<path class="st1" d="M226.51,161.64c-3.99-2.21-8.15-4.02-12.56-5.2"/>
		</g>
		<g id="POLYLINE_218_">
			<path class="st1" d="M227.31,153.52c-3.93-1.09-7.94-1.94-12.03-2.11"/>
		</g>
		<g id="POLYLINE_217_">
			<path class="st1" d="M287.23,211.24c4.57,8.62,7.54,18.07,9.29,27.65c0.9,4.92,1.57,9.92,1.42,14.93
				c-0.14,4.82-0.94,9.57-2.23,14.22c-1.31,4.71-2.95,9.33-4.92,13.8c-0.94,2.14-1.96,4.26-3.18,6.26c-0.71,1.17-1.5,2.43-2.55,3.33
				c-0.58,0.49-1.27,0.88-2.02,0.56c-0.62-0.27-1.06-0.92-1.4-1.47c-1.08-1.72-1.77-3.72-2.43-5.63c-3.36-9.74-5.66-19.82-8.92-29.6
				c-3.13-9.37-7.06-18.52-12.16-26.99c-5.03-8.37-10.96-16.19-17.54-23.4c-6.6-7.23-13.98-13.82-22.32-18.97
				c-4.11-2.54-8.38-4.78-12.73-6.9"/>
		</g>
		<g id="POLYLINE_216_">
			<path class="st1" d="M284.07,292.05c-0.03-9.96-0.9-19.77-2.65-29.58c-1.76-9.84-4.24-19.67-8.01-28.95
				c-3.78-9.32-8.65-18.02-14.95-25.89c-6.25-7.8-13.53-14.81-21.41-20.95c-7.84-6.11-16.33-11.58-25.66-15.14
				c-0.8-0.31-1.62-0.6-2.43-0.88"/>
		</g>
		<g id="POLYLINE_215_">
			<path class="st1" d="M134.07,181.87c-7.23,6.83-13.6,14.42-19.37,22.52c-5.75,8.07-10.91,16.7-15.1,25.69
				c-4.16,8.94-7.13,18.26-8.63,28.02c-1.53,9.91-2.07,20.05-1.94,30.08c0.07,5.09,0.17,10.22,0.91,15.26
				c0.23,1.61,0.48,3.33,1.16,4.82c0.21,0.44,0.49,1.03,1,1.2c0.44,0.15,0.85-0.07,1.17-0.37c0.62-0.58,0.85-1.5,0.99-2.3
				c0.41-2.15,0.4-4.38,0.64-6.56c1.04-9.78,5.01-19.04,8.99-27.94c4.14-9.24,8.89-18.29,14.16-26.93c2.56-4.2,5.24-8.32,8.29-12.19
				c3.09-3.91,6.62-7.43,10.09-10.99"/>
		</g>
		<g id="POLYLINE_214_">
			<path class="st1" d="M92.73,309.44c-0.5-10.13-0.72-20.1,1.04-30.13c1.77-10.08,5.1-19.88,8.61-29.46
				c3.46-9.47,7.35-18.85,11.79-27.91c4.41-9.01,9.24-17.75,15.15-25.87c1.4-1.93,2.81-3.85,4.21-5.78"/>
		</g>
		<g id="POLYLINE_213_">
			<path class="st1" d="M150.53,272.37c-2.44,4.33-5.24,8.41-8.15,12.44c-2.89,3.99-5.78,8.03-9.06,11.72c-1.7,1.9-6.43,7.81-9,3.87
				c-0.84-1.29-1.26-2.88-1.65-4.35c-0.67-2.5-1.18-5.03-1.65-7.57c-0.93-5.02-1.59-10.09-2.23-15.15
				c-1.05-8.37-1.88-16.76-2.41-25.18"/>
		</g>
		<g id="POLYLINE_212_">
			<path class="st1" d="M126.02,301.75c1.74-10.63,3.58-21.23,5.56-31.81c1.86-9.93,3.91-19.83,6.15-29.69
				c0.41-1.8,0.82-3.61,1.23-5.41"/>
		</g>
		<g id="POLYLINE_211_">
			<path class="st1" d="M89.45,144.66c-2.57-3.62-5.14-7.19-6.28-11.55c-1.16-4.43-0.95-9.18-0.37-13.69
				c0.65-5,1.86-9.95,3.63-14.68c1.57-4.19,3.6-8.37,6.62-11.72c4.28-4.76,10.06-7.03,15.94-9.15"/>
		</g>
		<g id="POLYLINE_210_">
			<path class="st1" d="M163.17,130.88c-3.77-8.79-9.06-16.91-15.56-23.92c-6.42-6.93-14.34-12.74-23.14-16.26
				c-3.56-1.43-7.23-2.44-10.99-3.21"/>
		</g>
		<g id="POLYLINE_209_">
			<path class="st1" d="M166.29,156.93c-4.94-7.26-13.47-13.24-22.39-14.1c-2.3-0.22-4.7,0.01-6.77,1.09
				c-2.89,1.51-4.87,4.31-6.48,7.05c-2.51,4.28-4.31,8.97-6.25,13.52c-2,4.68-4.02,9.33-6.34,13.86c-2.26,4.4-4.73,8.7-7.44,12.84
				c-2.59,3.94-5.44,7.87-8.93,11.07c-1.96,1.8-4.47,3.7-7.28,3.56c-1.96-0.1-3.6-1.28-4.77-2.8c-2.24-2.93-3.13-6.85-3.76-10.4
				c-0.81-4.59-1.18-9.28-1.23-13.94c-0.11-9.43,0.81-19.22,3.71-28.23c1.37-4.27,3.38-8.44,6.41-11.78c2.67-2.94,6.1-4.98,9.86-6.2
				c8.11-2.65,17.78-2.78,25.79,0.26c2.79,1.06,5.42,2.66,8.5,2.42c1.85-0.15,3.64-0.68,5.51-0.69c1.82-0.01,3.6,0.44,5.29,1.09
				c4.5,1.73,9.07,4.65,12.14,8.43"/>
		</g>
		<g id="POLYLINE_208_">
			<path class="st1" d="M140.11,135.01c-4.21,2.08-8.31,4.34-12.05,7.19c-3.73,2.84-6.91,6.32-9.66,10.1
				c-5.99,8.25-10.41,17.6-14.38,26.95c-3.65,8.61-6.59,17.46-8.79,26.54"/>
		</g>
		<g id="POLYLINE_207_">
			<path class="st1" d="M153.99,137.63c-3.58-2.03-7.97-2.37-11.43-0.01c-4.56,3.1-9.02,7.7-11.49,12.66"/>
		</g>
		<g id="POLYLINE_206_">
			<path class="st1" d="M121.4,171.45c3.98-1.97,7.97-3.92,12.06-5.67c3.91-1.68,7.94-2.9,12.02-4.1"/>
		</g>
		<g id="POLYLINE_205_">
			<path class="st1" d="M153.44,159.09c-4.77-0.11-9.48-0.16-14.22,0.47c-4.71,0.63-9.35,1.71-13.94,2.89"/>
		</g>
		<g id="POLYLINE_204_">
			<path class="st1" d="M84.66,179.89c-8.26,5.96-15.18,13.36-22.09,20.79c-6.68,7.18-13.1,14.65-17.57,23.45
				c-3.99,7.85-6.74,16.23-8.51,24.84"/>
		</g>
		<g id="POLYLINE_203_">
			<path class="st1" d="M157.88,158.7c-2.12-1.06-4.13-2.35-6.29-3.32c-2.08-0.94-4.26-1.55-6.49-2c-4.85-0.98-9.86-1.22-14.79-1.39
				c-0.08,0-0.16-0.01-0.23-0.01"/>
		</g>
		<g id="POLYLINE_202_">
			<path class="st1" d="M86.86,155.94c-9.42,2.16-18.73,5.23-26.68,10.89c-7.76,5.53-13.44,13.24-17.37,21.85
				c-4.07,8.9-6.63,18.6-8.01,28.27c-0.69,4.79-1.15,9.63-1.26,14.47c-0.11,4.63-0.23,9.5,0.89,14.03c0.29,1.19,0.78,3.1,2.13,3.54
				c1.31,0.43,2.64-0.77,3.47-1.61c3.18-3.18,5.42-7.4,7.69-11.25c2.64-4.47,5.17-9.01,7.88-13.44c5.19-8.5,11.42-16.11,19.08-22.5
				c3.54-2.95,7.27-5.63,11.08-8.22"/>
		</g>
		<g id="POLYLINE_201_">
			<path class="st1" d="M153.99,137.63c-7.17-7.13-14.35-14.13-22.59-20.04c-8.27-5.95-17.44-10.55-26.72-14.69
				c-2.23-0.99-4.48-1.93-6.73-2.87"/>
		</g>
		<g id="POLYLINE_200_">
			<path class="st1" d="M76.93,92.24c-9.69-3.15-19.49-6.09-29.51-8.04c-9.69-1.88-19.59-2.74-29.26-0.2
				c-4.81,1.26-9.35,3.25-14.06,4.79c-0.52,0.17-3.26,1.37-3.58,0.25c-0.3-1.03,1.71-2.69,2.28-3.21c3.21-2.87,7.42-4.58,11.44-5.98
				c9.25-3.21,19.16-4.96,28.88-5.93c10.11-1.01,20.29-1.16,30.42-0.49c10.3,0.68,20.49,2.06,30.58,4.21
				c6.46,1.37,12.82,3.27,18.99,5.6"/>
		</g>
		<g id="POLYLINE_199_">
			<path class="st1" d="M90.96,85.29c-8.95,0.54-15.65,7.06-19.28,14.9c-1.82,3.94-2.85,8.31-2.51,12.66
				c0.34,4.35,1.86,8.46,3.83,12.33c2.19,4.31,4.9,8.46,7.82,12.31c1.93,2.54,4.39,5.99,7.59,7.06c0.46,0.15,1.06,0.33,1.32-0.2
				c0.2-0.4-0.08-1.09-0.18-1.45c-0.66-2.22-1.3-4.42-1.77-6.68c-1.81-8.64-0.86-17.28,2.93-25.26
				c3.89-8.18,10.28-15.17,17.69-20.33c7.15-4.97,15.58-8.54,24.28-9.46c4.97-0.52,10.04-0.12,14.75,1.58
				c4.46,1.6,8.51,4.23,12.03,7.37c7.02,6.27,12.31,14.74,14.56,23.89c1.43,5.83,1.6,11.82,1.13,17.78"/>
		</g>
		<g id="POLYLINE_198_">
			<path class="st1" d="M132.2,133.46c-9.36-3.96-19.01-6.7-29-8.54c-5.33-0.98-10.69-1.68-16.09-2.06"/>
		</g>
		<g id="POLYLINE_197_">
			<path class="st1" d="M72.01,123.13c-9.03,1.11-17.24,4.31-24.34,10.05c-7.59,6.13-13.45,14.23-18.16,22.71
				c-4.01,7.23-6.77,15.01-8.45,23.09"/>
		</g>
		<g id="POLYLINE_196_">
			<path class="st1" d="M146.3,130.04c-8.86-4.8-17.94-8.95-27.81-11.22c-9.7-2.23-19.6-3.36-29.54-3.65"/>
		</g>
		<g id="POLYLINE_195_">
			<path class="st1" d="M69.65,116.14c-9.51,1.34-19.25,3.91-27.12,9.63c-8.16,5.93-13.36,15.04-16.47,24.47
				c-3.16,9.57-4.53,19.62-5.04,29.66c-0.12,2.36-0.17,4.74-0.02,7.1c0.06,1.06,0.04,2.59,0.62,3.55c0.93,1.53,2.26-1.6,2.56-2.22
				c2.29-4.62,4.09-9.49,6.17-14.21c2-4.55,4.18-9.06,6.77-13.31c4.85-7.93,11.38-14.68,19.49-19.29
				c6.71-3.82,14.08-6.25,21.65-7.63"/>
		</g>
		<g id="POLYLINE_194_">
			<path class="st1" d="M87.22,132.9c4.81-0.19,9.58,0.09,14.34,0.79"/>
		</g>
		<g id="POLYLINE_193_">
			<path class="st1" d="M87.75,136.1c4.58-0.99,9.17-1.74,13.8-2.41"/>
		</g>
		<g id="POLYLINE_192_">
			<path class="st1" d="M87.84,152.1c-9.87,2.26-19.21,5.89-28.23,10.47c-8.6,4.36-16.78,10.01-23.14,17.32
				c-6.07,6.97-11.06,15.32-13.62,24.24c-1.22,4.28-1.61,8.52-1.49,12.96c0.04,1.45,0.35,3.32-0.13,4.75
				c-0.09,0.28-0.22,0.57-0.48,0.74c-0.48,0.3-1.05,0.07-1.46-0.23c-0.61-0.44-1.01-1.15-1.33-1.82c-0.89-1.81-1.38-3.83-1.86-5.78
				c-1.2-4.87-2.36-9.87-3.12-14.83c-0.68-4.51-0.16-8.89,1.87-13c1.65-3.34,3.91-6.34,6.28-9.18"/>
		</g>
		<g id="POLYLINE_191_">
			<path class="st1" d="M35.49,163.66c7.64-6.35,15.77-12.29,24.51-17.05c6.73-3.66,13.71-6.62,21.06-8.8"/>
		</g>
		<g id="POLYLINE_190_">
			<path class="st1" d="M304,126.13c1.23-9.29,0.26-18.63-3.51-27.25c-3.47-7.94-9.17-15.18-17.13-18.97
				c-8.3-3.96-17.97-3.44-26.8-1.91c-9.78,1.69-19.64,4.71-28.56,9.09c-3.98,1.95-7.42,4.51-10.91,7.22"/>
		</g>
		<g id="POLYLINE_189_">
			<path class="st1" d="M304,126.13c-0.19,0.96-0.37,1.94-0.68,2.87c-0.04,0.12-0.13,0.55-0.26,0.62c-0.27,0.15-0.21,0.05-0.37-0.18
				c-0.28-0.39-0.28-1.24-0.34-1.67c-0.19-1.24-0.33-2.5-0.51-3.74c-0.31-2.26-0.7-4.5-1.21-6.72c-2.04-8.93-5.88-17.76-11.79-24.83
				c-5.44-6.51-12.75-10.76-21.33-11.1c-9.78-0.39-19.84,2.68-28.69,6.6c-2.66,1.18-5.36,2.46-7.74,4.15
				c-1.55,1.1-2.48,2.56-3.51,4.15"/>
		</g>
		<g id="POLYLINE_188_">
			<path class="st1" d="M334.96,212.5c-0.15,0.52-0.58,2.17-1.32,2.23c-1.07,0.11-1.43-3.1-1.52-3.58
				c-0.86-4.71-1.68-9.17-3.48-13.63c-1.8-4.46-4.03-8.77-6.59-12.85c-5.16-8.18-11.7-15.32-19.84-20.61
				c-8.4-5.46-17.86-8.87-27.51-11.39c-8.4-2.19-16.99-3.57-25.61-4.47"/>
		</g>
		<g id="POLYLINE_187_">
			<path class="st1" d="M227.76,147.95c-4.15,0.46-8.21,1.29-12.24,2.35"/>
		</g>
		<g id="POLYLINE_186_">
			<path class="st1" d="M223.57,127.87c-3.5,1.35-6.92,2.86-10.28,4.53"/>
		</g>
		<g id="POLYLINE_185_">
			<path class="st1" d="M333.87,214.62c0.26-4.59,0.44-9.15-0.54-13.68c-0.99-4.52-2.72-8.89-4.82-13.02
				c-4.47-8.84-10.35-17-17.41-23.95c-6.41-6.31-13.82-11.66-21.83-15.74c-8.24-4.21-17.04-7.07-26.18-8.51
				c-3.58-0.57-7.2-0.86-10.81-1.03"/>
		</g>
		<g id="POLYLINE_184_">
			<path class="st1" d="M227.17,140.17c-3.58,0.57-7.14,1.24-10.67,2.06"/>
		</g>
		<g id="POLYLINE_183_">
			<path class="st1" d="M278.32,176.92c8.41,5.18,15.91,11.29,22.28,18.88c3.2,3.82,6.07,7.92,8.73,12.14
				c2.05,3.24,4.54,6.89,5.42,10.68c0.96,4.13-6.38-1.89-6.9-2.3c-7.55-5.92-14.69-12.44-21.83-18.86"/>
		</g>
		<g id="POLYLINE_182_">
			<path class="st1" d="M334.96,212.5c0.68-2.25,1.5-4.42,1.77-6.77c0.25-2.14,0.19-4.3,0.04-6.44c-0.34-4.89-1.19-9.76-2.32-14.53
				c-2.18-9.25-5.35-18.44-10.29-26.6c-5.16-8.52-12.3-15.57-20.53-21.13c-8-5.4-17.13-9.5-26.42-12.09
				c-7.32-2.04-14.79-3.12-22.39-3.15"/>
		</g>
		<g id="POLYLINE_181_">
			<path class="st1" d="M289.39,164.34c-0.28,0.39-2.24,3.34-3.04,2.9c-0.18-0.11-0.14-0.41-0.15-0.58
				c-0.04-0.6,0.17-1.27,0.29-1.85c0.29-1.38,0.59-2.76,0.87-4.15c0.25-1.26,0.47-2.52,0.68-3.78"/>
		</g>
		<g id="POLYLINE_180_">
			<path class="st1" d="M289.39,164.34c1.13-1.81,2.15-3.67,3.1-5.58"/>
		</g>
		<g id="POLYLINE_179_">
			<path class="st1" d="M286.06,127.94c-2.83-7.28-7.78-14.58-15.17-17.79c-5.82-2.52-12.34-2.08-18.42-0.9"/>
		</g>
		<g id="POLYLINE_178_">
			<path class="st1" d="M298.66,133.95c0.25-9.91-2.72-19.49-9.59-26.79c-6.13-6.52-14.61-10.74-23.43-12.03
				c-8.2-1.2-16.26,0.27-23.98,3.07"/>
		</g>
		<g id="POLYLINE_177_">
			<path class="st1" d="M216.37,112.23c-7.25,5.41-13.63,11.4-18.47,19.1"/>
		</g>
		<g id="POLYLINE_176_">
			<path class="st1" d="M220.65,120.89c-4.86,2.59-9.51,5.51-13.88,8.87"/>
		</g>
		<g id="POLYLINE_175_">
			<path class="st1" d="M162,291.49c-0.36,1.99-1.06,3.91-1.38,5.91c-0.34,2.13-0.29,4.29-0.59,6.42c-0.31,2.21-0.49,4.49-1.04,6.66
				c-0.29,1.14-0.87,2.21-0.91,3.4c-0.07,2.05,1.1,4.11-0.2,5.95c-0.51,0.72-1.17,1.31-1.42,2.18c-0.39,1.35-0.05,2.83-0.1,4.21
				c-0.12,2.93-1.74,5.53-1.87,8.47c-0.1,2.4,1.18,4.75,0.73,7.11c-0.56,2.91-2.41,5.45-2.63,8.45c-0.13,1.88-0.05,3.7-0.27,5.58
				c-0.19,1.62-0.03,3.1,0.24,4.71c0.23,1.35,0.32,2.63,0.04,3.98c-0.32,1.53-0.91,3-1.01,4.57c-0.15,2.27,1.12,4.73,0.23,6.92
				c-0.53,1.31-1.56,2.35-1.95,3.73c-0.3,1.04-0.26,2.15-0.18,3.22c0.15,2.22,0.25,4.3-0.15,6.5c-0.37,2.09-0.88,4.11-0.89,6.24
				c0,1.54,0.13,3.12-0.21,4.64c-0.31,1.39-0.95,2.71-1.08,4.15c-0.13,1.53,0.08,3.08-0.12,4.61c-0.13,1.06-0.51,2.05-0.93,3.03
				c-0.49,1.13-1.15,2.29-1.31,3.53c-0.15,1.19,0.27,2.34,0.3,3.53c0.05,1.63-0.45,3.22-0.55,4.83c-0.08,1.32,0.28,2.58,0.36,3.88
				c0.16,2.6-1.57,4.87-1.44,7.46c0.13,2.39,1.84,4.53,1.2,6.98c-0.34,1.3-1.11,2.45-1.48,3.75c-0.27,0.93-0.29,1.89-0.28,2.85
				c0.03,1.9-0.05,3.65-0.51,5.5c-0.43,1.72-1.08,3.47-1.18,5.26c-0.07,1.13,0.41,2.02,0.78,3.06c0.43,1.21,0.5,2.49,0.49,3.76
				c-0.02,1.98-0.24,4.01-0.83,5.9c-0.31,0.99-0.74,1.91-0.61,2.97c0.13,1.09,0.36,2.05,0.15,3.14c-0.25,1.29-0.84,2.52-0.74,3.86
				c0.07,1.05,0.45,2.04,0.34,3.11c-0.16,1.59-0.82,3.09-1.05,4.68c-0.32,2.17-0.75,4.41-0.93,6.6c-0.09,1.02,0.18,1.57,0.5,2.5
				c0.51,1.52-0.7,3.06-0.7,4.62c0,1.39,0.38,2.76,0.35,4.15c-0.02,1.03-0.28,2.01-0.59,2.99c-0.35,1.12-0.7,2.18-0.63,3.35
				c0.09,1.72-0.11,3.38-0.09,5.1c0.01,0.97,0.43,1.85,0.54,2.81c0.16,1.37,0.1,2.84-0.15,4.2c-0.18,0.99-0.66,1.85-0.93,2.81
				c-0.38,1.33-0.28,2.78-0.22,4.14c0.09,2.24,0.29,4.47,0.12,6.71c-0.17,2.21-0.76,4.33-1.37,6.45c-0.78,2.72-1.83,5.58-1.24,8.44
				c0.3,1.43,0.77,2.73,0.66,4.21c-0.1,1.34-0.46,2.66-0.42,4.01c0.05,1.37,0.4,2.71,0.34,4.09c-0.09,2.11-0.76,4.1-1.26,6.14
				c-0.36,1.46-0.59,2.33,0.36,3.41c0.97,1.09,0.19,2.73-0.03,3.99c-0.3,1.69-0.07,3.38-0.04,5.07c0.04,2.11-0.41,4.18-0.44,6.28
				c-0.02,1.93,0,4.03,0.44,5.92c0.22,0.93,0.63,1.35,1.15,2.11c1.55,2.28,0.92,5.35,1.83,7.85c0.33,0.89,1,1.59,1.25,2.52
				c0.48,1.81,0.46,3.8,0.77,5.65c0.44,2.7,0.93,5.4,1.4,8.09c0.33,1.87,0.27,3.77,0.58,5.63c0.29,1.76,0.9,3.44,1.02,5.23
				c0.11,1.58,0.01,3.19-0.28,4.75c-0.23,1.28-0.86,2.57-0.82,3.88c0.03,0.83,0.28,1.53,0.11,2.36c-0.16,0.78-0.4,1.48-0.23,2.27
				c0.15,0.71,0.64,1.41,0.54,2.16c-0.11,0.87-1,1.38-1.72,1.73c-2.67,1.32-5.77,1.61-8.69,1.16c-2.3-0.36-4.53-0.86-6.86-0.96
				c-1.77-0.07-3.75,0.27-5.47-0.21c-1.51-0.41-1.95-1.85-2.26-3.24c-0.41-1.81-0.5-1.83,0.8-3.22c1.32-1.42,2.75-2.84,3.75-4.52
				c0.57-0.95,0.74-2.01,1.21-2.99c0.96-1.99,3.15-2.99,3.47-5.34c0.19-1.46-0.1-2.99-0.31-4.43c-0.3-2.07-0.35-4.08-0.53-6.15
				c-0.22-2.53-0.64-5.04-0.9-7.57c-0.2-1.9,0.07-3.92-0.24-5.78c-0.2-1.23-1.28-1.89-1.36-3.21c-0.07-1.19,0.13-2.35-0.24-3.5
				c-0.27-0.81-0.4-1.27-0.23-2.11c0.16-0.78,0.37-1.49,0.18-2.28c-0.18-0.78-0.76-1.38-0.94-2.16c-0.28-1.25,0.23-2.77,0.47-3.97
				c0.3-1.54,0.24-2.93,0.15-4.48c-0.13-2.18,1.52-3.8,1.27-5.99c-0.16-1.33-0.74-2.63-0.71-3.98c0.02-1.23,0.72-2.38,1.09-3.52
				c0.36-1.09,0.63-2.22,0.59-3.39c-0.04-1.21-0.2-2.29,0.06-3.49c0.18-0.83,0.64-1.94,0.41-2.82c-0.13-0.5-0.55-0.85-0.73-1.33
				c-0.29-0.75-0.16-1.65-0.06-2.41c0.2-1.58,0.15-2.92,0.17-4.48c0.02-1.12,0.61-2.1,1-3.13c0.38-1,0.65-2.05,0.61-3.12
				c-0.06-2.14-1.16-4.11-0.82-6.28c0.22-1.41,0.8-2.73,1.05-4.14c0.18-1.03,0.1-2.09-0.01-3.13c-0.27-2.41-1.08-6.05,0.35-8.29
				c0.36-0.56,0.76-0.88,0.91-1.54c0.2-0.88,0.14-1.91-0.05-2.79c-0.15-0.65-0.51-1.21-0.48-1.89c0.06-1.43,0.77-2.79,0.9-4.22
				c0.12-1.34-0.12-2.69-0.02-4.03c0.11-1.55,0.67-3.06,0.64-4.61c-0.02-1.66-0.43-3.33-0.27-4.99c0.1-0.97,0.41-1.86,0.36-2.84
				c-0.07-1.45-0.51-2.89-0.31-4.35c0.18-1.29,0.73-2.48,0.89-3.78c0.19-1.53,0.04-3.18,0.52-4.67c0.31-0.96,0.74-1.61,0.71-2.64
				c-0.05-1.47-0.33-2.77-0.19-4.24c0.12-1.28-0.21-2.53-0.16-3.81c0.06-1.53,0.69-2.95,1.01-4.43c0.3-1.41,0.16-2.86,0.22-4.28
				c0.1-2.37,0.53-4.7,0.65-7.06c0.07-1.39-0.19-2.76-0.21-4.15c-0.02-1.05,0.41-2.02,0.56-3.05c0.28-1.91,0.14-3.86,0.41-5.78
				c0.22-1.5,0.04-3.04,0.27-4.52c0.17-1.07,0.88-1.99,1-3.05c0.15-1.25-0.98-2.19-0.98-3.47c-0.01-2.67,1.99-4.83,2.85-7.23
				c0.33-0.93,0.6-1.98,0.4-2.96c-0.19-0.95-0.88-1.69-1.13-2.61c-0.4-1.49,0.74-2.88,0.61-4.39c-0.1-1.25-0.54-2.43-0.58-3.69
				c-0.03-0.96,0.09-1.95,0.32-2.88c0.32-1.29,0.96-2.49,1.2-3.8c0.24-1.32-0.14-2.58-0.3-3.89c-0.33-2.78,1.18-5.27,1.48-7.98
				c0.15-1.29-0.11-2.66,0.24-3.91c0.26-0.92,0.9-1.68,1.21-2.59c0.26-0.77,0.44-1.59,0.38-2.4c-0.07-1.09-0.41-2-0.22-3.1
				c0.25-1.46,0.7-2.85,0.63-4.34c-0.06-1.43-0.22-2.73,0.19-4.13c0.36-1.24,1.03-2.49,0.89-3.81c-0.1-1.01-0.58-1.94-0.54-2.97
				c0.09-2.6,1.75-4.88,1.86-7.52c0.07-1.46-0.24-2.92-0.15-4.38c0.09-1.47,0.69-2.82,1.18-4.18c0.88-2.42,0.43-4.26,0.05-6.76
				c-0.37-2.43,0.93-4.61,0.75-7.06c-0.12-1.64-0.09-3.15,0.26-4.76c0.48-2.17,1.26-4.25,1.67-6.43c0.23-1.23,0.3-2.48,0.2-3.73
				c-0.13-1.42-0.57-3-0.23-4.42c0.22-0.92,0.89-1.56,1.31-2.39c0.68-1.35,0.67-3.16,0.87-4.62c0.27-1.93,0.25-3.88,0.5-5.8
				c0.14-1.03,0.67-1.87,1.04-2.83c1.07-2.8-0.08-5.76,0.17-8.63c0.14-1.64,0.89-3.16,1.52-4.66c0.75-1.79,1.25-3.68,1.56-5.6
				c0.44-2.81,0.37-5.65,0.68-8.47"/>
		</g>
	</g>
</g>
</svg>
