<?xml version="1.0" encoding="utf-8"?>
<!-- Generator: Adobe Illustrator 24.0.2, SVG Export Plug-In . SVG Version: 6.00 Build 0)  -->
<svg version="1.1" id="Layer_1" xmlns="http://www.w3.org/2000/svg" xmlns:xlink="http://www.w3.org/1999/xlink" x="0px" y="0px"
	 viewBox="0 0 399.68 962.99" style="enable-background:new 0 0 399.68 962.99;" xml:space="preserve">
<path d="M347.91,314.7c2.62-3.44,2.36-6.86,2.76-10.02c1.1-8.72,2.32-17.44,1.93-26.28c-0.05-1.11,0.43-2.27,0.81-3.36
	c1.43-4.04,1.76-8.37,0.88-12.32c-0.87-3.93-3.31-7.57-7.27-9.56c-4.52-2.27-9.08-4.47-13.63-6.68c-5.91-2.86-6.6-6.98-1.8-11.41
	c-1.92-4.18-3.69-8.43-3.95-13.17c-0.19-3.47,0.99-5.52,4.11-7.66c4.83-3.3,10.31-4.53,15.49-6.67c3.93-1.63,7.84-0.26,11.52,1.25
	c1.69,0.7,3.29,1.59,5.12,1.9c8.83,1.47,13.34,7.42,15.83,15.38c0.64,2.05,0.85,4.23,1.34,6.33c0.68,2.89,0.92,5.89,2.62,8.52
	c0.99,1.53,1.1,3.44,1.17,5.3c0.15,3.86,0.74,7.63,2.84,11c0.53,0.85,0.97,1.74,0.8,2.81c-1.16,7.24,0.67,14.24,2.46,21.05
	c1.87,7.12,2.42,14.4,3.77,21.56c1.32,7.01,2.02,14.13,3.08,21.18c1.42,9.5,2.13,19,1.82,28.64c-0.25,7.91-2.19,15.06-6.49,21.63
	c-0.44,0.67-0.83,1.29-1.04,2.15c-1.18,4.86-3.74,8.95-7.93,11.73c-1.96,1.3-3.16,3.62-5.77,4.03c-3.5,0.54-6.98,0.21-10.46-0.04
	c-0.82-0.06-1.63-0.5-2.44-0.49c-7.6,0.1-12.99-4.04-18.09-9.03c-7.18-7.03-15.53-12.34-24.8-16.28
	c-6.43-2.73-13.21-4.62-19.49-7.54c-6.99-3.24-14.43-4.91-21.53-7.66c-2.21-0.86-4.46-1.32-6.98-0.19c-1.64,5.08-5.8,9.15-6.52,14.8
	c-0.08,0.66-0.47,1.31-0.42,1.94c0.67,9.07-1.39,18.02-1.16,27.07c0.05,2.16,0.08,4.31-0.46,6.45c-1.95,7.82-1.56,15.91-1.68,23.79
	c-0.09,6.48,0.39,13.21,1.65,19.74c1.69,8.77,3.04,17.61,4.83,26.35c1.12,5.5,1.75,11.18,4.62,16.2
	c2.15,12.48,8.38,23.76,10.65,36.21c3.36,6.41,4.36,13.56,5.78,20.46c1.33,6.48,3.28,12.79,4.57,19.28c1.02,5.16,2.49,10.3,4,15.37
	c2.33,7.81,4.15,15.72,5.84,23.69c2.04,9.6,4.29,19.18,5.07,28.94c0.85,10.61,3.97,20.83,4.49,31.51
	c0.32,6.52,2.23,12.96,3.48,19.42c0.75,3.85,1.94,7.64,2.34,11.52c0.85,8.2-0.06,16.34-4.41,23.44c-2.76,4.5-4.3,9.26-5.64,14.2
	c-1.74,6.41-2.19,13.1-4.22,19.44c-2.23,7-1.44,14.28-2.01,21.42c-0.27,3.48-1.42,6.77-1.4,10.26c0.01,2.47-0.23,4.84,0.53,7.36
	c0.59,1.93,0.09,4.28-0.27,6.38c-0.77,4.48-0.23,8.87,0.05,13.35c0.59,9.26,2.5,18.21,4.6,27.19c0.74,3.19,2.62,5.41,4.97,7.22
	c4.78,3.68,10.41,5.84,15.93,8.11c9.34,3.84,18.71,7.61,28.11,11.3c2.6,1.02,5.29,1.52,8.24,1.32c7.68-0.51,14.4,1.64,19.17,8.21
	c1.36,1.87,2.99,3.56,4.47,5.35c1.59,1.92,3.19,3.75,3.15,6.55c-0.03,2.16,2.22,3.68,2.2,6.07c-2.58,0.83-4.42-2.28-7.29-1.34
	c0.34,2.52,2.97,4.28,2.69,7.26c-2.21,0.24-3.8-1.15-5.59-1.77c-4.33-1.5-6.06-0.1-5.55,4.7c-1.6,0.85-2.81-0.45-4.14-0.86
	c-3-0.93-5.5-1.1-8.17,1.43c-2.71,2.55-6.38,3.37-10.27,2.63c-6.85-1.3-13.51-3.65-20.57-3.85c-0.33-0.01-0.7-0.05-0.97-0.21
	c-5.26-3.27-11.25-3.57-17.15-4.32c-3.52-0.45-6.13-3.13-9.52-4.16c-2.63-0.8-5.53-1.14-7.91-2.88c-0.93-0.68-2.25-0.6-3.39-0.2
	c-3.62,1.26-7.18,0.59-10.74-0.26c-2.43-0.58-4.83-1.26-7.26-1.83c-5.49-1.28-9.85-4.74-14.49-7.6c-2.05-1.27-2.88-3.66-3.64-5.85
	c-1.65-4.73-2.96-9.54-2.64-14.64c0.13-1.99,0-3.91-0.93-5.82c-1.28-2.62-0.87-5.62-0.82-8.38c0.14-8.05-1.57-15.81-3.13-23.6
	c-1.03-5.16-1.67-10.42-5.29-14.79c-1.23-1.49-1.15-4.08-1.66-6.16c-0.64-2.61-1.73-4.97-3.34-7.17
	c-6.92-9.46-10.53-20.27-12.46-31.68c-0.75-4.41-1.35-8.88-1.11-13.4c0.43-8.07,1.2-16.12,3.75-23.82c0.58-1.74,0.95-3.48,1.25-5.21
	c0.95-5.46,3.66-10.15,6.06-14.99c1.18-2.38,1.84-4.47,0.54-7.38c-1.04-2.32-0.46-5.46,0.74-8.12c1.95-4.34,1.54-8.46-1.64-12.06
	c-4.03-4.56-5.87-10.37-9-15.45c-2.03-3.29-5.07-5.51-6.79-8.59c-1.85,0.09-1.76,1.27-1.98,2.19c-1.43,6.13-1.78,12.43-3.11,18.6
	c-1.82,8.46-2.11,17.15-3.1,25.73c-0.7,6.07-2.14,12.12-4.25,17.92c-1.43,3.92-2.1,7.97-2.87,12.06
	c-1.29,6.84-1.38,13.86-3.42,20.58c-0.82,2.72-1.77,5.25-3.35,7.68c-2.72,4.18-3.44,8.99-2.58,13.91c0.33,1.89,0.08,3.5-0.52,5.31
	c-2.09,6.3-5.42,12.03-8,18.11c-1.17,2.76-2.37,5.47-3.13,8.39c-1.17,4.51-3.51,8.59-5.03,12.96c-2.41,6.93-3.27,14.23-4.69,21.4
	c-1.12,5.67-1.47,11.53-3.08,17.04c-1.72,5.86-1.86,11.97-3.65,17.79c-0.93,3.02-2.62,5.69-3.45,8.79
	c-1.4,5.21-1.4,10.13,1.21,14.96c1.89,3.5,3.87,6.85,6.75,9.75c4.18,4.21,7.59,9.16,12.24,12.96c0.6,0.49,1.06,1.33,1.29,2.09
	c1.33,4.43,3.81,8.08,7.25,11.12c1.65,1.46,2.68,3.38,3.88,5.18c2.6,3.88,3.36,8.05,1.29,12.29c-1.26,2.58-1.41,5.41-2.37,8.68
	c-2.59-2.37-5.16-1.62-7.83-0.96c-1.6,0.39-3.28-0.26-4.92-0.58c-2.57-0.5-3.76,0.27-4.38,2.73c-0.39,1.56,0.12,3.4-1.51,4.56
	c-1.83-0.26-2.29-2.35-4.19-3c-4.08,0.95-7.84-0.6-11.11-2.99c-3.94,0.99-2.92,5.02-4.98,7.37c-1.89-2.23-4.07-3.05-7.02-2.71
	c-4.67,0.54-8.41-1.38-10.77-5.68c-1.54,1.78-2.44,3.89-3.68,6.25c-1.52-0.28-2.88-1.28-4.82-0.9c-5.61,1.11-8.47-0.8-10.98-6.05
	c-0.71-1.48-1.52-3.07-2.7-4.15c-5.52-4.98-7.52-11.51-8.44-18.51c-0.45-3.45-0.53-6.95-0.82-10.42
	c-0.52-6.36,0.04-12.67,1.32-18.89c0.69-3.33,0.51-6.62,0.39-9.94c-0.02-0.65,0-1.52-0.39-1.92c-4.29-4.52-1.88-9.59-0.41-13.95
	c1.78-5.29,3.93-10.57,5.47-15.89c1.25-4.31,3.18-8.27,4.6-12.46c1.42-4.17,0.87-8.51,1.77-12.7c0.21-0.97-0.01-2.05,0.3-2.97
	c1.15-3.48,0.88-6.99,0.65-10.56c-0.29-4.57-0.47-9.17-0.25-13.73c0.22-4.52-0.79-8.83-1.34-13.23c-0.51-4.09-0.5-8.21-1.2-12.33
	c-2.14-12.57-1.78-24.9,3.07-37.06c2.75-6.88,3.78-14.43,6.12-21.5c1.58-4.78,2.37-9.76,5.36-14.22c3.38-5.02,3.54-10.98,1.5-16.79
	c-1.7,0.12-2.39,1.15-3.08,2.02c-3.68,4.61-8.46,7.63-13.81,9.91c-1.36,0.58-2.88,1.18-3.84,2.22c-4.51,4.92-10.49,6.53-16.65,7.9
	c-1.92,0.42-3.96,0.43-5.68,1.65c-0.51,0.36-1.36,0.74-1.85,0.56c-3.83-1.41-7.09,1.59-11.02,1.09c-5.59-0.72-10.54-2.92-15.69-4.74
	c-2.76-0.98-5.38-2.04-8.36-2.62c-4.35-0.85-7.67-4.28-10.48-7.71c-2.22-2.72-4.71-5.08-7.59-7.01c-2.46-1.64-3.72-4.04-5.17-6.5
	c-1.81-3.07-2.61-6.8-5.58-9.17c-1.21-0.97-1.87-2.27-2.31-3.73c-0.59-1.94-1.42-3.85-3.11-5.01c-1.46-1-1.12-2.66-1.93-3.85
	c-2.59-3.78-4.86-7.83-7.82-11.28c-2.86-3.32-4.58-7.2-6.61-10.92c-1.89-3.47-2.89-7.41-4.67-10.95c-2.39-4.73-3.27-9.91-3.55-14.94
	c-0.43-7.88,1.29-11.77,8.78-14.83c7.1-2.9,14.58-3.43,22.16-2.84c1.67,0.13,3.14,0.71,4.7,1.4c3.31,1.45,6.62,3.23,10.43,2.93
	c1.78-0.14,3.5,0.47,4.73,1.32c3.53,2.43,7.72,3.5,11.18,6.14c2.51,1.92,5.87,2.55,8.36,4.9c4.58,4.34,9.53,8.29,14.22,12.52
	c0.84,0.76,1.58,1.66,2.51,2.38c2.15,1.67,4.12,2.08,6.23,0.63c5.27-3.6,9.59-8.14,12.54-13.86c3.06-5.95,4.67-12.33,6.04-18.86
	c0.77-3.64,2.17-7.09,2.53-10.94c0.51-5.54,0.98-11.13,1.84-16.6c0.93-5.89,1.73-11.81,2.71-17.7c0.95-5.7,1.57-11.43,0.98-17.3
	c-0.5-4.94-0.17-9.97-0.28-14.95c-0.22-9.62-1.31-19.2-1.37-28.83c-0.03-4.29-1.05-8.56-1.16-12.85
	c-0.43-16.86,5.36-31.9,13.88-46.09c4.53-3.76,5.02-10.1,9.08-14.16c0.72-0.72,0.8-1.8,0.81-2.82c0.02-4.14,0.17-8.27,0.76-12.38
	c0.63-4.37-1.38-8.45-1.48-12.76c-0.18-7.72-3.14-14.86-4.76-22.28c-0.99-4.51-1.83-9.06-2.94-13.54
	c-1.33-5.32-2.68-10.65-4.38-15.86c-2.47-7.59-3.43-15.35-3.84-23.28c-0.35-6.77-0.89-13.57-1.97-20.26
	c-0.65-4.04-2.33-7.97-3.87-11.81c-1.85-4.61-4.15-9.05-6.05-13.64c-1.56-3.75-3.01-7.56-4.18-11.45
	c-1.73-5.73-4.97-10.87-6.29-16.76c-1.37-6.13-2.59-12.33-4.51-18.3c-2.38-7.43-4.83-14.82-6.92-22.35
	c-1.28-4.6-3.82-8.82-4.86-13.57c-1.21-5.49-2.67-10.93-3.89-16.42c-1.61-7.27-3.67-14.39-6.55-21.26
	c-2.14-5.1-4.44-10.04-7.48-14.75c-3.14-4.86-6.24-9.83-8.89-14.98c-1.94-3.77-2.72-7.97-2.07-12.43c0.49-3.4,0.12-6.92,0.13-10.38
	c0-1.67-0.14-3.34,0.03-4.99c0.39-3.87,0.54-7.68,4.46-10.31c2.15-1.44,3.44-4.19,5.06-6.39c2.9-3.95,6.59-6.93,11-9.05
	c0.73-0.35,1.36-0.95,1.99-1.5c3.74-3.26,8.45-5.05,12.26-8.18c2.92-2.4,5.55-5.19,9.14-6.6c1.76-0.69,1.87-2.64,3.26-3.64
	c2.83-2.02,5.39-4.39,8.71-5.73c5.99-2.41,11.03-6.32,15.87-10.51c2.55-2.21,5.64-3.7,8.62-4.88c2.06-0.81,3.62-1.89,5.34-3.09
	c4.87-3.39,9.5-7.26,15.4-8.84c3.34-0.9,5.85-3.08,8.44-5.17c1.16-0.94,2.29-1.93,3.4-2.93c4.88-4.37,10.89-5.53,17.12-5.78
	c1.9-0.08,3.6-0.42,5.27-1.19c2.46-1.13,5.07-1.5,7.74-1.82c4.84-0.58,8.93,0.46,11.82,4.69c0.87,1.27,2.23,1.96,3.41,2.88
	c4.73,3.66,6.57,8.49,6.04,14.46c-0.51,5.69-2.72,10.58-6.01,15.1c-0.78,1.07-1.62,2.13-2.23,3.29c-2.73,5.16-6.76,8.58-12.66,9.32
	c-2.55,0.32-4.77,0.92-6.57,2.97c-0.96,1.1-2.43,1.75-3.25,1.61c-2.22-0.59-1.39-2.43-2.97-3.09c-1.71,0.51-3.08,2.64-5.73,2.6
	c-1.47-3.14-4.42-3.5-7.67-3.73c-2.9-0.2-4.86,0.87-6.33,3.06c-3.48,5.18-7.04,10.3-11.76,14.45c-1.62,1.42-1.28,3.63-2.69,5.23
	c-1.91,2.17-3.36,4.77-5.03,7.16c-3.16,4.52-4.63,9.87-5.88,15.29c-0.64,2.81-2.41,5.41-3.93,7.94c-1.39,2.31-2.48,4.62-2.95,7.32
	c-0.32,1.88-0.98,3.65-2.66,5.13c-2.08,1.83-1.73,4.62-0.85,6.98c1.11,2.95,2.49,5.84,4.83,8.09c2.4,2.29,4.22,5.11,6.8,7.27
	c0.96,0.81,1.58,2.14,2.11,3.33c2.33,5.2,6.15,9.43,9.14,14.2c0.25,0.4,0.74,0.65,1.28,1.11c2.88-0.99,4.15-3.32,4.94-6.06
	c0.14-0.48,0.34-0.98,0.31-1.46c-0.62-8.74,2.22-17.13,2.56-25.75c0.24-5.97-0.73-11.92-2.13-17.76c-1.13-4.69-2.28-9.37-2.41-14.23
	c-0.01-0.5-0.07-1-0.07-1.5c-0.07-8.49,7.06-9.22,12.19-7.06c1.47,0.62,2.97,1.32,4.49,1.92c3.95,1.56,7.13,3.89,9.68,7.48
	c4.05,5.67,8.46,11.12,13.07,16.34c4.73,5.36,8.45,11.53,13.49,16.62c0.47,0.47,0.82,1.05,1.27,1.62c3.99-0.72,7.8-0.68,11.61-0.78
	c2.91-0.08,5.58,0.66,7.52,2.93c0.74,0.86,1.62,1.07,2.54,1.39c1.66,0.58,3.11,1.68,3.58,3.27c0.87,2.93,3.04,3.17,5.45,3.32
	c5.21,0.34,10.43,0.49,15.58,1.63c6.34,1.4,11.29,4.99,15.81,9.38c0.75,0.73,1.07,1.68,1.02,2.72c-0.27,5.13,1.72,10.19,0.39,15.38
	c-0.27,1.04,0.08,2.32,0.38,3.42c2.13,7.71-2.33,12.9-6.91,17.95c-2.46,2.71-5.34,5.03-7.81,7.72c-1.52,1.66-3.39,3.31-3.14,6.11
	c1.61,1.3,3.41,2.51,4.9,4.02c3.14,3.2,1.99,7.97-2.3,9.56c-3.74,1.38-7.55,2.57-11.32,3.84c-1.77,0.6-3.34,1.15-3.49,3.59
	c-0.15,2.49-2.23,3.98-3.93,5.56c-4.71,4.36-4.72,6.93-0.14,11.61c3.69,3.78,7.96,7,10.81,11.61c0.84,1.36,2.23,2.57,3.65,3.35
	c9.64,5.3,16.73,13.57,24.61,20.92c6.35,5.92,13.21,10.96,21.47,14.09c4.66,1.77,9.38,3.31,14.1,4.89c4.77,1.59,9.13,3.89,12.94,7.3
	c2.21,1.98,4.83,3.5,7.35,5.11C341.68,309.02,344.63,311.67,347.91,314.7z"/>
</svg>
