<?xml version="1.0" encoding="utf-8"?>
<!-- Generator: Adobe Illustrator 24.1.1, SVG Export Plug-In . SVG Version: 6.00 Build 0)  -->
<svg version="1.1" id="Layer_1" xmlns="http://www.w3.org/2000/svg" xmlns:xlink="http://www.w3.org/1999/xlink" x="0px" y="0px"
	 viewBox="0 0 1441.65 930.02" style="enable-background:new 0 0 1441.65 930.02;" xml:space="preserve">
<style type="text/css">
	.st0{fill:#1A1A1A;}
</style>
<g>
	<g>
		<path d="M668.05,410.04c-13.65-5.7-27.88-5.71-41.71-8.89c-2.2,8.72,1.32,16.68,0.8,24.99c-1.8-5.75-9.35-8.6-7.64-16.12
			c-2.6-4.95-3.87-10.86-9.66-13.51c-2.96-1.36-5.89-2.81-8.95-3.91c-3.66-1.32-5.85-0.34-8.15,3c-5.55,8.06-8.72,17.12-10.92,26.54
			c-1.71,7.34-2.18,14.89-3.21,22.34c-0.78,5.68,0.03,10.96,1.05,16.41c0.63,3.37-1.09,7.07-0.32,10.13
			c0.74,2.94,3.02,5.57,3.73,8.88c0.6,2.82-1.58,5.59,0.47,8.31c-5.58-3.72-10.58-7.71-11.27-14.8c-0.35-3.55-3.46-4.46-5.49-6.47
			c-4.46-4.42-9.26-8.5-14.72-11.47c-5.46-2.96-10.98-6.2-17.96-4.15c-3.66,1.08-6.42,2.95-8.15,5.89c-5.29,8.97-8,18.84-9.19,29.17
			c-0.86,7.48-1.94,14.93-2.92,22.4c-0.06,0.49-0.04,1-0.06,1.5c-0.49,18.1-1.9,36.21-0.81,54.28c0.53,8.78,0.22,17.57,0.91,26.3
			c0.98,12.53,1.31,25.08,2.14,37.59c0.51,7.62-0.03,15.28,0.9,22.8c1.1,8.95,0.96,18.03,2.84,26.89c0.17,0.79-0.01,1.65,0.59,2.35
			c5.34,6.29,4.98,14.27,6.38,21.72c0.04,0.21-0.24,0.48-0.6,1.14c-1.91-3.36-4.75-5.61-7.17-8.25c-2.75-3-4.16-6.7-4.09-10.68
			c0.07-4.11-1.31-7.74-2.89-11.3c-6.22-14-11.56-28.33-16.8-42.72c-4.74-13.01-8.38-26.38-13.82-39.18
			c-2.37-5.57-2.39-12.12-3.59-18.2c-1.82-9.27-3.84-18.51-5.58-27.79c-1.29-6.9-2.29-13.86-3.4-20.79
			c-1.31-8.23-2.65-16.45-3.84-24.69c-0.44-3.08-0.92-6.28-0.94-9.28c-0.05-5.82-0.93-11.55-1.39-17.28
			c-1.15-14.36-1.51-28.73-2.1-43.1c-0.27-6.76-1.13-13.6-0.58-20.3c0.82-9.95,0.31-19.9,0.98-29.8c0.61-9.03,0.98-18.12,2.02-27.09
			c1.19-10.24,2.36-20.5,3.56-30.74c1.41-12.04,3.52-23.96,5.43-35.9c1.8-11.24,4.24-22.4,6.77-33.53
			c3.86-16.99,8.18-33.84,13.07-50.55c6.86-23.45,15.29-46.35,24.21-69.08c1.37-3.49,3.17-6.81,4.69-10.25
			c0.7-1.59,1.91-3.2,0.32-5.4c-8.48,2.65-17.07,5.34-25.97,8.12c-0.53-3.26,1.24-5.41,2.71-7.36c7.5-9.98,16.92-18.04,26.8-25.52
			c1.93-1.46,3.36-3.58,6.28-4.22c-1.37-1.43-2.99-0.43-4.05-1.71c2.06-4.27,6.24-4.55,10.18-5.2c1.46-0.24,3.03,0.02,4.44-0.35
			c1.67-0.44,2.98-2.29,4.99-1.38c2.7,1.23,5.11,3.09,7.06,5.19c3.18,3.42,4.84,7.58,4.38,12.54c-0.9,9.79,0.48,19.56,1.13,29.28
			c1.2,17.92,5.51,35.11,15.73,50.37c7.91,11.81,19.03,18.98,32.25,23.53c1.98,0.68,3.22,0.28,4.46-0.55
			c5.89-3.94,12.34-6.81,18.77-9.62c3.1-1.35,6.5-2.76,10.32-1.31c2.04,0.78,4.25,0.31,6.5-1.16c3.67-2.39,7.58-4.55,11.54-6.44
			c7.95-3.8,15.54-7.88,20.25-16.55c-7.26-5.8-14.89-12.03-14.08-23.31c-4.11,0-5.54,3.2-7.34,5.61c-1.61-0.02-2.35-0.83-2.54-2.09
			c-0.54-3.61-3.2-5.76-5.69-7.84c-8.91-7.46-13.32-16.87-12.25-28.44c0.43-4.68,2.44-9.09,5.02-13.1c0.46-0.72,1.01-1.32,0.61-2.82
			c-4.39-2.89-11.83-3.2-12.96-10.7c4.49-2.82,9.33-1.63,13.76-2.73c2.96-0.74,3.46-1.85,2.49-4.27c-1.48-3.71-0.98-6.57,2.94-8.49
			c0.87-0.43,1.29-1.84,1.85-2.84c2.18-3.91,4.7-7.44,8.71-9.79c2.65-1.56,3.81-4.5,5.16-7.09c6.25-12.03,11.78-24.37,16.6-37.05
			c1.4-3.68,2.79-7.71,7.2-9.54c2.98-1.24,4.81-0.63,6.55,1.9c6.56,9.6,12.04,19.73,15.52,31.26c5.27-3.09,5.19-9.56,9.07-13.21
			c3.54,2.75,4.12,4.47,4.54,13.24c1.04-0.01,2.03,0.41,3.14-0.02c7.66-2.98,14.99-0.98,22.05,2.01c2.04,0.86,3.13-0.03,4.46-0.68
			c7.76-3.82,15.51-7.62,23.99-9.63c6.13-1.45,9.17,0.71,10.21,6.88c2.41,14.32,0.23,28.04-5.09,41.39
			c-0.42,1.06-0.92,1.77-0.31,3.13c1.95,4.34,2.18,9.16,3.25,13.75c1.3,5.56-3.22,15.06-8.34,17.63c-3.46,1.74-5.65,3.42-3.7,7.82
			c0.76,1.73,0.47,4.17-0.21,6.3c-3.3-0.12-3.23-4.37-6.26-4.41c-0.33,0.47-0.57,1.22-0.25,1.78c3.66,6.38,3.51,13.16,2.18,20.07
			c-0.06,0.31-0.25,0.69-0.15,0.94c2.93,6.71-1.37,11.24-4.87,15.93c-1.76,2.36-2.99,5-5.03,7.25
			c-6.36,6.99-12.07,11.07-21.53,14.17c5.37,2.6,10.17,5.19,15.2,7.22c1.96,0.79,3.92,1.63,5.81,2.55
			c3.23,1.58,6.15,3.44,10.12,1.75c2.46-1.05,5.22,0.52,7.64,1.27c2.14,0.67,3.82,0.62,5.59-0.42c8.6-5.03,17.1-10.22,24.9-16.46
			c4.88-3.91,10.01-7.61,14.16-12.27c8.05-9.03,16.04-18.09,20.2-29.88c4.71-13.33-0.03-24.19-7.34-35
			c-5.8-8.6-14.88-11.89-23.37-16.25c-2.2-1.13-3.14-2.86-2.52-4.64c2.4-6.81,1.68-14.26,4.59-20.97c0.83-1.92,1.51-3.93,2.64-5.96
			c1.1,0.26,2.27,0.53,3.18,0.75c1.32,1.99-1.23,3.25,0,5.63c13.96-17.3,29.73-32.12,49.93-41.66c1.22,2.58,0.14,4.59-0.86,6.61
			c-3.76,7.62-7.97,15.03-10.95,23.01c-0.81,2.18-2.47,4.36-1.04,7.32c4.28-1.16,8.21-3.17,12.25-4.72
			c12.21-4.69,24.87-7.71,37.59-10.37c12.77-2.67,25.64-4.84,38.52-6.95c6.31-1.03,12.76-1.15,19.06-2.21
			c6.62-1.12,13.33-1.39,19.93-2.7c3.49-0.69,7.18-0.81,10.77-1.14c9.65-0.88,19.27-2.02,28.91-2.86c5.4-0.47,10.87-0.88,16.27-1.36
			c10.8-0.97,21.69-1,32.42-2.8c0.65-0.11,1.33-0.1,2-0.05c7.97,0.57,15.87-0.8,23.79-1.21c12.03-0.61,24.08-1.21,36.09-2.04
			c7.12-0.49,14.29,0.07,21.3-0.9c10.12-1.39,20.28,0.09,30.3-1.02c13.29-1.47,26.55-0.49,39.81-0.76c2.86-0.06,5.42-1.48,8.3-1.11
			c13.73,1.73,27.57,0.19,41.27,1.25c8.3,0.64,16.61-0.06,24.8,0.9c8.45,0.99,16.95,0.09,25.29,1.06
			c6.47,0.75,12.95,0.08,19.31,0.92c8.46,1.12,16.98,1.52,25.44,2.61c6.33,0.81,12.67,1.81,19.05,2.4
			c8.12,0.74,16.18,2.25,24.23,3.63c3.59,0.62,6.84-0.02,10.03-1.53c3.06-1.45,5.91-1.14,8.69,0.79c3.46,2.4,6.98,4.72,10.88,7.36
			c-5.96,2.01-11.8,1.98-17.33,3.41c-1.44,0.37-2.93-0.42-3.66-0.96c-5.27-3.92-11.23-2.16-16.56-1.47
			c-4.86,0.63-9.84,0.9-14.67,1.35c-8.67,0.8-17.39,1.63-26.05,2.48c-10.75,1.06-21.51,2.26-32.24,3.58
			c-6.98,0.86-14.06,1.51-21.04,2.41c-8.08,1.05-16.16,2.31-24.23,3.56c-7.27,1.13-14.59,2.01-21.84,3.27
			c-12.06,2.09-24.16,3.97-36.13,6.46c-14.65,3.05-29.26,6.33-43.67,10.46c-15.82,4.54-31.48,9.45-46.57,16.07
			c-14.68,6.45-28.97,13.58-42.26,22.65c-18.52,12.66-33.55,28.3-42.61,49.1c-3.55,8.14-5.15,16.78-6.1,25.58
			c-2.41,22.33,3.87,42.98,11.88,63.33c0.23,0.59,0.27,1.25,0.38,1.85c10.35,1.56,11.27,2.23,18.15,13.51
			c-5.81-1.28-11.97,0.91-15.75-4.14c-5.13-6.85-12.31-8.16-19.87-8.88c-12.67-1.21-25.34-2.77-38.09-1.99
			c-19.29,1.17-37.86,4.95-54.38,15.86c-11.07,7.31-19.92,16.46-25.17,28.76c-5.8,13.56-4.18,26.61,4.64,38.1
			c2.54,3.3,5.45,6.74,9.74,10.18c-3.54,0-6,0.27-8.37-0.05c-5.59-0.75-7.93-4.98-8.89-9.79c-0.41-2.06-1.27-3.02-2.71-4.17
			c-14.15-11.26-29.41-20.65-46.29-27.22c-7.18-2.8-14.82-4.35-22.44-4.55c-10.45-0.28-20.04,3.17-27.73,10.46
			c-3.55,3.36-5.68,7.14-4.3,13.08c2.49,10.77,3.92,21.81,6.28,32.65c2.25,10.34,5.25,20.5,7.16,30.94
			c0.89,4.85,1.38,9.71,1.93,14.59c0.95,8.44,1.23,16.89,0.8,25.31c-0.76,14.86-1.71,29.71-2.17,44.6
			c-0.17,5.4,0.04,10.97-0.9,16.28c-0.95,5.37-0.28,10.82-1.68,16.15c-0.97,3.68,0.39,7.65,1.14,11.21
			c1.03,4.9,0.93,9.84,1.43,14.68c1.42,13.56,2.07,27.26,1.2,40.91c-1,15.68-3.37,31.16-6.5,46.62c-2.38,11.75-2.54,23.9-2.65,36.01
			c-0.1,11.37-0.31,23.22-6.88,33.24c-6.29,9.59-11.7,19.62-17.03,29.72c-3.51,6.66-7.72,12.87-12.08,18.99
			c-0.93,1.3-0.55,2.8-1.39,3.99c2.26,1.08,3.87-0.4,5.64-1.14c5.25-2.2,9.88-5.74,15.65-6.86c4.28-0.83,6.88,0,8.06,4
			c1.65,5.61,3.01,11.33,4.17,17.07c1.1,5.45,1.87,11.18,1.69,16.55c-0.25,7.23-1.01,14.62-3.01,21.79
			c-1.83,6.55-5.46,12.13-8.78,18.33c4.88,1.57,10.59,1.77,12.47,8.19c-11.83,2.01-20.76,8.99-30.68,14.58
			c4.56,7.97,9.45,15.12,15.41,20.93c6.83,6.67,15.2,11.88,24.21,15.54c3.49,1.42,7.48,0.61,11.23,1.11
			c4.78,0.64,7.49,3.41,9.99,6.55c1.16,1.46,2.38,2.54,3.83,3.56c7.65,5.37,11.71,16.07,6.24,25.48c-2.77,4.77-6.1,11.11-13.98,9.78
			c-1.41-0.24-2.68,1.08-4.29,0.95c-6.47-0.52-12.44,0.82-18.55,3.39c-6.89,2.9-14.4,4.38-21.73,0.26
			c-1.38-0.78-2.57,0.84-3.89,1.24c-4.52,1.35-9.21,1.12-13.52-0.08c-7.34-2.05-14.59-4.62-21.62-7.57
			c-5.02-2.1-6.61-7.45-8.79-11.94c-6.43-13.21-9.86-27.55-15.21-41.17c-0.66-1.67-1.43-3.3-2.29-4.88c-1.36-2.52-2.9-3.59-6.27-2.6
			c-7.49,2.21-15.14,3.67-23,4.62c-8.74,1.05-16.98-0.11-25.28-1.87c-1.95-0.41-2.59,0.97-4.22,1.09c0.91,1.91,1.56,3.78,2.62,5.38
			c2.23,3.38,4.33,4.04,8.32,2.72c5.76-1.92,11.44-3.92,16.66,1.33c2.68,2.7,5,5.65,6.92,8.91c4.26,7.21,6.8,15.12,9.09,23.1
			c1.49,5.22-0.85,11.53-5.48,14.48c-3.02,1.93-4.7,4.41-6.14,7.79c-4.4,10.33-12.1,16.88-23.76,17.7c-1.76,0.12-3.17,0.4-4.38,1.79
			c-3.33,3.83-7.31,4.42-12.31,3.43c-6.43-1.26-13.07-2.23-18.64-5.48c-4.85-2.83-9.74-4.02-15.07-4.75
			c-5.19-0.72-9.34-3.78-13.22-7.02c-10.4-8.71-15.7-19.68-16.71-33.49c-1-13.63-0.14-27.23-0.87-40.81
			c-0.23-4.26-0.95-8.5-0.98-12.8c-0.02-3.29-2.57-5.34-4.87-7.14c-4.5-3.51-9.28-6.65-13.86-10.07c-3.89-2.9-6.52-7.04-9.58-10.69
			c-8.11-9.66-15-20.21-20.02-31.85c-3.42-7.92-7.24-15.66-10.09-23.84c-1.85-5.33-2.37-10.84-3.29-16.27
			c-1.26-7.44-1.97-15.03-2.12-22.57c-0.29-14.68,2.78-28.99,6.33-43.13c3.71-14.76,9.76-28.69,16.65-42.2
			c9.81-19.24,21.75-37.16,34.74-54.41c10.91-14.48,21.38-29.28,32.27-43.78c4.62-6.15,8.79-12.6,13.46-18.68
			c2.14-2.78,3.23-5.93,3.3-9.03c0.26-11.55,2.92-22.77,4.3-34.15c1.14-9.4,1.05-18.95,3.69-28.2c1.35-4.7,3.54-8.79,6.51-12.45
			C664.77,414.73,666.24,412.61,668.05,410.04z M650.16,546.44c-3.02,1.62-5.46,2.86-6.86,5.1c-3.29,5.22-8.13,9.05-12.06,13.7
			c-6.46,7.64-12.8,15.35-18.51,23.56c-6.82,9.8-12.47,20.26-17.17,31.24c-3.07,7.2-5.46,14.63-7.76,22.09
			c-2.6,8.44-4.03,17.19-4.81,25.92c-0.46,5.06-2.26,10.27-1.03,15.23c1.16,4.71,0.81,9.45,1.62,14.16
			c2.4,13.95,6.19,27.31,13.1,39.73c0.84,1.51,1.66,2.78,3.32,3.24c2.54-1.39,3.35-4.13,5.22-6.01c4.39-4.43,6.94-10.1,7.41-16.16
			c0.65-8.4,0.19-16.85,1.01-25.29c0.66-6.77,0.13-13.65,0.14-20.47c0.01-5.61,1.05-11.05,2.76-16.37
			c3.65-11.38,11.14-20.32,19.07-28.81c5.53-5.91,11.15-11.72,15.99-18.2c4.58-6.13,6.61-13.37,5.85-20.76
			c-0.5-4.85-1.05-9.79-1.47-14.63C655.18,564.48,652.35,555.89,650.16,546.44z M742.67,584.71c-2.3,1.91-2.99,4.31-3.82,6.56
			c-1.57,4.27-2.94,8.6-4.42,12.9c-2.47,7.21-6.59,13.84-7.41,21.62c-0.24,2.26-0.6,4.57-1.38,6.69
			c-3.63,9.84-8.56,18.98-14.78,27.45c-1.49,2.03-2.92,4.01-3.32,6.9c-0.52,3.78-1.93,7.47-3.49,11.12
			c-6.17,14.38-15.95,26.59-23.5,40.12c-5.4,9.69-11.42,19.02-16.75,28.77c-4.52,8.27-5.08,16.52-3,25.32
			c0.56,2.38,1.78,4.3,4.28,4.93c1.61,0.41,3.05,1.13,4.56,1.75c6.87,2.83,14.29,4.2,21.47,4.24c5.79,0.03,11.81-1.87,17.65-3.44
			c6.73-1.82,11.06-6.05,14.76-11.45c1.52-2.23,2.4-4.8,1.91-7.31c-1.8-9.29-4.72-18.26-8.54-26.92
			c-5.59-12.65-8.09-25.54-6.4-39.61c1.44-12.01,6.92-21.55,14.84-29.63c6.72-6.85,15.04-12.1,22.44-18.31
			c10.04-8.43,12.68-12.71,9.54-23.85C753.63,609.51,746.23,597.93,742.67,584.71z M664.78,339.5c-0.33,0.07-1.12,0.29-1.93,0.42
			c-5.98,0.91-9.96,5.22-14.73,8.28c-3.33,2.14-5.03,5.34-6.56,8.32c-2.41,4.68,2.69,6.1,5.23,8.51c0.24,0.23,0.44,0.51,0.71,0.7
			c6.56,4.89,13.23,9.65,21.6,10.88c6.35,0.93,10.07-3.04,8.28-8.76c-0.35-1.13-0.58-2.2-0.63-3.36c-0.26-6.57-1.8-12.91-3.64-19.17
			C671.87,341.07,669.61,339.51,664.78,339.5z"/>
	</g>
	<g>
		<path class="st0" d="M1047.63,213.12c-1.41-0.43-2.51-0.95-3.54-0.35c-0.75,0.43-1.57,1.04-2.29,0.69
			c-3.85-1.87-8.02-1.38-12.05-1.96c-5.24-0.76-10.68-1.39-15.54-3.31c-7.53-2.96-15.52-4.48-22.87-8.13
			c-3.6-1.79-8.06-2.23-11.69-4.21c-10.02-5.45-20.56-9.78-30.74-14.86c-14.16-7.06-28.09-14.63-41.74-22.67
			c-6.72-3.96-13.53-7.78-20.23-11.78c-5.59-3.33-9.94-7.86-13.43-13.42c-1.24-1.97-1.8-3.7-1.8-5.91
			c0.05-14.61,6.31-25.84,18.09-34.34c12.84-9.26,27.28-15.18,41.89-20.86c23.27-9.04,47.32-15.48,71.56-21.14
			c15.38-3.59,30.85-6.9,46.48-9.39c13.54-2.15,26.97-5.05,40.55-6.79c11.37-1.45,22.74-3.01,34.14-4.32
			c9.91-1.14,19.83-2.33,29.73-3.59c4.84-0.62,9.85-0.92,14.76-1.38c10.3-0.98,20.68-1.1,30.91-2.8c0.33-0.05,0.67-0.08,1-0.05
			c7.48,0.71,14.87-0.73,22.29-1.14c15.6-0.87,31.23-0.22,46.78-1.12c8.12-0.47,16.25-0.07,24.3-0.87
			c4.78-0.48,9.53-0.68,14.31-0.96c3.23-0.19,6.15,1.06,9.3,1.19c3.71,0.16,7.15-1.09,10.8-1.18c9.8-0.24,19.51,1.15,29.29,1.31
			c5.9,0.1,12,0.97,17.88,2.6c2.23,0.62,3.26,1.98,3.46,3.61c0.27,2.21-1.98,2.6-3.63,3.09c-3.65,1.09-7.55,0.95-11.22,1.2
			c-8.38,0.56-16.74,1.51-25.06,2.44c-7.3,0.81-14.65,1.37-21.95,2.56c-5.62,0.92-11.36,1.71-17.06,2.14
			c-8.19,0.63-16.26,2.1-24.34,3.33c-7.73,1.19-15.51,2.22-23.19,3.77c-14.21,2.88-28.47,5.44-42.62,8.62
			c-17.5,3.94-34.7,8.78-51.69,14.4c-15.81,5.23-31.21,11.57-45.82,19.59c-11.02,6.06-21.5,12.95-31.26,21.02
			c-13.06,10.79-23.03,23.72-29.99,39.08c-3.67,8.09-5.75,16.54-6.83,25.38c-0.59,4.79-1.15,9.56-0.78,14.31
			C1044.45,195.55,1045.36,204.17,1047.63,213.12z"/>
		<path class="st0" d="M761.94,214.36c3.59,2.16,5.93-1.67,8.9-2.03c3.14-0.38,6.15-1.76,9.6-2.82c-1.13,3.36-4.67,3.78-6.41,6.51
			c6.23,1.49,8.48,6,9.82,11.7c1.77,7.55,3.35,15.1,2.84,22.86c-0.47,7.16-1.83,14.14-5.06,20.74c-1.77,3.61-1.89,8.04-0.84,11.73
			c1.95,6.79,3.02,13.71,3.83,20.63c1.04,8.86,0.8,17.86,1.29,26.76c0.84,15.09,4.39,29.52,12.5,42.74
			c3.71,6.04,4.62,13.48,6.26,20.43c0.59,2.49-2.48,4.01-2.09,7c0.61,4.75-0.01,9.65,0.23,14.47c0.14,2.74-1.07,5.12-1.32,7.72
			c-2.1-1.02-1.41-3.33-2.25-5.12c-4.33,7-6.54,14.63-8.36,22.27c-2.22,9.36-4.94,18.53-8.2,27.56
			c-3.41,9.46-14.55,17.2-24.35,16.98c-3.99-0.09-5.19-1.14-5.57-5.23c-0.58-6.36-1.61-12.65-4.1-18.55
			c-2.73-6.48-4.88-13.12-6.27-19.99c-0.71-3.52-1.49-7.09-1.58-10.65c-0.22-8.69-2.64-16.28-8.63-22.86
			c-2.08-2.28-3.29-5.41-6.23-6.7c0.67-1.89,1.76-2.12,2.96-2c2.31,0.23,4.6-0.12,5.45-2.44c0.83-2.26-0.56-4.37-1.83-6.25
			c-0.72-1.06-2.03-1.67-2.46-2.94c0.52-1.02,1.46-1.36,2.41-1.66c7.75-2.47,7.24-8.98,3.84-13.49c-4.81-6.4-11.42-10.76-19.2-12
			c-5.9-0.95-9.11-4.06-11.94-9.03c-0.26,0.32-0.54,0.67-0.99,1.22c-2.02-3.2-4.28-6.43-6.15-9.87c-1.88-3.45-1.92-7.64-3.46-11.12
			c-3.23-7.28-4.08-15.05-5.78-22.64c-0.61-2.74-3.41-3.94-4.02-6.65c-0.85-3.8-2-7.53-2.97-11.31c-0.54-2.11,0.27-5.29-3.82-4.31
			c-0.26,0.06-1.09-0.93-1.11-1.45c-0.09-2.89-2.17-5.62-0.68-8.69c1.83-0.86,3.89,0.03,6.23-0.74c-4.34-2.75-8.89-4.45-12.92-7.13
			c-5.67-3.77-9.37-9.31-13.46-14.33c-4.39-5.39-2.84-19,1.8-24.64c1.35-1.64,2.27-3.52,3.64-5.05c-0.93-1.66-2.84-1.72-4.35-3.11
			c5.63-1.57,10.93-3.23,16.58-3.37c3.96-0.1,4.37-0.57,4.43-5.22c5.09,4.1,10.87,3.33,16.49,3.19c5.83-0.14,11.28,0.84,16.86,2.76
			c6.94,2.39,14.32,3.38,21.81,1.51c-0.38,1.96-2.56,2.57-3.16,4.32c1.96,0.98,4.54,0.92,5.53,3.37c-0.67,2.04-2.94,0.23-3.79,1.95
			c0.09,0.25,0.15,0.78,0.43,1.13c1.58,1.96,4.63,1.47,6.11,3.63c1.6-1.56,3.93-0.08,5.95-2.35
			C749.93,225.54,754.69,218.37,761.94,214.36z M744.9,269.72c-0.26-2.02,3.62-3.72,0.35-5.97c-1.78,3.96-4.67,7.12-7.53,10.17
			c-4.97,5.3-12.05,5.96-18.65,7.63c-5.77,1.45-11.68,0.65-17.73,1.14c0.98,1.15,1.85,1.76,3.11,1.83
			c13.13,0.71,25.42-2.04,36.25-9.65c2.43-1.71,4-2.79,6.86-1.13c1.86,1.08,4.24,1.26,6.74,1.94
			C751.86,271.93,747.4,272.38,744.9,269.72z M759.93,359.02c-1.13,7.32,3.74,12.53,5.61,18.64
			C763.8,371.51,766.67,363.99,759.93,359.02z"/>
		<path class="st0" d="M524.54,699.23c-4.07-3.46-8.14-6.48-8.46-11.47c-0.4-6.26-2.99-12.1-3.12-18.27
			c-0.06-2.74-1.14-4.9-2.32-6.8c-7.39-11.86-10.49-25.32-15-38.28c-5.36-15.4-9.14-31.23-13.24-46.96
			c-2.75-10.55-4.89-21.27-6.77-32.04c-1.29-7.39-2.31-14.83-3.72-22.2c-0.58-3.04-0.7-6.26-0.85-9.3
			c-0.26-5.29-1.03-10.52-1.41-15.78c-0.78-10.77-0.14-21.6-1.1-32.29c-0.69-7.64-0.18-15.24-0.8-22.82
			c-0.75-9.04,0.5-18.06,0.03-27.08c-0.59-11.3,0.99-22.52,1.2-33.8c0.21-11.48,1.61-22.96,2.89-34.4
			c1.42-12.69,2.99-25.37,5.05-37.97c3.1-18.97,7.02-37.78,11.87-56.41c3.97-15.27,7.55-30.66,12.49-45.64
			c3.15-9.56,6.99-18.92,10.92-28.22c2.86-6.77,6.19-13.32,9.26-19.98c3.07-6.67,6.58-13.26,11.77-19.72
			c1.47,6.18-0.46,11.15-1.49,16.15c-1.55,7.51-2.94,15.04-4.11,22.63c-1.08,7.04-3.4,13.89-5.34,20.77
			c-0.38,1.33-0.44,2.59-0.49,3.9c-0.34,9.53-1.88,18.94-2.78,28.41c-0.72,7.69-1.6,15.38-2.37,23.06
			c-0.88,8.64-1.3,17.33-2.7,25.93c-0.77,4.69-0.72,9.56-0.91,14.29c-0.39,9.76-1.75,19.48-1.31,29.29
			c0.32,7.26-0.09,14.53-0.79,21.81c-0.78,8.06,1.54,16.14,0.88,24.29c-0.76,9.3,0.36,18.6,1.22,27.78
			c1.24,13.15,2.65,26.33,5.51,39.32c1.22,5.53,2.22,11.27,2.25,17.04c0.02,4.15-1.07,8.02-2.41,11.92
			c-2.27,6.63-3.55,13.51-4.75,20.44c-1.26,7.29-1.19,14.7-2.79,21.92c-0.07,0.32-0.03,0.66-0.05,1
			c-1.31,19.58-1.47,39.21-0.76,58.78c0.27,7.59,0.19,15.23,0.82,22.8c0.91,10.86,1.41,21.73,2.09,32.6
			c0.59,9.53,1.1,19.11,2.12,28.58c0.72,6.7,0.02,13.46,1.55,20.15c0.87,3.81,2.93,6.92,4.56,10.15
			C523.76,688.01,525.33,693.05,524.54,699.23z"/>
		<path class="st0" d="M1025.52,236.12c-2.06,2.17-4.29,1.62-6.05,1.29c-7.24-1.38-14.34-0.71-21.61-0.1
			c-8.37,0.7-16.52,2.06-24.6,4.18c-11.49,3.02-21.83,8.34-31.38,15.35c-8.69,6.37-15.08,14.5-19.4,24.33
			c-3.73,8.48-4.98,17.21-2.83,26.33c0.18,0.78,0.02,1.64,0.02,2.66c-9.59-6.71-17.06-15.18-23.87-24.3
			c-7.72-10.34-15.5-20.63-23.19-30.98c-8.66-11.66-16.63-23.77-24.27-36.13c-6.68-10.82-10.65-22.64-13.85-34.8
			c-1.25-4.75-1.67-9.52-0.69-14.37c1.42-7.03,6.55-10.01,12.76-12.08c8.96-2.99,17.76-1.19,26.48,0.75
			c25.12,5.58,47.77,16.98,69.84,29.79c8.98,5.21,18.48,9.52,27.41,14.8c10.68,6.31,21.96,11.58,32.37,18.3
			c5.62,3.63,11.61,6.73,16.8,11.17C1021.02,233.63,1022.89,235.55,1025.52,236.12z"/>
		<path class="st0" d="M551.89,340.25c3.97,11.38,10.8,20.6,16.95,30.18c2.31,3.59,6.55,5.26,9.83,7.92
			c5.04,4.1,10.61,7.53,16.17,11.39c-9.98,9.49-13.03,21.93-15.97,34.29c-3.37,14.16-1.84,28.66-2.12,43.03
			c-0.05,2.61,1.89,4.13,3.03,6.02c2.39,3.96,3.58,8.02,2.77,12.83c-5.64-2.29-8.99-6.43-9.71-12.31
			c-0.79-6.46-3.94-11.72-7.97-16.38c-8.3-9.6-15.26-19.97-20.51-31.55c-6.95-15.33-12.22-31.16-15.69-47.64
			c-1.71-8.13-3.16-16.31-4.77-24.45c-0.57-2.88-0.65-5.89-0.93-8.8c-1.1-11.65-2.14-23.37-2.04-35.06
			c0.13-13.98,1.31-27.94,2.68-41.89c1.23-12.56,3.39-24.96,5.29-37.4c1.74-11.4,4.26-22.69,7.23-33.88
			c1.87-7.07,3.47-14.22,5.75-21.18c0.89-2.72,1.93-5.46,4.54-7.72c2.59,15.79,5.02,31.18,7.54,46.56
			c1.94,11.85,4.87,23.57,8.18,35.16c2.23,7.82,4.09,15.76,7.59,23.15c1.53,3.23,3.38,6.31,4.82,9.57c0.45,1.01,1.25,1.87,0.73,3.57
			c-3.11,10.1-5.26,20.52-10.53,29.86c-2,3.55-4.01,7.1-6.11,10.59c-2.12,3.51-4.1,7.12-4.76,11.17
			C553.64,338.83,552.78,339.43,551.89,340.25z"/>
		<path class="st0" d="M647.49,503.41c0.62,12.36,1.2,23.73,1.73,35.11c0.07,1.56-0.7,2.83-1.85,3.85
			c-5.98,5.29-10.89,11.59-16.33,17.39c-10.67,11.38-20.12,23.71-28.12,37.14c-9.85,16.55-16.75,34.27-20.76,53.03
			c-1.36,6.36-2.74,12.89-2.37,19.51c0.21,3.84-1.48,7.42-1.12,11.31c0.3,3.27,1.41,6.4,1.16,9.8c-0.27,3.77-0.88,7.44-1.43,11.15
			c-0.61,4.1-1.47,9.28,3.83,11.94c1.15,0.57,1.21,1.79,1.64,2.88c2.08,5.3,3.56,10.81,5.7,16.11c1.31,3.24,2.87,6.31,4.91,8.97
			c3.26,4.25,2.97,8.51,1.63,13.18c-1.38,4.79,0.14,9.64,1.1,14.14c2.04,9.56,3.37,19.25,5.48,28.8c0.92,4.13,1.2,8.41,2.16,12.53
			c0.45,1.92-0.09,3.42-0.69,5.35c-4.12-2.3-7.67-5.29-10.9-8.35c-5.36-5.08-11.56-9.25-15.93-15.49
			c-3.76-5.36-7.29-10.83-10.58-16.45c-8.17-13.99-14.93-28.59-18.38-44.55c-1.91-8.82-4.17-17.74-3.47-26.71
			c1.14-14.64,2.9-29.25,7.19-43.43c3.4-11.25,7.7-22.09,12.41-32.86c6.84-15.63,15.78-29.96,25.23-44
			c10.76-15.99,22.31-31.42,33.93-46.8c6.88-9.12,13.37-18.54,19.79-28C644.6,507.3,646.2,506.12,647.49,503.41z"/>
		<path class="st0" d="M795.71,214.1c3.48-3.3,6.69-2.82,10.85-1.91c12.07,2.63,21.81,8.96,31.1,16.64
			c11.4,9.42,20.46,20.91,30.06,31.99c7.87,9.08,14.3,19.07,20.74,29.11c0.95,1.49,1.55,3.2,2.64,5.51
			c-4.85-1.04-8.49-3.43-12.4-5.01c-9.61-3.9-19.41-7.05-29.85-6.83c-12.74,0.26-24.01,4.28-32.35,15.2
			c-4.48-11.6-8.93-22.87-13.19-34.2c-2.56-6.8-3.79-13.95-3.49-21.18C800.22,233.42,798.62,223.81,795.71,214.1z"/>
		<path class="st0" d="M661.51,778.89c17.59,8.6,34.43,10.21,51.53,2.62c1.14,1.27,0.96,2.77,0.63,3.88
			c-1.67,5.69,0.66,10.49,3.14,15.23c5.13,9.8,11.65,18.83,16.03,29.05c0.36,0.85,1.09,1.54,1.65,2.31
			c-2.97,4.17-7.69,5.3-11.97,6.24c-8.35,1.84-16.92,2.84-25.52,2.16c-5.54-0.44-11.06-1.25-16.55-2.15
			c-3.47-0.57-5.62-2.66-6.77-6.22c-3.39-10.52-7.13-20.9-9.13-31.85C663.33,793.42,662.19,786.72,661.51,778.89z"/>
		<path class="st0" d="M778.5,103.43c-7.18-18.16-21.87-28.33-38.03-37.4c0.64,6.15,4.08,11.79,3.08,18.23
			c-5.94,1.22-10.01-3.05-14.94-4.27c-6.6-1.63-9.27-6.62-11.34-12.34c-0.54-1.51-0.73-2.82,0.04-4.26
			c0.65-1.21,0.73-2.47-0.26-3.87c-3.97,1.56-6.45,7.45-12.3,4.45c5.2-7.16,6.03-15.55,6.82-23.79c0.27-2.86,1.74-4.44,3.11-6.41
			c1.55-2.23,3.01-4.53,4.47-6.76c2.52,2.3,2.07,5.15,1.43,7.77c-0.69,2.82-1.63,5.7-3.11,8.18c-1.51,2.53-1.68,4.73-0.06,7.56
			c6.28-1.54,12.69-3.51,20.48-2.84c-4.72-3.28-9.2-3.07-14.31-3.29c3.61-3.65,6.92-6.85,10.8-8.44c4.36-1.79,8.97,0.68,13.29,2.12
			c1.98,0.66,3.76,1.9,5.69,2.91c-3.13,2.22-6.71,3.31-9.99,5.06c15.18,0.3,23.06,10.45,29.92,21.72c4.44,7.3,7.03,15.4,8.32,23.84
			C782.27,95.77,779.94,99.37,778.5,103.43z"/>
		<path class="st0" d="M658.88,747.45c-2.54-1.22-5.1-2.45-8.2-3.93c0.78,2.45,1.39,4.37,2.19,6.9
			c-8.11-5.26-15.33-10.41-18.23-19.65c-1.31,0.93-0.54,2.14-1.47,3.32c-4.07-6.65-8.06-13.16-12.3-20.07
			c-1.85,2.23-0.65,4.51-1.27,6.41c-2.75-2.92-2.83-2.92-2.84-6.28c-0.04-10.15-0.34-20.32,0.15-30.45
			c0.2-4.09,0.11-8.49,2.47-13.51c0.72,8.98,5.79,15.55,6.8,23.39c1.3-1.54,1.43-3.86,2.84-5.69c0.41,6.6,3.29,12.45,4.03,19.18
			c1.54-3.39,1.98-6.55,1.92-9.92c3.63,10.37,11.31,18.02,16.44,27.67c4.7-5.36,3.49-11.56,5.74-16.92
			c1.42,3.12,2.07,6.33,3.89,8.98c1.94-2.16,1.87,1.25,3.44,1.22c2.65-2.96,6.29-5.18,10.23-8.83c-0.38,5.76,0.83,10.45-2.36,15.5
			c-3.81,6.03-7.71,12.11-10.63,18.7C661.14,744.77,660.81,746.32,658.88,747.45z"/>
		<path class="st0" d="M792.51,784.29c-1.93-8.28-5.53-15.55-7.14-23.47c-2.52,1.01-1.14,3.31-1.96,5.16
			c-3.86-4.9-0.99-9.92-0.57-14.67c-2.02-0.97-1.7,1.68-2.97,1.63c-1.87-1.45-0.78-3.45-1.13-5.15c-0.38-1.81,0.79-3.74-1.02-5.53
			c-1.02-1.02,0.33-2.5,1.28-3.58c3.32-3.76,7.48-6.42,11.82-8.71c5.33-2.81,10.64-5.71,16.4-7.68c3.81-1.31,4.52-1.11,5.51,2.7
			c1.94,7.43,3.25,15.04,3.71,22.62c0.29,4.87-1.73,9.87-2.69,14.82c-1.61,8.26-5.21,15.74-9.07,23.1
			c-0.81,1.54-2.21,2.78-3.45,4.29c-1.25-4.14-1.89-8.22-1.31-12.77C796.72,778.95,796.31,782.92,792.51,784.29z"/>
		<path class="st0" d="M769.02,584.98c0.55-2.15-0.07-3.21-0.96-4.56c-3.88,1.83-7.89,3.47-11.46,6.24
			c-1.61-1.91,2.05-4.48-1.16-5.68c-2.86,2.92-5.07,6.46-7.23,10.09c-4.5-9.6-4.01-17.4,0.71-28.19c2.36,0.8,2.39,1.8,0.31,3.05
			c1.96,0.03,1.61,2.07,2.56,3c1.77-2.31,1.77-2.31,1.03-5.81c1.09-0.61,2.44-1.46,2.74,0.59c0.49,3.28,2.89,5.16,4.56,8.05
			c4.82-5.77,10.5-9.73,15.78-14.17c2.07,4.38,7.13,5.15,9.99,8.55c3.77-3.41,8.42-4.1,12.94-5.02c0.5-0.1,1.22,0.38,1.81-0.07
			c3.56-2.71,7.88-1.08,11.57-2.01c4.94-1.25,10.52,0.12,14.81-3.82c1.37,4.54,1.79,8.51,1.16,13.08c-0.64,4.61-3.82,5.06-6.39,6.64
			c-4.51,2.77-10.03,3.27-14.9,6.33c0.18-1.94,1.54-3.52,0.54-5.28c-2.12-0.97-3.86-1.1-6.46,0.15c-3.98,1.9-7.82,4.12-12.07,5.63
			c-0.26-1.68,0.02-3.48,1.94-5.71C783.28,578.99,776.14,580.75,769.02,584.98z"/>
		<path class="st0" d="M643.61,297.66c3.76,7.04,7.11,13.17,10.3,19.38c1.25,2.43,2.85,4.65,5.07,5.98
			c4.56,2.73,7.26,7.08,10.51,10.97c0.34,0.41,0.16,1.26,0.26,2.29c-15.13-0.4-23.76,9.57-32.24,20.18
			c-3.53-3.01-6.67-5.95-8.43-10.18c-1.52-3.67-3.81-6.82-6.64-9.66c-3.34-3.36-3.32-4.48-0.6-8.41c2.45-3.54,5.82-6.27,8.59-9.56
			C635.62,312.47,640.24,306.07,643.61,297.66z"/>
		<path class="st0" d="M636.66,270.22c-0.44,1.94-2.34,3.19-3.04,5.1c3.9,0.48,7.78,0.24,12.26-1.02
			c-2.25,6.7-3.09,13.12-6.96,19.44c0.18-3.4-1.58-4.34-3.82-4.78c-0.62,0.61,0.01,1.7-0.83,2.23c-6.55-0.82-12.43-2.77-15.28-9.42
			c-2.14,0.25-2.57,2.47-4.4,2.64c-2.04-1.01-3.15-3.25-5.15-4.51c-1.17,0.22-0.34,1.39-1.25,2.25c-3.31-1.58-5.33-4.97-8.33-7.1
			c-1.6-1.13-2.75-2.72-4.51-3.8c-5.59-3.44-6.31-8.61-2.79-14.35c1.35-2.21,3.18-3.71,5.18-5.71c3.36,3.32,3.34,8.07,5.66,11.57
			c1.66-2.7-1.81-5.31-0.1-8.22c4.36,1.97,8.2,5.23,13.69,6.41c0.97,1.81-3.04,3.29-1.51,6.48c4.51,0.09,9.47-3.35,14.48-0.2
			C630.02,272.02,634.77,268.04,636.66,270.22z"/>
		<path class="st0" d="M688.47,82.2c-3.09-2.14-0.43-5.97-2.78-8.18c-2.3,0.02-4.18,1.77-6.36,1.37c-0.97-1.42-0.19-2.32,0.25-3.4
			c3.63-8.95,5.99-18.24,7.18-27.84c1.31-10.56,2.69-21.11,3.97-31.67c0.18-1.47,0.61-2.53,2.16-2.88c1.65-0.37,1.87,1.02,2.36,1.97
			c3.8,7.45,6.98,15.13,7.45,23.61c0.08,1.41,0.82,2.48,1.03,3.78c2.2,13.13-0.74,25.28-7.06,36.75
			C694.85,79.04,691.34,80.45,688.47,82.2z"/>
		<path class="st0" d="M819.04,527.06c-9.4,2.3-17.43,6.79-26.48,9.99c-2.7-0.41-2.67-3.92-4.66-5.74
			c-4.14-3.78-3.51-8.63-2.4-13.79c0.87-4.08,0.18-8.5,0.65-12.86c2.15,1.9,2.85,4.46,4.05,6.73c0.9,1.72,0.86,1.54,3.15,0.46
			c0.7-0.34,2.71-1.71,2.8,1.21c0.03,0.92,0.45,2.73,2.53,3.12c2.08-3.14,4.94-6.05,7.87-9.27c1.3,2.21,2.5,5.52,5.94,4.43
			c2.42-0.77,4.52-2.64,6.61-5.44c0,2.66,1.08,4.44,2.59,5.46c1.59,1.08,3.08,3.67,5.83,1.14c0.56,4.91,0.1,9.32,1.13,13.7
			c1.12,4.73-2.17,8.01-4.89,11.41C823.76,533.12,820.21,530.64,819.04,527.06z"/>
		<path class="st0" d="M578.94,269.35c-2.14-12.1-6.92-23.72-6.06-36.17c0.58-8.34,0.97-16.67,0.89-25.17
			c4.28,0.73,6.52,3.79,8.44,6.62c3.47,5.1,8.78,8.47,12.08,13.7c0.94,1.49,1.52,2.78,1.51,4.51c-0.01,2.62-0.21,5.21,0.83,7.81
			c1.07,2.69-0.41,5.14-2.03,7.24c-4.9,6.34-8.98,13.21-13.02,20.11C581.16,268.72,580.61,269.37,578.94,269.35z"/>
		<path class="st0" d="M614.55,312.57c-1.58,1.43,0.79,2.23-0.41,3.73c-8.29-1.04-12.82-8.89-20.13-12.16
			c-0.83,0.74,0.5,2.52-1.26,3.32c-2.97-4.29-6.41-8.23-10.37-11.66c-1.13,0.86-0.02,2.39-1.2,3.07c-1.53-3.11-1.22-7.27-5.43-8.5
			c1.37-4.97,2.53-9.49,5.44-14.04c1.86,4.76,3.62,9.05,6.73,12.48c1.14,1.26,1.52,4.1,4.85,2.39c1.41-0.72,3.25,2.41,5.51,2.89
			c1.08-0.68,0.02-2.14,1.03-3.13c1.89,3.02,3.97,5.88,7.33,7.43c1.94,0.02,0.4-2.57,2.34-2.81c3.68,2.45,6.19,6.52,10.19,8.96
			c2,1.22,4.13,2.24,6.23,2.61c2.28,0.4,5.57,2.09,6.83-2.16c0.18-0.61,2.15-0.69,4.47-1.36c-3.17,5.23-5.45,9.69-9.62,12.75
			c-0.68,0.49-1.69,1.24-2.99,0.09C621.35,314.03,617.57,314,614.55,312.57z"/>
		<path class="st0" d="M771.05,507.78c1.26,3.61-0.28,6.15,1.76,8.23c1.98-1.54,4.07-2.85,6.13-5.29c0.69,2.36,0.01,5.49,3.38,3.71
			c0.39,3.97-1.08,17.76-2.23,20.93c-1.91-3.17-3.05-3.47-6.04-0.49c-2.32,2.31-4.7,3.86-4.48,7.81c-3.06-1.37-3.23-4.8-5.6-6.21
			c-2.04,5.45-7.46,6.23-11.33,8.97c-0.5-6.08,1.6-11.83,1.06-17.74c-0.25-2.68,1.05-5.03,1.59-7.46c0.53-2.38,2.97-1.28,4.36,0.8
			C761.37,514.38,768.56,514.02,771.05,507.78z"/>
		<path class="st0" d="M731.53,178.1c0.18,1.39,0.34,3.15,1.18,4.49c-3.81,6.42-9.79,5.29-15.24,4.64
			c-4.29-0.51-8.69-1.08-12.79-2.75c-0.82-0.33-1.64-1.06-2.19,0.55c-0.24,0.7-1.52,0.69-2.25,0.25
			c-5.62-3.39-12.94-4.02-16.51-10.78c-1.96,1.85,0.32,3.25-0.28,4.91c-3.13-0.09-2.66-3.59-4.82-4.43c0.55-1.2,0.96-2.25,1.48-3.25
			c3.03-5.81,3.05-5.83,9.24-3.9c0.77,0.24,1.57,1.01,2.29,0.59c2.83-1.63,4.85-0.06,6.3,1.9c4.02,5.45,10.04,7.3,16.03,8.66
			c4.13,0.94,8.59,0.45,12.9,0.5C728.52,179.5,728.91,176.07,731.53,178.1z"/>
		<path class="st0" d="M696.77,120.86c-3.78-3.37-2.62-8.2-4.57-11.82c-0.38-0.7,0.67-2.87,2.26-3.39c1.28-0.42,2.22-0.06,1.79,1.62
			c3.59,0.42,3.79,4.09,5.76,6.07c3.92,3.95,7.66,8.09,13.89,8.67c-2.62,4.72-9.13,0.01-11.06,5.52c1.2,2.03,1.73,4.47,1.68,7.26
			c-1.4-3.39-5.93-1.65-7.41-4.87c-3.61,5.81-1.94,14.32,5.51,27.99c-1.32,1.06-2.56,0.75-3.38-0.52c-2.3-3.56-5.16-6.58-6.13-11.22
			c-0.54-2.57-1.19-5.77-2.96-8.43c-1.08-1.62,0.48-4.38-0.17-6.92c-0.7-2.68-0.99-5.66-1.25-8.81
			C692.78,121.87,694.26,119.71,696.77,120.86z"/>
		<path class="st0" d="M796.11,268.6c0.18,2.44-1.28,4.61,0.29,6.74c7.45-1.34,7.42-1.33,10.49,6.52c0.59,1.5,1.82,2.75,1.83,4.48
			c0,0.49-0.08,0.98-0.12,1.46c-4.42,0.69-4.42,0.69-8.47-2.05c-1.14,2.77-2.1,5.66-5.09,7.3c-1.29-0.31-1.38-1.69-1.66-3.13
			c-1.21,3.36-4.21,4.78-6.28,6.83c-1.01-3.82-2.15-7.71-3.04-11.66c-0.75-3.31-0.63-6.29,2.36-8.94
			C789.47,273.47,793.07,271.53,796.11,268.6z"/>
		<path class="st0" d="M1439.64,27.73c-10.48,3.01-20.2,4.2-29.08-3.34c4.84-2.39,10.34-2.55,15.15-4.74
			c0.48-0.22,1.3,0.08,1.87,0.35C1431.83,22,1435.57,24.75,1439.64,27.73z"/>
		<path class="st0" d="M779.54,70.16c-2.7-4-4.38-7.36-6.68-10.32c-1.74-2.24-0.63-4.27,1.11-6c3.02-3.01,5.8-6.32,10.61-8.52
			C785.32,54.04,783.17,61.73,779.54,70.16z"/>
		<path class="st0" d="M1075.58,253.14c-7.23,1.51-12.38-0.93-16.75-5.92c-1.97-2.24-3.7-4.98-7.29-5.16
			c1.22-2.39,2.18-0.59,3.09-0.65c3.16-0.21,6.07,1.1,9.23,1.24C1070.39,242.93,1072.23,248.75,1075.58,253.14z"/>
		<path class="st0" d="M797.59,247.12c-0.45,5.53,0.75,10.11,2.06,14.94c-2.28-0.51-4.52-0.51-5.4-3.36
			c-1.18,2.98-3.79,3.85-6.59,5.77c0.79-4.05,0.83-7.83,2.34-10.9C791.31,250.89,793.45,247.9,797.59,247.12z"/>
		<path class="st0" d="M824.94,881.7c3.43-0.68,5.01,0.35,4.8,3.5c-0.28,4.23,0.78,8.55-0.99,12.67c-1.06,2.45-2.36,4.55-6.2,4.43
			C825.92,895.55,824.24,888.61,824.94,881.7z"/>
		<path class="st0" d="M799.26,885.52c4.06,12.74,3.42,17.86-2.4,18.62c-0.39-5.36,0.22-10.77-1.65-16.05
			C794.18,885.2,797.08,885.46,799.26,885.52z"/>
		<path class="st0" d="M674.2,926.03c-0.71-5.88,0.78-16.62,2.88-18.82c4.37,5.31,2.89,11.01,1.44,16.62
			C677.99,925.91,676.63,927.24,674.2,926.03z"/>
		<path class="st0" d="M935.31,331.12c-8.74,0.95-10.06,0.17-12.61-7.6c-0.52-1.57-3.04-2.51-1.36-4.98
			C927.24,321.29,931.04,326.38,935.31,331.12z"/>
		<path class="st0" d="M620.26,404.66c5.5,5.16,7.09,11.19,6.28,18.06C620.85,418.23,618.46,412.48,620.26,404.66z"/>
		<path class="st0" d="M697.81,915.16c2.2-6.36-1.8-11.44-2.14-17.21c2.94-0.87,4.45-0.71,5.26,2.87c0.86,3.79,0.67,7.49,0.8,11.24
			C701.83,914.53,700.78,915.73,697.81,915.16z"/>
		<path class="st0" d="M640.14,915.53c-0.84-8.05-0.59-15.87,0.52-17.97C646.02,901.59,645.96,911.03,640.14,915.53z"/>
		<path class="st0" d="M851.36,881.14c4.29,4.49,2.84,9.81-3.72,13.5C849.55,890.06,848.74,885.29,851.36,881.14z"/>
		<path class="st0" d="M717.07,890.39c-2.5-4.4-0.73-9.27-0.97-13.96C718.67,880.9,720.01,885.5,717.07,890.39z"/>
	</g>
</g>
</svg>
